# FamiTracker text export 0.4.2

# Song information
TITLE           "Shovel Knight OST"
AUTHOR          "Jake Kaufman"
COPYRIGHT       ""

# Song comment
COMMENT ""

# Global settings
MACHINE         0
FRAMERATE       0
EXPANSION       1
VIBRATO         1
SPLIT           21

# Macros

# DPCM samples

# Instruments
INST2A03   0    -1  -1  -1  -1  -1 "blank"
INSTVRC6   1    -1  -1  -1  -1  -1 "blank"

# Tracks

TRACK 256   1 150 "New song"
COLUMNS : 3 3 1 1 2 2 2 2

ORDER 00 : 00 00 00 00 00 00 00 00
ORDER 01 : 01 01 01 01 01 01 01 01
ORDER 02 : 02 02 02 02 02 02 02 02
ORDER 03 : 03 03 03 03 03 03 03 03
ORDER 04 : 04 04 04 04 04 04 04 04
ORDER 05 : 05 05 05 05 05 05 05 05
ORDER 06 : 06 06 06 06 06 06 06 06
ORDER 07 : 07 07 07 07 07 07 07 07
ORDER 08 : 08 08 08 08 08 08 08 08
ORDER 09 : 09 09 09 09 09 09 09 09
ORDER 0A : 0A 0A 0A 0A 0A 0A 0A 0A
ORDER 0B : 0B 0B 0B 0B 0B 0B 0B 0B
ORDER 0C : 0C 0C 0C 0C 0C 0C 0C 0C
ORDER 0D : 0D 0D 0D 0D 0D 0D 0D 0D
ORDER 0E : 0E 0E 0E 0E 0E 0E 0E 0E
ORDER 0F : 0F 0F 0F 0F 0F 0F 0F 0F
ORDER 10 : 10 10 10 10 10 10 10 10
ORDER 11 : 11 11 11 11 11 11 11 11
ORDER 12 : 12 12 12 12 12 12 12 12
ORDER 13 : 13 13 13 13 13 13 13 13
ORDER 14 : 14 14 14 14 14 14 14 14
ORDER 15 : 15 15 15 15 15 15 15 15
ORDER 16 : 16 16 16 16 16 16 16 16
ORDER 17 : 17 17 17 17 17 17 17 17
ORDER 18 : 18 18 18 18 18 18 18 18
ORDER 19 : 19 19 19 19 19 19 19 19
ORDER 1A : 1A 1A 1A 1A 1A 1A 1A 1A
ORDER 1B : 1B 1B 1B 1B 1B 1B 1B 1B
ORDER 1C : 1C 1C 1C 1C 1C 1C 1C 1C

PATTERN 00
ROW 00 : D-3 00 F P80 V00 ... : D-3 00 B P80 V00 ... : D-3 00 . P80 : B-# 00 C V00 : === 00 . Z00 ... : G-4 01 9 P80 V03 : A-4 01 9 P80 V03 : D-5 01 A P80 V00
ROW 01 : ... .. E ... ... ... : ... .. F ... ... ... : ... .. . ... : ... .. . ... : ... .. . ... ... : ... .. 8 ... V01 : ... .. 8 ... V01 : ... .. 8 ... ...
ROW 02 : ... .. D ... ... ... : ... .. B ... ... ... : ... .. . ... : ... .. . ... : ... .. . ... ... : ... .. . ... ... : ... .. . ... ... : ... .. 5 ... ...
ROW 03 : ... .. A ... ... ... : ... .. 0 ... ... ... : ... .. . ... : ... .. 8 ... : ... .. . ... ... : ... .. . ... ... : ... .. . ... ... : ... .. . ... ...
ROW 04 : ... .. . ... ... ... : D-3 00 7 P80 ... ... : ... .. . ... : ... .. . ... : ... .. . ... ... : ... .. . ... ... : ... .. . ... ... : ... .. . ... ...
ROW 05 : ... .. . ... ... ... : A-2 00 9 ... ... ... : C#3 00 . P77 : ... .. 7 ... : ... .. . ... ... : ... .. . ... ... : ... .. . ... ... : ... .. . ... ...
ROW 06 : ... .. . ... ... ... : ... .. D ... ... ... : B-2 00 . P88 : ... .. . ... : ... .. . ... ... : ... .. . ... ... : ... .. . ... ... : ... .. . ... ...
ROW 07 : ... .. . ... ... ... : ... .. 9 ... ... ... : A#2 00 . P83 : ... .. . ... : ... .. . ... ... : ... .. 7 ... ... : ... .. 7 ... ... : ... .. . ... ...
ROW 08 : ... .. . ... ... ... : ... .. 0 ... ... ... : A-2 00 . P7F : ... .. 6 ... : ... .. . ... ... : ... .. . ... ... : ... .. . ... ... : ... .. . ... ...
ROW 09 : ... .. . ... ... ... : A-2 00 6 P80 ... ... : G#2 00 . P7E : ... .. . ... : ... .. . ... ... : ... .. . ... ... : ... .. . ... ... : ... .. . ... ...
ROW 0A : D-1 00 F ... ... ... : G-2 00 8 ... ... ... : D-2 00 . P80 : ... .. 5 ... : ... .. . ... ... : ... .. . ... ... : ... .. . ... ... : ... .. . ... ...
ROW 0B : ... .. E ... ... ... : ... .. C ... ... ... : ... .. . ... : ... .. . ... : ... .. . ... ... : ... .. 6 ... ... : ... .. 6 ... ... : ... .. . ... ...
ROW 0C : ... .. D ... ... ... : ... .. 8 ... ... ... : ... .. . ... : ... .. . ... : ... .. . ... ... : ... .. . ... ... : ... .. . ... ... : ... .. . ... ...
ROW 0D : ... .. A ... ... ... : ... .. 0 ... ... ... : ... .. . ... : ... .. 4 ... : ... .. . ... ... : --- .. . ... ... : --- .. . ... ... : --- .. . ... ...
ROW 0E : ... .. 2 ... ... ... : G-2 00 6 P80 ... ... : --- .. . ... : ... .. . ... : ... .. . ... ... : ... .. . ... ... : ... .. . ... ... : ... .. . ... ...
ROW 0F : ... .. F ... ... ... : D-2 00 8 ... ... ... : D-2 00 . ... : ... .. 3 ... : ... .. . ... ... : G-4 01 2 ... V03 : A-4 01 2 ... V03 : D-5 01 4 ... ...
ROW 10 : ... .. E ... ... ... : ... .. B ... ... ... : ... .. . ... : ... .. . ... : ... .. . ... ... : ... .. . ... V01 : ... .. . ... V01 : ... .. 3 ... ...
ROW 11 : ... .. D ... ... ... : ... .. 8 ... ... ... : ... .. . ... : ... .. . ... : ... .. . ... ... : ... .. . ... ... : ... .. . ... ... : ... .. 2 ... ...
ROW 12 : ... .. A ... ... ... : ... .. 0 ... ... ... : ... .. . ... : ... .. 2 ... : ... .. . ... ... : ... .. . ... ... : ... .. . ... ... : ... .. . ... ...
ROW 13 : ... .. 2 ... ... ... : D-2 00 5 P80 ... ... : --- .. . ... : ... .. . ... : ... .. . ... ... : ... .. . ... ... : ... .. . ... ... : ... .. . ... ...
ROW 14 : ... .. F ... ... ... : G-2 00 7 ... ... ... : D-2 00 . ... : 3-# 00 D ... : ... .. . ... ... : ... .. . ... ... : ... .. . ... ... : ... .. . ... ...
ROW 15 : ... .. E ... ... ... : ... .. A ... ... ... : ... .. . ... : ... .. . ... : ... .. . ... ... : ... .. . ... ... : ... .. . ... ... : ... .. . ... ...
ROW 16 : ... .. D ... ... ... : ... .. 7 ... ... ... : ... .. . ... : F-# 00 D ... : ... .. . ... ... : ... .. 1 ... ... : ... .. 1 ... ... : ... .. . ... ...
ROW 17 : ... .. A ... ... ... : ... .. 0 ... ... ... : ... .. . ... : D-# 00 6 ... : ... .. . ... ... : ... .. . ... ... : ... .. . ... ... : ... .. . ... ...
ROW 18 : ... .. 2 ... ... ... : G-2 00 4 P80 ... ... : ... .. . ... : 9-# 00 1 ... : ... .. . ... ... : ... .. . ... ... : ... .. . ... ... : ... .. . ... ...
ROW 19 : ... .. F ... ... ... : A-2 00 6 ... ... ... : ... .. . ... : ... .. 0 ... : ... .. . ... ... : ... .. . ... ... : ... .. . ... ... : ... .. . ... ...
ROW 1A : ... .. E ... ... ... : ... .. 9 ... ... ... : ... .. . ... : ... .. . ... : ... .. . ... ... : ... .. . ... ... : ... .. . ... ... : ... .. . ... ...
ROW 1B : ... .. D ... ... ... : ... .. 6 ... ... ... : ... .. . ... : ... .. . ... : ... .. . ... ... : ... .. . ... ... : ... .. . ... ... : ... .. . ... ...
ROW 1C : ... .. A ... ... ... : ... .. 0 ... ... ... : ... .. . ... : ... .. . ... : ... .. . ... ... : --- .. . ... ... : --- .. . ... ... : --- .. . ... ...
ROW 1D : ... .. 2 ... ... ... : A-2 00 4 P80 ... ... : --- .. . ... : ... .. . ... : ... .. . ... ... : ... .. . ... ... : ... .. . ... ... : ... .. . ... ...
ROW 1E : G-2 00 F ... ... ... : F-3 00 5 ... ... ... : D-3 00 . ... : B-# 00 C ... : ... .. . ... ... : C-4 01 9 ... V03 : D-4 01 9 ... V03 : G-4 01 A ... ...
ROW 1F : ... .. E ... ... ... : ... .. 8 ... ... ... : ... .. . ... : ... .. . ... : ... .. . ... ... : ... .. 8 ... V01 : ... .. 8 ... V01 : ... .. 8 ... ...
ROW 20 : ... .. D ... ... ... : ... .. 5 ... ... ... : ... .. . ... : ... .. . ... : ... .. . ... ... : ... .. . ... ... : ... .. . ... ... : ... .. 5 ... ...
ROW 21 : ... .. A ... ... ... : ... .. 0 ... ... ... : ... .. . ... : ... .. 8 ... : ... .. . ... ... : ... .. . ... ... : ... .. . ... ... : ... .. . ... ...
ROW 22 : ... .. . ... ... ... : F-3 00 4 P80 ... ... : ... .. . ... : ... .. . ... : ... .. . ... ... : ... .. . ... ... : ... .. . ... ... : ... .. . ... ...
ROW 23 : ... .. . ... ... ... : C-3 00 5 ... ... ... : C#3 00 . P77 : ... .. 7 ... : ... .. . ... ... : ... .. . ... ... : ... .. . ... ... : ... .. . ... ...
ROW 24 : ... .. . ... ... ... : ... .. 8 ... ... ... : B-2 00 . P88 : ... .. . ... : ... .. . ... ... : ... .. . ... ... : ... .. . ... ... : ... .. . ... ...
ROW 25 : ... .. . ... ... ... : ... .. 5 ... ... ... : A#2 00 . P83 : ... .. . ... : ... .. . ... ... : ... .. 7 ... ... : ... .. 7 ... ... : ... .. . ... ...
ROW 26 : ... .. . ... ... ... : ... .. 0 ... ... ... : A-2 00 . P7F : ... .. 6 ... : ... .. . ... ... : ... .. . ... ... : ... .. . ... ... : ... .. . ... ...
ROW 27 : ... .. 2 ... ... ... : C-3 00 4 P80 ... ... : G#2 00 . P7E : ... .. . ... : ... .. . ... ... : ... .. . ... ... : ... .. . ... ... : ... .. . ... ...
ROW 28 : D-1 00 F ... ... ... : G-2 00 5 ... ... ... : D-2 00 . P80 : ... .. 5 ... : ... .. . ... ... : ... .. . ... ... : ... .. . ... ... : ... .. . ... ...
ROW 29 : ... .. E ... ... ... : ... .. 8 ... ... ... : ... .. . ... : ... .. . ... : ... .. . ... ... : ... .. 6 ... ... : ... .. 6 ... ... : ... .. . ... ...
ROW 2A : ... .. D ... ... ... : ... .. 5 ... ... ... : ... .. . ... : ... .. . ... : ... .. . ... ... : ... .. . ... ... : ... .. . ... ... : ... .. . ... ...
ROW 2B : ... .. A ... ... ... : ... .. 0 ... ... ... : ... .. . ... : ... .. 4 ... : ... .. . ... ... : --- .. . ... ... : --- .. . ... ... : --- .. . ... ...
ROW 2C : ... .. 2 ... ... ... : G-2 00 4 P80 ... ... : --- .. . ... : ... .. . ... : ... .. . ... ... : ... .. . ... ... : ... .. . ... ... : ... .. . ... ...
ROW 2D : ... .. F ... ... ... : F-2 00 5 ... ... ... : D-2 00 . ... : ... .. 3 ... : ... .. . ... ... : C-4 01 2 ... V03 : D-4 01 2 ... V03 : G-4 01 4 ... ...
ROW 2E : ... .. E ... ... ... : ... .. 8 ... ... ... : ... .. . ... : ... .. . ... : ... .. . ... ... : ... .. . ... V01 : ... .. . ... V01 : ... .. 3 ... ...
ROW 2F : ... .. D ... ... ... : ... .. 5 ... ... ... : ... .. . ... : ... .. . ... : ... .. . ... ... : ... .. . ... ... : ... .. . ... ... : ... .. 2 ... ...
ROW 30 : ... .. A ... ... ... : ... .. 0 ... ... ... : ... .. . ... : ... .. 2 ... : ... .. . ... ... : ... .. . ... ... : ... .. . ... ... : ... .. . ... ...
ROW 31 : ... .. 2 ... ... ... : F-2 00 4 P80 ... ... : --- .. . ... : ... .. . ... : ... .. . ... ... : ... .. . ... ... : ... .. . ... ... : ... .. . ... ...
ROW 32 : ... .. F ... ... ... : G-2 00 6 ... ... ... : D-2 00 . ... : 3-# 00 D ... : ... .. . ... ... : ... .. . ... ... : ... .. . ... ... : ... .. . ... ...
ROW 33 : ... .. E ... ... ... : ... .. 9 ... ... ... : ... .. . ... : ... .. . ... : ... .. . ... ... : ... .. . ... ... : ... .. . ... ... : ... .. . ... ...
ROW 34 : ... .. D ... ... ... : ... .. 6 ... ... ... : ... .. . ... : F-# 00 D ... : ... .. . ... ... : ... .. 1 ... ... : ... .. 1 ... ... : ... .. . ... ...
ROW 35 : ... .. A ... ... ... : ... .. 0 ... ... ... : ... .. . ... : D-# 00 6 ... : ... .. . ... ... : ... .. . ... ... : ... .. . ... ... : ... .. . ... ...
ROW 36 : ... .. 2 ... ... ... : G-2 00 4 P80 ... ... : ... .. . ... : 9-# 00 1 ... : ... .. . ... ... : ... .. . ... ... : ... .. . ... ... : ... .. . ... ...
ROW 37 : ... .. F ... ... ... : C-3 00 6 ... ... ... : ... .. . ... : ... .. 0 ... : ... .. . ... ... : ... .. . ... ... : ... .. . ... ... : ... .. . ... ...
ROW 38 : ... .. E ... ... ... : ... .. 9 ... ... ... : ... .. . ... : ... .. . ... : ... .. . ... ... : ... .. . ... ... : ... .. . ... ... : ... .. . ... ...
ROW 39 : ... .. D ... ... ... : ... .. 6 ... ... ... : ... .. . ... : ... .. . ... : ... .. . ... ... : ... .. . ... ... : ... .. . ... ... : ... .. . ... ...
ROW 3A : ... .. A ... ... ... : ... .. 0 ... ... ... : ... .. . ... : ... .. . ... : ... .. . ... ... : --- .. . ... ... : --- .. . ... ... : --- .. . ... ...
ROW 3B : ... .. 2 ... ... ... : C-3 00 4 P80 ... ... : --- .. . ... : ... .. . ... : ... .. . ... ... : ... .. . ... ... : ... .. . ... ... : ... .. . ... ...
ROW 3C : C-3 00 F ... ... ... : G-3 00 6 ... ... ... : D-3 00 . ... : B-# 00 C ... : ... .. . ... ... : F-4 01 9 ... V03 : G-4 01 9 ... V03 : C-5 01 A ... ...
ROW 3D : ... .. E ... ... ... : ... .. 9 ... ... ... : ... .. . ... : ... .. . ... : ... .. . ... ... : ... .. 8 ... V01 : ... .. 8 ... V01 : ... .. 8 ... ...
ROW 3E : ... .. D ... ... ... : ... .. 6 ... ... ... : ... .. . ... : ... .. . ... : ... .. . ... ... : ... .. . ... ... : ... .. . ... ... : ... .. 5 ... ...
ROW 3F : ... .. A ... ... ... : ... .. 0 ... ... ... : ... .. . ... : ... .. 8 ... : ... .. . ... ... : ... .. . ... ... : ... .. . ... ... : ... .. . ... ...
ROW 40 : ... .. . ... ... ... : G-3 00 4 P80 ... ... : ... .. . ... : ... .. . ... : ... .. . ... ... : ... .. . ... ... : ... .. . ... ... : ... .. . ... ...
ROW 41 : ... .. . ... ... ... : D-3 00 6 ... ... ... : C#3 00 . P77 : ... .. 6 ... : ... .. . ... ... : ... .. . ... ... : ... .. . ... ... : ... .. . ... ...
ROW 42 : ... .. . ... ... ... : ... .. 9 ... ... ... : B-2 00 . P88 : ... .. . ... : ... .. . ... ... : ... .. . ... ... : ... .. . ... ... : ... .. . ... ...
ROW 43 : ... .. . ... ... ... : ... .. 6 ... ... ... : A#2 00 . P83 : ... .. . ... : ... .. . ... ... : ... .. 7 ... ... : ... .. 7 ... ... : ... .. . ... ...
ROW 44 : ... .. . ... ... ... : ... .. 0 ... ... ... : A-2 00 . P7F : ... .. 5 ... : ... .. . ... ... : ... .. . ... ... : ... .. . ... ... : ... .. . ... ...
ROW 45 : ... .. 2 ... ... ... : D-3 00 5 P80 ... ... : G#2 00 . P7E : ... .. . ... : ... .. . ... ... : ... .. . ... ... : ... .. . ... ... : ... .. . ... ...
ROW 46 : D-1 00 F ... ... ... : A-2 00 7 ... ... ... : D-2 00 . P80 : C-# 00 F ... : ... .. . ... ... : ... .. . ... ... : ... .. . ... ... : ... .. . ... ...
ROW 47 : ... .. E ... ... ... : ... .. A ... ... ... : ... .. . ... : ... .. C ... : ... .. . ... ... : ... .. 6 ... ... : ... .. 6 ... ... : ... .. . ... ...
ROW 48 : ... .. D ... ... ... : ... .. 7 ... ... ... : ... .. . ... : ... .. 6 ... : ... .. . ... ... : ... .. . ... ... : ... .. . ... ... : ... .. . ... ...
ROW 49 : ... .. A ... ... ... : ... .. 0 ... ... ... : ... .. . ... : ... .. 3 ... : ... .. . ... ... : --- .. . ... ... : --- .. . ... ... : --- .. . ... ...
ROW 4A : ... .. 2 ... ... ... : A-2 00 5 P80 ... ... : --- .. . ... : ... .. 2 ... : ... .. . ... ... : ... .. . ... ... : ... .. . ... ... : ... .. . ... ...
ROW 4B : ... .. F ... ... ... : G-2 00 7 ... ... ... : D-2 00 . ... : 1-# 00 F ... : ... .. . ... ... : F-4 01 2 ... V03 : G-4 01 2 ... V03 : C-5 01 4 ... ...
ROW 4C : ... .. E ... ... ... : ... .. A ... ... ... : ... .. . ... : ... .. C ... : ... .. . ... ... : ... .. . ... V01 : ... .. . ... V01 : ... .. 3 ... ...
ROW 4D : ... .. D ... ... ... : ... .. 7 ... ... ... : ... .. . ... : ... .. 6 ... : ... .. . ... ... : ... .. . ... ... : ... .. . ... ... : ... .. 2 ... ...
ROW 4E : ... .. A ... ... ... : ... .. 0 ... ... ... : ... .. . ... : ... .. 3 ... : ... .. . ... ... : ... .. . ... ... : ... .. . ... ... : ... .. . ... ...
ROW 4F : ... .. 2 ... ... ... : G-2 00 5 P80 ... ... : --- .. . ... : ... .. 2 ... : ... .. . ... ... : ... .. . ... ... : ... .. . ... ... : ... .. . ... ...
ROW 50 : ... .. F ... ... ... : A-2 00 7 ... ... ... : D-2 00 . ... : 3-# 00 D ... : ... .. . ... ... : ... .. . ... ... : ... .. . ... ... : ... .. . ... ...
ROW 51 : ... .. E ... ... ... : ... .. A ... ... ... : ... .. . ... : ... .. . ... : ... .. . ... ... : ... .. . ... ... : ... .. . ... ... : ... .. . ... ...
ROW 52 : ... .. D ... ... ... : ... .. 7 ... ... ... : ... .. . ... : F-# 00 D ... : ... .. . ... ... : ... .. 1 ... ... : ... .. 1 ... ... : ... .. . ... ...
ROW 53 : ... .. A ... ... ... : ... .. 0 ... ... ... : ... .. . ... : D-# 00 6 ... : ... .. . ... ... : ... .. . ... ... : ... .. . ... ... : ... .. . ... ...
ROW 54 : ... .. 2 ... ... ... : A-2 00 5 P80 ... ... : ... .. . ... : 9-# 00 1 ... : ... .. . ... ... : ... .. . ... ... : ... .. . ... ... : ... .. . ... ...
ROW 55 : ... .. F ... ... ... : D-3 00 8 ... ... ... : ... .. . ... : ... .. 0 ... : ... .. . ... ... : ... .. . ... ... : ... .. . ... ... : ... .. . ... ...
ROW 56 : ... .. E ... ... ... : ... .. B ... ... ... : ... .. . ... : 3-# 00 6 ... : ... .. . ... ... : ... .. . ... ... : ... .. . ... ... : ... .. . ... ...
ROW 57 : ... .. D ... ... ... : ... .. 8 ... ... ... : ... .. . ... : ... .. . ... : ... .. . ... ... : ... .. . ... ... : ... .. . ... ... : ... .. . ... ...
ROW 58 : ... .. A ... ... ... : ... .. 0 ... ... ... : ... .. . ... : F-# 00 6 ... : ... .. . ... ... : --- .. . ... ... : --- .. . ... ... : --- .. . ... ...
ROW 59 : ... .. 2 ... ... ... : D-3 00 5 P80 ... ... : --- .. . ... : D-# 00 3 ... : ... .. . ... ... : ... .. . ... ... : ... .. . ... ... : ... .. . ... ...
ROW 5A : F-3 00 F ... ... ... : A-3 00 8 ... ... ... : D-3 00 . ... : B-# 00 C ... : ... .. . ... ... : A#4 01 9 ... V03 : C-5 01 9 ... V03 : F-5 01 F ... ...
ROW 5B : ... .. E ... ... ... : ... .. B ... ... ... : ... .. . ... : ... .. . ... : ... .. . ... ... : ... .. 8 ... V01 : ... .. 8 ... V01 : ... .. D ... ...
ROW 5C : ... .. D ... ... ... : ... .. 8 ... ... ... : ... .. . ... : ... .. . ... : ... .. . ... ... : ... .. . ... ... : ... .. . ... ... : ... .. 8 ... ...
ROW 5D : ... .. 8 ... ... ... : ... .. 0 ... ... ... : ... .. . ... : ... .. 8 ... : ... .. . ... ... : ... .. 6 ... ... : ... .. 6 ... ... : ... .. 6 ... ...
ROW 5E : ... .. . ... ... ... : A-3 00 5 P80 ... ... : ... .. . ... : ... .. . ... : ... .. . ... ... : ... .. . ... ... : ... .. . ... ... : ... .. . ... ...
ROW 5F : ... .. 6 ... ... ... : D-3 00 8 ... ... ... : C#3 00 . P77 : ... .. 7 ... : ... .. . ... ... : ... .. 4 ... ... : ... .. 4 ... ... : ... .. 4 ... ...
ROW 60 : ... .. . ... ... ... : ... .. B ... ... ... : B-2 00 . P88 : ... .. . ... : ... .. . ... ... : ... .. . ... ... : ... .. . ... ... : ... .. . ... ...
ROW 61 : ... .. . ... ... ... : ... .. 8 ... ... ... : A#2 00 . P83 : ... .. . ... : ... .. . ... ... : ... .. . ... ... : ... .. . ... ... : ... .. . ... ...
ROW 62 : ... .. 4 ... ... ... : ... .. 0 ... ... ... : A-2 00 . P7F : ... .. 6 ... : ... .. . ... ... : ... .. 2 ... ... : ... .. 2 ... ... : ... .. 3 ... ...
ROW 63 : ... .. . ... ... ... : D-3 00 5 P80 ... ... : G#2 00 . P7E : ... .. . ... : ... .. . ... ... : ... .. . ... ... : ... .. . ... ... : ... .. . ... ...
ROW 64 : ... .. 2 ... ... ... : A-2 00 8 ... ... ... : D-2 00 . P80 : ... .. 5 ... : ... .. . ... ... : ... .. 1 ... ... : ... .. 1 ... ... : ... .. 2 ... ...
ROW 65 : ... .. . ... ... ... : ... .. B ... ... ... : ... .. . ... : ... .. . ... : ... .. . ... ... : ... .. . ... ... : ... .. . ... ... : ... .. . ... ...
ROW 66 : ... .. . ... ... ... : ... .. 8 ... ... ... : ... .. . ... : ... .. . ... : ... .. . ... ... : ... .. . ... ... : ... .. . ... ... : ... .. . ... ...
ROW 67 : ... .. . ... ... ... : ... .. 0 ... ... ... : ... .. . ... : ... .. 4 ... : ... .. . ... ... : ... .. . ... ... : ... .. . ... ... : ... .. . ... ...
ROW 68 : ... .. . ... ... ... : A-2 00 6 P80 ... ... : --- .. . ... : ... .. . ... : ... .. . ... ... : ... .. . ... ... : ... .. . ... ... : ... .. . ... ...
ROW 69 : ... .. 3 ... ... ... : G-2 00 8 ... ... ... : D-2 00 . ... : ... .. 3 ... : ... .. . ... ... : ... .. . ... ... : ... .. . ... ... : ... .. . ... ...
ROW 6A : ... .. . ... ... ... : ... .. C ... ... ... : ... .. . ... : ... .. . ... : ... .. . ... ... : ... .. . ... ... : ... .. . ... ... : ... .. . ... ...
ROW 6B : ... .. . ... ... ... : ... .. 8 ... ... ... : ... .. . ... : ... .. . ... : ... .. . ... ... : ... .. . ... ... : ... .. . ... ... : ... .. . ... ...
ROW 6C : ... .. 4 ... ... ... : ... .. 0 ... ... ... : ... .. . ... : ... .. 2 ... : ... .. . ... ... : ... .. . ... ... : ... .. . ... ... : ... .. 3 ... ...
ROW 6D : ... .. . ... ... ... : G-2 00 6 P80 ... ... : --- .. . ... : ... .. . ... : ... .. . ... ... : ... .. . ... ... : ... .. . ... ... : ... .. . ... ...
ROW 6E : ... .. . ... ... ... : A-2 00 8 ... ... ... : D-2 00 . ... : 3-# 00 D ... : ... .. . ... ... : ... .. . ... ... : ... .. . ... ... : ... .. . ... ...
ROW 6F : ... .. . ... ... ... : ... .. C ... ... ... : ... .. . ... : ... .. . ... : ... .. . ... ... : ... .. . ... ... : ... .. . ... ... : ... .. . ... ...
ROW 70 : ... .. . ... ... ... : ... .. 8 ... ... ... : ... .. . ... : F-# 00 D ... : ... .. . ... ... : ... .. . ... ... : ... .. . ... ... : ... .. . ... ...
ROW 71 : ... .. 5 ... ... ... : ... .. 0 ... ... ... : ... .. . ... : D-# 00 6 ... : ... .. . ... ... : ... .. 2 ... ... : ... .. 2 ... ... : ... .. 4 ... ...
ROW 72 : ... .. . ... ... ... : A-2 00 6 P80 ... ... : ... .. . ... : 9-# 00 1 ... : ... .. . ... ... : ... .. . ... ... : ... .. . ... ... : ... .. . ... ...
ROW 73 : F#3 00 6 P7D ... ... : D-3 00 8 ... ... ... : ... .. . ... : ... .. 0 ... : ... .. . ... ... : ... .. . ... ... : ... .. . ... ... : ... .. . ... ...
ROW 74 : ... .. . P83 ... ... : ... .. C ... ... ... : ... .. . ... : ... .. . ... : ... .. . ... ... : ... .. . ... ... : ... .. . ... ... : ... .. . ... ...
ROW 75 : ... .. . P7B ... ... : ... .. 8 ... ... ... : ... .. . ... : ... .. . ... : ... .. . ... ... : ... .. . ... ... : ... .. . ... ... : ... .. . ... ...
ROW 76 : F-3 00 6 P80 ... ... : ... .. 0 ... ... ... : ... .. . ... : ... .. . ... : ... .. . ... ... : ... .. . P83 ... : ... .. . P83 ... : ... .. 5 P83 ...
ROW 77 : E-3 00 6 P84 ... ... : D-3 00 6 P80 ... ... : --- .. . ... : ... .. . ... : ... .. . ... ... : B-4 01 2 P7D ... : C#5 01 2 P7E ... : F#5 01 5 P7E ...
ROW 78 : ... .. 7 P7E ... ... : G-3 00 9 ... ... ... : D-3 00 . ... : 2-# 00 D ... : ... .. . ... ... : A#4 01 2 P83 ... : C-5 01 2 P83 ... : F-5 01 5 P83 ...
ROW 79 : ... .. . P86 ... ... : ... .. D ... ... ... : ... .. . ... : ... .. . ... : ... .. . ... ... : ... .. . P80 ... : ... .. . P80 ... : ... .. . P80 ...
ROW 7A : F-3 00 7 P80 ... ... : ... .. 9 ... ... ... : ... .. . ... : E-# 00 D ... : ... .. . ... ... : ... .. . P7D ... : B-4 01 2 P83 ... : E-5 01 5 P82 ...
ROW 7B : F#3 00 8 P7D ... ... : ... .. 0 ... ... ... : ... .. . ... : B-# 00 8 ... : ... .. . ... ... : A-4 01 2 P83 ... : ... .. . P82 ... : ... .. 6 P81 ...
ROW 7C : ... .. . P83 ... ... : G-3 00 6 P80 ... ... : ... .. . ... : ... .. . ... : ... .. . ... ... : A#4 01 2 P7D ... : ... .. . P83 ... : ... .. . P82 ...
ROW 7D : ... .. . P7B ... ... : A-3 00 9 ... ... ... : C#3 00 . P77 : ... .. 6 ... : ... .. . ... ... : ... .. . P80 ... : C-5 01 2 P80 ... : F-5 01 6 P80 ...
ROW 7E : F-3 00 8 P80 ... ... : ... .. D ... ... ... : B-2 00 . P88 : ... .. . ... : ... .. . ... ... : ... .. . P83 ... : ... .. . P83 ... : ... .. . P83 ...
ROW 7F : E-3 00 8 P84 ... ... : ... .. 9 ... ... ... : A#2 00 . P83 : ... .. . ... : ... .. . ... ... : B-4 01 2 P7D ... : C#5 01 2 P7E ... : F#5 01 6 P7E ...
ROW 80 : ... .. 9 P7E ... ... : ... .. 0 ... ... ... : A-2 00 . P7F : ... .. 4 ... : ... .. . ... ... : A#4 01 2 P83 ... : C-5 01 2 P83 ... : F-5 01 7 P83 ...
ROW 81 : ... .. . P86 ... ... : A-3 00 6 P80 ... ... : G#2 00 . P7E : ... .. . ... : ... .. . ... ... : ... .. . P80 ... : ... .. . P80 ... : ... .. . P80 ...
ROW 82 : F-3 00 A P80 ... ... : D-4 00 9 ... ... ... : C#3 00 . P77 : 2-# 00 F ... : ... .. . ... ... : ... .. 3 P7D ... : B-4 01 3 P83 ... : E-5 01 8 P82 ...
ROW 83 : F#3 00 A P7D ... ... : ... .. D ... ... ... : B-2 00 . P88 : ... .. C ... : ... .. . ... ... : A-4 01 3 P83 ... : ... .. . P82 ... : ... .. . P81 ...
ROW 84 : ... .. . P83 ... ... : ... .. 9 ... ... ... : A#2 00 . P83 : ... .. 6 ... : ... .. . ... ... : A#4 01 3 P7D ... : ... .. . P83 ... : ... .. . P82 ...
ROW 85 : ... .. . P7B ... ... : ... .. 0 ... ... ... : A-2 00 . P7F : ... .. 3 ... : ... .. . ... ... : ... .. . P80 ... : C-5 01 3 P80 ... : F-5 01 8 P80 ...
ROW 86 : F-3 00 A P80 ... ... : D-4 00 6 P80 ... ... : G#2 00 . P7E : ... .. 2 ... : ... .. . ... ... : ... .. . P83 ... : ... .. . P83 ... : ... .. . P83 ...
ROW 87 : E-3 00 A P84 ... ... : G-4 00 9 ... ... ... : G-2 00 . ... : ... .. 0 ... : ... .. . ... ... : B-4 01 3 P7D ... : C#5 01 3 P7E ... : F#5 01 8 P7E ...
ROW 88 : ... .. . P7E ... ... : ... .. D ... ... ... : F#2 00 . P80 : ... .. . ... : ... .. . ... ... : A#4 01 3 P83 ... : C-5 01 3 P83 ... : F-5 01 8 P83 ...
ROW 89 : ... .. . P86 ... ... : ... .. 9 ... ... ... : F-2 00 . P84 : ... .. . ... : ... .. . ... ... : ... .. . P80 ... : ... .. . P80 ... : ... .. . P80 ...
ROW 8A : F-3 00 A P80 ... ... : ... .. 0 ... ... ... : E-2 00 . P8A : ... .. . ... : ... .. . ... ... : ... .. . P7D ... : B-4 01 3 P83 ... : E-5 01 8 P82 ...
ROW 8B : F#3 00 A P7D ... ... : G-4 00 7 P80 ... ... : D#2 00 . P92 : ... .. . ... : ... .. . ... ... : A-4 01 3 P83 ... : ... .. . P82 ... : ... .. . P81 ...
ROW 8C : A-2 00 F P80 ... ... : A-4 00 A ... ... ... : C#3 00 . P77 : ... .. D ... : ... .. . ... ... : --- .. . ... ... : --- .. . ... ... : --- .. . ... ...
ROW 8D : ... .. E ... ... ... : ... .. E ... ... ... : B-2 00 . P88 : ... .. . ... : ... .. . ... ... : ... .. . ... ... : ... .. . ... ... : ... .. . ... ...
ROW 8E : ... .. D ... ... ... : ... .. A ... ... ... : A#2 00 . P83 : E-# 00 D ... : ... .. . ... ... : ... .. . ... ... : ... .. . ... ... : ... .. . ... ...
ROW 8F : ... .. A ... ... ... : ... .. 0 ... ... ... : A-2 00 . P7F : B-# 00 4 ... : ... .. . ... ... : ... .. . ... ... : ... .. . ... ... : ... .. . ... ...
ROW 90 : ... .. . ... ... ... : A-4 00 7 P80 ... ... : G#2 00 . P7E : ... .. . ... : ... .. . ... ... : ... .. . ... ... : ... .. . ... ... : ... .. . ... ...
ROW 91 : ... .. . ... ... ... : D-5 00 A ... ... ... : C#3 00 . P77 : 2-# 00 D ... : ... .. . ... ... : ... .. . ... ... : ... .. . ... ... : ... .. . ... ...
ROW 92 : ... .. . ... ... ... : ... .. E ... ... ... : B-2 00 . P88 : ... .. . ... : ... .. . ... ... : ... .. . ... ... : ... .. . ... ... : ... .. . ... ...
ROW 93 : ... .. . ... ... ... : ... .. A ... ... ... : A#2 00 . P83 : E-# 00 D ... : ... .. . ... ... : ... .. . ... ... : ... .. . ... ... : ... .. . ... ...
ROW 94 : ... .. . ... ... ... : ... .. 0 ... ... ... : A-2 00 . P7F : C-# 00 1 ... : ... .. . ... ... : ... .. . ... ... : ... .. . ... ... : ... .. . ... ...
ROW 95 : ... .. . ... ... ... : D-5 00 7 P80 ... ... : G#2 00 . P7E : 8-# 00 1 ... : ... .. . ... ... : ... .. . ... ... : ... .. . ... ... : ... .. . ... ...
ROW 96 : ... .. . ... ... ... : G-5 00 A ... ... ... : C#3 00 . P77 : 2-# 00 F ... : ... .. . ... ... : ... .. . ... ... : ... .. . ... ... : ... .. . ... ...
ROW 97 : ... .. . ... ... ... : ... .. E ... ... ... : B-2 00 . P88 : ... .. C ... : ... .. . ... ... : ... .. . ... ... : ... .. . ... ... : ... .. . ... ...
ROW 98 : ... .. . ... ... ... : ... .. A ... ... ... : A#2 00 . P83 : ... .. 6 ... : ... .. . ... ... : ... .. . ... ... : ... .. . ... ... : ... .. . ... ...
ROW 99 : ... .. . ... ... ... : ... .. 0 ... ... ... : A-2 00 . P7F : ... .. 3 ... : ... .. . ... ... : ... .. . ... ... : ... .. . ... ... : ... .. . ... ...
ROW 9A : ... .. . ... ... ... : G-5 00 7 P80 ... ... : G#2 00 . P7E : ... .. 2 ... : ... .. . ... ... : ... .. . ... ... : ... .. . ... ... : ... .. . ... ...
ROW 9B : ... .. . ... ... ... : A-5 00 B ... ... ... : C#3 00 . P77 : 1-# 00 F ... : ... .. . ... ... : ... .. . ... ... : ... .. . ... ... : ... .. . ... ...
ROW 9C : ... .. 2 ... ... ... : ... .. F ... ... ... : B-2 00 . P88 : ... .. C ... : ... .. . ... ... : ... .. . ... ... : ... .. . ... ... : ... .. . ... ...
ROW 9D : ... .. . ... ... ... : ... .. B ... ... ... : A#2 00 . P83 : ... .. 6 ... : ... .. . ... ... : ... .. . ... ... : ... .. . ... ... : ... .. . ... ...
ROW 9E : ... .. . ... ... ... : ... .. 0 ... ... ... : A-2 00 . P7F : ... .. 3 ... : ... .. . ... ... : ... .. . ... ... : ... .. . ... ... : ... .. . ... ...
ROW 9F : ... .. 1 ... ... ... : A-5 00 8 P80 ... ... : G#2 00 . P7E : ... .. 2 ... : ... .. . ... ... : ... .. . ... ... : ... .. . ... ... : ... .. . ... ...
ROW A0 : D-3 00 F ... ... ... : D-4 00 8 ... ... ... : D-3 00 . P80 : ... .. F ... : ... .. . Z00 ... : A-3 01 7 P7F V05 : D-3 01 7 P81 V05 : D-2 01 A P80 ...
ROW A1 : ... .. E ... ... ... : ... .. 3 ... ... ... : ... .. . ... : ... .. C ... : ... .. . ... ... : ... .. 6 ... ... : ... .. 6 ... ... : ... .. 8 ... ...
ROW A2 : ... .. D ... ... ... : ... .. 0 ... ... ... : ... .. . ... : ... .. 6 ... : ... .. . ... ... : ... .. . ... ... : ... .. . ... ... : ... .. 5 ... ...
ROW A3 : ... .. A ... ... ... : D-4 00 3 P80 ... ... : ... .. . ... : ... .. 3 ... : ... .. . ... ... : ... .. . ... ... : ... .. . ... ... : ... .. . ... ...
ROW A4 : ... .. . ... ... ... : ... .. 4 ... ... ... : ... .. . ... : ... .. 2 ... : ... .. . ... ... : ... .. 5 ... ... : ... .. 5 ... ... : ... .. . ... ...
ROW A5 : ... .. . ... ... ... : A-3 00 8 ... ... ... : ... .. . ... : D-# 00 8 ... : ... .. . ... ... : ... .. . ... ... : ... .. . ... ... : ... .. . ... ...
ROW A6 : ... .. . ... ... ... : ... .. 3 ... ... ... : ... .. . ... : ... .. 6 ... : ... .. . ... ... : ... .. . ... ... : ... .. . ... ... : ... .. . ... ...
ROW A7 : ... .. . ... ... ... : ... .. 0 ... ... ... : ... .. . ... : ... .. 3 ... : ... .. . ... ... : ... .. 4 ... ... : ... .. 4 ... ... : ... .. . ... ...
ROW A8 : ... .. . ... ... ... : A-3 00 3 P80 ... ... : --- .. . ... : ... .. 1 ... : ... .. . ... ... : ... .. . ... ... : ... .. . ... ... : ... .. . ... ...
ROW A9 : ... .. . ... ... ... : ... .. 4 ... ... ... : ... .. . ... : ... .. . ... : ... .. . ... ... : ... .. . ... ... : ... .. . ... ... : ... .. . ... ...
ROW AA : ... .. . ... ... ... : G-3 00 8 ... ... ... : D-3 00 . ... : ... .. A ... : ... .. . ... ... : --- .. . ... ... : --- .. . P83 ... : ... .. . ... ...
ROW AB : ... .. . ... ... ... : ... .. 3 ... ... ... : ... .. . ... : ... .. 8 ... : ... .. . ... ... : ... .. . ... ... : ... .. . ... ... : ... .. . ... ...
ROW AC : ... .. . ... ... ... : ... .. 0 ... ... ... : ... .. . ... : ... .. 4 ... : ... .. . ... ... : ... .. . ... ... : ... .. . ... ... : ... .. . ... ...
ROW AD : ... .. . ... ... ... : G-3 00 3 P80 ... ... : ... .. . ... : ... .. 2 ... : ... .. . ... ... : ... .. . ... ... : ... .. . ... ... : ... .. . ... ...
ROW AE : ... .. . ... ... ... : ... .. 4 ... ... ... : ... .. . ... : ... .. 1 ... : ... .. . ... ... : ... .. . ... ... : ... .. . ... ... : ... .. . ... ...
ROW AF : ... .. . ... ... ... : D-3 00 8 ... ... ... : ... .. . ... : ... .. 8 ... : ... .. . ... ... : ... .. . ... ... : ... .. . ... ... : ... .. . ... ...
ROW B0 : ... .. . ... ... ... : ... .. 3 ... ... ... : ... .. . ... : ... .. 6 ... : ... .. . ... ... : ... .. . ... ... : ... .. . ... ... : ... .. . ... ...
ROW B1 : ... .. . ... ... ... : ... .. 0 ... ... ... : ... .. . ... : ... .. 3 ... : ... .. . ... ... : ... .. . ... ... : ... .. . ... ... : ... .. . ... ...
ROW B2 : ... .. . ... ... ... : D-3 00 3 P80 ... ... : --- .. . ... : ... .. 1 ... : ... .. . ... ... : ... .. . ... ... : ... .. . ... ... : ... .. . ... ...
ROW B3 : ... .. . ... ... ... : ... .. 4 ... ... ... : ... .. . ... : ... .. . ... : ... .. . ... ... : ... .. . ... ... : ... .. . ... ... : ... .. . ... ...
ROW B4 : ... .. . ... ... ... : G-3 00 8 ... ... ... : D-4 00 . ... : 1-# 00 D ... : ... .. . ... ... : A-3 01 7 ... ... : D-3 01 7 P81 ... : ... .. . ... ...
ROW B5 : ... .. . ... ... ... : ... .. 3 ... ... ... : ... .. . ... : ... .. . ... : ... .. . ... ... : ... .. 6 ... ... : ... .. 6 ... ... : ... .. . ... ...
ROW B6 : ... .. . ... ... ... : ... .. 0 ... ... ... : ... .. . ... : D-# 00 D ... : ... .. . ... ... : ... .. . ... ... : ... .. . ... ... : ... .. . ... ...
ROW B7 : ... .. . ... ... ... : G-3 00 3 P80 ... ... : ... .. . ... : B-# 00 6 ... : ... .. . ... ... : --- .. . ... ... : --- .. . P83 ... : ... .. . ... ...
ROW B8 : ... .. . ... ... ... : ... .. 4 ... ... ... : --- .. . ... : 7-# 00 1 ... : ... .. . ... ... : ... .. . ... ... : ... .. . ... ... : ... .. . ... ...
ROW B9 : ... .. . ... ... ... : A-3 00 8 ... ... ... : D-4 00 . ... : D-# 00 8 ... : ... .. . ... ... : A-3 01 7 ... ... : D-3 01 7 P81 ... : ... .. . P84 ...
ROW BA : ... .. . ... ... ... : ... .. 3 ... ... ... : ... .. . ... : ... .. 6 ... : ... .. . ... ... : ... .. 6 ... ... : ... .. 6 ... ... : ... .. . P86 ...
ROW BB : ... .. . ... ... ... : ... .. 0 ... ... ... : ... .. . ... : ... .. 3 ... : ... .. . ... ... : ... .. . ... ... : ... .. . ... ... : ... .. . P85 ...
ROW BC : ... .. . ... ... ... : A-3 00 3 P80 ... ... : ... .. . ... : ... .. 1 ... : ... .. . ... ... : --- .. . ... ... : --- .. . P83 ... : ... .. . P82 ...
ROW BD : ... .. . ... ... ... : ... .. 4 ... ... ... : --- .. . ... : ... .. . ... : ... .. . ... ... : ... .. . ... ... : ... .. . ... ... : ... .. . P7E ...
ROW BE : ... .. . ... ... ... : D-4 00 8 ... ... ... : D-3 00 . ... : ... .. A ... : ... .. . ... ... : A-3 01 7 ... ... : D-3 01 7 P81 ... : ... .. . P7B ...
ROW BF : ... .. . ... ... ... : ... .. 3 ... ... ... : ... .. . ... : ... .. 8 ... : ... .. . ... ... : ... .. 6 ... ... : ... .. 6 ... ... : ... .. . P7A ...
ROW C0 : ... .. . ... ... ... : ... .. 0 ... ... ... : ... .. . ... : ... .. 4 ... : ... .. . ... ... : ... .. . ... ... : ... .. . ... ... : ... .. . P7C ...
ROW C1 : ... .. . ... ... ... : D-4 00 3 P80 ... ... : ... .. . ... : ... .. 2 ... : ... .. . ... ... : ... .. . ... ... : ... .. . ... ... : ... .. . P80 ...
ROW C2 : ... .. . ... ... ... : ... .. 4 ... ... ... : --- .. . ... : ... .. 1 ... : ... .. . ... ... : ... .. 5 ... ... : ... .. 5 ... ... : ... .. . P83 ...
ROW C3 : ... .. . ... ... ... : A-3 00 8 ... ... ... : D-3 00 . ... : ... .. 8 ... : ... .. . ... ... : ... .. . ... ... : ... .. . ... ... : ... .. . P86 ...
ROW C4 : ... .. . ... ... ... : ... .. 3 ... ... ... : ... .. . ... : ... .. 6 ... : ... .. . ... ... : ... .. . ... ... : ... .. . ... ... : ... .. 2 ... ...
ROW C5 : ... .. . ... ... ... : ... .. 0 ... ... ... : ... .. . ... : ... .. 3 ... : ... .. . ... ... : ... .. 4 ... ... : ... .. 4 ... ... : ... .. . P82 ...
ROW C6 : ... .. . ... ... ... : A-3 00 3 P80 ... ... : ... .. . ... : ... .. 1 ... : ... .. . ... ... : ... .. . ... ... : ... .. . ... ... : ... .. 1 P7F ...
ROW C7 : ... .. . ... ... ... : ... .. 4 ... ... ... : --- .. . ... : ... .. . ... : ... .. . ... ... : ... .. . ... ... : ... .. . ... ... : ... .. . P7B ...
ROW C8 : ... .. . ... ... ... : D-4 00 8 ... ... ... : D-3 00 . ... : 1-# 00 F ... : ... .. . ... ... : --- .. . ... ... : --- .. . P83 ... : D-1 01 A P80 ...
ROW C9 : ... .. . ... ... ... : ... .. 3 ... ... ... : ... .. . ... : ... .. C ... : ... .. . ... ... : ... .. . ... ... : ... .. . ... ... : ... .. 8 ... ...
ROW CA : ... .. . ... ... ... : ... .. 0 ... ... ... : ... .. . ... : ... .. 6 ... : ... .. . ... ... : ... .. . ... ... : ... .. . ... ... : ... .. 5 ... ...
ROW CB : ... .. . P84 ... ... : D-4 00 3 P80 ... ... : ... .. . ... : ... .. 3 ... : ... .. . ... ... : ... .. . ... ... : ... .. . ... ... : ... .. . ... ...
ROW CC : ... .. . P86 ... ... : ... .. 4 ... ... ... : ... .. . ... : ... .. 2 ... : ... .. . ... ... : ... .. . ... ... : ... .. . ... ... : ... .. 2 ... ...
ROW CD : ... .. . P85 ... ... : A-3 00 8 ... ... ... : ... .. . ... : D-# 00 8 ... : ... .. . ... ... : ... .. . ... ... : ... .. . ... ... : ... .. A ... ...
ROW CE : ... .. . P82 ... ... : ... .. 3 ... ... ... : ... .. . ... : ... .. 6 ... : ... .. . ... ... : ... .. . ... ... : ... .. . ... ... : ... .. 8 ... ...
ROW CF : ... .. . P7E ... ... : ... .. 0 ... ... ... : ... .. . ... : ... .. 3 ... : ... .. . ... ... : ... .. . ... ... : ... .. . ... ... : ... .. 5 ... ...
ROW D0 : ... .. . P7B ... ... : A-3 00 3 P80 ... ... : --- .. . ... : ... .. 1 ... : ... .. . ... ... : ... .. . ... ... : ... .. . ... ... : ... .. . ... ...
ROW D1 : ... .. . P7A ... ... : ... .. 4 ... ... ... : ... .. . ... : ... .. . ... : ... .. . ... ... : ... .. . ... ... : ... .. . ... ... : ... .. 2 ... ...
ROW D2 : ... .. . P7C ... ... : G-3 00 8 ... ... ... : D-3 00 . ... : ... .. A ... : ... .. . ... ... : A-3 01 7 ... ... : D-3 01 7 P81 ... : D-0 01 A ... ...
ROW D3 : ... .. . P80 ... ... : ... .. 3 ... ... ... : ... .. . ... : ... .. 8 ... : ... .. . ... ... : ... .. 6 ... ... : ... .. 6 ... ... : ... .. 8 ... ...
ROW D4 : ... .. . P83 ... ... : ... .. 0 ... ... ... : ... .. . ... : ... .. 4 ... : ... .. . ... ... : ... .. . ... ... : ... .. . ... ... : ... .. 5 ... ...
ROW D5 : ... .. . P86 ... ... : G-3 00 3 P80 ... ... : ... .. . ... : ... .. 2 ... : ... .. . ... ... : --- .. . ... ... : --- .. . P83 ... : ... .. . ... ...
ROW D6 : ... .. . ... ... ... : ... .. 4 ... ... ... : ... .. . ... : ... .. 1 ... : ... .. . ... ... : ... .. . ... ... : ... .. . ... ... : ... .. 2 ... ...
ROW D7 : ... .. . P82 ... ... : D-3 00 8 ... ... ... : ... .. . ... : ... .. 8 ... : ... .. . ... ... : A-3 01 7 ... ... : D-3 01 7 P81 ... : ... .. A ... ...
ROW D8 : ... .. . P7F ... ... : ... .. 3 ... ... ... : ... .. . ... : ... .. 6 ... : ... .. . ... ... : ... .. 6 ... ... : ... .. 6 ... ... : ... .. 8 ... ...
ROW D9 : ... .. . P7B ... ... : ... .. 0 ... ... ... : ... .. . ... : ... .. 3 ... : ... .. . ... ... : ... .. . ... ... : ... .. . ... ... : ... .. 5 ... ...
ROW DA : ... .. . P7A ... ... : D-3 00 3 P80 ... ... : --- .. . ... : ... .. 1 ... : ... .. . ... ... : --- .. . ... ... : --- .. . P83 ... : ... .. . ... ...
ROW DB : ... .. . P7C ... ... : ... .. 4 ... ... ... : ... .. . ... : ... .. . ... : ... .. . ... ... : ... .. . ... ... : ... .. . ... ... : ... .. 2 ... ...
ROW DC : ... .. . P80 ... ... : G-3 00 8 ... ... ... : D-4 00 . ... : 1-# 00 D ... : ... .. . ... ... : A-3 01 7 ... ... : D-3 01 7 P81 ... : D-1 01 A ... ...
ROW DD : ... .. . P83 ... ... : ... .. 3 ... ... ... : ... .. . ... : ... .. . ... : ... .. . ... ... : ... .. 6 ... ... : ... .. 6 ... ... : ... .. 8 ... ...
ROW DE : ... .. . P86 ... ... : ... .. 0 ... ... ... : ... .. . ... : D-# 00 D ... : ... .. . ... ... : ... .. . ... ... : ... .. . ... ... : ... .. 5 ... ...
ROW DF : ... .. . ... ... ... : G-3 00 3 P80 ... ... : ... .. . ... : B-# 00 6 ... : ... .. . ... ... : ... .. . ... ... : ... .. . ... ... : ... .. . ... ...
ROW E0 : ... .. . P83 ... ... : ... .. 4 ... ... ... : --- .. . ... : 7-# 00 1 ... : ... .. . ... ... : ... .. 5 ... ... : ... .. 5 ... ... : ... .. 2 ... ...
ROW E1 : ... .. 0 ... ... ... : A-3 00 8 ... ... ... : D-4 00 . ... : D-# 00 8 ... : ... .. . ... ... : --- .. . ... ... : --- .. . P83 ... : ... .. A ... ...
ROW E2 : ... .. . ... ... ... : ... .. 3 ... ... ... : ... .. . ... : ... .. 6 ... : ... .. . ... ... : ... .. . ... ... : ... .. . ... ... : ... .. 8 ... ...
ROW E3 : ... .. . ... ... ... : ... .. 0 ... ... ... : ... .. . ... : ... .. 3 ... : ... .. . ... ... : ... .. . ... ... : ... .. . ... ... : ... .. 5 ... ...
ROW E4 : ... .. . ... ... ... : A-3 00 3 P80 ... ... : ... .. . ... : ... .. 1 ... : ... .. . ... ... : ... .. . ... ... : ... .. . ... ... : ... .. . ... ...
ROW E5 : ... .. . ... ... ... : ... .. 4 ... ... ... : --- .. . ... : ... .. . ... : ... .. . ... ... : ... .. . ... ... : ... .. . ... ... : ... .. 2 ... ...
ROW E6 : D-3 00 F P82 ... ... : D-4 00 8 ... ... ... : D-3 00 . ... : ... .. A ... : ... .. . ... ... : D-3 01 7 ... ... : G-2 01 7 P81 ... : D-2 01 A ... ...
ROW E7 : ... .. E P86 ... ... : ... .. 3 ... ... ... : ... .. . ... : ... .. 8 ... : ... .. . ... ... : ... .. 6 ... ... : ... .. 6 ... ... : ... .. 8 ... ...
ROW E8 : ... .. D ... ... ... : ... .. 0 ... ... ... : ... .. . ... : ... .. 4 ... : ... .. . ... ... : ... .. . ... ... : ... .. . ... ... : ... .. 5 ... ...
ROW E9 : ... .. 0 ... ... ... : D-4 00 3 P80 ... ... : ... .. . ... : ... .. 2 ... : ... .. . ... ... : ... .. . ... ... : ... .. . ... ... : ... .. . ... ...
ROW EA : ... .. . ... ... ... : ... .. 4 ... ... ... : --- .. . ... : ... .. 1 ... : ... .. . ... ... : ... .. 5 ... ... : ... .. 5 ... ... : ... .. 2 ... ...
ROW EB : E-3 00 F P7C ... ... : A-3 00 8 ... ... ... : D-3 00 . ... : ... .. 8 ... : ... .. . ... ... : --- .. . P81 ... : --- .. . P7F ... : E-2 01 A ... ...
ROW EC : ... .. E P7A ... ... : ... .. 3 ... ... ... : ... .. . ... : ... .. 6 ... : ... .. . ... ... : ... .. . ... ... : ... .. . ... ... : ... .. 8 ... ...
ROW ED : ... .. D P7B ... ... : ... .. 0 ... ... ... : ... .. . ... : ... .. 3 ... : ... .. . ... ... : ... .. . ... ... : ... .. . ... ... : ... .. 5 ... ...
ROW EE : ... .. 0 ... ... ... : A-3 00 3 P80 ... ... : ... .. . ... : ... .. 1 ... : ... .. . ... ... : ... .. . ... ... : ... .. . ... ... : ... .. . ... ...
ROW EF : ... .. . ... ... ... : ... .. 4 ... ... ... : --- .. . ... : ... .. . ... : ... .. . ... ... : ... .. . ... ... : ... .. . ... ... : ... .. 2 ... ...
ROW F0 : F-3 00 F P80 ... ... : D-4 00 8 ... ... ... : D-3 00 . ... : 1-# 00 F ... : ... .. . ... ... : A-3 01 7 P7F ... : D-3 01 7 P81 ... : F-2 01 A ... ...
ROW F1 : ... .. E ... ... ... : ... .. 3 ... ... ... : ... .. . ... : ... .. C ... : ... .. . ... ... : ... .. 6 ... ... : ... .. 6 ... ... : ... .. 8 ... ...
ROW F2 : ... .. D ... ... ... : ... .. 0 ... ... ... : ... .. . ... : ... .. 6 ... : ... .. . ... ... : ... .. . ... ... : ... .. . ... ... : ... .. 5 ... ...
ROW F3 : ... .. A ... ... ... : D-4 00 3 P80 ... ... : ... .. . ... : ... .. 3 ... : ... .. . ... ... : ... .. . ... ... : ... .. . ... ... : ... .. . ... ...
ROW F4 : ... .. . ... ... ... : ... .. 4 ... ... ... : ... .. . ... : ... .. 2 ... : ... .. . ... ... : ... .. 5 ... ... : ... .. 5 ... ... : ... .. . ... ...
ROW F5 : ... .. . ... ... ... : A-3 00 8 ... ... ... : ... .. . ... : D-# 00 8 ... : ... .. . ... ... : ... .. . ... ... : ... .. . ... ... : ... .. . ... ...
ROW F6 : ... .. . ... ... ... : ... .. 3 ... ... ... : ... .. . ... : ... .. 6 ... : ... .. . ... ... : ... .. . ... ... : ... .. . ... ... : ... .. . ... ...
ROW F7 : ... .. . ... ... ... : ... .. 0 ... ... ... : ... .. . ... : ... .. 3 ... : ... .. . ... ... : ... .. 4 ... ... : ... .. 4 ... ... : ... .. . ... ...
ROW F8 : ... .. . ... ... ... : A-3 00 3 P80 ... ... : --- .. . ... : ... .. 1 ... : ... .. . ... ... : ... .. . ... ... : ... .. . ... ... : ... .. . ... ...
ROW F9 : ... .. . ... ... ... : ... .. 4 ... ... ... : ... .. . ... : ... .. . ... : ... .. . ... ... : ... .. . ... ... : ... .. . ... ... : ... .. . ... ...
ROW FA : ... .. . ... ... ... : G-3 00 8 ... ... ... : D-3 00 . ... : ... .. A ... : ... .. . ... ... : --- .. . ... ... : --- .. . P83 ... : ... .. . ... ...
ROW FB : ... .. . ... ... ... : ... .. 3 ... ... ... : ... .. . ... : ... .. 8 ... : ... .. . ... ... : ... .. . ... ... : ... .. . ... ... : ... .. . ... ...
ROW FC : ... .. . ... ... ... : ... .. 0 ... ... ... : ... .. . ... : ... .. 4 ... : ... .. . ... ... : ... .. . ... ... : ... .. . ... ... : ... .. . ... ...
ROW FD : ... .. . ... ... ... : G-3 00 3 P80 ... ... : ... .. . ... : ... .. 2 ... : ... .. . ... ... : ... .. . ... ... : ... .. . ... ... : ... .. . ... ...
ROW FE : ... .. . ... ... ... : ... .. 4 ... ... ... : ... .. . ... : ... .. 1 ... : ... .. . ... ... : ... .. . ... ... : ... .. . ... ... : ... .. . ... ...
ROW FF : ... .. . ... ... ... : D-3 00 8 ... ... ... : ... .. . ... : ... .. 8 ... : ... .. . ... ... : ... .. . ... ... : ... .. . ... ... : ... .. . ... ...

PATTERN 01
ROW 00 : ... .. . ... ... ... : ... .. 3 ... ... ... : ... .. . ... : ... .. 6 ... : ... .. . ... ... : ... .. . ... ... : ... .. . ... ... : ... .. . ... ...
ROW 01 : ... .. . ... ... ... : ... .. 0 ... ... ... : ... .. . ... : ... .. 3 ... : ... .. . ... ... : ... .. . ... ... : ... .. . ... ... : ... .. . ... ...
ROW 02 : ... .. . ... ... ... : D-3 00 3 P80 ... ... : --- .. . ... : ... .. 1 ... : ... .. . ... ... : ... .. . ... ... : ... .. . ... ... : ... .. . ... ...
ROW 03 : ... .. . ... ... ... : ... .. 4 ... ... ... : ... .. . ... : ... .. . ... : ... .. . ... ... : ... .. . ... ... : ... .. . ... ... : ... .. . ... ...
ROW 04 : ... .. . ... ... ... : G-3 00 8 ... ... ... : D-4 00 . ... : 1-# 00 D ... : ... .. . ... ... : A-3 01 7 ... ... : D-3 01 7 P81 ... : ... .. . ... ...
ROW 05 : ... .. . ... ... ... : ... .. 3 ... ... ... : ... .. . ... : ... .. . ... : ... .. . ... ... : ... .. 6 ... ... : ... .. 6 ... ... : ... .. . ... ...
ROW 06 : ... .. . ... ... ... : ... .. 0 ... ... ... : ... .. . ... : D-# 00 D ... : ... .. . ... ... : ... .. . ... ... : ... .. . ... ... : ... .. . ... ...
ROW 07 : ... .. . ... ... ... : G-3 00 3 P80 ... ... : ... .. . ... : B-# 00 6 ... : ... .. . ... ... : --- .. . ... ... : --- .. . P83 ... : ... .. . ... ...
ROW 08 : ... .. . ... ... ... : ... .. 4 ... ... ... : --- .. . ... : 7-# 00 1 ... : ... .. . ... ... : ... .. . ... ... : ... .. . ... ... : ... .. . ... ...
ROW 09 : ... .. . P84 ... ... : A-3 00 8 ... ... ... : D-4 00 . ... : D-# 00 8 ... : ... .. . ... ... : A-3 01 7 ... ... : D-3 01 7 P81 ... : ... .. . P84 ...
ROW 0A : ... .. . P86 ... ... : ... .. 3 ... ... ... : ... .. . ... : ... .. 6 ... : ... .. . ... ... : ... .. 6 ... ... : ... .. 6 ... ... : ... .. . P86 ...
ROW 0B : ... .. . P85 ... ... : ... .. 0 ... ... ... : ... .. . ... : ... .. 3 ... : ... .. . ... ... : ... .. . ... ... : ... .. . ... ... : ... .. . P85 ...
ROW 0C : ... .. . P82 ... ... : A-3 00 3 P80 ... ... : ... .. . ... : ... .. 1 ... : ... .. . ... ... : --- .. . ... ... : --- .. . P83 ... : ... .. . P82 ...
ROW 0D : ... .. . P7E ... ... : ... .. 4 ... ... ... : --- .. . ... : ... .. . ... : ... .. . ... ... : ... .. . ... ... : ... .. . ... ... : ... .. . P7E ...
ROW 0E : ... .. . P7B ... ... : D-4 00 8 ... ... ... : D-3 00 . ... : ... .. A ... : ... .. . ... ... : A-3 01 7 ... ... : D-3 01 7 P81 ... : ... .. . P7B ...
ROW 0F : ... .. . P7A ... ... : ... .. 3 ... ... ... : ... .. . ... : ... .. 8 ... : ... .. . ... ... : ... .. 6 ... ... : ... .. 6 ... ... : ... .. 2 P7A ...
ROW 10 : ... .. . P7C ... ... : ... .. 0 ... ... ... : ... .. . ... : ... .. 4 ... : ... .. . ... ... : ... .. . ... ... : ... .. . ... ... : ... .. . P7C ...
ROW 11 : ... .. . P80 ... ... : D-4 00 3 P80 ... ... : ... .. . ... : ... .. 2 ... : ... .. . ... ... : ... .. . ... ... : ... .. . ... ... : ... .. 1 P80 ...
ROW 12 : ... .. . P83 ... ... : ... .. 4 ... ... ... : --- .. . ... : ... .. 1 ... : ... .. . ... ... : ... .. 5 ... ... : ... .. 5 ... ... : ... .. . P83 ...
ROW 13 : ... .. . P86 ... ... : A-3 00 8 ... ... ... : D-3 00 . ... : ... .. 8 ... : ... .. . ... ... : ... .. . ... ... : ... .. . ... ... : ... .. . P86 ...
ROW 14 : ... .. 2 ... ... ... : ... .. 3 ... ... ... : ... .. . ... : ... .. 6 ... : ... .. . ... ... : ... .. . ... ... : ... .. . ... ... : ... .. . ... ...
ROW 15 : ... .. . P82 ... ... : ... .. 0 ... ... ... : ... .. . ... : ... .. 3 ... : ... .. . ... ... : ... .. 4 ... ... : ... .. 4 ... ... : ... .. . P82 ...
ROW 16 : ... .. . P7F ... ... : A-3 00 3 P80 ... ... : ... .. . ... : ... .. 1 ... : ... .. . ... ... : ... .. . ... ... : ... .. . ... ... : ... .. . P7F ...
ROW 17 : ... .. 1 P7B ... ... : ... .. 4 ... ... ... : --- .. . ... : ... .. . ... : ... .. . ... ... : ... .. . ... ... : ... .. . ... ... : ... .. . P7B ...
ROW 18 : E-3 00 F P80 ... ... : D-4 00 8 ... ... ... : D-3 00 . ... : 1-# 00 F ... : ... .. . ... ... : --- .. . ... ... : --- .. . P83 ... : E-2 01 A P80 ...
ROW 19 : ... .. E ... ... ... : ... .. 3 ... ... ... : ... .. . ... : ... .. C ... : ... .. . ... ... : ... .. . ... ... : ... .. . ... ... : ... .. 8 ... ...
ROW 1A : ... .. D ... ... ... : ... .. 0 ... ... ... : ... .. . ... : ... .. 6 ... : ... .. . ... ... : ... .. . ... ... : ... .. . ... ... : ... .. 5 ... ...
ROW 1B : ... .. A ... ... ... : D-4 00 3 P80 ... ... : ... .. . ... : ... .. 3 ... : ... .. . ... ... : ... .. . ... ... : ... .. . ... ... : ... .. . ... ...
ROW 1C : ... .. . ... ... ... : ... .. 4 ... ... ... : ... .. . ... : ... .. 2 ... : ... .. . ... ... : ... .. . ... ... : ... .. . ... ... : ... .. . ... ...
ROW 1D : ... .. . ... ... ... : A-3 00 8 ... ... ... : ... .. . ... : D-# 00 8 ... : ... .. . ... ... : ... .. . ... ... : ... .. . ... ... : ... .. . ... ...
ROW 1E : ... .. . ... ... ... : ... .. 3 ... ... ... : ... .. . ... : ... .. 6 ... : ... .. . ... ... : ... .. . ... ... : ... .. . ... ... : ... .. . ... ...
ROW 1F : ... .. . ... ... ... : ... .. 0 ... ... ... : ... .. . ... : ... .. 3 ... : ... .. . ... ... : ... .. . ... ... : ... .. . ... ... : ... .. . ... ...
ROW 20 : ... .. . ... ... ... : A-3 00 3 P80 ... ... : --- .. . ... : ... .. 1 ... : ... .. . ... ... : ... .. . ... ... : ... .. . ... ... : ... .. . ... ...
ROW 21 : ... .. . ... ... ... : ... .. 4 ... ... ... : ... .. . ... : ... .. . ... : ... .. . ... ... : ... .. . ... ... : ... .. . ... ... : ... .. . ... ...
ROW 22 : ... .. . ... ... ... : G-3 00 8 ... ... ... : D-3 00 . ... : ... .. A ... : ... .. . ... ... : D-3 01 7 ... ... : G-2 01 7 P81 ... : ... .. . ... ...
ROW 23 : ... .. . ... ... ... : ... .. 3 ... ... ... : ... .. . ... : ... .. 8 ... : ... .. . ... ... : ... .. 6 ... ... : ... .. 6 ... ... : ... .. . ... ...
ROW 24 : ... .. . ... ... ... : ... .. 0 ... ... ... : ... .. . ... : ... .. 4 ... : ... .. . ... ... : ... .. . ... ... : ... .. . ... ... : ... .. . ... ...
ROW 25 : ... .. . ... ... ... : G-3 00 3 P80 ... ... : ... .. . ... : ... .. 2 ... : ... .. . ... ... : --- .. . P81 ... : --- .. . P7F ... : ... .. . ... ...
ROW 26 : ... .. . ... ... ... : ... .. 4 ... ... ... : ... .. . ... : ... .. 1 ... : ... .. . ... ... : ... .. . ... ... : ... .. . ... ... : ... .. . ... ...
ROW 27 : ... .. . ... ... ... : D-3 00 8 ... ... ... : ... .. . ... : ... .. 8 ... : ... .. . ... ... : D-3 01 7 P7F ... : G-2 01 7 P81 ... : ... .. . ... ...
ROW 28 : ... .. . ... ... ... : ... .. 3 ... ... ... : ... .. . ... : ... .. 6 ... : ... .. . ... ... : ... .. 6 ... ... : ... .. 6 ... ... : ... .. . ... ...
ROW 29 : ... .. . ... ... ... : ... .. 0 ... ... ... : ... .. . ... : ... .. 3 ... : ... .. . ... ... : ... .. . ... ... : ... .. . ... ... : ... .. . ... ...
ROW 2A : ... .. . ... ... ... : D-3 00 3 P80 ... ... : --- .. . ... : ... .. 1 ... : ... .. . ... ... : --- .. . P81 ... : --- .. . P7F ... : ... .. . ... ...
ROW 2B : ... .. . ... ... ... : ... .. 4 ... ... ... : ... .. . ... : ... .. . ... : ... .. . ... ... : ... .. . ... ... : ... .. . ... ... : ... .. . ... ...
ROW 2C : ... .. . ... ... ... : G-3 00 8 ... ... ... : D-4 00 . ... : 1-# 00 D ... : ... .. . ... ... : A-3 01 7 P7F ... : D-3 01 7 P81 ... : ... .. . ... ...
ROW 2D : ... .. . ... ... ... : ... .. 3 ... ... ... : ... .. . ... : ... .. . ... : ... .. . ... ... : ... .. 6 ... ... : ... .. 6 ... ... : ... .. . ... ...
ROW 2E : ... .. . ... ... ... : ... .. 0 ... ... ... : ... .. . ... : D-# 00 D ... : ... .. . ... ... : ... .. . ... ... : ... .. . ... ... : ... .. . ... ...
ROW 2F : ... .. . ... ... ... : G-3 00 3 P80 ... ... : ... .. . ... : B-# 00 6 ... : ... .. . ... ... : ... .. . ... ... : ... .. . ... ... : ... .. . ... ...
ROW 30 : ... .. . ... ... ... : ... .. 4 ... ... ... : --- .. . ... : 7-# 00 1 ... : ... .. . ... ... : ... .. 5 ... ... : ... .. 5 ... ... : ... .. . ... ...
ROW 31 : ... .. . ... ... ... : A-3 00 8 ... ... ... : D-4 00 . ... : D-# 00 8 ... : ... .. . ... ... : --- .. . ... ... : --- .. . P83 ... : ... .. . ... ...
ROW 32 : ... .. . ... ... ... : ... .. 3 ... ... ... : ... .. . ... : ... .. 6 ... : ... .. . ... ... : ... .. . ... ... : ... .. . ... ... : ... .. . ... ...
ROW 33 : ... .. . ... ... ... : ... .. 0 ... ... ... : ... .. . ... : ... .. 3 ... : ... .. . ... ... : ... .. . ... ... : ... .. . ... ... : ... .. . ... ...
ROW 34 : ... .. . ... ... ... : A-3 00 3 P80 ... ... : ... .. . ... : ... .. 1 ... : ... .. . ... ... : ... .. . ... ... : ... .. . ... ... : ... .. . ... ...
ROW 35 : ... .. . ... ... ... : ... .. 4 ... ... ... : --- .. . ... : ... .. . ... : ... .. . ... ... : ... .. . ... ... : ... .. . ... ... : ... .. . ... ...
ROW 36 : ... .. . ... ... ... : D-4 00 8 ... ... ... : D-3 00 . ... : ... .. A ... : ... .. . ... ... : D-3 01 7 ... ... : G-2 01 7 P81 ... : ... .. . ... ...
ROW 37 : ... .. . ... ... ... : ... .. 3 ... ... ... : ... .. . ... : ... .. 8 ... : ... .. . ... ... : ... .. 6 ... ... : ... .. 6 ... ... : ... .. 2 ... ...
ROW 38 : ... .. . ... ... ... : ... .. 0 ... ... ... : ... .. . ... : ... .. 4 ... : ... .. . ... ... : ... .. . ... ... : ... .. . ... ... : ... .. . ... ...
ROW 39 : ... .. . ... ... ... : D-4 00 3 P80 ... ... : ... .. . ... : ... .. 2 ... : ... .. . ... ... : --- .. . P81 ... : --- .. . P7F ... : ... .. 1 ... ...
ROW 3A : ... .. . ... ... ... : ... .. 4 ... ... ... : --- .. . ... : ... .. 1 ... : ... .. . ... ... : ... .. . ... ... : ... .. . ... ... : ... .. . ... ...
ROW 3B : ... .. . ... ... ... : A-3 00 8 ... ... ... : D-3 00 . ... : ... .. 8 ... : ... .. . ... ... : D-3 01 7 P7F ... : G-2 01 7 P81 ... : ... .. . ... ...
ROW 3C : ... .. 2 ... ... ... : ... .. 3 ... ... ... : ... .. . ... : ... .. 6 ... : ... .. . ... ... : ... .. 6 ... ... : ... .. 6 ... ... : ... .. . ... ...
ROW 3D : ... .. . ... ... ... : ... .. 0 ... ... ... : ... .. . ... : ... .. 3 ... : ... .. . ... ... : ... .. . ... ... : ... .. . ... ... : ... .. . ... ...
ROW 3E : ... .. . ... ... ... : A-3 00 3 P80 ... ... : ... .. . ... : ... .. 1 ... : ... .. . ... ... : --- .. . P81 ... : --- .. . P7F ... : ... .. . ... ...
ROW 3F : ... .. 1 ... ... ... : ... .. 4 ... ... ... : --- .. . ... : ... .. . ... : ... .. . ... ... : ... .. . ... ... : ... .. . ... ... : ... .. . ... ...
ROW 40 : G-3 00 F ... ... ... : D-4 00 8 ... ... ... : D-3 00 . ... : 1-# 00 F ... : ... .. . ... ... : A-3 01 7 P7F ... : D-3 01 7 P81 ... : G-2 01 A ... ...
ROW 41 : ... .. E ... ... ... : ... .. 3 ... ... ... : ... .. . ... : ... .. C ... : ... .. . ... ... : ... .. 6 ... ... : ... .. 6 ... ... : ... .. 8 ... ...
ROW 42 : ... .. D ... ... ... : ... .. 0 ... ... ... : ... .. . ... : ... .. 6 ... : ... .. . ... ... : ... .. . ... ... : ... .. . ... ... : ... .. 5 ... ...
ROW 43 : ... .. A ... ... ... : D-4 00 3 P80 ... ... : ... .. . ... : ... .. 3 ... : ... .. . ... ... : ... .. . ... ... : ... .. . ... ... : ... .. . ... ...
ROW 44 : ... .. . ... ... ... : ... .. 4 ... ... ... : ... .. . ... : ... .. 2 ... : ... .. . ... ... : ... .. 5 ... ... : ... .. 5 ... ... : ... .. . ... ...
ROW 45 : ... .. . ... ... ... : A-3 00 8 ... ... ... : ... .. . ... : D-# 00 8 ... : ... .. . ... ... : ... .. . ... ... : ... .. . ... ... : ... .. . ... ...
ROW 46 : ... .. . ... ... ... : ... .. 3 ... ... ... : ... .. . ... : ... .. 6 ... : ... .. . ... ... : ... .. . ... ... : ... .. . ... ... : ... .. . ... ...
ROW 47 : ... .. . ... ... ... : ... .. 0 ... ... ... : ... .. . ... : ... .. 3 ... : ... .. . ... ... : ... .. 4 ... ... : ... .. 4 ... ... : ... .. . ... ...
ROW 48 : ... .. . ... ... ... : A-3 00 3 P80 ... ... : --- .. . ... : ... .. 1 ... : ... .. . ... ... : ... .. . ... ... : ... .. . ... ... : ... .. . ... ...
ROW 49 : ... .. . ... ... ... : ... .. 4 ... ... ... : ... .. . ... : ... .. . ... : ... .. . ... ... : ... .. . ... ... : ... .. . ... ... : ... .. . ... ...
ROW 4A : ... .. . ... ... ... : G-3 00 8 ... ... ... : D-3 00 . ... : ... .. A ... : ... .. . ... ... : --- .. . ... ... : --- .. . P83 ... : ... .. . ... ...
ROW 4B : ... .. . ... ... ... : ... .. 3 ... ... ... : ... .. . ... : ... .. 8 ... : ... .. . ... ... : ... .. . ... ... : ... .. . ... ... : ... .. . ... ...
ROW 4C : ... .. . ... ... ... : ... .. 0 ... ... ... : ... .. . ... : ... .. 4 ... : ... .. . ... ... : ... .. . ... ... : ... .. . ... ... : ... .. . ... ...
ROW 4D : ... .. . ... ... ... : G-3 00 3 P80 ... ... : ... .. . ... : ... .. 2 ... : ... .. . ... ... : ... .. . ... ... : ... .. . ... ... : ... .. . ... ...
ROW 4E : ... .. . ... ... ... : ... .. 4 ... ... ... : ... .. . ... : ... .. 1 ... : ... .. . ... ... : ... .. . ... ... : ... .. . ... ... : ... .. . ... ...
ROW 4F : ... .. . ... ... ... : D-3 00 8 ... ... ... : ... .. . ... : ... .. 8 ... : ... .. . ... ... : ... .. . ... ... : ... .. . ... ... : ... .. . ... ...
ROW 50 : ... .. . ... ... ... : ... .. 3 ... ... ... : ... .. . ... : ... .. 6 ... : ... .. . ... ... : ... .. . ... ... : ... .. . ... ... : ... .. . ... ...
ROW 51 : ... .. . ... ... ... : ... .. 0 ... ... ... : ... .. . ... : ... .. 3 ... : ... .. . ... ... : ... .. . ... ... : ... .. . ... ... : ... .. . ... ...
ROW 52 : ... .. . ... ... ... : D-3 00 3 P80 ... ... : --- .. . ... : ... .. 1 ... : ... .. . ... ... : ... .. . ... ... : ... .. . ... ... : ... .. . ... ...
ROW 53 : ... .. . ... ... ... : ... .. 4 ... ... ... : ... .. . ... : ... .. . ... : ... .. . ... ... : ... .. . ... ... : ... .. . ... ... : ... .. . ... ...
ROW 54 : ... .. . ... ... ... : G-3 00 8 ... ... ... : D-4 00 . ... : 1-# 00 D ... : ... .. . ... ... : A-3 01 7 ... ... : D-3 01 7 P81 ... : ... .. . ... ...
ROW 55 : ... .. . ... ... ... : ... .. 3 ... ... ... : ... .. . ... : ... .. . ... : ... .. . ... ... : ... .. 6 ... ... : ... .. 6 ... ... : ... .. . ... ...
ROW 56 : ... .. . ... ... ... : ... .. 0 ... ... ... : ... .. . ... : D-# 00 D ... : ... .. . ... ... : ... .. . ... ... : ... .. . ... ... : ... .. . ... ...
ROW 57 : ... .. . ... ... ... : G-3 00 3 P80 ... ... : ... .. . ... : B-# 00 6 ... : ... .. . ... ... : --- .. . ... ... : --- .. . P83 ... : ... .. . ... ...
ROW 58 : ... .. . ... ... ... : ... .. 4 ... ... ... : --- .. . ... : 7-# 00 1 ... : ... .. . ... ... : ... .. . ... ... : ... .. . ... ... : ... .. . ... ...
ROW 59 : ... .. . ... ... ... : A-3 00 8 ... ... ... : D-4 00 . ... : D-# 00 8 ... : ... .. . ... ... : A-3 01 7 ... ... : D-3 01 7 P81 ... : ... .. . ... ...
ROW 5A : ... .. 2 ... ... ... : ... .. 3 ... ... ... : ... .. . ... : ... .. 6 ... : ... .. . ... ... : ... .. 6 ... ... : ... .. 6 ... ... : ... .. 2 ... ...
ROW 5B : ... .. . ... ... ... : ... .. 0 ... ... ... : ... .. . ... : ... .. 3 ... : ... .. . ... ... : ... .. . ... ... : ... .. . ... ... : ... .. . ... ...
ROW 5C : ... .. . ... ... ... : A-3 00 3 P80 ... ... : ... .. . ... : ... .. 1 ... : ... .. . ... ... : --- .. . ... ... : --- .. . P83 ... : ... .. 1 ... ...
ROW 5D : ... .. 1 ... ... ... : ... .. 4 ... ... ... : --- .. . ... : ... .. . ... : ... .. . ... ... : ... .. . ... ... : ... .. . ... ... : ... .. . ... ...
ROW 5E : D-3 00 F ... ... ... : D-4 00 8 ... ... ... : D-3 00 . ... : ... .. A ... : ... .. . ... ... : A-3 01 7 ... ... : D-3 01 7 P81 ... : D-2 01 A ... ...
ROW 5F : ... .. E ... ... ... : ... .. 3 ... ... ... : ... .. . ... : ... .. 8 ... : ... .. . ... ... : ... .. 6 ... ... : ... .. 6 ... ... : ... .. 8 ... ...
ROW 60 : ... .. D ... ... ... : ... .. 0 ... ... ... : ... .. . ... : ... .. 4 ... : ... .. . ... ... : ... .. . ... ... : ... .. . ... ... : ... .. 5 ... ...
ROW 61 : ... .. A ... ... ... : D-4 00 3 P80 ... ... : ... .. . ... : ... .. 2 ... : ... .. . ... ... : ... .. . ... ... : ... .. . ... ... : ... .. . ... ...
ROW 62 : ... .. . ... ... ... : ... .. 4 ... ... ... : --- .. . ... : ... .. 1 ... : ... .. . ... ... : ... .. 5 ... ... : ... .. 5 ... ... : ... .. . ... ...
ROW 63 : ... .. . ... ... ... : A-3 00 8 ... ... ... : D-3 00 . ... : ... .. 8 ... : ... .. . ... ... : ... .. . ... ... : ... .. . ... ... : ... .. . ... ...
ROW 64 : ... .. 2 ... ... ... : ... .. 3 ... ... ... : ... .. . ... : ... .. 6 ... : ... .. . ... ... : ... .. . ... ... : ... .. . ... ... : ... .. 2 ... ...
ROW 65 : ... .. . ... ... ... : ... .. 0 ... ... ... : ... .. . ... : ... .. 3 ... : ... .. . ... ... : ... .. 4 ... ... : ... .. 4 ... ... : ... .. . ... ...
ROW 66 : ... .. . ... ... ... : A-3 00 3 P80 ... ... : ... .. . ... : ... .. 1 ... : ... .. . ... ... : ... .. . ... ... : ... .. . ... ... : ... .. 1 ... ...
ROW 67 : ... .. 1 ... ... ... : ... .. 4 ... ... ... : --- .. . ... : ... .. . ... : ... .. . ... ... : ... .. . ... ... : ... .. . ... ... : ... .. . ... ...
ROW 68 : ... .. F ... ... ... : D-4 00 8 ... ... ... : D-3 00 . ... : 1-# 00 F ... : ... .. . ... ... : --- .. . ... ... : --- .. . P83 ... : ... .. A ... ...
ROW 69 : ... .. E ... ... ... : ... .. 3 ... ... ... : ... .. . ... : ... .. C ... : ... .. . ... ... : ... .. . ... ... : ... .. . ... ... : ... .. 8 ... ...
ROW 6A : ... .. D ... ... ... : ... .. 0 ... ... ... : ... .. . ... : ... .. 6 ... : ... .. . ... ... : ... .. . ... ... : ... .. . ... ... : ... .. 5 ... ...
ROW 6B : ... .. A ... ... ... : D-4 00 3 P80 ... ... : ... .. . ... : ... .. 3 ... : ... .. . ... ... : ... .. . ... ... : ... .. . ... ... : ... .. . ... ...
ROW 6C : ... .. . ... ... ... : ... .. 4 ... ... ... : ... .. . ... : ... .. 2 ... : ... .. . ... ... : ... .. . ... ... : ... .. . ... ... : ... .. . ... ...
ROW 6D : ... .. . ... ... ... : A-3 00 8 ... ... ... : ... .. . ... : D-# 00 8 ... : ... .. . ... ... : ... .. . ... ... : ... .. . ... ... : ... .. . ... ...
ROW 6E : ... .. . ... ... ... : ... .. 3 ... ... ... : ... .. . ... : ... .. 6 ... : ... .. . ... ... : ... .. . ... ... : ... .. . ... ... : ... .. . ... ...
ROW 6F : ... .. . ... ... ... : ... .. 0 ... ... ... : ... .. . ... : ... .. 3 ... : ... .. . ... ... : ... .. . ... ... : ... .. . ... ... : ... .. . ... ...
ROW 70 : ... .. . ... ... ... : A-3 00 3 P80 ... ... : --- .. . ... : ... .. 1 ... : ... .. . ... ... : ... .. . ... ... : ... .. . ... ... : ... .. . ... ...
ROW 71 : ... .. . ... ... ... : ... .. 4 ... ... ... : ... .. . ... : ... .. . ... : ... .. . ... ... : ... .. . ... ... : ... .. . ... ... : ... .. . ... ...
ROW 72 : ... .. . ... ... ... : G-3 00 8 ... ... ... : D-3 00 . ... : ... .. A ... : ... .. . ... ... : A-3 01 7 ... ... : D-3 01 7 P81 ... : ... .. . ... ...
ROW 73 : ... .. . ... ... ... : ... .. 3 ... ... ... : ... .. . ... : ... .. 8 ... : ... .. . ... ... : ... .. 6 ... ... : ... .. 6 ... ... : ... .. . ... ...
ROW 74 : ... .. . ... ... ... : ... .. 0 ... ... ... : ... .. . ... : ... .. 4 ... : ... .. . ... ... : ... .. . ... ... : ... .. . ... ... : ... .. . ... ...
ROW 75 : ... .. . ... ... ... : G-3 00 3 P80 ... ... : ... .. . ... : ... .. 2 ... : ... .. . ... ... : --- .. . ... ... : --- .. . P83 ... : ... .. . ... ...
ROW 76 : ... .. . ... ... ... : ... .. 4 ... ... ... : ... .. . ... : ... .. 1 ... : ... .. . ... ... : ... .. . ... ... : ... .. . ... ... : ... .. . ... ...
ROW 77 : ... .. . ... ... ... : D-3 00 8 ... ... ... : ... .. . ... : ... .. 8 ... : ... .. . ... ... : A-3 01 7 ... ... : D-3 01 7 P81 ... : ... .. . ... ...
ROW 78 : ... .. . ... ... ... : ... .. 3 ... ... ... : ... .. . ... : ... .. 6 ... : ... .. . ... ... : ... .. 6 ... ... : ... .. 6 ... ... : ... .. . ... ...
ROW 79 : ... .. . ... ... ... : ... .. 0 ... ... ... : ... .. . ... : ... .. 3 ... : ... .. . ... ... : ... .. . ... ... : ... .. . ... ... : ... .. . ... ...
ROW 7A : ... .. . ... ... ... : D-3 00 3 P80 ... ... : --- .. . ... : ... .. 1 ... : ... .. . ... ... : --- .. . ... ... : --- .. . P83 ... : ... .. . ... ...
ROW 7B : ... .. . ... ... ... : ... .. 4 ... ... ... : ... .. . ... : ... .. . ... : ... .. . ... ... : ... .. . ... ... : ... .. . ... ... : ... .. . ... ...
ROW 7C : ... .. . ... ... ... : G-3 00 8 ... ... ... : G-4 00 . ... : 1-# 00 D ... : ... .. . ... ... : A-3 01 7 ... ... : D-3 01 7 P81 ... : ... .. . ... ...
ROW 7D : ... .. . ... ... ... : ... .. 3 ... ... ... : ... .. . ... : ... .. . ... : ... .. . ... ... : ... .. 6 ... ... : ... .. 6 ... ... : ... .. . ... ...
ROW 7E : ... .. . ... ... ... : ... .. 0 ... ... ... : ... .. . ... : D-# 00 D ... : ... .. . ... ... : ... .. . ... ... : ... .. . ... ... : ... .. . ... ...
ROW 7F : ... .. . ... ... ... : G-3 00 3 P80 ... ... : ... .. . ... : B-# 00 6 ... : ... .. . ... ... : ... .. . ... ... : ... .. . ... ... : ... .. . ... ...
ROW 80 : ... .. . ... ... ... : ... .. 4 ... ... ... : --- .. . ... : 7-# 00 1 ... : ... .. . ... ... : ... .. 5 ... ... : ... .. 5 ... ... : ... .. . ... ...
ROW 81 : ... .. . ... ... ... : A-3 00 8 ... ... ... : G-4 00 . ... : D-# 00 8 ... : ... .. . ... ... : --- .. . ... ... : --- .. . P83 ... : ... .. . ... ...
ROW 82 : ... .. . ... ... ... : ... .. 3 ... ... ... : ... .. . ... : ... .. 6 ... : ... .. . ... ... : ... .. . ... ... : ... .. . ... ... : ... .. . ... ...
ROW 83 : ... .. . ... ... ... : ... .. 0 ... ... ... : ... .. . ... : ... .. 3 ... : ... .. . ... ... : ... .. . ... ... : ... .. . ... ... : ... .. . ... ...
ROW 84 : ... .. . ... ... ... : A-3 00 3 P80 ... ... : ... .. . ... : ... .. 1 ... : ... .. . ... ... : ... .. . ... ... : ... .. . ... ... : ... .. . ... ...
ROW 85 : ... .. . ... ... ... : ... .. 4 ... ... ... : --- .. . ... : ... .. . ... : ... .. . ... ... : ... .. . ... ... : ... .. . ... ... : ... .. . ... ...
ROW 86 : ... .. . ... ... ... : D-4 00 8 ... ... ... : D-3 00 . ... : ... .. A ... : ... .. . ... ... : D-3 01 7 ... ... : G-2 01 7 P81 ... : ... .. . ... ...
ROW 87 : ... .. . ... ... ... : ... .. 3 ... ... ... : ... .. . ... : ... .. 8 ... : ... .. . ... ... : ... .. 6 ... ... : ... .. 6 ... ... : ... .. . ... ...
ROW 88 : ... .. . ... ... ... : ... .. 0 ... ... ... : ... .. . ... : ... .. 4 ... : ... .. . ... ... : ... .. . ... ... : ... .. . ... ... : ... .. . ... ...
ROW 89 : ... .. . ... ... ... : D-4 00 3 P80 ... ... : ... .. . ... : ... .. 2 ... : ... .. . ... ... : ... .. . ... ... : ... .. . ... ... : ... .. . ... ...
ROW 8A : ... .. . ... ... ... : ... .. 4 ... ... ... : --- .. . ... : ... .. 1 ... : ... .. . ... ... : ... .. 5 ... ... : ... .. 5 ... ... : ... .. . ... ...
ROW 8B : ... .. . ... ... ... : A-3 00 8 ... ... ... : D-3 00 . ... : ... .. 8 ... : ... .. . ... ... : --- .. . P81 ... : --- .. . P7F ... : ... .. . ... ...
ROW 8C : ... .. 2 ... ... ... : ... .. 3 ... ... ... : ... .. . ... : ... .. 6 ... : ... .. . ... ... : ... .. . ... ... : ... .. . ... ... : ... .. 2 ... ...
ROW 8D : ... .. . ... ... ... : ... .. 0 ... ... ... : ... .. . ... : ... .. 3 ... : ... .. . ... ... : ... .. . ... ... : ... .. . ... ... : ... .. . ... ...
ROW 8E : ... .. . ... ... ... : A-3 00 3 P80 ... ... : ... .. . ... : ... .. 1 ... : ... .. . ... ... : ... .. . ... ... : ... .. . ... ... : ... .. 1 ... ...
ROW 8F : ... .. 1 ... ... ... : ... .. 4 ... ... ... : --- .. . ... : ... .. . ... : ... .. . ... ... : ... .. . ... ... : ... .. . ... ... : ... .. . ... ...
ROW 90 : D-2 00 F ... ... ... : D-4 00 8 ... ... ... : D-3 00 . ... : 1-# 00 F ... : ... .. . ... ... : A-3 01 7 P7F ... : D-3 01 7 P81 ... : D-1 01 A ... ...
ROW 91 : ... .. E ... ... ... : ... .. 3 ... ... ... : ... .. . ... : ... .. C ... : ... .. . ... ... : ... .. 6 ... ... : ... .. 6 ... ... : ... .. 8 ... ...
ROW 92 : ... .. D ... ... ... : ... .. 0 ... ... ... : ... .. . ... : ... .. 6 ... : ... .. . ... ... : ... .. . ... ... : ... .. . ... ... : ... .. 5 ... ...
ROW 93 : ... .. A ... ... ... : D-4 00 3 P80 ... ... : ... .. . ... : ... .. 3 ... : ... .. . ... ... : ... .. . ... ... : ... .. . ... ... : ... .. . ... ...
ROW 94 : ... .. 2 ... ... ... : ... .. 4 ... ... ... : ... .. . ... : ... .. 2 ... : ... .. . ... ... : ... .. 5 ... ... : ... .. 5 ... ... : ... .. 2 ... ...
ROW 95 : ... .. F ... ... ... : A-3 00 8 ... ... ... : ... .. . ... : D-# 00 8 ... : ... .. . ... ... : ... .. . ... ... : ... .. . ... ... : ... .. A ... ...
ROW 96 : ... .. E ... ... ... : ... .. 3 ... ... ... : ... .. . ... : ... .. 6 ... : ... .. . ... ... : ... .. . ... ... : ... .. . ... ... : ... .. 8 ... ...
ROW 97 : ... .. D ... ... ... : ... .. 0 ... ... ... : ... .. . ... : ... .. 3 ... : ... .. . ... ... : ... .. 4 ... ... : ... .. 4 ... ... : ... .. 5 ... ...
ROW 98 : ... .. A ... ... ... : A-3 00 3 P80 ... ... : --- .. . ... : ... .. 1 ... : ... .. . ... ... : ... .. . ... ... : ... .. . ... ... : ... .. . ... ...
ROW 99 : ... .. 2 ... ... ... : ... .. 4 ... ... ... : ... .. . ... : ... .. . ... : ... .. . ... ... : ... .. . ... ... : ... .. . ... ... : ... .. 2 ... ...
ROW 9A : D-1 00 F ... ... ... : G-3 00 8 ... ... ... : D-3 00 . ... : ... .. A ... : ... .. . ... ... : --- .. . ... ... : --- .. . P83 ... : D-0 01 A ... ...
ROW 9B : ... .. E ... ... ... : ... .. 3 ... ... ... : ... .. . ... : ... .. 8 ... : ... .. . ... ... : ... .. . ... ... : ... .. . ... ... : ... .. 8 ... ...
ROW 9C : ... .. D ... ... ... : ... .. 0 ... ... ... : ... .. . ... : ... .. 4 ... : ... .. . ... ... : ... .. . ... ... : ... .. . ... ... : ... .. 5 ... ...
ROW 9D : ... .. A ... ... ... : G-3 00 3 P80 ... ... : ... .. . ... : ... .. 2 ... : ... .. . ... ... : ... .. . ... ... : ... .. . ... ... : ... .. . ... ...
ROW 9E : ... .. 2 ... ... ... : ... .. 4 ... ... ... : ... .. . ... : ... .. 1 ... : ... .. . ... ... : ... .. . ... ... : ... .. . ... ... : ... .. 2 ... ...
ROW 9F : ... .. F ... ... ... : D-3 00 8 ... ... ... : ... .. . ... : ... .. 8 ... : ... .. . ... ... : ... .. . ... ... : ... .. . ... ... : ... .. A ... ...
ROW A0 : ... .. E ... ... ... : ... .. 3 ... ... ... : ... .. . ... : ... .. 6 ... : ... .. . ... ... : ... .. . ... ... : ... .. . ... ... : ... .. 8 ... ...
ROW A1 : ... .. D ... ... ... : ... .. 0 ... ... ... : ... .. . ... : ... .. 3 ... : ... .. . ... ... : ... .. . ... ... : ... .. . ... ... : ... .. 5 ... ...
ROW A2 : ... .. A ... ... ... : D-3 00 3 P80 ... ... : --- .. . ... : ... .. 1 ... : ... .. . ... ... : ... .. . ... ... : ... .. . ... ... : ... .. . ... ...
ROW A3 : ... .. 2 ... ... ... : ... .. 4 ... ... ... : ... .. . ... : ... .. . ... : ... .. . ... ... : ... .. . ... ... : ... .. . ... ... : ... .. 2 ... ...
ROW A4 : D-2 00 F ... ... ... : G-3 00 8 ... ... ... : D-4 00 . ... : 1-# 00 D ... : ... .. . ... ... : A-3 01 7 ... ... : D-3 01 7 P81 ... : D-1 01 A ... ...
ROW A5 : ... .. E ... ... ... : ... .. 3 ... ... ... : ... .. . ... : ... .. . ... : ... .. . ... ... : ... .. 6 ... ... : ... .. 6 ... ... : ... .. 8 ... ...
ROW A6 : ... .. D ... ... ... : ... .. 0 ... ... ... : ... .. . ... : D-# 00 D ... : ... .. . ... ... : ... .. . ... ... : ... .. . ... ... : ... .. 5 ... ...
ROW A7 : ... .. A ... ... ... : G-3 00 3 P80 ... ... : ... .. . ... : B-# 00 6 ... : ... .. . ... ... : --- .. . ... ... : --- .. . P83 ... : ... .. . ... ...
ROW A8 : ... .. 2 ... ... ... : ... .. 4 ... ... ... : --- .. . ... : 7-# 00 1 ... : ... .. . ... ... : ... .. . ... ... : ... .. . ... ... : ... .. 2 ... ...
ROW A9 : ... .. F ... ... ... : A-3 00 8 ... ... ... : D-4 00 . ... : D-# 00 8 ... : ... .. . ... ... : A-3 01 7 ... ... : D-3 01 7 P81 ... : ... .. A ... ...
ROW AA : ... .. E ... ... ... : ... .. 3 ... ... ... : ... .. . ... : ... .. 6 ... : ... .. . ... ... : ... .. 6 ... ... : ... .. 6 ... ... : ... .. 8 ... ...
ROW AB : ... .. D ... ... ... : ... .. 0 ... ... ... : ... .. . ... : ... .. 3 ... : ... .. . ... ... : ... .. . ... ... : ... .. . ... ... : ... .. 5 ... ...
ROW AC : ... .. A ... ... ... : A-3 00 3 P80 ... ... : ... .. . ... : ... .. 1 ... : ... .. . ... ... : --- .. . ... ... : --- .. . P83 ... : ... .. . ... ...
ROW AD : ... .. 2 ... ... ... : ... .. 4 ... ... ... : --- .. . ... : ... .. . ... : ... .. . ... ... : ... .. . ... ... : ... .. . ... ... : ... .. 2 ... ...
ROW AE : D-1 00 F ... ... ... : D-4 00 8 ... ... ... : D-3 00 . ... : ... .. A ... : ... .. . ... ... : A-3 01 7 ... ... : D-3 01 7 P81 ... : D-0 01 A ... ...
ROW AF : ... .. E ... ... ... : ... .. 3 ... ... ... : ... .. . ... : ... .. 8 ... : ... .. . ... ... : ... .. 6 ... ... : ... .. 6 ... ... : ... .. 8 ... ...
ROW B0 : ... .. D ... ... ... : ... .. 0 ... ... ... : ... .. . ... : ... .. 4 ... : ... .. . ... ... : ... .. . ... ... : ... .. . ... ... : ... .. 5 ... ...
ROW B1 : ... .. A ... ... ... : D-4 00 3 P80 ... ... : ... .. . ... : ... .. 2 ... : ... .. . ... ... : ... .. . ... ... : ... .. . ... ... : ... .. . ... ...
ROW B2 : ... .. 2 ... ... ... : ... .. 4 ... ... ... : --- .. . ... : ... .. 1 ... : ... .. . ... ... : ... .. 5 ... ... : ... .. 5 ... ... : ... .. 2 ... ...
ROW B3 : ... .. F ... ... ... : A-3 00 8 ... ... ... : D-3 00 . ... : ... .. 8 ... : ... .. . ... ... : ... .. . ... ... : ... .. . ... ... : ... .. A ... ...
ROW B4 : ... .. E ... ... ... : ... .. 3 ... ... ... : ... .. . ... : ... .. 6 ... : ... .. . ... ... : ... .. . ... ... : ... .. . ... ... : ... .. 8 ... ...
ROW B5 : ... .. D ... ... ... : ... .. 0 ... ... ... : ... .. . ... : ... .. 3 ... : ... .. . ... ... : ... .. 4 ... ... : ... .. 4 ... ... : ... .. 5 ... ...
ROW B6 : ... .. A ... ... ... : A-3 00 3 P80 ... ... : ... .. . ... : ... .. 1 ... : ... .. . ... ... : ... .. . ... ... : ... .. . ... ... : ... .. . ... ...
ROW B7 : ... .. 2 ... ... ... : ... .. 4 ... ... ... : --- .. . ... : ... .. . ... : ... .. . ... ... : ... .. . ... ... : ... .. . ... ... : ... .. 2 ... ...
ROW B8 : D-3 00 8 ... ... ... : D-4 00 8 ... ... ... : F-3 00 . ... : 9-# 00 8 ... : ... .. . ... ... : --- .. . ... ... : --- .. . P83 ... : F-1 01 A ... ...
ROW B9 : ... .. 7 ... ... ... : ... .. 3 ... ... ... : ... .. . ... : ... .. . ... : ... .. . ... ... : ... .. . ... ... : ... .. . ... ... : ... .. 8 ... ...
ROW BA : ... .. 6 ... ... ... : ... .. 0 ... ... ... : ... .. . ... : 5-# 00 8 ... : ... .. . ... ... : ... .. . ... ... : ... .. . ... ... : ... .. 5 ... ...
ROW BB : ... .. 5 ... ... ... : D-4 00 3 P80 ... ... : ... .. . ... : 3-# 00 4 ... : ... .. . ... ... : ... .. . ... ... : ... .. . ... ... : ... .. . ... ...
ROW BC : ... .. . ... ... ... : ... .. 4 ... ... ... : ... .. . ... : F-# 00 1 ... : ... .. . ... ... : ... .. . ... ... : ... .. . ... ... : ... .. 2 ... ...
ROW BD : G-3 00 9 ... ... ... : A-3 00 8 ... ... ... : ... .. . ... : 9-# 00 8 ... : ... .. . ... ... : ... .. . ... ... : ... .. . ... ... : ... .. A ... ...
ROW BE : ... .. 8 ... ... ... : ... .. 3 ... ... ... : ... .. . ... : ... .. . ... : ... .. . ... ... : ... .. . ... ... : ... .. . ... ... : ... .. 8 ... ...
ROW BF : ... .. 7 ... ... ... : ... .. 0 ... ... ... : ... .. . ... : 5-# 00 8 ... : ... .. . ... ... : ... .. . ... ... : ... .. . ... ... : ... .. 5 ... ...
ROW C0 : ... .. 6 ... ... ... : A-3 00 3 P80 ... ... : --- .. . ... : 3-# 00 4 ... : ... .. . ... ... : ... .. . ... ... : ... .. . ... ... : ... .. . ... ...
ROW C1 : ... .. . ... ... ... : ... .. 4 ... ... ... : ... .. . ... : F-# 00 1 ... : ... .. . ... ... : ... .. . ... ... : ... .. . ... ... : ... .. 2 ... ...
ROW C2 : A-3 00 A ... ... ... : G-3 00 8 ... ... ... : F-2 00 . ... : 4-# 00 9 ... : ... .. . ... ... : D-3 01 7 ... ... : G-2 01 7 P81 ... : D-0 01 A ... ...
ROW C3 : ... .. 9 ... ... ... : ... .. 3 ... ... ... : ... .. . ... : ... .. . ... : ... .. . ... ... : ... .. 6 ... ... : ... .. 6 ... ... : ... .. 8 ... ...
ROW C4 : ... .. 8 ... ... ... : ... .. 0 ... ... ... : ... .. . ... : 0-# 00 9 ... : ... .. . ... ... : ... .. . ... ... : ... .. . ... ... : ... .. 5 ... ...
ROW C5 : ... .. 6 ... ... ... : G-3 00 3 P80 ... ... : ... .. . ... : E-# 00 4 ... : ... .. . ... ... : --- .. . P81 ... : --- .. . P7F ... : ... .. . ... ...
ROW C6 : ... .. . ... ... ... : ... .. 4 ... ... ... : ... .. . ... : A-# 00 1 ... : ... .. . ... ... : ... .. . ... ... : ... .. . ... ... : ... .. 2 ... ...
ROW C7 : D-4 00 B ... ... ... : A-3 00 8 ... ... ... : ... .. . ... : 4-# 00 A ... : ... .. . ... ... : D-3 01 7 P7F ... : G-2 01 7 P81 ... : ... .. A ... ...
ROW C8 : ... .. A ... ... ... : ... .. 3 ... ... ... : ... .. . ... : ... .. . ... : ... .. . ... ... : ... .. 6 ... ... : ... .. 6 ... ... : ... .. 8 ... ...
ROW C9 : ... .. 9 ... ... ... : ... .. 0 ... ... ... : ... .. . ... : 0-# 00 A ... : ... .. . ... ... : ... .. . ... ... : ... .. . ... ... : ... .. 5 ... ...
ROW CA : ... .. 8 ... ... ... : A-3 00 3 P80 ... ... : --- .. . ... : E-# 00 4 ... : ... .. . ... ... : --- .. . P81 ... : --- .. . P7F ... : ... .. . ... ...
ROW CB : ... .. . ... ... ... : ... .. 4 ... ... ... : ... .. . ... : A-# 00 1 ... : ... .. . ... ... : ... .. . ... ... : ... .. . ... ... : ... .. 2 ... ...
ROW CC : G-4 00 C ... ... ... : D-4 00 8 ... ... ... : F-3 00 . ... : 6-# 00 A ... : ... .. . ... ... : A-3 01 7 P7F ... : D-3 01 7 P81 ... : E-1 01 A ... ...
ROW CD : ... .. B ... ... ... : ... .. 3 ... ... ... : ... .. . ... : ... .. . ... : ... .. . ... ... : ... .. 6 ... ... : ... .. 6 ... ... : ... .. 8 ... ...
ROW CE : ... .. A ... ... ... : ... .. 0 ... ... ... : ... .. . ... : 2-# 00 A ... : ... .. . ... ... : ... .. . ... ... : ... .. . ... ... : ... .. 5 ... ...
ROW CF : ... .. 8 ... ... ... : D-4 00 3 P80 ... ... : ... .. . ... : 0-# 00 5 ... : ... .. . ... ... : ... .. . ... ... : ... .. . ... ... : ... .. . ... ...
ROW D0 : ... .. . ... ... ... : ... .. 4 ... ... ... : --- .. . ... : C-# 00 1 ... : ... .. . ... ... : ... .. 5 ... ... : ... .. 5 ... ... : ... .. 2 ... ...
ROW D1 : A-4 00 D ... ... ... : G-4 00 8 ... ... ... : F-3 00 . ... : 6-# 00 B ... : ... .. . ... ... : --- .. . ... ... : --- .. . P83 ... : ... .. A ... ...
ROW D2 : ... .. C ... ... ... : ... .. 3 ... ... ... : ... .. . ... : ... .. . ... : ... .. . ... ... : ... .. . ... ... : ... .. . ... ... : ... .. 8 ... ...
ROW D3 : ... .. B ... ... ... : ... .. 0 ... ... ... : ... .. . ... : 2-# 00 B ... : ... .. . ... ... : ... .. . ... ... : ... .. . ... ... : ... .. 5 ... ...
ROW D4 : ... .. 9 ... ... ... : G-4 00 3 P80 ... ... : ... .. . ... : 0-# 00 5 ... : ... .. . ... ... : ... .. . ... ... : ... .. . ... ... : ... .. . ... ...
ROW D5 : ... .. . ... ... ... : ... .. 4 ... ... ... : --- .. . ... : C-# 00 1 ... : ... .. . ... ... : ... .. . ... ... : ... .. . ... ... : ... .. 2 ... ...
ROW D6 : D-5 00 F ... ... ... : A-4 00 8 ... ... ... : E-3 00 . ... : 1-# 00 C ... : ... .. . ... ... : D-3 01 7 ... ... : G-2 01 7 P81 ... : D-0 01 A ... ...
ROW D7 : ... .. E ... ... ... : ... .. 3 ... ... ... : ... .. . ... : ... .. . ... : ... .. . ... ... : ... .. 6 ... ... : ... .. 6 ... ... : ... .. 8 ... ...
ROW D8 : ... .. D ... ... ... : ... .. 0 ... ... ... : ... .. . ... : D-# 00 C ... : ... .. . ... ... : ... .. . ... ... : ... .. . ... ... : ... .. 5 ... ...
ROW D9 : ... .. A ... ... ... : A-4 00 3 P80 ... ... : ... .. . ... : B-# 00 5 ... : ... .. . ... ... : --- .. . P81 ... : --- .. . P7F ... : ... .. . ... ...
ROW DA : ... .. . ... ... ... : ... .. 4 ... ... ... : --- .. . ... : 7-# 00 1 ... : ... .. . ... ... : ... .. . ... ... : ... .. . ... ... : ... .. 2 ... ...
ROW DB : G-4 00 8 ... ... ... : D-5 00 8 ... ... ... : E-3 00 . ... : 1-# 00 D ... : ... .. . ... ... : D-3 01 7 P7F ... : G-2 01 7 P81 ... : ... .. A ... ...
ROW DC : ... .. 7 ... ... ... : ... .. 3 ... ... ... : ... .. . ... : ... .. . ... : ... .. . ... ... : ... .. 6 ... ... : ... .. 6 ... ... : ... .. 8 ... ...
ROW DD : ... .. 6 ... ... ... : ... .. 0 ... ... ... : ... .. . ... : D-# 00 D ... : ... .. . ... ... : ... .. . ... ... : ... .. . ... ... : ... .. 5 ... ...
ROW DE : ... .. 5 ... ... ... : D-5 00 3 P80 ... ... : ... .. . ... : B-# 00 6 ... : ... .. . ... ... : --- .. . P81 ... : --- .. . P7F ... : ... .. . ... ...
ROW DF : ... .. . ... ... ... : ... .. 4 ... ... ... : --- .. . ... : 7-# 00 1 ... : ... .. . ... ... : ... .. . ... ... : ... .. . ... ... : ... .. 2 ... ...
ROW E0 : C-3 00 F ... ... ... : C-5 00 8 ... ... ... : D-3 00 . ... : 1-# 00 F ... : ... .. . ... ... : A-3 01 7 P7F ... : D-3 01 7 P81 ... : C-2 01 A ... ...
ROW E1 : ... .. E ... ... ... : ... .. 3 ... ... ... : ... .. . ... : ... .. C ... : ... .. . ... ... : ... .. 6 ... ... : ... .. 6 ... ... : ... .. 8 ... ...
ROW E2 : ... .. D ... ... ... : ... .. 0 ... ... ... : ... .. . ... : ... .. 6 ... : ... .. . ... ... : ... .. . ... ... : ... .. . ... ... : ... .. 5 ... ...
ROW E3 : ... .. A ... ... ... : C-5 00 3 P80 ... ... : ... .. . ... : ... .. 3 ... : ... .. . ... ... : ... .. . ... ... : ... .. . ... ... : ... .. . ... ...
ROW E4 : ... .. . ... ... ... : ... .. 4 ... ... ... : ... .. . ... : ... .. 2 ... : ... .. . ... ... : ... .. 5 ... ... : ... .. 5 ... ... : ... .. . ... ...
ROW E5 : ... .. . ... ... ... : G-4 00 8 ... ... ... : ... .. . ... : D-# 00 8 ... : ... .. . ... ... : ... .. . ... ... : ... .. . ... ... : ... .. . ... ...
ROW E6 : ... .. . ... ... ... : ... .. 3 ... ... ... : ... .. . ... : ... .. 6 ... : ... .. . ... ... : ... .. . ... ... : ... .. . ... ... : ... .. . ... ...
ROW E7 : ... .. . ... ... ... : ... .. 0 ... ... ... : ... .. . ... : ... .. 3 ... : ... .. . ... ... : ... .. 4 ... ... : ... .. 4 ... ... : ... .. . ... ...
ROW E8 : ... .. . ... ... ... : G-4 00 3 P80 ... ... : --- .. . ... : ... .. 1 ... : ... .. . ... ... : ... .. . ... ... : ... .. . ... ... : ... .. . ... ...
ROW E9 : ... .. . ... ... ... : ... .. 4 ... ... ... : ... .. . ... : ... .. . ... : ... .. . ... ... : ... .. . ... ... : ... .. . ... ... : ... .. . ... ...
ROW EA : ... .. . ... ... ... : F-4 00 8 ... ... ... : D-3 00 . ... : ... .. A ... : ... .. . ... ... : --- .. . ... ... : --- .. . P83 ... : ... .. . ... ...
ROW EB : ... .. . ... ... ... : ... .. 3 ... ... ... : ... .. . ... : ... .. 8 ... : ... .. . ... ... : ... .. . ... ... : ... .. . ... ... : ... .. . ... ...
ROW EC : ... .. . ... ... ... : ... .. 0 ... ... ... : ... .. . ... : ... .. 4 ... : ... .. . ... ... : ... .. . ... ... : ... .. . ... ... : ... .. . ... ...
ROW ED : ... .. . ... ... ... : F-4 00 3 P80 ... ... : ... .. . ... : ... .. 2 ... : ... .. . ... ... : ... .. . ... ... : ... .. . ... ... : ... .. . ... ...
ROW EE : ... .. . ... ... ... : ... .. 4 ... ... ... : ... .. . ... : ... .. 1 ... : ... .. . ... ... : ... .. . ... ... : ... .. . ... ... : ... .. . ... ...
ROW EF : ... .. . ... ... ... : C-4 00 8 ... ... ... : ... .. . ... : ... .. 8 ... : ... .. . ... ... : ... .. . ... ... : ... .. . ... ... : ... .. . ... ...
ROW F0 : ... .. . ... ... ... : ... .. 3 ... ... ... : ... .. . ... : ... .. 6 ... : ... .. . ... ... : ... .. . ... ... : ... .. . ... ... : ... .. . ... ...
ROW F1 : ... .. . ... ... ... : ... .. 0 ... ... ... : ... .. . ... : ... .. 3 ... : ... .. . ... ... : ... .. . ... ... : ... .. . ... ... : ... .. . ... ...
ROW F2 : ... .. . ... ... ... : C-4 00 3 P80 ... ... : --- .. . ... : ... .. 1 ... : ... .. . ... ... : ... .. . ... ... : ... .. . ... ... : ... .. . ... ...
ROW F3 : ... .. . ... ... ... : ... .. 4 ... ... ... : ... .. . ... : ... .. . ... : ... .. . ... ... : ... .. . ... ... : ... .. . ... ... : ... .. . ... ...
ROW F4 : ... .. . ... ... ... : A-3 00 8 ... ... ... : D-4 00 . ... : 1-# 00 D ... : ... .. . ... ... : A-3 01 7 ... ... : D-3 01 7 P81 ... : ... .. . ... ...
ROW F5 : ... .. . ... ... ... : ... .. 3 ... ... ... : ... .. . ... : ... .. . ... : ... .. . ... ... : ... .. 6 ... ... : ... .. 6 ... ... : ... .. . ... ...
ROW F6 : ... .. . ... ... ... : ... .. 0 ... ... ... : ... .. . ... : D-# 00 D ... : ... .. . ... ... : ... .. . ... ... : ... .. . ... ... : ... .. . ... ...
ROW F7 : ... .. . ... ... ... : A-3 00 3 P80 ... ... : ... .. . ... : B-# 00 6 ... : ... .. . ... ... : --- .. . ... ... : --- .. . P83 ... : ... .. . ... ...
ROW F8 : ... .. . ... ... ... : ... .. 4 ... ... ... : --- .. . ... : 7-# 00 1 ... : ... .. . ... ... : ... .. . ... ... : ... .. . ... ... : ... .. . ... ...
ROW F9 : ... .. . ... ... ... : G-3 00 8 ... ... ... : D-4 00 . ... : D-# 00 8 ... : ... .. . ... ... : A-3 01 7 ... ... : D-3 01 7 P81 ... : ... .. . ... ...
ROW FA : ... .. . ... ... ... : ... .. 3 ... ... ... : ... .. . ... : ... .. 6 ... : ... .. . ... ... : ... .. 6 ... ... : ... .. 6 ... ... : ... .. . ... ...
ROW FB : ... .. . ... ... ... : ... .. 0 ... ... ... : ... .. . ... : ... .. 3 ... : ... .. . ... ... : ... .. . ... ... : ... .. . ... ... : ... .. . ... ...
ROW FC : ... .. . ... ... ... : G-3 00 3 P80 ... ... : ... .. . ... : ... .. 1 ... : ... .. . ... ... : --- .. . ... ... : --- .. . P83 ... : ... .. . ... ...
ROW FD : ... .. . ... ... ... : ... .. 4 ... ... ... : --- .. . ... : ... .. . ... : ... .. . ... ... : ... .. . ... ... : ... .. . ... ... : ... .. . ... ...
ROW FE : ... .. . ... ... ... : F-3 00 8 ... ... ... : D-3 00 . ... : ... .. A ... : ... .. . ... ... : A-3 01 7 ... ... : D-3 01 7 P81 ... : ... .. . ... ...
ROW FF : ... .. . ... ... ... : ... .. 3 ... ... ... : ... .. . ... : ... .. 8 ... : ... .. . ... ... : ... .. 6 ... ... : ... .. 6 ... ... : ... .. . ... ...

PATTERN 02
ROW 00 : ... .. . ... ... ... : ... .. 0 ... ... ... : ... .. . ... : ... .. 4 ... : ... .. . ... ... : ... .. . ... ... : ... .. . ... ... : ... .. . ... ...
ROW 01 : ... .. . ... ... ... : F-3 00 3 P80 ... ... : ... .. . ... : ... .. 2 ... : ... .. . ... ... : ... .. . ... ... : ... .. . ... ... : ... .. . ... ...
ROW 02 : ... .. . ... ... ... : ... .. 4 ... ... ... : --- .. . ... : ... .. 1 ... : ... .. . ... ... : ... .. 5 ... ... : ... .. 5 ... ... : ... .. . ... ...
ROW 03 : ... .. . ... ... ... : C-3 00 8 ... ... ... : D-3 00 . ... : ... .. 8 ... : ... .. . ... ... : ... .. . ... ... : ... .. . ... ... : ... .. . ... ...
ROW 04 : ... .. 2 ... ... ... : ... .. 3 ... ... ... : ... .. . ... : ... .. 6 ... : ... .. . ... ... : ... .. . ... ... : ... .. . ... ... : ... .. 2 ... ...
ROW 05 : ... .. . ... ... ... : ... .. 0 ... ... ... : ... .. . ... : ... .. 3 ... : ... .. . ... ... : ... .. 4 ... ... : ... .. 4 ... ... : ... .. . ... ...
ROW 06 : ... .. . ... ... ... : C-3 00 3 P80 ... ... : ... .. . ... : ... .. 1 ... : ... .. . ... ... : ... .. . ... ... : ... .. . ... ... : ... .. 1 ... ...
ROW 07 : ... .. 1 ... ... ... : ... .. 4 ... ... ... : --- .. . ... : ... .. . ... : ... .. . ... ... : ... .. . ... ... : ... .. . ... ... : ... .. . ... ...
ROW 08 : G-3 00 F ... ... ... : C-5 00 8 ... ... ... : D-3 00 . ... : 1-# 00 F ... : ... .. . ... ... : --- .. . ... ... : --- .. . P83 ... : A-2 01 A ... ...
ROW 09 : G#3 00 E P79 ... ... : ... .. 3 ... ... ... : ... .. . ... : ... .. C ... : ... .. . ... ... : ... .. . ... ... : ... .. . ... ... : ... .. 8 ... ...
ROW 0A : ... .. D P82 ... ... : ... .. 0 ... ... ... : ... .. . ... : ... .. 6 ... : ... .. . ... ... : ... .. . ... ... : ... .. . ... ... : ... .. 5 ... ...
ROW 0B : A-3 00 A P7C ... ... : C-5 00 3 P80 ... ... : ... .. . ... : ... .. 3 ... : ... .. . ... ... : ... .. . ... ... : ... .. . ... ... : ... .. . ... ...
ROW 0C : ... .. . P80 ... ... : ... .. 4 ... ... ... : ... .. . ... : ... .. 2 ... : ... .. . ... ... : ... .. . ... ... : ... .. . ... ... : ... .. . ... ...
ROW 0D : ... .. . ... ... ... : G-4 00 8 ... ... ... : ... .. . ... : D-# 00 8 ... : ... .. . ... ... : ... .. . ... ... : ... .. . ... ... : ... .. . ... ...
ROW 0E : ... .. . ... ... ... : ... .. 3 ... ... ... : ... .. . ... : ... .. 6 ... : ... .. . ... ... : ... .. . ... ... : ... .. . ... ... : ... .. . ... ...
ROW 0F : ... .. . ... ... ... : ... .. 0 ... ... ... : ... .. . ... : ... .. 3 ... : ... .. . ... ... : ... .. . ... ... : ... .. . ... ... : ... .. . ... ...
ROW 10 : ... .. . ... ... ... : G-4 00 3 P80 ... ... : --- .. . ... : ... .. 1 ... : ... .. . ... ... : ... .. . ... ... : ... .. . ... ... : ... .. . ... ...
ROW 11 : ... .. . ... ... ... : ... .. 4 ... ... ... : ... .. . ... : ... .. . ... : ... .. . ... ... : ... .. . ... ... : ... .. . ... ... : ... .. . ... ...
ROW 12 : ... .. . ... ... ... : F-4 00 8 ... ... ... : D-3 00 . ... : ... .. A ... : ... .. . ... ... : A-3 01 7 ... ... : D-3 01 7 P81 ... : ... .. . ... ...
ROW 13 : ... .. . ... ... ... : ... .. 3 ... ... ... : ... .. . ... : ... .. 8 ... : ... .. . ... ... : ... .. 6 ... ... : ... .. 6 ... ... : ... .. . ... ...
ROW 14 : ... .. . ... ... ... : ... .. 0 ... ... ... : ... .. . ... : ... .. 4 ... : ... .. . ... ... : ... .. . ... ... : ... .. . ... ... : ... .. . ... ...
ROW 15 : ... .. . ... ... ... : F-4 00 3 P80 ... ... : ... .. . ... : ... .. 2 ... : ... .. . ... ... : --- .. . ... ... : --- .. . P83 ... : ... .. . ... ...
ROW 16 : ... .. . ... ... ... : ... .. 4 ... ... ... : ... .. . ... : ... .. 1 ... : ... .. . ... ... : ... .. . ... ... : ... .. . ... ... : ... .. . ... ...
ROW 17 : ... .. . ... ... ... : C-4 00 8 ... ... ... : ... .. . ... : ... .. 8 ... : ... .. . ... ... : A-3 01 7 ... ... : D-3 01 7 P81 ... : ... .. . ... ...
ROW 18 : ... .. . ... ... ... : ... .. 3 ... ... ... : ... .. . ... : ... .. 6 ... : ... .. . ... ... : ... .. 6 ... ... : ... .. 6 ... ... : ... .. . ... ...
ROW 19 : ... .. . ... ... ... : ... .. 0 ... ... ... : ... .. . ... : ... .. 3 ... : ... .. . ... ... : ... .. . ... ... : ... .. . ... ... : ... .. . ... ...
ROW 1A : ... .. . ... ... ... : C-4 00 3 P80 ... ... : --- .. . ... : ... .. 1 ... : ... .. . ... ... : --- .. . ... ... : --- .. . P83 ... : ... .. . ... ...
ROW 1B : ... .. . ... ... ... : ... .. 4 ... ... ... : ... .. . ... : ... .. . ... : ... .. . ... ... : ... .. . ... ... : ... .. . ... ... : ... .. . ... ...
ROW 1C : ... .. . ... ... ... : A-3 00 8 ... ... ... : D-4 00 . ... : 1-# 00 D ... : ... .. . ... ... : A-3 01 7 ... ... : D-3 01 7 P81 ... : ... .. . ... ...
ROW 1D : ... .. . ... ... ... : ... .. 3 ... ... ... : ... .. . ... : ... .. . ... : ... .. . ... ... : ... .. 6 ... ... : ... .. 6 ... ... : ... .. . ... ...
ROW 1E : ... .. . ... ... ... : ... .. 0 ... ... ... : ... .. . ... : D-# 00 D ... : ... .. . ... ... : ... .. . ... ... : ... .. . ... ... : ... .. . ... ...
ROW 1F : ... .. . ... ... ... : A-3 00 3 P80 ... ... : ... .. . ... : B-# 00 6 ... : ... .. . ... ... : ... .. . ... ... : ... .. . ... ... : ... .. . ... ...
ROW 20 : ... .. . ... ... ... : ... .. 4 ... ... ... : --- .. . ... : 7-# 00 1 ... : ... .. . ... ... : ... .. 5 ... ... : ... .. 5 ... ... : ... .. . ... ...
ROW 21 : ... .. . ... ... ... : G-3 00 8 ... ... ... : D-4 00 . ... : D-# 00 8 ... : ... .. . ... ... : --- .. . ... ... : --- .. . P83 ... : ... .. . ... ...
ROW 22 : ... .. . ... ... ... : ... .. 3 ... ... ... : ... .. . ... : ... .. 6 ... : ... .. . ... ... : ... .. . ... ... : ... .. . ... ... : ... .. . ... ...
ROW 23 : ... .. . ... ... ... : ... .. 0 ... ... ... : ... .. . ... : ... .. 3 ... : ... .. . ... ... : ... .. . ... ... : ... .. . ... ... : ... .. . ... ...
ROW 24 : ... .. . ... ... ... : G-3 00 3 P80 ... ... : ... .. . ... : ... .. 1 ... : ... .. . ... ... : ... .. . ... ... : ... .. . ... ... : ... .. . ... ...
ROW 25 : ... .. . ... ... ... : ... .. 4 ... ... ... : --- .. . ... : ... .. . ... : ... .. . ... ... : ... .. . ... ... : ... .. . ... ... : ... .. . ... ...
ROW 26 : ... .. . ... ... ... : F-3 00 8 ... ... ... : D-3 00 . ... : ... .. A ... : ... .. . ... ... : D-3 01 7 ... ... : G-2 01 7 P81 ... : ... .. . ... ...
ROW 27 : ... .. . ... ... ... : ... .. 3 ... ... ... : ... .. . ... : ... .. 8 ... : ... .. . ... ... : ... .. 6 ... ... : ... .. 6 ... ... : ... .. . ... ...
ROW 28 : ... .. . ... ... ... : ... .. 0 ... ... ... : ... .. . ... : ... .. 4 ... : ... .. . ... ... : ... .. . ... ... : ... .. . ... ... : ... .. . ... ...
ROW 29 : ... .. . ... ... ... : F-3 00 3 P80 ... ... : ... .. . ... : ... .. 2 ... : ... .. . ... ... : ... .. . ... ... : ... .. . ... ... : ... .. . ... ...
ROW 2A : ... .. . ... ... ... : ... .. 4 ... ... ... : --- .. . ... : ... .. 1 ... : ... .. . ... ... : ... .. 5 ... ... : ... .. 5 ... ... : ... .. . ... ...
ROW 2B : ... .. . ... ... ... : C-3 00 8 ... ... ... : D-3 00 . ... : ... .. 8 ... : ... .. . ... ... : --- .. . P81 ... : --- .. . P7F ... : ... .. . ... ...
ROW 2C : ... .. 2 ... ... ... : ... .. 3 ... ... ... : ... .. . ... : ... .. 6 ... : ... .. . ... ... : ... .. . ... ... : ... .. . ... ... : ... .. 2 ... ...
ROW 2D : ... .. . ... ... ... : ... .. 0 ... ... ... : ... .. . ... : ... .. 3 ... : ... .. . ... ... : ... .. . ... ... : ... .. . ... ... : ... .. . ... ...
ROW 2E : ... .. . ... ... ... : C-3 00 3 P80 ... ... : ... .. . ... : ... .. 1 ... : ... .. . ... ... : ... .. . ... ... : ... .. . ... ... : ... .. 1 ... ...
ROW 2F : ... .. 1 ... ... ... : ... .. 4 ... ... ... : --- .. . ... : ... .. . ... : ... .. . ... ... : ... .. . ... ... : ... .. . ... ... : ... .. . ... ...
ROW 30 : G-3 00 F ... ... ... : B-4 00 8 ... ... ... : D-3 00 . ... : 1-# 00 F ... : ... .. . ... ... : A-3 01 7 P7F ... : D-3 01 7 P81 ... : G-2 01 A ... ...
ROW 31 : ... .. E ... ... ... : ... .. 3 ... ... ... : ... .. . ... : ... .. C ... : ... .. . ... ... : ... .. 6 ... ... : ... .. 6 ... ... : ... .. 8 ... ...
ROW 32 : ... .. D ... ... ... : ... .. 0 ... ... ... : ... .. . ... : ... .. 6 ... : ... .. . ... ... : ... .. . ... ... : ... .. . ... ... : ... .. 5 ... ...
ROW 33 : ... .. A ... ... ... : B-4 00 3 P80 ... ... : ... .. . ... : ... .. 3 ... : ... .. . ... ... : ... .. . ... ... : ... .. . ... ... : ... .. . ... ...
ROW 34 : ... .. . ... ... ... : ... .. 4 ... ... ... : ... .. . ... : ... .. 2 ... : ... .. . ... ... : ... .. 5 ... ... : ... .. 5 ... ... : ... .. . ... ...
ROW 35 : ... .. . ... ... ... : G-4 00 8 ... ... ... : ... .. . ... : D-# 00 8 ... : ... .. . ... ... : ... .. . ... ... : ... .. . ... ... : ... .. . ... ...
ROW 36 : ... .. 2 ... ... ... : ... .. 3 ... ... ... : ... .. . ... : ... .. 6 ... : ... .. . ... ... : ... .. . ... ... : ... .. . ... ... : ... .. 2 ... ...
ROW 37 : ... .. . ... ... ... : ... .. 0 ... ... ... : ... .. . ... : ... .. 3 ... : ... .. . ... ... : ... .. 4 ... ... : ... .. 4 ... ... : ... .. . ... ...
ROW 38 : ... .. . ... ... ... : G-4 00 3 P80 ... ... : --- .. . ... : ... .. 1 ... : ... .. . ... ... : ... .. . ... ... : ... .. . ... ... : ... .. 1 ... ...
ROW 39 : ... .. 1 ... ... ... : ... .. 4 ... ... ... : ... .. . ... : ... .. . ... : ... .. . ... ... : ... .. . ... ... : ... .. . ... ... : ... .. . ... ...
ROW 3A : ... .. F ... ... ... : D-4 00 8 ... ... ... : D-3 00 . ... : ... .. A ... : ... .. . ... ... : --- .. . ... ... : --- .. . P83 ... : ... .. A ... ...
ROW 3B : ... .. E ... ... ... : ... .. 3 ... ... ... : ... .. . ... : ... .. 8 ... : ... .. . ... ... : ... .. . ... ... : ... .. . ... ... : ... .. 8 ... ...
ROW 3C : ... .. D ... ... ... : ... .. 0 ... ... ... : ... .. . ... : ... .. 4 ... : ... .. . ... ... : ... .. . ... ... : ... .. . ... ... : ... .. 5 ... ...
ROW 3D : ... .. A ... ... ... : D-4 00 3 P80 ... ... : ... .. . ... : ... .. 2 ... : ... .. . ... ... : ... .. . ... ... : ... .. . ... ... : ... .. . ... ...
ROW 3E : ... .. 2 ... ... ... : ... .. 4 ... ... ... : ... .. . ... : ... .. 1 ... : ... .. . ... ... : ... .. . ... ... : ... .. . ... ... : ... .. 2 ... ...
ROW 3F : A-3 00 F ... ... ... : B-3 00 8 ... ... ... : ... .. . ... : ... .. 8 ... : ... .. . ... ... : ... .. . ... ... : ... .. . ... ... : A-2 01 A ... ...
ROW 40 : ... .. E ... ... ... : ... .. 3 ... ... ... : ... .. . ... : ... .. 6 ... : ... .. . ... ... : ... .. . ... ... : ... .. . ... ... : ... .. 8 ... ...
ROW 41 : ... .. D ... ... ... : ... .. 0 ... ... ... : ... .. . ... : ... .. 3 ... : ... .. . ... ... : ... .. . ... ... : ... .. . ... ... : ... .. 5 ... ...
ROW 42 : ... .. A ... ... ... : B-3 00 3 P80 ... ... : --- .. . ... : ... .. 1 ... : ... .. . ... ... : ... .. . ... ... : ... .. . ... ... : ... .. . ... ...
ROW 43 : ... .. 2 ... ... ... : ... .. 4 ... ... ... : ... .. . ... : ... .. . ... : ... .. . ... ... : ... .. . ... ... : ... .. . ... ... : ... .. 2 ... ...
ROW 44 : B-3 00 F ... ... ... : G-3 00 8 ... ... ... : D-4 00 . ... : 1-# 00 D ... : ... .. . ... ... : A-3 01 7 ... ... : D-3 01 7 P81 ... : B-2 01 A ... ...
ROW 45 : ... .. E ... ... ... : ... .. 3 ... ... ... : ... .. . ... : ... .. . ... : ... .. . ... ... : ... .. 6 ... ... : ... .. 6 ... ... : ... .. 8 ... ...
ROW 46 : ... .. D ... ... ... : ... .. 0 ... ... ... : ... .. . ... : D-# 00 D ... : ... .. . ... ... : ... .. . ... ... : ... .. . ... ... : ... .. 5 ... ...
ROW 47 : ... .. A ... ... ... : G-3 00 3 P80 ... ... : ... .. . ... : B-# 00 6 ... : ... .. . ... ... : --- .. . ... ... : --- .. . P83 ... : ... .. . ... ...
ROW 48 : ... .. . ... ... ... : ... .. 4 ... ... ... : --- .. . ... : 7-# 00 1 ... : ... .. . ... ... : ... .. . ... ... : ... .. . ... ... : ... .. . ... ...
ROW 49 : ... .. . ... ... ... : D-3 00 8 ... ... ... : D-4 00 . ... : D-# 00 8 ... : ... .. . ... ... : A-3 01 7 ... ... : D-3 01 7 P81 ... : ... .. . ... ...
ROW 4A : ... .. . ... ... ... : ... .. 3 ... ... ... : ... .. . ... : ... .. 6 ... : ... .. . ... ... : ... .. 6 ... ... : ... .. 6 ... ... : ... .. . ... ...
ROW 4B : ... .. . ... ... ... : ... .. 0 ... ... ... : ... .. . ... : ... .. 3 ... : ... .. . ... ... : ... .. . ... ... : ... .. . ... ... : ... .. . ... ...
ROW 4C : ... .. . ... ... ... : D-3 00 3 P80 ... ... : ... .. . ... : ... .. 1 ... : ... .. . ... ... : --- .. . ... ... : --- .. . P83 ... : ... .. . ... ...
ROW 4D : ... .. . ... ... ... : ... .. 4 ... ... ... : --- .. . ... : ... .. . ... : ... .. . ... ... : ... .. . ... ... : ... .. . ... ... : ... .. . ... ...
ROW 4E : ... .. . ... ... ... : B-2 00 8 ... ... ... : D-3 00 . ... : ... .. A ... : ... .. . ... ... : A-3 01 7 ... ... : D-3 01 7 P81 ... : ... .. . ... ...
ROW 4F : ... .. . ... ... ... : ... .. 3 ... ... ... : ... .. . ... : ... .. 8 ... : ... .. . ... ... : ... .. 6 ... ... : ... .. 6 ... ... : ... .. . ... ...
ROW 50 : ... .. . ... ... ... : ... .. 0 ... ... ... : ... .. . ... : ... .. 4 ... : ... .. . ... ... : ... .. . ... ... : ... .. . ... ... : ... .. . ... ...
ROW 51 : ... .. . ... ... ... : B-2 00 3 P80 ... ... : ... .. . ... : ... .. 2 ... : ... .. . ... ... : ... .. . ... ... : ... .. . ... ... : ... .. . ... ...
ROW 52 : ... .. . ... ... ... : ... .. 4 ... ... ... : --- .. . ... : ... .. 1 ... : ... .. . ... ... : ... .. 5 ... ... : ... .. 5 ... ... : ... .. . ... ...
ROW 53 : ... .. . ... ... ... : G-2 00 8 ... ... ... : D-3 00 . ... : ... .. 8 ... : ... .. . ... ... : ... .. . ... ... : ... .. . ... ... : ... .. . ... ...
ROW 54 : ... .. . ... ... ... : ... .. 3 ... ... ... : ... .. . ... : ... .. 6 ... : ... .. . ... ... : ... .. . ... ... : ... .. . ... ... : ... .. . ... ...
ROW 55 : ... .. . ... ... ... : ... .. 0 ... ... ... : ... .. . ... : ... .. 3 ... : ... .. . ... ... : ... .. 4 ... ... : ... .. 4 ... ... : ... .. . ... ...
ROW 56 : ... .. . ... ... ... : G-2 00 3 P80 ... ... : ... .. . ... : ... .. 1 ... : ... .. . ... ... : ... .. . ... ... : ... .. . ... ... : ... .. . ... ...
ROW 57 : ... .. . ... ... ... : ... .. 4 ... ... ... : --- .. . ... : ... .. . ... : ... .. . ... ... : ... .. . ... ... : ... .. . ... ... : ... .. . ... ...
ROW 58 : ... .. . P84 ... ... : B-4 00 8 ... ... ... : D-3 00 . ... : 1-# 00 F ... : ... .. . ... ... : --- .. . ... ... : --- .. . P83 ... : ... .. . ... ...
ROW 59 : ... .. . P86 ... ... : ... .. 3 ... ... ... : ... .. . ... : ... .. C ... : ... .. . ... ... : ... .. . ... ... : ... .. . ... ... : ... .. . ... ...
ROW 5A : ... .. . P84 ... ... : ... .. 0 ... ... ... : ... .. . ... : ... .. 6 ... : ... .. . ... ... : ... .. . ... ... : ... .. . ... ... : ... .. . ... ...
ROW 5B : ... .. . P80 ... ... : B-4 00 3 P80 ... ... : ... .. . ... : ... .. 3 ... : ... .. . ... ... : ... .. . ... ... : ... .. . ... ... : ... .. . ... ...
ROW 5C : ... .. . P7C ... ... : ... .. 4 ... ... ... : ... .. . ... : ... .. 2 ... : ... .. . ... ... : ... .. . ... ... : ... .. . ... ... : ... .. . ... ...
ROW 5D : ... .. . P7A ... ... : G-4 00 8 ... ... ... : ... .. . ... : D-# 00 8 ... : ... .. . ... ... : ... .. . ... ... : ... .. . ... ... : ... .. . ... ...
ROW 5E : ... .. . P7C ... ... : ... .. 3 ... ... ... : ... .. . ... : ... .. 6 ... : ... .. . ... ... : ... .. . ... ... : ... .. . ... ... : ... .. . ... ...
ROW 5F : ... .. . P80 ... ... : ... .. 0 ... ... ... : ... .. . ... : ... .. 3 ... : ... .. . ... ... : ... .. . ... ... : ... .. . ... ... : ... .. . ... ...
ROW 60 : ... .. . P84 ... ... : G-4 00 3 P80 ... ... : --- .. . ... : ... .. 1 ... : ... .. . ... ... : ... .. . ... ... : ... .. . ... ... : ... .. . ... ...
ROW 61 : ... .. . P86 ... ... : ... .. 4 ... ... ... : ... .. . ... : ... .. . ... : ... .. . ... ... : ... .. . ... ... : ... .. . ... ... : ... .. . ... ...
ROW 62 : ... .. . P84 ... ... : D-4 00 8 ... ... ... : D-3 00 . ... : ... .. A ... : ... .. . ... ... : D-3 01 7 ... ... : G-2 01 7 P81 ... : ... .. . ... ...
ROW 63 : ... .. . P80 ... ... : ... .. 3 ... ... ... : ... .. . ... : ... .. 8 ... : ... .. . ... ... : ... .. 6 ... ... : ... .. 6 ... ... : ... .. . ... ...
ROW 64 : ... .. . P7C ... ... : ... .. 0 ... ... ... : ... .. . ... : ... .. 4 ... : ... .. . ... ... : ... .. . ... ... : ... .. . ... ... : ... .. . ... ...
ROW 65 : ... .. . P7A ... ... : D-4 00 3 P80 ... ... : ... .. . ... : ... .. 2 ... : ... .. . ... ... : --- .. . P81 ... : --- .. . P7F ... : ... .. . ... ...
ROW 66 : ... .. . P7C ... ... : ... .. 4 ... ... ... : ... .. . ... : ... .. 1 ... : ... .. . ... ... : ... .. . ... ... : ... .. . ... ... : ... .. . ... ...
ROW 67 : ... .. . P80 ... ... : B-3 00 8 ... ... ... : ... .. . ... : ... .. 8 ... : ... .. . ... ... : D-3 01 7 P7F ... : G-2 01 7 P81 ... : ... .. . ... ...
ROW 68 : ... .. 2 P84 ... ... : ... .. 3 ... ... ... : ... .. . ... : ... .. 6 ... : ... .. . ... ... : ... .. 6 ... ... : ... .. 6 ... ... : ... .. 2 ... ...
ROW 69 : ... .. . P86 ... ... : ... .. 0 ... ... ... : ... .. . ... : ... .. 3 ... : ... .. . ... ... : ... .. . ... ... : ... .. . ... ... : ... .. . ... ...
ROW 6A : ... .. . P84 ... ... : B-3 00 3 P80 ... ... : --- .. . ... : ... .. 1 ... : ... .. . ... ... : --- .. . P81 ... : --- .. . P7F ... : ... .. 1 ... ...
ROW 6B : ... .. 1 P80 ... ... : ... .. 4 ... ... ... : ... .. . ... : ... .. . ... : ... .. . ... ... : ... .. . ... ... : ... .. . ... ... : ... .. . ... ...
ROW 6C : G-3 00 F ... ... ... : G-3 00 8 ... ... ... : D-4 00 . ... : 1-# 00 D ... : ... .. . ... ... : A-3 01 7 P7F ... : D-3 01 7 P81 ... : G-2 01 A ... ...
ROW 6D : ... .. E ... ... ... : ... .. 3 ... ... ... : ... .. . ... : ... .. . ... : ... .. . ... ... : ... .. 6 ... ... : ... .. 6 ... ... : ... .. 8 ... ...
ROW 6E : ... .. D ... ... ... : ... .. 0 ... ... ... : ... .. . ... : D-# 00 D ... : ... .. . ... ... : ... .. . ... ... : ... .. . ... ... : ... .. 5 ... ...
ROW 6F : ... .. A ... ... ... : G-3 00 3 P80 ... ... : ... .. . ... : B-# 00 6 ... : ... .. . ... ... : ... .. . ... ... : ... .. . ... ... : ... .. . ... ...
ROW 70 : ... .. . ... ... ... : ... .. 4 ... ... ... : --- .. . ... : 7-# 00 1 ... : ... .. . ... ... : ... .. 5 ... ... : ... .. 5 ... ... : ... .. . ... ...
ROW 71 : ... .. . ... ... ... : D-3 00 8 ... ... ... : D-4 00 . ... : D-# 00 8 ... : ... .. . ... ... : --- .. . ... ... : --- .. . P83 ... : ... .. . ... ...
ROW 72 : ... .. . ... ... ... : ... .. 3 ... ... ... : ... .. . ... : ... .. 6 ... : ... .. . ... ... : ... .. . ... ... : ... .. . ... ... : ... .. . ... ...
ROW 73 : ... .. . ... ... ... : ... .. 0 ... ... ... : ... .. . ... : ... .. 3 ... : ... .. . ... ... : ... .. . ... ... : ... .. . ... ... : ... .. . ... ...
ROW 74 : ... .. . ... ... ... : D-3 00 3 P80 ... ... : ... .. . ... : ... .. 1 ... : ... .. . ... ... : ... .. . ... ... : ... .. . ... ... : ... .. . ... ...
ROW 75 : ... .. . ... ... ... : ... .. 4 ... ... ... : --- .. . ... : ... .. . ... : ... .. . ... ... : ... .. . ... ... : ... .. . ... ... : ... .. . ... ...
ROW 76 : B-3 00 F ... ... ... : B-2 00 8 ... ... ... : D-3 00 . ... : ... .. A ... : ... .. . ... ... : D-3 01 7 ... ... : G-2 01 7 P81 ... : B-2 01 A ... ...
ROW 77 : ... .. E ... ... ... : ... .. 3 ... ... ... : ... .. . ... : ... .. 8 ... : ... .. . ... ... : ... .. 6 ... ... : ... .. 6 ... ... : ... .. 8 ... ...
ROW 78 : ... .. D ... ... ... : ... .. 0 ... ... ... : ... .. . ... : ... .. 4 ... : ... .. . ... ... : ... .. . ... ... : ... .. . ... ... : ... .. 5 ... ...
ROW 79 : ... .. A ... ... ... : B-2 00 3 P80 ... ... : ... .. . ... : ... .. 2 ... : ... .. . ... ... : --- .. . P81 ... : --- .. . P7F ... : ... .. . ... ...
ROW 7A : ... .. . ... ... ... : ... .. 4 ... ... ... : --- .. . ... : ... .. 1 ... : ... .. . ... ... : ... .. . ... ... : ... .. . ... ... : ... .. . ... ...
ROW 7B : ... .. . ... ... ... : G-2 00 8 ... ... ... : D-3 00 . ... : ... .. 8 ... : ... .. . ... ... : D-3 01 7 P7F ... : G-2 01 7 P81 ... : ... .. . ... ...
ROW 7C : ... .. 2 ... ... ... : ... .. 3 ... ... ... : ... .. . ... : ... .. 6 ... : ... .. . ... ... : ... .. 6 ... ... : ... .. 6 ... ... : ... .. 2 ... ...
ROW 7D : ... .. . ... ... ... : ... .. 0 ... ... ... : ... .. . ... : ... .. 3 ... : ... .. . ... ... : ... .. . ... ... : ... .. . ... ... : ... .. . ... ...
ROW 7E : ... .. . ... ... ... : G-2 00 3 P80 ... ... : ... .. . ... : ... .. 1 ... : ... .. . ... ... : --- .. . P81 ... : --- .. . P7F ... : ... .. 1 ... ...
ROW 7F : ... .. 1 ... ... ... : ... .. 4 ... ... ... : --- .. . ... : ... .. . ... : ... .. . ... ... : ... .. . ... ... : ... .. . ... ... : ... .. . ... ...
ROW 80 : A-3 00 F ... ... ... : A#4 00 8 ... ... ... : D-3 00 . ... : 1-# 00 F ... : ... .. . ... ... : A-3 01 7 P7F ... : D-3 01 7 P81 ... : A-2 01 A ... ...
ROW 81 : ... .. E ... ... ... : ... .. 3 ... ... ... : ... .. . ... : ... .. C ... : ... .. . ... ... : ... .. 6 ... ... : ... .. 6 ... ... : ... .. 8 ... ...
ROW 82 : ... .. D ... ... ... : ... .. 0 ... ... ... : ... .. . ... : ... .. 6 ... : ... .. . ... ... : ... .. . ... ... : ... .. . ... ... : ... .. 5 ... ...
ROW 83 : ... .. A ... ... ... : A#4 00 3 P80 ... ... : ... .. . ... : ... .. 3 ... : ... .. . ... ... : ... .. . ... ... : ... .. . ... ... : ... .. . ... ...
ROW 84 : ... .. . ... ... ... : ... .. 4 ... ... ... : ... .. . ... : ... .. 2 ... : ... .. . ... ... : ... .. 5 ... ... : ... .. 5 ... ... : ... .. . ... ...
ROW 85 : ... .. . ... ... ... : F-4 00 8 ... ... ... : ... .. . ... : D-# 00 8 ... : ... .. . ... ... : ... .. . ... ... : ... .. . ... ... : ... .. . ... ...
ROW 86 : ... .. . ... ... ... : ... .. 3 ... ... ... : ... .. . ... : ... .. 6 ... : ... .. . ... ... : ... .. . ... ... : ... .. . ... ... : ... .. . ... ...
ROW 87 : ... .. . ... ... ... : ... .. 0 ... ... ... : ... .. . ... : ... .. 3 ... : ... .. . ... ... : ... .. 4 ... ... : ... .. 4 ... ... : ... .. . ... ...
ROW 88 : ... .. . ... ... ... : F-4 00 3 P80 ... ... : --- .. . ... : ... .. 1 ... : ... .. . ... ... : ... .. . ... ... : ... .. . ... ... : ... .. . ... ...
ROW 89 : ... .. . ... ... ... : ... .. 4 ... ... ... : ... .. . ... : ... .. . ... : ... .. . ... ... : ... .. . ... ... : ... .. . ... ... : ... .. . ... ...
ROW 8A : ... .. . ... ... ... : D-4 00 8 ... ... ... : D-3 00 . ... : ... .. A ... : ... .. . ... ... : --- .. . ... ... : --- .. . P83 ... : ... .. . ... ...
ROW 8B : ... .. . ... ... ... : ... .. 3 ... ... ... : ... .. . ... : ... .. 8 ... : ... .. . ... ... : ... .. . ... ... : ... .. . ... ... : ... .. . ... ...
ROW 8C : ... .. . ... ... ... : ... .. 0 ... ... ... : ... .. . ... : ... .. 4 ... : ... .. . ... ... : ... .. . ... ... : ... .. . ... ... : ... .. . ... ...
ROW 8D : ... .. . ... ... ... : D-4 00 3 P80 ... ... : ... .. . ... : ... .. 2 ... : ... .. . ... ... : ... .. . ... ... : ... .. . ... ... : ... .. . ... ...
ROW 8E : ... .. . ... ... ... : ... .. 4 ... ... ... : ... .. . ... : ... .. 1 ... : ... .. . ... ... : ... .. . ... ... : ... .. . ... ... : ... .. . ... ...
ROW 8F : ... .. . ... ... ... : A#3 00 8 ... ... ... : ... .. . ... : ... .. 8 ... : ... .. . ... ... : ... .. . ... ... : ... .. . ... ... : ... .. . ... ...
ROW 90 : ... .. . ... ... ... : ... .. 3 ... ... ... : ... .. . ... : ... .. 6 ... : ... .. . ... ... : ... .. . ... ... : ... .. . ... ... : ... .. . ... ...
ROW 91 : ... .. . ... ... ... : ... .. 0 ... ... ... : ... .. . ... : ... .. 3 ... : ... .. . ... ... : ... .. . ... ... : ... .. . ... ... : ... .. . ... ...
ROW 92 : ... .. . ... ... ... : A#3 00 3 P80 ... ... : --- .. . ... : ... .. 1 ... : ... .. . ... ... : ... .. . ... ... : ... .. . ... ... : ... .. . ... ...
ROW 93 : ... .. . ... ... ... : ... .. 4 ... ... ... : ... .. . ... : ... .. . ... : ... .. . ... ... : ... .. . ... ... : ... .. . ... ... : ... .. . ... ...
ROW 94 : ... .. . ... ... ... : F-3 00 8 ... ... ... : D-4 00 . ... : 1-# 00 D ... : ... .. . ... ... : A-3 01 7 ... ... : D-3 01 7 P81 ... : ... .. . ... ...
ROW 95 : ... .. 2 ... ... ... : ... .. 3 ... ... ... : ... .. . ... : ... .. . ... : ... .. . ... ... : ... .. 6 ... ... : ... .. 6 ... ... : ... .. 2 ... ...
ROW 96 : ... .. . ... ... ... : ... .. 0 ... ... ... : ... .. . ... : D-# 00 D ... : ... .. . ... ... : ... .. . ... ... : ... .. . ... ... : ... .. . ... ...
ROW 97 : ... .. . ... ... ... : F-3 00 3 P80 ... ... : ... .. . ... : B-# 00 6 ... : ... .. . ... ... : --- .. . ... ... : --- .. . P83 ... : ... .. 1 ... ...
ROW 98 : ... .. 1 ... ... ... : ... .. 4 ... ... ... : --- .. . ... : 7-# 00 1 ... : ... .. . ... ... : ... .. . ... ... : ... .. . ... ... : ... .. . ... ...
ROW 99 : ... .. . ... ... ... : D-3 00 8 ... ... ... : D-4 00 . ... : D-# 00 8 ... : ... .. . ... ... : A-3 01 7 ... ... : D-3 01 7 P81 ... : ... .. . ... ...
ROW 9A : ... .. . ... ... ... : ... .. 3 ... ... ... : ... .. . ... : ... .. 6 ... : ... .. . ... ... : ... .. 6 ... ... : ... .. 6 ... ... : ... .. . ... ...
ROW 9B : ... .. 0 ... ... ... : ... .. 0 ... ... ... : ... .. . ... : ... .. 3 ... : ... .. . ... ... : ... .. . ... ... : ... .. . ... ... : ... .. . ... ...
ROW 9C : ... .. . ... ... ... : D-3 00 3 P80 ... ... : ... .. . ... : ... .. 1 ... : ... .. . ... ... : --- .. . ... ... : --- .. . P83 ... : ... .. . ... ...
ROW 9D : ... .. . ... ... ... : ... .. 4 ... ... ... : --- .. . ... : ... .. . ... : ... .. . ... ... : ... .. . ... ... : ... .. . ... ... : ... .. . ... ...
ROW 9E : D-3 00 F P80 ... ... : A#2 00 8 ... ... ... : D-3 00 . ... : ... .. A ... : ... .. . ... ... : A-3 01 7 ... ... : D-3 01 7 P81 ... : D-2 01 A ... ...
ROW 9F : ... .. E ... ... ... : ... .. 3 ... ... ... : ... .. . ... : ... .. 8 ... : ... .. . ... ... : ... .. 6 ... ... : ... .. 6 ... ... : ... .. 8 ... ...
ROW A0 : ... .. D ... ... ... : ... .. 0 ... ... ... : ... .. . ... : ... .. 4 ... : ... .. . ... ... : ... .. . ... ... : ... .. . ... ... : ... .. 5 ... ...
ROW A1 : ... .. A ... ... ... : A#2 00 3 P80 ... ... : ... .. . ... : ... .. 2 ... : ... .. . ... ... : ... .. . ... ... : ... .. . ... ... : ... .. . ... ...
ROW A2 : ... .. . ... ... ... : ... .. 4 ... ... ... : --- .. . ... : ... .. 1 ... : ... .. . ... ... : ... .. 5 ... ... : ... .. 5 ... ... : ... .. . ... ...
ROW A3 : ... .. . ... ... ... : F-2 00 8 ... ... ... : D-3 00 . ... : ... .. 8 ... : ... .. . ... ... : ... .. . ... ... : ... .. . ... ... : ... .. . ... ...
ROW A4 : ... .. 2 ... ... ... : ... .. 3 ... ... ... : ... .. . ... : ... .. 6 ... : ... .. . ... ... : ... .. . ... ... : ... .. . ... ... : ... .. 2 ... ...
ROW A5 : ... .. . ... ... ... : ... .. 0 ... ... ... : ... .. . ... : ... .. 3 ... : ... .. . ... ... : ... .. 4 ... ... : ... .. 4 ... ... : ... .. . ... ...
ROW A6 : ... .. . ... ... ... : F-2 00 3 P80 ... ... : ... .. . ... : ... .. 1 ... : ... .. . ... ... : ... .. . ... ... : ... .. . ... ... : ... .. 1 ... ...
ROW A7 : ... .. 1 ... ... ... : ... .. 4 ... ... ... : --- .. . ... : ... .. . ... : ... .. . ... ... : ... .. . ... ... : ... .. . ... ... : ... .. . ... ...
ROW A8 : ... .. F ... ... ... : A#4 00 8 ... ... ... : D-3 00 . ... : 1-# 00 F ... : ... .. . ... ... : --- .. . ... ... : --- .. . P83 ... : ... .. A ... ...
ROW A9 : ... .. E ... ... ... : ... .. 3 ... ... ... : ... .. . ... : ... .. C ... : ... .. . ... ... : ... .. . ... ... : ... .. . ... ... : ... .. 8 ... ...
ROW AA : ... .. D ... ... ... : ... .. 0 ... ... ... : ... .. . ... : ... .. 6 ... : ... .. . ... ... : ... .. . ... ... : ... .. . ... ... : ... .. 5 ... ...
ROW AB : ... .. A ... ... ... : A#4 00 3 P80 ... ... : ... .. . ... : ... .. 3 ... : ... .. . ... ... : ... .. . ... ... : ... .. . ... ... : ... .. . ... ...
ROW AC : ... .. . ... ... ... : ... .. 4 ... ... ... : ... .. . ... : ... .. 2 ... : ... .. . ... ... : ... .. . ... ... : ... .. . ... ... : ... .. . ... ...
ROW AD : ... .. . ... ... ... : F-4 00 8 ... ... ... : ... .. . ... : D-# 00 8 ... : ... .. . ... ... : ... .. . ... ... : ... .. . ... ... : ... .. . ... ...
ROW AE : ... .. . ... ... ... : ... .. 3 ... ... ... : ... .. . ... : ... .. 6 ... : ... .. . ... ... : ... .. . ... ... : ... .. . ... ... : ... .. . ... ...
ROW AF : ... .. . ... ... ... : ... .. 0 ... ... ... : ... .. . ... : ... .. 3 ... : ... .. . ... ... : ... .. . ... ... : ... .. . ... ... : ... .. . ... ...
ROW B0 : ... .. . ... ... ... : F-4 00 3 P80 ... ... : --- .. . ... : ... .. 1 ... : ... .. . ... ... : ... .. . ... ... : ... .. . ... ... : ... .. . ... ...
ROW B1 : ... .. . ... ... ... : ... .. 4 ... ... ... : ... .. . ... : ... .. . ... : ... .. . ... ... : ... .. . ... ... : ... .. . ... ... : ... .. . ... ...
ROW B2 : ... .. . ... ... ... : D-4 00 8 ... ... ... : D-3 00 . ... : ... .. A ... : ... .. . ... ... : A-3 01 7 ... ... : D-3 01 7 P81 ... : ... .. . ... ...
ROW B3 : ... .. . ... ... ... : ... .. 3 ... ... ... : ... .. . ... : ... .. 8 ... : ... .. . ... ... : ... .. 6 ... ... : ... .. 6 ... ... : ... .. . ... ...
ROW B4 : ... .. . ... ... ... : ... .. 0 ... ... ... : ... .. . ... : ... .. 4 ... : ... .. . ... ... : ... .. . ... ... : ... .. . ... ... : ... .. . ... ...
ROW B5 : ... .. . ... ... ... : D-4 00 3 P80 ... ... : ... .. . ... : ... .. 2 ... : ... .. . ... ... : --- .. . ... ... : --- .. . P83 ... : ... .. . ... ...
ROW B6 : ... .. . ... ... ... : ... .. 4 ... ... ... : ... .. . ... : ... .. 1 ... : ... .. . ... ... : ... .. . ... ... : ... .. . ... ... : ... .. . ... ...
ROW B7 : ... .. . ... ... ... : A#3 00 8 ... ... ... : ... .. . ... : ... .. 8 ... : ... .. . ... ... : A-3 01 7 ... ... : D-3 01 7 P81 ... : ... .. . ... ...
ROW B8 : ... .. . ... ... ... : ... .. 3 ... ... ... : ... .. . ... : ... .. 6 ... : ... .. . ... ... : ... .. 6 ... ... : ... .. 6 ... ... : ... .. . ... ...
ROW B9 : ... .. . ... ... ... : ... .. 0 ... ... ... : ... .. . ... : ... .. 3 ... : ... .. . ... ... : ... .. . ... ... : ... .. . ... ... : ... .. . ... ...
ROW BA : ... .. . ... ... ... : A#3 00 3 P80 ... ... : --- .. . ... : ... .. 1 ... : ... .. . ... ... : --- .. . ... ... : --- .. . P83 ... : ... .. . ... ...
ROW BB : ... .. . ... ... ... : ... .. 4 ... ... ... : ... .. . ... : ... .. . ... : ... .. . ... ... : ... .. . ... ... : ... .. . ... ... : ... .. . ... ...
ROW BC : ... .. . P84 ... ... : F-3 00 8 ... ... ... : F-4 00 . ... : 1-# 00 D ... : ... .. . ... ... : A-3 01 7 ... ... : D-3 01 7 P81 ... : ... .. . ... ...
ROW BD : ... .. . P86 ... ... : ... .. 3 ... ... ... : ... .. . ... : ... .. . ... : ... .. . ... ... : ... .. 6 ... ... : ... .. 6 ... ... : ... .. . ... ...
ROW BE : ... .. . P84 ... ... : ... .. 0 ... ... ... : ... .. . ... : D-# 00 D ... : ... .. . ... ... : ... .. . ... ... : ... .. . ... ... : ... .. . ... ...
ROW BF : ... .. . P80 ... ... : F-3 00 3 P80 ... ... : ... .. . ... : B-# 00 6 ... : ... .. . ... ... : ... .. . ... ... : ... .. . ... ... : ... .. . ... ...
ROW C0 : ... .. . P7C ... ... : ... .. 4 ... ... ... : --- .. . ... : 7-# 00 1 ... : ... .. . ... ... : ... .. 5 ... ... : ... .. 5 ... ... : ... .. . ... ...
ROW C1 : ... .. . P7A ... ... : D-3 00 8 ... ... ... : F-4 00 . ... : D-# 00 8 ... : ... .. . ... ... : --- .. . ... ... : --- .. . P83 ... : ... .. . ... ...
ROW C2 : ... .. . P7C ... ... : ... .. 3 ... ... ... : ... .. . ... : ... .. 6 ... : ... .. . ... ... : ... .. . ... ... : ... .. . ... ... : ... .. . ... ...
ROW C3 : ... .. . P80 ... ... : ... .. 0 ... ... ... : ... .. . ... : ... .. 3 ... : ... .. . ... ... : ... .. . ... ... : ... .. . ... ... : ... .. . ... ...
ROW C4 : ... .. . P84 ... ... : D-3 00 3 P80 ... ... : ... .. . ... : ... .. 1 ... : ... .. . ... ... : ... .. . ... ... : ... .. . ... ... : ... .. . ... ...
ROW C5 : ... .. . P86 ... ... : ... .. 4 ... ... ... : --- .. . ... : ... .. . ... : ... .. . ... ... : ... .. . ... ... : ... .. . ... ... : ... .. . ... ...
ROW C6 : ... .. . P84 ... ... : A#2 00 8 ... ... ... : C-3 00 . ... : ... .. A ... : ... .. . ... ... : D-3 01 7 ... ... : G-2 01 7 P81 ... : ... .. . ... ...
ROW C7 : ... .. . P80 ... ... : ... .. 3 ... ... ... : ... .. . ... : ... .. 8 ... : ... .. . ... ... : ... .. 6 ... ... : ... .. 6 ... ... : ... .. . ... ...
ROW C8 : ... .. . P7C ... ... : ... .. 0 ... ... ... : ... .. . ... : ... .. 4 ... : ... .. . ... ... : ... .. . ... ... : ... .. . ... ... : ... .. . ... ...
ROW C9 : ... .. . P7A ... ... : A#2 00 3 P80 ... ... : ... .. . ... : ... .. 2 ... : ... .. . ... ... : ... .. . ... ... : ... .. . ... ... : ... .. . ... ...
ROW CA : ... .. . P7C ... ... : ... .. 4 ... ... ... : --- .. . ... : ... .. 1 ... : ... .. . ... ... : ... .. 5 ... ... : ... .. 5 ... ... : ... .. . ... ...
ROW CB : ... .. . P80 ... ... : F-2 00 8 ... ... ... : C-3 00 . ... : ... .. 8 ... : ... .. . ... ... : --- .. . P81 ... : --- .. . P7F ... : ... .. . ... ...
ROW CC : ... .. 2 P84 ... ... : ... .. 3 ... ... ... : ... .. . ... : ... .. 6 ... : ... .. . ... ... : ... .. . ... ... : ... .. . ... ... : ... .. 2 ... ...
ROW CD : ... .. . P86 ... ... : ... .. 0 ... ... ... : ... .. . ... : ... .. 3 ... : ... .. . ... ... : ... .. . ... ... : ... .. . ... ... : ... .. . ... ...
ROW CE : ... .. . P84 ... ... : F-2 00 3 P80 ... ... : ... .. . ... : ... .. 1 ... : ... .. . ... ... : ... .. . ... ... : ... .. . ... ... : ... .. 1 ... ...
ROW CF : ... .. 1 P80 ... ... : ... .. 4 ... ... ... : --- .. . ... : ... .. . ... : ... .. . ... ... : ... .. . ... ... : ... .. . ... ... : ... .. . ... ...
ROW D0 : D-2 00 D ... ... ... : A-4 00 8 ... ... ... : D-3 00 . ... : 1-# 00 F ... : ... .. . ... ... : A-3 01 7 P7F ... : D-3 01 7 P81 ... : A-4 01 A ... ...
ROW D1 : ... .. B ... ... ... : ... .. 3 ... ... ... : ... .. . ... : ... .. C ... : ... .. . ... ... : ... .. 6 ... ... : ... .. 6 ... ... : ... .. 8 ... ...
ROW D2 : ... .. . ... ... ... : ... .. 0 ... ... ... : ... .. . ... : ... .. 6 ... : ... .. . ... ... : ... .. . ... ... : ... .. . ... ... : ... .. 5 ... ...
ROW D3 : ... .. A ... ... ... : A-4 00 3 P80 ... ... : ... .. . ... : ... .. 3 ... : ... .. . ... ... : ... .. . ... ... : ... .. . ... ... : ... .. . ... ...
ROW D4 : ... .. 8 ... ... ... : ... .. 4 ... ... ... : ... .. . ... : ... .. 2 ... : ... .. . ... ... : ... .. 5 ... ... : ... .. 5 ... ... : ... .. . ... ...
ROW D5 : F-2 00 D ... ... ... : G-4 00 8 ... ... ... : ... .. . ... : D-# 00 8 ... : ... .. . ... ... : ... .. . ... ... : ... .. . ... ... : ... .. . ... ...
ROW D6 : ... .. B ... ... ... : ... .. 3 ... ... ... : ... .. . ... : ... .. 6 ... : ... .. . ... ... : ... .. . ... ... : ... .. . ... ... : ... .. . ... ...
ROW D7 : ... .. . ... ... ... : ... .. 0 ... ... ... : ... .. . ... : ... .. 3 ... : ... .. . ... ... : ... .. 4 ... ... : ... .. 4 ... ... : ... .. . ... ...
ROW D8 : ... .. A ... ... ... : G-4 00 3 P80 ... ... : --- .. . ... : ... .. 1 ... : ... .. . ... ... : ... .. . ... ... : ... .. . ... ... : ... .. . ... ...
ROW D9 : ... .. 8 ... ... ... : ... .. 4 ... ... ... : ... .. . ... : ... .. . ... : ... .. . ... ... : ... .. . ... ... : ... .. . ... ... : ... .. . ... ...
ROW DA : G-2 00 D ... ... ... : D-4 00 8 ... ... ... : D-3 00 . ... : ... .. A ... : ... .. . ... ... : --- .. . ... ... : --- .. . P83 ... : ... .. . ... ...
ROW DB : ... .. B ... ... ... : ... .. 3 ... ... ... : ... .. . ... : ... .. 8 ... : ... .. . ... ... : ... .. . ... ... : ... .. . ... ... : ... .. . ... ...
ROW DC : ... .. . ... ... ... : ... .. 0 ... ... ... : ... .. . ... : ... .. 4 ... : ... .. . ... ... : ... .. . ... ... : ... .. . ... ... : ... .. . ... ...
ROW DD : ... .. A ... ... ... : D-4 00 3 P80 ... ... : ... .. . ... : ... .. 2 ... : ... .. . ... ... : ... .. . ... ... : ... .. . ... ... : ... .. . ... ...
ROW DE : ... .. 8 ... ... ... : ... .. 4 ... ... ... : ... .. . ... : ... .. 1 ... : ... .. . ... ... : ... .. . ... ... : ... .. . ... ... : ... .. . ... ...
ROW DF : A-2 00 D ... ... ... : A-3 00 8 ... ... ... : ... .. . ... : ... .. 8 ... : ... .. . ... ... : ... .. . ... ... : ... .. . ... ... : ... .. . ... ...
ROW E0 : ... .. B ... ... ... : ... .. 3 ... ... ... : ... .. . ... : ... .. 6 ... : ... .. . ... ... : ... .. . ... ... : ... .. . ... ... : ... .. . ... ...
ROW E1 : ... .. . ... ... ... : ... .. 0 ... ... ... : ... .. . ... : ... .. 3 ... : ... .. . ... ... : ... .. . ... ... : ... .. . ... ... : ... .. . ... ...
ROW E2 : ... .. A ... ... ... : A-3 00 3 P80 ... ... : --- .. . ... : ... .. 1 ... : ... .. . ... ... : ... .. . ... ... : ... .. . ... ... : ... .. . ... ...
ROW E3 : ... .. 8 ... ... ... : ... .. 4 ... ... ... : ... .. . ... : ... .. . ... : ... .. . ... ... : ... .. . ... ... : ... .. . ... ... : ... .. . ... ...
ROW E4 : D-3 00 D ... ... ... : G-3 00 8 ... ... ... : D-4 00 . ... : 1-# 00 D ... : ... .. . ... ... : A-3 01 7 ... ... : D-3 01 7 P81 ... : ... .. . P83 ...
ROW E5 : ... .. B ... ... ... : ... .. 3 ... ... ... : ... .. . ... : ... .. . ... : ... .. . ... ... : ... .. 6 ... ... : ... .. 6 ... ... : ... .. . P84 ...
ROW E6 : ... .. . ... ... ... : ... .. 0 ... ... ... : ... .. . ... : D-# 00 D ... : ... .. . ... ... : ... .. . ... ... : ... .. . ... ... : ... .. . P83 ...
ROW E7 : ... .. A ... ... ... : G-3 00 3 P80 ... ... : ... .. . ... : B-# 00 6 ... : ... .. . ... ... : --- .. . ... ... : --- .. . P83 ... : ... .. . P80 ...
ROW E8 : ... .. 8 ... ... ... : ... .. 4 ... ... ... : --- .. . ... : 7-# 00 1 ... : ... .. . ... ... : ... .. . ... ... : ... .. . ... ... : ... .. . P7D ...
ROW E9 : F-3 00 D ... ... ... : D-3 00 8 ... ... ... : D-4 00 . ... : D-# 00 8 ... : ... .. . ... ... : A-3 01 7 ... ... : D-3 01 7 P81 ... : ... .. . P7C ...
ROW EA : ... .. B ... ... ... : ... .. 3 ... ... ... : ... .. . ... : ... .. 6 ... : ... .. . ... ... : ... .. 6 ... ... : ... .. 6 ... ... : ... .. 2 P7D ...
ROW EB : ... .. . ... ... ... : ... .. 0 ... ... ... : ... .. . ... : ... .. 3 ... : ... .. . ... ... : ... .. . ... ... : ... .. . ... ... : ... .. . P80 ...
ROW EC : ... .. A ... ... ... : D-3 00 3 P80 ... ... : ... .. . ... : ... .. 1 ... : ... .. . ... ... : --- .. . ... ... : --- .. . P83 ... : ... .. 1 P83 ...
ROW ED : ... .. 8 ... ... ... : ... .. 4 ... ... ... : --- .. . ... : ... .. . ... : ... .. . ... ... : ... .. . ... ... : ... .. . ... ... : ... .. . P84 ...
ROW EE : G-3 00 D ... ... ... : A-2 00 8 ... ... ... : D-3 00 . ... : ... .. A ... : ... .. . ... ... : A-3 01 7 ... ... : D-3 01 7 P81 ... : D-4 01 A P80 ...
ROW EF : ... .. B ... ... ... : ... .. 3 ... ... ... : ... .. . ... : ... .. 8 ... : ... .. . ... ... : ... .. 6 ... ... : ... .. 6 ... ... : ... .. 8 ... ...
ROW F0 : ... .. . ... ... ... : ... .. 0 ... ... ... : ... .. . ... : ... .. 4 ... : ... .. . ... ... : ... .. . ... ... : ... .. . ... ... : ... .. 5 ... ...
ROW F1 : ... .. A ... ... ... : A-2 00 3 P80 ... ... : ... .. . ... : ... .. 2 ... : ... .. . ... ... : ... .. . ... ... : ... .. . ... ... : ... .. . ... ...
ROW F2 : ... .. 8 ... ... ... : ... .. 4 ... ... ... : --- .. . ... : ... .. 1 ... : ... .. . ... ... : ... .. 5 ... ... : ... .. 5 ... ... : ... .. . ... ...
ROW F3 : A-3 00 D ... ... ... : G-2 00 8 ... ... ... : D-3 00 . ... : ... .. 8 ... : ... .. . ... ... : ... .. . ... ... : ... .. . ... ... : ... .. . ... ...
ROW F4 : ... .. B ... ... ... : ... .. 3 ... ... ... : ... .. . ... : ... .. 6 ... : ... .. . ... ... : ... .. . ... ... : ... .. . ... ... : ... .. 2 ... ...
ROW F5 : ... .. . ... ... ... : ... .. 0 ... ... ... : ... .. . ... : ... .. 3 ... : ... .. . ... ... : ... .. 4 ... ... : ... .. 4 ... ... : ... .. . ... ...
ROW F6 : ... .. A ... ... ... : G-2 00 3 P80 ... ... : ... .. . ... : ... .. 1 ... : ... .. . ... ... : ... .. . ... ... : ... .. . ... ... : ... .. 1 ... ...
ROW F7 : ... .. 8 ... ... ... : ... .. 4 ... ... ... : --- .. . ... : ... .. . ... : ... .. . ... ... : ... .. . ... ... : ... .. . ... ... : ... .. . ... ...
ROW F8 : C-4 00 D ... ... ... : A-4 00 8 ... ... ... : D-3 00 . ... : 1-# 00 F ... : ... .. . ... ... : --- .. . ... ... : --- .. . P83 ... : ... .. A ... ...
ROW F9 : ... .. B ... ... ... : ... .. 3 ... ... ... : ... .. . ... : ... .. C ... : ... .. . ... ... : ... .. . ... ... : ... .. . ... ... : ... .. 8 ... ...
ROW FA : ... .. . ... ... ... : ... .. 0 ... ... ... : ... .. . ... : ... .. 6 ... : ... .. . ... ... : ... .. . ... ... : ... .. . ... ... : ... .. 5 ... ...
ROW FB : ... .. A ... ... ... : A-4 00 3 P80 ... ... : ... .. . ... : B-# 00 8 ... : ... .. . ... ... : ... .. . ... ... : ... .. . ... ... : ... .. . ... ...
ROW FC : ... .. 8 ... ... ... : ... .. 4 ... ... ... : ... .. . ... : ... .. . ... : ... .. . ... ... : ... .. . ... ... : ... .. . ... ... : ... .. . ... ...
ROW FD : A-3 00 D ... ... ... : G-4 00 8 ... ... ... : ... .. . ... : ... .. 6 ... : ... .. . ... ... : ... .. . ... ... : ... .. . ... ... : ... .. . ... ...
ROW FE : ... .. B ... ... ... : ... .. 3 ... ... ... : ... .. . ... : ... .. . ... : ... .. . ... ... : ... .. . ... ... : ... .. . ... ... : ... .. . ... ...
ROW FF : ... .. . ... ... ... : ... .. 0 ... ... ... : ... .. . ... : ... .. . ... : ... .. . ... ... : ... .. . ... ... : ... .. . ... ... : ... .. . ... ...

PATTERN 03
ROW 00 : ... .. A ... ... ... : G-4 00 3 P80 ... ... : --- .. . ... : ... .. 4 ... : ... .. . ... ... : ... .. . ... ... : ... .. . ... ... : ... .. . ... ...
ROW 01 : ... .. 8 ... ... ... : ... .. 4 ... ... ... : ... .. . ... : ... .. . ... : ... .. . ... ... : ... .. . ... ... : ... .. . ... ... : ... .. . ... ...
ROW 02 : F-3 00 D ... ... ... : D-4 00 8 ... ... ... : D-3 00 . ... : ... .. 2 ... : ... .. . ... ... : D-3 01 7 ... ... : G-2 01 7 P81 ... : ... .. . ... ...
ROW 03 : ... .. B ... ... ... : ... .. 3 ... ... ... : ... .. . ... : ... .. . ... : ... .. . ... ... : ... .. 6 ... ... : ... .. 6 ... ... : ... .. . ... ...
ROW 04 : ... .. . ... ... ... : ... .. 0 ... ... ... : ... .. . ... : ... .. . ... : ... .. . ... ... : ... .. . ... ... : ... .. . ... ... : ... .. . ... ...
ROW 05 : ... .. A ... ... ... : D-4 00 3 P80 ... ... : ... .. . ... : ... .. 0 ... : ... .. . ... ... : --- .. . P81 ... : --- .. . P7F ... : ... .. . ... ...
ROW 06 : ... .. 8 ... ... ... : ... .. 4 ... ... ... : ... .. . ... : ... .. . ... : ... .. . ... ... : ... .. . ... ... : ... .. . ... ... : ... .. . ... ...
ROW 07 : D-3 00 D ... ... ... : A-3 00 8 ... ... ... : ... .. . ... : ... .. . ... : ... .. . ... ... : D-3 01 7 P7F ... : G-2 01 7 P81 ... : ... .. . ... ...
ROW 08 : ... .. B ... ... ... : ... .. 3 ... ... ... : ... .. . ... : ... .. . ... : ... .. . ... ... : ... .. 6 ... ... : ... .. 6 ... ... : ... .. . ... ...
ROW 09 : ... .. . ... ... ... : ... .. 0 ... ... ... : ... .. . ... : ... .. . ... : ... .. . ... ... : ... .. . ... ... : ... .. . ... ... : ... .. . ... ...
ROW 0A : ... .. A ... ... ... : A-3 00 3 P80 ... ... : --- .. . ... : ... .. . ... : ... .. . ... ... : --- .. . P81 ... : --- .. . P7F ... : ... .. . ... ...
ROW 0B : ... .. 8 ... ... ... : ... .. 4 ... ... ... : ... .. . ... : ... .. . ... : ... .. . ... ... : ... .. . ... ... : ... .. . ... ... : ... .. . ... ...
ROW 0C : D-4 00 D ... ... ... : D-3 00 8 ... ... ... : G-4 00 . ... : 1-# 00 F ... : ... .. . ... ... : A-3 01 7 P7F ... : D-3 01 7 P81 ... : D#4 01 5 P7B ...
ROW 0D : ... .. B ... ... ... : ... .. 3 ... ... ... : ... .. . ... : ... .. C ... : ... .. . ... ... : ... .. 6 ... ... : ... .. 6 ... ... : ... .. . P80 ...
ROW 0E : ... .. . ... ... ... : ... .. 0 ... ... ... : ... .. . ... : ... .. 6 ... : ... .. . ... ... : ... .. . ... ... : ... .. . ... ... : ... .. . P7E ...
ROW 0F : ... .. A ... ... ... : D-3 00 3 P80 ... ... : ... .. . ... : B-# 00 8 ... : ... .. . ... ... : ... .. . ... ... : ... .. . ... ... : D-4 01 5 P84 ...
ROW 10 : ... .. 8 ... ... ... : ... .. 4 ... ... ... : --- .. . ... : ... .. . ... : ... .. . ... ... : ... .. 5 ... ... : ... .. 5 ... ... : ... .. . P7C ...
ROW 11 : B-3 00 D ... ... ... : A-3 00 8 ... ... ... : D-4 00 . ... : ... .. 6 ... : ... .. . ... ... : --- .. . ... ... : --- .. . P83 ... : C#4 01 5 P82 ...
ROW 12 : ... .. B ... ... ... : ... .. 3 ... ... ... : ... .. . ... : ... .. . ... : ... .. . ... ... : ... .. . ... ... : ... .. . ... ... : ... .. . P80 ...
ROW 13 : ... .. . ... ... ... : ... .. 0 ... ... ... : ... .. . ... : ... .. . ... : ... .. . ... ... : ... .. . ... ... : ... .. . ... ... : ... .. . P85 ...
ROW 14 : ... .. A ... ... ... : A-3 00 3 P80 ... ... : ... .. . ... : ... .. 4 ... : ... .. . ... ... : ... .. . ... ... : ... .. . ... ... : D-4 01 5 P80 ...
ROW 15 : ... .. 8 ... ... ... : ... .. 4 ... ... ... : --- .. . ... : ... .. . ... : ... .. . ... ... : ... .. . ... ... : ... .. . ... ... : D#4 01 5 P7A ...
ROW 16 : G-3 00 D ... ... ... : D-4 00 8 ... ... ... : D-3 00 . ... : 2-# 00 D ... : ... .. . ... ... : D-3 01 7 ... ... : G-2 01 7 P81 ... : ... .. . P80 ...
ROW 17 : ... .. B ... ... ... : ... .. 3 ... ... ... : ... .. . ... : ... .. . ... : ... .. . ... ... : ... .. 6 ... ... : ... .. 6 ... ... : ... .. 2 P7F ...
ROW 18 : ... .. . ... ... ... : ... .. 0 ... ... ... : ... .. . ... : E-# 00 D ... : ... .. . ... ... : ... .. . ... ... : ... .. . ... ... : D-4 01 2 P85 ...
ROW 19 : ... .. A ... ... ... : D-4 00 3 P80 ... ... : ... .. . ... : C-# 00 6 ... : ... .. . ... ... : --- .. . P81 ... : --- .. . P7F ... : ... .. 1 P7E ...
ROW 1A : ... .. 8 ... ... ... : ... .. 4 ... ... ... : --- .. . ... : 8-# 00 1 ... : ... .. . ... ... : ... .. . ... ... : ... .. . ... ... : C#4 01 1 P83 ...
ROW 1B : D-3 00 D ... ... ... : A-4 00 8 ... ... ... : G-2 00 . ... : 2-# 00 D ... : ... .. . ... ... : D-3 01 7 P7F ... : G-2 01 7 P81 ... : ... .. . P80 ...
ROW 1C : ... .. B ... ... ... : ... .. 3 ... ... ... : ... .. . ... : ... .. . ... : ... .. . ... ... : ... .. 6 ... ... : ... .. 6 ... ... : ... .. . P84 ...
ROW 1D : ... .. . ... ... ... : ... .. 0 ... ... ... : ... .. . ... : E-# 00 D ... : ... .. . ... ... : ... .. . ... ... : ... .. . ... ... : D-4 01 1 P7F ...
ROW 1E : ... .. A ... ... ... : A-4 00 3 P80 ... ... : ... .. . ... : C-# 00 6 ... : ... .. . ... ... : --- .. . P81 ... : --- .. . P7F ... : ... .. . P80 ...
ROW 1F : ... .. 8 ... ... ... : ... .. 4 ... ... ... : --- .. . ... : 8-# 00 1 ... : ... .. . ... ... : ... .. . ... ... : ... .. . ... ... : ... .. . ... ...
ROW 20 : ... .. F ... ... ... : D-4 00 A ... ... ... : D-2 00 . ... : 1-# 00 F ... : ... .. . Z00 ... : A-3 01 7 P7F ... : D-3 01 7 P81 ... : D-2 01 A ... ...
ROW 21 : ... .. E ... ... ... : ... .. 8 ... ... ... : ... .. . ... : ... .. C ... : ... .. . ... ... : ... .. 6 ... ... : ... .. 6 ... ... : ... .. 8 ... ...
ROW 22 : ... .. D ... ... ... : ... .. . ... ... ... : ... .. . ... : ... .. 6 ... : ... .. . ... ... : ... .. . ... ... : ... .. . ... ... : ... .. 5 ... ...
ROW 23 : ... .. A ... ... ... : ... .. . ... ... ... : ... .. . ... : ... .. 3 ... : ... .. . ... ... : ... .. . ... ... : ... .. . ... ... : ... .. . ... ...
ROW 24 : ... .. . ... ... ... : ... .. 6 ... ... ... : ... .. . ... : ... .. 2 ... : ... .. . ... ... : ... .. 5 ... ... : ... .. 5 ... ... : ... .. . ... ...
ROW 25 : ... .. . ... ... ... : A-3 00 A ... ... ... : ... .. . ... : D-# 00 8 ... : ... .. . ... ... : ... .. . ... ... : ... .. . ... ... : ... .. . ... ...
ROW 26 : ... .. . ... ... ... : ... .. 8 ... ... ... : ... .. . ... : ... .. 6 ... : ... .. . ... ... : ... .. . ... ... : ... .. . ... ... : ... .. . ... ...
ROW 27 : ... .. . ... ... ... : ... .. . ... ... ... : ... .. . ... : ... .. 3 ... : ... .. . ... ... : ... .. 4 ... ... : ... .. 4 ... ... : ... .. . ... ...
ROW 28 : ... .. . ... ... ... : ... .. . ... ... ... : --- .. . ... : ... .. 1 ... : ... .. . ... ... : ... .. . ... ... : ... .. . ... ... : ... .. . ... ...
ROW 29 : ... .. . ... ... ... : ... .. 6 ... ... ... : ... .. . ... : ... .. . ... : ... .. . ... ... : ... .. . ... ... : ... .. . ... ... : ... .. . ... ...
ROW 2A : ... .. . ... ... ... : G-3 00 A ... ... ... : D-2 00 . ... : ... .. A ... : ... .. . ... ... : --- .. . ... ... : --- .. . P83 ... : ... .. . ... ...
ROW 2B : ... .. . ... ... ... : ... .. 8 ... ... ... : ... .. . ... : ... .. 8 ... : ... .. . ... ... : ... .. . ... ... : ... .. . ... ... : ... .. . ... ...
ROW 2C : ... .. . ... ... ... : ... .. . ... ... ... : ... .. . ... : ... .. 4 ... : ... .. . ... ... : ... .. . ... ... : ... .. . ... ... : ... .. . ... ...
ROW 2D : ... .. . ... ... ... : ... .. . ... ... ... : ... .. . ... : ... .. 2 ... : ... .. . ... ... : ... .. . ... ... : ... .. . ... ... : ... .. . ... ...
ROW 2E : ... .. . ... ... ... : ... .. 6 ... ... ... : ... .. . ... : ... .. 1 ... : ... .. . ... ... : ... .. . ... ... : ... .. . ... ... : ... .. . ... ...
ROW 2F : ... .. . ... ... ... : D-3 00 A ... ... ... : ... .. . ... : ... .. 8 ... : ... .. . ... ... : ... .. . ... ... : ... .. . ... ... : ... .. . ... ...
ROW 30 : ... .. . ... ... ... : ... .. 8 ... ... ... : ... .. . ... : ... .. 6 ... : ... .. . ... ... : ... .. . ... ... : ... .. . ... ... : ... .. . ... ...
ROW 31 : ... .. . ... ... ... : ... .. . ... ... ... : ... .. . ... : ... .. 3 ... : ... .. . ... ... : ... .. . ... ... : ... .. . ... ... : ... .. . ... ...
ROW 32 : ... .. . ... ... ... : ... .. . ... ... ... : --- .. . ... : ... .. 1 ... : ... .. . ... ... : ... .. . ... ... : ... .. . ... ... : ... .. . ... ...
ROW 33 : ... .. . ... ... ... : ... .. 6 ... ... ... : ... .. . ... : ... .. . ... : ... .. . ... ... : ... .. . ... ... : ... .. . ... ... : ... .. . ... ...
ROW 34 : ... .. . ... ... ... : G-3 00 A ... ... ... : D-4 00 . ... : 1-# 00 D ... : ... .. . ... ... : A-3 01 7 ... ... : D-3 01 7 P81 ... : ... .. . ... ...
ROW 35 : ... .. . ... ... ... : ... .. 8 ... ... ... : ... .. . ... : ... .. . ... : ... .. . ... ... : ... .. 6 ... ... : ... .. 6 ... ... : ... .. . ... ...
ROW 36 : ... .. . ... ... ... : ... .. . ... ... ... : ... .. . ... : D-# 00 D ... : ... .. . ... ... : ... .. . ... ... : ... .. . ... ... : ... .. . ... ...
ROW 37 : ... .. . ... ... ... : ... .. . ... ... ... : ... .. . ... : B-# 00 6 ... : ... .. . ... ... : --- .. . ... ... : --- .. . P83 ... : ... .. . ... ...
ROW 38 : ... .. . ... ... ... : ... .. 6 ... ... ... : --- .. . ... : 7-# 00 1 ... : ... .. . ... ... : ... .. . ... ... : ... .. . ... ... : ... .. . ... ...
ROW 39 : ... .. . ... ... ... : A-3 00 A ... ... ... : D-4 00 . ... : D-# 00 8 ... : ... .. . ... ... : A-3 01 7 ... ... : D-3 01 7 P81 ... : ... .. . P84 ...
ROW 3A : ... .. . ... ... ... : ... .. 8 ... ... ... : ... .. . ... : ... .. 6 ... : ... .. . ... ... : ... .. 6 ... ... : ... .. 6 ... ... : ... .. . P86 ...
ROW 3B : ... .. . ... ... ... : ... .. . ... ... ... : ... .. . ... : ... .. 3 ... : ... .. . ... ... : ... .. . ... ... : ... .. . ... ... : ... .. . P85 ...
ROW 3C : ... .. . ... ... ... : ... .. . ... ... ... : ... .. . ... : ... .. 1 ... : ... .. . ... ... : --- .. . ... ... : --- .. . P83 ... : ... .. . P82 ...
ROW 3D : ... .. . ... ... ... : ... .. 6 ... ... ... : --- .. . ... : ... .. . ... : ... .. . ... ... : ... .. . ... ... : ... .. . ... ... : ... .. . P7E ...
ROW 3E : ... .. . ... ... ... : D-4 00 A ... ... ... : D-3 00 . ... : ... .. A ... : ... .. . ... ... : A-3 01 7 ... ... : D-3 01 7 P81 ... : ... .. . P7B ...
ROW 3F : ... .. . ... ... ... : ... .. 8 ... ... ... : ... .. . ... : ... .. 8 ... : ... .. . ... ... : ... .. 6 ... ... : ... .. 6 ... ... : ... .. . P7A ...
ROW 40 : ... .. . ... ... ... : ... .. . ... ... ... : ... .. . ... : ... .. 4 ... : ... .. . ... ... : ... .. . ... ... : ... .. . ... ... : ... .. . P7C ...
ROW 41 : ... .. . ... ... ... : ... .. . ... ... ... : ... .. . ... : ... .. 2 ... : ... .. . ... ... : ... .. . ... ... : ... .. . ... ... : ... .. . P80 ...
ROW 42 : ... .. . ... ... ... : ... .. 6 ... ... ... : --- .. . ... : ... .. 1 ... : ... .. . ... ... : ... .. 5 ... ... : ... .. 5 ... ... : ... .. . P83 ...
ROW 43 : ... .. . ... ... ... : A-3 00 A ... ... ... : D-3 00 . ... : ... .. 8 ... : ... .. . ... ... : ... .. . ... ... : ... .. . ... ... : ... .. . P86 ...
ROW 44 : ... .. . ... ... ... : ... .. 8 ... ... ... : ... .. . ... : ... .. 6 ... : ... .. . ... ... : ... .. . ... ... : ... .. . ... ... : ... .. 2 ... ...
ROW 45 : ... .. . ... ... ... : ... .. . ... ... ... : ... .. . ... : ... .. 3 ... : ... .. . ... ... : ... .. 4 ... ... : ... .. 4 ... ... : ... .. . P82 ...
ROW 46 : ... .. . ... ... ... : ... .. . ... ... ... : ... .. . ... : ... .. 1 ... : ... .. . ... ... : ... .. . ... ... : ... .. . ... ... : ... .. 1 P7F ...
ROW 47 : ... .. . ... ... ... : ... .. 6 ... ... ... : --- .. . ... : ... .. . ... : ... .. . ... ... : ... .. . ... ... : ... .. . ... ... : ... .. . P7B ...
ROW 48 : ... .. . ... ... ... : D-4 00 A ... ... ... : D-3 00 . ... : 1-# 00 F ... : ... .. . ... ... : --- .. . ... ... : --- .. . P83 ... : D-1 01 A P80 ...
ROW 49 : ... .. . ... ... ... : ... .. 8 ... ... ... : ... .. . ... : ... .. C ... : ... .. . ... ... : ... .. . ... ... : ... .. . ... ... : ... .. 8 ... ...
ROW 4A : ... .. . ... ... ... : ... .. . ... ... ... : ... .. . ... : ... .. 6 ... : ... .. . ... ... : ... .. . ... ... : ... .. . ... ... : ... .. 5 ... ...
ROW 4B : ... .. . P84 ... ... : ... .. . ... ... ... : ... .. . ... : ... .. 3 ... : ... .. . ... ... : ... .. . ... ... : ... .. . ... ... : ... .. . ... ...
ROW 4C : ... .. . P86 ... ... : ... .. 6 ... ... ... : ... .. . ... : ... .. 2 ... : ... .. . ... ... : ... .. . ... ... : ... .. . ... ... : ... .. 2 ... ...
ROW 4D : ... .. . P85 ... ... : A-3 00 A ... ... ... : ... .. . ... : D-# 00 8 ... : ... .. . ... ... : ... .. . ... ... : ... .. . ... ... : ... .. A ... ...
ROW 4E : ... .. . P82 ... ... : ... .. 8 ... ... ... : ... .. . ... : ... .. 6 ... : ... .. . ... ... : ... .. . ... ... : ... .. . ... ... : ... .. 8 ... ...
ROW 4F : ... .. . P7E ... ... : ... .. . ... ... ... : ... .. . ... : ... .. 3 ... : ... .. . ... ... : ... .. . ... ... : ... .. . ... ... : ... .. 5 ... ...
ROW 50 : ... .. . P7B ... ... : ... .. . ... ... ... : --- .. . ... : ... .. 1 ... : ... .. . ... ... : ... .. . ... ... : ... .. . ... ... : ... .. . ... ...
ROW 51 : ... .. . P7A ... ... : ... .. 6 ... ... ... : ... .. . ... : ... .. . ... : ... .. . ... ... : ... .. . ... ... : ... .. . ... ... : ... .. 2 ... ...
ROW 52 : ... .. . P7C ... ... : G-3 00 A ... ... ... : D-3 00 . ... : ... .. A ... : ... .. . ... ... : A-3 01 7 ... ... : D-3 01 7 P81 ... : D-0 01 A ... ...
ROW 53 : ... .. . P80 ... ... : ... .. 8 ... ... ... : ... .. . ... : ... .. 8 ... : ... .. . ... ... : ... .. 6 ... ... : ... .. 6 ... ... : ... .. 8 ... ...
ROW 54 : ... .. . P83 ... ... : ... .. . ... ... ... : ... .. . ... : ... .. 4 ... : ... .. . ... ... : ... .. . ... ... : ... .. . ... ... : ... .. 5 ... ...
ROW 55 : ... .. . P86 ... ... : ... .. . ... ... ... : ... .. . ... : ... .. 2 ... : ... .. . ... ... : --- .. . ... ... : --- .. . P83 ... : ... .. . ... ...
ROW 56 : ... .. . ... ... ... : ... .. 6 ... ... ... : ... .. . ... : ... .. 1 ... : ... .. . ... ... : ... .. . ... ... : ... .. . ... ... : ... .. 2 ... ...
ROW 57 : ... .. . P82 ... ... : D-3 00 A ... ... ... : ... .. . ... : ... .. 8 ... : ... .. . ... ... : A-3 01 7 ... ... : D-3 01 7 P81 ... : ... .. A ... ...
ROW 58 : ... .. . P7F ... ... : ... .. 8 ... ... ... : ... .. . ... : ... .. 6 ... : ... .. . ... ... : ... .. 6 ... ... : ... .. 6 ... ... : ... .. 8 ... ...
ROW 59 : ... .. . P7B ... ... : ... .. . ... ... ... : ... .. . ... : ... .. 3 ... : ... .. . ... ... : ... .. . ... ... : ... .. . ... ... : ... .. 5 ... ...
ROW 5A : ... .. . P7A ... ... : ... .. . ... ... ... : --- .. . ... : ... .. 1 ... : ... .. . ... ... : --- .. . ... ... : --- .. . P83 ... : ... .. . ... ...
ROW 5B : ... .. . P7C ... ... : ... .. 6 ... ... ... : ... .. . ... : ... .. . ... : ... .. . ... ... : ... .. . ... ... : ... .. . ... ... : ... .. 2 ... ...
ROW 5C : ... .. . P80 ... ... : G-3 00 A ... ... ... : D-4 00 . ... : 1-# 00 D ... : ... .. . ... ... : A-3 01 7 ... ... : D-3 01 7 P81 ... : D-1 01 A ... ...
ROW 5D : ... .. . P83 ... ... : ... .. 8 ... ... ... : ... .. . ... : ... .. . ... : ... .. . ... ... : ... .. 6 ... ... : ... .. 6 ... ... : ... .. 8 ... ...
ROW 5E : ... .. . P86 ... ... : ... .. . ... ... ... : ... .. . ... : D-# 00 D ... : ... .. . ... ... : ... .. . ... ... : ... .. . ... ... : ... .. 5 ... ...
ROW 5F : ... .. . ... ... ... : ... .. . ... ... ... : ... .. . ... : B-# 00 6 ... : ... .. . ... ... : ... .. . ... ... : ... .. . ... ... : ... .. . ... ...
ROW 60 : ... .. . P83 ... ... : ... .. 6 ... ... ... : --- .. . ... : 7-# 00 1 ... : ... .. . ... ... : ... .. 5 ... ... : ... .. 5 ... ... : ... .. 2 ... ...
ROW 61 : ... .. . P80 ... ... : A-3 00 A ... ... ... : D-4 00 . ... : D-# 00 8 ... : ... .. . ... ... : --- .. . ... ... : --- .. . P83 ... : ... .. A ... ...
ROW 62 : ... .. . P7C ... ... : ... .. 8 ... ... ... : ... .. . ... : ... .. 6 ... : ... .. . ... ... : ... .. . ... ... : ... .. . ... ... : ... .. 8 ... ...
ROW 63 : ... .. . P7A ... ... : ... .. . ... ... ... : ... .. . ... : ... .. 3 ... : ... .. . ... ... : ... .. . ... ... : ... .. . ... ... : ... .. 5 ... ...
ROW 64 : ... .. . P7B ... ... : ... .. . ... ... ... : ... .. . ... : ... .. 1 ... : ... .. . ... ... : ... .. . ... ... : ... .. . ... ... : ... .. . ... ...
ROW 65 : ... .. . P7F ... ... : ... .. 6 ... ... ... : --- .. . ... : ... .. . ... : ... .. . ... ... : ... .. . ... ... : ... .. . ... ... : ... .. 2 ... ...
ROW 66 : ... .. . P82 ... ... : D-4 00 A ... ... ... : D-3 00 . ... : ... .. A ... : ... .. . ... ... : D-3 01 7 ... ... : G-2 01 7 P81 ... : D-0 01 A ... ...
ROW 67 : ... .. . P86 ... ... : ... .. 8 ... ... ... : ... .. . ... : ... .. 8 ... : ... .. . ... ... : ... .. 6 ... ... : ... .. 6 ... ... : ... .. 8 ... ...
ROW 68 : ... .. . ... ... ... : ... .. . ... ... ... : ... .. . ... : ... .. 4 ... : ... .. . ... ... : ... .. . ... ... : ... .. . ... ... : ... .. 5 ... ...
ROW 69 : ... .. . P83 ... ... : ... .. . ... ... ... : ... .. . ... : ... .. 2 ... : ... .. . ... ... : ... .. . ... ... : ... .. . ... ... : ... .. . ... ...
ROW 6A : ... .. . P80 ... ... : ... .. 6 ... ... ... : --- .. . ... : ... .. 1 ... : ... .. . ... ... : ... .. 5 ... ... : ... .. 5 ... ... : ... .. 2 ... ...
ROW 6B : ... .. . P7C ... ... : A-3 00 A ... ... ... : D-3 00 . ... : ... .. 8 ... : ... .. . ... ... : --- .. . P81 ... : --- .. . P7F ... : ... .. A ... ...
ROW 6C : ... .. 2 P7A ... ... : ... .. 8 ... ... ... : ... .. . ... : ... .. 6 ... : ... .. . ... ... : ... .. . ... ... : ... .. . ... ... : ... .. 8 ... ...
ROW 6D : ... .. . P7B ... ... : ... .. . ... ... ... : ... .. . ... : ... .. 3 ... : ... .. . ... ... : ... .. . ... ... : ... .. . ... ... : ... .. 5 ... ...
ROW 6E : ... .. . P7E ... ... : ... .. . ... ... ... : ... .. . ... : ... .. 1 ... : ... .. . ... ... : ... .. . ... ... : ... .. . ... ... : ... .. . ... ...
ROW 6F : ... .. 1 P82 ... ... : ... .. 6 ... ... ... : --- .. . ... : ... .. . ... : ... .. . ... ... : ... .. . ... ... : ... .. . ... ... : ... .. 2 ... ...
ROW 70 : F-3 00 F P80 ... ... : D-4 00 A ... ... ... : D-2 00 . ... : 1-# 00 F ... : ... .. . ... ... : A-3 01 7 P7F ... : D-3 01 7 P81 ... : F-2 01 A ... ...
ROW 71 : ... .. E ... ... ... : ... .. 8 ... ... ... : ... .. . ... : ... .. C ... : ... .. . ... ... : ... .. 6 ... ... : ... .. 6 ... ... : ... .. 8 ... ...
ROW 72 : ... .. D ... ... ... : ... .. . ... ... ... : ... .. . ... : ... .. 6 ... : ... .. . ... ... : ... .. . ... ... : ... .. . ... ... : ... .. 5 ... ...
ROW 73 : ... .. A ... ... ... : ... .. . ... ... ... : ... .. . ... : ... .. 3 ... : ... .. . ... ... : ... .. . ... ... : ... .. . ... ... : ... .. . ... ...
ROW 74 : ... .. . ... ... ... : ... .. 6 ... ... ... : ... .. . ... : ... .. 2 ... : ... .. . ... ... : ... .. 5 ... ... : ... .. 5 ... ... : ... .. . ... ...
ROW 75 : ... .. . ... ... ... : A-3 00 A ... ... ... : ... .. . ... : D-# 00 8 ... : ... .. . ... ... : ... .. . ... ... : ... .. . ... ... : ... .. . ... ...
ROW 76 : ... .. . ... ... ... : ... .. 8 ... ... ... : ... .. . ... : ... .. 6 ... : ... .. . ... ... : ... .. . ... ... : ... .. . ... ... : ... .. . ... ...
ROW 77 : ... .. . ... ... ... : ... .. . ... ... ... : ... .. . ... : ... .. 3 ... : ... .. . ... ... : ... .. 4 ... ... : ... .. 4 ... ... : ... .. . ... ...
ROW 78 : ... .. . ... ... ... : ... .. . ... ... ... : --- .. . ... : ... .. 1 ... : ... .. . ... ... : ... .. . ... ... : ... .. . ... ... : ... .. . ... ...
ROW 79 : ... .. . ... ... ... : ... .. 6 ... ... ... : ... .. . ... : ... .. . ... : ... .. . ... ... : ... .. . ... ... : ... .. . ... ... : ... .. . ... ...
ROW 7A : ... .. . ... ... ... : G-3 00 A ... ... ... : D-2 00 . ... : ... .. A ... : ... .. . ... ... : --- .. . ... ... : --- .. . P83 ... : ... .. . ... ...
ROW 7B : ... .. . ... ... ... : ... .. 8 ... ... ... : ... .. . ... : ... .. 8 ... : ... .. . ... ... : ... .. . ... ... : ... .. . ... ... : ... .. . ... ...
ROW 7C : ... .. . ... ... ... : ... .. . ... ... ... : ... .. . ... : ... .. 4 ... : ... .. . ... ... : ... .. . ... ... : ... .. . ... ... : ... .. . ... ...
ROW 7D : ... .. . ... ... ... : ... .. . ... ... ... : ... .. . ... : ... .. 2 ... : ... .. . ... ... : ... .. . ... ... : ... .. . ... ... : ... .. . ... ...
ROW 7E : ... .. . ... ... ... : ... .. 6 ... ... ... : ... .. . ... : ... .. 1 ... : ... .. . ... ... : ... .. . ... ... : ... .. . ... ... : ... .. . ... ...
ROW 7F : ... .. . ... ... ... : D-3 00 A ... ... ... : ... .. . ... : ... .. 8 ... : ... .. . ... ... : ... .. . ... ... : ... .. . ... ... : ... .. . ... ...
ROW 80 : ... .. . ... ... ... : ... .. 8 ... ... ... : ... .. . ... : ... .. 6 ... : ... .. . ... ... : ... .. . ... ... : ... .. . ... ... : ... .. . ... ...
ROW 81 : ... .. . ... ... ... : ... .. . ... ... ... : ... .. . ... : ... .. 3 ... : ... .. . ... ... : ... .. . ... ... : ... .. . ... ... : ... .. . ... ...
ROW 82 : ... .. . ... ... ... : ... .. . ... ... ... : --- .. . ... : ... .. 1 ... : ... .. . ... ... : ... .. . ... ... : ... .. . ... ... : ... .. . ... ...
ROW 83 : ... .. . ... ... ... : ... .. 6 ... ... ... : ... .. . ... : ... .. . ... : ... .. . ... ... : ... .. . ... ... : ... .. . ... ... : ... .. . ... ...
ROW 84 : ... .. . ... ... ... : G-3 00 A ... ... ... : D-4 00 . ... : 1-# 00 D ... : ... .. . ... ... : A-3 01 7 ... ... : D-3 01 7 P81 ... : ... .. . ... ...
ROW 85 : ... .. . ... ... ... : ... .. 8 ... ... ... : ... .. . ... : ... .. . ... : ... .. . ... ... : ... .. 6 ... ... : ... .. 6 ... ... : ... .. . ... ...
ROW 86 : ... .. . ... ... ... : ... .. . ... ... ... : ... .. . ... : D-# 00 D ... : ... .. . ... ... : ... .. . ... ... : ... .. . ... ... : ... .. . ... ...
ROW 87 : ... .. . ... ... ... : ... .. . ... ... ... : ... .. . ... : B-# 00 6 ... : ... .. . ... ... : --- .. . ... ... : --- .. . P83 ... : ... .. . ... ...
ROW 88 : ... .. . ... ... ... : ... .. 6 ... ... ... : --- .. . ... : 7-# 00 1 ... : ... .. . ... ... : ... .. . ... ... : ... .. . ... ... : ... .. . ... ...
ROW 89 : ... .. . P84 ... ... : A-3 00 A ... ... ... : D-4 00 . ... : D-# 00 8 ... : ... .. . ... ... : A-3 01 7 ... ... : D-3 01 7 P81 ... : ... .. . P84 ...
ROW 8A : ... .. . P86 ... ... : ... .. 8 ... ... ... : ... .. . ... : ... .. 6 ... : ... .. . ... ... : ... .. 6 ... ... : ... .. 6 ... ... : ... .. . P86 ...
ROW 8B : ... .. . P85 ... ... : ... .. . ... ... ... : ... .. . ... : ... .. 3 ... : ... .. . ... ... : ... .. . ... ... : ... .. . ... ... : ... .. . P85 ...
ROW 8C : ... .. . P82 ... ... : ... .. . ... ... ... : ... .. . ... : ... .. 1 ... : ... .. . ... ... : --- .. . ... ... : --- .. . P83 ... : ... .. . P82 ...
ROW 8D : ... .. . P7E ... ... : ... .. 6 ... ... ... : --- .. . ... : ... .. . ... : ... .. . ... ... : ... .. . ... ... : ... .. . ... ... : ... .. . P7E ...
ROW 8E : ... .. . P7B ... ... : D-4 00 A ... ... ... : D-3 00 . ... : ... .. A ... : ... .. . ... ... : A-3 01 7 ... ... : D-3 01 7 P81 ... : ... .. . P7B ...
ROW 8F : ... .. . P7A ... ... : ... .. 8 ... ... ... : ... .. . ... : ... .. 8 ... : ... .. . ... ... : ... .. 6 ... ... : ... .. 6 ... ... : ... .. 2 P7A ...
ROW 90 : ... .. . P7C ... ... : ... .. . ... ... ... : ... .. . ... : ... .. 4 ... : ... .. . ... ... : ... .. . ... ... : ... .. . ... ... : ... .. . P7C ...
ROW 91 : ... .. . P80 ... ... : ... .. . ... ... ... : ... .. . ... : ... .. 2 ... : ... .. . ... ... : ... .. . ... ... : ... .. . ... ... : ... .. 1 P80 ...
ROW 92 : ... .. . P83 ... ... : ... .. 6 ... ... ... : --- .. . ... : ... .. 1 ... : ... .. . ... ... : ... .. 5 ... ... : ... .. 5 ... ... : ... .. . P83 ...
ROW 93 : ... .. . P86 ... ... : A-3 00 A ... ... ... : D-3 00 . ... : ... .. 8 ... : ... .. . ... ... : ... .. . ... ... : ... .. . ... ... : ... .. . P86 ...
ROW 94 : ... .. 2 ... ... ... : ... .. 8 ... ... ... : ... .. . ... : ... .. 6 ... : ... .. . ... ... : ... .. . ... ... : ... .. . ... ... : ... .. . ... ...
ROW 95 : ... .. . P82 ... ... : ... .. . ... ... ... : ... .. . ... : ... .. 3 ... : ... .. . ... ... : ... .. 4 ... ... : ... .. 4 ... ... : ... .. . P82 ...
ROW 96 : ... .. . P7F ... ... : ... .. . ... ... ... : ... .. . ... : ... .. 1 ... : ... .. . ... ... : ... .. . ... ... : ... .. . ... ... : ... .. . P7F ...
ROW 97 : ... .. 1 P7B ... ... : ... .. 6 ... ... ... : --- .. . ... : ... .. . ... : ... .. . ... ... : ... .. . ... ... : ... .. . ... ... : ... .. . P7B ...
ROW 98 : E-3 00 F P80 ... ... : D-4 00 A ... ... ... : D-3 00 . ... : 1-# 00 F ... : ... .. . ... ... : --- .. . ... ... : --- .. . P83 ... : E-2 01 A P80 ...
ROW 99 : ... .. E ... ... ... : ... .. 8 ... ... ... : ... .. . ... : ... .. C ... : ... .. . ... ... : ... .. . ... ... : ... .. . ... ... : ... .. 8 ... ...
ROW 9A : ... .. D ... ... ... : ... .. . ... ... ... : ... .. . ... : ... .. 6 ... : ... .. . ... ... : ... .. . ... ... : ... .. . ... ... : ... .. 5 ... ...
ROW 9B : ... .. A ... ... ... : ... .. . ... ... ... : ... .. . ... : ... .. 3 ... : ... .. . ... ... : ... .. . ... ... : ... .. . ... ... : ... .. . ... ...
ROW 9C : ... .. . ... ... ... : ... .. 6 ... ... ... : ... .. . ... : ... .. 2 ... : ... .. . ... ... : ... .. . ... ... : ... .. . ... ... : ... .. . ... ...
ROW 9D : ... .. . ... ... ... : A-3 00 A ... ... ... : ... .. . ... : D-# 00 8 ... : ... .. . ... ... : ... .. . ... ... : ... .. . ... ... : ... .. . ... ...
ROW 9E : ... .. . ... ... ... : ... .. 8 ... ... ... : ... .. . ... : ... .. 6 ... : ... .. . ... ... : ... .. . ... ... : ... .. . ... ... : ... .. . ... ...
ROW 9F : ... .. . ... ... ... : ... .. . ... ... ... : ... .. . ... : ... .. 3 ... : ... .. . ... ... : ... .. . ... ... : ... .. . ... ... : ... .. . ... ...
ROW A0 : ... .. . ... ... ... : ... .. . ... ... ... : --- .. . ... : ... .. 1 ... : ... .. . ... ... : ... .. . ... ... : ... .. . ... ... : ... .. . ... ...
ROW A1 : ... .. . ... ... ... : ... .. 6 ... ... ... : ... .. . ... : ... .. . ... : ... .. . ... ... : ... .. . ... ... : ... .. . ... ... : ... .. . ... ...
ROW A2 : ... .. . ... ... ... : G-3 00 A ... ... ... : D-3 00 . ... : ... .. A ... : ... .. . ... ... : D-3 01 7 ... ... : G-2 01 7 P81 ... : ... .. . ... ...
ROW A3 : ... .. . ... ... ... : ... .. 8 ... ... ... : ... .. . ... : ... .. 8 ... : ... .. . ... ... : ... .. 6 ... ... : ... .. 6 ... ... : ... .. . ... ...
ROW A4 : ... .. . ... ... ... : ... .. . ... ... ... : ... .. . ... : ... .. 4 ... : ... .. . ... ... : ... .. . ... ... : ... .. . ... ... : ... .. . ... ...
ROW A5 : ... .. . ... ... ... : ... .. . ... ... ... : ... .. . ... : ... .. 2 ... : ... .. . ... ... : --- .. . P81 ... : --- .. . P7F ... : ... .. . ... ...
ROW A6 : ... .. . ... ... ... : ... .. 6 ... ... ... : ... .. . ... : ... .. 1 ... : ... .. . ... ... : ... .. . ... ... : ... .. . ... ... : ... .. . ... ...
ROW A7 : ... .. . ... ... ... : D-3 00 A ... ... ... : ... .. . ... : ... .. 8 ... : ... .. . ... ... : D-3 01 7 P7F ... : G-2 01 7 P81 ... : ... .. . ... ...
ROW A8 : ... .. . ... ... ... : ... .. 8 ... ... ... : ... .. . ... : ... .. 6 ... : ... .. . ... ... : ... .. 6 ... ... : ... .. 6 ... ... : ... .. . ... ...
ROW A9 : ... .. . ... ... ... : ... .. . ... ... ... : ... .. . ... : ... .. 3 ... : ... .. . ... ... : ... .. . ... ... : ... .. . ... ... : ... .. . ... ...
ROW AA : ... .. . ... ... ... : ... .. . ... ... ... : --- .. . ... : ... .. 1 ... : ... .. . ... ... : --- .. . P81 ... : --- .. . P7F ... : ... .. . ... ...
ROW AB : ... .. . ... ... ... : ... .. 6 ... ... ... : ... .. . ... : ... .. . ... : ... .. . ... ... : ... .. . ... ... : ... .. . ... ... : ... .. . ... ...
ROW AC : ... .. . ... ... ... : G-3 00 A ... ... ... : D-4 00 . ... : 1-# 00 D ... : ... .. . ... ... : A-3 01 7 P7F ... : D-3 01 7 P81 ... : ... .. . ... ...
ROW AD : ... .. . ... ... ... : ... .. 8 ... ... ... : ... .. . ... : ... .. . ... : ... .. . ... ... : ... .. 6 ... ... : ... .. 6 ... ... : ... .. . ... ...
ROW AE : ... .. . ... ... ... : ... .. . ... ... ... : ... .. . ... : D-# 00 D ... : ... .. . ... ... : ... .. . ... ... : ... .. . ... ... : ... .. . ... ...
ROW AF : ... .. . ... ... ... : ... .. . ... ... ... : ... .. . ... : B-# 00 6 ... : ... .. . ... ... : ... .. . ... ... : ... .. . ... ... : ... .. . ... ...
ROW B0 : ... .. . ... ... ... : ... .. 6 ... ... ... : --- .. . ... : 7-# 00 1 ... : ... .. . ... ... : ... .. 5 ... ... : ... .. 5 ... ... : ... .. . ... ...
ROW B1 : ... .. . ... ... ... : A-3 00 A ... ... ... : D-4 00 . ... : D-# 00 8 ... : ... .. . ... ... : --- .. . ... ... : --- .. . P83 ... : ... .. . ... ...
ROW B2 : ... .. . ... ... ... : ... .. 8 ... ... ... : ... .. . ... : ... .. 6 ... : ... .. . ... ... : ... .. . ... ... : ... .. . ... ... : ... .. . ... ...
ROW B3 : ... .. . ... ... ... : ... .. . ... ... ... : ... .. . ... : ... .. 3 ... : ... .. . ... ... : ... .. . ... ... : ... .. . ... ... : ... .. . ... ...
ROW B4 : ... .. . ... ... ... : ... .. . ... ... ... : ... .. . ... : ... .. 1 ... : ... .. . ... ... : ... .. . ... ... : ... .. . ... ... : ... .. . ... ...
ROW B5 : ... .. . ... ... ... : ... .. 6 ... ... ... : --- .. . ... : ... .. . ... : ... .. . ... ... : ... .. . ... ... : ... .. . ... ... : ... .. . ... ...
ROW B6 : ... .. . ... ... ... : D-4 00 A ... ... ... : D-3 00 . ... : ... .. A ... : ... .. . ... ... : D-3 01 7 ... ... : G-2 01 7 P81 ... : ... .. . ... ...
ROW B7 : ... .. . ... ... ... : ... .. 8 ... ... ... : ... .. . ... : ... .. 8 ... : ... .. . ... ... : ... .. 6 ... ... : ... .. 6 ... ... : ... .. 2 ... ...
ROW B8 : ... .. . ... ... ... : ... .. . ... ... ... : ... .. . ... : ... .. 4 ... : ... .. . ... ... : ... .. . ... ... : ... .. . ... ... : ... .. . ... ...
ROW B9 : ... .. . ... ... ... : ... .. . ... ... ... : ... .. . ... : ... .. 2 ... : ... .. . ... ... : --- .. . P81 ... : --- .. . P7F ... : ... .. 1 ... ...
ROW BA : ... .. . ... ... ... : ... .. 6 ... ... ... : --- .. . ... : ... .. 1 ... : ... .. . ... ... : ... .. . ... ... : ... .. . ... ... : ... .. . ... ...
ROW BB : ... .. . ... ... ... : A-3 00 A ... ... ... : D-3 00 . ... : ... .. 8 ... : ... .. . ... ... : D-3 01 7 P7F ... : G-2 01 7 P81 ... : ... .. . ... ...
ROW BC : ... .. 2 ... ... ... : ... .. 8 ... ... ... : ... .. . ... : ... .. 6 ... : ... .. . ... ... : ... .. 6 ... ... : ... .. 6 ... ... : ... .. . ... ...
ROW BD : ... .. . ... ... ... : ... .. . ... ... ... : ... .. . ... : ... .. 3 ... : ... .. . ... ... : ... .. . ... ... : ... .. . ... ... : ... .. . ... ...
ROW BE : ... .. . ... ... ... : ... .. . ... ... ... : ... .. . ... : ... .. 1 ... : ... .. . ... ... : --- .. . P81 ... : --- .. . P7F ... : ... .. . ... ...
ROW BF : ... .. 1 ... ... ... : ... .. 6 ... ... ... : --- .. . ... : ... .. . ... : ... .. . ... ... : ... .. . ... ... : ... .. . ... ... : ... .. . ... ...
ROW C0 : G-3 00 F ... ... ... : D-4 00 8 ... ... ... : D-2 00 . ... : 1-# 00 F ... : ... .. . ... ... : A-3 01 7 P7F ... : D-3 01 7 P81 ... : G-2 01 A ... ...
ROW C1 : ... .. E ... ... ... : ... .. 3 ... ... ... : ... .. . ... : ... .. C ... : ... .. . ... ... : ... .. 6 ... ... : ... .. 6 ... ... : ... .. 8 ... ...
ROW C2 : ... .. D ... ... ... : ... .. 0 ... ... ... : ... .. . ... : ... .. 6 ... : ... .. . ... ... : ... .. . ... ... : ... .. . ... ... : ... .. 5 ... ...
ROW C3 : ... .. A ... ... ... : D-4 00 3 P80 ... ... : ... .. . ... : ... .. 3 ... : ... .. . ... ... : ... .. . ... ... : ... .. . ... ... : ... .. . ... ...
ROW C4 : ... .. . ... ... ... : ... .. 4 ... ... ... : ... .. . ... : ... .. 2 ... : ... .. . ... ... : ... .. 5 ... ... : ... .. 5 ... ... : ... .. . ... ...
ROW C5 : ... .. . ... ... ... : A-3 00 8 ... ... ... : ... .. . ... : D-# 00 8 ... : ... .. . ... ... : ... .. . ... ... : ... .. . ... ... : ... .. . ... ...
ROW C6 : ... .. . ... ... ... : ... .. 3 ... ... ... : ... .. . ... : ... .. 6 ... : ... .. . ... ... : ... .. . ... ... : ... .. . ... ... : ... .. . ... ...
ROW C7 : ... .. . ... ... ... : ... .. 0 ... ... ... : ... .. . ... : ... .. 3 ... : ... .. . ... ... : ... .. 4 ... ... : ... .. 4 ... ... : ... .. . ... ...
ROW C8 : ... .. . ... ... ... : A-3 00 3 P80 ... ... : --- .. . ... : ... .. 1 ... : ... .. . ... ... : ... .. . ... ... : ... .. . ... ... : ... .. . ... ...
ROW C9 : ... .. . ... ... ... : ... .. 4 ... ... ... : ... .. . ... : ... .. . ... : ... .. . ... ... : ... .. . ... ... : ... .. . ... ... : ... .. . ... ...
ROW CA : ... .. . ... ... ... : G-3 00 8 ... ... ... : D-2 00 . ... : ... .. A ... : ... .. . ... ... : --- .. . ... ... : --- .. . P83 ... : ... .. . ... ...
ROW CB : ... .. . ... ... ... : ... .. 3 ... ... ... : ... .. . ... : ... .. 8 ... : ... .. . ... ... : ... .. . ... ... : ... .. . ... ... : ... .. . ... ...
ROW CC : ... .. . ... ... ... : ... .. 0 ... ... ... : ... .. . ... : ... .. 4 ... : ... .. . ... ... : ... .. . ... ... : ... .. . ... ... : ... .. . ... ...
ROW CD : ... .. . ... ... ... : G-3 00 3 P80 ... ... : ... .. . ... : ... .. 2 ... : ... .. . ... ... : ... .. . ... ... : ... .. . ... ... : ... .. . ... ...
ROW CE : ... .. . ... ... ... : ... .. 4 ... ... ... : ... .. . ... : ... .. 1 ... : ... .. . ... ... : ... .. . ... ... : ... .. . ... ... : ... .. . ... ...
ROW CF : ... .. . ... ... ... : D-3 00 8 ... ... ... : ... .. . ... : ... .. 8 ... : ... .. . ... ... : ... .. . ... ... : ... .. . ... ... : ... .. . ... ...
ROW D0 : ... .. . ... ... ... : ... .. 3 ... ... ... : ... .. . ... : ... .. 6 ... : ... .. . ... ... : ... .. . ... ... : ... .. . ... ... : ... .. . ... ...
ROW D1 : ... .. . ... ... ... : ... .. 0 ... ... ... : ... .. . ... : ... .. 3 ... : ... .. . ... ... : ... .. . ... ... : ... .. . ... ... : ... .. . ... ...
ROW D2 : ... .. . ... ... ... : D-3 00 3 P80 ... ... : --- .. . ... : ... .. 1 ... : ... .. . ... ... : ... .. . ... ... : ... .. . ... ... : ... .. . ... ...
ROW D3 : ... .. . ... ... ... : ... .. 4 ... ... ... : ... .. . ... : ... .. . ... : ... .. . ... ... : ... .. . ... ... : ... .. . ... ... : ... .. . ... ...
ROW D4 : ... .. . ... ... ... : G-3 00 8 ... ... ... : D-4 00 . ... : 1-# 00 D ... : ... .. . ... ... : A-3 01 7 ... ... : D-3 01 7 P81 ... : ... .. . ... ...
ROW D5 : ... .. . ... ... ... : ... .. 3 ... ... ... : ... .. . ... : ... .. . ... : ... .. . ... ... : ... .. 6 ... ... : ... .. 6 ... ... : ... .. . ... ...
ROW D6 : ... .. . ... ... ... : ... .. 0 ... ... ... : ... .. . ... : D-# 00 D ... : ... .. . ... ... : ... .. . ... ... : ... .. . ... ... : ... .. . ... ...
ROW D7 : ... .. . ... ... ... : G-3 00 3 P80 ... ... : ... .. . ... : B-# 00 6 ... : ... .. . ... ... : --- .. . ... ... : --- .. . P83 ... : ... .. . ... ...
ROW D8 : ... .. . ... ... ... : ... .. 4 ... ... ... : --- .. . ... : 7-# 00 1 ... : ... .. . ... ... : ... .. . ... ... : ... .. . ... ... : ... .. . ... ...
ROW D9 : ... .. . ... ... ... : A-3 00 8 ... ... ... : D-4 00 . ... : D-# 00 8 ... : ... .. . ... ... : A-3 01 7 ... ... : D-3 01 7 P81 ... : ... .. . ... ...
ROW DA : ... .. 2 ... ... ... : ... .. 3 ... ... ... : ... .. . ... : ... .. 6 ... : ... .. . ... ... : ... .. 6 ... ... : ... .. 6 ... ... : ... .. 2 ... ...
ROW DB : ... .. . ... ... ... : ... .. 0 ... ... ... : ... .. . ... : ... .. 3 ... : ... .. . ... ... : ... .. . ... ... : ... .. . ... ... : ... .. . ... ...
ROW DC : ... .. . ... ... ... : A-3 00 3 P80 ... ... : ... .. . ... : ... .. 1 ... : ... .. . ... ... : --- .. . ... ... : --- .. . P83 ... : ... .. 1 ... ...
ROW DD : ... .. 1 ... ... ... : ... .. 4 ... ... ... : --- .. . ... : ... .. . ... : ... .. . ... ... : ... .. . ... ... : ... .. . ... ... : ... .. . ... ...
ROW DE : D-3 00 F ... ... ... : D-4 00 8 ... ... ... : D-3 00 . ... : ... .. A ... : ... .. . ... ... : A-3 01 7 ... ... : D-3 01 7 P81 ... : D-2 01 A ... ...
ROW DF : ... .. E ... ... ... : ... .. 3 ... ... ... : ... .. . ... : ... .. 8 ... : ... .. . ... ... : ... .. 6 ... ... : ... .. 6 ... ... : ... .. 8 ... ...
ROW E0 : ... .. D ... ... ... : ... .. 0 ... ... ... : ... .. . ... : ... .. 4 ... : ... .. . ... ... : ... .. . ... ... : ... .. . ... ... : ... .. 5 ... ...
ROW E1 : ... .. A ... ... ... : D-4 00 3 P80 ... ... : ... .. . ... : ... .. 2 ... : ... .. . ... ... : ... .. . ... ... : ... .. . ... ... : ... .. . ... ...
ROW E2 : ... .. . ... ... ... : ... .. 4 ... ... ... : --- .. . ... : ... .. 1 ... : ... .. . ... ... : ... .. 5 ... ... : ... .. 5 ... ... : ... .. . ... ...
ROW E3 : ... .. . ... ... ... : A-3 00 8 ... ... ... : D-3 00 . ... : ... .. 8 ... : ... .. . ... ... : ... .. . ... ... : ... .. . ... ... : ... .. . ... ...
ROW E4 : ... .. 2 ... ... ... : ... .. 3 ... ... ... : ... .. . ... : ... .. 6 ... : ... .. . ... ... : ... .. . ... ... : ... .. . ... ... : ... .. 2 ... ...
ROW E5 : ... .. . ... ... ... : ... .. 0 ... ... ... : ... .. . ... : ... .. 3 ... : ... .. . ... ... : ... .. 4 ... ... : ... .. 4 ... ... : ... .. . ... ...
ROW E6 : ... .. . ... ... ... : A-3 00 3 P80 ... ... : ... .. . ... : ... .. 1 ... : ... .. . ... ... : ... .. . ... ... : ... .. . ... ... : ... .. 1 ... ...
ROW E7 : ... .. 1 ... ... ... : ... .. 4 ... ... ... : --- .. . ... : ... .. . ... : ... .. . ... ... : ... .. . ... ... : ... .. . ... ... : ... .. . ... ...
ROW E8 : ... .. F ... ... ... : D-4 00 8 ... ... ... : D-3 00 . ... : 1-# 00 F ... : ... .. . ... ... : --- .. . ... ... : --- .. . P83 ... : ... .. A ... ...
ROW E9 : ... .. E ... ... ... : ... .. 3 ... ... ... : ... .. . ... : ... .. C ... : ... .. . ... ... : ... .. . ... ... : ... .. . ... ... : ... .. 8 ... ...
ROW EA : ... .. D ... ... ... : ... .. 0 ... ... ... : ... .. . ... : ... .. 6 ... : ... .. . ... ... : ... .. . ... ... : ... .. . ... ... : ... .. 5 ... ...
ROW EB : ... .. A ... ... ... : D-4 00 3 P80 ... ... : ... .. . ... : ... .. 3 ... : ... .. . ... ... : ... .. . ... ... : ... .. . ... ... : ... .. . ... ...
ROW EC : ... .. . ... ... ... : ... .. 4 ... ... ... : ... .. . ... : ... .. 2 ... : ... .. . ... ... : ... .. . ... ... : ... .. . ... ... : ... .. . ... ...
ROW ED : ... .. . ... ... ... : A-3 00 8 ... ... ... : ... .. . ... : D-# 00 8 ... : ... .. . ... ... : ... .. . ... ... : ... .. . ... ... : ... .. . ... ...
ROW EE : ... .. . ... ... ... : ... .. 3 ... ... ... : ... .. . ... : ... .. 6 ... : ... .. . ... ... : ... .. . ... ... : ... .. . ... ... : ... .. . ... ...
ROW EF : ... .. . ... ... ... : ... .. 0 ... ... ... : ... .. . ... : ... .. 3 ... : ... .. . ... ... : ... .. . ... ... : ... .. . ... ... : ... .. . ... ...
ROW F0 : ... .. . ... ... ... : A-3 00 3 P80 ... ... : --- .. . ... : ... .. 1 ... : ... .. . ... ... : ... .. . ... ... : ... .. . ... ... : ... .. . ... ...
ROW F1 : ... .. . ... ... ... : ... .. 4 ... ... ... : ... .. . ... : ... .. . ... : ... .. . ... ... : ... .. . ... ... : ... .. . ... ... : ... .. . ... ...
ROW F2 : ... .. . ... ... ... : G-3 00 8 ... ... ... : D-3 00 . ... : ... .. A ... : ... .. . ... ... : A-3 01 7 ... ... : D-3 01 7 P81 ... : ... .. . ... ...
ROW F3 : ... .. . ... ... ... : ... .. 3 ... ... ... : ... .. . ... : ... .. 8 ... : ... .. . ... ... : ... .. 6 ... ... : ... .. 6 ... ... : ... .. . ... ...
ROW F4 : ... .. . ... ... ... : ... .. 0 ... ... ... : ... .. . ... : ... .. 4 ... : ... .. . ... ... : ... .. . ... ... : ... .. . ... ... : ... .. . ... ...
ROW F5 : ... .. . ... ... ... : G-3 00 3 P80 ... ... : ... .. . ... : ... .. 2 ... : ... .. . ... ... : --- .. . ... ... : --- .. . P83 ... : ... .. . ... ...
ROW F6 : ... .. . ... ... ... : ... .. 4 ... ... ... : ... .. . ... : ... .. 1 ... : ... .. . ... ... : ... .. . ... ... : ... .. . ... ... : ... .. . ... ...
ROW F7 : ... .. . ... ... ... : D-3 00 8 ... ... ... : ... .. . ... : ... .. 8 ... : ... .. . ... ... : A-3 01 7 ... ... : D-3 01 7 P81 ... : ... .. . ... ...
ROW F8 : ... .. . ... ... ... : ... .. 3 ... ... ... : ... .. . ... : ... .. 6 ... : ... .. . ... ... : ... .. 6 ... ... : ... .. 6 ... ... : ... .. . ... ...
ROW F9 : ... .. . ... ... ... : ... .. 0 ... ... ... : ... .. . ... : ... .. 3 ... : ... .. . ... ... : ... .. . ... ... : ... .. . ... ... : ... .. . ... ...
ROW FA : ... .. . ... ... ... : D-3 00 3 P80 ... ... : --- .. . ... : ... .. 1 ... : ... .. . ... ... : --- .. . ... ... : --- .. . P83 ... : ... .. . ... ...
ROW FB : ... .. . ... ... ... : ... .. 4 ... ... ... : ... .. . ... : ... .. . ... : ... .. . ... ... : ... .. . ... ... : ... .. . ... ... : ... .. . ... ...
ROW FC : ... .. . ... ... ... : G-3 00 8 ... ... ... : D-4 00 . ... : 1-# 00 D ... : ... .. . ... ... : A-3 01 7 ... ... : D-3 01 7 P81 ... : ... .. . ... ...
ROW FD : ... .. . ... ... ... : ... .. 3 ... ... ... : ... .. . ... : ... .. . ... : ... .. . ... ... : ... .. 6 ... ... : ... .. 6 ... ... : ... .. . ... ...
ROW FE : ... .. . ... ... ... : ... .. 0 ... ... ... : ... .. . ... : D-# 00 D ... : ... .. . ... ... : ... .. . ... ... : ... .. . ... ... : ... .. . ... ...
ROW FF : ... .. . ... ... ... : G-3 00 3 P80 ... ... : ... .. . ... : B-# 00 6 ... : ... .. . ... ... : ... .. . ... ... : ... .. . ... ... : ... .. . ... ...

PATTERN 04
ROW 00 : ... .. . ... ... ... : ... .. 4 ... ... ... : --- .. . ... : 7-# 00 1 ... : ... .. . ... ... : ... .. 5 ... ... : ... .. 5 ... ... : ... .. . ... ...
ROW 01 : ... .. . ... ... ... : A-3 00 8 ... ... ... : D-4 00 . ... : D-# 00 8 ... : ... .. . ... ... : --- .. . ... ... : --- .. . P83 ... : ... .. . ... ...
ROW 02 : ... .. . ... ... ... : ... .. 3 ... ... ... : ... .. . ... : ... .. 6 ... : ... .. . ... ... : ... .. . ... ... : ... .. . ... ... : ... .. . ... ...
ROW 03 : ... .. . ... ... ... : ... .. 0 ... ... ... : ... .. . ... : ... .. 3 ... : ... .. . ... ... : ... .. . ... ... : ... .. . ... ... : ... .. . ... ...
ROW 04 : ... .. . ... ... ... : A-3 00 3 P80 ... ... : ... .. . ... : ... .. 1 ... : ... .. . ... ... : ... .. . ... ... : ... .. . ... ... : ... .. . ... ...
ROW 05 : ... .. . ... ... ... : ... .. 4 ... ... ... : --- .. . ... : ... .. . ... : ... .. . ... ... : ... .. . ... ... : ... .. . ... ... : ... .. . ... ...
ROW 06 : ... .. . ... ... ... : D-4 00 8 ... ... ... : D-3 00 . ... : ... .. A ... : ... .. . ... ... : D-3 01 7 ... ... : G-2 01 7 P81 ... : ... .. . ... ...
ROW 07 : ... .. . ... ... ... : ... .. 3 ... ... ... : ... .. . ... : ... .. 8 ... : ... .. . ... ... : ... .. 6 ... ... : ... .. 6 ... ... : ... .. . ... ...
ROW 08 : ... .. . ... ... ... : ... .. 0 ... ... ... : ... .. . ... : ... .. 4 ... : ... .. . ... ... : ... .. . ... ... : ... .. . ... ... : ... .. . ... ...
ROW 09 : ... .. . ... ... ... : D-4 00 3 P80 ... ... : ... .. . ... : ... .. 2 ... : ... .. . ... ... : ... .. . ... ... : ... .. . ... ... : ... .. . ... ...
ROW 0A : ... .. . ... ... ... : ... .. 4 ... ... ... : --- .. . ... : ... .. 1 ... : ... .. . ... ... : ... .. 5 ... ... : ... .. 5 ... ... : ... .. . ... ...
ROW 0B : ... .. . ... ... ... : A-3 00 8 ... ... ... : D-3 00 . ... : ... .. 8 ... : ... .. . ... ... : --- .. . P81 ... : --- .. . P7F ... : ... .. . ... ...
ROW 0C : ... .. 2 ... ... ... : ... .. 3 ... ... ... : ... .. . ... : ... .. 6 ... : ... .. . ... ... : ... .. . ... ... : ... .. . ... ... : ... .. 2 ... ...
ROW 0D : ... .. . ... ... ... : ... .. 0 ... ... ... : ... .. . ... : ... .. 3 ... : ... .. . ... ... : ... .. . ... ... : ... .. . ... ... : ... .. . ... ...
ROW 0E : ... .. . ... ... ... : A-3 00 3 P80 ... ... : ... .. . ... : ... .. 1 ... : ... .. . ... ... : ... .. . ... ... : ... .. . ... ... : ... .. 1 ... ...
ROW 0F : ... .. 1 ... ... ... : ... .. 4 ... ... ... : --- .. . ... : ... .. . ... : ... .. . ... ... : ... .. . ... ... : ... .. . ... ... : ... .. . ... ...
ROW 10 : D-2 00 F ... ... ... : D-4 00 8 ... ... ... : D-2 00 . ... : 1-# 00 F ... : ... .. . ... ... : A-3 01 7 P7F ... : D-3 01 7 P81 ... : D-1 01 A ... ...
ROW 11 : ... .. E ... ... ... : ... .. 3 ... ... ... : ... .. . ... : ... .. C ... : ... .. . ... ... : ... .. 6 ... ... : ... .. 6 ... ... : ... .. 8 ... ...
ROW 12 : ... .. D ... ... ... : ... .. 0 ... ... ... : ... .. . ... : ... .. 6 ... : ... .. . ... ... : ... .. . ... ... : ... .. . ... ... : ... .. 5 ... ...
ROW 13 : ... .. A ... ... ... : D-4 00 3 P80 ... ... : ... .. . ... : ... .. 3 ... : ... .. . ... ... : ... .. . ... ... : ... .. . ... ... : ... .. . ... ...
ROW 14 : ... .. 2 ... ... ... : ... .. 4 ... ... ... : ... .. . ... : ... .. 2 ... : ... .. . ... ... : ... .. 5 ... ... : ... .. 5 ... ... : ... .. 2 ... ...
ROW 15 : ... .. F ... ... ... : A-3 00 8 ... ... ... : ... .. . ... : D-# 00 8 ... : ... .. . ... ... : ... .. . ... ... : ... .. . ... ... : ... .. A ... ...
ROW 16 : ... .. E ... ... ... : ... .. 3 ... ... ... : ... .. . ... : ... .. 6 ... : ... .. . ... ... : ... .. . ... ... : ... .. . ... ... : ... .. 8 ... ...
ROW 17 : ... .. D ... ... ... : ... .. 0 ... ... ... : ... .. . ... : ... .. 3 ... : ... .. . ... ... : ... .. 4 ... ... : ... .. 4 ... ... : ... .. 5 ... ...
ROW 18 : ... .. A ... ... ... : A-3 00 3 P80 ... ... : --- .. . ... : ... .. 1 ... : ... .. . ... ... : ... .. . ... ... : ... .. . ... ... : ... .. . ... ...
ROW 19 : ... .. 2 ... ... ... : ... .. 4 ... ... ... : ... .. . ... : ... .. . ... : ... .. . ... ... : ... .. . ... ... : ... .. . ... ... : ... .. 2 ... ...
ROW 1A : D-1 00 F ... ... ... : G-3 00 8 ... ... ... : D-2 00 . ... : ... .. A ... : ... .. . ... ... : --- .. . ... ... : --- .. . P83 ... : D-0 01 A ... ...
ROW 1B : ... .. E ... ... ... : ... .. 3 ... ... ... : ... .. . ... : ... .. 8 ... : ... .. . ... ... : ... .. . ... ... : ... .. . ... ... : ... .. 8 ... ...
ROW 1C : ... .. D ... ... ... : ... .. 0 ... ... ... : ... .. . ... : ... .. 4 ... : ... .. . ... ... : ... .. . ... ... : ... .. . ... ... : ... .. 5 ... ...
ROW 1D : ... .. A ... ... ... : G-3 00 3 P80 ... ... : ... .. . ... : ... .. 2 ... : ... .. . ... ... : ... .. . ... ... : ... .. . ... ... : ... .. . ... ...
ROW 1E : ... .. 2 ... ... ... : ... .. 4 ... ... ... : ... .. . ... : ... .. 1 ... : ... .. . ... ... : ... .. . ... ... : ... .. . ... ... : ... .. 2 ... ...
ROW 1F : ... .. F ... ... ... : D-3 00 8 ... ... ... : ... .. . ... : ... .. 8 ... : ... .. . ... ... : ... .. . ... ... : ... .. . ... ... : ... .. A ... ...
ROW 20 : ... .. E ... ... ... : ... .. 3 ... ... ... : ... .. . ... : ... .. 6 ... : ... .. . ... ... : ... .. . ... ... : ... .. . ... ... : ... .. 8 ... ...
ROW 21 : ... .. D ... ... ... : ... .. 0 ... ... ... : ... .. . ... : ... .. 3 ... : ... .. . ... ... : ... .. . ... ... : ... .. . ... ... : ... .. 5 ... ...
ROW 22 : ... .. A ... ... ... : D-3 00 3 P80 ... ... : --- .. . ... : ... .. 1 ... : ... .. . ... ... : ... .. . ... ... : ... .. . ... ... : ... .. . ... ...
ROW 23 : ... .. 2 ... ... ... : ... .. 4 ... ... ... : ... .. . ... : ... .. . ... : ... .. . ... ... : ... .. . ... ... : ... .. . ... ... : ... .. 2 ... ...
ROW 24 : D-2 00 F ... ... ... : G-3 00 8 ... ... ... : D-4 00 . ... : 1-# 00 D ... : ... .. . ... ... : A-3 01 7 ... ... : D-3 01 7 P81 ... : D-1 01 A ... ...
ROW 25 : ... .. E ... ... ... : ... .. 3 ... ... ... : ... .. . ... : ... .. . ... : ... .. . ... ... : ... .. 6 ... ... : ... .. 6 ... ... : ... .. 8 ... ...
ROW 26 : ... .. D ... ... ... : ... .. 0 ... ... ... : ... .. . ... : D-# 00 D ... : ... .. . ... ... : ... .. . ... ... : ... .. . ... ... : ... .. 5 ... ...
ROW 27 : ... .. A ... ... ... : G-3 00 3 P80 ... ... : ... .. . ... : B-# 00 6 ... : ... .. . ... ... : --- .. . ... ... : --- .. . P83 ... : ... .. . ... ...
ROW 28 : ... .. 2 ... ... ... : ... .. 4 ... ... ... : --- .. . ... : 7-# 00 1 ... : ... .. . ... ... : ... .. . ... ... : ... .. . ... ... : ... .. 2 ... ...
ROW 29 : ... .. F ... ... ... : A-3 00 8 ... ... ... : D-4 00 . ... : D-# 00 8 ... : ... .. . ... ... : A-3 01 7 ... ... : D-3 01 7 P81 ... : ... .. A ... ...
ROW 2A : ... .. E ... ... ... : ... .. 3 ... ... ... : ... .. . ... : ... .. 6 ... : ... .. . ... ... : ... .. 6 ... ... : ... .. 6 ... ... : ... .. 8 ... ...
ROW 2B : ... .. D ... ... ... : ... .. 0 ... ... ... : ... .. . ... : ... .. 3 ... : ... .. . ... ... : ... .. . ... ... : ... .. . ... ... : ... .. 5 ... ...
ROW 2C : ... .. A ... ... ... : A-3 00 3 P80 ... ... : ... .. . ... : ... .. 1 ... : ... .. . ... ... : --- .. . ... ... : --- .. . P83 ... : ... .. . ... ...
ROW 2D : ... .. 2 ... ... ... : ... .. 4 ... ... ... : --- .. . ... : ... .. . ... : ... .. . ... ... : ... .. . ... ... : ... .. . ... ... : ... .. 2 ... ...
ROW 2E : D-1 00 F ... ... ... : D-4 00 8 ... ... ... : D-3 00 . ... : ... .. A ... : ... .. . ... ... : A-3 01 7 ... ... : D-3 01 7 P81 ... : D-0 01 A ... ...
ROW 2F : ... .. E ... ... ... : ... .. 3 ... ... ... : ... .. . ... : ... .. 8 ... : ... .. . ... ... : ... .. 6 ... ... : ... .. 6 ... ... : ... .. 8 ... ...
ROW 30 : ... .. D ... ... ... : ... .. 0 ... ... ... : ... .. . ... : ... .. 4 ... : ... .. . ... ... : ... .. . ... ... : ... .. . ... ... : ... .. 5 ... ...
ROW 31 : ... .. A ... ... ... : D-4 00 3 P80 ... ... : ... .. . ... : ... .. 2 ... : ... .. . ... ... : ... .. . ... ... : ... .. . ... ... : ... .. . ... ...
ROW 32 : ... .. 2 ... ... ... : ... .. 4 ... ... ... : --- .. . ... : ... .. 1 ... : ... .. . ... ... : ... .. 5 ... ... : ... .. 5 ... ... : ... .. 2 ... ...
ROW 33 : ... .. F ... ... ... : A-3 00 8 ... ... ... : D-3 00 . ... : ... .. 8 ... : ... .. . ... ... : ... .. . ... ... : ... .. . ... ... : ... .. A ... ...
ROW 34 : ... .. E ... ... ... : ... .. 3 ... ... ... : ... .. . ... : ... .. 6 ... : ... .. . ... ... : ... .. . ... ... : ... .. . ... ... : ... .. 8 ... ...
ROW 35 : ... .. D ... ... ... : ... .. 0 ... ... ... : ... .. . ... : ... .. 3 ... : ... .. . ... ... : ... .. 4 ... ... : ... .. 4 ... ... : ... .. 5 ... ...
ROW 36 : ... .. A ... ... ... : A-3 00 3 P80 ... ... : ... .. . ... : ... .. 1 ... : ... .. . ... ... : ... .. . ... ... : ... .. . ... ... : ... .. . ... ...
ROW 37 : ... .. 2 ... ... ... : ... .. 4 ... ... ... : --- .. . ... : ... .. . ... : ... .. . ... ... : ... .. . ... ... : ... .. . ... ... : ... .. 2 ... ...
ROW 38 : D-3 00 8 ... ... ... : D-4 00 8 ... ... ... : D-3 00 . ... : 9-# 00 8 ... : ... .. . ... ... : --- .. . ... ... : --- .. . P83 ... : F-1 01 A ... ...
ROW 39 : ... .. 7 ... ... ... : ... .. 3 ... ... ... : ... .. . ... : ... .. . ... : ... .. . ... ... : ... .. . ... ... : ... .. . ... ... : ... .. 8 ... ...
ROW 3A : ... .. 6 ... ... ... : ... .. 0 ... ... ... : ... .. . ... : 5-# 00 8 ... : ... .. . ... ... : ... .. . ... ... : ... .. . ... ... : ... .. 5 ... ...
ROW 3B : ... .. 5 ... ... ... : D-4 00 3 P80 ... ... : ... .. . ... : 3-# 00 4 ... : ... .. . ... ... : ... .. . ... ... : ... .. . ... ... : ... .. . ... ...
ROW 3C : ... .. . ... ... ... : ... .. 4 ... ... ... : ... .. . ... : F-# 00 1 ... : ... .. . ... ... : ... .. . ... ... : ... .. . ... ... : ... .. 2 ... ...
ROW 3D : G-3 00 9 ... ... ... : A-3 00 8 ... ... ... : ... .. . ... : 9-# 00 8 ... : ... .. . ... ... : ... .. . ... ... : ... .. . ... ... : ... .. A ... ...
ROW 3E : ... .. 8 ... ... ... : ... .. 3 ... ... ... : ... .. . ... : ... .. . ... : ... .. . ... ... : ... .. . ... ... : ... .. . ... ... : ... .. 8 ... ...
ROW 3F : ... .. 7 ... ... ... : ... .. 0 ... ... ... : ... .. . ... : 5-# 00 8 ... : ... .. . ... ... : ... .. . ... ... : ... .. . ... ... : ... .. 5 ... ...
ROW 40 : ... .. 6 ... ... ... : A-3 00 3 P80 ... ... : --- .. . ... : 3-# 00 4 ... : ... .. . ... ... : ... .. . ... ... : ... .. . ... ... : ... .. . ... ...
ROW 41 : ... .. . ... ... ... : ... .. 4 ... ... ... : ... .. . ... : F-# 00 1 ... : ... .. . ... ... : ... .. . ... ... : ... .. . ... ... : ... .. 2 ... ...
ROW 42 : A-3 00 A ... ... ... : G-3 00 8 ... ... ... : D-3 00 . ... : 4-# 00 9 ... : ... .. . ... ... : D-3 01 7 ... ... : G-2 01 7 P81 ... : D-0 01 A ... ...
ROW 43 : ... .. 9 ... ... ... : ... .. 3 ... ... ... : ... .. . ... : ... .. . ... : ... .. . ... ... : ... .. 6 ... ... : ... .. 6 ... ... : ... .. 8 ... ...
ROW 44 : ... .. 8 ... ... ... : ... .. 0 ... ... ... : ... .. . ... : 0-# 00 9 ... : ... .. . ... ... : ... .. . ... ... : ... .. . ... ... : ... .. 5 ... ...
ROW 45 : ... .. 6 ... ... ... : G-3 00 3 P80 ... ... : ... .. . ... : E-# 00 4 ... : ... .. . ... ... : --- .. . P81 ... : --- .. . P7F ... : ... .. . ... ...
ROW 46 : ... .. . ... ... ... : ... .. 4 ... ... ... : ... .. . ... : A-# 00 1 ... : ... .. . ... ... : ... .. . ... ... : ... .. . ... ... : ... .. 2 ... ...
ROW 47 : D-4 00 B ... ... ... : A-3 00 8 ... ... ... : ... .. . ... : 4-# 00 A ... : ... .. . ... ... : D-3 01 7 P7F ... : G-2 01 7 P81 ... : ... .. A ... ...
ROW 48 : ... .. A ... ... ... : ... .. 3 ... ... ... : ... .. . ... : ... .. . ... : ... .. . ... ... : ... .. 6 ... ... : ... .. 6 ... ... : ... .. 8 ... ...
ROW 49 : ... .. 9 ... ... ... : ... .. 0 ... ... ... : ... .. . ... : 0-# 00 A ... : ... .. . ... ... : ... .. . ... ... : ... .. . ... ... : ... .. 5 ... ...
ROW 4A : ... .. 8 ... ... ... : A-3 00 3 P80 ... ... : --- .. . ... : E-# 00 4 ... : ... .. . ... ... : --- .. . P81 ... : --- .. . P7F ... : ... .. . ... ...
ROW 4B : ... .. . ... ... ... : ... .. 4 ... ... ... : ... .. . ... : A-# 00 1 ... : ... .. . ... ... : ... .. . ... ... : ... .. . ... ... : ... .. 2 ... ...
ROW 4C : G-4 00 C ... ... ... : D-4 00 8 ... ... ... : D-4 00 . ... : 6-# 00 A ... : ... .. . ... ... : A-3 01 7 P7F ... : D-3 01 7 P81 ... : E-1 01 A ... ...
ROW 4D : ... .. B ... ... ... : ... .. 3 ... ... ... : ... .. . ... : ... .. . ... : ... .. . ... ... : ... .. 6 ... ... : ... .. 6 ... ... : ... .. 8 ... ...
ROW 4E : ... .. A ... ... ... : ... .. 0 ... ... ... : ... .. . ... : 2-# 00 A ... : ... .. . ... ... : ... .. . ... ... : ... .. . ... ... : ... .. 5 ... ...
ROW 4F : ... .. 8 ... ... ... : D-4 00 3 P80 ... ... : ... .. . ... : 0-# 00 5 ... : ... .. . ... ... : ... .. . ... ... : ... .. . ... ... : ... .. . ... ...
ROW 50 : ... .. . ... ... ... : ... .. 4 ... ... ... : --- .. . ... : C-# 00 1 ... : ... .. . ... ... : ... .. 5 ... ... : ... .. 5 ... ... : ... .. 2 ... ...
ROW 51 : A-4 00 D ... ... ... : G-4 00 8 ... ... ... : D-4 00 . ... : 6-# 00 B ... : ... .. . ... ... : --- .. . ... ... : --- .. . P83 ... : ... .. A ... ...
ROW 52 : ... .. C ... ... ... : ... .. 3 ... ... ... : ... .. . ... : ... .. . ... : ... .. . ... ... : ... .. . ... ... : ... .. . ... ... : ... .. 8 ... ...
ROW 53 : ... .. B ... ... ... : ... .. 0 ... ... ... : ... .. . ... : 2-# 00 B ... : ... .. . ... ... : ... .. . ... ... : ... .. . ... ... : ... .. 5 ... ...
ROW 54 : ... .. 9 ... ... ... : G-4 00 3 P80 ... ... : ... .. . ... : 0-# 00 5 ... : ... .. . ... ... : ... .. . ... ... : ... .. . ... ... : ... .. . ... ...
ROW 55 : ... .. . ... ... ... : ... .. 4 ... ... ... : --- .. . ... : C-# 00 1 ... : ... .. . ... ... : ... .. . ... ... : ... .. . ... ... : ... .. 2 ... ...
ROW 56 : D-5 00 F ... ... ... : A-4 00 8 ... ... ... : D-3 00 . ... : 1-# 00 C ... : ... .. . ... ... : D-3 01 7 ... ... : G-2 01 7 P81 ... : D-0 01 A ... ...
ROW 57 : ... .. E ... ... ... : ... .. 3 ... ... ... : ... .. . ... : ... .. . ... : ... .. . ... ... : ... .. 6 ... ... : ... .. 6 ... ... : ... .. 8 ... ...
ROW 58 : ... .. D ... ... ... : ... .. 0 ... ... ... : ... .. . ... : D-# 00 C ... : ... .. . ... ... : ... .. . ... ... : ... .. . ... ... : ... .. 5 ... ...
ROW 59 : ... .. A ... ... ... : A-4 00 3 P80 ... ... : ... .. . ... : B-# 00 5 ... : ... .. . ... ... : --- .. . P81 ... : --- .. . P7F ... : ... .. . ... ...
ROW 5A : ... .. . ... ... ... : ... .. 4 ... ... ... : --- .. . ... : 7-# 00 1 ... : ... .. . ... ... : ... .. . ... ... : ... .. . ... ... : ... .. 2 ... ...
ROW 5B : G-4 00 8 ... ... ... : D-5 00 8 ... ... ... : D-3 00 . ... : 1-# 00 D ... : ... .. . ... ... : D-3 01 7 P7F ... : G-2 01 7 P81 ... : ... .. A ... ...
ROW 5C : ... .. 7 ... ... ... : ... .. 3 ... ... ... : ... .. . ... : ... .. . ... : ... .. . ... ... : ... .. 6 ... ... : ... .. 6 ... ... : ... .. 8 ... ...
ROW 5D : ... .. 6 ... ... ... : ... .. 0 ... ... ... : ... .. . ... : D-# 00 D ... : ... .. . ... ... : ... .. . ... ... : ... .. . ... ... : ... .. 5 ... ...
ROW 5E : ... .. 5 ... ... ... : D-5 00 3 P80 ... ... : ... .. . ... : B-# 00 6 ... : ... .. . ... ... : --- .. . P81 ... : --- .. . P7F ... : ... .. . ... ...
ROW 5F : ... .. . ... ... ... : ... .. 4 ... ... ... : --- .. . ... : 7-# 00 1 ... : ... .. . ... ... : ... .. . ... ... : ... .. . ... ... : ... .. 2 ... ...
ROW 60 : C-3 00 F ... ... ... : C-5 00 8 ... ... ... : D-2 00 . ... : 1-# 00 F ... : ... .. . ... ... : A-3 01 7 P7F ... : D-3 01 7 P81 ... : C-2 01 A ... ...
ROW 61 : ... .. E ... ... ... : ... .. 3 ... ... ... : ... .. . ... : ... .. C ... : ... .. . ... ... : ... .. 6 ... ... : ... .. 6 ... ... : ... .. 8 ... ...
ROW 62 : ... .. D ... ... ... : ... .. 0 ... ... ... : ... .. . ... : ... .. 6 ... : ... .. . ... ... : ... .. . ... ... : ... .. . ... ... : ... .. 5 ... ...
ROW 63 : ... .. A ... ... ... : C-5 00 3 P80 ... ... : ... .. . ... : ... .. 3 ... : ... .. . ... ... : ... .. . ... ... : ... .. . ... ... : ... .. . ... ...
ROW 64 : ... .. . ... ... ... : ... .. 4 ... ... ... : ... .. . ... : ... .. 2 ... : ... .. . ... ... : ... .. 5 ... ... : ... .. 5 ... ... : ... .. . ... ...
ROW 65 : ... .. . ... ... ... : G-4 00 8 ... ... ... : ... .. . ... : D-# 00 8 ... : ... .. . ... ... : ... .. . ... ... : ... .. . ... ... : ... .. . ... ...
ROW 66 : ... .. . ... ... ... : ... .. 3 ... ... ... : ... .. . ... : ... .. 6 ... : ... .. . ... ... : ... .. . ... ... : ... .. . ... ... : ... .. . ... ...
ROW 67 : ... .. . ... ... ... : ... .. 0 ... ... ... : ... .. . ... : ... .. 3 ... : ... .. . ... ... : ... .. 4 ... ... : ... .. 4 ... ... : ... .. . ... ...
ROW 68 : ... .. . ... ... ... : G-4 00 3 P80 ... ... : --- .. . ... : ... .. 1 ... : ... .. . ... ... : ... .. . ... ... : ... .. . ... ... : ... .. . ... ...
ROW 69 : ... .. . ... ... ... : ... .. 4 ... ... ... : ... .. . ... : ... .. . ... : ... .. . ... ... : ... .. . ... ... : ... .. . ... ... : ... .. . ... ...
ROW 6A : ... .. . ... ... ... : F-4 00 8 ... ... ... : D-2 00 . ... : ... .. A ... : ... .. . ... ... : --- .. . ... ... : --- .. . P83 ... : ... .. . ... ...
ROW 6B : ... .. . ... ... ... : ... .. 3 ... ... ... : ... .. . ... : ... .. 8 ... : ... .. . ... ... : ... .. . ... ... : ... .. . ... ... : ... .. . ... ...
ROW 6C : ... .. . ... ... ... : ... .. 0 ... ... ... : ... .. . ... : ... .. 4 ... : ... .. . ... ... : ... .. . ... ... : ... .. . ... ... : ... .. . ... ...
ROW 6D : ... .. . ... ... ... : F-4 00 3 P80 ... ... : ... .. . ... : ... .. 2 ... : ... .. . ... ... : ... .. . ... ... : ... .. . ... ... : ... .. . ... ...
ROW 6E : ... .. . ... ... ... : ... .. 4 ... ... ... : ... .. . ... : ... .. 1 ... : ... .. . ... ... : ... .. . ... ... : ... .. . ... ... : ... .. . ... ...
ROW 6F : ... .. . ... ... ... : C-4 00 8 ... ... ... : ... .. . ... : ... .. 8 ... : ... .. . ... ... : ... .. . ... ... : ... .. . ... ... : ... .. . ... ...
ROW 70 : ... .. . ... ... ... : ... .. 3 ... ... ... : ... .. . ... : ... .. 6 ... : ... .. . ... ... : ... .. . ... ... : ... .. . ... ... : ... .. . ... ...
ROW 71 : ... .. . ... ... ... : ... .. 0 ... ... ... : ... .. . ... : ... .. 3 ... : ... .. . ... ... : ... .. . ... ... : ... .. . ... ... : ... .. . ... ...
ROW 72 : ... .. . ... ... ... : C-4 00 3 P80 ... ... : --- .. . ... : ... .. 1 ... : ... .. . ... ... : ... .. . ... ... : ... .. . ... ... : ... .. . ... ...
ROW 73 : ... .. . ... ... ... : ... .. 4 ... ... ... : ... .. . ... : ... .. . ... : ... .. . ... ... : ... .. . ... ... : ... .. . ... ... : ... .. . ... ...
ROW 74 : ... .. . ... ... ... : A-3 00 8 ... ... ... : C-4 00 . ... : 1-# 00 D ... : ... .. . ... ... : A-3 01 7 ... ... : D-3 01 7 P81 ... : ... .. . ... ...
ROW 75 : ... .. . ... ... ... : ... .. 3 ... ... ... : ... .. . ... : ... .. . ... : ... .. . ... ... : ... .. 6 ... ... : ... .. 6 ... ... : ... .. . ... ...
ROW 76 : ... .. . ... ... ... : ... .. 0 ... ... ... : ... .. . ... : D-# 00 D ... : ... .. . ... ... : ... .. . ... ... : ... .. . ... ... : ... .. . ... ...
ROW 77 : ... .. . ... ... ... : A-3 00 3 P80 ... ... : ... .. . ... : B-# 00 6 ... : ... .. . ... ... : --- .. . ... ... : --- .. . P83 ... : ... .. . ... ...
ROW 78 : ... .. . ... ... ... : ... .. 4 ... ... ... : --- .. . ... : 7-# 00 1 ... : ... .. . ... ... : ... .. . ... ... : ... .. . ... ... : ... .. . ... ...
ROW 79 : ... .. . ... ... ... : G-3 00 8 ... ... ... : C-4 00 . ... : D-# 00 8 ... : ... .. . ... ... : A-3 01 7 ... ... : D-3 01 7 P81 ... : ... .. . ... ...
ROW 7A : ... .. . ... ... ... : ... .. 3 ... ... ... : ... .. . ... : ... .. 6 ... : ... .. . ... ... : ... .. 6 ... ... : ... .. 6 ... ... : ... .. . ... ...
ROW 7B : ... .. . ... ... ... : ... .. 0 ... ... ... : ... .. . ... : ... .. 3 ... : ... .. . ... ... : ... .. . ... ... : ... .. . ... ... : ... .. . ... ...
ROW 7C : ... .. . ... ... ... : G-3 00 3 P80 ... ... : ... .. . ... : ... .. 1 ... : ... .. . ... ... : --- .. . ... ... : --- .. . P83 ... : ... .. . ... ...
ROW 7D : ... .. . ... ... ... : ... .. 4 ... ... ... : --- .. . ... : ... .. . ... : ... .. . ... ... : ... .. . ... ... : ... .. . ... ... : ... .. . ... ...
ROW 7E : ... .. . ... ... ... : F-3 00 8 ... ... ... : D-3 00 . ... : ... .. A ... : ... .. . ... ... : A-3 01 7 ... ... : D-3 01 7 P81 ... : ... .. . ... ...
ROW 7F : ... .. . ... ... ... : ... .. 3 ... ... ... : ... .. . ... : ... .. 8 ... : ... .. . ... ... : ... .. 6 ... ... : ... .. 6 ... ... : ... .. . ... ...
ROW 80 : ... .. . ... ... ... : ... .. 0 ... ... ... : ... .. . ... : ... .. 4 ... : ... .. . ... ... : ... .. . ... ... : ... .. . ... ... : ... .. . ... ...
ROW 81 : ... .. . ... ... ... : F-3 00 3 P80 ... ... : ... .. . ... : ... .. 2 ... : ... .. . ... ... : ... .. . ... ... : ... .. . ... ... : ... .. . ... ...
ROW 82 : ... .. . ... ... ... : ... .. 4 ... ... ... : --- .. . ... : ... .. 1 ... : ... .. . ... ... : ... .. 5 ... ... : ... .. 5 ... ... : ... .. . ... ...
ROW 83 : ... .. . ... ... ... : C-3 00 8 ... ... ... : D-3 00 . ... : ... .. 8 ... : ... .. . ... ... : ... .. . ... ... : ... .. . ... ... : ... .. . ... ...
ROW 84 : ... .. 2 ... ... ... : ... .. 3 ... ... ... : ... .. . ... : ... .. 6 ... : ... .. . ... ... : ... .. . ... ... : ... .. . ... ... : ... .. 2 ... ...
ROW 85 : ... .. . ... ... ... : ... .. 0 ... ... ... : ... .. . ... : ... .. 3 ... : ... .. . ... ... : ... .. 4 ... ... : ... .. 4 ... ... : ... .. . ... ...
ROW 86 : ... .. . ... ... ... : C-3 00 3 P80 ... ... : ... .. . ... : ... .. 1 ... : ... .. . ... ... : ... .. . ... ... : ... .. . ... ... : ... .. 1 ... ...
ROW 87 : ... .. 1 ... ... ... : ... .. 4 ... ... ... : --- .. . ... : ... .. . ... : ... .. . ... ... : ... .. . ... ... : ... .. . ... ... : ... .. . ... ...
ROW 88 : G-3 00 F ... ... ... : C-5 00 8 ... ... ... : D-3 00 . ... : 1-# 00 F ... : ... .. . ... ... : --- .. . ... ... : --- .. . P83 ... : A-2 01 A ... ...
ROW 89 : G#3 00 E P79 ... ... : ... .. 3 ... ... ... : ... .. . ... : ... .. C ... : ... .. . ... ... : ... .. . ... ... : ... .. . ... ... : ... .. 8 ... ...
ROW 8A : ... .. D P82 ... ... : ... .. 0 ... ... ... : ... .. . ... : ... .. 6 ... : ... .. . ... ... : ... .. . ... ... : ... .. . ... ... : ... .. 5 ... ...
ROW 8B : A-3 00 A P7C ... ... : C-5 00 3 P80 ... ... : ... .. . ... : ... .. 3 ... : ... .. . ... ... : ... .. . ... ... : ... .. . ... ... : ... .. . ... ...
ROW 8C : ... .. . P80 ... ... : ... .. 4 ... ... ... : ... .. . ... : ... .. 2 ... : ... .. . ... ... : ... .. . ... ... : ... .. . ... ... : ... .. . ... ...
ROW 8D : ... .. . ... ... ... : G-4 00 8 ... ... ... : ... .. . ... : D-# 00 8 ... : ... .. . ... ... : ... .. . ... ... : ... .. . ... ... : ... .. . ... ...
ROW 8E : ... .. . ... ... ... : ... .. 3 ... ... ... : ... .. . ... : ... .. 6 ... : ... .. . ... ... : ... .. . ... ... : ... .. . ... ... : ... .. . ... ...
ROW 8F : ... .. . ... ... ... : ... .. 0 ... ... ... : ... .. . ... : ... .. 3 ... : ... .. . ... ... : ... .. . ... ... : ... .. . ... ... : ... .. . ... ...
ROW 90 : ... .. . ... ... ... : G-4 00 3 P80 ... ... : --- .. . ... : ... .. 1 ... : ... .. . ... ... : ... .. . ... ... : ... .. . ... ... : ... .. . ... ...
ROW 91 : ... .. . ... ... ... : ... .. 4 ... ... ... : ... .. . ... : ... .. . ... : ... .. . ... ... : ... .. . ... ... : ... .. . ... ... : ... .. . ... ...
ROW 92 : ... .. . ... ... ... : F-4 00 8 ... ... ... : D-3 00 . ... : ... .. A ... : ... .. . ... ... : A-3 01 7 ... ... : D-3 01 7 P81 ... : ... .. . ... ...
ROW 93 : ... .. . ... ... ... : ... .. 3 ... ... ... : ... .. . ... : ... .. 8 ... : ... .. . ... ... : ... .. 6 ... ... : ... .. 6 ... ... : ... .. . ... ...
ROW 94 : ... .. . ... ... ... : ... .. 0 ... ... ... : ... .. . ... : ... .. 4 ... : ... .. . ... ... : ... .. . ... ... : ... .. . ... ... : ... .. . ... ...
ROW 95 : ... .. . ... ... ... : F-4 00 3 P80 ... ... : ... .. . ... : ... .. 2 ... : ... .. . ... ... : --- .. . ... ... : --- .. . P83 ... : ... .. . ... ...
ROW 96 : ... .. . ... ... ... : ... .. 4 ... ... ... : ... .. . ... : ... .. 1 ... : ... .. . ... ... : ... .. . ... ... : ... .. . ... ... : ... .. . ... ...
ROW 97 : ... .. . ... ... ... : C-4 00 8 ... ... ... : ... .. . ... : ... .. 8 ... : ... .. . ... ... : A-3 01 7 ... ... : D-3 01 7 P81 ... : ... .. . ... ...
ROW 98 : ... .. . ... ... ... : ... .. 3 ... ... ... : ... .. . ... : ... .. 6 ... : ... .. . ... ... : ... .. 6 ... ... : ... .. 6 ... ... : ... .. . ... ...
ROW 99 : ... .. . ... ... ... : ... .. 0 ... ... ... : ... .. . ... : ... .. 3 ... : ... .. . ... ... : ... .. . ... ... : ... .. . ... ... : ... .. . ... ...
ROW 9A : ... .. . ... ... ... : C-4 00 3 P80 ... ... : --- .. . ... : ... .. 1 ... : ... .. . ... ... : --- .. . ... ... : --- .. . P83 ... : ... .. . ... ...
ROW 9B : ... .. . ... ... ... : ... .. 4 ... ... ... : ... .. . ... : ... .. . ... : ... .. . ... ... : ... .. . ... ... : ... .. . ... ... : ... .. . ... ...
ROW 9C : ... .. . ... ... ... : A-3 00 8 ... ... ... : C-4 00 . ... : 1-# 00 D ... : ... .. . ... ... : A-3 01 7 ... ... : D-3 01 7 P81 ... : ... .. . ... ...
ROW 9D : ... .. . ... ... ... : ... .. 3 ... ... ... : ... .. . ... : ... .. . ... : ... .. . ... ... : ... .. 6 ... ... : ... .. 6 ... ... : ... .. . ... ...
ROW 9E : ... .. . ... ... ... : ... .. 0 ... ... ... : ... .. . ... : D-# 00 D ... : ... .. . ... ... : ... .. . ... ... : ... .. . ... ... : ... .. . ... ...
ROW 9F : ... .. . ... ... ... : A-3 00 3 P80 ... ... : ... .. . ... : B-# 00 6 ... : ... .. . ... ... : ... .. . ... ... : ... .. . ... ... : ... .. . ... ...
ROW A0 : ... .. . ... ... ... : ... .. 4 ... ... ... : --- .. . ... : 7-# 00 1 ... : ... .. . ... ... : ... .. 5 ... ... : ... .. 5 ... ... : ... .. . ... ...
ROW A1 : ... .. . ... ... ... : G-3 00 8 ... ... ... : C-4 00 . ... : D-# 00 8 ... : ... .. . ... ... : --- .. . ... ... : --- .. . P83 ... : ... .. . ... ...
ROW A2 : ... .. . ... ... ... : ... .. 3 ... ... ... : ... .. . ... : ... .. 6 ... : ... .. . ... ... : ... .. . ... ... : ... .. . ... ... : ... .. . ... ...
ROW A3 : ... .. . ... ... ... : ... .. 0 ... ... ... : ... .. . ... : ... .. 3 ... : ... .. . ... ... : ... .. . ... ... : ... .. . ... ... : ... .. . ... ...
ROW A4 : ... .. . ... ... ... : G-3 00 3 P80 ... ... : ... .. . ... : ... .. 1 ... : ... .. . ... ... : ... .. . ... ... : ... .. . ... ... : ... .. . ... ...
ROW A5 : ... .. . ... ... ... : ... .. 4 ... ... ... : --- .. . ... : ... .. . ... : ... .. . ... ... : ... .. . ... ... : ... .. . ... ... : ... .. . ... ...
ROW A6 : ... .. . ... ... ... : F-3 00 8 ... ... ... : C-3 00 . ... : ... .. A ... : ... .. . ... ... : D-3 01 7 ... ... : G-2 01 7 P81 ... : ... .. . ... ...
ROW A7 : ... .. . ... ... ... : ... .. 3 ... ... ... : ... .. . ... : ... .. 8 ... : ... .. . ... ... : ... .. 6 ... ... : ... .. 6 ... ... : ... .. . ... ...
ROW A8 : ... .. . ... ... ... : ... .. 0 ... ... ... : ... .. . ... : ... .. 4 ... : ... .. . ... ... : ... .. . ... ... : ... .. . ... ... : ... .. . ... ...
ROW A9 : ... .. . ... ... ... : F-3 00 3 P80 ... ... : ... .. . ... : ... .. 2 ... : ... .. . ... ... : ... .. . ... ... : ... .. . ... ... : ... .. . ... ...
ROW AA : ... .. . ... ... ... : ... .. 4 ... ... ... : --- .. . ... : ... .. 1 ... : ... .. . ... ... : ... .. 5 ... ... : ... .. 5 ... ... : ... .. . ... ...
ROW AB : ... .. . ... ... ... : C-3 00 8 ... ... ... : C-3 00 . ... : ... .. 8 ... : ... .. . ... ... : --- .. . P81 ... : --- .. . P7F ... : ... .. . ... ...
ROW AC : ... .. 2 ... ... ... : ... .. 3 ... ... ... : ... .. . ... : ... .. 6 ... : ... .. . ... ... : ... .. . ... ... : ... .. . ... ... : ... .. 2 ... ...
ROW AD : ... .. . ... ... ... : ... .. 0 ... ... ... : ... .. . ... : ... .. 3 ... : ... .. . ... ... : ... .. . ... ... : ... .. . ... ... : ... .. . ... ...
ROW AE : ... .. . ... ... ... : C-3 00 3 P80 ... ... : ... .. . ... : ... .. 1 ... : ... .. . ... ... : ... .. . ... ... : ... .. . ... ... : ... .. 1 ... ...
ROW AF : ... .. 1 ... ... ... : ... .. 4 ... ... ... : --- .. . ... : ... .. . ... : ... .. . ... ... : ... .. . ... ... : ... .. . ... ... : ... .. . ... ...
ROW B0 : G-3 00 F ... ... ... : B-4 00 8 ... ... ... : B-2 00 . ... : 1-# 00 F ... : ... .. . ... ... : A-3 01 7 P7F ... : D-3 01 7 P81 ... : G-2 01 A ... ...
ROW B1 : ... .. E ... ... ... : ... .. 3 ... ... ... : ... .. . ... : ... .. C ... : ... .. . ... ... : ... .. 6 ... ... : ... .. 6 ... ... : ... .. 8 ... ...
ROW B2 : ... .. D ... ... ... : ... .. 0 ... ... ... : ... .. . ... : ... .. 6 ... : ... .. . ... ... : ... .. . ... ... : ... .. . ... ... : ... .. 5 ... ...
ROW B3 : ... .. A ... ... ... : B-4 00 3 P80 ... ... : ... .. . ... : ... .. 3 ... : ... .. . ... ... : ... .. . ... ... : ... .. . ... ... : ... .. . ... ...
ROW B4 : ... .. . ... ... ... : ... .. 4 ... ... ... : ... .. . ... : ... .. 2 ... : ... .. . ... ... : ... .. 5 ... ... : ... .. 5 ... ... : ... .. . ... ...
ROW B5 : ... .. . ... ... ... : G-4 00 8 ... ... ... : ... .. . ... : D-# 00 8 ... : ... .. . ... ... : ... .. . ... ... : ... .. . ... ... : ... .. . ... ...
ROW B6 : ... .. 2 ... ... ... : ... .. 3 ... ... ... : ... .. . ... : ... .. 6 ... : ... .. . ... ... : ... .. . ... ... : ... .. . ... ... : ... .. 2 ... ...
ROW B7 : ... .. . ... ... ... : ... .. 0 ... ... ... : ... .. . ... : ... .. 3 ... : ... .. . ... ... : ... .. 4 ... ... : ... .. 4 ... ... : ... .. . ... ...
ROW B8 : ... .. . ... ... ... : G-4 00 3 P80 ... ... : --- .. . ... : ... .. 1 ... : ... .. . ... ... : ... .. . ... ... : ... .. . ... ... : ... .. 1 ... ...
ROW B9 : ... .. 1 ... ... ... : ... .. 4 ... ... ... : ... .. . ... : ... .. . ... : ... .. . ... ... : ... .. . ... ... : ... .. . ... ... : ... .. . ... ...
ROW BA : ... .. F ... ... ... : D-4 00 8 ... ... ... : B-2 00 . ... : ... .. A ... : ... .. . ... ... : --- .. . ... ... : --- .. . P83 ... : ... .. A ... ...
ROW BB : ... .. E ... ... ... : ... .. 3 ... ... ... : ... .. . ... : ... .. 8 ... : ... .. . ... ... : ... .. . ... ... : ... .. . ... ... : ... .. 8 ... ...
ROW BC : ... .. D ... ... ... : ... .. 0 ... ... ... : ... .. . ... : ... .. 4 ... : ... .. . ... ... : ... .. . ... ... : ... .. . ... ... : ... .. 5 ... ...
ROW BD : ... .. A ... ... ... : D-4 00 3 P80 ... ... : ... .. . ... : ... .. 2 ... : ... .. . ... ... : ... .. . ... ... : ... .. . ... ... : ... .. . ... ...
ROW BE : ... .. 2 ... ... ... : ... .. 4 ... ... ... : ... .. . ... : ... .. 1 ... : ... .. . ... ... : ... .. . ... ... : ... .. . ... ... : ... .. 2 ... ...
ROW BF : A-3 00 F ... ... ... : B-3 00 8 ... ... ... : ... .. . ... : ... .. 8 ... : ... .. . ... ... : ... .. . ... ... : ... .. . ... ... : A-2 01 A ... ...
ROW C0 : ... .. E ... ... ... : ... .. 3 ... ... ... : ... .. . ... : ... .. 6 ... : ... .. . ... ... : ... .. . ... ... : ... .. . ... ... : ... .. 8 ... ...
ROW C1 : ... .. D ... ... ... : ... .. 0 ... ... ... : ... .. . ... : ... .. 3 ... : ... .. . ... ... : ... .. . ... ... : ... .. . ... ... : ... .. 5 ... ...
ROW C2 : ... .. A ... ... ... : B-3 00 3 P80 ... ... : --- .. . ... : ... .. 1 ... : ... .. . ... ... : ... .. . ... ... : ... .. . ... ... : ... .. . ... ...
ROW C3 : ... .. 2 ... ... ... : ... .. 4 ... ... ... : ... .. . ... : ... .. . ... : ... .. . ... ... : ... .. . ... ... : ... .. . ... ... : ... .. 2 ... ...
ROW C4 : B-3 00 F ... ... ... : G-3 00 8 ... ... ... : G-4 00 . ... : 1-# 00 D ... : ... .. . ... ... : A-3 01 7 ... ... : D-3 01 7 P81 ... : B-2 01 A ... ...
ROW C5 : ... .. E ... ... ... : ... .. 3 ... ... ... : ... .. . ... : ... .. . ... : ... .. . ... ... : ... .. 6 ... ... : ... .. 6 ... ... : ... .. 8 ... ...
ROW C6 : ... .. D ... ... ... : ... .. 0 ... ... ... : ... .. . ... : D-# 00 D ... : ... .. . ... ... : ... .. . ... ... : ... .. . ... ... : ... .. 5 ... ...
ROW C7 : ... .. A ... ... ... : G-3 00 3 P80 ... ... : ... .. . ... : B-# 00 6 ... : ... .. . ... ... : --- .. . ... ... : --- .. . P83 ... : ... .. . ... ...
ROW C8 : ... .. . ... ... ... : ... .. 4 ... ... ... : --- .. . ... : 7-# 00 1 ... : ... .. . ... ... : ... .. . ... ... : ... .. . ... ... : ... .. . ... ...
ROW C9 : ... .. . ... ... ... : D-3 00 8 ... ... ... : G-4 00 . ... : D-# 00 8 ... : ... .. . ... ... : A-3 01 7 ... ... : D-3 01 7 P81 ... : ... .. . ... ...
ROW CA : ... .. . ... ... ... : ... .. 3 ... ... ... : ... .. . ... : ... .. 6 ... : ... .. . ... ... : ... .. 6 ... ... : ... .. 6 ... ... : ... .. . ... ...
ROW CB : ... .. . ... ... ... : ... .. 0 ... ... ... : ... .. . ... : ... .. 3 ... : ... .. . ... ... : ... .. . ... ... : ... .. . ... ... : ... .. . ... ...
ROW CC : ... .. . ... ... ... : D-3 00 3 P80 ... ... : ... .. . ... : ... .. 1 ... : ... .. . ... ... : --- .. . ... ... : --- .. . P83 ... : ... .. . ... ...
ROW CD : ... .. . ... ... ... : ... .. 4 ... ... ... : --- .. . ... : ... .. . ... : ... .. . ... ... : ... .. . ... ... : ... .. . ... ... : ... .. . ... ...
ROW CE : ... .. . ... ... ... : B-2 00 8 ... ... ... : D-3 00 . ... : ... .. A ... : ... .. . ... ... : A-3 01 7 ... ... : D-3 01 7 P81 ... : ... .. . ... ...
ROW CF : ... .. . ... ... ... : ... .. 3 ... ... ... : ... .. . ... : ... .. 8 ... : ... .. . ... ... : ... .. 6 ... ... : ... .. 6 ... ... : ... .. . ... ...
ROW D0 : ... .. . ... ... ... : ... .. 0 ... ... ... : ... .. . ... : ... .. 4 ... : ... .. . ... ... : ... .. . ... ... : ... .. . ... ... : ... .. . ... ...
ROW D1 : ... .. . ... ... ... : B-2 00 3 P80 ... ... : ... .. . ... : ... .. 2 ... : ... .. . ... ... : ... .. . ... ... : ... .. . ... ... : ... .. . ... ...
ROW D2 : ... .. . ... ... ... : ... .. 4 ... ... ... : --- .. . ... : ... .. 1 ... : ... .. . ... ... : ... .. 5 ... ... : ... .. 5 ... ... : ... .. . ... ...
ROW D3 : ... .. . ... ... ... : G-2 00 8 ... ... ... : D-3 00 . ... : ... .. 8 ... : ... .. . ... ... : ... .. . ... ... : ... .. . ... ... : ... .. . ... ...
ROW D4 : ... .. . ... ... ... : ... .. 3 ... ... ... : ... .. . ... : ... .. 6 ... : ... .. . ... ... : ... .. . ... ... : ... .. . ... ... : ... .. . ... ...
ROW D5 : ... .. . ... ... ... : ... .. 0 ... ... ... : ... .. . ... : ... .. 3 ... : ... .. . ... ... : ... .. 4 ... ... : ... .. 4 ... ... : ... .. . ... ...
ROW D6 : ... .. . ... ... ... : G-2 00 3 P80 ... ... : ... .. . ... : ... .. 1 ... : ... .. . ... ... : ... .. . ... ... : ... .. . ... ... : ... .. . ... ...
ROW D7 : ... .. . ... ... ... : ... .. 4 ... ... ... : --- .. . ... : ... .. . ... : ... .. . ... ... : ... .. . ... ... : ... .. . ... ... : ... .. . ... ...
ROW D8 : ... .. . P84 ... ... : B-4 00 8 ... ... ... : B-1 00 . ... : 1-# 00 F ... : ... .. . ... ... : --- .. . ... ... : --- .. . P83 ... : ... .. . ... ...
ROW D9 : ... .. . P86 ... ... : ... .. 3 ... ... ... : ... .. . ... : ... .. C ... : ... .. . ... ... : ... .. . ... ... : ... .. . ... ... : ... .. . ... ...
ROW DA : ... .. . P84 ... ... : ... .. 0 ... ... ... : ... .. . ... : ... .. 6 ... : ... .. . ... ... : ... .. . ... ... : ... .. . ... ... : ... .. . ... ...
ROW DB : ... .. . P80 ... ... : B-4 00 3 P80 ... ... : ... .. . ... : ... .. 3 ... : ... .. . ... ... : ... .. . ... ... : ... .. . ... ... : ... .. . ... ...
ROW DC : ... .. . P7C ... ... : ... .. 4 ... ... ... : ... .. . ... : ... .. 2 ... : ... .. . ... ... : ... .. . ... ... : ... .. . ... ... : ... .. . ... ...
ROW DD : ... .. . P7A ... ... : G-4 00 8 ... ... ... : ... .. . ... : D-# 00 8 ... : ... .. . ... ... : ... .. . ... ... : ... .. . ... ... : ... .. . ... ...
ROW DE : ... .. . P7C ... ... : ... .. 3 ... ... ... : ... .. . ... : ... .. 6 ... : ... .. . ... ... : ... .. . ... ... : ... .. . ... ... : ... .. . ... ...
ROW DF : ... .. . P80 ... ... : ... .. 0 ... ... ... : ... .. . ... : ... .. 3 ... : ... .. . ... ... : ... .. . ... ... : ... .. . ... ... : ... .. . ... ...
ROW E0 : ... .. . P84 ... ... : G-4 00 3 P80 ... ... : --- .. . ... : ... .. 1 ... : ... .. . ... ... : ... .. . ... ... : ... .. . ... ... : ... .. . ... ...
ROW E1 : ... .. . P86 ... ... : ... .. 4 ... ... ... : ... .. . ... : ... .. . ... : ... .. . ... ... : ... .. . ... ... : ... .. . ... ... : ... .. . ... ...
ROW E2 : ... .. . P84 ... ... : D-4 00 8 ... ... ... : B-1 00 . ... : ... .. A ... : ... .. . ... ... : D-3 01 7 ... ... : G-2 01 7 P81 ... : ... .. . ... ...
ROW E3 : ... .. . P80 ... ... : ... .. 3 ... ... ... : ... .. . ... : ... .. 8 ... : ... .. . ... ... : ... .. 6 ... ... : ... .. 6 ... ... : ... .. . ... ...
ROW E4 : ... .. . P7C ... ... : ... .. 0 ... ... ... : ... .. . ... : ... .. 4 ... : ... .. . ... ... : ... .. . ... ... : ... .. . ... ... : ... .. . ... ...
ROW E5 : ... .. . P7A ... ... : D-4 00 3 P80 ... ... : ... .. . ... : ... .. 2 ... : ... .. . ... ... : --- .. . P81 ... : --- .. . P7F ... : ... .. . ... ...
ROW E6 : ... .. . P7C ... ... : ... .. 4 ... ... ... : ... .. . ... : ... .. 1 ... : ... .. . ... ... : ... .. . ... ... : ... .. . ... ... : ... .. . ... ...
ROW E7 : ... .. . P80 ... ... : B-3 00 8 ... ... ... : ... .. . ... : ... .. 8 ... : ... .. . ... ... : D-3 01 7 P7F ... : G-2 01 7 P81 ... : ... .. . ... ...
ROW E8 : ... .. 2 P84 ... ... : ... .. 3 ... ... ... : ... .. . ... : ... .. 6 ... : ... .. . ... ... : ... .. 6 ... ... : ... .. 6 ... ... : ... .. 2 ... ...
ROW E9 : ... .. . P86 ... ... : ... .. 0 ... ... ... : ... .. . ... : ... .. 3 ... : ... .. . ... ... : ... .. . ... ... : ... .. . ... ... : ... .. . ... ...
ROW EA : ... .. . P84 ... ... : B-3 00 3 P80 ... ... : --- .. . ... : ... .. 1 ... : ... .. . ... ... : --- .. . P81 ... : --- .. . P7F ... : ... .. 1 ... ...
ROW EB : ... .. 1 P80 ... ... : ... .. 4 ... ... ... : ... .. . ... : ... .. . ... : ... .. . ... ... : ... .. . ... ... : ... .. . ... ... : ... .. . ... ...
ROW EC : G-3 00 F ... ... ... : G-3 00 8 ... ... ... : D-4 00 . ... : 1-# 00 D ... : ... .. . ... ... : A-3 01 7 P7F ... : D-3 01 7 P81 ... : G-2 01 A ... ...
ROW ED : ... .. E ... ... ... : ... .. 3 ... ... ... : ... .. . ... : ... .. . ... : ... .. . ... ... : ... .. 6 ... ... : ... .. 6 ... ... : ... .. 8 ... ...
ROW EE : ... .. D ... ... ... : ... .. 0 ... ... ... : ... .. . ... : D-# 00 D ... : ... .. . ... ... : ... .. . ... ... : ... .. . ... ... : ... .. 5 ... ...
ROW EF : ... .. A ... ... ... : G-3 00 3 P80 ... ... : ... .. . ... : B-# 00 6 ... : ... .. . ... ... : ... .. . ... ... : ... .. . ... ... : ... .. . ... ...
ROW F0 : ... .. . ... ... ... : ... .. 4 ... ... ... : --- .. . ... : 7-# 00 1 ... : ... .. . ... ... : ... .. 5 ... ... : ... .. 5 ... ... : ... .. . ... ...
ROW F1 : ... .. . ... ... ... : D-3 00 8 ... ... ... : D-4 00 . ... : D-# 00 8 ... : ... .. . ... ... : --- .. . ... ... : --- .. . P83 ... : ... .. . ... ...
ROW F2 : ... .. . ... ... ... : ... .. 3 ... ... ... : ... .. . ... : ... .. 6 ... : ... .. . ... ... : ... .. . ... ... : ... .. . ... ... : ... .. . ... ...
ROW F3 : ... .. . ... ... ... : ... .. 0 ... ... ... : ... .. . ... : ... .. 3 ... : ... .. . ... ... : ... .. . ... ... : ... .. . ... ... : ... .. . ... ...
ROW F4 : ... .. . ... ... ... : D-3 00 3 P80 ... ... : ... .. . ... : ... .. 1 ... : ... .. . ... ... : ... .. . ... ... : ... .. . ... ... : ... .. . ... ...
ROW F5 : ... .. . ... ... ... : ... .. 4 ... ... ... : --- .. . ... : ... .. . ... : ... .. . ... ... : ... .. . ... ... : ... .. . ... ... : ... .. . ... ...
ROW F6 : B-3 00 F ... ... ... : B-2 00 8 ... ... ... : D-3 00 . ... : ... .. A ... : ... .. . ... ... : D-3 01 7 ... ... : G-2 01 7 P81 ... : B-2 01 A ... ...
ROW F7 : ... .. E ... ... ... : ... .. 3 ... ... ... : ... .. . ... : ... .. 8 ... : ... .. . ... ... : ... .. 6 ... ... : ... .. 6 ... ... : ... .. 8 ... ...
ROW F8 : ... .. D ... ... ... : ... .. 0 ... ... ... : ... .. . ... : ... .. 4 ... : ... .. . ... ... : ... .. . ... ... : ... .. . ... ... : ... .. 5 ... ...
ROW F9 : ... .. A ... ... ... : B-2 00 3 P80 ... ... : ... .. . ... : ... .. 2 ... : ... .. . ... ... : --- .. . P81 ... : --- .. . P7F ... : ... .. . ... ...
ROW FA : ... .. . ... ... ... : ... .. 4 ... ... ... : --- .. . ... : ... .. 1 ... : ... .. . ... ... : ... .. . ... ... : ... .. . ... ... : ... .. . ... ...
ROW FB : ... .. . ... ... ... : G-2 00 8 ... ... ... : D-3 00 . ... : ... .. 8 ... : ... .. . ... ... : D-3 01 7 P7F ... : G-2 01 7 P81 ... : ... .. . ... ...
ROW FC : ... .. 2 ... ... ... : ... .. 3 ... ... ... : ... .. . ... : ... .. 6 ... : ... .. . ... ... : ... .. 6 ... ... : ... .. 6 ... ... : ... .. 2 ... ...
ROW FD : ... .. . ... ... ... : ... .. 0 ... ... ... : ... .. . ... : ... .. 3 ... : ... .. . ... ... : ... .. . ... ... : ... .. . ... ... : ... .. . ... ...
ROW FE : ... .. . ... ... ... : G-2 00 3 P80 ... ... : ... .. . ... : ... .. 1 ... : ... .. . ... ... : --- .. . P81 ... : --- .. . P7F ... : ... .. 1 ... ...
ROW FF : ... .. 1 ... ... ... : ... .. 4 ... ... ... : --- .. . ... : ... .. . ... : ... .. . ... ... : ... .. . ... ... : ... .. . ... ... : ... .. . ... ...

PATTERN 05
ROW 00 : A-3 00 F ... ... ... : A#4 00 8 ... ... ... : A#2 00 . ... : 1-# 00 F ... : ... .. . ... ... : A-3 01 7 P7F ... : D-3 01 7 P81 ... : A-2 01 A ... ...
ROW 01 : ... .. E ... ... ... : ... .. 3 ... ... ... : ... .. . ... : ... .. C ... : ... .. . ... ... : ... .. 6 ... ... : ... .. 6 ... ... : ... .. 8 ... ...
ROW 02 : ... .. D ... ... ... : ... .. 0 ... ... ... : ... .. . ... : ... .. 6 ... : ... .. . ... ... : ... .. . ... ... : ... .. . ... ... : ... .. 5 ... ...
ROW 03 : ... .. A ... ... ... : A#4 00 3 P80 ... ... : ... .. . ... : ... .. 3 ... : ... .. . ... ... : ... .. . ... ... : ... .. . ... ... : ... .. . ... ...
ROW 04 : ... .. . ... ... ... : ... .. 4 ... ... ... : ... .. . ... : ... .. 2 ... : ... .. . ... ... : ... .. 5 ... ... : ... .. 5 ... ... : ... .. . ... ...
ROW 05 : ... .. . ... ... ... : F-4 00 8 ... ... ... : ... .. . ... : D-# 00 8 ... : ... .. . ... ... : ... .. . ... ... : ... .. . ... ... : ... .. . ... ...
ROW 06 : ... .. . ... ... ... : ... .. 3 ... ... ... : ... .. . ... : ... .. 6 ... : ... .. . ... ... : ... .. . ... ... : ... .. . ... ... : ... .. . ... ...
ROW 07 : ... .. . ... ... ... : ... .. 0 ... ... ... : ... .. . ... : ... .. 3 ... : ... .. . ... ... : ... .. 4 ... ... : ... .. 4 ... ... : ... .. . ... ...
ROW 08 : ... .. . ... ... ... : F-4 00 3 P80 ... ... : --- .. . ... : ... .. 1 ... : ... .. . ... ... : ... .. . ... ... : ... .. . ... ... : ... .. . ... ...
ROW 09 : ... .. . ... ... ... : ... .. 4 ... ... ... : ... .. . ... : ... .. . ... : ... .. . ... ... : ... .. . ... ... : ... .. . ... ... : ... .. . ... ...
ROW 0A : ... .. . ... ... ... : D-4 00 8 ... ... ... : A#2 00 . ... : ... .. A ... : ... .. . ... ... : --- .. . ... ... : --- .. . P83 ... : ... .. . ... ...
ROW 0B : ... .. . ... ... ... : ... .. 3 ... ... ... : ... .. . ... : ... .. 8 ... : ... .. . ... ... : ... .. . ... ... : ... .. . ... ... : ... .. . ... ...
ROW 0C : ... .. . ... ... ... : ... .. 0 ... ... ... : ... .. . ... : ... .. 4 ... : ... .. . ... ... : ... .. . ... ... : ... .. . ... ... : ... .. . ... ...
ROW 0D : ... .. . ... ... ... : D-4 00 3 P80 ... ... : ... .. . ... : ... .. 2 ... : ... .. . ... ... : ... .. . ... ... : ... .. . ... ... : ... .. . ... ...
ROW 0E : ... .. . ... ... ... : ... .. 4 ... ... ... : ... .. . ... : ... .. 1 ... : ... .. . ... ... : ... .. . ... ... : ... .. . ... ... : ... .. . ... ...
ROW 0F : ... .. . ... ... ... : A#3 00 8 ... ... ... : ... .. . ... : ... .. 8 ... : ... .. . ... ... : ... .. . ... ... : ... .. . ... ... : ... .. . ... ...
ROW 10 : ... .. . ... ... ... : ... .. 3 ... ... ... : ... .. . ... : ... .. 6 ... : ... .. . ... ... : ... .. . ... ... : ... .. . ... ... : ... .. . ... ...
ROW 11 : ... .. . ... ... ... : ... .. 0 ... ... ... : ... .. . ... : ... .. 3 ... : ... .. . ... ... : ... .. . ... ... : ... .. . ... ... : ... .. . ... ...
ROW 12 : ... .. . ... ... ... : A#3 00 3 P80 ... ... : --- .. . ... : ... .. 1 ... : ... .. . ... ... : ... .. . ... ... : ... .. . ... ... : ... .. . ... ...
ROW 13 : ... .. . ... ... ... : ... .. 4 ... ... ... : ... .. . ... : ... .. . ... : ... .. . ... ... : ... .. . ... ... : ... .. . ... ... : ... .. . ... ...
ROW 14 : ... .. . ... ... ... : F-3 00 8 ... ... ... : F-4 00 . ... : 1-# 00 D ... : ... .. . ... ... : A-3 01 7 ... ... : D-3 01 7 P81 ... : ... .. . ... ...
ROW 15 : ... .. 2 ... ... ... : ... .. 3 ... ... ... : ... .. . ... : ... .. . ... : ... .. . ... ... : ... .. 6 ... ... : ... .. 6 ... ... : ... .. 2 ... ...
ROW 16 : ... .. . ... ... ... : ... .. 0 ... ... ... : ... .. . ... : D-# 00 D ... : ... .. . ... ... : ... .. . ... ... : ... .. . ... ... : ... .. . ... ...
ROW 17 : ... .. . ... ... ... : F-3 00 3 P80 ... ... : ... .. . ... : B-# 00 6 ... : ... .. . ... ... : --- .. . ... ... : --- .. . P83 ... : ... .. 1 ... ...
ROW 18 : ... .. 1 ... ... ... : ... .. 4 ... ... ... : --- .. . ... : 7-# 00 1 ... : ... .. . ... ... : ... .. . ... ... : ... .. . ... ... : ... .. . ... ...
ROW 19 : ... .. . ... ... ... : D-3 00 8 ... ... ... : F-4 00 . ... : D-# 00 8 ... : ... .. . ... ... : A-3 01 7 ... ... : D-3 01 7 P81 ... : ... .. . ... ...
ROW 1A : ... .. . ... ... ... : ... .. 3 ... ... ... : ... .. . ... : ... .. 6 ... : ... .. . ... ... : ... .. 6 ... ... : ... .. 6 ... ... : ... .. . ... ...
ROW 1B : ... .. 0 ... ... ... : ... .. 0 ... ... ... : ... .. . ... : ... .. 3 ... : ... .. . ... ... : ... .. . ... ... : ... .. . ... ... : ... .. . ... ...
ROW 1C : ... .. . ... ... ... : D-3 00 3 P80 ... ... : ... .. . ... : ... .. 1 ... : ... .. . ... ... : --- .. . ... ... : --- .. . P83 ... : ... .. . ... ...
ROW 1D : ... .. . ... ... ... : ... .. 4 ... ... ... : --- .. . ... : ... .. . ... : ... .. . ... ... : ... .. . ... ... : ... .. . ... ... : ... .. . ... ...
ROW 1E : D-3 00 F P80 ... ... : A#2 00 8 ... ... ... : A#2 00 . ... : ... .. A ... : ... .. . ... ... : A-3 01 7 ... ... : D-3 01 7 P81 ... : D-2 01 A ... ...
ROW 1F : ... .. E ... ... ... : ... .. 3 ... ... ... : ... .. . ... : ... .. 8 ... : ... .. . ... ... : ... .. 6 ... ... : ... .. 6 ... ... : ... .. 8 ... ...
ROW 20 : ... .. D ... ... ... : ... .. 0 ... ... ... : ... .. . ... : ... .. 4 ... : ... .. . ... ... : ... .. . ... ... : ... .. . ... ... : ... .. 5 ... ...
ROW 21 : ... .. A ... ... ... : A#2 00 3 P80 ... ... : ... .. . ... : ... .. 2 ... : ... .. . ... ... : ... .. . ... ... : ... .. . ... ... : ... .. . ... ...
ROW 22 : ... .. . ... ... ... : ... .. 4 ... ... ... : --- .. . ... : ... .. 1 ... : ... .. . ... ... : ... .. 5 ... ... : ... .. 5 ... ... : ... .. . ... ...
ROW 23 : ... .. . ... ... ... : F-2 00 8 ... ... ... : A#2 00 . ... : ... .. 8 ... : ... .. . ... ... : ... .. . ... ... : ... .. . ... ... : ... .. . ... ...
ROW 24 : ... .. 2 ... ... ... : ... .. 3 ... ... ... : ... .. . ... : ... .. 6 ... : ... .. . ... ... : ... .. . ... ... : ... .. . ... ... : ... .. 2 ... ...
ROW 25 : ... .. . ... ... ... : ... .. 0 ... ... ... : ... .. . ... : ... .. 3 ... : ... .. . ... ... : ... .. 4 ... ... : ... .. 4 ... ... : ... .. . ... ...
ROW 26 : ... .. . ... ... ... : F-2 00 3 P80 ... ... : ... .. . ... : ... .. 1 ... : ... .. . ... ... : ... .. . ... ... : ... .. . ... ... : ... .. 1 ... ...
ROW 27 : ... .. 1 ... ... ... : ... .. 4 ... ... ... : --- .. . ... : ... .. . ... : ... .. . ... ... : ... .. . ... ... : ... .. . ... ... : ... .. . ... ...
ROW 28 : ... .. F ... ... ... : A#4 00 8 ... ... ... : C-3 00 . ... : 1-# 00 F ... : ... .. . ... ... : --- .. . ... ... : --- .. . P83 ... : ... .. A ... ...
ROW 29 : ... .. E ... ... ... : ... .. 3 ... ... ... : ... .. . ... : ... .. C ... : ... .. . ... ... : ... .. . ... ... : ... .. . ... ... : ... .. 8 ... ...
ROW 2A : ... .. D ... ... ... : ... .. 0 ... ... ... : ... .. . ... : ... .. 6 ... : ... .. . ... ... : ... .. . ... ... : ... .. . ... ... : ... .. 5 ... ...
ROW 2B : ... .. A ... ... ... : A#4 00 3 P80 ... ... : ... .. . ... : ... .. 3 ... : ... .. . ... ... : ... .. . ... ... : ... .. . ... ... : ... .. . ... ...
ROW 2C : ... .. . ... ... ... : ... .. 4 ... ... ... : ... .. . ... : ... .. 2 ... : ... .. . ... ... : ... .. . ... ... : ... .. . ... ... : ... .. . ... ...
ROW 2D : ... .. . ... ... ... : F-4 00 8 ... ... ... : ... .. . ... : D-# 00 8 ... : ... .. . ... ... : ... .. . ... ... : ... .. . ... ... : ... .. . ... ...
ROW 2E : ... .. . ... ... ... : ... .. 3 ... ... ... : ... .. . ... : ... .. 6 ... : ... .. . ... ... : ... .. . ... ... : ... .. . ... ... : ... .. . ... ...
ROW 2F : ... .. . ... ... ... : ... .. 0 ... ... ... : ... .. . ... : ... .. 3 ... : ... .. . ... ... : ... .. . ... ... : ... .. . ... ... : ... .. . ... ...
ROW 30 : ... .. . ... ... ... : F-4 00 3 P80 ... ... : --- .. . ... : ... .. 1 ... : ... .. . ... ... : ... .. . ... ... : ... .. . ... ... : ... .. . ... ...
ROW 31 : ... .. . ... ... ... : ... .. 4 ... ... ... : ... .. . ... : ... .. . ... : ... .. . ... ... : ... .. . ... ... : ... .. . ... ... : ... .. . ... ...
ROW 32 : ... .. . ... ... ... : D-4 00 8 ... ... ... : C-3 00 . ... : ... .. A ... : ... .. . ... ... : A-3 01 7 ... ... : D-3 01 7 P81 ... : ... .. . ... ...
ROW 33 : ... .. . ... ... ... : ... .. 3 ... ... ... : ... .. . ... : ... .. 8 ... : ... .. . ... ... : ... .. 6 ... ... : ... .. 6 ... ... : ... .. . ... ...
ROW 34 : ... .. . ... ... ... : ... .. 0 ... ... ... : ... .. . ... : ... .. 4 ... : ... .. . ... ... : ... .. . ... ... : ... .. . ... ... : ... .. . ... ...
ROW 35 : ... .. . ... ... ... : D-4 00 3 P80 ... ... : ... .. . ... : ... .. 2 ... : ... .. . ... ... : --- .. . ... ... : --- .. . P83 ... : ... .. . ... ...
ROW 36 : ... .. . ... ... ... : ... .. 4 ... ... ... : ... .. . ... : ... .. 1 ... : ... .. . ... ... : ... .. . ... ... : ... .. . ... ... : ... .. . ... ...
ROW 37 : ... .. . ... ... ... : A#3 00 8 ... ... ... : ... .. . ... : ... .. 8 ... : ... .. . ... ... : A-3 01 7 ... ... : D-3 01 7 P81 ... : ... .. . ... ...
ROW 38 : ... .. . ... ... ... : ... .. 3 ... ... ... : ... .. . ... : ... .. 6 ... : ... .. . ... ... : ... .. 6 ... ... : ... .. 6 ... ... : ... .. . ... ...
ROW 39 : ... .. . ... ... ... : ... .. 0 ... ... ... : ... .. . ... : ... .. 3 ... : ... .. . ... ... : ... .. . ... ... : ... .. . ... ... : ... .. . ... ...
ROW 3A : ... .. . ... ... ... : A#3 00 3 P80 ... ... : --- .. . ... : ... .. 1 ... : ... .. . ... ... : --- .. . ... ... : --- .. . P83 ... : ... .. . ... ...
ROW 3B : ... .. . ... ... ... : ... .. 4 ... ... ... : ... .. . ... : ... .. . ... : ... .. . ... ... : ... .. . ... ... : ... .. . ... ... : ... .. . ... ...
ROW 3C : ... .. . P84 ... ... : F-3 00 8 ... ... ... : E-4 00 . ... : 1-# 00 D ... : ... .. . ... ... : A-3 01 7 ... ... : D-3 01 7 P81 ... : ... .. . ... ...
ROW 3D : ... .. . P86 ... ... : ... .. 3 ... ... ... : ... .. . ... : ... .. . ... : ... .. . ... ... : ... .. 6 ... ... : ... .. 6 ... ... : ... .. . ... ...
ROW 3E : ... .. . P84 ... ... : ... .. 0 ... ... ... : ... .. . ... : D-# 00 D ... : ... .. . ... ... : ... .. . ... ... : ... .. . ... ... : ... .. . ... ...
ROW 3F : ... .. . P80 ... ... : F-3 00 3 P80 ... ... : ... .. . ... : B-# 00 6 ... : ... .. . ... ... : ... .. . ... ... : ... .. . ... ... : ... .. . ... ...
ROW 40 : ... .. . P7C ... ... : ... .. 4 ... ... ... : --- .. . ... : 7-# 00 1 ... : ... .. . ... ... : ... .. 5 ... ... : ... .. 5 ... ... : ... .. . ... ...
ROW 41 : ... .. . P7A ... ... : D-3 00 8 ... ... ... : E-4 00 . ... : D-# 00 8 ... : ... .. . ... ... : --- .. . ... ... : --- .. . P83 ... : ... .. . ... ...
ROW 42 : ... .. . P7C ... ... : ... .. 3 ... ... ... : ... .. . ... : ... .. 6 ... : ... .. . ... ... : ... .. . ... ... : ... .. . ... ... : ... .. . ... ...
ROW 43 : ... .. . P80 ... ... : ... .. 0 ... ... ... : ... .. . ... : ... .. 3 ... : ... .. . ... ... : ... .. . ... ... : ... .. . ... ... : ... .. . ... ...
ROW 44 : ... .. . P84 ... ... : D-3 00 3 P80 ... ... : ... .. . ... : ... .. 1 ... : ... .. . ... ... : ... .. . ... ... : ... .. . ... ... : ... .. . ... ...
ROW 45 : ... .. . P86 ... ... : ... .. 4 ... ... ... : --- .. . ... : ... .. . ... : ... .. . ... ... : ... .. . ... ... : ... .. . ... ... : ... .. . ... ...
ROW 46 : ... .. . P84 ... ... : A#2 00 8 ... ... ... : C-3 00 . ... : ... .. A ... : ... .. . ... ... : D-3 01 7 ... ... : G-2 01 7 P81 ... : ... .. . ... ...
ROW 47 : ... .. . P80 ... ... : ... .. 3 ... ... ... : ... .. . ... : ... .. 8 ... : ... .. . ... ... : ... .. 6 ... ... : ... .. 6 ... ... : ... .. . ... ...
ROW 48 : ... .. . P7C ... ... : ... .. 0 ... ... ... : ... .. . ... : ... .. 4 ... : ... .. . ... ... : ... .. . ... ... : ... .. . ... ... : ... .. . ... ...
ROW 49 : ... .. . P7A ... ... : A#2 00 3 P80 ... ... : ... .. . ... : ... .. 2 ... : ... .. . ... ... : ... .. . ... ... : ... .. . ... ... : ... .. . ... ...
ROW 4A : ... .. . P7C ... ... : ... .. 4 ... ... ... : --- .. . ... : ... .. 1 ... : ... .. . ... ... : ... .. 5 ... ... : ... .. 5 ... ... : ... .. . ... ...
ROW 4B : ... .. . P80 ... ... : F-2 00 8 ... ... ... : C-3 00 . ... : ... .. 8 ... : ... .. . ... ... : --- .. . P81 ... : --- .. . P7F ... : ... .. . ... ...
ROW 4C : ... .. 2 P84 ... ... : ... .. 3 ... ... ... : ... .. . ... : ... .. 6 ... : ... .. . ... ... : ... .. . ... ... : ... .. . ... ... : ... .. 2 ... ...
ROW 4D : ... .. . P86 ... ... : ... .. 0 ... ... ... : ... .. . ... : ... .. 3 ... : ... .. . ... ... : ... .. . ... ... : ... .. . ... ... : ... .. . ... ...
ROW 4E : ... .. . P84 ... ... : F-2 00 3 P80 ... ... : ... .. . ... : ... .. 1 ... : ... .. . ... ... : ... .. . ... ... : ... .. . ... ... : ... .. 1 ... ...
ROW 4F : ... .. 1 P80 ... ... : ... .. 4 ... ... ... : --- .. . ... : ... .. . ... : ... .. . ... ... : ... .. . ... ... : ... .. . ... ... : ... .. . ... ...
ROW 50 : D-2 00 D ... ... ... : A-4 00 8 ... ... ... : D-3 00 . ... : 1-# 00 F ... : ... .. . ... ... : A-3 01 7 P7F ... : D-3 01 7 P81 ... : A-4 01 A ... ...
ROW 51 : ... .. B ... ... ... : ... .. 3 ... ... ... : ... .. . ... : ... .. C ... : ... .. . ... ... : ... .. 6 ... ... : ... .. 6 ... ... : ... .. 8 ... ...
ROW 52 : ... .. . ... ... ... : ... .. 0 ... ... ... : ... .. . ... : ... .. 6 ... : ... .. . ... ... : ... .. . ... ... : ... .. . ... ... : ... .. 5 ... ...
ROW 53 : ... .. A ... ... ... : A-4 00 3 P80 ... ... : ... .. . ... : ... .. 3 ... : ... .. . ... ... : ... .. . ... ... : ... .. . ... ... : ... .. . ... ...
ROW 54 : ... .. 8 ... ... ... : ... .. 4 ... ... ... : ... .. . ... : ... .. 2 ... : ... .. . ... ... : ... .. 5 ... ... : ... .. 5 ... ... : ... .. . ... ...
ROW 55 : F-2 00 D ... ... ... : G-4 00 8 ... ... ... : ... .. . ... : D-# 00 8 ... : ... .. . ... ... : ... .. . ... ... : ... .. . ... ... : ... .. . ... ...
ROW 56 : ... .. B ... ... ... : ... .. 3 ... ... ... : ... .. . ... : ... .. 6 ... : ... .. . ... ... : ... .. . ... ... : ... .. . ... ... : ... .. . ... ...
ROW 57 : ... .. . ... ... ... : ... .. 0 ... ... ... : ... .. . ... : ... .. 3 ... : ... .. . ... ... : ... .. 4 ... ... : ... .. 4 ... ... : ... .. . ... ...
ROW 58 : ... .. A ... ... ... : G-4 00 3 P80 ... ... : --- .. . ... : ... .. 1 ... : ... .. . ... ... : ... .. . ... ... : ... .. . ... ... : ... .. . ... ...
ROW 59 : ... .. 8 ... ... ... : ... .. 4 ... ... ... : ... .. . ... : ... .. . ... : ... .. . ... ... : ... .. . ... ... : ... .. . ... ... : ... .. . ... ...
ROW 5A : G-2 00 D ... ... ... : D-4 00 8 ... ... ... : D-3 00 . ... : ... .. A ... : ... .. . ... ... : --- .. . ... ... : --- .. . P83 ... : ... .. . ... ...
ROW 5B : ... .. B ... ... ... : ... .. 3 ... ... ... : ... .. . ... : ... .. 8 ... : ... .. . ... ... : ... .. . ... ... : ... .. . ... ... : ... .. . ... ...
ROW 5C : ... .. . ... ... ... : ... .. 0 ... ... ... : ... .. . ... : ... .. 4 ... : ... .. . ... ... : ... .. . ... ... : ... .. . ... ... : ... .. . ... ...
ROW 5D : ... .. A ... ... ... : D-4 00 3 P80 ... ... : ... .. . ... : ... .. 2 ... : ... .. . ... ... : ... .. . ... ... : ... .. . ... ... : ... .. . ... ...
ROW 5E : ... .. 8 ... ... ... : ... .. 4 ... ... ... : ... .. . ... : ... .. 1 ... : ... .. . ... ... : ... .. . ... ... : ... .. . ... ... : ... .. . ... ...
ROW 5F : A-2 00 D ... ... ... : A-3 00 8 ... ... ... : ... .. . ... : ... .. 8 ... : ... .. . ... ... : ... .. . ... ... : ... .. . ... ... : ... .. . ... ...
ROW 60 : ... .. B ... ... ... : ... .. 3 ... ... ... : ... .. . ... : ... .. 6 ... : ... .. . ... ... : ... .. . ... ... : ... .. . ... ... : ... .. . ... ...
ROW 61 : ... .. . ... ... ... : ... .. 0 ... ... ... : ... .. . ... : ... .. 3 ... : ... .. . ... ... : ... .. . ... ... : ... .. . ... ... : ... .. . ... ...
ROW 62 : ... .. A ... ... ... : A-3 00 3 P80 ... ... : --- .. . ... : ... .. 1 ... : ... .. . ... ... : ... .. . ... ... : ... .. . ... ... : ... .. . ... ...
ROW 63 : ... .. 8 ... ... ... : ... .. 4 ... ... ... : ... .. . ... : ... .. . ... : ... .. . ... ... : ... .. . ... ... : ... .. . ... ... : ... .. . ... ...
ROW 64 : D-3 00 D ... ... ... : G-3 00 8 ... ... ... : D-4 00 . ... : 1-# 00 D ... : ... .. . ... ... : A-3 01 7 ... ... : D-3 01 7 P81 ... : ... .. . P83 ...
ROW 65 : ... .. B ... ... ... : ... .. 3 ... ... ... : ... .. . ... : ... .. . ... : ... .. . ... ... : ... .. 6 ... ... : ... .. 6 ... ... : ... .. . P84 ...
ROW 66 : ... .. . ... ... ... : ... .. 0 ... ... ... : ... .. . ... : D-# 00 D ... : ... .. . ... ... : ... .. . ... ... : ... .. . ... ... : ... .. . P83 ...
ROW 67 : ... .. A ... ... ... : G-3 00 3 P80 ... ... : ... .. . ... : B-# 00 6 ... : ... .. . ... ... : --- .. . ... ... : --- .. . P83 ... : ... .. . P80 ...
ROW 68 : ... .. 8 ... ... ... : ... .. 4 ... ... ... : ... .. . ... : 7-# 00 1 ... : ... .. . ... ... : ... .. . ... ... : ... .. . ... ... : ... .. . P7D ...
ROW 69 : F-3 00 D ... ... ... : D-3 00 8 ... ... ... : C-4 00 . ... : D-# 00 8 ... : ... .. . ... ... : A-3 01 7 ... ... : D-3 01 7 P81 ... : ... .. . P7C ...
ROW 6A : ... .. B ... ... ... : ... .. 3 ... ... ... : A#3 00 . P82 : ... .. 6 ... : ... .. . ... ... : ... .. 6 ... ... : ... .. 6 ... ... : ... .. 2 P7D ...
ROW 6B : ... .. . ... ... ... : ... .. 0 ... ... ... : G#3 00 . P87 : ... .. 3 ... : ... .. . ... ... : ... .. . ... ... : ... .. . ... ... : ... .. . P80 ...
ROW 6C : ... .. A ... ... ... : D-3 00 3 P80 ... ... : G-3 00 . P7F : ... .. 1 ... : ... .. . ... ... : --- .. . ... ... : --- .. . P83 ... : ... .. 1 P83 ...
ROW 6D : ... .. 8 ... ... ... : ... .. 4 ... ... ... : F#3 00 . P78 : ... .. . ... : ... .. . ... ... : ... .. . ... ... : ... .. . ... ... : ... .. . P84 ...
ROW 6E : G-3 00 D ... ... ... : A-2 00 8 ... ... ... : E-3 00 . P85 : ... .. A ... : ... .. . ... ... : A-3 01 7 ... ... : D-3 01 7 P81 ... : D-4 01 A P80 ...
ROW 6F : ... .. B ... ... ... : ... .. 3 ... ... ... : D#3 00 . P82 : ... .. 8 ... : ... .. . ... ... : ... .. 6 ... ... : ... .. 6 ... ... : ... .. 8 ... ...
ROW 70 : ... .. . ... ... ... : ... .. 0 ... ... ... : D-3 00 . P7F : ... .. 4 ... : ... .. . ... ... : ... .. . ... ... : ... .. . ... ... : ... .. 5 ... ...
ROW 71 : ... .. A ... ... ... : A-2 00 3 P80 ... ... : C#3 00 . P7E : ... .. 2 ... : ... .. . ... ... : ... .. . ... ... : ... .. . ... ... : ... .. . ... ...
ROW 72 : ... .. 8 ... ... ... : ... .. 4 ... ... ... : C-3 00 . ... : ... .. 1 ... : ... .. . ... ... : ... .. 5 ... ... : ... .. 5 ... ... : ... .. . ... ...
ROW 73 : A-3 00 D ... ... ... : G-2 00 8 ... ... ... : B-2 00 . P7F : ... .. 8 ... : ... .. . ... ... : ... .. . ... ... : ... .. . ... ... : ... .. . ... ...
ROW 74 : ... .. B ... ... ... : ... .. 3 ... ... ... : A#2 00 . P82 : ... .. 6 ... : ... .. . ... ... : ... .. . ... ... : ... .. . ... ... : ... .. 2 ... ...
ROW 75 : ... .. . ... ... ... : ... .. 0 ... ... ... : A-2 00 . P86 : ... .. 3 ... : ... .. . ... ... : ... .. 4 ... ... : ... .. 4 ... ... : ... .. . ... ...
ROW 76 : ... .. A ... ... ... : G-2 00 3 P80 ... ... : G#2 00 . P8D : ... .. 1 ... : ... .. . ... ... : ... .. . ... ... : ... .. . ... ... : ... .. 1 ... ...
ROW 77 : ... .. 8 ... ... ... : ... .. 4 ... ... ... : ... .. . P75 : ... .. . ... : ... .. . ... ... : ... .. . ... ... : ... .. . ... ... : ... .. . ... ...
ROW 78 : C-4 00 D ... ... ... : A-4 00 8 ... ... ... : F-2 00 . P80 : 1-# 00 F ... : ... .. . ... ... : --- .. . ... ... : --- .. . P83 ... : ... .. A ... ...
ROW 79 : ... .. B ... ... ... : ... .. 3 ... ... ... : ... .. . ... : ... .. C ... : ... .. . ... ... : ... .. . ... ... : ... .. . ... ... : ... .. 8 ... ...
ROW 7A : ... .. . ... ... ... : ... .. 0 ... ... ... : ... .. . ... : ... .. 6 ... : ... .. . ... ... : ... .. . ... ... : ... .. . ... ... : ... .. 5 ... ...
ROW 7B : ... .. A ... ... ... : A-4 00 3 P80 ... ... : ... .. . ... : B-# 00 8 ... : ... .. . ... ... : ... .. . ... ... : ... .. . ... ... : ... .. . ... ...
ROW 7C : ... .. 8 ... ... ... : ... .. 4 ... ... ... : --- .. . ... : ... .. . ... : ... .. . ... ... : ... .. . ... ... : ... .. . ... ... : ... .. . ... ...
ROW 7D : A-3 00 D ... ... ... : G-4 00 8 ... ... ... : F-2 00 . ... : ... .. 6 ... : ... .. . ... ... : ... .. . ... ... : ... .. . ... ... : ... .. . ... ...
ROW 7E : ... .. B ... ... ... : ... .. 3 ... ... ... : ... .. . ... : ... .. . ... : ... .. . ... ... : ... .. . ... ... : ... .. . ... ... : ... .. . ... ...
ROW 7F : ... .. . ... ... ... : ... .. 0 ... ... ... : ... .. . ... : ... .. . ... : ... .. . ... ... : ... .. . ... ... : ... .. . ... ... : ... .. . ... ...
ROW 80 : ... .. A ... ... ... : G-4 00 3 P80 ... ... : --- .. . ... : ... .. 4 ... : ... .. . ... ... : ... .. . ... ... : ... .. . ... ... : ... .. . ... ...
ROW 81 : ... .. 8 ... ... ... : ... .. 4 ... ... ... : ... .. . ... : ... .. . ... : ... .. . ... ... : ... .. . ... ... : ... .. . ... ... : ... .. . ... ...
ROW 82 : F-3 00 D ... ... ... : D-4 00 8 ... ... ... : F-3 00 . ... : ... .. 2 ... : ... .. . ... ... : D-3 01 7 ... ... : G-2 01 7 P81 ... : ... .. . ... ...
ROW 83 : ... .. B ... ... ... : ... .. 3 ... ... ... : ... .. . ... : ... .. . ... : ... .. . ... ... : ... .. 6 ... ... : ... .. 6 ... ... : ... .. . ... ...
ROW 84 : ... .. . ... ... ... : ... .. 0 ... ... ... : ... .. . ... : ... .. . ... : ... .. . ... ... : ... .. . ... ... : ... .. . ... ... : ... .. . ... ...
ROW 85 : ... .. A ... ... ... : D-4 00 3 P80 ... ... : ... .. . ... : ... .. 0 ... : ... .. . ... ... : --- .. . P81 ... : --- .. . P7F ... : ... .. . ... ...
ROW 86 : ... .. 8 ... ... ... : ... .. 4 ... ... ... : --- .. . ... : ... .. . ... : ... .. . ... ... : ... .. . ... ... : ... .. . ... ... : ... .. . ... ...
ROW 87 : D-3 00 D ... ... ... : A-3 00 8 ... ... ... : F-3 00 . ... : ... .. . ... : ... .. . ... ... : D-3 01 7 P7F ... : G-2 01 7 P81 ... : ... .. . ... ...
ROW 88 : ... .. B ... ... ... : ... .. 3 ... ... ... : ... .. . ... : ... .. . ... : ... .. . ... ... : ... .. 6 ... ... : ... .. 6 ... ... : ... .. . ... ...
ROW 89 : ... .. . ... ... ... : ... .. 0 ... ... ... : ... .. . ... : ... .. . ... : ... .. . ... ... : ... .. . ... ... : ... .. . ... ... : ... .. . ... ...
ROW 8A : ... .. A ... ... ... : A-3 00 3 P80 ... ... : --- .. . ... : ... .. . ... : ... .. . ... ... : --- .. . P81 ... : --- .. . P7F ... : ... .. . ... ...
ROW 8B : ... .. 8 ... ... ... : ... .. 4 ... ... ... : ... .. . ... : ... .. . ... : ... .. . ... ... : ... .. . ... ... : ... .. . ... ... : ... .. . ... ...
ROW 8C : D-4 00 D ... ... ... : D-3 00 8 ... ... ... : E-2 00 . ... : 1-# 00 F ... : ... .. . ... ... : A-3 01 7 P7F ... : D-3 01 7 P81 ... : D#4 01 5 P7B ...
ROW 8D : ... .. B ... ... ... : ... .. 3 ... ... ... : ... .. . ... : ... .. C ... : ... .. . ... ... : ... .. 6 ... ... : ... .. 6 ... ... : ... .. . P80 ...
ROW 8E : ... .. . ... ... ... : ... .. 0 ... ... ... : ... .. . ... : ... .. 6 ... : ... .. . ... ... : ... .. . ... ... : ... .. . ... ... : ... .. . P7E ...
ROW 8F : ... .. A ... ... ... : D-3 00 3 P80 ... ... : ... .. . ... : B-# 00 8 ... : ... .. . ... ... : ... .. . ... ... : ... .. . ... ... : D-4 01 5 P84 ...
ROW 90 : ... .. 8 ... ... ... : ... .. 4 ... ... ... : --- .. . ... : ... .. . ... : ... .. . ... ... : ... .. 5 ... ... : ... .. 5 ... ... : ... .. . P7C ...
ROW 91 : B-3 00 D ... ... ... : A-3 00 8 ... ... ... : E-2 00 . ... : ... .. 6 ... : ... .. . ... ... : --- .. . ... ... : --- .. . P83 ... : C#4 01 5 P82 ...
ROW 92 : ... .. B ... ... ... : ... .. 3 ... ... ... : ... .. . ... : ... .. . ... : ... .. . ... ... : ... .. . ... ... : ... .. . ... ... : ... .. . P80 ...
ROW 93 : ... .. . ... ... ... : ... .. 0 ... ... ... : ... .. . ... : ... .. . ... : ... .. . ... ... : ... .. . ... ... : ... .. . ... ... : ... .. . P85 ...
ROW 94 : ... .. A ... ... ... : A-3 00 3 P80 ... ... : ... .. . ... : ... .. 4 ... : ... .. . ... ... : ... .. . ... ... : ... .. . ... ... : D-4 01 5 P80 ...
ROW 95 : ... .. 8 ... ... ... : ... .. 4 ... ... ... : --- .. . ... : ... .. . ... : ... .. . ... ... : ... .. . ... ... : ... .. . ... ... : D#4 01 5 P7A ...
ROW 96 : G-3 00 D ... ... ... : D-4 00 8 ... ... ... : E-3 00 . ... : 2-# 00 D ... : ... .. . ... ... : D-3 01 7 ... ... : G-2 01 7 P81 ... : ... .. . P80 ...
ROW 97 : ... .. B ... ... ... : ... .. 3 ... ... ... : ... .. . ... : ... .. . ... : ... .. . ... ... : ... .. 6 ... ... : ... .. 6 ... ... : ... .. 2 P7F ...
ROW 98 : ... .. . ... ... ... : ... .. 0 ... ... ... : ... .. . ... : E-# 00 D ... : ... .. . ... ... : ... .. . ... ... : ... .. . ... ... : D-4 01 2 P85 ...
ROW 99 : ... .. A ... ... ... : D-4 00 3 P80 ... ... : ... .. . ... : C-# 00 6 ... : ... .. . ... ... : --- .. . P81 ... : --- .. . P7F ... : ... .. 1 P7E ...
ROW 9A : ... .. 8 ... ... ... : ... .. 4 ... ... ... : --- .. . ... : 8-# 00 1 ... : ... .. . ... ... : ... .. . ... ... : ... .. . ... ... : C#4 01 1 P83 ...
ROW 9B : D-3 00 D ... ... ... : A-4 00 8 ... ... ... : E-3 00 . ... : 2-# 00 D ... : ... .. . ... ... : D-3 01 7 P7F ... : G-2 01 7 P81 ... : ... .. . P80 ...
ROW 9C : ... .. B ... ... ... : ... .. 3 ... ... ... : ... .. . ... : ... .. . ... : ... .. . ... ... : ... .. 6 ... ... : ... .. 6 ... ... : ... .. . P84 ...
ROW 9D : ... .. . ... ... ... : ... .. 0 ... ... ... : ... .. . ... : E-# 00 D ... : ... .. . ... ... : ... .. . ... ... : ... .. . ... ... : D-4 01 1 P7F ...
ROW 9E : ... .. A ... ... ... : A-4 00 3 P80 ... ... : ... .. . ... : C-# 00 6 ... : ... .. . ... ... : --- .. . P81 ... : --- .. . P7F ... : ... .. . P80 ...
ROW 9F : ... .. 8 ... ... ... : ... .. 4 ... ... ... : --- .. . ... : 8-# 00 1 ... : ... .. . ... ... : ... .. . ... ... : ... .. . ... ... : ... .. . ... ...
ROW A0 : G-2 00 F ... ... ... : F-3 00 C ... ... ... : D#3 00 . ... : 1-# 00 F ... : ... .. . Z00 ... : A#3 01 6 ... V03 : D-4 01 6 ... V03 : ... .. 8 ... ...
ROW A1 : ... .. E ... ... ... : ... .. B ... ... ... : ... .. . ... : ... .. C ... : ... .. . ... ... : ... .. 5 ... V01 : ... .. 5 ... V01 : ... .. 7 ... ...
ROW A2 : ... .. D ... ... ... : ... .. A ... ... ... : ... .. . ... : ... .. 6 ... : ... .. . ... ... : ... .. . ... ... : ... .. . ... ... : ... .. 6 ... ...
ROW A3 : ... .. A ... ... ... : ... .. 8 ... ... ... : ... .. . ... : ... .. 3 ... : ... .. . ... ... : ... .. . ... ... : ... .. . ... ... : ... .. 4 ... ...
ROW A4 : ... .. . ... ... ... : ... .. . ... ... ... : ... .. . ... : ... .. 2 ... : ... .. . ... ... : ... .. . ... ... : ... .. . ... ... : ... .. 3 ... ...
ROW A5 : ... .. . ... ... ... : ... .. . ... ... ... : D-3 00 . P75 : C-# 00 8 ... : ... .. . ... ... : ... .. . ... ... : ... .. . ... ... : ... .. 8 ... ...
ROW A6 : ... .. . ... ... ... : ... .. . ... ... ... : C-3 00 . P84 : ... .. 6 ... : ... .. . ... ... : ... .. . ... ... : ... .. . ... ... : ... .. 7 ... ...
ROW A7 : ... .. . ... ... ... : ... .. . ... ... ... : B-2 00 . P7D : ... .. 3 ... : ... .. . ... ... : ... .. 4 ... ... : ... .. 4 ... ... : ... .. 6 ... ...
ROW A8 : ... .. . ... ... ... : ... .. . ... ... ... : A#2 00 . P78 : ... .. 1 ... : ... .. . ... ... : ... .. . ... ... : ... .. . ... ... : ... .. 4 ... ...
ROW A9 : ... .. . ... ... ... : ... .. . ... ... ... : A-2 00 . P74 : ... .. . ... : ... .. . ... ... : ... .. . ... ... : ... .. . ... ... : ... .. 3 ... ...
ROW AA : ... .. . ... ... ... : ... .. . ... ... ... : D#2 00 . P80 : ... .. F ... : ... .. . ... ... : ... .. . ... ... : ... .. . ... ... : F-3 01 8 ... ...
ROW AB : ... .. . ... ... ... : ... .. . ... ... ... : ... .. . ... : ... .. C ... : ... .. . ... ... : ... .. . ... ... : ... .. . ... ... : ... .. 7 ... ...
ROW AC : ... .. . ... ... ... : ... .. . ... ... ... : ... .. . ... : ... .. 6 ... : ... .. . ... ... : ... .. . ... ... : ... .. . ... ... : ... .. 6 ... ...
ROW AD : ... .. . ... ... ... : ... .. . ... ... ... : ... .. . ... : ... .. 3 ... : ... .. . ... ... : ... .. 3 ... ... : ... .. 3 ... ... : ... .. 4 ... ...
ROW AE : ... .. . ... ... ... : ... .. . ... ... ... : --- .. . ... : ... .. 2 ... : ... .. . ... ... : ... .. . ... ... : ... .. . ... ... : ... .. 3 ... ...
ROW AF : ... .. . ... ... ... : ... .. . ... ... ... : D#2 00 . ... : 1-# 00 F ... : ... .. . ... ... : ... .. . ... ... : ... .. . ... ... : ... .. 8 ... ...
ROW B0 : ... .. . ... ... ... : ... .. . ... ... ... : ... .. . ... : ... .. C ... : ... .. . ... ... : ... .. . ... ... : ... .. . ... ... : ... .. 7 ... ...
ROW B1 : ... .. . ... ... ... : ... .. . ... ... ... : ... .. . ... : ... .. 6 ... : ... .. . ... ... : ... .. 2 ... ... : ... .. 2 ... ... : ... .. 6 ... ...
ROW B2 : ... .. . ... ... ... : ... .. . ... ... ... : ... .. . ... : ... .. 3 ... : ... .. . ... ... : ... .. . ... ... : ... .. . ... ... : ... .. 4 ... ...
ROW B3 : ... .. . ... ... ... : ... .. . ... ... ... : --- .. . ... : ... .. 2 ... : ... .. . ... ... : ... .. . ... ... : ... .. . ... ... : ... .. 3 ... ...
ROW B4 : ... .. . ... ... ... : ... .. . ... ... ... : D#2 00 . ... : 3-# 00 D ... : ... .. . ... ... : ... .. . ... ... : ... .. . ... ... : G-3 01 8 ... ...
ROW B5 : ... .. . ... ... ... : ... .. . ... ... ... : ... .. . ... : ... .. . ... : ... .. . ... ... : ... .. . ... ... : ... .. . ... ... : ... .. 7 ... ...
ROW B6 : ... .. . ... ... ... : ... .. . ... ... ... : ... .. . ... : F-# 00 D ... : ... .. . ... ... : ... .. . ... ... : ... .. . ... ... : ... .. 6 ... ...
ROW B7 : ... .. . ... ... ... : ... .. . ... ... ... : ... .. . ... : D-# 00 6 ... : ... .. . ... ... : ... .. . ... ... : ... .. . ... ... : ... .. 4 ... ...
ROW B8 : ... .. . ... ... ... : ... .. . ... ... ... : ... .. . ... : 9-# 00 1 ... : ... .. . ... ... : ... .. . ... ... : ... .. . ... ... : ... .. 3 ... ...
ROW B9 : ... .. . ... ... ... : ... .. . ... ... ... : ... .. . ... : ... .. 0 ... : ... .. . ... ... : ... .. . ... ... : ... .. . ... ... : ... .. 8 ... ...
ROW BA : ... .. 2 ... ... ... : ... .. 1 ... ... ... : ... .. . ... : ... .. . ... : ... .. . ... ... : ... .. . ... ... : ... .. . ... ... : ... .. 7 ... ...
ROW BB : ... .. . ... ... ... : ... .. . ... ... ... : ... .. . ... : ... .. . ... : ... .. . ... ... : ... .. . ... ... : ... .. . ... ... : ... .. 6 ... ...
ROW BC : ... .. . ... ... ... : ... .. . ... ... ... : ... .. . ... : ... .. . ... : ... .. . ... ... : ... .. . ... ... : ... .. . ... ... : ... .. 4 ... ...
ROW BD : ... .. 1 ... ... ... : ... .. . ... ... ... : --- .. . ... : ... .. . ... : ... .. . ... ... : ... .. . ... ... : ... .. . ... ... : ... .. 3 ... ...
ROW BE : D-3 00 F ... ... ... : G-3 00 C ... ... ... : D#3 00 . ... : 1-# 00 F ... : ... .. . ... ... : C-4 01 6 ... V03 : F-4 01 6 ... V03 : D-4 01 8 ... ...
ROW BF : ... .. E ... ... ... : ... .. B ... ... ... : ... .. . ... : ... .. C ... : ... .. . ... ... : ... .. 5 ... V01 : ... .. 5 ... V01 : ... .. 7 ... ...
ROW C0 : ... .. D ... ... ... : ... .. A ... ... ... : ... .. . ... : ... .. 6 ... : ... .. . ... ... : ... .. . ... ... : ... .. . ... ... : ... .. 6 ... ...
ROW C1 : ... .. A ... ... ... : ... .. 8 ... ... ... : ... .. . ... : ... .. 3 ... : ... .. . ... ... : ... .. . ... ... : ... .. . ... ... : ... .. 4 ... ...
ROW C2 : ... .. . ... ... ... : ... .. . ... ... ... : ... .. . ... : ... .. 2 ... : ... .. . ... ... : ... .. . ... ... : ... .. . ... ... : ... .. 3 ... ...
ROW C3 : ... .. . ... ... ... : ... .. . ... ... ... : D-3 00 . P75 : C-# 00 7 ... : ... .. . ... ... : ... .. . ... ... : ... .. . ... ... : ... .. 8 ... ...
ROW C4 : ... .. . ... ... ... : ... .. . ... ... ... : C-3 00 . P84 : ... .. 5 ... : ... .. . ... ... : ... .. . ... ... : ... .. . ... ... : ... .. 7 ... ...
ROW C5 : ... .. . ... ... ... : ... .. . ... ... ... : B-2 00 . P7D : ... .. 2 ... : ... .. . ... ... : ... .. 4 ... ... : ... .. 4 ... ... : ... .. 6 ... ...
ROW C6 : ... .. . ... ... ... : ... .. . ... ... ... : A#2 00 . P78 : ... .. 1 ... : ... .. . ... ... : ... .. . ... ... : ... .. . ... ... : ... .. 4 ... ...
ROW C7 : ... .. . ... ... ... : ... .. . ... ... ... : A-2 00 . P74 : ... .. . ... : ... .. . ... ... : ... .. . ... ... : ... .. . ... ... : ... .. 3 ... ...
ROW C8 : ... .. . ... ... ... : ... .. . ... ... ... : D#2 00 . P80 : ... .. F ... : ... .. . ... ... : ... .. . ... ... : ... .. . ... ... : G-3 01 8 ... ...
ROW C9 : ... .. . ... ... ... : ... .. . ... ... ... : ... .. . ... : ... .. C ... : ... .. . ... ... : ... .. . ... ... : ... .. . ... ... : ... .. 7 ... ...
ROW CA : ... .. . ... ... ... : ... .. . ... ... ... : ... .. . ... : ... .. 6 ... : ... .. . ... ... : ... .. . ... ... : ... .. . ... ... : ... .. 6 ... ...
ROW CB : ... .. . ... ... ... : ... .. . ... ... ... : ... .. . ... : ... .. 3 ... : ... .. . ... ... : ... .. 3 ... ... : ... .. 3 ... ... : ... .. 4 ... ...
ROW CC : ... .. . ... ... ... : ... .. . ... ... ... : --- .. . ... : ... .. 2 ... : ... .. . ... ... : ... .. . ... ... : ... .. . ... ... : ... .. 3 ... ...
ROW CD : ... .. . P84 ... ... : ... .. . ... ... ... : D#2 00 . ... : 1-# 00 F ... : ... .. . ... ... : ... .. . ... ... : ... .. . ... ... : ... .. 8 ... ...
ROW CE : ... .. . P86 ... ... : ... .. . ... ... ... : ... .. . ... : ... .. C ... : ... .. . ... ... : ... .. . ... ... : ... .. . ... ... : ... .. 7 ... ...
ROW CF : ... .. . P84 ... ... : ... .. . ... ... ... : ... .. . ... : ... .. 6 ... : ... .. . ... ... : ... .. 2 ... ... : ... .. 2 ... ... : ... .. 6 ... ...
ROW D0 : ... .. . P80 ... ... : ... .. . ... ... ... : ... .. . ... : ... .. 3 ... : ... .. . ... ... : ... .. . ... ... : ... .. . ... ... : ... .. 4 ... ...
ROW D1 : ... .. . P7C ... ... : ... .. . ... ... ... : --- .. . ... : ... .. 2 ... : ... .. . ... ... : ... .. . ... ... : ... .. . ... ... : ... .. 3 ... ...
ROW D2 : ... .. . P7A ... ... : ... .. . ... ... ... : D#2 00 . ... : 3-# 00 D ... : ... .. . ... ... : ... .. . ... ... : ... .. . ... ... : A-3 01 8 ... ...
ROW D3 : ... .. . P7C ... ... : ... .. . ... ... ... : ... .. . ... : ... .. . ... : ... .. . ... ... : ... .. . ... ... : ... .. . ... ... : ... .. 7 ... ...
ROW D4 : ... .. . P80 ... ... : ... .. . ... ... ... : ... .. . ... : F-# 00 D ... : ... .. . ... ... : ... .. . ... ... : ... .. . ... ... : ... .. 6 ... ...
ROW D5 : ... .. . P84 ... ... : ... .. . ... ... ... : ... .. . ... : D-# 00 6 ... : ... .. . ... ... : ... .. . ... ... : ... .. . ... ... : ... .. 4 ... ...
ROW D6 : ... .. . P86 ... ... : ... .. . ... ... ... : ... .. . ... : 9-# 00 1 ... : ... .. . ... ... : ... .. . ... ... : ... .. . ... ... : ... .. 3 ... ...
ROW D7 : ... .. . P84 ... ... : ... .. . ... ... ... : ... .. . ... : ... .. 0 ... : ... .. . ... ... : ... .. . ... ... : ... .. . ... ... : ... .. 8 ... ...
ROW D8 : ... .. 2 P80 ... ... : ... .. 1 ... ... ... : ... .. . ... : ... .. . ... : ... .. . ... ... : ... .. . ... ... : ... .. . ... ... : ... .. 7 ... ...
ROW D9 : ... .. . P7C ... ... : ... .. . ... ... ... : ... .. . ... : ... .. . ... : ... .. . ... ... : ... .. . ... ... : ... .. . ... ... : ... .. 6 ... ...
ROW DA : ... .. . P7A ... ... : ... .. . ... ... ... : ... .. . ... : ... .. . ... : ... .. . ... ... : ... .. . ... ... : ... .. . ... ... : ... .. 4 ... ...
ROW DB : ... .. 1 P7C ... ... : ... .. . ... ... ... : --- .. . ... : ... .. . ... : ... .. . ... ... : ... .. . ... ... : ... .. . ... ... : ... .. 3 ... ...
ROW DC : C-3 00 F P80 ... ... : D-4 00 C ... ... ... : D#3 00 . ... : 1-# 00 F ... : ... .. . ... ... : D-4 01 6 ... V03 : G-4 01 6 ... V03 : D-4 01 8 ... ...
ROW DD : ... .. E ... ... ... : ... .. B ... ... ... : ... .. . ... : ... .. C ... : ... .. . ... ... : ... .. 5 ... V01 : ... .. 5 ... V01 : ... .. 7 ... ...
ROW DE : ... .. D ... ... ... : ... .. A ... ... ... : ... .. . ... : ... .. 6 ... : ... .. . ... ... : ... .. . ... ... : ... .. . ... ... : ... .. 6 ... ...
ROW DF : ... .. A ... ... ... : ... .. 8 ... ... ... : ... .. . ... : ... .. 3 ... : ... .. . ... ... : ... .. . ... ... : ... .. . ... ... : ... .. 4 ... ...
ROW E0 : ... .. . ... ... ... : ... .. . ... ... ... : ... .. . ... : ... .. 2 ... : ... .. . ... ... : ... .. . ... ... : ... .. . ... ... : ... .. 3 ... ...
ROW E1 : ... .. . ... ... ... : ... .. . ... ... ... : D-3 00 . P75 : C-# 00 8 ... : ... .. . ... ... : ... .. . ... ... : ... .. . ... ... : ... .. 8 ... ...
ROW E2 : ... .. . ... ... ... : ... .. . ... ... ... : C-3 00 . P84 : ... .. 6 ... : ... .. . ... ... : ... .. . ... ... : ... .. . ... ... : ... .. 7 ... ...
ROW E3 : ... .. . ... ... ... : ... .. . ... ... ... : B-2 00 . P7D : ... .. 3 ... : ... .. . ... ... : ... .. 4 ... ... : ... .. 4 ... ... : ... .. 6 ... ...
ROW E4 : ... .. . ... ... ... : ... .. . ... ... ... : A#2 00 . P78 : ... .. 1 ... : ... .. . ... ... : ... .. . ... ... : ... .. . ... ... : ... .. 4 ... ...
ROW E5 : ... .. . ... ... ... : ... .. . ... ... ... : A-2 00 . P74 : ... .. . ... : ... .. . ... ... : ... .. . ... ... : ... .. . ... ... : ... .. 3 ... ...
ROW E6 : ... .. . ... ... ... : ... .. . ... ... ... : D#2 00 . P80 : ... .. F ... : ... .. . ... ... : ... .. . ... ... : ... .. . ... ... : F-3 01 8 ... ...
ROW E7 : ... .. . ... ... ... : ... .. . ... ... ... : ... .. . ... : ... .. C ... : ... .. . ... ... : ... .. . ... ... : ... .. . ... ... : ... .. 7 ... ...
ROW E8 : ... .. . ... ... ... : ... .. . ... ... ... : ... .. . ... : ... .. 6 ... : ... .. . ... ... : ... .. . ... ... : ... .. . ... ... : ... .. 6 ... ...
ROW E9 : ... .. . ... ... ... : ... .. . ... ... ... : ... .. . ... : ... .. 3 ... : ... .. . ... ... : ... .. 3 ... ... : ... .. 3 ... ... : ... .. 4 ... ...
ROW EA : ... .. . ... ... ... : ... .. . ... ... ... : --- .. . ... : ... .. 2 ... : ... .. . ... ... : ... .. . ... ... : ... .. . ... ... : ... .. 3 ... ...
ROW EB : ... .. . ... ... ... : ... .. . ... ... ... : D#2 00 . ... : 1-# 00 F ... : ... .. . ... ... : ... .. . ... ... : ... .. . ... ... : ... .. 8 ... ...
ROW EC : ... .. . ... ... ... : ... .. . ... ... ... : ... .. . ... : ... .. C ... : ... .. . ... ... : ... .. . ... ... : ... .. . ... ... : ... .. 7 ... ...
ROW ED : ... .. . ... ... ... : ... .. . ... ... ... : ... .. . ... : ... .. 6 ... : ... .. . ... ... : ... .. 2 ... ... : ... .. 2 ... ... : ... .. 6 ... ...
ROW EE : ... .. . ... ... ... : ... .. . ... ... ... : ... .. . ... : ... .. 3 ... : ... .. . ... ... : ... .. . ... ... : ... .. . ... ... : ... .. 4 ... ...
ROW EF : ... .. . ... ... ... : ... .. . ... ... ... : --- .. . ... : ... .. 2 ... : ... .. . ... ... : ... .. . ... ... : ... .. . ... ... : ... .. 3 ... ...
ROW F0 : ... .. . ... ... ... : ... .. . ... ... ... : D#2 00 . ... : 3-# 00 D ... : ... .. . ... ... : ... .. . ... ... : ... .. . ... ... : G-3 01 8 ... ...
ROW F1 : ... .. . ... ... ... : ... .. . ... ... ... : ... .. . ... : ... .. . ... : ... .. . ... ... : ... .. . ... ... : ... .. . ... ... : ... .. 7 ... ...
ROW F2 : ... .. . ... ... ... : ... .. . ... ... ... : ... .. . ... : F-# 00 D ... : ... .. . ... ... : ... .. . ... ... : ... .. . ... ... : ... .. 6 ... ...
ROW F3 : ... .. . ... ... ... : ... .. . ... ... ... : ... .. . ... : D-# 00 6 ... : ... .. . ... ... : ... .. . ... ... : ... .. . ... ... : ... .. 4 ... ...
ROW F4 : ... .. . ... ... ... : ... .. . ... ... ... : ... .. . ... : 9-# 00 1 ... : ... .. . ... ... : ... .. . ... ... : ... .. . ... ... : ... .. 3 ... ...
ROW F5 : ... .. . ... ... ... : ... .. . ... ... ... : ... .. . ... : ... .. 0 ... : ... .. . ... ... : ... .. . ... ... : ... .. . ... ... : ... .. 8 ... ...
ROW F6 : ... .. 2 ... ... ... : ... .. 1 ... ... ... : ... .. . ... : ... .. . ... : ... .. . ... ... : ... .. . ... ... : ... .. . ... ... : ... .. 7 ... ...
ROW F7 : ... .. . ... ... ... : ... .. . ... ... ... : ... .. . ... : ... .. . ... : ... .. . ... ... : ... .. . ... ... : ... .. . ... ... : ... .. 6 ... ...
ROW F8 : ... .. . ... ... ... : ... .. . ... ... ... : ... .. . ... : ... .. . ... : ... .. . ... ... : ... .. . ... ... : ... .. . ... ... : ... .. 4 ... ...
ROW F9 : ... .. 1 ... ... ... : ... .. . ... ... ... : --- .. . ... : ... .. . ... : ... .. . ... ... : ... .. . ... ... : ... .. . ... ... : ... .. 3 ... ...
ROW FA : D-3 00 F ... ... ... : G-4 00 C ... ... ... : D#3 00 . ... : 1-# 00 F ... : ... .. . ... ... : F-4 01 6 ... V03 : C-5 01 6 ... V03 : C-4 01 8 ... ...
ROW FB : ... .. E ... ... ... : ... .. B ... ... ... : ... .. . ... : ... .. C ... : ... .. . ... ... : ... .. 5 ... V01 : ... .. 5 ... V01 : ... .. 7 ... ...
ROW FC : ... .. D ... ... ... : ... .. A ... ... ... : ... .. . ... : ... .. 6 ... : ... .. . ... ... : ... .. . ... ... : ... .. . ... ... : ... .. 6 ... ...
ROW FD : ... .. A ... ... ... : ... .. 8 ... ... ... : ... .. . ... : ... .. 3 ... : ... .. . ... ... : ... .. . ... ... : ... .. . ... ... : ... .. 4 ... ...
ROW FE : ... .. . ... ... ... : ... .. . ... ... ... : ... .. . ... : ... .. 2 ... : ... .. . ... ... : ... .. . ... ... : ... .. . ... ... : ... .. 3 ... ...
ROW FF : ... .. . ... ... ... : ... .. . ... ... ... : D-3 00 . P75 : C-# 00 7 ... : ... .. . ... ... : ... .. . ... ... : ... .. . ... ... : ... .. 8 ... ...

PATTERN 06
ROW 00 : ... .. . ... ... ... : ... .. . ... ... ... : C-3 00 . P84 : ... .. 5 ... : ... .. . ... ... : ... .. . ... ... : ... .. . ... ... : ... .. 7 ... ...
ROW 01 : ... .. . ... ... ... : ... .. . ... ... ... : B-2 00 . P7D : ... .. 2 ... : ... .. . ... ... : ... .. 4 ... ... : ... .. 4 ... ... : ... .. 6 ... ...
ROW 02 : ... .. . ... ... ... : ... .. . ... ... ... : A#2 00 . P78 : ... .. 1 ... : ... .. . ... ... : ... .. . ... ... : ... .. . ... ... : ... .. 4 ... ...
ROW 03 : ... .. . ... ... ... : ... .. . ... ... ... : A-2 00 . P74 : ... .. . ... : ... .. . ... ... : ... .. . ... ... : ... .. . ... ... : ... .. 3 ... ...
ROW 04 : ... .. . ... ... ... : ... .. . ... ... ... : D#2 00 . P80 : ... .. F ... : ... .. . ... ... : ... .. . ... ... : ... .. . ... ... : F-3 01 8 ... ...
ROW 05 : ... .. . ... ... ... : ... .. . ... ... ... : ... .. . ... : ... .. C ... : ... .. . ... ... : ... .. . ... ... : ... .. . ... ... : ... .. 7 ... ...
ROW 06 : ... .. . ... ... ... : ... .. . ... ... ... : ... .. . ... : ... .. 6 ... : ... .. . ... ... : ... .. . ... ... : ... .. . ... ... : ... .. 6 ... ...
ROW 07 : ... .. . ... ... ... : ... .. . ... ... ... : ... .. . ... : ... .. 3 ... : ... .. . ... ... : ... .. 3 ... ... : ... .. 3 ... ... : ... .. 4 ... ...
ROW 08 : ... .. . ... ... ... : ... .. . ... ... ... : --- .. . ... : ... .. 2 ... : ... .. . ... ... : ... .. . ... ... : ... .. . ... ... : ... .. 3 ... ...
ROW 09 : ... .. . P84 ... ... : ... .. . ... ... ... : D#2 00 . ... : 1-# 00 F ... : ... .. . ... ... : ... .. . ... ... : ... .. . ... ... : ... .. 8 ... ...
ROW 0A : ... .. . P86 ... ... : ... .. . ... ... ... : ... .. . ... : ... .. C ... : ... .. . ... ... : ... .. . ... ... : ... .. . ... ... : ... .. 7 ... ...
ROW 0B : ... .. . P84 ... ... : ... .. . ... ... ... : ... .. . ... : ... .. 6 ... : ... .. . ... ... : ... .. 2 ... ... : ... .. 2 ... ... : ... .. 6 ... ...
ROW 0C : ... .. . P80 ... ... : ... .. . ... ... ... : ... .. . ... : ... .. 3 ... : ... .. . ... ... : ... .. . ... ... : ... .. . ... ... : ... .. 4 ... ...
ROW 0D : ... .. . P7C ... ... : ... .. . ... ... ... : --- .. . ... : ... .. 2 ... : ... .. . ... ... : ... .. . ... ... : ... .. . ... ... : ... .. 3 ... ...
ROW 0E : ... .. . P7A ... ... : ... .. . ... ... ... : D#2 00 . ... : 3-# 00 D ... : ... .. . ... ... : ... .. . ... ... : ... .. . ... ... : G-3 01 8 ... ...
ROW 0F : ... .. . P7C ... ... : ... .. . ... ... ... : ... .. . ... : ... .. . ... : ... .. . ... ... : ... .. . ... ... : ... .. . ... ... : ... .. 7 ... ...
ROW 10 : ... .. . P80 ... ... : ... .. . ... ... ... : ... .. . ... : F-# 00 D ... : ... .. . ... ... : ... .. . ... ... : ... .. . ... ... : ... .. 6 ... ...
ROW 11 : ... .. . P84 ... ... : ... .. . ... ... ... : ... .. . ... : D-# 00 6 ... : ... .. . ... ... : ... .. . ... ... : ... .. . ... ... : ... .. 4 ... ...
ROW 12 : ... .. . P86 ... ... : ... .. . ... ... ... : ... .. . ... : 9-# 00 1 ... : ... .. . ... ... : ... .. . ... ... : ... .. . ... ... : ... .. 3 ... ...
ROW 13 : ... .. . P84 ... ... : ... .. . ... ... ... : ... .. . ... : ... .. 0 ... : ... .. . ... ... : ... .. . ... ... : ... .. . ... ... : ... .. 8 ... ...
ROW 14 : ... .. . P80 ... ... : ... .. . ... ... ... : ... .. . ... : ... .. . ... : ... .. . ... ... : ... .. . ... ... : ... .. . ... ... : ... .. 7 ... ...
ROW 15 : ... .. . P7C ... ... : ... .. . ... ... ... : ... .. . ... : ... .. . ... : ... .. . ... ... : ... .. . ... ... : ... .. . ... ... : ... .. 6 ... ...
ROW 16 : ... .. . P7A ... ... : ... .. . ... ... ... : ... .. . ... : ... .. . ... : ... .. . ... ... : ... .. . ... ... : ... .. . ... ... : ... .. 4 ... ...
ROW 17 : ... .. . P7C ... ... : ... .. . ... ... ... : --- .. . ... : ... .. . ... : ... .. . ... ... : ... .. . ... ... : ... .. . ... ... : ... .. 3 ... ...
ROW 18 : E-3 00 F P80 ... ... : A-4 00 C ... ... ... : D-3 00 . ... : 1-# 00 F ... : ... .. . ... ... : D-4 01 4 P80 V03 : A-5 01 6 ... V03 : A-3 01 8 ... ...
ROW 19 : ... .. E ... ... ... : ... .. B ... ... ... : ... .. . ... : ... .. C ... : ... .. . ... ... : ... .. 3 ... V01 : ... .. 5 ... V01 : ... .. 7 ... ...
ROW 1A : ... .. D ... ... ... : ... .. A ... ... ... : ... .. . ... : ... .. 6 ... : ... .. . ... ... : ... .. . ... ... : ... .. . ... ... : ... .. 6 ... ...
ROW 1B : ... .. A ... ... ... : ... .. 8 ... ... ... : ... .. . ... : ... .. 3 ... : ... .. . ... ... : ... .. . ... ... : ... .. . ... ... : ... .. 4 ... ...
ROW 1C : ... .. . ... ... ... : ... .. . ... ... ... : ... .. . ... : ... .. 2 ... : ... .. . ... ... : ... .. . ... ... : ... .. . ... ... : ... .. 3 ... ...
ROW 1D : ... .. . ... ... ... : ... .. . ... ... ... : ... .. . ... : C-# 00 8 ... : ... .. . ... ... : G-4 01 4 ... V03 : ... .. . ... ... : ... .. 8 ... ...
ROW 1E : ... .. 2 ... ... ... : ... .. 1 ... ... ... : ... .. . ... : ... .. 6 ... : ... .. . ... ... : ... .. 3 ... V01 : ... .. . ... ... : ... .. 7 ... ...
ROW 1F : ... .. . ... ... ... : ... .. . ... ... ... : ... .. . ... : ... .. 3 ... : ... .. . ... ... : ... .. . ... ... : ... .. 4 ... ... : ... .. 6 ... ...
ROW 20 : ... .. . ... ... ... : ... .. . ... ... ... : ... .. . ... : ... .. 1 ... : ... .. . ... ... : ... .. . ... ... : ... .. . ... ... : ... .. 4 ... ...
ROW 21 : ... .. 1 ... ... ... : ... .. . ... ... ... : ... .. . ... : ... .. . ... : ... .. . ... ... : ... .. . ... ... : ... .. . ... ... : ... .. 3 ... ...
ROW 22 : C-3 00 F ... ... ... : G-4 00 C ... ... ... : D-2 00 . ... : ... .. F ... : ... .. . ... ... : A-4 01 4 ... V03 : G-5 01 6 ... V03 : E-3 01 8 ... ...
ROW 23 : ... .. E ... ... ... : ... .. B ... ... ... : ... .. . ... : ... .. C ... : ... .. . ... ... : ... .. 3 ... V01 : ... .. 5 ... V01 : ... .. 7 ... ...
ROW 24 : ... .. D ... ... ... : ... .. A ... ... ... : ... .. . ... : ... .. 6 ... : ... .. . ... ... : ... .. . ... ... : ... .. . ... ... : ... .. 6 ... ...
ROW 25 : ... .. A ... ... ... : ... .. 8 ... ... ... : ... .. . ... : ... .. 3 ... : ... .. . ... ... : ... .. . ... ... : ... .. . ... ... : ... .. 4 ... ...
ROW 26 : ... .. 2 ... ... ... : ... .. 1 ... ... ... : ... .. . ... : ... .. 2 ... : ... .. . ... ... : ... .. . ... ... : ... .. . ... ... : ... .. 3 ... ...
ROW 27 : ... .. F ... ... ... : F-4 00 C ... ... ... : ... .. . ... : 1-# 00 F ... : ... .. . ... ... : D-5 01 4 ... V03 : F-5 01 6 ... V03 : ... .. 8 ... ...
ROW 28 : ... .. E ... ... ... : ... .. B ... ... ... : ... .. . ... : ... .. C ... : ... .. . ... ... : ... .. 3 ... V01 : ... .. 5 ... V01 : ... .. 7 ... ...
ROW 29 : ... .. D ... ... ... : ... .. A ... ... ... : ... .. . ... : ... .. 6 ... : ... .. . ... ... : ... .. . ... ... : ... .. . ... ... : ... .. 6 ... ...
ROW 2A : ... .. A ... ... ... : ... .. 8 ... ... ... : ... .. . ... : ... .. 3 ... : ... .. . ... ... : ... .. . ... ... : ... .. . ... ... : ... .. 4 ... ...
ROW 2B : ... .. 2 ... ... ... : ... .. 1 ... ... ... : ... .. . ... : ... .. 2 ... : ... .. . ... ... : ... .. . ... ... : ... .. . ... ... : ... .. 3 ... ...
ROW 2C : G-3 00 F ... ... ... : E-4 00 C ... ... ... : D-3 00 . ... : 3-# 00 D ... : ... .. . ... ... : G-4 01 4 ... V03 : E-5 01 6 ... V03 : F-3 01 8 ... ...
ROW 2D : ... .. E ... ... ... : ... .. B ... ... ... : ... .. . ... : ... .. . ... : ... .. . ... ... : ... .. 3 ... V01 : ... .. 5 ... V01 : ... .. 7 ... ...
ROW 2E : ... .. D ... ... ... : ... .. A ... ... ... : ... .. . ... : F-# 00 D ... : ... .. . ... ... : ... .. . ... ... : ... .. . ... ... : ... .. 6 ... ...
ROW 2F : ... .. A ... ... ... : ... .. 8 ... ... ... : ... .. . ... : D-# 00 6 ... : ... .. . ... ... : ... .. . ... ... : ... .. . ... ... : ... .. 4 ... ...
ROW 30 : ... .. . ... ... ... : ... .. . ... ... ... : --- .. . ... : 9-# 00 1 ... : ... .. . ... ... : ... .. . ... ... : ... .. . ... ... : ... .. 3 ... ...
ROW 31 : ... .. . ... ... ... : ... .. . ... ... ... : D-3 00 . ... : ... .. 0 ... : ... .. . ... ... : A-4 01 4 ... V03 : ... .. . ... ... : ... .. 8 ... ...
ROW 32 : ... .. . ... ... ... : ... .. . ... ... ... : ... .. . ... : ... .. . ... : ... .. . ... ... : ... .. 3 ... V01 : ... .. . ... ... : ... .. 7 ... ...
ROW 33 : ... .. . ... ... ... : ... .. . ... ... ... : ... .. . ... : ... .. . ... : ... .. . ... ... : ... .. . ... ... : ... .. 4 ... ... : ... .. 6 ... ...
ROW 34 : ... .. . ... ... ... : ... .. . ... ... ... : ... .. . ... : ... .. . ... : ... .. . ... ... : ... .. . ... ... : ... .. . ... ... : ... .. 4 ... ...
ROW 35 : ... .. . ... ... ... : ... .. . ... ... ... : --- .. . ... : ... .. . ... : ... .. . ... ... : ... .. . ... ... : ... .. . ... ... : ... .. 3 ... ...
ROW 36 : ... .. . ... ... ... : ... .. . ... ... ... : G-3 00 . ... : 1-# 00 F ... : ... .. . ... ... : C-4 01 4 ... V03 : ... .. . ... ... : E-4 01 8 ... ...
ROW 37 : ... .. . ... ... ... : ... .. . ... ... ... : ... .. . ... : ... .. C ... : ... .. . ... ... : ... .. 3 ... V01 : ... .. . ... ... : ... .. 7 ... ...
ROW 38 : ... .. . ... ... ... : ... .. . ... ... ... : ... .. . ... : ... .. 6 ... : ... .. . ... ... : ... .. . ... ... : ... .. . ... ... : ... .. 6 ... ...
ROW 39 : ... .. . ... ... ... : ... .. . ... ... ... : ... .. . ... : ... .. 3 ... : ... .. . ... ... : ... .. . ... ... : ... .. 3 ... ... : ... .. 4 ... ...
ROW 3A : ... .. . ... ... ... : ... .. . ... ... ... : --- .. . ... : ... .. 2 ... : ... .. . ... ... : ... .. . ... ... : ... .. . ... ... : ... .. 3 ... ...
ROW 3B : ... .. . ... ... ... : ... .. . ... ... ... : G-3 00 . ... : C-# 00 7 ... : ... .. . ... ... : D-4 01 4 ... V03 : ... .. . ... ... : ... .. 8 ... ...
ROW 3C : ... .. . ... ... ... : ... .. . ... ... ... : ... .. . ... : ... .. 5 ... : ... .. . ... ... : ... .. 3 ... V01 : ... .. . ... ... : ... .. 7 ... ...
ROW 3D : ... .. . ... ... ... : ... .. . ... ... ... : ... .. . ... : ... .. 2 ... : ... .. . ... ... : ... .. . ... ... : ... .. 2 ... ... : ... .. 6 ... ...
ROW 3E : ... .. . ... ... ... : ... .. . ... ... ... : ... .. . ... : ... .. 1 ... : ... .. . ... ... : ... .. . ... ... : ... .. . ... ... : ... .. 4 ... ...
ROW 3F : ... .. . ... ... ... : ... .. . ... ... ... : --- .. . ... : ... .. . ... : ... .. . ... ... : ... .. . ... ... : ... .. . ... ... : ... .. 3 ... ...
ROW 40 : ... .. . ... ... ... : ... .. . ... ... ... : F-3 00 . ... : 1-# 00 F ... : ... .. . ... ... : G-4 01 4 ... V03 : ... .. . ... ... : G-3 01 8 ... ...
ROW 41 : ... .. . ... ... ... : ... .. . ... ... ... : ... .. . ... : ... .. C ... : ... .. . ... ... : ... .. 3 ... V01 : ... .. . ... ... : ... .. 7 ... ...
ROW 42 : ... .. . ... ... ... : ... .. . ... ... ... : ... .. . ... : ... .. 6 ... : ... .. . ... ... : ... .. . ... ... : ... .. . ... ... : ... .. 6 ... ...
ROW 43 : ... .. . ... ... ... : ... .. . ... ... ... : ... .. . ... : ... .. 3 ... : ... .. . ... ... : ... .. . ... ... : ... .. . ... ... : ... .. 4 ... ...
ROW 44 : ... .. . ... ... ... : ... .. . ... ... ... : --- .. . ... : ... .. 2 ... : ... .. . ... ... : ... .. . ... ... : ... .. . ... ... : ... .. 3 ... ...
ROW 45 : ... .. . ... ... ... : ... .. . ... ... ... : F-3 00 . ... : C-# 00 8 ... : ... .. . ... ... : A-4 01 4 ... V03 : ... .. . ... ... : ... .. 8 ... ...
ROW 46 : ... .. . ... ... ... : ... .. . ... ... ... : ... .. . ... : ... .. 6 ... : ... .. . ... ... : ... .. 3 ... V01 : ... .. . ... ... : ... .. 7 ... ...
ROW 47 : ... .. . ... ... ... : ... .. . ... ... ... : ... .. . ... : ... .. 3 ... : ... .. . ... ... : ... .. . ... ... : ... .. . ... ... : ... .. 6 ... ...
ROW 48 : ... .. . ... ... ... : ... .. . ... ... ... : ... .. . ... : ... .. 1 ... : ... .. . ... ... : ... .. . ... ... : ... .. . ... ... : ... .. 4 ... ...
ROW 49 : ... .. . ... ... ... : ... .. . ... ... ... : --- .. . ... : ... .. . ... : ... .. . ... ... : ... .. . ... ... : ... .. . ... ... : ... .. 3 ... ...
ROW 4A : ... .. . ... ... ... : ... .. . ... ... ... : C-4 00 . ... : ... .. F ... : ... .. . ... ... : D-5 01 4 ... V03 : ... .. . ... ... : A-3 01 8 ... ...
ROW 4B : ... .. . ... ... ... : ... .. . ... ... ... : ... .. . ... : ... .. C ... : ... .. . ... ... : ... .. 3 ... V01 : ... .. . ... ... : ... .. 7 ... ...
ROW 4C : ... .. . ... ... ... : ... .. . ... ... ... : ... .. . ... : ... .. 6 ... : ... .. . ... ... : ... .. . ... ... : ... .. . ... ... : ... .. 6 ... ...
ROW 4D : ... .. . ... ... ... : ... .. . ... ... ... : ... .. . ... : ... .. 3 ... : ... .. . ... ... : ... .. . ... ... : ... .. . ... ... : ... .. 4 ... ...
ROW 4E : ... .. . ... ... ... : ... .. . ... ... ... : --- .. . ... : ... .. 2 ... : ... .. . ... ... : ... .. . ... ... : ... .. . ... ... : ... .. 3 ... ...
ROW 4F : ... .. . ... ... ... : ... .. . ... ... ... : C-4 00 . ... : 1-# 00 F ... : ... .. . ... ... : G-5 01 4 ... V03 : ... .. . ... ... : ... .. 8 ... ...
ROW 50 : ... .. . ... ... ... : ... .. . ... ... ... : ... .. . ... : ... .. C ... : ... .. . ... ... : ... .. 3 ... V01 : ... .. . ... ... : ... .. 7 ... ...
ROW 51 : ... .. . ... ... ... : ... .. . ... ... ... : ... .. . ... : ... .. 6 ... : ... .. . ... ... : ... .. . ... ... : ... .. . ... ... : ... .. 6 ... ...
ROW 52 : ... .. . ... ... ... : ... .. . ... ... ... : ... .. . ... : ... .. 3 ... : ... .. . ... ... : ... .. . ... ... : ... .. . ... ... : ... .. 4 ... ...
ROW 53 : ... .. . ... ... ... : ... .. . ... ... ... : --- .. . ... : ... .. 2 ... : ... .. . ... ... : ... .. . ... ... : ... .. . ... ... : ... .. 3 ... ...
ROW 54 : ... .. . P84 ... ... : ... .. . P84 ... ... : G-3 00 . ... : 3-# 00 D ... : ... .. . ... ... : C-5 01 4 ... V03 : ... .. . ... ... : G-4 01 8 ... ...
ROW 55 : ... .. . P86 ... ... : F-4 00 8 P7C ... ... : ... .. . ... : ... .. . ... : ... .. . ... ... : ... .. 3 ... V01 : ... .. . ... ... : ... .. 7 ... ...
ROW 56 : ... .. . P85 ... ... : E-4 00 8 P85 ... ... : ... .. . ... : F-# 00 D ... : ... .. . ... ... : ... .. . ... ... : ... .. . ... ... : ... .. 6 ... ...
ROW 57 : ... .. . P82 ... ... : ... .. . P82 ... ... : ... .. . ... : D-# 00 6 ... : ... .. . ... ... : ... .. . ... ... : ... .. . ... ... : ... .. 4 ... ...
ROW 58 : ... .. . P7E ... ... : ... .. . P7E ... ... : --- .. . ... : 9-# 00 1 ... : ... .. . ... ... : ... .. . ... ... : ... .. . ... ... : ... .. 3 ... ...
ROW 59 : ... .. . P7B ... ... : D#4 00 8 P85 ... ... : G-3 00 . ... : ... .. 0 ... : ... .. . ... ... : D-5 01 4 ... V03 : ... .. . ... ... : ... .. 8 ... ...
ROW 5A : ... .. . P7A ... ... : ... .. . P84 ... ... : ... .. . ... : ... .. . ... : ... .. . ... ... : ... .. 3 ... V01 : ... .. . ... ... : ... .. 7 ... ...
ROW 5B : ... .. . P7C ... ... : E-4 00 8 P7C ... ... : ... .. . ... : ... .. . ... : ... .. . ... ... : ... .. . ... ... : ... .. . ... ... : ... .. 6 ... ...
ROW 5C : ... .. . P80 ... ... : ... .. . P80 ... ... : ... .. . ... : ... .. . ... : ... .. . ... ... : ... .. . ... ... : ... .. . ... ... : ... .. 4 ... ...
ROW 5D : ... .. 2 P83 ... ... : ... .. . P83 ... ... : --- .. . ... : ... .. . ... : ... .. . ... ... : ... .. . ... ... : ... .. . ... ... : ... .. 3 ... ...
ROW 5E : C-4 00 F P80 V02 ... : F-4 00 8 P7C ... ... : E-4 00 . ... : 1-# 00 F ... : ... .. . ... ... : G-4 01 4 ... V03 : ... .. . ... ... : C-4 01 8 ... ...
ROW 5F : ... .. E ... ... ... : ... .. . ... ... ... : ... .. . ... : ... .. C ... : ... .. . ... ... : ... .. 3 ... V01 : ... .. 1 ... ... : ... .. 7 ... ...
ROW 60 : ... .. D ... ... ... : E-4 00 8 P82 ... ... : ... .. . ... : ... .. 6 ... : ... .. . ... ... : ... .. . ... ... : ... .. . ... ... : ... .. 6 ... ...
ROW 61 : ... .. A ... ... ... : ... .. . P7F ... ... : ... .. . ... : ... .. 3 ... : ... .. . ... ... : ... .. . ... ... : ... .. . ... ... : ... .. 4 ... ...
ROW 62 : ... .. . ... ... ... : D#4 00 8 P85 ... ... : --- .. . ... : ... .. 2 ... : ... .. . ... ... : ... .. . ... ... : ... .. . ... ... : ... .. 3 ... ...
ROW 63 : ... .. . ... ... ... : ... .. . P84 ... ... : E-4 00 . ... : C-# 00 7 ... : ... .. . ... ... : A-4 01 4 ... V03 : ... .. . ... ... : ... .. 8 ... ...
ROW 64 : ... .. . ... ... ... : E-4 00 8 P7C ... ... : ... .. . ... : ... .. 5 ... : ... .. . ... ... : ... .. 3 ... V01 : ... .. . ... ... : ... .. 7 ... ...
ROW 65 : ... .. . ... ... ... : ... .. . P80 ... ... : ... .. . ... : ... .. 2 ... : ... .. . ... ... : ... .. . ... ... : ... .. . ... ... : ... .. 6 ... ...
ROW 66 : ... .. . ... ... ... : ... .. . P83 ... ... : ... .. . ... : ... .. 1 ... : ... .. . ... ... : ... .. . ... ... : ... .. . ... ... : ... .. 4 ... ...
ROW 67 : ... .. . ... ... ... : F-4 00 8 P7C ... ... : --- .. . ... : ... .. . ... : ... .. . ... ... : ... .. . ... ... : ... .. . ... ... : ... .. 3 ... ...
ROW 68 : G-4 00 A ... ... ... : G-3 00 C P80 ... ... : C-4 00 . ... : ... .. F ... : ... .. . ... ... : C-5 01 4 ... V03 : F-3 01 6 ... V03 : D-4 01 8 ... ...
ROW 69 : A-4 00 9 P7F ... ... : ... .. B ... ... ... : ... .. . ... : ... .. C ... : ... .. . ... ... : ... .. 3 ... V01 : ... .. 5 ... V01 : ... .. 7 ... ...
ROW 6A : B-4 00 8 P80 ... ... : ... .. A ... ... ... : ... .. . ... : ... .. 6 ... : ... .. . ... ... : ... .. . ... ... : ... .. . ... ... : ... .. 6 ... ...
ROW 6B : C-5 00 6 ... ... ... : ... .. 8 ... ... ... : ... .. . ... : ... .. 3 ... : ... .. . ... ... : ... .. . ... ... : ... .. . ... ... : ... .. 4 ... ...
ROW 6C : ... .. . ... ... ... : ... .. . ... ... ... : --- .. . ... : ... .. 2 ... : ... .. . ... ... : ... .. . ... ... : ... .. . ... ... : ... .. 3 ... ...
ROW 6D : ... .. . ... ... ... : ... .. . ... ... ... : C-4 00 . ... : 1-# 00 F ... : ... .. . ... ... : D-5 01 4 ... V03 : ... .. . ... ... : ... .. 8 ... ...
ROW 6E : ... .. 1 ... ... ... : ... .. 1 ... ... ... : ... .. . ... : ... .. C ... : ... .. . ... ... : ... .. 3 ... V01 : ... .. . ... ... : ... .. 7 ... ...
ROW 6F : ... .. . ... ... ... : ... .. . ... ... ... : ... .. . ... : ... .. 6 ... : ... .. . ... ... : ... .. . ... ... : ... .. 4 ... ... : ... .. 6 ... ...
ROW 70 : ... .. . ... ... ... : ... .. . ... ... ... : ... .. . ... : ... .. 3 ... : ... .. . ... ... : ... .. . ... ... : ... .. . ... ... : ... .. 4 ... ...
ROW 71 : ... .. . ... ... ... : ... .. . ... ... ... : --- .. . ... : ... .. 2 ... : ... .. . ... ... : ... .. . ... ... : ... .. . ... ... : ... .. 3 ... ...
ROW 72 : A-4 00 A ... ... ... : E-3 00 C ... ... ... : D-4 00 . ... : 3-# 00 D ... : ... .. . ... ... : G-4 01 4 ... V03 : D-3 01 6 ... V03 : A-4 01 8 ... ...
ROW 73 : ... .. 9 ... ... ... : ... .. B ... ... ... : ... .. . ... : ... .. . ... : ... .. . ... ... : ... .. 3 ... V01 : ... .. 5 ... V01 : ... .. 7 ... ...
ROW 74 : ... .. 8 ... ... ... : ... .. A ... ... ... : ... .. . ... : F-# 00 D ... : ... .. . ... ... : ... .. . ... ... : ... .. . ... ... : ... .. 6 ... ...
ROW 75 : ... .. 6 ... ... ... : ... .. 8 ... ... ... : ... .. . ... : D-# 00 6 ... : ... .. . ... ... : ... .. . ... ... : ... .. . ... ... : ... .. 4 ... ...
ROW 76 : ... .. . ... ... ... : ... .. . ... ... ... : --- .. . ... : 9-# 00 1 ... : ... .. . ... ... : ... .. . ... ... : ... .. . ... ... : ... .. 3 ... ...
ROW 77 : ... .. . ... ... ... : ... .. . ... ... ... : D-4 00 . ... : ... .. 0 ... : ... .. . ... ... : A-4 01 4 ... V03 : ... .. . ... ... : ... .. 8 ... ...
ROW 78 : ... .. 1 ... ... ... : ... .. 1 ... ... ... : ... .. . ... : ... .. . ... : ... .. . ... ... : ... .. 3 ... V01 : ... .. . ... ... : ... .. 7 ... ...
ROW 79 : ... .. . ... ... ... : ... .. . ... ... ... : ... .. . ... : ... .. . ... : ... .. . ... ... : ... .. . ... ... : ... .. 4 ... ... : ... .. 6 ... ...
ROW 7A : ... .. . ... ... ... : ... .. . ... ... ... : ... .. . ... : ... .. . ... : ... .. . ... ... : ... .. . ... ... : ... .. . ... ... : ... .. 4 ... ...
ROW 7B : ... .. . ... ... ... : ... .. . ... ... ... : --- .. . ... : ... .. . ... : ... .. . ... ... : ... .. . ... ... : ... .. . ... ... : ... .. 3 ... ...
ROW 7C : G-4 00 A ... ... ... : ... .. C ... ... ... : D-3 00 . ... : 4-# 00 D ... : ... .. . ... ... : F-4 01 4 ... V03 : A-3 01 6 ... V03 : E-4 01 8 ... ...
ROW 7D : ... .. 9 ... ... ... : ... .. B ... ... ... : ... .. . ... : ... .. . ... : ... .. . ... ... : ... .. 3 ... V01 : ... .. 5 ... V01 : ... .. 7 ... ...
ROW 7E : ... .. 8 ... ... ... : ... .. A ... ... ... : ... .. . ... : 0-# 00 D ... : ... .. . ... ... : ... .. . ... ... : ... .. . ... ... : ... .. 6 ... ...
ROW 7F : ... .. 6 ... ... ... : ... .. 8 ... ... ... : ... .. . ... : E-# 00 6 ... : ... .. . ... ... : ... .. . ... ... : ... .. . ... ... : ... .. 4 ... ...
ROW 80 : ... .. . ... ... ... : ... .. . ... ... ... : --- .. . ... : A-# 00 1 ... : ... .. . ... ... : ... .. . ... ... : ... .. . ... ... : ... .. 3 ... ...
ROW 81 : ... .. . ... ... ... : ... .. . ... ... ... : D-3 00 . ... : 4-# 00 D ... : ... .. . ... ... : C-4 01 4 ... V03 : ... .. . ... ... : ... .. 8 ... ...
ROW 82 : ... .. . ... ... ... : ... .. . ... ... ... : ... .. . ... : ... .. . ... : ... .. . ... ... : ... .. 3 ... V01 : ... .. . ... ... : ... .. 7 ... ...
ROW 83 : ... .. . ... ... ... : ... .. . ... ... ... : ... .. . ... : 0-# 00 D ... : ... .. . ... ... : ... .. . ... ... : ... .. 4 ... ... : ... .. 6 ... ...
ROW 84 : ... .. . ... ... ... : ... .. . ... ... ... : ... .. . ... : E-# 00 6 ... : ... .. . ... ... : ... .. . ... ... : ... .. . ... ... : ... .. 4 ... ...
ROW 85 : ... .. . ... ... ... : ... .. . ... ... ... : --- .. . ... : A-# 00 1 ... : ... .. . ... ... : ... .. . ... ... : ... .. . ... ... : ... .. 3 ... ...
ROW 86 : ... .. . ... ... ... : ... .. . ... ... ... : D-2 00 . ... : B-# 00 D ... : ... .. . ... ... : D-4 01 4 ... V03 : ... .. . ... ... : F-4 01 8 ... ...
ROW 87 : ... .. . ... ... ... : ... .. . ... ... ... : ... .. . ... : ... .. . ... : ... .. . ... ... : ... .. 3 ... V01 : ... .. . ... ... : ... .. 7 ... ...
ROW 88 : ... .. . ... ... ... : ... .. . ... ... ... : ... .. . ... : 7-# 00 D ... : ... .. . ... ... : ... .. . ... ... : ... .. . ... ... : ... .. 6 ... ...
ROW 89 : ... .. . ... ... ... : ... .. . ... ... ... : ... .. . ... : 5-# 00 6 ... : ... .. . ... ... : ... .. . ... ... : ... .. 3 ... ... : ... .. 4 ... ...
ROW 8A : ... .. . ... ... ... : ... .. . ... ... ... : --- .. . ... : 1-# 00 1 ... : ... .. . ... ... : ... .. . ... ... : ... .. . ... ... : ... .. 3 ... ...
ROW 8B : ... .. . ... ... ... : ... .. . ... ... ... : D-2 00 . ... : B-# 00 D ... : ... .. . ... ... : F-4 01 4 ... V03 : ... .. . ... ... : ... .. 8 ... ...
ROW 8C : ... .. . ... ... ... : ... .. . ... ... ... : ... .. . ... : ... .. . ... : ... .. . ... ... : ... .. 3 ... V01 : ... .. . ... ... : ... .. 7 ... ...
ROW 8D : ... .. . ... ... ... : ... .. . ... ... ... : ... .. . ... : 7-# 00 D ... : ... .. . ... ... : ... .. . ... ... : ... .. 2 ... ... : ... .. 6 ... ...
ROW 8E : ... .. . ... ... ... : ... .. . ... ... ... : ... .. . ... : 5-# 00 6 ... : ... .. . ... ... : ... .. . ... ... : ... .. . ... ... : ... .. 4 ... ...
ROW 8F : ... .. . ... ... ... : ... .. . ... ... ... : --- .. . ... : 1-# 00 1 ... : ... .. . ... ... : ... .. . ... ... : ... .. . ... ... : ... .. 3 ... ...
ROW 90 : G#4 00 6 ... ... ... : ... .. . P88 ... ... : C-3 00 . ... : 3-# 00 D ... : ... .. . ... ... : G-4 01 4 ... V03 : ... .. . ... ... : C-5 01 8 ... ...
ROW 91 : A-4 00 6 P7D ... ... : F-3 00 8 P7A ... ... : ... .. . ... : ... .. . ... : ... .. . ... ... : ... .. 3 ... V01 : ... .. . ... ... : ... .. 7 ... ...
ROW 92 : G#4 00 6 P83 ... ... : ... .. . P78 ... ... : ... .. . ... : F-# 00 D ... : ... .. . ... ... : ... .. . ... ... : ... .. . ... ... : ... .. 6 ... ...
ROW 93 : G-4 00 6 P84 ... ... : E-3 00 8 P84 ... ... : ... .. . ... : D-# 00 6 ... : ... .. . ... ... : ... .. . ... ... : ... .. . ... ... : ... .. 4 ... ...
ROW 94 : F#4 00 6 ... ... ... : ... .. . P7C ... ... : --- .. . ... : 9-# 00 1 ... : ... .. . ... ... : ... .. . ... ... : ... .. . ... ... : ... .. 3 ... ...
ROW 95 : ... .. . P7D ... ... : D#3 00 8 P8A ... ... : C-3 00 . ... : 3-# 00 D ... : ... .. . ... ... : A-4 01 4 ... V03 : ... .. . ... ... : ... .. 8 ... ...
ROW 96 : F-4 00 6 P84 ... ... : ... .. . P88 ... ... : ... .. . ... : ... .. . ... : ... .. . ... ... : ... .. 3 ... V01 : ... .. . ... ... : ... .. 7 ... ...
ROW 97 : F#4 00 6 P80 ... ... : E-3 00 8 P78 ... ... : ... .. . ... : F-# 00 D ... : ... .. . ... ... : ... .. . ... ... : ... .. . ... ... : ... .. 6 ... ...
ROW 98 : G-4 00 6 ... ... ... : ... .. . P80 ... ... : ... .. . ... : D-# 00 6 ... : ... .. . ... ... : ... .. . ... ... : ... .. . ... ... : ... .. 4 ... ...
ROW 99 : G#4 00 6 P7F ... ... : ... .. . P87 ... ... : --- .. . ... : 9-# 00 1 ... : ... .. . ... ... : ... .. . ... ... : ... .. . ... ... : ... .. 3 ... ...
ROW 9A : A-4 00 6 P7D ... ... : F-3 00 8 P7A ... ... : D-3 00 . ... : 2-# 00 F ... : ... .. . ... ... : F-4 01 4 ... V03 : ... .. . ... ... : A-4 01 8 ... ...
ROW 9B : G#4 00 6 P84 ... ... : ... .. . P79 ... ... : ... .. . ... : ... .. C ... : ... .. . ... ... : ... .. 3 ... V01 : ... .. . ... ... : ... .. 7 ... ...
ROW 9C : ... .. . P7D ... ... : E-3 00 8 P85 ... ... : ... .. . ... : ... .. 6 ... : ... .. . ... ... : ... .. . ... ... : ... .. . ... ... : ... .. 6 ... ...
ROW 9D : G-4 00 6 P7E ... ... : ... .. . P7E ... ... : ... .. . ... : ... .. 3 ... : ... .. . ... ... : ... .. . ... ... : ... .. . ... ... : ... .. 4 ... ...
ROW 9E : F#4 00 6 ... ... ... : ... .. . P76 ... ... : --- .. . ... : ... .. 2 ... : ... .. . ... ... : ... .. . ... ... : ... .. . ... ... : ... .. 3 ... ...
ROW 9F : F-4 00 6 P84 ... ... : D#3 00 8 P88 ... ... : D-3 00 . ... : ... .. F ... : ... .. . ... ... : G-4 01 4 ... V03 : ... .. . ... ... : ... .. 8 ... ...
ROW A0 : F#4 00 1 P7F ... ... : E-3 00 1 P77 ... ... : ... .. . ... : ... .. C ... : ... .. . ... ... : ... .. 3 ... V01 : ... .. . ... ... : ... .. 7 ... ...
ROW A1 : G-4 00 1 ... ... ... : ... .. . P7F ... ... : ... .. . ... : ... .. 6 ... : ... .. . ... ... : ... .. . ... ... : ... .. . ... ... : ... .. 6 ... ...
ROW A2 : G#4 00 1 P7E ... ... : ... .. . P86 ... ... : ... .. . ... : ... .. 3 ... : ... .. . ... ... : ... .. . ... ... : ... .. . ... ... : ... .. 4 ... ...
ROW A3 : ... .. . P84 ... ... : F-3 00 1 P79 ... ... : --- .. . ... : ... .. 2 ... : ... .. . ... ... : ... .. . ... ... : ... .. . ... ... : ... .. 3 ... ...
ROW A4 : D-4 00 F P80 V00 ... : E-3 00 1 P80 ... ... : F-3 00 . ... : 8-# 00 F ... : ... .. . ... ... : D-4 01 4 ... V03 : ... .. . ... ... : D-5 01 8 ... ...
ROW A5 : ... .. E ... ... ... : ... .. . ... ... ... : ... .. . ... : ... .. C ... : ... .. . ... ... : ... .. 3 ... V01 : ... .. . ... ... : ... .. 7 ... ...
ROW A6 : ... .. D ... ... ... : ... .. 0 ... ... ... : ... .. . ... : ... .. 6 ... : ... .. . ... ... : ... .. . ... ... : ... .. . ... ... : ... .. 6 ... ...
ROW A7 : ... .. A ... ... ... : ... .. . ... ... ... : ... .. . ... : ... .. 3 ... : ... .. . ... ... : ... .. . ... ... : ... .. . ... ... : ... .. 4 ... ...
ROW A8 : ... .. 2 ... ... ... : ... .. . ... ... ... : --- .. . ... : ... .. 2 ... : ... .. . ... ... : ... .. . ... ... : ... .. . ... ... : ... .. 3 ... ...
ROW A9 : E-4 00 F ... ... ... : ... .. . ... ... ... : F-3 00 . ... : ... .. F ... : ... .. . ... ... : G-3 01 4 ... V03 : ... .. . ... ... : C-5 01 8 ... ...
ROW AA : ... .. E ... ... ... : ... .. . ... ... ... : ... .. . ... : ... .. C ... : ... .. . ... ... : ... .. 3 ... V01 : ... .. . ... ... : ... .. 7 ... ...
ROW AB : ... .. D ... ... ... : ... .. . ... ... ... : ... .. . ... : ... .. 6 ... : ... .. . ... ... : ... .. . ... ... : ... .. . ... ... : ... .. 6 ... ...
ROW AC : ... .. A ... ... ... : ... .. . ... ... ... : ... .. . ... : ... .. 3 ... : ... .. . ... ... : ... .. . ... ... : ... .. . ... ... : ... .. 4 ... ...
ROW AD : ... .. 2 ... ... ... : ... .. . ... ... ... : --- .. . ... : ... .. 2 ... : ... .. . ... ... : ... .. . ... ... : ... .. . ... ... : ... .. 3 ... ...
ROW AE : F-4 00 F ... ... ... : ... .. . ... ... ... : E-3 00 . ... : F-# 00 F ... : ... .. . ... ... : A-3 01 4 ... V03 : ... .. . ... ... : A#4 01 8 ... ...
ROW AF : ... .. E ... ... ... : ... .. . ... ... ... : ... .. . ... : ... .. C ... : ... .. . ... ... : ... .. 3 ... V01 : ... .. 1 ... ... : ... .. 7 ... ...
ROW B0 : ... .. D ... ... ... : ... .. . ... ... ... : ... .. . ... : ... .. 6 ... : ... .. . ... ... : ... .. . ... ... : ... .. . ... ... : ... .. 6 ... ...
ROW B1 : ... .. A ... ... ... : ... .. . ... ... ... : ... .. . ... : ... .. 3 ... : ... .. . ... ... : ... .. . ... ... : ... .. . ... ... : ... .. 4 ... ...
ROW B2 : ... .. 2 ... ... ... : ... .. . ... ... ... : --- .. . ... : ... .. 2 ... : ... .. . ... ... : ... .. . ... ... : ... .. . ... ... : ... .. 3 ... ...
ROW B3 : G-4 00 F ... ... ... : ... .. . ... ... ... : E-3 00 . ... : ... .. F ... : ... .. . ... ... : C-4 01 4 ... V03 : ... .. . ... ... : A-4 01 8 ... ...
ROW B4 : ... .. E ... ... ... : ... .. . ... ... ... : ... .. . ... : ... .. C ... : ... .. . ... ... : ... .. 3 ... V01 : ... .. . ... ... : ... .. 7 ... ...
ROW B5 : ... .. D ... ... ... : ... .. . ... ... ... : ... .. . ... : ... .. 6 ... : ... .. . ... ... : ... .. . ... ... : ... .. . ... ... : ... .. 6 ... ...
ROW B6 : ... .. A ... ... ... : ... .. . ... ... ... : ... .. . ... : ... .. 3 ... : ... .. . ... ... : ... .. . ... ... : ... .. . ... ... : ... .. 4 ... ...
ROW B7 : ... .. 2 ... ... ... : ... .. . ... ... ... : --- .. . ... : ... .. 2 ... : ... .. . ... ... : ... .. . ... ... : ... .. . ... ... : ... .. 3 ... ...
ROW B8 : A-4 00 F ... ... ... : D-4 00 8 P80 ... ... : D#3 00 . ... : 1-# 00 F ... : ... .. . ... ... : A#3 01 6 P81 V03 : D-4 01 6 ... V03 : G-4 01 8 ... ...
ROW B9 : ... .. E ... ... ... : ... .. 7 ... ... ... : ... .. . ... : ... .. C ... : ... .. . ... ... : ... .. 5 ... V01 : ... .. 5 ... V01 : ... .. 7 ... ...
ROW BA : ... .. D ... ... ... : ... .. . ... ... ... : ... .. . ... : ... .. 6 ... : ... .. . ... ... : ... .. . ... ... : ... .. . ... ... : ... .. 6 ... ...
ROW BB : ... .. A ... ... ... : ... .. 6 ... ... ... : ... .. . ... : ... .. 3 ... : ... .. . ... ... : ... .. . ... ... : ... .. . ... ... : ... .. 4 ... ...
ROW BC : ... .. . ... ... ... : ... .. 5 ... ... ... : ... .. . ... : ... .. 2 ... : ... .. . ... ... : ... .. . ... ... : ... .. . ... ... : ... .. 3 ... ...
ROW BD : ... .. . ... ... ... : A#3 00 8 ... ... ... : D-3 00 . P75 : C-# 00 8 ... : ... .. . ... ... : ... .. . ... ... : ... .. . ... ... : ... .. 8 ... ...
ROW BE : ... .. . ... ... ... : ... .. 7 ... ... ... : C-3 00 . P84 : ... .. 6 ... : ... .. . ... ... : ... .. . ... ... : ... .. . ... ... : ... .. 7 ... ...
ROW BF : ... .. . ... ... ... : ... .. . ... ... ... : B-2 00 . P7D : ... .. 3 ... : ... .. . ... ... : ... .. 4 ... ... : ... .. 4 ... ... : ... .. 6 ... ...
ROW C0 : ... .. . ... ... ... : ... .. 6 ... ... ... : A#2 00 . P78 : ... .. 1 ... : ... .. . ... ... : ... .. . ... ... : ... .. . ... ... : ... .. 4 ... ...
ROW C1 : ... .. . ... ... ... : ... .. 5 ... ... ... : A-2 00 . P74 : ... .. . ... : ... .. . ... ... : ... .. . ... ... : ... .. . ... ... : ... .. 3 ... ...
ROW C2 : ... .. . ... ... ... : G-3 00 8 ... ... ... : D#2 00 . P80 : ... .. F ... : ... .. . ... ... : ... .. . ... ... : ... .. . ... ... : G-3 01 8 ... ...
ROW C3 : ... .. . ... ... ... : ... .. 7 ... ... ... : ... .. . ... : ... .. C ... : ... .. . ... ... : ... .. . ... ... : ... .. . ... ... : ... .. 7 ... ...
ROW C4 : ... .. . ... ... ... : ... .. . ... ... ... : ... .. . ... : ... .. 6 ... : ... .. . ... ... : ... .. . ... ... : ... .. . ... ... : ... .. 6 ... ...
ROW C5 : ... .. . ... ... ... : ... .. 6 ... ... ... : ... .. . ... : ... .. 3 ... : ... .. . ... ... : ... .. 3 ... ... : ... .. 3 ... ... : ... .. 4 ... ...
ROW C6 : ... .. . ... ... ... : ... .. 5 ... ... ... : --- .. . ... : ... .. 2 ... : ... .. . ... ... : ... .. . ... ... : ... .. . ... ... : ... .. 3 ... ...
ROW C7 : ... .. . ... ... ... : ... .. 4 ... ... ... : D#2 00 . ... : 1-# 00 F ... : ... .. . ... ... : ... .. . ... ... : ... .. . ... ... : ... .. 8 ... ...
ROW C8 : ... .. . ... ... ... : ... .. . ... ... ... : ... .. . ... : ... .. C ... : ... .. . ... ... : ... .. . ... ... : ... .. . ... ... : ... .. 7 ... ...
ROW C9 : ... .. . ... ... ... : ... .. . ... ... ... : ... .. . ... : ... .. 6 ... : ... .. . ... ... : ... .. 2 ... ... : ... .. 2 ... ... : ... .. 6 ... ...
ROW CA : ... .. . ... ... ... : ... .. 3 ... ... ... : ... .. . ... : ... .. 3 ... : ... .. . ... ... : ... .. . ... ... : ... .. . ... ... : ... .. 4 ... ...
ROW CB : ... .. . ... ... ... : ... .. . ... ... ... : --- .. . ... : ... .. 2 ... : ... .. . ... ... : ... .. . ... ... : ... .. . ... ... : ... .. 3 ... ...
ROW CC : A#4 00 F ... ... ... : F-4 00 8 ... ... ... : D#2 00 . ... : 3-# 00 D ... : ... .. . ... ... : ... .. . ... ... : ... .. . ... ... : A-3 01 8 ... ...
ROW CD : ... .. E ... ... ... : ... .. 7 ... ... ... : ... .. . ... : ... .. . ... : ... .. . ... ... : ... .. . ... ... : ... .. . ... ... : ... .. 7 ... ...
ROW CE : ... .. D ... ... ... : ... .. . ... ... ... : ... .. . ... : F-# 00 D ... : ... .. . ... ... : ... .. . ... ... : ... .. . ... ... : ... .. 6 ... ...
ROW CF : ... .. A ... ... ... : ... .. 6 ... ... ... : ... .. . ... : D-# 00 6 ... : ... .. . ... ... : ... .. . ... ... : ... .. . ... ... : ... .. 4 ... ...
ROW D0 : ... .. 2 ... ... ... : ... .. 5 ... ... ... : ... .. . ... : 9-# 00 1 ... : ... .. . ... ... : ... .. . ... ... : ... .. . ... ... : ... .. 3 ... ...
ROW D1 : A-4 00 F ... ... ... : D-4 00 8 ... ... ... : ... .. . ... : ... .. 0 ... : ... .. . ... ... : ... .. . ... ... : ... .. . ... ... : ... .. 8 ... ...
ROW D2 : ... .. E ... ... ... : ... .. 7 ... ... ... : ... .. . ... : ... .. . ... : ... .. . ... ... : ... .. . ... ... : ... .. . ... ... : ... .. 7 ... ...
ROW D3 : ... .. D ... ... ... : ... .. . ... ... ... : ... .. . ... : ... .. . ... : ... .. . ... ... : ... .. . ... ... : ... .. . ... ... : ... .. 6 ... ...
ROW D4 : ... .. A ... ... ... : ... .. 6 ... ... ... : ... .. . ... : ... .. . ... : ... .. . ... ... : ... .. . ... ... : ... .. . ... ... : ... .. 4 ... ...
ROW D5 : ... .. 2 ... ... ... : ... .. 5 ... ... ... : --- .. . ... : ... .. . ... : ... .. . ... ... : ... .. . ... ... : ... .. . ... ... : ... .. 3 ... ...
ROW D6 : G-4 00 F ... ... ... : A#3 00 8 ... ... ... : D#3 00 . ... : 1-# 00 F ... : ... .. . ... ... : C-4 01 6 ... V03 : F-4 01 6 ... V03 : F-4 01 8 ... ...
ROW D7 : ... .. E ... ... ... : ... .. 7 ... ... ... : ... .. . ... : ... .. C ... : ... .. . ... ... : ... .. 5 ... V01 : ... .. 5 ... V01 : ... .. 7 ... ...
ROW D8 : ... .. D ... ... ... : ... .. . ... ... ... : ... .. . ... : ... .. 6 ... : ... .. . ... ... : ... .. . ... ... : ... .. . ... ... : ... .. 6 ... ...
ROW D9 : ... .. A ... ... ... : ... .. 6 ... ... ... : ... .. . ... : ... .. 3 ... : ... .. . ... ... : ... .. . ... ... : ... .. . ... ... : ... .. 4 ... ...
ROW DA : ... .. . ... ... ... : ... .. 5 ... ... ... : ... .. . ... : ... .. 2 ... : ... .. . ... ... : ... .. . ... ... : ... .. . ... ... : ... .. 3 ... ...
ROW DB : ... .. . ... ... ... : ... .. 4 ... ... ... : D-3 00 . P75 : C-# 00 7 ... : ... .. . ... ... : ... .. . ... ... : ... .. . ... ... : ... .. 8 ... ...
ROW DC : ... .. . ... ... ... : ... .. . ... ... ... : C-3 00 . P84 : ... .. 5 ... : ... .. . ... ... : ... .. . ... ... : ... .. . ... ... : ... .. 7 ... ...
ROW DD : ... .. . ... ... ... : ... .. . ... ... ... : B-2 00 . P7D : ... .. 2 ... : ... .. . ... ... : ... .. 4 ... ... : ... .. 4 ... ... : ... .. 6 ... ...
ROW DE : ... .. . ... ... ... : ... .. 3 ... ... ... : A#2 00 . P78 : ... .. 1 ... : ... .. . ... ... : ... .. . ... ... : ... .. . ... ... : ... .. 4 ... ...
ROW DF : ... .. . ... ... ... : ... .. . ... ... ... : A-2 00 . P74 : ... .. . ... : ... .. . ... ... : ... .. . ... ... : ... .. . ... ... : ... .. 3 ... ...
ROW E0 : ... .. . ... ... ... : A-4 00 8 ... ... ... : D#2 00 . P80 : ... .. F ... : ... .. . ... ... : ... .. . ... ... : ... .. . ... ... : G-3 01 8 ... ...
ROW E1 : ... .. . ... ... ... : ... .. 7 ... ... ... : ... .. . ... : ... .. C ... : ... .. . ... ... : ... .. . ... ... : ... .. . ... ... : ... .. 7 ... ...
ROW E2 : ... .. . ... ... ... : ... .. . ... ... ... : ... .. . ... : ... .. 6 ... : ... .. . ... ... : ... .. . ... ... : ... .. . ... ... : ... .. 6 ... ...
ROW E3 : ... .. . ... ... ... : ... .. 6 ... ... ... : ... .. . ... : ... .. 3 ... : ... .. . ... ... : ... .. 3 ... ... : ... .. 3 ... ... : ... .. 4 ... ...
ROW E4 : ... .. . ... ... ... : ... .. 5 ... ... ... : --- .. . ... : ... .. 2 ... : ... .. . ... ... : ... .. . ... ... : ... .. . ... ... : ... .. 3 ... ...
ROW E5 : ... .. . ... ... ... : F-4 00 8 ... ... ... : D#2 00 . ... : 1-# 00 F ... : ... .. . ... ... : ... .. . ... ... : ... .. . ... ... : ... .. 8 ... ...
ROW E6 : ... .. . ... ... ... : ... .. 7 ... ... ... : ... .. . ... : ... .. C ... : ... .. . ... ... : ... .. . ... ... : ... .. . ... ... : ... .. 7 ... ...
ROW E7 : ... .. . ... ... ... : ... .. . ... ... ... : ... .. . ... : ... .. 6 ... : ... .. . ... ... : ... .. 2 ... ... : ... .. 2 ... ... : ... .. 6 ... ...
ROW E8 : ... .. . ... ... ... : ... .. 6 ... ... ... : ... .. . ... : ... .. 3 ... : ... .. . ... ... : ... .. . ... ... : ... .. . ... ... : ... .. 4 ... ...
ROW E9 : ... .. . ... ... ... : ... .. 5 ... ... ... : --- .. . ... : ... .. 2 ... : ... .. . ... ... : ... .. . ... ... : ... .. . ... ... : ... .. 3 ... ...
ROW EA : ... .. . ... ... ... : A#3 00 8 ... ... ... : D#2 00 . ... : 3-# 00 D ... : ... .. . ... ... : ... .. . ... ... : ... .. . ... ... : A-3 01 8 ... ...
ROW EB : ... .. . ... ... ... : ... .. 7 ... ... ... : ... .. . ... : ... .. . ... : ... .. . ... ... : ... .. . ... ... : ... .. . ... ... : ... .. 7 ... ...
ROW EC : ... .. . ... ... ... : ... .. . ... ... ... : ... .. . ... : F-# 00 D ... : ... .. . ... ... : ... .. . ... ... : ... .. . ... ... : ... .. 6 ... ...
ROW ED : ... .. . ... ... ... : ... .. 6 ... ... ... : ... .. . ... : D-# 00 6 ... : ... .. . ... ... : ... .. . ... ... : ... .. . ... ... : ... .. 4 ... ...
ROW EE : ... .. 2 ... ... ... : ... .. 5 ... ... ... : ... .. . ... : 9-# 00 1 ... : ... .. . ... ... : ... .. . ... ... : ... .. . ... ... : ... .. 3 ... ...
ROW EF : ... .. . ... ... ... : ... .. 4 ... ... ... : ... .. . ... : ... .. 0 ... : ... .. . ... ... : ... .. . ... ... : ... .. . ... ... : ... .. 8 ... ...
ROW F0 : ... .. . ... ... ... : ... .. . ... ... ... : ... .. . ... : ... .. . ... : ... .. . ... ... : ... .. . ... ... : ... .. . ... ... : ... .. 7 ... ...
ROW F1 : ... .. 1 ... ... ... : ... .. . ... ... ... : ... .. . ... : ... .. . ... : ... .. . ... ... : ... .. . ... ... : ... .. . ... ... : ... .. 6 ... ...
ROW F2 : ... .. . ... ... ... : ... .. 3 ... ... ... : ... .. . ... : ... .. . ... : ... .. . ... ... : ... .. . ... ... : ... .. . ... ... : ... .. 4 ... ...
ROW F3 : ... .. . ... ... ... : ... .. . ... ... ... : --- .. . ... : ... .. . ... : ... .. . ... ... : ... .. . ... ... : ... .. . ... ... : ... .. 3 ... ...
ROW F4 : F-4 00 F ... ... ... : D-5 00 8 ... ... ... : D#3 00 . ... : 1-# 00 F ... : ... .. . ... ... : G-3 01 6 ... V03 : D-4 01 6 ... V03 : F-4 01 8 ... ...
ROW F5 : ... .. E ... ... ... : ... .. 7 ... ... ... : ... .. . ... : ... .. C ... : ... .. . ... ... : ... .. 5 ... V01 : ... .. 5 ... V01 : ... .. 7 ... ...
ROW F6 : ... .. D ... ... ... : ... .. . ... ... ... : ... .. . ... : ... .. 6 ... : ... .. . ... ... : ... .. . ... ... : ... .. . ... ... : ... .. 6 ... ...
ROW F7 : ... .. A ... ... ... : ... .. 6 ... ... ... : ... .. . ... : ... .. 3 ... : ... .. . ... ... : ... .. . ... ... : ... .. . ... ... : ... .. 4 ... ...
ROW F8 : ... .. . ... ... ... : ... .. 5 ... ... ... : ... .. . ... : ... .. 2 ... : ... .. . ... ... : ... .. . ... ... : ... .. . ... ... : ... .. 3 ... ...
ROW F9 : ... .. . ... ... ... : A#4 00 8 ... ... ... : D-3 00 . P75 : C-# 00 8 ... : ... .. . ... ... : ... .. . ... ... : ... .. . ... ... : ... .. 8 ... ...
ROW FA : ... .. . ... ... ... : ... .. 7 ... ... ... : C-3 00 . P84 : ... .. 6 ... : ... .. . ... ... : ... .. . ... ... : ... .. . ... ... : ... .. 7 ... ...
ROW FB : ... .. . ... ... ... : ... .. . ... ... ... : B-2 00 . P7D : ... .. 3 ... : ... .. . ... ... : ... .. 4 ... ... : ... .. 4 ... ... : ... .. 6 ... ...
ROW FC : ... .. . ... ... ... : ... .. 6 ... ... ... : A#2 00 . P78 : ... .. 1 ... : ... .. . ... ... : ... .. . ... ... : ... .. . ... ... : ... .. 4 ... ...
ROW FD : ... .. . ... ... ... : ... .. 5 ... ... ... : A-2 00 . P74 : ... .. . ... : ... .. . ... ... : ... .. . ... ... : ... .. . ... ... : ... .. 3 ... ...
ROW FE : ... .. . ... ... ... : G-4 00 8 ... ... ... : D#2 00 . P80 : ... .. F ... : ... .. . ... ... : ... .. . ... ... : ... .. . ... ... : G-3 01 8 ... ...
ROW FF : ... .. . ... ... ... : ... .. 7 ... ... ... : ... .. . ... : ... .. C ... : ... .. . ... ... : ... .. . ... ... : ... .. . ... ... : ... .. 7 ... ...

PATTERN 07
ROW 00 : ... .. . ... ... ... : ... .. . ... ... ... : ... .. . ... : ... .. 6 ... : ... .. . ... ... : ... .. . ... ... : ... .. . ... ... : ... .. 6 ... ...
ROW 01 : ... .. . ... ... ... : ... .. 6 ... ... ... : ... .. . ... : ... .. 3 ... : ... .. . ... ... : ... .. 3 ... ... : ... .. 3 ... ... : ... .. 4 ... ...
ROW 02 : ... .. . ... ... ... : ... .. 5 ... ... ... : --- .. . ... : ... .. 2 ... : ... .. . ... ... : ... .. . ... ... : ... .. . ... ... : ... .. 3 ... ...
ROW 03 : ... .. . ... ... ... : ... .. 4 ... ... ... : D#2 00 . ... : 1-# 00 F ... : ... .. . ... ... : ... .. . ... ... : ... .. . ... ... : ... .. 8 ... ...
ROW 04 : ... .. 2 ... ... ... : ... .. . ... ... ... : ... .. . ... : ... .. C ... : ... .. . ... ... : ... .. . ... ... : ... .. . ... ... : ... .. 7 ... ...
ROW 05 : ... .. . ... ... ... : ... .. . ... ... ... : ... .. . ... : ... .. 6 ... : ... .. . ... ... : ... .. 2 ... ... : ... .. 2 ... ... : ... .. 6 ... ...
ROW 06 : ... .. . ... ... ... : ... .. 3 ... ... ... : ... .. . ... : ... .. 3 ... : ... .. . ... ... : ... .. . ... ... : ... .. . ... ... : ... .. 4 ... ...
ROW 07 : ... .. 1 ... ... ... : ... .. . ... ... ... : --- .. . ... : ... .. 2 ... : ... .. . ... ... : ... .. . ... ... : ... .. . ... ... : ... .. 3 ... ...
ROW 08 : G-4 00 F ... ... ... : ... .. 2 ... ... ... : D#2 00 . ... : 3-# 00 D ... : ... .. . ... ... : ... .. . ... ... : ... .. . ... ... : A-3 01 8 ... ...
ROW 09 : ... .. E ... ... ... : ... .. . ... ... ... : ... .. . ... : ... .. . ... : ... .. . ... ... : ... .. . ... ... : ... .. . ... ... : ... .. 7 ... ...
ROW 0A : ... .. D ... ... ... : ... .. . ... ... ... : ... .. . ... : F-# 00 D ... : ... .. . ... ... : ... .. . ... ... : ... .. . ... ... : ... .. 6 ... ...
ROW 0B : ... .. A ... ... ... : ... .. 1 ... ... ... : ... .. . ... : D-# 00 6 ... : ... .. . ... ... : ... .. . ... ... : ... .. . ... ... : ... .. 4 ... ...
ROW 0C : ... .. 2 ... ... ... : ... .. . ... ... ... : ... .. . ... : 9-# 00 1 ... : ... .. . ... ... : ... .. . ... ... : ... .. . ... ... : ... .. 3 ... ...
ROW 0D : F-4 00 F ... ... ... : ... .. . ... ... ... : ... .. . ... : ... .. 0 ... : ... .. . ... ... : ... .. . ... ... : ... .. . ... ... : ... .. 8 ... ...
ROW 0E : ... .. E ... ... ... : ... .. 0 ... ... ... : ... .. . ... : ... .. . ... : ... .. . ... ... : ... .. . ... ... : ... .. . ... ... : ... .. 7 ... ...
ROW 0F : ... .. D ... ... ... : ... .. . ... ... ... : ... .. . ... : ... .. . ... : ... .. . ... ... : ... .. . ... ... : ... .. . ... ... : ... .. 6 ... ...
ROW 10 : ... .. A ... ... ... : ... .. . ... ... ... : ... .. . ... : ... .. . ... : ... .. . ... ... : ... .. . ... ... : ... .. . ... ... : ... .. 4 ... ...
ROW 11 : ... .. 2 ... ... ... : ... .. . ... ... ... : --- .. . ... : ... .. . ... : ... .. . ... ... : ... .. . ... ... : ... .. . ... ... : ... .. 3 ... ...
ROW 12 : D#4 00 F ... ... ... : ... .. . ... ... ... : D#3 00 . ... : 1-# 00 F ... : ... .. . ... ... : D-3 01 6 ... V03 : G-3 01 6 ... V03 : D#4 01 8 ... ...
ROW 13 : ... .. E ... ... ... : ... .. . ... ... ... : ... .. . ... : ... .. C ... : ... .. . ... ... : ... .. 5 ... V01 : ... .. 5 ... V01 : ... .. 7 ... ...
ROW 14 : ... .. D ... ... ... : ... .. . ... ... ... : ... .. . ... : ... .. 6 ... : ... .. . ... ... : ... .. . ... ... : ... .. . ... ... : ... .. 6 ... ...
ROW 15 : ... .. A ... ... ... : ... .. . ... ... ... : ... .. . ... : ... .. 3 ... : ... .. . ... ... : ... .. . ... ... : ... .. . ... ... : ... .. 4 ... ...
ROW 16 : ... .. . ... ... ... : ... .. . ... ... ... : ... .. . ... : ... .. 2 ... : ... .. . ... ... : ... .. . ... ... : ... .. . ... ... : ... .. 3 ... ...
ROW 17 : ... .. . ... ... ... : ... .. . ... ... ... : D-3 00 . P75 : C-# 00 7 ... : ... .. . ... ... : ... .. . ... ... : ... .. . ... ... : ... .. 8 ... ...
ROW 18 : ... .. . ... ... ... : ... .. . ... ... ... : C-3 00 . P84 : ... .. 5 ... : ... .. . ... ... : ... .. . ... ... : ... .. . ... ... : ... .. 7 ... ...
ROW 19 : ... .. . ... ... ... : ... .. . ... ... ... : B-2 00 . P7D : ... .. 2 ... : ... .. . ... ... : ... .. 4 ... ... : ... .. 4 ... ... : ... .. 6 ... ...
ROW 1A : ... .. . ... ... ... : ... .. . ... ... ... : A#2 00 . P78 : ... .. 1 ... : ... .. . ... ... : ... .. . ... ... : ... .. . ... ... : ... .. 4 ... ...
ROW 1B : ... .. . ... ... ... : ... .. . ... ... ... : A-2 00 . P74 : ... .. . ... : ... .. . ... ... : ... .. . ... ... : ... .. . ... ... : ... .. 3 ... ...
ROW 1C : ... .. . ... ... ... : ... .. . ... ... ... : D#2 00 . P80 : ... .. F ... : ... .. . ... ... : ... .. . ... ... : ... .. . ... ... : G-3 01 8 ... ...
ROW 1D : ... .. . ... ... ... : ... .. . ... ... ... : ... .. . ... : ... .. C ... : ... .. . ... ... : ... .. . ... ... : ... .. . ... ... : ... .. 7 ... ...
ROW 1E : ... .. . ... ... ... : ... .. . ... ... ... : ... .. . ... : ... .. 6 ... : ... .. . ... ... : ... .. . ... ... : ... .. . ... ... : ... .. 6 ... ...
ROW 1F : ... .. . ... ... ... : ... .. . ... ... ... : ... .. . ... : ... .. 3 ... : ... .. . ... ... : ... .. 3 ... ... : ... .. 3 ... ... : ... .. 4 ... ...
ROW 20 : ... .. . ... ... ... : ... .. . ... ... ... : --- .. . ... : ... .. 2 ... : ... .. . ... ... : ... .. . ... ... : ... .. . ... ... : ... .. 3 ... ...
ROW 21 : ... .. . ... ... ... : ... .. . ... ... ... : D#2 00 . ... : 1-# 00 F ... : ... .. . ... ... : ... .. . ... ... : ... .. . ... ... : ... .. 8 ... ...
ROW 22 : ... .. . ... ... ... : ... .. . ... ... ... : ... .. . ... : ... .. C ... : ... .. . ... ... : ... .. . ... ... : ... .. . ... ... : ... .. 7 ... ...
ROW 23 : ... .. . ... ... ... : ... .. . ... ... ... : ... .. . ... : ... .. 6 ... : ... .. . ... ... : ... .. 2 ... ... : ... .. 2 ... ... : ... .. 6 ... ...
ROW 24 : ... .. . ... ... ... : ... .. . ... ... ... : ... .. . ... : ... .. 3 ... : ... .. . ... ... : ... .. . ... ... : ... .. . ... ... : ... .. 4 ... ...
ROW 25 : ... .. . ... ... ... : ... .. . ... ... ... : --- .. . ... : ... .. 2 ... : ... .. . ... ... : ... .. . ... ... : ... .. . ... ... : ... .. 3 ... ...
ROW 26 : ... .. . ... ... ... : ... .. . ... ... ... : D#2 00 . ... : 3-# 00 D ... : ... .. . ... ... : ... .. . ... ... : ... .. . ... ... : A-3 01 8 ... ...
ROW 27 : ... .. . ... ... ... : ... .. . ... ... ... : ... .. . ... : ... .. . ... : ... .. . ... ... : ... .. . ... ... : ... .. . ... ... : ... .. 7 ... ...
ROW 28 : ... .. . ... ... ... : ... .. . ... ... ... : ... .. . ... : F-# 00 D ... : ... .. . ... ... : ... .. . ... ... : ... .. . ... ... : ... .. 6 ... ...
ROW 29 : ... .. . ... ... ... : ... .. . ... ... ... : ... .. . ... : D-# 00 6 ... : ... .. . ... ... : ... .. . ... ... : ... .. . ... ... : ... .. 4 ... ...
ROW 2A : ... .. . ... ... ... : ... .. . ... ... ... : ... .. . ... : 9-# 00 1 ... : ... .. . ... ... : ... .. . ... ... : ... .. . ... ... : ... .. 3 ... ...
ROW 2B : ... .. . ... ... ... : ... .. . ... ... ... : ... .. . ... : ... .. 0 ... : ... .. . ... ... : ... .. . ... ... : ... .. . ... ... : ... .. 8 ... ...
ROW 2C : ... .. . ... ... ... : ... .. . ... ... ... : ... .. . ... : ... .. . ... : ... .. . ... ... : ... .. . ... ... : ... .. . ... ... : ... .. 7 ... ...
ROW 2D : ... .. . ... ... ... : ... .. . ... ... ... : ... .. . ... : ... .. . ... : ... .. . ... ... : ... .. . ... ... : ... .. . ... ... : ... .. 6 ... ...
ROW 2E : ... .. . ... ... ... : ... .. . ... ... ... : ... .. . ... : ... .. . ... : ... .. . ... ... : ... .. . ... ... : ... .. . ... ... : ... .. 4 ... ...
ROW 2F : ... .. 2 ... ... ... : ... .. . ... ... ... : --- .. . ... : ... .. . ... : ... .. . ... ... : ... .. . ... ... : ... .. . ... ... : ... .. 3 ... ...
ROW 30 : D-4 00 F ... ... ... : D-3 00 8 P80 ... ... : E-3 00 . ... : 1-# 00 F ... : ... .. . ... ... : F#3 01 6 ... V03 : B-2 01 6 ... V03 : B-3 01 A ... ...
ROW 31 : ... .. E ... ... ... : ... .. 7 ... ... ... : ... .. . ... : ... .. C ... : ... .. . ... ... : ... .. 5 ... V01 : ... .. 5 ... V01 : ... .. 8 ... ...
ROW 32 : ... .. D ... ... ... : ... .. . ... ... ... : ... .. . ... : ... .. 6 ... : ... .. . ... ... : ... .. . ... ... : ... .. . ... ... : ... .. 5 ... ...
ROW 33 : ... .. A ... ... ... : ... .. 6 ... ... ... : ... .. . ... : ... .. 3 ... : ... .. . ... ... : ... .. . ... ... : ... .. . ... ... : ... .. . ... ...
ROW 34 : ... .. . ... ... ... : ... .. 5 ... ... ... : ... .. . ... : ... .. 2 ... : ... .. . ... ... : ... .. . ... ... : ... .. . ... ... : ... .. . ... ...
ROW 35 : ... .. . ... ... ... : ... .. 8 ... ... ... : ... .. . ... : C-# 00 8 ... : ... .. . ... ... : ... .. . ... ... : ... .. . ... ... : ... .. . ... ...
ROW 36 : ... .. . ... ... ... : ... .. 7 ... ... ... : ... .. . ... : ... .. 6 ... : ... .. . ... ... : ... .. . ... ... : ... .. . ... ... : ... .. . ... ...
ROW 37 : ... .. . ... ... ... : ... .. . ... ... ... : ... .. . ... : ... .. 3 ... : ... .. . ... ... : ... .. 4 ... ... : ... .. 4 ... ... : ... .. . ... ...
ROW 38 : ... .. . ... ... ... : ... .. 6 ... ... ... : ... .. . ... : ... .. 1 ... : ... .. . ... ... : ... .. . ... ... : ... .. . ... ... : ... .. . ... ...
ROW 39 : ... .. . ... ... ... : ... .. 5 ... ... ... : --- .. . ... : ... .. . ... : ... .. . ... ... : ... .. . ... ... : ... .. . ... ... : ... .. . ... ...
ROW 3A : ... .. . ... ... ... : G-2 00 8 ... ... ... : E-2 00 . ... : ... .. F ... : ... .. . ... ... : G-3 01 6 ... V03 : D-3 01 6 ... V03 : ... .. . ... ...
ROW 3B : ... .. . ... ... ... : ... .. 7 ... ... ... : ... .. . ... : ... .. C ... : ... .. . ... ... : ... .. 5 ... V01 : ... .. 5 ... V01 : ... .. . ... ...
ROW 3C : ... .. . ... ... ... : ... .. . ... ... ... : ... .. . ... : ... .. 6 ... : ... .. . ... ... : ... .. . ... ... : ... .. . ... ... : ... .. . ... ...
ROW 3D : ... .. . ... ... ... : ... .. 6 ... ... ... : ... .. . ... : ... .. 3 ... : ... .. . ... ... : ... .. . ... ... : ... .. . ... ... : ... .. . ... ...
ROW 3E : ... .. . ... ... ... : ... .. 5 ... ... ... : --- .. . ... : ... .. 2 ... : ... .. . ... ... : ... .. . ... ... : ... .. . ... ... : ... .. . ... ...
ROW 3F : ... .. . ... ... ... : ... .. 8 ... ... ... : E-2 00 . ... : 1-# 00 F ... : ... .. . ... ... : ... .. . ... ... : ... .. . ... ... : ... .. . ... ...
ROW 40 : ... .. . ... ... ... : ... .. 7 ... ... ... : ... .. . ... : ... .. C ... : ... .. . ... ... : ... .. . ... ... : ... .. . ... ... : ... .. . ... ...
ROW 41 : ... .. . ... ... ... : ... .. . ... ... ... : ... .. . ... : ... .. 6 ... : ... .. . ... ... : ... .. 4 ... ... : ... .. 4 ... ... : ... .. . ... ...
ROW 42 : ... .. . ... ... ... : ... .. 6 ... ... ... : ... .. . ... : ... .. 3 ... : ... .. . ... ... : ... .. . ... ... : ... .. . ... ... : ... .. . ... ...
ROW 43 : ... .. . ... ... ... : ... .. 5 ... ... ... : --- .. . ... : ... .. 2 ... : ... .. . ... ... : ... .. . ... ... : ... .. . ... ... : ... .. . ... ...
ROW 44 : ... .. . ... ... ... : A-2 00 8 ... ... ... : E-2 00 . ... : 3-# 00 D ... : ... .. . ... ... : A-3 01 6 ... V03 : G-2 01 6 ... V03 : ... .. . ... ...
ROW 45 : ... .. . ... ... ... : ... .. 7 ... ... ... : ... .. . ... : ... .. . ... : ... .. . ... ... : ... .. 5 ... V01 : ... .. 5 ... V01 : ... .. . ... ...
ROW 46 : ... .. . ... ... ... : ... .. . ... ... ... : ... .. . ... : F-# 00 D ... : ... .. . ... ... : ... .. . ... ... : ... .. . ... ... : ... .. . ... ...
ROW 47 : ... .. . ... ... ... : ... .. 6 ... ... ... : ... .. . ... : D-# 00 6 ... : ... .. . ... ... : ... .. . ... ... : ... .. . ... ... : ... .. . ... ...
ROW 48 : ... .. . ... ... ... : ... .. 5 ... ... ... : --- .. . ... : 9-# 00 1 ... : ... .. . ... ... : ... .. . ... ... : ... .. . ... ... : ... .. . ... ...
ROW 49 : ... .. . ... ... ... : ... .. 8 ... ... ... : E-2 00 . ... : ... .. 0 ... : ... .. . ... ... : ... .. . ... ... : ... .. . ... ... : ... .. . ... ...
ROW 4A : ... .. . ... ... ... : ... .. 7 ... ... ... : ... .. . ... : ... .. . ... : ... .. . ... ... : ... .. . ... ... : ... .. . ... ... : ... .. . ... ...
ROW 4B : ... .. . ... ... ... : ... .. . ... ... ... : ... .. . ... : ... .. . ... : ... .. . ... ... : ... .. 4 ... ... : ... .. 4 ... ... : ... .. . ... ...
ROW 4C : ... .. . ... ... ... : ... .. 6 ... ... ... : ... .. . ... : ... .. . ... : ... .. . ... ... : ... .. . ... ... : ... .. . ... ... : ... .. . ... ...
ROW 4D : ... .. . ... ... ... : ... .. 5 ... ... ... : --- .. . ... : ... .. . ... : ... .. . ... ... : ... .. . ... ... : ... .. . ... ... : ... .. . ... ...
ROW 4E : ... .. . ... ... ... : B-2 00 8 ... ... ... : E-3 00 . ... : 1-# 00 F ... : ... .. . ... ... : D-3 01 6 ... V03 : A-2 01 6 ... V03 : A-3 01 A ... ...
ROW 4F : ... .. . ... ... ... : ... .. 7 ... ... ... : ... .. . ... : ... .. C ... : ... .. . ... ... : ... .. 5 ... V01 : ... .. 5 ... V01 : ... .. 8 ... ...
ROW 50 : ... .. . ... ... ... : ... .. . ... ... ... : ... .. . ... : ... .. 6 ... : ... .. . ... ... : ... .. . ... ... : ... .. . ... ... : ... .. 5 ... ...
ROW 51 : ... .. . ... ... ... : ... .. 6 ... ... ... : ... .. . ... : ... .. 3 ... : ... .. . ... ... : ... .. . ... ... : ... .. . ... ... : ... .. . ... ...
ROW 52 : ... .. . ... ... ... : ... .. 5 ... ... ... : ... .. . ... : ... .. 2 ... : ... .. . ... ... : ... .. . ... ... : ... .. . ... ... : ... .. . ... ...
ROW 53 : ... .. . ... ... ... : ... .. 8 ... ... ... : ... .. . ... : C-# 00 7 ... : ... .. . ... ... : ... .. . ... ... : ... .. . ... ... : ... .. . ... ...
ROW 54 : ... .. . ... ... ... : ... .. 7 ... ... ... : ... .. . ... : ... .. 5 ... : ... .. . ... ... : ... .. . ... ... : ... .. . ... ... : ... .. . ... ...
ROW 55 : ... .. . ... ... ... : ... .. . ... ... ... : ... .. . ... : ... .. 2 ... : ... .. . ... ... : ... .. 4 ... ... : ... .. 4 ... ... : ... .. . ... ...
ROW 56 : ... .. . ... ... ... : ... .. 6 ... ... ... : ... .. . ... : ... .. 1 ... : ... .. . ... ... : ... .. . ... ... : ... .. . ... ... : ... .. . ... ...
ROW 57 : ... .. . ... ... ... : ... .. 5 ... ... ... : --- .. . ... : ... .. . ... : ... .. . ... ... : ... .. . ... ... : ... .. . ... ... : ... .. . ... ...
ROW 58 : ... .. . ... ... ... : D-3 00 8 ... ... ... : E-2 00 . ... : 1-# 00 F ... : ... .. . ... ... : F#3 01 6 ... V03 : G-2 01 6 ... V03 : ... .. . ... ...
ROW 59 : ... .. . ... ... ... : ... .. 7 ... ... ... : ... .. . ... : ... .. C ... : ... .. . ... ... : ... .. 5 ... V01 : ... .. 5 ... V01 : ... .. . ... ...
ROW 5A : ... .. . ... ... ... : ... .. . ... ... ... : ... .. . ... : ... .. 6 ... : ... .. . ... ... : ... .. . ... ... : ... .. . ... ... : ... .. . ... ...
ROW 5B : ... .. . ... ... ... : ... .. 6 ... ... ... : ... .. . ... : ... .. 3 ... : ... .. . ... ... : ... .. . ... ... : ... .. . ... ... : ... .. . ... ...
ROW 5C : ... .. . ... ... ... : ... .. 5 ... ... ... : --- .. . ... : ... .. 2 ... : ... .. . ... ... : ... .. . ... ... : ... .. . ... ... : ... .. . ... ...
ROW 5D : ... .. . P84 ... ... : ... .. 8 ... ... ... : E-2 00 . ... : C-# 00 8 ... : ... .. . ... ... : ... .. . ... ... : ... .. . ... ... : ... .. . ... ...
ROW 5E : D#4 00 A P7C ... ... : ... .. 7 ... ... ... : ... .. . ... : ... .. 6 ... : ... .. . ... ... : ... .. . ... ... : ... .. . ... ... : ... .. . ... ...
ROW 5F : D-4 00 A P85 ... ... : ... .. . ... ... ... : ... .. . ... : ... .. 3 ... : ... .. . ... ... : ... .. 4 ... ... : ... .. 4 ... ... : ... .. . ... ...
ROW 60 : ... .. . P82 ... ... : ... .. 6 ... ... ... : ... .. . ... : ... .. 1 ... : ... .. . ... ... : ... .. . ... ... : ... .. . ... ... : ... .. . ... ...
ROW 61 : ... .. . P7E ... ... : ... .. 5 ... ... ... : --- .. . ... : ... .. . ... : ... .. . ... ... : ... .. . ... ... : ... .. . ... ... : ... .. . ... ...
ROW 62 : ... .. . P7B ... ... : F#3 00 8 ... ... ... : E-2 00 . ... : ... .. F ... : ... .. . ... ... : G-3 01 6 ... V03 : A-2 01 6 ... V03 : ... .. . ... ...
ROW 63 : C#4 00 A P86 ... ... : ... .. 7 ... ... ... : ... .. . ... : ... .. C ... : ... .. . ... ... : ... .. 5 ... V01 : ... .. 5 ... V01 : ... .. . ... ...
ROW 64 : D-4 00 A P7C ... ... : ... .. . ... ... ... : ... .. . ... : ... .. 6 ... : ... .. . ... ... : ... .. . ... ... : ... .. . ... ... : ... .. . ... ...
ROW 65 : ... .. . P80 ... ... : ... .. 6 ... ... ... : ... .. . ... : ... .. 3 ... : ... .. . ... ... : ... .. . ... ... : ... .. . ... ... : ... .. . ... ...
ROW 66 : ... .. . P83 ... ... : ... .. 5 ... ... ... : --- .. . ... : ... .. 2 ... : ... .. . ... ... : ... .. . ... ... : ... .. . ... ... : ... .. . ... ...
ROW 67 : D#4 00 A P7C ... ... : ... .. 8 ... ... ... : E-2 00 . ... : 1-# 00 F ... : ... .. . ... ... : ... .. . ... ... : ... .. . ... ... : ... .. . ... ...
ROW 68 : ... .. . ... ... ... : ... .. 7 ... ... ... : ... .. . ... : ... .. C ... : ... .. . ... ... : ... .. . ... ... : ... .. . ... ... : ... .. . ... ...
ROW 69 : D-4 00 A P82 ... ... : ... .. . ... ... ... : ... .. . ... : ... .. 6 ... : ... .. . ... ... : ... .. 4 ... ... : ... .. 4 ... ... : ... .. . ... ...
ROW 6A : ... .. . P7F ... ... : ... .. 6 ... ... ... : ... .. . ... : ... .. 3 ... : ... .. . ... ... : ... .. . ... ... : ... .. . ... ... : ... .. . ... ...
ROW 6B : ... .. . P7B ... ... : ... .. 5 ... ... ... : --- .. . ... : ... .. 2 ... : ... .. . ... ... : ... .. . ... ... : ... .. . ... ... : ... .. . ... ...
ROW 6C : C#4 00 A P86 ... ... : G-3 00 8 ... ... ... : E-3 00 . ... : 3-# 00 D ... : ... .. . ... ... : A-3 01 6 ... V03 : B-2 01 6 ... V03 : F#3 01 A ... ...
ROW 6D : D-4 00 2 P7C ... ... : ... .. 7 ... ... ... : ... .. . ... : ... .. . ... : ... .. . ... ... : ... .. 5 ... V01 : ... .. 5 ... V01 : ... .. 8 ... ...
ROW 6E : ... .. . P80 ... ... : ... .. . ... ... ... : ... .. . ... : F-# 00 D ... : ... .. . ... ... : ... .. . ... ... : ... .. . ... ... : ... .. 5 ... ...
ROW 6F : ... .. . P83 ... ... : ... .. 6 ... ... ... : ... .. . ... : D-# 00 6 ... : ... .. . ... ... : ... .. . ... ... : ... .. . ... ... : ... .. . ... ...
ROW 70 : D#4 00 1 P7C ... ... : ... .. 5 ... ... ... : ... .. . ... : 9-# 00 1 ... : ... .. . ... ... : ... .. . ... ... : ... .. . ... ... : ... .. . ... ...
ROW 71 : ... .. . ... ... ... : ... .. 8 ... ... ... : ... .. . ... : ... .. 0 ... : ... .. . ... ... : ... .. . ... ... : ... .. . ... ... : G-3 01 A ... ...
ROW 72 : D-4 00 1 P83 ... ... : ... .. 7 ... ... ... : ... .. . ... : ... .. . ... : ... .. . ... ... : ... .. . ... ... : ... .. . ... ... : ... .. 8 ... ...
ROW 73 : ... .. 0 ... ... ... : ... .. . ... ... ... : ... .. . ... : ... .. . ... : ... .. . ... ... : ... .. 4 ... ... : ... .. 4 ... ... : ... .. 5 ... ...
ROW 74 : ... .. . ... ... ... : ... .. 6 ... ... ... : ... .. . ... : ... .. . ... : ... .. . ... ... : ... .. . ... ... : ... .. . ... ... : ... .. . ... ...
ROW 75 : ... .. . ... ... ... : ... .. 5 ... ... ... : --- .. . ... : ... .. . ... : ... .. . ... ... : ... .. . ... ... : ... .. . ... ... : ... .. . ... ...
ROW 76 : ... .. . ... ... ... : A-3 00 8 ... ... ... : E-2 00 . ... : 1-# 00 F ... : ... .. . ... ... : D-4 01 6 ... V03 : D-3 01 6 ... V03 : A-3 01 A ... ...
ROW 77 : ... .. . ... ... ... : ... .. 7 ... ... ... : ... .. . ... : ... .. C ... : ... .. . ... ... : ... .. 5 ... V01 : ... .. 5 ... V01 : ... .. 8 ... ...
ROW 78 : ... .. . ... ... ... : ... .. . ... ... ... : ... .. . ... : ... .. 6 ... : ... .. . ... ... : ... .. . ... ... : ... .. . ... ... : ... .. 5 ... ...
ROW 79 : ... .. . ... ... ... : ... .. 6 ... ... ... : ... .. . ... : ... .. 3 ... : ... .. . ... ... : ... .. . ... ... : ... .. . ... ... : ... .. . ... ...
ROW 7A : ... .. . ... ... ... : ... .. 5 ... ... ... : --- .. . ... : ... .. 2 ... : ... .. . ... ... : ... .. . ... ... : ... .. . ... ... : ... .. . ... ...
ROW 7B : ... .. . ... ... ... : ... .. 8 ... ... ... : E-2 00 . ... : C-# 00 7 ... : ... .. . ... ... : ... .. . ... ... : ... .. . ... ... : B-3 01 A ... ...
ROW 7C : ... .. . ... ... ... : ... .. 7 ... ... ... : ... .. . ... : ... .. 5 ... : ... .. . ... ... : ... .. . ... ... : ... .. . ... ... : ... .. 8 ... ...
ROW 7D : ... .. . ... ... ... : ... .. . ... ... ... : ... .. . ... : ... .. 2 ... : ... .. . ... ... : ... .. 4 ... ... : ... .. 4 ... ... : ... .. 5 ... ...
ROW 7E : ... .. . ... ... ... : ... .. 6 ... ... ... : ... .. . ... : ... .. 1 ... : ... .. . ... ... : ... .. . ... ... : ... .. . ... ... : ... .. . ... ...
ROW 7F : ... .. . ... ... ... : ... .. 5 ... ... ... : --- .. . ... : ... .. . ... : ... .. . ... ... : ... .. . ... ... : ... .. . ... ... : ... .. . ... ...
ROW 80 : F#2 00 F P80 ... ... : F#3 00 8 ... ... ... : E-2 00 . ... : ... .. F ... : ... .. . ... ... : F#5 01 9 ... V03 : F#4 01 9 ... V03 : D-4 01 A ... ...
ROW 81 : ... .. E ... ... ... : ... .. 7 ... ... ... : ... .. . ... : ... .. C ... : ... .. . ... ... : ... .. 8 ... V01 : ... .. 8 ... V01 : ... .. 8 ... ...
ROW 82 : ... .. D ... ... ... : ... .. . ... ... ... : ... .. . ... : ... .. 6 ... : ... .. . ... ... : ... .. . ... ... : ... .. . ... ... : ... .. 5 ... ...
ROW 83 : ... .. 9 ... ... ... : ... .. 6 ... ... ... : ... .. . ... : ... .. 3 ... : ... .. . ... ... : ... .. . ... ... : ... .. . ... ... : ... .. . ... ...
ROW 84 : ... .. . ... ... ... : ... .. 5 ... ... ... : --- .. . ... : ... .. 2 ... : ... .. . ... ... : ... .. . ... ... : ... .. . ... ... : ... .. . ... ...
ROW 85 : G-2 00 E ... ... ... : ... .. 8 ... ... ... : E-2 00 . ... : 1-# 00 F ... : ... .. . ... ... : ... .. . ... ... : ... .. . ... ... : F#4 01 A ... ...
ROW 86 : ... .. D ... ... ... : ... .. 7 ... ... ... : ... .. . ... : ... .. C ... : ... .. . ... ... : ... .. . ... ... : ... .. . ... ... : ... .. 8 ... ...
ROW 87 : ... .. C ... ... ... : ... .. . ... ... ... : ... .. . ... : ... .. 6 ... : ... .. . ... ... : ... .. 7 ... ... : ... .. 7 ... ... : ... .. 5 ... ...
ROW 88 : ... .. 8 ... ... ... : ... .. 6 ... ... ... : ... .. . ... : ... .. 3 ... : ... .. . ... ... : ... .. . ... ... : ... .. . ... ... : ... .. . ... ...
ROW 89 : ... .. . ... ... ... : ... .. 5 ... ... ... : --- .. . ... : ... .. 2 ... : ... .. . ... ... : ... .. . ... ... : ... .. . ... ... : ... .. . ... ...
ROW 8A : A-2 00 D ... ... ... : G-3 00 8 ... ... ... : E-3 00 . ... : 3-# 00 D ... : ... .. . ... ... : ... .. . ... ... : ... .. . ... ... : G-4 01 A ... ...
ROW 8B : ... .. C ... ... ... : ... .. 7 ... ... ... : ... .. . ... : ... .. . ... : ... .. . ... ... : ... .. 6 ... ... : ... .. 6 ... ... : ... .. 8 ... ...
ROW 8C : ... .. B ... ... ... : ... .. . ... ... ... : ... .. . ... : F-# 00 D ... : ... .. . ... ... : ... .. . ... ... : ... .. . ... ... : ... .. 5 ... ...
ROW 8D : ... .. 8 ... ... ... : ... .. 6 ... ... ... : ... .. . ... : D-# 00 6 ... : ... .. . ... ... : ... .. 5 ... ... : ... .. 5 ... ... : ... .. . ... ...
ROW 8E : ... .. . ... ... ... : ... .. 5 ... ... ... : ... .. . ... : 9-# 00 1 ... : ... .. . ... ... : ... .. . ... ... : ... .. . ... ... : ... .. . ... ...
ROW 8F : D-3 00 C ... ... ... : ... .. 8 ... ... ... : ... .. . ... : ... .. 0 ... : ... .. . ... ... : ... .. . ... ... : ... .. . ... ... : ... .. . ... ...
ROW 90 : ... .. B ... ... ... : ... .. 7 ... ... ... : ... .. . ... : ... .. . ... : ... .. . ... ... : ... .. . ... ... : ... .. . ... ... : ... .. . ... ...
ROW 91 : ... .. A ... ... ... : ... .. . ... ... ... : ... .. . ... : ... .. . ... : ... .. . ... ... : ... .. 4 ... ... : ... .. 4 ... ... : ... .. . ... ...
ROW 92 : ... .. 7 ... ... ... : ... .. 6 ... ... ... : ... .. . ... : ... .. . ... : ... .. . ... ... : ... .. . ... ... : ... .. . ... ... : ... .. . ... ...
ROW 93 : ... .. . ... ... ... : ... .. 5 ... ... ... : --- .. . ... : ... .. . ... : ... .. . ... ... : ... .. . ... ... : ... .. . ... ... : ... .. . ... ...
ROW 94 : F#3 00 B ... ... ... : A-3 00 8 ... ... ... : G-3 00 . ... : 4-# 00 D ... : ... .. . ... ... : G-5 01 9 ... V03 : G-4 01 9 ... V03 : ... .. . ... ...
ROW 95 : ... .. A ... ... ... : ... .. 7 ... ... ... : ... .. . ... : ... .. . ... : ... .. . ... ... : ... .. 8 ... V01 : ... .. 8 ... V01 : ... .. . ... ...
ROW 96 : ... .. 9 ... ... ... : ... .. . ... ... ... : ... .. . ... : 0-# 00 D ... : ... .. . ... ... : ... .. . ... ... : ... .. . ... ... : ... .. . ... ...
ROW 97 : ... .. 7 ... ... ... : ... .. 6 ... ... ... : ... .. . ... : E-# 00 6 ... : ... .. . ... ... : ... .. . ... ... : ... .. . ... ... : ... .. . ... ...
ROW 98 : ... .. . ... ... ... : ... .. 5 ... ... ... : --- .. . ... : A-# 00 1 ... : ... .. . ... ... : ... .. . ... ... : ... .. . ... ... : ... .. . ... ...
ROW 99 : G-3 00 A ... ... ... : ... .. 8 ... ... ... : G-3 00 . ... : 4-# 00 D ... : ... .. . ... ... : ... .. . ... ... : ... .. . ... ... : ... .. . P84 ...
ROW 9A : ... .. 9 ... ... ... : ... .. 7 ... ... ... : ... .. . ... : ... .. . ... : ... .. . ... ... : ... .. . ... ... : ... .. . ... ... : G#4 01 5 P7D ...
ROW 9B : ... .. 8 ... ... ... : ... .. . ... ... ... : ... .. . ... : 0-# 00 D ... : ... .. . ... ... : ... .. 7 ... ... : ... .. 7 ... ... : ... .. . P7C ...
ROW 9C : ... .. 6 ... ... ... : ... .. 6 ... ... ... : ... .. . ... : E-# 00 6 ... : ... .. . ... ... : ... .. . ... ... : ... .. . ... ... : G-4 01 5 P82 ...
ROW 9D : ... .. . ... ... ... : ... .. 5 ... ... ... : --- .. . ... : A-# 00 1 ... : ... .. . ... ... : ... .. . ... ... : ... .. . ... ... : ... .. . P7E ...
ROW 9E : A-3 00 9 ... ... ... : D-4 00 8 ... ... ... : F#3 00 . ... : B-# 00 D ... : ... .. . ... ... : ... .. . ... ... : ... .. . ... ... : F#4 01 5 P85 ...
ROW 9F : ... .. 8 ... ... ... : ... .. 7 ... ... ... : ... .. . ... : ... .. . ... : ... .. . ... ... : ... .. 6 ... ... : ... .. 6 ... ... : ... .. . P84 ...
ROW A0 : ... .. 7 ... ... ... : ... .. . ... ... ... : ... .. . ... : 7-# 00 D ... : ... .. . ... ... : ... .. . ... ... : ... .. . ... ... : G-4 01 5 P7C ...
ROW A1 : ... .. 6 ... ... ... : ... .. 6 ... ... ... : ... .. . ... : 5-# 00 6 ... : ... .. . ... ... : ... .. 5 ... ... : ... .. 5 ... ... : ... .. . P80 ...
ROW A2 : ... .. . ... ... ... : ... .. 5 ... ... ... : --- .. . ... : 1-# 00 1 ... : ... .. . ... ... : ... .. . ... ... : ... .. . ... ... : ... .. . P83 ...
ROW A3 : F#4 00 8 ... ... ... : ... .. 8 ... ... ... : F#3 00 . ... : B-# 00 D ... : ... .. . ... ... : ... .. . ... ... : ... .. . ... ... : G#4 01 5 P7D ...
ROW A4 : ... .. 7 ... ... ... : ... .. 7 ... ... ... : ... .. . ... : ... .. . ... : ... .. . ... ... : ... .. . ... ... : ... .. . ... ... : ... .. . ... ...
ROW A5 : ... .. 6 ... ... ... : ... .. . ... ... ... : ... .. . ... : 7-# 00 D ... : ... .. . ... ... : ... .. 4 ... ... : ... .. 4 ... ... : G-4 01 5 P82 ...
ROW A6 : ... .. 5 ... ... ... : ... .. 6 ... ... ... : ... .. . ... : 5-# 00 6 ... : ... .. . ... ... : ... .. . ... ... : ... .. . ... ... : ... .. . P7F ...
ROW A7 : ... .. . ... ... ... : ... .. 5 ... ... ... : --- .. . ... : 1-# 00 1 ... : ... .. . ... ... : ... .. . ... ... : ... .. . ... ... : F#4 01 5 P85 ...
ROW A8 : G-4 00 8 ... ... ... : F#4 00 8 ... ... ... : A-3 00 . ... : 3-# 00 D ... : ... .. . ... ... : A-5 01 9 ... V03 : A-4 01 9 ... V03 : ... .. . P84 ...
ROW A9 : ... .. 7 ... ... ... : ... .. 7 ... ... ... : ... .. . ... : ... .. . ... : ... .. . ... ... : ... .. 8 ... V01 : ... .. 8 ... V01 : G-4 01 5 P7C ...
ROW AA : ... .. 6 ... ... ... : ... .. . ... ... ... : ... .. . ... : F-# 00 D ... : ... .. . ... ... : ... .. . ... ... : ... .. . ... ... : ... .. . P80 ...
ROW AB : ... .. 5 ... ... ... : ... .. 6 ... ... ... : ... .. . ... : D-# 00 6 ... : ... .. . ... ... : ... .. . ... ... : ... .. . ... ... : ... .. . P83 ...
ROW AC : ... .. . ... ... ... : ... .. 5 ... ... ... : --- .. . ... : 9-# 00 1 ... : ... .. . ... ... : ... .. . ... ... : ... .. . ... ... : G#4 01 5 P7D ...
ROW AD : A-4 00 9 ... ... ... : ... .. 8 ... ... ... : A-3 00 . ... : 3-# 00 D ... : ... .. . ... ... : ... .. . ... ... : ... .. . ... ... : ... .. . ... ...
ROW AE : ... .. 8 ... ... ... : ... .. 7 ... ... ... : ... .. . ... : ... .. . ... : ... .. . ... ... : ... .. . ... ... : ... .. . ... ... : G-4 01 5 P83 ...
ROW AF : ... .. 7 ... ... ... : ... .. . ... ... ... : ... .. . ... : F-# 00 D ... : ... .. . ... ... : ... .. 7 ... ... : ... .. 7 ... ... : ... .. . P80 ...
ROW B0 : ... .. 6 ... ... ... : ... .. 6 ... ... ... : ... .. . ... : D-# 00 6 ... : ... .. . ... ... : ... .. . ... ... : ... .. . ... ... : ... .. . P7C ...
ROW B1 : ... .. . ... ... ... : ... .. 5 ... ... ... : --- .. . ... : 9-# 00 1 ... : ... .. . ... ... : ... .. . ... ... : ... .. . ... ... : F#4 01 5 P84 ...
ROW B2 : D-5 00 A ... ... ... : G-4 00 8 ... ... ... : D-4 00 . ... : 2-# 00 F ... : ... .. . ... ... : ... .. . ... ... : ... .. . ... ... : ... .. . P85 ...
ROW B3 : ... .. 9 ... ... ... : ... .. 7 ... ... ... : ... .. . ... : ... .. C ... : ... .. . ... ... : ... .. 6 ... ... : ... .. 6 ... ... : G-4 01 5 P7F ...
ROW B4 : ... .. 8 ... ... ... : ... .. . ... ... ... : ... .. . ... : ... .. 6 ... : ... .. . ... ... : ... .. . ... ... : ... .. . ... ... : ... .. . P82 ...
ROW B5 : ... .. 6 ... ... ... : ... .. 6 ... ... ... : ... .. . ... : ... .. 3 ... : ... .. . ... ... : ... .. 5 ... ... : ... .. 5 ... ... : G#4 01 5 P7D ...
ROW B6 : ... .. . ... ... ... : ... .. 5 ... ... ... : --- .. . ... : ... .. 2 ... : ... .. . ... ... : ... .. . ... ... : ... .. . ... ... : ... .. . ... ...
ROW B7 : F#5 00 B ... ... ... : ... .. 8 ... ... ... : D-4 00 . ... : ... .. F ... : ... .. . ... ... : ... .. . ... ... : ... .. . ... ... : G-4 01 5 P83 ...
ROW B8 : ... .. A ... ... ... : ... .. 7 ... ... ... : ... .. . ... : ... .. C ... : ... .. . ... ... : ... .. . ... ... : ... .. . ... ... : ... .. . P80 ...
ROW B9 : ... .. 9 ... ... ... : ... .. . ... ... ... : ... .. . ... : ... .. 6 ... : ... .. . ... ... : ... .. 4 ... ... : ... .. 4 ... ... : ... .. . P7C ...
ROW BA : ... .. 7 ... ... ... : ... .. 6 ... ... ... : ... .. . ... : ... .. 3 ... : ... .. . ... ... : ... .. . ... ... : ... .. . ... ... : F#4 01 5 P84 ...
ROW BB : ... .. . ... ... ... : ... .. 5 ... ... ... : --- .. . ... : ... .. 2 ... : ... .. . ... ... : ... .. . ... ... : ... .. . ... ... : ... .. . P85 ...
ROW BC : G-5 00 C ... ... ... : A-4 00 8 ... ... ... : F#4 00 . ... : 8-# 00 F ... : ... .. . ... ... : D-5 01 9 ... V03 : D-4 01 9 ... V03 : G-4 01 5 P7E ...
ROW BD : ... .. B ... ... ... : ... .. 7 ... ... ... : ... .. . ... : ... .. C ... : ... .. . ... ... : ... .. 8 ... V01 : ... .. 8 ... V01 : ... .. . P82 ...
ROW BE : ... .. A ... ... ... : ... .. . ... ... ... : ... .. . ... : ... .. 6 ... : ... .. . ... ... : ... .. . ... ... : ... .. . ... ... : G#4 01 5 P7C ...
ROW BF : ... .. 8 ... ... ... : ... .. 6 ... ... ... : ... .. . ... : ... .. 3 ... : ... .. . ... ... : ... .. . ... ... : ... .. . ... ... : ... .. . P7D ...
ROW C0 : ... .. . ... ... ... : ... .. 5 ... ... ... : --- .. . ... : ... .. 2 ... : ... .. . ... ... : ... .. . ... ... : ... .. . ... ... : G-4 01 5 P84 ...
ROW C1 : A-5 00 D ... ... ... : ... .. 8 ... ... ... : F#4 00 . ... : ... .. F ... : ... .. . ... ... : ... .. . ... ... : ... .. . ... ... : ... .. . P80 ...
ROW C2 : ... .. C ... ... ... : ... .. 7 ... ... ... : ... .. . ... : ... .. C ... : ... .. . ... ... : ... .. . ... ... : ... .. . ... ... : ... .. . P7D ...
ROW C3 : ... .. B ... ... ... : ... .. . ... ... ... : ... .. . ... : ... .. 6 ... : ... .. . ... ... : ... .. 7 ... ... : ... .. 7 ... ... : F#4 01 5 P84 ...
ROW C4 : ... .. 8 ... ... ... : ... .. 6 ... ... ... : ... .. . ... : ... .. 3 ... : ... .. . ... ... : ... .. . ... ... : ... .. . ... ... : ... .. . ... ...
ROW C5 : ... .. . ... ... ... : ... .. 5 ... ... ... : --- .. . ... : ... .. 2 ... : ... .. . ... ... : ... .. . ... ... : ... .. . ... ... : G-4 01 5 P7E ...
ROW C6 : D-6 00 E ... ... ... : D-5 00 8 ... ... ... : G-4 00 . ... : F-# 00 F ... : ... .. . ... ... : ... .. . ... ... : ... .. . ... ... : ... .. . P81 ...
ROW C7 : ... .. D ... ... ... : ... .. 7 ... ... ... : ... .. . ... : ... .. C ... : ... .. . ... ... : ... .. 6 ... ... : ... .. 6 ... ... : G#4 01 5 P7C ...
ROW C8 : ... .. C ... ... ... : ... .. . ... ... ... : ... .. . ... : ... .. 6 ... : ... .. . ... ... : ... .. . ... ... : ... .. . ... ... : ... .. . P7D ...
ROW C9 : ... .. 9 ... ... ... : ... .. 6 ... ... ... : ... .. . ... : ... .. 3 ... : ... .. . ... ... : ... .. 5 ... ... : ... .. 5 ... ... : --- .. . ... ...
ROW CA : ... .. . ... ... ... : ... .. 5 ... ... ... : --- .. . ... : ... .. 2 ... : ... .. . ... ... : ... .. . ... ... : ... .. . ... ... : ... .. . ... ...
ROW CB : A-6 00 F ... ... ... : ... .. 8 ... ... ... : G-4 00 . ... : ... .. F ... : ... .. . ... ... : ... .. . ... ... : ... .. . ... ... : ... .. . ... ...
ROW CC : ... .. E ... ... ... : ... .. 7 ... ... ... : ... .. . ... : ... .. C ... : ... .. . ... ... : ... .. . ... ... : ... .. . ... ... : ... .. . ... ...
ROW CD : ... .. D ... ... ... : ... .. . ... ... ... : ... .. . ... : ... .. 6 ... : ... .. . ... ... : ... .. 4 ... ... : ... .. 4 ... ... : ... .. . ... ...
ROW CE : ... .. A ... ... ... : ... .. 6 ... ... ... : ... .. . ... : ... .. 3 ... : ... .. . ... ... : ... .. . ... ... : ... .. . ... ... : ... .. . ... ...
ROW CF : ... .. . ... ... ... : ... .. 5 ... ... ... : --- .. . ... : ... .. 2 ... : ... .. . ... ... : ... .. . ... ... : ... .. . ... ... : ... .. . ... ...
ROW D0 : A-4 00 F ... ... ... : F-3 00 C ... ... ... : D#3 00 . ... : 1-# 00 F ... : ... .. . Z00 ... : ... .. 9 ... V03 : ... .. 9 ... V03 : D-4 01 8 P80 ...
ROW D1 : ... .. E ... ... ... : ... .. B ... ... ... : ... .. . ... : ... .. C ... : ... .. . ... ... : ... .. 8 ... V01 : ... .. 8 ... V01 : ... .. 7 ... ...
ROW D2 : ... .. D ... ... ... : ... .. A ... ... ... : ... .. . ... : ... .. 6 ... : ... .. . ... ... : ... .. . ... ... : ... .. . ... ... : ... .. 6 ... ...
ROW D3 : ... .. A ... ... ... : ... .. 8 ... ... ... : ... .. . ... : ... .. 3 ... : ... .. . ... ... : ... .. . ... ... : ... .. . ... ... : ... .. 4 ... ...
ROW D4 : ... .. . ... ... ... : ... .. . ... ... ... : ... .. . ... : ... .. 2 ... : ... .. . ... ... : ... .. . ... ... : ... .. . ... ... : ... .. 3 ... ...
ROW D5 : ... .. . ... ... ... : ... .. . ... ... ... : D-3 00 . P75 : C-# 00 8 ... : ... .. . ... ... : ... .. . ... ... : ... .. . ... ... : ... .. 8 ... ...
ROW D6 : ... .. . ... ... ... : ... .. . ... ... ... : C-3 00 . P84 : ... .. 6 ... : ... .. . ... ... : ... .. . ... ... : ... .. . ... ... : ... .. 7 ... ...
ROW D7 : ... .. . ... ... ... : ... .. . ... ... ... : B-2 00 . P7D : ... .. 3 ... : ... .. . ... ... : ... .. 7 ... ... : ... .. 7 ... ... : ... .. 6 ... ...
ROW D8 : ... .. . ... ... ... : ... .. . ... ... ... : A#2 00 . P78 : ... .. 1 ... : ... .. . ... ... : ... .. . ... ... : ... .. . ... ... : ... .. 4 ... ...
ROW D9 : ... .. . ... ... ... : ... .. . ... ... ... : A-2 00 . P74 : ... .. . ... : ... .. . ... ... : ... .. . ... ... : ... .. . ... ... : ... .. 3 ... ...
ROW DA : ... .. . ... ... ... : ... .. . ... ... ... : D#2 00 . P80 : ... .. F ... : ... .. . ... ... : ... .. . ... ... : ... .. . ... ... : F-3 01 8 ... ...
ROW DB : ... .. . ... ... ... : ... .. . ... ... ... : ... .. . ... : ... .. C ... : ... .. . ... ... : ... .. 6 ... ... : ... .. 6 ... ... : ... .. 7 ... ...
ROW DC : ... .. . ... ... ... : ... .. . ... ... ... : ... .. . ... : ... .. 6 ... : ... .. . ... ... : ... .. . ... ... : ... .. . ... ... : ... .. 6 ... ...
ROW DD : ... .. . ... ... ... : ... .. . ... ... ... : ... .. . ... : ... .. 3 ... : ... .. . ... ... : ... .. 5 ... ... : ... .. 5 ... ... : ... .. 4 ... ...
ROW DE : ... .. . ... ... ... : ... .. . ... ... ... : --- .. . ... : ... .. 2 ... : ... .. . ... ... : ... .. . ... ... : ... .. . ... ... : ... .. 3 ... ...
ROW DF : ... .. . ... ... ... : ... .. . ... ... ... : D#2 00 . ... : 1-# 00 F ... : ... .. . ... ... : ... .. . ... ... : ... .. . ... ... : ... .. 8 ... ...
ROW E0 : ... .. 2 ... ... ... : ... .. 1 ... ... ... : ... .. . ... : ... .. C ... : ... .. . ... ... : ... .. . ... ... : ... .. . ... ... : ... .. 7 ... ...
ROW E1 : ... .. . ... ... ... : ... .. . ... ... ... : ... .. . ... : ... .. 6 ... : ... .. . ... ... : ... .. 4 ... ... : ... .. 4 ... ... : ... .. 6 ... ...
ROW E2 : ... .. . ... ... ... : ... .. . ... ... ... : ... .. . ... : ... .. 3 ... : ... .. . ... ... : ... .. . ... ... : ... .. . ... ... : ... .. 4 ... ...
ROW E3 : ... .. 1 ... ... ... : ... .. . ... ... ... : --- .. . ... : ... .. 2 ... : ... .. . ... ... : ... .. . ... ... : ... .. . ... ... : ... .. 3 ... ...
ROW E4 : ... .. 8 ... ... ... : ... .. 8 ... ... ... : D#2 00 . ... : 3-# 00 D ... : ... .. . ... ... : ... .. . ... ... : ... .. . ... ... : G-3 01 8 ... ...
ROW E5 : ... .. 7 ... ... ... : ... .. 7 ... ... ... : ... .. . ... : ... .. . ... : ... .. . ... ... : ... .. . ... ... : ... .. . ... ... : ... .. 7 ... ...
ROW E6 : ... .. 6 ... ... ... : ... .. 6 ... ... ... : ... .. . ... : F-# 00 D ... : ... .. . ... ... : ... .. . ... ... : ... .. . ... ... : ... .. 6 ... ...
ROW E7 : ... .. 5 ... ... ... : ... .. 5 ... ... ... : ... .. . ... : D-# 00 6 ... : ... .. . ... ... : ... .. . ... ... : ... .. . ... ... : ... .. 4 ... ...
ROW E8 : ... .. . ... ... ... : ... .. . ... ... ... : ... .. . ... : 9-# 00 1 ... : ... .. . ... ... : ... .. . ... ... : ... .. . ... ... : ... .. 3 ... ...
ROW E9 : ... .. . ... ... ... : ... .. . ... ... ... : ... .. . ... : ... .. 0 ... : ... .. . ... ... : ... .. . ... ... : ... .. . ... ... : ... .. 8 ... ...
ROW EA : ... .. . ... ... ... : ... .. . ... ... ... : ... .. . ... : ... .. . ... : ... .. . ... ... : ... .. . ... ... : ... .. . ... ... : ... .. 7 ... ...
ROW EB : ... .. . ... ... ... : ... .. . ... ... ... : ... .. . ... : ... .. . ... : ... .. . ... ... : ... .. . ... ... : ... .. . ... ... : ... .. 6 ... ...
ROW EC : ... .. . ... ... ... : ... .. . ... ... ... : ... .. . ... : ... .. . ... : ... .. . ... ... : ... .. . ... ... : ... .. . ... ... : ... .. 4 ... ...
ROW ED : ... .. 1 ... ... ... : ... .. 1 ... ... ... : --- .. . ... : ... .. . ... : ... .. . ... ... : ... .. . ... ... : ... .. . ... ... : ... .. 3 ... ...
ROW EE : C-5 00 F ... ... ... : G-3 00 C ... ... ... : D#3 00 . ... : 1-# 00 F ... : ... .. . ... ... : G-4 01 9 ... V03 : G-3 01 9 ... V03 : D-4 01 8 ... ...
ROW EF : ... .. E ... ... ... : ... .. B ... ... ... : ... .. . ... : ... .. C ... : ... .. . ... ... : ... .. 8 ... V01 : ... .. 8 ... V01 : ... .. 7 ... ...
ROW F0 : ... .. D ... ... ... : ... .. A ... ... ... : ... .. . ... : ... .. 6 ... : ... .. . ... ... : ... .. . ... ... : ... .. . ... ... : ... .. 6 ... ...
ROW F1 : ... .. A ... ... ... : ... .. 8 ... ... ... : ... .. . ... : ... .. 3 ... : ... .. . ... ... : ... .. . ... ... : ... .. . ... ... : ... .. 4 ... ...
ROW F2 : ... .. . ... ... ... : ... .. . ... ... ... : ... .. . ... : ... .. 2 ... : ... .. . ... ... : ... .. . ... ... : ... .. . ... ... : ... .. 3 ... ...
ROW F3 : ... .. . ... ... ... : ... .. . ... ... ... : D-3 00 . P75 : C-# 00 7 ... : ... .. . ... ... : ... .. . ... ... : ... .. . ... ... : ... .. 8 ... ...
ROW F4 : ... .. . ... ... ... : ... .. . ... ... ... : C-3 00 . P84 : ... .. 5 ... : ... .. . ... ... : ... .. . ... ... : ... .. . ... ... : ... .. 7 ... ...
ROW F5 : ... .. . ... ... ... : ... .. . ... ... ... : B-2 00 . P7D : ... .. 2 ... : ... .. . ... ... : ... .. 7 ... ... : ... .. 7 ... ... : ... .. 6 ... ...
ROW F6 : ... .. . ... ... ... : ... .. . ... ... ... : A#2 00 . P78 : ... .. 1 ... : ... .. . ... ... : ... .. . ... ... : ... .. . ... ... : ... .. 4 ... ...
ROW F7 : ... .. . ... ... ... : ... .. . ... ... ... : A-2 00 . P74 : ... .. . ... : ... .. . ... ... : ... .. . ... ... : ... .. . ... ... : ... .. 3 ... ...
ROW F8 : ... .. . ... ... ... : ... .. . ... ... ... : D#2 00 . P80 : ... .. F ... : ... .. . ... ... : ... .. . ... ... : ... .. . ... ... : G-3 01 8 ... ...
ROW F9 : ... .. . ... ... ... : ... .. . ... ... ... : ... .. . ... : ... .. C ... : ... .. . ... ... : ... .. 6 ... ... : ... .. 6 ... ... : ... .. 7 ... ...
ROW FA : ... .. . ... ... ... : ... .. . ... ... ... : ... .. . ... : ... .. 6 ... : ... .. . ... ... : ... .. . ... ... : ... .. . ... ... : ... .. 6 ... ...
ROW FB : ... .. . ... ... ... : ... .. . ... ... ... : ... .. . ... : ... .. 3 ... : ... .. . ... ... : ... .. 5 ... ... : ... .. 5 ... ... : ... .. 4 ... ...
ROW FC : ... .. . ... ... ... : ... .. . ... ... ... : --- .. . ... : ... .. 2 ... : ... .. . ... ... : ... .. . ... ... : ... .. . ... ... : ... .. 3 ... ...
ROW FD : ... .. . ... ... ... : ... .. . ... ... ... : D#2 00 . ... : 1-# 00 F ... : ... .. . ... ... : ... .. . ... ... : ... .. . ... ... : ... .. 8 ... ...
ROW FE : ... .. 2 ... ... ... : ... .. 1 ... ... ... : ... .. . ... : ... .. C ... : ... .. . ... ... : ... .. . ... ... : ... .. . ... ... : ... .. 7 ... ...
ROW FF : ... .. . ... ... ... : ... .. . ... ... ... : ... .. . ... : ... .. 6 ... : ... .. . ... ... : ... .. 4 ... ... : ... .. 4 ... ... : ... .. 6 ... ...

PATTERN 08
ROW 00 : ... .. . ... ... ... : ... .. . ... ... ... : ... .. . ... : ... .. 3 ... : ... .. . ... ... : ... .. . ... ... : ... .. . ... ... : ... .. 4 ... ...
ROW 01 : ... .. 1 ... ... ... : ... .. . ... ... ... : --- .. . ... : ... .. 2 ... : ... .. . ... ... : ... .. . ... ... : ... .. . ... ... : ... .. 3 ... ...
ROW 02 : ... .. 8 ... ... ... : ... .. 8 ... ... ... : D#2 00 . ... : 3-# 00 D ... : ... .. . ... ... : ... .. . ... ... : ... .. . ... ... : A-3 01 8 ... ...
ROW 03 : ... .. 7 ... ... ... : ... .. 7 ... ... ... : ... .. . ... : ... .. . ... : ... .. . ... ... : ... .. . ... ... : ... .. . ... ... : ... .. 7 ... ...
ROW 04 : ... .. 6 ... ... ... : ... .. 6 ... ... ... : ... .. . ... : F-# 00 D ... : ... .. . ... ... : ... .. . ... ... : ... .. . ... ... : ... .. 6 ... ...
ROW 05 : ... .. 5 ... ... ... : ... .. 5 ... ... ... : ... .. . ... : D-# 00 6 ... : ... .. . ... ... : ... .. . ... ... : ... .. . ... ... : ... .. 4 ... ...
ROW 06 : ... .. . ... ... ... : ... .. . ... ... ... : ... .. . ... : 9-# 00 1 ... : ... .. . ... ... : ... .. . ... ... : ... .. . ... ... : ... .. 3 ... ...
ROW 07 : ... .. . ... ... ... : ... .. . ... ... ... : ... .. . ... : ... .. 0 ... : ... .. . ... ... : ... .. . ... ... : ... .. . ... ... : ... .. 8 ... ...
ROW 08 : ... .. . ... ... ... : ... .. . ... ... ... : ... .. . ... : ... .. . ... : ... .. . ... ... : ... .. . ... ... : ... .. . ... ... : ... .. 7 ... ...
ROW 09 : ... .. . ... ... ... : ... .. . ... ... ... : ... .. . ... : ... .. . ... : ... .. . ... ... : ... .. . ... ... : ... .. . ... ... : ... .. 6 ... ...
ROW 0A : ... .. . ... ... ... : ... .. . ... ... ... : ... .. . ... : ... .. . ... : ... .. . ... ... : ... .. . ... ... : ... .. . ... ... : ... .. 4 ... ...
ROW 0B : ... .. 1 ... ... ... : ... .. 1 ... ... ... : --- .. . ... : ... .. . ... : ... .. . ... ... : ... .. . ... ... : ... .. . ... ... : ... .. 3 ... ...
ROW 0C : G-4 00 F ... ... ... : D-4 00 C ... ... ... : D#3 00 . ... : 1-# 00 F ... : ... .. . ... ... : C-5 01 9 ... V03 : C-4 01 9 ... V03 : D-4 01 8 ... ...
ROW 0D : ... .. E ... ... ... : ... .. B ... ... ... : ... .. . ... : ... .. C ... : ... .. . ... ... : ... .. 8 ... V01 : ... .. 8 ... V01 : ... .. 7 ... ...
ROW 0E : ... .. D ... ... ... : ... .. A ... ... ... : ... .. . ... : ... .. 6 ... : ... .. . ... ... : ... .. . ... ... : ... .. . ... ... : ... .. 6 ... ...
ROW 0F : ... .. A ... ... ... : ... .. 8 ... ... ... : ... .. . ... : ... .. 3 ... : ... .. . ... ... : ... .. . ... ... : ... .. . ... ... : ... .. 4 ... ...
ROW 10 : ... .. . ... ... ... : ... .. . ... ... ... : ... .. . ... : ... .. 2 ... : ... .. . ... ... : ... .. . ... ... : ... .. . ... ... : ... .. 3 ... ...
ROW 11 : ... .. . ... ... ... : ... .. . ... ... ... : D-3 00 . P75 : C-# 00 8 ... : ... .. . ... ... : ... .. . ... ... : ... .. . ... ... : ... .. 8 ... ...
ROW 12 : ... .. . ... ... ... : ... .. . ... ... ... : C-3 00 . P84 : ... .. 6 ... : ... .. . ... ... : ... .. . ... ... : ... .. . ... ... : ... .. 7 ... ...
ROW 13 : ... .. . ... ... ... : ... .. . ... ... ... : B-2 00 . P7D : ... .. 3 ... : ... .. . ... ... : ... .. 7 ... ... : ... .. 7 ... ... : ... .. 6 ... ...
ROW 14 : ... .. . ... ... ... : ... .. . ... ... ... : A#2 00 . P78 : ... .. 1 ... : ... .. . ... ... : ... .. . ... ... : ... .. . ... ... : ... .. 4 ... ...
ROW 15 : ... .. . ... ... ... : ... .. . ... ... ... : A-2 00 . P74 : ... .. . ... : ... .. . ... ... : ... .. . ... ... : ... .. . ... ... : ... .. 3 ... ...
ROW 16 : ... .. . ... ... ... : ... .. . ... ... ... : D#2 00 . P80 : ... .. F ... : ... .. . ... ... : ... .. . ... ... : ... .. . ... ... : F-3 01 8 ... ...
ROW 17 : ... .. . ... ... ... : ... .. . ... ... ... : ... .. . ... : ... .. C ... : ... .. . ... ... : ... .. 6 ... ... : ... .. 6 ... ... : ... .. 7 ... ...
ROW 18 : ... .. . ... ... ... : ... .. . ... ... ... : ... .. . ... : ... .. 6 ... : ... .. . ... ... : ... .. . ... ... : ... .. . ... ... : ... .. 6 ... ...
ROW 19 : ... .. . ... ... ... : ... .. . ... ... ... : ... .. . ... : ... .. 3 ... : ... .. . ... ... : ... .. 5 ... ... : ... .. 5 ... ... : ... .. 4 ... ...
ROW 1A : ... .. . ... ... ... : ... .. . ... ... ... : --- .. . ... : ... .. 2 ... : ... .. . ... ... : ... .. . ... ... : ... .. . ... ... : ... .. 3 ... ...
ROW 1B : ... .. . ... ... ... : ... .. . ... ... ... : D#2 00 . ... : 1-# 00 F ... : ... .. . ... ... : ... .. . ... ... : ... .. . ... ... : ... .. 8 ... ...
ROW 1C : ... .. 2 ... ... ... : ... .. 1 ... ... ... : ... .. . ... : ... .. C ... : ... .. . ... ... : ... .. . ... ... : ... .. . ... ... : ... .. 7 ... ...
ROW 1D : ... .. . ... ... ... : ... .. . ... ... ... : ... .. . ... : ... .. 6 ... : ... .. . ... ... : ... .. 4 ... ... : ... .. 4 ... ... : ... .. 6 ... ...
ROW 1E : ... .. . ... ... ... : ... .. . ... ... ... : ... .. . ... : ... .. 3 ... : ... .. . ... ... : ... .. . ... ... : ... .. . ... ... : ... .. 4 ... ...
ROW 1F : ... .. 1 ... ... ... : ... .. . ... ... ... : --- .. . ... : ... .. 2 ... : ... .. . ... ... : ... .. . ... ... : ... .. . ... ... : ... .. 3 ... ...
ROW 20 : ... .. 8 ... ... ... : ... .. 8 ... ... ... : D#2 00 . ... : 3-# 00 D ... : ... .. . ... ... : ... .. . ... ... : ... .. . ... ... : G-3 01 8 ... ...
ROW 21 : ... .. 7 ... ... ... : ... .. 7 ... ... ... : ... .. . ... : ... .. . ... : ... .. . ... ... : ... .. . ... ... : ... .. . ... ... : ... .. 7 ... ...
ROW 22 : ... .. 6 ... ... ... : ... .. 6 ... ... ... : ... .. . ... : F-# 00 D ... : ... .. . ... ... : ... .. . ... ... : ... .. . ... ... : ... .. 6 ... ...
ROW 23 : ... .. 5 ... ... ... : ... .. 5 ... ... ... : ... .. . ... : D-# 00 6 ... : ... .. . ... ... : ... .. . ... ... : ... .. . ... ... : ... .. 4 ... ...
ROW 24 : ... .. 1 ... ... ... : ... .. 1 ... ... ... : ... .. . ... : 9-# 00 1 ... : ... .. . ... ... : ... .. . ... ... : ... .. . ... ... : ... .. 3 ... ...
ROW 25 : ... .. 8 ... ... ... : ... .. 8 ... ... ... : ... .. . ... : ... .. 0 ... : ... .. . ... ... : ... .. . ... ... : ... .. . ... ... : ... .. 8 ... ...
ROW 26 : ... .. 7 ... ... ... : ... .. 7 ... ... ... : ... .. . ... : ... .. . ... : ... .. . ... ... : ... .. . ... ... : ... .. . ... ... : ... .. 7 ... ...
ROW 27 : ... .. 6 ... ... ... : ... .. 6 ... ... ... : ... .. . ... : ... .. . ... : ... .. . ... ... : ... .. . ... ... : ... .. . ... ... : ... .. 6 ... ...
ROW 28 : ... .. 5 ... ... ... : ... .. 5 ... ... ... : ... .. . ... : ... .. . ... : ... .. . ... ... : ... .. . ... ... : ... .. . ... ... : ... .. 4 ... ...
ROW 29 : ... .. 1 ... ... ... : ... .. 1 ... ... ... : --- .. . ... : ... .. . ... : ... .. . ... ... : ... .. . ... ... : ... .. . ... ... : ... .. 3 ... ...
ROW 2A : A#4 00 F ... ... ... : G-4 00 C ... ... ... : D#3 00 . ... : 1-# 00 F ... : ... .. . ... ... : F-4 01 9 ... V03 : F-3 01 9 ... V03 : C-4 01 8 ... ...
ROW 2B : ... .. E ... ... ... : ... .. B ... ... ... : ... .. . ... : ... .. C ... : ... .. . ... ... : ... .. 8 ... V01 : ... .. 8 ... V01 : ... .. 7 ... ...
ROW 2C : ... .. D ... ... ... : ... .. A ... ... ... : ... .. . ... : ... .. 6 ... : ... .. . ... ... : ... .. . ... ... : ... .. . ... ... : ... .. 6 ... ...
ROW 2D : ... .. A ... ... ... : ... .. 8 ... ... ... : ... .. . ... : ... .. 3 ... : ... .. . ... ... : ... .. . ... ... : ... .. . ... ... : ... .. 4 ... ...
ROW 2E : ... .. . ... ... ... : ... .. . ... ... ... : ... .. . ... : ... .. 2 ... : ... .. . ... ... : ... .. . ... ... : ... .. . ... ... : ... .. 3 ... ...
ROW 2F : ... .. . ... ... ... : ... .. . ... ... ... : D-3 00 . P75 : C-# 00 7 ... : ... .. . ... ... : ... .. . ... ... : ... .. . ... ... : ... .. 8 ... ...
ROW 30 : ... .. . ... ... ... : ... .. . ... ... ... : C-3 00 . P84 : ... .. 5 ... : ... .. . ... ... : ... .. . ... ... : ... .. . ... ... : ... .. 7 ... ...
ROW 31 : ... .. . ... ... ... : ... .. . ... ... ... : B-2 00 . P7D : ... .. 2 ... : ... .. . ... ... : ... .. 7 ... ... : ... .. 7 ... ... : ... .. 6 ... ...
ROW 32 : ... .. . ... ... ... : ... .. . ... ... ... : A#2 00 . P78 : ... .. 1 ... : ... .. . ... ... : ... .. . ... ... : ... .. . ... ... : ... .. 4 ... ...
ROW 33 : ... .. . ... ... ... : ... .. . ... ... ... : A-2 00 . P74 : ... .. . ... : ... .. . ... ... : ... .. . ... ... : ... .. . ... ... : ... .. 3 ... ...
ROW 34 : ... .. . ... ... ... : ... .. . ... ... ... : D#2 00 . P80 : ... .. F ... : ... .. . ... ... : ... .. . ... ... : ... .. . ... ... : F-3 01 8 ... ...
ROW 35 : ... .. . ... ... ... : ... .. . ... ... ... : ... .. . ... : ... .. C ... : ... .. . ... ... : ... .. 6 ... ... : ... .. 6 ... ... : ... .. 7 ... ...
ROW 36 : ... .. . ... ... ... : ... .. . ... ... ... : ... .. . ... : ... .. 6 ... : ... .. . ... ... : ... .. . ... ... : ... .. . ... ... : ... .. 6 ... ...
ROW 37 : ... .. . ... ... ... : ... .. . ... ... ... : ... .. . ... : ... .. 3 ... : ... .. . ... ... : ... .. 5 ... ... : ... .. 5 ... ... : ... .. 4 ... ...
ROW 38 : ... .. . ... ... ... : ... .. . ... ... ... : --- .. . ... : ... .. 2 ... : ... .. . ... ... : ... .. . ... ... : ... .. . ... ... : ... .. 3 ... ...
ROW 39 : ... .. . ... ... ... : ... .. . ... ... ... : D#2 00 . ... : 1-# 00 F ... : ... .. . ... ... : ... .. . ... ... : ... .. . ... ... : ... .. 8 ... ...
ROW 3A : ... .. 2 ... ... ... : ... .. 1 ... ... ... : ... .. . ... : ... .. C ... : ... .. . ... ... : ... .. . ... ... : ... .. . ... ... : ... .. 7 ... ...
ROW 3B : ... .. . ... ... ... : ... .. . ... ... ... : ... .. . ... : ... .. 6 ... : ... .. . ... ... : ... .. 4 ... ... : ... .. 4 ... ... : ... .. 6 ... ...
ROW 3C : ... .. . ... ... ... : ... .. . ... ... ... : ... .. . ... : ... .. 3 ... : ... .. . ... ... : ... .. . ... ... : ... .. . ... ... : ... .. 4 ... ...
ROW 3D : ... .. 1 ... ... ... : ... .. . ... ... ... : --- .. . ... : ... .. 2 ... : ... .. . ... ... : ... .. . ... ... : ... .. . ... ... : ... .. 3 ... ...
ROW 3E : ... .. 8 ... ... ... : ... .. 8 ... ... ... : D#2 00 . ... : 3-# 00 D ... : ... .. . ... ... : ... .. . ... ... : ... .. . ... ... : G-3 01 8 ... ...
ROW 3F : ... .. 7 ... ... ... : ... .. 7 ... ... ... : ... .. . ... : ... .. . ... : ... .. . ... ... : ... .. . ... ... : ... .. . ... ... : ... .. 7 ... ...
ROW 40 : ... .. 6 ... ... ... : ... .. 6 ... ... ... : ... .. . ... : F-# 00 D ... : ... .. . ... ... : ... .. . ... ... : ... .. . ... ... : ... .. 6 ... ...
ROW 41 : ... .. 5 ... ... ... : ... .. 5 ... ... ... : ... .. . ... : D-# 00 6 ... : ... .. . ... ... : ... .. . ... ... : ... .. . ... ... : ... .. 4 ... ...
ROW 42 : ... .. . ... ... ... : ... .. . ... ... ... : ... .. . ... : 9-# 00 1 ... : ... .. . ... ... : ... .. . ... ... : ... .. . ... ... : ... .. 3 ... ...
ROW 43 : ... .. . ... ... ... : ... .. . ... ... ... : ... .. . ... : ... .. 0 ... : ... .. . ... ... : ... .. . ... ... : ... .. . ... ... : ... .. 8 ... ...
ROW 44 : ... .. . ... ... ... : ... .. . ... ... ... : ... .. . ... : ... .. . ... : ... .. . ... ... : ... .. . ... ... : ... .. . ... ... : ... .. 7 ... ...
ROW 45 : ... .. . ... ... ... : ... .. . ... ... ... : ... .. . ... : ... .. . ... : ... .. . ... ... : ... .. . ... ... : ... .. . ... ... : ... .. 6 ... ...
ROW 46 : ... .. . ... ... ... : ... .. . ... ... ... : ... .. . ... : ... .. . ... : ... .. . ... ... : ... .. . ... ... : ... .. . ... ... : ... .. 4 ... ...
ROW 47 : ... .. 1 ... ... ... : ... .. 1 ... ... ... : --- .. . ... : ... .. . ... : ... .. . ... ... : ... .. . ... ... : ... .. . ... ... : ... .. 3 ... ...
ROW 48 : A-4 00 F ... ... ... : F-4 00 C ... ... ... : D-3 00 . ... : 1-# 00 F ... : ... .. . ... ... : F-3 01 4 ... V03 : E-4 01 4 P80 V03 : A-3 01 8 ... ...
ROW 49 : ... .. E ... ... ... : ... .. B ... ... ... : ... .. . ... : ... .. C ... : ... .. . ... ... : ... .. . ... V01 : ... .. . ... V01 : ... .. 7 ... ...
ROW 4A : ... .. D ... ... ... : ... .. A ... ... ... : ... .. . ... : ... .. 6 ... : ... .. . ... ... : ... .. . ... ... : ... .. . ... ... : ... .. 6 ... ...
ROW 4B : ... .. A ... ... ... : ... .. 8 ... ... ... : ... .. . ... : ... .. 3 ... : ... .. . ... ... : ... .. . ... ... : ... .. . ... ... : ... .. 4 ... ...
ROW 4C : ... .. . ... ... ... : ... .. . ... ... ... : ... .. . ... : ... .. 2 ... : ... .. . ... ... : ... .. . ... ... : ... .. . ... ... : ... .. 3 ... ...
ROW 4D : ... .. . ... ... ... : ... .. . ... ... ... : ... .. . ... : C-# 00 8 ... : ... .. . ... ... : A-2 01 4 ... V03 : F-4 01 4 ... V03 : ... .. 8 ... ...
ROW 4E : ... .. . ... ... ... : ... .. . ... ... ... : ... .. . ... : ... .. 6 ... : ... .. . ... ... : ... .. . ... V01 : ... .. . ... V01 : ... .. 7 ... ...
ROW 4F : ... .. . ... ... ... : ... .. . ... ... ... : ... .. . ... : ... .. 3 ... : ... .. . ... ... : ... .. . ... ... : ... .. . ... ... : ... .. 6 ... ...
ROW 50 : ... .. . ... ... ... : ... .. . ... ... ... : ... .. . ... : ... .. 1 ... : ... .. . ... ... : ... .. . ... ... : ... .. . ... ... : ... .. 4 ... ...
ROW 51 : ... .. . ... ... ... : ... .. . ... ... ... : ... .. . ... : ... .. . ... : ... .. . ... ... : ... .. . ... ... : ... .. . ... ... : ... .. 3 ... ...
ROW 52 : ... .. . ... ... ... : ... .. . ... ... ... : D-2 00 . ... : ... .. F ... : ... .. . ... ... : F-3 01 4 ... V03 : E-4 01 4 ... V03 : E-3 01 8 ... ...
ROW 53 : ... .. 2 ... ... ... : ... .. 1 ... ... ... : ... .. . ... : ... .. C ... : ... .. . ... ... : ... .. . ... V01 : ... .. . ... V01 : ... .. 7 ... ...
ROW 54 : ... .. . ... ... ... : ... .. . ... ... ... : ... .. . ... : ... .. 6 ... : ... .. . ... ... : ... .. . ... ... : ... .. . ... ... : ... .. 6 ... ...
ROW 55 : ... .. . ... ... ... : ... .. . ... ... ... : ... .. . ... : ... .. 3 ... : ... .. . ... ... : ... .. . ... ... : ... .. . ... ... : ... .. 4 ... ...
ROW 56 : ... .. 1 ... ... ... : ... .. . ... ... ... : ... .. . ... : ... .. 2 ... : ... .. . ... ... : ... .. . ... ... : ... .. . ... ... : ... .. 3 ... ...
ROW 57 : D-4 00 F ... ... ... : A-3 00 C ... ... ... : ... .. . ... : 1-# 00 F ... : ... .. . ... ... : A-2 01 4 ... V03 : C-4 01 4 ... V03 : ... .. 8 ... ...
ROW 58 : ... .. E ... ... ... : ... .. B ... ... ... : ... .. . ... : ... .. C ... : ... .. . ... ... : ... .. . ... V01 : ... .. . ... V01 : ... .. 7 ... ...
ROW 59 : ... .. D ... ... ... : ... .. A ... ... ... : ... .. . ... : ... .. 6 ... : ... .. . ... ... : ... .. . ... ... : ... .. . ... ... : ... .. 6 ... ...
ROW 5A : ... .. A ... ... ... : ... .. 8 ... ... ... : ... .. . ... : ... .. 3 ... : ... .. . ... ... : ... .. . ... ... : ... .. . ... ... : ... .. 4 ... ...
ROW 5B : ... .. 2 ... ... ... : ... .. 1 ... ... ... : ... .. . ... : ... .. 2 ... : ... .. . ... ... : ... .. . ... ... : ... .. . ... ... : ... .. 3 ... ...
ROW 5C : ... .. F ... ... ... : ... .. F ... ... ... : D-3 00 . ... : 3-# 00 D ... : ... .. . ... ... : F-3 01 4 ... V03 : E-4 01 4 ... V03 : F-3 01 8 ... ...
ROW 5D : ... .. E ... ... ... : ... .. E ... ... ... : ... .. . ... : ... .. . ... : ... .. . ... ... : ... .. . ... V01 : ... .. . ... V01 : ... .. 7 ... ...
ROW 5E : ... .. D ... ... ... : ... .. D ... ... ... : ... .. . ... : F-# 00 D ... : ... .. . ... ... : ... .. . ... ... : ... .. . ... ... : ... .. 6 ... ...
ROW 5F : ... .. 9 ... ... ... : ... .. 9 ... ... ... : ... .. . ... : D-# 00 6 ... : ... .. . ... ... : ... .. . ... ... : ... .. . ... ... : ... .. 4 ... ...
ROW 60 : ... .. . ... ... ... : ... .. . ... ... ... : --- .. . ... : 9-# 00 1 ... : ... .. . ... ... : ... .. . ... ... : ... .. . ... ... : ... .. 3 ... ...
ROW 61 : ... .. 8 ... ... ... : ... .. 8 ... ... ... : D-3 00 . ... : ... .. 0 ... : ... .. . ... ... : A-2 01 4 ... V03 : F-4 01 4 ... V03 : ... .. 8 ... ...
ROW 62 : ... .. . ... ... ... : ... .. . ... ... ... : ... .. . ... : ... .. . ... : ... .. . ... ... : ... .. . ... V01 : ... .. . ... V01 : ... .. 7 ... ...
ROW 63 : ... .. . ... ... ... : ... .. . ... ... ... : ... .. . ... : ... .. . ... : ... .. . ... ... : ... .. . ... ... : ... .. . ... ... : ... .. 6 ... ...
ROW 64 : ... .. . ... ... ... : ... .. . ... ... ... : ... .. . ... : ... .. . ... : ... .. . ... ... : ... .. . ... ... : ... .. . ... ... : ... .. 4 ... ...
ROW 65 : ... .. . ... ... ... : ... .. . ... ... ... : --- .. . ... : ... .. . ... : ... .. . ... ... : ... .. . ... ... : ... .. . ... ... : ... .. 3 ... ...
ROW 66 : ... .. 7 ... ... ... : ... .. 7 ... ... ... : G-3 00 . ... : 1-# 00 F ... : ... .. . ... ... : F-3 01 4 ... V03 : E-4 01 4 ... V03 : E-4 01 8 ... ...
ROW 67 : ... .. . ... ... ... : ... .. . ... ... ... : ... .. . ... : ... .. C ... : ... .. . ... ... : ... .. . ... V01 : ... .. . ... V01 : ... .. 7 ... ...
ROW 68 : ... .. . ... ... ... : ... .. . ... ... ... : ... .. . ... : ... .. 6 ... : ... .. . ... ... : ... .. . ... ... : ... .. . ... ... : ... .. 6 ... ...
ROW 69 : ... .. 6 ... ... ... : ... .. 6 ... ... ... : ... .. . ... : ... .. 3 ... : ... .. . ... ... : ... .. . ... ... : ... .. . ... ... : ... .. 4 ... ...
ROW 6A : ... .. . ... ... ... : ... .. . ... ... ... : --- .. . ... : ... .. 2 ... : ... .. . ... ... : ... .. . ... ... : ... .. . ... ... : ... .. 3 ... ...
ROW 6B : ... .. . ... ... ... : ... .. . ... ... ... : G-3 00 . ... : C-# 00 7 ... : ... .. . ... ... : A-2 01 4 ... V03 : C-4 01 4 ... V03 : ... .. 8 ... ...
ROW 6C : ... .. . ... ... ... : ... .. . ... ... ... : ... .. . ... : ... .. 5 ... : ... .. . ... ... : ... .. . ... V01 : ... .. . ... V01 : ... .. 7 ... ...
ROW 6D : ... .. . ... ... ... : ... .. . ... ... ... : ... .. . ... : ... .. 2 ... : ... .. . ... ... : ... .. . ... ... : ... .. . ... ... : ... .. 6 ... ...
ROW 6E : ... .. 5 ... ... ... : ... .. 5 ... ... ... : ... .. . ... : ... .. 1 ... : ... .. . ... ... : ... .. . ... ... : ... .. . ... ... : ... .. 4 ... ...
ROW 6F : ... .. . ... ... ... : ... .. . ... ... ... : --- .. . ... : ... .. . ... : ... .. . ... ... : ... .. . ... ... : ... .. . ... ... : ... .. 3 ... ...
ROW 70 : ... .. . ... ... ... : ... .. . ... ... ... : F-3 00 . ... : 1-# 00 F ... : ... .. . ... ... : G-3 01 4 ... V03 : E-4 01 4 ... V03 : G-3 01 8 ... ...
ROW 71 : ... .. . ... ... ... : ... .. . ... ... ... : ... .. . ... : ... .. C ... : ... .. . ... ... : ... .. . ... V01 : ... .. . ... V01 : ... .. 7 ... ...
ROW 72 : ... .. . ... ... ... : ... .. . ... ... ... : ... .. . ... : ... .. 6 ... : ... .. . ... ... : ... .. . ... ... : ... .. . ... ... : ... .. 6 ... ...
ROW 73 : ... .. . ... ... ... : ... .. . ... ... ... : ... .. . ... : ... .. 3 ... : ... .. . ... ... : ... .. . ... ... : ... .. . ... ... : ... .. 4 ... ...
ROW 74 : ... .. . ... ... ... : ... .. . ... ... ... : --- .. . ... : ... .. 2 ... : ... .. . ... ... : ... .. . ... ... : ... .. . ... ... : ... .. 3 ... ...
ROW 75 : ... .. 6 ... ... ... : ... .. 6 P84 ... ... : F-3 00 . ... : C-# 00 8 ... : ... .. . ... ... : B-2 01 4 ... V03 : F-4 01 4 ... V03 : ... .. 8 ... ...
ROW 76 : ... .. . ... ... ... : ... .. . P86 ... ... : ... .. . ... : ... .. 6 ... : ... .. . ... ... : ... .. . ... V01 : ... .. . ... V01 : ... .. 7 ... ...
ROW 77 : ... .. . ... ... ... : ... .. . P85 ... ... : ... .. . ... : ... .. 3 ... : ... .. . ... ... : ... .. . ... ... : ... .. . ... ... : ... .. 6 ... ...
ROW 78 : ... .. . ... ... ... : ... .. . P82 ... ... : ... .. . ... : ... .. 1 ... : ... .. . ... ... : ... .. . ... ... : ... .. . ... ... : ... .. 4 ... ...
ROW 79 : ... .. . ... ... ... : ... .. . P7E ... ... : --- .. . ... : ... .. . ... : ... .. . ... ... : ... .. . ... ... : ... .. . ... ... : ... .. 3 ... ...
ROW 7A : ... .. . ... ... ... : ... .. . P7B ... ... : C-4 00 . ... : ... .. F ... : ... .. . ... ... : G-3 01 4 ... V03 : E-4 01 4 ... V03 : A-3 01 8 ... ...
ROW 7B : ... .. . ... ... ... : ... .. . P7A ... ... : ... .. . ... : ... .. C ... : ... .. . ... ... : ... .. . ... V01 : ... .. . ... V01 : ... .. 7 ... ...
ROW 7C : ... .. . ... ... ... : ... .. . P7C ... ... : ... .. . ... : ... .. 6 ... : ... .. . ... ... : ... .. . ... ... : ... .. . ... ... : ... .. 6 ... ...
ROW 7D : ... .. 7 ... ... ... : ... .. 7 P80 ... ... : ... .. . ... : ... .. 3 ... : ... .. . ... ... : ... .. . ... ... : ... .. . ... ... : ... .. 4 ... ...
ROW 7E : ... .. . ... ... ... : ... .. . P83 ... ... : --- .. . ... : ... .. 2 ... : ... .. . ... ... : ... .. . ... ... : ... .. . ... ... : ... .. 3 ... ...
ROW 7F : ... .. 8 ... ... ... : ... .. 8 P86 ... ... : C-4 00 . ... : 1-# 00 F ... : ... .. . ... ... : B-2 01 4 ... V03 : C-4 01 4 ... V03 : ... .. 8 ... ...
ROW 80 : ... .. . ... ... ... : ... .. . ... ... ... : ... .. . ... : ... .. C ... : ... .. . ... ... : ... .. . ... V01 : ... .. . ... V01 : ... .. 7 ... ...
ROW 81 : ... .. . ... ... ... : ... .. . P82 ... ... : ... .. . ... : ... .. 6 ... : ... .. . ... ... : ... .. . ... ... : ... .. . ... ... : ... .. 6 ... ...
ROW 82 : ... .. . ... ... ... : ... .. . P7F ... ... : ... .. . ... : ... .. 3 ... : ... .. . ... ... : ... .. . ... ... : ... .. . ... ... : ... .. 4 ... ...
ROW 83 : ... .. . ... ... ... : ... .. . P7B ... ... : --- .. . ... : ... .. 2 ... : ... .. . ... ... : ... .. . ... ... : ... .. . ... ... : ... .. 3 ... ...
ROW 84 : ... .. . ... ... ... : ... .. . P7A ... ... : G-3 00 . ... : 3-# 00 D ... : ... .. . ... ... : G-3 01 4 ... V03 : E-4 01 4 ... V03 : G-4 01 8 ... ...
ROW 85 : ... .. . ... ... ... : ... .. . P7C ... ... : ... .. . ... : ... .. . ... : ... .. . ... ... : ... .. . ... V01 : ... .. . ... V01 : ... .. 7 ... ...
ROW 86 : ... .. . ... ... ... : ... .. . P80 ... ... : ... .. . ... : F-# 00 D ... : ... .. . ... ... : ... .. . ... ... : ... .. . ... ... : ... .. 6 ... ...
ROW 87 : ... .. 9 ... ... ... : ... .. 9 P83 ... ... : ... .. . ... : D-# 00 6 ... : ... .. . ... ... : ... .. . ... ... : ... .. . ... ... : ... .. 4 ... ...
ROW 88 : ... .. . ... ... ... : ... .. . P86 ... ... : --- .. . ... : 9-# 00 1 ... : ... .. . ... ... : ... .. . ... ... : ... .. . ... ... : ... .. 3 ... ...
ROW 89 : ... .. A ... ... ... : ... .. . ... ... ... : G-3 00 . ... : ... .. 0 ... : ... .. . ... ... : B-2 01 4 ... V03 : F-4 01 4 ... V03 : ... .. 8 ... ...
ROW 8A : ... .. . ... ... ... : ... .. . P83 ... ... : ... .. . ... : ... .. . ... : ... .. . ... ... : ... .. . ... V01 : ... .. . ... V01 : ... .. 7 ... ...
ROW 8B : ... .. . ... ... ... : ... .. . P80 ... ... : ... .. . ... : ... .. . ... : ... .. . ... ... : ... .. . ... ... : ... .. . ... ... : ... .. 6 ... ...
ROW 8C : ... .. . ... ... ... : ... .. . P7C ... ... : ... .. . ... : ... .. . ... : ... .. . ... ... : ... .. . ... ... : ... .. . ... ... : ... .. 4 ... ...
ROW 8D : ... .. . ... ... ... : ... .. . P7A ... ... : --- .. . ... : ... .. . ... : ... .. . ... ... : ... .. . ... ... : ... .. . ... ... : ... .. 3 ... ...
ROW 8E : ... .. . ... ... ... : ... .. . P7B ... ... : E-4 00 . ... : 1-# 00 F ... : ... .. . ... ... : G-3 01 4 ... V03 : E-4 01 4 ... V03 : C-4 01 8 ... ...
ROW 8F : ... .. 2 ... ... ... : ... .. . P7F ... ... : ... .. . ... : ... .. C ... : ... .. . ... ... : ... .. . ... V01 : ... .. . ... V01 : ... .. 7 ... ...
ROW 90 : ... .. . ... ... ... : ... .. . P82 ... ... : ... .. . ... : ... .. 6 ... : ... .. . ... ... : ... .. . ... ... : ... .. . ... ... : ... .. 6 ... ...
ROW 91 : ... .. . ... ... ... : ... .. . P86 ... ... : ... .. . ... : ... .. 3 ... : ... .. . ... ... : ... .. . ... ... : ... .. . ... ... : ... .. 4 ... ...
ROW 92 : ... .. 1 ... ... ... : ... .. . ... ... ... : --- .. . ... : ... .. 2 ... : ... .. . ... ... : ... .. . ... ... : ... .. . ... ... : ... .. 3 ... ...
ROW 93 : ... .. . ... ... ... : ... .. . P83 ... ... : E-4 00 . ... : C-# 00 7 ... : ... .. . ... ... : B-2 01 4 ... V03 : C-4 01 4 ... V03 : ... .. 8 ... ...
ROW 94 : ... .. . ... ... ... : ... .. . P80 ... ... : ... .. . ... : ... .. 5 ... : ... .. . ... ... : ... .. . ... V01 : ... .. . ... V01 : ... .. 7 ... ...
ROW 95 : ... .. 0 ... ... ... : ... .. . P7C ... ... : ... .. . ... : ... .. 2 ... : ... .. . ... ... : ... .. . ... ... : ... .. . ... ... : ... .. 6 ... ...
ROW 96 : ... .. . ... ... ... : ... .. . P7A ... ... : ... .. . ... : ... .. 1 ... : ... .. . ... ... : ... .. . ... ... : ... .. . ... ... : ... .. 4 ... ...
ROW 97 : ... .. . ... ... ... : ... .. . P7B ... ... : --- .. . ... : ... .. . ... : ... .. . ... ... : ... .. . ... ... : ... .. . ... ... : ... .. 3 ... ...
ROW 98 : E-4 00 F P80 ... ... : ... .. F P7E ... ... : C-4 00 . ... : ... .. F ... : ... .. . ... ... : A-3 01 4 ... V03 : E-4 01 4 ... V03 : D-4 01 8 ... ...
ROW 99 : ... .. E ... ... ... : ... .. E P82 ... ... : ... .. . ... : ... .. C ... : ... .. . ... ... : ... .. . ... V01 : ... .. . ... V01 : ... .. 7 ... ...
ROW 9A : ... .. D ... ... ... : ... .. D P85 ... ... : ... .. . ... : ... .. 6 ... : ... .. . ... ... : ... .. . ... ... : ... .. . ... ... : ... .. 6 ... ...
ROW 9B : ... .. A ... ... ... : ... .. A P86 ... ... : ... .. . ... : ... .. 3 ... : ... .. . ... ... : ... .. . ... ... : ... .. . ... ... : ... .. 4 ... ...
ROW 9C : ... .. . ... ... ... : ... .. . P84 ... ... : --- .. . ... : ... .. 2 ... : ... .. . ... ... : ... .. . ... ... : ... .. . ... ... : ... .. 3 ... ...
ROW 9D : ... .. . ... ... ... : ... .. . P80 ... ... : C-4 00 . ... : 1-# 00 F ... : ... .. . ... ... : C-3 01 4 ... V03 : F-4 01 4 ... V03 : ... .. 8 ... ...
ROW 9E : ... .. . ... ... ... : ... .. . P7D ... ... : ... .. . ... : ... .. C ... : ... .. . ... ... : ... .. . ... V01 : ... .. . ... V01 : ... .. 7 ... ...
ROW 9F : ... .. . ... ... ... : ... .. . P7A ... ... : ... .. . ... : ... .. 6 ... : ... .. . ... ... : ... .. . ... ... : ... .. . ... ... : ... .. 6 ... ...
ROW A0 : ... .. . ... ... ... : ... .. . ... ... ... : ... .. . ... : ... .. 3 ... : ... .. . ... ... : ... .. . ... ... : ... .. . ... ... : ... .. 4 ... ...
ROW A1 : ... .. . ... ... ... : ... .. . P7E ... ... : --- .. . ... : ... .. 2 ... : ... .. . ... ... : ... .. . ... ... : ... .. . ... ... : ... .. 3 ... ...
ROW A2 : ... .. . ... ... ... : ... .. . P81 ... ... : G-4 00 . ... : 3-# 00 D ... : ... .. . ... ... : A-3 01 4 ... V03 : E-4 01 4 ... V03 : A-4 01 8 ... ...
ROW A3 : ... .. 2 ... ... ... : ... .. 2 P85 ... ... : ... .. . ... : ... .. . ... : ... .. . ... ... : ... .. . ... V01 : ... .. . ... V01 : ... .. 7 ... ...
ROW A4 : ... .. . ... ... ... : ... .. . P86 ... ... : ... .. . ... : F-# 00 D ... : ... .. . ... ... : ... .. . ... ... : ... .. . ... ... : ... .. 6 ... ...
ROW A5 : ... .. . ... ... ... : ... .. . P84 ... ... : ... .. . ... : D-# 00 6 ... : ... .. . ... ... : ... .. . ... ... : ... .. . ... ... : ... .. 4 ... ...
ROW A6 : ... .. 1 ... ... ... : ... .. 1 P80 ... ... : --- .. . ... : 9-# 00 1 ... : ... .. . ... ... : ... .. . ... ... : ... .. . ... ... : ... .. 3 ... ...
ROW A7 : F-3 00 F ... ... ... : A-2 00 F P7D ... ... : G-4 00 . ... : ... .. 0 ... : ... .. . ... ... : C-3 01 4 ... V03 : C-4 01 4 ... V03 : ... .. 8 ... ...
ROW A8 : ... .. E ... ... ... : ... .. E P7A ... ... : ... .. . ... : ... .. . ... : ... .. . ... ... : ... .. . ... V01 : ... .. . ... V01 : ... .. 7 ... ...
ROW A9 : ... .. D ... ... ... : ... .. D ... ... ... : ... .. . ... : ... .. . ... : ... .. . ... ... : ... .. . ... ... : ... .. . ... ... : ... .. 6 ... ...
ROW AA : ... .. A ... ... ... : ... .. A P7D ... ... : ... .. . ... : ... .. . ... : ... .. . ... ... : ... .. . ... ... : ... .. . ... ... : ... .. 4 ... ...
ROW AB : ... .. 2 ... ... ... : ... .. 2 P80 ... ... : --- .. . ... : ... .. . ... : ... .. . ... ... : ... .. . ... ... : ... .. . ... ... : ... .. 3 ... ...
ROW AC : ... .. F ... ... ... : ... .. F P84 ... ... : F-4 00 . ... : 4-# 00 D ... : ... .. . ... ... : A-3 01 4 ... V03 : E-4 01 4 ... V03 : E-4 01 8 ... ...
ROW AD : ... .. E ... ... ... : ... .. E P86 ... ... : ... .. . ... : ... .. . ... : ... .. . ... ... : ... .. . ... V01 : ... .. . ... V01 : ... .. 7 ... ...
ROW AE : ... .. D ... ... ... : ... .. D P85 ... ... : ... .. . ... : 0-# 00 D ... : ... .. . ... ... : ... .. . ... ... : ... .. . ... ... : ... .. 6 ... ...
ROW AF : ... .. A ... ... ... : ... .. A P81 ... ... : ... .. . ... : E-# 00 6 ... : ... .. . ... ... : ... .. . ... ... : ... .. . ... ... : ... .. 4 ... ...
ROW B0 : ... .. . ... ... ... : ... .. . P7E ... ... : --- .. . ... : A-# 00 1 ... : ... .. . ... ... : ... .. . ... ... : ... .. . ... ... : ... .. 3 ... ...
ROW B1 : ... .. . ... ... ... : ... .. . P7A ... ... : F-4 00 . ... : 4-# 00 D ... : ... .. . ... ... : C-3 01 4 ... V03 : F-4 01 4 ... V03 : ... .. 8 ... ...
ROW B2 : ... .. . ... ... ... : ... .. . ... ... ... : ... .. . ... : ... .. . ... : ... .. . ... ... : ... .. . ... V01 : ... .. . ... V01 : ... .. 7 ... ...
ROW B3 : ... .. . ... ... ... : ... .. . P7D ... ... : ... .. . ... : 0-# 00 D ... : ... .. . ... ... : ... .. . ... ... : ... .. . ... ... : ... .. 6 ... ...
ROW B4 : ... .. . ... ... ... : ... .. . P80 ... ... : ... .. . ... : E-# 00 6 ... : ... .. . ... ... : ... .. . ... ... : ... .. . ... ... : ... .. 4 ... ...
ROW B5 : ... .. . ... ... ... : ... .. . P84 ... ... : --- .. . ... : A-# 00 1 ... : ... .. . ... ... : ... .. . ... ... : ... .. . ... ... : ... .. 3 ... ...
ROW B6 : ... .. . ... ... ... : ... .. . P86 ... ... : C-5 00 . ... : B-# 00 D ... : ... .. . ... ... : A-3 01 4 ... V03 : E-4 01 4 ... V03 : F-4 01 8 ... ...
ROW B7 : ... .. . ... ... ... : ... .. . P85 ... ... : ... .. . ... : ... .. . ... : ... .. . ... ... : ... .. . ... V01 : ... .. . ... V01 : ... .. 7 ... ...
ROW B8 : ... .. . ... ... ... : ... .. . P82 ... ... : ... .. . ... : 7-# 00 D ... : ... .. . ... ... : ... .. . ... ... : ... .. . ... ... : ... .. 6 ... ...
ROW B9 : ... .. . ... ... ... : ... .. . P7E ... ... : ... .. . ... : 5-# 00 6 ... : ... .. . ... ... : ... .. . ... ... : ... .. . ... ... : ... .. 4 ... ...
ROW BA : ... .. . ... ... ... : ... .. . P7B ... ... : --- .. . ... : 1-# 00 1 ... : ... .. . ... ... : ... .. . ... ... : ... .. . ... ... : ... .. 3 ... ...
ROW BB : ... .. . ... ... ... : ... .. . P7A ... ... : C-5 00 . ... : B-# 00 D ... : ... .. . ... ... : C-3 01 4 ... V03 : C-4 01 4 ... V03 : ... .. 8 ... ...
ROW BC : ... .. . ... ... ... : ... .. . P7C ... ... : ... .. . ... : ... .. . ... : ... .. . ... ... : ... .. . ... V01 : ... .. . ... V01 : ... .. 7 ... ...
ROW BD : ... .. . ... ... ... : ... .. . P80 ... ... : ... .. . ... : 7-# 00 D ... : ... .. . ... ... : ... .. . ... ... : ... .. . ... ... : ... .. 6 ... ...
ROW BE : ... .. . ... ... ... : ... .. . P83 ... ... : ... .. . ... : 5-# 00 6 ... : ... .. . ... ... : ... .. . ... ... : ... .. . ... ... : ... .. 4 ... ...
ROW BF : ... .. . ... ... ... : ... .. . P86 ... ... : --- .. . ... : 1-# 00 1 ... : ... .. . ... ... : ... .. . ... ... : ... .. . ... ... : ... .. 3 ... ...
ROW C0 : ... .. . ... ... ... : ... .. . ... ... ... : A-4 00 . ... : 3-# 00 D ... : ... .. . ... ... : B-3 01 4 ... V03 : E-4 01 4 ... V03 : C-5 01 8 ... ...
ROW C1 : ... .. . ... ... ... : ... .. . P82 ... ... : ... .. . ... : ... .. . ... : ... .. . ... ... : ... .. . ... V01 : ... .. . ... V01 : ... .. 7 ... ...
ROW C2 : ... .. . ... ... ... : ... .. . P7F ... ... : ... .. . ... : F-# 00 D ... : ... .. . ... ... : ... .. . ... ... : ... .. . ... ... : ... .. 6 ... ...
ROW C3 : ... .. . ... ... ... : ... .. . P7B ... ... : ... .. . ... : D-# 00 6 ... : ... .. . ... ... : ... .. . ... ... : ... .. . ... ... : ... .. 4 ... ...
ROW C4 : ... .. . ... ... ... : ... .. . P7A ... ... : --- .. . ... : 9-# 00 1 ... : ... .. . ... ... : ... .. . ... ... : ... .. . ... ... : ... .. 3 ... ...
ROW C5 : ... .. . P88 ... ... : ... .. . P77 ... ... : A-4 00 . ... : 3-# 00 D ... : ... .. . ... ... : D-3 01 4 ... V03 : F-4 01 4 ... V03 : ... .. 8 ... ...
ROW C6 : F#3 00 A P7B ... ... : ... .. . P7F ... ... : ... .. . ... : ... .. . ... : ... .. . ... ... : ... .. . ... V01 : ... .. . ... V01 : ... .. 7 ... ...
ROW C7 : ... .. . P79 ... ... : ... .. . P86 ... ... : ... .. . ... : F-# 00 D ... : ... .. . ... ... : ... .. . ... ... : ... .. . ... ... : ... .. 6 ... ...
ROW C8 : F-3 00 A P84 ... ... : ... .. . P8C ... ... : ... .. . ... : D-# 00 6 ... : ... .. . ... ... : ... .. . ... ... : ... .. . ... ... : ... .. 4 ... ...
ROW C9 : ... .. . P7C ... ... : ... .. . ... ... ... : --- .. . ... : 9-# 00 1 ... : ... .. . ... ... : ... .. . ... ... : ... .. . ... ... : ... .. 3 ... ...
ROW CA : E-3 00 A P88 ... ... : ... .. . P86 ... ... : D-5 00 . ... : 2-# 00 F ... : ... .. . ... ... : B-3 01 4 ... V03 : E-4 01 4 ... V03 : A-4 01 8 ... ...
ROW CB : ... .. . P86 ... ... : ... .. . P7F ... ... : ... .. . ... : ... .. C ... : ... .. . ... ... : ... .. . ... V01 : ... .. . ... V01 : ... .. 7 ... ...
ROW CC : F-3 00 A P78 ... ... : ... .. . P77 ... ... : ... .. . ... : ... .. 6 ... : ... .. . ... ... : ... .. . ... ... : ... .. . ... ... : ... .. 6 ... ...
ROW CD : ... .. . P80 ... ... : ... .. . P73 ... ... : ... .. . ... : ... .. 3 ... : ... .. . ... ... : ... .. . ... ... : ... .. . ... ... : ... .. 4 ... ...
ROW CE : ... .. . P87 ... ... : ... .. . P76 ... ... : --- .. . ... : ... .. 2 ... : ... .. . ... ... : ... .. . ... ... : ... .. . ... ... : ... .. 3 ... ...
ROW CF : F#3 00 A P7B ... ... : ... .. . P7E ... ... : D-5 00 . ... : ... .. F ... : ... .. . ... ... : D-3 01 4 ... V03 : C-4 01 4 ... V03 : ... .. 8 ... ...
ROW D0 : ... .. . P7A ... ... : ... .. . P85 ... ... : ... .. . ... : ... .. C ... : ... .. . ... ... : ... .. . ... V01 : ... .. . ... V01 : ... .. 7 ... ...
ROW D1 : F-3 00 A P85 ... ... : ... .. . P8C ... ... : ... .. . ... : ... .. 6 ... : ... .. . ... ... : ... .. . ... ... : ... .. . ... ... : ... .. 6 ... ...
ROW D2 : ... .. . P7E ... ... : ... .. . P8D ... ... : ... .. . ... : ... .. 3 ... : ... .. . ... ... : ... .. . ... ... : ... .. . ... ... : ... .. 4 ... ...
ROW D3 : E-3 00 A P89 ... ... : ... .. . P87 ... ... : --- .. . ... : ... .. 2 ... : ... .. . ... ... : ... .. . ... ... : ... .. . ... ... : ... .. 3 ... ...
ROW D4 : ... .. . P86 ... ... : ... .. . P80 ... ... : C-5 00 . ... : 8-# 00 F ... : ... .. . ... ... : C-4 01 4 ... V03 : E-4 01 4 ... V03 : D-5 01 8 ... ...
ROW D5 : F-3 00 2 P77 ... ... : ... .. 2 P78 ... ... : ... .. . ... : ... .. C ... : ... .. . ... ... : ... .. . ... V01 : ... .. . ... V01 : ... .. 7 ... ...
ROW D6 : ... .. . P7F ... ... : ... .. . P73 ... ... : ... .. . ... : ... .. 6 ... : ... .. . ... ... : ... .. . ... ... : ... .. . ... ... : ... .. 6 ... ...
ROW D7 : ... .. . P86 ... ... : ... .. . P75 ... ... : ... .. . ... : ... .. 3 ... : ... .. . ... ... : ... .. . ... ... : ... .. . ... ... : ... .. 4 ... ...
ROW D8 : F#3 00 1 P7A ... ... : ... .. 1 P7C ... ... : --- .. . ... : ... .. 2 ... : ... .. . ... ... : ... .. . ... ... : ... .. . ... ... : ... .. 3 ... ...
ROW D9 : ... .. . ... ... ... : ... .. . P84 ... ... : C-5 00 . ... : ... .. F ... : ... .. . ... ... : F-3 01 4 ... V03 : F-4 01 4 ... V03 : C-5 01 8 ... ...
ROW DA : F-3 00 1 P86 ... ... : ... .. . P8B ... ... : ... .. . ... : ... .. C ... : ... .. . ... ... : ... .. . ... V01 : ... .. . ... V01 : ... .. 7 ... ...
ROW DB : ... .. 0 ... ... ... : ... .. 0 ... ... ... : ... .. . ... : ... .. 6 ... : ... .. . ... ... : ... .. . ... ... : ... .. . ... ... : ... .. 6 ... ...
ROW DC : ... .. . ... ... ... : ... .. . ... ... ... : ... .. . ... : ... .. 3 ... : ... .. . ... ... : ... .. . ... ... : ... .. . ... ... : ... .. 4 ... ...
ROW DD : ... .. . ... ... ... : ... .. . ... ... ... : --- .. . ... : ... .. 2 ... : ... .. . ... ... : ... .. . ... ... : ... .. . ... ... : ... .. 3 ... ...
ROW DE : ... .. . ... ... ... : ... .. . ... ... ... : G-5 00 . ... : F-# 00 F ... : ... .. . ... ... : C-4 01 4 ... V03 : E-4 01 4 ... V03 : A#4 01 8 ... ...
ROW DF : ... .. . ... ... ... : ... .. . ... ... ... : ... .. . ... : ... .. C ... : ... .. . ... ... : ... .. . ... V01 : ... .. . ... V01 : ... .. 7 ... ...
ROW E0 : ... .. . ... ... ... : ... .. . ... ... ... : ... .. . ... : ... .. 6 ... : ... .. . ... ... : ... .. . ... ... : ... .. . ... ... : ... .. 6 ... ...
ROW E1 : ... .. . ... ... ... : ... .. . ... ... ... : ... .. . ... : ... .. 3 ... : ... .. . ... ... : ... .. . ... ... : ... .. . ... ... : ... .. 4 ... ...
ROW E2 : ... .. . ... ... ... : ... .. . ... ... ... : --- .. . ... : ... .. 2 ... : ... .. . ... ... : ... .. . ... ... : ... .. . ... ... : ... .. 3 ... ...
ROW E3 : ... .. . ... ... ... : ... .. . ... ... ... : G-5 00 . ... : ... .. F ... : ... .. . ... ... : F-3 01 4 ... V03 : C-4 01 4 ... V03 : A-4 01 8 ... ...
ROW E4 : ... .. . ... ... ... : ... .. . ... ... ... : ... .. . ... : ... .. C ... : ... .. . ... ... : ... .. . ... V01 : ... .. . ... V01 : ... .. 7 ... ...
ROW E5 : ... .. . ... ... ... : ... .. . ... ... ... : ... .. . ... : ... .. 6 ... : ... .. . ... ... : ... .. . ... ... : ... .. . ... ... : ... .. 6 ... ...
ROW E6 : ... .. . ... ... ... : ... .. . ... ... ... : ... .. . ... : ... .. 3 ... : ... .. . ... ... : ... .. . ... ... : ... .. . ... ... : ... .. 4 ... ...
ROW E7 : ... .. . ... ... ... : ... .. . ... ... ... : --- .. . ... : ... .. 2 ... : ... .. . ... ... : ... .. . ... ... : ... .. . ... ... : ... .. 3 ... ...
ROW E8 : D-4 00 F P80 ... ... : G-3 00 F P80 ... ... : D#3 00 . ... : 1-# 00 F ... : ... .. . ... ... : A-3 01 4 ... V03 : D-4 01 7 P7F V03 : G-4 01 6 ... ...
ROW E9 : ... .. E ... ... ... : ... .. E ... ... ... : ... .. . ... : ... .. C ... : ... .. . ... ... : ... .. . ... V01 : ... .. 6 ... V01 : ... .. 5 ... ...
ROW EA : ... .. D ... ... ... : ... .. D ... ... ... : ... .. . ... : ... .. 6 ... : ... .. . ... ... : ... .. . ... ... : ... .. . ... ... : ... .. 4 ... ...
ROW EB : ... .. A ... ... ... : ... .. A ... ... ... : ... .. . ... : ... .. 3 ... : ... .. . ... ... : ... .. . ... ... : ... .. . ... ... : ... .. 3 ... ...
ROW EC : ... .. . ... ... ... : ... .. . ... ... ... : ... .. . ... : ... .. 2 ... : ... .. . ... ... : ... .. . ... ... : ... .. . ... ... : ... .. 2 ... ...
ROW ED : ... .. . ... ... ... : ... .. . ... ... ... : D-3 00 . P75 : C-# 00 8 ... : ... .. . ... ... : ... .. . ... ... : ... .. . ... ... : ... .. 6 ... ...
ROW EE : ... .. . ... ... ... : ... .. . ... ... ... : C-3 00 . P84 : ... .. 6 ... : ... .. . ... ... : ... .. . ... ... : ... .. . ... ... : ... .. 5 ... ...
ROW EF : ... .. . ... ... ... : ... .. . ... ... ... : B-2 00 . P7D : ... .. 3 ... : ... .. . ... ... : ... .. 3 ... ... : ... .. . ... ... : ... .. 4 ... ...
ROW F0 : ... .. . ... ... ... : ... .. . ... ... ... : A#2 00 . P78 : ... .. 1 ... : ... .. . ... ... : ... .. . ... ... : ... .. . ... ... : ... .. 3 ... ...
ROW F1 : ... .. 2 ... ... ... : ... .. 2 ... ... ... : A-2 00 . P74 : ... .. . ... : ... .. . ... ... : ... .. . ... ... : ... .. . ... ... : ... .. 2 ... ...
ROW F2 : D#2 00 F ... ... ... : A-2 00 F ... ... ... : D#2 00 . P80 : ... .. F ... : ... .. . ... ... : A-2 01 4 ... V03 : ... .. . ... ... : G-3 01 6 ... ...
ROW F3 : ... .. E ... ... ... : ... .. E ... ... ... : ... .. . ... : ... .. C ... : ... .. . ... ... : ... .. . ... V01 : ... .. 5 ... ... : ... .. 5 ... ...
ROW F4 : ... .. D ... ... ... : ... .. D ... ... ... : ... .. . ... : ... .. 6 ... : ... .. . ... ... : ... .. . ... ... : ... .. . ... ... : ... .. 4 ... ...
ROW F5 : ... .. A ... ... ... : ... .. A ... ... ... : ... .. . ... : ... .. 3 ... : ... .. . ... ... : ... .. . ... ... : ... .. 4 ... ... : ... .. 3 ... ...
ROW F6 : ... .. 2 ... ... ... : ... .. 2 ... ... ... : --- .. . ... : ... .. 2 ... : ... .. . ... ... : ... .. . ... ... : ... .. . ... ... : ... .. 2 ... ...
ROW F7 : ... .. F ... ... ... : ... .. F ... ... ... : D#2 00 . ... : 1-# 00 F ... : ... .. . ... ... : A#2 01 4 ... V03 : ... .. . ... ... : ... .. 6 ... ...
ROW F8 : ... .. E ... ... ... : ... .. E ... ... ... : ... .. . ... : ... .. C ... : ... .. . ... ... : ... .. . ... V01 : ... .. . ... ... : ... .. 5 ... ...
ROW F9 : ... .. D ... ... ... : ... .. D ... ... ... : ... .. . ... : ... .. 6 ... : ... .. . ... ... : ... .. . ... ... : ... .. 3 ... ... : ... .. 4 ... ...
ROW FA : ... .. A ... ... ... : ... .. A ... ... ... : ... .. . ... : ... .. 3 ... : ... .. . ... ... : ... .. . ... ... : ... .. . ... ... : ... .. 3 ... ...
ROW FB : ... .. 2 ... ... ... : ... .. 2 ... ... ... : --- .. . ... : ... .. 2 ... : ... .. . ... ... : ... .. . ... ... : ... .. . ... ... : ... .. 2 ... ...
ROW FC : ... .. F ... ... ... : ... .. F ... ... ... : D#2 00 . ... : 3-# 00 D ... : ... .. . ... ... : D-3 01 4 ... V03 : ... .. . ... ... : A-3 01 6 ... ...
ROW FD : ... .. E ... ... ... : ... .. E ... ... ... : ... .. . ... : ... .. . ... : ... .. . ... ... : ... .. . ... V01 : ... .. . ... ... : ... .. 5 ... ...
ROW FE : ... .. D ... ... ... : ... .. D ... ... ... : ... .. . ... : F-# 00 D ... : ... .. . ... ... : ... .. . ... ... : ... .. . ... ... : ... .. 4 ... ...
ROW FF : ... .. A ... ... ... : ... .. A ... ... ... : ... .. . ... : D-# 00 6 ... : ... .. . ... ... : ... .. . ... ... : ... .. . ... ... : ... .. 3 ... ...

PATTERN 09
ROW 00 : ... .. 2 ... ... ... : ... .. 2 ... ... ... : ... .. . ... : 9-# 00 1 ... : ... .. . ... ... : ... .. . ... ... : ... .. . ... ... : ... .. 2 ... ...
ROW 01 : ... .. F ... ... ... : ... .. F ... ... ... : ... .. . ... : ... .. 0 ... : ... .. . ... ... : G-3 01 4 ... V03 : ... .. . ... ... : ... .. 6 ... ...
ROW 02 : ... .. E ... ... ... : ... .. E ... ... ... : ... .. . ... : ... .. . ... : ... .. . ... ... : ... .. . ... V01 : ... .. . ... ... : ... .. 5 ... ...
ROW 03 : ... .. D ... ... ... : ... .. D ... ... ... : ... .. . ... : ... .. . ... : ... .. . ... ... : ... .. . ... ... : ... .. . ... ... : ... .. 4 ... ...
ROW 04 : ... .. A ... ... ... : ... .. A ... ... ... : ... .. . ... : ... .. . ... : ... .. . ... ... : ... .. . ... ... : ... .. . ... ... : ... .. 3 ... ...
ROW 05 : ... .. 2 ... ... ... : ... .. 2 ... ... ... : --- .. . ... : ... .. . ... : ... .. . ... ... : ... .. . ... ... : ... .. . ... ... : ... .. 2 ... ...
ROW 06 : D-4 00 F ... ... ... : G-3 00 F ... ... ... : D#3 00 . ... : 1-# 00 F ... : ... .. . ... ... : A-3 01 4 ... V03 : G-3 01 9 ... V03 : F-4 01 6 ... ...
ROW 07 : ... .. E ... ... ... : ... .. E ... ... ... : ... .. . ... : ... .. C ... : ... .. . ... ... : ... .. . ... V01 : ... .. 8 ... V01 : ... .. 5 ... ...
ROW 08 : ... .. D ... ... ... : ... .. D ... ... ... : ... .. . ... : ... .. 6 ... : ... .. . ... ... : ... .. . ... ... : ... .. . ... ... : ... .. 4 ... ...
ROW 09 : ... .. A ... ... ... : ... .. A ... ... ... : ... .. . ... : ... .. 3 ... : ... .. . ... ... : ... .. . ... ... : ... .. . ... ... : ... .. 3 ... ...
ROW 0A : ... .. . ... ... ... : ... .. . ... ... ... : ... .. . ... : ... .. 2 ... : ... .. . ... ... : ... .. . ... ... : ... .. . ... ... : ... .. 2 ... ...
ROW 0B : ... .. . ... ... ... : ... .. . ... ... ... : D-3 00 . P75 : C-# 00 7 ... : ... .. . ... ... : ... .. . ... ... : ... .. . ... ... : ... .. 6 ... ...
ROW 0C : ... .. . ... ... ... : ... .. . ... ... ... : C-3 00 . P84 : ... .. 5 ... : ... .. . ... ... : ... .. . ... ... : ... .. . ... ... : ... .. 5 ... ...
ROW 0D : ... .. . ... ... ... : ... .. . ... ... ... : B-2 00 . P7D : ... .. 2 ... : ... .. . ... ... : ... .. 3 ... ... : ... .. 7 ... ... : ... .. 4 ... ...
ROW 0E : ... .. . ... ... ... : ... .. . ... ... ... : A#2 00 . P78 : ... .. 1 ... : ... .. . ... ... : ... .. . ... ... : ... .. . ... ... : ... .. 3 ... ...
ROW 0F : ... .. 2 ... ... ... : ... .. 2 ... ... ... : A-2 00 . P74 : ... .. . ... : ... .. . ... ... : ... .. . ... ... : ... .. . ... ... : ... .. 2 ... ...
ROW 10 : D#2 00 F ... ... ... : A#2 00 F ... ... ... : D#2 00 . P80 : ... .. F ... : ... .. . ... ... : A-2 01 4 ... V03 : ... .. . ... ... : G-3 01 6 ... ...
ROW 11 : ... .. E ... ... ... : ... .. E ... ... ... : ... .. . ... : ... .. C ... : ... .. . ... ... : ... .. . ... V01 : ... .. 6 ... ... : ... .. 5 ... ...
ROW 12 : ... .. D ... ... ... : ... .. D ... ... ... : ... .. . ... : ... .. 6 ... : ... .. . ... ... : ... .. . ... ... : ... .. . ... ... : ... .. 4 ... ...
ROW 13 : ... .. A ... ... ... : ... .. A ... ... ... : ... .. . ... : ... .. 3 ... : ... .. . ... ... : ... .. . ... ... : ... .. 5 ... ... : ... .. 3 ... ...
ROW 14 : ... .. 2 ... ... ... : ... .. 2 ... ... ... : --- .. . ... : ... .. 2 ... : ... .. . ... ... : ... .. . ... ... : ... .. . ... ... : ... .. 2 ... ...
ROW 15 : ... .. F ... ... ... : ... .. F ... ... ... : D#2 00 . ... : 1-# 00 F ... : ... .. . ... ... : A#2 01 4 ... V03 : ... .. . ... ... : ... .. 6 ... ...
ROW 16 : ... .. E ... ... ... : ... .. E ... ... ... : ... .. . ... : ... .. C ... : ... .. . ... ... : ... .. . ... V01 : ... .. . ... ... : ... .. 5 ... ...
ROW 17 : ... .. D ... ... ... : ... .. D ... ... ... : ... .. . ... : ... .. 6 ... : ... .. . ... ... : ... .. . ... ... : ... .. 4 ... ... : ... .. 4 ... ...
ROW 18 : ... .. A ... ... ... : ... .. A ... ... ... : ... .. . ... : ... .. 3 ... : ... .. . ... ... : ... .. . ... ... : ... .. . ... ... : ... .. 3 ... ...
ROW 19 : ... .. 2 ... ... ... : ... .. 2 ... ... ... : --- .. . ... : ... .. 2 ... : ... .. . ... ... : ... .. . ... ... : ... .. . ... ... : ... .. 2 ... ...
ROW 1A : ... .. F ... ... ... : ... .. F ... ... ... : D#2 00 . ... : 3-# 00 D ... : ... .. . ... ... : D-3 01 4 ... V03 : ... .. . ... ... : A-3 01 6 ... ...
ROW 1B : ... .. E ... ... ... : ... .. E ... ... ... : ... .. . ... : ... .. . ... : ... .. . ... ... : ... .. . ... V01 : ... .. . ... ... : ... .. 5 ... ...
ROW 1C : ... .. D ... ... ... : ... .. D ... ... ... : ... .. . ... : F-# 00 D ... : ... .. . ... ... : ... .. . ... ... : ... .. . ... ... : ... .. 4 ... ...
ROW 1D : ... .. A ... ... ... : ... .. A ... ... ... : ... .. . ... : D-# 00 6 ... : ... .. . ... ... : ... .. . ... ... : ... .. . ... ... : ... .. 3 ... ...
ROW 1E : ... .. 2 ... ... ... : ... .. 2 ... ... ... : ... .. . ... : 9-# 00 1 ... : ... .. . ... ... : ... .. . ... ... : ... .. . ... ... : ... .. 2 ... ...
ROW 1F : ... .. F ... ... ... : ... .. F ... ... ... : ... .. . ... : ... .. 0 ... : ... .. . ... ... : G-3 01 4 ... V03 : ... .. . ... ... : ... .. 6 ... ...
ROW 20 : ... .. E ... ... ... : ... .. E ... ... ... : ... .. . ... : ... .. . ... : ... .. . ... ... : ... .. . ... V01 : ... .. . ... ... : ... .. 5 ... ...
ROW 21 : ... .. D ... ... ... : ... .. D ... ... ... : ... .. . ... : ... .. . ... : ... .. . ... ... : ... .. . ... ... : ... .. . ... ... : ... .. 4 ... ...
ROW 22 : ... .. A ... ... ... : ... .. A ... ... ... : ... .. . ... : ... .. . ... : ... .. . ... ... : ... .. . ... ... : ... .. . ... ... : ... .. 3 ... ...
ROW 23 : ... .. 2 ... ... ... : ... .. 2 ... ... ... : --- .. . ... : ... .. . ... : ... .. . ... ... : ... .. . ... ... : ... .. . ... ... : ... .. 2 ... ...
ROW 24 : D-4 00 F ... ... ... : G-3 00 F ... ... ... : D#3 00 . ... : 1-# 00 F ... : ... .. . ... ... : A-3 01 4 ... V03 : C-4 01 9 ... V03 : F-4 01 6 ... ...
ROW 25 : ... .. E ... ... ... : ... .. E ... ... ... : ... .. . ... : ... .. C ... : ... .. . ... ... : ... .. . ... V01 : ... .. 8 ... V01 : ... .. 5 ... ...
ROW 26 : ... .. D ... ... ... : ... .. D ... ... ... : ... .. . ... : ... .. 6 ... : ... .. . ... ... : ... .. . ... ... : ... .. . ... ... : ... .. 4 ... ...
ROW 27 : ... .. A ... ... ... : ... .. A ... ... ... : ... .. . ... : ... .. 3 ... : ... .. . ... ... : ... .. . ... ... : ... .. . ... ... : ... .. 3 ... ...
ROW 28 : ... .. . ... ... ... : ... .. . ... ... ... : ... .. . ... : ... .. 2 ... : ... .. . ... ... : ... .. . ... ... : ... .. . ... ... : ... .. 2 ... ...
ROW 29 : ... .. . ... ... ... : ... .. . ... ... ... : D-3 00 . P75 : C-# 00 8 ... : ... .. . ... ... : ... .. . ... ... : ... .. . ... ... : ... .. 6 ... ...
ROW 2A : ... .. . ... ... ... : ... .. . ... ... ... : C-3 00 . P84 : ... .. 6 ... : ... .. . ... ... : ... .. . ... ... : ... .. . ... ... : ... .. 5 ... ...
ROW 2B : ... .. . ... ... ... : ... .. . ... ... ... : B-2 00 . P7D : ... .. 3 ... : ... .. . ... ... : ... .. 3 ... ... : ... .. 7 ... ... : ... .. 4 ... ...
ROW 2C : ... .. . ... ... ... : ... .. . ... ... ... : A#2 00 . P78 : ... .. 1 ... : ... .. . ... ... : ... .. . ... ... : ... .. . ... ... : ... .. 3 ... ...
ROW 2D : ... .. 2 ... ... ... : ... .. 2 ... ... ... : A-2 00 . P74 : ... .. . ... : ... .. . ... ... : ... .. . ... ... : ... .. . ... ... : ... .. 2 ... ...
ROW 2E : D#2 00 F ... ... ... : C-3 00 F ... ... ... : D#2 00 . P80 : ... .. F ... : ... .. . ... ... : A-2 01 4 ... V03 : ... .. . ... ... : G-3 01 6 ... ...
ROW 2F : ... .. E ... ... ... : ... .. E ... ... ... : ... .. . ... : ... .. C ... : ... .. . ... ... : ... .. . ... V01 : ... .. 6 ... ... : ... .. 5 ... ...
ROW 30 : ... .. D ... ... ... : ... .. D ... ... ... : ... .. . ... : ... .. 6 ... : ... .. . ... ... : ... .. . ... ... : ... .. . ... ... : ... .. 4 ... ...
ROW 31 : ... .. A ... ... ... : ... .. A ... ... ... : ... .. . ... : ... .. 3 ... : ... .. . ... ... : ... .. . ... ... : ... .. 5 ... ... : ... .. 3 ... ...
ROW 32 : ... .. 2 ... ... ... : ... .. 2 ... ... ... : --- .. . ... : ... .. 2 ... : ... .. . ... ... : ... .. . ... ... : ... .. . ... ... : ... .. 2 ... ...
ROW 33 : ... .. F ... ... ... : ... .. F ... ... ... : D#2 00 . ... : 1-# 00 F ... : ... .. . ... ... : A#2 01 4 ... V03 : ... .. . ... ... : ... .. 6 ... ...
ROW 34 : ... .. E ... ... ... : ... .. E ... ... ... : ... .. . ... : ... .. C ... : ... .. . ... ... : ... .. . ... V01 : ... .. . ... ... : ... .. 5 ... ...
ROW 35 : ... .. D ... ... ... : ... .. D ... ... ... : ... .. . ... : ... .. 6 ... : ... .. . ... ... : ... .. . ... ... : ... .. 4 ... ... : ... .. 4 ... ...
ROW 36 : ... .. A ... ... ... : ... .. A ... ... ... : ... .. . ... : ... .. 3 ... : ... .. . ... ... : ... .. . ... ... : ... .. . ... ... : ... .. 3 ... ...
ROW 37 : ... .. 2 ... ... ... : ... .. 2 ... ... ... : --- .. . ... : ... .. 2 ... : ... .. . ... ... : ... .. . ... ... : ... .. . ... ... : ... .. 2 ... ...
ROW 38 : ... .. F ... ... ... : ... .. F ... ... ... : D#2 00 . ... : 3-# 00 D ... : ... .. . ... ... : D-3 01 4 ... V03 : ... .. . ... ... : A-3 01 6 ... ...
ROW 39 : ... .. E ... ... ... : ... .. E ... ... ... : ... .. . ... : ... .. . ... : ... .. . ... ... : ... .. . ... V01 : ... .. . ... ... : ... .. 5 ... ...
ROW 3A : ... .. D ... ... ... : ... .. D ... ... ... : ... .. . ... : F-# 00 D ... : ... .. . ... ... : ... .. . ... ... : ... .. . ... ... : ... .. 4 ... ...
ROW 3B : ... .. A ... ... ... : ... .. A ... ... ... : ... .. . ... : D-# 00 6 ... : ... .. . ... ... : ... .. . ... ... : ... .. . ... ... : ... .. 3 ... ...
ROW 3C : ... .. 2 ... ... ... : ... .. 2 ... ... ... : ... .. . ... : 9-# 00 1 ... : ... .. . ... ... : ... .. . ... ... : ... .. . ... ... : ... .. 2 ... ...
ROW 3D : ... .. F ... ... ... : ... .. F ... ... ... : ... .. . ... : ... .. 0 ... : ... .. . ... ... : G-3 01 4 ... V03 : ... .. . ... ... : ... .. 6 ... ...
ROW 3E : ... .. E ... ... ... : ... .. E ... ... ... : ... .. . ... : ... .. . ... : ... .. . ... ... : ... .. . ... V01 : ... .. . ... ... : ... .. 5 ... ...
ROW 3F : ... .. D ... ... ... : ... .. D ... ... ... : ... .. . ... : ... .. . ... : ... .. . ... ... : ... .. . ... ... : ... .. . ... ... : ... .. 4 ... ...
ROW 40 : ... .. A ... ... ... : ... .. A ... ... ... : ... .. . ... : ... .. . ... : ... .. . ... ... : ... .. . ... ... : ... .. . ... ... : ... .. 3 ... ...
ROW 41 : ... .. 2 ... ... ... : ... .. 2 ... ... ... : --- .. . ... : ... .. . ... : ... .. . ... ... : ... .. . ... ... : ... .. . ... ... : ... .. 2 ... ...
ROW 42 : D-4 00 F ... ... ... : G-3 00 F ... ... ... : D#3 00 . ... : 1-# 00 F ... : ... .. . ... ... : A-3 01 4 ... V03 : F-3 01 9 ... V03 : D#4 01 6 ... ...
ROW 43 : ... .. E ... ... ... : ... .. E ... ... ... : ... .. . ... : ... .. C ... : ... .. . ... ... : ... .. . ... V01 : ... .. 8 ... V01 : ... .. 5 ... ...
ROW 44 : ... .. D ... ... ... : ... .. D ... ... ... : ... .. . ... : ... .. 6 ... : ... .. . ... ... : ... .. . ... ... : ... .. . ... ... : ... .. 4 ... ...
ROW 45 : ... .. A ... ... ... : ... .. A ... ... ... : ... .. . ... : ... .. 3 ... : ... .. . ... ... : ... .. . ... ... : ... .. . ... ... : ... .. 3 ... ...
ROW 46 : ... .. . ... ... ... : ... .. . ... ... ... : ... .. . ... : ... .. 2 ... : ... .. . ... ... : ... .. . ... ... : ... .. . ... ... : ... .. 2 ... ...
ROW 47 : ... .. . ... ... ... : ... .. . ... ... ... : D-3 00 . P75 : C-# 00 7 ... : ... .. . ... ... : ... .. . ... ... : ... .. . ... ... : ... .. 6 ... ...
ROW 48 : ... .. . ... ... ... : ... .. . ... ... ... : C-3 00 . P84 : ... .. 5 ... : ... .. . ... ... : ... .. . ... ... : ... .. . ... ... : ... .. 5 ... ...
ROW 49 : ... .. . ... ... ... : ... .. . ... ... ... : B-2 00 . P7D : ... .. 2 ... : ... .. . ... ... : ... .. 3 ... ... : ... .. 7 ... ... : ... .. 4 ... ...
ROW 4A : ... .. . ... ... ... : ... .. . ... ... ... : A#2 00 . P78 : ... .. 1 ... : ... .. . ... ... : ... .. . ... ... : ... .. . ... ... : ... .. 3 ... ...
ROW 4B : ... .. 2 ... ... ... : ... .. 2 ... ... ... : A-2 00 . P74 : ... .. . ... : ... .. . ... ... : ... .. . ... ... : ... .. . ... ... : ... .. 2 ... ...
ROW 4C : A-2 00 F ... ... ... : G-2 00 F ... ... ... : D#2 00 . P80 : ... .. F ... : ... .. . ... ... : ... .. . ... ... : ... .. . ... ... : G-3 01 6 ... ...
ROW 4D : ... .. E ... ... ... : ... .. E ... ... ... : ... .. . ... : ... .. C ... : ... .. . ... ... : ... .. . ... ... : ... .. 6 ... ... : ... .. 5 ... ...
ROW 4E : ... .. D ... ... ... : ... .. D ... ... ... : ... .. . ... : ... .. 6 ... : ... .. . ... ... : ... .. . ... ... : ... .. . ... ... : ... .. 4 ... ...
ROW 4F : ... .. A ... ... ... : ... .. A ... ... ... : ... .. . ... : ... .. 3 ... : ... .. . ... ... : ... .. 2 ... ... : ... .. 5 ... ... : ... .. 3 ... ...
ROW 50 : ... .. 2 ... ... ... : ... .. 2 ... ... ... : --- .. . ... : ... .. 2 ... : ... .. . ... ... : ... .. . ... ... : ... .. . ... ... : ... .. 2 ... ...
ROW 51 : G-2 00 F ... ... ... : ... .. F ... ... ... : D#2 00 . ... : 1-# 00 F ... : ... .. . ... ... : ... .. . ... ... : ... .. . ... ... : ... .. 6 ... ...
ROW 52 : ... .. E ... ... ... : ... .. E ... ... ... : ... .. . ... : ... .. C ... : ... .. . ... ... : ... .. . ... ... : ... .. . ... ... : ... .. 5 ... ...
ROW 53 : ... .. D ... ... ... : ... .. D ... ... ... : ... .. . ... : ... .. 6 ... : ... .. . ... ... : ... .. . ... ... : ... .. 4 ... ... : ... .. 4 ... ...
ROW 54 : ... .. A ... ... ... : ... .. A ... ... ... : ... .. . ... : ... .. 3 ... : ... .. . ... ... : ... .. . ... ... : ... .. . ... ... : ... .. 3 ... ...
ROW 55 : ... .. 2 ... ... ... : ... .. 2 ... ... ... : --- .. . ... : ... .. 2 ... : ... .. . ... ... : ... .. . ... ... : ... .. . ... ... : ... .. 2 ... ...
ROW 56 : F-2 00 F ... ... ... : ... .. F ... ... ... : D#2 00 . ... : 3-# 00 D ... : ... .. . ... ... : D#3 01 9 ... V03 : ... .. . ... ... : A-3 01 6 ... ...
ROW 57 : ... .. E ... ... ... : ... .. E ... ... ... : ... .. . ... : ... .. . ... : ... .. . ... ... : ... .. 8 ... V01 : ... .. . ... ... : ... .. 5 ... ...
ROW 58 : ... .. D ... ... ... : ... .. D ... ... ... : ... .. . ... : F-# 00 D ... : ... .. . ... ... : ... .. . ... ... : ... .. . ... ... : ... .. 4 ... ...
ROW 59 : ... .. A ... ... ... : ... .. A ... ... ... : ... .. . ... : D-# 00 6 ... : ... .. . ... ... : ... .. . ... ... : ... .. . ... ... : ... .. 3 ... ...
ROW 5A : ... .. 2 ... ... ... : ... .. 2 ... ... ... : ... .. . ... : 9-# 00 1 ... : ... .. . ... ... : ... .. . ... ... : ... .. . ... ... : ... .. 2 ... ...
ROW 5B : D#2 00 F ... ... ... : ... .. F ... ... ... : ... .. . ... : ... .. 0 ... : ... .. . ... ... : D-3 01 9 ... V03 : ... .. . ... ... : ... .. 6 ... ...
ROW 5C : ... .. E ... ... ... : ... .. E ... ... ... : ... .. . ... : ... .. . ... : ... .. . ... ... : ... .. 8 ... V01 : ... .. . ... ... : ... .. 5 ... ...
ROW 5D : ... .. D ... ... ... : ... .. D ... ... ... : ... .. . ... : ... .. . ... : ... .. . ... ... : ... .. . ... ... : ... .. . ... ... : ... .. 4 ... ...
ROW 5E : ... .. A ... ... ... : ... .. A ... ... ... : ... .. . ... : ... .. . ... : ... .. . ... ... : ... .. . ... ... : ... .. . ... ... : ... .. 3 ... ...
ROW 5F : ... .. 2 ... ... ... : ... .. 2 ... ... ... : --- .. . ... : ... .. . ... : ... .. . ... ... : ... .. . ... ... : ... .. . ... ... : ... .. 2 ... ...
ROW 60 : D-2 00 F ... ... ... : D-5 00 8 ... ... ... : D#4 00 . ... : 1-# 00 F ... : ... .. . ... ... : C-3 01 9 ... V03 : D#3 01 9 ... V03 : C-4 01 8 ... ...
ROW 61 : ... .. E ... ... ... : ... .. 7 ... ... ... : ... .. . ... : ... .. C ... : ... .. . ... ... : ... .. 8 ... V01 : ... .. 8 ... V01 : ... .. 6 ... ...
ROW 62 : ... .. D ... ... ... : ... .. . ... ... ... : ... .. . ... : ... .. 6 ... : ... .. . ... ... : ... .. . ... ... : ... .. . ... ... : ... .. 4 ... ...
ROW 63 : ... .. A ... ... ... : ... .. 6 ... ... ... : ... .. . ... : ... .. 3 ... : ... .. . ... ... : ... .. . ... ... : ... .. . ... ... : ... .. . ... ...
ROW 64 : ... .. 2 ... ... ... : ... .. 5 ... ... ... : --- .. . ... : ... .. 2 ... : ... .. . ... ... : ... .. . ... ... : ... .. . ... ... : ... .. . ... ...
ROW 65 : D#2 00 F ... ... ... : C-5 00 8 ... ... ... : D-4 00 . ... : C-# 00 8 ... : ... .. . ... ... : A#2 01 9 ... V03 : D-3 01 9 ... V03 : D-4 01 8 ... ...
ROW 66 : ... .. E ... ... ... : ... .. 7 ... ... ... : ... .. . ... : ... .. 6 ... : ... .. . ... ... : ... .. 8 ... V01 : ... .. 8 ... V01 : ... .. 6 ... ...
ROW 67 : ... .. D ... ... ... : ... .. . ... ... ... : ... .. . ... : ... .. 3 ... : ... .. . ... ... : ... .. . ... ... : ... .. . ... ... : ... .. 4 ... ...
ROW 68 : ... .. A ... ... ... : ... .. 6 ... ... ... : ... .. . ... : ... .. 1 ... : ... .. . ... ... : ... .. . ... ... : ... .. . ... ... : ... .. . ... ...
ROW 69 : ... .. . ... ... ... : ... .. 5 ... ... ... : --- .. . ... : ... .. . ... : ... .. . ... ... : ... .. . ... ... : ... .. . ... ... : ... .. . ... ...
ROW 6A : G-2 00 F ... ... ... : A#4 00 8 ... ... ... : C-4 00 . ... : ... .. F ... : ... .. . ... ... : A-2 01 9 ... V03 : C-3 01 9 ... V03 : D#4 01 8 ... ...
ROW 6B : ... .. E ... ... ... : ... .. 7 ... ... ... : ... .. . ... : ... .. C ... : ... .. . ... ... : ... .. 8 ... V01 : ... .. 8 ... V01 : ... .. 6 ... ...
ROW 6C : ... .. D ... ... ... : ... .. . ... ... ... : ... .. . ... : ... .. 6 ... : ... .. . ... ... : ... .. . ... ... : ... .. . ... ... : ... .. 4 ... ...
ROW 6D : ... .. A ... ... ... : ... .. 6 ... ... ... : ... .. . ... : ... .. 3 ... : ... .. . ... ... : ... .. . ... ... : ... .. . ... ... : ... .. . ... ...
ROW 6E : ... .. 2 ... ... ... : ... .. 5 ... ... ... : --- .. . ... : ... .. 2 ... : ... .. . ... ... : ... .. . ... ... : ... .. . ... ... : ... .. . ... ...
ROW 6F : A#2 00 F ... ... ... : A-4 00 8 ... ... ... : A#3 00 . ... : 1-# 00 F ... : ... .. . ... ... : G-2 01 9 ... V03 : A#2 01 9 ... V03 : F-4 01 8 ... ...
ROW 70 : ... .. E ... ... ... : ... .. 7 ... ... ... : ... .. . ... : ... .. C ... : ... .. . ... ... : ... .. 8 ... V01 : ... .. 8 ... V01 : ... .. 6 ... ...
ROW 71 : ... .. D ... ... ... : ... .. . ... ... ... : ... .. . ... : ... .. 6 ... : ... .. . ... ... : ... .. . ... ... : ... .. . ... ... : ... .. 4 ... ...
ROW 72 : ... .. 0 ... ... ... : ... .. 0 ... ... ... : ... .. . ... : ... .. 3 ... : ... .. . ... ... : ... .. . ... ... : ... .. . ... ... : ... .. . ... ...
ROW 73 : ... .. . ... ... ... : ... .. . ... ... ... : --- .. . ... : ... .. 2 ... : ... .. . ... ... : ... .. . ... ... : ... .. . ... ... : ... .. . ... ...
ROW 74 : A-2 00 F P80 ... ... : G-4 00 D P80 ... ... : A-3 00 . ... : 3-# 00 D ... : ... .. . ... ... : F-2 01 9 ... V03 : A-2 01 9 ... V03 : G-4 01 8 ... ...
ROW 75 : ... .. E ... ... ... : ... .. B ... ... ... : ... .. . ... : ... .. . ... : ... .. . ... ... : ... .. 8 ... V01 : ... .. 8 ... V01 : ... .. 6 ... ...
ROW 76 : ... .. D ... ... ... : ... .. . ... ... ... : ... .. . ... : F-# 00 D ... : ... .. . ... ... : ... .. . ... ... : ... .. . ... ... : ... .. 4 ... ...
ROW 77 : ... .. A ... ... ... : ... .. A ... ... ... : ... .. . ... : D-# 00 6 ... : ... .. . ... ... : ... .. . ... ... : ... .. . ... ... : ... .. . ... ...
ROW 78 : ... .. . ... ... ... : ... .. 8 ... ... ... : --- .. . ... : 9-# 00 1 ... : ... .. . ... ... : ... .. . ... ... : ... .. . ... ... : ... .. . ... ...
ROW 79 : ... .. . ... ... ... : ... .. 7 ... ... ... : G-3 00 . ... : ... .. 0 ... : ... .. . ... ... : D#2 01 9 ... V03 : G-2 01 9 ... V03 : A-4 01 8 ... ...
ROW 7A : ... .. . ... ... ... : ... .. 6 ... ... ... : ... .. . ... : ... .. . ... : ... .. . ... ... : ... .. 8 ... V01 : ... .. 8 ... V01 : ... .. 6 ... ...
ROW 7B : ... .. . ... ... ... : ... .. . ... ... ... : ... .. . ... : ... .. . ... : ... .. . ... ... : ... .. . ... ... : ... .. . ... ... : ... .. 4 ... ...
ROW 7C : ... .. 0 ... ... ... : ... .. 0 ... ... ... : ... .. . ... : ... .. . ... : ... .. . ... ... : ... .. . ... ... : ... .. . ... ... : ... .. . ... ...
ROW 7D : ... .. . ... ... ... : ... .. . ... ... ... : --- .. . ... : ... .. . ... : ... .. . ... ... : ... .. . ... ... : ... .. . ... ... : ... .. . ... ...
ROW 7E : A-2 00 4 P80 ... ... : G-4 00 3 P80 ... ... : F-3 00 . ... : ... .. . ... : ... .. . ... ... : D-2 01 9 ... V03 : F-2 01 9 ... V03 : A#4 01 8 ... ...
ROW 7F : ... .. 3 ... ... ... : ... .. 2 ... ... ... : ... .. . ... : ... .. . ... : ... .. . ... ... : ... .. 8 ... V01 : ... .. 8 ... V01 : ... .. 6 ... ...
ROW 80 : ... .. . ... ... ... : ... .. . ... ... ... : ... .. . ... : ... .. . ... : ... .. . ... ... : ... .. . ... ... : ... .. . ... ... : ... .. 4 ... ...
ROW 81 : ... .. 2 ... ... ... : ... .. . ... ... ... : ... .. . ... : ... .. . ... : ... .. . ... ... : ... .. . ... ... : ... .. . ... ... : ... .. . ... ...
ROW 82 : ... .. . ... ... ... : ... .. . ... ... ... : --- .. . ... : ... .. . ... : ... .. . ... ... : ... .. . ... ... : ... .. . ... ... : ... .. . ... ...
ROW 83 : ... .. . ... ... ... : ... .. 1 ... ... ... : D#3 00 . ... : ... .. . ... : ... .. . ... ... : C-2 01 9 ... V03 : D#2 01 9 ... V03 : C-5 01 8 ... ...
ROW 84 : ... .. . ... ... ... : ... .. . ... ... ... : ... .. . ... : ... .. . ... : ... .. . ... ... : ... .. 8 ... V01 : ... .. 8 ... V01 : ... .. 6 ... ...
ROW 85 : ... .. . ... ... ... : ... .. . ... ... ... : ... .. . ... : ... .. . ... : ... .. . ... ... : ... .. . ... ... : ... .. . ... ... : ... .. 4 ... ...
ROW 86 : ... .. 0 ... ... ... : ... .. 0 ... ... ... : ... .. . ... : ... .. . ... : ... .. . ... ... : ... .. . ... ... : ... .. . ... ... : ... .. . ... ...
ROW 87 : ... .. . ... ... ... : ... .. . ... ... ... : --- .. . ... : ... .. . ... : ... .. . ... ... : ... .. . ... ... : ... .. . ... ... : ... .. . ... ...
ROW 88 : A-3 00 8 P80 ... ... : F-3 00 A P80 ... ... : A#3 00 . ... : 1-# 00 F ... : ... .. . Z00 ... : D-2 01 9 P80 V03 : A-2 01 9 P80 V03 : D-5 01 A ... ...
ROW 89 : ... .. 7 ... ... ... : ... .. 4 ... ... ... : G-3 00 . P7B : ... .. C ... : ... .. . ... ... : ... .. 8 ... V01 : ... .. 8 ... V01 : ... .. 8 ... ...
ROW 8A : ... .. 6 ... ... ... : ... .. 0 ... ... ... : E-3 00 . P7F : ... .. 6 ... : ... .. . ... ... : ... .. . ... ... : ... .. . ... ... : ... .. 5 ... ...
ROW 8B : ... .. 5 ... ... ... : F-3 00 4 P80 ... ... : D-3 00 . P77 : ... .. 3 ... : ... .. . ... ... : ... .. . ... ... : ... .. . ... ... : ... .. . ... ...
ROW 8C : ... .. . ... ... ... : ... .. 5 ... ... ... : C-3 00 . P74 : ... .. 2 ... : ... .. . ... ... : ... .. . ... ... : ... .. . ... ... : ... .. . ... ...
ROW 8D : ... .. . ... ... ... : A-2 00 A ... ... ... : A#2 00 . P76 : D-# 00 8 ... : ... .. . ... ... : ... .. . ... ... : ... .. . ... ... : ... .. . ... ...
ROW 8E : ... .. 1 ... ... ... : ... .. 4 ... ... ... : G#2 00 . P7F : ... .. 6 ... : ... .. . ... ... : ... .. . ... ... : ... .. . ... ... : ... .. 2 ... ...
ROW 8F : ... .. . ... ... ... : ... .. 0 ... ... ... : F#2 00 . P8F : ... .. 3 ... : ... .. . ... ... : ... .. 7 ... ... : ... .. 7 ... ... : ... .. . ... ...
ROW 90 : ... .. . ... ... ... : A-2 00 4 P80 ... ... : F-2 00 . P81 : ... .. 1 ... : ... .. . ... ... : ... .. . ... ... : ... .. . ... ... : ... .. 1 ... ...
ROW 91 : ... .. . ... ... ... : ... .. 5 ... ... ... : E-2 00 . P75 : ... .. . ... : ... .. . ... ... : ... .. . ... ... : ... .. . ... ... : ... .. . ... ...
ROW 92 : ... .. F ... ... ... : ... .. A ... ... ... : D-2 00 . P80 : ... .. A ... : ... .. . ... ... : ... .. 9 ... V03 : ... .. 9 ... V03 : ... .. . ... ...
ROW 93 : ... .. E ... ... ... : ... .. 4 ... ... ... : ... .. . ... : ... .. 8 ... : ... .. . ... ... : ... .. 8 ... V01 : ... .. 8 ... V01 : ... .. . ... ...
ROW 94 : ... .. D ... ... ... : ... .. 0 ... ... ... : ... .. . ... : ... .. 4 ... : ... .. . ... ... : ... .. . ... ... : ... .. . ... ... : ... .. . ... ...
ROW 95 : ... .. A ... ... ... : A-2 00 4 P80 ... ... : ... .. . ... : ... .. 2 ... : ... .. . ... ... : --- .. . P84 ... : --- .. . P82 ... : ... .. . ... ...
ROW 96 : ... .. . ... ... ... : ... .. 5 ... ... ... : --- .. . ... : ... .. 1 ... : ... .. . ... ... : ... .. . ... ... : ... .. . ... ... : ... .. . ... ...
ROW 97 : ... .. . ... ... ... : ... .. A ... ... ... : D-2 00 . ... : ... .. 8 ... : ... .. . ... ... : D-2 01 9 P80 V03 : A-2 01 9 P80 V03 : ... .. 0 ... ...
ROW 98 : ... .. 2 ... ... ... : ... .. 4 ... ... ... : ... .. . ... : ... .. 6 ... : ... .. . ... ... : ... .. 8 ... V01 : ... .. 8 ... V01 : ... .. . ... ...
ROW 99 : ... .. . ... ... ... : ... .. 0 ... ... ... : ... .. . ... : ... .. 3 ... : ... .. . ... ... : ... .. . ... ... : ... .. . ... ... : ... .. . ... ...
ROW 9A : ... .. . ... ... ... : A-2 00 4 P80 ... ... : ... .. . ... : ... .. 1 ... : ... .. . ... ... : --- .. . P84 ... : --- .. . P82 ... : ... .. . ... ...
ROW 9B : ... .. 1 ... ... ... : ... .. 5 ... ... ... : --- .. . ... : ... .. . ... : ... .. . ... ... : ... .. . ... ... : ... .. . ... ... : ... .. . ... ...
ROW 9C : D-4 00 F ... ... ... : F-3 00 A ... ... ... : C-3 00 . ... : 1-# 00 D ... : ... .. . ... ... : D-2 01 9 P80 V03 : A-2 01 9 P80 V03 : ... .. A ... ...
ROW 9D : ... .. E ... ... ... : ... .. 4 ... ... ... : ... .. . ... : ... .. . ... : ... .. . ... ... : ... .. 8 ... V01 : ... .. 8 ... V01 : ... .. 8 ... ...
ROW 9E : ... .. D ... ... ... : ... .. 0 ... ... ... : ... .. . ... : D-# 00 D ... : ... .. . ... ... : ... .. . ... ... : ... .. . ... ... : ... .. 5 ... ...
ROW 9F : ... .. A ... ... ... : F-3 00 4 P80 ... ... : ... .. . ... : B-# 00 6 ... : ... .. . ... ... : --- .. . P84 ... : --- .. . P82 ... : ... .. . ... ...
ROW A0 : ... .. . ... ... ... : ... .. 5 ... ... ... : --- .. . ... : 7-# 00 1 ... : ... .. . ... ... : ... .. . ... ... : ... .. . ... ... : ... .. . ... ...
ROW A1 : ... .. . ... ... ... : A-2 00 A ... ... ... : D-3 00 . ... : D-# 00 8 ... : ... .. . ... ... : D-2 01 9 P80 V03 : A-2 01 9 P80 V03 : ... .. . ... ...
ROW A2 : ... .. 2 ... ... ... : ... .. 4 ... ... ... : ... .. . ... : ... .. 6 ... : ... .. . ... ... : ... .. 8 ... V01 : ... .. 8 ... V01 : ... .. 2 ... ...
ROW A3 : ... .. . ... ... ... : ... .. 0 ... ... ... : ... .. . ... : ... .. 3 ... : ... .. . ... ... : ... .. . ... ... : ... .. . ... ... : ... .. . ... ...
ROW A4 : ... .. . ... ... ... : A-2 00 4 P80 ... ... : ... .. . ... : ... .. 1 ... : ... .. . ... ... : --- .. . P84 ... : --- .. . P82 ... : ... .. 1 ... ...
ROW A5 : ... .. 1 ... ... ... : ... .. 5 ... ... ... : --- .. . ... : ... .. . ... : ... .. . ... ... : ... .. . ... ... : ... .. . ... ... : ... .. . ... ...
ROW A6 : A-4 00 F ... ... ... : ... .. A ... ... ... : D-3 00 . ... : ... .. A ... : ... .. . ... ... : D-2 01 9 P80 V03 : A-2 01 9 P80 V03 : ... .. . ... ...
ROW A7 : ... .. E ... ... ... : ... .. 4 ... ... ... : ... .. . ... : ... .. 8 ... : ... .. . ... ... : ... .. 8 ... V01 : ... .. 8 ... V01 : ... .. . ... ...
ROW A8 : ... .. D ... ... ... : ... .. 0 ... ... ... : ... .. . ... : ... .. 4 ... : ... .. . ... ... : ... .. . ... ... : ... .. . ... ... : ... .. . ... ...
ROW A9 : ... .. A ... ... ... : A-2 00 4 P80 ... ... : ... .. . ... : ... .. 2 ... : ... .. . ... ... : ... .. . ... ... : ... .. . ... ... : ... .. . ... ...
ROW AA : ... .. . ... ... ... : ... .. 5 ... ... ... : --- .. . ... : ... .. 1 ... : ... .. . ... ... : ... .. . ... ... : ... .. . ... ... : ... .. . ... ...
ROW AB : ... .. . ... ... ... : ... .. A ... ... ... : D-3 00 . ... : ... .. 8 ... : ... .. . ... ... : ... .. . ... ... : ... .. . ... ... : ... .. 0 ... ...
ROW AC : ... .. 2 ... ... ... : ... .. 4 ... ... ... : ... .. . ... : ... .. 6 ... : ... .. . ... ... : ... .. . ... ... : ... .. . ... ... : ... .. . ... ...
ROW AD : ... .. . ... ... ... : ... .. 0 ... ... ... : ... .. . ... : ... .. 3 ... : ... .. . ... ... : ... .. 7 ... ... : ... .. 7 ... ... : ... .. . ... ...
ROW AE : ... .. . ... ... ... : A-2 00 4 P80 ... ... : ... .. . ... : ... .. 1 ... : ... .. . ... ... : --- .. . P84 ... : --- .. . P82 ... : ... .. . ... ...
ROW AF : ... .. 1 ... ... ... : ... .. 5 ... ... ... : --- .. . ... : ... .. . ... : ... .. . ... ... : ... .. . ... ... : ... .. . ... ... : ... .. . ... ...
ROW B0 : G-4 00 F ... ... ... : G-3 00 A ... ... ... : A#3 00 . ... : 1-# 00 F ... : ... .. . ... ... : D-2 01 9 P80 V03 : B-2 01 9 P80 V03 : ... .. A ... ...
ROW B1 : ... .. E ... ... ... : ... .. 4 ... ... ... : G-3 00 . P7B : ... .. C ... : ... .. . ... ... : ... .. 8 ... V01 : ... .. 8 ... V01 : ... .. 8 ... ...
ROW B2 : ... .. D ... ... ... : ... .. 0 ... ... ... : E-3 00 . P7F : ... .. 6 ... : ... .. . ... ... : ... .. . ... ... : ... .. . ... ... : ... .. 5 ... ...
ROW B3 : ... .. A ... ... ... : G-3 00 4 P80 ... ... : D-3 00 . P77 : ... .. 3 ... : ... .. . ... ... : ... .. . ... ... : ... .. . ... ... : ... .. . ... ...
ROW B4 : ... .. . ... ... ... : ... .. 5 ... ... ... : C-3 00 . P74 : ... .. 2 ... : ... .. . ... ... : ... .. . ... ... : ... .. . ... ... : ... .. . ... ...
ROW B5 : ... .. . ... ... ... : B-2 00 A ... ... ... : A#2 00 . P76 : D-# 00 8 ... : ... .. . ... ... : ... .. . ... ... : ... .. . ... ... : ... .. . ... ...
ROW B6 : ... .. . ... ... ... : ... .. 4 ... ... ... : G#2 00 . P7F : ... .. 6 ... : ... .. . ... ... : ... .. . ... ... : ... .. . ... ... : ... .. 2 ... ...
ROW B7 : ... .. . ... ... ... : ... .. 0 ... ... ... : F#2 00 . P8F : ... .. 3 ... : ... .. . ... ... : ... .. 7 ... ... : ... .. 7 ... ... : ... .. . ... ...
ROW B8 : ... .. . ... ... ... : B-2 00 4 P80 ... ... : F-2 00 . P81 : ... .. 1 ... : ... .. . ... ... : ... .. . ... ... : ... .. . ... ... : ... .. 1 ... ...
ROW B9 : ... .. . ... ... ... : ... .. 5 ... ... ... : E-2 00 . P75 : ... .. . ... : ... .. . ... ... : ... .. . ... ... : ... .. . ... ... : ... .. . ... ...
ROW BA : ... .. . ... ... ... : ... .. A ... ... ... : F-3 00 . P80 : ... .. A ... : ... .. . ... ... : ... .. 9 ... V03 : ... .. 9 ... V03 : ... .. . ... ...
ROW BB : ... .. . ... ... ... : ... .. 4 ... ... ... : ... .. . ... : ... .. 8 ... : ... .. . ... ... : ... .. 8 ... V01 : ... .. 8 ... V01 : ... .. . ... ...
ROW BC : ... .. . ... ... ... : ... .. 0 ... ... ... : ... .. . ... : ... .. 4 ... : ... .. . ... ... : ... .. . ... ... : ... .. . ... ... : ... .. . ... ...
ROW BD : ... .. . ... ... ... : B-2 00 4 P80 ... ... : ... .. . ... : ... .. 2 ... : ... .. . ... ... : --- .. . P84 ... : --- .. . P85 ... : ... .. . ... ...
ROW BE : ... .. . ... ... ... : ... .. 5 ... ... ... : --- .. . ... : ... .. 1 ... : ... .. . ... ... : ... .. . ... ... : ... .. . ... ... : ... .. . ... ...
ROW BF : ... .. . ... ... ... : ... .. A ... ... ... : F-3 00 . ... : ... .. 8 ... : ... .. . ... ... : D-2 01 9 P80 V03 : B-2 01 9 P80 V03 : ... .. 0 ... ...
ROW C0 : ... .. . ... ... ... : ... .. 4 ... ... ... : ... .. . ... : ... .. 6 ... : ... .. . ... ... : ... .. 8 ... V01 : ... .. 8 ... V01 : ... .. . ... ...
ROW C1 : ... .. . ... ... ... : ... .. 0 ... ... ... : ... .. . ... : ... .. 3 ... : ... .. . ... ... : ... .. . ... ... : ... .. . ... ... : ... .. . ... ...
ROW C2 : ... .. . P84 ... ... : B-2 00 4 P80 ... ... : ... .. . ... : ... .. 1 ... : ... .. . ... ... : --- .. . P84 ... : --- .. . P85 ... : ... .. . ... ...
ROW C3 : G#4 00 A P7E ... ... : ... .. 5 ... ... ... : --- .. . ... : ... .. . ... : ... .. . ... ... : ... .. . ... ... : ... .. . ... ... : ... .. . ... ...
ROW C4 : G-4 00 A P84 ... ... : G-3 00 A ... ... ... : D-3 00 . ... : 1-# 00 D ... : ... .. . ... ... : D-2 01 9 P80 V03 : B-2 01 9 P80 V03 : ... .. A ... ...
ROW C5 : ... .. . P80 ... ... : ... .. 4 ... ... ... : ... .. . ... : ... .. . ... : ... .. . ... ... : ... .. 8 ... V01 : ... .. 8 ... V01 : ... .. 8 ... ...
ROW C6 : F#4 00 A P84 ... ... : ... .. 0 ... ... ... : ... .. . ... : D-# 00 D ... : ... .. . ... ... : ... .. . ... ... : ... .. . ... ... : ... .. 5 ... ...
ROW C7 : ... .. . P82 ... ... : G-3 00 4 P80 ... ... : ... .. . ... : B-# 00 6 ... : ... .. . ... ... : --- .. . P84 ... : --- .. . P85 ... : ... .. . ... ...
ROW C8 : ... .. . P84 ... ... : ... .. 5 ... ... ... : --- .. . ... : 7-# 00 1 ... : ... .. . ... ... : ... .. . ... ... : ... .. . ... ... : ... .. . ... ...
ROW C9 : G-4 00 A P80 ... ... : B-2 00 A ... ... ... : D-3 00 . ... : D-# 00 8 ... : ... .. . ... ... : D-2 01 9 P80 V03 : B-2 01 9 P80 V03 : ... .. . ... ...
ROW CA : ... .. 2 P84 ... ... : ... .. 4 ... ... ... : ... .. . ... : ... .. 6 ... : ... .. . ... ... : ... .. 8 ... V01 : ... .. 8 ... V01 : ... .. 2 ... ...
ROW CB : G#4 00 2 P7E ... ... : ... .. 0 ... ... ... : ... .. . ... : ... .. 3 ... : ... .. . ... ... : ... .. . ... ... : ... .. . ... ... : ... .. . ... ...
ROW CC : G-4 00 2 P84 ... ... : B-2 00 4 P80 ... ... : ... .. . ... : ... .. 1 ... : ... .. . ... ... : --- .. . P84 ... : --- .. . P85 ... : ... .. 1 ... ...
ROW CD : ... .. 1 P80 ... ... : ... .. 5 ... ... ... : --- .. . ... : ... .. . ... : ... .. . ... ... : ... .. . ... ... : ... .. . ... ... : ... .. . ... ...
ROW CE : D-4 00 F ... ... ... : ... .. A ... ... ... : D-2 00 . ... : ... .. A ... : ... .. . ... ... : D-2 01 9 P80 V03 : B-2 01 9 P80 V03 : ... .. . ... ...
ROW CF : ... .. E ... ... ... : ... .. 4 ... ... ... : ... .. . ... : ... .. 8 ... : ... .. . ... ... : ... .. 8 ... V01 : ... .. 8 ... V01 : ... .. . ... ...
ROW D0 : ... .. D ... ... ... : ... .. 0 ... ... ... : ... .. . ... : ... .. 4 ... : ... .. . ... ... : ... .. . ... ... : ... .. . ... ... : ... .. . ... ...
ROW D1 : ... .. A ... ... ... : B-2 00 4 P80 ... ... : ... .. . ... : ... .. 2 ... : ... .. . ... ... : ... .. . ... ... : ... .. . ... ... : ... .. . ... ...
ROW D2 : ... .. 2 ... ... ... : ... .. 5 ... ... ... : --- .. . ... : ... .. 1 ... : ... .. . ... ... : ... .. . ... ... : ... .. . ... ... : ... .. . ... ...
ROW D3 : E-4 00 F ... ... ... : ... .. A ... ... ... : D-2 00 . ... : ... .. 8 ... : ... .. . ... ... : ... .. . ... ... : ... .. . ... ... : ... .. 0 ... ...
ROW D4 : ... .. E ... ... ... : ... .. 4 ... ... ... : ... .. . ... : ... .. 6 ... : ... .. . ... ... : ... .. . ... ... : ... .. . ... ... : ... .. . ... ...
ROW D5 : ... .. D ... ... ... : ... .. 0 ... ... ... : ... .. . ... : ... .. 3 ... : ... .. . ... ... : ... .. 7 ... ... : ... .. 7 ... ... : ... .. . ... ...
ROW D6 : ... .. A ... ... ... : B-2 00 4 P80 ... ... : ... .. . ... : ... .. 1 ... : ... .. . ... ... : --- .. . P84 ... : --- .. . P85 ... : ... .. . ... ...
ROW D7 : ... .. 2 ... ... ... : ... .. 5 ... ... ... : --- .. . ... : ... .. . ... : ... .. . ... ... : ... .. . ... ... : ... .. . ... ... : ... .. . ... ...
ROW D8 : F-4 00 F ... ... ... : F-3 00 A ... ... ... : A#3 00 . ... : 1-# 00 F ... : ... .. . ... ... : D-2 01 9 P80 V03 : A#2 01 9 P80 V03 : ... .. A ... ...
ROW D9 : ... .. E ... ... ... : ... .. 4 ... ... ... : G-3 00 . P7B : ... .. C ... : ... .. . ... ... : ... .. 8 ... V01 : ... .. 8 ... V01 : ... .. 8 ... ...
ROW DA : ... .. D ... ... ... : ... .. 0 ... ... ... : E-3 00 . P7F : ... .. 6 ... : ... .. . ... ... : ... .. . ... ... : ... .. . ... ... : ... .. 5 ... ...
ROW DB : ... .. A ... ... ... : F-3 00 4 P80 ... ... : D-3 00 . P77 : ... .. 3 ... : ... .. . ... ... : ... .. . ... ... : ... .. . ... ... : ... .. . ... ...
ROW DC : ... .. . ... ... ... : ... .. 5 ... ... ... : C-3 00 . P74 : ... .. 2 ... : ... .. . ... ... : ... .. . ... ... : ... .. . ... ... : ... .. . ... ...
ROW DD : ... .. . ... ... ... : D-3 00 A ... ... ... : A#2 00 . P80 : D-# 00 8 ... : ... .. . ... ... : ... .. . ... ... : ... .. . ... ... : ... .. . ... ...
ROW DE : ... .. . ... ... ... : ... .. 4 ... ... ... : ... .. . ... : ... .. 6 ... : ... .. . ... ... : ... .. . ... ... : ... .. . ... ... : ... .. . ... ...
ROW DF : ... .. . ... ... ... : ... .. 0 ... ... ... : ... .. . ... : ... .. 3 ... : ... .. . ... ... : ... .. 7 ... ... : ... .. 7 ... ... : ... .. . ... ...
ROW E0 : ... .. . ... ... ... : D-3 00 4 P80 ... ... : ... .. . ... : ... .. 1 ... : ... .. . ... ... : ... .. . ... ... : ... .. . ... ... : ... .. . ... ...
ROW E1 : ... .. . ... ... ... : ... .. 5 ... ... ... : ... .. . ... : ... .. . ... : ... .. . ... ... : ... .. . ... ... : ... .. . ... ... : ... .. . ... ...
ROW E2 : ... .. . ... ... ... : A#2 00 A ... ... ... : ... .. . ... : ... .. A ... : ... .. . ... ... : ... .. . ... ... : ... .. . ... ... : ... .. . ... ...
ROW E3 : ... .. . ... ... ... : ... .. 4 ... ... ... : ... .. . ... : ... .. 8 ... : ... .. . ... ... : ... .. 6 ... ... : ... .. 6 ... ... : ... .. . ... ...
ROW E4 : ... .. . ... ... ... : ... .. 0 ... ... ... : ... .. . ... : ... .. 4 ... : ... .. . ... ... : ... .. . ... ... : ... .. . ... ... : ... .. . ... ...
ROW E5 : ... .. . ... ... ... : A#2 00 4 P80 ... ... : ... .. . ... : ... .. 2 ... : ... .. . ... ... : ... .. 5 ... ... : ... .. 5 ... ... : ... .. . ... ...
ROW E6 : ... .. . ... ... ... : ... .. 5 ... ... ... : ... .. . ... : ... .. 1 ... : ... .. . ... ... : ... .. . ... ... : ... .. . ... ... : ... .. . ... ...
ROW E7 : ... .. . ... ... ... : F-2 00 A ... ... ... : ... .. . ... : ... .. 8 ... : ... .. . ... ... : ... .. . ... ... : ... .. . ... ... : ... .. . ... ...
ROW E8 : ... .. 2 ... ... ... : ... .. 4 ... ... ... : ... .. . ... : ... .. 6 ... : ... .. . ... ... : ... .. . ... ... : ... .. . ... ... : ... .. . ... ...
ROW E9 : ... .. . ... ... ... : ... .. 0 ... ... ... : ... .. . ... : ... .. 3 ... : ... .. . ... ... : ... .. 4 ... ... : ... .. 4 ... ... : ... .. . ... ...
ROW EA : ... .. . ... ... ... : F-2 00 4 P80 ... ... : ... .. . ... : ... .. 1 ... : ... .. . ... ... : --- .. . P84 ... : --- .. . P82 ... : --- .. . ... ...
ROW EB : ... .. 1 ... ... ... : ... .. 5 ... ... ... : --- .. . ... : ... .. . ... : ... .. . ... ... : ... .. . ... ... : ... .. . ... ... : ... .. . ... ...
ROW EC : E-4 00 F ... ... ... : E-3 00 A ... ... ... : A#3 00 . ... : 1-# 00 D ... : ... .. . ... ... : E-2 01 9 P80 V03 : C-3 01 9 P80 V03 : C-5 01 A ... ...
ROW ED : ... .. E ... ... ... : ... .. 4 ... ... ... : G-3 00 . P7B : ... .. . ... : ... .. . ... ... : ... .. 8 ... V01 : ... .. 8 ... V01 : ... .. 8 ... ...
ROW EE : ... .. D ... ... ... : ... .. 0 ... ... ... : E-3 00 . P7F : D-# 00 D ... : ... .. . ... ... : ... .. . ... ... : ... .. . ... ... : ... .. 5 ... ...
ROW EF : ... .. A ... ... ... : E-3 00 4 P80 ... ... : D-3 00 . P77 : B-# 00 6 ... : ... .. . ... ... : ... .. . ... ... : ... .. . ... ... : ... .. . ... ...
ROW F0 : ... .. . ... ... ... : ... .. 5 ... ... ... : C-3 00 . P74 : 7-# 00 1 ... : ... .. . ... ... : ... .. . ... ... : ... .. . ... ... : ... .. . ... ...
ROW F1 : ... .. . ... ... ... : C-3 00 A ... ... ... : A-2 00 . P80 : D-# 00 8 ... : ... .. . ... ... : ... .. . ... ... : ... .. . ... ... : ... .. . ... ...
ROW F2 : ... .. . ... ... ... : ... .. 4 ... ... ... : ... .. . ... : ... .. 6 ... : ... .. . ... ... : ... .. . ... ... : ... .. . ... ... : ... .. . ... ...
ROW F3 : ... .. . ... ... ... : ... .. 0 ... ... ... : ... .. . ... : ... .. 3 ... : ... .. . ... ... : ... .. 7 ... ... : ... .. 7 ... ... : ... .. . ... ...
ROW F4 : ... .. . ... ... ... : C-3 00 4 P80 ... ... : ... .. . ... : ... .. 1 ... : ... .. . ... ... : ... .. . ... ... : ... .. . ... ... : ... .. . ... ...
ROW F5 : ... .. . ... ... ... : ... .. 5 ... ... ... : ... .. . ... : ... .. . ... : ... .. . ... ... : ... .. . ... ... : ... .. . ... ... : ... .. . ... ...
ROW F6 : ... .. . ... ... ... : A-2 00 A ... ... ... : ... .. . ... : ... .. A ... : ... .. . ... ... : ... .. . ... ... : ... .. . ... ... : ... .. . ... ...
ROW F7 : ... .. . ... ... ... : ... .. 4 ... ... ... : ... .. . ... : ... .. 8 ... : ... .. . ... ... : ... .. 6 ... ... : ... .. 6 ... ... : ... .. . ... ...
ROW F8 : ... .. . ... ... ... : ... .. 0 ... ... ... : ... .. . ... : ... .. 4 ... : ... .. . ... ... : ... .. . ... ... : ... .. . ... ... : ... .. . ... ...
ROW F9 : ... .. . ... ... ... : A-2 00 4 P80 ... ... : ... .. . ... : ... .. 2 ... : ... .. . ... ... : ... .. 5 ... ... : ... .. 5 ... ... : ... .. . ... ...
ROW FA : ... .. . ... ... ... : ... .. 5 ... ... ... : ... .. . ... : ... .. 1 ... : ... .. . ... ... : ... .. . ... ... : ... .. . ... ... : ... .. . ... ...
ROW FB : ... .. . ... ... ... : E-2 00 A ... ... ... : ... .. . ... : ... .. 8 ... : ... .. . ... ... : ... .. . ... ... : ... .. . ... ... : ... .. . ... ...
ROW FC : ... .. 2 ... ... ... : ... .. 4 ... ... ... : ... .. . ... : ... .. 6 ... : ... .. . ... ... : ... .. . ... ... : ... .. . ... ... : ... .. . ... ...
ROW FD : ... .. . ... ... ... : ... .. 0 ... ... ... : ... .. . ... : ... .. 3 ... : ... .. . ... ... : ... .. 4 ... ... : ... .. 4 ... ... : ... .. . ... ...
ROW FE : ... .. . ... ... ... : E-2 00 4 P80 ... ... : ... .. . ... : ... .. 1 ... : ... .. . ... ... : --- .. . P83 ... : --- .. . P7E ... : --- .. . ... ...
ROW FF : ... .. 1 ... ... ... : ... .. 5 ... ... ... : --- .. . ... : ... .. . ... : ... .. . ... ... : ... .. . ... ... : ... .. . ... ... : ... .. . ... ...

PATTERN 0A
ROW 00 : C-4 00 F ... ... ... : G-3 00 A ... ... ... : A-3 00 . ... : 9-# 00 D ... : ... .. . ... ... : C-2 01 9 P80 V03 : G-2 01 9 P80 V03 : A-4 01 A ... ...
ROW 01 : ... .. E ... ... ... : ... .. 4 ... ... ... : ... .. . ... : ... .. . ... : ... .. . ... ... : ... .. 8 ... V01 : ... .. 8 ... V01 : ... .. 8 ... ...
ROW 02 : ... .. D ... ... ... : ... .. 0 ... ... ... : ... .. . ... : 5-# 00 D ... : ... .. . ... ... : ... .. . ... ... : ... .. . ... ... : ... .. 5 ... ...
ROW 03 : ... .. A ... ... ... : G-3 00 4 P80 ... ... : ... .. . ... : 3-# 00 6 ... : ... .. . ... ... : ... .. . ... ... : ... .. . ... ... : ... .. . ... ...
ROW 04 : ... .. . ... ... ... : ... .. 5 ... ... ... : ... .. . ... : F-# 00 1 ... : ... .. . ... ... : ... .. . ... ... : ... .. . ... ... : ... .. . ... ...
ROW 05 : ... .. . ... ... ... : E-3 00 A ... ... ... : ... .. . ... : 9-# 00 D ... : ... .. . ... ... : ... .. . ... ... : C-3 01 9 ... V03 : ... .. . ... ...
ROW 06 : ... .. 2 ... ... ... : ... .. 4 ... ... ... : ... .. . ... : ... .. . ... : ... .. . ... ... : ... .. . ... ... : ... .. 8 ... V01 : ... .. 2 ... ...
ROW 07 : ... .. . ... ... ... : ... .. 0 ... ... ... : ... .. . ... : 5-# 00 D ... : ... .. . ... ... : ... .. 7 ... ... : ... .. . ... ... : ... .. . ... ...
ROW 08 : ... .. . ... ... ... : E-3 00 4 P80 ... ... : ... .. . ... : 3-# 00 6 ... : ... .. . ... ... : --- .. . P7E ... : --- .. . P7E ... : ... .. 1 ... ...
ROW 09 : ... .. 1 ... ... ... : ... .. 5 ... ... ... : --- .. . ... : F-# 00 1 ... : ... .. . ... ... : ... .. . ... ... : ... .. . ... ... : ... .. . ... ...
ROW 0A : ... .. F ... ... ... : C-3 00 A ... ... ... : A-3 00 . ... : 4-# 00 D ... : ... .. . ... ... : C-2 01 9 P80 V03 : E-3 01 9 P80 V03 : ... .. A ... ...
ROW 0B : ... .. E ... ... ... : ... .. 4 ... ... ... : ... .. . ... : ... .. . ... : ... .. . ... ... : ... .. 8 ... V01 : ... .. 8 ... V01 : ... .. 8 ... ...
ROW 0C : ... .. D ... ... ... : ... .. 0 ... ... ... : ... .. . ... : 0-# 00 D ... : ... .. . ... ... : ... .. . ... ... : ... .. . ... ... : ... .. 5 ... ...
ROW 0D : ... .. A ... ... ... : C-3 00 4 P80 ... ... : ... .. . ... : E-# 00 6 ... : ... .. . ... ... : --- .. . P7E ... : --- .. . P82 ... : ... .. . ... ...
ROW 0E : ... .. 2 ... ... ... : ... .. 5 ... ... ... : --- .. . ... : A-# 00 1 ... : ... .. . ... ... : ... .. . ... ... : ... .. . ... ... : ... .. 2 ... ...
ROW 0F : D-4 00 F ... ... ... : A-2 00 A ... ... ... : A-3 00 . ... : 4-# 00 D ... : ... .. . ... ... : D-2 01 9 P80 V03 : G-3 01 9 P80 V03 : A#4 01 A ... ...
ROW 10 : ... .. E ... ... ... : ... .. 4 ... ... ... : ... .. . ... : ... .. . ... : ... .. . ... ... : ... .. 8 ... V01 : ... .. 8 ... V01 : ... .. 8 ... ...
ROW 11 : ... .. D ... ... ... : ... .. 0 ... ... ... : ... .. . ... : 0-# 00 D ... : ... .. . ... ... : ... .. . ... ... : ... .. . ... ... : ... .. 5 ... ...
ROW 12 : ... .. A ... ... ... : A-2 00 4 P80 ... ... : ... .. . ... : E-# 00 6 ... : ... .. . ... ... : --- .. . P84 ... : --- .. . P81 ... : ... .. . ... ...
ROW 13 : ... .. 2 ... ... ... : ... .. 5 ... ... ... : --- .. . ... : A-# 00 1 ... : ... .. . ... ... : ... .. . ... ... : ... .. . ... ... : ... .. 2 ... ...
ROW 14 : E-4 00 F ... ... ... : G-3 00 A ... ... ... : F-3 00 . ... : 6-# 00 D ... : ... .. . ... ... : E-2 01 9 P80 V03 : C-4 01 9 P80 V03 : C-5 01 A ... ...
ROW 15 : ... .. E ... ... ... : ... .. 4 ... ... ... : ... .. . ... : ... .. . ... : ... .. . ... ... : ... .. 8 ... V01 : ... .. 8 ... V01 : ... .. 8 ... ...
ROW 16 : ... .. D ... ... ... : ... .. 0 ... ... ... : ... .. . ... : 2-# 00 D ... : ... .. . ... ... : ... .. . ... ... : ... .. . ... ... : ... .. 5 ... ...
ROW 17 : ... .. A ... ... ... : G-3 00 4 P80 ... ... : ... .. . ... : 0-# 00 6 ... : ... .. . ... ... : ... .. . ... ... : ... .. . ... ... : ... .. . ... ...
ROW 18 : ... .. . ... ... ... : ... .. 5 ... ... ... : ... .. . ... : C-# 00 1 ... : ... .. . ... ... : ... .. . ... ... : ... .. . ... ... : ... .. . ... ...
ROW 19 : ... .. . ... ... ... : A-3 00 A ... ... ... : ... .. . ... : 6-# 00 D ... : ... .. . ... ... : ... .. . ... ... : D-4 01 9 ... V03 : ... .. . ... ...
ROW 1A : ... .. 2 ... ... ... : ... .. 4 ... ... ... : ... .. . ... : ... .. . ... : ... .. . ... ... : ... .. . ... ... : ... .. 8 ... V01 : ... .. 2 ... ...
ROW 1B : ... .. . ... ... ... : ... .. 0 ... ... ... : ... .. . ... : 2-# 00 D ... : ... .. . ... ... : ... .. 7 ... ... : ... .. . ... ... : ... .. . ... ...
ROW 1C : ... .. . ... ... ... : A-3 00 4 P80 ... ... : ... .. . ... : 0-# 00 6 ... : ... .. . ... ... : --- .. . P83 ... : --- .. . ... ... : ... .. 1 ... ...
ROW 1D : ... .. 1 ... ... ... : ... .. 5 ... ... ... : --- .. . ... : C-# 00 1 ... : ... .. . ... ... : ... .. . ... ... : ... .. . ... ... : ... .. . ... ...
ROW 1E : C-4 00 F ... ... ... : A#3 00 A ... ... ... : G-3 00 . ... : 1-# 00 D ... : ... .. . ... ... : C-2 01 9 P80 V03 : G-4 01 9 ... V03 : A-4 01 A ... ...
ROW 1F : ... .. E ... ... ... : ... .. 4 ... ... ... : ... .. . ... : ... .. . ... : ... .. . ... ... : ... .. 8 ... V01 : ... .. 8 ... V01 : ... .. 8 ... ...
ROW 20 : ... .. D ... ... ... : ... .. 0 ... ... ... : ... .. . ... : D-# 00 D ... : ... .. . ... ... : ... .. . ... ... : ... .. . ... ... : ... .. 5 ... ...
ROW 21 : ... .. A ... ... ... : A#3 00 4 P80 ... ... : ... .. . ... : B-# 00 6 ... : ... .. . ... ... : ... .. . ... ... : ... .. . ... ... : ... .. . ... ...
ROW 22 : ... .. . ... ... ... : ... .. 5 ... ... ... : ... .. . ... : 7-# 00 1 ... : ... .. . ... ... : ... .. . ... ... : ... .. . ... ... : ... .. . ... ...
ROW 23 : ... .. . ... ... ... : G-3 00 A ... ... ... : ... .. . ... : 1-# 00 D ... : ... .. . ... ... : ... .. . ... ... : A-4 01 9 ... V03 : ... .. . ... ...
ROW 24 : ... .. 2 ... ... ... : ... .. 4 ... ... ... : ... .. . ... : ... .. . ... : ... .. . ... ... : ... .. . ... ... : ... .. 8 ... V01 : ... .. 2 ... ...
ROW 25 : ... .. . ... ... ... : ... .. 0 ... ... ... : ... .. . ... : D-# 00 D ... : ... .. . ... ... : ... .. 7 ... ... : ... .. . ... ... : ... .. . ... ...
ROW 26 : ... .. . ... ... ... : G-3 00 4 P80 ... ... : ... .. . ... : B-# 00 6 ... : ... .. . ... ... : --- .. . P7E ... : --- .. . ... ... : ... .. 1 ... ...
ROW 27 : ... .. 1 ... ... ... : ... .. 5 ... ... ... : --- .. . ... : 7-# 00 1 ... : ... .. . ... ... : ... .. . ... ... : ... .. . ... ... : ... .. . ... ...
ROW 28 : D-4 00 F ... ... ... : D-3 00 A ... ... ... : A#3 00 . ... : 1-# 00 F ... : ... .. . ... ... : A#2 01 9 P80 V03 : A#4 01 9 ... V03 : A#4 01 A ... ...
ROW 29 : ... .. E ... ... ... : ... .. 4 ... ... ... : G-3 00 . P7B : ... .. C ... : ... .. . ... ... : ... .. 8 ... V01 : ... .. 8 ... V01 : ... .. 8 ... ...
ROW 2A : ... .. D ... ... ... : ... .. 0 ... ... ... : E-3 00 . P7F : ... .. 6 ... : ... .. . ... ... : ... .. . ... ... : ... .. . ... ... : ... .. 5 ... ...
ROW 2B : ... .. A ... ... ... : D-3 00 4 P80 ... ... : D-3 00 . P77 : ... .. 3 ... : ... .. . ... ... : ... .. . ... ... : ... .. . ... ... : ... .. . ... ...
ROW 2C : ... .. . ... ... ... : ... .. 5 ... ... ... : C-3 00 . P74 : ... .. 2 ... : ... .. . ... ... : ... .. . ... ... : ... .. . ... ... : ... .. . ... ...
ROW 2D : ... .. . ... ... ... : A#2 00 A ... ... ... : A#2 00 . P76 : D-# 00 8 ... : ... .. . ... ... : ... .. . ... ... : ... .. . ... ... : ... .. . ... ...
ROW 2E : ... .. . ... ... ... : ... .. 4 ... ... ... : G#2 00 . P7F : ... .. 6 ... : ... .. . ... ... : ... .. . ... ... : ... .. . ... ... : ... .. . ... ...
ROW 2F : ... .. . ... ... ... : ... .. 0 ... ... ... : F#2 00 . P8F : ... .. 3 ... : ... .. . ... ... : ... .. 7 ... ... : ... .. 7 ... ... : ... .. . ... ...
ROW 30 : ... .. . ... ... ... : A#2 00 4 P80 ... ... : F-2 00 . P81 : ... .. 1 ... : ... .. . ... ... : --- .. . P82 ... : --- .. . ... ... : ... .. . ... ...
ROW 31 : ... .. . ... ... ... : ... .. 5 ... ... ... : --- .. . ... : ... .. . ... : ... .. . ... ... : ... .. . ... ... : ... .. . ... ... : ... .. . ... ...
ROW 32 : ... .. . ... ... ... : G-2 00 A ... ... ... : G-2 00 . P80 : ... .. A ... : ... .. . ... ... : D-2 01 9 P80 V03 : A#2 01 9 ... V03 : ... .. . ... ...
ROW 33 : ... .. . ... ... ... : ... .. 4 ... ... ... : ... .. . ... : ... .. 8 ... : ... .. . ... ... : ... .. 8 ... V01 : ... .. 8 ... V01 : ... .. . ... ...
ROW 34 : ... .. . ... ... ... : ... .. 0 ... ... ... : ... .. . ... : ... .. 4 ... : ... .. . ... ... : ... .. . ... ... : ... .. . ... ... : ... .. . ... ...
ROW 35 : ... .. . ... ... ... : G-2 00 4 P80 ... ... : ... .. . ... : ... .. 2 ... : ... .. . ... ... : --- .. . P84 ... : --- .. . P82 ... : ... .. . ... ...
ROW 36 : ... .. . ... ... ... : ... .. 5 ... ... ... : --- .. . ... : ... .. 1 ... : ... .. . ... ... : ... .. . ... ... : ... .. . ... ... : ... .. . ... ...
ROW 37 : ... .. . ... ... ... : D-2 00 A ... ... ... : G-2 00 . ... : ... .. 8 ... : ... .. . ... ... : D-2 01 9 P80 V03 : A#2 01 9 P80 V03 : ... .. . ... ...
ROW 38 : ... .. . ... ... ... : ... .. 4 ... ... ... : ... .. . ... : ... .. 6 ... : ... .. . ... ... : ... .. 8 ... V01 : ... .. 8 ... V01 : ... .. . ... ...
ROW 39 : ... .. . ... ... ... : ... .. 0 ... ... ... : ... .. . ... : ... .. 3 ... : ... .. . ... ... : ... .. . ... ... : ... .. . ... ... : ... .. . ... ...
ROW 3A : ... .. . ... ... ... : D-2 00 4 P80 ... ... : ... .. . ... : ... .. 1 ... : ... .. . ... ... : --- .. . P84 ... : --- .. . P82 ... : ... .. . ... ...
ROW 3B : ... .. . ... ... ... : ... .. 5 ... ... ... : --- .. . ... : ... .. . ... : ... .. . ... ... : ... .. . ... ... : ... .. . ... ... : ... .. . ... ...
ROW 3C : ... .. . ... ... ... : G-3 00 A ... ... ... : G-2 00 . ... : 1-# 00 D ... : ... .. . ... ... : D-2 01 9 P80 V03 : A#2 01 9 P80 V03 : ... .. . ... ...
ROW 3D : ... .. . ... ... ... : ... .. 4 ... ... ... : ... .. . ... : ... .. . ... : ... .. . ... ... : ... .. 8 ... V01 : ... .. 8 ... V01 : ... .. . ... ...
ROW 3E : ... .. . ... ... ... : ... .. 0 ... ... ... : ... .. . ... : D-# 00 D ... : ... .. . ... ... : ... .. . ... ... : ... .. . ... ... : ... .. . ... ...
ROW 3F : C#4 00 A P7C ... ... : G-3 00 4 P80 ... ... : ... .. . ... : B-# 00 6 ... : ... .. . ... ... : --- .. . P84 ... : --- .. . P82 ... : G#4 01 5 P81 ...
ROW 40 : B-3 00 A P84 ... ... : ... .. 5 ... ... ... : ... .. . ... : 7-# 00 1 ... : ... .. . ... ... : ... .. . ... ... : ... .. . ... ... : F#4 01 5 P84 ...
ROW 41 : A#3 00 A P82 ... ... : D-3 00 A ... ... ... : ... .. . ... : D-# 00 8 ... : ... .. . ... ... : D-2 01 9 P80 V03 : A#2 01 9 P80 V03 : F-4 01 5 P7E ...
ROW 42 : A-3 00 2 P80 ... ... : ... .. 4 ... ... ... : ... .. . ... : ... .. 6 ... : ... .. . ... ... : ... .. 8 ... V01 : ... .. 8 ... V01 : D#4 01 2 P84 ...
ROW 43 : G#3 00 2 P7F ... ... : ... .. 0 ... ... ... : ... .. . ... : ... .. 3 ... : ... .. . ... ... : ... .. . ... ... : ... .. . ... ... : D-4 01 2 P81 ...
ROW 44 : G-3 00 2 ... ... ... : D-3 00 4 P80 ... ... : ... .. . ... : ... .. 1 ... : ... .. . ... ... : --- .. . P84 ... : --- .. . P82 ... : C#4 01 1 P7E ...
ROW 45 : F#3 00 1 P80 ... ... : ... .. 5 ... ... ... : --- .. . ... : ... .. . ... : ... .. . ... ... : ... .. . ... ... : ... .. . ... ... : C-4 01 1 P7B ...
ROW 46 : G-3 00 F ... ... ... : A#2 00 A ... ... ... : G-2 00 . ... : ... .. A ... : ... .. . ... ... : A#2 01 9 P80 V03 : A-4 01 9 P80 V03 : D-4 01 A P80 ...
ROW 47 : ... .. E ... ... ... : ... .. 4 ... ... ... : ... .. . ... : ... .. 8 ... : ... .. . ... ... : ... .. 8 ... V01 : ... .. 8 ... V01 : ... .. 8 ... ...
ROW 48 : ... .. D ... ... ... : ... .. 0 ... ... ... : ... .. . ... : ... .. 4 ... : ... .. . ... ... : ... .. . ... ... : ... .. . ... ... : ... .. 5 ... ...
ROW 49 : ... .. A ... ... ... : A#2 00 4 P80 ... ... : ... .. . ... : ... .. 2 ... : ... .. . ... ... : ... .. . ... ... : ... .. . ... ... : ... .. . ... ...
ROW 4A : ... .. . ... ... ... : ... .. 5 ... ... ... : --- .. . ... : ... .. 1 ... : ... .. . ... ... : ... .. . ... ... : ... .. . ... ... : ... .. . ... ...
ROW 4B : ... .. . ... ... ... : G-2 00 A ... ... ... : G-2 00 . ... : ... .. 8 ... : ... .. . ... ... : ... .. . ... ... : ... .. . ... ... : ... .. . ... ...
ROW 4C : ... .. 2 ... ... ... : ... .. 4 ... ... ... : ... .. . ... : ... .. 6 ... : ... .. . ... ... : ... .. . ... ... : ... .. . ... ... : ... .. 2 ... ...
ROW 4D : ... .. . ... ... ... : ... .. 0 ... ... ... : ... .. . ... : ... .. 3 ... : ... .. . ... ... : ... .. 7 ... ... : ... .. 7 ... ... : ... .. . ... ...
ROW 4E : ... .. . ... ... ... : G-2 00 4 P80 ... ... : ... .. . ... : ... .. 1 ... : ... .. . ... ... : --- .. . P82 ... : --- .. . ... ... : ... .. 1 ... ...
ROW 4F : ... .. 1 ... ... ... : ... .. 5 ... ... ... : --- .. . ... : ... .. . ... : ... .. . ... ... : ... .. . ... ... : ... .. . ... ... : ... .. . ... ...
ROW 50 : ... .. F ... ... ... : A#3 00 A ... ... ... : A#3 00 . ... : 1-# 00 F ... : ... .. . ... ... : D-2 01 9 P80 V03 : A#2 01 9 ... V03 : ... .. A ... ...
ROW 51 : ... .. E ... ... ... : ... .. 4 ... ... ... : G-3 00 . P7B : ... .. C ... : ... .. . ... ... : ... .. 8 ... V01 : ... .. 8 ... V01 : ... .. 8 ... ...
ROW 52 : ... .. D ... ... ... : ... .. 0 ... ... ... : E-3 00 . P7F : ... .. 6 ... : ... .. . ... ... : ... .. . ... ... : ... .. . ... ... : ... .. 5 ... ...
ROW 53 : ... .. A ... ... ... : A#3 00 4 P80 ... ... : D-3 00 . P77 : ... .. 3 ... : ... .. . ... ... : --- .. . P84 ... : --- .. . P82 ... : ... .. . ... ...
ROW 54 : ... .. . ... ... ... : ... .. 5 ... ... ... : C-3 00 . P74 : ... .. 2 ... : ... .. . ... ... : ... .. . ... ... : ... .. . ... ... : ... .. . ... ...
ROW 55 : ... .. . ... ... ... : G-3 00 A ... ... ... : A#2 00 . P76 : D-# 00 8 ... : ... .. . ... ... : D-2 01 9 P80 V03 : A#2 01 9 P80 V03 : ... .. . ... ...
ROW 56 : ... .. . ... ... ... : ... .. 4 ... ... ... : G#2 00 . P7F : ... .. 6 ... : ... .. . ... ... : ... .. 8 ... V01 : ... .. 8 ... V01 : ... .. . ... ...
ROW 57 : ... .. . ... ... ... : ... .. 0 ... ... ... : F#2 00 . P8F : ... .. 3 ... : ... .. . ... ... : ... .. . ... ... : ... .. . ... ... : ... .. . ... ...
ROW 58 : ... .. . ... ... ... : G-3 00 4 P80 ... ... : F-2 00 . P81 : ... .. 1 ... : ... .. . ... ... : --- .. . P84 ... : --- .. . P82 ... : ... .. . ... ...
ROW 59 : ... .. . ... ... ... : ... .. 5 ... ... ... : E-2 00 . P75 : ... .. . ... : ... .. . ... ... : ... .. . ... ... : ... .. . ... ... : ... .. . ... ...
ROW 5A : ... .. . ... ... ... : D-3 00 A ... ... ... : A#3 00 . P80 : ... .. A ... : ... .. . ... ... : D-2 01 9 P80 V03 : A#2 01 9 P80 V03 : ... .. . ... ...
ROW 5B : ... .. . ... ... ... : ... .. 4 ... ... ... : G-3 00 . P7B : ... .. 8 ... : ... .. . ... ... : ... .. 8 ... V01 : ... .. 8 ... V01 : ... .. . ... ...
ROW 5C : ... .. . ... ... ... : ... .. 0 ... ... ... : E-3 00 . P7F : ... .. 4 ... : ... .. . ... ... : ... .. . ... ... : ... .. . ... ... : ... .. . ... ...
ROW 5D : ... .. . ... ... ... : D-3 00 4 P80 ... ... : D-3 00 . P77 : ... .. 2 ... : ... .. . ... ... : --- .. . P84 ... : --- .. . P82 ... : ... .. . ... ...
ROW 5E : ... .. . ... ... ... : ... .. 5 ... ... ... : C-3 00 . P74 : ... .. 1 ... : ... .. . ... ... : ... .. . ... ... : ... .. . ... ... : ... .. . ... ...
ROW 5F : ... .. . ... ... ... : A#2 00 A ... ... ... : A#2 00 . P76 : ... .. 8 ... : ... .. . ... ... : D-2 01 9 P80 V03 : A#2 01 9 P80 V03 : ... .. . ... ...
ROW 60 : ... .. . ... ... ... : ... .. 4 ... ... ... : G#2 00 . P7F : ... .. 6 ... : ... .. . ... ... : ... .. 8 ... V01 : ... .. 8 ... V01 : ... .. . ... ...
ROW 61 : ... .. . ... ... ... : ... .. 0 ... ... ... : F#2 00 . P8F : ... .. 3 ... : ... .. . ... ... : ... .. . ... ... : ... .. . ... ... : ... .. . ... ...
ROW 62 : ... .. . ... ... ... : A#2 00 4 P80 ... ... : F-2 00 . P81 : ... .. 1 ... : ... .. . ... ... : --- .. . P84 ... : --- .. . P82 ... : ... .. . ... ...
ROW 63 : ... .. . ... ... ... : ... .. 5 ... ... ... : E-2 00 . P75 : ... .. . ... : ... .. . ... ... : ... .. . ... ... : ... .. . ... ... : ... .. . ... ...
ROW 64 : ... .. . P84 ... ... : D-4 00 A ... ... ... : G-2 00 . P80 : 1-# 00 D ... : ... .. . ... ... : A#2 01 9 P80 V03 : G-4 01 9 P80 V03 : ... .. . ... ...
ROW 65 : ... .. . P86 ... ... : ... .. 4 ... ... ... : ... .. . ... : ... .. . ... : ... .. . ... ... : ... .. 8 ... V01 : ... .. 8 ... V01 : ... .. . ... ...
ROW 66 : ... .. . P85 ... ... : ... .. 0 ... ... ... : ... .. . ... : D-# 00 D ... : ... .. . ... ... : ... .. . ... ... : ... .. . ... ... : ... .. . ... ...
ROW 67 : ... .. . P82 ... ... : D-4 00 4 P80 ... ... : ... .. . ... : B-# 00 6 ... : ... .. . ... ... : ... .. . ... ... : ... .. . ... ... : ... .. . ... ...
ROW 68 : ... .. . P7E ... ... : ... .. 5 ... ... ... : --- .. . ... : 7-# 00 1 ... : ... .. . ... ... : ... .. . ... ... : ... .. . ... ... : ... .. . ... ...
ROW 69 : ... .. . P7B ... ... : A#3 00 A ... ... ... : G-2 00 . ... : D-# 00 8 ... : ... .. . ... ... : ... .. . ... ... : ... .. . ... ... : ... .. . ... ...
ROW 6A : ... .. . P7A ... ... : ... .. 4 ... ... ... : ... .. . ... : ... .. 6 ... : ... .. . ... ... : ... .. . ... ... : ... .. . ... ... : ... .. . ... ...
ROW 6B : ... .. . P7C ... ... : ... .. 0 ... ... ... : ... .. . ... : ... .. 3 ... : ... .. . ... ... : ... .. 7 ... ... : ... .. 7 ... ... : ... .. . ... ...
ROW 6C : ... .. . P80 ... ... : A#3 00 4 P80 ... ... : ... .. . ... : ... .. 1 ... : ... .. . ... ... : --- .. . P82 ... : --- .. . ... ... : ... .. . ... ...
ROW 6D : ... .. . P83 ... ... : ... .. 5 ... ... ... : --- .. . ... : ... .. . ... : ... .. . ... ... : ... .. . ... ... : ... .. . ... ... : ... .. . ... ...
ROW 6E : ... .. . P86 ... ... : G-3 00 A ... ... ... : G-2 00 . ... : ... .. A ... : ... .. . ... ... : D-2 01 9 P80 V03 : A-2 01 9 ... V03 : ... .. . ... ...
ROW 6F : ... .. 2 ... ... ... : ... .. 4 ... ... ... : ... .. . ... : ... .. 8 ... : ... .. . ... ... : ... .. 8 ... V01 : ... .. 8 ... V01 : ... .. 2 ... ...
ROW 70 : ... .. . P82 ... ... : ... .. 0 ... ... ... : ... .. . ... : ... .. 4 ... : ... .. . ... ... : ... .. . ... ... : ... .. . ... ... : ... .. . ... ...
ROW 71 : ... .. . P7F ... ... : G-3 00 4 P80 ... ... : ... .. . ... : ... .. 2 ... : ... .. . ... ... : --- .. . P84 ... : --- .. . P82 ... : ... .. 1 ... ...
ROW 72 : ... .. 1 P7B ... ... : ... .. 5 ... ... ... : --- .. . ... : ... .. 1 ... : ... .. . ... ... : ... .. . ... ... : ... .. . ... ... : ... .. . ... ...
ROW 73 : ... .. . P7A ... ... : D-3 00 A ... ... ... : G-2 00 . ... : ... .. 8 ... : ... .. . ... ... : D-2 01 9 P80 V03 : A-2 01 9 P80 V03 : ... .. . ... ...
ROW 74 : ... .. . P7C ... ... : ... .. 4 ... ... ... : ... .. . ... : ... .. 6 ... : ... .. . ... ... : ... .. 8 ... V01 : ... .. 8 ... V01 : ... .. . ... ...
ROW 75 : ... .. 0 ... ... ... : ... .. 0 ... ... ... : ... .. . ... : ... .. 3 ... : ... .. . ... ... : ... .. . ... ... : ... .. . ... ... : ... .. . ... ...
ROW 76 : ... .. . ... ... ... : D-3 00 4 P80 ... ... : ... .. . ... : ... .. 1 ... : ... .. . ... ... : --- .. . P84 ... : --- .. . P82 ... : ... .. . ... ...
ROW 77 : ... .. . ... ... ... : ... .. 5 ... ... ... : --- .. . ... : ... .. . ... : ... .. . ... ... : ... .. . ... ... : ... .. . ... ... : ... .. . ... ...
ROW 78 : A-4 00 F P80 ... ... : C-4 00 F ... ... ... : D#3 00 . ... : 1-# 00 F ... : ... .. . ... ... : G-2 01 9 P80 V03 : F-3 01 9 P80 V03 : D#3 01 A ... ...
ROW 79 : ... .. E ... ... ... : ... .. E ... ... ... : ... .. . ... : ... .. C ... : ... .. . ... ... : ... .. 8 ... V01 : ... .. 8 ... V01 : ... .. 8 ... ...
ROW 7A : ... .. D ... ... ... : ... .. D ... ... ... : ... .. . ... : ... .. 6 ... : ... .. . ... ... : ... .. . ... ... : ... .. . ... ... : ... .. 5 ... ...
ROW 7B : ... .. A ... ... ... : ... .. A ... ... ... : ... .. . ... : ... .. 3 ... : ... .. . ... ... : ... .. . ... ... : ... .. . ... ... : ... .. . ... ...
ROW 7C : ... .. . ... ... ... : ... .. . ... ... ... : ... .. . ... : ... .. 2 ... : ... .. . ... ... : ... .. . ... ... : ... .. . ... ... : ... .. . ... ...
ROW 7D : ... .. . ... ... ... : ... .. . ... ... ... : ... .. . ... : D-# 00 8 ... : ... .. . ... ... : ... .. . ... ... : ... .. . ... ... : D#2 01 A ... ...
ROW 7E : ... .. . ... ... ... : ... .. . ... ... ... : ... .. . ... : ... .. 6 ... : ... .. . ... ... : ... .. . ... ... : ... .. . ... ... : ... .. 8 ... ...
ROW 7F : ... .. . ... ... ... : ... .. . ... ... ... : ... .. . ... : ... .. 3 ... : ... .. . ... ... : ... .. 7 ... ... : ... .. 7 ... ... : ... .. 5 ... ...
ROW 80 : ... .. . ... ... ... : ... .. . ... ... ... : ... .. . ... : ... .. 1 ... : ... .. . ... ... : ... .. . ... ... : ... .. . ... ... : ... .. . ... ...
ROW 81 : ... .. 2 ... ... ... : ... .. 2 ... ... ... : ... .. . ... : ... .. . ... : ... .. . ... ... : ... .. . ... ... : ... .. . ... ... : ... .. . ... ...
ROW 82 : ... .. 8 ... ... ... : ... .. 8 ... ... ... : ... .. . ... : ... .. A ... : ... .. . ... ... : ... .. . ... ... : ... .. . ... ... : ... .. A ... ...
ROW 83 : ... .. 7 ... ... ... : ... .. 7 ... ... ... : ... .. . ... : ... .. 8 ... : ... .. . ... ... : ... .. 6 ... ... : ... .. 6 ... ... : ... .. 8 ... ...
ROW 84 : ... .. 6 ... ... ... : ... .. 6 ... ... ... : ... .. . ... : ... .. 4 ... : ... .. . ... ... : ... .. . ... ... : ... .. . ... ... : ... .. 5 ... ...
ROW 85 : ... .. 5 ... ... ... : ... .. 5 ... ... ... : ... .. . ... : ... .. 2 ... : ... .. . ... ... : ... .. 5 ... ... : ... .. 5 ... ... : ... .. . ... ...
ROW 86 : ... .. . ... ... ... : ... .. . ... ... ... : --- .. . ... : ... .. 1 ... : ... .. . ... ... : ... .. . ... ... : ... .. . ... ... : ... .. . ... ...
ROW 87 : A#4 00 F ... ... ... : D-4 00 F ... ... ... : F-3 00 . ... : 1-# 00 F ... : ... .. . ... ... : A-2 01 9 ... V03 : G-3 01 9 ... V03 : F-3 01 A ... ...
ROW 88 : ... .. E ... ... ... : ... .. E ... ... ... : ... .. . ... : ... .. C ... : ... .. . ... ... : ... .. 8 ... V01 : ... .. 8 ... V01 : ... .. 8 ... ...
ROW 89 : ... .. D ... ... ... : ... .. D ... ... ... : ... .. . ... : ... .. 6 ... : ... .. . ... ... : ... .. . ... ... : ... .. . ... ... : ... .. 5 ... ...
ROW 8A : ... .. A ... ... ... : ... .. A ... ... ... : ... .. . ... : ... .. 3 ... : ... .. . ... ... : ... .. . ... ... : ... .. . ... ... : ... .. . ... ...
ROW 8B : ... .. . ... ... ... : ... .. . ... ... ... : ... .. . ... : ... .. 2 ... : ... .. . ... ... : ... .. . ... ... : ... .. . ... ... : ... .. . ... ...
ROW 8C : ... .. . ... ... ... : ... .. . ... ... ... : ... .. . ... : D-# 00 8 ... : ... .. . ... ... : ... .. . ... ... : ... .. . ... ... : D#2 01 A ... ...
ROW 8D : ... .. . ... ... ... : ... .. . ... ... ... : ... .. . ... : ... .. 6 ... : ... .. . ... ... : ... .. . ... ... : ... .. . ... ... : ... .. 8 ... ...
ROW 8E : ... .. . ... ... ... : ... .. . ... ... ... : ... .. . ... : ... .. 3 ... : ... .. . ... ... : ... .. 7 ... ... : ... .. 7 ... ... : ... .. 5 ... ...
ROW 8F : ... .. . ... ... ... : ... .. . ... ... ... : ... .. . ... : ... .. 1 ... : ... .. . ... ... : ... .. . ... ... : ... .. . ... ... : ... .. . ... ...
ROW 90 : ... .. 2 ... ... ... : ... .. 2 ... ... ... : ... .. . ... : ... .. . ... : ... .. . ... ... : ... .. . ... ... : ... .. . ... ... : ... .. . ... ...
ROW 91 : ... .. 8 ... ... ... : ... .. 8 ... ... ... : ... .. . ... : ... .. A ... : ... .. . ... ... : ... .. . ... ... : ... .. . ... ... : ... .. A ... ...
ROW 92 : ... .. 7 ... ... ... : ... .. 7 ... ... ... : ... .. . ... : ... .. 8 ... : ... .. . ... ... : ... .. 6 ... ... : ... .. 6 ... ... : ... .. 8 ... ...
ROW 93 : ... .. 6 ... ... ... : ... .. 6 ... ... ... : ... .. . ... : ... .. 4 ... : ... .. . ... ... : ... .. . ... ... : ... .. . ... ... : ... .. 5 ... ...
ROW 94 : ... .. 5 ... ... ... : ... .. 5 ... ... ... : ... .. . ... : ... .. 2 ... : ... .. . ... ... : ... .. 5 ... ... : ... .. 5 ... ... : ... .. . ... ...
ROW 95 : ... .. . ... ... ... : ... .. . ... ... ... : --- .. . ... : ... .. 1 ... : ... .. . ... ... : ... .. . ... ... : ... .. . ... ... : ... .. . ... ...
ROW 96 : A-4 00 F ... ... ... : C-4 00 F ... ... ... : G-3 00 . ... : 1-# 00 F ... : ... .. . ... ... : G-2 01 9 ... V03 : F-3 01 9 ... V03 : G-3 01 A ... ...
ROW 97 : ... .. E ... ... ... : ... .. E ... ... ... : ... .. . ... : ... .. C ... : ... .. . ... ... : ... .. 8 ... V01 : ... .. 8 ... V01 : ... .. 8 ... ...
ROW 98 : ... .. D ... ... ... : ... .. D ... ... ... : ... .. . ... : ... .. 6 ... : ... .. . ... ... : ... .. . ... ... : ... .. . ... ... : ... .. 5 ... ...
ROW 99 : ... .. A ... ... ... : ... .. A ... ... ... : ... .. . ... : ... .. 3 ... : ... .. . ... ... : ... .. . ... ... : ... .. . ... ... : ... .. . ... ...
ROW 9A : ... .. . ... ... ... : ... .. . ... ... ... : ... .. . ... : ... .. 2 ... : ... .. . ... ... : ... .. . ... ... : ... .. . ... ... : ... .. . ... ...
ROW 9B : ... .. . ... ... ... : ... .. . ... ... ... : ... .. . ... : D-# 00 8 ... : ... .. . ... ... : ... .. . ... ... : ... .. . ... ... : D#2 01 A ... ...
ROW 9C : ... .. 2 ... ... ... : ... .. 2 ... ... ... : ... .. . ... : ... .. 6 ... : ... .. . ... ... : ... .. . ... ... : ... .. . ... ... : ... .. 8 ... ...
ROW 9D : ... .. . ... ... ... : ... .. . ... ... ... : ... .. . ... : ... .. 3 ... : ... .. . ... ... : ... .. 7 ... ... : ... .. 7 ... ... : ... .. 5 ... ...
ROW 9E : ... .. . ... ... ... : ... .. . ... ... ... : ... .. . ... : ... .. 1 ... : ... .. . ... ... : ... .. . ... ... : ... .. . ... ... : ... .. . ... ...
ROW 9F : ... .. 1 ... ... ... : ... .. 1 ... ... ... : --- .. . ... : ... .. . ... : ... .. . ... ... : ... .. . ... ... : ... .. . ... ... : ... .. . ... ...
ROW A0 : G-4 00 F ... ... ... : A#3 00 F ... ... ... : A#3 00 . ... : 3-# 00 D ... : ... .. . ... ... : F-2 01 9 ... V03 : D#3 01 9 ... V03 : A-3 01 A ... ...
ROW A1 : ... .. E ... ... ... : ... .. E ... ... ... : ... .. . ... : ... .. . ... : ... .. . ... ... : ... .. 8 ... V01 : ... .. 8 ... V01 : ... .. 8 ... ...
ROW A2 : ... .. D ... ... ... : ... .. D ... ... ... : ... .. . ... : F-# 00 D ... : ... .. . ... ... : ... .. . ... ... : ... .. . ... ... : ... .. 5 ... ...
ROW A3 : ... .. A ... ... ... : ... .. A ... ... ... : ... .. . ... : D-# 00 6 ... : ... .. . ... ... : ... .. . ... ... : ... .. . ... ... : ... .. . ... ...
ROW A4 : ... .. . ... ... ... : ... .. . ... ... ... : ... .. . ... : 9-# 00 1 ... : ... .. . ... ... : ... .. . ... ... : ... .. . ... ... : ... .. . ... ...
ROW A5 : ... .. . ... ... ... : ... .. . ... ... ... : ... .. . ... : ... .. 0 ... : ... .. . ... ... : ... .. . ... ... : ... .. . ... ... : D#3 01 A ... ...
ROW A6 : ... .. . ... ... ... : ... .. . ... ... ... : ... .. . ... : ... .. . ... : ... .. . ... ... : ... .. . ... ... : ... .. . ... ... : ... .. 8 ... ...
ROW A7 : ... .. . ... ... ... : ... .. . ... ... ... : ... .. . ... : ... .. . ... : ... .. . ... ... : ... .. 7 ... ... : ... .. 7 ... ... : ... .. 5 ... ...
ROW A8 : ... .. . ... ... ... : ... .. . ... ... ... : ... .. . ... : ... .. . ... : ... .. . ... ... : ... .. . ... ... : ... .. . ... ... : ... .. . ... ...
ROW A9 : ... .. 2 ... ... ... : ... .. 2 ... ... ... : ... .. . ... : ... .. . ... : ... .. . ... ... : ... .. . ... ... : ... .. . ... ... : ... .. . ... ...
ROW AA : ... .. 8 ... ... ... : ... .. 8 ... ... ... : ... .. . ... : 1-# 00 F ... : ... .. . ... ... : ... .. . ... ... : ... .. . ... ... : D-3 01 A ... ...
ROW AB : ... .. 7 ... ... ... : ... .. 7 ... ... ... : ... .. . ... : ... .. C ... : ... .. . ... ... : ... .. 6 ... ... : ... .. 6 ... ... : ... .. 8 ... ...
ROW AC : ... .. 6 ... ... ... : ... .. 6 ... ... ... : ... .. . ... : ... .. 6 ... : ... .. . ... ... : ... .. . ... ... : ... .. . ... ... : ... .. 5 ... ...
ROW AD : ... .. 5 ... ... ... : ... .. 5 ... ... ... : ... .. . ... : ... .. 3 ... : ... .. . ... ... : ... .. 5 ... ... : ... .. 5 ... ... : ... .. . ... ...
ROW AE : ... .. . ... ... ... : ... .. . ... ... ... : ... .. . ... : ... .. 2 ... : ... .. . ... ... : ... .. . ... ... : ... .. . ... ... : ... .. . ... ...
ROW AF : ... .. . ... ... ... : ... .. . ... ... ... : ... .. . ... : ... .. F ... : ... .. . ... ... : ... .. . ... ... : ... .. . ... ... : A-2 01 A ... ...
ROW B0 : ... .. 1 ... ... ... : ... .. 1 ... ... ... : ... .. . ... : ... .. C ... : ... .. . ... ... : ... .. . ... ... : ... .. . ... ... : ... .. 8 ... ...
ROW B1 : ... .. . ... ... ... : ... .. . ... ... ... : ... .. . ... : ... .. 6 ... : ... .. . ... ... : ... .. 4 ... ... : ... .. 4 ... ... : ... .. 5 ... ...
ROW B2 : ... .. . ... ... ... : ... .. . ... ... ... : ... .. . ... : ... .. 3 ... : ... .. . ... ... : ... .. . ... ... : ... .. . ... ... : ... .. . ... ...
ROW B3 : ... .. . ... ... ... : ... .. . ... ... ... : --- .. . ... : ... .. 2 ... : ... .. . ... ... : ... .. . ... ... : ... .. . ... ... : ... .. . ... ...
ROW B4 : D-5 00 F ... ... ... : C-4 00 F ... ... ... : A-3 00 . ... : 3-# 00 D ... : ... .. . ... ... : D-3 01 9 ... V03 : G-3 01 9 ... V03 : D#2 01 A ... ...
ROW B5 : ... .. E ... ... ... : ... .. E ... ... ... : ... .. . ... : ... .. . ... : ... .. . ... ... : ... .. 8 ... V01 : ... .. 8 ... V01 : ... .. 8 ... ...
ROW B6 : ... .. D ... ... ... : ... .. D ... ... ... : ... .. . ... : F-# 00 D ... : ... .. . ... ... : ... .. . ... ... : ... .. . ... ... : ... .. 5 ... ...
ROW B7 : ... .. A ... ... ... : ... .. A ... ... ... : ... .. . ... : D-# 00 6 ... : ... .. . ... ... : ... .. . ... ... : ... .. . ... ... : ... .. . ... ...
ROW B8 : ... .. . ... ... ... : ... .. . ... ... ... : ... .. . ... : 9-# 00 1 ... : ... .. . ... ... : ... .. . ... ... : ... .. . ... ... : ... .. . ... ...
ROW B9 : ... .. . ... ... ... : ... .. . ... ... ... : ... .. . ... : 3-# 00 D ... : ... .. . ... ... : ... .. . ... ... : ... .. . ... ... : D-2 01 A ... ...
ROW BA : ... .. . ... ... ... : ... .. . ... ... ... : ... .. . ... : ... .. . ... : ... .. . ... ... : ... .. . ... ... : ... .. . ... ... : ... .. 8 ... ...
ROW BB : ... .. . ... ... ... : ... .. . ... ... ... : ... .. . ... : F-# 00 D ... : ... .. . ... ... : ... .. 7 ... ... : ... .. 7 ... ... : ... .. 5 ... ...
ROW BC : ... .. . ... ... ... : ... .. . ... ... ... : ... .. . ... : D-# 00 6 ... : ... .. . ... ... : ... .. . ... ... : ... .. . ... ... : ... .. . ... ...
ROW BD : ... .. 2 ... ... ... : ... .. 2 ... ... ... : ... .. . ... : 9-# 00 1 ... : ... .. . ... ... : ... .. . ... ... : ... .. . ... ... : ... .. . ... ...
ROW BE : ... .. 8 ... ... ... : ... .. 8 ... ... ... : ... .. . ... : 1-# 00 F ... : ... .. . ... ... : ... .. . ... ... : ... .. . ... ... : A-1 01 A ... ...
ROW BF : ... .. 7 ... ... ... : ... .. 7 ... ... ... : ... .. . ... : ... .. C ... : ... .. . ... ... : ... .. 6 ... ... : ... .. 6 ... ... : ... .. 8 ... ...
ROW C0 : ... .. 6 ... ... ... : ... .. 6 ... ... ... : ... .. . ... : ... .. 6 ... : ... .. . ... ... : ... .. . ... ... : ... .. . ... ... : ... .. 5 ... ...
ROW C1 : ... .. 5 ... ... ... : ... .. 5 ... ... ... : ... .. . ... : ... .. 3 ... : ... .. . ... ... : ... .. 5 ... ... : ... .. 5 ... ... : ... .. . ... ...
ROW C2 : ... .. . ... ... ... : ... .. . ... ... ... : ... .. . ... : ... .. 2 ... : ... .. . ... ... : ... .. . ... ... : ... .. . ... ... : ... .. . ... ...
ROW C3 : ... .. . ... ... ... : ... .. . ... ... ... : ... .. . ... : ... .. F ... : ... .. . ... ... : ... .. . ... ... : ... .. . ... ... : D#1 01 A ... ...
ROW C4 : ... .. 1 ... ... ... : ... .. 1 ... ... ... : ... .. . ... : ... .. C ... : ... .. . ... ... : ... .. . ... ... : ... .. . ... ... : ... .. 8 ... ...
ROW C5 : ... .. . ... ... ... : ... .. . ... ... ... : ... .. . ... : ... .. 6 ... : ... .. . ... ... : ... .. 4 ... ... : ... .. 4 ... ... : ... .. 5 ... ...
ROW C6 : ... .. . ... ... ... : ... .. . ... ... ... : ... .. . ... : ... .. 3 ... : ... .. . ... ... : ... .. . ... ... : ... .. . ... ... : ... .. . ... ...
ROW C7 : ... .. . ... ... ... : ... .. . ... ... ... : --- .. . ... : ... .. 2 ... : ... .. . ... ... : ... .. . ... ... : ... .. . ... ... : ... .. . ... ...
ROW C8 : ... .. 4 ... ... ... : F-4 00 A ... ... ... : A#3 00 . ... : ... .. F ... : ... .. . Z00 ... : D-2 01 9 ... V03 : A-3 01 9 ... V03 : D-1 01 A ... ...
ROW C9 : ... .. 3 ... ... ... : ... .. 4 ... ... ... : G-3 00 . P7B : ... .. C ... : ... .. . ... ... : ... .. 8 ... V01 : ... .. 8 ... V01 : ... .. 8 ... ...
ROW CA : ... .. . ... ... ... : ... .. 0 ... ... ... : E-3 00 . P7F : ... .. 6 ... : ... .. . ... ... : ... .. . ... ... : ... .. . ... ... : ... .. 5 ... ...
ROW CB : ... .. 2 ... ... ... : F-4 00 4 P80 ... ... : D-3 00 . P77 : ... .. 3 ... : ... .. . ... ... : ... .. . ... ... : ... .. . ... ... : ... .. . ... ...
ROW CC : ... .. . ... ... ... : ... .. 5 ... ... ... : C-3 00 . P74 : ... .. 2 ... : ... .. . ... ... : ... .. . ... ... : ... .. . ... ... : ... .. . ... ...
ROW CD : ... .. . ... ... ... : A-3 00 A ... ... ... : A#2 00 . P76 : D-# 00 8 ... : ... .. . ... ... : ... .. . ... ... : ... .. . ... ... : ... .. . ... ...
ROW CE : ... .. 1 ... ... ... : ... .. 4 ... ... ... : G#2 00 . P7F : ... .. 6 ... : ... .. . ... ... : ... .. . ... ... : ... .. . ... ... : ... .. . ... ...
ROW CF : ... .. . ... ... ... : ... .. 0 ... ... ... : F#2 00 . P8F : ... .. 3 ... : ... .. . ... ... : ... .. 7 ... ... : ... .. 7 ... ... : ... .. . ... ...
ROW D0 : ... .. . ... ... ... : A-3 00 4 P80 ... ... : F-2 00 . P81 : ... .. 1 ... : ... .. . ... ... : ... .. . ... ... : ... .. . ... ... : ... .. . ... ...
ROW D1 : ... .. . ... ... ... : ... .. 5 ... ... ... : E-2 00 . P75 : ... .. . ... : ... .. . ... ... : ... .. . ... ... : ... .. . ... ... : ... .. . ... ...
ROW D2 : A-3 00 F ... ... ... : ... .. A ... ... ... : D-2 00 . P80 : ... .. A ... : ... .. . ... ... : ... .. 9 ... V03 : C-3 01 9 ... V03 : ... .. . ... ...
ROW D3 : ... .. E ... ... ... : ... .. 4 ... ... ... : ... .. . ... : ... .. 8 ... : ... .. . ... ... : ... .. 8 ... V01 : ... .. 8 ... V01 : ... .. . ... ...
ROW D4 : ... .. D ... ... ... : ... .. 0 ... ... ... : ... .. . ... : ... .. 4 ... : ... .. . ... ... : ... .. . ... ... : ... .. . ... ... : ... .. . ... ...
ROW D5 : ... .. A ... ... ... : A-3 00 4 P80 ... ... : ... .. . ... : ... .. 2 ... : ... .. . ... ... : --- .. . P84 ... : --- .. . P7E ... : ... .. . ... ...
ROW D6 : ... .. . ... ... ... : ... .. 5 ... ... ... : --- .. . ... : ... .. 1 ... : ... .. . ... ... : ... .. . ... ... : ... .. . ... ... : ... .. . ... ...
ROW D7 : ... .. . ... ... ... : ... .. A ... ... ... : D-2 00 . ... : ... .. 8 ... : ... .. . ... ... : D-2 01 9 P80 V03 : C-3 01 9 P80 V03 : ... .. . ... ...
ROW D8 : ... .. 2 ... ... ... : ... .. 4 ... ... ... : ... .. . ... : ... .. 6 ... : ... .. . ... ... : ... .. 8 ... V01 : ... .. 8 ... V01 : ... .. . ... ...
ROW D9 : ... .. . ... ... ... : ... .. 0 ... ... ... : ... .. . ... : ... .. 3 ... : ... .. . ... ... : ... .. . ... ... : ... .. . ... ... : ... .. . ... ...
ROW DA : ... .. . ... ... ... : A-3 00 4 P80 ... ... : ... .. . ... : ... .. 1 ... : ... .. . ... ... : --- .. . P84 ... : --- .. . P7E ... : ... .. . ... ...
ROW DB : ... .. 1 ... ... ... : ... .. 5 ... ... ... : --- .. . ... : ... .. . ... : ... .. . ... ... : ... .. . ... ... : ... .. . ... ... : ... .. . ... ...
ROW DC : D-4 00 F ... ... ... : F-4 00 A ... ... ... : C-3 00 . ... : 1-# 00 D ... : ... .. . ... ... : D-2 01 9 P80 V03 : C-3 01 9 P80 V03 : ... .. . ... ...
ROW DD : ... .. E ... ... ... : ... .. 4 ... ... ... : ... .. . ... : ... .. . ... : ... .. . ... ... : ... .. 8 ... V01 : ... .. 8 ... V01 : ... .. . ... ...
ROW DE : ... .. D ... ... ... : ... .. 0 ... ... ... : ... .. . ... : D-# 00 D ... : ... .. . ... ... : ... .. . ... ... : ... .. . ... ... : ... .. . ... ...
ROW DF : ... .. A ... ... ... : F-4 00 4 P80 ... ... : ... .. . ... : B-# 00 6 ... : ... .. . ... ... : --- .. . P84 ... : --- .. . P7E ... : ... .. . ... ...
ROW E0 : ... .. . ... ... ... : ... .. 5 ... ... ... : --- .. . ... : 7-# 00 1 ... : ... .. . ... ... : ... .. . ... ... : ... .. . ... ... : ... .. . ... ...
ROW E1 : ... .. . ... ... ... : A-3 00 A ... ... ... : D-3 00 . ... : D-# 00 8 ... : ... .. . ... ... : D-2 01 9 P80 V03 : C-3 01 9 P80 V03 : ... .. . ... ...
ROW E2 : ... .. 2 ... ... ... : ... .. 4 ... ... ... : ... .. . ... : ... .. 6 ... : ... .. . ... ... : ... .. 8 ... V01 : ... .. 8 ... V01 : ... .. . ... ...
ROW E3 : ... .. . ... ... ... : ... .. 0 ... ... ... : ... .. . ... : ... .. 3 ... : ... .. . ... ... : ... .. . ... ... : ... .. . ... ... : ... .. . ... ...
ROW E4 : ... .. . ... ... ... : A-3 00 4 P80 ... ... : ... .. . ... : ... .. 1 ... : ... .. . ... ... : --- .. . P84 ... : --- .. . P7E ... : ... .. . ... ...
ROW E5 : ... .. 1 ... ... ... : ... .. 5 ... ... ... : --- .. . ... : ... .. . ... : ... .. . ... ... : ... .. . ... ... : ... .. . ... ... : ... .. . ... ...
ROW E6 : A-4 00 F ... ... ... : ... .. A ... ... ... : D-3 00 . ... : ... .. A ... : ... .. . ... ... : D-2 01 9 P80 V03 : A-3 01 9 P80 V03 : ... .. . ... ...
ROW E7 : ... .. E ... ... ... : ... .. 4 ... ... ... : ... .. . ... : ... .. 8 ... : ... .. . ... ... : ... .. 8 ... V01 : ... .. 8 ... V01 : ... .. . ... ...
ROW E8 : ... .. D ... ... ... : ... .. 0 ... ... ... : ... .. . ... : ... .. 4 ... : ... .. . ... ... : ... .. . ... ... : ... .. . ... ... : ... .. . ... ...
ROW E9 : ... .. A ... ... ... : A-3 00 4 P80 ... ... : ... .. . ... : ... .. 2 ... : ... .. . ... ... : ... .. . ... ... : ... .. . ... ... : ... .. . ... ...
ROW EA : ... .. . ... ... ... : ... .. 5 ... ... ... : --- .. . ... : ... .. 1 ... : ... .. . ... ... : ... .. . ... ... : ... .. . ... ... : ... .. . ... ...
ROW EB : ... .. . ... ... ... : ... .. A ... ... ... : D-3 00 . ... : ... .. 8 ... : ... .. . ... ... : ... .. . ... ... : ... .. . ... ... : ... .. . ... ...
ROW EC : ... .. 2 ... ... ... : ... .. 4 ... ... ... : ... .. . ... : ... .. 6 ... : ... .. . ... ... : ... .. . ... ... : ... .. . ... ... : ... .. . ... ...
ROW ED : ... .. . ... ... ... : ... .. 0 ... ... ... : ... .. . ... : ... .. 3 ... : ... .. . ... ... : ... .. 7 ... ... : ... .. 7 ... ... : ... .. . ... ...
ROW EE : ... .. . ... ... ... : A-3 00 4 P80 ... ... : ... .. . ... : ... .. 1 ... : ... .. . ... ... : --- .. . P84 ... : --- .. . ... ... : ... .. . ... ...
ROW EF : ... .. 1 ... ... ... : ... .. 5 ... ... ... : --- .. . ... : ... .. . ... : ... .. . ... ... : ... .. . ... ... : ... .. . ... ... : ... .. . ... ...
ROW F0 : G-4 00 F ... ... ... : G-4 00 A ... ... ... : A#3 00 . ... : 1-# 00 F ... : ... .. . ... ... : D-2 01 9 P80 V03 : G-3 01 9 ... V03 : D-2 01 A ... ...
ROW F1 : ... .. E ... ... ... : ... .. 4 ... ... ... : G-3 00 . P7B : ... .. C ... : ... .. . ... ... : ... .. 8 ... V01 : ... .. 8 ... V01 : ... .. 8 ... ...
ROW F2 : ... .. D ... ... ... : ... .. 0 ... ... ... : E-3 00 . P7F : ... .. 6 ... : ... .. . ... ... : ... .. . ... ... : ... .. . ... ... : ... .. 5 ... ...
ROW F3 : ... .. A ... ... ... : G-4 00 4 P80 ... ... : D-3 00 . P77 : ... .. 3 ... : ... .. . ... ... : ... .. . ... ... : ... .. . ... ... : ... .. . ... ...
ROW F4 : ... .. . ... ... ... : ... .. 5 ... ... ... : C-3 00 . P74 : ... .. 2 ... : ... .. . ... ... : ... .. . ... ... : ... .. . ... ... : ... .. . ... ...
ROW F5 : ... .. . ... ... ... : B-3 00 A ... ... ... : A#2 00 . P76 : D-# 00 8 ... : ... .. . ... ... : ... .. . ... ... : ... .. . ... ... : ... .. . ... ...
ROW F6 : ... .. . ... ... ... : ... .. 4 ... ... ... : G#2 00 . P7F : ... .. 6 ... : ... .. . ... ... : ... .. . ... ... : ... .. . ... ... : ... .. . ... ...
ROW F7 : ... .. . ... ... ... : ... .. 0 ... ... ... : F#2 00 . P8F : ... .. 3 ... : ... .. . ... ... : ... .. 7 ... ... : ... .. 7 ... ... : ... .. . ... ...
ROW F8 : ... .. . ... ... ... : B-3 00 4 P80 ... ... : F-2 00 . P81 : ... .. 1 ... : ... .. . ... ... : ... .. . ... ... : ... .. . ... ... : ... .. . ... ...
ROW F9 : ... .. . ... ... ... : ... .. 5 ... ... ... : E-2 00 . P75 : ... .. . ... : ... .. . ... ... : ... .. . ... ... : ... .. . ... ... : ... .. . ... ...
ROW FA : ... .. . ... ... ... : ... .. A ... ... ... : F-3 00 . P80 : ... .. A ... : ... .. . ... ... : ... .. 9 ... V03 : B-2 01 9 ... V03 : ... .. . ... ...
ROW FB : ... .. . ... ... ... : ... .. 4 ... ... ... : ... .. . ... : ... .. 8 ... : ... .. . ... ... : ... .. 8 ... V01 : ... .. 8 ... V01 : ... .. . ... ...
ROW FC : ... .. . ... ... ... : ... .. 0 ... ... ... : ... .. . ... : ... .. 4 ... : ... .. . ... ... : ... .. . ... ... : ... .. . ... ... : ... .. . ... ...
ROW FD : ... .. . ... ... ... : B-3 00 4 P80 ... ... : ... .. . ... : ... .. 2 ... : ... .. . ... ... : --- .. . P84 ... : --- .. . P85 ... : ... .. . ... ...
ROW FE : ... .. . ... ... ... : ... .. 5 ... ... ... : --- .. . ... : ... .. 1 ... : ... .. . ... ... : ... .. . ... ... : ... .. . ... ... : ... .. . ... ...
ROW FF : ... .. . P84 ... ... : ... .. A ... ... ... : F-3 00 . ... : ... .. 8 ... : ... .. . ... ... : D-2 01 9 P80 V03 : B-2 01 9 P80 V03 : ... .. . ... ...

PATTERN 0B
ROW 00 : G#4 00 A P7E ... ... : ... .. 4 ... ... ... : ... .. . ... : ... .. 6 ... : ... .. . ... ... : ... .. 8 ... V01 : ... .. 8 ... V01 : ... .. . ... ...
ROW 01 : ... .. . P7D ... ... : ... .. 0 ... ... ... : ... .. . ... : ... .. 3 ... : ... .. . ... ... : ... .. . ... ... : ... .. . ... ... : ... .. . ... ...
ROW 02 : G-4 00 A P82 ... ... : B-3 00 4 P80 ... ... : ... .. . ... : ... .. 1 ... : ... .. . ... ... : --- .. . P84 ... : --- .. . P85 ... : ... .. . ... ...
ROW 03 : ... .. . P7E ... ... : ... .. 5 ... ... ... : --- .. . ... : ... .. . ... : ... .. . ... ... : ... .. . ... ... : ... .. . ... ... : ... .. . ... ...
ROW 04 : F#4 00 A P83 ... ... : G-4 00 A ... ... ... : D-3 00 . ... : 1-# 00 D ... : ... .. . ... ... : D-2 01 9 P80 V03 : B-2 01 9 P80 V03 : ... .. . ... ...
ROW 05 : ... .. . P82 ... ... : ... .. 4 ... ... ... : ... .. . ... : ... .. . ... : ... .. . ... ... : ... .. 8 ... V01 : ... .. 8 ... V01 : ... .. . ... ...
ROW 06 : ... .. . P84 ... ... : ... .. 0 ... ... ... : ... .. . ... : D-# 00 D ... : ... .. . ... ... : ... .. . ... ... : ... .. . ... ... : ... .. . ... ...
ROW 07 : G-4 00 A P80 ... ... : G-4 00 4 P80 ... ... : ... .. . ... : B-# 00 6 ... : ... .. . ... ... : --- .. . P84 ... : --- .. . P85 ... : ... .. . ... ...
ROW 08 : ... .. . P83 ... ... : ... .. 5 ... ... ... : --- .. . ... : 7-# 00 1 ... : ... .. . ... ... : ... .. . ... ... : ... .. . ... ... : ... .. . ... ...
ROW 09 : G#4 00 A P7E ... ... : B-3 00 A ... ... ... : D-3 00 . ... : D-# 00 8 ... : ... .. . ... ... : D-2 01 9 P80 V03 : B-2 01 9 P80 V03 : ... .. . ... ...
ROW 0A : ... .. 2 ... ... ... : ... .. 4 ... ... ... : ... .. . ... : ... .. 6 ... : ... .. . ... ... : ... .. 8 ... V01 : ... .. 8 ... V01 : ... .. . ... ...
ROW 0B : G-4 00 2 P82 ... ... : ... .. 0 ... ... ... : ... .. . ... : ... .. 3 ... : ... .. . ... ... : ... .. . ... ... : ... .. . ... ... : ... .. . ... ...
ROW 0C : ... .. . P7F ... ... : B-3 00 4 P80 ... ... : ... .. . ... : ... .. 1 ... : ... .. . ... ... : --- .. . P84 ... : --- .. . P85 ... : ... .. . ... ...
ROW 0D : F#4 00 1 P83 ... ... : ... .. 5 ... ... ... : --- .. . ... : ... .. . ... : ... .. . ... ... : ... .. . ... ... : ... .. . ... ... : ... .. . ... ...
ROW 0E : D-4 00 F P80 ... ... : ... .. A ... ... ... : D-2 00 . ... : ... .. A ... : ... .. . ... ... : D-2 01 9 P80 V03 : G-3 01 9 P80 V03 : ... .. . ... ...
ROW 0F : ... .. E ... ... ... : ... .. 4 ... ... ... : ... .. . ... : ... .. 8 ... : ... .. . ... ... : ... .. 8 ... V01 : ... .. 8 ... V01 : ... .. . ... ...
ROW 10 : ... .. D ... ... ... : ... .. 0 ... ... ... : ... .. . ... : ... .. 4 ... : ... .. . ... ... : ... .. . ... ... : ... .. . ... ... : ... .. . ... ...
ROW 11 : ... .. A ... ... ... : B-3 00 4 P80 ... ... : ... .. . ... : ... .. 2 ... : ... .. . ... ... : ... .. . ... ... : ... .. . ... ... : ... .. . ... ...
ROW 12 : ... .. 2 ... ... ... : ... .. 5 ... ... ... : --- .. . ... : ... .. 1 ... : ... .. . ... ... : ... .. . ... ... : ... .. . ... ... : ... .. . ... ...
ROW 13 : E-4 00 F ... ... ... : ... .. A ... ... ... : D-2 00 . ... : ... .. 8 ... : ... .. . ... ... : ... .. . ... ... : ... .. . ... ... : ... .. . ... ...
ROW 14 : ... .. E ... ... ... : ... .. 4 ... ... ... : ... .. . ... : ... .. 6 ... : ... .. . ... ... : ... .. . ... ... : ... .. . ... ... : ... .. . ... ...
ROW 15 : ... .. D ... ... ... : ... .. 0 ... ... ... : ... .. . ... : ... .. 3 ... : ... .. . ... ... : ... .. 7 ... ... : ... .. 7 ... ... : ... .. . ... ...
ROW 16 : ... .. A ... ... ... : B-3 00 4 P80 ... ... : ... .. . ... : ... .. 1 ... : ... .. . ... ... : --- .. . P84 ... : --- .. . P81 ... : ... .. . ... ...
ROW 17 : ... .. 2 ... ... ... : ... .. 5 ... ... ... : --- .. . ... : ... .. . ... : ... .. . ... ... : ... .. . ... ... : ... .. . ... ... : ... .. . ... ...
ROW 18 : F-4 00 F ... ... ... : F-4 00 A ... ... ... : A#3 00 . ... : 1-# 00 F ... : ... .. . ... ... : D-2 01 9 P80 V03 : F-3 01 9 P80 V03 : A#2 01 A ... ...
ROW 19 : ... .. E ... ... ... : ... .. 4 ... ... ... : G-3 00 . P7B : ... .. C ... : ... .. . ... ... : ... .. 8 ... V01 : ... .. 8 ... V01 : ... .. 8 ... ...
ROW 1A : ... .. D ... ... ... : ... .. 0 ... ... ... : E-3 00 . P7F : ... .. 6 ... : ... .. . ... ... : ... .. . ... ... : ... .. . ... ... : ... .. 5 ... ...
ROW 1B : ... .. A ... ... ... : F-4 00 4 P80 ... ... : D-3 00 . P77 : ... .. 3 ... : ... .. . ... ... : ... .. . ... ... : ... .. . ... ... : ... .. . ... ...
ROW 1C : ... .. . ... ... ... : ... .. 5 ... ... ... : C-3 00 . P74 : ... .. 2 ... : ... .. . ... ... : ... .. . ... ... : ... .. . ... ... : ... .. . ... ...
ROW 1D : ... .. . ... ... ... : D-4 00 A ... ... ... : A#2 00 . P80 : D-# 00 8 ... : ... .. . ... ... : ... .. . ... ... : ... .. . ... ... : ... .. . ... ...
ROW 1E : ... .. . ... ... ... : ... .. 4 ... ... ... : ... .. . ... : ... .. 6 ... : ... .. . ... ... : ... .. . ... ... : ... .. . ... ... : ... .. . ... ...
ROW 1F : ... .. . ... ... ... : ... .. 0 ... ... ... : ... .. . ... : ... .. 3 ... : ... .. . ... ... : ... .. 7 ... ... : ... .. 7 ... ... : ... .. . ... ...
ROW 20 : ... .. . ... ... ... : D-4 00 4 P80 ... ... : ... .. . ... : ... .. 1 ... : ... .. . ... ... : ... .. . ... ... : ... .. . ... ... : ... .. . ... ...
ROW 21 : ... .. . ... ... ... : ... .. 5 ... ... ... : ... .. . ... : ... .. . ... : ... .. . ... ... : ... .. . ... ... : ... .. . ... ... : ... .. . ... ...
ROW 22 : ... .. . ... ... ... : A#3 00 A ... ... ... : ... .. . ... : ... .. A ... : ... .. . ... ... : ... .. . ... ... : ... .. . ... ... : ... .. . ... ...
ROW 23 : ... .. . ... ... ... : ... .. 4 ... ... ... : ... .. . ... : ... .. 8 ... : ... .. . ... ... : ... .. 6 ... ... : ... .. 6 ... ... : ... .. . ... ...
ROW 24 : ... .. . ... ... ... : ... .. 0 ... ... ... : ... .. . ... : ... .. 4 ... : ... .. . ... ... : ... .. . ... ... : ... .. . ... ... : ... .. . ... ...
ROW 25 : ... .. . ... ... ... : A#3 00 4 P80 ... ... : ... .. . ... : ... .. 2 ... : ... .. . ... ... : ... .. 5 ... ... : ... .. 5 ... ... : ... .. . ... ...
ROW 26 : ... .. . ... ... ... : ... .. 5 ... ... ... : ... .. . ... : ... .. 1 ... : ... .. . ... ... : ... .. . ... ... : ... .. . ... ... : ... .. . ... ...
ROW 27 : ... .. . ... ... ... : F-3 00 A ... ... ... : ... .. . ... : ... .. 8 ... : ... .. . ... ... : ... .. . ... ... : ... .. . ... ... : ... .. . ... ...
ROW 28 : ... .. 2 ... ... ... : ... .. 4 ... ... ... : ... .. . ... : ... .. 6 ... : ... .. . ... ... : ... .. . ... ... : ... .. . ... ... : ... .. . ... ...
ROW 29 : ... .. . ... ... ... : ... .. 0 ... ... ... : ... .. . ... : ... .. 3 ... : ... .. . ... ... : ... .. 4 ... ... : ... .. 4 ... ... : ... .. . ... ...
ROW 2A : ... .. . ... ... ... : F-3 00 4 P80 ... ... : ... .. . ... : ... .. 1 ... : ... .. . ... ... : --- .. . P84 ... : --- .. . ... ... : ... .. . ... ...
ROW 2B : ... .. 1 ... ... ... : ... .. 5 ... ... ... : --- .. . ... : ... .. . ... : ... .. . ... ... : ... .. . ... ... : ... .. . ... ... : ... .. . ... ...
ROW 2C : G-4 00 F ... ... ... : E-4 00 A ... ... ... : A#3 00 . ... : 1-# 00 D ... : ... .. . ... ... : E-2 01 9 P80 V03 : G-3 01 9 ... V03 : A-2 01 A ... ...
ROW 2D : ... .. E ... ... ... : ... .. 4 ... ... ... : G-3 00 . P7B : ... .. . ... : ... .. . ... ... : ... .. 8 ... V01 : ... .. 8 ... V01 : ... .. 8 ... ...
ROW 2E : ... .. D ... ... ... : ... .. 0 ... ... ... : E-3 00 . P7F : D-# 00 D ... : ... .. . ... ... : ... .. . ... ... : ... .. . ... ... : ... .. 5 ... ...
ROW 2F : ... .. A ... ... ... : E-4 00 4 P80 ... ... : D-3 00 . P77 : B-# 00 6 ... : ... .. . ... ... : ... .. . ... ... : ... .. . ... ... : ... .. . ... ...
ROW 30 : ... .. . ... ... ... : ... .. 5 ... ... ... : C-3 00 . P74 : 7-# 00 1 ... : ... .. . ... ... : ... .. . ... ... : ... .. . ... ... : ... .. . ... ...
ROW 31 : ... .. . ... ... ... : C-4 00 A ... ... ... : A-2 00 . P80 : D-# 00 8 ... : ... .. . ... ... : ... .. . ... ... : ... .. . ... ... : ... .. . ... ...
ROW 32 : ... .. . ... ... ... : ... .. 4 ... ... ... : ... .. . ... : ... .. 6 ... : ... .. . ... ... : ... .. . ... ... : ... .. . ... ... : ... .. . ... ...
ROW 33 : ... .. . ... ... ... : ... .. 0 ... ... ... : ... .. . ... : ... .. 3 ... : ... .. . ... ... : ... .. 7 ... ... : ... .. 7 ... ... : ... .. . ... ...
ROW 34 : ... .. . ... ... ... : C-4 00 4 P80 ... ... : ... .. . ... : ... .. 1 ... : ... .. . ... ... : ... .. . ... ... : ... .. . ... ... : ... .. . ... ...
ROW 35 : ... .. . ... ... ... : ... .. 5 ... ... ... : ... .. . ... : ... .. . ... : ... .. . ... ... : ... .. . ... ... : ... .. . ... ... : ... .. . ... ...
ROW 36 : ... .. . ... ... ... : A-3 00 A ... ... ... : ... .. . ... : ... .. A ... : ... .. . ... ... : ... .. . ... ... : ... .. . ... ... : ... .. . ... ...
ROW 37 : ... .. . ... ... ... : ... .. 4 ... ... ... : ... .. . ... : ... .. 8 ... : ... .. . ... ... : ... .. 6 ... ... : ... .. 6 ... ... : ... .. . ... ...
ROW 38 : ... .. . ... ... ... : ... .. 0 ... ... ... : ... .. . ... : ... .. 4 ... : ... .. . ... ... : ... .. . ... ... : ... .. . ... ... : ... .. . ... ...
ROW 39 : ... .. . ... ... ... : A-3 00 4 P80 ... ... : ... .. . ... : ... .. 2 ... : ... .. . ... ... : ... .. 5 ... ... : ... .. 5 ... ... : ... .. . ... ...
ROW 3A : ... .. . ... ... ... : ... .. 5 ... ... ... : ... .. . ... : ... .. 1 ... : ... .. . ... ... : ... .. . ... ... : ... .. . ... ... : ... .. . ... ...
ROW 3B : A-4 00 A ... ... ... : E-3 00 A ... ... ... : ... .. . ... : ... .. 8 ... : ... .. . ... ... : ... .. . ... ... : ... .. . ... ... : ... .. . ... ...
ROW 3C : B-4 00 2 P82 ... ... : ... .. 4 ... ... ... : ... .. . ... : ... .. 6 ... : ... .. . ... ... : ... .. . ... ... : ... .. . ... ... : ... .. . ... ...
ROW 3D : D-5 00 2 P80 ... ... : ... .. 0 ... ... ... : ... .. . ... : ... .. 3 ... : ... .. . ... ... : ... .. 4 ... ... : ... .. 4 ... ... : ... .. . ... ...
ROW 3E : F-5 00 2 P81 ... ... : E-3 00 4 P80 ... ... : ... .. . ... : ... .. 1 ... : ... .. . ... ... : --- .. . P83 ... : --- .. . P81 ... : ... .. . ... ...
ROW 3F : A-5 00 1 ... ... ... : ... .. 5 ... ... ... : --- .. . ... : ... .. . ... : ... .. . ... ... : ... .. . ... ... : ... .. . ... ... : ... .. . ... ...
ROW 40 : C-5 00 F P80 ... ... : G-4 00 A ... ... ... : A-3 00 . ... : 9-# 00 D ... : ... .. . ... ... : C-2 01 9 P80 V03 : C-4 01 9 P80 V03 : C-3 01 A ... ...
ROW 41 : ... .. E ... ... ... : ... .. 4 ... ... ... : ... .. . ... : ... .. . ... : ... .. . ... ... : ... .. 8 ... V01 : ... .. 8 ... V01 : ... .. 8 ... ...
ROW 42 : ... .. D ... ... ... : ... .. 0 ... ... ... : ... .. . ... : 5-# 00 D ... : ... .. . ... ... : ... .. . ... ... : ... .. . ... ... : ... .. 5 ... ...
ROW 43 : ... .. A ... ... ... : G-4 00 4 P80 ... ... : ... .. . ... : 3-# 00 6 ... : ... .. . ... ... : ... .. . ... ... : ... .. . ... ... : ... .. . ... ...
ROW 44 : ... .. . ... ... ... : ... .. 5 ... ... ... : ... .. . ... : F-# 00 1 ... : ... .. . ... ... : ... .. . ... ... : ... .. . ... ... : ... .. . ... ...
ROW 45 : ... .. . ... ... ... : E-4 00 A ... ... ... : ... .. . ... : 9-# 00 D ... : ... .. . ... ... : ... .. . ... ... : G-3 01 9 ... V03 : ... .. . ... ...
ROW 46 : ... .. 2 ... ... ... : ... .. 4 ... ... ... : ... .. . ... : ... .. . ... : ... .. . ... ... : ... .. . ... ... : ... .. 8 ... V01 : ... .. . ... ...
ROW 47 : ... .. . ... ... ... : ... .. 0 ... ... ... : ... .. . ... : 5-# 00 D ... : ... .. . ... ... : ... .. 7 ... ... : ... .. . ... ... : ... .. . ... ...
ROW 48 : ... .. . ... ... ... : E-4 00 4 P80 ... ... : ... .. . ... : 3-# 00 6 ... : ... .. . ... ... : --- .. . P7E ... : --- .. . P81 ... : ... .. . ... ...
ROW 49 : ... .. 1 ... ... ... : ... .. 5 ... ... ... : --- .. . ... : F-# 00 1 ... : ... .. . ... ... : ... .. . ... ... : ... .. . ... ... : ... .. . ... ...
ROW 4A : A-4 00 F ... ... ... : C-4 00 A ... ... ... : A-3 00 . ... : 4-# 00 D ... : ... .. . ... ... : C-2 01 9 P80 V03 : E-3 01 9 P80 V03 : A-2 01 A ... ...
ROW 4B : ... .. E ... ... ... : ... .. 4 ... ... ... : ... .. . ... : ... .. . ... : ... .. . ... ... : ... .. 8 ... V01 : ... .. 8 ... V01 : ... .. 8 ... ...
ROW 4C : ... .. D ... ... ... : ... .. 0 ... ... ... : ... .. . ... : 0-# 00 D ... : ... .. . ... ... : ... .. . ... ... : ... .. . ... ... : ... .. 5 ... ...
ROW 4D : ... .. A ... ... ... : C-4 00 4 P80 ... ... : ... .. . ... : E-# 00 6 ... : ... .. . ... ... : --- .. . P7E ... : --- .. . P82 ... : ... .. . ... ...
ROW 4E : ... .. . ... ... ... : ... .. 5 ... ... ... : --- .. . ... : A-# 00 1 ... : ... .. . ... ... : ... .. . ... ... : ... .. . ... ... : ... .. . ... ...
ROW 4F : ... .. . ... ... ... : A-3 00 A ... ... ... : A-3 00 . ... : 4-# 00 D ... : ... .. . ... ... : D-2 01 9 P80 V03 : G-3 01 9 P80 V03 : ... .. . ... ...
ROW 50 : ... .. 2 ... ... ... : ... .. 4 ... ... ... : ... .. . ... : ... .. . ... : ... .. . ... ... : ... .. 8 ... V01 : ... .. 8 ... V01 : ... .. . ... ...
ROW 51 : ... .. . ... ... ... : ... .. 0 ... ... ... : ... .. . ... : 0-# 00 D ... : ... .. . ... ... : ... .. . ... ... : ... .. . ... ... : ... .. . ... ...
ROW 52 : ... .. . ... ... ... : A-3 00 4 P80 ... ... : ... .. . ... : E-# 00 6 ... : ... .. . ... ... : --- .. . P84 ... : --- .. . P81 ... : ... .. . ... ...
ROW 53 : ... .. 1 ... ... ... : ... .. 5 ... ... ... : --- .. . ... : A-# 00 1 ... : ... .. . ... ... : ... .. . ... ... : ... .. . ... ... : ... .. . ... ...
ROW 54 : E-5 00 F ... ... ... : G-4 00 A ... ... ... : F-3 00 . ... : 6-# 00 D ... : ... .. . ... ... : E-2 01 9 P80 V03 : C-4 01 9 P80 V03 : E-3 01 A ... ...
ROW 55 : ... .. E ... ... ... : ... .. 4 ... ... ... : ... .. . ... : ... .. . ... : ... .. . ... ... : ... .. 8 ... V01 : ... .. 8 ... V01 : ... .. 8 ... ...
ROW 56 : ... .. D ... ... ... : ... .. 0 ... ... ... : ... .. . ... : 2-# 00 D ... : ... .. . ... ... : ... .. . ... ... : ... .. . ... ... : ... .. 5 ... ...
ROW 57 : ... .. A ... ... ... : G-4 00 4 P80 ... ... : ... .. . ... : 0-# 00 6 ... : ... .. . ... ... : ... .. . ... ... : ... .. . ... ... : ... .. . ... ...
ROW 58 : ... .. 2 ... ... ... : ... .. 5 ... ... ... : ... .. . ... : C-# 00 1 ... : ... .. . ... ... : ... .. . ... ... : ... .. . ... ... : ... .. . ... ...
ROW 59 : D-5 00 F ... ... ... : A-4 00 A ... ... ... : ... .. . ... : 6-# 00 D ... : ... .. . ... ... : ... .. . ... ... : D-4 01 9 ... V03 : D-3 01 A ... ...
ROW 5A : ... .. E ... ... ... : ... .. 4 ... ... ... : ... .. . ... : ... .. . ... : ... .. . ... ... : ... .. . ... ... : ... .. 8 ... V01 : ... .. 8 ... ...
ROW 5B : ... .. D ... ... ... : ... .. 0 ... ... ... : ... .. . ... : 2-# 00 D ... : ... .. . ... ... : ... .. 7 ... ... : ... .. . ... ... : ... .. 5 ... ...
ROW 5C : ... .. A ... ... ... : A-4 00 4 P80 ... ... : ... .. . ... : 0-# 00 6 ... : ... .. . ... ... : --- .. . P83 ... : --- .. . ... ... : ... .. . ... ...
ROW 5D : ... .. 2 ... ... ... : ... .. 5 ... ... ... : --- .. . ... : C-# 00 1 ... : ... .. . ... ... : ... .. . ... ... : ... .. . ... ... : ... .. . ... ...
ROW 5E : C-5 00 F ... ... ... : A#4 00 A ... ... ... : G-3 00 . ... : 1-# 00 D ... : ... .. . ... ... : C-2 01 9 P80 V03 : G-4 01 9 ... V03 : C-3 01 A ... ...
ROW 5F : ... .. E ... ... ... : ... .. 4 ... ... ... : ... .. . ... : ... .. . ... : ... .. . ... ... : ... .. 8 ... V01 : ... .. 8 ... V01 : ... .. 8 ... ...
ROW 60 : ... .. D ... ... ... : ... .. 0 ... ... ... : ... .. . ... : D-# 00 D ... : ... .. . ... ... : ... .. . ... ... : ... .. . ... ... : ... .. 5 ... ...
ROW 61 : ... .. A ... ... ... : A#4 00 4 P80 ... ... : ... .. . ... : B-# 00 6 ... : ... .. . ... ... : ... .. . ... ... : ... .. . ... ... : ... .. . ... ...
ROW 62 : ... .. . ... ... ... : ... .. 5 ... ... ... : ... .. . ... : 7-# 00 1 ... : ... .. . ... ... : ... .. . ... ... : ... .. . ... ... : ... .. . ... ...
ROW 63 : ... .. . ... ... ... : G-4 00 A ... ... ... : ... .. . ... : 1-# 00 D ... : ... .. . ... ... : ... .. . ... ... : A-4 01 9 ... V03 : ... .. . ... ...
ROW 64 : ... .. 2 ... ... ... : ... .. 4 ... ... ... : ... .. . ... : ... .. . ... : ... .. . ... ... : ... .. . ... ... : ... .. 8 ... V01 : ... .. . ... ...
ROW 65 : ... .. . ... ... ... : ... .. 0 ... ... ... : ... .. . ... : D-# 00 D ... : ... .. . ... ... : ... .. 7 ... ... : ... .. . ... ... : ... .. . ... ...
ROW 66 : ... .. . ... ... ... : G-4 00 4 P80 ... ... : ... .. . ... : B-# 00 6 ... : ... .. . ... ... : --- .. . P7E ... : --- .. . ... ... : ... .. . ... ...
ROW 67 : ... .. 1 ... ... ... : ... .. 5 ... ... ... : --- .. . ... : 7-# 00 1 ... : ... .. . ... ... : ... .. . ... ... : ... .. . ... ... : ... .. . ... ...
ROW 68 : D-5 00 F ... ... ... : D-4 00 A ... ... ... : A#3 00 . ... : 1-# 00 F ... : ... .. . ... ... : A#2 01 9 P80 V03 : A#4 01 9 ... V03 : D-3 01 A ... ...
ROW 69 : ... .. E ... ... ... : ... .. 4 ... ... ... : G-3 00 . P7B : ... .. C ... : ... .. . ... ... : ... .. 8 ... V01 : ... .. 8 ... V01 : ... .. 8 ... ...
ROW 6A : ... .. D ... ... ... : ... .. 0 ... ... ... : E-3 00 . P7F : ... .. 6 ... : ... .. . ... ... : ... .. . ... ... : ... .. . ... ... : ... .. 5 ... ...
ROW 6B : ... .. A ... ... ... : D-4 00 4 P80 ... ... : D-3 00 . P77 : ... .. 3 ... : ... .. . ... ... : ... .. . ... ... : ... .. . ... ... : ... .. . ... ...
ROW 6C : ... .. . ... ... ... : ... .. 5 ... ... ... : C-3 00 . P74 : ... .. 2 ... : ... .. . ... ... : ... .. . ... ... : ... .. . ... ... : ... .. . ... ...
ROW 6D : ... .. . ... ... ... : A#3 00 A ... ... ... : A#2 00 . P76 : D-# 00 8 ... : ... .. . ... ... : ... .. . ... ... : ... .. . ... ... : ... .. . ... ...
ROW 6E : ... .. . ... ... ... : ... .. 4 ... ... ... : G#2 00 . P7F : ... .. 6 ... : ... .. . ... ... : ... .. . ... ... : ... .. . ... ... : ... .. . ... ...
ROW 6F : ... .. . ... ... ... : ... .. 0 ... ... ... : F#2 00 . P8F : ... .. 3 ... : ... .. . ... ... : ... .. 7 ... ... : ... .. 7 ... ... : ... .. . ... ...
ROW 70 : ... .. . ... ... ... : A#3 00 4 P80 ... ... : F-2 00 . P81 : ... .. 1 ... : ... .. . ... ... : --- .. . P82 ... : --- .. . ... ... : ... .. . ... ...
ROW 71 : ... .. . ... ... ... : ... .. 5 ... ... ... : --- .. . ... : ... .. . ... : ... .. . ... ... : ... .. . ... ... : ... .. . ... ... : ... .. . ... ...
ROW 72 : ... .. . ... ... ... : G-3 00 A ... ... ... : G-2 00 . P80 : ... .. A ... : ... .. . ... ... : D-2 01 9 P80 V03 : A#2 01 9 ... V03 : ... .. . ... ...
ROW 73 : ... .. . ... ... ... : ... .. 4 ... ... ... : ... .. . ... : ... .. 8 ... : ... .. . ... ... : ... .. 8 ... V01 : ... .. 8 ... V01 : ... .. . ... ...
ROW 74 : ... .. . ... ... ... : ... .. 0 ... ... ... : ... .. . ... : ... .. 4 ... : ... .. . ... ... : ... .. . ... ... : ... .. . ... ... : ... .. . ... ...
ROW 75 : ... .. . ... ... ... : G-3 00 4 P80 ... ... : ... .. . ... : ... .. 2 ... : ... .. . ... ... : --- .. . P84 ... : --- .. . P82 ... : ... .. . ... ...
ROW 76 : ... .. . ... ... ... : ... .. 5 ... ... ... : --- .. . ... : ... .. 1 ... : ... .. . ... ... : ... .. . ... ... : ... .. . ... ... : ... .. . ... ...
ROW 77 : ... .. . ... ... ... : D-3 00 A ... ... ... : G-2 00 . ... : ... .. 8 ... : ... .. . ... ... : D-2 01 9 P80 V03 : A#2 01 9 P80 V03 : ... .. . ... ...
ROW 78 : ... .. . ... ... ... : ... .. 4 ... ... ... : ... .. . ... : ... .. 6 ... : ... .. . ... ... : ... .. 8 ... V01 : ... .. 8 ... V01 : ... .. . ... ...
ROW 79 : ... .. . ... ... ... : ... .. 0 ... ... ... : ... .. . ... : ... .. 3 ... : ... .. . ... ... : ... .. . ... ... : ... .. . ... ... : ... .. . ... ...
ROW 7A : ... .. . ... ... ... : D-3 00 4 P80 ... ... : ... .. . ... : ... .. 1 ... : ... .. . ... ... : --- .. . P84 ... : --- .. . P82 ... : ... .. . ... ...
ROW 7B : ... .. . ... ... ... : ... .. 5 ... ... ... : --- .. . ... : ... .. . ... : ... .. . ... ... : ... .. . ... ... : ... .. . ... ... : ... .. . ... ...
ROW 7C : ... .. . ... ... ... : G-4 00 A ... ... ... : G-2 00 . ... : 1-# 00 D ... : ... .. . ... ... : D-2 01 9 P80 V03 : A#2 01 9 P80 V03 : ... .. . ... ...
ROW 7D : ... .. . ... ... ... : ... .. 4 ... ... ... : ... .. . ... : ... .. . ... : ... .. . ... ... : ... .. 8 ... V01 : ... .. 8 ... V01 : ... .. . ... ...
ROW 7E : ... .. . ... ... ... : ... .. 0 ... ... ... : ... .. . ... : D-# 00 D ... : ... .. . ... ... : ... .. . ... ... : ... .. . ... ... : ... .. . ... ...
ROW 7F : ... .. . ... ... ... : G-4 00 4 P80 ... ... : ... .. . ... : B-# 00 6 ... : ... .. . ... ... : --- .. . P84 ... : --- .. . P82 ... : ... .. . ... ...
ROW 80 : ... .. . ... ... ... : ... .. 5 ... ... ... : ... .. . ... : 7-# 00 1 ... : ... .. . ... ... : ... .. . ... ... : ... .. . ... ... : ... .. . ... ...
ROW 81 : ... .. . ... ... ... : D-4 00 A ... ... ... : ... .. . ... : D-# 00 8 ... : ... .. . ... ... : D-2 01 9 P80 V03 : A#2 01 9 P80 V03 : ... .. . ... ...
ROW 82 : ... .. . ... ... ... : ... .. 4 ... ... ... : ... .. . ... : ... .. 6 ... : ... .. . ... ... : ... .. 8 ... V01 : ... .. 8 ... V01 : ... .. . ... ...
ROW 83 : ... .. . ... ... ... : ... .. 0 ... ... ... : ... .. . ... : ... .. 3 ... : ... .. . ... ... : ... .. . ... ... : ... .. . ... ... : ... .. . ... ...
ROW 84 : ... .. . ... ... ... : D-4 00 4 P80 ... ... : ... .. . ... : ... .. 1 ... : ... .. . ... ... : --- .. . P84 ... : --- .. . P82 ... : ... .. . ... ...
ROW 85 : ... .. . ... ... ... : ... .. 5 ... ... ... : --- .. . ... : ... .. . ... : ... .. . ... ... : ... .. . ... ... : ... .. . ... ... : ... .. . ... ...
ROW 86 : ... .. . ... ... ... : A#3 00 A ... ... ... : G-2 00 . ... : ... .. A ... : ... .. . ... ... : A#2 01 9 P80 V03 : A#4 01 9 P80 V03 : ... .. . ... ...
ROW 87 : ... .. . ... ... ... : ... .. 4 ... ... ... : ... .. . ... : ... .. 8 ... : ... .. . ... ... : ... .. 8 ... V01 : ... .. 8 ... V01 : ... .. . ... ...
ROW 88 : ... .. . ... ... ... : ... .. 0 ... ... ... : ... .. . ... : ... .. 4 ... : ... .. . ... ... : ... .. . ... ... : ... .. . ... ... : ... .. . ... ...
ROW 89 : ... .. . ... ... ... : A#3 00 4 P80 ... ... : ... .. . ... : ... .. 2 ... : ... .. . ... ... : ... .. . ... ... : ... .. . ... ... : ... .. . ... ...
ROW 8A : ... .. . ... ... ... : ... .. 5 ... ... ... : --- .. . ... : ... .. 1 ... : ... .. . ... ... : ... .. . ... ... : ... .. . ... ... : G-3 01 A ... ...
ROW 8B : ... .. . P82 ... ... : G-3 00 A ... ... ... : G-2 00 . ... : ... .. 8 ... : ... .. . ... ... : ... .. . ... ... : ... .. . ... ... : ... .. 8 ... ...
ROW 8C : D#5 00 A P7E ... ... : ... .. 4 ... ... ... : ... .. . ... : ... .. 6 ... : ... .. . ... ... : ... .. . ... ... : ... .. . ... ... : ... .. 5 ... ...
ROW 8D : ... .. . ... ... ... : ... .. 0 ... ... ... : ... .. . ... : ... .. 3 ... : ... .. . ... ... : ... .. 7 ... ... : ... .. 7 ... ... : ... .. . ... ...
ROW 8E : D-5 00 A P81 ... ... : G-3 00 4 P80 ... ... : ... .. . ... : ... .. 1 ... : ... .. . ... ... : --- .. . P82 ... : --- .. . ... ... : --- .. . P7F ...
ROW 8F : ... .. . P7F ... ... : ... .. 5 ... ... ... : --- .. . ... : ... .. . ... : ... .. . ... ... : ... .. . ... ... : ... .. . ... ... : ... .. . ... ...
ROW 90 : C#5 00 A P83 ... ... : A#4 00 A ... ... ... : A#3 00 . ... : 1-# 00 F ... : ... .. . ... ... : D-2 01 9 P80 V03 : A#2 01 9 ... V03 : G-3 01 A P80 ...
ROW 91 : ... .. . ... ... ... : ... .. 4 ... ... ... : G-3 00 . P7B : ... .. C ... : ... .. . ... ... : ... .. 8 ... V01 : ... .. 8 ... V01 : ... .. 8 ... ...
ROW 92 : D-5 00 A P7E ... ... : ... .. 0 ... ... ... : E-3 00 . P7F : ... .. 6 ... : ... .. . ... ... : ... .. . ... ... : ... .. . ... ... : ... .. 5 ... ...
ROW 93 : ... .. . P80 ... ... : A#4 00 4 P80 ... ... : D-3 00 . P77 : ... .. 3 ... : ... .. . ... ... : --- .. . P84 ... : --- .. . P82 ... : ... .. . ... ...
ROW 94 : ... .. . P82 ... ... : ... .. 5 ... ... ... : C-3 00 . P74 : ... .. 2 ... : ... .. . ... ... : ... .. . ... ... : ... .. . ... ... : ... .. . ... ...
ROW 95 : D#5 00 A P7E ... ... : G-4 00 A ... ... ... : A#2 00 . P76 : D-# 00 8 ... : ... .. . ... ... : D-2 01 9 P80 V03 : A#2 01 9 P80 V03 : ... .. . ... ...
ROW 96 : ... .. . ... ... ... : ... .. 4 ... ... ... : G#2 00 . P7F : ... .. 6 ... : ... .. . ... ... : ... .. 8 ... V01 : ... .. 8 ... V01 : ... .. . ... ...
ROW 97 : D-5 00 A P81 ... ... : ... .. 0 ... ... ... : F#2 00 . P8F : ... .. 3 ... : ... .. . ... ... : ... .. . ... ... : ... .. . ... ... : ... .. . ... ...
ROW 98 : ... .. . P80 ... ... : G-4 00 4 P80 ... ... : F-2 00 . P81 : ... .. 1 ... : ... .. . ... ... : --- .. . P84 ... : --- .. . P82 ... : ... .. . ... ...
ROW 99 : C#5 00 A P83 ... ... : ... .. 5 ... ... ... : E-2 00 . P75 : ... .. . ... : ... .. . ... ... : ... .. . ... ... : ... .. . ... ... : ... .. . ... ...
ROW 9A : ... .. . ... ... ... : D-4 00 A ... ... ... : A#3 00 . P80 : ... .. A ... : ... .. . ... ... : D-2 01 9 P80 V03 : A#2 01 9 P80 V03 : ... .. . ... ...
ROW 9B : D-5 00 A P7E ... ... : ... .. 4 ... ... ... : G-3 00 . P7B : ... .. 8 ... : ... .. . ... ... : ... .. 8 ... V01 : ... .. 8 ... V01 : ... .. . ... ...
ROW 9C : ... .. . P80 ... ... : ... .. 0 ... ... ... : E-3 00 . P7F : ... .. 4 ... : ... .. . ... ... : ... .. . ... ... : ... .. . ... ... : ... .. . ... ...
ROW 9D : ... .. . P81 ... ... : D-4 00 4 P80 ... ... : D-3 00 . P77 : ... .. 2 ... : ... .. . ... ... : --- .. . P84 ... : --- .. . P82 ... : ... .. . ... ...
ROW 9E : D#5 00 A P7E ... ... : ... .. 5 ... ... ... : C-3 00 . P74 : ... .. 1 ... : ... .. . ... ... : ... .. . ... ... : ... .. . ... ... : ... .. . ... ...
ROW 9F : ... .. . ... ... ... : A#3 00 A ... ... ... : A#2 00 . P76 : ... .. 8 ... : ... .. . ... ... : D-2 01 9 P80 V03 : A#2 01 9 P80 V03 : ... .. . ... ...
ROW A0 : D-5 00 A P81 ... ... : ... .. 4 ... ... ... : G#2 00 . P7F : ... .. 6 ... : ... .. . ... ... : ... .. 8 ... V01 : ... .. 8 ... V01 : ... .. . ... ...
ROW A1 : ... .. . P80 ... ... : ... .. 0 ... ... ... : F#2 00 . P8F : ... .. 3 ... : ... .. . ... ... : ... .. . ... ... : ... .. . ... ... : ... .. . ... ...
ROW A2 : ... .. . P7E ... ... : A#3 00 4 P80 ... ... : F-2 00 . P81 : ... .. 1 ... : ... .. . ... ... : --- .. . P84 ... : --- .. . P82 ... : ... .. . P88 ...
ROW A3 : C#5 00 A P83 ... ... : ... .. 5 ... ... ... : E-2 00 . P75 : ... .. . ... : ... .. . ... ... : ... .. . ... ... : ... .. . ... ... : G#3 01 5 P7B ...
ROW A4 : ... .. . ... ... ... : D-5 00 A ... ... ... : G-2 00 . P80 : 1-# 00 D ... : ... .. . ... ... : A#2 01 9 P80 V03 : G-4 01 9 P80 V03 : ... .. . P79 ...
ROW A5 : D-5 00 A P80 ... ... : ... .. 4 ... ... ... : ... .. . ... : ... .. . ... : ... .. . ... ... : ... .. 8 ... V01 : ... .. 8 ... V01 : G-3 01 5 P84 ...
ROW A6 : ... .. . P81 ... ... : ... .. 0 ... ... ... : ... .. . ... : D-# 00 D ... : ... .. . ... ... : ... .. . ... ... : ... .. . ... ... : ... .. . P7C ...
ROW A7 : D#5 00 A P7E ... ... : D-5 00 4 P80 ... ... : ... .. . ... : B-# 00 6 ... : ... .. . ... ... : ... .. . ... ... : ... .. . ... ... : F#3 01 5 P89 ...
ROW A8 : ... .. . ... ... ... : ... .. 5 ... ... ... : --- .. . ... : 7-# 00 1 ... : ... .. . ... ... : ... .. . ... ... : ... .. . ... ... : ... .. . P87 ...
ROW A9 : D-5 00 A P82 ... ... : A#4 00 A ... ... ... : G-2 00 . ... : D-# 00 8 ... : ... .. . ... ... : ... .. . ... ... : ... .. . ... ... : G-3 01 5 P78 ...
ROW AA : ... .. . P80 ... ... : ... .. 4 ... ... ... : ... .. . ... : ... .. 6 ... : ... .. . ... ... : ... .. . ... ... : ... .. . ... ... : ... .. . P80 ...
ROW AB : ... .. . P7E ... ... : ... .. 0 ... ... ... : ... .. . ... : ... .. 3 ... : ... .. . ... ... : ... .. 7 ... ... : ... .. 7 ... ... : ... .. . P87 ...
ROW AC : C#5 00 A P83 ... ... : A#4 00 4 P80 ... ... : ... .. . ... : ... .. 1 ... : ... .. . ... ... : --- .. . P82 ... : --- .. . ... ... : G#3 01 5 P7B ...
ROW AD : ... .. . ... ... ... : ... .. 5 ... ... ... : --- .. . ... : ... .. . ... : ... .. . ... ... : ... .. . ... ... : ... .. . ... ... : ... .. . P7A ...
ROW AE : D-5 00 A P7F ... ... : G-4 00 A ... ... ... : G-2 00 . ... : ... .. A ... : ... .. . ... ... : D-2 01 9 P80 V03 : A#2 01 9 ... V03 : G-3 01 5 P85 ...
ROW AF : ... .. 2 P81 ... ... : ... .. 4 ... ... ... : ... .. . ... : ... .. 8 ... : ... .. . ... ... : ... .. 8 ... V01 : ... .. 8 ... V01 : ... .. 2 P7E ...
ROW B0 : D#5 00 2 P7E ... ... : ... .. 0 ... ... ... : ... .. . ... : ... .. 4 ... : ... .. . ... ... : ... .. . ... ... : ... .. . ... ... : F#3 01 2 P8A ...
ROW B1 : ... .. . ... ... ... : G-4 00 4 P80 ... ... : ... .. . ... : ... .. 2 ... : ... .. . ... ... : --- .. . P84 ... : --- .. . P82 ... : ... .. 1 P87 ...
ROW B2 : D-5 00 1 P82 ... ... : ... .. 5 ... ... ... : --- .. . ... : ... .. 1 ... : ... .. . ... ... : ... .. . ... ... : ... .. . ... ... : G-3 01 1 P77 ...
ROW B3 : ... .. . P80 ... ... : D-4 00 A ... ... ... : G-2 00 . ... : ... .. 8 ... : ... .. . ... ... : D-2 01 9 P80 V03 : A#2 01 9 P80 V03 : ... .. . P7F ...
ROW B4 : ... .. . P7E ... ... : ... .. 4 ... ... ... : ... .. . ... : ... .. 6 ... : ... .. . ... ... : ... .. 8 ... V01 : ... .. 8 ... V01 : ... .. . P86 ...
ROW B5 : ... .. 0 ... ... ... : ... .. 0 ... ... ... : ... .. . ... : ... .. 3 ... : ... .. . ... ... : ... .. . ... ... : ... .. . ... ... : G#3 01 1 P7A ...
ROW B6 : ... .. . ... ... ... : D-4 00 4 P80 ... ... : ... .. . ... : ... .. 1 ... : ... .. . ... ... : --- .. . P84 ... : --- .. . P82 ... : G-3 01 1 P80 ...
ROW B7 : ... .. . ... ... ... : ... .. 5 ... ... ... : --- .. . ... : ... .. . ... : ... .. . ... ... : ... .. . ... ... : ... .. . ... ... : ... .. . ... ...
ROW B8 : A-3 00 F P80 ... ... : C-4 00 F ... ... ... : D#3 00 . ... : 1-# 00 F ... : ... .. . ... ... : C-4 01 7 P80 V03 : C-5 01 7 P80 V03 : D#1 01 A ... ...
ROW B9 : ... .. E ... ... ... : ... .. E ... ... ... : ... .. . ... : ... .. C ... : ... .. . ... ... : ... .. 6 ... V01 : ... .. 6 ... V01 : ... .. 8 ... ...
ROW BA : ... .. D ... ... ... : ... .. D ... ... ... : ... .. . ... : ... .. 6 ... : ... .. . ... ... : ... .. . ... ... : ... .. . ... ... : ... .. 5 ... ...
ROW BB : ... .. A ... ... ... : ... .. A ... ... ... : ... .. . ... : ... .. 3 ... : ... .. . ... ... : ... .. . ... ... : ... .. . ... ... : ... .. . ... ...
ROW BC : ... .. . ... ... ... : ... .. . ... ... ... : ... .. . ... : ... .. 2 ... : ... .. . ... ... : ... .. . ... ... : ... .. . ... ... : ... .. . ... ...
ROW BD : ... .. . ... ... ... : ... .. . ... ... ... : ... .. . ... : D-# 00 8 ... : ... .. . ... ... : A#3 01 6 ... V03 : A#4 01 7 ... V03 : ... .. . ... ...
ROW BE : ... .. . ... ... ... : ... .. . ... ... ... : ... .. . ... : ... .. 6 ... : ... .. . ... ... : ... .. 5 ... V01 : ... .. 6 ... V01 : ... .. . ... ...
ROW BF : ... .. . ... ... ... : ... .. . ... ... ... : ... .. . ... : ... .. 3 ... : ... .. . ... ... : ... .. . ... ... : ... .. . ... ... : ... .. . ... ...
ROW C0 : ... .. . ... ... ... : ... .. . ... ... ... : ... .. . ... : ... .. 1 ... : ... .. . ... ... : ... .. . ... ... : ... .. . ... ... : ... .. . ... ...
ROW C1 : ... .. 2 ... ... ... : ... .. 2 ... ... ... : ... .. . ... : ... .. . ... : ... .. . ... ... : ... .. . ... ... : ... .. . ... ... : ... .. . ... ...
ROW C2 : ... .. 8 ... ... ... : ... .. 8 ... ... ... : ... .. . ... : ... .. A ... : ... .. . ... ... : A-3 01 6 ... V03 : A-4 01 7 ... V03 : --- .. . P81 ...
ROW C3 : ... .. 7 ... ... ... : ... .. 7 ... ... ... : ... .. . ... : ... .. 8 ... : ... .. . ... ... : ... .. 5 ... V01 : ... .. 6 ... V01 : ... .. . ... ...
ROW C4 : ... .. 6 ... ... ... : ... .. 6 ... ... ... : ... .. . ... : ... .. 4 ... : ... .. . ... ... : ... .. . ... ... : ... .. . ... ... : ... .. . ... ...
ROW C5 : ... .. 5 ... ... ... : ... .. 5 ... ... ... : ... .. . ... : ... .. 2 ... : ... .. . ... ... : ... .. . ... ... : ... .. . ... ... : ... .. . ... ...
ROW C6 : ... .. . ... ... ... : ... .. . ... ... ... : --- .. . ... : ... .. 1 ... : ... .. . ... ... : ... .. . ... ... : ... .. . ... ... : ... .. . ... ...
ROW C7 : A#3 00 F ... ... ... : D-4 00 F ... ... ... : F-3 00 . ... : 1-# 00 F ... : ... .. . ... ... : G-3 01 6 ... V03 : G-4 01 7 ... V03 : F-1 01 A P80 ...
ROW C8 : ... .. E ... ... ... : ... .. E ... ... ... : ... .. . ... : ... .. C ... : ... .. . ... ... : ... .. 5 ... V01 : ... .. 6 ... V01 : ... .. 8 ... ...
ROW C9 : ... .. D ... ... ... : ... .. D ... ... ... : ... .. . ... : ... .. 6 ... : ... .. . ... ... : ... .. . ... ... : ... .. . ... ... : ... .. 5 ... ...
ROW CA : ... .. A ... ... ... : ... .. A ... ... ... : ... .. . ... : ... .. 3 ... : ... .. . ... ... : ... .. . ... ... : ... .. . ... ... : ... .. . ... ...
ROW CB : ... .. . ... ... ... : ... .. . ... ... ... : ... .. . ... : ... .. 2 ... : ... .. . ... ... : ... .. . ... ... : ... .. . ... ... : ... .. . ... ...
ROW CC : ... .. . ... ... ... : ... .. . ... ... ... : ... .. . ... : D-# 00 8 ... : ... .. . ... ... : F-3 01 6 ... V03 : F-4 01 7 ... V03 : ... .. . ... ...
ROW CD : ... .. . ... ... ... : ... .. . ... ... ... : ... .. . ... : ... .. 6 ... : ... .. . ... ... : ... .. 5 ... V01 : ... .. 6 ... V01 : ... .. . ... ...
ROW CE : ... .. . ... ... ... : ... .. . ... ... ... : ... .. . ... : ... .. 3 ... : ... .. . ... ... : ... .. . ... ... : ... .. . ... ... : ... .. . ... ...
ROW CF : ... .. . ... ... ... : ... .. . ... ... ... : ... .. . ... : ... .. 1 ... : ... .. . ... ... : ... .. . ... ... : ... .. . ... ... : ... .. . ... ...
ROW D0 : ... .. 2 ... ... ... : ... .. 2 ... ... ... : ... .. . ... : ... .. . ... : ... .. . ... ... : ... .. . ... ... : ... .. . ... ... : ... .. . ... ...
ROW D1 : ... .. 8 ... ... ... : ... .. 8 ... ... ... : ... .. . ... : ... .. A ... : ... .. . ... ... : A-3 01 6 ... V03 : A-4 01 7 ... V03 : --- .. . P7F ...
ROW D2 : ... .. 7 ... ... ... : ... .. 7 ... ... ... : ... .. . ... : ... .. 8 ... : ... .. . ... ... : ... .. 5 ... V01 : ... .. 6 ... V01 : ... .. . ... ...
ROW D3 : ... .. 6 ... ... ... : ... .. 6 ... ... ... : ... .. . ... : ... .. 4 ... : ... .. . ... ... : ... .. . ... ... : ... .. . ... ... : ... .. . ... ...
ROW D4 : ... .. 5 ... ... ... : ... .. 5 ... ... ... : ... .. . ... : ... .. 2 ... : ... .. . ... ... : ... .. . ... ... : ... .. . ... ... : ... .. . ... ...
ROW D5 : ... .. . ... ... ... : ... .. . ... ... ... : --- .. . ... : ... .. 1 ... : ... .. . ... ... : ... .. . ... ... : ... .. . ... ... : ... .. . ... ...
ROW D6 : A-3 00 F ... ... ... : C-4 00 F ... ... ... : G-3 00 . ... : 1-# 00 F ... : ... .. . ... ... : G-3 01 6 ... V03 : G-4 01 7 ... V03 : G-1 01 A P80 ...
ROW D7 : ... .. E ... ... ... : ... .. E ... ... ... : ... .. . ... : ... .. C ... : ... .. . ... ... : ... .. 5 ... V01 : ... .. 6 ... V01 : ... .. 8 ... ...
ROW D8 : ... .. D ... ... ... : ... .. D ... ... ... : ... .. . ... : ... .. 6 ... : ... .. . ... ... : ... .. . ... ... : ... .. . ... ... : ... .. 5 ... ...
ROW D9 : ... .. A ... ... ... : ... .. A ... ... ... : ... .. . ... : ... .. 3 ... : ... .. . ... ... : ... .. . ... ... : ... .. . ... ... : ... .. . ... ...
ROW DA : ... .. . ... ... ... : ... .. . ... ... ... : ... .. . ... : ... .. 2 ... : ... .. . ... ... : ... .. . ... ... : ... .. . ... ... : ... .. . ... ...
ROW DB : ... .. . ... ... ... : ... .. . ... ... ... : ... .. . ... : D-# 00 8 ... : ... .. . ... ... : F-3 01 6 ... V03 : F-4 01 7 ... V03 : --- .. . P81 ...
ROW DC : ... .. 2 ... ... ... : ... .. 2 ... ... ... : ... .. . ... : ... .. 6 ... : ... .. . ... ... : ... .. 5 ... V01 : ... .. 6 ... V01 : ... .. . ... ...
ROW DD : ... .. . ... ... ... : ... .. . ... ... ... : ... .. . ... : ... .. 3 ... : ... .. . ... ... : ... .. . ... ... : ... .. . ... ... : ... .. . ... ...
ROW DE : ... .. . ... ... ... : ... .. . ... ... ... : ... .. . ... : ... .. 1 ... : ... .. . ... ... : ... .. . ... ... : ... .. . ... ... : ... .. . ... ...
ROW DF : ... .. 1 ... ... ... : ... .. 1 ... ... ... : --- .. . ... : ... .. . ... : ... .. . ... ... : ... .. . ... ... : ... .. . ... ... : ... .. . ... ...
ROW E0 : G-3 00 F ... ... ... : A#3 00 F ... ... ... : A-3 00 . ... : 3-# 00 D ... : ... .. . ... ... : D#3 01 6 ... V03 : D#4 01 7 ... V03 : A-1 01 A P80 ...
ROW E1 : ... .. E ... ... ... : ... .. E ... ... ... : ... .. . ... : ... .. . ... : ... .. . ... ... : ... .. 5 ... V01 : ... .. 6 ... V01 : ... .. 8 ... ...
ROW E2 : ... .. D ... ... ... : ... .. D ... ... ... : ... .. . ... : F-# 00 D ... : ... .. . ... ... : ... .. . ... ... : ... .. . ... ... : ... .. 5 ... ...
ROW E3 : ... .. A ... ... ... : ... .. A ... ... ... : ... .. . ... : D-# 00 6 ... : ... .. . ... ... : ... .. . ... ... : ... .. . ... ... : ... .. . ... ...
ROW E4 : ... .. . ... ... ... : ... .. . ... ... ... : ... .. . ... : 9-# 00 1 ... : ... .. . ... ... : ... .. . ... ... : ... .. . ... ... : ... .. . ... ...
ROW E5 : ... .. . ... ... ... : ... .. . ... ... ... : ... .. . ... : ... .. 0 ... : ... .. . ... ... : D-3 01 6 ... V03 : D-4 01 7 ... V03 : ... .. . ... ...
ROW E6 : ... .. . ... ... ... : ... .. . ... ... ... : ... .. . ... : ... .. . ... : ... .. . ... ... : ... .. 5 ... V01 : ... .. 6 ... V01 : ... .. . ... ...
ROW E7 : ... .. . ... ... ... : ... .. . ... ... ... : ... .. . ... : ... .. . ... : ... .. . ... ... : ... .. . ... ... : ... .. . ... ... : ... .. . ... ...
ROW E8 : ... .. . ... ... ... : ... .. . ... ... ... : ... .. . ... : ... .. . ... : ... .. . ... ... : ... .. . ... ... : ... .. . ... ... : ... .. . ... ...
ROW E9 : ... .. 2 ... ... ... : ... .. 2 ... ... ... : ... .. . ... : ... .. . ... : ... .. . ... ... : ... .. . ... ... : ... .. . ... ... : ... .. . ... ...
ROW EA : ... .. 8 ... ... ... : ... .. 8 ... ... ... : ... .. . ... : 1-# 00 F ... : ... .. . ... ... : C-3 01 6 ... V03 : C-4 01 7 ... V03 : ... .. . ... ...
ROW EB : ... .. 7 ... ... ... : ... .. 7 ... ... ... : ... .. . ... : ... .. C ... : ... .. . ... ... : ... .. 5 ... V01 : ... .. 6 ... V01 : ... .. . ... ...
ROW EC : ... .. 6 ... ... ... : ... .. 6 ... ... ... : ... .. . ... : ... .. 6 ... : ... .. . ... ... : ... .. . ... ... : ... .. . ... ... : ... .. . ... ...
ROW ED : ... .. 5 ... ... ... : ... .. 5 ... ... ... : ... .. . ... : ... .. 3 ... : ... .. . ... ... : ... .. . ... ... : ... .. . ... ... : ... .. . ... ...
ROW EE : ... .. . ... ... ... : ... .. . ... ... ... : ... .. . ... : ... .. 2 ... : ... .. . ... ... : ... .. . ... ... : ... .. . ... ... : ... .. . ... ...
ROW EF : ... .. . ... ... ... : ... .. . ... ... ... : ... .. . ... : ... .. F ... : ... .. . ... ... : A#2 01 6 ... V03 : A#3 01 7 ... V03 : --- .. . P7F ...
ROW F0 : ... .. 1 ... ... ... : ... .. 1 ... ... ... : ... .. . ... : ... .. C ... : ... .. . ... ... : ... .. 5 ... V01 : ... .. 6 ... V01 : ... .. . ... ...
ROW F1 : ... .. . ... ... ... : ... .. . ... ... ... : ... .. . ... : ... .. 6 ... : ... .. . ... ... : ... .. . ... ... : ... .. . ... ... : ... .. . ... ...
ROW F2 : ... .. . ... ... ... : ... .. . ... ... ... : ... .. . ... : ... .. 3 ... : ... .. . ... ... : ... .. . ... ... : ... .. . ... ... : ... .. . ... ...
ROW F3 : ... .. . ... ... ... : ... .. . ... ... ... : --- .. . ... : ... .. 2 ... : ... .. . ... ... : ... .. . ... ... : ... .. . ... ... : ... .. . ... ...
ROW F4 : D-3 00 F ... ... ... : A-3 00 F ... ... ... : D-3 00 . ... : 3-# 00 D ... : ... .. . ... ... : A-2 01 6 ... V03 : A-3 01 7 ... V03 : D-2 01 A P80 ...
ROW F5 : ... .. E ... ... ... : ... .. E ... ... ... : ... .. . ... : ... .. . ... : ... .. . ... ... : ... .. 5 ... V01 : ... .. 6 ... V01 : ... .. 8 ... ...
ROW F6 : ... .. D ... ... ... : ... .. D ... ... ... : ... .. . ... : F-# 00 D ... : ... .. . ... ... : ... .. . ... ... : ... .. . ... ... : ... .. 5 ... ...
ROW F7 : ... .. A ... ... ... : ... .. A ... ... ... : ... .. . ... : D-# 00 6 ... : ... .. . ... ... : ... .. . ... ... : ... .. . ... ... : ... .. . ... ...
ROW F8 : ... .. . ... ... ... : ... .. . ... ... ... : ... .. . ... : 9-# 00 1 ... : ... .. . ... ... : ... .. . ... ... : ... .. . ... ... : ... .. . ... ...
ROW F9 : ... .. . ... ... ... : ... .. . ... ... ... : ... .. . ... : 3-# 00 D ... : ... .. . ... ... : G-2 01 6 ... V03 : G-3 01 7 ... V03 : ... .. . ... ...
ROW FA : ... .. . ... ... ... : ... .. . ... ... ... : ... .. . ... : ... .. . ... : ... .. . ... ... : ... .. 5 ... V01 : ... .. 6 ... V01 : ... .. . ... ...
ROW FB : ... .. . ... ... ... : ... .. . ... ... ... : ... .. . ... : F-# 00 D ... : ... .. . ... ... : ... .. . ... ... : ... .. . ... ... : ... .. . ... ...
ROW FC : ... .. . ... ... ... : ... .. . ... ... ... : ... .. . ... : D-# 00 6 ... : ... .. . ... ... : ... .. . ... ... : ... .. . ... ... : ... .. . ... ...
ROW FD : ... .. 2 ... ... ... : ... .. 2 ... ... ... : ... .. . ... : 9-# 00 1 ... : ... .. . ... ... : ... .. . ... ... : ... .. . ... ... : ... .. . ... ...
ROW FE : ... .. 8 ... ... ... : ... .. 8 ... ... ... : ... .. . ... : 1-# 00 F ... : ... .. . ... ... : F-2 01 6 ... V03 : F-3 01 7 ... V03 : ... .. . ... ...
ROW FF : ... .. 7 ... ... ... : ... .. 7 ... ... ... : ... .. . ... : ... .. C ... : ... .. . ... ... : ... .. 5 ... V01 : ... .. 6 ... V01 : ... .. . ... ...

PATTERN 0C
ROW 00 : ... .. 6 ... ... ... : ... .. 6 ... ... ... : ... .. . ... : ... .. 6 ... : ... .. . ... ... : ... .. . ... ... : ... .. . ... ... : ... .. . ... ...
ROW 01 : ... .. 5 ... ... ... : ... .. 5 ... ... ... : ... .. . ... : ... .. 3 ... : ... .. . ... ... : ... .. . ... ... : ... .. . ... ... : --- .. . ... ...
ROW 02 : ... .. . ... ... ... : ... .. . ... ... ... : ... .. . ... : ... .. 2 ... : ... .. . ... ... : ... .. . ... ... : ... .. . ... ... : ... .. . ... ...
ROW 03 : ... .. . ... ... ... : ... .. . ... ... ... : ... .. . ... : ... .. F ... : ... .. . ... ... : D#2 01 6 ... V03 : D#3 01 7 ... V03 : ... .. . ... ...
ROW 04 : ... .. 1 ... ... ... : ... .. 1 ... ... ... : ... .. . ... : ... .. C ... : ... .. . ... ... : ... .. 5 ... V01 : ... .. 6 ... V01 : ... .. . ... ...
ROW 05 : ... .. . ... ... ... : ... .. . ... ... ... : ... .. . ... : ... .. 6 ... : ... .. . ... ... : ... .. . ... ... : ... .. . ... ... : ... .. . ... ...
ROW 06 : ... .. . ... ... ... : ... .. . ... ... ... : ... .. . ... : ... .. 3 ... : ... .. . ... ... : ... .. . ... ... : ... .. . ... ... : ... .. . ... ...
ROW 07 : ... .. . ... ... ... : ... .. . ... ... ... : --- .. . ... : ... .. 2 ... : ... .. . ... ... : ... .. . ... ... : ... .. . ... ... : ... .. . ... ...
ROW 08 : ... .. F ... ... ... : G-4 00 8 ... ... ... : A#3 00 . ... : ... .. F ... : ... .. . Z00 ... : G-3 01 A P7F V03 : D-3 01 8 P81 V03 : B-2 01 C ... ...
ROW 09 : ... .. E ... ... ... : ... .. 3 ... ... ... : G-3 00 . P7B : ... .. C ... : ... .. . ... ... : ... .. 9 ... ... : ... .. 7 ... ... : ... .. A ... ...
ROW 0A : ... .. D ... ... ... : ... .. 0 ... ... ... : E-3 00 . P7F : ... .. 6 ... : ... .. . ... ... : ... .. 8 ... ... : ... .. 6 ... ... : ... .. 6 ... ...
ROW 0B : ... .. A ... ... ... : G-4 00 3 P80 ... ... : D-3 00 . P77 : ... .. 3 ... : ... .. . ... ... : ... .. 7 ... ... : ... .. 5 ... ... : ... .. . ... ...
ROW 0C : ... .. . ... ... ... : ... .. 4 ... ... ... : C-3 00 . P74 : ... .. 2 ... : ... .. . ... ... : ... .. . ... ... : ... .. . ... ... : ... .. . ... ...
ROW 0D : ... .. . ... ... ... : D-4 00 8 ... ... ... : A#2 00 . P76 : D-# 00 8 ... : ... .. . ... ... : ... .. 6 ... ... : ... .. 4 ... ... : ... .. . ... ...
ROW 0E : ... .. . ... ... ... : ... .. 3 ... ... ... : G#2 00 . P7F : ... .. 6 ... : ... .. . ... ... : ... .. . ... ... : ... .. . ... ... : ... .. . ... ...
ROW 0F : ... .. . ... ... ... : ... .. 0 ... ... ... : F#2 00 . P8F : ... .. 3 ... : ... .. . ... ... : ... .. 5 ... ... : ... .. . ... ... : ... .. . ... ...
ROW 10 : ... .. . ... ... ... : D-4 00 3 P80 ... ... : --- .. . ... : ... .. 1 ... : ... .. . ... ... : ... .. . ... ... : ... .. . ... ... : ... .. . ... ...
ROW 11 : ... .. . ... ... ... : ... .. 4 ... ... ... : ... .. . ... : ... .. . ... : ... .. . ... ... : ... .. . ... ... : ... .. . ... ... : ... .. . ... ...
ROW 12 : ... .. . ... ... ... : B-3 00 8 ... ... ... : G-2 00 . P80 : ... .. A ... : ... .. . ... ... : ... .. . ... ... : ... .. . ... ... : ... .. . ... ...
ROW 13 : ... .. . ... ... ... : ... .. 3 ... ... ... : ... .. . ... : ... .. 8 ... : ... .. . ... ... : ... .. . ... ... : ... .. . ... ... : ... .. . ... ...
ROW 14 : ... .. . ... ... ... : ... .. 0 ... ... ... : ... .. . ... : ... .. 4 ... : ... .. . ... ... : ... .. . ... ... : ... .. . ... ... : ... .. . ... ...
ROW 15 : ... .. . ... ... ... : B-3 00 3 P80 ... ... : ... .. . ... : ... .. 2 ... : ... .. . ... ... : ... .. . ... ... : ... .. . ... ... : ... .. . ... ...
ROW 16 : ... .. . ... ... ... : ... .. 4 ... ... ... : ... .. . ... : ... .. 1 ... : ... .. . ... ... : ... .. . ... ... : ... .. . ... ... : ... .. . ... ...
ROW 17 : ... .. . ... ... ... : G-3 00 8 ... ... ... : ... .. . ... : ... .. 8 ... : ... .. . ... ... : ... .. . ... ... : ... .. . ... ... : ... .. . ... ...
ROW 18 : ... .. . ... ... ... : ... .. 3 ... ... ... : ... .. . ... : ... .. 6 ... : ... .. . ... ... : ... .. . ... ... : ... .. . ... ... : ... .. . ... ...
ROW 19 : ... .. . ... ... ... : ... .. 0 ... ... ... : ... .. . ... : ... .. 3 ... : ... .. . ... ... : ... .. . ... ... : ... .. . ... ... : ... .. . ... ...
ROW 1A : ... .. . ... ... ... : G-3 00 3 P80 ... ... : --- .. . ... : ... .. 1 ... : ... .. . ... ... : ... .. . ... ... : ... .. . ... ... : ... .. . ... ...
ROW 1B : ... .. . ... ... ... : ... .. 4 ... ... ... : ... .. . ... : ... .. . ... : ... .. . ... ... : ... .. . ... ... : ... .. . ... ... : ... .. . ... ...
ROW 1C : ... .. . ... ... ... : G-4 00 8 ... ... ... : G-3 00 . ... : 1-# 00 D ... : ... .. . ... ... : ... .. . ... ... : ... .. . ... ... : ... .. . ... ...
ROW 1D : ... .. . ... ... ... : ... .. 3 ... ... ... : ... .. . ... : ... .. . ... : ... .. . ... ... : ... .. . ... ... : ... .. . ... ... : ... .. . ... ...
ROW 1E : ... .. . ... ... ... : ... .. 0 ... ... ... : ... .. . ... : D-# 00 D ... : ... .. . ... ... : ... .. . ... ... : ... .. . ... ... : ... .. . ... ...
ROW 1F : ... .. . ... ... ... : G-4 00 3 P80 ... ... : ... .. . ... : B-# 00 6 ... : ... .. . ... ... : ... .. . ... ... : ... .. . ... ... : ... .. . ... ...
ROW 20 : ... .. . ... ... ... : ... .. 4 ... ... ... : --- .. . ... : 7-# 00 1 ... : ... .. . ... ... : ... .. . ... ... : ... .. . ... ... : ... .. . ... ...
ROW 21 : ... .. . P84 ... ... : D-4 00 8 ... ... ... : G-3 00 . ... : D-# 00 8 ... : ... .. . ... ... : ... .. . ... ... : ... .. . ... ... : ... .. . ... ...
ROW 22 : ... .. . P86 ... ... : ... .. 3 ... ... ... : ... .. . ... : ... .. 6 ... : ... .. . ... ... : ... .. . ... ... : ... .. . ... ... : ... .. . ... ...
ROW 23 : ... .. . P85 ... ... : ... .. 0 ... ... ... : ... .. . ... : ... .. 3 ... : ... .. . ... ... : ... .. . ... ... : ... .. . ... ... : ... .. . ... ...
ROW 24 : ... .. . P82 ... ... : D-4 00 3 P80 ... ... : ... .. . ... : ... .. 1 ... : ... .. . ... ... : ... .. . ... ... : ... .. . ... ... : ... .. . ... ...
ROW 25 : ... .. . P7E ... ... : ... .. 4 ... ... ... : --- .. . ... : ... .. . ... : ... .. . ... ... : ... .. . ... ... : ... .. . ... ... : ... .. . ... ...
ROW 26 : ... .. . P7B ... ... : B-3 00 8 ... ... ... : G-2 00 . ... : ... .. A ... : ... .. . ... ... : ... .. . ... ... : ... .. . ... ... : ... .. . ... ...
ROW 27 : ... .. . P7A ... ... : ... .. 3 ... ... ... : ... .. . ... : ... .. 8 ... : ... .. . ... ... : ... .. . ... ... : ... .. . ... ... : ... .. . ... ...
ROW 28 : ... .. . P7C ... ... : ... .. 0 ... ... ... : ... .. . ... : ... .. 4 ... : ... .. . ... ... : ... .. . ... ... : ... .. . ... ... : ... .. . ... ...
ROW 29 : ... .. . P80 ... ... : B-3 00 3 P80 ... ... : ... .. . ... : ... .. 2 ... : ... .. . ... ... : ... .. . ... ... : ... .. . ... ... : ... .. . ... ...
ROW 2A : ... .. . P83 ... ... : ... .. 4 ... ... ... : --- .. . ... : ... .. 1 ... : ... .. . ... ... : ... .. . ... ... : ... .. . ... ... : ... .. . ... ...
ROW 2B : ... .. . P86 ... ... : G-3 00 8 ... ... ... : G-2 00 . ... : ... .. 8 ... : ... .. . ... ... : ... .. . ... ... : ... .. . ... ... : ... .. . ... ...
ROW 2C : ... .. 2 ... ... ... : ... .. 3 ... ... ... : ... .. . ... : ... .. 6 ... : ... .. . ... ... : ... .. . ... ... : ... .. . ... ... : ... .. . ... ...
ROW 2D : ... .. . P82 ... ... : ... .. 0 ... ... ... : ... .. . ... : ... .. 3 ... : ... .. . ... ... : ... .. . ... ... : ... .. . ... ... : ... .. . ... ...
ROW 2E : ... .. . P7F ... ... : G-3 00 3 P80 ... ... : ... .. . ... : ... .. 1 ... : ... .. . ... ... : ... .. . ... ... : ... .. . ... ... : ... .. . ... ...
ROW 2F : ... .. 1 P7B ... ... : ... .. 4 ... ... ... : --- .. . ... : ... .. . ... : ... .. . ... ... : ... .. . ... ... : ... .. . ... ... : ... .. . ... ...
ROW 30 : G-2 00 F P80 ... ... : G-4 00 8 ... ... ... : A#3 00 . ... : 1-# 00 F ... : ... .. . ... ... : ... .. . ... ... : ... .. . ... ... : ... .. . ... ...
ROW 31 : ... .. E ... ... ... : ... .. 3 ... ... ... : G-3 00 . P7B : ... .. C ... : ... .. . ... ... : ... .. . ... ... : ... .. . ... ... : ... .. . ... ...
ROW 32 : ... .. D ... ... ... : ... .. 0 ... ... ... : E-3 00 . P7F : ... .. 6 ... : ... .. . ... ... : ... .. . ... ... : ... .. . ... ... : ... .. . ... ...
ROW 33 : ... .. A ... ... ... : G-4 00 3 P80 ... ... : D-3 00 . P77 : ... .. 3 ... : ... .. . ... ... : ... .. . ... ... : ... .. . ... ... : ... .. . ... ...
ROW 34 : ... .. 2 ... ... ... : ... .. 4 ... ... ... : C-3 00 . P74 : ... .. 2 ... : ... .. . ... ... : ... .. . ... ... : ... .. . ... ... : ... .. . ... ...
ROW 35 : ... .. F ... ... ... : D-4 00 8 ... ... ... : A#2 00 . P76 : D-# 00 8 ... : ... .. . ... ... : ... .. . ... ... : ... .. . ... ... : ... .. . ... ...
ROW 36 : ... .. E ... ... ... : ... .. 3 ... ... ... : G#2 00 . P7F : ... .. 6 ... : ... .. . ... ... : ... .. . ... ... : ... .. . ... ... : ... .. . ... ...
ROW 37 : ... .. D ... ... ... : ... .. 0 ... ... ... : F#2 00 . P8F : ... .. 3 ... : ... .. . ... ... : ... .. . ... ... : ... .. . ... ... : ... .. . ... ...
ROW 38 : ... .. A ... ... ... : D-4 00 3 P80 ... ... : --- .. . ... : ... .. 1 ... : ... .. . ... ... : ... .. . ... ... : ... .. . ... ... : ... .. . ... ...
ROW 39 : ... .. 2 ... ... ... : ... .. 4 ... ... ... : ... .. . ... : ... .. . ... : ... .. . ... ... : ... .. . ... ... : ... .. . ... ... : ... .. . ... ...
ROW 3A : G-1 00 F ... ... ... : B-3 00 8 ... ... ... : A#3 00 . P80 : ... .. A ... : ... .. . ... ... : ... .. . ... ... : ... .. . ... ... : ... .. . ... ...
ROW 3B : ... .. E ... ... ... : ... .. 3 ... ... ... : G-3 00 . P7B : ... .. 8 ... : ... .. . ... ... : ... .. . ... ... : ... .. . ... ... : ... .. 3 ... ...
ROW 3C : ... .. D ... ... ... : ... .. 0 ... ... ... : E-3 00 . P7F : ... .. 4 ... : ... .. . ... ... : ... .. 3 ... ... : ... .. 2 ... ... : ... .. . ... ...
ROW 3D : ... .. A ... ... ... : B-3 00 3 P80 ... ... : D-3 00 . P77 : ... .. 2 ... : ... .. . ... ... : ... .. . ... ... : ... .. . ... ... : ... .. 1 ... ...
ROW 3E : ... .. 2 ... ... ... : ... .. 4 ... ... ... : C-3 00 . P74 : ... .. 1 ... : ... .. . ... ... : ... .. . ... ... : ... .. . ... ... : ... .. . ... ...
ROW 3F : ... .. F ... ... ... : G-3 00 8 ... ... ... : A#2 00 . P76 : ... .. 8 ... : ... .. . ... ... : ... .. . ... ... : ... .. . ... ... : ... .. . ... ...
ROW 40 : ... .. E ... ... ... : ... .. 3 ... ... ... : G#2 00 . P7F : ... .. 6 ... : ... .. . ... ... : ... .. . ... ... : ... .. . ... ... : ... .. . ... ...
ROW 41 : ... .. D ... ... ... : ... .. 0 ... ... ... : F#2 00 . P8F : ... .. 3 ... : ... .. . ... ... : ... .. . ... ... : ... .. . ... ... : ... .. . ... ...
ROW 42 : ... .. A ... ... ... : G-3 00 3 P80 ... ... : --- .. . ... : ... .. 1 ... : ... .. . ... ... : ... .. . ... ... : ... .. . ... ... : ... .. . ... ...
ROW 43 : ... .. 2 ... ... ... : ... .. 4 ... ... ... : ... .. . ... : ... .. . ... : ... .. . ... ... : ... .. . ... ... : ... .. . ... ... : ... .. . ... ...
ROW 44 : G-2 00 F ... ... ... : G-4 00 8 ... ... ... : G-3 00 . P80 : 1-# 00 D ... : ... .. . ... ... : D-3 01 A ... ... : B-2 01 8 ... ... : G-2 01 C ... ...
ROW 45 : ... .. E ... ... ... : ... .. 3 ... ... ... : ... .. . ... : ... .. . ... : ... .. . ... ... : ... .. 9 ... ... : ... .. 7 ... ... : ... .. A ... ...
ROW 46 : ... .. D ... ... ... : ... .. 0 ... ... ... : ... .. . ... : D-# 00 D ... : ... .. . ... ... : ... .. 8 ... ... : ... .. 6 ... ... : ... .. 6 ... ...
ROW 47 : ... .. A ... ... ... : G-4 00 3 P80 ... ... : ... .. . ... : B-# 00 6 ... : ... .. . ... ... : ... .. 7 ... ... : ... .. 5 ... ... : ... .. . ... ...
ROW 48 : ... .. 2 ... ... ... : ... .. 4 ... ... ... : --- .. . ... : 7-# 00 1 ... : ... .. . ... ... : ... .. . ... ... : ... .. . ... ... : ... .. . ... ...
ROW 49 : ... .. F ... ... ... : D-4 00 8 ... ... ... : G-3 00 . ... : D-# 00 8 ... : ... .. . ... ... : ... .. 6 ... ... : ... .. 4 ... ... : ... .. . ... ...
ROW 4A : ... .. E ... ... ... : ... .. 3 ... ... ... : ... .. . ... : ... .. 6 ... : ... .. . ... ... : ... .. . ... ... : ... .. . ... ... : ... .. . ... ...
ROW 4B : ... .. D ... ... ... : ... .. 0 ... ... ... : ... .. . ... : ... .. 3 ... : ... .. . ... ... : ... .. 5 ... ... : ... .. . ... ... : ... .. . ... ...
ROW 4C : ... .. A ... ... ... : D-4 00 3 P80 ... ... : ... .. . ... : ... .. 1 ... : ... .. . ... ... : ... .. . ... ... : ... .. . ... ... : ... .. . ... ...
ROW 4D : ... .. 2 ... ... ... : ... .. 4 ... ... ... : --- .. . ... : ... .. . ... : ... .. . ... ... : ... .. . ... ... : ... .. . ... ... : ... .. . ... ...
ROW 4E : G-3 00 F ... ... ... : B-3 00 8 ... ... ... : G-2 00 . ... : ... .. A ... : ... .. . ... ... : ... .. . ... ... : ... .. . ... ... : ... .. . ... ...
ROW 4F : ... .. E ... ... ... : ... .. 3 ... ... ... : ... .. . ... : ... .. 8 ... : ... .. . ... ... : ... .. . ... ... : ... .. . ... ... : ... .. . ... ...
ROW 50 : ... .. D ... ... ... : ... .. 0 ... ... ... : ... .. . ... : ... .. 4 ... : ... .. . ... ... : ... .. . ... ... : ... .. . ... ... : ... .. . ... ...
ROW 51 : ... .. A ... ... ... : B-3 00 3 P80 ... ... : ... .. . ... : ... .. 2 ... : ... .. . ... ... : ... .. . ... ... : ... .. . ... ... : ... .. . ... ...
ROW 52 : ... .. . ... ... ... : ... .. 4 ... ... ... : --- .. . ... : ... .. 1 ... : ... .. . ... ... : ... .. . ... ... : ... .. . ... ... : ... .. . ... ...
ROW 53 : ... .. . ... ... ... : G-3 00 8 ... ... ... : G-2 00 . ... : ... .. 8 ... : ... .. . ... ... : ... .. . ... ... : ... .. . ... ... : ... .. . ... ...
ROW 54 : ... .. . ... ... ... : ... .. 3 ... ... ... : ... .. . ... : ... .. 6 ... : ... .. . ... ... : ... .. . ... ... : ... .. . ... ... : ... .. . ... ...
ROW 55 : ... .. . ... ... ... : ... .. 0 ... ... ... : ... .. . ... : ... .. 3 ... : ... .. . ... ... : ... .. . ... ... : ... .. . ... ... : ... .. . ... ...
ROW 56 : ... .. . ... ... ... : G-3 00 3 P80 ... ... : ... .. . ... : ... .. 1 ... : ... .. . ... ... : ... .. . ... ... : ... .. . ... ... : ... .. . ... ...
ROW 57 : ... .. . ... ... ... : ... .. 4 ... ... ... : --- .. . ... : ... .. . ... : ... .. . ... ... : ... .. . ... ... : ... .. . ... ... : ... .. . ... ...
ROW 58 : F-3 00 F ... ... ... : F-4 00 8 ... ... ... : A#3 00 . ... : 1-# 00 F ... : ... .. . ... ... : A-3 01 A ... ... : D-3 01 8 ... ... : A-2 01 C ... ...
ROW 59 : ... .. E ... ... ... : ... .. 3 ... ... ... : G-3 00 . P7B : ... .. C ... : ... .. . ... ... : ... .. 9 ... ... : ... .. 7 ... ... : ... .. A ... ...
ROW 5A : ... .. D ... ... ... : ... .. 0 ... ... ... : E-3 00 . P7F : ... .. 6 ... : ... .. . ... ... : ... .. 8 ... ... : ... .. 6 ... ... : ... .. 6 ... ...
ROW 5B : ... .. A ... ... ... : F-4 00 3 P80 ... ... : D-3 00 . P77 : ... .. 3 ... : ... .. . ... ... : ... .. 7 ... ... : ... .. 5 ... ... : ... .. . ... ...
ROW 5C : ... .. 2 ... ... ... : ... .. 4 ... ... ... : C-3 00 . P74 : ... .. 2 ... : ... .. . ... ... : ... .. . ... ... : ... .. . ... ... : ... .. . ... ...
ROW 5D : E-3 00 F ... ... ... : D-4 00 8 ... ... ... : A#2 00 . P76 : D-# 00 8 ... : ... .. . ... ... : ... .. 6 ... ... : ... .. 4 ... ... : ... .. . ... ...
ROW 5E : ... .. E ... ... ... : ... .. 3 ... ... ... : G#2 00 . P7F : ... .. 6 ... : ... .. . ... ... : ... .. . ... ... : ... .. . ... ... : ... .. . ... ...
ROW 5F : ... .. D ... ... ... : ... .. 0 ... ... ... : F#2 00 . P8F : ... .. 3 ... : ... .. . ... ... : ... .. 5 ... ... : ... .. . ... ... : ... .. . ... ...
ROW 60 : ... .. A ... ... ... : D-4 00 3 P80 ... ... : --- .. . ... : ... .. 1 ... : ... .. . ... ... : ... .. . ... ... : ... .. . ... ... : ... .. . ... ...
ROW 61 : ... .. 2 ... ... ... : ... .. 4 ... ... ... : ... .. . ... : ... .. . ... : ... .. . ... ... : ... .. . ... ... : ... .. . ... ... : ... .. . ... ...
ROW 62 : F-3 00 F ... ... ... : A-3 00 8 ... ... ... : D-3 00 . P80 : ... .. A ... : ... .. . ... ... : ... .. . ... ... : ... .. . ... ... : ... .. . ... ...
ROW 63 : ... .. E ... ... ... : ... .. 3 ... ... ... : ... .. . ... : ... .. 8 ... : ... .. . ... ... : ... .. . ... ... : ... .. . ... ... : ... .. . ... ...
ROW 64 : ... .. D ... ... ... : ... .. 0 ... ... ... : ... .. . ... : ... .. 4 ... : ... .. . ... ... : ... .. . ... ... : ... .. . ... ... : ... .. . ... ...
ROW 65 : ... .. A ... ... ... : A-3 00 3 P80 ... ... : ... .. . ... : ... .. 2 ... : ... .. . ... ... : ... .. . ... ... : ... .. . ... ... : ... .. . ... ...
ROW 66 : ... .. . ... ... ... : ... .. 4 ... ... ... : ... .. . ... : ... .. 1 ... : ... .. . ... ... : ... .. . ... ... : ... .. . ... ... : ... .. . ... ...
ROW 67 : ... .. . ... ... ... : F-3 00 8 ... ... ... : ... .. . ... : ... .. 8 ... : ... .. . ... ... : ... .. . ... ... : ... .. . ... ... : ... .. . ... ...
ROW 68 : ... .. . ... ... ... : ... .. 3 ... ... ... : ... .. . ... : ... .. 6 ... : ... .. . ... ... : ... .. . ... ... : ... .. . ... ... : ... .. . ... ...
ROW 69 : ... .. . ... ... ... : ... .. 0 ... ... ... : ... .. . ... : ... .. 3 ... : ... .. . ... ... : ... .. . ... ... : ... .. . ... ... : ... .. . ... ...
ROW 6A : ... .. . ... ... ... : F-3 00 3 P80 ... ... : --- .. . ... : ... .. 1 ... : ... .. . ... ... : ... .. . ... ... : ... .. . ... ... : ... .. . ... ...
ROW 6B : ... .. . ... ... ... : ... .. 4 ... ... ... : ... .. . ... : ... .. . ... : ... .. . ... ... : ... .. . ... ... : ... .. . ... ... : ... .. . ... ...
ROW 6C : ... .. . ... ... ... : F-4 00 8 ... ... ... : E-3 00 . ... : 1-# 00 D ... : ... .. . ... ... : ... .. . ... ... : ... .. . ... ... : ... .. . ... ...
ROW 6D : ... .. . ... ... ... : ... .. 3 ... ... ... : ... .. . ... : ... .. . ... : ... .. . ... ... : ... .. . ... ... : ... .. . ... ... : ... .. . ... ...
ROW 6E : ... .. . ... ... ... : ... .. 0 ... ... ... : ... .. . ... : D-# 00 D ... : ... .. . ... ... : ... .. . ... ... : ... .. . ... ... : ... .. . ... ...
ROW 6F : ... .. . ... ... ... : F-4 00 3 P80 ... ... : ... .. . ... : B-# 00 6 ... : ... .. . ... ... : ... .. . ... ... : ... .. . ... ... : ... .. . ... ...
ROW 70 : ... .. . ... ... ... : ... .. 4 ... ... ... : --- .. . ... : 7-# 00 1 ... : ... .. . ... ... : ... .. . ... ... : ... .. . ... ... : ... .. . ... ...
ROW 71 : ... .. . P84 ... ... : D-4 00 8 ... ... ... : E-3 00 . ... : D-# 00 8 ... : ... .. . ... ... : ... .. . ... ... : ... .. . ... ... : ... .. . ... ...
ROW 72 : ... .. . P86 ... ... : ... .. 3 ... ... ... : ... .. . ... : ... .. 6 ... : ... .. . ... ... : ... .. . ... ... : ... .. . ... ... : ... .. . ... ...
ROW 73 : ... .. . P85 ... ... : ... .. 0 ... ... ... : ... .. . ... : ... .. 3 ... : ... .. . ... ... : ... .. . ... ... : ... .. . ... ... : ... .. . ... ...
ROW 74 : ... .. . P82 ... ... : D-4 00 3 P80 ... ... : ... .. . ... : ... .. 1 ... : ... .. . ... ... : ... .. . ... ... : ... .. . ... ... : ... .. . ... ...
ROW 75 : ... .. . P7E ... ... : ... .. 4 ... ... ... : --- .. . ... : ... .. . ... : ... .. . ... ... : ... .. . ... ... : ... .. . ... ... : ... .. . ... ...
ROW 76 : ... .. . P7B ... ... : A-3 00 8 ... ... ... : E-2 00 . ... : ... .. A ... : ... .. . ... ... : ... .. . ... ... : ... .. . ... ... : ... .. . ... ...
ROW 77 : ... .. . P7A ... ... : ... .. 3 ... ... ... : ... .. . ... : ... .. 8 ... : ... .. . ... ... : ... .. . ... ... : ... .. . ... ... : ... .. . ... ...
ROW 78 : ... .. . P7C ... ... : ... .. 0 ... ... ... : ... .. . ... : ... .. 4 ... : ... .. . ... ... : ... .. . ... ... : ... .. . ... ... : ... .. . ... ...
ROW 79 : ... .. . P80 ... ... : A-3 00 3 P80 ... ... : ... .. . ... : ... .. 2 ... : ... .. . ... ... : ... .. . ... ... : ... .. . ... ... : ... .. . ... ...
ROW 7A : ... .. . P83 ... ... : ... .. 4 ... ... ... : --- .. . ... : ... .. 1 ... : ... .. . ... ... : ... .. . ... ... : ... .. . ... ... : ... .. . ... ...
ROW 7B : ... .. . P86 ... ... : F-3 00 8 ... ... ... : E-2 00 . ... : ... .. 8 ... : ... .. . ... ... : ... .. . ... ... : ... .. . ... ... : ... .. . ... ...
ROW 7C : ... .. . ... ... ... : ... .. 3 ... ... ... : ... .. . ... : ... .. 6 ... : ... .. . ... ... : ... .. . ... ... : ... .. . ... ... : ... .. 3 ... ...
ROW 7D : ... .. . P82 ... ... : ... .. 0 ... ... ... : ... .. . ... : ... .. 3 ... : ... .. . ... ... : ... .. 3 ... ... : ... .. 2 ... ... : ... .. . ... ...
ROW 7E : ... .. . P7F ... ... : F-3 00 3 P80 ... ... : ... .. . ... : ... .. 1 ... : ... .. . ... ... : ... .. . ... ... : ... .. . ... ... : ... .. 1 ... ...
ROW 7F : ... .. . P7B ... ... : ... .. 4 ... ... ... : --- .. . ... : ... .. . ... : ... .. . ... ... : ... .. . ... ... : ... .. . ... ... : ... .. . ... ...
ROW 80 : D-3 00 F P80 ... ... : F-4 00 8 ... ... ... : A#3 00 . ... : 1-# 00 F ... : ... .. . ... ... : F-2 01 A ... ... : A-1 01 8 ... ... : ... .. . ... ...
ROW 81 : ... .. E ... ... ... : ... .. 3 ... ... ... : G-3 00 . P7B : ... .. C ... : ... .. . ... ... : ... .. 9 ... ... : ... .. 7 ... ... : ... .. . ... ...
ROW 82 : ... .. D ... ... ... : ... .. 0 ... ... ... : E-3 00 . P7F : ... .. 6 ... : ... .. . ... ... : ... .. 8 ... ... : ... .. 6 ... ... : ... .. . ... ...
ROW 83 : ... .. A ... ... ... : F-4 00 3 P80 ... ... : D-3 00 . P77 : ... .. 3 ... : ... .. . ... ... : ... .. 7 ... ... : ... .. 5 ... ... : ... .. . ... ...
ROW 84 : ... .. . ... ... ... : ... .. 4 ... ... ... : C-3 00 . P74 : ... .. 2 ... : ... .. . ... ... : ... .. . ... ... : ... .. . ... ... : ... .. . ... ...
ROW 85 : ... .. . ... ... ... : D-4 00 8 ... ... ... : A#2 00 . P76 : D-# 00 8 ... : ... .. . ... ... : A-2 01 A ... ... : D-2 01 8 ... ... : ... .. 0 ... ...
ROW 86 : ... .. . ... ... ... : ... .. 3 ... ... ... : G#2 00 . P7F : ... .. 6 ... : ... .. . ... ... : ... .. 9 ... ... : ... .. 7 ... ... : ... .. . ... ...
ROW 87 : ... .. . ... ... ... : ... .. 0 ... ... ... : F#2 00 . P8F : ... .. 3 ... : ... .. . ... ... : ... .. 8 ... ... : ... .. 6 ... ... : ... .. . ... ...
ROW 88 : ... .. . ... ... ... : D-4 00 3 P80 ... ... : --- .. . ... : ... .. 1 ... : ... .. . ... ... : ... .. 7 ... ... : ... .. 5 ... ... : ... .. . ... ...
ROW 89 : ... .. . ... ... ... : ... .. 4 ... ... ... : ... .. . ... : ... .. . ... : ... .. . ... ... : ... .. . ... ... : ... .. . ... ... : ... .. . ... ...
ROW 8A : E-3 00 F ... ... ... : A-3 00 8 ... ... ... : F-3 00 . P80 : ... .. A ... : ... .. . ... ... : D-3 01 A ... ... : F-2 01 8 ... ... : ... .. . ... ...
ROW 8B : ... .. E ... ... ... : ... .. 3 ... ... ... : ... .. . ... : ... .. 8 ... : ... .. . ... ... : ... .. 9 ... ... : ... .. 7 ... ... : ... .. . ... ...
ROW 8C : ... .. D ... ... ... : ... .. 0 ... ... ... : ... .. . ... : ... .. 4 ... : ... .. . ... ... : ... .. 8 ... ... : ... .. 6 ... ... : ... .. . ... ...
ROW 8D : ... .. A ... ... ... : A-3 00 3 P80 ... ... : ... .. . ... : ... .. 2 ... : ... .. . ... ... : ... .. 7 ... ... : ... .. 5 ... ... : ... .. . ... ...
ROW 8E : ... .. . ... ... ... : ... .. 4 ... ... ... : ... .. . ... : ... .. 1 ... : ... .. . ... ... : ... .. . ... ... : ... .. . ... ... : ... .. . ... ...
ROW 8F : ... .. . ... ... ... : F-3 00 8 ... ... ... : ... .. . ... : ... .. 8 ... : ... .. . ... ... : F-3 01 A ... ... : A-2 01 8 ... ... : ... .. . ... ...
ROW 90 : ... .. 2 ... ... ... : ... .. 3 ... ... ... : ... .. . ... : ... .. 6 ... : ... .. . ... ... : ... .. 9 ... ... : ... .. 7 ... ... : ... .. . ... ...
ROW 91 : ... .. . ... ... ... : ... .. 0 ... ... ... : ... .. . ... : ... .. 3 ... : ... .. . ... ... : ... .. 8 ... ... : ... .. 6 ... ... : ... .. . ... ...
ROW 92 : ... .. . ... ... ... : F-3 00 3 P80 ... ... : --- .. . ... : ... .. 1 ... : ... .. . ... ... : ... .. 7 ... ... : ... .. 5 ... ... : ... .. . ... ...
ROW 93 : ... .. 1 ... ... ... : ... .. 4 ... ... ... : ... .. . ... : ... .. . ... : ... .. . ... ... : ... .. . ... ... : ... .. . ... ... : ... .. . ... ...
ROW 94 : F-3 00 F ... ... ... : F-4 00 8 ... ... ... : A-2 00 . ... : 1-# 00 D ... : ... .. . ... ... : A-3 01 A ... ... : D-3 01 8 ... ... : ... .. . ... ...
ROW 95 : ... .. E ... ... ... : ... .. 3 ... ... ... : ... .. . ... : ... .. . ... : ... .. . ... ... : ... .. 9 ... ... : ... .. 7 ... ... : ... .. . ... ...
ROW 96 : ... .. D ... ... ... : ... .. 0 ... ... ... : ... .. . ... : D-# 00 D ... : ... .. . ... ... : ... .. 8 ... ... : ... .. 6 ... ... : ... .. . ... ...
ROW 97 : ... .. A ... ... ... : F-4 00 3 P80 ... ... : ... .. . ... : B-# 00 6 ... : ... .. . ... ... : ... .. 7 ... ... : ... .. 5 ... ... : ... .. . ... ...
ROW 98 : ... .. . ... ... ... : ... .. 4 ... ... ... : --- .. . ... : 7-# 00 1 ... : ... .. . ... ... : ... .. . ... ... : ... .. . ... ... : ... .. . ... ...
ROW 99 : ... .. . ... ... ... : D-4 00 8 ... ... ... : A-2 00 . ... : D-# 00 8 ... : ... .. . ... ... : D-4 01 A ... ... : F-3 01 8 ... ... : ... .. . ... ...
ROW 9A : ... .. 2 ... ... ... : ... .. 3 ... ... ... : ... .. . ... : ... .. 6 ... : ... .. . ... ... : ... .. 9 ... ... : ... .. 7 ... ... : ... .. . ... ...
ROW 9B : ... .. . ... ... ... : ... .. 0 ... ... ... : ... .. . ... : ... .. 3 ... : ... .. . ... ... : ... .. 8 ... ... : ... .. 6 ... ... : ... .. . ... ...
ROW 9C : ... .. . ... ... ... : D-4 00 3 P80 ... ... : ... .. . ... : ... .. 1 ... : ... .. . ... ... : ... .. 7 ... ... : ... .. 5 ... ... : ... .. . ... ...
ROW 9D : ... .. 1 ... ... ... : ... .. 4 ... ... ... : --- .. . ... : ... .. . ... : ... .. . ... ... : ... .. . ... ... : ... .. . ... ... : ... .. . ... ...
ROW 9E : A-3 00 F ... ... ... : A-3 00 8 ... ... ... : A-3 00 . ... : ... .. A ... : ... .. . ... ... : F-4 01 A ... ... : A-3 01 8 ... ... : ... .. . ... ...
ROW 9F : ... .. E ... ... ... : ... .. 3 ... ... ... : ... .. . ... : ... .. 8 ... : ... .. . ... ... : ... .. 9 ... ... : ... .. 7 ... ... : ... .. . ... ...
ROW A0 : ... .. D ... ... ... : ... .. 0 ... ... ... : ... .. . ... : ... .. 4 ... : ... .. . ... ... : ... .. 8 ... ... : ... .. 6 ... ... : ... .. . ... ...
ROW A1 : ... .. A ... ... ... : A-3 00 3 P80 ... ... : ... .. . ... : ... .. 2 ... : ... .. . ... ... : ... .. 7 ... ... : ... .. 5 ... ... : ... .. . ... ...
ROW A2 : ... .. . ... ... ... : ... .. 4 ... ... ... : --- .. . ... : ... .. 1 ... : ... .. . ... ... : ... .. . ... ... : ... .. . ... ... : ... .. . ... ...
ROW A3 : ... .. . ... ... ... : F-3 00 8 ... ... ... : A-3 00 . ... : ... .. 8 ... : ... .. . ... ... : A-4 01 A ... ... : D-4 01 8 ... ... : ... .. . ... ...
ROW A4 : ... .. 2 ... ... ... : ... .. 3 ... ... ... : ... .. . ... : ... .. 6 ... : ... .. . ... ... : ... .. 9 ... ... : ... .. 7 ... ... : ... .. . ... ...
ROW A5 : ... .. . ... ... ... : ... .. 0 ... ... ... : ... .. . ... : ... .. 3 ... : ... .. . ... ... : ... .. 8 ... ... : ... .. 6 ... ... : ... .. . ... ...
ROW A6 : ... .. . ... ... ... : F-3 00 3 P80 ... ... : ... .. . ... : ... .. 1 ... : ... .. . ... ... : ... .. 7 ... ... : ... .. 5 ... ... : ... .. . ... ...
ROW A7 : ... .. 1 ... ... ... : ... .. 4 ... ... ... : --- .. . ... : ... .. . ... : ... .. . ... ... : ... .. . ... ... : ... .. . ... ... : ... .. . ... ...
ROW A8 : G-3 00 F ... ... ... : G-4 00 8 ... ... ... : A#3 00 . ... : 1-# 00 F ... : ... .. . ... ... : B-4 01 A ... ... : ... .. 8 ... ... : G-3 01 C ... ...
ROW A9 : ... .. E ... ... ... : ... .. 3 ... ... ... : G-3 00 . P7B : ... .. C ... : ... .. . ... ... : ... .. 9 ... ... : ... .. 7 ... ... : ... .. A ... ...
ROW AA : ... .. D ... ... ... : ... .. 0 ... ... ... : E-3 00 . P7F : ... .. 6 ... : ... .. . ... ... : ... .. 8 ... ... : ... .. 6 ... ... : ... .. 6 ... ...
ROW AB : ... .. A ... ... ... : G-4 00 3 P80 ... ... : D-3 00 . P77 : ... .. 3 ... : ... .. . ... ... : ... .. 7 ... ... : ... .. 5 ... ... : ... .. . ... ...
ROW AC : ... .. . ... ... ... : ... .. 4 ... ... ... : C-3 00 . P74 : ... .. 2 ... : ... .. . ... ... : ... .. . ... ... : ... .. . ... ... : ... .. . ... ...
ROW AD : ... .. . ... ... ... : D-4 00 8 ... ... ... : A#2 00 . P76 : D-# 00 8 ... : ... .. . ... ... : ... .. 6 ... ... : ... .. 4 ... ... : ... .. . ... ...
ROW AE : ... .. . ... ... ... : ... .. 3 ... ... ... : G#2 00 . P7F : ... .. 6 ... : ... .. . ... ... : ... .. . ... ... : ... .. . ... ... : ... .. . ... ...
ROW AF : ... .. . ... ... ... : ... .. 0 ... ... ... : F#2 00 . P8F : ... .. 3 ... : ... .. . ... ... : ... .. 5 ... ... : ... .. . ... ... : ... .. . ... ...
ROW B0 : ... .. . ... ... ... : D-4 00 3 P80 ... ... : --- .. . ... : ... .. 1 ... : ... .. . ... ... : ... .. . ... ... : ... .. . ... ... : ... .. . ... ...
ROW B1 : ... .. . ... ... ... : ... .. 4 ... ... ... : ... .. . ... : ... .. . ... : ... .. . ... ... : ... .. . ... ... : ... .. . ... ... : ... .. . ... ...
ROW B2 : ... .. . ... ... ... : B-3 00 8 ... ... ... : G-2 00 . P80 : ... .. A ... : ... .. . ... ... : ... .. . ... ... : ... .. . ... ... : ... .. . ... ...
ROW B3 : ... .. . ... ... ... : ... .. 3 ... ... ... : ... .. . ... : ... .. 8 ... : ... .. . ... ... : ... .. . ... ... : ... .. . ... ... : ... .. . ... ...
ROW B4 : ... .. . ... ... ... : ... .. 0 ... ... ... : ... .. . ... : ... .. 4 ... : ... .. . ... ... : ... .. . ... ... : ... .. . ... ... : ... .. . ... ...
ROW B5 : ... .. . ... ... ... : B-3 00 3 P80 ... ... : ... .. . ... : ... .. 2 ... : ... .. . ... ... : ... .. . ... ... : ... .. . ... ... : ... .. . ... ...
ROW B6 : ... .. . ... ... ... : ... .. 4 ... ... ... : ... .. . ... : ... .. 1 ... : ... .. . ... ... : ... .. . ... ... : ... .. . ... ... : ... .. . ... ...
ROW B7 : ... .. . ... ... ... : G-3 00 8 ... ... ... : ... .. . ... : ... .. 8 ... : ... .. . ... ... : ... .. . ... ... : ... .. . ... ... : ... .. . ... ...
ROW B8 : ... .. . ... ... ... : ... .. 3 ... ... ... : ... .. . ... : ... .. 6 ... : ... .. . ... ... : ... .. . ... ... : ... .. . ... ... : ... .. . ... ...
ROW B9 : ... .. . ... ... ... : ... .. 0 ... ... ... : ... .. . ... : ... .. 3 ... : ... .. . ... ... : ... .. . ... ... : ... .. . ... ... : ... .. . ... ...
ROW BA : ... .. . ... ... ... : G-3 00 3 P80 ... ... : --- .. . ... : ... .. 1 ... : ... .. . ... ... : ... .. . ... ... : ... .. . ... ... : ... .. . ... ...
ROW BB : ... .. . ... ... ... : ... .. 4 ... ... ... : ... .. . ... : ... .. . ... : ... .. . ... ... : ... .. . ... ... : ... .. . ... ... : ... .. . ... ...
ROW BC : ... .. . ... ... ... : G-4 00 8 ... ... ... : G-3 00 . ... : 1-# 00 D ... : ... .. . ... ... : ... .. . ... ... : ... .. . ... ... : ... .. . ... ...
ROW BD : ... .. . ... ... ... : ... .. 3 ... ... ... : ... .. . ... : ... .. . ... : ... .. . ... ... : ... .. . ... ... : ... .. . ... ... : ... .. . ... ...
ROW BE : ... .. . ... ... ... : ... .. 0 ... ... ... : ... .. . ... : D-# 00 D ... : ... .. . ... ... : ... .. . ... ... : ... .. . ... ... : ... .. . ... ...
ROW BF : ... .. . ... ... ... : G-4 00 3 P80 ... ... : ... .. . ... : B-# 00 6 ... : ... .. . ... ... : ... .. . ... ... : ... .. . ... ... : ... .. . ... ...
ROW C0 : ... .. . ... ... ... : ... .. 4 ... ... ... : --- .. . ... : 7-# 00 1 ... : ... .. . ... ... : ... .. . ... ... : ... .. . ... ... : ... .. . ... ...
ROW C1 : ... .. . ... ... ... : D-4 00 8 ... ... ... : G-3 00 . ... : D-# 00 8 ... : ... .. . ... ... : ... .. . ... ... : ... .. . ... ... : ... .. . ... ...
ROW C2 : ... .. 2 ... ... ... : ... .. 3 ... ... ... : ... .. . ... : ... .. 6 ... : ... .. . ... ... : ... .. . ... ... : ... .. . ... ... : ... .. . ... ...
ROW C3 : ... .. . ... ... ... : ... .. 0 ... ... ... : ... .. . ... : ... .. 3 ... : ... .. . ... ... : ... .. . ... ... : ... .. . ... ... : ... .. . ... ...
ROW C4 : ... .. . ... ... ... : D-4 00 3 P80 ... ... : ... .. . ... : ... .. 1 ... : ... .. . ... ... : ... .. . P82 ... : ... .. . ... ... : ... .. . ... ...
ROW C5 : ... .. 1 ... ... ... : ... .. 4 ... ... ... : --- .. . ... : ... .. . ... : ... .. . ... ... : ... .. . P83 ... : ... .. . ... ... : ... .. . ... ...
ROW C6 : D-3 00 F ... ... ... : B-3 00 8 ... ... ... : G-2 00 . ... : ... .. A ... : ... .. . ... ... : ... .. . ... ... : ... .. . ... ... : ... .. . ... ...
ROW C7 : ... .. E ... ... ... : ... .. 3 ... ... ... : ... .. . ... : ... .. 8 ... : ... .. . ... ... : ... .. . P80 ... : ... .. . ... ... : ... .. . ... ...
ROW C8 : ... .. D ... ... ... : ... .. 0 ... ... ... : ... .. . ... : ... .. 4 ... : ... .. . ... ... : ... .. . P7E ... : ... .. . ... ... : ... .. . ... ...
ROW C9 : ... .. A ... ... ... : B-3 00 3 P80 ... ... : ... .. . ... : ... .. 2 ... : ... .. . ... ... : A#4 01 5 P82 ... : ... .. . ... ... : ... .. . ... ...
ROW CA : ... .. . ... ... ... : ... .. 4 ... ... ... : --- .. . ... : ... .. 1 ... : ... .. . ... ... : ... .. . ... ... : ... .. . ... ... : ... .. . ... ...
ROW CB : ... .. . ... ... ... : G-3 00 8 ... ... ... : G-2 00 . ... : ... .. 8 ... : ... .. . ... ... : ... .. . P83 ... : ... .. . ... ... : ... .. . ... ...
ROW CC : ... .. 2 ... ... ... : ... .. 3 ... ... ... : ... .. . ... : ... .. 6 ... : ... .. . ... ... : B-4 01 5 P7F ... : ... .. . ... ... : ... .. . ... ...
ROW CD : ... .. . ... ... ... : ... .. 0 ... ... ... : ... .. . ... : ... .. 3 ... : ... .. . ... ... : ... .. . P81 ... : ... .. . ... ... : ... .. . ... ...
ROW CE : ... .. . ... ... ... : G-3 00 3 P80 ... ... : ... .. . ... : ... .. 1 ... : ... .. . ... ... : ... .. . P83 ... : ... .. . ... ... : ... .. . ... ...
ROW CF : ... .. 1 ... ... ... : ... .. 4 ... ... ... : --- .. . ... : ... .. . ... : ... .. . ... ... : ... .. . ... ... : ... .. . ... ... : ... .. . ... ...
ROW D0 : ... .. F ... ... ... : G-4 00 8 ... ... ... : A#3 00 . ... : 1-# 00 F ... : ... .. . ... ... : ... .. . P80 ... : ... .. . ... ... : ... .. . ... ...
ROW D1 : ... .. E ... ... ... : ... .. 3 ... ... ... : G-3 00 . P7B : ... .. C ... : ... .. . ... ... : ... .. . P7F ... : ... .. . ... ... : ... .. . ... ...
ROW D2 : ... .. D ... ... ... : ... .. 0 ... ... ... : E-3 00 . P7F : ... .. 6 ... : ... .. . ... ... : A#4 01 5 P83 ... : ... .. . ... ... : ... .. . ... ...
ROW D3 : ... .. A ... ... ... : G-4 00 3 P80 ... ... : D-3 00 . P77 : ... .. 3 ... : ... .. . ... ... : ... .. . P82 ... : ... .. . ... ... : ... .. . ... ...
ROW D4 : ... .. . ... ... ... : ... .. 4 ... ... ... : C-3 00 . P74 : ... .. 2 ... : ... .. . ... ... : ... .. . P83 ... : ... .. . ... ... : ... .. . ... ...
ROW D5 : ... .. . ... ... ... : D-4 00 8 ... ... ... : A#2 00 . P76 : D-# 00 8 ... : ... .. . ... ... : B-4 01 5 P7F ... : ... .. . ... ... : ... .. . ... ...
ROW D6 : ... .. . ... ... ... : ... .. 3 ... ... ... : G#2 00 . P7F : ... .. 6 ... : ... .. . ... ... : ... .. . P81 ... : ... .. . ... ... : ... .. . ... ...
ROW D7 : ... .. . ... ... ... : ... .. 0 ... ... ... : F#2 00 . P8F : ... .. 3 ... : ... .. . ... ... : ... .. . P83 ... : ... .. . ... ... : ... .. . ... ...
ROW D8 : ... .. . ... ... ... : D-4 00 3 P80 ... ... : --- .. . ... : ... .. 1 ... : ... .. . ... ... : ... .. . ... ... : ... .. . ... ... : ... .. . ... ...
ROW D9 : ... .. . ... ... ... : ... .. 4 ... ... ... : ... .. . ... : ... .. . ... : ... .. . ... ... : ... .. . P81 ... : ... .. . ... ... : ... .. . ... ...
ROW DA : ... .. . ... ... ... : B-3 00 8 ... ... ... : A#3 00 . P80 : ... .. A ... : ... .. . ... ... : ... .. . P7F ... : ... .. . ... ... : ... .. . ... ...
ROW DB : ... .. . ... ... ... : ... .. 3 ... ... ... : G-3 00 . P7B : ... .. 8 ... : ... .. . ... ... : A#4 01 5 P83 ... : ... .. . ... ... : ... .. 3 ... ...
ROW DC : ... .. . ... ... ... : ... .. 0 ... ... ... : E-3 00 . P7F : ... .. 4 ... : ... .. . ... ... : ... .. 3 P82 ... : ... .. 2 ... ... : ... .. . ... ...
ROW DD : ... .. . ... ... ... : B-3 00 3 P80 ... ... : D-3 00 . P77 : ... .. 2 ... : ... .. . ... ... : ... .. . P83 ... : ... .. . ... ... : ... .. 1 ... ...
ROW DE : ... .. . ... ... ... : ... .. 4 ... ... ... : C-3 00 . P74 : ... .. 1 ... : ... .. . ... ... : B-4 01 3 P7F ... : ... .. . ... ... : ... .. . ... ...
ROW DF : ... .. . ... ... ... : G-3 00 8 ... ... ... : A#2 00 . P76 : ... .. 8 ... : ... .. . ... ... : ... .. . P80 ... : ... .. . ... ... : ... .. . ... ...
ROW E0 : ... .. . ... ... ... : ... .. 3 ... ... ... : G#2 00 . P7F : ... .. 6 ... : ... .. . ... ... : ... .. . P83 ... : ... .. . ... ... : ... .. . ... ...
ROW E1 : ... .. . ... ... ... : ... .. 0 ... ... ... : F#2 00 . P8F : ... .. 3 ... : ... .. . ... ... : ... .. . ... ... : ... .. . ... ... : ... .. . ... ...
ROW E2 : ... .. . ... ... ... : G-3 00 3 P80 ... ... : --- .. . ... : ... .. 1 ... : ... .. . ... ... : ... .. . P81 ... : ... .. . ... ... : ... .. . ... ...
ROW E3 : ... .. . ... ... ... : ... .. 4 ... ... ... : ... .. . ... : ... .. . ... : ... .. . ... ... : ... .. . P7F ... : ... .. . ... ... : ... .. . ... ...
ROW E4 : ... .. . ... ... ... : G-4 00 8 ... ... ... : G-3 00 . P80 : 1-# 00 D ... : ... .. . ... ... : D-4 01 A ... ... : B-3 01 8 ... ... : ... .. C ... ...
ROW E5 : ... .. . ... ... ... : ... .. 3 ... ... ... : ... .. . ... : ... .. . ... : ... .. . ... ... : ... .. 9 ... ... : ... .. 7 ... ... : ... .. A ... ...
ROW E6 : ... .. . ... ... ... : ... .. 0 ... ... ... : ... .. . ... : D-# 00 D ... : ... .. . ... ... : ... .. 8 ... ... : ... .. 6 ... ... : ... .. 6 ... ...
ROW E7 : ... .. . ... ... ... : G-4 00 3 P80 ... ... : ... .. . ... : B-# 00 6 ... : ... .. . ... ... : ... .. 7 ... ... : ... .. 5 ... ... : ... .. . ... ...
ROW E8 : ... .. . ... ... ... : ... .. 4 ... ... ... : --- .. . ... : 7-# 00 1 ... : ... .. . ... ... : ... .. . ... ... : ... .. . ... ... : ... .. . ... ...
ROW E9 : ... .. . ... ... ... : D-4 00 8 ... ... ... : G-3 00 . ... : D-# 00 8 ... : ... .. . ... ... : ... .. 6 ... ... : ... .. 4 ... ... : ... .. . ... ...
ROW EA : ... .. . ... ... ... : ... .. 3 ... ... ... : ... .. . ... : ... .. 6 ... : ... .. . ... ... : ... .. . ... ... : ... .. . ... ... : ... .. . ... ...
ROW EB : ... .. . ... ... ... : ... .. 0 ... ... ... : ... .. . ... : ... .. 3 ... : ... .. . ... ... : ... .. 5 ... ... : ... .. . ... ... : ... .. . ... ...
ROW EC : ... .. . ... ... ... : D-4 00 3 P80 ... ... : ... .. . ... : ... .. 1 ... : ... .. . ... ... : ... .. . ... ... : ... .. . ... ... : ... .. . ... ...
ROW ED : ... .. . ... ... ... : ... .. 4 ... ... ... : --- .. . ... : ... .. . ... : ... .. . ... ... : ... .. . ... ... : ... .. . ... ... : ... .. . ... ...
ROW EE : ... .. . ... ... ... : B-3 00 8 ... ... ... : G-2 00 . ... : ... .. A ... : ... .. . ... ... : ... .. . ... ... : ... .. . ... ... : ... .. . ... ...
ROW EF : ... .. . ... ... ... : ... .. 3 ... ... ... : ... .. . ... : ... .. 8 ... : ... .. . ... ... : ... .. . ... ... : ... .. . ... ... : ... .. . ... ...
ROW F0 : ... .. . ... ... ... : ... .. 0 ... ... ... : ... .. . ... : ... .. 4 ... : ... .. . ... ... : ... .. . ... ... : ... .. . ... ... : ... .. . ... ...
ROW F1 : ... .. . ... ... ... : B-3 00 3 P80 ... ... : ... .. . ... : ... .. 2 ... : ... .. . ... ... : ... .. . ... ... : ... .. . ... ... : ... .. . ... ...
ROW F2 : ... .. . ... ... ... : ... .. 4 ... ... ... : --- .. . ... : ... .. 1 ... : ... .. . ... ... : ... .. . ... ... : ... .. . ... ... : ... .. . ... ...
ROW F3 : ... .. . ... ... ... : G-3 00 8 ... ... ... : G-2 00 . ... : ... .. 8 ... : ... .. . ... ... : ... .. . ... ... : ... .. . ... ... : ... .. . ... ...
ROW F4 : ... .. 2 ... ... ... : ... .. 3 ... ... ... : ... .. . ... : ... .. 6 ... : ... .. . ... ... : ... .. . ... ... : ... .. . ... ... : ... .. . ... ...
ROW F5 : ... .. . ... ... ... : ... .. 0 ... ... ... : ... .. . ... : ... .. 3 ... : ... .. . ... ... : ... .. . ... ... : ... .. . ... ... : ... .. . ... ...
ROW F6 : ... .. . ... ... ... : G-3 00 3 P80 ... ... : ... .. . ... : ... .. 1 ... : ... .. . ... ... : ... .. . ... ... : ... .. . ... ... : ... .. . ... ...
ROW F7 : ... .. 1 ... ... ... : ... .. 4 ... ... ... : --- .. . ... : ... .. . ... : ... .. . ... ... : ... .. . ... ... : ... .. . ... ... : ... .. . ... ...
ROW F8 : D-2 00 F ... ... ... : F-4 00 8 ... ... ... : A#3 00 . ... : 1-# 00 F ... : ... .. . ... ... : A-4 01 A ... ... : D-4 01 8 ... ... : A-3 01 C ... ...
ROW F9 : ... .. E ... ... ... : ... .. 3 ... ... ... : G-3 00 . P7B : ... .. C ... : ... .. . ... ... : ... .. 9 ... ... : ... .. 7 ... ... : ... .. A ... ...
ROW FA : ... .. D ... ... ... : ... .. 0 ... ... ... : E-3 00 . P7F : ... .. 6 ... : ... .. . ... ... : ... .. 8 ... ... : ... .. 6 ... ... : ... .. 6 ... ...
ROW FB : ... .. A ... ... ... : F-4 00 3 P80 ... ... : D-3 00 . P77 : ... .. 3 ... : ... .. . ... ... : ... .. 7 ... ... : ... .. 5 ... ... : ... .. . ... ...
ROW FC : ... .. 2 ... ... ... : ... .. 4 ... ... ... : C-3 00 . P74 : ... .. 2 ... : ... .. . ... ... : ... .. . ... ... : ... .. . ... ... : ... .. . ... ...
ROW FD : ... .. F ... ... ... : D-4 00 8 ... ... ... : A#2 00 . P76 : D-# 00 8 ... : ... .. . ... ... : ... .. 6 ... ... : ... .. 4 ... ... : ... .. . ... ...
ROW FE : ... .. E ... ... ... : ... .. 3 ... ... ... : G#2 00 . P7F : ... .. 6 ... : ... .. . ... ... : ... .. . ... ... : ... .. . ... ... : ... .. . ... ...
ROW FF : ... .. D ... ... ... : ... .. 0 ... ... ... : F#2 00 . P8F : ... .. 3 ... : ... .. . ... ... : ... .. 5 ... ... : ... .. . ... ... : ... .. . ... ...

PATTERN 0D
ROW 00 : ... .. A ... ... ... : D-4 00 3 P80 ... ... : --- .. . ... : ... .. 1 ... : ... .. . ... ... : ... .. . ... ... : ... .. . ... ... : ... .. . ... ...
ROW 01 : ... .. 2 ... ... ... : ... .. 4 ... ... ... : ... .. . ... : ... .. . ... : ... .. . ... ... : ... .. . ... ... : ... .. . ... ... : ... .. . ... ...
ROW 02 : D-1 00 F ... ... ... : A-3 00 8 ... ... ... : A-2 00 . P80 : ... .. A ... : ... .. . ... ... : ... .. . ... ... : ... .. . ... ... : ... .. . ... ...
ROW 03 : ... .. E ... ... ... : ... .. 3 ... ... ... : ... .. . ... : ... .. 8 ... : ... .. . ... ... : ... .. . ... ... : ... .. . ... ... : ... .. . ... ...
ROW 04 : ... .. D ... ... ... : ... .. 0 ... ... ... : ... .. . ... : ... .. 4 ... : ... .. . ... ... : ... .. . ... ... : ... .. . ... ... : ... .. . ... ...
ROW 05 : ... .. A ... ... ... : A-3 00 3 P80 ... ... : ... .. . ... : ... .. 2 ... : ... .. . ... ... : ... .. . ... ... : ... .. . ... ... : ... .. . ... ...
ROW 06 : ... .. 2 ... ... ... : ... .. 4 ... ... ... : ... .. . ... : ... .. 1 ... : ... .. . ... ... : ... .. . ... ... : ... .. . ... ... : ... .. . ... ...
ROW 07 : ... .. F ... ... ... : F-3 00 8 ... ... ... : ... .. . ... : ... .. 8 ... : ... .. . ... ... : ... .. . ... ... : ... .. . ... ... : ... .. . ... ...
ROW 08 : ... .. E ... ... ... : ... .. 3 ... ... ... : ... .. . ... : ... .. 6 ... : ... .. . ... ... : ... .. . ... ... : ... .. . ... ... : ... .. . ... ...
ROW 09 : ... .. D ... ... ... : ... .. 0 ... ... ... : ... .. . ... : ... .. 3 ... : ... .. . ... ... : ... .. . ... ... : ... .. . ... ... : ... .. . ... ...
ROW 0A : ... .. A ... ... ... : F-3 00 3 P80 ... ... : --- .. . ... : ... .. 1 ... : ... .. . ... ... : ... .. . ... ... : ... .. . ... ... : ... .. . ... ...
ROW 0B : ... .. 2 ... ... ... : ... .. 4 ... ... ... : ... .. . ... : ... .. . ... : ... .. . ... ... : ... .. . ... ... : ... .. . ... ... : ... .. . ... ...
ROW 0C : D-2 00 F ... ... ... : F-4 00 8 ... ... ... : D-4 00 . ... : 1-# 00 D ... : ... .. . ... ... : ... .. . ... ... : ... .. . ... ... : ... .. . ... ...
ROW 0D : ... .. E ... ... ... : ... .. 3 ... ... ... : ... .. . ... : ... .. . ... : ... .. . ... ... : ... .. . ... ... : ... .. . ... ... : ... .. . ... ...
ROW 0E : ... .. D ... ... ... : ... .. 0 ... ... ... : ... .. . ... : D-# 00 D ... : ... .. . ... ... : ... .. . ... ... : ... .. . ... ... : ... .. . ... ...
ROW 0F : ... .. A ... ... ... : F-4 00 3 P80 ... ... : ... .. . ... : B-# 00 6 ... : ... .. . ... ... : ... .. . ... ... : ... .. . ... ... : ... .. . ... ...
ROW 10 : ... .. 2 ... ... ... : ... .. 4 ... ... ... : --- .. . ... : 7-# 00 1 ... : ... .. . ... ... : ... .. . ... ... : ... .. . ... ... : ... .. . ... ...
ROW 11 : ... .. F ... ... ... : D-4 00 8 ... ... ... : D-4 00 . ... : D-# 00 8 ... : ... .. . ... ... : ... .. . ... ... : ... .. . ... ... : ... .. . ... ...
ROW 12 : ... .. E ... ... ... : ... .. 3 ... ... ... : ... .. . ... : ... .. 6 ... : ... .. . ... ... : ... .. . ... ... : ... .. . ... ... : ... .. . ... ...
ROW 13 : ... .. D ... ... ... : ... .. 0 ... ... ... : ... .. . ... : ... .. 3 ... : ... .. . ... ... : ... .. . ... ... : ... .. . ... ... : ... .. . ... ...
ROW 14 : ... .. A ... ... ... : D-4 00 3 P80 ... ... : ... .. . ... : ... .. 1 ... : ... .. . ... ... : ... .. . ... ... : ... .. . ... ... : ... .. . ... ...
ROW 15 : ... .. 2 ... ... ... : ... .. 4 ... ... ... : --- .. . ... : ... .. . ... : ... .. . ... ... : ... .. . ... ... : ... .. . ... ... : ... .. . ... ...
ROW 16 : D-1 00 F ... ... ... : A-3 00 8 ... ... ... : D-3 00 . ... : ... .. A ... : ... .. . ... ... : ... .. . ... ... : ... .. . ... ... : ... .. . ... ...
ROW 17 : ... .. E ... ... ... : ... .. 3 ... ... ... : ... .. . ... : ... .. 8 ... : ... .. . ... ... : ... .. . ... ... : ... .. . ... ... : ... .. . ... ...
ROW 18 : ... .. D ... ... ... : ... .. 0 ... ... ... : ... .. . ... : ... .. 4 ... : ... .. . ... ... : ... .. . ... ... : ... .. . ... ... : ... .. . ... ...
ROW 19 : ... .. A ... ... ... : A-3 00 3 P80 ... ... : ... .. . ... : ... .. 2 ... : ... .. . ... ... : ... .. . ... ... : ... .. . ... ... : ... .. . ... ...
ROW 1A : ... .. 2 ... ... ... : ... .. 4 ... ... ... : --- .. . ... : ... .. 1 ... : ... .. . ... ... : ... .. . ... ... : ... .. . ... ... : ... .. . ... ...
ROW 1B : ... .. F ... ... ... : F-3 00 8 ... ... ... : D-3 00 . ... : ... .. 8 ... : ... .. . ... ... : ... .. . ... ... : ... .. . ... ... : ... .. . ... ...
ROW 1C : ... .. E ... ... ... : ... .. 3 ... ... ... : ... .. . ... : ... .. 6 ... : ... .. . ... ... : ... .. . ... ... : ... .. . ... ... : ... .. 3 ... ...
ROW 1D : ... .. D ... ... ... : ... .. 0 ... ... ... : ... .. . ... : ... .. 3 ... : ... .. . ... ... : ... .. 3 ... ... : ... .. 2 ... ... : ... .. . ... ...
ROW 1E : ... .. A ... ... ... : F-3 00 3 P80 ... ... : ... .. . ... : ... .. 1 ... : ... .. . ... ... : ... .. . ... ... : ... .. . ... ... : ... .. 1 ... ...
ROW 1F : ... .. 2 ... ... ... : ... .. 4 ... ... ... : --- .. . ... : ... .. . ... : ... .. . ... ... : ... .. . ... ... : ... .. . ... ... : ... .. . ... ...
ROW 20 : F-2 00 F ... ... ... : F-4 00 8 ... ... ... : A#3 00 . ... : 9-# 00 D ... : ... .. . ... ... : ... .. . ... ... : ... .. . ... ... : ... .. . ... ...
ROW 21 : ... .. E ... ... ... : ... .. 3 ... ... ... : G-3 00 . P7B : ... .. . ... : ... .. . ... ... : ... .. . ... ... : ... .. . ... ... : ... .. . ... ...
ROW 22 : ... .. D ... ... ... : ... .. 0 ... ... ... : E-3 00 . P7F : 5-# 00 D ... : ... .. . ... ... : ... .. . ... ... : ... .. . ... ... : ... .. . ... ...
ROW 23 : ... .. A ... ... ... : F-4 00 3 P80 ... ... : D-3 00 . P77 : 3-# 00 6 ... : ... .. . ... ... : ... .. . ... ... : ... .. . ... ... : ... .. . ... ...
ROW 24 : ... .. 2 ... ... ... : ... .. 4 ... ... ... : C-3 00 . P74 : F-# 00 1 ... : ... .. . ... ... : ... .. . ... ... : ... .. . ... ... : ... .. . ... ...
ROW 25 : ... .. F ... ... ... : D-4 00 8 ... ... ... : A#2 00 . P76 : 9-# 00 D ... : ... .. . ... ... : ... .. . ... ... : ... .. . ... ... : ... .. 0 ... ...
ROW 26 : ... .. E ... ... ... : ... .. 3 ... ... ... : G#2 00 . P7F : ... .. . ... : ... .. . ... ... : ... .. . ... ... : ... .. . ... ... : ... .. . ... ...
ROW 27 : ... .. D ... ... ... : ... .. 0 ... ... ... : F#2 00 . P8F : 5-# 00 D ... : ... .. . ... ... : ... .. . ... ... : ... .. . ... ... : ... .. . ... ...
ROW 28 : ... .. A ... ... ... : D-4 00 3 P80 ... ... : --- .. . ... : 3-# 00 6 ... : ... .. . ... ... : ... .. . ... ... : ... .. . ... ... : ... .. . ... ...
ROW 29 : ... .. 2 ... ... ... : ... .. 4 ... ... ... : ... .. . ... : F-# 00 1 ... : ... .. . ... ... : ... .. . ... ... : ... .. . ... ... : ... .. . ... ...
ROW 2A : D-1 00 F ... ... ... : A-3 00 8 ... ... ... : A#3 00 . P80 : 4-# 00 D ... : ... .. . ... ... : ... .. 1 ... ... : ... .. 1 ... ... : ... .. . ... ...
ROW 2B : ... .. E ... ... ... : ... .. 3 ... ... ... : G-3 00 . P7B : ... .. . ... : ... .. . ... ... : ... .. . ... ... : ... .. . ... ... : ... .. . ... ...
ROW 2C : ... .. D ... ... ... : ... .. 0 ... ... ... : E-3 00 . P7F : 0-# 00 D ... : ... .. . ... ... : ... .. . ... ... : ... .. . ... ... : ... .. . ... ...
ROW 2D : ... .. A ... ... ... : A-3 00 3 P80 ... ... : D-3 00 . P77 : E-# 00 6 ... : ... .. . ... ... : ... .. . ... ... : ... .. . ... ... : ... .. . ... ...
ROW 2E : ... .. 2 ... ... ... : ... .. 4 ... ... ... : C-3 00 . P74 : A-# 00 1 ... : ... .. . ... ... : ... .. . ... ... : ... .. . ... ... : ... .. . ... ...
ROW 2F : ... .. F ... ... ... : F-3 00 8 ... ... ... : A#2 00 . P76 : 4-# 00 D ... : ... .. . ... ... : ... .. . ... ... : ... .. . ... ... : ... .. . ... ...
ROW 30 : ... .. E ... ... ... : ... .. 3 ... ... ... : G#2 00 . P7F : ... .. . ... : ... .. . ... ... : ... .. . ... ... : ... .. . ... ... : ... .. . ... ...
ROW 31 : ... .. D ... ... ... : ... .. 0 ... ... ... : F#2 00 . P8F : 0-# 00 D ... : ... .. . ... ... : ... .. . ... ... : ... .. . ... ... : ... .. . ... ...
ROW 32 : ... .. A ... ... ... : F-3 00 3 P80 ... ... : --- .. . ... : E-# 00 6 ... : ... .. . ... ... : ... .. . ... ... : ... .. . ... ... : ... .. . ... ...
ROW 33 : ... .. 2 ... ... ... : ... .. 4 ... ... ... : ... .. . ... : A-# 00 1 ... : ... .. . ... ... : ... .. . ... ... : ... .. . ... ... : ... .. . ... ...
ROW 34 : E-2 00 F ... ... ... : F-4 00 8 ... ... ... : D-3 00 . P80 : 6-# 00 D ... : ... .. . ... ... : ... .. . ... ... : ... .. . ... ... : ... .. . ... ...
ROW 35 : ... .. E ... ... ... : ... .. 3 ... ... ... : ... .. . ... : ... .. . ... : ... .. . ... ... : ... .. . ... ... : ... .. . ... ... : ... .. . ... ...
ROW 36 : ... .. D ... ... ... : ... .. 0 ... ... ... : ... .. . ... : 2-# 00 D ... : ... .. . ... ... : ... .. . ... ... : ... .. . ... ... : ... .. . ... ...
ROW 37 : ... .. A ... ... ... : F-4 00 3 P80 ... ... : ... .. . ... : 0-# 00 6 ... : ... .. . ... ... : ... .. . ... ... : ... .. . ... ... : ... .. . ... ...
ROW 38 : ... .. 2 ... ... ... : ... .. 4 ... ... ... : --- .. . ... : C-# 00 1 ... : ... .. . ... ... : --- .. . ... ... : --- .. . ... ... : ... .. . ... ...
ROW 39 : ... .. F ... ... ... : D-4 00 8 ... ... ... : D-3 00 . ... : 6-# 00 D ... : ... .. . ... ... : ... .. . ... ... : ... .. . ... ... : ... .. . ... ...
ROW 3A : ... .. E ... ... ... : ... .. 3 ... ... ... : ... .. . ... : ... .. . ... : ... .. . ... ... : ... .. . ... ... : ... .. . ... ... : ... .. . ... ...
ROW 3B : ... .. D ... ... ... : ... .. 0 ... ... ... : ... .. . ... : 2-# 00 D ... : ... .. . ... ... : ... .. . ... ... : ... .. . ... ... : ... .. . ... ...
ROW 3C : ... .. A ... ... ... : D-4 00 3 P80 ... ... : ... .. . ... : 0-# 00 6 ... : ... .. . ... ... : ... .. . ... ... : ... .. . ... ... : ... .. . ... ...
ROW 3D : ... .. 2 ... ... ... : ... .. 4 ... ... ... : --- .. . ... : C-# 00 1 ... : ... .. . ... ... : ... .. . ... ... : ... .. . ... ... : ... .. . ... ...
ROW 3E : D-1 00 F ... ... ... : A-3 00 8 ... ... ... : D-2 00 . ... : 1-# 00 D ... : ... .. . ... ... : ... .. . ... ... : ... .. . ... ... : ... .. . ... ...
ROW 3F : ... .. E ... ... ... : ... .. 3 ... ... ... : ... .. . ... : ... .. . ... : ... .. . ... ... : ... .. . ... ... : ... .. . ... ... : ... .. . ... ...
ROW 40 : ... .. D ... ... ... : ... .. 0 ... ... ... : ... .. . ... : D-# 00 D ... : ... .. . ... ... : ... .. . ... ... : ... .. . ... ... : ... .. . ... ...
ROW 41 : ... .. A ... ... ... : A-3 00 3 P80 ... ... : ... .. . ... : B-# 00 6 ... : ... .. . ... ... : ... .. . ... ... : ... .. . ... ... : ... .. . ... ...
ROW 42 : ... .. 2 ... ... ... : ... .. 4 ... ... ... : --- .. . ... : 7-# 00 1 ... : ... .. . ... ... : ... .. . ... ... : ... .. . ... ... : ... .. . ... ...
ROW 43 : ... .. F ... ... ... : F-3 00 8 ... ... ... : D-2 00 . ... : 1-# 00 D ... : ... .. . ... ... : ... .. . ... ... : ... .. . ... ... : ... .. . ... ...
ROW 44 : ... .. E ... ... ... : ... .. 3 ... ... ... : ... .. . ... : ... .. . ... : ... .. . ... ... : ... .. . ... ... : ... .. . ... ... : ... .. . ... ...
ROW 45 : ... .. D ... ... ... : ... .. 0 ... ... ... : ... .. . ... : D-# 00 D ... : ... .. . ... ... : ... .. . ... ... : ... .. . ... ... : ... .. . ... ...
ROW 46 : ... .. A ... ... ... : F-3 00 3 P80 ... ... : ... .. . ... : B-# 00 6 ... : ... .. . ... ... : ... .. . ... ... : ... .. . ... ... : ... .. . ... ...
ROW 47 : ... .. 2 ... ... ... : ... .. 4 ... ... ... : --- .. . ... : 7-# 00 1 ... : ... .. . ... ... : ... .. . ... ... : ... .. . ... ... : ... .. . ... ...
ROW 48 : D-3 00 F ... ... ... : F-4 00 8 ... ... ... : A#3 00 . ... : 1-# 00 F ... : ... .. . ... ... : A#4 01 A ... ... : D-4 01 8 ... ... : F-3 01 C ... ...
ROW 49 : ... .. E ... ... ... : ... .. 3 ... ... ... : G-3 00 . P7B : ... .. C ... : ... .. . ... ... : ... .. 9 ... ... : ... .. 7 ... ... : ... .. A ... ...
ROW 4A : ... .. D ... ... ... : ... .. 0 ... ... ... : E-3 00 . P7F : ... .. 6 ... : ... .. . ... ... : ... .. 8 ... ... : ... .. 6 ... ... : ... .. 6 ... ...
ROW 4B : ... .. A ... ... ... : F-4 00 3 P80 ... ... : D-3 00 . P77 : ... .. 3 ... : ... .. . ... ... : ... .. 7 ... ... : ... .. 5 ... ... : ... .. . ... ...
ROW 4C : ... .. . ... ... ... : ... .. 4 ... ... ... : C-3 00 . P74 : ... .. 2 ... : ... .. . ... ... : ... .. . ... ... : ... .. . ... ... : ... .. . ... ...
ROW 4D : ... .. . ... ... ... : D-4 00 8 ... ... ... : A#2 00 . P76 : D-# 00 8 ... : ... .. . ... ... : ... .. 6 ... ... : ... .. 4 ... ... : ... .. . ... ...
ROW 4E : ... .. . ... ... ... : ... .. 3 ... ... ... : G#2 00 . P7F : ... .. 6 ... : ... .. . ... ... : ... .. . ... ... : ... .. . ... ... : ... .. . ... ...
ROW 4F : ... .. . ... ... ... : ... .. 0 ... ... ... : F#2 00 . P8F : ... .. 3 ... : ... .. . ... ... : ... .. 5 ... ... : ... .. . ... ... : ... .. . ... ...
ROW 50 : ... .. . ... ... ... : D-4 00 3 P80 ... ... : --- .. . ... : ... .. 1 ... : ... .. . ... ... : ... .. . ... ... : ... .. . ... ... : ... .. . ... ...
ROW 51 : ... .. . ... ... ... : ... .. 4 ... ... ... : ... .. . ... : ... .. . ... : ... .. . ... ... : ... .. . ... ... : ... .. . ... ... : ... .. . ... ...
ROW 52 : ... .. . ... ... ... : A#3 00 8 ... ... ... : A#2 00 . P80 : ... .. A ... : ... .. . ... ... : ... .. . ... ... : ... .. . ... ... : ... .. . ... ...
ROW 53 : ... .. . ... ... ... : ... .. 3 ... ... ... : ... .. . ... : ... .. 8 ... : ... .. . ... ... : ... .. . ... ... : ... .. . ... ... : ... .. . ... ...
ROW 54 : ... .. . ... ... ... : ... .. 0 ... ... ... : ... .. . ... : ... .. 4 ... : ... .. . ... ... : ... .. . ... ... : ... .. . ... ... : ... .. . ... ...
ROW 55 : ... .. . ... ... ... : A#3 00 3 P80 ... ... : ... .. . ... : ... .. 2 ... : ... .. . ... ... : ... .. . ... ... : ... .. . ... ... : ... .. . ... ...
ROW 56 : ... .. . ... ... ... : ... .. 4 ... ... ... : ... .. . ... : ... .. 1 ... : ... .. . ... ... : ... .. . ... ... : ... .. . ... ... : ... .. . ... ...
ROW 57 : ... .. . ... ... ... : F-3 00 8 ... ... ... : ... .. . ... : ... .. 8 ... : ... .. . ... ... : ... .. . ... ... : ... .. . ... ... : ... .. . ... ...
ROW 58 : ... .. . ... ... ... : ... .. 3 ... ... ... : ... .. . ... : ... .. 6 ... : ... .. . ... ... : ... .. . ... ... : ... .. . ... ... : ... .. . ... ...
ROW 59 : ... .. . ... ... ... : ... .. 0 ... ... ... : ... .. . ... : ... .. 3 ... : ... .. . ... ... : ... .. . ... ... : ... .. . ... ... : ... .. . ... ...
ROW 5A : ... .. . ... ... ... : F-3 00 3 P80 ... ... : --- .. . ... : ... .. 1 ... : ... .. . ... ... : ... .. . ... ... : ... .. . ... ... : ... .. . ... ...
ROW 5B : ... .. . ... ... ... : ... .. 4 ... ... ... : ... .. . ... : ... .. . ... : ... .. . ... ... : ... .. . ... ... : ... .. . ... ... : ... .. . ... ...
ROW 5C : ... .. . ... ... ... : F-4 00 8 ... ... ... : A#3 00 . ... : 1-# 00 D ... : ... .. . ... ... : ... .. . ... ... : ... .. . ... ... : ... .. . ... ...
ROW 5D : ... .. . ... ... ... : ... .. 3 ... ... ... : ... .. . ... : ... .. . ... : ... .. . ... ... : ... .. . ... ... : ... .. . ... ... : ... .. . ... ...
ROW 5E : ... .. . ... ... ... : ... .. 0 ... ... ... : ... .. . ... : D-# 00 D ... : ... .. . ... ... : ... .. . ... ... : ... .. . ... ... : ... .. . ... ...
ROW 5F : ... .. . ... ... ... : F-4 00 3 P80 ... ... : ... .. . ... : B-# 00 6 ... : ... .. . ... ... : ... .. . ... ... : ... .. . ... ... : ... .. . ... ...
ROW 60 : ... .. . ... ... ... : ... .. 4 ... ... ... : --- .. . ... : 7-# 00 1 ... : ... .. . ... ... : ... .. . ... ... : ... .. . ... ... : ... .. . ... ...
ROW 61 : ... .. . ... ... ... : D-4 00 8 ... ... ... : A#3 00 . ... : D-# 00 8 ... : ... .. . ... ... : ... .. . ... ... : ... .. . ... ... : ... .. . ... ...
ROW 62 : ... .. . ... ... ... : ... .. 3 ... ... ... : ... .. . ... : ... .. 6 ... : ... .. . ... ... : ... .. . ... ... : ... .. . ... ... : ... .. . ... ...
ROW 63 : ... .. . ... ... ... : ... .. 0 ... ... ... : ... .. . ... : ... .. 3 ... : ... .. . ... ... : ... .. . ... ... : ... .. . ... ... : ... .. . ... ...
ROW 64 : ... .. . ... ... ... : D-4 00 3 P80 ... ... : ... .. . ... : ... .. 1 ... : ... .. . ... ... : ... .. . ... ... : ... .. . ... ... : ... .. . ... ...
ROW 65 : ... .. . ... ... ... : ... .. 4 ... ... ... : --- .. . ... : ... .. . ... : ... .. . ... ... : ... .. . ... ... : ... .. . ... ... : ... .. . ... ...
ROW 66 : ... .. . ... ... ... : A#3 00 8 ... ... ... : A#2 00 . ... : ... .. A ... : ... .. . ... ... : ... .. . ... ... : ... .. . ... ... : ... .. . ... ...
ROW 67 : ... .. . ... ... ... : ... .. 3 ... ... ... : ... .. . ... : ... .. 8 ... : ... .. . ... ... : ... .. . ... ... : ... .. . ... ... : ... .. 3 ... ...
ROW 68 : ... .. . ... ... ... : ... .. 0 ... ... ... : ... .. . ... : ... .. 4 ... : ... .. . ... ... : ... .. 3 ... ... : ... .. 2 ... ... : ... .. . ... ...
ROW 69 : ... .. . ... ... ... : A#3 00 3 P80 ... ... : ... .. . ... : ... .. 2 ... : ... .. . ... ... : ... .. . ... ... : ... .. . ... ... : ... .. 1 ... ...
ROW 6A : ... .. . ... ... ... : ... .. 4 ... ... ... : --- .. . ... : ... .. 1 ... : ... .. . ... ... : ... .. . ... ... : ... .. . ... ... : ... .. . ... ...
ROW 6B : ... .. . ... ... ... : F-3 00 8 ... ... ... : A#2 00 . ... : ... .. 8 ... : ... .. . ... ... : ... .. . ... ... : ... .. . ... ... : ... .. . ... ...
ROW 6C : ... .. . ... ... ... : ... .. 3 ... ... ... : ... .. . ... : ... .. 6 ... : ... .. . ... ... : ... .. . ... ... : ... .. . ... ... : ... .. . ... ...
ROW 6D : ... .. . ... ... ... : ... .. 0 ... ... ... : ... .. . ... : ... .. 3 ... : ... .. . ... ... : ... .. . ... ... : ... .. . ... ... : ... .. . ... ...
ROW 6E : ... .. . ... ... ... : F-3 00 3 P80 ... ... : ... .. . ... : ... .. 1 ... : ... .. . ... ... : ... .. . ... ... : ... .. . ... ... : ... .. . ... ...
ROW 6F : ... .. . ... ... ... : ... .. 4 ... ... ... : --- .. . ... : ... .. . ... : ... .. . ... ... : ... .. . ... ... : ... .. . ... ... : ... .. . ... ...
ROW 70 : ... .. . ... ... ... : F-4 00 8 ... ... ... : A#3 00 . ... : 1-# 00 F ... : ... .. . ... ... : D-5 01 A ... ... : F-4 01 8 ... ... : A#3 01 C ... ...
ROW 71 : ... .. . ... ... ... : ... .. 3 ... ... ... : G-3 00 . P7B : ... .. C ... : ... .. . ... ... : ... .. 9 ... ... : ... .. 7 ... ... : ... .. A ... ...
ROW 72 : ... .. . ... ... ... : ... .. 0 ... ... ... : E-3 00 . P7F : ... .. 6 ... : ... .. . ... ... : ... .. 8 ... ... : ... .. 6 ... ... : ... .. 6 ... ...
ROW 73 : ... .. . ... ... ... : F-4 00 3 P80 ... ... : D-3 00 . P77 : ... .. 3 ... : ... .. . ... ... : ... .. 7 ... ... : ... .. 5 ... ... : ... .. . ... ...
ROW 74 : ... .. . ... ... ... : ... .. 4 ... ... ... : C-3 00 . P74 : ... .. 2 ... : ... .. . ... ... : ... .. . ... ... : ... .. . ... ... : ... .. . ... ...
ROW 75 : ... .. . ... ... ... : D-4 00 8 ... ... ... : A#2 00 . P76 : D-# 00 8 ... : ... .. . ... ... : ... .. 6 ... ... : ... .. 4 ... ... : ... .. . ... ...
ROW 76 : ... .. . ... ... ... : ... .. 3 ... ... ... : G#2 00 . P7F : ... .. 6 ... : ... .. . ... ... : ... .. . ... ... : ... .. . ... ... : ... .. . ... ...
ROW 77 : ... .. . ... ... ... : ... .. 0 ... ... ... : F#2 00 . P8F : ... .. 3 ... : ... .. . ... ... : ... .. 5 ... ... : ... .. . ... ... : ... .. . ... ...
ROW 78 : ... .. . ... ... ... : D-4 00 3 P80 ... ... : --- .. . ... : ... .. 1 ... : ... .. . ... ... : ... .. . ... ... : ... .. . ... ... : ... .. . ... ...
ROW 79 : ... .. . ... ... ... : ... .. 4 ... ... ... : ... .. . ... : ... .. . ... : ... .. . ... ... : ... .. . ... ... : ... .. . ... ... : ... .. . ... ...
ROW 7A : E-3 00 F ... ... ... : A#3 00 8 ... ... ... : A#2 00 . P80 : ... .. A ... : ... .. . ... ... : ... .. . ... ... : ... .. . ... ... : ... .. . ... ...
ROW 7B : ... .. E ... ... ... : ... .. 3 ... ... ... : ... .. . ... : ... .. 8 ... : ... .. . ... ... : ... .. . ... ... : ... .. . ... ... : ... .. . ... ...
ROW 7C : ... .. D ... ... ... : ... .. 0 ... ... ... : ... .. . ... : ... .. 4 ... : ... .. . ... ... : ... .. . ... ... : ... .. . ... ... : ... .. . ... ...
ROW 7D : ... .. A ... ... ... : A#3 00 3 P80 ... ... : ... .. . ... : ... .. 2 ... : ... .. . ... ... : ... .. . ... ... : ... .. . ... ... : ... .. . ... ...
ROW 7E : ... .. . ... ... ... : ... .. 4 ... ... ... : ... .. . ... : ... .. 1 ... : ... .. . ... ... : ... .. . ... ... : ... .. . ... ... : ... .. . ... ...
ROW 7F : ... .. . ... ... ... : F-3 00 8 ... ... ... : ... .. . ... : ... .. 8 ... : ... .. . ... ... : ... .. . ... ... : ... .. . ... ... : ... .. . ... ...
ROW 80 : ... .. 2 ... ... ... : ... .. 3 ... ... ... : ... .. . ... : ... .. 6 ... : ... .. . ... ... : ... .. . ... ... : ... .. . ... ... : ... .. . ... ...
ROW 81 : ... .. . ... ... ... : ... .. 0 ... ... ... : ... .. . ... : ... .. 3 ... : ... .. . ... ... : ... .. . ... ... : ... .. . ... ... : ... .. . ... ...
ROW 82 : ... .. . ... ... ... : F-3 00 3 P80 ... ... : --- .. . ... : ... .. 1 ... : ... .. . ... ... : ... .. . ... ... : ... .. . ... ... : ... .. . ... ...
ROW 83 : ... .. 1 ... ... ... : ... .. 4 ... ... ... : ... .. . ... : ... .. . ... : ... .. . ... ... : ... .. . ... ... : ... .. . ... ... : ... .. . ... ...
ROW 84 : F-3 00 F ... ... ... : F-4 00 8 ... ... ... : A#3 00 . ... : 1-# 00 D ... : ... .. . ... ... : ... .. . ... ... : ... .. . ... ... : ... .. . ... ...
ROW 85 : ... .. E ... ... ... : ... .. 3 ... ... ... : ... .. . ... : ... .. . ... : ... .. . ... ... : ... .. . ... ... : ... .. . ... ... : ... .. . ... ...
ROW 86 : ... .. D ... ... ... : ... .. 0 ... ... ... : ... .. . ... : D-# 00 D ... : ... .. . ... ... : ... .. . ... ... : ... .. . ... ... : ... .. . ... ...
ROW 87 : ... .. A ... ... ... : F-4 00 3 P80 ... ... : ... .. . ... : B-# 00 6 ... : ... .. . ... ... : ... .. . ... ... : ... .. . ... ... : ... .. . ... ...
ROW 88 : ... .. . ... ... ... : ... .. 4 ... ... ... : --- .. . ... : 7-# 00 1 ... : ... .. . ... ... : ... .. . ... ... : ... .. . ... ... : ... .. . ... ...
ROW 89 : ... .. . ... ... ... : D-4 00 8 ... ... ... : A#3 00 . ... : D-# 00 8 ... : ... .. . ... ... : ... .. . ... ... : ... .. . ... ... : ... .. . ... ...
ROW 8A : ... .. 2 ... ... ... : ... .. 3 ... ... ... : ... .. . ... : ... .. 6 ... : ... .. . ... ... : ... .. . ... ... : ... .. . ... ... : ... .. . ... ...
ROW 8B : ... .. . ... ... ... : ... .. 0 ... ... ... : ... .. . ... : ... .. 3 ... : ... .. . ... ... : ... .. . ... ... : ... .. . ... ... : ... .. . ... ...
ROW 8C : ... .. . ... ... ... : D-4 00 3 P80 ... ... : ... .. . ... : ... .. 1 ... : ... .. . ... ... : ... .. . ... ... : ... .. . ... ... : ... .. . ... ...
ROW 8D : ... .. 1 ... ... ... : ... .. 4 ... ... ... : --- .. . ... : ... .. . ... : ... .. . ... ... : ... .. . ... ... : ... .. . ... ... : ... .. . ... ...
ROW 8E : G-3 00 F ... ... ... : A#3 00 8 ... ... ... : A#2 00 . ... : ... .. A ... : ... .. . ... ... : ... .. . ... ... : ... .. . ... ... : ... .. . ... ...
ROW 8F : ... .. E ... ... ... : ... .. 3 ... ... ... : ... .. . ... : ... .. 8 ... : ... .. . ... ... : ... .. . ... ... : ... .. . ... ... : ... .. 3 ... ...
ROW 90 : ... .. D ... ... ... : ... .. 0 ... ... ... : ... .. . ... : ... .. 4 ... : ... .. . ... ... : ... .. 3 ... ... : ... .. 2 ... ... : ... .. . ... ...
ROW 91 : ... .. A ... ... ... : A#3 00 3 P80 ... ... : ... .. . ... : ... .. 2 ... : ... .. . ... ... : ... .. . ... ... : ... .. . ... ... : ... .. 1 ... ...
ROW 92 : ... .. . ... ... ... : ... .. 4 ... ... ... : --- .. . ... : ... .. 1 ... : ... .. . ... ... : ... .. . ... ... : ... .. . ... ... : ... .. . ... ...
ROW 93 : ... .. . ... ... ... : F-3 00 8 ... ... ... : A#2 00 . ... : ... .. 8 ... : ... .. . ... ... : ... .. . ... ... : ... .. . ... ... : ... .. . ... ...
ROW 94 : ... .. 2 ... ... ... : ... .. 3 ... ... ... : ... .. . ... : ... .. 6 ... : ... .. . ... ... : ... .. . ... ... : ... .. . ... ... : ... .. . ... ...
ROW 95 : ... .. . ... ... ... : ... .. 0 ... ... ... : ... .. . ... : ... .. 3 ... : ... .. . ... ... : ... .. . ... ... : ... .. . ... ... : ... .. . ... ...
ROW 96 : ... .. . ... ... ... : F-3 00 3 P80 ... ... : ... .. . ... : ... .. 1 ... : ... .. . ... ... : ... .. . ... ... : ... .. . ... ... : ... .. . ... ...
ROW 97 : ... .. 1 ... ... ... : ... .. 4 ... ... ... : --- .. . ... : ... .. . ... : ... .. . ... ... : ... .. . ... ... : ... .. . ... ... : ... .. . ... ...
ROW 98 : A-3 00 F ... ... ... : F-4 00 8 ... ... ... : A#3 00 . ... : 1-# 00 F ... : ... .. . ... ... : C-5 01 A ... ... : ... .. 8 ... ... : A-3 01 C ... ...
ROW 99 : ... .. E ... ... ... : ... .. 3 ... ... ... : G-3 00 . P7B : ... .. C ... : ... .. . ... ... : ... .. 9 ... ... : ... .. 7 ... ... : ... .. A ... ...
ROW 9A : ... .. D ... ... ... : ... .. 0 ... ... ... : E-3 00 . P7F : ... .. 6 ... : ... .. . ... ... : ... .. 8 ... ... : ... .. 6 ... ... : ... .. 6 ... ...
ROW 9B : ... .. A ... ... ... : F-4 00 3 P80 ... ... : D-3 00 . P77 : ... .. 3 ... : ... .. . ... ... : ... .. 7 ... ... : ... .. 5 ... ... : ... .. . ... ...
ROW 9C : ... .. 2 ... ... ... : ... .. 4 ... ... ... : C-3 00 . P74 : ... .. 2 ... : ... .. . ... ... : ... .. . ... ... : ... .. . ... ... : ... .. . ... ...
ROW 9D : G-3 00 F ... ... ... : C-4 00 8 ... ... ... : A#2 00 . P76 : D-# 00 8 ... : ... .. . ... ... : ... .. 6 ... ... : ... .. 4 ... ... : ... .. . ... ...
ROW 9E : ... .. E ... ... ... : ... .. 3 ... ... ... : G#2 00 . P7F : ... .. 6 ... : ... .. . ... ... : ... .. . ... ... : ... .. . ... ... : ... .. . ... ...
ROW 9F : ... .. D ... ... ... : ... .. 0 ... ... ... : F#2 00 . P8F : ... .. 3 ... : ... .. . ... ... : ... .. 5 ... ... : ... .. . ... ... : ... .. . ... ...
ROW A0 : ... .. A ... ... ... : C-4 00 3 P80 ... ... : --- .. . ... : ... .. 1 ... : ... .. . ... ... : ... .. . ... ... : ... .. . ... ... : ... .. . ... ...
ROW A1 : ... .. 2 ... ... ... : ... .. 4 ... ... ... : ... .. . ... : ... .. . ... : ... .. . ... ... : ... .. . ... ... : ... .. . ... ... : ... .. . ... ...
ROW A2 : A-3 00 F ... ... ... : A-3 00 8 ... ... ... : A-2 00 . P80 : ... .. A ... : ... .. . ... ... : ... .. . ... ... : ... .. . ... ... : ... .. . ... ...
ROW A3 : ... .. E ... ... ... : ... .. 3 ... ... ... : ... .. . ... : ... .. 8 ... : ... .. . ... ... : ... .. . ... ... : ... .. . ... ... : ... .. . ... ...
ROW A4 : ... .. D ... ... ... : ... .. 0 ... ... ... : ... .. . ... : ... .. 4 ... : ... .. . ... ... : ... .. . ... ... : ... .. . ... ... : ... .. . ... ...
ROW A5 : ... .. A ... ... ... : A-3 00 3 P80 ... ... : ... .. . ... : ... .. 2 ... : ... .. . ... ... : ... .. . ... ... : ... .. . ... ... : ... .. . ... ...
ROW A6 : ... .. . ... ... ... : ... .. 4 ... ... ... : ... .. . ... : ... .. 1 ... : ... .. . ... ... : ... .. . ... ... : ... .. . ... ... : ... .. . ... ...
ROW A7 : ... .. . ... ... ... : F-3 00 8 ... ... ... : ... .. . ... : ... .. 8 ... : ... .. . ... ... : ... .. . ... ... : ... .. . ... ... : ... .. . ... ...
ROW A8 : ... .. . ... ... ... : ... .. 3 ... ... ... : ... .. . ... : ... .. 6 ... : ... .. . ... ... : ... .. . ... ... : ... .. . ... ... : ... .. . ... ...
ROW A9 : ... .. . ... ... ... : ... .. 0 ... ... ... : ... .. . ... : ... .. 3 ... : ... .. . ... ... : ... .. . ... ... : ... .. . ... ... : ... .. . ... ...
ROW AA : ... .. . ... ... ... : F-3 00 3 P80 ... ... : --- .. . ... : ... .. 1 ... : ... .. . ... ... : ... .. . ... ... : ... .. . ... ... : ... .. . ... ...
ROW AB : ... .. . ... ... ... : ... .. 4 ... ... ... : ... .. . ... : ... .. . ... : ... .. . ... ... : ... .. . ... ... : ... .. . ... ... : ... .. . ... ...
ROW AC : ... .. . ... ... ... : F-4 00 8 ... ... ... : A-3 00 . ... : 1-# 00 D ... : ... .. . ... ... : ... .. . ... ... : ... .. . ... ... : ... .. . ... ...
ROW AD : ... .. . ... ... ... : ... .. 3 ... ... ... : ... .. . ... : ... .. . ... : ... .. . ... ... : ... .. . ... ... : ... .. . ... ... : ... .. . ... ...
ROW AE : ... .. . ... ... ... : ... .. 0 ... ... ... : ... .. . ... : D-# 00 D ... : ... .. . ... ... : ... .. . ... ... : ... .. . ... ... : ... .. . ... ...
ROW AF : ... .. . ... ... ... : F-4 00 3 P80 ... ... : ... .. . ... : B-# 00 6 ... : ... .. . ... ... : ... .. . ... ... : ... .. . ... ... : ... .. . ... ...
ROW B0 : ... .. . ... ... ... : ... .. 4 ... ... ... : --- .. . ... : 7-# 00 1 ... : ... .. . ... ... : ... .. . ... ... : ... .. . ... ... : ... .. . ... ...
ROW B1 : ... .. . ... ... ... : C-4 00 8 ... ... ... : A-3 00 . ... : D-# 00 8 ... : ... .. . ... ... : ... .. . ... ... : ... .. . ... ... : ... .. . ... ...
ROW B2 : ... .. . ... ... ... : ... .. 3 ... ... ... : ... .. . ... : ... .. 6 ... : ... .. . ... ... : ... .. . ... ... : ... .. . ... ... : ... .. . ... ...
ROW B3 : ... .. . ... ... ... : ... .. 0 ... ... ... : ... .. . ... : ... .. 3 ... : ... .. . ... ... : ... .. . ... ... : ... .. . ... ... : ... .. . ... ...
ROW B4 : ... .. . ... ... ... : C-4 00 3 P80 ... ... : ... .. . ... : ... .. 1 ... : ... .. . ... ... : ... .. . ... ... : ... .. . ... ... : ... .. . ... ...
ROW B5 : ... .. . ... ... ... : ... .. 4 ... ... ... : --- .. . ... : ... .. . ... : ... .. . ... ... : ... .. . ... ... : ... .. . ... ... : ... .. . ... ...
ROW B6 : ... .. . ... ... ... : A-3 00 8 ... ... ... : A-2 00 . ... : ... .. A ... : ... .. . ... ... : ... .. . ... ... : ... .. . ... ... : ... .. . ... ...
ROW B7 : ... .. . ... ... ... : ... .. 3 ... ... ... : ... .. . ... : ... .. 8 ... : ... .. . ... ... : ... .. . ... ... : ... .. . ... ... : ... .. 3 ... ...
ROW B8 : ... .. . ... ... ... : ... .. 0 ... ... ... : ... .. . ... : ... .. 4 ... : ... .. . ... ... : ... .. 3 ... ... : ... .. 2 ... ... : ... .. . ... ...
ROW B9 : ... .. . ... ... ... : A-3 00 3 P80 ... ... : ... .. . ... : ... .. 2 ... : ... .. . ... ... : ... .. . ... ... : ... .. . ... ... : ... .. 1 ... ...
ROW BA : ... .. . ... ... ... : ... .. 4 ... ... ... : --- .. . ... : ... .. 1 ... : ... .. . ... ... : ... .. . ... ... : ... .. . ... ... : ... .. . ... ...
ROW BB : ... .. . ... ... ... : F-3 00 8 ... ... ... : A-2 00 . ... : ... .. 8 ... : ... .. . ... ... : ... .. . ... ... : ... .. . ... ... : ... .. . ... ...
ROW BC : ... .. . ... ... ... : ... .. 3 ... ... ... : ... .. . ... : ... .. 6 ... : ... .. . ... ... : ... .. . ... ... : ... .. . ... ... : ... .. . ... ...
ROW BD : ... .. . ... ... ... : ... .. 0 ... ... ... : ... .. . ... : ... .. 3 ... : ... .. . ... ... : ... .. . ... ... : ... .. . ... ... : ... .. . ... ...
ROW BE : ... .. . ... ... ... : F-3 00 3 P80 ... ... : ... .. . ... : ... .. 1 ... : ... .. . ... ... : ... .. . ... ... : ... .. . ... ... : ... .. . ... ...
ROW BF : ... .. . ... ... ... : ... .. 4 ... ... ... : --- .. . ... : ... .. . ... : ... .. . ... ... : ... .. . ... ... : ... .. . ... ... : ... .. . ... ...
ROW C0 : ... .. . ... ... ... : F-4 00 8 ... ... ... : A#3 00 . ... : 1-# 00 F ... : ... .. . ... ... : F-4 01 A ... ... : A-3 01 8 ... ... : C-3 01 C ... ...
ROW C1 : ... .. . ... ... ... : ... .. 3 ... ... ... : G-3 00 . P7B : ... .. C ... : ... .. . ... ... : ... .. 9 ... ... : ... .. 7 ... ... : ... .. A ... ...
ROW C2 : ... .. . ... ... ... : ... .. 0 ... ... ... : E-3 00 . P7F : ... .. 6 ... : ... .. . ... ... : ... .. 8 ... ... : ... .. 6 ... ... : ... .. 6 ... ...
ROW C3 : ... .. . ... ... ... : F-4 00 3 P80 ... ... : D-3 00 . P77 : ... .. 3 ... : ... .. . ... ... : ... .. 7 ... ... : ... .. 5 ... ... : ... .. . ... ...
ROW C4 : ... .. . ... ... ... : ... .. 4 ... ... ... : C-3 00 . P74 : ... .. 2 ... : ... .. . ... ... : ... .. . ... ... : ... .. . ... ... : ... .. . ... ...
ROW C5 : ... .. . ... ... ... : C-4 00 8 ... ... ... : A#2 00 . P76 : D-# 00 8 ... : ... .. . ... ... : ... .. 6 ... ... : ... .. 4 ... ... : ... .. . ... ...
ROW C6 : ... .. . ... ... ... : ... .. 3 ... ... ... : G#2 00 . P7F : ... .. 6 ... : ... .. . ... ... : ... .. . ... ... : ... .. . ... ... : ... .. . ... ...
ROW C7 : ... .. . ... ... ... : ... .. 0 ... ... ... : F#2 00 . P8F : ... .. 3 ... : ... .. . ... ... : ... .. 5 ... ... : ... .. . ... ... : ... .. . ... ...
ROW C8 : ... .. . ... ... ... : C-4 00 3 P80 ... ... : --- .. . ... : ... .. 1 ... : ... .. . ... ... : ... .. . ... ... : ... .. . ... ... : ... .. . ... ...
ROW C9 : ... .. . ... ... ... : ... .. 4 ... ... ... : ... .. . ... : ... .. . ... : ... .. . ... ... : ... .. . ... ... : ... .. . ... ... : ... .. . ... ...
ROW CA : ... .. . ... ... ... : A-3 00 8 ... ... ... : A-2 00 . P80 : ... .. A ... : ... .. . ... ... : ... .. . ... ... : ... .. . ... ... : ... .. . ... ...
ROW CB : ... .. 2 ... ... ... : ... .. 3 ... ... ... : ... .. . ... : ... .. 8 ... : ... .. . ... ... : ... .. . ... ... : ... .. . ... ... : ... .. . ... ...
ROW CC : ... .. . ... ... ... : ... .. 0 ... ... ... : ... .. . ... : ... .. 4 ... : ... .. . ... ... : ... .. . ... ... : ... .. . ... ... : ... .. . ... ...
ROW CD : ... .. . ... ... ... : A-3 00 3 P80 ... ... : ... .. . ... : ... .. 2 ... : ... .. . ... ... : ... .. . ... ... : ... .. . ... ... : ... .. . ... ...
ROW CE : ... .. 1 ... ... ... : ... .. 4 ... ... ... : ... .. . ... : ... .. 1 ... : ... .. . ... ... : ... .. . ... ... : ... .. . ... ... : ... .. . ... ...
ROW CF : ... .. . ... ... ... : F-3 00 8 ... ... ... : ... .. . ... : ... .. 8 ... : ... .. . ... ... : ... .. . ... ... : ... .. . ... ... : ... .. . ... ...
ROW D0 : ... .. . ... ... ... : ... .. 3 ... ... ... : ... .. . ... : ... .. 6 ... : ... .. . ... ... : ... .. . ... ... : ... .. . ... ... : ... .. . ... ...
ROW D1 : ... .. 0 ... ... ... : ... .. 0 ... ... ... : ... .. . ... : ... .. 3 ... : ... .. . ... ... : ... .. . ... ... : ... .. . ... ... : ... .. . ... ...
ROW D2 : ... .. . ... ... ... : F-3 00 3 P80 ... ... : --- .. . ... : ... .. 1 ... : ... .. . ... ... : ... .. . ... ... : ... .. . ... ... : ... .. . ... ...
ROW D3 : ... .. . ... ... ... : ... .. 4 ... ... ... : ... .. . ... : ... .. . ... : ... .. . ... ... : ... .. . ... ... : ... .. . ... ... : ... .. . ... ...
ROW D4 : F-3 00 F P80 ... ... : F-4 00 8 ... ... ... : A-3 00 . ... : 1-# 00 D ... : ... .. . ... ... : ... .. . ... ... : ... .. . ... ... : ... .. . ... ...
ROW D5 : ... .. E ... ... ... : ... .. 3 ... ... ... : ... .. . ... : ... .. . ... : ... .. . ... ... : ... .. . ... ... : ... .. . ... ... : ... .. 3 ... ...
ROW D6 : ... .. D ... ... ... : ... .. 0 ... ... ... : ... .. . ... : D-# 00 D ... : ... .. . ... ... : ... .. 3 ... ... : ... .. 2 ... ... : ... .. . ... ...
ROW D7 : ... .. A ... ... ... : F-4 00 3 P80 ... ... : ... .. . ... : B-# 00 6 ... : ... .. . ... ... : ... .. . ... ... : ... .. . ... ... : ... .. 1 ... ...
ROW D8 : ... .. . ... ... ... : ... .. 4 ... ... ... : --- .. . ... : 7-# 00 1 ... : ... .. . ... ... : ... .. . ... ... : ... .. . ... ... : ... .. . ... ...
ROW D9 : ... .. . ... ... ... : C-4 00 8 ... ... ... : A-3 00 . ... : D-# 00 8 ... : ... .. . ... ... : ... .. . ... ... : ... .. . ... ... : ... .. . ... ...
ROW DA : ... .. . ... ... ... : ... .. 3 ... ... ... : ... .. . ... : ... .. 6 ... : ... .. . ... ... : ... .. . ... ... : ... .. . ... ... : ... .. . ... ...
ROW DB : ... .. . ... ... ... : ... .. 0 ... ... ... : ... .. . ... : ... .. 3 ... : ... .. . ... ... : ... .. . ... ... : ... .. . ... ... : ... .. . ... ...
ROW DC : ... .. . ... ... ... : C-4 00 3 P80 ... ... : ... .. . ... : ... .. 1 ... : ... .. . ... ... : ... .. . ... ... : ... .. . ... ... : ... .. . ... ...
ROW DD : ... .. . ... ... ... : ... .. 4 ... ... ... : --- .. . ... : ... .. . ... : ... .. . ... ... : ... .. . ... ... : ... .. . ... ... : ... .. . ... ...
ROW DE : G-3 00 F ... ... ... : A-3 00 8 ... ... ... : A-2 00 . ... : ... .. A ... : ... .. . ... ... : A-4 01 8 ... ... : E-3 01 8 ... ... : B-3 01 C ... ...
ROW DF : ... .. E ... ... ... : ... .. 3 ... ... ... : ... .. . ... : ... .. 8 ... : ... .. . ... ... : ... .. 7 ... ... : ... .. 7 ... ... : ... .. A ... ...
ROW E0 : ... .. D ... ... ... : ... .. 0 ... ... ... : ... .. . ... : ... .. 4 ... : ... .. . ... ... : ... .. 6 ... ... : ... .. 6 ... ... : ... .. 6 ... ...
ROW E1 : ... .. A ... ... ... : A-3 00 3 P80 ... ... : ... .. . ... : ... .. 2 ... : ... .. . ... ... : --- .. . ... ... : --- .. . P7E ... : --- .. . P8E ...
ROW E2 : ... .. . ... ... ... : ... .. 4 ... ... ... : --- .. . ... : ... .. 1 ... : ... .. . ... ... : ... .. . ... ... : ... .. . ... ... : ... .. . ... ...
ROW E3 : ... .. . ... ... ... : F-3 00 8 ... ... ... : A-2 00 . ... : ... .. 8 ... : ... .. . ... ... : A-4 01 8 ... ... : E-3 01 8 P81 ... : B-3 01 C P80 ...
ROW E4 : ... .. 2 ... ... ... : ... .. 3 ... ... ... : ... .. . ... : ... .. 6 ... : ... .. . ... ... : ... .. 7 ... ... : ... .. 7 ... ... : ... .. A ... ...
ROW E5 : ... .. . ... ... ... : ... .. 0 ... ... ... : ... .. . ... : ... .. 3 ... : ... .. . ... ... : ... .. 6 ... ... : ... .. 6 ... ... : ... .. 6 ... ...
ROW E6 : ... .. . ... ... ... : F-3 00 3 P80 ... ... : ... .. . ... : ... .. 1 ... : ... .. . ... ... : --- .. . ... ... : --- .. . P7E ... : --- .. . P8E ...
ROW E7 : ... .. 1 ... ... ... : ... .. 4 ... ... ... : --- .. . ... : ... .. . ... : ... .. . ... ... : ... .. . ... ... : ... .. . ... ... : ... .. . ... ...
ROW E8 : A-3 00 F ... ... ... : E-4 00 8 ... ... ... : E-2 00 . ... : 1-# 00 F ... : ... .. . ... ... : A-4 01 8 ... ... : E-4 01 8 P81 ... : B-3 01 C P80 ...
ROW E9 : ... .. E ... ... ... : ... .. 3 ... ... ... : ... .. . ... : ... .. C ... : ... .. . ... ... : ... .. 7 ... ... : ... .. 7 ... ... : ... .. A ... ...
ROW EA : ... .. D ... ... ... : ... .. 0 ... ... ... : ... .. . ... : ... .. 6 ... : ... .. . ... ... : ... .. 6 ... ... : ... .. 6 ... ... : ... .. 6 ... ...
ROW EB : ... .. A ... ... ... : E-4 00 3 P80 ... ... : ... .. . ... : ... .. 3 ... : ... .. . ... ... : ... .. 5 ... ... : ... .. 5 ... ... : ... .. . ... ...
ROW EC : ... .. . ... ... ... : ... .. 4 ... ... ... : ... .. . ... : ... .. 2 ... : ... .. . ... ... : ... .. . ... ... : ... .. . ... ... : ... .. . ... ...
ROW ED : ... .. . ... ... ... : B-3 00 8 ... ... ... : ... .. . ... : D-# 00 8 ... : ... .. . ... ... : ... .. 4 ... ... : ... .. 4 ... ... : ... .. . ... ...
ROW EE : ... .. . ... ... ... : ... .. 3 ... ... ... : ... .. . ... : ... .. 6 ... : ... .. . ... ... : ... .. . ... ... : ... .. . ... ... : ... .. . ... ...
ROW EF : ... .. . ... ... ... : ... .. 0 ... ... ... : ... .. . ... : ... .. 3 ... : ... .. . ... ... : ... .. . ... ... : ... .. . ... ... : ... .. . ... ...
ROW F0 : ... .. . ... ... ... : B-3 00 3 P80 ... ... : --- .. . ... : ... .. 1 ... : ... .. . ... ... : ... .. . ... ... : ... .. . ... ... : ... .. . ... ...
ROW F1 : ... .. . ... ... ... : ... .. 4 ... ... ... : ... .. . ... : ... .. . ... : ... .. . ... ... : ... .. . ... ... : ... .. . ... ... : ... .. . ... ...
ROW F2 : ... .. . ... ... ... : A-3 00 8 ... ... ... : E-2 00 . ... : ... .. A ... : ... .. . ... ... : ... .. . ... ... : ... .. . ... ... : ... .. . ... ...
ROW F3 : ... .. . ... ... ... : ... .. 3 ... ... ... : ... .. . ... : ... .. 8 ... : ... .. . ... ... : ... .. . ... ... : ... .. . ... ... : ... .. . ... ...
ROW F4 : ... .. . ... ... ... : ... .. 0 ... ... ... : ... .. . ... : ... .. 4 ... : ... .. . ... ... : ... .. . ... ... : ... .. . ... ... : ... .. . ... ...
ROW F5 : ... .. . ... ... ... : A-3 00 3 P80 ... ... : ... .. . ... : ... .. 2 ... : ... .. . ... ... : ... .. . ... ... : ... .. . ... ... : ... .. . ... ...
ROW F6 : ... .. . ... ... ... : ... .. 4 ... ... ... : ... .. . ... : ... .. 1 ... : ... .. . ... ... : ... .. . ... ... : ... .. . ... ... : ... .. . ... ...
ROW F7 : ... .. . ... ... ... : E-3 00 8 ... ... ... : ... .. . ... : ... .. 8 ... : ... .. . ... ... : ... .. . ... ... : ... .. . ... ... : ... .. . ... ...
ROW F8 : ... .. . ... ... ... : ... .. 3 ... ... ... : ... .. . ... : ... .. 6 ... : ... .. . ... ... : ... .. . ... ... : ... .. . ... ... : ... .. . ... ...
ROW F9 : ... .. . ... ... ... : ... .. 0 ... ... ... : ... .. . ... : ... .. 3 ... : ... .. . ... ... : ... .. . ... ... : ... .. . ... ... : ... .. . ... ...
ROW FA : ... .. . ... ... ... : E-3 00 3 P80 ... ... : --- .. . ... : ... .. 1 ... : ... .. . ... ... : ... .. . ... ... : ... .. . ... ... : ... .. . ... ...
ROW FB : ... .. . ... ... ... : ... .. 4 ... ... ... : ... .. . ... : ... .. . ... : ... .. . ... ... : ... .. . ... ... : ... .. . ... ... : ... .. . ... ...
ROW FC : ... .. . ... ... ... : E-4 00 8 ... ... ... : E-3 00 . ... : 1-# 00 D ... : ... .. . ... ... : ... .. . ... ... : ... .. . ... ... : ... .. . ... ...
ROW FD : ... .. 2 ... ... ... : ... .. 3 ... ... ... : ... .. . ... : ... .. . ... : ... .. . ... ... : ... .. . ... ... : ... .. . ... ... : ... .. . ... ...
ROW FE : ... .. . ... ... ... : ... .. 0 ... ... ... : ... .. . ... : D-# 00 D ... : ... .. . ... ... : ... .. . ... ... : ... .. . ... ... : ... .. . ... ...
ROW FF : ... .. . ... ... ... : E-4 00 3 P80 ... ... : ... .. . ... : B-# 00 6 ... : ... .. . ... ... : ... .. . ... ... : ... .. . ... ... : ... .. . ... ...

PATTERN 0E
ROW 00 : ... .. 1 ... ... ... : ... .. 4 ... ... ... : --- .. . ... : 7-# 00 1 ... : ... .. . ... ... : ... .. . ... ... : ... .. . ... ... : ... .. . ... ...
ROW 01 : ... .. . ... ... ... : B-3 00 8 ... ... ... : E-3 00 . ... : D-# 00 8 ... : ... .. . ... ... : ... .. . ... ... : ... .. . ... ... : ... .. . ... ...
ROW 02 : ... .. . ... ... ... : ... .. 3 ... ... ... : ... .. . ... : ... .. 6 ... : ... .. . ... ... : ... .. . ... ... : ... .. . ... ... : ... .. . ... ...
ROW 03 : ... .. 0 ... ... ... : ... .. 0 ... ... ... : ... .. . ... : ... .. 3 ... : ... .. . ... ... : ... .. . ... ... : ... .. . ... ... : ... .. . ... ...
ROW 04 : ... .. . ... ... ... : B-3 00 3 P80 ... ... : ... .. . ... : ... .. 1 ... : ... .. . ... ... : ... .. . ... ... : ... .. . ... ... : ... .. . ... ...
ROW 05 : ... .. . ... ... ... : ... .. 4 ... ... ... : --- .. . ... : ... .. . ... : ... .. . ... ... : ... .. . ... ... : ... .. . ... ... : ... .. . ... ...
ROW 06 : E-3 00 F P80 ... ... : A-3 00 8 ... ... ... : E-2 00 . ... : ... .. A ... : ... .. . ... ... : ... .. . ... ... : ... .. . ... ... : ... .. . ... ...
ROW 07 : ... .. E ... ... ... : ... .. 3 ... ... ... : ... .. . ... : ... .. 8 ... : ... .. . ... ... : ... .. . ... ... : ... .. . ... ... : ... .. . ... ...
ROW 08 : ... .. D ... ... ... : ... .. 0 ... ... ... : ... .. . ... : ... .. 4 ... : ... .. . ... ... : ... .. . ... ... : ... .. . ... ... : ... .. . ... ...
ROW 09 : ... .. A ... ... ... : A-3 00 3 P80 ... ... : ... .. . ... : ... .. 2 ... : ... .. . ... ... : ... .. . ... ... : ... .. . ... ... : ... .. . ... ...
ROW 0A : ... .. . ... ... ... : ... .. 4 ... ... ... : --- .. . ... : ... .. 1 ... : ... .. . ... ... : ... .. . ... ... : ... .. . ... ... : ... .. . ... ...
ROW 0B : ... .. . ... ... ... : E-3 00 8 ... ... ... : E-2 00 . ... : ... .. 8 ... : ... .. . ... ... : ... .. . ... ... : ... .. . ... ... : ... .. . ... ...
ROW 0C : ... .. 2 ... ... ... : ... .. 3 ... ... ... : ... .. . ... : ... .. 6 ... : ... .. . ... ... : ... .. . ... ... : ... .. . ... ... : ... .. . ... ...
ROW 0D : ... .. . ... ... ... : ... .. 0 ... ... ... : ... .. . ... : ... .. 3 ... : ... .. . ... ... : ... .. . ... ... : ... .. . ... ... : ... .. . ... ...
ROW 0E : ... .. . ... ... ... : E-3 00 3 P80 ... ... : ... .. . ... : ... .. 1 ... : ... .. . ... ... : ... .. . ... ... : ... .. . ... ... : ... .. . ... ...
ROW 0F : ... .. 1 ... ... ... : ... .. 4 ... ... ... : --- .. . ... : ... .. . ... : ... .. . ... ... : ... .. . ... ... : ... .. . ... ... : ... .. . ... ...
ROW 10 : ... .. F ... ... ... : E-4 00 8 ... ... ... : E-2 00 . ... : 1-# 00 F ... : ... .. . ... ... : ... .. . ... ... : ... .. . ... ... : ... .. . ... ...
ROW 11 : ... .. E ... ... ... : ... .. 3 ... ... ... : ... .. . ... : ... .. C ... : ... .. . ... ... : ... .. . ... ... : ... .. . ... ... : ... .. . ... ...
ROW 12 : ... .. D ... ... ... : ... .. 0 ... ... ... : ... .. . ... : ... .. 6 ... : ... .. . ... ... : ... .. . ... ... : ... .. . ... ... : ... .. . ... ...
ROW 13 : ... .. A ... ... ... : E-4 00 3 P80 ... ... : ... .. . ... : ... .. 3 ... : ... .. . ... ... : ... .. . ... ... : ... .. . ... ... : ... .. . ... ...
ROW 14 : ... .. . ... ... ... : ... .. 4 ... ... ... : ... .. . ... : ... .. 2 ... : ... .. . ... ... : ... .. . ... ... : ... .. . ... ... : ... .. . ... ...
ROW 15 : ... .. . ... ... ... : B-3 00 8 ... ... ... : ... .. . ... : D-# 00 8 ... : ... .. . ... ... : ... .. . ... ... : ... .. . ... ... : ... .. . ... ...
ROW 16 : ... .. . ... ... ... : ... .. 3 ... ... ... : ... .. . ... : ... .. 6 ... : ... .. . ... ... : ... .. . ... ... : ... .. . ... ... : ... .. . ... ...
ROW 17 : ... .. . ... ... ... : ... .. 0 ... ... ... : ... .. . ... : ... .. 3 ... : ... .. . ... ... : ... .. . ... ... : ... .. . ... ... : ... .. . ... ...
ROW 18 : ... .. . ... ... ... : B-3 00 3 P80 ... ... : --- .. . ... : ... .. 1 ... : ... .. . ... ... : ... .. . ... ... : ... .. . ... ... : ... .. . ... ...
ROW 19 : ... .. . ... ... ... : ... .. 4 ... ... ... : ... .. . ... : ... .. . ... : ... .. . ... ... : ... .. . ... ... : ... .. . ... ... : ... .. . ... ...
ROW 1A : ... .. . ... ... ... : A-3 00 8 ... ... ... : E-2 00 . ... : ... .. A ... : ... .. . ... ... : ... .. . ... ... : ... .. . ... ... : ... .. . ... ...
ROW 1B : ... .. . ... ... ... : ... .. 3 ... ... ... : ... .. . ... : ... .. 8 ... : ... .. . ... ... : ... .. . ... ... : ... .. . ... ... : ... .. 3 ... ...
ROW 1C : ... .. . ... ... ... : ... .. 0 ... ... ... : ... .. . ... : ... .. 4 ... : ... .. . ... ... : ... .. 2 ... ... : ... .. 2 ... ... : ... .. . ... ...
ROW 1D : ... .. . ... ... ... : A-3 00 3 P80 ... ... : ... .. . ... : ... .. 2 ... : ... .. . ... ... : ... .. . ... ... : ... .. . ... ... : ... .. 1 ... ...
ROW 1E : ... .. . ... ... ... : ... .. 4 ... ... ... : ... .. . ... : ... .. 1 ... : ... .. . ... ... : ... .. . ... ... : ... .. . ... ... : ... .. . ... ...
ROW 1F : ... .. . ... ... ... : E-3 00 8 ... ... ... : ... .. . ... : ... .. 8 ... : ... .. . ... ... : ... .. . ... ... : ... .. . ... ... : ... .. . ... ...
ROW 20 : ... .. . ... ... ... : ... .. 3 ... ... ... : ... .. . ... : ... .. 6 ... : ... .. . ... ... : ... .. . ... ... : ... .. . ... ... : ... .. . ... ...
ROW 21 : ... .. . ... ... ... : ... .. 0 ... ... ... : ... .. . ... : ... .. 3 ... : ... .. . ... ... : ... .. . ... ... : ... .. . ... ... : ... .. . ... ...
ROW 22 : ... .. . ... ... ... : E-3 00 3 P80 ... ... : --- .. . ... : ... .. 1 ... : ... .. . ... ... : ... .. . ... ... : ... .. . ... ... : ... .. . ... ...
ROW 23 : ... .. . ... ... ... : ... .. 4 ... ... ... : ... .. . ... : ... .. . ... : ... .. . ... ... : ... .. . ... ... : ... .. . ... ... : ... .. . ... ...
ROW 24 : ... .. . ... ... ... : E-4 00 8 ... ... ... : E-3 00 . ... : 1-# 00 D ... : ... .. . ... ... : F#4 01 8 ... ... : ... .. 8 ... ... : ... .. C ... ...
ROW 25 : ... .. . ... ... ... : ... .. 3 ... ... ... : ... .. . ... : ... .. . ... : ... .. . ... ... : ... .. 7 ... ... : ... .. 7 ... ... : ... .. A ... ...
ROW 26 : ... .. . ... ... ... : ... .. 0 ... ... ... : ... .. . ... : D-# 00 D ... : ... .. . ... ... : ... .. 6 ... ... : ... .. 6 ... ... : ... .. 6 ... ...
ROW 27 : ... .. . ... ... ... : E-4 00 3 P80 ... ... : ... .. . ... : B-# 00 6 ... : ... .. . ... ... : ... .. 5 ... ... : ... .. 5 ... ... : ... .. . ... ...
ROW 28 : ... .. . ... ... ... : ... .. 4 ... ... ... : --- .. . ... : 7-# 00 1 ... : ... .. . ... ... : ... .. . ... ... : ... .. . ... ... : ... .. . ... ...
ROW 29 : ... .. . ... ... ... : B-3 00 8 ... ... ... : E-3 00 . ... : D-# 00 8 ... : ... .. . ... ... : ... .. 4 ... ... : ... .. 4 ... ... : ... .. . ... ...
ROW 2A : ... .. . ... ... ... : ... .. 3 ... ... ... : ... .. . ... : ... .. 6 ... : ... .. . ... ... : ... .. . ... ... : ... .. . ... ... : ... .. . ... ...
ROW 2B : ... .. . ... ... ... : ... .. 0 ... ... ... : ... .. . ... : ... .. 3 ... : ... .. . ... ... : ... .. . ... ... : ... .. . ... ... : ... .. . ... ...
ROW 2C : ... .. . ... ... ... : B-3 00 3 P80 ... ... : ... .. . ... : ... .. 1 ... : ... .. . ... ... : ... .. . ... ... : ... .. . ... ... : ... .. . ... ...
ROW 2D : ... .. . ... ... ... : ... .. 4 ... ... ... : --- .. . ... : ... .. . ... : ... .. . ... ... : ... .. . ... ... : ... .. . ... ... : ... .. . ... ...
ROW 2E : ... .. . ... ... ... : A-3 00 8 ... ... ... : E-2 00 . ... : ... .. A ... : ... .. . ... ... : ... .. . ... ... : ... .. . ... ... : ... .. . ... ...
ROW 2F : ... .. . ... ... ... : ... .. 3 ... ... ... : ... .. . ... : ... .. 8 ... : ... .. . ... ... : ... .. . ... ... : ... .. . ... ... : ... .. 3 ... ...
ROW 30 : ... .. . ... ... ... : ... .. 0 ... ... ... : ... .. . ... : ... .. 4 ... : ... .. . ... ... : ... .. 2 ... ... : ... .. 2 ... ... : ... .. . ... ...
ROW 31 : ... .. . ... ... ... : A-3 00 3 P80 ... ... : ... .. . ... : ... .. 2 ... : ... .. . ... ... : ... .. . ... ... : ... .. . ... ... : ... .. 1 ... ...
ROW 32 : ... .. . ... ... ... : ... .. 4 ... ... ... : --- .. . ... : ... .. 1 ... : ... .. . ... ... : ... .. . ... ... : ... .. . ... ... : ... .. . ... ...
ROW 33 : ... .. . ... ... ... : E-3 00 8 ... ... ... : E-2 00 . ... : ... .. 8 ... : ... .. . ... ... : ... .. . ... ... : ... .. . ... ... : ... .. . ... ...
ROW 34 : ... .. 2 ... ... ... : ... .. 3 ... ... ... : ... .. . ... : ... .. 6 ... : ... .. . ... ... : ... .. . ... ... : ... .. . ... ... : ... .. . ... ...
ROW 35 : ... .. . ... ... ... : ... .. 0 ... ... ... : ... .. . ... : ... .. 3 ... : ... .. . ... ... : ... .. . ... ... : ... .. . ... ... : ... .. . ... ...
ROW 36 : ... .. . ... ... ... : E-3 00 3 P80 ... ... : ... .. . ... : ... .. 1 ... : ... .. . ... ... : ... .. . ... ... : ... .. . ... ... : ... .. . ... ...
ROW 37 : ... .. 1 ... ... ... : ... .. 4 ... ... ... : --- .. . ... : ... .. . ... : ... .. . ... ... : ... .. . ... ... : ... .. . ... ... : ... .. . ... ...
ROW 38 : ... .. . ... ... ... : E-4 00 8 ... ... ... : E-2 00 . ... : 1-# 00 F ... : ... .. . ... ... : G#4 01 8 ... ... : ... .. 8 ... ... : ... .. C ... ...
ROW 39 : ... .. . ... ... ... : ... .. 3 ... ... ... : ... .. . ... : ... .. C ... : ... .. . ... ... : ... .. 7 ... ... : ... .. 7 ... ... : ... .. A ... ...
ROW 3A : ... .. 0 ... ... ... : ... .. 0 ... ... ... : ... .. . ... : ... .. 6 ... : ... .. . ... ... : ... .. 6 ... ... : ... .. 6 ... ... : ... .. 6 ... ...
ROW 3B : ... .. . ... ... ... : E-4 00 3 P80 ... ... : ... .. . ... : ... .. 3 ... : ... .. . ... ... : ... .. 5 ... ... : ... .. 5 ... ... : ... .. . ... ...
ROW 3C : ... .. . ... ... ... : ... .. 4 ... ... ... : ... .. . ... : ... .. 2 ... : ... .. . ... ... : ... .. . ... ... : ... .. . ... ... : ... .. . ... ...
ROW 3D : ... .. . ... ... ... : B-3 00 8 ... ... ... : ... .. . ... : D-# 00 8 ... : ... .. . ... ... : ... .. 4 ... ... : ... .. 4 ... ... : ... .. . ... ...
ROW 3E : ... .. . ... ... ... : ... .. 3 ... ... ... : ... .. . ... : ... .. 6 ... : ... .. . ... ... : ... .. . ... ... : ... .. . ... ... : ... .. . ... ...
ROW 3F : ... .. . ... ... ... : ... .. 0 ... ... ... : ... .. . ... : ... .. 3 ... : ... .. . ... ... : ... .. . ... ... : ... .. . ... ... : ... .. . ... ...
ROW 40 : ... .. . ... ... ... : B-3 00 3 P80 ... ... : --- .. . ... : ... .. 1 ... : ... .. . ... ... : ... .. . ... ... : ... .. . ... ... : ... .. . ... ...
ROW 41 : ... .. . ... ... ... : ... .. 4 ... ... ... : ... .. . ... : ... .. . ... : ... .. . ... ... : ... .. . ... ... : ... .. . ... ... : ... .. . ... ...
ROW 42 : ... .. . ... ... ... : G#3 00 8 ... ... ... : E-2 00 . ... : ... .. A ... : ... .. . ... ... : ... .. . ... ... : ... .. . ... ... : ... .. . ... ...
ROW 43 : ... .. . ... ... ... : ... .. 3 ... ... ... : ... .. . ... : ... .. 8 ... : ... .. . ... ... : ... .. . ... ... : ... .. . ... ... : ... .. . ... ...
ROW 44 : ... .. . ... ... ... : ... .. 0 ... ... ... : ... .. . ... : ... .. 4 ... : ... .. . ... ... : ... .. . ... ... : ... .. . ... ... : ... .. . ... ...
ROW 45 : ... .. . ... ... ... : G#3 00 3 P80 ... ... : ... .. . ... : ... .. 2 ... : ... .. . ... ... : ... .. . ... ... : ... .. . ... ... : ... .. . ... ...
ROW 46 : ... .. . ... ... ... : ... .. 4 ... ... ... : ... .. . ... : ... .. 1 ... : ... .. . ... ... : ... .. . ... ... : ... .. . ... ... : ... .. . ... ...
ROW 47 : ... .. . ... ... ... : E-3 00 8 ... ... ... : ... .. . ... : ... .. 8 ... : ... .. . ... ... : ... .. . ... ... : ... .. . ... ... : ... .. . ... ...
ROW 48 : ... .. . ... ... ... : ... .. 3 ... ... ... : ... .. . ... : ... .. 6 ... : ... .. . ... ... : ... .. . ... ... : ... .. . ... ... : ... .. . ... ...
ROW 49 : ... .. . ... ... ... : ... .. 0 ... ... ... : ... .. . ... : ... .. 3 ... : ... .. . ... ... : ... .. . ... ... : ... .. . ... ... : ... .. . ... ...
ROW 4A : ... .. . ... ... ... : E-3 00 3 P80 ... ... : --- .. . ... : ... .. 1 ... : ... .. . ... ... : ... .. . ... ... : ... .. . ... ... : ... .. . ... ...
ROW 4B : ... .. . ... ... ... : ... .. 4 ... ... ... : ... .. . ... : ... .. . ... : ... .. . ... ... : ... .. . ... ... : ... .. . ... ... : ... .. . ... ...
ROW 4C : ... .. . ... ... ... : E-4 00 8 ... ... ... : E-3 00 . ... : 1-# 00 D ... : ... .. . ... ... : ... .. . ... ... : ... .. . ... ... : ... .. . ... ...
ROW 4D : ... .. . ... ... ... : ... .. 3 ... ... ... : ... .. . ... : ... .. . ... : ... .. . ... ... : ... .. . ... ... : ... .. . ... ... : ... .. . ... ...
ROW 4E : ... .. . ... ... ... : ... .. 0 ... ... ... : ... .. . ... : D-# 00 D ... : ... .. . ... ... : ... .. . ... ... : ... .. . ... ... : ... .. . ... ...
ROW 4F : ... .. . ... ... ... : E-4 00 3 P80 ... ... : ... .. . ... : B-# 00 6 ... : ... .. . ... ... : ... .. . ... ... : ... .. . ... ... : ... .. . ... ...
ROW 50 : ... .. . ... ... ... : ... .. 4 ... ... ... : --- .. . ... : 7-# 00 1 ... : ... .. . ... ... : ... .. . ... ... : ... .. . ... ... : ... .. . ... ...
ROW 51 : ... .. . ... ... ... : B-3 00 8 ... ... ... : E-3 00 . ... : D-# 00 8 ... : ... .. . ... ... : ... .. . ... ... : ... .. . ... ... : ... .. . ... ...
ROW 52 : ... .. . ... ... ... : ... .. 3 ... ... ... : ... .. . ... : ... .. 6 ... : ... .. . ... ... : ... .. . ... ... : ... .. . ... ... : ... .. . ... ...
ROW 53 : ... .. . ... ... ... : ... .. 0 ... ... ... : ... .. . ... : ... .. 3 ... : ... .. . ... ... : ... .. . ... ... : ... .. . ... ... : ... .. . ... ...
ROW 54 : ... .. . ... ... ... : B-3 00 3 P80 ... ... : ... .. . ... : ... .. 1 ... : ... .. . ... ... : ... .. . ... ... : ... .. . ... ... : ... .. . ... ...
ROW 55 : ... .. . ... ... ... : ... .. 4 ... ... ... : --- .. . ... : ... .. . ... : ... .. . ... ... : ... .. . ... ... : ... .. . ... ... : ... .. . ... ...
ROW 56 : ... .. . ... ... ... : G#3 00 8 ... ... ... : E-2 00 . ... : ... .. A ... : ... .. . ... ... : ... .. . ... ... : ... .. . ... ... : ... .. . ... ...
ROW 57 : ... .. . ... ... ... : ... .. 3 ... ... ... : ... .. . ... : ... .. 8 ... : ... .. . ... ... : ... .. . ... ... : ... .. . ... ... : ... .. . ... ...
ROW 58 : ... .. . ... ... ... : ... .. 0 ... ... ... : ... .. . ... : ... .. 4 ... : ... .. . ... ... : ... .. . ... ... : ... .. . ... ... : ... .. . ... ...
ROW 59 : ... .. . ... ... ... : G#3 00 3 P80 ... ... : ... .. . ... : ... .. 2 ... : ... .. . ... ... : ... .. . ... ... : ... .. . ... ... : ... .. . ... ...
ROW 5A : ... .. . ... ... ... : ... .. 4 ... ... ... : --- .. . ... : ... .. 1 ... : ... .. . ... ... : ... .. . ... ... : ... .. . ... ... : ... .. . ... ...
ROW 5B : ... .. . ... ... ... : E-3 00 8 ... ... ... : E-2 00 . ... : ... .. 8 ... : ... .. . ... ... : ... .. . ... ... : ... .. . ... ... : ... .. . ... ...
ROW 5C : ... .. . ... ... ... : ... .. 3 ... ... ... : ... .. . ... : ... .. 6 ... : ... .. . ... ... : ... .. . ... ... : ... .. . ... ... : ... .. . ... ...
ROW 5D : ... .. . ... ... ... : ... .. 0 ... ... ... : ... .. . ... : ... .. 3 ... : ... .. . ... ... : ... .. . ... ... : ... .. . ... ... : ... .. . ... ...
ROW 5E : ... .. . ... ... ... : E-3 00 3 P80 ... ... : ... .. . ... : ... .. 1 ... : ... .. . ... ... : ... .. . ... ... : ... .. . ... ... : ... .. . ... ...
ROW 5F : ... .. . ... ... ... : ... .. 4 ... ... ... : --- .. . ... : ... .. . ... : ... .. . ... ... : ... .. . ... ... : ... .. . ... ... : ... .. . ... ...
ROW 60 : ... .. . ... ... ... : E-4 00 8 ... ... ... : E-2 00 . ... : 1-# 00 F ... : ... .. . ... ... : ... .. . ... ... : ... .. 8 ... ... : ... .. . ... ...
ROW 61 : ... .. . ... ... ... : ... .. 3 ... ... ... : ... .. . ... : ... .. C ... : ... .. . ... ... : ... .. . ... ... : ... .. 7 ... ... : ... .. 3 ... ...
ROW 62 : ... .. . ... ... ... : ... .. 0 ... ... ... : ... .. . ... : ... .. 6 ... : ... .. . ... ... : ... .. 2 ... ... : ... .. 6 ... ... : ... .. . ... ...
ROW 63 : ... .. . ... ... ... : E-4 00 3 P80 ... ... : ... .. . ... : B-# 00 8 ... : ... .. . ... ... : ... .. . ... ... : ... .. 5 ... ... : ... .. 1 ... ...
ROW 64 : ... .. . ... ... ... : ... .. 4 ... ... ... : ... .. . ... : ... .. . ... : ... .. . ... ... : ... .. . ... ... : ... .. . ... ... : ... .. . ... ...
ROW 65 : ... .. . ... ... ... : B-3 00 8 ... ... ... : ... .. . ... : ... .. 6 ... : ... .. . ... ... : ... .. . ... ... : D-4 01 8 ... ... : ... .. . ... ...
ROW 66 : ... .. . ... ... ... : ... .. 3 ... ... ... : ... .. . ... : ... .. . ... : ... .. . ... ... : ... .. . ... ... : ... .. 7 ... ... : ... .. . ... ...
ROW 67 : ... .. . ... ... ... : ... .. 0 ... ... ... : ... .. . ... : ... .. . ... : ... .. . ... ... : ... .. . ... ... : ... .. 6 ... ... : ... .. . ... ...
ROW 68 : ... .. . ... ... ... : B-3 00 3 P80 ... ... : --- .. . ... : ... .. 4 ... : ... .. . ... ... : ... .. . ... ... : ... .. 5 ... ... : ... .. . ... ...
ROW 69 : ... .. . ... ... ... : ... .. 4 ... ... ... : ... .. . ... : ... .. . ... : ... .. . ... ... : ... .. . ... ... : ... .. . ... ... : ... .. . ... ...
ROW 6A : ... .. . ... ... ... : G#3 00 8 ... ... ... : E-2 00 . ... : ... .. 2 ... : ... .. . ... ... : ... .. . ... ... : C-4 01 8 ... ... : ... .. 0 ... ...
ROW 6B : ... .. . ... ... ... : ... .. 3 ... ... ... : ... .. . ... : ... .. . ... : ... .. . ... ... : ... .. . ... ... : ... .. 7 ... ... : ... .. . ... ...
ROW 6C : ... .. . ... ... ... : ... .. 0 ... ... ... : ... .. . ... : ... .. . ... : ... .. . ... ... : ... .. . ... ... : ... .. 6 ... ... : ... .. . ... ...
ROW 6D : ... .. . ... ... ... : G#3 00 3 P80 ... ... : ... .. . ... : ... .. 0 ... : ... .. . ... ... : ... .. . ... ... : ... .. 5 ... ... : ... .. . ... ...
ROW 6E : ... .. . ... ... ... : ... .. 4 ... ... ... : ... .. . ... : ... .. . ... : ... .. . ... ... : ... .. . ... ... : ... .. . ... ... : ... .. . ... ...
ROW 6F : ... .. . ... ... ... : E-3 00 8 ... ... ... : ... .. . ... : ... .. . ... : ... .. . ... ... : ... .. 1 ... ... : B-3 01 8 ... ... : ... .. . ... ...
ROW 70 : ... .. . ... ... ... : ... .. 3 ... ... ... : ... .. . ... : ... .. . ... : ... .. . ... ... : ... .. . ... ... : ... .. 7 ... ... : ... .. . ... ...
ROW 71 : ... .. . ... ... ... : ... .. 0 ... ... ... : ... .. . ... : ... .. . ... : ... .. . ... ... : ... .. . ... ... : ... .. 6 ... ... : ... .. . ... ...
ROW 72 : ... .. . ... ... ... : E-3 00 3 P80 ... ... : --- .. . ... : ... .. . ... : ... .. . ... ... : ... .. . ... ... : ... .. 5 ... ... : ... .. . ... ...
ROW 73 : ... .. . ... ... ... : ... .. 4 ... ... ... : ... .. . ... : ... .. . ... : ... .. . ... ... : ... .. . ... ... : ... .. . ... ... : ... .. . ... ...
ROW 74 : C-3 00 F P80 ... ... : G#3 00 8 ... ... ... : E-3 00 . ... : 1-# 00 F ... : ... .. . ... ... : ... .. . ... ... : A-3 01 8 ... ... : ... .. . ... ...
ROW 75 : ... .. E ... ... ... : ... .. 3 ... ... ... : ... .. . ... : ... .. C ... : ... .. . ... ... : ... .. . ... ... : ... .. 7 ... ... : ... .. . ... ...
ROW 76 : ... .. D ... ... ... : ... .. 0 ... ... ... : ... .. . ... : ... .. 6 ... : ... .. . ... ... : ... .. . ... ... : ... .. 6 ... ... : ... .. . ... ...
ROW 77 : ... .. A ... ... ... : G#3 00 3 P80 ... ... : ... .. . ... : B-# 00 8 ... : ... .. . ... ... : ... .. . ... ... : ... .. 5 ... ... : ... .. . ... ...
ROW 78 : ... .. . ... ... ... : ... .. 4 ... ... ... : --- .. . ... : ... .. . ... : ... .. . ... ... : ... .. . ... ... : ... .. . ... ... : ... .. . ... ...
ROW 79 : D-3 00 F ... ... ... : B-3 00 8 ... ... ... : E-3 00 . ... : ... .. 6 ... : ... .. . ... ... : ... .. . ... ... : G#3 01 8 ... ... : ... .. . ... ...
ROW 7A : ... .. E ... ... ... : ... .. 3 ... ... ... : ... .. . ... : ... .. . ... : ... .. . ... ... : ... .. . ... ... : ... .. 7 ... ... : ... .. . ... ...
ROW 7B : ... .. D ... ... ... : ... .. 0 ... ... ... : ... .. . ... : ... .. . ... : ... .. . ... ... : ... .. . ... ... : ... .. 6 ... ... : ... .. . ... ...
ROW 7C : ... .. A ... ... ... : B-3 00 3 P80 ... ... : ... .. . ... : ... .. 4 ... : ... .. . ... ... : ... .. . ... ... : ... .. 5 ... ... : ... .. . ... ...
ROW 7D : ... .. . ... ... ... : ... .. 4 ... ... ... : --- .. . ... : ... .. . ... : ... .. . ... ... : --- .. . ... ... : ... .. . ... ... : ... .. . ... ...
ROW 7E : E-3 00 F ... ... ... : E-4 00 8 ... ... ... : E-2 00 . ... : 2-# 00 D ... : ... .. . ... ... : ... .. . ... ... : F#3 01 8 ... ... : ... .. . ... ...
ROW 7F : ... .. E ... ... ... : ... .. 3 ... ... ... : ... .. . ... : ... .. . ... : ... .. . ... ... : ... .. . ... ... : ... .. 7 ... ... : ... .. . ... ...
ROW 80 : ... .. D ... ... ... : ... .. 0 ... ... ... : ... .. . ... : E-# 00 D ... : ... .. . ... ... : ... .. . ... ... : ... .. 6 ... ... : ... .. . ... ...
ROW 81 : ... .. A ... ... ... : E-4 00 3 P80 ... ... : ... .. . ... : C-# 00 6 ... : ... .. . ... ... : ... .. . ... ... : ... .. 5 ... ... : ... .. . ... ...
ROW 82 : ... .. . ... ... ... : ... .. 4 ... ... ... : --- .. . ... : 8-# 00 1 ... : ... .. . ... ... : ... .. . ... ... : ... .. . ... ... : ... .. . ... ...
ROW 83 : F#3 00 F ... ... ... : G#4 00 8 ... ... ... : E-2 00 . ... : 2-# 00 D ... : ... .. . ... ... : ... .. . ... ... : E-3 01 8 ... ... : ... .. . ... ...
ROW 84 : ... .. E ... ... ... : ... .. 3 ... ... ... : ... .. . ... : ... .. . ... : ... .. . ... ... : ... .. . ... ... : ... .. 7 ... ... : ... .. . ... ...
ROW 85 : ... .. D ... ... ... : ... .. 0 ... ... ... : ... .. . ... : E-# 00 D ... : ... .. . ... ... : ... .. . ... ... : ... .. 6 ... ... : ... .. . ... ...
ROW 86 : ... .. A ... ... ... : G#4 00 3 P80 ... ... : ... .. . ... : C-# 00 6 ... : ... .. . ... ... : ... .. . ... ... : ... .. 5 ... ... : ... .. . ... ...
ROW 87 : ... .. . ... ... ... : ... .. 4 ... ... ... : --- .. . ... : 8-# 00 1 ... : ... .. . ... ... : ... .. . ... ... : ... .. . ... ... : ... .. . ... ...
ROW 88 : G-2 00 F ... ... ... : G-3 00 F P81 ... ... : D#3 00 . ... : 1-# 00 F ... : ... .. . Z00 ... : A#3 01 6 P81 ... : D-4 01 6 P7F ... : D-4 01 8 ... ...
ROW 89 : ... .. E ... ... ... : ... .. E ... ... ... : ... .. . ... : ... .. C ... : ... .. . ... ... : ... .. 5 ... V01 : ... .. 5 ... V01 : ... .. 7 ... ...
ROW 8A : ... .. D ... ... ... : ... .. D ... ... ... : ... .. . ... : ... .. 6 ... : ... .. . ... ... : ... .. . ... ... : ... .. . ... ... : ... .. 6 ... ...
ROW 8B : ... .. A ... ... ... : ... .. A ... ... ... : ... .. . ... : ... .. 3 ... : ... .. . ... ... : ... .. . ... ... : ... .. . ... ... : ... .. 4 ... ...
ROW 8C : ... .. . ... ... ... : ... .. . ... ... ... : ... .. . ... : ... .. 2 ... : ... .. . ... ... : ... .. . ... ... : ... .. . ... ... : ... .. 3 ... ...
ROW 8D : ... .. . ... ... ... : ... .. . ... ... ... : D-3 00 . P75 : C-# 00 8 ... : ... .. . ... ... : ... .. . ... ... : ... .. . ... ... : ... .. 8 ... ...
ROW 8E : ... .. . ... ... ... : ... .. . ... ... ... : C-3 00 . P84 : ... .. 6 ... : ... .. . ... ... : ... .. . ... ... : ... .. . ... ... : ... .. 7 ... ...
ROW 8F : ... .. . ... ... ... : ... .. . ... ... ... : B-2 00 . P7D : ... .. 3 ... : ... .. . ... ... : ... .. 4 ... ... : ... .. 4 ... ... : ... .. 6 ... ...
ROW 90 : ... .. . ... ... ... : ... .. . ... ... ... : A#2 00 . P78 : ... .. 1 ... : ... .. . ... ... : ... .. . ... ... : ... .. . ... ... : ... .. 4 ... ...
ROW 91 : ... .. . ... ... ... : ... .. . ... ... ... : A-2 00 . P74 : ... .. . ... : ... .. . ... ... : ... .. . ... ... : ... .. . ... ... : ... .. 3 ... ...
ROW 92 : ... .. . ... ... ... : ... .. . ... ... ... : D#2 00 . P80 : ... .. F ... : ... .. . ... ... : ... .. . ... ... : ... .. . ... ... : F-3 01 8 ... ...
ROW 93 : ... .. . ... ... ... : ... .. . ... ... ... : ... .. . ... : ... .. C ... : ... .. . ... ... : ... .. . ... ... : ... .. . ... ... : ... .. 7 ... ...
ROW 94 : ... .. . ... ... ... : ... .. . ... ... ... : ... .. . ... : ... .. 6 ... : ... .. . ... ... : ... .. . ... ... : ... .. . ... ... : ... .. 6 ... ...
ROW 95 : ... .. . ... ... ... : ... .. . ... ... ... : ... .. . ... : ... .. 3 ... : ... .. . ... ... : ... .. 3 ... ... : ... .. 3 ... ... : ... .. 4 ... ...
ROW 96 : ... .. . ... ... ... : ... .. . ... ... ... : --- .. . ... : ... .. 2 ... : ... .. . ... ... : ... .. . ... ... : ... .. . ... ... : ... .. 3 ... ...
ROW 97 : ... .. . ... ... ... : ... .. . ... ... ... : D#2 00 . ... : 1-# 00 F ... : ... .. . ... ... : ... .. . ... ... : ... .. . ... ... : ... .. 8 ... ...
ROW 98 : ... .. . ... ... ... : ... .. . ... ... ... : ... .. . ... : ... .. C ... : ... .. . ... ... : ... .. . ... ... : ... .. . ... ... : ... .. 7 ... ...
ROW 99 : ... .. . ... ... ... : ... .. . ... ... ... : ... .. . ... : ... .. 6 ... : ... .. . ... ... : ... .. 2 ... ... : ... .. 2 ... ... : ... .. 6 ... ...
ROW 9A : ... .. . ... ... ... : ... .. . ... ... ... : ... .. . ... : ... .. 3 ... : ... .. . ... ... : ... .. . ... ... : ... .. . ... ... : ... .. 4 ... ...
ROW 9B : ... .. . ... ... ... : ... .. . ... ... ... : --- .. . ... : ... .. 2 ... : ... .. . ... ... : ... .. . ... ... : ... .. . ... ... : ... .. 3 ... ...
ROW 9C : ... .. . ... ... ... : ... .. . ... ... ... : D#2 00 . ... : 3-# 00 D ... : ... .. . ... ... : ... .. . ... ... : ... .. . ... ... : G-3 01 8 ... ...
ROW 9D : ... .. . ... ... ... : ... .. . ... ... ... : ... .. . ... : ... .. . ... : ... .. . ... ... : ... .. . ... ... : ... .. . ... ... : ... .. 7 ... ...
ROW 9E : ... .. . ... ... ... : ... .. . ... ... ... : ... .. . ... : F-# 00 D ... : ... .. . ... ... : ... .. . ... ... : ... .. . ... ... : ... .. 6 ... ...
ROW 9F : ... .. . ... ... ... : ... .. . ... ... ... : ... .. . ... : D-# 00 6 ... : ... .. . ... ... : ... .. . ... ... : ... .. . ... ... : ... .. 4 ... ...
ROW A0 : ... .. . ... ... ... : ... .. . ... ... ... : ... .. . ... : 9-# 00 1 ... : ... .. . ... ... : ... .. . ... ... : ... .. . ... ... : ... .. 3 ... ...
ROW A1 : ... .. . ... ... ... : ... .. . ... ... ... : ... .. . ... : ... .. 0 ... : ... .. . ... ... : ... .. . ... ... : ... .. . ... ... : ... .. 8 ... ...
ROW A2 : ... .. 2 ... ... ... : ... .. 2 ... ... ... : ... .. . ... : ... .. . ... : ... .. . ... ... : ... .. . ... ... : ... .. . ... ... : ... .. 7 ... ...
ROW A3 : ... .. . ... ... ... : ... .. . ... ... ... : ... .. . ... : ... .. . ... : ... .. . ... ... : ... .. . ... ... : ... .. . ... ... : ... .. 6 ... ...
ROW A4 : ... .. . ... ... ... : ... .. . ... ... ... : ... .. . ... : ... .. . ... : ... .. . ... ... : ... .. . ... ... : ... .. . ... ... : ... .. 4 ... ...
ROW A5 : ... .. 1 ... ... ... : ... .. 1 ... ... ... : --- .. . ... : ... .. . ... : ... .. . ... ... : ... .. . ... ... : ... .. . ... ... : ... .. 3 ... ...
ROW A6 : D-3 00 F ... ... ... : D-4 00 F ... ... ... : D#3 00 . ... : 1-# 00 F ... : ... .. . ... ... : C-4 01 6 ... V03 : F-4 01 6 ... V03 : D-4 01 8 ... ...
ROW A7 : ... .. E ... ... ... : ... .. E ... ... ... : ... .. . ... : ... .. C ... : ... .. . ... ... : ... .. 5 ... V01 : ... .. 5 ... V01 : ... .. 7 ... ...
ROW A8 : ... .. D ... ... ... : ... .. D ... ... ... : ... .. . ... : ... .. 6 ... : ... .. . ... ... : ... .. . ... ... : ... .. . ... ... : ... .. 6 ... ...
ROW A9 : ... .. A ... ... ... : ... .. A ... ... ... : ... .. . ... : ... .. 3 ... : ... .. . ... ... : ... .. . ... ... : ... .. . ... ... : ... .. 4 ... ...
ROW AA : ... .. . ... ... ... : ... .. . ... ... ... : ... .. . ... : ... .. 2 ... : ... .. . ... ... : ... .. . ... ... : ... .. . ... ... : ... .. 3 ... ...
ROW AB : ... .. . ... ... ... : ... .. . ... ... ... : D-3 00 . P75 : C-# 00 7 ... : ... .. . ... ... : ... .. . ... ... : ... .. . ... ... : ... .. 8 ... ...
ROW AC : ... .. . ... ... ... : ... .. . ... ... ... : C-3 00 . P84 : ... .. 5 ... : ... .. . ... ... : ... .. . ... ... : ... .. . ... ... : ... .. 7 ... ...
ROW AD : ... .. . ... ... ... : ... .. . ... ... ... : B-2 00 . P7D : ... .. 2 ... : ... .. . ... ... : ... .. 4 ... ... : ... .. 4 ... ... : ... .. 6 ... ...
ROW AE : ... .. . ... ... ... : ... .. . ... ... ... : A#2 00 . P78 : ... .. 1 ... : ... .. . ... ... : ... .. . ... ... : ... .. . ... ... : ... .. 4 ... ...
ROW AF : ... .. . ... ... ... : ... .. . ... ... ... : A-2 00 . P74 : ... .. . ... : ... .. . ... ... : ... .. . ... ... : ... .. . ... ... : ... .. 3 ... ...
ROW B0 : ... .. . ... ... ... : ... .. . ... ... ... : D#2 00 . P80 : ... .. F ... : ... .. . ... ... : ... .. . ... ... : ... .. . ... ... : G-3 01 8 ... ...
ROW B1 : ... .. . ... ... ... : ... .. . ... ... ... : ... .. . ... : ... .. C ... : ... .. . ... ... : ... .. . ... ... : ... .. . ... ... : ... .. 7 ... ...
ROW B2 : ... .. . ... ... ... : ... .. . ... ... ... : ... .. . ... : ... .. 6 ... : ... .. . ... ... : ... .. . ... ... : ... .. . ... ... : ... .. 6 ... ...
ROW B3 : ... .. . ... ... ... : ... .. . ... ... ... : ... .. . ... : ... .. 3 ... : ... .. . ... ... : ... .. 3 ... ... : ... .. 3 ... ... : ... .. 4 ... ...
ROW B4 : ... .. . ... ... ... : ... .. . ... ... ... : --- .. . ... : ... .. 2 ... : ... .. . ... ... : ... .. . ... ... : ... .. . ... ... : ... .. 3 ... ...
ROW B5 : ... .. . ... ... ... : ... .. . ... ... ... : D#2 00 . ... : 1-# 00 F ... : ... .. . ... ... : ... .. . ... ... : ... .. . ... ... : ... .. 8 ... ...
ROW B6 : ... .. . ... ... ... : ... .. . ... ... ... : ... .. . ... : ... .. C ... : ... .. . ... ... : ... .. . ... ... : ... .. . ... ... : ... .. 7 ... ...
ROW B7 : ... .. . ... ... ... : ... .. . ... ... ... : ... .. . ... : ... .. 6 ... : ... .. . ... ... : ... .. 2 ... ... : ... .. 2 ... ... : ... .. 6 ... ...
ROW B8 : ... .. . ... ... ... : ... .. . ... ... ... : ... .. . ... : ... .. 3 ... : ... .. . ... ... : ... .. . ... ... : ... .. . ... ... : ... .. 4 ... ...
ROW B9 : ... .. . ... ... ... : ... .. . ... ... ... : --- .. . ... : ... .. 2 ... : ... .. . ... ... : ... .. . ... ... : ... .. . ... ... : ... .. 3 ... ...
ROW BA : ... .. . ... ... ... : ... .. . ... ... ... : D#2 00 . ... : 3-# 00 D ... : ... .. . ... ... : ... .. . ... ... : ... .. . ... ... : A-3 01 8 ... ...
ROW BB : ... .. . ... ... ... : ... .. . ... ... ... : ... .. . ... : ... .. . ... : ... .. . ... ... : ... .. . ... ... : ... .. . ... ... : ... .. 7 ... ...
ROW BC : ... .. . ... ... ... : ... .. . ... ... ... : ... .. . ... : F-# 00 D ... : ... .. . ... ... : ... .. . ... ... : ... .. . ... ... : ... .. 6 ... ...
ROW BD : ... .. . ... ... ... : ... .. . ... ... ... : ... .. . ... : D-# 00 6 ... : ... .. . ... ... : ... .. . ... ... : ... .. . ... ... : ... .. 4 ... ...
ROW BE : ... .. . ... ... ... : ... .. . ... ... ... : ... .. . ... : 9-# 00 1 ... : ... .. . ... ... : ... .. . ... ... : ... .. . ... ... : ... .. 3 ... ...
ROW BF : ... .. . ... ... ... : ... .. . ... ... ... : ... .. . ... : ... .. 0 ... : ... .. . ... ... : ... .. . ... ... : ... .. . ... ... : ... .. 8 ... ...
ROW C0 : ... .. 2 ... ... ... : ... .. 2 ... ... ... : ... .. . ... : ... .. . ... : ... .. . ... ... : ... .. . ... ... : ... .. . ... ... : ... .. 7 ... ...
ROW C1 : ... .. . ... ... ... : ... .. . ... ... ... : ... .. . ... : ... .. . ... : ... .. . ... ... : ... .. . ... ... : ... .. . ... ... : ... .. 6 ... ...
ROW C2 : ... .. . ... ... ... : ... .. . ... ... ... : ... .. . ... : ... .. . ... : ... .. . ... ... : ... .. . ... ... : ... .. . ... ... : ... .. 4 ... ...
ROW C3 : ... .. 1 ... ... ... : ... .. 1 ... ... ... : --- .. . ... : ... .. . ... : ... .. . ... ... : ... .. . ... ... : ... .. . ... ... : ... .. 3 ... ...
ROW C4 : A#2 00 F ... ... ... : A#3 00 F ... ... ... : D#3 00 . ... : 1-# 00 F ... : ... .. . ... ... : D-4 01 6 ... V03 : G-4 01 6 ... V03 : D-4 01 8 ... ...
ROW C5 : ... .. E ... ... ... : ... .. E ... ... ... : ... .. . ... : ... .. C ... : ... .. . ... ... : ... .. 5 ... V01 : ... .. 5 ... V01 : ... .. 7 ... ...
ROW C6 : ... .. D ... ... ... : ... .. D ... ... ... : ... .. . ... : ... .. 6 ... : ... .. . ... ... : ... .. . ... ... : ... .. . ... ... : ... .. 6 ... ...
ROW C7 : ... .. A ... ... ... : ... .. A ... ... ... : ... .. . ... : ... .. 3 ... : ... .. . ... ... : ... .. . ... ... : ... .. . ... ... : ... .. 4 ... ...
ROW C8 : ... .. . ... ... ... : ... .. . ... ... ... : ... .. . ... : ... .. 2 ... : ... .. . ... ... : ... .. . ... ... : ... .. . ... ... : ... .. 3 ... ...
ROW C9 : ... .. . ... ... ... : ... .. . ... ... ... : D-3 00 . P75 : C-# 00 8 ... : ... .. . ... ... : ... .. . ... ... : ... .. . ... ... : ... .. 8 ... ...
ROW CA : ... .. . ... ... ... : ... .. . ... ... ... : C-3 00 . P84 : ... .. 6 ... : ... .. . ... ... : ... .. . ... ... : ... .. . ... ... : ... .. 7 ... ...
ROW CB : ... .. . ... ... ... : ... .. . ... ... ... : B-2 00 . P7D : ... .. 3 ... : ... .. . ... ... : ... .. 4 ... ... : ... .. 4 ... ... : ... .. 6 ... ...
ROW CC : ... .. . ... ... ... : ... .. . ... ... ... : A#2 00 . P78 : ... .. 1 ... : ... .. . ... ... : ... .. . ... ... : ... .. . ... ... : ... .. 4 ... ...
ROW CD : ... .. . ... ... ... : ... .. . ... ... ... : A-2 00 . P74 : ... .. . ... : ... .. . ... ... : ... .. . ... ... : ... .. . ... ... : ... .. 3 ... ...
ROW CE : ... .. . ... ... ... : ... .. . ... ... ... : D#2 00 . P80 : ... .. F ... : ... .. . ... ... : ... .. . ... ... : ... .. . ... ... : F-3 01 8 ... ...
ROW CF : ... .. . ... ... ... : ... .. . ... ... ... : ... .. . ... : ... .. C ... : ... .. . ... ... : ... .. . ... ... : ... .. . ... ... : ... .. 7 ... ...
ROW D0 : ... .. . ... ... ... : ... .. . ... ... ... : ... .. . ... : ... .. 6 ... : ... .. . ... ... : ... .. . ... ... : ... .. . ... ... : ... .. 6 ... ...
ROW D1 : ... .. . ... ... ... : ... .. . ... ... ... : ... .. . ... : ... .. 3 ... : ... .. . ... ... : ... .. 3 ... ... : ... .. 3 ... ... : ... .. 4 ... ...
ROW D2 : ... .. . ... ... ... : ... .. . ... ... ... : --- .. . ... : ... .. 2 ... : ... .. . ... ... : ... .. . ... ... : ... .. . ... ... : ... .. 3 ... ...
ROW D3 : ... .. . ... ... ... : ... .. . ... ... ... : D#2 00 . ... : 1-# 00 F ... : ... .. . ... ... : ... .. . ... ... : ... .. . ... ... : ... .. 8 ... ...
ROW D4 : ... .. . ... ... ... : ... .. . ... ... ... : ... .. . ... : ... .. C ... : ... .. . ... ... : ... .. . ... ... : ... .. . ... ... : ... .. 7 ... ...
ROW D5 : ... .. . ... ... ... : ... .. . ... ... ... : ... .. . ... : ... .. 6 ... : ... .. . ... ... : ... .. 2 ... ... : ... .. 2 ... ... : ... .. 6 ... ...
ROW D6 : ... .. . ... ... ... : ... .. . ... ... ... : ... .. . ... : ... .. 3 ... : ... .. . ... ... : ... .. . ... ... : ... .. . ... ... : ... .. 4 ... ...
ROW D7 : ... .. . ... ... ... : ... .. . ... ... ... : --- .. . ... : ... .. 2 ... : ... .. . ... ... : ... .. . ... ... : ... .. . ... ... : ... .. 3 ... ...
ROW D8 : ... .. . ... ... ... : ... .. . ... ... ... : D#2 00 . ... : 3-# 00 D ... : ... .. . ... ... : ... .. . ... ... : ... .. . ... ... : G-3 01 8 ... ...
ROW D9 : ... .. . ... ... ... : ... .. . ... ... ... : ... .. . ... : ... .. . ... : ... .. . ... ... : ... .. . ... ... : ... .. . ... ... : ... .. 7 ... ...
ROW DA : ... .. . ... ... ... : ... .. . ... ... ... : ... .. . ... : F-# 00 D ... : ... .. . ... ... : ... .. . ... ... : ... .. . ... ... : ... .. 6 ... ...
ROW DB : ... .. . ... ... ... : ... .. . ... ... ... : ... .. . ... : D-# 00 6 ... : ... .. . ... ... : ... .. . ... ... : ... .. . ... ... : ... .. 4 ... ...
ROW DC : ... .. . ... ... ... : ... .. . ... ... ... : ... .. . ... : 9-# 00 1 ... : ... .. . ... ... : ... .. . ... ... : ... .. . ... ... : ... .. 3 ... ...
ROW DD : ... .. . ... ... ... : ... .. . ... ... ... : ... .. . ... : ... .. 0 ... : ... .. . ... ... : ... .. . ... ... : ... .. . ... ... : ... .. 8 ... ...
ROW DE : ... .. 2 ... ... ... : ... .. 2 ... ... ... : ... .. . ... : ... .. . ... : ... .. . ... ... : ... .. . ... ... : ... .. . ... ... : ... .. 7 ... ...
ROW DF : ... .. . ... ... ... : ... .. . ... ... ... : ... .. . ... : ... .. . ... : ... .. . ... ... : ... .. . ... ... : ... .. . ... ... : ... .. 6 ... ...
ROW E0 : ... .. . ... ... ... : ... .. . ... ... ... : ... .. . ... : ... .. . ... : ... .. . ... ... : ... .. . ... ... : ... .. . ... ... : ... .. 4 ... ...
ROW E1 : ... .. 1 ... ... ... : ... .. 1 ... ... ... : --- .. . ... : ... .. . ... : ... .. . ... ... : ... .. . ... ... : ... .. . ... ... : ... .. 3 ... ...
ROW E2 : D-3 00 F ... ... ... : D-4 00 F ... ... ... : D#3 00 . ... : 1-# 00 F ... : ... .. . ... ... : F-4 01 6 ... V03 : C-5 01 6 ... V03 : C-4 01 8 ... ...
ROW E3 : ... .. E ... ... ... : ... .. E ... ... ... : ... .. . ... : ... .. C ... : ... .. . ... ... : ... .. 5 ... V01 : ... .. 5 ... V01 : ... .. 7 ... ...
ROW E4 : ... .. D ... ... ... : ... .. D ... ... ... : ... .. . ... : ... .. 6 ... : ... .. . ... ... : ... .. . ... ... : ... .. . ... ... : ... .. 6 ... ...
ROW E5 : ... .. A ... ... ... : ... .. A ... ... ... : ... .. . ... : ... .. 3 ... : ... .. . ... ... : ... .. . ... ... : ... .. . ... ... : ... .. 4 ... ...
ROW E6 : ... .. . ... ... ... : ... .. . ... ... ... : ... .. . ... : ... .. 2 ... : ... .. . ... ... : ... .. . ... ... : ... .. . ... ... : ... .. 3 ... ...
ROW E7 : ... .. . ... ... ... : ... .. . ... ... ... : D-3 00 . P75 : C-# 00 7 ... : ... .. . ... ... : ... .. . ... ... : ... .. . ... ... : ... .. 8 ... ...
ROW E8 : ... .. . ... ... ... : ... .. . ... ... ... : C-3 00 . P84 : ... .. 5 ... : ... .. . ... ... : ... .. . ... ... : ... .. . ... ... : ... .. 7 ... ...
ROW E9 : ... .. . ... ... ... : ... .. . ... ... ... : B-2 00 . P7D : ... .. 2 ... : ... .. . ... ... : ... .. 4 ... ... : ... .. 4 ... ... : ... .. 6 ... ...
ROW EA : ... .. . ... ... ... : ... .. . ... ... ... : A#2 00 . P78 : ... .. 1 ... : ... .. . ... ... : ... .. . ... ... : ... .. . ... ... : ... .. 4 ... ...
ROW EB : ... .. . ... ... ... : ... .. . ... ... ... : A-2 00 . P74 : ... .. . ... : ... .. . ... ... : ... .. . ... ... : ... .. . ... ... : ... .. 3 ... ...
ROW EC : ... .. . ... ... ... : ... .. . ... ... ... : D#2 00 . P80 : ... .. F ... : ... .. . ... ... : ... .. . ... ... : ... .. . ... ... : F-3 01 8 ... ...
ROW ED : ... .. . ... ... ... : ... .. . ... ... ... : ... .. . ... : ... .. C ... : ... .. . ... ... : ... .. . ... ... : ... .. . ... ... : ... .. 7 ... ...
ROW EE : ... .. . ... ... ... : ... .. . ... ... ... : ... .. . ... : ... .. 6 ... : ... .. . ... ... : ... .. . ... ... : ... .. . ... ... : ... .. 6 ... ...
ROW EF : ... .. . ... ... ... : ... .. . ... ... ... : ... .. . ... : ... .. 3 ... : ... .. . ... ... : ... .. 3 ... ... : ... .. 3 ... ... : ... .. 4 ... ...
ROW F0 : ... .. . ... ... ... : ... .. . ... ... ... : --- .. . ... : ... .. 2 ... : ... .. . ... ... : ... .. . ... ... : ... .. . ... ... : ... .. 3 ... ...
ROW F1 : ... .. . ... ... ... : ... .. . ... ... ... : D#2 00 . ... : 1-# 00 F ... : ... .. . ... ... : ... .. . ... ... : ... .. . ... ... : ... .. 8 ... ...
ROW F2 : ... .. . ... ... ... : ... .. . ... ... ... : ... .. . ... : ... .. C ... : ... .. . ... ... : ... .. . ... ... : ... .. . ... ... : ... .. 7 ... ...
ROW F3 : ... .. . ... ... ... : ... .. . ... ... ... : ... .. . ... : ... .. 6 ... : ... .. . ... ... : ... .. 2 ... ... : ... .. 2 ... ... : ... .. 6 ... ...
ROW F4 : ... .. . ... ... ... : ... .. . ... ... ... : ... .. . ... : ... .. 3 ... : ... .. . ... ... : ... .. . ... ... : ... .. . ... ... : ... .. 4 ... ...
ROW F5 : ... .. . ... ... ... : ... .. . ... ... ... : --- .. . ... : ... .. 2 ... : ... .. . ... ... : ... .. . ... ... : ... .. . ... ... : ... .. 3 ... ...
ROW F6 : ... .. . ... ... ... : ... .. . ... ... ... : D#2 00 . ... : 3-# 00 D ... : ... .. . ... ... : ... .. . ... ... : ... .. . ... ... : G-3 01 8 ... ...
ROW F7 : ... .. . ... ... ... : ... .. . ... ... ... : ... .. . ... : ... .. . ... : ... .. . ... ... : ... .. . ... ... : ... .. . ... ... : ... .. 7 ... ...
ROW F8 : ... .. . ... ... ... : ... .. . ... ... ... : ... .. . ... : F-# 00 D ... : ... .. . ... ... : ... .. . ... ... : ... .. . ... ... : ... .. 6 ... ...
ROW F9 : ... .. . ... ... ... : ... .. . ... ... ... : ... .. . ... : D-# 00 6 ... : ... .. . ... ... : ... .. . ... ... : ... .. . ... ... : ... .. 4 ... ...
ROW FA : ... .. 2 ... ... ... : ... .. 2 ... ... ... : ... .. . ... : 9-# 00 1 ... : ... .. . ... ... : ... .. . ... ... : ... .. . ... ... : ... .. 3 ... ...
ROW FB : ... .. . ... ... ... : ... .. . ... ... ... : ... .. . ... : ... .. 0 ... : ... .. . ... ... : ... .. . ... ... : ... .. . ... ... : ... .. 8 ... ...
ROW FC : ... .. . ... ... ... : ... .. . ... ... ... : ... .. . ... : ... .. . ... : ... .. . ... ... : ... .. . ... ... : ... .. . ... ... : ... .. 7 ... ...
ROW FD : ... .. 1 ... ... ... : ... .. 1 ... ... ... : ... .. . ... : ... .. . ... : ... .. . ... ... : ... .. . ... ... : ... .. . ... ... : ... .. 6 ... ...
ROW FE : ... .. . ... ... ... : ... .. . ... ... ... : ... .. . ... : ... .. . ... : ... .. . ... ... : ... .. . ... ... : ... .. . ... ... : ... .. 4 ... ...
ROW FF : ... .. . ... ... ... : ... .. . ... ... ... : --- .. . ... : ... .. . ... : ... .. . ... ... : ... .. . ... ... : ... .. . ... ... : ... .. 3 ... ...

PATTERN 0F
ROW 00 : E-3 00 F ... ... ... : E-4 00 F ... ... ... : D-3 00 . ... : 1-# 00 F ... : ... .. . ... ... : D-4 01 6 P80 V03 : A-5 01 6 ... V03 : A-3 01 8 ... ...
ROW 01 : ... .. E ... ... ... : ... .. E ... ... ... : ... .. . ... : ... .. C ... : ... .. . ... ... : ... .. 5 ... V01 : ... .. 5 ... V01 : ... .. 7 ... ...
ROW 02 : ... .. D ... ... ... : ... .. D ... ... ... : ... .. . ... : ... .. 6 ... : ... .. . ... ... : ... .. . ... ... : ... .. . ... ... : ... .. 6 ... ...
ROW 03 : ... .. A ... ... ... : ... .. A ... ... ... : ... .. . ... : ... .. 3 ... : ... .. . ... ... : ... .. . ... ... : ... .. . ... ... : ... .. 4 ... ...
ROW 04 : ... .. . ... ... ... : ... .. . ... ... ... : ... .. . ... : ... .. 2 ... : ... .. . ... ... : ... .. . ... ... : ... .. . ... ... : ... .. 3 ... ...
ROW 05 : ... .. . ... ... ... : ... .. . ... ... ... : ... .. . ... : C-# 00 8 ... : ... .. . ... ... : G-4 01 6 ... V03 : ... .. . ... ... : ... .. 8 ... ...
ROW 06 : ... .. 2 ... ... ... : ... .. 2 ... ... ... : ... .. . ... : ... .. 6 ... : ... .. . ... ... : ... .. 5 ... V01 : ... .. . ... ... : ... .. 7 ... ...
ROW 07 : ... .. . ... ... ... : ... .. . ... ... ... : ... .. . ... : ... .. 3 ... : ... .. . ... ... : ... .. . ... ... : ... .. 4 ... ... : ... .. 6 ... ...
ROW 08 : ... .. . ... ... ... : ... .. . ... ... ... : ... .. . ... : ... .. 1 ... : ... .. . ... ... : ... .. . ... ... : ... .. . ... ... : ... .. 4 ... ...
ROW 09 : ... .. 1 ... ... ... : ... .. 1 ... ... ... : ... .. . ... : ... .. . ... : ... .. . ... ... : ... .. . ... ... : ... .. . ... ... : ... .. 3 ... ...
ROW 0A : ... .. . ... ... ... : ... .. . ... ... ... : D-2 00 . ... : ... .. F ... : ... .. . ... ... : A-4 01 6 ... V03 : ... .. . ... ... : E-3 01 8 ... ...
ROW 0B : ... .. . ... ... ... : ... .. . ... ... ... : ... .. . ... : ... .. C ... : ... .. . ... ... : ... .. 5 ... V01 : ... .. . ... ... : ... .. 7 ... ...
ROW 0C : ... .. 0 ... ... ... : ... .. 0 ... ... ... : ... .. . ... : ... .. 6 ... : ... .. . ... ... : ... .. . ... ... : ... .. . ... ... : ... .. 6 ... ...
ROW 0D : ... .. . ... ... ... : ... .. . ... ... ... : ... .. . ... : ... .. 3 ... : ... .. . ... ... : ... .. . ... ... : ... .. 3 ... ... : ... .. 4 ... ...
ROW 0E : ... .. . ... ... ... : ... .. . ... ... ... : ... .. . ... : ... .. 2 ... : ... .. . ... ... : ... .. . ... ... : ... .. . ... ... : ... .. 3 ... ...
ROW 0F : C-3 00 F P80 ... ... : C-4 00 F P81 ... ... : ... .. . ... : 1-# 00 F ... : ... .. . ... ... : D-5 01 6 ... V03 : F-5 01 6 ... V03 : ... .. 8 ... ...
ROW 10 : ... .. E ... ... ... : ... .. E ... ... ... : ... .. . ... : ... .. C ... : ... .. . ... ... : ... .. 5 ... V01 : ... .. 5 ... V01 : ... .. 7 ... ...
ROW 11 : ... .. D ... ... ... : ... .. D ... ... ... : ... .. . ... : ... .. 6 ... : ... .. . ... ... : ... .. . ... ... : ... .. . ... ... : ... .. 6 ... ...
ROW 12 : ... .. A ... ... ... : ... .. A ... ... ... : ... .. . ... : ... .. 3 ... : ... .. . ... ... : ... .. . ... ... : ... .. . ... ... : ... .. 4 ... ...
ROW 13 : ... .. 2 ... ... ... : ... .. 2 ... ... ... : ... .. . ... : ... .. 2 ... : ... .. . ... ... : ... .. . ... ... : ... .. . ... ... : ... .. 3 ... ...
ROW 14 : G-3 00 F ... ... ... : G-4 00 F ... ... ... : D-3 00 . ... : 3-# 00 D ... : ... .. . ... ... : G-4 01 6 ... V03 : E-5 01 6 ... V03 : F-3 01 8 ... ...
ROW 15 : ... .. E ... ... ... : ... .. E ... ... ... : ... .. . ... : ... .. . ... : ... .. . ... ... : ... .. 5 ... V01 : ... .. 5 ... V01 : ... .. 7 ... ...
ROW 16 : ... .. D ... ... ... : ... .. D ... ... ... : ... .. . ... : F-# 00 D ... : ... .. . ... ... : ... .. . ... ... : ... .. . ... ... : ... .. 6 ... ...
ROW 17 : ... .. A ... ... ... : ... .. A ... ... ... : ... .. . ... : D-# 00 6 ... : ... .. . ... ... : ... .. . ... ... : ... .. . ... ... : ... .. 4 ... ...
ROW 18 : ... .. . ... ... ... : ... .. . ... ... ... : --- .. . ... : 9-# 00 1 ... : ... .. . ... ... : ... .. . ... ... : ... .. . ... ... : ... .. 3 ... ...
ROW 19 : ... .. . ... ... ... : ... .. . ... ... ... : D-3 00 . ... : ... .. 0 ... : ... .. . ... ... : A-4 01 6 ... V03 : ... .. . ... ... : ... .. 8 ... ...
ROW 1A : ... .. . ... ... ... : ... .. . ... ... ... : ... .. . ... : ... .. . ... : ... .. . ... ... : ... .. 5 ... V01 : ... .. . ... ... : ... .. 7 ... ...
ROW 1B : ... .. . ... ... ... : ... .. . ... ... ... : ... .. . ... : ... .. . ... : ... .. . ... ... : ... .. . ... ... : ... .. 4 ... ... : ... .. 6 ... ...
ROW 1C : ... .. . ... ... ... : ... .. . ... ... ... : ... .. . ... : ... .. . ... : ... .. . ... ... : ... .. . ... ... : ... .. . ... ... : ... .. 4 ... ...
ROW 1D : ... .. . ... ... ... : ... .. . ... ... ... : --- .. . ... : ... .. . ... : ... .. . ... ... : ... .. . ... ... : ... .. . ... ... : ... .. 3 ... ...
ROW 1E : ... .. . ... ... ... : ... .. . ... ... ... : G-3 00 . ... : 1-# 00 F ... : ... .. . ... ... : C-4 01 6 ... V03 : ... .. . ... ... : E-4 01 8 ... ...
ROW 1F : ... .. . ... ... ... : ... .. . ... ... ... : ... .. . ... : ... .. C ... : ... .. . ... ... : ... .. 5 ... V01 : ... .. . ... ... : ... .. 7 ... ...
ROW 20 : ... .. . ... ... ... : ... .. . ... ... ... : ... .. . ... : ... .. 6 ... : ... .. . ... ... : ... .. . ... ... : ... .. . ... ... : ... .. 6 ... ...
ROW 21 : ... .. . ... ... ... : ... .. . ... ... ... : ... .. . ... : ... .. 3 ... : ... .. . ... ... : ... .. . ... ... : ... .. 3 ... ... : ... .. 4 ... ...
ROW 22 : ... .. . ... ... ... : ... .. . ... ... ... : --- .. . ... : ... .. 2 ... : ... .. . ... ... : ... .. . ... ... : ... .. . ... ... : ... .. 3 ... ...
ROW 23 : ... .. . ... ... ... : ... .. . ... ... ... : G-3 00 . ... : C-# 00 7 ... : ... .. . ... ... : D-4 01 6 ... V03 : ... .. . ... ... : ... .. 8 ... ...
ROW 24 : ... .. . ... ... ... : ... .. . ... ... ... : ... .. . ... : ... .. 5 ... : ... .. . ... ... : ... .. 5 ... V01 : ... .. . ... ... : ... .. 7 ... ...
ROW 25 : ... .. . ... ... ... : ... .. . ... ... ... : ... .. . ... : ... .. 2 ... : ... .. . ... ... : ... .. . ... ... : ... .. 2 ... ... : ... .. 6 ... ...
ROW 26 : ... .. . ... ... ... : ... .. . ... ... ... : ... .. . ... : ... .. 1 ... : ... .. . ... ... : ... .. . ... ... : ... .. . ... ... : ... .. 4 ... ...
ROW 27 : ... .. . ... ... ... : ... .. . ... ... ... : --- .. . ... : ... .. . ... : ... .. . ... ... : ... .. . ... ... : ... .. . ... ... : ... .. 3 ... ...
ROW 28 : ... .. . ... ... ... : ... .. . ... ... ... : F-3 00 . ... : 1-# 00 F ... : ... .. . ... ... : G-4 01 6 ... V03 : ... .. . ... ... : G-3 01 8 ... ...
ROW 29 : ... .. . ... ... ... : ... .. . ... ... ... : ... .. . ... : ... .. C ... : ... .. . ... ... : ... .. 5 ... V01 : ... .. . ... ... : ... .. 7 ... ...
ROW 2A : ... .. . ... ... ... : ... .. . ... ... ... : ... .. . ... : ... .. 6 ... : ... .. . ... ... : ... .. . ... ... : ... .. . ... ... : ... .. 6 ... ...
ROW 2B : ... .. . ... ... ... : ... .. . ... ... ... : ... .. . ... : ... .. 3 ... : ... .. . ... ... : ... .. . ... ... : ... .. . ... ... : ... .. 4 ... ...
ROW 2C : ... .. . ... ... ... : ... .. . ... ... ... : --- .. . ... : ... .. 2 ... : ... .. . ... ... : ... .. . ... ... : ... .. . ... ... : ... .. 3 ... ...
ROW 2D : ... .. . ... ... ... : ... .. . ... ... ... : F-3 00 . ... : C-# 00 8 ... : ... .. . ... ... : A-4 01 6 ... V03 : ... .. . ... ... : ... .. 8 ... ...
ROW 2E : ... .. . ... ... ... : ... .. . ... ... ... : ... .. . ... : ... .. 6 ... : ... .. . ... ... : ... .. 5 ... V01 : ... .. . ... ... : ... .. 7 ... ...
ROW 2F : ... .. . ... ... ... : ... .. . ... ... ... : ... .. . ... : ... .. 3 ... : ... .. . ... ... : ... .. . ... ... : ... .. . ... ... : ... .. 6 ... ...
ROW 30 : ... .. . ... ... ... : ... .. . ... ... ... : ... .. . ... : ... .. 1 ... : ... .. . ... ... : ... .. . ... ... : ... .. . ... ... : ... .. 4 ... ...
ROW 31 : ... .. . ... ... ... : ... .. . ... ... ... : --- .. . ... : ... .. . ... : ... .. . ... ... : ... .. . ... ... : ... .. . ... ... : ... .. 3 ... ...
ROW 32 : ... .. . ... ... ... : ... .. . ... ... ... : C-4 00 . ... : ... .. F ... : ... .. . ... ... : D-5 01 6 ... V03 : ... .. . ... ... : A-3 01 8 ... ...
ROW 33 : ... .. . ... ... ... : ... .. . ... ... ... : ... .. . ... : ... .. C ... : ... .. . ... ... : ... .. 5 ... V01 : ... .. . ... ... : ... .. 7 ... ...
ROW 34 : ... .. . ... ... ... : ... .. . ... ... ... : ... .. . ... : ... .. 6 ... : ... .. . ... ... : ... .. . ... ... : ... .. . ... ... : ... .. 6 ... ...
ROW 35 : ... .. . ... ... ... : ... .. . ... ... ... : ... .. . ... : ... .. 3 ... : ... .. . ... ... : ... .. . ... ... : ... .. . ... ... : ... .. 4 ... ...
ROW 36 : ... .. . ... ... ... : ... .. . ... ... ... : --- .. . ... : ... .. 2 ... : ... .. . ... ... : ... .. . ... ... : ... .. . ... ... : ... .. 3 ... ...
ROW 37 : ... .. . ... ... ... : ... .. . ... ... ... : C-4 00 . ... : 1-# 00 F ... : ... .. . ... ... : G-5 01 6 ... V03 : ... .. . ... ... : ... .. 8 ... ...
ROW 38 : ... .. . ... ... ... : ... .. . ... ... ... : ... .. . ... : ... .. C ... : ... .. . ... ... : ... .. 5 ... V01 : ... .. . ... ... : ... .. 7 ... ...
ROW 39 : ... .. . ... ... ... : ... .. . ... ... ... : ... .. . ... : ... .. 6 ... : ... .. . ... ... : ... .. . ... ... : ... .. . ... ... : ... .. 6 ... ...
ROW 3A : ... .. . ... ... ... : ... .. . ... ... ... : ... .. . ... : ... .. 3 ... : ... .. . ... ... : ... .. . ... ... : ... .. . ... ... : ... .. 4 ... ...
ROW 3B : ... .. . ... ... ... : ... .. . ... ... ... : --- .. . ... : ... .. 2 ... : ... .. . ... ... : ... .. . ... ... : ... .. . ... ... : ... .. 3 ... ...
ROW 3C : ... .. . P84 ... ... : G#4 00 A P7D ... ... : G-3 00 . ... : 3-# 00 D ... : ... .. . ... ... : C-5 01 6 ... V03 : ... .. . ... ... : G-4 01 8 ... ...
ROW 3D : ... .. . P86 ... ... : ... .. . P7F ... ... : ... .. . ... : ... .. . ... : ... .. . ... ... : ... .. 5 ... V01 : ... .. . ... ... : ... .. 7 ... ...
ROW 3E : ... .. . P85 ... ... : ... .. . P7E ... ... : ... .. . ... : F-# 00 D ... : ... .. . ... ... : ... .. . ... ... : ... .. . ... ... : ... .. 6 ... ...
ROW 3F : ... .. . P82 ... ... : G-4 00 A P83 ... ... : ... .. . ... : D-# 00 6 ... : ... .. . ... ... : ... .. . ... ... : ... .. . ... ... : ... .. 4 ... ...
ROW 40 : ... .. . P7E ... ... : ... .. . P7F ... ... : --- .. . ... : 9-# 00 1 ... : ... .. . ... ... : ... .. . ... ... : ... .. . ... ... : ... .. 3 ... ...
ROW 41 : ... .. . P7B ... ... : F#4 00 A P84 ... ... : G-3 00 . ... : ... .. 0 ... : ... .. . ... ... : D-5 01 6 ... V03 : ... .. . ... ... : ... .. 8 ... ...
ROW 42 : ... .. . P7A ... ... : ... .. . P83 ... ... : ... .. . ... : ... .. . ... : ... .. . ... ... : ... .. 5 ... V01 : ... .. . ... ... : ... .. 7 ... ...
ROW 43 : ... .. . P7C ... ... : G-4 00 A P7D ... ... : ... .. . ... : ... .. . ... : ... .. . ... ... : ... .. . ... ... : ... .. . ... ... : ... .. 6 ... ...
ROW 44 : ... .. . P80 ... ... : ... .. . P81 ... ... : ... .. . ... : ... .. . ... : ... .. . ... ... : ... .. . ... ... : ... .. . ... ... : ... .. 4 ... ...
ROW 45 : ... .. . P83 ... ... : ... .. . P84 ... ... : --- .. . ... : ... .. . ... : ... .. . ... ... : ... .. . ... ... : ... .. . ... ... : ... .. 3 ... ...
ROW 46 : ... .. . P86 ... ... : G#4 00 A P7F ... ... : E-4 00 . ... : 1-# 00 F ... : ... .. . ... ... : G-4 01 6 ... V03 : ... .. . ... ... : C-4 01 8 ... ...
ROW 47 : ... .. . ... ... ... : ... .. . ... ... ... : ... .. . ... : ... .. C ... : ... .. . ... ... : ... .. 5 ... V01 : ... .. 1 ... ... : ... .. 7 ... ...
ROW 48 : ... .. . P82 ... ... : G-4 00 A P83 ... ... : ... .. . ... : ... .. 6 ... : ... .. . ... ... : ... .. . ... ... : ... .. . ... ... : ... .. 6 ... ...
ROW 49 : ... .. . P7F ... ... : ... .. . P80 ... ... : ... .. . ... : ... .. 3 ... : ... .. . ... ... : ... .. . ... ... : ... .. . ... ... : ... .. 4 ... ...
ROW 4A : ... .. . P7B ... ... : F#4 00 A P84 ... ... : --- .. . ... : ... .. 2 ... : ... .. . ... ... : ... .. . ... ... : ... .. . ... ... : ... .. 3 ... ...
ROW 4B : ... .. . P7A ... ... : ... .. . P83 ... ... : E-4 00 . ... : C-# 00 7 ... : ... .. . ... ... : A-4 01 6 ... V03 : ... .. . ... ... : ... .. 8 ... ...
ROW 4C : ... .. . P7C ... ... : G-4 00 A P7D ... ... : ... .. . ... : ... .. 5 ... : ... .. . ... ... : ... .. 5 ... V01 : ... .. . ... ... : ... .. 7 ... ...
ROW 4D : ... .. . P80 ... ... : ... .. . P81 ... ... : ... .. . ... : ... .. 2 ... : ... .. . ... ... : ... .. . ... ... : ... .. . ... ... : ... .. 6 ... ...
ROW 4E : ... .. . P83 ... ... : ... .. . P84 ... ... : ... .. . ... : ... .. 1 ... : ... .. . ... ... : ... .. . ... ... : ... .. . ... ... : ... .. 4 ... ...
ROW 4F : ... .. . P86 ... ... : G#4 00 A P7F ... ... : --- .. . ... : ... .. . ... : ... .. . ... ... : ... .. . ... ... : ... .. . ... ... : ... .. 3 ... ...
ROW 50 : E-4 00 C P80 ... ... : E-5 00 C P81 ... ... : C-4 00 . ... : ... .. F ... : ... .. . ... ... : C-5 01 6 ... V03 : F-3 01 6 ... V03 : D-4 01 8 ... ...
ROW 51 : ... .. B ... ... ... : ... .. B ... ... ... : ... .. . ... : ... .. C ... : ... .. . ... ... : ... .. 5 ... V01 : ... .. 5 ... V01 : ... .. 7 ... ...
ROW 52 : ... .. A ... ... ... : ... .. A ... ... ... : ... .. . ... : ... .. 6 ... : ... .. . ... ... : ... .. . ... ... : ... .. . ... ... : ... .. 6 ... ...
ROW 53 : ... .. 8 ... ... ... : ... .. 8 ... ... ... : ... .. . ... : ... .. 3 ... : ... .. . ... ... : ... .. . ... ... : ... .. . ... ... : ... .. 4 ... ...
ROW 54 : ... .. . ... ... ... : ... .. . ... ... ... : --- .. . ... : ... .. 2 ... : ... .. . ... ... : ... .. . ... ... : ... .. . ... ... : ... .. 3 ... ...
ROW 55 : ... .. . ... ... ... : ... .. . ... ... ... : C-4 00 . ... : 1-# 00 F ... : ... .. . ... ... : D-5 01 6 ... V03 : ... .. . ... ... : ... .. 8 ... ...
ROW 56 : ... .. 1 ... ... ... : ... .. 1 ... ... ... : ... .. . ... : ... .. C ... : ... .. . ... ... : ... .. 5 ... V01 : ... .. . ... ... : ... .. 7 ... ...
ROW 57 : ... .. . ... ... ... : ... .. . ... ... ... : ... .. . ... : ... .. 6 ... : ... .. . ... ... : ... .. . ... ... : ... .. 4 ... ... : ... .. 6 ... ...
ROW 58 : ... .. . ... ... ... : ... .. . ... ... ... : ... .. . ... : ... .. 3 ... : ... .. . ... ... : ... .. . ... ... : ... .. . ... ... : ... .. 4 ... ...
ROW 59 : ... .. . ... ... ... : ... .. . ... ... ... : --- .. . ... : ... .. 2 ... : ... .. . ... ... : ... .. . ... ... : ... .. . ... ... : ... .. 3 ... ...
ROW 5A : F-4 00 C ... ... ... : F-5 00 C ... ... ... : D-4 00 . ... : 3-# 00 D ... : ... .. . ... ... : G-4 01 6 ... V03 : D-3 01 6 ... V03 : A-4 01 8 ... ...
ROW 5B : ... .. B ... ... ... : ... .. B ... ... ... : ... .. . ... : ... .. . ... : ... .. . ... ... : ... .. 5 ... V01 : ... .. 5 ... V01 : ... .. 7 ... ...
ROW 5C : ... .. A ... ... ... : ... .. A ... ... ... : ... .. . ... : F-# 00 D ... : ... .. . ... ... : ... .. . ... ... : ... .. . ... ... : ... .. 6 ... ...
ROW 5D : ... .. 8 ... ... ... : ... .. 8 ... ... ... : ... .. . ... : D-# 00 6 ... : ... .. . ... ... : ... .. . ... ... : ... .. . ... ... : ... .. 4 ... ...
ROW 5E : ... .. . ... ... ... : ... .. . ... ... ... : --- .. . ... : 9-# 00 1 ... : ... .. . ... ... : ... .. . ... ... : ... .. . ... ... : ... .. 3 ... ...
ROW 5F : ... .. . ... ... ... : ... .. . ... ... ... : D-4 00 . ... : ... .. 0 ... : ... .. . ... ... : A-4 01 6 ... V03 : ... .. . ... ... : ... .. 8 ... ...
ROW 60 : ... .. 1 ... ... ... : ... .. 1 ... ... ... : ... .. . ... : ... .. . ... : ... .. . ... ... : ... .. 5 ... V01 : ... .. . ... ... : ... .. 7 ... ...
ROW 61 : ... .. . ... ... ... : ... .. . ... ... ... : ... .. . ... : ... .. . ... : ... .. . ... ... : ... .. . ... ... : ... .. 4 ... ... : ... .. 6 ... ...
ROW 62 : ... .. . ... ... ... : ... .. . ... ... ... : ... .. . ... : ... .. . ... : ... .. . ... ... : ... .. . ... ... : ... .. . ... ... : ... .. 4 ... ...
ROW 63 : ... .. . ... ... ... : ... .. . ... ... ... : --- .. . ... : ... .. . ... : ... .. . ... ... : ... .. . ... ... : ... .. . ... ... : ... .. 3 ... ...
ROW 64 : C-4 00 C ... ... ... : C-5 00 C ... ... ... : D-3 00 . ... : 4-# 00 D ... : ... .. . ... ... : F-4 01 6 ... V03 : A-3 01 6 ... V03 : E-4 01 8 ... ...
ROW 65 : ... .. B ... ... ... : ... .. B ... ... ... : ... .. . ... : ... .. . ... : ... .. . ... ... : ... .. 5 ... V01 : ... .. 5 ... V01 : ... .. 7 ... ...
ROW 66 : ... .. A ... ... ... : ... .. A ... ... ... : ... .. . ... : 0-# 00 D ... : ... .. . ... ... : ... .. . ... ... : ... .. . ... ... : ... .. 6 ... ...
ROW 67 : ... .. 8 ... ... ... : ... .. 8 ... ... ... : ... .. . ... : E-# 00 6 ... : ... .. . ... ... : ... .. . ... ... : ... .. . ... ... : ... .. 4 ... ...
ROW 68 : ... .. . ... ... ... : ... .. . ... ... ... : --- .. . ... : A-# 00 1 ... : ... .. . ... ... : ... .. . ... ... : ... .. . ... ... : ... .. 3 ... ...
ROW 69 : ... .. . ... ... ... : ... .. . ... ... ... : D-3 00 . ... : 4-# 00 D ... : ... .. . ... ... : C-4 01 6 ... V03 : ... .. . ... ... : ... .. 8 ... ...
ROW 6A : ... .. . ... ... ... : ... .. . ... ... ... : ... .. . ... : ... .. . ... : ... .. . ... ... : ... .. 5 ... V01 : ... .. . ... ... : ... .. 7 ... ...
ROW 6B : ... .. . ... ... ... : ... .. . ... ... ... : ... .. . ... : 0-# 00 D ... : ... .. . ... ... : ... .. . ... ... : ... .. 4 ... ... : ... .. 6 ... ...
ROW 6C : ... .. . ... ... ... : ... .. . ... ... ... : ... .. . ... : E-# 00 6 ... : ... .. . ... ... : ... .. . ... ... : ... .. . ... ... : ... .. 4 ... ...
ROW 6D : ... .. . ... ... ... : ... .. . ... ... ... : --- .. . ... : A-# 00 1 ... : ... .. . ... ... : ... .. . ... ... : ... .. . ... ... : ... .. 3 ... ...
ROW 6E : ... .. . ... ... ... : ... .. . ... ... ... : D-2 00 . ... : B-# 00 D ... : ... .. . ... ... : D-4 01 6 ... V03 : ... .. . ... ... : F-4 01 8 ... ...
ROW 6F : ... .. . ... ... ... : ... .. . ... ... ... : ... .. . ... : ... .. . ... : ... .. . ... ... : ... .. 5 ... V01 : ... .. . ... ... : ... .. 7 ... ...
ROW 70 : ... .. . ... ... ... : ... .. . ... ... ... : ... .. . ... : 7-# 00 D ... : ... .. . ... ... : ... .. . ... ... : ... .. . ... ... : ... .. 6 ... ...
ROW 71 : ... .. . ... ... ... : ... .. . ... ... ... : ... .. . ... : 5-# 00 6 ... : ... .. . ... ... : ... .. . ... ... : ... .. 3 ... ... : ... .. 4 ... ...
ROW 72 : ... .. . ... ... ... : ... .. . ... ... ... : --- .. . ... : 1-# 00 1 ... : ... .. . ... ... : ... .. . ... ... : ... .. . ... ... : ... .. 3 ... ...
ROW 73 : ... .. . ... ... ... : ... .. . ... ... ... : D-2 00 . ... : B-# 00 D ... : ... .. . ... ... : F-4 01 6 ... V03 : ... .. . ... ... : ... .. 8 ... ...
ROW 74 : ... .. . ... ... ... : ... .. . ... ... ... : ... .. . ... : ... .. . ... : ... .. . ... ... : ... .. 5 ... V01 : ... .. . ... ... : ... .. 7 ... ...
ROW 75 : ... .. . ... ... ... : ... .. . ... ... ... : ... .. . ... : 7-# 00 D ... : ... .. . ... ... : ... .. . ... ... : ... .. 2 ... ... : ... .. 6 ... ...
ROW 76 : ... .. . ... ... ... : ... .. . ... ... ... : ... .. . ... : 5-# 00 6 ... : ... .. . ... ... : ... .. . ... ... : ... .. . ... ... : ... .. 4 ... ...
ROW 77 : ... .. . ... ... ... : ... .. . ... ... ... : --- .. . ... : 1-# 00 1 ... : ... .. . ... ... : ... .. . ... ... : ... .. . ... ... : ... .. 3 ... ...
ROW 78 : ... .. . P84 ... ... : C#5 00 8 P7F ... ... : C-3 00 . ... : 3-# 00 D ... : ... .. . ... ... : G-4 01 6 ... V03 : ... .. . ... ... : C-5 01 8 ... ...
ROW 79 : ... .. . P86 ... ... : ... .. . P81 ... ... : ... .. . ... : ... .. . ... : ... .. . ... ... : ... .. 5 ... V01 : ... .. . ... ... : ... .. 7 ... ...
ROW 7A : ... .. . P85 ... ... : ... .. . P80 ... ... : ... .. . ... : F-# 00 D ... : ... .. . ... ... : ... .. . ... ... : ... .. . ... ... : ... .. 6 ... ...
ROW 7B : ... .. . P82 ... ... : C-5 00 8 P83 ... ... : ... .. . ... : D-# 00 6 ... : ... .. . ... ... : ... .. . ... ... : ... .. . ... ... : ... .. 4 ... ...
ROW 7C : ... .. . P7E ... ... : ... .. . P7F ... ... : --- .. . ... : 9-# 00 1 ... : ... .. . ... ... : ... .. . ... ... : ... .. . ... ... : ... .. 3 ... ...
ROW 7D : ... .. . P7B ... ... : B-4 00 8 P82 ... ... : C-3 00 . ... : 3-# 00 D ... : ... .. . ... ... : A-4 01 6 ... V03 : ... .. . ... ... : ... .. 8 ... ...
ROW 7E : B-3 00 8 P86 ... ... : ... .. . P81 ... ... : ... .. . ... : ... .. . ... : ... .. . ... ... : ... .. 5 ... V01 : ... .. . ... ... : ... .. 7 ... ...
ROW 7F : C-4 00 8 P7C ... ... : ... .. . P83 ... ... : ... .. . ... : F-# 00 D ... : ... .. . ... ... : ... .. . ... ... : ... .. . ... ... : ... .. 6 ... ...
ROW 80 : ... .. . P80 ... ... : C-5 00 8 P81 ... ... : ... .. . ... : D-# 00 6 ... : ... .. . ... ... : ... .. . ... ... : ... .. . ... ... : ... .. 4 ... ...
ROW 81 : ... .. . P83 ... ... : C#5 00 8 P7E ... ... : --- .. . ... : 9-# 00 1 ... : ... .. . ... ... : ... .. . ... ... : ... .. . ... ... : ... .. 3 ... ...
ROW 82 : ... .. . P86 ... ... : ... .. . P81 ... ... : D-3 00 . ... : 2-# 00 F ... : ... .. . ... ... : F-4 01 6 ... V03 : ... .. . ... ... : A-4 01 8 ... ...
ROW 83 : ... .. . ... ... ... : ... .. . ... ... ... : ... .. . ... : ... .. C ... : ... .. . ... ... : ... .. 5 ... V01 : ... .. . ... ... : ... .. 7 ... ...
ROW 84 : ... .. . P82 ... ... : C-5 00 8 P83 ... ... : ... .. . ... : ... .. 6 ... : ... .. . ... ... : ... .. . ... ... : ... .. . ... ... : ... .. 6 ... ...
ROW 85 : ... .. . P7F ... ... : ... .. . P80 ... ... : ... .. . ... : ... .. 3 ... : ... .. . ... ... : ... .. . ... ... : ... .. . ... ... : ... .. 4 ... ...
ROW 86 : ... .. . P7B ... ... : B-4 00 8 P82 ... ... : --- .. . ... : ... .. 2 ... : ... .. . ... ... : ... .. . ... ... : ... .. . ... ... : ... .. 3 ... ...
ROW 87 : B-3 00 8 P86 ... ... : ... .. . P81 ... ... : D-3 00 . ... : ... .. F ... : ... .. . ... ... : G-4 01 6 ... V03 : ... .. . ... ... : ... .. 8 ... ...
ROW 88 : C-4 00 1 P7C ... ... : ... .. 1 P83 ... ... : ... .. . ... : ... .. C ... : ... .. . ... ... : ... .. 5 ... V01 : ... .. . ... ... : ... .. 7 ... ...
ROW 89 : ... .. . P80 ... ... : C-5 00 1 P81 ... ... : ... .. . ... : ... .. 6 ... : ... .. . ... ... : ... .. . ... ... : ... .. . ... ... : ... .. 6 ... ...
ROW 8A : ... .. . P83 ... ... : C#5 00 1 P7E ... ... : ... .. . ... : ... .. 3 ... : ... .. . ... ... : ... .. . ... ... : ... .. . ... ... : ... .. 4 ... ...
ROW 8B : ... .. . P86 ... ... : ... .. . P81 ... ... : --- .. . ... : ... .. 2 ... : ... .. . ... ... : ... .. . ... ... : ... .. . ... ... : ... .. 3 ... ...
ROW 8C : D-4 00 F P80 ... ... : ... .. . ... ... ... : F-3 00 . ... : 8-# 00 F ... : ... .. . ... ... : D-4 01 6 ... V03 : ... .. . ... ... : D-5 01 8 ... ...
ROW 8D : ... .. E ... ... ... : ... .. . P7E ... ... : ... .. . ... : ... .. C ... : ... .. . ... ... : ... .. 5 ... V01 : ... .. . ... ... : ... .. 7 ... ...
ROW 8E : ... .. D ... ... ... : ... .. 0 ... ... ... : ... .. . ... : ... .. 6 ... : ... .. . ... ... : ... .. . ... ... : ... .. . ... ... : ... .. 6 ... ...
ROW 8F : ... .. A ... ... ... : ... .. . ... ... ... : ... .. . ... : ... .. 3 ... : ... .. . ... ... : ... .. . ... ... : ... .. . ... ... : ... .. 4 ... ...
ROW 90 : ... .. 2 ... ... ... : ... .. . ... ... ... : --- .. . ... : ... .. 2 ... : ... .. . ... ... : ... .. . ... ... : ... .. . ... ... : ... .. 3 ... ...
ROW 91 : E-4 00 F ... ... ... : ... .. . ... ... ... : F-3 00 . ... : ... .. F ... : ... .. . ... ... : G-3 01 6 ... V03 : ... .. . ... ... : C-5 01 8 ... ...
ROW 92 : ... .. E ... ... ... : ... .. . ... ... ... : ... .. . ... : ... .. C ... : ... .. . ... ... : ... .. 5 ... V01 : ... .. . ... ... : ... .. 7 ... ...
ROW 93 : ... .. D ... ... ... : ... .. . ... ... ... : ... .. . ... : ... .. 6 ... : ... .. . ... ... : ... .. . ... ... : ... .. . ... ... : ... .. 6 ... ...
ROW 94 : ... .. A ... ... ... : ... .. . ... ... ... : ... .. . ... : ... .. 3 ... : ... .. . ... ... : ... .. . ... ... : ... .. . ... ... : ... .. 4 ... ...
ROW 95 : ... .. 2 ... ... ... : ... .. . ... ... ... : --- .. . ... : ... .. 2 ... : ... .. . ... ... : ... .. . ... ... : ... .. . ... ... : ... .. 3 ... ...
ROW 96 : F-4 00 F ... ... ... : ... .. . ... ... ... : E-3 00 . ... : F-# 00 F ... : ... .. . ... ... : A-3 01 6 ... V03 : ... .. . ... ... : A#4 01 8 ... ...
ROW 97 : ... .. E ... ... ... : ... .. . ... ... ... : ... .. . ... : ... .. C ... : ... .. . ... ... : ... .. 5 ... V01 : ... .. 1 ... ... : ... .. 7 ... ...
ROW 98 : ... .. D ... ... ... : ... .. . ... ... ... : ... .. . ... : ... .. 6 ... : ... .. . ... ... : ... .. . ... ... : ... .. . ... ... : ... .. 6 ... ...
ROW 99 : ... .. A ... ... ... : ... .. . ... ... ... : ... .. . ... : ... .. 3 ... : ... .. . ... ... : ... .. . ... ... : ... .. . ... ... : ... .. 4 ... ...
ROW 9A : ... .. 2 ... ... ... : ... .. . ... ... ... : --- .. . ... : ... .. 2 ... : ... .. . ... ... : ... .. . ... ... : ... .. . ... ... : ... .. 3 ... ...
ROW 9B : G-4 00 F ... ... ... : ... .. . ... ... ... : E-3 00 . ... : ... .. F ... : ... .. . ... ... : C-4 01 6 ... V03 : ... .. . ... ... : A-4 01 8 ... ...
ROW 9C : ... .. E ... ... ... : ... .. . ... ... ... : ... .. . ... : ... .. C ... : ... .. . ... ... : ... .. 5 ... V01 : ... .. . ... ... : ... .. 7 ... ...
ROW 9D : ... .. D ... ... ... : ... .. . ... ... ... : ... .. . ... : ... .. 6 ... : ... .. . ... ... : ... .. . ... ... : ... .. . ... ... : ... .. 6 ... ...
ROW 9E : ... .. A ... ... ... : ... .. . ... ... ... : ... .. . ... : ... .. 3 ... : ... .. . ... ... : ... .. . ... ... : ... .. . ... ... : ... .. 4 ... ...
ROW 9F : ... .. 2 ... ... ... : ... .. . ... ... ... : --- .. . ... : ... .. 2 ... : ... .. . ... ... : ... .. . ... ... : ... .. . ... ... : ... .. 3 ... ...
ROW A0 : A-4 00 F ... ... ... : D-4 00 8 P81 ... ... : D#3 00 . ... : 1-# 00 F ... : ... .. . ... ... : A#3 01 6 P81 V03 : D-4 01 6 ... V03 : G-4 01 8 ... ...
ROW A1 : ... .. E ... ... ... : ... .. 7 ... ... ... : ... .. . ... : ... .. C ... : ... .. . ... ... : ... .. 5 ... V01 : ... .. 5 ... V01 : ... .. 7 ... ...
ROW A2 : ... .. D ... ... ... : ... .. . ... ... ... : ... .. . ... : ... .. 6 ... : ... .. . ... ... : ... .. . ... ... : ... .. . ... ... : ... .. 6 ... ...
ROW A3 : ... .. A ... ... ... : ... .. 6 ... ... ... : ... .. . ... : ... .. 3 ... : ... .. . ... ... : ... .. . ... ... : ... .. . ... ... : ... .. 4 ... ...
ROW A4 : ... .. . ... ... ... : ... .. 5 ... ... ... : ... .. . ... : ... .. 2 ... : ... .. . ... ... : ... .. . ... ... : ... .. . ... ... : ... .. 3 ... ...
ROW A5 : ... .. . ... ... ... : A#3 00 8 ... ... ... : D-3 00 . P75 : C-# 00 8 ... : ... .. . ... ... : ... .. . ... ... : ... .. . ... ... : ... .. 8 ... ...
ROW A6 : ... .. . ... ... ... : ... .. 7 ... ... ... : C-3 00 . P84 : ... .. 6 ... : ... .. . ... ... : ... .. . ... ... : ... .. . ... ... : ... .. 7 ... ...
ROW A7 : ... .. . ... ... ... : ... .. . ... ... ... : B-2 00 . P7D : ... .. 3 ... : ... .. . ... ... : ... .. 4 ... ... : ... .. 4 ... ... : ... .. 6 ... ...
ROW A8 : ... .. . ... ... ... : ... .. 6 ... ... ... : A#2 00 . P78 : ... .. 1 ... : ... .. . ... ... : ... .. . ... ... : ... .. . ... ... : ... .. 4 ... ...
ROW A9 : ... .. . ... ... ... : ... .. 5 ... ... ... : A-2 00 . P74 : ... .. . ... : ... .. . ... ... : ... .. . ... ... : ... .. . ... ... : ... .. 3 ... ...
ROW AA : ... .. . ... ... ... : G-3 00 8 ... ... ... : D#2 00 . P80 : ... .. F ... : ... .. . ... ... : ... .. . ... ... : ... .. . ... ... : G-3 01 8 ... ...
ROW AB : ... .. . ... ... ... : ... .. 7 ... ... ... : ... .. . ... : ... .. C ... : ... .. . ... ... : ... .. . ... ... : ... .. . ... ... : ... .. 7 ... ...
ROW AC : ... .. . ... ... ... : ... .. . ... ... ... : ... .. . ... : ... .. 6 ... : ... .. . ... ... : ... .. . ... ... : ... .. . ... ... : ... .. 6 ... ...
ROW AD : ... .. . ... ... ... : ... .. 6 ... ... ... : ... .. . ... : ... .. 3 ... : ... .. . ... ... : ... .. 3 ... ... : ... .. 3 ... ... : ... .. 4 ... ...
ROW AE : ... .. . ... ... ... : ... .. 5 ... ... ... : --- .. . ... : ... .. 2 ... : ... .. . ... ... : ... .. . ... ... : ... .. . ... ... : ... .. 3 ... ...
ROW AF : ... .. . ... ... ... : ... .. 4 ... ... ... : D#2 00 . ... : 1-# 00 F ... : ... .. . ... ... : ... .. . ... ... : ... .. . ... ... : ... .. 8 ... ...
ROW B0 : ... .. . ... ... ... : ... .. . ... ... ... : ... .. . ... : ... .. C ... : ... .. . ... ... : ... .. . ... ... : ... .. . ... ... : ... .. 7 ... ...
ROW B1 : ... .. . ... ... ... : ... .. . ... ... ... : ... .. . ... : ... .. 6 ... : ... .. . ... ... : ... .. 2 ... ... : ... .. 2 ... ... : ... .. 6 ... ...
ROW B2 : ... .. . ... ... ... : ... .. 3 ... ... ... : ... .. . ... : ... .. 3 ... : ... .. . ... ... : ... .. . ... ... : ... .. . ... ... : ... .. 4 ... ...
ROW B3 : ... .. . ... ... ... : ... .. . ... ... ... : --- .. . ... : ... .. 2 ... : ... .. . ... ... : ... .. . ... ... : ... .. . ... ... : ... .. 3 ... ...
ROW B4 : A#4 00 F ... ... ... : F-4 00 8 ... ... ... : D#2 00 . ... : 3-# 00 D ... : ... .. . ... ... : ... .. . ... ... : ... .. . ... ... : A-3 01 8 ... ...
ROW B5 : ... .. E ... ... ... : ... .. 7 ... ... ... : ... .. . ... : ... .. . ... : ... .. . ... ... : ... .. . ... ... : ... .. . ... ... : ... .. 7 ... ...
ROW B6 : ... .. D ... ... ... : ... .. . ... ... ... : ... .. . ... : F-# 00 D ... : ... .. . ... ... : ... .. . ... ... : ... .. . ... ... : ... .. 6 ... ...
ROW B7 : ... .. A ... ... ... : ... .. 6 ... ... ... : ... .. . ... : D-# 00 6 ... : ... .. . ... ... : ... .. . ... ... : ... .. . ... ... : ... .. 4 ... ...
ROW B8 : ... .. 2 ... ... ... : ... .. 5 ... ... ... : ... .. . ... : 9-# 00 1 ... : ... .. . ... ... : ... .. . ... ... : ... .. . ... ... : ... .. 3 ... ...
ROW B9 : A-4 00 F ... ... ... : D-4 00 8 ... ... ... : ... .. . ... : ... .. 0 ... : ... .. . ... ... : ... .. . ... ... : ... .. . ... ... : ... .. 8 ... ...
ROW BA : ... .. E ... ... ... : ... .. 7 ... ... ... : ... .. . ... : ... .. . ... : ... .. . ... ... : ... .. . ... ... : ... .. . ... ... : ... .. 7 ... ...
ROW BB : ... .. D ... ... ... : ... .. . ... ... ... : ... .. . ... : ... .. . ... : ... .. . ... ... : ... .. . ... ... : ... .. . ... ... : ... .. 6 ... ...
ROW BC : ... .. A ... ... ... : ... .. 6 ... ... ... : ... .. . ... : ... .. . ... : ... .. . ... ... : ... .. . ... ... : ... .. . ... ... : ... .. 4 ... ...
ROW BD : ... .. 2 ... ... ... : ... .. 5 ... ... ... : --- .. . ... : ... .. . ... : ... .. . ... ... : ... .. . ... ... : ... .. . ... ... : ... .. 3 ... ...
ROW BE : G-4 00 F ... ... ... : A#3 00 8 ... ... ... : D#3 00 . ... : 1-# 00 F ... : ... .. . ... ... : C-4 01 6 ... V03 : F-4 01 6 ... V03 : F-4 01 8 ... ...
ROW BF : ... .. E ... ... ... : ... .. 7 ... ... ... : ... .. . ... : ... .. C ... : ... .. . ... ... : ... .. 5 ... V01 : ... .. 5 ... V01 : ... .. 7 ... ...
ROW C0 : ... .. D ... ... ... : ... .. . ... ... ... : ... .. . ... : ... .. 6 ... : ... .. . ... ... : ... .. . ... ... : ... .. . ... ... : ... .. 6 ... ...
ROW C1 : ... .. A ... ... ... : ... .. 6 ... ... ... : ... .. . ... : ... .. 3 ... : ... .. . ... ... : ... .. . ... ... : ... .. . ... ... : ... .. 4 ... ...
ROW C2 : ... .. . ... ... ... : ... .. 5 ... ... ... : ... .. . ... : ... .. 2 ... : ... .. . ... ... : ... .. . ... ... : ... .. . ... ... : ... .. 3 ... ...
ROW C3 : ... .. . ... ... ... : ... .. 4 ... ... ... : D-3 00 . P75 : C-# 00 7 ... : ... .. . ... ... : ... .. . ... ... : ... .. . ... ... : ... .. 8 ... ...
ROW C4 : ... .. . ... ... ... : ... .. . ... ... ... : C-3 00 . P84 : ... .. 5 ... : ... .. . ... ... : ... .. . ... ... : ... .. . ... ... : ... .. 7 ... ...
ROW C5 : ... .. . ... ... ... : ... .. . ... ... ... : B-2 00 . P7D : ... .. 2 ... : ... .. . ... ... : ... .. 4 ... ... : ... .. 4 ... ... : ... .. 6 ... ...
ROW C6 : ... .. . ... ... ... : ... .. 3 ... ... ... : A#2 00 . P78 : ... .. 1 ... : ... .. . ... ... : ... .. . ... ... : ... .. . ... ... : ... .. 4 ... ...
ROW C7 : ... .. . ... ... ... : ... .. . ... ... ... : A-2 00 . P74 : ... .. . ... : ... .. . ... ... : ... .. . ... ... : ... .. . ... ... : ... .. 3 ... ...
ROW C8 : ... .. . ... ... ... : A-4 00 8 ... ... ... : D#2 00 . P80 : ... .. F ... : ... .. . ... ... : ... .. . ... ... : ... .. . ... ... : G-3 01 8 ... ...
ROW C9 : ... .. . ... ... ... : ... .. 7 ... ... ... : ... .. . ... : ... .. C ... : ... .. . ... ... : ... .. . ... ... : ... .. . ... ... : ... .. 7 ... ...
ROW CA : ... .. . ... ... ... : ... .. . ... ... ... : ... .. . ... : ... .. 6 ... : ... .. . ... ... : ... .. . ... ... : ... .. . ... ... : ... .. 6 ... ...
ROW CB : ... .. . ... ... ... : ... .. 6 ... ... ... : ... .. . ... : ... .. 3 ... : ... .. . ... ... : ... .. 3 ... ... : ... .. 3 ... ... : ... .. 4 ... ...
ROW CC : ... .. . ... ... ... : ... .. 5 ... ... ... : --- .. . ... : ... .. 2 ... : ... .. . ... ... : ... .. . ... ... : ... .. . ... ... : ... .. 3 ... ...
ROW CD : ... .. . ... ... ... : F-4 00 8 ... ... ... : D#2 00 . ... : 1-# 00 F ... : ... .. . ... ... : ... .. . ... ... : ... .. . ... ... : ... .. 8 ... ...
ROW CE : ... .. . ... ... ... : ... .. 7 ... ... ... : ... .. . ... : ... .. C ... : ... .. . ... ... : ... .. . ... ... : ... .. . ... ... : ... .. 7 ... ...
ROW CF : ... .. . ... ... ... : ... .. . ... ... ... : ... .. . ... : ... .. 6 ... : ... .. . ... ... : ... .. 2 ... ... : ... .. 2 ... ... : ... .. 6 ... ...
ROW D0 : ... .. . ... ... ... : ... .. 6 ... ... ... : ... .. . ... : ... .. 3 ... : ... .. . ... ... : ... .. . ... ... : ... .. . ... ... : ... .. 4 ... ...
ROW D1 : ... .. . ... ... ... : ... .. 5 ... ... ... : --- .. . ... : ... .. 2 ... : ... .. . ... ... : ... .. . ... ... : ... .. . ... ... : ... .. 3 ... ...
ROW D2 : ... .. . ... ... ... : A#3 00 8 ... ... ... : D#2 00 . ... : 3-# 00 D ... : ... .. . ... ... : ... .. . ... ... : ... .. . ... ... : A-3 01 8 ... ...
ROW D3 : ... .. . ... ... ... : ... .. 7 ... ... ... : ... .. . ... : ... .. . ... : ... .. . ... ... : ... .. . ... ... : ... .. . ... ... : ... .. 7 ... ...
ROW D4 : ... .. . ... ... ... : ... .. . ... ... ... : ... .. . ... : F-# 00 D ... : ... .. . ... ... : ... .. . ... ... : ... .. . ... ... : ... .. 6 ... ...
ROW D5 : ... .. . ... ... ... : ... .. 6 ... ... ... : ... .. . ... : D-# 00 6 ... : ... .. . ... ... : ... .. . ... ... : ... .. . ... ... : ... .. 4 ... ...
ROW D6 : ... .. 2 ... ... ... : ... .. 5 ... ... ... : ... .. . ... : 9-# 00 1 ... : ... .. . ... ... : ... .. . ... ... : ... .. . ... ... : ... .. 3 ... ...
ROW D7 : ... .. . ... ... ... : ... .. 4 ... ... ... : ... .. . ... : ... .. 0 ... : ... .. . ... ... : ... .. . ... ... : ... .. . ... ... : ... .. 8 ... ...
ROW D8 : ... .. . ... ... ... : ... .. . ... ... ... : ... .. . ... : ... .. . ... : ... .. . ... ... : ... .. . ... ... : ... .. . ... ... : ... .. 7 ... ...
ROW D9 : ... .. 1 ... ... ... : ... .. . ... ... ... : ... .. . ... : ... .. . ... : ... .. . ... ... : ... .. . ... ... : ... .. . ... ... : ... .. 6 ... ...
ROW DA : ... .. . ... ... ... : ... .. 3 ... ... ... : ... .. . ... : ... .. . ... : ... .. . ... ... : ... .. . ... ... : ... .. . ... ... : ... .. 4 ... ...
ROW DB : ... .. . ... ... ... : ... .. . ... ... ... : --- .. . ... : ... .. . ... : ... .. . ... ... : ... .. . ... ... : ... .. . ... ... : ... .. 3 ... ...
ROW DC : F-4 00 F ... ... ... : D-5 00 8 ... ... ... : D#3 00 . ... : 1-# 00 F ... : ... .. . ... ... : G-3 01 6 ... V03 : D-4 01 6 ... V03 : F-4 01 8 ... ...
ROW DD : ... .. E ... ... ... : ... .. 7 ... ... ... : ... .. . ... : ... .. C ... : ... .. . ... ... : ... .. 5 ... V01 : ... .. 5 ... V01 : ... .. 7 ... ...
ROW DE : ... .. D ... ... ... : ... .. . ... ... ... : ... .. . ... : ... .. 6 ... : ... .. . ... ... : ... .. . ... ... : ... .. . ... ... : ... .. 6 ... ...
ROW DF : ... .. A ... ... ... : ... .. 6 ... ... ... : ... .. . ... : ... .. 3 ... : ... .. . ... ... : ... .. . ... ... : ... .. . ... ... : ... .. 4 ... ...
ROW E0 : ... .. . ... ... ... : ... .. 5 ... ... ... : ... .. . ... : ... .. 2 ... : ... .. . ... ... : ... .. . ... ... : ... .. . ... ... : ... .. 3 ... ...
ROW E1 : ... .. . ... ... ... : A#4 00 8 ... ... ... : D-3 00 . P75 : C-# 00 8 ... : ... .. . ... ... : ... .. . ... ... : ... .. . ... ... : ... .. 8 ... ...
ROW E2 : ... .. . ... ... ... : ... .. 7 ... ... ... : C-3 00 . P84 : ... .. 6 ... : ... .. . ... ... : ... .. . ... ... : ... .. . ... ... : ... .. 7 ... ...
ROW E3 : ... .. . ... ... ... : ... .. . ... ... ... : B-2 00 . P7D : ... .. 3 ... : ... .. . ... ... : ... .. 4 ... ... : ... .. 4 ... ... : ... .. 6 ... ...
ROW E4 : ... .. . ... ... ... : ... .. 6 ... ... ... : A#2 00 . P78 : ... .. 1 ... : ... .. . ... ... : ... .. . ... ... : ... .. . ... ... : ... .. 4 ... ...
ROW E5 : ... .. . ... ... ... : ... .. 5 ... ... ... : A-2 00 . P74 : ... .. . ... : ... .. . ... ... : ... .. . ... ... : ... .. . ... ... : ... .. 3 ... ...
ROW E6 : ... .. . ... ... ... : G-4 00 8 ... ... ... : D#2 00 . P80 : ... .. F ... : ... .. . ... ... : ... .. . ... ... : ... .. . ... ... : G-3 01 8 ... ...
ROW E7 : ... .. . ... ... ... : ... .. 7 ... ... ... : ... .. . ... : ... .. C ... : ... .. . ... ... : ... .. . ... ... : ... .. . ... ... : ... .. 7 ... ...
ROW E8 : ... .. . ... ... ... : ... .. . ... ... ... : ... .. . ... : ... .. 6 ... : ... .. . ... ... : ... .. . ... ... : ... .. . ... ... : ... .. 6 ... ...
ROW E9 : ... .. . ... ... ... : ... .. 6 ... ... ... : ... .. . ... : ... .. 3 ... : ... .. . ... ... : ... .. 3 ... ... : ... .. 3 ... ... : ... .. 4 ... ...
ROW EA : ... .. . ... ... ... : ... .. 5 ... ... ... : --- .. . ... : ... .. 2 ... : ... .. . ... ... : ... .. . ... ... : ... .. . ... ... : ... .. 3 ... ...
ROW EB : ... .. . ... ... ... : ... .. 4 ... ... ... : D#2 00 . ... : 1-# 00 F ... : ... .. . ... ... : ... .. . ... ... : ... .. . ... ... : ... .. 8 ... ...
ROW EC : ... .. 2 ... ... ... : ... .. . ... ... ... : ... .. . ... : ... .. C ... : ... .. . ... ... : ... .. . ... ... : ... .. . ... ... : ... .. 7 ... ...
ROW ED : ... .. . ... ... ... : ... .. . ... ... ... : ... .. . ... : ... .. 6 ... : ... .. . ... ... : ... .. 2 ... ... : ... .. 2 ... ... : ... .. 6 ... ...
ROW EE : ... .. . ... ... ... : ... .. 3 ... ... ... : ... .. . ... : ... .. 3 ... : ... .. . ... ... : ... .. . ... ... : ... .. . ... ... : ... .. 4 ... ...
ROW EF : ... .. 1 ... ... ... : ... .. . ... ... ... : --- .. . ... : ... .. 2 ... : ... .. . ... ... : ... .. . ... ... : ... .. . ... ... : ... .. 3 ... ...
ROW F0 : G-4 00 F ... ... ... : A#3 00 8 ... ... ... : D#2 00 . ... : 3-# 00 D ... : ... .. . ... ... : ... .. . ... ... : ... .. . ... ... : A-3 01 8 ... ...
ROW F1 : ... .. E ... ... ... : ... .. 7 ... ... ... : ... .. . ... : ... .. . ... : ... .. . ... ... : ... .. . ... ... : ... .. . ... ... : ... .. 7 ... ...
ROW F2 : ... .. D ... ... ... : ... .. . ... ... ... : ... .. . ... : F-# 00 D ... : ... .. . ... ... : ... .. . ... ... : ... .. . ... ... : ... .. 6 ... ...
ROW F3 : ... .. A ... ... ... : ... .. 6 ... ... ... : ... .. . ... : D-# 00 6 ... : ... .. . ... ... : ... .. . ... ... : ... .. . ... ... : ... .. 4 ... ...
ROW F4 : ... .. 2 ... ... ... : ... .. 5 ... ... ... : ... .. . ... : 9-# 00 1 ... : ... .. . ... ... : ... .. . ... ... : ... .. . ... ... : ... .. 3 ... ...
ROW F5 : F-4 00 F ... ... ... : A-3 00 8 ... ... ... : ... .. . ... : ... .. 0 ... : ... .. . ... ... : ... .. . ... ... : ... .. . ... ... : ... .. 8 ... ...
ROW F6 : ... .. E ... ... ... : ... .. 7 ... ... ... : ... .. . ... : ... .. . ... : ... .. . ... ... : ... .. . ... ... : ... .. . ... ... : ... .. 7 ... ...
ROW F7 : ... .. D ... ... ... : ... .. . ... ... ... : ... .. . ... : ... .. . ... : ... .. . ... ... : ... .. . ... ... : ... .. . ... ... : ... .. 6 ... ...
ROW F8 : ... .. A ... ... ... : ... .. 6 ... ... ... : ... .. . ... : ... .. . ... : ... .. . ... ... : ... .. . ... ... : ... .. . ... ... : ... .. 4 ... ...
ROW F9 : ... .. 2 ... ... ... : ... .. 5 ... ... ... : --- .. . ... : ... .. . ... : ... .. . ... ... : ... .. . ... ... : ... .. . ... ... : ... .. 3 ... ...
ROW FA : D#4 00 F ... ... ... : G-3 00 8 ... ... ... : D#3 00 . ... : 1-# 00 F ... : ... .. . ... ... : D-3 01 6 ... V03 : G-3 01 6 ... V03 : D#4 01 8 ... ...
ROW FB : ... .. E ... ... ... : ... .. 7 ... ... ... : ... .. . ... : ... .. C ... : ... .. . ... ... : ... .. 5 ... V01 : ... .. 5 ... V01 : ... .. 7 ... ...
ROW FC : ... .. D ... ... ... : ... .. . ... ... ... : ... .. . ... : ... .. 6 ... : ... .. . ... ... : ... .. . ... ... : ... .. . ... ... : ... .. 6 ... ...
ROW FD : ... .. A ... ... ... : ... .. 6 ... ... ... : ... .. . ... : ... .. 3 ... : ... .. . ... ... : ... .. . ... ... : ... .. . ... ... : ... .. 4 ... ...
ROW FE : ... .. . ... ... ... : ... .. 5 ... ... ... : ... .. . ... : ... .. 2 ... : ... .. . ... ... : ... .. . ... ... : ... .. . ... ... : ... .. 3 ... ...
ROW FF : ... .. . ... ... ... : ... .. 4 ... ... ... : D-3 00 . P75 : C-# 00 7 ... : ... .. . ... ... : ... .. . ... ... : ... .. . ... ... : ... .. 8 ... ...

PATTERN 10
ROW 00 : ... .. . ... ... ... : ... .. . ... ... ... : C-3 00 . P84 : ... .. 5 ... : ... .. . ... ... : ... .. . ... ... : ... .. . ... ... : ... .. 7 ... ...
ROW 01 : ... .. . ... ... ... : ... .. . ... ... ... : B-2 00 . P7D : ... .. 2 ... : ... .. . ... ... : ... .. 4 ... ... : ... .. 4 ... ... : ... .. 6 ... ...
ROW 02 : ... .. . ... ... ... : ... .. 3 ... ... ... : A#2 00 . P78 : ... .. 1 ... : ... .. . ... ... : ... .. . ... ... : ... .. . ... ... : ... .. 4 ... ...
ROW 03 : ... .. . ... ... ... : ... .. . ... ... ... : A-2 00 . P74 : ... .. . ... : ... .. . ... ... : ... .. . ... ... : ... .. . ... ... : ... .. 3 ... ...
ROW 04 : ... .. . ... ... ... : ... .. 2 ... ... ... : D#2 00 . P80 : ... .. F ... : ... .. . ... ... : ... .. . ... ... : ... .. . ... ... : G-3 01 8 ... ...
ROW 05 : ... .. . ... ... ... : ... .. . ... ... ... : ... .. . ... : ... .. C ... : ... .. . ... ... : ... .. . ... ... : ... .. . ... ... : ... .. 7 ... ...
ROW 06 : ... .. . ... ... ... : ... .. . ... ... ... : ... .. . ... : ... .. 6 ... : ... .. . ... ... : ... .. . ... ... : ... .. . ... ... : ... .. 6 ... ...
ROW 07 : ... .. . ... ... ... : ... .. 1 ... ... ... : ... .. . ... : ... .. 3 ... : ... .. . ... ... : ... .. 3 ... ... : ... .. 3 ... ... : ... .. 4 ... ...
ROW 08 : ... .. . ... ... ... : ... .. . ... ... ... : --- .. . ... : ... .. 2 ... : ... .. . ... ... : ... .. . ... ... : ... .. . ... ... : ... .. 3 ... ...
ROW 09 : ... .. . ... ... ... : ... .. . ... ... ... : D#2 00 . ... : 1-# 00 F ... : ... .. . ... ... : ... .. . ... ... : ... .. . ... ... : ... .. 8 ... ...
ROW 0A : ... .. . ... ... ... : ... .. 0 ... ... ... : ... .. . ... : ... .. C ... : ... .. . ... ... : ... .. . ... ... : ... .. . ... ... : ... .. 7 ... ...
ROW 0B : ... .. . ... ... ... : ... .. . ... ... ... : ... .. . ... : ... .. 6 ... : ... .. . ... ... : ... .. 2 ... ... : ... .. 2 ... ... : ... .. 6 ... ...
ROW 0C : ... .. . ... ... ... : ... .. . ... ... ... : ... .. . ... : ... .. 3 ... : ... .. . ... ... : ... .. . ... ... : ... .. . ... ... : ... .. 4 ... ...
ROW 0D : ... .. . ... ... ... : ... .. . ... ... ... : --- .. . ... : ... .. 2 ... : ... .. . ... ... : ... .. . ... ... : ... .. . ... ... : ... .. 3 ... ...
ROW 0E : ... .. . ... ... ... : ... .. . ... ... ... : D#2 00 . ... : 3-# 00 D ... : ... .. . ... ... : ... .. . ... ... : ... .. . ... ... : A-3 01 8 ... ...
ROW 0F : ... .. . ... ... ... : ... .. . ... ... ... : ... .. . ... : ... .. . ... : ... .. . ... ... : ... .. . ... ... : ... .. . ... ... : ... .. 7 ... ...
ROW 10 : ... .. . ... ... ... : ... .. . ... ... ... : ... .. . ... : F-# 00 D ... : ... .. . ... ... : ... .. . ... ... : ... .. . ... ... : ... .. 6 ... ...
ROW 11 : ... .. . ... ... ... : ... .. . ... ... ... : ... .. . ... : D-# 00 6 ... : ... .. . ... ... : ... .. . ... ... : ... .. . ... ... : ... .. 4 ... ...
ROW 12 : ... .. . ... ... ... : ... .. . ... ... ... : ... .. . ... : 9-# 00 1 ... : ... .. . ... ... : ... .. . ... ... : ... .. . ... ... : ... .. 3 ... ...
ROW 13 : ... .. . ... ... ... : ... .. . ... ... ... : ... .. . ... : ... .. 0 ... : ... .. . ... ... : ... .. . ... ... : ... .. . ... ... : ... .. 8 ... ...
ROW 14 : ... .. . ... ... ... : ... .. . ... ... ... : ... .. . ... : ... .. . ... : ... .. . ... ... : ... .. . ... ... : ... .. . ... ... : ... .. 7 ... ...
ROW 15 : ... .. . ... ... ... : ... .. . ... ... ... : ... .. . ... : ... .. . ... : ... .. . ... ... : ... .. . ... ... : ... .. . ... ... : ... .. 6 ... ...
ROW 16 : ... .. . ... ... ... : ... .. . ... ... ... : ... .. . ... : ... .. . ... : ... .. . ... ... : ... .. . ... ... : ... .. . ... ... : ... .. 4 ... ...
ROW 17 : ... .. 2 ... ... ... : ... .. . ... ... ... : --- .. . ... : ... .. . ... : ... .. . ... ... : ... .. . ... ... : ... .. . ... ... : ... .. 3 ... ...
ROW 18 : D-4 00 F ... ... ... : D-3 00 8 P81 ... ... : E-3 00 . ... : 1-# 00 F ... : ... .. . ... ... : F#3 01 6 ... V03 : B-2 01 6 ... V03 : B-3 01 A ... ...
ROW 19 : ... .. E ... ... ... : ... .. 7 ... ... ... : ... .. . ... : ... .. C ... : ... .. . ... ... : ... .. 5 ... V01 : ... .. 5 ... V01 : ... .. 8 ... ...
ROW 1A : ... .. D ... ... ... : ... .. . ... ... ... : ... .. . ... : ... .. 6 ... : ... .. . ... ... : ... .. . ... ... : ... .. . ... ... : ... .. 5 ... ...
ROW 1B : ... .. A ... ... ... : ... .. 6 ... ... ... : ... .. . ... : ... .. 3 ... : ... .. . ... ... : ... .. . ... ... : ... .. . ... ... : ... .. . ... ...
ROW 1C : ... .. . ... ... ... : ... .. 5 ... ... ... : ... .. . ... : ... .. 2 ... : ... .. . ... ... : ... .. . ... ... : ... .. . ... ... : ... .. . ... ...
ROW 1D : ... .. . ... ... ... : ... .. 8 ... ... ... : ... .. . ... : C-# 00 8 ... : ... .. . ... ... : ... .. . ... ... : ... .. . ... ... : ... .. . ... ...
ROW 1E : ... .. . ... ... ... : ... .. 7 ... ... ... : ... .. . ... : ... .. 6 ... : ... .. . ... ... : ... .. . ... ... : ... .. . ... ... : ... .. . ... ...
ROW 1F : ... .. . ... ... ... : ... .. . ... ... ... : ... .. . ... : ... .. 3 ... : ... .. . ... ... : ... .. 4 ... ... : ... .. 4 ... ... : ... .. . ... ...
ROW 20 : ... .. . ... ... ... : ... .. 6 ... ... ... : ... .. . ... : ... .. 1 ... : ... .. . ... ... : ... .. . ... ... : ... .. . ... ... : ... .. . ... ...
ROW 21 : ... .. . ... ... ... : ... .. 5 ... ... ... : --- .. . ... : ... .. . ... : ... .. . ... ... : ... .. . ... ... : ... .. . ... ... : ... .. . ... ...
ROW 22 : ... .. . ... ... ... : G-2 00 8 ... ... ... : E-2 00 . ... : ... .. F ... : ... .. . ... ... : G-3 01 6 ... V03 : D-3 01 6 ... V03 : ... .. . ... ...
ROW 23 : ... .. . ... ... ... : ... .. 7 ... ... ... : ... .. . ... : ... .. C ... : ... .. . ... ... : ... .. 5 ... V01 : ... .. 5 ... V01 : ... .. . ... ...
ROW 24 : ... .. . ... ... ... : ... .. . ... ... ... : ... .. . ... : ... .. 6 ... : ... .. . ... ... : ... .. . ... ... : ... .. . ... ... : ... .. . ... ...
ROW 25 : ... .. . ... ... ... : ... .. 6 ... ... ... : ... .. . ... : ... .. 3 ... : ... .. . ... ... : ... .. . ... ... : ... .. . ... ... : ... .. . ... ...
ROW 26 : ... .. . ... ... ... : ... .. 5 ... ... ... : --- .. . ... : ... .. 2 ... : ... .. . ... ... : ... .. . ... ... : ... .. . ... ... : ... .. . ... ...
ROW 27 : ... .. . ... ... ... : ... .. 8 ... ... ... : E-2 00 . ... : 1-# 00 F ... : ... .. . ... ... : ... .. . ... ... : ... .. . ... ... : ... .. . ... ...
ROW 28 : ... .. . ... ... ... : ... .. 7 ... ... ... : ... .. . ... : ... .. C ... : ... .. . ... ... : ... .. . ... ... : ... .. . ... ... : ... .. . ... ...
ROW 29 : ... .. . ... ... ... : ... .. . ... ... ... : ... .. . ... : ... .. 6 ... : ... .. . ... ... : ... .. 4 ... ... : ... .. 4 ... ... : ... .. . ... ...
ROW 2A : ... .. . ... ... ... : ... .. 6 ... ... ... : ... .. . ... : ... .. 3 ... : ... .. . ... ... : ... .. . ... ... : ... .. . ... ... : ... .. . ... ...
ROW 2B : ... .. . ... ... ... : ... .. 5 ... ... ... : --- .. . ... : ... .. 2 ... : ... .. . ... ... : ... .. . ... ... : ... .. . ... ... : ... .. . ... ...
ROW 2C : ... .. . ... ... ... : A-2 00 8 ... ... ... : E-2 00 . ... : 3-# 00 D ... : ... .. . ... ... : A-3 01 6 ... V03 : G-2 01 6 ... V03 : ... .. . ... ...
ROW 2D : ... .. . ... ... ... : ... .. 7 ... ... ... : ... .. . ... : ... .. . ... : ... .. . ... ... : ... .. 5 ... V01 : ... .. 5 ... V01 : ... .. . ... ...
ROW 2E : ... .. . ... ... ... : ... .. . ... ... ... : ... .. . ... : F-# 00 D ... : ... .. . ... ... : ... .. . ... ... : ... .. . ... ... : ... .. . ... ...
ROW 2F : ... .. . ... ... ... : ... .. 6 ... ... ... : ... .. . ... : D-# 00 6 ... : ... .. . ... ... : ... .. . ... ... : ... .. . ... ... : ... .. . ... ...
ROW 30 : ... .. . ... ... ... : ... .. 5 ... ... ... : --- .. . ... : 9-# 00 1 ... : ... .. . ... ... : ... .. . ... ... : ... .. . ... ... : ... .. . ... ...
ROW 31 : ... .. . ... ... ... : ... .. 8 ... ... ... : E-2 00 . ... : ... .. 0 ... : ... .. . ... ... : ... .. . ... ... : ... .. . ... ... : ... .. . ... ...
ROW 32 : ... .. . ... ... ... : ... .. 7 ... ... ... : ... .. . ... : ... .. . ... : ... .. . ... ... : ... .. . ... ... : ... .. . ... ... : ... .. . ... ...
ROW 33 : ... .. . ... ... ... : ... .. . ... ... ... : ... .. . ... : ... .. . ... : ... .. . ... ... : ... .. 4 ... ... : ... .. 4 ... ... : ... .. . ... ...
ROW 34 : ... .. . ... ... ... : ... .. 6 ... ... ... : ... .. . ... : ... .. . ... : ... .. . ... ... : ... .. . ... ... : ... .. . ... ... : ... .. . ... ...
ROW 35 : ... .. . ... ... ... : ... .. 5 ... ... ... : --- .. . ... : ... .. . ... : ... .. . ... ... : ... .. . ... ... : ... .. . ... ... : ... .. . ... ...
ROW 36 : ... .. . ... ... ... : B-2 00 8 ... ... ... : E-3 00 . ... : 1-# 00 F ... : ... .. . ... ... : D-3 01 6 ... V03 : A-2 01 6 ... V03 : A-3 01 A ... ...
ROW 37 : ... .. . ... ... ... : ... .. 7 ... ... ... : ... .. . ... : ... .. C ... : ... .. . ... ... : ... .. 5 ... V01 : ... .. 5 ... V01 : ... .. 8 ... ...
ROW 38 : ... .. . ... ... ... : ... .. . ... ... ... : ... .. . ... : ... .. 6 ... : ... .. . ... ... : ... .. . ... ... : ... .. . ... ... : ... .. 5 ... ...
ROW 39 : ... .. . ... ... ... : ... .. 6 ... ... ... : ... .. . ... : ... .. 3 ... : ... .. . ... ... : ... .. . ... ... : ... .. . ... ... : ... .. . ... ...
ROW 3A : ... .. . ... ... ... : ... .. 5 ... ... ... : ... .. . ... : ... .. 2 ... : ... .. . ... ... : ... .. . ... ... : ... .. . ... ... : ... .. . ... ...
ROW 3B : ... .. . ... ... ... : ... .. 8 ... ... ... : ... .. . ... : C-# 00 7 ... : ... .. . ... ... : ... .. . ... ... : ... .. . ... ... : ... .. . ... ...
ROW 3C : ... .. . ... ... ... : ... .. 7 ... ... ... : ... .. . ... : ... .. 5 ... : ... .. . ... ... : ... .. . ... ... : ... .. . ... ... : ... .. . ... ...
ROW 3D : ... .. . ... ... ... : ... .. . ... ... ... : ... .. . ... : ... .. 2 ... : ... .. . ... ... : ... .. 4 ... ... : ... .. 4 ... ... : ... .. . ... ...
ROW 3E : ... .. . ... ... ... : ... .. 6 ... ... ... : --- .. . ... : ... .. 1 ... : ... .. . ... ... : ... .. . ... ... : ... .. . ... ... : ... .. . ... ...
ROW 3F : ... .. . ... ... ... : ... .. 5 ... ... ... : ... .. . ... : ... .. . ... : ... .. . ... ... : ... .. . ... ... : ... .. . ... ... : ... .. . ... ...
ROW 40 : ... .. . ... ... ... : D-3 00 8 ... ... ... : E-2 00 . ... : 1-# 00 F ... : ... .. . ... ... : F#3 01 6 ... V03 : G-2 01 6 ... V03 : ... .. . ... ...
ROW 41 : ... .. . ... ... ... : ... .. 7 ... ... ... : ... .. . ... : ... .. C ... : ... .. . ... ... : ... .. 5 ... V01 : ... .. 5 ... V01 : ... .. . ... ...
ROW 42 : ... .. . ... ... ... : ... .. . ... ... ... : ... .. . ... : ... .. 6 ... : ... .. . ... ... : ... .. . ... ... : ... .. . ... ... : ... .. . ... ...
ROW 43 : ... .. . ... ... ... : ... .. 6 ... ... ... : ... .. . ... : ... .. 3 ... : ... .. . ... ... : ... .. . ... ... : ... .. . ... ... : ... .. . ... ...
ROW 44 : ... .. . ... ... ... : ... .. 5 ... ... ... : --- .. . ... : ... .. 2 ... : ... .. . ... ... : ... .. . ... ... : ... .. . ... ... : ... .. . ... ...
ROW 45 : ... .. . P84 ... ... : ... .. 8 ... ... ... : E-2 00 . ... : C-# 00 8 ... : ... .. . ... ... : ... .. . ... ... : ... .. . ... ... : ... .. . ... ...
ROW 46 : D#4 00 A P7C ... ... : ... .. 7 ... ... ... : ... .. . ... : ... .. 6 ... : ... .. . ... ... : ... .. . ... ... : ... .. . ... ... : ... .. . ... ...
ROW 47 : D-4 00 A P85 ... ... : ... .. . ... ... ... : ... .. . ... : ... .. 3 ... : ... .. . ... ... : ... .. 4 ... ... : ... .. 4 ... ... : ... .. . ... ...
ROW 48 : ... .. . P82 ... ... : ... .. 6 ... ... ... : ... .. . ... : ... .. 1 ... : ... .. . ... ... : ... .. . ... ... : ... .. . ... ... : ... .. . ... ...
ROW 49 : ... .. . P7E ... ... : ... .. 5 ... ... ... : --- .. . ... : ... .. . ... : ... .. . ... ... : ... .. . ... ... : ... .. . ... ... : ... .. . ... ...
ROW 4A : ... .. . P7B ... ... : F#3 00 8 ... ... ... : E-2 00 . ... : ... .. F ... : ... .. . ... ... : G-3 01 6 ... V03 : A-2 01 6 ... V03 : ... .. . ... ...
ROW 4B : C#4 00 A P86 ... ... : ... .. 7 ... ... ... : ... .. . ... : ... .. C ... : ... .. . ... ... : ... .. 5 ... V01 : ... .. 5 ... V01 : ... .. . ... ...
ROW 4C : D-4 00 A P7C ... ... : ... .. . ... ... ... : ... .. . ... : ... .. 6 ... : ... .. . ... ... : ... .. . ... ... : ... .. . ... ... : ... .. . ... ...
ROW 4D : ... .. . P80 ... ... : ... .. 6 ... ... ... : ... .. . ... : ... .. 3 ... : ... .. . ... ... : ... .. . ... ... : ... .. . ... ... : ... .. . ... ...
ROW 4E : ... .. . P83 ... ... : ... .. 5 ... ... ... : --- .. . ... : ... .. 2 ... : ... .. . ... ... : ... .. . ... ... : ... .. . ... ... : ... .. . ... ...
ROW 4F : D#4 00 A P7C ... ... : ... .. 8 ... ... ... : E-2 00 . ... : 1-# 00 F ... : ... .. . ... ... : ... .. . ... ... : ... .. . ... ... : ... .. . ... ...
ROW 50 : ... .. . ... ... ... : ... .. 7 ... ... ... : ... .. . ... : ... .. C ... : ... .. . ... ... : ... .. . ... ... : ... .. . ... ... : ... .. . ... ...
ROW 51 : D-4 00 A P82 ... ... : ... .. . ... ... ... : ... .. . ... : ... .. 6 ... : ... .. . ... ... : ... .. 4 ... ... : ... .. 4 ... ... : ... .. . ... ...
ROW 52 : ... .. . P7F ... ... : ... .. 6 ... ... ... : ... .. . ... : ... .. 3 ... : ... .. . ... ... : ... .. . ... ... : ... .. . ... ... : ... .. . ... ...
ROW 53 : ... .. . P7B ... ... : ... .. 5 ... ... ... : --- .. . ... : ... .. 2 ... : ... .. . ... ... : ... .. . ... ... : ... .. . ... ... : ... .. . ... ...
ROW 54 : C#4 00 A P86 ... ... : G-3 00 8 ... ... ... : E-3 00 . ... : 3-# 00 D ... : ... .. . ... ... : A-3 01 6 ... V03 : B-2 01 6 ... V03 : F#3 01 A ... ...
ROW 55 : D-4 00 2 P7C ... ... : ... .. 7 ... ... ... : ... .. . ... : ... .. . ... : ... .. . ... ... : ... .. 5 ... V01 : ... .. 5 ... V01 : ... .. 8 ... ...
ROW 56 : ... .. . P80 ... ... : ... .. . ... ... ... : ... .. . ... : F-# 00 D ... : ... .. . ... ... : ... .. . ... ... : ... .. . ... ... : ... .. 5 ... ...
ROW 57 : ... .. . P83 ... ... : ... .. 6 ... ... ... : ... .. . ... : D-# 00 6 ... : ... .. . ... ... : ... .. . ... ... : ... .. . ... ... : ... .. . ... ...
ROW 58 : D#4 00 1 P7C ... ... : ... .. 5 ... ... ... : ... .. . ... : 9-# 00 1 ... : ... .. . ... ... : ... .. . ... ... : ... .. . ... ... : ... .. . ... ...
ROW 59 : ... .. . ... ... ... : ... .. 8 ... ... ... : ... .. . ... : ... .. 0 ... : ... .. . ... ... : ... .. . ... ... : ... .. . ... ... : G-3 01 A ... ...
ROW 5A : D-4 00 1 P83 ... ... : ... .. 7 ... ... ... : ... .. . ... : ... .. . ... : ... .. . ... ... : ... .. . ... ... : ... .. . ... ... : ... .. 8 ... ...
ROW 5B : ... .. 0 ... ... ... : ... .. . ... ... ... : ... .. . ... : ... .. . ... : ... .. . ... ... : ... .. 4 ... ... : ... .. 4 ... ... : ... .. 5 ... ...
ROW 5C : ... .. . ... ... ... : ... .. 6 ... ... ... : ... .. . ... : ... .. . ... : ... .. . ... ... : ... .. . ... ... : ... .. . ... ... : ... .. . ... ...
ROW 5D : ... .. . ... ... ... : ... .. 5 ... ... ... : --- .. . ... : ... .. . ... : ... .. . ... ... : ... .. . ... ... : ... .. . ... ... : ... .. . ... ...
ROW 5E : ... .. . ... ... ... : A-3 00 8 ... ... ... : E-2 00 . ... : 1-# 00 F ... : ... .. . ... ... : D-4 01 6 ... V03 : D-3 01 6 ... V03 : A-3 01 A ... ...
ROW 5F : ... .. . ... ... ... : ... .. 7 ... ... ... : ... .. . ... : ... .. C ... : ... .. . ... ... : ... .. 5 ... V01 : ... .. 5 ... V01 : ... .. 8 ... ...
ROW 60 : ... .. . ... ... ... : ... .. . ... ... ... : ... .. . ... : ... .. 6 ... : ... .. . ... ... : ... .. . ... ... : ... .. . ... ... : ... .. 5 ... ...
ROW 61 : ... .. . ... ... ... : ... .. 6 ... ... ... : ... .. . ... : ... .. 3 ... : ... .. . ... ... : ... .. . ... ... : ... .. . ... ... : ... .. . ... ...
ROW 62 : ... .. . ... ... ... : ... .. 5 ... ... ... : --- .. . ... : ... .. 2 ... : ... .. . ... ... : ... .. . ... ... : ... .. . ... ... : ... .. . ... ...
ROW 63 : ... .. . ... ... ... : ... .. 8 ... ... ... : E-2 00 . ... : C-# 00 7 ... : ... .. . ... ... : ... .. . ... ... : ... .. . ... ... : B-3 01 A ... ...
ROW 64 : ... .. . ... ... ... : ... .. 7 ... ... ... : ... .. . ... : ... .. 5 ... : ... .. . ... ... : ... .. . ... ... : ... .. . ... ... : ... .. 8 ... ...
ROW 65 : ... .. . ... ... ... : ... .. . ... ... ... : ... .. . ... : ... .. 2 ... : ... .. . ... ... : ... .. 4 ... ... : ... .. 4 ... ... : ... .. 5 ... ...
ROW 66 : ... .. . ... ... ... : ... .. 6 ... ... ... : ... .. . ... : ... .. 1 ... : ... .. . ... ... : ... .. . ... ... : ... .. . ... ... : ... .. . ... ...
ROW 67 : ... .. . ... ... ... : ... .. 5 ... ... ... : --- .. . ... : ... .. . ... : ... .. . ... ... : ... .. . ... ... : ... .. . ... ... : ... .. . ... ...
ROW 68 : F#2 00 F P80 ... ... : F#3 00 8 ... ... ... : E-2 00 . ... : ... .. F ... : ... .. . ... ... : F#4 01 6 ... V03 : ... .. 6 ... V03 : D-4 01 A ... ...
ROW 69 : ... .. E ... ... ... : ... .. 7 ... ... ... : ... .. . ... : ... .. C ... : ... .. . ... ... : ... .. 5 ... V01 : ... .. 5 ... V01 : ... .. 8 ... ...
ROW 6A : ... .. D ... ... ... : ... .. . ... ... ... : ... .. . ... : ... .. 6 ... : ... .. . ... ... : ... .. . ... ... : ... .. . ... ... : ... .. 5 ... ...
ROW 6B : ... .. 9 ... ... ... : ... .. 6 ... ... ... : ... .. . ... : ... .. 3 ... : ... .. . ... ... : ... .. . ... ... : ... .. . ... ... : ... .. . ... ...
ROW 6C : ... .. . ... ... ... : ... .. 5 ... ... ... : --- .. . ... : ... .. 2 ... : ... .. . ... ... : ... .. . ... ... : ... .. . ... ... : ... .. . ... ...
ROW 6D : G-2 00 E ... ... ... : ... .. 8 ... ... ... : E-2 00 . ... : 1-# 00 F ... : ... .. . ... ... : G-4 01 6 ... V03 : C#3 01 6 ... V03 : F#4 01 A ... ...
ROW 6E : ... .. D ... ... ... : ... .. 7 ... ... ... : ... .. . ... : ... .. C ... : ... .. . ... ... : ... .. 5 ... V01 : ... .. 5 ... V01 : ... .. 8 ... ...
ROW 6F : ... .. C ... ... ... : ... .. . ... ... ... : ... .. . ... : ... .. 6 ... : ... .. . ... ... : ... .. . ... ... : ... .. . ... ... : ... .. 5 ... ...
ROW 70 : ... .. 8 ... ... ... : ... .. 6 ... ... ... : ... .. . ... : ... .. 3 ... : ... .. . ... ... : ... .. . ... ... : ... .. . ... ... : ... .. . ... ...
ROW 71 : ... .. . ... ... ... : ... .. 5 ... ... ... : --- .. . ... : ... .. 2 ... : ... .. . ... ... : ... .. . ... ... : ... .. . ... ... : ... .. . ... ...
ROW 72 : A-2 00 D ... ... ... : G-3 00 8 ... ... ... : E-3 00 . ... : 3-# 00 D ... : ... .. . ... ... : F#4 01 6 ... V03 : D-3 01 6 ... V03 : G-4 01 A ... ...
ROW 73 : ... .. C ... ... ... : ... .. 7 ... ... ... : ... .. . ... : ... .. . ... : ... .. . ... ... : ... .. 5 ... V01 : ... .. 5 ... V01 : ... .. 8 ... ...
ROW 74 : ... .. B ... ... ... : ... .. . ... ... ... : ... .. . ... : F-# 00 D ... : ... .. . ... ... : ... .. . ... ... : ... .. . ... ... : ... .. 5 ... ...
ROW 75 : ... .. 8 ... ... ... : ... .. 6 ... ... ... : ... .. . ... : D-# 00 6 ... : ... .. . ... ... : ... .. . ... ... : ... .. . ... ... : ... .. . ... ...
ROW 76 : ... .. . ... ... ... : ... .. 5 ... ... ... : ... .. . ... : 9-# 00 1 ... : ... .. . ... ... : ... .. . ... ... : ... .. . ... ... : ... .. . ... ...
ROW 77 : D-3 00 C ... ... ... : ... .. 8 ... ... ... : ... .. . ... : ... .. 0 ... : ... .. . ... ... : D-4 01 6 ... V03 : F#3 01 6 ... V03 : ... .. . ... ...
ROW 78 : ... .. B ... ... ... : ... .. 7 ... ... ... : ... .. . ... : ... .. . ... : ... .. . ... ... : ... .. 5 ... V01 : ... .. 5 ... V01 : ... .. . ... ...
ROW 79 : ... .. A ... ... ... : ... .. . ... ... ... : ... .. . ... : ... .. . ... : ... .. . ... ... : ... .. . ... ... : ... .. . ... ... : ... .. . ... ...
ROW 7A : ... .. 7 ... ... ... : ... .. 6 ... ... ... : ... .. . ... : ... .. . ... : ... .. . ... ... : ... .. . ... ... : ... .. . ... ... : ... .. . ... ...
ROW 7B : ... .. . ... ... ... : ... .. 5 ... ... ... : --- .. . ... : ... .. . ... : ... .. . ... ... : ... .. . ... ... : ... .. . ... ... : ... .. . ... ...
ROW 7C : F#3 00 B ... ... ... : A-3 00 8 ... ... ... : G-3 00 . ... : 4-# 00 D ... : ... .. . ... ... : A-3 01 6 ... V03 : G-3 01 6 ... V03 : ... .. . ... ...
ROW 7D : ... .. A ... ... ... : ... .. 7 ... ... ... : ... .. . ... : ... .. . ... : ... .. . ... ... : ... .. 5 ... V01 : ... .. 5 ... V01 : ... .. . ... ...
ROW 7E : ... .. 9 ... ... ... : ... .. . ... ... ... : ... .. . ... : 0-# 00 D ... : ... .. . ... ... : ... .. . ... ... : ... .. . ... ... : ... .. . ... ...
ROW 7F : ... .. 7 ... ... ... : ... .. 6 ... ... ... : ... .. . ... : E-# 00 6 ... : ... .. . ... ... : ... .. . ... ... : ... .. . ... ... : ... .. . ... ...
ROW 80 : ... .. . ... ... ... : ... .. 5 ... ... ... : --- .. . ... : A-# 00 1 ... : ... .. . ... ... : ... .. . ... ... : ... .. . ... ... : ... .. . ... ...
ROW 81 : G-3 00 A ... ... ... : ... .. 8 ... ... ... : G-3 00 . ... : 4-# 00 D ... : ... .. . ... ... : G-3 01 6 ... V03 : A-3 01 6 ... V03 : ... .. . P84 ...
ROW 82 : ... .. 9 ... ... ... : ... .. 7 ... ... ... : ... .. . ... : ... .. . ... : ... .. . ... ... : ... .. 5 ... V01 : ... .. 5 ... V01 : G#4 01 5 P7D ...
ROW 83 : ... .. 8 ... ... ... : ... .. . ... ... ... : ... .. . ... : 0-# 00 D ... : ... .. . ... ... : ... .. . ... ... : ... .. . ... ... : ... .. . P7C ...
ROW 84 : ... .. 6 ... ... ... : ... .. 6 ... ... ... : ... .. . ... : E-# 00 6 ... : ... .. . ... ... : ... .. . ... ... : ... .. . ... ... : G-4 01 5 P82 ...
ROW 85 : ... .. . ... ... ... : ... .. 5 ... ... ... : --- .. . ... : A-# 00 1 ... : ... .. . ... ... : ... .. . ... ... : ... .. . ... ... : ... .. . P7E ...
ROW 86 : A-3 00 9 ... ... ... : D-4 00 8 ... ... ... : F#3 00 . ... : B-# 00 D ... : ... .. . ... ... : F#3 01 6 ... V03 : G-3 01 6 ... V03 : F#4 01 5 P85 ...
ROW 87 : ... .. 8 ... ... ... : ... .. 7 ... ... ... : ... .. . ... : ... .. . ... : ... .. . ... ... : ... .. 5 ... V01 : ... .. 5 ... V01 : ... .. . P84 ...
ROW 88 : ... .. 7 ... ... ... : ... .. . ... ... ... : ... .. . ... : 7-# 00 D ... : ... .. . ... ... : ... .. . ... ... : ... .. . ... ... : G-4 01 5 P7C ...
ROW 89 : ... .. 6 ... ... ... : ... .. 6 ... ... ... : ... .. . ... : 5-# 00 6 ... : ... .. . ... ... : ... .. . ... ... : ... .. . ... ... : ... .. . P80 ...
ROW 8A : ... .. . ... ... ... : ... .. 5 ... ... ... : --- .. . ... : 1-# 00 1 ... : ... .. . ... ... : ... .. . ... ... : ... .. . ... ... : ... .. . P83 ...
ROW 8B : F#4 00 8 ... ... ... : ... .. 8 ... ... ... : F#3 00 . ... : B-# 00 D ... : ... .. . ... ... : D-3 01 6 ... V03 : F#3 01 6 ... V03 : G#4 01 5 P7D ...
ROW 8C : ... .. 7 ... ... ... : ... .. 7 ... ... ... : ... .. . ... : ... .. . ... : ... .. . ... ... : ... .. 5 ... V01 : ... .. 5 ... V01 : ... .. . ... ...
ROW 8D : ... .. 6 ... ... ... : ... .. . ... ... ... : ... .. . ... : 7-# 00 D ... : ... .. . ... ... : ... .. . ... ... : ... .. . ... ... : G-4 01 5 P82 ...
ROW 8E : ... .. 5 ... ... ... : ... .. 6 ... ... ... : ... .. . ... : 5-# 00 6 ... : ... .. . ... ... : ... .. . ... ... : ... .. . ... ... : ... .. . P7F ...
ROW 8F : ... .. . ... ... ... : ... .. 5 ... ... ... : --- .. . ... : 1-# 00 1 ... : ... .. . ... ... : ... .. . ... ... : ... .. . ... ... : F#4 01 5 P85 ...
ROW 90 : G-4 00 8 ... ... ... : F#4 00 8 ... ... ... : A-3 00 . ... : 3-# 00 D ... : ... .. . ... ... : A-2 01 6 ... V03 : G-3 01 6 ... V03 : ... .. . P84 ...
ROW 91 : ... .. 7 ... ... ... : ... .. 7 ... ... ... : ... .. . ... : ... .. . ... : ... .. . ... ... : ... .. 5 ... V01 : ... .. 5 ... V01 : G-4 01 5 P7C ...
ROW 92 : ... .. 6 ... ... ... : ... .. . ... ... ... : ... .. . ... : F-# 00 D ... : ... .. . ... ... : ... .. . ... ... : ... .. . ... ... : ... .. . P80 ...
ROW 93 : ... .. 5 ... ... ... : ... .. 6 ... ... ... : ... .. . ... : D-# 00 6 ... : ... .. . ... ... : ... .. . ... ... : ... .. . ... ... : ... .. . P83 ...
ROW 94 : ... .. . ... ... ... : ... .. 5 ... ... ... : --- .. . ... : 9-# 00 1 ... : ... .. . ... ... : ... .. . ... ... : ... .. . ... ... : G#4 01 5 P7D ...
ROW 95 : A-4 00 9 ... ... ... : ... .. 8 ... ... ... : A-3 00 . ... : 3-# 00 D ... : ... .. . ... ... : G-2 01 6 ... V03 : A-3 01 6 ... V03 : ... .. . ... ...
ROW 96 : ... .. 8 ... ... ... : ... .. 7 ... ... ... : ... .. . ... : ... .. . ... : ... .. . ... ... : ... .. 5 ... V01 : ... .. 5 ... V01 : G-4 01 5 P83 ...
ROW 97 : ... .. 7 ... ... ... : ... .. . ... ... ... : ... .. . ... : F-# 00 D ... : ... .. . ... ... : ... .. . ... ... : ... .. . ... ... : ... .. . P80 ...
ROW 98 : ... .. 6 ... ... ... : ... .. 6 ... ... ... : ... .. . ... : D-# 00 6 ... : ... .. . ... ... : ... .. . ... ... : ... .. . ... ... : ... .. . P7C ...
ROW 99 : ... .. . ... ... ... : ... .. 5 ... ... ... : --- .. . ... : 9-# 00 1 ... : ... .. . ... ... : ... .. . ... ... : ... .. . ... ... : F#4 01 5 P84 ...
ROW 9A : D-5 00 A ... ... ... : G-4 00 8 ... ... ... : D-4 00 . ... : 2-# 00 F ... : ... .. . ... ... : F#2 01 6 ... V03 : B-3 01 6 ... V03 : ... .. . P85 ...
ROW 9B : ... .. 9 ... ... ... : ... .. 7 ... ... ... : ... .. . ... : ... .. C ... : ... .. . ... ... : ... .. 5 ... V01 : ... .. 5 ... V01 : G-4 01 5 P7F ...
ROW 9C : ... .. 8 ... ... ... : ... .. . ... ... ... : ... .. . ... : ... .. 6 ... : ... .. . ... ... : ... .. . ... ... : ... .. . ... ... : ... .. . P82 ...
ROW 9D : ... .. 6 ... ... ... : ... .. 6 ... ... ... : ... .. . ... : ... .. 3 ... : ... .. . ... ... : ... .. . ... ... : ... .. . ... ... : G#4 01 5 P7D ...
ROW 9E : ... .. . ... ... ... : ... .. 5 ... ... ... : --- .. . ... : ... .. 2 ... : ... .. . ... ... : ... .. . ... ... : ... .. . ... ... : ... .. . ... ...
ROW 9F : F#5 00 B ... ... ... : ... .. 8 ... ... ... : D-4 00 . ... : ... .. F ... : ... .. . ... ... : G-2 01 6 ... V03 : D-4 01 6 ... V03 : G-4 01 5 P83 ...
ROW A0 : ... .. A ... ... ... : ... .. 7 ... ... ... : ... .. . ... : ... .. C ... : ... .. . ... ... : ... .. 5 ... V01 : ... .. 5 ... V01 : ... .. . P80 ...
ROW A1 : ... .. 9 ... ... ... : ... .. . ... ... ... : ... .. . ... : ... .. 6 ... : ... .. . ... ... : ... .. . ... ... : ... .. . ... ... : ... .. . P7C ...
ROW A2 : ... .. 7 ... ... ... : ... .. 6 ... ... ... : ... .. . ... : ... .. 3 ... : ... .. . ... ... : ... .. . ... ... : ... .. . ... ... : F#4 01 5 P84 ...
ROW A3 : ... .. . ... ... ... : ... .. 5 ... ... ... : --- .. . ... : ... .. 2 ... : ... .. . ... ... : ... .. . ... ... : ... .. . ... ... : ... .. . P85 ...
ROW A4 : G-5 00 C ... ... ... : A-4 00 8 ... ... ... : F#4 00 . ... : 8-# 00 F ... : ... .. . ... ... : A-2 01 6 ... V03 : F#4 01 6 ... V03 : G-4 01 5 P7E ...
ROW A5 : ... .. B ... ... ... : ... .. 7 ... ... ... : ... .. . ... : ... .. C ... : ... .. . ... ... : ... .. 5 ... V01 : ... .. 5 ... V01 : ... .. . P82 ...
ROW A6 : ... .. A ... ... ... : ... .. . ... ... ... : ... .. . ... : ... .. 6 ... : ... .. . ... ... : ... .. . ... ... : ... .. . ... ... : G#4 01 5 P7C ...
ROW A7 : ... .. 8 ... ... ... : ... .. 6 ... ... ... : ... .. . ... : ... .. 3 ... : ... .. . ... ... : ... .. . ... ... : ... .. . ... ... : ... .. . P7D ...
ROW A8 : ... .. . ... ... ... : ... .. 5 ... ... ... : --- .. . ... : ... .. 2 ... : ... .. . ... ... : ... .. . ... ... : ... .. . ... ... : G-4 01 5 P84 ...
ROW A9 : A-5 00 D ... ... ... : ... .. 8 ... ... ... : F#4 00 . ... : ... .. F ... : ... .. . ... ... : D-3 01 6 ... V03 : G-4 01 6 ... V03 : ... .. . P80 ...
ROW AA : ... .. C ... ... ... : ... .. 7 ... ... ... : ... .. . ... : ... .. C ... : ... .. . ... ... : ... .. 5 ... V01 : ... .. 5 ... V01 : ... .. . P7D ...
ROW AB : ... .. B ... ... ... : ... .. . ... ... ... : ... .. . ... : ... .. 6 ... : ... .. . ... ... : ... .. . ... ... : ... .. . ... ... : F#4 01 5 P84 ...
ROW AC : ... .. 8 ... ... ... : ... .. 6 ... ... ... : ... .. . ... : ... .. 3 ... : ... .. . ... ... : ... .. . ... ... : ... .. . ... ... : ... .. . ... ...
ROW AD : ... .. . ... ... ... : ... .. 5 ... ... ... : --- .. . ... : ... .. 2 ... : ... .. . ... ... : ... .. . ... ... : ... .. . ... ... : G-4 01 5 P7E ...
ROW AE : D-6 00 E ... ... ... : D-5 00 8 ... ... ... : G-4 00 . ... : F-# 00 F ... : ... .. . ... ... : F#3 01 6 ... V03 : A-4 01 6 ... V03 : ... .. . P81 ...
ROW AF : ... .. D ... ... ... : ... .. 7 ... ... ... : ... .. . ... : ... .. C ... : ... .. . ... ... : ... .. 5 ... V01 : ... .. 5 ... V01 : G#4 01 5 P7C ...
ROW B0 : ... .. C ... ... ... : ... .. . ... ... ... : ... .. . ... : ... .. 6 ... : ... .. . ... ... : ... .. . ... ... : ... .. . ... ... : ... .. . P7D ...
ROW B1 : ... .. 9 ... ... ... : ... .. 6 ... ... ... : ... .. . ... : ... .. 3 ... : ... .. . ... ... : ... .. . ... ... : ... .. . ... ... : --- .. . ... ...
ROW B2 : ... .. . ... ... ... : ... .. 5 ... ... ... : --- .. . ... : ... .. 2 ... : ... .. . ... ... : ... .. . ... ... : ... .. . ... ... : ... .. . ... ...
ROW B3 : A-6 00 F ... ... ... : ... .. 8 ... ... ... : G-4 00 . ... : ... .. F ... : ... .. . ... ... : G-3 01 6 ... V03 : D-5 01 6 ... V03 : ... .. . ... ...
ROW B4 : ... .. E ... ... ... : ... .. 7 ... ... ... : ... .. . ... : ... .. C ... : ... .. . ... ... : ... .. 5 ... V01 : ... .. 5 ... V01 : ... .. . ... ...
ROW B5 : ... .. D ... ... ... : ... .. . ... ... ... : ... .. . ... : ... .. 6 ... : ... .. . ... ... : ... .. . ... ... : ... .. . ... ... : ... .. . ... ...
ROW B6 : ... .. A ... ... ... : ... .. 6 ... ... ... : ... .. . ... : ... .. 3 ... : ... .. . ... ... : ... .. . ... ... : ... .. . ... ... : ... .. . ... ...
ROW B7 : ... .. . ... ... ... : ... .. 5 ... ... ... : --- .. . ... : ... .. 2 ... : ... .. . ... ... : ... .. . ... ... : ... .. . ... ... : ... .. . ... ...
ROW B8 : A-4 00 F ... ... ... : F-3 00 C ... ... ... : D#3 00 . ... : 1-# 00 F ... : ... .. . Z00 ... : D-5 01 9 ... V03 : D-4 01 9 ... V03 : D-4 01 8 P80 ...
ROW B9 : ... .. E ... ... ... : ... .. B ... ... ... : ... .. . ... : ... .. C ... : ... .. . ... ... : ... .. 8 ... V01 : ... .. 8 ... V01 : ... .. 7 ... ...
ROW BA : ... .. D ... ... ... : ... .. A ... ... ... : ... .. . ... : ... .. 6 ... : ... .. . ... ... : ... .. . ... ... : ... .. . ... ... : ... .. 6 ... ...
ROW BB : ... .. A ... ... ... : ... .. 8 ... ... ... : ... .. . ... : ... .. 3 ... : ... .. . ... ... : ... .. . ... ... : ... .. . ... ... : ... .. 4 ... ...
ROW BC : ... .. . ... ... ... : ... .. . ... ... ... : ... .. . ... : ... .. 2 ... : ... .. . ... ... : ... .. . ... ... : ... .. . ... ... : ... .. 3 ... ...
ROW BD : ... .. . ... ... ... : ... .. . ... ... ... : D-3 00 . P75 : C-# 00 8 ... : ... .. . ... ... : ... .. . ... ... : ... .. . ... ... : ... .. 8 ... ...
ROW BE : ... .. . ... ... ... : ... .. . ... ... ... : C-3 00 . P84 : ... .. 6 ... : ... .. . ... ... : ... .. . ... ... : ... .. . ... ... : ... .. 7 ... ...
ROW BF : ... .. . ... ... ... : ... .. . ... ... ... : B-2 00 . P7D : ... .. 3 ... : ... .. . ... ... : ... .. 7 ... ... : ... .. 7 ... ... : ... .. 6 ... ...
ROW C0 : ... .. . ... ... ... : ... .. . ... ... ... : A#2 00 . P78 : ... .. 1 ... : ... .. . ... ... : ... .. . ... ... : ... .. . ... ... : ... .. 4 ... ...
ROW C1 : ... .. . ... ... ... : ... .. . ... ... ... : A-2 00 . P74 : ... .. . ... : ... .. . ... ... : ... .. . ... ... : ... .. . ... ... : ... .. 3 ... ...
ROW C2 : ... .. . ... ... ... : ... .. . ... ... ... : D#2 00 . P80 : ... .. F ... : ... .. . ... ... : ... .. . ... ... : ... .. . ... ... : F-3 01 8 ... ...
ROW C3 : ... .. . ... ... ... : ... .. . ... ... ... : ... .. . ... : ... .. C ... : ... .. . ... ... : ... .. 6 ... ... : ... .. 6 ... ... : ... .. 7 ... ...
ROW C4 : ... .. . ... ... ... : ... .. . ... ... ... : ... .. . ... : ... .. 6 ... : ... .. . ... ... : ... .. . ... ... : ... .. . ... ... : ... .. 6 ... ...
ROW C5 : ... .. . ... ... ... : ... .. . ... ... ... : ... .. . ... : ... .. 3 ... : ... .. . ... ... : ... .. 5 ... ... : ... .. 5 ... ... : ... .. 4 ... ...
ROW C6 : ... .. . ... ... ... : ... .. . ... ... ... : --- .. . ... : ... .. 2 ... : ... .. . ... ... : ... .. . ... ... : ... .. . ... ... : ... .. 3 ... ...
ROW C7 : ... .. . ... ... ... : ... .. . ... ... ... : D#2 00 . ... : 1-# 00 F ... : ... .. . ... ... : ... .. . ... ... : ... .. . ... ... : ... .. 8 ... ...
ROW C8 : ... .. 2 ... ... ... : ... .. 1 ... ... ... : ... .. . ... : ... .. C ... : ... .. . ... ... : ... .. . ... ... : ... .. . ... ... : ... .. 7 ... ...
ROW C9 : ... .. . ... ... ... : ... .. . ... ... ... : ... .. . ... : ... .. 6 ... : ... .. . ... ... : ... .. 4 ... ... : ... .. 4 ... ... : ... .. 6 ... ...
ROW CA : ... .. . ... ... ... : ... .. . ... ... ... : ... .. . ... : ... .. 3 ... : ... .. . ... ... : ... .. . ... ... : ... .. . ... ... : ... .. 4 ... ...
ROW CB : ... .. 1 ... ... ... : ... .. . ... ... ... : --- .. . ... : ... .. 2 ... : ... .. . ... ... : ... .. . ... ... : ... .. . ... ... : ... .. 3 ... ...
ROW CC : ... .. 8 ... ... ... : ... .. 8 ... ... ... : D#2 00 . ... : 3-# 00 D ... : ... .. . ... ... : ... .. . ... ... : ... .. . ... ... : G-3 01 8 ... ...
ROW CD : ... .. 7 ... ... ... : ... .. 7 ... ... ... : ... .. . ... : ... .. . ... : ... .. . ... ... : ... .. . ... ... : ... .. . ... ... : ... .. 7 ... ...
ROW CE : ... .. 6 ... ... ... : ... .. 6 ... ... ... : ... .. . ... : F-# 00 D ... : ... .. . ... ... : ... .. . ... ... : ... .. . ... ... : ... .. 6 ... ...
ROW CF : ... .. 5 ... ... ... : ... .. 5 ... ... ... : ... .. . ... : D-# 00 6 ... : ... .. . ... ... : ... .. . ... ... : ... .. . ... ... : ... .. 4 ... ...
ROW D0 : ... .. . ... ... ... : ... .. . ... ... ... : ... .. . ... : 9-# 00 1 ... : ... .. . ... ... : ... .. . ... ... : ... .. . ... ... : ... .. 3 ... ...
ROW D1 : ... .. . ... ... ... : ... .. . ... ... ... : ... .. . ... : ... .. 0 ... : ... .. . ... ... : ... .. . ... ... : ... .. . ... ... : ... .. 8 ... ...
ROW D2 : ... .. . ... ... ... : ... .. . ... ... ... : ... .. . ... : ... .. . ... : ... .. . ... ... : ... .. . ... ... : ... .. . ... ... : ... .. 7 ... ...
ROW D3 : ... .. . ... ... ... : ... .. . ... ... ... : ... .. . ... : ... .. . ... : ... .. . ... ... : ... .. . ... ... : ... .. . ... ... : ... .. 6 ... ...
ROW D4 : ... .. . ... ... ... : ... .. . ... ... ... : ... .. . ... : ... .. . ... : ... .. . ... ... : ... .. . ... ... : ... .. . ... ... : ... .. 4 ... ...
ROW D5 : ... .. 1 ... ... ... : ... .. 1 ... ... ... : --- .. . ... : ... .. . ... : ... .. . ... ... : ... .. . ... ... : ... .. . ... ... : ... .. 3 ... ...
ROW D6 : C-5 00 F ... ... ... : G-3 00 C ... ... ... : D#3 00 . ... : 1-# 00 F ... : ... .. . ... ... : A#4 01 9 ... V03 : A#3 01 9 ... V03 : D-4 01 8 ... ...
ROW D7 : ... .. E ... ... ... : ... .. B ... ... ... : ... .. . ... : ... .. C ... : ... .. . ... ... : ... .. 8 ... V01 : ... .. 8 ... V01 : ... .. 7 ... ...
ROW D8 : ... .. D ... ... ... : ... .. A ... ... ... : ... .. . ... : ... .. 6 ... : ... .. . ... ... : ... .. . ... ... : ... .. . ... ... : ... .. 6 ... ...
ROW D9 : ... .. A ... ... ... : ... .. 8 ... ... ... : ... .. . ... : ... .. 3 ... : ... .. . ... ... : ... .. . ... ... : ... .. . ... ... : ... .. 4 ... ...
ROW DA : ... .. . ... ... ... : ... .. . ... ... ... : ... .. . ... : ... .. 2 ... : ... .. . ... ... : ... .. . ... ... : ... .. . ... ... : ... .. 3 ... ...
ROW DB : ... .. . ... ... ... : ... .. . ... ... ... : D-3 00 . P75 : C-# 00 7 ... : ... .. . ... ... : ... .. . ... ... : ... .. . ... ... : ... .. 8 ... ...
ROW DC : ... .. . ... ... ... : ... .. . ... ... ... : C-3 00 . P84 : ... .. 5 ... : ... .. . ... ... : ... .. . ... ... : ... .. . ... ... : ... .. 7 ... ...
ROW DD : ... .. . ... ... ... : ... .. . ... ... ... : B-2 00 . P7D : ... .. 2 ... : ... .. . ... ... : ... .. 7 ... ... : ... .. 7 ... ... : ... .. 6 ... ...
ROW DE : ... .. . ... ... ... : ... .. . ... ... ... : A#2 00 . P78 : ... .. 1 ... : ... .. . ... ... : ... .. . ... ... : ... .. . ... ... : ... .. 4 ... ...
ROW DF : ... .. . ... ... ... : ... .. . ... ... ... : A-2 00 . P74 : ... .. . ... : ... .. . ... ... : ... .. . ... ... : ... .. . ... ... : ... .. 3 ... ...
ROW E0 : ... .. . ... ... ... : ... .. . ... ... ... : D#2 00 . P80 : ... .. F ... : ... .. . ... ... : ... .. . ... ... : ... .. . ... ... : G-3 01 8 ... ...
ROW E1 : ... .. . ... ... ... : ... .. . ... ... ... : ... .. . ... : ... .. C ... : ... .. . ... ... : ... .. 6 ... ... : ... .. 6 ... ... : ... .. 7 ... ...
ROW E2 : ... .. . ... ... ... : ... .. . ... ... ... : ... .. . ... : ... .. 6 ... : ... .. . ... ... : ... .. . ... ... : ... .. . ... ... : ... .. 6 ... ...
ROW E3 : ... .. . ... ... ... : ... .. . ... ... ... : ... .. . ... : ... .. 3 ... : ... .. . ... ... : ... .. 5 ... ... : ... .. 5 ... ... : ... .. 4 ... ...
ROW E4 : ... .. . ... ... ... : ... .. . ... ... ... : --- .. . ... : ... .. 2 ... : ... .. . ... ... : ... .. . ... ... : ... .. . ... ... : ... .. 3 ... ...
ROW E5 : ... .. . ... ... ... : ... .. . ... ... ... : D#2 00 . ... : 1-# 00 F ... : ... .. . ... ... : ... .. . ... ... : ... .. . ... ... : ... .. 8 ... ...
ROW E6 : ... .. 2 ... ... ... : ... .. 1 ... ... ... : ... .. . ... : ... .. C ... : ... .. . ... ... : ... .. . ... ... : ... .. . ... ... : ... .. 7 ... ...
ROW E7 : ... .. . ... ... ... : ... .. . ... ... ... : ... .. . ... : ... .. 6 ... : ... .. . ... ... : ... .. 4 ... ... : ... .. 4 ... ... : ... .. 6 ... ...
ROW E8 : ... .. . ... ... ... : ... .. . ... ... ... : ... .. . ... : ... .. 3 ... : ... .. . ... ... : ... .. . ... ... : ... .. . ... ... : ... .. 4 ... ...
ROW E9 : ... .. 1 ... ... ... : ... .. . ... ... ... : --- .. . ... : ... .. 2 ... : ... .. . ... ... : ... .. . ... ... : ... .. . ... ... : ... .. 3 ... ...
ROW EA : ... .. 8 ... ... ... : ... .. 8 ... ... ... : D#2 00 . ... : 3-# 00 D ... : ... .. . ... ... : ... .. . ... ... : ... .. . ... ... : A-3 01 8 ... ...
ROW EB : ... .. 7 ... ... ... : ... .. 7 ... ... ... : ... .. . ... : ... .. . ... : ... .. . ... ... : ... .. . ... ... : ... .. . ... ... : ... .. 7 ... ...
ROW EC : ... .. 6 ... ... ... : ... .. 6 ... ... ... : ... .. . ... : F-# 00 D ... : ... .. . ... ... : ... .. . ... ... : ... .. . ... ... : ... .. 6 ... ...
ROW ED : ... .. 5 ... ... ... : ... .. 5 ... ... ... : ... .. . ... : D-# 00 6 ... : ... .. . ... ... : ... .. . ... ... : ... .. . ... ... : ... .. 4 ... ...
ROW EE : ... .. . ... ... ... : ... .. . ... ... ... : ... .. . ... : 9-# 00 1 ... : ... .. . ... ... : ... .. . ... ... : ... .. . ... ... : ... .. 3 ... ...
ROW EF : ... .. . ... ... ... : ... .. . ... ... ... : ... .. . ... : ... .. 0 ... : ... .. . ... ... : ... .. . ... ... : ... .. . ... ... : ... .. 8 ... ...
ROW F0 : ... .. . ... ... ... : ... .. . ... ... ... : ... .. . ... : ... .. . ... : ... .. . ... ... : ... .. . ... ... : ... .. . ... ... : ... .. 7 ... ...
ROW F1 : ... .. . ... ... ... : ... .. . ... ... ... : ... .. . ... : ... .. . ... : ... .. . ... ... : ... .. . ... ... : ... .. . ... ... : ... .. 6 ... ...
ROW F2 : ... .. . ... ... ... : ... .. . ... ... ... : ... .. . ... : ... .. . ... : ... .. . ... ... : ... .. . ... ... : ... .. . ... ... : ... .. 4 ... ...
ROW F3 : ... .. 1 ... ... ... : ... .. 1 ... ... ... : --- .. . ... : ... .. . ... : ... .. . ... ... : ... .. . ... ... : ... .. . ... ... : ... .. 3 ... ...
ROW F4 : G-4 00 F ... ... ... : D-4 00 C ... ... ... : D#3 00 . ... : 1-# 00 F ... : ... .. . ... ... : G-4 01 9 ... V03 : G-3 01 9 ... V03 : D-4 01 8 ... ...
ROW F5 : ... .. E ... ... ... : ... .. B ... ... ... : ... .. . ... : ... .. C ... : ... .. . ... ... : ... .. 8 ... V01 : ... .. 8 ... V01 : ... .. 7 ... ...
ROW F6 : ... .. D ... ... ... : ... .. A ... ... ... : ... .. . ... : ... .. 6 ... : ... .. . ... ... : ... .. . ... ... : ... .. . ... ... : ... .. 6 ... ...
ROW F7 : ... .. A ... ... ... : ... .. 8 ... ... ... : ... .. . ... : ... .. 3 ... : ... .. . ... ... : ... .. . ... ... : ... .. . ... ... : ... .. 4 ... ...
ROW F8 : ... .. . ... ... ... : ... .. . ... ... ... : ... .. . ... : ... .. 2 ... : ... .. . ... ... : ... .. . ... ... : ... .. . ... ... : ... .. 3 ... ...
ROW F9 : ... .. . ... ... ... : ... .. . ... ... ... : D-3 00 . P75 : C-# 00 8 ... : ... .. . ... ... : ... .. . ... ... : ... .. . ... ... : ... .. 8 ... ...
ROW FA : ... .. . ... ... ... : ... .. . ... ... ... : C-3 00 . P84 : ... .. 6 ... : ... .. . ... ... : ... .. . ... ... : ... .. . ... ... : ... .. 7 ... ...
ROW FB : ... .. . ... ... ... : ... .. . ... ... ... : B-2 00 . P7D : ... .. 3 ... : ... .. . ... ... : ... .. 7 ... ... : ... .. 7 ... ... : ... .. 6 ... ...
ROW FC : ... .. . ... ... ... : ... .. . ... ... ... : A#2 00 . P78 : ... .. 1 ... : ... .. . ... ... : ... .. . ... ... : ... .. . ... ... : ... .. 4 ... ...
ROW FD : ... .. . ... ... ... : ... .. . ... ... ... : A-2 00 . P74 : ... .. . ... : ... .. . ... ... : ... .. . ... ... : ... .. . ... ... : ... .. 3 ... ...
ROW FE : ... .. . ... ... ... : ... .. . ... ... ... : D#2 00 . P80 : ... .. F ... : ... .. . ... ... : ... .. . ... ... : ... .. . ... ... : F-3 01 8 ... ...
ROW FF : ... .. . ... ... ... : ... .. . ... ... ... : ... .. . ... : ... .. C ... : ... .. . ... ... : ... .. 6 ... ... : ... .. 6 ... ... : ... .. 7 ... ...

PATTERN 11
ROW 00 : ... .. . ... ... ... : ... .. . ... ... ... : ... .. . ... : ... .. 6 ... : ... .. . ... ... : ... .. . ... ... : ... .. . ... ... : ... .. 6 ... ...
ROW 01 : ... .. . ... ... ... : ... .. . ... ... ... : ... .. . ... : ... .. 3 ... : ... .. . ... ... : ... .. 5 ... ... : ... .. 5 ... ... : ... .. 4 ... ...
ROW 02 : ... .. . ... ... ... : ... .. . ... ... ... : --- .. . ... : ... .. 2 ... : ... .. . ... ... : ... .. . ... ... : ... .. . ... ... : ... .. 3 ... ...
ROW 03 : ... .. . ... ... ... : ... .. . ... ... ... : D#2 00 . ... : 1-# 00 F ... : ... .. . ... ... : ... .. . ... ... : ... .. . ... ... : ... .. 8 ... ...
ROW 04 : ... .. 2 ... ... ... : ... .. 1 ... ... ... : ... .. . ... : ... .. C ... : ... .. . ... ... : ... .. . ... ... : ... .. . ... ... : ... .. 7 ... ...
ROW 05 : ... .. . ... ... ... : ... .. . ... ... ... : ... .. . ... : ... .. 6 ... : ... .. . ... ... : ... .. 4 ... ... : ... .. 4 ... ... : ... .. 6 ... ...
ROW 06 : ... .. . ... ... ... : ... .. . ... ... ... : ... .. . ... : ... .. 3 ... : ... .. . ... ... : ... .. . ... ... : ... .. . ... ... : ... .. 4 ... ...
ROW 07 : ... .. 1 ... ... ... : ... .. . ... ... ... : --- .. . ... : ... .. 2 ... : ... .. . ... ... : ... .. . ... ... : ... .. . ... ... : ... .. 3 ... ...
ROW 08 : ... .. 8 ... ... ... : ... .. 8 ... ... ... : D#2 00 . ... : 3-# 00 D ... : ... .. . ... ... : ... .. . ... ... : ... .. . ... ... : G-3 01 8 ... ...
ROW 09 : ... .. 7 ... ... ... : ... .. 7 ... ... ... : ... .. . ... : ... .. . ... : ... .. . ... ... : ... .. . ... ... : ... .. . ... ... : ... .. 7 ... ...
ROW 0A : ... .. 6 ... ... ... : ... .. 6 ... ... ... : ... .. . ... : F-# 00 D ... : ... .. . ... ... : ... .. . ... ... : ... .. . ... ... : ... .. 6 ... ...
ROW 0B : ... .. 5 ... ... ... : ... .. 5 ... ... ... : ... .. . ... : D-# 00 6 ... : ... .. . ... ... : ... .. . ... ... : ... .. . ... ... : ... .. 4 ... ...
ROW 0C : ... .. 1 ... ... ... : ... .. 1 ... ... ... : ... .. . ... : 9-# 00 1 ... : ... .. . ... ... : ... .. . ... ... : ... .. . ... ... : ... .. 3 ... ...
ROW 0D : ... .. 8 ... ... ... : ... .. 8 ... ... ... : ... .. . ... : ... .. 0 ... : ... .. . ... ... : ... .. . ... ... : ... .. . ... ... : ... .. 8 ... ...
ROW 0E : ... .. 7 ... ... ... : ... .. 7 ... ... ... : ... .. . ... : ... .. . ... : ... .. . ... ... : ... .. . ... ... : ... .. . ... ... : ... .. 7 ... ...
ROW 0F : ... .. 6 ... ... ... : ... .. 6 ... ... ... : ... .. . ... : ... .. . ... : ... .. . ... ... : ... .. . ... ... : ... .. . ... ... : ... .. 6 ... ...
ROW 10 : ... .. 5 ... ... ... : ... .. 5 ... ... ... : ... .. . ... : ... .. . ... : ... .. . ... ... : ... .. . ... ... : ... .. . ... ... : ... .. 4 ... ...
ROW 11 : ... .. 1 ... ... ... : ... .. 1 ... ... ... : --- .. . ... : ... .. . ... : ... .. . ... ... : ... .. . ... ... : ... .. . ... ... : ... .. 3 ... ...
ROW 12 : A#4 00 F ... ... ... : G-4 00 C ... ... ... : D#3 00 . ... : 1-# 00 F ... : ... .. . ... ... : A#4 01 9 ... V03 : A#3 01 9 ... V03 : C-4 01 8 ... ...
ROW 13 : ... .. E ... ... ... : ... .. B ... ... ... : ... .. . ... : ... .. C ... : ... .. . ... ... : ... .. 8 ... V01 : ... .. 8 ... V01 : ... .. 7 ... ...
ROW 14 : ... .. D ... ... ... : ... .. A ... ... ... : ... .. . ... : ... .. 6 ... : ... .. . ... ... : ... .. . ... ... : ... .. . ... ... : ... .. 6 ... ...
ROW 15 : ... .. A ... ... ... : ... .. 8 ... ... ... : ... .. . ... : ... .. 3 ... : ... .. . ... ... : ... .. . ... ... : ... .. . ... ... : ... .. 4 ... ...
ROW 16 : ... .. . ... ... ... : ... .. . ... ... ... : ... .. . ... : ... .. 2 ... : ... .. . ... ... : ... .. . ... ... : ... .. . ... ... : ... .. 3 ... ...
ROW 17 : ... .. . ... ... ... : ... .. . ... ... ... : D-3 00 . P75 : C-# 00 7 ... : ... .. . ... ... : ... .. . ... ... : ... .. . ... ... : ... .. 8 ... ...
ROW 18 : ... .. . ... ... ... : ... .. . ... ... ... : C-3 00 . P84 : ... .. 5 ... : ... .. . ... ... : ... .. . ... ... : ... .. . ... ... : ... .. 7 ... ...
ROW 19 : ... .. . ... ... ... : ... .. . ... ... ... : B-2 00 . P7D : ... .. 2 ... : ... .. . ... ... : ... .. 7 ... ... : ... .. 7 ... ... : ... .. 6 ... ...
ROW 1A : ... .. . ... ... ... : ... .. . ... ... ... : A#2 00 . P78 : ... .. 1 ... : ... .. . ... ... : ... .. . ... ... : ... .. . ... ... : ... .. 4 ... ...
ROW 1B : ... .. . ... ... ... : ... .. . ... ... ... : A-2 00 . P74 : ... .. . ... : ... .. . ... ... : ... .. . ... ... : ... .. . ... ... : ... .. 3 ... ...
ROW 1C : ... .. . ... ... ... : ... .. . ... ... ... : D#2 00 . P80 : ... .. F ... : ... .. . ... ... : ... .. . ... ... : ... .. . ... ... : F-3 01 8 ... ...
ROW 1D : ... .. . ... ... ... : ... .. . ... ... ... : ... .. . ... : ... .. C ... : ... .. . ... ... : ... .. 6 ... ... : ... .. 6 ... ... : ... .. 7 ... ...
ROW 1E : ... .. . ... ... ... : ... .. . ... ... ... : ... .. . ... : ... .. 6 ... : ... .. . ... ... : ... .. . ... ... : ... .. . ... ... : ... .. 6 ... ...
ROW 1F : ... .. . ... ... ... : ... .. . ... ... ... : ... .. . ... : ... .. 3 ... : ... .. . ... ... : ... .. 5 ... ... : ... .. 5 ... ... : ... .. 4 ... ...
ROW 20 : ... .. . ... ... ... : ... .. . ... ... ... : --- .. . ... : ... .. 2 ... : ... .. . ... ... : ... .. . ... ... : ... .. . ... ... : ... .. 3 ... ...
ROW 21 : ... .. . ... ... ... : ... .. . ... ... ... : D#2 00 . ... : 1-# 00 F ... : ... .. . ... ... : ... .. . ... ... : ... .. . ... ... : ... .. 8 ... ...
ROW 22 : ... .. 2 ... ... ... : ... .. 1 ... ... ... : ... .. . ... : ... .. C ... : ... .. . ... ... : ... .. . ... ... : ... .. . ... ... : ... .. 7 ... ...
ROW 23 : ... .. . ... ... ... : ... .. . ... ... ... : ... .. . ... : ... .. 6 ... : ... .. . ... ... : ... .. 4 ... ... : ... .. 4 ... ... : ... .. 6 ... ...
ROW 24 : ... .. . ... ... ... : ... .. . ... ... ... : ... .. . ... : ... .. 3 ... : ... .. . ... ... : ... .. . ... ... : ... .. . ... ... : ... .. 4 ... ...
ROW 25 : ... .. 1 ... ... ... : ... .. . ... ... ... : --- .. . ... : ... .. 2 ... : ... .. . ... ... : ... .. . ... ... : ... .. . ... ... : ... .. 3 ... ...
ROW 26 : ... .. 8 ... ... ... : ... .. 8 ... ... ... : D#2 00 . ... : 3-# 00 D ... : ... .. . ... ... : ... .. . ... ... : ... .. . ... ... : G-3 01 8 ... ...
ROW 27 : ... .. 7 ... ... ... : ... .. 7 ... ... ... : ... .. . ... : ... .. . ... : ... .. . ... ... : ... .. . ... ... : ... .. . ... ... : ... .. 7 ... ...
ROW 28 : ... .. 6 ... ... ... : ... .. 6 ... ... ... : ... .. . ... : F-# 00 D ... : ... .. . ... ... : ... .. . ... ... : ... .. . ... ... : ... .. 6 ... ...
ROW 29 : ... .. 5 ... ... ... : ... .. 5 ... ... ... : ... .. . ... : D-# 00 6 ... : ... .. . ... ... : ... .. . ... ... : ... .. . ... ... : ... .. 4 ... ...
ROW 2A : ... .. . ... ... ... : ... .. . ... ... ... : ... .. . ... : 9-# 00 1 ... : ... .. . ... ... : ... .. . ... ... : ... .. . ... ... : ... .. 3 ... ...
ROW 2B : ... .. . ... ... ... : ... .. . ... ... ... : ... .. . ... : ... .. 0 ... : ... .. . ... ... : ... .. . ... ... : ... .. . ... ... : ... .. 8 ... ...
ROW 2C : ... .. . ... ... ... : ... .. . ... ... ... : ... .. . ... : ... .. . ... : ... .. . ... ... : ... .. . ... ... : ... .. . ... ... : ... .. 7 ... ...
ROW 2D : ... .. . ... ... ... : ... .. . ... ... ... : ... .. . ... : ... .. . ... : ... .. . ... ... : ... .. . ... ... : ... .. . ... ... : ... .. 6 ... ...
ROW 2E : ... .. . ... ... ... : ... .. . ... ... ... : ... .. . ... : ... .. . ... : ... .. . ... ... : ... .. . ... ... : ... .. . ... ... : ... .. 4 ... ...
ROW 2F : ... .. 1 ... ... ... : ... .. 1 ... ... ... : --- .. . ... : ... .. . ... : ... .. . ... ... : ... .. . ... ... : ... .. . ... ... : ... .. 3 ... ...
ROW 30 : A-4 00 F ... ... ... : F-4 00 C ... ... ... : D-3 00 . ... : 1-# 00 F ... : ... .. . ... ... : A-3 01 9 ... V03 : A-4 01 9 ... V03 : A-3 01 8 ... ...
ROW 31 : ... .. E ... ... ... : ... .. B ... ... ... : ... .. . ... : ... .. C ... : ... .. . ... ... : ... .. 8 ... V01 : ... .. 8 ... V01 : ... .. 7 ... ...
ROW 32 : ... .. D ... ... ... : ... .. A ... ... ... : ... .. . ... : ... .. 6 ... : ... .. . ... ... : ... .. . ... ... : ... .. . ... ... : ... .. 6 ... ...
ROW 33 : ... .. A ... ... ... : ... .. 8 ... ... ... : ... .. . ... : ... .. 3 ... : ... .. . ... ... : ... .. . ... ... : ... .. . ... ... : ... .. 4 ... ...
ROW 34 : ... .. . ... ... ... : ... .. . ... ... ... : ... .. . ... : ... .. 2 ... : ... .. . ... ... : ... .. . ... ... : ... .. . ... ... : ... .. 3 ... ...
ROW 35 : ... .. . ... ... ... : ... .. . ... ... ... : ... .. . ... : C-# 00 8 ... : ... .. . ... ... : ... .. . ... ... : ... .. . ... ... : ... .. 8 ... ...
ROW 36 : ... .. . ... ... ... : ... .. . ... ... ... : ... .. . ... : ... .. 6 ... : ... .. . ... ... : ... .. . ... ... : ... .. . ... ... : ... .. 7 ... ...
ROW 37 : ... .. . ... ... ... : ... .. . ... ... ... : ... .. . ... : ... .. 3 ... : ... .. . ... ... : ... .. 7 ... ... : ... .. 7 ... ... : ... .. 6 ... ...
ROW 38 : ... .. . ... ... ... : ... .. . ... ... ... : ... .. . ... : ... .. 1 ... : ... .. . ... ... : ... .. . ... ... : ... .. . ... ... : ... .. 4 ... ...
ROW 39 : ... .. . ... ... ... : ... .. . ... ... ... : ... .. . ... : ... .. . ... : ... .. . ... ... : ... .. . ... ... : ... .. . ... ... : ... .. 3 ... ...
ROW 3A : ... .. . ... ... ... : ... .. . ... ... ... : D-2 00 . ... : ... .. F ... : ... .. . ... ... : ... .. . ... ... : ... .. . ... ... : E-3 01 8 ... ...
ROW 3B : ... .. 2 ... ... ... : ... .. 1 ... ... ... : ... .. . ... : ... .. C ... : ... .. . ... ... : ... .. 6 ... ... : ... .. 6 ... ... : ... .. 7 ... ...
ROW 3C : ... .. . ... ... ... : ... .. . ... ... ... : ... .. . ... : ... .. 6 ... : ... .. . ... ... : ... .. . ... ... : ... .. . ... ... : ... .. 6 ... ...
ROW 3D : ... .. . ... ... ... : ... .. . ... ... ... : ... .. . ... : ... .. 3 ... : ... .. . ... ... : ... .. 5 ... ... : ... .. 5 ... ... : ... .. 4 ... ...
ROW 3E : ... .. 1 ... ... ... : ... .. . ... ... ... : ... .. . ... : ... .. 2 ... : ... .. . ... ... : ... .. . ... ... : ... .. . ... ... : ... .. 3 ... ...
ROW 3F : D-4 00 F ... ... ... : A-3 00 C ... ... ... : ... .. . ... : 1-# 00 F ... : ... .. . ... ... : A-2 01 9 ... V03 : F-3 01 9 ... V03 : ... .. 8 ... ...
ROW 40 : ... .. E ... ... ... : ... .. B ... ... ... : ... .. . ... : ... .. C ... : ... .. . ... ... : ... .. 8 ... V01 : ... .. 8 ... V01 : ... .. 7 ... ...
ROW 41 : ... .. D ... ... ... : ... .. A ... ... ... : ... .. . ... : ... .. 6 ... : ... .. . ... ... : ... .. . ... ... : ... .. . ... ... : ... .. 6 ... ...
ROW 42 : ... .. A ... ... ... : ... .. 8 ... ... ... : ... .. . ... : ... .. 3 ... : ... .. . ... ... : ... .. . ... ... : ... .. . ... ... : ... .. 4 ... ...
ROW 43 : ... .. 2 ... ... ... : ... .. 1 ... ... ... : ... .. . ... : ... .. 2 ... : ... .. . ... ... : ... .. . ... ... : ... .. . ... ... : ... .. 3 ... ...
ROW 44 : ... .. F ... ... ... : ... .. F ... ... ... : D-3 00 . ... : 3-# 00 D ... : ... .. . ... ... : ... .. 9 ... V03 : ... .. 9 ... V03 : F-3 01 8 ... ...
ROW 45 : ... .. E ... ... ... : ... .. E ... ... ... : ... .. . ... : ... .. . ... : ... .. . ... ... : ... .. 8 ... V01 : ... .. 8 ... V01 : ... .. 7 ... ...
ROW 46 : ... .. D ... ... ... : ... .. D ... ... ... : ... .. . ... : F-# 00 D ... : ... .. . ... ... : ... .. . ... ... : ... .. . ... ... : ... .. 6 ... ...
ROW 47 : ... .. 9 ... ... ... : ... .. 9 ... ... ... : ... .. . ... : D-# 00 6 ... : ... .. . ... ... : ... .. . ... ... : ... .. . ... ... : ... .. 4 ... ...
ROW 48 : ... .. . ... ... ... : ... .. . ... ... ... : --- .. . ... : 9-# 00 1 ... : ... .. . ... ... : ... .. . ... ... : ... .. . ... ... : ... .. 3 ... ...
ROW 49 : ... .. 8 ... ... ... : ... .. 8 ... ... ... : D-3 00 . ... : ... .. 0 ... : ... .. . ... ... : ... .. . ... ... : ... .. . ... ... : ... .. 8 ... ...
ROW 4A : ... .. . ... ... ... : ... .. . ... ... ... : ... .. . ... : ... .. . ... : ... .. . ... ... : ... .. . ... ... : ... .. . ... ... : ... .. 7 ... ...
ROW 4B : ... .. . ... ... ... : ... .. . ... ... ... : ... .. . ... : ... .. . ... : ... .. . ... ... : ... .. 7 ... ... : ... .. 7 ... ... : ... .. 6 ... ...
ROW 4C : ... .. . ... ... ... : ... .. . ... ... ... : ... .. . ... : ... .. . ... : ... .. . ... ... : ... .. . ... ... : ... .. . ... ... : ... .. 4 ... ...
ROW 4D : ... .. . ... ... ... : ... .. . ... ... ... : --- .. . ... : ... .. . ... : ... .. . ... ... : ... .. . ... ... : ... .. . ... ... : ... .. 3 ... ...
ROW 4E : ... .. 7 ... ... ... : ... .. 7 ... ... ... : G-3 00 . ... : 1-# 00 F ... : ... .. . ... ... : ... .. . ... ... : ... .. . ... ... : E-4 01 8 ... ...
ROW 4F : ... .. . ... ... ... : ... .. . ... ... ... : ... .. . ... : ... .. C ... : ... .. . ... ... : ... .. 6 ... ... : ... .. 6 ... ... : ... .. 7 ... ...
ROW 50 : ... .. . ... ... ... : ... .. . ... ... ... : ... .. . ... : ... .. 6 ... : ... .. . ... ... : ... .. . ... ... : ... .. . ... ... : ... .. 6 ... ...
ROW 51 : ... .. 6 ... ... ... : ... .. 6 ... ... ... : ... .. . ... : ... .. 3 ... : ... .. . ... ... : ... .. 5 ... ... : ... .. 5 ... ... : ... .. 4 ... ...
ROW 52 : ... .. . ... ... ... : ... .. . ... ... ... : --- .. . ... : ... .. 2 ... : ... .. . ... ... : ... .. . ... ... : ... .. . ... ... : ... .. 3 ... ...
ROW 53 : ... .. . ... ... ... : ... .. . ... ... ... : G-3 00 . ... : C-# 00 7 ... : ... .. . ... ... : ... .. . ... ... : ... .. . ... ... : ... .. 8 ... ...
ROW 54 : ... .. . ... ... ... : ... .. . ... ... ... : ... .. . ... : ... .. 5 ... : ... .. . ... ... : ... .. . ... ... : ... .. . ... ... : ... .. 7 ... ...
ROW 55 : ... .. . ... ... ... : ... .. . ... ... ... : ... .. . ... : ... .. 2 ... : ... .. . ... ... : ... .. 4 ... ... : ... .. 4 ... ... : ... .. 6 ... ...
ROW 56 : ... .. 5 ... ... ... : ... .. 5 ... ... ... : ... .. . ... : ... .. 1 ... : ... .. . ... ... : ... .. . ... ... : ... .. . ... ... : ... .. 4 ... ...
ROW 57 : ... .. . ... ... ... : ... .. . ... ... ... : --- .. . ... : ... .. . ... : ... .. . ... ... : ... .. . ... ... : ... .. . ... ... : ... .. 3 ... ...
ROW 58 : ... .. . ... ... ... : ... .. . ... ... ... : F-3 00 . ... : 1-# 00 F ... : ... .. . ... ... : ... .. . ... ... : ... .. . ... ... : G-3 01 8 ... ...
ROW 59 : ... .. . ... ... ... : ... .. . ... ... ... : ... .. . ... : ... .. C ... : ... .. . ... ... : ... .. . ... ... : ... .. . ... ... : ... .. 7 ... ...
ROW 5A : ... .. . ... ... ... : ... .. . ... ... ... : ... .. . ... : ... .. 6 ... : ... .. . ... ... : ... .. . ... ... : ... .. . ... ... : ... .. 6 ... ...
ROW 5B : ... .. . ... ... ... : ... .. . ... ... ... : ... .. . ... : ... .. 3 ... : ... .. . ... ... : ... .. . ... ... : ... .. . ... ... : ... .. 4 ... ...
ROW 5C : ... .. . ... ... ... : ... .. . ... ... ... : --- .. . ... : ... .. 2 ... : ... .. . ... ... : ... .. . ... ... : ... .. . ... ... : ... .. 3 ... ...
ROW 5D : ... .. 6 ... ... ... : ... .. 6 P85 ... ... : F-3 00 . ... : C-# 00 8 ... : ... .. . ... ... : ... .. . ... ... : ... .. . ... ... : ... .. 8 ... ...
ROW 5E : ... .. . ... ... ... : ... .. . P87 ... ... : ... .. . ... : ... .. 6 ... : ... .. . ... ... : ... .. . ... ... : ... .. . ... ... : ... .. 7 ... ...
ROW 5F : ... .. . ... ... ... : ... .. . P86 ... ... : ... .. . ... : ... .. 3 ... : ... .. . ... ... : ... .. . ... ... : ... .. . ... ... : ... .. 6 ... ...
ROW 60 : ... .. . ... ... ... : ... .. . P83 ... ... : ... .. . ... : ... .. 1 ... : ... .. . ... ... : ... .. . ... ... : ... .. . ... ... : ... .. 4 ... ...
ROW 61 : ... .. . ... ... ... : ... .. . P7F ... ... : --- .. . ... : ... .. . ... : ... .. . ... ... : ... .. . ... ... : ... .. . ... ... : ... .. 3 ... ...
ROW 62 : ... .. . ... ... ... : ... .. . P7C ... ... : C-4 00 . ... : ... .. F ... : ... .. . ... ... : ... .. . ... ... : ... .. . ... ... : A-3 01 8 ... ...
ROW 63 : ... .. . ... ... ... : ... .. . P7B ... ... : ... .. . ... : ... .. C ... : ... .. . ... ... : ... .. . ... ... : ... .. . ... ... : ... .. 7 ... ...
ROW 64 : ... .. . ... ... ... : ... .. . P7D ... ... : ... .. . ... : ... .. 6 ... : ... .. . ... ... : ... .. 3 ... ... : ... .. 3 ... ... : ... .. 6 ... ...
ROW 65 : ... .. 7 ... ... ... : ... .. 7 P81 ... ... : ... .. . ... : ... .. 3 ... : ... .. . ... ... : ... .. . ... ... : ... .. . ... ... : ... .. 4 ... ...
ROW 66 : ... .. . ... ... ... : ... .. . P84 ... ... : --- .. . ... : ... .. 2 ... : ... .. . ... ... : ... .. . ... ... : ... .. . ... ... : ... .. 3 ... ...
ROW 67 : ... .. 8 ... ... ... : ... .. 8 P87 ... ... : C-4 00 . ... : 1-# 00 F ... : ... .. . ... ... : ... .. . ... ... : ... .. . ... ... : ... .. 8 ... ...
ROW 68 : ... .. . ... ... ... : ... .. . ... ... ... : ... .. . ... : ... .. C ... : ... .. . ... ... : ... .. . ... ... : ... .. . ... ... : ... .. 7 ... ...
ROW 69 : ... .. . ... ... ... : ... .. . P83 ... ... : ... .. . ... : ... .. 6 ... : ... .. . ... ... : ... .. . ... ... : ... .. . ... ... : ... .. 6 ... ...
ROW 6A : ... .. . ... ... ... : ... .. . P80 ... ... : ... .. . ... : ... .. 3 ... : ... .. . ... ... : ... .. . ... ... : ... .. . ... ... : ... .. 4 ... ...
ROW 6B : ... .. . ... ... ... : ... .. . P7C ... ... : --- .. . ... : ... .. 2 ... : ... .. . ... ... : ... .. . ... ... : ... .. . ... ... : ... .. 3 ... ...
ROW 6C : ... .. . ... ... ... : ... .. . P7B ... ... : G-3 00 . ... : 3-# 00 D ... : ... .. . ... ... : ... .. . ... ... : ... .. . ... ... : G-4 01 8 ... ...
ROW 6D : ... .. . ... ... ... : ... .. . P7D ... ... : ... .. . ... : ... .. . ... : ... .. . ... ... : ... .. . ... ... : ... .. . ... ... : ... .. 7 ... ...
ROW 6E : ... .. . ... ... ... : ... .. . P81 ... ... : ... .. . ... : F-# 00 D ... : ... .. . ... ... : ... .. . ... ... : ... .. . ... ... : ... .. 6 ... ...
ROW 6F : ... .. 9 ... ... ... : ... .. 9 P84 ... ... : ... .. . ... : D-# 00 6 ... : ... .. . ... ... : ... .. . ... ... : ... .. . ... ... : ... .. 4 ... ...
ROW 70 : ... .. . ... ... ... : ... .. . P87 ... ... : --- .. . ... : 9-# 00 1 ... : ... .. . ... ... : ... .. . ... ... : ... .. . ... ... : ... .. 3 ... ...
ROW 71 : ... .. A ... ... ... : ... .. . ... ... ... : G-3 00 . ... : ... .. 0 ... : ... .. . ... ... : ... .. . ... ... : ... .. . ... ... : ... .. 8 ... ...
ROW 72 : ... .. . ... ... ... : ... .. . P84 ... ... : ... .. . ... : ... .. . ... : ... .. . ... ... : ... .. . ... ... : ... .. . ... ... : ... .. 7 ... ...
ROW 73 : ... .. . ... ... ... : ... .. . P81 ... ... : ... .. . ... : ... .. . ... : ... .. . ... ... : ... .. . ... ... : ... .. . ... ... : ... .. 6 ... ...
ROW 74 : ... .. . ... ... ... : ... .. . P7D ... ... : ... .. . ... : ... .. . ... : ... .. . ... ... : ... .. . ... ... : ... .. . ... ... : ... .. 4 ... ...
ROW 75 : ... .. . ... ... ... : ... .. . P7B ... ... : --- .. . ... : ... .. . ... : ... .. . ... ... : ... .. . ... ... : ... .. . ... ... : ... .. 3 ... ...
ROW 76 : ... .. . ... ... ... : ... .. . P7C ... ... : E-4 00 . ... : 1-# 00 F ... : ... .. . ... ... : ... .. . ... ... : ... .. . ... ... : C-4 01 8 ... ...
ROW 77 : ... .. 2 ... ... ... : ... .. 1 P80 ... ... : ... .. . ... : ... .. C ... : ... .. . ... ... : ... .. 2 ... ... : ... .. 2 ... ... : ... .. 7 ... ...
ROW 78 : ... .. . ... ... ... : ... .. . P83 ... ... : ... .. . ... : ... .. 6 ... : ... .. . ... ... : ... .. . ... ... : ... .. . ... ... : ... .. 6 ... ...
ROW 79 : ... .. . ... ... ... : ... .. . P87 ... ... : ... .. . ... : ... .. 3 ... : ... .. . ... ... : ... .. . ... ... : ... .. . ... ... : ... .. 4 ... ...
ROW 7A : ... .. 1 ... ... ... : ... .. . ... ... ... : --- .. . ... : ... .. 2 ... : ... .. . ... ... : ... .. . ... ... : ... .. . ... ... : ... .. 3 ... ...
ROW 7B : ... .. . ... ... ... : ... .. . P84 ... ... : E-4 00 . ... : C-# 00 7 ... : ... .. . ... ... : ... .. . ... ... : ... .. . ... ... : ... .. 8 ... ...
ROW 7C : ... .. . ... ... ... : ... .. . P81 ... ... : ... .. . ... : ... .. 5 ... : ... .. . ... ... : ... .. . ... ... : ... .. . ... ... : ... .. 7 ... ...
ROW 7D : ... .. 0 ... ... ... : ... .. 0 ... ... ... : ... .. . ... : ... .. 2 ... : ... .. . ... ... : ... .. . ... ... : ... .. . ... ... : ... .. 6 ... ...
ROW 7E : ... .. . ... ... ... : ... .. . ... ... ... : ... .. . ... : ... .. 1 ... : ... .. . ... ... : ... .. . ... ... : ... .. . ... ... : ... .. 4 ... ...
ROW 7F : ... .. . ... ... ... : ... .. . ... ... ... : --- .. . ... : ... .. . ... : ... .. . ... ... : ... .. . ... ... : ... .. . ... ... : ... .. 3 ... ...
ROW 80 : E-4 00 F P80 ... ... : A-3 00 F P81 ... ... : C-4 00 . ... : ... .. F ... : ... .. . ... ... : D-3 01 9 ... V03 : D-4 01 9 ... V03 : D-4 01 8 ... ...
ROW 81 : ... .. E ... ... ... : ... .. E ... ... ... : ... .. . ... : ... .. C ... : ... .. . ... ... : ... .. 8 ... V01 : ... .. 8 ... V01 : ... .. 7 ... ...
ROW 82 : ... .. D ... ... ... : ... .. D ... ... ... : ... .. . ... : ... .. 6 ... : ... .. . ... ... : ... .. . ... ... : ... .. . ... ... : ... .. 6 ... ...
ROW 83 : ... .. A ... ... ... : ... .. A ... ... ... : ... .. . ... : ... .. 3 ... : ... .. . ... ... : ... .. . ... ... : ... .. . ... ... : ... .. 4 ... ...
ROW 84 : ... .. . ... ... ... : ... .. . ... ... ... : --- .. . ... : ... .. 2 ... : ... .. . ... ... : ... .. . ... ... : ... .. . ... ... : ... .. 3 ... ...
ROW 85 : ... .. . ... ... ... : ... .. . ... ... ... : C-4 00 . ... : 1-# 00 F ... : ... .. . ... ... : ... .. . ... ... : ... .. . ... ... : ... .. 8 ... ...
ROW 86 : ... .. . ... ... ... : ... .. . ... ... ... : ... .. . ... : ... .. C ... : ... .. . ... ... : ... .. . ... ... : ... .. . ... ... : ... .. 7 ... ...
ROW 87 : ... .. . ... ... ... : ... .. . ... ... ... : ... .. . ... : ... .. 6 ... : ... .. . ... ... : ... .. 7 ... ... : ... .. 7 ... ... : ... .. 6 ... ...
ROW 88 : ... .. . ... ... ... : ... .. . ... ... ... : ... .. . ... : ... .. 3 ... : ... .. . ... ... : ... .. . ... ... : ... .. . ... ... : ... .. 4 ... ...
ROW 89 : ... .. . ... ... ... : ... .. . ... ... ... : --- .. . ... : ... .. 2 ... : ... .. . ... ... : ... .. . ... ... : ... .. . ... ... : ... .. 3 ... ...
ROW 8A : ... .. . ... ... ... : ... .. . ... ... ... : G-4 00 . ... : 3-# 00 D ... : ... .. . ... ... : ... .. . ... ... : ... .. . ... ... : A-4 01 8 ... ...
ROW 8B : ... .. 2 ... ... ... : ... .. 2 ... ... ... : ... .. . ... : ... .. . ... : ... .. . ... ... : ... .. 6 ... ... : ... .. 6 ... ... : ... .. 7 ... ...
ROW 8C : ... .. . ... ... ... : ... .. . ... ... ... : ... .. . ... : F-# 00 D ... : ... .. . ... ... : ... .. . ... ... : ... .. . ... ... : ... .. 6 ... ...
ROW 8D : ... .. . ... ... ... : ... .. . ... ... ... : ... .. . ... : D-# 00 6 ... : ... .. . ... ... : ... .. 5 ... ... : ... .. 5 ... ... : ... .. 4 ... ...
ROW 8E : ... .. 1 ... ... ... : ... .. 1 ... ... ... : --- .. . ... : 9-# 00 1 ... : ... .. . ... ... : ... .. . ... ... : ... .. . ... ... : ... .. 3 ... ...
ROW 8F : F-3 00 F ... ... ... : A-2 00 F ... ... ... : G-4 00 . ... : ... .. 0 ... : ... .. . ... ... : ... .. . ... ... : ... .. . ... ... : ... .. 8 ... ...
ROW 90 : ... .. E ... ... ... : ... .. E ... ... ... : ... .. . ... : ... .. . ... : ... .. . ... ... : ... .. . ... ... : ... .. . ... ... : ... .. 7 ... ...
ROW 91 : ... .. D ... ... ... : ... .. D ... ... ... : ... .. . ... : ... .. . ... : ... .. . ... ... : ... .. 4 ... ... : ... .. 4 ... ... : ... .. 6 ... ...
ROW 92 : ... .. A ... ... ... : ... .. A ... ... ... : ... .. . ... : ... .. . ... : ... .. . ... ... : ... .. . ... ... : ... .. . ... ... : ... .. 4 ... ...
ROW 93 : ... .. 2 ... ... ... : ... .. 2 ... ... ... : --- .. . ... : ... .. . ... : ... .. . ... ... : ... .. . ... ... : ... .. . ... ... : ... .. 3 ... ...
ROW 94 : ... .. F ... ... ... : ... .. F ... ... ... : F-4 00 . ... : 4-# 00 D ... : ... .. . ... ... : A-2 01 9 ... V03 : A-3 01 9 ... V03 : E-4 01 8 ... ...
ROW 95 : ... .. E ... ... ... : ... .. E ... ... ... : ... .. . ... : ... .. . ... : ... .. . ... ... : ... .. 8 ... V01 : ... .. 8 ... V01 : ... .. 7 ... ...
ROW 96 : ... .. D ... ... ... : ... .. D ... ... ... : ... .. . ... : 0-# 00 D ... : ... .. . ... ... : ... .. . ... ... : ... .. . ... ... : ... .. 6 ... ...
ROW 97 : ... .. A ... ... ... : ... .. A ... ... ... : ... .. . ... : E-# 00 6 ... : ... .. . ... ... : ... .. . ... ... : ... .. . ... ... : ... .. 4 ... ...
ROW 98 : ... .. . ... ... ... : ... .. . ... ... ... : --- .. . ... : A-# 00 1 ... : ... .. . ... ... : ... .. . ... ... : ... .. . ... ... : ... .. 3 ... ...
ROW 99 : ... .. . ... ... ... : ... .. . ... ... ... : F-4 00 . ... : 4-# 00 D ... : ... .. . ... ... : ... .. . ... ... : ... .. . ... ... : ... .. 8 ... ...
ROW 9A : ... .. . ... ... ... : ... .. . ... ... ... : ... .. . ... : ... .. . ... : ... .. . ... ... : ... .. . ... ... : ... .. . ... ... : ... .. 7 ... ...
ROW 9B : ... .. . ... ... ... : ... .. . ... ... ... : ... .. . ... : 0-# 00 D ... : ... .. . ... ... : ... .. 7 ... ... : ... .. 7 ... ... : ... .. 6 ... ...
ROW 9C : ... .. . ... ... ... : ... .. . ... ... ... : ... .. . ... : E-# 00 6 ... : ... .. . ... ... : ... .. . ... ... : ... .. . ... ... : ... .. 4 ... ...
ROW 9D : ... .. . ... ... ... : ... .. . ... ... ... : --- .. . ... : A-# 00 1 ... : ... .. . ... ... : ... .. . ... ... : ... .. . ... ... : ... .. 3 ... ...
ROW 9E : ... .. . ... ... ... : ... .. . ... ... ... : C-5 00 . ... : B-# 00 D ... : ... .. . ... ... : ... .. . ... ... : ... .. . ... ... : F-4 01 8 ... ...
ROW 9F : ... .. . ... ... ... : ... .. . ... ... ... : ... .. . ... : ... .. . ... : ... .. . ... ... : ... .. 6 ... ... : ... .. 6 ... ... : ... .. 7 ... ...
ROW A0 : ... .. . ... ... ... : ... .. . ... ... ... : ... .. . ... : 7-# 00 D ... : ... .. . ... ... : ... .. . ... ... : ... .. . ... ... : ... .. 6 ... ...
ROW A1 : ... .. . ... ... ... : ... .. . ... ... ... : ... .. . ... : 5-# 00 6 ... : ... .. . ... ... : ... .. 5 ... ... : ... .. 5 ... ... : ... .. 4 ... ...
ROW A2 : ... .. . ... ... ... : ... .. . ... ... ... : --- .. . ... : 1-# 00 1 ... : ... .. . ... ... : ... .. . ... ... : ... .. . ... ... : ... .. 3 ... ...
ROW A3 : ... .. . ... ... ... : ... .. . ... ... ... : C-5 00 . ... : B-# 00 D ... : ... .. . ... ... : ... .. . ... ... : ... .. . ... ... : ... .. 8 ... ...
ROW A4 : ... .. . ... ... ... : ... .. . ... ... ... : ... .. . ... : ... .. . ... : ... .. . ... ... : ... .. . ... ... : ... .. . ... ... : ... .. 7 ... ...
ROW A5 : ... .. . ... ... ... : ... .. . ... ... ... : ... .. . ... : 7-# 00 D ... : ... .. . ... ... : ... .. 4 ... ... : ... .. 4 ... ... : ... .. 6 ... ...
ROW A6 : ... .. . ... ... ... : ... .. . ... ... ... : ... .. . ... : 5-# 00 6 ... : ... .. . ... ... : ... .. . ... ... : ... .. . ... ... : ... .. 4 ... ...
ROW A7 : ... .. . ... ... ... : ... .. . ... ... ... : --- .. . ... : 1-# 00 1 ... : ... .. . ... ... : ... .. . ... ... : ... .. . ... ... : ... .. 3 ... ...
ROW A8 : ... .. . ... ... ... : ... .. . ... ... ... : A-4 00 . ... : 3-# 00 D ... : ... .. . ... ... : F-2 01 9 ... V03 : F-3 01 9 ... V03 : C-5 01 8 ... ...
ROW A9 : ... .. . ... ... ... : ... .. . ... ... ... : ... .. . ... : ... .. . ... : ... .. . ... ... : ... .. 8 ... V01 : ... .. 8 ... V01 : ... .. 7 ... ...
ROW AA : ... .. . ... ... ... : ... .. . ... ... ... : ... .. . ... : F-# 00 D ... : ... .. . ... ... : ... .. . ... ... : ... .. . ... ... : ... .. 6 ... ...
ROW AB : ... .. . ... ... ... : ... .. . ... ... ... : ... .. . ... : D-# 00 6 ... : ... .. . ... ... : ... .. . ... ... : ... .. . ... ... : ... .. 4 ... ...
ROW AC : ... .. . ... ... ... : ... .. . ... ... ... : --- .. . ... : 9-# 00 1 ... : ... .. . ... ... : ... .. . ... ... : ... .. . ... ... : ... .. 3 ... ...
ROW AD : ... .. . P88 ... ... : ... .. . P89 ... ... : A-4 00 . ... : 3-# 00 D ... : ... .. . ... ... : ... .. . ... ... : ... .. . ... ... : ... .. 8 ... ...
ROW AE : F#3 00 A P7B ... ... : ... .. . P8E ... ... : ... .. . ... : ... .. . ... : ... .. . ... ... : ... .. . ... ... : ... .. . ... ... : ... .. 7 ... ...
ROW AF : ... .. . P79 ... ... : ... .. . P8C ... ... : ... .. . ... : F-# 00 D ... : ... .. . ... ... : ... .. 7 ... ... : ... .. 7 ... ... : ... .. 6 ... ...
ROW B0 : F-3 00 A P84 ... ... : ... .. . P85 ... ... : ... .. . ... : D-# 00 6 ... : ... .. . ... ... : ... .. . ... ... : ... .. . ... ... : ... .. 4 ... ...
ROW B1 : ... .. . P7C ... ... : ... .. . P7D ... ... : --- .. . ... : 9-# 00 1 ... : ... .. . ... ... : ... .. . ... ... : ... .. . ... ... : ... .. 3 ... ...
ROW B2 : E-3 00 A P88 ... ... : ... .. . P76 ... ... : D-5 00 . ... : 2-# 00 F ... : ... .. . ... ... : ... .. . ... ... : ... .. . ... ... : A-4 01 8 ... ...
ROW B3 : ... .. . P86 ... ... : ... .. . P74 ... ... : ... .. . ... : ... .. C ... : ... .. . ... ... : ... .. 6 ... ... : ... .. 6 ... ... : ... .. 7 ... ...
ROW B4 : F-3 00 A P78 ... ... : ... .. . P79 ... ... : ... .. . ... : ... .. 6 ... : ... .. . ... ... : ... .. . ... ... : ... .. . ... ... : ... .. 6 ... ...
ROW B5 : ... .. . P80 ... ... : ... .. . P81 ... ... : ... .. . ... : ... .. 3 ... : ... .. . ... ... : ... .. 5 ... ... : ... .. 5 ... ... : ... .. 4 ... ...
ROW B6 : ... .. . P87 ... ... : ... .. . P88 ... ... : --- .. . ... : ... .. 2 ... : ... .. . ... ... : ... .. . ... ... : ... .. . ... ... : ... .. 3 ... ...
ROW B7 : F#3 00 A P7B ... ... : ... .. . P8E ... ... : D-5 00 . ... : ... .. F ... : ... .. . ... ... : ... .. . ... ... : ... .. . ... ... : ... .. 8 ... ...
ROW B8 : ... .. . P7A ... ... : ... .. . P8D ... ... : ... .. . ... : ... .. C ... : ... .. . ... ... : ... .. . ... ... : ... .. . ... ... : ... .. 7 ... ...
ROW B9 : F-3 00 A P85 ... ... : ... .. . P86 ... ... : ... .. . ... : ... .. 6 ... : ... .. . ... ... : ... .. 4 ... ... : ... .. 4 ... ... : ... .. 6 ... ...
ROW BA : ... .. . P7E ... ... : ... .. . P7F ... ... : ... .. . ... : ... .. 3 ... : ... .. . ... ... : ... .. . ... ... : ... .. . ... ... : ... .. 4 ... ...
ROW BB : E-3 00 A P89 ... ... : ... .. . P77 ... ... : --- .. . ... : ... .. 2 ... : ... .. . ... ... : ... .. . ... ... : ... .. . ... ... : ... .. 3 ... ...
ROW BC : ... .. . P86 ... ... : ... .. . P74 ... ... : C-5 00 . ... : 8-# 00 F ... : ... .. . ... ... : G-3 01 9 ... V03 : G-4 01 9 ... V03 : D-5 01 8 ... ...
ROW BD : F-3 00 2 P77 ... ... : ... .. 2 P78 ... ... : ... .. . ... : ... .. C ... : ... .. . ... ... : ... .. 8 ... V01 : ... .. 8 ... V01 : ... .. 7 ... ...
ROW BE : ... .. . P7F ... ... : ... .. . P80 ... ... : ... .. . ... : ... .. 6 ... : ... .. . ... ... : ... .. . ... ... : ... .. . ... ... : ... .. 6 ... ...
ROW BF : ... .. . P86 ... ... : ... .. . P87 ... ... : ... .. . ... : ... .. 3 ... : ... .. . ... ... : ... .. . ... ... : ... .. . ... ... : ... .. 4 ... ...
ROW C0 : F#3 00 1 P7A ... ... : ... .. 1 P8D ... ... : --- .. . ... : ... .. 2 ... : ... .. . ... ... : ... .. . ... ... : ... .. . ... ... : ... .. 3 ... ...
ROW C1 : ... .. . ... ... ... : ... .. . ... ... ... : C-5 00 . ... : ... .. F ... : ... .. . ... ... : A-3 01 9 ... V03 : A-4 01 9 ... V03 : C-5 01 8 ... ...
ROW C2 : F-3 00 1 P86 ... ... : ... .. . P87 ... ... : ... .. . ... : ... .. C ... : ... .. . ... ... : ... .. 8 ... V01 : ... .. 8 ... V01 : ... .. 7 ... ...
ROW C3 : ... .. 0 ... ... ... : ... .. 0 ... ... ... : ... .. . ... : ... .. 6 ... : ... .. . ... ... : ... .. . ... ... : ... .. . ... ... : ... .. 6 ... ...
ROW C4 : ... .. . ... ... ... : ... .. . ... ... ... : ... .. . ... : ... .. 3 ... : ... .. . ... ... : ... .. . ... ... : ... .. . ... ... : ... .. 4 ... ...
ROW C5 : ... .. . ... ... ... : ... .. . ... ... ... : --- .. . ... : ... .. 2 ... : ... .. . ... ... : ... .. . ... ... : ... .. . ... ... : ... .. 3 ... ...
ROW C6 : ... .. . ... ... ... : ... .. . ... ... ... : G-5 00 . ... : F-# 00 F ... : ... .. . ... ... : A#3 01 9 ... V03 : A#4 01 9 ... V03 : A#4 01 8 ... ...
ROW C7 : ... .. . ... ... ... : ... .. . ... ... ... : ... .. . ... : ... .. C ... : ... .. . ... ... : ... .. 8 ... V01 : ... .. 8 ... V01 : ... .. 7 ... ...
ROW C8 : ... .. . ... ... ... : ... .. . ... ... ... : ... .. . ... : ... .. 6 ... : ... .. . ... ... : ... .. . ... ... : ... .. . ... ... : ... .. 6 ... ...
ROW C9 : ... .. . ... ... ... : ... .. . ... ... ... : ... .. . ... : ... .. 3 ... : ... .. . ... ... : ... .. . ... ... : ... .. . ... ... : ... .. 4 ... ...
ROW CA : ... .. . ... ... ... : ... .. . ... ... ... : --- .. . ... : ... .. 2 ... : ... .. . ... ... : ... .. . ... ... : ... .. . ... ... : ... .. 3 ... ...
ROW CB : ... .. . ... ... ... : ... .. . ... ... ... : G-5 00 . ... : ... .. F ... : ... .. . ... ... : C-4 01 9 ... V03 : C-5 01 9 ... V03 : A-4 01 8 ... ...
ROW CC : ... .. . ... ... ... : ... .. . ... ... ... : ... .. . ... : ... .. C ... : ... .. . ... ... : ... .. 8 ... V01 : ... .. 8 ... V01 : ... .. 7 ... ...
ROW CD : ... .. . ... ... ... : ... .. . ... ... ... : ... .. . ... : ... .. 6 ... : ... .. . ... ... : ... .. . ... ... : ... .. . ... ... : ... .. 6 ... ...
ROW CE : ... .. . ... ... ... : ... .. . ... ... ... : ... .. . ... : ... .. 3 ... : ... .. . ... ... : ... .. . ... ... : ... .. . ... ... : ... .. 4 ... ...
ROW CF : ... .. . ... ... ... : ... .. . ... ... ... : --- .. . ... : ... .. 2 ... : ... .. . ... ... : ... .. . ... ... : ... .. . ... ... : ... .. 3 ... ...
ROW D0 : D-4 00 F P80 ... ... : G-3 00 F P81 ... ... : D#3 00 . ... : 1-# 00 F ... : ... .. . ... ... : D-4 01 6 ... V03 : D-5 01 9 ... V03 : G-4 01 8 ... ...
ROW D1 : ... .. E ... ... ... : ... .. E ... ... ... : ... .. . ... : ... .. C ... : ... .. . ... ... : ... .. 5 ... V01 : ... .. 8 ... V01 : ... .. 7 ... ...
ROW D2 : ... .. D ... ... ... : ... .. D ... ... ... : ... .. . ... : ... .. 6 ... : ... .. . ... ... : ... .. . ... ... : ... .. . ... ... : ... .. 6 ... ...
ROW D3 : ... .. A ... ... ... : ... .. A ... ... ... : ... .. . ... : ... .. 3 ... : ... .. . ... ... : ... .. . ... ... : ... .. . ... ... : ... .. 4 ... ...
ROW D4 : ... .. . ... ... ... : ... .. . ... ... ... : ... .. . ... : ... .. 2 ... : ... .. . ... ... : ... .. . ... ... : ... .. . ... ... : ... .. 3 ... ...
ROW D5 : ... .. . ... ... ... : ... .. . ... ... ... : D-3 00 . P75 : C-# 00 8 ... : ... .. . ... ... : ... .. . ... ... : ... .. . ... ... : ... .. 8 ... ...
ROW D6 : ... .. . ... ... ... : ... .. . ... ... ... : C-3 00 . P84 : ... .. 6 ... : ... .. . ... ... : ... .. . ... ... : ... .. . ... ... : ... .. 7 ... ...
ROW D7 : ... .. . ... ... ... : ... .. . ... ... ... : B-2 00 . P7D : ... .. 3 ... : ... .. . ... ... : ... .. 4 ... ... : ... .. 7 ... ... : ... .. 6 ... ...
ROW D8 : ... .. . ... ... ... : ... .. . ... ... ... : A#2 00 . P78 : ... .. 1 ... : ... .. . ... ... : ... .. . ... ... : ... .. . ... ... : ... .. 4 ... ...
ROW D9 : ... .. 2 ... ... ... : ... .. 2 ... ... ... : A-2 00 . P74 : ... .. . ... : ... .. . ... ... : ... .. . ... ... : ... .. . ... ... : ... .. 3 ... ...
ROW DA : D#2 00 F ... ... ... : A-2 00 F ... ... ... : D#2 00 . P80 : ... .. F ... : ... .. . ... ... : A-2 01 6 ... V03 : --- .. . ... ... : G-3 01 8 ... ...
ROW DB : ... .. E ... ... ... : ... .. E ... ... ... : ... .. . ... : ... .. C ... : ... .. . ... ... : ... .. 5 ... V01 : ... .. . ... ... : ... .. 7 ... ...
ROW DC : ... .. D ... ... ... : ... .. D ... ... ... : ... .. . ... : ... .. 6 ... : ... .. . ... ... : ... .. . ... ... : ... .. . ... ... : ... .. 6 ... ...
ROW DD : ... .. A ... ... ... : ... .. A ... ... ... : ... .. . ... : ... .. 3 ... : ... .. . ... ... : ... .. . ... ... : ... .. . ... ... : ... .. 4 ... ...
ROW DE : ... .. 2 ... ... ... : ... .. 2 ... ... ... : --- .. . ... : ... .. 2 ... : ... .. . ... ... : ... .. . ... ... : ... .. . ... ... : ... .. 3 ... ...
ROW DF : ... .. F ... ... ... : ... .. F ... ... ... : D#2 00 . ... : 1-# 00 F ... : ... .. . ... ... : A#2 01 6 ... V03 : ... .. . ... ... : ... .. 8 ... ...
ROW E0 : ... .. E ... ... ... : ... .. E ... ... ... : ... .. . ... : ... .. C ... : ... .. . ... ... : ... .. 5 ... V01 : ... .. . ... ... : ... .. 7 ... ...
ROW E1 : ... .. D ... ... ... : ... .. D ... ... ... : ... .. . ... : ... .. 6 ... : ... .. . ... ... : ... .. . ... ... : ... .. . ... ... : ... .. 6 ... ...
ROW E2 : ... .. A ... ... ... : ... .. A ... ... ... : ... .. . ... : ... .. 3 ... : ... .. . ... ... : ... .. . ... ... : ... .. . ... ... : ... .. 4 ... ...
ROW E3 : ... .. 2 ... ... ... : ... .. 2 ... ... ... : --- .. . ... : ... .. 2 ... : ... .. . ... ... : ... .. . ... ... : ... .. . ... ... : ... .. 3 ... ...
ROW E4 : ... .. F ... ... ... : ... .. F ... ... ... : D#2 00 . ... : 3-# 00 D ... : ... .. . ... ... : D-3 01 6 ... V03 : ... .. . ... ... : A-3 01 8 ... ...
ROW E5 : ... .. E ... ... ... : ... .. E ... ... ... : ... .. . ... : ... .. . ... : ... .. . ... ... : ... .. 5 ... V01 : ... .. . ... ... : ... .. 7 ... ...
ROW E6 : ... .. D ... ... ... : ... .. D ... ... ... : ... .. . ... : F-# 00 D ... : ... .. . ... ... : ... .. . ... ... : ... .. . ... ... : ... .. 6 ... ...
ROW E7 : ... .. A ... ... ... : ... .. A ... ... ... : ... .. . ... : D-# 00 6 ... : ... .. . ... ... : ... .. . ... ... : ... .. . ... ... : ... .. 4 ... ...
ROW E8 : ... .. 2 ... ... ... : ... .. 2 ... ... ... : ... .. . ... : 9-# 00 1 ... : ... .. . ... ... : ... .. . ... ... : ... .. . ... ... : ... .. 3 ... ...
ROW E9 : ... .. F ... ... ... : ... .. F ... ... ... : ... .. . ... : ... .. 0 ... : ... .. . ... ... : G-3 01 6 ... V03 : ... .. . ... ... : ... .. 8 ... ...
ROW EA : ... .. E ... ... ... : ... .. E ... ... ... : ... .. . ... : ... .. . ... : ... .. . ... ... : ... .. 5 ... V01 : ... .. . ... ... : ... .. 7 ... ...
ROW EB : ... .. D ... ... ... : ... .. D ... ... ... : ... .. . ... : ... .. . ... : ... .. . ... ... : ... .. . ... ... : ... .. . ... ... : ... .. 6 ... ...
ROW EC : ... .. A ... ... ... : ... .. A ... ... ... : ... .. . ... : ... .. . ... : ... .. . ... ... : ... .. . ... ... : ... .. . ... ... : ... .. 4 ... ...
ROW ED : ... .. 2 ... ... ... : ... .. 2 ... ... ... : --- .. . ... : ... .. . ... : ... .. . ... ... : ... .. . ... ... : ... .. . ... ... : ... .. 3 ... ...
ROW EE : D-4 00 F ... ... ... : G-3 00 F ... ... ... : D#3 00 . ... : 1-# 00 F ... : ... .. . ... ... : A-3 01 6 ... V03 : G-3 01 9 ... V03 : F-4 01 8 ... ...
ROW EF : ... .. E ... ... ... : ... .. E ... ... ... : ... .. . ... : ... .. C ... : ... .. . ... ... : ... .. 5 ... V01 : ... .. 8 ... V01 : ... .. 7 ... ...
ROW F0 : ... .. D ... ... ... : ... .. D ... ... ... : ... .. . ... : ... .. 6 ... : ... .. . ... ... : ... .. . ... ... : ... .. . ... ... : ... .. 6 ... ...
ROW F1 : ... .. A ... ... ... : ... .. A ... ... ... : ... .. . ... : ... .. 3 ... : ... .. . ... ... : ... .. . ... ... : ... .. . ... ... : ... .. 4 ... ...
ROW F2 : ... .. . ... ... ... : ... .. . ... ... ... : ... .. . ... : ... .. 2 ... : ... .. . ... ... : ... .. . ... ... : ... .. . ... ... : ... .. 3 ... ...
ROW F3 : ... .. . ... ... ... : ... .. . ... ... ... : D-3 00 . P75 : C-# 00 7 ... : ... .. . ... ... : ... .. . ... ... : ... .. . ... ... : ... .. 8 ... ...
ROW F4 : ... .. . ... ... ... : ... .. . ... ... ... : C-3 00 . P84 : ... .. 5 ... : ... .. . ... ... : ... .. . ... ... : ... .. . ... ... : ... .. 7 ... ...
ROW F5 : ... .. . ... ... ... : ... .. . ... ... ... : B-2 00 . P7D : ... .. 2 ... : ... .. . ... ... : ... .. 4 ... ... : ... .. 7 ... ... : ... .. 6 ... ...
ROW F6 : ... .. . ... ... ... : ... .. . ... ... ... : A#2 00 . P78 : ... .. 1 ... : ... .. . ... ... : ... .. . ... ... : ... .. . ... ... : ... .. 4 ... ...
ROW F7 : ... .. 2 ... ... ... : ... .. 2 ... ... ... : A-2 00 . P74 : ... .. . ... : ... .. . ... ... : ... .. . ... ... : ... .. . ... ... : ... .. 3 ... ...
ROW F8 : D#2 00 F ... ... ... : A#2 00 F ... ... ... : D#2 00 . P80 : ... .. F ... : ... .. . ... ... : A-2 01 6 ... V03 : --- .. . P80 ... : G-3 01 8 ... ...
ROW F9 : ... .. E ... ... ... : ... .. E ... ... ... : ... .. . ... : ... .. C ... : ... .. . ... ... : ... .. 5 ... V01 : ... .. . ... ... : ... .. 7 ... ...
ROW FA : ... .. D ... ... ... : ... .. D ... ... ... : ... .. . ... : ... .. 6 ... : ... .. . ... ... : ... .. . ... ... : ... .. . ... ... : ... .. 6 ... ...
ROW FB : ... .. A ... ... ... : ... .. A ... ... ... : ... .. . ... : ... .. 3 ... : ... .. . ... ... : ... .. . ... ... : ... .. . ... ... : ... .. 4 ... ...
ROW FC : ... .. 2 ... ... ... : ... .. 2 ... ... ... : --- .. . ... : ... .. 2 ... : ... .. . ... ... : ... .. . ... ... : ... .. . ... ... : ... .. 3 ... ...
ROW FD : ... .. F ... ... ... : ... .. F ... ... ... : D#2 00 . ... : 1-# 00 F ... : ... .. . ... ... : A#2 01 6 ... V03 : ... .. . ... ... : ... .. 8 ... ...
ROW FE : ... .. E ... ... ... : ... .. E ... ... ... : ... .. . ... : ... .. C ... : ... .. . ... ... : ... .. 5 ... V01 : ... .. . ... ... : ... .. 7 ... ...
ROW FF : ... .. D ... ... ... : ... .. D ... ... ... : ... .. . ... : ... .. 6 ... : ... .. . ... ... : ... .. . ... ... : ... .. . ... ... : ... .. 6 ... ...

PATTERN 12
ROW 00 : ... .. A ... ... ... : ... .. A ... ... ... : ... .. . ... : ... .. 3 ... : ... .. . ... ... : ... .. . ... ... : ... .. . ... ... : ... .. 4 ... ...
ROW 01 : ... .. 2 ... ... ... : ... .. 2 ... ... ... : --- .. . ... : ... .. 2 ... : ... .. . ... ... : ... .. . ... ... : ... .. . ... ... : ... .. 3 ... ...
ROW 02 : ... .. F ... ... ... : ... .. F ... ... ... : D#2 00 . ... : 3-# 00 D ... : ... .. . ... ... : D-3 01 6 ... V03 : ... .. . ... ... : A-3 01 8 ... ...
ROW 03 : ... .. E ... ... ... : ... .. E ... ... ... : ... .. . ... : ... .. . ... : ... .. . ... ... : ... .. 5 ... V01 : ... .. . ... ... : ... .. 7 ... ...
ROW 04 : ... .. D ... ... ... : ... .. D ... ... ... : ... .. . ... : F-# 00 D ... : ... .. . ... ... : ... .. . ... ... : ... .. . ... ... : ... .. 6 ... ...
ROW 05 : ... .. A ... ... ... : ... .. A ... ... ... : ... .. . ... : D-# 00 6 ... : ... .. . ... ... : ... .. . ... ... : ... .. . ... ... : ... .. 4 ... ...
ROW 06 : ... .. 2 ... ... ... : ... .. 2 ... ... ... : ... .. . ... : 9-# 00 1 ... : ... .. . ... ... : ... .. . ... ... : ... .. . ... ... : ... .. 3 ... ...
ROW 07 : ... .. F ... ... ... : ... .. F ... ... ... : ... .. . ... : ... .. 0 ... : ... .. . ... ... : G-3 01 6 ... V03 : ... .. . ... ... : ... .. 8 ... ...
ROW 08 : ... .. E ... ... ... : ... .. E ... ... ... : ... .. . ... : ... .. . ... : ... .. . ... ... : ... .. 5 ... V01 : ... .. . ... ... : ... .. 7 ... ...
ROW 09 : ... .. D ... ... ... : ... .. D ... ... ... : ... .. . ... : ... .. . ... : ... .. . ... ... : ... .. . ... ... : ... .. . ... ... : ... .. 6 ... ...
ROW 0A : ... .. A ... ... ... : ... .. A ... ... ... : ... .. . ... : ... .. . ... : ... .. . ... ... : ... .. . ... ... : ... .. . ... ... : ... .. 4 ... ...
ROW 0B : ... .. 2 ... ... ... : ... .. 2 ... ... ... : --- .. . ... : ... .. . ... : ... .. . ... ... : ... .. . ... ... : ... .. . ... ... : ... .. 3 ... ...
ROW 0C : D-4 00 F ... ... ... : G-3 00 F ... ... ... : D#3 00 . ... : 1-# 00 F ... : ... .. . ... ... : A-3 01 6 ... V03 : C-4 01 9 P7F V03 : F-4 01 8 ... ...
ROW 0D : ... .. E ... ... ... : ... .. E ... ... ... : ... .. . ... : ... .. C ... : ... .. . ... ... : ... .. 5 ... V01 : ... .. 8 ... V01 : ... .. 7 ... ...
ROW 0E : ... .. D ... ... ... : ... .. D ... ... ... : ... .. . ... : ... .. 6 ... : ... .. . ... ... : ... .. . ... ... : ... .. . ... ... : ... .. 6 ... ...
ROW 0F : ... .. A ... ... ... : ... .. A ... ... ... : ... .. . ... : ... .. 3 ... : ... .. . ... ... : ... .. . ... ... : ... .. . ... ... : ... .. 4 ... ...
ROW 10 : ... .. . ... ... ... : ... .. . ... ... ... : ... .. . ... : ... .. 2 ... : ... .. . ... ... : ... .. . ... ... : ... .. . ... ... : ... .. 3 ... ...
ROW 11 : ... .. . ... ... ... : ... .. . ... ... ... : D-3 00 . P75 : C-# 00 8 ... : ... .. . ... ... : ... .. . ... ... : ... .. . ... ... : ... .. 8 ... ...
ROW 12 : ... .. . ... ... ... : ... .. . ... ... ... : C-3 00 . P84 : ... .. 6 ... : ... .. . ... ... : ... .. . ... ... : ... .. . ... ... : ... .. 7 ... ...
ROW 13 : ... .. . ... ... ... : ... .. . ... ... ... : B-2 00 . P7D : ... .. 3 ... : ... .. . ... ... : ... .. 4 ... ... : ... .. 7 ... ... : ... .. 6 ... ...
ROW 14 : ... .. . ... ... ... : ... .. . ... ... ... : A#2 00 . P78 : ... .. 1 ... : ... .. . ... ... : ... .. . ... ... : ... .. . ... ... : ... .. 4 ... ...
ROW 15 : ... .. 2 ... ... ... : ... .. 2 ... ... ... : A-2 00 . P74 : ... .. . ... : ... .. . ... ... : ... .. . ... ... : ... .. . ... ... : ... .. 3 ... ...
ROW 16 : D#2 00 F ... ... ... : C-3 00 F ... ... ... : D#2 00 . P80 : ... .. F ... : ... .. . ... ... : A-2 01 6 ... V03 : --- .. . ... ... : G-3 01 8 ... ...
ROW 17 : ... .. E ... ... ... : ... .. E ... ... ... : ... .. . ... : ... .. C ... : ... .. . ... ... : ... .. 5 ... V01 : ... .. . ... ... : ... .. 7 ... ...
ROW 18 : ... .. D ... ... ... : ... .. D ... ... ... : ... .. . ... : ... .. 6 ... : ... .. . ... ... : ... .. . ... ... : ... .. . ... ... : ... .. 6 ... ...
ROW 19 : ... .. A ... ... ... : ... .. A ... ... ... : ... .. . ... : ... .. 3 ... : ... .. . ... ... : ... .. . ... ... : ... .. . ... ... : ... .. 4 ... ...
ROW 1A : ... .. 2 ... ... ... : ... .. 2 ... ... ... : --- .. . ... : ... .. 2 ... : ... .. . ... ... : ... .. . ... ... : ... .. . ... ... : ... .. 3 ... ...
ROW 1B : ... .. F ... ... ... : ... .. F ... ... ... : D#2 00 . ... : 1-# 00 F ... : ... .. . ... ... : A#2 01 6 ... V03 : ... .. . ... ... : ... .. 8 ... ...
ROW 1C : ... .. E ... ... ... : ... .. E ... ... ... : ... .. . ... : ... .. C ... : ... .. . ... ... : ... .. 5 ... V01 : ... .. . ... ... : ... .. 7 ... ...
ROW 1D : ... .. D ... ... ... : ... .. D ... ... ... : ... .. . ... : ... .. 6 ... : ... .. . ... ... : ... .. . ... ... : ... .. . ... ... : ... .. 6 ... ...
ROW 1E : ... .. A ... ... ... : ... .. A ... ... ... : ... .. . ... : ... .. 3 ... : ... .. . ... ... : ... .. . ... ... : ... .. . ... ... : ... .. 4 ... ...
ROW 1F : ... .. 2 ... ... ... : ... .. 2 ... ... ... : --- .. . ... : ... .. 2 ... : ... .. . ... ... : ... .. . ... ... : ... .. . ... ... : ... .. 3 ... ...
ROW 20 : ... .. F ... ... ... : ... .. F ... ... ... : D#2 00 . ... : 3-# 00 D ... : ... .. . ... ... : D-3 01 6 ... V03 : ... .. . ... ... : A-3 01 8 ... ...
ROW 21 : ... .. E ... ... ... : ... .. E ... ... ... : ... .. . ... : ... .. . ... : ... .. . ... ... : ... .. 5 ... V01 : ... .. . ... ... : ... .. 7 ... ...
ROW 22 : ... .. D ... ... ... : ... .. D ... ... ... : ... .. . ... : F-# 00 D ... : ... .. . ... ... : ... .. . ... ... : ... .. . ... ... : ... .. 6 ... ...
ROW 23 : ... .. A ... ... ... : ... .. A ... ... ... : ... .. . ... : D-# 00 6 ... : ... .. . ... ... : ... .. . ... ... : ... .. . ... ... : ... .. 4 ... ...
ROW 24 : ... .. 2 ... ... ... : ... .. 2 ... ... ... : ... .. . ... : 9-# 00 1 ... : ... .. . ... ... : ... .. . ... ... : ... .. . ... ... : ... .. 3 ... ...
ROW 25 : ... .. F ... ... ... : ... .. F ... ... ... : ... .. . ... : ... .. 0 ... : ... .. . ... ... : G-3 01 6 ... V03 : ... .. . ... ... : ... .. 8 ... ...
ROW 26 : ... .. E ... ... ... : ... .. E ... ... ... : ... .. . ... : ... .. . ... : ... .. . ... ... : ... .. 5 ... V01 : ... .. . ... ... : ... .. 7 ... ...
ROW 27 : ... .. D ... ... ... : ... .. D ... ... ... : ... .. . ... : ... .. . ... : ... .. . ... ... : ... .. . ... ... : ... .. . ... ... : ... .. 6 ... ...
ROW 28 : ... .. A ... ... ... : ... .. A ... ... ... : ... .. . ... : ... .. . ... : ... .. . ... ... : ... .. . ... ... : ... .. . ... ... : ... .. 4 ... ...
ROW 29 : ... .. 2 ... ... ... : ... .. 2 ... ... ... : --- .. . ... : ... .. . ... : ... .. . ... ... : ... .. . ... ... : ... .. . ... ... : ... .. 3 ... ...
ROW 2A : D-4 00 F ... ... ... : G-3 00 F ... ... ... : D#3 00 . ... : 1-# 00 F ... : ... .. . ... ... : A-3 01 6 ... V03 : F-3 01 9 ... V03 : D#4 01 8 ... ...
ROW 2B : ... .. E ... ... ... : ... .. E ... ... ... : ... .. . ... : ... .. C ... : ... .. . ... ... : ... .. 5 ... V01 : ... .. 8 ... V01 : ... .. 7 ... ...
ROW 2C : ... .. D ... ... ... : ... .. D ... ... ... : ... .. . ... : ... .. 6 ... : ... .. . ... ... : ... .. . ... ... : ... .. . ... ... : ... .. 6 ... ...
ROW 2D : ... .. A ... ... ... : ... .. A ... ... ... : ... .. . ... : ... .. 3 ... : ... .. . ... ... : ... .. . ... ... : ... .. . ... ... : ... .. 4 ... ...
ROW 2E : ... .. . ... ... ... : ... .. . ... ... ... : ... .. . ... : ... .. 2 ... : ... .. . ... ... : ... .. . ... ... : ... .. . ... ... : ... .. 3 ... ...
ROW 2F : ... .. . ... ... ... : ... .. . ... ... ... : D-3 00 . P75 : C-# 00 7 ... : ... .. . ... ... : ... .. . ... ... : ... .. . ... ... : ... .. 8 ... ...
ROW 30 : ... .. . ... ... ... : ... .. . ... ... ... : C-3 00 . P84 : ... .. 5 ... : ... .. . ... ... : ... .. . ... ... : ... .. . ... ... : ... .. 7 ... ...
ROW 31 : ... .. . ... ... ... : ... .. . ... ... ... : B-2 00 . P7D : ... .. 2 ... : ... .. . ... ... : ... .. 4 ... ... : ... .. 7 ... ... : ... .. 6 ... ...
ROW 32 : ... .. . ... ... ... : ... .. . ... ... ... : A#2 00 . P78 : ... .. 1 ... : ... .. . ... ... : ... .. . ... ... : ... .. . ... ... : ... .. 4 ... ...
ROW 33 : ... .. 2 ... ... ... : ... .. 2 ... ... ... : A-2 00 . P74 : ... .. . ... : ... .. . ... ... : ... .. . ... ... : ... .. . ... ... : ... .. 3 ... ...
ROW 34 : A-2 00 F ... ... ... : G-2 00 F ... ... ... : D#2 00 . P80 : ... .. F ... : ... .. . ... ... : --- .. . ... ... : --- .. . ... ... : G-3 01 8 ... ...
ROW 35 : ... .. E ... ... ... : ... .. E ... ... ... : ... .. . ... : ... .. C ... : ... .. . ... ... : ... .. . ... ... : ... .. . ... ... : ... .. 7 ... ...
ROW 36 : ... .. D ... ... ... : ... .. D ... ... ... : ... .. . ... : ... .. 6 ... : ... .. . ... ... : ... .. . ... ... : ... .. . ... ... : ... .. 6 ... ...
ROW 37 : ... .. A ... ... ... : ... .. A ... ... ... : ... .. . ... : ... .. 3 ... : ... .. . ... ... : ... .. . ... ... : ... .. . ... ... : ... .. 4 ... ...
ROW 38 : ... .. 2 ... ... ... : ... .. 2 ... ... ... : --- .. . ... : ... .. 2 ... : ... .. . ... ... : ... .. . ... ... : ... .. . ... ... : ... .. 3 ... ...
ROW 39 : G-2 00 F ... ... ... : ... .. F ... ... ... : D#2 00 . ... : 1-# 00 F ... : ... .. . ... ... : ... .. . ... ... : ... .. . ... ... : ... .. 8 ... ...
ROW 3A : ... .. E ... ... ... : ... .. E ... ... ... : ... .. . ... : ... .. C ... : ... .. . ... ... : ... .. . ... ... : ... .. . ... ... : ... .. 7 ... ...
ROW 3B : ... .. D ... ... ... : ... .. D ... ... ... : ... .. . ... : ... .. 6 ... : ... .. . ... ... : ... .. . ... ... : ... .. . ... ... : ... .. 6 ... ...
ROW 3C : ... .. A ... ... ... : ... .. A ... ... ... : ... .. . ... : ... .. 3 ... : ... .. . ... ... : ... .. . ... ... : ... .. . ... ... : ... .. 4 ... ...
ROW 3D : ... .. 2 ... ... ... : ... .. 2 ... ... ... : --- .. . ... : ... .. 2 ... : ... .. . ... ... : ... .. . ... ... : ... .. . ... ... : ... .. 3 ... ...
ROW 3E : F-2 00 F ... ... ... : ... .. F ... ... ... : D#2 00 . ... : 3-# 00 D ... : ... .. . ... ... : D#3 01 9 ... V03 : ... .. . ... ... : A-3 01 8 ... ...
ROW 3F : ... .. E ... ... ... : ... .. E ... ... ... : ... .. . ... : ... .. . ... : ... .. . ... ... : ... .. 8 ... V01 : ... .. . ... ... : ... .. 7 ... ...
ROW 40 : ... .. D ... ... ... : ... .. D ... ... ... : ... .. . ... : F-# 00 D ... : ... .. . ... ... : ... .. . ... ... : ... .. . ... ... : ... .. 6 ... ...
ROW 41 : ... .. A ... ... ... : ... .. A ... ... ... : ... .. . ... : D-# 00 6 ... : ... .. . ... ... : ... .. . ... ... : ... .. . ... ... : ... .. 4 ... ...
ROW 42 : ... .. 2 ... ... ... : ... .. 2 ... ... ... : ... .. . ... : 9-# 00 1 ... : ... .. . ... ... : ... .. . ... ... : ... .. . ... ... : ... .. 3 ... ...
ROW 43 : D#2 00 F ... ... ... : ... .. F ... ... ... : ... .. . ... : ... .. 0 ... : ... .. . ... ... : D-3 01 9 ... V03 : ... .. . ... ... : ... .. 8 ... ...
ROW 44 : ... .. E ... ... ... : ... .. E ... ... ... : ... .. . ... : ... .. . ... : ... .. . ... ... : ... .. 8 ... V01 : ... .. . ... ... : ... .. 7 ... ...
ROW 45 : ... .. D ... ... ... : ... .. D ... ... ... : ... .. . ... : ... .. . ... : ... .. . ... ... : ... .. . ... ... : ... .. . ... ... : ... .. 6 ... ...
ROW 46 : ... .. A ... ... ... : ... .. A ... ... ... : ... .. . ... : ... .. . ... : ... .. . ... ... : ... .. . ... ... : ... .. . ... ... : ... .. 4 ... ...
ROW 47 : ... .. 2 ... ... ... : ... .. 2 ... ... ... : --- .. . ... : ... .. . ... : ... .. . ... ... : ... .. . ... ... : ... .. . ... ... : ... .. 3 ... ...
ROW 48 : D-5 00 F ... ... ... : D-4 00 F ... ... ... : D#4 00 . ... : 1-# 00 F ... : ... .. . ... ... : C-3 01 9 ... V03 : D#3 01 9 ... V03 : D-4 01 A ... ...
ROW 49 : ... .. E ... ... ... : ... .. E ... ... ... : ... .. . ... : ... .. C ... : ... .. . ... ... : ... .. 8 ... V01 : ... .. 8 ... V01 : ... .. 8 ... ...
ROW 4A : ... .. D ... ... ... : ... .. D ... ... ... : ... .. . ... : ... .. 6 ... : ... .. . ... ... : ... .. . ... ... : ... .. . ... ... : ... .. 5 ... ...
ROW 4B : ... .. A ... ... ... : ... .. A ... ... ... : ... .. . ... : ... .. 3 ... : ... .. . ... ... : ... .. . ... ... : ... .. . ... ... : ... .. . ... ...
ROW 4C : ... .. . ... ... ... : ... .. . ... ... ... : ... .. . ... : ... .. 2 ... : ... .. . ... ... : ... .. . ... ... : ... .. . ... ... : ... .. . ... ...
ROW 4D : ... .. . ... ... ... : ... .. . ... ... ... : ... .. . ... : ... .. 0 ... : ... .. . ... ... : A#2 01 9 ... V03 : D-3 01 9 ... V03 : ... .. . ... ...
ROW 4E : ... .. . ... ... ... : ... .. . ... ... ... : ... .. . ... : ... .. . ... : ... .. . ... ... : ... .. 8 ... V01 : ... .. 8 ... V01 : ... .. . ... ...
ROW 4F : ... .. . ... ... ... : ... .. . ... ... ... : ... .. . ... : ... .. . ... : ... .. . ... ... : ... .. . ... ... : ... .. . ... ... : ... .. . ... ...
ROW 50 : ... .. 0 ... ... ... : ... .. 0 ... ... ... : ... .. . ... : ... .. . ... : ... .. . ... ... : ... .. . ... ... : ... .. . ... ... : ... .. . ... ...
ROW 51 : ... .. . ... ... ... : ... .. . ... ... ... : ... .. . ... : ... .. . ... : ... .. . ... ... : ... .. . ... ... : ... .. . ... ... : ... .. . ... ...
ROW 52 : D-5 00 8 P80 ... ... : D-4 00 8 P81 ... ... : ... .. . ... : ... .. . ... : ... .. . ... ... : A-2 01 9 ... V03 : C-3 01 9 ... V03 : C#4 01 5 P7D ...
ROW 53 : ... .. 7 ... ... ... : ... .. 7 ... ... ... : ... .. . ... : ... .. . ... : ... .. . ... ... : ... .. 8 ... V01 : ... .. 8 ... V01 : C-4 01 5 P7A ...
ROW 54 : ... .. 6 ... ... ... : ... .. 6 ... ... ... : ... .. . ... : ... .. . ... : ... .. . ... ... : ... .. . ... ... : ... .. . ... ... : B-3 01 5 P79 ...
ROW 55 : ... .. 5 ... ... ... : ... .. 5 ... ... ... : D-4 00 . P82 : ... .. . ... : ... .. . ... ... : ... .. . ... ... : ... .. . ... ... : A#3 01 5 P78 ...
ROW 56 : ... .. . ... ... ... : ... .. . ... ... ... : C#4 00 . P86 : ... .. . ... : ... .. . ... ... : ... .. . ... ... : ... .. . ... ... : A-3 01 5 P79 ...
ROW 57 : ... .. . ... ... ... : ... .. . ... ... ... : ... .. . P7E : ... .. . ... : ... .. . ... ... : G-2 01 9 ... V03 : A#2 01 9 ... V03 : G#3 01 5 P7A ...
ROW 58 : ... .. . ... ... ... : ... .. . ... ... ... : C-4 00 . P82 : ... .. . ... : ... .. . ... ... : ... .. 8 ... V01 : ... .. 8 ... V01 : G-3 01 5 P7C ...
ROW 59 : ... .. . ... ... ... : ... .. . ... ... ... : B-3 00 . P86 : ... .. . ... : ... .. . ... ... : ... .. . ... ... : ... .. . ... ... : F#3 01 5 P80 ...
ROW 5A : ... .. 0 ... ... ... : ... .. 0 ... ... ... : ... .. . P7E : ... .. . ... : ... .. . ... ... : ... .. . ... ... : ... .. . ... ... : F-3 01 5 P84 ...
ROW 5B : ... .. . ... ... ... : ... .. . ... ... ... : A#3 00 . P84 : ... .. . ... : ... .. . ... ... : ... .. . ... ... : ... .. . ... ... : E-3 01 5 P8A ...
ROW 5C : D-5 00 4 P80 ... ... : D-4 00 4 P81 ... ... : ... .. . P7C : ... .. . ... : ... .. . ... ... : F-2 01 9 ... V03 : A-2 01 9 ... V03 : ... .. . P7A ...
ROW 5D : ... .. 3 ... ... ... : ... .. 3 ... ... ... : A-3 00 . P82 : ... .. . ... : ... .. . ... ... : ... .. 8 ... V01 : ... .. 8 ... V01 : D#3 01 5 P81 ...
ROW 5E : ... .. . ... ... ... : ... .. . ... ... ... : ... .. . P7A : ... .. . ... : ... .. . ... ... : ... .. . ... ... : ... .. . ... ... : D-3 01 5 P89 ...
ROW 5F : ... .. 2 ... ... ... : ... .. 2 ... ... ... : G#3 00 . P81 : ... .. . ... : ... .. . ... ... : ... .. . ... ... : ... .. . ... ... : ... .. . P79 ...
ROW 60 : ... .. . ... ... ... : ... .. . ... ... ... : ... .. . P79 : ... .. . ... : ... .. . ... ... : ... .. . ... ... : ... .. . ... ... : C#3 01 5 P83 ...
ROW 61 : ... .. . ... ... ... : ... .. . ... ... ... : G-3 00 . P81 : ... .. . ... : ... .. . ... ... : D#2 01 9 ... V03 : G-2 01 9 ... V03 : ... .. . P73 ...
ROW 62 : ... .. . ... ... ... : ... .. . ... ... ... : ... .. . P79 : ... .. . ... : ... .. . ... ... : ... .. 8 ... V01 : ... .. 8 ... V01 : C-3 01 5 P7F ...
ROW 63 : ... .. . ... ... ... : ... .. . ... ... ... : F#3 00 . P82 : ... .. . ... : ... .. . ... ... : ... .. . ... ... : ... .. . ... ... : B-2 01 5 P8C ...
ROW 64 : ... .. 0 ... ... ... : ... .. 0 ... ... ... : ... .. . P7A : ... .. . ... : ... .. . ... ... : ... .. . ... ... : ... .. . ... ... : ... .. . P7C ...
ROW 65 : ... .. . ... ... ... : ... .. . ... ... ... : F-3 00 . P84 : ... .. . ... : ... .. . ... ... : ... .. . ... ... : ... .. . ... ... : A#2 01 5 P8A ...
ROW 66 : D-5 00 2 P80 ... ... : D-4 00 2 P81 ... ... : ... .. . P7C : ... .. . ... : ... .. . ... ... : D-2 01 9 ... V03 : F-2 01 9 ... V03 : ... .. . P7A ...
ROW 67 : ... .. 1 ... ... ... : ... .. 1 ... ... ... : E-3 00 . P87 : ... .. . ... : ... .. . ... ... : ... .. 8 ... V01 : ... .. 8 ... V01 : A-2 01 5 P8B ...
ROW 68 : ... .. . ... ... ... : ... .. . ... ... ... : ... .. . P7F : ... .. . ... : ... .. . ... ... : ... .. . ... ... : ... .. . ... ... : ... .. . P7B ...
ROW 69 : ... .. . ... ... ... : ... .. . ... ... ... : ... .. . P77 : ... .. . ... : ... .. . ... ... : ... .. . ... ... : ... .. . ... ... : G#2 01 5 P8E ...
ROW 6A : ... .. . ... ... ... : ... .. . ... ... ... : D#3 00 . P84 : ... .. . ... : ... .. . ... ... : ... .. . ... ... : ... .. . ... ... : ... .. . P7E ...
ROW 6B : ... .. . ... ... ... : ... .. . ... ... ... : ... .. . P7C : ... .. . ... : ... .. . ... ... : C-2 01 9 ... V03 : D#2 01 9 ... V03 : G-2 01 5 P92 ...
ROW 6C : ... .. . ... ... ... : ... .. . ... ... ... : D-3 00 . P89 : ... .. . ... : ... .. . ... ... : ... .. 8 ... V01 : ... .. 8 ... V01 : ... .. . P82 ...
ROW 6D : ... .. . ... ... ... : ... .. . ... ... ... : ... .. . P81 : ... .. . ... : ... .. . ... ... : ... .. . ... ... : ... .. . ... ... : ... .. . P72 ...
ROW 6E : ... .. 0 ... ... ... : ... .. 0 ... ... ... : ... .. . P79 : ... .. . ... : ... .. . ... ... : ... .. . ... ... : ... .. . ... ... : F#2 01 5 P89 ...
ROW 6F : ... .. . ... ... ... : ... .. . ... ... ... : C#3 00 . P88 : ... .. . ... : ... .. . ... ... : ... .. . ... ... : ... .. . ... ... : ... .. . P79 ...
ROW 70 : D-3 00 F P80 ... ... : D-4 00 8 P80 ... ... : D-3 00 . P80 : ... .. F ... : ... .. . Z00 ... : A-3 01 7 P7F V05 : D-3 01 7 P81 V05 : D-2 01 A P80 ...
ROW 71 : ... .. E ... ... ... : ... .. 3 ... ... ... : ... .. . ... : ... .. C ... : ... .. . ... ... : ... .. 6 ... ... : ... .. 6 ... ... : ... .. 8 ... ...
ROW 72 : ... .. D ... ... ... : ... .. 0 ... ... ... : ... .. . ... : ... .. 6 ... : ... .. . ... ... : ... .. . ... ... : ... .. . ... ... : ... .. 5 ... ...
ROW 73 : ... .. A ... ... ... : D-4 00 3 P80 ... ... : ... .. . ... : ... .. 3 ... : ... .. . ... ... : ... .. . ... ... : ... .. . ... ... : ... .. . ... ...
ROW 74 : ... .. . ... ... ... : ... .. 4 ... ... ... : ... .. . ... : ... .. 2 ... : ... .. . ... ... : ... .. 5 ... ... : ... .. 5 ... ... : ... .. . ... ...
ROW 75 : ... .. . ... ... ... : A-3 00 8 ... ... ... : ... .. . ... : D-# 00 8 ... : ... .. . ... ... : ... .. . ... ... : ... .. . ... ... : ... .. . ... ...
ROW 76 : ... .. . ... ... ... : ... .. 3 ... ... ... : ... .. . ... : ... .. 6 ... : ... .. . ... ... : ... .. . ... ... : ... .. . ... ... : ... .. . ... ...
ROW 77 : ... .. . ... ... ... : ... .. 0 ... ... ... : ... .. . ... : ... .. 3 ... : ... .. . ... ... : ... .. 4 ... ... : ... .. 4 ... ... : ... .. . ... ...
ROW 78 : ... .. . ... ... ... : A-3 00 3 P80 ... ... : --- .. . ... : ... .. 1 ... : ... .. . ... ... : ... .. . ... ... : ... .. . ... ... : ... .. . ... ...
ROW 79 : ... .. . ... ... ... : ... .. 4 ... ... ... : ... .. . ... : ... .. . ... : ... .. . ... ... : ... .. . ... ... : ... .. . ... ... : ... .. . ... ...
ROW 7A : ... .. . ... ... ... : G-3 00 8 ... ... ... : D-3 00 . ... : ... .. A ... : ... .. . ... ... : --- .. . ... ... : --- .. . P83 ... : ... .. . ... ...
ROW 7B : ... .. . ... ... ... : ... .. 3 ... ... ... : ... .. . ... : ... .. 8 ... : ... .. . ... ... : ... .. . ... ... : ... .. . ... ... : ... .. . ... ...
ROW 7C : ... .. . ... ... ... : ... .. 0 ... ... ... : ... .. . ... : ... .. 4 ... : ... .. . ... ... : ... .. . ... ... : ... .. . ... ... : ... .. . ... ...
ROW 7D : ... .. . ... ... ... : G-3 00 3 P80 ... ... : ... .. . ... : ... .. 2 ... : ... .. . ... ... : ... .. . ... ... : ... .. . ... ... : ... .. . ... ...
ROW 7E : ... .. . ... ... ... : ... .. 4 ... ... ... : ... .. . ... : ... .. 1 ... : ... .. . ... ... : ... .. . ... ... : ... .. . ... ... : ... .. . ... ...
ROW 7F : ... .. . ... ... ... : D-3 00 8 ... ... ... : ... .. . ... : ... .. 8 ... : ... .. . ... ... : ... .. . ... ... : ... .. . ... ... : ... .. . ... ...
ROW 80 : ... .. . ... ... ... : ... .. 3 ... ... ... : ... .. . ... : ... .. 6 ... : ... .. . ... ... : ... .. . ... ... : ... .. . ... ... : ... .. . ... ...
ROW 81 : ... .. . ... ... ... : ... .. 0 ... ... ... : ... .. . ... : ... .. 3 ... : ... .. . ... ... : ... .. . ... ... : ... .. . ... ... : ... .. . ... ...
ROW 82 : ... .. . ... ... ... : D-3 00 3 P80 ... ... : --- .. . ... : ... .. 1 ... : ... .. . ... ... : ... .. . ... ... : ... .. . ... ... : ... .. . ... ...
ROW 83 : ... .. . ... ... ... : ... .. 4 ... ... ... : ... .. . ... : ... .. . ... : ... .. . ... ... : ... .. . ... ... : ... .. . ... ... : ... .. . ... ...
ROW 84 : ... .. . ... ... ... : G-3 00 8 ... ... ... : D-4 00 . ... : 1-# 00 D ... : ... .. . ... ... : A-3 01 7 ... ... : D-3 01 7 P81 ... : ... .. . ... ...
ROW 85 : ... .. . ... ... ... : ... .. 3 ... ... ... : ... .. . ... : ... .. . ... : ... .. . ... ... : ... .. 6 ... ... : ... .. 6 ... ... : ... .. . ... ...
ROW 86 : ... .. . ... ... ... : ... .. 0 ... ... ... : ... .. . ... : D-# 00 D ... : ... .. . ... ... : ... .. . ... ... : ... .. . ... ... : ... .. . ... ...
ROW 87 : ... .. . ... ... ... : G-3 00 3 P80 ... ... : ... .. . ... : B-# 00 6 ... : ... .. . ... ... : --- .. . ... ... : --- .. . P83 ... : ... .. . ... ...
ROW 88 : ... .. . ... ... ... : ... .. 4 ... ... ... : --- .. . ... : 7-# 00 1 ... : ... .. . ... ... : ... .. . ... ... : ... .. . ... ... : ... .. . ... ...
ROW 89 : ... .. . ... ... ... : A-3 00 8 ... ... ... : D-4 00 . ... : D-# 00 8 ... : ... .. . ... ... : A-3 01 7 ... ... : D-3 01 7 P81 ... : ... .. . P84 ...
ROW 8A : ... .. . ... ... ... : ... .. 3 ... ... ... : ... .. . ... : ... .. 6 ... : ... .. . ... ... : ... .. 6 ... ... : ... .. 6 ... ... : ... .. . P86 ...
ROW 8B : ... .. . ... ... ... : ... .. 0 ... ... ... : ... .. . ... : ... .. 3 ... : ... .. . ... ... : ... .. . ... ... : ... .. . ... ... : ... .. . P85 ...
ROW 8C : ... .. . ... ... ... : A-3 00 3 P80 ... ... : ... .. . ... : ... .. 1 ... : ... .. . ... ... : --- .. . ... ... : --- .. . P83 ... : ... .. . P82 ...
ROW 8D : ... .. . ... ... ... : ... .. 4 ... ... ... : --- .. . ... : ... .. . ... : ... .. . ... ... : ... .. . ... ... : ... .. . ... ... : ... .. . P7E ...
ROW 8E : ... .. . ... ... ... : D-4 00 8 ... ... ... : D-3 00 . ... : ... .. A ... : ... .. . ... ... : A-3 01 7 ... ... : D-3 01 7 P81 ... : ... .. . P7B ...
ROW 8F : ... .. . ... ... ... : ... .. 3 ... ... ... : ... .. . ... : ... .. 8 ... : ... .. . ... ... : ... .. 6 ... ... : ... .. 6 ... ... : ... .. . P7A ...
ROW 90 : ... .. . ... ... ... : ... .. 0 ... ... ... : ... .. . ... : ... .. 4 ... : ... .. . ... ... : ... .. . ... ... : ... .. . ... ... : ... .. . P7C ...
ROW 91 : ... .. . ... ... ... : D-4 00 3 P80 ... ... : ... .. . ... : ... .. 2 ... : ... .. . ... ... : ... .. . ... ... : ... .. . ... ... : ... .. . P80 ...
ROW 92 : ... .. . ... ... ... : ... .. 4 ... ... ... : --- .. . ... : ... .. 1 ... : ... .. . ... ... : ... .. 5 ... ... : ... .. 5 ... ... : ... .. . P83 ...
ROW 93 : ... .. . ... ... ... : A-3 00 8 ... ... ... : D-3 00 . ... : ... .. 8 ... : ... .. . ... ... : ... .. . ... ... : ... .. . ... ... : ... .. . P86 ...
ROW 94 : ... .. . ... ... ... : ... .. 3 ... ... ... : ... .. . ... : ... .. 6 ... : ... .. . ... ... : ... .. . ... ... : ... .. . ... ... : ... .. 2 ... ...
ROW 95 : ... .. . ... ... ... : ... .. 0 ... ... ... : ... .. . ... : ... .. 3 ... : ... .. . ... ... : ... .. 4 ... ... : ... .. 4 ... ... : ... .. . P82 ...
ROW 96 : ... .. . ... ... ... : A-3 00 3 P80 ... ... : ... .. . ... : ... .. 1 ... : ... .. . ... ... : ... .. . ... ... : ... .. . ... ... : ... .. 1 P7F ...
ROW 97 : ... .. . ... ... ... : ... .. 4 ... ... ... : --- .. . ... : ... .. . ... : ... .. . ... ... : ... .. . ... ... : ... .. . ... ... : ... .. . P7B ...
ROW 98 : ... .. . ... ... ... : D-4 00 8 ... ... ... : D-3 00 . ... : 1-# 00 F ... : ... .. . ... ... : --- .. . ... ... : --- .. . P83 ... : D-1 01 A P80 ...
ROW 99 : ... .. . ... ... ... : ... .. 3 ... ... ... : ... .. . ... : ... .. C ... : ... .. . ... ... : ... .. . ... ... : ... .. . ... ... : ... .. 8 ... ...
ROW 9A : ... .. . ... ... ... : ... .. 0 ... ... ... : ... .. . ... : ... .. 6 ... : ... .. . ... ... : ... .. . ... ... : ... .. . ... ... : ... .. 5 ... ...
ROW 9B : ... .. . P84 ... ... : D-4 00 3 P80 ... ... : ... .. . ... : ... .. 3 ... : ... .. . ... ... : ... .. . ... ... : ... .. . ... ... : ... .. . ... ...
ROW 9C : ... .. . P86 ... ... : ... .. 4 ... ... ... : ... .. . ... : ... .. 2 ... : ... .. . ... ... : ... .. . ... ... : ... .. . ... ... : ... .. 2 ... ...
ROW 9D : ... .. . P85 ... ... : A-3 00 8 ... ... ... : ... .. . ... : D-# 00 8 ... : ... .. . ... ... : ... .. . ... ... : ... .. . ... ... : ... .. A ... ...
ROW 9E : ... .. . P82 ... ... : ... .. 3 ... ... ... : ... .. . ... : ... .. 6 ... : ... .. . ... ... : ... .. . ... ... : ... .. . ... ... : ... .. 8 ... ...
ROW 9F : ... .. . P7E ... ... : ... .. 0 ... ... ... : ... .. . ... : ... .. 3 ... : ... .. . ... ... : ... .. . ... ... : ... .. . ... ... : ... .. 5 ... ...
ROW A0 : ... .. . P7B ... ... : A-3 00 3 P80 ... ... : --- .. . ... : ... .. 1 ... : ... .. . ... ... : ... .. . ... ... : ... .. . ... ... : ... .. . ... ...
ROW A1 : ... .. . P7A ... ... : ... .. 4 ... ... ... : ... .. . ... : ... .. . ... : ... .. . ... ... : ... .. . ... ... : ... .. . ... ... : ... .. 2 ... ...
ROW A2 : ... .. . P7C ... ... : G-3 00 8 ... ... ... : D-3 00 . ... : ... .. A ... : ... .. . ... ... : A-3 01 7 ... ... : D-3 01 7 P81 ... : D-0 01 A ... ...
ROW A3 : ... .. . P80 ... ... : ... .. 3 ... ... ... : ... .. . ... : ... .. 8 ... : ... .. . ... ... : ... .. 6 ... ... : ... .. 6 ... ... : ... .. 8 ... ...
ROW A4 : ... .. . P83 ... ... : ... .. 0 ... ... ... : ... .. . ... : ... .. 4 ... : ... .. . ... ... : ... .. . ... ... : ... .. . ... ... : ... .. 5 ... ...
ROW A5 : ... .. . P86 ... ... : G-3 00 3 P80 ... ... : ... .. . ... : ... .. 2 ... : ... .. . ... ... : --- .. . ... ... : --- .. . P83 ... : ... .. . ... ...
ROW A6 : ... .. . ... ... ... : ... .. 4 ... ... ... : ... .. . ... : ... .. 1 ... : ... .. . ... ... : ... .. . ... ... : ... .. . ... ... : ... .. 2 ... ...
ROW A7 : ... .. . P82 ... ... : D-3 00 8 ... ... ... : ... .. . ... : ... .. 8 ... : ... .. . ... ... : A-3 01 7 ... ... : D-3 01 7 P81 ... : ... .. A ... ...
ROW A8 : ... .. . P7F ... ... : ... .. 3 ... ... ... : ... .. . ... : ... .. 6 ... : ... .. . ... ... : ... .. 6 ... ... : ... .. 6 ... ... : ... .. 8 ... ...
ROW A9 : ... .. . P7B ... ... : ... .. 0 ... ... ... : ... .. . ... : ... .. 3 ... : ... .. . ... ... : ... .. . ... ... : ... .. . ... ... : ... .. 5 ... ...
ROW AA : ... .. . P7A ... ... : D-3 00 3 P80 ... ... : --- .. . ... : ... .. 1 ... : ... .. . ... ... : --- .. . ... ... : --- .. . P83 ... : ... .. . ... ...
ROW AB : ... .. . P7C ... ... : ... .. 4 ... ... ... : ... .. . ... : ... .. . ... : ... .. . ... ... : ... .. . ... ... : ... .. . ... ... : ... .. 2 ... ...
ROW AC : ... .. . P80 ... ... : G-3 00 8 ... ... ... : D-4 00 . ... : 1-# 00 D ... : ... .. . ... ... : A-3 01 7 ... ... : D-3 01 7 P81 ... : D-1 01 A ... ...
ROW AD : ... .. . P83 ... ... : ... .. 3 ... ... ... : ... .. . ... : ... .. . ... : ... .. . ... ... : ... .. 6 ... ... : ... .. 6 ... ... : ... .. 8 ... ...
ROW AE : ... .. . P86 ... ... : ... .. 0 ... ... ... : ... .. . ... : D-# 00 D ... : ... .. . ... ... : ... .. . ... ... : ... .. . ... ... : ... .. 5 ... ...
ROW AF : ... .. . ... ... ... : G-3 00 3 P80 ... ... : ... .. . ... : B-# 00 6 ... : ... .. . ... ... : ... .. . ... ... : ... .. . ... ... : ... .. . ... ...
ROW B0 : ... .. . P83 ... ... : ... .. 4 ... ... ... : --- .. . ... : 7-# 00 1 ... : ... .. . ... ... : ... .. 5 ... ... : ... .. 5 ... ... : ... .. 2 ... ...
ROW B1 : ... .. 0 ... ... ... : A-3 00 8 ... ... ... : D-4 00 . ... : D-# 00 8 ... : ... .. . ... ... : --- .. . ... ... : --- .. . P83 ... : ... .. A ... ...
ROW B2 : ... .. . ... ... ... : ... .. 3 ... ... ... : ... .. . ... : ... .. 6 ... : ... .. . ... ... : ... .. . ... ... : ... .. . ... ... : ... .. 8 ... ...
ROW B3 : ... .. . ... ... ... : ... .. 0 ... ... ... : ... .. . ... : ... .. 3 ... : ... .. . ... ... : ... .. . ... ... : ... .. . ... ... : ... .. 5 ... ...
ROW B4 : ... .. . ... ... ... : A-3 00 3 P80 ... ... : ... .. . ... : ... .. 1 ... : ... .. . ... ... : ... .. . ... ... : ... .. . ... ... : ... .. . ... ...
ROW B5 : ... .. . ... ... ... : ... .. 4 ... ... ... : --- .. . ... : ... .. . ... : ... .. . ... ... : ... .. . ... ... : ... .. . ... ... : ... .. 2 ... ...
ROW B6 : D-3 00 F P82 ... ... : D-4 00 8 ... ... ... : D-3 00 . ... : ... .. A ... : ... .. . ... ... : D-3 01 7 ... ... : G-2 01 7 P81 ... : D-2 01 A ... ...
ROW B7 : ... .. E P86 ... ... : ... .. 3 ... ... ... : ... .. . ... : ... .. 8 ... : ... .. . ... ... : ... .. 6 ... ... : ... .. 6 ... ... : ... .. 8 ... ...
ROW B8 : ... .. D ... ... ... : ... .. 0 ... ... ... : ... .. . ... : ... .. 4 ... : ... .. . ... ... : ... .. . ... ... : ... .. . ... ... : ... .. 5 ... ...
ROW B9 : ... .. 0 ... ... ... : D-4 00 3 P80 ... ... : ... .. . ... : ... .. 2 ... : ... .. . ... ... : ... .. . ... ... : ... .. . ... ... : ... .. . ... ...
ROW BA : ... .. . ... ... ... : ... .. 4 ... ... ... : --- .. . ... : ... .. 1 ... : ... .. . ... ... : ... .. 5 ... ... : ... .. 5 ... ... : ... .. 2 ... ...
ROW BB : E-3 00 F P7C ... ... : A-3 00 8 ... ... ... : D-3 00 . ... : ... .. 8 ... : ... .. . ... ... : --- .. . P81 ... : --- .. . P7F ... : E-2 01 A ... ...
ROW BC : ... .. E P7A ... ... : ... .. 3 ... ... ... : ... .. . ... : ... .. 6 ... : ... .. . ... ... : ... .. . ... ... : ... .. . ... ... : ... .. 8 ... ...
ROW BD : ... .. D P7B ... ... : ... .. 0 ... ... ... : ... .. . ... : ... .. 3 ... : ... .. . ... ... : ... .. . ... ... : ... .. . ... ... : ... .. 5 ... ...
ROW BE : ... .. 0 ... ... ... : A-3 00 3 P80 ... ... : ... .. . ... : ... .. 1 ... : ... .. . ... ... : ... .. . ... ... : ... .. . ... ... : ... .. . ... ...
ROW BF : ... .. . ... ... ... : ... .. 4 ... ... ... : --- .. . ... : ... .. . ... : ... .. . ... ... : ... .. . ... ... : ... .. . ... ... : ... .. 2 ... ...
ROW C0 : F-3 00 F P80 ... ... : D-4 00 8 ... ... ... : D-3 00 . ... : 1-# 00 F ... : ... .. . ... ... : A-3 01 7 P7F ... : D-3 01 7 P81 ... : F-2 01 A ... ...
ROW C1 : ... .. E ... ... ... : ... .. 3 ... ... ... : ... .. . ... : ... .. C ... : ... .. . ... ... : ... .. 6 ... ... : ... .. 6 ... ... : ... .. 8 ... ...
ROW C2 : ... .. D ... ... ... : ... .. 0 ... ... ... : ... .. . ... : ... .. 6 ... : ... .. . ... ... : ... .. . ... ... : ... .. . ... ... : ... .. 5 ... ...
ROW C3 : ... .. A ... ... ... : D-4 00 3 P80 ... ... : ... .. . ... : ... .. 3 ... : ... .. . ... ... : ... .. . ... ... : ... .. . ... ... : ... .. . ... ...
ROW C4 : ... .. . ... ... ... : ... .. 4 ... ... ... : ... .. . ... : ... .. 2 ... : ... .. . ... ... : ... .. 5 ... ... : ... .. 5 ... ... : ... .. . ... ...
ROW C5 : ... .. . ... ... ... : A-3 00 8 ... ... ... : ... .. . ... : D-# 00 8 ... : ... .. . ... ... : ... .. . ... ... : ... .. . ... ... : ... .. . ... ...
ROW C6 : ... .. . ... ... ... : ... .. 3 ... ... ... : ... .. . ... : ... .. 6 ... : ... .. . ... ... : ... .. . ... ... : ... .. . ... ... : ... .. . ... ...
ROW C7 : ... .. . ... ... ... : ... .. 0 ... ... ... : ... .. . ... : ... .. 3 ... : ... .. . ... ... : ... .. 4 ... ... : ... .. 4 ... ... : ... .. . ... ...
ROW C8 : ... .. . ... ... ... : A-3 00 3 P80 ... ... : --- .. . ... : ... .. 1 ... : ... .. . ... ... : ... .. . ... ... : ... .. . ... ... : ... .. . ... ...
ROW C9 : ... .. . ... ... ... : ... .. 4 ... ... ... : ... .. . ... : ... .. . ... : ... .. . ... ... : ... .. . ... ... : ... .. . ... ... : ... .. . ... ...
ROW CA : ... .. . ... ... ... : G-3 00 8 ... ... ... : D-3 00 . ... : ... .. A ... : ... .. . ... ... : --- .. . ... ... : --- .. . P83 ... : ... .. . ... ...
ROW CB : ... .. . ... ... ... : ... .. 3 ... ... ... : ... .. . ... : ... .. 8 ... : ... .. . ... ... : ... .. . ... ... : ... .. . ... ... : ... .. . ... ...
ROW CC : ... .. . ... ... ... : ... .. 0 ... ... ... : ... .. . ... : ... .. 4 ... : ... .. . ... ... : ... .. . ... ... : ... .. . ... ... : ... .. . ... ...
ROW CD : ... .. . ... ... ... : G-3 00 3 P80 ... ... : ... .. . ... : ... .. 2 ... : ... .. . ... ... : ... .. . ... ... : ... .. . ... ... : ... .. . ... ...
ROW CE : ... .. . ... ... ... : ... .. 4 ... ... ... : ... .. . ... : ... .. 1 ... : ... .. . ... ... : ... .. . ... ... : ... .. . ... ... : ... .. . ... ...
ROW CF : ... .. . ... ... ... : D-3 00 8 ... ... ... : ... .. . ... : ... .. 8 ... : ... .. . ... ... : ... .. . ... ... : ... .. . ... ... : ... .. . ... ...
ROW D0 : ... .. . ... ... ... : ... .. 3 ... ... ... : ... .. . ... : ... .. 6 ... : ... .. . ... ... : ... .. . ... ... : ... .. . ... ... : ... .. . ... ...
ROW D1 : ... .. . ... ... ... : ... .. 0 ... ... ... : ... .. . ... : ... .. 3 ... : ... .. . ... ... : ... .. . ... ... : ... .. . ... ... : ... .. . ... ...
ROW D2 : ... .. . ... ... ... : D-3 00 3 P80 ... ... : --- .. . ... : ... .. 1 ... : ... .. . ... ... : ... .. . ... ... : ... .. . ... ... : ... .. . ... ...
ROW D3 : ... .. . ... ... ... : ... .. 4 ... ... ... : ... .. . ... : ... .. . ... : ... .. . ... ... : ... .. . ... ... : ... .. . ... ... : ... .. . ... ...
ROW D4 : ... .. . ... ... ... : G-3 00 8 ... ... ... : D-4 00 . ... : 1-# 00 D ... : ... .. . ... ... : A-3 01 7 ... ... : D-3 01 7 P81 ... : ... .. . ... ...
ROW D5 : ... .. . ... ... ... : ... .. 3 ... ... ... : ... .. . ... : ... .. . ... : ... .. . ... ... : ... .. 6 ... ... : ... .. 6 ... ... : ... .. . ... ...
ROW D6 : ... .. . ... ... ... : ... .. 0 ... ... ... : ... .. . ... : D-# 00 D ... : ... .. . ... ... : ... .. . ... ... : ... .. . ... ... : ... .. . ... ...
ROW D7 : ... .. . ... ... ... : G-3 00 3 P80 ... ... : ... .. . ... : B-# 00 6 ... : ... .. . ... ... : --- .. . ... ... : --- .. . P83 ... : ... .. . ... ...
ROW D8 : ... .. . ... ... ... : ... .. 4 ... ... ... : --- .. . ... : 7-# 00 1 ... : ... .. . ... ... : ... .. . ... ... : ... .. . ... ... : ... .. . ... ...
ROW D9 : ... .. . P84 ... ... : A-3 00 8 ... ... ... : D-4 00 . ... : D-# 00 8 ... : ... .. . ... ... : A-3 01 7 ... ... : D-3 01 7 P81 ... : ... .. . P84 ...
ROW DA : ... .. . P86 ... ... : ... .. 3 ... ... ... : ... .. . ... : ... .. 6 ... : ... .. . ... ... : ... .. 6 ... ... : ... .. 6 ... ... : ... .. . P86 ...
ROW DB : ... .. . P85 ... ... : ... .. 0 ... ... ... : ... .. . ... : ... .. 3 ... : ... .. . ... ... : ... .. . ... ... : ... .. . ... ... : ... .. . P85 ...
ROW DC : ... .. . P82 ... ... : A-3 00 3 P80 ... ... : ... .. . ... : ... .. 1 ... : ... .. . ... ... : --- .. . ... ... : --- .. . P83 ... : ... .. . P82 ...
ROW DD : ... .. . P7E ... ... : ... .. 4 ... ... ... : --- .. . ... : ... .. . ... : ... .. . ... ... : ... .. . ... ... : ... .. . ... ... : ... .. . P7E ...
ROW DE : ... .. . P7B ... ... : D-4 00 8 ... ... ... : D-3 00 . ... : ... .. A ... : ... .. . ... ... : A-3 01 7 ... ... : D-3 01 7 P81 ... : ... .. . P7B ...
ROW DF : ... .. . P7A ... ... : ... .. 3 ... ... ... : ... .. . ... : ... .. 8 ... : ... .. . ... ... : ... .. 6 ... ... : ... .. 6 ... ... : ... .. 2 P7A ...
ROW E0 : ... .. . P7C ... ... : ... .. 0 ... ... ... : ... .. . ... : ... .. 4 ... : ... .. . ... ... : ... .. . ... ... : ... .. . ... ... : ... .. . P7C ...
ROW E1 : ... .. . P80 ... ... : D-4 00 3 P80 ... ... : ... .. . ... : ... .. 2 ... : ... .. . ... ... : ... .. . ... ... : ... .. . ... ... : ... .. 1 P80 ...
ROW E2 : ... .. . P83 ... ... : ... .. 4 ... ... ... : --- .. . ... : ... .. 1 ... : ... .. . ... ... : ... .. 5 ... ... : ... .. 5 ... ... : ... .. . P83 ...
ROW E3 : ... .. . P86 ... ... : A-3 00 8 ... ... ... : D-3 00 . ... : ... .. 8 ... : ... .. . ... ... : ... .. . ... ... : ... .. . ... ... : ... .. . P86 ...
ROW E4 : ... .. 2 ... ... ... : ... .. 3 ... ... ... : ... .. . ... : ... .. 6 ... : ... .. . ... ... : ... .. . ... ... : ... .. . ... ... : ... .. . ... ...
ROW E5 : ... .. . P82 ... ... : ... .. 0 ... ... ... : ... .. . ... : ... .. 3 ... : ... .. . ... ... : ... .. 4 ... ... : ... .. 4 ... ... : ... .. . P82 ...
ROW E6 : ... .. . P7F ... ... : A-3 00 3 P80 ... ... : ... .. . ... : ... .. 1 ... : ... .. . ... ... : ... .. . ... ... : ... .. . ... ... : ... .. . P7F ...
ROW E7 : ... .. 1 P7B ... ... : ... .. 4 ... ... ... : --- .. . ... : ... .. . ... : ... .. . ... ... : ... .. . ... ... : ... .. . ... ... : ... .. . P7B ...
ROW E8 : E-3 00 F P80 ... ... : D-4 00 8 ... ... ... : D-3 00 . ... : 1-# 00 F ... : ... .. . ... ... : --- .. . ... ... : --- .. . P83 ... : E-2 01 A P80 ...
ROW E9 : ... .. E ... ... ... : ... .. 3 ... ... ... : ... .. . ... : ... .. C ... : ... .. . ... ... : ... .. . ... ... : ... .. . ... ... : ... .. 8 ... ...
ROW EA : ... .. D ... ... ... : ... .. 0 ... ... ... : ... .. . ... : ... .. 6 ... : ... .. . ... ... : ... .. . ... ... : ... .. . ... ... : ... .. 5 ... ...
ROW EB : ... .. A ... ... ... : D-4 00 3 P80 ... ... : ... .. . ... : ... .. 3 ... : ... .. . ... ... : ... .. . ... ... : ... .. . ... ... : ... .. . ... ...
ROW EC : ... .. . ... ... ... : ... .. 4 ... ... ... : ... .. . ... : ... .. 2 ... : ... .. . ... ... : ... .. . ... ... : ... .. . ... ... : ... .. . ... ...
ROW ED : ... .. . ... ... ... : A-3 00 8 ... ... ... : ... .. . ... : D-# 00 8 ... : ... .. . ... ... : ... .. . ... ... : ... .. . ... ... : ... .. . ... ...
ROW EE : ... .. . ... ... ... : ... .. 3 ... ... ... : ... .. . ... : ... .. 6 ... : ... .. . ... ... : ... .. . ... ... : ... .. . ... ... : ... .. . ... ...
ROW EF : ... .. . ... ... ... : ... .. 0 ... ... ... : ... .. . ... : ... .. 3 ... : ... .. . ... ... : ... .. . ... ... : ... .. . ... ... : ... .. . ... ...
ROW F0 : ... .. . ... ... ... : A-3 00 3 P80 ... ... : --- .. . ... : ... .. 1 ... : ... .. . ... ... : ... .. . ... ... : ... .. . ... ... : ... .. . ... ...
ROW F1 : ... .. . ... ... ... : ... .. 4 ... ... ... : ... .. . ... : ... .. . ... : ... .. . ... ... : ... .. . ... ... : ... .. . ... ... : ... .. . ... ...
ROW F2 : ... .. . ... ... ... : G-3 00 8 ... ... ... : D-3 00 . ... : ... .. A ... : ... .. . ... ... : D-3 01 7 ... ... : G-2 01 7 P81 ... : ... .. . ... ...
ROW F3 : ... .. . ... ... ... : ... .. 3 ... ... ... : ... .. . ... : ... .. 8 ... : ... .. . ... ... : ... .. 6 ... ... : ... .. 6 ... ... : ... .. . ... ...
ROW F4 : ... .. . ... ... ... : ... .. 0 ... ... ... : ... .. . ... : ... .. 4 ... : ... .. . ... ... : ... .. . ... ... : ... .. . ... ... : ... .. . ... ...
ROW F5 : ... .. . ... ... ... : G-3 00 3 P80 ... ... : ... .. . ... : ... .. 2 ... : ... .. . ... ... : --- .. . P81 ... : --- .. . P7F ... : ... .. . ... ...
ROW F6 : ... .. . ... ... ... : ... .. 4 ... ... ... : ... .. . ... : ... .. 1 ... : ... .. . ... ... : ... .. . ... ... : ... .. . ... ... : ... .. . ... ...
ROW F7 : ... .. . ... ... ... : D-3 00 8 ... ... ... : ... .. . ... : ... .. 8 ... : ... .. . ... ... : D-3 01 7 P7F ... : G-2 01 7 P81 ... : ... .. . ... ...
ROW F8 : ... .. . ... ... ... : ... .. 3 ... ... ... : ... .. . ... : ... .. 6 ... : ... .. . ... ... : ... .. 6 ... ... : ... .. 6 ... ... : ... .. . ... ...
ROW F9 : ... .. . ... ... ... : ... .. 0 ... ... ... : ... .. . ... : ... .. 3 ... : ... .. . ... ... : ... .. . ... ... : ... .. . ... ... : ... .. . ... ...
ROW FA : ... .. . ... ... ... : D-3 00 3 P80 ... ... : --- .. . ... : ... .. 1 ... : ... .. . ... ... : --- .. . P81 ... : --- .. . P7F ... : ... .. . ... ...
ROW FB : ... .. . ... ... ... : ... .. 4 ... ... ... : ... .. . ... : ... .. . ... : ... .. . ... ... : ... .. . ... ... : ... .. . ... ... : ... .. . ... ...
ROW FC : ... .. . ... ... ... : G-3 00 8 ... ... ... : D-4 00 . ... : 1-# 00 D ... : ... .. . ... ... : A-3 01 7 P7F ... : D-3 01 7 P81 ... : ... .. . ... ...
ROW FD : ... .. . ... ... ... : ... .. 3 ... ... ... : ... .. . ... : ... .. . ... : ... .. . ... ... : ... .. 6 ... ... : ... .. 6 ... ... : ... .. . ... ...
ROW FE : ... .. . ... ... ... : ... .. 0 ... ... ... : ... .. . ... : D-# 00 D ... : ... .. . ... ... : ... .. . ... ... : ... .. . ... ... : ... .. . ... ...
ROW FF : ... .. . ... ... ... : G-3 00 3 P80 ... ... : ... .. . ... : B-# 00 6 ... : ... .. . ... ... : ... .. . ... ... : ... .. . ... ... : ... .. . ... ...

PATTERN 13
ROW 00 : ... .. . ... ... ... : ... .. 4 ... ... ... : --- .. . ... : 7-# 00 1 ... : ... .. . ... ... : ... .. 5 ... ... : ... .. 5 ... ... : ... .. . ... ...
ROW 01 : ... .. . ... ... ... : A-3 00 8 ... ... ... : D-4 00 . ... : D-# 00 8 ... : ... .. . ... ... : --- .. . ... ... : --- .. . P83 ... : ... .. . ... ...
ROW 02 : ... .. . ... ... ... : ... .. 3 ... ... ... : ... .. . ... : ... .. 6 ... : ... .. . ... ... : ... .. . ... ... : ... .. . ... ... : ... .. . ... ...
ROW 03 : ... .. . ... ... ... : ... .. 0 ... ... ... : ... .. . ... : ... .. 3 ... : ... .. . ... ... : ... .. . ... ... : ... .. . ... ... : ... .. . ... ...
ROW 04 : ... .. . ... ... ... : A-3 00 3 P80 ... ... : ... .. . ... : ... .. 1 ... : ... .. . ... ... : ... .. . ... ... : ... .. . ... ... : ... .. . ... ...
ROW 05 : ... .. . ... ... ... : ... .. 4 ... ... ... : --- .. . ... : ... .. . ... : ... .. . ... ... : ... .. . ... ... : ... .. . ... ... : ... .. . ... ...
ROW 06 : ... .. . ... ... ... : D-4 00 8 ... ... ... : D-3 00 . ... : ... .. A ... : ... .. . ... ... : D-3 01 7 ... ... : G-2 01 7 P81 ... : ... .. . ... ...
ROW 07 : ... .. . ... ... ... : ... .. 3 ... ... ... : ... .. . ... : ... .. 8 ... : ... .. . ... ... : ... .. 6 ... ... : ... .. 6 ... ... : ... .. 2 ... ...
ROW 08 : ... .. . ... ... ... : ... .. 0 ... ... ... : ... .. . ... : ... .. 4 ... : ... .. . ... ... : ... .. . ... ... : ... .. . ... ... : ... .. . ... ...
ROW 09 : ... .. . ... ... ... : D-4 00 3 P80 ... ... : ... .. . ... : ... .. 2 ... : ... .. . ... ... : --- .. . P81 ... : --- .. . P7F ... : ... .. 1 ... ...
ROW 0A : ... .. . ... ... ... : ... .. 4 ... ... ... : --- .. . ... : ... .. 1 ... : ... .. . ... ... : ... .. . ... ... : ... .. . ... ... : ... .. . ... ...
ROW 0B : ... .. . ... ... ... : A-3 00 8 ... ... ... : D-3 00 . ... : ... .. 8 ... : ... .. . ... ... : D-3 01 7 P7F ... : G-2 01 7 P81 ... : ... .. . ... ...
ROW 0C : ... .. 2 ... ... ... : ... .. 3 ... ... ... : ... .. . ... : ... .. 6 ... : ... .. . ... ... : ... .. 6 ... ... : ... .. 6 ... ... : ... .. . ... ...
ROW 0D : ... .. . ... ... ... : ... .. 0 ... ... ... : ... .. . ... : ... .. 3 ... : ... .. . ... ... : ... .. . ... ... : ... .. . ... ... : ... .. . ... ...
ROW 0E : ... .. . ... ... ... : A-3 00 3 P80 ... ... : ... .. . ... : ... .. 1 ... : ... .. . ... ... : --- .. . P81 ... : --- .. . P7F ... : ... .. . ... ...
ROW 0F : ... .. 1 ... ... ... : ... .. 4 ... ... ... : --- .. . ... : ... .. . ... : ... .. . ... ... : ... .. . ... ... : ... .. . ... ... : ... .. . ... ...
ROW 10 : G-3 00 F ... ... ... : D-4 00 8 ... ... ... : D-3 00 . ... : 1-# 00 F ... : ... .. . ... ... : A-3 01 7 P7F ... : D-3 01 7 P81 ... : G-2 01 A ... ...
ROW 11 : ... .. E ... ... ... : ... .. 3 ... ... ... : ... .. . ... : ... .. C ... : ... .. . ... ... : ... .. 6 ... ... : ... .. 6 ... ... : ... .. 8 ... ...
ROW 12 : ... .. D ... ... ... : ... .. 0 ... ... ... : ... .. . ... : ... .. 6 ... : ... .. . ... ... : ... .. . ... ... : ... .. . ... ... : ... .. 5 ... ...
ROW 13 : ... .. A ... ... ... : D-4 00 3 P80 ... ... : ... .. . ... : ... .. 3 ... : ... .. . ... ... : ... .. . ... ... : ... .. . ... ... : ... .. . ... ...
ROW 14 : ... .. . ... ... ... : ... .. 4 ... ... ... : ... .. . ... : ... .. 2 ... : ... .. . ... ... : ... .. 5 ... ... : ... .. 5 ... ... : ... .. . ... ...
ROW 15 : ... .. . ... ... ... : A-3 00 8 ... ... ... : ... .. . ... : D-# 00 8 ... : ... .. . ... ... : ... .. . ... ... : ... .. . ... ... : ... .. . ... ...
ROW 16 : ... .. . ... ... ... : ... .. 3 ... ... ... : ... .. . ... : ... .. 6 ... : ... .. . ... ... : ... .. . ... ... : ... .. . ... ... : ... .. . ... ...
ROW 17 : ... .. . ... ... ... : ... .. 0 ... ... ... : ... .. . ... : ... .. 3 ... : ... .. . ... ... : ... .. 4 ... ... : ... .. 4 ... ... : ... .. . ... ...
ROW 18 : ... .. . ... ... ... : A-3 00 3 P80 ... ... : --- .. . ... : ... .. 1 ... : ... .. . ... ... : ... .. . ... ... : ... .. . ... ... : ... .. . ... ...
ROW 19 : ... .. . ... ... ... : ... .. 4 ... ... ... : ... .. . ... : ... .. . ... : ... .. . ... ... : ... .. . ... ... : ... .. . ... ... : ... .. . ... ...
ROW 1A : ... .. . ... ... ... : G-3 00 8 ... ... ... : D-3 00 . ... : ... .. A ... : ... .. . ... ... : --- .. . ... ... : --- .. . P83 ... : ... .. . ... ...
ROW 1B : ... .. . ... ... ... : ... .. 3 ... ... ... : ... .. . ... : ... .. 8 ... : ... .. . ... ... : ... .. . ... ... : ... .. . ... ... : ... .. . ... ...
ROW 1C : ... .. . ... ... ... : ... .. 0 ... ... ... : ... .. . ... : ... .. 4 ... : ... .. . ... ... : ... .. . ... ... : ... .. . ... ... : ... .. . ... ...
ROW 1D : ... .. . ... ... ... : G-3 00 3 P80 ... ... : ... .. . ... : ... .. 2 ... : ... .. . ... ... : ... .. . ... ... : ... .. . ... ... : ... .. . ... ...
ROW 1E : ... .. . ... ... ... : ... .. 4 ... ... ... : ... .. . ... : ... .. 1 ... : ... .. . ... ... : ... .. . ... ... : ... .. . ... ... : ... .. . ... ...
ROW 1F : ... .. . ... ... ... : D-3 00 8 ... ... ... : ... .. . ... : ... .. 8 ... : ... .. . ... ... : ... .. . ... ... : ... .. . ... ... : ... .. . ... ...
ROW 20 : ... .. . ... ... ... : ... .. 3 ... ... ... : ... .. . ... : ... .. 6 ... : ... .. . ... ... : ... .. . ... ... : ... .. . ... ... : ... .. . ... ...
ROW 21 : ... .. . ... ... ... : ... .. 0 ... ... ... : ... .. . ... : ... .. 3 ... : ... .. . ... ... : ... .. . ... ... : ... .. . ... ... : ... .. . ... ...
ROW 22 : ... .. . ... ... ... : D-3 00 3 P80 ... ... : --- .. . ... : ... .. 1 ... : ... .. . ... ... : ... .. . ... ... : ... .. . ... ... : ... .. . ... ...
ROW 23 : ... .. . ... ... ... : ... .. 4 ... ... ... : ... .. . ... : ... .. . ... : ... .. . ... ... : ... .. . ... ... : ... .. . ... ... : ... .. . ... ...
ROW 24 : ... .. . ... ... ... : G-3 00 8 ... ... ... : D-4 00 . ... : 1-# 00 D ... : ... .. . ... ... : A-3 01 7 ... ... : D-3 01 7 P81 ... : ... .. . ... ...
ROW 25 : ... .. . ... ... ... : ... .. 3 ... ... ... : ... .. . ... : ... .. . ... : ... .. . ... ... : ... .. 6 ... ... : ... .. 6 ... ... : ... .. . ... ...
ROW 26 : ... .. . ... ... ... : ... .. 0 ... ... ... : ... .. . ... : D-# 00 D ... : ... .. . ... ... : ... .. . ... ... : ... .. . ... ... : ... .. . ... ...
ROW 27 : ... .. . ... ... ... : G-3 00 3 P80 ... ... : ... .. . ... : B-# 00 6 ... : ... .. . ... ... : --- .. . ... ... : --- .. . P83 ... : ... .. . ... ...
ROW 28 : ... .. . ... ... ... : ... .. 4 ... ... ... : --- .. . ... : 7-# 00 1 ... : ... .. . ... ... : ... .. . ... ... : ... .. . ... ... : ... .. . ... ...
ROW 29 : ... .. . ... ... ... : A-3 00 8 ... ... ... : D-4 00 . ... : D-# 00 8 ... : ... .. . ... ... : A-3 01 7 ... ... : D-3 01 7 P81 ... : ... .. . ... ...
ROW 2A : ... .. 2 ... ... ... : ... .. 3 ... ... ... : ... .. . ... : ... .. 6 ... : ... .. . ... ... : ... .. 6 ... ... : ... .. 6 ... ... : ... .. 2 ... ...
ROW 2B : ... .. . ... ... ... : ... .. 0 ... ... ... : ... .. . ... : ... .. 3 ... : ... .. . ... ... : ... .. . ... ... : ... .. . ... ... : ... .. . ... ...
ROW 2C : ... .. . ... ... ... : A-3 00 3 P80 ... ... : ... .. . ... : ... .. 1 ... : ... .. . ... ... : --- .. . ... ... : --- .. . P83 ... : ... .. 1 ... ...
ROW 2D : ... .. 1 ... ... ... : ... .. 4 ... ... ... : --- .. . ... : ... .. . ... : ... .. . ... ... : ... .. . ... ... : ... .. . ... ... : ... .. . ... ...
ROW 2E : D-3 00 F ... ... ... : D-4 00 8 ... ... ... : D-3 00 . ... : ... .. A ... : ... .. . ... ... : A-3 01 7 ... ... : D-3 01 7 P81 ... : D-2 01 A ... ...
ROW 2F : ... .. E ... ... ... : ... .. 3 ... ... ... : ... .. . ... : ... .. 8 ... : ... .. . ... ... : ... .. 6 ... ... : ... .. 6 ... ... : ... .. 8 ... ...
ROW 30 : ... .. D ... ... ... : ... .. 0 ... ... ... : ... .. . ... : ... .. 4 ... : ... .. . ... ... : ... .. . ... ... : ... .. . ... ... : ... .. 5 ... ...
ROW 31 : ... .. A ... ... ... : D-4 00 3 P80 ... ... : ... .. . ... : ... .. 2 ... : ... .. . ... ... : ... .. . ... ... : ... .. . ... ... : ... .. . ... ...
ROW 32 : ... .. . ... ... ... : ... .. 4 ... ... ... : --- .. . ... : ... .. 1 ... : ... .. . ... ... : ... .. 5 ... ... : ... .. 5 ... ... : ... .. . ... ...
ROW 33 : ... .. . ... ... ... : A-3 00 8 ... ... ... : D-3 00 . ... : ... .. 8 ... : ... .. . ... ... : ... .. . ... ... : ... .. . ... ... : ... .. . ... ...
ROW 34 : ... .. 2 ... ... ... : ... .. 3 ... ... ... : ... .. . ... : ... .. 6 ... : ... .. . ... ... : ... .. . ... ... : ... .. . ... ... : ... .. 2 ... ...
ROW 35 : ... .. . ... ... ... : ... .. 0 ... ... ... : ... .. . ... : ... .. 3 ... : ... .. . ... ... : ... .. 4 ... ... : ... .. 4 ... ... : ... .. . ... ...
ROW 36 : ... .. . ... ... ... : A-3 00 3 P80 ... ... : ... .. . ... : ... .. 1 ... : ... .. . ... ... : ... .. . ... ... : ... .. . ... ... : ... .. 1 ... ...
ROW 37 : ... .. 1 ... ... ... : ... .. 4 ... ... ... : --- .. . ... : ... .. . ... : ... .. . ... ... : ... .. . ... ... : ... .. . ... ... : ... .. . ... ...
ROW 38 : ... .. F ... ... ... : D-4 00 8 ... ... ... : D-3 00 . ... : 1-# 00 F ... : ... .. . ... ... : --- .. . ... ... : --- .. . P83 ... : ... .. A ... ...
ROW 39 : ... .. E ... ... ... : ... .. 3 ... ... ... : ... .. . ... : ... .. C ... : ... .. . ... ... : ... .. . ... ... : ... .. . ... ... : ... .. 8 ... ...
ROW 3A : ... .. D ... ... ... : ... .. 0 ... ... ... : ... .. . ... : ... .. 6 ... : ... .. . ... ... : ... .. . ... ... : ... .. . ... ... : ... .. 5 ... ...
ROW 3B : ... .. A ... ... ... : D-4 00 3 P80 ... ... : ... .. . ... : ... .. 3 ... : ... .. . ... ... : ... .. . ... ... : ... .. . ... ... : ... .. . ... ...
ROW 3C : ... .. . ... ... ... : ... .. 4 ... ... ... : ... .. . ... : ... .. 2 ... : ... .. . ... ... : ... .. . ... ... : ... .. . ... ... : ... .. . ... ...
ROW 3D : ... .. . ... ... ... : A-3 00 8 ... ... ... : ... .. . ... : D-# 00 8 ... : ... .. . ... ... : ... .. . ... ... : ... .. . ... ... : ... .. . ... ...
ROW 3E : ... .. . ... ... ... : ... .. 3 ... ... ... : ... .. . ... : ... .. 6 ... : ... .. . ... ... : ... .. . ... ... : ... .. . ... ... : ... .. . ... ...
ROW 3F : ... .. . ... ... ... : ... .. 0 ... ... ... : ... .. . ... : ... .. 3 ... : ... .. . ... ... : ... .. . ... ... : ... .. . ... ... : ... .. . ... ...
ROW 40 : ... .. . ... ... ... : A-3 00 3 P80 ... ... : --- .. . ... : ... .. 1 ... : ... .. . ... ... : ... .. . ... ... : ... .. . ... ... : ... .. . ... ...
ROW 41 : ... .. . ... ... ... : ... .. 4 ... ... ... : ... .. . ... : ... .. . ... : ... .. . ... ... : ... .. . ... ... : ... .. . ... ... : ... .. . ... ...
ROW 42 : ... .. . ... ... ... : G-3 00 8 ... ... ... : D-3 00 . ... : ... .. A ... : ... .. . ... ... : A-3 01 7 ... ... : D-3 01 7 P81 ... : ... .. . ... ...
ROW 43 : ... .. . ... ... ... : ... .. 3 ... ... ... : ... .. . ... : ... .. 8 ... : ... .. . ... ... : ... .. 6 ... ... : ... .. 6 ... ... : ... .. . ... ...
ROW 44 : ... .. . ... ... ... : ... .. 0 ... ... ... : ... .. . ... : ... .. 4 ... : ... .. . ... ... : ... .. . ... ... : ... .. . ... ... : ... .. . ... ...
ROW 45 : ... .. . ... ... ... : G-3 00 3 P80 ... ... : ... .. . ... : ... .. 2 ... : ... .. . ... ... : --- .. . ... ... : --- .. . P83 ... : ... .. . ... ...
ROW 46 : ... .. . ... ... ... : ... .. 4 ... ... ... : ... .. . ... : ... .. 1 ... : ... .. . ... ... : ... .. . ... ... : ... .. . ... ... : ... .. . ... ...
ROW 47 : ... .. . ... ... ... : D-3 00 8 ... ... ... : ... .. . ... : ... .. 8 ... : ... .. . ... ... : A-3 01 7 ... ... : D-3 01 7 P81 ... : ... .. . ... ...
ROW 48 : ... .. . ... ... ... : ... .. 3 ... ... ... : ... .. . ... : ... .. 6 ... : ... .. . ... ... : ... .. 6 ... ... : ... .. 6 ... ... : ... .. . ... ...
ROW 49 : ... .. . ... ... ... : ... .. 0 ... ... ... : ... .. . ... : ... .. 3 ... : ... .. . ... ... : ... .. . ... ... : ... .. . ... ... : ... .. . ... ...
ROW 4A : ... .. . ... ... ... : D-3 00 3 P80 ... ... : --- .. . ... : ... .. 1 ... : ... .. . ... ... : --- .. . ... ... : --- .. . P83 ... : ... .. . ... ...
ROW 4B : ... .. . ... ... ... : ... .. 4 ... ... ... : ... .. . ... : ... .. . ... : ... .. . ... ... : ... .. . ... ... : ... .. . ... ... : ... .. . ... ...
ROW 4C : ... .. . ... ... ... : G-3 00 8 ... ... ... : G-4 00 . ... : 1-# 00 D ... : ... .. . ... ... : A-3 01 7 ... ... : D-3 01 7 P81 ... : ... .. . ... ...
ROW 4D : ... .. . ... ... ... : ... .. 3 ... ... ... : ... .. . ... : ... .. . ... : ... .. . ... ... : ... .. 6 ... ... : ... .. 6 ... ... : ... .. . ... ...
ROW 4E : ... .. . ... ... ... : ... .. 0 ... ... ... : ... .. . ... : D-# 00 D ... : ... .. . ... ... : ... .. . ... ... : ... .. . ... ... : ... .. . ... ...
ROW 4F : ... .. . ... ... ... : G-3 00 3 P80 ... ... : ... .. . ... : B-# 00 6 ... : ... .. . ... ... : ... .. . ... ... : ... .. . ... ... : ... .. . ... ...
ROW 50 : ... .. . ... ... ... : ... .. 4 ... ... ... : --- .. . ... : 7-# 00 1 ... : ... .. . ... ... : ... .. 5 ... ... : ... .. 5 ... ... : ... .. . ... ...
ROW 51 : ... .. . ... ... ... : A-3 00 8 ... ... ... : G-4 00 . ... : D-# 00 8 ... : ... .. . ... ... : --- .. . ... ... : --- .. . P83 ... : ... .. . ... ...
ROW 52 : ... .. . ... ... ... : ... .. 3 ... ... ... : ... .. . ... : ... .. 6 ... : ... .. . ... ... : ... .. . ... ... : ... .. . ... ... : ... .. . ... ...
ROW 53 : ... .. . ... ... ... : ... .. 0 ... ... ... : ... .. . ... : ... .. 3 ... : ... .. . ... ... : ... .. . ... ... : ... .. . ... ... : ... .. . ... ...
ROW 54 : ... .. . ... ... ... : A-3 00 3 P80 ... ... : ... .. . ... : ... .. 1 ... : ... .. . ... ... : ... .. . ... ... : ... .. . ... ... : ... .. . ... ...
ROW 55 : ... .. . ... ... ... : ... .. 4 ... ... ... : --- .. . ... : ... .. . ... : ... .. . ... ... : ... .. . ... ... : ... .. . ... ... : ... .. . ... ...
ROW 56 : ... .. . ... ... ... : D-4 00 8 ... ... ... : D-3 00 . ... : ... .. A ... : ... .. . ... ... : D-3 01 7 ... ... : G-2 01 7 P81 ... : ... .. . ... ...
ROW 57 : ... .. . ... ... ... : ... .. 3 ... ... ... : ... .. . ... : ... .. 8 ... : ... .. . ... ... : ... .. 6 ... ... : ... .. 6 ... ... : ... .. . ... ...
ROW 58 : ... .. . ... ... ... : ... .. 0 ... ... ... : ... .. . ... : ... .. 4 ... : ... .. . ... ... : ... .. . ... ... : ... .. . ... ... : ... .. . ... ...
ROW 59 : ... .. . ... ... ... : D-4 00 3 P80 ... ... : ... .. . ... : ... .. 2 ... : ... .. . ... ... : ... .. . ... ... : ... .. . ... ... : ... .. . ... ...
ROW 5A : ... .. . ... ... ... : ... .. 4 ... ... ... : --- .. . ... : ... .. 1 ... : ... .. . ... ... : ... .. 5 ... ... : ... .. 5 ... ... : ... .. . ... ...
ROW 5B : ... .. . ... ... ... : A-3 00 8 ... ... ... : D-3 00 . ... : ... .. 8 ... : ... .. . ... ... : --- .. . P81 ... : --- .. . P7F ... : ... .. . ... ...
ROW 5C : ... .. 2 ... ... ... : ... .. 3 ... ... ... : ... .. . ... : ... .. 6 ... : ... .. . ... ... : ... .. . ... ... : ... .. . ... ... : ... .. 2 ... ...
ROW 5D : ... .. . ... ... ... : ... .. 0 ... ... ... : ... .. . ... : ... .. 3 ... : ... .. . ... ... : ... .. . ... ... : ... .. . ... ... : ... .. . ... ...
ROW 5E : ... .. . ... ... ... : A-3 00 3 P80 ... ... : ... .. . ... : ... .. 1 ... : ... .. . ... ... : ... .. . ... ... : ... .. . ... ... : ... .. 1 ... ...
ROW 5F : ... .. 1 ... ... ... : ... .. 4 ... ... ... : --- .. . ... : ... .. . ... : ... .. . ... ... : ... .. . ... ... : ... .. . ... ... : ... .. . ... ...
ROW 60 : D-2 00 F ... ... ... : D-4 00 8 ... ... ... : D-3 00 . ... : 1-# 00 F ... : ... .. . ... ... : A-3 01 7 P7F ... : D-3 01 7 P81 ... : D-1 01 A ... ...
ROW 61 : ... .. E ... ... ... : ... .. 3 ... ... ... : ... .. . ... : ... .. C ... : ... .. . ... ... : ... .. 6 ... ... : ... .. 6 ... ... : ... .. 8 ... ...
ROW 62 : ... .. D ... ... ... : ... .. 0 ... ... ... : ... .. . ... : ... .. 6 ... : ... .. . ... ... : ... .. . ... ... : ... .. . ... ... : ... .. 5 ... ...
ROW 63 : ... .. A ... ... ... : D-4 00 3 P80 ... ... : ... .. . ... : ... .. 3 ... : ... .. . ... ... : ... .. . ... ... : ... .. . ... ... : ... .. . ... ...
ROW 64 : ... .. 2 ... ... ... : ... .. 4 ... ... ... : ... .. . ... : ... .. 2 ... : ... .. . ... ... : ... .. 5 ... ... : ... .. 5 ... ... : ... .. 2 ... ...
ROW 65 : ... .. F ... ... ... : A-3 00 8 ... ... ... : ... .. . ... : D-# 00 8 ... : ... .. . ... ... : ... .. . ... ... : ... .. . ... ... : ... .. A ... ...
ROW 66 : ... .. E ... ... ... : ... .. 3 ... ... ... : ... .. . ... : ... .. 6 ... : ... .. . ... ... : ... .. . ... ... : ... .. . ... ... : ... .. 8 ... ...
ROW 67 : ... .. D ... ... ... : ... .. 0 ... ... ... : ... .. . ... : ... .. 3 ... : ... .. . ... ... : ... .. 4 ... ... : ... .. 4 ... ... : ... .. 5 ... ...
ROW 68 : ... .. A ... ... ... : A-3 00 3 P80 ... ... : --- .. . ... : ... .. 1 ... : ... .. . ... ... : ... .. . ... ... : ... .. . ... ... : ... .. . ... ...
ROW 69 : ... .. 2 ... ... ... : ... .. 4 ... ... ... : ... .. . ... : ... .. . ... : ... .. . ... ... : ... .. . ... ... : ... .. . ... ... : ... .. 2 ... ...
ROW 6A : D-1 00 F ... ... ... : G-3 00 8 ... ... ... : D-3 00 . ... : ... .. A ... : ... .. . ... ... : --- .. . ... ... : --- .. . P83 ... : D-0 01 A ... ...
ROW 6B : ... .. E ... ... ... : ... .. 3 ... ... ... : ... .. . ... : ... .. 8 ... : ... .. . ... ... : ... .. . ... ... : ... .. . ... ... : ... .. 8 ... ...
ROW 6C : ... .. D ... ... ... : ... .. 0 ... ... ... : ... .. . ... : ... .. 4 ... : ... .. . ... ... : ... .. . ... ... : ... .. . ... ... : ... .. 5 ... ...
ROW 6D : ... .. A ... ... ... : G-3 00 3 P80 ... ... : ... .. . ... : ... .. 2 ... : ... .. . ... ... : ... .. . ... ... : ... .. . ... ... : ... .. . ... ...
ROW 6E : ... .. 2 ... ... ... : ... .. 4 ... ... ... : ... .. . ... : ... .. 1 ... : ... .. . ... ... : ... .. . ... ... : ... .. . ... ... : ... .. 2 ... ...
ROW 6F : ... .. F ... ... ... : D-3 00 8 ... ... ... : ... .. . ... : ... .. 8 ... : ... .. . ... ... : ... .. . ... ... : ... .. . ... ... : ... .. A ... ...
ROW 70 : ... .. E ... ... ... : ... .. 3 ... ... ... : ... .. . ... : ... .. 6 ... : ... .. . ... ... : ... .. . ... ... : ... .. . ... ... : ... .. 8 ... ...
ROW 71 : ... .. D ... ... ... : ... .. 0 ... ... ... : ... .. . ... : ... .. 3 ... : ... .. . ... ... : ... .. . ... ... : ... .. . ... ... : ... .. 5 ... ...
ROW 72 : ... .. A ... ... ... : D-3 00 3 P80 ... ... : --- .. . ... : ... .. 1 ... : ... .. . ... ... : ... .. . ... ... : ... .. . ... ... : ... .. . ... ...
ROW 73 : ... .. 2 ... ... ... : ... .. 4 ... ... ... : ... .. . ... : ... .. . ... : ... .. . ... ... : ... .. . ... ... : ... .. . ... ... : ... .. 2 ... ...
ROW 74 : D-2 00 F ... ... ... : G-3 00 8 ... ... ... : D-4 00 . ... : 1-# 00 D ... : ... .. . ... ... : A-3 01 7 ... ... : D-3 01 7 P81 ... : D-1 01 A ... ...
ROW 75 : ... .. E ... ... ... : ... .. 3 ... ... ... : ... .. . ... : ... .. . ... : ... .. . ... ... : ... .. 6 ... ... : ... .. 6 ... ... : ... .. 8 ... ...
ROW 76 : ... .. D ... ... ... : ... .. 0 ... ... ... : ... .. . ... : D-# 00 D ... : ... .. . ... ... : ... .. . ... ... : ... .. . ... ... : ... .. 5 ... ...
ROW 77 : ... .. A ... ... ... : G-3 00 3 P80 ... ... : ... .. . ... : B-# 00 6 ... : ... .. . ... ... : --- .. . ... ... : --- .. . P83 ... : ... .. . ... ...
ROW 78 : ... .. 2 ... ... ... : ... .. 4 ... ... ... : --- .. . ... : 7-# 00 1 ... : ... .. . ... ... : ... .. . ... ... : ... .. . ... ... : ... .. 2 ... ...
ROW 79 : ... .. F ... ... ... : A-3 00 8 ... ... ... : D-4 00 . ... : D-# 00 8 ... : ... .. . ... ... : A-3 01 7 ... ... : D-3 01 7 P81 ... : ... .. A ... ...
ROW 7A : ... .. E ... ... ... : ... .. 3 ... ... ... : ... .. . ... : ... .. 6 ... : ... .. . ... ... : ... .. 6 ... ... : ... .. 6 ... ... : ... .. 8 ... ...
ROW 7B : ... .. D ... ... ... : ... .. 0 ... ... ... : ... .. . ... : ... .. 3 ... : ... .. . ... ... : ... .. . ... ... : ... .. . ... ... : ... .. 5 ... ...
ROW 7C : ... .. A ... ... ... : A-3 00 3 P80 ... ... : ... .. . ... : ... .. 1 ... : ... .. . ... ... : --- .. . ... ... : --- .. . P83 ... : ... .. . ... ...
ROW 7D : ... .. 2 ... ... ... : ... .. 4 ... ... ... : --- .. . ... : ... .. . ... : ... .. . ... ... : ... .. . ... ... : ... .. . ... ... : ... .. 2 ... ...
ROW 7E : D-1 00 F ... ... ... : D-4 00 8 ... ... ... : D-3 00 . ... : ... .. A ... : ... .. . ... ... : A-3 01 7 ... ... : D-3 01 7 P81 ... : D-0 01 A ... ...
ROW 7F : ... .. E ... ... ... : ... .. 3 ... ... ... : ... .. . ... : ... .. 8 ... : ... .. . ... ... : ... .. 6 ... ... : ... .. 6 ... ... : ... .. 8 ... ...
ROW 80 : ... .. D ... ... ... : ... .. 0 ... ... ... : ... .. . ... : ... .. 4 ... : ... .. . ... ... : ... .. . ... ... : ... .. . ... ... : ... .. 5 ... ...
ROW 81 : ... .. A ... ... ... : D-4 00 3 P80 ... ... : ... .. . ... : ... .. 2 ... : ... .. . ... ... : ... .. . ... ... : ... .. . ... ... : ... .. . ... ...
ROW 82 : ... .. 2 ... ... ... : ... .. 4 ... ... ... : --- .. . ... : ... .. 1 ... : ... .. . ... ... : ... .. 5 ... ... : ... .. 5 ... ... : ... .. 2 ... ...
ROW 83 : ... .. F ... ... ... : A-3 00 8 ... ... ... : D-3 00 . ... : ... .. 8 ... : ... .. . ... ... : ... .. . ... ... : ... .. . ... ... : ... .. A ... ...
ROW 84 : ... .. E ... ... ... : ... .. 3 ... ... ... : ... .. . ... : ... .. 6 ... : ... .. . ... ... : ... .. . ... ... : ... .. . ... ... : ... .. 8 ... ...
ROW 85 : ... .. D ... ... ... : ... .. 0 ... ... ... : ... .. . ... : ... .. 3 ... : ... .. . ... ... : ... .. 4 ... ... : ... .. 4 ... ... : ... .. 5 ... ...
ROW 86 : ... .. A ... ... ... : A-3 00 3 P80 ... ... : ... .. . ... : ... .. 1 ... : ... .. . ... ... : ... .. . ... ... : ... .. . ... ... : ... .. . ... ...
ROW 87 : ... .. 2 ... ... ... : ... .. 4 ... ... ... : --- .. . ... : ... .. . ... : ... .. . ... ... : ... .. . ... ... : ... .. . ... ... : ... .. 2 ... ...
ROW 88 : D-3 00 8 ... ... ... : D-4 00 8 ... ... ... : F-3 00 . ... : 9-# 00 8 ... : ... .. . ... ... : --- .. . ... ... : --- .. . P83 ... : F-1 01 A ... ...
ROW 89 : ... .. 7 ... ... ... : ... .. 3 ... ... ... : ... .. . ... : ... .. . ... : ... .. . ... ... : ... .. . ... ... : ... .. . ... ... : ... .. 8 ... ...
ROW 8A : ... .. 6 ... ... ... : ... .. 0 ... ... ... : ... .. . ... : 5-# 00 8 ... : ... .. . ... ... : ... .. . ... ... : ... .. . ... ... : ... .. 5 ... ...
ROW 8B : ... .. 5 ... ... ... : D-4 00 3 P80 ... ... : ... .. . ... : 3-# 00 4 ... : ... .. . ... ... : ... .. . ... ... : ... .. . ... ... : ... .. . ... ...
ROW 8C : ... .. . ... ... ... : ... .. 4 ... ... ... : ... .. . ... : F-# 00 1 ... : ... .. . ... ... : ... .. . ... ... : ... .. . ... ... : ... .. 2 ... ...
ROW 8D : G-3 00 9 ... ... ... : A-3 00 8 ... ... ... : ... .. . ... : 9-# 00 8 ... : ... .. . ... ... : ... .. . ... ... : ... .. . ... ... : ... .. A ... ...
ROW 8E : ... .. 8 ... ... ... : ... .. 3 ... ... ... : ... .. . ... : ... .. . ... : ... .. . ... ... : ... .. . ... ... : ... .. . ... ... : ... .. 8 ... ...
ROW 8F : ... .. 7 ... ... ... : ... .. 0 ... ... ... : ... .. . ... : 5-# 00 8 ... : ... .. . ... ... : ... .. . ... ... : ... .. . ... ... : ... .. 5 ... ...
ROW 90 : ... .. 6 ... ... ... : A-3 00 3 P80 ... ... : --- .. . ... : 3-# 00 4 ... : ... .. . ... ... : ... .. . ... ... : ... .. . ... ... : ... .. . ... ...
ROW 91 : ... .. . ... ... ... : ... .. 4 ... ... ... : ... .. . ... : F-# 00 1 ... : ... .. . ... ... : ... .. . ... ... : ... .. . ... ... : ... .. 2 ... ...
ROW 92 : A-3 00 A ... ... ... : G-3 00 8 ... ... ... : F-2 00 . ... : 4-# 00 9 ... : ... .. . ... ... : D-3 01 7 ... ... : G-2 01 7 P81 ... : D-0 01 A ... ...
ROW 93 : ... .. 9 ... ... ... : ... .. 3 ... ... ... : ... .. . ... : ... .. . ... : ... .. . ... ... : ... .. 6 ... ... : ... .. 6 ... ... : ... .. 8 ... ...
ROW 94 : ... .. 8 ... ... ... : ... .. 0 ... ... ... : ... .. . ... : 0-# 00 9 ... : ... .. . ... ... : ... .. . ... ... : ... .. . ... ... : ... .. 5 ... ...
ROW 95 : ... .. 6 ... ... ... : G-3 00 3 P80 ... ... : ... .. . ... : E-# 00 4 ... : ... .. . ... ... : --- .. . P81 ... : --- .. . P7F ... : ... .. . ... ...
ROW 96 : ... .. . ... ... ... : ... .. 4 ... ... ... : ... .. . ... : A-# 00 1 ... : ... .. . ... ... : ... .. . ... ... : ... .. . ... ... : ... .. 2 ... ...
ROW 97 : D-4 00 B ... ... ... : A-3 00 8 ... ... ... : ... .. . ... : 4-# 00 A ... : ... .. . ... ... : D-3 01 7 P7F ... : G-2 01 7 P81 ... : ... .. A ... ...
ROW 98 : ... .. A ... ... ... : ... .. 3 ... ... ... : ... .. . ... : ... .. . ... : ... .. . ... ... : ... .. 6 ... ... : ... .. 6 ... ... : ... .. 8 ... ...
ROW 99 : ... .. 9 ... ... ... : ... .. 0 ... ... ... : ... .. . ... : 0-# 00 A ... : ... .. . ... ... : ... .. . ... ... : ... .. . ... ... : ... .. 5 ... ...
ROW 9A : ... .. 8 ... ... ... : A-3 00 3 P80 ... ... : --- .. . ... : E-# 00 4 ... : ... .. . ... ... : --- .. . P81 ... : --- .. . P7F ... : ... .. . ... ...
ROW 9B : ... .. . ... ... ... : ... .. 4 ... ... ... : ... .. . ... : A-# 00 1 ... : ... .. . ... ... : ... .. . ... ... : ... .. . ... ... : ... .. 2 ... ...
ROW 9C : G-4 00 C ... ... ... : D-4 00 8 ... ... ... : F-3 00 . ... : 6-# 00 A ... : ... .. . ... ... : A-3 01 7 P7F ... : D-3 01 7 P81 ... : E-1 01 A ... ...
ROW 9D : ... .. B ... ... ... : ... .. 3 ... ... ... : ... .. . ... : ... .. . ... : ... .. . ... ... : ... .. 6 ... ... : ... .. 6 ... ... : ... .. 8 ... ...
ROW 9E : ... .. A ... ... ... : ... .. 0 ... ... ... : ... .. . ... : 2-# 00 A ... : ... .. . ... ... : ... .. . ... ... : ... .. . ... ... : ... .. 5 ... ...
ROW 9F : ... .. 8 ... ... ... : D-4 00 3 P80 ... ... : ... .. . ... : 0-# 00 5 ... : ... .. . ... ... : ... .. . ... ... : ... .. . ... ... : ... .. . ... ...
ROW A0 : ... .. . ... ... ... : ... .. 4 ... ... ... : --- .. . ... : C-# 00 1 ... : ... .. . ... ... : ... .. 5 ... ... : ... .. 5 ... ... : ... .. 2 ... ...
ROW A1 : A-4 00 D ... ... ... : G-4 00 8 ... ... ... : F-3 00 . ... : 6-# 00 B ... : ... .. . ... ... : --- .. . ... ... : --- .. . P83 ... : ... .. A ... ...
ROW A2 : ... .. C ... ... ... : ... .. 3 ... ... ... : ... .. . ... : ... .. . ... : ... .. . ... ... : ... .. . ... ... : ... .. . ... ... : ... .. 8 ... ...
ROW A3 : ... .. B ... ... ... : ... .. 0 ... ... ... : ... .. . ... : 2-# 00 B ... : ... .. . ... ... : ... .. . ... ... : ... .. . ... ... : ... .. 5 ... ...
ROW A4 : ... .. 9 ... ... ... : G-4 00 3 P80 ... ... : ... .. . ... : 0-# 00 5 ... : ... .. . ... ... : ... .. . ... ... : ... .. . ... ... : ... .. . ... ...
ROW A5 : ... .. . ... ... ... : ... .. 4 ... ... ... : --- .. . ... : C-# 00 1 ... : ... .. . ... ... : ... .. . ... ... : ... .. . ... ... : ... .. 2 ... ...
ROW A6 : D-5 00 F ... ... ... : A-4 00 8 ... ... ... : E-3 00 . ... : 1-# 00 C ... : ... .. . ... ... : D-3 01 7 ... ... : G-2 01 7 P81 ... : D-0 01 A ... ...
ROW A7 : ... .. E ... ... ... : ... .. 3 ... ... ... : ... .. . ... : ... .. . ... : ... .. . ... ... : ... .. 6 ... ... : ... .. 6 ... ... : ... .. 8 ... ...
ROW A8 : ... .. D ... ... ... : ... .. 0 ... ... ... : ... .. . ... : D-# 00 C ... : ... .. . ... ... : ... .. . ... ... : ... .. . ... ... : ... .. 5 ... ...
ROW A9 : ... .. A ... ... ... : A-4 00 3 P80 ... ... : ... .. . ... : B-# 00 5 ... : ... .. . ... ... : --- .. . P81 ... : --- .. . P7F ... : ... .. . ... ...
ROW AA : ... .. . ... ... ... : ... .. 4 ... ... ... : --- .. . ... : 7-# 00 1 ... : ... .. . ... ... : ... .. . ... ... : ... .. . ... ... : ... .. 2 ... ...
ROW AB : G-4 00 8 ... ... ... : D-5 00 8 ... ... ... : E-3 00 . ... : 1-# 00 D ... : ... .. . ... ... : D-3 01 7 P7F ... : G-2 01 7 P81 ... : ... .. A ... ...
ROW AC : ... .. 7 ... ... ... : ... .. 3 ... ... ... : ... .. . ... : ... .. . ... : ... .. . ... ... : ... .. 6 ... ... : ... .. 6 ... ... : ... .. 8 ... ...
ROW AD : ... .. 6 ... ... ... : ... .. 0 ... ... ... : ... .. . ... : D-# 00 D ... : ... .. . ... ... : ... .. . ... ... : ... .. . ... ... : ... .. 5 ... ...
ROW AE : ... .. 5 ... ... ... : D-5 00 3 P80 ... ... : ... .. . ... : B-# 00 6 ... : ... .. . ... ... : --- .. . P81 ... : --- .. . P7F ... : ... .. . ... ...
ROW AF : ... .. . ... ... ... : ... .. 4 ... ... ... : --- .. . ... : 7-# 00 1 ... : ... .. . ... ... : ... .. . ... ... : ... .. . ... ... : ... .. 2 ... ...
ROW B0 : C-3 00 F ... ... ... : C-5 00 8 ... ... ... : D-3 00 . ... : 1-# 00 F ... : ... .. . ... ... : A-3 01 7 P7F ... : D-3 01 7 P81 ... : C-2 01 A ... ...
ROW B1 : ... .. E ... ... ... : ... .. 3 ... ... ... : ... .. . ... : ... .. C ... : ... .. . ... ... : ... .. 6 ... ... : ... .. 6 ... ... : ... .. 8 ... ...
ROW B2 : ... .. D ... ... ... : ... .. 0 ... ... ... : ... .. . ... : ... .. 6 ... : ... .. . ... ... : ... .. . ... ... : ... .. . ... ... : ... .. 5 ... ...
ROW B3 : ... .. A ... ... ... : C-5 00 3 P80 ... ... : ... .. . ... : ... .. 3 ... : ... .. . ... ... : ... .. . ... ... : ... .. . ... ... : ... .. . ... ...
ROW B4 : ... .. . ... ... ... : ... .. 4 ... ... ... : ... .. . ... : ... .. 2 ... : ... .. . ... ... : ... .. 5 ... ... : ... .. 5 ... ... : ... .. . ... ...
ROW B5 : ... .. . ... ... ... : G-4 00 8 ... ... ... : ... .. . ... : D-# 00 8 ... : ... .. . ... ... : ... .. . ... ... : ... .. . ... ... : ... .. . ... ...
ROW B6 : ... .. . ... ... ... : ... .. 3 ... ... ... : ... .. . ... : ... .. 6 ... : ... .. . ... ... : ... .. . ... ... : ... .. . ... ... : ... .. . ... ...
ROW B7 : ... .. . ... ... ... : ... .. 0 ... ... ... : ... .. . ... : ... .. 3 ... : ... .. . ... ... : ... .. 4 ... ... : ... .. 4 ... ... : ... .. . ... ...
ROW B8 : ... .. . ... ... ... : G-4 00 3 P80 ... ... : --- .. . ... : ... .. 1 ... : ... .. . ... ... : ... .. . ... ... : ... .. . ... ... : ... .. . ... ...
ROW B9 : ... .. . ... ... ... : ... .. 4 ... ... ... : ... .. . ... : ... .. . ... : ... .. . ... ... : ... .. . ... ... : ... .. . ... ... : ... .. . ... ...
ROW BA : ... .. . ... ... ... : F-4 00 8 ... ... ... : D-3 00 . ... : ... .. A ... : ... .. . ... ... : --- .. . ... ... : --- .. . P83 ... : ... .. . ... ...
ROW BB : ... .. . ... ... ... : ... .. 3 ... ... ... : ... .. . ... : ... .. 8 ... : ... .. . ... ... : ... .. . ... ... : ... .. . ... ... : ... .. . ... ...
ROW BC : ... .. . ... ... ... : ... .. 0 ... ... ... : ... .. . ... : ... .. 4 ... : ... .. . ... ... : ... .. . ... ... : ... .. . ... ... : ... .. . ... ...
ROW BD : ... .. . ... ... ... : F-4 00 3 P80 ... ... : ... .. . ... : ... .. 2 ... : ... .. . ... ... : ... .. . ... ... : ... .. . ... ... : ... .. . ... ...
ROW BE : ... .. . ... ... ... : ... .. 4 ... ... ... : ... .. . ... : ... .. 1 ... : ... .. . ... ... : ... .. . ... ... : ... .. . ... ... : ... .. . ... ...
ROW BF : ... .. . ... ... ... : C-4 00 8 ... ... ... : ... .. . ... : ... .. 8 ... : ... .. . ... ... : ... .. . ... ... : ... .. . ... ... : ... .. . ... ...
ROW C0 : ... .. . ... ... ... : ... .. 3 ... ... ... : ... .. . ... : ... .. 6 ... : ... .. . ... ... : ... .. . ... ... : ... .. . ... ... : ... .. . ... ...
ROW C1 : ... .. . ... ... ... : ... .. 0 ... ... ... : ... .. . ... : ... .. 3 ... : ... .. . ... ... : ... .. . ... ... : ... .. . ... ... : ... .. . ... ...
ROW C2 : ... .. . ... ... ... : C-4 00 3 P80 ... ... : --- .. . ... : ... .. 1 ... : ... .. . ... ... : ... .. . ... ... : ... .. . ... ... : ... .. . ... ...
ROW C3 : ... .. . ... ... ... : ... .. 4 ... ... ... : ... .. . ... : ... .. . ... : ... .. . ... ... : ... .. . ... ... : ... .. . ... ... : ... .. . ... ...
ROW C4 : ... .. . ... ... ... : A-3 00 8 ... ... ... : D-4 00 . ... : 1-# 00 D ... : ... .. . ... ... : A-3 01 7 ... ... : D-3 01 7 P81 ... : ... .. . ... ...
ROW C5 : ... .. . ... ... ... : ... .. 3 ... ... ... : ... .. . ... : ... .. . ... : ... .. . ... ... : ... .. 6 ... ... : ... .. 6 ... ... : ... .. . ... ...
ROW C6 : ... .. . ... ... ... : ... .. 0 ... ... ... : ... .. . ... : D-# 00 D ... : ... .. . ... ... : ... .. . ... ... : ... .. . ... ... : ... .. . ... ...
ROW C7 : ... .. . ... ... ... : A-3 00 3 P80 ... ... : ... .. . ... : B-# 00 6 ... : ... .. . ... ... : --- .. . ... ... : --- .. . P83 ... : ... .. . ... ...
ROW C8 : ... .. . ... ... ... : ... .. 4 ... ... ... : --- .. . ... : 7-# 00 1 ... : ... .. . ... ... : ... .. . ... ... : ... .. . ... ... : ... .. . ... ...
ROW C9 : ... .. . ... ... ... : G-3 00 8 ... ... ... : D-4 00 . ... : D-# 00 8 ... : ... .. . ... ... : A-3 01 7 ... ... : D-3 01 7 P81 ... : ... .. . ... ...
ROW CA : ... .. . ... ... ... : ... .. 3 ... ... ... : ... .. . ... : ... .. 6 ... : ... .. . ... ... : ... .. 6 ... ... : ... .. 6 ... ... : ... .. . ... ...
ROW CB : ... .. . ... ... ... : ... .. 0 ... ... ... : ... .. . ... : ... .. 3 ... : ... .. . ... ... : ... .. . ... ... : ... .. . ... ... : ... .. . ... ...
ROW CC : ... .. . ... ... ... : G-3 00 3 P80 ... ... : ... .. . ... : ... .. 1 ... : ... .. . ... ... : --- .. . ... ... : --- .. . P83 ... : ... .. . ... ...
ROW CD : ... .. . ... ... ... : ... .. 4 ... ... ... : --- .. . ... : ... .. . ... : ... .. . ... ... : ... .. . ... ... : ... .. . ... ... : ... .. . ... ...
ROW CE : ... .. . ... ... ... : F-3 00 8 ... ... ... : D-3 00 . ... : ... .. A ... : ... .. . ... ... : A-3 01 7 ... ... : D-3 01 7 P81 ... : ... .. . ... ...
ROW CF : ... .. . ... ... ... : ... .. 3 ... ... ... : ... .. . ... : ... .. 8 ... : ... .. . ... ... : ... .. 6 ... ... : ... .. 6 ... ... : ... .. . ... ...
ROW D0 : ... .. . ... ... ... : ... .. 0 ... ... ... : ... .. . ... : ... .. 4 ... : ... .. . ... ... : ... .. . ... ... : ... .. . ... ... : ... .. . ... ...
ROW D1 : ... .. . ... ... ... : F-3 00 3 P80 ... ... : ... .. . ... : ... .. 2 ... : ... .. . ... ... : ... .. . ... ... : ... .. . ... ... : ... .. . ... ...
ROW D2 : ... .. . ... ... ... : ... .. 4 ... ... ... : --- .. . ... : ... .. 1 ... : ... .. . ... ... : ... .. 5 ... ... : ... .. 5 ... ... : ... .. . ... ...
ROW D3 : ... .. . ... ... ... : C-3 00 8 ... ... ... : D-3 00 . ... : ... .. 8 ... : ... .. . ... ... : ... .. . ... ... : ... .. . ... ... : ... .. . ... ...
ROW D4 : ... .. 2 ... ... ... : ... .. 3 ... ... ... : ... .. . ... : ... .. 6 ... : ... .. . ... ... : ... .. . ... ... : ... .. . ... ... : ... .. 2 ... ...
ROW D5 : ... .. . ... ... ... : ... .. 0 ... ... ... : ... .. . ... : ... .. 3 ... : ... .. . ... ... : ... .. 4 ... ... : ... .. 4 ... ... : ... .. . ... ...
ROW D6 : ... .. . ... ... ... : C-3 00 3 P80 ... ... : ... .. . ... : ... .. 1 ... : ... .. . ... ... : ... .. . ... ... : ... .. . ... ... : ... .. 1 ... ...
ROW D7 : ... .. 1 ... ... ... : ... .. 4 ... ... ... : --- .. . ... : ... .. . ... : ... .. . ... ... : ... .. . ... ... : ... .. . ... ... : ... .. . ... ...
ROW D8 : G-3 00 F ... ... ... : C-5 00 8 ... ... ... : D-3 00 . ... : 1-# 00 F ... : ... .. . ... ... : --- .. . ... ... : --- .. . P83 ... : A-2 01 A ... ...
ROW D9 : G#3 00 E P79 ... ... : ... .. 3 ... ... ... : ... .. . ... : ... .. C ... : ... .. . ... ... : ... .. . ... ... : ... .. . ... ... : ... .. 8 ... ...
ROW DA : ... .. D P82 ... ... : ... .. 0 ... ... ... : ... .. . ... : ... .. 6 ... : ... .. . ... ... : ... .. . ... ... : ... .. . ... ... : ... .. 5 ... ...
ROW DB : A-3 00 A P7C ... ... : C-5 00 3 P80 ... ... : ... .. . ... : ... .. 3 ... : ... .. . ... ... : ... .. . ... ... : ... .. . ... ... : ... .. . ... ...
ROW DC : ... .. . P80 ... ... : ... .. 4 ... ... ... : ... .. . ... : ... .. 2 ... : ... .. . ... ... : ... .. . ... ... : ... .. . ... ... : ... .. . ... ...
ROW DD : ... .. . ... ... ... : G-4 00 8 ... ... ... : ... .. . ... : D-# 00 8 ... : ... .. . ... ... : ... .. . ... ... : ... .. . ... ... : ... .. . ... ...
ROW DE : ... .. . ... ... ... : ... .. 3 ... ... ... : ... .. . ... : ... .. 6 ... : ... .. . ... ... : ... .. . ... ... : ... .. . ... ... : ... .. . ... ...
ROW DF : ... .. . ... ... ... : ... .. 0 ... ... ... : ... .. . ... : ... .. 3 ... : ... .. . ... ... : ... .. . ... ... : ... .. . ... ... : ... .. . ... ...
ROW E0 : ... .. . ... ... ... : G-4 00 3 P80 ... ... : --- .. . ... : ... .. 1 ... : ... .. . ... ... : ... .. . ... ... : ... .. . ... ... : ... .. . ... ...
ROW E1 : ... .. . ... ... ... : ... .. 4 ... ... ... : ... .. . ... : ... .. . ... : ... .. . ... ... : ... .. . ... ... : ... .. . ... ... : ... .. . ... ...
ROW E2 : ... .. . ... ... ... : F-4 00 8 ... ... ... : D-3 00 . ... : ... .. A ... : ... .. . ... ... : A-3 01 7 ... ... : D-3 01 7 P81 ... : ... .. . ... ...
ROW E3 : ... .. . ... ... ... : ... .. 3 ... ... ... : ... .. . ... : ... .. 8 ... : ... .. . ... ... : ... .. 6 ... ... : ... .. 6 ... ... : ... .. . ... ...
ROW E4 : ... .. . ... ... ... : ... .. 0 ... ... ... : ... .. . ... : ... .. 4 ... : ... .. . ... ... : ... .. . ... ... : ... .. . ... ... : ... .. . ... ...
ROW E5 : ... .. . ... ... ... : F-4 00 3 P80 ... ... : ... .. . ... : ... .. 2 ... : ... .. . ... ... : --- .. . ... ... : --- .. . P83 ... : ... .. . ... ...
ROW E6 : ... .. . ... ... ... : ... .. 4 ... ... ... : ... .. . ... : ... .. 1 ... : ... .. . ... ... : ... .. . ... ... : ... .. . ... ... : ... .. . ... ...
ROW E7 : ... .. . ... ... ... : C-4 00 8 ... ... ... : ... .. . ... : ... .. 8 ... : ... .. . ... ... : A-3 01 7 ... ... : D-3 01 7 P81 ... : ... .. . ... ...
ROW E8 : ... .. . ... ... ... : ... .. 3 ... ... ... : ... .. . ... : ... .. 6 ... : ... .. . ... ... : ... .. 6 ... ... : ... .. 6 ... ... : ... .. . ... ...
ROW E9 : ... .. . ... ... ... : ... .. 0 ... ... ... : ... .. . ... : ... .. 3 ... : ... .. . ... ... : ... .. . ... ... : ... .. . ... ... : ... .. . ... ...
ROW EA : ... .. . ... ... ... : C-4 00 3 P80 ... ... : --- .. . ... : ... .. 1 ... : ... .. . ... ... : --- .. . ... ... : --- .. . P83 ... : ... .. . ... ...
ROW EB : ... .. . ... ... ... : ... .. 4 ... ... ... : ... .. . ... : ... .. . ... : ... .. . ... ... : ... .. . ... ... : ... .. . ... ... : ... .. . ... ...
ROW EC : ... .. . ... ... ... : A-3 00 8 ... ... ... : D-4 00 . ... : 1-# 00 D ... : ... .. . ... ... : A-3 01 7 ... ... : D-3 01 7 P81 ... : ... .. . ... ...
ROW ED : ... .. . ... ... ... : ... .. 3 ... ... ... : ... .. . ... : ... .. . ... : ... .. . ... ... : ... .. 6 ... ... : ... .. 6 ... ... : ... .. . ... ...
ROW EE : ... .. . ... ... ... : ... .. 0 ... ... ... : ... .. . ... : D-# 00 D ... : ... .. . ... ... : ... .. . ... ... : ... .. . ... ... : ... .. . ... ...
ROW EF : ... .. . ... ... ... : A-3 00 3 P80 ... ... : ... .. . ... : B-# 00 6 ... : ... .. . ... ... : ... .. . ... ... : ... .. . ... ... : ... .. . ... ...
ROW F0 : ... .. . ... ... ... : ... .. 4 ... ... ... : --- .. . ... : 7-# 00 1 ... : ... .. . ... ... : ... .. 5 ... ... : ... .. 5 ... ... : ... .. . ... ...
ROW F1 : ... .. . ... ... ... : G-3 00 8 ... ... ... : D-4 00 . ... : D-# 00 8 ... : ... .. . ... ... : --- .. . ... ... : --- .. . P83 ... : ... .. . ... ...
ROW F2 : ... .. . ... ... ... : ... .. 3 ... ... ... : ... .. . ... : ... .. 6 ... : ... .. . ... ... : ... .. . ... ... : ... .. . ... ... : ... .. . ... ...
ROW F3 : ... .. . ... ... ... : ... .. 0 ... ... ... : ... .. . ... : ... .. 3 ... : ... .. . ... ... : ... .. . ... ... : ... .. . ... ... : ... .. . ... ...
ROW F4 : ... .. . ... ... ... : G-3 00 3 P80 ... ... : ... .. . ... : ... .. 1 ... : ... .. . ... ... : ... .. . ... ... : ... .. . ... ... : ... .. . ... ...
ROW F5 : ... .. . ... ... ... : ... .. 4 ... ... ... : --- .. . ... : ... .. . ... : ... .. . ... ... : ... .. . ... ... : ... .. . ... ... : ... .. . ... ...
ROW F6 : ... .. . ... ... ... : F-3 00 8 ... ... ... : D-3 00 . ... : ... .. A ... : ... .. . ... ... : D-3 01 7 ... ... : G-2 01 7 P81 ... : ... .. . ... ...
ROW F7 : ... .. . ... ... ... : ... .. 3 ... ... ... : ... .. . ... : ... .. 8 ... : ... .. . ... ... : ... .. 6 ... ... : ... .. 6 ... ... : ... .. . ... ...
ROW F8 : ... .. . ... ... ... : ... .. 0 ... ... ... : ... .. . ... : ... .. 4 ... : ... .. . ... ... : ... .. . ... ... : ... .. . ... ... : ... .. . ... ...
ROW F9 : ... .. . ... ... ... : F-3 00 3 P80 ... ... : ... .. . ... : ... .. 2 ... : ... .. . ... ... : ... .. . ... ... : ... .. . ... ... : ... .. . ... ...
ROW FA : ... .. . ... ... ... : ... .. 4 ... ... ... : --- .. . ... : ... .. 1 ... : ... .. . ... ... : ... .. 5 ... ... : ... .. 5 ... ... : ... .. . ... ...
ROW FB : ... .. . ... ... ... : C-3 00 8 ... ... ... : D-3 00 . ... : ... .. 8 ... : ... .. . ... ... : --- .. . P81 ... : --- .. . P7F ... : ... .. . ... ...
ROW FC : ... .. 2 ... ... ... : ... .. 3 ... ... ... : ... .. . ... : ... .. 6 ... : ... .. . ... ... : ... .. . ... ... : ... .. . ... ... : ... .. 2 ... ...
ROW FD : ... .. . ... ... ... : ... .. 0 ... ... ... : ... .. . ... : ... .. 3 ... : ... .. . ... ... : ... .. . ... ... : ... .. . ... ... : ... .. . ... ...
ROW FE : ... .. . ... ... ... : C-3 00 3 P80 ... ... : ... .. . ... : ... .. 1 ... : ... .. . ... ... : ... .. . ... ... : ... .. . ... ... : ... .. 1 ... ...
ROW FF : ... .. 1 ... ... ... : ... .. 4 ... ... ... : --- .. . ... : ... .. . ... : ... .. . ... ... : ... .. . ... ... : ... .. . ... ... : ... .. . ... ...

PATTERN 14
ROW 00 : G-3 00 F ... ... ... : B-4 00 8 ... ... ... : D-3 00 . ... : 1-# 00 F ... : ... .. . ... ... : A-3 01 7 P7F ... : D-3 01 7 P81 ... : G-2 01 A ... ...
ROW 01 : ... .. E ... ... ... : ... .. 3 ... ... ... : ... .. . ... : ... .. C ... : ... .. . ... ... : ... .. 6 ... ... : ... .. 6 ... ... : ... .. 8 ... ...
ROW 02 : ... .. D ... ... ... : ... .. 0 ... ... ... : ... .. . ... : ... .. 6 ... : ... .. . ... ... : ... .. . ... ... : ... .. . ... ... : ... .. 5 ... ...
ROW 03 : ... .. A ... ... ... : B-4 00 3 P80 ... ... : ... .. . ... : ... .. 3 ... : ... .. . ... ... : ... .. . ... ... : ... .. . ... ... : ... .. . ... ...
ROW 04 : ... .. . ... ... ... : ... .. 4 ... ... ... : ... .. . ... : ... .. 2 ... : ... .. . ... ... : ... .. 5 ... ... : ... .. 5 ... ... : ... .. . ... ...
ROW 05 : ... .. . ... ... ... : G-4 00 8 ... ... ... : ... .. . ... : D-# 00 8 ... : ... .. . ... ... : ... .. . ... ... : ... .. . ... ... : ... .. . ... ...
ROW 06 : ... .. 2 ... ... ... : ... .. 3 ... ... ... : ... .. . ... : ... .. 6 ... : ... .. . ... ... : ... .. . ... ... : ... .. . ... ... : ... .. 2 ... ...
ROW 07 : ... .. . ... ... ... : ... .. 0 ... ... ... : ... .. . ... : ... .. 3 ... : ... .. . ... ... : ... .. 4 ... ... : ... .. 4 ... ... : ... .. . ... ...
ROW 08 : ... .. . ... ... ... : G-4 00 3 P80 ... ... : --- .. . ... : ... .. 1 ... : ... .. . ... ... : ... .. . ... ... : ... .. . ... ... : ... .. 1 ... ...
ROW 09 : ... .. 1 ... ... ... : ... .. 4 ... ... ... : ... .. . ... : ... .. . ... : ... .. . ... ... : ... .. . ... ... : ... .. . ... ... : ... .. . ... ...
ROW 0A : ... .. F ... ... ... : D-4 00 8 ... ... ... : D-3 00 . ... : ... .. A ... : ... .. . ... ... : --- .. . ... ... : --- .. . P83 ... : ... .. A ... ...
ROW 0B : ... .. E ... ... ... : ... .. 3 ... ... ... : ... .. . ... : ... .. 8 ... : ... .. . ... ... : ... .. . ... ... : ... .. . ... ... : ... .. 8 ... ...
ROW 0C : ... .. D ... ... ... : ... .. 0 ... ... ... : ... .. . ... : ... .. 4 ... : ... .. . ... ... : ... .. . ... ... : ... .. . ... ... : ... .. 5 ... ...
ROW 0D : ... .. A ... ... ... : D-4 00 3 P80 ... ... : ... .. . ... : ... .. 2 ... : ... .. . ... ... : ... .. . ... ... : ... .. . ... ... : ... .. . ... ...
ROW 0E : ... .. 2 ... ... ... : ... .. 4 ... ... ... : ... .. . ... : ... .. 1 ... : ... .. . ... ... : ... .. . ... ... : ... .. . ... ... : ... .. 2 ... ...
ROW 0F : A-3 00 F ... ... ... : B-3 00 8 ... ... ... : ... .. . ... : ... .. 8 ... : ... .. . ... ... : ... .. . ... ... : ... .. . ... ... : A-2 01 A ... ...
ROW 10 : ... .. E ... ... ... : ... .. 3 ... ... ... : ... .. . ... : ... .. 6 ... : ... .. . ... ... : ... .. . ... ... : ... .. . ... ... : ... .. 8 ... ...
ROW 11 : ... .. D ... ... ... : ... .. 0 ... ... ... : ... .. . ... : ... .. 3 ... : ... .. . ... ... : ... .. . ... ... : ... .. . ... ... : ... .. 5 ... ...
ROW 12 : ... .. A ... ... ... : B-3 00 3 P80 ... ... : --- .. . ... : ... .. 1 ... : ... .. . ... ... : ... .. . ... ... : ... .. . ... ... : ... .. . ... ...
ROW 13 : ... .. 2 ... ... ... : ... .. 4 ... ... ... : ... .. . ... : ... .. . ... : ... .. . ... ... : ... .. . ... ... : ... .. . ... ... : ... .. 2 ... ...
ROW 14 : B-3 00 F ... ... ... : G-3 00 8 ... ... ... : D-4 00 . ... : 1-# 00 D ... : ... .. . ... ... : A-3 01 7 ... ... : D-3 01 7 P81 ... : B-2 01 A ... ...
ROW 15 : ... .. E ... ... ... : ... .. 3 ... ... ... : ... .. . ... : ... .. . ... : ... .. . ... ... : ... .. 6 ... ... : ... .. 6 ... ... : ... .. 8 ... ...
ROW 16 : ... .. D ... ... ... : ... .. 0 ... ... ... : ... .. . ... : D-# 00 D ... : ... .. . ... ... : ... .. . ... ... : ... .. . ... ... : ... .. 5 ... ...
ROW 17 : ... .. A ... ... ... : G-3 00 3 P80 ... ... : ... .. . ... : B-# 00 6 ... : ... .. . ... ... : --- .. . ... ... : --- .. . P83 ... : ... .. . ... ...
ROW 18 : ... .. . ... ... ... : ... .. 4 ... ... ... : --- .. . ... : 7-# 00 1 ... : ... .. . ... ... : ... .. . ... ... : ... .. . ... ... : ... .. . ... ...
ROW 19 : ... .. . ... ... ... : D-3 00 8 ... ... ... : D-4 00 . ... : D-# 00 8 ... : ... .. . ... ... : A-3 01 7 ... ... : D-3 01 7 P81 ... : ... .. . ... ...
ROW 1A : ... .. . ... ... ... : ... .. 3 ... ... ... : ... .. . ... : ... .. 6 ... : ... .. . ... ... : ... .. 6 ... ... : ... .. 6 ... ... : ... .. . ... ...
ROW 1B : ... .. . ... ... ... : ... .. 0 ... ... ... : ... .. . ... : ... .. 3 ... : ... .. . ... ... : ... .. . ... ... : ... .. . ... ... : ... .. . ... ...
ROW 1C : ... .. . ... ... ... : D-3 00 3 P80 ... ... : ... .. . ... : ... .. 1 ... : ... .. . ... ... : --- .. . ... ... : --- .. . P83 ... : ... .. . ... ...
ROW 1D : ... .. . ... ... ... : ... .. 4 ... ... ... : --- .. . ... : ... .. . ... : ... .. . ... ... : ... .. . ... ... : ... .. . ... ... : ... .. . ... ...
ROW 1E : ... .. . ... ... ... : B-2 00 8 ... ... ... : D-3 00 . ... : ... .. A ... : ... .. . ... ... : A-3 01 7 ... ... : D-3 01 7 P81 ... : ... .. . ... ...
ROW 1F : ... .. . ... ... ... : ... .. 3 ... ... ... : ... .. . ... : ... .. 8 ... : ... .. . ... ... : ... .. 6 ... ... : ... .. 6 ... ... : ... .. . ... ...
ROW 20 : ... .. . ... ... ... : ... .. 0 ... ... ... : ... .. . ... : ... .. 4 ... : ... .. . ... ... : ... .. . ... ... : ... .. . ... ... : ... .. . ... ...
ROW 21 : ... .. . ... ... ... : B-2 00 3 P80 ... ... : ... .. . ... : ... .. 2 ... : ... .. . ... ... : ... .. . ... ... : ... .. . ... ... : ... .. . ... ...
ROW 22 : ... .. . ... ... ... : ... .. 4 ... ... ... : --- .. . ... : ... .. 1 ... : ... .. . ... ... : ... .. 5 ... ... : ... .. 5 ... ... : ... .. . ... ...
ROW 23 : ... .. . ... ... ... : G-2 00 8 ... ... ... : D-3 00 . ... : ... .. 8 ... : ... .. . ... ... : ... .. . ... ... : ... .. . ... ... : ... .. . ... ...
ROW 24 : ... .. . ... ... ... : ... .. 3 ... ... ... : ... .. . ... : ... .. 6 ... : ... .. . ... ... : ... .. . ... ... : ... .. . ... ... : ... .. . ... ...
ROW 25 : ... .. . ... ... ... : ... .. 0 ... ... ... : ... .. . ... : ... .. 3 ... : ... .. . ... ... : ... .. 4 ... ... : ... .. 4 ... ... : ... .. . ... ...
ROW 26 : ... .. . ... ... ... : G-2 00 3 P80 ... ... : ... .. . ... : ... .. 1 ... : ... .. . ... ... : ... .. . ... ... : ... .. . ... ... : ... .. . ... ...
ROW 27 : ... .. . ... ... ... : ... .. 4 ... ... ... : --- .. . ... : ... .. . ... : ... .. . ... ... : ... .. . ... ... : ... .. . ... ... : ... .. . ... ...
ROW 28 : ... .. . P84 ... ... : B-4 00 8 ... ... ... : D-3 00 . ... : 1-# 00 F ... : ... .. . ... ... : --- .. . ... ... : --- .. . P83 ... : ... .. . ... ...
ROW 29 : ... .. . P86 ... ... : ... .. 3 ... ... ... : ... .. . ... : ... .. C ... : ... .. . ... ... : ... .. . ... ... : ... .. . ... ... : ... .. . ... ...
ROW 2A : ... .. . P84 ... ... : ... .. 0 ... ... ... : ... .. . ... : ... .. 6 ... : ... .. . ... ... : ... .. . ... ... : ... .. . ... ... : ... .. . ... ...
ROW 2B : ... .. . P80 ... ... : B-4 00 3 P80 ... ... : ... .. . ... : ... .. 3 ... : ... .. . ... ... : ... .. . ... ... : ... .. . ... ... : ... .. . ... ...
ROW 2C : ... .. . P7C ... ... : ... .. 4 ... ... ... : ... .. . ... : ... .. 2 ... : ... .. . ... ... : ... .. . ... ... : ... .. . ... ... : ... .. . ... ...
ROW 2D : ... .. . P7A ... ... : G-4 00 8 ... ... ... : ... .. . ... : D-# 00 8 ... : ... .. . ... ... : ... .. . ... ... : ... .. . ... ... : ... .. . ... ...
ROW 2E : ... .. . P7C ... ... : ... .. 3 ... ... ... : ... .. . ... : ... .. 6 ... : ... .. . ... ... : ... .. . ... ... : ... .. . ... ... : ... .. . ... ...
ROW 2F : ... .. . P80 ... ... : ... .. 0 ... ... ... : ... .. . ... : ... .. 3 ... : ... .. . ... ... : ... .. . ... ... : ... .. . ... ... : ... .. . ... ...
ROW 30 : ... .. . P84 ... ... : G-4 00 3 P80 ... ... : --- .. . ... : ... .. 1 ... : ... .. . ... ... : ... .. . ... ... : ... .. . ... ... : ... .. . ... ...
ROW 31 : ... .. . P86 ... ... : ... .. 4 ... ... ... : ... .. . ... : ... .. . ... : ... .. . ... ... : ... .. . ... ... : ... .. . ... ... : ... .. . ... ...
ROW 32 : ... .. . P84 ... ... : D-4 00 8 ... ... ... : D-3 00 . ... : ... .. A ... : ... .. . ... ... : D-3 01 7 ... ... : G-2 01 7 P81 ... : ... .. . ... ...
ROW 33 : ... .. . P80 ... ... : ... .. 3 ... ... ... : ... .. . ... : ... .. 8 ... : ... .. . ... ... : ... .. 6 ... ... : ... .. 6 ... ... : ... .. . ... ...
ROW 34 : ... .. . P7C ... ... : ... .. 0 ... ... ... : ... .. . ... : ... .. 4 ... : ... .. . ... ... : ... .. . ... ... : ... .. . ... ... : ... .. . ... ...
ROW 35 : ... .. . P7A ... ... : D-4 00 3 P80 ... ... : ... .. . ... : ... .. 2 ... : ... .. . ... ... : --- .. . P81 ... : --- .. . P7F ... : ... .. . ... ...
ROW 36 : ... .. . P7C ... ... : ... .. 4 ... ... ... : ... .. . ... : ... .. 1 ... : ... .. . ... ... : ... .. . ... ... : ... .. . ... ... : ... .. . ... ...
ROW 37 : ... .. . P80 ... ... : B-3 00 8 ... ... ... : ... .. . ... : ... .. 8 ... : ... .. . ... ... : D-3 01 7 P7F ... : G-2 01 7 P81 ... : ... .. . ... ...
ROW 38 : ... .. 2 P84 ... ... : ... .. 3 ... ... ... : ... .. . ... : ... .. 6 ... : ... .. . ... ... : ... .. 6 ... ... : ... .. 6 ... ... : ... .. 2 ... ...
ROW 39 : ... .. . P86 ... ... : ... .. 0 ... ... ... : ... .. . ... : ... .. 3 ... : ... .. . ... ... : ... .. . ... ... : ... .. . ... ... : ... .. . ... ...
ROW 3A : ... .. . P84 ... ... : B-3 00 3 P80 ... ... : --- .. . ... : ... .. 1 ... : ... .. . ... ... : --- .. . P81 ... : --- .. . P7F ... : ... .. 1 ... ...
ROW 3B : ... .. 1 P80 ... ... : ... .. 4 ... ... ... : ... .. . ... : ... .. . ... : ... .. . ... ... : ... .. . ... ... : ... .. . ... ... : ... .. . ... ...
ROW 3C : G-3 00 F ... ... ... : G-3 00 8 ... ... ... : D-4 00 . ... : 1-# 00 D ... : ... .. . ... ... : A-3 01 7 P7F ... : D-3 01 7 P81 ... : G-2 01 A ... ...
ROW 3D : ... .. E ... ... ... : ... .. 3 ... ... ... : ... .. . ... : ... .. . ... : ... .. . ... ... : ... .. 6 ... ... : ... .. 6 ... ... : ... .. 8 ... ...
ROW 3E : ... .. D ... ... ... : ... .. 0 ... ... ... : ... .. . ... : D-# 00 D ... : ... .. . ... ... : ... .. . ... ... : ... .. . ... ... : ... .. 5 ... ...
ROW 3F : ... .. A ... ... ... : G-3 00 3 P80 ... ... : ... .. . ... : B-# 00 6 ... : ... .. . ... ... : ... .. . ... ... : ... .. . ... ... : ... .. . ... ...
ROW 40 : ... .. . ... ... ... : ... .. 4 ... ... ... : --- .. . ... : 7-# 00 1 ... : ... .. . ... ... : ... .. 5 ... ... : ... .. 5 ... ... : ... .. . ... ...
ROW 41 : ... .. . ... ... ... : D-3 00 8 ... ... ... : D-4 00 . ... : D-# 00 8 ... : ... .. . ... ... : --- .. . ... ... : --- .. . P83 ... : ... .. . ... ...
ROW 42 : ... .. . ... ... ... : ... .. 3 ... ... ... : ... .. . ... : ... .. 6 ... : ... .. . ... ... : ... .. . ... ... : ... .. . ... ... : ... .. . ... ...
ROW 43 : ... .. . ... ... ... : ... .. 0 ... ... ... : ... .. . ... : ... .. 3 ... : ... .. . ... ... : ... .. . ... ... : ... .. . ... ... : ... .. . ... ...
ROW 44 : ... .. . ... ... ... : D-3 00 3 P80 ... ... : ... .. . ... : ... .. 1 ... : ... .. . ... ... : ... .. . ... ... : ... .. . ... ... : ... .. . ... ...
ROW 45 : ... .. . ... ... ... : ... .. 4 ... ... ... : --- .. . ... : ... .. . ... : ... .. . ... ... : ... .. . ... ... : ... .. . ... ... : ... .. . ... ...
ROW 46 : B-3 00 F ... ... ... : B-2 00 8 ... ... ... : D-3 00 . ... : ... .. A ... : ... .. . ... ... : D-3 01 7 ... ... : G-2 01 7 P81 ... : B-2 01 A ... ...
ROW 47 : ... .. E ... ... ... : ... .. 3 ... ... ... : ... .. . ... : ... .. 8 ... : ... .. . ... ... : ... .. 6 ... ... : ... .. 6 ... ... : ... .. 8 ... ...
ROW 48 : ... .. D ... ... ... : ... .. 0 ... ... ... : ... .. . ... : ... .. 4 ... : ... .. . ... ... : ... .. . ... ... : ... .. . ... ... : ... .. 5 ... ...
ROW 49 : ... .. A ... ... ... : B-2 00 3 P80 ... ... : ... .. . ... : ... .. 2 ... : ... .. . ... ... : --- .. . P81 ... : --- .. . P7F ... : ... .. . ... ...
ROW 4A : ... .. . ... ... ... : ... .. 4 ... ... ... : --- .. . ... : ... .. 1 ... : ... .. . ... ... : ... .. . ... ... : ... .. . ... ... : ... .. . ... ...
ROW 4B : ... .. . ... ... ... : G-2 00 8 ... ... ... : D-3 00 . ... : ... .. 8 ... : ... .. . ... ... : D-3 01 7 P7F ... : G-2 01 7 P81 ... : ... .. . ... ...
ROW 4C : ... .. 2 ... ... ... : ... .. 3 ... ... ... : ... .. . ... : ... .. 6 ... : ... .. . ... ... : ... .. 6 ... ... : ... .. 6 ... ... : ... .. 2 ... ...
ROW 4D : ... .. . ... ... ... : ... .. 0 ... ... ... : ... .. . ... : ... .. 3 ... : ... .. . ... ... : ... .. . ... ... : ... .. . ... ... : ... .. . ... ...
ROW 4E : ... .. . ... ... ... : G-2 00 3 P80 ... ... : ... .. . ... : ... .. 1 ... : ... .. . ... ... : --- .. . P81 ... : --- .. . P7F ... : ... .. 1 ... ...
ROW 4F : ... .. 1 ... ... ... : ... .. 4 ... ... ... : --- .. . ... : ... .. . ... : ... .. . ... ... : ... .. . ... ... : ... .. . ... ... : ... .. . ... ...
ROW 50 : A-3 00 F ... ... ... : A#4 00 8 ... ... ... : D-3 00 . ... : 1-# 00 F ... : ... .. . ... ... : A-3 01 7 P7F ... : D-3 01 7 P81 ... : A-2 01 A ... ...
ROW 51 : ... .. E ... ... ... : ... .. 3 ... ... ... : ... .. . ... : ... .. C ... : ... .. . ... ... : ... .. 6 ... ... : ... .. 6 ... ... : ... .. 8 ... ...
ROW 52 : ... .. D ... ... ... : ... .. 0 ... ... ... : ... .. . ... : ... .. 6 ... : ... .. . ... ... : ... .. . ... ... : ... .. . ... ... : ... .. 5 ... ...
ROW 53 : ... .. A ... ... ... : A#4 00 3 P80 ... ... : ... .. . ... : ... .. 3 ... : ... .. . ... ... : ... .. . ... ... : ... .. . ... ... : ... .. . ... ...
ROW 54 : ... .. . ... ... ... : ... .. 4 ... ... ... : ... .. . ... : ... .. 2 ... : ... .. . ... ... : ... .. 5 ... ... : ... .. 5 ... ... : ... .. . ... ...
ROW 55 : ... .. . ... ... ... : F-4 00 8 ... ... ... : ... .. . ... : D-# 00 8 ... : ... .. . ... ... : ... .. . ... ... : ... .. . ... ... : ... .. . ... ...
ROW 56 : ... .. . ... ... ... : ... .. 3 ... ... ... : ... .. . ... : ... .. 6 ... : ... .. . ... ... : ... .. . ... ... : ... .. . ... ... : ... .. . ... ...
ROW 57 : ... .. . ... ... ... : ... .. 0 ... ... ... : ... .. . ... : ... .. 3 ... : ... .. . ... ... : ... .. 4 ... ... : ... .. 4 ... ... : ... .. . ... ...
ROW 58 : ... .. . ... ... ... : F-4 00 3 P80 ... ... : --- .. . ... : ... .. 1 ... : ... .. . ... ... : ... .. . ... ... : ... .. . ... ... : ... .. . ... ...
ROW 59 : ... .. . ... ... ... : ... .. 4 ... ... ... : ... .. . ... : ... .. . ... : ... .. . ... ... : ... .. . ... ... : ... .. . ... ... : ... .. . ... ...
ROW 5A : ... .. . ... ... ... : D-4 00 8 ... ... ... : D-3 00 . ... : ... .. A ... : ... .. . ... ... : --- .. . ... ... : --- .. . P83 ... : ... .. . ... ...
ROW 5B : ... .. . ... ... ... : ... .. 3 ... ... ... : ... .. . ... : ... .. 8 ... : ... .. . ... ... : ... .. . ... ... : ... .. . ... ... : ... .. . ... ...
ROW 5C : ... .. . ... ... ... : ... .. 0 ... ... ... : ... .. . ... : ... .. 4 ... : ... .. . ... ... : ... .. . ... ... : ... .. . ... ... : ... .. . ... ...
ROW 5D : ... .. . ... ... ... : D-4 00 3 P80 ... ... : ... .. . ... : ... .. 2 ... : ... .. . ... ... : ... .. . ... ... : ... .. . ... ... : ... .. . ... ...
ROW 5E : ... .. . ... ... ... : ... .. 4 ... ... ... : ... .. . ... : ... .. 1 ... : ... .. . ... ... : ... .. . ... ... : ... .. . ... ... : ... .. . ... ...
ROW 5F : ... .. . ... ... ... : A#3 00 8 ... ... ... : ... .. . ... : ... .. 8 ... : ... .. . ... ... : ... .. . ... ... : ... .. . ... ... : ... .. . ... ...
ROW 60 : ... .. . ... ... ... : ... .. 3 ... ... ... : ... .. . ... : ... .. 6 ... : ... .. . ... ... : ... .. . ... ... : ... .. . ... ... : ... .. . ... ...
ROW 61 : ... .. . ... ... ... : ... .. 0 ... ... ... : ... .. . ... : ... .. 3 ... : ... .. . ... ... : ... .. . ... ... : ... .. . ... ... : ... .. . ... ...
ROW 62 : ... .. . ... ... ... : A#3 00 3 P80 ... ... : --- .. . ... : ... .. 1 ... : ... .. . ... ... : ... .. . ... ... : ... .. . ... ... : ... .. . ... ...
ROW 63 : ... .. . ... ... ... : ... .. 4 ... ... ... : ... .. . ... : ... .. . ... : ... .. . ... ... : ... .. . ... ... : ... .. . ... ... : ... .. . ... ...
ROW 64 : ... .. . ... ... ... : F-3 00 8 ... ... ... : D-4 00 . ... : 1-# 00 D ... : ... .. . ... ... : A-3 01 7 ... ... : D-3 01 7 P81 ... : ... .. . ... ...
ROW 65 : ... .. 2 ... ... ... : ... .. 3 ... ... ... : ... .. . ... : ... .. . ... : ... .. . ... ... : ... .. 6 ... ... : ... .. 6 ... ... : ... .. 2 ... ...
ROW 66 : ... .. . ... ... ... : ... .. 0 ... ... ... : ... .. . ... : D-# 00 D ... : ... .. . ... ... : ... .. . ... ... : ... .. . ... ... : ... .. . ... ...
ROW 67 : ... .. . ... ... ... : F-3 00 3 P80 ... ... : ... .. . ... : B-# 00 6 ... : ... .. . ... ... : --- .. . ... ... : --- .. . P83 ... : ... .. 1 ... ...
ROW 68 : ... .. 1 ... ... ... : ... .. 4 ... ... ... : --- .. . ... : 7-# 00 1 ... : ... .. . ... ... : ... .. . ... ... : ... .. . ... ... : ... .. . ... ...
ROW 69 : ... .. . ... ... ... : D-3 00 8 ... ... ... : D-4 00 . ... : D-# 00 8 ... : ... .. . ... ... : A-3 01 7 ... ... : D-3 01 7 P81 ... : ... .. . ... ...
ROW 6A : ... .. . ... ... ... : ... .. 3 ... ... ... : ... .. . ... : ... .. 6 ... : ... .. . ... ... : ... .. 6 ... ... : ... .. 6 ... ... : ... .. . ... ...
ROW 6B : ... .. 0 ... ... ... : ... .. 0 ... ... ... : ... .. . ... : ... .. 3 ... : ... .. . ... ... : ... .. . ... ... : ... .. . ... ... : ... .. . ... ...
ROW 6C : ... .. . ... ... ... : D-3 00 3 P80 ... ... : ... .. . ... : ... .. 1 ... : ... .. . ... ... : --- .. . ... ... : --- .. . P83 ... : ... .. . ... ...
ROW 6D : ... .. . ... ... ... : ... .. 4 ... ... ... : --- .. . ... : ... .. . ... : ... .. . ... ... : ... .. . ... ... : ... .. . ... ... : ... .. . ... ...
ROW 6E : D-3 00 F P80 ... ... : A#2 00 8 ... ... ... : D-3 00 . ... : ... .. A ... : ... .. . ... ... : A-3 01 7 ... ... : D-3 01 7 P81 ... : D-2 01 A ... ...
ROW 6F : ... .. E ... ... ... : ... .. 3 ... ... ... : ... .. . ... : ... .. 8 ... : ... .. . ... ... : ... .. 6 ... ... : ... .. 6 ... ... : ... .. 8 ... ...
ROW 70 : ... .. D ... ... ... : ... .. 0 ... ... ... : ... .. . ... : ... .. 4 ... : ... .. . ... ... : ... .. . ... ... : ... .. . ... ... : ... .. 5 ... ...
ROW 71 : ... .. A ... ... ... : A#2 00 3 P80 ... ... : ... .. . ... : ... .. 2 ... : ... .. . ... ... : ... .. . ... ... : ... .. . ... ... : ... .. . ... ...
ROW 72 : ... .. . ... ... ... : ... .. 4 ... ... ... : --- .. . ... : ... .. 1 ... : ... .. . ... ... : ... .. 5 ... ... : ... .. 5 ... ... : ... .. . ... ...
ROW 73 : ... .. . ... ... ... : F-2 00 8 ... ... ... : D-3 00 . ... : ... .. 8 ... : ... .. . ... ... : ... .. . ... ... : ... .. . ... ... : ... .. . ... ...
ROW 74 : ... .. 2 ... ... ... : ... .. 3 ... ... ... : ... .. . ... : ... .. 6 ... : ... .. . ... ... : ... .. . ... ... : ... .. . ... ... : ... .. 2 ... ...
ROW 75 : ... .. . ... ... ... : ... .. 0 ... ... ... : ... .. . ... : ... .. 3 ... : ... .. . ... ... : ... .. 4 ... ... : ... .. 4 ... ... : ... .. . ... ...
ROW 76 : ... .. . ... ... ... : F-2 00 3 P80 ... ... : ... .. . ... : ... .. 1 ... : ... .. . ... ... : ... .. . ... ... : ... .. . ... ... : ... .. 1 ... ...
ROW 77 : ... .. 1 ... ... ... : ... .. 4 ... ... ... : --- .. . ... : ... .. . ... : ... .. . ... ... : ... .. . ... ... : ... .. . ... ... : ... .. . ... ...
ROW 78 : ... .. F ... ... ... : A#4 00 8 ... ... ... : D-3 00 . ... : 1-# 00 F ... : ... .. . ... ... : --- .. . ... ... : --- .. . P83 ... : ... .. A ... ...
ROW 79 : ... .. E ... ... ... : ... .. 3 ... ... ... : ... .. . ... : ... .. C ... : ... .. . ... ... : ... .. . ... ... : ... .. . ... ... : ... .. 8 ... ...
ROW 7A : ... .. D ... ... ... : ... .. 0 ... ... ... : ... .. . ... : ... .. 6 ... : ... .. . ... ... : ... .. . ... ... : ... .. . ... ... : ... .. 5 ... ...
ROW 7B : ... .. A ... ... ... : A#4 00 3 P80 ... ... : ... .. . ... : ... .. 3 ... : ... .. . ... ... : ... .. . ... ... : ... .. . ... ... : ... .. . ... ...
ROW 7C : ... .. . ... ... ... : ... .. 4 ... ... ... : ... .. . ... : ... .. 2 ... : ... .. . ... ... : ... .. . ... ... : ... .. . ... ... : ... .. . ... ...
ROW 7D : ... .. . ... ... ... : F-4 00 8 ... ... ... : ... .. . ... : D-# 00 8 ... : ... .. . ... ... : ... .. . ... ... : ... .. . ... ... : ... .. . ... ...
ROW 7E : ... .. . ... ... ... : ... .. 3 ... ... ... : ... .. . ... : ... .. 6 ... : ... .. . ... ... : ... .. . ... ... : ... .. . ... ... : ... .. . ... ...
ROW 7F : ... .. . ... ... ... : ... .. 0 ... ... ... : ... .. . ... : ... .. 3 ... : ... .. . ... ... : ... .. . ... ... : ... .. . ... ... : ... .. . ... ...
ROW 80 : ... .. . ... ... ... : F-4 00 3 P80 ... ... : --- .. . ... : ... .. 1 ... : ... .. . ... ... : ... .. . ... ... : ... .. . ... ... : ... .. . ... ...
ROW 81 : ... .. . ... ... ... : ... .. 4 ... ... ... : ... .. . ... : ... .. . ... : ... .. . ... ... : ... .. . ... ... : ... .. . ... ... : ... .. . ... ...
ROW 82 : ... .. . ... ... ... : D-4 00 8 ... ... ... : D-3 00 . ... : ... .. A ... : ... .. . ... ... : A-3 01 7 ... ... : D-3 01 7 P81 ... : ... .. . ... ...
ROW 83 : ... .. . ... ... ... : ... .. 3 ... ... ... : ... .. . ... : ... .. 8 ... : ... .. . ... ... : ... .. 6 ... ... : ... .. 6 ... ... : ... .. . ... ...
ROW 84 : ... .. . ... ... ... : ... .. 0 ... ... ... : ... .. . ... : ... .. 4 ... : ... .. . ... ... : ... .. . ... ... : ... .. . ... ... : ... .. . ... ...
ROW 85 : ... .. . ... ... ... : D-4 00 3 P80 ... ... : ... .. . ... : ... .. 2 ... : ... .. . ... ... : --- .. . ... ... : --- .. . P83 ... : ... .. . ... ...
ROW 86 : ... .. . ... ... ... : ... .. 4 ... ... ... : ... .. . ... : ... .. 1 ... : ... .. . ... ... : ... .. . ... ... : ... .. . ... ... : ... .. . ... ...
ROW 87 : ... .. . ... ... ... : A#3 00 8 ... ... ... : ... .. . ... : ... .. 8 ... : ... .. . ... ... : A-3 01 7 ... ... : D-3 01 7 P81 ... : ... .. . ... ...
ROW 88 : ... .. . ... ... ... : ... .. 3 ... ... ... : ... .. . ... : ... .. 6 ... : ... .. . ... ... : ... .. 6 ... ... : ... .. 6 ... ... : ... .. . ... ...
ROW 89 : ... .. . ... ... ... : ... .. 0 ... ... ... : ... .. . ... : ... .. 3 ... : ... .. . ... ... : ... .. . ... ... : ... .. . ... ... : ... .. . ... ...
ROW 8A : ... .. . ... ... ... : A#3 00 3 P80 ... ... : --- .. . ... : ... .. 1 ... : ... .. . ... ... : --- .. . ... ... : --- .. . P83 ... : ... .. . ... ...
ROW 8B : ... .. . ... ... ... : ... .. 4 ... ... ... : ... .. . ... : ... .. . ... : ... .. . ... ... : ... .. . ... ... : ... .. . ... ... : ... .. . ... ...
ROW 8C : ... .. . P84 ... ... : F-3 00 8 ... ... ... : F-4 00 . ... : 1-# 00 D ... : ... .. . ... ... : A-3 01 7 ... ... : D-3 01 7 P81 ... : ... .. . ... ...
ROW 8D : ... .. . P86 ... ... : ... .. 3 ... ... ... : ... .. . ... : ... .. . ... : ... .. . ... ... : ... .. 6 ... ... : ... .. 6 ... ... : ... .. . ... ...
ROW 8E : ... .. . P84 ... ... : ... .. 0 ... ... ... : ... .. . ... : D-# 00 D ... : ... .. . ... ... : ... .. . ... ... : ... .. . ... ... : ... .. . ... ...
ROW 8F : ... .. . P80 ... ... : F-3 00 3 P80 ... ... : ... .. . ... : B-# 00 6 ... : ... .. . ... ... : ... .. . ... ... : ... .. . ... ... : ... .. . ... ...
ROW 90 : ... .. . P7C ... ... : ... .. 4 ... ... ... : --- .. . ... : 7-# 00 1 ... : ... .. . ... ... : ... .. 5 ... ... : ... .. 5 ... ... : ... .. . ... ...
ROW 91 : ... .. . P7A ... ... : D-3 00 8 ... ... ... : F-4 00 . ... : D-# 00 8 ... : ... .. . ... ... : --- .. . ... ... : --- .. . P83 ... : ... .. . ... ...
ROW 92 : ... .. . P7C ... ... : ... .. 3 ... ... ... : ... .. . ... : ... .. 6 ... : ... .. . ... ... : ... .. . ... ... : ... .. . ... ... : ... .. . ... ...
ROW 93 : ... .. . P80 ... ... : ... .. 0 ... ... ... : ... .. . ... : ... .. 3 ... : ... .. . ... ... : ... .. . ... ... : ... .. . ... ... : ... .. . ... ...
ROW 94 : ... .. . P84 ... ... : D-3 00 3 P80 ... ... : ... .. . ... : ... .. 1 ... : ... .. . ... ... : ... .. . ... ... : ... .. . ... ... : ... .. . ... ...
ROW 95 : ... .. . P86 ... ... : ... .. 4 ... ... ... : --- .. . ... : ... .. . ... : ... .. . ... ... : ... .. . ... ... : ... .. . ... ... : ... .. . ... ...
ROW 96 : ... .. . P84 ... ... : A#2 00 8 ... ... ... : C-3 00 . ... : ... .. A ... : ... .. . ... ... : D-3 01 7 ... ... : G-2 01 7 P81 ... : ... .. . ... ...
ROW 97 : ... .. . P80 ... ... : ... .. 3 ... ... ... : ... .. . ... : ... .. 8 ... : ... .. . ... ... : ... .. 6 ... ... : ... .. 6 ... ... : ... .. . ... ...
ROW 98 : ... .. . P7C ... ... : ... .. 0 ... ... ... : ... .. . ... : ... .. 4 ... : ... .. . ... ... : ... .. . ... ... : ... .. . ... ... : ... .. . ... ...
ROW 99 : ... .. . P7A ... ... : A#2 00 3 P80 ... ... : ... .. . ... : ... .. 2 ... : ... .. . ... ... : ... .. . ... ... : ... .. . ... ... : ... .. . ... ...
ROW 9A : ... .. . P7C ... ... : ... .. 4 ... ... ... : --- .. . ... : ... .. 1 ... : ... .. . ... ... : ... .. 5 ... ... : ... .. 5 ... ... : ... .. . ... ...
ROW 9B : ... .. . P80 ... ... : F-2 00 8 ... ... ... : C-3 00 . ... : ... .. 8 ... : ... .. . ... ... : --- .. . P81 ... : --- .. . P7F ... : ... .. . ... ...
ROW 9C : ... .. 2 P84 ... ... : ... .. 3 ... ... ... : ... .. . ... : ... .. 6 ... : ... .. . ... ... : ... .. . ... ... : ... .. . ... ... : ... .. 2 ... ...
ROW 9D : ... .. . P86 ... ... : ... .. 0 ... ... ... : ... .. . ... : ... .. 3 ... : ... .. . ... ... : ... .. . ... ... : ... .. . ... ... : ... .. . ... ...
ROW 9E : ... .. . P84 ... ... : F-2 00 3 P80 ... ... : ... .. . ... : ... .. 1 ... : ... .. . ... ... : ... .. . ... ... : ... .. . ... ... : ... .. 1 ... ...
ROW 9F : ... .. 1 P80 ... ... : ... .. 4 ... ... ... : --- .. . ... : ... .. . ... : ... .. . ... ... : ... .. . ... ... : ... .. . ... ... : ... .. . ... ...
ROW A0 : D-2 00 D ... ... ... : A-4 00 8 ... ... ... : D-3 00 . ... : 1-# 00 F ... : ... .. . ... ... : A-3 01 7 P7F ... : D-3 01 7 P81 ... : A-4 01 A ... ...
ROW A1 : ... .. B ... ... ... : ... .. 3 ... ... ... : ... .. . ... : ... .. C ... : ... .. . ... ... : ... .. 6 ... ... : ... .. 6 ... ... : ... .. 8 ... ...
ROW A2 : ... .. . ... ... ... : ... .. 0 ... ... ... : ... .. . ... : ... .. 6 ... : ... .. . ... ... : ... .. . ... ... : ... .. . ... ... : ... .. 5 ... ...
ROW A3 : ... .. A ... ... ... : A-4 00 3 P80 ... ... : ... .. . ... : ... .. 3 ... : ... .. . ... ... : ... .. . ... ... : ... .. . ... ... : ... .. . ... ...
ROW A4 : ... .. 8 ... ... ... : ... .. 4 ... ... ... : ... .. . ... : ... .. 2 ... : ... .. . ... ... : ... .. 5 ... ... : ... .. 5 ... ... : ... .. . ... ...
ROW A5 : F-2 00 D ... ... ... : G-4 00 8 ... ... ... : ... .. . ... : D-# 00 8 ... : ... .. . ... ... : ... .. . ... ... : ... .. . ... ... : ... .. . ... ...
ROW A6 : ... .. B ... ... ... : ... .. 3 ... ... ... : ... .. . ... : ... .. 6 ... : ... .. . ... ... : ... .. . ... ... : ... .. . ... ... : ... .. . ... ...
ROW A7 : ... .. . ... ... ... : ... .. 0 ... ... ... : ... .. . ... : ... .. 3 ... : ... .. . ... ... : ... .. 4 ... ... : ... .. 4 ... ... : ... .. . ... ...
ROW A8 : ... .. A ... ... ... : G-4 00 3 P80 ... ... : --- .. . ... : ... .. 1 ... : ... .. . ... ... : ... .. . ... ... : ... .. . ... ... : ... .. . ... ...
ROW A9 : ... .. 8 ... ... ... : ... .. 4 ... ... ... : ... .. . ... : ... .. . ... : ... .. . ... ... : ... .. . ... ... : ... .. . ... ... : ... .. . ... ...
ROW AA : G-2 00 D ... ... ... : D-4 00 8 ... ... ... : D-3 00 . ... : ... .. A ... : ... .. . ... ... : --- .. . ... ... : --- .. . P83 ... : ... .. . ... ...
ROW AB : ... .. B ... ... ... : ... .. 3 ... ... ... : ... .. . ... : ... .. 8 ... : ... .. . ... ... : ... .. . ... ... : ... .. . ... ... : ... .. . ... ...
ROW AC : ... .. . ... ... ... : ... .. 0 ... ... ... : ... .. . ... : ... .. 4 ... : ... .. . ... ... : ... .. . ... ... : ... .. . ... ... : ... .. . ... ...
ROW AD : ... .. A ... ... ... : D-4 00 3 P80 ... ... : ... .. . ... : ... .. 2 ... : ... .. . ... ... : ... .. . ... ... : ... .. . ... ... : ... .. . ... ...
ROW AE : ... .. 8 ... ... ... : ... .. 4 ... ... ... : ... .. . ... : ... .. 1 ... : ... .. . ... ... : ... .. . ... ... : ... .. . ... ... : ... .. . ... ...
ROW AF : A-2 00 D ... ... ... : A-3 00 8 ... ... ... : ... .. . ... : ... .. 8 ... : ... .. . ... ... : ... .. . ... ... : ... .. . ... ... : ... .. . ... ...
ROW B0 : ... .. B ... ... ... : ... .. 3 ... ... ... : ... .. . ... : ... .. 6 ... : ... .. . ... ... : ... .. . ... ... : ... .. . ... ... : ... .. . ... ...
ROW B1 : ... .. . ... ... ... : ... .. 0 ... ... ... : ... .. . ... : ... .. 3 ... : ... .. . ... ... : ... .. . ... ... : ... .. . ... ... : ... .. . ... ...
ROW B2 : ... .. A ... ... ... : A-3 00 3 P80 ... ... : --- .. . ... : ... .. 1 ... : ... .. . ... ... : ... .. . ... ... : ... .. . ... ... : ... .. . ... ...
ROW B3 : ... .. 8 ... ... ... : ... .. 4 ... ... ... : ... .. . ... : ... .. . ... : ... .. . ... ... : ... .. . ... ... : ... .. . ... ... : ... .. . ... ...
ROW B4 : D-3 00 D ... ... ... : G-3 00 8 ... ... ... : D-4 00 . ... : 1-# 00 D ... : ... .. . ... ... : A-3 01 7 ... ... : D-3 01 7 P81 ... : ... .. . P83 ...
ROW B5 : ... .. B ... ... ... : ... .. 3 ... ... ... : ... .. . ... : ... .. . ... : ... .. . ... ... : ... .. 6 ... ... : ... .. 6 ... ... : ... .. . P84 ...
ROW B6 : ... .. . ... ... ... : ... .. 0 ... ... ... : ... .. . ... : D-# 00 D ... : ... .. . ... ... : ... .. . ... ... : ... .. . ... ... : ... .. . P83 ...
ROW B7 : ... .. A ... ... ... : G-3 00 3 P80 ... ... : ... .. . ... : B-# 00 6 ... : ... .. . ... ... : --- .. . ... ... : --- .. . P83 ... : ... .. . P80 ...
ROW B8 : ... .. 8 ... ... ... : ... .. 4 ... ... ... : --- .. . ... : 7-# 00 1 ... : ... .. . ... ... : ... .. . ... ... : ... .. . ... ... : ... .. . P7D ...
ROW B9 : F-3 00 D ... ... ... : D-3 00 8 ... ... ... : D-4 00 . ... : D-# 00 8 ... : ... .. . ... ... : A-3 01 7 ... ... : D-3 01 7 P81 ... : ... .. . P7C ...
ROW BA : ... .. B ... ... ... : ... .. 3 ... ... ... : ... .. . ... : ... .. 6 ... : ... .. . ... ... : ... .. 6 ... ... : ... .. 6 ... ... : ... .. 2 P7D ...
ROW BB : ... .. . ... ... ... : ... .. 0 ... ... ... : ... .. . ... : ... .. 3 ... : ... .. . ... ... : ... .. . ... ... : ... .. . ... ... : ... .. . P80 ...
ROW BC : ... .. A ... ... ... : D-3 00 3 P80 ... ... : ... .. . ... : ... .. 1 ... : ... .. . ... ... : --- .. . ... ... : --- .. . P83 ... : ... .. 1 P83 ...
ROW BD : ... .. 8 ... ... ... : ... .. 4 ... ... ... : --- .. . ... : ... .. . ... : ... .. . ... ... : ... .. . ... ... : ... .. . ... ... : ... .. . P84 ...
ROW BE : G-3 00 D ... ... ... : A-2 00 8 ... ... ... : D-3 00 . ... : ... .. A ... : ... .. . ... ... : A-3 01 7 ... ... : D-3 01 7 P81 ... : D-4 01 A P80 ...
ROW BF : ... .. B ... ... ... : ... .. 3 ... ... ... : ... .. . ... : ... .. 8 ... : ... .. . ... ... : ... .. 6 ... ... : ... .. 6 ... ... : ... .. 8 ... ...
ROW C0 : ... .. . ... ... ... : ... .. 0 ... ... ... : ... .. . ... : ... .. 4 ... : ... .. . ... ... : ... .. . ... ... : ... .. . ... ... : ... .. 5 ... ...
ROW C1 : ... .. A ... ... ... : A-2 00 3 P80 ... ... : ... .. . ... : ... .. 2 ... : ... .. . ... ... : ... .. . ... ... : ... .. . ... ... : ... .. . ... ...
ROW C2 : ... .. 8 ... ... ... : ... .. 4 ... ... ... : --- .. . ... : ... .. 1 ... : ... .. . ... ... : ... .. 5 ... ... : ... .. 5 ... ... : ... .. . ... ...
ROW C3 : A-3 00 D ... ... ... : G-2 00 8 ... ... ... : D-3 00 . ... : ... .. 8 ... : ... .. . ... ... : ... .. . ... ... : ... .. . ... ... : ... .. . ... ...
ROW C4 : ... .. B ... ... ... : ... .. 3 ... ... ... : ... .. . ... : ... .. 6 ... : ... .. . ... ... : ... .. . ... ... : ... .. . ... ... : ... .. 2 ... ...
ROW C5 : ... .. . ... ... ... : ... .. 0 ... ... ... : ... .. . ... : ... .. 3 ... : ... .. . ... ... : ... .. 4 ... ... : ... .. 4 ... ... : ... .. . ... ...
ROW C6 : ... .. A ... ... ... : G-2 00 3 P80 ... ... : ... .. . ... : ... .. 1 ... : ... .. . ... ... : ... .. . ... ... : ... .. . ... ... : ... .. 1 ... ...
ROW C7 : ... .. 8 ... ... ... : ... .. 4 ... ... ... : --- .. . ... : ... .. . ... : ... .. . ... ... : ... .. . ... ... : ... .. . ... ... : ... .. . ... ...
ROW C8 : C-4 00 D ... ... ... : A-4 00 8 ... ... ... : D-3 00 . ... : 1-# 00 F ... : ... .. . ... ... : --- .. . ... ... : --- .. . P83 ... : ... .. A ... ...
ROW C9 : ... .. B ... ... ... : ... .. 3 ... ... ... : ... .. . ... : ... .. C ... : ... .. . ... ... : ... .. . ... ... : ... .. . ... ... : ... .. 8 ... ...
ROW CA : ... .. . ... ... ... : ... .. 0 ... ... ... : ... .. . ... : ... .. 6 ... : ... .. . ... ... : ... .. . ... ... : ... .. . ... ... : ... .. 5 ... ...
ROW CB : ... .. A ... ... ... : A-4 00 3 P80 ... ... : ... .. . ... : B-# 00 8 ... : ... .. . ... ... : ... .. . ... ... : ... .. . ... ... : ... .. . ... ...
ROW CC : ... .. 8 ... ... ... : ... .. 4 ... ... ... : ... .. . ... : ... .. . ... : ... .. . ... ... : ... .. . ... ... : ... .. . ... ... : ... .. . ... ...
ROW CD : A-3 00 D ... ... ... : G-4 00 8 ... ... ... : ... .. . ... : ... .. 6 ... : ... .. . ... ... : ... .. . ... ... : ... .. . ... ... : ... .. . ... ...
ROW CE : ... .. B ... ... ... : ... .. 3 ... ... ... : ... .. . ... : ... .. . ... : ... .. . ... ... : ... .. . ... ... : ... .. . ... ... : ... .. . ... ...
ROW CF : ... .. . ... ... ... : ... .. 0 ... ... ... : ... .. . ... : ... .. . ... : ... .. . ... ... : ... .. . ... ... : ... .. . ... ... : ... .. . ... ...
ROW D0 : ... .. A ... ... ... : G-4 00 3 P80 ... ... : --- .. . ... : ... .. 4 ... : ... .. . ... ... : ... .. . ... ... : ... .. . ... ... : ... .. . ... ...
ROW D1 : ... .. 8 ... ... ... : ... .. 4 ... ... ... : ... .. . ... : ... .. . ... : ... .. . ... ... : ... .. . ... ... : ... .. . ... ... : ... .. . ... ...
ROW D2 : F-3 00 D ... ... ... : D-4 00 8 ... ... ... : D-3 00 . ... : ... .. 2 ... : ... .. . ... ... : D-3 01 7 ... ... : G-2 01 7 P81 ... : ... .. . ... ...
ROW D3 : ... .. B ... ... ... : ... .. 3 ... ... ... : ... .. . ... : ... .. . ... : ... .. . ... ... : ... .. 6 ... ... : ... .. 6 ... ... : ... .. . ... ...
ROW D4 : ... .. . ... ... ... : ... .. 0 ... ... ... : ... .. . ... : ... .. . ... : ... .. . ... ... : ... .. . ... ... : ... .. . ... ... : ... .. . ... ...
ROW D5 : ... .. A ... ... ... : D-4 00 3 P80 ... ... : ... .. . ... : ... .. 0 ... : ... .. . ... ... : --- .. . P81 ... : --- .. . P7F ... : ... .. . ... ...
ROW D6 : ... .. 8 ... ... ... : ... .. 4 ... ... ... : ... .. . ... : ... .. . ... : ... .. . ... ... : ... .. . ... ... : ... .. . ... ... : ... .. . ... ...
ROW D7 : D-3 00 D ... ... ... : A-3 00 8 ... ... ... : ... .. . ... : ... .. . ... : ... .. . ... ... : D-3 01 7 P7F ... : G-2 01 7 P81 ... : ... .. . ... ...
ROW D8 : ... .. B ... ... ... : ... .. 3 ... ... ... : ... .. . ... : ... .. . ... : ... .. . ... ... : ... .. 6 ... ... : ... .. 6 ... ... : ... .. . ... ...
ROW D9 : ... .. . ... ... ... : ... .. 0 ... ... ... : ... .. . ... : ... .. . ... : ... .. . ... ... : ... .. . ... ... : ... .. . ... ... : ... .. . ... ...
ROW DA : ... .. A ... ... ... : A-3 00 3 P80 ... ... : --- .. . ... : ... .. . ... : ... .. . ... ... : --- .. . P81 ... : --- .. . P7F ... : ... .. . ... ...
ROW DB : ... .. 8 ... ... ... : ... .. 4 ... ... ... : ... .. . ... : ... .. . ... : ... .. . ... ... : ... .. . ... ... : ... .. . ... ... : ... .. . ... ...
ROW DC : D-4 00 D ... ... ... : D-3 00 8 ... ... ... : G-4 00 . ... : 1-# 00 F ... : ... .. . ... ... : A-3 01 7 P7F ... : D-3 01 7 P81 ... : D#4 01 5 P7B ...
ROW DD : ... .. B ... ... ... : ... .. 3 ... ... ... : ... .. . ... : ... .. C ... : ... .. . ... ... : ... .. 6 ... ... : ... .. 6 ... ... : ... .. . P80 ...
ROW DE : ... .. . ... ... ... : ... .. 0 ... ... ... : ... .. . ... : ... .. 6 ... : ... .. . ... ... : ... .. . ... ... : ... .. . ... ... : ... .. . P7E ...
ROW DF : ... .. A ... ... ... : D-3 00 3 P80 ... ... : ... .. . ... : B-# 00 8 ... : ... .. . ... ... : ... .. . ... ... : ... .. . ... ... : D-4 01 5 P84 ...
ROW E0 : ... .. 8 ... ... ... : ... .. 4 ... ... ... : --- .. . ... : ... .. . ... : ... .. . ... ... : ... .. 5 ... ... : ... .. 5 ... ... : ... .. . P7C ...
ROW E1 : B-3 00 D ... ... ... : A-3 00 8 ... ... ... : D-4 00 . ... : ... .. 6 ... : ... .. . ... ... : --- .. . ... ... : --- .. . P83 ... : C#4 01 5 P82 ...
ROW E2 : ... .. B ... ... ... : ... .. 3 ... ... ... : ... .. . ... : ... .. . ... : ... .. . ... ... : ... .. . ... ... : ... .. . ... ... : ... .. . P80 ...
ROW E3 : ... .. . ... ... ... : ... .. 0 ... ... ... : ... .. . ... : ... .. . ... : ... .. . ... ... : ... .. . ... ... : ... .. . ... ... : ... .. . P85 ...
ROW E4 : ... .. A ... ... ... : A-3 00 3 P80 ... ... : ... .. . ... : ... .. 4 ... : ... .. . ... ... : ... .. . ... ... : ... .. . ... ... : D-4 01 5 P80 ...
ROW E5 : ... .. 8 ... ... ... : ... .. 4 ... ... ... : --- .. . ... : ... .. . ... : ... .. . ... ... : ... .. . ... ... : ... .. . ... ... : D#4 01 5 P7A ...
ROW E6 : G-3 00 D ... ... ... : D-4 00 8 ... ... ... : D-3 00 . ... : 2-# 00 D ... : ... .. . ... ... : D-3 01 7 ... ... : G-2 01 7 P81 ... : ... .. . P80 ...
ROW E7 : ... .. B ... ... ... : ... .. 3 ... ... ... : ... .. . ... : ... .. . ... : ... .. . ... ... : ... .. 6 ... ... : ... .. 6 ... ... : ... .. 2 P7F ...
ROW E8 : ... .. . ... ... ... : ... .. 0 ... ... ... : ... .. . ... : E-# 00 D ... : ... .. . ... ... : ... .. . ... ... : ... .. . ... ... : D-4 01 2 P85 ...
ROW E9 : ... .. A ... ... ... : D-4 00 3 P80 ... ... : ... .. . ... : C-# 00 6 ... : ... .. . ... ... : --- .. . P81 ... : --- .. . P7F ... : ... .. 1 P7E ...
ROW EA : ... .. 8 ... ... ... : ... .. 4 ... ... ... : --- .. . ... : 8-# 00 1 ... : ... .. . ... ... : ... .. . ... ... : ... .. . ... ... : C#4 01 1 P83 ...
ROW EB : D-3 00 D ... ... ... : A-4 00 8 ... ... ... : G-2 00 . ... : 2-# 00 D ... : ... .. . ... ... : D-3 01 7 P7F ... : G-2 01 7 P81 ... : ... .. . P80 ...
ROW EC : ... .. B ... ... ... : ... .. 3 ... ... ... : ... .. . ... : ... .. . ... : ... .. . ... ... : ... .. 6 ... ... : ... .. 6 ... ... : ... .. . P84 ...
ROW ED : ... .. . ... ... ... : ... .. 0 ... ... ... : ... .. . ... : E-# 00 D ... : ... .. . ... ... : ... .. . ... ... : ... .. . ... ... : D-4 01 1 P7F ...
ROW EE : ... .. A ... ... ... : A-4 00 3 P80 ... ... : ... .. . ... : C-# 00 6 ... : ... .. . ... ... : --- .. . P81 ... : --- .. . P7F ... : ... .. . P80 ...
ROW EF : ... .. 8 ... ... ... : ... .. 4 ... ... ... : --- .. . ... : 8-# 00 1 ... : ... .. . ... ... : ... .. . ... ... : ... .. . ... ... : ... .. . ... ...
ROW F0 : ... .. F ... ... ... : D-4 00 A ... ... ... : D-2 00 . ... : 1-# 00 F ... : ... .. . Z00 ... : A-3 01 7 P7F ... : D-3 01 7 P81 ... : D-2 01 A ... ...
ROW F1 : ... .. E ... ... ... : ... .. 8 ... ... ... : ... .. . ... : ... .. C ... : ... .. . ... ... : ... .. 6 ... ... : ... .. 6 ... ... : ... .. 8 ... ...
ROW F2 : ... .. D ... ... ... : ... .. . ... ... ... : ... .. . ... : ... .. 6 ... : ... .. . ... ... : ... .. . ... ... : ... .. . ... ... : ... .. 5 ... ...
ROW F3 : ... .. A ... ... ... : ... .. . ... ... ... : ... .. . ... : ... .. 3 ... : ... .. . ... ... : ... .. . ... ... : ... .. . ... ... : ... .. . ... ...
ROW F4 : ... .. . ... ... ... : ... .. 6 ... ... ... : ... .. . ... : ... .. 2 ... : ... .. . ... ... : ... .. 5 ... ... : ... .. 5 ... ... : ... .. . ... ...
ROW F5 : ... .. . ... ... ... : A-3 00 A ... ... ... : ... .. . ... : D-# 00 8 ... : ... .. . ... ... : ... .. . ... ... : ... .. . ... ... : ... .. . ... ...
ROW F6 : ... .. . ... ... ... : ... .. 8 ... ... ... : ... .. . ... : ... .. 6 ... : ... .. . ... ... : ... .. . ... ... : ... .. . ... ... : ... .. . ... ...
ROW F7 : ... .. . ... ... ... : ... .. . ... ... ... : ... .. . ... : ... .. 3 ... : ... .. . ... ... : ... .. 4 ... ... : ... .. 4 ... ... : ... .. . ... ...
ROW F8 : ... .. . ... ... ... : ... .. . ... ... ... : --- .. . ... : ... .. 1 ... : ... .. . ... ... : ... .. . ... ... : ... .. . ... ... : ... .. . ... ...
ROW F9 : ... .. . ... ... ... : ... .. 6 ... ... ... : ... .. . ... : ... .. . ... : ... .. . ... ... : ... .. . ... ... : ... .. . ... ... : ... .. . ... ...
ROW FA : ... .. . ... ... ... : G-3 00 A ... ... ... : D-2 00 . ... : ... .. A ... : ... .. . ... ... : --- .. . ... ... : --- .. . P83 ... : ... .. . ... ...
ROW FB : ... .. . ... ... ... : ... .. 8 ... ... ... : ... .. . ... : ... .. 8 ... : ... .. . ... ... : ... .. . ... ... : ... .. . ... ... : ... .. . ... ...
ROW FC : ... .. . ... ... ... : ... .. . ... ... ... : ... .. . ... : ... .. 4 ... : ... .. . ... ... : ... .. . ... ... : ... .. . ... ... : ... .. . ... ...
ROW FD : ... .. . ... ... ... : ... .. . ... ... ... : ... .. . ... : ... .. 2 ... : ... .. . ... ... : ... .. . ... ... : ... .. . ... ... : ... .. . ... ...
ROW FE : ... .. . ... ... ... : ... .. 6 ... ... ... : ... .. . ... : ... .. 1 ... : ... .. . ... ... : ... .. . ... ... : ... .. . ... ... : ... .. . ... ...
ROW FF : ... .. . ... ... ... : D-3 00 A ... ... ... : ... .. . ... : ... .. 8 ... : ... .. . ... ... : ... .. . ... ... : ... .. . ... ... : ... .. . ... ...

PATTERN 15
ROW 00 : ... .. . ... ... ... : ... .. 8 ... ... ... : ... .. . ... : ... .. 6 ... : ... .. . ... ... : ... .. . ... ... : ... .. . ... ... : ... .. . ... ...
ROW 01 : ... .. . ... ... ... : ... .. . ... ... ... : ... .. . ... : ... .. 3 ... : ... .. . ... ... : ... .. . ... ... : ... .. . ... ... : ... .. . ... ...
ROW 02 : ... .. . ... ... ... : ... .. . ... ... ... : --- .. . ... : ... .. 1 ... : ... .. . ... ... : ... .. . ... ... : ... .. . ... ... : ... .. . ... ...
ROW 03 : ... .. . ... ... ... : ... .. 6 ... ... ... : ... .. . ... : ... .. . ... : ... .. . ... ... : ... .. . ... ... : ... .. . ... ... : ... .. . ... ...
ROW 04 : ... .. . ... ... ... : G-3 00 A ... ... ... : D-4 00 . ... : 1-# 00 D ... : ... .. . ... ... : A-3 01 7 ... ... : D-3 01 7 P81 ... : ... .. . ... ...
ROW 05 : ... .. . ... ... ... : ... .. 8 ... ... ... : ... .. . ... : ... .. . ... : ... .. . ... ... : ... .. 6 ... ... : ... .. 6 ... ... : ... .. . ... ...
ROW 06 : ... .. . ... ... ... : ... .. . ... ... ... : ... .. . ... : D-# 00 D ... : ... .. . ... ... : ... .. . ... ... : ... .. . ... ... : ... .. . ... ...
ROW 07 : ... .. . ... ... ... : ... .. . ... ... ... : ... .. . ... : B-# 00 6 ... : ... .. . ... ... : --- .. . ... ... : --- .. . P83 ... : ... .. . ... ...
ROW 08 : ... .. . ... ... ... : ... .. 6 ... ... ... : --- .. . ... : 7-# 00 1 ... : ... .. . ... ... : ... .. . ... ... : ... .. . ... ... : ... .. . ... ...
ROW 09 : ... .. . ... ... ... : A-3 00 A ... ... ... : D-4 00 . ... : D-# 00 8 ... : ... .. . ... ... : A-3 01 7 ... ... : D-3 01 7 P81 ... : ... .. . P84 ...
ROW 0A : ... .. . ... ... ... : ... .. 8 ... ... ... : ... .. . ... : ... .. 6 ... : ... .. . ... ... : ... .. 6 ... ... : ... .. 6 ... ... : ... .. . P86 ...
ROW 0B : ... .. . ... ... ... : ... .. . ... ... ... : ... .. . ... : ... .. 3 ... : ... .. . ... ... : ... .. . ... ... : ... .. . ... ... : ... .. . P85 ...
ROW 0C : ... .. . ... ... ... : ... .. . ... ... ... : ... .. . ... : ... .. 1 ... : ... .. . ... ... : --- .. . ... ... : --- .. . P83 ... : ... .. . P82 ...
ROW 0D : ... .. . ... ... ... : ... .. 6 ... ... ... : --- .. . ... : ... .. . ... : ... .. . ... ... : ... .. . ... ... : ... .. . ... ... : ... .. . P7E ...
ROW 0E : ... .. . ... ... ... : D-4 00 A ... ... ... : D-3 00 . ... : ... .. A ... : ... .. . ... ... : A-3 01 7 ... ... : D-3 01 7 P81 ... : ... .. . P7B ...
ROW 0F : ... .. . ... ... ... : ... .. 8 ... ... ... : ... .. . ... : ... .. 8 ... : ... .. . ... ... : ... .. 6 ... ... : ... .. 6 ... ... : ... .. . P7A ...
ROW 10 : ... .. . ... ... ... : ... .. . ... ... ... : ... .. . ... : ... .. 4 ... : ... .. . ... ... : ... .. . ... ... : ... .. . ... ... : ... .. . P7C ...
ROW 11 : ... .. . ... ... ... : ... .. . ... ... ... : ... .. . ... : ... .. 2 ... : ... .. . ... ... : ... .. . ... ... : ... .. . ... ... : ... .. . P80 ...
ROW 12 : ... .. . ... ... ... : ... .. 6 ... ... ... : --- .. . ... : ... .. 1 ... : ... .. . ... ... : ... .. 5 ... ... : ... .. 5 ... ... : ... .. . P83 ...
ROW 13 : ... .. . ... ... ... : A-3 00 A ... ... ... : D-3 00 . ... : ... .. 8 ... : ... .. . ... ... : ... .. . ... ... : ... .. . ... ... : ... .. . P86 ...
ROW 14 : ... .. . ... ... ... : ... .. 8 ... ... ... : ... .. . ... : ... .. 6 ... : ... .. . ... ... : ... .. . ... ... : ... .. . ... ... : ... .. 2 ... ...
ROW 15 : ... .. . ... ... ... : ... .. . ... ... ... : ... .. . ... : ... .. 3 ... : ... .. . ... ... : ... .. 4 ... ... : ... .. 4 ... ... : ... .. . P82 ...
ROW 16 : ... .. . ... ... ... : ... .. . ... ... ... : ... .. . ... : ... .. 1 ... : ... .. . ... ... : ... .. . ... ... : ... .. . ... ... : ... .. 1 P7F ...
ROW 17 : ... .. . ... ... ... : ... .. 6 ... ... ... : --- .. . ... : ... .. . ... : ... .. . ... ... : ... .. . ... ... : ... .. . ... ... : ... .. . P7B ...
ROW 18 : ... .. . ... ... ... : D-4 00 A ... ... ... : D-3 00 . ... : 1-# 00 F ... : ... .. . ... ... : --- .. . ... ... : --- .. . P83 ... : D-1 01 A P80 ...
ROW 19 : ... .. . ... ... ... : ... .. 8 ... ... ... : ... .. . ... : ... .. C ... : ... .. . ... ... : ... .. . ... ... : ... .. . ... ... : ... .. 8 ... ...
ROW 1A : ... .. . ... ... ... : ... .. . ... ... ... : ... .. . ... : ... .. 6 ... : ... .. . ... ... : ... .. . ... ... : ... .. . ... ... : ... .. 5 ... ...
ROW 1B : ... .. . P84 ... ... : ... .. . ... ... ... : ... .. . ... : ... .. 3 ... : ... .. . ... ... : ... .. . ... ... : ... .. . ... ... : ... .. . ... ...
ROW 1C : ... .. . P86 ... ... : ... .. 6 ... ... ... : ... .. . ... : ... .. 2 ... : ... .. . ... ... : ... .. . ... ... : ... .. . ... ... : ... .. 2 ... ...
ROW 1D : ... .. . P85 ... ... : A-3 00 A ... ... ... : ... .. . ... : D-# 00 8 ... : ... .. . ... ... : ... .. . ... ... : ... .. . ... ... : ... .. A ... ...
ROW 1E : ... .. . P82 ... ... : ... .. 8 ... ... ... : ... .. . ... : ... .. 6 ... : ... .. . ... ... : ... .. . ... ... : ... .. . ... ... : ... .. 8 ... ...
ROW 1F : ... .. . P7E ... ... : ... .. . ... ... ... : ... .. . ... : ... .. 3 ... : ... .. . ... ... : ... .. . ... ... : ... .. . ... ... : ... .. 5 ... ...
ROW 20 : ... .. . P7B ... ... : ... .. . ... ... ... : --- .. . ... : ... .. 1 ... : ... .. . ... ... : ... .. . ... ... : ... .. . ... ... : ... .. . ... ...
ROW 21 : ... .. . P7A ... ... : ... .. 6 ... ... ... : ... .. . ... : ... .. . ... : ... .. . ... ... : ... .. . ... ... : ... .. . ... ... : ... .. 2 ... ...
ROW 22 : ... .. . P7C ... ... : G-3 00 A ... ... ... : D-3 00 . ... : ... .. A ... : ... .. . ... ... : A-3 01 7 ... ... : D-3 01 7 P81 ... : D-0 01 A ... ...
ROW 23 : ... .. . P80 ... ... : ... .. 8 ... ... ... : ... .. . ... : ... .. 8 ... : ... .. . ... ... : ... .. 6 ... ... : ... .. 6 ... ... : ... .. 8 ... ...
ROW 24 : ... .. . P83 ... ... : ... .. . ... ... ... : ... .. . ... : ... .. 4 ... : ... .. . ... ... : ... .. . ... ... : ... .. . ... ... : ... .. 5 ... ...
ROW 25 : ... .. . P86 ... ... : ... .. . ... ... ... : ... .. . ... : ... .. 2 ... : ... .. . ... ... : --- .. . ... ... : --- .. . P83 ... : ... .. . ... ...
ROW 26 : ... .. . ... ... ... : ... .. 6 ... ... ... : ... .. . ... : ... .. 1 ... : ... .. . ... ... : ... .. . ... ... : ... .. . ... ... : ... .. 2 ... ...
ROW 27 : ... .. . P82 ... ... : D-3 00 A ... ... ... : ... .. . ... : ... .. 8 ... : ... .. . ... ... : A-3 01 7 ... ... : D-3 01 7 P81 ... : ... .. A ... ...
ROW 28 : ... .. . P7F ... ... : ... .. 8 ... ... ... : ... .. . ... : ... .. 6 ... : ... .. . ... ... : ... .. 6 ... ... : ... .. 6 ... ... : ... .. 8 ... ...
ROW 29 : ... .. . P7B ... ... : ... .. . ... ... ... : ... .. . ... : ... .. 3 ... : ... .. . ... ... : ... .. . ... ... : ... .. . ... ... : ... .. 5 ... ...
ROW 2A : ... .. . P7A ... ... : ... .. . ... ... ... : --- .. . ... : ... .. 1 ... : ... .. . ... ... : --- .. . ... ... : --- .. . P83 ... : ... .. . ... ...
ROW 2B : ... .. . P7C ... ... : ... .. 6 ... ... ... : ... .. . ... : ... .. . ... : ... .. . ... ... : ... .. . ... ... : ... .. . ... ... : ... .. 2 ... ...
ROW 2C : ... .. . P80 ... ... : G-3 00 A ... ... ... : D-4 00 . ... : 1-# 00 D ... : ... .. . ... ... : A-3 01 7 ... ... : D-3 01 7 P81 ... : D-1 01 A ... ...
ROW 2D : ... .. . P83 ... ... : ... .. 8 ... ... ... : ... .. . ... : ... .. . ... : ... .. . ... ... : ... .. 6 ... ... : ... .. 6 ... ... : ... .. 8 ... ...
ROW 2E : ... .. . P86 ... ... : ... .. . ... ... ... : ... .. . ... : D-# 00 D ... : ... .. . ... ... : ... .. . ... ... : ... .. . ... ... : ... .. 5 ... ...
ROW 2F : ... .. . ... ... ... : ... .. . ... ... ... : ... .. . ... : B-# 00 6 ... : ... .. . ... ... : ... .. . ... ... : ... .. . ... ... : ... .. . ... ...
ROW 30 : ... .. . P83 ... ... : ... .. 6 ... ... ... : --- .. . ... : 7-# 00 1 ... : ... .. . ... ... : ... .. 5 ... ... : ... .. 5 ... ... : ... .. 2 ... ...
ROW 31 : ... .. . P80 ... ... : A-3 00 A ... ... ... : D-4 00 . ... : D-# 00 8 ... : ... .. . ... ... : --- .. . ... ... : --- .. . P83 ... : ... .. A ... ...
ROW 32 : ... .. . P7C ... ... : ... .. 8 ... ... ... : ... .. . ... : ... .. 6 ... : ... .. . ... ... : ... .. . ... ... : ... .. . ... ... : ... .. 8 ... ...
ROW 33 : ... .. . P7A ... ... : ... .. . ... ... ... : ... .. . ... : ... .. 3 ... : ... .. . ... ... : ... .. . ... ... : ... .. . ... ... : ... .. 5 ... ...
ROW 34 : ... .. . P7B ... ... : ... .. . ... ... ... : ... .. . ... : ... .. 1 ... : ... .. . ... ... : ... .. . ... ... : ... .. . ... ... : ... .. . ... ...
ROW 35 : ... .. . P7F ... ... : ... .. 6 ... ... ... : --- .. . ... : ... .. . ... : ... .. . ... ... : ... .. . ... ... : ... .. . ... ... : ... .. 2 ... ...
ROW 36 : ... .. . P82 ... ... : D-4 00 A ... ... ... : D-3 00 . ... : ... .. A ... : ... .. . ... ... : D-3 01 7 ... ... : G-2 01 7 P81 ... : D-0 01 A ... ...
ROW 37 : ... .. . P86 ... ... : ... .. 8 ... ... ... : ... .. . ... : ... .. 8 ... : ... .. . ... ... : ... .. 6 ... ... : ... .. 6 ... ... : ... .. 8 ... ...
ROW 38 : ... .. . ... ... ... : ... .. . ... ... ... : ... .. . ... : ... .. 4 ... : ... .. . ... ... : ... .. . ... ... : ... .. . ... ... : ... .. 5 ... ...
ROW 39 : ... .. . P83 ... ... : ... .. . ... ... ... : ... .. . ... : ... .. 2 ... : ... .. . ... ... : ... .. . ... ... : ... .. . ... ... : ... .. . ... ...
ROW 3A : ... .. . P80 ... ... : ... .. 6 ... ... ... : --- .. . ... : ... .. 1 ... : ... .. . ... ... : ... .. 5 ... ... : ... .. 5 ... ... : ... .. 2 ... ...
ROW 3B : ... .. . P7C ... ... : A-3 00 A ... ... ... : D-3 00 . ... : ... .. 8 ... : ... .. . ... ... : --- .. . P81 ... : --- .. . P7F ... : ... .. A ... ...
ROW 3C : ... .. 2 P7A ... ... : ... .. 8 ... ... ... : ... .. . ... : ... .. 6 ... : ... .. . ... ... : ... .. . ... ... : ... .. . ... ... : ... .. 8 ... ...
ROW 3D : ... .. . P7B ... ... : ... .. . ... ... ... : ... .. . ... : ... .. 3 ... : ... .. . ... ... : ... .. . ... ... : ... .. . ... ... : ... .. 5 ... ...
ROW 3E : ... .. . P7E ... ... : ... .. . ... ... ... : ... .. . ... : ... .. 1 ... : ... .. . ... ... : ... .. . ... ... : ... .. . ... ... : ... .. . ... ...
ROW 3F : ... .. 1 P82 ... ... : ... .. 6 ... ... ... : --- .. . ... : ... .. . ... : ... .. . ... ... : ... .. . ... ... : ... .. . ... ... : ... .. 2 ... ...
ROW 40 : F-3 00 F P80 ... ... : D-4 00 A ... ... ... : D-2 00 . ... : 1-# 00 F ... : ... .. . ... ... : A-3 01 7 P7F ... : D-3 01 7 P81 ... : F-2 01 A ... ...
ROW 41 : ... .. E ... ... ... : ... .. 8 ... ... ... : ... .. . ... : ... .. C ... : ... .. . ... ... : ... .. 6 ... ... : ... .. 6 ... ... : ... .. 8 ... ...
ROW 42 : ... .. D ... ... ... : ... .. . ... ... ... : ... .. . ... : ... .. 6 ... : ... .. . ... ... : ... .. . ... ... : ... .. . ... ... : ... .. 5 ... ...
ROW 43 : ... .. A ... ... ... : ... .. . ... ... ... : ... .. . ... : ... .. 3 ... : ... .. . ... ... : ... .. . ... ... : ... .. . ... ... : ... .. . ... ...
ROW 44 : ... .. . ... ... ... : ... .. 6 ... ... ... : ... .. . ... : ... .. 2 ... : ... .. . ... ... : ... .. 5 ... ... : ... .. 5 ... ... : ... .. . ... ...
ROW 45 : ... .. . ... ... ... : A-3 00 A ... ... ... : ... .. . ... : D-# 00 8 ... : ... .. . ... ... : ... .. . ... ... : ... .. . ... ... : ... .. . ... ...
ROW 46 : ... .. . ... ... ... : ... .. 8 ... ... ... : ... .. . ... : ... .. 6 ... : ... .. . ... ... : ... .. . ... ... : ... .. . ... ... : ... .. . ... ...
ROW 47 : ... .. . ... ... ... : ... .. . ... ... ... : ... .. . ... : ... .. 3 ... : ... .. . ... ... : ... .. 4 ... ... : ... .. 4 ... ... : ... .. . ... ...
ROW 48 : ... .. . ... ... ... : ... .. . ... ... ... : --- .. . ... : ... .. 1 ... : ... .. . ... ... : ... .. . ... ... : ... .. . ... ... : ... .. . ... ...
ROW 49 : ... .. . ... ... ... : ... .. 6 ... ... ... : ... .. . ... : ... .. . ... : ... .. . ... ... : ... .. . ... ... : ... .. . ... ... : ... .. . ... ...
ROW 4A : ... .. . ... ... ... : G-3 00 A ... ... ... : D-2 00 . ... : ... .. A ... : ... .. . ... ... : --- .. . ... ... : --- .. . P83 ... : ... .. . ... ...
ROW 4B : ... .. . ... ... ... : ... .. 8 ... ... ... : ... .. . ... : ... .. 8 ... : ... .. . ... ... : ... .. . ... ... : ... .. . ... ... : ... .. . ... ...
ROW 4C : ... .. . ... ... ... : ... .. . ... ... ... : ... .. . ... : ... .. 4 ... : ... .. . ... ... : ... .. . ... ... : ... .. . ... ... : ... .. . ... ...
ROW 4D : ... .. . ... ... ... : ... .. . ... ... ... : ... .. . ... : ... .. 2 ... : ... .. . ... ... : ... .. . ... ... : ... .. . ... ... : ... .. . ... ...
ROW 4E : ... .. . ... ... ... : ... .. 6 ... ... ... : ... .. . ... : ... .. 1 ... : ... .. . ... ... : ... .. . ... ... : ... .. . ... ... : ... .. . ... ...
ROW 4F : ... .. . ... ... ... : D-3 00 A ... ... ... : ... .. . ... : ... .. 8 ... : ... .. . ... ... : ... .. . ... ... : ... .. . ... ... : ... .. . ... ...
ROW 50 : ... .. . ... ... ... : ... .. 8 ... ... ... : ... .. . ... : ... .. 6 ... : ... .. . ... ... : ... .. . ... ... : ... .. . ... ... : ... .. . ... ...
ROW 51 : ... .. . ... ... ... : ... .. . ... ... ... : ... .. . ... : ... .. 3 ... : ... .. . ... ... : ... .. . ... ... : ... .. . ... ... : ... .. . ... ...
ROW 52 : ... .. . ... ... ... : ... .. . ... ... ... : --- .. . ... : ... .. 1 ... : ... .. . ... ... : ... .. . ... ... : ... .. . ... ... : ... .. . ... ...
ROW 53 : ... .. . ... ... ... : ... .. 6 ... ... ... : ... .. . ... : ... .. . ... : ... .. . ... ... : ... .. . ... ... : ... .. . ... ... : ... .. . ... ...
ROW 54 : ... .. . ... ... ... : G-3 00 A ... ... ... : D-4 00 . ... : 1-# 00 D ... : ... .. . ... ... : A-3 01 7 ... ... : D-3 01 7 P81 ... : ... .. . ... ...
ROW 55 : ... .. . ... ... ... : ... .. 8 ... ... ... : ... .. . ... : ... .. . ... : ... .. . ... ... : ... .. 6 ... ... : ... .. 6 ... ... : ... .. . ... ...
ROW 56 : ... .. . ... ... ... : ... .. . ... ... ... : ... .. . ... : D-# 00 D ... : ... .. . ... ... : ... .. . ... ... : ... .. . ... ... : ... .. . ... ...
ROW 57 : ... .. . ... ... ... : ... .. . ... ... ... : ... .. . ... : B-# 00 6 ... : ... .. . ... ... : --- .. . ... ... : --- .. . P83 ... : ... .. . ... ...
ROW 58 : ... .. . ... ... ... : ... .. 6 ... ... ... : --- .. . ... : 7-# 00 1 ... : ... .. . ... ... : ... .. . ... ... : ... .. . ... ... : ... .. . ... ...
ROW 59 : ... .. . P84 ... ... : A-3 00 A ... ... ... : D-4 00 . ... : D-# 00 8 ... : ... .. . ... ... : A-3 01 7 ... ... : D-3 01 7 P81 ... : ... .. . P84 ...
ROW 5A : ... .. . P86 ... ... : ... .. 8 ... ... ... : ... .. . ... : ... .. 6 ... : ... .. . ... ... : ... .. 6 ... ... : ... .. 6 ... ... : ... .. . P86 ...
ROW 5B : ... .. . P85 ... ... : ... .. . ... ... ... : ... .. . ... : ... .. 3 ... : ... .. . ... ... : ... .. . ... ... : ... .. . ... ... : ... .. . P85 ...
ROW 5C : ... .. . P82 ... ... : ... .. . ... ... ... : ... .. . ... : ... .. 1 ... : ... .. . ... ... : --- .. . ... ... : --- .. . P83 ... : ... .. . P82 ...
ROW 5D : ... .. . P7E ... ... : ... .. 6 ... ... ... : --- .. . ... : ... .. . ... : ... .. . ... ... : ... .. . ... ... : ... .. . ... ... : ... .. . P7E ...
ROW 5E : ... .. . P7B ... ... : D-4 00 A ... ... ... : D-3 00 . ... : ... .. A ... : ... .. . ... ... : A-3 01 7 ... ... : D-3 01 7 P81 ... : ... .. . P7B ...
ROW 5F : ... .. . P7A ... ... : ... .. 8 ... ... ... : ... .. . ... : ... .. 8 ... : ... .. . ... ... : ... .. 6 ... ... : ... .. 6 ... ... : ... .. 2 P7A ...
ROW 60 : ... .. . P7C ... ... : ... .. . ... ... ... : ... .. . ... : ... .. 4 ... : ... .. . ... ... : ... .. . ... ... : ... .. . ... ... : ... .. . P7C ...
ROW 61 : ... .. . P80 ... ... : ... .. . ... ... ... : ... .. . ... : ... .. 2 ... : ... .. . ... ... : ... .. . ... ... : ... .. . ... ... : ... .. 1 P80 ...
ROW 62 : ... .. . P83 ... ... : ... .. 6 ... ... ... : --- .. . ... : ... .. 1 ... : ... .. . ... ... : ... .. 5 ... ... : ... .. 5 ... ... : ... .. . P83 ...
ROW 63 : ... .. . P86 ... ... : A-3 00 A ... ... ... : D-3 00 . ... : ... .. 8 ... : ... .. . ... ... : ... .. . ... ... : ... .. . ... ... : ... .. . P86 ...
ROW 64 : ... .. 2 ... ... ... : ... .. 8 ... ... ... : ... .. . ... : ... .. 6 ... : ... .. . ... ... : ... .. . ... ... : ... .. . ... ... : ... .. . ... ...
ROW 65 : ... .. . P82 ... ... : ... .. . ... ... ... : ... .. . ... : ... .. 3 ... : ... .. . ... ... : ... .. 4 ... ... : ... .. 4 ... ... : ... .. . P82 ...
ROW 66 : ... .. . P7F ... ... : ... .. . ... ... ... : ... .. . ... : ... .. 1 ... : ... .. . ... ... : ... .. . ... ... : ... .. . ... ... : ... .. . P7F ...
ROW 67 : ... .. 1 P7B ... ... : ... .. 6 ... ... ... : --- .. . ... : ... .. . ... : ... .. . ... ... : ... .. . ... ... : ... .. . ... ... : ... .. . P7B ...
ROW 68 : E-3 00 F P80 ... ... : D-4 00 A ... ... ... : D-3 00 . ... : 1-# 00 F ... : ... .. . ... ... : --- .. . ... ... : --- .. . P83 ... : E-2 01 A P80 ...
ROW 69 : ... .. E ... ... ... : ... .. 8 ... ... ... : ... .. . ... : ... .. C ... : ... .. . ... ... : ... .. . ... ... : ... .. . ... ... : ... .. 8 ... ...
ROW 6A : ... .. D ... ... ... : ... .. . ... ... ... : ... .. . ... : ... .. 6 ... : ... .. . ... ... : ... .. . ... ... : ... .. . ... ... : ... .. 5 ... ...
ROW 6B : ... .. A ... ... ... : ... .. . ... ... ... : ... .. . ... : ... .. 3 ... : ... .. . ... ... : ... .. . ... ... : ... .. . ... ... : ... .. . ... ...
ROW 6C : ... .. . ... ... ... : ... .. 6 ... ... ... : ... .. . ... : ... .. 2 ... : ... .. . ... ... : ... .. . ... ... : ... .. . ... ... : ... .. . ... ...
ROW 6D : ... .. . ... ... ... : A-3 00 A ... ... ... : ... .. . ... : D-# 00 8 ... : ... .. . ... ... : ... .. . ... ... : ... .. . ... ... : ... .. . ... ...
ROW 6E : ... .. . ... ... ... : ... .. 8 ... ... ... : ... .. . ... : ... .. 6 ... : ... .. . ... ... : ... .. . ... ... : ... .. . ... ... : ... .. . ... ...
ROW 6F : ... .. . ... ... ... : ... .. . ... ... ... : ... .. . ... : ... .. 3 ... : ... .. . ... ... : ... .. . ... ... : ... .. . ... ... : ... .. . ... ...
ROW 70 : ... .. . ... ... ... : ... .. . ... ... ... : --- .. . ... : ... .. 1 ... : ... .. . ... ... : ... .. . ... ... : ... .. . ... ... : ... .. . ... ...
ROW 71 : ... .. . ... ... ... : ... .. 6 ... ... ... : ... .. . ... : ... .. . ... : ... .. . ... ... : ... .. . ... ... : ... .. . ... ... : ... .. . ... ...
ROW 72 : ... .. . ... ... ... : G-3 00 A ... ... ... : D-3 00 . ... : ... .. A ... : ... .. . ... ... : D-3 01 7 ... ... : G-2 01 7 P81 ... : ... .. . ... ...
ROW 73 : ... .. . ... ... ... : ... .. 8 ... ... ... : ... .. . ... : ... .. 8 ... : ... .. . ... ... : ... .. 6 ... ... : ... .. 6 ... ... : ... .. . ... ...
ROW 74 : ... .. . ... ... ... : ... .. . ... ... ... : ... .. . ... : ... .. 4 ... : ... .. . ... ... : ... .. . ... ... : ... .. . ... ... : ... .. . ... ...
ROW 75 : ... .. . ... ... ... : ... .. . ... ... ... : ... .. . ... : ... .. 2 ... : ... .. . ... ... : --- .. . P81 ... : --- .. . P7F ... : ... .. . ... ...
ROW 76 : ... .. . ... ... ... : ... .. 6 ... ... ... : ... .. . ... : ... .. 1 ... : ... .. . ... ... : ... .. . ... ... : ... .. . ... ... : ... .. . ... ...
ROW 77 : ... .. . ... ... ... : D-3 00 A ... ... ... : ... .. . ... : ... .. 8 ... : ... .. . ... ... : D-3 01 7 P7F ... : G-2 01 7 P81 ... : ... .. . ... ...
ROW 78 : ... .. . ... ... ... : ... .. 8 ... ... ... : ... .. . ... : ... .. 6 ... : ... .. . ... ... : ... .. 6 ... ... : ... .. 6 ... ... : ... .. . ... ...
ROW 79 : ... .. . ... ... ... : ... .. . ... ... ... : ... .. . ... : ... .. 3 ... : ... .. . ... ... : ... .. . ... ... : ... .. . ... ... : ... .. . ... ...
ROW 7A : ... .. . ... ... ... : ... .. . ... ... ... : --- .. . ... : ... .. 1 ... : ... .. . ... ... : --- .. . P81 ... : --- .. . P7F ... : ... .. . ... ...
ROW 7B : ... .. . ... ... ... : ... .. 6 ... ... ... : ... .. . ... : ... .. . ... : ... .. . ... ... : ... .. . ... ... : ... .. . ... ... : ... .. . ... ...
ROW 7C : ... .. . ... ... ... : G-3 00 A ... ... ... : D-4 00 . ... : 1-# 00 D ... : ... .. . ... ... : A-3 01 7 P7F ... : D-3 01 7 P81 ... : ... .. . ... ...
ROW 7D : ... .. . ... ... ... : ... .. 8 ... ... ... : ... .. . ... : ... .. . ... : ... .. . ... ... : ... .. 6 ... ... : ... .. 6 ... ... : ... .. . ... ...
ROW 7E : ... .. . ... ... ... : ... .. . ... ... ... : ... .. . ... : D-# 00 D ... : ... .. . ... ... : ... .. . ... ... : ... .. . ... ... : ... .. . ... ...
ROW 7F : ... .. . ... ... ... : ... .. . ... ... ... : ... .. . ... : B-# 00 6 ... : ... .. . ... ... : ... .. . ... ... : ... .. . ... ... : ... .. . ... ...
ROW 80 : ... .. . ... ... ... : ... .. 6 ... ... ... : --- .. . ... : 7-# 00 1 ... : ... .. . ... ... : ... .. 5 ... ... : ... .. 5 ... ... : ... .. . ... ...
ROW 81 : ... .. . ... ... ... : A-3 00 A ... ... ... : D-4 00 . ... : D-# 00 8 ... : ... .. . ... ... : --- .. . ... ... : --- .. . P83 ... : ... .. . ... ...
ROW 82 : ... .. . ... ... ... : ... .. 8 ... ... ... : ... .. . ... : ... .. 6 ... : ... .. . ... ... : ... .. . ... ... : ... .. . ... ... : ... .. . ... ...
ROW 83 : ... .. . ... ... ... : ... .. . ... ... ... : ... .. . ... : ... .. 3 ... : ... .. . ... ... : ... .. . ... ... : ... .. . ... ... : ... .. . ... ...
ROW 84 : ... .. . ... ... ... : ... .. . ... ... ... : ... .. . ... : ... .. 1 ... : ... .. . ... ... : ... .. . ... ... : ... .. . ... ... : ... .. . ... ...
ROW 85 : ... .. . ... ... ... : ... .. 6 ... ... ... : --- .. . ... : ... .. . ... : ... .. . ... ... : ... .. . ... ... : ... .. . ... ... : ... .. . ... ...
ROW 86 : ... .. . ... ... ... : D-4 00 A ... ... ... : D-3 00 . ... : ... .. A ... : ... .. . ... ... : D-3 01 7 ... ... : G-2 01 7 P81 ... : ... .. . ... ...
ROW 87 : ... .. . ... ... ... : ... .. 8 ... ... ... : ... .. . ... : ... .. 8 ... : ... .. . ... ... : ... .. 6 ... ... : ... .. 6 ... ... : ... .. 2 ... ...
ROW 88 : ... .. . ... ... ... : ... .. . ... ... ... : ... .. . ... : ... .. 4 ... : ... .. . ... ... : ... .. . ... ... : ... .. . ... ... : ... .. . ... ...
ROW 89 : ... .. . ... ... ... : ... .. . ... ... ... : ... .. . ... : ... .. 2 ... : ... .. . ... ... : --- .. . P81 ... : --- .. . P7F ... : ... .. 1 ... ...
ROW 8A : ... .. . ... ... ... : ... .. 6 ... ... ... : --- .. . ... : ... .. 1 ... : ... .. . ... ... : ... .. . ... ... : ... .. . ... ... : ... .. . ... ...
ROW 8B : ... .. . ... ... ... : A-3 00 A ... ... ... : D-3 00 . ... : ... .. 8 ... : ... .. . ... ... : D-3 01 7 P7F ... : G-2 01 7 P81 ... : ... .. . ... ...
ROW 8C : ... .. 2 ... ... ... : ... .. 8 ... ... ... : ... .. . ... : ... .. 6 ... : ... .. . ... ... : ... .. 6 ... ... : ... .. 6 ... ... : ... .. . ... ...
ROW 8D : ... .. . ... ... ... : ... .. . ... ... ... : ... .. . ... : ... .. 3 ... : ... .. . ... ... : ... .. . ... ... : ... .. . ... ... : ... .. . ... ...
ROW 8E : ... .. . ... ... ... : ... .. . ... ... ... : ... .. . ... : ... .. 1 ... : ... .. . ... ... : --- .. . P81 ... : --- .. . P7F ... : ... .. . ... ...
ROW 8F : ... .. 1 ... ... ... : ... .. 6 ... ... ... : --- .. . ... : ... .. . ... : ... .. . ... ... : ... .. . ... ... : ... .. . ... ... : ... .. . ... ...
ROW 90 : G-3 00 F ... ... ... : D-4 00 8 ... ... ... : D-2 00 . ... : 1-# 00 F ... : ... .. . ... ... : A-3 01 7 P7F ... : D-3 01 7 P81 ... : G-2 01 A ... ...
ROW 91 : ... .. E ... ... ... : ... .. 3 ... ... ... : ... .. . ... : ... .. C ... : ... .. . ... ... : ... .. 6 ... ... : ... .. 6 ... ... : ... .. 8 ... ...
ROW 92 : ... .. D ... ... ... : ... .. 0 ... ... ... : ... .. . ... : ... .. 6 ... : ... .. . ... ... : ... .. . ... ... : ... .. . ... ... : ... .. 5 ... ...
ROW 93 : ... .. A ... ... ... : D-4 00 3 P80 ... ... : ... .. . ... : ... .. 3 ... : ... .. . ... ... : ... .. . ... ... : ... .. . ... ... : ... .. . ... ...
ROW 94 : ... .. . ... ... ... : ... .. 4 ... ... ... : ... .. . ... : ... .. 2 ... : ... .. . ... ... : ... .. 5 ... ... : ... .. 5 ... ... : ... .. . ... ...
ROW 95 : ... .. . ... ... ... : A-3 00 8 ... ... ... : ... .. . ... : D-# 00 8 ... : ... .. . ... ... : ... .. . ... ... : ... .. . ... ... : ... .. . ... ...
ROW 96 : ... .. . ... ... ... : ... .. 3 ... ... ... : ... .. . ... : ... .. 6 ... : ... .. . ... ... : ... .. . ... ... : ... .. . ... ... : ... .. . ... ...
ROW 97 : ... .. . ... ... ... : ... .. 0 ... ... ... : ... .. . ... : ... .. 3 ... : ... .. . ... ... : ... .. 4 ... ... : ... .. 4 ... ... : ... .. . ... ...
ROW 98 : ... .. . ... ... ... : A-3 00 3 P80 ... ... : --- .. . ... : ... .. 1 ... : ... .. . ... ... : ... .. . ... ... : ... .. . ... ... : ... .. . ... ...
ROW 99 : ... .. . ... ... ... : ... .. 4 ... ... ... : ... .. . ... : ... .. . ... : ... .. . ... ... : ... .. . ... ... : ... .. . ... ... : ... .. . ... ...
ROW 9A : ... .. . ... ... ... : G-3 00 8 ... ... ... : D-2 00 . ... : ... .. A ... : ... .. . ... ... : --- .. . ... ... : --- .. . P83 ... : ... .. . ... ...
ROW 9B : ... .. . ... ... ... : ... .. 3 ... ... ... : ... .. . ... : ... .. 8 ... : ... .. . ... ... : ... .. . ... ... : ... .. . ... ... : ... .. . ... ...
ROW 9C : ... .. . ... ... ... : ... .. 0 ... ... ... : ... .. . ... : ... .. 4 ... : ... .. . ... ... : ... .. . ... ... : ... .. . ... ... : ... .. . ... ...
ROW 9D : ... .. . ... ... ... : G-3 00 3 P80 ... ... : ... .. . ... : ... .. 2 ... : ... .. . ... ... : ... .. . ... ... : ... .. . ... ... : ... .. . ... ...
ROW 9E : ... .. . ... ... ... : ... .. 4 ... ... ... : ... .. . ... : ... .. 1 ... : ... .. . ... ... : ... .. . ... ... : ... .. . ... ... : ... .. . ... ...
ROW 9F : ... .. . ... ... ... : D-3 00 8 ... ... ... : ... .. . ... : ... .. 8 ... : ... .. . ... ... : ... .. . ... ... : ... .. . ... ... : ... .. . ... ...
ROW A0 : ... .. . ... ... ... : ... .. 3 ... ... ... : ... .. . ... : ... .. 6 ... : ... .. . ... ... : ... .. . ... ... : ... .. . ... ... : ... .. . ... ...
ROW A1 : ... .. . ... ... ... : ... .. 0 ... ... ... : ... .. . ... : ... .. 3 ... : ... .. . ... ... : ... .. . ... ... : ... .. . ... ... : ... .. . ... ...
ROW A2 : ... .. . ... ... ... : D-3 00 3 P80 ... ... : --- .. . ... : ... .. 1 ... : ... .. . ... ... : ... .. . ... ... : ... .. . ... ... : ... .. . ... ...
ROW A3 : ... .. . ... ... ... : ... .. 4 ... ... ... : ... .. . ... : ... .. . ... : ... .. . ... ... : ... .. . ... ... : ... .. . ... ... : ... .. . ... ...
ROW A4 : ... .. . ... ... ... : G-3 00 8 ... ... ... : D-4 00 . ... : 1-# 00 D ... : ... .. . ... ... : A-3 01 7 ... ... : D-3 01 7 P81 ... : ... .. . ... ...
ROW A5 : ... .. . ... ... ... : ... .. 3 ... ... ... : ... .. . ... : ... .. . ... : ... .. . ... ... : ... .. 6 ... ... : ... .. 6 ... ... : ... .. . ... ...
ROW A6 : ... .. . ... ... ... : ... .. 0 ... ... ... : ... .. . ... : D-# 00 D ... : ... .. . ... ... : ... .. . ... ... : ... .. . ... ... : ... .. . ... ...
ROW A7 : ... .. . ... ... ... : G-3 00 3 P80 ... ... : ... .. . ... : B-# 00 6 ... : ... .. . ... ... : --- .. . ... ... : --- .. . P83 ... : ... .. . ... ...
ROW A8 : ... .. . ... ... ... : ... .. 4 ... ... ... : --- .. . ... : 7-# 00 1 ... : ... .. . ... ... : ... .. . ... ... : ... .. . ... ... : ... .. . ... ...
ROW A9 : ... .. . ... ... ... : A-3 00 8 ... ... ... : D-4 00 . ... : D-# 00 8 ... : ... .. . ... ... : A-3 01 7 ... ... : D-3 01 7 P81 ... : ... .. . ... ...
ROW AA : ... .. 2 ... ... ... : ... .. 3 ... ... ... : ... .. . ... : ... .. 6 ... : ... .. . ... ... : ... .. 6 ... ... : ... .. 6 ... ... : ... .. 2 ... ...
ROW AB : ... .. . ... ... ... : ... .. 0 ... ... ... : ... .. . ... : ... .. 3 ... : ... .. . ... ... : ... .. . ... ... : ... .. . ... ... : ... .. . ... ...
ROW AC : ... .. . ... ... ... : A-3 00 3 P80 ... ... : ... .. . ... : ... .. 1 ... : ... .. . ... ... : --- .. . ... ... : --- .. . P83 ... : ... .. 1 ... ...
ROW AD : ... .. 1 ... ... ... : ... .. 4 ... ... ... : --- .. . ... : ... .. . ... : ... .. . ... ... : ... .. . ... ... : ... .. . ... ... : ... .. . ... ...
ROW AE : D-3 00 F ... ... ... : D-4 00 8 ... ... ... : D-3 00 . ... : ... .. A ... : ... .. . ... ... : A-3 01 7 ... ... : D-3 01 7 P81 ... : D-2 01 A ... ...
ROW AF : ... .. E ... ... ... : ... .. 3 ... ... ... : ... .. . ... : ... .. 8 ... : ... .. . ... ... : ... .. 6 ... ... : ... .. 6 ... ... : ... .. 8 ... ...
ROW B0 : ... .. D ... ... ... : ... .. 0 ... ... ... : ... .. . ... : ... .. 4 ... : ... .. . ... ... : ... .. . ... ... : ... .. . ... ... : ... .. 5 ... ...
ROW B1 : ... .. A ... ... ... : D-4 00 3 P80 ... ... : ... .. . ... : ... .. 2 ... : ... .. . ... ... : ... .. . ... ... : ... .. . ... ... : ... .. . ... ...
ROW B2 : ... .. . ... ... ... : ... .. 4 ... ... ... : --- .. . ... : ... .. 1 ... : ... .. . ... ... : ... .. 5 ... ... : ... .. 5 ... ... : ... .. . ... ...
ROW B3 : ... .. . ... ... ... : A-3 00 8 ... ... ... : D-3 00 . ... : ... .. 8 ... : ... .. . ... ... : ... .. . ... ... : ... .. . ... ... : ... .. . ... ...
ROW B4 : ... .. 2 ... ... ... : ... .. 3 ... ... ... : ... .. . ... : ... .. 6 ... : ... .. . ... ... : ... .. . ... ... : ... .. . ... ... : ... .. 2 ... ...
ROW B5 : ... .. . ... ... ... : ... .. 0 ... ... ... : ... .. . ... : ... .. 3 ... : ... .. . ... ... : ... .. 4 ... ... : ... .. 4 ... ... : ... .. . ... ...
ROW B6 : ... .. . ... ... ... : A-3 00 3 P80 ... ... : ... .. . ... : ... .. 1 ... : ... .. . ... ... : ... .. . ... ... : ... .. . ... ... : ... .. 1 ... ...
ROW B7 : ... .. 1 ... ... ... : ... .. 4 ... ... ... : --- .. . ... : ... .. . ... : ... .. . ... ... : ... .. . ... ... : ... .. . ... ... : ... .. . ... ...
ROW B8 : ... .. F ... ... ... : D-4 00 8 ... ... ... : D-3 00 . ... : 1-# 00 F ... : ... .. . ... ... : --- .. . ... ... : --- .. . P83 ... : ... .. A ... ...
ROW B9 : ... .. E ... ... ... : ... .. 3 ... ... ... : ... .. . ... : ... .. C ... : ... .. . ... ... : ... .. . ... ... : ... .. . ... ... : ... .. 8 ... ...
ROW BA : ... .. D ... ... ... : ... .. 0 ... ... ... : ... .. . ... : ... .. 6 ... : ... .. . ... ... : ... .. . ... ... : ... .. . ... ... : ... .. 5 ... ...
ROW BB : ... .. A ... ... ... : D-4 00 3 P80 ... ... : ... .. . ... : ... .. 3 ... : ... .. . ... ... : ... .. . ... ... : ... .. . ... ... : ... .. . ... ...
ROW BC : ... .. . ... ... ... : ... .. 4 ... ... ... : ... .. . ... : ... .. 2 ... : ... .. . ... ... : ... .. . ... ... : ... .. . ... ... : ... .. . ... ...
ROW BD : ... .. . ... ... ... : A-3 00 8 ... ... ... : ... .. . ... : D-# 00 8 ... : ... .. . ... ... : ... .. . ... ... : ... .. . ... ... : ... .. . ... ...
ROW BE : ... .. . ... ... ... : ... .. 3 ... ... ... : ... .. . ... : ... .. 6 ... : ... .. . ... ... : ... .. . ... ... : ... .. . ... ... : ... .. . ... ...
ROW BF : ... .. . ... ... ... : ... .. 0 ... ... ... : ... .. . ... : ... .. 3 ... : ... .. . ... ... : ... .. . ... ... : ... .. . ... ... : ... .. . ... ...
ROW C0 : ... .. . ... ... ... : A-3 00 3 P80 ... ... : --- .. . ... : ... .. 1 ... : ... .. . ... ... : ... .. . ... ... : ... .. . ... ... : ... .. . ... ...
ROW C1 : ... .. . ... ... ... : ... .. 4 ... ... ... : ... .. . ... : ... .. . ... : ... .. . ... ... : ... .. . ... ... : ... .. . ... ... : ... .. . ... ...
ROW C2 : ... .. . ... ... ... : G-3 00 8 ... ... ... : D-3 00 . ... : ... .. A ... : ... .. . ... ... : A-3 01 7 ... ... : D-3 01 7 P81 ... : ... .. . ... ...
ROW C3 : ... .. . ... ... ... : ... .. 3 ... ... ... : ... .. . ... : ... .. 8 ... : ... .. . ... ... : ... .. 6 ... ... : ... .. 6 ... ... : ... .. . ... ...
ROW C4 : ... .. . ... ... ... : ... .. 0 ... ... ... : ... .. . ... : ... .. 4 ... : ... .. . ... ... : ... .. . ... ... : ... .. . ... ... : ... .. . ... ...
ROW C5 : ... .. . ... ... ... : G-3 00 3 P80 ... ... : ... .. . ... : ... .. 2 ... : ... .. . ... ... : --- .. . ... ... : --- .. . P83 ... : ... .. . ... ...
ROW C6 : ... .. . ... ... ... : ... .. 4 ... ... ... : ... .. . ... : ... .. 1 ... : ... .. . ... ... : ... .. . ... ... : ... .. . ... ... : ... .. . ... ...
ROW C7 : ... .. . ... ... ... : D-3 00 8 ... ... ... : ... .. . ... : ... .. 8 ... : ... .. . ... ... : A-3 01 7 ... ... : D-3 01 7 P81 ... : ... .. . ... ...
ROW C8 : ... .. . ... ... ... : ... .. 3 ... ... ... : ... .. . ... : ... .. 6 ... : ... .. . ... ... : ... .. 6 ... ... : ... .. 6 ... ... : ... .. . ... ...
ROW C9 : ... .. . ... ... ... : ... .. 0 ... ... ... : ... .. . ... : ... .. 3 ... : ... .. . ... ... : ... .. . ... ... : ... .. . ... ... : ... .. . ... ...
ROW CA : ... .. . ... ... ... : D-3 00 3 P80 ... ... : --- .. . ... : ... .. 1 ... : ... .. . ... ... : --- .. . ... ... : --- .. . P83 ... : ... .. . ... ...
ROW CB : ... .. . ... ... ... : ... .. 4 ... ... ... : ... .. . ... : ... .. . ... : ... .. . ... ... : ... .. . ... ... : ... .. . ... ... : ... .. . ... ...
ROW CC : ... .. . ... ... ... : G-3 00 8 ... ... ... : D-4 00 . ... : 1-# 00 D ... : ... .. . ... ... : A-3 01 7 ... ... : D-3 01 7 P81 ... : ... .. . ... ...
ROW CD : ... .. . ... ... ... : ... .. 3 ... ... ... : ... .. . ... : ... .. . ... : ... .. . ... ... : ... .. 6 ... ... : ... .. 6 ... ... : ... .. . ... ...
ROW CE : ... .. . ... ... ... : ... .. 0 ... ... ... : ... .. . ... : D-# 00 D ... : ... .. . ... ... : ... .. . ... ... : ... .. . ... ... : ... .. . ... ...
ROW CF : ... .. . ... ... ... : G-3 00 3 P80 ... ... : ... .. . ... : B-# 00 6 ... : ... .. . ... ... : ... .. . ... ... : ... .. . ... ... : ... .. . ... ...
ROW D0 : ... .. . ... ... ... : ... .. 4 ... ... ... : --- .. . ... : 7-# 00 1 ... : ... .. . ... ... : ... .. 5 ... ... : ... .. 5 ... ... : ... .. . ... ...
ROW D1 : ... .. . ... ... ... : A-3 00 8 ... ... ... : D-4 00 . ... : D-# 00 8 ... : ... .. . ... ... : --- .. . ... ... : --- .. . P83 ... : ... .. . ... ...
ROW D2 : ... .. . ... ... ... : ... .. 3 ... ... ... : ... .. . ... : ... .. 6 ... : ... .. . ... ... : ... .. . ... ... : ... .. . ... ... : ... .. . ... ...
ROW D3 : ... .. . ... ... ... : ... .. 0 ... ... ... : ... .. . ... : ... .. 3 ... : ... .. . ... ... : ... .. . ... ... : ... .. . ... ... : ... .. . ... ...
ROW D4 : ... .. . ... ... ... : A-3 00 3 P80 ... ... : ... .. . ... : ... .. 1 ... : ... .. . ... ... : ... .. . ... ... : ... .. . ... ... : ... .. . ... ...
ROW D5 : ... .. . ... ... ... : ... .. 4 ... ... ... : --- .. . ... : ... .. . ... : ... .. . ... ... : ... .. . ... ... : ... .. . ... ... : ... .. . ... ...
ROW D6 : ... .. . ... ... ... : D-4 00 8 ... ... ... : D-3 00 . ... : ... .. A ... : ... .. . ... ... : D-3 01 7 ... ... : G-2 01 7 P81 ... : ... .. . ... ...
ROW D7 : ... .. . ... ... ... : ... .. 3 ... ... ... : ... .. . ... : ... .. 8 ... : ... .. . ... ... : ... .. 6 ... ... : ... .. 6 ... ... : ... .. . ... ...
ROW D8 : ... .. . ... ... ... : ... .. 0 ... ... ... : ... .. . ... : ... .. 4 ... : ... .. . ... ... : ... .. . ... ... : ... .. . ... ... : ... .. . ... ...
ROW D9 : ... .. . ... ... ... : D-4 00 3 P80 ... ... : ... .. . ... : ... .. 2 ... : ... .. . ... ... : ... .. . ... ... : ... .. . ... ... : ... .. . ... ...
ROW DA : ... .. . ... ... ... : ... .. 4 ... ... ... : --- .. . ... : ... .. 1 ... : ... .. . ... ... : ... .. 5 ... ... : ... .. 5 ... ... : ... .. . ... ...
ROW DB : ... .. . ... ... ... : A-3 00 8 ... ... ... : D-3 00 . ... : ... .. 8 ... : ... .. . ... ... : --- .. . P81 ... : --- .. . P7F ... : ... .. . ... ...
ROW DC : ... .. 2 ... ... ... : ... .. 3 ... ... ... : ... .. . ... : ... .. 6 ... : ... .. . ... ... : ... .. . ... ... : ... .. . ... ... : ... .. 2 ... ...
ROW DD : ... .. . ... ... ... : ... .. 0 ... ... ... : ... .. . ... : ... .. 3 ... : ... .. . ... ... : ... .. . ... ... : ... .. . ... ... : ... .. . ... ...
ROW DE : ... .. . ... ... ... : A-3 00 3 P80 ... ... : ... .. . ... : ... .. 1 ... : ... .. . ... ... : ... .. . ... ... : ... .. . ... ... : ... .. 1 ... ...
ROW DF : ... .. 1 ... ... ... : ... .. 4 ... ... ... : --- .. . ... : ... .. . ... : ... .. . ... ... : ... .. . ... ... : ... .. . ... ... : ... .. . ... ...
ROW E0 : D-2 00 F ... ... ... : D-4 00 8 ... ... ... : D-2 00 . ... : 1-# 00 F ... : ... .. . ... ... : A-3 01 7 P7F ... : D-3 01 7 P81 ... : D-1 01 A ... ...
ROW E1 : ... .. E ... ... ... : ... .. 3 ... ... ... : ... .. . ... : ... .. C ... : ... .. . ... ... : ... .. 6 ... ... : ... .. 6 ... ... : ... .. 8 ... ...
ROW E2 : ... .. D ... ... ... : ... .. 0 ... ... ... : ... .. . ... : ... .. 6 ... : ... .. . ... ... : ... .. . ... ... : ... .. . ... ... : ... .. 5 ... ...
ROW E3 : ... .. A ... ... ... : D-4 00 3 P80 ... ... : ... .. . ... : ... .. 3 ... : ... .. . ... ... : ... .. . ... ... : ... .. . ... ... : ... .. . ... ...
ROW E4 : ... .. 2 ... ... ... : ... .. 4 ... ... ... : ... .. . ... : ... .. 2 ... : ... .. . ... ... : ... .. 5 ... ... : ... .. 5 ... ... : ... .. 2 ... ...
ROW E5 : ... .. F ... ... ... : A-3 00 8 ... ... ... : ... .. . ... : D-# 00 8 ... : ... .. . ... ... : ... .. . ... ... : ... .. . ... ... : ... .. A ... ...
ROW E6 : ... .. E ... ... ... : ... .. 3 ... ... ... : ... .. . ... : ... .. 6 ... : ... .. . ... ... : ... .. . ... ... : ... .. . ... ... : ... .. 8 ... ...
ROW E7 : ... .. D ... ... ... : ... .. 0 ... ... ... : ... .. . ... : ... .. 3 ... : ... .. . ... ... : ... .. 4 ... ... : ... .. 4 ... ... : ... .. 5 ... ...
ROW E8 : ... .. A ... ... ... : A-3 00 3 P80 ... ... : --- .. . ... : ... .. 1 ... : ... .. . ... ... : ... .. . ... ... : ... .. . ... ... : ... .. . ... ...
ROW E9 : ... .. 2 ... ... ... : ... .. 4 ... ... ... : ... .. . ... : ... .. . ... : ... .. . ... ... : ... .. . ... ... : ... .. . ... ... : ... .. 2 ... ...
ROW EA : D-1 00 F ... ... ... : G-3 00 8 ... ... ... : D-2 00 . ... : ... .. A ... : ... .. . ... ... : --- .. . ... ... : --- .. . P83 ... : D-0 01 A ... ...
ROW EB : ... .. E ... ... ... : ... .. 3 ... ... ... : ... .. . ... : ... .. 8 ... : ... .. . ... ... : ... .. . ... ... : ... .. . ... ... : ... .. 8 ... ...
ROW EC : ... .. D ... ... ... : ... .. 0 ... ... ... : ... .. . ... : ... .. 4 ... : ... .. . ... ... : ... .. . ... ... : ... .. . ... ... : ... .. 5 ... ...
ROW ED : ... .. A ... ... ... : G-3 00 3 P80 ... ... : ... .. . ... : ... .. 2 ... : ... .. . ... ... : ... .. . ... ... : ... .. . ... ... : ... .. . ... ...
ROW EE : ... .. 2 ... ... ... : ... .. 4 ... ... ... : ... .. . ... : ... .. 1 ... : ... .. . ... ... : ... .. . ... ... : ... .. . ... ... : ... .. 2 ... ...
ROW EF : ... .. F ... ... ... : D-3 00 8 ... ... ... : ... .. . ... : ... .. 8 ... : ... .. . ... ... : ... .. . ... ... : ... .. . ... ... : ... .. A ... ...
ROW F0 : ... .. E ... ... ... : ... .. 3 ... ... ... : ... .. . ... : ... .. 6 ... : ... .. . ... ... : ... .. . ... ... : ... .. . ... ... : ... .. 8 ... ...
ROW F1 : ... .. D ... ... ... : ... .. 0 ... ... ... : ... .. . ... : ... .. 3 ... : ... .. . ... ... : ... .. . ... ... : ... .. . ... ... : ... .. 5 ... ...
ROW F2 : ... .. A ... ... ... : D-3 00 3 P80 ... ... : --- .. . ... : ... .. 1 ... : ... .. . ... ... : ... .. . ... ... : ... .. . ... ... : ... .. . ... ...
ROW F3 : ... .. 2 ... ... ... : ... .. 4 ... ... ... : ... .. . ... : ... .. . ... : ... .. . ... ... : ... .. . ... ... : ... .. . ... ... : ... .. 2 ... ...
ROW F4 : D-2 00 F ... ... ... : G-3 00 8 ... ... ... : D-4 00 . ... : 1-# 00 D ... : ... .. . ... ... : A-3 01 7 ... ... : D-3 01 7 P81 ... : D-1 01 A ... ...
ROW F5 : ... .. E ... ... ... : ... .. 3 ... ... ... : ... .. . ... : ... .. . ... : ... .. . ... ... : ... .. 6 ... ... : ... .. 6 ... ... : ... .. 8 ... ...
ROW F6 : ... .. D ... ... ... : ... .. 0 ... ... ... : ... .. . ... : D-# 00 D ... : ... .. . ... ... : ... .. . ... ... : ... .. . ... ... : ... .. 5 ... ...
ROW F7 : ... .. A ... ... ... : G-3 00 3 P80 ... ... : ... .. . ... : B-# 00 6 ... : ... .. . ... ... : --- .. . ... ... : --- .. . P83 ... : ... .. . ... ...
ROW F8 : ... .. 2 ... ... ... : ... .. 4 ... ... ... : --- .. . ... : 7-# 00 1 ... : ... .. . ... ... : ... .. . ... ... : ... .. . ... ... : ... .. 2 ... ...
ROW F9 : ... .. F ... ... ... : A-3 00 8 ... ... ... : D-4 00 . ... : D-# 00 8 ... : ... .. . ... ... : A-3 01 7 ... ... : D-3 01 7 P81 ... : ... .. A ... ...
ROW FA : ... .. E ... ... ... : ... .. 3 ... ... ... : ... .. . ... : ... .. 6 ... : ... .. . ... ... : ... .. 6 ... ... : ... .. 6 ... ... : ... .. 8 ... ...
ROW FB : ... .. D ... ... ... : ... .. 0 ... ... ... : ... .. . ... : ... .. 3 ... : ... .. . ... ... : ... .. . ... ... : ... .. . ... ... : ... .. 5 ... ...
ROW FC : ... .. A ... ... ... : A-3 00 3 P80 ... ... : ... .. . ... : ... .. 1 ... : ... .. . ... ... : --- .. . ... ... : --- .. . P83 ... : ... .. . ... ...
ROW FD : ... .. 2 ... ... ... : ... .. 4 ... ... ... : --- .. . ... : ... .. . ... : ... .. . ... ... : ... .. . ... ... : ... .. . ... ... : ... .. 2 ... ...
ROW FE : D-1 00 F ... ... ... : D-4 00 8 ... ... ... : D-3 00 . ... : ... .. A ... : ... .. . ... ... : A-3 01 7 ... ... : D-3 01 7 P81 ... : D-0 01 A ... ...
ROW FF : ... .. E ... ... ... : ... .. 3 ... ... ... : ... .. . ... : ... .. 8 ... : ... .. . ... ... : ... .. 6 ... ... : ... .. 6 ... ... : ... .. 8 ... ...

PATTERN 16
ROW 00 : ... .. D ... ... ... : ... .. 0 ... ... ... : ... .. . ... : ... .. 4 ... : ... .. . ... ... : ... .. . ... ... : ... .. . ... ... : ... .. 5 ... ...
ROW 01 : ... .. A ... ... ... : D-4 00 3 P80 ... ... : ... .. . ... : ... .. 2 ... : ... .. . ... ... : ... .. . ... ... : ... .. . ... ... : ... .. . ... ...
ROW 02 : ... .. 2 ... ... ... : ... .. 4 ... ... ... : --- .. . ... : ... .. 1 ... : ... .. . ... ... : ... .. 5 ... ... : ... .. 5 ... ... : ... .. 2 ... ...
ROW 03 : ... .. F ... ... ... : A-3 00 8 ... ... ... : D-3 00 . ... : ... .. 8 ... : ... .. . ... ... : ... .. . ... ... : ... .. . ... ... : ... .. A ... ...
ROW 04 : ... .. E ... ... ... : ... .. 3 ... ... ... : ... .. . ... : ... .. 6 ... : ... .. . ... ... : ... .. . ... ... : ... .. . ... ... : ... .. 8 ... ...
ROW 05 : ... .. D ... ... ... : ... .. 0 ... ... ... : ... .. . ... : ... .. 3 ... : ... .. . ... ... : ... .. 4 ... ... : ... .. 4 ... ... : ... .. 5 ... ...
ROW 06 : ... .. A ... ... ... : A-3 00 3 P80 ... ... : ... .. . ... : ... .. 1 ... : ... .. . ... ... : ... .. . ... ... : ... .. . ... ... : ... .. . ... ...
ROW 07 : ... .. 2 ... ... ... : ... .. 4 ... ... ... : --- .. . ... : ... .. . ... : ... .. . ... ... : ... .. . ... ... : ... .. . ... ... : ... .. 2 ... ...
ROW 08 : D-3 00 8 ... ... ... : D-4 00 8 ... ... ... : D-3 00 . ... : 9-# 00 8 ... : ... .. . ... ... : --- .. . ... ... : --- .. . P83 ... : F-1 01 A ... ...
ROW 09 : ... .. 7 ... ... ... : ... .. 3 ... ... ... : ... .. . ... : ... .. . ... : ... .. . ... ... : ... .. . ... ... : ... .. . ... ... : ... .. 8 ... ...
ROW 0A : ... .. 6 ... ... ... : ... .. 0 ... ... ... : ... .. . ... : 5-# 00 8 ... : ... .. . ... ... : ... .. . ... ... : ... .. . ... ... : ... .. 5 ... ...
ROW 0B : ... .. 5 ... ... ... : D-4 00 3 P80 ... ... : ... .. . ... : 3-# 00 4 ... : ... .. . ... ... : ... .. . ... ... : ... .. . ... ... : ... .. . ... ...
ROW 0C : ... .. . ... ... ... : ... .. 4 ... ... ... : ... .. . ... : F-# 00 1 ... : ... .. . ... ... : ... .. . ... ... : ... .. . ... ... : ... .. 2 ... ...
ROW 0D : G-3 00 9 ... ... ... : A-3 00 8 ... ... ... : ... .. . ... : 9-# 00 8 ... : ... .. . ... ... : ... .. . ... ... : ... .. . ... ... : ... .. A ... ...
ROW 0E : ... .. 8 ... ... ... : ... .. 3 ... ... ... : ... .. . ... : ... .. . ... : ... .. . ... ... : ... .. . ... ... : ... .. . ... ... : ... .. 8 ... ...
ROW 0F : ... .. 7 ... ... ... : ... .. 0 ... ... ... : ... .. . ... : 5-# 00 8 ... : ... .. . ... ... : ... .. . ... ... : ... .. . ... ... : ... .. 5 ... ...
ROW 10 : ... .. 6 ... ... ... : A-3 00 3 P80 ... ... : --- .. . ... : 3-# 00 4 ... : ... .. . ... ... : ... .. . ... ... : ... .. . ... ... : ... .. . ... ...
ROW 11 : ... .. . ... ... ... : ... .. 4 ... ... ... : ... .. . ... : F-# 00 1 ... : ... .. . ... ... : ... .. . ... ... : ... .. . ... ... : ... .. 2 ... ...
ROW 12 : A-3 00 A ... ... ... : G-3 00 8 ... ... ... : D-3 00 . ... : 4-# 00 9 ... : ... .. . ... ... : D-3 01 7 ... ... : G-2 01 7 P81 ... : D-0 01 A ... ...
ROW 13 : ... .. 9 ... ... ... : ... .. 3 ... ... ... : ... .. . ... : ... .. . ... : ... .. . ... ... : ... .. 6 ... ... : ... .. 6 ... ... : ... .. 8 ... ...
ROW 14 : ... .. 8 ... ... ... : ... .. 0 ... ... ... : ... .. . ... : 0-# 00 9 ... : ... .. . ... ... : ... .. . ... ... : ... .. . ... ... : ... .. 5 ... ...
ROW 15 : ... .. 6 ... ... ... : G-3 00 3 P80 ... ... : ... .. . ... : E-# 00 4 ... : ... .. . ... ... : --- .. . P81 ... : --- .. . P7F ... : ... .. . ... ...
ROW 16 : ... .. . ... ... ... : ... .. 4 ... ... ... : ... .. . ... : A-# 00 1 ... : ... .. . ... ... : ... .. . ... ... : ... .. . ... ... : ... .. 2 ... ...
ROW 17 : D-4 00 B ... ... ... : A-3 00 8 ... ... ... : ... .. . ... : 4-# 00 A ... : ... .. . ... ... : D-3 01 7 P7F ... : G-2 01 7 P81 ... : ... .. A ... ...
ROW 18 : ... .. A ... ... ... : ... .. 3 ... ... ... : ... .. . ... : ... .. . ... : ... .. . ... ... : ... .. 6 ... ... : ... .. 6 ... ... : ... .. 8 ... ...
ROW 19 : ... .. 9 ... ... ... : ... .. 0 ... ... ... : ... .. . ... : 0-# 00 A ... : ... .. . ... ... : ... .. . ... ... : ... .. . ... ... : ... .. 5 ... ...
ROW 1A : ... .. 8 ... ... ... : A-3 00 3 P80 ... ... : --- .. . ... : E-# 00 4 ... : ... .. . ... ... : --- .. . P81 ... : --- .. . P7F ... : ... .. . ... ...
ROW 1B : ... .. . ... ... ... : ... .. 4 ... ... ... : ... .. . ... : A-# 00 1 ... : ... .. . ... ... : ... .. . ... ... : ... .. . ... ... : ... .. 2 ... ...
ROW 1C : G-4 00 C ... ... ... : D-4 00 8 ... ... ... : D-4 00 . ... : 6-# 00 A ... : ... .. . ... ... : A-3 01 7 P7F ... : D-3 01 7 P81 ... : E-1 01 A ... ...
ROW 1D : ... .. B ... ... ... : ... .. 3 ... ... ... : ... .. . ... : ... .. . ... : ... .. . ... ... : ... .. 6 ... ... : ... .. 6 ... ... : ... .. 8 ... ...
ROW 1E : ... .. A ... ... ... : ... .. 0 ... ... ... : ... .. . ... : 2-# 00 A ... : ... .. . ... ... : ... .. . ... ... : ... .. . ... ... : ... .. 5 ... ...
ROW 1F : ... .. 8 ... ... ... : D-4 00 3 P80 ... ... : ... .. . ... : 0-# 00 5 ... : ... .. . ... ... : ... .. . ... ... : ... .. . ... ... : ... .. . ... ...
ROW 20 : ... .. . ... ... ... : ... .. 4 ... ... ... : --- .. . ... : C-# 00 1 ... : ... .. . ... ... : ... .. 5 ... ... : ... .. 5 ... ... : ... .. 2 ... ...
ROW 21 : A-4 00 D ... ... ... : G-4 00 8 ... ... ... : D-4 00 . ... : 6-# 00 B ... : ... .. . ... ... : --- .. . ... ... : --- .. . P83 ... : ... .. A ... ...
ROW 22 : ... .. C ... ... ... : ... .. 3 ... ... ... : ... .. . ... : ... .. . ... : ... .. . ... ... : ... .. . ... ... : ... .. . ... ... : ... .. 8 ... ...
ROW 23 : ... .. B ... ... ... : ... .. 0 ... ... ... : ... .. . ... : 2-# 00 B ... : ... .. . ... ... : ... .. . ... ... : ... .. . ... ... : ... .. 5 ... ...
ROW 24 : ... .. 9 ... ... ... : G-4 00 3 P80 ... ... : ... .. . ... : 0-# 00 5 ... : ... .. . ... ... : ... .. . ... ... : ... .. . ... ... : ... .. . ... ...
ROW 25 : ... .. . ... ... ... : ... .. 4 ... ... ... : --- .. . ... : C-# 00 1 ... : ... .. . ... ... : ... .. . ... ... : ... .. . ... ... : ... .. 2 ... ...
ROW 26 : D-5 00 F ... ... ... : A-4 00 8 ... ... ... : D-3 00 . ... : 1-# 00 C ... : ... .. . ... ... : D-3 01 7 ... ... : G-2 01 7 P81 ... : D-0 01 A ... ...
ROW 27 : ... .. E ... ... ... : ... .. 3 ... ... ... : ... .. . ... : ... .. . ... : ... .. . ... ... : ... .. 6 ... ... : ... .. 6 ... ... : ... .. 8 ... ...
ROW 28 : ... .. D ... ... ... : ... .. 0 ... ... ... : ... .. . ... : D-# 00 C ... : ... .. . ... ... : ... .. . ... ... : ... .. . ... ... : ... .. 5 ... ...
ROW 29 : ... .. A ... ... ... : A-4 00 3 P80 ... ... : ... .. . ... : B-# 00 5 ... : ... .. . ... ... : --- .. . P81 ... : --- .. . P7F ... : ... .. . ... ...
ROW 2A : ... .. . ... ... ... : ... .. 4 ... ... ... : --- .. . ... : 7-# 00 1 ... : ... .. . ... ... : ... .. . ... ... : ... .. . ... ... : ... .. 2 ... ...
ROW 2B : G-4 00 8 ... ... ... : D-5 00 8 ... ... ... : D-3 00 . ... : 1-# 00 D ... : ... .. . ... ... : D-3 01 7 P7F ... : G-2 01 7 P81 ... : ... .. A ... ...
ROW 2C : ... .. 7 ... ... ... : ... .. 3 ... ... ... : ... .. . ... : ... .. . ... : ... .. . ... ... : ... .. 6 ... ... : ... .. 6 ... ... : ... .. 8 ... ...
ROW 2D : ... .. 6 ... ... ... : ... .. 0 ... ... ... : ... .. . ... : D-# 00 D ... : ... .. . ... ... : ... .. . ... ... : ... .. . ... ... : ... .. 5 ... ...
ROW 2E : ... .. 5 ... ... ... : D-5 00 3 P80 ... ... : ... .. . ... : B-# 00 6 ... : ... .. . ... ... : --- .. . P81 ... : --- .. . P7F ... : ... .. . ... ...
ROW 2F : ... .. . ... ... ... : ... .. 4 ... ... ... : --- .. . ... : 7-# 00 1 ... : ... .. . ... ... : ... .. . ... ... : ... .. . ... ... : ... .. 2 ... ...
ROW 30 : C-3 00 F ... ... ... : C-5 00 8 ... ... ... : D-2 00 . ... : 1-# 00 F ... : ... .. . ... ... : A-3 01 7 P7F ... : D-3 01 7 P81 ... : C-2 01 A ... ...
ROW 31 : ... .. E ... ... ... : ... .. 3 ... ... ... : ... .. . ... : ... .. C ... : ... .. . ... ... : ... .. 6 ... ... : ... .. 6 ... ... : ... .. 8 ... ...
ROW 32 : ... .. D ... ... ... : ... .. 0 ... ... ... : ... .. . ... : ... .. 6 ... : ... .. . ... ... : ... .. . ... ... : ... .. . ... ... : ... .. 5 ... ...
ROW 33 : ... .. A ... ... ... : C-5 00 3 P80 ... ... : ... .. . ... : ... .. 3 ... : ... .. . ... ... : ... .. . ... ... : ... .. . ... ... : ... .. . ... ...
ROW 34 : ... .. . ... ... ... : ... .. 4 ... ... ... : ... .. . ... : ... .. 2 ... : ... .. . ... ... : ... .. 5 ... ... : ... .. 5 ... ... : ... .. . ... ...
ROW 35 : ... .. . ... ... ... : G-4 00 8 ... ... ... : ... .. . ... : D-# 00 8 ... : ... .. . ... ... : ... .. . ... ... : ... .. . ... ... : ... .. . ... ...
ROW 36 : ... .. . ... ... ... : ... .. 3 ... ... ... : ... .. . ... : ... .. 6 ... : ... .. . ... ... : ... .. . ... ... : ... .. . ... ... : ... .. . ... ...
ROW 37 : ... .. . ... ... ... : ... .. 0 ... ... ... : ... .. . ... : ... .. 3 ... : ... .. . ... ... : ... .. 4 ... ... : ... .. 4 ... ... : ... .. . ... ...
ROW 38 : ... .. . ... ... ... : G-4 00 3 P80 ... ... : --- .. . ... : ... .. 1 ... : ... .. . ... ... : ... .. . ... ... : ... .. . ... ... : ... .. . ... ...
ROW 39 : ... .. . ... ... ... : ... .. 4 ... ... ... : ... .. . ... : ... .. . ... : ... .. . ... ... : ... .. . ... ... : ... .. . ... ... : ... .. . ... ...
ROW 3A : ... .. . ... ... ... : F-4 00 8 ... ... ... : D-2 00 . ... : ... .. A ... : ... .. . ... ... : --- .. . ... ... : --- .. . P83 ... : ... .. . ... ...
ROW 3B : ... .. . ... ... ... : ... .. 3 ... ... ... : ... .. . ... : ... .. 8 ... : ... .. . ... ... : ... .. . ... ... : ... .. . ... ... : ... .. . ... ...
ROW 3C : ... .. . ... ... ... : ... .. 0 ... ... ... : ... .. . ... : ... .. 4 ... : ... .. . ... ... : ... .. . ... ... : ... .. . ... ... : ... .. . ... ...
ROW 3D : ... .. . ... ... ... : F-4 00 3 P80 ... ... : ... .. . ... : ... .. 2 ... : ... .. . ... ... : ... .. . ... ... : ... .. . ... ... : ... .. . ... ...
ROW 3E : ... .. . ... ... ... : ... .. 4 ... ... ... : ... .. . ... : ... .. 1 ... : ... .. . ... ... : ... .. . ... ... : ... .. . ... ... : ... .. . ... ...
ROW 3F : ... .. . ... ... ... : C-4 00 8 ... ... ... : ... .. . ... : ... .. 8 ... : ... .. . ... ... : ... .. . ... ... : ... .. . ... ... : ... .. . ... ...
ROW 40 : ... .. . ... ... ... : ... .. 3 ... ... ... : ... .. . ... : ... .. 6 ... : ... .. . ... ... : ... .. . ... ... : ... .. . ... ... : ... .. . ... ...
ROW 41 : ... .. . ... ... ... : ... .. 0 ... ... ... : ... .. . ... : ... .. 3 ... : ... .. . ... ... : ... .. . ... ... : ... .. . ... ... : ... .. . ... ...
ROW 42 : ... .. . ... ... ... : C-4 00 3 P80 ... ... : --- .. . ... : ... .. 1 ... : ... .. . ... ... : ... .. . ... ... : ... .. . ... ... : ... .. . ... ...
ROW 43 : ... .. . ... ... ... : ... .. 4 ... ... ... : ... .. . ... : ... .. . ... : ... .. . ... ... : ... .. . ... ... : ... .. . ... ... : ... .. . ... ...
ROW 44 : ... .. . ... ... ... : A-3 00 8 ... ... ... : C-4 00 . ... : 1-# 00 D ... : ... .. . ... ... : A-3 01 7 ... ... : D-3 01 7 P81 ... : ... .. . ... ...
ROW 45 : ... .. . ... ... ... : ... .. 3 ... ... ... : ... .. . ... : ... .. . ... : ... .. . ... ... : ... .. 6 ... ... : ... .. 6 ... ... : ... .. . ... ...
ROW 46 : ... .. . ... ... ... : ... .. 0 ... ... ... : ... .. . ... : D-# 00 D ... : ... .. . ... ... : ... .. . ... ... : ... .. . ... ... : ... .. . ... ...
ROW 47 : ... .. . ... ... ... : A-3 00 3 P80 ... ... : ... .. . ... : B-# 00 6 ... : ... .. . ... ... : --- .. . ... ... : --- .. . P83 ... : ... .. . ... ...
ROW 48 : ... .. . ... ... ... : ... .. 4 ... ... ... : --- .. . ... : 7-# 00 1 ... : ... .. . ... ... : ... .. . ... ... : ... .. . ... ... : ... .. . ... ...
ROW 49 : ... .. . ... ... ... : G-3 00 8 ... ... ... : C-4 00 . ... : D-# 00 8 ... : ... .. . ... ... : A-3 01 7 ... ... : D-3 01 7 P81 ... : ... .. . ... ...
ROW 4A : ... .. . ... ... ... : ... .. 3 ... ... ... : ... .. . ... : ... .. 6 ... : ... .. . ... ... : ... .. 6 ... ... : ... .. 6 ... ... : ... .. . ... ...
ROW 4B : ... .. . ... ... ... : ... .. 0 ... ... ... : ... .. . ... : ... .. 3 ... : ... .. . ... ... : ... .. . ... ... : ... .. . ... ... : ... .. . ... ...
ROW 4C : ... .. . ... ... ... : G-3 00 3 P80 ... ... : ... .. . ... : ... .. 1 ... : ... .. . ... ... : --- .. . ... ... : --- .. . P83 ... : ... .. . ... ...
ROW 4D : ... .. . ... ... ... : ... .. 4 ... ... ... : --- .. . ... : ... .. . ... : ... .. . ... ... : ... .. . ... ... : ... .. . ... ... : ... .. . ... ...
ROW 4E : ... .. . ... ... ... : F-3 00 8 ... ... ... : D-3 00 . ... : ... .. A ... : ... .. . ... ... : A-3 01 7 ... ... : D-3 01 7 P81 ... : ... .. . ... ...
ROW 4F : ... .. . ... ... ... : ... .. 3 ... ... ... : ... .. . ... : ... .. 8 ... : ... .. . ... ... : ... .. 6 ... ... : ... .. 6 ... ... : ... .. . ... ...
ROW 50 : ... .. . ... ... ... : ... .. 0 ... ... ... : ... .. . ... : ... .. 4 ... : ... .. . ... ... : ... .. . ... ... : ... .. . ... ... : ... .. . ... ...
ROW 51 : ... .. . ... ... ... : F-3 00 3 P80 ... ... : ... .. . ... : ... .. 2 ... : ... .. . ... ... : ... .. . ... ... : ... .. . ... ... : ... .. . ... ...
ROW 52 : ... .. . ... ... ... : ... .. 4 ... ... ... : --- .. . ... : ... .. 1 ... : ... .. . ... ... : ... .. 5 ... ... : ... .. 5 ... ... : ... .. . ... ...
ROW 53 : ... .. . ... ... ... : C-3 00 8 ... ... ... : D-3 00 . ... : ... .. 8 ... : ... .. . ... ... : ... .. . ... ... : ... .. . ... ... : ... .. . ... ...
ROW 54 : ... .. 2 ... ... ... : ... .. 3 ... ... ... : ... .. . ... : ... .. 6 ... : ... .. . ... ... : ... .. . ... ... : ... .. . ... ... : ... .. 2 ... ...
ROW 55 : ... .. . ... ... ... : ... .. 0 ... ... ... : ... .. . ... : ... .. 3 ... : ... .. . ... ... : ... .. 4 ... ... : ... .. 4 ... ... : ... .. . ... ...
ROW 56 : ... .. . ... ... ... : C-3 00 3 P80 ... ... : ... .. . ... : ... .. 1 ... : ... .. . ... ... : ... .. . ... ... : ... .. . ... ... : ... .. 1 ... ...
ROW 57 : ... .. 1 ... ... ... : ... .. 4 ... ... ... : --- .. . ... : ... .. . ... : ... .. . ... ... : ... .. . ... ... : ... .. . ... ... : ... .. . ... ...
ROW 58 : G-3 00 F ... ... ... : C-5 00 8 ... ... ... : D-3 00 . ... : 1-# 00 F ... : ... .. . ... ... : --- .. . ... ... : --- .. . P83 ... : A-2 01 A ... ...
ROW 59 : G#3 00 E P79 ... ... : ... .. 3 ... ... ... : ... .. . ... : ... .. C ... : ... .. . ... ... : ... .. . ... ... : ... .. . ... ... : ... .. 8 ... ...
ROW 5A : ... .. D P82 ... ... : ... .. 0 ... ... ... : ... .. . ... : ... .. 6 ... : ... .. . ... ... : ... .. . ... ... : ... .. . ... ... : ... .. 5 ... ...
ROW 5B : A-3 00 A P7C ... ... : C-5 00 3 P80 ... ... : ... .. . ... : ... .. 3 ... : ... .. . ... ... : ... .. . ... ... : ... .. . ... ... : ... .. . ... ...
ROW 5C : ... .. . P80 ... ... : ... .. 4 ... ... ... : ... .. . ... : ... .. 2 ... : ... .. . ... ... : ... .. . ... ... : ... .. . ... ... : ... .. . ... ...
ROW 5D : ... .. . ... ... ... : G-4 00 8 ... ... ... : ... .. . ... : D-# 00 8 ... : ... .. . ... ... : ... .. . ... ... : ... .. . ... ... : ... .. . ... ...
ROW 5E : ... .. . ... ... ... : ... .. 3 ... ... ... : ... .. . ... : ... .. 6 ... : ... .. . ... ... : ... .. . ... ... : ... .. . ... ... : ... .. . ... ...
ROW 5F : ... .. . ... ... ... : ... .. 0 ... ... ... : ... .. . ... : ... .. 3 ... : ... .. . ... ... : ... .. . ... ... : ... .. . ... ... : ... .. . ... ...
ROW 60 : ... .. . ... ... ... : G-4 00 3 P80 ... ... : --- .. . ... : ... .. 1 ... : ... .. . ... ... : ... .. . ... ... : ... .. . ... ... : ... .. . ... ...
ROW 61 : ... .. . ... ... ... : ... .. 4 ... ... ... : ... .. . ... : ... .. . ... : ... .. . ... ... : ... .. . ... ... : ... .. . ... ... : ... .. . ... ...
ROW 62 : ... .. . ... ... ... : F-4 00 8 ... ... ... : D-3 00 . ... : ... .. A ... : ... .. . ... ... : A-3 01 7 ... ... : D-3 01 7 P81 ... : ... .. . ... ...
ROW 63 : ... .. . ... ... ... : ... .. 3 ... ... ... : ... .. . ... : ... .. 8 ... : ... .. . ... ... : ... .. 6 ... ... : ... .. 6 ... ... : ... .. . ... ...
ROW 64 : ... .. . ... ... ... : ... .. 0 ... ... ... : ... .. . ... : ... .. 4 ... : ... .. . ... ... : ... .. . ... ... : ... .. . ... ... : ... .. . ... ...
ROW 65 : ... .. . ... ... ... : F-4 00 3 P80 ... ... : ... .. . ... : ... .. 2 ... : ... .. . ... ... : --- .. . ... ... : --- .. . P83 ... : ... .. . ... ...
ROW 66 : ... .. . ... ... ... : ... .. 4 ... ... ... : ... .. . ... : ... .. 1 ... : ... .. . ... ... : ... .. . ... ... : ... .. . ... ... : ... .. . ... ...
ROW 67 : ... .. . ... ... ... : C-4 00 8 ... ... ... : ... .. . ... : ... .. 8 ... : ... .. . ... ... : A-3 01 7 ... ... : D-3 01 7 P81 ... : ... .. . ... ...
ROW 68 : ... .. . ... ... ... : ... .. 3 ... ... ... : ... .. . ... : ... .. 6 ... : ... .. . ... ... : ... .. 6 ... ... : ... .. 6 ... ... : ... .. . ... ...
ROW 69 : ... .. . ... ... ... : ... .. 0 ... ... ... : ... .. . ... : ... .. 3 ... : ... .. . ... ... : ... .. . ... ... : ... .. . ... ... : ... .. . ... ...
ROW 6A : ... .. . ... ... ... : C-4 00 3 P80 ... ... : --- .. . ... : ... .. 1 ... : ... .. . ... ... : --- .. . ... ... : --- .. . P83 ... : ... .. . ... ...
ROW 6B : ... .. . ... ... ... : ... .. 4 ... ... ... : ... .. . ... : ... .. . ... : ... .. . ... ... : ... .. . ... ... : ... .. . ... ... : ... .. . ... ...
ROW 6C : ... .. . ... ... ... : A-3 00 8 ... ... ... : C-4 00 . ... : 1-# 00 D ... : ... .. . ... ... : A-3 01 7 ... ... : D-3 01 7 P81 ... : ... .. . ... ...
ROW 6D : ... .. . ... ... ... : ... .. 3 ... ... ... : ... .. . ... : ... .. . ... : ... .. . ... ... : ... .. 6 ... ... : ... .. 6 ... ... : ... .. . ... ...
ROW 6E : ... .. . ... ... ... : ... .. 0 ... ... ... : ... .. . ... : D-# 00 D ... : ... .. . ... ... : ... .. . ... ... : ... .. . ... ... : ... .. . ... ...
ROW 6F : ... .. . ... ... ... : A-3 00 3 P80 ... ... : ... .. . ... : B-# 00 6 ... : ... .. . ... ... : ... .. . ... ... : ... .. . ... ... : ... .. . ... ...
ROW 70 : ... .. . ... ... ... : ... .. 4 ... ... ... : --- .. . ... : 7-# 00 1 ... : ... .. . ... ... : ... .. 5 ... ... : ... .. 5 ... ... : ... .. . ... ...
ROW 71 : ... .. . ... ... ... : G-3 00 8 ... ... ... : C-4 00 . ... : D-# 00 8 ... : ... .. . ... ... : --- .. . ... ... : --- .. . P83 ... : ... .. . ... ...
ROW 72 : ... .. . ... ... ... : ... .. 3 ... ... ... : ... .. . ... : ... .. 6 ... : ... .. . ... ... : ... .. . ... ... : ... .. . ... ... : ... .. . ... ...
ROW 73 : ... .. . ... ... ... : ... .. 0 ... ... ... : ... .. . ... : ... .. 3 ... : ... .. . ... ... : ... .. . ... ... : ... .. . ... ... : ... .. . ... ...
ROW 74 : ... .. . ... ... ... : G-3 00 3 P80 ... ... : ... .. . ... : ... .. 1 ... : ... .. . ... ... : ... .. . ... ... : ... .. . ... ... : ... .. . ... ...
ROW 75 : ... .. . ... ... ... : ... .. 4 ... ... ... : --- .. . ... : ... .. . ... : ... .. . ... ... : ... .. . ... ... : ... .. . ... ... : ... .. . ... ...
ROW 76 : ... .. . ... ... ... : F-3 00 8 ... ... ... : C-3 00 . ... : ... .. A ... : ... .. . ... ... : D-3 01 7 ... ... : G-2 01 7 P81 ... : ... .. . ... ...
ROW 77 : ... .. . ... ... ... : ... .. 3 ... ... ... : ... .. . ... : ... .. 8 ... : ... .. . ... ... : ... .. 6 ... ... : ... .. 6 ... ... : ... .. . ... ...
ROW 78 : ... .. . ... ... ... : ... .. 0 ... ... ... : ... .. . ... : ... .. 4 ... : ... .. . ... ... : ... .. . ... ... : ... .. . ... ... : ... .. . ... ...
ROW 79 : ... .. . ... ... ... : F-3 00 3 P80 ... ... : ... .. . ... : ... .. 2 ... : ... .. . ... ... : ... .. . ... ... : ... .. . ... ... : ... .. . ... ...
ROW 7A : ... .. . ... ... ... : ... .. 4 ... ... ... : --- .. . ... : ... .. 1 ... : ... .. . ... ... : ... .. 5 ... ... : ... .. 5 ... ... : ... .. . ... ...
ROW 7B : ... .. . ... ... ... : C-3 00 8 ... ... ... : C-3 00 . ... : ... .. 8 ... : ... .. . ... ... : --- .. . P81 ... : --- .. . P7F ... : ... .. . ... ...
ROW 7C : ... .. 2 ... ... ... : ... .. 3 ... ... ... : ... .. . ... : ... .. 6 ... : ... .. . ... ... : ... .. . ... ... : ... .. . ... ... : ... .. 2 ... ...
ROW 7D : ... .. . ... ... ... : ... .. 0 ... ... ... : ... .. . ... : ... .. 3 ... : ... .. . ... ... : ... .. . ... ... : ... .. . ... ... : ... .. . ... ...
ROW 7E : ... .. . ... ... ... : C-3 00 3 P80 ... ... : ... .. . ... : ... .. 1 ... : ... .. . ... ... : ... .. . ... ... : ... .. . ... ... : ... .. 1 ... ...
ROW 7F : ... .. 1 ... ... ... : ... .. 4 ... ... ... : --- .. . ... : ... .. . ... : ... .. . ... ... : ... .. . ... ... : ... .. . ... ... : ... .. . ... ...
ROW 80 : G-3 00 F ... ... ... : B-4 00 8 ... ... ... : B-2 00 . ... : 1-# 00 F ... : ... .. . ... ... : A-3 01 7 P7F ... : D-3 01 7 P81 ... : G-2 01 A ... ...
ROW 81 : ... .. E ... ... ... : ... .. 3 ... ... ... : ... .. . ... : ... .. C ... : ... .. . ... ... : ... .. 6 ... ... : ... .. 6 ... ... : ... .. 8 ... ...
ROW 82 : ... .. D ... ... ... : ... .. 0 ... ... ... : ... .. . ... : ... .. 6 ... : ... .. . ... ... : ... .. . ... ... : ... .. . ... ... : ... .. 5 ... ...
ROW 83 : ... .. A ... ... ... : B-4 00 3 P80 ... ... : ... .. . ... : ... .. 3 ... : ... .. . ... ... : ... .. . ... ... : ... .. . ... ... : ... .. . ... ...
ROW 84 : ... .. . ... ... ... : ... .. 4 ... ... ... : ... .. . ... : ... .. 2 ... : ... .. . ... ... : ... .. 5 ... ... : ... .. 5 ... ... : ... .. . ... ...
ROW 85 : ... .. . ... ... ... : G-4 00 8 ... ... ... : ... .. . ... : D-# 00 8 ... : ... .. . ... ... : ... .. . ... ... : ... .. . ... ... : ... .. . ... ...
ROW 86 : ... .. 2 ... ... ... : ... .. 3 ... ... ... : ... .. . ... : ... .. 6 ... : ... .. . ... ... : ... .. . ... ... : ... .. . ... ... : ... .. 2 ... ...
ROW 87 : ... .. . ... ... ... : ... .. 0 ... ... ... : ... .. . ... : ... .. 3 ... : ... .. . ... ... : ... .. 4 ... ... : ... .. 4 ... ... : ... .. . ... ...
ROW 88 : ... .. . ... ... ... : G-4 00 3 P80 ... ... : --- .. . ... : ... .. 1 ... : ... .. . ... ... : ... .. . ... ... : ... .. . ... ... : ... .. 1 ... ...
ROW 89 : ... .. 1 ... ... ... : ... .. 4 ... ... ... : ... .. . ... : ... .. . ... : ... .. . ... ... : ... .. . ... ... : ... .. . ... ... : ... .. . ... ...
ROW 8A : ... .. F ... ... ... : D-4 00 8 ... ... ... : B-2 00 . ... : ... .. A ... : ... .. . ... ... : --- .. . ... ... : --- .. . P83 ... : ... .. A ... ...
ROW 8B : ... .. E ... ... ... : ... .. 3 ... ... ... : ... .. . ... : ... .. 8 ... : ... .. . ... ... : ... .. . ... ... : ... .. . ... ... : ... .. 8 ... ...
ROW 8C : ... .. D ... ... ... : ... .. 0 ... ... ... : ... .. . ... : ... .. 4 ... : ... .. . ... ... : ... .. . ... ... : ... .. . ... ... : ... .. 5 ... ...
ROW 8D : ... .. A ... ... ... : D-4 00 3 P80 ... ... : ... .. . ... : ... .. 2 ... : ... .. . ... ... : ... .. . ... ... : ... .. . ... ... : ... .. . ... ...
ROW 8E : ... .. 2 ... ... ... : ... .. 4 ... ... ... : ... .. . ... : ... .. 1 ... : ... .. . ... ... : ... .. . ... ... : ... .. . ... ... : ... .. 2 ... ...
ROW 8F : A-3 00 F ... ... ... : B-3 00 8 ... ... ... : ... .. . ... : ... .. 8 ... : ... .. . ... ... : ... .. . ... ... : ... .. . ... ... : A-2 01 A ... ...
ROW 90 : ... .. E ... ... ... : ... .. 3 ... ... ... : ... .. . ... : ... .. 6 ... : ... .. . ... ... : ... .. . ... ... : ... .. . ... ... : ... .. 8 ... ...
ROW 91 : ... .. D ... ... ... : ... .. 0 ... ... ... : ... .. . ... : ... .. 3 ... : ... .. . ... ... : ... .. . ... ... : ... .. . ... ... : ... .. 5 ... ...
ROW 92 : ... .. A ... ... ... : B-3 00 3 P80 ... ... : --- .. . ... : ... .. 1 ... : ... .. . ... ... : ... .. . ... ... : ... .. . ... ... : ... .. . ... ...
ROW 93 : ... .. 2 ... ... ... : ... .. 4 ... ... ... : ... .. . ... : ... .. . ... : ... .. . ... ... : ... .. . ... ... : ... .. . ... ... : ... .. 2 ... ...
ROW 94 : B-3 00 F ... ... ... : G-3 00 8 ... ... ... : G-4 00 . ... : 1-# 00 D ... : ... .. . ... ... : A-3 01 7 ... ... : D-3 01 7 P81 ... : B-2 01 A ... ...
ROW 95 : ... .. E ... ... ... : ... .. 3 ... ... ... : ... .. . ... : ... .. . ... : ... .. . ... ... : ... .. 6 ... ... : ... .. 6 ... ... : ... .. 8 ... ...
ROW 96 : ... .. D ... ... ... : ... .. 0 ... ... ... : ... .. . ... : D-# 00 D ... : ... .. . ... ... : ... .. . ... ... : ... .. . ... ... : ... .. 5 ... ...
ROW 97 : ... .. A ... ... ... : G-3 00 3 P80 ... ... : ... .. . ... : B-# 00 6 ... : ... .. . ... ... : --- .. . ... ... : --- .. . P83 ... : ... .. . ... ...
ROW 98 : ... .. . ... ... ... : ... .. 4 ... ... ... : --- .. . ... : 7-# 00 1 ... : ... .. . ... ... : ... .. . ... ... : ... .. . ... ... : ... .. . ... ...
ROW 99 : ... .. . ... ... ... : D-3 00 8 ... ... ... : G-4 00 . ... : D-# 00 8 ... : ... .. . ... ... : A-3 01 7 ... ... : D-3 01 7 P81 ... : ... .. . ... ...
ROW 9A : ... .. . ... ... ... : ... .. 3 ... ... ... : ... .. . ... : ... .. 6 ... : ... .. . ... ... : ... .. 6 ... ... : ... .. 6 ... ... : ... .. . ... ...
ROW 9B : ... .. . ... ... ... : ... .. 0 ... ... ... : ... .. . ... : ... .. 3 ... : ... .. . ... ... : ... .. . ... ... : ... .. . ... ... : ... .. . ... ...
ROW 9C : ... .. . ... ... ... : D-3 00 3 P80 ... ... : ... .. . ... : ... .. 1 ... : ... .. . ... ... : --- .. . ... ... : --- .. . P83 ... : ... .. . ... ...
ROW 9D : ... .. . ... ... ... : ... .. 4 ... ... ... : --- .. . ... : ... .. . ... : ... .. . ... ... : ... .. . ... ... : ... .. . ... ... : ... .. . ... ...
ROW 9E : ... .. . ... ... ... : B-2 00 8 ... ... ... : D-3 00 . ... : ... .. A ... : ... .. . ... ... : A-3 01 7 ... ... : D-3 01 7 P81 ... : ... .. . ... ...
ROW 9F : ... .. . ... ... ... : ... .. 3 ... ... ... : ... .. . ... : ... .. 8 ... : ... .. . ... ... : ... .. 6 ... ... : ... .. 6 ... ... : ... .. . ... ...
ROW A0 : ... .. . ... ... ... : ... .. 0 ... ... ... : ... .. . ... : ... .. 4 ... : ... .. . ... ... : ... .. . ... ... : ... .. . ... ... : ... .. . ... ...
ROW A1 : ... .. . ... ... ... : B-2 00 3 P80 ... ... : ... .. . ... : ... .. 2 ... : ... .. . ... ... : ... .. . ... ... : ... .. . ... ... : ... .. . ... ...
ROW A2 : ... .. . ... ... ... : ... .. 4 ... ... ... : --- .. . ... : ... .. 1 ... : ... .. . ... ... : ... .. 5 ... ... : ... .. 5 ... ... : ... .. . ... ...
ROW A3 : ... .. . ... ... ... : G-2 00 8 ... ... ... : D-3 00 . ... : ... .. 8 ... : ... .. . ... ... : ... .. . ... ... : ... .. . ... ... : ... .. . ... ...
ROW A4 : ... .. . ... ... ... : ... .. 3 ... ... ... : ... .. . ... : ... .. 6 ... : ... .. . ... ... : ... .. . ... ... : ... .. . ... ... : ... .. . ... ...
ROW A5 : ... .. . ... ... ... : ... .. 0 ... ... ... : ... .. . ... : ... .. 3 ... : ... .. . ... ... : ... .. 4 ... ... : ... .. 4 ... ... : ... .. . ... ...
ROW A6 : ... .. . ... ... ... : G-2 00 3 P80 ... ... : ... .. . ... : ... .. 1 ... : ... .. . ... ... : ... .. . ... ... : ... .. . ... ... : ... .. . ... ...
ROW A7 : ... .. . ... ... ... : ... .. 4 ... ... ... : --- .. . ... : ... .. . ... : ... .. . ... ... : ... .. . ... ... : ... .. . ... ... : ... .. . ... ...
ROW A8 : ... .. . P84 ... ... : B-4 00 8 ... ... ... : B-1 00 . ... : 1-# 00 F ... : ... .. . ... ... : --- .. . ... ... : --- .. . P83 ... : ... .. . ... ...
ROW A9 : ... .. . P86 ... ... : ... .. 3 ... ... ... : ... .. . ... : ... .. C ... : ... .. . ... ... : ... .. . ... ... : ... .. . ... ... : ... .. . ... ...
ROW AA : ... .. . P84 ... ... : ... .. 0 ... ... ... : ... .. . ... : ... .. 6 ... : ... .. . ... ... : ... .. . ... ... : ... .. . ... ... : ... .. . ... ...
ROW AB : ... .. . P80 ... ... : B-4 00 3 P80 ... ... : ... .. . ... : ... .. 3 ... : ... .. . ... ... : ... .. . ... ... : ... .. . ... ... : ... .. . ... ...
ROW AC : ... .. . P7C ... ... : ... .. 4 ... ... ... : ... .. . ... : ... .. 2 ... : ... .. . ... ... : ... .. . ... ... : ... .. . ... ... : ... .. . ... ...
ROW AD : ... .. . P7A ... ... : G-4 00 8 ... ... ... : ... .. . ... : D-# 00 8 ... : ... .. . ... ... : ... .. . ... ... : ... .. . ... ... : ... .. . ... ...
ROW AE : ... .. . P7C ... ... : ... .. 3 ... ... ... : ... .. . ... : ... .. 6 ... : ... .. . ... ... : ... .. . ... ... : ... .. . ... ... : ... .. . ... ...
ROW AF : ... .. . P80 ... ... : ... .. 0 ... ... ... : ... .. . ... : ... .. 3 ... : ... .. . ... ... : ... .. . ... ... : ... .. . ... ... : ... .. . ... ...
ROW B0 : ... .. . P84 ... ... : G-4 00 3 P80 ... ... : --- .. . ... : ... .. 1 ... : ... .. . ... ... : ... .. . ... ... : ... .. . ... ... : ... .. . ... ...
ROW B1 : ... .. . P86 ... ... : ... .. 4 ... ... ... : ... .. . ... : ... .. . ... : ... .. . ... ... : ... .. . ... ... : ... .. . ... ... : ... .. . ... ...
ROW B2 : ... .. . P84 ... ... : D-4 00 8 ... ... ... : B-1 00 . ... : ... .. A ... : ... .. . ... ... : D-3 01 7 ... ... : G-2 01 7 P81 ... : ... .. . ... ...
ROW B3 : ... .. . P80 ... ... : ... .. 3 ... ... ... : ... .. . ... : ... .. 8 ... : ... .. . ... ... : ... .. 6 ... ... : ... .. 6 ... ... : ... .. . ... ...
ROW B4 : ... .. . P7C ... ... : ... .. 0 ... ... ... : ... .. . ... : ... .. 4 ... : ... .. . ... ... : ... .. . ... ... : ... .. . ... ... : ... .. . ... ...
ROW B5 : ... .. . P7A ... ... : D-4 00 3 P80 ... ... : ... .. . ... : ... .. 2 ... : ... .. . ... ... : --- .. . P81 ... : --- .. . P7F ... : ... .. . ... ...
ROW B6 : ... .. . P7C ... ... : ... .. 4 ... ... ... : ... .. . ... : ... .. 1 ... : ... .. . ... ... : ... .. . ... ... : ... .. . ... ... : ... .. . ... ...
ROW B7 : ... .. . P80 ... ... : B-3 00 8 ... ... ... : ... .. . ... : ... .. 8 ... : ... .. . ... ... : D-3 01 7 P7F ... : G-2 01 7 P81 ... : ... .. . ... ...
ROW B8 : ... .. 2 P84 ... ... : ... .. 3 ... ... ... : ... .. . ... : ... .. 6 ... : ... .. . ... ... : ... .. 6 ... ... : ... .. 6 ... ... : ... .. 2 ... ...
ROW B9 : ... .. . P86 ... ... : ... .. 0 ... ... ... : ... .. . ... : ... .. 3 ... : ... .. . ... ... : ... .. . ... ... : ... .. . ... ... : ... .. . ... ...
ROW BA : ... .. . P84 ... ... : B-3 00 3 P80 ... ... : --- .. . ... : ... .. 1 ... : ... .. . ... ... : --- .. . P81 ... : --- .. . P7F ... : ... .. 1 ... ...
ROW BB : ... .. 1 P80 ... ... : ... .. 4 ... ... ... : ... .. . ... : ... .. . ... : ... .. . ... ... : ... .. . ... ... : ... .. . ... ... : ... .. . ... ...
ROW BC : G-3 00 F ... ... ... : G-3 00 8 ... ... ... : D-4 00 . ... : 1-# 00 D ... : ... .. . ... ... : A-3 01 7 P7F ... : D-3 01 7 P81 ... : G-2 01 A ... ...
ROW BD : ... .. E ... ... ... : ... .. 3 ... ... ... : ... .. . ... : ... .. . ... : ... .. . ... ... : ... .. 6 ... ... : ... .. 6 ... ... : ... .. 8 ... ...
ROW BE : ... .. D ... ... ... : ... .. 0 ... ... ... : ... .. . ... : D-# 00 D ... : ... .. . ... ... : ... .. . ... ... : ... .. . ... ... : ... .. 5 ... ...
ROW BF : ... .. A ... ... ... : G-3 00 3 P80 ... ... : ... .. . ... : B-# 00 6 ... : ... .. . ... ... : ... .. . ... ... : ... .. . ... ... : ... .. . ... ...
ROW C0 : ... .. . ... ... ... : ... .. 4 ... ... ... : --- .. . ... : 7-# 00 1 ... : ... .. . ... ... : ... .. 5 ... ... : ... .. 5 ... ... : ... .. . ... ...
ROW C1 : ... .. . ... ... ... : D-3 00 8 ... ... ... : D-4 00 . ... : D-# 00 8 ... : ... .. . ... ... : --- .. . ... ... : --- .. . P83 ... : ... .. . ... ...
ROW C2 : ... .. . ... ... ... : ... .. 3 ... ... ... : ... .. . ... : ... .. 6 ... : ... .. . ... ... : ... .. . ... ... : ... .. . ... ... : ... .. . ... ...
ROW C3 : ... .. . ... ... ... : ... .. 0 ... ... ... : ... .. . ... : ... .. 3 ... : ... .. . ... ... : ... .. . ... ... : ... .. . ... ... : ... .. . ... ...
ROW C4 : ... .. . ... ... ... : D-3 00 3 P80 ... ... : ... .. . ... : ... .. 1 ... : ... .. . ... ... : ... .. . ... ... : ... .. . ... ... : ... .. . ... ...
ROW C5 : ... .. . ... ... ... : ... .. 4 ... ... ... : --- .. . ... : ... .. . ... : ... .. . ... ... : ... .. . ... ... : ... .. . ... ... : ... .. . ... ...
ROW C6 : B-3 00 F ... ... ... : B-2 00 8 ... ... ... : D-3 00 . ... : ... .. A ... : ... .. . ... ... : D-3 01 7 ... ... : G-2 01 7 P81 ... : B-2 01 A ... ...
ROW C7 : ... .. E ... ... ... : ... .. 3 ... ... ... : ... .. . ... : ... .. 8 ... : ... .. . ... ... : ... .. 6 ... ... : ... .. 6 ... ... : ... .. 8 ... ...
ROW C8 : ... .. D ... ... ... : ... .. 0 ... ... ... : ... .. . ... : ... .. 4 ... : ... .. . ... ... : ... .. . ... ... : ... .. . ... ... : ... .. 5 ... ...
ROW C9 : ... .. A ... ... ... : B-2 00 3 P80 ... ... : ... .. . ... : ... .. 2 ... : ... .. . ... ... : --- .. . P81 ... : --- .. . P7F ... : ... .. . ... ...
ROW CA : ... .. . ... ... ... : ... .. 4 ... ... ... : --- .. . ... : ... .. 1 ... : ... .. . ... ... : ... .. . ... ... : ... .. . ... ... : ... .. . ... ...
ROW CB : ... .. . ... ... ... : G-2 00 8 ... ... ... : D-3 00 . ... : ... .. 8 ... : ... .. . ... ... : D-3 01 7 P7F ... : G-2 01 7 P81 ... : ... .. . ... ...
ROW CC : ... .. 2 ... ... ... : ... .. 3 ... ... ... : ... .. . ... : ... .. 6 ... : ... .. . ... ... : ... .. 6 ... ... : ... .. 6 ... ... : ... .. 2 ... ...
ROW CD : ... .. . ... ... ... : ... .. 0 ... ... ... : ... .. . ... : ... .. 3 ... : ... .. . ... ... : ... .. . ... ... : ... .. . ... ... : ... .. . ... ...
ROW CE : ... .. . ... ... ... : G-2 00 3 P80 ... ... : ... .. . ... : ... .. 1 ... : ... .. . ... ... : --- .. . P81 ... : --- .. . P7F ... : ... .. 1 ... ...
ROW CF : ... .. 1 ... ... ... : ... .. 4 ... ... ... : --- .. . ... : ... .. . ... : ... .. . ... ... : ... .. . ... ... : ... .. . ... ... : ... .. . ... ...
ROW D0 : A-3 00 F ... ... ... : A#4 00 8 ... ... ... : A#2 00 . ... : 1-# 00 F ... : ... .. . ... ... : A-3 01 7 P7F ... : D-3 01 7 P81 ... : A-2 01 A ... ...
ROW D1 : ... .. E ... ... ... : ... .. 3 ... ... ... : ... .. . ... : ... .. C ... : ... .. . ... ... : ... .. 6 ... ... : ... .. 6 ... ... : ... .. 8 ... ...
ROW D2 : ... .. D ... ... ... : ... .. 0 ... ... ... : ... .. . ... : ... .. 6 ... : ... .. . ... ... : ... .. . ... ... : ... .. . ... ... : ... .. 5 ... ...
ROW D3 : ... .. A ... ... ... : A#4 00 3 P80 ... ... : ... .. . ... : ... .. 3 ... : ... .. . ... ... : ... .. . ... ... : ... .. . ... ... : ... .. . ... ...
ROW D4 : ... .. . ... ... ... : ... .. 4 ... ... ... : ... .. . ... : ... .. 2 ... : ... .. . ... ... : ... .. 5 ... ... : ... .. 5 ... ... : ... .. . ... ...
ROW D5 : ... .. . ... ... ... : F-4 00 8 ... ... ... : ... .. . ... : D-# 00 8 ... : ... .. . ... ... : ... .. . ... ... : ... .. . ... ... : ... .. . ... ...
ROW D6 : ... .. . ... ... ... : ... .. 3 ... ... ... : ... .. . ... : ... .. 6 ... : ... .. . ... ... : ... .. . ... ... : ... .. . ... ... : ... .. . ... ...
ROW D7 : ... .. . ... ... ... : ... .. 0 ... ... ... : ... .. . ... : ... .. 3 ... : ... .. . ... ... : ... .. 4 ... ... : ... .. 4 ... ... : ... .. . ... ...
ROW D8 : ... .. . ... ... ... : F-4 00 3 P80 ... ... : --- .. . ... : ... .. 1 ... : ... .. . ... ... : ... .. . ... ... : ... .. . ... ... : ... .. . ... ...
ROW D9 : ... .. . ... ... ... : ... .. 4 ... ... ... : ... .. . ... : ... .. . ... : ... .. . ... ... : ... .. . ... ... : ... .. . ... ... : ... .. . ... ...
ROW DA : ... .. . ... ... ... : D-4 00 8 ... ... ... : A#2 00 . ... : ... .. A ... : ... .. . ... ... : --- .. . ... ... : --- .. . P83 ... : ... .. . ... ...
ROW DB : ... .. . ... ... ... : ... .. 3 ... ... ... : ... .. . ... : ... .. 8 ... : ... .. . ... ... : ... .. . ... ... : ... .. . ... ... : ... .. . ... ...
ROW DC : ... .. . ... ... ... : ... .. 0 ... ... ... : ... .. . ... : ... .. 4 ... : ... .. . ... ... : ... .. . ... ... : ... .. . ... ... : ... .. . ... ...
ROW DD : ... .. . ... ... ... : D-4 00 3 P80 ... ... : ... .. . ... : ... .. 2 ... : ... .. . ... ... : ... .. . ... ... : ... .. . ... ... : ... .. . ... ...
ROW DE : ... .. . ... ... ... : ... .. 4 ... ... ... : ... .. . ... : ... .. 1 ... : ... .. . ... ... : ... .. . ... ... : ... .. . ... ... : ... .. . ... ...
ROW DF : ... .. . ... ... ... : A#3 00 8 ... ... ... : ... .. . ... : ... .. 8 ... : ... .. . ... ... : ... .. . ... ... : ... .. . ... ... : ... .. . ... ...
ROW E0 : ... .. . ... ... ... : ... .. 3 ... ... ... : ... .. . ... : ... .. 6 ... : ... .. . ... ... : ... .. . ... ... : ... .. . ... ... : ... .. . ... ...
ROW E1 : ... .. . ... ... ... : ... .. 0 ... ... ... : ... .. . ... : ... .. 3 ... : ... .. . ... ... : ... .. . ... ... : ... .. . ... ... : ... .. . ... ...
ROW E2 : ... .. . ... ... ... : A#3 00 3 P80 ... ... : --- .. . ... : ... .. 1 ... : ... .. . ... ... : ... .. . ... ... : ... .. . ... ... : ... .. . ... ...
ROW E3 : ... .. . ... ... ... : ... .. 4 ... ... ... : ... .. . ... : ... .. . ... : ... .. . ... ... : ... .. . ... ... : ... .. . ... ... : ... .. . ... ...
ROW E4 : ... .. . ... ... ... : F-3 00 8 ... ... ... : F-4 00 . ... : 1-# 00 D ... : ... .. . ... ... : A-3 01 7 ... ... : D-3 01 7 P81 ... : ... .. . ... ...
ROW E5 : ... .. 2 ... ... ... : ... .. 3 ... ... ... : ... .. . ... : ... .. . ... : ... .. . ... ... : ... .. 6 ... ... : ... .. 6 ... ... : ... .. 2 ... ...
ROW E6 : ... .. . ... ... ... : ... .. 0 ... ... ... : ... .. . ... : D-# 00 D ... : ... .. . ... ... : ... .. . ... ... : ... .. . ... ... : ... .. . ... ...
ROW E7 : ... .. . ... ... ... : F-3 00 3 P80 ... ... : ... .. . ... : B-# 00 6 ... : ... .. . ... ... : --- .. . ... ... : --- .. . P83 ... : ... .. 1 ... ...
ROW E8 : ... .. 1 ... ... ... : ... .. 4 ... ... ... : --- .. . ... : 7-# 00 1 ... : ... .. . ... ... : ... .. . ... ... : ... .. . ... ... : ... .. . ... ...
ROW E9 : ... .. . ... ... ... : D-3 00 8 ... ... ... : F-4 00 . ... : D-# 00 8 ... : ... .. . ... ... : A-3 01 7 ... ... : D-3 01 7 P81 ... : ... .. . ... ...
ROW EA : ... .. . ... ... ... : ... .. 3 ... ... ... : ... .. . ... : ... .. 6 ... : ... .. . ... ... : ... .. 6 ... ... : ... .. 6 ... ... : ... .. . ... ...
ROW EB : ... .. 0 ... ... ... : ... .. 0 ... ... ... : ... .. . ... : ... .. 3 ... : ... .. . ... ... : ... .. . ... ... : ... .. . ... ... : ... .. . ... ...
ROW EC : ... .. . ... ... ... : D-3 00 3 P80 ... ... : ... .. . ... : ... .. 1 ... : ... .. . ... ... : --- .. . ... ... : --- .. . P83 ... : ... .. . ... ...
ROW ED : ... .. . ... ... ... : ... .. 4 ... ... ... : --- .. . ... : ... .. . ... : ... .. . ... ... : ... .. . ... ... : ... .. . ... ... : ... .. . ... ...
ROW EE : D-3 00 F P80 ... ... : A#2 00 8 ... ... ... : A#2 00 . ... : ... .. A ... : ... .. . ... ... : A-3 01 7 ... ... : D-3 01 7 P81 ... : D-2 01 A ... ...
ROW EF : ... .. E ... ... ... : ... .. 3 ... ... ... : ... .. . ... : ... .. 8 ... : ... .. . ... ... : ... .. 6 ... ... : ... .. 6 ... ... : ... .. 8 ... ...
ROW F0 : ... .. D ... ... ... : ... .. 0 ... ... ... : ... .. . ... : ... .. 4 ... : ... .. . ... ... : ... .. . ... ... : ... .. . ... ... : ... .. 5 ... ...
ROW F1 : ... .. A ... ... ... : A#2 00 3 P80 ... ... : ... .. . ... : ... .. 2 ... : ... .. . ... ... : ... .. . ... ... : ... .. . ... ... : ... .. . ... ...
ROW F2 : ... .. . ... ... ... : ... .. 4 ... ... ... : --- .. . ... : ... .. 1 ... : ... .. . ... ... : ... .. 5 ... ... : ... .. 5 ... ... : ... .. . ... ...
ROW F3 : ... .. . ... ... ... : F-2 00 8 ... ... ... : A#2 00 . ... : ... .. 8 ... : ... .. . ... ... : ... .. . ... ... : ... .. . ... ... : ... .. . ... ...
ROW F4 : ... .. 2 ... ... ... : ... .. 3 ... ... ... : ... .. . ... : ... .. 6 ... : ... .. . ... ... : ... .. . ... ... : ... .. . ... ... : ... .. 2 ... ...
ROW F5 : ... .. . ... ... ... : ... .. 0 ... ... ... : ... .. . ... : ... .. 3 ... : ... .. . ... ... : ... .. 4 ... ... : ... .. 4 ... ... : ... .. . ... ...
ROW F6 : ... .. . ... ... ... : F-2 00 3 P80 ... ... : ... .. . ... : ... .. 1 ... : ... .. . ... ... : ... .. . ... ... : ... .. . ... ... : ... .. 1 ... ...
ROW F7 : ... .. 1 ... ... ... : ... .. 4 ... ... ... : --- .. . ... : ... .. . ... : ... .. . ... ... : ... .. . ... ... : ... .. . ... ... : ... .. . ... ...
ROW F8 : ... .. F ... ... ... : A#4 00 8 ... ... ... : C-3 00 . ... : 1-# 00 F ... : ... .. . ... ... : --- .. . ... ... : --- .. . P83 ... : ... .. A ... ...
ROW F9 : ... .. E ... ... ... : ... .. 3 ... ... ... : ... .. . ... : ... .. C ... : ... .. . ... ... : ... .. . ... ... : ... .. . ... ... : ... .. 8 ... ...
ROW FA : ... .. D ... ... ... : ... .. 0 ... ... ... : ... .. . ... : ... .. 6 ... : ... .. . ... ... : ... .. . ... ... : ... .. . ... ... : ... .. 5 ... ...
ROW FB : ... .. A ... ... ... : A#4 00 3 P80 ... ... : ... .. . ... : ... .. 3 ... : ... .. . ... ... : ... .. . ... ... : ... .. . ... ... : ... .. . ... ...
ROW FC : ... .. . ... ... ... : ... .. 4 ... ... ... : ... .. . ... : ... .. 2 ... : ... .. . ... ... : ... .. . ... ... : ... .. . ... ... : ... .. . ... ...
ROW FD : ... .. . ... ... ... : F-4 00 8 ... ... ... : ... .. . ... : D-# 00 8 ... : ... .. . ... ... : ... .. . ... ... : ... .. . ... ... : ... .. . ... ...
ROW FE : ... .. . ... ... ... : ... .. 3 ... ... ... : ... .. . ... : ... .. 6 ... : ... .. . ... ... : ... .. . ... ... : ... .. . ... ... : ... .. . ... ...
ROW FF : ... .. . ... ... ... : ... .. 0 ... ... ... : ... .. . ... : ... .. 3 ... : ... .. . ... ... : ... .. . ... ... : ... .. . ... ... : ... .. . ... ...

PATTERN 17
ROW 00 : ... .. . ... ... ... : F-4 00 3 P80 ... ... : --- .. . ... : ... .. 1 ... : ... .. . ... ... : ... .. . ... ... : ... .. . ... ... : ... .. . ... ...
ROW 01 : ... .. . ... ... ... : ... .. 4 ... ... ... : ... .. . ... : ... .. . ... : ... .. . ... ... : ... .. . ... ... : ... .. . ... ... : ... .. . ... ...
ROW 02 : ... .. . ... ... ... : D-4 00 8 ... ... ... : C-3 00 . ... : ... .. A ... : ... .. . ... ... : A-3 01 7 ... ... : D-3 01 7 P81 ... : ... .. . ... ...
ROW 03 : ... .. . ... ... ... : ... .. 3 ... ... ... : ... .. . ... : ... .. 8 ... : ... .. . ... ... : ... .. 6 ... ... : ... .. 6 ... ... : ... .. . ... ...
ROW 04 : ... .. . ... ... ... : ... .. 0 ... ... ... : ... .. . ... : ... .. 4 ... : ... .. . ... ... : ... .. . ... ... : ... .. . ... ... : ... .. . ... ...
ROW 05 : ... .. . ... ... ... : D-4 00 3 P80 ... ... : ... .. . ... : ... .. 2 ... : ... .. . ... ... : --- .. . ... ... : --- .. . P83 ... : ... .. . ... ...
ROW 06 : ... .. . ... ... ... : ... .. 4 ... ... ... : ... .. . ... : ... .. 1 ... : ... .. . ... ... : ... .. . ... ... : ... .. . ... ... : ... .. . ... ...
ROW 07 : ... .. . ... ... ... : A#3 00 8 ... ... ... : ... .. . ... : ... .. 8 ... : ... .. . ... ... : A-3 01 7 ... ... : D-3 01 7 P81 ... : ... .. . ... ...
ROW 08 : ... .. . ... ... ... : ... .. 3 ... ... ... : ... .. . ... : ... .. 6 ... : ... .. . ... ... : ... .. 6 ... ... : ... .. 6 ... ... : ... .. . ... ...
ROW 09 : ... .. . ... ... ... : ... .. 0 ... ... ... : ... .. . ... : ... .. 3 ... : ... .. . ... ... : ... .. . ... ... : ... .. . ... ... : ... .. . ... ...
ROW 0A : ... .. . ... ... ... : A#3 00 3 P80 ... ... : --- .. . ... : ... .. 1 ... : ... .. . ... ... : --- .. . ... ... : --- .. . P83 ... : ... .. . ... ...
ROW 0B : ... .. . ... ... ... : ... .. 4 ... ... ... : ... .. . ... : ... .. . ... : ... .. . ... ... : ... .. . ... ... : ... .. . ... ... : ... .. . ... ...
ROW 0C : ... .. . P84 ... ... : F-3 00 8 ... ... ... : E-4 00 . ... : 1-# 00 D ... : ... .. . ... ... : A-3 01 7 ... ... : D-3 01 7 P81 ... : ... .. . ... ...
ROW 0D : ... .. . P86 ... ... : ... .. 3 ... ... ... : ... .. . ... : ... .. . ... : ... .. . ... ... : ... .. 6 ... ... : ... .. 6 ... ... : ... .. . ... ...
ROW 0E : ... .. . P84 ... ... : ... .. 0 ... ... ... : ... .. . ... : D-# 00 D ... : ... .. . ... ... : ... .. . ... ... : ... .. . ... ... : ... .. . ... ...
ROW 0F : ... .. . P80 ... ... : F-3 00 3 P80 ... ... : ... .. . ... : B-# 00 6 ... : ... .. . ... ... : ... .. . ... ... : ... .. . ... ... : ... .. . ... ...
ROW 10 : ... .. . P7C ... ... : ... .. 4 ... ... ... : --- .. . ... : 7-# 00 1 ... : ... .. . ... ... : ... .. 5 ... ... : ... .. 5 ... ... : ... .. . ... ...
ROW 11 : ... .. . P7A ... ... : D-3 00 8 ... ... ... : E-4 00 . ... : D-# 00 8 ... : ... .. . ... ... : --- .. . ... ... : --- .. . P83 ... : ... .. . ... ...
ROW 12 : ... .. . P7C ... ... : ... .. 3 ... ... ... : ... .. . ... : ... .. 6 ... : ... .. . ... ... : ... .. . ... ... : ... .. . ... ... : ... .. . ... ...
ROW 13 : ... .. . P80 ... ... : ... .. 0 ... ... ... : ... .. . ... : ... .. 3 ... : ... .. . ... ... : ... .. . ... ... : ... .. . ... ... : ... .. . ... ...
ROW 14 : ... .. . P84 ... ... : D-3 00 3 P80 ... ... : ... .. . ... : ... .. 1 ... : ... .. . ... ... : ... .. . ... ... : ... .. . ... ... : ... .. . ... ...
ROW 15 : ... .. . P86 ... ... : ... .. 4 ... ... ... : --- .. . ... : ... .. . ... : ... .. . ... ... : ... .. . ... ... : ... .. . ... ... : ... .. . ... ...
ROW 16 : ... .. . P84 ... ... : A#2 00 8 ... ... ... : C-3 00 . ... : ... .. A ... : ... .. . ... ... : D-3 01 7 ... ... : G-2 01 7 P81 ... : ... .. . ... ...
ROW 17 : ... .. . P80 ... ... : ... .. 3 ... ... ... : ... .. . ... : ... .. 8 ... : ... .. . ... ... : ... .. 6 ... ... : ... .. 6 ... ... : ... .. . ... ...
ROW 18 : ... .. . P7C ... ... : ... .. 0 ... ... ... : ... .. . ... : ... .. 4 ... : ... .. . ... ... : ... .. . ... ... : ... .. . ... ... : ... .. . ... ...
ROW 19 : ... .. . P7A ... ... : A#2 00 3 P80 ... ... : ... .. . ... : ... .. 2 ... : ... .. . ... ... : ... .. . ... ... : ... .. . ... ... : ... .. . ... ...
ROW 1A : ... .. . P7C ... ... : ... .. 4 ... ... ... : --- .. . ... : ... .. 1 ... : ... .. . ... ... : ... .. 5 ... ... : ... .. 5 ... ... : ... .. . ... ...
ROW 1B : ... .. . P80 ... ... : F-2 00 8 ... ... ... : C-3 00 . ... : ... .. 8 ... : ... .. . ... ... : --- .. . P81 ... : --- .. . P7F ... : ... .. . ... ...
ROW 1C : ... .. 2 P84 ... ... : ... .. 3 ... ... ... : ... .. . ... : ... .. 6 ... : ... .. . ... ... : ... .. . ... ... : ... .. . ... ... : ... .. 2 ... ...
ROW 1D : ... .. . P86 ... ... : ... .. 0 ... ... ... : ... .. . ... : ... .. 3 ... : ... .. . ... ... : ... .. . ... ... : ... .. . ... ... : ... .. . ... ...
ROW 1E : ... .. . P84 ... ... : F-2 00 3 P80 ... ... : ... .. . ... : ... .. 1 ... : ... .. . ... ... : ... .. . ... ... : ... .. . ... ... : ... .. 1 ... ...
ROW 1F : ... .. 1 P80 ... ... : ... .. 4 ... ... ... : --- .. . ... : ... .. . ... : ... .. . ... ... : ... .. . ... ... : ... .. . ... ... : ... .. . ... ...
ROW 20 : D-2 00 D ... ... ... : A-4 00 8 ... ... ... : D-3 00 . ... : 1-# 00 F ... : ... .. . ... ... : A-3 01 7 P7F ... : D-3 01 7 P81 ... : A-4 01 A ... ...
ROW 21 : ... .. B ... ... ... : ... .. 3 ... ... ... : ... .. . ... : ... .. C ... : ... .. . ... ... : ... .. 6 ... ... : ... .. 6 ... ... : ... .. 8 ... ...
ROW 22 : ... .. . ... ... ... : ... .. 0 ... ... ... : ... .. . ... : ... .. 6 ... : ... .. . ... ... : ... .. . ... ... : ... .. . ... ... : ... .. 5 ... ...
ROW 23 : ... .. A ... ... ... : A-4 00 3 P80 ... ... : ... .. . ... : ... .. 3 ... : ... .. . ... ... : ... .. . ... ... : ... .. . ... ... : ... .. . ... ...
ROW 24 : ... .. 8 ... ... ... : ... .. 4 ... ... ... : ... .. . ... : ... .. 2 ... : ... .. . ... ... : ... .. 5 ... ... : ... .. 5 ... ... : ... .. . ... ...
ROW 25 : F-2 00 D ... ... ... : G-4 00 8 ... ... ... : ... .. . ... : D-# 00 8 ... : ... .. . ... ... : ... .. . ... ... : ... .. . ... ... : ... .. . ... ...
ROW 26 : ... .. B ... ... ... : ... .. 3 ... ... ... : ... .. . ... : ... .. 6 ... : ... .. . ... ... : ... .. . ... ... : ... .. . ... ... : ... .. . ... ...
ROW 27 : ... .. . ... ... ... : ... .. 0 ... ... ... : ... .. . ... : ... .. 3 ... : ... .. . ... ... : ... .. 4 ... ... : ... .. 4 ... ... : ... .. . ... ...
ROW 28 : ... .. A ... ... ... : G-4 00 3 P80 ... ... : --- .. . ... : ... .. 1 ... : ... .. . ... ... : ... .. . ... ... : ... .. . ... ... : ... .. . ... ...
ROW 29 : ... .. 8 ... ... ... : ... .. 4 ... ... ... : ... .. . ... : ... .. . ... : ... .. . ... ... : ... .. . ... ... : ... .. . ... ... : ... .. . ... ...
ROW 2A : G-2 00 D ... ... ... : D-4 00 8 ... ... ... : D-3 00 . ... : ... .. A ... : ... .. . ... ... : --- .. . ... ... : --- .. . P83 ... : ... .. . ... ...
ROW 2B : ... .. B ... ... ... : ... .. 3 ... ... ... : ... .. . ... : ... .. 8 ... : ... .. . ... ... : ... .. . ... ... : ... .. . ... ... : ... .. . ... ...
ROW 2C : ... .. . ... ... ... : ... .. 0 ... ... ... : ... .. . ... : ... .. 4 ... : ... .. . ... ... : ... .. . ... ... : ... .. . ... ... : ... .. . ... ...
ROW 2D : ... .. A ... ... ... : D-4 00 3 P80 ... ... : ... .. . ... : ... .. 2 ... : ... .. . ... ... : ... .. . ... ... : ... .. . ... ... : ... .. . ... ...
ROW 2E : ... .. 8 ... ... ... : ... .. 4 ... ... ... : ... .. . ... : ... .. 1 ... : ... .. . ... ... : ... .. . ... ... : ... .. . ... ... : ... .. . ... ...
ROW 2F : A-2 00 D ... ... ... : A-3 00 8 ... ... ... : ... .. . ... : ... .. 8 ... : ... .. . ... ... : ... .. . ... ... : ... .. . ... ... : ... .. . ... ...
ROW 30 : ... .. B ... ... ... : ... .. 3 ... ... ... : ... .. . ... : ... .. 6 ... : ... .. . ... ... : ... .. . ... ... : ... .. . ... ... : ... .. . ... ...
ROW 31 : ... .. . ... ... ... : ... .. 0 ... ... ... : ... .. . ... : ... .. 3 ... : ... .. . ... ... : ... .. . ... ... : ... .. . ... ... : ... .. . ... ...
ROW 32 : ... .. A ... ... ... : A-3 00 3 P80 ... ... : --- .. . ... : ... .. 1 ... : ... .. . ... ... : ... .. . ... ... : ... .. . ... ... : ... .. . ... ...
ROW 33 : ... .. 8 ... ... ... : ... .. 4 ... ... ... : ... .. . ... : ... .. . ... : ... .. . ... ... : ... .. . ... ... : ... .. . ... ... : ... .. . ... ...
ROW 34 : D-3 00 D ... ... ... : G-3 00 8 ... ... ... : D-4 00 . ... : 1-# 00 D ... : ... .. . ... ... : A-3 01 7 ... ... : D-3 01 7 P81 ... : ... .. . P83 ...
ROW 35 : ... .. B ... ... ... : ... .. 3 ... ... ... : ... .. . ... : ... .. . ... : ... .. . ... ... : ... .. 6 ... ... : ... .. 6 ... ... : ... .. . P84 ...
ROW 36 : ... .. . ... ... ... : ... .. 0 ... ... ... : ... .. . ... : D-# 00 D ... : ... .. . ... ... : ... .. . ... ... : ... .. . ... ... : ... .. . P83 ...
ROW 37 : ... .. A ... ... ... : G-3 00 3 P80 ... ... : ... .. . ... : B-# 00 6 ... : ... .. . ... ... : --- .. . ... ... : --- .. . P83 ... : ... .. . P80 ...
ROW 38 : ... .. 8 ... ... ... : ... .. 4 ... ... ... : ... .. . ... : 7-# 00 1 ... : ... .. . ... ... : ... .. . ... ... : ... .. . ... ... : ... .. . P7D ...
ROW 39 : F-3 00 D ... ... ... : D-3 00 8 ... ... ... : C-4 00 . ... : D-# 00 8 ... : ... .. . ... ... : A-3 01 7 ... ... : D-3 01 7 P81 ... : ... .. . P7C ...
ROW 3A : ... .. B ... ... ... : ... .. 3 ... ... ... : A#3 00 . P82 : ... .. 6 ... : ... .. . ... ... : ... .. 6 ... ... : ... .. 6 ... ... : ... .. 2 P7D ...
ROW 3B : ... .. . ... ... ... : ... .. 0 ... ... ... : G#3 00 . P87 : ... .. 3 ... : ... .. . ... ... : ... .. . ... ... : ... .. . ... ... : ... .. . P80 ...
ROW 3C : ... .. A ... ... ... : D-3 00 3 P80 ... ... : G-3 00 . P7F : ... .. 1 ... : ... .. . ... ... : --- .. . ... ... : --- .. . P83 ... : ... .. 1 P83 ...
ROW 3D : ... .. 8 ... ... ... : ... .. 4 ... ... ... : F#3 00 . P78 : ... .. . ... : ... .. . ... ... : ... .. . ... ... : ... .. . ... ... : ... .. . P84 ...
ROW 3E : G-3 00 D ... ... ... : A-2 00 8 ... ... ... : E-3 00 . P85 : ... .. A ... : ... .. . ... ... : A-3 01 7 ... ... : D-3 01 7 P81 ... : D-4 01 A P80 ...
ROW 3F : ... .. B ... ... ... : ... .. 3 ... ... ... : D#3 00 . P82 : ... .. 8 ... : ... .. . ... ... : ... .. 6 ... ... : ... .. 6 ... ... : ... .. 8 ... ...
ROW 40 : ... .. . ... ... ... : ... .. 0 ... ... ... : D-3 00 . P7F : ... .. 4 ... : ... .. . ... ... : ... .. . ... ... : ... .. . ... ... : ... .. 5 ... ...
ROW 41 : ... .. A ... ... ... : A-2 00 3 P80 ... ... : C#3 00 . P7E : ... .. 2 ... : ... .. . ... ... : ... .. . ... ... : ... .. . ... ... : ... .. . ... ...
ROW 42 : ... .. 8 ... ... ... : ... .. 4 ... ... ... : C-3 00 . ... : ... .. 1 ... : ... .. . ... ... : ... .. 5 ... ... : ... .. 5 ... ... : ... .. . ... ...
ROW 43 : A-3 00 D ... ... ... : G-2 00 8 ... ... ... : B-2 00 . P7F : ... .. 8 ... : ... .. . ... ... : ... .. . ... ... : ... .. . ... ... : ... .. . ... ...
ROW 44 : ... .. B ... ... ... : ... .. 3 ... ... ... : A#2 00 . P82 : ... .. 6 ... : ... .. . ... ... : ... .. . ... ... : ... .. . ... ... : ... .. 2 ... ...
ROW 45 : ... .. . ... ... ... : ... .. 0 ... ... ... : A-2 00 . P86 : ... .. 3 ... : ... .. . ... ... : ... .. 4 ... ... : ... .. 4 ... ... : ... .. . ... ...
ROW 46 : ... .. A ... ... ... : G-2 00 3 P80 ... ... : G#2 00 . P8D : ... .. 1 ... : ... .. . ... ... : ... .. . ... ... : ... .. . ... ... : ... .. 1 ... ...
ROW 47 : ... .. 8 ... ... ... : ... .. 4 ... ... ... : ... .. . P75 : ... .. . ... : ... .. . ... ... : ... .. . ... ... : ... .. . ... ... : ... .. . ... ...
ROW 48 : C-4 00 D ... ... ... : A-4 00 8 ... ... ... : F-2 00 . P80 : 1-# 00 F ... : ... .. . ... ... : --- .. . ... ... : --- .. . P83 ... : ... .. A ... ...
ROW 49 : ... .. B ... ... ... : ... .. 3 ... ... ... : ... .. . ... : ... .. C ... : ... .. . ... ... : ... .. . ... ... : ... .. . ... ... : ... .. 8 ... ...
ROW 4A : ... .. . ... ... ... : ... .. 0 ... ... ... : ... .. . ... : ... .. 6 ... : ... .. . ... ... : ... .. . ... ... : ... .. . ... ... : ... .. 5 ... ...
ROW 4B : ... .. A ... ... ... : A-4 00 3 P80 ... ... : ... .. . ... : B-# 00 8 ... : ... .. . ... ... : ... .. . ... ... : ... .. . ... ... : ... .. . ... ...
ROW 4C : ... .. 8 ... ... ... : ... .. 4 ... ... ... : --- .. . ... : ... .. . ... : ... .. . ... ... : ... .. . ... ... : ... .. . ... ... : ... .. . ... ...
ROW 4D : A-3 00 D ... ... ... : G-4 00 8 ... ... ... : F-2 00 . ... : ... .. 6 ... : ... .. . ... ... : ... .. . ... ... : ... .. . ... ... : ... .. . ... ...
ROW 4E : ... .. B ... ... ... : ... .. 3 ... ... ... : ... .. . ... : ... .. . ... : ... .. . ... ... : ... .. . ... ... : ... .. . ... ... : ... .. . ... ...
ROW 4F : ... .. . ... ... ... : ... .. 0 ... ... ... : ... .. . ... : ... .. . ... : ... .. . ... ... : ... .. . ... ... : ... .. . ... ... : ... .. . ... ...
ROW 50 : ... .. A ... ... ... : G-4 00 3 P80 ... ... : --- .. . ... : ... .. 4 ... : ... .. . ... ... : ... .. . ... ... : ... .. . ... ... : ... .. . ... ...
ROW 51 : ... .. 8 ... ... ... : ... .. 4 ... ... ... : ... .. . ... : ... .. . ... : ... .. . ... ... : ... .. . ... ... : ... .. . ... ... : ... .. . ... ...
ROW 52 : F-3 00 D ... ... ... : D-4 00 8 ... ... ... : F-3 00 . ... : ... .. 2 ... : ... .. . ... ... : D-3 01 7 ... ... : G-2 01 7 P81 ... : ... .. . ... ...
ROW 53 : ... .. B ... ... ... : ... .. 3 ... ... ... : ... .. . ... : ... .. . ... : ... .. . ... ... : ... .. 6 ... ... : ... .. 6 ... ... : ... .. . ... ...
ROW 54 : ... .. . ... ... ... : ... .. 0 ... ... ... : ... .. . ... : ... .. . ... : ... .. . ... ... : ... .. . ... ... : ... .. . ... ... : ... .. . ... ...
ROW 55 : ... .. A ... ... ... : D-4 00 3 P80 ... ... : ... .. . ... : ... .. 0 ... : ... .. . ... ... : --- .. . P81 ... : --- .. . P7F ... : ... .. . ... ...
ROW 56 : ... .. 8 ... ... ... : ... .. 4 ... ... ... : --- .. . ... : ... .. . ... : ... .. . ... ... : ... .. . ... ... : ... .. . ... ... : ... .. . ... ...
ROW 57 : D-3 00 D ... ... ... : A-3 00 8 ... ... ... : F-3 00 . ... : ... .. . ... : ... .. . ... ... : D-3 01 7 P7F ... : G-2 01 7 P81 ... : ... .. . ... ...
ROW 58 : ... .. B ... ... ... : ... .. 3 ... ... ... : ... .. . ... : ... .. . ... : ... .. . ... ... : ... .. 6 ... ... : ... .. 6 ... ... : ... .. . ... ...
ROW 59 : ... .. . ... ... ... : ... .. 0 ... ... ... : ... .. . ... : ... .. . ... : ... .. . ... ... : ... .. . ... ... : ... .. . ... ... : ... .. . ... ...
ROW 5A : ... .. A ... ... ... : A-3 00 3 P80 ... ... : --- .. . ... : ... .. . ... : ... .. . ... ... : --- .. . P81 ... : --- .. . P7F ... : ... .. . ... ...
ROW 5B : ... .. 8 ... ... ... : ... .. 4 ... ... ... : ... .. . ... : ... .. . ... : ... .. . ... ... : ... .. . ... ... : ... .. . ... ... : ... .. . ... ...
ROW 5C : D-4 00 D ... ... ... : D-3 00 8 ... ... ... : E-2 00 . ... : 1-# 00 F ... : ... .. . ... ... : A-3 01 7 P7F ... : D-3 01 7 P81 ... : D#4 01 5 P7B ...
ROW 5D : ... .. B ... ... ... : ... .. 3 ... ... ... : ... .. . ... : ... .. C ... : ... .. . ... ... : ... .. 6 ... ... : ... .. 6 ... ... : ... .. . P80 ...
ROW 5E : ... .. . ... ... ... : ... .. 0 ... ... ... : ... .. . ... : ... .. 6 ... : ... .. . ... ... : ... .. . ... ... : ... .. . ... ... : ... .. . P7E ...
ROW 5F : ... .. A ... ... ... : D-3 00 3 P80 ... ... : ... .. . ... : B-# 00 8 ... : ... .. . ... ... : ... .. . ... ... : ... .. . ... ... : D-4 01 5 P84 ...
ROW 60 : ... .. 8 ... ... ... : ... .. 4 ... ... ... : --- .. . ... : ... .. . ... : ... .. . ... ... : ... .. 5 ... ... : ... .. 5 ... ... : ... .. . P7C ...
ROW 61 : B-3 00 D ... ... ... : A-3 00 8 ... ... ... : E-2 00 . ... : ... .. 6 ... : ... .. . ... ... : --- .. . ... ... : --- .. . P83 ... : C#4 01 5 P82 ...
ROW 62 : ... .. B ... ... ... : ... .. 3 ... ... ... : ... .. . ... : ... .. . ... : ... .. . ... ... : ... .. . ... ... : ... .. . ... ... : ... .. . P80 ...
ROW 63 : ... .. . ... ... ... : ... .. 0 ... ... ... : ... .. . ... : ... .. . ... : ... .. . ... ... : ... .. . ... ... : ... .. . ... ... : ... .. . P85 ...
ROW 64 : ... .. A ... ... ... : A-3 00 3 P80 ... ... : ... .. . ... : ... .. 4 ... : ... .. . ... ... : ... .. . ... ... : ... .. . ... ... : D-4 01 5 P80 ...
ROW 65 : ... .. 8 ... ... ... : ... .. 4 ... ... ... : --- .. . ... : ... .. . ... : ... .. . ... ... : ... .. . ... ... : ... .. . ... ... : D#4 01 5 P7A ...
ROW 66 : G-3 00 D ... ... ... : D-4 00 8 ... ... ... : E-3 00 . ... : 2-# 00 D ... : ... .. . ... ... : D-3 01 7 ... ... : G-2 01 7 P81 ... : ... .. . P80 ...
ROW 67 : ... .. B ... ... ... : ... .. 3 ... ... ... : ... .. . ... : ... .. . ... : ... .. . ... ... : ... .. 6 ... ... : ... .. 6 ... ... : ... .. 2 P7F ...
ROW 68 : ... .. . ... ... ... : ... .. 0 ... ... ... : ... .. . ... : E-# 00 D ... : ... .. . ... ... : ... .. . ... ... : ... .. . ... ... : D-4 01 2 P85 ...
ROW 69 : ... .. A ... ... ... : D-4 00 3 P80 ... ... : ... .. . ... : C-# 00 6 ... : ... .. . ... ... : --- .. . P81 ... : --- .. . P7F ... : ... .. 1 P7E ...
ROW 6A : ... .. 8 ... ... ... : ... .. 4 ... ... ... : --- .. . ... : 8-# 00 1 ... : ... .. . ... ... : ... .. . ... ... : ... .. . ... ... : C#4 01 1 P83 ...
ROW 6B : D-3 00 D ... ... ... : A-4 00 8 ... ... ... : E-3 00 . ... : 2-# 00 D ... : ... .. . ... ... : D-3 01 7 P7F ... : G-2 01 7 P81 ... : ... .. . P80 ...
ROW 6C : ... .. B ... ... ... : ... .. 3 ... ... ... : ... .. . ... : ... .. . ... : ... .. . ... ... : ... .. 6 ... ... : ... .. 6 ... ... : ... .. . P84 ...
ROW 6D : ... .. . ... ... ... : ... .. 0 ... ... ... : ... .. . ... : E-# 00 D ... : ... .. . ... ... : ... .. . ... ... : ... .. . ... ... : D-4 01 1 P7F ...
ROW 6E : ... .. A ... ... ... : A-4 00 3 P80 ... ... : ... .. . ... : C-# 00 6 ... : ... .. . ... ... : --- .. . P81 ... : --- .. . P7F ... : ... .. . P80 ...
ROW 6F : ... .. 8 ... ... ... : ... .. 4 ... ... ... : --- .. . ... : 8-# 00 1 ... : ... .. . ... ... : ... .. . ... ... : ... .. . ... ... : ... .. . ... ...
ROW 70 : G-2 00 F ... ... ... : F-3 00 C ... ... ... : D#3 00 . ... : 1-# 00 F ... : ... .. . Z00 ... : A#3 01 6 ... V03 : D-4 01 6 ... V03 : ... .. 8 ... ...
ROW 71 : ... .. E ... ... ... : ... .. B ... ... ... : ... .. . ... : ... .. C ... : ... .. . ... ... : ... .. 5 ... V01 : ... .. 5 ... V01 : ... .. 7 ... ...
ROW 72 : ... .. D ... ... ... : ... .. A ... ... ... : ... .. . ... : ... .. 6 ... : ... .. . ... ... : ... .. . ... ... : ... .. . ... ... : ... .. 6 ... ...
ROW 73 : ... .. A ... ... ... : ... .. 8 ... ... ... : ... .. . ... : ... .. 3 ... : ... .. . ... ... : ... .. . ... ... : ... .. . ... ... : ... .. 4 ... ...
ROW 74 : ... .. . ... ... ... : ... .. . ... ... ... : ... .. . ... : ... .. 2 ... : ... .. . ... ... : ... .. . ... ... : ... .. . ... ... : ... .. 3 ... ...
ROW 75 : ... .. . ... ... ... : ... .. . ... ... ... : D-3 00 . P75 : C-# 00 8 ... : ... .. . ... ... : ... .. . ... ... : ... .. . ... ... : ... .. 8 ... ...
ROW 76 : ... .. . ... ... ... : ... .. . ... ... ... : C-3 00 . P84 : ... .. 6 ... : ... .. . ... ... : ... .. . ... ... : ... .. . ... ... : ... .. 7 ... ...
ROW 77 : ... .. . ... ... ... : ... .. . ... ... ... : B-2 00 . P7D : ... .. 3 ... : ... .. . ... ... : ... .. 4 ... ... : ... .. 4 ... ... : ... .. 6 ... ...
ROW 78 : ... .. . ... ... ... : ... .. . ... ... ... : A#2 00 . P78 : ... .. 1 ... : ... .. . ... ... : ... .. . ... ... : ... .. . ... ... : ... .. 4 ... ...
ROW 79 : ... .. . ... ... ... : ... .. . ... ... ... : A-2 00 . P74 : ... .. . ... : ... .. . ... ... : ... .. . ... ... : ... .. . ... ... : ... .. 3 ... ...
ROW 7A : ... .. . ... ... ... : ... .. . ... ... ... : D#2 00 . P80 : ... .. F ... : ... .. . ... ... : ... .. . ... ... : ... .. . ... ... : F-3 01 8 ... ...
ROW 7B : ... .. . ... ... ... : ... .. . ... ... ... : ... .. . ... : ... .. C ... : ... .. . ... ... : ... .. . ... ... : ... .. . ... ... : ... .. 7 ... ...
ROW 7C : ... .. . ... ... ... : ... .. . ... ... ... : ... .. . ... : ... .. 6 ... : ... .. . ... ... : ... .. . ... ... : ... .. . ... ... : ... .. 6 ... ...
ROW 7D : ... .. . ... ... ... : ... .. . ... ... ... : ... .. . ... : ... .. 3 ... : ... .. . ... ... : ... .. 3 ... ... : ... .. 3 ... ... : ... .. 4 ... ...
ROW 7E : ... .. . ... ... ... : ... .. . ... ... ... : --- .. . ... : ... .. 2 ... : ... .. . ... ... : ... .. . ... ... : ... .. . ... ... : ... .. 3 ... ...
ROW 7F : ... .. . ... ... ... : ... .. . ... ... ... : D#2 00 . ... : 1-# 00 F ... : ... .. . ... ... : ... .. . ... ... : ... .. . ... ... : ... .. 8 ... ...
ROW 80 : ... .. . ... ... ... : ... .. . ... ... ... : ... .. . ... : ... .. C ... : ... .. . ... ... : ... .. . ... ... : ... .. . ... ... : ... .. 7 ... ...
ROW 81 : ... .. . ... ... ... : ... .. . ... ... ... : ... .. . ... : ... .. 6 ... : ... .. . ... ... : ... .. 2 ... ... : ... .. 2 ... ... : ... .. 6 ... ...
ROW 82 : ... .. . ... ... ... : ... .. . ... ... ... : ... .. . ... : ... .. 3 ... : ... .. . ... ... : ... .. . ... ... : ... .. . ... ... : ... .. 4 ... ...
ROW 83 : ... .. . ... ... ... : ... .. . ... ... ... : --- .. . ... : ... .. 2 ... : ... .. . ... ... : ... .. . ... ... : ... .. . ... ... : ... .. 3 ... ...
ROW 84 : ... .. . ... ... ... : ... .. . ... ... ... : D#2 00 . ... : 3-# 00 D ... : ... .. . ... ... : ... .. . ... ... : ... .. . ... ... : G-3 01 8 ... ...
ROW 85 : ... .. . ... ... ... : ... .. . ... ... ... : ... .. . ... : ... .. . ... : ... .. . ... ... : ... .. . ... ... : ... .. . ... ... : ... .. 7 ... ...
ROW 86 : ... .. . ... ... ... : ... .. . ... ... ... : ... .. . ... : F-# 00 D ... : ... .. . ... ... : ... .. . ... ... : ... .. . ... ... : ... .. 6 ... ...
ROW 87 : ... .. . ... ... ... : ... .. . ... ... ... : ... .. . ... : D-# 00 6 ... : ... .. . ... ... : ... .. . ... ... : ... .. . ... ... : ... .. 4 ... ...
ROW 88 : ... .. . ... ... ... : ... .. . ... ... ... : ... .. . ... : 9-# 00 1 ... : ... .. . ... ... : ... .. . ... ... : ... .. . ... ... : ... .. 3 ... ...
ROW 89 : ... .. . ... ... ... : ... .. . ... ... ... : ... .. . ... : ... .. 0 ... : ... .. . ... ... : ... .. . ... ... : ... .. . ... ... : ... .. 8 ... ...
ROW 8A : ... .. 2 ... ... ... : ... .. 1 ... ... ... : ... .. . ... : ... .. . ... : ... .. . ... ... : ... .. . ... ... : ... .. . ... ... : ... .. 7 ... ...
ROW 8B : ... .. . ... ... ... : ... .. . ... ... ... : ... .. . ... : ... .. . ... : ... .. . ... ... : ... .. . ... ... : ... .. . ... ... : ... .. 6 ... ...
ROW 8C : ... .. . ... ... ... : ... .. . ... ... ... : ... .. . ... : ... .. . ... : ... .. . ... ... : ... .. . ... ... : ... .. . ... ... : ... .. 4 ... ...
ROW 8D : ... .. 1 ... ... ... : ... .. . ... ... ... : --- .. . ... : ... .. . ... : ... .. . ... ... : ... .. . ... ... : ... .. . ... ... : ... .. 3 ... ...
ROW 8E : D-3 00 F ... ... ... : G-3 00 C ... ... ... : D#3 00 . ... : 1-# 00 F ... : ... .. . ... ... : C-4 01 6 ... V03 : F-4 01 6 ... V03 : D-4 01 8 ... ...
ROW 8F : ... .. E ... ... ... : ... .. B ... ... ... : ... .. . ... : ... .. C ... : ... .. . ... ... : ... .. 5 ... V01 : ... .. 5 ... V01 : ... .. 7 ... ...
ROW 90 : ... .. D ... ... ... : ... .. A ... ... ... : ... .. . ... : ... .. 6 ... : ... .. . ... ... : ... .. . ... ... : ... .. . ... ... : ... .. 6 ... ...
ROW 91 : ... .. A ... ... ... : ... .. 8 ... ... ... : ... .. . ... : ... .. 3 ... : ... .. . ... ... : ... .. . ... ... : ... .. . ... ... : ... .. 4 ... ...
ROW 92 : ... .. . ... ... ... : ... .. . ... ... ... : ... .. . ... : ... .. 2 ... : ... .. . ... ... : ... .. . ... ... : ... .. . ... ... : ... .. 3 ... ...
ROW 93 : ... .. . ... ... ... : ... .. . ... ... ... : D-3 00 . P75 : C-# 00 7 ... : ... .. . ... ... : ... .. . ... ... : ... .. . ... ... : ... .. 8 ... ...
ROW 94 : ... .. . ... ... ... : ... .. . ... ... ... : C-3 00 . P84 : ... .. 5 ... : ... .. . ... ... : ... .. . ... ... : ... .. . ... ... : ... .. 7 ... ...
ROW 95 : ... .. . ... ... ... : ... .. . ... ... ... : B-2 00 . P7D : ... .. 2 ... : ... .. . ... ... : ... .. 4 ... ... : ... .. 4 ... ... : ... .. 6 ... ...
ROW 96 : ... .. . ... ... ... : ... .. . ... ... ... : A#2 00 . P78 : ... .. 1 ... : ... .. . ... ... : ... .. . ... ... : ... .. . ... ... : ... .. 4 ... ...
ROW 97 : ... .. . ... ... ... : ... .. . ... ... ... : A-2 00 . P74 : ... .. . ... : ... .. . ... ... : ... .. . ... ... : ... .. . ... ... : ... .. 3 ... ...
ROW 98 : ... .. . ... ... ... : ... .. . ... ... ... : D#2 00 . P80 : ... .. F ... : ... .. . ... ... : ... .. . ... ... : ... .. . ... ... : G-3 01 8 ... ...
ROW 99 : ... .. . ... ... ... : ... .. . ... ... ... : ... .. . ... : ... .. C ... : ... .. . ... ... : ... .. . ... ... : ... .. . ... ... : ... .. 7 ... ...
ROW 9A : ... .. . ... ... ... : ... .. . ... ... ... : ... .. . ... : ... .. 6 ... : ... .. . ... ... : ... .. . ... ... : ... .. . ... ... : ... .. 6 ... ...
ROW 9B : ... .. . ... ... ... : ... .. . ... ... ... : ... .. . ... : ... .. 3 ... : ... .. . ... ... : ... .. 3 ... ... : ... .. 3 ... ... : ... .. 4 ... ...
ROW 9C : ... .. . ... ... ... : ... .. . ... ... ... : --- .. . ... : ... .. 2 ... : ... .. . ... ... : ... .. . ... ... : ... .. . ... ... : ... .. 3 ... ...
ROW 9D : ... .. . P84 ... ... : ... .. . ... ... ... : D#2 00 . ... : 1-# 00 F ... : ... .. . ... ... : ... .. . ... ... : ... .. . ... ... : ... .. 8 ... ...
ROW 9E : ... .. . P86 ... ... : ... .. . ... ... ... : ... .. . ... : ... .. C ... : ... .. . ... ... : ... .. . ... ... : ... .. . ... ... : ... .. 7 ... ...
ROW 9F : ... .. . P84 ... ... : ... .. . ... ... ... : ... .. . ... : ... .. 6 ... : ... .. . ... ... : ... .. 2 ... ... : ... .. 2 ... ... : ... .. 6 ... ...
ROW A0 : ... .. . P80 ... ... : ... .. . ... ... ... : ... .. . ... : ... .. 3 ... : ... .. . ... ... : ... .. . ... ... : ... .. . ... ... : ... .. 4 ... ...
ROW A1 : ... .. . P7C ... ... : ... .. . ... ... ... : --- .. . ... : ... .. 2 ... : ... .. . ... ... : ... .. . ... ... : ... .. . ... ... : ... .. 3 ... ...
ROW A2 : ... .. . P7A ... ... : ... .. . ... ... ... : D#2 00 . ... : 3-# 00 D ... : ... .. . ... ... : ... .. . ... ... : ... .. . ... ... : A-3 01 8 ... ...
ROW A3 : ... .. . P7C ... ... : ... .. . ... ... ... : ... .. . ... : ... .. . ... : ... .. . ... ... : ... .. . ... ... : ... .. . ... ... : ... .. 7 ... ...
ROW A4 : ... .. . P80 ... ... : ... .. . ... ... ... : ... .. . ... : F-# 00 D ... : ... .. . ... ... : ... .. . ... ... : ... .. . ... ... : ... .. 6 ... ...
ROW A5 : ... .. . P84 ... ... : ... .. . ... ... ... : ... .. . ... : D-# 00 6 ... : ... .. . ... ... : ... .. . ... ... : ... .. . ... ... : ... .. 4 ... ...
ROW A6 : ... .. . P86 ... ... : ... .. . ... ... ... : ... .. . ... : 9-# 00 1 ... : ... .. . ... ... : ... .. . ... ... : ... .. . ... ... : ... .. 3 ... ...
ROW A7 : ... .. . P84 ... ... : ... .. . ... ... ... : ... .. . ... : ... .. 0 ... : ... .. . ... ... : ... .. . ... ... : ... .. . ... ... : ... .. 8 ... ...
ROW A8 : ... .. 2 P80 ... ... : ... .. 1 ... ... ... : ... .. . ... : ... .. . ... : ... .. . ... ... : ... .. . ... ... : ... .. . ... ... : ... .. 7 ... ...
ROW A9 : ... .. . P7C ... ... : ... .. . ... ... ... : ... .. . ... : ... .. . ... : ... .. . ... ... : ... .. . ... ... : ... .. . ... ... : ... .. 6 ... ...
ROW AA : ... .. . P7A ... ... : ... .. . ... ... ... : ... .. . ... : ... .. . ... : ... .. . ... ... : ... .. . ... ... : ... .. . ... ... : ... .. 4 ... ...
ROW AB : ... .. 1 P7C ... ... : ... .. . ... ... ... : --- .. . ... : ... .. . ... : ... .. . ... ... : ... .. . ... ... : ... .. . ... ... : ... .. 3 ... ...
ROW AC : C-3 00 F P80 ... ... : D-4 00 C ... ... ... : D#3 00 . ... : 1-# 00 F ... : ... .. . ... ... : D-4 01 6 ... V03 : G-4 01 6 ... V03 : D-4 01 8 ... ...
ROW AD : ... .. E ... ... ... : ... .. B ... ... ... : ... .. . ... : ... .. C ... : ... .. . ... ... : ... .. 5 ... V01 : ... .. 5 ... V01 : ... .. 7 ... ...
ROW AE : ... .. D ... ... ... : ... .. A ... ... ... : ... .. . ... : ... .. 6 ... : ... .. . ... ... : ... .. . ... ... : ... .. . ... ... : ... .. 6 ... ...
ROW AF : ... .. A ... ... ... : ... .. 8 ... ... ... : ... .. . ... : ... .. 3 ... : ... .. . ... ... : ... .. . ... ... : ... .. . ... ... : ... .. 4 ... ...
ROW B0 : ... .. . ... ... ... : ... .. . ... ... ... : ... .. . ... : ... .. 2 ... : ... .. . ... ... : ... .. . ... ... : ... .. . ... ... : ... .. 3 ... ...
ROW B1 : ... .. . ... ... ... : ... .. . ... ... ... : D-3 00 . P75 : C-# 00 8 ... : ... .. . ... ... : ... .. . ... ... : ... .. . ... ... : ... .. 8 ... ...
ROW B2 : ... .. . ... ... ... : ... .. . ... ... ... : C-3 00 . P84 : ... .. 6 ... : ... .. . ... ... : ... .. . ... ... : ... .. . ... ... : ... .. 7 ... ...
ROW B3 : ... .. . ... ... ... : ... .. . ... ... ... : B-2 00 . P7D : ... .. 3 ... : ... .. . ... ... : ... .. 4 ... ... : ... .. 4 ... ... : ... .. 6 ... ...
ROW B4 : ... .. . ... ... ... : ... .. . ... ... ... : A#2 00 . P78 : ... .. 1 ... : ... .. . ... ... : ... .. . ... ... : ... .. . ... ... : ... .. 4 ... ...
ROW B5 : ... .. . ... ... ... : ... .. . ... ... ... : A-2 00 . P74 : ... .. . ... : ... .. . ... ... : ... .. . ... ... : ... .. . ... ... : ... .. 3 ... ...
ROW B6 : ... .. . ... ... ... : ... .. . ... ... ... : D#2 00 . P80 : ... .. F ... : ... .. . ... ... : ... .. . ... ... : ... .. . ... ... : F-3 01 8 ... ...
ROW B7 : ... .. . ... ... ... : ... .. . ... ... ... : ... .. . ... : ... .. C ... : ... .. . ... ... : ... .. . ... ... : ... .. . ... ... : ... .. 7 ... ...
ROW B8 : ... .. . ... ... ... : ... .. . ... ... ... : ... .. . ... : ... .. 6 ... : ... .. . ... ... : ... .. . ... ... : ... .. . ... ... : ... .. 6 ... ...
ROW B9 : ... .. . ... ... ... : ... .. . ... ... ... : ... .. . ... : ... .. 3 ... : ... .. . ... ... : ... .. 3 ... ... : ... .. 3 ... ... : ... .. 4 ... ...
ROW BA : ... .. . ... ... ... : ... .. . ... ... ... : --- .. . ... : ... .. 2 ... : ... .. . ... ... : ... .. . ... ... : ... .. . ... ... : ... .. 3 ... ...
ROW BB : ... .. . ... ... ... : ... .. . ... ... ... : D#2 00 . ... : 1-# 00 F ... : ... .. . ... ... : ... .. . ... ... : ... .. . ... ... : ... .. 8 ... ...
ROW BC : ... .. . ... ... ... : ... .. . ... ... ... : ... .. . ... : ... .. C ... : ... .. . ... ... : ... .. . ... ... : ... .. . ... ... : ... .. 7 ... ...
ROW BD : ... .. . ... ... ... : ... .. . ... ... ... : ... .. . ... : ... .. 6 ... : ... .. . ... ... : ... .. 2 ... ... : ... .. 2 ... ... : ... .. 6 ... ...
ROW BE : ... .. . ... ... ... : ... .. . ... ... ... : ... .. . ... : ... .. 3 ... : ... .. . ... ... : ... .. . ... ... : ... .. . ... ... : ... .. 4 ... ...
ROW BF : ... .. . ... ... ... : ... .. . ... ... ... : --- .. . ... : ... .. 2 ... : ... .. . ... ... : ... .. . ... ... : ... .. . ... ... : ... .. 3 ... ...
ROW C0 : ... .. . ... ... ... : ... .. . ... ... ... : D#2 00 . ... : 3-# 00 D ... : ... .. . ... ... : ... .. . ... ... : ... .. . ... ... : G-3 01 8 ... ...
ROW C1 : ... .. . ... ... ... : ... .. . ... ... ... : ... .. . ... : ... .. . ... : ... .. . ... ... : ... .. . ... ... : ... .. . ... ... : ... .. 7 ... ...
ROW C2 : ... .. . ... ... ... : ... .. . ... ... ... : ... .. . ... : F-# 00 D ... : ... .. . ... ... : ... .. . ... ... : ... .. . ... ... : ... .. 6 ... ...
ROW C3 : ... .. . ... ... ... : ... .. . ... ... ... : ... .. . ... : D-# 00 6 ... : ... .. . ... ... : ... .. . ... ... : ... .. . ... ... : ... .. 4 ... ...
ROW C4 : ... .. . ... ... ... : ... .. . ... ... ... : ... .. . ... : 9-# 00 1 ... : ... .. . ... ... : ... .. . ... ... : ... .. . ... ... : ... .. 3 ... ...
ROW C5 : ... .. . ... ... ... : ... .. . ... ... ... : ... .. . ... : ... .. 0 ... : ... .. . ... ... : ... .. . ... ... : ... .. . ... ... : ... .. 8 ... ...
ROW C6 : ... .. 2 ... ... ... : ... .. 1 ... ... ... : ... .. . ... : ... .. . ... : ... .. . ... ... : ... .. . ... ... : ... .. . ... ... : ... .. 7 ... ...
ROW C7 : ... .. . ... ... ... : ... .. . ... ... ... : ... .. . ... : ... .. . ... : ... .. . ... ... : ... .. . ... ... : ... .. . ... ... : ... .. 6 ... ...
ROW C8 : ... .. . ... ... ... : ... .. . ... ... ... : ... .. . ... : ... .. . ... : ... .. . ... ... : ... .. . ... ... : ... .. . ... ... : ... .. 4 ... ...
ROW C9 : ... .. 1 ... ... ... : ... .. . ... ... ... : --- .. . ... : ... .. . ... : ... .. . ... ... : ... .. . ... ... : ... .. . ... ... : ... .. 3 ... ...
ROW CA : D-3 00 F ... ... ... : G-4 00 C ... ... ... : D#3 00 . ... : 1-# 00 F ... : ... .. . ... ... : F-4 01 6 ... V03 : C-5 01 6 ... V03 : C-4 01 8 ... ...
ROW CB : ... .. E ... ... ... : ... .. B ... ... ... : ... .. . ... : ... .. C ... : ... .. . ... ... : ... .. 5 ... V01 : ... .. 5 ... V01 : ... .. 7 ... ...
ROW CC : ... .. D ... ... ... : ... .. A ... ... ... : ... .. . ... : ... .. 6 ... : ... .. . ... ... : ... .. . ... ... : ... .. . ... ... : ... .. 6 ... ...
ROW CD : ... .. A ... ... ... : ... .. 8 ... ... ... : ... .. . ... : ... .. 3 ... : ... .. . ... ... : ... .. . ... ... : ... .. . ... ... : ... .. 4 ... ...
ROW CE : ... .. . ... ... ... : ... .. . ... ... ... : ... .. . ... : ... .. 2 ... : ... .. . ... ... : ... .. . ... ... : ... .. . ... ... : ... .. 3 ... ...
ROW CF : ... .. . ... ... ... : ... .. . ... ... ... : D-3 00 . P75 : C-# 00 7 ... : ... .. . ... ... : ... .. . ... ... : ... .. . ... ... : ... .. 8 ... ...
ROW D0 : ... .. . ... ... ... : ... .. . ... ... ... : C-3 00 . P84 : ... .. 5 ... : ... .. . ... ... : ... .. . ... ... : ... .. . ... ... : ... .. 7 ... ...
ROW D1 : ... .. . ... ... ... : ... .. . ... ... ... : B-2 00 . P7D : ... .. 2 ... : ... .. . ... ... : ... .. 4 ... ... : ... .. 4 ... ... : ... .. 6 ... ...
ROW D2 : ... .. . ... ... ... : ... .. . ... ... ... : A#2 00 . P78 : ... .. 1 ... : ... .. . ... ... : ... .. . ... ... : ... .. . ... ... : ... .. 4 ... ...
ROW D3 : ... .. . ... ... ... : ... .. . ... ... ... : A-2 00 . P74 : ... .. . ... : ... .. . ... ... : ... .. . ... ... : ... .. . ... ... : ... .. 3 ... ...
ROW D4 : ... .. . ... ... ... : ... .. . ... ... ... : D#2 00 . P80 : ... .. F ... : ... .. . ... ... : ... .. . ... ... : ... .. . ... ... : F-3 01 8 ... ...
ROW D5 : ... .. . ... ... ... : ... .. . ... ... ... : ... .. . ... : ... .. C ... : ... .. . ... ... : ... .. . ... ... : ... .. . ... ... : ... .. 7 ... ...
ROW D6 : ... .. . ... ... ... : ... .. . ... ... ... : ... .. . ... : ... .. 6 ... : ... .. . ... ... : ... .. . ... ... : ... .. . ... ... : ... .. 6 ... ...
ROW D7 : ... .. . ... ... ... : ... .. . ... ... ... : ... .. . ... : ... .. 3 ... : ... .. . ... ... : ... .. 3 ... ... : ... .. 3 ... ... : ... .. 4 ... ...
ROW D8 : ... .. . ... ... ... : ... .. . ... ... ... : --- .. . ... : ... .. 2 ... : ... .. . ... ... : ... .. . ... ... : ... .. . ... ... : ... .. 3 ... ...
ROW D9 : ... .. . P84 ... ... : ... .. . ... ... ... : D#2 00 . ... : 1-# 00 F ... : ... .. . ... ... : ... .. . ... ... : ... .. . ... ... : ... .. 8 ... ...
ROW DA : ... .. . P86 ... ... : ... .. . ... ... ... : ... .. . ... : ... .. C ... : ... .. . ... ... : ... .. . ... ... : ... .. . ... ... : ... .. 7 ... ...
ROW DB : ... .. . P84 ... ... : ... .. . ... ... ... : ... .. . ... : ... .. 6 ... : ... .. . ... ... : ... .. 2 ... ... : ... .. 2 ... ... : ... .. 6 ... ...
ROW DC : ... .. . P80 ... ... : ... .. . ... ... ... : ... .. . ... : ... .. 3 ... : ... .. . ... ... : ... .. . ... ... : ... .. . ... ... : ... .. 4 ... ...
ROW DD : ... .. . P7C ... ... : ... .. . ... ... ... : --- .. . ... : ... .. 2 ... : ... .. . ... ... : ... .. . ... ... : ... .. . ... ... : ... .. 3 ... ...
ROW DE : ... .. . P7A ... ... : ... .. . ... ... ... : D#2 00 . ... : 3-# 00 D ... : ... .. . ... ... : ... .. . ... ... : ... .. . ... ... : G-3 01 8 ... ...
ROW DF : ... .. . P7C ... ... : ... .. . ... ... ... : ... .. . ... : ... .. . ... : ... .. . ... ... : ... .. . ... ... : ... .. . ... ... : ... .. 7 ... ...
ROW E0 : ... .. . P80 ... ... : ... .. . ... ... ... : ... .. . ... : F-# 00 D ... : ... .. . ... ... : ... .. . ... ... : ... .. . ... ... : ... .. 6 ... ...
ROW E1 : ... .. . P84 ... ... : ... .. . ... ... ... : ... .. . ... : D-# 00 6 ... : ... .. . ... ... : ... .. . ... ... : ... .. . ... ... : ... .. 4 ... ...
ROW E2 : ... .. . P86 ... ... : ... .. . ... ... ... : ... .. . ... : 9-# 00 1 ... : ... .. . ... ... : ... .. . ... ... : ... .. . ... ... : ... .. 3 ... ...
ROW E3 : ... .. . P84 ... ... : ... .. . ... ... ... : ... .. . ... : ... .. 0 ... : ... .. . ... ... : ... .. . ... ... : ... .. . ... ... : ... .. 8 ... ...
ROW E4 : ... .. . P80 ... ... : ... .. . ... ... ... : ... .. . ... : ... .. . ... : ... .. . ... ... : ... .. . ... ... : ... .. . ... ... : ... .. 7 ... ...
ROW E5 : ... .. . P7C ... ... : ... .. . ... ... ... : ... .. . ... : ... .. . ... : ... .. . ... ... : ... .. . ... ... : ... .. . ... ... : ... .. 6 ... ...
ROW E6 : ... .. . P7A ... ... : ... .. . ... ... ... : ... .. . ... : ... .. . ... : ... .. . ... ... : ... .. . ... ... : ... .. . ... ... : ... .. 4 ... ...
ROW E7 : ... .. . P7C ... ... : ... .. . ... ... ... : --- .. . ... : ... .. . ... : ... .. . ... ... : ... .. . ... ... : ... .. . ... ... : ... .. 3 ... ...
ROW E8 : E-3 00 F P80 ... ... : A-4 00 C ... ... ... : D-3 00 . ... : 1-# 00 F ... : ... .. . ... ... : D-4 01 4 P80 V03 : A-5 01 6 ... V03 : A-3 01 8 ... ...
ROW E9 : ... .. E ... ... ... : ... .. B ... ... ... : ... .. . ... : ... .. C ... : ... .. . ... ... : ... .. 3 ... V01 : ... .. 5 ... V01 : ... .. 7 ... ...
ROW EA : ... .. D ... ... ... : ... .. A ... ... ... : ... .. . ... : ... .. 6 ... : ... .. . ... ... : ... .. . ... ... : ... .. . ... ... : ... .. 6 ... ...
ROW EB : ... .. A ... ... ... : ... .. 8 ... ... ... : ... .. . ... : ... .. 3 ... : ... .. . ... ... : ... .. . ... ... : ... .. . ... ... : ... .. 4 ... ...
ROW EC : ... .. . ... ... ... : ... .. . ... ... ... : ... .. . ... : ... .. 2 ... : ... .. . ... ... : ... .. . ... ... : ... .. . ... ... : ... .. 3 ... ...
ROW ED : ... .. . ... ... ... : ... .. . ... ... ... : ... .. . ... : C-# 00 8 ... : ... .. . ... ... : G-4 01 4 ... V03 : ... .. . ... ... : ... .. 8 ... ...
ROW EE : ... .. 2 ... ... ... : ... .. 1 ... ... ... : ... .. . ... : ... .. 6 ... : ... .. . ... ... : ... .. 3 ... V01 : ... .. . ... ... : ... .. 7 ... ...
ROW EF : ... .. . ... ... ... : ... .. . ... ... ... : ... .. . ... : ... .. 3 ... : ... .. . ... ... : ... .. . ... ... : ... .. 4 ... ... : ... .. 6 ... ...
ROW F0 : ... .. . ... ... ... : ... .. . ... ... ... : ... .. . ... : ... .. 1 ... : ... .. . ... ... : ... .. . ... ... : ... .. . ... ... : ... .. 4 ... ...
ROW F1 : ... .. 1 ... ... ... : ... .. . ... ... ... : ... .. . ... : ... .. . ... : ... .. . ... ... : ... .. . ... ... : ... .. . ... ... : ... .. 3 ... ...
ROW F2 : C-3 00 F ... ... ... : G-4 00 C ... ... ... : D-2 00 . ... : ... .. F ... : ... .. . ... ... : A-4 01 4 ... V03 : G-5 01 6 ... V03 : E-3 01 8 ... ...
ROW F3 : ... .. E ... ... ... : ... .. B ... ... ... : ... .. . ... : ... .. C ... : ... .. . ... ... : ... .. 3 ... V01 : ... .. 5 ... V01 : ... .. 7 ... ...
ROW F4 : ... .. D ... ... ... : ... .. A ... ... ... : ... .. . ... : ... .. 6 ... : ... .. . ... ... : ... .. . ... ... : ... .. . ... ... : ... .. 6 ... ...
ROW F5 : ... .. A ... ... ... : ... .. 8 ... ... ... : ... .. . ... : ... .. 3 ... : ... .. . ... ... : ... .. . ... ... : ... .. . ... ... : ... .. 4 ... ...
ROW F6 : ... .. 2 ... ... ... : ... .. 1 ... ... ... : ... .. . ... : ... .. 2 ... : ... .. . ... ... : ... .. . ... ... : ... .. . ... ... : ... .. 3 ... ...
ROW F7 : ... .. F ... ... ... : F-4 00 C ... ... ... : ... .. . ... : 1-# 00 F ... : ... .. . ... ... : D-5 01 4 ... V03 : F-5 01 6 ... V03 : ... .. 8 ... ...
ROW F8 : ... .. E ... ... ... : ... .. B ... ... ... : ... .. . ... : ... .. C ... : ... .. . ... ... : ... .. 3 ... V01 : ... .. 5 ... V01 : ... .. 7 ... ...
ROW F9 : ... .. D ... ... ... : ... .. A ... ... ... : ... .. . ... : ... .. 6 ... : ... .. . ... ... : ... .. . ... ... : ... .. . ... ... : ... .. 6 ... ...
ROW FA : ... .. A ... ... ... : ... .. 8 ... ... ... : ... .. . ... : ... .. 3 ... : ... .. . ... ... : ... .. . ... ... : ... .. . ... ... : ... .. 4 ... ...
ROW FB : ... .. 2 ... ... ... : ... .. 1 ... ... ... : ... .. . ... : ... .. 2 ... : ... .. . ... ... : ... .. . ... ... : ... .. . ... ... : ... .. 3 ... ...
ROW FC : G-3 00 F ... ... ... : E-4 00 C ... ... ... : D-3 00 . ... : 3-# 00 D ... : ... .. . ... ... : G-4 01 4 ... V03 : E-5 01 6 ... V03 : F-3 01 8 ... ...
ROW FD : ... .. E ... ... ... : ... .. B ... ... ... : ... .. . ... : ... .. . ... : ... .. . ... ... : ... .. 3 ... V01 : ... .. 5 ... V01 : ... .. 7 ... ...
ROW FE : ... .. D ... ... ... : ... .. A ... ... ... : ... .. . ... : F-# 00 D ... : ... .. . ... ... : ... .. . ... ... : ... .. . ... ... : ... .. 6 ... ...
ROW FF : ... .. A ... ... ... : ... .. 8 ... ... ... : ... .. . ... : D-# 00 6 ... : ... .. . ... ... : ... .. . ... ... : ... .. . ... ... : ... .. 4 ... ...

PATTERN 18
ROW 00 : ... .. . ... ... ... : ... .. . ... ... ... : --- .. . ... : 9-# 00 1 ... : ... .. . ... ... : ... .. . ... ... : ... .. . ... ... : ... .. 3 ... ...
ROW 01 : ... .. . ... ... ... : ... .. . ... ... ... : D-3 00 . ... : ... .. 0 ... : ... .. . ... ... : A-4 01 4 ... V03 : ... .. . ... ... : ... .. 8 ... ...
ROW 02 : ... .. . ... ... ... : ... .. . ... ... ... : ... .. . ... : ... .. . ... : ... .. . ... ... : ... .. 3 ... V01 : ... .. . ... ... : ... .. 7 ... ...
ROW 03 : ... .. . ... ... ... : ... .. . ... ... ... : ... .. . ... : ... .. . ... : ... .. . ... ... : ... .. . ... ... : ... .. 4 ... ... : ... .. 6 ... ...
ROW 04 : ... .. . ... ... ... : ... .. . ... ... ... : ... .. . ... : ... .. . ... : ... .. . ... ... : ... .. . ... ... : ... .. . ... ... : ... .. 4 ... ...
ROW 05 : ... .. . ... ... ... : ... .. . ... ... ... : --- .. . ... : ... .. . ... : ... .. . ... ... : ... .. . ... ... : ... .. . ... ... : ... .. 3 ... ...
ROW 06 : ... .. . ... ... ... : ... .. . ... ... ... : G-3 00 . ... : 1-# 00 F ... : ... .. . ... ... : C-4 01 4 ... V03 : ... .. . ... ... : E-4 01 8 ... ...
ROW 07 : ... .. . ... ... ... : ... .. . ... ... ... : ... .. . ... : ... .. C ... : ... .. . ... ... : ... .. 3 ... V01 : ... .. . ... ... : ... .. 7 ... ...
ROW 08 : ... .. . ... ... ... : ... .. . ... ... ... : ... .. . ... : ... .. 6 ... : ... .. . ... ... : ... .. . ... ... : ... .. . ... ... : ... .. 6 ... ...
ROW 09 : ... .. . ... ... ... : ... .. . ... ... ... : ... .. . ... : ... .. 3 ... : ... .. . ... ... : ... .. . ... ... : ... .. 3 ... ... : ... .. 4 ... ...
ROW 0A : ... .. . ... ... ... : ... .. . ... ... ... : --- .. . ... : ... .. 2 ... : ... .. . ... ... : ... .. . ... ... : ... .. . ... ... : ... .. 3 ... ...
ROW 0B : ... .. . ... ... ... : ... .. . ... ... ... : G-3 00 . ... : C-# 00 7 ... : ... .. . ... ... : D-4 01 4 ... V03 : ... .. . ... ... : ... .. 8 ... ...
ROW 0C : ... .. . ... ... ... : ... .. . ... ... ... : ... .. . ... : ... .. 5 ... : ... .. . ... ... : ... .. 3 ... V01 : ... .. . ... ... : ... .. 7 ... ...
ROW 0D : ... .. . ... ... ... : ... .. . ... ... ... : ... .. . ... : ... .. 2 ... : ... .. . ... ... : ... .. . ... ... : ... .. 2 ... ... : ... .. 6 ... ...
ROW 0E : ... .. . ... ... ... : ... .. . ... ... ... : ... .. . ... : ... .. 1 ... : ... .. . ... ... : ... .. . ... ... : ... .. . ... ... : ... .. 4 ... ...
ROW 0F : ... .. . ... ... ... : ... .. . ... ... ... : --- .. . ... : ... .. . ... : ... .. . ... ... : ... .. . ... ... : ... .. . ... ... : ... .. 3 ... ...
ROW 10 : ... .. . ... ... ... : ... .. . ... ... ... : F-3 00 . ... : 1-# 00 F ... : ... .. . ... ... : G-4 01 4 ... V03 : ... .. . ... ... : G-3 01 8 ... ...
ROW 11 : ... .. . ... ... ... : ... .. . ... ... ... : ... .. . ... : ... .. C ... : ... .. . ... ... : ... .. 3 ... V01 : ... .. . ... ... : ... .. 7 ... ...
ROW 12 : ... .. . ... ... ... : ... .. . ... ... ... : ... .. . ... : ... .. 6 ... : ... .. . ... ... : ... .. . ... ... : ... .. . ... ... : ... .. 6 ... ...
ROW 13 : ... .. . ... ... ... : ... .. . ... ... ... : ... .. . ... : ... .. 3 ... : ... .. . ... ... : ... .. . ... ... : ... .. . ... ... : ... .. 4 ... ...
ROW 14 : ... .. . ... ... ... : ... .. . ... ... ... : --- .. . ... : ... .. 2 ... : ... .. . ... ... : ... .. . ... ... : ... .. . ... ... : ... .. 3 ... ...
ROW 15 : ... .. . ... ... ... : ... .. . ... ... ... : F-3 00 . ... : C-# 00 8 ... : ... .. . ... ... : A-4 01 4 ... V03 : ... .. . ... ... : ... .. 8 ... ...
ROW 16 : ... .. . ... ... ... : ... .. . ... ... ... : ... .. . ... : ... .. 6 ... : ... .. . ... ... : ... .. 3 ... V01 : ... .. . ... ... : ... .. 7 ... ...
ROW 17 : ... .. . ... ... ... : ... .. . ... ... ... : ... .. . ... : ... .. 3 ... : ... .. . ... ... : ... .. . ... ... : ... .. . ... ... : ... .. 6 ... ...
ROW 18 : ... .. . ... ... ... : ... .. . ... ... ... : ... .. . ... : ... .. 1 ... : ... .. . ... ... : ... .. . ... ... : ... .. . ... ... : ... .. 4 ... ...
ROW 19 : ... .. . ... ... ... : ... .. . ... ... ... : --- .. . ... : ... .. . ... : ... .. . ... ... : ... .. . ... ... : ... .. . ... ... : ... .. 3 ... ...
ROW 1A : ... .. . ... ... ... : ... .. . ... ... ... : C-4 00 . ... : ... .. F ... : ... .. . ... ... : D-5 01 4 ... V03 : ... .. . ... ... : A-3 01 8 ... ...
ROW 1B : ... .. . ... ... ... : ... .. . ... ... ... : ... .. . ... : ... .. C ... : ... .. . ... ... : ... .. 3 ... V01 : ... .. . ... ... : ... .. 7 ... ...
ROW 1C : ... .. . ... ... ... : ... .. . ... ... ... : ... .. . ... : ... .. 6 ... : ... .. . ... ... : ... .. . ... ... : ... .. . ... ... : ... .. 6 ... ...
ROW 1D : ... .. . ... ... ... : ... .. . ... ... ... : ... .. . ... : ... .. 3 ... : ... .. . ... ... : ... .. . ... ... : ... .. . ... ... : ... .. 4 ... ...
ROW 1E : ... .. . ... ... ... : ... .. . ... ... ... : --- .. . ... : ... .. 2 ... : ... .. . ... ... : ... .. . ... ... : ... .. . ... ... : ... .. 3 ... ...
ROW 1F : ... .. . ... ... ... : ... .. . ... ... ... : C-4 00 . ... : 1-# 00 F ... : ... .. . ... ... : G-5 01 4 ... V03 : ... .. . ... ... : ... .. 8 ... ...
ROW 20 : ... .. . ... ... ... : ... .. . ... ... ... : ... .. . ... : ... .. C ... : ... .. . ... ... : ... .. 3 ... V01 : ... .. . ... ... : ... .. 7 ... ...
ROW 21 : ... .. . ... ... ... : ... .. . ... ... ... : ... .. . ... : ... .. 6 ... : ... .. . ... ... : ... .. . ... ... : ... .. . ... ... : ... .. 6 ... ...
ROW 22 : ... .. . ... ... ... : ... .. . ... ... ... : ... .. . ... : ... .. 3 ... : ... .. . ... ... : ... .. . ... ... : ... .. . ... ... : ... .. 4 ... ...
ROW 23 : ... .. . ... ... ... : ... .. . ... ... ... : --- .. . ... : ... .. 2 ... : ... .. . ... ... : ... .. . ... ... : ... .. . ... ... : ... .. 3 ... ...
ROW 24 : ... .. . P84 ... ... : ... .. . P84 ... ... : G-3 00 . ... : 3-# 00 D ... : ... .. . ... ... : C-5 01 4 ... V03 : ... .. . ... ... : G-4 01 8 ... ...
ROW 25 : ... .. . P86 ... ... : F-4 00 8 P7C ... ... : ... .. . ... : ... .. . ... : ... .. . ... ... : ... .. 3 ... V01 : ... .. . ... ... : ... .. 7 ... ...
ROW 26 : ... .. . P85 ... ... : E-4 00 8 P85 ... ... : ... .. . ... : F-# 00 D ... : ... .. . ... ... : ... .. . ... ... : ... .. . ... ... : ... .. 6 ... ...
ROW 27 : ... .. . P82 ... ... : ... .. . P82 ... ... : ... .. . ... : D-# 00 6 ... : ... .. . ... ... : ... .. . ... ... : ... .. . ... ... : ... .. 4 ... ...
ROW 28 : ... .. . P7E ... ... : ... .. . P7E ... ... : --- .. . ... : 9-# 00 1 ... : ... .. . ... ... : ... .. . ... ... : ... .. . ... ... : ... .. 3 ... ...
ROW 29 : ... .. . P7B ... ... : D#4 00 8 P85 ... ... : G-3 00 . ... : ... .. 0 ... : ... .. . ... ... : D-5 01 4 ... V03 : ... .. . ... ... : ... .. 8 ... ...
ROW 2A : ... .. . P7A ... ... : ... .. . P84 ... ... : ... .. . ... : ... .. . ... : ... .. . ... ... : ... .. 3 ... V01 : ... .. . ... ... : ... .. 7 ... ...
ROW 2B : ... .. . P7C ... ... : E-4 00 8 P7C ... ... : ... .. . ... : ... .. . ... : ... .. . ... ... : ... .. . ... ... : ... .. . ... ... : ... .. 6 ... ...
ROW 2C : ... .. . P80 ... ... : ... .. . P80 ... ... : ... .. . ... : ... .. . ... : ... .. . ... ... : ... .. . ... ... : ... .. . ... ... : ... .. 4 ... ...
ROW 2D : ... .. 2 P83 ... ... : ... .. . P83 ... ... : --- .. . ... : ... .. . ... : ... .. . ... ... : ... .. . ... ... : ... .. . ... ... : ... .. 3 ... ...
ROW 2E : C-4 00 F P80 V02 ... : F-4 00 8 P7C ... ... : E-4 00 . ... : 1-# 00 F ... : ... .. . ... ... : G-4 01 4 ... V03 : ... .. . ... ... : C-4 01 8 ... ...
ROW 2F : ... .. E ... ... ... : ... .. . ... ... ... : ... .. . ... : ... .. C ... : ... .. . ... ... : ... .. 3 ... V01 : ... .. 1 ... ... : ... .. 7 ... ...
ROW 30 : ... .. D ... ... ... : E-4 00 8 P82 ... ... : ... .. . ... : ... .. 6 ... : ... .. . ... ... : ... .. . ... ... : ... .. . ... ... : ... .. 6 ... ...
ROW 31 : ... .. A ... ... ... : ... .. . P7F ... ... : ... .. . ... : ... .. 3 ... : ... .. . ... ... : ... .. . ... ... : ... .. . ... ... : ... .. 4 ... ...
ROW 32 : ... .. . ... ... ... : D#4 00 8 P85 ... ... : --- .. . ... : ... .. 2 ... : ... .. . ... ... : ... .. . ... ... : ... .. . ... ... : ... .. 3 ... ...
ROW 33 : ... .. . ... ... ... : ... .. . P84 ... ... : E-4 00 . ... : C-# 00 7 ... : ... .. . ... ... : A-4 01 4 ... V03 : ... .. . ... ... : ... .. 8 ... ...
ROW 34 : ... .. . ... ... ... : E-4 00 8 P7C ... ... : ... .. . ... : ... .. 5 ... : ... .. . ... ... : ... .. 3 ... V01 : ... .. . ... ... : ... .. 7 ... ...
ROW 35 : ... .. . ... ... ... : ... .. . P80 ... ... : ... .. . ... : ... .. 2 ... : ... .. . ... ... : ... .. . ... ... : ... .. . ... ... : ... .. 6 ... ...
ROW 36 : ... .. . ... ... ... : ... .. . P83 ... ... : ... .. . ... : ... .. 1 ... : ... .. . ... ... : ... .. . ... ... : ... .. . ... ... : ... .. 4 ... ...
ROW 37 : ... .. . ... ... ... : F-4 00 8 P7C ... ... : --- .. . ... : ... .. . ... : ... .. . ... ... : ... .. . ... ... : ... .. . ... ... : ... .. 3 ... ...
ROW 38 : G-4 00 A ... ... ... : G-3 00 C P80 ... ... : C-4 00 . ... : ... .. F ... : ... .. . ... ... : C-5 01 4 ... V03 : F-3 01 6 ... V03 : D-4 01 8 ... ...
ROW 39 : A-4 00 9 P7F ... ... : ... .. B ... ... ... : ... .. . ... : ... .. C ... : ... .. . ... ... : ... .. 3 ... V01 : ... .. 5 ... V01 : ... .. 7 ... ...
ROW 3A : B-4 00 8 P80 ... ... : ... .. A ... ... ... : ... .. . ... : ... .. 6 ... : ... .. . ... ... : ... .. . ... ... : ... .. . ... ... : ... .. 6 ... ...
ROW 3B : C-5 00 6 ... ... ... : ... .. 8 ... ... ... : ... .. . ... : ... .. 3 ... : ... .. . ... ... : ... .. . ... ... : ... .. . ... ... : ... .. 4 ... ...
ROW 3C : ... .. . ... ... ... : ... .. . ... ... ... : --- .. . ... : ... .. 2 ... : ... .. . ... ... : ... .. . ... ... : ... .. . ... ... : ... .. 3 ... ...
ROW 3D : ... .. . ... ... ... : ... .. . ... ... ... : C-4 00 . ... : 1-# 00 F ... : ... .. . ... ... : D-5 01 4 ... V03 : ... .. . ... ... : ... .. 8 ... ...
ROW 3E : ... .. 1 ... ... ... : ... .. 1 ... ... ... : ... .. . ... : ... .. C ... : ... .. . ... ... : ... .. 3 ... V01 : ... .. . ... ... : ... .. 7 ... ...
ROW 3F : ... .. . ... ... ... : ... .. . ... ... ... : ... .. . ... : ... .. 6 ... : ... .. . ... ... : ... .. . ... ... : ... .. 4 ... ... : ... .. 6 ... ...
ROW 40 : ... .. . ... ... ... : ... .. . ... ... ... : ... .. . ... : ... .. 3 ... : ... .. . ... ... : ... .. . ... ... : ... .. . ... ... : ... .. 4 ... ...
ROW 41 : ... .. . ... ... ... : ... .. . ... ... ... : --- .. . ... : ... .. 2 ... : ... .. . ... ... : ... .. . ... ... : ... .. . ... ... : ... .. 3 ... ...
ROW 42 : A-4 00 A ... ... ... : E-3 00 C ... ... ... : D-4 00 . ... : 3-# 00 D ... : ... .. . ... ... : G-4 01 4 ... V03 : D-3 01 6 ... V03 : A-4 01 8 ... ...
ROW 43 : ... .. 9 ... ... ... : ... .. B ... ... ... : ... .. . ... : ... .. . ... : ... .. . ... ... : ... .. 3 ... V01 : ... .. 5 ... V01 : ... .. 7 ... ...
ROW 44 : ... .. 8 ... ... ... : ... .. A ... ... ... : ... .. . ... : F-# 00 D ... : ... .. . ... ... : ... .. . ... ... : ... .. . ... ... : ... .. 6 ... ...
ROW 45 : ... .. 6 ... ... ... : ... .. 8 ... ... ... : ... .. . ... : D-# 00 6 ... : ... .. . ... ... : ... .. . ... ... : ... .. . ... ... : ... .. 4 ... ...
ROW 46 : ... .. . ... ... ... : ... .. . ... ... ... : --- .. . ... : 9-# 00 1 ... : ... .. . ... ... : ... .. . ... ... : ... .. . ... ... : ... .. 3 ... ...
ROW 47 : ... .. . ... ... ... : ... .. . ... ... ... : D-4 00 . ... : ... .. 0 ... : ... .. . ... ... : A-4 01 4 ... V03 : ... .. . ... ... : ... .. 8 ... ...
ROW 48 : ... .. 1 ... ... ... : ... .. 1 ... ... ... : ... .. . ... : ... .. . ... : ... .. . ... ... : ... .. 3 ... V01 : ... .. . ... ... : ... .. 7 ... ...
ROW 49 : ... .. . ... ... ... : ... .. . ... ... ... : ... .. . ... : ... .. . ... : ... .. . ... ... : ... .. . ... ... : ... .. 4 ... ... : ... .. 6 ... ...
ROW 4A : ... .. . ... ... ... : ... .. . ... ... ... : ... .. . ... : ... .. . ... : ... .. . ... ... : ... .. . ... ... : ... .. . ... ... : ... .. 4 ... ...
ROW 4B : ... .. . ... ... ... : ... .. . ... ... ... : --- .. . ... : ... .. . ... : ... .. . ... ... : ... .. . ... ... : ... .. . ... ... : ... .. 3 ... ...
ROW 4C : G-4 00 A ... ... ... : ... .. C ... ... ... : D-3 00 . ... : 4-# 00 D ... : ... .. . ... ... : F-4 01 4 ... V03 : A-3 01 6 ... V03 : E-4 01 8 ... ...
ROW 4D : ... .. 9 ... ... ... : ... .. B ... ... ... : ... .. . ... : ... .. . ... : ... .. . ... ... : ... .. 3 ... V01 : ... .. 5 ... V01 : ... .. 7 ... ...
ROW 4E : ... .. 8 ... ... ... : ... .. A ... ... ... : ... .. . ... : 0-# 00 D ... : ... .. . ... ... : ... .. . ... ... : ... .. . ... ... : ... .. 6 ... ...
ROW 4F : ... .. 6 ... ... ... : ... .. 8 ... ... ... : ... .. . ... : E-# 00 6 ... : ... .. . ... ... : ... .. . ... ... : ... .. . ... ... : ... .. 4 ... ...
ROW 50 : ... .. . ... ... ... : ... .. . ... ... ... : --- .. . ... : A-# 00 1 ... : ... .. . ... ... : ... .. . ... ... : ... .. . ... ... : ... .. 3 ... ...
ROW 51 : ... .. . ... ... ... : ... .. . ... ... ... : D-3 00 . ... : 4-# 00 D ... : ... .. . ... ... : C-4 01 4 ... V03 : ... .. . ... ... : ... .. 8 ... ...
ROW 52 : ... .. . ... ... ... : ... .. . ... ... ... : ... .. . ... : ... .. . ... : ... .. . ... ... : ... .. 3 ... V01 : ... .. . ... ... : ... .. 7 ... ...
ROW 53 : ... .. . ... ... ... : ... .. . ... ... ... : ... .. . ... : 0-# 00 D ... : ... .. . ... ... : ... .. . ... ... : ... .. 4 ... ... : ... .. 6 ... ...
ROW 54 : ... .. . ... ... ... : ... .. . ... ... ... : ... .. . ... : E-# 00 6 ... : ... .. . ... ... : ... .. . ... ... : ... .. . ... ... : ... .. 4 ... ...
ROW 55 : ... .. . ... ... ... : ... .. . ... ... ... : --- .. . ... : A-# 00 1 ... : ... .. . ... ... : ... .. . ... ... : ... .. . ... ... : ... .. 3 ... ...
ROW 56 : ... .. . ... ... ... : ... .. . ... ... ... : D-2 00 . ... : B-# 00 D ... : ... .. . ... ... : D-4 01 4 ... V03 : ... .. . ... ... : F-4 01 8 ... ...
ROW 57 : ... .. . ... ... ... : ... .. . ... ... ... : ... .. . ... : ... .. . ... : ... .. . ... ... : ... .. 3 ... V01 : ... .. . ... ... : ... .. 7 ... ...
ROW 58 : ... .. . ... ... ... : ... .. . ... ... ... : ... .. . ... : 7-# 00 D ... : ... .. . ... ... : ... .. . ... ... : ... .. . ... ... : ... .. 6 ... ...
ROW 59 : ... .. . ... ... ... : ... .. . ... ... ... : ... .. . ... : 5-# 00 6 ... : ... .. . ... ... : ... .. . ... ... : ... .. 3 ... ... : ... .. 4 ... ...
ROW 5A : ... .. . ... ... ... : ... .. . ... ... ... : --- .. . ... : 1-# 00 1 ... : ... .. . ... ... : ... .. . ... ... : ... .. . ... ... : ... .. 3 ... ...
ROW 5B : ... .. . ... ... ... : ... .. . ... ... ... : D-2 00 . ... : B-# 00 D ... : ... .. . ... ... : F-4 01 4 ... V03 : ... .. . ... ... : ... .. 8 ... ...
ROW 5C : ... .. . ... ... ... : ... .. . ... ... ... : ... .. . ... : ... .. . ... : ... .. . ... ... : ... .. 3 ... V01 : ... .. . ... ... : ... .. 7 ... ...
ROW 5D : ... .. . ... ... ... : ... .. . ... ... ... : ... .. . ... : 7-# 00 D ... : ... .. . ... ... : ... .. . ... ... : ... .. 2 ... ... : ... .. 6 ... ...
ROW 5E : ... .. . ... ... ... : ... .. . ... ... ... : ... .. . ... : 5-# 00 6 ... : ... .. . ... ... : ... .. . ... ... : ... .. . ... ... : ... .. 4 ... ...
ROW 5F : ... .. . ... ... ... : ... .. . ... ... ... : --- .. . ... : 1-# 00 1 ... : ... .. . ... ... : ... .. . ... ... : ... .. . ... ... : ... .. 3 ... ...
ROW 60 : G#4 00 6 ... ... ... : ... .. . P88 ... ... : C-3 00 . ... : 3-# 00 D ... : ... .. . ... ... : G-4 01 4 ... V03 : ... .. . ... ... : C-5 01 8 ... ...
ROW 61 : A-4 00 6 P7D ... ... : F-3 00 8 P7A ... ... : ... .. . ... : ... .. . ... : ... .. . ... ... : ... .. 3 ... V01 : ... .. . ... ... : ... .. 7 ... ...
ROW 62 : G#4 00 6 P83 ... ... : ... .. . P78 ... ... : ... .. . ... : F-# 00 D ... : ... .. . ... ... : ... .. . ... ... : ... .. . ... ... : ... .. 6 ... ...
ROW 63 : G-4 00 6 P84 ... ... : E-3 00 8 P84 ... ... : ... .. . ... : D-# 00 6 ... : ... .. . ... ... : ... .. . ... ... : ... .. . ... ... : ... .. 4 ... ...
ROW 64 : F#4 00 6 ... ... ... : ... .. . P7C ... ... : --- .. . ... : 9-# 00 1 ... : ... .. . ... ... : ... .. . ... ... : ... .. . ... ... : ... .. 3 ... ...
ROW 65 : ... .. . P7D ... ... : D#3 00 8 P8A ... ... : C-3 00 . ... : 3-# 00 D ... : ... .. . ... ... : A-4 01 4 ... V03 : ... .. . ... ... : ... .. 8 ... ...
ROW 66 : F-4 00 6 P84 ... ... : ... .. . P88 ... ... : ... .. . ... : ... .. . ... : ... .. . ... ... : ... .. 3 ... V01 : ... .. . ... ... : ... .. 7 ... ...
ROW 67 : F#4 00 6 P80 ... ... : E-3 00 8 P78 ... ... : ... .. . ... : F-# 00 D ... : ... .. . ... ... : ... .. . ... ... : ... .. . ... ... : ... .. 6 ... ...
ROW 68 : G-4 00 6 ... ... ... : ... .. . P80 ... ... : ... .. . ... : D-# 00 6 ... : ... .. . ... ... : ... .. . ... ... : ... .. . ... ... : ... .. 4 ... ...
ROW 69 : G#4 00 6 P7F ... ... : ... .. . P87 ... ... : --- .. . ... : 9-# 00 1 ... : ... .. . ... ... : ... .. . ... ... : ... .. . ... ... : ... .. 3 ... ...
ROW 6A : A-4 00 6 P7D ... ... : F-3 00 8 P7A ... ... : D-3 00 . ... : 2-# 00 F ... : ... .. . ... ... : F-4 01 4 ... V03 : ... .. . ... ... : A-4 01 8 ... ...
ROW 6B : G#4 00 6 P84 ... ... : ... .. . P79 ... ... : ... .. . ... : ... .. C ... : ... .. . ... ... : ... .. 3 ... V01 : ... .. . ... ... : ... .. 7 ... ...
ROW 6C : ... .. . P7D ... ... : E-3 00 8 P85 ... ... : ... .. . ... : ... .. 6 ... : ... .. . ... ... : ... .. . ... ... : ... .. . ... ... : ... .. 6 ... ...
ROW 6D : G-4 00 6 P7E ... ... : ... .. . P7E ... ... : ... .. . ... : ... .. 3 ... : ... .. . ... ... : ... .. . ... ... : ... .. . ... ... : ... .. 4 ... ...
ROW 6E : F#4 00 6 ... ... ... : ... .. . P76 ... ... : --- .. . ... : ... .. 2 ... : ... .. . ... ... : ... .. . ... ... : ... .. . ... ... : ... .. 3 ... ...
ROW 6F : F-4 00 6 P84 ... ... : D#3 00 8 P88 ... ... : D-3 00 . ... : ... .. F ... : ... .. . ... ... : G-4 01 4 ... V03 : ... .. . ... ... : ... .. 8 ... ...
ROW 70 : F#4 00 1 P7F ... ... : E-3 00 1 P77 ... ... : ... .. . ... : ... .. C ... : ... .. . ... ... : ... .. 3 ... V01 : ... .. . ... ... : ... .. 7 ... ...
ROW 71 : G-4 00 1 ... ... ... : ... .. . P7F ... ... : ... .. . ... : ... .. 6 ... : ... .. . ... ... : ... .. . ... ... : ... .. . ... ... : ... .. 6 ... ...
ROW 72 : G#4 00 1 P7E ... ... : ... .. . P86 ... ... : ... .. . ... : ... .. 3 ... : ... .. . ... ... : ... .. . ... ... : ... .. . ... ... : ... .. 4 ... ...
ROW 73 : ... .. . P84 ... ... : F-3 00 1 P79 ... ... : --- .. . ... : ... .. 2 ... : ... .. . ... ... : ... .. . ... ... : ... .. . ... ... : ... .. 3 ... ...
ROW 74 : D-4 00 F P80 V00 ... : E-3 00 1 P80 ... ... : F-3 00 . ... : 8-# 00 F ... : ... .. . ... ... : D-4 01 4 ... V03 : ... .. . ... ... : D-5 01 8 ... ...
ROW 75 : ... .. E ... ... ... : ... .. . ... ... ... : ... .. . ... : ... .. C ... : ... .. . ... ... : ... .. 3 ... V01 : ... .. . ... ... : ... .. 7 ... ...
ROW 76 : ... .. D ... ... ... : ... .. 0 ... ... ... : ... .. . ... : ... .. 6 ... : ... .. . ... ... : ... .. . ... ... : ... .. . ... ... : ... .. 6 ... ...
ROW 77 : ... .. A ... ... ... : ... .. . ... ... ... : ... .. . ... : ... .. 3 ... : ... .. . ... ... : ... .. . ... ... : ... .. . ... ... : ... .. 4 ... ...
ROW 78 : ... .. 2 ... ... ... : ... .. . ... ... ... : --- .. . ... : ... .. 2 ... : ... .. . ... ... : ... .. . ... ... : ... .. . ... ... : ... .. 3 ... ...
ROW 79 : E-4 00 F ... ... ... : ... .. . ... ... ... : F-3 00 . ... : ... .. F ... : ... .. . ... ... : G-3 01 4 ... V03 : ... .. . ... ... : C-5 01 8 ... ...
ROW 7A : ... .. E ... ... ... : ... .. . ... ... ... : ... .. . ... : ... .. C ... : ... .. . ... ... : ... .. 3 ... V01 : ... .. . ... ... : ... .. 7 ... ...
ROW 7B : ... .. D ... ... ... : ... .. . ... ... ... : ... .. . ... : ... .. 6 ... : ... .. . ... ... : ... .. . ... ... : ... .. . ... ... : ... .. 6 ... ...
ROW 7C : ... .. A ... ... ... : ... .. . ... ... ... : ... .. . ... : ... .. 3 ... : ... .. . ... ... : ... .. . ... ... : ... .. . ... ... : ... .. 4 ... ...
ROW 7D : ... .. 2 ... ... ... : ... .. . ... ... ... : --- .. . ... : ... .. 2 ... : ... .. . ... ... : ... .. . ... ... : ... .. . ... ... : ... .. 3 ... ...
ROW 7E : F-4 00 F ... ... ... : ... .. . ... ... ... : E-3 00 . ... : F-# 00 F ... : ... .. . ... ... : A-3 01 4 ... V03 : ... .. . ... ... : A#4 01 8 ... ...
ROW 7F : ... .. E ... ... ... : ... .. . ... ... ... : ... .. . ... : ... .. C ... : ... .. . ... ... : ... .. 3 ... V01 : ... .. 1 ... ... : ... .. 7 ... ...
ROW 80 : ... .. D ... ... ... : ... .. . ... ... ... : ... .. . ... : ... .. 6 ... : ... .. . ... ... : ... .. . ... ... : ... .. . ... ... : ... .. 6 ... ...
ROW 81 : ... .. A ... ... ... : ... .. . ... ... ... : ... .. . ... : ... .. 3 ... : ... .. . ... ... : ... .. . ... ... : ... .. . ... ... : ... .. 4 ... ...
ROW 82 : ... .. 2 ... ... ... : ... .. . ... ... ... : --- .. . ... : ... .. 2 ... : ... .. . ... ... : ... .. . ... ... : ... .. . ... ... : ... .. 3 ... ...
ROW 83 : G-4 00 F ... ... ... : ... .. . ... ... ... : E-3 00 . ... : ... .. F ... : ... .. . ... ... : C-4 01 4 ... V03 : ... .. . ... ... : A-4 01 8 ... ...
ROW 84 : ... .. E ... ... ... : ... .. . ... ... ... : ... .. . ... : ... .. C ... : ... .. . ... ... : ... .. 3 ... V01 : ... .. . ... ... : ... .. 7 ... ...
ROW 85 : ... .. D ... ... ... : ... .. . ... ... ... : ... .. . ... : ... .. 6 ... : ... .. . ... ... : ... .. . ... ... : ... .. . ... ... : ... .. 6 ... ...
ROW 86 : ... .. A ... ... ... : ... .. . ... ... ... : ... .. . ... : ... .. 3 ... : ... .. . ... ... : ... .. . ... ... : ... .. . ... ... : ... .. 4 ... ...
ROW 87 : ... .. 2 ... ... ... : ... .. . ... ... ... : --- .. . ... : ... .. 2 ... : ... .. . ... ... : ... .. . ... ... : ... .. . ... ... : ... .. 3 ... ...
ROW 88 : A-4 00 F ... ... ... : D-4 00 8 P80 ... ... : D#3 00 . ... : 1-# 00 F ... : ... .. . ... ... : A#3 01 6 P81 V03 : D-4 01 6 ... V03 : G-4 01 8 ... ...
ROW 89 : ... .. E ... ... ... : ... .. 7 ... ... ... : ... .. . ... : ... .. C ... : ... .. . ... ... : ... .. 5 ... V01 : ... .. 5 ... V01 : ... .. 7 ... ...
ROW 8A : ... .. D ... ... ... : ... .. . ... ... ... : ... .. . ... : ... .. 6 ... : ... .. . ... ... : ... .. . ... ... : ... .. . ... ... : ... .. 6 ... ...
ROW 8B : ... .. A ... ... ... : ... .. 6 ... ... ... : ... .. . ... : ... .. 3 ... : ... .. . ... ... : ... .. . ... ... : ... .. . ... ... : ... .. 4 ... ...
ROW 8C : ... .. . ... ... ... : ... .. 5 ... ... ... : ... .. . ... : ... .. 2 ... : ... .. . ... ... : ... .. . ... ... : ... .. . ... ... : ... .. 3 ... ...
ROW 8D : ... .. . ... ... ... : A#3 00 8 ... ... ... : D-3 00 . P75 : C-# 00 8 ... : ... .. . ... ... : ... .. . ... ... : ... .. . ... ... : ... .. 8 ... ...
ROW 8E : ... .. . ... ... ... : ... .. 7 ... ... ... : C-3 00 . P84 : ... .. 6 ... : ... .. . ... ... : ... .. . ... ... : ... .. . ... ... : ... .. 7 ... ...
ROW 8F : ... .. . ... ... ... : ... .. . ... ... ... : B-2 00 . P7D : ... .. 3 ... : ... .. . ... ... : ... .. 4 ... ... : ... .. 4 ... ... : ... .. 6 ... ...
ROW 90 : ... .. . ... ... ... : ... .. 6 ... ... ... : A#2 00 . P78 : ... .. 1 ... : ... .. . ... ... : ... .. . ... ... : ... .. . ... ... : ... .. 4 ... ...
ROW 91 : ... .. . ... ... ... : ... .. 5 ... ... ... : A-2 00 . P74 : ... .. . ... : ... .. . ... ... : ... .. . ... ... : ... .. . ... ... : ... .. 3 ... ...
ROW 92 : ... .. . ... ... ... : G-3 00 8 ... ... ... : D#2 00 . P80 : ... .. F ... : ... .. . ... ... : ... .. . ... ... : ... .. . ... ... : G-3 01 8 ... ...
ROW 93 : ... .. . ... ... ... : ... .. 7 ... ... ... : ... .. . ... : ... .. C ... : ... .. . ... ... : ... .. . ... ... : ... .. . ... ... : ... .. 7 ... ...
ROW 94 : ... .. . ... ... ... : ... .. . ... ... ... : ... .. . ... : ... .. 6 ... : ... .. . ... ... : ... .. . ... ... : ... .. . ... ... : ... .. 6 ... ...
ROW 95 : ... .. . ... ... ... : ... .. 6 ... ... ... : ... .. . ... : ... .. 3 ... : ... .. . ... ... : ... .. 3 ... ... : ... .. 3 ... ... : ... .. 4 ... ...
ROW 96 : ... .. . ... ... ... : ... .. 5 ... ... ... : --- .. . ... : ... .. 2 ... : ... .. . ... ... : ... .. . ... ... : ... .. . ... ... : ... .. 3 ... ...
ROW 97 : ... .. . ... ... ... : ... .. 4 ... ... ... : D#2 00 . ... : 1-# 00 F ... : ... .. . ... ... : ... .. . ... ... : ... .. . ... ... : ... .. 8 ... ...
ROW 98 : ... .. . ... ... ... : ... .. . ... ... ... : ... .. . ... : ... .. C ... : ... .. . ... ... : ... .. . ... ... : ... .. . ... ... : ... .. 7 ... ...
ROW 99 : ... .. . ... ... ... : ... .. . ... ... ... : ... .. . ... : ... .. 6 ... : ... .. . ... ... : ... .. 2 ... ... : ... .. 2 ... ... : ... .. 6 ... ...
ROW 9A : ... .. . ... ... ... : ... .. 3 ... ... ... : ... .. . ... : ... .. 3 ... : ... .. . ... ... : ... .. . ... ... : ... .. . ... ... : ... .. 4 ... ...
ROW 9B : ... .. . ... ... ... : ... .. . ... ... ... : --- .. . ... : ... .. 2 ... : ... .. . ... ... : ... .. . ... ... : ... .. . ... ... : ... .. 3 ... ...
ROW 9C : A#4 00 F ... ... ... : F-4 00 8 ... ... ... : D#2 00 . ... : 3-# 00 D ... : ... .. . ... ... : ... .. . ... ... : ... .. . ... ... : A-3 01 8 ... ...
ROW 9D : ... .. E ... ... ... : ... .. 7 ... ... ... : ... .. . ... : ... .. . ... : ... .. . ... ... : ... .. . ... ... : ... .. . ... ... : ... .. 7 ... ...
ROW 9E : ... .. D ... ... ... : ... .. . ... ... ... : ... .. . ... : F-# 00 D ... : ... .. . ... ... : ... .. . ... ... : ... .. . ... ... : ... .. 6 ... ...
ROW 9F : ... .. A ... ... ... : ... .. 6 ... ... ... : ... .. . ... : D-# 00 6 ... : ... .. . ... ... : ... .. . ... ... : ... .. . ... ... : ... .. 4 ... ...
ROW A0 : ... .. 2 ... ... ... : ... .. 5 ... ... ... : ... .. . ... : 9-# 00 1 ... : ... .. . ... ... : ... .. . ... ... : ... .. . ... ... : ... .. 3 ... ...
ROW A1 : A-4 00 F ... ... ... : D-4 00 8 ... ... ... : ... .. . ... : ... .. 0 ... : ... .. . ... ... : ... .. . ... ... : ... .. . ... ... : ... .. 8 ... ...
ROW A2 : ... .. E ... ... ... : ... .. 7 ... ... ... : ... .. . ... : ... .. . ... : ... .. . ... ... : ... .. . ... ... : ... .. . ... ... : ... .. 7 ... ...
ROW A3 : ... .. D ... ... ... : ... .. . ... ... ... : ... .. . ... : ... .. . ... : ... .. . ... ... : ... .. . ... ... : ... .. . ... ... : ... .. 6 ... ...
ROW A4 : ... .. A ... ... ... : ... .. 6 ... ... ... : ... .. . ... : ... .. . ... : ... .. . ... ... : ... .. . ... ... : ... .. . ... ... : ... .. 4 ... ...
ROW A5 : ... .. 2 ... ... ... : ... .. 5 ... ... ... : --- .. . ... : ... .. . ... : ... .. . ... ... : ... .. . ... ... : ... .. . ... ... : ... .. 3 ... ...
ROW A6 : G-4 00 F ... ... ... : A#3 00 8 ... ... ... : D#3 00 . ... : 1-# 00 F ... : ... .. . ... ... : C-4 01 6 ... V03 : F-4 01 6 ... V03 : F-4 01 8 ... ...
ROW A7 : ... .. E ... ... ... : ... .. 7 ... ... ... : ... .. . ... : ... .. C ... : ... .. . ... ... : ... .. 5 ... V01 : ... .. 5 ... V01 : ... .. 7 ... ...
ROW A8 : ... .. D ... ... ... : ... .. . ... ... ... : ... .. . ... : ... .. 6 ... : ... .. . ... ... : ... .. . ... ... : ... .. . ... ... : ... .. 6 ... ...
ROW A9 : ... .. A ... ... ... : ... .. 6 ... ... ... : ... .. . ... : ... .. 3 ... : ... .. . ... ... : ... .. . ... ... : ... .. . ... ... : ... .. 4 ... ...
ROW AA : ... .. . ... ... ... : ... .. 5 ... ... ... : ... .. . ... : ... .. 2 ... : ... .. . ... ... : ... .. . ... ... : ... .. . ... ... : ... .. 3 ... ...
ROW AB : ... .. . ... ... ... : ... .. 4 ... ... ... : D-3 00 . P75 : C-# 00 7 ... : ... .. . ... ... : ... .. . ... ... : ... .. . ... ... : ... .. 8 ... ...
ROW AC : ... .. . ... ... ... : ... .. . ... ... ... : C-3 00 . P84 : ... .. 5 ... : ... .. . ... ... : ... .. . ... ... : ... .. . ... ... : ... .. 7 ... ...
ROW AD : ... .. . ... ... ... : ... .. . ... ... ... : B-2 00 . P7D : ... .. 2 ... : ... .. . ... ... : ... .. 4 ... ... : ... .. 4 ... ... : ... .. 6 ... ...
ROW AE : ... .. . ... ... ... : ... .. 3 ... ... ... : A#2 00 . P78 : ... .. 1 ... : ... .. . ... ... : ... .. . ... ... : ... .. . ... ... : ... .. 4 ... ...
ROW AF : ... .. . ... ... ... : ... .. . ... ... ... : A-2 00 . P74 : ... .. . ... : ... .. . ... ... : ... .. . ... ... : ... .. . ... ... : ... .. 3 ... ...
ROW B0 : ... .. . ... ... ... : A-4 00 8 ... ... ... : D#2 00 . P80 : ... .. F ... : ... .. . ... ... : ... .. . ... ... : ... .. . ... ... : G-3 01 8 ... ...
ROW B1 : ... .. . ... ... ... : ... .. 7 ... ... ... : ... .. . ... : ... .. C ... : ... .. . ... ... : ... .. . ... ... : ... .. . ... ... : ... .. 7 ... ...
ROW B2 : ... .. . ... ... ... : ... .. . ... ... ... : ... .. . ... : ... .. 6 ... : ... .. . ... ... : ... .. . ... ... : ... .. . ... ... : ... .. 6 ... ...
ROW B3 : ... .. . ... ... ... : ... .. 6 ... ... ... : ... .. . ... : ... .. 3 ... : ... .. . ... ... : ... .. 3 ... ... : ... .. 3 ... ... : ... .. 4 ... ...
ROW B4 : ... .. . ... ... ... : ... .. 5 ... ... ... : --- .. . ... : ... .. 2 ... : ... .. . ... ... : ... .. . ... ... : ... .. . ... ... : ... .. 3 ... ...
ROW B5 : ... .. . ... ... ... : F-4 00 8 ... ... ... : D#2 00 . ... : 1-# 00 F ... : ... .. . ... ... : ... .. . ... ... : ... .. . ... ... : ... .. 8 ... ...
ROW B6 : ... .. . ... ... ... : ... .. 7 ... ... ... : ... .. . ... : ... .. C ... : ... .. . ... ... : ... .. . ... ... : ... .. . ... ... : ... .. 7 ... ...
ROW B7 : ... .. . ... ... ... : ... .. . ... ... ... : ... .. . ... : ... .. 6 ... : ... .. . ... ... : ... .. 2 ... ... : ... .. 2 ... ... : ... .. 6 ... ...
ROW B8 : ... .. . ... ... ... : ... .. 6 ... ... ... : ... .. . ... : ... .. 3 ... : ... .. . ... ... : ... .. . ... ... : ... .. . ... ... : ... .. 4 ... ...
ROW B9 : ... .. . ... ... ... : ... .. 5 ... ... ... : --- .. . ... : ... .. 2 ... : ... .. . ... ... : ... .. . ... ... : ... .. . ... ... : ... .. 3 ... ...
ROW BA : ... .. . ... ... ... : A#3 00 8 ... ... ... : D#2 00 . ... : 3-# 00 D ... : ... .. . ... ... : ... .. . ... ... : ... .. . ... ... : A-3 01 8 ... ...
ROW BB : ... .. . ... ... ... : ... .. 7 ... ... ... : ... .. . ... : ... .. . ... : ... .. . ... ... : ... .. . ... ... : ... .. . ... ... : ... .. 7 ... ...
ROW BC : ... .. . ... ... ... : ... .. . ... ... ... : ... .. . ... : F-# 00 D ... : ... .. . ... ... : ... .. . ... ... : ... .. . ... ... : ... .. 6 ... ...
ROW BD : ... .. . ... ... ... : ... .. 6 ... ... ... : ... .. . ... : D-# 00 6 ... : ... .. . ... ... : ... .. . ... ... : ... .. . ... ... : ... .. 4 ... ...
ROW BE : ... .. 2 ... ... ... : ... .. 5 ... ... ... : ... .. . ... : 9-# 00 1 ... : ... .. . ... ... : ... .. . ... ... : ... .. . ... ... : ... .. 3 ... ...
ROW BF : ... .. . ... ... ... : ... .. 4 ... ... ... : ... .. . ... : ... .. 0 ... : ... .. . ... ... : ... .. . ... ... : ... .. . ... ... : ... .. 8 ... ...
ROW C0 : ... .. . ... ... ... : ... .. . ... ... ... : ... .. . ... : ... .. . ... : ... .. . ... ... : ... .. . ... ... : ... .. . ... ... : ... .. 7 ... ...
ROW C1 : ... .. 1 ... ... ... : ... .. . ... ... ... : ... .. . ... : ... .. . ... : ... .. . ... ... : ... .. . ... ... : ... .. . ... ... : ... .. 6 ... ...
ROW C2 : ... .. . ... ... ... : ... .. 3 ... ... ... : ... .. . ... : ... .. . ... : ... .. . ... ... : ... .. . ... ... : ... .. . ... ... : ... .. 4 ... ...
ROW C3 : ... .. . ... ... ... : ... .. . ... ... ... : --- .. . ... : ... .. . ... : ... .. . ... ... : ... .. . ... ... : ... .. . ... ... : ... .. 3 ... ...
ROW C4 : F-4 00 F ... ... ... : D-5 00 8 ... ... ... : D#3 00 . ... : 1-# 00 F ... : ... .. . ... ... : G-3 01 6 ... V03 : D-4 01 6 ... V03 : F-4 01 8 ... ...
ROW C5 : ... .. E ... ... ... : ... .. 7 ... ... ... : ... .. . ... : ... .. C ... : ... .. . ... ... : ... .. 5 ... V01 : ... .. 5 ... V01 : ... .. 7 ... ...
ROW C6 : ... .. D ... ... ... : ... .. . ... ... ... : ... .. . ... : ... .. 6 ... : ... .. . ... ... : ... .. . ... ... : ... .. . ... ... : ... .. 6 ... ...
ROW C7 : ... .. A ... ... ... : ... .. 6 ... ... ... : ... .. . ... : ... .. 3 ... : ... .. . ... ... : ... .. . ... ... : ... .. . ... ... : ... .. 4 ... ...
ROW C8 : ... .. . ... ... ... : ... .. 5 ... ... ... : ... .. . ... : ... .. 2 ... : ... .. . ... ... : ... .. . ... ... : ... .. . ... ... : ... .. 3 ... ...
ROW C9 : ... .. . ... ... ... : A#4 00 8 ... ... ... : D-3 00 . P75 : C-# 00 8 ... : ... .. . ... ... : ... .. . ... ... : ... .. . ... ... : ... .. 8 ... ...
ROW CA : ... .. . ... ... ... : ... .. 7 ... ... ... : C-3 00 . P84 : ... .. 6 ... : ... .. . ... ... : ... .. . ... ... : ... .. . ... ... : ... .. 7 ... ...
ROW CB : ... .. . ... ... ... : ... .. . ... ... ... : B-2 00 . P7D : ... .. 3 ... : ... .. . ... ... : ... .. 4 ... ... : ... .. 4 ... ... : ... .. 6 ... ...
ROW CC : ... .. . ... ... ... : ... .. 6 ... ... ... : A#2 00 . P78 : ... .. 1 ... : ... .. . ... ... : ... .. . ... ... : ... .. . ... ... : ... .. 4 ... ...
ROW CD : ... .. . ... ... ... : ... .. 5 ... ... ... : A-2 00 . P74 : ... .. . ... : ... .. . ... ... : ... .. . ... ... : ... .. . ... ... : ... .. 3 ... ...
ROW CE : ... .. . ... ... ... : G-4 00 8 ... ... ... : D#2 00 . P80 : ... .. F ... : ... .. . ... ... : ... .. . ... ... : ... .. . ... ... : G-3 01 8 ... ...
ROW CF : ... .. . ... ... ... : ... .. 7 ... ... ... : ... .. . ... : ... .. C ... : ... .. . ... ... : ... .. . ... ... : ... .. . ... ... : ... .. 7 ... ...
ROW D0 : ... .. . ... ... ... : ... .. . ... ... ... : ... .. . ... : ... .. 6 ... : ... .. . ... ... : ... .. . ... ... : ... .. . ... ... : ... .. 6 ... ...
ROW D1 : ... .. . ... ... ... : ... .. 6 ... ... ... : ... .. . ... : ... .. 3 ... : ... .. . ... ... : ... .. 3 ... ... : ... .. 3 ... ... : ... .. 4 ... ...
ROW D2 : ... .. . ... ... ... : ... .. 5 ... ... ... : --- .. . ... : ... .. 2 ... : ... .. . ... ... : ... .. . ... ... : ... .. . ... ... : ... .. 3 ... ...
ROW D3 : ... .. . ... ... ... : ... .. 4 ... ... ... : D#2 00 . ... : 1-# 00 F ... : ... .. . ... ... : ... .. . ... ... : ... .. . ... ... : ... .. 8 ... ...
ROW D4 : ... .. 2 ... ... ... : ... .. . ... ... ... : ... .. . ... : ... .. C ... : ... .. . ... ... : ... .. . ... ... : ... .. . ... ... : ... .. 7 ... ...
ROW D5 : ... .. . ... ... ... : ... .. . ... ... ... : ... .. . ... : ... .. 6 ... : ... .. . ... ... : ... .. 2 ... ... : ... .. 2 ... ... : ... .. 6 ... ...
ROW D6 : ... .. . ... ... ... : ... .. 3 ... ... ... : ... .. . ... : ... .. 3 ... : ... .. . ... ... : ... .. . ... ... : ... .. . ... ... : ... .. 4 ... ...
ROW D7 : ... .. 1 ... ... ... : ... .. . ... ... ... : --- .. . ... : ... .. 2 ... : ... .. . ... ... : ... .. . ... ... : ... .. . ... ... : ... .. 3 ... ...
ROW D8 : G-4 00 F ... ... ... : ... .. 2 ... ... ... : D#2 00 . ... : 3-# 00 D ... : ... .. . ... ... : ... .. . ... ... : ... .. . ... ... : A-3 01 8 ... ...
ROW D9 : ... .. E ... ... ... : ... .. . ... ... ... : ... .. . ... : ... .. . ... : ... .. . ... ... : ... .. . ... ... : ... .. . ... ... : ... .. 7 ... ...
ROW DA : ... .. D ... ... ... : ... .. . ... ... ... : ... .. . ... : F-# 00 D ... : ... .. . ... ... : ... .. . ... ... : ... .. . ... ... : ... .. 6 ... ...
ROW DB : ... .. A ... ... ... : ... .. 1 ... ... ... : ... .. . ... : D-# 00 6 ... : ... .. . ... ... : ... .. . ... ... : ... .. . ... ... : ... .. 4 ... ...
ROW DC : ... .. 2 ... ... ... : ... .. . ... ... ... : ... .. . ... : 9-# 00 1 ... : ... .. . ... ... : ... .. . ... ... : ... .. . ... ... : ... .. 3 ... ...
ROW DD : F-4 00 F ... ... ... : ... .. . ... ... ... : ... .. . ... : ... .. 0 ... : ... .. . ... ... : ... .. . ... ... : ... .. . ... ... : ... .. 8 ... ...
ROW DE : ... .. E ... ... ... : ... .. 0 ... ... ... : ... .. . ... : ... .. . ... : ... .. . ... ... : ... .. . ... ... : ... .. . ... ... : ... .. 7 ... ...
ROW DF : ... .. D ... ... ... : ... .. . ... ... ... : ... .. . ... : ... .. . ... : ... .. . ... ... : ... .. . ... ... : ... .. . ... ... : ... .. 6 ... ...
ROW E0 : ... .. A ... ... ... : ... .. . ... ... ... : ... .. . ... : ... .. . ... : ... .. . ... ... : ... .. . ... ... : ... .. . ... ... : ... .. 4 ... ...
ROW E1 : ... .. 2 ... ... ... : ... .. . ... ... ... : --- .. . ... : ... .. . ... : ... .. . ... ... : ... .. . ... ... : ... .. . ... ... : ... .. 3 ... ...
ROW E2 : D#4 00 F ... ... ... : ... .. . ... ... ... : D#3 00 . ... : 1-# 00 F ... : ... .. . ... ... : D-3 01 6 ... V03 : G-3 01 6 ... V03 : D#4 01 8 ... ...
ROW E3 : ... .. E ... ... ... : ... .. . ... ... ... : ... .. . ... : ... .. C ... : ... .. . ... ... : ... .. 5 ... V01 : ... .. 5 ... V01 : ... .. 7 ... ...
ROW E4 : ... .. D ... ... ... : ... .. . ... ... ... : ... .. . ... : ... .. 6 ... : ... .. . ... ... : ... .. . ... ... : ... .. . ... ... : ... .. 6 ... ...
ROW E5 : ... .. A ... ... ... : ... .. . ... ... ... : ... .. . ... : ... .. 3 ... : ... .. . ... ... : ... .. . ... ... : ... .. . ... ... : ... .. 4 ... ...
ROW E6 : ... .. . ... ... ... : ... .. . ... ... ... : ... .. . ... : ... .. 2 ... : ... .. . ... ... : ... .. . ... ... : ... .. . ... ... : ... .. 3 ... ...
ROW E7 : ... .. . ... ... ... : ... .. . ... ... ... : D-3 00 . P75 : C-# 00 7 ... : ... .. . ... ... : ... .. . ... ... : ... .. . ... ... : ... .. 8 ... ...
ROW E8 : ... .. . ... ... ... : ... .. . ... ... ... : C-3 00 . P84 : ... .. 5 ... : ... .. . ... ... : ... .. . ... ... : ... .. . ... ... : ... .. 7 ... ...
ROW E9 : ... .. . ... ... ... : ... .. . ... ... ... : B-2 00 . P7D : ... .. 2 ... : ... .. . ... ... : ... .. 4 ... ... : ... .. 4 ... ... : ... .. 6 ... ...
ROW EA : ... .. . ... ... ... : ... .. . ... ... ... : A#2 00 . P78 : ... .. 1 ... : ... .. . ... ... : ... .. . ... ... : ... .. . ... ... : ... .. 4 ... ...
ROW EB : ... .. . ... ... ... : ... .. . ... ... ... : A-2 00 . P74 : ... .. . ... : ... .. . ... ... : ... .. . ... ... : ... .. . ... ... : ... .. 3 ... ...
ROW EC : ... .. . ... ... ... : ... .. . ... ... ... : D#2 00 . P80 : ... .. F ... : ... .. . ... ... : ... .. . ... ... : ... .. . ... ... : G-3 01 8 ... ...
ROW ED : ... .. . ... ... ... : ... .. . ... ... ... : ... .. . ... : ... .. C ... : ... .. . ... ... : ... .. . ... ... : ... .. . ... ... : ... .. 7 ... ...
ROW EE : ... .. . ... ... ... : ... .. . ... ... ... : ... .. . ... : ... .. 6 ... : ... .. . ... ... : ... .. . ... ... : ... .. . ... ... : ... .. 6 ... ...
ROW EF : ... .. . ... ... ... : ... .. . ... ... ... : ... .. . ... : ... .. 3 ... : ... .. . ... ... : ... .. 3 ... ... : ... .. 3 ... ... : ... .. 4 ... ...
ROW F0 : ... .. . ... ... ... : ... .. . ... ... ... : --- .. . ... : ... .. 2 ... : ... .. . ... ... : ... .. . ... ... : ... .. . ... ... : ... .. 3 ... ...
ROW F1 : ... .. . ... ... ... : ... .. . ... ... ... : D#2 00 . ... : 1-# 00 F ... : ... .. . ... ... : ... .. . ... ... : ... .. . ... ... : ... .. 8 ... ...
ROW F2 : ... .. . ... ... ... : ... .. . ... ... ... : ... .. . ... : ... .. C ... : ... .. . ... ... : ... .. . ... ... : ... .. . ... ... : ... .. 7 ... ...
ROW F3 : ... .. . ... ... ... : ... .. . ... ... ... : ... .. . ... : ... .. 6 ... : ... .. . ... ... : ... .. 2 ... ... : ... .. 2 ... ... : ... .. 6 ... ...
ROW F4 : ... .. . ... ... ... : ... .. . ... ... ... : ... .. . ... : ... .. 3 ... : ... .. . ... ... : ... .. . ... ... : ... .. . ... ... : ... .. 4 ... ...
ROW F5 : ... .. . ... ... ... : ... .. . ... ... ... : --- .. . ... : ... .. 2 ... : ... .. . ... ... : ... .. . ... ... : ... .. . ... ... : ... .. 3 ... ...
ROW F6 : ... .. . ... ... ... : ... .. . ... ... ... : D#2 00 . ... : 3-# 00 D ... : ... .. . ... ... : ... .. . ... ... : ... .. . ... ... : A-3 01 8 ... ...
ROW F7 : ... .. . ... ... ... : ... .. . ... ... ... : ... .. . ... : ... .. . ... : ... .. . ... ... : ... .. . ... ... : ... .. . ... ... : ... .. 7 ... ...
ROW F8 : ... .. . ... ... ... : ... .. . ... ... ... : ... .. . ... : F-# 00 D ... : ... .. . ... ... : ... .. . ... ... : ... .. . ... ... : ... .. 6 ... ...
ROW F9 : ... .. . ... ... ... : ... .. . ... ... ... : ... .. . ... : D-# 00 6 ... : ... .. . ... ... : ... .. . ... ... : ... .. . ... ... : ... .. 4 ... ...
ROW FA : ... .. . ... ... ... : ... .. . ... ... ... : ... .. . ... : 9-# 00 1 ... : ... .. . ... ... : ... .. . ... ... : ... .. . ... ... : ... .. 3 ... ...
ROW FB : ... .. . ... ... ... : ... .. . ... ... ... : ... .. . ... : ... .. 0 ... : ... .. . ... ... : ... .. . ... ... : ... .. . ... ... : ... .. 8 ... ...
ROW FC : ... .. . ... ... ... : ... .. . ... ... ... : ... .. . ... : ... .. . ... : ... .. . ... ... : ... .. . ... ... : ... .. . ... ... : ... .. 7 ... ...
ROW FD : ... .. . ... ... ... : ... .. . ... ... ... : ... .. . ... : ... .. . ... : ... .. . ... ... : ... .. . ... ... : ... .. . ... ... : ... .. 6 ... ...
ROW FE : ... .. . ... ... ... : ... .. . ... ... ... : ... .. . ... : ... .. . ... : ... .. . ... ... : ... .. . ... ... : ... .. . ... ... : ... .. 4 ... ...
ROW FF : ... .. 2 ... ... ... : ... .. . ... ... ... : --- .. . ... : ... .. . ... : ... .. . ... ... : ... .. . ... ... : ... .. . ... ... : ... .. 3 ... ...

PATTERN 19
ROW 00 : D-4 00 F ... ... ... : D-3 00 8 P80 ... ... : E-3 00 . ... : 1-# 00 F ... : ... .. . ... ... : F#3 01 6 ... V03 : B-2 01 6 ... V03 : B-3 01 A ... ...
ROW 01 : ... .. E ... ... ... : ... .. 7 ... ... ... : ... .. . ... : ... .. C ... : ... .. . ... ... : ... .. 5 ... V01 : ... .. 5 ... V01 : ... .. 8 ... ...
ROW 02 : ... .. D ... ... ... : ... .. . ... ... ... : ... .. . ... : ... .. 6 ... : ... .. . ... ... : ... .. . ... ... : ... .. . ... ... : ... .. 5 ... ...
ROW 03 : ... .. A ... ... ... : ... .. 6 ... ... ... : ... .. . ... : ... .. 3 ... : ... .. . ... ... : ... .. . ... ... : ... .. . ... ... : ... .. . ... ...
ROW 04 : ... .. . ... ... ... : ... .. 5 ... ... ... : ... .. . ... : ... .. 2 ... : ... .. . ... ... : ... .. . ... ... : ... .. . ... ... : ... .. . ... ...
ROW 05 : ... .. . ... ... ... : ... .. 8 ... ... ... : ... .. . ... : C-# 00 8 ... : ... .. . ... ... : ... .. . ... ... : ... .. . ... ... : ... .. . ... ...
ROW 06 : ... .. . ... ... ... : ... .. 7 ... ... ... : ... .. . ... : ... .. 6 ... : ... .. . ... ... : ... .. . ... ... : ... .. . ... ... : ... .. . ... ...
ROW 07 : ... .. . ... ... ... : ... .. . ... ... ... : ... .. . ... : ... .. 3 ... : ... .. . ... ... : ... .. 4 ... ... : ... .. 4 ... ... : ... .. . ... ...
ROW 08 : ... .. . ... ... ... : ... .. 6 ... ... ... : ... .. . ... : ... .. 1 ... : ... .. . ... ... : ... .. . ... ... : ... .. . ... ... : ... .. . ... ...
ROW 09 : ... .. . ... ... ... : ... .. 5 ... ... ... : --- .. . ... : ... .. . ... : ... .. . ... ... : ... .. . ... ... : ... .. . ... ... : ... .. . ... ...
ROW 0A : ... .. . ... ... ... : G-2 00 8 ... ... ... : E-2 00 . ... : ... .. F ... : ... .. . ... ... : G-3 01 6 ... V03 : D-3 01 6 ... V03 : ... .. . ... ...
ROW 0B : ... .. . ... ... ... : ... .. 7 ... ... ... : ... .. . ... : ... .. C ... : ... .. . ... ... : ... .. 5 ... V01 : ... .. 5 ... V01 : ... .. . ... ...
ROW 0C : ... .. . ... ... ... : ... .. . ... ... ... : ... .. . ... : ... .. 6 ... : ... .. . ... ... : ... .. . ... ... : ... .. . ... ... : ... .. . ... ...
ROW 0D : ... .. . ... ... ... : ... .. 6 ... ... ... : ... .. . ... : ... .. 3 ... : ... .. . ... ... : ... .. . ... ... : ... .. . ... ... : ... .. . ... ...
ROW 0E : ... .. . ... ... ... : ... .. 5 ... ... ... : --- .. . ... : ... .. 2 ... : ... .. . ... ... : ... .. . ... ... : ... .. . ... ... : ... .. . ... ...
ROW 0F : ... .. . ... ... ... : ... .. 8 ... ... ... : E-2 00 . ... : 1-# 00 F ... : ... .. . ... ... : ... .. . ... ... : ... .. . ... ... : ... .. . ... ...
ROW 10 : ... .. . ... ... ... : ... .. 7 ... ... ... : ... .. . ... : ... .. C ... : ... .. . ... ... : ... .. . ... ... : ... .. . ... ... : ... .. . ... ...
ROW 11 : ... .. . ... ... ... : ... .. . ... ... ... : ... .. . ... : ... .. 6 ... : ... .. . ... ... : ... .. 4 ... ... : ... .. 4 ... ... : ... .. . ... ...
ROW 12 : ... .. . ... ... ... : ... .. 6 ... ... ... : ... .. . ... : ... .. 3 ... : ... .. . ... ... : ... .. . ... ... : ... .. . ... ... : ... .. . ... ...
ROW 13 : ... .. . ... ... ... : ... .. 5 ... ... ... : --- .. . ... : ... .. 2 ... : ... .. . ... ... : ... .. . ... ... : ... .. . ... ... : ... .. . ... ...
ROW 14 : ... .. . ... ... ... : A-2 00 8 ... ... ... : E-2 00 . ... : 3-# 00 D ... : ... .. . ... ... : A-3 01 6 ... V03 : G-2 01 6 ... V03 : ... .. . ... ...
ROW 15 : ... .. . ... ... ... : ... .. 7 ... ... ... : ... .. . ... : ... .. . ... : ... .. . ... ... : ... .. 5 ... V01 : ... .. 5 ... V01 : ... .. . ... ...
ROW 16 : ... .. . ... ... ... : ... .. . ... ... ... : ... .. . ... : F-# 00 D ... : ... .. . ... ... : ... .. . ... ... : ... .. . ... ... : ... .. . ... ...
ROW 17 : ... .. . ... ... ... : ... .. 6 ... ... ... : ... .. . ... : D-# 00 6 ... : ... .. . ... ... : ... .. . ... ... : ... .. . ... ... : ... .. . ... ...
ROW 18 : ... .. . ... ... ... : ... .. 5 ... ... ... : --- .. . ... : 9-# 00 1 ... : ... .. . ... ... : ... .. . ... ... : ... .. . ... ... : ... .. . ... ...
ROW 19 : ... .. . ... ... ... : ... .. 8 ... ... ... : E-2 00 . ... : ... .. 0 ... : ... .. . ... ... : ... .. . ... ... : ... .. . ... ... : ... .. . ... ...
ROW 1A : ... .. . ... ... ... : ... .. 7 ... ... ... : ... .. . ... : ... .. . ... : ... .. . ... ... : ... .. . ... ... : ... .. . ... ... : ... .. . ... ...
ROW 1B : ... .. . ... ... ... : ... .. . ... ... ... : ... .. . ... : ... .. . ... : ... .. . ... ... : ... .. 4 ... ... : ... .. 4 ... ... : ... .. . ... ...
ROW 1C : ... .. . ... ... ... : ... .. 6 ... ... ... : ... .. . ... : ... .. . ... : ... .. . ... ... : ... .. . ... ... : ... .. . ... ... : ... .. . ... ...
ROW 1D : ... .. . ... ... ... : ... .. 5 ... ... ... : --- .. . ... : ... .. . ... : ... .. . ... ... : ... .. . ... ... : ... .. . ... ... : ... .. . ... ...
ROW 1E : ... .. . ... ... ... : B-2 00 8 ... ... ... : E-3 00 . ... : 1-# 00 F ... : ... .. . ... ... : D-3 01 6 ... V03 : A-2 01 6 ... V03 : A-3 01 A ... ...
ROW 1F : ... .. . ... ... ... : ... .. 7 ... ... ... : ... .. . ... : ... .. C ... : ... .. . ... ... : ... .. 5 ... V01 : ... .. 5 ... V01 : ... .. 8 ... ...
ROW 20 : ... .. . ... ... ... : ... .. . ... ... ... : ... .. . ... : ... .. 6 ... : ... .. . ... ... : ... .. . ... ... : ... .. . ... ... : ... .. 5 ... ...
ROW 21 : ... .. . ... ... ... : ... .. 6 ... ... ... : ... .. . ... : ... .. 3 ... : ... .. . ... ... : ... .. . ... ... : ... .. . ... ... : ... .. . ... ...
ROW 22 : ... .. . ... ... ... : ... .. 5 ... ... ... : ... .. . ... : ... .. 2 ... : ... .. . ... ... : ... .. . ... ... : ... .. . ... ... : ... .. . ... ...
ROW 23 : ... .. . ... ... ... : ... .. 8 ... ... ... : ... .. . ... : C-# 00 7 ... : ... .. . ... ... : ... .. . ... ... : ... .. . ... ... : ... .. . ... ...
ROW 24 : ... .. . ... ... ... : ... .. 7 ... ... ... : ... .. . ... : ... .. 5 ... : ... .. . ... ... : ... .. . ... ... : ... .. . ... ... : ... .. . ... ...
ROW 25 : ... .. . ... ... ... : ... .. . ... ... ... : ... .. . ... : ... .. 2 ... : ... .. . ... ... : ... .. 4 ... ... : ... .. 4 ... ... : ... .. . ... ...
ROW 26 : ... .. . ... ... ... : ... .. 6 ... ... ... : ... .. . ... : ... .. 1 ... : ... .. . ... ... : ... .. . ... ... : ... .. . ... ... : ... .. . ... ...
ROW 27 : ... .. . ... ... ... : ... .. 5 ... ... ... : --- .. . ... : ... .. . ... : ... .. . ... ... : ... .. . ... ... : ... .. . ... ... : ... .. . ... ...
ROW 28 : ... .. . ... ... ... : D-3 00 8 ... ... ... : E-2 00 . ... : 1-# 00 F ... : ... .. . ... ... : F#3 01 6 ... V03 : G-2 01 6 ... V03 : ... .. . ... ...
ROW 29 : ... .. . ... ... ... : ... .. 7 ... ... ... : ... .. . ... : ... .. C ... : ... .. . ... ... : ... .. 5 ... V01 : ... .. 5 ... V01 : ... .. . ... ...
ROW 2A : ... .. . ... ... ... : ... .. . ... ... ... : ... .. . ... : ... .. 6 ... : ... .. . ... ... : ... .. . ... ... : ... .. . ... ... : ... .. . ... ...
ROW 2B : ... .. . ... ... ... : ... .. 6 ... ... ... : ... .. . ... : ... .. 3 ... : ... .. . ... ... : ... .. . ... ... : ... .. . ... ... : ... .. . ... ...
ROW 2C : ... .. . ... ... ... : ... .. 5 ... ... ... : --- .. . ... : ... .. 2 ... : ... .. . ... ... : ... .. . ... ... : ... .. . ... ... : ... .. . ... ...
ROW 2D : ... .. . P84 ... ... : ... .. 8 ... ... ... : E-2 00 . ... : C-# 00 8 ... : ... .. . ... ... : ... .. . ... ... : ... .. . ... ... : ... .. . ... ...
ROW 2E : D#4 00 A P7C ... ... : ... .. 7 ... ... ... : ... .. . ... : ... .. 6 ... : ... .. . ... ... : ... .. . ... ... : ... .. . ... ... : ... .. . ... ...
ROW 2F : D-4 00 A P85 ... ... : ... .. . ... ... ... : ... .. . ... : ... .. 3 ... : ... .. . ... ... : ... .. 4 ... ... : ... .. 4 ... ... : ... .. . ... ...
ROW 30 : ... .. . P82 ... ... : ... .. 6 ... ... ... : ... .. . ... : ... .. 1 ... : ... .. . ... ... : ... .. . ... ... : ... .. . ... ... : ... .. . ... ...
ROW 31 : ... .. . P7E ... ... : ... .. 5 ... ... ... : --- .. . ... : ... .. . ... : ... .. . ... ... : ... .. . ... ... : ... .. . ... ... : ... .. . ... ...
ROW 32 : ... .. . P7B ... ... : F#3 00 8 ... ... ... : E-2 00 . ... : ... .. F ... : ... .. . ... ... : G-3 01 6 ... V03 : A-2 01 6 ... V03 : ... .. . ... ...
ROW 33 : C#4 00 A P86 ... ... : ... .. 7 ... ... ... : ... .. . ... : ... .. C ... : ... .. . ... ... : ... .. 5 ... V01 : ... .. 5 ... V01 : ... .. . ... ...
ROW 34 : D-4 00 A P7C ... ... : ... .. . ... ... ... : ... .. . ... : ... .. 6 ... : ... .. . ... ... : ... .. . ... ... : ... .. . ... ... : ... .. . ... ...
ROW 35 : ... .. . P80 ... ... : ... .. 6 ... ... ... : ... .. . ... : ... .. 3 ... : ... .. . ... ... : ... .. . ... ... : ... .. . ... ... : ... .. . ... ...
ROW 36 : ... .. . P83 ... ... : ... .. 5 ... ... ... : --- .. . ... : ... .. 2 ... : ... .. . ... ... : ... .. . ... ... : ... .. . ... ... : ... .. . ... ...
ROW 37 : D#4 00 A P7C ... ... : ... .. 8 ... ... ... : E-2 00 . ... : 1-# 00 F ... : ... .. . ... ... : ... .. . ... ... : ... .. . ... ... : ... .. . ... ...
ROW 38 : ... .. . ... ... ... : ... .. 7 ... ... ... : ... .. . ... : ... .. C ... : ... .. . ... ... : ... .. . ... ... : ... .. . ... ... : ... .. . ... ...
ROW 39 : D-4 00 A P82 ... ... : ... .. . ... ... ... : ... .. . ... : ... .. 6 ... : ... .. . ... ... : ... .. 4 ... ... : ... .. 4 ... ... : ... .. . ... ...
ROW 3A : ... .. . P7F ... ... : ... .. 6 ... ... ... : ... .. . ... : ... .. 3 ... : ... .. . ... ... : ... .. . ... ... : ... .. . ... ... : ... .. . ... ...
ROW 3B : ... .. . P7B ... ... : ... .. 5 ... ... ... : --- .. . ... : ... .. 2 ... : ... .. . ... ... : ... .. . ... ... : ... .. . ... ... : ... .. . ... ...
ROW 3C : C#4 00 A P86 ... ... : G-3 00 8 ... ... ... : E-3 00 . ... : 3-# 00 D ... : ... .. . ... ... : A-3 01 6 ... V03 : B-2 01 6 ... V03 : F#3 01 A ... ...
ROW 3D : D-4 00 2 P7C ... ... : ... .. 7 ... ... ... : ... .. . ... : ... .. . ... : ... .. . ... ... : ... .. 5 ... V01 : ... .. 5 ... V01 : ... .. 8 ... ...
ROW 3E : ... .. . P80 ... ... : ... .. . ... ... ... : ... .. . ... : F-# 00 D ... : ... .. . ... ... : ... .. . ... ... : ... .. . ... ... : ... .. 5 ... ...
ROW 3F : ... .. . P83 ... ... : ... .. 6 ... ... ... : ... .. . ... : D-# 00 6 ... : ... .. . ... ... : ... .. . ... ... : ... .. . ... ... : ... .. . ... ...
ROW 40 : D#4 00 1 P7C ... ... : ... .. 5 ... ... ... : ... .. . ... : 9-# 00 1 ... : ... .. . ... ... : ... .. . ... ... : ... .. . ... ... : ... .. . ... ...
ROW 41 : ... .. . ... ... ... : ... .. 8 ... ... ... : ... .. . ... : ... .. 0 ... : ... .. . ... ... : ... .. . ... ... : ... .. . ... ... : G-3 01 A ... ...
ROW 42 : D-4 00 1 P83 ... ... : ... .. 7 ... ... ... : ... .. . ... : ... .. . ... : ... .. . ... ... : ... .. . ... ... : ... .. . ... ... : ... .. 8 ... ...
ROW 43 : ... .. 0 ... ... ... : ... .. . ... ... ... : ... .. . ... : ... .. . ... : ... .. . ... ... : ... .. 4 ... ... : ... .. 4 ... ... : ... .. 5 ... ...
ROW 44 : ... .. . ... ... ... : ... .. 6 ... ... ... : ... .. . ... : ... .. . ... : ... .. . ... ... : ... .. . ... ... : ... .. . ... ... : ... .. . ... ...
ROW 45 : ... .. . ... ... ... : ... .. 5 ... ... ... : --- .. . ... : ... .. . ... : ... .. . ... ... : ... .. . ... ... : ... .. . ... ... : ... .. . ... ...
ROW 46 : ... .. . ... ... ... : A-3 00 8 ... ... ... : E-2 00 . ... : 1-# 00 F ... : ... .. . ... ... : D-4 01 6 ... V03 : D-3 01 6 ... V03 : A-3 01 A ... ...
ROW 47 : ... .. . ... ... ... : ... .. 7 ... ... ... : ... .. . ... : ... .. C ... : ... .. . ... ... : ... .. 5 ... V01 : ... .. 5 ... V01 : ... .. 8 ... ...
ROW 48 : ... .. . ... ... ... : ... .. . ... ... ... : ... .. . ... : ... .. 6 ... : ... .. . ... ... : ... .. . ... ... : ... .. . ... ... : ... .. 5 ... ...
ROW 49 : ... .. . ... ... ... : ... .. 6 ... ... ... : ... .. . ... : ... .. 3 ... : ... .. . ... ... : ... .. . ... ... : ... .. . ... ... : ... .. . ... ...
ROW 4A : ... .. . ... ... ... : ... .. 5 ... ... ... : --- .. . ... : ... .. 2 ... : ... .. . ... ... : ... .. . ... ... : ... .. . ... ... : ... .. . ... ...
ROW 4B : ... .. . ... ... ... : ... .. 8 ... ... ... : E-2 00 . ... : C-# 00 7 ... : ... .. . ... ... : ... .. . ... ... : ... .. . ... ... : B-3 01 A ... ...
ROW 4C : ... .. . ... ... ... : ... .. 7 ... ... ... : ... .. . ... : ... .. 5 ... : ... .. . ... ... : ... .. . ... ... : ... .. . ... ... : ... .. 8 ... ...
ROW 4D : ... .. . ... ... ... : ... .. . ... ... ... : ... .. . ... : ... .. 2 ... : ... .. . ... ... : ... .. 4 ... ... : ... .. 4 ... ... : ... .. 5 ... ...
ROW 4E : ... .. . ... ... ... : ... .. 6 ... ... ... : ... .. . ... : ... .. 1 ... : ... .. . ... ... : ... .. . ... ... : ... .. . ... ... : ... .. . ... ...
ROW 4F : ... .. . ... ... ... : ... .. 5 ... ... ... : --- .. . ... : ... .. . ... : ... .. . ... ... : ... .. . ... ... : ... .. . ... ... : ... .. . ... ...
ROW 50 : F#2 00 F P80 ... ... : F#3 00 8 ... ... ... : E-2 00 . ... : ... .. F ... : ... .. . ... ... : F#5 01 9 ... V03 : F#4 01 9 ... V03 : D-4 01 A ... ...
ROW 51 : ... .. E ... ... ... : ... .. 7 ... ... ... : ... .. . ... : ... .. C ... : ... .. . ... ... : ... .. 8 ... V01 : ... .. 8 ... V01 : ... .. 8 ... ...
ROW 52 : ... .. D ... ... ... : ... .. . ... ... ... : ... .. . ... : ... .. 6 ... : ... .. . ... ... : ... .. . ... ... : ... .. . ... ... : ... .. 5 ... ...
ROW 53 : ... .. 9 ... ... ... : ... .. 6 ... ... ... : ... .. . ... : ... .. 3 ... : ... .. . ... ... : ... .. . ... ... : ... .. . ... ... : ... .. . ... ...
ROW 54 : ... .. . ... ... ... : ... .. 5 ... ... ... : --- .. . ... : ... .. 2 ... : ... .. . ... ... : ... .. . ... ... : ... .. . ... ... : ... .. . ... ...
ROW 55 : G-2 00 E ... ... ... : ... .. 8 ... ... ... : E-2 00 . ... : 1-# 00 F ... : ... .. . ... ... : ... .. . ... ... : ... .. . ... ... : F#4 01 A ... ...
ROW 56 : ... .. D ... ... ... : ... .. 7 ... ... ... : ... .. . ... : ... .. C ... : ... .. . ... ... : ... .. . ... ... : ... .. . ... ... : ... .. 8 ... ...
ROW 57 : ... .. C ... ... ... : ... .. . ... ... ... : ... .. . ... : ... .. 6 ... : ... .. . ... ... : ... .. 7 ... ... : ... .. 7 ... ... : ... .. 5 ... ...
ROW 58 : ... .. 8 ... ... ... : ... .. 6 ... ... ... : ... .. . ... : ... .. 3 ... : ... .. . ... ... : ... .. . ... ... : ... .. . ... ... : ... .. . ... ...
ROW 59 : ... .. . ... ... ... : ... .. 5 ... ... ... : --- .. . ... : ... .. 2 ... : ... .. . ... ... : ... .. . ... ... : ... .. . ... ... : ... .. . ... ...
ROW 5A : A-2 00 D ... ... ... : G-3 00 8 ... ... ... : E-3 00 . ... : 3-# 00 D ... : ... .. . ... ... : ... .. . ... ... : ... .. . ... ... : G-4 01 A ... ...
ROW 5B : ... .. C ... ... ... : ... .. 7 ... ... ... : ... .. . ... : ... .. . ... : ... .. . ... ... : ... .. 6 ... ... : ... .. 6 ... ... : ... .. 8 ... ...
ROW 5C : ... .. B ... ... ... : ... .. . ... ... ... : ... .. . ... : F-# 00 D ... : ... .. . ... ... : ... .. . ... ... : ... .. . ... ... : ... .. 5 ... ...
ROW 5D : ... .. 8 ... ... ... : ... .. 6 ... ... ... : ... .. . ... : D-# 00 6 ... : ... .. . ... ... : ... .. 5 ... ... : ... .. 5 ... ... : ... .. . ... ...
ROW 5E : ... .. . ... ... ... : ... .. 5 ... ... ... : ... .. . ... : 9-# 00 1 ... : ... .. . ... ... : ... .. . ... ... : ... .. . ... ... : ... .. . ... ...
ROW 5F : D-3 00 C ... ... ... : ... .. 8 ... ... ... : ... .. . ... : ... .. 0 ... : ... .. . ... ... : ... .. . ... ... : ... .. . ... ... : ... .. . ... ...
ROW 60 : ... .. B ... ... ... : ... .. 7 ... ... ... : ... .. . ... : ... .. . ... : ... .. . ... ... : ... .. . ... ... : ... .. . ... ... : ... .. . ... ...
ROW 61 : ... .. A ... ... ... : ... .. . ... ... ... : ... .. . ... : ... .. . ... : ... .. . ... ... : ... .. 4 ... ... : ... .. 4 ... ... : ... .. . ... ...
ROW 62 : ... .. 7 ... ... ... : ... .. 6 ... ... ... : ... .. . ... : ... .. . ... : ... .. . ... ... : ... .. . ... ... : ... .. . ... ... : ... .. . ... ...
ROW 63 : ... .. . ... ... ... : ... .. 5 ... ... ... : --- .. . ... : ... .. . ... : ... .. . ... ... : ... .. . ... ... : ... .. . ... ... : ... .. . ... ...
ROW 64 : F#3 00 B ... ... ... : A-3 00 8 ... ... ... : G-3 00 . ... : 4-# 00 D ... : ... .. . ... ... : G-5 01 9 ... V03 : G-4 01 9 ... V03 : ... .. . ... ...
ROW 65 : ... .. A ... ... ... : ... .. 7 ... ... ... : ... .. . ... : ... .. . ... : ... .. . ... ... : ... .. 8 ... V01 : ... .. 8 ... V01 : ... .. . ... ...
ROW 66 : ... .. 9 ... ... ... : ... .. . ... ... ... : ... .. . ... : 0-# 00 D ... : ... .. . ... ... : ... .. . ... ... : ... .. . ... ... : ... .. . ... ...
ROW 67 : ... .. 7 ... ... ... : ... .. 6 ... ... ... : ... .. . ... : E-# 00 6 ... : ... .. . ... ... : ... .. . ... ... : ... .. . ... ... : ... .. . ... ...
ROW 68 : ... .. . ... ... ... : ... .. 5 ... ... ... : --- .. . ... : A-# 00 1 ... : ... .. . ... ... : ... .. . ... ... : ... .. . ... ... : ... .. . ... ...
ROW 69 : G-3 00 A ... ... ... : ... .. 8 ... ... ... : G-3 00 . ... : 4-# 00 D ... : ... .. . ... ... : ... .. . ... ... : ... .. . ... ... : ... .. . P84 ...
ROW 6A : ... .. 9 ... ... ... : ... .. 7 ... ... ... : ... .. . ... : ... .. . ... : ... .. . ... ... : ... .. . ... ... : ... .. . ... ... : G#4 01 5 P7D ...
ROW 6B : ... .. 8 ... ... ... : ... .. . ... ... ... : ... .. . ... : 0-# 00 D ... : ... .. . ... ... : ... .. 7 ... ... : ... .. 7 ... ... : ... .. . P7C ...
ROW 6C : ... .. 6 ... ... ... : ... .. 6 ... ... ... : ... .. . ... : E-# 00 6 ... : ... .. . ... ... : ... .. . ... ... : ... .. . ... ... : G-4 01 5 P82 ...
ROW 6D : ... .. . ... ... ... : ... .. 5 ... ... ... : --- .. . ... : A-# 00 1 ... : ... .. . ... ... : ... .. . ... ... : ... .. . ... ... : ... .. . P7E ...
ROW 6E : A-3 00 9 ... ... ... : D-4 00 8 ... ... ... : F#3 00 . ... : B-# 00 D ... : ... .. . ... ... : ... .. . ... ... : ... .. . ... ... : F#4 01 5 P85 ...
ROW 6F : ... .. 8 ... ... ... : ... .. 7 ... ... ... : ... .. . ... : ... .. . ... : ... .. . ... ... : ... .. 6 ... ... : ... .. 6 ... ... : ... .. . P84 ...
ROW 70 : ... .. 7 ... ... ... : ... .. . ... ... ... : ... .. . ... : 7-# 00 D ... : ... .. . ... ... : ... .. . ... ... : ... .. . ... ... : G-4 01 5 P7C ...
ROW 71 : ... .. 6 ... ... ... : ... .. 6 ... ... ... : ... .. . ... : 5-# 00 6 ... : ... .. . ... ... : ... .. 5 ... ... : ... .. 5 ... ... : ... .. . P80 ...
ROW 72 : ... .. . ... ... ... : ... .. 5 ... ... ... : --- .. . ... : 1-# 00 1 ... : ... .. . ... ... : ... .. . ... ... : ... .. . ... ... : ... .. . P83 ...
ROW 73 : F#4 00 8 ... ... ... : ... .. 8 ... ... ... : F#3 00 . ... : B-# 00 D ... : ... .. . ... ... : ... .. . ... ... : ... .. . ... ... : G#4 01 5 P7D ...
ROW 74 : ... .. 7 ... ... ... : ... .. 7 ... ... ... : ... .. . ... : ... .. . ... : ... .. . ... ... : ... .. . ... ... : ... .. . ... ... : ... .. . ... ...
ROW 75 : ... .. 6 ... ... ... : ... .. . ... ... ... : ... .. . ... : 7-# 00 D ... : ... .. . ... ... : ... .. 4 ... ... : ... .. 4 ... ... : G-4 01 5 P82 ...
ROW 76 : ... .. 5 ... ... ... : ... .. 6 ... ... ... : ... .. . ... : 5-# 00 6 ... : ... .. . ... ... : ... .. . ... ... : ... .. . ... ... : ... .. . P7F ...
ROW 77 : ... .. . ... ... ... : ... .. 5 ... ... ... : --- .. . ... : 1-# 00 1 ... : ... .. . ... ... : ... .. . ... ... : ... .. . ... ... : F#4 01 5 P85 ...
ROW 78 : G-4 00 8 ... ... ... : F#4 00 8 ... ... ... : A-3 00 . ... : 3-# 00 D ... : ... .. . ... ... : A-5 01 9 ... V03 : A-4 01 9 ... V03 : ... .. . P84 ...
ROW 79 : ... .. 7 ... ... ... : ... .. 7 ... ... ... : ... .. . ... : ... .. . ... : ... .. . ... ... : ... .. 8 ... V01 : ... .. 8 ... V01 : G-4 01 5 P7C ...
ROW 7A : ... .. 6 ... ... ... : ... .. . ... ... ... : ... .. . ... : F-# 00 D ... : ... .. . ... ... : ... .. . ... ... : ... .. . ... ... : ... .. . P80 ...
ROW 7B : ... .. 5 ... ... ... : ... .. 6 ... ... ... : ... .. . ... : D-# 00 6 ... : ... .. . ... ... : ... .. . ... ... : ... .. . ... ... : ... .. . P83 ...
ROW 7C : ... .. . ... ... ... : ... .. 5 ... ... ... : --- .. . ... : 9-# 00 1 ... : ... .. . ... ... : ... .. . ... ... : ... .. . ... ... : G#4 01 5 P7D ...
ROW 7D : A-4 00 9 ... ... ... : ... .. 8 ... ... ... : A-3 00 . ... : 3-# 00 D ... : ... .. . ... ... : ... .. . ... ... : ... .. . ... ... : ... .. . ... ...
ROW 7E : ... .. 8 ... ... ... : ... .. 7 ... ... ... : ... .. . ... : ... .. . ... : ... .. . ... ... : ... .. . ... ... : ... .. . ... ... : G-4 01 5 P83 ...
ROW 7F : ... .. 7 ... ... ... : ... .. . ... ... ... : ... .. . ... : F-# 00 D ... : ... .. . ... ... : ... .. 7 ... ... : ... .. 7 ... ... : ... .. . P80 ...
ROW 80 : ... .. 6 ... ... ... : ... .. 6 ... ... ... : ... .. . ... : D-# 00 6 ... : ... .. . ... ... : ... .. . ... ... : ... .. . ... ... : ... .. . P7C ...
ROW 81 : ... .. . ... ... ... : ... .. 5 ... ... ... : --- .. . ... : 9-# 00 1 ... : ... .. . ... ... : ... .. . ... ... : ... .. . ... ... : F#4 01 5 P84 ...
ROW 82 : D-5 00 A ... ... ... : G-4 00 8 ... ... ... : D-4 00 . ... : 2-# 00 F ... : ... .. . ... ... : ... .. . ... ... : ... .. . ... ... : ... .. . P85 ...
ROW 83 : ... .. 9 ... ... ... : ... .. 7 ... ... ... : ... .. . ... : ... .. C ... : ... .. . ... ... : ... .. 6 ... ... : ... .. 6 ... ... : G-4 01 5 P7F ...
ROW 84 : ... .. 8 ... ... ... : ... .. . ... ... ... : ... .. . ... : ... .. 6 ... : ... .. . ... ... : ... .. . ... ... : ... .. . ... ... : ... .. . P82 ...
ROW 85 : ... .. 6 ... ... ... : ... .. 6 ... ... ... : ... .. . ... : ... .. 3 ... : ... .. . ... ... : ... .. 5 ... ... : ... .. 5 ... ... : G#4 01 5 P7D ...
ROW 86 : ... .. . ... ... ... : ... .. 5 ... ... ... : --- .. . ... : ... .. 2 ... : ... .. . ... ... : ... .. . ... ... : ... .. . ... ... : ... .. . ... ...
ROW 87 : F#5 00 B ... ... ... : ... .. 8 ... ... ... : D-4 00 . ... : ... .. F ... : ... .. . ... ... : ... .. . ... ... : ... .. . ... ... : G-4 01 5 P83 ...
ROW 88 : ... .. A ... ... ... : ... .. 7 ... ... ... : ... .. . ... : ... .. C ... : ... .. . ... ... : ... .. . ... ... : ... .. . ... ... : ... .. . P80 ...
ROW 89 : ... .. 9 ... ... ... : ... .. . ... ... ... : ... .. . ... : ... .. 6 ... : ... .. . ... ... : ... .. 4 ... ... : ... .. 4 ... ... : ... .. . P7C ...
ROW 8A : ... .. 7 ... ... ... : ... .. 6 ... ... ... : ... .. . ... : ... .. 3 ... : ... .. . ... ... : ... .. . ... ... : ... .. . ... ... : F#4 01 5 P84 ...
ROW 8B : ... .. . ... ... ... : ... .. 5 ... ... ... : --- .. . ... : ... .. 2 ... : ... .. . ... ... : ... .. . ... ... : ... .. . ... ... : ... .. . P85 ...
ROW 8C : G-5 00 C ... ... ... : A-4 00 8 ... ... ... : F#4 00 . ... : 8-# 00 F ... : ... .. . ... ... : D-5 01 9 ... V03 : D-4 01 9 ... V03 : G-4 01 5 P7E ...
ROW 8D : ... .. B ... ... ... : ... .. 7 ... ... ... : ... .. . ... : ... .. C ... : ... .. . ... ... : ... .. 8 ... V01 : ... .. 8 ... V01 : ... .. . P82 ...
ROW 8E : ... .. A ... ... ... : ... .. . ... ... ... : ... .. . ... : ... .. 6 ... : ... .. . ... ... : ... .. . ... ... : ... .. . ... ... : G#4 01 5 P7C ...
ROW 8F : ... .. 8 ... ... ... : ... .. 6 ... ... ... : ... .. . ... : ... .. 3 ... : ... .. . ... ... : ... .. . ... ... : ... .. . ... ... : ... .. . P7D ...
ROW 90 : ... .. . ... ... ... : ... .. 5 ... ... ... : --- .. . ... : ... .. 2 ... : ... .. . ... ... : ... .. . ... ... : ... .. . ... ... : G-4 01 5 P84 ...
ROW 91 : A-5 00 D ... ... ... : ... .. 8 ... ... ... : F#4 00 . ... : ... .. F ... : ... .. . ... ... : ... .. . ... ... : ... .. . ... ... : ... .. . P80 ...
ROW 92 : ... .. C ... ... ... : ... .. 7 ... ... ... : ... .. . ... : ... .. C ... : ... .. . ... ... : ... .. . ... ... : ... .. . ... ... : ... .. . P7D ...
ROW 93 : ... .. B ... ... ... : ... .. . ... ... ... : ... .. . ... : ... .. 6 ... : ... .. . ... ... : ... .. 7 ... ... : ... .. 7 ... ... : F#4 01 5 P84 ...
ROW 94 : ... .. 8 ... ... ... : ... .. 6 ... ... ... : ... .. . ... : ... .. 3 ... : ... .. . ... ... : ... .. . ... ... : ... .. . ... ... : ... .. . ... ...
ROW 95 : ... .. . ... ... ... : ... .. 5 ... ... ... : --- .. . ... : ... .. 2 ... : ... .. . ... ... : ... .. . ... ... : ... .. . ... ... : G-4 01 5 P7E ...
ROW 96 : D-6 00 E ... ... ... : D-5 00 8 ... ... ... : G-4 00 . ... : F-# 00 F ... : ... .. . ... ... : ... .. . ... ... : ... .. . ... ... : ... .. . P81 ...
ROW 97 : ... .. D ... ... ... : ... .. 7 ... ... ... : ... .. . ... : ... .. C ... : ... .. . ... ... : ... .. 6 ... ... : ... .. 6 ... ... : G#4 01 5 P7C ...
ROW 98 : ... .. C ... ... ... : ... .. . ... ... ... : ... .. . ... : ... .. 6 ... : ... .. . ... ... : ... .. . ... ... : ... .. . ... ... : ... .. . P7D ...
ROW 99 : ... .. 9 ... ... ... : ... .. 6 ... ... ... : ... .. . ... : ... .. 3 ... : ... .. . ... ... : ... .. 5 ... ... : ... .. 5 ... ... : --- .. . ... ...
ROW 9A : ... .. . ... ... ... : ... .. 5 ... ... ... : --- .. . ... : ... .. 2 ... : ... .. . ... ... : ... .. . ... ... : ... .. . ... ... : ... .. . ... ...
ROW 9B : A-6 00 F ... ... ... : ... .. 8 ... ... ... : G-4 00 . ... : ... .. F ... : ... .. . ... ... : ... .. . ... ... : ... .. . ... ... : ... .. . ... ...
ROW 9C : ... .. E ... ... ... : ... .. 7 ... ... ... : ... .. . ... : ... .. C ... : ... .. . ... ... : ... .. . ... ... : ... .. . ... ... : ... .. . ... ...
ROW 9D : ... .. D ... ... ... : ... .. . ... ... ... : ... .. . ... : ... .. 6 ... : ... .. . ... ... : ... .. 4 ... ... : ... .. 4 ... ... : ... .. . ... ...
ROW 9E : ... .. A ... ... ... : ... .. 6 ... ... ... : ... .. . ... : ... .. 3 ... : ... .. . ... ... : ... .. . ... ... : ... .. . ... ... : ... .. . ... ...
ROW 9F : ... .. . ... ... ... : ... .. 5 ... ... ... : --- .. . ... : ... .. 2 ... : ... .. . ... ... : ... .. . ... ... : ... .. . ... ... : ... .. . ... ...
ROW A0 : A-4 00 F ... ... ... : F-3 00 C ... ... ... : D#3 00 . ... : 1-# 00 F ... : ... .. . Z00 ... : ... .. 9 ... V03 : ... .. 9 ... V03 : D-4 01 8 P80 ...
ROW A1 : ... .. E ... ... ... : ... .. B ... ... ... : ... .. . ... : ... .. C ... : ... .. . ... ... : ... .. 8 ... V01 : ... .. 8 ... V01 : ... .. 7 ... ...
ROW A2 : ... .. D ... ... ... : ... .. A ... ... ... : ... .. . ... : ... .. 6 ... : ... .. . ... ... : ... .. . ... ... : ... .. . ... ... : ... .. 6 ... ...
ROW A3 : ... .. A ... ... ... : ... .. 8 ... ... ... : ... .. . ... : ... .. 3 ... : ... .. . ... ... : ... .. . ... ... : ... .. . ... ... : ... .. 4 ... ...
ROW A4 : ... .. . ... ... ... : ... .. . ... ... ... : ... .. . ... : ... .. 2 ... : ... .. . ... ... : ... .. . ... ... : ... .. . ... ... : ... .. 3 ... ...
ROW A5 : ... .. . ... ... ... : ... .. . ... ... ... : D-3 00 . P75 : C-# 00 8 ... : ... .. . ... ... : ... .. . ... ... : ... .. . ... ... : ... .. 8 ... ...
ROW A6 : ... .. . ... ... ... : ... .. . ... ... ... : C-3 00 . P84 : ... .. 6 ... : ... .. . ... ... : ... .. . ... ... : ... .. . ... ... : ... .. 7 ... ...
ROW A7 : ... .. . ... ... ... : ... .. . ... ... ... : B-2 00 . P7D : ... .. 3 ... : ... .. . ... ... : ... .. 7 ... ... : ... .. 7 ... ... : ... .. 6 ... ...
ROW A8 : ... .. . ... ... ... : ... .. . ... ... ... : A#2 00 . P78 : ... .. 1 ... : ... .. . ... ... : ... .. . ... ... : ... .. . ... ... : ... .. 4 ... ...
ROW A9 : ... .. . ... ... ... : ... .. . ... ... ... : A-2 00 . P74 : ... .. . ... : ... .. . ... ... : ... .. . ... ... : ... .. . ... ... : ... .. 3 ... ...
ROW AA : ... .. . ... ... ... : ... .. . ... ... ... : D#2 00 . P80 : ... .. F ... : ... .. . ... ... : ... .. . ... ... : ... .. . ... ... : F-3 01 8 ... ...
ROW AB : ... .. . ... ... ... : ... .. . ... ... ... : ... .. . ... : ... .. C ... : ... .. . ... ... : ... .. 6 ... ... : ... .. 6 ... ... : ... .. 7 ... ...
ROW AC : ... .. . ... ... ... : ... .. . ... ... ... : ... .. . ... : ... .. 6 ... : ... .. . ... ... : ... .. . ... ... : ... .. . ... ... : ... .. 6 ... ...
ROW AD : ... .. . ... ... ... : ... .. . ... ... ... : ... .. . ... : ... .. 3 ... : ... .. . ... ... : ... .. 5 ... ... : ... .. 5 ... ... : ... .. 4 ... ...
ROW AE : ... .. . ... ... ... : ... .. . ... ... ... : --- .. . ... : ... .. 2 ... : ... .. . ... ... : ... .. . ... ... : ... .. . ... ... : ... .. 3 ... ...
ROW AF : ... .. . ... ... ... : ... .. . ... ... ... : D#2 00 . ... : 1-# 00 F ... : ... .. . ... ... : ... .. . ... ... : ... .. . ... ... : ... .. 8 ... ...
ROW B0 : ... .. 2 ... ... ... : ... .. 1 ... ... ... : ... .. . ... : ... .. C ... : ... .. . ... ... : ... .. . ... ... : ... .. . ... ... : ... .. 7 ... ...
ROW B1 : ... .. . ... ... ... : ... .. . ... ... ... : ... .. . ... : ... .. 6 ... : ... .. . ... ... : ... .. 4 ... ... : ... .. 4 ... ... : ... .. 6 ... ...
ROW B2 : ... .. . ... ... ... : ... .. . ... ... ... : ... .. . ... : ... .. 3 ... : ... .. . ... ... : ... .. . ... ... : ... .. . ... ... : ... .. 4 ... ...
ROW B3 : ... .. 1 ... ... ... : ... .. . ... ... ... : --- .. . ... : ... .. 2 ... : ... .. . ... ... : ... .. . ... ... : ... .. . ... ... : ... .. 3 ... ...
ROW B4 : ... .. 8 ... ... ... : ... .. 8 ... ... ... : D#2 00 . ... : 3-# 00 D ... : ... .. . ... ... : ... .. . ... ... : ... .. . ... ... : G-3 01 8 ... ...
ROW B5 : ... .. 7 ... ... ... : ... .. 7 ... ... ... : ... .. . ... : ... .. . ... : ... .. . ... ... : ... .. . ... ... : ... .. . ... ... : ... .. 7 ... ...
ROW B6 : ... .. 6 ... ... ... : ... .. 6 ... ... ... : ... .. . ... : F-# 00 D ... : ... .. . ... ... : ... .. . ... ... : ... .. . ... ... : ... .. 6 ... ...
ROW B7 : ... .. 5 ... ... ... : ... .. 5 ... ... ... : ... .. . ... : D-# 00 6 ... : ... .. . ... ... : ... .. . ... ... : ... .. . ... ... : ... .. 4 ... ...
ROW B8 : ... .. . ... ... ... : ... .. . ... ... ... : ... .. . ... : 9-# 00 1 ... : ... .. . ... ... : ... .. . ... ... : ... .. . ... ... : ... .. 3 ... ...
ROW B9 : ... .. . ... ... ... : ... .. . ... ... ... : ... .. . ... : ... .. 0 ... : ... .. . ... ... : ... .. . ... ... : ... .. . ... ... : ... .. 8 ... ...
ROW BA : ... .. . ... ... ... : ... .. . ... ... ... : ... .. . ... : ... .. . ... : ... .. . ... ... : ... .. . ... ... : ... .. . ... ... : ... .. 7 ... ...
ROW BB : ... .. . ... ... ... : ... .. . ... ... ... : ... .. . ... : ... .. . ... : ... .. . ... ... : ... .. . ... ... : ... .. . ... ... : ... .. 6 ... ...
ROW BC : ... .. . ... ... ... : ... .. . ... ... ... : ... .. . ... : ... .. . ... : ... .. . ... ... : ... .. . ... ... : ... .. . ... ... : ... .. 4 ... ...
ROW BD : ... .. 1 ... ... ... : ... .. 1 ... ... ... : --- .. . ... : ... .. . ... : ... .. . ... ... : ... .. . ... ... : ... .. . ... ... : ... .. 3 ... ...
ROW BE : C-5 00 F ... ... ... : G-3 00 C ... ... ... : D#3 00 . ... : 1-# 00 F ... : ... .. . ... ... : G-4 01 9 ... V03 : G-3 01 9 ... V03 : D-4 01 8 ... ...
ROW BF : ... .. E ... ... ... : ... .. B ... ... ... : ... .. . ... : ... .. C ... : ... .. . ... ... : ... .. 8 ... V01 : ... .. 8 ... V01 : ... .. 7 ... ...
ROW C0 : ... .. D ... ... ... : ... .. A ... ... ... : ... .. . ... : ... .. 6 ... : ... .. . ... ... : ... .. . ... ... : ... .. . ... ... : ... .. 6 ... ...
ROW C1 : ... .. A ... ... ... : ... .. 8 ... ... ... : ... .. . ... : ... .. 3 ... : ... .. . ... ... : ... .. . ... ... : ... .. . ... ... : ... .. 4 ... ...
ROW C2 : ... .. . ... ... ... : ... .. . ... ... ... : ... .. . ... : ... .. 2 ... : ... .. . ... ... : ... .. . ... ... : ... .. . ... ... : ... .. 3 ... ...
ROW C3 : ... .. . ... ... ... : ... .. . ... ... ... : D-3 00 . P75 : C-# 00 7 ... : ... .. . ... ... : ... .. . ... ... : ... .. . ... ... : ... .. 8 ... ...
ROW C4 : ... .. . ... ... ... : ... .. . ... ... ... : C-3 00 . P84 : ... .. 5 ... : ... .. . ... ... : ... .. . ... ... : ... .. . ... ... : ... .. 7 ... ...
ROW C5 : ... .. . ... ... ... : ... .. . ... ... ... : B-2 00 . P7D : ... .. 2 ... : ... .. . ... ... : ... .. 7 ... ... : ... .. 7 ... ... : ... .. 6 ... ...
ROW C6 : ... .. . ... ... ... : ... .. . ... ... ... : A#2 00 . P78 : ... .. 1 ... : ... .. . ... ... : ... .. . ... ... : ... .. . ... ... : ... .. 4 ... ...
ROW C7 : ... .. . ... ... ... : ... .. . ... ... ... : A-2 00 . P74 : ... .. . ... : ... .. . ... ... : ... .. . ... ... : ... .. . ... ... : ... .. 3 ... ...
ROW C8 : ... .. . ... ... ... : ... .. . ... ... ... : D#2 00 . P80 : ... .. F ... : ... .. . ... ... : ... .. . ... ... : ... .. . ... ... : G-3 01 8 ... ...
ROW C9 : ... .. . ... ... ... : ... .. . ... ... ... : ... .. . ... : ... .. C ... : ... .. . ... ... : ... .. 6 ... ... : ... .. 6 ... ... : ... .. 7 ... ...
ROW CA : ... .. . ... ... ... : ... .. . ... ... ... : ... .. . ... : ... .. 6 ... : ... .. . ... ... : ... .. . ... ... : ... .. . ... ... : ... .. 6 ... ...
ROW CB : ... .. . ... ... ... : ... .. . ... ... ... : ... .. . ... : ... .. 3 ... : ... .. . ... ... : ... .. 5 ... ... : ... .. 5 ... ... : ... .. 4 ... ...
ROW CC : ... .. . ... ... ... : ... .. . ... ... ... : --- .. . ... : ... .. 2 ... : ... .. . ... ... : ... .. . ... ... : ... .. . ... ... : ... .. 3 ... ...
ROW CD : ... .. . ... ... ... : ... .. . ... ... ... : D#2 00 . ... : 1-# 00 F ... : ... .. . ... ... : ... .. . ... ... : ... .. . ... ... : ... .. 8 ... ...
ROW CE : ... .. 2 ... ... ... : ... .. 1 ... ... ... : ... .. . ... : ... .. C ... : ... .. . ... ... : ... .. . ... ... : ... .. . ... ... : ... .. 7 ... ...
ROW CF : ... .. . ... ... ... : ... .. . ... ... ... : ... .. . ... : ... .. 6 ... : ... .. . ... ... : ... .. 4 ... ... : ... .. 4 ... ... : ... .. 6 ... ...
ROW D0 : ... .. . ... ... ... : ... .. . ... ... ... : ... .. . ... : ... .. 3 ... : ... .. . ... ... : ... .. . ... ... : ... .. . ... ... : ... .. 4 ... ...
ROW D1 : ... .. 1 ... ... ... : ... .. . ... ... ... : --- .. . ... : ... .. 2 ... : ... .. . ... ... : ... .. . ... ... : ... .. . ... ... : ... .. 3 ... ...
ROW D2 : ... .. 8 ... ... ... : ... .. 8 ... ... ... : D#2 00 . ... : 3-# 00 D ... : ... .. . ... ... : ... .. . ... ... : ... .. . ... ... : A-3 01 8 ... ...
ROW D3 : ... .. 7 ... ... ... : ... .. 7 ... ... ... : ... .. . ... : ... .. . ... : ... .. . ... ... : ... .. . ... ... : ... .. . ... ... : ... .. 7 ... ...
ROW D4 : ... .. 6 ... ... ... : ... .. 6 ... ... ... : ... .. . ... : F-# 00 D ... : ... .. . ... ... : ... .. . ... ... : ... .. . ... ... : ... .. 6 ... ...
ROW D5 : ... .. 5 ... ... ... : ... .. 5 ... ... ... : ... .. . ... : D-# 00 6 ... : ... .. . ... ... : ... .. . ... ... : ... .. . ... ... : ... .. 4 ... ...
ROW D6 : ... .. . ... ... ... : ... .. . ... ... ... : ... .. . ... : 9-# 00 1 ... : ... .. . ... ... : ... .. . ... ... : ... .. . ... ... : ... .. 3 ... ...
ROW D7 : ... .. . ... ... ... : ... .. . ... ... ... : ... .. . ... : ... .. 0 ... : ... .. . ... ... : ... .. . ... ... : ... .. . ... ... : ... .. 8 ... ...
ROW D8 : ... .. . ... ... ... : ... .. . ... ... ... : ... .. . ... : ... .. . ... : ... .. . ... ... : ... .. . ... ... : ... .. . ... ... : ... .. 7 ... ...
ROW D9 : ... .. . ... ... ... : ... .. . ... ... ... : ... .. . ... : ... .. . ... : ... .. . ... ... : ... .. . ... ... : ... .. . ... ... : ... .. 6 ... ...
ROW DA : ... .. . ... ... ... : ... .. . ... ... ... : ... .. . ... : ... .. . ... : ... .. . ... ... : ... .. . ... ... : ... .. . ... ... : ... .. 4 ... ...
ROW DB : ... .. 1 ... ... ... : ... .. 1 ... ... ... : --- .. . ... : ... .. . ... : ... .. . ... ... : ... .. . ... ... : ... .. . ... ... : ... .. 3 ... ...
ROW DC : G-4 00 F ... ... ... : D-4 00 C ... ... ... : D#3 00 . ... : 1-# 00 F ... : ... .. . ... ... : C-5 01 9 ... V03 : C-4 01 9 ... V03 : D-4 01 8 ... ...
ROW DD : ... .. E ... ... ... : ... .. B ... ... ... : ... .. . ... : ... .. C ... : ... .. . ... ... : ... .. 8 ... V01 : ... .. 8 ... V01 : ... .. 7 ... ...
ROW DE : ... .. D ... ... ... : ... .. A ... ... ... : ... .. . ... : ... .. 6 ... : ... .. . ... ... : ... .. . ... ... : ... .. . ... ... : ... .. 6 ... ...
ROW DF : ... .. A ... ... ... : ... .. 8 ... ... ... : ... .. . ... : ... .. 3 ... : ... .. . ... ... : ... .. . ... ... : ... .. . ... ... : ... .. 4 ... ...
ROW E0 : ... .. . ... ... ... : ... .. . ... ... ... : ... .. . ... : ... .. 2 ... : ... .. . ... ... : ... .. . ... ... : ... .. . ... ... : ... .. 3 ... ...
ROW E1 : ... .. . ... ... ... : ... .. . ... ... ... : D-3 00 . P75 : C-# 00 8 ... : ... .. . ... ... : ... .. . ... ... : ... .. . ... ... : ... .. 8 ... ...
ROW E2 : ... .. . ... ... ... : ... .. . ... ... ... : C-3 00 . P84 : ... .. 6 ... : ... .. . ... ... : ... .. . ... ... : ... .. . ... ... : ... .. 7 ... ...
ROW E3 : ... .. . ... ... ... : ... .. . ... ... ... : B-2 00 . P7D : ... .. 3 ... : ... .. . ... ... : ... .. 7 ... ... : ... .. 7 ... ... : ... .. 6 ... ...
ROW E4 : ... .. . ... ... ... : ... .. . ... ... ... : A#2 00 . P78 : ... .. 1 ... : ... .. . ... ... : ... .. . ... ... : ... .. . ... ... : ... .. 4 ... ...
ROW E5 : ... .. . ... ... ... : ... .. . ... ... ... : A-2 00 . P74 : ... .. . ... : ... .. . ... ... : ... .. . ... ... : ... .. . ... ... : ... .. 3 ... ...
ROW E6 : ... .. . ... ... ... : ... .. . ... ... ... : D#2 00 . P80 : ... .. F ... : ... .. . ... ... : ... .. . ... ... : ... .. . ... ... : F-3 01 8 ... ...
ROW E7 : ... .. . ... ... ... : ... .. . ... ... ... : ... .. . ... : ... .. C ... : ... .. . ... ... : ... .. 6 ... ... : ... .. 6 ... ... : ... .. 7 ... ...
ROW E8 : ... .. . ... ... ... : ... .. . ... ... ... : ... .. . ... : ... .. 6 ... : ... .. . ... ... : ... .. . ... ... : ... .. . ... ... : ... .. 6 ... ...
ROW E9 : ... .. . ... ... ... : ... .. . ... ... ... : ... .. . ... : ... .. 3 ... : ... .. . ... ... : ... .. 5 ... ... : ... .. 5 ... ... : ... .. 4 ... ...
ROW EA : ... .. . ... ... ... : ... .. . ... ... ... : --- .. . ... : ... .. 2 ... : ... .. . ... ... : ... .. . ... ... : ... .. . ... ... : ... .. 3 ... ...
ROW EB : ... .. . ... ... ... : ... .. . ... ... ... : D#2 00 . ... : 1-# 00 F ... : ... .. . ... ... : ... .. . ... ... : ... .. . ... ... : ... .. 8 ... ...
ROW EC : ... .. 2 ... ... ... : ... .. 1 ... ... ... : ... .. . ... : ... .. C ... : ... .. . ... ... : ... .. . ... ... : ... .. . ... ... : ... .. 7 ... ...
ROW ED : ... .. . ... ... ... : ... .. . ... ... ... : ... .. . ... : ... .. 6 ... : ... .. . ... ... : ... .. 4 ... ... : ... .. 4 ... ... : ... .. 6 ... ...
ROW EE : ... .. . ... ... ... : ... .. . ... ... ... : ... .. . ... : ... .. 3 ... : ... .. . ... ... : ... .. . ... ... : ... .. . ... ... : ... .. 4 ... ...
ROW EF : ... .. 1 ... ... ... : ... .. . ... ... ... : --- .. . ... : ... .. 2 ... : ... .. . ... ... : ... .. . ... ... : ... .. . ... ... : ... .. 3 ... ...
ROW F0 : ... .. 8 ... ... ... : ... .. 8 ... ... ... : D#2 00 . ... : 3-# 00 D ... : ... .. . ... ... : ... .. . ... ... : ... .. . ... ... : G-3 01 8 ... ...
ROW F1 : ... .. 7 ... ... ... : ... .. 7 ... ... ... : ... .. . ... : ... .. . ... : ... .. . ... ... : ... .. . ... ... : ... .. . ... ... : ... .. 7 ... ...
ROW F2 : ... .. 6 ... ... ... : ... .. 6 ... ... ... : ... .. . ... : F-# 00 D ... : ... .. . ... ... : ... .. . ... ... : ... .. . ... ... : ... .. 6 ... ...
ROW F3 : ... .. 5 ... ... ... : ... .. 5 ... ... ... : ... .. . ... : D-# 00 6 ... : ... .. . ... ... : ... .. . ... ... : ... .. . ... ... : ... .. 4 ... ...
ROW F4 : ... .. 1 ... ... ... : ... .. 1 ... ... ... : ... .. . ... : 9-# 00 1 ... : ... .. . ... ... : ... .. . ... ... : ... .. . ... ... : ... .. 3 ... ...
ROW F5 : ... .. 8 ... ... ... : ... .. 8 ... ... ... : ... .. . ... : ... .. 0 ... : ... .. . ... ... : ... .. . ... ... : ... .. . ... ... : ... .. 8 ... ...
ROW F6 : ... .. 7 ... ... ... : ... .. 7 ... ... ... : ... .. . ... : ... .. . ... : ... .. . ... ... : ... .. . ... ... : ... .. . ... ... : ... .. 7 ... ...
ROW F7 : ... .. 6 ... ... ... : ... .. 6 ... ... ... : ... .. . ... : ... .. . ... : ... .. . ... ... : ... .. . ... ... : ... .. . ... ... : ... .. 6 ... ...
ROW F8 : ... .. 5 ... ... ... : ... .. 5 ... ... ... : ... .. . ... : ... .. . ... : ... .. . ... ... : ... .. . ... ... : ... .. . ... ... : ... .. 4 ... ...
ROW F9 : ... .. 1 ... ... ... : ... .. 1 ... ... ... : --- .. . ... : ... .. . ... : ... .. . ... ... : ... .. . ... ... : ... .. . ... ... : ... .. 3 ... ...
ROW FA : A#4 00 F ... ... ... : G-4 00 C ... ... ... : D#3 00 . ... : 1-# 00 F ... : ... .. . ... ... : F-4 01 9 ... V03 : F-3 01 9 ... V03 : C-4 01 8 ... ...
ROW FB : ... .. E ... ... ... : ... .. B ... ... ... : ... .. . ... : ... .. C ... : ... .. . ... ... : ... .. 8 ... V01 : ... .. 8 ... V01 : ... .. 7 ... ...
ROW FC : ... .. D ... ... ... : ... .. A ... ... ... : ... .. . ... : ... .. 6 ... : ... .. . ... ... : ... .. . ... ... : ... .. . ... ... : ... .. 6 ... ...
ROW FD : ... .. A ... ... ... : ... .. 8 ... ... ... : ... .. . ... : ... .. 3 ... : ... .. . ... ... : ... .. . ... ... : ... .. . ... ... : ... .. 4 ... ...
ROW FE : ... .. . ... ... ... : ... .. . ... ... ... : ... .. . ... : ... .. 2 ... : ... .. . ... ... : ... .. . ... ... : ... .. . ... ... : ... .. 3 ... ...
ROW FF : ... .. . ... ... ... : ... .. . ... ... ... : D-3 00 . P75 : C-# 00 7 ... : ... .. . ... ... : ... .. . ... ... : ... .. . ... ... : ... .. 8 ... ...

PATTERN 1A
ROW 00 : ... .. . ... ... ... : ... .. . ... ... ... : C-3 00 . P84 : ... .. 5 ... : ... .. . ... ... : ... .. . ... ... : ... .. . ... ... : ... .. 7 ... ...
ROW 01 : ... .. . ... ... ... : ... .. . ... ... ... : B-2 00 . P7D : ... .. 2 ... : ... .. . ... ... : ... .. 7 ... ... : ... .. 7 ... ... : ... .. 6 ... ...
ROW 02 : ... .. . ... ... ... : ... .. . ... ... ... : A#2 00 . P78 : ... .. 1 ... : ... .. . ... ... : ... .. . ... ... : ... .. . ... ... : ... .. 4 ... ...
ROW 03 : ... .. . ... ... ... : ... .. . ... ... ... : A-2 00 . P74 : ... .. . ... : ... .. . ... ... : ... .. . ... ... : ... .. . ... ... : ... .. 3 ... ...
ROW 04 : ... .. . ... ... ... : ... .. . ... ... ... : D#2 00 . P80 : ... .. F ... : ... .. . ... ... : ... .. . ... ... : ... .. . ... ... : F-3 01 8 ... ...
ROW 05 : ... .. . ... ... ... : ... .. . ... ... ... : ... .. . ... : ... .. C ... : ... .. . ... ... : ... .. 6 ... ... : ... .. 6 ... ... : ... .. 7 ... ...
ROW 06 : ... .. . ... ... ... : ... .. . ... ... ... : ... .. . ... : ... .. 6 ... : ... .. . ... ... : ... .. . ... ... : ... .. . ... ... : ... .. 6 ... ...
ROW 07 : ... .. . ... ... ... : ... .. . ... ... ... : ... .. . ... : ... .. 3 ... : ... .. . ... ... : ... .. 5 ... ... : ... .. 5 ... ... : ... .. 4 ... ...
ROW 08 : ... .. . ... ... ... : ... .. . ... ... ... : --- .. . ... : ... .. 2 ... : ... .. . ... ... : ... .. . ... ... : ... .. . ... ... : ... .. 3 ... ...
ROW 09 : ... .. . ... ... ... : ... .. . ... ... ... : D#2 00 . ... : 1-# 00 F ... : ... .. . ... ... : ... .. . ... ... : ... .. . ... ... : ... .. 8 ... ...
ROW 0A : ... .. 2 ... ... ... : ... .. 1 ... ... ... : ... .. . ... : ... .. C ... : ... .. . ... ... : ... .. . ... ... : ... .. . ... ... : ... .. 7 ... ...
ROW 0B : ... .. . ... ... ... : ... .. . ... ... ... : ... .. . ... : ... .. 6 ... : ... .. . ... ... : ... .. 4 ... ... : ... .. 4 ... ... : ... .. 6 ... ...
ROW 0C : ... .. . ... ... ... : ... .. . ... ... ... : ... .. . ... : ... .. 3 ... : ... .. . ... ... : ... .. . ... ... : ... .. . ... ... : ... .. 4 ... ...
ROW 0D : ... .. 1 ... ... ... : ... .. . ... ... ... : --- .. . ... : ... .. 2 ... : ... .. . ... ... : ... .. . ... ... : ... .. . ... ... : ... .. 3 ... ...
ROW 0E : ... .. 8 ... ... ... : ... .. 8 ... ... ... : D#2 00 . ... : 3-# 00 D ... : ... .. . ... ... : ... .. . ... ... : ... .. . ... ... : G-3 01 8 ... ...
ROW 0F : ... .. 7 ... ... ... : ... .. 7 ... ... ... : ... .. . ... : ... .. . ... : ... .. . ... ... : ... .. . ... ... : ... .. . ... ... : ... .. 7 ... ...
ROW 10 : ... .. 6 ... ... ... : ... .. 6 ... ... ... : ... .. . ... : F-# 00 D ... : ... .. . ... ... : ... .. . ... ... : ... .. . ... ... : ... .. 6 ... ...
ROW 11 : ... .. 5 ... ... ... : ... .. 5 ... ... ... : ... .. . ... : D-# 00 6 ... : ... .. . ... ... : ... .. . ... ... : ... .. . ... ... : ... .. 4 ... ...
ROW 12 : ... .. . ... ... ... : ... .. . ... ... ... : ... .. . ... : 9-# 00 1 ... : ... .. . ... ... : ... .. . ... ... : ... .. . ... ... : ... .. 3 ... ...
ROW 13 : ... .. . ... ... ... : ... .. . ... ... ... : ... .. . ... : ... .. 0 ... : ... .. . ... ... : ... .. . ... ... : ... .. . ... ... : ... .. 8 ... ...
ROW 14 : ... .. . ... ... ... : ... .. . ... ... ... : ... .. . ... : ... .. . ... : ... .. . ... ... : ... .. . ... ... : ... .. . ... ... : ... .. 7 ... ...
ROW 15 : ... .. . ... ... ... : ... .. . ... ... ... : ... .. . ... : ... .. . ... : ... .. . ... ... : ... .. . ... ... : ... .. . ... ... : ... .. 6 ... ...
ROW 16 : ... .. . ... ... ... : ... .. . ... ... ... : ... .. . ... : ... .. . ... : ... .. . ... ... : ... .. . ... ... : ... .. . ... ... : ... .. 4 ... ...
ROW 17 : ... .. 1 ... ... ... : ... .. 1 ... ... ... : --- .. . ... : ... .. . ... : ... .. . ... ... : ... .. . ... ... : ... .. . ... ... : ... .. 3 ... ...
ROW 18 : A-4 00 F ... ... ... : F-4 00 C ... ... ... : D-3 00 . ... : 1-# 00 F ... : ... .. . ... ... : F-3 01 4 ... V03 : E-4 01 4 P80 V03 : A-3 01 8 ... ...
ROW 19 : ... .. E ... ... ... : ... .. B ... ... ... : ... .. . ... : ... .. C ... : ... .. . ... ... : ... .. . ... V01 : ... .. . ... V01 : ... .. 7 ... ...
ROW 1A : ... .. D ... ... ... : ... .. A ... ... ... : ... .. . ... : ... .. 6 ... : ... .. . ... ... : ... .. . ... ... : ... .. . ... ... : ... .. 6 ... ...
ROW 1B : ... .. A ... ... ... : ... .. 8 ... ... ... : ... .. . ... : ... .. 3 ... : ... .. . ... ... : ... .. . ... ... : ... .. . ... ... : ... .. 4 ... ...
ROW 1C : ... .. . ... ... ... : ... .. . ... ... ... : ... .. . ... : ... .. 2 ... : ... .. . ... ... : ... .. . ... ... : ... .. . ... ... : ... .. 3 ... ...
ROW 1D : ... .. . ... ... ... : ... .. . ... ... ... : ... .. . ... : C-# 00 8 ... : ... .. . ... ... : A-2 01 4 ... V03 : F-4 01 4 ... V03 : ... .. 8 ... ...
ROW 1E : ... .. . ... ... ... : ... .. . ... ... ... : ... .. . ... : ... .. 6 ... : ... .. . ... ... : ... .. . ... V01 : ... .. . ... V01 : ... .. 7 ... ...
ROW 1F : ... .. . ... ... ... : ... .. . ... ... ... : ... .. . ... : ... .. 3 ... : ... .. . ... ... : ... .. . ... ... : ... .. . ... ... : ... .. 6 ... ...
ROW 20 : ... .. . ... ... ... : ... .. . ... ... ... : ... .. . ... : ... .. 1 ... : ... .. . ... ... : ... .. . ... ... : ... .. . ... ... : ... .. 4 ... ...
ROW 21 : ... .. . ... ... ... : ... .. . ... ... ... : ... .. . ... : ... .. . ... : ... .. . ... ... : ... .. . ... ... : ... .. . ... ... : ... .. 3 ... ...
ROW 22 : ... .. . ... ... ... : ... .. . ... ... ... : D-2 00 . ... : ... .. F ... : ... .. . ... ... : F-3 01 4 ... V03 : E-4 01 4 ... V03 : E-3 01 8 ... ...
ROW 23 : ... .. 2 ... ... ... : ... .. 1 ... ... ... : ... .. . ... : ... .. C ... : ... .. . ... ... : ... .. . ... V01 : ... .. . ... V01 : ... .. 7 ... ...
ROW 24 : ... .. . ... ... ... : ... .. . ... ... ... : ... .. . ... : ... .. 6 ... : ... .. . ... ... : ... .. . ... ... : ... .. . ... ... : ... .. 6 ... ...
ROW 25 : ... .. . ... ... ... : ... .. . ... ... ... : ... .. . ... : ... .. 3 ... : ... .. . ... ... : ... .. . ... ... : ... .. . ... ... : ... .. 4 ... ...
ROW 26 : ... .. 1 ... ... ... : ... .. . ... ... ... : ... .. . ... : ... .. 2 ... : ... .. . ... ... : ... .. . ... ... : ... .. . ... ... : ... .. 3 ... ...
ROW 27 : D-4 00 F ... ... ... : A-3 00 C ... ... ... : ... .. . ... : 1-# 00 F ... : ... .. . ... ... : A-2 01 4 ... V03 : C-4 01 4 ... V03 : ... .. 8 ... ...
ROW 28 : ... .. E ... ... ... : ... .. B ... ... ... : ... .. . ... : ... .. C ... : ... .. . ... ... : ... .. . ... V01 : ... .. . ... V01 : ... .. 7 ... ...
ROW 29 : ... .. D ... ... ... : ... .. A ... ... ... : ... .. . ... : ... .. 6 ... : ... .. . ... ... : ... .. . ... ... : ... .. . ... ... : ... .. 6 ... ...
ROW 2A : ... .. A ... ... ... : ... .. 8 ... ... ... : ... .. . ... : ... .. 3 ... : ... .. . ... ... : ... .. . ... ... : ... .. . ... ... : ... .. 4 ... ...
ROW 2B : ... .. 2 ... ... ... : ... .. 1 ... ... ... : ... .. . ... : ... .. 2 ... : ... .. . ... ... : ... .. . ... ... : ... .. . ... ... : ... .. 3 ... ...
ROW 2C : ... .. F ... ... ... : ... .. F ... ... ... : D-3 00 . ... : 3-# 00 D ... : ... .. . ... ... : F-3 01 4 ... V03 : E-4 01 4 ... V03 : F-3 01 8 ... ...
ROW 2D : ... .. E ... ... ... : ... .. E ... ... ... : ... .. . ... : ... .. . ... : ... .. . ... ... : ... .. . ... V01 : ... .. . ... V01 : ... .. 7 ... ...
ROW 2E : ... .. D ... ... ... : ... .. D ... ... ... : ... .. . ... : F-# 00 D ... : ... .. . ... ... : ... .. . ... ... : ... .. . ... ... : ... .. 6 ... ...
ROW 2F : ... .. 9 ... ... ... : ... .. 9 ... ... ... : ... .. . ... : D-# 00 6 ... : ... .. . ... ... : ... .. . ... ... : ... .. . ... ... : ... .. 4 ... ...
ROW 30 : ... .. . ... ... ... : ... .. . ... ... ... : --- .. . ... : 9-# 00 1 ... : ... .. . ... ... : ... .. . ... ... : ... .. . ... ... : ... .. 3 ... ...
ROW 31 : ... .. 8 ... ... ... : ... .. 8 ... ... ... : D-3 00 . ... : ... .. 0 ... : ... .. . ... ... : A-2 01 4 ... V03 : F-4 01 4 ... V03 : ... .. 8 ... ...
ROW 32 : ... .. . ... ... ... : ... .. . ... ... ... : ... .. . ... : ... .. . ... : ... .. . ... ... : ... .. . ... V01 : ... .. . ... V01 : ... .. 7 ... ...
ROW 33 : ... .. . ... ... ... : ... .. . ... ... ... : ... .. . ... : ... .. . ... : ... .. . ... ... : ... .. . ... ... : ... .. . ... ... : ... .. 6 ... ...
ROW 34 : ... .. . ... ... ... : ... .. . ... ... ... : ... .. . ... : ... .. . ... : ... .. . ... ... : ... .. . ... ... : ... .. . ... ... : ... .. 4 ... ...
ROW 35 : ... .. . ... ... ... : ... .. . ... ... ... : --- .. . ... : ... .. . ... : ... .. . ... ... : ... .. . ... ... : ... .. . ... ... : ... .. 3 ... ...
ROW 36 : ... .. 7 ... ... ... : ... .. 7 ... ... ... : G-3 00 . ... : 1-# 00 F ... : ... .. . ... ... : F-3 01 4 ... V03 : E-4 01 4 ... V03 : E-4 01 8 ... ...
ROW 37 : ... .. . ... ... ... : ... .. . ... ... ... : ... .. . ... : ... .. C ... : ... .. . ... ... : ... .. . ... V01 : ... .. . ... V01 : ... .. 7 ... ...
ROW 38 : ... .. . ... ... ... : ... .. . ... ... ... : ... .. . ... : ... .. 6 ... : ... .. . ... ... : ... .. . ... ... : ... .. . ... ... : ... .. 6 ... ...
ROW 39 : ... .. 6 ... ... ... : ... .. 6 ... ... ... : ... .. . ... : ... .. 3 ... : ... .. . ... ... : ... .. . ... ... : ... .. . ... ... : ... .. 4 ... ...
ROW 3A : ... .. . ... ... ... : ... .. . ... ... ... : --- .. . ... : ... .. 2 ... : ... .. . ... ... : ... .. . ... ... : ... .. . ... ... : ... .. 3 ... ...
ROW 3B : ... .. . ... ... ... : ... .. . ... ... ... : G-3 00 . ... : C-# 00 7 ... : ... .. . ... ... : A-2 01 4 ... V03 : C-4 01 4 ... V03 : ... .. 8 ... ...
ROW 3C : ... .. . ... ... ... : ... .. . ... ... ... : ... .. . ... : ... .. 5 ... : ... .. . ... ... : ... .. . ... V01 : ... .. . ... V01 : ... .. 7 ... ...
ROW 3D : ... .. . ... ... ... : ... .. . ... ... ... : ... .. . ... : ... .. 2 ... : ... .. . ... ... : ... .. . ... ... : ... .. . ... ... : ... .. 6 ... ...
ROW 3E : ... .. 5 ... ... ... : ... .. 5 ... ... ... : ... .. . ... : ... .. 1 ... : ... .. . ... ... : ... .. . ... ... : ... .. . ... ... : ... .. 4 ... ...
ROW 3F : ... .. . ... ... ... : ... .. . ... ... ... : --- .. . ... : ... .. . ... : ... .. . ... ... : ... .. . ... ... : ... .. . ... ... : ... .. 3 ... ...
ROW 40 : ... .. . ... ... ... : ... .. . ... ... ... : F-3 00 . ... : 1-# 00 F ... : ... .. . ... ... : G-3 01 4 ... V03 : E-4 01 4 ... V03 : G-3 01 8 ... ...
ROW 41 : ... .. . ... ... ... : ... .. . ... ... ... : ... .. . ... : ... .. C ... : ... .. . ... ... : ... .. . ... V01 : ... .. . ... V01 : ... .. 7 ... ...
ROW 42 : ... .. . ... ... ... : ... .. . ... ... ... : ... .. . ... : ... .. 6 ... : ... .. . ... ... : ... .. . ... ... : ... .. . ... ... : ... .. 6 ... ...
ROW 43 : ... .. . ... ... ... : ... .. . ... ... ... : ... .. . ... : ... .. 3 ... : ... .. . ... ... : ... .. . ... ... : ... .. . ... ... : ... .. 4 ... ...
ROW 44 : ... .. . ... ... ... : ... .. . ... ... ... : --- .. . ... : ... .. 2 ... : ... .. . ... ... : ... .. . ... ... : ... .. . ... ... : ... .. 3 ... ...
ROW 45 : ... .. 6 ... ... ... : ... .. 6 P84 ... ... : F-3 00 . ... : C-# 00 8 ... : ... .. . ... ... : B-2 01 4 ... V03 : F-4 01 4 ... V03 : ... .. 8 ... ...
ROW 46 : ... .. . ... ... ... : ... .. . P86 ... ... : ... .. . ... : ... .. 6 ... : ... .. . ... ... : ... .. . ... V01 : ... .. . ... V01 : ... .. 7 ... ...
ROW 47 : ... .. . ... ... ... : ... .. . P85 ... ... : ... .. . ... : ... .. 3 ... : ... .. . ... ... : ... .. . ... ... : ... .. . ... ... : ... .. 6 ... ...
ROW 48 : ... .. . ... ... ... : ... .. . P82 ... ... : ... .. . ... : ... .. 1 ... : ... .. . ... ... : ... .. . ... ... : ... .. . ... ... : ... .. 4 ... ...
ROW 49 : ... .. . ... ... ... : ... .. . P7E ... ... : --- .. . ... : ... .. . ... : ... .. . ... ... : ... .. . ... ... : ... .. . ... ... : ... .. 3 ... ...
ROW 4A : ... .. . ... ... ... : ... .. . P7B ... ... : C-4 00 . ... : ... .. F ... : ... .. . ... ... : G-3 01 4 ... V03 : E-4 01 4 ... V03 : A-3 01 8 ... ...
ROW 4B : ... .. . ... ... ... : ... .. . P7A ... ... : ... .. . ... : ... .. C ... : ... .. . ... ... : ... .. . ... V01 : ... .. . ... V01 : ... .. 7 ... ...
ROW 4C : ... .. . ... ... ... : ... .. . P7C ... ... : ... .. . ... : ... .. 6 ... : ... .. . ... ... : ... .. . ... ... : ... .. . ... ... : ... .. 6 ... ...
ROW 4D : ... .. 7 ... ... ... : ... .. 7 P80 ... ... : ... .. . ... : ... .. 3 ... : ... .. . ... ... : ... .. . ... ... : ... .. . ... ... : ... .. 4 ... ...
ROW 4E : ... .. . ... ... ... : ... .. . P83 ... ... : --- .. . ... : ... .. 2 ... : ... .. . ... ... : ... .. . ... ... : ... .. . ... ... : ... .. 3 ... ...
ROW 4F : ... .. 8 ... ... ... : ... .. 8 P86 ... ... : C-4 00 . ... : 1-# 00 F ... : ... .. . ... ... : B-2 01 4 ... V03 : C-4 01 4 ... V03 : ... .. 8 ... ...
ROW 50 : ... .. . ... ... ... : ... .. . ... ... ... : ... .. . ... : ... .. C ... : ... .. . ... ... : ... .. . ... V01 : ... .. . ... V01 : ... .. 7 ... ...
ROW 51 : ... .. . ... ... ... : ... .. . P82 ... ... : ... .. . ... : ... .. 6 ... : ... .. . ... ... : ... .. . ... ... : ... .. . ... ... : ... .. 6 ... ...
ROW 52 : ... .. . ... ... ... : ... .. . P7F ... ... : ... .. . ... : ... .. 3 ... : ... .. . ... ... : ... .. . ... ... : ... .. . ... ... : ... .. 4 ... ...
ROW 53 : ... .. . ... ... ... : ... .. . P7B ... ... : --- .. . ... : ... .. 2 ... : ... .. . ... ... : ... .. . ... ... : ... .. . ... ... : ... .. 3 ... ...
ROW 54 : ... .. . ... ... ... : ... .. . P7A ... ... : G-3 00 . ... : 3-# 00 D ... : ... .. . ... ... : G-3 01 4 ... V03 : E-4 01 4 ... V03 : G-4 01 8 ... ...
ROW 55 : ... .. . ... ... ... : ... .. . P7C ... ... : ... .. . ... : ... .. . ... : ... .. . ... ... : ... .. . ... V01 : ... .. . ... V01 : ... .. 7 ... ...
ROW 56 : ... .. . ... ... ... : ... .. . P80 ... ... : ... .. . ... : F-# 00 D ... : ... .. . ... ... : ... .. . ... ... : ... .. . ... ... : ... .. 6 ... ...
ROW 57 : ... .. 9 ... ... ... : ... .. 9 P83 ... ... : ... .. . ... : D-# 00 6 ... : ... .. . ... ... : ... .. . ... ... : ... .. . ... ... : ... .. 4 ... ...
ROW 58 : ... .. . ... ... ... : ... .. . P86 ... ... : --- .. . ... : 9-# 00 1 ... : ... .. . ... ... : ... .. . ... ... : ... .. . ... ... : ... .. 3 ... ...
ROW 59 : ... .. A ... ... ... : ... .. . ... ... ... : G-3 00 . ... : ... .. 0 ... : ... .. . ... ... : B-2 01 4 ... V03 : F-4 01 4 ... V03 : ... .. 8 ... ...
ROW 5A : ... .. . ... ... ... : ... .. . P83 ... ... : ... .. . ... : ... .. . ... : ... .. . ... ... : ... .. . ... V01 : ... .. . ... V01 : ... .. 7 ... ...
ROW 5B : ... .. . ... ... ... : ... .. . P80 ... ... : ... .. . ... : ... .. . ... : ... .. . ... ... : ... .. . ... ... : ... .. . ... ... : ... .. 6 ... ...
ROW 5C : ... .. . ... ... ... : ... .. . P7C ... ... : ... .. . ... : ... .. . ... : ... .. . ... ... : ... .. . ... ... : ... .. . ... ... : ... .. 4 ... ...
ROW 5D : ... .. . ... ... ... : ... .. . P7A ... ... : --- .. . ... : ... .. . ... : ... .. . ... ... : ... .. . ... ... : ... .. . ... ... : ... .. 3 ... ...
ROW 5E : ... .. . ... ... ... : ... .. . P7B ... ... : E-4 00 . ... : 1-# 00 F ... : ... .. . ... ... : G-3 01 4 ... V03 : E-4 01 4 ... V03 : C-4 01 8 ... ...
ROW 5F : ... .. 2 ... ... ... : ... .. . P7F ... ... : ... .. . ... : ... .. C ... : ... .. . ... ... : ... .. . ... V01 : ... .. . ... V01 : ... .. 7 ... ...
ROW 60 : ... .. . ... ... ... : ... .. . P82 ... ... : ... .. . ... : ... .. 6 ... : ... .. . ... ... : ... .. . ... ... : ... .. . ... ... : ... .. 6 ... ...
ROW 61 : ... .. . ... ... ... : ... .. . P86 ... ... : ... .. . ... : ... .. 3 ... : ... .. . ... ... : ... .. . ... ... : ... .. . ... ... : ... .. 4 ... ...
ROW 62 : ... .. 1 ... ... ... : ... .. . ... ... ... : --- .. . ... : ... .. 2 ... : ... .. . ... ... : ... .. . ... ... : ... .. . ... ... : ... .. 3 ... ...
ROW 63 : ... .. . ... ... ... : ... .. . P83 ... ... : E-4 00 . ... : C-# 00 7 ... : ... .. . ... ... : B-2 01 4 ... V03 : C-4 01 4 ... V03 : ... .. 8 ... ...
ROW 64 : ... .. . ... ... ... : ... .. . P80 ... ... : ... .. . ... : ... .. 5 ... : ... .. . ... ... : ... .. . ... V01 : ... .. . ... V01 : ... .. 7 ... ...
ROW 65 : ... .. 0 ... ... ... : ... .. . P7C ... ... : ... .. . ... : ... .. 2 ... : ... .. . ... ... : ... .. . ... ... : ... .. . ... ... : ... .. 6 ... ...
ROW 66 : ... .. . ... ... ... : ... .. . P7A ... ... : ... .. . ... : ... .. 1 ... : ... .. . ... ... : ... .. . ... ... : ... .. . ... ... : ... .. 4 ... ...
ROW 67 : ... .. . ... ... ... : ... .. . P7B ... ... : --- .. . ... : ... .. . ... : ... .. . ... ... : ... .. . ... ... : ... .. . ... ... : ... .. 3 ... ...
ROW 68 : E-4 00 F P80 ... ... : ... .. F P7E ... ... : C-4 00 . ... : ... .. F ... : ... .. . ... ... : A-3 01 4 ... V03 : E-4 01 4 ... V03 : D-4 01 8 ... ...
ROW 69 : ... .. E ... ... ... : ... .. E P82 ... ... : ... .. . ... : ... .. C ... : ... .. . ... ... : ... .. . ... V01 : ... .. . ... V01 : ... .. 7 ... ...
ROW 6A : ... .. D ... ... ... : ... .. D P85 ... ... : ... .. . ... : ... .. 6 ... : ... .. . ... ... : ... .. . ... ... : ... .. . ... ... : ... .. 6 ... ...
ROW 6B : ... .. A ... ... ... : ... .. A P86 ... ... : ... .. . ... : ... .. 3 ... : ... .. . ... ... : ... .. . ... ... : ... .. . ... ... : ... .. 4 ... ...
ROW 6C : ... .. . ... ... ... : ... .. . P84 ... ... : --- .. . ... : ... .. 2 ... : ... .. . ... ... : ... .. . ... ... : ... .. . ... ... : ... .. 3 ... ...
ROW 6D : ... .. . ... ... ... : ... .. . P80 ... ... : C-4 00 . ... : 1-# 00 F ... : ... .. . ... ... : C-3 01 4 ... V03 : F-4 01 4 ... V03 : ... .. 8 ... ...
ROW 6E : ... .. . ... ... ... : ... .. . P7D ... ... : ... .. . ... : ... .. C ... : ... .. . ... ... : ... .. . ... V01 : ... .. . ... V01 : ... .. 7 ... ...
ROW 6F : ... .. . ... ... ... : ... .. . P7A ... ... : ... .. . ... : ... .. 6 ... : ... .. . ... ... : ... .. . ... ... : ... .. . ... ... : ... .. 6 ... ...
ROW 70 : ... .. . ... ... ... : ... .. . ... ... ... : ... .. . ... : ... .. 3 ... : ... .. . ... ... : ... .. . ... ... : ... .. . ... ... : ... .. 4 ... ...
ROW 71 : ... .. . ... ... ... : ... .. . P7E ... ... : --- .. . ... : ... .. 2 ... : ... .. . ... ... : ... .. . ... ... : ... .. . ... ... : ... .. 3 ... ...
ROW 72 : ... .. . ... ... ... : ... .. . P81 ... ... : G-4 00 . ... : 3-# 00 D ... : ... .. . ... ... : A-3 01 4 ... V03 : E-4 01 4 ... V03 : A-4 01 8 ... ...
ROW 73 : ... .. 2 ... ... ... : ... .. 2 P85 ... ... : ... .. . ... : ... .. . ... : ... .. . ... ... : ... .. . ... V01 : ... .. . ... V01 : ... .. 7 ... ...
ROW 74 : ... .. . ... ... ... : ... .. . P86 ... ... : ... .. . ... : F-# 00 D ... : ... .. . ... ... : ... .. . ... ... : ... .. . ... ... : ... .. 6 ... ...
ROW 75 : ... .. . ... ... ... : ... .. . P84 ... ... : ... .. . ... : D-# 00 6 ... : ... .. . ... ... : ... .. . ... ... : ... .. . ... ... : ... .. 4 ... ...
ROW 76 : ... .. 1 ... ... ... : ... .. 1 P80 ... ... : --- .. . ... : 9-# 00 1 ... : ... .. . ... ... : ... .. . ... ... : ... .. . ... ... : ... .. 3 ... ...
ROW 77 : F-3 00 F ... ... ... : A-2 00 F P7D ... ... : G-4 00 . ... : ... .. 0 ... : ... .. . ... ... : C-3 01 4 ... V03 : C-4 01 4 ... V03 : ... .. 8 ... ...
ROW 78 : ... .. E ... ... ... : ... .. E P7A ... ... : ... .. . ... : ... .. . ... : ... .. . ... ... : ... .. . ... V01 : ... .. . ... V01 : ... .. 7 ... ...
ROW 79 : ... .. D ... ... ... : ... .. D ... ... ... : ... .. . ... : ... .. . ... : ... .. . ... ... : ... .. . ... ... : ... .. . ... ... : ... .. 6 ... ...
ROW 7A : ... .. A ... ... ... : ... .. A P7D ... ... : ... .. . ... : ... .. . ... : ... .. . ... ... : ... .. . ... ... : ... .. . ... ... : ... .. 4 ... ...
ROW 7B : ... .. 2 ... ... ... : ... .. 2 P80 ... ... : --- .. . ... : ... .. . ... : ... .. . ... ... : ... .. . ... ... : ... .. . ... ... : ... .. 3 ... ...
ROW 7C : ... .. F ... ... ... : ... .. F P84 ... ... : F-4 00 . ... : 4-# 00 D ... : ... .. . ... ... : A-3 01 4 ... V03 : E-4 01 4 ... V03 : E-4 01 8 ... ...
ROW 7D : ... .. E ... ... ... : ... .. E P86 ... ... : ... .. . ... : ... .. . ... : ... .. . ... ... : ... .. . ... V01 : ... .. . ... V01 : ... .. 7 ... ...
ROW 7E : ... .. D ... ... ... : ... .. D P85 ... ... : ... .. . ... : 0-# 00 D ... : ... .. . ... ... : ... .. . ... ... : ... .. . ... ... : ... .. 6 ... ...
ROW 7F : ... .. A ... ... ... : ... .. A P81 ... ... : ... .. . ... : E-# 00 6 ... : ... .. . ... ... : ... .. . ... ... : ... .. . ... ... : ... .. 4 ... ...
ROW 80 : ... .. . ... ... ... : ... .. . P7E ... ... : --- .. . ... : A-# 00 1 ... : ... .. . ... ... : ... .. . ... ... : ... .. . ... ... : ... .. 3 ... ...
ROW 81 : ... .. . ... ... ... : ... .. . P7A ... ... : F-4 00 . ... : 4-# 00 D ... : ... .. . ... ... : C-3 01 4 ... V03 : F-4 01 4 ... V03 : ... .. 8 ... ...
ROW 82 : ... .. . ... ... ... : ... .. . ... ... ... : ... .. . ... : ... .. . ... : ... .. . ... ... : ... .. . ... V01 : ... .. . ... V01 : ... .. 7 ... ...
ROW 83 : ... .. . ... ... ... : ... .. . P7D ... ... : ... .. . ... : 0-# 00 D ... : ... .. . ... ... : ... .. . ... ... : ... .. . ... ... : ... .. 6 ... ...
ROW 84 : ... .. . ... ... ... : ... .. . P80 ... ... : ... .. . ... : E-# 00 6 ... : ... .. . ... ... : ... .. . ... ... : ... .. . ... ... : ... .. 4 ... ...
ROW 85 : ... .. . ... ... ... : ... .. . P84 ... ... : --- .. . ... : A-# 00 1 ... : ... .. . ... ... : ... .. . ... ... : ... .. . ... ... : ... .. 3 ... ...
ROW 86 : ... .. . ... ... ... : ... .. . P86 ... ... : C-5 00 . ... : B-# 00 D ... : ... .. . ... ... : A-3 01 4 ... V03 : E-4 01 4 ... V03 : F-4 01 8 ... ...
ROW 87 : ... .. . ... ... ... : ... .. . P85 ... ... : ... .. . ... : ... .. . ... : ... .. . ... ... : ... .. . ... V01 : ... .. . ... V01 : ... .. 7 ... ...
ROW 88 : ... .. . ... ... ... : ... .. . P82 ... ... : ... .. . ... : 7-# 00 D ... : ... .. . ... ... : ... .. . ... ... : ... .. . ... ... : ... .. 6 ... ...
ROW 89 : ... .. . ... ... ... : ... .. . P7E ... ... : ... .. . ... : 5-# 00 6 ... : ... .. . ... ... : ... .. . ... ... : ... .. . ... ... : ... .. 4 ... ...
ROW 8A : ... .. . ... ... ... : ... .. . P7B ... ... : --- .. . ... : 1-# 00 1 ... : ... .. . ... ... : ... .. . ... ... : ... .. . ... ... : ... .. 3 ... ...
ROW 8B : ... .. . ... ... ... : ... .. . P7A ... ... : C-5 00 . ... : B-# 00 D ... : ... .. . ... ... : C-3 01 4 ... V03 : C-4 01 4 ... V03 : ... .. 8 ... ...
ROW 8C : ... .. . ... ... ... : ... .. . P7C ... ... : ... .. . ... : ... .. . ... : ... .. . ... ... : ... .. . ... V01 : ... .. . ... V01 : ... .. 7 ... ...
ROW 8D : ... .. . ... ... ... : ... .. . P80 ... ... : ... .. . ... : 7-# 00 D ... : ... .. . ... ... : ... .. . ... ... : ... .. . ... ... : ... .. 6 ... ...
ROW 8E : ... .. . ... ... ... : ... .. . P83 ... ... : ... .. . ... : 5-# 00 6 ... : ... .. . ... ... : ... .. . ... ... : ... .. . ... ... : ... .. 4 ... ...
ROW 8F : ... .. . ... ... ... : ... .. . P86 ... ... : --- .. . ... : 1-# 00 1 ... : ... .. . ... ... : ... .. . ... ... : ... .. . ... ... : ... .. 3 ... ...
ROW 90 : ... .. . ... ... ... : ... .. . ... ... ... : A-4 00 . ... : 3-# 00 D ... : ... .. . ... ... : B-3 01 4 ... V03 : E-4 01 4 ... V03 : C-5 01 8 ... ...
ROW 91 : ... .. . ... ... ... : ... .. . P82 ... ... : ... .. . ... : ... .. . ... : ... .. . ... ... : ... .. . ... V01 : ... .. . ... V01 : ... .. 7 ... ...
ROW 92 : ... .. . ... ... ... : ... .. . P7F ... ... : ... .. . ... : F-# 00 D ... : ... .. . ... ... : ... .. . ... ... : ... .. . ... ... : ... .. 6 ... ...
ROW 93 : ... .. . ... ... ... : ... .. . P7B ... ... : ... .. . ... : D-# 00 6 ... : ... .. . ... ... : ... .. . ... ... : ... .. . ... ... : ... .. 4 ... ...
ROW 94 : ... .. . ... ... ... : ... .. . P7A ... ... : --- .. . ... : 9-# 00 1 ... : ... .. . ... ... : ... .. . ... ... : ... .. . ... ... : ... .. 3 ... ...
ROW 95 : ... .. . P88 ... ... : ... .. . P77 ... ... : A-4 00 . ... : 3-# 00 D ... : ... .. . ... ... : D-3 01 4 ... V03 : F-4 01 4 ... V03 : ... .. 8 ... ...
ROW 96 : F#3 00 A P7B ... ... : ... .. . P7F ... ... : ... .. . ... : ... .. . ... : ... .. . ... ... : ... .. . ... V01 : ... .. . ... V01 : ... .. 7 ... ...
ROW 97 : ... .. . P79 ... ... : ... .. . P86 ... ... : ... .. . ... : F-# 00 D ... : ... .. . ... ... : ... .. . ... ... : ... .. . ... ... : ... .. 6 ... ...
ROW 98 : F-3 00 A P84 ... ... : ... .. . P8C ... ... : ... .. . ... : D-# 00 6 ... : ... .. . ... ... : ... .. . ... ... : ... .. . ... ... : ... .. 4 ... ...
ROW 99 : ... .. . P7C ... ... : ... .. . ... ... ... : --- .. . ... : 9-# 00 1 ... : ... .. . ... ... : ... .. . ... ... : ... .. . ... ... : ... .. 3 ... ...
ROW 9A : E-3 00 A P88 ... ... : ... .. . P86 ... ... : D-5 00 . ... : 2-# 00 F ... : ... .. . ... ... : B-3 01 4 ... V03 : E-4 01 4 ... V03 : A-4 01 8 ... ...
ROW 9B : ... .. . P86 ... ... : ... .. . P7F ... ... : ... .. . ... : ... .. C ... : ... .. . ... ... : ... .. . ... V01 : ... .. . ... V01 : ... .. 7 ... ...
ROW 9C : F-3 00 A P78 ... ... : ... .. . P77 ... ... : ... .. . ... : ... .. 6 ... : ... .. . ... ... : ... .. . ... ... : ... .. . ... ... : ... .. 6 ... ...
ROW 9D : ... .. . P80 ... ... : ... .. . P73 ... ... : ... .. . ... : ... .. 3 ... : ... .. . ... ... : ... .. . ... ... : ... .. . ... ... : ... .. 4 ... ...
ROW 9E : ... .. . P87 ... ... : ... .. . P76 ... ... : --- .. . ... : ... .. 2 ... : ... .. . ... ... : ... .. . ... ... : ... .. . ... ... : ... .. 3 ... ...
ROW 9F : F#3 00 A P7B ... ... : ... .. . P7E ... ... : D-5 00 . ... : ... .. F ... : ... .. . ... ... : D-3 01 4 ... V03 : C-4 01 4 ... V03 : ... .. 8 ... ...
ROW A0 : ... .. . P7A ... ... : ... .. . P85 ... ... : ... .. . ... : ... .. C ... : ... .. . ... ... : ... .. . ... V01 : ... .. . ... V01 : ... .. 7 ... ...
ROW A1 : F-3 00 A P85 ... ... : ... .. . P8C ... ... : ... .. . ... : ... .. 6 ... : ... .. . ... ... : ... .. . ... ... : ... .. . ... ... : ... .. 6 ... ...
ROW A2 : ... .. . P7E ... ... : ... .. . P8D ... ... : ... .. . ... : ... .. 3 ... : ... .. . ... ... : ... .. . ... ... : ... .. . ... ... : ... .. 4 ... ...
ROW A3 : E-3 00 A P89 ... ... : ... .. . P87 ... ... : --- .. . ... : ... .. 2 ... : ... .. . ... ... : ... .. . ... ... : ... .. . ... ... : ... .. 3 ... ...
ROW A4 : ... .. . P86 ... ... : ... .. . P80 ... ... : C-5 00 . ... : 8-# 00 F ... : ... .. . ... ... : C-4 01 4 ... V03 : E-4 01 4 ... V03 : D-5 01 8 ... ...
ROW A5 : F-3 00 2 P77 ... ... : ... .. 2 P78 ... ... : ... .. . ... : ... .. C ... : ... .. . ... ... : ... .. . ... V01 : ... .. . ... V01 : ... .. 7 ... ...
ROW A6 : ... .. . P7F ... ... : ... .. . P73 ... ... : ... .. . ... : ... .. 6 ... : ... .. . ... ... : ... .. . ... ... : ... .. . ... ... : ... .. 6 ... ...
ROW A7 : ... .. . P86 ... ... : ... .. . P75 ... ... : ... .. . ... : ... .. 3 ... : ... .. . ... ... : ... .. . ... ... : ... .. . ... ... : ... .. 4 ... ...
ROW A8 : F#3 00 1 P7A ... ... : ... .. 1 P7C ... ... : --- .. . ... : ... .. 2 ... : ... .. . ... ... : ... .. . ... ... : ... .. . ... ... : ... .. 3 ... ...
ROW A9 : ... .. . ... ... ... : ... .. . P84 ... ... : C-5 00 . ... : ... .. F ... : ... .. . ... ... : F-3 01 4 ... V03 : F-4 01 4 ... V03 : C-5 01 8 ... ...
ROW AA : F-3 00 1 P86 ... ... : ... .. . P8B ... ... : ... .. . ... : ... .. C ... : ... .. . ... ... : ... .. . ... V01 : ... .. . ... V01 : ... .. 7 ... ...
ROW AB : ... .. 0 ... ... ... : ... .. 0 ... ... ... : ... .. . ... : ... .. 6 ... : ... .. . ... ... : ... .. . ... ... : ... .. . ... ... : ... .. 6 ... ...
ROW AC : ... .. . ... ... ... : ... .. . ... ... ... : ... .. . ... : ... .. 3 ... : ... .. . ... ... : ... .. . ... ... : ... .. . ... ... : ... .. 4 ... ...
ROW AD : ... .. . ... ... ... : ... .. . ... ... ... : --- .. . ... : ... .. 2 ... : ... .. . ... ... : ... .. . ... ... : ... .. . ... ... : ... .. 3 ... ...
ROW AE : ... .. . ... ... ... : ... .. . ... ... ... : G-5 00 . ... : F-# 00 F ... : ... .. . ... ... : C-4 01 4 ... V03 : E-4 01 4 ... V03 : A#4 01 8 ... ...
ROW AF : ... .. . ... ... ... : ... .. . ... ... ... : ... .. . ... : ... .. C ... : ... .. . ... ... : ... .. . ... V01 : ... .. . ... V01 : ... .. 7 ... ...
ROW B0 : ... .. . ... ... ... : ... .. . ... ... ... : ... .. . ... : ... .. 6 ... : ... .. . ... ... : ... .. . ... ... : ... .. . ... ... : ... .. 6 ... ...
ROW B1 : ... .. . ... ... ... : ... .. . ... ... ... : ... .. . ... : ... .. 3 ... : ... .. . ... ... : ... .. . ... ... : ... .. . ... ... : ... .. 4 ... ...
ROW B2 : ... .. . ... ... ... : ... .. . ... ... ... : --- .. . ... : ... .. 2 ... : ... .. . ... ... : ... .. . ... ... : ... .. . ... ... : ... .. 3 ... ...
ROW B3 : ... .. . ... ... ... : ... .. . ... ... ... : G-5 00 . ... : ... .. F ... : ... .. . ... ... : F-3 01 4 ... V03 : C-4 01 4 ... V03 : A-4 01 8 ... ...
ROW B4 : ... .. . ... ... ... : ... .. . ... ... ... : ... .. . ... : ... .. C ... : ... .. . ... ... : ... .. . ... V01 : ... .. . ... V01 : ... .. 7 ... ...
ROW B5 : ... .. . ... ... ... : ... .. . ... ... ... : ... .. . ... : ... .. 6 ... : ... .. . ... ... : ... .. . ... ... : ... .. . ... ... : ... .. 6 ... ...
ROW B6 : ... .. . ... ... ... : ... .. . ... ... ... : ... .. . ... : ... .. 3 ... : ... .. . ... ... : ... .. . ... ... : ... .. . ... ... : ... .. 4 ... ...
ROW B7 : ... .. . ... ... ... : ... .. . ... ... ... : --- .. . ... : ... .. 2 ... : ... .. . ... ... : ... .. . ... ... : ... .. . ... ... : ... .. 3 ... ...
ROW B8 : D-4 00 F P80 ... ... : G-3 00 F P80 ... ... : D#3 00 . ... : 1-# 00 F ... : ... .. . ... ... : A-3 01 4 ... V03 : D-4 01 7 P7F V03 : G-4 01 6 ... ...
ROW B9 : ... .. E ... ... ... : ... .. E ... ... ... : ... .. . ... : ... .. C ... : ... .. . ... ... : ... .. . ... V01 : ... .. 6 ... V01 : ... .. 5 ... ...
ROW BA : ... .. D ... ... ... : ... .. D ... ... ... : ... .. . ... : ... .. 6 ... : ... .. . ... ... : ... .. . ... ... : ... .. . ... ... : ... .. 4 ... ...
ROW BB : ... .. A ... ... ... : ... .. A ... ... ... : ... .. . ... : ... .. 3 ... : ... .. . ... ... : ... .. . ... ... : ... .. . ... ... : ... .. 3 ... ...
ROW BC : ... .. . ... ... ... : ... .. . ... ... ... : ... .. . ... : ... .. 2 ... : ... .. . ... ... : ... .. . ... ... : ... .. . ... ... : ... .. 2 ... ...
ROW BD : ... .. . ... ... ... : ... .. . ... ... ... : D-3 00 . P75 : C-# 00 8 ... : ... .. . ... ... : ... .. . ... ... : ... .. . ... ... : ... .. 6 ... ...
ROW BE : ... .. . ... ... ... : ... .. . ... ... ... : C-3 00 . P84 : ... .. 6 ... : ... .. . ... ... : ... .. . ... ... : ... .. . ... ... : ... .. 5 ... ...
ROW BF : ... .. . ... ... ... : ... .. . ... ... ... : B-2 00 . P7D : ... .. 3 ... : ... .. . ... ... : ... .. 3 ... ... : ... .. . ... ... : ... .. 4 ... ...
ROW C0 : ... .. . ... ... ... : ... .. . ... ... ... : A#2 00 . P78 : ... .. 1 ... : ... .. . ... ... : ... .. . ... ... : ... .. . ... ... : ... .. 3 ... ...
ROW C1 : ... .. 2 ... ... ... : ... .. 2 ... ... ... : A-2 00 . P74 : ... .. . ... : ... .. . ... ... : ... .. . ... ... : ... .. . ... ... : ... .. 2 ... ...
ROW C2 : D#2 00 F ... ... ... : A-2 00 F ... ... ... : D#2 00 . P80 : ... .. F ... : ... .. . ... ... : A-2 01 4 ... V03 : ... .. . ... ... : G-3 01 6 ... ...
ROW C3 : ... .. E ... ... ... : ... .. E ... ... ... : ... .. . ... : ... .. C ... : ... .. . ... ... : ... .. . ... V01 : ... .. 5 ... ... : ... .. 5 ... ...
ROW C4 : ... .. D ... ... ... : ... .. D ... ... ... : ... .. . ... : ... .. 6 ... : ... .. . ... ... : ... .. . ... ... : ... .. . ... ... : ... .. 4 ... ...
ROW C5 : ... .. A ... ... ... : ... .. A ... ... ... : ... .. . ... : ... .. 3 ... : ... .. . ... ... : ... .. . ... ... : ... .. 4 ... ... : ... .. 3 ... ...
ROW C6 : ... .. 2 ... ... ... : ... .. 2 ... ... ... : --- .. . ... : ... .. 2 ... : ... .. . ... ... : ... .. . ... ... : ... .. . ... ... : ... .. 2 ... ...
ROW C7 : ... .. F ... ... ... : ... .. F ... ... ... : D#2 00 . ... : 1-# 00 F ... : ... .. . ... ... : A#2 01 4 ... V03 : ... .. . ... ... : ... .. 6 ... ...
ROW C8 : ... .. E ... ... ... : ... .. E ... ... ... : ... .. . ... : ... .. C ... : ... .. . ... ... : ... .. . ... V01 : ... .. . ... ... : ... .. 5 ... ...
ROW C9 : ... .. D ... ... ... : ... .. D ... ... ... : ... .. . ... : ... .. 6 ... : ... .. . ... ... : ... .. . ... ... : ... .. 3 ... ... : ... .. 4 ... ...
ROW CA : ... .. A ... ... ... : ... .. A ... ... ... : ... .. . ... : ... .. 3 ... : ... .. . ... ... : ... .. . ... ... : ... .. . ... ... : ... .. 3 ... ...
ROW CB : ... .. 2 ... ... ... : ... .. 2 ... ... ... : --- .. . ... : ... .. 2 ... : ... .. . ... ... : ... .. . ... ... : ... .. . ... ... : ... .. 2 ... ...
ROW CC : ... .. F ... ... ... : ... .. F ... ... ... : D#2 00 . ... : 3-# 00 D ... : ... .. . ... ... : D-3 01 4 ... V03 : ... .. . ... ... : A-3 01 6 ... ...
ROW CD : ... .. E ... ... ... : ... .. E ... ... ... : ... .. . ... : ... .. . ... : ... .. . ... ... : ... .. . ... V01 : ... .. . ... ... : ... .. 5 ... ...
ROW CE : ... .. D ... ... ... : ... .. D ... ... ... : ... .. . ... : F-# 00 D ... : ... .. . ... ... : ... .. . ... ... : ... .. . ... ... : ... .. 4 ... ...
ROW CF : ... .. A ... ... ... : ... .. A ... ... ... : ... .. . ... : D-# 00 6 ... : ... .. . ... ... : ... .. . ... ... : ... .. . ... ... : ... .. 3 ... ...
ROW D0 : ... .. 2 ... ... ... : ... .. 2 ... ... ... : ... .. . ... : 9-# 00 1 ... : ... .. . ... ... : ... .. . ... ... : ... .. . ... ... : ... .. 2 ... ...
ROW D1 : ... .. F ... ... ... : ... .. F ... ... ... : ... .. . ... : ... .. 0 ... : ... .. . ... ... : G-3 01 4 ... V03 : ... .. . ... ... : ... .. 6 ... ...
ROW D2 : ... .. E ... ... ... : ... .. E ... ... ... : ... .. . ... : ... .. . ... : ... .. . ... ... : ... .. . ... V01 : ... .. . ... ... : ... .. 5 ... ...
ROW D3 : ... .. D ... ... ... : ... .. D ... ... ... : ... .. . ... : ... .. . ... : ... .. . ... ... : ... .. . ... ... : ... .. . ... ... : ... .. 4 ... ...
ROW D4 : ... .. A ... ... ... : ... .. A ... ... ... : ... .. . ... : ... .. . ... : ... .. . ... ... : ... .. . ... ... : ... .. . ... ... : ... .. 3 ... ...
ROW D5 : ... .. 2 ... ... ... : ... .. 2 ... ... ... : --- .. . ... : ... .. . ... : ... .. . ... ... : ... .. . ... ... : ... .. . ... ... : ... .. 2 ... ...
ROW D6 : D-4 00 F ... ... ... : G-3 00 F ... ... ... : D#3 00 . ... : 1-# 00 F ... : ... .. . ... ... : A-3 01 4 ... V03 : G-3 01 9 ... V03 : F-4 01 6 ... ...
ROW D7 : ... .. E ... ... ... : ... .. E ... ... ... : ... .. . ... : ... .. C ... : ... .. . ... ... : ... .. . ... V01 : ... .. 8 ... V01 : ... .. 5 ... ...
ROW D8 : ... .. D ... ... ... : ... .. D ... ... ... : ... .. . ... : ... .. 6 ... : ... .. . ... ... : ... .. . ... ... : ... .. . ... ... : ... .. 4 ... ...
ROW D9 : ... .. A ... ... ... : ... .. A ... ... ... : ... .. . ... : ... .. 3 ... : ... .. . ... ... : ... .. . ... ... : ... .. . ... ... : ... .. 3 ... ...
ROW DA : ... .. . ... ... ... : ... .. . ... ... ... : ... .. . ... : ... .. 2 ... : ... .. . ... ... : ... .. . ... ... : ... .. . ... ... : ... .. 2 ... ...
ROW DB : ... .. . ... ... ... : ... .. . ... ... ... : D-3 00 . P75 : C-# 00 7 ... : ... .. . ... ... : ... .. . ... ... : ... .. . ... ... : ... .. 6 ... ...
ROW DC : ... .. . ... ... ... : ... .. . ... ... ... : C-3 00 . P84 : ... .. 5 ... : ... .. . ... ... : ... .. . ... ... : ... .. . ... ... : ... .. 5 ... ...
ROW DD : ... .. . ... ... ... : ... .. . ... ... ... : B-2 00 . P7D : ... .. 2 ... : ... .. . ... ... : ... .. 3 ... ... : ... .. 7 ... ... : ... .. 4 ... ...
ROW DE : ... .. . ... ... ... : ... .. . ... ... ... : A#2 00 . P78 : ... .. 1 ... : ... .. . ... ... : ... .. . ... ... : ... .. . ... ... : ... .. 3 ... ...
ROW DF : ... .. 2 ... ... ... : ... .. 2 ... ... ... : A-2 00 . P74 : ... .. . ... : ... .. . ... ... : ... .. . ... ... : ... .. . ... ... : ... .. 2 ... ...
ROW E0 : D#2 00 F ... ... ... : A#2 00 F ... ... ... : D#2 00 . P80 : ... .. F ... : ... .. . ... ... : A-2 01 4 ... V03 : ... .. . ... ... : G-3 01 6 ... ...
ROW E1 : ... .. E ... ... ... : ... .. E ... ... ... : ... .. . ... : ... .. C ... : ... .. . ... ... : ... .. . ... V01 : ... .. 6 ... ... : ... .. 5 ... ...
ROW E2 : ... .. D ... ... ... : ... .. D ... ... ... : ... .. . ... : ... .. 6 ... : ... .. . ... ... : ... .. . ... ... : ... .. . ... ... : ... .. 4 ... ...
ROW E3 : ... .. A ... ... ... : ... .. A ... ... ... : ... .. . ... : ... .. 3 ... : ... .. . ... ... : ... .. . ... ... : ... .. 5 ... ... : ... .. 3 ... ...
ROW E4 : ... .. 2 ... ... ... : ... .. 2 ... ... ... : --- .. . ... : ... .. 2 ... : ... .. . ... ... : ... .. . ... ... : ... .. . ... ... : ... .. 2 ... ...
ROW E5 : ... .. F ... ... ... : ... .. F ... ... ... : D#2 00 . ... : 1-# 00 F ... : ... .. . ... ... : A#2 01 4 ... V03 : ... .. . ... ... : ... .. 6 ... ...
ROW E6 : ... .. E ... ... ... : ... .. E ... ... ... : ... .. . ... : ... .. C ... : ... .. . ... ... : ... .. . ... V01 : ... .. . ... ... : ... .. 5 ... ...
ROW E7 : ... .. D ... ... ... : ... .. D ... ... ... : ... .. . ... : ... .. 6 ... : ... .. . ... ... : ... .. . ... ... : ... .. 4 ... ... : ... .. 4 ... ...
ROW E8 : ... .. A ... ... ... : ... .. A ... ... ... : ... .. . ... : ... .. 3 ... : ... .. . ... ... : ... .. . ... ... : ... .. . ... ... : ... .. 3 ... ...
ROW E9 : ... .. 2 ... ... ... : ... .. 2 ... ... ... : --- .. . ... : ... .. 2 ... : ... .. . ... ... : ... .. . ... ... : ... .. . ... ... : ... .. 2 ... ...
ROW EA : ... .. F ... ... ... : ... .. F ... ... ... : D#2 00 . ... : 3-# 00 D ... : ... .. . ... ... : D-3 01 4 ... V03 : ... .. . ... ... : A-3 01 6 ... ...
ROW EB : ... .. E ... ... ... : ... .. E ... ... ... : ... .. . ... : ... .. . ... : ... .. . ... ... : ... .. . ... V01 : ... .. . ... ... : ... .. 5 ... ...
ROW EC : ... .. D ... ... ... : ... .. D ... ... ... : ... .. . ... : F-# 00 D ... : ... .. . ... ... : ... .. . ... ... : ... .. . ... ... : ... .. 4 ... ...
ROW ED : ... .. A ... ... ... : ... .. A ... ... ... : ... .. . ... : D-# 00 6 ... : ... .. . ... ... : ... .. . ... ... : ... .. . ... ... : ... .. 3 ... ...
ROW EE : ... .. 2 ... ... ... : ... .. 2 ... ... ... : ... .. . ... : 9-# 00 1 ... : ... .. . ... ... : ... .. . ... ... : ... .. . ... ... : ... .. 2 ... ...
ROW EF : ... .. F ... ... ... : ... .. F ... ... ... : ... .. . ... : ... .. 0 ... : ... .. . ... ... : G-3 01 4 ... V03 : ... .. . ... ... : ... .. 6 ... ...
ROW F0 : ... .. E ... ... ... : ... .. E ... ... ... : ... .. . ... : ... .. . ... : ... .. . ... ... : ... .. . ... V01 : ... .. . ... ... : ... .. 5 ... ...
ROW F1 : ... .. D ... ... ... : ... .. D ... ... ... : ... .. . ... : ... .. . ... : ... .. . ... ... : ... .. . ... ... : ... .. . ... ... : ... .. 4 ... ...
ROW F2 : ... .. A ... ... ... : ... .. A ... ... ... : ... .. . ... : ... .. . ... : ... .. . ... ... : ... .. . ... ... : ... .. . ... ... : ... .. 3 ... ...
ROW F3 : ... .. 2 ... ... ... : ... .. 2 ... ... ... : --- .. . ... : ... .. . ... : ... .. . ... ... : ... .. . ... ... : ... .. . ... ... : ... .. 2 ... ...
ROW F4 : D-4 00 F ... ... ... : G-3 00 F ... ... ... : D#3 00 . ... : 1-# 00 F ... : ... .. . ... ... : A-3 01 4 ... V03 : C-4 01 9 ... V03 : F-4 01 6 ... ...
ROW F5 : ... .. E ... ... ... : ... .. E ... ... ... : ... .. . ... : ... .. C ... : ... .. . ... ... : ... .. . ... V01 : ... .. 8 ... V01 : ... .. 5 ... ...
ROW F6 : ... .. D ... ... ... : ... .. D ... ... ... : ... .. . ... : ... .. 6 ... : ... .. . ... ... : ... .. . ... ... : ... .. . ... ... : ... .. 4 ... ...
ROW F7 : ... .. A ... ... ... : ... .. A ... ... ... : ... .. . ... : ... .. 3 ... : ... .. . ... ... : ... .. . ... ... : ... .. . ... ... : ... .. 3 ... ...
ROW F8 : ... .. . ... ... ... : ... .. . ... ... ... : ... .. . ... : ... .. 2 ... : ... .. . ... ... : ... .. . ... ... : ... .. . ... ... : ... .. 2 ... ...
ROW F9 : ... .. . ... ... ... : ... .. . ... ... ... : D-3 00 . P75 : C-# 00 8 ... : ... .. . ... ... : ... .. . ... ... : ... .. . ... ... : ... .. 6 ... ...
ROW FA : ... .. . ... ... ... : ... .. . ... ... ... : C-3 00 . P84 : ... .. 6 ... : ... .. . ... ... : ... .. . ... ... : ... .. . ... ... : ... .. 5 ... ...
ROW FB : ... .. . ... ... ... : ... .. . ... ... ... : B-2 00 . P7D : ... .. 3 ... : ... .. . ... ... : ... .. 3 ... ... : ... .. 7 ... ... : ... .. 4 ... ...
ROW FC : ... .. . ... ... ... : ... .. . ... ... ... : A#2 00 . P78 : ... .. 1 ... : ... .. . ... ... : ... .. . ... ... : ... .. . ... ... : ... .. 3 ... ...
ROW FD : ... .. 2 ... ... ... : ... .. 2 ... ... ... : A-2 00 . P74 : ... .. . ... : ... .. . ... ... : ... .. . ... ... : ... .. . ... ... : ... .. 2 ... ...
ROW FE : D#2 00 F ... ... ... : C-3 00 F ... ... ... : D#2 00 . P80 : ... .. F ... : ... .. . ... ... : A-2 01 4 ... V03 : ... .. . ... ... : G-3 01 6 ... ...
ROW FF : ... .. E ... ... ... : ... .. E ... ... ... : ... .. . ... : ... .. C ... : ... .. . ... ... : ... .. . ... V01 : ... .. 6 ... ... : ... .. 5 ... ...

PATTERN 1B
ROW 00 : ... .. D ... ... ... : ... .. D ... ... ... : ... .. . ... : ... .. 6 ... : ... .. . ... ... : ... .. . ... ... : ... .. . ... ... : ... .. 4 ... ...
ROW 01 : ... .. A ... ... ... : ... .. A ... ... ... : ... .. . ... : ... .. 3 ... : ... .. . ... ... : ... .. . ... ... : ... .. 5 ... ... : ... .. 3 ... ...
ROW 02 : ... .. 2 ... ... ... : ... .. 2 ... ... ... : --- .. . ... : ... .. 2 ... : ... .. . ... ... : ... .. . ... ... : ... .. . ... ... : ... .. 2 ... ...
ROW 03 : ... .. F ... ... ... : ... .. F ... ... ... : D#2 00 . ... : 1-# 00 F ... : ... .. . ... ... : A#2 01 4 ... V03 : ... .. . ... ... : ... .. 6 ... ...
ROW 04 : ... .. E ... ... ... : ... .. E ... ... ... : ... .. . ... : ... .. C ... : ... .. . ... ... : ... .. . ... V01 : ... .. . ... ... : ... .. 5 ... ...
ROW 05 : ... .. D ... ... ... : ... .. D ... ... ... : ... .. . ... : ... .. 6 ... : ... .. . ... ... : ... .. . ... ... : ... .. 4 ... ... : ... .. 4 ... ...
ROW 06 : ... .. A ... ... ... : ... .. A ... ... ... : ... .. . ... : ... .. 3 ... : ... .. . ... ... : ... .. . ... ... : ... .. . ... ... : ... .. 3 ... ...
ROW 07 : ... .. 2 ... ... ... : ... .. 2 ... ... ... : --- .. . ... : ... .. 2 ... : ... .. . ... ... : ... .. . ... ... : ... .. . ... ... : ... .. 2 ... ...
ROW 08 : ... .. F ... ... ... : ... .. F ... ... ... : D#2 00 . ... : 3-# 00 D ... : ... .. . ... ... : D-3 01 4 ... V03 : ... .. . ... ... : A-3 01 6 ... ...
ROW 09 : ... .. E ... ... ... : ... .. E ... ... ... : ... .. . ... : ... .. . ... : ... .. . ... ... : ... .. . ... V01 : ... .. . ... ... : ... .. 5 ... ...
ROW 0A : ... .. D ... ... ... : ... .. D ... ... ... : ... .. . ... : F-# 00 D ... : ... .. . ... ... : ... .. . ... ... : ... .. . ... ... : ... .. 4 ... ...
ROW 0B : ... .. A ... ... ... : ... .. A ... ... ... : ... .. . ... : D-# 00 6 ... : ... .. . ... ... : ... .. . ... ... : ... .. . ... ... : ... .. 3 ... ...
ROW 0C : ... .. 2 ... ... ... : ... .. 2 ... ... ... : ... .. . ... : 9-# 00 1 ... : ... .. . ... ... : ... .. . ... ... : ... .. . ... ... : ... .. 2 ... ...
ROW 0D : ... .. F ... ... ... : ... .. F ... ... ... : ... .. . ... : ... .. 0 ... : ... .. . ... ... : G-3 01 4 ... V03 : ... .. . ... ... : ... .. 6 ... ...
ROW 0E : ... .. E ... ... ... : ... .. E ... ... ... : ... .. . ... : ... .. . ... : ... .. . ... ... : ... .. . ... V01 : ... .. . ... ... : ... .. 5 ... ...
ROW 0F : ... .. D ... ... ... : ... .. D ... ... ... : ... .. . ... : ... .. . ... : ... .. . ... ... : ... .. . ... ... : ... .. . ... ... : ... .. 4 ... ...
ROW 10 : ... .. A ... ... ... : ... .. A ... ... ... : ... .. . ... : ... .. . ... : ... .. . ... ... : ... .. . ... ... : ... .. . ... ... : ... .. 3 ... ...
ROW 11 : ... .. 2 ... ... ... : ... .. 2 ... ... ... : --- .. . ... : ... .. . ... : ... .. . ... ... : ... .. . ... ... : ... .. . ... ... : ... .. 2 ... ...
ROW 12 : D-4 00 F ... ... ... : G-3 00 F ... ... ... : D#3 00 . ... : 1-# 00 F ... : ... .. . ... ... : A-3 01 4 ... V03 : F-3 01 9 ... V03 : D#4 01 6 ... ...
ROW 13 : ... .. E ... ... ... : ... .. E ... ... ... : ... .. . ... : ... .. C ... : ... .. . ... ... : ... .. . ... V01 : ... .. 8 ... V01 : ... .. 5 ... ...
ROW 14 : ... .. D ... ... ... : ... .. D ... ... ... : ... .. . ... : ... .. 6 ... : ... .. . ... ... : ... .. . ... ... : ... .. . ... ... : ... .. 4 ... ...
ROW 15 : ... .. A ... ... ... : ... .. A ... ... ... : ... .. . ... : ... .. 3 ... : ... .. . ... ... : ... .. . ... ... : ... .. . ... ... : ... .. 3 ... ...
ROW 16 : ... .. . ... ... ... : ... .. . ... ... ... : ... .. . ... : ... .. 2 ... : ... .. . ... ... : ... .. . ... ... : ... .. . ... ... : ... .. 2 ... ...
ROW 17 : ... .. . ... ... ... : ... .. . ... ... ... : D-3 00 . P75 : C-# 00 7 ... : ... .. . ... ... : ... .. . ... ... : ... .. . ... ... : ... .. 6 ... ...
ROW 18 : ... .. . ... ... ... : ... .. . ... ... ... : C-3 00 . P84 : ... .. 5 ... : ... .. . ... ... : ... .. . ... ... : ... .. . ... ... : ... .. 5 ... ...
ROW 19 : ... .. . ... ... ... : ... .. . ... ... ... : B-2 00 . P7D : ... .. 2 ... : ... .. . ... ... : ... .. 3 ... ... : ... .. 7 ... ... : ... .. 4 ... ...
ROW 1A : ... .. . ... ... ... : ... .. . ... ... ... : A#2 00 . P78 : ... .. 1 ... : ... .. . ... ... : ... .. . ... ... : ... .. . ... ... : ... .. 3 ... ...
ROW 1B : ... .. 2 ... ... ... : ... .. 2 ... ... ... : A-2 00 . P74 : ... .. . ... : ... .. . ... ... : ... .. . ... ... : ... .. . ... ... : ... .. 2 ... ...
ROW 1C : A-2 00 F ... ... ... : G-2 00 F ... ... ... : D#2 00 . P80 : ... .. F ... : ... .. . ... ... : ... .. . ... ... : ... .. . ... ... : G-3 01 6 ... ...
ROW 1D : ... .. E ... ... ... : ... .. E ... ... ... : ... .. . ... : ... .. C ... : ... .. . ... ... : ... .. . ... ... : ... .. 6 ... ... : ... .. 5 ... ...
ROW 1E : ... .. D ... ... ... : ... .. D ... ... ... : ... .. . ... : ... .. 6 ... : ... .. . ... ... : ... .. . ... ... : ... .. . ... ... : ... .. 4 ... ...
ROW 1F : ... .. A ... ... ... : ... .. A ... ... ... : ... .. . ... : ... .. 3 ... : ... .. . ... ... : ... .. 2 ... ... : ... .. 5 ... ... : ... .. 3 ... ...
ROW 20 : ... .. 2 ... ... ... : ... .. 2 ... ... ... : --- .. . ... : ... .. 2 ... : ... .. . ... ... : ... .. . ... ... : ... .. . ... ... : ... .. 2 ... ...
ROW 21 : G-2 00 F ... ... ... : ... .. F ... ... ... : D#2 00 . ... : 1-# 00 F ... : ... .. . ... ... : ... .. . ... ... : ... .. . ... ... : ... .. 6 ... ...
ROW 22 : ... .. E ... ... ... : ... .. E ... ... ... : ... .. . ... : ... .. C ... : ... .. . ... ... : ... .. . ... ... : ... .. . ... ... : ... .. 5 ... ...
ROW 23 : ... .. D ... ... ... : ... .. D ... ... ... : ... .. . ... : ... .. 6 ... : ... .. . ... ... : ... .. . ... ... : ... .. 4 ... ... : ... .. 4 ... ...
ROW 24 : ... .. A ... ... ... : ... .. A ... ... ... : ... .. . ... : ... .. 3 ... : ... .. . ... ... : ... .. . ... ... : ... .. . ... ... : ... .. 3 ... ...
ROW 25 : ... .. 2 ... ... ... : ... .. 2 ... ... ... : --- .. . ... : ... .. 2 ... : ... .. . ... ... : ... .. . ... ... : ... .. . ... ... : ... .. 2 ... ...
ROW 26 : F-2 00 F ... ... ... : ... .. F ... ... ... : D#2 00 . ... : 3-# 00 D ... : ... .. . ... ... : D#3 01 9 ... V03 : ... .. . ... ... : A-3 01 6 ... ...
ROW 27 : ... .. E ... ... ... : ... .. E ... ... ... : ... .. . ... : ... .. . ... : ... .. . ... ... : ... .. 8 ... V01 : ... .. . ... ... : ... .. 5 ... ...
ROW 28 : ... .. D ... ... ... : ... .. D ... ... ... : ... .. . ... : F-# 00 D ... : ... .. . ... ... : ... .. . ... ... : ... .. . ... ... : ... .. 4 ... ...
ROW 29 : ... .. A ... ... ... : ... .. A ... ... ... : ... .. . ... : D-# 00 6 ... : ... .. . ... ... : ... .. . ... ... : ... .. . ... ... : ... .. 3 ... ...
ROW 2A : ... .. 2 ... ... ... : ... .. 2 ... ... ... : ... .. . ... : 9-# 00 1 ... : ... .. . ... ... : ... .. . ... ... : ... .. . ... ... : ... .. 2 ... ...
ROW 2B : D#2 00 F ... ... ... : ... .. F ... ... ... : ... .. . ... : ... .. 0 ... : ... .. . ... ... : D-3 01 9 ... V03 : ... .. . ... ... : ... .. 6 ... ...
ROW 2C : ... .. E ... ... ... : ... .. E ... ... ... : ... .. . ... : ... .. . ... : ... .. . ... ... : ... .. 8 ... V01 : ... .. . ... ... : ... .. 5 ... ...
ROW 2D : ... .. D ... ... ... : ... .. D ... ... ... : ... .. . ... : ... .. . ... : ... .. . ... ... : ... .. . ... ... : ... .. . ... ... : ... .. 4 ... ...
ROW 2E : ... .. A ... ... ... : ... .. A ... ... ... : ... .. . ... : ... .. . ... : ... .. . ... ... : ... .. . ... ... : ... .. . ... ... : ... .. 3 ... ...
ROW 2F : ... .. 2 ... ... ... : ... .. 2 ... ... ... : --- .. . ... : ... .. . ... : ... .. . ... ... : ... .. . ... ... : ... .. . ... ... : ... .. 2 ... ...
ROW 30 : D-2 00 F ... ... ... : D-5 00 8 ... ... ... : D#4 00 . ... : 1-# 00 F ... : ... .. . ... ... : C-3 01 9 ... V03 : D#3 01 9 ... V03 : C-4 01 8 ... ...
ROW 31 : ... .. E ... ... ... : ... .. 7 ... ... ... : ... .. . ... : ... .. C ... : ... .. . ... ... : ... .. 8 ... V01 : ... .. 8 ... V01 : ... .. 6 ... ...
ROW 32 : ... .. D ... ... ... : ... .. . ... ... ... : ... .. . ... : ... .. 6 ... : ... .. . ... ... : ... .. . ... ... : ... .. . ... ... : ... .. 4 ... ...
ROW 33 : ... .. A ... ... ... : ... .. 6 ... ... ... : ... .. . ... : ... .. 3 ... : ... .. . ... ... : ... .. . ... ... : ... .. . ... ... : ... .. . ... ...
ROW 34 : ... .. 2 ... ... ... : ... .. 5 ... ... ... : --- .. . ... : ... .. 2 ... : ... .. . ... ... : ... .. . ... ... : ... .. . ... ... : ... .. . ... ...
ROW 35 : D#2 00 F ... ... ... : C-5 00 8 ... ... ... : D-4 00 . ... : C-# 00 8 ... : ... .. . ... ... : A#2 01 9 ... V03 : D-3 01 9 ... V03 : D-4 01 8 ... ...
ROW 36 : ... .. E ... ... ... : ... .. 7 ... ... ... : ... .. . ... : ... .. 6 ... : ... .. . ... ... : ... .. 8 ... V01 : ... .. 8 ... V01 : ... .. 6 ... ...
ROW 37 : ... .. D ... ... ... : ... .. . ... ... ... : ... .. . ... : ... .. 3 ... : ... .. . ... ... : ... .. . ... ... : ... .. . ... ... : ... .. 4 ... ...
ROW 38 : ... .. A ... ... ... : ... .. 6 ... ... ... : ... .. . ... : ... .. 1 ... : ... .. . ... ... : ... .. . ... ... : ... .. . ... ... : ... .. . ... ...
ROW 39 : ... .. . ... ... ... : ... .. 5 ... ... ... : --- .. . ... : ... .. . ... : ... .. . ... ... : ... .. . ... ... : ... .. . ... ... : ... .. . ... ...
ROW 3A : G-2 00 F ... ... ... : A#4 00 8 ... ... ... : C-4 00 . ... : ... .. F ... : ... .. . ... ... : A-2 01 9 ... V03 : C-3 01 9 ... V03 : D#4 01 8 ... ...
ROW 3B : ... .. E ... ... ... : ... .. 7 ... ... ... : ... .. . ... : ... .. C ... : ... .. . ... ... : ... .. 8 ... V01 : ... .. 8 ... V01 : ... .. 6 ... ...
ROW 3C : ... .. D ... ... ... : ... .. . ... ... ... : ... .. . ... : ... .. 6 ... : ... .. . ... ... : ... .. . ... ... : ... .. . ... ... : ... .. 4 ... ...
ROW 3D : ... .. A ... ... ... : ... .. 6 ... ... ... : ... .. . ... : ... .. 3 ... : ... .. . ... ... : ... .. . ... ... : ... .. . ... ... : ... .. . ... ...
ROW 3E : ... .. 2 ... ... ... : ... .. 5 ... ... ... : --- .. . ... : ... .. 2 ... : ... .. . ... ... : ... .. . ... ... : ... .. . ... ... : ... .. . ... ...
ROW 3F : A#2 00 F ... ... ... : A-4 00 8 ... ... ... : A#3 00 . ... : 1-# 00 F ... : ... .. . ... ... : G-2 01 9 ... V03 : A#2 01 9 ... V03 : F-4 01 8 ... ...
ROW 40 : ... .. E ... ... ... : ... .. 7 ... ... ... : ... .. . ... : ... .. C ... : ... .. . ... ... : ... .. 8 ... V01 : ... .. 8 ... V01 : ... .. 6 ... ...
ROW 41 : ... .. D ... ... ... : ... .. . ... ... ... : ... .. . ... : ... .. 6 ... : ... .. . ... ... : ... .. . ... ... : ... .. . ... ... : ... .. 4 ... ...
ROW 42 : ... .. 0 ... ... ... : ... .. 0 ... ... ... : ... .. . ... : ... .. 3 ... : ... .. . ... ... : ... .. . ... ... : ... .. . ... ... : ... .. . ... ...
ROW 43 : ... .. . ... ... ... : ... .. . ... ... ... : --- .. . ... : ... .. 2 ... : ... .. . ... ... : ... .. . ... ... : ... .. . ... ... : ... .. . ... ...
ROW 44 : A-2 00 F P80 ... ... : G-4 00 D P80 ... ... : A-3 00 . ... : 3-# 00 D ... : ... .. . ... ... : F-2 01 9 ... V03 : A-2 01 9 ... V03 : G-4 01 8 ... ...
ROW 45 : ... .. E ... ... ... : ... .. B ... ... ... : ... .. . ... : ... .. . ... : ... .. . ... ... : ... .. 8 ... V01 : ... .. 8 ... V01 : ... .. 6 ... ...
ROW 46 : ... .. D ... ... ... : ... .. . ... ... ... : ... .. . ... : F-# 00 D ... : ... .. . ... ... : ... .. . ... ... : ... .. . ... ... : ... .. 4 ... ...
ROW 47 : ... .. A ... ... ... : ... .. A ... ... ... : ... .. . ... : D-# 00 6 ... : ... .. . ... ... : ... .. . ... ... : ... .. . ... ... : ... .. . ... ...
ROW 48 : ... .. . ... ... ... : ... .. 8 ... ... ... : --- .. . ... : 9-# 00 1 ... : ... .. . ... ... : ... .. . ... ... : ... .. . ... ... : ... .. . ... ...
ROW 49 : ... .. . ... ... ... : ... .. 7 ... ... ... : G-3 00 . ... : ... .. 0 ... : ... .. . ... ... : D#2 01 9 ... V03 : G-2 01 9 ... V03 : A-4 01 8 ... ...
ROW 4A : ... .. . ... ... ... : ... .. 6 ... ... ... : ... .. . ... : ... .. . ... : ... .. . ... ... : ... .. 8 ... V01 : ... .. 8 ... V01 : ... .. 6 ... ...
ROW 4B : ... .. . ... ... ... : ... .. . ... ... ... : ... .. . ... : ... .. . ... : ... .. . ... ... : ... .. . ... ... : ... .. . ... ... : ... .. 4 ... ...
ROW 4C : ... .. 0 ... ... ... : ... .. 0 ... ... ... : ... .. . ... : ... .. . ... : ... .. . ... ... : ... .. . ... ... : ... .. . ... ... : ... .. . ... ...
ROW 4D : ... .. . ... ... ... : ... .. . ... ... ... : --- .. . ... : ... .. . ... : ... .. . ... ... : ... .. . ... ... : ... .. . ... ... : ... .. . ... ...
ROW 4E : A-2 00 4 P80 ... ... : G-4 00 3 P80 ... ... : F-3 00 . ... : ... .. . ... : ... .. . ... ... : D-2 01 9 ... V03 : F-2 01 9 ... V03 : A#4 01 8 ... ...
ROW 4F : ... .. 3 ... ... ... : ... .. 2 ... ... ... : ... .. . ... : ... .. . ... : ... .. . ... ... : ... .. 8 ... V01 : ... .. 8 ... V01 : ... .. 6 ... ...
ROW 50 : ... .. . ... ... ... : ... .. . ... ... ... : ... .. . ... : ... .. . ... : ... .. . ... ... : ... .. . ... ... : ... .. . ... ... : ... .. 4 ... ...
ROW 51 : ... .. 2 ... ... ... : ... .. . ... ... ... : ... .. . ... : ... .. . ... : ... .. . ... ... : ... .. . ... ... : ... .. . ... ... : ... .. . ... ...
ROW 52 : ... .. . ... ... ... : ... .. . ... ... ... : --- .. . ... : ... .. . ... : ... .. . ... ... : ... .. . ... ... : ... .. . ... ... : ... .. . ... ...
ROW 53 : ... .. . ... ... ... : ... .. 1 ... ... ... : D#3 00 . ... : ... .. . ... : ... .. . ... ... : C-2 01 9 ... V03 : D#2 01 9 ... V03 : C-5 01 8 ... ...
ROW 54 : ... .. . ... ... ... : ... .. . ... ... ... : ... .. . ... : ... .. . ... : ... .. . ... ... : ... .. 8 ... V01 : ... .. 8 ... V01 : ... .. 6 ... ...
ROW 55 : ... .. . ... ... ... : ... .. . ... ... ... : ... .. . ... : ... .. . ... : ... .. . ... ... : ... .. . ... ... : ... .. . ... ... : ... .. 4 ... ...
ROW 56 : ... .. 0 ... ... ... : ... .. 0 ... ... ... : ... .. . ... : ... .. . ... : ... .. . ... ... : ... .. . ... ... : ... .. . ... ... : ... .. . ... ...
ROW 57 : ... .. . ... ... ... : ... .. . ... ... ... : --- .. . ... : ... .. . ... : ... .. . ... ... : ... .. . ... ... : ... .. . ... ... : ... .. . ... ...
ROW 58 : A-3 00 8 P80 ... ... : F-3 00 A P80 ... ... : A#3 00 . ... : 1-# 00 F ... : ... .. . Z00 ... : D-2 01 9 P80 V03 : A-2 01 9 P80 V03 : D-5 01 A ... ...
ROW 59 : ... .. 7 ... ... ... : ... .. 4 ... ... ... : G-3 00 . P7B : ... .. C ... : ... .. . ... ... : ... .. 8 ... V01 : ... .. 8 ... V01 : ... .. 8 ... ...
ROW 5A : ... .. 6 ... ... ... : ... .. 0 ... ... ... : E-3 00 . P7F : ... .. 6 ... : ... .. . ... ... : ... .. . ... ... : ... .. . ... ... : ... .. 5 ... ...
ROW 5B : ... .. 5 ... ... ... : F-3 00 4 P80 ... ... : D-3 00 . P77 : ... .. 3 ... : ... .. . ... ... : ... .. . ... ... : ... .. . ... ... : ... .. . ... ...
ROW 5C : ... .. . ... ... ... : ... .. 5 ... ... ... : C-3 00 . P74 : ... .. 2 ... : ... .. . ... ... : ... .. . ... ... : ... .. . ... ... : ... .. . ... ...
ROW 5D : ... .. . ... ... ... : A-2 00 A ... ... ... : A#2 00 . P76 : D-# 00 8 ... : ... .. . ... ... : ... .. . ... ... : ... .. . ... ... : ... .. . ... ...
ROW 5E : ... .. 1 ... ... ... : ... .. 4 ... ... ... : G#2 00 . P7F : ... .. 6 ... : ... .. . ... ... : ... .. . ... ... : ... .. . ... ... : ... .. 2 ... ...
ROW 5F : ... .. . ... ... ... : ... .. 0 ... ... ... : F#2 00 . P8F : ... .. 3 ... : ... .. . ... ... : ... .. 7 ... ... : ... .. 7 ... ... : ... .. . ... ...
ROW 60 : ... .. . ... ... ... : A-2 00 4 P80 ... ... : F-2 00 . P81 : ... .. 1 ... : ... .. . ... ... : ... .. . ... ... : ... .. . ... ... : ... .. 1 ... ...
ROW 61 : ... .. . ... ... ... : ... .. 5 ... ... ... : E-2 00 . P75 : ... .. . ... : ... .. . ... ... : ... .. . ... ... : ... .. . ... ... : ... .. . ... ...
ROW 62 : ... .. F ... ... ... : ... .. A ... ... ... : D-2 00 . P80 : ... .. A ... : ... .. . ... ... : ... .. 9 ... V03 : ... .. 9 ... V03 : ... .. . ... ...
ROW 63 : ... .. E ... ... ... : ... .. 4 ... ... ... : ... .. . ... : ... .. 8 ... : ... .. . ... ... : ... .. 8 ... V01 : ... .. 8 ... V01 : ... .. . ... ...
ROW 64 : ... .. D ... ... ... : ... .. 0 ... ... ... : ... .. . ... : ... .. 4 ... : ... .. . ... ... : ... .. . ... ... : ... .. . ... ... : ... .. . ... ...
ROW 65 : ... .. A ... ... ... : A-2 00 4 P80 ... ... : ... .. . ... : ... .. 2 ... : ... .. . ... ... : --- .. . P84 ... : --- .. . P82 ... : ... .. . ... ...
ROW 66 : ... .. . ... ... ... : ... .. 5 ... ... ... : --- .. . ... : ... .. 1 ... : ... .. . ... ... : ... .. . ... ... : ... .. . ... ... : ... .. . ... ...
ROW 67 : ... .. . ... ... ... : ... .. A ... ... ... : D-2 00 . ... : ... .. 8 ... : ... .. . ... ... : D-2 01 9 P80 V03 : A-2 01 9 P80 V03 : ... .. 0 ... ...
ROW 68 : ... .. 2 ... ... ... : ... .. 4 ... ... ... : ... .. . ... : ... .. 6 ... : ... .. . ... ... : ... .. 8 ... V01 : ... .. 8 ... V01 : ... .. . ... ...
ROW 69 : ... .. . ... ... ... : ... .. 0 ... ... ... : ... .. . ... : ... .. 3 ... : ... .. . ... ... : ... .. . ... ... : ... .. . ... ... : ... .. . ... ...
ROW 6A : ... .. . ... ... ... : A-2 00 4 P80 ... ... : ... .. . ... : ... .. 1 ... : ... .. . ... ... : --- .. . P84 ... : --- .. . P82 ... : ... .. . ... ...
ROW 6B : ... .. 1 ... ... ... : ... .. 5 ... ... ... : --- .. . ... : ... .. . ... : ... .. . ... ... : ... .. . ... ... : ... .. . ... ... : ... .. . ... ...
ROW 6C : D-4 00 F ... ... ... : F-3 00 A ... ... ... : C-3 00 . ... : 1-# 00 D ... : ... .. . ... ... : D-2 01 9 P80 V03 : A-2 01 9 P80 V03 : ... .. A ... ...
ROW 6D : ... .. E ... ... ... : ... .. 4 ... ... ... : ... .. . ... : ... .. . ... : ... .. . ... ... : ... .. 8 ... V01 : ... .. 8 ... V01 : ... .. 8 ... ...
ROW 6E : ... .. D ... ... ... : ... .. 0 ... ... ... : ... .. . ... : D-# 00 D ... : ... .. . ... ... : ... .. . ... ... : ... .. . ... ... : ... .. 5 ... ...
ROW 6F : ... .. A ... ... ... : F-3 00 4 P80 ... ... : ... .. . ... : B-# 00 6 ... : ... .. . ... ... : --- .. . P84 ... : --- .. . P82 ... : ... .. . ... ...
ROW 70 : ... .. . ... ... ... : ... .. 5 ... ... ... : --- .. . ... : 7-# 00 1 ... : ... .. . ... ... : ... .. . ... ... : ... .. . ... ... : ... .. . ... ...
ROW 71 : ... .. . ... ... ... : A-2 00 A ... ... ... : D-3 00 . ... : D-# 00 8 ... : ... .. . ... ... : D-2 01 9 P80 V03 : A-2 01 9 P80 V03 : ... .. . ... ...
ROW 72 : ... .. 2 ... ... ... : ... .. 4 ... ... ... : ... .. . ... : ... .. 6 ... : ... .. . ... ... : ... .. 8 ... V01 : ... .. 8 ... V01 : ... .. 2 ... ...
ROW 73 : ... .. . ... ... ... : ... .. 0 ... ... ... : ... .. . ... : ... .. 3 ... : ... .. . ... ... : ... .. . ... ... : ... .. . ... ... : ... .. . ... ...
ROW 74 : ... .. . ... ... ... : A-2 00 4 P80 ... ... : ... .. . ... : ... .. 1 ... : ... .. . ... ... : --- .. . P84 ... : --- .. . P82 ... : ... .. 1 ... ...
ROW 75 : ... .. 1 ... ... ... : ... .. 5 ... ... ... : --- .. . ... : ... .. . ... : ... .. . ... ... : ... .. . ... ... : ... .. . ... ... : ... .. . ... ...
ROW 76 : A-4 00 F ... ... ... : ... .. A ... ... ... : D-3 00 . ... : ... .. A ... : ... .. . ... ... : D-2 01 9 P80 V03 : A-2 01 9 P80 V03 : ... .. . ... ...
ROW 77 : ... .. E ... ... ... : ... .. 4 ... ... ... : ... .. . ... : ... .. 8 ... : ... .. . ... ... : ... .. 8 ... V01 : ... .. 8 ... V01 : ... .. . ... ...
ROW 78 : ... .. D ... ... ... : ... .. 0 ... ... ... : ... .. . ... : ... .. 4 ... : ... .. . ... ... : ... .. . ... ... : ... .. . ... ... : ... .. . ... ...
ROW 79 : ... .. A ... ... ... : A-2 00 4 P80 ... ... : ... .. . ... : ... .. 2 ... : ... .. . ... ... : ... .. . ... ... : ... .. . ... ... : ... .. . ... ...
ROW 7A : ... .. . ... ... ... : ... .. 5 ... ... ... : --- .. . ... : ... .. 1 ... : ... .. . ... ... : ... .. . ... ... : ... .. . ... ... : ... .. . ... ...
ROW 7B : ... .. . ... ... ... : ... .. A ... ... ... : D-3 00 . ... : ... .. 8 ... : ... .. . ... ... : ... .. . ... ... : ... .. . ... ... : ... .. 0 ... ...
ROW 7C : ... .. 2 ... ... ... : ... .. 4 ... ... ... : ... .. . ... : ... .. 6 ... : ... .. . ... ... : ... .. . ... ... : ... .. . ... ... : ... .. . ... ...
ROW 7D : ... .. . ... ... ... : ... .. 0 ... ... ... : ... .. . ... : ... .. 3 ... : ... .. . ... ... : ... .. 7 ... ... : ... .. 7 ... ... : ... .. . ... ...
ROW 7E : ... .. . ... ... ... : A-2 00 4 P80 ... ... : ... .. . ... : ... .. 1 ... : ... .. . ... ... : --- .. . P84 ... : --- .. . P82 ... : ... .. . ... ...
ROW 7F : ... .. 1 ... ... ... : ... .. 5 ... ... ... : --- .. . ... : ... .. . ... : ... .. . ... ... : ... .. . ... ... : ... .. . ... ... : ... .. . ... ...
ROW 80 : G-4 00 F ... ... ... : G-3 00 A ... ... ... : A#3 00 . ... : 1-# 00 F ... : ... .. . ... ... : D-2 01 9 P80 V03 : B-2 01 9 P80 V03 : ... .. A ... ...
ROW 81 : ... .. E ... ... ... : ... .. 4 ... ... ... : G-3 00 . P7B : ... .. C ... : ... .. . ... ... : ... .. 8 ... V01 : ... .. 8 ... V01 : ... .. 8 ... ...
ROW 82 : ... .. D ... ... ... : ... .. 0 ... ... ... : E-3 00 . P7F : ... .. 6 ... : ... .. . ... ... : ... .. . ... ... : ... .. . ... ... : ... .. 5 ... ...
ROW 83 : ... .. A ... ... ... : G-3 00 4 P80 ... ... : D-3 00 . P77 : ... .. 3 ... : ... .. . ... ... : ... .. . ... ... : ... .. . ... ... : ... .. . ... ...
ROW 84 : ... .. . ... ... ... : ... .. 5 ... ... ... : C-3 00 . P74 : ... .. 2 ... : ... .. . ... ... : ... .. . ... ... : ... .. . ... ... : ... .. . ... ...
ROW 85 : ... .. . ... ... ... : B-2 00 A ... ... ... : A#2 00 . P76 : D-# 00 8 ... : ... .. . ... ... : ... .. . ... ... : ... .. . ... ... : ... .. . ... ...
ROW 86 : ... .. . ... ... ... : ... .. 4 ... ... ... : G#2 00 . P7F : ... .. 6 ... : ... .. . ... ... : ... .. . ... ... : ... .. . ... ... : ... .. 2 ... ...
ROW 87 : ... .. . ... ... ... : ... .. 0 ... ... ... : F#2 00 . P8F : ... .. 3 ... : ... .. . ... ... : ... .. 7 ... ... : ... .. 7 ... ... : ... .. . ... ...
ROW 88 : ... .. . ... ... ... : B-2 00 4 P80 ... ... : F-2 00 . P81 : ... .. 1 ... : ... .. . ... ... : ... .. . ... ... : ... .. . ... ... : ... .. 1 ... ...
ROW 89 : ... .. . ... ... ... : ... .. 5 ... ... ... : E-2 00 . P75 : ... .. . ... : ... .. . ... ... : ... .. . ... ... : ... .. . ... ... : ... .. . ... ...
ROW 8A : ... .. . ... ... ... : ... .. A ... ... ... : F-3 00 . P80 : ... .. A ... : ... .. . ... ... : ... .. 9 ... V03 : ... .. 9 ... V03 : ... .. . ... ...
ROW 8B : ... .. . ... ... ... : ... .. 4 ... ... ... : ... .. . ... : ... .. 8 ... : ... .. . ... ... : ... .. 8 ... V01 : ... .. 8 ... V01 : ... .. . ... ...
ROW 8C : ... .. . ... ... ... : ... .. 0 ... ... ... : ... .. . ... : ... .. 4 ... : ... .. . ... ... : ... .. . ... ... : ... .. . ... ... : ... .. . ... ...
ROW 8D : ... .. . ... ... ... : B-2 00 4 P80 ... ... : ... .. . ... : ... .. 2 ... : ... .. . ... ... : --- .. . P84 ... : --- .. . P85 ... : ... .. . ... ...
ROW 8E : ... .. . ... ... ... : ... .. 5 ... ... ... : --- .. . ... : ... .. 1 ... : ... .. . ... ... : ... .. . ... ... : ... .. . ... ... : ... .. . ... ...
ROW 8F : ... .. . ... ... ... : ... .. A ... ... ... : F-3 00 . ... : ... .. 8 ... : ... .. . ... ... : D-2 01 9 P80 V03 : B-2 01 9 P80 V03 : ... .. 0 ... ...
ROW 90 : ... .. . ... ... ... : ... .. 4 ... ... ... : ... .. . ... : ... .. 6 ... : ... .. . ... ... : ... .. 8 ... V01 : ... .. 8 ... V01 : ... .. . ... ...
ROW 91 : ... .. . ... ... ... : ... .. 0 ... ... ... : ... .. . ... : ... .. 3 ... : ... .. . ... ... : ... .. . ... ... : ... .. . ... ... : ... .. . ... ...
ROW 92 : ... .. . P84 ... ... : B-2 00 4 P80 ... ... : ... .. . ... : ... .. 1 ... : ... .. . ... ... : --- .. . P84 ... : --- .. . P85 ... : ... .. . ... ...
ROW 93 : G#4 00 A P7E ... ... : ... .. 5 ... ... ... : --- .. . ... : ... .. . ... : ... .. . ... ... : ... .. . ... ... : ... .. . ... ... : ... .. . ... ...
ROW 94 : G-4 00 A P84 ... ... : G-3 00 A ... ... ... : D-3 00 . ... : 1-# 00 D ... : ... .. . ... ... : D-2 01 9 P80 V03 : B-2 01 9 P80 V03 : ... .. A ... ...
ROW 95 : ... .. . P80 ... ... : ... .. 4 ... ... ... : ... .. . ... : ... .. . ... : ... .. . ... ... : ... .. 8 ... V01 : ... .. 8 ... V01 : ... .. 8 ... ...
ROW 96 : F#4 00 A P84 ... ... : ... .. 0 ... ... ... : ... .. . ... : D-# 00 D ... : ... .. . ... ... : ... .. . ... ... : ... .. . ... ... : ... .. 5 ... ...
ROW 97 : ... .. . P82 ... ... : G-3 00 4 P80 ... ... : ... .. . ... : B-# 00 6 ... : ... .. . ... ... : --- .. . P84 ... : --- .. . P85 ... : ... .. . ... ...
ROW 98 : ... .. . P84 ... ... : ... .. 5 ... ... ... : --- .. . ... : 7-# 00 1 ... : ... .. . ... ... : ... .. . ... ... : ... .. . ... ... : ... .. . ... ...
ROW 99 : G-4 00 A P80 ... ... : B-2 00 A ... ... ... : D-3 00 . ... : D-# 00 8 ... : ... .. . ... ... : D-2 01 9 P80 V03 : B-2 01 9 P80 V03 : ... .. . ... ...
ROW 9A : ... .. 2 P84 ... ... : ... .. 4 ... ... ... : ... .. . ... : ... .. 6 ... : ... .. . ... ... : ... .. 8 ... V01 : ... .. 8 ... V01 : ... .. 2 ... ...
ROW 9B : G#4 00 2 P7E ... ... : ... .. 0 ... ... ... : ... .. . ... : ... .. 3 ... : ... .. . ... ... : ... .. . ... ... : ... .. . ... ... : ... .. . ... ...
ROW 9C : G-4 00 2 P84 ... ... : B-2 00 4 P80 ... ... : ... .. . ... : ... .. 1 ... : ... .. . ... ... : --- .. . P84 ... : --- .. . P85 ... : ... .. 1 ... ...
ROW 9D : ... .. 1 P80 ... ... : ... .. 5 ... ... ... : --- .. . ... : ... .. . ... : ... .. . ... ... : ... .. . ... ... : ... .. . ... ... : ... .. . ... ...
ROW 9E : D-4 00 F ... ... ... : ... .. A ... ... ... : D-2 00 . ... : ... .. A ... : ... .. . ... ... : D-2 01 9 P80 V03 : B-2 01 9 P80 V03 : ... .. . ... ...
ROW 9F : ... .. E ... ... ... : ... .. 4 ... ... ... : ... .. . ... : ... .. 8 ... : ... .. . ... ... : ... .. 8 ... V01 : ... .. 8 ... V01 : ... .. . ... ...
ROW A0 : ... .. D ... ... ... : ... .. 0 ... ... ... : ... .. . ... : ... .. 4 ... : ... .. . ... ... : ... .. . ... ... : ... .. . ... ... : ... .. . ... ...
ROW A1 : ... .. A ... ... ... : B-2 00 4 P80 ... ... : ... .. . ... : ... .. 2 ... : ... .. . ... ... : ... .. . ... ... : ... .. . ... ... : ... .. . ... ...
ROW A2 : ... .. 2 ... ... ... : ... .. 5 ... ... ... : --- .. . ... : ... .. 1 ... : ... .. . ... ... : ... .. . ... ... : ... .. . ... ... : ... .. . ... ...
ROW A3 : E-4 00 F ... ... ... : ... .. A ... ... ... : D-2 00 . ... : ... .. 8 ... : ... .. . ... ... : ... .. . ... ... : ... .. . ... ... : ... .. 0 ... ...
ROW A4 : ... .. E ... ... ... : ... .. 4 ... ... ... : ... .. . ... : ... .. 6 ... : ... .. . ... ... : ... .. . ... ... : ... .. . ... ... : ... .. . ... ...
ROW A5 : ... .. D ... ... ... : ... .. 0 ... ... ... : ... .. . ... : ... .. 3 ... : ... .. . ... ... : ... .. 7 ... ... : ... .. 7 ... ... : ... .. . ... ...
ROW A6 : ... .. A ... ... ... : B-2 00 4 P80 ... ... : ... .. . ... : ... .. 1 ... : ... .. . ... ... : --- .. . P84 ... : --- .. . P85 ... : ... .. . ... ...
ROW A7 : ... .. 2 ... ... ... : ... .. 5 ... ... ... : --- .. . ... : ... .. . ... : ... .. . ... ... : ... .. . ... ... : ... .. . ... ... : ... .. . ... ...
ROW A8 : F-4 00 F ... ... ... : F-3 00 A ... ... ... : A#3 00 . ... : 1-# 00 F ... : ... .. . ... ... : D-2 01 9 P80 V03 : A#2 01 9 P80 V03 : ... .. A ... ...
ROW A9 : ... .. E ... ... ... : ... .. 4 ... ... ... : G-3 00 . P7B : ... .. C ... : ... .. . ... ... : ... .. 8 ... V01 : ... .. 8 ... V01 : ... .. 8 ... ...
ROW AA : ... .. D ... ... ... : ... .. 0 ... ... ... : E-3 00 . P7F : ... .. 6 ... : ... .. . ... ... : ... .. . ... ... : ... .. . ... ... : ... .. 5 ... ...
ROW AB : ... .. A ... ... ... : F-3 00 4 P80 ... ... : D-3 00 . P77 : ... .. 3 ... : ... .. . ... ... : ... .. . ... ... : ... .. . ... ... : ... .. . ... ...
ROW AC : ... .. . ... ... ... : ... .. 5 ... ... ... : C-3 00 . P74 : ... .. 2 ... : ... .. . ... ... : ... .. . ... ... : ... .. . ... ... : ... .. . ... ...
ROW AD : ... .. . ... ... ... : D-3 00 A ... ... ... : A#2 00 . P80 : D-# 00 8 ... : ... .. . ... ... : ... .. . ... ... : ... .. . ... ... : ... .. . ... ...
ROW AE : ... .. . ... ... ... : ... .. 4 ... ... ... : ... .. . ... : ... .. 6 ... : ... .. . ... ... : ... .. . ... ... : ... .. . ... ... : ... .. . ... ...
ROW AF : ... .. . ... ... ... : ... .. 0 ... ... ... : ... .. . ... : ... .. 3 ... : ... .. . ... ... : ... .. 7 ... ... : ... .. 7 ... ... : ... .. . ... ...
ROW B0 : ... .. . ... ... ... : D-3 00 4 P80 ... ... : ... .. . ... : ... .. 1 ... : ... .. . ... ... : ... .. . ... ... : ... .. . ... ... : ... .. . ... ...
ROW B1 : ... .. . ... ... ... : ... .. 5 ... ... ... : ... .. . ... : ... .. . ... : ... .. . ... ... : ... .. . ... ... : ... .. . ... ... : ... .. . ... ...
ROW B2 : ... .. . ... ... ... : A#2 00 A ... ... ... : ... .. . ... : ... .. A ... : ... .. . ... ... : ... .. . ... ... : ... .. . ... ... : ... .. . ... ...
ROW B3 : ... .. . ... ... ... : ... .. 4 ... ... ... : ... .. . ... : ... .. 8 ... : ... .. . ... ... : ... .. 6 ... ... : ... .. 6 ... ... : ... .. . ... ...
ROW B4 : ... .. . ... ... ... : ... .. 0 ... ... ... : ... .. . ... : ... .. 4 ... : ... .. . ... ... : ... .. . ... ... : ... .. . ... ... : ... .. . ... ...
ROW B5 : ... .. . ... ... ... : A#2 00 4 P80 ... ... : ... .. . ... : ... .. 2 ... : ... .. . ... ... : ... .. 5 ... ... : ... .. 5 ... ... : ... .. . ... ...
ROW B6 : ... .. . ... ... ... : ... .. 5 ... ... ... : ... .. . ... : ... .. 1 ... : ... .. . ... ... : ... .. . ... ... : ... .. . ... ... : ... .. . ... ...
ROW B7 : ... .. . ... ... ... : F-2 00 A ... ... ... : ... .. . ... : ... .. 8 ... : ... .. . ... ... : ... .. . ... ... : ... .. . ... ... : ... .. . ... ...
ROW B8 : ... .. 2 ... ... ... : ... .. 4 ... ... ... : ... .. . ... : ... .. 6 ... : ... .. . ... ... : ... .. . ... ... : ... .. . ... ... : ... .. . ... ...
ROW B9 : ... .. . ... ... ... : ... .. 0 ... ... ... : ... .. . ... : ... .. 3 ... : ... .. . ... ... : ... .. 4 ... ... : ... .. 4 ... ... : ... .. . ... ...
ROW BA : ... .. . ... ... ... : F-2 00 4 P80 ... ... : ... .. . ... : ... .. 1 ... : ... .. . ... ... : --- .. . P84 ... : --- .. . P82 ... : --- .. . ... ...
ROW BB : ... .. 1 ... ... ... : ... .. 5 ... ... ... : --- .. . ... : ... .. . ... : ... .. . ... ... : ... .. . ... ... : ... .. . ... ... : ... .. . ... ...
ROW BC : E-4 00 F ... ... ... : E-3 00 A ... ... ... : A#3 00 . ... : 1-# 00 D ... : ... .. . ... ... : E-2 01 9 P80 V03 : C-3 01 9 P80 V03 : C-5 01 A ... ...
ROW BD : ... .. E ... ... ... : ... .. 4 ... ... ... : G-3 00 . P7B : ... .. . ... : ... .. . ... ... : ... .. 8 ... V01 : ... .. 8 ... V01 : ... .. 8 ... ...
ROW BE : ... .. D ... ... ... : ... .. 0 ... ... ... : E-3 00 . P7F : D-# 00 D ... : ... .. . ... ... : ... .. . ... ... : ... .. . ... ... : ... .. 5 ... ...
ROW BF : ... .. A ... ... ... : E-3 00 4 P80 ... ... : D-3 00 . P77 : B-# 00 6 ... : ... .. . ... ... : ... .. . ... ... : ... .. . ... ... : ... .. . ... ...
ROW C0 : ... .. . ... ... ... : ... .. 5 ... ... ... : C-3 00 . P74 : 7-# 00 1 ... : ... .. . ... ... : ... .. . ... ... : ... .. . ... ... : ... .. . ... ...
ROW C1 : ... .. . ... ... ... : C-3 00 A ... ... ... : A-2 00 . P80 : D-# 00 8 ... : ... .. . ... ... : ... .. . ... ... : ... .. . ... ... : ... .. . ... ...
ROW C2 : ... .. . ... ... ... : ... .. 4 ... ... ... : ... .. . ... : ... .. 6 ... : ... .. . ... ... : ... .. . ... ... : ... .. . ... ... : ... .. . ... ...
ROW C3 : ... .. . ... ... ... : ... .. 0 ... ... ... : ... .. . ... : ... .. 3 ... : ... .. . ... ... : ... .. 7 ... ... : ... .. 7 ... ... : ... .. . ... ...
ROW C4 : ... .. . ... ... ... : C-3 00 4 P80 ... ... : ... .. . ... : ... .. 1 ... : ... .. . ... ... : ... .. . ... ... : ... .. . ... ... : ... .. . ... ...
ROW C5 : ... .. . ... ... ... : ... .. 5 ... ... ... : ... .. . ... : ... .. . ... : ... .. . ... ... : ... .. . ... ... : ... .. . ... ... : ... .. . ... ...
ROW C6 : ... .. . ... ... ... : A-2 00 A ... ... ... : ... .. . ... : ... .. A ... : ... .. . ... ... : ... .. . ... ... : ... .. . ... ... : ... .. . ... ...
ROW C7 : ... .. . ... ... ... : ... .. 4 ... ... ... : ... .. . ... : ... .. 8 ... : ... .. . ... ... : ... .. 6 ... ... : ... .. 6 ... ... : ... .. . ... ...
ROW C8 : ... .. . ... ... ... : ... .. 0 ... ... ... : ... .. . ... : ... .. 4 ... : ... .. . ... ... : ... .. . ... ... : ... .. . ... ... : ... .. . ... ...
ROW C9 : ... .. . ... ... ... : A-2 00 4 P80 ... ... : ... .. . ... : ... .. 2 ... : ... .. . ... ... : ... .. 5 ... ... : ... .. 5 ... ... : ... .. . ... ...
ROW CA : ... .. . ... ... ... : ... .. 5 ... ... ... : ... .. . ... : ... .. 1 ... : ... .. . ... ... : ... .. . ... ... : ... .. . ... ... : ... .. . ... ...
ROW CB : ... .. . ... ... ... : E-2 00 A ... ... ... : ... .. . ... : ... .. 8 ... : ... .. . ... ... : ... .. . ... ... : ... .. . ... ... : ... .. . ... ...
ROW CC : ... .. 2 ... ... ... : ... .. 4 ... ... ... : ... .. . ... : ... .. 6 ... : ... .. . ... ... : ... .. . ... ... : ... .. . ... ... : ... .. . ... ...
ROW CD : ... .. . ... ... ... : ... .. 0 ... ... ... : ... .. . ... : ... .. 3 ... : ... .. . ... ... : ... .. 4 ... ... : ... .. 4 ... ... : ... .. . ... ...
ROW CE : ... .. . ... ... ... : E-2 00 4 P80 ... ... : ... .. . ... : ... .. 1 ... : ... .. . ... ... : --- .. . P83 ... : --- .. . P7E ... : --- .. . ... ...
ROW CF : ... .. 1 ... ... ... : ... .. 5 ... ... ... : --- .. . ... : ... .. . ... : ... .. . ... ... : ... .. . ... ... : ... .. . ... ... : ... .. . ... ...
ROW D0 : C-4 00 F ... ... ... : G-3 00 A ... ... ... : A-3 00 . ... : 9-# 00 D ... : ... .. . ... ... : C-2 01 9 P80 V03 : G-2 01 9 P80 V03 : A-4 01 A ... ...
ROW D1 : ... .. E ... ... ... : ... .. 4 ... ... ... : ... .. . ... : ... .. . ... : ... .. . ... ... : ... .. 8 ... V01 : ... .. 8 ... V01 : ... .. 8 ... ...
ROW D2 : ... .. D ... ... ... : ... .. 0 ... ... ... : ... .. . ... : 5-# 00 D ... : ... .. . ... ... : ... .. . ... ... : ... .. . ... ... : ... .. 5 ... ...
ROW D3 : ... .. A ... ... ... : G-3 00 4 P80 ... ... : ... .. . ... : 3-# 00 6 ... : ... .. . ... ... : ... .. . ... ... : ... .. . ... ... : ... .. . ... ...
ROW D4 : ... .. . ... ... ... : ... .. 5 ... ... ... : ... .. . ... : F-# 00 1 ... : ... .. . ... ... : ... .. . ... ... : ... .. . ... ... : ... .. . ... ...
ROW D5 : ... .. . ... ... ... : E-3 00 A ... ... ... : ... .. . ... : 9-# 00 D ... : ... .. . ... ... : ... .. . ... ... : C-3 01 9 ... V03 : ... .. . ... ...
ROW D6 : ... .. 2 ... ... ... : ... .. 4 ... ... ... : ... .. . ... : ... .. . ... : ... .. . ... ... : ... .. . ... ... : ... .. 8 ... V01 : ... .. 2 ... ...
ROW D7 : ... .. . ... ... ... : ... .. 0 ... ... ... : ... .. . ... : 5-# 00 D ... : ... .. . ... ... : ... .. 7 ... ... : ... .. . ... ... : ... .. . ... ...
ROW D8 : ... .. . ... ... ... : E-3 00 4 P80 ... ... : ... .. . ... : 3-# 00 6 ... : ... .. . ... ... : --- .. . P7E ... : --- .. . P7E ... : ... .. 1 ... ...
ROW D9 : ... .. 1 ... ... ... : ... .. 5 ... ... ... : --- .. . ... : F-# 00 1 ... : ... .. . ... ... : ... .. . ... ... : ... .. . ... ... : ... .. . ... ...
ROW DA : ... .. F ... ... ... : C-3 00 A ... ... ... : A-3 00 . ... : 4-# 00 D ... : ... .. . ... ... : C-2 01 9 P80 V03 : E-3 01 9 P80 V03 : ... .. A ... ...
ROW DB : ... .. E ... ... ... : ... .. 4 ... ... ... : ... .. . ... : ... .. . ... : ... .. . ... ... : ... .. 8 ... V01 : ... .. 8 ... V01 : ... .. 8 ... ...
ROW DC : ... .. D ... ... ... : ... .. 0 ... ... ... : ... .. . ... : 0-# 00 D ... : ... .. . ... ... : ... .. . ... ... : ... .. . ... ... : ... .. 5 ... ...
ROW DD : ... .. A ... ... ... : C-3 00 4 P80 ... ... : ... .. . ... : E-# 00 6 ... : ... .. . ... ... : --- .. . P7E ... : --- .. . P82 ... : ... .. . ... ...
ROW DE : ... .. 2 ... ... ... : ... .. 5 ... ... ... : --- .. . ... : A-# 00 1 ... : ... .. . ... ... : ... .. . ... ... : ... .. . ... ... : ... .. 2 ... ...
ROW DF : D-4 00 F ... ... ... : A-2 00 A ... ... ... : A-3 00 . ... : 4-# 00 D ... : ... .. . ... ... : D-2 01 9 P80 V03 : G-3 01 9 P80 V03 : A#4 01 A ... ...
ROW E0 : ... .. E ... ... ... : ... .. 4 ... ... ... : ... .. . ... : ... .. . ... : ... .. . ... ... : ... .. 8 ... V01 : ... .. 8 ... V01 : ... .. 8 ... ...
ROW E1 : ... .. D ... ... ... : ... .. 0 ... ... ... : ... .. . ... : 0-# 00 D ... : ... .. . ... ... : ... .. . ... ... : ... .. . ... ... : ... .. 5 ... ...
ROW E2 : ... .. A ... ... ... : A-2 00 4 P80 ... ... : ... .. . ... : E-# 00 6 ... : ... .. . ... ... : --- .. . P84 ... : --- .. . P81 ... : ... .. . ... ...
ROW E3 : ... .. 2 ... ... ... : ... .. 5 ... ... ... : --- .. . ... : A-# 00 1 ... : ... .. . ... ... : ... .. . ... ... : ... .. . ... ... : ... .. 2 ... ...
ROW E4 : E-4 00 F ... ... ... : G-3 00 A ... ... ... : F-3 00 . ... : 6-# 00 D ... : ... .. . ... ... : E-2 01 9 P80 V03 : C-4 01 9 P80 V03 : C-5 01 A ... ...
ROW E5 : ... .. E ... ... ... : ... .. 4 ... ... ... : ... .. . ... : ... .. . ... : ... .. . ... ... : ... .. 8 ... V01 : ... .. 8 ... V01 : ... .. 8 ... ...
ROW E6 : ... .. D ... ... ... : ... .. 0 ... ... ... : ... .. . ... : 2-# 00 D ... : ... .. . ... ... : ... .. . ... ... : ... .. . ... ... : ... .. 5 ... ...
ROW E7 : ... .. A ... ... ... : G-3 00 4 P80 ... ... : ... .. . ... : 0-# 00 6 ... : ... .. . ... ... : ... .. . ... ... : ... .. . ... ... : ... .. . ... ...
ROW E8 : ... .. . ... ... ... : ... .. 5 ... ... ... : ... .. . ... : C-# 00 1 ... : ... .. . ... ... : ... .. . ... ... : ... .. . ... ... : ... .. . ... ...
ROW E9 : ... .. . ... ... ... : A-3 00 A ... ... ... : ... .. . ... : 6-# 00 D ... : ... .. . ... ... : ... .. . ... ... : D-4 01 9 ... V03 : ... .. . ... ...
ROW EA : ... .. 2 ... ... ... : ... .. 4 ... ... ... : ... .. . ... : ... .. . ... : ... .. . ... ... : ... .. . ... ... : ... .. 8 ... V01 : ... .. 2 ... ...
ROW EB : ... .. . ... ... ... : ... .. 0 ... ... ... : ... .. . ... : 2-# 00 D ... : ... .. . ... ... : ... .. 7 ... ... : ... .. . ... ... : ... .. . ... ...
ROW EC : ... .. . ... ... ... : A-3 00 4 P80 ... ... : ... .. . ... : 0-# 00 6 ... : ... .. . ... ... : --- .. . P83 ... : --- .. . ... ... : ... .. 1 ... ...
ROW ED : ... .. 1 ... ... ... : ... .. 5 ... ... ... : --- .. . ... : C-# 00 1 ... : ... .. . ... ... : ... .. . ... ... : ... .. . ... ... : ... .. . ... ...
ROW EE : C-4 00 F ... ... ... : A#3 00 A ... ... ... : G-3 00 . ... : 1-# 00 D ... : ... .. . ... ... : C-2 01 9 P80 V03 : G-4 01 9 ... V03 : A-4 01 A ... ...
ROW EF : ... .. E ... ... ... : ... .. 4 ... ... ... : ... .. . ... : ... .. . ... : ... .. . ... ... : ... .. 8 ... V01 : ... .. 8 ... V01 : ... .. 8 ... ...
ROW F0 : ... .. D ... ... ... : ... .. 0 ... ... ... : ... .. . ... : D-# 00 D ... : ... .. . ... ... : ... .. . ... ... : ... .. . ... ... : ... .. 5 ... ...
ROW F1 : ... .. A ... ... ... : A#3 00 4 P80 ... ... : ... .. . ... : B-# 00 6 ... : ... .. . ... ... : ... .. . ... ... : ... .. . ... ... : ... .. . ... ...
ROW F2 : ... .. . ... ... ... : ... .. 5 ... ... ... : ... .. . ... : 7-# 00 1 ... : ... .. . ... ... : ... .. . ... ... : ... .. . ... ... : ... .. . ... ...
ROW F3 : ... .. . ... ... ... : G-3 00 A ... ... ... : ... .. . ... : 1-# 00 D ... : ... .. . ... ... : ... .. . ... ... : A-4 01 9 ... V03 : ... .. . ... ...
ROW F4 : ... .. 2 ... ... ... : ... .. 4 ... ... ... : ... .. . ... : ... .. . ... : ... .. . ... ... : ... .. . ... ... : ... .. 8 ... V01 : ... .. 2 ... ...
ROW F5 : ... .. . ... ... ... : ... .. 0 ... ... ... : ... .. . ... : D-# 00 D ... : ... .. . ... ... : ... .. 7 ... ... : ... .. . ... ... : ... .. . ... ...
ROW F6 : ... .. . ... ... ... : G-3 00 4 P80 ... ... : ... .. . ... : B-# 00 6 ... : ... .. . ... ... : --- .. . P7E ... : --- .. . ... ... : ... .. 1 ... ...
ROW F7 : ... .. 1 ... ... ... : ... .. 5 ... ... ... : --- .. . ... : 7-# 00 1 ... : ... .. . ... ... : ... .. . ... ... : ... .. . ... ... : ... .. . ... ...
ROW F8 : D-4 00 F ... ... ... : D-3 00 A ... ... ... : A#3 00 . ... : 1-# 00 F ... : ... .. . ... ... : A#2 01 9 P80 V03 : A#4 01 9 ... V03 : A#4 01 A ... ...
ROW F9 : ... .. E ... ... ... : ... .. 4 ... ... ... : G-3 00 . P7B : ... .. C ... : ... .. . ... ... : ... .. 8 ... V01 : ... .. 8 ... V01 : ... .. 8 ... ...
ROW FA : ... .. D ... ... ... : ... .. 0 ... ... ... : E-3 00 . P7F : ... .. 6 ... : ... .. . ... ... : ... .. . ... ... : ... .. . ... ... : ... .. 5 ... ...
ROW FB : ... .. A ... ... ... : D-3 00 4 P80 ... ... : D-3 00 . P77 : ... .. 3 ... : ... .. . ... ... : ... .. . ... ... : ... .. . ... ... : ... .. . ... ...
ROW FC : ... .. . ... ... ... : ... .. 5 ... ... ... : C-3 00 . P74 : ... .. 2 ... : ... .. . ... ... : ... .. . ... ... : ... .. . ... ... : ... .. . ... ...
ROW FD : ... .. . ... ... ... : A#2 00 A ... ... ... : A#2 00 . P76 : D-# 00 8 ... : ... .. . ... ... : ... .. . ... ... : ... .. . ... ... : ... .. . ... ...
ROW FE : ... .. . ... ... ... : ... .. 4 ... ... ... : G#2 00 . P7F : ... .. 6 ... : ... .. . ... ... : ... .. . ... ... : ... .. . ... ... : ... .. . ... ...
ROW FF : ... .. . ... ... ... : ... .. 0 ... ... ... : F#2 00 . P8F : ... .. 3 ... : ... .. . ... ... : ... .. 7 ... ... : ... .. 7 ... ... : ... .. . ... ...

PATTERN 1C
ROW 00 : ... .. . ... ... ... : A#2 00 4 P80 ... ... : F-2 00 . P81 : ... .. 1 ... : ... .. . ... ... : --- .. . P82 ... : --- .. . ... ... : ... .. . ... ...
ROW 01 : ... .. . ... ... ... : ... .. 5 ... ... ... : --- .. . ... : ... .. . ... : ... .. . ... ... : ... .. . ... ... : ... .. . ... ... : ... .. . ... ...
ROW 02 : ... .. . ... ... ... : G-2 00 A ... ... ... : G-2 00 . P80 : ... .. A ... : ... .. . ... ... : D-2 01 9 P80 V03 : A#2 01 9 ... V03 : ... .. . ... ...
ROW 03 : ... .. . ... ... ... : ... .. 4 ... ... ... : ... .. . ... : ... .. 8 ... : ... .. . ... ... : ... .. 8 ... V01 : ... .. 8 ... V01 : ... .. . ... ...
ROW 04 : ... .. . ... ... ... : ... .. 0 ... ... ... : ... .. . ... : ... .. 4 ... : ... .. . ... ... : ... .. . ... ... : ... .. . ... ... : ... .. . ... ...
ROW 05 : ... .. . ... ... ... : G-2 00 4 P80 ... ... : ... .. . ... : ... .. 2 ... : ... .. . ... ... : --- .. . P84 ... : --- .. . P82 ... : ... .. . ... ...
ROW 06 : ... .. . ... ... ... : ... .. 5 ... ... ... : --- .. . ... : ... .. 1 ... : ... .. . ... ... : ... .. . ... ... : ... .. . ... ... : ... .. . ... ...
ROW 07 : ... .. . ... ... ... : D-2 00 A ... ... ... : G-2 00 . ... : ... .. 8 ... : ... .. . ... ... : D-2 01 9 P80 V03 : A#2 01 9 P80 V03 : ... .. . ... ...
ROW 08 : ... .. . ... ... ... : ... .. 4 ... ... ... : ... .. . ... : ... .. 6 ... : ... .. . ... ... : ... .. 8 ... V01 : ... .. 8 ... V01 : ... .. . ... ...
ROW 09 : ... .. . ... ... ... : ... .. 0 ... ... ... : ... .. . ... : ... .. 3 ... : ... .. . ... ... : ... .. . ... ... : ... .. . ... ... : ... .. . ... ...
ROW 0A : ... .. . ... ... ... : D-2 00 4 P80 ... ... : ... .. . ... : ... .. 1 ... : ... .. . ... ... : --- .. . P84 ... : --- .. . P82 ... : ... .. . ... ...
ROW 0B : ... .. . ... ... ... : ... .. 5 ... ... ... : --- .. . ... : ... .. . ... : ... .. . ... ... : ... .. . ... ... : ... .. . ... ... : ... .. . ... ...
ROW 0C : ... .. . ... ... ... : G-3 00 A ... ... ... : G-2 00 . ... : 1-# 00 D ... : ... .. . ... ... : D-2 01 9 P80 V03 : A#2 01 9 P80 V03 : ... .. . ... ...
ROW 0D : ... .. . ... ... ... : ... .. 4 ... ... ... : ... .. . ... : ... .. . ... : ... .. . ... ... : ... .. 8 ... V01 : ... .. 8 ... V01 : ... .. . ... ...
ROW 0E : ... .. . ... ... ... : ... .. 0 ... ... ... : ... .. . ... : D-# 00 D ... : ... .. . ... ... : ... .. . ... ... : ... .. . ... ... : ... .. . ... ...
ROW 0F : C#4 00 A P7C ... ... : G-3 00 4 P80 ... ... : ... .. . ... : B-# 00 6 ... : ... .. . ... ... : --- .. . P84 ... : --- .. . P82 ... : G#4 01 5 P81 ...
ROW 10 : B-3 00 A P84 ... ... : ... .. 5 ... ... ... : ... .. . ... : 7-# 00 1 ... : ... .. . ... ... : ... .. . ... ... : ... .. . ... ... : F#4 01 5 P84 ...
ROW 11 : A#3 00 A P82 ... ... : D-3 00 A ... ... ... : ... .. . ... : D-# 00 8 ... : ... .. . ... ... : D-2 01 9 P80 V03 : A#2 01 9 P80 V03 : F-4 01 5 P7E ...
ROW 12 : A-3 00 2 P80 ... ... : ... .. 4 ... ... ... : ... .. . ... : ... .. 6 ... : ... .. . ... ... : ... .. 8 ... V01 : ... .. 8 ... V01 : D#4 01 2 P84 ...
ROW 13 : G#3 00 2 P7F ... ... : ... .. 0 ... ... ... : ... .. . ... : ... .. 3 ... : ... .. . ... ... : ... .. . ... ... : ... .. . ... ... : D-4 01 2 P81 ...
ROW 14 : G-3 00 2 ... ... ... : D-3 00 4 P80 ... ... : ... .. . ... : ... .. 1 ... : ... .. . ... ... : --- .. . P84 ... : --- .. . P82 ... : C#4 01 1 P7E ...
ROW 15 : F#3 00 1 P80 ... ... : ... .. 5 ... ... ... : --- .. . ... : ... .. . ... : ... .. . ... ... : ... .. . ... ... : ... .. . ... ... : C-4 01 1 P7B ...
ROW 16 : G-3 00 F ... ... ... : A#2 00 A ... ... ... : G-2 00 . ... : ... .. A ... : ... .. . ... ... : A#2 01 9 P80 V03 : A-4 01 9 P80 V03 : D-4 01 A P80 ...
ROW 17 : ... .. E ... ... ... : ... .. 4 ... ... ... : ... .. . ... : ... .. 8 ... : ... .. . ... ... : ... .. 8 ... V01 : ... .. 8 ... V01 : ... .. 8 ... ...
ROW 18 : ... .. D ... ... ... : ... .. 0 ... ... ... : ... .. . ... : ... .. 4 ... : ... .. . ... ... : ... .. . ... ... : ... .. . ... ... : ... .. 5 ... ...
ROW 19 : ... .. A ... ... ... : A#2 00 4 P80 ... ... : ... .. . ... : ... .. 2 ... : ... .. . ... ... : ... .. . ... ... : ... .. . ... ... : ... .. . ... ...
ROW 1A : ... .. . ... ... ... : ... .. 5 ... ... ... : --- .. . ... : ... .. 1 ... : ... .. . ... ... : ... .. . ... ... : ... .. . ... ... : ... .. . ... ...
ROW 1B : ... .. . ... ... ... : G-2 00 A ... ... ... : G-2 00 . ... : ... .. 8 ... : ... .. . ... ... : ... .. . ... ... : ... .. . ... ... : ... .. . ... ...
ROW 1C : ... .. 2 ... ... ... : ... .. 4 ... ... ... : ... .. . ... : ... .. 6 ... : ... .. . ... ... : ... .. . ... ... : ... .. . ... ... : ... .. 2 ... ...
ROW 1D : ... .. . ... ... ... : ... .. 0 ... ... ... : ... .. . ... : ... .. 3 ... : ... .. . ... ... : ... .. 7 ... ... : ... .. 7 ... ... : ... .. . ... ...
ROW 1E : ... .. . ... ... ... : G-2 00 4 P80 ... ... : ... .. . ... : ... .. 1 ... : ... .. . ... ... : --- .. . P82 ... : --- .. . ... ... : ... .. 1 ... ...
ROW 1F : ... .. . ... ... ... : ... .. . ... ... ... : ... .. . ... : ... .. . ... : ... .. . ... ... : ... .. . ... ... : ... .. . ... ... : ... .. . ... ...
ROW 20 : ... .. . ... ... ... : ... .. . ... ... ... : ... .. . ... : ... .. . ... : ... .. . ... ... : ... .. . ... ... : ... .. . ... ... : ... .. . ... ...
ROW 21 : ... .. . ... ... ... : ... .. . ... ... ... : ... .. . ... : ... .. . ... : ... .. . ... ... : ... .. . ... ... : ... .. . ... ... : ... .. . ... ...
ROW 22 : ... .. . ... ... ... : ... .. . ... ... ... : ... .. . ... : ... .. . ... : ... .. . ... ... : ... .. . ... ... : ... .. . ... ... : ... .. . ... ...
ROW 23 : ... .. . ... ... ... : ... .. . ... ... ... : ... .. . ... : ... .. . ... : ... .. . ... ... : ... .. . ... ... : ... .. . ... ... : ... .. . ... ...
ROW 24 : ... .. . ... ... ... : ... .. . ... ... ... : ... .. . ... : ... .. . ... : ... .. . ... ... : ... .. . ... ... : ... .. . ... ... : ... .. . ... ...
ROW 25 : ... .. . ... ... ... : ... .. . ... ... ... : ... .. . ... : ... .. . ... : ... .. . ... ... : ... .. . ... ... : ... .. . ... ... : ... .. . ... ...
ROW 26 : ... .. . ... ... ... : ... .. . ... ... ... : ... .. . ... : ... .. . ... : ... .. . ... ... : ... .. . ... ... : ... .. . ... ... : ... .. . ... ...
ROW 27 : ... .. . ... ... ... : ... .. . ... ... ... : ... .. . ... : ... .. . ... : ... .. . ... ... : ... .. . ... ... : ... .. . ... ... : ... .. . ... ...
ROW 28 : ... .. . ... ... ... : ... .. . ... ... ... : ... .. . ... : ... .. . ... : ... .. . ... ... : ... .. . ... ... : ... .. . ... ... : ... .. . ... ...
ROW 29 : ... .. . ... ... ... : ... .. . ... ... ... : ... .. . ... : ... .. . ... : ... .. . ... ... : ... .. . ... ... : ... .. . ... ... : ... .. . ... ...
ROW 2A : ... .. . ... ... ... : ... .. . ... ... ... : ... .. . ... : ... .. . ... : ... .. . ... ... : ... .. . ... ... : ... .. . ... ... : ... .. . ... ...
ROW 2B : ... .. . ... ... ... : ... .. . ... ... ... : ... .. . ... : ... .. . ... : ... .. . ... ... : ... .. . ... ... : ... .. . ... ... : ... .. . ... ...
ROW 2C : ... .. . ... ... ... : ... .. . ... ... ... : ... .. . ... : ... .. . ... : ... .. . ... ... : ... .. . ... ... : ... .. . ... ... : ... .. . ... ...
ROW 2D : ... .. . ... ... ... : ... .. . ... ... ... : ... .. . ... : ... .. . ... : ... .. . ... ... : ... .. . ... ... : ... .. . ... ... : ... .. . ... ...
ROW 2E : ... .. . ... ... ... : ... .. . ... ... ... : ... .. . ... : ... .. . ... : ... .. . ... ... : ... .. . ... ... : ... .. . ... ... : ... .. . ... ...
ROW 2F : ... .. . ... ... ... : ... .. . ... ... ... : ... .. . ... : ... .. . ... : ... .. . ... ... : ... .. . ... ... : ... .. . ... ... : ... .. . ... ...
ROW 30 : ... .. . ... ... ... : ... .. . ... ... ... : ... .. . ... : ... .. . ... : ... .. . ... ... : ... .. . ... ... : ... .. . ... ... : ... .. . ... ...
ROW 31 : ... .. . ... ... ... : ... .. . ... ... ... : ... .. . ... : ... .. . ... : ... .. . ... ... : ... .. . ... ... : ... .. . ... ... : ... .. . ... ...
ROW 32 : ... .. . ... ... ... : ... .. . ... ... ... : ... .. . ... : ... .. . ... : ... .. . ... ... : ... .. . ... ... : ... .. . ... ... : ... .. . ... ...
ROW 33 : ... .. . ... ... ... : ... .. . ... ... ... : ... .. . ... : ... .. . ... : ... .. . ... ... : ... .. . ... ... : ... .. . ... ... : ... .. . ... ...
ROW 34 : ... .. . ... ... ... : ... .. . ... ... ... : ... .. . ... : ... .. . ... : ... .. . ... ... : ... .. . ... ... : ... .. . ... ... : ... .. . ... ...
ROW 35 : ... .. . ... ... ... : ... .. . ... ... ... : ... .. . ... : ... .. . ... : ... .. . ... ... : ... .. . ... ... : ... .. . ... ... : ... .. . ... ...
ROW 36 : ... .. . ... ... ... : ... .. . ... ... ... : ... .. . ... : ... .. . ... : ... .. . ... ... : ... .. . ... ... : ... .. . ... ... : ... .. . ... ...
ROW 37 : ... .. . ... ... ... : ... .. . ... ... ... : ... .. . ... : ... .. . ... : ... .. . ... ... : ... .. . ... ... : ... .. . ... ... : ... .. . ... ...
ROW 38 : ... .. . ... ... ... : ... .. . ... ... ... : ... .. . ... : ... .. . ... : ... .. . ... ... : ... .. . ... ... : ... .. . ... ... : ... .. . ... ...
ROW 39 : ... .. . ... ... ... : ... .. . ... ... ... : ... .. . ... : ... .. . ... : ... .. . ... ... : ... .. . ... ... : ... .. . ... ... : ... .. . ... ...
ROW 3A : ... .. . ... ... ... : ... .. . ... ... ... : ... .. . ... : ... .. . ... : ... .. . ... ... : ... .. . ... ... : ... .. . ... ... : ... .. . ... ...
ROW 3B : ... .. . ... ... ... : ... .. . ... ... ... : ... .. . ... : ... .. . ... : ... .. . ... ... : ... .. . ... ... : ... .. . ... ... : ... .. . ... ...
ROW 3C : ... .. . ... ... ... : ... .. . ... ... ... : ... .. . ... : ... .. . ... : ... .. . ... ... : ... .. . ... ... : ... .. . ... ... : ... .. . ... ...
ROW 3D : ... .. . ... ... ... : ... .. . ... ... ... : ... .. . ... : ... .. . ... : ... .. . ... ... : ... .. . ... ... : ... .. . ... ... : ... .. . ... ...
ROW 3E : ... .. . ... ... ... : ... .. . ... ... ... : ... .. . ... : ... .. . ... : ... .. . ... ... : ... .. . ... ... : ... .. . ... ... : ... .. . ... ...
ROW 3F : ... .. . ... ... ... : ... .. . ... ... ... : ... .. . ... : ... .. . ... : ... .. . ... ... : ... .. . ... ... : ... .. . ... ... : ... .. . ... ...
ROW 40 : ... .. . ... ... ... : ... .. . ... ... ... : ... .. . ... : ... .. . ... : ... .. . ... ... : ... .. . ... ... : ... .. . ... ... : ... .. . ... ...
ROW 41 : ... .. . ... ... ... : ... .. . ... ... ... : ... .. . ... : ... .. . ... : ... .. . ... ... : ... .. . ... ... : ... .. . ... ... : ... .. . ... ...
ROW 42 : ... .. . ... ... ... : ... .. . ... ... ... : ... .. . ... : ... .. . ... : ... .. . ... ... : ... .. . ... ... : ... .. . ... ... : ... .. . ... ...
ROW 43 : ... .. . ... ... ... : ... .. . ... ... ... : ... .. . ... : ... .. . ... : ... .. . ... ... : ... .. . ... ... : ... .. . ... ... : ... .. . ... ...
ROW 44 : ... .. . ... ... ... : ... .. . ... ... ... : ... .. . ... : ... .. . ... : ... .. . ... ... : ... .. . ... ... : ... .. . ... ... : ... .. . ... ...
ROW 45 : ... .. . ... ... ... : ... .. . ... ... ... : ... .. . ... : ... .. . ... : ... .. . ... ... : ... .. . ... ... : ... .. . ... ... : ... .. . ... ...
ROW 46 : ... .. . ... ... ... : ... .. . ... ... ... : ... .. . ... : ... .. . ... : ... .. . ... ... : ... .. . ... ... : ... .. . ... ... : ... .. . ... ...
ROW 47 : ... .. . ... ... ... : ... .. . ... ... ... : ... .. . ... : ... .. . ... : ... .. . ... ... : ... .. . ... ... : ... .. . ... ... : ... .. . ... ...
ROW 48 : ... .. . ... ... ... : ... .. . ... ... ... : ... .. . ... : ... .. . ... : ... .. . ... ... : ... .. . ... ... : ... .. . ... ... : ... .. . ... ...
ROW 49 : ... .. . ... ... ... : ... .. . ... ... ... : ... .. . ... : ... .. . ... : ... .. . ... ... : ... .. . ... ... : ... .. . ... ... : ... .. . ... ...
ROW 4A : ... .. . ... ... ... : ... .. . ... ... ... : ... .. . ... : ... .. . ... : ... .. . ... ... : ... .. . ... ... : ... .. . ... ... : ... .. . ... ...
ROW 4B : ... .. . ... ... ... : ... .. . ... ... ... : ... .. . ... : ... .. . ... : ... .. . ... ... : ... .. . ... ... : ... .. . ... ... : ... .. . ... ...
ROW 4C : ... .. . ... ... ... : ... .. . ... ... ... : ... .. . ... : ... .. . ... : ... .. . ... ... : ... .. . ... ... : ... .. . ... ... : ... .. . ... ...
ROW 4D : ... .. . ... ... ... : ... .. . ... ... ... : ... .. . ... : ... .. . ... : ... .. . ... ... : ... .. . ... ... : ... .. . ... ... : ... .. . ... ...
ROW 4E : ... .. . ... ... ... : ... .. . ... ... ... : ... .. . ... : ... .. . ... : ... .. . ... ... : ... .. . ... ... : ... .. . ... ... : ... .. . ... ...
ROW 4F : ... .. . ... ... ... : ... .. . ... ... ... : ... .. . ... : ... .. . ... : ... .. . ... ... : ... .. . ... ... : ... .. . ... ... : ... .. . ... ...
ROW 50 : ... .. . ... ... ... : ... .. . ... ... ... : ... .. . ... : ... .. . ... : ... .. . ... ... : ... .. . ... ... : ... .. . ... ... : ... .. . ... ...
ROW 51 : ... .. . ... ... ... : ... .. . ... ... ... : ... .. . ... : ... .. . ... : ... .. . ... ... : ... .. . ... ... : ... .. . ... ... : ... .. . ... ...
ROW 52 : ... .. . ... ... ... : ... .. . ... ... ... : ... .. . ... : ... .. . ... : ... .. . ... ... : ... .. . ... ... : ... .. . ... ... : ... .. . ... ...
ROW 53 : ... .. . ... ... ... : ... .. . ... ... ... : ... .. . ... : ... .. . ... : ... .. . ... ... : ... .. . ... ... : ... .. . ... ... : ... .. . ... ...
ROW 54 : ... .. . ... ... ... : ... .. . ... ... ... : ... .. . ... : ... .. . ... : ... .. . ... ... : ... .. . ... ... : ... .. . ... ... : ... .. . ... ...
ROW 55 : ... .. . ... ... ... : ... .. . ... ... ... : ... .. . ... : ... .. . ... : ... .. . ... ... : ... .. . ... ... : ... .. . ... ... : ... .. . ... ...
ROW 56 : ... .. . ... ... ... : ... .. . ... ... ... : ... .. . ... : ... .. . ... : ... .. . ... ... : ... .. . ... ... : ... .. . ... ... : ... .. . ... ...
ROW 57 : ... .. . ... ... ... : ... .. . ... ... ... : ... .. . ... : ... .. . ... : ... .. . ... ... : ... .. . ... ... : ... .. . ... ... : ... .. . ... ...
ROW 58 : ... .. . ... ... ... : ... .. . ... ... ... : ... .. . ... : ... .. . ... : ... .. . ... ... : ... .. . ... ... : ... .. . ... ... : ... .. . ... ...
ROW 59 : ... .. . ... ... ... : ... .. . ... ... ... : ... .. . ... : ... .. . ... : ... .. . ... ... : ... .. . ... ... : ... .. . ... ... : ... .. . ... ...
ROW 5A : ... .. . ... ... ... : ... .. . ... ... ... : ... .. . ... : ... .. . ... : ... .. . ... ... : ... .. . ... ... : ... .. . ... ... : ... .. . ... ...
ROW 5B : ... .. . ... ... ... : ... .. . ... ... ... : ... .. . ... : ... .. . ... : ... .. . ... ... : ... .. . ... ... : ... .. . ... ... : ... .. . ... ...
ROW 5C : ... .. . ... ... ... : ... .. . ... ... ... : ... .. . ... : ... .. . ... : ... .. . ... ... : ... .. . ... ... : ... .. . ... ... : ... .. . ... ...
ROW 5D : ... .. . ... ... ... : ... .. . ... ... ... : ... .. . ... : ... .. . ... : ... .. . ... ... : ... .. . ... ... : ... .. . ... ... : ... .. . ... ...
ROW 5E : ... .. . ... ... ... : ... .. . ... ... ... : ... .. . ... : ... .. . ... : ... .. . ... ... : ... .. . ... ... : ... .. . ... ... : ... .. . ... ...
ROW 5F : ... .. . ... ... ... : ... .. . ... ... ... : ... .. . ... : ... .. . ... : ... .. . ... ... : ... .. . ... ... : ... .. . ... ... : ... .. . ... ...
ROW 60 : ... .. . ... ... ... : ... .. . ... ... ... : ... .. . ... : ... .. . ... : ... .. . ... ... : ... .. . ... ... : ... .. . ... ... : ... .. . ... ...
ROW 61 : ... .. . ... ... ... : ... .. . ... ... ... : ... .. . ... : ... .. . ... : ... .. . ... ... : ... .. . ... ... : ... .. . ... ... : ... .. . ... ...
ROW 62 : ... .. . ... ... ... : ... .. . ... ... ... : ... .. . ... : ... .. . ... : ... .. . ... ... : ... .. . ... ... : ... .. . ... ... : ... .. . ... ...
ROW 63 : ... .. . ... ... ... : ... .. . ... ... ... : ... .. . ... : ... .. . ... : ... .. . ... ... : ... .. . ... ... : ... .. . ... ... : ... .. . ... ...
ROW 64 : ... .. . ... ... ... : ... .. . ... ... ... : ... .. . ... : ... .. . ... : ... .. . ... ... : ... .. . ... ... : ... .. . ... ... : ... .. . ... ...
ROW 65 : ... .. . ... ... ... : ... .. . ... ... ... : ... .. . ... : ... .. . ... : ... .. . ... ... : ... .. . ... ... : ... .. . ... ... : ... .. . ... ...
ROW 66 : ... .. . ... ... ... : ... .. . ... ... ... : ... .. . ... : ... .. . ... : ... .. . ... ... : ... .. . ... ... : ... .. . ... ... : ... .. . ... ...
ROW 67 : ... .. . ... ... ... : ... .. . ... ... ... : ... .. . ... : ... .. . ... : ... .. . ... ... : ... .. . ... ... : ... .. . ... ... : ... .. . ... ...
ROW 68 : ... .. . ... ... ... : ... .. . ... ... ... : ... .. . ... : ... .. . ... : ... .. . ... ... : ... .. . ... ... : ... .. . ... ... : ... .. . ... ...
ROW 69 : ... .. . ... ... ... : ... .. . ... ... ... : ... .. . ... : ... .. . ... : ... .. . ... ... : ... .. . ... ... : ... .. . ... ... : ... .. . ... ...
ROW 6A : ... .. . ... ... ... : ... .. . ... ... ... : ... .. . ... : ... .. . ... : ... .. . ... ... : ... .. . ... ... : ... .. . ... ... : ... .. . ... ...
ROW 6B : ... .. . ... ... ... : ... .. . ... ... ... : ... .. . ... : ... .. . ... : ... .. . ... ... : ... .. . ... ... : ... .. . ... ... : ... .. . ... ...
ROW 6C : ... .. . ... ... ... : ... .. . ... ... ... : ... .. . ... : ... .. . ... : ... .. . ... ... : ... .. . ... ... : ... .. . ... ... : ... .. . ... ...
ROW 6D : ... .. . ... ... ... : ... .. . ... ... ... : ... .. . ... : ... .. . ... : ... .. . ... ... : ... .. . ... ... : ... .. . ... ... : ... .. . ... ...
ROW 6E : ... .. . ... ... ... : ... .. . ... ... ... : ... .. . ... : ... .. . ... : ... .. . ... ... : ... .. . ... ... : ... .. . ... ... : ... .. . ... ...
ROW 6F : ... .. . ... ... ... : ... .. . ... ... ... : ... .. . ... : ... .. . ... : ... .. . ... ... : ... .. . ... ... : ... .. . ... ... : ... .. . ... ...
ROW 70 : ... .. . ... ... ... : ... .. . ... ... ... : ... .. . ... : ... .. . ... : ... .. . ... ... : ... .. . ... ... : ... .. . ... ... : ... .. . ... ...
ROW 71 : ... .. . ... ... ... : ... .. . ... ... ... : ... .. . ... : ... .. . ... : ... .. . ... ... : ... .. . ... ... : ... .. . ... ... : ... .. . ... ...
ROW 72 : ... .. . ... ... ... : ... .. . ... ... ... : ... .. . ... : ... .. . ... : ... .. . ... ... : ... .. . ... ... : ... .. . ... ... : ... .. . ... ...
ROW 73 : ... .. . ... ... ... : ... .. . ... ... ... : ... .. . ... : ... .. . ... : ... .. . ... ... : ... .. . ... ... : ... .. . ... ... : ... .. . ... ...
ROW 74 : ... .. . ... ... ... : ... .. . ... ... ... : ... .. . ... : ... .. . ... : ... .. . ... ... : ... .. . ... ... : ... .. . ... ... : ... .. . ... ...
ROW 75 : ... .. . ... ... ... : ... .. . ... ... ... : ... .. . ... : ... .. . ... : ... .. . ... ... : ... .. . ... ... : ... .. . ... ... : ... .. . ... ...
ROW 76 : ... .. . ... ... ... : ... .. . ... ... ... : ... .. . ... : ... .. . ... : ... .. . ... ... : ... .. . ... ... : ... .. . ... ... : ... .. . ... ...
ROW 77 : ... .. . ... ... ... : ... .. . ... ... ... : ... .. . ... : ... .. . ... : ... .. . ... ... : ... .. . ... ... : ... .. . ... ... : ... .. . ... ...
ROW 78 : ... .. . ... ... ... : ... .. . ... ... ... : ... .. . ... : ... .. . ... : ... .. . ... ... : ... .. . ... ... : ... .. . ... ... : ... .. . ... ...
ROW 79 : ... .. . ... ... ... : ... .. . ... ... ... : ... .. . ... : ... .. . ... : ... .. . ... ... : ... .. . ... ... : ... .. . ... ... : ... .. . ... ...
ROW 7A : ... .. . ... ... ... : ... .. . ... ... ... : ... .. . ... : ... .. . ... : ... .. . ... ... : ... .. . ... ... : ... .. . ... ... : ... .. . ... ...
ROW 7B : ... .. . ... ... ... : ... .. . ... ... ... : ... .. . ... : ... .. . ... : ... .. . ... ... : ... .. . ... ... : ... .. . ... ... : ... .. . ... ...
ROW 7C : ... .. . ... ... ... : ... .. . ... ... ... : ... .. . ... : ... .. . ... : ... .. . ... ... : ... .. . ... ... : ... .. . ... ... : ... .. . ... ...
ROW 7D : ... .. . ... ... ... : ... .. . ... ... ... : ... .. . ... : ... .. . ... : ... .. . ... ... : ... .. . ... ... : ... .. . ... ... : ... .. . ... ...
ROW 7E : ... .. . ... ... ... : ... .. . ... ... ... : ... .. . ... : ... .. . ... : ... .. . ... ... : ... .. . ... ... : ... .. . ... ... : ... .. . ... ...
ROW 7F : ... .. . ... ... ... : ... .. . ... ... ... : ... .. . ... : ... .. . ... : ... .. . ... ... : ... .. . ... ... : ... .. . ... ... : ... .. . ... ...
ROW 80 : ... .. . ... ... ... : ... .. . ... ... ... : ... .. . ... : ... .. . ... : ... .. . ... ... : ... .. . ... ... : ... .. . ... ... : ... .. . ... ...
ROW 81 : ... .. . ... ... ... : ... .. . ... ... ... : ... .. . ... : ... .. . ... : ... .. . ... ... : ... .. . ... ... : ... .. . ... ... : ... .. . ... ...
ROW 82 : ... .. . ... ... ... : ... .. . ... ... ... : ... .. . ... : ... .. . ... : ... .. . ... ... : ... .. . ... ... : ... .. . ... ... : ... .. . ... ...
ROW 83 : ... .. . ... ... ... : ... .. . ... ... ... : ... .. . ... : ... .. . ... : ... .. . ... ... : ... .. . ... ... : ... .. . ... ... : ... .. . ... ...
ROW 84 : ... .. . ... ... ... : ... .. . ... ... ... : ... .. . ... : ... .. . ... : ... .. . ... ... : ... .. . ... ... : ... .. . ... ... : ... .. . ... ...
ROW 85 : ... .. . ... ... ... : ... .. . ... ... ... : ... .. . ... : ... .. . ... : ... .. . ... ... : ... .. . ... ... : ... .. . ... ... : ... .. . ... ...
ROW 86 : ... .. . ... ... ... : ... .. . ... ... ... : ... .. . ... : ... .. . ... : ... .. . ... ... : ... .. . ... ... : ... .. . ... ... : ... .. . ... ...
ROW 87 : ... .. . ... ... ... : ... .. . ... ... ... : ... .. . ... : ... .. . ... : ... .. . ... ... : ... .. . ... ... : ... .. . ... ... : ... .. . ... ...
ROW 88 : ... .. . ... ... ... : ... .. . ... ... ... : ... .. . ... : ... .. . ... : ... .. . ... ... : ... .. . ... ... : ... .. . ... ... : ... .. . ... ...
ROW 89 : ... .. . ... ... ... : ... .. . ... ... ... : ... .. . ... : ... .. . ... : ... .. . ... ... : ... .. . ... ... : ... .. . ... ... : ... .. . ... ...
ROW 8A : ... .. . ... ... ... : ... .. . ... ... ... : ... .. . ... : ... .. . ... : ... .. . ... ... : ... .. . ... ... : ... .. . ... ... : ... .. . ... ...
ROW 8B : ... .. . ... ... ... : ... .. . ... ... ... : ... .. . ... : ... .. . ... : ... .. . ... ... : ... .. . ... ... : ... .. . ... ... : ... .. . ... ...
ROW 8C : ... .. . ... ... ... : ... .. . ... ... ... : ... .. . ... : ... .. . ... : ... .. . ... ... : ... .. . ... ... : ... .. . ... ... : ... .. . ... ...
ROW 8D : ... .. . ... ... ... : ... .. . ... ... ... : ... .. . ... : ... .. . ... : ... .. . ... ... : ... .. . ... ... : ... .. . ... ... : ... .. . ... ...
ROW 8E : ... .. . ... ... ... : ... .. . ... ... ... : ... .. . ... : ... .. . ... : ... .. . ... ... : ... .. . ... ... : ... .. . ... ... : ... .. . ... ...
ROW 8F : ... .. . ... ... ... : ... .. . ... ... ... : ... .. . ... : ... .. . ... : ... .. . ... ... : ... .. . ... ... : ... .. . ... ... : ... .. . ... ...
ROW 90 : ... .. . ... ... ... : ... .. . ... ... ... : ... .. . ... : ... .. . ... : ... .. . ... ... : ... .. . ... ... : ... .. . ... ... : ... .. . ... ...
ROW 91 : ... .. . ... ... ... : ... .. . ... ... ... : ... .. . ... : ... .. . ... : ... .. . ... ... : ... .. . ... ... : ... .. . ... ... : ... .. . ... ...
ROW 92 : ... .. . ... ... ... : ... .. . ... ... ... : ... .. . ... : ... .. . ... : ... .. . ... ... : ... .. . ... ... : ... .. . ... ... : ... .. . ... ...
ROW 93 : ... .. . ... ... ... : ... .. . ... ... ... : ... .. . ... : ... .. . ... : ... .. . ... ... : ... .. . ... ... : ... .. . ... ... : ... .. . ... ...
ROW 94 : ... .. . ... ... ... : ... .. . ... ... ... : ... .. . ... : ... .. . ... : ... .. . ... ... : ... .. . ... ... : ... .. . ... ... : ... .. . ... ...
ROW 95 : ... .. . ... ... ... : ... .. . ... ... ... : ... .. . ... : ... .. . ... : ... .. . ... ... : ... .. . ... ... : ... .. . ... ... : ... .. . ... ...
ROW 96 : ... .. . ... ... ... : ... .. . ... ... ... : ... .. . ... : ... .. . ... : ... .. . ... ... : ... .. . ... ... : ... .. . ... ... : ... .. . ... ...
ROW 97 : ... .. . ... ... ... : ... .. . ... ... ... : ... .. . ... : ... .. . ... : ... .. . ... ... : ... .. . ... ... : ... .. . ... ... : ... .. . ... ...
ROW 98 : ... .. . ... ... ... : ... .. . ... ... ... : ... .. . ... : ... .. . ... : ... .. . ... ... : ... .. . ... ... : ... .. . ... ... : ... .. . ... ...
ROW 99 : ... .. . ... ... ... : ... .. . ... ... ... : ... .. . ... : ... .. . ... : ... .. . ... ... : ... .. . ... ... : ... .. . ... ... : ... .. . ... ...
ROW 9A : ... .. . ... ... ... : ... .. . ... ... ... : ... .. . ... : ... .. . ... : ... .. . ... ... : ... .. . ... ... : ... .. . ... ... : ... .. . ... ...
ROW 9B : ... .. . ... ... ... : ... .. . ... ... ... : ... .. . ... : ... .. . ... : ... .. . ... ... : ... .. . ... ... : ... .. . ... ... : ... .. . ... ...
ROW 9C : ... .. . ... ... ... : ... .. . ... ... ... : ... .. . ... : ... .. . ... : ... .. . ... ... : ... .. . ... ... : ... .. . ... ... : ... .. . ... ...
ROW 9D : ... .. . ... ... ... : ... .. . ... ... ... : ... .. . ... : ... .. . ... : ... .. . ... ... : ... .. . ... ... : ... .. . ... ... : ... .. . ... ...
ROW 9E : ... .. . ... ... ... : ... .. . ... ... ... : ... .. . ... : ... .. . ... : ... .. . ... ... : ... .. . ... ... : ... .. . ... ... : ... .. . ... ...
ROW 9F : ... .. . ... ... ... : ... .. . ... ... ... : ... .. . ... : ... .. . ... : ... .. . ... ... : ... .. . ... ... : ... .. . ... ... : ... .. . ... ...
ROW A0 : ... .. . ... ... ... : ... .. . ... ... ... : ... .. . ... : ... .. . ... : ... .. . ... ... : ... .. . ... ... : ... .. . ... ... : ... .. . ... ...
ROW A1 : ... .. . ... ... ... : ... .. . ... ... ... : ... .. . ... : ... .. . ... : ... .. . ... ... : ... .. . ... ... : ... .. . ... ... : ... .. . ... ...
ROW A2 : ... .. . ... ... ... : ... .. . ... ... ... : ... .. . ... : ... .. . ... : ... .. . ... ... : ... .. . ... ... : ... .. . ... ... : ... .. . ... ...
ROW A3 : ... .. . ... ... ... : ... .. . ... ... ... : ... .. . ... : ... .. . ... : ... .. . ... ... : ... .. . ... ... : ... .. . ... ... : ... .. . ... ...
ROW A4 : ... .. . ... ... ... : ... .. . ... ... ... : ... .. . ... : ... .. . ... : ... .. . ... ... : ... .. . ... ... : ... .. . ... ... : ... .. . ... ...
ROW A5 : ... .. . ... ... ... : ... .. . ... ... ... : ... .. . ... : ... .. . ... : ... .. . ... ... : ... .. . ... ... : ... .. . ... ... : ... .. . ... ...
ROW A6 : ... .. . ... ... ... : ... .. . ... ... ... : ... .. . ... : ... .. . ... : ... .. . ... ... : ... .. . ... ... : ... .. . ... ... : ... .. . ... ...
ROW A7 : ... .. . ... ... ... : ... .. . ... ... ... : ... .. . ... : ... .. . ... : ... .. . ... ... : ... .. . ... ... : ... .. . ... ... : ... .. . ... ...
ROW A8 : ... .. . ... ... ... : ... .. . ... ... ... : ... .. . ... : ... .. . ... : ... .. . ... ... : ... .. . ... ... : ... .. . ... ... : ... .. . ... ...
ROW A9 : ... .. . ... ... ... : ... .. . ... ... ... : ... .. . ... : ... .. . ... : ... .. . ... ... : ... .. . ... ... : ... .. . ... ... : ... .. . ... ...
ROW AA : ... .. . ... ... ... : ... .. . ... ... ... : ... .. . ... : ... .. . ... : ... .. . ... ... : ... .. . ... ... : ... .. . ... ... : ... .. . ... ...
ROW AB : ... .. . ... ... ... : ... .. . ... ... ... : ... .. . ... : ... .. . ... : ... .. . ... ... : ... .. . ... ... : ... .. . ... ... : ... .. . ... ...
ROW AC : ... .. . ... ... ... : ... .. . ... ... ... : ... .. . ... : ... .. . ... : ... .. . ... ... : ... .. . ... ... : ... .. . ... ... : ... .. . ... ...
ROW AD : ... .. . ... ... ... : ... .. . ... ... ... : ... .. . ... : ... .. . ... : ... .. . ... ... : ... .. . ... ... : ... .. . ... ... : ... .. . ... ...
ROW AE : ... .. . ... ... ... : ... .. . ... ... ... : ... .. . ... : ... .. . ... : ... .. . ... ... : ... .. . ... ... : ... .. . ... ... : ... .. . ... ...
ROW AF : ... .. . ... ... ... : ... .. . ... ... ... : ... .. . ... : ... .. . ... : ... .. . ... ... : ... .. . ... ... : ... .. . ... ... : ... .. . ... ...
ROW B0 : ... .. . ... ... ... : ... .. . ... ... ... : ... .. . ... : ... .. . ... : ... .. . ... ... : ... .. . ... ... : ... .. . ... ... : ... .. . ... ...
ROW B1 : ... .. . ... ... ... : ... .. . ... ... ... : ... .. . ... : ... .. . ... : ... .. . ... ... : ... .. . ... ... : ... .. . ... ... : ... .. . ... ...
ROW B2 : ... .. . ... ... ... : ... .. . ... ... ... : ... .. . ... : ... .. . ... : ... .. . ... ... : ... .. . ... ... : ... .. . ... ... : ... .. . ... ...
ROW B3 : ... .. . ... ... ... : ... .. . ... ... ... : ... .. . ... : ... .. . ... : ... .. . ... ... : ... .. . ... ... : ... .. . ... ... : ... .. . ... ...
ROW B4 : ... .. . ... ... ... : ... .. . ... ... ... : ... .. . ... : ... .. . ... : ... .. . ... ... : ... .. . ... ... : ... .. . ... ... : ... .. . ... ...
ROW B5 : ... .. . ... ... ... : ... .. . ... ... ... : ... .. . ... : ... .. . ... : ... .. . ... ... : ... .. . ... ... : ... .. . ... ... : ... .. . ... ...
ROW B6 : ... .. . ... ... ... : ... .. . ... ... ... : ... .. . ... : ... .. . ... : ... .. . ... ... : ... .. . ... ... : ... .. . ... ... : ... .. . ... ...
ROW B7 : ... .. . ... ... ... : ... .. . ... ... ... : ... .. . ... : ... .. . ... : ... .. . ... ... : ... .. . ... ... : ... .. . ... ... : ... .. . ... ...
ROW B8 : ... .. . ... ... ... : ... .. . ... ... ... : ... .. . ... : ... .. . ... : ... .. . ... ... : ... .. . ... ... : ... .. . ... ... : ... .. . ... ...
ROW B9 : ... .. . ... ... ... : ... .. . ... ... ... : ... .. . ... : ... .. . ... : ... .. . ... ... : ... .. . ... ... : ... .. . ... ... : ... .. . ... ...
ROW BA : ... .. . ... ... ... : ... .. . ... ... ... : ... .. . ... : ... .. . ... : ... .. . ... ... : ... .. . ... ... : ... .. . ... ... : ... .. . ... ...
ROW BB : ... .. . ... ... ... : ... .. . ... ... ... : ... .. . ... : ... .. . ... : ... .. . ... ... : ... .. . ... ... : ... .. . ... ... : ... .. . ... ...
ROW BC : ... .. . ... ... ... : ... .. . ... ... ... : ... .. . ... : ... .. . ... : ... .. . ... ... : ... .. . ... ... : ... .. . ... ... : ... .. . ... ...
ROW BD : ... .. . ... ... ... : ... .. . ... ... ... : ... .. . ... : ... .. . ... : ... .. . ... ... : ... .. . ... ... : ... .. . ... ... : ... .. . ... ...
ROW BE : ... .. . ... ... ... : ... .. . ... ... ... : ... .. . ... : ... .. . ... : ... .. . ... ... : ... .. . ... ... : ... .. . ... ... : ... .. . ... ...
ROW BF : ... .. . ... ... ... : ... .. . ... ... ... : ... .. . ... : ... .. . ... : ... .. . ... ... : ... .. . ... ... : ... .. . ... ... : ... .. . ... ...
ROW C0 : ... .. . ... ... ... : ... .. . ... ... ... : ... .. . ... : ... .. . ... : ... .. . ... ... : ... .. . ... ... : ... .. . ... ... : ... .. . ... ...
ROW C1 : ... .. . ... ... ... : ... .. . ... ... ... : ... .. . ... : ... .. . ... : ... .. . ... ... : ... .. . ... ... : ... .. . ... ... : ... .. . ... ...
ROW C2 : ... .. . ... ... ... : ... .. . ... ... ... : ... .. . ... : ... .. . ... : ... .. . ... ... : ... .. . ... ... : ... .. . ... ... : ... .. . ... ...
ROW C3 : ... .. . ... ... ... : ... .. . ... ... ... : ... .. . ... : ... .. . ... : ... .. . ... ... : ... .. . ... ... : ... .. . ... ... : ... .. . ... ...
ROW C4 : ... .. . ... ... ... : ... .. . ... ... ... : ... .. . ... : ... .. . ... : ... .. . ... ... : ... .. . ... ... : ... .. . ... ... : ... .. . ... ...
ROW C5 : ... .. . ... ... ... : ... .. . ... ... ... : ... .. . ... : ... .. . ... : ... .. . ... ... : ... .. . ... ... : ... .. . ... ... : ... .. . ... ...
ROW C6 : ... .. . ... ... ... : ... .. . ... ... ... : ... .. . ... : ... .. . ... : ... .. . ... ... : ... .. . ... ... : ... .. . ... ... : ... .. . ... ...
ROW C7 : ... .. . ... ... ... : ... .. . ... ... ... : ... .. . ... : ... .. . ... : ... .. . ... ... : ... .. . ... ... : ... .. . ... ... : ... .. . ... ...
ROW C8 : ... .. . ... ... ... : ... .. . ... ... ... : ... .. . ... : ... .. . ... : ... .. . ... ... : ... .. . ... ... : ... .. . ... ... : ... .. . ... ...
ROW C9 : ... .. . ... ... ... : ... .. . ... ... ... : ... .. . ... : ... .. . ... : ... .. . ... ... : ... .. . ... ... : ... .. . ... ... : ... .. . ... ...
ROW CA : ... .. . ... ... ... : ... .. . ... ... ... : ... .. . ... : ... .. . ... : ... .. . ... ... : ... .. . ... ... : ... .. . ... ... : ... .. . ... ...
ROW CB : ... .. . ... ... ... : ... .. . ... ... ... : ... .. . ... : ... .. . ... : ... .. . ... ... : ... .. . ... ... : ... .. . ... ... : ... .. . ... ...
ROW CC : ... .. . ... ... ... : ... .. . ... ... ... : ... .. . ... : ... .. . ... : ... .. . ... ... : ... .. . ... ... : ... .. . ... ... : ... .. . ... ...
ROW CD : ... .. . ... ... ... : ... .. . ... ... ... : ... .. . ... : ... .. . ... : ... .. . ... ... : ... .. . ... ... : ... .. . ... ... : ... .. . ... ...
ROW CE : ... .. . ... ... ... : ... .. . ... ... ... : ... .. . ... : ... .. . ... : ... .. . ... ... : ... .. . ... ... : ... .. . ... ... : ... .. . ... ...
ROW CF : ... .. . ... ... ... : ... .. . ... ... ... : ... .. . ... : ... .. . ... : ... .. . ... ... : ... .. . ... ... : ... .. . ... ... : ... .. . ... ...
ROW D0 : ... .. . ... ... ... : ... .. . ... ... ... : ... .. . ... : ... .. . ... : ... .. . ... ... : ... .. . ... ... : ... .. . ... ... : ... .. . ... ...
ROW D1 : ... .. . ... ... ... : ... .. . ... ... ... : ... .. . ... : ... .. . ... : ... .. . ... ... : ... .. . ... ... : ... .. . ... ... : ... .. . ... ...
ROW D2 : ... .. . ... ... ... : ... .. . ... ... ... : ... .. . ... : ... .. . ... : ... .. . ... ... : ... .. . ... ... : ... .. . ... ... : ... .. . ... ...
ROW D3 : ... .. . ... ... ... : ... .. . ... ... ... : ... .. . ... : ... .. . ... : ... .. . ... ... : ... .. . ... ... : ... .. . ... ... : ... .. . ... ...
ROW D4 : ... .. . ... ... ... : ... .. . ... ... ... : ... .. . ... : ... .. . ... : ... .. . ... ... : ... .. . ... ... : ... .. . ... ... : ... .. . ... ...
ROW D5 : ... .. . ... ... ... : ... .. . ... ... ... : ... .. . ... : ... .. . ... : ... .. . ... ... : ... .. . ... ... : ... .. . ... ... : ... .. . ... ...
ROW D6 : ... .. . ... ... ... : ... .. . ... ... ... : ... .. . ... : ... .. . ... : ... .. . ... ... : ... .. . ... ... : ... .. . ... ... : ... .. . ... ...
ROW D7 : ... .. . ... ... ... : ... .. . ... ... ... : ... .. . ... : ... .. . ... : ... .. . ... ... : ... .. . ... ... : ... .. . ... ... : ... .. . ... ...
ROW D8 : ... .. . ... ... ... : ... .. . ... ... ... : ... .. . ... : ... .. . ... : ... .. . ... ... : ... .. . ... ... : ... .. . ... ... : ... .. . ... ...
ROW D9 : ... .. . ... ... ... : ... .. . ... ... ... : ... .. . ... : ... .. . ... : ... .. . ... ... : ... .. . ... ... : ... .. . ... ... : ... .. . ... ...
ROW DA : ... .. . ... ... ... : ... .. . ... ... ... : ... .. . ... : ... .. . ... : ... .. . ... ... : ... .. . ... ... : ... .. . ... ... : ... .. . ... ...
ROW DB : ... .. . ... ... ... : ... .. . ... ... ... : ... .. . ... : ... .. . ... : ... .. . ... ... : ... .. . ... ... : ... .. . ... ... : ... .. . ... ...
ROW DC : ... .. . ... ... ... : ... .. . ... ... ... : ... .. . ... : ... .. . ... : ... .. . ... ... : ... .. . ... ... : ... .. . ... ... : ... .. . ... ...
ROW DD : ... .. . ... ... ... : ... .. . ... ... ... : ... .. . ... : ... .. . ... : ... .. . ... ... : ... .. . ... ... : ... .. . ... ... : ... .. . ... ...
ROW DE : ... .. . ... ... ... : ... .. . ... ... ... : ... .. . ... : ... .. . ... : ... .. . ... ... : ... .. . ... ... : ... .. . ... ... : ... .. . ... ...
ROW DF : ... .. . ... ... ... : ... .. . ... ... ... : ... .. . ... : ... .. . ... : ... .. . ... ... : ... .. . ... ... : ... .. . ... ... : ... .. . ... ...
ROW E0 : ... .. . ... ... ... : ... .. . ... ... ... : ... .. . ... : ... .. . ... : ... .. . ... ... : ... .. . ... ... : ... .. . ... ... : ... .. . ... ...
ROW E1 : ... .. . ... ... ... : ... .. . ... ... ... : ... .. . ... : ... .. . ... : ... .. . ... ... : ... .. . ... ... : ... .. . ... ... : ... .. . ... ...
ROW E2 : ... .. . ... ... ... : ... .. . ... ... ... : ... .. . ... : ... .. . ... : ... .. . ... ... : ... .. . ... ... : ... .. . ... ... : ... .. . ... ...
ROW E3 : ... .. . ... ... ... : ... .. . ... ... ... : ... .. . ... : ... .. . ... : ... .. . ... ... : ... .. . ... ... : ... .. . ... ... : ... .. . ... ...
ROW E4 : ... .. . ... ... ... : ... .. . ... ... ... : ... .. . ... : ... .. . ... : ... .. . ... ... : ... .. . ... ... : ... .. . ... ... : ... .. . ... ...
ROW E5 : ... .. . ... ... ... : ... .. . ... ... ... : ... .. . ... : ... .. . ... : ... .. . ... ... : ... .. . ... ... : ... .. . ... ... : ... .. . ... ...
ROW E6 : ... .. . ... ... ... : ... .. . ... ... ... : ... .. . ... : ... .. . ... : ... .. . ... ... : ... .. . ... ... : ... .. . ... ... : ... .. . ... ...
ROW E7 : ... .. . ... ... ... : ... .. . ... ... ... : ... .. . ... : ... .. . ... : ... .. . ... ... : ... .. . ... ... : ... .. . ... ... : ... .. . ... ...
ROW E8 : ... .. . ... ... ... : ... .. . ... ... ... : ... .. . ... : ... .. . ... : ... .. . ... ... : ... .. . ... ... : ... .. . ... ... : ... .. . ... ...
ROW E9 : ... .. . ... ... ... : ... .. . ... ... ... : ... .. . ... : ... .. . ... : ... .. . ... ... : ... .. . ... ... : ... .. . ... ... : ... .. . ... ...
ROW EA : ... .. . ... ... ... : ... .. . ... ... ... : ... .. . ... : ... .. . ... : ... .. . ... ... : ... .. . ... ... : ... .. . ... ... : ... .. . ... ...
ROW EB : ... .. . ... ... ... : ... .. . ... ... ... : ... .. . ... : ... .. . ... : ... .. . ... ... : ... .. . ... ... : ... .. . ... ... : ... .. . ... ...
ROW EC : ... .. . ... ... ... : ... .. . ... ... ... : ... .. . ... : ... .. . ... : ... .. . ... ... : ... .. . ... ... : ... .. . ... ... : ... .. . ... ...
ROW ED : ... .. . ... ... ... : ... .. . ... ... ... : ... .. . ... : ... .. . ... : ... .. . ... ... : ... .. . ... ... : ... .. . ... ... : ... .. . ... ...
ROW EE : ... .. . ... ... ... : ... .. . ... ... ... : ... .. . ... : ... .. . ... : ... .. . ... ... : ... .. . ... ... : ... .. . ... ... : ... .. . ... ...
ROW EF : ... .. . ... ... ... : ... .. . ... ... ... : ... .. . ... : ... .. . ... : ... .. . ... ... : ... .. . ... ... : ... .. . ... ... : ... .. . ... ...
ROW F0 : ... .. . ... ... ... : ... .. . ... ... ... : ... .. . ... : ... .. . ... : ... .. . ... ... : ... .. . ... ... : ... .. . ... ... : ... .. . ... ...
ROW F1 : ... .. . ... ... ... : ... .. . ... ... ... : ... .. . ... : ... .. . ... : ... .. . ... ... : ... .. . ... ... : ... .. . ... ... : ... .. . ... ...
ROW F2 : ... .. . ... ... ... : ... .. . ... ... ... : ... .. . ... : ... .. . ... : ... .. . ... ... : ... .. . ... ... : ... .. . ... ... : ... .. . ... ...
ROW F3 : ... .. . ... ... ... : ... .. . ... ... ... : ... .. . ... : ... .. . ... : ... .. . ... ... : ... .. . ... ... : ... .. . ... ... : ... .. . ... ...
ROW F4 : ... .. . ... ... ... : ... .. . ... ... ... : ... .. . ... : ... .. . ... : ... .. . ... ... : ... .. . ... ... : ... .. . ... ... : ... .. . ... ...
ROW F5 : ... .. . ... ... ... : ... .. . ... ... ... : ... .. . ... : ... .. . ... : ... .. . ... ... : ... .. . ... ... : ... .. . ... ... : ... .. . ... ...
ROW F6 : ... .. . ... ... ... : ... .. . ... ... ... : ... .. . ... : ... .. . ... : ... .. . ... ... : ... .. . ... ... : ... .. . ... ... : ... .. . ... ...
ROW F7 : ... .. . ... ... ... : ... .. . ... ... ... : ... .. . ... : ... .. . ... : ... .. . ... ... : ... .. . ... ... : ... .. . ... ... : ... .. . ... ...
ROW F8 : ... .. . ... ... ... : ... .. . ... ... ... : ... .. . ... : ... .. . ... : ... .. . ... ... : ... .. . ... ... : ... .. . ... ... : ... .. . ... ...
ROW F9 : ... .. . ... ... ... : ... .. . ... ... ... : ... .. . ... : ... .. . ... : ... .. . ... ... : ... .. . ... ... : ... .. . ... ... : ... .. . ... ...
ROW FA : ... .. . ... ... ... : ... .. . ... ... ... : ... .. . ... : ... .. . ... : ... .. . ... ... : ... .. . ... ... : ... .. . ... ... : ... .. . ... ...
ROW FB : ... .. . ... ... ... : ... .. . ... ... ... : ... .. . ... : ... .. . ... : ... .. . ... ... : ... .. . ... ... : ... .. . ... ... : ... .. . ... ...
ROW FC : ... .. . ... ... ... : ... .. . ... ... ... : ... .. . ... : ... .. . ... : ... .. . ... ... : ... .. . ... ... : ... .. . ... ... : ... .. . ... ...
ROW FD : ... .. . ... ... ... : ... .. . ... ... ... : ... .. . ... : ... .. . ... : ... .. . ... ... : ... .. . ... ... : ... .. . ... ... : ... .. . ... ...
ROW FE : ... .. . ... ... ... : ... .. . ... ... ... : ... .. . ... : ... .. . ... : ... .. . ... ... : ... .. . ... ... : ... .. . ... ... : ... .. . ... ...
ROW FF : ... .. . ... ... ... : ... .. . ... ... ... : ... .. . ... : ... .. . ... : ... .. . ... ... : ... .. . ... ... : ... .. . ... ... : ... .. . ... ...

# End of export
