# FamiTracker text export 0.4.2

# Song information
TITLE           "Shovel Knight OST"
AUTHOR          "Jake Kaufman"
COPYRIGHT       ""

# Song comment
COMMENT ""

# Global settings
MACHINE         0
FRAMERATE       0
EXPANSION       1
VIBRATO         1
SPLIT           21

# Macros

# DPCM samples

# Instruments
INST2A03   0    -1  -1  -1  -1  -1 "blank"
INSTVRC6   1    -1  -1  -1  -1  -1 "blank"

# Tracks

TRACK 256   1 150 "New song"
COLUMNS : 3 3 1 1 2 2 2 2

ORDER 00 : 00 00 00 00 00 00 00 00
ORDER 01 : 01 01 01 01 01 01 01 01
ORDER 02 : 02 02 02 02 02 02 02 02
ORDER 03 : 03 03 03 03 03 03 03 03
ORDER 04 : 04 04 04 04 04 04 04 04
ORDER 05 : 05 05 05 05 05 05 05 05
ORDER 06 : 06 06 06 06 06 06 06 06
ORDER 07 : 07 07 07 07 07 07 07 07
ORDER 08 : 08 08 08 08 08 08 08 08
ORDER 09 : 09 09 09 09 09 09 09 09
ORDER 0A : 0A 0A 0A 0A 0A 0A 0A 0A
ORDER 0B : 0B 0B 0B 0B 0B 0B 0B 0B
ORDER 0C : 0C 0C 0C 0C 0C 0C 0C 0C
ORDER 0D : 0D 0D 0D 0D 0D 0D 0D 0D
ORDER 0E : 0E 0E 0E 0E 0E 0E 0E 0E
ORDER 0F : 0F 0F 0F 0F 0F 0F 0F 0F
ORDER 10 : 10 10 10 10 10 10 10 10
ORDER 11 : 11 11 11 11 11 11 11 11
ORDER 12 : 12 12 12 12 12 12 12 12
ORDER 13 : 13 13 13 13 13 13 13 13
ORDER 14 : 14 14 14 14 14 14 14 14
ORDER 15 : 15 15 15 15 15 15 15 15
ORDER 16 : 16 16 16 16 16 16 16 16
ORDER 17 : 17 17 17 17 17 17 17 17
ORDER 18 : 18 18 18 18 18 18 18 18
ORDER 19 : 19 19 19 19 19 19 19 19
ORDER 1A : 1A 1A 1A 1A 1A 1A 1A 1A
ORDER 1B : 1B 1B 1B 1B 1B 1B 1B 1B
ORDER 1C : 1C 1C 1C 1C 1C 1C 1C 1C

PATTERN 00
ROW 00 : F#2 00 F P80 V00 ... : C#2 00 F P80 V00 ... : A#2 00 . P82 : 1-# 00 F V00 : === 00 . Z00 ... : --- .. 0 P80 V00 : --- .. 0 P80 V00 : --- .. 0 P80 V00
ROW 01 : ... .. E ... ... ... : ... .. E ... ... ... : G#2 00 . P8B : ... .. C ... : ... .. . ... ... : ... .. . ... ... : ... .. . ... ... : ... .. . ... ...
ROW 02 : ... .. D ... ... ... : ... .. D ... ... ... : G-2 00 . P79 : ... .. 6 ... : ... .. . ... ... : ... .. . ... ... : ... .. . ... ... : ... .. . ... ...
ROW 03 : ... .. A ... ... ... : ... .. A ... ... ... : F-2 00 . P8D : ... .. 3 ... : ... .. . ... ... : ... .. . ... ... : ... .. . ... ... : ... .. . ... ...
ROW 04 : ... .. 2 ... ... ... : ... .. 2 ... ... ... : E-2 00 . P81 : ... .. 2 ... : ... .. . ... ... : ... .. . ... ... : ... .. . ... ... : ... .. . ... ...
ROW 05 : ... .. . ... ... ... : ... .. . ... ... ... : D#2 00 . P77 : ... .. 0 ... : ... .. . ... ... : ... .. . ... ... : ... .. . ... ... : ... .. . ... ...
ROW 06 : ... .. F ... ... ... : ... .. F ... ... ... : D-2 00 . P70 : D-# 00 F ... : ... .. . ... ... : ... .. . ... ... : ... .. . ... ... : ... .. . ... ...
ROW 07 : ... .. E ... ... ... : ... .. E ... ... ... : C#2 00 . P6B : ... .. C ... : ... .. . ... ... : ... .. . ... ... : ... .. . ... ... : ... .. . ... ...
ROW 08 : ... .. D ... ... ... : ... .. D ... ... ... : C-2 00 . P69 : ... .. 6 ... : ... .. . ... ... : ... .. . ... ... : ... .. . ... ... : ... .. . ... ...
ROW 09 : ... .. A ... ... ... : ... .. A ... ... ... : B-1 00 . P6A : ... .. 3 ... : ... .. . ... ... : ... .. . ... ... : ... .. . ... ... : ... .. . ... ...
ROW 0A : ... .. 2 ... ... ... : ... .. 2 ... ... ... : A#1 00 . P6E : ... .. 2 ... : ... .. . ... ... : ... .. . ... ... : ... .. . ... ... : ... .. . ... ...
ROW 0B : ... .. . ... ... ... : ... .. . ... ... ... : A-1 00 . P75 : ... .. 0 ... : ... .. . ... ... : ... .. . ... ... : ... .. . ... ... : ... .. . ... ...
ROW 0C : ... .. F ... ... ... : ... .. F ... ... ... : G#1 00 . P7F : 6-# 00 F ... : ... .. . ... ... : ... .. . ... ... : ... .. . ... ... : ... .. . ... ...
ROW 0D : ... .. E ... ... ... : ... .. E ... ... ... : G-1 00 . P8D : ... .. C ... : ... .. . ... ... : ... .. . ... ... : ... .. . ... ... : ... .. . ... ...
ROW 0E : ... .. D ... ... ... : ... .. D ... ... ... : F#1 00 . P9F : ... .. 6 ... : ... .. . ... ... : ... .. . ... ... : ... .. . ... ... : ... .. . ... ...
ROW 0F : ... .. A ... ... ... : ... .. A ... ... ... : ... .. . P6D : ... .. 3 ... : ... .. . ... ... : ... .. . ... ... : ... .. . ... ... : ... .. . ... ...
ROW 10 : ... .. 2 ... ... ... : ... .. 2 ... ... ... : F-1 00 . P83 : ... .. 2 ... : ... .. . ... ... : ... .. . ... ... : ... .. . ... ... : ... .. . ... ...
ROW 11 : ... .. . ... ... ... : ... .. . ... ... ... : E-1 00 . P9D : ... .. 0 ... : ... .. . ... ... : ... .. . ... ... : ... .. . ... ... : ... .. . ... ...
ROW 12 : B-2 00 F ... ... ... : F#2 00 F ... ... ... : E-3 00 . P84 : D-# 00 F ... : ... .. . ... ... : G#3 01 9 ... V05 : ... .. . ... ... : ... .. . ... ...
ROW 13 : ... .. E ... ... ... : ... .. E ... ... ... : D-3 00 . P7C : ... .. C ... : ... .. . ... ... : ... .. 8 ... ... : ... .. . ... ... : ... .. . ... ...
ROW 14 : ... .. D ... ... ... : ... .. D ... ... ... : C-3 00 . P79 : ... .. 6 ... : ... .. . ... ... : ... .. . ... ... : ... .. . ... ... : ... .. . ... ...
ROW 15 : ... .. A ... ... ... : ... .. A ... ... ... : A#2 00 . P7B : ... .. 3 ... : ... .. . ... ... : --- .. . P82 ... : ... .. . ... ... : ... .. . ... ...
ROW 16 : ... .. . ... ... ... : ... .. . ... ... ... : G#2 00 . P84 : ... .. 2 ... : ... .. . ... ... : ... .. . ... ... : ... .. . ... ... : ... .. . ... ...
ROW 17 : ... .. . ... ... ... : ... .. . ... ... ... : G-2 00 . P72 : ... .. 0 ... : ... .. . ... ... : ... .. . ... ... : ... .. . ... ... : ... .. . ... ...
ROW 18 : ... .. . ... ... ... : ... .. . ... ... ... : F-2 00 . P86 : 1-# 00 F ... : ... .. . ... ... : G#3 01 9 P80 ... : ... .. . ... ... : ... .. . ... ...
ROW 19 : ... .. . ... ... ... : ... .. . ... ... ... : E-2 00 . P7A : ... .. C ... : ... .. . ... ... : ... .. 8 ... ... : ... .. . ... ... : ... .. . ... ...
ROW 1A : ... .. . ... ... ... : ... .. . ... ... ... : D#2 00 . P70 : ... .. 6 ... : ... .. . ... ... : ... .. . ... ... : ... .. . ... ... : ... .. . ... ...
ROW 1B : ... .. . ... ... ... : ... .. . ... ... ... : C#2 00 . P96 : ... .. 3 ... : ... .. . ... ... : --- .. . P82 ... : ... .. . ... ... : ... .. . ... ...
ROW 1C : ... .. 2 ... ... ... : ... .. 2 ... ... ... : C-2 00 . P94 : ... .. 2 ... : ... .. . ... ... : ... .. . ... ... : ... .. . ... ... : ... .. . ... ...
ROW 1D : ... .. . ... ... ... : ... .. . ... ... ... : B-1 00 . P95 : ... .. 0 ... : ... .. . ... ... : ... .. . ... ... : ... .. . ... ... : ... .. . ... ...
ROW 1E : ... .. F ... ... ... : ... .. F ... ... ... : A#1 00 . P99 : ... .. F ... : ... .. . ... ... : G#3 01 9 P80 ... : ... .. . ... ... : ... .. . ... ...
ROW 1F : ... .. E ... ... ... : ... .. E ... ... ... : ... .. . P67 : ... .. C ... : ... .. . ... ... : ... .. 8 ... ... : ... .. . ... ... : ... .. . ... ...
ROW 20 : ... .. D ... ... ... : ... .. D ... ... ... : A-1 00 . P6E : ... .. 6 ... : ... .. . ... ... : ... .. . ... ... : ... .. . ... ... : ... .. . ... ...
ROW 21 : ... .. A ... ... ... : ... .. A ... ... ... : G#1 00 . P78 : ... .. 3 ... : ... .. . ... ... : --- .. . P82 ... : ... .. . ... ... : ... .. . ... ...
ROW 22 : ... .. 2 ... ... ... : ... .. 2 ... ... ... : G-1 00 . P86 : ... .. 2 ... : ... .. . ... ... : ... .. . ... ... : ... .. . ... ... : ... .. . ... ...
ROW 23 : ... .. . ... ... ... : ... .. . ... ... ... : F#1 00 . P98 : ... .. 0 ... : ... .. . ... ... : ... .. . ... ... : ... .. . ... ... : ... .. . ... ...
ROW 24 : A-2 00 F ... ... ... : E-2 00 F ... ... ... : C#4 00 . P81 : 6-# 00 F ... : ... .. . ... ... : C#4 01 9 P80 ... : ... .. . ... ... : ... .. . ... ...
ROW 25 : ... .. E ... ... ... : ... .. E ... ... ... : A-3 00 . P83 : ... .. C ... : ... .. . ... ... : ... .. 8 ... ... : ... .. . ... ... : ... .. . ... ...
ROW 26 : ... .. D ... ... ... : ... .. D ... ... ... : F#3 00 . P81 : ... .. 6 ... : ... .. . ... ... : ... .. . ... ... : ... .. . ... ... : ... .. . ... ...
ROW 27 : ... .. A ... ... ... : ... .. A ... ... ... : D#3 00 . P89 : ... .. 3 ... : ... .. . ... ... : ... .. . ... ... : ... .. . ... ... : ... .. . ... ...
ROW 28 : ... .. 2 ... ... ... : ... .. 2 ... ... ... : C#3 00 . P83 : ... .. 2 ... : ... .. . ... ... : ... .. 7 ... ... : ... .. . ... ... : ... .. . ... ...
ROW 29 : ... .. . ... ... ... : ... .. . ... ... ... : B-2 00 . P82 : ... .. 0 ... : ... .. . ... ... : ... .. . ... ... : ... .. . ... ... : ... .. . ... ...
ROW 2A : ... .. F ... ... ... : ... .. F ... ... ... : C#4 00 . P81 : D-# 00 F ... : ... .. . ... ... : ... .. . ... ... : ... .. . ... ... : ... .. . ... ...
ROW 2B : ... .. E ... ... ... : ... .. E ... ... ... : A-3 00 . P83 : ... .. C ... : ... .. . ... ... : ... .. 6 ... ... : ... .. . ... ... : ... .. . ... ...
ROW 2C : ... .. D ... ... ... : ... .. D ... ... ... : F#3 00 . P81 : ... .. 6 ... : ... .. . ... ... : ... .. . ... ... : ... .. . ... ... : ... .. . ... ...
ROW 2D : ... .. A ... ... ... : ... .. A ... ... ... : D#3 00 . P89 : ... .. 3 ... : ... .. . ... ... : ... .. . ... ... : ... .. . ... ... : ... .. . ... ...
ROW 2E : ... .. 2 ... ... ... : ... .. 2 ... ... ... : C#3 00 . P83 : ... .. 2 ... : ... .. . ... ... : ... .. . ... ... : ... .. . ... ... : ... .. . ... ...
ROW 2F : ... .. . ... ... ... : ... .. . ... ... ... : B-2 00 . P82 : ... .. 0 ... : ... .. . ... ... : ... .. . ... ... : ... .. . ... ... : ... .. . ... ...
ROW 30 : ... .. F ... ... ... : ... .. F ... ... ... : C#4 00 . P81 : 1-# 00 F ... : ... .. . ... ... : ... .. . ... ... : ... .. . ... ... : ... .. . ... ...
ROW 31 : ... .. E ... ... ... : ... .. E ... ... ... : A-3 00 . P83 : ... .. C ... : ... .. . ... ... : ... .. . ... ... : ... .. . ... ... : ... .. . ... ...
ROW 32 : ... .. D ... ... ... : ... .. D ... ... ... : F#3 00 . P81 : ... .. 6 ... : ... .. . ... ... : ... .. . ... ... : ... .. . ... ... : ... .. . ... ...
ROW 33 : ... .. A ... ... ... : ... .. A ... ... ... : D#3 00 . P89 : ... .. 3 ... : ... .. . ... ... : ... .. . ... ... : ... .. . ... ... : ... .. . ... ...
ROW 34 : ... .. 2 ... ... ... : ... .. 2 ... ... ... : C#3 00 . P83 : ... .. 2 ... : ... .. . ... ... : ... .. . ... ... : ... .. . ... ... : ... .. . ... ...
ROW 35 : ... .. . ... ... ... : ... .. . ... ... ... : B-2 00 . P82 : ... .. 0 ... : ... .. . ... ... : ... .. . ... ... : ... .. . ... ... : ... .. . ... ...
ROW 36 : E-2 00 F ... ... ... : B-1 00 F ... ... ... : A-4 00 . P81 : D-# 00 F ... : ... .. . ... ... : ... .. . ... ... : B-3 01 9 ... V05 : ... .. . ... ...
ROW 37 : ... .. E ... ... ... : ... .. E ... ... ... : D#4 00 . P84 : ... .. C ... : ... .. . ... ... : ... .. . ... ... : ... .. 8 ... ... : ... .. . ... ...
ROW 38 : ... .. D ... ... ... : ... .. D ... ... ... : B-3 00 . P80 : ... .. 6 ... : ... .. . ... ... : ... .. . ... ... : ... .. . ... ... : ... .. . ... ...
ROW 39 : ... .. A ... ... ... : ... .. A ... ... ... : G#3 00 . P79 : ... .. 3 ... : ... .. . ... ... : ... .. 3 ... ... : --- .. . ... ... : ... .. . ... ...
ROW 3A : ... .. . ... ... ... : ... .. . ... ... ... : F-3 00 . P7A : ... .. 2 ... : ... .. . ... ... : ... .. . ... ... : ... .. . ... ... : ... .. . ... ...
ROW 3B : ... .. . ... ... ... : ... .. . ... ... ... : D-3 00 . P85 : ... .. 0 ... : ... .. . ... ... : ... .. . ... ... : ... .. . ... ... : ... .. . ... ...
ROW 3C : ... .. . ... ... ... : ... .. . ... ... ... : E-4 00 . P80 : 6-# 00 F ... : ... .. . ... ... : ... .. 6 ... ... : B-3 01 9 ... ... : ... .. . ... ...
ROW 3D : ... .. . ... ... ... : ... .. . ... ... ... : B-3 00 . P86 : ... .. C ... : ... .. . ... ... : ... .. . ... ... : ... .. 8 ... ... : ... .. . ... ...
ROW 3E : ... .. . ... ... ... : ... .. . ... ... ... : G#3 00 . P7F : ... .. 6 ... : ... .. . ... ... : ... .. . ... ... : ... .. . ... ... : ... .. . ... ...
ROW 3F : ... .. . ... ... ... : ... .. . ... ... ... : F-3 00 . P80 : ... .. 3 ... : ... .. . ... ... : ... .. 3 P84 ... : --- .. . ... ... : ... .. . ... ...
ROW 40 : ... .. 2 ... ... ... : ... .. 2 ... ... ... : D#3 00 . P76 : ... .. 2 ... : ... .. . ... ... : ... .. . P86 ... : ... .. . ... ... : ... .. . ... ...
ROW 41 : ... .. . ... ... ... : ... .. . ... ... ... : C-3 00 . P88 : ... .. 0 ... : ... .. . ... ... : ... .. . P85 ... : ... .. . ... ... : ... .. . ... ...
ROW 42 : ... .. F ... ... ... : ... .. F ... ... ... : F#3 00 . P7E : D-# 00 F ... : ... .. . ... ... : ... .. 6 P82 ... : B-3 01 9 ... ... : ... .. . ... ...
ROW 43 : ... .. E ... ... ... : ... .. E ... ... ... : D#3 00 . P86 : ... .. C ... : ... .. . ... ... : ... .. . P7E ... : ... .. 8 ... ... : ... .. . ... ...
ROW 44 : ... .. D ... ... ... : ... .. D ... ... ... : C#3 00 . P80 : ... .. 6 ... : ... .. . ... ... : ... .. . P7B ... : ... .. . ... ... : ... .. . ... ...
ROW 45 : ... .. A ... ... ... : ... .. A ... ... ... : B-2 00 . P7F : ... .. 3 ... : ... .. . ... ... : C-4 01 3 P86 ... : --- .. . ... ... : ... .. . ... ...
ROW 46 : ... .. 2 ... ... ... : ... .. 2 ... ... ... : A-2 00 . P84 : ... .. 2 ... : ... .. . ... ... : C#4 01 3 P7C ... : ... .. . ... ... : ... .. . ... ...
ROW 47 : ... .. . ... ... ... : ... .. . ... ... ... : G#2 00 . P71 : ... .. 0 ... : ... .. . ... ... : ... .. . P80 ... : ... .. . ... ... : ... .. . ... ...
ROW 48 : F#2 00 F ... ... ... : C#2 00 F ... ... ... : F#2 00 . P81 : 1-# 00 F ... : ... .. . ... ... : ... .. 6 P83 ... : E-4 01 9 ... ... : ... .. . ... ...
ROW 49 : ... .. E ... ... ... : ... .. E ... ... ... : F-2 00 . P73 : ... .. C ... : ... .. . ... ... : ... .. . P86 ... : ... .. 8 ... ... : ... .. . ... ...
ROW 4A : ... .. D ... ... ... : ... .. D ... ... ... : D#2 00 . P8F : ... .. 6 ... : ... .. . ... ... : ... .. . ... ... : ... .. . ... ... : ... .. . ... ...
ROW 4B : ... .. A ... ... ... : ... .. A ... ... ... : D-2 00 . P88 : ... .. 3 ... : ... .. . ... ... : ... .. . P82 ... : ... .. 7 ... ... : ... .. . ... ...
ROW 4C : ... .. 2 ... ... ... : ... .. 2 ... ... ... : C#2 00 . P83 : ... .. 2 ... : ... .. . ... ... : ... .. . P7F ... : ... .. 6 ... ... : ... .. . ... ...
ROW 4D : ... .. . ... ... ... : ... .. . ... ... ... : C-2 00 . P81 : ... .. 0 ... : ... .. . ... ... : ... .. . P7B ... : ... .. . ... ... : ... .. . ... ...
ROW 4E : ... .. F ... ... ... : ... .. F ... ... ... : D#5 00 . P82 : ... .. F ... : ... .. . ... ... : C-4 01 6 P86 ... : ... .. . ... ... : ... .. . ... ...
ROW 4F : ... .. E ... ... ... : ... .. E ... ... ... : G#4 00 . P7D : ... .. C ... : ... .. . ... ... : C#4 01 6 P7C ... : ... .. 5 ... ... : ... .. . ... ...
ROW 50 : ... .. D ... ... ... : ... .. D ... ... ... : D-4 00 . P82 : ... .. 6 ... : ... .. . ... ... : ... .. . P80 ... : ... .. . ... ... : ... .. . ... ...
ROW 51 : ... .. A ... ... ... : ... .. A ... ... ... : A#3 00 . ... : ... .. 3 ... : ... .. . ... ... : ... .. . P83 ... : ... .. . ... ... : ... .. . ... ...
ROW 52 : ... .. 2 ... ... ... : ... .. 2 ... ... ... : G-3 00 . P7D : ... .. 2 ... : ... .. . ... ... : ... .. . P86 ... : ... .. . ... ... : ... .. . ... ...
ROW 53 : ... .. . ... ... ... : ... .. . ... ... ... : E-3 00 . P81 : ... .. 0 ... : ... .. . ... ... : ... .. . ... ... : ... .. . ... ... : ... .. . ... ...
ROW 54 : ... .. F ... ... ... : ... .. F ... ... ... : D#5 00 . P82 : 6-# 00 F ... : ... .. . ... ... : ... .. . P83 ... : ... .. . ... ... : ... .. . ... ...
ROW 55 : ... .. E ... ... ... : ... .. E ... ... ... : G#4 00 . P7D : ... .. C ... : ... .. . ... ... : ... .. . P80 ... : ... .. . ... ... : ... .. . ... ...
ROW 56 : ... .. D ... ... ... : ... .. D ... ... ... : D-4 00 . P82 : ... .. 6 ... : ... .. . ... ... : ... .. . P7C ... : ... .. . ... ... : ... .. . ... ...
ROW 57 : ... .. A ... ... ... : ... .. A ... ... ... : A#3 00 . ... : ... .. 3 ... : ... .. . ... ... : C-4 01 6 P86 ... : ... .. . ... ... : ... .. . ... ...
ROW 58 : ... .. 2 ... ... ... : ... .. 2 ... ... ... : G-3 00 . P7D : ... .. 2 ... : ... .. . ... ... : C#4 01 6 P7B ... : ... .. . ... ... : ... .. . ... ...
ROW 59 : ... .. . ... ... ... : ... .. . ... ... ... : E-3 00 . P81 : ... .. 0 ... : ... .. . ... ... : ... .. . P7F ... : ... .. . ... ... : ... .. . ... ...
ROW 5A : B-2 00 F ... ... ... : F#2 00 F ... ... ... : A-4 00 . ... : D-# 00 F ... : ... .. . ... ... : ... .. . P82 ... : ... .. 6 ... ... : C#4 01 A ... ...
ROW 5B : ... .. E ... ... ... : ... .. E ... ... ... : D#4 00 . P84 : ... .. C ... : ... .. . ... ... : ... .. . P86 ... : ... .. . ... ... : ... .. 8 ... ...
ROW 5C : ... .. D ... ... ... : ... .. D ... ... ... : B-3 00 . P80 : ... .. 6 ... : ... .. . ... ... : ... .. . ... ... : ... .. . ... ... : ... .. 5 ... ...
ROW 5D : ... .. A ... ... ... : ... .. A ... ... ... : G#3 00 . P79 : ... .. 3 ... : ... .. . ... ... : ... .. 3 P83 ... : ... .. 3 ... ... : --- .. . ... ...
ROW 5E : ... .. . ... ... ... : ... .. . ... ... ... : F-3 00 . P7A : ... .. 2 ... : ... .. . ... ... : ... .. . P80 ... : ... .. . ... ... : ... .. . ... ...
ROW 5F : ... .. . ... ... ... : ... .. . ... ... ... : D-3 00 . P85 : ... .. 0 ... : ... .. . ... ... : ... .. . P7C ... : ... .. . ... ... : ... .. . ... ...
ROW 60 : ... .. . ... ... ... : ... .. . ... ... ... : D#5 00 . P7E : 1-# 00 F ... : ... .. . ... ... : C-4 01 6 P86 ... : ... .. 6 ... ... : C#4 01 A ... ...
ROW 61 : ... .. . ... ... ... : ... .. . ... ... ... : G-4 00 . P81 : ... .. C ... : ... .. . ... ... : C#4 01 6 P7B ... : ... .. . ... ... : ... .. 8 ... ...
ROW 62 : ... .. . ... ... ... : ... .. . ... ... ... : D-4 00 . P7E : ... .. 6 ... : ... .. . ... ... : ... .. . P7E ... : ... .. . ... ... : ... .. 5 ... ...
ROW 63 : ... .. . ... ... ... : ... .. . ... ... ... : A#3 00 . ... : ... .. 3 ... : ... .. . ... ... : ... .. 3 P82 ... : ... .. 3 ... ... : --- .. . ... ...
ROW 64 : ... .. 2 ... ... ... : ... .. 2 ... ... ... : G-3 00 . P79 : ... .. 2 ... : ... .. . ... ... : ... .. . P85 ... : ... .. . ... ... : ... .. . ... ...
ROW 65 : ... .. . ... ... ... : ... .. . ... ... ... : E-3 00 . P7D : ... .. 0 ... : ... .. . ... ... : ... .. . P86 ... : ... .. . ... ... : ... .. . ... ...
ROW 66 : ... .. F ... ... ... : ... .. F ... ... ... : D#5 00 . P7E : D-# 00 F ... : ... .. . ... ... : ... .. 6 P84 ... : ... .. 6 ... ... : C#4 01 A ... ...
ROW 67 : ... .. E ... ... ... : ... .. E ... ... ... : G-4 00 . P81 : ... .. C ... : ... .. . ... ... : ... .. . P80 ... : ... .. . ... ... : ... .. 8 ... ...
ROW 68 : ... .. D ... ... ... : ... .. D ... ... ... : D-4 00 . P7E : ... .. 6 ... : ... .. . ... ... : ... .. . P7D ... : ... .. . ... ... : ... .. 5 ... ...
ROW 69 : ... .. A ... ... ... : ... .. A ... ... ... : A#3 00 . ... : ... .. 3 ... : ... .. . ... ... : C-4 01 3 P86 ... : ... .. 3 ... ... : --- .. . ... ...
ROW 6A : ... .. 2 ... ... ... : ... .. 2 ... ... ... : G-3 00 . P79 : ... .. 2 ... : ... .. . ... ... : ... .. . ... ... : ... .. . ... ... : ... .. . ... ...
ROW 6B : ... .. . ... ... ... : ... .. . ... ... ... : E-3 00 . P7D : ... .. 0 ... : ... .. . ... ... : C#4 01 3 P7E ... : ... .. . ... ... : ... .. . ... ...
ROW 6C : A-2 00 F ... ... ... : E-2 00 F ... ... ... : G-4 00 . P83 : 6-# 00 F ... : ... .. . ... ... : ... .. 6 P80 ... : ... .. 6 ... ... : F#4 01 C ... ...
ROW 6D : ... .. E ... ... ... : ... .. E ... ... ... : D-4 00 . P80 : ... .. C ... : ... .. . ... ... : ... .. . ... ... : ... .. . ... ... : ... .. A ... ...
ROW 6E : ... .. D ... ... ... : ... .. D ... ... ... : A#3 00 . ... : ... .. 6 ... : ... .. . ... ... : ... .. . ... ... : ... .. . ... ... : ... .. 6 ... ...
ROW 6F : ... .. A ... ... ... : ... .. A ... ... ... : G-3 00 . P7B : ... .. 3 ... : ... .. . ... ... : ... .. . ... ... : ... .. 4 ... ... : ... .. . ... ...
ROW 70 : ... .. 2 ... ... ... : ... .. 2 ... ... ... : E-3 00 . P7F : ... .. 2 ... : ... .. . ... ... : ... .. . ... ... : ... .. . ... ... : ... .. . ... ...
ROW 71 : ... .. . ... ... ... : ... .. . ... ... ... : D-3 00 . P77 : ... .. 0 ... : ... .. . ... ... : ... .. . ... ... : ... .. . ... ... : ... .. . ... ...
ROW 72 : ... .. F ... ... ... : ... .. F ... ... ... : G-4 00 . P83 : D-# 00 F ... : ... .. . ... ... : ... .. . ... ... : ... .. . ... ... : ... .. . ... ...
ROW 73 : ... .. E ... ... ... : ... .. E ... ... ... : D-4 00 . P80 : ... .. C ... : ... .. . ... ... : ... .. . ... ... : ... .. . ... ... : ... .. . ... ...
ROW 74 : ... .. D ... ... ... : ... .. D ... ... ... : A#3 00 . ... : ... .. 6 ... : ... .. . ... ... : ... .. . ... ... : ... .. . ... ... : ... .. . ... ...
ROW 75 : ... .. A ... ... ... : ... .. A ... ... ... : G-3 00 . P7B : ... .. 3 ... : ... .. . ... ... : ... .. . ... ... : ... .. . ... ... : ... .. . ... ...
ROW 76 : ... .. 2 ... ... ... : ... .. 2 ... ... ... : E-3 00 . P7F : ... .. 2 ... : ... .. . ... ... : ... .. . ... ... : ... .. . ... ... : ... .. . ... ...
ROW 77 : ... .. . ... ... ... : ... .. . ... ... ... : D-3 00 . P77 : ... .. 0 ... : ... .. . ... ... : ... .. . ... ... : ... .. . ... ... : ... .. . ... ...
ROW 78 : ... .. F ... ... ... : ... .. F ... ... ... : D#4 00 . P83 : 1-# 00 F ... : ... .. . ... ... : ... .. . ... ... : ... .. 5 ... ... : ... .. . ... ...
ROW 79 : ... .. E ... ... ... : ... .. E ... ... ... : B-3 00 . P7F : ... .. C ... : ... .. . ... ... : ... .. . ... ... : ... .. . ... ... : ... .. . ... ...
ROW 7A : ... .. D ... ... ... : ... .. D ... ... ... : G-3 00 . P88 : ... .. 6 ... : ... .. . ... ... : ... .. . ... ... : ... .. . ... ... : ... .. . ... ...
ROW 7B : ... .. A ... ... ... : ... .. A ... ... ... : F-3 00 . P79 : ... .. 3 ... : ... .. . ... ... : ... .. . ... ... : ... .. . ... ... : ... .. . ... ...
ROW 7C : ... .. 2 ... ... ... : ... .. 2 ... ... ... : D-3 00 . P84 : ... .. 2 ... : ... .. . ... ... : ... .. . ... ... : ... .. . ... ... : ... .. . ... ...
ROW 7D : ... .. . ... ... ... : ... .. . ... ... ... : C-3 00 . P81 : ... .. 0 ... : ... .. . ... ... : ... .. . ... ... : ... .. . ... ... : ... .. . ... ...
ROW 7E : E-3 00 F ... ... ... : B-2 00 F ... ... ... : D#4 00 . P83 : ... .. F ... : ... .. . ... ... : F#4 01 9 ... ... : ... .. 6 P84 ... : ... .. 8 ... ...
ROW 7F : ... .. E ... ... ... : ... .. E ... ... ... : B-3 00 . P7F : ... .. C ... : ... .. . ... ... : ... .. 8 ... ... : F-4 01 6 P7C ... : ... .. . ... ...
ROW 80 : ... .. D ... ... ... : ... .. D ... ... ... : G-3 00 . P88 : ... .. 6 ... : ... .. . ... ... : ... .. . ... ... : E-4 01 6 P85 ... : ... .. . ... ...
ROW 81 : ... .. A ... ... ... : ... .. A ... ... ... : F-3 00 . P79 : ... .. 3 ... : ... .. . ... ... : --- .. . ... ... : ... .. 3 P82 ... : ... .. 4 ... ...
ROW 82 : ... .. . ... ... ... : ... .. . ... ... ... : D-3 00 . P84 : ... .. 2 ... : ... .. . ... ... : ... .. . ... ... : ... .. . P7E ... : ... .. . ... ...
ROW 83 : ... .. . ... ... ... : ... .. . ... ... ... : C-3 00 . P81 : ... .. 0 ... : ... .. . ... ... : ... .. . ... ... : D#4 01 3 P85 ... : ... .. . ... ...
ROW 84 : ... .. . ... ... ... : ... .. . ... ... ... : D#4 00 . P83 : 6-# 00 F ... : ... .. . ... ... : F#4 01 9 ... ... : ... .. 6 P84 ... : ... .. 8 ... ...
ROW 85 : ... .. . ... ... ... : ... .. . ... ... ... : B-3 00 . P7F : ... .. C ... : ... .. . ... ... : ... .. 8 ... ... : E-4 01 6 P7C ... : ... .. . ... ...
ROW 86 : ... .. . ... ... ... : ... .. . ... ... ... : G-3 00 . P88 : ... .. 6 ... : ... .. . ... ... : ... .. . ... ... : ... .. . P80 ... : ... .. . ... ...
ROW 87 : ... .. . ... ... ... : ... .. . ... ... ... : F-3 00 . P79 : ... .. 3 ... : ... .. . ... ... : --- .. . ... ... : ... .. 3 P83 ... : ... .. 4 ... ...
ROW 88 : ... .. 2 ... ... ... : ... .. 2 ... ... ... : D-3 00 . P84 : ... .. 2 ... : ... .. . ... ... : ... .. . ... ... : F-4 01 3 P7C ... : ... .. . ... ...
ROW 89 : ... .. . ... ... ... : ... .. . ... ... ... : C-3 00 . P81 : ... .. 0 ... : ... .. . ... ... : ... .. . ... ... : ... .. . ... ... : ... .. . ... ...
ROW 8A : ... .. F ... ... ... : ... .. F ... ... ... : ... .. . P7D : ... .. F ... : ... .. . ... ... : F#4 01 9 ... ... : E-4 01 6 P82 ... : ... .. 8 ... ...
ROW 8B : ... .. E ... ... ... : ... .. E ... ... ... : A#2 00 . P7F : ... .. C ... : ... .. . ... ... : ... .. 8 ... ... : ... .. . P7F ... : ... .. . ... ...
ROW 8C : ... .. D ... ... ... : ... .. D ... ... ... : G#2 00 . P88 : ... .. 6 ... : ... .. . ... ... : ... .. . ... ... : D#4 01 6 P85 ... : ... .. . ... ...
ROW 8D : ... .. A ... ... ... : ... .. A ... ... ... : G-2 00 . P76 : ... .. 3 ... : ... .. . ... ... : --- .. . ... ... : ... .. 3 P84 ... : ... .. 4 ... ...
ROW 8E : ... .. 2 ... ... ... : ... .. 2 ... ... ... : F-2 00 . P8A : ... .. 2 ... : ... .. . ... ... : ... .. . ... ... : E-4 01 3 P7C ... : ... .. . ... ...
ROW 8F : ... .. . ... ... ... : ... .. . ... ... ... : E-2 00 . P7E : ... .. 0 ... : ... .. . ... ... : ... .. . ... ... : ... .. . P80 ... : ... .. . ... ...
ROW 90 : D-3 00 F ... ... ... : A-2 00 F ... ... ... : G#5 00 . P81 : 1-# 00 F ... : ... .. . ... ... : B-4 01 9 ... ... : ... .. 6 P83 ... : ... .. 8 ... ...
ROW 91 : ... .. E ... ... ... : ... .. E ... ... ... : B-4 00 . P7D : ... .. C ... : ... .. . ... ... : ... .. 8 ... ... : F-4 01 6 P7C ... : ... .. . ... ...
ROW 92 : ... .. D ... ... ... : ... .. D ... ... ... : E-4 00 . P84 : ... .. 6 ... : ... .. . ... ... : ... .. . ... ... : ... .. . ... ... : ... .. . ... ...
ROW 93 : ... .. A ... ... ... : ... .. A ... ... ... : C-4 00 . P7E : ... .. 3 ... : ... .. . ... ... : ... .. 6 ... ... : E-4 01 6 P83 ... : ... .. 6 ... ...
ROW 94 : ... .. 2 ... ... ... : ... .. 2 ... ... ... : G#3 00 . P83 : ... .. 2 ... : ... .. . ... ... : ... .. . ... ... : ... .. . P80 ... : ... .. . ... ...
ROW 95 : ... .. . ... ... ... : ... .. . ... ... ... : F-3 00 . P84 : ... .. 0 ... : ... .. . ... ... : ... .. . ... ... : ... .. . P7C ... : ... .. . ... ...
ROW 96 : ... .. F ... ... ... : ... .. F ... ... ... : G#5 00 . P81 : ... .. F ... : ... .. . ... ... : ... .. . ... ... : D#4 01 6 P84 ... : ... .. . P84 ...
ROW 97 : ... .. E ... ... ... : ... .. E ... ... ... : B-4 00 . P7D : ... .. C ... : ... .. . ... ... : ... .. 5 ... ... : ... .. . P85 ... : G-4 01 6 P7C ...
ROW 98 : ... .. D ... ... ... : ... .. D ... ... ... : E-4 00 . P84 : ... .. 6 ... : ... .. . ... ... : ... .. . ... ... : E-4 01 6 P7F ... : F#4 01 6 P85 ...
ROW 99 : ... .. A ... ... ... : ... .. A ... ... ... : --- .. . ... : ... .. 3 ... : ... .. . ... ... : ... .. . ... ... : ... .. . P82 ... : ... .. . P82 ...
ROW 9A : ... .. 2 ... ... ... : ... .. 2 ... ... ... : ... .. . ... : ... .. 2 ... : ... .. . ... ... : ... .. . ... ... : F-4 01 6 P7C ... : ... .. . P7E ...
ROW 9B : ... .. . ... ... ... : ... .. . ... ... ... : ... .. . ... : ... .. 0 ... : ... .. . ... ... : ... .. . ... ... : ... .. . ... ... : F-4 01 6 P85 ...
ROW 9C : ... .. F ... ... ... : ... .. F ... ... ... : G-5 00 . P80 : 6-# 00 F ... : ... .. . ... ... : ... .. 4 ... ... : E-4 01 6 P83 ... : ... .. . P84 ...
ROW 9D : ... .. E ... ... ... : ... .. E ... ... ... : A#4 00 . P7F : ... .. C ... : ... .. . ... ... : ... .. . ... ... : ... .. . P80 ... : F#4 01 6 P7C ...
ROW 9E : ... .. D ... ... ... : ... .. D ... ... ... : E-4 00 . ... : ... .. 6 ... : ... .. . ... ... : ... .. . ... ... : ... .. . P7C ... : ... .. . P80 ...
ROW 9F : ... .. A ... ... ... : ... .. A ... ... ... : B-3 00 . P85 : ... .. 3 ... : ... .. . ... ... : ... .. . ... ... : D#4 01 6 P84 ... : ... .. . P83 ...
ROW A0 : ... .. 2 ... ... ... : ... .. 2 ... ... ... : G#3 00 . P7E : ... .. 2 ... : ... .. . ... ... : ... .. . ... ... : ... .. . P85 ... : G-4 01 6 P7C ...
ROW A1 : ... .. . ... ... ... : ... .. . ... ... ... : F-3 00 . P7F : ... .. 0 ... : ... .. . ... ... : ... .. . ... ... : E-4 01 6 P7E ... : ... .. . ... ...
ROW A2 : G-3 00 F ... ... ... : D-3 00 F ... ... ... : G-5 00 . P80 : 1-# 00 F ... : ... .. . ... ... : ... .. 6 P81 ... : G#4 01 9 P80 ... : F#4 01 8 P82 ...
ROW A3 : ... .. E ... ... ... : ... .. E ... ... ... : A#4 00 . P7F : ... .. C ... : ... .. . ... ... : ... .. . P82 ... : ... .. 8 ... ... : ... .. . P7F ...
ROW A4 : ... .. D ... ... ... : ... .. D ... ... ... : E-4 00 . ... : ... .. 6 ... : ... .. . ... ... : ... .. . ... ... : ... .. . ... ... : F-4 01 8 P85 ...
ROW A5 : ... .. A ... ... ... : ... .. A ... ... ... : --- .. . ... : ... .. 3 ... : ... .. . ... ... : ... .. 3 P80 ... : --- .. . ... ... : ... .. 4 P84 ...
ROW A6 : ... .. . ... ... ... : ... .. . ... ... ... : ... .. . ... : ... .. 2 ... : ... .. . ... ... : ... .. . ... ... : ... .. . ... ... : F#4 01 4 P7C ...
ROW A7 : ... .. . ... ... ... : ... .. . ... ... ... : ... .. . ... : ... .. 0 ... : ... .. . ... ... : ... .. . P7E ... : ... .. . ... ... : ... .. . P80 ...
ROW A8 : ... .. . ... ... ... : ... .. . ... ... ... : F#5 00 . P81 : ... .. F ... : ... .. . ... ... : ... .. 6 ... ... : G#4 01 9 ... ... : ... .. 8 P83 ...
ROW A9 : ... .. . ... ... ... : ... .. . ... ... ... : A-4 00 . P82 : ... .. C ... : ... .. . ... ... : ... .. . P7F ... : ... .. 8 ... ... : G-4 01 8 P7C ...
ROW AA : ... .. . ... ... ... : ... .. . ... ... ... : D#4 00 . P85 : ... .. 6 ... : ... .. . ... ... : ... .. . P80 ... : ... .. . ... ... : ... .. . ... ...
ROW AB : ... .. . ... ... ... : ... .. . ... ... ... : B-3 00 . P81 : ... .. 3 ... : ... .. . ... ... : ... .. 3 P81 ... : --- .. . ... ... : F#4 01 4 P83 ...
ROW AC : ... .. 2 ... ... ... : ... .. 2 ... ... ... : G#3 00 . P7A : ... .. 2 ... : ... .. . ... ... : ... .. . P82 ... : ... .. . ... ... : ... .. . P80 ...
ROW AD : ... .. . ... ... ... : ... .. . ... ... ... : F-3 00 . P7B : ... .. 0 ... : ... .. . ... ... : ... .. . ... ... : ... .. . ... ... : ... .. . P7C ...
ROW AE : ... .. F ... ... ... : ... .. F ... ... ... : F#5 00 . P81 : ... .. F ... : ... .. . ... ... : ... .. 6 P80 ... : G#4 01 9 ... ... : F-4 01 8 P84 ...
ROW AF : ... .. E ... ... ... : ... .. E ... ... ... : A-4 00 . P82 : ... .. C ... : ... .. . ... ... : ... .. . ... ... : ... .. 8 ... ... : ... .. . P85 ...
ROW B0 : ... .. D ... ... ... : ... .. D ... ... ... : D#4 00 . P85 : ... .. 6 ... : ... .. . ... ... : ... .. . P7F ... : ... .. . ... ... : F#4 01 8 P7F ...
ROW B1 : ... .. A ... ... ... : ... .. A ... ... ... : --- .. . ... : ... .. 3 ... : ... .. . ... ... : ... .. 3 P7E ... : --- .. . ... ... : ... .. 4 P82 ...
ROW B2 : ... .. 2 ... ... ... : ... .. 2 ... ... ... : ... .. . ... : ... .. 2 ... : ... .. . ... ... : ... .. . P7F ... : ... .. . ... ... : G-4 01 4 P7C ...
ROW B3 : ... .. . ... ... ... : ... .. . ... ... ... : ... .. . ... : ... .. 0 ... : ... .. . ... ... : ... .. . P80 ... : ... .. . ... ... : ... .. . ... ...
ROW B4 : A-3 00 F ... ... ... : E-3 00 F ... ... ... : F-5 00 . P7E : 6-# 00 F ... : ... .. . ... ... : ... .. 6 P81 ... : C#5 01 9 ... ... : F#4 01 8 P83 ...
ROW B5 : ... .. E ... ... ... : ... .. E ... ... ... : G#4 00 . P83 : ... .. C ... : ... .. . ... ... : ... .. . P82 ... : ... .. 8 ... ... : ... .. . P80 ...
ROW B6 : ... .. D ... ... ... : ... .. D ... ... ... : D#4 00 . P7E : ... .. 6 ... : ... .. . ... ... : ... .. . ... ... : ... .. . ... ... : ... .. . P7C ...
ROW B7 : ... .. A ... ... ... : ... .. A ... ... ... : --- .. . ... : ... .. 3 ... : ... .. . ... ... : ... .. 3 P81 ... : ... .. 4 ... ... : F-4 01 4 P84 ...
ROW B8 : ... .. 2 ... ... ... : ... .. 2 ... ... ... : ... .. . ... : ... .. 2 ... : ... .. . ... ... : ... .. . P80 ... : ... .. . ... ... : ... .. . P85 ...
ROW B9 : ... .. . ... ... ... : ... .. . ... ... ... : ... .. . ... : ... .. 0 ... : ... .. . ... ... : ... .. . P7F ... : ... .. . ... ... : F#4 01 4 P7E ...
ROW BA : ... .. F ... ... ... : ... .. F ... ... ... : F-5 00 . ... : 1-# 00 F ... : ... .. . ... ... : ... .. . P7E ... : ... .. . ... ... : ... .. . P82 ...
ROW BB : ... .. E ... ... ... : ... .. E ... ... ... : G#4 00 . P83 : ... .. C ... : ... .. . ... ... : ... .. . P7F ... : ... .. 3 ... ... : ... .. . P85 ...
ROW BC : ... .. D ... ... ... : ... .. D ... ... ... : D#4 00 . P7E : ... .. 6 ... : ... .. . ... ... : ... .. . P80 ... : ... .. . ... ... : G-4 01 4 P7C ...
ROW BD : ... .. A ... ... ... : ... .. A ... ... ... : --- .. . ... : ... .. 3 ... : ... .. . ... ... : ... .. . ... ... : ... .. . ... ... : F#4 01 4 P84 ...
ROW BE : ... .. 2 ... ... ... : ... .. 2 ... ... ... : ... .. . ... : ... .. 2 ... : ... .. . ... ... : ... .. . P82 ... : ... .. . ... ... : ... .. . P80 ...
ROW BF : ... .. . ... ... ... : ... .. . ... ... ... : ... .. . ... : ... .. 0 ... : ... .. . ... ... : ... .. . ... ... : ... .. . ... ... : ... .. . P7D ...
ROW C0 : ... .. F ... ... ... : ... .. F ... ... ... : D#5 00 . ... : ... .. F ... : ... .. . ... ... : ... .. . P81 ... : ... .. . ... ... : F-4 01 4 P84 ...
ROW C1 : ... .. E ... ... ... : ... .. E ... ... ... : G-4 00 . P81 : ... .. C ... : ... .. . ... ... : ... .. . P80 ... : ... .. . ... ... : ... .. . ... ...
ROW C2 : ... .. D ... ... ... : ... .. D ... ... ... : D-4 00 . P7E : ... .. 6 ... : ... .. . ... ... : ... .. . P7F ... : ... .. . ... ... : F#4 01 4 P7E ...
ROW C3 : ... .. A ... ... ... : ... .. A ... ... ... : A#3 00 . ... : ... .. 3 ... : ... .. . ... ... : ... .. . P7E ... : ... .. . ... ... : ... .. . P81 ...
ROW C4 : ... .. 2 ... ... ... : ... .. 2 ... ... ... : G-3 00 . P79 : ... .. 2 ... : ... .. . ... ... : ... .. . ... ... : ... .. . ... ... : ... .. . P85 ...
ROW C5 : ... .. . ... ... ... : ... .. . ... ... ... : E-3 00 . P7D : ... .. 0 ... : ... .. . ... ... : ... .. . P80 ... : ... .. . ... ... : G-4 01 4 P7C ...
ROW C6 : D-4 00 F ... ... ... : A-3 00 F ... ... ... : D#5 00 . P7E : ... .. F ... : ... .. . ... ... : ... .. . ... ... : ... .. . ... ... : F#4 01 4 P84 ...
ROW C7 : ... .. E ... ... ... : ... .. E ... ... ... : G-4 00 . P81 : ... .. C ... : ... .. . ... ... : ... .. . P82 ... : ... .. . ... ... : ... .. . P80 ...
ROW C8 : ... .. D ... ... ... : ... .. D ... ... ... : D-4 00 . P7E : ... .. 6 ... : ... .. . ... ... : ... .. . ... ... : ... .. . ... ... : ... .. . P7D ...
ROW C9 : ... .. A ... ... ... : ... .. A ... ... ... : --- .. . ... : ... .. 3 ... : ... .. . ... ... : ... .. 2 P81 ... : ... .. 2 ... ... : F-4 01 3 P84 ...
ROW CA : ... .. . ... ... ... : ... .. . ... ... ... : ... .. . ... : ... .. 2 ... : ... .. . ... ... : ... .. . P80 ... : ... .. . ... ... : ... .. . ... ...
ROW CB : ... .. . ... ... ... : ... .. . ... ... ... : ... .. . ... : ... .. 0 ... : ... .. . ... ... : ... .. . P7F ... : ... .. . ... ... : F#4 01 3 P7D ...
ROW CC : ... .. . ... ... ... : ... .. . ... ... ... : C-5 00 . P80 : 6-# 00 F ... : ... .. . ... ... : ... .. . P7E ... : ... .. . ... ... : ... .. . P80 ...
ROW CD : ... .. . ... ... ... : ... .. . ... ... ... : F-4 00 . P83 : ... .. C ... : ... .. . ... ... : ... .. . ... ... : ... .. . ... ... : ... .. . P84 ...
ROW CE : ... .. . ... ... ... : ... .. . ... ... ... : C#4 00 . P7B : ... .. 6 ... : ... .. . ... ... : ... .. . P80 ... : ... .. . ... ... : G-4 01 3 P7C ...
ROW CF : ... .. . ... ... ... : ... .. . ... ... ... : --- .. . ... : ... .. 3 ... : ... .. . ... ... : ... .. . ... ... : ... .. . ... ... : F#4 01 3 P85 ...
ROW D0 : ... .. 2 ... ... ... : ... .. 2 ... ... ... : ... .. . ... : ... .. 2 ... : ... .. . ... ... : ... .. . P81 ... : ... .. . ... ... : ... .. . P81 ...
ROW D1 : ... .. . ... ... ... : ... .. . ... ... ... : ... .. . ... : ... .. 0 ... : ... .. . ... ... : ... .. . P82 ... : ... .. . ... ... : ... .. . P7E ...
ROW D2 : ... .. F ... ... ... : ... .. F ... ... ... : C-5 00 . P80 : 1-# 00 F ... : ... .. . ... ... : ... .. . P81 ... : ... .. . ... ... : F-4 01 3 P84 ...
ROW D3 : ... .. E ... ... ... : ... .. E ... ... ... : F-4 00 . P83 : ... .. C ... : ... .. . ... ... : ... .. . P80 ... : ... .. . ... ... : ... .. . ... ...
ROW D4 : ... .. D ... ... ... : ... .. D ... ... ... : C#4 00 . P7B : ... .. 6 ... : ... .. . ... ... : ... .. . P7F ... : ... .. . ... ... : F#4 01 3 P7D ...
ROW D5 : ... .. A ... ... ... : ... .. A ... ... ... : --- .. . ... : ... .. 3 ... : ... .. . ... ... : ... .. . P80 ... : ... .. . ... ... : ... .. . P80 ...
ROW D6 : ... .. 2 ... ... ... : ... .. 2 ... ... ... : ... .. . ... : ... .. 2 ... : ... .. . ... ... : ... .. . ... ... : ... .. . ... ... : ... .. . ... ...
ROW D7 : ... .. . ... ... ... : ... .. . ... ... ... : ... .. . ... : ... .. 0 ... : ... .. . ... ... : ... .. . ... ... : ... .. . ... ... : ... .. . ... ...
ROW D8 : F#4 00 1 P81 ... ... : F#5 00 1 P81 ... ... : G#4 00 . P80 : 6-# 00 F ... : ... .. . ... ... : ... .. . ... ... : ... .. . ... ... : ... .. . ... ...
ROW D9 : ... .. . P82 ... ... : ... .. . P82 ... ... : D-4 00 . P85 : ... .. C ... : ... .. . ... ... : ... .. . ... ... : ... .. . ... ... : ... .. . ... ...
ROW DA : ... .. . P81 ... ... : ... .. . P81 ... ... : A#3 00 . ... : ... .. 6 ... : ... .. . ... ... : ... .. . ... ... : ... .. . ... ... : ... .. . ... ...
ROW DB : ... .. . P80 ... ... : ... .. . P80 ... ... : G-3 00 . P80 : ... .. 3 ... : ... .. . ... ... : ... .. . P81 ... : ... .. . P81 ... : ... .. . P81 ...
ROW DC : ... .. . P7F ... ... : ... .. . P82 ... ... : E-3 00 . P84 : ... .. 2 ... : ... .. . ... ... : ... .. . ... ... : ... .. . ... ... : ... .. . ... ...
ROW DD : ... .. . P7E ... ... : G-5 00 1 P7F ... ... : D-3 00 . P7C : ... .. 0 ... : ... .. . ... ... : ... .. . ... ... : ... .. . ... ... : ... .. . ... ...
ROW DE : ... .. . P7F ... ... : G#5 00 1 ... ... ... : D-4 00 . P85 : 1-# 00 F ... : ... .. . ... ... : ... .. . P82 ... : ... .. . P82 ... : ... .. . P83 ...
ROW DF : ... .. . P83 ... ... : ... .. . P80 ... ... : A#3 00 . ... : ... .. C ... : ... .. . ... ... : ... .. . ... ... : ... .. . ... ... : ... .. . ... ...
ROW E0 : G-4 00 1 P7F ... ... : ... .. . P81 ... ... : G-3 00 . P80 : ... .. 6 ... : ... .. . ... ... : ... .. . ... ... : ... .. . ... ... : ... .. . ... ...
ROW E1 : ... .. 2 P83 ... ... : A-5 00 2 P7F ... ... : E-3 00 . P84 : ... .. 3 ... : ... .. . ... ... : ... .. 3 P83 ... : ... .. 3 P83 ... : ... .. 4 P85 ...
ROW E2 : G#4 00 2 P7D ... ... : G#5 00 2 P81 ... ... : D-3 00 . P7C : ... .. 2 ... : ... .. . ... ... : ... .. . ... ... : ... .. . ... ... : ... .. . ... ...
ROW E3 : ... .. . P7F ... ... : ... .. . P80 ... ... : C-3 00 . P79 : ... .. 0 ... : ... .. . ... ... : ... .. . ... ... : ... .. . ... ... : ... .. . ... ...
ROW E4 : ... .. . ... ... ... : ... .. . P7F ... ... : C#4 00 . P81 : ... .. F ... : ... .. . ... ... : C-5 01 3 P7E ... : D-5 01 3 P7E ... : G-4 01 4 P7C ...
ROW E5 : ... .. . P7E ... ... : G-5 00 2 P82 ... ... : A-3 00 . P83 : ... .. C ... : ... .. . ... ... : ... .. . ... ... : ... .. . ... ... : ... .. . ... ...
ROW E6 : ... .. . P7F ... ... : G#5 00 2 P7F ... ... : F#3 00 . P81 : ... .. 6 ... : ... .. . ... ... : ... .. . ... ... : ... .. . ... ... : ... .. . ... ...
ROW E7 : ... .. 3 P80 ... ... : ... .. 3 P80 ... ... : D#3 00 . P89 : ... .. 3 ... : ... .. . ... ... : ... .. 4 P7F ... : ... .. 4 P7F ... : ... .. 5 P7E ...
ROW E8 : ... .. . P81 ... ... : ... .. . P81 ... ... : C#3 00 . P83 : ... .. 2 ... : ... .. . ... ... : ... .. . ... ... : ... .. . ... ... : ... .. . ... ...
ROW E9 : ... .. . P82 ... ... : A-5 00 3 P7F ... ... : B-2 00 . P82 : ... .. 0 ... : ... .. . ... ... : ... .. . ... ... : ... .. . ... ... : ... .. . ... ...
ROW EA : ... .. 4 P81 ... ... : G#5 00 4 P81 ... ... : A-3 00 . ... : A-# 00 F ... : ... .. . ... ... : ... .. . P80 ... : ... .. . P80 ... : ... .. . P80 ...
ROW EB : ... .. . P80 ... ... : ... .. . P80 ... ... : F#3 00 . P80 : ... .. C ... : ... .. . ... ... : ... .. . ... ... : ... .. . ... ... : ... .. . ... ...
ROW EC : ... .. . P7F ... ... : ... .. . P7F ... ... : D#3 00 . P88 : ... .. 6 ... : ... .. . ... ... : ... .. . ... ... : ... .. . ... ... : ... .. . ... ...
ROW ED : ... .. . P7E ... ... : G-5 00 4 P82 ... ... : C#3 00 . P82 : ... .. 3 ... : ... .. . ... ... : ... .. . P81 ... : ... .. . P81 ... : ... .. . P82 ...
ROW EE : ... .. . P7F ... ... : G#5 00 4 P7F ... ... : B-2 00 . P81 : ... .. 2 ... : ... .. . ... ... : ... .. . ... ... : ... .. . ... ... : ... .. . ... ...
ROW EF : ... .. . P80 ... ... : ... .. . P80 ... ... : A-2 00 . P86 : ... .. 0 ... : ... .. . ... ... : ... .. . ... ... : ... .. . ... ... : ... .. . ... ...
ROW F0 : ... .. 5 P81 ... ... : ... .. 5 P81 ... ... : D#3 00 . P78 : 1-# 00 F ... : ... .. . ... ... : ... .. . P82 ... : ... .. . P82 ... : ... .. 6 P83 ...
ROW F1 : ... .. . P82 ... ... : A-5 00 5 P7F ... ... : C-3 00 . P7A : ... .. C ... : ... .. . ... ... : ... .. . ... ... : ... .. . ... ... : ... .. . ... ...
ROW F2 : ... .. . P81 ... ... : G#5 00 5 P81 ... ... : A-2 00 . P88 : ... .. 6 ... : ... .. . ... ... : ... .. . ... ... : ... .. . ... ... : ... .. . ... ...
ROW F3 : ... .. . P80 ... ... : ... .. . P80 ... ... : G-2 00 . P85 : ... .. 3 ... : ... .. . ... ... : ... .. 5 P83 ... : D#5 01 5 P7E ... : G#4 01 6 P7C ...
ROW F4 : ... .. . P7F ... ... : ... .. . P7F ... ... : F-2 00 . P89 : ... .. 2 ... : ... .. . ... ... : ... .. . ... ... : ... .. . ... ... : ... .. . ... ...
ROW F5 : ... .. . P7E ... ... : G-5 00 5 P82 ... ... : E-2 00 . P6D : ... .. 0 ... : ... .. . ... ... : ... .. . ... ... : ... .. . ... ... : ... .. . ... ...
ROW F6 : ... .. 6 P7F ... ... : G#5 00 6 P7F ... ... : A-3 00 . P7E : ... .. F ... : ... .. . ... ... : C#5 01 5 P7E ... : ... .. . P7F ... : ... .. 7 P7E ...
ROW F7 : ... .. . P80 ... ... : ... .. . P80 ... ... : F-3 00 . ... : ... .. C ... : ... .. . ... ... : ... .. . ... ... : ... .. . ... ... : ... .. . ... ...
ROW F8 : ... .. . P81 ... ... : ... .. . P81 ... ... : D-3 00 . P79 : ... .. 6 ... : ... .. . ... ... : ... .. . ... ... : ... .. . ... ... : ... .. . ... ...
ROW F9 : ... .. . P82 ... ... : A-5 00 6 P7F ... ... : B-2 00 . P7F : ... .. 3 ... : ... .. . ... ... : ... .. 6 P80 ... : ... .. 6 P81 ... : ... .. 8 P80 ...
ROW FA : ... .. . P81 ... ... : G#5 00 6 P81 ... ... : A-2 00 . P74 : ... .. 2 ... : ... .. . ... ... : ... .. . ... ... : ... .. . ... ... : ... .. . ... ...
ROW FB : ... .. . P80 ... ... : ... .. . P80 ... ... : G-2 00 . P71 : ... .. 0 ... : ... .. . ... ... : ... .. . ... ... : ... .. . ... ... : ... .. . ... ...
ROW FC : ... .. 7 P7F ... ... : ... .. 7 P7F ... ... : G-3 00 . P79 : 6-# 00 F ... : ... .. . ... ... : ... .. . ... ... : ... .. . ... ... : ... .. . ... ...
ROW FD : ... .. . P7E ... ... : G-5 00 7 P82 ... ... : D#3 00 . P82 : ... .. C ... : ... .. . ... ... : ... .. . ... ... : ... .. . ... ... : ... .. . ... ...
ROW FE : ... .. . P7F ... ... : G#5 00 7 P7F ... ... : C-3 00 . P84 : ... .. 6 ... : ... .. . ... ... : ... .. . ... ... : ... .. . ... ... : ... .. . ... ...
ROW FF : ... .. 8 P80 ... ... : ... .. 8 P80 ... ... : A#2 00 . P76 : ... .. 3 ... : ... .. . ... ... : ... .. . ... ... : ... .. . ... ... : ... .. . ... ...

PATTERN 01
ROW 00 : ... .. . P81 ... ... : ... .. . P81 ... ... : G-2 00 . P8F : ... .. 2 ... : ... .. . ... ... : ... .. . ... ... : ... .. . ... ... : ... .. . ... ...
ROW 01 : ... .. . P82 ... ... : A-5 00 8 P7F ... ... : F#2 00 . P6F : ... .. 0 ... : ... .. . ... ... : ... .. . ... ... : ... .. . ... ... : ... .. . ... ...
ROW 02 : ... .. . P81 ... ... : G#5 00 8 P81 ... ... : E-2 00 . P77 : ... .. F ... : ... .. . ... ... : ... .. . ... ... : ... .. . ... ... : ... .. . ... ...
ROW 03 : ... .. . P80 ... ... : ... .. . P80 ... ... : D-2 00 . P88 : ... .. C ... : ... .. . ... ... : ... .. . ... ... : ... .. . ... ... : ... .. . ... ...
ROW 04 : ... .. . P7F ... ... : ... .. . P7F ... ... : C#2 00 . P73 : ... .. 6 ... : ... .. . ... ... : ... .. . ... ... : ... .. . ... ... : ... .. . ... ...
ROW 05 : ... .. 9 P7E ... ... : G-5 00 9 P82 ... ... : B-1 00 . P94 : ... .. 3 ... : ... .. . ... ... : ... .. . ... ... : ... .. . ... ... : ... .. . ... ...
ROW 06 : ... .. . P7F ... ... : G#5 00 9 P7F ... ... : A#1 00 . P88 : ... .. 2 ... : ... .. . ... ... : ... .. . ... ... : ... .. . ... ... : ... .. . ... ...
ROW 07 : ... .. . P80 ... ... : ... .. . P80 ... ... : A-1 00 . P7F : ... .. 0 ... : ... .. . ... ... : ... .. . ... ... : ... .. . ... ... : ... .. . ... ...
ROW 08 : ... .. A P81 ... ... : ... .. A P81 ... ... : G#1 00 . P79 : 5-# 00 F ... : ... .. . ... ... : ... .. . ... ... : ... .. . ... ... : ... .. . ... ...
ROW 09 : ... .. . P82 ... ... : A-5 00 A P7F ... ... : G-1 00 . P77 : ... .. C ... : ... .. . ... ... : ... .. . ... ... : ... .. . ... ... : ... .. . ... ...
ROW 0A : ... .. . P81 ... ... : G#5 00 A P81 ... ... : F#1 00 . P79 : ... .. 6 ... : ... .. . ... ... : ... .. . ... ... : ... .. . ... ... : ... .. . ... ...
ROW 0B : ... .. . P80 ... ... : ... .. . P80 ... ... : F-1 00 . P7F : ... .. 3 ... : ... .. . ... ... : ... .. . ... ... : ... .. . ... ... : ... .. . ... ...
ROW 0C : ... .. . P7F ... ... : ... .. . P7F ... ... : E-1 00 . P89 : ... .. 2 ... : ... .. . ... ... : ... .. . ... ... : ... .. . ... ... : ... .. . ... ...
ROW 0D : ... .. . P7E ... ... : G-5 00 A P82 ... ... : D#1 00 . P98 : ... .. 0 ... : ... .. . ... ... : ... .. . ... ... : ... .. . ... ... : ... .. . ... ...
ROW 0E : ... .. . P7F ... ... : G#5 00 A P7F ... ... : --- .. . ... : B-# 00 F ... : ... .. . ... ... : --- .. . ... ... : --- .. . ... ... : --- .. . ... ...
ROW 0F : ... .. 2 P80 ... ... : ... .. 2 P80 ... ... : ... .. . ... : ... .. . ... : ... .. . ... ... : ... .. . ... ... : ... .. . ... ... : ... .. . ... ...
ROW 10 : ... .. . P81 ... ... : ... .. . P81 ... ... : ... .. . ... : ... .. . ... : ... .. . ... ... : ... .. . ... ... : ... .. . ... ... : ... .. . ... ...
ROW 11 : ... .. . P82 ... ... : A-5 00 2 P7F ... ... : ... .. . ... : ... .. D ... : ... .. . ... ... : ... .. . ... ... : ... .. . ... ... : ... .. . ... ...
ROW 12 : ... .. 1 P81 ... ... : G#5 00 1 P81 ... ... : ... .. . ... : ... .. . ... : ... .. . ... ... : ... .. . ... ... : ... .. . ... ... : ... .. . ... ...
ROW 13 : ... .. . P80 ... ... : ... .. . P80 ... ... : ... .. . ... : ... .. . ... : ... .. . ... ... : ... .. . ... ... : ... .. . ... ... : ... .. . ... ...
ROW 14 : ... .. . P7F ... ... : ... .. . P7F ... ... : ... .. . ... : ... .. C ... : ... .. . ... ... : ... .. . ... ... : ... .. . ... ... : ... .. . ... ...
ROW 15 : ... .. 0 ... ... ... : ... .. 0 ... ... ... : ... .. . ... : ... .. . ... : ... .. . ... ... : ... .. . ... ... : ... .. . ... ... : ... .. . ... ...
ROW 16 : ... .. . ... ... ... : ... .. . ... ... ... : ... .. . ... : ... .. . ... : ... .. . ... ... : ... .. . ... ... : ... .. . ... ... : ... .. . ... ...
ROW 17 : ... .. . ... ... ... : ... .. . ... ... ... : ... .. . ... : ... .. A ... : ... .. . ... ... : ... .. . ... ... : ... .. . ... ... : ... .. . ... ...
ROW 18 : ... .. . ... ... ... : ... .. . ... ... ... : ... .. . ... : ... .. . ... : ... .. . ... ... : ... .. . ... ... : ... .. . ... ... : ... .. . ... ...
ROW 19 : ... .. . ... ... ... : ... .. . ... ... ... : ... .. . ... : ... .. . ... : ... .. . ... ... : ... .. . ... ... : ... .. . ... ... : ... .. . ... ...
ROW 1A : ... .. . ... ... ... : ... .. . ... ... ... : ... .. . ... : ... .. 9 ... : ... .. . ... ... : ... .. . ... ... : ... .. . ... ... : ... .. . ... ...
ROW 1B : ... .. . ... ... ... : ... .. . ... ... ... : ... .. . ... : ... .. . ... : ... .. . ... ... : ... .. . ... ... : ... .. . ... ... : ... .. . ... ...
ROW 1C : ... .. . ... ... ... : ... .. . ... ... ... : ... .. . ... : ... .. . ... : ... .. . ... ... : ... .. . ... ... : ... .. . ... ... : ... .. . ... ...
ROW 1D : ... .. . ... ... ... : ... .. . ... ... ... : ... .. . ... : ... .. 8 ... : ... .. . ... ... : ... .. . ... ... : ... .. . ... ... : ... .. . ... ...
ROW 1E : ... .. . ... ... ... : ... .. . ... ... ... : ... .. . ... : ... .. . ... : ... .. . ... ... : ... .. . ... ... : ... .. . ... ... : ... .. . ... ...
ROW 1F : ... .. . ... ... ... : ... .. . ... ... ... : ... .. . ... : ... .. . ... : ... .. . ... ... : ... .. . ... ... : ... .. . ... ... : ... .. . ... ...
ROW 20 : D#4 00 F P80 ... ... : B-4 00 9 P80 ... ... : G-4 00 . P80 : 1-# 00 F ... : ... .. . ... ... : G#2 01 A ... V03 : D#3 01 A P80 V03 : G#1 01 F ... ...
ROW 21 : ... .. E ... ... ... : ... .. 8 ... ... ... : A-3 00 . ... : ... .. C ... : ... .. . ... ... : ... .. 9 ... ... : ... .. 9 ... ... : ... .. D ... ...
ROW 22 : ... .. D ... ... ... : ... .. . ... ... ... : D-3 00 . ... : ... .. 6 ... : ... .. . ... ... : ... .. 8 ... ... : ... .. 8 ... ... : ... .. 8 ... ...
ROW 23 : ... .. A ... ... ... : ... .. 7 ... ... ... : C#3 00 . ... : ... .. 3 ... : ... .. . ... ... : ... .. 7 ... ... : ... .. 7 ... ... : ... .. . ... ...
ROW 24 : ... .. . ... ... ... : ... .. 5 ... ... ... : G#2 00 . ... : ... .. 2 ... : ... .. . ... ... : ... .. . ... ... : ... .. . ... ... : ... .. . ... ...
ROW 25 : ... .. . ... ... ... : ... .. . ... ... ... : --- .. . ... : ... .. 0 ... : ... .. . ... ... : ... .. 6 ... ... : ... .. 6 ... ... : ... .. . ... ...
ROW 26 : ... .. . ... ... ... : G#4 00 9 ... ... ... : G#2 00 . ... : D-# 00 F ... : ... .. . ... ... : ... .. . ... ... : ... .. . ... ... : ... .. . ... ...
ROW 27 : ... .. . ... ... ... : ... .. 8 ... ... ... : ... .. . ... : ... .. C ... : ... .. . ... ... : ... .. 5 ... ... : ... .. 5 ... ... : ... .. . ... ...
ROW 28 : ... .. . ... ... ... : ... .. . ... ... ... : ... .. . ... : ... .. 6 ... : ... .. . ... ... : ... .. . ... ... : ... .. . ... ... : ... .. . ... ...
ROW 29 : ... .. . ... ... ... : B-4 00 4 ... ... ... : ... .. . ... : ... .. 3 ... : ... .. . ... ... : --- .. . ... ... : --- .. . P83 ... : ... .. . ... ...
ROW 2A : ... .. . ... ... ... : ... .. 3 ... ... ... : ... .. . ... : ... .. 2 ... : ... .. . ... ... : ... .. . ... ... : ... .. . ... ... : ... .. . ... ...
ROW 2B : ... .. . ... ... ... : ... .. . ... ... ... : --- .. . ... : ... .. 0 ... : ... .. . ... ... : ... .. . ... ... : ... .. . ... ... : ... .. . ... ...
ROW 2C : ... .. . ... ... ... : ... .. 9 ... ... ... : F#3 00 . ... : 6-# 00 F ... : ... .. . ... ... : G#2 01 A ... ... : D#3 01 A P80 ... : ... .. . ... ...
ROW 2D : ... .. . ... ... ... : ... .. 8 ... ... ... : ... .. . ... : ... .. C ... : ... .. . ... ... : ... .. 9 ... ... : ... .. 9 ... ... : ... .. . ... ...
ROW 2E : ... .. . ... ... ... : ... .. . ... ... ... : ... .. . ... : ... .. 6 ... : ... .. . ... ... : ... .. 8 ... ... : ... .. 8 ... ... : ... .. . ... ...
ROW 2F : ... .. . ... ... ... : G#4 00 4 ... ... ... : ... .. . ... : ... .. 3 ... : ... .. . ... ... : ... .. 7 ... ... : ... .. 7 ... ... : ... .. . ... ...
ROW 30 : ... .. 2 ... ... ... : ... .. 3 ... ... ... : ... .. . ... : ... .. 2 ... : ... .. . ... ... : ... .. . ... ... : ... .. . ... ... : ... .. . ... ...
ROW 31 : ... .. . ... ... ... : ... .. . ... ... ... : --- .. . ... : ... .. 0 ... : ... .. . ... ... : ... .. 6 ... ... : ... .. 6 ... ... : ... .. . ... ...
ROW 32 : F#4 00 F ... ... ... : ... .. 9 ... ... ... : G#2 00 . ... : D-# 00 F ... : ... .. . ... ... : ... .. . ... ... : ... .. . ... ... : ... .. . ... ...
ROW 33 : ... .. E ... ... ... : ... .. 8 ... ... ... : ... .. . ... : ... .. C ... : ... .. . ... ... : ... .. 5 ... ... : ... .. 5 ... ... : ... .. . ... ...
ROW 34 : ... .. D ... ... ... : ... .. . ... ... ... : ... .. . ... : ... .. 6 ... : ... .. . ... ... : ... .. . ... ... : ... .. . ... ... : ... .. . ... ...
ROW 35 : ... .. A ... ... ... : B-4 00 4 ... ... ... : ... .. . ... : ... .. 3 ... : ... .. . ... ... : --- .. . ... ... : --- .. . P83 ... : ... .. . ... ...
ROW 36 : ... .. . ... ... ... : ... .. 3 ... ... ... : ... .. . ... : ... .. 2 ... : ... .. . ... ... : ... .. . ... ... : ... .. . ... ... : ... .. . ... ...
ROW 37 : ... .. . ... ... ... : ... .. . ... ... ... : --- .. . ... : ... .. 0 ... : ... .. . ... ... : ... .. . ... ... : ... .. . ... ... : ... .. . ... ...
ROW 38 : ... .. . ... ... ... : ... .. 9 ... ... ... : F#3 00 . ... : 1-# 00 F ... : ... .. . ... ... : G#2 01 A ... ... : D#3 01 A P80 ... : ... .. . ... ...
ROW 39 : ... .. . ... ... ... : ... .. 8 ... ... ... : ... .. . ... : ... .. C ... : ... .. . ... ... : ... .. 9 ... ... : ... .. 9 ... ... : ... .. . ... ...
ROW 3A : ... .. . ... ... ... : ... .. . ... ... ... : ... .. . ... : ... .. 6 ... : ... .. . ... ... : ... .. 8 ... ... : ... .. 8 ... ... : ... .. . ... ...
ROW 3B : G-4 00 A P7F ... ... : G#4 00 4 ... ... ... : ... .. . ... : ... .. 3 ... : ... .. . ... ... : --- .. . ... ... : --- .. . P83 ... : ... .. . ... ...
ROW 3C : ... .. . P81 ... ... : ... .. 3 ... ... ... : ... .. . ... : ... .. 2 ... : ... .. . ... ... : ... .. . ... ... : ... .. . ... ... : ... .. . ... ...
ROW 3D : ... .. . P7E ... ... : ... .. . ... ... ... : --- .. . ... : ... .. 0 ... : ... .. . ... ... : ... .. . ... ... : ... .. . ... ... : ... .. . ... ...
ROW 3E : F#4 00 A P80 ... ... : ... .. 9 ... ... ... : G#3 00 . ... : ... .. F ... : ... .. . ... ... : G#2 01 A ... ... : D#3 01 A P80 ... : ... .. . ... ...
ROW 3F : F-4 00 A P82 ... ... : ... .. 8 ... ... ... : ... .. . ... : ... .. C ... : ... .. . ... ... : ... .. 9 ... ... : ... .. 9 ... ... : ... .. 4 ... ...
ROW 40 : ... .. . P80 ... ... : ... .. . ... ... ... : ... .. . ... : ... .. 6 ... : ... .. . ... ... : ... .. 8 ... ... : ... .. 8 ... ... : ... .. . ... ...
ROW 41 : ... .. . P83 ... ... : B-4 00 4 ... ... ... : ... .. . ... : ... .. 3 ... : ... .. . ... ... : --- .. . ... ... : --- .. . P83 ... : ... .. 1 ... ...
ROW 42 : F#4 00 A P80 ... ... : ... .. 3 ... ... ... : ... .. . ... : ... .. 2 ... : ... .. . ... ... : ... .. . ... ... : ... .. . ... ... : ... .. . ... ...
ROW 43 : G-4 00 A P7F ... ... : ... .. . ... ... ... : --- .. . ... : ... .. 0 ... : ... .. . ... ... : ... .. . ... ... : ... .. . ... ... : ... .. . ... ...
ROW 44 : F-4 00 F P80 ... ... : C#5 00 9 ... ... ... : C-5 00 . ... : 6-# 00 F ... : ... .. . ... ... : G#2 01 A ... ... : F-3 01 A P80 ... : C#1 01 F ... ...
ROW 45 : ... .. E ... ... ... : ... .. 8 ... ... ... : D-4 00 . ... : ... .. C ... : ... .. . ... ... : ... .. 9 ... ... : ... .. 9 ... ... : ... .. D ... ...
ROW 46 : ... .. D ... ... ... : ... .. . ... ... ... : G-3 00 . ... : ... .. 6 ... : ... .. . ... ... : ... .. 8 ... ... : ... .. 8 ... ... : ... .. 8 ... ...
ROW 47 : ... .. A ... ... ... : G#4 00 4 ... ... ... : F#3 00 . ... : ... .. 3 ... : ... .. . ... ... : ... .. 7 ... ... : ... .. 7 ... ... : ... .. . ... ...
ROW 48 : ... .. 2 ... ... ... : ... .. 3 ... ... ... : C#3 00 . ... : ... .. 2 ... : ... .. . ... ... : ... .. . ... ... : ... .. . ... ... : ... .. . ... ...
ROW 49 : ... .. . ... ... ... : ... .. . ... ... ... : --- .. . ... : ... .. 0 ... : ... .. . ... ... : ... .. 6 ... ... : ... .. 6 ... ... : ... .. . ... ...
ROW 4A : D#4 00 F ... ... ... : ... .. 9 ... ... ... : C#3 00 . ... : D-# 00 F ... : ... .. . ... ... : ... .. . ... ... : ... .. . ... ... : ... .. . ... ...
ROW 4B : ... .. E ... ... ... : ... .. 8 ... ... ... : ... .. . ... : ... .. C ... : ... .. . ... ... : ... .. 5 ... ... : ... .. 5 ... ... : ... .. . ... ...
ROW 4C : ... .. D ... ... ... : ... .. . ... ... ... : ... .. . ... : ... .. 6 ... : ... .. . ... ... : ... .. . ... ... : ... .. . ... ... : ... .. . ... ...
ROW 4D : ... .. A ... ... ... : C#5 00 4 ... ... ... : ... .. . ... : ... .. 3 ... : ... .. . ... ... : --- .. . ... ... : --- .. . ... ... : ... .. . ... ...
ROW 4E : ... .. 2 ... ... ... : ... .. 3 ... ... ... : ... .. . ... : ... .. 2 ... : ... .. . ... ... : ... .. . ... ... : ... .. . ... ... : ... .. . ... ...
ROW 4F : ... .. . ... ... ... : ... .. . ... ... ... : --- .. . ... : ... .. 0 ... : ... .. . ... ... : ... .. . ... ... : ... .. . ... ... : ... .. . ... ...
ROW 50 : F-4 00 F ... ... ... : ... .. 9 ... ... ... : B-3 00 . ... : 1-# 00 F ... : ... .. . ... ... : G#2 01 A ... ... : F-3 01 A ... ... : ... .. . ... ...
ROW 51 : ... .. E ... ... ... : ... .. 8 ... ... ... : ... .. . ... : ... .. C ... : ... .. . ... ... : ... .. 9 ... ... : ... .. 9 ... ... : ... .. . ... ...
ROW 52 : ... .. D ... ... ... : ... .. . ... ... ... : ... .. . ... : ... .. 6 ... : ... .. . ... ... : ... .. 8 ... ... : ... .. 8 ... ... : ... .. . ... ...
ROW 53 : ... .. A ... ... ... : G#4 00 4 ... ... ... : ... .. . ... : ... .. 3 ... : ... .. . ... ... : ... .. 7 ... ... : ... .. 7 ... ... : ... .. . ... ...
ROW 54 : ... .. . ... ... ... : ... .. 3 ... ... ... : ... .. . ... : ... .. 2 ... : ... .. . ... ... : ... .. . ... ... : ... .. . ... ... : ... .. . ... ...
ROW 55 : ... .. . ... ... ... : ... .. . ... ... ... : --- .. . ... : ... .. 0 ... : ... .. . ... ... : ... .. 6 ... ... : ... .. 6 ... ... : ... .. . ... ...
ROW 56 : ... .. . ... ... ... : ... .. 9 ... ... ... : C#4 00 . ... : D-# 00 F ... : ... .. . ... ... : --- .. . ... ... : --- .. . ... ... : ... .. . ... ...
ROW 57 : ... .. . ... ... ... : ... .. 8 ... ... ... : ... .. . ... : ... .. C ... : ... .. . ... ... : ... .. . ... ... : ... .. . ... ... : ... .. . ... ...
ROW 58 : ... .. . ... ... ... : ... .. . ... ... ... : ... .. . ... : ... .. 6 ... : ... .. . ... ... : ... .. . ... ... : ... .. . ... ... : ... .. . ... ...
ROW 59 : ... .. . ... ... ... : C#5 00 4 ... ... ... : ... .. . ... : ... .. 3 ... : ... .. . ... ... : ... .. . ... ... : ... .. . ... ... : ... .. . ... ...
ROW 5A : ... .. . ... ... ... : ... .. 3 ... ... ... : ... .. . ... : ... .. 2 ... : ... .. . ... ... : ... .. . ... ... : ... .. . ... ... : ... .. . ... ...
ROW 5B : ... .. . ... ... ... : ... .. . ... ... ... : --- .. . ... : ... .. 0 ... : ... .. . ... ... : ... .. . ... ... : ... .. . ... ... : ... .. . ... ...
ROW 5C : ... .. . P83 ... ... : ... .. 9 ... ... ... : C#3 00 . ... : 6-# 00 F ... : ... .. . ... ... : G#2 01 A ... ... : F-3 01 A ... ... : ... .. . ... ...
ROW 5D : ... .. . P84 ... ... : ... .. 8 ... ... ... : ... .. . ... : ... .. C ... : ... .. . ... ... : ... .. 9 ... ... : ... .. 9 ... ... : ... .. . ... ...
ROW 5E : ... .. . P83 ... ... : ... .. . ... ... ... : ... .. . ... : ... .. 6 ... : ... .. . ... ... : ... .. 8 ... ... : ... .. 8 ... ... : ... .. . ... ...
ROW 5F : ... .. . P80 ... ... : G#4 00 4 ... ... ... : ... .. . ... : ... .. 3 ... : ... .. . ... ... : --- .. . ... ... : --- .. . ... ... : ... .. . ... ...
ROW 60 : ... .. . P7D ... ... : ... .. 3 ... ... ... : ... .. . ... : ... .. 2 ... : ... .. . ... ... : ... .. . ... ... : ... .. . ... ... : ... .. . ... ...
ROW 61 : ... .. . P7C ... ... : ... .. . ... ... ... : --- .. . ... : ... .. 0 ... : ... .. . ... ... : ... .. . ... ... : ... .. . ... ... : ... .. . ... ...
ROW 62 : ... .. . P7D ... ... : ... .. 9 ... ... ... : C#3 00 . ... : D-# 00 F ... : ... .. . ... ... : G#2 01 A ... ... : F-3 01 A ... ... : ... .. . ... ...
ROW 63 : ... .. . P80 ... ... : ... .. 8 ... ... ... : ... .. . ... : ... .. C ... : ... .. . ... ... : ... .. 9 ... ... : ... .. 9 ... ... : ... .. 4 ... ...
ROW 64 : ... .. . P83 ... ... : ... .. . ... ... ... : ... .. . ... : ... .. 6 ... : ... .. . ... ... : ... .. 8 ... ... : ... .. 8 ... ... : ... .. . ... ...
ROW 65 : ... .. . P84 ... ... : C#5 00 4 ... ... ... : ... .. . ... : ... .. 3 ... : ... .. . ... ... : --- .. . ... ... : --- .. . ... ... : ... .. 1 ... ...
ROW 66 : ... .. 2 P83 ... ... : ... .. 3 ... ... ... : ... .. . ... : ... .. 2 ... : ... .. . ... ... : ... .. . ... ... : ... .. . ... ... : ... .. . ... ...
ROW 67 : ... .. . P80 ... ... : ... .. . ... ... ... : --- .. . ... : ... .. 0 ... : ... .. . ... ... : ... .. . ... ... : ... .. . ... ... : ... .. . ... ...
ROW 68 : E-4 00 F ... ... ... : B-4 00 9 ... ... ... : A#4 00 . ... : 1-# 00 F ... : ... .. . ... ... : E-3 01 A ... ... : G#3 01 A ... ... : B-0 01 F ... ...
ROW 69 : ... .. E ... ... ... : ... .. 8 ... ... ... : C-4 00 . ... : ... .. C ... : ... .. . ... ... : ... .. 9 ... ... : ... .. 9 ... ... : ... .. D ... ...
ROW 6A : ... .. D ... ... ... : ... .. . ... ... ... : F-3 00 . ... : ... .. 6 ... : ... .. . ... ... : ... .. 8 ... ... : ... .. 8 ... ... : ... .. 8 ... ...
ROW 6B : ... .. A ... ... ... : G#4 00 4 ... ... ... : E-3 00 . ... : ... .. 3 ... : ... .. . ... ... : ... .. 7 ... ... : ... .. 7 ... ... : ... .. . ... ...
ROW 6C : ... .. 2 ... ... ... : ... .. 3 ... ... ... : B-2 00 . ... : ... .. 2 ... : ... .. . ... ... : ... .. . ... ... : ... .. . ... ... : ... .. . ... ...
ROW 6D : ... .. . ... ... ... : ... .. . ... ... ... : ... .. . ... : ... .. 0 ... : ... .. . ... ... : ... .. 6 ... ... : ... .. 6 ... ... : ... .. . ... ...
ROW 6E : D#4 00 F ... ... ... : ... .. 9 ... ... ... : ... .. . ... : ... .. F ... : ... .. . ... ... : --- .. . P82 ... : --- .. . P82 ... : ... .. . ... ...
ROW 6F : ... .. E ... ... ... : ... .. 8 ... ... ... : ... .. . ... : ... .. C ... : ... .. . ... ... : ... .. . ... ... : ... .. . ... ... : ... .. . ... ...
ROW 70 : ... .. D ... ... ... : ... .. . ... ... ... : ... .. . ... : ... .. 6 ... : ... .. . ... ... : ... .. . ... ... : ... .. . ... ... : ... .. . ... ...
ROW 71 : ... .. A ... ... ... : B-4 00 4 ... ... ... : ... .. . ... : ... .. 3 ... : ... .. . ... ... : ... .. . ... ... : ... .. . ... ... : ... .. . ... ...
ROW 72 : ... .. 2 ... ... ... : ... .. 3 ... ... ... : ... .. . ... : ... .. 2 ... : ... .. . ... ... : ... .. . ... ... : ... .. . ... ... : ... .. . ... ...
ROW 73 : ... .. . ... ... ... : ... .. . ... ... ... : ... .. . ... : ... .. 0 ... : ... .. . ... ... : ... .. . ... ... : ... .. . ... ... : ... .. . ... ...
ROW 74 : E-4 00 F ... ... ... : ... .. 9 ... ... ... : ... .. . ... : 6-# 00 F ... : ... .. . ... ... : E-3 01 A P80 ... : G#3 01 A P80 ... : ... .. . ... ...
ROW 75 : ... .. E ... ... ... : ... .. 8 ... ... ... : ... .. . ... : ... .. C ... : ... .. . ... ... : ... .. 9 ... ... : ... .. 9 ... ... : ... .. . ... ...
ROW 76 : ... .. D ... ... ... : ... .. . ... ... ... : ... .. . ... : ... .. 6 ... : ... .. . ... ... : ... .. 8 ... ... : ... .. 8 ... ... : ... .. . ... ...
ROW 77 : ... .. A ... ... ... : G#4 00 4 ... ... ... : ... .. . ... : ... .. 3 ... : ... .. . ... ... : ... .. 7 ... ... : ... .. 7 ... ... : ... .. . ... ...
ROW 78 : ... .. . ... ... ... : ... .. 3 ... ... ... : ... .. . ... : ... .. 2 ... : ... .. . ... ... : ... .. . ... ... : ... .. . ... ... : ... .. . ... ...
ROW 79 : ... .. . ... ... ... : ... .. . ... ... ... : --- .. . ... : ... .. 0 ... : ... .. . ... ... : ... .. 6 ... ... : ... .. 6 ... ... : ... .. . ... ...
ROW 7A : ... .. . ... ... ... : ... .. 9 ... ... ... : G#3 00 . ... : D-# 00 F ... : ... .. . ... ... : --- .. . P82 ... : --- .. . P82 ... : ... .. . ... ...
ROW 7B : ... .. . ... ... ... : ... .. 8 ... ... ... : ... .. . ... : ... .. C ... : ... .. . ... ... : ... .. . ... ... : ... .. . ... ... : ... .. . ... ...
ROW 7C : ... .. . ... ... ... : ... .. . ... ... ... : ... .. . ... : ... .. 6 ... : ... .. . ... ... : ... .. . ... ... : ... .. . ... ... : ... .. . ... ...
ROW 7D : ... .. . ... ... ... : B-4 00 4 ... ... ... : ... .. . ... : ... .. 3 ... : ... .. . ... ... : ... .. . ... ... : ... .. . ... ... : ... .. . ... ...
ROW 7E : ... .. . ... ... ... : ... .. 3 ... ... ... : ... .. . ... : ... .. 2 ... : ... .. . ... ... : ... .. . ... ... : ... .. . ... ... : ... .. . ... ...
ROW 7F : ... .. . ... ... ... : ... .. . ... ... ... : ... .. . ... : ... .. 0 ... : ... .. . ... ... : ... .. . ... ... : ... .. . ... ... : ... .. . ... ...
ROW 80 : ... .. . P83 ... ... : ... .. 9 ... ... ... : ... .. . ... : 1-# 00 F ... : ... .. . ... ... : E-3 01 A P80 ... : G#3 01 A P80 ... : ... .. . ... ...
ROW 81 : ... .. . P84 ... ... : ... .. 8 ... ... ... : ... .. . ... : ... .. C ... : ... .. . ... ... : ... .. 9 ... ... : ... .. 9 ... ... : ... .. . ... ...
ROW 82 : ... .. . P83 ... ... : ... .. . ... ... ... : ... .. . ... : ... .. 6 ... : ... .. . ... ... : ... .. 8 ... ... : ... .. 8 ... ... : ... .. . ... ...
ROW 83 : ... .. . P80 ... ... : G#4 00 4 ... ... ... : ... .. . ... : ... .. 3 ... : ... .. . ... ... : --- .. . P82 ... : --- .. . P82 ... : ... .. . ... ...
ROW 84 : ... .. . P7D ... ... : ... .. 3 ... ... ... : ... .. . ... : ... .. 2 ... : ... .. . ... ... : ... .. . ... ... : ... .. . ... ... : ... .. . ... ...
ROW 85 : ... .. . P7C ... ... : ... .. . ... ... ... : ... .. . ... : ... .. 0 ... : ... .. . ... ... : ... .. . ... ... : ... .. . ... ... : ... .. . ... ...
ROW 86 : ... .. . P7D ... ... : ... .. 9 ... ... ... : ... .. . ... : D-# 00 F ... : ... .. . ... ... : E-3 01 A P80 ... : G#3 01 A P80 ... : ... .. . ... ...
ROW 87 : ... .. . P80 ... ... : ... .. 8 ... ... ... : ... .. . ... : ... .. C ... : ... .. . ... ... : ... .. 9 ... ... : ... .. 9 ... ... : ... .. 4 ... ...
ROW 88 : ... .. . P83 ... ... : ... .. . ... ... ... : ... .. . ... : ... .. 6 ... : ... .. . ... ... : ... .. 8 ... ... : ... .. 8 ... ... : ... .. . ... ...
ROW 89 : ... .. . P84 ... ... : B-4 00 4 ... ... ... : ... .. . ... : ... .. 3 ... : ... .. . ... ... : --- .. . P82 ... : --- .. . P82 ... : ... .. 1 ... ...
ROW 8A : ... .. 2 P83 ... ... : ... .. 3 ... ... ... : ... .. . ... : ... .. 2 ... : ... .. . ... ... : ... .. . ... ... : ... .. . ... ... : ... .. . ... ...
ROW 8B : ... .. . P80 ... ... : ... .. . ... ... ... : --- .. . ... : ... .. 0 ... : ... .. . ... ... : ... .. . ... ... : ... .. . ... ... : ... .. . ... ...
ROW 8C : D#4 00 F ... ... ... : ... .. 9 ... ... ... : D-5 00 . ... : 6-# 00 F ... : ... .. . ... ... : D#3 01 A P80 ... : G#3 01 A P80 ... : B-1 01 F ... ...
ROW 8D : ... .. E ... ... ... : ... .. 8 ... ... ... : E-4 00 . ... : ... .. C ... : ... .. . ... ... : ... .. 9 ... ... : ... .. 9 ... ... : ... .. D ... ...
ROW 8E : ... .. D ... ... ... : ... .. . ... ... ... : A-3 00 . ... : ... .. 6 ... : ... .. . ... ... : ... .. 8 ... ... : ... .. 8 ... ... : ... .. 8 ... ...
ROW 8F : ... .. A ... ... ... : G#4 00 4 ... ... ... : G#3 00 . ... : ... .. 3 ... : ... .. . ... ... : --- .. . P83 ... : --- .. . P82 ... : ... .. . ... ...
ROW 90 : ... .. 2 ... ... ... : ... .. 3 ... ... ... : D#3 00 . ... : ... .. 2 ... : ... .. . ... ... : ... .. . ... ... : ... .. . ... ... : ... .. 4 ... ...
ROW 91 : ... .. . ... ... ... : ... .. . ... ... ... : --- .. . ... : ... .. 0 ... : ... .. . ... ... : ... .. . ... ... : ... .. . ... ... : ... .. . ... ...
ROW 92 : C#4 00 F ... ... ... : F#4 00 9 ... ... ... : C#3 00 . ... : D-# 00 F ... : ... .. . ... ... : D#3 01 A P80 ... : G#3 01 A P80 ... : A#1 01 F ... ...
ROW 93 : ... .. E ... ... ... : ... .. 8 ... ... ... : ... .. . ... : ... .. C ... : ... .. . ... ... : ... .. 9 ... ... : ... .. 9 ... ... : ... .. D ... ...
ROW 94 : ... .. D ... ... ... : ... .. . ... ... ... : ... .. . ... : ... .. 6 ... : ... .. . ... ... : ... .. 8 ... ... : ... .. 8 ... ... : ... .. 8 ... ...
ROW 95 : ... .. A ... ... ... : B-4 00 4 ... ... ... : ... .. . ... : ... .. 3 ... : ... .. . ... ... : --- .. . P83 ... : --- .. . P82 ... : ... .. . ... ...
ROW 96 : ... .. 2 ... ... ... : ... .. 3 ... ... ... : ... .. . ... : ... .. 2 ... : ... .. . ... ... : ... .. . ... ... : ... .. . ... ... : ... .. 4 ... ...
ROW 97 : ... .. . ... ... ... : ... .. . ... ... ... : --- .. . ... : ... .. 0 ... : ... .. . ... ... : ... .. . ... ... : ... .. . ... ... : ... .. . ... ...
ROW 98 : D#4 00 F ... ... ... : D#4 00 9 ... ... ... : B-2 00 . ... : 1-# 00 F ... : ... .. . ... ... : C#3 01 A P80 ... : F#3 01 A P80 ... : G#1 01 F ... ...
ROW 99 : ... .. E ... ... ... : ... .. 8 ... ... ... : ... .. . ... : ... .. C ... : ... .. . ... ... : ... .. 9 ... ... : ... .. 9 ... ... : ... .. D ... ...
ROW 9A : ... .. D ... ... ... : ... .. . ... ... ... : ... .. . ... : ... .. 6 ... : ... .. . ... ... : ... .. 8 ... ... : ... .. 8 ... ... : ... .. 8 ... ...
ROW 9B : ... .. A ... ... ... : F#4 00 4 ... ... ... : ... .. . ... : ... .. 3 ... : ... .. . ... ... : --- .. . P83 ... : --- .. . P7F ... : ... .. . ... ...
ROW 9C : ... .. . ... ... ... : ... .. 3 ... ... ... : ... .. . ... : ... .. 2 ... : ... .. . ... ... : ... .. . ... ... : ... .. . ... ... : ... .. . ... ...
ROW 9D : ... .. . ... ... ... : ... .. . ... ... ... : --- .. . ... : ... .. 0 ... : ... .. . ... ... : ... .. . ... ... : ... .. . ... ... : ... .. . ... ...
ROW 9E : E-4 00 A P7D ... ... : A#4 00 9 ... ... ... : A#2 00 . ... : ... .. F ... : ... .. . ... ... : D#3 01 A P80 ... : G#3 01 A P80 ... : ... .. . ... ...
ROW 9F : ... .. . P7F ... ... : ... .. 8 ... ... ... : ... .. . ... : ... .. C ... : ... .. . ... ... : ... .. 9 ... ... : ... .. 9 ... ... : ... .. . ... ...
ROW A0 : ... .. . P7C ... ... : ... .. . ... ... ... : ... .. . ... : ... .. 6 ... : ... .. . ... ... : ... .. 8 ... ... : ... .. 8 ... ... : ... .. . ... ...
ROW A1 : D#4 00 A P80 ... ... : D#4 00 4 ... ... ... : ... .. . ... : ... .. 3 ... : ... .. . ... ... : ... .. 7 ... ... : ... .. 7 ... ... : ... .. . ... ...
ROW A2 : D-4 00 A P83 ... ... : ... .. 3 ... ... ... : ... .. . ... : ... .. 2 ... : ... .. . ... ... : ... .. . ... ... : ... .. . ... ... : ... .. . ... ...
ROW A3 : ... .. . P81 ... ... : ... .. . ... ... ... : --- .. . ... : ... .. 0 ... : ... .. . ... ... : ... .. 6 ... ... : ... .. 6 ... ... : ... .. . ... ...
ROW A4 : ... .. . P84 ... ... : F#4 00 9 ... ... ... : G#2 00 . ... : 6-# 00 F ... : ... .. . ... ... : ... .. . ... ... : ... .. . ... ... : ... .. . ... ...
ROW A5 : D#4 00 A P80 ... ... : ... .. 8 ... ... ... : ... .. . ... : ... .. C ... : ... .. . ... ... : ... .. 5 ... ... : ... .. 5 ... ... : ... .. . ... ...
ROW A6 : E-4 00 A P7D ... ... : ... .. . ... ... ... : ... .. . ... : ... .. 6 ... : ... .. . ... ... : ... .. . ... ... : ... .. . ... ... : ... .. . ... ...
ROW A7 : ... .. . P7F ... ... : A#4 00 4 ... ... ... : ... .. . ... : ... .. 3 ... : ... .. . ... ... : ... .. . P8A ... : A-3 01 5 P7B ... : ... .. . ... ...
ROW A8 : ... .. . P7C ... ... : ... .. 3 ... ... ... : ... .. . ... : ... .. 2 ... : ... .. . ... ... : E-3 01 5 P7B ... : ... .. . P81 ... : ... .. . ... ...
ROW A9 : D#4 00 A P80 ... ... : ... .. . ... ... ... : --- .. . ... : ... .. 0 ... : ... .. . ... ... : ... .. . P79 ... : ... .. . P7F ... : ... .. . ... ...
ROW AA : D-4 00 A P83 ... ... : C#4 00 9 ... ... ... : F#2 00 . ... : ... .. F ... : ... .. . ... ... : D#3 01 5 P84 ... : G#3 01 5 P84 ... : ... .. . ... ...
ROW AB : ... .. 2 P81 ... ... : ... .. 8 ... ... ... : ... .. . ... : ... .. C ... : ... .. . ... ... : ... .. . P7C ... : ... .. . P7C ... : ... .. . ... ...
ROW AC : ... .. . P84 ... ... : ... .. . ... ... ... : ... .. . ... : ... .. 6 ... : ... .. . ... ... : D-3 01 5 P87 ... : G-3 01 5 P82 ... : ... .. . ... ...
ROW AD : D#4 00 2 P80 ... ... : F#4 00 4 ... ... ... : ... .. . ... : ... .. 3 ... : ... .. . ... ... : ... .. . P85 ... : ... .. . P80 ... : ... .. . ... ...
ROW AE : E-4 00 1 P7D ... ... : ... .. 3 ... ... ... : ... .. . ... : ... .. 2 ... : ... .. . ... ... : D#3 01 5 P76 ... : ... .. . P86 ... : ... .. 4 ... ...
ROW AF : ... .. . P7F ... ... : ... .. . ... ... ... : --- .. . ... : ... .. 0 ... : ... .. . ... ... : ... .. . P80 ... : G#3 01 5 P80 ... : ... .. . ... ...
ROW B0 : G#3 00 F P80 ... ... : B-4 00 9 ... ... ... : G-4 00 . ... : 1-# 00 F ... : ... .. . ... ... : G#3 01 A ... ... : B-3 01 A ... ... : G#0 01 F ... ...
ROW B1 : ... .. E ... ... ... : ... .. 8 ... ... ... : A-3 00 . ... : ... .. C ... : ... .. . ... ... : ... .. 9 ... ... : ... .. 9 ... ... : ... .. D ... ...
ROW B2 : ... .. D ... ... ... : ... .. . ... ... ... : D-3 00 . ... : ... .. 6 ... : ... .. . ... ... : ... .. 8 ... ... : ... .. 8 ... ... : ... .. 8 ... ...
ROW B3 : ... .. A ... ... ... : C#4 00 4 ... ... ... : C#3 00 . ... : ... .. 3 ... : ... .. . ... ... : ... .. 7 ... ... : ... .. 7 ... ... : ... .. . ... ...
ROW B4 : ... .. . ... ... ... : ... .. 3 ... ... ... : G#2 00 . ... : ... .. 2 ... : ... .. . ... ... : ... .. . ... ... : ... .. . ... ... : ... .. . ... ...
ROW B5 : ... .. . ... ... ... : ... .. . ... ... ... : --- .. . ... : ... .. 0 ... : ... .. . ... ... : ... .. 6 ... ... : ... .. 6 ... ... : ... .. . ... ...
ROW B6 : ... .. . ... ... ... : G#4 00 9 ... ... ... : G#2 00 . ... : ... .. F ... : ... .. . ... ... : ... .. . ... ... : ... .. . ... ... : ... .. . ... ...
ROW B7 : ... .. . ... ... ... : ... .. 8 ... ... ... : ... .. . ... : ... .. C ... : ... .. . ... ... : ... .. 5 ... ... : ... .. 5 ... ... : ... .. . ... ...
ROW B8 : ... .. . ... ... ... : ... .. . ... ... ... : ... .. . ... : ... .. 6 ... : ... .. . ... ... : ... .. . ... ... : ... .. . ... ... : ... .. . ... ...
ROW B9 : A-3 00 A P79 ... ... : B-4 00 4 ... ... ... : ... .. . ... : ... .. 3 ... : ... .. . ... ... : --- .. . P82 ... : --- .. . ... ... : ... .. . ... ...
ROW BA : ... .. . P81 ... ... : ... .. 3 ... ... ... : ... .. . ... : ... .. 2 ... : ... .. . ... ... : ... .. . ... ... : ... .. . ... ... : ... .. . ... ...
ROW BB : A#3 00 A P7B ... ... : ... .. . ... ... ... : ... .. . ... : ... .. 0 ... : ... .. . ... ... : ... .. . ... ... : ... .. . ... ... : ... .. . ... ...
ROW BC : ... .. . P83 ... ... : ... .. 9 ... ... ... : ... .. . ... : 6-# 00 F ... : ... .. . ... ... : G#3 01 A P80 ... : B-3 01 A ... ... : ... .. . ... ...
ROW BD : B-3 00 A P7D ... ... : ... .. 8 ... ... ... : ... .. . ... : ... .. C ... : ... .. . ... ... : ... .. 9 ... ... : ... .. 9 ... ... : ... .. . ... ...
ROW BE : ... .. . P85 ... ... : ... .. . ... ... ... : ... .. . ... : ... .. 6 ... : ... .. . ... ... : ... .. 8 ... ... : ... .. 8 ... ... : ... .. . ... ...
ROW BF : C-4 00 A P81 ... ... : G#4 00 4 ... ... ... : ... .. . ... : ... .. 3 ... : ... .. . ... ... : ... .. 7 ... ... : ... .. 7 ... ... : ... .. . ... ...
ROW C0 : C#4 00 2 P7D ... ... : ... .. 3 ... ... ... : ... .. . ... : ... .. 2 ... : ... .. . ... ... : ... .. . ... ... : ... .. . ... ... : ... .. . ... ...
ROW C1 : ... .. . P85 ... ... : ... .. . ... ... ... : --- .. . ... : ... .. 0 ... : ... .. . ... ... : ... .. 6 ... ... : ... .. 6 ... ... : ... .. . ... ...
ROW C2 : F#4 00 F P80 ... ... : ... .. 9 ... ... ... : G#3 00 . ... : 1-# 00 F ... : ... .. . ... ... : ... .. . ... ... : ... .. . ... ... : ... .. . ... ...
ROW C3 : ... .. E ... ... ... : ... .. 8 ... ... ... : ... .. . ... : ... .. C ... : ... .. . ... ... : ... .. 5 ... ... : ... .. 5 ... ... : ... .. . ... ...
ROW C4 : ... .. D ... ... ... : ... .. . ... ... ... : ... .. . ... : ... .. 6 ... : ... .. . ... ... : ... .. . ... ... : ... .. . ... ... : ... .. . ... ...
ROW C5 : ... .. A ... ... ... : B-4 00 4 ... ... ... : ... .. . ... : ... .. 3 ... : ... .. . ... ... : --- .. . P82 ... : --- .. . ... ... : ... .. . ... ...
ROW C6 : ... .. . ... ... ... : ... .. 3 ... ... ... : ... .. . ... : ... .. 2 ... : ... .. . ... ... : ... .. . ... ... : ... .. . ... ... : ... .. . ... ...
ROW C7 : ... .. . ... ... ... : ... .. . ... ... ... : ... .. . ... : ... .. 0 ... : ... .. . ... ... : ... .. . ... ... : ... .. . ... ... : ... .. . ... ...
ROW C8 : ... .. . ... ... ... : ... .. 9 ... ... ... : ... .. . ... : ... .. F ... : ... .. . ... ... : G#3 01 A P80 ... : B-3 01 A ... ... : ... .. . ... ...
ROW C9 : ... .. . ... ... ... : ... .. 8 ... ... ... : ... .. . ... : ... .. C ... : ... .. . ... ... : ... .. 9 ... ... : ... .. 9 ... ... : ... .. . ... ...
ROW CA : ... .. . ... ... ... : ... .. . ... ... ... : ... .. . ... : ... .. 6 ... : ... .. . ... ... : ... .. 8 ... ... : ... .. 8 ... ... : ... .. . ... ...
ROW CB : G-4 00 A P7F ... ... : G#4 00 4 ... ... ... : ... .. . ... : ... .. 3 ... : ... .. . ... ... : --- .. . P82 ... : --- .. . ... ... : ... .. . ... ...
ROW CC : ... .. . P81 ... ... : ... .. 3 ... ... ... : ... .. . ... : ... .. 2 ... : ... .. . ... ... : ... .. . ... ... : ... .. . ... ... : ... .. . ... ...
ROW CD : ... .. . P7E ... ... : ... .. . ... ... ... : --- .. . ... : ... .. 0 ... : ... .. . ... ... : ... .. . ... ... : ... .. . ... ... : ... .. . ... ...
ROW CE : F#4 00 A P80 ... ... : ... .. 9 ... ... ... : G#2 00 . ... : ... .. F ... : ... .. . ... ... : G#3 01 A P80 ... : B-3 01 A ... ... : ... .. . ... ...
ROW CF : F-4 00 A P82 ... ... : ... .. 8 ... ... ... : ... .. . ... : ... .. C ... : ... .. . ... ... : ... .. 9 ... ... : ... .. 9 ... ... : ... .. . ... ...
ROW D0 : ... .. . P80 ... ... : ... .. . ... ... ... : ... .. . ... : ... .. 6 ... : ... .. . ... ... : ... .. 8 ... ... : ... .. 8 ... ... : ... .. . ... ...
ROW D1 : ... .. . P83 ... ... : B-4 00 4 ... ... ... : ... .. . ... : ... .. 3 ... : ... .. . ... ... : --- .. . P82 ... : --- .. . ... ... : ... .. . ... ...
ROW D2 : F#4 00 2 P80 ... ... : ... .. 3 ... ... ... : ... .. . ... : ... .. 2 ... : ... .. . ... ... : ... .. . ... ... : ... .. . ... ... : ... .. 4 ... ...
ROW D3 : G-4 00 2 P7F ... ... : ... .. . ... ... ... : --- .. . ... : ... .. 0 ... : ... .. . ... ... : ... .. . ... ... : ... .. . ... ... : ... .. . ... ...
ROW D4 : F-4 00 F P80 ... ... : C#5 00 9 ... ... ... : C-5 00 . ... : 6-# 00 F ... : ... .. . ... ... : G#3 01 A P80 ... : C#4 01 A ... ... : C#1 01 F ... ...
ROW D5 : ... .. E ... ... ... : ... .. 8 ... ... ... : D-4 00 . ... : ... .. C ... : ... .. . ... ... : ... .. 9 ... ... : ... .. 9 ... ... : ... .. D ... ...
ROW D6 : ... .. D ... ... ... : ... .. . ... ... ... : G-3 00 . ... : ... .. 6 ... : ... .. . ... ... : ... .. 8 ... ... : ... .. 8 ... ... : ... .. 8 ... ...
ROW D7 : ... .. A ... ... ... : G#4 00 4 ... ... ... : F#3 00 . ... : ... .. 3 ... : ... .. . ... ... : ... .. 7 ... ... : ... .. 7 ... ... : ... .. . ... ...
ROW D8 : ... .. 2 ... ... ... : ... .. 3 ... ... ... : C#3 00 . ... : ... .. 2 ... : ... .. . ... ... : ... .. . ... ... : ... .. . ... ... : ... .. . ... ...
ROW D9 : ... .. . ... ... ... : ... .. . ... ... ... : --- .. . ... : ... .. 0 ... : ... .. . ... ... : ... .. 6 ... ... : ... .. 6 ... ... : ... .. . ... ...
ROW DA : D#4 00 F ... ... ... : ... .. 9 ... ... ... : C#3 00 . ... : 1-# 00 F ... : ... .. . ... ... : ... .. . ... ... : ... .. . ... ... : ... .. . ... ...
ROW DB : ... .. E ... ... ... : ... .. 8 ... ... ... : ... .. . ... : ... .. C ... : ... .. . ... ... : ... .. 5 ... ... : ... .. 5 ... ... : ... .. . ... ...
ROW DC : ... .. D ... ... ... : ... .. . ... ... ... : ... .. . ... : ... .. 6 ... : ... .. . ... ... : ... .. . ... ... : ... .. . ... ... : ... .. . ... ...
ROW DD : ... .. A ... ... ... : C#5 00 4 ... ... ... : ... .. . ... : ... .. 3 ... : ... .. . ... ... : --- .. . P82 ... : --- .. . ... ... : ... .. . ... ...
ROW DE : ... .. 2 ... ... ... : ... .. 3 ... ... ... : ... .. . ... : ... .. 2 ... : ... .. . ... ... : ... .. . ... ... : ... .. . ... ... : ... .. . ... ...
ROW DF : ... .. . ... ... ... : ... .. . ... ... ... : --- .. . ... : ... .. 0 ... : ... .. . ... ... : ... .. . ... ... : ... .. . ... ... : ... .. . ... ...
ROW E0 : F-4 00 F ... ... ... : ... .. 9 ... ... ... : B-3 00 . ... : ... .. F ... : ... .. . ... ... : G#3 01 A P80 ... : C#4 01 A ... ... : ... .. . ... ...
ROW E1 : ... .. E ... ... ... : ... .. 8 ... ... ... : ... .. . ... : ... .. C ... : ... .. . ... ... : ... .. 9 ... ... : ... .. 9 ... ... : ... .. . ... ...
ROW E2 : ... .. D ... ... ... : ... .. . ... ... ... : ... .. . ... : ... .. 6 ... : ... .. . ... ... : ... .. 8 ... ... : ... .. 8 ... ... : ... .. . ... ...
ROW E3 : ... .. A ... ... ... : G#4 00 4 ... ... ... : ... .. . ... : ... .. 3 ... : ... .. . ... ... : ... .. 7 ... ... : ... .. 7 ... ... : ... .. . ... ...
ROW E4 : ... .. . ... ... ... : ... .. 3 ... ... ... : ... .. . ... : ... .. 2 ... : ... .. . ... ... : ... .. . ... ... : ... .. . ... ... : ... .. . ... ...
ROW E5 : ... .. . ... ... ... : ... .. . ... ... ... : --- .. . ... : ... .. 0 ... : ... .. . ... ... : ... .. 6 ... ... : ... .. 6 ... ... : ... .. . ... ...
ROW E6 : ... .. . ... ... ... : ... .. 9 ... ... ... : C#4 00 . ... : ... .. F ... : ... .. . ... ... : --- .. . P82 ... : --- .. . ... ... : ... .. . ... ...
ROW E7 : ... .. . ... ... ... : ... .. 8 ... ... ... : ... .. . ... : ... .. C ... : ... .. . ... ... : ... .. . ... ... : ... .. . ... ... : ... .. . ... ...
ROW E8 : ... .. . ... ... ... : ... .. . ... ... ... : ... .. . ... : ... .. 6 ... : ... .. . ... ... : ... .. . ... ... : ... .. . ... ... : ... .. . ... ...
ROW E9 : ... .. . ... ... ... : C#5 00 4 ... ... ... : ... .. . ... : ... .. 3 ... : ... .. . ... ... : ... .. . ... ... : ... .. . ... ... : ... .. . ... ...
ROW EA : ... .. . ... ... ... : ... .. 3 ... ... ... : ... .. . ... : ... .. 2 ... : ... .. . ... ... : ... .. . ... ... : ... .. . ... ... : ... .. 4 ... ...
ROW EB : ... .. . ... ... ... : ... .. . ... ... ... : --- .. . ... : ... .. 0 ... : ... .. . ... ... : ... .. . ... ... : ... .. . ... ... : ... .. . ... ...
ROW EC : ... .. . P83 ... ... : ... .. 9 ... ... ... : F-4 00 . ... : 6-# 00 F ... : ... .. . ... ... : G#3 01 A P80 ... : C#4 01 A ... ... : ... .. F ... ...
ROW ED : ... .. . P84 ... ... : ... .. 8 ... ... ... : ... .. . ... : ... .. C ... : ... .. . ... ... : ... .. 9 ... ... : ... .. 9 ... ... : ... .. D ... ...
ROW EE : ... .. . P83 ... ... : ... .. . ... ... ... : ... .. . ... : ... .. 6 ... : ... .. . ... ... : ... .. 8 ... ... : ... .. 8 ... ... : ... .. 8 ... ...
ROW EF : ... .. . P80 ... ... : G#4 00 4 ... ... ... : ... .. . ... : ... .. 3 ... : ... .. . ... ... : --- .. . P82 ... : --- .. . ... ... : ... .. . ... ...
ROW F0 : ... .. . P7D ... ... : ... .. 3 ... ... ... : ... .. . ... : ... .. 2 ... : ... .. . ... ... : ... .. . ... ... : ... .. . ... ... : ... .. 4 ... ...
ROW F1 : ... .. . P7C ... ... : ... .. . ... ... ... : --- .. . ... : ... .. 0 ... : ... .. . ... ... : ... .. . ... ... : ... .. . ... ... : ... .. . ... ...
ROW F2 : ... .. . P7D ... ... : ... .. 9 ... ... ... : F#4 00 . ... : 1-# 00 F ... : ... .. . ... ... : G#3 01 A P80 ... : C#4 01 A ... ... : D#1 01 F ... ...
ROW F3 : ... .. . P80 ... ... : ... .. 8 ... ... ... : ... .. . ... : ... .. C ... : ... .. . ... ... : ... .. 9 ... ... : ... .. 9 ... ... : ... .. D ... ...
ROW F4 : ... .. . P83 ... ... : ... .. . ... ... ... : ... .. . ... : ... .. 6 ... : ... .. . ... ... : ... .. 8 ... ... : ... .. 8 ... ... : ... .. 8 ... ...
ROW F5 : ... .. . P84 ... ... : C#5 00 4 ... ... ... : ... .. . ... : ... .. 3 ... : ... .. . ... ... : --- .. . P82 ... : --- .. . ... ... : ... .. . ... ...
ROW F6 : ... .. 2 P83 ... ... : ... .. 3 ... ... ... : ... .. . ... : ... .. 2 ... : ... .. . ... ... : ... .. . ... ... : ... .. . ... ... : ... .. 4 ... ...
ROW F7 : ... .. . P80 ... ... : ... .. . ... ... ... : --- .. . ... : ... .. 0 ... : ... .. . ... ... : ... .. . ... ... : ... .. . ... ... : ... .. . ... ...
ROW F8 : E-4 00 F ... ... ... : B-4 00 9 ... ... ... : G-6 00 . ... : 6-# 00 F ... : ... .. . ... ... : G#3 01 A P80 ... : E-4 01 A ... ... : E-1 01 F ... ...
ROW F9 : ... .. E ... ... ... : ... .. 8 ... ... ... : A-5 00 . ... : ... .. C ... : ... .. . ... ... : ... .. 9 ... ... : ... .. 9 ... ... : ... .. D ... ...
ROW FA : ... .. D ... ... ... : ... .. . ... ... ... : D-5 00 . ... : ... .. 6 ... : ... .. . ... ... : ... .. 8 ... ... : ... .. 8 ... ... : ... .. 8 ... ...
ROW FB : ... .. A ... ... ... : G#4 00 4 ... ... ... : C#5 00 . ... : ... .. 3 ... : ... .. . ... ... : --- .. . P82 ... : --- .. . ... ... : ... .. . ... ...
ROW FC : ... .. . ... ... ... : ... .. 3 ... ... ... : G#4 00 . ... : ... .. 2 ... : ... .. . ... ... : ... .. . ... ... : ... .. . ... ... : ... .. . ... ...
ROW FD : ... .. . ... ... ... : ... .. . ... ... ... : ... .. . ... : ... .. 0 ... : ... .. . ... ... : ... .. . ... ... : ... .. . ... ... : ... .. . ... ...
ROW FE : ... .. . ... ... ... : E-4 00 9 ... ... ... : ... .. . ... : 1-# 00 F ... : ... .. . ... ... : G#3 01 A P80 ... : E-4 01 A ... ... : ... .. . ... ...
ROW FF : ... .. . ... ... ... : ... .. 8 ... ... ... : ... .. . ... : ... .. C ... : ... .. . ... ... : ... .. 9 ... ... : ... .. 9 ... ... : ... .. . ... ...

PATTERN 02
ROW 00 : ... .. . ... ... ... : ... .. . ... ... ... : ... .. . ... : ... .. 6 ... : ... .. . ... ... : ... .. 8 ... ... : ... .. 8 ... ... : ... .. . ... ...
ROW 01 : ... .. . ... ... ... : B-4 00 4 ... ... ... : ... .. . ... : ... .. 3 ... : ... .. . ... ... : --- .. . P82 ... : --- .. . ... ... : ... .. . ... ...
ROW 02 : ... .. . ... ... ... : ... .. 3 ... ... ... : ... .. . ... : ... .. 2 ... : ... .. . ... ... : ... .. . ... ... : ... .. . ... ... : ... .. . ... ...
ROW 03 : ... .. . ... ... ... : ... .. . ... ... ... : ... .. . ... : ... .. 0 ... : ... .. . ... ... : ... .. . ... ... : ... .. . ... ... : ... .. . ... ...
ROW 04 : ... .. . ... ... ... : G#3 00 9 ... ... ... : ... .. . ... : ... .. F ... : ... .. . ... ... : G#3 01 A P80 ... : E-4 01 A ... ... : ... .. . ... ...
ROW 05 : ... .. . ... ... ... : ... .. 8 ... ... ... : ... .. . ... : ... .. C ... : ... .. . ... ... : ... .. 9 ... ... : ... .. 9 ... ... : ... .. . ... ...
ROW 06 : ... .. . ... ... ... : ... .. . ... ... ... : ... .. . ... : ... .. 6 ... : ... .. . ... ... : ... .. 8 ... ... : ... .. 8 ... ... : ... .. . ... ...
ROW 07 : ... .. . ... ... ... : ... .. 7 ... ... ... : ... .. . ... : ... .. 3 ... : ... .. . ... ... : --- .. . P82 ... : --- .. . ... ... : ... .. . ... ...
ROW 08 : ... .. 2 ... ... ... : ... .. 5 ... ... ... : ... .. . ... : ... .. 2 ... : ... .. . ... ... : ... .. . ... ... : ... .. . ... ... : ... .. 4 ... ...
ROW 09 : ... .. . ... ... ... : ... .. . ... ... ... : --- .. . ... : ... .. 0 ... : ... .. . ... ... : ... .. . ... ... : ... .. . ... ... : ... .. . ... ...
ROW 0A : F#4 00 F ... ... ... : C#5 00 9 ... ... ... : A-6 00 . ... : A-# 00 F ... : ... .. . ... ... : F#3 01 A P80 ... : C#4 01 A ... ... : F#1 01 F ... ...
ROW 0B : ... .. E ... ... ... : ... .. 8 ... ... ... : B-5 00 . ... : ... .. C ... : ... .. . ... ... : ... .. 9 ... ... : ... .. 9 ... ... : ... .. D ... ...
ROW 0C : ... .. D ... ... ... : ... .. . ... ... ... : E-5 00 . ... : ... .. 6 ... : ... .. . ... ... : ... .. 8 ... ... : ... .. 8 ... ... : ... .. 8 ... ...
ROW 0D : ... .. A ... ... ... : ... .. 7 ... ... ... : D#5 00 . ... : ... .. 3 ... : ... .. . ... ... : ... .. 7 ... ... : ... .. 7 ... ... : ... .. . ... ...
ROW 0E : ... .. . ... ... ... : ... .. 5 ... ... ... : A#4 00 . ... : ... .. 2 ... : ... .. . ... ... : ... .. . ... ... : ... .. . ... ... : ... .. . ... ...
ROW 0F : ... .. . ... ... ... : ... .. . ... ... ... : ... .. . ... : ... .. 0 ... : ... .. . ... ... : ... .. 6 ... ... : ... .. 6 ... ... : ... .. . ... ...
ROW 10 : ... .. . ... ... ... : F#4 00 9 ... ... ... : ... .. . ... : 1-# 00 F ... : ... .. . ... ... : ... .. . ... ... : ... .. . ... ... : ... .. . ... ...
ROW 11 : ... .. . ... ... ... : ... .. 8 ... ... ... : ... .. . ... : ... .. C ... : ... .. . ... ... : ... .. 5 ... ... : ... .. 5 ... ... : ... .. . ... ...
ROW 12 : ... .. . ... ... ... : ... .. . ... ... ... : ... .. . ... : ... .. 6 ... : ... .. . ... ... : ... .. . ... ... : ... .. . ... ... : ... .. . ... ...
ROW 13 : ... .. . ... ... ... : ... .. 7 ... ... ... : ... .. . ... : ... .. 3 ... : ... .. . ... ... : ... .. . ... ... : ... .. . ... ... : ... .. . ... ...
ROW 14 : ... .. . ... ... ... : ... .. 5 ... ... ... : ... .. . ... : ... .. 2 ... : ... .. . ... ... : ... .. . ... ... : ... .. . ... ... : ... .. . ... ...
ROW 15 : ... .. . ... ... ... : ... .. . ... ... ... : ... .. . ... : ... .. 0 ... : ... .. . ... ... : ... .. . ... ... : ... .. . ... ... : ... .. . ... ...
ROW 16 : ... .. . ... ... ... : A#3 00 9 ... ... ... : ... .. . ... : ... .. F ... : ... .. . ... ... : ... .. . ... ... : ... .. . ... ... : ... .. . ... ...
ROW 17 : ... .. . ... ... ... : ... .. 8 ... ... ... : ... .. . ... : ... .. C ... : ... .. . ... ... : ... .. . ... ... : ... .. . ... ... : ... .. . ... ...
ROW 18 : ... .. . ... ... ... : ... .. . ... ... ... : ... .. . ... : ... .. 6 ... : ... .. . ... ... : ... .. . ... ... : ... .. . ... ... : ... .. . ... ...
ROW 19 : ... .. . ... ... ... : ... .. 7 ... ... ... : ... .. . ... : ... .. 3 ... : ... .. . ... ... : ... .. . ... ... : ... .. . ... ... : ... .. . ... ...
ROW 1A : ... .. 2 ... ... ... : ... .. 5 ... ... ... : ... .. . ... : ... .. 2 ... : ... .. . ... ... : ... .. . ... ... : ... .. . ... ... : ... .. 4 ... ...
ROW 1B : ... .. . ... ... ... : ... .. . ... ... ... : --- .. . ... : ... .. 0 ... : ... .. . ... ... : ... .. . ... ... : ... .. . ... ... : ... .. . ... ...
ROW 1C : D#4 00 F ... ... ... : D#6 00 9 ... ... ... : A#6 00 . ... : 6-# 00 F ... : ... .. . ... ... : D#3 01 A ... ... : B-3 01 A ... ... : B-0 01 F ... ...
ROW 1D : ... .. E ... ... ... : ... .. 8 ... ... ... : C-6 00 . ... : ... .. C ... : ... .. . ... ... : ... .. 9 ... ... : ... .. 9 ... ... : ... .. D ... ...
ROW 1E : ... .. D ... ... ... : ... .. . ... ... ... : F-5 00 . ... : ... .. 6 ... : ... .. . ... ... : ... .. 8 ... ... : ... .. 8 ... ... : ... .. 8 ... ...
ROW 1F : ... .. A ... ... ... : B-5 00 9 ... ... ... : E-5 00 . ... : ... .. 3 ... : ... .. . ... ... : --- .. . P83 ... : --- .. . ... ... : ... .. . ... ...
ROW 20 : ... .. . ... ... ... : ... .. 8 ... ... ... : B-4 00 . ... : ... .. 2 ... : ... .. . ... ... : ... .. . ... ... : ... .. . ... ... : ... .. . ... ...
ROW 21 : ... .. . ... ... ... : ... .. . ... ... ... : --- .. . ... : ... .. 0 ... : ... .. . ... ... : ... .. . ... ... : ... .. . ... ... : ... .. . ... ...
ROW 22 : ... .. . ... ... ... : F#5 00 9 ... ... ... : F#4 00 . ... : ... .. F ... : ... .. . ... ... : D#3 01 A P80 ... : C#4 01 A ... ... : ... .. . ... ...
ROW 23 : ... .. . ... ... ... : ... .. 8 ... ... ... : ... .. . ... : ... .. C ... : ... .. . ... ... : ... .. 9 ... ... : ... .. 9 ... ... : ... .. . ... ...
ROW 24 : ... .. . ... ... ... : ... .. . ... ... ... : ... .. . ... : ... .. 6 ... : ... .. . ... ... : ... .. 8 ... ... : ... .. 8 ... ... : ... .. . ... ...
ROW 25 : ... .. . ... ... ... : D#5 00 9 ... ... ... : ... .. . ... : ... .. 3 ... : ... .. . ... ... : --- .. . P83 ... : --- .. . ... ... : ... .. . ... ...
ROW 26 : ... .. . ... ... ... : ... .. 8 ... ... ... : ... .. . ... : ... .. 2 ... : ... .. . ... ... : ... .. . ... ... : ... .. . ... ... : ... .. . ... ...
ROW 27 : ... .. . ... ... ... : ... .. . ... ... ... : --- .. . ... : ... .. 0 ... : ... .. . ... ... : ... .. . ... ... : ... .. . ... ... : ... .. . ... ...
ROW 28 : ... .. . ... ... ... : B-4 00 9 ... ... ... : D#4 00 . ... : 5-# 00 F ... : ... .. . ... ... : D#3 01 A P80 ... : B-3 01 A ... ... : ... .. . ... ...
ROW 29 : ... .. . ... ... ... : ... .. 8 ... ... ... : ... .. . ... : ... .. C ... : ... .. . ... ... : ... .. 9 ... ... : ... .. 9 ... ... : ... .. . ... ...
ROW 2A : ... .. . ... ... ... : ... .. . ... ... ... : ... .. . ... : ... .. 6 ... : ... .. . ... ... : ... .. 8 ... ... : ... .. 8 ... ... : ... .. . ... ...
ROW 2B : ... .. . ... ... ... : F#4 00 9 ... ... ... : ... .. . ... : ... .. 3 ... : ... .. . ... ... : --- .. . P83 ... : --- .. . ... ... : ... .. . ... ...
ROW 2C : ... .. 2 ... ... ... : ... .. 8 ... ... ... : ... .. . ... : ... .. 2 ... : ... .. . ... ... : ... .. . ... ... : ... .. . ... ... : ... .. 4 ... ...
ROW 2D : ... .. . ... ... ... : ... .. . ... ... ... : --- .. . ... : ... .. 0 ... : ... .. . ... ... : ... .. . ... ... : ... .. . ... ... : ... .. . ... ...
ROW 2E : C#4 00 F ... ... ... : C#6 00 9 ... ... ... : G#6 00 . ... : ... .. F ... : ... .. . ... ... : C#3 01 A P80 ... : A-3 01 A ... ... : F#1 01 F ... ...
ROW 2F : ... .. E ... ... ... : ... .. 8 ... ... ... : A#5 00 . ... : ... .. C ... : ... .. . ... ... : ... .. 9 ... ... : ... .. 9 ... ... : ... .. D ... ...
ROW 30 : ... .. D ... ... ... : ... .. . ... ... ... : D#5 00 . ... : ... .. 6 ... : ... .. . ... ... : ... .. 8 ... ... : ... .. 8 ... ... : ... .. 8 ... ...
ROW 31 : ... .. A ... ... ... : A-5 00 9 ... ... ... : D-5 00 . ... : ... .. 3 ... : ... .. . ... ... : ... .. 7 ... ... : ... .. 7 ... ... : ... .. . ... ...
ROW 32 : ... .. . ... ... ... : ... .. 8 ... ... ... : A-4 00 . ... : ... .. 2 ... : ... .. . ... ... : ... .. . ... ... : ... .. . ... ... : ... .. 4 ... ...
ROW 33 : ... .. . ... ... ... : ... .. . ... ... ... : --- .. . ... : ... .. 0 ... : ... .. . ... ... : ... .. 6 ... ... : ... .. 6 ... ... : ... .. . ... ...
ROW 34 : ... .. . ... ... ... : F#5 00 9 ... ... ... : F#4 00 . ... : 3-# 00 F ... : ... .. . ... ... : ... .. . ... ... : ... .. . ... ... : G#1 01 F ... ...
ROW 35 : ... .. . ... ... ... : ... .. 8 ... ... ... : ... .. . ... : ... .. C ... : ... .. . ... ... : ... .. 5 ... ... : ... .. 5 ... ... : ... .. D ... ...
ROW 36 : ... .. . ... ... ... : ... .. . ... ... ... : ... .. . ... : ... .. 6 ... : ... .. . ... ... : ... .. . ... ... : ... .. . ... ... : ... .. 8 ... ...
ROW 37 : ... .. . ... ... ... : C#5 00 9 ... ... ... : ... .. . ... : ... .. 3 ... : ... .. . ... ... : ... .. . ... ... : ... .. . ... ... : ... .. . ... ...
ROW 38 : ... .. . ... ... ... : ... .. 8 ... ... ... : ... .. . ... : ... .. 2 ... : ... .. . ... ... : ... .. . ... ... : ... .. . ... ... : ... .. 4 ... ...
ROW 39 : ... .. . ... ... ... : ... .. . ... ... ... : --- .. . ... : ... .. 0 ... : ... .. . ... ... : ... .. . ... ... : ... .. . ... ... : ... .. . ... ...
ROW 3A : ... .. . ... ... ... : A-4 00 9 ... ... ... : C#4 00 . ... : ... .. F ... : ... .. . ... ... : ... .. . ... ... : ... .. . ... ... : A-1 01 F ... ...
ROW 3B : ... .. . ... ... ... : ... .. 8 ... ... ... : ... .. . ... : ... .. C ... : ... .. . ... ... : ... .. . ... ... : ... .. . ... ... : ... .. D ... ...
ROW 3C : ... .. . ... ... ... : ... .. . ... ... ... : ... .. . ... : ... .. 6 ... : ... .. . ... ... : ... .. . ... ... : ... .. . ... ... : ... .. 8 ... ...
ROW 3D : ... .. . ... ... ... : F#4 00 9 ... ... ... : ... .. . ... : ... .. 3 ... : ... .. . ... ... : ... .. . ... ... : ... .. . ... ... : ... .. . ... ...
ROW 3E : ... .. 2 ... ... ... : ... .. 8 ... ... ... : ... .. . ... : ... .. 2 ... : ... .. . ... ... : ... .. . ... ... : ... .. . ... ... : ... .. 4 ... ...
ROW 3F : ... .. . ... ... ... : ... .. . ... ... ... : --- .. . ... : ... .. 0 ... : ... .. . ... ... : ... .. . ... ... : ... .. . ... ... : ... .. . ... ...
ROW 40 : D#4 00 F ... ... ... : B-4 00 8 ... ... ... : G-4 00 . ... : 1-# 00 F ... : ... .. . ... ... : G#2 01 A ... ... : D#3 01 A ... ... : G#1 01 F ... ...
ROW 41 : ... .. E ... ... ... : ... .. 7 ... ... ... : A-3 00 . ... : ... .. C ... : ... .. . ... ... : ... .. 9 ... ... : ... .. 9 ... ... : ... .. D ... ...
ROW 42 : ... .. D ... ... ... : ... .. . ... ... ... : D-3 00 . ... : ... .. 6 ... : ... .. . ... ... : ... .. 8 ... ... : ... .. 8 ... ... : ... .. 8 ... ...
ROW 43 : ... .. A ... ... ... : ... .. 6 ... ... ... : C#3 00 . ... : ... .. 3 ... : ... .. . ... ... : ... .. 7 ... ... : ... .. 7 ... ... : ... .. . ... ...
ROW 44 : ... .. . ... ... ... : ... .. 5 ... ... ... : G#2 00 . ... : ... .. 2 ... : ... .. . ... ... : ... .. . ... ... : ... .. . ... ... : ... .. . ... ...
ROW 45 : ... .. . ... ... ... : ... .. 4 ... ... ... : --- .. . ... : ... .. 0 ... : ... .. . ... ... : ... .. 6 ... ... : ... .. 6 ... ... : ... .. . ... ...
ROW 46 : ... .. . ... ... ... : G#4 00 9 ... ... ... : G#2 00 . ... : D-# 00 F ... : ... .. . ... ... : ... .. . ... ... : ... .. . ... ... : ... .. . ... ...
ROW 47 : ... .. . ... ... ... : ... .. 8 ... ... ... : ... .. . ... : ... .. C ... : ... .. . ... ... : ... .. 5 ... ... : ... .. 5 ... ... : ... .. . ... ...
ROW 48 : ... .. . ... ... ... : ... .. . ... ... ... : ... .. . ... : ... .. 6 ... : ... .. . ... ... : ... .. . ... ... : ... .. . ... ... : ... .. . ... ...
ROW 49 : ... .. . ... ... ... : B-4 00 5 ... ... ... : ... .. . ... : ... .. 3 ... : ... .. . ... ... : --- .. . ... ... : --- .. . P83 ... : ... .. . ... ...
ROW 4A : ... .. . ... ... ... : ... .. 4 ... ... ... : ... .. . ... : ... .. 2 ... : ... .. . ... ... : ... .. . ... ... : ... .. . ... ... : ... .. . ... ...
ROW 4B : ... .. . ... ... ... : ... .. . ... ... ... : --- .. . ... : ... .. 0 ... : ... .. . ... ... : ... .. . ... ... : ... .. . ... ... : ... .. . ... ...
ROW 4C : ... .. . ... ... ... : ... .. 9 ... ... ... : F#3 00 . ... : 6-# 00 F ... : ... .. . ... ... : G#2 01 A ... ... : D#3 01 A P80 ... : ... .. . ... ...
ROW 4D : ... .. . ... ... ... : ... .. 8 ... ... ... : ... .. . ... : ... .. C ... : ... .. . ... ... : ... .. 9 ... ... : ... .. 9 ... ... : ... .. . ... ...
ROW 4E : ... .. . ... ... ... : ... .. . ... ... ... : ... .. . ... : ... .. 6 ... : ... .. . ... ... : ... .. 8 ... ... : ... .. 8 ... ... : ... .. . ... ...
ROW 4F : ... .. . ... ... ... : G#4 00 5 ... ... ... : ... .. . ... : ... .. 3 ... : ... .. . ... ... : ... .. 7 ... ... : ... .. 7 ... ... : ... .. . ... ...
ROW 50 : ... .. 2 ... ... ... : ... .. 4 ... ... ... : ... .. . ... : ... .. 2 ... : ... .. . ... ... : ... .. . ... ... : ... .. . ... ... : ... .. . ... ...
ROW 51 : ... .. . ... ... ... : ... .. . ... ... ... : --- .. . ... : ... .. 0 ... : ... .. . ... ... : ... .. 6 ... ... : ... .. 6 ... ... : ... .. . ... ...
ROW 52 : F#4 00 F ... ... ... : ... .. 9 ... ... ... : G#2 00 . ... : D-# 00 F ... : ... .. . ... ... : ... .. . ... ... : ... .. . ... ... : ... .. F ... ...
ROW 53 : ... .. E ... ... ... : ... .. 8 ... ... ... : ... .. . ... : ... .. C ... : ... .. . ... ... : ... .. 5 ... ... : ... .. 5 ... ... : ... .. D ... ...
ROW 54 : ... .. D ... ... ... : ... .. . ... ... ... : ... .. . ... : ... .. 6 ... : ... .. . ... ... : ... .. . ... ... : ... .. . ... ... : ... .. 8 ... ...
ROW 55 : ... .. A ... ... ... : B-4 00 5 ... ... ... : ... .. . ... : ... .. 3 ... : ... .. . ... ... : --- .. . ... ... : --- .. . P83 ... : ... .. . ... ...
ROW 56 : ... .. . ... ... ... : ... .. 4 ... ... ... : ... .. . ... : ... .. 2 ... : ... .. . ... ... : ... .. . ... ... : ... .. . ... ... : ... .. 4 ... ...
ROW 57 : ... .. . ... ... ... : ... .. . ... ... ... : --- .. . ... : ... .. 0 ... : ... .. . ... ... : ... .. . ... ... : ... .. . ... ... : ... .. . ... ...
ROW 58 : ... .. . ... ... ... : ... .. 9 ... ... ... : F#3 00 . ... : 1-# 00 F ... : ... .. . ... ... : G#2 01 A ... ... : D#3 01 A P80 ... : A#1 01 F ... ...
ROW 59 : ... .. . ... ... ... : ... .. 8 ... ... ... : ... .. . ... : ... .. C ... : ... .. . ... ... : ... .. 9 ... ... : ... .. 9 ... ... : ... .. D ... ...
ROW 5A : ... .. . ... ... ... : ... .. . ... ... ... : ... .. . ... : ... .. 6 ... : ... .. . ... ... : ... .. 8 ... ... : ... .. 8 ... ... : ... .. 8 ... ...
ROW 5B : G-4 00 A P7F ... ... : G#4 00 5 ... ... ... : ... .. . ... : ... .. 3 ... : ... .. . ... ... : --- .. . ... ... : --- .. . P83 ... : ... .. . ... ...
ROW 5C : ... .. . P81 ... ... : ... .. 4 ... ... ... : ... .. . ... : ... .. 2 ... : ... .. . ... ... : ... .. . ... ... : ... .. . ... ... : ... .. 4 ... ...
ROW 5D : ... .. . P7E ... ... : ... .. . ... ... ... : --- .. . ... : ... .. 0 ... : ... .. . ... ... : ... .. . ... ... : ... .. . ... ... : ... .. . ... ...
ROW 5E : F#4 00 A P80 ... ... : ... .. 9 ... ... ... : G#3 00 . ... : ... .. F ... : ... .. . ... ... : G#2 01 A ... ... : D#3 01 A P80 ... : B-1 01 F ... ...
ROW 5F : F-4 00 A P82 ... ... : ... .. 8 ... ... ... : ... .. . ... : ... .. C ... : ... .. . ... ... : ... .. 9 ... ... : ... .. 9 ... ... : ... .. D ... ...
ROW 60 : ... .. . P80 ... ... : ... .. . ... ... ... : ... .. . ... : ... .. 6 ... : ... .. . ... ... : ... .. 8 ... ... : ... .. 8 ... ... : ... .. 8 ... ...
ROW 61 : ... .. . P83 ... ... : B-4 00 5 ... ... ... : ... .. . ... : ... .. 3 ... : ... .. . ... ... : --- .. . ... ... : --- .. . P83 ... : ... .. . ... ...
ROW 62 : F#4 00 A P80 ... ... : ... .. 4 ... ... ... : ... .. . ... : ... .. 2 ... : ... .. . ... ... : ... .. . ... ... : ... .. . ... ... : ... .. 4 ... ...
ROW 63 : G-4 00 A P7F ... ... : ... .. . ... ... ... : --- .. . ... : ... .. 0 ... : ... .. . ... ... : ... .. . ... ... : ... .. . ... ... : ... .. . ... ...
ROW 64 : F-4 00 F P80 ... ... : C#5 00 9 ... ... ... : C-5 00 . ... : 6-# 00 F ... : ... .. . ... ... : G#2 01 A ... ... : F-3 01 A P80 ... : C#2 01 F ... ...
ROW 65 : ... .. E ... ... ... : ... .. 8 ... ... ... : D-4 00 . ... : ... .. C ... : ... .. . ... ... : ... .. 9 ... ... : ... .. 9 ... ... : ... .. D ... ...
ROW 66 : ... .. D ... ... ... : ... .. . ... ... ... : G-3 00 . ... : ... .. 6 ... : ... .. . ... ... : ... .. 8 ... ... : ... .. 8 ... ... : ... .. 8 ... ...
ROW 67 : ... .. A ... ... ... : G#4 00 5 ... ... ... : F#3 00 . ... : ... .. 3 ... : ... .. . ... ... : ... .. 7 ... ... : ... .. 7 ... ... : ... .. . ... ...
ROW 68 : ... .. 2 ... ... ... : ... .. 4 ... ... ... : C#3 00 . ... : ... .. 2 ... : ... .. . ... ... : ... .. . ... ... : ... .. . ... ... : ... .. . ... ...
ROW 69 : ... .. . ... ... ... : ... .. . ... ... ... : --- .. . ... : ... .. 0 ... : ... .. . ... ... : ... .. 6 ... ... : ... .. 6 ... ... : ... .. . ... ...
ROW 6A : D#4 00 F ... ... ... : ... .. 9 ... ... ... : C#3 00 . ... : D-# 00 F ... : ... .. . ... ... : ... .. . ... ... : ... .. . ... ... : ... .. . ... ...
ROW 6B : ... .. E ... ... ... : ... .. 8 ... ... ... : ... .. . ... : ... .. C ... : ... .. . ... ... : ... .. 5 ... ... : ... .. 5 ... ... : ... .. . ... ...
ROW 6C : ... .. D ... ... ... : ... .. . ... ... ... : ... .. . ... : ... .. 6 ... : ... .. . ... ... : ... .. . ... ... : ... .. . ... ... : ... .. . ... ...
ROW 6D : ... .. A ... ... ... : C#5 00 5 ... ... ... : ... .. . ... : ... .. 3 ... : ... .. . ... ... : --- .. . ... ... : --- .. . ... ... : ... .. . ... ...
ROW 6E : ... .. 2 ... ... ... : ... .. 4 ... ... ... : ... .. . ... : ... .. 2 ... : ... .. . ... ... : ... .. . ... ... : ... .. . ... ... : ... .. . ... ...
ROW 6F : ... .. . ... ... ... : ... .. . ... ... ... : --- .. . ... : ... .. 0 ... : ... .. . ... ... : ... .. . ... ... : ... .. . ... ... : ... .. . ... ...
ROW 70 : C#4 00 F ... ... ... : ... .. 9 ... ... ... : B-3 00 . ... : 1-# 00 F ... : ... .. . ... ... : G#2 01 A ... ... : F-3 01 A ... ... : ... .. . ... ...
ROW 71 : ... .. E ... ... ... : ... .. 8 ... ... ... : ... .. . ... : ... .. C ... : ... .. . ... ... : ... .. 9 ... ... : ... .. 9 ... ... : ... .. . ... ...
ROW 72 : ... .. D ... ... ... : ... .. . ... ... ... : ... .. . ... : ... .. 6 ... : ... .. . ... ... : ... .. 8 ... ... : ... .. 8 ... ... : ... .. . ... ...
ROW 73 : ... .. A ... ... ... : G#4 00 5 ... ... ... : ... .. . ... : ... .. 3 ... : ... .. . ... ... : ... .. 7 ... ... : ... .. 7 ... ... : ... .. . ... ...
ROW 74 : ... .. . ... ... ... : ... .. 4 ... ... ... : ... .. . ... : ... .. 2 ... : ... .. . ... ... : ... .. . ... ... : ... .. . ... ... : ... .. 4 ... ...
ROW 75 : ... .. . ... ... ... : ... .. . ... ... ... : --- .. . ... : ... .. 0 ... : ... .. . ... ... : ... .. 6 ... ... : ... .. 6 ... ... : ... .. . ... ...
ROW 76 : ... .. . ... ... ... : ... .. 9 ... ... ... : C#4 00 . ... : D-# 00 F ... : ... .. . ... ... : --- .. . ... ... : --- .. . ... ... : C#1 01 F ... ...
ROW 77 : ... .. . ... ... ... : ... .. 8 ... ... ... : ... .. . ... : ... .. C ... : ... .. . ... ... : ... .. . ... ... : ... .. . ... ... : ... .. D ... ...
ROW 78 : ... .. . ... ... ... : ... .. . ... ... ... : ... .. . ... : ... .. 6 ... : ... .. . ... ... : ... .. . ... ... : ... .. . ... ... : ... .. 8 ... ...
ROW 79 : ... .. . ... ... ... : C#5 00 5 ... ... ... : ... .. . ... : ... .. 3 ... : ... .. . ... ... : ... .. . ... ... : ... .. . ... ... : ... .. . ... ...
ROW 7A : ... .. . ... ... ... : ... .. 4 ... ... ... : ... .. . ... : ... .. 2 ... : ... .. . ... ... : ... .. . ... ... : ... .. . ... ... : ... .. . ... ...
ROW 7B : ... .. . ... ... ... : ... .. . ... ... ... : --- .. . ... : ... .. 0 ... : ... .. . ... ... : ... .. . ... ... : ... .. . ... ... : ... .. . ... ...
ROW 7C : ... .. . P83 ... ... : ... .. 9 ... ... ... : C#3 00 . ... : 6-# 00 F ... : ... .. . ... ... : G#2 01 A ... ... : F-3 01 A ... ... : ... .. . ... ...
ROW 7D : ... .. . P84 ... ... : ... .. 8 ... ... ... : ... .. . ... : ... .. C ... : ... .. . ... ... : ... .. 9 ... ... : ... .. 9 ... ... : ... .. . ... ...
ROW 7E : ... .. . P83 ... ... : ... .. . ... ... ... : ... .. . ... : ... .. 6 ... : ... .. . ... ... : ... .. 8 ... ... : ... .. 8 ... ... : ... .. . ... ...
ROW 7F : ... .. . P80 ... ... : G#4 00 5 ... ... ... : ... .. . ... : ... .. 3 ... : ... .. . ... ... : --- .. . ... ... : --- .. . ... ... : ... .. . ... ...
ROW 80 : ... .. . P7D ... ... : ... .. 4 ... ... ... : ... .. . ... : ... .. 2 ... : ... .. . ... ... : ... .. . ... ... : ... .. . ... ... : ... .. . ... ...
ROW 81 : ... .. . P7C ... ... : ... .. . ... ... ... : --- .. . ... : ... .. 0 ... : ... .. . ... ... : ... .. . ... ... : ... .. . ... ... : ... .. . ... ...
ROW 82 : ... .. . P7D ... ... : ... .. 9 ... ... ... : C#3 00 . ... : D-# 00 F ... : ... .. . ... ... : G#2 01 A ... ... : F-3 01 A ... ... : ... .. . ... ...
ROW 83 : ... .. . P80 ... ... : ... .. 8 ... ... ... : ... .. . ... : ... .. C ... : ... .. . ... ... : ... .. 9 ... ... : ... .. 9 ... ... : ... .. . ... ...
ROW 84 : ... .. . P83 ... ... : ... .. . ... ... ... : ... .. . ... : ... .. 6 ... : ... .. . ... ... : ... .. 8 ... ... : ... .. 8 ... ... : ... .. . ... ...
ROW 85 : ... .. . P84 ... ... : C#5 00 5 ... ... ... : ... .. . ... : ... .. 3 ... : ... .. . ... ... : --- .. . ... ... : --- .. . ... ... : ... .. . ... ...
ROW 86 : ... .. 2 P83 ... ... : ... .. 4 ... ... ... : ... .. . ... : ... .. 2 ... : ... .. . ... ... : ... .. . ... ... : ... .. . ... ... : ... .. 4 ... ...
ROW 87 : ... .. . P80 ... ... : ... .. . ... ... ... : --- .. . ... : ... .. 0 ... : ... .. . ... ... : ... .. . ... ... : ... .. . ... ... : ... .. . ... ...
ROW 88 : B-3 00 F ... ... ... : B-4 00 9 ... ... ... : D#5 00 . ... : 1-# 00 F ... : ... .. . ... ... : E-3 01 A ... ... : G#3 01 A ... ... : E-1 01 F ... ...
ROW 89 : ... .. E ... ... ... : ... .. 8 ... ... ... : F-4 00 . ... : ... .. C ... : ... .. . ... ... : ... .. 9 ... ... : ... .. 9 ... ... : ... .. D ... ...
ROW 8A : ... .. D ... ... ... : ... .. . ... ... ... : A#3 00 . ... : ... .. 6 ... : ... .. . ... ... : ... .. 8 ... ... : ... .. 8 ... ... : ... .. 8 ... ...
ROW 8B : ... .. A ... ... ... : G#4 00 5 ... ... ... : A-3 00 . ... : ... .. 3 ... : ... .. . ... ... : ... .. 7 ... ... : ... .. 7 ... ... : ... .. . ... ...
ROW 8C : ... .. 2 ... ... ... : ... .. 4 ... ... ... : E-3 00 . ... : ... .. 2 ... : ... .. . ... ... : ... .. . ... ... : ... .. . ... ... : ... .. . ... ...
ROW 8D : ... .. . ... ... ... : ... .. . ... ... ... : ... .. . ... : ... .. 0 ... : ... .. . ... ... : ... .. 6 ... ... : ... .. 6 ... ... : ... .. . ... ...
ROW 8E : A#3 00 F ... ... ... : ... .. 9 ... ... ... : ... .. . ... : ... .. F ... : ... .. . ... ... : --- .. . P82 ... : --- .. . P82 ... : ... .. . ... ...
ROW 8F : ... .. E ... ... ... : ... .. 8 ... ... ... : ... .. . ... : ... .. C ... : ... .. . ... ... : ... .. . ... ... : ... .. . ... ... : ... .. . ... ...
ROW 90 : ... .. D ... ... ... : ... .. . ... ... ... : ... .. . ... : ... .. 6 ... : ... .. . ... ... : ... .. . ... ... : ... .. . ... ... : ... .. . ... ...
ROW 91 : ... .. A ... ... ... : B-4 00 5 ... ... ... : ... .. . ... : ... .. 3 ... : ... .. . ... ... : ... .. . ... ... : ... .. . ... ... : ... .. . ... ...
ROW 92 : ... .. 2 ... ... ... : ... .. 4 ... ... ... : ... .. . ... : ... .. 2 ... : ... .. . ... ... : ... .. . ... ... : ... .. . ... ... : ... .. . ... ...
ROW 93 : ... .. . ... ... ... : ... .. . ... ... ... : ... .. . ... : ... .. 0 ... : ... .. . ... ... : ... .. . ... ... : ... .. . ... ... : ... .. . ... ...
ROW 94 : G#3 00 F ... ... ... : ... .. 9 ... ... ... : ... .. . ... : 6-# 00 F ... : ... .. . ... ... : E-3 01 A P80 ... : G#3 01 A P80 ... : ... .. . ... ...
ROW 95 : ... .. E ... ... ... : ... .. 8 ... ... ... : ... .. . ... : ... .. C ... : ... .. . ... ... : ... .. 9 ... ... : ... .. 9 ... ... : ... .. . ... ...
ROW 96 : ... .. D ... ... ... : ... .. . ... ... ... : ... .. . ... : ... .. 6 ... : ... .. . ... ... : ... .. 8 ... ... : ... .. 8 ... ... : ... .. . ... ...
ROW 97 : ... .. A ... ... ... : G#4 00 5 ... ... ... : ... .. . ... : ... .. 3 ... : ... .. . ... ... : ... .. 7 ... ... : ... .. 7 ... ... : ... .. . ... ...
ROW 98 : ... .. . ... ... ... : ... .. 4 ... ... ... : ... .. . ... : ... .. 2 ... : ... .. . ... ... : ... .. . ... ... : ... .. . ... ... : ... .. . ... ...
ROW 99 : ... .. . ... ... ... : ... .. . ... ... ... : --- .. . ... : ... .. 0 ... : ... .. . ... ... : ... .. 6 ... ... : ... .. 6 ... ... : ... .. . ... ...
ROW 9A : ... .. . ... ... ... : ... .. 9 ... ... ... : E-4 00 . ... : D-# 00 F ... : ... .. . ... ... : --- .. . P82 ... : --- .. . P82 ... : ... .. . ... ...
ROW 9B : ... .. . ... ... ... : ... .. 8 ... ... ... : ... .. . ... : ... .. C ... : ... .. . ... ... : ... .. . ... ... : ... .. . ... ... : ... .. . ... ...
ROW 9C : ... .. . ... ... ... : ... .. . ... ... ... : ... .. . ... : ... .. 6 ... : ... .. . ... ... : ... .. . ... ... : ... .. . ... ... : ... .. . ... ...
ROW 9D : ... .. . ... ... ... : B-4 00 5 ... ... ... : ... .. . ... : ... .. 3 ... : ... .. . ... ... : ... .. . ... ... : ... .. . ... ... : ... .. . ... ...
ROW 9E : ... .. . ... ... ... : ... .. 4 ... ... ... : ... .. . ... : ... .. 2 ... : ... .. . ... ... : ... .. . ... ... : ... .. . ... ... : ... .. . ... ...
ROW 9F : ... .. . ... ... ... : ... .. . ... ... ... : --- .. . ... : ... .. 0 ... : ... .. . ... ... : ... .. . ... ... : ... .. . ... ... : ... .. . ... ...
ROW A0 : ... .. . P83 ... ... : ... .. 9 ... ... ... : D#4 00 . ... : 1-# 00 F ... : ... .. . ... ... : E-3 01 A P80 ... : G#3 01 A P80 ... : ... .. . ... ...
ROW A1 : ... .. . P84 ... ... : ... .. 8 ... ... ... : ... .. . ... : ... .. C ... : ... .. . ... ... : ... .. 9 ... ... : ... .. 9 ... ... : ... .. . ... ...
ROW A2 : ... .. . P83 ... ... : ... .. . ... ... ... : ... .. . ... : ... .. 6 ... : ... .. . ... ... : ... .. 8 ... ... : ... .. 8 ... ... : ... .. . ... ...
ROW A3 : ... .. . P80 ... ... : G#4 00 5 ... ... ... : ... .. . ... : ... .. 3 ... : ... .. . ... ... : --- .. . P82 ... : --- .. . P82 ... : ... .. . ... ...
ROW A4 : ... .. . P7D ... ... : ... .. 4 ... ... ... : ... .. . ... : ... .. 2 ... : ... .. . ... ... : ... .. . ... ... : ... .. . ... ... : ... .. . ... ...
ROW A5 : ... .. . P7C ... ... : ... .. . ... ... ... : --- .. . ... : ... .. 0 ... : ... .. . ... ... : ... .. . ... ... : ... .. . ... ... : ... .. . ... ...
ROW A6 : ... .. . P7D ... ... : ... .. 9 ... ... ... : C#4 00 . ... : D-# 00 F ... : ... .. . ... ... : E-3 01 A P80 ... : G#3 01 A P80 ... : ... .. . ... ...
ROW A7 : ... .. . P80 ... ... : ... .. 8 ... ... ... : ... .. . ... : ... .. C ... : ... .. . ... ... : ... .. 9 ... ... : ... .. 9 ... ... : ... .. . ... ...
ROW A8 : ... .. . P83 ... ... : ... .. . ... ... ... : ... .. . ... : ... .. 6 ... : ... .. . ... ... : ... .. 8 ... ... : ... .. 8 ... ... : ... .. . ... ...
ROW A9 : ... .. . P84 ... ... : B-4 00 5 ... ... ... : ... .. . ... : ... .. 3 ... : ... .. . ... ... : --- .. . P82 ... : --- .. . P82 ... : ... .. . ... ...
ROW AA : ... .. 2 P83 ... ... : ... .. 4 ... ... ... : ... .. . ... : ... .. 2 ... : ... .. . ... ... : ... .. . ... ... : ... .. . ... ... : ... .. 4 ... ...
ROW AB : ... .. . P80 ... ... : ... .. . ... ... ... : --- .. . ... : ... .. 0 ... : ... .. . ... ... : ... .. . ... ... : ... .. . ... ... : ... .. . ... ...
ROW AC : F#3 00 F ... ... ... : ... .. 9 ... ... ... : A#4 00 . ... : 6-# 00 F ... : ... .. . ... ... : D#3 01 A P80 ... : G#3 01 A P80 ... : B-1 01 F ... ...
ROW AD : ... .. E ... ... ... : ... .. 8 ... ... ... : C-4 00 . ... : ... .. C ... : ... .. . ... ... : ... .. 9 ... ... : ... .. 9 ... ... : ... .. D ... ...
ROW AE : ... .. D ... ... ... : ... .. . ... ... ... : F-3 00 . ... : ... .. 6 ... : ... .. . ... ... : ... .. 8 ... ... : ... .. 8 ... ... : ... .. 8 ... ...
ROW AF : ... .. A ... ... ... : G#4 00 5 ... ... ... : E-3 00 . ... : ... .. 3 ... : ... .. . ... ... : --- .. . P83 ... : --- .. . P82 ... : ... .. . ... ...
ROW B0 : ... .. 2 ... ... ... : ... .. 4 ... ... ... : B-2 00 . ... : ... .. 2 ... : ... .. . ... ... : ... .. . ... ... : ... .. . ... ... : ... .. 4 ... ...
ROW B1 : ... .. . ... ... ... : ... .. . ... ... ... : --- .. . ... : ... .. 0 ... : ... .. . ... ... : ... .. . ... ... : ... .. . ... ... : ... .. . ... ...
ROW B2 : G#3 00 F ... ... ... : F#4 00 9 ... ... ... : A#2 00 . ... : D-# 00 F ... : ... .. . ... ... : D#3 01 A P80 ... : G#3 01 A P80 ... : A#1 01 F ... ...
ROW B3 : ... .. E ... ... ... : ... .. 8 ... ... ... : ... .. . ... : ... .. C ... : ... .. . ... ... : ... .. 9 ... ... : ... .. 9 ... ... : ... .. D ... ...
ROW B4 : ... .. D ... ... ... : ... .. . ... ... ... : ... .. . ... : ... .. 6 ... : ... .. . ... ... : ... .. 8 ... ... : ... .. 8 ... ... : ... .. 8 ... ...
ROW B5 : ... .. A ... ... ... : B-4 00 5 ... ... ... : ... .. . ... : ... .. 3 ... : ... .. . ... ... : --- .. . P83 ... : --- .. . P82 ... : ... .. . ... ...
ROW B6 : ... .. 2 ... ... ... : ... .. 4 ... ... ... : ... .. . ... : ... .. 2 ... : ... .. . ... ... : ... .. . ... ... : ... .. . ... ... : ... .. 4 ... ...
ROW B7 : ... .. . ... ... ... : ... .. . ... ... ... : --- .. . ... : ... .. 0 ... : ... .. . ... ... : ... .. . ... ... : ... .. . ... ... : ... .. . ... ...
ROW B8 : D#3 00 F ... ... ... : D#4 00 9 ... ... ... : G#2 00 . ... : 1-# 00 F ... : ... .. . ... ... : C#3 01 A P80 ... : F#3 01 A P80 ... : G#1 01 F ... ...
ROW B9 : ... .. E ... ... ... : ... .. 8 ... ... ... : ... .. . ... : ... .. C ... : ... .. . ... ... : ... .. 9 ... ... : ... .. 9 ... ... : ... .. D ... ...
ROW BA : ... .. D ... ... ... : ... .. . ... ... ... : ... .. . ... : ... .. 6 ... : ... .. . ... ... : ... .. 8 ... ... : ... .. 8 ... ... : ... .. 8 ... ...
ROW BB : ... .. A ... ... ... : F#4 00 5 ... ... ... : ... .. . ... : ... .. 3 ... : ... .. . ... ... : --- .. . P83 ... : --- .. . P7F ... : ... .. . ... ...
ROW BC : ... .. . ... ... ... : ... .. 4 ... ... ... : ... .. . ... : ... .. 2 ... : ... .. . ... ... : ... .. . ... ... : ... .. . ... ... : ... .. . ... ...
ROW BD : ... .. . ... ... ... : ... .. . ... ... ... : --- .. . ... : ... .. 0 ... : ... .. . ... ... : ... .. . ... ... : ... .. . ... ... : ... .. . ... ...
ROW BE : ... .. . P87 ... ... : A#4 00 9 ... ... ... : F#2 00 . ... : ... .. F ... : ... .. . ... ... : D#3 01 A P80 ... : G#3 01 A P80 ... : ... .. . ... ...
ROW BF : ... .. . P89 ... ... : ... .. 8 ... ... ... : ... .. . ... : ... .. C ... : ... .. . ... ... : ... .. 9 ... ... : ... .. 9 ... ... : ... .. . ... ...
ROW C0 : ... .. . P86 ... ... : ... .. . ... ... ... : ... .. . ... : ... .. 6 ... : ... .. . ... ... : ... .. 8 ... ... : ... .. 8 ... ... : ... .. . ... ...
ROW C1 : ... .. . P80 ... ... : D#4 00 5 ... ... ... : ... .. . ... : ... .. 3 ... : ... .. . ... ... : ... .. 7 ... ... : ... .. 7 ... ... : ... .. . ... ...
ROW C2 : ... .. . P79 ... ... : ... .. 4 ... ... ... : ... .. . ... : ... .. 2 ... : ... .. . ... ... : ... .. . ... ... : ... .. . ... ... : ... .. . ... ...
ROW C3 : ... .. . P77 ... ... : ... .. . ... ... ... : --- .. . ... : ... .. 0 ... : ... .. . ... ... : ... .. 6 ... ... : ... .. 6 ... ... : ... .. . ... ...
ROW C4 : ... .. . P7A ... ... : F#4 00 9 ... ... ... : F-2 00 . ... : 6-# 00 F ... : ... .. . ... ... : ... .. . ... ... : ... .. . ... ... : ... .. . ... ...
ROW C5 : ... .. . P80 ... ... : ... .. 8 ... ... ... : ... .. . ... : ... .. C ... : ... .. . ... ... : ... .. 5 ... ... : ... .. 5 ... ... : ... .. . ... ...
ROW C6 : ... .. . P87 ... ... : ... .. . ... ... ... : ... .. . ... : ... .. 6 ... : ... .. . ... ... : ... .. . ... ... : ... .. . ... ... : ... .. . ... ...
ROW C7 : ... .. . P89 ... ... : A#4 00 5 ... ... ... : ... .. . ... : ... .. 3 ... : ... .. . ... ... : ... .. . P8A ... : A-3 01 5 P7B ... : ... .. . ... ...
ROW C8 : ... .. . P86 ... ... : ... .. 4 ... ... ... : ... .. . ... : ... .. 2 ... : ... .. . ... ... : E-3 01 5 P7B ... : ... .. . P81 ... : ... .. . ... ...
ROW C9 : ... .. . P80 ... ... : ... .. . ... ... ... : --- .. . ... : ... .. 0 ... : ... .. . ... ... : ... .. . P79 ... : ... .. . P7F ... : ... .. . ... ...
ROW CA : ... .. . P79 ... ... : C#4 00 9 ... ... ... : D#2 00 . ... : ... .. F ... : ... .. . ... ... : D#3 01 5 P84 ... : G#3 01 5 P84 ... : ... .. . ... ...
ROW CB : ... .. 2 P77 ... ... : ... .. 8 ... ... ... : ... .. . ... : ... .. C ... : ... .. . ... ... : ... .. . P7C ... : ... .. . P7C ... : ... .. . ... ...
ROW CC : ... .. . P7A ... ... : ... .. . ... ... ... : ... .. . ... : ... .. 6 ... : ... .. . ... ... : D-3 01 5 P87 ... : G-3 01 5 P82 ... : ... .. . ... ...
ROW CD : ... .. . P80 ... ... : F#4 00 5 ... ... ... : ... .. . ... : ... .. 3 ... : ... .. . ... ... : ... .. . P85 ... : ... .. . P80 ... : ... .. . ... ...
ROW CE : ... .. 1 P87 ... ... : ... .. 4 ... ... ... : ... .. . ... : ... .. 2 ... : ... .. . ... ... : D#3 01 5 P76 ... : ... .. . P86 ... : ... .. 4 ... ...
ROW CF : ... .. . P89 ... ... : ... .. . ... ... ... : --- .. . ... : ... .. 0 ... : ... .. . ... ... : ... .. . P80 ... : G#3 01 5 P80 ... : ... .. . ... ...
ROW D0 : ... .. F P80 ... ... : B-4 00 9 ... ... ... : G-4 00 . ... : 1-# 00 F ... : ... .. . ... ... : G#3 01 A ... ... : B-3 01 A ... ... : G#0 01 F ... ...
ROW D1 : ... .. E ... ... ... : ... .. 8 ... ... ... : A-3 00 . ... : ... .. C ... : ... .. . ... ... : ... .. 9 ... ... : ... .. 9 ... ... : ... .. D ... ...
ROW D2 : ... .. D ... ... ... : ... .. . ... ... ... : D-3 00 . ... : ... .. 6 ... : ... .. . ... ... : ... .. 8 ... ... : ... .. 8 ... ... : ... .. 8 ... ...
ROW D3 : ... .. A ... ... ... : C#4 00 5 ... ... ... : C#3 00 . ... : ... .. 3 ... : ... .. . ... ... : ... .. 7 ... ... : ... .. 7 ... ... : ... .. . ... ...
ROW D4 : ... .. . ... ... ... : ... .. 4 ... ... ... : G#2 00 . ... : ... .. 2 ... : ... .. . ... ... : ... .. . ... ... : ... .. . ... ... : ... .. . ... ...
ROW D5 : ... .. . ... ... ... : ... .. . ... ... ... : --- .. . ... : ... .. 0 ... : ... .. . ... ... : ... .. 6 ... ... : ... .. 6 ... ... : ... .. . ... ...
ROW D6 : ... .. . ... ... ... : D#4 00 9 ... ... ... : G#2 00 . ... : ... .. F ... : ... .. . ... ... : ... .. . ... ... : ... .. . ... ... : ... .. . ... ...
ROW D7 : ... .. . ... ... ... : ... .. 8 ... ... ... : ... .. . ... : ... .. C ... : ... .. . ... ... : ... .. 5 ... ... : ... .. 5 ... ... : ... .. . ... ...
ROW D8 : ... .. . ... ... ... : ... .. . ... ... ... : ... .. . ... : ... .. 6 ... : ... .. . ... ... : ... .. . ... ... : ... .. . ... ... : ... .. . ... ...
ROW D9 : E-3 00 A P7B ... ... : B-4 00 5 ... ... ... : ... .. . ... : ... .. 3 ... : ... .. . ... ... : --- .. . P82 ... : --- .. . ... ... : ... .. . ... ...
ROW DA : F-3 00 A P78 ... ... : ... .. 4 ... ... ... : ... .. . ... : ... .. 2 ... : ... .. . ... ... : ... .. . ... ... : ... .. . ... ... : ... .. . ... ...
ROW DB : ... .. . P88 ... ... : ... .. . ... ... ... : ... .. . ... : ... .. 0 ... : ... .. . ... ... : ... .. . ... ... : ... .. . ... ... : ... .. . ... ...
ROW DC : F#3 00 A P86 ... ... : A#4 00 9 ... ... ... : ... .. . ... : 6-# 00 F ... : ... .. . ... ... : G#3 01 A P80 ... : B-3 01 A ... ... : ... .. . ... ...
ROW DD : G-3 00 A P85 ... ... : ... .. 8 ... ... ... : ... .. . ... : ... .. C ... : ... .. . ... ... : ... .. 9 ... ... : ... .. 9 ... ... : ... .. . ... ...
ROW DE : G#3 00 A ... ... ... : ... .. . ... ... ... : ... .. . ... : ... .. 6 ... : ... .. . ... ... : ... .. 8 ... ... : ... .. 8 ... ... : ... .. . ... ...
ROW DF : A-3 00 A P86 ... ... : D#4 00 5 ... ... ... : ... .. . ... : ... .. 3 ... : ... .. . ... ... : ... .. 7 ... ... : ... .. 7 ... ... : ... .. . ... ...
ROW E0 : B-3 00 2 P7A ... ... : ... .. 4 ... ... ... : ... .. . ... : ... .. 2 ... : ... .. . ... ... : ... .. . ... ... : ... .. . ... ... : ... .. 4 ... ...
ROW E1 : C-4 00 2 P7E ... ... : ... .. . ... ... ... : --- .. . ... : ... .. 0 ... : ... .. . ... ... : ... .. 6 ... ... : ... .. 6 ... ... : ... .. . ... ...
ROW E2 : G#4 00 F P80 ... ... : ... .. 9 ... ... ... : G#3 00 . ... : 1-# 00 F ... : ... .. . ... ... : ... .. . ... ... : ... .. . ... ... : G#1 01 F ... ...
ROW E3 : ... .. E ... ... ... : ... .. 8 ... ... ... : ... .. . ... : ... .. C ... : ... .. . ... ... : ... .. 5 ... ... : ... .. 5 ... ... : ... .. D ... ...
ROW E4 : ... .. D ... ... ... : ... .. . ... ... ... : ... .. . ... : ... .. 6 ... : ... .. . ... ... : ... .. . ... ... : ... .. . ... ... : ... .. 8 ... ...
ROW E5 : ... .. A ... ... ... : A#4 00 5 ... ... ... : ... .. . ... : ... .. 3 ... : ... .. . ... ... : --- .. . P82 ... : --- .. . ... ... : ... .. . ... ...
ROW E6 : ... .. . ... ... ... : ... .. 4 ... ... ... : ... .. . ... : ... .. 2 ... : ... .. . ... ... : ... .. . ... ... : ... .. . ... ... : ... .. . ... ...
ROW E7 : ... .. . ... ... ... : ... .. . ... ... ... : ... .. . ... : ... .. 0 ... : ... .. . ... ... : ... .. . ... ... : ... .. . ... ... : ... .. . ... ...
ROW E8 : ... .. . ... ... ... : G#4 00 9 ... ... ... : ... .. . ... : ... .. F ... : ... .. . ... ... : G#3 01 A P80 ... : B-3 01 A ... ... : ... .. . ... ...
ROW E9 : ... .. . ... ... ... : ... .. 8 ... ... ... : ... .. . ... : ... .. C ... : ... .. . ... ... : ... .. 9 ... ... : ... .. 9 ... ... : ... .. . ... ...
ROW EA : ... .. . ... ... ... : ... .. . ... ... ... : ... .. . ... : ... .. 6 ... : ... .. . ... ... : ... .. 8 ... ... : ... .. 8 ... ... : ... .. . ... ...
ROW EB : A-4 00 A P7F ... ... : D#4 00 5 ... ... ... : ... .. . ... : ... .. 3 ... : ... .. . ... ... : --- .. . P82 ... : --- .. . ... ... : ... .. . ... ...
ROW EC : ... .. . P81 ... ... : ... .. 4 ... ... ... : ... .. . ... : ... .. 2 ... : ... .. . ... ... : ... .. . ... ... : ... .. . ... ... : ... .. . ... ...
ROW ED : ... .. . P7E ... ... : ... .. . ... ... ... : --- .. . ... : ... .. 0 ... : ... .. . ... ... : ... .. . ... ... : ... .. . ... ... : ... .. . ... ...
ROW EE : G#4 00 A P80 ... ... : ... .. 9 ... ... ... : G#2 00 . ... : ... .. F ... : ... .. . ... ... : G#3 01 A P80 ... : B-3 01 A ... ... : ... .. . ... ...
ROW EF : G-4 00 A P81 ... ... : ... .. 8 ... ... ... : ... .. . ... : ... .. C ... : ... .. . ... ... : ... .. 9 ... ... : ... .. 9 ... ... : ... .. . ... ...
ROW F0 : ... .. . P7F ... ... : ... .. . ... ... ... : ... .. . ... : ... .. 6 ... : ... .. . ... ... : ... .. 8 ... ... : ... .. 8 ... ... : ... .. . ... ...
ROW F1 : ... .. . P82 ... ... : G#4 00 5 ... ... ... : ... .. . ... : ... .. 3 ... : ... .. . ... ... : --- .. . P82 ... : --- .. . ... ... : ... .. . ... ...
ROW F2 : G#4 00 2 P80 ... ... : ... .. 4 ... ... ... : ... .. . ... : ... .. 2 ... : ... .. . ... ... : ... .. . ... ... : ... .. . ... ... : ... .. 4 ... ...
ROW F3 : A-4 00 2 P7F ... ... : ... .. . ... ... ... : --- .. . ... : ... .. 0 ... : ... .. . ... ... : ... .. . ... ... : ... .. . ... ... : ... .. . ... ...
ROW F4 : A#4 00 F P80 ... ... : F#4 00 9 ... ... ... : C-5 00 . ... : 6-# 00 F ... : ... .. . ... ... : G#3 01 A P80 ... : C#4 01 A ... ... : C#1 01 F ... ...
ROW F5 : ... .. E ... ... ... : ... .. 8 ... ... ... : D-4 00 . ... : ... .. C ... : ... .. . ... ... : ... .. 9 ... ... : ... .. 9 ... ... : ... .. D ... ...
ROW F6 : ... .. D ... ... ... : ... .. . ... ... ... : G-3 00 . ... : ... .. 6 ... : ... .. . ... ... : ... .. 8 ... ... : ... .. 8 ... ... : ... .. 8 ... ...
ROW F7 : ... .. A ... ... ... : D#4 00 5 ... ... ... : F#3 00 . ... : ... .. 3 ... : ... .. . ... ... : ... .. 7 ... ... : ... .. 7 ... ... : ... .. . ... ...
ROW F8 : ... .. 2 ... ... ... : ... .. 4 ... ... ... : C#3 00 . ... : ... .. 2 ... : ... .. . ... ... : ... .. . ... ... : ... .. . ... ... : ... .. . ... ...
ROW F9 : ... .. . ... ... ... : ... .. . ... ... ... : --- .. . ... : ... .. 0 ... : ... .. . ... ... : ... .. 6 ... ... : ... .. 6 ... ... : ... .. . ... ...
ROW FA : B-4 00 F ... ... ... : F-4 00 9 ... ... ... : C#3 00 . ... : 1-# 00 F ... : ... .. . ... ... : ... .. . ... ... : ... .. . ... ... : ... .. . ... ...
ROW FB : ... .. E ... ... ... : ... .. 8 ... ... ... : ... .. . ... : ... .. C ... : ... .. . ... ... : ... .. 5 ... ... : ... .. 5 ... ... : ... .. . ... ...
ROW FC : ... .. D ... ... ... : ... .. . ... ... ... : ... .. . ... : ... .. 6 ... : ... .. . ... ... : ... .. . ... ... : ... .. . ... ... : ... .. . ... ...
ROW FD : ... .. A ... ... ... : F#4 00 5 ... ... ... : ... .. . ... : ... .. 3 ... : ... .. . ... ... : --- .. . P82 ... : --- .. . ... ... : ... .. . ... ...
ROW FE : ... .. 2 ... ... ... : ... .. 4 ... ... ... : ... .. . ... : ... .. 2 ... : ... .. . ... ... : ... .. . ... ... : ... .. . ... ... : ... .. . ... ...
ROW FF : ... .. . ... ... ... : ... .. . ... ... ... : --- .. . ... : ... .. 0 ... : ... .. . ... ... : ... .. . ... ... : ... .. . ... ... : ... .. . ... ...

PATTERN 03
ROW 00 : G#4 00 F ... ... ... : C#4 00 9 ... ... ... : B-3 00 . ... : ... .. F ... : ... .. . ... ... : G#3 01 A P80 ... : C#4 01 A ... ... : ... .. . ... ...
ROW 01 : ... .. E ... ... ... : ... .. 8 ... ... ... : ... .. . ... : ... .. C ... : ... .. . ... ... : ... .. 9 ... ... : ... .. 9 ... ... : ... .. . ... ...
ROW 02 : ... .. D ... ... ... : ... .. . ... ... ... : ... .. . ... : ... .. 6 ... : ... .. . ... ... : ... .. 8 ... ... : ... .. 8 ... ... : ... .. . ... ...
ROW 03 : ... .. A ... ... ... : F-4 00 5 ... ... ... : ... .. . ... : ... .. 3 ... : ... .. . ... ... : ... .. 7 ... ... : ... .. 7 ... ... : ... .. . ... ...
ROW 04 : ... .. . ... ... ... : ... .. 4 ... ... ... : ... .. . ... : ... .. 2 ... : ... .. . ... ... : ... .. . ... ... : ... .. . ... ... : ... .. 4 ... ...
ROW 05 : ... .. . ... ... ... : ... .. . ... ... ... : --- .. . ... : ... .. 0 ... : ... .. . ... ... : ... .. 6 ... ... : ... .. 6 ... ... : ... .. . ... ...
ROW 06 : ... .. . ... ... ... : G#3 00 9 ... ... ... : C#4 00 . ... : ... .. F ... : ... .. . ... ... : --- .. . P82 ... : --- .. . ... ... : C#2 01 F ... ...
ROW 07 : ... .. . ... ... ... : ... .. 8 ... ... ... : ... .. . ... : ... .. C ... : ... .. . ... ... : ... .. . ... ... : ... .. . ... ... : ... .. D ... ...
ROW 08 : ... .. . ... ... ... : ... .. . ... ... ... : ... .. . ... : ... .. 6 ... : ... .. . ... ... : ... .. . ... ... : ... .. . ... ... : ... .. 8 ... ...
ROW 09 : ... .. . ... ... ... : C#4 00 5 ... ... ... : ... .. . ... : ... .. 3 ... : ... .. . ... ... : ... .. . ... ... : ... .. . ... ... : ... .. . ... ...
ROW 0A : ... .. . ... ... ... : ... .. 4 ... ... ... : ... .. . ... : ... .. 2 ... : ... .. . ... ... : ... .. . ... ... : ... .. . ... ... : ... .. 4 ... ...
ROW 0B : ... .. . ... ... ... : ... .. . ... ... ... : --- .. . ... : ... .. 0 ... : ... .. . ... ... : ... .. . ... ... : ... .. . ... ... : ... .. . ... ...
ROW 0C : A#4 00 F ... ... ... : D#3 00 9 ... ... ... : F-4 00 . ... : 6-# 00 F ... : ... .. . ... ... : G#3 01 A P80 ... : C#4 01 A ... ... : D#2 01 F ... ...
ROW 0D : ... .. E ... ... ... : ... .. 8 ... ... ... : ... .. . ... : ... .. C ... : ... .. . ... ... : ... .. 9 ... ... : ... .. 9 ... ... : ... .. D ... ...
ROW 0E : ... .. D ... ... ... : ... .. . ... ... ... : ... .. . ... : ... .. 6 ... : ... .. . ... ... : ... .. 8 ... ... : ... .. 8 ... ... : ... .. 8 ... ...
ROW 0F : ... .. A ... ... ... : G#3 00 5 ... ... ... : ... .. . ... : ... .. 3 ... : ... .. . ... ... : --- .. . P82 ... : --- .. . ... ... : ... .. . ... ...
ROW 10 : ... .. 2 ... ... ... : ... .. 4 ... ... ... : ... .. . ... : ... .. 2 ... : ... .. . ... ... : ... .. . ... ... : ... .. . ... ... : ... .. 4 ... ...
ROW 11 : ... .. . ... ... ... : ... .. . ... ... ... : --- .. . ... : ... .. 0 ... : ... .. . ... ... : ... .. . ... ... : ... .. . ... ... : ... .. . ... ...
ROW 12 : B-4 00 F ... ... ... : C#3 00 9 ... ... ... : F#4 00 . ... : 1-# 00 F ... : ... .. . ... ... : G#3 01 A P80 ... : C#4 01 A ... ... : E-2 01 F ... ...
ROW 13 : ... .. E ... ... ... : ... .. 8 ... ... ... : ... .. . ... : ... .. C ... : ... .. . ... ... : ... .. 9 ... ... : ... .. 9 ... ... : ... .. D ... ...
ROW 14 : ... .. D ... ... ... : ... .. . ... ... ... : ... .. . ... : ... .. 6 ... : ... .. . ... ... : ... .. 8 ... ... : ... .. 8 ... ... : ... .. 8 ... ...
ROW 15 : ... .. A ... ... ... : D#3 00 5 ... ... ... : ... .. . ... : ... .. 3 ... : ... .. . ... ... : --- .. . P82 ... : --- .. . ... ... : ... .. . ... ...
ROW 16 : ... .. 2 ... ... ... : ... .. 4 ... ... ... : ... .. . ... : ... .. 2 ... : ... .. . ... ... : ... .. . ... ... : ... .. . ... ... : ... .. 4 ... ...
ROW 17 : ... .. . ... ... ... : ... .. . ... ... ... : --- .. . ... : ... .. 0 ... : ... .. . ... ... : ... .. . ... ... : ... .. . ... ... : ... .. . ... ...
ROW 18 : D#5 00 F ... ... ... : E-3 00 9 ... ... ... : G-5 00 . ... : 6-# 00 F ... : ... .. . ... ... : G#3 01 A P80 ... : E-4 01 A ... ... : E-1 01 F ... ...
ROW 19 : ... .. E ... ... ... : ... .. 8 ... ... ... : A-4 00 . ... : ... .. C ... : ... .. . ... ... : ... .. 9 ... ... : ... .. 9 ... ... : ... .. D ... ...
ROW 1A : ... .. D ... ... ... : ... .. . ... ... ... : D-4 00 . ... : ... .. 6 ... : ... .. . ... ... : ... .. 8 ... ... : ... .. 8 ... ... : ... .. 8 ... ...
ROW 1B : ... .. A ... ... ... : C#3 00 5 ... ... ... : C#4 00 . ... : ... .. 3 ... : ... .. . ... ... : --- .. . P82 ... : --- .. . ... ... : ... .. . ... ...
ROW 1C : ... .. . ... ... ... : ... .. 4 ... ... ... : G#3 00 . ... : ... .. 2 ... : ... .. . ... ... : ... .. . ... ... : ... .. . ... ... : ... .. . ... ...
ROW 1D : ... .. . ... ... ... : ... .. . ... ... ... : ... .. . ... : ... .. 0 ... : ... .. . ... ... : ... .. . ... ... : ... .. . ... ... : ... .. . ... ...
ROW 1E : ... .. . ... ... ... : B-2 00 9 ... ... ... : ... .. . ... : 1-# 00 F ... : ... .. . ... ... : G#3 01 A P80 ... : E-4 01 A ... ... : ... .. . ... ...
ROW 1F : ... .. . ... ... ... : ... .. 8 ... ... ... : ... .. . ... : ... .. C ... : ... .. . ... ... : ... .. 9 ... ... : ... .. 9 ... ... : ... .. . ... ...
ROW 20 : ... .. . ... ... ... : ... .. . ... ... ... : ... .. . ... : ... .. 6 ... : ... .. . ... ... : ... .. 8 ... ... : ... .. 8 ... ... : ... .. . ... ...
ROW 21 : ... .. . ... ... ... : E-3 00 5 ... ... ... : ... .. . ... : ... .. 3 ... : ... .. . ... ... : --- .. . P82 ... : --- .. . ... ... : ... .. . ... ...
ROW 22 : ... .. . ... ... ... : ... .. 4 ... ... ... : ... .. . ... : ... .. 2 ... : ... .. . ... ... : ... .. . ... ... : ... .. . ... ... : ... .. . ... ...
ROW 23 : ... .. . ... ... ... : ... .. . ... ... ... : ... .. . ... : ... .. 0 ... : ... .. . ... ... : ... .. . ... ... : ... .. . ... ... : ... .. . ... ...
ROW 24 : ... .. . ... ... ... : G#2 00 9 ... ... ... : ... .. . ... : ... .. F ... : ... .. . ... ... : G#3 01 A P80 ... : E-4 01 A ... ... : ... .. . ... ...
ROW 25 : ... .. . ... ... ... : ... .. 8 ... ... ... : ... .. . ... : ... .. C ... : ... .. . ... ... : ... .. 9 ... ... : ... .. 9 ... ... : ... .. . ... ...
ROW 26 : ... .. . ... ... ... : ... .. . ... ... ... : ... .. . ... : ... .. 6 ... : ... .. . ... ... : ... .. 8 ... ... : ... .. 8 ... ... : ... .. . ... ...
ROW 27 : ... .. . ... ... ... : B-2 00 5 ... ... ... : ... .. . ... : ... .. 3 ... : ... .. . ... ... : --- .. . P82 ... : --- .. . ... ... : ... .. . ... ...
ROW 28 : ... .. 2 ... ... ... : ... .. 4 ... ... ... : ... .. . ... : ... .. 2 ... : ... .. . ... ... : ... .. . ... ... : ... .. . ... ... : ... .. 4 ... ...
ROW 29 : ... .. . ... ... ... : ... .. . ... ... ... : --- .. . ... : ... .. 0 ... : ... .. . ... ... : ... .. . ... ... : ... .. . ... ... : ... .. . ... ...
ROW 2A : C#5 00 F ... ... ... : A#3 00 9 ... ... ... : A-5 00 . ... : A-# 00 F ... : ... .. . ... ... : F#3 01 A P80 ... : C#4 01 A ... ... : F#1 01 F ... ...
ROW 2B : ... .. E ... ... ... : ... .. 8 ... ... ... : B-4 00 . ... : ... .. C ... : ... .. . ... ... : ... .. 9 ... ... : ... .. 9 ... ... : ... .. D ... ...
ROW 2C : ... .. D ... ... ... : ... .. . ... ... ... : E-4 00 . ... : ... .. 6 ... : ... .. . ... ... : ... .. 8 ... ... : ... .. 8 ... ... : ... .. 8 ... ...
ROW 2D : ... .. A ... ... ... : G#2 00 5 ... ... ... : D#4 00 . ... : ... .. 3 ... : ... .. . ... ... : ... .. 7 ... ... : ... .. 7 ... ... : ... .. . ... ...
ROW 2E : ... .. . ... ... ... : ... .. 4 ... ... ... : A#3 00 . ... : ... .. 2 ... : ... .. . ... ... : ... .. . ... ... : ... .. . ... ... : ... .. . ... ...
ROW 2F : ... .. . ... ... ... : ... .. . ... ... ... : ... .. . ... : ... .. 0 ... : ... .. . ... ... : ... .. 6 ... ... : ... .. 6 ... ... : ... .. . ... ...
ROW 30 : ... .. . ... ... ... : F#3 00 9 ... ... ... : ... .. . ... : 1-# 00 F ... : ... .. . ... ... : ... .. . ... ... : ... .. . ... ... : ... .. . ... ...
ROW 31 : ... .. . ... ... ... : ... .. 8 ... ... ... : ... .. . ... : ... .. C ... : ... .. . ... ... : ... .. 5 ... ... : ... .. 5 ... ... : ... .. . ... ...
ROW 32 : ... .. . ... ... ... : ... .. . ... ... ... : ... .. . ... : ... .. 6 ... : ... .. . ... ... : ... .. . ... ... : ... .. . ... ... : ... .. . ... ...
ROW 33 : ... .. . ... ... ... : A#3 00 5 ... ... ... : ... .. . ... : ... .. 3 ... : ... .. . ... ... : ... .. . ... ... : ... .. . ... ... : ... .. . ... ...
ROW 34 : ... .. . ... ... ... : ... .. 4 ... ... ... : ... .. . ... : ... .. 2 ... : ... .. . ... ... : ... .. . ... ... : ... .. . ... ... : ... .. . ... ...
ROW 35 : ... .. . ... ... ... : ... .. . ... ... ... : ... .. . ... : ... .. 0 ... : ... .. . ... ... : ... .. . ... ... : ... .. . ... ... : ... .. . ... ...
ROW 36 : ... .. . ... ... ... : C#3 00 9 ... ... ... : ... .. . ... : ... .. F ... : ... .. . ... ... : ... .. . ... ... : ... .. . ... ... : ... .. . ... ...
ROW 37 : C-5 00 A P81 ... ... : ... .. 8 ... ... ... : ... .. . ... : ... .. C ... : ... .. . ... ... : ... .. . ... ... : ... .. . ... ... : ... .. . ... ...
ROW 38 : B-4 00 A P82 ... ... : ... .. . ... ... ... : ... .. . ... : ... .. 6 ... : ... .. . ... ... : ... .. . ... ... : ... .. . ... ... : ... .. . ... ...
ROW 39 : ... .. . P7D ... ... : F#3 00 5 ... ... ... : ... .. . ... : ... .. 3 ... : ... .. . ... ... : ... .. . ... ... : ... .. . ... ... : ... .. . ... ...
ROW 3A : A#4 00 A P7F ... ... : ... .. 4 ... ... ... : ... .. . ... : ... .. 2 ... : ... .. . ... ... : ... .. . ... ... : ... .. . ... ... : ... .. 4 ... ...
ROW 3B : A-4 00 A P81 ... ... : ... .. . ... ... ... : --- .. . ... : ... .. 0 ... : ... .. . ... ... : ... .. . ... ... : ... .. . ... ... : ... .. . ... ...
ROW 3C : F#4 00 F P80 ... ... : ... .. 9 ... ... ... : A#5 00 . ... : 6-# 00 F ... : ... .. . ... ... : D#3 01 A ... ... : B-3 01 A ... ... : B-1 01 F ... ...
ROW 3D : ... .. E ... ... ... : ... .. 8 ... ... ... : C-5 00 . ... : ... .. C ... : ... .. . ... ... : ... .. 9 ... ... : ... .. 9 ... ... : ... .. D ... ...
ROW 3E : ... .. D ... ... ... : ... .. . ... ... ... : F-4 00 . ... : ... .. 6 ... : ... .. . ... ... : ... .. 8 ... ... : ... .. 8 ... ... : ... .. 8 ... ...
ROW 3F : ... .. A ... ... ... : C#3 00 5 ... ... ... : E-4 00 . ... : ... .. 3 ... : ... .. . ... ... : --- .. . P83 ... : --- .. . ... ... : ... .. . ... ...
ROW 40 : ... .. . ... ... ... : ... .. 4 ... ... ... : B-3 00 . ... : ... .. 2 ... : ... .. . ... ... : ... .. . ... ... : ... .. . ... ... : ... .. . ... ...
ROW 41 : ... .. . ... ... ... : ... .. . ... ... ... : --- .. . ... : ... .. 0 ... : ... .. . ... ... : ... .. . ... ... : ... .. . ... ... : ... .. . ... ...
ROW 42 : ... .. . ... ... ... : D#3 00 9 ... ... ... : B-2 00 . ... : ... .. F ... : ... .. . ... ... : D#3 01 A P80 ... : C#4 01 A ... ... : ... .. . ... ...
ROW 43 : ... .. . ... ... ... : ... .. 8 ... ... ... : ... .. . ... : ... .. C ... : ... .. . ... ... : ... .. 9 ... ... : ... .. 9 ... ... : ... .. . ... ...
ROW 44 : ... .. . ... ... ... : ... .. . ... ... ... : ... .. . ... : ... .. 6 ... : ... .. . ... ... : ... .. 8 ... ... : ... .. 8 ... ... : ... .. . ... ...
ROW 45 : ... .. . ... ... ... : F#3 00 5 ... ... ... : ... .. . ... : ... .. 3 ... : ... .. . ... ... : --- .. . P83 ... : --- .. . ... ... : ... .. . ... ...
ROW 46 : ... .. . ... ... ... : ... .. 4 ... ... ... : ... .. . ... : ... .. 2 ... : ... .. . ... ... : ... .. . ... ... : ... .. . ... ... : ... .. . ... ...
ROW 47 : ... .. . ... ... ... : ... .. . ... ... ... : --- .. . ... : ... .. 0 ... : ... .. . ... ... : ... .. . ... ... : ... .. . ... ... : ... .. . ... ...
ROW 48 : ... .. . ... ... ... : B-2 00 9 ... ... ... : B-2 00 . ... : 5-# 00 F ... : ... .. . ... ... : D#3 01 A P80 ... : B-3 01 A ... ... : ... .. . ... ...
ROW 49 : ... .. . ... ... ... : ... .. 8 ... ... ... : ... .. . ... : ... .. C ... : ... .. . ... ... : ... .. 9 ... ... : ... .. 9 ... ... : ... .. . ... ...
ROW 4A : ... .. . ... ... ... : ... .. . ... ... ... : ... .. . ... : ... .. 6 ... : ... .. . ... ... : ... .. 8 ... ... : ... .. 8 ... ... : ... .. . ... ...
ROW 4B : ... .. . ... ... ... : D#3 00 5 ... ... ... : ... .. . ... : ... .. 3 ... : ... .. . ... ... : --- .. . P83 ... : --- .. . ... ... : ... .. . ... ...
ROW 4C : ... .. 2 ... ... ... : ... .. 4 ... ... ... : ... .. . ... : ... .. 2 ... : ... .. . ... ... : ... .. . ... ... : ... .. . ... ... : ... .. 4 ... ...
ROW 4D : ... .. . ... ... ... : ... .. . ... ... ... : --- .. . ... : ... .. 0 ... : ... .. . ... ... : ... .. . ... ... : ... .. . ... ... : ... .. . ... ...
ROW 4E : G#4 00 F ... ... ... : C#3 00 9 ... ... ... : A-5 00 . ... : ... .. F ... : ... .. . ... ... : C#3 01 A P80 ... : A#3 01 A ... ... : A#1 01 F ... ...
ROW 4F : ... .. E ... ... ... : ... .. 8 ... ... ... : B-4 00 . ... : ... .. C ... : ... .. . ... ... : ... .. 9 ... ... : ... .. 9 ... ... : ... .. D ... ...
ROW 50 : ... .. D ... ... ... : ... .. . ... ... ... : E-4 00 . ... : ... .. 6 ... : ... .. . ... ... : ... .. 8 ... ... : ... .. 8 ... ... : ... .. 8 ... ...
ROW 51 : ... .. A ... ... ... : B-2 00 5 ... ... ... : D#4 00 . ... : ... .. 3 ... : ... .. . ... ... : ... .. 7 ... ... : ... .. 7 ... ... : ... .. . ... ...
ROW 52 : ... .. . ... ... ... : ... .. 4 ... ... ... : A#3 00 . ... : ... .. 2 ... : ... .. . ... ... : ... .. . ... ... : ... .. . ... ... : ... .. . ... ...
ROW 53 : ... .. . ... ... ... : ... .. . ... ... ... : --- .. . ... : ... .. 0 ... : ... .. . ... ... : ... .. 6 ... ... : ... .. 6 ... ... : ... .. . ... ...
ROW 54 : ... .. . ... ... ... : A#2 00 9 ... ... ... : F#2 00 . ... : 3-# 00 F ... : ... .. . ... ... : ... .. . ... ... : ... .. . ... ... : ... .. . ... ...
ROW 55 : ... .. . ... ... ... : ... .. 8 ... ... ... : ... .. . ... : ... .. C ... : ... .. . ... ... : ... .. 5 ... ... : ... .. 5 ... ... : ... .. . ... ...
ROW 56 : ... .. . ... ... ... : ... .. . ... ... ... : ... .. . ... : ... .. 6 ... : ... .. . ... ... : ... .. . ... ... : ... .. . ... ... : ... .. . ... ...
ROW 57 : ... .. . ... ... ... : C#3 00 5 ... ... ... : ... .. . ... : ... .. 3 ... : ... .. . ... ... : ... .. . ... ... : ... .. . ... ... : ... .. . ... ...
ROW 58 : ... .. . ... ... ... : ... .. 4 ... ... ... : ... .. . ... : ... .. 2 ... : ... .. . ... ... : ... .. . ... ... : ... .. . ... ... : ... .. . ... ...
ROW 59 : ... .. . ... ... ... : ... .. . ... ... ... : --- .. . ... : ... .. 0 ... : ... .. . ... ... : ... .. . ... ... : ... .. . ... ... : ... .. . ... ...
ROW 5A : ... .. . ... ... ... : F#2 00 9 ... ... ... : F#2 00 . ... : ... .. F ... : ... .. . ... ... : ... .. . ... ... : ... .. . ... ... : ... .. . ... ...
ROW 5B : G-4 00 A P83 ... ... : ... .. 8 ... ... ... : ... .. . ... : ... .. C ... : ... .. . ... ... : ... .. . ... ... : ... .. . ... ... : ... .. . ... ...
ROW 5C : ... .. . P7E ... ... : ... .. . ... ... ... : ... .. . ... : ... .. 6 ... : ... .. . ... ... : ... .. . ... ... : ... .. . ... ... : ... .. . ... ...
ROW 5D : F#4 00 A P81 ... ... : A#2 00 5 ... ... ... : ... .. . ... : ... .. 3 ... : ... .. . ... ... : ... .. . ... ... : ... .. . ... ... : ... .. . ... ...
ROW 5E : ... .. . P7C ... ... : ... .. 4 ... ... ... : ... .. . ... : ... .. 2 ... : ... .. . ... ... : ... .. . ... ... : ... .. . ... ... : ... .. . ... ...
ROW 5F : F-4 00 A P80 ... ... : ... .. . ... ... ... : --- .. . ... : ... .. 0 ... : ... .. . ... ... : ... .. . ... ... : ... .. . ... ... : ... .. . ... ...
ROW 60 : D#4 00 F ... ... ... : B-4 00 9 ... ... ... : G-4 00 . ... : 1-# 00 F ... : ... .. . ... ... : G#2 01 A ... ... : G#3 01 A ... ... : G#1 01 F ... ...
ROW 61 : ... .. E ... ... ... : ... .. 8 ... ... ... : A-3 00 . ... : ... .. C ... : ... .. . ... ... : ... .. 9 ... ... : ... .. 9 ... ... : ... .. D ... ...
ROW 62 : ... .. D ... ... ... : ... .. . ... ... ... : D-3 00 . ... : ... .. 6 ... : ... .. . ... ... : ... .. 8 ... ... : ... .. 8 ... ... : ... .. 8 ... ...
ROW 63 : ... .. A ... ... ... : ... .. 7 ... ... ... : C#3 00 . ... : ... .. 3 ... : ... .. . ... ... : ... .. 7 ... ... : ... .. 7 ... ... : ... .. . ... ...
ROW 64 : ... .. . ... ... ... : ... .. 5 ... ... ... : G#2 00 . ... : ... .. 2 ... : ... .. . ... ... : ... .. . ... ... : ... .. . ... ... : ... .. . ... ...
ROW 65 : ... .. . ... ... ... : ... .. . ... ... ... : --- .. . ... : ... .. 0 ... : ... .. . ... ... : ... .. 6 ... ... : ... .. 6 ... ... : --- .. . P7E ...
ROW 66 : ... .. . ... ... ... : G#4 00 9 ... ... ... : G#2 00 . ... : D-# 00 F ... : ... .. . ... ... : ... .. . ... ... : D#3 01 A ... ... : G#1 01 F P80 ...
ROW 67 : ... .. . ... ... ... : ... .. 8 ... ... ... : ... .. . ... : ... .. C ... : ... .. . ... ... : ... .. 5 ... ... : ... .. 9 ... ... : ... .. D ... ...
ROW 68 : ... .. . ... ... ... : ... .. . ... ... ... : ... .. . ... : ... .. 6 ... : ... .. . ... ... : ... .. . ... ... : ... .. 8 ... ... : ... .. 8 ... ...
ROW 69 : ... .. . ... ... ... : B-4 00 4 ... ... ... : ... .. . ... : ... .. 3 ... : ... .. . ... ... : --- .. . ... ... : ... .. 7 ... ... : ... .. . ... ...
ROW 6A : ... .. . ... ... ... : ... .. 3 ... ... ... : ... .. . ... : ... .. 2 ... : ... .. . ... ... : ... .. . ... ... : ... .. . ... ... : ... .. . ... ...
ROW 6B : ... .. . ... ... ... : ... .. . ... ... ... : --- .. . ... : ... .. 0 ... : ... .. . ... ... : ... .. . ... ... : ... .. 6 ... ... : --- .. . P7E ...
ROW 6C : ... .. . ... ... ... : ... .. 9 ... ... ... : F#3 00 . ... : ... .. F ... : ... .. . ... ... : G#2 01 A ... ... : C#3 01 A ... ... : F#2 01 F P80 ...
ROW 6D : ... .. . ... ... ... : ... .. 8 ... ... ... : ... .. . ... : ... .. C ... : ... .. . ... ... : ... .. 9 ... ... : ... .. 9 ... ... : ... .. D ... ...
ROW 6E : ... .. . ... ... ... : ... .. . ... ... ... : ... .. . ... : ... .. 6 ... : ... .. . ... ... : ... .. 8 ... ... : ... .. 8 ... ... : ... .. 8 ... ...
ROW 6F : ... .. . ... ... ... : G#4 00 4 ... ... ... : ... .. . ... : ... .. 3 ... : ... .. . ... ... : ... .. 7 ... ... : ... .. 7 ... ... : ... .. . ... ...
ROW 70 : ... .. 2 ... ... ... : ... .. 3 ... ... ... : ... .. . ... : ... .. 2 ... : ... .. . ... ... : ... .. . ... ... : ... .. . ... ... : ... .. . ... ...
ROW 71 : ... .. . ... ... ... : ... .. . ... ... ... : --- .. . ... : ... .. 0 ... : ... .. . ... ... : ... .. 6 ... ... : ... .. 6 ... ... : --- .. . P84 ...
ROW 72 : F#4 00 F ... ... ... : ... .. 9 ... ... ... : G#2 00 . ... : 6-# 00 F ... : ... .. . ... ... : ... .. . ... ... : G#2 01 A ... ... : G#1 01 F P80 ...
ROW 73 : ... .. E ... ... ... : ... .. 8 ... ... ... : ... .. . ... : ... .. C ... : ... .. . ... ... : ... .. 5 ... ... : ... .. 9 ... ... : ... .. D ... ...
ROW 74 : ... .. D ... ... ... : ... .. . ... ... ... : ... .. . ... : ... .. 6 ... : ... .. . ... ... : ... .. . ... ... : ... .. 8 ... ... : ... .. 8 ... ...
ROW 75 : ... .. A ... ... ... : B-4 00 4 ... ... ... : ... .. . ... : ... .. 3 ... : ... .. . ... ... : --- .. . ... ... : ... .. 7 ... ... : ... .. . ... ...
ROW 76 : ... .. . ... ... ... : ... .. 3 ... ... ... : ... .. . ... : ... .. 2 ... : ... .. . ... ... : ... .. . ... ... : ... .. . ... ... : ... .. . ... ...
ROW 77 : ... .. . ... ... ... : ... .. . ... ... ... : --- .. . ... : ... .. 0 ... : ... .. . ... ... : ... .. . ... ... : ... .. 6 ... ... : --- .. . P7E ...
ROW 78 : ... .. . ... ... ... : ... .. 9 ... ... ... : F#3 00 . ... : D-# 00 F ... : ... .. . ... ... : G#2 01 A ... ... : C#3 01 A ... ... : F#2 01 F P80 ...
ROW 79 : ... .. . ... ... ... : ... .. 8 ... ... ... : ... .. . ... : ... .. C ... : ... .. . ... ... : ... .. 9 ... ... : ... .. 9 ... ... : ... .. D ... ...
ROW 7A : ... .. . ... ... ... : ... .. . ... ... ... : ... .. . ... : ... .. 6 ... : ... .. . ... ... : ... .. 8 ... ... : ... .. 8 ... ... : ... .. 8 ... ...
ROW 7B : G-4 00 A P7F ... ... : G#4 00 4 ... ... ... : ... .. . ... : ... .. 3 ... : ... .. . ... ... : --- .. . ... ... : ... .. 7 ... ... : ... .. . ... ...
ROW 7C : ... .. . P81 ... ... : ... .. 3 ... ... ... : ... .. . ... : ... .. 2 ... : ... .. . ... ... : ... .. . ... ... : ... .. . ... ... : ... .. . ... ...
ROW 7D : ... .. . P7E ... ... : ... .. . ... ... ... : --- .. . ... : ... .. 0 ... : ... .. . ... ... : ... .. . ... ... : ... .. 6 ... ... : --- .. . P84 ...
ROW 7E : F#4 00 A P80 ... ... : ... .. 9 ... ... ... : G#3 00 . ... : ... .. F ... : ... .. . ... ... : G#2 01 A ... ... : D#3 01 A ... ... : G#2 01 F P80 ...
ROW 7F : F-4 00 A P82 ... ... : ... .. 8 ... ... ... : ... .. . ... : ... .. C ... : ... .. . ... ... : ... .. 9 ... ... : ... .. 9 ... ... : ... .. D ... ...
ROW 80 : ... .. . P80 ... ... : ... .. . ... ... ... : ... .. . ... : ... .. 6 ... : ... .. . ... ... : ... .. 8 ... ... : ... .. 8 ... ... : ... .. 8 ... ...
ROW 81 : ... .. . P83 ... ... : B-4 00 4 ... ... ... : ... .. . ... : ... .. 3 ... : ... .. . ... ... : --- .. . ... ... : ... .. 7 ... ... : ... .. . ... ...
ROW 82 : F#4 00 A P80 ... ... : ... .. 3 ... ... ... : ... .. . ... : ... .. 2 ... : ... .. . ... ... : ... .. . ... ... : ... .. . ... ... : ... .. . ... ...
ROW 83 : G-4 00 A P7F ... ... : ... .. . ... ... ... : --- .. . ... : ... .. 0 ... : ... .. . ... ... : ... .. . ... ... : ... .. 6 ... ... : --- .. . P7F ...
ROW 84 : F-4 00 F P80 ... ... : C#5 00 9 ... ... ... : C-5 00 . ... : 1-# 00 F ... : ... .. . ... ... : G#2 01 A ... ... : F-3 01 A ... ... : C#2 01 F P80 ...
ROW 85 : ... .. E ... ... ... : ... .. 8 ... ... ... : D-4 00 . ... : ... .. C ... : ... .. . ... ... : ... .. 9 ... ... : ... .. 9 ... ... : ... .. D ... ...
ROW 86 : ... .. D ... ... ... : ... .. . ... ... ... : G-3 00 . ... : ... .. 6 ... : ... .. . ... ... : ... .. 8 ... ... : ... .. 8 ... ... : ... .. 8 ... ...
ROW 87 : ... .. A ... ... ... : G#4 00 4 ... ... ... : F#3 00 . ... : ... .. 3 ... : ... .. . ... ... : ... .. 7 ... ... : ... .. 7 ... ... : ... .. . ... ...
ROW 88 : ... .. 2 ... ... ... : ... .. 3 ... ... ... : C#3 00 . ... : ... .. 2 ... : ... .. . ... ... : ... .. . ... ... : ... .. . ... ... : ... .. . ... ...
ROW 89 : ... .. . ... ... ... : ... .. . ... ... ... : --- .. . ... : ... .. 0 ... : ... .. . ... ... : ... .. 6 ... ... : ... .. 6 ... ... : --- .. . ... ...
ROW 8A : D#4 00 F ... ... ... : ... .. 9 ... ... ... : C#3 00 . ... : D-# 00 F ... : ... .. . ... ... : ... .. . ... ... : C#3 01 A ... ... : C#2 01 F ... ...
ROW 8B : ... .. E ... ... ... : ... .. 8 ... ... ... : ... .. . ... : ... .. C ... : ... .. . ... ... : ... .. 5 ... ... : ... .. 9 ... ... : ... .. D ... ...
ROW 8C : ... .. D ... ... ... : ... .. . ... ... ... : ... .. . ... : ... .. 6 ... : ... .. . ... ... : ... .. . ... ... : ... .. 8 ... ... : ... .. 8 ... ...
ROW 8D : ... .. A ... ... ... : C#5 00 4 ... ... ... : ... .. . ... : ... .. 3 ... : ... .. . ... ... : --- .. . ... ... : ... .. 7 ... ... : ... .. . ... ...
ROW 8E : ... .. 2 ... ... ... : ... .. 3 ... ... ... : ... .. . ... : ... .. 2 ... : ... .. . ... ... : ... .. . ... ... : ... .. . ... ... : ... .. . ... ...
ROW 8F : ... .. . ... ... ... : ... .. . ... ... ... : --- .. . ... : ... .. 0 ... : ... .. . ... ... : ... .. . ... ... : ... .. 6 ... ... : --- .. . ... ...
ROW 90 : F-4 00 F ... ... ... : ... .. 9 ... ... ... : B-3 00 . ... : ... .. F ... : ... .. . ... ... : G#2 01 A ... ... : G#2 01 A ... ... : B-2 01 F ... ...
ROW 91 : ... .. E ... ... ... : ... .. 8 ... ... ... : ... .. . ... : ... .. C ... : ... .. . ... ... : ... .. 9 ... ... : ... .. 9 ... ... : ... .. D ... ...
ROW 92 : ... .. D ... ... ... : ... .. . ... ... ... : ... .. . ... : ... .. 6 ... : ... .. . ... ... : ... .. 8 ... ... : ... .. 8 ... ... : ... .. 8 ... ...
ROW 93 : ... .. A ... ... ... : G#4 00 4 ... ... ... : ... .. . ... : ... .. 3 ... : ... .. . ... ... : ... .. 7 ... ... : ... .. 7 ... ... : ... .. . ... ...
ROW 94 : ... .. . ... ... ... : ... .. 3 ... ... ... : ... .. . ... : ... .. 2 ... : ... .. . ... ... : ... .. . ... ... : ... .. . ... ... : ... .. . ... ...
ROW 95 : ... .. . ... ... ... : ... .. . ... ... ... : --- .. . ... : ... .. 0 ... : ... .. . ... ... : ... .. 6 ... ... : ... .. 6 ... ... : --- .. . P8B ...
ROW 96 : ... .. . ... ... ... : ... .. 9 ... ... ... : C#4 00 . ... : 6-# 00 F ... : ... .. . ... ... : --- .. . ... ... : F-2 01 A ... ... : C#3 01 F P80 ...
ROW 97 : ... .. . ... ... ... : ... .. 8 ... ... ... : ... .. . ... : ... .. C ... : ... .. . ... ... : ... .. . ... ... : ... .. 9 ... ... : ... .. D ... ...
ROW 98 : ... .. . ... ... ... : ... .. . ... ... ... : ... .. . ... : ... .. 6 ... : ... .. . ... ... : ... .. . ... ... : ... .. 8 ... ... : ... .. 8 ... ...
ROW 99 : ... .. . ... ... ... : C#5 00 4 ... ... ... : ... .. . ... : ... .. 3 ... : ... .. . ... ... : ... .. . ... ... : ... .. 7 ... ... : ... .. . ... ...
ROW 9A : ... .. 2 ... ... ... : ... .. 3 ... ... ... : ... .. . ... : ... .. 2 ... : ... .. . ... ... : ... .. . ... ... : ... .. . ... ... : ... .. . ... ...
ROW 9B : ... .. . ... ... ... : ... .. . ... ... ... : --- .. . ... : ... .. 0 ... : ... .. . ... ... : ... .. . ... ... : ... .. 6 ... ... : --- .. . ... ...
ROW 9C : G#3 00 F ... ... ... : ... .. 9 ... ... ... : C#3 00 . ... : 1-# 00 F ... : ... .. . ... ... : G#2 01 A ... ... : G#2 01 A ... ... : C#2 01 F ... ...
ROW 9D : ... .. E ... ... ... : ... .. 8 ... ... ... : ... .. . ... : ... .. C ... : ... .. . ... ... : ... .. 9 ... ... : ... .. 9 ... ... : ... .. D ... ...
ROW 9E : ... .. D ... ... ... : ... .. . ... ... ... : ... .. . ... : ... .. 6 ... : ... .. . ... ... : ... .. 8 ... ... : ... .. 8 ... ... : ... .. 8 ... ...
ROW 9F : ... .. A ... ... ... : G#4 00 4 ... ... ... : ... .. . ... : ... .. 3 ... : ... .. . ... ... : --- .. . ... ... : ... .. 7 ... ... : ... .. . ... ...
ROW A0 : ... .. . ... ... ... : ... .. 3 ... ... ... : ... .. . ... : ... .. 2 ... : ... .. . ... ... : ... .. . ... ... : ... .. . ... ... : ... .. . ... ...
ROW A1 : ... .. . ... ... ... : ... .. . ... ... ... : --- .. . ... : ... .. 0 ... : ... .. . ... ... : ... .. . ... ... : ... .. 6 ... ... : --- .. . ... ...
ROW A2 : ... .. . ... ... ... : ... .. 9 ... ... ... : C#3 00 . ... : 6-# 00 F ... : ... .. . ... ... : G#2 01 A ... ... : C#3 01 A ... ... : C#2 01 F ... ...
ROW A3 : ... .. . ... ... ... : ... .. 8 ... ... ... : ... .. . ... : ... .. C ... : ... .. . ... ... : ... .. 9 ... ... : ... .. 9 ... ... : ... .. D ... ...
ROW A4 : ... .. . ... ... ... : ... .. . ... ... ... : ... .. . ... : ... .. 6 ... : ... .. . ... ... : ... .. 8 ... ... : ... .. 8 ... ... : ... .. 8 ... ...
ROW A5 : ... .. . ... ... ... : C#5 00 4 ... ... ... : ... .. . ... : ... .. 3 ... : ... .. . ... ... : --- .. . ... ... : ... .. 7 ... ... : ... .. . ... ...
ROW A6 : ... .. 2 ... ... ... : ... .. 3 ... ... ... : ... .. . ... : ... .. 2 ... : ... .. . ... ... : ... .. . ... ... : ... .. . ... ... : ... .. . ... ...
ROW A7 : ... .. . ... ... ... : ... .. . ... ... ... : --- .. . ... : ... .. 0 ... : ... .. . ... ... : ... .. . ... ... : ... .. 6 ... ... : --- .. . ... ...
ROW A8 : E-4 00 F ... ... ... : B-4 00 9 ... ... ... : A#4 00 . ... : 1-# 00 F ... : ... .. . ... ... : E-3 01 A ... ... : E-3 01 A ... ... : B-1 01 F ... ...
ROW A9 : ... .. E ... ... ... : ... .. 8 ... ... ... : C-4 00 . ... : ... .. C ... : ... .. . ... ... : ... .. 9 ... ... : ... .. 9 ... ... : ... .. D ... ...
ROW AA : ... .. D ... ... ... : ... .. . ... ... ... : F-3 00 . ... : ... .. 6 ... : ... .. . ... ... : ... .. 8 ... ... : ... .. 8 ... ... : ... .. 8 ... ...
ROW AB : ... .. A ... ... ... : G#4 00 4 ... ... ... : E-3 00 . ... : ... .. 3 ... : ... .. . ... ... : ... .. 7 ... ... : ... .. 7 ... ... : ... .. . ... ...
ROW AC : ... .. 2 ... ... ... : ... .. 3 ... ... ... : B-2 00 . ... : ... .. 2 ... : ... .. . ... ... : ... .. . ... ... : ... .. . ... ... : ... .. . ... ...
ROW AD : ... .. . ... ... ... : ... .. . ... ... ... : ... .. . ... : ... .. 0 ... : ... .. . ... ... : ... .. 6 ... ... : ... .. 6 ... ... : ... .. . ... ...
ROW AE : D#4 00 F ... ... ... : ... .. 9 ... ... ... : ... .. . ... : D-# 00 F ... : ... .. . ... ... : --- .. . P82 ... : B-2 01 A ... ... : ... .. . ... ...
ROW AF : ... .. E ... ... ... : ... .. 8 ... ... ... : ... .. . ... : ... .. C ... : ... .. . ... ... : ... .. . ... ... : ... .. 9 ... ... : ... .. . ... ...
ROW B0 : ... .. D ... ... ... : ... .. . ... ... ... : ... .. . ... : ... .. 6 ... : ... .. . ... ... : ... .. . ... ... : ... .. 8 ... ... : ... .. . ... ...
ROW B1 : ... .. A ... ... ... : B-4 00 4 ... ... ... : ... .. . ... : ... .. 3 ... : ... .. . ... ... : ... .. . ... ... : ... .. 7 ... ... : ... .. . ... ...
ROW B2 : ... .. 2 ... ... ... : ... .. 3 ... ... ... : ... .. . ... : ... .. 2 ... : ... .. . ... ... : ... .. . ... ... : ... .. . ... ... : ... .. . ... ...
ROW B3 : ... .. . ... ... ... : ... .. . ... ... ... : ... .. . ... : ... .. 0 ... : ... .. . ... ... : ... .. . ... ... : ... .. 6 ... ... : ... .. . ... ...
ROW B4 : E-4 00 F ... ... ... : ... .. 9 ... ... ... : ... .. . ... : ... .. F ... : ... .. . ... ... : E-3 01 A P80 ... : G#2 01 A ... ... : ... .. . ... ...
ROW B5 : ... .. E ... ... ... : ... .. 8 ... ... ... : ... .. . ... : ... .. C ... : ... .. . ... ... : ... .. 9 ... ... : ... .. 9 ... ... : ... .. . ... ...
ROW B6 : ... .. D ... ... ... : ... .. . ... ... ... : ... .. . ... : ... .. 6 ... : ... .. . ... ... : ... .. 8 ... ... : ... .. 8 ... ... : ... .. . ... ...
ROW B7 : ... .. A ... ... ... : G#4 00 4 ... ... ... : ... .. . ... : ... .. 3 ... : ... .. . ... ... : ... .. 7 ... ... : ... .. 7 ... ... : ... .. . ... ...
ROW B8 : ... .. . ... ... ... : ... .. 3 ... ... ... : ... .. . ... : ... .. 2 ... : ... .. . ... ... : ... .. . ... ... : ... .. . ... ... : ... .. . ... ...
ROW B9 : ... .. . ... ... ... : ... .. . ... ... ... : --- .. . ... : ... .. 0 ... : ... .. . ... ... : ... .. 6 ... ... : ... .. 6 ... ... : --- .. . P86 ...
ROW BA : ... .. . ... ... ... : ... .. 9 ... ... ... : G#3 00 . ... : 8-# 00 F ... : ... .. . ... ... : --- .. . P82 ... : G#3 01 A ... ... : G#2 01 F P80 ...
ROW BB : ... .. . ... ... ... : ... .. 8 ... ... ... : ... .. . ... : ... .. C ... : ... .. . ... ... : ... .. . ... ... : ... .. 9 ... ... : ... .. D ... ...
ROW BC : ... .. . ... ... ... : ... .. . ... ... ... : ... .. . ... : ... .. 6 ... : ... .. . ... ... : ... .. . ... ... : ... .. 8 ... ... : ... .. 8 ... ...
ROW BD : ... .. . ... ... ... : B-4 00 4 ... ... ... : ... .. . ... : ... .. 3 ... : ... .. . ... ... : ... .. . ... ... : ... .. 7 ... ... : ... .. . ... ...
ROW BE : ... .. 2 ... ... ... : ... .. 3 ... ... ... : ... .. . ... : ... .. 2 ... : ... .. . ... ... : ... .. . ... ... : ... .. . ... ... : ... .. . ... ...
ROW BF : ... .. . ... ... ... : ... .. . ... ... ... : ... .. . ... : ... .. 0 ... : ... .. . ... ... : ... .. . ... ... : ... .. 6 ... ... : ... .. . ... ...
ROW C0 : G#3 00 F ... ... ... : ... .. 9 ... ... ... : ... .. . ... : 4-# 00 F ... : ... .. . ... ... : E-3 01 A P80 ... : E-3 01 A ... ... : ... .. . ... ...
ROW C1 : ... .. E ... ... ... : ... .. 8 ... ... ... : ... .. . ... : ... .. C ... : ... .. . ... ... : ... .. 9 ... ... : ... .. 9 ... ... : ... .. . ... ...
ROW C2 : ... .. D ... ... ... : ... .. . ... ... ... : ... .. . ... : ... .. 6 ... : ... .. . ... ... : ... .. 8 ... ... : ... .. 8 ... ... : ... .. . ... ...
ROW C3 : ... .. A ... ... ... : G#4 00 4 ... ... ... : ... .. . ... : ... .. 3 ... : ... .. . ... ... : --- .. . P82 ... : ... .. 7 ... ... : ... .. . ... ...
ROW C4 : ... .. . ... ... ... : ... .. 3 ... ... ... : ... .. . ... : ... .. 2 ... : ... .. . ... ... : ... .. . ... ... : ... .. . ... ... : ... .. . ... ...
ROW C5 : ... .. . ... ... ... : ... .. . ... ... ... : ... .. . ... : ... .. 0 ... : ... .. . ... ... : ... .. . ... ... : ... .. 6 ... ... : ... .. . ... ...
ROW C6 : ... .. . ... ... ... : ... .. 9 ... ... ... : ... .. . ... : 1-# 00 F ... : ... .. . ... ... : E-3 01 A P80 ... : B-2 01 A ... ... : ... .. . ... ...
ROW C7 : ... .. . ... ... ... : ... .. 8 ... ... ... : ... .. . ... : ... .. C ... : ... .. . ... ... : ... .. 9 ... ... : ... .. 9 ... ... : ... .. . ... ...
ROW C8 : ... .. . ... ... ... : ... .. . ... ... ... : ... .. . ... : ... .. 6 ... : ... .. . ... ... : ... .. 8 ... ... : ... .. 8 ... ... : ... .. . ... ...
ROW C9 : ... .. . ... ... ... : B-4 00 4 ... ... ... : ... .. . ... : ... .. 3 ... : ... .. . ... ... : --- .. . P82 ... : ... .. 7 ... ... : ... .. . ... ...
ROW CA : ... .. 2 ... ... ... : ... .. 3 ... ... ... : ... .. . ... : ... .. 2 ... : ... .. . ... ... : ... .. . ... ... : ... .. . ... ... : ... .. . ... ...
ROW CB : ... .. . ... ... ... : ... .. . ... ... ... : --- .. . ... : ... .. 0 ... : ... .. . ... ... : ... .. . ... ... : ... .. 6 ... ... : --- .. . P7F ...
ROW CC : D#4 00 F ... ... ... : ... .. 9 ... ... ... : D-5 00 . ... : 7-# 00 F ... : ... .. . ... ... : D#3 01 A P80 ... : G#3 01 A ... ... : D#2 01 F P80 ...
ROW CD : ... .. E ... ... ... : ... .. 8 ... ... ... : E-4 00 . ... : ... .. C ... : ... .. . ... ... : ... .. 9 ... ... : ... .. 9 ... ... : ... .. D ... ...
ROW CE : ... .. D ... ... ... : ... .. . ... ... ... : A-3 00 . ... : ... .. 6 ... : ... .. . ... ... : ... .. 8 ... ... : ... .. 8 ... ... : ... .. 8 ... ...
ROW CF : ... .. A ... ... ... : G#4 00 4 ... ... ... : G#3 00 . ... : ... .. 3 ... : ... .. . ... ... : --- .. . P83 ... : ... .. 7 ... ... : ... .. . ... ...
ROW D0 : ... .. 2 ... ... ... : ... .. 3 ... ... ... : D#3 00 . ... : ... .. 2 ... : ... .. . ... ... : ... .. . ... ... : ... .. . ... ... : ... .. . ... ...
ROW D1 : ... .. . ... ... ... : ... .. . ... ... ... : --- .. . ... : ... .. 0 ... : ... .. . ... ... : ... .. . ... ... : ... .. 6 ... ... : --- .. . ... ...
ROW D2 : C#4 00 F ... ... ... : F#4 00 9 ... ... ... : C#3 00 . ... : 3-# 00 F ... : ... .. . ... ... : D#3 01 A P80 ... : D#3 01 A ... ... : C#2 01 F ... ...
ROW D3 : ... .. E ... ... ... : ... .. 8 ... ... ... : ... .. . ... : ... .. C ... : ... .. . ... ... : ... .. 9 ... ... : ... .. 9 ... ... : ... .. D ... ...
ROW D4 : ... .. D ... ... ... : ... .. . ... ... ... : ... .. . ... : ... .. 6 ... : ... .. . ... ... : ... .. 8 ... ... : ... .. 8 ... ... : ... .. 8 ... ...
ROW D5 : ... .. A ... ... ... : B-4 00 4 ... ... ... : ... .. . ... : ... .. 3 ... : ... .. . ... ... : --- .. . P83 ... : ... .. 7 ... ... : ... .. . ... ...
ROW D6 : ... .. 2 ... ... ... : ... .. 3 ... ... ... : ... .. . ... : ... .. 2 ... : ... .. . ... ... : ... .. . ... ... : ... .. . ... ... : ... .. . ... ...
ROW D7 : ... .. . ... ... ... : ... .. . ... ... ... : --- .. . ... : ... .. 0 ... : ... .. . ... ... : ... .. . ... ... : ... .. 6 ... ... : --- .. . ... ...
ROW D8 : D#4 00 F ... ... ... : D#4 00 9 ... ... ... : B-2 00 . ... : 1-# 00 F ... : ... .. . ... ... : C#3 01 A P80 ... : B-2 01 A ... ... : B-1 01 F ... ...
ROW D9 : ... .. E ... ... ... : ... .. 8 ... ... ... : ... .. . ... : ... .. C ... : ... .. . ... ... : ... .. 9 ... ... : ... .. 9 ... ... : ... .. D ... ...
ROW DA : ... .. D ... ... ... : ... .. . ... ... ... : ... .. . ... : ... .. 6 ... : ... .. . ... ... : ... .. 8 ... ... : ... .. 8 ... ... : ... .. 8 ... ...
ROW DB : ... .. A ... ... ... : F#4 00 4 ... ... ... : ... .. . ... : ... .. 3 ... : ... .. . ... ... : --- .. . P83 ... : ... .. 7 ... ... : ... .. . ... ...
ROW DC : ... .. . ... ... ... : ... .. 3 ... ... ... : ... .. . ... : ... .. 2 ... : ... .. . ... ... : ... .. . ... ... : ... .. . ... ... : ... .. . ... ...
ROW DD : ... .. . ... ... ... : ... .. . ... ... ... : --- .. . ... : ... .. 0 ... : ... .. . ... ... : ... .. . ... ... : ... .. 6 ... ... : --- .. . P86 ...
ROW DE : E-4 00 A P7D ... ... : A#4 00 9 ... ... ... : A#2 00 . ... : 6-# 00 F ... : ... .. . ... ... : D#3 01 A P80 ... : C#3 01 A ... ... : A#1 01 F P80 ...
ROW DF : ... .. . P7F ... ... : ... .. 8 ... ... ... : ... .. . ... : ... .. C ... : ... .. . ... ... : ... .. 9 ... ... : ... .. 9 ... ... : ... .. D ... ...
ROW E0 : ... .. . P7C ... ... : ... .. . ... ... ... : ... .. . ... : ... .. 6 ... : ... .. . ... ... : ... .. 8 ... ... : ... .. 8 ... ... : ... .. 8 ... ...
ROW E1 : D#4 00 A P80 ... ... : D#4 00 4 ... ... ... : ... .. . ... : ... .. 3 ... : ... .. . ... ... : ... .. 7 ... ... : ... .. 7 ... ... : ... .. . ... ...
ROW E2 : D-4 00 2 P83 ... ... : ... .. 3 ... ... ... : ... .. . ... : ... .. 2 ... : ... .. . ... ... : ... .. . ... ... : ... .. . ... ... : ... .. . ... ...
ROW E3 : ... .. . P81 ... ... : ... .. . ... ... ... : --- .. . ... : ... .. 0 ... : ... .. . ... ... : ... .. 6 ... ... : ... .. 6 ... ... : --- .. . ... ...
ROW E4 : F#3 00 F P80 ... ... : F#4 00 9 ... ... ... : G#2 00 . ... : 2-# 00 F ... : ... .. . ... ... : ... .. . ... ... : B-2 01 A ... ... : G#1 01 F ... ...
ROW E5 : ... .. E ... ... ... : ... .. 8 ... ... ... : ... .. . ... : ... .. C ... : ... .. . ... ... : ... .. 5 ... ... : ... .. 9 ... ... : ... .. D ... ...
ROW E6 : ... .. D ... ... ... : ... .. . ... ... ... : ... .. . ... : ... .. 6 ... : ... .. . ... ... : ... .. . ... ... : ... .. 8 ... ... : ... .. 8 ... ...
ROW E7 : ... .. A ... ... ... : A#4 00 4 ... ... ... : ... .. . ... : ... .. 3 ... : ... .. . ... ... : ... .. . P8A ... : ... .. 7 ... ... : ... .. . ... ...
ROW E8 : ... .. 2 ... ... ... : ... .. 3 ... ... ... : ... .. . ... : ... .. 2 ... : ... .. . ... ... : E-3 01 5 P7B ... : ... .. . ... ... : ... .. . ... ...
ROW E9 : ... .. . ... ... ... : ... .. . ... ... ... : --- .. . ... : ... .. 0 ... : ... .. . ... ... : ... .. . P79 ... : ... .. 6 ... ... : --- .. . P7E ...
ROW EA : G#3 00 F ... ... ... : C#4 00 9 ... ... ... : F#2 00 . ... : 1-# 00 F ... : ... .. . ... ... : D#3 01 5 P84 ... : A#2 01 A ... ... : F#1 01 F P80 ...
ROW EB : ... .. E ... ... ... : ... .. 8 ... ... ... : ... .. . ... : ... .. C ... : ... .. . ... ... : ... .. . P7C ... : ... .. 9 ... ... : ... .. D ... ...
ROW EC : ... .. D ... ... ... : ... .. . ... ... ... : ... .. . ... : ... .. 6 ... : ... .. . ... ... : D-3 01 5 P87 ... : ... .. 8 ... ... : ... .. 8 ... ...
ROW ED : ... .. A ... ... ... : F#4 00 4 ... ... ... : ... .. . ... : ... .. 3 ... : ... .. . ... ... : ... .. . P85 ... : ... .. 7 ... ... : ... .. . ... ...
ROW EE : ... .. 2 ... ... ... : ... .. 3 ... ... ... : ... .. . ... : ... .. 2 ... : ... .. . ... ... : D#3 01 5 P76 ... : ... .. . ... ... : ... .. . ... ...
ROW EF : ... .. . ... ... ... : ... .. . ... ... ... : --- .. . ... : ... .. 0 ... : ... .. . ... ... : ... .. . P80 ... : ... .. 6 ... ... : --- .. . P81 ...
ROW F0 : D#4 00 F ... ... ... : B-4 00 9 ... ... ... : G-4 00 . ... : ... .. F ... : ... .. . ... ... : G#3 01 A ... ... : B-2 01 A ... ... : G#1 01 F P80 ...
ROW F1 : ... .. E ... ... ... : ... .. 8 ... ... ... : A-3 00 . ... : ... .. C ... : ... .. . ... ... : ... .. 9 ... ... : ... .. 9 ... ... : ... .. D ... ...
ROW F2 : ... .. D ... ... ... : ... .. . ... ... ... : D-3 00 . ... : ... .. 6 ... : ... .. . ... ... : ... .. 8 ... ... : ... .. 8 ... ... : ... .. 8 ... ...
ROW F3 : ... .. A ... ... ... : C#4 00 4 ... ... ... : C#3 00 . ... : ... .. 3 ... : ... .. . ... ... : ... .. 7 ... ... : ... .. 7 ... ... : ... .. . ... ...
ROW F4 : ... .. . ... ... ... : ... .. 3 ... ... ... : G#2 00 . ... : ... .. 2 ... : ... .. . ... ... : ... .. . ... ... : ... .. . ... ... : ... .. . ... ...
ROW F5 : ... .. . ... ... ... : ... .. . ... ... ... : --- .. . ... : ... .. 0 ... : ... .. . ... ... : ... .. 6 ... ... : ... .. 6 ... ... : --- .. . P7E ...
ROW F6 : ... .. . ... ... ... : G#4 00 9 ... ... ... : G#2 00 . ... : D-# 00 F ... : ... .. . ... ... : ... .. . ... ... : G#2 01 A ... ... : G#1 01 F P80 ...
ROW F7 : ... .. . ... ... ... : ... .. 8 ... ... ... : ... .. . ... : ... .. C ... : ... .. . ... ... : ... .. 5 ... ... : ... .. 9 ... ... : ... .. D ... ...
ROW F8 : ... .. . ... ... ... : ... .. . ... ... ... : ... .. . ... : ... .. 6 ... : ... .. . ... ... : ... .. . ... ... : ... .. 8 ... ... : ... .. 8 ... ...
ROW F9 : ... .. . ... ... ... : B-4 00 4 ... ... ... : ... .. . ... : ... .. 3 ... : ... .. . ... ... : --- .. . P82 ... : ... .. 7 ... ... : ... .. . ... ...
ROW FA : ... .. . ... ... ... : ... .. 3 ... ... ... : ... .. . ... : ... .. 2 ... : ... .. . ... ... : ... .. . ... ... : ... .. . ... ... : ... .. . ... ...
ROW FB : ... .. . ... ... ... : ... .. . ... ... ... : ... .. . ... : ... .. 0 ... : ... .. . ... ... : ... .. . ... ... : ... .. 6 ... ... : ... .. . ... ...
ROW FC : ... .. . ... ... ... : ... .. 9 ... ... ... : ... .. . ... : ... .. F ... : ... .. . ... ... : G#3 01 A P80 ... : D#2 01 A ... ... : ... .. . ... ...
ROW FD : ... .. . ... ... ... : ... .. 8 ... ... ... : ... .. . ... : ... .. C ... : ... .. . ... ... : ... .. 9 ... ... : ... .. 9 ... ... : ... .. . ... ...
ROW FE : ... .. . ... ... ... : ... .. . ... ... ... : ... .. . ... : ... .. 6 ... : ... .. . ... ... : ... .. 8 ... ... : ... .. 8 ... ... : ... .. . ... ...
ROW FF : ... .. . ... ... ... : G#4 00 4 ... ... ... : ... .. . ... : ... .. 3 ... : ... .. . ... ... : ... .. 7 ... ... : ... .. 7 ... ... : ... .. . ... ...

PATTERN 04
ROW 00 : ... .. 2 ... ... ... : ... .. 3 ... ... ... : ... .. . ... : ... .. 2 ... : ... .. . ... ... : ... .. . ... ... : ... .. . ... ... : ... .. . ... ...
ROW 01 : ... .. . ... ... ... : ... .. . ... ... ... : --- .. . ... : ... .. 0 ... : ... .. . ... ... : ... .. 6 ... ... : ... .. 6 ... ... : --- .. . P7E ...
ROW 02 : F#4 00 F ... ... ... : ... .. 9 ... ... ... : G#3 00 . ... : 6-# 00 F ... : ... .. . ... ... : ... .. . ... ... : D#3 01 A ... ... : G#2 01 F P80 ...
ROW 03 : ... .. E ... ... ... : ... .. 8 ... ... ... : ... .. . ... : ... .. C ... : ... .. . ... ... : ... .. 5 ... ... : ... .. 9 ... ... : ... .. D ... ...
ROW 04 : ... .. D ... ... ... : ... .. . ... ... ... : ... .. . ... : ... .. 6 ... : ... .. . ... ... : ... .. . ... ... : ... .. 8 ... ... : ... .. 8 ... ...
ROW 05 : ... .. A ... ... ... : B-4 00 4 ... ... ... : ... .. . ... : ... .. 3 ... : ... .. . ... ... : --- .. . P82 ... : ... .. 7 ... ... : ... .. . ... ...
ROW 06 : ... .. . ... ... ... : ... .. 3 ... ... ... : ... .. . ... : ... .. 2 ... : ... .. . ... ... : ... .. . ... ... : ... .. . ... ... : ... .. . ... ...
ROW 07 : ... .. . ... ... ... : ... .. . ... ... ... : ... .. . ... : ... .. 0 ... : ... .. . ... ... : ... .. . ... ... : ... .. 6 ... ... : ... .. . ... ...
ROW 08 : ... .. . ... ... ... : ... .. 9 ... ... ... : ... .. . ... : D-# 00 F ... : ... .. . ... ... : G#3 01 A P80 ... : B-2 01 A ... ... : ... .. . ... ...
ROW 09 : ... .. . ... ... ... : ... .. 8 ... ... ... : ... .. . ... : ... .. C ... : ... .. . ... ... : ... .. 9 ... ... : ... .. 9 ... ... : ... .. . ... ...
ROW 0A : ... .. . ... ... ... : ... .. . ... ... ... : ... .. . ... : ... .. 6 ... : ... .. . ... ... : ... .. 8 ... ... : ... .. 8 ... ... : ... .. . ... ...
ROW 0B : G-4 00 A P7F ... ... : G#4 00 4 ... ... ... : ... .. . ... : ... .. 3 ... : ... .. . ... ... : --- .. . P82 ... : ... .. 7 ... ... : ... .. . ... ...
ROW 0C : ... .. . P81 ... ... : ... .. 3 ... ... ... : ... .. . ... : ... .. 2 ... : ... .. . ... ... : ... .. . ... ... : ... .. . ... ... : ... .. . ... ...
ROW 0D : ... .. . P7E ... ... : ... .. . ... ... ... : --- .. . ... : ... .. 0 ... : ... .. . ... ... : ... .. . ... ... : ... .. 6 ... ... : --- .. . P7F ...
ROW 0E : F#4 00 A P80 ... ... : ... .. 9 ... ... ... : G#2 00 . ... : ... .. F ... : ... .. . ... ... : G#3 01 A P80 ... : G#2 01 A ... ... : G#1 01 F P80 ...
ROW 0F : F-4 00 A P82 ... ... : ... .. 8 ... ... ... : ... .. . ... : ... .. C ... : ... .. . ... ... : ... .. 9 ... ... : ... .. 9 ... ... : ... .. D ... ...
ROW 10 : ... .. . P80 ... ... : ... .. . ... ... ... : ... .. . ... : ... .. 6 ... : ... .. . ... ... : ... .. 8 ... ... : ... .. 8 ... ... : ... .. 8 ... ...
ROW 11 : ... .. . P83 ... ... : B-4 00 4 ... ... ... : ... .. . ... : ... .. 3 ... : ... .. . ... ... : --- .. . P82 ... : ... .. 7 ... ... : ... .. . ... ...
ROW 12 : F#4 00 2 P80 ... ... : ... .. 3 ... ... ... : ... .. . ... : ... .. 2 ... : ... .. . ... ... : ... .. . ... ... : ... .. . ... ... : ... .. . ... ...
ROW 13 : G-4 00 2 P7F ... ... : ... .. . ... ... ... : --- .. . ... : ... .. 0 ... : ... .. . ... ... : ... .. . ... ... : ... .. 6 ... ... : --- .. . P7E ...
ROW 14 : F-4 00 F P80 ... ... : C#5 00 9 ... ... ... : C-5 00 . ... : 1-# 00 F ... : ... .. . ... ... : G#3 01 A P80 ... : F-3 01 A ... ... : C#2 01 F P80 ...
ROW 15 : ... .. E ... ... ... : ... .. 8 ... ... ... : D-4 00 . ... : ... .. C ... : ... .. . ... ... : ... .. 9 ... ... : ... .. 9 ... ... : ... .. D ... ...
ROW 16 : ... .. D ... ... ... : ... .. . ... ... ... : G-3 00 . ... : ... .. 6 ... : ... .. . ... ... : ... .. 8 ... ... : ... .. 8 ... ... : ... .. 8 ... ...
ROW 17 : ... .. A ... ... ... : G#4 00 4 ... ... ... : F#3 00 . ... : ... .. 3 ... : ... .. . ... ... : ... .. 7 ... ... : ... .. 7 ... ... : ... .. . ... ...
ROW 18 : ... .. 2 ... ... ... : ... .. 3 ... ... ... : C#3 00 . ... : ... .. 2 ... : ... .. . ... ... : ... .. . ... ... : ... .. . ... ... : ... .. . ... ...
ROW 19 : ... .. . ... ... ... : ... .. . ... ... ... : --- .. . ... : ... .. 0 ... : ... .. . ... ... : ... .. 6 ... ... : ... .. 6 ... ... : --- .. . ... ...
ROW 1A : D#4 00 F ... ... ... : ... .. 9 ... ... ... : C#3 00 . ... : D-# 00 F ... : ... .. . ... ... : ... .. . ... ... : C#3 01 A ... ... : C#2 01 F ... ...
ROW 1B : ... .. E ... ... ... : ... .. 8 ... ... ... : ... .. . ... : ... .. C ... : ... .. . ... ... : ... .. 5 ... ... : ... .. 9 ... ... : ... .. D ... ...
ROW 1C : ... .. D ... ... ... : ... .. . ... ... ... : ... .. . ... : ... .. 6 ... : ... .. . ... ... : ... .. . ... ... : ... .. 8 ... ... : ... .. 8 ... ...
ROW 1D : ... .. A ... ... ... : C#5 00 4 ... ... ... : ... .. . ... : ... .. 3 ... : ... .. . ... ... : --- .. . P82 ... : ... .. 7 ... ... : ... .. . ... ...
ROW 1E : ... .. 2 ... ... ... : ... .. 3 ... ... ... : ... .. . ... : ... .. 2 ... : ... .. . ... ... : ... .. . ... ... : ... .. . ... ... : ... .. . ... ...
ROW 1F : ... .. . ... ... ... : ... .. . ... ... ... : --- .. . ... : ... .. 0 ... : ... .. . ... ... : ... .. . ... ... : ... .. 6 ... ... : --- .. . ... ...
ROW 20 : F-4 00 F ... ... ... : ... .. 9 ... ... ... : B-3 00 . ... : ... .. F ... : ... .. . ... ... : G#3 01 A P80 ... : G#2 01 A ... ... : B-2 01 F ... ...
ROW 21 : ... .. E ... ... ... : ... .. 8 ... ... ... : ... .. . ... : ... .. C ... : ... .. . ... ... : ... .. 9 ... ... : ... .. 9 ... ... : ... .. D ... ...
ROW 22 : ... .. D ... ... ... : ... .. . ... ... ... : ... .. . ... : ... .. 6 ... : ... .. . ... ... : ... .. 8 ... ... : ... .. 8 ... ... : ... .. 8 ... ...
ROW 23 : ... .. A ... ... ... : G#4 00 4 ... ... ... : ... .. . ... : ... .. 3 ... : ... .. . ... ... : ... .. 7 ... ... : ... .. 7 ... ... : ... .. . ... ...
ROW 24 : ... .. . ... ... ... : ... .. 3 ... ... ... : ... .. . ... : ... .. 2 ... : ... .. . ... ... : ... .. . ... ... : ... .. . ... ... : ... .. . ... ...
ROW 25 : ... .. . ... ... ... : ... .. . ... ... ... : --- .. . ... : ... .. 0 ... : ... .. . ... ... : ... .. 6 ... ... : ... .. 6 ... ... : --- .. . P8B ...
ROW 26 : ... .. . ... ... ... : ... .. 9 ... ... ... : C#4 00 . ... : 6-# 00 F ... : ... .. . ... ... : --- .. . P82 ... : G#3 01 A ... ... : C#3 01 F P80 ...
ROW 27 : ... .. . ... ... ... : ... .. 8 ... ... ... : ... .. . ... : ... .. C ... : ... .. . ... ... : ... .. . ... ... : ... .. 9 ... ... : ... .. D ... ...
ROW 28 : ... .. . ... ... ... : ... .. . ... ... ... : ... .. . ... : ... .. 6 ... : ... .. . ... ... : ... .. . ... ... : ... .. 8 ... ... : ... .. 8 ... ...
ROW 29 : ... .. . ... ... ... : C#5 00 4 ... ... ... : ... .. . ... : ... .. 3 ... : ... .. . ... ... : ... .. . ... ... : ... .. 7 ... ... : ... .. . ... ...
ROW 2A : ... .. 2 ... ... ... : ... .. 3 ... ... ... : ... .. . ... : ... .. 2 ... : ... .. . ... ... : ... .. . ... ... : ... .. . ... ... : ... .. . ... ...
ROW 2B : ... .. . ... ... ... : ... .. . ... ... ... : --- .. . ... : ... .. 0 ... : ... .. . ... ... : ... .. . ... ... : ... .. 6 ... ... : --- .. . ... ...
ROW 2C : G#3 00 F ... ... ... : ... .. 9 ... ... ... : F-4 00 . ... : 1-# 00 F ... : ... .. . ... ... : G#3 01 A P80 ... : F-3 01 A ... ... : F-3 01 F ... ...
ROW 2D : ... .. E ... ... ... : ... .. 8 ... ... ... : ... .. . ... : ... .. C ... : ... .. . ... ... : ... .. 9 ... ... : ... .. 9 ... ... : ... .. D ... ...
ROW 2E : ... .. D ... ... ... : ... .. . ... ... ... : ... .. . ... : ... .. 6 ... : ... .. . ... ... : ... .. 8 ... ... : ... .. 8 ... ... : ... .. 8 ... ...
ROW 2F : ... .. A ... ... ... : G#4 00 4 ... ... ... : ... .. . ... : ... .. 3 ... : ... .. . ... ... : --- .. . P82 ... : ... .. 7 ... ... : ... .. . ... ...
ROW 30 : ... .. . ... ... ... : ... .. 3 ... ... ... : ... .. . ... : ... .. 2 ... : ... .. . ... ... : ... .. . ... ... : ... .. . ... ... : ... .. . ... ...
ROW 31 : ... .. . ... ... ... : ... .. . ... ... ... : --- .. . ... : ... .. 0 ... : ... .. . ... ... : ... .. . ... ... : ... .. 6 ... ... : --- .. . P7F ...
ROW 32 : ... .. . ... ... ... : ... .. 9 ... ... ... : F#4 00 . ... : 6-# 00 F ... : ... .. . ... ... : G#3 01 A P80 ... : C#3 01 A ... ... : F#3 01 F P80 ...
ROW 33 : ... .. . ... ... ... : ... .. 8 ... ... ... : ... .. . ... : ... .. C ... : ... .. . ... ... : ... .. 9 ... ... : ... .. 9 ... ... : ... .. D ... ...
ROW 34 : ... .. . ... ... ... : ... .. . ... ... ... : ... .. . ... : ... .. 6 ... : ... .. . ... ... : ... .. 8 ... ... : ... .. 8 ... ... : ... .. 8 ... ...
ROW 35 : ... .. . ... ... ... : C#5 00 4 ... ... ... : ... .. . ... : ... .. 3 ... : ... .. . ... ... : --- .. . P82 ... : ... .. 7 ... ... : ... .. . ... ...
ROW 36 : ... .. 2 ... ... ... : ... .. 3 ... ... ... : ... .. . ... : ... .. 2 ... : ... .. . ... ... : ... .. . ... ... : ... .. . ... ... : ... .. . ... ...
ROW 37 : ... .. . ... ... ... : ... .. . ... ... ... : --- .. . ... : ... .. 0 ... : ... .. . ... ... : ... .. . ... ... : ... .. 6 ... ... : --- .. . P82 ...
ROW 38 : E-4 00 F ... ... ... : B-4 00 9 ... ... ... : G-6 00 . ... : 1-# 00 F ... : ... .. . ... ... : G#3 01 A P80 ... : E-4 01 A ... ... : G#3 01 F P80 ...
ROW 39 : ... .. E ... ... ... : ... .. 8 ... ... ... : A-5 00 . ... : ... .. C ... : ... .. . ... ... : ... .. 9 ... ... : ... .. 9 ... ... : ... .. D ... ...
ROW 3A : ... .. D ... ... ... : ... .. . ... ... ... : D-5 00 . ... : ... .. 6 ... : ... .. . ... ... : ... .. 8 ... ... : ... .. 8 ... ... : ... .. 8 ... ...
ROW 3B : ... .. A ... ... ... : G#4 00 4 ... ... ... : C#5 00 . ... : ... .. 3 ... : ... .. . ... ... : --- .. . P82 ... : ... .. 7 ... ... : ... .. . ... ...
ROW 3C : ... .. . ... ... ... : ... .. 3 ... ... ... : G#4 00 . ... : ... .. 2 ... : ... .. . ... ... : ... .. . ... ... : ... .. . ... ... : ... .. . ... ...
ROW 3D : ... .. . ... ... ... : ... .. . ... ... ... : ... .. . ... : ... .. 0 ... : ... .. . ... ... : ... .. . ... ... : ... .. 6 ... ... : ... .. . ... ...
ROW 3E : D#4 00 F ... ... ... : E-4 00 9 ... ... ... : ... .. . ... : D-# 00 F ... : ... .. . ... ... : G#3 01 A P80 ... : B-3 01 A ... ... : ... .. . ... ...
ROW 3F : ... .. E ... ... ... : ... .. 8 ... ... ... : ... .. . ... : ... .. C ... : ... .. . ... ... : ... .. 9 ... ... : ... .. 9 ... ... : ... .. . ... ...
ROW 40 : ... .. D ... ... ... : ... .. . ... ... ... : ... .. . ... : ... .. 6 ... : ... .. . ... ... : ... .. 8 ... ... : ... .. 8 ... ... : ... .. . ... ...
ROW 41 : ... .. A ... ... ... : B-4 00 4 ... ... ... : ... .. . ... : ... .. 3 ... : ... .. . ... ... : --- .. . P82 ... : ... .. 7 ... ... : ... .. . ... ...
ROW 42 : ... .. 2 ... ... ... : ... .. 3 ... ... ... : ... .. . ... : ... .. 2 ... : ... .. . ... ... : ... .. . ... ... : ... .. . ... ... : ... .. . ... ...
ROW 43 : ... .. . ... ... ... : ... .. . ... ... ... : ... .. . ... : ... .. 0 ... : ... .. . ... ... : ... .. . ... ... : ... .. 6 ... ... : ... .. . ... ...
ROW 44 : E-4 00 F ... ... ... : G#3 00 9 ... ... ... : ... .. . ... : ... .. F ... : ... .. . ... ... : G#3 01 A P80 ... : G#3 01 A ... ... : ... .. . ... ...
ROW 45 : ... .. E ... ... ... : ... .. 8 ... ... ... : ... .. . ... : ... .. C ... : ... .. . ... ... : ... .. 9 ... ... : ... .. 9 ... ... : ... .. . ... ...
ROW 46 : ... .. D ... ... ... : ... .. . ... ... ... : ... .. . ... : ... .. 6 ... : ... .. . ... ... : ... .. 8 ... ... : ... .. 8 ... ... : ... .. . ... ...
ROW 47 : ... .. A ... ... ... : ... .. 7 ... ... ... : ... .. . ... : ... .. 3 ... : ... .. . ... ... : --- .. . P82 ... : ... .. 7 ... ... : ... .. . ... ...
ROW 48 : ... .. 2 ... ... ... : ... .. 5 ... ... ... : ... .. . ... : ... .. 2 ... : ... .. . ... ... : ... .. . ... ... : ... .. . ... ... : ... .. . ... ...
ROW 49 : ... .. . ... ... ... : ... .. . ... ... ... : --- .. . ... : ... .. 0 ... : ... .. . ... ... : ... .. . ... ... : ... .. 6 ... ... : --- .. . P7F ...
ROW 4A : F#4 00 F ... ... ... : C#5 00 9 ... ... ... : A-6 00 . ... : 8-# 00 F ... : ... .. . ... ... : F#3 01 A P80 ... : F#4 01 A ... ... : A#3 01 F P80 ...
ROW 4B : ... .. E ... ... ... : ... .. 8 ... ... ... : B-5 00 . ... : ... .. C ... : ... .. . ... ... : ... .. 9 ... ... : ... .. 9 ... ... : ... .. D ... ...
ROW 4C : ... .. D ... ... ... : ... .. . ... ... ... : E-5 00 . ... : ... .. 6 ... : ... .. . ... ... : ... .. 8 ... ... : ... .. 8 ... ... : ... .. 8 ... ...
ROW 4D : ... .. A ... ... ... : ... .. 7 ... ... ... : D#5 00 . ... : ... .. 3 ... : ... .. . ... ... : ... .. 7 ... ... : ... .. 7 ... ... : ... .. . ... ...
ROW 4E : ... .. . ... ... ... : ... .. 5 ... ... ... : A#4 00 . ... : ... .. 2 ... : ... .. . ... ... : ... .. . ... ... : ... .. . ... ... : ... .. . ... ...
ROW 4F : ... .. . ... ... ... : ... .. . ... ... ... : ... .. . ... : ... .. 0 ... : ... .. . ... ... : ... .. 6 ... ... : ... .. 6 ... ... : ... .. . ... ...
ROW 50 : C#4 00 F ... ... ... : F#4 00 9 ... ... ... : ... .. . ... : 4-# 00 F ... : ... .. . ... ... : ... .. . ... ... : C#4 01 A ... ... : ... .. . ... ...
ROW 51 : ... .. E ... ... ... : ... .. 8 ... ... ... : ... .. . ... : ... .. C ... : ... .. . ... ... : ... .. 5 ... ... : ... .. 9 ... ... : ... .. . ... ...
ROW 52 : ... .. D ... ... ... : ... .. . ... ... ... : ... .. . ... : ... .. 6 ... : ... .. . ... ... : ... .. . ... ... : ... .. 8 ... ... : ... .. . ... ...
ROW 53 : ... .. A ... ... ... : ... .. 7 ... ... ... : ... .. . ... : ... .. 3 ... : ... .. . ... ... : ... .. . ... ... : ... .. 7 ... ... : ... .. . ... ...
ROW 54 : ... .. 2 ... ... ... : ... .. 5 ... ... ... : ... .. . ... : ... .. 2 ... : ... .. . ... ... : ... .. . ... ... : ... .. . ... ... : ... .. . ... ...
ROW 55 : ... .. . ... ... ... : ... .. . ... ... ... : ... .. . ... : ... .. 0 ... : ... .. . ... ... : ... .. . ... ... : ... .. 6 ... ... : ... .. . ... ...
ROW 56 : F#4 00 F ... ... ... : A#3 00 9 ... ... ... : ... .. . ... : 1-# 00 F ... : ... .. . ... ... : ... .. . ... ... : A#3 01 A ... ... : ... .. . ... ...
ROW 57 : ... .. E ... ... ... : ... .. 8 ... ... ... : ... .. . ... : ... .. C ... : ... .. . ... ... : ... .. . ... ... : ... .. 9 ... ... : ... .. . ... ...
ROW 58 : ... .. D ... ... ... : ... .. . ... ... ... : ... .. . ... : ... .. 6 ... : ... .. . ... ... : ... .. . ... ... : ... .. 8 ... ... : ... .. . ... ...
ROW 59 : ... .. A ... ... ... : ... .. 7 ... ... ... : ... .. . ... : ... .. 3 ... : ... .. . ... ... : ... .. . ... ... : ... .. 7 ... ... : ... .. . ... ...
ROW 5A : ... .. 2 ... ... ... : ... .. 5 ... ... ... : ... .. . ... : ... .. 2 ... : ... .. . ... ... : ... .. . ... ... : ... .. . ... ... : ... .. . ... ...
ROW 5B : ... .. . ... ... ... : ... .. . ... ... ... : --- .. . ... : ... .. 0 ... : ... .. . ... ... : ... .. . ... ... : ... .. 6 ... ... : --- .. . ... ...
ROW 5C : D#4 00 F ... ... ... : D#6 00 9 ... ... ... : A#6 00 . ... : 7-# 00 F ... : ... .. . ... ... : D#3 01 A ... ... : D#4 01 A ... ... : B-3 01 F ... ...
ROW 5D : ... .. E ... ... ... : ... .. 8 ... ... ... : C-6 00 . ... : ... .. C ... : ... .. . ... ... : ... .. 9 ... ... : ... .. 9 ... ... : ... .. D ... ...
ROW 5E : ... .. D ... ... ... : ... .. . ... ... ... : F-5 00 . ... : ... .. 6 ... : ... .. . ... ... : ... .. 8 ... ... : ... .. 8 ... ... : ... .. 8 ... ...
ROW 5F : ... .. A ... ... ... : B-5 00 9 ... ... ... : E-5 00 . ... : ... .. 3 ... : ... .. . ... ... : --- .. . P83 ... : ... .. 7 ... ... : ... .. . ... ...
ROW 60 : ... .. . ... ... ... : ... .. 8 ... ... ... : B-4 00 . ... : ... .. 2 ... : ... .. . ... ... : ... .. . ... ... : ... .. . ... ... : ... .. . ... ...
ROW 61 : ... .. . ... ... ... : ... .. . ... ... ... : --- .. . ... : ... .. 0 ... : ... .. . ... ... : ... .. . ... ... : ... .. 6 ... ... : --- .. . P8E ...
ROW 62 : ... .. . ... ... ... : F#5 00 9 ... ... ... : F#4 00 . ... : 3-# 00 F ... : ... .. . ... ... : D#3 01 A P80 ... : B-3 01 A ... ... : F#3 01 F P80 ...
ROW 63 : ... .. . ... ... ... : ... .. 8 ... ... ... : ... .. . ... : ... .. C ... : ... .. . ... ... : ... .. 9 ... ... : ... .. 9 ... ... : ... .. D ... ...
ROW 64 : ... .. . ... ... ... : ... .. . ... ... ... : ... .. . ... : ... .. 6 ... : ... .. . ... ... : ... .. 8 ... ... : ... .. 8 ... ... : ... .. 8 ... ...
ROW 65 : ... .. . ... ... ... : D#5 00 9 ... ... ... : ... .. . ... : ... .. 3 ... : ... .. . ... ... : --- .. . P83 ... : ... .. 7 ... ... : ... .. . ... ...
ROW 66 : ... .. . ... ... ... : ... .. 8 ... ... ... : ... .. . ... : ... .. 2 ... : ... .. . ... ... : ... .. . ... ... : ... .. . ... ... : ... .. . ... ...
ROW 67 : ... .. . ... ... ... : ... .. . ... ... ... : --- .. . ... : ... .. 0 ... : ... .. . ... ... : ... .. . ... ... : ... .. 6 ... ... : --- .. . P82 ...
ROW 68 : ... .. . ... ... ... : B-4 00 9 ... ... ... : D#4 00 . ... : 1-# 00 F ... : ... .. . ... ... : D#3 01 A P80 ... : F#3 01 A ... ... : D#3 01 F P80 ...
ROW 69 : ... .. . ... ... ... : ... .. 8 ... ... ... : ... .. . ... : ... .. C ... : ... .. . ... ... : ... .. 9 ... ... : ... .. 9 ... ... : ... .. D ... ...
ROW 6A : ... .. . ... ... ... : ... .. . ... ... ... : ... .. . ... : ... .. 6 ... : ... .. . ... ... : ... .. 8 ... ... : ... .. 8 ... ... : ... .. 8 ... ...
ROW 6B : ... .. . ... ... ... : F#4 00 9 ... ... ... : ... .. . ... : ... .. 3 ... : ... .. . ... ... : --- .. . P83 ... : ... .. 7 ... ... : ... .. . ... ...
ROW 6C : ... .. 2 ... ... ... : ... .. 8 ... ... ... : ... .. . ... : ... .. 2 ... : ... .. . ... ... : ... .. . ... ... : ... .. . ... ... : ... .. . ... ...
ROW 6D : ... .. . ... ... ... : ... .. . ... ... ... : --- .. . ... : ... .. 0 ... : ... .. . ... ... : ... .. . ... ... : ... .. 6 ... ... : --- .. . P7F ...
ROW 6E : C#4 00 F ... ... ... : C#6 00 9 ... ... ... : G#6 00 . ... : 6-# 00 F ... : ... .. . ... ... : C#3 01 A P80 ... : C#4 01 A ... ... : A-3 01 F P80 ...
ROW 6F : ... .. E ... ... ... : ... .. 8 ... ... ... : A#5 00 . ... : ... .. C ... : ... .. . ... ... : ... .. 9 ... ... : ... .. 9 ... ... : ... .. D ... ...
ROW 70 : ... .. D ... ... ... : ... .. . ... ... ... : D#5 00 . ... : ... .. 6 ... : ... .. . ... ... : ... .. 8 ... ... : ... .. 8 ... ... : ... .. 8 ... ...
ROW 71 : ... .. A ... ... ... : A-5 00 9 ... ... ... : D-5 00 . ... : ... .. 3 ... : ... .. . ... ... : ... .. 7 ... ... : ... .. 7 ... ... : ... .. . ... ...
ROW 72 : ... .. . ... ... ... : ... .. 8 ... ... ... : A-4 00 . ... : ... .. 2 ... : ... .. . ... ... : ... .. . ... ... : ... .. . ... ... : ... .. . ... ...
ROW 73 : ... .. . ... ... ... : ... .. . ... ... ... : --- .. . ... : ... .. 0 ... : ... .. . ... ... : ... .. 6 ... ... : ... .. 6 ... ... : --- .. . P81 ...
ROW 74 : ... .. . ... ... ... : F#5 00 9 ... ... ... : F#4 00 . ... : 2-# 00 F ... : ... .. . ... ... : ... .. . ... ... : A-3 01 A ... ... : F#3 01 F P80 ...
ROW 75 : ... .. . ... ... ... : ... .. 8 ... ... ... : ... .. . ... : ... .. C ... : ... .. . ... ... : ... .. 5 ... ... : ... .. 9 ... ... : ... .. D ... ...
ROW 76 : ... .. . ... ... ... : ... .. . ... ... ... : ... .. . ... : ... .. 6 ... : ... .. . ... ... : ... .. . ... ... : ... .. 8 ... ... : ... .. 8 ... ...
ROW 77 : ... .. . ... ... ... : C#5 00 9 ... ... ... : ... .. . ... : ... .. 3 ... : ... .. . ... ... : ... .. . ... ... : ... .. 7 ... ... : ... .. . ... ...
ROW 78 : ... .. . ... ... ... : ... .. 8 ... ... ... : ... .. . ... : ... .. 2 ... : ... .. . ... ... : ... .. . ... ... : ... .. . ... ... : ... .. . ... ...
ROW 79 : ... .. . ... ... ... : ... .. . ... ... ... : --- .. . ... : ... .. 0 ... : ... .. . ... ... : ... .. . ... ... : ... .. 6 ... ... : --- .. . P82 ...
ROW 7A : ... .. . ... ... ... : A-4 00 9 ... ... ... : C#4 00 . ... : 1-# 00 F ... : ... .. . ... ... : ... .. . ... ... : F#3 01 A ... ... : C#3 01 F P80 ...
ROW 7B : ... .. . ... ... ... : ... .. 8 ... ... ... : ... .. . ... : ... .. C ... : ... .. . ... ... : ... .. . ... ... : ... .. 9 ... ... : ... .. D ... ...
ROW 7C : ... .. . ... ... ... : ... .. . ... ... ... : ... .. . ... : ... .. 6 ... : ... .. . ... ... : ... .. . ... ... : ... .. 8 ... ... : ... .. 8 ... ...
ROW 7D : ... .. . ... ... ... : F#4 00 9 ... ... ... : ... .. . ... : ... .. 3 ... : ... .. . ... ... : ... .. . ... ... : ... .. 7 ... ... : ... .. . ... ...
ROW 7E : ... .. 2 ... ... ... : ... .. 8 ... ... ... : ... .. . ... : ... .. 2 ... : ... .. . ... ... : ... .. . ... ... : ... .. . ... ... : ... .. . ... ...
ROW 7F : ... .. . ... ... ... : ... .. . ... ... ... : --- .. . ... : ... .. 0 ... : ... .. . ... ... : ... .. . ... ... : ... .. 6 ... ... : --- .. . ... ...
ROW 80 : B-3 00 F ... ... ... : B-4 00 8 ... ... ... : G-4 00 . ... : ... .. F ... : ... .. . ... ... : G#2 01 A ... ... : D#3 01 A ... ... : G#1 01 F ... ...
ROW 81 : ... .. E ... ... ... : ... .. 7 ... ... ... : A-3 00 . ... : ... .. C ... : ... .. . ... ... : ... .. 9 ... ... : ... .. 9 ... ... : ... .. D ... ...
ROW 82 : ... .. D ... ... ... : ... .. . ... ... ... : D-3 00 . ... : ... .. 6 ... : ... .. . ... ... : ... .. 8 ... ... : ... .. 8 ... ... : ... .. 8 ... ...
ROW 83 : ... .. A ... ... ... : ... .. 6 ... ... ... : C#3 00 . ... : ... .. 3 ... : ... .. . ... ... : ... .. 7 ... ... : ... .. 7 ... ... : ... .. . ... ...
ROW 84 : ... .. . ... ... ... : ... .. 5 ... ... ... : G#2 00 . ... : ... .. 2 ... : ... .. . ... ... : ... .. . ... ... : ... .. . ... ... : ... .. . ... ...
ROW 85 : ... .. . ... ... ... : ... .. 4 ... ... ... : --- .. . ... : ... .. 0 ... : ... .. . ... ... : ... .. 6 ... ... : ... .. 6 ... ... : --- .. . P7E ...
ROW 86 : ... .. . ... ... ... : G#4 00 9 ... ... ... : G#2 00 . ... : D-# 00 F ... : ... .. . ... ... : ... .. . ... ... : B-2 01 A ... ... : G#1 01 F P80 ...
ROW 87 : ... .. . ... ... ... : ... .. 8 ... ... ... : ... .. . ... : ... .. C ... : ... .. . ... ... : ... .. 5 ... ... : ... .. 9 ... ... : ... .. D ... ...
ROW 88 : ... .. . ... ... ... : ... .. . ... ... ... : ... .. . ... : ... .. 6 ... : ... .. . ... ... : ... .. . ... ... : ... .. 8 ... ... : ... .. 8 ... ...
ROW 89 : ... .. . ... ... ... : B-4 00 5 ... ... ... : ... .. . ... : ... .. 3 ... : ... .. . ... ... : --- .. . ... ... : ... .. 7 ... ... : ... .. . ... ...
ROW 8A : ... .. . ... ... ... : ... .. 4 ... ... ... : ... .. . ... : ... .. 2 ... : ... .. . ... ... : ... .. . ... ... : ... .. . ... ... : ... .. . ... ...
ROW 8B : ... .. . ... ... ... : ... .. . ... ... ... : --- .. . ... : ... .. 0 ... : ... .. . ... ... : ... .. . ... ... : ... .. 6 ... ... : --- .. . P7E ...
ROW 8C : ... .. . ... ... ... : ... .. 9 ... ... ... : F#3 00 . ... : ... .. F ... : ... .. . ... ... : G#2 01 A ... ... : G#2 01 A ... ... : F#2 01 F P80 ...
ROW 8D : ... .. . ... ... ... : ... .. 8 ... ... ... : ... .. . ... : ... .. C ... : ... .. . ... ... : ... .. 9 ... ... : ... .. 9 ... ... : ... .. D ... ...
ROW 8E : ... .. . ... ... ... : ... .. . ... ... ... : ... .. . ... : ... .. 6 ... : ... .. . ... ... : ... .. 8 ... ... : ... .. 8 ... ... : ... .. 8 ... ...
ROW 8F : ... .. . ... ... ... : G#4 00 5 ... ... ... : ... .. . ... : ... .. 3 ... : ... .. . ... ... : ... .. 7 ... ... : ... .. 7 ... ... : ... .. . ... ...
ROW 90 : ... .. 2 ... ... ... : ... .. 4 ... ... ... : ... .. . ... : ... .. 2 ... : ... .. . ... ... : ... .. . ... ... : ... .. . ... ... : ... .. . ... ...
ROW 91 : ... .. . ... ... ... : ... .. . ... ... ... : --- .. . ... : ... .. 0 ... : ... .. . ... ... : ... .. 6 ... ... : ... .. 6 ... ... : --- .. . P84 ...
ROW 92 : B-4 00 F ... ... ... : ... .. 9 ... ... ... : G#2 00 . ... : 6-# 00 F ... : ... .. . ... ... : ... .. . ... ... : G#3 01 A ... ... : G#1 01 F P80 ...
ROW 93 : ... .. E P83 ... ... : ... .. 8 ... ... ... : ... .. . ... : ... .. C ... : ... .. . ... ... : ... .. 5 ... ... : ... .. 9 ... ... : ... .. D ... ...
ROW 94 : C-5 00 D P80 ... ... : ... .. . ... ... ... : ... .. . ... : ... .. 6 ... : ... .. . ... ... : ... .. . ... ... : ... .. 8 ... ... : ... .. 8 ... ...
ROW 95 : ... .. A P83 ... ... : B-4 00 5 ... ... ... : ... .. . ... : ... .. 3 ... : ... .. . ... ... : --- .. . ... ... : ... .. 7 ... ... : ... .. . ... ...
ROW 96 : C#5 00 A P80 ... ... : ... .. 4 ... ... ... : ... .. . ... : ... .. 2 ... : ... .. . ... ... : ... .. . ... ... : ... .. . ... ... : ... .. . ... ...
ROW 97 : ... .. . ... ... ... : ... .. . ... ... ... : --- .. . ... : ... .. 0 ... : ... .. . ... ... : ... .. . ... ... : ... .. 6 ... ... : --- .. . P7E ...
ROW 98 : ... .. . ... ... ... : ... .. 9 ... ... ... : F#3 00 . ... : D-# 00 F ... : ... .. . ... ... : G#2 01 A ... ... : D#3 01 A ... ... : F#2 01 F P80 ...
ROW 99 : ... .. . ... ... ... : ... .. 8 ... ... ... : ... .. . ... : ... .. C ... : ... .. . ... ... : ... .. 9 ... ... : ... .. 9 ... ... : ... .. D ... ...
ROW 9A : ... .. . ... ... ... : ... .. . ... ... ... : ... .. . ... : ... .. 6 ... : ... .. . ... ... : ... .. 8 ... ... : ... .. 8 ... ... : ... .. 8 ... ...
ROW 9B : ... .. . ... ... ... : G#4 00 5 ... ... ... : ... .. . ... : ... .. 3 ... : ... .. . ... ... : --- .. . ... ... : ... .. 7 ... ... : ... .. . ... ...
ROW 9C : ... .. . ... ... ... : ... .. 4 ... ... ... : ... .. . ... : ... .. 2 ... : ... .. . ... ... : ... .. . ... ... : ... .. . ... ... : ... .. . ... ...
ROW 9D : ... .. . ... ... ... : ... .. . ... ... ... : --- .. . ... : ... .. 0 ... : ... .. . ... ... : ... .. . ... ... : ... .. 6 ... ... : --- .. . P84 ...
ROW 9E : D-5 00 A P81 ... ... : ... .. 9 ... ... ... : G#3 00 . ... : ... .. F ... : ... .. . ... ... : G#2 01 A ... ... : B-2 01 A ... ... : G#2 01 F P80 ...
ROW 9F : D#5 00 A P7E ... ... : ... .. 8 ... ... ... : ... .. . ... : ... .. C ... : ... .. . ... ... : ... .. 9 ... ... : ... .. 9 ... ... : ... .. D ... ...
ROW A0 : D-5 00 A P80 ... ... : ... .. . ... ... ... : ... .. . ... : ... .. 6 ... : ... .. . ... ... : ... .. 8 ... ... : ... .. 8 ... ... : ... .. 8 ... ...
ROW A1 : C#5 00 A ... ... ... : B-4 00 5 ... ... ... : ... .. . ... : ... .. 3 ... : ... .. . ... ... : --- .. . ... ... : ... .. 7 ... ... : ... .. . ... ...
ROW A2 : C-5 00 A P7F ... ... : ... .. 4 ... ... ... : ... .. . ... : ... .. 2 ... : ... .. . ... ... : ... .. . ... ... : ... .. . ... ... : ... .. . ... ...
ROW A3 : B-4 00 A P83 ... ... : ... .. . ... ... ... : --- .. . ... : ... .. 0 ... : ... .. . ... ... : ... .. . ... ... : ... .. 6 ... ... : --- .. . P7F ...
ROW A4 : ... .. F P80 ... ... : C#5 00 9 ... ... ... : C-5 00 . ... : 1-# 00 F ... : ... .. . ... ... : G#2 01 A ... ... : F-3 01 A ... ... : C#2 01 F P80 ...
ROW A5 : ... .. E ... ... ... : ... .. 8 ... ... ... : D-4 00 . ... : ... .. C ... : ... .. . ... ... : ... .. 9 ... ... : ... .. 9 ... ... : ... .. D ... ...
ROW A6 : ... .. D ... ... ... : ... .. . ... ... ... : G-3 00 . ... : ... .. 6 ... : ... .. . ... ... : ... .. 8 ... ... : ... .. 8 ... ... : ... .. 8 ... ...
ROW A7 : ... .. A ... ... ... : G#4 00 5 ... ... ... : F#3 00 . ... : ... .. 3 ... : ... .. . ... ... : ... .. 7 ... ... : ... .. 7 ... ... : ... .. . ... ...
ROW A8 : ... .. 2 ... ... ... : ... .. 4 ... ... ... : C#3 00 . ... : ... .. 2 ... : ... .. . ... ... : ... .. . ... ... : ... .. . ... ... : ... .. . ... ...
ROW A9 : ... .. . ... ... ... : ... .. . ... ... ... : --- .. . ... : ... .. 0 ... : ... .. . ... ... : ... .. 6 ... ... : ... .. 6 ... ... : --- .. . ... ...
ROW AA : A#4 00 F ... ... ... : ... .. 9 ... ... ... : C#3 00 . ... : D-# 00 F ... : ... .. . ... ... : ... .. . ... ... : C#3 01 A ... ... : C#2 01 F ... ...
ROW AB : ... .. E ... ... ... : ... .. 8 ... ... ... : ... .. . ... : ... .. C ... : ... .. . ... ... : ... .. 5 ... ... : ... .. 9 ... ... : ... .. D ... ...
ROW AC : ... .. D ... ... ... : ... .. . ... ... ... : ... .. . ... : ... .. 6 ... : ... .. . ... ... : ... .. . ... ... : ... .. 8 ... ... : ... .. 8 ... ...
ROW AD : ... .. A ... ... ... : C#5 00 5 ... ... ... : ... .. . ... : ... .. 3 ... : ... .. . ... ... : --- .. . ... ... : ... .. 7 ... ... : ... .. . ... ...
ROW AE : ... .. 2 ... ... ... : ... .. 4 ... ... ... : ... .. . ... : ... .. 2 ... : ... .. . ... ... : ... .. . ... ... : ... .. . ... ... : ... .. . ... ...
ROW AF : ... .. . ... ... ... : ... .. . ... ... ... : --- .. . ... : ... .. 0 ... : ... .. . ... ... : ... .. . ... ... : ... .. 6 ... ... : --- .. . ... ...
ROW B0 : G#4 00 F ... ... ... : ... .. 9 ... ... ... : B-3 00 . ... : ... .. F ... : ... .. . ... ... : G#2 01 A ... ... : G#2 01 A ... ... : B-2 01 F ... ...
ROW B1 : ... .. E ... ... ... : ... .. 8 ... ... ... : ... .. . ... : ... .. C ... : ... .. . ... ... : ... .. 9 ... ... : ... .. 9 ... ... : ... .. D ... ...
ROW B2 : ... .. D ... ... ... : ... .. . ... ... ... : ... .. . ... : ... .. 6 ... : ... .. . ... ... : ... .. 8 ... ... : ... .. 8 ... ... : ... .. 8 ... ...
ROW B3 : ... .. A ... ... ... : G#4 00 5 ... ... ... : ... .. . ... : ... .. 3 ... : ... .. . ... ... : ... .. 7 ... ... : ... .. 7 ... ... : ... .. . ... ...
ROW B4 : ... .. . ... ... ... : ... .. 4 ... ... ... : ... .. . ... : ... .. 2 ... : ... .. . ... ... : ... .. . ... ... : ... .. . ... ... : ... .. . ... ...
ROW B5 : ... .. . ... ... ... : ... .. . ... ... ... : --- .. . ... : ... .. 0 ... : ... .. . ... ... : ... .. 6 ... ... : ... .. 6 ... ... : --- .. . P8B ...
ROW B6 : ... .. . ... ... ... : ... .. 9 ... ... ... : C#4 00 . ... : 6-# 00 F ... : ... .. . ... ... : --- .. . ... ... : G#3 01 A ... ... : C#3 01 F P80 ...
ROW B7 : ... .. . ... ... ... : ... .. 8 ... ... ... : ... .. . ... : ... .. C ... : ... .. . ... ... : ... .. . ... ... : ... .. 9 ... ... : ... .. D ... ...
ROW B8 : ... .. . ... ... ... : ... .. . ... ... ... : ... .. . ... : ... .. 6 ... : ... .. . ... ... : ... .. . ... ... : ... .. 8 ... ... : ... .. 8 ... ...
ROW B9 : ... .. . ... ... ... : C#5 00 5 ... ... ... : ... .. . ... : ... .. 3 ... : ... .. . ... ... : ... .. . ... ... : ... .. 7 ... ... : ... .. . ... ...
ROW BA : ... .. 2 ... ... ... : ... .. 4 ... ... ... : ... .. . ... : ... .. 2 ... : ... .. . ... ... : ... .. . ... ... : ... .. . ... ... : ... .. . ... ...
ROW BB : ... .. . ... ... ... : ... .. . ... ... ... : --- .. . ... : ... .. 0 ... : ... .. . ... ... : ... .. . ... ... : ... .. 6 ... ... : --- .. . ... ...
ROW BC : F#4 00 F ... ... ... : ... .. 9 ... ... ... : C#3 00 . ... : 1-# 00 F ... : ... .. . ... ... : G#2 01 A ... ... : F-3 01 A ... ... : C#2 01 F ... ...
ROW BD : ... .. E ... ... ... : ... .. 8 ... ... ... : ... .. . ... : ... .. C ... : ... .. . ... ... : ... .. 9 ... ... : ... .. 9 ... ... : ... .. D ... ...
ROW BE : ... .. D ... ... ... : ... .. . ... ... ... : ... .. . ... : ... .. 6 ... : ... .. . ... ... : ... .. 8 ... ... : ... .. 8 ... ... : ... .. 8 ... ...
ROW BF : ... .. A ... ... ... : G#4 00 5 ... ... ... : ... .. . ... : ... .. 3 ... : ... .. . ... ... : --- .. . ... ... : ... .. 7 ... ... : ... .. . ... ...
ROW C0 : ... .. . ... ... ... : ... .. 4 ... ... ... : ... .. . ... : ... .. 2 ... : ... .. . ... ... : ... .. . ... ... : ... .. . ... ... : ... .. . ... ...
ROW C1 : ... .. . ... ... ... : ... .. . ... ... ... : --- .. . ... : ... .. 0 ... : ... .. . ... ... : ... .. . ... ... : ... .. 6 ... ... : --- .. . ... ...
ROW C2 : ... .. . ... ... ... : ... .. 9 ... ... ... : C#3 00 . ... : 6-# 00 F ... : ... .. . ... ... : G#2 01 A ... ... : C#3 01 A ... ... : C#2 01 F ... ...
ROW C3 : ... .. . ... ... ... : ... .. 8 ... ... ... : ... .. . ... : ... .. C ... : ... .. . ... ... : ... .. 9 ... ... : ... .. 9 ... ... : ... .. D ... ...
ROW C4 : ... .. . ... ... ... : ... .. . ... ... ... : ... .. . ... : ... .. 6 ... : ... .. . ... ... : ... .. 8 ... ... : ... .. 8 ... ... : ... .. 8 ... ...
ROW C5 : ... .. . ... ... ... : C#5 00 5 ... ... ... : ... .. . ... : ... .. 3 ... : ... .. . ... ... : --- .. . ... ... : ... .. 7 ... ... : ... .. . ... ...
ROW C6 : ... .. 2 ... ... ... : ... .. 4 ... ... ... : ... .. . ... : ... .. 2 ... : ... .. . ... ... : ... .. . ... ... : ... .. . ... ... : ... .. . ... ...
ROW C7 : ... .. . ... ... ... : ... .. . ... ... ... : --- .. . ... : ... .. 0 ... : ... .. . ... ... : ... .. . ... ... : ... .. 6 ... ... : --- .. . ... ...
ROW C8 : B-4 00 F ... ... ... : B-4 00 9 ... ... ... : D#5 00 . ... : 1-# 00 F ... : ... .. . ... ... : E-3 01 A ... ... : E-3 01 A ... ... : E-2 01 F ... ...
ROW C9 : ... .. E ... ... ... : ... .. 8 ... ... ... : F-4 00 . ... : ... .. C ... : ... .. . ... ... : ... .. 9 ... ... : ... .. 9 ... ... : ... .. D ... ...
ROW CA : ... .. D ... ... ... : ... .. . ... ... ... : A#3 00 . ... : ... .. 6 ... : ... .. . ... ... : ... .. 8 ... ... : ... .. 8 ... ... : ... .. 8 ... ...
ROW CB : ... .. A ... ... ... : G#4 00 5 ... ... ... : A-3 00 . ... : ... .. 3 ... : ... .. . ... ... : ... .. 7 ... ... : ... .. 7 ... ... : ... .. . ... ...
ROW CC : ... .. 2 ... ... ... : ... .. 4 ... ... ... : E-3 00 . ... : ... .. 2 ... : ... .. . ... ... : ... .. . ... ... : ... .. . ... ... : ... .. . ... ...
ROW CD : ... .. . ... ... ... : ... .. . ... ... ... : ... .. . ... : ... .. 0 ... : ... .. . ... ... : ... .. 6 ... ... : ... .. 6 ... ... : ... .. . ... ...
ROW CE : A#4 00 F ... ... ... : ... .. 9 ... ... ... : ... .. . ... : D-# 00 F ... : ... .. . ... ... : --- .. . P82 ... : B-2 01 A ... ... : ... .. . ... ...
ROW CF : ... .. E ... ... ... : ... .. 8 ... ... ... : ... .. . ... : ... .. C ... : ... .. . ... ... : ... .. . ... ... : ... .. 9 ... ... : ... .. . ... ...
ROW D0 : ... .. D ... ... ... : ... .. . ... ... ... : ... .. . ... : ... .. 6 ... : ... .. . ... ... : ... .. . ... ... : ... .. 8 ... ... : ... .. . ... ...
ROW D1 : ... .. A ... ... ... : B-4 00 5 ... ... ... : ... .. . ... : ... .. 3 ... : ... .. . ... ... : ... .. . ... ... : ... .. 7 ... ... : ... .. . ... ...
ROW D2 : ... .. 2 ... ... ... : ... .. 4 ... ... ... : ... .. . ... : ... .. 2 ... : ... .. . ... ... : ... .. . ... ... : ... .. . ... ... : ... .. . ... ...
ROW D3 : ... .. . ... ... ... : ... .. . ... ... ... : ... .. . ... : ... .. 0 ... : ... .. . ... ... : ... .. . ... ... : ... .. 6 ... ... : ... .. . ... ...
ROW D4 : G#4 00 F ... ... ... : ... .. 9 ... ... ... : ... .. . ... : ... .. F ... : ... .. . ... ... : E-3 01 A P80 ... : G#2 01 A ... ... : ... .. . ... ...
ROW D5 : ... .. E ... ... ... : ... .. 8 ... ... ... : ... .. . ... : ... .. C ... : ... .. . ... ... : ... .. 9 ... ... : ... .. 9 ... ... : ... .. . ... ...
ROW D6 : ... .. D ... ... ... : ... .. . ... ... ... : ... .. . ... : ... .. 6 ... : ... .. . ... ... : ... .. 8 ... ... : ... .. 8 ... ... : ... .. . ... ...
ROW D7 : ... .. A ... ... ... : G#4 00 5 ... ... ... : ... .. . ... : ... .. 3 ... : ... .. . ... ... : ... .. 7 ... ... : ... .. 7 ... ... : ... .. . ... ...
ROW D8 : ... .. . ... ... ... : ... .. 4 ... ... ... : ... .. . ... : ... .. 2 ... : ... .. . ... ... : ... .. . ... ... : ... .. . ... ... : ... .. . ... ...
ROW D9 : ... .. . ... ... ... : ... .. . ... ... ... : --- .. . ... : ... .. 0 ... : ... .. . ... ... : ... .. 6 ... ... : ... .. 6 ... ... : --- .. . P89 ...
ROW DA : ... .. . ... ... ... : ... .. 9 ... ... ... : E-4 00 . ... : 8-# 00 F ... : ... .. . ... ... : --- .. . P82 ... : G#3 01 A ... ... : E-3 01 F P80 ...
ROW DB : ... .. . ... ... ... : ... .. 8 ... ... ... : ... .. . ... : ... .. C ... : ... .. . ... ... : ... .. . ... ... : ... .. 9 ... ... : ... .. D ... ...
ROW DC : ... .. . ... ... ... : ... .. . ... ... ... : ... .. . ... : ... .. 6 ... : ... .. . ... ... : ... .. . ... ... : ... .. 8 ... ... : ... .. 8 ... ...
ROW DD : ... .. . ... ... ... : B-4 00 5 ... ... ... : ... .. . ... : ... .. 3 ... : ... .. . ... ... : ... .. . ... ... : ... .. 7 ... ... : ... .. . ... ...
ROW DE : ... .. 2 ... ... ... : ... .. 4 ... ... ... : ... .. . ... : ... .. 2 ... : ... .. . ... ... : ... .. . ... ... : ... .. . ... ... : ... .. . ... ...
ROW DF : ... .. . ... ... ... : ... .. . ... ... ... : --- .. . ... : ... .. 0 ... : ... .. . ... ... : ... .. . ... ... : ... .. 6 ... ... : --- .. . P7D ...
ROW E0 : D#4 00 F ... ... ... : ... .. 9 ... ... ... : D#4 00 . ... : 4-# 00 F ... : ... .. . ... ... : E-3 01 A P80 ... : E-3 01 A ... ... : D#3 01 F P80 ...
ROW E1 : ... .. E ... ... ... : ... .. 8 ... ... ... : ... .. . ... : ... .. C ... : ... .. . ... ... : ... .. 9 ... ... : ... .. 9 ... ... : ... .. D ... ...
ROW E2 : ... .. D ... ... ... : ... .. . ... ... ... : ... .. . ... : ... .. 6 ... : ... .. . ... ... : ... .. 8 ... ... : ... .. 8 ... ... : ... .. 8 ... ...
ROW E3 : ... .. A ... ... ... : G#4 00 5 ... ... ... : ... .. . ... : ... .. 3 ... : ... .. . ... ... : --- .. . P82 ... : ... .. 7 ... ... : ... .. . ... ...
ROW E4 : ... .. . ... ... ... : ... .. 4 ... ... ... : ... .. . ... : ... .. 2 ... : ... .. . ... ... : ... .. . ... ... : ... .. . ... ... : ... .. . ... ...
ROW E5 : ... .. . ... ... ... : ... .. . ... ... ... : --- .. . ... : ... .. 0 ... : ... .. . ... ... : ... .. . ... ... : ... .. 6 ... ... : --- .. . P7F ...
ROW E6 : ... .. . ... ... ... : ... .. 9 ... ... ... : C#4 00 . ... : 1-# 00 F ... : ... .. . ... ... : E-3 01 A P80 ... : B-2 01 A ... ... : C#3 01 F P80 ...
ROW E7 : ... .. . ... ... ... : ... .. 8 ... ... ... : ... .. . ... : ... .. C ... : ... .. . ... ... : ... .. 9 ... ... : ... .. 9 ... ... : ... .. D ... ...
ROW E8 : ... .. . ... ... ... : ... .. . ... ... ... : ... .. . ... : ... .. 6 ... : ... .. . ... ... : ... .. 8 ... ... : ... .. 8 ... ... : ... .. 8 ... ...
ROW E9 : ... .. . ... ... ... : B-4 00 5 ... ... ... : ... .. . ... : ... .. 3 ... : ... .. . ... ... : --- .. . P82 ... : ... .. 7 ... ... : ... .. . ... ...
ROW EA : ... .. 2 ... ... ... : ... .. 4 ... ... ... : ... .. . ... : ... .. 2 ... : ... .. . ... ... : ... .. . ... ... : ... .. . ... ... : ... .. . ... ...
ROW EB : ... .. . ... ... ... : ... .. . ... ... ... : --- .. . ... : ... .. 0 ... : ... .. . ... ... : ... .. . ... ... : ... .. 6 ... ... : --- .. . ... ...
ROW EC : D#5 00 F ... ... ... : ... .. 9 ... ... ... : A#4 00 . ... : 7-# 00 F ... : ... .. . ... ... : D#3 01 A P80 ... : D#3 01 A ... ... : B-1 01 F ... ...
ROW ED : ... .. E ... ... ... : ... .. 8 ... ... ... : C-4 00 . ... : ... .. C ... : ... .. . ... ... : ... .. 9 ... ... : ... .. 9 ... ... : ... .. D ... ...
ROW EE : ... .. D ... ... ... : ... .. . ... ... ... : F-3 00 . ... : ... .. 6 ... : ... .. . ... ... : ... .. 8 ... ... : ... .. 8 ... ... : ... .. 8 ... ...
ROW EF : ... .. A ... ... ... : G#4 00 5 ... ... ... : E-3 00 . ... : ... .. 3 ... : ... .. . ... ... : --- .. . P83 ... : ... .. 7 ... ... : ... .. . ... ...
ROW F0 : ... .. 2 ... ... ... : ... .. 4 ... ... ... : B-2 00 . ... : ... .. 2 ... : ... .. . ... ... : ... .. . ... ... : ... .. . ... ... : ... .. . ... ...
ROW F1 : ... .. . ... ... ... : ... .. . ... ... ... : --- .. . ... : ... .. 0 ... : ... .. . ... ... : ... .. . ... ... : ... .. 6 ... ... : --- .. . P86 ...
ROW F2 : C#5 00 F ... ... ... : F#4 00 9 ... ... ... : A#2 00 . ... : 3-# 00 F ... : ... .. . ... ... : D#3 01 A P80 ... : B-2 01 A ... ... : A#1 01 F P80 ...
ROW F3 : ... .. E ... ... ... : ... .. 8 ... ... ... : ... .. . ... : ... .. C ... : ... .. . ... ... : ... .. 9 ... ... : ... .. 9 ... ... : ... .. D ... ...
ROW F4 : ... .. D ... ... ... : ... .. . ... ... ... : ... .. . ... : ... .. 6 ... : ... .. . ... ... : ... .. 8 ... ... : ... .. 8 ... ... : ... .. 8 ... ...
ROW F5 : ... .. A ... ... ... : B-4 00 5 ... ... ... : ... .. . ... : ... .. 3 ... : ... .. . ... ... : --- .. . P83 ... : ... .. 7 ... ... : ... .. . ... ...
ROW F6 : ... .. 2 ... ... ... : ... .. 4 ... ... ... : ... .. . ... : ... .. 2 ... : ... .. . ... ... : ... .. . ... ... : ... .. . ... ... : ... .. . ... ...
ROW F7 : ... .. . ... ... ... : ... .. . ... ... ... : --- .. . ... : ... .. 0 ... : ... .. . ... ... : ... .. . ... ... : ... .. 6 ... ... : --- .. . ... ...
ROW F8 : B-4 00 F ... ... ... : D#4 00 9 ... ... ... : G#2 00 . ... : 1-# 00 F ... : ... .. . ... ... : C#3 01 A P80 ... : G#2 01 A ... ... : G#1 01 F ... ...
ROW F9 : ... .. E ... ... ... : ... .. 8 ... ... ... : ... .. . ... : ... .. C ... : ... .. . ... ... : ... .. 9 ... ... : ... .. 9 ... ... : ... .. D ... ...
ROW FA : ... .. D ... ... ... : ... .. . ... ... ... : ... .. . ... : ... .. 6 ... : ... .. . ... ... : ... .. 8 ... ... : ... .. 8 ... ... : ... .. 8 ... ...
ROW FB : ... .. A ... ... ... : F#4 00 5 ... ... ... : ... .. . ... : ... .. 3 ... : ... .. . ... ... : --- .. . P83 ... : ... .. 7 ... ... : ... .. . ... ...
ROW FC : ... .. . ... ... ... : ... .. 4 ... ... ... : ... .. . ... : ... .. 2 ... : ... .. . ... ... : ... .. . ... ... : ... .. . ... ... : ... .. . ... ...
ROW FD : ... .. . ... ... ... : ... .. . ... ... ... : --- .. . ... : ... .. 0 ... : ... .. . ... ... : ... .. . ... ... : ... .. 6 ... ... : --- .. . P7E ...
ROW FE : ... .. . ... ... ... : A#4 00 9 ... ... ... : F#2 00 . ... : 6-# 00 F ... : ... .. . ... ... : D#3 01 A P80 ... : A#2 01 A ... ... : F#1 01 F P80 ...
ROW FF : ... .. . ... ... ... : ... .. 8 ... ... ... : ... .. . ... : ... .. C ... : ... .. . ... ... : ... .. 9 ... ... : ... .. 9 ... ... : ... .. D ... ...

PATTERN 05
ROW 00 : ... .. . ... ... ... : ... .. . ... ... ... : ... .. . ... : ... .. 6 ... : ... .. . ... ... : ... .. 8 ... ... : ... .. 8 ... ... : ... .. 8 ... ...
ROW 01 : ... .. . ... ... ... : D#4 00 5 ... ... ... : ... .. . ... : ... .. 3 ... : ... .. . ... ... : ... .. 7 ... ... : ... .. 7 ... ... : ... .. . ... ...
ROW 02 : ... .. 2 ... ... ... : ... .. 4 ... ... ... : ... .. . ... : ... .. 2 ... : ... .. . ... ... : ... .. . ... ... : ... .. . ... ... : ... .. . ... ...
ROW 03 : ... .. . ... ... ... : ... .. . ... ... ... : --- .. . ... : ... .. 0 ... : ... .. . ... ... : ... .. 6 ... ... : ... .. 6 ... ... : --- .. . P81 ...
ROW 04 : A#4 00 F ... ... ... : F#4 00 9 ... ... ... : F-2 00 . ... : 2-# 00 F ... : ... .. . ... ... : ... .. . ... ... : B-2 01 A ... ... : F-1 01 F P80 ...
ROW 05 : ... .. E ... ... ... : ... .. 8 ... ... ... : ... .. . ... : ... .. C ... : ... .. . ... ... : ... .. 5 ... ... : ... .. 9 ... ... : ... .. D ... ...
ROW 06 : ... .. D ... ... ... : ... .. . ... ... ... : ... .. . ... : ... .. 6 ... : ... .. . ... ... : ... .. . ... ... : ... .. 8 ... ... : ... .. 8 ... ...
ROW 07 : ... .. A ... ... ... : A#4 00 5 ... ... ... : ... .. . ... : ... .. 3 ... : ... .. . ... ... : ... .. . P8A ... : ... .. 7 ... ... : ... .. . ... ...
ROW 08 : ... .. 2 ... ... ... : ... .. 4 ... ... ... : ... .. . ... : ... .. 2 ... : ... .. . ... ... : E-3 01 5 P7B ... : ... .. . ... ... : ... .. . ... ...
ROW 09 : ... .. . ... ... ... : ... .. . ... ... ... : --- .. . ... : ... .. 0 ... : ... .. . ... ... : ... .. . P79 ... : ... .. 6 ... ... : --- .. . P7F ...
ROW 0A : B-4 00 F ... ... ... : C#4 00 9 ... ... ... : D#2 00 . ... : 1-# 00 F ... : ... .. . ... ... : D#3 01 5 P84 ... : C#3 01 A ... ... : D#1 01 F P80 ...
ROW 0B : ... .. E ... ... ... : ... .. 8 ... ... ... : ... .. . ... : ... .. C ... : ... .. . ... ... : ... .. . P7C ... : ... .. 9 ... ... : ... .. D ... ...
ROW 0C : ... .. D ... ... ... : ... .. . ... ... ... : ... .. . ... : ... .. 6 ... : ... .. . ... ... : D-3 01 5 P87 ... : ... .. 8 ... ... : ... .. 8 ... ...
ROW 0D : ... .. A ... ... ... : F#4 00 5 ... ... ... : ... .. . ... : ... .. 3 ... : ... .. . ... ... : ... .. . P85 ... : ... .. 7 ... ... : ... .. . ... ...
ROW 0E : ... .. 2 ... ... ... : ... .. 4 ... ... ... : ... .. . ... : ... .. 2 ... : ... .. . ... ... : D#3 01 5 P76 ... : ... .. . ... ... : ... .. . ... ...
ROW 0F : ... .. . ... ... ... : ... .. . ... ... ... : --- .. . ... : ... .. 0 ... : ... .. . ... ... : ... .. . P80 ... : ... .. 6 ... ... : --- .. . P81 ...
ROW 10 : D#5 00 F ... ... ... : B-4 00 9 ... ... ... : G-4 00 . ... : ... .. F ... : ... .. . ... ... : G#3 01 A ... ... : D#3 01 A ... ... : G#1 01 F P80 ...
ROW 11 : ... .. E ... ... ... : ... .. 8 ... ... ... : A-3 00 . ... : ... .. C ... : ... .. . ... ... : ... .. 9 ... ... : ... .. 9 ... ... : ... .. D ... ...
ROW 12 : ... .. D ... ... ... : ... .. . ... ... ... : D-3 00 . ... : ... .. 6 ... : ... .. . ... ... : ... .. 8 ... ... : ... .. 8 ... ... : ... .. 8 ... ...
ROW 13 : ... .. A ... ... ... : C#4 00 5 ... ... ... : C#3 00 . ... : ... .. 3 ... : ... .. . ... ... : ... .. 7 ... ... : ... .. 7 ... ... : ... .. . ... ...
ROW 14 : ... .. . ... ... ... : ... .. 4 ... ... ... : G#2 00 . ... : ... .. 2 ... : ... .. . ... ... : ... .. . ... ... : ... .. . ... ... : ... .. . ... ...
ROW 15 : ... .. . ... ... ... : ... .. . ... ... ... : --- .. . ... : ... .. 0 ... : ... .. . ... ... : ... .. 6 ... ... : ... .. 6 ... ... : --- .. . P7E ...
ROW 16 : B-4 00 F ... ... ... : D#4 00 9 ... ... ... : G#2 00 . ... : D-# 00 F ... : ... .. . ... ... : ... .. . ... ... : G#3 01 A ... ... : G#1 01 F P80 ...
ROW 17 : ... .. E ... ... ... : ... .. 8 ... ... ... : ... .. . ... : ... .. C ... : ... .. . ... ... : ... .. 5 ... ... : ... .. 9 ... ... : ... .. D ... ...
ROW 18 : ... .. D ... ... ... : ... .. . ... ... ... : ... .. . ... : ... .. 6 ... : ... .. . ... ... : ... .. . ... ... : ... .. 8 ... ... : ... .. 8 ... ...
ROW 19 : ... .. A ... ... ... : B-4 00 5 ... ... ... : ... .. . ... : ... .. 3 ... : ... .. . ... ... : --- .. . P82 ... : ... .. 7 ... ... : ... .. . ... ...
ROW 1A : ... .. . ... ... ... : ... .. 4 ... ... ... : ... .. . ... : ... .. 2 ... : ... .. . ... ... : ... .. . ... ... : ... .. . ... ... : ... .. . ... ...
ROW 1B : ... .. . ... ... ... : ... .. . ... ... ... : ... .. . ... : ... .. 0 ... : ... .. . ... ... : ... .. . ... ... : ... .. 6 ... ... : ... .. . ... ...
ROW 1C : F#4 00 F ... ... ... : A#4 00 9 ... ... ... : ... .. . ... : ... .. F ... : ... .. . ... ... : G#3 01 A P80 ... : B-3 01 A ... ... : ... .. . ... ...
ROW 1D : ... .. E ... ... ... : ... .. 8 ... ... ... : ... .. . ... : ... .. C ... : ... .. . ... ... : ... .. 9 ... ... : ... .. 9 ... ... : ... .. . ... ...
ROW 1E : ... .. D ... ... ... : ... .. . ... ... ... : ... .. . ... : ... .. 6 ... : ... .. . ... ... : ... .. 8 ... ... : ... .. 8 ... ... : ... .. . ... ...
ROW 1F : ... .. A ... ... ... : D#4 00 5 ... ... ... : ... .. . ... : ... .. 3 ... : ... .. . ... ... : ... .. 7 ... ... : ... .. 7 ... ... : ... .. . ... ...
ROW 20 : ... .. 2 ... ... ... : ... .. 4 ... ... ... : ... .. . ... : ... .. 2 ... : ... .. . ... ... : ... .. . ... ... : ... .. . ... ... : ... .. . ... ...
ROW 21 : ... .. . ... ... ... : ... .. . ... ... ... : --- .. . ... : ... .. 0 ... : ... .. . ... ... : ... .. 6 ... ... : ... .. 6 ... ... : --- .. . P7E ...
ROW 22 : F#5 00 F ... ... ... : ... .. 9 ... ... ... : G#3 00 . ... : 6-# 00 F ... : ... .. . ... ... : ... .. . ... ... : D#4 01 A ... ... : G#2 01 F P80 ...
ROW 23 : ... .. E ... ... ... : ... .. 8 ... ... ... : ... .. . ... : ... .. C ... : ... .. . ... ... : ... .. 5 ... ... : ... .. 9 ... ... : ... .. D ... ...
ROW 24 : ... .. D ... ... ... : ... .. . ... ... ... : ... .. . ... : ... .. 6 ... : ... .. . ... ... : ... .. . ... ... : ... .. 8 ... ... : ... .. 8 ... ...
ROW 25 : ... .. A ... ... ... : A#4 00 5 ... ... ... : ... .. . ... : ... .. 3 ... : ... .. . ... ... : --- .. . P82 ... : ... .. 7 ... ... : ... .. . ... ...
ROW 26 : ... .. . ... ... ... : ... .. 4 ... ... ... : ... .. . ... : ... .. 2 ... : ... .. . ... ... : ... .. . ... ... : ... .. . ... ... : ... .. . ... ...
ROW 27 : ... .. . ... ... ... : ... .. . ... ... ... : ... .. . ... : ... .. 0 ... : ... .. . ... ... : ... .. . ... ... : ... .. 6 ... ... : ... .. . ... ...
ROW 28 : D#5 00 F ... ... ... : G#4 00 9 ... ... ... : ... .. . ... : D-# 00 F ... : ... .. . ... ... : G#3 01 A P80 ... : B-3 01 A ... ... : ... .. . ... ...
ROW 29 : ... .. E ... ... ... : ... .. 8 ... ... ... : ... .. . ... : ... .. C ... : ... .. . ... ... : ... .. 9 ... ... : ... .. 9 ... ... : ... .. . ... ...
ROW 2A : ... .. D ... ... ... : ... .. . ... ... ... : ... .. . ... : ... .. 6 ... : ... .. . ... ... : ... .. 8 ... ... : ... .. 8 ... ... : ... .. . ... ...
ROW 2B : ... .. A ... ... ... : D#4 00 5 ... ... ... : ... .. . ... : ... .. 3 ... : ... .. . ... ... : --- .. . P82 ... : ... .. 7 ... ... : ... .. . ... ...
ROW 2C : ... .. . ... ... ... : ... .. 4 ... ... ... : ... .. . ... : ... .. 2 ... : ... .. . ... ... : ... .. . ... ... : ... .. . ... ... : ... .. . ... ...
ROW 2D : ... .. . ... ... ... : ... .. . ... ... ... : --- .. . ... : ... .. 0 ... : ... .. . ... ... : ... .. . ... ... : ... .. 6 ... ... : --- .. . P7F ...
ROW 2E : B-4 00 F ... ... ... : ... .. 9 ... ... ... : G#2 00 . ... : ... .. F ... : ... .. . ... ... : G#3 01 A P80 ... : G#3 01 A ... ... : G#1 01 F P80 ...
ROW 2F : ... .. E ... ... ... : ... .. 8 ... ... ... : ... .. . ... : ... .. C ... : ... .. . ... ... : ... .. 9 ... ... : ... .. 9 ... ... : ... .. D ... ...
ROW 30 : ... .. D ... ... ... : ... .. . ... ... ... : ... .. . ... : ... .. 6 ... : ... .. . ... ... : ... .. 8 ... ... : ... .. 8 ... ... : ... .. 8 ... ...
ROW 31 : ... .. A ... ... ... : G#4 00 5 ... ... ... : ... .. . ... : ... .. 3 ... : ... .. . ... ... : --- .. . P82 ... : ... .. 7 ... ... : ... .. . ... ...
ROW 32 : ... .. 2 ... ... ... : ... .. 4 ... ... ... : ... .. . ... : ... .. 2 ... : ... .. . ... ... : ... .. . ... ... : ... .. . ... ... : ... .. . ... ...
ROW 33 : ... .. . ... ... ... : ... .. . ... ... ... : --- .. . ... : ... .. 0 ... : ... .. . ... ... : ... .. . ... ... : ... .. 6 ... ... : --- .. . P7E ...
ROW 34 : F-5 00 F ... ... ... : F#4 00 9 ... ... ... : C-5 00 . ... : 1-# 00 F ... : ... .. . ... ... : G#3 01 A P80 ... : F-4 01 A ... ... : C#2 01 F P80 ...
ROW 35 : ... .. E ... ... ... : ... .. 8 ... ... ... : D-4 00 . ... : ... .. C ... : ... .. . ... ... : ... .. 9 ... ... : ... .. 9 ... ... : ... .. D ... ...
ROW 36 : ... .. D ... ... ... : ... .. . ... ... ... : G-3 00 . ... : ... .. 6 ... : ... .. . ... ... : ... .. 8 ... ... : ... .. 8 ... ... : ... .. 8 ... ...
ROW 37 : ... .. A ... ... ... : D#4 00 5 ... ... ... : F#3 00 . ... : ... .. 3 ... : ... .. . ... ... : ... .. 7 ... ... : ... .. 7 ... ... : ... .. . ... ...
ROW 38 : ... .. 2 ... ... ... : ... .. 4 ... ... ... : C#3 00 . ... : ... .. 2 ... : ... .. . ... ... : ... .. . ... ... : ... .. . ... ... : ... .. . ... ...
ROW 39 : ... .. . ... ... ... : ... .. . ... ... ... : --- .. . ... : ... .. 0 ... : ... .. . ... ... : ... .. 6 ... ... : ... .. 6 ... ... : --- .. . ... ...
ROW 3A : C#5 00 F ... ... ... : F-4 00 9 ... ... ... : C#3 00 . ... : D-# 00 F ... : ... .. . ... ... : ... .. . ... ... : C#4 01 A ... ... : C#2 01 F ... ...
ROW 3B : ... .. E ... ... ... : ... .. 8 ... ... ... : ... .. . ... : ... .. C ... : ... .. . ... ... : ... .. 5 ... ... : ... .. 9 ... ... : ... .. D ... ...
ROW 3C : ... .. D ... ... ... : ... .. . ... ... ... : ... .. . ... : ... .. 6 ... : ... .. . ... ... : ... .. . ... ... : ... .. 8 ... ... : ... .. 8 ... ...
ROW 3D : ... .. A ... ... ... : F#4 00 5 ... ... ... : ... .. . ... : ... .. 3 ... : ... .. . ... ... : --- .. . P82 ... : ... .. 7 ... ... : ... .. . ... ...
ROW 3E : ... .. 2 ... ... ... : ... .. 4 ... ... ... : ... .. . ... : ... .. 2 ... : ... .. . ... ... : ... .. . ... ... : ... .. . ... ... : ... .. . ... ...
ROW 3F : ... .. . ... ... ... : ... .. . ... ... ... : --- .. . ... : ... .. 0 ... : ... .. . ... ... : ... .. . ... ... : ... .. 6 ... ... : --- .. . ... ...
ROW 40 : G#4 00 F ... ... ... : C#4 00 9 ... ... ... : B-3 00 . ... : ... .. F ... : ... .. . ... ... : G#3 01 A P80 ... : G#3 01 A ... ... : B-2 01 F ... ...
ROW 41 : ... .. E ... ... ... : ... .. 8 ... ... ... : ... .. . ... : ... .. C ... : ... .. . ... ... : ... .. 9 ... ... : ... .. 9 ... ... : ... .. D ... ...
ROW 42 : ... .. D ... ... ... : ... .. . ... ... ... : ... .. . ... : ... .. 6 ... : ... .. . ... ... : ... .. 8 ... ... : ... .. 8 ... ... : ... .. 8 ... ...
ROW 43 : ... .. A ... ... ... : F-4 00 5 ... ... ... : ... .. . ... : ... .. 3 ... : ... .. . ... ... : ... .. 7 ... ... : ... .. 7 ... ... : ... .. . ... ...
ROW 44 : ... .. . ... ... ... : ... .. 4 ... ... ... : ... .. . ... : ... .. 2 ... : ... .. . ... ... : ... .. . ... ... : ... .. . ... ... : ... .. . ... ...
ROW 45 : ... .. . ... ... ... : ... .. . ... ... ... : --- .. . ... : ... .. 0 ... : ... .. . ... ... : ... .. 6 ... ... : ... .. 6 ... ... : --- .. . P8B ...
ROW 46 : G#5 00 F ... ... ... : G#3 00 9 ... ... ... : C#4 00 . ... : 6-# 00 F ... : ... .. . ... ... : --- .. . P82 ... : G#4 01 A ... ... : C#3 01 F P80 ...
ROW 47 : ... .. E ... ... ... : ... .. 8 ... ... ... : ... .. . ... : ... .. C ... : ... .. . ... ... : ... .. . ... ... : ... .. 9 ... ... : ... .. D ... ...
ROW 48 : ... .. D ... ... ... : ... .. . ... ... ... : ... .. . ... : ... .. 6 ... : ... .. . ... ... : ... .. . ... ... : ... .. 8 ... ... : ... .. 8 ... ...
ROW 49 : ... .. A ... ... ... : C#4 00 5 ... ... ... : ... .. . ... : ... .. 3 ... : ... .. . ... ... : ... .. . ... ... : ... .. 7 ... ... : ... .. . ... ...
ROW 4A : ... .. 2 ... ... ... : ... .. 4 ... ... ... : ... .. . ... : ... .. 2 ... : ... .. . ... ... : ... .. . ... ... : ... .. . ... ... : ... .. . ... ...
ROW 4B : ... .. . ... ... ... : ... .. . ... ... ... : --- .. . ... : ... .. 0 ... : ... .. . ... ... : ... .. . ... ... : ... .. 6 ... ... : --- .. . ... ...
ROW 4C : C#5 00 F ... ... ... : D#3 00 9 ... ... ... : F-4 00 . ... : 1-# 00 F ... : ... .. . ... ... : G#3 01 A P80 ... : F-4 01 A ... ... : F-3 01 F ... ...
ROW 4D : ... .. E ... ... ... : ... .. 8 ... ... ... : ... .. . ... : ... .. C ... : ... .. . ... ... : ... .. 9 ... ... : ... .. 9 ... ... : ... .. D ... ...
ROW 4E : ... .. D ... ... ... : ... .. . ... ... ... : ... .. . ... : ... .. 6 ... : ... .. . ... ... : ... .. 8 ... ... : ... .. 8 ... ... : ... .. 8 ... ...
ROW 4F : ... .. A ... ... ... : G#3 00 5 ... ... ... : ... .. . ... : ... .. 3 ... : ... .. . ... ... : --- .. . P82 ... : ... .. 7 ... ... : ... .. . ... ...
ROW 50 : ... .. . ... ... ... : ... .. 4 ... ... ... : ... .. . ... : ... .. 2 ... : ... .. . ... ... : ... .. . ... ... : ... .. . ... ... : ... .. . ... ...
ROW 51 : ... .. . ... ... ... : ... .. . ... ... ... : --- .. . ... : ... .. 0 ... : ... .. . ... ... : ... .. . ... ... : ... .. 6 ... ... : --- .. . P7F ...
ROW 52 : G#4 00 F ... ... ... : C#3 00 9 ... ... ... : F#4 00 . ... : 6-# 00 F ... : ... .. . ... ... : G#3 01 A P80 ... : C#4 01 A ... ... : F#3 01 F P80 ...
ROW 53 : ... .. E ... ... ... : ... .. 8 ... ... ... : ... .. . ... : ... .. C ... : ... .. . ... ... : ... .. 9 ... ... : ... .. 9 ... ... : ... .. D ... ...
ROW 54 : ... .. D ... ... ... : ... .. . ... ... ... : ... .. . ... : ... .. 6 ... : ... .. . ... ... : ... .. 8 ... ... : ... .. 8 ... ... : ... .. 8 ... ...
ROW 55 : ... .. A ... ... ... : D#3 00 5 ... ... ... : ... .. . ... : ... .. 3 ... : ... .. . ... ... : --- .. . P82 ... : ... .. 7 ... ... : ... .. . ... ...
ROW 56 : ... .. 2 ... ... ... : ... .. 4 ... ... ... : ... .. . ... : ... .. 2 ... : ... .. . ... ... : ... .. . ... ... : ... .. . ... ... : ... .. . ... ...
ROW 57 : ... .. . ... ... ... : ... .. . ... ... ... : --- .. . ... : ... .. 0 ... : ... .. . ... ... : ... .. . ... ... : ... .. 6 ... ... : --- .. . P82 ...
ROW 58 : B-4 00 F ... ... ... : E-3 00 9 ... ... ... : G-5 00 . ... : 1-# 00 F ... : ... .. . ... ... : G#3 01 A P80 ... : B-3 01 A ... ... : G#2 01 F P80 ...
ROW 59 : ... .. E ... ... ... : ... .. 8 ... ... ... : A-4 00 . ... : ... .. C ... : ... .. . ... ... : ... .. 9 ... ... : ... .. 9 ... ... : ... .. D ... ...
ROW 5A : ... .. D ... ... ... : ... .. . ... ... ... : D-4 00 . ... : ... .. 6 ... : ... .. . ... ... : ... .. 8 ... ... : ... .. 8 ... ... : ... .. 8 ... ...
ROW 5B : ... .. A ... ... ... : C#3 00 5 ... ... ... : C#4 00 . ... : ... .. 3 ... : ... .. . ... ... : --- .. . P82 ... : ... .. 7 ... ... : ... .. . ... ...
ROW 5C : ... .. . ... ... ... : ... .. 4 ... ... ... : G#3 00 . ... : ... .. 2 ... : ... .. . ... ... : ... .. . ... ... : ... .. . ... ... : ... .. . ... ...
ROW 5D : ... .. . ... ... ... : ... .. . ... ... ... : ... .. . ... : ... .. 0 ... : ... .. . ... ... : ... .. . ... ... : ... .. 6 ... ... : ... .. . ... ...
ROW 5E : G#4 00 F ... ... ... : B-2 00 9 ... ... ... : ... .. . ... : D-# 00 F ... : ... .. . ... ... : G#3 01 A P80 ... : G#3 01 A ... ... : ... .. . ... ...
ROW 5F : ... .. E ... ... ... : ... .. 8 ... ... ... : ... .. . ... : ... .. C ... : ... .. . ... ... : ... .. 9 ... ... : ... .. 9 ... ... : ... .. . ... ...
ROW 60 : ... .. D ... ... ... : ... .. . ... ... ... : ... .. . ... : ... .. 6 ... : ... .. . ... ... : ... .. 8 ... ... : ... .. 8 ... ... : ... .. . ... ...
ROW 61 : ... .. A ... ... ... : E-3 00 5 ... ... ... : ... .. . ... : ... .. 3 ... : ... .. . ... ... : --- .. . P82 ... : ... .. 7 ... ... : ... .. . ... ...
ROW 62 : ... .. 2 ... ... ... : ... .. 4 ... ... ... : ... .. . ... : ... .. 2 ... : ... .. . ... ... : ... .. . ... ... : ... .. . ... ... : ... .. . ... ...
ROW 63 : ... .. . ... ... ... : ... .. . ... ... ... : ... .. . ... : ... .. 0 ... : ... .. . ... ... : ... .. . ... ... : ... .. 6 ... ... : ... .. . ... ...
ROW 64 : E-4 00 F ... ... ... : G#2 00 9 ... ... ... : ... .. . ... : ... .. F ... : ... .. . ... ... : G#3 01 A P80 ... : E-3 01 A ... ... : ... .. . ... ...
ROW 65 : ... .. E ... ... ... : ... .. 8 ... ... ... : ... .. . ... : ... .. C ... : ... .. . ... ... : ... .. 9 ... ... : ... .. 9 ... ... : ... .. . ... ...
ROW 66 : ... .. D ... ... ... : ... .. . ... ... ... : ... .. . ... : ... .. 6 ... : ... .. . ... ... : ... .. 8 ... ... : ... .. 8 ... ... : ... .. . ... ...
ROW 67 : ... .. A ... ... ... : B-2 00 5 ... ... ... : ... .. . ... : ... .. 3 ... : ... .. . ... ... : --- .. . P82 ... : ... .. 7 ... ... : ... .. . ... ...
ROW 68 : ... .. 2 ... ... ... : ... .. 4 ... ... ... : ... .. . ... : ... .. 2 ... : ... .. . ... ... : ... .. . ... ... : ... .. . ... ... : ... .. . ... ...
ROW 69 : ... .. . ... ... ... : ... .. . ... ... ... : --- .. . ... : ... .. 0 ... : ... .. . ... ... : ... .. . ... ... : ... .. 6 ... ... : --- .. . P7F ...
ROW 6A : F#4 00 F ... ... ... : A#3 00 9 ... ... ... : A-5 00 . ... : 8-# 00 F ... : ... .. . ... ... : F#3 01 A P80 ... : C#4 01 A ... ... : A#2 01 F P80 ...
ROW 6B : ... .. E ... ... ... : ... .. 8 ... ... ... : B-4 00 . ... : ... .. C ... : ... .. . ... ... : ... .. 9 ... ... : ... .. 9 ... ... : ... .. D ... ...
ROW 6C : ... .. D ... ... ... : ... .. . ... ... ... : E-4 00 . ... : ... .. 6 ... : ... .. . ... ... : ... .. 8 ... ... : ... .. 8 ... ... : ... .. 8 ... ...
ROW 6D : ... .. A ... ... ... : G#2 00 5 ... ... ... : D#4 00 . ... : ... .. 3 ... : ... .. . ... ... : ... .. 7 ... ... : ... .. 7 ... ... : ... .. . ... ...
ROW 6E : ... .. . ... ... ... : ... .. 4 ... ... ... : A#3 00 . ... : ... .. 2 ... : ... .. . ... ... : ... .. . ... ... : ... .. . ... ... : ... .. . ... ...
ROW 6F : ... .. . ... ... ... : ... .. . ... ... ... : ... .. . ... : ... .. 0 ... : ... .. . ... ... : ... .. 6 ... ... : ... .. 6 ... ... : ... .. . ... ...
ROW 70 : C#4 00 F ... ... ... : F#3 00 9 ... ... ... : ... .. . ... : 4-# 00 F ... : ... .. . ... ... : ... .. . ... ... : A#3 01 A ... ... : ... .. . ... ...
ROW 71 : ... .. E ... ... ... : ... .. 8 ... ... ... : ... .. . ... : ... .. C ... : ... .. . ... ... : ... .. 5 ... ... : ... .. 9 ... ... : ... .. . ... ...
ROW 72 : ... .. D ... ... ... : ... .. . ... ... ... : ... .. . ... : ... .. 6 ... : ... .. . ... ... : ... .. . ... ... : ... .. 8 ... ... : ... .. . ... ...
ROW 73 : ... .. A ... ... ... : A#3 00 5 ... ... ... : ... .. . ... : ... .. 3 ... : ... .. . ... ... : ... .. . ... ... : ... .. 7 ... ... : ... .. . ... ...
ROW 74 : ... .. 2 ... ... ... : ... .. 4 ... ... ... : ... .. . ... : ... .. 2 ... : ... .. . ... ... : ... .. . ... ... : ... .. . ... ... : ... .. . ... ...
ROW 75 : ... .. . ... ... ... : ... .. . ... ... ... : ... .. . ... : ... .. 0 ... : ... .. . ... ... : ... .. . ... ... : ... .. 6 ... ... : ... .. . ... ...
ROW 76 : A#3 00 F ... ... ... : C#3 00 9 ... ... ... : ... .. . ... : 1-# 00 F ... : ... .. . ... ... : ... .. . ... ... : F#3 01 A ... ... : ... .. . ... ...
ROW 77 : ... .. E ... ... ... : ... .. 8 ... ... ... : ... .. . ... : ... .. C ... : ... .. . ... ... : ... .. . ... ... : ... .. 9 ... ... : ... .. . ... ...
ROW 78 : ... .. D ... ... ... : ... .. . ... ... ... : ... .. . ... : ... .. 6 ... : ... .. . ... ... : ... .. . ... ... : ... .. 8 ... ... : ... .. . ... ...
ROW 79 : ... .. A ... ... ... : F#3 00 5 ... ... ... : ... .. . ... : ... .. 3 ... : ... .. . ... ... : ... .. . ... ... : ... .. 7 ... ... : ... .. . ... ...
ROW 7A : ... .. 2 ... ... ... : ... .. 4 ... ... ... : ... .. . ... : ... .. 2 ... : ... .. . ... ... : ... .. . ... ... : ... .. . ... ... : ... .. . ... ...
ROW 7B : ... .. . ... ... ... : ... .. . ... ... ... : --- .. . ... : ... .. 0 ... : ... .. . ... ... : ... .. . ... ... : ... .. 6 ... ... : --- .. . ... ...
ROW 7C : B-3 00 F ... ... ... : ... .. 9 ... ... ... : A#5 00 . ... : 7-# 00 F ... : ... .. . ... ... : D#3 01 A ... ... : D#4 01 A ... ... : B-2 01 F ... ...
ROW 7D : ... .. E ... ... ... : ... .. 8 ... ... ... : C-5 00 . ... : ... .. C ... : ... .. . ... ... : ... .. 9 ... ... : ... .. 9 ... ... : ... .. D ... ...
ROW 7E : ... .. D ... ... ... : ... .. . ... ... ... : F-4 00 . ... : ... .. 6 ... : ... .. . ... ... : ... .. 8 ... ... : ... .. 8 ... ... : ... .. 8 ... ...
ROW 7F : ... .. A ... ... ... : C#3 00 5 ... ... ... : E-4 00 . ... : ... .. 3 ... : ... .. . ... ... : --- .. . P83 ... : ... .. 7 ... ... : ... .. . ... ...
ROW 80 : ... .. . ... ... ... : ... .. 4 ... ... ... : B-3 00 . ... : ... .. 2 ... : ... .. . ... ... : ... .. . ... ... : ... .. . ... ... : ... .. . ... ...
ROW 81 : ... .. . ... ... ... : ... .. . ... ... ... : --- .. . ... : ... .. 0 ... : ... .. . ... ... : ... .. . ... ... : ... .. 6 ... ... : --- .. . P8B ...
ROW 82 : F#3 00 F ... ... ... : D#3 00 9 ... ... ... : B-2 00 . ... : 3-# 00 F ... : ... .. . ... ... : D#3 01 A P80 ... : B-3 01 A ... ... : B-1 01 F P80 ...
ROW 83 : ... .. E ... ... ... : ... .. 8 ... ... ... : ... .. . ... : ... .. C ... : ... .. . ... ... : ... .. 9 ... ... : ... .. 9 ... ... : ... .. D ... ...
ROW 84 : ... .. D ... ... ... : ... .. . ... ... ... : ... .. . ... : ... .. 6 ... : ... .. . ... ... : ... .. 8 ... ... : ... .. 8 ... ... : ... .. 8 ... ...
ROW 85 : ... .. A ... ... ... : F#3 00 5 ... ... ... : ... .. . ... : ... .. 3 ... : ... .. . ... ... : --- .. . P83 ... : ... .. 7 ... ... : ... .. . ... ...
ROW 86 : ... .. . ... ... ... : ... .. 4 ... ... ... : ... .. . ... : ... .. 2 ... : ... .. . ... ... : ... .. . ... ... : ... .. . ... ... : ... .. . ... ...
ROW 87 : ... .. . ... ... ... : ... .. . ... ... ... : --- .. . ... : ... .. 0 ... : ... .. . ... ... : ... .. . ... ... : ... .. 6 ... ... : --- .. . P86 ...
ROW 88 : D#3 00 F ... ... ... : B-2 00 9 ... ... ... : B-2 00 . ... : 1-# 00 F ... : ... .. . ... ... : D#3 01 A P80 ... : F#3 01 A ... ... : B-1 01 F P80 ...
ROW 89 : ... .. E ... ... ... : ... .. 8 ... ... ... : ... .. . ... : ... .. C ... : ... .. . ... ... : ... .. 9 ... ... : ... .. 9 ... ... : ... .. D ... ...
ROW 8A : ... .. D ... ... ... : ... .. . ... ... ... : ... .. . ... : ... .. 6 ... : ... .. . ... ... : ... .. 8 ... ... : ... .. 8 ... ... : ... .. 8 ... ...
ROW 8B : ... .. A ... ... ... : D#3 00 5 ... ... ... : ... .. . ... : ... .. 3 ... : ... .. . ... ... : --- .. . P83 ... : ... .. 7 ... ... : ... .. . ... ...
ROW 8C : ... .. 2 ... ... ... : ... .. 4 ... ... ... : ... .. . ... : ... .. 2 ... : ... .. . ... ... : ... .. . ... ... : ... .. . ... ... : ... .. . ... ...
ROW 8D : ... .. . ... ... ... : ... .. . ... ... ... : --- .. . ... : ... .. 0 ... : ... .. . ... ... : ... .. . ... ... : ... .. 6 ... ... : --- .. . P86 ...
ROW 8E : A#3 00 F ... ... ... : C#3 00 9 ... ... ... : A-5 00 . ... : 6-# 00 F ... : ... .. . ... ... : C#3 01 A P80 ... : F#4 01 A ... ... : A#2 01 F P80 ...
ROW 8F : ... .. E ... ... ... : ... .. 8 ... ... ... : B-4 00 . ... : ... .. C ... : ... .. . ... ... : ... .. 9 ... ... : ... .. 9 ... ... : ... .. D ... ...
ROW 90 : ... .. D ... ... ... : ... .. . ... ... ... : E-4 00 . ... : ... .. 6 ... : ... .. . ... ... : ... .. 8 ... ... : ... .. 8 ... ... : ... .. 8 ... ...
ROW 91 : ... .. A ... ... ... : B-2 00 5 ... ... ... : D#4 00 . ... : ... .. 3 ... : ... .. . ... ... : ... .. 7 ... ... : ... .. 7 ... ... : ... .. . ... ...
ROW 92 : ... .. . ... ... ... : ... .. 4 ... ... ... : A#3 00 . ... : ... .. 2 ... : ... .. . ... ... : ... .. . ... ... : ... .. . ... ... : ... .. . ... ...
ROW 93 : ... .. . ... ... ... : ... .. . ... ... ... : --- .. . ... : ... .. 0 ... : ... .. . ... ... : ... .. 6 ... ... : ... .. 6 ... ... : --- .. . ... ...
ROW 94 : F#3 00 F ... ... ... : A#2 00 9 ... ... ... : F#2 00 . ... : 2-# 00 F ... : ... .. . ... ... : ... .. . ... ... : C#4 01 A ... ... : F#1 01 F ... ...
ROW 95 : ... .. E ... ... ... : ... .. 8 ... ... ... : ... .. . ... : ... .. C ... : ... .. . ... ... : ... .. 5 ... ... : ... .. 9 ... ... : ... .. D ... ...
ROW 96 : ... .. D ... ... ... : ... .. . ... ... ... : ... .. . ... : ... .. 6 ... : ... .. . ... ... : ... .. . ... ... : ... .. 8 ... ... : ... .. 8 ... ...
ROW 97 : ... .. A ... ... ... : C#3 00 5 ... ... ... : ... .. . ... : ... .. 3 ... : ... .. . ... ... : ... .. . ... ... : ... .. 7 ... ... : ... .. . ... ...
ROW 98 : ... .. . ... ... ... : ... .. 4 ... ... ... : ... .. . ... : ... .. 2 ... : ... .. . ... ... : ... .. . ... ... : ... .. . ... ... : ... .. . ... ...
ROW 99 : ... .. . ... ... ... : ... .. . ... ... ... : --- .. . ... : ... .. 0 ... : ... .. . ... ... : ... .. . ... ... : ... .. 6 ... ... : --- .. . P81 ...
ROW 9A : C#3 00 F ... ... ... : F#2 00 9 ... ... ... : F#2 00 . ... : 1-# 00 F ... : ... .. . ... ... : ... .. . ... ... : A#3 01 A ... ... : F#1 01 F P80 ...
ROW 9B : ... .. E ... ... ... : ... .. 8 ... ... ... : ... .. . ... : ... .. C ... : ... .. . ... ... : ... .. . ... ... : ... .. 9 ... ... : ... .. D ... ...
ROW 9C : ... .. D ... ... ... : ... .. . ... ... ... : ... .. . ... : ... .. 6 ... : ... .. . ... ... : ... .. . ... ... : ... .. 8 ... ... : ... .. 8 ... ...
ROW 9D : ... .. A ... ... ... : A#2 00 5 ... ... ... : ... .. . ... : ... .. 3 ... : ... .. . ... ... : ... .. . ... ... : ... .. 7 ... ... : ... .. . ... ...
ROW 9E : ... .. 2 ... ... ... : ... .. 4 ... ... ... : ... .. . ... : ... .. 2 ... : ... .. . ... ... : ... .. . ... ... : ... .. . ... ... : ... .. . ... ...
ROW 9F : ... .. . ... ... ... : ... .. . ... ... ... : --- .. . ... : ... .. 0 ... : ... .. . ... ... : ... .. . ... ... : ... .. 6 ... ... : --- .. . P81 ...
ROW A0 : G#2 00 F ... ... ... : D#2 00 F ... ... ... : G-4 00 . ... : ... .. F ... : ... .. . ... ... : G#3 01 A ... ... : D#3 01 A ... ... : G#0 01 F P80 ...
ROW A1 : ... .. E ... ... ... : ... .. E ... ... ... : A-3 00 . ... : ... .. C ... : ... .. . ... ... : ... .. 9 ... ... : ... .. 9 ... ... : ... .. D ... ...
ROW A2 : ... .. D ... ... ... : ... .. D ... ... ... : D-3 00 . ... : ... .. 6 ... : ... .. . ... ... : ... .. 8 ... ... : ... .. 8 ... ... : ... .. 8 ... ...
ROW A3 : ... .. A ... ... ... : ... .. A ... ... ... : C#3 00 . ... : ... .. 3 ... : ... .. . ... ... : ... .. 7 ... ... : ... .. 7 ... ... : ... .. . ... ...
ROW A4 : ... .. 2 ... ... ... : ... .. 2 ... ... ... : G#2 00 . ... : ... .. 2 ... : ... .. . ... ... : ... .. . ... ... : ... .. . ... ... : ... .. . ... ...
ROW A5 : ... .. . ... ... ... : ... .. . ... ... ... : --- .. . ... : ... .. 0 ... : ... .. . ... ... : ... .. 6 ... ... : ... .. 6 ... ... : --- .. . P84 ...
ROW A6 : ... .. F ... ... ... : ... .. F ... ... ... : G#2 00 . ... : D-# 00 F ... : ... .. . ... ... : ... .. . ... ... : ... .. . ... ... : G#0 01 F P80 ...
ROW A7 : ... .. E ... ... ... : ... .. E ... ... ... : ... .. . ... : ... .. C ... : ... .. . ... ... : ... .. 5 ... ... : ... .. 5 ... ... : ... .. D ... ...
ROW A8 : ... .. D ... ... ... : ... .. D ... ... ... : ... .. . ... : ... .. 6 ... : ... .. . ... ... : ... .. . ... ... : ... .. . ... ... : ... .. 8 ... ...
ROW A9 : ... .. A ... ... ... : ... .. A ... ... ... : ... .. . ... : ... .. 3 ... : ... .. . ... ... : ... .. . ... ... : ... .. . ... ... : ... .. . ... ...
ROW AA : ... .. 2 ... ... ... : ... .. 2 ... ... ... : ... .. . ... : ... .. 2 ... : ... .. . ... ... : ... .. . ... ... : ... .. . ... ... : ... .. . ... ...
ROW AB : ... .. . ... ... ... : ... .. . ... ... ... : --- .. . ... : ... .. 0 ... : ... .. . ... ... : ... .. . ... ... : ... .. . ... ... : --- .. . P84 ...
ROW AC : ... .. F ... ... ... : ... .. F ... ... ... : G#2 00 . ... : 6-# 00 F ... : ... .. . ... ... : --- .. . P82 ... : --- .. . P83 ... : G#0 01 F P80 ...
ROW AD : ... .. E ... ... ... : ... .. E ... ... ... : ... .. . ... : ... .. C ... : ... .. . ... ... : ... .. . ... ... : ... .. . ... ... : ... .. D ... ...
ROW AE : ... .. D ... ... ... : ... .. D ... ... ... : ... .. . ... : ... .. 6 ... : ... .. . ... ... : ... .. . ... ... : ... .. . ... ... : ... .. 8 ... ...
ROW AF : ... .. A ... ... ... : ... .. A ... ... ... : ... .. . ... : ... .. 3 ... : ... .. . ... ... : ... .. . ... ... : ... .. . ... ... : ... .. . ... ...
ROW B0 : ... .. 2 ... ... ... : ... .. 2 ... ... ... : ... .. . ... : ... .. 2 ... : ... .. . ... ... : ... .. . ... ... : ... .. . ... ... : ... .. . ... ...
ROW B1 : ... .. . ... ... ... : ... .. . ... ... ... : --- .. . ... : ... .. 0 ... : ... .. . ... ... : ... .. . ... ... : ... .. . ... ... : --- .. . P84 ...
ROW B2 : B-2 00 F ... ... ... : F#2 00 F ... ... ... : F-5 00 . ... : D-# 00 F ... : ... .. . ... ... : D#3 01 A P80 ... : G#2 01 A P80 ... : F#1 01 F P80 ...
ROW B3 : ... .. E ... ... ... : ... .. E ... ... ... : G-4 00 . ... : ... .. C ... : ... .. . ... ... : ... .. 9 ... ... : ... .. 9 ... ... : ... .. D ... ...
ROW B4 : ... .. D ... ... ... : ... .. D ... ... ... : C-4 00 . ... : ... .. 6 ... : ... .. . ... ... : ... .. 8 ... ... : ... .. 8 ... ... : ... .. 8 ... ...
ROW B5 : ... .. A ... ... ... : ... .. A ... ... ... : B-3 00 . ... : ... .. 3 ... : ... .. . ... ... : --- .. . P83 ... : --- .. . ... ... : ... .. . ... ...
ROW B6 : ... .. . ... ... ... : ... .. . ... ... ... : F#3 00 . ... : ... .. 2 ... : ... .. . ... ... : ... .. . ... ... : ... .. . ... ... : ... .. . ... ...
ROW B7 : ... .. . ... ... ... : ... .. . ... ... ... : --- .. . ... : ... .. 0 ... : ... .. . ... ... : ... .. . ... ... : ... .. . ... ... : --- .. . P81 ...
ROW B8 : F#2 00 F ... ... ... : C#2 00 F ... ... ... : G#3 00 . ... : 1-# 00 F ... : ... .. . ... ... : D#3 01 A P80 ... : G#2 01 A ... ... : G#1 01 F P80 ...
ROW B9 : ... .. E ... ... ... : ... .. E ... ... ... : ... .. . ... : ... .. C ... : ... .. . ... ... : ... .. 9 ... ... : ... .. 9 ... ... : ... .. D ... ...
ROW BA : ... .. D ... ... ... : ... .. D ... ... ... : ... .. . ... : ... .. 6 ... : ... .. . ... ... : ... .. 8 ... ... : ... .. 8 ... ... : ... .. 8 ... ...
ROW BB : ... .. A ... ... ... : ... .. A ... ... ... : ... .. . ... : ... .. 3 ... : ... .. . ... ... : --- .. . P83 ... : --- .. . ... ... : ... .. . ... ...
ROW BC : ... .. 2 ... ... ... : ... .. 2 ... ... ... : ... .. . ... : ... .. 2 ... : ... .. . ... ... : ... .. . ... ... : ... .. . ... ... : ... .. . ... ...
ROW BD : ... .. . ... ... ... : ... .. . ... ... ... : --- .. . ... : ... .. 0 ... : ... .. . ... ... : ... .. . ... ... : ... .. . ... ... : --- .. . P7E ...
ROW BE : ... .. F ... ... ... : ... .. F ... ... ... : F#2 00 . ... : ... .. F ... : ... .. . ... ... : D#3 01 A P80 ... : G#2 01 A ... ... : F#0 01 F P80 ...
ROW BF : ... .. E ... ... ... : ... .. E ... ... ... : ... .. . ... : ... .. C ... : ... .. . ... ... : ... .. 9 ... ... : ... .. 9 ... ... : ... .. D ... ...
ROW C0 : ... .. D ... ... ... : ... .. D ... ... ... : ... .. . ... : ... .. 6 ... : ... .. . ... ... : ... .. 8 ... ... : ... .. 8 ... ... : ... .. 8 ... ...
ROW C1 : ... .. A ... ... ... : ... .. A ... ... ... : ... .. . ... : ... .. 3 ... : ... .. . ... ... : --- .. . P83 ... : --- .. . ... ... : ... .. . ... ...
ROW C2 : ... .. 2 ... ... ... : ... .. 2 ... ... ... : ... .. . ... : ... .. 2 ... : ... .. . ... ... : ... .. . ... ... : ... .. . ... ... : ... .. . ... ...
ROW C3 : ... .. . ... ... ... : ... .. . ... ... ... : --- .. . ... : ... .. 0 ... : ... .. . ... ... : ... .. . ... ... : ... .. . ... ... : --- .. . P81 ...
ROW C4 : G#2 00 F ... ... ... : D#2 00 F ... ... ... : G-4 00 . ... : 6-# 00 F ... : ... .. . ... ... : C#3 01 A P80 ... : F#2 01 A ... ... : G#0 01 F P80 ...
ROW C5 : ... .. E ... ... ... : ... .. E ... ... ... : A-3 00 . ... : ... .. C ... : ... .. . ... ... : ... .. 9 ... ... : ... .. 9 ... ... : ... .. D ... ...
ROW C6 : ... .. D ... ... ... : ... .. D ... ... ... : D-3 00 . ... : ... .. 6 ... : ... .. . ... ... : ... .. 8 ... ... : ... .. 8 ... ... : ... .. 8 ... ...
ROW C7 : ... .. A ... ... ... : ... .. A ... ... ... : C#3 00 . ... : ... .. 3 ... : ... .. . ... ... : ... .. 7 ... ... : ... .. 7 ... ... : ... .. . ... ...
ROW C8 : ... .. 2 ... ... ... : ... .. 2 ... ... ... : G#2 00 . ... : ... .. 2 ... : ... .. . ... ... : ... .. . ... ... : ... .. . ... ... : ... .. . ... ...
ROW C9 : ... .. . ... ... ... : ... .. . ... ... ... : --- .. . ... : ... .. 0 ... : ... .. . ... ... : ... .. 6 ... ... : ... .. 6 ... ... : --- .. . P84 ...
ROW CA : ... .. F ... ... ... : ... .. F ... ... ... : G#2 00 . ... : D-# 00 F ... : ... .. . ... ... : D#3 01 A ... ... : G#2 01 A ... ... : G#0 01 F P80 ...
ROW CB : ... .. E ... ... ... : ... .. E ... ... ... : ... .. . ... : ... .. C ... : ... .. . ... ... : ... .. 9 ... ... : ... .. 9 ... ... : ... .. D ... ...
ROW CC : ... .. D ... ... ... : ... .. D ... ... ... : ... .. . ... : ... .. 6 ... : ... .. . ... ... : ... .. 8 ... ... : ... .. 8 ... ... : ... .. 8 ... ...
ROW CD : ... .. A ... ... ... : ... .. A ... ... ... : ... .. . ... : ... .. 3 ... : ... .. . ... ... : --- .. . P83 ... : --- .. . ... ... : ... .. . ... ...
ROW CE : ... .. 2 ... ... ... : ... .. 2 ... ... ... : ... .. . ... : ... .. 2 ... : ... .. . ... ... : ... .. . ... ... : ... .. . ... ... : ... .. . ... ...
ROW CF : ... .. . ... ... ... : ... .. . ... ... ... : --- .. . ... : ... .. 0 ... : ... .. . ... ... : ... .. . ... ... : ... .. . ... ... : --- .. . P84 ...
ROW D0 : ... .. F ... ... ... : ... .. F ... ... ... : G#2 00 . ... : 1-# 00 F ... : ... .. . ... ... : D#3 01 A P80 ... : G#2 01 A ... ... : G#0 01 F P80 ...
ROW D1 : ... .. E ... ... ... : ... .. E ... ... ... : ... .. . ... : ... .. C ... : ... .. . ... ... : ... .. 9 ... ... : ... .. 9 ... ... : ... .. D ... ...
ROW D2 : ... .. D ... ... ... : ... .. D ... ... ... : ... .. . ... : ... .. 6 ... : ... .. . ... ... : ... .. 8 ... ... : ... .. 8 ... ... : ... .. 8 ... ...
ROW D3 : ... .. A ... ... ... : ... .. A ... ... ... : ... .. . ... : ... .. 3 ... : ... .. . ... ... : --- .. . P83 ... : --- .. . ... ... : ... .. . ... ...
ROW D4 : ... .. 2 ... ... ... : ... .. 2 ... ... ... : ... .. . ... : ... .. 2 ... : ... .. . ... ... : ... .. . ... ... : ... .. . ... ... : ... .. . ... ...
ROW D5 : ... .. . ... ... ... : ... .. . ... ... ... : --- .. . ... : ... .. 0 ... : ... .. . ... ... : ... .. . ... ... : ... .. . ... ... : --- .. . P84 ...
ROW D6 : C#3 00 F ... ... ... : G#2 00 F ... ... ... : F-5 00 . ... : D-# 00 F ... : ... .. . ... ... : D#3 01 A P80 ... : G#2 01 A ... ... : F#1 01 F P80 ...
ROW D7 : ... .. E ... ... ... : ... .. E ... ... ... : G-4 00 . ... : ... .. C ... : ... .. . ... ... : ... .. 9 ... ... : ... .. 9 ... ... : ... .. D ... ...
ROW D8 : ... .. D ... ... ... : ... .. D ... ... ... : C-4 00 . ... : ... .. 6 ... : ... .. . ... ... : ... .. 8 ... ... : ... .. 8 ... ... : ... .. 8 ... ...
ROW D9 : ... .. A ... ... ... : ... .. A ... ... ... : B-3 00 . ... : ... .. 3 ... : ... .. . ... ... : ... .. 7 ... ... : ... .. 7 ... ... : ... .. . ... ...
ROW DA : ... .. . ... ... ... : ... .. . ... ... ... : F#3 00 . ... : ... .. 2 ... : ... .. . ... ... : ... .. . ... ... : ... .. . ... ... : ... .. . ... ...
ROW DB : ... .. . ... ... ... : ... .. . ... ... ... : --- .. . ... : ... .. 0 ... : ... .. . ... ... : ... .. 6 ... ... : ... .. 6 ... ... : --- .. . P81 ...
ROW DC : B-2 00 F ... ... ... : F#2 00 F ... ... ... : G#3 00 . ... : 6-# 00 F ... : ... .. . ... ... : ... .. . ... ... : ... .. . ... ... : G#1 01 F P80 ...
ROW DD : ... .. E ... ... ... : ... .. E ... ... ... : ... .. . ... : ... .. C ... : ... .. . ... ... : ... .. 5 ... ... : ... .. 5 ... ... : ... .. D ... ...
ROW DE : ... .. D ... ... ... : ... .. D ... ... ... : ... .. . ... : ... .. 6 ... : ... .. . ... ... : ... .. . ... ... : ... .. . ... ... : ... .. 8 ... ...
ROW DF : ... .. A ... ... ... : ... .. A ... ... ... : ... .. . ... : ... .. 3 ... : ... .. . ... ... : ... .. . ... ... : ... .. . ... ... : ... .. . ... ...
ROW E0 : ... .. . ... ... ... : ... .. . ... ... ... : ... .. . ... : ... .. 2 ... : ... .. . ... ... : ... .. . ... ... : ... .. . ... ... : ... .. . ... ...
ROW E1 : ... .. . ... ... ... : ... .. . ... ... ... : --- .. . ... : ... .. 0 ... : ... .. . ... ... : ... .. . ... ... : ... .. . ... ... : --- .. . P7E ...
ROW E2 : F#2 00 F ... ... ... : C#2 00 F ... ... ... : F#2 00 . ... : D-# 00 F ... : ... .. . ... ... : ... .. . ... ... : ... .. . ... ... : F#0 01 F P80 ...
ROW E3 : ... .. E ... ... ... : ... .. E ... ... ... : ... .. . ... : ... .. C ... : ... .. . ... ... : ... .. . ... ... : ... .. . ... ... : ... .. D ... ...
ROW E4 : ... .. D ... ... ... : ... .. D ... ... ... : ... .. . ... : ... .. 6 ... : ... .. . ... ... : ... .. . ... ... : ... .. . ... ... : ... .. 8 ... ...
ROW E5 : ... .. A ... ... ... : ... .. A ... ... ... : ... .. . ... : ... .. 3 ... : ... .. . ... ... : ... .. . ... ... : ... .. . ... ... : ... .. . ... ...
ROW E6 : ... .. 2 ... ... ... : ... .. 2 ... ... ... : ... .. . ... : ... .. 2 ... : ... .. . ... ... : ... .. . ... ... : ... .. . ... ... : ... .. . ... ...
ROW E7 : ... .. . ... ... ... : ... .. . ... ... ... : --- .. . ... : ... .. 0 ... : ... .. . ... ... : ... .. . ... ... : ... .. . ... ... : --- .. . P81 ...
ROW E8 : G#2 00 F ... ... ... : D#2 00 F ... ... ... : G-4 00 . ... : 1-# 00 F ... : ... .. . ... ... : ... .. . ... ... : ... .. . ... ... : G#0 01 F P80 ...
ROW E9 : ... .. E ... ... ... : ... .. E ... ... ... : A-3 00 . ... : ... .. C ... : ... .. . ... ... : ... .. . ... ... : ... .. . ... ... : ... .. D ... ...
ROW EA : ... .. D ... ... ... : ... .. D ... ... ... : D-3 00 . ... : ... .. 6 ... : ... .. . ... ... : ... .. . ... ... : ... .. . ... ... : ... .. 8 ... ...
ROW EB : ... .. A ... ... ... : ... .. A ... ... ... : C#3 00 . ... : ... .. 3 ... : ... .. . ... ... : ... .. . ... ... : ... .. . ... ... : ... .. . ... ...
ROW EC : ... .. 2 ... ... ... : ... .. 2 ... ... ... : G#2 00 . ... : ... .. 2 ... : ... .. . ... ... : ... .. . ... ... : ... .. . ... ... : ... .. . ... ...
ROW ED : ... .. . ... ... ... : ... .. . ... ... ... : --- .. . ... : ... .. 0 ... : ... .. . ... ... : ... .. . ... ... : ... .. . ... ... : --- .. . P84 ...
ROW EE : ... .. F ... ... ... : ... .. F ... ... ... : G#2 00 . ... : ... .. F ... : ... .. . ... ... : ... .. . ... ... : ... .. . ... ... : G#0 01 F P80 ...
ROW EF : ... .. E ... ... ... : ... .. E ... ... ... : ... .. . ... : ... .. C ... : ... .. . ... ... : ... .. . ... ... : ... .. . ... ... : ... .. D ... ...
ROW F0 : ... .. D ... ... ... : ... .. D ... ... ... : ... .. . ... : ... .. 6 ... : ... .. . ... ... : ... .. . ... ... : ... .. . ... ... : ... .. 8 ... ...
ROW F1 : ... .. A ... ... ... : ... .. A ... ... ... : ... .. . ... : ... .. 3 ... : ... .. . ... ... : --- .. . P83 ... : --- .. . ... ... : ... .. . ... ...
ROW F2 : ... .. 2 ... ... ... : ... .. 2 ... ... ... : ... .. . ... : ... .. 2 ... : ... .. . ... ... : ... .. . ... ... : ... .. . ... ... : ... .. . ... ...
ROW F3 : ... .. . ... ... ... : ... .. . ... ... ... : --- .. . ... : ... .. 0 ... : ... .. . ... ... : ... .. . ... ... : ... .. . ... ... : --- .. . P84 ...
ROW F4 : ... .. F ... ... ... : ... .. F ... ... ... : G#2 00 . ... : 6-# 00 F ... : ... .. . ... ... : ... .. . ... ... : ... .. . ... ... : G#0 01 F P80 ...
ROW F5 : ... .. E ... ... ... : ... .. E ... ... ... : ... .. . ... : ... .. C ... : ... .. . ... ... : ... .. . ... ... : ... .. . ... ... : ... .. D ... ...
ROW F6 : ... .. D ... ... ... : ... .. D ... ... ... : ... .. . ... : ... .. 6 ... : ... .. . ... ... : ... .. . ... ... : ... .. . ... ... : ... .. 8 ... ...
ROW F7 : ... .. A ... ... ... : ... .. A ... ... ... : ... .. . ... : ... .. 3 ... : ... .. . ... ... : ... .. . ... ... : ... .. . ... ... : ... .. . ... ...
ROW F8 : ... .. 2 ... ... ... : ... .. 2 ... ... ... : ... .. . ... : ... .. 2 ... : ... .. . ... ... : ... .. . ... ... : ... .. . ... ... : ... .. . ... ...
ROW F9 : ... .. . ... ... ... : ... .. . ... ... ... : --- .. . ... : ... .. 0 ... : ... .. . ... ... : ... .. . ... ... : ... .. . ... ... : --- .. . P84 ...
ROW FA : E-3 00 F ... ... ... : B-2 00 F ... ... ... : D#5 00 . ... : D-# 00 F ... : ... .. . ... ... : D#3 01 A P80 ... : G#2 01 A ... ... : E-1 01 F P80 ...
ROW FB : ... .. E ... ... ... : ... .. E ... ... ... : F-4 00 . ... : ... .. C ... : ... .. . ... ... : ... .. 9 ... ... : ... .. 9 ... ... : ... .. D ... ...
ROW FC : ... .. D ... ... ... : ... .. D ... ... ... : A#3 00 . ... : ... .. 6 ... : ... .. . ... ... : ... .. 8 ... ... : ... .. 8 ... ... : ... .. 8 ... ...
ROW FD : ... .. A ... ... ... : ... .. A ... ... ... : A-3 00 . ... : ... .. 3 ... : ... .. . ... ... : --- .. . P83 ... : --- .. . ... ... : ... .. . ... ...
ROW FE : ... .. . ... ... ... : ... .. . ... ... ... : E-3 00 . ... : ... .. 2 ... : ... .. . ... ... : ... .. . ... ... : ... .. . ... ... : ... .. . ... ...
ROW FF : ... .. . ... ... ... : ... .. . ... ... ... : --- .. . ... : ... .. 0 ... : ... .. . ... ... : ... .. . ... ... : ... .. . ... ... : --- .. . P82 ...

PATTERN 06
ROW 00 : D#3 00 F ... ... ... : A#2 00 F ... ... ... : D#3 00 . ... : 1-# 00 F ... : ... .. . ... ... : D#3 01 A P80 ... : G#2 01 A ... ... : D#1 01 F P80 ...
ROW 01 : ... .. E ... ... ... : ... .. E ... ... ... : ... .. . ... : ... .. C ... : ... .. . ... ... : ... .. 9 ... ... : ... .. 9 ... ... : ... .. D ... ...
ROW 02 : ... .. D ... ... ... : ... .. D ... ... ... : ... .. . ... : ... .. 6 ... : ... .. . ... ... : ... .. 8 ... ... : ... .. 8 ... ... : ... .. 8 ... ...
ROW 03 : ... .. A ... ... ... : ... .. A ... ... ... : ... .. . ... : ... .. 3 ... : ... .. . ... ... : --- .. . P83 ... : --- .. . ... ... : ... .. . ... ...
ROW 04 : ... .. . ... ... ... : ... .. . ... ... ... : ... .. . ... : ... .. 2 ... : ... .. . ... ... : ... .. . ... ... : ... .. . ... ... : ... .. . ... ...
ROW 05 : ... .. . ... ... ... : ... .. . ... ... ... : --- .. . ... : ... .. 0 ... : ... .. . ... ... : ... .. . ... ... : ... .. . ... ... : --- .. . P81 ...
ROW 06 : B-2 00 F ... ... ... : F#2 00 F ... ... ... : F#2 00 . ... : D-# 00 F ... : ... .. . ... ... : D#3 01 A P80 ... : G#2 01 A ... ... : F#0 01 F P80 ...
ROW 07 : ... .. E ... ... ... : ... .. E ... ... ... : ... .. . ... : ... .. C ... : ... .. . ... ... : ... .. 9 ... ... : ... .. 9 ... ... : ... .. D ... ...
ROW 08 : ... .. D ... ... ... : ... .. D ... ... ... : ... .. . ... : ... .. 6 ... : ... .. . ... ... : ... .. 8 ... ... : ... .. 8 ... ... : ... .. 8 ... ...
ROW 09 : ... .. A ... ... ... : ... .. A ... ... ... : ... .. . ... : ... .. 3 ... : ... .. . ... ... : --- .. . P83 ... : --- .. . ... ... : ... .. . ... ...
ROW 0A : ... .. 2 ... ... ... : ... .. 2 ... ... ... : ... .. . ... : ... .. 2 ... : ... .. . ... ... : ... .. . ... ... : ... .. . ... ... : ... .. . ... ...
ROW 0B : ... .. . ... ... ... : ... .. . ... ... ... : --- .. . ... : ... .. 0 ... : ... .. . ... ... : ... .. . ... ... : ... .. . ... ... : --- .. . P81 ...
ROW 0C : C#3 00 F ... ... ... : G#2 00 F ... ... ... : C-5 00 . ... : 6-# 00 F ... : ... .. . ... ... : G#3 01 A P80 ... : D#3 01 A ... ... : C#1 01 F P80 ...
ROW 0D : ... .. E ... ... ... : ... .. E ... ... ... : D-4 00 . ... : ... .. C ... : ... .. . ... ... : ... .. 9 ... ... : ... .. 9 ... ... : ... .. D ... ...
ROW 0E : ... .. D ... ... ... : ... .. D ... ... ... : G-3 00 . ... : ... .. 6 ... : ... .. . ... ... : ... .. 8 ... ... : ... .. 8 ... ... : ... .. 8 ... ...
ROW 0F : ... .. A ... ... ... : ... .. A ... ... ... : F#3 00 . ... : ... .. 3 ... : ... .. . ... ... : ... .. 7 ... ... : ... .. 7 ... ... : ... .. . ... ...
ROW 10 : ... .. . ... ... ... : ... .. . ... ... ... : C#3 00 . ... : ... .. 2 ... : ... .. . ... ... : ... .. . ... ... : ... .. . ... ... : ... .. . ... ...
ROW 11 : ... .. . ... ... ... : ... .. . ... ... ... : --- .. . ... : ... .. 0 ... : ... .. . ... ... : ... .. 6 ... ... : ... .. 6 ... ... : --- .. . P81 ...
ROW 12 : F#2 00 F ... ... ... : C#2 00 F ... ... ... : B-2 00 . ... : D-# 00 F ... : ... .. . ... ... : D#3 01 A ... ... : G#2 01 A ... ... : B-0 01 F P80 ...
ROW 13 : ... .. E ... ... ... : ... .. E ... ... ... : ... .. . ... : ... .. C ... : ... .. . ... ... : ... .. 9 ... ... : ... .. 9 ... ... : ... .. D ... ...
ROW 14 : ... .. D ... ... ... : ... .. D ... ... ... : ... .. . ... : ... .. 6 ... : ... .. . ... ... : ... .. 8 ... ... : ... .. 8 ... ... : ... .. 8 ... ...
ROW 15 : ... .. A ... ... ... : ... .. A ... ... ... : ... .. . ... : ... .. 3 ... : ... .. . ... ... : --- .. . P83 ... : --- .. . ... ... : ... .. . ... ...
ROW 16 : ... .. . ... ... ... : ... .. . ... ... ... : ... .. . ... : ... .. 2 ... : ... .. . ... ... : ... .. . ... ... : ... .. . ... ... : ... .. . ... ...
ROW 17 : ... .. . ... ... ... : ... .. . ... ... ... : --- .. . ... : ... .. 0 ... : ... .. . ... ... : ... .. . ... ... : ... .. . ... ... : --- .. . ... ...
ROW 18 : G#2 00 F ... ... ... : D#2 00 F ... ... ... : C#3 00 . ... : 1-# 00 F ... : ... .. . ... ... : D#3 01 A P80 ... : G#2 01 A ... ... : C#1 01 F ... ...
ROW 19 : ... .. E ... ... ... : ... .. E ... ... ... : ... .. . ... : ... .. C ... : ... .. . ... ... : ... .. 9 ... ... : ... .. 9 ... ... : ... .. D ... ...
ROW 1A : ... .. D ... ... ... : ... .. D ... ... ... : ... .. . ... : ... .. 6 ... : ... .. . ... ... : ... .. 8 ... ... : ... .. 8 ... ... : ... .. 8 ... ...
ROW 1B : ... .. A ... ... ... : ... .. A ... ... ... : ... .. . ... : ... .. 3 ... : ... .. . ... ... : --- .. . P83 ... : --- .. . ... ... : ... .. . ... ...
ROW 1C : ... .. 2 ... ... ... : ... .. 2 ... ... ... : ... .. . ... : ... .. 2 ... : ... .. . ... ... : ... .. . ... ... : ... .. . ... ... : ... .. . ... ...
ROW 1D : ... .. . ... ... ... : ... .. . ... ... ... : --- .. . ... : ... .. 0 ... : ... .. . ... ... : ... .. . ... ... : ... .. . ... ... : --- .. . P81 ...
ROW 1E : C#2 00 F ... ... ... : G#1 00 F ... ... ... : F-5 00 . ... : ... .. F ... : ... .. . ... ... : D#3 01 A P80 ... : G#2 01 A ... ... : F#1 01 F P80 ...
ROW 1F : ... .. E ... ... ... : ... .. E ... ... ... : G-4 00 . ... : ... .. C ... : ... .. . ... ... : ... .. 9 ... ... : ... .. 9 ... ... : ... .. D ... ...
ROW 20 : ... .. D ... ... ... : ... .. D ... ... ... : C-4 00 . ... : ... .. 6 ... : ... .. . ... ... : ... .. 8 ... ... : ... .. 8 ... ... : ... .. 8 ... ...
ROW 21 : ... .. A ... ... ... : ... .. A ... ... ... : B-3 00 . ... : ... .. 3 ... : ... .. . ... ... : ... .. 7 ... ... : ... .. 7 ... ... : ... .. . ... ...
ROW 22 : ... .. . ... ... ... : ... .. . ... ... ... : F#3 00 . ... : ... .. 2 ... : ... .. . ... ... : ... .. . ... ... : ... .. . ... ... : ... .. . ... ...
ROW 23 : ... .. . ... ... ... : ... .. . ... ... ... : --- .. . ... : ... .. 0 ... : ... .. . ... ... : ... .. 6 ... ... : ... .. 6 ... ... : --- .. . P81 ...
ROW 24 : D#2 00 F ... ... ... : A#1 00 F ... ... ... : G#3 00 . ... : 6-# 00 F ... : ... .. . ... ... : ... .. . ... ... : ... .. . ... ... : G#1 01 F P80 ...
ROW 25 : ... .. E ... ... ... : ... .. E ... ... ... : ... .. . ... : ... .. C ... : ... .. . ... ... : ... .. 5 ... ... : ... .. 5 ... ... : ... .. D ... ...
ROW 26 : ... .. D ... ... ... : ... .. D ... ... ... : ... .. . ... : ... .. 6 ... : ... .. . ... ... : ... .. . ... ... : ... .. . ... ... : ... .. 8 ... ...
ROW 27 : ... .. A ... ... ... : ... .. A ... ... ... : ... .. . ... : ... .. 3 ... : ... .. . ... ... : ... .. . ... ... : ... .. . ... ... : ... .. . ... ...
ROW 28 : ... .. . ... ... ... : ... .. . ... ... ... : ... .. . ... : ... .. 2 ... : ... .. . ... ... : ... .. . ... ... : ... .. . ... ... : ... .. . ... ...
ROW 29 : ... .. . ... ... ... : ... .. . ... ... ... : --- .. . ... : ... .. 0 ... : ... .. . ... ... : ... .. . ... ... : ... .. . ... ... : --- .. . P7E ...
ROW 2A : B-1 00 F ... ... ... : F#1 00 F ... ... ... : B-3 00 . ... : ... .. F ... : ... .. . ... ... : ... .. . ... ... : ... .. . ... ... : B-1 01 F P80 ...
ROW 2B : ... .. E ... ... ... : ... .. E ... ... ... : ... .. . ... : ... .. C ... : ... .. . ... ... : ... .. . ... ... : ... .. . ... ... : ... .. D ... ...
ROW 2C : ... .. D ... ... ... : ... .. D ... ... ... : ... .. . ... : ... .. 6 ... : ... .. . ... ... : ... .. . ... ... : ... .. . ... ... : ... .. 8 ... ...
ROW 2D : ... .. A ... ... ... : ... .. A ... ... ... : ... .. . ... : ... .. 3 ... : ... .. . ... ... : --- .. . P83 ... : --- .. . ... ... : ... .. . ... ...
ROW 2E : ... .. 2 ... ... ... : ... .. 2 ... ... ... : ... .. . ... : ... .. 2 ... : ... .. . ... ... : ... .. . ... ... : ... .. . ... ... : ... .. . ... ...
ROW 2F : ... .. . ... ... ... : ... .. . ... ... ... : --- .. . ... : ... .. 0 ... : ... .. . ... ... : ... .. . ... ... : ... .. . ... ... : --- .. . P86 ...
ROW 30 : G#1 00 F ... ... ... : D#1 00 F ... ... ... : G-4 00 . ... : 1-# 00 F ... : ... .. . ... ... : ... .. . ... ... : ... .. . ... ... : G#0 01 F P80 ...
ROW 31 : ... .. E ... ... ... : ... .. E ... ... ... : A-3 00 . ... : ... .. C ... : ... .. . ... ... : ... .. . ... ... : ... .. . ... ... : ... .. D ... ...
ROW 32 : ... .. D ... ... ... : ... .. D ... ... ... : D-3 00 . ... : ... .. 6 ... : ... .. . ... ... : ... .. . ... ... : ... .. . ... ... : ... .. 8 ... ...
ROW 33 : ... .. A ... ... ... : ... .. A ... ... ... : C#3 00 . ... : ... .. 3 ... : ... .. . ... ... : ... .. . ... ... : ... .. . ... ... : ... .. . ... ...
ROW 34 : ... .. 2 ... ... ... : ... .. 2 ... ... ... : G#2 00 . ... : ... .. 2 ... : ... .. . ... ... : ... .. . ... ... : ... .. . ... ... : ... .. . ... ...
ROW 35 : ... .. . ... ... ... : ... .. . ... ... ... : --- .. . ... : ... .. 0 ... : ... .. . ... ... : ... .. . ... ... : ... .. . ... ... : --- .. . P84 ...
ROW 36 : ... .. F ... ... ... : ... .. F ... ... ... : G#2 00 . ... : ... .. F ... : ... .. . ... ... : ... .. . ... ... : ... .. . ... ... : G#0 01 F P80 ...
ROW 37 : ... .. E ... ... ... : ... .. E ... ... ... : ... .. . ... : ... .. C ... : ... .. . ... ... : ... .. . ... ... : ... .. . ... ... : ... .. D ... ...
ROW 38 : ... .. D ... ... ... : ... .. D ... ... ... : ... .. . ... : ... .. 6 ... : ... .. . ... ... : ... .. . ... ... : ... .. . ... ... : ... .. 8 ... ...
ROW 39 : ... .. A ... ... ... : ... .. A ... ... ... : ... .. . ... : ... .. 3 ... : ... .. . ... ... : ... .. . ... ... : ... .. . ... ... : ... .. . ... ...
ROW 3A : ... .. 2 ... ... ... : ... .. 2 ... ... ... : ... .. . ... : ... .. 2 ... : ... .. . ... ... : ... .. . ... ... : ... .. . ... ... : ... .. . ... ...
ROW 3B : ... .. . ... ... ... : ... .. . ... ... ... : --- .. . ... : ... .. 0 ... : ... .. . ... ... : ... .. . ... ... : ... .. . ... ... : --- .. . P84 ...
ROW 3C : ... .. F ... ... ... : ... .. F ... ... ... : G#2 00 . ... : 6-# 00 F ... : ... .. . ... ... : ... .. . ... ... : ... .. . ... ... : G#0 01 F P80 ...
ROW 3D : ... .. E ... ... ... : ... .. E ... ... ... : ... .. . ... : ... .. C ... : ... .. . ... ... : ... .. . ... ... : ... .. . ... ... : ... .. D ... ...
ROW 3E : ... .. D ... ... ... : ... .. D ... ... ... : ... .. . ... : ... .. 6 ... : ... .. . ... ... : ... .. . ... ... : ... .. . ... ... : ... .. 8 ... ...
ROW 3F : ... .. A ... ... ... : ... .. A ... ... ... : ... .. . ... : ... .. 3 ... : ... .. . ... ... : ... .. . ... ... : ... .. . ... ... : ... .. . ... ...
ROW 40 : ... .. 2 ... ... ... : ... .. 2 ... ... ... : ... .. . ... : ... .. 2 ... : ... .. . ... ... : ... .. . ... ... : ... .. . ... ... : ... .. . ... ...
ROW 41 : ... .. . ... ... ... : ... .. . ... ... ... : --- .. . ... : ... .. 0 ... : ... .. . ... ... : ... .. . ... ... : ... .. . ... ... : --- .. . P84 ...
ROW 42 : C#3 00 F ... ... ... : G#2 00 F ... ... ... : C-6 00 . ... : 1-# 00 F ... : ... .. . ... ... : G#4 01 A P80 ... : C#4 01 A ... ... : C#2 01 F P80 ...
ROW 43 : ... .. E ... ... ... : ... .. E ... ... ... : D-5 00 . ... : ... .. C ... : ... .. . ... ... : ... .. 9 ... ... : --- .. . ... ... : ... .. D ... ...
ROW 44 : ... .. D ... ... ... : ... .. D ... ... ... : G-4 00 . ... : ... .. 6 ... : ... .. . ... ... : --- .. . ... ... : ... .. . ... ... : ... .. 8 ... ...
ROW 45 : ... .. A ... ... ... : ... .. A ... ... ... : F#4 00 . ... : ... .. 3 ... : ... .. . ... ... : G#4 01 A ... ... : C#4 01 A ... ... : ... .. . ... ...
ROW 46 : ... .. . ... ... ... : ... .. . ... ... ... : C#4 00 . ... : ... .. 2 ... : ... .. . ... ... : ... .. 9 ... ... : --- .. . ... ... : ... .. . ... ...
ROW 47 : ... .. . ... ... ... : ... .. . ... ... ... : ... .. . ... : ... .. 0 ... : ... .. . ... ... : --- .. . ... ... : ... .. . ... ... : ... .. . ... ...
ROW 48 : ... .. . ... ... ... : ... .. . ... ... ... : D-4 00 . P7B : ... .. F ... : ... .. . ... ... : G#4 01 A ... ... : C#4 01 A ... ... : ... .. . P87 ...
ROW 49 : ... .. . ... ... ... : ... .. . ... ... ... : ... .. . P7D : ... .. C ... : ... .. . ... ... : ... .. 9 ... ... : --- .. . ... ... : ... .. . P89 ...
ROW 4A : ... .. . ... ... ... : ... .. . ... ... ... : C#4 00 . P86 : ... .. 6 ... : ... .. . ... ... : --- .. . ... ... : ... .. . ... ... : ... .. . P86 ...
ROW 4B : D-3 00 A P88 ... ... : A-2 00 A ... ... ... : ... .. . P80 : ... .. 3 ... : ... .. . ... ... : G#4 01 A ... ... : C#4 01 A ... ... : ... .. . P80 ...
ROW 4C : D#3 00 A P7F ... ... : ... .. . P8C ... ... : C-4 00 . P85 : ... .. 2 ... : ... .. . ... ... : ... .. 9 ... ... : --- .. . ... ... : ... .. . P79 ...
ROW 4D : D-3 00 A P84 ... ... : ... .. . P7C ... ... : ... .. . P83 : ... .. 0 ... : ... .. . ... ... : --- .. . ... ... : ... .. . ... ... : ... .. . P77 ...
ROW 4E : C#3 00 A P80 ... ... : G#2 00 A P80 ... ... : ... .. . P86 : ... .. F ... : ... .. . ... ... : G#4 01 A ... ... : C#4 01 A ... ... : ... .. . P7A ...
ROW 4F : C-3 00 A P79 ... ... : G-2 00 A P81 ... ... : C#4 00 . P80 : ... .. C ... : ... .. . ... ... : ... .. 9 ... ... : ... .. 9 ... ... : ... .. . P80 ...
ROW 50 : B-2 00 A P86 ... ... : ... .. . P75 ... ... : D-4 00 . P7B : ... .. 6 ... : ... .. . ... ... : ... .. 8 ... ... : ... .. 8 ... ... : ... .. . P87 ...
ROW 51 : C-3 00 A P7D ... ... : ... .. . P85 ... ... : ... .. . P7D : ... .. 3 ... : ... .. . ... ... : --- .. . ... ... : --- .. . ... ... : ... .. . P89 ...
ROW 52 : C#3 00 2 P80 ... ... : G#2 00 2 P80 ... ... : C#4 00 . P86 : ... .. 2 ... : ... .. . ... ... : ... .. . ... ... : ... .. . ... ... : ... .. . P86 ...
ROW 53 : D-3 00 2 P88 ... ... : A-2 00 2 ... ... ... : ... .. . P80 : ... .. 0 ... : ... .. . ... ... : ... .. . ... ... : ... .. . ... ... : ... .. . P80 ...
ROW 54 : G#1 00 F P80 ... ... : D#1 00 F ... ... ... : G-4 00 . ... : 6-# 00 F ... : ... .. . ... ... : G#4 01 A ... ... : G#3 01 A ... ... : G#0 01 F ... ...
ROW 55 : ... .. E ... ... ... : ... .. E ... ... ... : A-3 00 . ... : ... .. C ... : ... .. . ... ... : ... .. 9 ... ... : ... .. 9 ... ... : ... .. D ... ...
ROW 56 : ... .. D ... ... ... : ... .. D ... ... ... : D-3 00 . ... : ... .. 6 ... : ... .. . ... ... : ... .. 8 ... ... : ... .. 8 ... ... : ... .. 8 ... ...
ROW 57 : ... .. A ... ... ... : ... .. A ... ... ... : C#3 00 . ... : ... .. 3 ... : ... .. . ... ... : --- .. . ... ... : --- .. . P82 ... : ... .. . ... ...
ROW 58 : ... .. 2 ... ... ... : ... .. 2 ... ... ... : G#2 00 . ... : ... .. 2 ... : ... .. . ... ... : ... .. . ... ... : ... .. . ... ... : ... .. . ... ...
ROW 59 : ... .. . ... ... ... : ... .. . ... ... ... : --- .. . ... : ... .. 0 ... : ... .. . ... ... : ... .. . ... ... : ... .. . ... ... : --- .. . P84 ...
ROW 5A : ... .. F ... ... ... : ... .. F ... ... ... : G#2 00 . ... : 1-# 00 F ... : ... .. . ... ... : D#4 01 A ... ... : C#4 01 A P80 ... : G#0 01 F P80 ...
ROW 5B : ... .. E ... ... ... : ... .. E ... ... ... : ... .. . ... : ... .. C ... : ... .. . ... ... : ... .. 9 ... ... : ... .. 9 ... ... : ... .. D ... ...
ROW 5C : ... .. D ... ... ... : ... .. D ... ... ... : ... .. . ... : ... .. 6 ... : ... .. . ... ... : ... .. 8 ... ... : ... .. 8 ... ... : ... .. 8 ... ...
ROW 5D : ... .. A ... ... ... : ... .. A ... ... ... : ... .. . ... : ... .. 3 ... : ... .. . ... ... : --- .. . ... ... : --- .. . ... ... : ... .. . ... ...
ROW 5E : ... .. 2 ... ... ... : ... .. 2 ... ... ... : ... .. . ... : ... .. 2 ... : ... .. . ... ... : ... .. . ... ... : ... .. . ... ... : ... .. . ... ...
ROW 5F : ... .. . ... ... ... : ... .. . ... ... ... : --- .. . ... : ... .. 0 ... : ... .. . ... ... : ... .. . ... ... : ... .. . ... ... : --- .. . P84 ...
ROW 60 : ... .. F ... ... ... : ... .. F ... ... ... : G#2 00 . ... : ... .. F ... : ... .. . ... ... : D#4 01 A ... ... : F#4 01 A ... ... : G#0 01 F P80 ...
ROW 61 : ... .. E ... ... ... : ... .. E ... ... ... : ... .. . ... : ... .. C ... : ... .. . ... ... : ... .. 9 ... ... : ... .. 9 ... ... : ... .. D ... ...
ROW 62 : ... .. D ... ... ... : ... .. D ... ... ... : ... .. . ... : ... .. 6 ... : ... .. . ... ... : ... .. 8 ... ... : ... .. 8 ... ... : ... .. 8 ... ...
ROW 63 : ... .. A ... ... ... : ... .. A ... ... ... : ... .. . ... : ... .. 3 ... : ... .. . ... ... : --- .. . ... ... : --- .. . ... ... : ... .. . ... ...
ROW 64 : ... .. 2 ... ... ... : ... .. 2 ... ... ... : ... .. . ... : ... .. 2 ... : ... .. . ... ... : ... .. . ... ... : ... .. . ... ... : ... .. . ... ...
ROW 65 : ... .. . ... ... ... : ... .. . ... ... ... : --- .. . ... : ... .. 0 ... : ... .. . ... ... : ... .. . ... ... : ... .. . ... ... : --- .. . P84 ...
ROW 66 : C#3 00 F ... ... ... : G#2 00 F ... ... ... : C-6 00 . ... : ... .. F ... : ... .. . ... ... : D#4 01 A ... ... : G#3 01 A ... ... : C#2 01 F P80 ...
ROW 67 : ... .. E ... ... ... : ... .. E ... ... ... : D-5 00 . ... : ... .. C ... : ... .. . ... ... : ... .. 9 ... ... : ... .. 9 ... ... : ... .. D ... ...
ROW 68 : ... .. D ... ... ... : ... .. D ... ... ... : G-4 00 . ... : ... .. 6 ... : ... .. . ... ... : ... .. 8 ... ... : ... .. 8 ... ... : ... .. 8 ... ...
ROW 69 : ... .. A ... ... ... : ... .. A ... ... ... : F#4 00 . ... : ... .. 3 ... : ... .. . ... ... : ... .. 7 ... ... : ... .. 7 ... ... : ... .. . ... ...
ROW 6A : ... .. . ... ... ... : ... .. . ... ... ... : C#4 00 . ... : ... .. 2 ... : ... .. . ... ... : ... .. . ... ... : ... .. . ... ... : ... .. . ... ...
ROW 6B : ... .. . ... ... ... : ... .. . ... ... ... : ... .. . ... : ... .. 0 ... : ... .. . ... ... : ... .. 6 ... ... : ... .. 6 ... ... : ... .. . ... ...
ROW 6C : D-3 00 A P88 ... ... : A-2 00 A ... ... ... : D-4 00 . P7B : 6-# 00 F ... : ... .. . ... ... : ... .. . ... ... : ... .. . ... ... : ... .. . P87 ...
ROW 6D : D#3 00 A P7F ... ... : ... .. . P8C ... ... : ... .. . P7D : ... .. C ... : ... .. . ... ... : ... .. 5 ... ... : ... .. 5 ... ... : ... .. . P89 ...
ROW 6E : D-3 00 A P84 ... ... : ... .. . P7C ... ... : C#4 00 . P86 : ... .. 6 ... : ... .. . ... ... : ... .. . ... ... : ... .. . ... ... : ... .. . P86 ...
ROW 6F : C#3 00 A P80 ... ... : G#2 00 A P80 ... ... : ... .. . P80 : ... .. 3 ... : ... .. . ... ... : E-4 01 5 P7D ... : ... .. . P87 ... : ... .. . P80 ...
ROW 70 : C-3 00 A P79 ... ... : G-2 00 A P81 ... ... : C-4 00 . P85 : ... .. 2 ... : ... .. . ... ... : ... .. . P7F ... : A-3 01 5 P7A ... : ... .. . P79 ...
ROW 71 : B-2 00 A P86 ... ... : ... .. . P75 ... ... : ... .. . P83 : ... .. 0 ... : ... .. . ... ... : ... .. . P7C ... : G#3 01 5 P86 ... : ... .. . P77 ...
ROW 72 : C-3 00 A P7D ... ... : ... .. . P85 ... ... : ... .. . P86 : 1-# 00 F ... : ... .. . ... ... : D#4 01 5 P80 ... : ... .. . P80 ... : ... .. . P7A ...
ROW 73 : C#3 00 A P80 ... ... : G#2 00 A P80 ... ... : C#4 00 . P80 : ... .. C ... : ... .. . ... ... : D-4 01 5 P83 ... : ... .. . P79 ... : ... .. . P80 ...
ROW 74 : D-3 00 A P88 ... ... : A-2 00 A ... ... ... : D-4 00 . P7B : ... .. 6 ... : ... .. . ... ... : ... .. . P81 ... : G-3 01 5 P87 ... : ... .. . P87 ...
ROW 75 : D#3 00 A P7F ... ... : ... .. . P8C ... ... : ... .. . P7D : ... .. 3 ... : ... .. . ... ... : ... .. . P84 ... : G#3 01 5 P7A ... : ... .. . P89 ...
ROW 76 : D-3 00 2 P84 ... ... : ... .. 2 P7C ... ... : C#4 00 . P86 : ... .. 2 ... : ... .. . ... ... : D#4 01 5 P80 ... : ... .. . P80 ... : ... .. . P86 ...
ROW 77 : C#3 00 2 P80 ... ... : G#2 00 2 P80 ... ... : ... .. . P80 : ... .. 0 ... : ... .. . ... ... : E-4 01 5 P7D ... : ... .. . P87 ... : ... .. . P80 ...
ROW 78 : B-2 00 F ... ... ... : F#2 00 F ... ... ... : G-4 00 . ... : 6-# 00 F ... : ... .. . ... ... : ... .. . P7F ... : A-3 01 5 P7A ... : G#0 01 F ... ...
ROW 79 : ... .. E ... ... ... : ... .. E ... ... ... : A-3 00 . ... : ... .. C ... : ... .. . ... ... : ... .. . P7C ... : G#3 01 5 P86 ... : ... .. D ... ...
ROW 7A : ... .. D ... ... ... : ... .. D ... ... ... : D-3 00 . ... : ... .. 6 ... : ... .. . ... ... : D#4 01 5 P80 ... : ... .. . P80 ... : ... .. 8 ... ...
ROW 7B : ... .. A ... ... ... : ... .. A ... ... ... : C#3 00 . ... : ... .. 3 ... : ... .. . ... ... : D-4 01 5 P83 ... : ... .. . P79 ... : ... .. . ... ...
ROW 7C : ... .. 2 ... ... ... : ... .. 2 ... ... ... : G#2 00 . ... : ... .. 2 ... : ... .. . ... ... : ... .. . P81 ... : G-3 01 5 P87 ... : ... .. . ... ...
ROW 7D : ... .. . ... ... ... : ... .. . ... ... ... : --- .. . ... : ... .. 0 ... : ... .. . ... ... : ... .. . P84 ... : G#3 01 5 P7A ... : --- .. . P84 ...
ROW 7E : F#2 00 F ... ... ... : C#2 00 F ... ... ... : G#2 00 . ... : 1-# 00 F ... : ... .. . ... ... : D#4 01 5 P80 ... : ... .. . P80 ... : G#0 01 F P80 ...
ROW 7F : ... .. E ... ... ... : ... .. E ... ... ... : ... .. . ... : ... .. C ... : ... .. . ... ... : E-4 01 5 P7D ... : ... .. . P87 ... : ... .. D ... ...
ROW 80 : ... .. D ... ... ... : ... .. D ... ... ... : ... .. . ... : ... .. 6 ... : ... .. . ... ... : ... .. . P7F ... : A-3 01 5 P7A ... : ... .. 8 ... ...
ROW 81 : ... .. A ... ... ... : ... .. A ... ... ... : ... .. . ... : ... .. 3 ... : ... .. . ... ... : --- .. . ... ... : --- .. . P8B ... : ... .. . ... ...
ROW 82 : ... .. 2 ... ... ... : ... .. 2 ... ... ... : ... .. . ... : ... .. 2 ... : ... .. . ... ... : ... .. . ... ... : ... .. . ... ... : ... .. . ... ...
ROW 83 : ... .. . ... ... ... : ... .. . ... ... ... : --- .. . ... : ... .. 0 ... : ... .. . ... ... : ... .. . ... ... : ... .. . ... ... : --- .. . P84 ...
ROW 84 : ... .. F ... ... ... : ... .. F ... ... ... : G#2 00 . ... : ... .. F ... : ... .. . ... ... : ... .. . ... ... : ... .. . ... ... : G#0 01 F P80 ...
ROW 85 : ... .. E ... ... ... : ... .. E ... ... ... : ... .. . ... : ... .. C ... : ... .. . ... ... : ... .. . ... ... : ... .. . ... ... : ... .. D ... ...
ROW 86 : ... .. D ... ... ... : ... .. D ... ... ... : ... .. . ... : ... .. 6 ... : ... .. . ... ... : ... .. . ... ... : ... .. . ... ... : ... .. 8 ... ...
ROW 87 : ... .. A ... ... ... : ... .. A ... ... ... : ... .. . ... : ... .. 3 ... : ... .. . ... ... : ... .. . ... ... : ... .. . ... ... : ... .. . ... ...
ROW 88 : ... .. 2 ... ... ... : ... .. 2 ... ... ... : ... .. . ... : ... .. 2 ... : ... .. . ... ... : ... .. . ... ... : ... .. . ... ... : ... .. . ... ...
ROW 89 : ... .. . ... ... ... : ... .. . ... ... ... : --- .. . ... : ... .. 0 ... : ... .. . ... ... : ... .. . ... ... : ... .. . ... ... : --- .. . P84 ...
ROW 8A : B-2 00 F ... ... ... : F#2 00 F ... ... ... : F-5 00 . ... : A-# 00 F ... : ... .. . ... ... : G#3 01 A P80 ... : D#3 01 A P80 ... : F#1 01 F P80 ...
ROW 8B : ... .. E ... ... ... : ... .. E ... ... ... : G-4 00 . ... : ... .. C ... : ... .. . ... ... : ... .. 9 ... ... : ... .. 9 ... ... : ... .. D ... ...
ROW 8C : ... .. D ... ... ... : ... .. D ... ... ... : C-4 00 . ... : ... .. 6 ... : ... .. . ... ... : ... .. 8 ... ... : ... .. 8 ... ... : ... .. 8 ... ...
ROW 8D : ... .. A ... ... ... : ... .. A ... ... ... : B-3 00 . ... : ... .. 3 ... : ... .. . ... ... : --- .. . P82 ... : --- .. . P83 ... : ... .. . ... ...
ROW 8E : ... .. . ... ... ... : ... .. . ... ... ... : F#3 00 . ... : ... .. 2 ... : ... .. . ... ... : ... .. . ... ... : ... .. . ... ... : ... .. . ... ...
ROW 8F : ... .. . ... ... ... : ... .. . ... ... ... : --- .. . ... : ... .. 0 ... : ... .. . ... ... : ... .. . ... ... : ... .. . ... ... : --- .. . P81 ...
ROW 90 : C#3 00 F ... ... ... : G#2 00 F ... ... ... : G#3 00 . ... : 1-# 00 F ... : ... .. . ... ... : C#4 01 A P80 ... : G#3 01 A P80 ... : G#1 01 F P80 ...
ROW 91 : ... .. E ... ... ... : ... .. E ... ... ... : ... .. . ... : ... .. C ... : ... .. . ... ... : ... .. 9 ... ... : ... .. 9 ... ... : ... .. D ... ...
ROW 92 : ... .. D ... ... ... : ... .. D ... ... ... : ... .. . ... : ... .. 6 ... : ... .. . ... ... : ... .. 8 ... ... : ... .. 8 ... ... : ... .. 8 ... ...
ROW 93 : ... .. A ... ... ... : ... .. A ... ... ... : ... .. . ... : ... .. 3 ... : ... .. . ... ... : --- .. . ... ... : --- .. . P82 ... : ... .. . ... ...
ROW 94 : ... .. 2 ... ... ... : ... .. 2 ... ... ... : ... .. . ... : ... .. 2 ... : ... .. . ... ... : ... .. . ... ... : ... .. . ... ... : ... .. . ... ...
ROW 95 : ... .. . ... ... ... : ... .. . ... ... ... : --- .. . ... : ... .. 0 ... : ... .. . ... ... : ... .. . ... ... : ... .. . ... ... : --- .. . P7E ...
ROW 96 : G#2 00 F ... ... ... : D#2 00 F ... ... ... : B-3 00 . ... : ... .. F ... : ... .. . ... ... : F#4 01 A ... ... : C#4 01 A P80 ... : B-1 01 F P80 ...
ROW 97 : ... .. E ... ... ... : ... .. E ... ... ... : ... .. . ... : ... .. C ... : ... .. . ... ... : ... .. 9 ... ... : ... .. 9 ... ... : ... .. D ... ...
ROW 98 : ... .. D ... ... ... : ... .. D ... ... ... : ... .. . ... : ... .. 6 ... : ... .. . ... ... : ... .. 8 ... ... : ... .. 8 ... ... : ... .. 8 ... ...
ROW 99 : ... .. A ... ... ... : ... .. A ... ... ... : ... .. . ... : ... .. 3 ... : ... .. . ... ... : --- .. . ... ... : --- .. . ... ... : ... .. . ... ...
ROW 9A : ... .. 2 ... ... ... : ... .. 2 ... ... ... : ... .. . ... : ... .. 2 ... : ... .. . ... ... : ... .. . ... ... : ... .. . ... ... : ... .. . ... ...
ROW 9B : ... .. . ... ... ... : ... .. . ... ... ... : --- .. . ... : ... .. 0 ... : ... .. . ... ... : ... .. . ... ... : ... .. . ... ... : --- .. . P86 ...
ROW 9C : B-2 00 F ... ... ... : F#2 00 F ... ... ... : G-5 00 . ... : 6-# 00 F ... : ... .. . ... ... : F#4 01 A ... ... : C#4 01 A ... ... : G#1 01 F P80 ...
ROW 9D : ... .. E ... ... ... : ... .. E ... ... ... : A-4 00 . ... : ... .. C ... : ... .. . ... ... : ... .. 9 ... ... : ... .. 9 ... ... : ... .. D ... ...
ROW 9E : ... .. D ... ... ... : ... .. D ... ... ... : D-4 00 . ... : ... .. 6 ... : ... .. . ... ... : ... .. 8 ... ... : ... .. 8 ... ... : ... .. 8 ... ...
ROW 9F : ... .. A ... ... ... : ... .. A ... ... ... : C#4 00 . ... : ... .. 3 ... : ... .. . ... ... : ... .. 7 ... ... : ... .. 7 ... ... : ... .. . ... ...
ROW A0 : ... .. . ... ... ... : ... .. . ... ... ... : G#3 00 . ... : ... .. 2 ... : ... .. . ... ... : ... .. . ... ... : ... .. . ... ... : ... .. . ... ...
ROW A1 : ... .. . ... ... ... : ... .. . ... ... ... : --- .. . ... : ... .. 0 ... : ... .. . ... ... : ... .. 6 ... ... : ... .. 6 ... ... : --- .. . P7E ...
ROW A2 : F#2 00 F ... ... ... : C#2 00 F ... ... ... : F#3 00 . ... : ... .. F ... : ... .. . ... ... : D#4 01 A ... ... : A#3 01 A ... ... : F#1 01 F P80 ...
ROW A3 : ... .. E ... ... ... : ... .. E ... ... ... : ... .. . ... : ... .. C ... : ... .. . ... ... : ... .. 9 ... ... : ... .. 9 ... ... : ... .. D ... ...
ROW A4 : ... .. D ... ... ... : ... .. D ... ... ... : ... .. . ... : ... .. 6 ... : ... .. . ... ... : ... .. 8 ... ... : ... .. 8 ... ... : ... .. 8 ... ...
ROW A5 : ... .. A ... ... ... : ... .. A ... ... ... : ... .. . ... : ... .. 3 ... : ... .. . ... ... : --- .. . ... ... : --- .. . ... ... : ... .. . ... ...
ROW A6 : ... .. 2 ... ... ... : ... .. 2 ... ... ... : ... .. . ... : ... .. 2 ... : ... .. . ... ... : ... .. . ... ... : ... .. . ... ... : ... .. . ... ...
ROW A7 : ... .. . ... ... ... : ... .. . ... ... ... : --- .. . ... : ... .. 0 ... : ... .. . ... ... : ... .. . ... ... : ... .. . ... ... : --- .. . P81 ...
ROW A8 : ... .. F ... ... ... : ... .. F ... ... ... : D#3 00 . ... : 5-# 00 F ... : ... .. . ... ... : G#4 01 A ... ... : D#4 01 A ... ... : D#1 01 F P80 ...
ROW A9 : ... .. E ... ... ... : ... .. E ... ... ... : ... .. . ... : ... .. C ... : ... .. . ... ... : ... .. 9 ... ... : ... .. 9 ... ... : ... .. D ... ...
ROW AA : ... .. D ... ... ... : ... .. D ... ... ... : ... .. . ... : ... .. 6 ... : ... .. . ... ... : ... .. 8 ... ... : ... .. 8 ... ... : ... .. 8 ... ...
ROW AB : ... .. A ... ... ... : ... .. A ... ... ... : ... .. . ... : ... .. 3 ... : ... .. . ... ... : --- .. . ... ... : --- .. . ... ... : ... .. . ... ...
ROW AC : ... .. 2 ... ... ... : ... .. 2 ... ... ... : ... .. . ... : ... .. 2 ... : ... .. . ... ... : ... .. . ... ... : ... .. . ... ... : ... .. . ... ...
ROW AD : ... .. . ... ... ... : ... .. . ... ... ... : --- .. . ... : ... .. 0 ... : ... .. . ... ... : ... .. . ... ... : ... .. . ... ... : --- .. . P81 ...
ROW AE : B-2 00 F ... ... ... : F#2 00 F ... ... ... : C-5 00 . ... : ... .. F ... : ... .. . ... ... : C#5 01 A ... ... : G#4 01 A ... ... : C#1 01 F P80 ...
ROW AF : ... .. E ... ... ... : ... .. E ... ... ... : D-4 00 . ... : ... .. C ... : ... .. . ... ... : ... .. 9 ... ... : ... .. 9 ... ... : ... .. D ... ...
ROW B0 : ... .. D ... ... ... : ... .. D ... ... ... : G-3 00 . ... : ... .. 6 ... : ... .. . ... ... : ... .. 8 ... ... : ... .. 8 ... ... : ... .. 8 ... ...
ROW B1 : ... .. A ... ... ... : ... .. A ... ... ... : F#3 00 . ... : ... .. 3 ... : ... .. . ... ... : --- .. . ... ... : --- .. . ... ... : ... .. . ... ...
ROW B2 : ... .. . ... ... ... : ... .. . ... ... ... : C#3 00 . ... : ... .. 2 ... : ... .. . ... ... : ... .. . ... ... : ... .. . ... ... : ... .. . ... ...
ROW B3 : ... .. . ... ... ... : ... .. . ... ... ... : --- .. . ... : ... .. 0 ... : ... .. . ... ... : ... .. . ... ... : ... .. . ... ... : --- .. . P81 ...
ROW B4 : C#3 00 F ... ... ... : G#2 00 F ... ... ... : B-2 00 . ... : 3-# 00 F ... : ... .. . ... ... : B-4 01 A ... ... : F#4 01 A ... ... : B-0 01 F P80 ...
ROW B5 : ... .. E ... ... ... : ... .. E ... ... ... : ... .. . ... : ... .. C ... : ... .. . ... ... : ... .. 9 ... ... : ... .. 9 ... ... : ... .. D ... ...
ROW B6 : ... .. D ... ... ... : ... .. D ... ... ... : ... .. . ... : ... .. 6 ... : ... .. . ... ... : ... .. 8 ... ... : ... .. 8 ... ... : ... .. 8 ... ...
ROW B7 : ... .. A ... ... ... : ... .. A ... ... ... : ... .. . ... : ... .. 3 ... : ... .. . ... ... : --- .. . ... ... : --- .. . ... ... : ... .. . ... ...
ROW B8 : ... .. 2 ... ... ... : ... .. 2 ... ... ... : ... .. . ... : ... .. 2 ... : ... .. . ... ... : ... .. . ... ... : ... .. . ... ... : ... .. . ... ...
ROW B9 : ... .. . ... ... ... : ... .. . ... ... ... : --- .. . ... : ... .. 0 ... : ... .. . ... ... : ... .. . ... ... : ... .. . ... ... : --- .. . ... ...
ROW BA : F#2 00 F ... ... ... : C#2 00 F ... ... ... : C#3 00 . ... : ... .. F ... : ... .. . ... ... : F#5 01 A ... ... : C#5 01 A ... ... : C#1 01 F ... ...
ROW BB : ... .. E ... ... ... : ... .. E ... ... ... : ... .. . ... : ... .. C ... : ... .. . ... ... : ... .. 9 ... ... : ... .. 9 ... ... : ... .. D ... ...
ROW BC : ... .. D ... ... ... : ... .. D ... ... ... : ... .. . ... : ... .. 6 ... : ... .. . ... ... : ... .. 8 ... ... : ... .. 8 ... ... : ... .. 8 ... ...
ROW BD : ... .. A ... ... ... : ... .. A ... ... ... : ... .. . ... : ... .. 3 ... : ... .. . ... ... : --- .. . ... ... : --- .. . ... ... : ... .. . ... ...
ROW BE : ... .. 2 ... ... ... : ... .. 2 ... ... ... : ... .. . ... : ... .. 2 ... : ... .. . ... ... : ... .. . ... ... : ... .. . ... ... : ... .. . ... ...
ROW BF : ... .. . ... ... ... : ... .. . ... ... ... : --- .. . ... : ... .. 0 ... : ... .. . ... ... : ... .. . ... ... : ... .. . ... ... : --- .. . P81 ...
ROW C0 : G#1 00 F ... ... ... : D#1 00 F ... ... ... : G-4 00 . ... : 1-# 00 F ... : ... .. . ... ... : G#5 01 A ... ... : D#5 01 A ... ... : G#0 01 F P80 ...
ROW C1 : ... .. E ... ... ... : ... .. E ... ... ... : A-3 00 . ... : ... .. C ... : ... .. . ... ... : ... .. 9 ... ... : ... .. 9 ... ... : ... .. D ... ...
ROW C2 : ... .. D ... ... ... : ... .. D ... ... ... : D-3 00 . ... : ... .. 6 ... : ... .. . ... ... : ... .. 8 ... ... : ... .. 8 ... ... : ... .. 8 ... ...
ROW C3 : ... .. A ... ... ... : ... .. A ... ... ... : C#3 00 . ... : ... .. 3 ... : ... .. . ... ... : ... .. 7 ... ... : ... .. 7 ... ... : ... .. . ... ...
ROW C4 : ... .. 2 ... ... ... : ... .. 2 ... ... ... : G#2 00 . ... : ... .. 2 ... : ... .. . ... ... : ... .. . ... ... : ... .. . ... ... : ... .. . ... ...
ROW C5 : ... .. . ... ... ... : ... .. . ... ... ... : --- .. . ... : ... .. 0 ... : ... .. . ... ... : ... .. 6 ... ... : ... .. 6 ... ... : --- .. . P84 ...
ROW C6 : ... .. F ... ... ... : ... .. F ... ... ... : G#2 00 . ... : D-# 00 F ... : ... .. . ... ... : C#5 01 6 P82 ... : A#4 01 6 P7E ... : G#0 01 F P80 ...
ROW C7 : ... .. E ... ... ... : ... .. E ... ... ... : ... .. . ... : ... .. C ... : ... .. . ... ... : G#4 01 5 P84 ... : F#4 01 5 P7D ... : ... .. D ... ...
ROW C8 : ... .. D ... ... ... : ... .. D ... ... ... : ... .. . ... : ... .. 6 ... : ... .. . ... ... : F-4 01 5 P7D ... : D-4 01 5 P84 ... : ... .. 8 ... ...
ROW C9 : ... .. A ... ... ... : ... .. A ... ... ... : ... .. . ... : ... .. 3 ... : ... .. . ... ... : D-4 01 5 P7B ... : C-4 01 5 P7C ... : ... .. . ... ...
ROW CA : ... .. 2 ... ... ... : ... .. 2 ... ... ... : ... .. . ... : ... .. 2 ... : ... .. . ... ... : B-3 01 5 P7F ... : A-3 01 5 P84 ... : ... .. . ... ...
ROW CB : ... .. . ... ... ... : ... .. . ... ... ... : --- .. . ... : ... .. 0 ... : ... .. . ... ... : A-3 01 5 P7B ... : G-3 01 5 P83 ... : --- .. . P84 ...
ROW CC : ... .. F ... ... ... : ... .. F ... ... ... : G#2 00 . ... : 6-# 00 F ... : ... .. . ... ... : --- .. . P8C ... : --- .. . P81 ... : G#0 01 F P80 ...
ROW CD : ... .. E ... ... ... : ... .. E ... ... ... : ... .. . ... : ... .. C ... : ... .. . ... ... : ... .. . ... ... : ... .. . ... ... : ... .. D ... ...
ROW CE : ... .. D ... ... ... : ... .. D ... ... ... : ... .. . ... : ... .. 6 ... : ... .. . ... ... : ... .. . ... ... : ... .. . ... ... : ... .. 8 ... ...
ROW CF : ... .. A ... ... ... : ... .. A ... ... ... : ... .. . ... : ... .. 3 ... : ... .. . ... ... : ... .. . ... ... : ... .. . ... ... : ... .. . ... ...
ROW D0 : ... .. 2 ... ... ... : ... .. 2 ... ... ... : ... .. . ... : ... .. 2 ... : ... .. . ... ... : ... .. . ... ... : ... .. . ... ... : ... .. . ... ...
ROW D1 : ... .. . ... ... ... : ... .. . ... ... ... : --- .. . ... : ... .. 0 ... : ... .. . ... ... : ... .. . ... ... : ... .. . ... ... : --- .. . P84 ...
ROW D2 : B-3 00 F ... ... ... : F#3 00 F ... ... ... : A#4 00 . ... : D-# 00 F ... : ... .. . ... ... : D#4 01 A P80 ... : G#3 01 A P80 ... : B-0 01 F P80 ...
ROW D3 : ... .. E ... ... ... : ... .. E ... ... ... : C-4 00 . ... : ... .. C ... : ... .. . ... ... : ... .. 9 ... ... : ... .. 9 ... ... : ... .. D ... ...
ROW D4 : ... .. D ... ... ... : ... .. D ... ... ... : F-3 00 . ... : ... .. 6 ... : ... .. . ... ... : ... .. 8 ... ... : ... .. 8 ... ... : ... .. 8 ... ...
ROW D5 : ... .. A ... ... ... : ... .. A ... ... ... : E-3 00 . ... : ... .. 3 ... : ... .. . ... ... : --- .. . ... ... : --- .. . P82 ... : ... .. . ... ...
ROW D6 : ... .. . ... ... ... : ... .. . ... ... ... : B-2 00 . ... : ... .. 2 ... : ... .. . ... ... : ... .. . ... ... : ... .. . ... ... : ... .. . ... ...
ROW D7 : ... .. . ... ... ... : ... .. . ... ... ... : --- .. . ... : ... .. 0 ... : ... .. . ... ... : ... .. . ... ... : ... .. . ... ... : --- .. . ... ...
ROW D8 : A#3 00 F ... ... ... : F-3 00 F ... ... ... : F#2 00 . ... : 1-# 00 F ... : ... .. . ... ... : D#4 01 A ... ... : G#3 01 A P80 ... : F#0 01 F ... ...
ROW D9 : ... .. E ... ... ... : ... .. E ... ... ... : ... .. . ... : ... .. C ... : ... .. . ... ... : ... .. 9 ... ... : ... .. 9 ... ... : ... .. D ... ...
ROW DA : ... .. D ... ... ... : ... .. D ... ... ... : ... .. . ... : ... .. 6 ... : ... .. . ... ... : ... .. 8 ... ... : ... .. 8 ... ... : ... .. 8 ... ...
ROW DB : ... .. A ... ... ... : ... .. A ... ... ... : ... .. . ... : ... .. 3 ... : ... .. . ... ... : --- .. . ... ... : --- .. . P82 ... : ... .. . ... ...
ROW DC : ... .. 2 ... ... ... : ... .. 2 ... ... ... : ... .. . ... : ... .. 2 ... : ... .. . ... ... : ... .. . ... ... : ... .. . ... ... : ... .. . ... ...
ROW DD : ... .. . ... ... ... : ... .. . ... ... ... : --- .. . ... : ... .. 0 ... : ... .. . ... ... : ... .. . ... ... : ... .. . ... ... : --- .. . P81 ...
ROW DE : F#2 00 F ... ... ... : C#2 00 F ... ... ... : G#2 00 . ... : ... .. F ... : ... .. . ... ... : D#4 01 A ... ... : G#3 01 A P80 ... : G#0 01 F P80 ...
ROW DF : ... .. E ... ... ... : ... .. E ... ... ... : ... .. . ... : ... .. C ... : ... .. . ... ... : ... .. 9 ... ... : ... .. 9 ... ... : ... .. D ... ...
ROW E0 : ... .. D ... ... ... : ... .. D ... ... ... : ... .. . ... : ... .. 6 ... : ... .. . ... ... : ... .. 8 ... ... : ... .. 8 ... ... : ... .. 8 ... ...
ROW E1 : ... .. A ... ... ... : ... .. A ... ... ... : ... .. . ... : ... .. 3 ... : ... .. . ... ... : --- .. . ... ... : --- .. . P82 ... : ... .. . ... ...
ROW E2 : ... .. 2 ... ... ... : ... .. 2 ... ... ... : ... .. . ... : ... .. 2 ... : ... .. . ... ... : ... .. . ... ... : ... .. . ... ... : ... .. . ... ...
ROW E3 : ... .. . ... ... ... : ... .. . ... ... ... : --- .. . ... : ... .. 0 ... : ... .. . ... ... : ... .. . ... ... : ... .. . ... ... : --- .. . P84 ...
ROW E4 : G#1 00 F ... ... ... : D#1 00 F ... ... ... : G-4 00 . ... : 6-# 00 F ... : ... .. . ... ... : C#4 01 A ... ... : F#3 01 A P80 ... : G#0 01 F P80 ...
ROW E5 : ... .. E ... ... ... : ... .. E ... ... ... : A-3 00 . ... : ... .. C ... : ... .. . ... ... : ... .. 9 ... ... : ... .. 9 ... ... : ... .. D ... ...
ROW E6 : ... .. D ... ... ... : ... .. D ... ... ... : D-3 00 . ... : ... .. 6 ... : ... .. . ... ... : ... .. 8 ... ... : ... .. 8 ... ... : ... .. 8 ... ...
ROW E7 : ... .. A ... ... ... : ... .. A ... ... ... : C#3 00 . ... : ... .. 3 ... : ... .. . ... ... : ... .. 7 ... ... : ... .. 7 ... ... : ... .. . ... ...
ROW E8 : ... .. 2 ... ... ... : ... .. 2 ... ... ... : G#2 00 . ... : ... .. 2 ... : ... .. . ... ... : ... .. . ... ... : ... .. . ... ... : ... .. . ... ...
ROW E9 : ... .. . ... ... ... : ... .. . ... ... ... : --- .. . ... : ... .. 0 ... : ... .. . ... ... : ... .. 6 ... ... : ... .. 6 ... ... : --- .. . P84 ...
ROW EA : ... .. F ... ... ... : ... .. F ... ... ... : G#2 00 . ... : D-# 00 F ... : ... .. . ... ... : D#4 01 A ... ... : G#3 01 A ... ... : G#0 01 F P80 ...
ROW EB : ... .. E ... ... ... : ... .. E ... ... ... : ... .. . ... : ... .. C ... : ... .. . ... ... : ... .. 9 ... ... : ... .. 9 ... ... : ... .. D ... ...
ROW EC : ... .. D ... ... ... : ... .. D ... ... ... : ... .. . ... : ... .. 6 ... : ... .. . ... ... : ... .. 8 ... ... : ... .. 8 ... ... : ... .. 8 ... ...
ROW ED : ... .. A ... ... ... : ... .. A ... ... ... : ... .. . ... : ... .. 3 ... : ... .. . ... ... : --- .. . ... ... : --- .. . P82 ... : ... .. . ... ...
ROW EE : ... .. 2 ... ... ... : ... .. 2 ... ... ... : ... .. . ... : ... .. 2 ... : ... .. . ... ... : ... .. . ... ... : ... .. . ... ... : ... .. . ... ...
ROW EF : ... .. . ... ... ... : ... .. . ... ... ... : --- .. . ... : ... .. 0 ... : ... .. . ... ... : ... .. . ... ... : ... .. . ... ... : --- .. . P84 ...
ROW F0 : ... .. F ... ... ... : ... .. F ... ... ... : G#2 00 . ... : 1-# 00 F ... : ... .. . ... ... : D#4 01 A ... ... : G#3 01 A P80 ... : G#0 01 F P80 ...
ROW F1 : ... .. E ... ... ... : ... .. E ... ... ... : ... .. . ... : ... .. C ... : ... .. . ... ... : ... .. 9 ... ... : ... .. 9 ... ... : ... .. D ... ...
ROW F2 : ... .. D ... ... ... : ... .. D ... ... ... : ... .. . ... : ... .. 6 ... : ... .. . ... ... : ... .. 8 ... ... : ... .. 8 ... ... : ... .. 8 ... ...
ROW F3 : ... .. A ... ... ... : ... .. A ... ... ... : ... .. . ... : ... .. 3 ... : ... .. . ... ... : --- .. . ... ... : --- .. . P82 ... : ... .. . ... ...
ROW F4 : ... .. 2 ... ... ... : ... .. 2 ... ... ... : ... .. . ... : ... .. 2 ... : ... .. . ... ... : ... .. . ... ... : ... .. . ... ... : ... .. . ... ...
ROW F5 : ... .. . ... ... ... : ... .. . ... ... ... : --- .. . ... : ... .. 0 ... : ... .. . ... ... : ... .. . ... ... : ... .. . ... ... : --- .. . P84 ...
ROW F6 : F#3 00 F ... ... ... : C#3 00 F ... ... ... : C-5 00 . ... : D-# 00 F ... : ... .. . ... ... : D#4 01 A ... ... : G#3 01 A P80 ... : C#1 01 F P80 ...
ROW F7 : ... .. E ... ... ... : ... .. E ... ... ... : D-4 00 . ... : ... .. C ... : ... .. . ... ... : ... .. 9 ... ... : ... .. 9 ... ... : ... .. D ... ...
ROW F8 : ... .. D ... ... ... : ... .. D ... ... ... : G-3 00 . ... : ... .. 6 ... : ... .. . ... ... : ... .. 8 ... ... : ... .. 8 ... ... : ... .. 8 ... ...
ROW F9 : ... .. A ... ... ... : ... .. A ... ... ... : F#3 00 . ... : ... .. 3 ... : ... .. . ... ... : ... .. 7 ... ... : ... .. 7 ... ... : ... .. . ... ...
ROW FA : ... .. . ... ... ... : ... .. . ... ... ... : C#3 00 . ... : ... .. 2 ... : ... .. . ... ... : ... .. . ... ... : ... .. . ... ... : ... .. . ... ...
ROW FB : ... .. . ... ... ... : ... .. . ... ... ... : --- .. . ... : ... .. 0 ... : ... .. . ... ... : ... .. 6 ... ... : ... .. 6 ... ... : --- .. . P81 ...
ROW FC : C#3 00 F ... ... ... : G#2 00 F ... ... ... : B-2 00 . ... : 6-# 00 F ... : ... .. . ... ... : ... .. . ... ... : ... .. . ... ... : B-0 01 F P80 ...
ROW FD : ... .. E ... ... ... : ... .. E ... ... ... : ... .. . ... : ... .. C ... : ... .. . ... ... : ... .. 5 ... ... : ... .. 5 ... ... : ... .. D ... ...
ROW FE : ... .. D ... ... ... : ... .. D ... ... ... : ... .. . ... : ... .. 6 ... : ... .. . ... ... : ... .. . ... ... : ... .. . ... ... : ... .. 8 ... ...
ROW FF : ... .. A ... ... ... : ... .. A ... ... ... : ... .. . ... : ... .. 3 ... : ... .. . ... ... : ... .. . ... ... : ... .. . ... ... : ... .. . ... ...

PATTERN 07
ROW 00 : ... .. 2 ... ... ... : ... .. 2 ... ... ... : ... .. . ... : ... .. 2 ... : ... .. . ... ... : ... .. . ... ... : ... .. . ... ... : ... .. . ... ...
ROW 01 : ... .. . ... ... ... : ... .. . ... ... ... : --- .. . ... : ... .. 0 ... : ... .. . ... ... : ... .. . ... ... : ... .. . ... ... : --- .. . ... ...
ROW 02 : F#1 00 F ... ... ... : C#1 00 F ... ... ... : F#2 00 . ... : D-# 00 F ... : ... .. . ... ... : ... .. . ... ... : ... .. . ... ... : F#0 01 F ... ...
ROW 03 : ... .. E ... ... ... : ... .. E ... ... ... : ... .. . ... : ... .. C ... : ... .. . ... ... : ... .. . ... ... : ... .. . ... ... : ... .. D ... ...
ROW 04 : ... .. D ... ... ... : ... .. D ... ... ... : ... .. . ... : ... .. 6 ... : ... .. . ... ... : ... .. . ... ... : ... .. . ... ... : ... .. 8 ... ...
ROW 05 : ... .. A ... ... ... : ... .. A ... ... ... : ... .. . ... : ... .. 3 ... : ... .. . ... ... : E-4 01 5 P7D ... : ... .. . P87 ... : ... .. . ... ...
ROW 06 : ... .. . ... ... ... : ... .. . ... ... ... : ... .. . ... : ... .. 2 ... : ... .. . ... ... : ... .. . P7F ... : A-3 01 5 P7A ... : ... .. . ... ...
ROW 07 : ... .. . ... ... ... : ... .. . ... ... ... : --- .. . ... : ... .. 0 ... : ... .. . ... ... : ... .. . P7C ... : G#3 01 5 P86 ... : --- .. . P81 ...
ROW 08 : G#1 00 F ... ... ... : D#1 00 F ... ... ... : G-4 00 . ... : 1-# 00 F ... : ... .. . ... ... : D#4 01 5 P80 ... : ... .. . P80 ... : G#0 01 F P80 ...
ROW 09 : ... .. E ... ... ... : ... .. E ... ... ... : A-3 00 . ... : ... .. C ... : ... .. . ... ... : D-4 01 5 P83 ... : ... .. . P79 ... : ... .. D ... ...
ROW 0A : ... .. D ... ... ... : ... .. D ... ... ... : D-3 00 . ... : ... .. 6 ... : ... .. . ... ... : ... .. . P81 ... : G-3 01 5 P87 ... : ... .. 8 ... ...
ROW 0B : ... .. A ... ... ... : ... .. A ... ... ... : C#3 00 . ... : ... .. 3 ... : ... .. . ... ... : ... .. . P84 ... : G#3 01 5 P7A ... : ... .. . ... ...
ROW 0C : ... .. 2 ... ... ... : ... .. 2 ... ... ... : G#2 00 . ... : ... .. 2 ... : ... .. . ... ... : D#4 01 5 P80 ... : ... .. . P80 ... : ... .. . ... ...
ROW 0D : ... .. . ... ... ... : ... .. . ... ... ... : --- .. . ... : ... .. 0 ... : ... .. . ... ... : E-4 01 5 P7D ... : ... .. . P87 ... : --- .. . P84 ...
ROW 0E : ... .. F ... ... ... : ... .. F ... ... ... : G#2 00 . ... : ... .. F ... : ... .. . ... ... : ... .. . P7F ... : A-3 01 5 P7A ... : G#0 01 F P80 ...
ROW 0F : ... .. E ... ... ... : ... .. E ... ... ... : ... .. . ... : ... .. C ... : ... .. . ... ... : ... .. . P7C ... : G#3 01 5 P86 ... : ... .. D ... ...
ROW 10 : ... .. D ... ... ... : ... .. D ... ... ... : ... .. . ... : ... .. 6 ... : ... .. . ... ... : D#4 01 5 P80 ... : ... .. . P80 ... : ... .. 8 ... ...
ROW 11 : ... .. A ... ... ... : ... .. A ... ... ... : ... .. . ... : ... .. 3 ... : ... .. . ... ... : --- .. . ... ... : --- .. . P82 ... : ... .. . ... ...
ROW 12 : ... .. 2 ... ... ... : ... .. 2 ... ... ... : ... .. . ... : ... .. 2 ... : ... .. . ... ... : ... .. . ... ... : ... .. . ... ... : ... .. . ... ...
ROW 13 : ... .. . ... ... ... : ... .. . ... ... ... : --- .. . ... : ... .. 0 ... : ... .. . ... ... : ... .. . ... ... : ... .. . ... ... : --- .. . P84 ...
ROW 14 : ... .. F ... ... ... : ... .. F ... ... ... : G#2 00 . ... : 6-# 00 F ... : ... .. . ... ... : ... .. . ... ... : ... .. . ... ... : G#0 01 F P80 ...
ROW 15 : ... .. E ... ... ... : ... .. E ... ... ... : ... .. . ... : ... .. C ... : ... .. . ... ... : ... .. . ... ... : ... .. . ... ... : ... .. D ... ...
ROW 16 : ... .. D ... ... ... : ... .. D ... ... ... : ... .. . ... : ... .. 6 ... : ... .. . ... ... : ... .. . ... ... : ... .. . ... ... : ... .. 8 ... ...
ROW 17 : ... .. A ... ... ... : ... .. A ... ... ... : ... .. . ... : ... .. 3 ... : ... .. . ... ... : ... .. . ... ... : ... .. . ... ... : ... .. . ... ...
ROW 18 : ... .. 2 ... ... ... : ... .. 2 ... ... ... : ... .. . ... : ... .. 2 ... : ... .. . ... ... : ... .. . ... ... : ... .. . ... ... : ... .. . ... ...
ROW 19 : ... .. . ... ... ... : ... .. . ... ... ... : --- .. . ... : ... .. 0 ... : ... .. . ... ... : ... .. . ... ... : ... .. . ... ... : --- .. . P84 ...
ROW 1A : E-3 00 F ... ... ... : B-2 00 F ... ... ... : D#6 00 . ... : D-# 00 F ... : ... .. . ... ... : D#4 01 A ... ... : G#3 01 A P80 ... : E-2 01 F P80 ...
ROW 1B : ... .. E ... ... ... : ... .. E ... ... ... : F-5 00 . ... : ... .. C ... : ... .. . ... ... : ... .. 9 ... ... : ... .. 9 ... ... : ... .. D ... ...
ROW 1C : ... .. D ... ... ... : ... .. D ... ... ... : A#4 00 . ... : ... .. 6 ... : ... .. . ... ... : ... .. 8 ... ... : ... .. 8 ... ... : ... .. 8 ... ...
ROW 1D : ... .. A ... ... ... : ... .. A ... ... ... : A-4 00 . ... : ... .. 3 ... : ... .. . ... ... : --- .. . ... ... : --- .. . P82 ... : ... .. . ... ...
ROW 1E : ... .. . ... ... ... : ... .. . ... ... ... : E-4 00 . ... : ... .. 2 ... : ... .. . ... ... : ... .. . ... ... : ... .. . ... ... : ... .. . ... ...
ROW 1F : ... .. . ... ... ... : ... .. . ... ... ... : --- .. . ... : ... .. 0 ... : ... .. . ... ... : ... .. . ... ... : ... .. . ... ... : --- .. . P89 ...
ROW 20 : D#3 00 F ... ... ... : A#2 00 F ... ... ... : D#4 00 . ... : 1-# 00 F ... : ... .. . ... ... : D#4 01 A ... ... : G#3 01 A P80 ... : D#2 01 F P80 ...
ROW 21 : ... .. E ... ... ... : ... .. E ... ... ... : ... .. . ... : ... .. C ... : ... .. . ... ... : ... .. 9 ... ... : ... .. 9 ... ... : ... .. D ... ...
ROW 22 : ... .. D ... ... ... : ... .. D ... ... ... : ... .. . ... : ... .. 6 ... : ... .. . ... ... : ... .. 8 ... ... : ... .. 8 ... ... : ... .. 8 ... ...
ROW 23 : ... .. A ... ... ... : ... .. A ... ... ... : ... .. . ... : ... .. 3 ... : ... .. . ... ... : --- .. . ... ... : --- .. . P82 ... : ... .. . ... ...
ROW 24 : ... .. 2 ... ... ... : ... .. 2 ... ... ... : ... .. . ... : ... .. 2 ... : ... .. . ... ... : ... .. . ... ... : ... .. . ... ... : ... .. . ... ...
ROW 25 : ... .. . ... ... ... : ... .. . ... ... ... : --- .. . ... : ... .. 0 ... : ... .. . ... ... : ... .. . ... ... : ... .. . ... ... : --- .. . ... ...
ROW 26 : G#1 00 F ... ... ... : D#1 00 F ... ... ... : G#2 00 . ... : D-# 00 F ... : ... .. . ... ... : D#4 01 A ... ... : G#3 01 A P80 ... : G#0 01 F ... ...
ROW 27 : ... .. E ... ... ... : ... .. E ... ... ... : ... .. . ... : ... .. C ... : ... .. . ... ... : ... .. 9 ... ... : ... .. 9 ... ... : ... .. D ... ...
ROW 28 : ... .. D ... ... ... : ... .. D ... ... ... : ... .. . ... : ... .. 6 ... : ... .. . ... ... : ... .. 8 ... ... : ... .. 8 ... ... : ... .. 8 ... ...
ROW 29 : ... .. A ... ... ... : ... .. A ... ... ... : ... .. . ... : ... .. 3 ... : ... .. . ... ... : --- .. . ... ... : --- .. . P82 ... : ... .. . ... ...
ROW 2A : ... .. 2 ... ... ... : ... .. 2 ... ... ... : ... .. . ... : ... .. 2 ... : ... .. . ... ... : ... .. . ... ... : ... .. . ... ... : ... .. . ... ...
ROW 2B : ... .. . ... ... ... : ... .. . ... ... ... : --- .. . ... : ... .. 0 ... : ... .. . ... ... : ... .. . ... ... : ... .. . ... ... : --- .. . P84 ...
ROW 2C : C#3 00 F ... ... ... : G#2 00 F ... ... ... : C-6 00 . ... : 6-# 00 F ... : ... .. . ... ... : G#4 01 A ... ... : D#4 01 A P80 ... : C#2 01 F P80 ...
ROW 2D : ... .. E ... ... ... : ... .. E ... ... ... : D-5 00 . ... : ... .. C ... : ... .. . ... ... : ... .. 9 ... ... : ... .. 9 ... ... : ... .. D ... ...
ROW 2E : ... .. D ... ... ... : ... .. D ... ... ... : G-4 00 . ... : ... .. 6 ... : ... .. . ... ... : ... .. 8 ... ... : ... .. 8 ... ... : ... .. 8 ... ...
ROW 2F : ... .. A ... ... ... : ... .. A ... ... ... : F#4 00 . ... : ... .. 3 ... : ... .. . ... ... : ... .. 7 ... ... : ... .. 7 ... ... : ... .. . ... ...
ROW 30 : ... .. . ... ... ... : ... .. . ... ... ... : C#4 00 . ... : ... .. 2 ... : ... .. . ... ... : ... .. . ... ... : ... .. . ... ... : ... .. . ... ...
ROW 31 : ... .. . ... ... ... : ... .. . ... ... ... : --- .. . ... : ... .. 0 ... : ... .. . ... ... : ... .. 6 ... ... : ... .. 6 ... ... : --- .. . ... ...
ROW 32 : D#3 00 F ... ... ... : A#2 00 F ... ... ... : B-3 00 . ... : D-# 00 F ... : ... .. . ... ... : D#4 01 A ... ... : G#3 01 A ... ... : B-1 01 F ... ...
ROW 33 : ... .. E ... ... ... : ... .. E ... ... ... : ... .. . ... : ... .. C ... : ... .. . ... ... : ... .. 9 ... ... : ... .. 9 ... ... : ... .. D ... ...
ROW 34 : ... .. D ... ... ... : ... .. D ... ... ... : ... .. . ... : ... .. 6 ... : ... .. . ... ... : ... .. 8 ... ... : ... .. 8 ... ... : ... .. 8 ... ...
ROW 35 : ... .. A ... ... ... : ... .. A ... ... ... : ... .. . ... : ... .. 3 ... : ... .. . ... ... : --- .. . ... ... : --- .. . P82 ... : ... .. . ... ...
ROW 36 : ... .. 2 ... ... ... : ... .. 2 ... ... ... : ... .. . ... : ... .. 2 ... : ... .. . ... ... : ... .. . ... ... : ... .. . ... ... : ... .. . ... ...
ROW 37 : ... .. . ... ... ... : ... .. . ... ... ... : --- .. . ... : ... .. 0 ... : ... .. . ... ... : ... .. . ... ... : ... .. . ... ... : --- .. . P86 ...
ROW 38 : B-2 00 F ... ... ... : F#2 00 F ... ... ... : G#2 00 . ... : 1-# 00 F ... : ... .. . ... ... : D#4 01 A ... ... : G#3 01 A P80 ... : G#0 01 F P80 ...
ROW 39 : ... .. E ... ... ... : ... .. E ... ... ... : ... .. . ... : ... .. C ... : ... .. . ... ... : ... .. 9 ... ... : ... .. 9 ... ... : ... .. D ... ...
ROW 3A : ... .. D ... ... ... : ... .. D ... ... ... : ... .. . ... : ... .. 6 ... : ... .. . ... ... : ... .. 8 ... ... : ... .. 8 ... ... : ... .. 8 ... ...
ROW 3B : ... .. A ... ... ... : ... .. A ... ... ... : ... .. . ... : ... .. 3 ... : ... .. . ... ... : --- .. . ... ... : --- .. . P82 ... : ... .. . ... ...
ROW 3C : ... .. 2 ... ... ... : ... .. 2 ... ... ... : ... .. . ... : ... .. 2 ... : ... .. . ... ... : ... .. . ... ... : ... .. . ... ... : ... .. . ... ...
ROW 3D : ... .. . ... ... ... : ... .. . ... ... ... : --- .. . ... : ... .. 0 ... : ... .. . ... ... : ... .. . ... ... : ... .. . ... ... : --- .. . P84 ...
ROW 3E : C#3 00 F ... ... ... : G#2 00 F ... ... ... : F-5 00 . ... : ... .. F ... : ... .. . ... ... : D#4 01 A ... ... : G#3 01 A P80 ... : F#1 01 F P80 ...
ROW 3F : ... .. E ... ... ... : ... .. E ... ... ... : G-4 00 . ... : ... .. C ... : ... .. . ... ... : ... .. 9 ... ... : ... .. 9 ... ... : ... .. D ... ...
ROW 40 : ... .. D ... ... ... : ... .. D ... ... ... : C-4 00 . ... : ... .. 6 ... : ... .. . ... ... : ... .. 8 ... ... : ... .. 8 ... ... : ... .. 8 ... ...
ROW 41 : ... .. A ... ... ... : ... .. A ... ... ... : B-3 00 . ... : ... .. 3 ... : ... .. . ... ... : ... .. 7 ... ... : ... .. 7 ... ... : ... .. . ... ...
ROW 42 : ... .. . ... ... ... : ... .. . ... ... ... : F#3 00 . ... : ... .. 2 ... : ... .. . ... ... : ... .. . ... ... : ... .. . ... ... : ... .. . ... ...
ROW 43 : ... .. . ... ... ... : ... .. . ... ... ... : --- .. . ... : ... .. 0 ... : ... .. . ... ... : ... .. 6 ... ... : ... .. 6 ... ... : --- .. . P81 ...
ROW 44 : F#2 00 F ... ... ... : C#2 00 F ... ... ... : G#3 00 . ... : 6-# 00 F ... : ... .. . ... ... : ... .. . ... ... : ... .. . ... ... : G#1 01 F P80 ...
ROW 45 : ... .. E ... ... ... : ... .. E ... ... ... : ... .. . ... : ... .. C ... : ... .. . ... ... : ... .. 5 ... ... : ... .. 5 ... ... : ... .. D ... ...
ROW 46 : ... .. D ... ... ... : ... .. D ... ... ... : ... .. . ... : ... .. 6 ... : ... .. . ... ... : ... .. . ... ... : ... .. . ... ... : ... .. 8 ... ...
ROW 47 : ... .. A ... ... ... : ... .. A ... ... ... : ... .. . ... : ... .. 3 ... : ... .. . ... ... : ... .. . ... ... : ... .. . ... ... : ... .. . ... ...
ROW 48 : ... .. 2 ... ... ... : ... .. 2 ... ... ... : ... .. . ... : ... .. 2 ... : ... .. . ... ... : ... .. . ... ... : ... .. . ... ... : ... .. . ... ...
ROW 49 : ... .. . ... ... ... : ... .. . ... ... ... : --- .. . ... : ... .. 0 ... : ... .. . ... ... : ... .. . ... ... : ... .. . ... ... : --- .. . P7E ...
ROW 4A : G#2 00 F ... ... ... : D#2 00 F ... ... ... : B-2 00 . ... : ... .. F ... : ... .. . ... ... : ... .. . ... ... : ... .. . ... ... : B-0 01 F P80 ...
ROW 4B : ... .. E ... ... ... : ... .. E ... ... ... : ... .. . ... : ... .. C ... : ... .. . ... ... : ... .. . ... ... : ... .. . ... ... : ... .. D ... ...
ROW 4C : ... .. D ... ... ... : ... .. D ... ... ... : ... .. . ... : ... .. 6 ... : ... .. . ... ... : ... .. . ... ... : ... .. . ... ... : ... .. 8 ... ...
ROW 4D : ... .. A ... ... ... : ... .. A ... ... ... : ... .. . ... : ... .. 3 ... : ... .. . ... ... : --- .. . ... ... : --- .. . P82 ... : ... .. . ... ...
ROW 4E : ... .. 2 ... ... ... : ... .. 2 ... ... ... : ... .. . ... : ... .. 2 ... : ... .. . ... ... : ... .. . ... ... : ... .. . ... ... : ... .. . ... ...
ROW 4F : ... .. . ... ... ... : ... .. . ... ... ... : --- .. . ... : ... .. 0 ... : ... .. . ... ... : ... .. . ... ... : ... .. . ... ... : --- .. . ... ...
ROW 50 : G#1 00 F ... ... ... : D#1 00 F ... ... ... : G-4 00 . ... : 1-# 00 F ... : ... .. . ... ... : ... .. . ... ... : ... .. . ... ... : G#0 01 F ... ...
ROW 51 : ... .. E ... ... ... : ... .. E ... ... ... : A-3 00 . ... : ... .. C ... : ... .. . ... ... : ... .. . ... ... : ... .. . ... ... : ... .. D ... ...
ROW 52 : ... .. D ... ... ... : ... .. D ... ... ... : D-3 00 . ... : ... .. 6 ... : ... .. . ... ... : ... .. . ... ... : ... .. . ... ... : ... .. 8 ... ...
ROW 53 : ... .. A ... ... ... : ... .. A ... ... ... : C#3 00 . ... : ... .. 3 ... : ... .. . ... ... : ... .. . ... ... : ... .. . ... ... : ... .. . ... ...
ROW 54 : ... .. 2 ... ... ... : ... .. 2 ... ... ... : G#2 00 . ... : ... .. 2 ... : ... .. . ... ... : ... .. . ... ... : ... .. . ... ... : ... .. . ... ...
ROW 55 : ... .. . ... ... ... : ... .. . ... ... ... : --- .. . ... : ... .. 0 ... : ... .. . ... ... : ... .. . ... ... : ... .. . ... ... : --- .. . P84 ...
ROW 56 : ... .. F ... ... ... : ... .. F ... ... ... : G#2 00 . ... : ... .. F ... : ... .. . ... ... : ... .. . ... ... : ... .. . ... ... : G#0 01 F P80 ...
ROW 57 : ... .. E ... ... ... : ... .. E ... ... ... : ... .. . ... : ... .. C ... : ... .. . ... ... : ... .. . ... ... : ... .. . ... ... : ... .. D ... ...
ROW 58 : ... .. D ... ... ... : ... .. D ... ... ... : ... .. . ... : ... .. 6 ... : ... .. . ... ... : ... .. . ... ... : ... .. . ... ... : ... .. 8 ... ...
ROW 59 : ... .. A ... ... ... : ... .. A ... ... ... : ... .. . ... : ... .. 3 ... : ... .. . ... ... : ... .. . ... ... : ... .. . ... ... : ... .. . ... ...
ROW 5A : ... .. 2 ... ... ... : ... .. 2 ... ... ... : ... .. . ... : ... .. 2 ... : ... .. . ... ... : ... .. . ... ... : ... .. . ... ... : ... .. . ... ...
ROW 5B : ... .. . ... ... ... : ... .. . ... ... ... : --- .. . ... : ... .. 0 ... : ... .. . ... ... : ... .. . ... ... : ... .. . ... ... : --- .. . P84 ...
ROW 5C : ... .. F ... ... ... : ... .. F ... ... ... : G#2 00 . ... : 6-# 00 F ... : ... .. . ... ... : ... .. . ... ... : ... .. . ... ... : G#0 01 F P80 ...
ROW 5D : ... .. E ... ... ... : ... .. E ... ... ... : ... .. . ... : ... .. C ... : ... .. . ... ... : ... .. . ... ... : ... .. . ... ... : ... .. D ... ...
ROW 5E : ... .. D ... ... ... : ... .. D ... ... ... : ... .. . ... : ... .. 6 ... : ... .. . ... ... : ... .. . ... ... : ... .. . ... ... : ... .. 8 ... ...
ROW 5F : ... .. A ... ... ... : ... .. A ... ... ... : ... .. . ... : ... .. 3 ... : ... .. . ... ... : ... .. . ... ... : ... .. . ... ... : ... .. . ... ...
ROW 60 : ... .. 2 ... ... ... : ... .. 2 ... ... ... : ... .. . ... : ... .. 2 ... : ... .. . ... ... : ... .. . ... ... : ... .. . ... ... : ... .. . ... ...
ROW 61 : ... .. . ... ... ... : ... .. . ... ... ... : --- .. . ... : ... .. 0 ... : ... .. . ... ... : ... .. . ... ... : ... .. . ... ... : --- .. . P84 ...
ROW 62 : F#4 00 F ... ... ... : C#4 00 F ... ... ... : D-6 00 . ... : 1-# 00 F ... : ... .. . ... ... : G#5 01 A ... ... : D#5 01 A P80 ... : D#2 01 F P80 ...
ROW 63 : ... .. E ... ... ... : ... .. E ... ... ... : E-5 00 . ... : ... .. C ... : ... .. . ... ... : ... .. 9 ... ... : ... .. 9 ... ... : ... .. D ... ...
ROW 64 : ... .. D ... ... ... : ... .. D ... ... ... : A-4 00 . ... : ... .. 6 ... : ... .. . ... ... : --- .. . ... ... : --- .. . ... ... : ... .. 8 ... ...
ROW 65 : ... .. A ... ... ... : ... .. A ... ... ... : G#4 00 . ... : ... .. 3 ... : ... .. . ... ... : G#5 01 A ... ... : D#5 01 A ... ... : ... .. . ... ...
ROW 66 : ... .. . ... ... ... : ... .. . ... ... ... : D#4 00 . ... : ... .. 2 ... : ... .. . ... ... : ... .. 9 ... ... : ... .. 9 ... ... : ... .. . ... ...
ROW 67 : ... .. . ... ... ... : ... .. . ... ... ... : ... .. . ... : ... .. 0 ... : ... .. . ... ... : --- .. . ... ... : --- .. . ... ... : ... .. . ... ...
ROW 68 : G-4 00 A P7F ... ... : D-4 00 A P7B ... ... : E-4 00 . P7D : ... .. F ... : ... .. . ... ... : G#5 01 A ... ... : D#5 01 A ... ... : ... .. . P87 ...
ROW 69 : ... .. . P81 ... ... : ... .. . P7D ... ... : ... .. . P7F : ... .. C ... : ... .. . ... ... : ... .. 9 ... ... : ... .. 9 ... ... : ... .. . P89 ...
ROW 6A : ... .. . P7E ... ... : C#4 00 A P86 ... ... : ... .. . P7C : ... .. 6 ... : ... .. . ... ... : --- .. . ... ... : --- .. . ... ... : ... .. . P86 ...
ROW 6B : F#4 00 A P80 ... ... : ... .. . P80 ... ... : D#4 00 . P80 : ... .. 3 ... : ... .. . ... ... : G#5 01 A ... ... : D#5 01 A ... ... : ... .. . P80 ...
ROW 6C : F-4 00 A P82 ... ... : C-4 00 A P85 ... ... : D-4 00 . P83 : ... .. 2 ... : ... .. . ... ... : ... .. 9 ... ... : ... .. 9 ... ... : ... .. . P79 ...
ROW 6D : ... .. . P80 ... ... : ... .. . P83 ... ... : ... .. . P81 : ... .. 0 ... : ... .. . ... ... : --- .. . ... ... : --- .. . ... ... : ... .. . P77 ...
ROW 6E : ... .. . P83 ... ... : ... .. . P86 ... ... : ... .. . P84 : ... .. F ... : ... .. . ... ... : G#5 01 A ... ... : D#5 01 A ... ... : ... .. . P7A ...
ROW 6F : F#4 00 A P80 ... ... : C#4 00 A P80 ... ... : D#4 00 . P80 : ... .. C ... : ... .. . ... ... : ... .. 9 ... ... : ... .. 9 ... ... : ... .. . P80 ...
ROW 70 : G-4 00 A P7F ... ... : D-4 00 A P7B ... ... : E-4 00 . P7D : ... .. 6 ... : ... .. . ... ... : ... .. 8 ... ... : ... .. 8 ... ... : ... .. . P87 ...
ROW 71 : ... .. . P81 ... ... : ... .. . P7D ... ... : ... .. . P7F : ... .. 3 ... : ... .. . ... ... : --- .. . ... ... : --- .. . ... ... : ... .. . P89 ...
ROW 72 : ... .. . P7E ... ... : C#4 00 A P86 ... ... : ... .. . P7C : ... .. 2 ... : ... .. . ... ... : ... .. . ... ... : ... .. . ... ... : ... .. . P86 ...
ROW 73 : F#4 00 A P80 ... ... : ... .. . P80 ... ... : D#4 00 . P80 : ... .. 0 ... : ... .. . ... ... : ... .. . ... ... : ... .. . ... ... : ... .. . P80 ...
ROW 74 : G#1 00 F ... ... ... : D#1 00 F ... ... ... : G-4 00 . ... : 6-# 00 F ... : ... .. . ... ... : G#5 01 A ... ... : G#4 01 A ... ... : G#0 01 F ... ...
ROW 75 : ... .. E ... ... ... : ... .. E ... ... ... : A-3 00 . ... : ... .. C ... : ... .. . ... ... : ... .. 9 ... ... : ... .. 9 ... ... : ... .. D ... ...
ROW 76 : ... .. D ... ... ... : ... .. D ... ... ... : D-3 00 . ... : ... .. 6 ... : ... .. . ... ... : ... .. 8 ... ... : ... .. 8 ... ... : ... .. 8 ... ...
ROW 77 : ... .. A ... ... ... : ... .. A ... ... ... : C#3 00 . ... : ... .. 3 ... : ... .. . ... ... : --- .. . ... ... : --- .. . ... ... : ... .. . ... ...
ROW 78 : ... .. 2 ... ... ... : ... .. 2 ... ... ... : G#2 00 . ... : ... .. 2 ... : ... .. . ... ... : ... .. . ... ... : ... .. . ... ... : ... .. . ... ...
ROW 79 : ... .. . ... ... ... : ... .. . ... ... ... : --- .. . ... : ... .. 0 ... : ... .. . ... ... : ... .. . ... ... : ... .. . ... ... : --- .. . P84 ...
ROW 7A : ... .. F ... ... ... : ... .. F ... ... ... : G#2 00 . ... : 1-# 00 F ... : ... .. . ... ... : D#5 01 A ... ... : C#5 01 A ... ... : G#0 01 F P80 ...
ROW 7B : ... .. E ... ... ... : ... .. E ... ... ... : ... .. . ... : ... .. C ... : ... .. . ... ... : ... .. 9 ... ... : ... .. 9 ... ... : ... .. D ... ...
ROW 7C : ... .. D ... ... ... : ... .. D ... ... ... : ... .. . ... : ... .. 6 ... : ... .. . ... ... : ... .. 8 ... ... : ... .. 8 ... ... : ... .. 8 ... ...
ROW 7D : ... .. A ... ... ... : ... .. A ... ... ... : ... .. . ... : ... .. 3 ... : ... .. . ... ... : --- .. . ... ... : --- .. . ... ... : ... .. . ... ...
ROW 7E : ... .. 2 ... ... ... : ... .. 2 ... ... ... : ... .. . ... : ... .. 2 ... : ... .. . ... ... : ... .. . ... ... : ... .. . ... ... : ... .. . ... ...
ROW 7F : ... .. . ... ... ... : ... .. . ... ... ... : --- .. . ... : ... .. 0 ... : ... .. . ... ... : ... .. . ... ... : ... .. . ... ... : --- .. . P84 ...
ROW 80 : ... .. F ... ... ... : ... .. F ... ... ... : G#2 00 . ... : ... .. F ... : ... .. . ... ... : D#5 01 A ... ... : F#5 01 A ... ... : G#0 01 F P80 ...
ROW 81 : ... .. E ... ... ... : ... .. E ... ... ... : ... .. . ... : ... .. C ... : ... .. . ... ... : ... .. 9 ... ... : ... .. 9 ... ... : ... .. D ... ...
ROW 82 : ... .. D ... ... ... : ... .. D ... ... ... : ... .. . ... : ... .. 6 ... : ... .. . ... ... : ... .. 8 ... ... : ... .. 8 ... ... : ... .. 8 ... ...
ROW 83 : ... .. A ... ... ... : ... .. A ... ... ... : ... .. . ... : ... .. 3 ... : ... .. . ... ... : --- .. . ... ... : --- .. . ... ... : ... .. . ... ...
ROW 84 : ... .. 2 ... ... ... : ... .. 2 ... ... ... : ... .. . ... : ... .. 2 ... : ... .. . ... ... : ... .. . ... ... : ... .. . ... ... : ... .. . ... ...
ROW 85 : ... .. . ... ... ... : ... .. . ... ... ... : --- .. . ... : ... .. 0 ... : ... .. . ... ... : ... .. . ... ... : ... .. . ... ... : --- .. . P84 ...
ROW 86 : E-4 00 F ... ... ... : B-3 00 F ... ... ... : C-6 00 . ... : ... .. F ... : ... .. . ... ... : D#5 01 A ... ... : G#4 01 A ... ... : C#2 01 F P80 ...
ROW 87 : ... .. E ... ... ... : ... .. E ... ... ... : D-5 00 . ... : ... .. C ... : ... .. . ... ... : ... .. 9 ... ... : ... .. 9 ... ... : ... .. D ... ...
ROW 88 : ... .. D ... ... ... : ... .. D ... ... ... : G-4 00 . ... : ... .. 6 ... : ... .. . ... ... : ... .. 8 ... ... : ... .. 8 ... ... : ... .. 8 ... ...
ROW 89 : ... .. A ... ... ... : ... .. A ... ... ... : F#4 00 . ... : ... .. 3 ... : ... .. . ... ... : ... .. 7 ... ... : ... .. 7 ... ... : ... .. . ... ...
ROW 8A : ... .. . ... ... ... : ... .. . ... ... ... : C#4 00 . ... : ... .. 2 ... : ... .. . ... ... : ... .. . ... ... : ... .. . ... ... : ... .. . ... ...
ROW 8B : ... .. . ... ... ... : ... .. . ... ... ... : ... .. . ... : ... .. 0 ... : ... .. . ... ... : ... .. 6 ... ... : ... .. 6 ... ... : ... .. . ... ...
ROW 8C : F-4 00 A P7D ... ... : C-4 00 A P7B ... ... : D-4 00 . P7B : 6-# 00 F ... : ... .. . ... ... : ... .. . ... ... : ... .. . ... ... : ... .. . P87 ...
ROW 8D : ... .. . P7F ... ... : ... .. . P7D ... ... : ... .. . P7D : ... .. C ... : ... .. . ... ... : ... .. 5 ... ... : ... .. 5 ... ... : ... .. . P89 ...
ROW 8E : ... .. . P7C ... ... : B-3 00 A P86 ... ... : C#4 00 . P86 : ... .. 6 ... : ... .. . ... ... : ... .. . ... ... : ... .. . ... ... : ... .. . P86 ...
ROW 8F : E-4 00 A P80 ... ... : ... .. . P80 ... ... : ... .. . P80 : ... .. 3 ... : ... .. . ... ... : E-5 01 5 P7F ... : A-4 01 5 P7D ... : ... .. . P80 ...
ROW 90 : D#4 00 A P83 ... ... : A#3 00 A P87 ... ... : C-4 00 . P85 : ... .. 2 ... : ... .. . ... ... : ... .. . ... ... : ... .. . P7E ... : ... .. . P79 ...
ROW 91 : ... .. . P81 ... ... : ... .. . P85 ... ... : ... .. . P83 : ... .. 0 ... : ... .. . ... ... : D#5 01 5 P80 ... : G#4 01 5 P80 ... : ... .. . P77 ...
ROW 92 : ... .. . P84 ... ... : B-3 00 A P7A ... ... : ... .. . P86 : 1-# 00 F ... : ... .. . ... ... : D-5 01 5 P82 ... : G-4 01 5 P84 ... : ... .. . P7A ...
ROW 93 : E-4 00 A P80 ... ... : ... .. . P80 ... ... : C#4 00 . P80 : ... .. C ... : ... .. . ... ... : ... .. . P81 ... : ... .. . P82 ... : ... .. . P80 ...
ROW 94 : F-4 00 A P7D ... ... : C-4 00 A P7B ... ... : D-4 00 . P7B : ... .. 6 ... : ... .. . ... ... : D#5 01 5 P7F ... : G#4 01 5 P7E ... : ... .. . P87 ...
ROW 95 : ... .. . P7F ... ... : ... .. . P7D ... ... : ... .. . P7D : ... .. 3 ... : ... .. . ... ... : ... .. . P82 ... : ... .. . P83 ... : ... .. . P89 ...
ROW 96 : ... .. . P7C ... ... : B-3 00 A P86 ... ... : C#4 00 . P86 : ... .. 2 ... : ... .. . ... ... : E-5 01 5 P7F ... : A-4 01 5 P7E ... : ... .. . P86 ...
ROW 97 : E-4 00 A P80 ... ... : ... .. . P80 ... ... : ... .. . P80 : ... .. 0 ... : ... .. . ... ... : D#5 01 5 P82 ... : G#4 01 5 P83 ... : ... .. . P80 ...
ROW 98 : B-2 00 F ... ... ... : F#2 00 F ... ... ... : A#5 00 . ... : 6-# 00 F ... : ... .. . ... ... : ... .. . P7F ... : ... .. . P7E ... : B-1 01 F ... ...
ROW 99 : ... .. E ... ... ... : ... .. E ... ... ... : C-5 00 . ... : ... .. C ... : ... .. . ... ... : D-5 01 5 P81 ... : G-4 01 5 P82 ... : ... .. D ... ...
ROW 9A : ... .. D ... ... ... : ... .. D ... ... ... : F-4 00 . ... : ... .. 6 ... : ... .. . ... ... : ... .. . P82 ... : ... .. . P84 ... : ... .. 8 ... ...
ROW 9B : ... .. A ... ... ... : ... .. A ... ... ... : E-4 00 . ... : ... .. 3 ... : ... .. . ... ... : D#5 01 5 P80 ... : G#4 01 5 P81 ... : ... .. . ... ...
ROW 9C : ... .. 2 ... ... ... : ... .. 2 ... ... ... : B-3 00 . ... : ... .. 2 ... : ... .. . ... ... : E-5 01 5 P7F ... : A-4 01 5 P7E ... : ... .. . ... ...
ROW 9D : ... .. . ... ... ... : ... .. . ... ... ... : --- .. . ... : ... .. 0 ... : ... .. . ... ... : ... .. . P7E ... : ... .. . P7D ... : --- .. . P86 ...
ROW 9E : ... .. F ... ... ... : ... .. F ... ... ... : B-3 00 . ... : 1-# 00 F ... : ... .. . ... ... : D#5 01 5 P80 ... : G#4 01 5 P80 ... : B-1 01 F P80 ...
ROW 9F : ... .. E ... ... ... : ... .. E ... ... ... : ... .. . ... : ... .. C ... : ... .. . ... ... : D-5 01 5 P81 ... : G-4 01 5 P83 ... : ... .. D ... ...
ROW A0 : ... .. D ... ... ... : ... .. D ... ... ... : ... .. . ... : ... .. 6 ... : ... .. . ... ... : ... .. . ... ... : ... .. . P82 ... : ... .. 8 ... ...
ROW A1 : ... .. A ... ... ... : ... .. A ... ... ... : ... .. . ... : ... .. 3 ... : ... .. . ... ... : --- .. . ... ... : --- .. . ... ... : ... .. . ... ...
ROW A2 : ... .. 2 ... ... ... : ... .. 2 ... ... ... : ... .. . ... : ... .. 2 ... : ... .. . ... ... : ... .. . ... ... : ... .. . ... ... : ... .. . ... ...
ROW A3 : ... .. . ... ... ... : ... .. . ... ... ... : --- .. . ... : ... .. 0 ... : ... .. . ... ... : ... .. . ... ... : ... .. . ... ... : --- .. . P86 ...
ROW A4 : ... .. F ... ... ... : ... .. F ... ... ... : B-3 00 . ... : ... .. F ... : ... .. . ... ... : ... .. . ... ... : ... .. . ... ... : B-1 01 F P80 ...
ROW A5 : ... .. E ... ... ... : ... .. E ... ... ... : ... .. . ... : ... .. C ... : ... .. . ... ... : ... .. . ... ... : ... .. . ... ... : ... .. D ... ...
ROW A6 : ... .. D ... ... ... : ... .. D ... ... ... : ... .. . ... : ... .. 6 ... : ... .. . ... ... : ... .. . ... ... : ... .. . ... ... : ... .. 8 ... ...
ROW A7 : ... .. A ... ... ... : ... .. A ... ... ... : ... .. . ... : ... .. 3 ... : ... .. . ... ... : ... .. . ... ... : ... .. . ... ... : ... .. . ... ...
ROW A8 : ... .. 2 ... ... ... : ... .. 2 ... ... ... : ... .. . ... : ... .. 2 ... : ... .. . ... ... : ... .. . ... ... : ... .. . ... ... : ... .. . ... ...
ROW A9 : ... .. . ... ... ... : ... .. . ... ... ... : --- .. . ... : ... .. 0 ... : ... .. . ... ... : ... .. . ... ... : ... .. . ... ... : --- .. . P86 ...
ROW AA : F#2 00 F ... ... ... : C#2 00 F ... ... ... : F-5 00 . ... : A-# 00 F ... : ... .. . ... ... : G#3 01 A P80 ... : D#3 01 A P80 ... : F#1 01 F P80 ...
ROW AB : ... .. E ... ... ... : ... .. E ... ... ... : G-4 00 . ... : ... .. C ... : ... .. . ... ... : ... .. 9 ... ... : ... .. 9 ... ... : ... .. D ... ...
ROW AC : ... .. D ... ... ... : ... .. D ... ... ... : C-4 00 . ... : ... .. 6 ... : ... .. . ... ... : ... .. 8 ... ... : ... .. 8 ... ... : ... .. 8 ... ...
ROW AD : ... .. A ... ... ... : ... .. A ... ... ... : B-3 00 . ... : ... .. 3 ... : ... .. . ... ... : --- .. . P82 ... : --- .. . P83 ... : ... .. . ... ...
ROW AE : ... .. 2 ... ... ... : ... .. 2 ... ... ... : F#3 00 . ... : ... .. 2 ... : ... .. . ... ... : ... .. . ... ... : ... .. . ... ... : ... .. . ... ...
ROW AF : ... .. . ... ... ... : ... .. . ... ... ... : --- .. . ... : ... .. 0 ... : ... .. . ... ... : ... .. . ... ... : ... .. . ... ... : --- .. . P81 ...
ROW B0 : ... .. F ... ... ... : ... .. F ... ... ... : F#3 00 . ... : 1-# 00 F ... : ... .. . ... ... : C#4 01 A P80 ... : G#3 01 A P80 ... : F#1 01 F P80 ...
ROW B1 : ... .. E ... ... ... : ... .. E ... ... ... : ... .. . ... : ... .. C ... : ... .. . ... ... : ... .. 9 ... ... : ... .. 9 ... ... : ... .. D ... ...
ROW B2 : ... .. D ... ... ... : ... .. D ... ... ... : ... .. . ... : ... .. 6 ... : ... .. . ... ... : ... .. 8 ... ... : ... .. 8 ... ... : ... .. 8 ... ...
ROW B3 : ... .. A ... ... ... : ... .. A ... ... ... : ... .. . ... : ... .. 3 ... : ... .. . ... ... : --- .. . ... ... : --- .. . P82 ... : ... .. . ... ...
ROW B4 : ... .. 2 ... ... ... : ... .. 2 ... ... ... : ... .. . ... : ... .. 2 ... : ... .. . ... ... : ... .. . ... ... : ... .. . ... ... : ... .. . ... ...
ROW B5 : ... .. . ... ... ... : ... .. . ... ... ... : --- .. . ... : ... .. 0 ... : ... .. . ... ... : ... .. . ... ... : ... .. . ... ... : --- .. . P81 ...
ROW B6 : ... .. F ... ... ... : ... .. F ... ... ... : F#3 00 . ... : ... .. F ... : ... .. . ... ... : F#4 01 A ... ... : C#4 01 A P80 ... : F#1 01 F P80 ...
ROW B7 : ... .. E ... ... ... : ... .. E ... ... ... : ... .. . ... : ... .. C ... : ... .. . ... ... : ... .. 9 ... ... : ... .. 9 ... ... : ... .. D ... ...
ROW B8 : ... .. D ... ... ... : ... .. D ... ... ... : ... .. . ... : ... .. 6 ... : ... .. . ... ... : ... .. 8 ... ... : ... .. 8 ... ... : ... .. 8 ... ...
ROW B9 : ... .. A ... ... ... : ... .. A ... ... ... : ... .. . ... : ... .. 3 ... : ... .. . ... ... : --- .. . ... ... : --- .. . ... ... : ... .. . ... ...
ROW BA : ... .. 2 ... ... ... : ... .. 2 ... ... ... : ... .. . ... : ... .. 2 ... : ... .. . ... ... : ... .. . ... ... : ... .. . ... ... : ... .. . ... ...
ROW BB : ... .. . ... ... ... : ... .. . ... ... ... : --- .. . ... : ... .. 0 ... : ... .. . ... ... : ... .. . ... ... : ... .. . ... ... : --- .. . P81 ...
ROW BC : C#2 00 F ... ... ... : G#1 00 F ... ... ... : C-5 00 . ... : 6-# 00 F ... : ... .. . ... ... : B-3 01 5 ... ... : C#4 01 A ... ... : C#1 01 F P80 ...
ROW BD : ... .. E ... ... ... : ... .. E ... ... ... : D-4 00 . ... : ... .. C ... : ... .. . ... ... : ... .. 4 ... ... : ... .. 9 ... ... : ... .. D ... ...
ROW BE : ... .. D ... ... ... : ... .. D ... ... ... : G-3 00 . ... : ... .. 6 ... : ... .. . ... ... : --- .. . ... ... : ... .. 8 ... ... : ... .. 8 ... ...
ROW BF : ... .. A ... ... ... : ... .. A ... ... ... : F#3 00 . ... : ... .. 3 ... : ... .. . ... ... : C#4 01 5 ... ... : ... .. 7 ... ... : ... .. . ... ...
ROW C0 : ... .. 2 ... ... ... : ... .. 2 ... ... ... : C#3 00 . ... : ... .. 2 ... : ... .. . ... ... : ... .. 4 ... ... : ... .. . ... ... : ... .. . ... ...
ROW C1 : ... .. . ... ... ... : ... .. . ... ... ... : --- .. . ... : ... .. 0 ... : ... .. . ... ... : --- .. . ... ... : ... .. 6 ... ... : --- .. . P81 ...
ROW C2 : ... .. F ... ... ... : ... .. F ... ... ... : C#3 00 . ... : ... .. F ... : ... .. . ... ... : D#4 01 6 ... ... : A#3 01 A ... ... : C#1 01 F P80 ...
ROW C3 : ... .. E ... ... ... : ... .. E ... ... ... : ... .. . ... : ... .. C ... : ... .. . ... ... : ... .. 5 ... ... : ... .. 9 ... ... : ... .. D ... ...
ROW C4 : ... .. D ... ... ... : ... .. D ... ... ... : ... .. . ... : ... .. 6 ... : ... .. . ... ... : --- .. . ... ... : ... .. 8 ... ... : ... .. 8 ... ...
ROW C5 : ... .. A ... ... ... : ... .. A ... ... ... : ... .. . ... : ... .. 3 ... : ... .. . ... ... : E-4 01 6 ... ... : ... .. 7 ... ... : ... .. . ... ...
ROW C6 : ... .. 2 ... ... ... : ... .. 2 ... ... ... : ... .. . ... : ... .. 2 ... : ... .. . ... ... : ... .. 5 ... ... : ... .. . ... ... : ... .. . ... ...
ROW C7 : ... .. . ... ... ... : ... .. . ... ... ... : --- .. . ... : ... .. 0 ... : ... .. . ... ... : --- .. . ... ... : ... .. 6 ... ... : --- .. . P81 ...
ROW C8 : ... .. F ... ... ... : ... .. F ... ... ... : C#3 00 . ... : 5-# 00 F ... : ... .. . ... ... : F#4 01 6 ... ... : D#4 01 A ... ... : C#1 01 F P80 ...
ROW C9 : ... .. E ... ... ... : ... .. E ... ... ... : ... .. . ... : ... .. C ... : ... .. . ... ... : ... .. . ... ... : ... .. 9 ... ... : ... .. D ... ...
ROW CA : ... .. D ... ... ... : ... .. D ... ... ... : ... .. . ... : ... .. 6 ... : ... .. . ... ... : --- .. . ... ... : ... .. 8 ... ... : ... .. 8 ... ...
ROW CB : ... .. A ... ... ... : ... .. A ... ... ... : ... .. . ... : ... .. 3 ... : ... .. . ... ... : G#4 01 7 ... ... : ... .. 7 ... ... : ... .. . ... ...
ROW CC : ... .. 2 ... ... ... : ... .. 2 ... ... ... : ... .. . ... : ... .. 2 ... : ... .. . ... ... : ... .. 6 ... ... : ... .. . ... ... : ... .. . ... ...
ROW CD : ... .. . ... ... ... : ... .. . ... ... ... : --- .. . ... : ... .. 0 ... : ... .. . ... ... : --- .. . ... ... : ... .. 6 ... ... : --- .. . P81 ...
ROW CE : F#1 00 F ... ... ... : C#1 00 F ... ... ... : F-4 00 . ... : ... .. F ... : ... .. . ... ... : A-4 01 7 ... ... : G#4 01 A ... ... : F#0 01 F P80 ...
ROW CF : ... .. E ... ... ... : ... .. E ... ... ... : G-3 00 . ... : ... .. C ... : ... .. . ... ... : ... .. 6 ... ... : ... .. 9 ... ... : ... .. D ... ...
ROW D0 : ... .. D ... ... ... : ... .. D ... ... ... : C-3 00 . ... : ... .. 6 ... : ... .. . ... ... : --- .. . ... ... : ... .. 8 ... ... : ... .. 8 ... ...
ROW D1 : ... .. A ... ... ... : ... .. A ... ... ... : B-2 00 . ... : ... .. 3 ... : ... .. . ... ... : B-4 01 8 ... ... : ... .. 7 ... ... : ... .. . ... ...
ROW D2 : ... .. 2 ... ... ... : ... .. 2 ... ... ... : F#2 00 . ... : ... .. 2 ... : ... .. . ... ... : ... .. 7 ... ... : ... .. . ... ... : ... .. . ... ...
ROW D3 : ... .. . ... ... ... : ... .. . ... ... ... : --- .. . ... : ... .. 0 ... : ... .. . ... ... : --- .. . ... ... : ... .. 6 ... ... : --- .. . P81 ...
ROW D4 : ... .. F ... ... ... : ... .. F ... ... ... : F#2 00 . ... : 3-# 00 F ... : ... .. . ... ... : C#5 01 8 ... ... : F#4 01 A ... ... : F#0 01 F P80 ...
ROW D5 : ... .. E ... ... ... : ... .. E ... ... ... : ... .. . ... : ... .. C ... : ... .. . ... ... : ... .. 7 ... ... : ... .. 9 ... ... : ... .. D ... ...
ROW D6 : ... .. D ... ... ... : ... .. D ... ... ... : ... .. . ... : ... .. 6 ... : ... .. . ... ... : --- .. . ... ... : ... .. 8 ... ... : ... .. 8 ... ...
ROW D7 : ... .. A ... ... ... : ... .. A ... ... ... : ... .. . ... : ... .. 3 ... : ... .. . ... ... : D#5 01 8 ... ... : ... .. 7 ... ... : ... .. . ... ...
ROW D8 : ... .. 2 ... ... ... : ... .. 2 ... ... ... : ... .. . ... : ... .. 2 ... : ... .. . ... ... : ... .. 7 ... ... : ... .. . ... ... : ... .. . ... ...
ROW D9 : ... .. . ... ... ... : ... .. . ... ... ... : --- .. . ... : ... .. 0 ... : ... .. . ... ... : --- .. . ... ... : ... .. 6 ... ... : --- .. . P81 ...
ROW DA : ... .. F ... ... ... : ... .. F ... ... ... : F#2 00 . ... : ... .. F ... : ... .. . ... ... : E-5 01 9 ... ... : C#5 01 A ... ... : F#0 01 F P80 ...
ROW DB : ... .. E ... ... ... : ... .. E ... ... ... : ... .. . ... : ... .. C ... : ... .. . ... ... : ... .. 8 ... ... : ... .. 9 ... ... : ... .. D ... ...
ROW DC : ... .. D ... ... ... : ... .. D ... ... ... : ... .. . ... : ... .. 6 ... : ... .. . ... ... : --- .. . ... ... : ... .. 8 ... ... : ... .. 8 ... ...
ROW DD : ... .. A ... ... ... : ... .. A ... ... ... : ... .. . ... : ... .. 3 ... : ... .. . ... ... : F#5 01 A ... ... : ... .. 7 ... ... : ... .. . ... ...
ROW DE : ... .. 2 ... ... ... : ... .. 2 ... ... ... : ... .. . ... : ... .. 2 ... : ... .. . ... ... : ... .. 9 ... ... : ... .. . ... ... : ... .. . ... ...
ROW DF : ... .. . ... ... ... : ... .. . ... ... ... : --- .. . ... : ... .. 0 ... : ... .. . ... ... : --- .. . ... ... : ... .. 6 ... ... : --- .. . P81 ...
ROW E0 : G#2 00 F ... ... ... : D#2 00 F ... ... ... : G-4 00 . ... : 1-# 00 F ... : ... .. . ... ... : D#5 01 7 ... V05 : G#5 01 8 ... ... : G#1 01 F P80 ...
ROW E1 : ... .. E ... ... ... : ... .. E ... ... ... : A-3 00 . ... : ... .. C ... : ... .. . ... ... : ... .. 6 ... ... : ... .. 7 ... ... : ... .. D ... ...
ROW E2 : ... .. D ... ... ... : ... .. D ... ... ... : D-3 00 . ... : ... .. 6 ... : ... .. . ... ... : ... .. . ... ... : ... .. 6 ... ... : ... .. 8 ... ...
ROW E3 : ... .. A ... ... ... : ... .. A ... ... ... : C#3 00 . ... : ... .. 3 ... : ... .. . ... ... : ... .. . ... ... : ... .. 5 ... ... : ... .. . ... ...
ROW E4 : ... .. 2 ... ... ... : ... .. 2 ... ... ... : G#2 00 . ... : ... .. 2 ... : ... .. . ... ... : ... .. 5 ... ... : ... .. . ... ... : ... .. . ... ...
ROW E5 : ... .. . ... ... ... : ... .. . ... ... ... : --- .. . ... : ... .. 0 ... : ... .. . ... ... : ... .. . ... ... : ... .. 4 ... ... : --- .. . P7E ...
ROW E6 : ... .. F ... ... ... : ... .. F ... ... ... : G#2 00 . ... : D-# 00 F ... : ... .. . ... ... : D#3 01 7 ... ... : G#3 01 8 ... ... : G#1 01 F P80 ...
ROW E7 : ... .. E ... ... ... : ... .. E ... ... ... : ... .. . ... : ... .. C ... : ... .. . ... ... : ... .. 6 ... ... : ... .. 7 ... ... : ... .. D ... ...
ROW E8 : ... .. D ... ... ... : ... .. D ... ... ... : ... .. . ... : ... .. 6 ... : ... .. . ... ... : ... .. . ... ... : ... .. 6 ... ... : ... .. 8 ... ...
ROW E9 : ... .. A ... ... ... : ... .. A ... ... ... : ... .. . ... : ... .. 3 ... : ... .. . ... ... : ... .. . ... ... : ... .. 5 ... ... : ... .. . ... ...
ROW EA : ... .. 2 ... ... ... : ... .. 2 ... ... ... : ... .. . ... : ... .. 2 ... : ... .. . ... ... : ... .. 5 ... ... : ... .. . ... ... : ... .. . ... ...
ROW EB : ... .. . ... ... ... : ... .. . ... ... ... : --- .. . ... : ... .. 0 ... : ... .. . ... ... : ... .. . ... ... : ... .. 4 ... ... : --- .. . P7E ...
ROW EC : ... .. F ... ... ... : ... .. F ... ... ... : G#2 00 . ... : ... .. F ... : ... .. . ... ... : D#4 01 7 ... ... : G#4 01 8 ... ... : G#1 01 F P80 ...
ROW ED : ... .. E ... ... ... : ... .. E ... ... ... : ... .. . ... : ... .. C ... : ... .. . ... ... : ... .. 6 ... ... : ... .. 7 ... ... : ... .. D ... ...
ROW EE : ... .. D ... ... ... : ... .. D ... ... ... : ... .. . ... : ... .. 6 ... : ... .. . ... ... : ... .. . ... ... : ... .. 6 ... ... : ... .. 8 ... ...
ROW EF : ... .. A ... ... ... : ... .. A ... ... ... : ... .. . ... : ... .. 3 ... : ... .. . ... ... : ... .. . ... ... : ... .. 5 ... ... : ... .. . ... ...
ROW F0 : ... .. 2 ... ... ... : ... .. 2 ... ... ... : ... .. . ... : ... .. 2 ... : ... .. . ... ... : ... .. 5 ... ... : ... .. . ... ... : ... .. . ... ...
ROW F1 : ... .. . ... ... ... : ... .. . ... ... ... : --- .. . ... : ... .. 0 ... : ... .. . ... ... : ... .. . ... ... : ... .. 4 ... ... : --- .. . P7E ...
ROW F2 : B-2 00 F ... ... ... : F#2 00 F ... ... ... : F#3 00 . ... : 6-# 00 F ... : ... .. . ... ... : C#4 01 7 ... ... : F#4 01 8 ... ... : F#2 01 F P80 ...
ROW F3 : ... .. E ... ... ... : ... .. E ... ... ... : ... .. . ... : ... .. C ... : ... .. . ... ... : ... .. 6 ... ... : ... .. 7 ... ... : ... .. D ... ...
ROW F4 : ... .. D ... ... ... : ... .. D ... ... ... : ... .. . ... : ... .. 6 ... : ... .. . ... ... : ... .. . ... ... : ... .. 6 ... ... : ... .. 8 ... ...
ROW F5 : ... .. A ... ... ... : ... .. A ... ... ... : ... .. . ... : ... .. 3 ... : ... .. . ... ... : ... .. . ... ... : ... .. 5 ... ... : ... .. . ... ...
ROW F6 : ... .. . ... ... ... : ... .. . ... ... ... : ... .. . ... : ... .. 2 ... : ... .. . ... ... : ... .. 5 ... ... : ... .. . ... ... : ... .. . ... ...
ROW F7 : ... .. . ... ... ... : ... .. . ... ... ... : --- .. . ... : ... .. 0 ... : ... .. . ... ... : ... .. . ... ... : ... .. 4 ... ... : --- .. . P84 ...
ROW F8 : F#2 00 F ... ... ... : C#2 00 F ... ... ... : G#3 00 . ... : D-# 00 F ... : ... .. . ... ... : D#2 01 7 ... ... : G#2 01 8 ... ... : G#2 01 F P80 ...
ROW F9 : ... .. E ... ... ... : ... .. E ... ... ... : ... .. . ... : ... .. C ... : ... .. . ... ... : ... .. 6 ... ... : ... .. 7 ... ... : ... .. D ... ...
ROW FA : ... .. D ... ... ... : ... .. D ... ... ... : ... .. . ... : ... .. 6 ... : ... .. . ... ... : ... .. . ... ... : ... .. 6 ... ... : ... .. 8 ... ...
ROW FB : ... .. A ... ... ... : ... .. A ... ... ... : ... .. . ... : ... .. 3 ... : ... .. . ... ... : ... .. . ... ... : ... .. 5 ... ... : ... .. . ... ...
ROW FC : ... .. 2 ... ... ... : ... .. 2 ... ... ... : ... .. . ... : ... .. 2 ... : ... .. . ... ... : ... .. 5 ... ... : ... .. . ... ... : ... .. . ... ...
ROW FD : ... .. . ... ... ... : ... .. . ... ... ... : --- .. . ... : ... .. 0 ... : ... .. . ... ... : ... .. . ... ... : ... .. 4 ... ... : --- .. . P7F ...
ROW FE : ... .. F ... ... ... : ... .. F ... ... ... : F#2 00 . ... : ... .. F ... : ... .. . ... ... : C#3 01 7 ... ... : F#3 01 8 ... ... : F#1 01 F P80 ...
ROW FF : ... .. E ... ... ... : ... .. E ... ... ... : ... .. . ... : ... .. C ... : ... .. . ... ... : ... .. 6 ... ... : ... .. 7 ... ... : ... .. D ... ...

PATTERN 08
ROW 00 : ... .. D ... ... ... : ... .. D ... ... ... : ... .. . ... : ... .. 6 ... : ... .. . ... ... : ... .. . ... ... : ... .. 6 ... ... : ... .. 8 ... ...
ROW 01 : ... .. A ... ... ... : ... .. A ... ... ... : ... .. . ... : ... .. 3 ... : ... .. . ... ... : ... .. . ... ... : ... .. 5 ... ... : ... .. . ... ...
ROW 02 : ... .. 2 ... ... ... : ... .. 2 ... ... ... : ... .. . ... : ... .. 2 ... : ... .. . ... ... : ... .. 5 ... ... : ... .. . ... ... : ... .. . ... ...
ROW 03 : ... .. . ... ... ... : ... .. . ... ... ... : --- .. . ... : ... .. 0 ... : ... .. . ... ... : ... .. . ... ... : ... .. 4 ... ... : --- .. . P81 ...
ROW 04 : G#2 00 F ... ... ... : D#2 00 F ... ... ... : G-4 00 . ... : 1-# 00 F ... : ... .. . ... ... : F#3 01 7 ... ... : B-3 01 8 ... ... : G#1 01 F P80 ...
ROW 05 : ... .. E ... ... ... : ... .. E ... ... ... : A-3 00 . ... : ... .. C ... : ... .. . ... ... : ... .. 6 ... ... : ... .. 7 ... ... : ... .. D ... ...
ROW 06 : ... .. D ... ... ... : ... .. D ... ... ... : D-3 00 . ... : ... .. 6 ... : ... .. . ... ... : ... .. . ... ... : ... .. 6 ... ... : ... .. 8 ... ...
ROW 07 : ... .. A ... ... ... : ... .. A ... ... ... : C#3 00 . ... : ... .. 3 ... : ... .. . ... ... : ... .. . ... ... : ... .. 5 ... ... : ... .. . ... ...
ROW 08 : ... .. 2 ... ... ... : ... .. 2 ... ... ... : G#2 00 . ... : ... .. 2 ... : ... .. . ... ... : ... .. 5 ... ... : ... .. . ... ... : ... .. . ... ...
ROW 09 : ... .. . ... ... ... : ... .. . ... ... ... : --- .. . ... : ... .. 0 ... : ... .. . ... ... : ... .. . ... ... : ... .. 4 ... ... : --- .. . P7E ...
ROW 0A : ... .. F ... ... ... : ... .. F ... ... ... : G#2 00 . ... : D-# 00 F ... : ... .. . ... ... : G#3 01 7 ... ... : C#4 01 8 ... ... : G#1 01 F P80 ...
ROW 0B : ... .. E ... ... ... : ... .. E ... ... ... : ... .. . ... : ... .. C ... : ... .. . ... ... : ... .. 6 ... ... : ... .. 7 ... ... : ... .. D ... ...
ROW 0C : ... .. D ... ... ... : ... .. D ... ... ... : ... .. . ... : ... .. 6 ... : ... .. . ... ... : ... .. . ... ... : ... .. 6 ... ... : ... .. 8 ... ...
ROW 0D : ... .. A ... ... ... : ... .. A ... ... ... : ... .. . ... : ... .. 3 ... : ... .. . ... ... : ... .. . ... ... : ... .. 5 ... ... : ... .. . ... ...
ROW 0E : ... .. 2 ... ... ... : ... .. 2 ... ... ... : ... .. . ... : ... .. 2 ... : ... .. . ... ... : ... .. 5 ... ... : ... .. . ... ... : ... .. . ... ...
ROW 0F : ... .. . ... ... ... : ... .. . ... ... ... : --- .. . ... : ... .. 0 ... : ... .. . ... ... : ... .. . ... ... : ... .. 4 ... ... : --- .. . P7E ...
ROW 10 : ... .. F ... ... ... : ... .. F ... ... ... : G#2 00 . ... : ... .. F ... : ... .. . ... ... : F#2 01 7 ... ... : B-2 01 8 ... ... : G#1 01 F P80 ...
ROW 11 : ... .. E ... ... ... : ... .. E ... ... ... : ... .. . ... : ... .. C ... : ... .. . ... ... : ... .. 6 ... ... : ... .. 7 ... ... : ... .. D ... ...
ROW 12 : ... .. D ... ... ... : ... .. D ... ... ... : ... .. . ... : ... .. 6 ... : ... .. . ... ... : ... .. . ... ... : ... .. 6 ... ... : ... .. 8 ... ...
ROW 13 : ... .. A ... ... ... : ... .. A ... ... ... : ... .. . ... : ... .. 3 ... : ... .. . ... ... : ... .. . ... ... : ... .. 5 ... ... : ... .. . ... ...
ROW 14 : ... .. 2 ... ... ... : ... .. 2 ... ... ... : ... .. . ... : ... .. 2 ... : ... .. . ... ... : ... .. 5 ... ... : ... .. . ... ... : ... .. . ... ...
ROW 15 : ... .. . ... ... ... : ... .. . ... ... ... : --- .. . ... : ... .. 0 ... : ... .. . ... ... : ... .. . ... ... : ... .. 4 ... ... : --- .. . P7E ...
ROW 16 : C#3 00 F ... ... ... : G#2 00 F ... ... ... : F#3 00 . ... : 6-# 00 F ... : ... .. . ... ... : G#3 01 7 ... ... : C#4 01 8 ... ... : F#2 01 F P80 ...
ROW 17 : ... .. E ... ... ... : ... .. E ... ... ... : ... .. . ... : ... .. C ... : ... .. . ... ... : ... .. 6 ... ... : ... .. 7 ... ... : ... .. D ... ...
ROW 18 : ... .. D ... ... ... : ... .. D ... ... ... : ... .. . ... : ... .. 6 ... : ... .. . ... ... : ... .. . ... ... : ... .. 6 ... ... : ... .. 8 ... ...
ROW 19 : ... .. A ... ... ... : ... .. A ... ... ... : ... .. . ... : ... .. 3 ... : ... .. . ... ... : ... .. . ... ... : ... .. 5 ... ... : ... .. . ... ...
ROW 1A : ... .. . ... ... ... : ... .. . ... ... ... : ... .. . ... : ... .. 2 ... : ... .. . ... ... : ... .. 5 ... ... : ... .. . ... ... : ... .. . ... ...
ROW 1B : ... .. . ... ... ... : ... .. . ... ... ... : --- .. . ... : ... .. 0 ... : ... .. . ... ... : ... .. . ... ... : ... .. 4 ... ... : --- .. . P84 ...
ROW 1C : B-2 00 F ... ... ... : F#2 00 F ... ... ... : G#3 00 . ... : 1-# 00 F ... : ... .. . ... ... : A#3 01 7 ... ... : D#4 01 8 ... ... : G#2 01 F P80 ...
ROW 1D : ... .. E ... ... ... : ... .. E ... ... ... : ... .. . ... : ... .. C ... : ... .. . ... ... : ... .. 6 ... ... : ... .. 7 ... ... : ... .. D ... ...
ROW 1E : ... .. D ... ... ... : ... .. D ... ... ... : ... .. . ... : ... .. 6 ... : ... .. . ... ... : ... .. . ... ... : ... .. 6 ... ... : ... .. 8 ... ...
ROW 1F : ... .. A ... ... ... : ... .. A ... ... ... : ... .. . ... : ... .. 3 ... : ... .. . ... ... : ... .. . ... ... : ... .. 5 ... ... : ... .. . ... ...
ROW 20 : ... .. . ... ... ... : ... .. . ... ... ... : ... .. . ... : ... .. 2 ... : ... .. . ... ... : ... .. 5 ... ... : ... .. . ... ... : ... .. . ... ...
ROW 21 : ... .. . ... ... ... : ... .. . ... ... ... : --- .. . ... : ... .. 0 ... : ... .. . ... ... : ... .. . ... ... : ... .. 4 ... ... : --- .. . P7F ...
ROW 22 : F#2 00 F ... ... ... : C#2 00 F ... ... ... : F#2 00 . ... : 6-# 00 F ... : ... .. . ... ... : D#4 01 7 ... ... : G#4 01 8 ... ... : F#1 01 F P80 ...
ROW 23 : ... .. E ... ... ... : ... .. E ... ... ... : ... .. . ... : ... .. C ... : ... .. . ... ... : ... .. 6 ... ... : ... .. 7 ... ... : ... .. D ... ...
ROW 24 : ... .. D ... ... ... : ... .. D ... ... ... : ... .. . ... : ... .. 6 ... : ... .. . ... ... : ... .. . ... ... : ... .. 6 ... ... : ... .. 8 ... ...
ROW 25 : ... .. A ... ... ... : ... .. A ... ... ... : ... .. . ... : ... .. 3 ... : ... .. . ... ... : ... .. . ... ... : ... .. 5 ... ... : ... .. . ... ...
ROW 26 : ... .. 2 ... ... ... : ... .. 2 ... ... ... : ... .. . ... : ... .. 2 ... : ... .. . ... ... : ... .. 5 ... ... : ... .. . ... ... : ... .. . ... ...
ROW 27 : ... .. . ... ... ... : ... .. . ... ... ... : --- .. . ... : ... .. 0 ... : ... .. . ... ... : ... .. . ... ... : ... .. 4 ... ... : --- .. . P81 ...
ROW 28 : G#2 00 F ... ... ... : D#2 00 F ... ... ... : G-4 00 . ... : 1-# 00 F ... : ... .. . ... ... : D#3 01 7 ... ... : G#3 01 8 ... ... : G#1 01 F P80 ...
ROW 29 : ... .. E ... ... ... : ... .. E ... ... ... : A-3 00 . ... : ... .. C ... : ... .. . ... ... : ... .. 6 ... ... : ... .. 7 ... ... : ... .. D ... ...
ROW 2A : ... .. D ... ... ... : ... .. D ... ... ... : D-3 00 . ... : ... .. 6 ... : ... .. . ... ... : ... .. . ... ... : ... .. 6 ... ... : ... .. 8 ... ...
ROW 2B : ... .. A ... ... ... : ... .. A ... ... ... : C#3 00 . ... : ... .. 3 ... : ... .. . ... ... : ... .. . ... ... : ... .. 5 ... ... : ... .. . ... ...
ROW 2C : ... .. 2 ... ... ... : ... .. 2 ... ... ... : G#2 00 . ... : ... .. 2 ... : ... .. . ... ... : ... .. 5 ... ... : ... .. . ... ... : ... .. . ... ...
ROW 2D : ... .. . ... ... ... : ... .. . ... ... ... : --- .. . ... : ... .. 0 ... : ... .. . ... ... : ... .. . ... ... : ... .. 4 ... ... : --- .. . P7E ...
ROW 2E : ... .. F ... ... ... : ... .. F ... ... ... : G#2 00 . ... : D-# 00 F ... : ... .. . ... ... : C#3 01 7 ... ... : F#3 01 8 ... ... : G#1 01 F P80 ...
ROW 2F : ... .. E ... ... ... : ... .. E ... ... ... : ... .. . ... : ... .. C ... : ... .. . ... ... : ... .. 6 ... ... : ... .. 7 ... ... : ... .. D ... ...
ROW 30 : ... .. D ... ... ... : ... .. D ... ... ... : ... .. . ... : ... .. 6 ... : ... .. . ... ... : ... .. . ... ... : ... .. 6 ... ... : ... .. 8 ... ...
ROW 31 : ... .. A ... ... ... : ... .. A ... ... ... : ... .. . ... : ... .. 3 ... : ... .. . ... ... : ... .. . ... ... : ... .. 5 ... ... : ... .. . ... ...
ROW 32 : ... .. 2 ... ... ... : ... .. 2 ... ... ... : ... .. . ... : ... .. 2 ... : ... .. . ... ... : ... .. 5 ... ... : ... .. . ... ... : ... .. . ... ...
ROW 33 : ... .. . ... ... ... : ... .. . ... ... ... : --- .. . ... : ... .. 0 ... : ... .. . ... ... : ... .. . ... ... : ... .. 4 ... ... : --- .. . P7E ...
ROW 34 : ... .. F ... ... ... : ... .. F ... ... ... : G#2 00 . ... : ... .. F ... : ... .. . ... ... : D#3 01 7 ... ... : G#3 01 8 ... ... : G#1 01 F P80 ...
ROW 35 : ... .. E ... ... ... : ... .. E ... ... ... : ... .. . ... : ... .. C ... : ... .. . ... ... : ... .. 6 ... ... : ... .. 7 ... ... : ... .. D ... ...
ROW 36 : ... .. D ... ... ... : ... .. D ... ... ... : ... .. . ... : ... .. 6 ... : ... .. . ... ... : ... .. . ... ... : ... .. 6 ... ... : ... .. 8 ... ...
ROW 37 : ... .. A ... ... ... : ... .. A ... ... ... : ... .. . ... : ... .. 3 ... : ... .. . ... ... : ... .. . ... ... : ... .. 5 ... ... : ... .. . ... ...
ROW 38 : ... .. 2 ... ... ... : ... .. 2 ... ... ... : ... .. . ... : ... .. 2 ... : ... .. . ... ... : ... .. 5 ... ... : ... .. . ... ... : ... .. . ... ...
ROW 39 : ... .. . ... ... ... : ... .. . ... ... ... : --- .. . ... : ... .. 0 ... : ... .. . ... ... : ... .. . ... ... : ... .. 4 ... ... : --- .. . P7E ...
ROW 3A : E-3 00 F ... ... ... : B-2 00 F ... ... ... : E-3 00 . ... : 8-# 00 F ... : ... .. . ... ... : D#4 01 7 ... ... : G#4 01 8 ... ... : E-2 01 F P80 ...
ROW 3B : ... .. E ... ... ... : ... .. E ... ... ... : ... .. . ... : ... .. C ... : ... .. . ... ... : ... .. 6 ... ... : ... .. 7 ... ... : ... .. D ... ...
ROW 3C : ... .. D ... ... ... : ... .. D ... ... ... : ... .. . ... : ... .. 6 ... : ... .. . ... ... : ... .. . ... ... : ... .. 6 ... ... : ... .. 8 ... ...
ROW 3D : ... .. A ... ... ... : ... .. A ... ... ... : ... .. . ... : ... .. 3 ... : ... .. . ... ... : ... .. . ... ... : ... .. 5 ... ... : ... .. . ... ...
ROW 3E : ... .. . ... ... ... : ... .. . ... ... ... : ... .. . ... : ... .. 2 ... : ... .. . ... ... : ... .. 5 ... ... : ... .. . ... ... : ... .. . ... ...
ROW 3F : ... .. . ... ... ... : ... .. . ... ... ... : --- .. . ... : ... .. 0 ... : ... .. . ... ... : ... .. . ... ... : ... .. 4 ... ... : --- .. . P89 ...
ROW 40 : D#3 00 F ... ... ... : A#2 00 F ... ... ... : D#3 00 . ... : 4-# 00 F ... : ... .. . ... ... : D#2 01 7 ... ... : G#2 01 8 ... ... : D#2 01 F P80 ...
ROW 41 : ... .. E ... ... ... : ... .. E ... ... ... : ... .. . ... : ... .. C ... : ... .. . ... ... : ... .. 6 ... ... : ... .. 7 ... ... : ... .. D ... ...
ROW 42 : ... .. D ... ... ... : ... .. D ... ... ... : ... .. . ... : ... .. 6 ... : ... .. . ... ... : ... .. . ... ... : ... .. 6 ... ... : ... .. 8 ... ...
ROW 43 : ... .. A ... ... ... : ... .. A ... ... ... : ... .. . ... : ... .. 3 ... : ... .. . ... ... : ... .. . ... ... : ... .. 5 ... ... : ... .. . ... ...
ROW 44 : ... .. . ... ... ... : ... .. . ... ... ... : ... .. . ... : ... .. 2 ... : ... .. . ... ... : ... .. 5 ... ... : ... .. . ... ... : ... .. . ... ...
ROW 45 : ... .. . ... ... ... : ... .. . ... ... ... : --- .. . ... : ... .. 0 ... : ... .. . ... ... : ... .. . ... ... : ... .. 4 ... ... : --- .. . ... ...
ROW 46 : B-2 00 F ... ... ... : F#2 00 F ... ... ... : F#2 00 . ... : 1-# 00 F ... : ... .. . ... ... : C#2 01 7 ... ... : F#2 01 8 ... ... : F#1 01 F ... ...
ROW 47 : ... .. E ... ... ... : ... .. E ... ... ... : ... .. . ... : ... .. C ... : ... .. . ... ... : ... .. 6 ... ... : ... .. 7 ... ... : ... .. D ... ...
ROW 48 : ... .. D ... ... ... : ... .. D ... ... ... : ... .. . ... : ... .. 6 ... : ... .. . ... ... : ... .. . ... ... : ... .. 6 ... ... : ... .. 8 ... ...
ROW 49 : ... .. A ... ... ... : ... .. A ... ... ... : ... .. . ... : ... .. 3 ... : ... .. . ... ... : ... .. . ... ... : ... .. 5 ... ... : ... .. . ... ...
ROW 4A : ... .. 2 ... ... ... : ... .. 2 ... ... ... : ... .. . ... : ... .. 2 ... : ... .. . ... ... : ... .. 5 ... ... : ... .. . ... ... : ... .. . ... ...
ROW 4B : ... .. . ... ... ... : ... .. . ... ... ... : --- .. . ... : ... .. 0 ... : ... .. . ... ... : ... .. . ... ... : ... .. 4 ... ... : --- .. . P81 ...
ROW 4C : C#3 00 F ... ... ... : G#2 00 F ... ... ... : C-5 00 . ... : 7-# 00 F ... : ... .. . ... ... : C#3 01 7 ... ... : F#3 01 8 ... ... : C#2 01 F P80 ...
ROW 4D : ... .. E ... ... ... : ... .. E ... ... ... : D-4 00 . ... : ... .. C ... : ... .. . ... ... : ... .. 6 ... ... : ... .. 7 ... ... : ... .. D ... ...
ROW 4E : ... .. D ... ... ... : ... .. D ... ... ... : G-3 00 . ... : ... .. 6 ... : ... .. . ... ... : ... .. . ... ... : ... .. 6 ... ... : ... .. 8 ... ...
ROW 4F : ... .. A ... ... ... : ... .. A ... ... ... : F#3 00 . ... : ... .. 3 ... : ... .. . ... ... : ... .. . ... ... : ... .. 5 ... ... : ... .. . ... ...
ROW 50 : ... .. . ... ... ... : ... .. . ... ... ... : C#3 00 . ... : ... .. 2 ... : ... .. . ... ... : ... .. 5 ... ... : ... .. . ... ... : ... .. . ... ...
ROW 51 : ... .. . ... ... ... : ... .. . ... ... ... : --- .. . ... : ... .. 0 ... : ... .. . ... ... : ... .. . ... ... : ... .. 4 ... ... : --- .. . ... ...
ROW 52 : F#2 00 F ... ... ... : C#2 00 F ... ... ... : B-2 00 . ... : 3-# 00 F ... : ... .. . ... ... : D#3 01 7 ... ... : G#3 01 8 ... ... : B-1 01 F ... ...
ROW 53 : ... .. E ... ... ... : ... .. E ... ... ... : ... .. . ... : ... .. C ... : ... .. . ... ... : ... .. 6 ... ... : ... .. 7 ... ... : ... .. D ... ...
ROW 54 : ... .. D ... ... ... : ... .. D ... ... ... : ... .. . ... : ... .. 6 ... : ... .. . ... ... : ... .. . ... ... : ... .. 6 ... ... : ... .. 8 ... ...
ROW 55 : ... .. A ... ... ... : ... .. A ... ... ... : ... .. . ... : ... .. 3 ... : ... .. . ... ... : ... .. . ... ... : ... .. 5 ... ... : ... .. . ... ...
ROW 56 : ... .. . ... ... ... : ... .. . ... ... ... : ... .. . ... : ... .. 2 ... : ... .. . ... ... : ... .. 5 ... ... : ... .. . ... ... : ... .. . ... ...
ROW 57 : ... .. . ... ... ... : ... .. . ... ... ... : --- .. . ... : ... .. 0 ... : ... .. . ... ... : ... .. . ... ... : ... .. 4 ... ... : --- .. . P86 ...
ROW 58 : G#2 00 F ... ... ... : D#2 00 F ... ... ... : C#3 00 . ... : 1-# 00 F ... : ... .. . ... ... : D#2 01 7 ... ... : G#2 01 8 ... ... : C#2 01 F P80 ...
ROW 59 : ... .. E ... ... ... : ... .. E ... ... ... : ... .. . ... : ... .. C ... : ... .. . ... ... : ... .. 6 ... ... : ... .. 7 ... ... : ... .. D ... ...
ROW 5A : ... .. D ... ... ... : ... .. D ... ... ... : ... .. . ... : ... .. 6 ... : ... .. . ... ... : ... .. . ... ... : ... .. 6 ... ... : ... .. 8 ... ...
ROW 5B : ... .. A ... ... ... : ... .. A ... ... ... : ... .. . ... : ... .. 3 ... : ... .. . ... ... : ... .. . ... ... : ... .. 5 ... ... : ... .. . ... ...
ROW 5C : ... .. 2 ... ... ... : ... .. 2 ... ... ... : ... .. . ... : ... .. 2 ... : ... .. . ... ... : ... .. 5 ... ... : ... .. . ... ... : ... .. . ... ...
ROW 5D : ... .. . ... ... ... : ... .. . ... ... ... : --- .. . ... : ... .. 0 ... : ... .. . ... ... : ... .. . ... ... : ... .. 4 ... ... : --- .. . ... ...
ROW 5E : C#2 00 F ... ... ... : G#1 00 F ... ... ... : F#3 00 . ... : 6-# 00 F ... : ... .. . ... ... : G#3 01 7 ... ... : C#4 01 8 ... ... : F#2 01 F ... ...
ROW 5F : ... .. E ... ... ... : ... .. E ... ... ... : ... .. . ... : ... .. C ... : ... .. . ... ... : ... .. 6 ... ... : ... .. 7 ... ... : ... .. D ... ...
ROW 60 : ... .. D ... ... ... : ... .. D ... ... ... : ... .. . ... : ... .. 6 ... : ... .. . ... ... : ... .. . ... ... : ... .. 6 ... ... : ... .. 8 ... ...
ROW 61 : ... .. A ... ... ... : ... .. A ... ... ... : ... .. . ... : ... .. 3 ... : ... .. . ... ... : ... .. . ... ... : ... .. 5 ... ... : ... .. . ... ...
ROW 62 : ... .. . ... ... ... : ... .. . ... ... ... : ... .. . ... : ... .. 2 ... : ... .. . ... ... : ... .. 5 ... ... : ... .. . ... ... : ... .. . ... ...
ROW 63 : ... .. . ... ... ... : ... .. . ... ... ... : --- .. . ... : ... .. 0 ... : ... .. . ... ... : ... .. . ... ... : ... .. 4 ... ... : --- .. . P84 ...
ROW 64 : D#2 00 F ... ... ... : A#1 00 F ... ... ... : G#3 00 . ... : 2-# 00 F ... : ... .. . ... ... : A#3 01 7 ... ... : D#4 01 8 ... ... : G#2 01 F P80 ...
ROW 65 : ... .. E ... ... ... : ... .. E ... ... ... : ... .. . ... : ... .. C ... : ... .. . ... ... : ... .. 6 ... ... : ... .. 7 ... ... : ... .. D ... ...
ROW 66 : ... .. D ... ... ... : ... .. D ... ... ... : ... .. . ... : ... .. 6 ... : ... .. . ... ... : ... .. . ... ... : ... .. 6 ... ... : ... .. 8 ... ...
ROW 67 : ... .. A ... ... ... : ... .. A ... ... ... : ... .. . ... : ... .. 3 ... : ... .. . ... ... : ... .. . ... ... : ... .. 5 ... ... : ... .. . ... ...
ROW 68 : ... .. . ... ... ... : ... .. . ... ... ... : ... .. . ... : ... .. 2 ... : ... .. . ... ... : ... .. 5 ... ... : ... .. . ... ... : ... .. . ... ...
ROW 69 : ... .. . ... ... ... : ... .. . ... ... ... : --- .. . ... : ... .. 0 ... : ... .. . ... ... : ... .. . ... ... : ... .. 4 ... ... : --- .. . P7F ...
ROW 6A : B-1 00 F ... ... ... : F#1 00 F ... ... ... : B-3 00 . ... : 1-# 00 F ... : ... .. . ... ... : A#4 01 7 ... ... : D#5 01 8 ... ... : B-2 01 F P80 ...
ROW 6B : ... .. E ... ... ... : ... .. E ... ... ... : ... .. . ... : ... .. C ... : ... .. . ... ... : ... .. 6 ... ... : ... .. 7 ... ... : ... .. D ... ...
ROW 6C : ... .. D ... ... ... : ... .. D ... ... ... : ... .. . ... : ... .. 6 ... : ... .. . ... ... : ... .. . ... ... : ... .. 6 ... ... : ... .. 8 ... ...
ROW 6D : ... .. A ... ... ... : ... .. A ... ... ... : ... .. . ... : ... .. 3 ... : ... .. . ... ... : ... .. . ... ... : ... .. 5 ... ... : ... .. . ... ...
ROW 6E : ... .. 2 ... ... ... : ... .. 2 ... ... ... : ... .. . ... : ... .. 2 ... : ... .. . ... ... : ... .. 5 ... ... : ... .. . ... ... : ... .. . ... ...
ROW 6F : ... .. . ... ... ... : ... .. . ... ... ... : --- .. . ... : ... .. 0 ... : ... .. . ... ... : ... .. . ... ... : ... .. 4 ... ... : --- .. . P8B ...
ROW 70 : G#1 00 F ... ... ... : D#1 00 F ... ... ... : G-4 00 . ... : ... .. F ... : ... .. . ... ... : D#2 01 7 ... ... : G#2 01 8 ... ... : G#1 01 F P80 ...
ROW 71 : ... .. E ... ... ... : ... .. E ... ... ... : A-3 00 . ... : ... .. C ... : ... .. . ... ... : ... .. 6 ... ... : ... .. 7 ... ... : ... .. D ... ...
ROW 72 : ... .. D ... ... ... : ... .. D ... ... ... : D-3 00 . ... : ... .. 6 ... : ... .. . ... ... : ... .. . ... ... : ... .. 6 ... ... : ... .. 8 ... ...
ROW 73 : ... .. A ... ... ... : ... .. A ... ... ... : C#3 00 . ... : ... .. 3 ... : ... .. . ... ... : --- .. . P7B ... : --- .. . ... ... : ... .. . ... ...
ROW 74 : ... .. 2 ... ... ... : ... .. 2 ... ... ... : G#2 00 . ... : ... .. 2 ... : ... .. . ... ... : ... .. . ... ... : ... .. . ... ... : ... .. . ... ...
ROW 75 : ... .. . ... ... ... : ... .. . ... ... ... : --- .. . ... : ... .. 0 ... : ... .. . ... ... : ... .. . ... ... : ... .. . ... ... : --- .. . P7E ...
ROW 76 : ... .. F ... ... ... : ... .. F ... ... ... : G#2 00 . ... : ... .. F ... : ... .. . ... ... : D#2 01 7 P80 ... : G#2 01 8 ... ... : G#1 01 F P80 ...
ROW 77 : ... .. E ... ... ... : ... .. E ... ... ... : ... .. . ... : ... .. C ... : ... .. . ... ... : ... .. 6 ... ... : ... .. 7 ... ... : ... .. D ... ...
ROW 78 : ... .. D ... ... ... : ... .. D ... ... ... : ... .. . ... : ... .. 6 ... : ... .. . ... ... : ... .. . ... ... : ... .. 6 ... ... : ... .. 8 ... ...
ROW 79 : ... .. A ... ... ... : ... .. A ... ... ... : ... .. . ... : ... .. 3 ... : ... .. . ... ... : --- .. . P7B ... : --- .. . ... ... : ... .. . ... ...
ROW 7A : ... .. 2 ... ... ... : ... .. 2 ... ... ... : ... .. . ... : ... .. 2 ... : ... .. . ... ... : ... .. . ... ... : ... .. . ... ... : ... .. . ... ...
ROW 7B : ... .. . ... ... ... : ... .. . ... ... ... : --- .. . ... : ... .. 0 ... : ... .. . ... ... : ... .. . ... ... : ... .. . ... ... : --- .. . P7E ...
ROW 7C : ... .. F ... ... ... : ... .. F ... ... ... : G#2 00 . ... : ... .. F ... : ... .. . ... ... : D#2 01 7 P80 ... : G#2 01 8 ... ... : G#1 01 F P80 ...
ROW 7D : ... .. E ... ... ... : ... .. E ... ... ... : ... .. . ... : ... .. C ... : ... .. . ... ... : ... .. 6 ... ... : ... .. 7 ... ... : ... .. D ... ...
ROW 7E : ... .. D ... ... ... : ... .. D ... ... ... : ... .. . ... : ... .. 6 ... : ... .. . ... ... : ... .. . ... ... : ... .. 6 ... ... : ... .. 8 ... ...
ROW 7F : ... .. A ... ... ... : ... .. A ... ... ... : ... .. . ... : ... .. 3 ... : ... .. . ... ... : --- .. . P7B ... : --- .. . ... ... : ... .. . ... ...
ROW 80 : ... .. 2 ... ... ... : ... .. 2 ... ... ... : ... .. . ... : ... .. 2 ... : ... .. . ... ... : ... .. . ... ... : ... .. . ... ... : ... .. . ... ...
ROW 81 : ... .. . ... ... ... : ... .. . ... ... ... : --- .. . ... : ... .. 0 ... : ... .. . ... ... : ... .. . ... ... : ... .. . ... ... : --- .. . P7E ...
ROW 82 : C#3 00 F ... ... ... : G#2 00 F ... ... ... : C#4 00 . ... : B-# 00 F ... : ... .. . ... ... : F#4 01 9 P80 ... : B-4 01 A ... ... : C#3 01 F P80 ...
ROW 83 : ... .. E ... ... ... : ... .. E ... ... ... : ... .. . ... : ... .. . ... : ... .. . ... ... : ... .. 8 ... ... : ... .. 9 ... ... : ... .. D ... ...
ROW 84 : ... .. D ... ... ... : ... .. D ... ... ... : ... .. . ... : ... .. . ... : ... .. . ... ... : ... .. . ... ... : ... .. 8 ... ... : ... .. 8 ... ...
ROW 85 : ... .. A ... ... ... : ... .. A ... ... ... : ... .. . ... : ... .. D ... : ... .. . ... ... : ... .. . ... ... : ... .. 7 ... ... : ... .. . ... ...
ROW 86 : ... .. . ... ... ... : ... .. . ... ... ... : ... .. . ... : ... .. . ... : ... .. . ... ... : ... .. 7 ... ... : ... .. . ... ... : ... .. . ... ...
ROW 87 : ... .. . ... ... ... : ... .. . ... ... ... : ... .. . ... : ... .. . ... : ... .. . ... ... : ... .. . ... ... : ... .. 6 ... ... : ... .. . ... ...
ROW 88 : ... .. . ... ... ... : ... .. . ... ... ... : D-4 00 . P7B : ... .. C ... : ... .. . ... ... : ... .. . ... ... : ... .. . ... ... : ... .. . P87 ...
ROW 89 : ... .. . ... ... ... : ... .. . ... ... ... : ... .. . P7D : ... .. . ... : ... .. . ... ... : ... .. 6 ... ... : ... .. 5 ... ... : ... .. . P89 ...
ROW 8A : ... .. . ... ... ... : ... .. . ... ... ... : C#4 00 . P86 : ... .. . ... : ... .. . ... ... : ... .. . ... ... : ... .. . ... ... : ... .. . P86 ...
ROW 8B : D-3 00 A P88 ... ... : A-2 00 A ... ... ... : ... .. . P80 : ... .. A ... : ... .. . ... ... : ... .. . P83 ... : ... .. . P83 ... : ... .. . P80 ...
ROW 8C : D#3 00 A P7F ... ... : ... .. . P8C ... ... : C-4 00 . P85 : ... .. . ... : ... .. . ... ... : ... .. . P84 ... : C-5 01 5 P7E ... : ... .. . P79 ...
ROW 8D : D-3 00 A P84 ... ... : ... .. . P7C ... ... : ... .. . P83 : ... .. . ... : ... .. . ... ... : ... .. . P83 ... : B-4 01 5 P83 ... : ... .. . P77 ...
ROW 8E : C#3 00 A P80 ... ... : G#2 00 A P80 ... ... : ... .. . P86 : ... .. 9 ... : ... .. . ... ... : ... .. . P80 ... : ... .. . P80 ... : ... .. . P7A ...
ROW 8F : C-3 00 A P79 ... ... : G-2 00 A P81 ... ... : C#4 00 . P80 : ... .. . ... : ... .. . ... ... : ... .. . P7D ... : ... .. . P7D ... : ... .. . P80 ...
ROW 90 : B-2 00 A P86 ... ... : ... .. . P75 ... ... : D-4 00 . P7B : ... .. . ... : ... .. . ... ... : ... .. . P7C ... : A#4 01 5 P83 ... : ... .. . P87 ...
ROW 91 : C-3 00 A P7D ... ... : ... .. . P85 ... ... : ... .. . P7D : ... .. 8 ... : ... .. . ... ... : ... .. . P7D ... : B-4 01 5 P7D ... : ... .. . P89 ...
ROW 92 : C#3 00 2 P80 ... ... : G#2 00 2 P80 ... ... : C#4 00 . P86 : ... .. . ... : ... .. . ... ... : ... .. . P80 ... : ... .. . P80 ... : ... .. . P86 ...
ROW 93 : D-3 00 2 P88 ... ... : A-2 00 2 ... ... ... : ... .. . P80 : ... .. . ... : ... .. . ... ... : ... .. . P83 ... : ... .. . P83 ... : ... .. . P80 ...
ROW 94 : G#1 00 F P80 ... ... : D#1 00 F ... ... ... : G-4 00 . ... : 1-# 00 F ... : ... .. . ... ... : D#2 01 7 P80 ... : G#2 01 8 P80 ... : G#1 01 F ... ...
ROW 95 : ... .. E ... ... ... : ... .. E ... ... ... : A-3 00 . ... : ... .. C ... : ... .. . ... ... : ... .. 6 ... ... : ... .. 7 ... ... : ... .. D ... ...
ROW 96 : ... .. D ... ... ... : ... .. D ... ... ... : D-3 00 . ... : ... .. 6 ... : ... .. . ... ... : ... .. . ... ... : ... .. 6 ... ... : ... .. 8 ... ...
ROW 97 : ... .. A ... ... ... : ... .. A ... ... ... : C#3 00 . ... : ... .. 3 ... : ... .. . ... ... : --- .. . P7B ... : --- .. . ... ... : ... .. . ... ...
ROW 98 : ... .. 2 ... ... ... : ... .. 2 ... ... ... : G#2 00 . ... : ... .. 2 ... : ... .. . ... ... : ... .. . ... ... : ... .. . ... ... : ... .. . ... ...
ROW 99 : ... .. . ... ... ... : ... .. . ... ... ... : --- .. . ... : ... .. 0 ... : ... .. . ... ... : ... .. . ... ... : ... .. . ... ... : --- .. . P7E ...
ROW 9A : ... .. F ... ... ... : ... .. F ... ... ... : G#2 00 . ... : ... .. F ... : ... .. . ... ... : D#2 01 7 P80 ... : G#2 01 8 ... ... : G#1 01 F P80 ...
ROW 9B : ... .. E ... ... ... : ... .. E ... ... ... : ... .. . ... : ... .. C ... : ... .. . ... ... : ... .. 6 ... ... : ... .. 7 ... ... : ... .. D ... ...
ROW 9C : ... .. D ... ... ... : ... .. D ... ... ... : ... .. . ... : ... .. 6 ... : ... .. . ... ... : ... .. . ... ... : ... .. 6 ... ... : ... .. 8 ... ...
ROW 9D : ... .. A ... ... ... : ... .. A ... ... ... : ... .. . ... : ... .. 3 ... : ... .. . ... ... : --- .. . P7B ... : --- .. . ... ... : ... .. . ... ...
ROW 9E : ... .. 2 ... ... ... : ... .. 2 ... ... ... : ... .. . ... : ... .. 2 ... : ... .. . ... ... : ... .. . ... ... : ... .. . ... ... : ... .. . ... ...
ROW 9F : ... .. . ... ... ... : ... .. . ... ... ... : --- .. . ... : ... .. 0 ... : ... .. . ... ... : ... .. . ... ... : ... .. . ... ... : --- .. . P7E ...
ROW A0 : ... .. F ... ... ... : ... .. F ... ... ... : G#2 00 . ... : ... .. F ... : ... .. . ... ... : D#2 01 7 P80 ... : G#2 01 8 ... ... : G#1 01 F P80 ...
ROW A1 : ... .. E ... ... ... : ... .. E ... ... ... : ... .. . ... : ... .. C ... : ... .. . ... ... : ... .. 6 ... ... : ... .. 7 ... ... : ... .. D ... ...
ROW A2 : ... .. D ... ... ... : ... .. D ... ... ... : ... .. . ... : ... .. 6 ... : ... .. . ... ... : ... .. . ... ... : ... .. 6 ... ... : ... .. 8 ... ...
ROW A3 : ... .. A ... ... ... : ... .. A ... ... ... : ... .. . ... : ... .. 3 ... : ... .. . ... ... : --- .. . P7B ... : --- .. . ... ... : ... .. . ... ...
ROW A4 : ... .. 2 ... ... ... : ... .. 2 ... ... ... : ... .. . ... : ... .. 2 ... : ... .. . ... ... : ... .. . ... ... : ... .. . ... ... : ... .. . ... ...
ROW A5 : ... .. . ... ... ... : ... .. . ... ... ... : --- .. . ... : ... .. 0 ... : ... .. . ... ... : ... .. . ... ... : ... .. . ... ... : --- .. . P7E ...
ROW A6 : C#3 00 F ... ... ... : G#2 00 F ... ... ... : C#4 00 . ... : B-# 00 F ... : ... .. . ... ... : C#4 01 9 P80 ... : F#4 01 A ... ... : C#3 01 F P80 ...
ROW A7 : ... .. E ... ... ... : ... .. E ... ... ... : ... .. . ... : ... .. . ... : ... .. . ... ... : ... .. 8 ... ... : ... .. 9 ... ... : ... .. D ... ...
ROW A8 : ... .. D ... ... ... : ... .. D ... ... ... : ... .. . ... : ... .. . ... : ... .. . ... ... : ... .. . ... ... : ... .. 8 ... ... : ... .. 8 ... ...
ROW A9 : ... .. A ... ... ... : ... .. A ... ... ... : ... .. . ... : ... .. D ... : ... .. . ... ... : ... .. . ... ... : ... .. 7 ... ... : ... .. . ... ...
ROW AA : ... .. . ... ... ... : ... .. . ... ... ... : ... .. . ... : ... .. . ... : ... .. . ... ... : ... .. 7 ... ... : ... .. . ... ... : ... .. . ... ...
ROW AB : ... .. . ... ... ... : ... .. . ... ... ... : ... .. . ... : ... .. . ... : ... .. . ... ... : ... .. . ... ... : ... .. 6 ... ... : ... .. . ... ...
ROW AC : D-3 00 A P88 ... ... : A-2 00 A ... ... ... : D-4 00 . P7B : ... .. C ... : ... .. . ... ... : ... .. . ... ... : ... .. . ... ... : ... .. . P87 ...
ROW AD : D#3 00 A P7F ... ... : ... .. . P8C ... ... : ... .. . P7D : ... .. . ... : ... .. . ... ... : ... .. 6 ... ... : ... .. 5 ... ... : ... .. . P89 ...
ROW AE : D-3 00 A P84 ... ... : ... .. . P7C ... ... : C#4 00 . P86 : ... .. . ... : ... .. . ... ... : ... .. . ... ... : ... .. . ... ... : ... .. . P86 ...
ROW AF : C#3 00 A P80 ... ... : G#2 00 A P80 ... ... : ... .. . P80 : ... .. A ... : ... .. . ... ... : ... .. . P83 ... : ... .. . P83 ... : ... .. . P80 ...
ROW B0 : C-3 00 A P79 ... ... : G-2 00 A P81 ... ... : C-4 00 . P85 : ... .. . ... : ... .. . ... ... : ... .. . P84 ... : ... .. . P84 ... : ... .. . P79 ...
ROW B1 : B-2 00 A P86 ... ... : ... .. . P75 ... ... : ... .. . P83 : ... .. . ... : ... .. . ... ... : ... .. . P83 ... : ... .. . P83 ... : ... .. . P77 ...
ROW B2 : C-3 00 A P7D ... ... : ... .. . P85 ... ... : ... .. . P86 : ... .. 9 ... : ... .. . ... ... : ... .. . P80 ... : ... .. . P80 ... : ... .. . P7A ...
ROW B3 : C#3 00 A P80 ... ... : G#2 00 A P80 ... ... : C#4 00 . P80 : ... .. . ... : ... .. . ... ... : ... .. . P7D ... : ... .. . P7D ... : ... .. . P80 ...
ROW B4 : D-3 00 A P88 ... ... : A-2 00 A ... ... ... : D-4 00 . P7B : ... .. . ... : ... .. . ... ... : ... .. . P7C ... : ... .. . P7C ... : ... .. . P87 ...
ROW B5 : D#3 00 A P7F ... ... : ... .. . P8C ... ... : ... .. . P7D : ... .. 8 ... : ... .. . ... ... : ... .. . P7D ... : ... .. . P7D ... : ... .. . P89 ...
ROW B6 : D-3 00 2 P84 ... ... : ... .. 2 P7C ... ... : C#4 00 . P86 : ... .. . ... : ... .. . ... ... : ... .. . P80 ... : ... .. . P80 ... : ... .. . P86 ...
ROW B7 : C#3 00 2 P80 ... ... : G#2 00 2 P80 ... ... : ... .. . P80 : ... .. . ... : ... .. . ... ... : ... .. . P83 ... : ... .. . P83 ... : ... .. . P80 ...
ROW B8 : B-2 00 F ... ... ... : F#2 00 F ... ... ... : G-4 00 . ... : 1-# 00 F ... : ... .. . ... ... : D#3 01 7 P80 ... : G#3 01 8 P80 ... : G#1 01 F ... ...
ROW B9 : ... .. E ... ... ... : ... .. E ... ... ... : A-3 00 . ... : ... .. C ... : ... .. . ... ... : ... .. 6 ... ... : ... .. 7 ... ... : ... .. D ... ...
ROW BA : ... .. D ... ... ... : ... .. D ... ... ... : D-3 00 . ... : ... .. 6 ... : ... .. . ... ... : ... .. . ... ... : ... .. 6 ... ... : ... .. 8 ... ...
ROW BB : ... .. A ... ... ... : ... .. A ... ... ... : C#3 00 . ... : ... .. 3 ... : ... .. . ... ... : --- .. . P83 ... : --- .. . P82 ... : ... .. . ... ...
ROW BC : ... .. 2 ... ... ... : ... .. 2 ... ... ... : G#2 00 . ... : ... .. 2 ... : ... .. . ... ... : ... .. . ... ... : ... .. . ... ... : ... .. . ... ...
ROW BD : ... .. . ... ... ... : ... .. . ... ... ... : --- .. . ... : ... .. 0 ... : ... .. . ... ... : ... .. . ... ... : ... .. . ... ... : --- .. . P7E ...
ROW BE : F#2 00 F ... ... ... : C#2 00 F ... ... ... : G#2 00 . ... : ... .. F ... : ... .. . ... ... : D#3 01 7 P80 ... : G#3 01 8 P80 ... : G#1 01 F P80 ...
ROW BF : ... .. E ... ... ... : ... .. E ... ... ... : ... .. . ... : ... .. C ... : ... .. . ... ... : ... .. 6 ... ... : ... .. 7 ... ... : ... .. D ... ...
ROW C0 : ... .. D ... ... ... : ... .. D ... ... ... : ... .. . ... : ... .. 6 ... : ... .. . ... ... : ... .. . ... ... : ... .. 6 ... ... : ... .. 8 ... ...
ROW C1 : ... .. A ... ... ... : ... .. A ... ... ... : ... .. . ... : ... .. 3 ... : ... .. . ... ... : --- .. . P83 ... : --- .. . P82 ... : ... .. . ... ...
ROW C2 : ... .. 2 ... ... ... : ... .. 2 ... ... ... : ... .. . ... : ... .. 2 ... : ... .. . ... ... : ... .. . ... ... : ... .. . ... ... : ... .. . ... ...
ROW C3 : ... .. . ... ... ... : ... .. . ... ... ... : --- .. . ... : ... .. 0 ... : ... .. . ... ... : ... .. . ... ... : ... .. . ... ... : --- .. . P7E ...
ROW C4 : ... .. F ... ... ... : ... .. F ... ... ... : G#2 00 . ... : ... .. F ... : ... .. . ... ... : D#3 01 7 P80 ... : G#3 01 8 P80 ... : G#1 01 F P80 ...
ROW C5 : ... .. E ... ... ... : ... .. E ... ... ... : ... .. . ... : ... .. C ... : ... .. . ... ... : ... .. 6 ... ... : ... .. 7 ... ... : ... .. D ... ...
ROW C6 : ... .. D ... ... ... : ... .. D ... ... ... : ... .. . ... : ... .. 6 ... : ... .. . ... ... : ... .. . ... ... : ... .. 6 ... ... : ... .. 8 ... ...
ROW C7 : ... .. A ... ... ... : ... .. A ... ... ... : ... .. . ... : ... .. 3 ... : ... .. . ... ... : --- .. . P83 ... : --- .. . P82 ... : ... .. . ... ...
ROW C8 : ... .. 2 ... ... ... : ... .. 2 ... ... ... : ... .. . ... : ... .. 2 ... : ... .. . ... ... : ... .. . ... ... : ... .. . ... ... : ... .. . ... ...
ROW C9 : ... .. . ... ... ... : ... .. . ... ... ... : --- .. . ... : ... .. 0 ... : ... .. . ... ... : ... .. . ... ... : ... .. . ... ... : --- .. . P7E ...
ROW CA : B-2 00 F ... ... ... : F#2 00 F ... ... ... : F#3 00 . ... : A-# 00 F ... : ... .. . ... ... : G#3 01 7 P80 ... : C#4 01 8 P80 ... : F#2 01 F P80 ...
ROW CB : ... .. E ... ... ... : ... .. E ... ... ... : ... .. . ... : ... .. C ... : ... .. . ... ... : ... .. 6 ... ... : ... .. 7 ... ... : ... .. D ... ...
ROW CC : ... .. D ... ... ... : ... .. D ... ... ... : ... .. . ... : ... .. 6 ... : ... .. . ... ... : ... .. . ... ... : ... .. 6 ... ... : ... .. 8 ... ...
ROW CD : ... .. A ... ... ... : ... .. A ... ... ... : ... .. . ... : ... .. 3 ... : ... .. . ... ... : ... .. . ... ... : ... .. 5 ... ... : ... .. . ... ...
ROW CE : ... .. . ... ... ... : ... .. . ... ... ... : ... .. . ... : ... .. 2 ... : ... .. . ... ... : ... .. 5 ... ... : ... .. . ... ... : ... .. . ... ...
ROW CF : ... .. . ... ... ... : ... .. . ... ... ... : --- .. . ... : ... .. 0 ... : ... .. . ... ... : ... .. . ... ... : ... .. 4 ... ... : --- .. . P84 ...
ROW D0 : C#3 00 F ... ... ... : G#2 00 F ... ... ... : G#3 00 . ... : 5-# 00 F ... : ... .. . ... ... : A#3 01 7 ... ... : D#4 01 8 ... ... : G#2 01 F P80 ...
ROW D1 : ... .. E ... ... ... : ... .. E ... ... ... : ... .. . ... : ... .. C ... : ... .. . ... ... : ... .. 6 ... ... : ... .. 7 ... ... : ... .. D ... ...
ROW D2 : ... .. D ... ... ... : ... .. D ... ... ... : ... .. . ... : ... .. 6 ... : ... .. . ... ... : ... .. . ... ... : ... .. 6 ... ... : ... .. 8 ... ...
ROW D3 : ... .. A ... ... ... : ... .. A ... ... ... : ... .. . ... : ... .. 3 ... : ... .. . ... ... : ... .. . ... ... : ... .. 5 ... ... : ... .. . ... ...
ROW D4 : ... .. 2 ... ... ... : ... .. 2 ... ... ... : ... .. . ... : ... .. 2 ... : ... .. . ... ... : ... .. 5 ... ... : ... .. . ... ... : ... .. . ... ...
ROW D5 : ... .. . ... ... ... : ... .. . ... ... ... : --- .. . ... : ... .. 0 ... : ... .. . ... ... : ... .. . ... ... : ... .. 4 ... ... : --- .. . P7F ...
ROW D6 : G#2 00 F ... ... ... : D#2 00 F ... ... ... : B-3 00 . ... : 3-# 00 F ... : ... .. . ... ... : C#4 01 7 ... ... : F#4 01 8 ... ... : B-2 01 F P80 ...
ROW D7 : ... .. E ... ... ... : ... .. E ... ... ... : ... .. . ... : ... .. C ... : ... .. . ... ... : ... .. 6 ... ... : ... .. 7 ... ... : ... .. D ... ...
ROW D8 : ... .. D ... ... ... : ... .. D ... ... ... : ... .. . ... : ... .. 6 ... : ... .. . ... ... : ... .. . ... ... : ... .. 6 ... ... : ... .. 8 ... ...
ROW D9 : ... .. A ... ... ... : ... .. A ... ... ... : ... .. . ... : ... .. 3 ... : ... .. . ... ... : ... .. . ... ... : ... .. 5 ... ... : ... .. . ... ...
ROW DA : ... .. 2 ... ... ... : ... .. 2 ... ... ... : ... .. . ... : ... .. 2 ... : ... .. . ... ... : ... .. 5 ... ... : ... .. . ... ... : ... .. . ... ...
ROW DB : ... .. . ... ... ... : ... .. . ... ... ... : --- .. . ... : ... .. 0 ... : ... .. . ... ... : ... .. . ... ... : ... .. 4 ... ... : --- .. . P8B ...
ROW DC : B-2 00 F ... ... ... : F#2 00 F ... ... ... : G-5 00 . ... : 8-# 00 F ... : ... .. . ... ... : F#3 01 7 ... ... : B-3 01 8 ... ... : G#2 01 F P80 ...
ROW DD : ... .. E ... ... ... : ... .. E ... ... ... : A-4 00 . ... : ... .. C ... : ... .. . ... ... : ... .. 6 ... ... : ... .. 7 ... ... : ... .. D ... ...
ROW DE : ... .. D ... ... ... : ... .. D ... ... ... : D-4 00 . ... : ... .. 6 ... : ... .. . ... ... : ... .. . ... ... : ... .. 6 ... ... : ... .. 8 ... ...
ROW DF : ... .. A ... ... ... : ... .. A ... ... ... : C#4 00 . ... : ... .. 3 ... : ... .. . ... ... : ... .. . ... ... : ... .. 5 ... ... : ... .. . ... ...
ROW E0 : ... .. . ... ... ... : ... .. . ... ... ... : G#3 00 . ... : ... .. 2 ... : ... .. . ... ... : ... .. 5 ... ... : ... .. . ... ... : ... .. . ... ...
ROW E1 : ... .. . ... ... ... : ... .. . ... ... ... : --- .. . ... : ... .. 0 ... : ... .. . ... ... : ... .. . ... ... : ... .. 4 ... ... : --- .. . P7F ...
ROW E2 : F#2 00 F ... ... ... : C#2 00 F ... ... ... : F#3 00 . ... : 7-# 00 F ... : ... .. . ... ... : G#3 01 7 ... ... : C#4 01 8 ... ... : F#2 01 F P80 ...
ROW E3 : ... .. E ... ... ... : ... .. E ... ... ... : ... .. . ... : ... .. C ... : ... .. . ... ... : ... .. 6 ... ... : ... .. 7 ... ... : ... .. D ... ...
ROW E4 : ... .. D ... ... ... : ... .. D ... ... ... : ... .. . ... : ... .. 6 ... : ... .. . ... ... : ... .. . ... ... : ... .. 6 ... ... : ... .. 8 ... ...
ROW E5 : ... .. A ... ... ... : ... .. A ... ... ... : ... .. . ... : ... .. 3 ... : ... .. . ... ... : ... .. . ... ... : ... .. 5 ... ... : ... .. . ... ...
ROW E6 : ... .. 2 ... ... ... : ... .. 2 ... ... ... : ... .. . ... : ... .. 2 ... : ... .. . ... ... : ... .. 5 ... ... : ... .. . ... ... : ... .. . ... ...
ROW E7 : ... .. . ... ... ... : ... .. . ... ... ... : --- .. . ... : ... .. 0 ... : ... .. . ... ... : ... .. . ... ... : ... .. 4 ... ... : --- .. . P84 ...
ROW E8 : ... .. F ... ... ... : ... .. F ... ... ... : D#3 00 . ... : 6-# 00 F ... : ... .. . ... ... : C#3 01 7 ... ... : F#3 01 8 ... ... : D#2 01 F P80 ...
ROW E9 : ... .. E ... ... ... : ... .. E ... ... ... : ... .. . ... : ... .. C ... : ... .. . ... ... : ... .. 6 ... ... : ... .. 7 ... ... : ... .. D ... ...
ROW EA : ... .. D ... ... ... : ... .. D ... ... ... : ... .. . ... : ... .. 6 ... : ... .. . ... ... : ... .. . ... ... : ... .. 6 ... ... : ... .. 8 ... ...
ROW EB : ... .. A ... ... ... : ... .. A ... ... ... : ... .. . ... : ... .. 3 ... : ... .. . ... ... : ... .. . ... ... : ... .. 5 ... ... : ... .. . ... ...
ROW EC : ... .. 2 ... ... ... : ... .. 2 ... ... ... : ... .. . ... : ... .. 2 ... : ... .. . ... ... : ... .. 5 ... ... : ... .. . ... ... : ... .. . ... ...
ROW ED : ... .. . ... ... ... : ... .. . ... ... ... : --- .. . ... : ... .. 0 ... : ... .. . ... ... : ... .. . ... ... : ... .. 4 ... ... : --- .. . ... ...
ROW EE : B-2 00 F ... ... ... : F#2 00 F ... ... ... : C#3 00 . ... : 5-# 00 F ... : ... .. . ... ... : G#2 01 7 ... ... : C#3 01 8 ... ... : C#2 01 F ... ...
ROW EF : ... .. E ... ... ... : ... .. E ... ... ... : ... .. . ... : ... .. C ... : ... .. . ... ... : ... .. 6 ... ... : ... .. 7 ... ... : ... .. D ... ...
ROW F0 : ... .. D ... ... ... : ... .. D ... ... ... : ... .. . ... : ... .. 6 ... : ... .. . ... ... : ... .. . ... ... : ... .. 6 ... ... : ... .. 8 ... ...
ROW F1 : ... .. A ... ... ... : ... .. A ... ... ... : ... .. . ... : ... .. 3 ... : ... .. . ... ... : ... .. . ... ... : ... .. 5 ... ... : ... .. . ... ...
ROW F2 : ... .. . ... ... ... : ... .. . ... ... ... : ... .. . ... : ... .. 2 ... : ... .. . ... ... : ... .. 5 ... ... : ... .. . ... ... : ... .. . ... ...
ROW F3 : ... .. . ... ... ... : ... .. . ... ... ... : --- .. . ... : ... .. 0 ... : ... .. . ... ... : ... .. . ... ... : ... .. 4 ... ... : --- .. . ... ...
ROW F4 : C#3 00 F ... ... ... : G#2 00 F ... ... ... : B-2 00 . ... : 4-# 00 F ... : ... .. . ... ... : A#2 01 7 ... ... : D#3 01 8 ... ... : B-1 01 F ... ...
ROW F5 : ... .. E ... ... ... : ... .. E ... ... ... : ... .. . ... : ... .. C ... : ... .. . ... ... : ... .. 6 ... ... : ... .. 7 ... ... : ... .. D ... ...
ROW F6 : ... .. D ... ... ... : ... .. D ... ... ... : ... .. . ... : ... .. 6 ... : ... .. . ... ... : ... .. . ... ... : ... .. 6 ... ... : ... .. 8 ... ...
ROW F7 : ... .. A ... ... ... : ... .. A ... ... ... : ... .. . ... : ... .. 3 ... : ... .. . ... ... : ... .. . ... ... : ... .. 5 ... ... : ... .. . ... ...
ROW F8 : ... .. 2 ... ... ... : ... .. 2 ... ... ... : ... .. . ... : ... .. 2 ... : ... .. . ... ... : ... .. 5 ... ... : ... .. . ... ... : ... .. . ... ...
ROW F9 : ... .. . ... ... ... : ... .. . ... ... ... : --- .. . ... : ... .. 0 ... : ... .. . ... ... : ... .. . ... ... : ... .. 4 ... ... : --- .. . P86 ...
ROW FA : F#2 00 F ... ... ... : C#2 00 F ... ... ... : C#3 00 . ... : 3-# 00 F ... : ... .. . ... ... : D#2 01 7 ... ... : G#2 01 8 ... ... : C#2 01 F P80 ...
ROW FB : ... .. E ... ... ... : ... .. E ... ... ... : ... .. . ... : ... .. C ... : ... .. . ... ... : ... .. 6 ... ... : ... .. 7 ... ... : ... .. D ... ...
ROW FC : ... .. D ... ... ... : ... .. D ... ... ... : ... .. . ... : ... .. 6 ... : ... .. . ... ... : ... .. . ... ... : ... .. 6 ... ... : ... .. 8 ... ...
ROW FD : ... .. A ... ... ... : ... .. A ... ... ... : ... .. . ... : ... .. 3 ... : ... .. . ... ... : ... .. . ... ... : ... .. 5 ... ... : ... .. . ... ...
ROW FE : ... .. 2 ... ... ... : ... .. 2 ... ... ... : ... .. . ... : ... .. 2 ... : ... .. . ... ... : ... .. 5 ... ... : ... .. . ... ... : ... .. . ... ...
ROW FF : ... .. . ... ... ... : ... .. . ... ... ... : --- .. . ... : ... .. 0 ... : ... .. . ... ... : ... .. . ... ... : ... .. 4 ... ... : --- .. . ... ...

PATTERN 09
ROW 00 : G#1 00 F ... ... ... : D#1 00 F ... ... ... : G-4 00 . ... : 1-# 00 F ... : ... .. . ... ... : D#5 01 7 ... ... : G#5 01 8 ... ... : G#1 01 F ... ...
ROW 01 : ... .. E ... ... ... : ... .. E ... ... ... : A-3 00 . ... : ... .. C ... : ... .. . ... ... : ... .. 6 ... ... : ... .. 7 ... ... : ... .. D ... ...
ROW 02 : ... .. D ... ... ... : ... .. D ... ... ... : D-3 00 . ... : ... .. 6 ... : ... .. . ... ... : ... .. . ... ... : ... .. 6 ... ... : ... .. 8 ... ...
ROW 03 : ... .. A ... ... ... : ... .. A ... ... ... : C#3 00 . ... : ... .. 3 ... : ... .. . ... ... : ... .. . ... ... : ... .. 5 ... ... : ... .. . ... ...
ROW 04 : ... .. 2 ... ... ... : ... .. 2 ... ... ... : G#2 00 . ... : ... .. 2 ... : ... .. . ... ... : ... .. 5 ... ... : ... .. . ... ... : ... .. . ... ...
ROW 05 : ... .. . ... ... ... : ... .. . ... ... ... : --- .. . ... : ... .. 0 ... : ... .. . ... ... : ... .. . ... ... : ... .. 4 ... ... : --- .. . P7E ...
ROW 06 : ... .. F ... ... ... : ... .. F ... ... ... : G#2 00 . ... : D-# 00 F ... : ... .. . ... ... : D#3 01 7 ... ... : G#3 01 8 ... ... : G#1 01 F P80 ...
ROW 07 : ... .. E ... ... ... : ... .. E ... ... ... : ... .. . ... : ... .. C ... : ... .. . ... ... : ... .. 6 ... ... : ... .. 7 ... ... : ... .. D ... ...
ROW 08 : ... .. D ... ... ... : ... .. D ... ... ... : ... .. . ... : ... .. 6 ... : ... .. . ... ... : ... .. . ... ... : ... .. 6 ... ... : ... .. 8 ... ...
ROW 09 : ... .. A ... ... ... : ... .. A ... ... ... : ... .. . ... : ... .. 3 ... : ... .. . ... ... : ... .. . ... ... : ... .. 5 ... ... : ... .. . ... ...
ROW 0A : ... .. 2 ... ... ... : ... .. 2 ... ... ... : ... .. . ... : ... .. 2 ... : ... .. . ... ... : ... .. 5 ... ... : ... .. . ... ... : ... .. . ... ...
ROW 0B : ... .. . ... ... ... : ... .. . ... ... ... : --- .. . ... : ... .. 0 ... : ... .. . ... ... : ... .. . ... ... : ... .. 4 ... ... : --- .. . P7E ...
ROW 0C : ... .. F ... ... ... : ... .. F ... ... ... : G#2 00 . ... : ... .. F ... : ... .. . ... ... : D#4 01 7 ... ... : G#4 01 8 ... ... : G#1 01 F P80 ...
ROW 0D : ... .. E ... ... ... : ... .. E ... ... ... : ... .. . ... : ... .. C ... : ... .. . ... ... : ... .. 6 ... ... : ... .. 7 ... ... : ... .. D ... ...
ROW 0E : ... .. D ... ... ... : ... .. D ... ... ... : ... .. . ... : ... .. 6 ... : ... .. . ... ... : ... .. . ... ... : ... .. 6 ... ... : ... .. 8 ... ...
ROW 0F : ... .. A ... ... ... : ... .. A ... ... ... : ... .. . ... : ... .. 3 ... : ... .. . ... ... : ... .. . ... ... : ... .. 5 ... ... : ... .. . ... ...
ROW 10 : ... .. 2 ... ... ... : ... .. 2 ... ... ... : ... .. . ... : ... .. 2 ... : ... .. . ... ... : ... .. 5 ... ... : ... .. . ... ... : ... .. . ... ...
ROW 11 : ... .. . ... ... ... : ... .. . ... ... ... : --- .. . ... : ... .. 0 ... : ... .. . ... ... : ... .. . ... ... : ... .. 4 ... ... : --- .. . P7E ...
ROW 12 : B-3 00 F ... ... ... : F#3 00 F ... ... ... : B-2 00 . ... : 6-# 00 F ... : ... .. . ... ... : C#4 01 7 ... ... : F#4 01 8 ... ... : B-1 01 F P80 ...
ROW 13 : ... .. E ... ... ... : ... .. E ... ... ... : ... .. . ... : ... .. C ... : ... .. . ... ... : ... .. 6 ... ... : ... .. 7 ... ... : ... .. D ... ...
ROW 14 : ... .. D ... ... ... : ... .. D ... ... ... : ... .. . ... : ... .. 6 ... : ... .. . ... ... : ... .. . ... ... : ... .. 6 ... ... : ... .. 8 ... ...
ROW 15 : ... .. A ... ... ... : ... .. A ... ... ... : ... .. . ... : ... .. 3 ... : ... .. . ... ... : ... .. . ... ... : ... .. 5 ... ... : ... .. . ... ...
ROW 16 : ... .. . ... ... ... : ... .. . ... ... ... : ... .. . ... : ... .. 2 ... : ... .. . ... ... : ... .. 5 ... ... : ... .. . ... ... : ... .. . ... ...
ROW 17 : ... .. . ... ... ... : ... .. . ... ... ... : --- .. . ... : ... .. 0 ... : ... .. . ... ... : ... .. . ... ... : ... .. 4 ... ... : --- .. . P86 ...
ROW 18 : A#3 00 F ... ... ... : F-3 00 F ... ... ... : F#2 00 . ... : D-# 00 F ... : ... .. . ... ... : D#2 01 7 ... ... : G#2 01 8 ... ... : F#1 01 F P80 ...
ROW 19 : ... .. E ... ... ... : ... .. E ... ... ... : ... .. . ... : ... .. C ... : ... .. . ... ... : ... .. 6 ... ... : ... .. 7 ... ... : ... .. D ... ...
ROW 1A : ... .. D ... ... ... : ... .. D ... ... ... : ... .. . ... : ... .. 6 ... : ... .. . ... ... : ... .. . ... ... : ... .. 6 ... ... : ... .. 8 ... ...
ROW 1B : ... .. A ... ... ... : ... .. A ... ... ... : ... .. . ... : ... .. 3 ... : ... .. . ... ... : ... .. . ... ... : ... .. 5 ... ... : ... .. . ... ...
ROW 1C : ... .. 2 ... ... ... : ... .. 2 ... ... ... : ... .. . ... : ... .. 2 ... : ... .. . ... ... : ... .. 5 ... ... : ... .. . ... ... : ... .. . ... ...
ROW 1D : ... .. . ... ... ... : ... .. . ... ... ... : --- .. . ... : ... .. 0 ... : ... .. . ... ... : ... .. . ... ... : ... .. 4 ... ... : --- .. . P81 ...
ROW 1E : F#2 00 F ... ... ... : C#2 00 F ... ... ... : G#2 00 . ... : ... .. F ... : ... .. . ... ... : C#3 01 7 ... ... : F#3 01 8 ... ... : G#1 01 F P80 ...
ROW 1F : ... .. E ... ... ... : ... .. E ... ... ... : ... .. . ... : ... .. C ... : ... .. . ... ... : ... .. 6 ... ... : ... .. 7 ... ... : ... .. D ... ...
ROW 20 : ... .. D ... ... ... : ... .. D ... ... ... : ... .. . ... : ... .. 6 ... : ... .. . ... ... : ... .. . ... ... : ... .. 6 ... ... : ... .. 8 ... ...
ROW 21 : ... .. A ... ... ... : ... .. A ... ... ... : ... .. . ... : ... .. 3 ... : ... .. . ... ... : ... .. . ... ... : ... .. 5 ... ... : ... .. . ... ...
ROW 22 : ... .. 2 ... ... ... : ... .. 2 ... ... ... : ... .. . ... : ... .. 2 ... : ... .. . ... ... : ... .. 5 ... ... : ... .. . ... ... : ... .. . ... ...
ROW 23 : ... .. . ... ... ... : ... .. . ... ... ... : --- .. . ... : ... .. 0 ... : ... .. . ... ... : ... .. . ... ... : ... .. 4 ... ... : --- .. . P7E ...
ROW 24 : G#1 00 F ... ... ... : D#1 00 F ... ... ... : G-4 00 . ... : 1-# 00 F ... : ... .. . ... ... : F#3 01 7 ... ... : B-3 01 8 ... ... : G#1 01 F P80 ...
ROW 25 : ... .. E ... ... ... : ... .. E ... ... ... : A-3 00 . ... : ... .. C ... : ... .. . ... ... : ... .. 6 ... ... : ... .. 7 ... ... : ... .. D ... ...
ROW 26 : ... .. D ... ... ... : ... .. D ... ... ... : D-3 00 . ... : ... .. 6 ... : ... .. . ... ... : ... .. . ... ... : ... .. 6 ... ... : ... .. 8 ... ...
ROW 27 : ... .. A ... ... ... : ... .. A ... ... ... : C#3 00 . ... : ... .. 3 ... : ... .. . ... ... : ... .. . ... ... : ... .. 5 ... ... : ... .. . ... ...
ROW 28 : ... .. 2 ... ... ... : ... .. 2 ... ... ... : G#2 00 . ... : ... .. 2 ... : ... .. . ... ... : ... .. 5 ... ... : ... .. . ... ... : ... .. . ... ...
ROW 29 : ... .. . ... ... ... : ... .. . ... ... ... : --- .. . ... : ... .. 0 ... : ... .. . ... ... : ... .. . ... ... : ... .. 4 ... ... : --- .. . P7E ...
ROW 2A : ... .. F ... ... ... : ... .. F ... ... ... : G#2 00 . ... : D-# 00 F ... : ... .. . ... ... : G#3 01 7 ... ... : C#4 01 8 ... ... : G#1 01 F P80 ...
ROW 2B : ... .. E ... ... ... : ... .. E ... ... ... : ... .. . ... : ... .. C ... : ... .. . ... ... : ... .. 6 ... ... : ... .. 7 ... ... : ... .. D ... ...
ROW 2C : ... .. D ... ... ... : ... .. D ... ... ... : ... .. . ... : ... .. 6 ... : ... .. . ... ... : ... .. . ... ... : ... .. 6 ... ... : ... .. 8 ... ...
ROW 2D : ... .. A ... ... ... : ... .. A ... ... ... : ... .. . ... : ... .. 3 ... : ... .. . ... ... : ... .. . ... ... : ... .. 5 ... ... : ... .. . ... ...
ROW 2E : ... .. 2 ... ... ... : ... .. 2 ... ... ... : ... .. . ... : ... .. 2 ... : ... .. . ... ... : ... .. 5 ... ... : ... .. . ... ... : ... .. . ... ...
ROW 2F : ... .. . ... ... ... : ... .. . ... ... ... : --- .. . ... : ... .. 0 ... : ... .. . ... ... : ... .. . ... ... : ... .. 4 ... ... : --- .. . P7E ...
ROW 30 : ... .. F ... ... ... : ... .. F ... ... ... : G#2 00 . ... : ... .. F ... : ... .. . ... ... : F#2 01 7 ... ... : B-2 01 8 ... ... : G#1 01 F P80 ...
ROW 31 : ... .. E ... ... ... : ... .. E ... ... ... : ... .. . ... : ... .. C ... : ... .. . ... ... : ... .. 6 ... ... : ... .. 7 ... ... : ... .. D ... ...
ROW 32 : ... .. D ... ... ... : ... .. D ... ... ... : ... .. . ... : ... .. 6 ... : ... .. . ... ... : ... .. . ... ... : ... .. 6 ... ... : ... .. 8 ... ...
ROW 33 : ... .. A ... ... ... : ... .. A ... ... ... : ... .. . ... : ... .. 3 ... : ... .. . ... ... : ... .. . ... ... : ... .. 5 ... ... : ... .. . ... ...
ROW 34 : ... .. 2 ... ... ... : ... .. 2 ... ... ... : ... .. . ... : ... .. 2 ... : ... .. . ... ... : ... .. 5 ... ... : ... .. . ... ... : ... .. . ... ...
ROW 35 : ... .. . ... ... ... : ... .. . ... ... ... : --- .. . ... : ... .. 0 ... : ... .. . ... ... : ... .. . ... ... : ... .. 4 ... ... : --- .. . P7E ...
ROW 36 : F#3 00 F ... ... ... : C#3 00 F ... ... ... : C#3 00 . ... : 6-# 00 F ... : ... .. . ... ... : G#3 01 7 ... ... : C#4 01 8 ... ... : C#2 01 F P80 ...
ROW 37 : ... .. E ... ... ... : ... .. E ... ... ... : ... .. . ... : ... .. C ... : ... .. . ... ... : ... .. 6 ... ... : ... .. 7 ... ... : ... .. D ... ...
ROW 38 : ... .. D ... ... ... : ... .. D ... ... ... : ... .. . ... : ... .. 6 ... : ... .. . ... ... : ... .. . ... ... : ... .. 6 ... ... : ... .. 8 ... ...
ROW 39 : ... .. A ... ... ... : ... .. A ... ... ... : ... .. . ... : ... .. 3 ... : ... .. . ... ... : ... .. . ... ... : ... .. 5 ... ... : ... .. . ... ...
ROW 3A : ... .. . ... ... ... : ... .. . ... ... ... : ... .. . ... : ... .. 2 ... : ... .. . ... ... : ... .. 5 ... ... : ... .. . ... ... : ... .. . ... ...
ROW 3B : ... .. . ... ... ... : ... .. . ... ... ... : --- .. . ... : ... .. 0 ... : ... .. . ... ... : ... .. . ... ... : ... .. 4 ... ... : --- .. . ... ...
ROW 3C : C#3 00 F ... ... ... : G#2 00 F ... ... ... : B-2 00 . ... : 1-# 00 F ... : ... .. . ... ... : A#3 01 7 ... ... : D#4 01 8 ... ... : B-1 01 F ... ...
ROW 3D : ... .. E ... ... ... : ... .. E ... ... ... : ... .. . ... : ... .. C ... : ... .. . ... ... : ... .. 6 ... ... : ... .. 7 ... ... : ... .. D ... ...
ROW 3E : ... .. D ... ... ... : ... .. D ... ... ... : ... .. . ... : ... .. 6 ... : ... .. . ... ... : ... .. . ... ... : ... .. 6 ... ... : ... .. 8 ... ...
ROW 3F : ... .. A ... ... ... : ... .. A ... ... ... : ... .. . ... : ... .. 3 ... : ... .. . ... ... : ... .. . ... ... : ... .. 5 ... ... : ... .. . ... ...
ROW 40 : ... .. 2 ... ... ... : ... .. 2 ... ... ... : ... .. . ... : ... .. 2 ... : ... .. . ... ... : ... .. 5 ... ... : ... .. . ... ... : ... .. . ... ...
ROW 41 : ... .. . ... ... ... : ... .. . ... ... ... : --- .. . ... : ... .. 0 ... : ... .. . ... ... : ... .. . ... ... : ... .. 4 ... ... : --- .. . P86 ...
ROW 42 : F#1 00 F ... ... ... : C#1 00 F ... ... ... : F#2 00 . ... : 6-# 00 F ... : ... .. . ... ... : D#4 01 7 ... ... : G#4 01 8 ... ... : F#1 01 F P80 ...
ROW 43 : ... .. E ... ... ... : ... .. E ... ... ... : ... .. . ... : ... .. C ... : ... .. . ... ... : ... .. 6 ... ... : ... .. 7 ... ... : ... .. D ... ...
ROW 44 : ... .. D ... ... ... : ... .. D ... ... ... : ... .. . ... : ... .. 6 ... : ... .. . ... ... : ... .. . ... ... : ... .. 6 ... ... : ... .. 8 ... ...
ROW 45 : ... .. A ... ... ... : ... .. A ... ... ... : ... .. . ... : ... .. 3 ... : ... .. . ... ... : ... .. . ... ... : ... .. 5 ... ... : ... .. . ... ...
ROW 46 : ... .. . ... ... ... : ... .. . ... ... ... : ... .. . ... : ... .. 2 ... : ... .. . ... ... : ... .. 5 ... ... : ... .. . ... ... : ... .. . ... ...
ROW 47 : ... .. . ... ... ... : ... .. . ... ... ... : --- .. . ... : ... .. 0 ... : ... .. . ... ... : ... .. . ... ... : ... .. 4 ... ... : --- .. . P81 ...
ROW 48 : G#1 00 F ... ... ... : D#1 00 F ... ... ... : G-4 00 . ... : 1-# 00 F ... : ... .. . ... ... : D#3 01 7 ... ... : G#3 01 8 ... ... : G#1 01 F P80 ...
ROW 49 : ... .. E ... ... ... : ... .. E ... ... ... : A-3 00 . ... : ... .. C ... : ... .. . ... ... : ... .. 6 ... ... : ... .. 7 ... ... : ... .. D ... ...
ROW 4A : ... .. D ... ... ... : ... .. D ... ... ... : D-3 00 . ... : ... .. 6 ... : ... .. . ... ... : ... .. . ... ... : ... .. 6 ... ... : ... .. 8 ... ...
ROW 4B : ... .. A ... ... ... : ... .. A ... ... ... : C#3 00 . ... : ... .. 3 ... : ... .. . ... ... : ... .. . ... ... : ... .. 5 ... ... : ... .. . ... ...
ROW 4C : ... .. 2 ... ... ... : ... .. 2 ... ... ... : G#2 00 . ... : ... .. 2 ... : ... .. . ... ... : ... .. 5 ... ... : ... .. . ... ... : ... .. . ... ...
ROW 4D : ... .. . ... ... ... : ... .. . ... ... ... : --- .. . ... : ... .. 0 ... : ... .. . ... ... : ... .. . ... ... : ... .. 4 ... ... : --- .. . P7E ...
ROW 4E : ... .. F ... ... ... : ... .. F ... ... ... : G#2 00 . ... : D-# 00 F ... : ... .. . ... ... : C#3 01 7 ... ... : F#3 01 8 ... ... : G#1 01 F P80 ...
ROW 4F : ... .. E ... ... ... : ... .. E ... ... ... : ... .. . ... : ... .. C ... : ... .. . ... ... : ... .. 6 ... ... : ... .. 7 ... ... : ... .. D ... ...
ROW 50 : ... .. D ... ... ... : ... .. D ... ... ... : ... .. . ... : ... .. 6 ... : ... .. . ... ... : ... .. . ... ... : ... .. 6 ... ... : ... .. 8 ... ...
ROW 51 : ... .. A ... ... ... : ... .. A ... ... ... : ... .. . ... : ... .. 3 ... : ... .. . ... ... : ... .. . ... ... : ... .. 5 ... ... : ... .. . ... ...
ROW 52 : ... .. 2 ... ... ... : ... .. 2 ... ... ... : ... .. . ... : ... .. 2 ... : ... .. . ... ... : ... .. 5 ... ... : ... .. . ... ... : ... .. . ... ...
ROW 53 : ... .. . ... ... ... : ... .. . ... ... ... : --- .. . ... : ... .. 0 ... : ... .. . ... ... : ... .. . ... ... : ... .. 4 ... ... : --- .. . P7E ...
ROW 54 : ... .. F ... ... ... : ... .. F ... ... ... : G#2 00 . ... : ... .. F ... : ... .. . ... ... : D#3 01 7 ... ... : G#3 01 8 ... ... : G#1 01 F P80 ...
ROW 55 : ... .. E ... ... ... : ... .. E ... ... ... : ... .. . ... : ... .. C ... : ... .. . ... ... : ... .. 6 ... ... : ... .. 7 ... ... : ... .. D ... ...
ROW 56 : ... .. D ... ... ... : ... .. D ... ... ... : ... .. . ... : ... .. 6 ... : ... .. . ... ... : ... .. . ... ... : ... .. 6 ... ... : ... .. 8 ... ...
ROW 57 : ... .. A ... ... ... : ... .. A ... ... ... : ... .. . ... : ... .. 3 ... : ... .. . ... ... : ... .. . ... ... : ... .. 5 ... ... : ... .. . ... ...
ROW 58 : ... .. 2 ... ... ... : ... .. 2 ... ... ... : ... .. . ... : ... .. 2 ... : ... .. . ... ... : ... .. 5 ... ... : ... .. . ... ... : ... .. . ... ...
ROW 59 : ... .. . ... ... ... : ... .. . ... ... ... : --- .. . ... : ... .. 0 ... : ... .. . ... ... : ... .. . ... ... : ... .. 4 ... ... : --- .. . P7E ...
ROW 5A : E-3 00 F ... ... ... : B-2 00 F ... ... ... : E-4 00 . ... : 8-# 00 F ... : ... .. . ... ... : D#4 01 7 ... ... : G#4 01 8 ... ... : E-3 01 F P80 ...
ROW 5B : ... .. E ... ... ... : ... .. E ... ... ... : ... .. . ... : ... .. C ... : ... .. . ... ... : ... .. 6 ... ... : ... .. 7 ... ... : ... .. D ... ...
ROW 5C : ... .. D ... ... ... : ... .. D ... ... ... : ... .. . ... : ... .. 6 ... : ... .. . ... ... : ... .. . ... ... : ... .. 6 ... ... : ... .. 8 ... ...
ROW 5D : ... .. A ... ... ... : ... .. A ... ... ... : ... .. . ... : ... .. 3 ... : ... .. . ... ... : ... .. . ... ... : ... .. 5 ... ... : ... .. . ... ...
ROW 5E : ... .. . ... ... ... : ... .. . ... ... ... : ... .. . ... : ... .. 2 ... : ... .. . ... ... : ... .. 5 ... ... : ... .. . ... ... : ... .. . ... ...
ROW 5F : ... .. . ... ... ... : ... .. . ... ... ... : --- .. . ... : ... .. 0 ... : ... .. . ... ... : ... .. . ... ... : ... .. 4 ... ... : --- .. . P7D ...
ROW 60 : D#3 00 F ... ... ... : A#2 00 F ... ... ... : D#4 00 . ... : 4-# 00 F ... : ... .. . ... ... : D#2 01 7 ... ... : G#2 01 8 ... ... : D#3 01 F P80 ...
ROW 61 : ... .. E ... ... ... : ... .. E ... ... ... : ... .. . ... : ... .. C ... : ... .. . ... ... : ... .. 6 ... ... : ... .. 7 ... ... : ... .. D ... ...
ROW 62 : ... .. D ... ... ... : ... .. D ... ... ... : ... .. . ... : ... .. 6 ... : ... .. . ... ... : ... .. . ... ... : ... .. 6 ... ... : ... .. 8 ... ...
ROW 63 : ... .. A ... ... ... : ... .. A ... ... ... : ... .. . ... : ... .. 3 ... : ... .. . ... ... : ... .. . ... ... : ... .. 5 ... ... : ... .. . ... ...
ROW 64 : ... .. 2 ... ... ... : ... .. 2 ... ... ... : ... .. . ... : ... .. 2 ... : ... .. . ... ... : ... .. 5 ... ... : ... .. . ... ... : ... .. . ... ...
ROW 65 : ... .. . ... ... ... : ... .. . ... ... ... : --- .. . ... : ... .. 0 ... : ... .. . ... ... : ... .. . ... ... : ... .. 4 ... ... : --- .. . P7F ...
ROW 66 : G#1 00 F ... ... ... : D#1 00 F ... ... ... : G#2 00 . ... : 1-# 00 F ... : ... .. . ... ... : C#2 01 7 ... ... : F#2 01 8 ... ... : G#1 01 F P80 ...
ROW 67 : ... .. E ... ... ... : ... .. E ... ... ... : ... .. . ... : ... .. C ... : ... .. . ... ... : ... .. 6 ... ... : ... .. 7 ... ... : ... .. D ... ...
ROW 68 : ... .. D ... ... ... : ... .. D ... ... ... : ... .. . ... : ... .. 6 ... : ... .. . ... ... : ... .. . ... ... : ... .. 6 ... ... : ... .. 8 ... ...
ROW 69 : ... .. A ... ... ... : ... .. A ... ... ... : ... .. . ... : ... .. 3 ... : ... .. . ... ... : ... .. . ... ... : ... .. 5 ... ... : ... .. . ... ...
ROW 6A : ... .. 2 ... ... ... : ... .. 2 ... ... ... : ... .. . ... : ... .. 2 ... : ... .. . ... ... : ... .. 5 ... ... : ... .. . ... ... : ... .. . ... ...
ROW 6B : ... .. . ... ... ... : ... .. . ... ... ... : --- .. . ... : ... .. 0 ... : ... .. . ... ... : ... .. . ... ... : ... .. 4 ... ... : --- .. . P7E ...
ROW 6C : C#3 00 F ... ... ... : G#2 00 F ... ... ... : C-6 00 . ... : 7-# 00 F ... : ... .. . ... ... : C#3 01 7 ... ... : F#3 01 8 ... ... : C#3 01 F P80 ...
ROW 6D : ... .. E ... ... ... : ... .. E ... ... ... : D-5 00 . ... : ... .. C ... : ... .. . ... ... : ... .. 6 ... ... : ... .. 7 ... ... : ... .. D ... ...
ROW 6E : ... .. D ... ... ... : ... .. D ... ... ... : G-4 00 . ... : ... .. 6 ... : ... .. . ... ... : ... .. . ... ... : ... .. 6 ... ... : ... .. 8 ... ...
ROW 6F : ... .. A ... ... ... : ... .. A ... ... ... : F#4 00 . ... : ... .. 3 ... : ... .. . ... ... : ... .. . ... ... : ... .. 5 ... ... : ... .. . ... ...
ROW 70 : ... .. . ... ... ... : ... .. . ... ... ... : C#4 00 . ... : ... .. 2 ... : ... .. . ... ... : ... .. 5 ... ... : ... .. . ... ... : ... .. . ... ...
ROW 71 : ... .. . ... ... ... : ... .. . ... ... ... : --- .. . ... : ... .. 0 ... : ... .. . ... ... : ... .. . ... ... : ... .. 4 ... ... : --- .. . ... ...
ROW 72 : D#3 00 F ... ... ... : A#2 00 F ... ... ... : B-3 00 . ... : 3-# 00 F ... : ... .. . ... ... : D#3 01 7 ... ... : G#3 01 8 ... ... : B-2 01 F ... ...
ROW 73 : ... .. E ... ... ... : ... .. E ... ... ... : ... .. . ... : ... .. C ... : ... .. . ... ... : ... .. 6 ... ... : ... .. 7 ... ... : ... .. D ... ...
ROW 74 : ... .. D ... ... ... : ... .. D ... ... ... : ... .. . ... : ... .. 6 ... : ... .. . ... ... : ... .. . ... ... : ... .. 6 ... ... : ... .. 8 ... ...
ROW 75 : ... .. A ... ... ... : ... .. A ... ... ... : ... .. . ... : ... .. 3 ... : ... .. . ... ... : ... .. . ... ... : ... .. 5 ... ... : ... .. . ... ...
ROW 76 : ... .. 2 ... ... ... : ... .. 2 ... ... ... : ... .. . ... : ... .. 2 ... : ... .. . ... ... : ... .. 5 ... ... : ... .. . ... ... : ... .. . ... ...
ROW 77 : ... .. . ... ... ... : ... .. . ... ... ... : --- .. . ... : ... .. 0 ... : ... .. . ... ... : ... .. . ... ... : ... .. 4 ... ... : --- .. . P8B ...
ROW 78 : B-2 00 F ... ... ... : F#2 00 F ... ... ... : G#2 00 . ... : 1-# 00 F ... : ... .. . ... ... : D#2 01 7 ... ... : G#2 01 8 ... ... : G#1 01 F P80 ...
ROW 79 : ... .. E ... ... ... : ... .. E ... ... ... : ... .. . ... : ... .. C ... : ... .. . ... ... : ... .. 6 ... ... : ... .. 7 ... ... : ... .. D ... ...
ROW 7A : ... .. D ... ... ... : ... .. D ... ... ... : ... .. . ... : ... .. 6 ... : ... .. . ... ... : ... .. . ... ... : ... .. 6 ... ... : ... .. 8 ... ...
ROW 7B : ... .. A ... ... ... : ... .. A ... ... ... : ... .. . ... : ... .. 3 ... : ... .. . ... ... : ... .. . ... ... : ... .. 5 ... ... : ... .. . ... ...
ROW 7C : ... .. 2 ... ... ... : ... .. 2 ... ... ... : ... .. . ... : ... .. 2 ... : ... .. . ... ... : ... .. 5 ... ... : ... .. . ... ... : ... .. . ... ...
ROW 7D : ... .. . ... ... ... : ... .. . ... ... ... : --- .. . ... : ... .. 0 ... : ... .. . ... ... : ... .. . ... ... : ... .. 4 ... ... : --- .. . P7E ...
ROW 7E : C#3 00 F ... ... ... : G#2 00 F ... ... ... : F#3 00 . ... : 6-# 00 F ... : ... .. . ... ... : G#3 01 7 ... ... : C#4 01 8 ... ... : F#2 01 F P80 ...
ROW 7F : ... .. E ... ... ... : ... .. E ... ... ... : ... .. . ... : ... .. C ... : ... .. . ... ... : ... .. 6 ... ... : ... .. 7 ... ... : ... .. D ... ...
ROW 80 : ... .. D ... ... ... : ... .. D ... ... ... : ... .. . ... : ... .. 6 ... : ... .. . ... ... : ... .. . ... ... : ... .. 6 ... ... : ... .. 8 ... ...
ROW 81 : ... .. A ... ... ... : ... .. A ... ... ... : ... .. . ... : ... .. 3 ... : ... .. . ... ... : ... .. . ... ... : ... .. 5 ... ... : ... .. . ... ...
ROW 82 : ... .. . ... ... ... : ... .. . ... ... ... : ... .. . ... : ... .. 2 ... : ... .. . ... ... : ... .. 5 ... ... : ... .. . ... ... : ... .. . ... ...
ROW 83 : ... .. . ... ... ... : ... .. . ... ... ... : --- .. . ... : ... .. 0 ... : ... .. . ... ... : ... .. . ... ... : ... .. 4 ... ... : --- .. . P84 ...
ROW 84 : F#2 00 F ... ... ... : C#2 00 F ... ... ... : G#3 00 . ... : 2-# 00 F ... : ... .. . ... ... : A#3 01 7 ... ... : D#4 01 8 ... ... : G#2 01 F P80 ...
ROW 85 : ... .. E ... ... ... : ... .. E ... ... ... : ... .. . ... : ... .. C ... : ... .. . ... ... : ... .. 6 ... ... : ... .. 7 ... ... : ... .. D ... ...
ROW 86 : ... .. D ... ... ... : ... .. D ... ... ... : ... .. . ... : ... .. 6 ... : ... .. . ... ... : ... .. . ... ... : ... .. 6 ... ... : ... .. 8 ... ...
ROW 87 : ... .. A ... ... ... : ... .. A ... ... ... : ... .. . ... : ... .. 3 ... : ... .. . ... ... : ... .. . ... ... : ... .. 5 ... ... : ... .. . ... ...
ROW 88 : ... .. 2 ... ... ... : ... .. 2 ... ... ... : ... .. . ... : ... .. 2 ... : ... .. . ... ... : ... .. 5 ... ... : ... .. . ... ... : ... .. . ... ...
ROW 89 : ... .. . ... ... ... : ... .. . ... ... ... : --- .. . ... : ... .. 0 ... : ... .. . ... ... : ... .. . ... ... : ... .. 4 ... ... : --- .. . P7F ...
ROW 8A : G#2 00 F ... ... ... : D#2 00 F ... ... ... : B-2 00 . ... : 1-# 00 F ... : ... .. . ... ... : A#4 01 7 ... ... : D#5 01 8 ... ... : B-1 01 F P80 ...
ROW 8B : ... .. E ... ... ... : ... .. E ... ... ... : ... .. . ... : ... .. C ... : ... .. . ... ... : ... .. 6 ... ... : ... .. 7 ... ... : ... .. D ... ...
ROW 8C : ... .. D ... ... ... : ... .. D ... ... ... : ... .. . ... : ... .. 6 ... : ... .. . ... ... : ... .. . ... ... : ... .. 6 ... ... : ... .. 8 ... ...
ROW 8D : ... .. A ... ... ... : ... .. A ... ... ... : ... .. . ... : ... .. 3 ... : ... .. . ... ... : ... .. . ... ... : ... .. 5 ... ... : ... .. . ... ...
ROW 8E : ... .. 2 ... ... ... : ... .. 2 ... ... ... : ... .. . ... : ... .. 2 ... : ... .. . ... ... : ... .. 5 ... ... : ... .. . ... ... : ... .. . ... ...
ROW 8F : ... .. . ... ... ... : ... .. . ... ... ... : --- .. . ... : ... .. 0 ... : ... .. . ... ... : ... .. . ... ... : ... .. 4 ... ... : --- .. . P86 ...
ROW 90 : G#1 00 F ... ... ... : D#1 00 F ... ... ... : G-4 00 . ... : ... .. F ... : ... .. . ... ... : D#2 01 7 ... ... : G#2 01 8 ... ... : G#1 01 F P80 ...
ROW 91 : ... .. E ... ... ... : ... .. E ... ... ... : A-3 00 . ... : ... .. C ... : ... .. . ... ... : ... .. 6 ... ... : ... .. 7 ... ... : ... .. D ... ...
ROW 92 : ... .. D ... ... ... : ... .. D ... ... ... : D-3 00 . ... : ... .. 6 ... : ... .. . ... ... : ... .. . ... ... : ... .. 6 ... ... : ... .. 8 ... ...
ROW 93 : ... .. A ... ... ... : ... .. A ... ... ... : C#3 00 . ... : ... .. 3 ... : ... .. . ... ... : --- .. . P7B ... : --- .. . ... ... : ... .. . ... ...
ROW 94 : ... .. 2 ... ... ... : ... .. 2 ... ... ... : G#2 00 . ... : ... .. 2 ... : ... .. . ... ... : ... .. . ... ... : ... .. . ... ... : ... .. . ... ...
ROW 95 : ... .. . ... ... ... : ... .. . ... ... ... : --- .. . ... : ... .. 0 ... : ... .. . ... ... : ... .. . ... ... : ... .. . ... ... : --- .. . P7E ...
ROW 96 : ... .. F ... ... ... : ... .. F ... ... ... : G#2 00 . ... : ... .. F ... : ... .. . ... ... : D#2 01 7 P80 ... : G#2 01 8 ... ... : G#1 01 F P80 ...
ROW 97 : ... .. E ... ... ... : ... .. E ... ... ... : ... .. . ... : ... .. C ... : ... .. . ... ... : ... .. 6 ... ... : ... .. 7 ... ... : ... .. D ... ...
ROW 98 : ... .. D ... ... ... : ... .. D ... ... ... : ... .. . ... : ... .. 6 ... : ... .. . ... ... : ... .. . ... ... : ... .. 6 ... ... : ... .. 8 ... ...
ROW 99 : ... .. A ... ... ... : ... .. A ... ... ... : ... .. . ... : ... .. 3 ... : ... .. . ... ... : --- .. . P7B ... : --- .. . ... ... : ... .. . ... ...
ROW 9A : ... .. 2 ... ... ... : ... .. 2 ... ... ... : ... .. . ... : ... .. 2 ... : ... .. . ... ... : ... .. . ... ... : ... .. . ... ... : ... .. . ... ...
ROW 9B : ... .. . ... ... ... : ... .. . ... ... ... : --- .. . ... : ... .. 0 ... : ... .. . ... ... : ... .. . ... ... : ... .. . ... ... : --- .. . P7E ...
ROW 9C : ... .. F ... ... ... : ... .. F ... ... ... : G#2 00 . ... : ... .. F ... : ... .. . ... ... : D#2 01 7 P80 ... : G#2 01 8 ... ... : G#1 01 F P80 ...
ROW 9D : ... .. E ... ... ... : ... .. E ... ... ... : ... .. . ... : ... .. C ... : ... .. . ... ... : ... .. 6 ... ... : ... .. 7 ... ... : ... .. D ... ...
ROW 9E : ... .. D ... ... ... : ... .. D ... ... ... : ... .. . ... : ... .. 6 ... : ... .. . ... ... : ... .. . ... ... : ... .. 6 ... ... : ... .. 8 ... ...
ROW 9F : ... .. A ... ... ... : ... .. A ... ... ... : ... .. . ... : ... .. 3 ... : ... .. . ... ... : --- .. . P7B ... : --- .. . ... ... : ... .. . ... ...
ROW A0 : ... .. 2 ... ... ... : ... .. 2 ... ... ... : ... .. . ... : ... .. 2 ... : ... .. . ... ... : ... .. . ... ... : ... .. . ... ... : ... .. . ... ...
ROW A1 : ... .. . ... ... ... : ... .. . ... ... ... : --- .. . ... : ... .. 0 ... : ... .. . ... ... : ... .. . ... ... : ... .. . ... ... : --- .. . P7E ...
ROW A2 : F#4 00 F ... ... ... : C#4 00 F ... ... ... : D#4 00 . ... : B-# 00 F ... : ... .. . ... ... : F#4 01 9 P80 ... : B-4 01 A ... ... : D#3 01 F P80 ...
ROW A3 : ... .. E ... ... ... : ... .. E ... ... ... : ... .. . ... : ... .. . ... : ... .. . ... ... : ... .. 8 ... ... : ... .. 9 ... ... : ... .. D ... ...
ROW A4 : ... .. D ... ... ... : ... .. D ... ... ... : ... .. . ... : ... .. . ... : ... .. . ... ... : ... .. . ... ... : ... .. 8 ... ... : ... .. 8 ... ...
ROW A5 : ... .. A ... ... ... : ... .. A ... ... ... : ... .. . ... : ... .. D ... : ... .. . ... ... : ... .. . ... ... : ... .. 7 ... ... : ... .. . ... ...
ROW A6 : ... .. . ... ... ... : ... .. . ... ... ... : ... .. . ... : ... .. . ... : ... .. . ... ... : ... .. 7 ... ... : ... .. . ... ... : ... .. . ... ...
ROW A7 : ... .. . ... ... ... : ... .. . ... ... ... : ... .. . ... : ... .. . ... : ... .. . ... ... : ... .. . ... ... : ... .. 6 ... ... : ... .. . ... ...
ROW A8 : G-4 00 A P7F ... ... : D-4 00 A P7B ... ... : E-4 00 . P7D : ... .. C ... : ... .. . ... ... : ... .. . ... ... : ... .. . ... ... : ... .. . P87 ...
ROW A9 : ... .. . P81 ... ... : ... .. . P7D ... ... : ... .. . P7F : ... .. . ... : ... .. . ... ... : ... .. 6 ... ... : ... .. 5 ... ... : ... .. . P89 ...
ROW AA : ... .. . P7E ... ... : C#4 00 A P86 ... ... : ... .. . P7C : ... .. . ... : ... .. . ... ... : ... .. . ... ... : ... .. . ... ... : ... .. . P86 ...
ROW AB : F#4 00 A P80 ... ... : ... .. . P80 ... ... : D#4 00 . P80 : ... .. A ... : ... .. . ... ... : ... .. . P83 ... : ... .. . P83 ... : ... .. . P80 ...
ROW AC : F-4 00 A P82 ... ... : C-4 00 A P85 ... ... : D-4 00 . P83 : ... .. . ... : ... .. . ... ... : ... .. . P84 ... : C-5 01 5 P7E ... : ... .. . P79 ...
ROW AD : ... .. . P80 ... ... : ... .. . P83 ... ... : ... .. . P81 : ... .. . ... : ... .. . ... ... : ... .. . P83 ... : B-4 01 5 P83 ... : ... .. . P77 ...
ROW AE : ... .. . P83 ... ... : ... .. . P86 ... ... : ... .. . P84 : ... .. 9 ... : ... .. . ... ... : ... .. . P80 ... : ... .. . P80 ... : ... .. . P7A ...
ROW AF : F#4 00 A P80 ... ... : C#4 00 A P80 ... ... : D#4 00 . P80 : ... .. . ... : ... .. . ... ... : ... .. . P7D ... : ... .. . P7D ... : ... .. . P80 ...
ROW B0 : G-4 00 A P7F ... ... : D-4 00 A P7B ... ... : E-4 00 . P7D : ... .. . ... : ... .. . ... ... : ... .. . P7C ... : A#4 01 5 P83 ... : ... .. . P87 ...
ROW B1 : ... .. . P81 ... ... : ... .. . P7D ... ... : ... .. . P7F : ... .. 8 ... : ... .. . ... ... : ... .. . P7D ... : B-4 01 5 P7D ... : ... .. . P89 ...
ROW B2 : ... .. . P7E ... ... : C#4 00 A P86 ... ... : ... .. . P7C : ... .. . ... : ... .. . ... ... : ... .. . P80 ... : ... .. . P80 ... : ... .. . P86 ...
ROW B3 : F#4 00 A P80 ... ... : ... .. . P80 ... ... : D#4 00 . P80 : ... .. . ... : ... .. . ... ... : ... .. . P83 ... : ... .. . P83 ... : ... .. . P80 ...
ROW B4 : G#1 00 F ... ... ... : D#1 00 F ... ... ... : G-4 00 . ... : 1-# 00 F ... : ... .. . ... ... : D#2 01 7 P80 ... : G#2 01 8 P80 ... : G#1 01 F ... ...
ROW B5 : ... .. E ... ... ... : ... .. E ... ... ... : A-3 00 . ... : ... .. C ... : ... .. . ... ... : ... .. 6 ... ... : ... .. 7 ... ... : ... .. D ... ...
ROW B6 : ... .. D ... ... ... : ... .. D ... ... ... : D-3 00 . ... : ... .. 6 ... : ... .. . ... ... : ... .. . ... ... : ... .. 6 ... ... : ... .. 8 ... ...
ROW B7 : ... .. A ... ... ... : ... .. A ... ... ... : C#3 00 . ... : ... .. 3 ... : ... .. . ... ... : --- .. . P7B ... : --- .. . ... ... : ... .. . ... ...
ROW B8 : ... .. 2 ... ... ... : ... .. 2 ... ... ... : G#2 00 . ... : ... .. 2 ... : ... .. . ... ... : ... .. . ... ... : ... .. . ... ... : ... .. . ... ...
ROW B9 : ... .. . ... ... ... : ... .. . ... ... ... : --- .. . ... : ... .. 0 ... : ... .. . ... ... : ... .. . ... ... : ... .. . ... ... : --- .. . P7E ...
ROW BA : ... .. F ... ... ... : ... .. F ... ... ... : G#2 00 . ... : ... .. F ... : ... .. . ... ... : D#2 01 7 P80 ... : G#2 01 8 ... ... : G#1 01 F P80 ...
ROW BB : ... .. E ... ... ... : ... .. E ... ... ... : ... .. . ... : ... .. C ... : ... .. . ... ... : ... .. 6 ... ... : ... .. 7 ... ... : ... .. D ... ...
ROW BC : ... .. D ... ... ... : ... .. D ... ... ... : ... .. . ... : ... .. 6 ... : ... .. . ... ... : ... .. . ... ... : ... .. 6 ... ... : ... .. 8 ... ...
ROW BD : ... .. A ... ... ... : ... .. A ... ... ... : ... .. . ... : ... .. 3 ... : ... .. . ... ... : --- .. . P7B ... : --- .. . ... ... : ... .. . ... ...
ROW BE : ... .. 2 ... ... ... : ... .. 2 ... ... ... : ... .. . ... : ... .. 2 ... : ... .. . ... ... : ... .. . ... ... : ... .. . ... ... : ... .. . ... ...
ROW BF : ... .. . ... ... ... : ... .. . ... ... ... : --- .. . ... : ... .. 0 ... : ... .. . ... ... : ... .. . ... ... : ... .. . ... ... : --- .. . P7E ...
ROW C0 : ... .. F ... ... ... : ... .. F ... ... ... : G#2 00 . ... : ... .. F ... : ... .. . ... ... : D#2 01 7 P80 ... : G#2 01 8 ... ... : G#1 01 F P80 ...
ROW C1 : ... .. E ... ... ... : ... .. E ... ... ... : ... .. . ... : ... .. C ... : ... .. . ... ... : ... .. 6 ... ... : ... .. 7 ... ... : ... .. D ... ...
ROW C2 : ... .. D ... ... ... : ... .. D ... ... ... : ... .. . ... : ... .. 6 ... : ... .. . ... ... : ... .. . ... ... : ... .. 6 ... ... : ... .. 8 ... ...
ROW C3 : ... .. A ... ... ... : ... .. A ... ... ... : ... .. . ... : ... .. 3 ... : ... .. . ... ... : --- .. . P7B ... : --- .. . ... ... : ... .. . ... ...
ROW C4 : ... .. 2 ... ... ... : ... .. 2 ... ... ... : ... .. . ... : ... .. 2 ... : ... .. . ... ... : ... .. . ... ... : ... .. . ... ... : ... .. . ... ...
ROW C5 : ... .. . ... ... ... : ... .. . ... ... ... : --- .. . ... : ... .. 0 ... : ... .. . ... ... : ... .. . ... ... : ... .. . ... ... : --- .. . P7E ...
ROW C6 : E-4 00 F ... ... ... : B-3 00 F ... ... ... : C#4 00 . ... : B-# 00 F ... : ... .. . ... ... : D#4 01 9 P80 ... : F#4 01 A ... ... : C#3 01 F P80 ...
ROW C7 : ... .. E ... ... ... : ... .. E ... ... ... : ... .. . ... : ... .. . ... : ... .. . ... ... : ... .. 8 ... ... : ... .. 9 ... ... : ... .. D ... ...
ROW C8 : ... .. D ... ... ... : ... .. D ... ... ... : ... .. . ... : ... .. . ... : ... .. . ... ... : ... .. . ... ... : ... .. 8 ... ... : ... .. 8 ... ...
ROW C9 : ... .. A ... ... ... : ... .. A ... ... ... : ... .. . ... : ... .. D ... : ... .. . ... ... : ... .. . ... ... : ... .. 7 ... ... : ... .. . ... ...
ROW CA : ... .. . ... ... ... : ... .. . ... ... ... : ... .. . ... : ... .. . ... : ... .. . ... ... : ... .. 7 ... ... : ... .. . ... ... : ... .. . ... ...
ROW CB : ... .. . ... ... ... : ... .. . ... ... ... : ... .. . ... : ... .. . ... : ... .. . ... ... : ... .. . ... ... : ... .. 6 ... ... : ... .. . ... ...
ROW CC : F-4 00 A P7D ... ... : C-4 00 A P7B ... ... : D-4 00 . P7B : ... .. C ... : ... .. . ... ... : ... .. . ... ... : ... .. . ... ... : ... .. . P87 ...
ROW CD : ... .. . P7F ... ... : ... .. . P7D ... ... : ... .. . P7D : ... .. . ... : ... .. . ... ... : ... .. 6 ... ... : ... .. 5 ... ... : ... .. . P89 ...
ROW CE : ... .. . P7C ... ... : B-3 00 A P86 ... ... : C#4 00 . P86 : ... .. . ... : ... .. . ... ... : ... .. . ... ... : ... .. . ... ... : ... .. . P86 ...
ROW CF : E-4 00 A P80 ... ... : ... .. . P80 ... ... : ... .. . P80 : ... .. A ... : ... .. . ... ... : ... .. . P83 ... : ... .. . P83 ... : ... .. . P80 ...
ROW D0 : D#4 00 A P83 ... ... : A#3 00 A P87 ... ... : C-4 00 . P85 : ... .. . ... : ... .. . ... ... : ... .. . P84 ... : ... .. . P84 ... : ... .. . P79 ...
ROW D1 : ... .. . P81 ... ... : ... .. . P85 ... ... : ... .. . P83 : ... .. . ... : ... .. . ... ... : ... .. . P83 ... : ... .. . P83 ... : ... .. . P77 ...
ROW D2 : ... .. . P84 ... ... : B-3 00 A P7A ... ... : ... .. . P86 : ... .. 9 ... : ... .. . ... ... : ... .. . P80 ... : ... .. . P80 ... : ... .. . P7A ...
ROW D3 : E-4 00 A P80 ... ... : ... .. . P80 ... ... : C#4 00 . P80 : ... .. . ... : ... .. . ... ... : ... .. . P7D ... : ... .. . P7D ... : ... .. . P80 ...
ROW D4 : F-4 00 A P7D ... ... : C-4 00 A P7B ... ... : D-4 00 . P7B : ... .. . ... : ... .. . ... ... : ... .. . P7C ... : ... .. . P7C ... : ... .. . P87 ...
ROW D5 : ... .. . P7F ... ... : ... .. . P7D ... ... : ... .. . P7D : ... .. 8 ... : ... .. . ... ... : ... .. . P7D ... : ... .. . P7D ... : ... .. . P89 ...
ROW D6 : ... .. . P7C ... ... : B-3 00 A P86 ... ... : C#4 00 . P86 : ... .. . ... : ... .. . ... ... : ... .. . P80 ... : ... .. . P80 ... : ... .. . P86 ...
ROW D7 : E-4 00 A P80 ... ... : ... .. . P80 ... ... : ... .. . P80 : ... .. . ... : ... .. . ... ... : ... .. . P83 ... : ... .. . P83 ... : ... .. . P80 ...
ROW D8 : B-2 00 F ... ... ... : F#2 00 F ... ... ... : A#5 00 . ... : 1-# 00 F ... : ... .. . ... ... : D#3 01 7 P80 ... : G#3 01 8 P80 ... : B-2 01 F ... ...
ROW D9 : ... .. E ... ... ... : ... .. E ... ... ... : C-5 00 . ... : ... .. C ... : ... .. . ... ... : ... .. 6 ... ... : ... .. 7 ... ... : ... .. D ... ...
ROW DA : ... .. D ... ... ... : ... .. D ... ... ... : F-4 00 . ... : ... .. 6 ... : ... .. . ... ... : ... .. . ... ... : ... .. 6 ... ... : ... .. 8 ... ...
ROW DB : ... .. A ... ... ... : ... .. A ... ... ... : E-4 00 . ... : ... .. 3 ... : ... .. . ... ... : --- .. . P83 ... : --- .. . P82 ... : ... .. . ... ...
ROW DC : ... .. 2 ... ... ... : ... .. 2 ... ... ... : B-3 00 . ... : ... .. 2 ... : ... .. . ... ... : ... .. . ... ... : ... .. . ... ... : ... .. . ... ...
ROW DD : ... .. . ... ... ... : ... .. . ... ... ... : --- .. . ... : ... .. 0 ... : ... .. . ... ... : ... .. . ... ... : ... .. . ... ... : --- .. . P8B ...
ROW DE : ... .. F ... ... ... : ... .. F ... ... ... : B-3 00 . ... : ... .. F ... : ... .. . ... ... : D#3 01 7 P80 ... : G#3 01 8 P80 ... : B-2 01 F P80 ...
ROW DF : ... .. E ... ... ... : ... .. E ... ... ... : ... .. . ... : ... .. C ... : ... .. . ... ... : ... .. 6 ... ... : ... .. 7 ... ... : ... .. D ... ...
ROW E0 : ... .. D ... ... ... : ... .. D ... ... ... : ... .. . ... : ... .. 6 ... : ... .. . ... ... : ... .. . ... ... : ... .. 6 ... ... : ... .. 8 ... ...
ROW E1 : ... .. A ... ... ... : ... .. A ... ... ... : ... .. . ... : ... .. 3 ... : ... .. . ... ... : --- .. . P83 ... : --- .. . P82 ... : ... .. . ... ...
ROW E2 : ... .. 2 ... ... ... : ... .. 2 ... ... ... : ... .. . ... : ... .. 2 ... : ... .. . ... ... : ... .. . ... ... : ... .. . ... ... : ... .. . ... ...
ROW E3 : ... .. . ... ... ... : ... .. . ... ... ... : --- .. . ... : ... .. 0 ... : ... .. . ... ... : ... .. . ... ... : ... .. . ... ... : --- .. . P8B ...
ROW E4 : ... .. F ... ... ... : ... .. F ... ... ... : B-3 00 . ... : ... .. F ... : ... .. . ... ... : D#3 01 7 P80 ... : G#3 01 8 P80 ... : B-2 01 F P80 ...
ROW E5 : ... .. E ... ... ... : ... .. E ... ... ... : ... .. . ... : ... .. C ... : ... .. . ... ... : ... .. 6 ... ... : ... .. 7 ... ... : ... .. D ... ...
ROW E6 : ... .. D ... ... ... : ... .. D ... ... ... : ... .. . ... : ... .. 6 ... : ... .. . ... ... : ... .. . ... ... : ... .. 6 ... ... : ... .. 8 ... ...
ROW E7 : ... .. A ... ... ... : ... .. A ... ... ... : ... .. . ... : ... .. 3 ... : ... .. . ... ... : --- .. . P83 ... : --- .. . P82 ... : ... .. . ... ...
ROW E8 : ... .. 2 ... ... ... : ... .. 2 ... ... ... : ... .. . ... : ... .. 2 ... : ... .. . ... ... : ... .. . ... ... : ... .. . ... ... : ... .. . ... ...
ROW E9 : ... .. . ... ... ... : ... .. . ... ... ... : --- .. . ... : ... .. 0 ... : ... .. . ... ... : ... .. . ... ... : ... .. . ... ... : --- .. . P8B ...
ROW EA : F#2 00 F ... ... ... : C#2 00 F ... ... ... : F#3 00 . ... : A-# 00 F ... : ... .. . ... ... : G#3 01 7 P80 ... : C#4 01 8 P80 ... : F#2 01 F P80 ...
ROW EB : ... .. E ... ... ... : ... .. E ... ... ... : ... .. . ... : ... .. C ... : ... .. . ... ... : ... .. 6 ... ... : ... .. 7 ... ... : ... .. D ... ...
ROW EC : ... .. D ... ... ... : ... .. D ... ... ... : ... .. . ... : ... .. 6 ... : ... .. . ... ... : ... .. . ... ... : ... .. 6 ... ... : ... .. 8 ... ...
ROW ED : ... .. A ... ... ... : ... .. A ... ... ... : ... .. . ... : ... .. 3 ... : ... .. . ... ... : ... .. . ... ... : ... .. 5 ... ... : ... .. . ... ...
ROW EE : ... .. 2 ... ... ... : ... .. 2 ... ... ... : ... .. . ... : ... .. 2 ... : ... .. . ... ... : ... .. 5 ... ... : ... .. . ... ... : ... .. . ... ...
ROW EF : ... .. . ... ... ... : ... .. . ... ... ... : --- .. . ... : ... .. 0 ... : ... .. . ... ... : ... .. . ... ... : ... .. 4 ... ... : --- .. . P84 ...
ROW F0 : ... .. F ... ... ... : ... .. F ... ... ... : F#3 00 . ... : 5-# 00 F ... : ... .. . ... ... : A#3 01 7 ... ... : D#4 01 8 ... ... : F#2 01 F P80 ...
ROW F1 : ... .. E ... ... ... : ... .. E ... ... ... : ... .. . ... : ... .. C ... : ... .. . ... ... : ... .. 6 ... ... : ... .. 7 ... ... : ... .. D ... ...
ROW F2 : ... .. D ... ... ... : ... .. D ... ... ... : ... .. . ... : ... .. 6 ... : ... .. . ... ... : ... .. . ... ... : ... .. 6 ... ... : ... .. 8 ... ...
ROW F3 : ... .. A ... ... ... : ... .. A ... ... ... : ... .. . ... : ... .. 3 ... : ... .. . ... ... : ... .. . ... ... : ... .. 5 ... ... : ... .. . ... ...
ROW F4 : ... .. 2 ... ... ... : ... .. 2 ... ... ... : ... .. . ... : ... .. 2 ... : ... .. . ... ... : ... .. 5 ... ... : ... .. . ... ... : ... .. . ... ...
ROW F5 : ... .. . ... ... ... : ... .. . ... ... ... : --- .. . ... : ... .. 0 ... : ... .. . ... ... : ... .. . ... ... : ... .. 4 ... ... : --- .. . P84 ...
ROW F6 : ... .. F ... ... ... : ... .. F ... ... ... : F#3 00 . ... : 3-# 00 F ... : ... .. . ... ... : C#4 01 7 ... ... : F#4 01 8 ... ... : F#2 01 F P80 ...
ROW F7 : ... .. E ... ... ... : ... .. E ... ... ... : ... .. . ... : ... .. C ... : ... .. . ... ... : ... .. 6 ... ... : ... .. 7 ... ... : ... .. D ... ...
ROW F8 : ... .. D ... ... ... : ... .. D ... ... ... : ... .. . ... : ... .. 6 ... : ... .. . ... ... : ... .. . ... ... : ... .. 6 ... ... : ... .. 8 ... ...
ROW F9 : ... .. A ... ... ... : ... .. A ... ... ... : ... .. . ... : ... .. 3 ... : ... .. . ... ... : ... .. . ... ... : ... .. 5 ... ... : ... .. . ... ...
ROW FA : ... .. 2 ... ... ... : ... .. 2 ... ... ... : ... .. . ... : ... .. 2 ... : ... .. . ... ... : ... .. 5 ... ... : ... .. . ... ... : ... .. . ... ...
ROW FB : ... .. . ... ... ... : ... .. . ... ... ... : --- .. . ... : ... .. 0 ... : ... .. . ... ... : ... .. . ... ... : ... .. 4 ... ... : --- .. . P84 ...
ROW FC : C#2 00 F ... ... ... : G#1 00 F ... ... ... : C-5 00 . ... : 8-# 00 F ... : ... .. . ... ... : F#3 01 7 ... ... : B-3 01 8 ... ... : C#2 01 F P80 ...
ROW FD : ... .. E ... ... ... : ... .. E ... ... ... : D-4 00 . ... : ... .. C ... : ... .. . ... ... : ... .. 6 ... ... : ... .. 7 ... ... : ... .. D ... ...
ROW FE : ... .. D ... ... ... : ... .. D ... ... ... : G-3 00 . ... : ... .. 6 ... : ... .. . ... ... : ... .. . ... ... : ... .. 6 ... ... : ... .. 8 ... ...
ROW FF : ... .. A ... ... ... : ... .. A ... ... ... : F#3 00 . ... : ... .. 3 ... : ... .. . ... ... : ... .. . ... ... : ... .. 5 ... ... : ... .. . ... ...

PATTERN 0A
ROW 00 : ... .. 2 ... ... ... : ... .. 2 ... ... ... : C#3 00 . ... : ... .. 2 ... : ... .. . ... ... : ... .. 5 ... ... : ... .. . ... ... : ... .. . ... ...
ROW 01 : ... .. . ... ... ... : ... .. . ... ... ... : --- .. . ... : ... .. 0 ... : ... .. . ... ... : ... .. . ... ... : ... .. 4 ... ... : --- .. . ... ...
ROW 02 : ... .. F ... ... ... : ... .. F ... ... ... : C#3 00 . ... : 7-# 00 F ... : ... .. . ... ... : G#3 01 7 ... ... : C#4 01 8 ... ... : C#2 01 F ... ...
ROW 03 : ... .. E ... ... ... : ... .. E ... ... ... : ... .. . ... : ... .. C ... : ... .. . ... ... : ... .. 6 ... ... : ... .. 7 ... ... : ... .. D ... ...
ROW 04 : ... .. D ... ... ... : ... .. D ... ... ... : ... .. . ... : ... .. 6 ... : ... .. . ... ... : ... .. . ... ... : ... .. 6 ... ... : ... .. 8 ... ...
ROW 05 : ... .. A ... ... ... : ... .. A ... ... ... : ... .. . ... : ... .. 3 ... : ... .. . ... ... : ... .. . ... ... : ... .. 5 ... ... : ... .. . ... ...
ROW 06 : ... .. 2 ... ... ... : ... .. 2 ... ... ... : ... .. . ... : ... .. 2 ... : ... .. . ... ... : ... .. 5 ... ... : ... .. . ... ... : ... .. . ... ...
ROW 07 : ... .. . ... ... ... : ... .. . ... ... ... : --- .. . ... : ... .. 0 ... : ... .. . ... ... : ... .. . ... ... : ... .. 4 ... ... : --- .. . ... ...
ROW 08 : ... .. F ... ... ... : ... .. F ... ... ... : C#3 00 . ... : 6-# 00 F ... : ... .. . ... ... : C#3 01 7 ... ... : F#3 01 8 ... ... : C#2 01 F ... ...
ROW 09 : ... .. E ... ... ... : ... .. E ... ... ... : ... .. . ... : ... .. C ... : ... .. . ... ... : ... .. 6 ... ... : ... .. 7 ... ... : ... .. D ... ...
ROW 0A : ... .. D ... ... ... : ... .. D ... ... ... : ... .. . ... : ... .. 6 ... : ... .. . ... ... : ... .. . ... ... : ... .. 6 ... ... : ... .. 8 ... ...
ROW 0B : ... .. A ... ... ... : ... .. A ... ... ... : ... .. . ... : ... .. 3 ... : ... .. . ... ... : ... .. . ... ... : ... .. 5 ... ... : ... .. . ... ...
ROW 0C : ... .. 2 ... ... ... : ... .. 2 ... ... ... : ... .. . ... : ... .. 2 ... : ... .. . ... ... : ... .. 5 ... ... : ... .. . ... ... : ... .. . ... ...
ROW 0D : ... .. . ... ... ... : ... .. . ... ... ... : --- .. . ... : ... .. 0 ... : ... .. . ... ... : ... .. . ... ... : ... .. 4 ... ... : --- .. . ... ...
ROW 0E : F#1 00 F ... ... ... : C#1 00 F ... ... ... : F#2 00 . ... : 5-# 00 F ... : ... .. . ... ... : G#2 01 7 ... ... : C#3 01 8 ... ... : F#1 01 F ... ...
ROW 0F : ... .. E ... ... ... : ... .. E ... ... ... : ... .. . ... : ... .. C ... : ... .. . ... ... : ... .. 6 ... ... : ... .. 7 ... ... : ... .. D ... ...
ROW 10 : ... .. D ... ... ... : ... .. D ... ... ... : ... .. . ... : ... .. 6 ... : ... .. . ... ... : ... .. . ... ... : ... .. 6 ... ... : ... .. 8 ... ...
ROW 11 : ... .. A ... ... ... : ... .. A ... ... ... : ... .. . ... : ... .. 3 ... : ... .. . ... ... : ... .. . ... ... : ... .. 5 ... ... : ... .. . ... ...
ROW 12 : ... .. 2 ... ... ... : ... .. 2 ... ... ... : ... .. . ... : ... .. 2 ... : ... .. . ... ... : ... .. 5 ... ... : ... .. . ... ... : ... .. . ... ...
ROW 13 : ... .. . ... ... ... : ... .. . ... ... ... : --- .. . ... : ... .. 0 ... : ... .. . ... ... : ... .. . ... ... : ... .. 4 ... ... : --- .. . P81 ...
ROW 14 : ... .. F ... ... ... : ... .. F ... ... ... : F#2 00 . ... : 4-# 00 F ... : ... .. . ... ... : A#2 01 7 ... ... : D#3 01 8 ... ... : F#1 01 F P80 ...
ROW 15 : ... .. E ... ... ... : ... .. E ... ... ... : ... .. . ... : ... .. C ... : ... .. . ... ... : ... .. 6 ... ... : ... .. 7 ... ... : ... .. D ... ...
ROW 16 : ... .. D ... ... ... : ... .. D ... ... ... : ... .. . ... : ... .. 6 ... : ... .. . ... ... : ... .. . ... ... : ... .. 6 ... ... : ... .. 8 ... ...
ROW 17 : ... .. A ... ... ... : ... .. A ... ... ... : ... .. . ... : ... .. 3 ... : ... .. . ... ... : ... .. . ... ... : ... .. 5 ... ... : ... .. . ... ...
ROW 18 : ... .. 2 ... ... ... : ... .. 2 ... ... ... : ... .. . ... : ... .. 2 ... : ... .. . ... ... : ... .. 5 ... ... : ... .. . ... ... : ... .. . ... ...
ROW 19 : ... .. . ... ... ... : ... .. . ... ... ... : --- .. . ... : ... .. 0 ... : ... .. . ... ... : ... .. . ... ... : ... .. 4 ... ... : --- .. . P81 ...
ROW 1A : ... .. F ... ... ... : ... .. F ... ... ... : F#2 00 . ... : 3-# 00 F ... : ... .. . ... ... : D#2 01 7 ... ... : G#2 01 8 ... ... : F#1 01 F P80 ...
ROW 1B : ... .. E ... ... ... : ... .. E ... ... ... : ... .. . ... : ... .. C ... : ... .. . ... ... : ... .. 6 ... ... : ... .. 7 ... ... : ... .. D ... ...
ROW 1C : ... .. D ... ... ... : ... .. D ... ... ... : ... .. . ... : ... .. 6 ... : ... .. . ... ... : ... .. . ... ... : ... .. 6 ... ... : ... .. 8 ... ...
ROW 1D : ... .. A ... ... ... : ... .. A ... ... ... : ... .. . ... : ... .. 3 ... : ... .. . ... ... : ... .. . ... ... : ... .. 5 ... ... : ... .. . ... ...
ROW 1E : ... .. 2 ... ... ... : ... .. 2 ... ... ... : ... .. . ... : ... .. 2 ... : ... .. . ... ... : ... .. 5 ... ... : ... .. . ... ... : ... .. . ... ...
ROW 1F : ... .. . ... ... ... : ... .. . ... ... ... : --- .. . ... : ... .. 0 ... : ... .. . ... ... : ... .. . ... ... : ... .. 4 ... ... : --- .. . P81 ...
ROW 20 : G#3 00 F ... ... ... : G#2 00 F ... ... ... : D#4 00 . ... : 1-# 00 F ... : ... .. . ... ... : B-2 01 8 ... V03 : G#3 01 8 ... ... : E-1 01 F P80 ...
ROW 21 : ... .. E ... ... ... : ... .. E ... ... ... : F-3 00 . ... : ... .. C ... : ... .. . ... ... : ... .. 7 ... ... : ... .. 7 ... ... : ... .. D ... ...
ROW 22 : ... .. D ... ... ... : ... .. D ... ... ... : A#2 00 . ... : ... .. 6 ... : ... .. . ... ... : ... .. 6 ... ... : ... .. 6 ... ... : ... .. 8 ... ...
ROW 23 : ... .. A ... ... ... : ... .. A ... ... ... : A-2 00 . ... : ... .. 3 ... : ... .. . ... ... : ... .. 5 ... ... : ... .. 5 ... ... : ... .. . ... ...
ROW 24 : ... .. . ... ... ... : ... .. 2 ... ... ... : E-2 00 . ... : ... .. 2 ... : ... .. . ... ... : ... .. . ... ... : ... .. . ... ... : ... .. . ... ...
ROW 25 : ... .. . ... ... ... : ... .. . ... ... ... : --- .. . ... : ... .. 0 ... : ... .. . ... ... : ... .. 4 ... ... : ... .. 4 ... ... : --- .. . P82 ...
ROW 26 : D#4 00 F ... ... ... : ... .. F ... ... ... : E-2 00 . ... : D-# 00 F ... : ... .. . ... ... : A#2 01 8 ... V00 : D#3 01 8 ... ... : E-1 01 F P80 ...
ROW 27 : ... .. E ... ... ... : ... .. E ... ... ... : ... .. . ... : ... .. C ... : ... .. . ... ... : ... .. 7 ... ... : ... .. 7 ... ... : ... .. D ... ...
ROW 28 : ... .. D ... ... ... : ... .. D ... ... ... : ... .. . ... : ... .. 6 ... : ... .. . ... ... : ... .. . ... ... : ... .. 6 ... ... : ... .. 8 ... ...
ROW 29 : ... .. A ... ... ... : ... .. A ... ... ... : ... .. . ... : ... .. 3 ... : ... .. . ... ... : ... .. 6 ... ... : ... .. 5 ... ... : ... .. . ... ...
ROW 2A : ... .. . ... ... ... : ... .. 2 ... ... ... : ... .. . ... : ... .. 2 ... : ... .. . ... ... : ... .. 5 ... ... : ... .. . ... ... : ... .. . ... ...
ROW 2B : ... .. . ... ... ... : ... .. . ... ... ... : --- .. . ... : ... .. 0 ... : ... .. . ... ... : ... .. . ... ... : ... .. 4 ... ... : --- .. . P82 ...
ROW 2C : C#4 00 F ... ... ... : ... .. F ... ... ... : E-2 00 . ... : ... .. F ... : ... .. . ... ... : B-2 01 7 ... V05 : B-2 01 8 ... ... : E-1 01 F P80 ...
ROW 2D : ... .. E ... ... ... : ... .. E ... ... ... : ... .. . ... : ... .. C ... : ... .. . ... ... : ... .. 6 ... ... : ... .. 7 ... ... : ... .. D ... ...
ROW 2E : ... .. D ... ... ... : ... .. D ... ... ... : ... .. . ... : ... .. 6 ... : ... .. . ... ... : ... .. . ... ... : ... .. 6 ... ... : ... .. 8 ... ...
ROW 2F : ... .. A ... ... ... : ... .. A ... ... ... : ... .. . ... : ... .. 3 ... : ... .. . ... ... : ... .. 5 ... ... : ... .. 5 ... ... : ... .. . ... ...
ROW 30 : ... .. . ... ... ... : ... .. 2 ... ... ... : ... .. . ... : ... .. 2 ... : ... .. . ... ... : ... .. . ... ... : ... .. . ... ... : ... .. . ... ...
ROW 31 : ... .. . ... ... ... : ... .. . ... ... ... : --- .. . ... : ... .. 0 ... : ... .. . ... ... : ... .. 4 ... ... : ... .. 4 ... ... : --- .. . P82 ...
ROW 32 : ... .. . ... ... ... : B-2 00 F ... ... ... : B-3 00 . ... : 6-# 00 F ... : ... .. . ... ... : C#3 01 7 ... ... : G#3 01 8 ... ... : B-2 01 F P80 ...
ROW 33 : ... .. . ... ... ... : ... .. E ... ... ... : ... .. . ... : ... .. C ... : ... .. . ... ... : ... .. 6 ... ... : ... .. 7 ... ... : ... .. D ... ...
ROW 34 : ... .. . ... ... ... : ... .. D ... ... ... : ... .. . ... : ... .. 6 ... : ... .. . ... ... : ... .. . ... ... : ... .. 6 ... ... : ... .. 8 ... ...
ROW 35 : ... .. . ... ... ... : ... .. A ... ... ... : ... .. . ... : ... .. 3 ... : ... .. . ... ... : ... .. . ... ... : ... .. 5 ... ... : ... .. . ... ...
ROW 36 : ... .. 2 ... ... ... : ... .. . ... ... ... : ... .. . ... : ... .. 2 ... : ... .. . ... ... : ... .. 5 ... ... : ... .. . ... ... : ... .. . ... ...
ROW 37 : ... .. . ... ... ... : ... .. . ... ... ... : --- .. . ... : ... .. 0 ... : ... .. . ... ... : ... .. . ... ... : ... .. 4 ... ... : --- .. . P8B ...
ROW 38 : D#3 00 F ... ... ... : F#2 00 F ... ... ... : A#3 00 . ... : D-# 00 F ... : ... .. . ... ... : B-2 01 7 ... ... : D#3 01 8 ... ... : A#2 01 F P80 ...
ROW 39 : ... .. E ... ... ... : ... .. E ... ... ... : ... .. . ... : ... .. C ... : ... .. . ... ... : ... .. 6 ... ... : ... .. 7 ... ... : ... .. D ... ...
ROW 3A : ... .. D ... ... ... : ... .. D ... ... ... : ... .. . ... : ... .. 6 ... : ... .. . ... ... : ... .. . ... ... : ... .. 6 ... ... : ... .. 8 ... ...
ROW 3B : ... .. A ... ... ... : ... .. A ... ... ... : ... .. . ... : ... .. 3 ... : ... .. . ... ... : ... .. . ... ... : ... .. 5 ... ... : ... .. . ... ...
ROW 3C : ... .. 2 ... ... ... : ... .. 2 ... ... ... : ... .. . ... : ... .. 2 ... : ... .. . ... ... : ... .. 5 ... ... : ... .. . ... ... : ... .. . ... ...
ROW 3D : ... .. . ... ... ... : ... .. . ... ... ... : --- .. . ... : ... .. 0 ... : ... .. . ... ... : ... .. . ... ... : ... .. 4 ... ... : --- .. . ... ...
ROW 3E : F#3 00 F ... ... ... : ... .. F ... ... ... : D#2 00 . ... : ... .. F ... : ... .. . ... ... : C#3 01 8 ... V00 : B-2 01 8 ... ... : D#1 01 F ... ...
ROW 3F : ... .. E ... ... ... : ... .. E ... ... ... : ... .. . ... : ... .. C ... : ... .. . ... ... : ... .. 7 ... ... : ... .. 7 ... ... : ... .. D ... ...
ROW 40 : ... .. D ... ... ... : ... .. D ... ... ... : ... .. . ... : ... .. 6 ... : ... .. . ... ... : ... .. . ... ... : ... .. 6 ... ... : ... .. 8 ... ...
ROW 41 : ... .. A ... ... ... : ... .. A ... ... ... : ... .. . ... : ... .. 3 ... : ... .. . ... ... : ... .. 6 ... ... : ... .. 5 ... ... : ... .. . ... ...
ROW 42 : ... .. 2 ... ... ... : ... .. 2 ... ... ... : ... .. . ... : ... .. 2 ... : ... .. . ... ... : ... .. 5 ... ... : ... .. . ... ... : ... .. . ... ...
ROW 43 : ... .. . ... ... ... : ... .. . ... ... ... : --- .. . ... : ... .. 0 ... : ... .. . ... ... : ... .. . ... ... : ... .. 4 ... ... : --- .. . P81 ...
ROW 44 : G#3 00 F ... ... ... : G#2 00 F ... ... ... : D#4 00 . ... : 1-# 00 F ... : ... .. . ... ... : D#3 01 7 ... V05 : A#3 01 8 ... ... : E-1 01 F P80 ...
ROW 45 : ... .. E ... ... ... : ... .. E ... ... ... : F-3 00 . ... : ... .. C ... : ... .. . ... ... : ... .. 6 ... ... : ... .. 7 ... ... : ... .. D ... ...
ROW 46 : ... .. D ... ... ... : ... .. D ... ... ... : A#2 00 . ... : ... .. 6 ... : ... .. . ... ... : ... .. . ... ... : ... .. 6 ... ... : ... .. 8 ... ...
ROW 47 : ... .. A ... ... ... : ... .. A ... ... ... : A-2 00 . ... : ... .. 3 ... : ... .. . ... ... : ... .. . ... ... : ... .. 5 ... ... : ... .. . ... ...
ROW 48 : ... .. . ... ... ... : ... .. 2 ... ... ... : E-2 00 . ... : ... .. 2 ... : ... .. . ... ... : ... .. 5 ... ... : ... .. . ... ... : ... .. . ... ...
ROW 49 : ... .. . ... ... ... : ... .. . ... ... ... : --- .. . ... : ... .. 0 ... : ... .. . ... ... : ... .. . ... ... : ... .. 4 ... ... : --- .. . P82 ...
ROW 4A : D#4 00 F ... ... ... : ... .. F ... ... ... : E-2 00 . ... : D-# 00 F ... : ... .. . ... ... : C#3 01 7 ... ... : D#3 01 8 ... ... : E-1 01 F P80 ...
ROW 4B : ... .. E ... ... ... : ... .. E ... ... ... : ... .. . ... : ... .. C ... : ... .. . ... ... : ... .. 6 ... ... : ... .. 7 ... ... : ... .. D ... ...
ROW 4C : ... .. D ... ... ... : ... .. D ... ... ... : ... .. . ... : ... .. 6 ... : ... .. . ... ... : ... .. . ... ... : ... .. 6 ... ... : ... .. 8 ... ...
ROW 4D : ... .. A ... ... ... : ... .. A ... ... ... : ... .. . ... : ... .. 3 ... : ... .. . ... ... : ... .. 5 ... ... : ... .. 5 ... ... : ... .. . ... ...
ROW 4E : ... .. . ... ... ... : ... .. 2 ... ... ... : ... .. . ... : ... .. 2 ... : ... .. . ... ... : ... .. . ... ... : ... .. . ... ... : ... .. . ... ...
ROW 4F : ... .. . ... ... ... : ... .. . ... ... ... : --- .. . ... : ... .. 0 ... : ... .. . ... ... : ... .. 4 ... ... : ... .. 4 ... ... : --- .. . P82 ...
ROW 50 : C#4 00 F ... ... ... : ... .. F ... ... ... : E-2 00 . ... : ... .. F ... : ... .. . ... ... : D#3 01 8 ... V03 : G#2 01 8 ... ... : E-1 01 F P80 ...
ROW 51 : ... .. E ... ... ... : ... .. E ... ... ... : ... .. . ... : ... .. C ... : ... .. . ... ... : ... .. 7 ... ... : ... .. 7 ... ... : ... .. D ... ...
ROW 52 : ... .. D ... ... ... : ... .. D ... ... ... : ... .. . ... : ... .. 6 ... : ... .. . ... ... : ... .. 6 ... ... : ... .. 6 ... ... : ... .. 8 ... ...
ROW 53 : ... .. A ... ... ... : ... .. A ... ... ... : ... .. . ... : ... .. 3 ... : ... .. . ... ... : ... .. 5 ... ... : ... .. 5 ... ... : ... .. . ... ...
ROW 54 : ... .. . ... ... ... : ... .. 2 ... ... ... : ... .. . ... : ... .. 2 ... : ... .. . ... ... : ... .. . ... ... : ... .. . ... ... : ... .. . ... ...
ROW 55 : ... .. . ... ... ... : ... .. . ... ... ... : --- .. . ... : ... .. 0 ... : ... .. . ... ... : ... .. 4 ... ... : ... .. 4 ... ... : --- .. . P82 ...
ROW 56 : ... .. . ... ... ... : C#3 00 F ... ... ... : C#4 00 . ... : 6-# 00 F ... : ... .. . ... ... : E-3 01 8 ... V00 : A#3 01 8 ... ... : C#3 01 F P80 ...
ROW 57 : ... .. . ... ... ... : ... .. E ... ... ... : ... .. . ... : ... .. C ... : ... .. . ... ... : ... .. 7 ... ... : ... .. 7 ... ... : ... .. D ... ...
ROW 58 : ... .. . ... ... ... : ... .. D ... ... ... : ... .. . ... : ... .. 6 ... : ... .. . ... ... : ... .. . ... ... : ... .. 6 ... ... : ... .. 8 ... ...
ROW 59 : ... .. . ... ... ... : ... .. A ... ... ... : ... .. . ... : ... .. 3 ... : ... .. . ... ... : ... .. 6 ... ... : ... .. 5 ... ... : ... .. . ... ...
ROW 5A : ... .. 2 ... ... ... : ... .. . ... ... ... : ... .. . ... : ... .. 2 ... : ... .. . ... ... : ... .. 5 ... ... : ... .. . ... ... : ... .. . ... ...
ROW 5B : ... .. . ... ... ... : ... .. . ... ... ... : --- .. . ... : ... .. 0 ... : ... .. . ... ... : ... .. . ... ... : ... .. 4 ... ... : --- .. . ... ...
ROW 5C : D#3 00 F ... ... ... : B-2 00 F ... ... ... : D#4 00 . ... : 1-# 00 F ... : ... .. . ... ... : D#3 01 7 ... V05 : D#3 01 8 ... ... : D#3 01 F ... ...
ROW 5D : ... .. E ... ... ... : ... .. E ... ... ... : ... .. . ... : ... .. C ... : ... .. . ... ... : ... .. 6 ... ... : ... .. 7 ... ... : ... .. D ... ...
ROW 5E : ... .. D ... ... ... : ... .. D ... ... ... : ... .. . ... : ... .. 6 ... : ... .. . ... ... : ... .. . ... ... : ... .. 6 ... ... : ... .. 8 ... ...
ROW 5F : ... .. A ... ... ... : ... .. A ... ... ... : ... .. . ... : ... .. 3 ... : ... .. . ... ... : ... .. . ... ... : ... .. 5 ... ... : ... .. . ... ...
ROW 60 : ... .. 2 ... ... ... : ... .. . ... ... ... : ... .. . ... : ... .. 2 ... : ... .. . ... ... : ... .. 5 ... ... : ... .. . ... ... : ... .. . ... ...
ROW 61 : ... .. . ... ... ... : ... .. . ... ... ... : --- .. . ... : ... .. 0 ... : ... .. . ... ... : ... .. . ... ... : ... .. 4 ... ... : --- .. . P7F ...
ROW 62 : F#3 00 F ... ... ... : F#2 00 F ... ... ... : E-2 00 . ... : 6-# 00 F ... : ... .. . ... ... : E-3 01 7 ... ... : G#2 01 8 ... ... : E-1 01 F P80 ...
ROW 63 : ... .. E ... ... ... : ... .. E ... ... ... : ... .. . ... : ... .. C ... : ... .. . ... ... : ... .. 6 ... ... : ... .. 7 ... ... : ... .. D ... ...
ROW 64 : ... .. D ... ... ... : ... .. D ... ... ... : ... .. . ... : ... .. 6 ... : ... .. . ... ... : ... .. . ... ... : ... .. 6 ... ... : ... .. 8 ... ...
ROW 65 : ... .. A ... ... ... : ... .. A ... ... ... : ... .. . ... : ... .. 3 ... : ... .. . ... ... : ... .. 5 ... ... : ... .. 5 ... ... : ... .. . ... ...
ROW 66 : ... .. 2 ... ... ... : ... .. 2 ... ... ... : ... .. . ... : ... .. 2 ... : ... .. . ... ... : ... .. . ... ... : ... .. . ... ... : ... .. . ... ...
ROW 67 : ... .. . ... ... ... : ... .. . ... ... ... : --- .. . ... : ... .. 0 ... : ... .. . ... ... : ... .. 4 ... ... : ... .. 4 ... ... : --- .. . P82 ...
ROW 68 : G#3 00 F ... ... ... : G#2 00 F ... ... ... : D#5 00 . ... : 1-# 00 F ... : ... .. . ... ... : F#3 01 7 ... ... : B-3 01 8 ... ... : E-2 01 F P80 ...
ROW 69 : ... .. E ... ... ... : ... .. E ... ... ... : F-4 00 . ... : ... .. C ... : ... .. . ... ... : ... .. 6 ... ... : ... .. 7 ... ... : ... .. D ... ...
ROW 6A : ... .. D ... ... ... : ... .. D ... ... ... : A#3 00 . ... : ... .. 6 ... : ... .. . ... ... : ... .. . ... ... : ... .. 6 ... ... : ... .. 8 ... ...
ROW 6B : ... .. A ... ... ... : ... .. A ... ... ... : A-3 00 . ... : ... .. 3 ... : ... .. . ... ... : ... .. 5 ... ... : ... .. 5 ... ... : ... .. . ... ...
ROW 6C : ... .. . ... ... ... : ... .. 2 ... ... ... : E-3 00 . ... : ... .. 2 ... : ... .. . ... ... : ... .. . ... ... : ... .. . ... ... : ... .. . ... ...
ROW 6D : ... .. . ... ... ... : ... .. . ... ... ... : --- .. . ... : ... .. 0 ... : ... .. . ... ... : ... .. 4 ... ... : ... .. 4 ... ... : --- .. . P89 ...
ROW 6E : ... .. . ... ... ... : ... .. F ... ... ... : E-3 00 . ... : D-# 00 F ... : ... .. . ... ... : E-3 01 8 ... V00 : B-2 01 8 ... ... : E-2 01 F P80 ...
ROW 6F : ... .. . ... ... ... : ... .. E ... ... ... : ... .. . ... : ... .. C ... : ... .. . ... ... : ... .. 7 ... ... : ... .. 7 ... ... : ... .. D ... ...
ROW 70 : ... .. . ... ... ... : ... .. D ... ... ... : ... .. . ... : ... .. 6 ... : ... .. . ... ... : ... .. . ... ... : ... .. 6 ... ... : ... .. 8 ... ...
ROW 71 : ... .. . ... ... ... : ... .. A ... ... ... : ... .. . ... : ... .. 3 ... : ... .. . ... ... : ... .. 6 ... ... : ... .. 5 ... ... : ... .. . ... ...
ROW 72 : ... .. 2 ... ... ... : ... .. 2 ... ... ... : ... .. . ... : ... .. 2 ... : ... .. . ... ... : ... .. 5 ... ... : ... .. . ... ... : ... .. . ... ...
ROW 73 : ... .. . ... ... ... : ... .. . ... ... ... : --- .. . ... : ... .. 0 ... : ... .. . ... ... : ... .. . ... ... : ... .. 4 ... ... : --- .. . P89 ...
ROW 74 : B-3 00 F ... ... ... : ... .. F ... ... ... : E-3 00 . ... : ... .. F ... : ... .. . ... ... : F#3 01 8 ... V03 : E-2 01 8 ... ... : E-2 01 F P80 ...
ROW 75 : ... .. E ... ... ... : ... .. E ... ... ... : ... .. . ... : ... .. C ... : ... .. . ... ... : ... .. 7 ... ... : ... .. 7 ... ... : ... .. D ... ...
ROW 76 : ... .. D ... ... ... : ... .. D ... ... ... : ... .. . ... : ... .. 6 ... : ... .. . ... ... : ... .. 6 ... ... : ... .. 6 ... ... : ... .. 8 ... ...
ROW 77 : ... .. A ... ... ... : ... .. A ... ... ... : ... .. . ... : ... .. 3 ... : ... .. . ... ... : ... .. 5 ... ... : ... .. 5 ... ... : ... .. . ... ...
ROW 78 : ... .. . ... ... ... : ... .. 2 ... ... ... : ... .. . ... : ... .. 2 ... : ... .. . ... ... : ... .. . ... ... : ... .. . ... ... : ... .. . ... ...
ROW 79 : ... .. . ... ... ... : ... .. . ... ... ... : --- .. . ... : ... .. 0 ... : ... .. . ... ... : ... .. 4 ... ... : ... .. 4 ... ... : --- .. . P89 ...
ROW 7A : ... .. . ... ... ... : E-3 00 F ... ... ... : B-3 00 . ... : 8-# 00 F ... : ... .. . ... ... : G#3 01 7 ... V05 : B-3 01 8 ... ... : B-2 01 F P80 ...
ROW 7B : ... .. . ... ... ... : ... .. E ... ... ... : ... .. . ... : ... .. C ... : ... .. . ... ... : ... .. 6 ... ... : ... .. 7 ... ... : ... .. D ... ...
ROW 7C : ... .. . ... ... ... : ... .. D ... ... ... : ... .. . ... : ... .. 6 ... : ... .. . ... ... : ... .. . ... ... : ... .. 6 ... ... : ... .. 8 ... ...
ROW 7D : ... .. . ... ... ... : ... .. A ... ... ... : ... .. . ... : ... .. 3 ... : ... .. . ... ... : ... .. 5 ... ... : ... .. 5 ... ... : ... .. . ... ...
ROW 7E : ... .. 2 ... ... ... : ... .. . ... ... ... : ... .. . ... : ... .. 2 ... : ... .. . ... ... : ... .. . ... ... : ... .. . ... ... : ... .. . ... ...
ROW 7F : ... .. . ... ... ... : ... .. . ... ... ... : --- .. . ... : ... .. 0 ... : ... .. . ... ... : ... .. 4 ... ... : ... .. 4 ... ... : --- .. . P8B ...
ROW 80 : A#3 00 F ... ... ... : D#3 00 F ... ... ... : A#3 00 . ... : 4-# 00 F ... : ... .. . ... ... : F#3 01 8 ... V03 : B-2 01 8 ... ... : A#2 01 F P80 ...
ROW 81 : ... .. E ... ... ... : ... .. E ... ... ... : ... .. . ... : ... .. C ... : ... .. . ... ... : ... .. 7 ... ... : ... .. 7 ... ... : ... .. D ... ...
ROW 82 : ... .. D ... ... ... : ... .. D ... ... ... : ... .. . ... : ... .. 6 ... : ... .. . ... ... : ... .. 6 ... ... : ... .. 6 ... ... : ... .. 8 ... ...
ROW 83 : ... .. A ... ... ... : ... .. A ... ... ... : ... .. . ... : ... .. 3 ... : ... .. . ... ... : ... .. 5 ... ... : ... .. 5 ... ... : ... .. . ... ...
ROW 84 : ... .. . ... ... ... : ... .. . ... ... ... : ... .. . ... : ... .. 2 ... : ... .. . ... ... : ... .. . ... ... : ... .. . ... ... : ... .. . ... ...
ROW 85 : ... .. . ... ... ... : ... .. . ... ... ... : --- .. . ... : ... .. 0 ... : ... .. . ... ... : ... .. 4 ... ... : ... .. 4 ... ... : --- .. . ... ...
ROW 86 : ... .. . ... ... ... : B-2 00 F ... ... ... : B-3 00 . ... : 1-# 00 F ... : ... .. . ... ... : G#3 01 8 ... V00 : E-2 01 8 ... ... : B-2 01 F ... ...
ROW 87 : ... .. . ... ... ... : ... .. E ... ... ... : ... .. . ... : ... .. C ... : ... .. . ... ... : ... .. 7 ... ... : ... .. 7 ... ... : ... .. D ... ...
ROW 88 : ... .. . ... ... ... : ... .. D ... ... ... : ... .. . ... : ... .. 6 ... : ... .. . ... ... : ... .. . ... ... : ... .. 6 ... ... : ... .. 8 ... ...
ROW 89 : ... .. . ... ... ... : ... .. A ... ... ... : ... .. . ... : ... .. 3 ... : ... .. . ... ... : ... .. 6 ... ... : ... .. 5 ... ... : ... .. . ... ...
ROW 8A : ... .. 2 ... ... ... : ... .. 2 ... ... ... : ... .. . ... : ... .. 2 ... : ... .. . ... ... : ... .. 5 ... ... : ... .. . ... ... : ... .. . ... ...
ROW 8B : ... .. . ... ... ... : ... .. . ... ... ... : --- .. . ... : ... .. 0 ... : ... .. . ... ... : ... .. . ... ... : ... .. 4 ... ... : --- .. . P8B ...
ROW 8C : G#3 00 F ... ... ... : C#3 00 F ... ... ... : D#3 00 . ... : 7-# 00 F ... : ... .. . ... ... : A#3 01 8 ... V03 : C#4 01 8 ... ... : E-0 01 F P80 ...
ROW 8D : ... .. E ... ... ... : ... .. E ... ... ... : F-2 00 . ... : ... .. C ... : ... .. . ... ... : ... .. 7 ... ... : ... .. 7 ... ... : ... .. D ... ...
ROW 8E : ... .. D ... ... ... : ... .. D ... ... ... : A#1 00 . ... : ... .. 6 ... : ... .. . ... ... : ... .. 6 ... ... : ... .. 6 ... ... : ... .. 8 ... ...
ROW 8F : ... .. A ... ... ... : ... .. A ... ... ... : A-1 00 . ... : ... .. 3 ... : ... .. . ... ... : ... .. 5 ... ... : ... .. 5 ... ... : ... .. . ... ...
ROW 90 : ... .. . ... ... ... : ... .. . ... ... ... : E-1 00 . ... : ... .. 2 ... : ... .. . ... ... : ... .. . ... ... : ... .. . ... ... : ... .. . ... ...
ROW 91 : ... .. . ... ... ... : ... .. . ... ... ... : --- .. . ... : ... .. 0 ... : ... .. . ... ... : ... .. 4 ... ... : ... .. 4 ... ... : --- .. . ... ...
ROW 92 : D#4 00 F ... ... ... : F#2 00 F ... ... ... : G#4 00 . ... : 3-# 00 F ... : ... .. . ... ... : G#3 01 7 ... V05 : G#3 01 8 ... ... : G#3 01 F ... ...
ROW 93 : ... .. E ... ... ... : ... .. E ... ... ... : ... .. . ... : ... .. C ... : ... .. . ... ... : ... .. 6 ... ... : ... .. 7 ... ... : ... .. D ... ...
ROW 94 : ... .. D ... ... ... : ... .. D ... ... ... : ... .. . ... : ... .. 6 ... : ... .. . ... ... : ... .. . ... ... : ... .. 6 ... ... : ... .. 8 ... ...
ROW 95 : ... .. A ... ... ... : ... .. A ... ... ... : ... .. . ... : ... .. 3 ... : ... .. . ... ... : ... .. 5 ... ... : ... .. 5 ... ... : ... .. . ... ...
ROW 96 : ... .. 2 ... ... ... : ... .. . ... ... ... : ... .. . ... : ... .. 2 ... : ... .. . ... ... : ... .. . ... ... : ... .. . ... ... : ... .. . ... ...
ROW 97 : ... .. . ... ... ... : ... .. . ... ... ... : --- .. . ... : ... .. 0 ... : ... .. . ... ... : ... .. 4 ... ... : ... .. 4 ... ... : --- .. . P7F ...
ROW 98 : G#4 00 F ... ... ... : G#2 00 F ... ... ... : E-1 00 . ... : 1-# 00 F ... : ... .. . ... ... : A#3 01 7 ... ... : E-3 01 8 ... ... : E-0 01 F P80 ...
ROW 99 : ... .. E ... ... ... : ... .. E ... ... ... : ... .. . ... : ... .. C ... : ... .. . ... ... : ... .. 6 ... ... : ... .. 7 ... ... : ... .. D ... ...
ROW 9A : ... .. D ... ... ... : ... .. D ... ... ... : ... .. . ... : ... .. 6 ... : ... .. . ... ... : ... .. . ... ... : ... .. 6 ... ... : ... .. 8 ... ...
ROW 9B : ... .. A ... ... ... : ... .. A ... ... ... : ... .. . ... : ... .. 3 ... : ... .. . ... ... : ... .. 5 ... ... : ... .. 5 ... ... : ... .. . ... ...
ROW 9C : ... .. 2 ... ... ... : ... .. 2 ... ... ... : ... .. . ... : ... .. 2 ... : ... .. . ... ... : ... .. . ... ... : ... .. . ... ... : ... .. . ... ...
ROW 9D : ... .. . ... ... ... : ... .. . ... ... ... : --- .. . ... : ... .. 0 ... : ... .. . ... ... : ... .. 4 ... ... : ... .. 4 ... ... : --- .. . ... ...
ROW 9E : A#4 00 F ... ... ... : C#2 00 F ... ... ... : F#4 00 . ... : 6-# 00 F ... : ... .. . ... ... : B-3 01 7 ... ... : C#4 01 8 ... ... : F#3 01 F ... ...
ROW 9F : ... .. E ... ... ... : ... .. E ... ... ... : ... .. . ... : ... .. C ... : ... .. . ... ... : ... .. 6 ... ... : ... .. 7 ... ... : ... .. D ... ...
ROW A0 : ... .. D ... ... ... : ... .. D ... ... ... : ... .. . ... : ... .. 6 ... : ... .. . ... ... : ... .. . ... ... : ... .. 6 ... ... : ... .. 8 ... ...
ROW A1 : ... .. A ... ... ... : ... .. A ... ... ... : ... .. . ... : ... .. 3 ... : ... .. . ... ... : ... .. . ... ... : ... .. 5 ... ... : ... .. . ... ...
ROW A2 : ... .. . ... ... ... : ... .. . ... ... ... : ... .. . ... : ... .. 2 ... : ... .. . ... ... : ... .. 5 ... ... : ... .. . ... ... : ... .. . ... ...
ROW A3 : ... .. . ... ... ... : ... .. . ... ... ... : --- .. . ... : ... .. 0 ... : ... .. . ... ... : ... .. . ... ... : ... .. 4 ... ... : --- .. . P82 ...
ROW A4 : D#4 00 F ... ... ... : D#2 00 F ... ... ... : C#4 00 . ... : 2-# 00 F ... : ... .. . ... ... : A#3 01 8 ... V00 : G#3 01 8 ... ... : C#3 01 F P80 ...
ROW A5 : ... .. E ... ... ... : ... .. E ... ... ... : ... .. . ... : ... .. C ... : ... .. . ... ... : ... .. 7 ... ... : ... .. 7 ... ... : ... .. D ... ...
ROW A6 : ... .. D ... ... ... : ... .. D ... ... ... : ... .. . ... : ... .. 6 ... : ... .. . ... ... : ... .. . ... ... : ... .. 6 ... ... : ... .. 8 ... ...
ROW A7 : ... .. A ... ... ... : ... .. A ... ... ... : ... .. . ... : ... .. 3 ... : ... .. . ... ... : ... .. 6 ... ... : ... .. 5 ... ... : ... .. . ... ...
ROW A8 : ... .. 2 ... ... ... : ... .. . ... ... ... : ... .. . ... : ... .. 2 ... : ... .. . ... ... : ... .. 5 ... ... : ... .. . ... ... : ... .. . ... ...
ROW A9 : ... .. . ... ... ... : ... .. . ... ... ... : --- .. . ... : ... .. 0 ... : ... .. . ... ... : ... .. . ... ... : ... .. 4 ... ... : --- .. . ... ...
ROW AA : A#4 00 F ... ... ... : B-1 00 F ... ... ... : D#4 00 . ... : 1-# 00 F ... : ... .. . ... ... : B-3 01 8 ... ... : E-3 01 8 ... ... : D#3 01 F ... ...
ROW AB : ... .. E ... ... ... : ... .. E ... ... ... : ... .. . ... : ... .. C ... : ... .. . ... ... : ... .. 7 ... ... : ... .. 7 ... ... : ... .. D ... ...
ROW AC : ... .. D ... ... ... : ... .. D ... ... ... : ... .. . ... : ... .. 6 ... : ... .. . ... ... : ... .. . ... ... : ... .. 6 ... ... : ... .. 8 ... ...
ROW AD : ... .. A ... ... ... : ... .. A ... ... ... : ... .. . ... : ... .. 3 ... : ... .. . ... ... : ... .. 6 ... ... : ... .. 5 ... ... : ... .. . ... ...
ROW AE : ... .. 2 ... ... ... : ... .. 2 ... ... ... : ... .. . ... : ... .. 2 ... : ... .. . ... ... : ... .. 5 ... ... : ... .. . ... ... : ... .. . ... ...
ROW AF : ... .. . ... ... ... : ... .. . ... ... ... : --- .. . ... : ... .. 0 ... : ... .. . ... ... : ... .. . ... ... : ... .. 4 ... ... : --- .. . P7F ...
ROW B0 : B-4 00 F ... ... ... : G#1 00 F ... ... ... : D#4 00 . ... : ... .. F ... : ... .. . ... ... : C#4 01 7 ... V05 : D#4 01 8 ... ... : E-1 01 F P80 ...
ROW B1 : ... .. E ... ... ... : ... .. E ... ... ... : F-3 00 . ... : ... .. C ... : ... .. . ... ... : ... .. 6 ... ... : ... .. 7 ... ... : ... .. D ... ...
ROW B2 : ... .. D ... ... ... : ... .. D ... ... ... : A#2 00 . ... : ... .. 6 ... : ... .. . ... ... : ... .. . ... ... : ... .. 6 ... ... : ... .. 8 ... ...
ROW B3 : ... .. A ... ... ... : ... .. A ... ... ... : A-2 00 . ... : ... .. 3 ... : ... .. . ... ... : ... .. . ... ... : ... .. 5 ... ... : ... .. . ... ...
ROW B4 : ... .. . ... ... ... : ... .. 2 ... ... ... : E-2 00 . ... : ... .. 2 ... : ... .. . ... ... : ... .. 5 ... ... : ... .. . ... ... : ... .. . ... ...
ROW B5 : ... .. . ... ... ... : ... .. . ... ... ... : --- .. . ... : ... .. 0 ... : ... .. . ... ... : ... .. . ... ... : ... .. 4 ... ... : --- .. . P82 ...
ROW B6 : A#4 00 F ... ... ... : ... .. F ... ... ... : E-2 00 . ... : ... .. F ... : ... .. . ... ... : D#4 01 8 ... V00 : G#3 01 8 ... ... : E-1 01 F P80 ...
ROW B7 : ... .. E ... ... ... : ... .. E ... ... ... : ... .. . ... : ... .. C ... : ... .. . ... ... : ... .. 7 ... ... : ... .. 7 ... ... : ... .. D ... ...
ROW B8 : ... .. D ... ... ... : ... .. D ... ... ... : ... .. . ... : ... .. 6 ... : ... .. . ... ... : ... .. . ... ... : ... .. 6 ... ... : ... .. 8 ... ...
ROW B9 : ... .. A ... ... ... : ... .. A ... ... ... : ... .. . ... : ... .. 3 ... : ... .. . ... ... : ... .. 6 ... ... : ... .. 5 ... ... : ... .. . ... ...
ROW BA : ... .. 2 ... ... ... : ... .. 2 ... ... ... : ... .. . ... : ... .. 2 ... : ... .. . ... ... : ... .. 5 ... ... : ... .. . ... ... : ... .. . ... ...
ROW BB : ... .. . ... ... ... : ... .. . ... ... ... : --- .. . ... : ... .. 0 ... : ... .. . ... ... : ... .. . ... ... : ... .. 4 ... ... : --- .. . P82 ...
ROW BC : B-4 00 F ... ... ... : ... .. F ... ... ... : E-2 00 . ... : ... .. F ... : ... .. . ... ... : E-4 01 8 ... V03 : E-3 01 8 ... ... : E-1 01 F P80 ...
ROW BD : ... .. E ... ... ... : ... .. E ... ... ... : ... .. . ... : ... .. C ... : ... .. . ... ... : ... .. 7 ... ... : ... .. 7 ... ... : ... .. D ... ...
ROW BE : ... .. D ... ... ... : ... .. D ... ... ... : ... .. . ... : ... .. 6 ... : ... .. . ... ... : ... .. 6 ... ... : ... .. 6 ... ... : ... .. 8 ... ...
ROW BF : ... .. A ... ... ... : ... .. A ... ... ... : ... .. . ... : ... .. 3 ... : ... .. . ... ... : ... .. 5 ... ... : ... .. 5 ... ... : ... .. . ... ...
ROW C0 : ... .. . ... ... ... : ... .. 2 ... ... ... : ... .. . ... : ... .. 2 ... : ... .. . ... ... : ... .. . ... ... : ... .. . ... ... : ... .. . ... ...
ROW C1 : ... .. . ... ... ... : ... .. . ... ... ... : --- .. . ... : ... .. 0 ... : ... .. . ... ... : ... .. 4 ... ... : ... .. 4 ... ... : --- .. . P82 ...
ROW C2 : ... .. . ... ... ... : C#3 00 F ... ... ... : D#4 00 . ... : B-# 00 F ... : ... .. . ... ... : C#4 01 7 ... V05 : D#4 01 8 ... ... : D#3 01 F P80 ...
ROW C3 : ... .. . ... ... ... : ... .. E ... ... ... : ... .. . ... : ... .. . ... : ... .. . ... ... : ... .. 6 ... ... : ... .. 7 ... ... : ... .. D ... ...
ROW C4 : ... .. . ... ... ... : ... .. D ... ... ... : ... .. . ... : ... .. . ... : ... .. . ... ... : ... .. . ... ... : ... .. 6 ... ... : ... .. 8 ... ...
ROW C5 : ... .. . ... ... ... : ... .. A ... ... ... : ... .. . ... : ... .. D ... : ... .. . ... ... : ... .. . ... ... : ... .. 5 ... ... : ... .. . ... ...
ROW C6 : ... .. . ... ... ... : ... .. . ... ... ... : ... .. . ... : ... .. . ... : ... .. . ... ... : ... .. 5 ... ... : ... .. . ... ... : ... .. . ... ...
ROW C7 : ... .. . ... ... ... : ... .. . ... ... ... : ... .. . ... : ... .. . ... : ... .. . ... ... : ... .. . ... ... : ... .. 4 ... ... : ... .. . ... ...
ROW C8 : ... .. . ... ... ... : ... .. . ... ... ... : E-4 00 . P7D : ... .. C ... : ... .. . ... ... : D#4 01 7 ... ... : G#3 01 8 ... ... : ... .. . P87 ...
ROW C9 : ... .. . ... ... ... : ... .. . ... ... ... : ... .. . P7F : ... .. . ... : ... .. . ... ... : ... .. 6 ... ... : ... .. 7 ... ... : ... .. . P89 ...
ROW CA : ... .. . ... ... ... : ... .. . ... ... ... : ... .. . P7C : ... .. . ... : ... .. . ... ... : ... .. . ... ... : ... .. 6 ... ... : ... .. . P86 ...
ROW CB : ... .. . P83 ... ... : D-3 00 A P88 ... ... : D#4 00 . P80 : ... .. A ... : ... .. . ... ... : ... .. 5 ... ... : ... .. 5 ... ... : ... .. . P80 ...
ROW CC : C-5 00 A P7E ... ... : D#3 00 A P7F ... ... : D-4 00 . P83 : ... .. . ... : ... .. . ... ... : ... .. . ... ... : ... .. . ... ... : ... .. . P79 ...
ROW CD : B-4 00 A P83 ... ... : D-3 00 A P84 ... ... : ... .. . P81 : ... .. . ... : ... .. . ... ... : ... .. 4 ... ... : ... .. 4 ... ... : ... .. . P77 ...
ROW CE : ... .. . P80 ... ... : C#3 00 A P80 ... ... : ... .. . P84 : ... .. 9 ... : ... .. . ... ... : E-4 01 7 ... ... : E-3 01 8 ... ... : ... .. . P7A ...
ROW CF : ... .. . P7D ... ... : C-3 00 A P79 ... ... : D#4 00 . P80 : ... .. . ... : ... .. . ... ... : ... .. 6 ... ... : ... .. 7 ... ... : ... .. . P80 ...
ROW D0 : A#4 00 A P83 ... ... : B-2 00 A P86 ... ... : E-4 00 . P7D : ... .. . ... : ... .. . ... ... : ... .. . ... ... : ... .. 6 ... ... : ... .. . P87 ...
ROW D1 : B-4 00 A P7D ... ... : C-3 00 A P7D ... ... : ... .. . P7F : ... .. 8 ... : ... .. . ... ... : ... .. . ... ... : ... .. 5 ... ... : ... .. . P89 ...
ROW D2 : ... .. . P80 ... ... : C#3 00 2 P80 ... ... : ... .. . P7C : ... .. . ... : ... .. . ... ... : ... .. 5 ... ... : ... .. . ... ... : ... .. . P86 ...
ROW D3 : ... .. . P83 ... ... : D-3 00 2 P88 ... ... : D#4 00 . P80 : ... .. . ... : ... .. . ... ... : ... .. . ... ... : ... .. 4 ... ... : ... .. . P80 ...
ROW D4 : C-5 00 A P7E ... ... : G#1 00 F P80 ... ... : ... .. . ... : 1-# 00 F ... : ... .. . ... ... : F#4 01 8 ... V00 : C#4 01 8 ... ... : E-1 01 F ... ...
ROW D5 : B-4 00 A P83 ... ... : ... .. E ... ... ... : F-3 00 . ... : ... .. C ... : ... .. . ... ... : ... .. 7 ... ... : ... .. 7 ... ... : ... .. D ... ...
ROW D6 : ... .. . P80 ... ... : ... .. D ... ... ... : A#2 00 . ... : ... .. 6 ... : ... .. . ... ... : ... .. . ... ... : ... .. 6 ... ... : ... .. 8 ... ...
ROW D7 : ... .. . P7D ... ... : ... .. A ... ... ... : A-2 00 . ... : ... .. 3 ... : ... .. . ... ... : ... .. 6 ... ... : ... .. 5 ... ... : ... .. . ... ...
ROW D8 : A#4 00 A P83 ... ... : ... .. 2 ... ... ... : E-2 00 . ... : ... .. 2 ... : ... .. . ... ... : ... .. 5 ... ... : ... .. . ... ... : ... .. . ... ...
ROW D9 : B-4 00 A P7D ... ... : ... .. . ... ... ... : --- .. . ... : ... .. 0 ... : ... .. . ... ... : ... .. . ... ... : ... .. 4 ... ... : --- .. . P82 ...
ROW DA : ... .. . P80 ... ... : ... .. F ... ... ... : E-2 00 . ... : ... .. F ... : ... .. . ... ... : D#4 01 7 ... V05 : G#3 01 8 ... ... : E-1 01 F P80 ...
ROW DB : ... .. . P83 ... ... : ... .. E ... ... ... : ... .. . ... : ... .. C ... : ... .. . ... ... : ... .. 6 ... ... : ... .. 7 ... ... : ... .. D ... ...
ROW DC : C-5 00 A P7E ... ... : ... .. D ... ... ... : ... .. . ... : ... .. 6 ... : ... .. . ... ... : ... .. . ... ... : ... .. 6 ... ... : ... .. 8 ... ...
ROW DD : B-4 00 A P83 ... ... : ... .. A ... ... ... : ... .. . ... : ... .. 3 ... : ... .. . ... ... : ... .. 5 ... ... : ... .. 5 ... ... : ... .. . ... ...
ROW DE : ... .. . P80 ... ... : ... .. 2 ... ... ... : ... .. . ... : ... .. 2 ... : ... .. . ... ... : ... .. . ... ... : ... .. . ... ... : ... .. . ... ...
ROW DF : ... .. . P7D ... ... : ... .. . ... ... ... : --- .. . ... : ... .. 0 ... : ... .. . ... ... : ... .. 4 ... ... : ... .. 4 ... ... : --- .. . P82 ...
ROW E0 : A#4 00 A P83 ... ... : ... .. F ... ... ... : E-2 00 . ... : ... .. F ... : ... .. . ... ... : E-4 01 7 ... ... : B-2 01 8 ... ... : E-1 01 F P80 ...
ROW E1 : B-4 00 A P7D ... ... : ... .. E ... ... ... : ... .. . ... : ... .. C ... : ... .. . ... ... : ... .. 6 ... ... : ... .. 7 ... ... : ... .. D ... ...
ROW E2 : ... .. . P80 ... ... : ... .. D ... ... ... : ... .. . ... : ... .. 6 ... : ... .. . ... ... : ... .. . ... ... : ... .. 6 ... ... : ... .. 8 ... ...
ROW E3 : ... .. . P83 ... ... : ... .. A ... ... ... : ... .. . ... : ... .. 3 ... : ... .. . ... ... : ... .. . ... ... : ... .. 5 ... ... : ... .. . ... ...
ROW E4 : C-5 00 A P7E ... ... : ... .. 2 ... ... ... : ... .. . ... : ... .. 2 ... : ... .. . ... ... : ... .. 5 ... ... : ... .. . ... ... : ... .. . ... ...
ROW E5 : B-4 00 A P83 ... ... : ... .. . ... ... ... : --- .. . ... : ... .. 0 ... : ... .. . ... ... : ... .. . ... ... : ... .. 4 ... ... : --- .. . P82 ...
ROW E6 : ... .. . P80 ... ... : C#3 00 F ... ... ... : D#3 00 . ... : B-# 00 F ... : ... .. . ... ... : F#4 01 8 ... V00 : C#4 01 8 ... ... : D#2 01 F P80 ...
ROW E7 : ... .. . P7D ... ... : ... .. E ... ... ... : ... .. . ... : ... .. . ... : ... .. . ... ... : ... .. 7 ... ... : ... .. 7 ... ... : ... .. D ... ...
ROW E8 : A#4 00 A P83 ... ... : ... .. D ... ... ... : ... .. . ... : ... .. . ... : ... .. . ... ... : ... .. . ... ... : ... .. 6 ... ... : ... .. 8 ... ...
ROW E9 : B-4 00 A P7D ... ... : ... .. A ... ... ... : ... .. . ... : ... .. D ... : ... .. . ... ... : ... .. 6 ... ... : ... .. 5 ... ... : ... .. . ... ...
ROW EA : ... .. 2 P80 ... ... : ... .. . ... ... ... : ... .. . ... : ... .. . ... : ... .. . ... ... : ... .. 5 ... ... : ... .. . ... ... : ... .. . ... ...
ROW EB : ... .. . P83 ... ... : ... .. . ... ... ... : ... .. . ... : ... .. . ... : ... .. . ... ... : ... .. . ... ... : ... .. 4 ... ... : ... .. . ... ...
ROW EC : C-5 00 2 P7E ... ... : D-3 00 A P88 ... ... : ... .. . P87 : ... .. C ... : ... .. . ... ... : G#4 01 8 ... ... : G#3 01 8 ... ... : ... .. . P87 ...
ROW ED : B-4 00 1 P83 ... ... : D#3 00 A P7F ... ... : ... .. . P89 : ... .. . ... : ... .. . ... ... : ... .. 7 ... ... : ... .. 7 ... ... : ... .. . P89 ...
ROW EE : ... .. . P80 ... ... : D-3 00 A P84 ... ... : ... .. . P86 : ... .. . ... : ... .. . ... ... : ... .. . ... ... : ... .. 6 ... ... : ... .. . P86 ...
ROW EF : ... .. . P7D ... ... : C#3 00 A P80 ... ... : ... .. . P80 : ... .. A ... : ... .. . ... ... : ... .. 6 ... ... : ... .. 5 ... ... : ... .. . P80 ...
ROW F0 : ... .. 0 ... ... ... : C-3 00 A P79 ... ... : ... .. . P79 : ... .. . ... : ... .. . ... ... : ... .. 5 ... ... : ... .. . ... ... : ... .. . P79 ...
ROW F1 : ... .. . ... ... ... : B-2 00 A P86 ... ... : ... .. . P77 : ... .. . ... : ... .. . ... ... : ... .. . ... ... : ... .. 4 ... ... : ... .. . P77 ...
ROW F2 : ... .. . ... ... ... : C-3 00 A P7D ... ... : ... .. . P7A : ... .. 9 ... : ... .. . ... ... : A#4 01 7 ... V05 : B-2 01 8 ... ... : ... .. . P7A ...
ROW F3 : ... .. . ... ... ... : C#3 00 A P80 ... ... : ... .. . P80 : ... .. . ... : ... .. . ... ... : ... .. 6 ... ... : ... .. 7 ... ... : ... .. . P80 ...
ROW F4 : ... .. . ... ... ... : D-3 00 A P88 ... ... : ... .. . P87 : ... .. . ... : ... .. . ... ... : ... .. . ... ... : ... .. 6 ... ... : ... .. . P87 ...
ROW F5 : ... .. . ... ... ... : D#3 00 A P7F ... ... : ... .. . P89 : ... .. 8 ... : ... .. . ... ... : ... .. . ... ... : ... .. 5 ... ... : ... .. . P89 ...
ROW F6 : ... .. . ... ... ... : D-3 00 2 P84 ... ... : ... .. . P86 : ... .. . ... : ... .. . ... ... : ... .. 5 ... ... : ... .. . ... ... : ... .. . P86 ...
ROW F7 : ... .. . ... ... ... : C#3 00 2 P80 ... ... : ... .. . P80 : ... .. . ... : ... .. . ... ... : ... .. . ... ... : ... .. 4 ... ... : ... .. . P80 ...
ROW F8 : B-4 00 F P80 ... ... : B-2 00 F ... ... ... : D#5 00 . ... : 1-# 00 F ... : ... .. . ... ... : B-4 01 7 ... ... : B-3 01 8 ... ... : E-2 01 F ... ...
ROW F9 : ... .. E ... ... ... : ... .. E ... ... ... : F-4 00 . ... : ... .. C ... : ... .. . ... ... : ... .. 6 ... ... : ... .. 7 ... ... : ... .. D ... ...
ROW FA : ... .. D ... ... ... : ... .. D ... ... ... : A#3 00 . ... : ... .. 6 ... : ... .. . ... ... : ... .. . ... ... : ... .. 6 ... ... : ... .. 8 ... ...
ROW FB : ... .. A ... ... ... : ... .. A ... ... ... : A-3 00 . ... : ... .. 3 ... : ... .. . ... ... : ... .. . ... ... : ... .. 5 ... ... : ... .. . ... ...
ROW FC : ... .. 2 ... ... ... : ... .. 2 ... ... ... : E-3 00 . ... : ... .. 2 ... : ... .. . ... ... : ... .. 5 ... ... : ... .. . ... ... : ... .. . ... ...
ROW FD : ... .. . ... ... ... : ... .. . ... ... ... : --- .. . ... : ... .. 0 ... : ... .. . ... ... : ... .. . ... ... : ... .. 4 ... ... : --- .. . P89 ...
ROW FE : A#4 00 F ... ... ... : F#2 00 F ... ... ... : F#4 00 . ... : ... .. F ... : ... .. . ... ... : A#4 01 8 ... V03 : G#3 01 8 ... ... : F#3 01 F P80 ...
ROW FF : ... .. E ... ... ... : ... .. E ... ... ... : ... .. . ... : ... .. C ... : ... .. . ... ... : ... .. 7 ... ... : ... .. 7 ... ... : ... .. D ... ...

PATTERN 0B
ROW 00 : ... .. D ... ... ... : ... .. D ... ... ... : ... .. . ... : ... .. 6 ... : ... .. . ... ... : ... .. 6 ... ... : ... .. 6 ... ... : ... .. 8 ... ...
ROW 01 : ... .. A ... ... ... : ... .. A ... ... ... : ... .. . ... : ... .. 3 ... : ... .. . ... ... : ... .. 5 ... ... : ... .. 5 ... ... : ... .. . ... ...
ROW 02 : ... .. 2 ... ... ... : ... .. 2 ... ... ... : ... .. . ... : ... .. 2 ... : ... .. . ... ... : ... .. . ... ... : ... .. . ... ... : ... .. . ... ...
ROW 03 : ... .. . ... ... ... : ... .. . ... ... ... : --- .. . ... : ... .. 0 ... : ... .. . ... ... : ... .. 4 ... ... : ... .. 4 ... ... : --- .. . P82 ...
ROW 04 : B-4 00 F ... ... ... : ... .. F ... ... ... : E-4 00 . ... : ... .. F ... : ... .. . ... ... : G#4 01 7 ... V05 : E-3 01 8 ... ... : E-3 01 F P80 ...
ROW 05 : ... .. E ... ... ... : ... .. E ... ... ... : ... .. . ... : ... .. C ... : ... .. . ... ... : ... .. 6 ... ... : ... .. 7 ... ... : ... .. D ... ...
ROW 06 : ... .. D ... ... ... : ... .. D ... ... ... : ... .. . ... : ... .. 6 ... : ... .. . ... ... : ... .. . ... ... : ... .. 6 ... ... : ... .. 8 ... ...
ROW 07 : ... .. A ... ... ... : ... .. A ... ... ... : ... .. . ... : ... .. 3 ... : ... .. . ... ... : ... .. . ... ... : ... .. 5 ... ... : ... .. . ... ...
ROW 08 : ... .. . ... ... ... : ... .. 2 ... ... ... : ... .. . ... : ... .. 2 ... : ... .. . ... ... : ... .. 5 ... ... : ... .. . ... ... : ... .. . ... ...
ROW 09 : ... .. . ... ... ... : ... .. . ... ... ... : --- .. . ... : ... .. 0 ... : ... .. . ... ... : ... .. . ... ... : ... .. 4 ... ... : --- .. . P7D ...
ROW 0A : ... .. . ... ... ... : B-2 00 F ... ... ... : D#4 00 . ... : A-# 00 F ... : ... .. . ... ... : F#4 01 8 ... V03 : B-3 01 8 ... ... : D#3 01 F P80 ...
ROW 0B : ... .. . ... ... ... : ... .. E ... ... ... : ... .. . ... : ... .. C ... : ... .. . ... ... : ... .. 7 ... ... : ... .. 7 ... ... : ... .. D ... ...
ROW 0C : ... .. . ... ... ... : ... .. D ... ... ... : ... .. . ... : ... .. 6 ... : ... .. . ... ... : ... .. 6 ... ... : ... .. 6 ... ... : ... .. 8 ... ...
ROW 0D : ... .. . ... ... ... : ... .. A ... ... ... : ... .. . ... : ... .. 3 ... : ... .. . ... ... : ... .. 5 ... ... : ... .. 5 ... ... : ... .. . ... ...
ROW 0E : ... .. . ... ... ... : ... .. . ... ... ... : ... .. . ... : ... .. 2 ... : ... .. . ... ... : ... .. . ... ... : ... .. . ... ... : ... .. . ... ...
ROW 0F : ... .. . ... ... ... : ... .. . ... ... ... : --- .. . ... : ... .. 0 ... : ... .. . ... ... : ... .. 4 ... ... : ... .. 4 ... ... : --- .. . P7F ...
ROW 10 : ... .. . ... ... ... : C#3 00 F ... ... ... : B-4 00 . ... : 5-# 00 F ... : ... .. . ... ... : E-4 01 7 ... V05 : G#3 01 8 ... ... : B-3 01 F P80 ...
ROW 11 : ... .. . ... ... ... : ... .. E ... ... ... : ... .. . ... : ... .. C ... : ... .. . ... ... : ... .. 6 ... ... : ... .. 7 ... ... : ... .. D ... ...
ROW 12 : ... .. . ... ... ... : ... .. D ... ... ... : ... .. . ... : ... .. 6 ... : ... .. . ... ... : ... .. . ... ... : ... .. 6 ... ... : ... .. 8 ... ...
ROW 13 : ... .. . ... ... ... : ... .. A ... ... ... : ... .. . ... : ... .. 3 ... : ... .. . ... ... : ... .. . ... ... : ... .. 5 ... ... : ... .. . ... ...
ROW 14 : ... .. . ... ... ... : ... .. 2 ... ... ... : ... .. . ... : ... .. 2 ... : ... .. . ... ... : ... .. 5 ... ... : ... .. . ... ... : ... .. . ... ...
ROW 15 : ... .. . ... ... ... : ... .. . ... ... ... : --- .. . ... : ... .. 0 ... : ... .. . ... ... : ... .. . ... ... : ... .. 4 ... ... : --- .. . P8E ...
ROW 16 : ... .. . ... ... ... : G#2 00 F ... ... ... : A#4 00 . ... : 3-# 00 F ... : ... .. . ... ... : D#4 01 8 ... V00 : E-3 01 8 ... ... : A#3 01 F P80 ...
ROW 17 : ... .. . ... ... ... : ... .. E ... ... ... : ... .. . ... : ... .. C ... : ... .. . ... ... : ... .. 7 ... ... : ... .. 7 ... ... : ... .. D ... ...
ROW 18 : ... .. . ... ... ... : ... .. D ... ... ... : ... .. . ... : ... .. 6 ... : ... .. . ... ... : ... .. . ... ... : ... .. 6 ... ... : ... .. 8 ... ...
ROW 19 : ... .. . ... ... ... : ... .. A ... ... ... : ... .. . ... : ... .. 3 ... : ... .. . ... ... : ... .. 6 ... ... : ... .. 5 ... ... : ... .. . ... ...
ROW 1A : ... .. 2 ... ... ... : ... .. 2 ... ... ... : ... .. . ... : ... .. 2 ... : ... .. . ... ... : ... .. 5 ... ... : ... .. . ... ... : ... .. . ... ...
ROW 1B : ... .. . ... ... ... : ... .. . ... ... ... : --- .. . ... : ... .. 0 ... : ... .. . ... ... : ... .. . ... ... : ... .. 4 ... ... : --- .. . ... ...
ROW 1C : C#5 00 F ... ... ... : B-2 00 F ... ... ... : G-6 00 . ... : 8-# 00 F ... : ... .. . ... ... : C#4 01 8 ... ... : A#3 01 8 ... ... : G#3 01 F ... ...
ROW 1D : ... .. E ... ... ... : ... .. E ... ... ... : A-5 00 . ... : ... .. C ... : ... .. . ... ... : ... .. 7 ... ... : ... .. 7 ... ... : ... .. D ... ...
ROW 1E : ... .. D ... ... ... : ... .. D ... ... ... : D-5 00 . ... : ... .. 6 ... : ... .. . ... ... : ... .. . ... ... : ... .. 6 ... ... : ... .. 8 ... ...
ROW 1F : ... .. A ... ... ... : ... .. A ... ... ... : C#5 00 . ... : ... .. 3 ... : ... .. . ... ... : ... .. 6 ... ... : ... .. 5 ... ... : ... .. . ... ...
ROW 20 : ... .. 2 ... ... ... : ... .. . ... ... ... : G#4 00 . ... : ... .. 2 ... : ... .. . ... ... : ... .. 5 ... ... : ... .. . ... ... : ... .. . ... ...
ROW 21 : ... .. . ... ... ... : ... .. . ... ... ... : --- .. . ... : ... .. 0 ... : ... .. . ... ... : ... .. . ... ... : ... .. 4 ... ... : --- .. . P7F ...
ROW 22 : B-4 00 F ... ... ... : F#2 00 F ... ... ... : B-3 00 . ... : 7-# 00 F ... : ... .. . ... ... : B-3 01 8 ... ... : E-3 01 8 ... ... : B-2 01 F P80 ...
ROW 23 : ... .. E ... ... ... : ... .. E ... ... ... : ... .. . ... : ... .. C ... : ... .. . ... ... : ... .. 7 ... ... : ... .. 7 ... ... : ... .. D ... ...
ROW 24 : ... .. D ... ... ... : ... .. D ... ... ... : ... .. . ... : ... .. 6 ... : ... .. . ... ... : ... .. . ... ... : ... .. 6 ... ... : ... .. 8 ... ...
ROW 25 : ... .. A ... ... ... : ... .. A ... ... ... : ... .. . ... : ... .. 3 ... : ... .. . ... ... : ... .. 6 ... ... : ... .. 5 ... ... : ... .. . ... ...
ROW 26 : ... .. 2 ... ... ... : ... .. 2 ... ... ... : ... .. . ... : ... .. 2 ... : ... .. . ... ... : ... .. 5 ... ... : ... .. . ... ... : ... .. . ... ...
ROW 27 : ... .. . ... ... ... : ... .. . ... ... ... : --- .. . ... : ... .. 0 ... : ... .. . ... ... : ... .. . ... ... : ... .. 4 ... ... : --- .. . P8B ...
ROW 28 : C#5 00 F ... ... ... : ... .. F ... ... ... : C#4 00 . ... : 6-# 00 F ... : ... .. . ... ... : A#3 01 7 ... V05 : G#2 01 8 ... ... : C#3 01 F P80 ...
ROW 29 : ... .. E ... ... ... : ... .. E ... ... ... : ... .. . ... : ... .. C ... : ... .. . ... ... : ... .. 6 ... ... : ... .. 7 ... ... : ... .. D ... ...
ROW 2A : ... .. D ... ... ... : ... .. D ... ... ... : ... .. . ... : ... .. 6 ... : ... .. . ... ... : ... .. . ... ... : ... .. 6 ... ... : ... .. 8 ... ...
ROW 2B : ... .. A ... ... ... : ... .. A ... ... ... : ... .. . ... : ... .. 3 ... : ... .. . ... ... : ... .. . ... ... : ... .. 5 ... ... : ... .. . ... ...
ROW 2C : ... .. . ... ... ... : ... .. 2 ... ... ... : ... .. . ... : ... .. 2 ... : ... .. . ... ... : ... .. 5 ... ... : ... .. . ... ... : ... .. . ... ...
ROW 2D : ... .. . ... ... ... : ... .. . ... ... ... : --- .. . ... : ... .. 0 ... : ... .. . ... ... : ... .. . ... ... : ... .. 4 ... ... : --- .. . ... ...
ROW 2E : ... .. . ... ... ... : B-2 00 F ... ... ... : D#4 00 . ... : 5-# 00 F ... : ... .. . ... ... : G#3 01 7 ... ... : A#3 01 8 ... ... : D#3 01 F ... ...
ROW 2F : ... .. . ... ... ... : ... .. E ... ... ... : ... .. . ... : ... .. C ... : ... .. . ... ... : ... .. 6 ... ... : ... .. 7 ... ... : ... .. D ... ...
ROW 30 : ... .. . ... ... ... : ... .. D ... ... ... : ... .. . ... : ... .. 6 ... : ... .. . ... ... : ... .. . ... ... : ... .. 6 ... ... : ... .. 8 ... ...
ROW 31 : ... .. . ... ... ... : ... .. A ... ... ... : ... .. . ... : ... .. 3 ... : ... .. . ... ... : ... .. . ... ... : ... .. 5 ... ... : ... .. . ... ...
ROW 32 : ... .. 2 ... ... ... : ... .. . ... ... ... : ... .. . ... : ... .. 2 ... : ... .. . ... ... : ... .. 5 ... ... : ... .. . ... ... : ... .. . ... ...
ROW 33 : ... .. . ... ... ... : ... .. . ... ... ... : --- .. . ... : ... .. 0 ... : ... .. . ... ... : ... .. . ... ... : ... .. 4 ... ... : --- .. . P7F ...
ROW 34 : G#4 00 F ... ... ... : C#3 00 F ... ... ... : F#3 00 . ... : 4-# 00 F ... : ... .. . ... ... : F#3 01 8 ... V03 : E-3 01 8 ... ... : F#2 01 F P80 ...
ROW 35 : ... .. E ... ... ... : ... .. E ... ... ... : ... .. . ... : ... .. C ... : ... .. . ... ... : ... .. 7 ... ... : ... .. 7 ... ... : ... .. D ... ...
ROW 36 : ... .. D ... ... ... : ... .. D ... ... ... : ... .. . ... : ... .. 6 ... : ... .. . ... ... : ... .. 6 ... ... : ... .. 6 ... ... : ... .. 8 ... ...
ROW 37 : ... .. A ... ... ... : ... .. A ... ... ... : ... .. . ... : ... .. 3 ... : ... .. . ... ... : ... .. 5 ... ... : ... .. 5 ... ... : ... .. . ... ...
ROW 38 : ... .. 2 ... ... ... : ... .. 2 ... ... ... : ... .. . ... : ... .. 2 ... : ... .. . ... ... : ... .. . ... ... : ... .. . ... ... : ... .. . ... ...
ROW 39 : ... .. . ... ... ... : ... .. . ... ... ... : --- .. . ... : ... .. 0 ... : ... .. . ... ... : ... .. 4 ... ... : ... .. 4 ... ... : --- .. . P84 ...
ROW 3A : C#5 00 F ... ... ... : F#2 00 F ... ... ... : G#3 00 . ... : 3-# 00 F ... : ... .. . ... ... : E-3 01 7 ... V05 : G#2 01 8 ... ... : G#2 01 F P80 ...
ROW 3B : ... .. E ... ... ... : ... .. E ... ... ... : ... .. . ... : ... .. C ... : ... .. . ... ... : ... .. 6 ... ... : ... .. 7 ... ... : ... .. D ... ...
ROW 3C : ... .. D ... ... ... : ... .. D ... ... ... : ... .. . ... : ... .. 6 ... : ... .. . ... ... : ... .. . ... ... : ... .. 6 ... ... : ... .. 8 ... ...
ROW 3D : ... .. A ... ... ... : ... .. A ... ... ... : ... .. . ... : ... .. 3 ... : ... .. . ... ... : ... .. . ... ... : ... .. 5 ... ... : ... .. . ... ...
ROW 3E : ... .. 2 ... ... ... : ... .. 2 ... ... ... : ... .. . ... : ... .. 2 ... : ... .. . ... ... : ... .. 5 ... ... : ... .. . ... ... : ... .. . ... ...
ROW 3F : ... .. . ... ... ... : ... .. . ... ... ... : --- .. . ... : ... .. 0 ... : ... .. . ... ... : ... .. . ... ... : ... .. 4 ... ... : --- .. . P7F ...
ROW 40 : D#5 00 F ... ... ... : G#1 00 F ... ... ... : D-4 00 . ... : 1-# 00 F ... : ... .. . ... ... : D#3 01 8 ... V00 : A#4 01 8 ... ... : D#1 01 F P80 ...
ROW 41 : ... .. E ... ... ... : ... .. E ... ... ... : E-3 00 . ... : ... .. C ... : ... .. . ... ... : ... .. 7 ... ... : ... .. 7 ... ... : ... .. D ... ...
ROW 42 : ... .. D ... ... ... : ... .. D ... ... ... : A-2 00 . ... : ... .. 6 ... : ... .. . ... ... : ... .. . ... ... : ... .. 6 ... ... : ... .. 8 ... ...
ROW 43 : ... .. A ... ... ... : ... .. A ... ... ... : G#2 00 . ... : ... .. 3 ... : ... .. . ... ... : ... .. 6 ... ... : ... .. 5 ... ... : ... .. . ... ...
ROW 44 : ... .. . ... ... ... : ... .. 2 ... ... ... : D#2 00 . ... : ... .. 2 ... : ... .. . ... ... : ... .. 5 ... ... : ... .. . ... ... : ... .. . ... ...
ROW 45 : ... .. . ... ... ... : ... .. . ... ... ... : --- .. . ... : ... .. 0 ... : ... .. . ... ... : ... .. . ... ... : ... .. 4 ... ... : --- .. . P81 ...
ROW 46 : C#5 00 F ... ... ... : ... .. F ... ... ... : D#2 00 . ... : D-# 00 F ... : ... .. . ... ... : C#3 01 7 ... V05 : B-4 01 8 ... ... : D#1 01 F P80 ...
ROW 47 : ... .. E ... ... ... : ... .. E ... ... ... : ... .. . ... : ... .. C ... : ... .. . ... ... : ... .. 6 ... ... : ... .. 7 ... ... : ... .. D ... ...
ROW 48 : ... .. D ... ... ... : ... .. D ... ... ... : ... .. . ... : ... .. 6 ... : ... .. . ... ... : ... .. . ... ... : ... .. 6 ... ... : ... .. 8 ... ...
ROW 49 : ... .. A ... ... ... : ... .. A ... ... ... : ... .. . ... : ... .. 3 ... : ... .. . ... ... : ... .. 5 ... ... : ... .. 5 ... ... : ... .. . ... ...
ROW 4A : ... .. 2 ... ... ... : ... .. 2 ... ... ... : ... .. . ... : ... .. 2 ... : ... .. . ... ... : ... .. . ... ... : ... .. . ... ... : ... .. . ... ...
ROW 4B : ... .. . ... ... ... : ... .. . ... ... ... : --- .. . ... : ... .. 0 ... : ... .. . ... ... : ... .. 4 ... ... : ... .. 4 ... ... : --- .. . P81 ...
ROW 4C : D#5 00 F ... ... ... : ... .. F ... ... ... : D#2 00 . ... : ... .. F ... : ... .. . ... ... : D#3 01 7 ... ... : A#4 01 8 ... ... : D#1 01 F P80 ...
ROW 4D : ... .. E ... ... ... : ... .. E ... ... ... : ... .. . ... : ... .. C ... : ... .. . ... ... : ... .. 6 ... ... : ... .. 7 ... ... : ... .. D ... ...
ROW 4E : ... .. D ... ... ... : ... .. D ... ... ... : ... .. . ... : ... .. 6 ... : ... .. . ... ... : ... .. . ... ... : ... .. 6 ... ... : ... .. 8 ... ...
ROW 4F : ... .. A ... ... ... : ... .. A ... ... ... : ... .. . ... : ... .. 3 ... : ... .. . ... ... : ... .. 5 ... ... : ... .. 5 ... ... : ... .. . ... ...
ROW 50 : ... .. . ... ... ... : ... .. 2 ... ... ... : ... .. . ... : ... .. 2 ... : ... .. . ... ... : ... .. . ... ... : ... .. . ... ... : ... .. . ... ...
ROW 51 : ... .. . ... ... ... : ... .. . ... ... ... : --- .. . ... : ... .. 0 ... : ... .. . ... ... : ... .. 4 ... ... : ... .. 4 ... ... : --- .. . P81 ...
ROW 52 : ... .. . ... ... ... : B-3 00 F ... ... ... : B-4 00 . ... : 6-# 00 F ... : ... .. . ... ... : G#3 01 7 ... ... : D#4 01 8 ... ... : B-3 01 F P80 ...
ROW 53 : ... .. . ... ... ... : ... .. E ... ... ... : ... .. . ... : ... .. C ... : ... .. . ... ... : ... .. 6 ... ... : ... .. 7 ... ... : ... .. D ... ...
ROW 54 : ... .. . ... ... ... : ... .. D ... ... ... : ... .. . ... : ... .. 6 ... : ... .. . ... ... : ... .. . ... ... : ... .. 6 ... ... : ... .. 8 ... ...
ROW 55 : ... .. . ... ... ... : ... .. A ... ... ... : ... .. . ... : ... .. 3 ... : ... .. . ... ... : ... .. . ... ... : ... .. 5 ... ... : ... .. . ... ...
ROW 56 : ... .. . ... ... ... : ... .. . ... ... ... : ... .. . ... : ... .. 2 ... : ... .. . ... ... : ... .. 5 ... ... : ... .. . ... ... : ... .. . ... ...
ROW 57 : ... .. . ... ... ... : ... .. . ... ... ... : --- .. . ... : ... .. 0 ... : ... .. . ... ... : ... .. . ... ... : ... .. 4 ... ... : --- .. . P8E ...
ROW 58 : ... .. . ... ... ... : A#3 00 F ... ... ... : F#4 00 . ... : D-# 00 F ... : ... .. . ... ... : F#3 01 8 ... V03 : ... .. . ... ... : F#3 01 F P80 ...
ROW 59 : ... .. . ... ... ... : ... .. E ... ... ... : ... .. . ... : ... .. C ... : ... .. . ... ... : ... .. 7 ... ... : ... .. . ... ... : ... .. D ... ...
ROW 5A : ... .. . ... ... ... : ... .. D ... ... ... : ... .. . ... : ... .. 6 ... : ... .. . ... ... : ... .. 6 ... ... : ... .. . ... ... : ... .. 8 ... ...
ROW 5B : ... .. . ... ... ... : ... .. A ... ... ... : ... .. . ... : ... .. 3 ... : ... .. . ... ... : ... .. 5 ... ... : ... .. . ... ... : ... .. . ... ...
ROW 5C : ... .. . ... ... ... : ... .. 2 ... ... ... : ... .. . ... : ... .. 2 ... : ... .. . ... ... : ... .. . ... ... : ... .. . ... ... : ... .. . ... ...
ROW 5D : ... .. . ... ... ... : ... .. . ... ... ... : --- .. . ... : ... .. 0 ... : ... .. . ... ... : ... .. 4 ... ... : ... .. . ... ... : --- .. . P82 ...
ROW 5E : ... .. . ... ... ... : F#2 00 F ... ... ... : G#4 00 . ... : ... .. F ... : ... .. . ... ... : G#3 01 8 ... V00 : ... .. . ... ... : G#3 01 F P80 ...
ROW 5F : ... .. . ... ... ... : ... .. E ... ... ... : ... .. . ... : ... .. C ... : ... .. . ... ... : ... .. 7 ... ... : ... .. . ... ... : ... .. D ... ...
ROW 60 : ... .. . ... ... ... : ... .. D ... ... ... : ... .. . ... : ... .. 6 ... : ... .. . ... ... : ... .. . ... ... : ... .. . ... ... : ... .. 8 ... ...
ROW 61 : ... .. . ... ... ... : ... .. A ... ... ... : ... .. . ... : ... .. 3 ... : ... .. . ... ... : ... .. 6 ... ... : ... .. . ... ... : ... .. . ... ...
ROW 62 : ... .. . ... ... ... : ... .. 2 ... ... ... : ... .. . ... : ... .. 2 ... : ... .. . ... ... : ... .. 5 ... ... : ... .. . ... ... : ... .. . ... ...
ROW 63 : ... .. . ... ... ... : ... .. . ... ... ... : --- .. . ... : ... .. 0 ... : ... .. . ... ... : ... .. . ... ... : ... .. . ... ... : --- .. . P7F ...
ROW 64 : ... .. . ... ... ... : G#1 00 F ... ... ... : D-4 00 . ... : 1-# 00 F ... : ... .. . ... ... : B-3 01 7 ... V05 : C#4 01 8 ... ... : D#1 01 F P80 ...
ROW 65 : ... .. . ... ... ... : ... .. E ... ... ... : E-3 00 . ... : ... .. C ... : ... .. . ... ... : ... .. 6 ... ... : ... .. 7 ... ... : ... .. D ... ...
ROW 66 : ... .. . ... ... ... : ... .. D ... ... ... : A-2 00 . ... : ... .. 6 ... : ... .. . ... ... : ... .. . ... ... : ... .. 6 ... ... : ... .. 8 ... ...
ROW 67 : ... .. . ... ... ... : ... .. A ... ... ... : G#2 00 . ... : ... .. 3 ... : ... .. . ... ... : ... .. . ... ... : ... .. 5 ... ... : ... .. . ... ...
ROW 68 : ... .. . ... ... ... : ... .. 2 ... ... ... : D#2 00 . ... : ... .. 2 ... : ... .. . ... ... : ... .. 5 ... ... : ... .. . ... ... : ... .. . ... ...
ROW 69 : ... .. . ... ... ... : ... .. . ... ... ... : --- .. . ... : ... .. 0 ... : ... .. . ... ... : ... .. . ... ... : ... .. 4 ... ... : --- .. . P81 ...
ROW 6A : ... .. . ... ... ... : ... .. F ... ... ... : D#2 00 . ... : D-# 00 F ... : ... .. . ... ... : A#3 01 8 ... V03 : D#4 01 8 ... ... : D#1 01 F P80 ...
ROW 6B : ... .. . ... ... ... : ... .. E ... ... ... : ... .. . ... : ... .. C ... : ... .. . ... ... : ... .. 7 ... ... : ... .. 7 ... ... : ... .. D ... ...
ROW 6C : ... .. . ... ... ... : ... .. D ... ... ... : ... .. . ... : ... .. 6 ... : ... .. . ... ... : ... .. 6 ... ... : ... .. 6 ... ... : ... .. 8 ... ...
ROW 6D : ... .. . ... ... ... : ... .. A ... ... ... : ... .. . ... : ... .. 3 ... : ... .. . ... ... : ... .. 5 ... ... : ... .. 5 ... ... : ... .. . ... ...
ROW 6E : ... .. . ... ... ... : ... .. 2 ... ... ... : ... .. . ... : ... .. 2 ... : ... .. . ... ... : ... .. . ... ... : ... .. . ... ... : ... .. . ... ...
ROW 6F : ... .. . ... ... ... : ... .. . ... ... ... : --- .. . ... : ... .. 0 ... : ... .. . ... ... : ... .. 4 ... ... : ... .. 4 ... ... : --- .. . P81 ...
ROW 70 : ... .. . ... ... ... : ... .. F ... ... ... : D#2 00 . ... : ... .. F ... : ... .. . ... ... : B-3 01 7 ... V05 : C#4 01 8 ... ... : D#1 01 F P80 ...
ROW 71 : ... .. . ... ... ... : ... .. E ... ... ... : ... .. . ... : ... .. C ... : ... .. . ... ... : ... .. 6 ... ... : ... .. 7 ... ... : ... .. D ... ...
ROW 72 : ... .. . ... ... ... : ... .. D ... ... ... : ... .. . ... : ... .. 6 ... : ... .. . ... ... : ... .. . ... ... : ... .. 6 ... ... : ... .. 8 ... ...
ROW 73 : ... .. . ... ... ... : ... .. A ... ... ... : ... .. . ... : ... .. 3 ... : ... .. . ... ... : ... .. 5 ... ... : ... .. 5 ... ... : ... .. . ... ...
ROW 74 : ... .. . ... ... ... : ... .. 2 ... ... ... : ... .. . ... : ... .. 2 ... : ... .. . ... ... : ... .. . ... ... : ... .. . ... ... : ... .. . ... ...
ROW 75 : ... .. . ... ... ... : ... .. . ... ... ... : --- .. . ... : ... .. 0 ... : ... .. . ... ... : ... .. 4 ... ... : ... .. 4 ... ... : --- .. . P81 ...
ROW 76 : ... .. . ... ... ... : F#3 00 F ... ... ... : F#3 00 . ... : 6-# 00 F ... : ... .. . ... ... : C#4 01 8 ... V03 : B-3 01 8 ... ... : F#2 01 F P80 ...
ROW 77 : ... .. . ... ... ... : ... .. E ... ... ... : ... .. . ... : ... .. C ... : ... .. . ... ... : ... .. 7 ... ... : ... .. 7 ... ... : ... .. D ... ...
ROW 78 : ... .. . ... ... ... : ... .. D ... ... ... : ... .. . ... : ... .. 6 ... : ... .. . ... ... : ... .. 6 ... ... : ... .. 6 ... ... : ... .. 8 ... ...
ROW 79 : ... .. . ... ... ... : ... .. A ... ... ... : ... .. . ... : ... .. 3 ... : ... .. . ... ... : ... .. 5 ... ... : ... .. 5 ... ... : ... .. . ... ...
ROW 7A : ... .. . ... ... ... : ... .. . ... ... ... : ... .. . ... : ... .. 2 ... : ... .. . ... ... : ... .. . ... ... : ... .. . ... ... : ... .. . ... ...
ROW 7B : ... .. . ... ... ... : ... .. . ... ... ... : --- .. . ... : ... .. 0 ... : ... .. . ... ... : ... .. 4 ... ... : ... .. 4 ... ... : --- .. . P84 ...
ROW 7C : ... .. . ... ... ... : C#3 00 F ... ... ... : G#3 00 . ... : 1-# 00 F ... : ... .. . ... ... : B-3 01 8 ... V00 : ... .. . ... ... : G#2 01 F P80 ...
ROW 7D : ... .. . ... ... ... : ... .. E ... ... ... : ... .. . ... : ... .. C ... : ... .. . ... ... : ... .. 7 ... ... : ... .. . ... ... : ... .. D ... ...
ROW 7E : ... .. . ... ... ... : ... .. D ... ... ... : ... .. . ... : ... .. 6 ... : ... .. . ... ... : ... .. . ... ... : ... .. . ... ... : ... .. 8 ... ...
ROW 7F : ... .. . ... ... ... : ... .. A ... ... ... : ... .. . ... : ... .. 3 ... : ... .. . ... ... : ... .. 6 ... ... : ... .. . ... ... : ... .. . ... ...
ROW 80 : ... .. . ... ... ... : ... .. 2 ... ... ... : ... .. . ... : ... .. 2 ... : ... .. . ... ... : ... .. 5 ... ... : ... .. . ... ... : ... .. . ... ...
ROW 81 : ... .. . ... ... ... : ... .. . ... ... ... : --- .. . ... : ... .. 0 ... : ... .. . ... ... : ... .. . ... ... : ... .. . ... ... : --- .. . P7F ...
ROW 82 : E-5 00 A P7E ... ... : F#1 00 F ... ... ... : B-3 00 . ... : 6-# 00 F ... : ... .. . ... ... : C#4 01 7 ... V05 : ... .. . ... ... : B-2 01 F P80 ...
ROW 83 : ... .. . P7F ... ... : ... .. E ... ... ... : ... .. . ... : ... .. C ... : ... .. . ... ... : ... .. 6 ... ... : ... .. . ... ... : ... .. D ... ...
ROW 84 : ... .. . P7E ... ... : ... .. D ... ... ... : ... .. . ... : ... .. 6 ... : ... .. . ... ... : ... .. . ... ... : ... .. . ... ... : ... .. 8 ... ...
ROW 85 : D#5 00 A P80 ... ... : ... .. A ... ... ... : ... .. . ... : ... .. 3 ... : ... .. . ... ... : ... .. . ... ... : ... .. . ... ... : ... .. . ... ...
ROW 86 : D-5 00 A P82 ... ... : ... .. . ... ... ... : ... .. . ... : ... .. 2 ... : ... .. . ... ... : ... .. 5 ... ... : ... .. . ... ... : ... .. . ... ...
ROW 87 : ... .. . P81 ... ... : ... .. . ... ... ... : --- .. . ... : ... .. 0 ... : ... .. . ... ... : ... .. . ... ... : ... .. . ... ... : --- .. . P8B ...
ROW 88 : ... .. . P82 ... ... : G#1 00 F ... ... ... : D-4 00 . ... : 1-# 00 F ... : ... .. . ... ... : F#4 01 8 ... V03 : A#3 01 8 ... ... : D#1 01 F P80 ...
ROW 89 : D#5 00 A P80 ... ... : ... .. E ... ... ... : E-3 00 . ... : ... .. C ... : ... .. . ... ... : ... .. 7 ... ... : ... .. 7 ... ... : ... .. D ... ...
ROW 8A : E-5 00 A P7E ... ... : ... .. D ... ... ... : A-2 00 . ... : ... .. 6 ... : ... .. . ... ... : ... .. 6 ... ... : ... .. 6 ... ... : ... .. 8 ... ...
ROW 8B : ... .. . P7F ... ... : ... .. A ... ... ... : G#2 00 . ... : ... .. 3 ... : ... .. . ... ... : ... .. 5 ... ... : ... .. 5 ... ... : ... .. . ... ...
ROW 8C : ... .. . P7E ... ... : ... .. 2 ... ... ... : D#2 00 . ... : ... .. 2 ... : ... .. . ... ... : ... .. . ... ... : ... .. . ... ... : ... .. . ... ...
ROW 8D : D#5 00 A P80 ... ... : ... .. . ... ... ... : --- .. . ... : ... .. 0 ... : ... .. . ... ... : ... .. 4 ... ... : ... .. 4 ... ... : --- .. . P81 ...
ROW 8E : D-5 00 A P82 ... ... : ... .. F ... ... ... : D#2 00 . ... : D-# 00 F ... : ... .. . ... ... : C#4 01 8 ... V00 : B-3 01 8 ... ... : D#1 01 F P80 ...
ROW 8F : ... .. . P81 ... ... : ... .. E ... ... ... : ... .. . ... : ... .. C ... : ... .. . ... ... : ... .. 7 ... ... : ... .. 7 ... ... : ... .. D ... ...
ROW 90 : ... .. . P82 ... ... : ... .. D ... ... ... : ... .. . ... : ... .. 6 ... : ... .. . ... ... : ... .. . ... ... : ... .. 6 ... ... : ... .. 8 ... ...
ROW 91 : D#5 00 A P80 ... ... : ... .. A ... ... ... : ... .. . ... : ... .. 3 ... : ... .. . ... ... : ... .. 6 ... ... : ... .. 5 ... ... : ... .. . ... ...
ROW 92 : E-5 00 A P7E ... ... : ... .. 2 ... ... ... : ... .. . ... : ... .. 2 ... : ... .. . ... ... : ... .. 5 ... ... : ... .. . ... ... : ... .. . ... ...
ROW 93 : ... .. . P7F ... ... : ... .. . ... ... ... : --- .. . ... : ... .. 0 ... : ... .. . ... ... : ... .. . ... ... : ... .. 4 ... ... : --- .. . P81 ...
ROW 94 : ... .. . P7E ... ... : ... .. F ... ... ... : D#2 00 . ... : ... .. F ... : ... .. . ... ... : F#4 01 8 ... ... : A#3 01 8 ... ... : D#1 01 F P80 ...
ROW 95 : D#5 00 A P80 ... ... : ... .. E ... ... ... : ... .. . ... : ... .. C ... : ... .. . ... ... : ... .. 7 ... ... : ... .. 7 ... ... : ... .. D ... ...
ROW 96 : D-5 00 A P82 ... ... : ... .. D ... ... ... : ... .. . ... : ... .. 6 ... : ... .. . ... ... : ... .. . ... ... : ... .. 6 ... ... : ... .. 8 ... ...
ROW 97 : ... .. . P81 ... ... : ... .. A ... ... ... : ... .. . ... : ... .. 3 ... : ... .. . ... ... : ... .. 6 ... ... : ... .. 5 ... ... : ... .. . ... ...
ROW 98 : ... .. . P82 ... ... : ... .. 2 ... ... ... : ... .. . ... : ... .. 2 ... : ... .. . ... ... : ... .. 5 ... ... : ... .. . ... ... : ... .. . ... ...
ROW 99 : D#5 00 A P80 ... ... : ... .. . ... ... ... : --- .. . ... : ... .. 0 ... : ... .. . ... ... : ... .. . ... ... : ... .. 4 ... ... : --- .. . P81 ...
ROW 9A : E-5 00 A P7E ... ... : E-3 00 F ... ... ... : B-2 00 . ... : 8-# 00 F ... : ... .. . ... ... : G#4 01 7 ... V05 : G#3 01 8 ... ... : B-1 01 F P80 ...
ROW 9B : ... .. . P7F ... ... : ... .. E ... ... ... : ... .. . ... : ... .. C ... : ... .. . ... ... : ... .. 6 ... ... : ... .. 7 ... ... : ... .. D ... ...
ROW 9C : ... .. . P7E ... ... : ... .. D ... ... ... : ... .. . ... : ... .. 6 ... : ... .. . ... ... : ... .. . ... ... : ... .. 6 ... ... : ... .. 8 ... ...
ROW 9D : D#5 00 A P80 ... ... : ... .. A ... ... ... : ... .. . ... : ... .. 3 ... : ... .. . ... ... : ... .. . ... ... : ... .. 5 ... ... : ... .. . ... ...
ROW 9E : D-5 00 A P82 ... ... : ... .. . ... ... ... : ... .. . ... : ... .. 2 ... : ... .. . ... ... : ... .. 5 ... ... : ... .. . ... ... : ... .. . ... ...
ROW 9F : ... .. . P81 ... ... : ... .. . ... ... ... : --- .. . ... : ... .. 0 ... : ... .. . ... ... : ... .. . ... ... : ... .. 4 ... ... : --- .. . P86 ...
ROW A0 : ... .. . P82 ... ... : D#3 00 F ... ... ... : F#3 00 . ... : 4-# 00 F ... : ... .. . ... ... : F#4 01 8 ... V03 : ... .. . ... ... : F#2 01 F P80 ...
ROW A1 : D#5 00 A P80 ... ... : ... .. E ... ... ... : ... .. . ... : ... .. C ... : ... .. . ... ... : ... .. 7 ... ... : ... .. . ... ... : ... .. D ... ...
ROW A2 : E-5 00 A P7E ... ... : ... .. D ... ... ... : ... .. . ... : ... .. 6 ... : ... .. . ... ... : ... .. 6 ... ... : ... .. . ... ... : ... .. 8 ... ...
ROW A3 : ... .. . P7F ... ... : ... .. A ... ... ... : ... .. . ... : ... .. 3 ... : ... .. . ... ... : ... .. 5 ... ... : ... .. . ... ... : ... .. . ... ...
ROW A4 : ... .. . P7E ... ... : ... .. 2 ... ... ... : ... .. . ... : ... .. 2 ... : ... .. . ... ... : ... .. . ... ... : ... .. . ... ... : ... .. . ... ...
ROW A5 : D#5 00 A P80 ... ... : ... .. . ... ... ... : --- .. . ... : ... .. 0 ... : ... .. . ... ... : ... .. 4 ... ... : ... .. . ... ... : --- .. . P84 ...
ROW A6 : D-5 00 A P82 ... ... : G#1 00 F ... ... ... : C#4 00 . ... : 1-# 00 F ... : ... .. . ... ... : G#4 01 7 ... V05 : ... .. . ... ... : C#3 01 F P80 ...
ROW A7 : ... .. . P81 ... ... : ... .. E ... ... ... : ... .. . ... : ... .. C ... : ... .. . ... ... : ... .. 6 ... ... : ... .. . ... ... : ... .. D ... ...
ROW A8 : ... .. . P82 ... ... : ... .. D ... ... ... : ... .. . ... : ... .. 6 ... : ... .. . ... ... : ... .. . ... ... : ... .. . ... ... : ... .. 8 ... ...
ROW A9 : D#5 00 A P80 ... ... : ... .. A ... ... ... : ... .. . ... : ... .. 3 ... : ... .. . ... ... : ... .. 5 ... ... : ... .. . ... ... : ... .. . ... ...
ROW AA : E-5 00 A P7E ... ... : ... .. 2 ... ... ... : ... .. . ... : ... .. 2 ... : ... .. . ... ... : ... .. . ... ... : ... .. . ... ... : ... .. . ... ...
ROW AB : ... .. . P7F ... ... : ... .. . ... ... ... : --- .. . ... : ... .. 0 ... : ... .. . ... ... : ... .. 4 ... ... : ... .. . ... ... : --- .. . ... ...
ROW AC : ... .. . P7E ... ... : C#3 00 F ... ... ... : D-4 00 . ... : 7-# 00 F ... : ... .. . ... ... : A#4 01 7 ... ... : D#3 01 8 ... ... : D#1 01 F ... ...
ROW AD : D#5 00 A P80 ... ... : ... .. E ... ... ... : E-3 00 . ... : ... .. C ... : ... .. . ... ... : ... .. 6 ... ... : ... .. 7 ... ... : ... .. D ... ...
ROW AE : D-5 00 A P82 ... ... : ... .. D ... ... ... : A-2 00 . ... : ... .. 6 ... : ... .. . ... ... : ... .. . ... ... : ... .. 6 ... ... : ... .. 8 ... ...
ROW AF : ... .. . P81 ... ... : ... .. A ... ... ... : G#2 00 . ... : ... .. 3 ... : ... .. . ... ... : ... .. 5 ... ... : ... .. 5 ... ... : ... .. . ... ...
ROW B0 : ... .. . P82 ... ... : ... .. . ... ... ... : D#2 00 . ... : ... .. 2 ... : ... .. . ... ... : ... .. . ... ... : ... .. . ... ... : ... .. . ... ...
ROW B1 : D#5 00 A P80 ... ... : ... .. . ... ... ... : --- .. . ... : ... .. 0 ... : ... .. . ... ... : ... .. 4 ... ... : ... .. 4 ... ... : --- .. . P81 ...
ROW B2 : E-5 00 A P7E ... ... : D#3 00 F ... ... ... : A#3 00 . ... : 3-# 00 F ... : ... .. . ... ... : G#4 01 7 ... ... : G#3 01 8 ... ... : A#2 01 F P80 ...
ROW B3 : ... .. . P7F ... ... : ... .. E ... ... ... : ... .. . ... : ... .. C ... : ... .. . ... ... : ... .. 6 ... ... : ... .. 7 ... ... : ... .. D ... ...
ROW B4 : ... .. . P7E ... ... : ... .. D ... ... ... : ... .. . ... : ... .. 6 ... : ... .. . ... ... : ... .. . ... ... : ... .. 6 ... ... : ... .. 8 ... ...
ROW B5 : D#5 00 A P80 ... ... : ... .. A ... ... ... : ... .. . ... : ... .. 3 ... : ... .. . ... ... : ... .. . ... ... : ... .. 5 ... ... : ... .. . ... ...
ROW B6 : D-5 00 A P82 ... ... : ... .. 2 ... ... ... : ... .. . ... : ... .. 2 ... : ... .. . ... ... : ... .. 5 ... ... : ... .. . ... ... : ... .. . ... ...
ROW B7 : ... .. . P81 ... ... : ... .. . ... ... ... : --- .. . ... : ... .. 0 ... : ... .. . ... ... : ... .. . ... ... : ... .. 4 ... ... : --- .. . ... ...
ROW B8 : ... .. . P82 ... ... : B-2 00 F ... ... ... : B-3 00 . ... : 1-# 00 F ... : ... .. . ... ... : A#4 01 8 ... V00 : D#3 01 8 ... ... : B-2 01 F ... ...
ROW B9 : D#5 00 A P80 ... ... : ... .. E ... ... ... : ... .. . ... : ... .. C ... : ... .. . ... ... : ... .. 7 ... ... : ... .. 7 ... ... : ... .. D ... ...
ROW BA : E-5 00 A P7E ... ... : ... .. D ... ... ... : ... .. . ... : ... .. 6 ... : ... .. . ... ... : ... .. . ... ... : ... .. 6 ... ... : ... .. 8 ... ...
ROW BB : ... .. . P7F ... ... : ... .. A ... ... ... : ... .. . ... : ... .. 3 ... : ... .. . ... ... : ... .. 6 ... ... : ... .. 5 ... ... : ... .. . ... ...
ROW BC : ... .. 2 P7E ... ... : ... .. 2 ... ... ... : ... .. . ... : ... .. 2 ... : ... .. . ... ... : ... .. 5 ... ... : ... .. . ... ... : ... .. . ... ...
ROW BD : D#5 00 2 P80 ... ... : ... .. . ... ... ... : --- .. . ... : ... .. 0 ... : ... .. . ... ... : ... .. . ... ... : ... .. 4 ... ... : --- .. . P8B ...
ROW BE : D-5 00 2 P82 ... ... : C#3 00 F ... ... ... : F#4 00 . ... : 6-# 00 F ... : ... .. . ... ... : B-4 01 8 ... V03 : B-2 01 8 ... ... : F#3 01 F P80 ...
ROW BF : ... .. 1 P81 ... ... : ... .. E ... ... ... : ... .. . ... : ... .. C ... : ... .. . ... ... : ... .. 7 ... ... : ... .. 7 ... ... : ... .. D ... ...
ROW C0 : ... .. . P82 ... ... : ... .. D ... ... ... : ... .. . ... : ... .. 6 ... : ... .. . ... ... : ... .. 6 ... ... : ... .. 6 ... ... : ... .. 8 ... ...
ROW C1 : D#5 00 1 P80 ... ... : ... .. A ... ... ... : ... .. . ... : ... .. 3 ... : ... .. . ... ... : ... .. 5 ... ... : ... .. 5 ... ... : ... .. . ... ...
ROW C2 : ... .. 0 ... ... ... : ... .. . ... ... ... : ... .. . ... : ... .. 2 ... : ... .. . ... ... : ... .. . ... ... : ... .. . ... ... : ... .. . ... ...
ROW C3 : ... .. . ... ... ... : ... .. . ... ... ... : --- .. . ... : ... .. 0 ... : ... .. . ... ... : ... .. 4 ... ... : ... .. 4 ... ... : --- .. . P82 ...
ROW C4 : ... .. . ... ... ... : F#2 00 F ... ... ... : C#4 00 . ... : 2-# 00 F ... : ... .. . ... ... : A#4 01 8 ... V00 : ... .. . ... ... : C#3 01 F P80 ...
ROW C5 : ... .. . ... ... ... : ... .. E ... ... ... : ... .. . ... : ... .. C ... : ... .. . ... ... : ... .. 7 ... ... : ... .. . ... ... : ... .. D ... ...
ROW C6 : ... .. . ... ... ... : ... .. D ... ... ... : ... .. . ... : ... .. 6 ... : ... .. . ... ... : ... .. . ... ... : ... .. . ... ... : ... .. 8 ... ...
ROW C7 : ... .. . ... ... ... : ... .. A ... ... ... : ... .. . ... : ... .. 3 ... : ... .. . ... ... : ... .. 6 ... ... : ... .. . ... ... : ... .. . ... ...
ROW C8 : ... .. . ... ... ... : ... .. 2 ... ... ... : ... .. . ... : ... .. 2 ... : ... .. . ... ... : ... .. 5 ... ... : ... .. . ... ... : ... .. . ... ...
ROW C9 : ... .. . ... ... ... : ... .. . ... ... ... : --- .. . ... : ... .. 0 ... : ... .. . ... ... : ... .. . ... ... : ... .. . ... ... : --- .. . ... ...
ROW CA : ... .. . ... ... ... : G#2 00 F ... ... ... : G#4 00 . ... : 1-# 00 F ... : ... .. . ... ... : B-4 01 7 ... V05 : ... .. . ... ... : G#3 01 F ... ...
ROW CB : ... .. . ... ... ... : ... .. E ... ... ... : ... .. . ... : ... .. C ... : ... .. . ... ... : ... .. 6 ... ... : ... .. . ... ... : ... .. D ... ...
ROW CC : ... .. . ... ... ... : ... .. D ... ... ... : ... .. . ... : ... .. 6 ... : ... .. . ... ... : ... .. . ... ... : ... .. . ... ... : ... .. 8 ... ...
ROW CD : ... .. . ... ... ... : ... .. A ... ... ... : ... .. . ... : ... .. 3 ... : ... .. . ... ... : ... .. . ... ... : ... .. . ... ... : ... .. . ... ...
ROW CE : ... .. . ... ... ... : ... .. 2 ... ... ... : ... .. . ... : ... .. 2 ... : ... .. . ... ... : ... .. 5 ... ... : ... .. . ... ... : ... .. . ... ...
ROW CF : ... .. . ... ... ... : ... .. . ... ... ... : --- .. . ... : ... .. 0 ... : ... .. . ... ... : ... .. . ... ... : ... .. . ... ... : --- .. . P7F ...
ROW D0 : G#1 00 F P7D ... ... : D#1 00 F ... ... ... : D-4 00 . ... : ... .. F ... : ... .. . ... ... : G#4 01 8 ... V03 : G#2 01 8 ... ... : D#1 01 F P80 ...
ROW D1 : ... .. E P80 ... ... : ... .. E ... ... ... : E-3 00 . ... : ... .. C ... : ... .. . ... ... : ... .. 7 ... ... : ... .. 7 ... ... : ... .. D ... ...
ROW D2 : ... .. D P83 ... ... : ... .. D ... ... ... : A-2 00 . ... : ... .. 6 ... : ... .. . ... ... : ... .. 6 ... ... : ... .. 6 ... ... : ... .. 8 ... ...
ROW D3 : ... .. A P84 ... ... : ... .. A ... ... ... : G#2 00 . ... : ... .. 3 ... : ... .. . ... ... : --- .. . ... ... : --- .. . ... ... : ... .. . ... ...
ROW D4 : ... .. 2 P83 ... ... : ... .. 2 ... ... ... : D#2 00 . ... : ... .. 2 ... : ... .. . ... ... : ... .. . ... ... : ... .. . ... ... : ... .. . ... ...
ROW D5 : ... .. . P80 ... ... : ... .. . ... ... ... : --- .. . ... : ... .. 0 ... : ... .. . ... ... : ... .. . ... ... : ... .. . ... ... : --- .. . P81 ...
ROW D6 : ... .. F P7D ... ... : ... .. F ... ... ... : D#2 00 . ... : ... .. F ... : ... .. . ... ... : G#4 01 8 ... ... : G#2 01 8 ... ... : D#1 01 F P80 ...
ROW D7 : ... .. E P7C ... ... : ... .. E ... ... ... : ... .. . ... : ... .. C ... : ... .. . ... ... : ... .. 7 ... ... : ... .. 7 ... ... : ... .. D ... ...
ROW D8 : ... .. D P7D ... ... : ... .. D ... ... ... : ... .. . ... : ... .. 6 ... : ... .. . ... ... : ... .. 6 ... ... : ... .. 6 ... ... : ... .. 8 ... ...
ROW D9 : ... .. A P80 ... ... : ... .. A ... ... ... : ... .. . ... : ... .. 3 ... : ... .. . ... ... : --- .. . ... ... : --- .. . ... ... : ... .. . ... ...
ROW DA : ... .. 2 P83 ... ... : ... .. 2 ... ... ... : ... .. . ... : ... .. 2 ... : ... .. . ... ... : ... .. . ... ... : ... .. . ... ... : ... .. . ... ...
ROW DB : ... .. . P84 ... ... : ... .. . ... ... ... : --- .. . ... : ... .. 0 ... : ... .. . ... ... : ... .. . ... ... : ... .. . ... ... : --- .. . P81 ...
ROW DC : ... .. F P83 ... ... : ... .. F ... ... ... : D#2 00 . ... : ... .. F ... : ... .. . ... ... : G#4 01 7 ... V05 : G#2 01 8 ... ... : D#1 01 F P80 ...
ROW DD : ... .. E P80 ... ... : ... .. E ... ... ... : ... .. . ... : ... .. C ... : ... .. . ... ... : ... .. 6 ... ... : ... .. 7 ... ... : ... .. D ... ...
ROW DE : ... .. D P7D ... ... : ... .. D ... ... ... : ... .. . ... : ... .. 6 ... : ... .. . ... ... : ... .. . ... ... : ... .. 6 ... ... : ... .. 8 ... ...
ROW DF : ... .. A P7C ... ... : ... .. A ... ... ... : ... .. . ... : ... .. 3 ... : ... .. . ... ... : --- .. . ... ... : --- .. . ... ... : ... .. . ... ...
ROW E0 : ... .. 2 P7D ... ... : ... .. 2 ... ... ... : ... .. . ... : ... .. 2 ... : ... .. . ... ... : ... .. . ... ... : ... .. . ... ... : ... .. . ... ...
ROW E1 : ... .. . P80 ... ... : ... .. . ... ... ... : --- .. . ... : ... .. 0 ... : ... .. . ... ... : ... .. . ... ... : ... .. . ... ... : --- .. . P81 ...
ROW E2 : F#4 00 F P83 ... ... : C#4 00 F ... ... ... : C#5 00 . ... : B-# 00 F ... : ... .. . ... ... : F#5 01 8 ... V00 : C#3 01 8 ... ... : C#4 01 F P80 ...
ROW E3 : ... .. E P84 ... ... : ... .. E ... ... ... : ... .. . ... : ... .. . ... : ... .. . ... ... : ... .. 7 ... ... : ... .. 7 ... ... : ... .. D ... ...
ROW E4 : ... .. D P83 ... ... : ... .. D ... ... ... : ... .. . ... : ... .. . ... : ... .. . ... ... : ... .. . ... ... : ... .. 6 ... ... : ... .. 8 ... ...
ROW E5 : ... .. A P80 ... ... : ... .. A ... ... ... : ... .. . ... : ... .. D ... : ... .. . ... ... : ... .. 6 ... ... : ... .. 5 ... ... : ... .. . ... ...
ROW E6 : ... .. . P7D ... ... : ... .. . ... ... ... : ... .. . ... : ... .. . ... : ... .. . ... ... : ... .. 5 ... ... : ... .. . ... ... : ... .. . ... ...
ROW E7 : ... .. . P7C ... ... : ... .. . ... ... ... : ... .. . ... : ... .. . ... : ... .. . ... ... : ... .. . ... ... : ... .. 4 ... ... : ... .. . ... ...
ROW E8 : F-4 00 A P83 ... ... : D-4 00 A P7B ... ... : D-5 00 . P81 : ... .. C ... : ... .. . ... ... : ... .. 4 ... ... : ... .. . ... ... : D-4 01 8 P7A ...
ROW E9 : F#4 00 A P80 ... ... : ... .. . P7D ... ... : D#5 00 . P7E : ... .. . ... : ... .. . ... ... : ... .. . ... ... : ... .. . ... ... : ... .. . P7C ...
ROW EA : G-4 00 A P7F ... ... : C#4 00 A P86 ... ... : D-5 00 . P80 : ... .. . ... : ... .. . ... ... : ... .. . ... ... : ... .. . ... ... : C#4 01 8 P86 ...
ROW EB : ... .. . P81 ... ... : ... .. . P80 ... ... : C#5 00 . ... : ... .. A ... : ... .. . ... ... : G-5 01 4 P7E ... : ... .. . P83 ... : ... .. . P80 ...
ROW EC : ... .. . P7E ... ... : C-4 00 A P85 ... ... : C-5 00 . P7F : ... .. . ... : ... .. . ... ... : ... .. . P7F ... : ... .. . P84 ... : C-4 01 8 P86 ...
ROW ED : F#4 00 A P80 ... ... : ... .. . P83 ... ... : B-4 00 . P83 : ... .. . ... : ... .. . ... ... : ... .. . P7E ... : ... .. . P83 ... : ... .. . P84 ...
ROW EE : F-4 00 A P82 ... ... : ... .. . P86 ... ... : C-5 00 . P80 : ... .. 9 ... : ... .. . ... ... : F#5 01 4 P80 ... : ... .. . P80 ... : C#4 01 8 P7A ...
ROW EF : ... .. . P80 ... ... : C#4 00 A P80 ... ... : C#5 00 . ... : ... .. . ... : ... .. . ... ... : F-5 01 4 P81 ... : ... .. . P7D ... : ... .. . P80 ...
ROW F0 : ... .. . P83 ... ... : D-4 00 A P7B ... ... : D-5 00 . P81 : ... .. . ... : ... .. . ... ... : ... .. . P80 ... : ... .. . P7C ... : D-4 01 8 P7A ...
ROW F1 : F#4 00 A P80 ... ... : ... .. . P7D ... ... : D#5 00 . P7E : ... .. 8 ... : ... .. . ... ... : ... .. . P81 ... : ... .. . P7D ... : ... .. . P7C ...
ROW F2 : G-4 00 A P7F ... ... : C#4 00 A P86 ... ... : D-5 00 . P80 : ... .. . ... : ... .. . ... ... : F#5 01 4 P80 ... : ... .. . P80 ... : C#4 01 8 P86 ...
ROW F3 : ... .. . P81 ... ... : ... .. . P80 ... ... : C#5 00 . ... : ... .. . ... : ... .. . ... ... : G-5 01 4 P7E ... : ... .. . P83 ... : ... .. . P80 ...
ROW F4 : G#1 00 F P80 ... ... : D#1 00 F ... ... ... : D-4 00 . ... : 1-# 00 F ... : ... .. . ... ... : G#4 01 8 P80 V03 : G#2 01 8 P80 ... : D#1 01 F ... ...
ROW F5 : ... .. E ... ... ... : ... .. E ... ... ... : E-3 00 . ... : ... .. C ... : ... .. . ... ... : ... .. 7 ... ... : ... .. 7 ... ... : ... .. D ... ...
ROW F6 : ... .. D ... ... ... : ... .. D ... ... ... : A-2 00 . ... : ... .. 6 ... : ... .. . ... ... : ... .. 6 ... ... : ... .. 6 ... ... : ... .. 8 ... ...
ROW F7 : ... .. A ... ... ... : ... .. A ... ... ... : G#2 00 . ... : ... .. 3 ... : ... .. . ... ... : --- .. . ... ... : --- .. . ... ... : ... .. . ... ...
ROW F8 : ... .. 2 ... ... ... : ... .. 2 ... ... ... : D#2 00 . ... : ... .. 2 ... : ... .. . ... ... : ... .. . ... ... : ... .. . ... ... : ... .. . ... ...
ROW F9 : ... .. . ... ... ... : ... .. . ... ... ... : --- .. . ... : ... .. 0 ... : ... .. . ... ... : ... .. . ... ... : ... .. . ... ... : --- .. . P81 ...
ROW FA : ... .. F ... ... ... : ... .. F ... ... ... : D#2 00 . ... : ... .. F ... : ... .. . ... ... : G#4 01 7 ... V05 : G#2 01 8 ... ... : D#1 01 F P80 ...
ROW FB : ... .. E ... ... ... : ... .. E ... ... ... : ... .. . ... : ... .. C ... : ... .. . ... ... : ... .. 6 ... ... : ... .. 7 ... ... : ... .. D ... ...
ROW FC : ... .. D ... ... ... : ... .. D ... ... ... : ... .. . ... : ... .. 6 ... : ... .. . ... ... : ... .. . ... ... : ... .. 6 ... ... : ... .. 8 ... ...
ROW FD : ... .. A ... ... ... : ... .. A ... ... ... : ... .. . ... : ... .. 3 ... : ... .. . ... ... : --- .. . ... ... : --- .. . ... ... : ... .. . ... ...
ROW FE : ... .. 2 ... ... ... : ... .. 2 ... ... ... : ... .. . ... : ... .. 2 ... : ... .. . ... ... : ... .. . ... ... : ... .. . ... ... : ... .. . ... ...
ROW FF : ... .. . ... ... ... : ... .. . ... ... ... : --- .. . ... : ... .. 0 ... : ... .. . ... ... : ... .. . ... ... : ... .. . ... ... : --- .. . P81 ...

PATTERN 0C
ROW 00 : ... .. F ... ... ... : ... .. F ... ... ... : D#2 00 . ... : ... .. F ... : ... .. . ... ... : G#4 01 8 ... V00 : G#2 01 8 ... ... : D#1 01 F P80 ...
ROW 01 : ... .. E ... ... ... : ... .. E ... ... ... : ... .. . ... : ... .. C ... : ... .. . ... ... : ... .. 7 ... ... : ... .. 7 ... ... : ... .. D ... ...
ROW 02 : ... .. D ... ... ... : ... .. D ... ... ... : ... .. . ... : ... .. 6 ... : ... .. . ... ... : ... .. . ... ... : ... .. 6 ... ... : ... .. 8 ... ...
ROW 03 : ... .. A ... ... ... : ... .. A ... ... ... : ... .. . ... : ... .. 3 ... : ... .. . ... ... : --- .. . ... ... : --- .. . ... ... : ... .. . ... ...
ROW 04 : ... .. 2 ... ... ... : ... .. 2 ... ... ... : ... .. . ... : ... .. 2 ... : ... .. . ... ... : ... .. . ... ... : ... .. . ... ... : ... .. . ... ...
ROW 05 : ... .. . ... ... ... : ... .. . ... ... ... : --- .. . ... : ... .. 0 ... : ... .. . ... ... : ... .. . ... ... : ... .. . ... ... : --- .. . P81 ...
ROW 06 : E-4 00 F ... ... ... : B-3 00 F ... ... ... : B-4 00 . ... : B-# 00 F ... : ... .. . ... ... : F#5 01 7 ... V05 : C#3 01 8 ... ... : B-3 01 F P80 ...
ROW 07 : ... .. E ... ... ... : ... .. E ... ... ... : ... .. . ... : ... .. . ... : ... .. . ... ... : ... .. 6 ... ... : ... .. 7 ... ... : ... .. D ... ...
ROW 08 : ... .. D ... ... ... : ... .. D ... ... ... : ... .. . ... : ... .. . ... : ... .. . ... ... : ... .. . ... ... : ... .. 6 ... ... : ... .. 8 ... ...
ROW 09 : ... .. A ... ... ... : ... .. A ... ... ... : ... .. . ... : ... .. D ... : ... .. . ... ... : ... .. 5 ... ... : ... .. 5 ... ... : ... .. . ... ...
ROW 0A : ... .. . ... ... ... : ... .. . ... ... ... : ... .. . ... : ... .. . ... : ... .. . ... ... : ... .. . ... ... : ... .. . ... ... : ... .. . ... ...
ROW 0B : ... .. . ... ... ... : ... .. . ... ... ... : ... .. . ... : ... .. . ... : ... .. . ... ... : ... .. 4 ... ... : ... .. 4 ... ... : ... .. . ... ...
ROW 0C : F-4 00 A P7D ... ... : C-4 00 A P7B ... ... : C-5 00 . P81 : ... .. C ... : ... .. . ... ... : ... .. . ... ... : ... .. . ... ... : ... .. . P87 ...
ROW 0D : ... .. . P7F ... ... : ... .. . P7D ... ... : ... .. . P83 : ... .. . ... : ... .. . ... ... : ... .. . ... ... : ... .. . ... ... : C-4 01 8 P7A ...
ROW 0E : ... .. . P7C ... ... : B-3 00 A P86 ... ... : ... .. . P80 : ... .. . ... : ... .. . ... ... : ... .. 3 ... ... : ... .. . ... ... : B-3 01 8 P86 ...
ROW 0F : E-4 00 A P80 ... ... : ... .. . P80 ... ... : B-4 00 . ... : ... .. A ... : ... .. . ... ... : G-5 01 3 P7E ... : ... .. . P83 ... : ... .. . P80 ...
ROW 10 : D#4 00 A P83 ... ... : A#3 00 A P87 ... ... : A#4 00 . ... : ... .. . ... : ... .. . ... ... : ... .. . P7F ... : ... .. . P84 ... : ... .. . P79 ...
ROW 11 : ... .. . P81 ... ... : ... .. . P85 ... ... : ... .. . P7E : ... .. . ... : ... .. . ... ... : ... .. 2 P7E ... : ... .. . P83 ... : A#3 01 8 P86 ...
ROW 12 : ... .. . P84 ... ... : B-3 00 A P7A ... ... : ... .. . P81 : ... .. 9 ... : ... .. . ... ... : F#5 01 2 P80 ... : ... .. . P80 ... : B-3 01 8 P7A ...
ROW 13 : E-4 00 A P80 ... ... : ... .. . P80 ... ... : B-4 00 . P80 : ... .. . ... : ... .. . ... ... : F-5 01 2 P81 ... : ... .. . P7D ... : ... .. . P80 ...
ROW 14 : F-4 00 A P7D ... ... : C-4 00 A P7B ... ... : C-5 00 . P81 : ... .. . ... : ... .. . ... ... : ... .. 1 P80 ... : ... .. . P7C ... : ... .. . P87 ...
ROW 15 : ... .. . P7F ... ... : ... .. . P7D ... ... : ... .. . P83 : ... .. 8 ... : ... .. . ... ... : ... .. . P81 ... : ... .. . P7D ... : C-4 01 8 P7A ...
ROW 16 : ... .. . P7C ... ... : B-3 00 A P86 ... ... : ... .. . P80 : ... .. . ... : ... .. . ... ... : F#5 01 1 P80 ... : ... .. . P80 ... : B-3 01 8 P86 ...
ROW 17 : E-4 00 A P80 ... ... : ... .. . P80 ... ... : B-4 00 . ... : ... .. . ... : ... .. . ... ... : G-5 01 1 P7E ... : ... .. . P83 ... : ... .. . P80 ...
ROW 18 : B-2 00 F ... ... ... : F#2 00 F ... ... ... : D-4 00 . ... : 1-# 00 F ... : ... .. . ... ... : C#5 01 8 P80 V00 : D#3 01 8 P80 ... : D#1 01 F ... ...
ROW 19 : ... .. E ... ... ... : ... .. E ... ... ... : E-3 00 . ... : ... .. C ... : ... .. . ... ... : ... .. 7 ... ... : ... .. 7 ... ... : ... .. D ... ...
ROW 1A : ... .. D ... ... ... : ... .. D ... ... ... : A-2 00 . ... : ... .. 6 ... : ... .. . ... ... : ... .. . ... ... : ... .. 6 ... ... : ... .. 8 ... ...
ROW 1B : ... .. A ... ... ... : ... .. A ... ... ... : G#2 00 . ... : ... .. 3 ... : ... .. . ... ... : ... .. 6 ... ... : ... .. 5 ... ... : ... .. . ... ...
ROW 1C : ... .. 2 ... ... ... : ... .. 2 ... ... ... : D#2 00 . ... : ... .. 2 ... : ... .. . ... ... : ... .. 5 ... ... : ... .. . ... ... : ... .. . ... ...
ROW 1D : ... .. . ... ... ... : ... .. . ... ... ... : --- .. . ... : ... .. 0 ... : ... .. . ... ... : ... .. . ... ... : ... .. 4 ... ... : --- .. . P81 ...
ROW 1E : ... .. F ... ... ... : ... .. F ... ... ... : D#2 00 . ... : ... .. F ... : ... .. . ... ... : D#5 01 8 ... ... : C#3 01 8 ... ... : D#1 01 F P80 ...
ROW 1F : ... .. E ... ... ... : ... .. E ... ... ... : ... .. . ... : ... .. C ... : ... .. . ... ... : ... .. 7 ... ... : ... .. 7 ... ... : ... .. D ... ...
ROW 20 : ... .. D ... ... ... : ... .. D ... ... ... : ... .. . ... : ... .. 6 ... : ... .. . ... ... : ... .. . ... ... : ... .. 6 ... ... : ... .. 8 ... ...
ROW 21 : ... .. A ... ... ... : ... .. A ... ... ... : ... .. . ... : ... .. 3 ... : ... .. . ... ... : ... .. 6 ... ... : ... .. 5 ... ... : ... .. . ... ...
ROW 22 : ... .. 2 ... ... ... : ... .. 2 ... ... ... : ... .. . ... : ... .. 2 ... : ... .. . ... ... : ... .. 5 ... ... : ... .. . ... ... : ... .. . ... ...
ROW 23 : ... .. . ... ... ... : ... .. . ... ... ... : --- .. . ... : ... .. 0 ... : ... .. . ... ... : ... .. . ... ... : ... .. 4 ... ... : --- .. . P81 ...
ROW 24 : ... .. F ... ... ... : ... .. F ... ... ... : F#3 00 . ... : ... .. F ... : ... .. . ... ... : B-4 01 7 ... V05 : B-2 01 8 ... ... : F#2 01 F P80 ...
ROW 25 : ... .. E ... ... ... : ... .. E ... ... ... : ... .. . ... : ... .. C ... : ... .. . ... ... : ... .. 6 ... ... : ... .. 7 ... ... : ... .. D ... ...
ROW 26 : ... .. D ... ... ... : ... .. D ... ... ... : ... .. . ... : ... .. 6 ... : ... .. . ... ... : ... .. . ... ... : ... .. 6 ... ... : ... .. 8 ... ...
ROW 27 : ... .. A ... ... ... : ... .. A ... ... ... : ... .. . ... : ... .. 3 ... : ... .. . ... ... : ... .. 5 ... ... : ... .. 5 ... ... : ... .. . ... ...
ROW 28 : ... .. 2 ... ... ... : ... .. 2 ... ... ... : ... .. . ... : ... .. 2 ... : ... .. . ... ... : ... .. . ... ... : ... .. . ... ... : ... .. . ... ...
ROW 29 : ... .. . ... ... ... : ... .. . ... ... ... : --- .. . ... : ... .. 0 ... : ... .. . ... ... : ... .. 4 ... ... : ... .. 4 ... ... : --- .. . P84 ...
ROW 2A : F#2 00 F ... ... ... : C#2 00 F ... ... ... : G#3 00 . ... : A-# 00 F ... : ... .. . ... ... : G#4 01 7 ... ... : C#3 01 8 ... ... : G#2 01 F P80 ...
ROW 2B : ... .. E ... ... ... : ... .. E ... ... ... : ... .. . ... : ... .. C ... : ... .. . ... ... : ... .. 6 ... ... : ... .. 7 ... ... : ... .. D ... ...
ROW 2C : ... .. D ... ... ... : ... .. D ... ... ... : ... .. . ... : ... .. 6 ... : ... .. . ... ... : ... .. . ... ... : ... .. 6 ... ... : ... .. 8 ... ...
ROW 2D : ... .. A ... ... ... : ... .. A ... ... ... : ... .. . ... : ... .. 3 ... : ... .. . ... ... : ... .. 5 ... ... : ... .. 5 ... ... : ... .. . ... ...
ROW 2E : ... .. 2 ... ... ... : ... .. 2 ... ... ... : ... .. . ... : ... .. 2 ... : ... .. . ... ... : ... .. . ... ... : ... .. . ... ... : ... .. . ... ...
ROW 2F : ... .. . ... ... ... : ... .. . ... ... ... : --- .. . ... : ... .. 0 ... : ... .. . ... ... : ... .. 4 ... ... : ... .. 4 ... ... : --- .. . P7F ...
ROW 30 : ... .. F ... ... ... : ... .. F ... ... ... : B-2 00 . ... : 5-# 00 F ... : ... .. . ... ... : D#4 01 7 ... ... : B-2 01 8 ... ... : B-1 01 F P80 ...
ROW 31 : ... .. E ... ... ... : ... .. E ... ... ... : ... .. . ... : ... .. C ... : ... .. . ... ... : ... .. 6 ... ... : ... .. 7 ... ... : ... .. D ... ...
ROW 32 : ... .. D ... ... ... : ... .. D ... ... ... : ... .. . ... : ... .. 6 ... : ... .. . ... ... : ... .. . ... ... : ... .. 6 ... ... : ... .. 8 ... ...
ROW 33 : ... .. A ... ... ... : ... .. A ... ... ... : ... .. . ... : ... .. 3 ... : ... .. . ... ... : ... .. . ... ... : ... .. 5 ... ... : ... .. . ... ...
ROW 34 : ... .. 2 ... ... ... : ... .. 2 ... ... ... : ... .. . ... : ... .. 2 ... : ... .. . ... ... : ... .. 5 ... ... : ... .. . ... ... : ... .. . ... ...
ROW 35 : ... .. . ... ... ... : ... .. . ... ... ... : --- .. . ... : ... .. 0 ... : ... .. . ... ... : ... .. . ... ... : ... .. 4 ... ... : --- .. . P86 ...
ROW 36 : ... .. F ... ... ... : ... .. F ... ... ... : C#3 00 . ... : 3-# 00 F ... : ... .. . ... ... : C#4 01 8 ... V00 : A#2 01 8 ... ... : C#2 01 F P80 ...
ROW 37 : ... .. E ... ... ... : ... .. E ... ... ... : ... .. . ... : ... .. C ... : ... .. . ... ... : ... .. 7 ... ... : ... .. 7 ... ... : ... .. D ... ...
ROW 38 : ... .. D ... ... ... : ... .. D ... ... ... : ... .. . ... : ... .. 6 ... : ... .. . ... ... : ... .. . ... ... : ... .. 6 ... ... : ... .. 8 ... ...
ROW 39 : ... .. A ... ... ... : ... .. A ... ... ... : ... .. . ... : ... .. 3 ... : ... .. . ... ... : ... .. 6 ... ... : ... .. 5 ... ... : ... .. . ... ...
ROW 3A : ... .. 2 ... ... ... : ... .. 2 ... ... ... : ... .. . ... : ... .. 2 ... : ... .. . ... ... : ... .. 5 ... ... : ... .. . ... ... : ... .. . ... ...
ROW 3B : ... .. . ... ... ... : ... .. . ... ... ... : --- .. . ... : ... .. 0 ... : ... .. . ... ... : ... .. . ... ... : ... .. 4 ... ... : --- .. . ... ...
ROW 3C : C#2 00 F ... ... ... : G#1 00 F ... ... ... : F-5 00 . ... : 8-# 00 F ... : ... .. . ... ... : B-3 01 8 ... ... : B-2 01 8 ... ... : F#2 01 F ... ...
ROW 3D : ... .. E ... ... ... : ... .. E ... ... ... : G-4 00 . ... : ... .. C ... : ... .. . ... ... : ... .. 7 ... ... : ... .. 7 ... ... : ... .. D ... ...
ROW 3E : ... .. D ... ... ... : ... .. D ... ... ... : C-4 00 . ... : ... .. 6 ... : ... .. . ... ... : ... .. . ... ... : ... .. 6 ... ... : ... .. 8 ... ...
ROW 3F : ... .. A ... ... ... : ... .. A ... ... ... : B-3 00 . ... : ... .. 3 ... : ... .. . ... ... : ... .. 6 ... ... : ... .. 5 ... ... : ... .. . ... ...
ROW 40 : ... .. 2 ... ... ... : ... .. 2 ... ... ... : F#3 00 . ... : ... .. 2 ... : ... .. . ... ... : ... .. 5 ... ... : ... .. . ... ... : ... .. . ... ...
ROW 41 : ... .. . ... ... ... : ... .. . ... ... ... : --- .. . ... : ... .. 0 ... : ... .. . ... ... : ... .. . ... ... : ... .. 4 ... ... : --- .. . P84 ...
ROW 42 : ... .. F ... ... ... : ... .. F ... ... ... : B-3 00 . ... : 7-# 00 F ... : ... .. . ... ... : C#4 01 7 ... V05 : A#2 01 8 ... ... : B-2 01 F P80 ...
ROW 43 : ... .. E ... ... ... : ... .. E ... ... ... : ... .. . ... : ... .. C ... : ... .. . ... ... : ... .. 6 ... ... : ... .. 7 ... ... : ... .. D ... ...
ROW 44 : ... .. D ... ... ... : ... .. D ... ... ... : ... .. . ... : ... .. 6 ... : ... .. . ... ... : ... .. . ... ... : ... .. 6 ... ... : ... .. 8 ... ...
ROW 45 : ... .. A ... ... ... : ... .. A ... ... ... : ... .. . ... : ... .. 3 ... : ... .. . ... ... : ... .. . ... ... : ... .. 5 ... ... : ... .. . ... ...
ROW 46 : ... .. 2 ... ... ... : ... .. 2 ... ... ... : ... .. . ... : ... .. 2 ... : ... .. . ... ... : ... .. 5 ... ... : ... .. . ... ... : ... .. . ... ...
ROW 47 : ... .. . ... ... ... : ... .. . ... ... ... : --- .. . ... : ... .. 0 ... : ... .. . ... ... : ... .. . ... ... : ... .. 4 ... ... : --- .. . P8B ...
ROW 48 : ... .. F ... ... ... : ... .. F ... ... ... : G#3 00 . ... : 6-# 00 F ... : ... .. . ... ... : D#4 01 7 ... ... : G#2 01 8 ... ... : G#2 01 F P80 ...
ROW 49 : ... .. E ... ... ... : ... .. E ... ... ... : ... .. . ... : ... .. C ... : ... .. . ... ... : ... .. 6 ... ... : ... .. 7 ... ... : ... .. D ... ...
ROW 4A : ... .. D ... ... ... : ... .. D ... ... ... : ... .. . ... : ... .. 6 ... : ... .. . ... ... : ... .. . ... ... : ... .. 6 ... ... : ... .. 8 ... ...
ROW 4B : ... .. A ... ... ... : ... .. A ... ... ... : ... .. . ... : ... .. 3 ... : ... .. . ... ... : ... .. 5 ... ... : ... .. 5 ... ... : ... .. . ... ...
ROW 4C : ... .. 2 ... ... ... : ... .. 2 ... ... ... : ... .. . ... : ... .. 2 ... : ... .. . ... ... : ... .. . ... ... : ... .. . ... ... : ... .. . ... ...
ROW 4D : ... .. . ... ... ... : ... .. . ... ... ... : --- .. . ... : ... .. 0 ... : ... .. . ... ... : ... .. 4 ... ... : ... .. 4 ... ... : --- .. . P7F ...
ROW 4E : F#1 00 F ... ... ... : C#1 00 F ... ... ... : D#4 00 . ... : 5-# 00 F ... : ... .. . ... ... : G#3 01 7 ... ... : A#2 01 8 ... ... : D#3 01 F P80 ...
ROW 4F : ... .. E ... ... ... : ... .. E ... ... ... : ... .. . ... : ... .. C ... : ... .. . ... ... : ... .. 6 ... ... : ... .. 7 ... ... : ... .. D ... ...
ROW 50 : ... .. D ... ... ... : ... .. D ... ... ... : ... .. . ... : ... .. 6 ... : ... .. . ... ... : ... .. . ... ... : ... .. 6 ... ... : ... .. 8 ... ...
ROW 51 : ... .. A ... ... ... : ... .. A ... ... ... : ... .. . ... : ... .. 3 ... : ... .. . ... ... : ... .. . ... ... : ... .. 5 ... ... : ... .. . ... ...
ROW 52 : ... .. 2 ... ... ... : ... .. 2 ... ... ... : ... .. . ... : ... .. 2 ... : ... .. . ... ... : ... .. 5 ... ... : ... .. . ... ... : ... .. . ... ...
ROW 53 : ... .. . ... ... ... : ... .. . ... ... ... : --- .. . ... : ... .. 0 ... : ... .. . ... ... : ... .. . ... ... : ... .. 4 ... ... : --- .. . P7F ...
ROW 54 : ... .. F ... ... ... : ... .. F ... ... ... : G#4 00 . ... : 4-# 00 F ... : ... .. . ... ... : D#3 01 8 ... V03 : G#2 01 8 ... ... : G#3 01 F P80 ...
ROW 55 : ... .. E ... ... ... : ... .. E ... ... ... : ... .. . ... : ... .. C ... : ... .. . ... ... : ... .. 7 ... ... : ... .. 7 ... ... : ... .. D ... ...
ROW 56 : ... .. D ... ... ... : ... .. D ... ... ... : ... .. . ... : ... .. 6 ... : ... .. . ... ... : ... .. 6 ... ... : ... .. 6 ... ... : ... .. 8 ... ...
ROW 57 : ... .. A ... ... ... : ... .. A ... ... ... : ... .. . ... : ... .. 3 ... : ... .. . ... ... : ... .. 5 ... ... : ... .. 5 ... ... : ... .. . ... ...
ROW 58 : ... .. 2 ... ... ... : ... .. 2 ... ... ... : ... .. . ... : ... .. 2 ... : ... .. . ... ... : ... .. . ... ... : ... .. . ... ... : ... .. . ... ...
ROW 59 : ... .. . ... ... ... : ... .. . ... ... ... : --- .. . ... : ... .. 0 ... : ... .. . ... ... : ... .. 4 ... ... : ... .. 4 ... ... : --- .. . P7F ...
ROW 5A : ... .. F ... ... ... : ... .. F ... ... ... : F#2 00 . ... : 3-# 00 F ... : ... .. . ... ... : B-2 01 8 ... V00 : F#2 01 8 ... ... : F#1 01 F P80 ...
ROW 5B : ... .. E ... ... ... : ... .. E ... ... ... : ... .. . ... : ... .. C ... : ... .. . ... ... : ... .. 7 ... ... : ... .. 7 ... ... : ... .. D ... ...
ROW 5C : ... .. D ... ... ... : ... .. D ... ... ... : ... .. . ... : ... .. 6 ... : ... .. . ... ... : ... .. . ... ... : ... .. 6 ... ... : ... .. 8 ... ...
ROW 5D : ... .. A ... ... ... : ... .. A ... ... ... : ... .. . ... : ... .. 3 ... : ... .. . ... ... : ... .. 6 ... ... : ... .. 5 ... ... : ... .. . ... ...
ROW 5E : ... .. 2 ... ... ... : ... .. 2 ... ... ... : ... .. . ... : ... .. 2 ... : ... .. . ... ... : ... .. 5 ... ... : ... .. . ... ... : ... .. . ... ...
ROW 5F : ... .. . ... ... ... : ... .. . ... ... ... : --- .. . ... : ... .. 0 ... : ... .. . ... ... : ... .. . ... ... : ... .. 4 ... ... : --- .. . P81 ...
ROW 60 : B-3 00 F ... ... ... : G#2 00 F ... ... ... : D#4 00 . ... : 1-# 00 F ... : ... .. . ... ... : ... .. 6 ... V03 : E-2 01 6 ... ... : E-1 01 F P80 ...
ROW 61 : ... .. E ... ... ... : ... .. E ... ... ... : F-3 00 . ... : ... .. C ... : ... .. . ... ... : ... .. . ... ... : ... .. . ... ... : ... .. D ... ...
ROW 62 : ... .. D ... ... ... : ... .. D ... ... ... : A#2 00 . ... : ... .. 6 ... : ... .. . ... ... : ... .. 5 ... ... : ... .. 5 ... ... : ... .. 8 ... ...
ROW 63 : ... .. A ... ... ... : ... .. A ... ... ... : A-2 00 . ... : ... .. 3 ... : ... .. . ... ... : ... .. 4 ... ... : ... .. 4 ... ... : ... .. . ... ...
ROW 64 : ... .. . ... ... ... : ... .. 2 ... ... ... : E-2 00 . ... : ... .. 2 ... : ... .. . ... ... : ... .. . ... ... : ... .. . ... ... : ... .. . ... ...
ROW 65 : ... .. . ... ... ... : ... .. . ... ... ... : --- .. . ... : ... .. 0 ... : ... .. . ... ... : ... .. . ... ... : ... .. . ... ... : --- .. . P82 ...
ROW 66 : B-4 00 F ... ... ... : ... .. F ... ... ... : E-2 00 . ... : D-# 00 F ... : ... .. . ... ... : A#2 01 6 ... V00 : ... .. . ... ... : E-1 01 F P80 ...
ROW 67 : ... .. E ... ... ... : ... .. E ... ... ... : ... .. . ... : ... .. C ... : ... .. . ... ... : ... .. . ... ... : ... .. 3 ... ... : ... .. D ... ...
ROW 68 : ... .. D ... ... ... : ... .. D ... ... ... : ... .. . ... : ... .. 6 ... : ... .. . ... ... : ... .. . ... ... : ... .. . ... ... : ... .. 8 ... ...
ROW 69 : ... .. A ... ... ... : ... .. A ... ... ... : ... .. . ... : ... .. 3 ... : ... .. . ... ... : ... .. 5 ... ... : ... .. . ... ... : ... .. . ... ...
ROW 6A : ... .. . ... ... ... : ... .. 2 ... ... ... : ... .. . ... : ... .. 2 ... : ... .. . ... ... : ... .. 4 ... ... : ... .. . ... ... : ... .. . ... ...
ROW 6B : ... .. . ... ... ... : ... .. . ... ... ... : --- .. . ... : ... .. 0 ... : ... .. . ... ... : ... .. . ... ... : ... .. . ... ... : --- .. . P82 ...
ROW 6C : A#4 00 F ... ... ... : ... .. F ... ... ... : E-2 00 . ... : ... .. F ... : ... .. . ... ... : B-2 01 6 ... V05 : E-3 01 6 ... ... : E-1 01 F P80 ...
ROW 6D : ... .. E ... ... ... : ... .. E ... ... ... : ... .. . ... : ... .. C ... : ... .. . ... ... : ... .. 5 ... ... : ... .. . ... ... : ... .. D ... ...
ROW 6E : ... .. D ... ... ... : ... .. D ... ... ... : ... .. . ... : ... .. 6 ... : ... .. . ... ... : ... .. . ... ... : ... .. 5 ... ... : ... .. 8 ... ...
ROW 6F : ... .. A ... ... ... : ... .. A ... ... ... : ... .. . ... : ... .. 3 ... : ... .. . ... ... : ... .. 4 ... ... : ... .. 4 ... ... : ... .. . ... ...
ROW 70 : ... .. . ... ... ... : ... .. 2 ... ... ... : ... .. . ... : ... .. 2 ... : ... .. . ... ... : ... .. . ... ... : ... .. . ... ... : ... .. . ... ...
ROW 71 : ... .. . ... ... ... : ... .. . ... ... ... : --- .. . ... : ... .. 0 ... : ... .. . ... ... : ... .. . ... ... : ... .. . ... ... : --- .. . P82 ...
ROW 72 : ... .. . ... ... ... : B-2 00 F ... ... ... : B-3 00 . ... : 6-# 00 F ... : ... .. . ... ... : C#3 01 6 ... ... : ... .. . ... ... : B-2 01 F P80 ...
ROW 73 : ... .. . ... ... ... : ... .. E ... ... ... : ... .. . ... : ... .. C ... : ... .. . ... ... : ... .. 5 ... ... : ... .. 3 ... ... : ... .. D ... ...
ROW 74 : ... .. . ... ... ... : ... .. D ... ... ... : ... .. . ... : ... .. 6 ... : ... .. . ... ... : ... .. . ... ... : ... .. . ... ... : ... .. 8 ... ...
ROW 75 : ... .. . ... ... ... : ... .. A ... ... ... : ... .. . ... : ... .. 3 ... : ... .. . ... ... : ... .. . ... ... : ... .. . ... ... : ... .. . ... ...
ROW 76 : ... .. 2 ... ... ... : ... .. . ... ... ... : ... .. . ... : ... .. 2 ... : ... .. . ... ... : ... .. 4 ... ... : ... .. . ... ... : ... .. . ... ...
ROW 77 : ... .. . ... ... ... : ... .. . ... ... ... : --- .. . ... : ... .. 0 ... : ... .. . ... ... : ... .. . ... ... : ... .. . ... ... : --- .. . P8B ...
ROW 78 : G#3 00 F ... ... ... : F#2 00 F ... ... ... : A#3 00 . ... : D-# 00 F ... : ... .. . ... ... : B-2 01 6 ... ... : D#3 01 6 ... ... : A#2 01 F P80 ...
ROW 79 : ... .. E ... ... ... : ... .. E ... ... ... : ... .. . ... : ... .. C ... : ... .. . ... ... : ... .. 5 ... ... : ... .. . ... ... : ... .. D ... ...
ROW 7A : ... .. D ... ... ... : ... .. D ... ... ... : ... .. . ... : ... .. 6 ... : ... .. . ... ... : ... .. . ... ... : ... .. 5 ... ... : ... .. 8 ... ...
ROW 7B : ... .. A ... ... ... : ... .. A ... ... ... : ... .. . ... : ... .. 3 ... : ... .. . ... ... : ... .. . ... ... : ... .. 4 ... ... : ... .. . ... ...
ROW 7C : ... .. 2 ... ... ... : ... .. 2 ... ... ... : ... .. . ... : ... .. 2 ... : ... .. . ... ... : ... .. 4 ... ... : ... .. . ... ... : ... .. . ... ...
ROW 7D : ... .. . ... ... ... : ... .. . ... ... ... : --- .. . ... : ... .. 0 ... : ... .. . ... ... : ... .. . ... ... : ... .. . ... ... : --- .. . ... ...
ROW 7E : A#3 00 F ... ... ... : ... .. F ... ... ... : D#2 00 . ... : ... .. F ... : ... .. . ... ... : C#3 01 6 ... V00 : ... .. . ... ... : D#1 01 F ... ...
ROW 7F : ... .. E ... ... ... : ... .. E ... ... ... : ... .. . ... : ... .. C ... : ... .. . ... ... : ... .. . ... ... : ... .. 3 ... ... : ... .. D ... ...
ROW 80 : ... .. D ... ... ... : ... .. D ... ... ... : ... .. . ... : ... .. 6 ... : ... .. . ... ... : ... .. . ... ... : ... .. . ... ... : ... .. 8 ... ...
ROW 81 : ... .. A ... ... ... : ... .. A ... ... ... : ... .. . ... : ... .. 3 ... : ... .. . ... ... : ... .. 5 ... ... : ... .. . ... ... : ... .. . ... ...
ROW 82 : ... .. 2 ... ... ... : ... .. 2 ... ... ... : ... .. . ... : ... .. 2 ... : ... .. . ... ... : ... .. 4 ... ... : ... .. . ... ... : ... .. . ... ...
ROW 83 : ... .. . ... ... ... : ... .. . ... ... ... : --- .. . ... : ... .. 0 ... : ... .. . ... ... : ... .. . ... ... : ... .. . ... ... : --- .. . P81 ...
ROW 84 : B-3 00 F ... ... ... : G#2 00 F ... ... ... : D#4 00 . ... : 1-# 00 F ... : ... .. . ... ... : D#3 01 6 ... V05 : C#3 01 6 ... ... : E-1 01 F P80 ...
ROW 85 : ... .. E ... ... ... : ... .. E ... ... ... : F-3 00 . ... : ... .. C ... : ... .. . ... ... : ... .. 5 ... ... : ... .. . ... ... : ... .. D ... ...
ROW 86 : ... .. D ... ... ... : ... .. D ... ... ... : A#2 00 . ... : ... .. 6 ... : ... .. . ... ... : ... .. . ... ... : ... .. 5 ... ... : ... .. 8 ... ...
ROW 87 : ... .. A ... ... ... : ... .. A ... ... ... : A-2 00 . ... : ... .. 3 ... : ... .. . ... ... : ... .. . ... ... : ... .. 4 ... ... : ... .. . ... ...
ROW 88 : ... .. . ... ... ... : ... .. 2 ... ... ... : E-2 00 . ... : ... .. 2 ... : ... .. . ... ... : ... .. 4 ... ... : ... .. . ... ... : ... .. . ... ...
ROW 89 : ... .. . ... ... ... : ... .. . ... ... ... : --- .. . ... : ... .. 0 ... : ... .. . ... ... : ... .. . ... ... : ... .. . ... ... : --- .. . P82 ...
ROW 8A : A#4 00 F ... ... ... : ... .. F ... ... ... : E-2 00 . ... : D-# 00 F ... : ... .. . ... ... : C#3 01 6 ... ... : ... .. . ... ... : E-1 01 F P80 ...
ROW 8B : ... .. E ... ... ... : ... .. E ... ... ... : ... .. . ... : ... .. C ... : ... .. . ... ... : ... .. 5 ... ... : ... .. 3 ... ... : ... .. D ... ...
ROW 8C : ... .. D ... ... ... : ... .. D ... ... ... : ... .. . ... : ... .. 6 ... : ... .. . ... ... : ... .. . ... ... : ... .. . ... ... : ... .. 8 ... ...
ROW 8D : ... .. A ... ... ... : ... .. A ... ... ... : ... .. . ... : ... .. 3 ... : ... .. . ... ... : ... .. 4 ... ... : ... .. . ... ... : ... .. . ... ...
ROW 8E : ... .. . ... ... ... : ... .. 2 ... ... ... : ... .. . ... : ... .. 2 ... : ... .. . ... ... : ... .. . ... ... : ... .. . ... ... : ... .. . ... ...
ROW 8F : ... .. . ... ... ... : ... .. . ... ... ... : --- .. . ... : ... .. 0 ... : ... .. . ... ... : ... .. . ... ... : ... .. . ... ... : --- .. . P82 ...
ROW 90 : G#4 00 F ... ... ... : ... .. F ... ... ... : E-2 00 . ... : ... .. F ... : ... .. . ... ... : D#3 01 6 ... V03 : D#3 01 6 ... ... : E-1 01 F P80 ...
ROW 91 : ... .. E ... ... ... : ... .. E ... ... ... : ... .. . ... : ... .. C ... : ... .. . ... ... : ... .. . ... ... : ... .. . ... ... : ... .. D ... ...
ROW 92 : ... .. D ... ... ... : ... .. D ... ... ... : ... .. . ... : ... .. 6 ... : ... .. . ... ... : ... .. 5 ... ... : ... .. 5 ... ... : ... .. 8 ... ...
ROW 93 : ... .. A ... ... ... : ... .. A ... ... ... : ... .. . ... : ... .. 3 ... : ... .. . ... ... : ... .. 4 ... ... : ... .. 4 ... ... : ... .. . ... ...
ROW 94 : ... .. . ... ... ... : ... .. 2 ... ... ... : ... .. . ... : ... .. 2 ... : ... .. . ... ... : ... .. . ... ... : ... .. . ... ... : ... .. . ... ...
ROW 95 : ... .. . ... ... ... : ... .. . ... ... ... : --- .. . ... : ... .. 0 ... : ... .. . ... ... : ... .. . ... ... : ... .. . ... ... : --- .. . P82 ...
ROW 96 : ... .. . ... ... ... : C#3 00 F ... ... ... : C#4 00 . ... : 6-# 00 F ... : ... .. . ... ... : E-3 01 6 ... V00 : ... .. . ... ... : C#3 01 F P80 ...
ROW 97 : ... .. . ... ... ... : ... .. E ... ... ... : ... .. . ... : ... .. C ... : ... .. . ... ... : ... .. . ... ... : ... .. 3 ... ... : ... .. D ... ...
ROW 98 : ... .. . ... ... ... : ... .. D ... ... ... : ... .. . ... : ... .. 6 ... : ... .. . ... ... : ... .. . ... ... : ... .. . ... ... : ... .. 8 ... ...
ROW 99 : ... .. . ... ... ... : ... .. A ... ... ... : ... .. . ... : ... .. 3 ... : ... .. . ... ... : ... .. 5 ... ... : ... .. . ... ... : ... .. . ... ...
ROW 9A : ... .. 2 ... ... ... : ... .. . ... ... ... : ... .. . ... : ... .. 2 ... : ... .. . ... ... : ... .. 4 ... ... : ... .. . ... ... : ... .. . ... ...
ROW 9B : ... .. . ... ... ... : ... .. . ... ... ... : --- .. . ... : ... .. 0 ... : ... .. . ... ... : ... .. . ... ... : ... .. . ... ... : --- .. . ... ...
ROW 9C : D#4 00 F ... ... ... : B-2 00 F ... ... ... : D#4 00 . ... : 1-# 00 F ... : ... .. . ... ... : D#3 01 6 ... V05 : B-2 01 6 ... ... : D#3 01 F ... ...
ROW 9D : ... .. E ... ... ... : ... .. E ... ... ... : ... .. . ... : ... .. C ... : ... .. . ... ... : ... .. 5 ... ... : ... .. . ... ... : ... .. D ... ...
ROW 9E : ... .. D ... ... ... : ... .. D ... ... ... : ... .. . ... : ... .. 6 ... : ... .. . ... ... : ... .. . ... ... : ... .. 5 ... ... : ... .. 8 ... ...
ROW 9F : ... .. A ... ... ... : ... .. A ... ... ... : ... .. . ... : ... .. 3 ... : ... .. . ... ... : ... .. . ... ... : ... .. 4 ... ... : ... .. . ... ...
ROW A0 : ... .. 2 ... ... ... : ... .. . ... ... ... : ... .. . ... : ... .. 2 ... : ... .. . ... ... : ... .. 4 ... ... : ... .. . ... ... : ... .. . ... ...
ROW A1 : ... .. . ... ... ... : ... .. . ... ... ... : --- .. . ... : ... .. 0 ... : ... .. . ... ... : ... .. . ... ... : ... .. . ... ... : --- .. . P7F ...
ROW A2 : G#4 00 F ... ... ... : F#2 00 F ... ... ... : E-2 00 . ... : 6-# 00 F ... : ... .. . ... ... : E-3 01 6 ... ... : ... .. . ... ... : E-1 01 F P80 ...
ROW A3 : ... .. E ... ... ... : ... .. E ... ... ... : ... .. . ... : ... .. C ... : ... .. . ... ... : ... .. 5 ... ... : ... .. 3 ... ... : ... .. D ... ...
ROW A4 : ... .. D ... ... ... : ... .. D ... ... ... : ... .. . ... : ... .. 6 ... : ... .. . ... ... : ... .. . ... ... : ... .. . ... ... : ... .. 8 ... ...
ROW A5 : ... .. A ... ... ... : ... .. A ... ... ... : ... .. . ... : ... .. 3 ... : ... .. . ... ... : ... .. 4 ... ... : ... .. . ... ... : ... .. . ... ...
ROW A6 : ... .. 2 ... ... ... : ... .. 2 ... ... ... : ... .. . ... : ... .. 2 ... : ... .. . ... ... : ... .. . ... ... : ... .. . ... ... : ... .. . ... ...
ROW A7 : ... .. . ... ... ... : ... .. . ... ... ... : --- .. . ... : ... .. 0 ... : ... .. . ... ... : ... .. . ... ... : ... .. . ... ... : --- .. . P82 ...
ROW A8 : B-4 00 F ... ... ... : G#2 00 F ... ... ... : D#5 00 . ... : 1-# 00 F ... : ... .. . ... ... : F#3 01 6 ... ... : E-2 01 6 ... ... : E-2 01 F P80 ...
ROW A9 : ... .. E ... ... ... : ... .. E ... ... ... : F-4 00 . ... : ... .. C ... : ... .. . ... ... : ... .. 5 ... ... : ... .. . ... ... : ... .. D ... ...
ROW AA : ... .. D ... ... ... : ... .. D ... ... ... : A#3 00 . ... : ... .. 6 ... : ... .. . ... ... : ... .. . ... ... : ... .. 5 ... ... : ... .. 8 ... ...
ROW AB : ... .. A ... ... ... : ... .. A ... ... ... : A-3 00 . ... : ... .. 3 ... : ... .. . ... ... : ... .. 4 ... ... : ... .. 4 ... ... : ... .. . ... ...
ROW AC : ... .. . ... ... ... : ... .. 2 ... ... ... : E-3 00 . ... : ... .. 2 ... : ... .. . ... ... : ... .. . ... ... : ... .. . ... ... : ... .. . ... ...
ROW AD : ... .. . ... ... ... : ... .. . ... ... ... : --- .. . ... : ... .. 0 ... : ... .. . ... ... : ... .. . ... ... : ... .. . ... ... : --- .. . P89 ...
ROW AE : ... .. . ... ... ... : ... .. F ... ... ... : E-3 00 . ... : D-# 00 F ... : ... .. . ... ... : E-3 01 6 ... V00 : ... .. . ... ... : E-2 01 F P80 ...
ROW AF : ... .. . ... ... ... : ... .. E ... ... ... : ... .. . ... : ... .. C ... : ... .. . ... ... : ... .. . ... ... : ... .. 3 ... ... : ... .. D ... ...
ROW B0 : ... .. . ... ... ... : ... .. D ... ... ... : ... .. . ... : ... .. 6 ... : ... .. . ... ... : ... .. . ... ... : ... .. . ... ... : ... .. 8 ... ...
ROW B1 : ... .. . ... ... ... : ... .. A ... ... ... : ... .. . ... : ... .. 3 ... : ... .. . ... ... : ... .. 5 ... ... : ... .. . ... ... : ... .. . ... ...
ROW B2 : ... .. 2 ... ... ... : ... .. 2 ... ... ... : ... .. . ... : ... .. 2 ... : ... .. . ... ... : ... .. 4 ... ... : ... .. . ... ... : ... .. . ... ...
ROW B3 : ... .. . ... ... ... : ... .. . ... ... ... : --- .. . ... : ... .. 0 ... : ... .. . ... ... : ... .. . ... ... : ... .. . ... ... : --- .. . P89 ...
ROW B4 : G#4 00 F ... ... ... : ... .. F ... ... ... : E-3 00 . ... : ... .. F ... : ... .. . ... ... : F#3 01 6 ... V03 : E-3 01 6 ... ... : E-2 01 F P80 ...
ROW B5 : ... .. E ... ... ... : ... .. E ... ... ... : ... .. . ... : ... .. C ... : ... .. . ... ... : ... .. . ... ... : ... .. . ... ... : ... .. D ... ...
ROW B6 : ... .. D ... ... ... : ... .. D ... ... ... : ... .. . ... : ... .. 6 ... : ... .. . ... ... : ... .. 5 ... ... : ... .. 5 ... ... : ... .. 8 ... ...
ROW B7 : ... .. A ... ... ... : ... .. A ... ... ... : ... .. . ... : ... .. 3 ... : ... .. . ... ... : ... .. 4 ... ... : ... .. 4 ... ... : ... .. . ... ...
ROW B8 : ... .. . ... ... ... : ... .. 2 ... ... ... : ... .. . ... : ... .. 2 ... : ... .. . ... ... : ... .. . ... ... : ... .. . ... ... : ... .. . ... ...
ROW B9 : ... .. . ... ... ... : ... .. . ... ... ... : --- .. . ... : ... .. 0 ... : ... .. . ... ... : ... .. . ... ... : ... .. . ... ... : --- .. . P89 ...
ROW BA : ... .. . ... ... ... : E-3 00 F ... ... ... : B-3 00 . ... : 8-# 00 F ... : ... .. . ... ... : G#3 01 6 ... V05 : ... .. . ... ... : B-2 01 F P80 ...
ROW BB : ... .. . ... ... ... : ... .. E ... ... ... : ... .. . ... : ... .. C ... : ... .. . ... ... : ... .. 5 ... ... : ... .. 3 ... ... : ... .. D ... ...
ROW BC : ... .. . ... ... ... : ... .. D ... ... ... : ... .. . ... : ... .. 6 ... : ... .. . ... ... : ... .. . ... ... : ... .. . ... ... : ... .. 8 ... ...
ROW BD : ... .. . ... ... ... : ... .. A ... ... ... : ... .. . ... : ... .. 3 ... : ... .. . ... ... : ... .. 4 ... ... : ... .. . ... ... : ... .. . ... ...
ROW BE : ... .. 2 ... ... ... : ... .. . ... ... ... : ... .. . ... : ... .. 2 ... : ... .. . ... ... : ... .. . ... ... : ... .. . ... ... : ... .. . ... ...
ROW BF : ... .. . ... ... ... : ... .. . ... ... ... : --- .. . ... : ... .. 0 ... : ... .. . ... ... : ... .. . ... ... : ... .. . ... ... : --- .. . P8B ...
ROW C0 : F#5 00 F ... ... ... : D#3 00 F ... ... ... : A#3 00 . ... : 4-# 00 F ... : ... .. . ... ... : F#3 01 6 ... V03 : D#3 01 6 ... ... : A#2 01 F P80 ...
ROW C1 : ... .. E ... ... ... : ... .. E ... ... ... : ... .. . ... : ... .. C ... : ... .. . ... ... : ... .. . ... ... : ... .. . ... ... : ... .. D ... ...
ROW C2 : ... .. D ... ... ... : ... .. D ... ... ... : ... .. . ... : ... .. 6 ... : ... .. . ... ... : ... .. 5 ... ... : ... .. 5 ... ... : ... .. 8 ... ...
ROW C3 : ... .. A ... ... ... : ... .. A ... ... ... : ... .. . ... : ... .. 3 ... : ... .. . ... ... : ... .. 4 ... ... : ... .. 4 ... ... : ... .. . ... ...
ROW C4 : ... .. . ... ... ... : ... .. . ... ... ... : ... .. . ... : ... .. 2 ... : ... .. . ... ... : ... .. . ... ... : ... .. . ... ... : ... .. . ... ...
ROW C5 : ... .. . ... ... ... : ... .. . ... ... ... : --- .. . ... : ... .. 0 ... : ... .. . ... ... : ... .. . ... ... : ... .. . ... ... : --- .. . ... ...
ROW C6 : ... .. . ... ... ... : B-2 00 F ... ... ... : B-3 00 . ... : 1-# 00 F ... : ... .. . ... ... : G#3 01 6 ... V00 : ... .. . ... ... : B-2 01 F ... ...
ROW C7 : ... .. . ... ... ... : ... .. E ... ... ... : ... .. . ... : ... .. C ... : ... .. . ... ... : ... .. . ... ... : ... .. 3 ... ... : ... .. D ... ...
ROW C8 : ... .. . ... ... ... : ... .. D ... ... ... : ... .. . ... : ... .. 6 ... : ... .. . ... ... : ... .. . ... ... : ... .. . ... ... : ... .. 8 ... ...
ROW C9 : ... .. . ... ... ... : ... .. A ... ... ... : ... .. . ... : ... .. 3 ... : ... .. . ... ... : ... .. 5 ... ... : ... .. . ... ... : ... .. . ... ...
ROW CA : ... .. 2 ... ... ... : ... .. 2 ... ... ... : ... .. . ... : ... .. 2 ... : ... .. . ... ... : ... .. 4 ... ... : ... .. . ... ... : ... .. . ... ...
ROW CB : ... .. . ... ... ... : ... .. . ... ... ... : --- .. . ... : ... .. 0 ... : ... .. . ... ... : ... .. . ... ... : ... .. . ... ... : --- .. . P8B ...
ROW CC : B-4 00 F ... ... ... : C#3 00 F ... ... ... : D#3 00 . ... : 7-# 00 F ... : ... .. . ... ... : A#3 01 6 ... V03 : C#3 01 6 ... ... : E-0 01 F P80 ...
ROW CD : ... .. E ... ... ... : ... .. E ... ... ... : F-2 00 . ... : ... .. C ... : ... .. . ... ... : ... .. . ... ... : ... .. . ... ... : ... .. D ... ...
ROW CE : ... .. D ... ... ... : ... .. D ... ... ... : A#1 00 . ... : ... .. 6 ... : ... .. . ... ... : ... .. 5 ... ... : ... .. 5 ... ... : ... .. 8 ... ...
ROW CF : ... .. A ... ... ... : ... .. A ... ... ... : A-1 00 . ... : ... .. 3 ... : ... .. . ... ... : ... .. 4 ... ... : ... .. 4 ... ... : ... .. . ... ...
ROW D0 : ... .. . ... ... ... : ... .. . ... ... ... : E-1 00 . ... : ... .. 2 ... : ... .. . ... ... : ... .. . ... ... : ... .. . ... ... : ... .. . ... ...
ROW D1 : ... .. . ... ... ... : ... .. . ... ... ... : --- .. . ... : ... .. 0 ... : ... .. . ... ... : ... .. . ... ... : ... .. . ... ... : --- .. . ... ...
ROW D2 : A#4 00 F ... ... ... : F#2 00 F ... ... ... : G#4 00 . ... : 3-# 00 F ... : ... .. . ... ... : G#3 01 6 ... V05 : ... .. . ... ... : G#3 01 F ... ...
ROW D3 : ... .. E ... ... ... : ... .. E ... ... ... : ... .. . ... : ... .. C ... : ... .. . ... ... : ... .. 5 ... ... : ... .. 3 ... ... : ... .. D ... ...
ROW D4 : ... .. D ... ... ... : ... .. D ... ... ... : ... .. . ... : ... .. 6 ... : ... .. . ... ... : ... .. . ... ... : ... .. . ... ... : ... .. 8 ... ...
ROW D5 : ... .. A ... ... ... : ... .. A ... ... ... : ... .. . ... : ... .. 3 ... : ... .. . ... ... : ... .. 4 ... ... : ... .. . ... ... : ... .. . ... ...
ROW D6 : ... .. 2 ... ... ... : ... .. . ... ... ... : ... .. . ... : ... .. 2 ... : ... .. . ... ... : ... .. . ... ... : ... .. . ... ... : ... .. . ... ...
ROW D7 : ... .. . ... ... ... : ... .. . ... ... ... : --- .. . ... : ... .. 0 ... : ... .. . ... ... : ... .. . ... ... : ... .. . ... ... : --- .. . P7F ...
ROW D8 : B-4 00 F ... ... ... : G#2 00 F ... ... ... : E-1 00 . ... : 1-# 00 F ... : ... .. . ... ... : A#3 01 6 ... ... : B-2 01 6 ... ... : E-0 01 F P80 ...
ROW D9 : ... .. E ... ... ... : ... .. E ... ... ... : ... .. . ... : ... .. C ... : ... .. . ... ... : ... .. 5 ... ... : ... .. . ... ... : ... .. D ... ...
ROW DA : ... .. D ... ... ... : ... .. D ... ... ... : ... .. . ... : ... .. 6 ... : ... .. . ... ... : ... .. . ... ... : ... .. 5 ... ... : ... .. 8 ... ...
ROW DB : ... .. A ... ... ... : ... .. A ... ... ... : ... .. . ... : ... .. 3 ... : ... .. . ... ... : ... .. 4 ... ... : ... .. 4 ... ... : ... .. . ... ...
ROW DC : ... .. 2 ... ... ... : ... .. 2 ... ... ... : ... .. . ... : ... .. 2 ... : ... .. . ... ... : ... .. . ... ... : ... .. . ... ... : ... .. . ... ...
ROW DD : ... .. . ... ... ... : ... .. . ... ... ... : --- .. . ... : ... .. 0 ... : ... .. . ... ... : ... .. . ... ... : ... .. . ... ... : --- .. . ... ...
ROW DE : C#5 00 F ... ... ... : C#2 00 F ... ... ... : F#4 00 . ... : 6-# 00 F ... : ... .. . ... ... : B-3 01 6 ... ... : ... .. . ... ... : F#3 01 F ... ...
ROW DF : ... .. E ... ... ... : ... .. E ... ... ... : ... .. . ... : ... .. C ... : ... .. . ... ... : ... .. 5 ... ... : ... .. 3 ... ... : ... .. D ... ...
ROW E0 : ... .. D ... ... ... : ... .. D ... ... ... : ... .. . ... : ... .. 6 ... : ... .. . ... ... : ... .. . ... ... : ... .. . ... ... : ... .. 8 ... ...
ROW E1 : ... .. A ... ... ... : ... .. A ... ... ... : ... .. . ... : ... .. 3 ... : ... .. . ... ... : ... .. . ... ... : ... .. . ... ... : ... .. . ... ...
ROW E2 : ... .. . ... ... ... : ... .. . ... ... ... : ... .. . ... : ... .. 2 ... : ... .. . ... ... : ... .. 4 ... ... : ... .. . ... ... : ... .. . ... ...
ROW E3 : ... .. . ... ... ... : ... .. . ... ... ... : --- .. . ... : ... .. 0 ... : ... .. . ... ... : ... .. . ... ... : ... .. . ... ... : --- .. . P82 ...
ROW E4 : B-4 00 F ... ... ... : D#2 00 F ... ... ... : C#4 00 . ... : 2-# 00 F ... : ... .. . ... ... : A#3 01 6 ... V00 : D#3 01 6 ... ... : C#3 01 F P80 ...
ROW E5 : ... .. E ... ... ... : ... .. E ... ... ... : ... .. . ... : ... .. C ... : ... .. . ... ... : ... .. . ... ... : ... .. . ... ... : ... .. D ... ...
ROW E6 : ... .. D ... ... ... : ... .. D ... ... ... : ... .. . ... : ... .. 6 ... : ... .. . ... ... : ... .. . ... ... : ... .. 5 ... ... : ... .. 8 ... ...
ROW E7 : ... .. A ... ... ... : ... .. A ... ... ... : ... .. . ... : ... .. 3 ... : ... .. . ... ... : ... .. 5 ... ... : ... .. 4 ... ... : ... .. . ... ...
ROW E8 : ... .. 2 ... ... ... : ... .. . ... ... ... : ... .. . ... : ... .. 2 ... : ... .. . ... ... : ... .. 4 ... ... : ... .. . ... ... : ... .. . ... ...
ROW E9 : ... .. . ... ... ... : ... .. . ... ... ... : --- .. . ... : ... .. 0 ... : ... .. . ... ... : ... .. . ... ... : ... .. . ... ... : --- .. . ... ...
ROW EA : C#5 00 F ... ... ... : B-1 00 F ... ... ... : D#4 00 . ... : 1-# 00 F ... : ... .. . ... ... : B-3 01 6 ... ... : ... .. . ... ... : D#3 01 F ... ...
ROW EB : ... .. E ... ... ... : ... .. E ... ... ... : ... .. . ... : ... .. C ... : ... .. . ... ... : ... .. . ... ... : ... .. 3 ... ... : ... .. D ... ...
ROW EC : ... .. D ... ... ... : ... .. D ... ... ... : ... .. . ... : ... .. 6 ... : ... .. . ... ... : ... .. . ... ... : ... .. . ... ... : ... .. 8 ... ...
ROW ED : ... .. A ... ... ... : ... .. A ... ... ... : ... .. . ... : ... .. 3 ... : ... .. . ... ... : ... .. 5 ... ... : ... .. . ... ... : ... .. . ... ...
ROW EE : ... .. 2 ... ... ... : ... .. 2 ... ... ... : ... .. . ... : ... .. 2 ... : ... .. . ... ... : ... .. 4 ... ... : ... .. . ... ... : ... .. . ... ...
ROW EF : ... .. . ... ... ... : ... .. . ... ... ... : --- .. . ... : ... .. 0 ... : ... .. . ... ... : ... .. . ... ... : ... .. . ... ... : --- .. . P7F ...
ROW F0 : D#5 00 F ... ... ... : G#1 00 F ... ... ... : D#4 00 . ... : ... .. F ... : ... .. . ... ... : C#4 01 6 ... V05 : E-2 01 6 ... ... : E-1 01 F P80 ...
ROW F1 : ... .. E ... ... ... : ... .. E ... ... ... : F-3 00 . ... : ... .. C ... : ... .. . ... ... : ... .. 5 ... ... : ... .. . ... ... : ... .. D ... ...
ROW F2 : ... .. D ... ... ... : ... .. D ... ... ... : A#2 00 . ... : ... .. 6 ... : ... .. . ... ... : ... .. . ... ... : ... .. 5 ... ... : ... .. 8 ... ...
ROW F3 : ... .. A ... ... ... : ... .. A ... ... ... : A-2 00 . ... : ... .. 3 ... : ... .. . ... ... : ... .. . ... ... : ... .. 4 ... ... : ... .. . ... ...
ROW F4 : ... .. . ... ... ... : ... .. 2 ... ... ... : E-2 00 . ... : ... .. 2 ... : ... .. . ... ... : ... .. 4 ... ... : ... .. . ... ... : ... .. . ... ...
ROW F5 : ... .. . ... ... ... : ... .. . ... ... ... : --- .. . ... : ... .. 0 ... : ... .. . ... ... : ... .. . ... ... : ... .. . ... ... : --- .. . P82 ...
ROW F6 : C#5 00 F ... ... ... : ... .. F ... ... ... : E-2 00 . ... : ... .. F ... : ... .. . ... ... : D#4 01 6 ... V00 : ... .. . ... ... : E-1 01 F P80 ...
ROW F7 : ... .. E ... ... ... : ... .. E ... ... ... : ... .. . ... : ... .. C ... : ... .. . ... ... : ... .. . ... ... : ... .. 3 ... ... : ... .. D ... ...
ROW F8 : ... .. D ... ... ... : ... .. D ... ... ... : ... .. . ... : ... .. 6 ... : ... .. . ... ... : ... .. . ... ... : ... .. . ... ... : ... .. 8 ... ...
ROW F9 : ... .. A ... ... ... : ... .. A ... ... ... : ... .. . ... : ... .. 3 ... : ... .. . ... ... : ... .. 5 ... ... : ... .. . ... ... : ... .. . ... ...
ROW FA : ... .. 2 ... ... ... : ... .. 2 ... ... ... : ... .. . ... : ... .. 2 ... : ... .. . ... ... : ... .. 4 ... ... : ... .. . ... ... : ... .. . ... ...
ROW FB : ... .. . ... ... ... : ... .. . ... ... ... : --- .. . ... : ... .. 0 ... : ... .. . ... ... : ... .. . ... ... : ... .. . ... ... : --- .. . P82 ...
ROW FC : B-4 00 F ... ... ... : ... .. F ... ... ... : E-2 00 . ... : ... .. F ... : ... .. . ... ... : E-4 01 6 ... V03 : E-3 01 6 ... ... : E-1 01 F P80 ...
ROW FD : ... .. E ... ... ... : ... .. E ... ... ... : ... .. . ... : ... .. C ... : ... .. . ... ... : ... .. . ... ... : ... .. . ... ... : ... .. D ... ...
ROW FE : ... .. D ... ... ... : ... .. D ... ... ... : ... .. . ... : ... .. 6 ... : ... .. . ... ... : ... .. 5 ... ... : ... .. 5 ... ... : ... .. 8 ... ...
ROW FF : ... .. A ... ... ... : ... .. A ... ... ... : ... .. . ... : ... .. 3 ... : ... .. . ... ... : ... .. 4 ... ... : ... .. 4 ... ... : ... .. . ... ...

PATTERN 0D
ROW 00 : ... .. . ... ... ... : ... .. 2 ... ... ... : ... .. . ... : ... .. 2 ... : ... .. . ... ... : ... .. . ... ... : ... .. . ... ... : ... .. . ... ...
ROW 01 : ... .. . ... ... ... : ... .. . ... ... ... : --- .. . ... : ... .. 0 ... : ... .. . ... ... : ... .. . ... ... : ... .. . ... ... : --- .. . P82 ...
ROW 02 : ... .. . ... ... ... : C#3 00 F ... ... ... : D#4 00 . ... : B-# 00 F ... : ... .. . ... ... : C#4 01 6 ... V05 : ... .. . ... ... : D#3 01 F P80 ...
ROW 03 : ... .. . ... ... ... : ... .. E ... ... ... : ... .. . ... : ... .. . ... : ... .. . ... ... : ... .. 5 ... ... : ... .. 3 ... ... : ... .. D ... ...
ROW 04 : ... .. . ... ... ... : ... .. D ... ... ... : ... .. . ... : ... .. . ... : ... .. . ... ... : ... .. . ... ... : ... .. . ... ... : ... .. 8 ... ...
ROW 05 : ... .. . ... ... ... : ... .. A ... ... ... : ... .. . ... : ... .. D ... : ... .. . ... ... : ... .. . ... ... : ... .. . ... ... : ... .. . ... ...
ROW 06 : ... .. . ... ... ... : ... .. . ... ... ... : ... .. . ... : ... .. . ... : ... .. . ... ... : ... .. 4 ... ... : ... .. . ... ... : ... .. . ... ...
ROW 07 : ... .. . ... ... ... : ... .. . ... ... ... : ... .. . ... : ... .. . ... : ... .. . ... ... : ... .. . ... ... : ... .. . ... ... : ... .. . ... ...
ROW 08 : ... .. . ... ... ... : ... .. . ... ... ... : E-4 00 . P7D : ... .. C ... : ... .. . ... ... : D#4 01 6 ... ... : D#3 01 6 ... ... : ... .. . P87 ...
ROW 09 : ... .. . ... ... ... : ... .. . ... ... ... : ... .. . P7F : ... .. . ... : ... .. . ... ... : ... .. 5 ... ... : ... .. . ... ... : ... .. . P89 ...
ROW 0A : ... .. . ... ... ... : ... .. . ... ... ... : ... .. . P7C : ... .. . ... : ... .. . ... ... : ... .. . ... ... : ... .. 5 ... ... : ... .. . P86 ...
ROW 0B : ... .. . P83 ... ... : D-3 00 A P88 ... ... : D#4 00 . P80 : ... .. A ... : ... .. . ... ... : ... .. 4 ... ... : ... .. 4 ... ... : ... .. . P80 ...
ROW 0C : C-5 00 A P7E ... ... : D#3 00 A P7F ... ... : D-4 00 . P83 : ... .. . ... : ... .. . ... ... : ... .. . ... ... : ... .. . ... ... : ... .. . P79 ...
ROW 0D : B-4 00 A P83 ... ... : D-3 00 A P84 ... ... : ... .. . P81 : ... .. . ... : ... .. . ... ... : ... .. . ... ... : ... .. . ... ... : ... .. . P77 ...
ROW 0E : ... .. . P80 ... ... : C#3 00 A P80 ... ... : ... .. . P84 : ... .. 9 ... : ... .. . ... ... : E-4 01 6 ... ... : ... .. . ... ... : ... .. . P7A ...
ROW 0F : ... .. . P7D ... ... : C-3 00 A P79 ... ... : D#4 00 . P80 : ... .. . ... : ... .. . ... ... : ... .. 5 ... ... : ... .. 3 ... ... : ... .. . P80 ...
ROW 10 : A#4 00 A P83 ... ... : B-2 00 A P86 ... ... : E-4 00 . P7D : ... .. . ... : ... .. . ... ... : ... .. . ... ... : ... .. . ... ... : ... .. . P87 ...
ROW 11 : B-4 00 A P7D ... ... : C-3 00 A P7D ... ... : ... .. . P7F : ... .. 8 ... : ... .. . ... ... : ... .. . ... ... : ... .. . ... ... : ... .. . P89 ...
ROW 12 : ... .. . P80 ... ... : C#3 00 2 P80 ... ... : ... .. . P7C : ... .. . ... : ... .. . ... ... : ... .. 4 ... ... : ... .. . ... ... : ... .. . P86 ...
ROW 13 : ... .. . P83 ... ... : D-3 00 2 P88 ... ... : D#4 00 . P80 : ... .. . ... : ... .. . ... ... : ... .. . ... ... : ... .. . ... ... : ... .. . P80 ...
ROW 14 : C-5 00 A P7E ... ... : G#1 00 F P80 ... ... : ... .. . ... : 1-# 00 F ... : ... .. . ... ... : F#4 01 6 ... V00 : C#3 01 6 ... ... : E-1 01 F ... ...
ROW 15 : B-4 00 A P83 ... ... : ... .. E ... ... ... : F-3 00 . ... : ... .. C ... : ... .. . ... ... : ... .. . ... ... : ... .. . ... ... : ... .. D ... ...
ROW 16 : ... .. . P80 ... ... : ... .. D ... ... ... : A#2 00 . ... : ... .. 6 ... : ... .. . ... ... : ... .. . ... ... : ... .. 5 ... ... : ... .. 8 ... ...
ROW 17 : ... .. . P7D ... ... : ... .. A ... ... ... : A-2 00 . ... : ... .. 3 ... : ... .. . ... ... : ... .. 5 ... ... : ... .. 4 ... ... : ... .. . ... ...
ROW 18 : A#4 00 A P83 ... ... : ... .. 2 ... ... ... : E-2 00 . ... : ... .. 2 ... : ... .. . ... ... : ... .. 4 ... ... : ... .. . ... ... : ... .. . ... ...
ROW 19 : B-4 00 A P7D ... ... : ... .. . ... ... ... : --- .. . ... : ... .. 0 ... : ... .. . ... ... : ... .. . ... ... : ... .. . ... ... : --- .. . P82 ...
ROW 1A : ... .. . P80 ... ... : ... .. F ... ... ... : E-2 00 . ... : ... .. F ... : ... .. . ... ... : D#4 01 6 ... V05 : ... .. . ... ... : E-1 01 F P80 ...
ROW 1B : ... .. . P83 ... ... : ... .. E ... ... ... : ... .. . ... : ... .. C ... : ... .. . ... ... : ... .. 5 ... ... : ... .. 3 ... ... : ... .. D ... ...
ROW 1C : C-5 00 A P7E ... ... : ... .. D ... ... ... : ... .. . ... : ... .. 6 ... : ... .. . ... ... : ... .. . ... ... : ... .. . ... ... : ... .. 8 ... ...
ROW 1D : B-4 00 A P83 ... ... : ... .. A ... ... ... : ... .. . ... : ... .. 3 ... : ... .. . ... ... : ... .. 4 ... ... : ... .. . ... ... : ... .. . ... ...
ROW 1E : ... .. . P80 ... ... : ... .. 2 ... ... ... : ... .. . ... : ... .. 2 ... : ... .. . ... ... : ... .. . ... ... : ... .. . ... ... : ... .. . ... ...
ROW 1F : ... .. . P7D ... ... : ... .. . ... ... ... : --- .. . ... : ... .. 0 ... : ... .. . ... ... : ... .. . ... ... : ... .. . ... ... : --- .. . P82 ...
ROW 20 : A#4 00 A P83 ... ... : ... .. F ... ... ... : E-2 00 . ... : ... .. F ... : ... .. . ... ... : E-4 01 6 ... ... : B-2 01 6 ... ... : E-1 01 F P80 ...
ROW 21 : B-4 00 A P7D ... ... : ... .. E ... ... ... : ... .. . ... : ... .. C ... : ... .. . ... ... : ... .. 5 ... ... : ... .. . ... ... : ... .. D ... ...
ROW 22 : ... .. . P80 ... ... : ... .. D ... ... ... : ... .. . ... : ... .. 6 ... : ... .. . ... ... : ... .. . ... ... : ... .. 5 ... ... : ... .. 8 ... ...
ROW 23 : ... .. . P83 ... ... : ... .. A ... ... ... : ... .. . ... : ... .. 3 ... : ... .. . ... ... : ... .. . ... ... : ... .. 4 ... ... : ... .. . ... ...
ROW 24 : C-5 00 A P7E ... ... : ... .. 2 ... ... ... : ... .. . ... : ... .. 2 ... : ... .. . ... ... : ... .. 4 ... ... : ... .. . ... ... : ... .. . ... ...
ROW 25 : B-4 00 A P83 ... ... : ... .. . ... ... ... : --- .. . ... : ... .. 0 ... : ... .. . ... ... : ... .. . ... ... : ... .. . ... ... : --- .. . P82 ...
ROW 26 : ... .. . P80 ... ... : C#3 00 F ... ... ... : D#3 00 . ... : B-# 00 F ... : ... .. . ... ... : F#4 01 6 ... V00 : ... .. . ... ... : D#2 01 F P80 ...
ROW 27 : ... .. . P7D ... ... : ... .. E ... ... ... : ... .. . ... : ... .. . ... : ... .. . ... ... : ... .. . ... ... : ... .. 3 ... ... : ... .. D ... ...
ROW 28 : A#4 00 A P83 ... ... : ... .. D ... ... ... : ... .. . ... : ... .. . ... : ... .. . ... ... : ... .. . ... ... : ... .. . ... ... : ... .. 8 ... ...
ROW 29 : B-4 00 A P7D ... ... : ... .. A ... ... ... : ... .. . ... : ... .. D ... : ... .. . ... ... : ... .. 5 ... ... : ... .. . ... ... : ... .. . ... ...
ROW 2A : ... .. 2 P80 ... ... : ... .. . ... ... ... : ... .. . ... : ... .. . ... : ... .. . ... ... : ... .. 4 ... ... : ... .. . ... ... : ... .. . ... ...
ROW 2B : ... .. . P83 ... ... : ... .. . ... ... ... : ... .. . ... : ... .. . ... : ... .. . ... ... : ... .. . ... ... : ... .. . ... ... : ... .. . ... ...
ROW 2C : C-5 00 2 P7E ... ... : D-3 00 A P88 ... ... : ... .. . P87 : ... .. C ... : ... .. . ... ... : G#4 01 6 ... ... : D#3 01 6 ... ... : ... .. . P87 ...
ROW 2D : B-4 00 1 P83 ... ... : D#3 00 A P7F ... ... : ... .. . P89 : ... .. . ... : ... .. . ... ... : ... .. . ... ... : ... .. . ... ... : ... .. . P89 ...
ROW 2E : ... .. . P80 ... ... : D-3 00 A P84 ... ... : ... .. . P86 : ... .. . ... : ... .. . ... ... : ... .. . ... ... : ... .. 5 ... ... : ... .. . P86 ...
ROW 2F : ... .. . P7D ... ... : C#3 00 A P80 ... ... : ... .. . P80 : ... .. A ... : ... .. . ... ... : ... .. 5 ... ... : ... .. 4 ... ... : ... .. . P80 ...
ROW 30 : ... .. 0 ... ... ... : C-3 00 A P79 ... ... : ... .. . P79 : ... .. . ... : ... .. . ... ... : ... .. 4 ... ... : ... .. . ... ... : ... .. . P79 ...
ROW 31 : ... .. . ... ... ... : B-2 00 A P86 ... ... : ... .. . P77 : ... .. . ... : ... .. . ... ... : ... .. . ... ... : ... .. . ... ... : ... .. . P77 ...
ROW 32 : ... .. . ... ... ... : C-3 00 A P7D ... ... : ... .. . P7A : ... .. 9 ... : ... .. . ... ... : A#4 01 6 ... V05 : ... .. . ... ... : ... .. . P7A ...
ROW 33 : ... .. . ... ... ... : C#3 00 A P80 ... ... : ... .. . P80 : ... .. . ... : ... .. . ... ... : ... .. 5 ... ... : ... .. 3 ... ... : ... .. . P80 ...
ROW 34 : ... .. . ... ... ... : D-3 00 A P88 ... ... : ... .. . P87 : ... .. . ... : ... .. . ... ... : ... .. . ... ... : ... .. . ... ... : ... .. . P87 ...
ROW 35 : ... .. . ... ... ... : D#3 00 A P7F ... ... : ... .. . P89 : ... .. 8 ... : ... .. . ... ... : ... .. . ... ... : ... .. . ... ... : ... .. . P89 ...
ROW 36 : ... .. . ... ... ... : D-3 00 2 P84 ... ... : ... .. . P86 : ... .. . ... : ... .. . ... ... : ... .. 4 ... ... : ... .. . ... ... : ... .. . P86 ...
ROW 37 : ... .. . ... ... ... : C#3 00 2 P80 ... ... : ... .. . P80 : ... .. . ... : ... .. . ... ... : ... .. . ... ... : ... .. . ... ... : ... .. . P80 ...
ROW 38 : D#4 00 F P80 ... ... : B-2 00 F ... ... ... : D#5 00 . ... : 1-# 00 F ... : ... .. . ... ... : B-4 01 6 ... ... : E-2 01 6 ... ... : E-2 01 F ... ...
ROW 39 : ... .. E ... ... ... : ... .. E ... ... ... : F-4 00 . ... : ... .. C ... : ... .. . ... ... : ... .. 5 ... ... : ... .. . ... ... : ... .. D ... ...
ROW 3A : ... .. D ... ... ... : ... .. D ... ... ... : A#3 00 . ... : ... .. 6 ... : ... .. . ... ... : ... .. . ... ... : ... .. 5 ... ... : ... .. 8 ... ...
ROW 3B : ... .. A ... ... ... : ... .. A ... ... ... : A-3 00 . ... : ... .. 3 ... : ... .. . ... ... : ... .. . ... ... : ... .. 4 ... ... : ... .. . ... ...
ROW 3C : ... .. 2 ... ... ... : ... .. 2 ... ... ... : E-3 00 . ... : ... .. 2 ... : ... .. . ... ... : ... .. 4 ... ... : ... .. . ... ... : ... .. . ... ...
ROW 3D : ... .. . ... ... ... : ... .. . ... ... ... : --- .. . ... : ... .. 0 ... : ... .. . ... ... : ... .. . ... ... : ... .. . ... ... : --- .. . P89 ...
ROW 3E : C#4 00 F ... ... ... : F#2 00 F ... ... ... : F#4 00 . ... : ... .. F ... : ... .. . ... ... : A#4 01 6 ... V03 : ... .. . ... ... : F#3 01 F P80 ...
ROW 3F : ... .. E ... ... ... : ... .. E ... ... ... : ... .. . ... : ... .. C ... : ... .. . ... ... : ... .. . ... ... : ... .. 3 ... ... : ... .. D ... ...
ROW 40 : ... .. D ... ... ... : ... .. D ... ... ... : ... .. . ... : ... .. 6 ... : ... .. . ... ... : ... .. 5 ... ... : ... .. . ... ... : ... .. 8 ... ...
ROW 41 : ... .. A ... ... ... : ... .. A ... ... ... : ... .. . ... : ... .. 3 ... : ... .. . ... ... : ... .. 4 ... ... : ... .. . ... ... : ... .. . ... ...
ROW 42 : ... .. 2 ... ... ... : ... .. 2 ... ... ... : ... .. . ... : ... .. 2 ... : ... .. . ... ... : ... .. . ... ... : ... .. . ... ... : ... .. . ... ...
ROW 43 : ... .. . ... ... ... : ... .. . ... ... ... : --- .. . ... : ... .. 0 ... : ... .. . ... ... : ... .. . ... ... : ... .. . ... ... : --- .. . P82 ...
ROW 44 : B-3 00 F ... ... ... : ... .. F ... ... ... : E-4 00 . ... : ... .. F ... : ... .. . ... ... : G#4 01 6 ... V05 : D#3 01 6 ... ... : E-3 01 F P80 ...
ROW 45 : ... .. E ... ... ... : ... .. E ... ... ... : ... .. . ... : ... .. C ... : ... .. . ... ... : ... .. 5 ... ... : ... .. . ... ... : ... .. D ... ...
ROW 46 : ... .. D ... ... ... : ... .. D ... ... ... : ... .. . ... : ... .. 6 ... : ... .. . ... ... : ... .. . ... ... : ... .. 5 ... ... : ... .. 8 ... ...
ROW 47 : ... .. A ... ... ... : ... .. A ... ... ... : ... .. . ... : ... .. 3 ... : ... .. . ... ... : ... .. . ... ... : ... .. 4 ... ... : ... .. . ... ...
ROW 48 : ... .. . ... ... ... : ... .. 2 ... ... ... : ... .. . ... : ... .. 2 ... : ... .. . ... ... : ... .. 4 ... ... : ... .. . ... ... : ... .. . ... ...
ROW 49 : ... .. . ... ... ... : ... .. . ... ... ... : --- .. . ... : ... .. 0 ... : ... .. . ... ... : ... .. . ... ... : ... .. . ... ... : --- .. . P7D ...
ROW 4A : ... .. . ... ... ... : B-2 00 F ... ... ... : D#4 00 . ... : A-# 00 F ... : ... .. . ... ... : F#4 01 6 ... V03 : ... .. . ... ... : D#3 01 F P80 ...
ROW 4B : ... .. . ... ... ... : ... .. E ... ... ... : ... .. . ... : ... .. C ... : ... .. . ... ... : ... .. . ... ... : ... .. 3 ... ... : ... .. D ... ...
ROW 4C : ... .. . ... ... ... : ... .. D ... ... ... : ... .. . ... : ... .. 6 ... : ... .. . ... ... : ... .. 5 ... ... : ... .. . ... ... : ... .. 8 ... ...
ROW 4D : ... .. . ... ... ... : ... .. A ... ... ... : ... .. . ... : ... .. 3 ... : ... .. . ... ... : ... .. 4 ... ... : ... .. . ... ... : ... .. . ... ...
ROW 4E : ... .. . ... ... ... : ... .. . ... ... ... : ... .. . ... : ... .. 2 ... : ... .. . ... ... : ... .. . ... ... : ... .. . ... ... : ... .. . ... ...
ROW 4F : ... .. . ... ... ... : ... .. . ... ... ... : --- .. . ... : ... .. 0 ... : ... .. . ... ... : ... .. . ... ... : ... .. . ... ... : --- .. . P7F ...
ROW 50 : ... .. . ... ... ... : C#3 00 F ... ... ... : B-4 00 . ... : 5-# 00 F ... : ... .. . ... ... : E-4 01 6 ... V05 : C#3 01 6 ... ... : B-3 01 F P80 ...
ROW 51 : ... .. . ... ... ... : ... .. E ... ... ... : ... .. . ... : ... .. C ... : ... .. . ... ... : ... .. 5 ... ... : ... .. . ... ... : ... .. D ... ...
ROW 52 : ... .. . ... ... ... : ... .. D ... ... ... : ... .. . ... : ... .. 6 ... : ... .. . ... ... : ... .. . ... ... : ... .. 5 ... ... : ... .. 8 ... ...
ROW 53 : ... .. . ... ... ... : ... .. A ... ... ... : ... .. . ... : ... .. 3 ... : ... .. . ... ... : ... .. . ... ... : ... .. 4 ... ... : ... .. . ... ...
ROW 54 : ... .. . ... ... ... : ... .. 2 ... ... ... : ... .. . ... : ... .. 2 ... : ... .. . ... ... : ... .. 4 ... ... : ... .. . ... ... : ... .. . ... ...
ROW 55 : ... .. . ... ... ... : ... .. . ... ... ... : --- .. . ... : ... .. 0 ... : ... .. . ... ... : ... .. . ... ... : ... .. . ... ... : --- .. . P8E ...
ROW 56 : ... .. . ... ... ... : G#2 00 F ... ... ... : A#4 00 . ... : 3-# 00 F ... : ... .. . ... ... : D#4 01 6 ... V00 : ... .. . ... ... : A#3 01 F P80 ...
ROW 57 : ... .. . ... ... ... : ... .. E ... ... ... : ... .. . ... : ... .. C ... : ... .. . ... ... : ... .. . ... ... : ... .. 3 ... ... : ... .. D ... ...
ROW 58 : ... .. . ... ... ... : ... .. D ... ... ... : ... .. . ... : ... .. 6 ... : ... .. . ... ... : ... .. . ... ... : ... .. . ... ... : ... .. 8 ... ...
ROW 59 : ... .. . ... ... ... : ... .. A ... ... ... : ... .. . ... : ... .. 3 ... : ... .. . ... ... : ... .. 5 ... ... : ... .. . ... ... : ... .. . ... ...
ROW 5A : ... .. 2 ... ... ... : ... .. 2 ... ... ... : ... .. . ... : ... .. 2 ... : ... .. . ... ... : ... .. 4 ... ... : ... .. . ... ... : ... .. . ... ...
ROW 5B : ... .. . ... ... ... : ... .. . ... ... ... : --- .. . ... : ... .. 0 ... : ... .. . ... ... : ... .. . ... ... : ... .. . ... ... : --- .. . ... ...
ROW 5C : C#5 00 F ... ... ... : B-2 00 F ... ... ... : G-6 00 . ... : 8-# 00 F ... : ... .. . ... ... : C#4 01 6 ... ... : B-2 01 6 ... ... : G#3 01 F ... ...
ROW 5D : ... .. E ... ... ... : ... .. E ... ... ... : A-5 00 . ... : ... .. C ... : ... .. . ... ... : ... .. . ... ... : ... .. . ... ... : ... .. D ... ...
ROW 5E : ... .. D ... ... ... : ... .. D ... ... ... : D-5 00 . ... : ... .. 6 ... : ... .. . ... ... : ... .. . ... ... : ... .. 5 ... ... : ... .. 8 ... ...
ROW 5F : ... .. A ... ... ... : ... .. A ... ... ... : C#5 00 . ... : ... .. 3 ... : ... .. . ... ... : ... .. 5 ... ... : ... .. 4 ... ... : ... .. . ... ...
ROW 60 : ... .. 2 ... ... ... : ... .. . ... ... ... : G#4 00 . ... : ... .. 2 ... : ... .. . ... ... : ... .. 4 ... ... : ... .. . ... ... : ... .. . ... ...
ROW 61 : ... .. . ... ... ... : ... .. . ... ... ... : --- .. . ... : ... .. 0 ... : ... .. . ... ... : ... .. . ... ... : ... .. . ... ... : --- .. . P7F ...
ROW 62 : B-4 00 F ... ... ... : F#2 00 F ... ... ... : B-3 00 . ... : 7-# 00 F ... : ... .. . ... ... : B-3 01 6 ... ... : ... .. . ... ... : B-2 01 F P80 ...
ROW 63 : ... .. E ... ... ... : ... .. E ... ... ... : ... .. . ... : ... .. C ... : ... .. . ... ... : ... .. . ... ... : ... .. 3 ... ... : ... .. D ... ...
ROW 64 : ... .. D ... ... ... : ... .. D ... ... ... : ... .. . ... : ... .. 6 ... : ... .. . ... ... : ... .. . ... ... : ... .. . ... ... : ... .. 8 ... ...
ROW 65 : ... .. A ... ... ... : ... .. A ... ... ... : ... .. . ... : ... .. 3 ... : ... .. . ... ... : ... .. 5 ... ... : ... .. . ... ... : ... .. . ... ...
ROW 66 : ... .. 2 ... ... ... : ... .. 2 ... ... ... : ... .. . ... : ... .. 2 ... : ... .. . ... ... : ... .. 4 ... ... : ... .. . ... ... : ... .. . ... ...
ROW 67 : ... .. . ... ... ... : ... .. . ... ... ... : --- .. . ... : ... .. 0 ... : ... .. . ... ... : ... .. . ... ... : ... .. . ... ... : --- .. . P8B ...
ROW 68 : A#4 00 F ... ... ... : ... .. F ... ... ... : C#4 00 . ... : 6-# 00 F ... : ... .. . ... ... : A#3 01 6 ... V05 : A#2 01 6 ... ... : C#3 01 F P80 ...
ROW 69 : ... .. E ... ... ... : ... .. E ... ... ... : ... .. . ... : ... .. C ... : ... .. . ... ... : ... .. 5 ... ... : ... .. . ... ... : ... .. D ... ...
ROW 6A : ... .. D ... ... ... : ... .. D ... ... ... : ... .. . ... : ... .. 6 ... : ... .. . ... ... : ... .. . ... ... : ... .. 5 ... ... : ... .. 8 ... ...
ROW 6B : ... .. A ... ... ... : ... .. A ... ... ... : ... .. . ... : ... .. 3 ... : ... .. . ... ... : ... .. . ... ... : ... .. 4 ... ... : ... .. . ... ...
ROW 6C : ... .. . ... ... ... : ... .. 2 ... ... ... : ... .. . ... : ... .. 2 ... : ... .. . ... ... : ... .. 4 ... ... : ... .. . ... ... : ... .. . ... ...
ROW 6D : ... .. . ... ... ... : ... .. . ... ... ... : --- .. . ... : ... .. 0 ... : ... .. . ... ... : ... .. . ... ... : ... .. . ... ... : --- .. . ... ...
ROW 6E : ... .. . ... ... ... : B-2 00 F ... ... ... : D#4 00 . ... : 5-# 00 F ... : ... .. . ... ... : G#3 01 6 ... ... : ... .. . ... ... : D#3 01 F ... ...
ROW 6F : ... .. . ... ... ... : ... .. E ... ... ... : ... .. . ... : ... .. C ... : ... .. . ... ... : ... .. 5 ... ... : ... .. 3 ... ... : ... .. D ... ...
ROW 70 : ... .. . ... ... ... : ... .. D ... ... ... : ... .. . ... : ... .. 6 ... : ... .. . ... ... : ... .. . ... ... : ... .. . ... ... : ... .. 8 ... ...
ROW 71 : ... .. . ... ... ... : ... .. A ... ... ... : ... .. . ... : ... .. 3 ... : ... .. . ... ... : ... .. . ... ... : ... .. . ... ... : ... .. . ... ...
ROW 72 : ... .. 2 ... ... ... : ... .. . ... ... ... : ... .. . ... : ... .. 2 ... : ... .. . ... ... : ... .. 4 ... ... : ... .. . ... ... : ... .. . ... ...
ROW 73 : ... .. . ... ... ... : ... .. . ... ... ... : --- .. . ... : ... .. 0 ... : ... .. . ... ... : ... .. . ... ... : ... .. . ... ... : --- .. . P7F ...
ROW 74 : B-4 00 F ... ... ... : C#3 00 F ... ... ... : F#3 00 . ... : 4-# 00 F ... : ... .. . ... ... : F#3 01 6 ... V03 : B-2 01 6 ... ... : F#2 01 F P80 ...
ROW 75 : ... .. E ... ... ... : ... .. E ... ... ... : ... .. . ... : ... .. C ... : ... .. . ... ... : ... .. . ... ... : ... .. . ... ... : ... .. D ... ...
ROW 76 : ... .. D ... ... ... : ... .. D ... ... ... : ... .. . ... : ... .. 6 ... : ... .. . ... ... : ... .. 5 ... ... : ... .. 5 ... ... : ... .. 8 ... ...
ROW 77 : ... .. A ... ... ... : ... .. A ... ... ... : ... .. . ... : ... .. 3 ... : ... .. . ... ... : ... .. 4 ... ... : ... .. 4 ... ... : ... .. . ... ...
ROW 78 : ... .. 2 ... ... ... : ... .. 2 ... ... ... : ... .. . ... : ... .. 2 ... : ... .. . ... ... : ... .. . ... ... : ... .. . ... ... : ... .. . ... ...
ROW 79 : ... .. . ... ... ... : ... .. . ... ... ... : --- .. . ... : ... .. 0 ... : ... .. . ... ... : ... .. . ... ... : ... .. . ... ... : --- .. . P84 ...
ROW 7A : C#5 00 F ... ... ... : F#2 00 F ... ... ... : G#3 00 . ... : 3-# 00 F ... : ... .. . ... ... : E-3 01 6 ... V05 : ... .. . ... ... : G#2 01 F P80 ...
ROW 7B : ... .. E ... ... ... : ... .. E ... ... ... : ... .. . ... : ... .. C ... : ... .. . ... ... : ... .. 5 ... ... : ... .. 3 ... ... : ... .. D ... ...
ROW 7C : ... .. D ... ... ... : ... .. D ... ... ... : ... .. . ... : ... .. 6 ... : ... .. . ... ... : ... .. . ... ... : ... .. . ... ... : ... .. 8 ... ...
ROW 7D : ... .. A ... ... ... : ... .. A ... ... ... : ... .. . ... : ... .. 3 ... : ... .. . ... ... : ... .. . ... ... : ... .. . ... ... : ... .. . ... ...
ROW 7E : ... .. 2 ... ... ... : ... .. 2 ... ... ... : ... .. . ... : ... .. 2 ... : ... .. . ... ... : ... .. 4 ... ... : ... .. . ... ... : ... .. . ... ...
ROW 7F : ... .. . ... ... ... : ... .. . ... ... ... : --- .. . ... : ... .. 0 ... : ... .. . ... ... : ... .. . ... ... : ... .. . ... ... : --- .. . P7F ...
ROW 80 : D#5 00 F ... ... ... : G#1 00 F ... ... ... : D-4 00 . ... : 1-# 00 F ... : ... .. . ... ... : D#3 01 6 ... V00 : G#2 01 6 ... ... : D#1 01 F P80 ...
ROW 81 : ... .. E ... ... ... : ... .. E ... ... ... : E-3 00 . ... : ... .. C ... : ... .. . ... ... : ... .. . ... ... : ... .. . ... ... : ... .. D ... ...
ROW 82 : ... .. D ... ... ... : ... .. D ... ... ... : A-2 00 . ... : ... .. 6 ... : ... .. . ... ... : ... .. . ... ... : ... .. 5 ... ... : ... .. 8 ... ...
ROW 83 : ... .. A ... ... ... : ... .. A ... ... ... : G#2 00 . ... : ... .. 3 ... : ... .. . ... ... : ... .. 5 ... ... : ... .. 4 ... ... : ... .. . ... ...
ROW 84 : ... .. . ... ... ... : ... .. 2 ... ... ... : D#2 00 . ... : ... .. 2 ... : ... .. . ... ... : ... .. 4 ... ... : ... .. . ... ... : ... .. . ... ...
ROW 85 : ... .. . ... ... ... : ... .. . ... ... ... : --- .. . ... : ... .. 0 ... : ... .. . ... ... : ... .. . ... ... : ... .. . ... ... : --- .. . P81 ...
ROW 86 : C#5 00 F ... ... ... : ... .. F ... ... ... : D#2 00 . ... : D-# 00 F ... : ... .. . ... ... : C#3 01 6 ... V05 : ... .. . ... ... : D#1 01 F P80 ...
ROW 87 : ... .. E ... ... ... : ... .. E ... ... ... : ... .. . ... : ... .. C ... : ... .. . ... ... : ... .. 5 ... ... : ... .. 3 ... ... : ... .. D ... ...
ROW 88 : ... .. D ... ... ... : ... .. D ... ... ... : ... .. . ... : ... .. 6 ... : ... .. . ... ... : ... .. . ... ... : ... .. . ... ... : ... .. 8 ... ...
ROW 89 : ... .. A ... ... ... : ... .. A ... ... ... : ... .. . ... : ... .. 3 ... : ... .. . ... ... : ... .. 4 ... ... : ... .. . ... ... : ... .. . ... ...
ROW 8A : ... .. 2 ... ... ... : ... .. 2 ... ... ... : ... .. . ... : ... .. 2 ... : ... .. . ... ... : ... .. . ... ... : ... .. . ... ... : ... .. . ... ...
ROW 8B : ... .. . ... ... ... : ... .. . ... ... ... : --- .. . ... : ... .. 0 ... : ... .. . ... ... : ... .. . ... ... : ... .. . ... ... : --- .. . P81 ...
ROW 8C : D#5 00 F ... ... ... : ... .. F ... ... ... : D#2 00 . ... : ... .. F ... : ... .. . ... ... : D#3 01 6 ... ... : D#3 01 6 ... ... : D#1 01 F P80 ...
ROW 8D : ... .. E ... ... ... : ... .. E ... ... ... : ... .. . ... : ... .. C ... : ... .. . ... ... : ... .. 5 ... ... : ... .. . ... ... : ... .. D ... ...
ROW 8E : ... .. D ... ... ... : ... .. D ... ... ... : ... .. . ... : ... .. 6 ... : ... .. . ... ... : ... .. . ... ... : ... .. 5 ... ... : ... .. 8 ... ...
ROW 8F : ... .. A ... ... ... : ... .. A ... ... ... : ... .. . ... : ... .. 3 ... : ... .. . ... ... : ... .. 4 ... ... : ... .. 4 ... ... : ... .. . ... ...
ROW 90 : ... .. . ... ... ... : ... .. 2 ... ... ... : ... .. . ... : ... .. 2 ... : ... .. . ... ... : ... .. . ... ... : ... .. . ... ... : ... .. . ... ...
ROW 91 : ... .. . ... ... ... : ... .. . ... ... ... : --- .. . ... : ... .. 0 ... : ... .. . ... ... : ... .. . ... ... : ... .. . ... ... : --- .. . P81 ...
ROW 92 : ... .. . ... ... ... : B-3 00 F ... ... ... : B-4 00 . ... : 6-# 00 F ... : ... .. . ... ... : G#3 01 6 ... ... : ... .. . ... ... : B-3 01 F P80 ...
ROW 93 : ... .. . ... ... ... : ... .. E ... ... ... : ... .. . ... : ... .. C ... : ... .. . ... ... : ... .. 5 ... ... : ... .. 3 ... ... : ... .. D ... ...
ROW 94 : ... .. . ... ... ... : ... .. D ... ... ... : ... .. . ... : ... .. 6 ... : ... .. . ... ... : ... .. . ... ... : ... .. . ... ... : ... .. 8 ... ...
ROW 95 : ... .. . ... ... ... : ... .. A ... ... ... : ... .. . ... : ... .. 3 ... : ... .. . ... ... : ... .. . ... ... : ... .. . ... ... : ... .. . ... ...
ROW 96 : ... .. . ... ... ... : ... .. . ... ... ... : ... .. . ... : ... .. 2 ... : ... .. . ... ... : ... .. 4 ... ... : ... .. . ... ... : ... .. . ... ...
ROW 97 : ... .. . ... ... ... : ... .. . ... ... ... : --- .. . ... : ... .. 0 ... : ... .. . ... ... : ... .. . ... ... : ... .. . ... ... : --- .. . P8E ...
ROW 98 : ... .. . ... ... ... : A#3 00 F ... ... ... : F#4 00 . ... : D-# 00 F ... : ... .. . ... ... : F#3 01 6 ... V03 : G#2 01 6 ... ... : F#3 01 F P80 ...
ROW 99 : ... .. . ... ... ... : ... .. E ... ... ... : ... .. . ... : ... .. C ... : ... .. . ... ... : ... .. . ... ... : ... .. . ... ... : ... .. D ... ...
ROW 9A : ... .. . ... ... ... : ... .. D ... ... ... : ... .. . ... : ... .. 6 ... : ... .. . ... ... : ... .. 5 ... ... : ... .. 5 ... ... : ... .. 8 ... ...
ROW 9B : ... .. . ... ... ... : ... .. A ... ... ... : ... .. . ... : ... .. 3 ... : ... .. . ... ... : ... .. 4 ... ... : ... .. 4 ... ... : ... .. . ... ...
ROW 9C : ... .. . ... ... ... : ... .. 2 ... ... ... : ... .. . ... : ... .. 2 ... : ... .. . ... ... : ... .. . ... ... : ... .. . ... ... : ... .. . ... ...
ROW 9D : ... .. . ... ... ... : ... .. . ... ... ... : --- .. . ... : ... .. 0 ... : ... .. . ... ... : ... .. . ... ... : ... .. . ... ... : --- .. . P82 ...
ROW 9E : ... .. . ... ... ... : F#2 00 F ... ... ... : G#4 00 . ... : ... .. F ... : ... .. . ... ... : G#3 01 6 ... V00 : ... .. . ... ... : G#3 01 F P80 ...
ROW 9F : ... .. . ... ... ... : ... .. E ... ... ... : ... .. . ... : ... .. C ... : ... .. . ... ... : ... .. . ... ... : ... .. 3 ... ... : ... .. D ... ...
ROW A0 : ... .. . ... ... ... : ... .. D ... ... ... : ... .. . ... : ... .. 6 ... : ... .. . ... ... : ... .. . ... ... : ... .. . ... ... : ... .. 8 ... ...
ROW A1 : ... .. . ... ... ... : ... .. A ... ... ... : ... .. . ... : ... .. 3 ... : ... .. . ... ... : ... .. 5 ... ... : ... .. . ... ... : ... .. . ... ...
ROW A2 : ... .. . ... ... ... : ... .. 2 ... ... ... : ... .. . ... : ... .. 2 ... : ... .. . ... ... : ... .. 4 ... ... : ... .. . ... ... : ... .. . ... ...
ROW A3 : ... .. . ... ... ... : ... .. . ... ... ... : --- .. . ... : ... .. 0 ... : ... .. . ... ... : ... .. . ... ... : ... .. . ... ... : --- .. . P7F ...
ROW A4 : ... .. . ... ... ... : G#1 00 F ... ... ... : D-4 00 . ... : 1-# 00 F ... : ... .. . ... ... : B-3 01 6 ... V05 : G#3 01 6 ... ... : D#1 01 F P80 ...
ROW A5 : ... .. . ... ... ... : ... .. E ... ... ... : E-3 00 . ... : ... .. C ... : ... .. . ... ... : ... .. 5 ... ... : ... .. . ... ... : ... .. D ... ...
ROW A6 : ... .. . ... ... ... : ... .. D ... ... ... : A-2 00 . ... : ... .. 6 ... : ... .. . ... ... : ... .. . ... ... : ... .. 5 ... ... : ... .. 8 ... ...
ROW A7 : ... .. . ... ... ... : ... .. A ... ... ... : G#2 00 . ... : ... .. 3 ... : ... .. . ... ... : ... .. . ... ... : ... .. 4 ... ... : ... .. . ... ...
ROW A8 : ... .. . ... ... ... : ... .. 2 ... ... ... : D#2 00 . ... : ... .. 2 ... : ... .. . ... ... : ... .. 4 ... ... : ... .. . ... ... : ... .. . ... ...
ROW A9 : ... .. . ... ... ... : ... .. . ... ... ... : --- .. . ... : ... .. 0 ... : ... .. . ... ... : ... .. . ... ... : ... .. . ... ... : --- .. . P81 ...
ROW AA : ... .. . ... ... ... : ... .. F ... ... ... : D#2 00 . ... : D-# 00 F ... : ... .. . ... ... : A#3 01 6 ... V03 : ... .. . ... ... : D#1 01 F P80 ...
ROW AB : ... .. . ... ... ... : ... .. E ... ... ... : ... .. . ... : ... .. C ... : ... .. . ... ... : ... .. . ... ... : ... .. 3 ... ... : ... .. D ... ...
ROW AC : ... .. . ... ... ... : ... .. D ... ... ... : ... .. . ... : ... .. 6 ... : ... .. . ... ... : ... .. 5 ... ... : ... .. . ... ... : ... .. 8 ... ...
ROW AD : ... .. . ... ... ... : ... .. A ... ... ... : ... .. . ... : ... .. 3 ... : ... .. . ... ... : ... .. 4 ... ... : ... .. . ... ... : ... .. . ... ...
ROW AE : ... .. . ... ... ... : ... .. 2 ... ... ... : ... .. . ... : ... .. 2 ... : ... .. . ... ... : ... .. . ... ... : ... .. . ... ... : ... .. . ... ...
ROW AF : ... .. . ... ... ... : ... .. . ... ... ... : --- .. . ... : ... .. 0 ... : ... .. . ... ... : ... .. . ... ... : ... .. . ... ... : --- .. . P81 ...
ROW B0 : ... .. . ... ... ... : ... .. F ... ... ... : D#2 00 . ... : ... .. F ... : ... .. . ... ... : B-3 01 6 ... V05 : D#3 01 6 ... ... : D#1 01 F P80 ...
ROW B1 : ... .. . ... ... ... : ... .. E ... ... ... : ... .. . ... : ... .. C ... : ... .. . ... ... : ... .. 5 ... ... : ... .. . ... ... : ... .. D ... ...
ROW B2 : ... .. . ... ... ... : ... .. D ... ... ... : ... .. . ... : ... .. 6 ... : ... .. . ... ... : ... .. . ... ... : ... .. 5 ... ... : ... .. 8 ... ...
ROW B3 : ... .. . ... ... ... : ... .. A ... ... ... : ... .. . ... : ... .. 3 ... : ... .. . ... ... : ... .. 4 ... ... : ... .. 4 ... ... : ... .. . ... ...
ROW B4 : ... .. . ... ... ... : ... .. 2 ... ... ... : ... .. . ... : ... .. 2 ... : ... .. . ... ... : ... .. . ... ... : ... .. . ... ... : ... .. . ... ...
ROW B5 : ... .. . ... ... ... : ... .. . ... ... ... : --- .. . ... : ... .. 0 ... : ... .. . ... ... : ... .. . ... ... : ... .. . ... ... : --- .. . P81 ...
ROW B6 : ... .. . ... ... ... : F#3 00 F ... ... ... : F#3 00 . ... : 6-# 00 F ... : ... .. . ... ... : C#4 01 6 ... V03 : ... .. . ... ... : F#2 01 F P80 ...
ROW B7 : ... .. . ... ... ... : ... .. E ... ... ... : ... .. . ... : ... .. C ... : ... .. . ... ... : ... .. . ... ... : ... .. 3 ... ... : ... .. D ... ...
ROW B8 : ... .. . ... ... ... : ... .. D ... ... ... : ... .. . ... : ... .. 6 ... : ... .. . ... ... : ... .. 5 ... ... : ... .. . ... ... : ... .. 8 ... ...
ROW B9 : ... .. . ... ... ... : ... .. A ... ... ... : ... .. . ... : ... .. 3 ... : ... .. . ... ... : ... .. 4 ... ... : ... .. . ... ... : ... .. . ... ...
ROW BA : ... .. . ... ... ... : ... .. . ... ... ... : ... .. . ... : ... .. 2 ... : ... .. . ... ... : ... .. . ... ... : ... .. . ... ... : ... .. . ... ...
ROW BB : ... .. . ... ... ... : ... .. . ... ... ... : --- .. . ... : ... .. 0 ... : ... .. . ... ... : ... .. . ... ... : ... .. . ... ... : --- .. . P84 ...
ROW BC : ... .. . ... ... ... : C#3 00 F ... ... ... : G#3 00 . ... : 1-# 00 F ... : ... .. . ... ... : B-3 01 6 ... V00 : G#2 01 6 ... ... : G#2 01 F P80 ...
ROW BD : ... .. . ... ... ... : ... .. E ... ... ... : ... .. . ... : ... .. C ... : ... .. . ... ... : ... .. . ... ... : ... .. . ... ... : ... .. D ... ...
ROW BE : ... .. . ... ... ... : ... .. D ... ... ... : ... .. . ... : ... .. 6 ... : ... .. . ... ... : ... .. . ... ... : ... .. 5 ... ... : ... .. 8 ... ...
ROW BF : ... .. . ... ... ... : ... .. A ... ... ... : ... .. . ... : ... .. 3 ... : ... .. . ... ... : ... .. 5 ... ... : ... .. 4 ... ... : ... .. . ... ...
ROW C0 : ... .. . ... ... ... : ... .. 2 ... ... ... : ... .. . ... : ... .. 2 ... : ... .. . ... ... : ... .. 4 ... ... : ... .. . ... ... : ... .. . ... ...
ROW C1 : ... .. . ... ... ... : ... .. . ... ... ... : --- .. . ... : ... .. 0 ... : ... .. . ... ... : ... .. . ... ... : ... .. . ... ... : --- .. . P7F ...
ROW C2 : E-5 00 A P7E ... ... : F#1 00 F ... ... ... : B-3 00 . ... : 6-# 00 F ... : ... .. . ... ... : C#4 01 6 ... V05 : ... .. . ... ... : B-2 01 F P80 ...
ROW C3 : ... .. . P7F ... ... : ... .. E ... ... ... : ... .. . ... : ... .. C ... : ... .. . ... ... : ... .. 5 ... ... : ... .. 3 ... ... : ... .. D ... ...
ROW C4 : ... .. . P7E ... ... : ... .. D ... ... ... : ... .. . ... : ... .. 6 ... : ... .. . ... ... : ... .. . ... ... : ... .. . ... ... : ... .. 8 ... ...
ROW C5 : D#5 00 A P80 ... ... : ... .. A ... ... ... : ... .. . ... : ... .. 3 ... : ... .. . ... ... : ... .. . ... ... : ... .. . ... ... : ... .. . ... ...
ROW C6 : D-5 00 A P82 ... ... : ... .. . ... ... ... : ... .. . ... : ... .. 2 ... : ... .. . ... ... : ... .. 4 ... ... : ... .. . ... ... : ... .. . ... ...
ROW C7 : ... .. . P81 ... ... : ... .. . ... ... ... : --- .. . ... : ... .. 0 ... : ... .. . ... ... : ... .. . ... ... : ... .. . ... ... : --- .. . P8B ...
ROW C8 : ... .. . P82 ... ... : G#1 00 F ... ... ... : D-4 00 . ... : 1-# 00 F ... : ... .. . ... ... : F#4 01 6 ... V03 : B-3 01 6 ... ... : D#1 01 F P80 ...
ROW C9 : D#5 00 A P80 ... ... : ... .. E ... ... ... : E-3 00 . ... : ... .. C ... : ... .. . ... ... : ... .. . ... ... : ... .. . ... ... : ... .. D ... ...
ROW CA : E-5 00 A P7E ... ... : ... .. D ... ... ... : A-2 00 . ... : ... .. 6 ... : ... .. . ... ... : ... .. 5 ... ... : ... .. 5 ... ... : ... .. 8 ... ...
ROW CB : ... .. . P7F ... ... : ... .. A ... ... ... : G#2 00 . ... : ... .. 3 ... : ... .. . ... ... : ... .. 4 ... ... : ... .. 4 ... ... : ... .. . ... ...
ROW CC : ... .. . P7E ... ... : ... .. 2 ... ... ... : D#2 00 . ... : ... .. 2 ... : ... .. . ... ... : ... .. . ... ... : ... .. . ... ... : ... .. . ... ...
ROW CD : D#5 00 A P80 ... ... : ... .. . ... ... ... : --- .. . ... : ... .. 0 ... : ... .. . ... ... : ... .. . ... ... : ... .. . ... ... : --- .. . P81 ...
ROW CE : D-5 00 A P82 ... ... : ... .. F ... ... ... : D#2 00 . ... : D-# 00 F ... : ... .. . ... ... : C#4 01 6 ... V00 : ... .. . ... ... : D#1 01 F P80 ...
ROW CF : ... .. . P81 ... ... : ... .. E ... ... ... : ... .. . ... : ... .. C ... : ... .. . ... ... : ... .. . ... ... : ... .. 3 ... ... : ... .. D ... ...
ROW D0 : ... .. . P82 ... ... : ... .. D ... ... ... : ... .. . ... : ... .. 6 ... : ... .. . ... ... : ... .. . ... ... : ... .. . ... ... : ... .. 8 ... ...
ROW D1 : D#5 00 A P80 ... ... : ... .. A ... ... ... : ... .. . ... : ... .. 3 ... : ... .. . ... ... : ... .. 5 ... ... : ... .. . ... ... : ... .. . ... ...
ROW D2 : E-5 00 A P7E ... ... : ... .. 2 ... ... ... : ... .. . ... : ... .. 2 ... : ... .. . ... ... : ... .. 4 ... ... : ... .. . ... ... : ... .. . ... ...
ROW D3 : ... .. . P7F ... ... : ... .. . ... ... ... : --- .. . ... : ... .. 0 ... : ... .. . ... ... : ... .. . ... ... : ... .. . ... ... : --- .. . P81 ...
ROW D4 : ... .. . P7E ... ... : ... .. F ... ... ... : D#2 00 . ... : ... .. F ... : ... .. . ... ... : F#4 01 6 ... ... : G#3 01 6 ... ... : D#1 01 F P80 ...
ROW D5 : D#5 00 A P80 ... ... : ... .. E ... ... ... : ... .. . ... : ... .. C ... : ... .. . ... ... : ... .. . ... ... : ... .. . ... ... : ... .. D ... ...
ROW D6 : D-5 00 A P82 ... ... : ... .. D ... ... ... : ... .. . ... : ... .. 6 ... : ... .. . ... ... : ... .. . ... ... : ... .. 5 ... ... : ... .. 8 ... ...
ROW D7 : ... .. . P81 ... ... : ... .. A ... ... ... : ... .. . ... : ... .. 3 ... : ... .. . ... ... : ... .. 5 ... ... : ... .. 4 ... ... : ... .. . ... ...
ROW D8 : ... .. . P82 ... ... : ... .. 2 ... ... ... : ... .. . ... : ... .. 2 ... : ... .. . ... ... : ... .. 4 ... ... : ... .. . ... ... : ... .. . ... ...
ROW D9 : D#5 00 A P80 ... ... : ... .. . ... ... ... : --- .. . ... : ... .. 0 ... : ... .. . ... ... : ... .. . ... ... : ... .. . ... ... : --- .. . P81 ...
ROW DA : E-5 00 A P7E ... ... : E-3 00 F ... ... ... : B-2 00 . ... : 8-# 00 F ... : ... .. . ... ... : G#4 01 6 ... V05 : ... .. . ... ... : B-1 01 F P80 ...
ROW DB : ... .. . P7F ... ... : ... .. E ... ... ... : ... .. . ... : ... .. C ... : ... .. . ... ... : ... .. 5 ... ... : ... .. 3 ... ... : ... .. D ... ...
ROW DC : ... .. . P7E ... ... : ... .. D ... ... ... : ... .. . ... : ... .. 6 ... : ... .. . ... ... : ... .. . ... ... : ... .. . ... ... : ... .. 8 ... ...
ROW DD : D#5 00 A P80 ... ... : ... .. A ... ... ... : ... .. . ... : ... .. 3 ... : ... .. . ... ... : ... .. . ... ... : ... .. . ... ... : ... .. . ... ...
ROW DE : D-5 00 A P82 ... ... : ... .. . ... ... ... : ... .. . ... : ... .. 2 ... : ... .. . ... ... : ... .. 4 ... ... : ... .. . ... ... : ... .. . ... ...
ROW DF : ... .. . P81 ... ... : ... .. . ... ... ... : --- .. . ... : ... .. 0 ... : ... .. . ... ... : ... .. . ... ... : ... .. . ... ... : --- .. . P86 ...
ROW E0 : ... .. . P82 ... ... : D#3 00 F ... ... ... : F#3 00 . ... : 4-# 00 F ... : ... .. . ... ... : F#4 01 6 ... V03 : D#3 01 6 ... ... : F#2 01 F P80 ...
ROW E1 : D#5 00 A P80 ... ... : ... .. E ... ... ... : ... .. . ... : ... .. C ... : ... .. . ... ... : ... .. . ... ... : ... .. . ... ... : ... .. D ... ...
ROW E2 : E-5 00 A P7E ... ... : ... .. D ... ... ... : ... .. . ... : ... .. 6 ... : ... .. . ... ... : ... .. 5 ... ... : ... .. 5 ... ... : ... .. 8 ... ...
ROW E3 : ... .. . P7F ... ... : ... .. A ... ... ... : ... .. . ... : ... .. 3 ... : ... .. . ... ... : ... .. 4 ... ... : ... .. 4 ... ... : ... .. . ... ...
ROW E4 : ... .. . P7E ... ... : ... .. 2 ... ... ... : ... .. . ... : ... .. 2 ... : ... .. . ... ... : ... .. . ... ... : ... .. . ... ... : ... .. . ... ...
ROW E5 : D#5 00 A P80 ... ... : ... .. . ... ... ... : --- .. . ... : ... .. 0 ... : ... .. . ... ... : ... .. . ... ... : ... .. . ... ... : --- .. . P84 ...
ROW E6 : D-5 00 A P82 ... ... : G#1 00 F ... ... ... : C#4 00 . ... : 1-# 00 F ... : ... .. . ... ... : G#4 01 6 ... V05 : ... .. . ... ... : C#3 01 F P80 ...
ROW E7 : ... .. . P81 ... ... : ... .. E ... ... ... : ... .. . ... : ... .. C ... : ... .. . ... ... : ... .. 5 ... ... : ... .. 3 ... ... : ... .. D ... ...
ROW E8 : ... .. . P82 ... ... : ... .. D ... ... ... : ... .. . ... : ... .. 6 ... : ... .. . ... ... : ... .. . ... ... : ... .. . ... ... : ... .. 8 ... ...
ROW E9 : D#5 00 A P80 ... ... : ... .. A ... ... ... : ... .. . ... : ... .. 3 ... : ... .. . ... ... : ... .. 4 ... ... : ... .. . ... ... : ... .. . ... ...
ROW EA : E-5 00 A P7E ... ... : ... .. 2 ... ... ... : ... .. . ... : ... .. 2 ... : ... .. . ... ... : ... .. . ... ... : ... .. . ... ... : ... .. . ... ...
ROW EB : ... .. . P7F ... ... : ... .. . ... ... ... : --- .. . ... : ... .. 0 ... : ... .. . ... ... : ... .. . ... ... : ... .. . ... ... : --- .. . ... ...
ROW EC : ... .. . P7E ... ... : C#3 00 F ... ... ... : D-4 00 . ... : 7-# 00 F ... : ... .. . ... ... : A#4 01 6 ... ... : B-2 01 6 ... ... : D#1 01 F ... ...
ROW ED : D#5 00 A P80 ... ... : ... .. E ... ... ... : E-3 00 . ... : ... .. C ... : ... .. . ... ... : ... .. 5 ... ... : ... .. . ... ... : ... .. D ... ...
ROW EE : D-5 00 A P82 ... ... : ... .. D ... ... ... : A-2 00 . ... : ... .. 6 ... : ... .. . ... ... : ... .. . ... ... : ... .. 5 ... ... : ... .. 8 ... ...
ROW EF : ... .. . P81 ... ... : ... .. A ... ... ... : G#2 00 . ... : ... .. 3 ... : ... .. . ... ... : ... .. 4 ... ... : ... .. 4 ... ... : ... .. . ... ...
ROW F0 : ... .. . P82 ... ... : ... .. . ... ... ... : D#2 00 . ... : ... .. 2 ... : ... .. . ... ... : ... .. . ... ... : ... .. . ... ... : ... .. . ... ...
ROW F1 : D#5 00 A P80 ... ... : ... .. . ... ... ... : --- .. . ... : ... .. 0 ... : ... .. . ... ... : ... .. . ... ... : ... .. . ... ... : --- .. . P81 ...
ROW F2 : E-5 00 A P7E ... ... : D#3 00 F ... ... ... : A#3 00 . ... : 3-# 00 F ... : ... .. . ... ... : G#4 01 6 ... ... : ... .. . ... ... : A#2 01 F P80 ...
ROW F3 : ... .. . P7F ... ... : ... .. E ... ... ... : ... .. . ... : ... .. C ... : ... .. . ... ... : ... .. 5 ... ... : ... .. 3 ... ... : ... .. D ... ...
ROW F4 : ... .. . P7E ... ... : ... .. D ... ... ... : ... .. . ... : ... .. 6 ... : ... .. . ... ... : ... .. . ... ... : ... .. . ... ... : ... .. 8 ... ...
ROW F5 : D#5 00 A P80 ... ... : ... .. A ... ... ... : ... .. . ... : ... .. 3 ... : ... .. . ... ... : ... .. . ... ... : ... .. . ... ... : ... .. . ... ...
ROW F6 : D-5 00 A P82 ... ... : ... .. 2 ... ... ... : ... .. . ... : ... .. 2 ... : ... .. . ... ... : ... .. 4 ... ... : ... .. . ... ... : ... .. . ... ...
ROW F7 : ... .. . P81 ... ... : ... .. . ... ... ... : --- .. . ... : ... .. 0 ... : ... .. . ... ... : ... .. . ... ... : ... .. . ... ... : --- .. . ... ...
ROW F8 : ... .. . P82 ... ... : B-2 00 F ... ... ... : B-3 00 . ... : 1-# 00 F ... : ... .. . ... ... : A#4 01 6 ... V00 : G#2 01 6 ... ... : B-2 01 F ... ...
ROW F9 : D#5 00 A P80 ... ... : ... .. E ... ... ... : ... .. . ... : ... .. C ... : ... .. . ... ... : ... .. . ... ... : ... .. . ... ... : ... .. D ... ...
ROW FA : E-5 00 A P7E ... ... : ... .. D ... ... ... : ... .. . ... : ... .. 6 ... : ... .. . ... ... : ... .. . ... ... : ... .. 5 ... ... : ... .. 8 ... ...
ROW FB : ... .. . P7F ... ... : ... .. A ... ... ... : ... .. . ... : ... .. 3 ... : ... .. . ... ... : ... .. 5 ... ... : ... .. 4 ... ... : ... .. . ... ...
ROW FC : ... .. 2 P7E ... ... : ... .. 2 ... ... ... : ... .. . ... : ... .. 2 ... : ... .. . ... ... : ... .. 4 ... ... : ... .. . ... ... : ... .. . ... ...
ROW FD : D#5 00 2 P80 ... ... : ... .. . ... ... ... : --- .. . ... : ... .. 0 ... : ... .. . ... ... : ... .. . ... ... : ... .. . ... ... : --- .. . P8B ...
ROW FE : D-5 00 2 P82 ... ... : C#3 00 F ... ... ... : F#4 00 . ... : 6-# 00 F ... : ... .. . ... ... : B-4 01 6 ... V03 : ... .. . ... ... : F#3 01 F P80 ...
ROW FF : ... .. 1 P81 ... ... : ... .. E ... ... ... : ... .. . ... : ... .. C ... : ... .. . ... ... : ... .. . ... ... : ... .. 3 ... ... : ... .. D ... ...

PATTERN 0E
ROW 00 : ... .. . P82 ... ... : ... .. D ... ... ... : ... .. . ... : ... .. 6 ... : ... .. . ... ... : ... .. 5 ... ... : ... .. . ... ... : ... .. 8 ... ...
ROW 01 : D#5 00 1 P80 ... ... : ... .. A ... ... ... : ... .. . ... : ... .. 3 ... : ... .. . ... ... : ... .. 4 ... ... : ... .. . ... ... : ... .. . ... ...
ROW 02 : ... .. 0 ... ... ... : ... .. . ... ... ... : ... .. . ... : ... .. 2 ... : ... .. . ... ... : ... .. . ... ... : ... .. . ... ... : ... .. . ... ...
ROW 03 : ... .. . ... ... ... : ... .. . ... ... ... : --- .. . ... : ... .. 0 ... : ... .. . ... ... : ... .. . ... ... : ... .. . ... ... : --- .. . P82 ...
ROW 04 : ... .. . ... ... ... : F#2 00 F ... ... ... : C#4 00 . ... : 2-# 00 F ... : ... .. . ... ... : A#4 01 6 ... V00 : D#2 01 6 ... ... : C#3 01 F P80 ...
ROW 05 : ... .. . ... ... ... : ... .. E ... ... ... : ... .. . ... : ... .. C ... : ... .. . ... ... : ... .. . ... ... : ... .. . ... ... : ... .. D ... ...
ROW 06 : ... .. . ... ... ... : ... .. D ... ... ... : ... .. . ... : ... .. 6 ... : ... .. . ... ... : ... .. . ... ... : ... .. 5 ... ... : ... .. 8 ... ...
ROW 07 : ... .. . ... ... ... : ... .. A ... ... ... : ... .. . ... : ... .. 3 ... : ... .. . ... ... : ... .. 5 ... ... : ... .. 4 ... ... : ... .. . ... ...
ROW 08 : ... .. . ... ... ... : ... .. 2 ... ... ... : ... .. . ... : ... .. 2 ... : ... .. . ... ... : ... .. 4 ... ... : ... .. . ... ... : ... .. . ... ...
ROW 09 : ... .. . ... ... ... : ... .. . ... ... ... : --- .. . ... : ... .. 0 ... : ... .. . ... ... : ... .. . ... ... : ... .. . ... ... : --- .. . ... ...
ROW 0A : ... .. . ... ... ... : G#2 00 F ... ... ... : G#4 00 . ... : 1-# 00 F ... : ... .. . ... ... : B-4 01 6 ... V05 : ... .. . ... ... : G#3 01 F ... ...
ROW 0B : ... .. . ... ... ... : ... .. E ... ... ... : ... .. . ... : ... .. C ... : ... .. . ... ... : ... .. 5 ... ... : ... .. 3 ... ... : ... .. D ... ...
ROW 0C : ... .. . ... ... ... : ... .. D ... ... ... : ... .. . ... : ... .. 6 ... : ... .. . ... ... : ... .. . ... ... : ... .. . ... ... : ... .. 8 ... ...
ROW 0D : ... .. . ... ... ... : ... .. A ... ... ... : ... .. . ... : ... .. 3 ... : ... .. . ... ... : ... .. . ... ... : ... .. . ... ... : ... .. . ... ...
ROW 0E : ... .. . ... ... ... : ... .. 2 ... ... ... : ... .. . ... : ... .. 2 ... : ... .. . ... ... : ... .. 4 ... ... : ... .. . ... ... : ... .. . ... ...
ROW 0F : ... .. . ... ... ... : ... .. . ... ... ... : --- .. . ... : ... .. 0 ... : ... .. . ... ... : ... .. . ... ... : ... .. . ... ... : --- .. . P7F ...
ROW 10 : E-5 00 F P80 ... ... : C#2 00 F ... ... ... : C-6 00 . ... : ... .. F ... : ... .. . ... ... : G#4 01 6 ... ... : C#2 01 6 ... ... : C#3 01 F P80 ...
ROW 11 : ... .. E ... ... ... : ... .. E ... ... ... : D-5 00 . ... : ... .. C ... : ... .. . ... ... : ... .. 5 ... ... : ... .. . ... ... : ... .. D ... ...
ROW 12 : ... .. D ... ... ... : ... .. D ... ... ... : G-4 00 . ... : ... .. 6 ... : ... .. . ... ... : ... .. . ... ... : ... .. 5 ... ... : ... .. 8 ... ...
ROW 13 : ... .. A ... ... ... : ... .. A ... ... ... : F#4 00 . ... : ... .. 3 ... : ... .. . ... ... : E-4 01 6 ... ... : ... .. 4 ... ... : ... .. . ... ...
ROW 14 : ... .. 2 ... ... ... : ... .. 2 ... ... ... : C#4 00 . ... : ... .. 2 ... : ... .. . ... ... : ... .. 5 ... ... : ... .. . ... ... : ... .. . ... ...
ROW 15 : ... .. . ... ... ... : ... .. . ... ... ... : --- .. . ... : ... .. 0 ... : ... .. . ... ... : ... .. . ... ... : ... .. . ... ... : --- .. . ... ...
ROW 16 : D#5 00 F ... ... ... : ... .. F ... ... ... : G#3 00 . ... : ... .. F ... : ... .. . ... ... : C#4 01 6 ... ... : E-2 01 6 ... ... : G#2 01 F ... ...
ROW 17 : ... .. E ... ... ... : ... .. E ... ... ... : ... .. . ... : ... .. C ... : ... .. . ... ... : ... .. 5 ... ... : ... .. . ... ... : ... .. D ... ...
ROW 18 : ... .. D ... ... ... : ... .. D ... ... ... : ... .. . ... : ... .. 6 ... : ... .. . ... ... : ... .. . ... ... : ... .. 5 ... ... : ... .. 8 ... ...
ROW 19 : ... .. A ... ... ... : ... .. A ... ... ... : ... .. . ... : ... .. 3 ... : ... .. . ... ... : G#3 01 6 ... ... : ... .. 4 ... ... : ... .. . ... ...
ROW 1A : ... .. 2 ... ... ... : ... .. 2 ... ... ... : ... .. . ... : ... .. 2 ... : ... .. . ... ... : ... .. 5 ... ... : ... .. . ... ... : ... .. . ... ...
ROW 1B : ... .. . ... ... ... : ... .. . ... ... ... : --- .. . ... : ... .. 0 ... : ... .. . ... ... : ... .. . ... ... : ... .. . ... ... : --- .. . P7F ...
ROW 1C : E-5 00 F ... ... ... : ... .. F ... ... ... : D#4 00 . ... : ... .. F ... : ... .. . ... ... : E-3 01 6 ... ... : G#2 01 6 ... ... : D#3 01 F P80 ...
ROW 1D : ... .. E ... ... ... : ... .. E ... ... ... : ... .. . ... : ... .. C ... : ... .. . ... ... : ... .. 5 ... ... : ... .. . ... ... : ... .. D ... ...
ROW 1E : ... .. D ... ... ... : ... .. D ... ... ... : ... .. . ... : ... .. 6 ... : ... .. . ... ... : ... .. . ... ... : ... .. 5 ... ... : ... .. 8 ... ...
ROW 1F : ... .. A ... ... ... : ... .. A ... ... ... : ... .. . ... : ... .. 3 ... : ... .. . ... ... : C#3 01 6 ... ... : ... .. 4 ... ... : ... .. . ... ...
ROW 20 : ... .. . ... ... ... : ... .. . ... ... ... : ... .. . ... : ... .. 2 ... : ... .. . ... ... : ... .. 5 ... ... : ... .. . ... ... : ... .. . ... ...
ROW 21 : ... .. . ... ... ... : ... .. . ... ... ... : --- .. . ... : ... .. 0 ... : ... .. . ... ... : ... .. . ... ... : ... .. . ... ... : --- .. . P7F ...
ROW 22 : ... .. . ... ... ... : D#3 00 F ... ... ... : E-4 00 . ... : B-# 00 F ... : ... .. . ... ... : G#4 01 6 ... ... : C#3 01 6 ... ... : E-3 01 F P80 ...
ROW 23 : ... .. . ... ... ... : ... .. E ... ... ... : ... .. . ... : ... .. . ... : ... .. . ... ... : ... .. 5 ... ... : ... .. . ... ... : ... .. D ... ...
ROW 24 : ... .. . ... ... ... : ... .. D ... ... ... : ... .. . ... : ... .. . ... : ... .. . ... ... : ... .. . ... ... : ... .. 5 ... ... : ... .. 8 ... ...
ROW 25 : ... .. . ... ... ... : ... .. A ... ... ... : ... .. . ... : ... .. D ... : ... .. . ... ... : E-4 01 6 ... ... : ... .. 4 ... ... : ... .. . ... ...
ROW 26 : ... .. . ... ... ... : ... .. 2 ... ... ... : ... .. . ... : ... .. . ... : ... .. . ... ... : ... .. 5 ... ... : ... .. . ... ... : ... .. . ... ...
ROW 27 : ... .. . ... ... ... : ... .. . ... ... ... : ... .. . ... : ... .. . ... : ... .. . ... ... : ... .. . ... ... : ... .. . ... ... : ... .. . ... ...
ROW 28 : ... .. . ... ... ... : E-3 00 F ... ... ... : F-4 00 . P7D : ... .. C ... : ... .. . ... ... : C#4 01 6 ... ... : E-3 01 6 ... ... : ... .. . P87 ...
ROW 29 : ... .. . ... ... ... : ... .. E ... ... ... : ... .. . P7F : ... .. . ... : ... .. . ... ... : ... .. 5 ... ... : ... .. . ... ... : ... .. . P89 ...
ROW 2A : ... .. . ... ... ... : ... .. D ... ... ... : ... .. . P7C : ... .. . ... : ... .. . ... ... : ... .. . ... ... : ... .. 5 ... ... : ... .. . P86 ...
ROW 2B : ... .. . ... ... ... : ... .. A ... ... ... : E-4 00 . P80 : ... .. A ... : ... .. . ... ... : G#3 01 6 ... ... : ... .. 4 ... ... : ... .. . P80 ...
ROW 2C : ... .. . ... ... ... : ... .. . ... ... ... : D#4 00 . P83 : ... .. . ... : ... .. . ... ... : ... .. 5 ... ... : ... .. . ... ... : ... .. . P79 ...
ROW 2D : ... .. . ... ... ... : ... .. . ... ... ... : ... .. . P81 : ... .. . ... : ... .. . ... ... : ... .. . ... ... : ... .. . ... ... : ... .. . P77 ...
ROW 2E : ... .. . ... ... ... : B-1 00 F ... ... ... : ... .. . P84 : ... .. 9 ... : ... .. . ... ... : E-3 01 6 ... ... : G#3 01 6 ... ... : ... .. . P7A ...
ROW 2F : ... .. . ... ... ... : ... .. E ... ... ... : E-4 00 . P80 : ... .. . ... : ... .. . ... ... : ... .. 5 ... ... : ... .. . ... ... : ... .. . P80 ...
ROW 30 : ... .. . ... ... ... : ... .. D ... ... ... : F-4 00 . P7D : ... .. . ... : ... .. . ... ... : ... .. . ... ... : ... .. 5 ... ... : ... .. . P87 ...
ROW 31 : ... .. . ... ... ... : ... .. A ... ... ... : ... .. . P7F : ... .. 8 ... : ... .. . ... ... : C#3 01 6 ... ... : ... .. 4 ... ... : ... .. . P89 ...
ROW 32 : ... .. . ... ... ... : ... .. 2 ... ... ... : ... .. . P7C : ... .. . ... : ... .. . ... ... : ... .. 5 ... ... : ... .. . ... ... : ... .. . P86 ...
ROW 33 : ... .. . ... ... ... : ... .. . ... ... ... : E-4 00 . P80 : ... .. . ... : ... .. . ... ... : ... .. . ... ... : ... .. . ... ... : ... .. . P80 ...
ROW 34 : ... .. . ... ... ... : C#2 00 F ... ... ... : C-6 00 . ... : 1-# 00 F ... : ... .. . ... ... : G#4 01 6 ... ... : C#4 01 6 ... ... : C#3 01 F ... ...
ROW 35 : ... .. . ... ... ... : ... .. E ... ... ... : D-5 00 . ... : ... .. C ... : ... .. . ... ... : ... .. 5 ... ... : ... .. . ... ... : ... .. D ... ...
ROW 36 : ... .. . ... ... ... : ... .. D ... ... ... : G-4 00 . ... : ... .. 6 ... : ... .. . ... ... : ... .. . ... ... : ... .. 5 ... ... : ... .. 8 ... ...
ROW 37 : F-5 00 A P7E ... ... : ... .. A ... ... ... : F#4 00 . ... : ... .. 3 ... : ... .. . ... ... : E-4 01 6 ... ... : ... .. 4 ... ... : ... .. . ... ...
ROW 38 : ... .. . P7F ... ... : ... .. 2 ... ... ... : C#4 00 . ... : ... .. 2 ... : ... .. . ... ... : ... .. 5 ... ... : ... .. . ... ... : ... .. . ... ...
ROW 39 : ... .. . P7E ... ... : ... .. . ... ... ... : --- .. . ... : ... .. 0 ... : ... .. . ... ... : ... .. . ... ... : ... .. . ... ... : --- .. . ... ...
ROW 3A : E-5 00 A P80 ... ... : ... .. F ... ... ... : G#3 00 . ... : ... .. F ... : ... .. . ... ... : C#4 01 6 ... ... : G#3 01 6 ... ... : G#2 01 F ... ...
ROW 3B : D#5 00 A P82 ... ... : ... .. E ... ... ... : ... .. . ... : ... .. C ... : ... .. . ... ... : ... .. 5 ... ... : ... .. . ... ... : ... .. D ... ...
ROW 3C : ... .. . P81 ... ... : ... .. D ... ... ... : ... .. . ... : ... .. 6 ... : ... .. . ... ... : ... .. . ... ... : ... .. 5 ... ... : ... .. 8 ... ...
ROW 3D : ... .. . P82 ... ... : ... .. A ... ... ... : ... .. . ... : ... .. 3 ... : ... .. . ... ... : G#3 01 6 ... ... : ... .. 4 ... ... : ... .. . ... ...
ROW 3E : E-5 00 A P80 ... ... : ... .. . ... ... ... : ... .. . ... : ... .. 2 ... : ... .. . ... ... : ... .. 5 ... ... : ... .. . ... ... : ... .. . ... ...
ROW 3F : F-5 00 A P7E ... ... : ... .. . ... ... ... : --- .. . ... : ... .. 0 ... : ... .. . ... ... : ... .. . ... ... : ... .. . ... ... : --- .. . P7F ...
ROW 40 : ... .. . P7F ... ... : ... .. F ... ... ... : D#4 00 . ... : ... .. F ... : ... .. . ... ... : E-3 01 6 ... ... : E-3 01 6 ... ... : D#3 01 F P80 ...
ROW 41 : ... .. . P7E ... ... : ... .. E ... ... ... : ... .. . ... : ... .. C ... : ... .. . ... ... : ... .. 5 ... ... : ... .. . ... ... : ... .. D ... ...
ROW 42 : E-5 00 A P80 ... ... : ... .. D ... ... ... : ... .. . ... : ... .. 6 ... : ... .. . ... ... : ... .. . ... ... : ... .. 5 ... ... : ... .. 8 ... ...
ROW 43 : D#5 00 A P82 ... ... : ... .. A ... ... ... : ... .. . ... : ... .. 3 ... : ... .. . ... ... : C#3 01 6 ... ... : ... .. 4 ... ... : ... .. . ... ...
ROW 44 : ... .. . P81 ... ... : ... .. 2 ... ... ... : ... .. . ... : ... .. 2 ... : ... .. . ... ... : ... .. 5 ... ... : ... .. . ... ... : ... .. . ... ...
ROW 45 : ... .. . P82 ... ... : ... .. . ... ... ... : --- .. . ... : ... .. 0 ... : ... .. . ... ... : ... .. . ... ... : ... .. . ... ... : --- .. . P7F ...
ROW 46 : E-5 00 A P80 ... ... : F#3 00 F ... ... ... : E-4 00 . ... : B-# 00 F ... : ... .. . ... ... : G#4 01 6 ... ... : C#3 01 6 ... ... : E-3 01 F P80 ...
ROW 47 : F-5 00 A P7E ... ... : ... .. E ... ... ... : ... .. . ... : ... .. . ... : ... .. . ... ... : ... .. 5 ... ... : ... .. . ... ... : ... .. D ... ...
ROW 48 : ... .. . P7F ... ... : ... .. D ... ... ... : ... .. . ... : ... .. . ... : ... .. . ... ... : ... .. . ... ... : ... .. 5 ... ... : ... .. 8 ... ...
ROW 49 : ... .. . P7E ... ... : ... .. A ... ... ... : ... .. . ... : ... .. D ... : ... .. . ... ... : E-4 01 6 ... ... : ... .. 4 ... ... : ... .. . ... ...
ROW 4A : E-5 00 A P80 ... ... : ... .. . ... ... ... : ... .. . ... : ... .. . ... : ... .. . ... ... : ... .. 5 ... ... : ... .. . ... ... : ... .. . ... ...
ROW 4B : D#5 00 A P82 ... ... : ... .. . ... ... ... : ... .. . ... : ... .. . ... : ... .. . ... ... : ... .. . ... ... : ... .. . ... ... : ... .. . ... ...
ROW 4C : ... .. . P81 ... ... : E-3 00 F ... ... ... : F-4 00 . P7D : ... .. C ... : ... .. . ... ... : C#4 01 6 ... ... : G#2 01 6 ... ... : ... .. . P87 ...
ROW 4D : ... .. . P82 ... ... : ... .. E ... ... ... : ... .. . P7F : ... .. . ... : ... .. . ... ... : ... .. 5 ... ... : ... .. . ... ... : ... .. . P89 ...
ROW 4E : E-5 00 A P80 ... ... : ... .. D ... ... ... : ... .. . P7C : ... .. . ... : ... .. . ... ... : ... .. . ... ... : ... .. 5 ... ... : ... .. . P86 ...
ROW 4F : F-5 00 A P7E ... ... : ... .. A ... ... ... : E-4 00 . P80 : ... .. A ... : ... .. . ... ... : G#3 01 6 ... ... : ... .. 4 ... ... : ... .. . P80 ...
ROW 50 : ... .. 2 P7F ... ... : ... .. 2 ... ... ... : D#4 00 . P83 : ... .. . ... : ... .. . ... ... : ... .. 5 ... ... : ... .. . ... ... : ... .. . P79 ...
ROW 51 : ... .. . P7E ... ... : ... .. . ... ... ... : ... .. . P81 : ... .. . ... : ... .. . ... ... : ... .. . ... ... : ... .. . ... ... : ... .. . P77 ...
ROW 52 : E-5 00 2 P80 ... ... : C#2 00 F ... ... ... : ... .. . P84 : ... .. 9 ... : ... .. . ... ... : E-3 01 6 ... ... : E-2 01 6 ... ... : ... .. . P7A ...
ROW 53 : D#5 00 1 P82 ... ... : ... .. E ... ... ... : E-4 00 . P80 : ... .. . ... : ... .. . ... ... : ... .. 5 ... ... : ... .. . ... ... : ... .. . P80 ...
ROW 54 : ... .. . P81 ... ... : ... .. D ... ... ... : F-4 00 . P7D : ... .. . ... : ... .. . ... ... : ... .. . ... ... : ... .. 5 ... ... : ... .. . P87 ...
ROW 55 : ... .. . P82 ... ... : ... .. A ... ... ... : ... .. . P7F : ... .. 8 ... : ... .. . ... ... : C#3 01 6 ... ... : ... .. 4 ... ... : ... .. . P89 ...
ROW 56 : ... .. 0 ... ... ... : ... .. . ... ... ... : ... .. . P7C : ... .. . ... : ... .. . ... ... : ... .. 5 ... ... : ... .. . ... ... : ... .. . P86 ...
ROW 57 : ... .. . ... ... ... : ... .. . ... ... ... : E-4 00 . P80 : ... .. . ... : ... .. . ... ... : ... .. . ... ... : ... .. . ... ... : ... .. . P80 ...
ROW 58 : F#5 00 F P80 ... ... : ... .. F ... ... ... : A#5 00 . ... : 1-# 00 F ... : ... .. . ... ... : G#4 01 6 ... ... : B-1 01 6 ... ... : B-2 01 F ... ...
ROW 59 : ... .. E ... ... ... : ... .. E ... ... ... : C-5 00 . ... : ... .. C ... : ... .. . ... ... : ... .. 5 ... ... : ... .. . ... ... : ... .. D ... ...
ROW 5A : ... .. D ... ... ... : ... .. D ... ... ... : F-4 00 . ... : ... .. 6 ... : ... .. . ... ... : ... .. . ... ... : ... .. 5 ... ... : ... .. 8 ... ...
ROW 5B : ... .. A ... ... ... : ... .. A ... ... ... : E-4 00 . ... : ... .. 3 ... : ... .. . ... ... : D#4 01 6 ... ... : ... .. 4 ... ... : ... .. . ... ...
ROW 5C : ... .. 2 ... ... ... : ... .. 2 ... ... ... : B-3 00 . ... : ... .. 2 ... : ... .. . ... ... : ... .. 5 ... ... : ... .. . ... ... : ... .. . ... ...
ROW 5D : ... .. . ... ... ... : ... .. . ... ... ... : --- .. . ... : ... .. 0 ... : ... .. . ... ... : ... .. . ... ... : ... .. . ... ... : --- .. . P8B ...
ROW 5E : E-5 00 F ... ... ... : D#2 00 F ... ... ... : B-2 00 . ... : ... .. F ... : ... .. . ... ... : B-3 01 6 ... ... : B-2 01 6 ... ... : B-1 01 F P80 ...
ROW 5F : ... .. E ... ... ... : ... .. E ... ... ... : ... .. . ... : ... .. C ... : ... .. . ... ... : ... .. 5 ... ... : ... .. . ... ... : ... .. D ... ...
ROW 60 : ... .. D ... ... ... : ... .. D ... ... ... : ... .. . ... : ... .. 6 ... : ... .. . ... ... : ... .. . ... ... : ... .. 5 ... ... : ... .. 8 ... ...
ROW 61 : ... .. A ... ... ... : ... .. A ... ... ... : ... .. . ... : ... .. 3 ... : ... .. . ... ... : G#3 01 6 ... ... : ... .. 4 ... ... : ... .. . ... ...
ROW 62 : ... .. 2 ... ... ... : ... .. . ... ... ... : ... .. . ... : ... .. 2 ... : ... .. . ... ... : ... .. 5 ... ... : ... .. . ... ... : ... .. . ... ...
ROW 63 : ... .. . ... ... ... : ... .. . ... ... ... : --- .. . ... : ... .. 0 ... : ... .. . ... ... : ... .. . ... ... : ... .. . ... ... : --- .. . P86 ...
ROW 64 : F#5 00 F ... ... ... : E-2 00 F ... ... ... : B-3 00 . ... : ... .. F ... : ... .. . ... ... : D#3 01 6 ... ... : D#3 01 6 ... ... : B-2 01 F P80 ...
ROW 65 : ... .. E ... ... ... : ... .. E ... ... ... : ... .. . ... : ... .. C ... : ... .. . ... ... : ... .. 5 ... ... : ... .. . ... ... : ... .. D ... ...
ROW 66 : ... .. D ... ... ... : ... .. D ... ... ... : ... .. . ... : ... .. 6 ... : ... .. . ... ... : ... .. . ... ... : ... .. 5 ... ... : ... .. 8 ... ...
ROW 67 : ... .. A ... ... ... : ... .. A ... ... ... : ... .. . ... : ... .. 3 ... : ... .. . ... ... : B-2 01 6 ... ... : ... .. 4 ... ... : ... .. . ... ...
ROW 68 : ... .. . ... ... ... : ... .. 2 ... ... ... : ... .. . ... : ... .. 2 ... : ... .. . ... ... : ... .. 5 ... ... : ... .. . ... ... : ... .. . ... ...
ROW 69 : ... .. . ... ... ... : ... .. . ... ... ... : --- .. . ... : ... .. 0 ... : ... .. . ... ... : ... .. . ... ... : ... .. . ... ... : --- .. . P8B ...
ROW 6A : ... .. . ... ... ... : G#2 00 F ... ... ... : B-2 00 . ... : A-# 00 F ... : ... .. . ... ... : G#4 01 6 ... ... : F#3 01 6 ... ... : B-1 01 F P80 ...
ROW 6B : ... .. . ... ... ... : ... .. E ... ... ... : ... .. . ... : ... .. C ... : ... .. . ... ... : ... .. 5 ... ... : ... .. . ... ... : ... .. D ... ...
ROW 6C : ... .. . ... ... ... : ... .. D ... ... ... : ... .. . ... : ... .. 6 ... : ... .. . ... ... : ... .. . ... ... : ... .. 5 ... ... : ... .. 8 ... ...
ROW 6D : ... .. . ... ... ... : ... .. A ... ... ... : ... .. . ... : ... .. 3 ... : ... .. . ... ... : D#4 01 6 ... ... : ... .. 4 ... ... : ... .. . ... ...
ROW 6E : ... .. . ... ... ... : ... .. 2 ... ... ... : ... .. . ... : ... .. 2 ... : ... .. . ... ... : ... .. 5 ... ... : ... .. . ... ... : ... .. . ... ...
ROW 6F : ... .. . ... ... ... : ... .. . ... ... ... : --- .. . ... : ... .. 0 ... : ... .. . ... ... : ... .. . ... ... : ... .. . ... ... : --- .. . P86 ...
ROW 70 : ... .. . ... ... ... : A-2 00 F ... ... ... : B-1 00 . ... : 5-# 00 F ... : ... .. . ... ... : B-3 01 6 ... ... : B-3 01 6 ... ... : B-0 01 F P80 ...
ROW 71 : ... .. . ... ... ... : ... .. E ... ... ... : ... .. . ... : ... .. C ... : ... .. . ... ... : ... .. 5 ... ... : ... .. . ... ... : ... .. D ... ...
ROW 72 : ... .. . ... ... ... : ... .. D ... ... ... : ... .. . ... : ... .. 6 ... : ... .. . ... ... : ... .. . ... ... : ... .. 5 ... ... : ... .. 8 ... ...
ROW 73 : ... .. . ... ... ... : ... .. A ... ... ... : ... .. . ... : ... .. 3 ... : ... .. . ... ... : G#3 01 6 ... ... : ... .. 4 ... ... : ... .. . ... ...
ROW 74 : ... .. . ... ... ... : ... .. . ... ... ... : ... .. . ... : ... .. 2 ... : ... .. . ... ... : ... .. 5 ... ... : ... .. . ... ... : ... .. . ... ...
ROW 75 : ... .. . ... ... ... : ... .. . ... ... ... : --- .. . ... : ... .. 0 ... : ... .. . ... ... : ... .. . ... ... : ... .. . ... ... : --- .. . ... ...
ROW 76 : ... .. . ... ... ... : C#3 00 F ... ... ... : B-2 00 . ... : 3-# 00 F ... : ... .. . ... ... : D#3 01 6 ... ... : D#4 01 6 ... ... : B-1 01 F ... ...
ROW 77 : ... .. . ... ... ... : ... .. E ... ... ... : ... .. . ... : ... .. C ... : ... .. . ... ... : ... .. 5 ... ... : ... .. . ... ... : ... .. D ... ...
ROW 78 : ... .. . ... ... ... : ... .. D ... ... ... : ... .. . ... : ... .. 6 ... : ... .. . ... ... : ... .. . ... ... : ... .. 5 ... ... : ... .. 8 ... ...
ROW 79 : ... .. . ... ... ... : ... .. A ... ... ... : ... .. . ... : ... .. 3 ... : ... .. . ... ... : B-2 01 6 ... ... : ... .. 4 ... ... : ... .. . ... ...
ROW 7A : ... .. . ... ... ... : ... .. 2 ... ... ... : ... .. . ... : ... .. 2 ... : ... .. . ... ... : ... .. 5 ... ... : ... .. . ... ... : ... .. . ... ...
ROW 7B : ... .. . ... ... ... : ... .. . ... ... ... : --- .. . ... : ... .. 0 ... : ... .. . ... ... : ... .. . ... ... : ... .. . ... ... : --- .. . P86 ...
ROW 7C : ... .. . ... ... ... : D#3 00 F ... ... ... : G#4 00 . ... : 8-# 00 F ... : ... .. . ... ... : G#4 01 6 ... ... : C#4 01 6 ... ... : A-1 01 F P80 ...
ROW 7D : ... .. . ... ... ... : ... .. E ... ... ... : A#3 00 . ... : ... .. C ... : ... .. . ... ... : ... .. 5 ... ... : ... .. . ... ... : ... .. D ... ...
ROW 7E : ... .. . ... ... ... : ... .. D ... ... ... : D#3 00 . ... : ... .. 6 ... : ... .. . ... ... : ... .. . ... ... : ... .. 5 ... ... : ... .. 8 ... ...
ROW 7F : ... .. . ... ... ... : ... .. A ... ... ... : D-3 00 . ... : ... .. 3 ... : ... .. . ... ... : D#4 01 6 ... ... : ... .. 4 ... ... : ... .. . ... ...
ROW 80 : ... .. . ... ... ... : ... .. 2 ... ... ... : A-2 00 . ... : ... .. 2 ... : ... .. . ... ... : ... .. 5 ... ... : ... .. . ... ... : ... .. . ... ...
ROW 81 : ... .. . ... ... ... : ... .. . ... ... ... : --- .. . ... : ... .. 0 ... : ... .. . ... ... : ... .. . ... ... : ... .. . ... ... : --- .. . P7F ...
ROW 82 : G-5 00 A P7E ... ... : E-3 00 F ... ... ... : C#3 00 . ... : 7-# 00 F ... : ... .. . ... ... : C#4 01 6 ... ... : D#4 01 6 ... ... : C#2 01 F P80 ...
ROW 83 : ... .. . P7F ... ... : ... .. E ... ... ... : ... .. . ... : ... .. C ... : ... .. . ... ... : ... .. 5 ... ... : ... .. . ... ... : ... .. D ... ...
ROW 84 : ... .. . P7E ... ... : ... .. D ... ... ... : ... .. . ... : ... .. 6 ... : ... .. . ... ... : ... .. . ... ... : ... .. 5 ... ... : ... .. 8 ... ...
ROW 85 : F#5 00 A P80 ... ... : ... .. A ... ... ... : ... .. . ... : ... .. 3 ... : ... .. . ... ... : G#3 01 6 ... ... : ... .. 4 ... ... : ... .. . ... ...
ROW 86 : F-5 00 A P81 ... ... : ... .. 2 ... ... ... : ... .. . ... : ... .. 2 ... : ... .. . ... ... : ... .. 5 ... ... : ... .. . ... ... : ... .. . ... ...
ROW 87 : ... .. . P80 ... ... : ... .. . ... ... ... : --- .. . ... : ... .. 0 ... : ... .. . ... ... : ... .. . ... ... : ... .. . ... ... : --- .. . ... ...
ROW 88 : ... .. . P81 ... ... : G#3 00 F ... ... ... : D#3 00 . ... : 6-# 00 F ... : ... .. . ... ... : D#3 01 6 ... ... : G#4 01 6 ... ... : D#2 01 F ... ...
ROW 89 : F#5 00 A P80 ... ... : ... .. E ... ... ... : ... .. . ... : ... .. C ... : ... .. . ... ... : ... .. 5 ... ... : ... .. . ... ... : ... .. D ... ...
ROW 8A : G-5 00 A P7E ... ... : ... .. D ... ... ... : ... .. . ... : ... .. 6 ... : ... .. . ... ... : ... .. . ... ... : ... .. 5 ... ... : ... .. 8 ... ...
ROW 8B : ... .. . P7F ... ... : ... .. A ... ... ... : ... .. . ... : ... .. 3 ... : ... .. . ... ... : C#3 01 6 ... ... : ... .. 4 ... ... : ... .. . ... ...
ROW 8C : ... .. . P7E ... ... : ... .. 2 ... ... ... : ... .. . ... : ... .. 2 ... : ... .. . ... ... : ... .. 5 ... ... : ... .. . ... ... : ... .. . ... ...
ROW 8D : F#5 00 A P80 ... ... : ... .. . ... ... ... : --- .. . ... : ... .. 0 ... : ... .. . ... ... : ... .. . ... ... : ... .. . ... ... : --- .. . ... ...
ROW 8E : F-5 00 A P81 ... ... : A-3 00 F ... ... ... : E-3 00 . ... : 5-# 00 F ... : ... .. . ... ... : G#4 01 6 ... ... : C#5 01 6 ... ... : E-2 01 F ... ...
ROW 8F : ... .. . P80 ... ... : ... .. E ... ... ... : ... .. . ... : ... .. C ... : ... .. . ... ... : ... .. 5 ... ... : ... .. . ... ... : ... .. D ... ...
ROW 90 : ... .. . P81 ... ... : ... .. D ... ... ... : ... .. . ... : ... .. 6 ... : ... .. . ... ... : ... .. . ... ... : ... .. 5 ... ... : ... .. 8 ... ...
ROW 91 : F#5 00 A P80 ... ... : ... .. A ... ... ... : ... .. . ... : ... .. 3 ... : ... .. . ... ... : D#4 01 6 ... ... : ... .. 4 ... ... : ... .. . ... ...
ROW 92 : G-5 00 A P7E ... ... : ... .. 2 ... ... ... : ... .. . ... : ... .. 2 ... : ... .. . ... ... : ... .. 5 ... ... : ... .. . ... ... : ... .. . ... ...
ROW 93 : ... .. . P7F ... ... : ... .. . ... ... ... : --- .. . ... : ... .. 0 ... : ... .. . ... ... : ... .. . ... ... : ... .. . ... ... : --- .. . P89 ...
ROW 94 : ... .. . P7E ... ... : C#4 00 F ... ... ... : G#3 00 . ... : 4-# 00 F ... : ... .. . ... ... : C#4 01 6 ... ... : D#5 01 6 ... ... : G#2 01 F P80 ...
ROW 95 : F#5 00 A P80 ... ... : ... .. E ... ... ... : ... .. . ... : ... .. C ... : ... .. . ... ... : ... .. 5 ... ... : ... .. . ... ... : ... .. D ... ...
ROW 96 : F-5 00 A P81 ... ... : ... .. D ... ... ... : ... .. . ... : ... .. 6 ... : ... .. . ... ... : ... .. . ... ... : ... .. 5 ... ... : ... .. 8 ... ...
ROW 97 : ... .. . P80 ... ... : ... .. A ... ... ... : ... .. . ... : ... .. 3 ... : ... .. . ... ... : G#3 01 6 ... ... : ... .. 4 ... ... : ... .. . ... ...
ROW 98 : ... .. . P81 ... ... : ... .. 2 ... ... ... : ... .. . ... : ... .. 2 ... : ... .. . ... ... : ... .. 5 ... ... : ... .. . ... ... : ... .. . ... ...
ROW 99 : F#5 00 A P80 ... ... : ... .. . ... ... ... : --- .. . ... : ... .. 0 ... : ... .. . ... ... : ... .. . ... ... : ... .. . ... ... : --- .. . P7F ...
ROW 9A : G-5 00 A P7E ... ... : D#4 00 F ... ... ... : A-3 00 . ... : 3-# 00 F ... : ... .. . ... ... : D#3 01 6 ... ... : G#5 01 6 ... ... : A-2 01 F P80 ...
ROW 9B : ... .. 2 P7F ... ... : ... .. E ... ... ... : ... .. . ... : ... .. C ... : ... .. . ... ... : ... .. 5 ... ... : ... .. . ... ... : ... .. D ... ...
ROW 9C : ... .. . P7E ... ... : ... .. D ... ... ... : ... .. . ... : ... .. 6 ... : ... .. . ... ... : ... .. . ... ... : ... .. 5 ... ... : ... .. 8 ... ...
ROW 9D : F#5 00 2 P80 ... ... : ... .. A ... ... ... : ... .. . ... : ... .. 3 ... : ... .. . ... ... : C#3 01 6 ... ... : ... .. 4 ... ... : ... .. . ... ...
ROW 9E : ... .. 1 ... ... ... : ... .. 2 ... ... ... : ... .. . ... : ... .. 2 ... : ... .. . ... ... : ... .. 5 ... ... : ... .. . ... ... : ... .. . ... ...
ROW 9F : ... .. . ... ... ... : ... .. . ... ... ... : --- .. . ... : ... .. 0 ... : ... .. . ... ... : ... .. . ... ... : ... .. . ... ... : --- .. . ... ...
ROW A0 : G#5 00 F ... ... ... : D#2 00 F ... ... ... : G-4 00 . ... : 1-# 00 F ... : ... .. . ... ... : G#3 01 A ... V03 : D#3 01 A ... ... : G#0 01 F ... ...
ROW A1 : ... .. E ... ... ... : ... .. E ... ... ... : A-3 00 . ... : ... .. C ... : ... .. . ... ... : ... .. 9 ... ... : ... .. 9 ... ... : ... .. D ... ...
ROW A2 : ... .. D ... ... ... : ... .. D ... ... ... : D-3 00 . ... : ... .. 6 ... : ... .. . ... ... : ... .. 8 ... ... : ... .. 8 ... ... : ... .. 8 ... ...
ROW A3 : ... .. 9 ... ... ... : ... .. A ... ... ... : C#3 00 . ... : ... .. 3 ... : ... .. . ... ... : ... .. 7 ... ... : ... .. 7 ... ... : ... .. . ... ...
ROW A4 : ... .. 1 ... ... ... : ... .. 2 ... ... ... : G#2 00 . ... : ... .. 2 ... : ... .. . ... ... : ... .. . ... ... : ... .. . ... ... : ... .. . ... ...
ROW A5 : ... .. . ... ... ... : ... .. . ... ... ... : --- .. . ... : ... .. 0 ... : ... .. . ... ... : ... .. 6 ... ... : ... .. 6 ... ... : --- .. . P84 ...
ROW A6 : G#4 00 D ... ... ... : ... .. F ... ... ... : G#2 00 . ... : D-# 00 F ... : ... .. . ... ... : ... .. . ... ... : ... .. . ... ... : G#0 01 F P80 ...
ROW A7 : ... .. C ... ... ... : ... .. E ... ... ... : ... .. . ... : ... .. C ... : ... .. . ... ... : ... .. 5 ... ... : ... .. 5 ... ... : ... .. D ... ...
ROW A8 : ... .. B ... ... ... : ... .. D ... ... ... : ... .. . ... : ... .. 6 ... : ... .. . ... ... : ... .. . ... ... : ... .. . ... ... : ... .. 8 ... ...
ROW A9 : ... .. 8 ... ... ... : ... .. A ... ... ... : ... .. . ... : ... .. 3 ... : ... .. . ... ... : ... .. . ... ... : ... .. . ... ... : ... .. . ... ...
ROW AA : ... .. 1 ... ... ... : ... .. 2 ... ... ... : ... .. . ... : ... .. 2 ... : ... .. . ... ... : ... .. . ... ... : ... .. . ... ... : ... .. . ... ...
ROW AB : ... .. . ... ... ... : ... .. . ... ... ... : --- .. . ... : ... .. 0 ... : ... .. . ... ... : ... .. . ... ... : ... .. . ... ... : --- .. . P84 ...
ROW AC : G#5 00 C ... ... ... : ... .. F ... ... ... : G#2 00 . ... : 6-# 00 F ... : ... .. . ... ... : --- .. . P82 ... : --- .. . P83 ... : G#0 01 F P80 ...
ROW AD : ... .. B ... ... ... : ... .. E ... ... ... : ... .. . ... : ... .. C ... : ... .. . ... ... : ... .. . ... ... : ... .. . ... ... : ... .. D ... ...
ROW AE : ... .. A ... ... ... : ... .. D ... ... ... : ... .. . ... : ... .. 6 ... : ... .. . ... ... : ... .. . ... ... : ... .. . ... ... : ... .. 8 ... ...
ROW AF : ... .. 8 ... ... ... : ... .. A ... ... ... : ... .. . ... : ... .. 3 ... : ... .. . ... ... : ... .. . ... ... : ... .. . ... ... : ... .. . ... ...
ROW B0 : ... .. 1 ... ... ... : ... .. 2 ... ... ... : ... .. . ... : ... .. 2 ... : ... .. . ... ... : ... .. . ... ... : ... .. . ... ... : ... .. . ... ...
ROW B1 : ... .. . ... ... ... : ... .. . ... ... ... : --- .. . ... : ... .. 0 ... : ... .. . ... ... : ... .. . ... ... : ... .. . ... ... : --- .. . P84 ...
ROW B2 : G#4 00 B ... ... ... : F#2 00 F ... ... ... : F#3 00 . ... : D-# 00 F ... : ... .. . ... ... : D#3 01 A P80 ... : G#2 01 A P80 ... : F#1 01 F P80 ...
ROW B3 : ... .. A ... ... ... : ... .. E ... ... ... : ... .. . ... : ... .. C ... : ... .. . ... ... : ... .. 9 ... ... : ... .. 9 ... ... : ... .. D ... ...
ROW B4 : ... .. 9 ... ... ... : ... .. D ... ... ... : ... .. . ... : ... .. 6 ... : ... .. . ... ... : ... .. 8 ... ... : ... .. 8 ... ... : ... .. 8 ... ...
ROW B5 : ... .. 6 ... ... ... : ... .. A ... ... ... : ... .. . ... : ... .. 3 ... : ... .. . ... ... : --- .. . P83 ... : --- .. . ... ... : ... .. . ... ...
ROW B6 : ... .. . ... ... ... : ... .. . ... ... ... : ... .. . ... : ... .. 2 ... : ... .. . ... ... : ... .. . ... ... : ... .. . ... ... : ... .. . ... ...
ROW B7 : ... .. . ... ... ... : ... .. . ... ... ... : --- .. . ... : ... .. 0 ... : ... .. . ... ... : ... .. . ... ... : ... .. . ... ... : --- .. . P81 ...
ROW B8 : G#5 00 A ... ... ... : C#2 00 F ... ... ... : G#3 00 . ... : 1-# 00 F ... : ... .. . ... ... : D#3 01 A P80 ... : G#2 01 A ... ... : G#1 01 F P80 ...
ROW B9 : ... .. 9 ... ... ... : ... .. E ... ... ... : ... .. . ... : ... .. C ... : ... .. . ... ... : ... .. 9 ... ... : ... .. 9 ... ... : ... .. D ... ...
ROW BA : ... .. 8 ... ... ... : ... .. D ... ... ... : ... .. . ... : ... .. 6 ... : ... .. . ... ... : ... .. 8 ... ... : ... .. 8 ... ... : ... .. 8 ... ...
ROW BB : ... .. 6 ... ... ... : ... .. A ... ... ... : ... .. . ... : ... .. 3 ... : ... .. . ... ... : --- .. . P83 ... : --- .. . ... ... : ... .. . ... ...
ROW BC : ... .. 1 ... ... ... : ... .. 2 ... ... ... : ... .. . ... : ... .. 2 ... : ... .. . ... ... : ... .. . ... ... : ... .. . ... ... : ... .. . ... ...
ROW BD : ... .. . ... ... ... : ... .. . ... ... ... : --- .. . ... : ... .. 0 ... : ... .. . ... ... : ... .. . ... ... : ... .. . ... ... : --- .. . P7E ...
ROW BE : G#4 00 9 ... ... ... : ... .. F ... ... ... : F#2 00 . ... : ... .. F ... : ... .. . ... ... : D#3 01 A P80 ... : G#2 01 A ... ... : F#0 01 F P80 ...
ROW BF : ... .. 8 ... ... ... : ... .. E ... ... ... : ... .. . ... : ... .. C ... : ... .. . ... ... : ... .. 9 ... ... : ... .. 9 ... ... : ... .. D ... ...
ROW C0 : ... .. 7 ... ... ... : ... .. D ... ... ... : ... .. . ... : ... .. 6 ... : ... .. . ... ... : ... .. 8 ... ... : ... .. 8 ... ... : ... .. 8 ... ...
ROW C1 : ... .. 5 ... ... ... : ... .. A ... ... ... : ... .. . ... : ... .. 3 ... : ... .. . ... ... : --- .. . P83 ... : --- .. . ... ... : ... .. . ... ...
ROW C2 : ... .. 1 ... ... ... : ... .. 2 ... ... ... : ... .. . ... : ... .. 2 ... : ... .. . ... ... : ... .. . ... ... : ... .. . ... ... : ... .. . ... ...
ROW C3 : ... .. . ... ... ... : ... .. . ... ... ... : --- .. . ... : ... .. 0 ... : ... .. . ... ... : ... .. . ... ... : ... .. . ... ... : --- .. . P81 ...
ROW C4 : G#5 00 8 ... ... ... : D#2 00 F ... ... ... : G-4 00 . ... : 6-# 00 F ... : ... .. . ... ... : C#3 01 A P80 ... : F#2 01 A ... ... : G#0 01 F P80 ...
ROW C5 : ... .. 7 ... ... ... : ... .. E ... ... ... : A-3 00 . ... : ... .. C ... : ... .. . ... ... : ... .. 9 ... ... : ... .. 9 ... ... : ... .. D ... ...
ROW C6 : ... .. 6 ... ... ... : ... .. D ... ... ... : D-3 00 . ... : ... .. 6 ... : ... .. . ... ... : ... .. 8 ... ... : ... .. 8 ... ... : ... .. 8 ... ...
ROW C7 : ... .. 4 ... ... ... : ... .. A ... ... ... : C#3 00 . ... : ... .. 3 ... : ... .. . ... ... : ... .. 7 ... ... : ... .. 7 ... ... : ... .. . ... ...
ROW C8 : ... .. 1 ... ... ... : ... .. 2 ... ... ... : G#2 00 . ... : ... .. 2 ... : ... .. . ... ... : ... .. . ... ... : ... .. . ... ... : ... .. . ... ...
ROW C9 : ... .. . ... ... ... : ... .. . ... ... ... : --- .. . ... : ... .. 0 ... : ... .. . ... ... : ... .. 6 ... ... : ... .. 6 ... ... : --- .. . P84 ...
ROW CA : G#4 00 6 ... ... ... : ... .. F ... ... ... : G#2 00 . ... : D-# 00 F ... : ... .. . ... ... : D#3 01 A ... ... : G#2 01 A ... ... : G#0 01 F P80 ...
ROW CB : ... .. 5 ... ... ... : ... .. E ... ... ... : ... .. . ... : ... .. C ... : ... .. . ... ... : ... .. 9 ... ... : ... .. 9 ... ... : ... .. D ... ...
ROW CC : ... .. . ... ... ... : ... .. D ... ... ... : ... .. . ... : ... .. 6 ... : ... .. . ... ... : ... .. 8 ... ... : ... .. 8 ... ... : ... .. 8 ... ...
ROW CD : ... .. 4 ... ... ... : ... .. A ... ... ... : ... .. . ... : ... .. 3 ... : ... .. . ... ... : --- .. . P83 ... : --- .. . ... ... : ... .. . ... ...
ROW CE : ... .. 1 ... ... ... : ... .. 2 ... ... ... : ... .. . ... : ... .. 2 ... : ... .. . ... ... : ... .. . ... ... : ... .. . ... ... : ... .. . ... ...
ROW CF : ... .. . ... ... ... : ... .. . ... ... ... : --- .. . ... : ... .. 0 ... : ... .. . ... ... : ... .. . ... ... : ... .. . ... ... : --- .. . P84 ...
ROW D0 : G#5 00 5 ... ... ... : ... .. F ... ... ... : G#2 00 . ... : 1-# 00 F ... : ... .. . ... ... : D#3 01 A P80 ... : G#2 01 A ... ... : G#0 01 F P80 ...
ROW D1 : ... .. 4 ... ... ... : ... .. E ... ... ... : ... .. . ... : ... .. C ... : ... .. . ... ... : ... .. 9 ... ... : ... .. 9 ... ... : ... .. D ... ...
ROW D2 : ... .. . ... ... ... : ... .. D ... ... ... : ... .. . ... : ... .. 6 ... : ... .. . ... ... : ... .. 8 ... ... : ... .. 8 ... ... : ... .. 8 ... ...
ROW D3 : ... .. 3 ... ... ... : ... .. A ... ... ... : ... .. . ... : ... .. 3 ... : ... .. . ... ... : --- .. . P83 ... : --- .. . ... ... : ... .. . ... ...
ROW D4 : ... .. 1 ... ... ... : ... .. 2 ... ... ... : ... .. . ... : ... .. 2 ... : ... .. . ... ... : ... .. . ... ... : ... .. . ... ... : ... .. . ... ...
ROW D5 : ... .. . ... ... ... : ... .. . ... ... ... : --- .. . ... : ... .. 0 ... : ... .. . ... ... : ... .. . ... ... : ... .. . ... ... : --- .. . P84 ...
ROW D6 : G#4 00 4 ... ... ... : G#2 00 F ... ... ... : F#3 00 . ... : D-# 00 F ... : ... .. . ... ... : D#3 01 A P80 ... : G#2 01 A ... ... : F#1 01 F P80 ...
ROW D7 : ... .. 3 ... ... ... : ... .. E ... ... ... : ... .. . ... : ... .. C ... : ... .. . ... ... : ... .. 9 ... ... : ... .. 9 ... ... : ... .. D ... ...
ROW D8 : ... .. . ... ... ... : ... .. D ... ... ... : ... .. . ... : ... .. 6 ... : ... .. . ... ... : ... .. 8 ... ... : ... .. 8 ... ... : ... .. 8 ... ...
ROW D9 : ... .. 2 ... ... ... : ... .. A ... ... ... : ... .. . ... : ... .. 3 ... : ... .. . ... ... : ... .. 7 ... ... : ... .. 7 ... ... : ... .. . ... ...
ROW DA : ... .. . ... ... ... : ... .. . ... ... ... : ... .. . ... : ... .. 2 ... : ... .. . ... ... : ... .. . ... ... : ... .. . ... ... : ... .. . ... ...
ROW DB : ... .. . ... ... ... : ... .. . ... ... ... : --- .. . ... : ... .. 0 ... : ... .. . ... ... : ... .. 6 ... ... : ... .. 6 ... ... : --- .. . P81 ...
ROW DC : G#5 00 3 ... ... ... : F#2 00 F ... ... ... : G#3 00 . ... : 6-# 00 F ... : ... .. . ... ... : ... .. . ... ... : ... .. . ... ... : G#1 01 F P80 ...
ROW DD : ... .. 2 ... ... ... : ... .. E ... ... ... : ... .. . ... : ... .. C ... : ... .. . ... ... : ... .. 5 ... ... : ... .. 5 ... ... : ... .. D ... ...
ROW DE : ... .. . ... ... ... : ... .. D ... ... ... : ... .. . ... : ... .. 6 ... : ... .. . ... ... : ... .. . ... ... : ... .. . ... ... : ... .. 8 ... ...
ROW DF : ... .. 1 ... ... ... : ... .. A ... ... ... : ... .. . ... : ... .. 3 ... : ... .. . ... ... : ... .. . ... ... : ... .. . ... ... : ... .. . ... ...
ROW E0 : ... .. . ... ... ... : ... .. . ... ... ... : ... .. . ... : ... .. 2 ... : ... .. . ... ... : ... .. . ... ... : ... .. . ... ... : ... .. . ... ...
ROW E1 : ... .. . ... ... ... : ... .. . ... ... ... : --- .. . ... : ... .. 0 ... : ... .. . ... ... : ... .. . ... ... : ... .. . ... ... : --- .. . P7E ...
ROW E2 : G#4 00 2 ... ... ... : C#2 00 F ... ... ... : F#2 00 . ... : D-# 00 F ... : ... .. . ... ... : ... .. . ... ... : ... .. . ... ... : F#0 01 F P80 ...
ROW E3 : ... .. 1 ... ... ... : ... .. E ... ... ... : ... .. . ... : ... .. C ... : ... .. . ... ... : ... .. . ... ... : ... .. . ... ... : ... .. D ... ...
ROW E4 : ... .. . ... ... ... : ... .. D ... ... ... : ... .. . ... : ... .. 6 ... : ... .. . ... ... : ... .. . ... ... : ... .. . ... ... : ... .. 8 ... ...
ROW E5 : ... .. . ... ... ... : ... .. A ... ... ... : ... .. . ... : ... .. 3 ... : ... .. . ... ... : ... .. . ... ... : ... .. . ... ... : ... .. . ... ...
ROW E6 : ... .. . ... ... ... : ... .. 2 ... ... ... : ... .. . ... : ... .. 2 ... : ... .. . ... ... : ... .. . ... ... : ... .. . ... ... : ... .. . ... ...
ROW E7 : ... .. . ... ... ... : ... .. . ... ... ... : --- .. . ... : ... .. 0 ... : ... .. . ... ... : ... .. . ... ... : ... .. . ... ... : --- .. . P81 ...
ROW E8 : G#5 00 1 ... ... ... : D#2 00 F ... ... ... : G-4 00 . ... : 1-# 00 F ... : ... .. . ... ... : ... .. . ... ... : ... .. . ... ... : G#0 01 F P80 ...
ROW E9 : ... .. . ... ... ... : ... .. E ... ... ... : A-3 00 . ... : ... .. C ... : ... .. . ... ... : ... .. . ... ... : ... .. . ... ... : ... .. D ... ...
ROW EA : ... .. . ... ... ... : ... .. D ... ... ... : D-3 00 . ... : ... .. 6 ... : ... .. . ... ... : ... .. . ... ... : ... .. . ... ... : ... .. 8 ... ...
ROW EB : ... .. . ... ... ... : ... .. A ... ... ... : C#3 00 . ... : ... .. 3 ... : ... .. . ... ... : ... .. . ... ... : ... .. . ... ... : ... .. . ... ...
ROW EC : ... .. . ... ... ... : ... .. 2 ... ... ... : G#2 00 . ... : ... .. 2 ... : ... .. . ... ... : ... .. . ... ... : ... .. . ... ... : ... .. . ... ...
ROW ED : ... .. . ... ... ... : ... .. . ... ... ... : --- .. . ... : ... .. 0 ... : ... .. . ... ... : ... .. . ... ... : ... .. . ... ... : --- .. . P84 ...
ROW EE : G#2 00 F ... ... ... : ... .. F ... ... ... : G#2 00 . ... : ... .. F ... : ... .. . ... ... : ... .. . ... ... : ... .. . ... ... : G#0 01 F P80 ...
ROW EF : ... .. E ... ... ... : ... .. E ... ... ... : ... .. . ... : ... .. C ... : ... .. . ... ... : ... .. . ... ... : ... .. . ... ... : ... .. D ... ...
ROW F0 : ... .. D ... ... ... : ... .. D ... ... ... : ... .. . ... : ... .. 6 ... : ... .. . ... ... : ... .. . ... ... : ... .. . ... ... : ... .. 8 ... ...
ROW F1 : ... .. A ... ... ... : ... .. A ... ... ... : ... .. . ... : ... .. 3 ... : ... .. . ... ... : --- .. . P83 ... : --- .. . ... ... : ... .. . ... ...
ROW F2 : ... .. 2 ... ... ... : ... .. 2 ... ... ... : ... .. . ... : ... .. 2 ... : ... .. . ... ... : ... .. . ... ... : ... .. . ... ... : ... .. . ... ...
ROW F3 : ... .. . ... ... ... : ... .. . ... ... ... : --- .. . ... : ... .. 0 ... : ... .. . ... ... : ... .. . ... ... : ... .. . ... ... : --- .. . P84 ...
ROW F4 : ... .. F ... ... ... : ... .. F ... ... ... : G#2 00 . ... : 6-# 00 F ... : ... .. . ... ... : ... .. . ... ... : ... .. . ... ... : G#0 01 F P80 ...
ROW F5 : ... .. E ... ... ... : ... .. E ... ... ... : ... .. . ... : ... .. C ... : ... .. . ... ... : ... .. . ... ... : ... .. . ... ... : ... .. D ... ...
ROW F6 : ... .. D ... ... ... : ... .. D ... ... ... : ... .. . ... : ... .. 6 ... : ... .. . ... ... : ... .. . ... ... : ... .. . ... ... : ... .. 8 ... ...
ROW F7 : ... .. A ... ... ... : ... .. A ... ... ... : ... .. . ... : ... .. 3 ... : ... .. . ... ... : ... .. . ... ... : ... .. . ... ... : ... .. . ... ...
ROW F8 : ... .. 2 ... ... ... : ... .. 2 ... ... ... : ... .. . ... : ... .. 2 ... : ... .. . ... ... : ... .. . ... ... : ... .. . ... ... : ... .. . ... ...
ROW F9 : ... .. . ... ... ... : ... .. . ... ... ... : --- .. . ... : ... .. 0 ... : ... .. . ... ... : ... .. . ... ... : ... .. . ... ... : --- .. . P84 ...
ROW FA : E-3 00 F ... ... ... : B-2 00 F ... ... ... : E-3 00 . ... : D-# 00 F ... : ... .. . ... ... : D#3 01 A P80 ... : G#2 01 A ... ... : E-1 01 F P80 ...
ROW FB : ... .. E ... ... ... : ... .. E ... ... ... : ... .. . ... : ... .. C ... : ... .. . ... ... : ... .. 9 ... ... : ... .. 9 ... ... : ... .. D ... ...
ROW FC : ... .. D ... ... ... : ... .. D ... ... ... : ... .. . ... : ... .. 6 ... : ... .. . ... ... : ... .. 8 ... ... : ... .. 8 ... ... : ... .. 8 ... ...
ROW FD : ... .. A ... ... ... : ... .. A ... ... ... : ... .. . ... : ... .. 3 ... : ... .. . ... ... : --- .. . P83 ... : --- .. . ... ... : ... .. . ... ...
ROW FE : ... .. . ... ... ... : ... .. . ... ... ... : ... .. . ... : ... .. 2 ... : ... .. . ... ... : ... .. . ... ... : ... .. . ... ... : ... .. . ... ...
ROW FF : ... .. . ... ... ... : ... .. . ... ... ... : --- .. . ... : ... .. 0 ... : ... .. . ... ... : ... .. . ... ... : ... .. . ... ... : --- .. . P82 ...

PATTERN 0F
ROW 00 : D#3 00 F ... ... ... : A#2 00 F ... ... ... : D#3 00 . ... : 1-# 00 F ... : ... .. . ... ... : D#3 01 A P80 ... : G#2 01 A ... ... : D#1 01 F P80 ...
ROW 01 : ... .. E ... ... ... : ... .. E ... ... ... : ... .. . ... : ... .. C ... : ... .. . ... ... : ... .. 9 ... ... : ... .. 9 ... ... : ... .. D ... ...
ROW 02 : ... .. D ... ... ... : ... .. D ... ... ... : ... .. . ... : ... .. 6 ... : ... .. . ... ... : ... .. 8 ... ... : ... .. 8 ... ... : ... .. 8 ... ...
ROW 03 : ... .. A ... ... ... : ... .. A ... ... ... : ... .. . ... : ... .. 3 ... : ... .. . ... ... : --- .. . P83 ... : --- .. . ... ... : ... .. . ... ...
ROW 04 : ... .. . ... ... ... : ... .. . ... ... ... : ... .. . ... : ... .. 2 ... : ... .. . ... ... : ... .. . ... ... : ... .. . ... ... : ... .. . ... ...
ROW 05 : ... .. . ... ... ... : ... .. . ... ... ... : --- .. . ... : ... .. 0 ... : ... .. . ... ... : ... .. . ... ... : ... .. . ... ... : --- .. . P81 ...
ROW 06 : B-2 00 F ... ... ... : F#2 00 F ... ... ... : F#2 00 . ... : D-# 00 F ... : ... .. . ... ... : D#3 01 A P80 ... : G#2 01 A ... ... : F#0 01 F P80 ...
ROW 07 : ... .. E ... ... ... : ... .. E ... ... ... : ... .. . ... : ... .. C ... : ... .. . ... ... : ... .. 9 ... ... : ... .. 9 ... ... : ... .. D ... ...
ROW 08 : ... .. D ... ... ... : ... .. D ... ... ... : ... .. . ... : ... .. 6 ... : ... .. . ... ... : ... .. 8 ... ... : ... .. 8 ... ... : ... .. 8 ... ...
ROW 09 : ... .. A ... ... ... : ... .. A ... ... ... : ... .. . ... : ... .. 3 ... : ... .. . ... ... : --- .. . P83 ... : --- .. . ... ... : ... .. . ... ...
ROW 0A : ... .. 2 ... ... ... : ... .. 2 ... ... ... : ... .. . ... : ... .. 2 ... : ... .. . ... ... : ... .. . ... ... : ... .. . ... ... : ... .. . ... ...
ROW 0B : ... .. . ... ... ... : ... .. . ... ... ... : --- .. . ... : ... .. 0 ... : ... .. . ... ... : ... .. . ... ... : ... .. . ... ... : --- .. . P81 ...
ROW 0C : C#3 00 F ... ... ... : G#2 00 F ... ... ... : C-5 00 . ... : 6-# 00 F ... : ... .. . ... ... : G#3 01 A P80 ... : D#3 01 A ... ... : C#1 01 F P80 ...
ROW 0D : ... .. E ... ... ... : ... .. E ... ... ... : D-4 00 . ... : ... .. C ... : ... .. . ... ... : ... .. 9 ... ... : ... .. 9 ... ... : ... .. D ... ...
ROW 0E : ... .. D ... ... ... : ... .. D ... ... ... : G-3 00 . ... : ... .. 6 ... : ... .. . ... ... : ... .. 8 ... ... : ... .. 8 ... ... : ... .. 8 ... ...
ROW 0F : ... .. A ... ... ... : ... .. A ... ... ... : F#3 00 . ... : ... .. 3 ... : ... .. . ... ... : ... .. 7 ... ... : ... .. 7 ... ... : ... .. . ... ...
ROW 10 : ... .. . ... ... ... : ... .. . ... ... ... : C#3 00 . ... : ... .. 2 ... : ... .. . ... ... : ... .. . ... ... : ... .. . ... ... : ... .. . ... ...
ROW 11 : ... .. . ... ... ... : ... .. . ... ... ... : --- .. . ... : ... .. 0 ... : ... .. . ... ... : ... .. 6 ... ... : ... .. 6 ... ... : --- .. . P81 ...
ROW 12 : F#2 00 F ... ... ... : C#2 00 F ... ... ... : B-2 00 . ... : D-# 00 F ... : ... .. . ... ... : D#3 01 A ... ... : G#2 01 A ... ... : B-0 01 F P80 ...
ROW 13 : ... .. E ... ... ... : ... .. E ... ... ... : ... .. . ... : ... .. C ... : ... .. . ... ... : ... .. 9 ... ... : ... .. 9 ... ... : ... .. D ... ...
ROW 14 : ... .. D ... ... ... : ... .. D ... ... ... : ... .. . ... : ... .. 6 ... : ... .. . ... ... : ... .. 8 ... ... : ... .. 8 ... ... : ... .. 8 ... ...
ROW 15 : ... .. A ... ... ... : ... .. A ... ... ... : ... .. . ... : ... .. 3 ... : ... .. . ... ... : --- .. . P83 ... : --- .. . ... ... : ... .. . ... ...
ROW 16 : ... .. . ... ... ... : ... .. . ... ... ... : ... .. . ... : ... .. 2 ... : ... .. . ... ... : ... .. . ... ... : ... .. . ... ... : ... .. . ... ...
ROW 17 : ... .. . ... ... ... : ... .. . ... ... ... : --- .. . ... : ... .. 0 ... : ... .. . ... ... : ... .. . ... ... : ... .. . ... ... : --- .. . ... ...
ROW 18 : G#2 00 F ... ... ... : D#2 00 F ... ... ... : C#3 00 . ... : 1-# 00 F ... : ... .. . ... ... : D#3 01 A P80 ... : G#2 01 A ... ... : C#1 01 F ... ...
ROW 19 : ... .. E ... ... ... : ... .. E ... ... ... : ... .. . ... : ... .. C ... : ... .. . ... ... : ... .. 9 ... ... : ... .. 9 ... ... : ... .. D ... ...
ROW 1A : ... .. D ... ... ... : ... .. D ... ... ... : ... .. . ... : ... .. 6 ... : ... .. . ... ... : ... .. 8 ... ... : ... .. 8 ... ... : ... .. 8 ... ...
ROW 1B : ... .. A ... ... ... : ... .. A ... ... ... : ... .. . ... : ... .. 3 ... : ... .. . ... ... : --- .. . P83 ... : --- .. . ... ... : ... .. . ... ...
ROW 1C : ... .. 2 ... ... ... : ... .. 2 ... ... ... : ... .. . ... : ... .. 2 ... : ... .. . ... ... : ... .. . ... ... : ... .. . ... ... : ... .. . ... ...
ROW 1D : ... .. . ... ... ... : ... .. . ... ... ... : --- .. . ... : ... .. 0 ... : ... .. . ... ... : ... .. . ... ... : ... .. . ... ... : --- .. . P81 ...
ROW 1E : C#2 00 F ... ... ... : G#1 00 F ... ... ... : F#3 00 . ... : ... .. F ... : ... .. . ... ... : D#3 01 A P80 ... : G#2 01 A ... ... : F#1 01 F P80 ...
ROW 1F : ... .. E ... ... ... : ... .. E ... ... ... : ... .. . ... : ... .. C ... : ... .. . ... ... : ... .. 9 ... ... : ... .. 9 ... ... : ... .. D ... ...
ROW 20 : ... .. D ... ... ... : ... .. D ... ... ... : ... .. . ... : ... .. 6 ... : ... .. . ... ... : ... .. 8 ... ... : ... .. 8 ... ... : ... .. 8 ... ...
ROW 21 : ... .. A ... ... ... : ... .. A ... ... ... : ... .. . ... : ... .. 3 ... : ... .. . ... ... : ... .. 7 ... ... : ... .. 7 ... ... : ... .. . ... ...
ROW 22 : ... .. . ... ... ... : ... .. . ... ... ... : ... .. . ... : ... .. 2 ... : ... .. . ... ... : ... .. . ... ... : ... .. . ... ... : ... .. . ... ...
ROW 23 : ... .. . ... ... ... : ... .. . ... ... ... : --- .. . ... : ... .. 0 ... : ... .. . ... ... : ... .. 6 ... ... : ... .. 6 ... ... : --- .. . P81 ...
ROW 24 : D#2 00 F ... ... ... : A#1 00 F ... ... ... : G#3 00 . ... : 6-# 00 F ... : ... .. . ... ... : ... .. . ... ... : ... .. . ... ... : G#1 01 F P80 ...
ROW 25 : ... .. E ... ... ... : ... .. E ... ... ... : ... .. . ... : ... .. C ... : ... .. . ... ... : ... .. 5 ... ... : ... .. 5 ... ... : ... .. D ... ...
ROW 26 : ... .. D ... ... ... : ... .. D ... ... ... : ... .. . ... : ... .. 6 ... : ... .. . ... ... : ... .. . ... ... : ... .. . ... ... : ... .. 8 ... ...
ROW 27 : ... .. A ... ... ... : ... .. A ... ... ... : ... .. . ... : ... .. 3 ... : ... .. . ... ... : ... .. . ... ... : ... .. . ... ... : ... .. . ... ...
ROW 28 : ... .. . ... ... ... : ... .. . ... ... ... : ... .. . ... : ... .. 2 ... : ... .. . ... ... : ... .. . ... ... : ... .. . ... ... : ... .. . ... ...
ROW 29 : ... .. . ... ... ... : ... .. . ... ... ... : --- .. . ... : ... .. 0 ... : ... .. . ... ... : ... .. . ... ... : ... .. . ... ... : --- .. . P7E ...
ROW 2A : B-1 00 F ... ... ... : F#1 00 F ... ... ... : B-3 00 . ... : ... .. F ... : ... .. . ... ... : ... .. . ... ... : ... .. . ... ... : B-1 01 F P80 ...
ROW 2B : ... .. E ... ... ... : ... .. E ... ... ... : ... .. . ... : ... .. C ... : ... .. . ... ... : ... .. . ... ... : ... .. . ... ... : ... .. D ... ...
ROW 2C : ... .. D ... ... ... : ... .. D ... ... ... : ... .. . ... : ... .. 6 ... : ... .. . ... ... : ... .. . ... ... : ... .. . ... ... : ... .. 8 ... ...
ROW 2D : ... .. A ... ... ... : ... .. A ... ... ... : ... .. . ... : ... .. 3 ... : ... .. . ... ... : --- .. . P83 ... : --- .. . ... ... : ... .. . ... ...
ROW 2E : ... .. 2 ... ... ... : ... .. 2 ... ... ... : ... .. . ... : ... .. 2 ... : ... .. . ... ... : ... .. . ... ... : ... .. . ... ... : ... .. . ... ...
ROW 2F : ... .. . ... ... ... : ... .. . ... ... ... : --- .. . ... : ... .. 0 ... : ... .. . ... ... : ... .. . ... ... : ... .. . ... ... : --- .. . P86 ...
ROW 30 : G#1 00 F ... ... ... : D#1 00 F ... ... ... : G-4 00 . ... : 1-# 00 F ... : ... .. . ... ... : ... .. . ... ... : ... .. . ... ... : G#0 01 F P80 ...
ROW 31 : ... .. E ... ... ... : ... .. E ... ... ... : A-3 00 . ... : ... .. C ... : ... .. . ... ... : ... .. . ... ... : ... .. . ... ... : ... .. D ... ...
ROW 32 : ... .. D ... ... ... : ... .. D ... ... ... : D-3 00 . ... : ... .. 6 ... : ... .. . ... ... : ... .. . ... ... : ... .. . ... ... : ... .. 8 ... ...
ROW 33 : ... .. A ... ... ... : ... .. A ... ... ... : C#3 00 . ... : ... .. 3 ... : ... .. . ... ... : ... .. . ... ... : ... .. . ... ... : ... .. . ... ...
ROW 34 : ... .. 2 ... ... ... : ... .. 2 ... ... ... : G#2 00 . ... : ... .. 2 ... : ... .. . ... ... : ... .. . ... ... : ... .. . ... ... : ... .. . ... ...
ROW 35 : ... .. . ... ... ... : ... .. . ... ... ... : --- .. . ... : ... .. 0 ... : ... .. . ... ... : ... .. . ... ... : ... .. . ... ... : --- .. . P84 ...
ROW 36 : ... .. F ... ... ... : ... .. F ... ... ... : G#2 00 . ... : ... .. F ... : ... .. . ... ... : ... .. . ... ... : ... .. . ... ... : G#0 01 F P80 ...
ROW 37 : ... .. E ... ... ... : ... .. E ... ... ... : ... .. . ... : ... .. C ... : ... .. . ... ... : ... .. . ... ... : ... .. . ... ... : ... .. D ... ...
ROW 38 : ... .. D ... ... ... : ... .. D ... ... ... : ... .. . ... : ... .. 6 ... : ... .. . ... ... : ... .. . ... ... : ... .. . ... ... : ... .. 8 ... ...
ROW 39 : ... .. A ... ... ... : ... .. A ... ... ... : ... .. . ... : ... .. 3 ... : ... .. . ... ... : ... .. . ... ... : ... .. . ... ... : ... .. . ... ...
ROW 3A : ... .. 2 ... ... ... : ... .. 2 ... ... ... : ... .. . ... : ... .. 2 ... : ... .. . ... ... : ... .. . ... ... : ... .. . ... ... : ... .. . ... ...
ROW 3B : ... .. . ... ... ... : ... .. . ... ... ... : --- .. . ... : ... .. 0 ... : ... .. . ... ... : ... .. . ... ... : ... .. . ... ... : --- .. . P84 ...
ROW 3C : ... .. F ... ... ... : ... .. F ... ... ... : G#2 00 . ... : 6-# 00 F ... : ... .. . ... ... : ... .. . ... ... : ... .. . ... ... : G#0 01 F P80 ...
ROW 3D : ... .. E ... ... ... : ... .. E ... ... ... : ... .. . ... : ... .. C ... : ... .. . ... ... : ... .. . ... ... : ... .. . ... ... : ... .. D ... ...
ROW 3E : ... .. D ... ... ... : ... .. D ... ... ... : ... .. . ... : ... .. 6 ... : ... .. . ... ... : ... .. . ... ... : ... .. . ... ... : ... .. 8 ... ...
ROW 3F : ... .. A ... ... ... : ... .. A ... ... ... : ... .. . ... : ... .. 3 ... : ... .. . ... ... : ... .. . ... ... : ... .. . ... ... : ... .. . ... ...
ROW 40 : ... .. 2 ... ... ... : ... .. 2 ... ... ... : ... .. . ... : ... .. 2 ... : ... .. . ... ... : ... .. . ... ... : ... .. . ... ... : ... .. . ... ...
ROW 41 : ... .. . ... ... ... : ... .. . ... ... ... : --- .. . ... : ... .. 0 ... : ... .. . ... ... : ... .. . ... ... : ... .. . ... ... : --- .. . P84 ...
ROW 42 : C#3 00 F ... ... ... : G#2 00 F ... ... ... : C#4 00 . ... : 1-# 00 F ... : ... .. . ... ... : G#4 01 A P80 ... : C#4 01 A ... ... : C#2 01 F P80 ...
ROW 43 : ... .. E ... ... ... : ... .. E ... ... ... : ... .. . ... : ... .. C ... : ... .. . ... ... : ... .. 9 ... ... : --- .. . ... ... : ... .. D ... ...
ROW 44 : ... .. D ... ... ... : ... .. D ... ... ... : ... .. . ... : ... .. 6 ... : ... .. . ... ... : --- .. . ... ... : ... .. . ... ... : ... .. 8 ... ...
ROW 45 : ... .. A ... ... ... : ... .. A ... ... ... : ... .. . ... : ... .. 3 ... : ... .. . ... ... : G#4 01 A ... ... : C#4 01 A ... ... : ... .. . ... ...
ROW 46 : ... .. . ... ... ... : ... .. . ... ... ... : ... .. . ... : ... .. 2 ... : ... .. . ... ... : ... .. 9 ... ... : --- .. . ... ... : ... .. . ... ...
ROW 47 : ... .. . ... ... ... : ... .. . ... ... ... : ... .. . ... : ... .. 0 ... : ... .. . ... ... : --- .. . ... ... : ... .. . ... ... : ... .. . ... ...
ROW 48 : ... .. . ... ... ... : ... .. . ... ... ... : D-4 00 . P7B : ... .. F ... : ... .. . ... ... : G#4 01 A ... ... : C#4 01 A ... ... : ... .. . P87 ...
ROW 49 : ... .. . ... ... ... : ... .. . ... ... ... : ... .. . P7D : ... .. C ... : ... .. . ... ... : ... .. 9 ... ... : --- .. . ... ... : ... .. . P89 ...
ROW 4A : ... .. . ... ... ... : ... .. . ... ... ... : C#4 00 . P86 : ... .. 6 ... : ... .. . ... ... : --- .. . ... ... : ... .. . ... ... : ... .. . P86 ...
ROW 4B : D-3 00 A P88 ... ... : A-2 00 A ... ... ... : ... .. . P80 : ... .. 3 ... : ... .. . ... ... : G#4 01 A ... ... : C#4 01 A ... ... : ... .. . P80 ...
ROW 4C : D#3 00 A P7F ... ... : ... .. . P8C ... ... : C-4 00 . P85 : ... .. 2 ... : ... .. . ... ... : ... .. 9 ... ... : --- .. . ... ... : ... .. . P79 ...
ROW 4D : D-3 00 A P84 ... ... : ... .. . P7C ... ... : ... .. . P83 : ... .. 0 ... : ... .. . ... ... : --- .. . ... ... : ... .. . ... ... : ... .. . P77 ...
ROW 4E : C#3 00 A P80 ... ... : G#2 00 A P80 ... ... : ... .. . P86 : ... .. F ... : ... .. . ... ... : G#4 01 A ... ... : C#4 01 A ... ... : ... .. . P7A ...
ROW 4F : C-3 00 A P79 ... ... : G-2 00 A P81 ... ... : C#4 00 . P80 : ... .. C ... : ... .. . ... ... : ... .. 9 ... ... : ... .. 9 ... ... : ... .. . P80 ...
ROW 50 : B-2 00 A P86 ... ... : ... .. . P75 ... ... : D-4 00 . P7B : ... .. 6 ... : ... .. . ... ... : ... .. 8 ... ... : ... .. 8 ... ... : ... .. . P87 ...
ROW 51 : C-3 00 A P7D ... ... : ... .. . P85 ... ... : ... .. . P7D : ... .. 3 ... : ... .. . ... ... : --- .. . ... ... : --- .. . ... ... : ... .. . P89 ...
ROW 52 : C#3 00 2 P80 ... ... : G#2 00 2 P80 ... ... : C#4 00 . P86 : ... .. 2 ... : ... .. . ... ... : ... .. . ... ... : ... .. . ... ... : ... .. . P86 ...
ROW 53 : D-3 00 2 P88 ... ... : A-2 00 2 ... ... ... : ... .. . P80 : ... .. 0 ... : ... .. . ... ... : ... .. . ... ... : ... .. . ... ... : ... .. . P80 ...
ROW 54 : G#1 00 F P80 ... ... : D#1 00 F ... ... ... : G-4 00 . ... : 6-# 00 F ... : ... .. . ... ... : G#4 01 A ... ... : G#3 01 A ... ... : G#0 01 F ... ...
ROW 55 : ... .. E ... ... ... : ... .. E ... ... ... : A-3 00 . ... : ... .. C ... : ... .. . ... ... : ... .. 9 ... ... : ... .. 9 ... ... : ... .. D ... ...
ROW 56 : ... .. D ... ... ... : ... .. D ... ... ... : D-3 00 . ... : ... .. 6 ... : ... .. . ... ... : ... .. 8 ... ... : ... .. 8 ... ... : ... .. 8 ... ...
ROW 57 : ... .. A ... ... ... : ... .. A ... ... ... : C#3 00 . ... : ... .. 3 ... : ... .. . ... ... : --- .. . ... ... : --- .. . P82 ... : ... .. . ... ...
ROW 58 : ... .. 2 ... ... ... : ... .. 2 ... ... ... : G#2 00 . ... : ... .. 2 ... : ... .. . ... ... : ... .. . ... ... : ... .. . ... ... : ... .. . ... ...
ROW 59 : ... .. . ... ... ... : ... .. . ... ... ... : --- .. . ... : ... .. 0 ... : ... .. . ... ... : ... .. . ... ... : ... .. . ... ... : --- .. . P84 ...
ROW 5A : ... .. F ... ... ... : ... .. F ... ... ... : G#2 00 . ... : 1-# 00 F ... : ... .. . ... ... : D#4 01 A ... ... : C#4 01 A P80 ... : G#0 01 F P80 ...
ROW 5B : ... .. E ... ... ... : ... .. E ... ... ... : ... .. . ... : ... .. C ... : ... .. . ... ... : ... .. 9 ... ... : ... .. 9 ... ... : ... .. D ... ...
ROW 5C : ... .. D ... ... ... : ... .. D ... ... ... : ... .. . ... : ... .. 6 ... : ... .. . ... ... : ... .. 8 ... ... : ... .. 8 ... ... : ... .. 8 ... ...
ROW 5D : ... .. A ... ... ... : ... .. A ... ... ... : ... .. . ... : ... .. 3 ... : ... .. . ... ... : --- .. . ... ... : --- .. . ... ... : ... .. . ... ...
ROW 5E : ... .. 2 ... ... ... : ... .. 2 ... ... ... : ... .. . ... : ... .. 2 ... : ... .. . ... ... : ... .. . ... ... : ... .. . ... ... : ... .. . ... ...
ROW 5F : ... .. . ... ... ... : ... .. . ... ... ... : --- .. . ... : ... .. 0 ... : ... .. . ... ... : ... .. . ... ... : ... .. . ... ... : --- .. . P84 ...
ROW 60 : ... .. F ... ... ... : ... .. F ... ... ... : G#2 00 . ... : ... .. F ... : ... .. . ... ... : D#4 01 A ... ... : F#4 01 A ... ... : G#0 01 F P80 ...
ROW 61 : ... .. E ... ... ... : ... .. E ... ... ... : ... .. . ... : ... .. C ... : ... .. . ... ... : ... .. 9 ... ... : ... .. 9 ... ... : ... .. D ... ...
ROW 62 : ... .. D ... ... ... : ... .. D ... ... ... : ... .. . ... : ... .. 6 ... : ... .. . ... ... : ... .. 8 ... ... : ... .. 8 ... ... : ... .. 8 ... ...
ROW 63 : ... .. A ... ... ... : ... .. A ... ... ... : ... .. . ... : ... .. 3 ... : ... .. . ... ... : --- .. . ... ... : --- .. . ... ... : ... .. . ... ...
ROW 64 : ... .. 2 ... ... ... : ... .. 2 ... ... ... : ... .. . ... : ... .. 2 ... : ... .. . ... ... : ... .. . ... ... : ... .. . ... ... : ... .. . ... ...
ROW 65 : ... .. . ... ... ... : ... .. . ... ... ... : --- .. . ... : ... .. 0 ... : ... .. . ... ... : ... .. . ... ... : ... .. . ... ... : --- .. . P84 ...
ROW 66 : C#3 00 F ... ... ... : G#2 00 F ... ... ... : C#4 00 . ... : ... .. F ... : ... .. . ... ... : D#4 01 A ... ... : G#3 01 A ... ... : C#2 01 F P80 ...
ROW 67 : ... .. E ... ... ... : ... .. E ... ... ... : ... .. . ... : ... .. C ... : ... .. . ... ... : ... .. 9 ... ... : ... .. 9 ... ... : ... .. D ... ...
ROW 68 : ... .. D ... ... ... : ... .. D ... ... ... : ... .. . ... : ... .. 6 ... : ... .. . ... ... : ... .. 8 ... ... : ... .. 8 ... ... : ... .. 8 ... ...
ROW 69 : ... .. A ... ... ... : ... .. A ... ... ... : ... .. . ... : ... .. 3 ... : ... .. . ... ... : ... .. 7 ... ... : ... .. 7 ... ... : ... .. . ... ...
ROW 6A : ... .. . ... ... ... : ... .. . ... ... ... : ... .. . ... : ... .. 2 ... : ... .. . ... ... : ... .. . ... ... : ... .. . ... ... : ... .. . ... ...
ROW 6B : ... .. . ... ... ... : ... .. . ... ... ... : ... .. . ... : ... .. 0 ... : ... .. . ... ... : ... .. 6 ... ... : ... .. 6 ... ... : ... .. . ... ...
ROW 6C : D-3 00 A P88 ... ... : A-2 00 A ... ... ... : D-4 00 . P7B : 6-# 00 F ... : ... .. . ... ... : ... .. . ... ... : ... .. . ... ... : ... .. . P87 ...
ROW 6D : D#3 00 A P7F ... ... : ... .. . P8C ... ... : ... .. . P7D : ... .. C ... : ... .. . ... ... : ... .. 5 ... ... : ... .. 5 ... ... : ... .. . P89 ...
ROW 6E : D-3 00 A P84 ... ... : ... .. . P7C ... ... : C#4 00 . P86 : ... .. 6 ... : ... .. . ... ... : ... .. . ... ... : ... .. . ... ... : ... .. . P86 ...
ROW 6F : C#3 00 A P80 ... ... : G#2 00 A P80 ... ... : ... .. . P80 : ... .. 3 ... : ... .. . ... ... : E-4 01 5 P7D ... : ... .. . P87 ... : ... .. . P80 ...
ROW 70 : C-3 00 A P79 ... ... : G-2 00 A P81 ... ... : C-4 00 . P85 : ... .. 2 ... : ... .. . ... ... : ... .. . P7F ... : A-3 01 5 P7A ... : ... .. . P79 ...
ROW 71 : B-2 00 A P86 ... ... : ... .. . P75 ... ... : ... .. . P83 : ... .. 0 ... : ... .. . ... ... : ... .. . P7C ... : G#3 01 5 P86 ... : ... .. . P77 ...
ROW 72 : C-3 00 A P7D ... ... : ... .. . P85 ... ... : ... .. . P86 : 1-# 00 F ... : ... .. . ... ... : D#4 01 5 P80 ... : ... .. . P80 ... : ... .. . P7A ...
ROW 73 : C#3 00 A P80 ... ... : G#2 00 A P80 ... ... : C#4 00 . P80 : ... .. C ... : ... .. . ... ... : D-4 01 5 P83 ... : ... .. . P79 ... : ... .. . P80 ...
ROW 74 : D-3 00 A P88 ... ... : A-2 00 A ... ... ... : D-4 00 . P7B : ... .. 6 ... : ... .. . ... ... : ... .. . P81 ... : G-3 01 5 P87 ... : ... .. . P87 ...
ROW 75 : D#3 00 A P7F ... ... : ... .. . P8C ... ... : ... .. . P7D : ... .. 3 ... : ... .. . ... ... : ... .. . P84 ... : G#3 01 5 P7A ... : ... .. . P89 ...
ROW 76 : D-3 00 2 P84 ... ... : ... .. 2 P7C ... ... : C#4 00 . P86 : ... .. 2 ... : ... .. . ... ... : D#4 01 5 P80 ... : ... .. . P80 ... : ... .. . P86 ...
ROW 77 : C#3 00 2 P80 ... ... : G#2 00 2 P80 ... ... : ... .. . P80 : ... .. 0 ... : ... .. . ... ... : E-4 01 5 P7D ... : ... .. . P87 ... : ... .. . P80 ...
ROW 78 : B-2 00 F ... ... ... : F#2 00 F ... ... ... : G-4 00 . ... : 6-# 00 F ... : ... .. . ... ... : ... .. . P7F ... : A-3 01 5 P7A ... : G#0 01 F ... ...
ROW 79 : ... .. E ... ... ... : ... .. E ... ... ... : A-3 00 . ... : ... .. C ... : ... .. . ... ... : ... .. . P7C ... : G#3 01 5 P86 ... : ... .. D ... ...
ROW 7A : ... .. D ... ... ... : ... .. D ... ... ... : D-3 00 . ... : ... .. 6 ... : ... .. . ... ... : D#4 01 5 P80 ... : ... .. . P80 ... : ... .. 8 ... ...
ROW 7B : ... .. A ... ... ... : ... .. A ... ... ... : C#3 00 . ... : ... .. 3 ... : ... .. . ... ... : D-4 01 5 P83 ... : ... .. . P79 ... : ... .. . ... ...
ROW 7C : ... .. 2 ... ... ... : ... .. 2 ... ... ... : G#2 00 . ... : ... .. 2 ... : ... .. . ... ... : ... .. . P81 ... : G-3 01 5 P87 ... : ... .. . ... ...
ROW 7D : ... .. . ... ... ... : ... .. . ... ... ... : --- .. . ... : ... .. 0 ... : ... .. . ... ... : ... .. . P84 ... : G#3 01 5 P7A ... : --- .. . P84 ...
ROW 7E : F#2 00 F ... ... ... : C#2 00 F ... ... ... : G#2 00 . ... : 1-# 00 F ... : ... .. . ... ... : D#4 01 5 P80 ... : ... .. . P80 ... : G#0 01 F P80 ...
ROW 7F : ... .. E ... ... ... : ... .. E ... ... ... : ... .. . ... : ... .. C ... : ... .. . ... ... : E-4 01 5 P7D ... : ... .. . P87 ... : ... .. D ... ...
ROW 80 : ... .. D ... ... ... : ... .. D ... ... ... : ... .. . ... : ... .. 6 ... : ... .. . ... ... : ... .. . P7F ... : A-3 01 5 P7A ... : ... .. 8 ... ...
ROW 81 : ... .. A ... ... ... : ... .. A ... ... ... : ... .. . ... : ... .. 3 ... : ... .. . ... ... : --- .. . ... ... : --- .. . P8B ... : ... .. . ... ...
ROW 82 : ... .. 2 ... ... ... : ... .. 2 ... ... ... : ... .. . ... : ... .. 2 ... : ... .. . ... ... : ... .. . ... ... : ... .. . ... ... : ... .. . ... ...
ROW 83 : ... .. . ... ... ... : ... .. . ... ... ... : --- .. . ... : ... .. 0 ... : ... .. . ... ... : ... .. . ... ... : ... .. . ... ... : --- .. . P84 ...
ROW 84 : ... .. F ... ... ... : ... .. F ... ... ... : G#2 00 . ... : ... .. F ... : ... .. . ... ... : ... .. . ... ... : ... .. . ... ... : G#0 01 F P80 ...
ROW 85 : ... .. E ... ... ... : ... .. E ... ... ... : ... .. . ... : ... .. C ... : ... .. . ... ... : ... .. . ... ... : ... .. . ... ... : ... .. D ... ...
ROW 86 : ... .. D ... ... ... : ... .. D ... ... ... : ... .. . ... : ... .. 6 ... : ... .. . ... ... : ... .. . ... ... : ... .. . ... ... : ... .. 8 ... ...
ROW 87 : ... .. A ... ... ... : ... .. A ... ... ... : ... .. . ... : ... .. 3 ... : ... .. . ... ... : ... .. . ... ... : ... .. . ... ... : ... .. . ... ...
ROW 88 : ... .. 2 ... ... ... : ... .. 2 ... ... ... : ... .. . ... : ... .. 2 ... : ... .. . ... ... : ... .. . ... ... : ... .. . ... ... : ... .. . ... ...
ROW 89 : ... .. . ... ... ... : ... .. . ... ... ... : --- .. . ... : ... .. 0 ... : ... .. . ... ... : ... .. . ... ... : ... .. . ... ... : --- .. . P84 ...
ROW 8A : B-2 00 F ... ... ... : F#2 00 F ... ... ... : F#3 00 . ... : A-# 00 F ... : ... .. . ... ... : G#3 01 A P80 ... : D#3 01 A P80 ... : F#1 01 F P80 ...
ROW 8B : ... .. E ... ... ... : ... .. E ... ... ... : ... .. . ... : ... .. C ... : ... .. . ... ... : ... .. 9 ... ... : ... .. 9 ... ... : ... .. D ... ...
ROW 8C : ... .. D ... ... ... : ... .. D ... ... ... : ... .. . ... : ... .. 6 ... : ... .. . ... ... : ... .. 8 ... ... : ... .. 8 ... ... : ... .. 8 ... ...
ROW 8D : ... .. A ... ... ... : ... .. A ... ... ... : ... .. . ... : ... .. 3 ... : ... .. . ... ... : --- .. . P82 ... : --- .. . P83 ... : ... .. . ... ...
ROW 8E : ... .. . ... ... ... : ... .. . ... ... ... : ... .. . ... : ... .. 2 ... : ... .. . ... ... : ... .. . ... ... : ... .. . ... ... : ... .. . ... ...
ROW 8F : ... .. . ... ... ... : ... .. . ... ... ... : --- .. . ... : ... .. 0 ... : ... .. . ... ... : ... .. . ... ... : ... .. . ... ... : --- .. . P81 ...
ROW 90 : C#3 00 F ... ... ... : G#2 00 F ... ... ... : G#3 00 . ... : 1-# 00 F ... : ... .. . ... ... : C#4 01 A P80 ... : G#3 01 A P80 ... : G#1 01 F P80 ...
ROW 91 : ... .. E ... ... ... : ... .. E ... ... ... : ... .. . ... : ... .. C ... : ... .. . ... ... : ... .. 9 ... ... : ... .. 9 ... ... : ... .. D ... ...
ROW 92 : ... .. D ... ... ... : ... .. D ... ... ... : ... .. . ... : ... .. 6 ... : ... .. . ... ... : ... .. 8 ... ... : ... .. 8 ... ... : ... .. 8 ... ...
ROW 93 : ... .. A ... ... ... : ... .. A ... ... ... : ... .. . ... : ... .. 3 ... : ... .. . ... ... : --- .. . ... ... : --- .. . P82 ... : ... .. . ... ...
ROW 94 : ... .. 2 ... ... ... : ... .. 2 ... ... ... : ... .. . ... : ... .. 2 ... : ... .. . ... ... : ... .. . ... ... : ... .. . ... ... : ... .. . ... ...
ROW 95 : ... .. . ... ... ... : ... .. . ... ... ... : --- .. . ... : ... .. 0 ... : ... .. . ... ... : ... .. . ... ... : ... .. . ... ... : --- .. . P7E ...
ROW 96 : G#2 00 F ... ... ... : D#2 00 F ... ... ... : B-3 00 . ... : ... .. F ... : ... .. . ... ... : F#4 01 A ... ... : C#4 01 A P80 ... : B-1 01 F P80 ...
ROW 97 : ... .. E ... ... ... : ... .. E ... ... ... : ... .. . ... : ... .. C ... : ... .. . ... ... : ... .. 9 ... ... : ... .. 9 ... ... : ... .. D ... ...
ROW 98 : ... .. D ... ... ... : ... .. D ... ... ... : ... .. . ... : ... .. 6 ... : ... .. . ... ... : ... .. 8 ... ... : ... .. 8 ... ... : ... .. 8 ... ...
ROW 99 : ... .. A ... ... ... : ... .. A ... ... ... : ... .. . ... : ... .. 3 ... : ... .. . ... ... : --- .. . ... ... : --- .. . ... ... : ... .. . ... ...
ROW 9A : ... .. 2 ... ... ... : ... .. 2 ... ... ... : ... .. . ... : ... .. 2 ... : ... .. . ... ... : ... .. . ... ... : ... .. . ... ... : ... .. . ... ...
ROW 9B : ... .. . ... ... ... : ... .. . ... ... ... : --- .. . ... : ... .. 0 ... : ... .. . ... ... : ... .. . ... ... : ... .. . ... ... : --- .. . P86 ...
ROW 9C : B-2 00 F ... ... ... : F#2 00 F ... ... ... : G-5 00 . ... : 6-# 00 F ... : ... .. . ... ... : F#4 01 A ... ... : C#4 01 A ... ... : G#1 01 F P80 ...
ROW 9D : ... .. E ... ... ... : ... .. E ... ... ... : A-4 00 . ... : ... .. C ... : ... .. . ... ... : ... .. 9 ... ... : ... .. 9 ... ... : ... .. D ... ...
ROW 9E : ... .. D ... ... ... : ... .. D ... ... ... : D-4 00 . ... : ... .. 6 ... : ... .. . ... ... : ... .. 8 ... ... : ... .. 8 ... ... : ... .. 8 ... ...
ROW 9F : ... .. A ... ... ... : ... .. A ... ... ... : C#4 00 . ... : ... .. 3 ... : ... .. . ... ... : ... .. 7 ... ... : ... .. 7 ... ... : ... .. . ... ...
ROW A0 : ... .. . ... ... ... : ... .. . ... ... ... : G#3 00 . ... : ... .. 2 ... : ... .. . ... ... : ... .. . ... ... : ... .. . ... ... : ... .. . ... ...
ROW A1 : ... .. . ... ... ... : ... .. . ... ... ... : --- .. . ... : ... .. 0 ... : ... .. . ... ... : ... .. 6 ... ... : ... .. 6 ... ... : --- .. . P7E ...
ROW A2 : F#2 00 F ... ... ... : C#2 00 F ... ... ... : F#3 00 . ... : ... .. F ... : ... .. . ... ... : D#4 01 A ... ... : A#3 01 A ... ... : F#1 01 F P80 ...
ROW A3 : ... .. E ... ... ... : ... .. E ... ... ... : ... .. . ... : ... .. C ... : ... .. . ... ... : ... .. 9 ... ... : ... .. 9 ... ... : ... .. D ... ...
ROW A4 : ... .. D ... ... ... : ... .. D ... ... ... : ... .. . ... : ... .. 6 ... : ... .. . ... ... : ... .. 8 ... ... : ... .. 8 ... ... : ... .. 8 ... ...
ROW A5 : ... .. A ... ... ... : ... .. A ... ... ... : ... .. . ... : ... .. 3 ... : ... .. . ... ... : --- .. . ... ... : --- .. . ... ... : ... .. . ... ...
ROW A6 : ... .. 2 ... ... ... : ... .. 2 ... ... ... : ... .. . ... : ... .. 2 ... : ... .. . ... ... : ... .. . ... ... : ... .. . ... ... : ... .. . ... ...
ROW A7 : ... .. . ... ... ... : ... .. . ... ... ... : --- .. . ... : ... .. 0 ... : ... .. . ... ... : ... .. . ... ... : ... .. . ... ... : --- .. . P81 ...
ROW A8 : ... .. F ... ... ... : ... .. F ... ... ... : D#3 00 . ... : 5-# 00 F ... : ... .. . ... ... : G#4 01 A ... ... : D#4 01 A ... ... : D#1 01 F P80 ...
ROW A9 : ... .. E ... ... ... : ... .. E ... ... ... : ... .. . ... : ... .. C ... : ... .. . ... ... : ... .. 9 ... ... : ... .. 9 ... ... : ... .. D ... ...
ROW AA : ... .. D ... ... ... : ... .. D ... ... ... : ... .. . ... : ... .. 6 ... : ... .. . ... ... : ... .. 8 ... ... : ... .. 8 ... ... : ... .. 8 ... ...
ROW AB : ... .. A ... ... ... : ... .. A ... ... ... : ... .. . ... : ... .. 3 ... : ... .. . ... ... : --- .. . ... ... : --- .. . ... ... : ... .. . ... ...
ROW AC : ... .. 2 ... ... ... : ... .. 2 ... ... ... : ... .. . ... : ... .. 2 ... : ... .. . ... ... : ... .. . ... ... : ... .. . ... ... : ... .. . ... ...
ROW AD : ... .. . ... ... ... : ... .. . ... ... ... : --- .. . ... : ... .. 0 ... : ... .. . ... ... : ... .. . ... ... : ... .. . ... ... : --- .. . P81 ...
ROW AE : B-2 00 F ... ... ... : F#2 00 F ... ... ... : C#3 00 . ... : ... .. F ... : ... .. . ... ... : C#5 01 A ... ... : G#4 01 A ... ... : C#1 01 F P80 ...
ROW AF : ... .. E ... ... ... : ... .. E ... ... ... : ... .. . ... : ... .. C ... : ... .. . ... ... : ... .. 9 ... ... : ... .. 9 ... ... : ... .. D ... ...
ROW B0 : ... .. D ... ... ... : ... .. D ... ... ... : ... .. . ... : ... .. 6 ... : ... .. . ... ... : ... .. 8 ... ... : ... .. 8 ... ... : ... .. 8 ... ...
ROW B1 : ... .. A ... ... ... : ... .. A ... ... ... : ... .. . ... : ... .. 3 ... : ... .. . ... ... : --- .. . ... ... : --- .. . ... ... : ... .. . ... ...
ROW B2 : ... .. . ... ... ... : ... .. . ... ... ... : ... .. . ... : ... .. 2 ... : ... .. . ... ... : ... .. . ... ... : ... .. . ... ... : ... .. . ... ...
ROW B3 : ... .. . ... ... ... : ... .. . ... ... ... : --- .. . ... : ... .. 0 ... : ... .. . ... ... : ... .. . ... ... : ... .. . ... ... : --- .. . P81 ...
ROW B4 : C#3 00 F ... ... ... : G#2 00 F ... ... ... : B-2 00 . ... : 3-# 00 F ... : ... .. . ... ... : B-4 01 A ... ... : F#4 01 A ... ... : B-0 01 F P80 ...
ROW B5 : ... .. E ... ... ... : ... .. E ... ... ... : ... .. . ... : ... .. C ... : ... .. . ... ... : ... .. 9 ... ... : ... .. 9 ... ... : ... .. D ... ...
ROW B6 : ... .. D ... ... ... : ... .. D ... ... ... : ... .. . ... : ... .. 6 ... : ... .. . ... ... : ... .. 8 ... ... : ... .. 8 ... ... : ... .. 8 ... ...
ROW B7 : ... .. A ... ... ... : ... .. A ... ... ... : ... .. . ... : ... .. 3 ... : ... .. . ... ... : --- .. . ... ... : --- .. . ... ... : ... .. . ... ...
ROW B8 : ... .. 2 ... ... ... : ... .. 2 ... ... ... : ... .. . ... : ... .. 2 ... : ... .. . ... ... : ... .. . ... ... : ... .. . ... ... : ... .. . ... ...
ROW B9 : ... .. . ... ... ... : ... .. . ... ... ... : --- .. . ... : ... .. 0 ... : ... .. . ... ... : ... .. . ... ... : ... .. . ... ... : --- .. . ... ...
ROW BA : F#2 00 F ... ... ... : C#2 00 F ... ... ... : C#3 00 . ... : ... .. F ... : ... .. . ... ... : F#5 01 A ... ... : C#5 01 A ... ... : C#1 01 F ... ...
ROW BB : ... .. E ... ... ... : ... .. E ... ... ... : ... .. . ... : ... .. C ... : ... .. . ... ... : ... .. 9 ... ... : ... .. 9 ... ... : ... .. D ... ...
ROW BC : ... .. D ... ... ... : ... .. D ... ... ... : ... .. . ... : ... .. 6 ... : ... .. . ... ... : ... .. 8 ... ... : ... .. 8 ... ... : ... .. 8 ... ...
ROW BD : ... .. A ... ... ... : ... .. A ... ... ... : ... .. . ... : ... .. 3 ... : ... .. . ... ... : --- .. . ... ... : --- .. . ... ... : ... .. . ... ...
ROW BE : ... .. 2 ... ... ... : ... .. 2 ... ... ... : ... .. . ... : ... .. 2 ... : ... .. . ... ... : ... .. . ... ... : ... .. . ... ... : ... .. . ... ...
ROW BF : ... .. . ... ... ... : ... .. . ... ... ... : --- .. . ... : ... .. 0 ... : ... .. . ... ... : ... .. . ... ... : ... .. . ... ... : --- .. . P81 ...
ROW C0 : G#1 00 F ... ... ... : D#1 00 F ... ... ... : G-4 00 . ... : 1-# 00 F ... : ... .. . ... ... : G#5 01 A ... ... : D#5 01 A ... ... : G#0 01 F P80 ...
ROW C1 : ... .. E ... ... ... : ... .. E ... ... ... : A-3 00 . ... : ... .. C ... : ... .. . ... ... : ... .. 9 ... ... : ... .. 9 ... ... : ... .. D ... ...
ROW C2 : ... .. D ... ... ... : ... .. D ... ... ... : D-3 00 . ... : ... .. 6 ... : ... .. . ... ... : ... .. 8 ... ... : ... .. 8 ... ... : ... .. 8 ... ...
ROW C3 : ... .. A ... ... ... : ... .. A ... ... ... : C#3 00 . ... : ... .. 3 ... : ... .. . ... ... : ... .. 7 ... ... : ... .. 7 ... ... : ... .. . ... ...
ROW C4 : ... .. 2 ... ... ... : ... .. 2 ... ... ... : G#2 00 . ... : ... .. 2 ... : ... .. . ... ... : ... .. . ... ... : ... .. . ... ... : ... .. . ... ...
ROW C5 : ... .. . ... ... ... : ... .. . ... ... ... : --- .. . ... : ... .. 0 ... : ... .. . ... ... : ... .. 6 ... ... : ... .. 6 ... ... : --- .. . P84 ...
ROW C6 : ... .. F ... ... ... : ... .. F ... ... ... : G#2 00 . ... : D-# 00 F ... : ... .. . ... ... : C#5 01 6 P82 ... : A#4 01 6 P7E ... : G#0 01 F P80 ...
ROW C7 : ... .. E ... ... ... : ... .. E ... ... ... : ... .. . ... : ... .. C ... : ... .. . ... ... : G#4 01 5 P84 ... : F#4 01 5 P7D ... : ... .. D ... ...
ROW C8 : ... .. D ... ... ... : ... .. D ... ... ... : ... .. . ... : ... .. 6 ... : ... .. . ... ... : F-4 01 5 P7D ... : D-4 01 5 P84 ... : ... .. 8 ... ...
ROW C9 : ... .. A ... ... ... : ... .. A ... ... ... : ... .. . ... : ... .. 3 ... : ... .. . ... ... : D-4 01 5 P7B ... : C-4 01 5 P7C ... : ... .. . ... ...
ROW CA : ... .. 2 ... ... ... : ... .. 2 ... ... ... : ... .. . ... : ... .. 2 ... : ... .. . ... ... : B-3 01 5 P7F ... : A-3 01 5 P84 ... : ... .. . ... ...
ROW CB : ... .. . ... ... ... : ... .. . ... ... ... : --- .. . ... : ... .. 0 ... : ... .. . ... ... : A-3 01 5 P7B ... : G-3 01 5 P83 ... : --- .. . P84 ...
ROW CC : ... .. F ... ... ... : ... .. F ... ... ... : G#2 00 . ... : 6-# 00 F ... : ... .. . ... ... : --- .. . P8C ... : --- .. . P81 ... : G#0 01 F P80 ...
ROW CD : ... .. E ... ... ... : ... .. E ... ... ... : ... .. . ... : ... .. C ... : ... .. . ... ... : ... .. . ... ... : ... .. . ... ... : ... .. D ... ...
ROW CE : ... .. D ... ... ... : ... .. D ... ... ... : ... .. . ... : ... .. 6 ... : ... .. . ... ... : ... .. . ... ... : ... .. . ... ... : ... .. 8 ... ...
ROW CF : ... .. A ... ... ... : ... .. A ... ... ... : ... .. . ... : ... .. 3 ... : ... .. . ... ... : ... .. . ... ... : ... .. . ... ... : ... .. . ... ...
ROW D0 : ... .. 2 ... ... ... : ... .. 2 ... ... ... : ... .. . ... : ... .. 2 ... : ... .. . ... ... : ... .. . ... ... : ... .. . ... ... : ... .. . ... ...
ROW D1 : ... .. . ... ... ... : ... .. . ... ... ... : --- .. . ... : ... .. 0 ... : ... .. . ... ... : ... .. . ... ... : ... .. . ... ... : --- .. . P84 ...
ROW D2 : B-3 00 F ... ... ... : F#3 00 F ... ... ... : B-2 00 . ... : D-# 00 F ... : ... .. . ... ... : D#4 01 A P80 ... : G#3 01 A P80 ... : B-0 01 F P80 ...
ROW D3 : ... .. E ... ... ... : ... .. E ... ... ... : ... .. . ... : ... .. C ... : ... .. . ... ... : ... .. 9 ... ... : ... .. 9 ... ... : ... .. D ... ...
ROW D4 : ... .. D ... ... ... : ... .. D ... ... ... : ... .. . ... : ... .. 6 ... : ... .. . ... ... : ... .. 8 ... ... : ... .. 8 ... ... : ... .. 8 ... ...
ROW D5 : ... .. A ... ... ... : ... .. A ... ... ... : ... .. . ... : ... .. 3 ... : ... .. . ... ... : --- .. . ... ... : --- .. . P82 ... : ... .. . ... ...
ROW D6 : ... .. . ... ... ... : ... .. . ... ... ... : ... .. . ... : ... .. 2 ... : ... .. . ... ... : ... .. . ... ... : ... .. . ... ... : ... .. . ... ...
ROW D7 : ... .. . ... ... ... : ... .. . ... ... ... : --- .. . ... : ... .. 0 ... : ... .. . ... ... : ... .. . ... ... : ... .. . ... ... : --- .. . ... ...
ROW D8 : A#3 00 F ... ... ... : F-3 00 F ... ... ... : F#2 00 . ... : 1-# 00 F ... : ... .. . ... ... : D#4 01 A ... ... : G#3 01 A P80 ... : F#0 01 F ... ...
ROW D9 : ... .. E ... ... ... : ... .. E ... ... ... : ... .. . ... : ... .. C ... : ... .. . ... ... : ... .. 9 ... ... : ... .. 9 ... ... : ... .. D ... ...
ROW DA : ... .. D ... ... ... : ... .. D ... ... ... : ... .. . ... : ... .. 6 ... : ... .. . ... ... : ... .. 8 ... ... : ... .. 8 ... ... : ... .. 8 ... ...
ROW DB : ... .. A ... ... ... : ... .. A ... ... ... : ... .. . ... : ... .. 3 ... : ... .. . ... ... : --- .. . ... ... : --- .. . P82 ... : ... .. . ... ...
ROW DC : ... .. 2 ... ... ... : ... .. 2 ... ... ... : ... .. . ... : ... .. 2 ... : ... .. . ... ... : ... .. . ... ... : ... .. . ... ... : ... .. . ... ...
ROW DD : ... .. . ... ... ... : ... .. . ... ... ... : --- .. . ... : ... .. 0 ... : ... .. . ... ... : ... .. . ... ... : ... .. . ... ... : --- .. . P81 ...
ROW DE : F#2 00 F ... ... ... : C#2 00 F ... ... ... : G#2 00 . ... : ... .. F ... : ... .. . ... ... : D#4 01 A ... ... : G#3 01 A P80 ... : G#0 01 F P80 ...
ROW DF : ... .. E ... ... ... : ... .. E ... ... ... : ... .. . ... : ... .. C ... : ... .. . ... ... : ... .. 9 ... ... : ... .. 9 ... ... : ... .. D ... ...
ROW E0 : ... .. D ... ... ... : ... .. D ... ... ... : ... .. . ... : ... .. 6 ... : ... .. . ... ... : ... .. 8 ... ... : ... .. 8 ... ... : ... .. 8 ... ...
ROW E1 : ... .. A ... ... ... : ... .. A ... ... ... : ... .. . ... : ... .. 3 ... : ... .. . ... ... : --- .. . ... ... : --- .. . P82 ... : ... .. . ... ...
ROW E2 : ... .. 2 ... ... ... : ... .. 2 ... ... ... : ... .. . ... : ... .. 2 ... : ... .. . ... ... : ... .. . ... ... : ... .. . ... ... : ... .. . ... ...
ROW E3 : ... .. . ... ... ... : ... .. . ... ... ... : --- .. . ... : ... .. 0 ... : ... .. . ... ... : ... .. . ... ... : ... .. . ... ... : --- .. . P84 ...
ROW E4 : G#1 00 F ... ... ... : D#1 00 F ... ... ... : G-4 00 . ... : 6-# 00 F ... : ... .. . ... ... : C#4 01 A ... ... : F#3 01 A P80 ... : G#0 01 F P80 ...
ROW E5 : ... .. E ... ... ... : ... .. E ... ... ... : A-3 00 . ... : ... .. C ... : ... .. . ... ... : ... .. 9 ... ... : ... .. 9 ... ... : ... .. D ... ...
ROW E6 : ... .. D ... ... ... : ... .. D ... ... ... : D-3 00 . ... : ... .. 6 ... : ... .. . ... ... : ... .. 8 ... ... : ... .. 8 ... ... : ... .. 8 ... ...
ROW E7 : ... .. A ... ... ... : ... .. A ... ... ... : C#3 00 . ... : ... .. 3 ... : ... .. . ... ... : ... .. 7 ... ... : ... .. 7 ... ... : ... .. . ... ...
ROW E8 : ... .. 2 ... ... ... : ... .. 2 ... ... ... : G#2 00 . ... : ... .. 2 ... : ... .. . ... ... : ... .. . ... ... : ... .. . ... ... : ... .. . ... ...
ROW E9 : ... .. . ... ... ... : ... .. . ... ... ... : --- .. . ... : ... .. 0 ... : ... .. . ... ... : ... .. 6 ... ... : ... .. 6 ... ... : --- .. . P84 ...
ROW EA : ... .. F ... ... ... : ... .. F ... ... ... : G#2 00 . ... : D-# 00 F ... : ... .. . ... ... : D#4 01 A ... ... : G#3 01 A ... ... : G#0 01 F P80 ...
ROW EB : ... .. E ... ... ... : ... .. E ... ... ... : ... .. . ... : ... .. C ... : ... .. . ... ... : ... .. 9 ... ... : ... .. 9 ... ... : ... .. D ... ...
ROW EC : ... .. D ... ... ... : ... .. D ... ... ... : ... .. . ... : ... .. 6 ... : ... .. . ... ... : ... .. 8 ... ... : ... .. 8 ... ... : ... .. 8 ... ...
ROW ED : ... .. A ... ... ... : ... .. A ... ... ... : ... .. . ... : ... .. 3 ... : ... .. . ... ... : --- .. . ... ... : --- .. . P82 ... : ... .. . ... ...
ROW EE : ... .. 2 ... ... ... : ... .. 2 ... ... ... : ... .. . ... : ... .. 2 ... : ... .. . ... ... : ... .. . ... ... : ... .. . ... ... : ... .. . ... ...
ROW EF : ... .. . ... ... ... : ... .. . ... ... ... : --- .. . ... : ... .. 0 ... : ... .. . ... ... : ... .. . ... ... : ... .. . ... ... : --- .. . P84 ...
ROW F0 : ... .. F ... ... ... : ... .. F ... ... ... : G#2 00 . ... : 1-# 00 F ... : ... .. . ... ... : D#4 01 A ... ... : G#3 01 A P80 ... : G#0 01 F P80 ...
ROW F1 : ... .. E ... ... ... : ... .. E ... ... ... : ... .. . ... : ... .. C ... : ... .. . ... ... : ... .. 9 ... ... : ... .. 9 ... ... : ... .. D ... ...
ROW F2 : ... .. D ... ... ... : ... .. D ... ... ... : ... .. . ... : ... .. 6 ... : ... .. . ... ... : ... .. 8 ... ... : ... .. 8 ... ... : ... .. 8 ... ...
ROW F3 : ... .. A ... ... ... : ... .. A ... ... ... : ... .. . ... : ... .. 3 ... : ... .. . ... ... : --- .. . ... ... : --- .. . P82 ... : ... .. . ... ...
ROW F4 : ... .. 2 ... ... ... : ... .. 2 ... ... ... : ... .. . ... : ... .. 2 ... : ... .. . ... ... : ... .. . ... ... : ... .. . ... ... : ... .. . ... ...
ROW F5 : ... .. . ... ... ... : ... .. . ... ... ... : --- .. . ... : ... .. 0 ... : ... .. . ... ... : ... .. . ... ... : ... .. . ... ... : --- .. . P84 ...
ROW F6 : F#3 00 F ... ... ... : C#3 00 F ... ... ... : C#3 00 . ... : D-# 00 F ... : ... .. . ... ... : D#4 01 A ... ... : G#3 01 A P80 ... : C#1 01 F P80 ...
ROW F7 : ... .. E ... ... ... : ... .. E ... ... ... : ... .. . ... : ... .. C ... : ... .. . ... ... : ... .. 9 ... ... : ... .. 9 ... ... : ... .. D ... ...
ROW F8 : ... .. D ... ... ... : ... .. D ... ... ... : ... .. . ... : ... .. 6 ... : ... .. . ... ... : ... .. 8 ... ... : ... .. 8 ... ... : ... .. 8 ... ...
ROW F9 : ... .. A ... ... ... : ... .. A ... ... ... : ... .. . ... : ... .. 3 ... : ... .. . ... ... : ... .. 7 ... ... : ... .. 7 ... ... : ... .. . ... ...
ROW FA : ... .. . ... ... ... : ... .. . ... ... ... : ... .. . ... : ... .. 2 ... : ... .. . ... ... : ... .. . ... ... : ... .. . ... ... : ... .. . ... ...
ROW FB : ... .. . ... ... ... : ... .. . ... ... ... : --- .. . ... : ... .. 0 ... : ... .. . ... ... : ... .. 6 ... ... : ... .. 6 ... ... : --- .. . P81 ...
ROW FC : C#3 00 F ... ... ... : G#2 00 F ... ... ... : B-2 00 . ... : 6-# 00 F ... : ... .. . ... ... : ... .. . ... ... : ... .. . ... ... : B-0 01 F P80 ...
ROW FD : ... .. E ... ... ... : ... .. E ... ... ... : ... .. . ... : ... .. C ... : ... .. . ... ... : ... .. 5 ... ... : ... .. 5 ... ... : ... .. D ... ...
ROW FE : ... .. D ... ... ... : ... .. D ... ... ... : ... .. . ... : ... .. 6 ... : ... .. . ... ... : ... .. . ... ... : ... .. . ... ... : ... .. 8 ... ...
ROW FF : ... .. A ... ... ... : ... .. A ... ... ... : ... .. . ... : ... .. 3 ... : ... .. . ... ... : ... .. . ... ... : ... .. . ... ... : ... .. . ... ...

PATTERN 10
ROW 00 : ... .. 2 ... ... ... : ... .. 2 ... ... ... : ... .. . ... : ... .. 2 ... : ... .. . ... ... : ... .. . ... ... : ... .. . ... ... : ... .. . ... ...
ROW 01 : ... .. . ... ... ... : ... .. . ... ... ... : --- .. . ... : ... .. 0 ... : ... .. . ... ... : ... .. . ... ... : ... .. . ... ... : --- .. . ... ...
ROW 02 : F#1 00 F ... ... ... : C#1 00 F ... ... ... : F#2 00 . ... : D-# 00 F ... : ... .. . ... ... : ... .. . ... ... : ... .. . ... ... : F#0 01 F ... ...
ROW 03 : ... .. E ... ... ... : ... .. E ... ... ... : ... .. . ... : ... .. C ... : ... .. . ... ... : ... .. . ... ... : ... .. . ... ... : ... .. D ... ...
ROW 04 : ... .. D ... ... ... : ... .. D ... ... ... : ... .. . ... : ... .. 6 ... : ... .. . ... ... : ... .. . ... ... : ... .. . ... ... : ... .. 8 ... ...
ROW 05 : ... .. A ... ... ... : ... .. A ... ... ... : ... .. . ... : ... .. 3 ... : ... .. . ... ... : E-4 01 5 P7D ... : ... .. . P87 ... : ... .. . ... ...
ROW 06 : ... .. . ... ... ... : ... .. . ... ... ... : ... .. . ... : ... .. 2 ... : ... .. . ... ... : ... .. . P7F ... : A-3 01 5 P7A ... : ... .. . ... ...
ROW 07 : ... .. . ... ... ... : ... .. . ... ... ... : --- .. . ... : ... .. 0 ... : ... .. . ... ... : ... .. . P7C ... : G#3 01 5 P86 ... : --- .. . P81 ...
ROW 08 : G#1 00 F ... ... ... : D#1 00 F ... ... ... : G-4 00 . ... : 1-# 00 F ... : ... .. . ... ... : D#4 01 5 P80 ... : ... .. . P80 ... : G#0 01 F P80 ...
ROW 09 : ... .. E ... ... ... : ... .. E ... ... ... : A-3 00 . ... : ... .. C ... : ... .. . ... ... : D-4 01 5 P83 ... : ... .. . P79 ... : ... .. D ... ...
ROW 0A : ... .. D ... ... ... : ... .. D ... ... ... : D-3 00 . ... : ... .. 6 ... : ... .. . ... ... : ... .. . P81 ... : G-3 01 5 P87 ... : ... .. 8 ... ...
ROW 0B : ... .. A ... ... ... : ... .. A ... ... ... : C#3 00 . ... : ... .. 3 ... : ... .. . ... ... : ... .. . P84 ... : G#3 01 5 P7A ... : ... .. . ... ...
ROW 0C : ... .. 2 ... ... ... : ... .. 2 ... ... ... : G#2 00 . ... : ... .. 2 ... : ... .. . ... ... : D#4 01 5 P80 ... : ... .. . P80 ... : ... .. . ... ...
ROW 0D : ... .. . ... ... ... : ... .. . ... ... ... : --- .. . ... : ... .. 0 ... : ... .. . ... ... : E-4 01 5 P7D ... : ... .. . P87 ... : --- .. . P84 ...
ROW 0E : ... .. F ... ... ... : ... .. F ... ... ... : G#2 00 . ... : ... .. F ... : ... .. . ... ... : ... .. . P7F ... : A-3 01 5 P7A ... : G#0 01 F P80 ...
ROW 0F : ... .. E ... ... ... : ... .. E ... ... ... : ... .. . ... : ... .. C ... : ... .. . ... ... : ... .. . P7C ... : G#3 01 5 P86 ... : ... .. D ... ...
ROW 10 : ... .. D ... ... ... : ... .. D ... ... ... : ... .. . ... : ... .. 6 ... : ... .. . ... ... : D#4 01 5 P80 ... : ... .. . P80 ... : ... .. 8 ... ...
ROW 11 : ... .. A ... ... ... : ... .. A ... ... ... : ... .. . ... : ... .. 3 ... : ... .. . ... ... : --- .. . ... ... : --- .. . P82 ... : ... .. . ... ...
ROW 12 : ... .. 2 ... ... ... : ... .. 2 ... ... ... : ... .. . ... : ... .. 2 ... : ... .. . ... ... : ... .. . ... ... : ... .. . ... ... : ... .. . ... ...
ROW 13 : ... .. . ... ... ... : ... .. . ... ... ... : --- .. . ... : ... .. 0 ... : ... .. . ... ... : ... .. . ... ... : ... .. . ... ... : --- .. . P84 ...
ROW 14 : ... .. F ... ... ... : ... .. F ... ... ... : G#2 00 . ... : 6-# 00 F ... : ... .. . ... ... : ... .. . ... ... : ... .. . ... ... : G#0 01 F P80 ...
ROW 15 : ... .. E ... ... ... : ... .. E ... ... ... : ... .. . ... : ... .. C ... : ... .. . ... ... : ... .. . ... ... : ... .. . ... ... : ... .. D ... ...
ROW 16 : ... .. D ... ... ... : ... .. D ... ... ... : ... .. . ... : ... .. 6 ... : ... .. . ... ... : ... .. . ... ... : ... .. . ... ... : ... .. 8 ... ...
ROW 17 : ... .. A ... ... ... : ... .. A ... ... ... : ... .. . ... : ... .. 3 ... : ... .. . ... ... : ... .. . ... ... : ... .. . ... ... : ... .. . ... ...
ROW 18 : ... .. 2 ... ... ... : ... .. 2 ... ... ... : ... .. . ... : ... .. 2 ... : ... .. . ... ... : ... .. . ... ... : ... .. . ... ... : ... .. . ... ...
ROW 19 : ... .. . ... ... ... : ... .. . ... ... ... : --- .. . ... : ... .. 0 ... : ... .. . ... ... : ... .. . ... ... : ... .. . ... ... : --- .. . P84 ...
ROW 1A : E-3 00 F ... ... ... : B-2 00 F ... ... ... : E-4 00 . ... : D-# 00 F ... : ... .. . ... ... : D#4 01 A ... ... : G#3 01 A P80 ... : E-2 01 F P80 ...
ROW 1B : ... .. E ... ... ... : ... .. E ... ... ... : ... .. . ... : ... .. C ... : ... .. . ... ... : ... .. 9 ... ... : ... .. 9 ... ... : ... .. D ... ...
ROW 1C : ... .. D ... ... ... : ... .. D ... ... ... : ... .. . ... : ... .. 6 ... : ... .. . ... ... : ... .. 8 ... ... : ... .. 8 ... ... : ... .. 8 ... ...
ROW 1D : ... .. A ... ... ... : ... .. A ... ... ... : ... .. . ... : ... .. 3 ... : ... .. . ... ... : --- .. . ... ... : --- .. . P82 ... : ... .. . ... ...
ROW 1E : ... .. . ... ... ... : ... .. . ... ... ... : ... .. . ... : ... .. 2 ... : ... .. . ... ... : ... .. . ... ... : ... .. . ... ... : ... .. . ... ...
ROW 1F : ... .. . ... ... ... : ... .. . ... ... ... : --- .. . ... : ... .. 0 ... : ... .. . ... ... : ... .. . ... ... : ... .. . ... ... : --- .. . P89 ...
ROW 20 : D#3 00 F ... ... ... : A#2 00 F ... ... ... : D#4 00 . ... : 1-# 00 F ... : ... .. . ... ... : D#4 01 A ... ... : G#3 01 A P80 ... : D#2 01 F P80 ...
ROW 21 : ... .. E ... ... ... : ... .. E ... ... ... : ... .. . ... : ... .. C ... : ... .. . ... ... : ... .. 9 ... ... : ... .. 9 ... ... : ... .. D ... ...
ROW 22 : ... .. D ... ... ... : ... .. D ... ... ... : ... .. . ... : ... .. 6 ... : ... .. . ... ... : ... .. 8 ... ... : ... .. 8 ... ... : ... .. 8 ... ...
ROW 23 : ... .. A ... ... ... : ... .. A ... ... ... : ... .. . ... : ... .. 3 ... : ... .. . ... ... : --- .. . ... ... : --- .. . P82 ... : ... .. . ... ...
ROW 24 : ... .. 2 ... ... ... : ... .. 2 ... ... ... : ... .. . ... : ... .. 2 ... : ... .. . ... ... : ... .. . ... ... : ... .. . ... ... : ... .. . ... ...
ROW 25 : ... .. . ... ... ... : ... .. . ... ... ... : --- .. . ... : ... .. 0 ... : ... .. . ... ... : ... .. . ... ... : ... .. . ... ... : --- .. . ... ...
ROW 26 : G#1 00 F ... ... ... : D#1 00 F ... ... ... : G#2 00 . ... : D-# 00 F ... : ... .. . ... ... : D#4 01 A ... ... : G#3 01 A P80 ... : G#0 01 F ... ...
ROW 27 : ... .. E ... ... ... : ... .. E ... ... ... : ... .. . ... : ... .. C ... : ... .. . ... ... : ... .. 9 ... ... : ... .. 9 ... ... : ... .. D ... ...
ROW 28 : ... .. D ... ... ... : ... .. D ... ... ... : ... .. . ... : ... .. 6 ... : ... .. . ... ... : ... .. 8 ... ... : ... .. 8 ... ... : ... .. 8 ... ...
ROW 29 : ... .. A ... ... ... : ... .. A ... ... ... : ... .. . ... : ... .. 3 ... : ... .. . ... ... : --- .. . ... ... : --- .. . P82 ... : ... .. . ... ...
ROW 2A : ... .. 2 ... ... ... : ... .. 2 ... ... ... : ... .. . ... : ... .. 2 ... : ... .. . ... ... : ... .. . ... ... : ... .. . ... ... : ... .. . ... ...
ROW 2B : ... .. . ... ... ... : ... .. . ... ... ... : --- .. . ... : ... .. 0 ... : ... .. . ... ... : ... .. . ... ... : ... .. . ... ... : --- .. . P84 ...
ROW 2C : C#3 00 F ... ... ... : G#2 00 F ... ... ... : C-6 00 . ... : 6-# 00 F ... : ... .. . ... ... : G#4 01 A ... ... : D#4 01 A P80 ... : C#2 01 F P80 ...
ROW 2D : ... .. E ... ... ... : ... .. E ... ... ... : D-5 00 . ... : ... .. C ... : ... .. . ... ... : ... .. 9 ... ... : ... .. 9 ... ... : ... .. D ... ...
ROW 2E : ... .. D ... ... ... : ... .. D ... ... ... : G-4 00 . ... : ... .. 6 ... : ... .. . ... ... : ... .. 8 ... ... : ... .. 8 ... ... : ... .. 8 ... ...
ROW 2F : ... .. A ... ... ... : ... .. A ... ... ... : F#4 00 . ... : ... .. 3 ... : ... .. . ... ... : ... .. 7 ... ... : ... .. 7 ... ... : ... .. . ... ...
ROW 30 : ... .. . ... ... ... : ... .. . ... ... ... : C#4 00 . ... : ... .. 2 ... : ... .. . ... ... : ... .. . ... ... : ... .. . ... ... : ... .. . ... ...
ROW 31 : ... .. . ... ... ... : ... .. . ... ... ... : --- .. . ... : ... .. 0 ... : ... .. . ... ... : ... .. 6 ... ... : ... .. 6 ... ... : --- .. . ... ...
ROW 32 : D#3 00 F ... ... ... : A#2 00 F ... ... ... : B-3 00 . ... : D-# 00 F ... : ... .. . ... ... : D#4 01 A ... ... : G#3 01 A ... ... : B-1 01 F ... ...
ROW 33 : ... .. E ... ... ... : ... .. E ... ... ... : ... .. . ... : ... .. C ... : ... .. . ... ... : ... .. 9 ... ... : ... .. 9 ... ... : ... .. D ... ...
ROW 34 : ... .. D ... ... ... : ... .. D ... ... ... : ... .. . ... : ... .. 6 ... : ... .. . ... ... : ... .. 8 ... ... : ... .. 8 ... ... : ... .. 8 ... ...
ROW 35 : ... .. A ... ... ... : ... .. A ... ... ... : ... .. . ... : ... .. 3 ... : ... .. . ... ... : --- .. . ... ... : --- .. . P82 ... : ... .. . ... ...
ROW 36 : ... .. 2 ... ... ... : ... .. 2 ... ... ... : ... .. . ... : ... .. 2 ... : ... .. . ... ... : ... .. . ... ... : ... .. . ... ... : ... .. . ... ...
ROW 37 : ... .. . ... ... ... : ... .. . ... ... ... : --- .. . ... : ... .. 0 ... : ... .. . ... ... : ... .. . ... ... : ... .. . ... ... : --- .. . P86 ...
ROW 38 : B-2 00 F ... ... ... : F#2 00 F ... ... ... : G#2 00 . ... : 1-# 00 F ... : ... .. . ... ... : D#4 01 A ... ... : G#3 01 A P80 ... : G#0 01 F P80 ...
ROW 39 : ... .. E ... ... ... : ... .. E ... ... ... : ... .. . ... : ... .. C ... : ... .. . ... ... : ... .. 9 ... ... : ... .. 9 ... ... : ... .. D ... ...
ROW 3A : ... .. D ... ... ... : ... .. D ... ... ... : ... .. . ... : ... .. 6 ... : ... .. . ... ... : ... .. 8 ... ... : ... .. 8 ... ... : ... .. 8 ... ...
ROW 3B : ... .. A ... ... ... : ... .. A ... ... ... : ... .. . ... : ... .. 3 ... : ... .. . ... ... : --- .. . ... ... : --- .. . P82 ... : ... .. . ... ...
ROW 3C : ... .. 2 ... ... ... : ... .. 2 ... ... ... : ... .. . ... : ... .. 2 ... : ... .. . ... ... : ... .. . ... ... : ... .. . ... ... : ... .. . ... ...
ROW 3D : ... .. . ... ... ... : ... .. . ... ... ... : --- .. . ... : ... .. 0 ... : ... .. . ... ... : ... .. . ... ... : ... .. . ... ... : --- .. . P84 ...
ROW 3E : C#3 00 F ... ... ... : G#2 00 F ... ... ... : F#3 00 . ... : ... .. F ... : ... .. . ... ... : D#4 01 A ... ... : G#3 01 A P80 ... : F#1 01 F P80 ...
ROW 3F : ... .. E ... ... ... : ... .. E ... ... ... : ... .. . ... : ... .. C ... : ... .. . ... ... : ... .. 9 ... ... : ... .. 9 ... ... : ... .. D ... ...
ROW 40 : ... .. D ... ... ... : ... .. D ... ... ... : ... .. . ... : ... .. 6 ... : ... .. . ... ... : ... .. 8 ... ... : ... .. 8 ... ... : ... .. 8 ... ...
ROW 41 : ... .. A ... ... ... : ... .. A ... ... ... : ... .. . ... : ... .. 3 ... : ... .. . ... ... : ... .. 7 ... ... : ... .. 7 ... ... : ... .. . ... ...
ROW 42 : ... .. . ... ... ... : ... .. . ... ... ... : ... .. . ... : ... .. 2 ... : ... .. . ... ... : ... .. . ... ... : ... .. . ... ... : ... .. . ... ...
ROW 43 : ... .. . ... ... ... : ... .. . ... ... ... : --- .. . ... : ... .. 0 ... : ... .. . ... ... : ... .. 6 ... ... : ... .. 6 ... ... : --- .. . P81 ...
ROW 44 : F#2 00 F ... ... ... : C#2 00 F ... ... ... : G#3 00 . ... : 6-# 00 F ... : ... .. . ... ... : ... .. . ... ... : ... .. . ... ... : G#1 01 F P80 ...
ROW 45 : ... .. E ... ... ... : ... .. E ... ... ... : ... .. . ... : ... .. C ... : ... .. . ... ... : ... .. 5 ... ... : ... .. 5 ... ... : ... .. D ... ...
ROW 46 : ... .. D ... ... ... : ... .. D ... ... ... : ... .. . ... : ... .. 6 ... : ... .. . ... ... : ... .. . ... ... : ... .. . ... ... : ... .. 8 ... ...
ROW 47 : ... .. A ... ... ... : ... .. A ... ... ... : ... .. . ... : ... .. 3 ... : ... .. . ... ... : ... .. . ... ... : ... .. . ... ... : ... .. . ... ...
ROW 48 : ... .. 2 ... ... ... : ... .. 2 ... ... ... : ... .. . ... : ... .. 2 ... : ... .. . ... ... : ... .. . ... ... : ... .. . ... ... : ... .. . ... ...
ROW 49 : ... .. . ... ... ... : ... .. . ... ... ... : --- .. . ... : ... .. 0 ... : ... .. . ... ... : ... .. . ... ... : ... .. . ... ... : --- .. . P7E ...
ROW 4A : G#2 00 F ... ... ... : D#2 00 F ... ... ... : B-2 00 . ... : ... .. F ... : ... .. . ... ... : ... .. . ... ... : ... .. . ... ... : B-0 01 F P80 ...
ROW 4B : ... .. E ... ... ... : ... .. E ... ... ... : ... .. . ... : ... .. C ... : ... .. . ... ... : ... .. . ... ... : ... .. . ... ... : ... .. D ... ...
ROW 4C : ... .. D ... ... ... : ... .. D ... ... ... : ... .. . ... : ... .. 6 ... : ... .. . ... ... : ... .. . ... ... : ... .. . ... ... : ... .. 8 ... ...
ROW 4D : ... .. A ... ... ... : ... .. A ... ... ... : ... .. . ... : ... .. 3 ... : ... .. . ... ... : --- .. . ... ... : --- .. . P82 ... : ... .. . ... ...
ROW 4E : ... .. 2 ... ... ... : ... .. 2 ... ... ... : ... .. . ... : ... .. 2 ... : ... .. . ... ... : ... .. . ... ... : ... .. . ... ... : ... .. . ... ...
ROW 4F : ... .. . ... ... ... : ... .. . ... ... ... : --- .. . ... : ... .. 0 ... : ... .. . ... ... : ... .. . ... ... : ... .. . ... ... : --- .. . ... ...
ROW 50 : G#1 00 F ... ... ... : D#1 00 F ... ... ... : G-4 00 . ... : 1-# 00 F ... : ... .. . ... ... : ... .. . ... ... : ... .. . ... ... : G#0 01 F ... ...
ROW 51 : ... .. E ... ... ... : ... .. E ... ... ... : A-3 00 . ... : ... .. C ... : ... .. . ... ... : ... .. . ... ... : ... .. . ... ... : ... .. D ... ...
ROW 52 : ... .. D ... ... ... : ... .. D ... ... ... : D-3 00 . ... : ... .. 6 ... : ... .. . ... ... : ... .. . ... ... : ... .. . ... ... : ... .. 8 ... ...
ROW 53 : ... .. A ... ... ... : ... .. A ... ... ... : C#3 00 . ... : ... .. 3 ... : ... .. . ... ... : ... .. . ... ... : ... .. . ... ... : ... .. . ... ...
ROW 54 : ... .. 2 ... ... ... : ... .. 2 ... ... ... : G#2 00 . ... : ... .. 2 ... : ... .. . ... ... : ... .. . ... ... : ... .. . ... ... : ... .. . ... ...
ROW 55 : ... .. . ... ... ... : ... .. . ... ... ... : --- .. . ... : ... .. 0 ... : ... .. . ... ... : ... .. . ... ... : ... .. . ... ... : --- .. . P84 ...
ROW 56 : ... .. F ... ... ... : ... .. F ... ... ... : G#2 00 . ... : ... .. F ... : ... .. . ... ... : ... .. . ... ... : ... .. . ... ... : G#0 01 F P80 ...
ROW 57 : ... .. E ... ... ... : ... .. E ... ... ... : ... .. . ... : ... .. C ... : ... .. . ... ... : ... .. . ... ... : ... .. . ... ... : ... .. D ... ...
ROW 58 : ... .. D ... ... ... : ... .. D ... ... ... : ... .. . ... : ... .. 6 ... : ... .. . ... ... : ... .. . ... ... : ... .. . ... ... : ... .. 8 ... ...
ROW 59 : ... .. A ... ... ... : ... .. A ... ... ... : ... .. . ... : ... .. 3 ... : ... .. . ... ... : ... .. . ... ... : ... .. . ... ... : ... .. . ... ...
ROW 5A : ... .. 2 ... ... ... : ... .. 2 ... ... ... : ... .. . ... : ... .. 2 ... : ... .. . ... ... : ... .. . ... ... : ... .. . ... ... : ... .. . ... ...
ROW 5B : ... .. . ... ... ... : ... .. . ... ... ... : --- .. . ... : ... .. 0 ... : ... .. . ... ... : ... .. . ... ... : ... .. . ... ... : --- .. . P84 ...
ROW 5C : ... .. F ... ... ... : ... .. F ... ... ... : G#2 00 . ... : 6-# 00 F ... : ... .. . ... ... : ... .. . ... ... : ... .. . ... ... : G#0 01 F P80 ...
ROW 5D : ... .. E ... ... ... : ... .. E ... ... ... : ... .. . ... : ... .. C ... : ... .. . ... ... : ... .. . ... ... : ... .. . ... ... : ... .. D ... ...
ROW 5E : ... .. D ... ... ... : ... .. D ... ... ... : ... .. . ... : ... .. 6 ... : ... .. . ... ... : ... .. . ... ... : ... .. . ... ... : ... .. 8 ... ...
ROW 5F : ... .. A ... ... ... : ... .. A ... ... ... : ... .. . ... : ... .. 3 ... : ... .. . ... ... : ... .. . ... ... : ... .. . ... ... : ... .. . ... ...
ROW 60 : ... .. 2 ... ... ... : ... .. 2 ... ... ... : ... .. . ... : ... .. 2 ... : ... .. . ... ... : ... .. . ... ... : ... .. . ... ... : ... .. . ... ...
ROW 61 : ... .. . ... ... ... : ... .. . ... ... ... : --- .. . ... : ... .. 0 ... : ... .. . ... ... : ... .. . ... ... : ... .. . ... ... : --- .. . P84 ...
ROW 62 : F#4 00 F ... ... ... : C#4 00 F ... ... ... : D#4 00 . ... : 1-# 00 F ... : ... .. . ... ... : G#5 01 A ... ... : D#5 01 A P80 ... : D#2 01 F P80 ...
ROW 63 : ... .. E ... ... ... : ... .. E ... ... ... : ... .. . ... : ... .. C ... : ... .. . ... ... : ... .. 9 ... ... : ... .. 9 ... ... : ... .. D ... ...
ROW 64 : ... .. D ... ... ... : ... .. D ... ... ... : ... .. . ... : ... .. 6 ... : ... .. . ... ... : --- .. . ... ... : --- .. . ... ... : ... .. 8 ... ...
ROW 65 : ... .. A ... ... ... : ... .. A ... ... ... : ... .. . ... : ... .. 3 ... : ... .. . ... ... : G#5 01 A ... ... : D#5 01 A ... ... : ... .. . ... ...
ROW 66 : ... .. . ... ... ... : ... .. . ... ... ... : ... .. . ... : ... .. 2 ... : ... .. . ... ... : ... .. 9 ... ... : ... .. 9 ... ... : ... .. . ... ...
ROW 67 : ... .. . ... ... ... : ... .. . ... ... ... : ... .. . ... : ... .. 0 ... : ... .. . ... ... : --- .. . ... ... : --- .. . ... ... : ... .. . ... ...
ROW 68 : G-4 00 A P7F ... ... : D-4 00 A P7B ... ... : E-4 00 . P7D : ... .. F ... : ... .. . ... ... : G#5 01 A ... ... : D#5 01 A ... ... : ... .. . P87 ...
ROW 69 : ... .. . P81 ... ... : ... .. . P7D ... ... : ... .. . P7F : ... .. C ... : ... .. . ... ... : ... .. 9 ... ... : ... .. 9 ... ... : ... .. . P89 ...
ROW 6A : ... .. . P7E ... ... : C#4 00 A P86 ... ... : ... .. . P7C : ... .. 6 ... : ... .. . ... ... : --- .. . ... ... : --- .. . ... ... : ... .. . P86 ...
ROW 6B : F#4 00 A P80 ... ... : ... .. . P80 ... ... : D#4 00 . P80 : ... .. 3 ... : ... .. . ... ... : G#5 01 A ... ... : D#5 01 A ... ... : ... .. . P80 ...
ROW 6C : F-4 00 A P82 ... ... : C-4 00 A P85 ... ... : D-4 00 . P83 : ... .. 2 ... : ... .. . ... ... : ... .. 9 ... ... : ... .. 9 ... ... : ... .. . P79 ...
ROW 6D : ... .. . P80 ... ... : ... .. . P83 ... ... : ... .. . P81 : ... .. 0 ... : ... .. . ... ... : --- .. . ... ... : --- .. . ... ... : ... .. . P77 ...
ROW 6E : ... .. . P83 ... ... : ... .. . P86 ... ... : ... .. . P84 : ... .. F ... : ... .. . ... ... : G#5 01 A ... ... : D#5 01 A ... ... : ... .. . P7A ...
ROW 6F : F#4 00 A P80 ... ... : C#4 00 A P80 ... ... : D#4 00 . P80 : ... .. C ... : ... .. . ... ... : ... .. 9 ... ... : ... .. 9 ... ... : ... .. . P80 ...
ROW 70 : G-4 00 A P7F ... ... : D-4 00 A P7B ... ... : E-4 00 . P7D : ... .. 6 ... : ... .. . ... ... : ... .. 8 ... ... : ... .. 8 ... ... : ... .. . P87 ...
ROW 71 : ... .. . P81 ... ... : ... .. . P7D ... ... : ... .. . P7F : ... .. 3 ... : ... .. . ... ... : --- .. . ... ... : --- .. . ... ... : ... .. . P89 ...
ROW 72 : ... .. . P7E ... ... : C#4 00 A P86 ... ... : ... .. . P7C : ... .. 2 ... : ... .. . ... ... : ... .. . ... ... : ... .. . ... ... : ... .. . P86 ...
ROW 73 : F#4 00 A P80 ... ... : ... .. . P80 ... ... : D#4 00 . P80 : ... .. 0 ... : ... .. . ... ... : ... .. . ... ... : ... .. . ... ... : ... .. . P80 ...
ROW 74 : G#1 00 F ... ... ... : D#1 00 F ... ... ... : G-4 00 . ... : 6-# 00 F ... : ... .. . ... ... : G#5 01 A ... ... : G#4 01 A ... ... : G#0 01 F ... ...
ROW 75 : ... .. E ... ... ... : ... .. E ... ... ... : A-3 00 . ... : ... .. C ... : ... .. . ... ... : ... .. 9 ... ... : ... .. 9 ... ... : ... .. D ... ...
ROW 76 : ... .. D ... ... ... : ... .. D ... ... ... : D-3 00 . ... : ... .. 6 ... : ... .. . ... ... : ... .. 8 ... ... : ... .. 8 ... ... : ... .. 8 ... ...
ROW 77 : ... .. A ... ... ... : ... .. A ... ... ... : C#3 00 . ... : ... .. 3 ... : ... .. . ... ... : --- .. . ... ... : --- .. . ... ... : ... .. . ... ...
ROW 78 : ... .. 2 ... ... ... : ... .. 2 ... ... ... : G#2 00 . ... : ... .. 2 ... : ... .. . ... ... : ... .. . ... ... : ... .. . ... ... : ... .. . ... ...
ROW 79 : ... .. . ... ... ... : ... .. . ... ... ... : --- .. . ... : ... .. 0 ... : ... .. . ... ... : ... .. . ... ... : ... .. . ... ... : --- .. . P84 ...
ROW 7A : ... .. F ... ... ... : ... .. F ... ... ... : G#2 00 . ... : 1-# 00 F ... : ... .. . ... ... : D#5 01 A ... ... : C#5 01 A ... ... : G#0 01 F P80 ...
ROW 7B : ... .. E ... ... ... : ... .. E ... ... ... : ... .. . ... : ... .. C ... : ... .. . ... ... : ... .. 9 ... ... : ... .. 9 ... ... : ... .. D ... ...
ROW 7C : ... .. D ... ... ... : ... .. D ... ... ... : ... .. . ... : ... .. 6 ... : ... .. . ... ... : ... .. 8 ... ... : ... .. 8 ... ... : ... .. 8 ... ...
ROW 7D : ... .. A ... ... ... : ... .. A ... ... ... : ... .. . ... : ... .. 3 ... : ... .. . ... ... : --- .. . ... ... : --- .. . ... ... : ... .. . ... ...
ROW 7E : ... .. 2 ... ... ... : ... .. 2 ... ... ... : ... .. . ... : ... .. 2 ... : ... .. . ... ... : ... .. . ... ... : ... .. . ... ... : ... .. . ... ...
ROW 7F : ... .. . ... ... ... : ... .. . ... ... ... : --- .. . ... : ... .. 0 ... : ... .. . ... ... : ... .. . ... ... : ... .. . ... ... : --- .. . P84 ...
ROW 80 : ... .. F ... ... ... : ... .. F ... ... ... : G#2 00 . ... : ... .. F ... : ... .. . ... ... : D#5 01 A ... ... : F#5 01 A ... ... : G#0 01 F P80 ...
ROW 81 : ... .. E ... ... ... : ... .. E ... ... ... : ... .. . ... : ... .. C ... : ... .. . ... ... : ... .. 9 ... ... : ... .. 9 ... ... : ... .. D ... ...
ROW 82 : ... .. D ... ... ... : ... .. D ... ... ... : ... .. . ... : ... .. 6 ... : ... .. . ... ... : ... .. 8 ... ... : ... .. 8 ... ... : ... .. 8 ... ...
ROW 83 : ... .. A ... ... ... : ... .. A ... ... ... : ... .. . ... : ... .. 3 ... : ... .. . ... ... : --- .. . ... ... : --- .. . ... ... : ... .. . ... ...
ROW 84 : ... .. 2 ... ... ... : ... .. 2 ... ... ... : ... .. . ... : ... .. 2 ... : ... .. . ... ... : ... .. . ... ... : ... .. . ... ... : ... .. . ... ...
ROW 85 : ... .. . ... ... ... : ... .. . ... ... ... : --- .. . ... : ... .. 0 ... : ... .. . ... ... : ... .. . ... ... : ... .. . ... ... : --- .. . P84 ...
ROW 86 : E-4 00 F ... ... ... : B-3 00 F ... ... ... : C#4 00 . ... : ... .. F ... : ... .. . ... ... : D#5 01 A ... ... : G#4 01 A ... ... : C#2 01 F P80 ...
ROW 87 : ... .. E ... ... ... : ... .. E ... ... ... : ... .. . ... : ... .. C ... : ... .. . ... ... : ... .. 9 ... ... : ... .. 9 ... ... : ... .. D ... ...
ROW 88 : ... .. D ... ... ... : ... .. D ... ... ... : ... .. . ... : ... .. 6 ... : ... .. . ... ... : ... .. 8 ... ... : ... .. 8 ... ... : ... .. 8 ... ...
ROW 89 : ... .. A ... ... ... : ... .. A ... ... ... : ... .. . ... : ... .. 3 ... : ... .. . ... ... : ... .. 7 ... ... : ... .. 7 ... ... : ... .. . ... ...
ROW 8A : ... .. . ... ... ... : ... .. . ... ... ... : ... .. . ... : ... .. 2 ... : ... .. . ... ... : ... .. . ... ... : ... .. . ... ... : ... .. . ... ...
ROW 8B : ... .. . ... ... ... : ... .. . ... ... ... : ... .. . ... : ... .. 0 ... : ... .. . ... ... : ... .. 6 ... ... : ... .. 6 ... ... : ... .. . ... ...
ROW 8C : F-4 00 A P7D ... ... : C-4 00 A P7B ... ... : D-4 00 . P7B : 6-# 00 F ... : ... .. . ... ... : ... .. . ... ... : ... .. . ... ... : ... .. . P87 ...
ROW 8D : ... .. . P7F ... ... : ... .. . P7D ... ... : ... .. . P7D : ... .. C ... : ... .. . ... ... : ... .. 5 ... ... : ... .. 5 ... ... : ... .. . P89 ...
ROW 8E : ... .. . P7C ... ... : B-3 00 A P86 ... ... : C#4 00 . P86 : ... .. 6 ... : ... .. . ... ... : ... .. . ... ... : ... .. . ... ... : ... .. . P86 ...
ROW 8F : E-4 00 A P80 ... ... : ... .. . P80 ... ... : ... .. . P80 : ... .. 3 ... : ... .. . ... ... : E-5 01 5 P7F ... : A-4 01 5 P7D ... : ... .. . P80 ...
ROW 90 : D#4 00 A P83 ... ... : A#3 00 A P87 ... ... : C-4 00 . P85 : ... .. 2 ... : ... .. . ... ... : ... .. . ... ... : ... .. . P7E ... : ... .. . P79 ...
ROW 91 : ... .. . P81 ... ... : ... .. . P85 ... ... : ... .. . P83 : ... .. 0 ... : ... .. . ... ... : D#5 01 5 P80 ... : G#4 01 5 P80 ... : ... .. . P77 ...
ROW 92 : ... .. . P84 ... ... : B-3 00 A P7A ... ... : ... .. . P86 : 1-# 00 F ... : ... .. . ... ... : D-5 01 5 P82 ... : G-4 01 5 P84 ... : ... .. . P7A ...
ROW 93 : E-4 00 A P80 ... ... : ... .. . P80 ... ... : C#4 00 . P80 : ... .. C ... : ... .. . ... ... : ... .. . P81 ... : ... .. . P82 ... : ... .. . P80 ...
ROW 94 : F-4 00 A P7D ... ... : C-4 00 A P7B ... ... : D-4 00 . P7B : ... .. 6 ... : ... .. . ... ... : D#5 01 5 P7F ... : G#4 01 5 P7E ... : ... .. . P87 ...
ROW 95 : ... .. . P7F ... ... : ... .. . P7D ... ... : ... .. . P7D : ... .. 3 ... : ... .. . ... ... : ... .. . P82 ... : ... .. . P83 ... : ... .. . P89 ...
ROW 96 : ... .. . P7C ... ... : B-3 00 A P86 ... ... : C#4 00 . P86 : ... .. 2 ... : ... .. . ... ... : E-5 01 5 P7F ... : A-4 01 5 P7E ... : ... .. . P86 ...
ROW 97 : E-4 00 A P80 ... ... : ... .. . P80 ... ... : ... .. . P80 : ... .. 0 ... : ... .. . ... ... : D#5 01 5 P82 ... : G#4 01 5 P83 ... : ... .. . P80 ...
ROW 98 : B-2 00 F ... ... ... : F#2 00 F ... ... ... : A#5 00 . ... : 6-# 00 F ... : ... .. . ... ... : ... .. . P7F ... : ... .. . P7E ... : B-1 01 F ... ...
ROW 99 : ... .. E ... ... ... : ... .. E ... ... ... : C-5 00 . ... : ... .. C ... : ... .. . ... ... : D-5 01 5 P81 ... : G-4 01 5 P82 ... : ... .. D ... ...
ROW 9A : ... .. D ... ... ... : ... .. D ... ... ... : F-4 00 . ... : ... .. 6 ... : ... .. . ... ... : ... .. . P82 ... : ... .. . P84 ... : ... .. 8 ... ...
ROW 9B : ... .. A ... ... ... : ... .. A ... ... ... : E-4 00 . ... : ... .. 3 ... : ... .. . ... ... : D#5 01 5 P80 ... : G#4 01 5 P81 ... : ... .. . ... ...
ROW 9C : ... .. 2 ... ... ... : ... .. 2 ... ... ... : B-3 00 . ... : ... .. 2 ... : ... .. . ... ... : E-5 01 5 P7F ... : A-4 01 5 P7E ... : ... .. . ... ...
ROW 9D : ... .. . ... ... ... : ... .. . ... ... ... : --- .. . ... : ... .. 0 ... : ... .. . ... ... : ... .. . P7E ... : ... .. . P7D ... : --- .. . P86 ...
ROW 9E : ... .. F ... ... ... : ... .. F ... ... ... : B-3 00 . ... : 1-# 00 F ... : ... .. . ... ... : D#5 01 5 P80 ... : G#4 01 5 P80 ... : B-1 01 F P80 ...
ROW 9F : ... .. E ... ... ... : ... .. E ... ... ... : ... .. . ... : ... .. C ... : ... .. . ... ... : D-5 01 5 P81 ... : G-4 01 5 P83 ... : ... .. D ... ...
ROW A0 : ... .. D ... ... ... : ... .. D ... ... ... : ... .. . ... : ... .. 6 ... : ... .. . ... ... : ... .. . ... ... : ... .. . P82 ... : ... .. 8 ... ...
ROW A1 : ... .. A ... ... ... : ... .. A ... ... ... : ... .. . ... : ... .. 3 ... : ... .. . ... ... : --- .. . ... ... : --- .. . ... ... : ... .. . ... ...
ROW A2 : ... .. 2 ... ... ... : ... .. 2 ... ... ... : ... .. . ... : ... .. 2 ... : ... .. . ... ... : ... .. . ... ... : ... .. . ... ... : ... .. . ... ...
ROW A3 : ... .. . ... ... ... : ... .. . ... ... ... : --- .. . ... : ... .. 0 ... : ... .. . ... ... : ... .. . ... ... : ... .. . ... ... : --- .. . P86 ...
ROW A4 : ... .. F ... ... ... : ... .. F ... ... ... : B-3 00 . ... : ... .. F ... : ... .. . ... ... : ... .. . ... ... : ... .. . ... ... : B-1 01 F P80 ...
ROW A5 : ... .. E ... ... ... : ... .. E ... ... ... : ... .. . ... : ... .. C ... : ... .. . ... ... : ... .. . ... ... : ... .. . ... ... : ... .. D ... ...
ROW A6 : ... .. D ... ... ... : ... .. D ... ... ... : ... .. . ... : ... .. 6 ... : ... .. . ... ... : ... .. . ... ... : ... .. . ... ... : ... .. 8 ... ...
ROW A7 : ... .. A ... ... ... : ... .. A ... ... ... : ... .. . ... : ... .. 3 ... : ... .. . ... ... : ... .. . ... ... : ... .. . ... ... : ... .. . ... ...
ROW A8 : ... .. 2 ... ... ... : ... .. 2 ... ... ... : ... .. . ... : ... .. 2 ... : ... .. . ... ... : ... .. . ... ... : ... .. . ... ... : ... .. . ... ...
ROW A9 : ... .. . ... ... ... : ... .. . ... ... ... : --- .. . ... : ... .. 0 ... : ... .. . ... ... : ... .. . ... ... : ... .. . ... ... : --- .. . P86 ...
ROW AA : F#2 00 F ... ... ... : C#2 00 F ... ... ... : F#3 00 . ... : A-# 00 F ... : ... .. . ... ... : G#3 01 A P80 ... : D#3 01 A P80 ... : F#1 01 F P80 ...
ROW AB : ... .. E ... ... ... : ... .. E ... ... ... : ... .. . ... : ... .. C ... : ... .. . ... ... : ... .. 9 ... ... : ... .. 9 ... ... : ... .. D ... ...
ROW AC : ... .. D ... ... ... : ... .. D ... ... ... : ... .. . ... : ... .. 6 ... : ... .. . ... ... : ... .. 8 ... ... : ... .. 8 ... ... : ... .. 8 ... ...
ROW AD : ... .. A ... ... ... : ... .. A ... ... ... : ... .. . ... : ... .. 3 ... : ... .. . ... ... : --- .. . P82 ... : --- .. . P83 ... : ... .. . ... ...
ROW AE : ... .. 2 ... ... ... : ... .. 2 ... ... ... : ... .. . ... : ... .. 2 ... : ... .. . ... ... : ... .. . ... ... : ... .. . ... ... : ... .. . ... ...
ROW AF : ... .. . ... ... ... : ... .. . ... ... ... : --- .. . ... : ... .. 0 ... : ... .. . ... ... : ... .. . ... ... : ... .. . ... ... : --- .. . P81 ...
ROW B0 : ... .. F ... ... ... : ... .. F ... ... ... : F#3 00 . ... : 1-# 00 F ... : ... .. . ... ... : C#4 01 A P80 ... : G#3 01 A P80 ... : F#1 01 F P80 ...
ROW B1 : ... .. E ... ... ... : ... .. E ... ... ... : ... .. . ... : ... .. C ... : ... .. . ... ... : ... .. 9 ... ... : ... .. 9 ... ... : ... .. D ... ...
ROW B2 : ... .. D ... ... ... : ... .. D ... ... ... : ... .. . ... : ... .. 6 ... : ... .. . ... ... : ... .. 8 ... ... : ... .. 8 ... ... : ... .. 8 ... ...
ROW B3 : ... .. A ... ... ... : ... .. A ... ... ... : ... .. . ... : ... .. 3 ... : ... .. . ... ... : --- .. . ... ... : --- .. . P82 ... : ... .. . ... ...
ROW B4 : ... .. 2 ... ... ... : ... .. 2 ... ... ... : ... .. . ... : ... .. 2 ... : ... .. . ... ... : ... .. . ... ... : ... .. . ... ... : ... .. . ... ...
ROW B5 : ... .. . ... ... ... : ... .. . ... ... ... : --- .. . ... : ... .. 0 ... : ... .. . ... ... : ... .. . ... ... : ... .. . ... ... : --- .. . P81 ...
ROW B6 : ... .. F ... ... ... : ... .. F ... ... ... : F#3 00 . ... : ... .. F ... : ... .. . ... ... : F#4 01 A ... ... : C#4 01 A P80 ... : F#1 01 F P80 ...
ROW B7 : ... .. E ... ... ... : ... .. E ... ... ... : ... .. . ... : ... .. C ... : ... .. . ... ... : ... .. 9 ... ... : ... .. 9 ... ... : ... .. D ... ...
ROW B8 : ... .. D ... ... ... : ... .. D ... ... ... : ... .. . ... : ... .. 6 ... : ... .. . ... ... : ... .. 8 ... ... : ... .. 8 ... ... : ... .. 8 ... ...
ROW B9 : ... .. A ... ... ... : ... .. A ... ... ... : ... .. . ... : ... .. 3 ... : ... .. . ... ... : --- .. . ... ... : --- .. . ... ... : ... .. . ... ...
ROW BA : ... .. 2 ... ... ... : ... .. 2 ... ... ... : ... .. . ... : ... .. 2 ... : ... .. . ... ... : ... .. . ... ... : ... .. . ... ... : ... .. . ... ...
ROW BB : ... .. . ... ... ... : ... .. . ... ... ... : --- .. . ... : ... .. 0 ... : ... .. . ... ... : ... .. . ... ... : ... .. . ... ... : --- .. . P81 ...
ROW BC : C#2 00 F ... ... ... : G#1 00 F ... ... ... : C-5 00 . ... : 6-# 00 F ... : ... .. . ... ... : F#4 01 A ... ... : C#4 01 A ... ... : C#1 01 F P80 ...
ROW BD : ... .. E ... ... ... : ... .. E ... ... ... : D-4 00 . ... : ... .. C ... : ... .. . ... ... : ... .. 9 ... ... : ... .. 9 ... ... : ... .. D ... ...
ROW BE : ... .. D ... ... ... : ... .. D ... ... ... : G-3 00 . ... : ... .. 6 ... : ... .. . ... ... : ... .. 8 ... ... : ... .. 8 ... ... : ... .. 8 ... ...
ROW BF : ... .. A ... ... ... : ... .. A ... ... ... : F#3 00 . ... : ... .. 3 ... : ... .. . ... ... : ... .. 7 ... ... : ... .. 7 ... ... : ... .. . ... ...
ROW C0 : ... .. 2 ... ... ... : ... .. 2 ... ... ... : C#3 00 . ... : ... .. 2 ... : ... .. . ... ... : ... .. . ... ... : ... .. . ... ... : ... .. . ... ...
ROW C1 : ... .. . ... ... ... : ... .. . ... ... ... : --- .. . ... : ... .. 0 ... : ... .. . ... ... : ... .. 6 ... ... : ... .. 6 ... ... : --- .. . P81 ...
ROW C2 : ... .. F ... ... ... : ... .. F ... ... ... : C#3 00 . ... : ... .. F ... : ... .. . ... ... : D#4 01 A ... ... : A#3 01 A ... ... : C#1 01 F P80 ...
ROW C3 : ... .. E ... ... ... : ... .. E ... ... ... : ... .. . ... : ... .. C ... : ... .. . ... ... : ... .. 9 ... ... : ... .. 9 ... ... : ... .. D ... ...
ROW C4 : ... .. D ... ... ... : ... .. D ... ... ... : ... .. . ... : ... .. 6 ... : ... .. . ... ... : ... .. 8 ... ... : ... .. 8 ... ... : ... .. 8 ... ...
ROW C5 : ... .. A ... ... ... : ... .. A ... ... ... : ... .. . ... : ... .. 3 ... : ... .. . ... ... : --- .. . ... ... : --- .. . ... ... : ... .. . ... ...
ROW C6 : ... .. 2 ... ... ... : ... .. 2 ... ... ... : ... .. . ... : ... .. 2 ... : ... .. . ... ... : ... .. . ... ... : ... .. . ... ... : ... .. . ... ...
ROW C7 : ... .. . ... ... ... : ... .. . ... ... ... : --- .. . ... : ... .. 0 ... : ... .. . ... ... : ... .. . ... ... : ... .. . ... ... : --- .. . P81 ...
ROW C8 : ... .. F ... ... ... : ... .. F ... ... ... : C#3 00 . ... : 5-# 00 F ... : ... .. . ... ... : G#4 01 A ... ... : D#4 01 A ... ... : C#1 01 F P80 ...
ROW C9 : ... .. E ... ... ... : ... .. E ... ... ... : ... .. . ... : ... .. C ... : ... .. . ... ... : ... .. 9 ... ... : ... .. 9 ... ... : ... .. D ... ...
ROW CA : ... .. D ... ... ... : ... .. D ... ... ... : ... .. . ... : ... .. 6 ... : ... .. . ... ... : ... .. 8 ... ... : ... .. 8 ... ... : ... .. 8 ... ...
ROW CB : ... .. A ... ... ... : ... .. A ... ... ... : ... .. . ... : ... .. 3 ... : ... .. . ... ... : --- .. . ... ... : --- .. . ... ... : ... .. . ... ...
ROW CC : ... .. 2 ... ... ... : ... .. 2 ... ... ... : ... .. . ... : ... .. 2 ... : ... .. . ... ... : ... .. . ... ... : ... .. . ... ... : ... .. . ... ...
ROW CD : ... .. . ... ... ... : ... .. . ... ... ... : --- .. . ... : ... .. 0 ... : ... .. . ... ... : ... .. . ... ... : ... .. . ... ... : --- .. . P81 ...
ROW CE : G#3 00 F ... ... ... : C#1 00 F ... ... ... : F#2 00 . ... : ... .. F ... : ... .. . ... ... : C#5 01 A ... ... : G#4 01 A ... ... : F#0 01 F P80 ...
ROW CF : ... .. E ... ... ... : ... .. E ... ... ... : ... .. . ... : ... .. C ... : ... .. . ... ... : ... .. 9 ... ... : ... .. 9 ... ... : ... .. D ... ...
ROW D0 : ... .. D ... ... ... : ... .. D ... ... ... : ... .. . ... : ... .. 6 ... : ... .. . ... ... : ... .. 8 ... ... : ... .. 8 ... ... : ... .. 8 ... ...
ROW D1 : ... .. A ... ... ... : ... .. A ... ... ... : ... .. . ... : ... .. 3 ... : ... .. . ... ... : --- .. . ... ... : --- .. . ... ... : ... .. . ... ...
ROW D2 : A#3 00 F ... ... ... : ... .. 2 ... ... ... : ... .. . ... : ... .. 2 ... : ... .. . ... ... : ... .. . ... ... : ... .. . ... ... : ... .. . ... ...
ROW D3 : ... .. E ... ... ... : ... .. . ... ... ... : --- .. . ... : ... .. 0 ... : ... .. . ... ... : ... .. . ... ... : ... .. . ... ... : --- .. . P81 ...
ROW D4 : ... .. D ... ... ... : ... .. F ... ... ... : F#2 00 . ... : 3-# 00 F ... : ... .. . ... ... : B-4 01 A ... ... : F#4 01 A ... ... : F#0 01 F P80 ...
ROW D5 : ... .. A ... ... ... : ... .. E ... ... ... : ... .. . ... : ... .. C ... : ... .. . ... ... : ... .. 9 ... ... : ... .. 9 ... ... : ... .. D ... ...
ROW D6 : ... .. . ... ... ... : ... .. D ... ... ... : ... .. . ... : ... .. 6 ... : ... .. . ... ... : ... .. 8 ... ... : ... .. 8 ... ... : ... .. 8 ... ...
ROW D7 : B-3 00 F ... ... ... : ... .. A ... ... ... : ... .. . ... : ... .. 3 ... : ... .. . ... ... : --- .. . ... ... : --- .. . ... ... : ... .. . ... ...
ROW D8 : ... .. E ... ... ... : ... .. 2 ... ... ... : ... .. . ... : ... .. 2 ... : ... .. . ... ... : ... .. . ... ... : ... .. . ... ... : ... .. . ... ...
ROW D9 : ... .. D ... ... ... : ... .. . ... ... ... : --- .. . ... : ... .. 0 ... : ... .. . ... ... : ... .. . ... ... : ... .. . ... ... : --- .. . P81 ...
ROW DA : ... .. A ... ... ... : ... .. F ... ... ... : F#2 00 . ... : ... .. F ... : ... .. . ... ... : F#5 01 A ... ... : C#5 01 A ... ... : F#0 01 F P80 ...
ROW DB : C#4 00 F ... ... ... : ... .. E ... ... ... : ... .. . ... : ... .. C ... : ... .. . ... ... : ... .. 9 ... ... : ... .. 9 ... ... : ... .. D ... ...
ROW DC : ... .. E ... ... ... : ... .. D ... ... ... : ... .. . ... : ... .. 6 ... : ... .. . ... ... : ... .. 8 ... ... : ... .. 8 ... ... : ... .. 8 ... ...
ROW DD : ... .. D ... ... ... : ... .. A ... ... ... : ... .. . ... : ... .. 3 ... : ... .. . ... ... : ... .. 7 ... ... : ... .. 7 ... ... : ... .. . ... ...
ROW DE : ... .. A ... ... ... : ... .. 2 ... ... ... : ... .. . ... : ... .. 2 ... : ... .. . ... ... : ... .. . ... ... : ... .. . ... ... : ... .. . ... ...
ROW DF : ... .. . ... ... ... : ... .. . ... ... ... : --- .. . ... : ... .. 0 ... : ... .. . ... ... : ... .. 6 ... ... : ... .. 6 ... ... : --- .. . P81 ...
ROW E0 : D#4 00 F ... ... ... : B-4 00 9 ... ... ... : G-4 00 . ... : 1-# 00 F ... : ... .. . ... ... : G#2 01 A ... ... : D#3 01 A ... ... : G#1 01 F P80 ...
ROW E1 : ... .. E ... ... ... : ... .. 8 ... ... ... : A-3 00 . ... : ... .. C ... : ... .. . ... ... : ... .. 9 ... ... : ... .. 9 ... ... : ... .. D ... ...
ROW E2 : ... .. D ... ... ... : ... .. . ... ... ... : D-3 00 . ... : ... .. 6 ... : ... .. . ... ... : ... .. 8 ... ... : ... .. 8 ... ... : ... .. 8 ... ...
ROW E3 : ... .. A ... ... ... : ... .. 7 ... ... ... : C#3 00 . ... : ... .. 3 ... : ... .. . ... ... : ... .. 7 ... ... : ... .. 7 ... ... : ... .. . ... ...
ROW E4 : ... .. . ... ... ... : ... .. 5 ... ... ... : G#2 00 . ... : ... .. 2 ... : ... .. . ... ... : ... .. . ... ... : ... .. . ... ... : ... .. . ... ...
ROW E5 : ... .. . ... ... ... : ... .. . ... ... ... : --- .. . ... : ... .. 0 ... : ... .. . ... ... : ... .. 6 ... ... : ... .. 6 ... ... : ... .. . ... ...
ROW E6 : ... .. . ... ... ... : G#4 00 9 ... ... ... : G#2 00 . ... : D-# 00 F ... : ... .. . ... ... : ... .. . ... ... : ... .. . ... ... : ... .. . ... ...
ROW E7 : ... .. . ... ... ... : ... .. 8 ... ... ... : ... .. . ... : ... .. C ... : ... .. . ... ... : ... .. 5 ... ... : ... .. 5 ... ... : ... .. . ... ...
ROW E8 : ... .. . ... ... ... : ... .. . ... ... ... : ... .. . ... : ... .. 6 ... : ... .. . ... ... : ... .. . ... ... : ... .. . ... ... : ... .. . ... ...
ROW E9 : ... .. . ... ... ... : B-4 00 4 ... ... ... : ... .. . ... : ... .. 3 ... : ... .. . ... ... : --- .. . ... ... : --- .. . P83 ... : ... .. . ... ...
ROW EA : ... .. . ... ... ... : ... .. 3 ... ... ... : ... .. . ... : ... .. 2 ... : ... .. . ... ... : ... .. . ... ... : ... .. . ... ... : ... .. . ... ...
ROW EB : ... .. . ... ... ... : ... .. . ... ... ... : --- .. . ... : ... .. 0 ... : ... .. . ... ... : ... .. . ... ... : ... .. . ... ... : ... .. . ... ...
ROW EC : ... .. . ... ... ... : ... .. 9 ... ... ... : F#3 00 . ... : 6-# 00 F ... : ... .. . ... ... : G#2 01 A ... ... : D#3 01 A P80 ... : ... .. . ... ...
ROW ED : ... .. . ... ... ... : ... .. 8 ... ... ... : ... .. . ... : ... .. C ... : ... .. . ... ... : ... .. 9 ... ... : ... .. 9 ... ... : ... .. . ... ...
ROW EE : ... .. . ... ... ... : ... .. . ... ... ... : ... .. . ... : ... .. 6 ... : ... .. . ... ... : ... .. 8 ... ... : ... .. 8 ... ... : ... .. . ... ...
ROW EF : ... .. . ... ... ... : G#4 00 4 ... ... ... : ... .. . ... : ... .. 3 ... : ... .. . ... ... : ... .. 7 ... ... : ... .. 7 ... ... : ... .. . ... ...
ROW F0 : ... .. 2 ... ... ... : ... .. 3 ... ... ... : ... .. . ... : ... .. 2 ... : ... .. . ... ... : ... .. . ... ... : ... .. . ... ... : ... .. . ... ...
ROW F1 : ... .. . ... ... ... : ... .. . ... ... ... : --- .. . ... : ... .. 0 ... : ... .. . ... ... : ... .. 6 ... ... : ... .. 6 ... ... : ... .. . ... ...
ROW F2 : F#4 00 F ... ... ... : ... .. 9 ... ... ... : G#2 00 . ... : D-# 00 F ... : ... .. . ... ... : ... .. . ... ... : ... .. . ... ... : ... .. . ... ...
ROW F3 : ... .. E ... ... ... : ... .. 8 ... ... ... : ... .. . ... : ... .. C ... : ... .. . ... ... : ... .. 5 ... ... : ... .. 5 ... ... : ... .. . ... ...
ROW F4 : ... .. D ... ... ... : ... .. . ... ... ... : ... .. . ... : ... .. 6 ... : ... .. . ... ... : ... .. . ... ... : ... .. . ... ... : ... .. . ... ...
ROW F5 : ... .. A ... ... ... : B-4 00 4 ... ... ... : ... .. . ... : ... .. 3 ... : ... .. . ... ... : --- .. . ... ... : --- .. . P83 ... : ... .. . ... ...
ROW F6 : ... .. . ... ... ... : ... .. 3 ... ... ... : ... .. . ... : ... .. 2 ... : ... .. . ... ... : ... .. . ... ... : ... .. . ... ... : ... .. . ... ...
ROW F7 : ... .. . ... ... ... : ... .. . ... ... ... : --- .. . ... : ... .. 0 ... : ... .. . ... ... : ... .. . ... ... : ... .. . ... ... : ... .. . ... ...
ROW F8 : ... .. . ... ... ... : ... .. 9 ... ... ... : F#3 00 . ... : 1-# 00 F ... : ... .. . ... ... : G#2 01 A ... ... : D#3 01 A P80 ... : ... .. . ... ...
ROW F9 : ... .. . ... ... ... : ... .. 8 ... ... ... : ... .. . ... : ... .. C ... : ... .. . ... ... : ... .. 9 ... ... : ... .. 9 ... ... : ... .. . ... ...
ROW FA : ... .. . ... ... ... : ... .. . ... ... ... : ... .. . ... : ... .. 6 ... : ... .. . ... ... : ... .. 8 ... ... : ... .. 8 ... ... : ... .. . ... ...
ROW FB : G-4 00 A P7F ... ... : G#4 00 4 ... ... ... : ... .. . ... : ... .. 3 ... : ... .. . ... ... : --- .. . ... ... : --- .. . P83 ... : ... .. . ... ...
ROW FC : ... .. . P81 ... ... : ... .. 3 ... ... ... : ... .. . ... : ... .. 2 ... : ... .. . ... ... : ... .. . ... ... : ... .. . ... ... : ... .. . ... ...
ROW FD : ... .. . P7E ... ... : ... .. . ... ... ... : --- .. . ... : ... .. 0 ... : ... .. . ... ... : ... .. . ... ... : ... .. . ... ... : ... .. . ... ...
ROW FE : F#4 00 A P80 ... ... : ... .. 9 ... ... ... : G#3 00 . ... : ... .. F ... : ... .. . ... ... : G#2 01 A ... ... : D#3 01 A P80 ... : ... .. . ... ...
ROW FF : F-4 00 A P82 ... ... : ... .. 8 ... ... ... : ... .. . ... : ... .. C ... : ... .. . ... ... : ... .. 9 ... ... : ... .. 9 ... ... : ... .. 4 ... ...

PATTERN 11
ROW 00 : ... .. . P80 ... ... : ... .. . ... ... ... : ... .. . ... : ... .. 6 ... : ... .. . ... ... : ... .. 8 ... ... : ... .. 8 ... ... : ... .. . ... ...
ROW 01 : ... .. . P83 ... ... : B-4 00 4 ... ... ... : ... .. . ... : ... .. 3 ... : ... .. . ... ... : --- .. . ... ... : --- .. . P83 ... : ... .. 1 ... ...
ROW 02 : F#4 00 A P80 ... ... : ... .. 3 ... ... ... : ... .. . ... : ... .. 2 ... : ... .. . ... ... : ... .. . ... ... : ... .. . ... ... : ... .. . ... ...
ROW 03 : G-4 00 A P7F ... ... : ... .. . ... ... ... : --- .. . ... : ... .. 0 ... : ... .. . ... ... : ... .. . ... ... : ... .. . ... ... : ... .. . ... ...
ROW 04 : F-4 00 F P80 ... ... : C#5 00 9 ... ... ... : C-5 00 . ... : 6-# 00 F ... : ... .. . ... ... : G#2 01 A ... ... : F-3 01 A P80 ... : C#1 01 F ... ...
ROW 05 : ... .. E ... ... ... : ... .. 8 ... ... ... : D-4 00 . ... : ... .. C ... : ... .. . ... ... : ... .. 9 ... ... : ... .. 9 ... ... : ... .. D ... ...
ROW 06 : ... .. D ... ... ... : ... .. . ... ... ... : G-3 00 . ... : ... .. 6 ... : ... .. . ... ... : ... .. 8 ... ... : ... .. 8 ... ... : ... .. 8 ... ...
ROW 07 : ... .. A ... ... ... : G#4 00 4 ... ... ... : F#3 00 . ... : ... .. 3 ... : ... .. . ... ... : ... .. 7 ... ... : ... .. 7 ... ... : ... .. . ... ...
ROW 08 : ... .. 2 ... ... ... : ... .. 3 ... ... ... : C#3 00 . ... : ... .. 2 ... : ... .. . ... ... : ... .. . ... ... : ... .. . ... ... : ... .. . ... ...
ROW 09 : ... .. . ... ... ... : ... .. . ... ... ... : --- .. . ... : ... .. 0 ... : ... .. . ... ... : ... .. 6 ... ... : ... .. 6 ... ... : ... .. . ... ...
ROW 0A : D#4 00 F ... ... ... : ... .. 9 ... ... ... : C#3 00 . ... : D-# 00 F ... : ... .. . ... ... : ... .. . ... ... : ... .. . ... ... : ... .. . ... ...
ROW 0B : ... .. E ... ... ... : ... .. 8 ... ... ... : ... .. . ... : ... .. C ... : ... .. . ... ... : ... .. 5 ... ... : ... .. 5 ... ... : ... .. . ... ...
ROW 0C : ... .. D ... ... ... : ... .. . ... ... ... : ... .. . ... : ... .. 6 ... : ... .. . ... ... : ... .. . ... ... : ... .. . ... ... : ... .. . ... ...
ROW 0D : ... .. A ... ... ... : C#5 00 4 ... ... ... : ... .. . ... : ... .. 3 ... : ... .. . ... ... : --- .. . ... ... : --- .. . ... ... : ... .. . ... ...
ROW 0E : ... .. 2 ... ... ... : ... .. 3 ... ... ... : ... .. . ... : ... .. 2 ... : ... .. . ... ... : ... .. . ... ... : ... .. . ... ... : ... .. . ... ...
ROW 0F : ... .. . ... ... ... : ... .. . ... ... ... : --- .. . ... : ... .. 0 ... : ... .. . ... ... : ... .. . ... ... : ... .. . ... ... : ... .. . ... ...
ROW 10 : F-4 00 F ... ... ... : ... .. 9 ... ... ... : B-3 00 . ... : 1-# 00 F ... : ... .. . ... ... : G#2 01 A ... ... : F-3 01 A ... ... : ... .. . ... ...
ROW 11 : ... .. E ... ... ... : ... .. 8 ... ... ... : ... .. . ... : ... .. C ... : ... .. . ... ... : ... .. 9 ... ... : ... .. 9 ... ... : ... .. . ... ...
ROW 12 : ... .. D ... ... ... : ... .. . ... ... ... : ... .. . ... : ... .. 6 ... : ... .. . ... ... : ... .. 8 ... ... : ... .. 8 ... ... : ... .. . ... ...
ROW 13 : ... .. A ... ... ... : G#4 00 4 ... ... ... : ... .. . ... : ... .. 3 ... : ... .. . ... ... : ... .. 7 ... ... : ... .. 7 ... ... : ... .. . ... ...
ROW 14 : ... .. . ... ... ... : ... .. 3 ... ... ... : ... .. . ... : ... .. 2 ... : ... .. . ... ... : ... .. . ... ... : ... .. . ... ... : ... .. . ... ...
ROW 15 : ... .. . ... ... ... : ... .. . ... ... ... : --- .. . ... : ... .. 0 ... : ... .. . ... ... : ... .. 6 ... ... : ... .. 6 ... ... : ... .. . ... ...
ROW 16 : ... .. . ... ... ... : ... .. 9 ... ... ... : C#4 00 . ... : D-# 00 F ... : ... .. . ... ... : --- .. . ... ... : --- .. . ... ... : ... .. . ... ...
ROW 17 : ... .. . ... ... ... : ... .. 8 ... ... ... : ... .. . ... : ... .. C ... : ... .. . ... ... : ... .. . ... ... : ... .. . ... ... : ... .. . ... ...
ROW 18 : ... .. . ... ... ... : ... .. . ... ... ... : ... .. . ... : ... .. 6 ... : ... .. . ... ... : ... .. . ... ... : ... .. . ... ... : ... .. . ... ...
ROW 19 : ... .. . ... ... ... : C#5 00 4 ... ... ... : ... .. . ... : ... .. 3 ... : ... .. . ... ... : ... .. . ... ... : ... .. . ... ... : ... .. . ... ...
ROW 1A : ... .. . ... ... ... : ... .. 3 ... ... ... : ... .. . ... : ... .. 2 ... : ... .. . ... ... : ... .. . ... ... : ... .. . ... ... : ... .. . ... ...
ROW 1B : ... .. . ... ... ... : ... .. . ... ... ... : --- .. . ... : ... .. 0 ... : ... .. . ... ... : ... .. . ... ... : ... .. . ... ... : ... .. . ... ...
ROW 1C : ... .. . P83 ... ... : ... .. 9 ... ... ... : C#3 00 . ... : 6-# 00 F ... : ... .. . ... ... : G#2 01 A ... ... : F-3 01 A ... ... : ... .. . ... ...
ROW 1D : ... .. . P84 ... ... : ... .. 8 ... ... ... : ... .. . ... : ... .. C ... : ... .. . ... ... : ... .. 9 ... ... : ... .. 9 ... ... : ... .. . ... ...
ROW 1E : ... .. . P83 ... ... : ... .. . ... ... ... : ... .. . ... : ... .. 6 ... : ... .. . ... ... : ... .. 8 ... ... : ... .. 8 ... ... : ... .. . ... ...
ROW 1F : ... .. . P80 ... ... : G#4 00 4 ... ... ... : ... .. . ... : ... .. 3 ... : ... .. . ... ... : --- .. . ... ... : --- .. . ... ... : ... .. . ... ...
ROW 20 : ... .. . P7D ... ... : ... .. 3 ... ... ... : ... .. . ... : ... .. 2 ... : ... .. . ... ... : ... .. . ... ... : ... .. . ... ... : ... .. . ... ...
ROW 21 : ... .. . P7C ... ... : ... .. . ... ... ... : --- .. . ... : ... .. 0 ... : ... .. . ... ... : ... .. . ... ... : ... .. . ... ... : ... .. . ... ...
ROW 22 : ... .. . P7D ... ... : ... .. 9 ... ... ... : C#3 00 . ... : D-# 00 F ... : ... .. . ... ... : G#2 01 A ... ... : F-3 01 A ... ... : ... .. . ... ...
ROW 23 : ... .. . P80 ... ... : ... .. 8 ... ... ... : ... .. . ... : ... .. C ... : ... .. . ... ... : ... .. 9 ... ... : ... .. 9 ... ... : ... .. 4 ... ...
ROW 24 : ... .. . P83 ... ... : ... .. . ... ... ... : ... .. . ... : ... .. 6 ... : ... .. . ... ... : ... .. 8 ... ... : ... .. 8 ... ... : ... .. . ... ...
ROW 25 : ... .. . P84 ... ... : C#5 00 4 ... ... ... : ... .. . ... : ... .. 3 ... : ... .. . ... ... : --- .. . ... ... : --- .. . ... ... : ... .. 1 ... ...
ROW 26 : ... .. 2 P83 ... ... : ... .. 3 ... ... ... : ... .. . ... : ... .. 2 ... : ... .. . ... ... : ... .. . ... ... : ... .. . ... ... : ... .. . ... ...
ROW 27 : ... .. . P80 ... ... : ... .. . ... ... ... : --- .. . ... : ... .. 0 ... : ... .. . ... ... : ... .. . ... ... : ... .. . ... ... : ... .. . ... ...
ROW 28 : E-4 00 F ... ... ... : B-4 00 9 ... ... ... : A#4 00 . ... : 1-# 00 F ... : ... .. . ... ... : E-3 01 A ... ... : G#3 01 A ... ... : B-0 01 F ... ...
ROW 29 : ... .. E ... ... ... : ... .. 8 ... ... ... : C-4 00 . ... : ... .. C ... : ... .. . ... ... : ... .. 9 ... ... : ... .. 9 ... ... : ... .. D ... ...
ROW 2A : ... .. D ... ... ... : ... .. . ... ... ... : F-3 00 . ... : ... .. 6 ... : ... .. . ... ... : ... .. 8 ... ... : ... .. 8 ... ... : ... .. 8 ... ...
ROW 2B : ... .. A ... ... ... : G#4 00 4 ... ... ... : E-3 00 . ... : ... .. 3 ... : ... .. . ... ... : ... .. 7 ... ... : ... .. 7 ... ... : ... .. . ... ...
ROW 2C : ... .. 2 ... ... ... : ... .. 3 ... ... ... : B-2 00 . ... : ... .. 2 ... : ... .. . ... ... : ... .. . ... ... : ... .. . ... ... : ... .. . ... ...
ROW 2D : ... .. . ... ... ... : ... .. . ... ... ... : ... .. . ... : ... .. 0 ... : ... .. . ... ... : ... .. 6 ... ... : ... .. 6 ... ... : ... .. . ... ...
ROW 2E : D#4 00 F ... ... ... : ... .. 9 ... ... ... : ... .. . ... : ... .. F ... : ... .. . ... ... : --- .. . P82 ... : --- .. . P82 ... : ... .. . ... ...
ROW 2F : ... .. E ... ... ... : ... .. 8 ... ... ... : ... .. . ... : ... .. C ... : ... .. . ... ... : ... .. . ... ... : ... .. . ... ... : ... .. . ... ...
ROW 30 : ... .. D ... ... ... : ... .. . ... ... ... : ... .. . ... : ... .. 6 ... : ... .. . ... ... : ... .. . ... ... : ... .. . ... ... : ... .. . ... ...
ROW 31 : ... .. A ... ... ... : B-4 00 4 ... ... ... : ... .. . ... : ... .. 3 ... : ... .. . ... ... : ... .. . ... ... : ... .. . ... ... : ... .. . ... ...
ROW 32 : ... .. 2 ... ... ... : ... .. 3 ... ... ... : ... .. . ... : ... .. 2 ... : ... .. . ... ... : ... .. . ... ... : ... .. . ... ... : ... .. . ... ...
ROW 33 : ... .. . ... ... ... : ... .. . ... ... ... : ... .. . ... : ... .. 0 ... : ... .. . ... ... : ... .. . ... ... : ... .. . ... ... : ... .. . ... ...
ROW 34 : E-4 00 F ... ... ... : ... .. 9 ... ... ... : ... .. . ... : 6-# 00 F ... : ... .. . ... ... : E-3 01 A P80 ... : G#3 01 A P80 ... : ... .. . ... ...
ROW 35 : ... .. E ... ... ... : ... .. 8 ... ... ... : ... .. . ... : ... .. C ... : ... .. . ... ... : ... .. 9 ... ... : ... .. 9 ... ... : ... .. . ... ...
ROW 36 : ... .. D ... ... ... : ... .. . ... ... ... : ... .. . ... : ... .. 6 ... : ... .. . ... ... : ... .. 8 ... ... : ... .. 8 ... ... : ... .. . ... ...
ROW 37 : ... .. A ... ... ... : G#4 00 4 ... ... ... : ... .. . ... : ... .. 3 ... : ... .. . ... ... : ... .. 7 ... ... : ... .. 7 ... ... : ... .. . ... ...
ROW 38 : ... .. . ... ... ... : ... .. 3 ... ... ... : ... .. . ... : ... .. 2 ... : ... .. . ... ... : ... .. . ... ... : ... .. . ... ... : ... .. . ... ...
ROW 39 : ... .. . ... ... ... : ... .. . ... ... ... : --- .. . ... : ... .. 0 ... : ... .. . ... ... : ... .. 6 ... ... : ... .. 6 ... ... : ... .. . ... ...
ROW 3A : ... .. . ... ... ... : ... .. 9 ... ... ... : G#3 00 . ... : D-# 00 F ... : ... .. . ... ... : --- .. . P82 ... : --- .. . P82 ... : ... .. . ... ...
ROW 3B : ... .. . ... ... ... : ... .. 8 ... ... ... : ... .. . ... : ... .. C ... : ... .. . ... ... : ... .. . ... ... : ... .. . ... ... : ... .. . ... ...
ROW 3C : ... .. . ... ... ... : ... .. . ... ... ... : ... .. . ... : ... .. 6 ... : ... .. . ... ... : ... .. . ... ... : ... .. . ... ... : ... .. . ... ...
ROW 3D : ... .. . ... ... ... : B-4 00 4 ... ... ... : ... .. . ... : ... .. 3 ... : ... .. . ... ... : ... .. . ... ... : ... .. . ... ... : ... .. . ... ...
ROW 3E : ... .. . ... ... ... : ... .. 3 ... ... ... : ... .. . ... : ... .. 2 ... : ... .. . ... ... : ... .. . ... ... : ... .. . ... ... : ... .. . ... ...
ROW 3F : ... .. . ... ... ... : ... .. . ... ... ... : ... .. . ... : ... .. 0 ... : ... .. . ... ... : ... .. . ... ... : ... .. . ... ... : ... .. . ... ...
ROW 40 : ... .. . P83 ... ... : ... .. 9 ... ... ... : ... .. . ... : 1-# 00 F ... : ... .. . ... ... : E-3 01 A P80 ... : G#3 01 A P80 ... : ... .. . ... ...
ROW 41 : ... .. . P84 ... ... : ... .. 8 ... ... ... : ... .. . ... : ... .. C ... : ... .. . ... ... : ... .. 9 ... ... : ... .. 9 ... ... : ... .. . ... ...
ROW 42 : ... .. . P83 ... ... : ... .. . ... ... ... : ... .. . ... : ... .. 6 ... : ... .. . ... ... : ... .. 8 ... ... : ... .. 8 ... ... : ... .. . ... ...
ROW 43 : ... .. . P80 ... ... : G#4 00 4 ... ... ... : ... .. . ... : ... .. 3 ... : ... .. . ... ... : --- .. . P82 ... : --- .. . P82 ... : ... .. . ... ...
ROW 44 : ... .. . P7D ... ... : ... .. 3 ... ... ... : ... .. . ... : ... .. 2 ... : ... .. . ... ... : ... .. . ... ... : ... .. . ... ... : ... .. . ... ...
ROW 45 : ... .. . P7C ... ... : ... .. . ... ... ... : ... .. . ... : ... .. 0 ... : ... .. . ... ... : ... .. . ... ... : ... .. . ... ... : ... .. . ... ...
ROW 46 : ... .. . P7D ... ... : ... .. 9 ... ... ... : ... .. . ... : D-# 00 F ... : ... .. . ... ... : E-3 01 A P80 ... : G#3 01 A P80 ... : ... .. . ... ...
ROW 47 : ... .. . P80 ... ... : ... .. 8 ... ... ... : ... .. . ... : ... .. C ... : ... .. . ... ... : ... .. 9 ... ... : ... .. 9 ... ... : ... .. 4 ... ...
ROW 48 : ... .. . P83 ... ... : ... .. . ... ... ... : ... .. . ... : ... .. 6 ... : ... .. . ... ... : ... .. 8 ... ... : ... .. 8 ... ... : ... .. . ... ...
ROW 49 : ... .. . P84 ... ... : B-4 00 4 ... ... ... : ... .. . ... : ... .. 3 ... : ... .. . ... ... : --- .. . P82 ... : --- .. . P82 ... : ... .. 1 ... ...
ROW 4A : ... .. 2 P83 ... ... : ... .. 3 ... ... ... : ... .. . ... : ... .. 2 ... : ... .. . ... ... : ... .. . ... ... : ... .. . ... ... : ... .. . ... ...
ROW 4B : ... .. . P80 ... ... : ... .. . ... ... ... : --- .. . ... : ... .. 0 ... : ... .. . ... ... : ... .. . ... ... : ... .. . ... ... : ... .. . ... ...
ROW 4C : D#4 00 F ... ... ... : ... .. 9 ... ... ... : D-5 00 . ... : 6-# 00 F ... : ... .. . ... ... : D#3 01 A P80 ... : G#3 01 A P80 ... : B-1 01 F ... ...
ROW 4D : ... .. E ... ... ... : ... .. 8 ... ... ... : E-4 00 . ... : ... .. C ... : ... .. . ... ... : ... .. 9 ... ... : ... .. 9 ... ... : ... .. D ... ...
ROW 4E : ... .. D ... ... ... : ... .. . ... ... ... : A-3 00 . ... : ... .. 6 ... : ... .. . ... ... : ... .. 8 ... ... : ... .. 8 ... ... : ... .. 8 ... ...
ROW 4F : ... .. A ... ... ... : G#4 00 4 ... ... ... : G#3 00 . ... : ... .. 3 ... : ... .. . ... ... : --- .. . P83 ... : --- .. . P82 ... : ... .. . ... ...
ROW 50 : ... .. 2 ... ... ... : ... .. 3 ... ... ... : D#3 00 . ... : ... .. 2 ... : ... .. . ... ... : ... .. . ... ... : ... .. . ... ... : ... .. 4 ... ...
ROW 51 : ... .. . ... ... ... : ... .. . ... ... ... : --- .. . ... : ... .. 0 ... : ... .. . ... ... : ... .. . ... ... : ... .. . ... ... : ... .. . ... ...
ROW 52 : C#4 00 F ... ... ... : F#4 00 9 ... ... ... : C#3 00 . ... : D-# 00 F ... : ... .. . ... ... : D#3 01 A P80 ... : G#3 01 A P80 ... : A#1 01 F ... ...
ROW 53 : ... .. E ... ... ... : ... .. 8 ... ... ... : ... .. . ... : ... .. C ... : ... .. . ... ... : ... .. 9 ... ... : ... .. 9 ... ... : ... .. D ... ...
ROW 54 : ... .. D ... ... ... : ... .. . ... ... ... : ... .. . ... : ... .. 6 ... : ... .. . ... ... : ... .. 8 ... ... : ... .. 8 ... ... : ... .. 8 ... ...
ROW 55 : ... .. A ... ... ... : B-4 00 4 ... ... ... : ... .. . ... : ... .. 3 ... : ... .. . ... ... : --- .. . P83 ... : --- .. . P82 ... : ... .. . ... ...
ROW 56 : ... .. 2 ... ... ... : ... .. 3 ... ... ... : ... .. . ... : ... .. 2 ... : ... .. . ... ... : ... .. . ... ... : ... .. . ... ... : ... .. 4 ... ...
ROW 57 : ... .. . ... ... ... : ... .. . ... ... ... : --- .. . ... : ... .. 0 ... : ... .. . ... ... : ... .. . ... ... : ... .. . ... ... : ... .. . ... ...
ROW 58 : D#4 00 F ... ... ... : D#4 00 9 ... ... ... : B-2 00 . ... : 1-# 00 F ... : ... .. . ... ... : C#3 01 A P80 ... : F#3 01 A P80 ... : G#1 01 F ... ...
ROW 59 : ... .. E ... ... ... : ... .. 8 ... ... ... : ... .. . ... : ... .. C ... : ... .. . ... ... : ... .. 9 ... ... : ... .. 9 ... ... : ... .. D ... ...
ROW 5A : ... .. D ... ... ... : ... .. . ... ... ... : ... .. . ... : ... .. 6 ... : ... .. . ... ... : ... .. 8 ... ... : ... .. 8 ... ... : ... .. 8 ... ...
ROW 5B : ... .. A ... ... ... : F#4 00 4 ... ... ... : ... .. . ... : ... .. 3 ... : ... .. . ... ... : --- .. . P83 ... : --- .. . P7F ... : ... .. . ... ...
ROW 5C : ... .. . ... ... ... : ... .. 3 ... ... ... : ... .. . ... : ... .. 2 ... : ... .. . ... ... : ... .. . ... ... : ... .. . ... ... : ... .. . ... ...
ROW 5D : ... .. . ... ... ... : ... .. . ... ... ... : --- .. . ... : ... .. 0 ... : ... .. . ... ... : ... .. . ... ... : ... .. . ... ... : ... .. . ... ...
ROW 5E : E-4 00 A P7D ... ... : A#4 00 9 ... ... ... : A#2 00 . ... : ... .. F ... : ... .. . ... ... : D#3 01 A P80 ... : G#3 01 A P80 ... : ... .. . ... ...
ROW 5F : ... .. . P7F ... ... : ... .. 8 ... ... ... : ... .. . ... : ... .. C ... : ... .. . ... ... : ... .. 9 ... ... : ... .. 9 ... ... : ... .. . ... ...
ROW 60 : ... .. . P7C ... ... : ... .. . ... ... ... : ... .. . ... : ... .. 6 ... : ... .. . ... ... : ... .. 8 ... ... : ... .. 8 ... ... : ... .. . ... ...
ROW 61 : D#4 00 A P80 ... ... : D#4 00 4 ... ... ... : ... .. . ... : ... .. 3 ... : ... .. . ... ... : ... .. 7 ... ... : ... .. 7 ... ... : ... .. . ... ...
ROW 62 : D-4 00 A P83 ... ... : ... .. 3 ... ... ... : ... .. . ... : ... .. 2 ... : ... .. . ... ... : ... .. . ... ... : ... .. . ... ... : ... .. . ... ...
ROW 63 : ... .. . P81 ... ... : ... .. . ... ... ... : --- .. . ... : ... .. 0 ... : ... .. . ... ... : ... .. 6 ... ... : ... .. 6 ... ... : ... .. . ... ...
ROW 64 : ... .. . P84 ... ... : F#4 00 9 ... ... ... : G#2 00 . ... : 6-# 00 F ... : ... .. . ... ... : ... .. . ... ... : ... .. . ... ... : ... .. . ... ...
ROW 65 : D#4 00 A P80 ... ... : ... .. 8 ... ... ... : ... .. . ... : ... .. C ... : ... .. . ... ... : ... .. 5 ... ... : ... .. 5 ... ... : ... .. . ... ...
ROW 66 : E-4 00 A P7D ... ... : ... .. . ... ... ... : ... .. . ... : ... .. 6 ... : ... .. . ... ... : ... .. . ... ... : ... .. . ... ... : ... .. . ... ...
ROW 67 : ... .. . P7F ... ... : A#4 00 4 ... ... ... : ... .. . ... : ... .. 3 ... : ... .. . ... ... : ... .. . P8A ... : A-3 01 5 P7B ... : ... .. . ... ...
ROW 68 : ... .. . P7C ... ... : ... .. 3 ... ... ... : ... .. . ... : ... .. 2 ... : ... .. . ... ... : E-3 01 5 P7B ... : ... .. . P81 ... : ... .. . ... ...
ROW 69 : D#4 00 A P80 ... ... : ... .. . ... ... ... : --- .. . ... : ... .. 0 ... : ... .. . ... ... : ... .. . P79 ... : ... .. . P7F ... : ... .. . ... ...
ROW 6A : D-4 00 A P83 ... ... : C#4 00 9 ... ... ... : F#2 00 . ... : ... .. F ... : ... .. . ... ... : D#3 01 5 P84 ... : G#3 01 5 P84 ... : ... .. . ... ...
ROW 6B : ... .. 2 P81 ... ... : ... .. 8 ... ... ... : ... .. . ... : ... .. C ... : ... .. . ... ... : ... .. . P7C ... : ... .. . P7C ... : ... .. . ... ...
ROW 6C : ... .. . P84 ... ... : ... .. . ... ... ... : ... .. . ... : ... .. 6 ... : ... .. . ... ... : D-3 01 5 P87 ... : G-3 01 5 P82 ... : ... .. . ... ...
ROW 6D : D#4 00 2 P80 ... ... : F#4 00 4 ... ... ... : ... .. . ... : ... .. 3 ... : ... .. . ... ... : ... .. . P85 ... : ... .. . P80 ... : ... .. . ... ...
ROW 6E : E-4 00 1 P7D ... ... : ... .. 3 ... ... ... : ... .. . ... : ... .. 2 ... : ... .. . ... ... : D#3 01 5 P76 ... : ... .. . P86 ... : ... .. 4 ... ...
ROW 6F : ... .. . P7F ... ... : ... .. . ... ... ... : --- .. . ... : ... .. 0 ... : ... .. . ... ... : ... .. . P80 ... : G#3 01 5 P80 ... : ... .. . ... ...
ROW 70 : G#3 00 F P80 ... ... : B-4 00 9 ... ... ... : G-4 00 . ... : 1-# 00 F ... : ... .. . ... ... : G#3 01 A ... ... : B-3 01 A ... ... : G#0 01 F ... ...
ROW 71 : ... .. E ... ... ... : ... .. 8 ... ... ... : A-3 00 . ... : ... .. C ... : ... .. . ... ... : ... .. 9 ... ... : ... .. 9 ... ... : ... .. D ... ...
ROW 72 : ... .. D ... ... ... : ... .. . ... ... ... : D-3 00 . ... : ... .. 6 ... : ... .. . ... ... : ... .. 8 ... ... : ... .. 8 ... ... : ... .. 8 ... ...
ROW 73 : ... .. A ... ... ... : C#4 00 4 ... ... ... : C#3 00 . ... : ... .. 3 ... : ... .. . ... ... : ... .. 7 ... ... : ... .. 7 ... ... : ... .. . ... ...
ROW 74 : ... .. . ... ... ... : ... .. 3 ... ... ... : G#2 00 . ... : ... .. 2 ... : ... .. . ... ... : ... .. . ... ... : ... .. . ... ... : ... .. . ... ...
ROW 75 : ... .. . ... ... ... : ... .. . ... ... ... : --- .. . ... : ... .. 0 ... : ... .. . ... ... : ... .. 6 ... ... : ... .. 6 ... ... : ... .. . ... ...
ROW 76 : ... .. . ... ... ... : G#4 00 9 ... ... ... : G#2 00 . ... : ... .. F ... : ... .. . ... ... : ... .. . ... ... : ... .. . ... ... : ... .. . ... ...
ROW 77 : ... .. . ... ... ... : ... .. 8 ... ... ... : ... .. . ... : ... .. C ... : ... .. . ... ... : ... .. 5 ... ... : ... .. 5 ... ... : ... .. . ... ...
ROW 78 : ... .. . ... ... ... : ... .. . ... ... ... : ... .. . ... : ... .. 6 ... : ... .. . ... ... : ... .. . ... ... : ... .. . ... ... : ... .. . ... ...
ROW 79 : A-3 00 A P79 ... ... : B-4 00 4 ... ... ... : ... .. . ... : ... .. 3 ... : ... .. . ... ... : --- .. . P82 ... : --- .. . ... ... : ... .. . ... ...
ROW 7A : ... .. . P81 ... ... : ... .. 3 ... ... ... : ... .. . ... : ... .. 2 ... : ... .. . ... ... : ... .. . ... ... : ... .. . ... ... : ... .. . ... ...
ROW 7B : A#3 00 A P7B ... ... : ... .. . ... ... ... : ... .. . ... : ... .. 0 ... : ... .. . ... ... : ... .. . ... ... : ... .. . ... ... : ... .. . ... ...
ROW 7C : ... .. . P83 ... ... : ... .. 9 ... ... ... : ... .. . ... : 6-# 00 F ... : ... .. . ... ... : G#3 01 A P80 ... : B-3 01 A ... ... : ... .. . ... ...
ROW 7D : B-3 00 A P7D ... ... : ... .. 8 ... ... ... : ... .. . ... : ... .. C ... : ... .. . ... ... : ... .. 9 ... ... : ... .. 9 ... ... : ... .. . ... ...
ROW 7E : ... .. . P85 ... ... : ... .. . ... ... ... : ... .. . ... : ... .. 6 ... : ... .. . ... ... : ... .. 8 ... ... : ... .. 8 ... ... : ... .. . ... ...
ROW 7F : C-4 00 A P81 ... ... : G#4 00 4 ... ... ... : ... .. . ... : ... .. 3 ... : ... .. . ... ... : ... .. 7 ... ... : ... .. 7 ... ... : ... .. . ... ...
ROW 80 : C#4 00 2 P7D ... ... : ... .. 3 ... ... ... : ... .. . ... : ... .. 2 ... : ... .. . ... ... : ... .. . ... ... : ... .. . ... ... : ... .. . ... ...
ROW 81 : ... .. . P85 ... ... : ... .. . ... ... ... : --- .. . ... : ... .. 0 ... : ... .. . ... ... : ... .. 6 ... ... : ... .. 6 ... ... : ... .. . ... ...
ROW 82 : F#4 00 F P80 ... ... : ... .. 9 ... ... ... : G#3 00 . ... : 1-# 00 F ... : ... .. . ... ... : ... .. . ... ... : ... .. . ... ... : ... .. . ... ...
ROW 83 : ... .. E ... ... ... : ... .. 8 ... ... ... : ... .. . ... : ... .. C ... : ... .. . ... ... : ... .. 5 ... ... : ... .. 5 ... ... : ... .. . ... ...
ROW 84 : ... .. D ... ... ... : ... .. . ... ... ... : ... .. . ... : ... .. 6 ... : ... .. . ... ... : ... .. . ... ... : ... .. . ... ... : ... .. . ... ...
ROW 85 : ... .. A ... ... ... : B-4 00 4 ... ... ... : ... .. . ... : ... .. 3 ... : ... .. . ... ... : --- .. . P82 ... : --- .. . ... ... : ... .. . ... ...
ROW 86 : ... .. . ... ... ... : ... .. 3 ... ... ... : ... .. . ... : ... .. 2 ... : ... .. . ... ... : ... .. . ... ... : ... .. . ... ... : ... .. . ... ...
ROW 87 : ... .. . ... ... ... : ... .. . ... ... ... : ... .. . ... : ... .. 0 ... : ... .. . ... ... : ... .. . ... ... : ... .. . ... ... : ... .. . ... ...
ROW 88 : ... .. . ... ... ... : ... .. 9 ... ... ... : ... .. . ... : ... .. F ... : ... .. . ... ... : G#3 01 A P80 ... : B-3 01 A ... ... : ... .. . ... ...
ROW 89 : ... .. . ... ... ... : ... .. 8 ... ... ... : ... .. . ... : ... .. C ... : ... .. . ... ... : ... .. 9 ... ... : ... .. 9 ... ... : ... .. . ... ...
ROW 8A : ... .. . ... ... ... : ... .. . ... ... ... : ... .. . ... : ... .. 6 ... : ... .. . ... ... : ... .. 8 ... ... : ... .. 8 ... ... : ... .. . ... ...
ROW 8B : G-4 00 A P7F ... ... : G#4 00 4 ... ... ... : ... .. . ... : ... .. 3 ... : ... .. . ... ... : --- .. . P82 ... : --- .. . ... ... : ... .. . ... ...
ROW 8C : ... .. . P81 ... ... : ... .. 3 ... ... ... : ... .. . ... : ... .. 2 ... : ... .. . ... ... : ... .. . ... ... : ... .. . ... ... : ... .. . ... ...
ROW 8D : ... .. . P7E ... ... : ... .. . ... ... ... : --- .. . ... : ... .. 0 ... : ... .. . ... ... : ... .. . ... ... : ... .. . ... ... : ... .. . ... ...
ROW 8E : F#4 00 A P80 ... ... : ... .. 9 ... ... ... : G#2 00 . ... : ... .. F ... : ... .. . ... ... : G#3 01 A P80 ... : B-3 01 A ... ... : ... .. . ... ...
ROW 8F : F-4 00 A P82 ... ... : ... .. 8 ... ... ... : ... .. . ... : ... .. C ... : ... .. . ... ... : ... .. 9 ... ... : ... .. 9 ... ... : ... .. . ... ...
ROW 90 : ... .. . P80 ... ... : ... .. . ... ... ... : ... .. . ... : ... .. 6 ... : ... .. . ... ... : ... .. 8 ... ... : ... .. 8 ... ... : ... .. . ... ...
ROW 91 : ... .. . P83 ... ... : B-4 00 4 ... ... ... : ... .. . ... : ... .. 3 ... : ... .. . ... ... : --- .. . P82 ... : --- .. . ... ... : ... .. . ... ...
ROW 92 : F#4 00 2 P80 ... ... : ... .. 3 ... ... ... : ... .. . ... : ... .. 2 ... : ... .. . ... ... : ... .. . ... ... : ... .. . ... ... : ... .. 4 ... ...
ROW 93 : G-4 00 2 P7F ... ... : ... .. . ... ... ... : --- .. . ... : ... .. 0 ... : ... .. . ... ... : ... .. . ... ... : ... .. . ... ... : ... .. . ... ...
ROW 94 : F-4 00 F P80 ... ... : C#5 00 9 ... ... ... : C-5 00 . ... : 6-# 00 F ... : ... .. . ... ... : G#3 01 A P80 ... : C#4 01 A ... ... : C#1 01 F ... ...
ROW 95 : ... .. E ... ... ... : ... .. 8 ... ... ... : D-4 00 . ... : ... .. C ... : ... .. . ... ... : ... .. 9 ... ... : ... .. 9 ... ... : ... .. D ... ...
ROW 96 : ... .. D ... ... ... : ... .. . ... ... ... : G-3 00 . ... : ... .. 6 ... : ... .. . ... ... : ... .. 8 ... ... : ... .. 8 ... ... : ... .. 8 ... ...
ROW 97 : ... .. A ... ... ... : G#4 00 4 ... ... ... : F#3 00 . ... : ... .. 3 ... : ... .. . ... ... : ... .. 7 ... ... : ... .. 7 ... ... : ... .. . ... ...
ROW 98 : ... .. 2 ... ... ... : ... .. 3 ... ... ... : C#3 00 . ... : ... .. 2 ... : ... .. . ... ... : ... .. . ... ... : ... .. . ... ... : ... .. . ... ...
ROW 99 : ... .. . ... ... ... : ... .. . ... ... ... : --- .. . ... : ... .. 0 ... : ... .. . ... ... : ... .. 6 ... ... : ... .. 6 ... ... : ... .. . ... ...
ROW 9A : D#4 00 F ... ... ... : ... .. 9 ... ... ... : C#3 00 . ... : 1-# 00 F ... : ... .. . ... ... : ... .. . ... ... : ... .. . ... ... : ... .. . ... ...
ROW 9B : ... .. E ... ... ... : ... .. 8 ... ... ... : ... .. . ... : ... .. C ... : ... .. . ... ... : ... .. 5 ... ... : ... .. 5 ... ... : ... .. . ... ...
ROW 9C : ... .. D ... ... ... : ... .. . ... ... ... : ... .. . ... : ... .. 6 ... : ... .. . ... ... : ... .. . ... ... : ... .. . ... ... : ... .. . ... ...
ROW 9D : ... .. A ... ... ... : C#5 00 4 ... ... ... : ... .. . ... : ... .. 3 ... : ... .. . ... ... : --- .. . P82 ... : --- .. . ... ... : ... .. . ... ...
ROW 9E : ... .. 2 ... ... ... : ... .. 3 ... ... ... : ... .. . ... : ... .. 2 ... : ... .. . ... ... : ... .. . ... ... : ... .. . ... ... : ... .. . ... ...
ROW 9F : ... .. . ... ... ... : ... .. . ... ... ... : --- .. . ... : ... .. 0 ... : ... .. . ... ... : ... .. . ... ... : ... .. . ... ... : ... .. . ... ...
ROW A0 : F-4 00 F ... ... ... : ... .. 9 ... ... ... : B-3 00 . ... : ... .. F ... : ... .. . ... ... : G#3 01 A P80 ... : C#4 01 A ... ... : ... .. . ... ...
ROW A1 : ... .. E ... ... ... : ... .. 8 ... ... ... : ... .. . ... : ... .. C ... : ... .. . ... ... : ... .. 9 ... ... : ... .. 9 ... ... : ... .. . ... ...
ROW A2 : ... .. D ... ... ... : ... .. . ... ... ... : ... .. . ... : ... .. 6 ... : ... .. . ... ... : ... .. 8 ... ... : ... .. 8 ... ... : ... .. . ... ...
ROW A3 : ... .. A ... ... ... : G#4 00 4 ... ... ... : ... .. . ... : ... .. 3 ... : ... .. . ... ... : ... .. 7 ... ... : ... .. 7 ... ... : ... .. . ... ...
ROW A4 : ... .. . ... ... ... : ... .. 3 ... ... ... : ... .. . ... : ... .. 2 ... : ... .. . ... ... : ... .. . ... ... : ... .. . ... ... : ... .. . ... ...
ROW A5 : ... .. . ... ... ... : ... .. . ... ... ... : --- .. . ... : ... .. 0 ... : ... .. . ... ... : ... .. 6 ... ... : ... .. 6 ... ... : ... .. . ... ...
ROW A6 : ... .. . ... ... ... : ... .. 9 ... ... ... : C#4 00 . ... : ... .. F ... : ... .. . ... ... : --- .. . P82 ... : --- .. . ... ... : ... .. . ... ...
ROW A7 : ... .. . ... ... ... : ... .. 8 ... ... ... : ... .. . ... : ... .. C ... : ... .. . ... ... : ... .. . ... ... : ... .. . ... ... : ... .. . ... ...
ROW A8 : ... .. . ... ... ... : ... .. . ... ... ... : ... .. . ... : ... .. 6 ... : ... .. . ... ... : ... .. . ... ... : ... .. . ... ... : ... .. . ... ...
ROW A9 : ... .. . ... ... ... : C#5 00 4 ... ... ... : ... .. . ... : ... .. 3 ... : ... .. . ... ... : ... .. . ... ... : ... .. . ... ... : ... .. . ... ...
ROW AA : ... .. . ... ... ... : ... .. 3 ... ... ... : ... .. . ... : ... .. 2 ... : ... .. . ... ... : ... .. . ... ... : ... .. . ... ... : ... .. 4 ... ...
ROW AB : ... .. . ... ... ... : ... .. . ... ... ... : --- .. . ... : ... .. 0 ... : ... .. . ... ... : ... .. . ... ... : ... .. . ... ... : ... .. . ... ...
ROW AC : ... .. . P83 ... ... : ... .. 9 ... ... ... : F-4 00 . ... : 6-# 00 F ... : ... .. . ... ... : G#3 01 A P80 ... : C#4 01 A ... ... : ... .. F ... ...
ROW AD : ... .. . P84 ... ... : ... .. 8 ... ... ... : ... .. . ... : ... .. C ... : ... .. . ... ... : ... .. 9 ... ... : ... .. 9 ... ... : ... .. D ... ...
ROW AE : ... .. . P83 ... ... : ... .. . ... ... ... : ... .. . ... : ... .. 6 ... : ... .. . ... ... : ... .. 8 ... ... : ... .. 8 ... ... : ... .. 8 ... ...
ROW AF : ... .. . P80 ... ... : G#4 00 4 ... ... ... : ... .. . ... : ... .. 3 ... : ... .. . ... ... : --- .. . P82 ... : --- .. . ... ... : ... .. . ... ...
ROW B0 : ... .. . P7D ... ... : ... .. 3 ... ... ... : ... .. . ... : ... .. 2 ... : ... .. . ... ... : ... .. . ... ... : ... .. . ... ... : ... .. 4 ... ...
ROW B1 : ... .. . P7C ... ... : ... .. . ... ... ... : --- .. . ... : ... .. 0 ... : ... .. . ... ... : ... .. . ... ... : ... .. . ... ... : ... .. . ... ...
ROW B2 : ... .. . P7D ... ... : ... .. 9 ... ... ... : F#4 00 . ... : 1-# 00 F ... : ... .. . ... ... : G#3 01 A P80 ... : C#4 01 A ... ... : D#1 01 F ... ...
ROW B3 : ... .. . P80 ... ... : ... .. 8 ... ... ... : ... .. . ... : ... .. C ... : ... .. . ... ... : ... .. 9 ... ... : ... .. 9 ... ... : ... .. D ... ...
ROW B4 : ... .. . P83 ... ... : ... .. . ... ... ... : ... .. . ... : ... .. 6 ... : ... .. . ... ... : ... .. 8 ... ... : ... .. 8 ... ... : ... .. 8 ... ...
ROW B5 : ... .. . P84 ... ... : C#5 00 4 ... ... ... : ... .. . ... : ... .. 3 ... : ... .. . ... ... : --- .. . P82 ... : --- .. . ... ... : ... .. . ... ...
ROW B6 : ... .. 2 P83 ... ... : ... .. 3 ... ... ... : ... .. . ... : ... .. 2 ... : ... .. . ... ... : ... .. . ... ... : ... .. . ... ... : ... .. 4 ... ...
ROW B7 : ... .. . P80 ... ... : ... .. . ... ... ... : --- .. . ... : ... .. 0 ... : ... .. . ... ... : ... .. . ... ... : ... .. . ... ... : ... .. . ... ...
ROW B8 : E-4 00 F ... ... ... : B-4 00 9 ... ... ... : G-6 00 . ... : 6-# 00 F ... : ... .. . ... ... : G#3 01 A P80 ... : E-4 01 A ... ... : E-1 01 F ... ...
ROW B9 : ... .. E ... ... ... : ... .. 8 ... ... ... : A-5 00 . ... : ... .. C ... : ... .. . ... ... : ... .. 9 ... ... : ... .. 9 ... ... : ... .. D ... ...
ROW BA : ... .. D ... ... ... : ... .. . ... ... ... : D-5 00 . ... : ... .. 6 ... : ... .. . ... ... : ... .. 8 ... ... : ... .. 8 ... ... : ... .. 8 ... ...
ROW BB : ... .. A ... ... ... : G#4 00 4 ... ... ... : C#5 00 . ... : ... .. 3 ... : ... .. . ... ... : --- .. . P82 ... : --- .. . ... ... : ... .. . ... ...
ROW BC : ... .. . ... ... ... : ... .. 3 ... ... ... : G#4 00 . ... : ... .. 2 ... : ... .. . ... ... : ... .. . ... ... : ... .. . ... ... : ... .. . ... ...
ROW BD : ... .. . ... ... ... : ... .. . ... ... ... : ... .. . ... : ... .. 0 ... : ... .. . ... ... : ... .. . ... ... : ... .. . ... ... : ... .. . ... ...
ROW BE : ... .. . ... ... ... : E-4 00 9 ... ... ... : ... .. . ... : 1-# 00 F ... : ... .. . ... ... : G#3 01 A P80 ... : E-4 01 A ... ... : ... .. . ... ...
ROW BF : ... .. . ... ... ... : ... .. 8 ... ... ... : ... .. . ... : ... .. C ... : ... .. . ... ... : ... .. 9 ... ... : ... .. 9 ... ... : ... .. . ... ...
ROW C0 : ... .. . ... ... ... : ... .. . ... ... ... : ... .. . ... : ... .. 6 ... : ... .. . ... ... : ... .. 8 ... ... : ... .. 8 ... ... : ... .. . ... ...
ROW C1 : ... .. . ... ... ... : B-4 00 4 ... ... ... : ... .. . ... : ... .. 3 ... : ... .. . ... ... : --- .. . P82 ... : --- .. . ... ... : ... .. . ... ...
ROW C2 : ... .. . ... ... ... : ... .. 3 ... ... ... : ... .. . ... : ... .. 2 ... : ... .. . ... ... : ... .. . ... ... : ... .. . ... ... : ... .. . ... ...
ROW C3 : ... .. . ... ... ... : ... .. . ... ... ... : ... .. . ... : ... .. 0 ... : ... .. . ... ... : ... .. . ... ... : ... .. . ... ... : ... .. . ... ...
ROW C4 : ... .. . ... ... ... : G#3 00 9 ... ... ... : ... .. . ... : ... .. F ... : ... .. . ... ... : G#3 01 A P80 ... : E-4 01 A ... ... : ... .. . ... ...
ROW C5 : ... .. . ... ... ... : ... .. 8 ... ... ... : ... .. . ... : ... .. C ... : ... .. . ... ... : ... .. 9 ... ... : ... .. 9 ... ... : ... .. . ... ...
ROW C6 : ... .. . ... ... ... : ... .. . ... ... ... : ... .. . ... : ... .. 6 ... : ... .. . ... ... : ... .. 8 ... ... : ... .. 8 ... ... : ... .. . ... ...
ROW C7 : ... .. . ... ... ... : ... .. 7 ... ... ... : ... .. . ... : ... .. 3 ... : ... .. . ... ... : --- .. . P82 ... : --- .. . ... ... : ... .. . ... ...
ROW C8 : ... .. 2 ... ... ... : ... .. 5 ... ... ... : ... .. . ... : ... .. 2 ... : ... .. . ... ... : ... .. . ... ... : ... .. . ... ... : ... .. 4 ... ...
ROW C9 : ... .. . ... ... ... : ... .. . ... ... ... : --- .. . ... : ... .. 0 ... : ... .. . ... ... : ... .. . ... ... : ... .. . ... ... : ... .. . ... ...
ROW CA : F#4 00 F ... ... ... : C#5 00 9 ... ... ... : A-6 00 . ... : A-# 00 F ... : ... .. . ... ... : F#3 01 A P80 ... : C#4 01 A ... ... : F#1 01 F ... ...
ROW CB : ... .. E ... ... ... : ... .. 8 ... ... ... : B-5 00 . ... : ... .. C ... : ... .. . ... ... : ... .. 9 ... ... : ... .. 9 ... ... : ... .. D ... ...
ROW CC : ... .. D ... ... ... : ... .. . ... ... ... : E-5 00 . ... : ... .. 6 ... : ... .. . ... ... : ... .. 8 ... ... : ... .. 8 ... ... : ... .. 8 ... ...
ROW CD : ... .. A ... ... ... : ... .. 7 ... ... ... : D#5 00 . ... : ... .. 3 ... : ... .. . ... ... : ... .. 7 ... ... : ... .. 7 ... ... : ... .. . ... ...
ROW CE : ... .. . ... ... ... : ... .. 5 ... ... ... : A#4 00 . ... : ... .. 2 ... : ... .. . ... ... : ... .. . ... ... : ... .. . ... ... : ... .. . ... ...
ROW CF : ... .. . ... ... ... : ... .. . ... ... ... : ... .. . ... : ... .. 0 ... : ... .. . ... ... : ... .. 6 ... ... : ... .. 6 ... ... : ... .. . ... ...
ROW D0 : ... .. . ... ... ... : F#4 00 9 ... ... ... : ... .. . ... : 1-# 00 F ... : ... .. . ... ... : ... .. . ... ... : ... .. . ... ... : ... .. . ... ...
ROW D1 : ... .. . ... ... ... : ... .. 8 ... ... ... : ... .. . ... : ... .. C ... : ... .. . ... ... : ... .. 5 ... ... : ... .. 5 ... ... : ... .. . ... ...
ROW D2 : ... .. . ... ... ... : ... .. . ... ... ... : ... .. . ... : ... .. 6 ... : ... .. . ... ... : ... .. . ... ... : ... .. . ... ... : ... .. . ... ...
ROW D3 : ... .. . ... ... ... : ... .. 7 ... ... ... : ... .. . ... : ... .. 3 ... : ... .. . ... ... : ... .. . ... ... : ... .. . ... ... : ... .. . ... ...
ROW D4 : ... .. . ... ... ... : ... .. 5 ... ... ... : ... .. . ... : ... .. 2 ... : ... .. . ... ... : ... .. . ... ... : ... .. . ... ... : ... .. . ... ...
ROW D5 : ... .. . ... ... ... : ... .. . ... ... ... : ... .. . ... : ... .. 0 ... : ... .. . ... ... : ... .. . ... ... : ... .. . ... ... : ... .. . ... ...
ROW D6 : ... .. . ... ... ... : A#3 00 9 ... ... ... : ... .. . ... : ... .. F ... : ... .. . ... ... : ... .. . ... ... : ... .. . ... ... : ... .. . ... ...
ROW D7 : ... .. . ... ... ... : ... .. 8 ... ... ... : ... .. . ... : ... .. C ... : ... .. . ... ... : ... .. . ... ... : ... .. . ... ... : ... .. . ... ...
ROW D8 : ... .. . ... ... ... : ... .. . ... ... ... : ... .. . ... : ... .. 6 ... : ... .. . ... ... : ... .. . ... ... : ... .. . ... ... : ... .. . ... ...
ROW D9 : ... .. . ... ... ... : ... .. 7 ... ... ... : ... .. . ... : ... .. 3 ... : ... .. . ... ... : ... .. . ... ... : ... .. . ... ... : ... .. . ... ...
ROW DA : ... .. 2 ... ... ... : ... .. 5 ... ... ... : ... .. . ... : ... .. 2 ... : ... .. . ... ... : ... .. . ... ... : ... .. . ... ... : ... .. 4 ... ...
ROW DB : ... .. . ... ... ... : ... .. . ... ... ... : --- .. . ... : ... .. 0 ... : ... .. . ... ... : ... .. . ... ... : ... .. . ... ... : ... .. . ... ...
ROW DC : D#4 00 F ... ... ... : D#6 00 9 ... ... ... : A#6 00 . ... : 6-# 00 F ... : ... .. . ... ... : D#3 01 A ... ... : B-3 01 A ... ... : B-0 01 F ... ...
ROW DD : ... .. E ... ... ... : ... .. 8 ... ... ... : C-6 00 . ... : ... .. C ... : ... .. . ... ... : ... .. 9 ... ... : ... .. 9 ... ... : ... .. D ... ...
ROW DE : ... .. D ... ... ... : ... .. . ... ... ... : F-5 00 . ... : ... .. 6 ... : ... .. . ... ... : ... .. 8 ... ... : ... .. 8 ... ... : ... .. 8 ... ...
ROW DF : ... .. A ... ... ... : B-5 00 9 ... ... ... : E-5 00 . ... : ... .. 3 ... : ... .. . ... ... : --- .. . P83 ... : --- .. . ... ... : ... .. . ... ...
ROW E0 : ... .. . ... ... ... : ... .. 8 ... ... ... : B-4 00 . ... : ... .. 2 ... : ... .. . ... ... : ... .. . ... ... : ... .. . ... ... : ... .. . ... ...
ROW E1 : ... .. . ... ... ... : ... .. . ... ... ... : --- .. . ... : ... .. 0 ... : ... .. . ... ... : ... .. . ... ... : ... .. . ... ... : ... .. . ... ...
ROW E2 : ... .. . ... ... ... : F#5 00 9 ... ... ... : F#4 00 . ... : ... .. F ... : ... .. . ... ... : D#3 01 A P80 ... : C#4 01 A ... ... : ... .. . ... ...
ROW E3 : ... .. . ... ... ... : ... .. 8 ... ... ... : ... .. . ... : ... .. C ... : ... .. . ... ... : ... .. 9 ... ... : ... .. 9 ... ... : ... .. . ... ...
ROW E4 : ... .. . ... ... ... : ... .. . ... ... ... : ... .. . ... : ... .. 6 ... : ... .. . ... ... : ... .. 8 ... ... : ... .. 8 ... ... : ... .. . ... ...
ROW E5 : ... .. . ... ... ... : D#5 00 9 ... ... ... : ... .. . ... : ... .. 3 ... : ... .. . ... ... : --- .. . P83 ... : --- .. . ... ... : ... .. . ... ...
ROW E6 : ... .. . ... ... ... : ... .. 8 ... ... ... : ... .. . ... : ... .. 2 ... : ... .. . ... ... : ... .. . ... ... : ... .. . ... ... : ... .. . ... ...
ROW E7 : ... .. . ... ... ... : ... .. . ... ... ... : --- .. . ... : ... .. 0 ... : ... .. . ... ... : ... .. . ... ... : ... .. . ... ... : ... .. . ... ...
ROW E8 : ... .. . ... ... ... : B-4 00 9 ... ... ... : D#4 00 . ... : 5-# 00 F ... : ... .. . ... ... : D#3 01 A P80 ... : B-3 01 A ... ... : ... .. . ... ...
ROW E9 : ... .. . ... ... ... : ... .. 8 ... ... ... : ... .. . ... : ... .. C ... : ... .. . ... ... : ... .. 9 ... ... : ... .. 9 ... ... : ... .. . ... ...
ROW EA : ... .. . ... ... ... : ... .. . ... ... ... : ... .. . ... : ... .. 6 ... : ... .. . ... ... : ... .. 8 ... ... : ... .. 8 ... ... : ... .. . ... ...
ROW EB : ... .. . ... ... ... : F#4 00 9 ... ... ... : ... .. . ... : ... .. 3 ... : ... .. . ... ... : --- .. . P83 ... : --- .. . ... ... : ... .. . ... ...
ROW EC : ... .. 2 ... ... ... : ... .. 8 ... ... ... : ... .. . ... : ... .. 2 ... : ... .. . ... ... : ... .. . ... ... : ... .. . ... ... : ... .. 4 ... ...
ROW ED : ... .. . ... ... ... : ... .. . ... ... ... : --- .. . ... : ... .. 0 ... : ... .. . ... ... : ... .. . ... ... : ... .. . ... ... : ... .. . ... ...
ROW EE : C#4 00 F ... ... ... : C#6 00 9 ... ... ... : G#6 00 . ... : ... .. F ... : ... .. . ... ... : C#3 01 A P80 ... : A-3 01 A ... ... : F#1 01 F ... ...
ROW EF : ... .. E ... ... ... : ... .. 8 ... ... ... : A#5 00 . ... : ... .. C ... : ... .. . ... ... : ... .. 9 ... ... : ... .. 9 ... ... : ... .. D ... ...
ROW F0 : ... .. D ... ... ... : ... .. . ... ... ... : D#5 00 . ... : ... .. 6 ... : ... .. . ... ... : ... .. 8 ... ... : ... .. 8 ... ... : ... .. 8 ... ...
ROW F1 : ... .. A ... ... ... : A-5 00 9 ... ... ... : D-5 00 . ... : ... .. 3 ... : ... .. . ... ... : ... .. 7 ... ... : ... .. 7 ... ... : ... .. . ... ...
ROW F2 : ... .. . ... ... ... : ... .. 8 ... ... ... : A-4 00 . ... : ... .. 2 ... : ... .. . ... ... : ... .. . ... ... : ... .. . ... ... : ... .. 4 ... ...
ROW F3 : ... .. . ... ... ... : ... .. . ... ... ... : --- .. . ... : ... .. 0 ... : ... .. . ... ... : ... .. 6 ... ... : ... .. 6 ... ... : ... .. . ... ...
ROW F4 : ... .. . ... ... ... : F#5 00 9 ... ... ... : F#4 00 . ... : 3-# 00 F ... : ... .. . ... ... : ... .. . ... ... : ... .. . ... ... : G#1 01 F ... ...
ROW F5 : ... .. . ... ... ... : ... .. 8 ... ... ... : ... .. . ... : ... .. C ... : ... .. . ... ... : ... .. 5 ... ... : ... .. 5 ... ... : ... .. D ... ...
ROW F6 : ... .. . ... ... ... : ... .. . ... ... ... : ... .. . ... : ... .. 6 ... : ... .. . ... ... : ... .. . ... ... : ... .. . ... ... : ... .. 8 ... ...
ROW F7 : ... .. . ... ... ... : C#5 00 9 ... ... ... : ... .. . ... : ... .. 3 ... : ... .. . ... ... : ... .. . ... ... : ... .. . ... ... : ... .. . ... ...
ROW F8 : ... .. . ... ... ... : ... .. 8 ... ... ... : ... .. . ... : ... .. 2 ... : ... .. . ... ... : ... .. . ... ... : ... .. . ... ... : ... .. 4 ... ...
ROW F9 : ... .. . ... ... ... : ... .. . ... ... ... : --- .. . ... : ... .. 0 ... : ... .. . ... ... : ... .. . ... ... : ... .. . ... ... : ... .. . ... ...
ROW FA : ... .. . ... ... ... : A-4 00 9 ... ... ... : C#4 00 . ... : ... .. F ... : ... .. . ... ... : ... .. . ... ... : ... .. . ... ... : A-1 01 F ... ...
ROW FB : ... .. . ... ... ... : ... .. 8 ... ... ... : ... .. . ... : ... .. C ... : ... .. . ... ... : ... .. . ... ... : ... .. . ... ... : ... .. D ... ...
ROW FC : ... .. . ... ... ... : ... .. . ... ... ... : ... .. . ... : ... .. 6 ... : ... .. . ... ... : ... .. . ... ... : ... .. . ... ... : ... .. 8 ... ...
ROW FD : ... .. . ... ... ... : F#4 00 9 ... ... ... : ... .. . ... : ... .. 3 ... : ... .. . ... ... : ... .. . ... ... : ... .. . ... ... : ... .. . ... ...
ROW FE : ... .. 2 ... ... ... : ... .. 8 ... ... ... : ... .. . ... : ... .. 2 ... : ... .. . ... ... : ... .. . ... ... : ... .. . ... ... : ... .. 4 ... ...
ROW FF : ... .. . ... ... ... : ... .. . ... ... ... : --- .. . ... : ... .. 0 ... : ... .. . ... ... : ... .. . ... ... : ... .. . ... ... : ... .. . ... ...

PATTERN 12
ROW 00 : D#4 00 F ... ... ... : B-4 00 8 ... ... ... : G-4 00 . ... : 1-# 00 F ... : ... .. . ... ... : G#2 01 A ... ... : D#3 01 A ... ... : G#1 01 F ... ...
ROW 01 : ... .. E ... ... ... : ... .. 7 ... ... ... : A-3 00 . ... : ... .. C ... : ... .. . ... ... : ... .. 9 ... ... : ... .. 9 ... ... : ... .. D ... ...
ROW 02 : ... .. D ... ... ... : ... .. . ... ... ... : D-3 00 . ... : ... .. 6 ... : ... .. . ... ... : ... .. 8 ... ... : ... .. 8 ... ... : ... .. 8 ... ...
ROW 03 : ... .. A ... ... ... : ... .. 6 ... ... ... : C#3 00 . ... : ... .. 3 ... : ... .. . ... ... : ... .. 7 ... ... : ... .. 7 ... ... : ... .. . ... ...
ROW 04 : ... .. . ... ... ... : ... .. 5 ... ... ... : G#2 00 . ... : ... .. 2 ... : ... .. . ... ... : ... .. . ... ... : ... .. . ... ... : ... .. . ... ...
ROW 05 : ... .. . ... ... ... : ... .. 4 ... ... ... : --- .. . ... : ... .. 0 ... : ... .. . ... ... : ... .. 6 ... ... : ... .. 6 ... ... : ... .. . ... ...
ROW 06 : ... .. . ... ... ... : G#4 00 9 ... ... ... : G#2 00 . ... : D-# 00 F ... : ... .. . ... ... : ... .. . ... ... : ... .. . ... ... : ... .. . ... ...
ROW 07 : ... .. . ... ... ... : ... .. 8 ... ... ... : ... .. . ... : ... .. C ... : ... .. . ... ... : ... .. 5 ... ... : ... .. 5 ... ... : ... .. . ... ...
ROW 08 : ... .. . ... ... ... : ... .. . ... ... ... : ... .. . ... : ... .. 6 ... : ... .. . ... ... : ... .. . ... ... : ... .. . ... ... : ... .. . ... ...
ROW 09 : ... .. . ... ... ... : B-4 00 5 ... ... ... : ... .. . ... : ... .. 3 ... : ... .. . ... ... : --- .. . ... ... : --- .. . P83 ... : ... .. . ... ...
ROW 0A : ... .. . ... ... ... : ... .. 4 ... ... ... : ... .. . ... : ... .. 2 ... : ... .. . ... ... : ... .. . ... ... : ... .. . ... ... : ... .. . ... ...
ROW 0B : ... .. . ... ... ... : ... .. . ... ... ... : --- .. . ... : ... .. 0 ... : ... .. . ... ... : ... .. . ... ... : ... .. . ... ... : ... .. . ... ...
ROW 0C : ... .. . ... ... ... : ... .. 9 ... ... ... : F#3 00 . ... : 6-# 00 F ... : ... .. . ... ... : G#2 01 A ... ... : D#3 01 A P80 ... : ... .. . ... ...
ROW 0D : ... .. . ... ... ... : ... .. 8 ... ... ... : ... .. . ... : ... .. C ... : ... .. . ... ... : ... .. 9 ... ... : ... .. 9 ... ... : ... .. . ... ...
ROW 0E : ... .. . ... ... ... : ... .. . ... ... ... : ... .. . ... : ... .. 6 ... : ... .. . ... ... : ... .. 8 ... ... : ... .. 8 ... ... : ... .. . ... ...
ROW 0F : ... .. . ... ... ... : G#4 00 5 ... ... ... : ... .. . ... : ... .. 3 ... : ... .. . ... ... : ... .. 7 ... ... : ... .. 7 ... ... : ... .. . ... ...
ROW 10 : ... .. 2 ... ... ... : ... .. 4 ... ... ... : ... .. . ... : ... .. 2 ... : ... .. . ... ... : ... .. . ... ... : ... .. . ... ... : ... .. . ... ...
ROW 11 : ... .. . ... ... ... : ... .. . ... ... ... : --- .. . ... : ... .. 0 ... : ... .. . ... ... : ... .. 6 ... ... : ... .. 6 ... ... : ... .. . ... ...
ROW 12 : F#4 00 F ... ... ... : ... .. 9 ... ... ... : G#2 00 . ... : D-# 00 F ... : ... .. . ... ... : ... .. . ... ... : ... .. . ... ... : ... .. F ... ...
ROW 13 : ... .. E ... ... ... : ... .. 8 ... ... ... : ... .. . ... : ... .. C ... : ... .. . ... ... : ... .. 5 ... ... : ... .. 5 ... ... : ... .. D ... ...
ROW 14 : ... .. D ... ... ... : ... .. . ... ... ... : ... .. . ... : ... .. 6 ... : ... .. . ... ... : ... .. . ... ... : ... .. . ... ... : ... .. 8 ... ...
ROW 15 : ... .. A ... ... ... : B-4 00 5 ... ... ... : ... .. . ... : ... .. 3 ... : ... .. . ... ... : --- .. . ... ... : --- .. . P83 ... : ... .. . ... ...
ROW 16 : ... .. . ... ... ... : ... .. 4 ... ... ... : ... .. . ... : ... .. 2 ... : ... .. . ... ... : ... .. . ... ... : ... .. . ... ... : ... .. 4 ... ...
ROW 17 : ... .. . ... ... ... : ... .. . ... ... ... : --- .. . ... : ... .. 0 ... : ... .. . ... ... : ... .. . ... ... : ... .. . ... ... : ... .. . ... ...
ROW 18 : ... .. . ... ... ... : ... .. 9 ... ... ... : F#3 00 . ... : 1-# 00 F ... : ... .. . ... ... : G#2 01 A ... ... : D#3 01 A P80 ... : A#1 01 F ... ...
ROW 19 : ... .. . ... ... ... : ... .. 8 ... ... ... : ... .. . ... : ... .. C ... : ... .. . ... ... : ... .. 9 ... ... : ... .. 9 ... ... : ... .. D ... ...
ROW 1A : ... .. . ... ... ... : ... .. . ... ... ... : ... .. . ... : ... .. 6 ... : ... .. . ... ... : ... .. 8 ... ... : ... .. 8 ... ... : ... .. 8 ... ...
ROW 1B : G-4 00 A P7F ... ... : G#4 00 5 ... ... ... : ... .. . ... : ... .. 3 ... : ... .. . ... ... : --- .. . ... ... : --- .. . P83 ... : ... .. . ... ...
ROW 1C : ... .. . P81 ... ... : ... .. 4 ... ... ... : ... .. . ... : ... .. 2 ... : ... .. . ... ... : ... .. . ... ... : ... .. . ... ... : ... .. 4 ... ...
ROW 1D : ... .. . P7E ... ... : ... .. . ... ... ... : --- .. . ... : ... .. 0 ... : ... .. . ... ... : ... .. . ... ... : ... .. . ... ... : ... .. . ... ...
ROW 1E : F#4 00 A P80 ... ... : ... .. 9 ... ... ... : G#3 00 . ... : ... .. F ... : ... .. . ... ... : G#2 01 A ... ... : D#3 01 A P80 ... : B-1 01 F ... ...
ROW 1F : F-4 00 A P82 ... ... : ... .. 8 ... ... ... : ... .. . ... : ... .. C ... : ... .. . ... ... : ... .. 9 ... ... : ... .. 9 ... ... : ... .. D ... ...
ROW 20 : ... .. . P80 ... ... : ... .. . ... ... ... : ... .. . ... : ... .. 6 ... : ... .. . ... ... : ... .. 8 ... ... : ... .. 8 ... ... : ... .. 8 ... ...
ROW 21 : ... .. . P83 ... ... : B-4 00 5 ... ... ... : ... .. . ... : ... .. 3 ... : ... .. . ... ... : --- .. . ... ... : --- .. . P83 ... : ... .. . ... ...
ROW 22 : F#4 00 A P80 ... ... : ... .. 4 ... ... ... : ... .. . ... : ... .. 2 ... : ... .. . ... ... : ... .. . ... ... : ... .. . ... ... : ... .. 4 ... ...
ROW 23 : G-4 00 A P7F ... ... : ... .. . ... ... ... : --- .. . ... : ... .. 0 ... : ... .. . ... ... : ... .. . ... ... : ... .. . ... ... : ... .. . ... ...
ROW 24 : F-4 00 F P80 ... ... : C#5 00 9 ... ... ... : C-5 00 . ... : 6-# 00 F ... : ... .. . ... ... : G#2 01 A ... ... : F-3 01 A P80 ... : C#2 01 F ... ...
ROW 25 : ... .. E ... ... ... : ... .. 8 ... ... ... : D-4 00 . ... : ... .. C ... : ... .. . ... ... : ... .. 9 ... ... : ... .. 9 ... ... : ... .. D ... ...
ROW 26 : ... .. D ... ... ... : ... .. . ... ... ... : G-3 00 . ... : ... .. 6 ... : ... .. . ... ... : ... .. 8 ... ... : ... .. 8 ... ... : ... .. 8 ... ...
ROW 27 : ... .. A ... ... ... : G#4 00 5 ... ... ... : F#3 00 . ... : ... .. 3 ... : ... .. . ... ... : ... .. 7 ... ... : ... .. 7 ... ... : ... .. . ... ...
ROW 28 : ... .. 2 ... ... ... : ... .. 4 ... ... ... : C#3 00 . ... : ... .. 2 ... : ... .. . ... ... : ... .. . ... ... : ... .. . ... ... : ... .. . ... ...
ROW 29 : ... .. . ... ... ... : ... .. . ... ... ... : --- .. . ... : ... .. 0 ... : ... .. . ... ... : ... .. 6 ... ... : ... .. 6 ... ... : ... .. . ... ...
ROW 2A : D#4 00 F ... ... ... : ... .. 9 ... ... ... : C#3 00 . ... : D-# 00 F ... : ... .. . ... ... : ... .. . ... ... : ... .. . ... ... : ... .. . ... ...
ROW 2B : ... .. E ... ... ... : ... .. 8 ... ... ... : ... .. . ... : ... .. C ... : ... .. . ... ... : ... .. 5 ... ... : ... .. 5 ... ... : ... .. . ... ...
ROW 2C : ... .. D ... ... ... : ... .. . ... ... ... : ... .. . ... : ... .. 6 ... : ... .. . ... ... : ... .. . ... ... : ... .. . ... ... : ... .. . ... ...
ROW 2D : ... .. A ... ... ... : C#5 00 5 ... ... ... : ... .. . ... : ... .. 3 ... : ... .. . ... ... : --- .. . ... ... : --- .. . ... ... : ... .. . ... ...
ROW 2E : ... .. 2 ... ... ... : ... .. 4 ... ... ... : ... .. . ... : ... .. 2 ... : ... .. . ... ... : ... .. . ... ... : ... .. . ... ... : ... .. . ... ...
ROW 2F : ... .. . ... ... ... : ... .. . ... ... ... : --- .. . ... : ... .. 0 ... : ... .. . ... ... : ... .. . ... ... : ... .. . ... ... : ... .. . ... ...
ROW 30 : C#4 00 F ... ... ... : ... .. 9 ... ... ... : B-3 00 . ... : 1-# 00 F ... : ... .. . ... ... : G#2 01 A ... ... : F-3 01 A ... ... : ... .. . ... ...
ROW 31 : ... .. E ... ... ... : ... .. 8 ... ... ... : ... .. . ... : ... .. C ... : ... .. . ... ... : ... .. 9 ... ... : ... .. 9 ... ... : ... .. . ... ...
ROW 32 : ... .. D ... ... ... : ... .. . ... ... ... : ... .. . ... : ... .. 6 ... : ... .. . ... ... : ... .. 8 ... ... : ... .. 8 ... ... : ... .. . ... ...
ROW 33 : ... .. A ... ... ... : G#4 00 5 ... ... ... : ... .. . ... : ... .. 3 ... : ... .. . ... ... : ... .. 7 ... ... : ... .. 7 ... ... : ... .. . ... ...
ROW 34 : ... .. . ... ... ... : ... .. 4 ... ... ... : ... .. . ... : ... .. 2 ... : ... .. . ... ... : ... .. . ... ... : ... .. . ... ... : ... .. 4 ... ...
ROW 35 : ... .. . ... ... ... : ... .. . ... ... ... : --- .. . ... : ... .. 0 ... : ... .. . ... ... : ... .. 6 ... ... : ... .. 6 ... ... : ... .. . ... ...
ROW 36 : ... .. . ... ... ... : ... .. 9 ... ... ... : C#4 00 . ... : D-# 00 F ... : ... .. . ... ... : --- .. . ... ... : --- .. . ... ... : C#1 01 F ... ...
ROW 37 : ... .. . ... ... ... : ... .. 8 ... ... ... : ... .. . ... : ... .. C ... : ... .. . ... ... : ... .. . ... ... : ... .. . ... ... : ... .. D ... ...
ROW 38 : ... .. . ... ... ... : ... .. . ... ... ... : ... .. . ... : ... .. 6 ... : ... .. . ... ... : ... .. . ... ... : ... .. . ... ... : ... .. 8 ... ...
ROW 39 : ... .. . ... ... ... : C#5 00 5 ... ... ... : ... .. . ... : ... .. 3 ... : ... .. . ... ... : ... .. . ... ... : ... .. . ... ... : ... .. . ... ...
ROW 3A : ... .. . ... ... ... : ... .. 4 ... ... ... : ... .. . ... : ... .. 2 ... : ... .. . ... ... : ... .. . ... ... : ... .. . ... ... : ... .. . ... ...
ROW 3B : ... .. . ... ... ... : ... .. . ... ... ... : --- .. . ... : ... .. 0 ... : ... .. . ... ... : ... .. . ... ... : ... .. . ... ... : ... .. . ... ...
ROW 3C : ... .. . P83 ... ... : ... .. 9 ... ... ... : C#3 00 . ... : 6-# 00 F ... : ... .. . ... ... : G#2 01 A ... ... : F-3 01 A ... ... : ... .. . ... ...
ROW 3D : ... .. . P84 ... ... : ... .. 8 ... ... ... : ... .. . ... : ... .. C ... : ... .. . ... ... : ... .. 9 ... ... : ... .. 9 ... ... : ... .. . ... ...
ROW 3E : ... .. . P83 ... ... : ... .. . ... ... ... : ... .. . ... : ... .. 6 ... : ... .. . ... ... : ... .. 8 ... ... : ... .. 8 ... ... : ... .. . ... ...
ROW 3F : ... .. . P80 ... ... : G#4 00 5 ... ... ... : ... .. . ... : ... .. 3 ... : ... .. . ... ... : --- .. . ... ... : --- .. . ... ... : ... .. . ... ...
ROW 40 : ... .. . P7D ... ... : ... .. 4 ... ... ... : ... .. . ... : ... .. 2 ... : ... .. . ... ... : ... .. . ... ... : ... .. . ... ... : ... .. . ... ...
ROW 41 : ... .. . P7C ... ... : ... .. . ... ... ... : --- .. . ... : ... .. 0 ... : ... .. . ... ... : ... .. . ... ... : ... .. . ... ... : ... .. . ... ...
ROW 42 : ... .. . P7D ... ... : ... .. 9 ... ... ... : C#3 00 . ... : D-# 00 F ... : ... .. . ... ... : G#2 01 A ... ... : F-3 01 A ... ... : ... .. . ... ...
ROW 43 : ... .. . P80 ... ... : ... .. 8 ... ... ... : ... .. . ... : ... .. C ... : ... .. . ... ... : ... .. 9 ... ... : ... .. 9 ... ... : ... .. . ... ...
ROW 44 : ... .. . P83 ... ... : ... .. . ... ... ... : ... .. . ... : ... .. 6 ... : ... .. . ... ... : ... .. 8 ... ... : ... .. 8 ... ... : ... .. . ... ...
ROW 45 : ... .. . P84 ... ... : C#5 00 5 ... ... ... : ... .. . ... : ... .. 3 ... : ... .. . ... ... : --- .. . ... ... : --- .. . ... ... : ... .. . ... ...
ROW 46 : ... .. 2 P83 ... ... : ... .. 4 ... ... ... : ... .. . ... : ... .. 2 ... : ... .. . ... ... : ... .. . ... ... : ... .. . ... ... : ... .. 4 ... ...
ROW 47 : ... .. . P80 ... ... : ... .. . ... ... ... : --- .. . ... : ... .. 0 ... : ... .. . ... ... : ... .. . ... ... : ... .. . ... ... : ... .. . ... ...
ROW 48 : B-3 00 F ... ... ... : B-4 00 9 ... ... ... : D#5 00 . ... : 1-# 00 F ... : ... .. . ... ... : E-3 01 A ... ... : G#3 01 A ... ... : E-1 01 F ... ...
ROW 49 : ... .. E ... ... ... : ... .. 8 ... ... ... : F-4 00 . ... : ... .. C ... : ... .. . ... ... : ... .. 9 ... ... : ... .. 9 ... ... : ... .. D ... ...
ROW 4A : ... .. D ... ... ... : ... .. . ... ... ... : A#3 00 . ... : ... .. 6 ... : ... .. . ... ... : ... .. 8 ... ... : ... .. 8 ... ... : ... .. 8 ... ...
ROW 4B : ... .. A ... ... ... : G#4 00 5 ... ... ... : A-3 00 . ... : ... .. 3 ... : ... .. . ... ... : ... .. 7 ... ... : ... .. 7 ... ... : ... .. . ... ...
ROW 4C : ... .. 2 ... ... ... : ... .. 4 ... ... ... : E-3 00 . ... : ... .. 2 ... : ... .. . ... ... : ... .. . ... ... : ... .. . ... ... : ... .. . ... ...
ROW 4D : ... .. . ... ... ... : ... .. . ... ... ... : ... .. . ... : ... .. 0 ... : ... .. . ... ... : ... .. 6 ... ... : ... .. 6 ... ... : ... .. . ... ...
ROW 4E : A#3 00 F ... ... ... : ... .. 9 ... ... ... : ... .. . ... : ... .. F ... : ... .. . ... ... : --- .. . P82 ... : --- .. . P82 ... : ... .. . ... ...
ROW 4F : ... .. E ... ... ... : ... .. 8 ... ... ... : ... .. . ... : ... .. C ... : ... .. . ... ... : ... .. . ... ... : ... .. . ... ... : ... .. . ... ...
ROW 50 : ... .. D ... ... ... : ... .. . ... ... ... : ... .. . ... : ... .. 6 ... : ... .. . ... ... : ... .. . ... ... : ... .. . ... ... : ... .. . ... ...
ROW 51 : ... .. A ... ... ... : B-4 00 5 ... ... ... : ... .. . ... : ... .. 3 ... : ... .. . ... ... : ... .. . ... ... : ... .. . ... ... : ... .. . ... ...
ROW 52 : ... .. 2 ... ... ... : ... .. 4 ... ... ... : ... .. . ... : ... .. 2 ... : ... .. . ... ... : ... .. . ... ... : ... .. . ... ... : ... .. . ... ...
ROW 53 : ... .. . ... ... ... : ... .. . ... ... ... : ... .. . ... : ... .. 0 ... : ... .. . ... ... : ... .. . ... ... : ... .. . ... ... : ... .. . ... ...
ROW 54 : G#3 00 F ... ... ... : ... .. 9 ... ... ... : ... .. . ... : 6-# 00 F ... : ... .. . ... ... : E-3 01 A P80 ... : G#3 01 A P80 ... : ... .. . ... ...
ROW 55 : ... .. E ... ... ... : ... .. 8 ... ... ... : ... .. . ... : ... .. C ... : ... .. . ... ... : ... .. 9 ... ... : ... .. 9 ... ... : ... .. . ... ...
ROW 56 : ... .. D ... ... ... : ... .. . ... ... ... : ... .. . ... : ... .. 6 ... : ... .. . ... ... : ... .. 8 ... ... : ... .. 8 ... ... : ... .. . ... ...
ROW 57 : ... .. A ... ... ... : G#4 00 5 ... ... ... : ... .. . ... : ... .. 3 ... : ... .. . ... ... : ... .. 7 ... ... : ... .. 7 ... ... : ... .. . ... ...
ROW 58 : ... .. . ... ... ... : ... .. 4 ... ... ... : ... .. . ... : ... .. 2 ... : ... .. . ... ... : ... .. . ... ... : ... .. . ... ... : ... .. . ... ...
ROW 59 : ... .. . ... ... ... : ... .. . ... ... ... : --- .. . ... : ... .. 0 ... : ... .. . ... ... : ... .. 6 ... ... : ... .. 6 ... ... : ... .. . ... ...
ROW 5A : ... .. . ... ... ... : ... .. 9 ... ... ... : E-4 00 . ... : D-# 00 F ... : ... .. . ... ... : --- .. . P82 ... : --- .. . P82 ... : ... .. . ... ...
ROW 5B : ... .. . ... ... ... : ... .. 8 ... ... ... : ... .. . ... : ... .. C ... : ... .. . ... ... : ... .. . ... ... : ... .. . ... ... : ... .. . ... ...
ROW 5C : ... .. . ... ... ... : ... .. . ... ... ... : ... .. . ... : ... .. 6 ... : ... .. . ... ... : ... .. . ... ... : ... .. . ... ... : ... .. . ... ...
ROW 5D : ... .. . ... ... ... : B-4 00 5 ... ... ... : ... .. . ... : ... .. 3 ... : ... .. . ... ... : ... .. . ... ... : ... .. . ... ... : ... .. . ... ...
ROW 5E : ... .. . ... ... ... : ... .. 4 ... ... ... : ... .. . ... : ... .. 2 ... : ... .. . ... ... : ... .. . ... ... : ... .. . ... ... : ... .. . ... ...
ROW 5F : ... .. . ... ... ... : ... .. . ... ... ... : --- .. . ... : ... .. 0 ... : ... .. . ... ... : ... .. . ... ... : ... .. . ... ... : ... .. . ... ...
ROW 60 : ... .. . P83 ... ... : ... .. 9 ... ... ... : D#4 00 . ... : 1-# 00 F ... : ... .. . ... ... : E-3 01 A P80 ... : G#3 01 A P80 ... : ... .. . ... ...
ROW 61 : ... .. . P84 ... ... : ... .. 8 ... ... ... : ... .. . ... : ... .. C ... : ... .. . ... ... : ... .. 9 ... ... : ... .. 9 ... ... : ... .. . ... ...
ROW 62 : ... .. . P83 ... ... : ... .. . ... ... ... : ... .. . ... : ... .. 6 ... : ... .. . ... ... : ... .. 8 ... ... : ... .. 8 ... ... : ... .. . ... ...
ROW 63 : ... .. . P80 ... ... : G#4 00 5 ... ... ... : ... .. . ... : ... .. 3 ... : ... .. . ... ... : --- .. . P82 ... : --- .. . P82 ... : ... .. . ... ...
ROW 64 : ... .. . P7D ... ... : ... .. 4 ... ... ... : ... .. . ... : ... .. 2 ... : ... .. . ... ... : ... .. . ... ... : ... .. . ... ... : ... .. . ... ...
ROW 65 : ... .. . P7C ... ... : ... .. . ... ... ... : --- .. . ... : ... .. 0 ... : ... .. . ... ... : ... .. . ... ... : ... .. . ... ... : ... .. . ... ...
ROW 66 : ... .. . P7D ... ... : ... .. 9 ... ... ... : C#4 00 . ... : D-# 00 F ... : ... .. . ... ... : E-3 01 A P80 ... : G#3 01 A P80 ... : ... .. . ... ...
ROW 67 : ... .. . P80 ... ... : ... .. 8 ... ... ... : ... .. . ... : ... .. C ... : ... .. . ... ... : ... .. 9 ... ... : ... .. 9 ... ... : ... .. . ... ...
ROW 68 : ... .. . P83 ... ... : ... .. . ... ... ... : ... .. . ... : ... .. 6 ... : ... .. . ... ... : ... .. 8 ... ... : ... .. 8 ... ... : ... .. . ... ...
ROW 69 : ... .. . P84 ... ... : B-4 00 5 ... ... ... : ... .. . ... : ... .. 3 ... : ... .. . ... ... : --- .. . P82 ... : --- .. . P82 ... : ... .. . ... ...
ROW 6A : ... .. 2 P83 ... ... : ... .. 4 ... ... ... : ... .. . ... : ... .. 2 ... : ... .. . ... ... : ... .. . ... ... : ... .. . ... ... : ... .. 4 ... ...
ROW 6B : ... .. . P80 ... ... : ... .. . ... ... ... : --- .. . ... : ... .. 0 ... : ... .. . ... ... : ... .. . ... ... : ... .. . ... ... : ... .. . ... ...
ROW 6C : F#3 00 F ... ... ... : ... .. 9 ... ... ... : A#4 00 . ... : 6-# 00 F ... : ... .. . ... ... : D#3 01 A P80 ... : G#3 01 A P80 ... : B-1 01 F ... ...
ROW 6D : ... .. E ... ... ... : ... .. 8 ... ... ... : C-4 00 . ... : ... .. C ... : ... .. . ... ... : ... .. 9 ... ... : ... .. 9 ... ... : ... .. D ... ...
ROW 6E : ... .. D ... ... ... : ... .. . ... ... ... : F-3 00 . ... : ... .. 6 ... : ... .. . ... ... : ... .. 8 ... ... : ... .. 8 ... ... : ... .. 8 ... ...
ROW 6F : ... .. A ... ... ... : G#4 00 5 ... ... ... : E-3 00 . ... : ... .. 3 ... : ... .. . ... ... : --- .. . P83 ... : --- .. . P82 ... : ... .. . ... ...
ROW 70 : ... .. 2 ... ... ... : ... .. 4 ... ... ... : B-2 00 . ... : ... .. 2 ... : ... .. . ... ... : ... .. . ... ... : ... .. . ... ... : ... .. 4 ... ...
ROW 71 : ... .. . ... ... ... : ... .. . ... ... ... : --- .. . ... : ... .. 0 ... : ... .. . ... ... : ... .. . ... ... : ... .. . ... ... : ... .. . ... ...
ROW 72 : G#3 00 F ... ... ... : F#4 00 9 ... ... ... : A#2 00 . ... : D-# 00 F ... : ... .. . ... ... : D#3 01 A P80 ... : G#3 01 A P80 ... : A#1 01 F ... ...
ROW 73 : ... .. E ... ... ... : ... .. 8 ... ... ... : ... .. . ... : ... .. C ... : ... .. . ... ... : ... .. 9 ... ... : ... .. 9 ... ... : ... .. D ... ...
ROW 74 : ... .. D ... ... ... : ... .. . ... ... ... : ... .. . ... : ... .. 6 ... : ... .. . ... ... : ... .. 8 ... ... : ... .. 8 ... ... : ... .. 8 ... ...
ROW 75 : ... .. A ... ... ... : B-4 00 5 ... ... ... : ... .. . ... : ... .. 3 ... : ... .. . ... ... : --- .. . P83 ... : --- .. . P82 ... : ... .. . ... ...
ROW 76 : ... .. 2 ... ... ... : ... .. 4 ... ... ... : ... .. . ... : ... .. 2 ... : ... .. . ... ... : ... .. . ... ... : ... .. . ... ... : ... .. 4 ... ...
ROW 77 : ... .. . ... ... ... : ... .. . ... ... ... : --- .. . ... : ... .. 0 ... : ... .. . ... ... : ... .. . ... ... : ... .. . ... ... : ... .. . ... ...
ROW 78 : D#3 00 F ... ... ... : D#4 00 9 ... ... ... : G#2 00 . ... : 1-# 00 F ... : ... .. . ... ... : C#3 01 A P80 ... : F#3 01 A P80 ... : G#1 01 F ... ...
ROW 79 : ... .. E ... ... ... : ... .. 8 ... ... ... : ... .. . ... : ... .. C ... : ... .. . ... ... : ... .. 9 ... ... : ... .. 9 ... ... : ... .. D ... ...
ROW 7A : ... .. D ... ... ... : ... .. . ... ... ... : ... .. . ... : ... .. 6 ... : ... .. . ... ... : ... .. 8 ... ... : ... .. 8 ... ... : ... .. 8 ... ...
ROW 7B : ... .. A ... ... ... : F#4 00 5 ... ... ... : ... .. . ... : ... .. 3 ... : ... .. . ... ... : --- .. . P83 ... : --- .. . P7F ... : ... .. . ... ...
ROW 7C : ... .. . ... ... ... : ... .. 4 ... ... ... : ... .. . ... : ... .. 2 ... : ... .. . ... ... : ... .. . ... ... : ... .. . ... ... : ... .. . ... ...
ROW 7D : ... .. . ... ... ... : ... .. . ... ... ... : --- .. . ... : ... .. 0 ... : ... .. . ... ... : ... .. . ... ... : ... .. . ... ... : ... .. . ... ...
ROW 7E : ... .. . P87 ... ... : A#4 00 9 ... ... ... : F#2 00 . ... : ... .. F ... : ... .. . ... ... : D#3 01 A P80 ... : G#3 01 A P80 ... : ... .. . ... ...
ROW 7F : ... .. . P89 ... ... : ... .. 8 ... ... ... : ... .. . ... : ... .. C ... : ... .. . ... ... : ... .. 9 ... ... : ... .. 9 ... ... : ... .. . ... ...
ROW 80 : ... .. . P86 ... ... : ... .. . ... ... ... : ... .. . ... : ... .. 6 ... : ... .. . ... ... : ... .. 8 ... ... : ... .. 8 ... ... : ... .. . ... ...
ROW 81 : ... .. . P80 ... ... : D#4 00 5 ... ... ... : ... .. . ... : ... .. 3 ... : ... .. . ... ... : ... .. 7 ... ... : ... .. 7 ... ... : ... .. . ... ...
ROW 82 : ... .. . P79 ... ... : ... .. 4 ... ... ... : ... .. . ... : ... .. 2 ... : ... .. . ... ... : ... .. . ... ... : ... .. . ... ... : ... .. . ... ...
ROW 83 : ... .. . P77 ... ... : ... .. . ... ... ... : --- .. . ... : ... .. 0 ... : ... .. . ... ... : ... .. 6 ... ... : ... .. 6 ... ... : ... .. . ... ...
ROW 84 : ... .. . P7A ... ... : F#4 00 9 ... ... ... : F-2 00 . ... : 6-# 00 F ... : ... .. . ... ... : ... .. . ... ... : ... .. . ... ... : ... .. . ... ...
ROW 85 : ... .. . P80 ... ... : ... .. 8 ... ... ... : ... .. . ... : ... .. C ... : ... .. . ... ... : ... .. 5 ... ... : ... .. 5 ... ... : ... .. . ... ...
ROW 86 : ... .. . P87 ... ... : ... .. . ... ... ... : ... .. . ... : ... .. 6 ... : ... .. . ... ... : ... .. . ... ... : ... .. . ... ... : ... .. . ... ...
ROW 87 : ... .. . P89 ... ... : A#4 00 5 ... ... ... : ... .. . ... : ... .. 3 ... : ... .. . ... ... : ... .. . P8A ... : A-3 01 5 P7B ... : ... .. . ... ...
ROW 88 : ... .. . P86 ... ... : ... .. 4 ... ... ... : ... .. . ... : ... .. 2 ... : ... .. . ... ... : E-3 01 5 P7B ... : ... .. . P81 ... : ... .. . ... ...
ROW 89 : ... .. . P80 ... ... : ... .. . ... ... ... : --- .. . ... : ... .. 0 ... : ... .. . ... ... : ... .. . P79 ... : ... .. . P7F ... : ... .. . ... ...
ROW 8A : ... .. . P79 ... ... : C#4 00 9 ... ... ... : D#2 00 . ... : ... .. F ... : ... .. . ... ... : D#3 01 5 P84 ... : G#3 01 5 P84 ... : ... .. . ... ...
ROW 8B : ... .. 2 P77 ... ... : ... .. 8 ... ... ... : ... .. . ... : ... .. C ... : ... .. . ... ... : ... .. . P7C ... : ... .. . P7C ... : ... .. . ... ...
ROW 8C : ... .. . P7A ... ... : ... .. . ... ... ... : ... .. . ... : ... .. 6 ... : ... .. . ... ... : D-3 01 5 P87 ... : G-3 01 5 P82 ... : ... .. . ... ...
ROW 8D : ... .. . P80 ... ... : F#4 00 5 ... ... ... : ... .. . ... : ... .. 3 ... : ... .. . ... ... : ... .. . P85 ... : ... .. . P80 ... : ... .. . ... ...
ROW 8E : ... .. 1 P87 ... ... : ... .. 4 ... ... ... : ... .. . ... : ... .. 2 ... : ... .. . ... ... : D#3 01 5 P76 ... : ... .. . P86 ... : ... .. 4 ... ...
ROW 8F : ... .. . P89 ... ... : ... .. . ... ... ... : --- .. . ... : ... .. 0 ... : ... .. . ... ... : ... .. . P80 ... : G#3 01 5 P80 ... : ... .. . ... ...
ROW 90 : ... .. F P80 ... ... : B-4 00 9 ... ... ... : G-4 00 . ... : 1-# 00 F ... : ... .. . ... ... : G#3 01 A ... ... : B-3 01 A ... ... : G#0 01 F ... ...
ROW 91 : ... .. E ... ... ... : ... .. 8 ... ... ... : A-3 00 . ... : ... .. C ... : ... .. . ... ... : ... .. 9 ... ... : ... .. 9 ... ... : ... .. D ... ...
ROW 92 : ... .. D ... ... ... : ... .. . ... ... ... : D-3 00 . ... : ... .. 6 ... : ... .. . ... ... : ... .. 8 ... ... : ... .. 8 ... ... : ... .. 8 ... ...
ROW 93 : ... .. A ... ... ... : C#4 00 5 ... ... ... : C#3 00 . ... : ... .. 3 ... : ... .. . ... ... : ... .. 7 ... ... : ... .. 7 ... ... : ... .. . ... ...
ROW 94 : ... .. . ... ... ... : ... .. 4 ... ... ... : G#2 00 . ... : ... .. 2 ... : ... .. . ... ... : ... .. . ... ... : ... .. . ... ... : ... .. . ... ...
ROW 95 : ... .. . ... ... ... : ... .. . ... ... ... : --- .. . ... : ... .. 0 ... : ... .. . ... ... : ... .. 6 ... ... : ... .. 6 ... ... : ... .. . ... ...
ROW 96 : ... .. . ... ... ... : D#4 00 9 ... ... ... : G#2 00 . ... : ... .. F ... : ... .. . ... ... : ... .. . ... ... : ... .. . ... ... : ... .. . ... ...
ROW 97 : ... .. . ... ... ... : ... .. 8 ... ... ... : ... .. . ... : ... .. C ... : ... .. . ... ... : ... .. 5 ... ... : ... .. 5 ... ... : ... .. . ... ...
ROW 98 : ... .. . ... ... ... : ... .. . ... ... ... : ... .. . ... : ... .. 6 ... : ... .. . ... ... : ... .. . ... ... : ... .. . ... ... : ... .. . ... ...
ROW 99 : E-3 00 A P7B ... ... : B-4 00 5 ... ... ... : ... .. . ... : ... .. 3 ... : ... .. . ... ... : --- .. . P82 ... : --- .. . ... ... : ... .. . ... ...
ROW 9A : F-3 00 A P78 ... ... : ... .. 4 ... ... ... : ... .. . ... : ... .. 2 ... : ... .. . ... ... : ... .. . ... ... : ... .. . ... ... : ... .. . ... ...
ROW 9B : ... .. . P88 ... ... : ... .. . ... ... ... : ... .. . ... : ... .. 0 ... : ... .. . ... ... : ... .. . ... ... : ... .. . ... ... : ... .. . ... ...
ROW 9C : F#3 00 A P86 ... ... : A#4 00 9 ... ... ... : ... .. . ... : 6-# 00 F ... : ... .. . ... ... : G#3 01 A P80 ... : B-3 01 A ... ... : ... .. . ... ...
ROW 9D : G-3 00 A P85 ... ... : ... .. 8 ... ... ... : ... .. . ... : ... .. C ... : ... .. . ... ... : ... .. 9 ... ... : ... .. 9 ... ... : ... .. . ... ...
ROW 9E : G#3 00 A ... ... ... : ... .. . ... ... ... : ... .. . ... : ... .. 6 ... : ... .. . ... ... : ... .. 8 ... ... : ... .. 8 ... ... : ... .. . ... ...
ROW 9F : A-3 00 A P86 ... ... : D#4 00 5 ... ... ... : ... .. . ... : ... .. 3 ... : ... .. . ... ... : ... .. 7 ... ... : ... .. 7 ... ... : ... .. . ... ...
ROW A0 : B-3 00 2 P7A ... ... : ... .. 4 ... ... ... : ... .. . ... : ... .. 2 ... : ... .. . ... ... : ... .. . ... ... : ... .. . ... ... : ... .. 4 ... ...
ROW A1 : C-4 00 2 P7E ... ... : ... .. . ... ... ... : --- .. . ... : ... .. 0 ... : ... .. . ... ... : ... .. 6 ... ... : ... .. 6 ... ... : ... .. . ... ...
ROW A2 : G#4 00 F P80 ... ... : ... .. 9 ... ... ... : G#3 00 . ... : 1-# 00 F ... : ... .. . ... ... : ... .. . ... ... : ... .. . ... ... : G#1 01 F ... ...
ROW A3 : ... .. E ... ... ... : ... .. 8 ... ... ... : ... .. . ... : ... .. C ... : ... .. . ... ... : ... .. 5 ... ... : ... .. 5 ... ... : ... .. D ... ...
ROW A4 : ... .. D ... ... ... : ... .. . ... ... ... : ... .. . ... : ... .. 6 ... : ... .. . ... ... : ... .. . ... ... : ... .. . ... ... : ... .. 8 ... ...
ROW A5 : ... .. A ... ... ... : A#4 00 5 ... ... ... : ... .. . ... : ... .. 3 ... : ... .. . ... ... : --- .. . P82 ... : --- .. . ... ... : ... .. . ... ...
ROW A6 : ... .. . ... ... ... : ... .. 4 ... ... ... : ... .. . ... : ... .. 2 ... : ... .. . ... ... : ... .. . ... ... : ... .. . ... ... : ... .. . ... ...
ROW A7 : ... .. . ... ... ... : ... .. . ... ... ... : ... .. . ... : ... .. 0 ... : ... .. . ... ... : ... .. . ... ... : ... .. . ... ... : ... .. . ... ...
ROW A8 : ... .. . ... ... ... : G#4 00 9 ... ... ... : ... .. . ... : ... .. F ... : ... .. . ... ... : G#3 01 A P80 ... : B-3 01 A ... ... : ... .. . ... ...
ROW A9 : ... .. . ... ... ... : ... .. 8 ... ... ... : ... .. . ... : ... .. C ... : ... .. . ... ... : ... .. 9 ... ... : ... .. 9 ... ... : ... .. . ... ...
ROW AA : ... .. . ... ... ... : ... .. . ... ... ... : ... .. . ... : ... .. 6 ... : ... .. . ... ... : ... .. 8 ... ... : ... .. 8 ... ... : ... .. . ... ...
ROW AB : A-4 00 A P7F ... ... : D#4 00 5 ... ... ... : ... .. . ... : ... .. 3 ... : ... .. . ... ... : --- .. . P82 ... : --- .. . ... ... : ... .. . ... ...
ROW AC : ... .. . P81 ... ... : ... .. 4 ... ... ... : ... .. . ... : ... .. 2 ... : ... .. . ... ... : ... .. . ... ... : ... .. . ... ... : ... .. . ... ...
ROW AD : ... .. . P7E ... ... : ... .. . ... ... ... : --- .. . ... : ... .. 0 ... : ... .. . ... ... : ... .. . ... ... : ... .. . ... ... : ... .. . ... ...
ROW AE : G#4 00 A P80 ... ... : ... .. 9 ... ... ... : G#2 00 . ... : ... .. F ... : ... .. . ... ... : G#3 01 A P80 ... : B-3 01 A ... ... : ... .. . ... ...
ROW AF : G-4 00 A P81 ... ... : ... .. 8 ... ... ... : ... .. . ... : ... .. C ... : ... .. . ... ... : ... .. 9 ... ... : ... .. 9 ... ... : ... .. . ... ...
ROW B0 : ... .. . P7F ... ... : ... .. . ... ... ... : ... .. . ... : ... .. 6 ... : ... .. . ... ... : ... .. 8 ... ... : ... .. 8 ... ... : ... .. . ... ...
ROW B1 : ... .. . P82 ... ... : G#4 00 5 ... ... ... : ... .. . ... : ... .. 3 ... : ... .. . ... ... : --- .. . P82 ... : --- .. . ... ... : ... .. . ... ...
ROW B2 : G#4 00 2 P80 ... ... : ... .. 4 ... ... ... : ... .. . ... : ... .. 2 ... : ... .. . ... ... : ... .. . ... ... : ... .. . ... ... : ... .. 4 ... ...
ROW B3 : A-4 00 2 P7F ... ... : ... .. . ... ... ... : --- .. . ... : ... .. 0 ... : ... .. . ... ... : ... .. . ... ... : ... .. . ... ... : ... .. . ... ...
ROW B4 : A#4 00 F P80 ... ... : F#4 00 9 ... ... ... : C-5 00 . ... : 6-# 00 F ... : ... .. . ... ... : G#3 01 A P80 ... : C#4 01 A ... ... : C#1 01 F ... ...
ROW B5 : ... .. E ... ... ... : ... .. 8 ... ... ... : D-4 00 . ... : ... .. C ... : ... .. . ... ... : ... .. 9 ... ... : ... .. 9 ... ... : ... .. D ... ...
ROW B6 : ... .. D ... ... ... : ... .. . ... ... ... : G-3 00 . ... : ... .. 6 ... : ... .. . ... ... : ... .. 8 ... ... : ... .. 8 ... ... : ... .. 8 ... ...
ROW B7 : ... .. A ... ... ... : D#4 00 5 ... ... ... : F#3 00 . ... : ... .. 3 ... : ... .. . ... ... : ... .. 7 ... ... : ... .. 7 ... ... : ... .. . ... ...
ROW B8 : ... .. 2 ... ... ... : ... .. 4 ... ... ... : C#3 00 . ... : ... .. 2 ... : ... .. . ... ... : ... .. . ... ... : ... .. . ... ... : ... .. . ... ...
ROW B9 : ... .. . ... ... ... : ... .. . ... ... ... : --- .. . ... : ... .. 0 ... : ... .. . ... ... : ... .. 6 ... ... : ... .. 6 ... ... : ... .. . ... ...
ROW BA : B-4 00 F ... ... ... : F-4 00 9 ... ... ... : C#3 00 . ... : 1-# 00 F ... : ... .. . ... ... : ... .. . ... ... : ... .. . ... ... : ... .. . ... ...
ROW BB : ... .. E ... ... ... : ... .. 8 ... ... ... : ... .. . ... : ... .. C ... : ... .. . ... ... : ... .. 5 ... ... : ... .. 5 ... ... : ... .. . ... ...
ROW BC : ... .. D ... ... ... : ... .. . ... ... ... : ... .. . ... : ... .. 6 ... : ... .. . ... ... : ... .. . ... ... : ... .. . ... ... : ... .. . ... ...
ROW BD : ... .. A ... ... ... : F#4 00 5 ... ... ... : ... .. . ... : ... .. 3 ... : ... .. . ... ... : --- .. . P82 ... : --- .. . ... ... : ... .. . ... ...
ROW BE : ... .. 2 ... ... ... : ... .. 4 ... ... ... : ... .. . ... : ... .. 2 ... : ... .. . ... ... : ... .. . ... ... : ... .. . ... ... : ... .. . ... ...
ROW BF : ... .. . ... ... ... : ... .. . ... ... ... : --- .. . ... : ... .. 0 ... : ... .. . ... ... : ... .. . ... ... : ... .. . ... ... : ... .. . ... ...
ROW C0 : G#4 00 F ... ... ... : C#4 00 9 ... ... ... : B-3 00 . ... : ... .. F ... : ... .. . ... ... : G#3 01 A P80 ... : C#4 01 A ... ... : ... .. . ... ...
ROW C1 : ... .. E ... ... ... : ... .. 8 ... ... ... : ... .. . ... : ... .. C ... : ... .. . ... ... : ... .. 9 ... ... : ... .. 9 ... ... : ... .. . ... ...
ROW C2 : ... .. D ... ... ... : ... .. . ... ... ... : ... .. . ... : ... .. 6 ... : ... .. . ... ... : ... .. 8 ... ... : ... .. 8 ... ... : ... .. . ... ...
ROW C3 : ... .. A ... ... ... : F-4 00 5 ... ... ... : ... .. . ... : ... .. 3 ... : ... .. . ... ... : ... .. 7 ... ... : ... .. 7 ... ... : ... .. . ... ...
ROW C4 : ... .. . ... ... ... : ... .. 4 ... ... ... : ... .. . ... : ... .. 2 ... : ... .. . ... ... : ... .. . ... ... : ... .. . ... ... : ... .. 4 ... ...
ROW C5 : ... .. . ... ... ... : ... .. . ... ... ... : --- .. . ... : ... .. 0 ... : ... .. . ... ... : ... .. 6 ... ... : ... .. 6 ... ... : ... .. . ... ...
ROW C6 : ... .. . ... ... ... : G#3 00 9 ... ... ... : C#4 00 . ... : ... .. F ... : ... .. . ... ... : --- .. . P82 ... : --- .. . ... ... : C#2 01 F ... ...
ROW C7 : ... .. . ... ... ... : ... .. 8 ... ... ... : ... .. . ... : ... .. C ... : ... .. . ... ... : ... .. . ... ... : ... .. . ... ... : ... .. D ... ...
ROW C8 : ... .. . ... ... ... : ... .. . ... ... ... : ... .. . ... : ... .. 6 ... : ... .. . ... ... : ... .. . ... ... : ... .. . ... ... : ... .. 8 ... ...
ROW C9 : ... .. . ... ... ... : C#4 00 5 ... ... ... : ... .. . ... : ... .. 3 ... : ... .. . ... ... : ... .. . ... ... : ... .. . ... ... : ... .. . ... ...
ROW CA : ... .. . ... ... ... : ... .. 4 ... ... ... : ... .. . ... : ... .. 2 ... : ... .. . ... ... : ... .. . ... ... : ... .. . ... ... : ... .. 4 ... ...
ROW CB : ... .. . ... ... ... : ... .. . ... ... ... : --- .. . ... : ... .. 0 ... : ... .. . ... ... : ... .. . ... ... : ... .. . ... ... : ... .. . ... ...
ROW CC : A#4 00 F ... ... ... : D#3 00 9 ... ... ... : F-4 00 . ... : 6-# 00 F ... : ... .. . ... ... : G#3 01 A P80 ... : C#4 01 A ... ... : D#2 01 F ... ...
ROW CD : ... .. E ... ... ... : ... .. 8 ... ... ... : ... .. . ... : ... .. C ... : ... .. . ... ... : ... .. 9 ... ... : ... .. 9 ... ... : ... .. D ... ...
ROW CE : ... .. D ... ... ... : ... .. . ... ... ... : ... .. . ... : ... .. 6 ... : ... .. . ... ... : ... .. 8 ... ... : ... .. 8 ... ... : ... .. 8 ... ...
ROW CF : ... .. A ... ... ... : G#3 00 5 ... ... ... : ... .. . ... : ... .. 3 ... : ... .. . ... ... : --- .. . P82 ... : --- .. . ... ... : ... .. . ... ...
ROW D0 : ... .. 2 ... ... ... : ... .. 4 ... ... ... : ... .. . ... : ... .. 2 ... : ... .. . ... ... : ... .. . ... ... : ... .. . ... ... : ... .. 4 ... ...
ROW D1 : ... .. . ... ... ... : ... .. . ... ... ... : --- .. . ... : ... .. 0 ... : ... .. . ... ... : ... .. . ... ... : ... .. . ... ... : ... .. . ... ...
ROW D2 : B-4 00 F ... ... ... : C#3 00 9 ... ... ... : F#4 00 . ... : 1-# 00 F ... : ... .. . ... ... : G#3 01 A P80 ... : C#4 01 A ... ... : E-2 01 F ... ...
ROW D3 : ... .. E ... ... ... : ... .. 8 ... ... ... : ... .. . ... : ... .. C ... : ... .. . ... ... : ... .. 9 ... ... : ... .. 9 ... ... : ... .. D ... ...
ROW D4 : ... .. D ... ... ... : ... .. . ... ... ... : ... .. . ... : ... .. 6 ... : ... .. . ... ... : ... .. 8 ... ... : ... .. 8 ... ... : ... .. 8 ... ...
ROW D5 : ... .. A ... ... ... : D#3 00 5 ... ... ... : ... .. . ... : ... .. 3 ... : ... .. . ... ... : --- .. . P82 ... : --- .. . ... ... : ... .. . ... ...
ROW D6 : ... .. 2 ... ... ... : ... .. 4 ... ... ... : ... .. . ... : ... .. 2 ... : ... .. . ... ... : ... .. . ... ... : ... .. . ... ... : ... .. 4 ... ...
ROW D7 : ... .. . ... ... ... : ... .. . ... ... ... : --- .. . ... : ... .. 0 ... : ... .. . ... ... : ... .. . ... ... : ... .. . ... ... : ... .. . ... ...
ROW D8 : D#5 00 F ... ... ... : E-3 00 9 ... ... ... : G-5 00 . ... : 6-# 00 F ... : ... .. . ... ... : G#3 01 A P80 ... : E-4 01 A ... ... : E-1 01 F ... ...
ROW D9 : ... .. E ... ... ... : ... .. 8 ... ... ... : A-4 00 . ... : ... .. C ... : ... .. . ... ... : ... .. 9 ... ... : ... .. 9 ... ... : ... .. D ... ...
ROW DA : ... .. D ... ... ... : ... .. . ... ... ... : D-4 00 . ... : ... .. 6 ... : ... .. . ... ... : ... .. 8 ... ... : ... .. 8 ... ... : ... .. 8 ... ...
ROW DB : ... .. A ... ... ... : C#3 00 5 ... ... ... : C#4 00 . ... : ... .. 3 ... : ... .. . ... ... : --- .. . P82 ... : --- .. . ... ... : ... .. . ... ...
ROW DC : ... .. . ... ... ... : ... .. 4 ... ... ... : G#3 00 . ... : ... .. 2 ... : ... .. . ... ... : ... .. . ... ... : ... .. . ... ... : ... .. . ... ...
ROW DD : ... .. . ... ... ... : ... .. . ... ... ... : ... .. . ... : ... .. 0 ... : ... .. . ... ... : ... .. . ... ... : ... .. . ... ... : ... .. . ... ...
ROW DE : ... .. . ... ... ... : B-2 00 9 ... ... ... : ... .. . ... : 1-# 00 F ... : ... .. . ... ... : G#3 01 A P80 ... : E-4 01 A ... ... : ... .. . ... ...
ROW DF : ... .. . ... ... ... : ... .. 8 ... ... ... : ... .. . ... : ... .. C ... : ... .. . ... ... : ... .. 9 ... ... : ... .. 9 ... ... : ... .. . ... ...
ROW E0 : ... .. . ... ... ... : ... .. . ... ... ... : ... .. . ... : ... .. 6 ... : ... .. . ... ... : ... .. 8 ... ... : ... .. 8 ... ... : ... .. . ... ...
ROW E1 : ... .. . ... ... ... : E-3 00 5 ... ... ... : ... .. . ... : ... .. 3 ... : ... .. . ... ... : --- .. . P82 ... : --- .. . ... ... : ... .. . ... ...
ROW E2 : ... .. . ... ... ... : ... .. 4 ... ... ... : ... .. . ... : ... .. 2 ... : ... .. . ... ... : ... .. . ... ... : ... .. . ... ... : ... .. . ... ...
ROW E3 : ... .. . ... ... ... : ... .. . ... ... ... : ... .. . ... : ... .. 0 ... : ... .. . ... ... : ... .. . ... ... : ... .. . ... ... : ... .. . ... ...
ROW E4 : ... .. . ... ... ... : G#2 00 9 ... ... ... : ... .. . ... : ... .. F ... : ... .. . ... ... : G#3 01 A P80 ... : E-4 01 A ... ... : ... .. . ... ...
ROW E5 : ... .. . ... ... ... : ... .. 8 ... ... ... : ... .. . ... : ... .. C ... : ... .. . ... ... : ... .. 9 ... ... : ... .. 9 ... ... : ... .. . ... ...
ROW E6 : ... .. . ... ... ... : ... .. . ... ... ... : ... .. . ... : ... .. 6 ... : ... .. . ... ... : ... .. 8 ... ... : ... .. 8 ... ... : ... .. . ... ...
ROW E7 : ... .. . ... ... ... : B-2 00 5 ... ... ... : ... .. . ... : ... .. 3 ... : ... .. . ... ... : --- .. . P82 ... : --- .. . ... ... : ... .. . ... ...
ROW E8 : ... .. 2 ... ... ... : ... .. 4 ... ... ... : ... .. . ... : ... .. 2 ... : ... .. . ... ... : ... .. . ... ... : ... .. . ... ... : ... .. 4 ... ...
ROW E9 : ... .. . ... ... ... : ... .. . ... ... ... : --- .. . ... : ... .. 0 ... : ... .. . ... ... : ... .. . ... ... : ... .. . ... ... : ... .. . ... ...
ROW EA : C#5 00 F ... ... ... : A#3 00 9 ... ... ... : A-5 00 . ... : A-# 00 F ... : ... .. . ... ... : F#3 01 A P80 ... : C#4 01 A ... ... : F#1 01 F ... ...
ROW EB : ... .. E ... ... ... : ... .. 8 ... ... ... : B-4 00 . ... : ... .. C ... : ... .. . ... ... : ... .. 9 ... ... : ... .. 9 ... ... : ... .. D ... ...
ROW EC : ... .. D ... ... ... : ... .. . ... ... ... : E-4 00 . ... : ... .. 6 ... : ... .. . ... ... : ... .. 8 ... ... : ... .. 8 ... ... : ... .. 8 ... ...
ROW ED : ... .. A ... ... ... : G#2 00 5 ... ... ... : D#4 00 . ... : ... .. 3 ... : ... .. . ... ... : ... .. 7 ... ... : ... .. 7 ... ... : ... .. . ... ...
ROW EE : ... .. . ... ... ... : ... .. 4 ... ... ... : A#3 00 . ... : ... .. 2 ... : ... .. . ... ... : ... .. . ... ... : ... .. . ... ... : ... .. . ... ...
ROW EF : ... .. . ... ... ... : ... .. . ... ... ... : ... .. . ... : ... .. 0 ... : ... .. . ... ... : ... .. 6 ... ... : ... .. 6 ... ... : ... .. . ... ...
ROW F0 : ... .. . ... ... ... : F#3 00 9 ... ... ... : ... .. . ... : 1-# 00 F ... : ... .. . ... ... : ... .. . ... ... : ... .. . ... ... : ... .. . ... ...
ROW F1 : ... .. . ... ... ... : ... .. 8 ... ... ... : ... .. . ... : ... .. C ... : ... .. . ... ... : ... .. 5 ... ... : ... .. 5 ... ... : ... .. . ... ...
ROW F2 : ... .. . ... ... ... : ... .. . ... ... ... : ... .. . ... : ... .. 6 ... : ... .. . ... ... : ... .. . ... ... : ... .. . ... ... : ... .. . ... ...
ROW F3 : ... .. . ... ... ... : A#3 00 5 ... ... ... : ... .. . ... : ... .. 3 ... : ... .. . ... ... : ... .. . ... ... : ... .. . ... ... : ... .. . ... ...
ROW F4 : ... .. . ... ... ... : ... .. 4 ... ... ... : ... .. . ... : ... .. 2 ... : ... .. . ... ... : ... .. . ... ... : ... .. . ... ... : ... .. . ... ...
ROW F5 : ... .. . ... ... ... : ... .. . ... ... ... : ... .. . ... : ... .. 0 ... : ... .. . ... ... : ... .. . ... ... : ... .. . ... ... : ... .. . ... ...
ROW F6 : ... .. . ... ... ... : C#3 00 9 ... ... ... : ... .. . ... : ... .. F ... : ... .. . ... ... : ... .. . ... ... : ... .. . ... ... : ... .. . ... ...
ROW F7 : C-5 00 A P81 ... ... : ... .. 8 ... ... ... : ... .. . ... : ... .. C ... : ... .. . ... ... : ... .. . ... ... : ... .. . ... ... : ... .. . ... ...
ROW F8 : B-4 00 A P82 ... ... : ... .. . ... ... ... : ... .. . ... : ... .. 6 ... : ... .. . ... ... : ... .. . ... ... : ... .. . ... ... : ... .. . ... ...
ROW F9 : ... .. . P7D ... ... : F#3 00 5 ... ... ... : ... .. . ... : ... .. 3 ... : ... .. . ... ... : ... .. . ... ... : ... .. . ... ... : ... .. . ... ...
ROW FA : A#4 00 A P7F ... ... : ... .. 4 ... ... ... : ... .. . ... : ... .. 2 ... : ... .. . ... ... : ... .. . ... ... : ... .. . ... ... : ... .. 4 ... ...
ROW FB : A-4 00 A P81 ... ... : ... .. . ... ... ... : --- .. . ... : ... .. 0 ... : ... .. . ... ... : ... .. . ... ... : ... .. . ... ... : ... .. . ... ...
ROW FC : F#4 00 F P80 ... ... : ... .. 9 ... ... ... : A#5 00 . ... : 6-# 00 F ... : ... .. . ... ... : D#3 01 A ... ... : B-3 01 A ... ... : B-1 01 F ... ...
ROW FD : ... .. E ... ... ... : ... .. 8 ... ... ... : C-5 00 . ... : ... .. C ... : ... .. . ... ... : ... .. 9 ... ... : ... .. 9 ... ... : ... .. D ... ...
ROW FE : ... .. D ... ... ... : ... .. . ... ... ... : F-4 00 . ... : ... .. 6 ... : ... .. . ... ... : ... .. 8 ... ... : ... .. 8 ... ... : ... .. 8 ... ...
ROW FF : ... .. A ... ... ... : C#3 00 5 ... ... ... : E-4 00 . ... : ... .. 3 ... : ... .. . ... ... : --- .. . P83 ... : --- .. . ... ... : ... .. . ... ...

PATTERN 13
ROW 00 : ... .. . ... ... ... : ... .. 4 ... ... ... : B-3 00 . ... : ... .. 2 ... : ... .. . ... ... : ... .. . ... ... : ... .. . ... ... : ... .. . ... ...
ROW 01 : ... .. . ... ... ... : ... .. . ... ... ... : --- .. . ... : ... .. 0 ... : ... .. . ... ... : ... .. . ... ... : ... .. . ... ... : ... .. . ... ...
ROW 02 : ... .. . ... ... ... : D#3 00 9 ... ... ... : B-2 00 . ... : ... .. F ... : ... .. . ... ... : D#3 01 A P80 ... : C#4 01 A ... ... : ... .. . ... ...
ROW 03 : ... .. . ... ... ... : ... .. 8 ... ... ... : ... .. . ... : ... .. C ... : ... .. . ... ... : ... .. 9 ... ... : ... .. 9 ... ... : ... .. . ... ...
ROW 04 : ... .. . ... ... ... : ... .. . ... ... ... : ... .. . ... : ... .. 6 ... : ... .. . ... ... : ... .. 8 ... ... : ... .. 8 ... ... : ... .. . ... ...
ROW 05 : ... .. . ... ... ... : F#3 00 5 ... ... ... : ... .. . ... : ... .. 3 ... : ... .. . ... ... : --- .. . P83 ... : --- .. . ... ... : ... .. . ... ...
ROW 06 : ... .. . ... ... ... : ... .. 4 ... ... ... : ... .. . ... : ... .. 2 ... : ... .. . ... ... : ... .. . ... ... : ... .. . ... ... : ... .. . ... ...
ROW 07 : ... .. . ... ... ... : ... .. . ... ... ... : --- .. . ... : ... .. 0 ... : ... .. . ... ... : ... .. . ... ... : ... .. . ... ... : ... .. . ... ...
ROW 08 : ... .. . ... ... ... : B-2 00 9 ... ... ... : B-2 00 . ... : 5-# 00 F ... : ... .. . ... ... : D#3 01 A P80 ... : B-3 01 A ... ... : ... .. . ... ...
ROW 09 : ... .. . ... ... ... : ... .. 8 ... ... ... : ... .. . ... : ... .. C ... : ... .. . ... ... : ... .. 9 ... ... : ... .. 9 ... ... : ... .. . ... ...
ROW 0A : ... .. . ... ... ... : ... .. . ... ... ... : ... .. . ... : ... .. 6 ... : ... .. . ... ... : ... .. 8 ... ... : ... .. 8 ... ... : ... .. . ... ...
ROW 0B : ... .. . ... ... ... : D#3 00 5 ... ... ... : ... .. . ... : ... .. 3 ... : ... .. . ... ... : --- .. . P83 ... : --- .. . ... ... : ... .. . ... ...
ROW 0C : ... .. 2 ... ... ... : ... .. 4 ... ... ... : ... .. . ... : ... .. 2 ... : ... .. . ... ... : ... .. . ... ... : ... .. . ... ... : ... .. 4 ... ...
ROW 0D : ... .. . ... ... ... : ... .. . ... ... ... : --- .. . ... : ... .. 0 ... : ... .. . ... ... : ... .. . ... ... : ... .. . ... ... : ... .. . ... ...
ROW 0E : G#4 00 F ... ... ... : C#3 00 9 ... ... ... : A-5 00 . ... : ... .. F ... : ... .. . ... ... : C#3 01 A P80 ... : A#3 01 A ... ... : A#1 01 F ... ...
ROW 0F : ... .. E ... ... ... : ... .. 8 ... ... ... : B-4 00 . ... : ... .. C ... : ... .. . ... ... : ... .. 9 ... ... : ... .. 9 ... ... : ... .. D ... ...
ROW 10 : ... .. D ... ... ... : ... .. . ... ... ... : E-4 00 . ... : ... .. 6 ... : ... .. . ... ... : ... .. 8 ... ... : ... .. 8 ... ... : ... .. 8 ... ...
ROW 11 : ... .. A ... ... ... : B-2 00 5 ... ... ... : D#4 00 . ... : ... .. 3 ... : ... .. . ... ... : ... .. 7 ... ... : ... .. 7 ... ... : ... .. . ... ...
ROW 12 : ... .. . ... ... ... : ... .. 4 ... ... ... : A#3 00 . ... : ... .. 2 ... : ... .. . ... ... : ... .. . ... ... : ... .. . ... ... : ... .. . ... ...
ROW 13 : ... .. . ... ... ... : ... .. . ... ... ... : --- .. . ... : ... .. 0 ... : ... .. . ... ... : ... .. 6 ... ... : ... .. 6 ... ... : ... .. . ... ...
ROW 14 : ... .. . ... ... ... : A#2 00 9 ... ... ... : F#2 00 . ... : 3-# 00 F ... : ... .. . ... ... : ... .. . ... ... : ... .. . ... ... : ... .. . ... ...
ROW 15 : ... .. . ... ... ... : ... .. 8 ... ... ... : ... .. . ... : ... .. C ... : ... .. . ... ... : ... .. 5 ... ... : ... .. 5 ... ... : ... .. . ... ...
ROW 16 : ... .. . ... ... ... : ... .. . ... ... ... : ... .. . ... : ... .. 6 ... : ... .. . ... ... : ... .. . ... ... : ... .. . ... ... : ... .. . ... ...
ROW 17 : ... .. . ... ... ... : C#3 00 5 ... ... ... : ... .. . ... : ... .. 3 ... : ... .. . ... ... : ... .. . ... ... : ... .. . ... ... : ... .. . ... ...
ROW 18 : ... .. . ... ... ... : ... .. 4 ... ... ... : ... .. . ... : ... .. 2 ... : ... .. . ... ... : ... .. . ... ... : ... .. . ... ... : ... .. . ... ...
ROW 19 : ... .. . ... ... ... : ... .. . ... ... ... : --- .. . ... : ... .. 0 ... : ... .. . ... ... : ... .. . ... ... : ... .. . ... ... : ... .. . ... ...
ROW 1A : ... .. . ... ... ... : F#2 00 9 ... ... ... : F#2 00 . ... : ... .. F ... : ... .. . ... ... : ... .. . ... ... : ... .. . ... ... : ... .. . ... ...
ROW 1B : G-4 00 A P83 ... ... : ... .. 8 ... ... ... : ... .. . ... : ... .. C ... : ... .. . ... ... : ... .. . ... ... : ... .. . ... ... : ... .. . ... ...
ROW 1C : ... .. . P7E ... ... : ... .. . ... ... ... : ... .. . ... : ... .. 6 ... : ... .. . ... ... : ... .. . ... ... : ... .. . ... ... : ... .. . ... ...
ROW 1D : F#4 00 A P81 ... ... : A#2 00 5 ... ... ... : ... .. . ... : ... .. 3 ... : ... .. . ... ... : ... .. . ... ... : ... .. . ... ... : ... .. . ... ...
ROW 1E : ... .. . P7C ... ... : ... .. 4 ... ... ... : ... .. . ... : ... .. 2 ... : ... .. . ... ... : ... .. . ... ... : ... .. . ... ... : ... .. . ... ...
ROW 1F : F-4 00 A P80 ... ... : ... .. . ... ... ... : --- .. . ... : ... .. 0 ... : ... .. . ... ... : ... .. . ... ... : ... .. . ... ... : ... .. . ... ...
ROW 20 : D#4 00 F ... ... ... : B-4 00 9 ... ... ... : G-4 00 . ... : 1-# 00 F ... : ... .. . ... ... : G#2 01 A ... ... : G#3 01 A ... ... : G#1 01 F ... ...
ROW 21 : ... .. E ... ... ... : ... .. 8 ... ... ... : A-3 00 . ... : ... .. C ... : ... .. . ... ... : ... .. 9 ... ... : ... .. 9 ... ... : ... .. D ... ...
ROW 22 : ... .. D ... ... ... : ... .. . ... ... ... : D-3 00 . ... : ... .. 6 ... : ... .. . ... ... : ... .. 8 ... ... : ... .. 8 ... ... : ... .. 8 ... ...
ROW 23 : ... .. A ... ... ... : ... .. 7 ... ... ... : C#3 00 . ... : ... .. 3 ... : ... .. . ... ... : ... .. 7 ... ... : ... .. 7 ... ... : ... .. . ... ...
ROW 24 : ... .. . ... ... ... : ... .. 5 ... ... ... : G#2 00 . ... : ... .. 2 ... : ... .. . ... ... : ... .. . ... ... : ... .. . ... ... : ... .. . ... ...
ROW 25 : ... .. . ... ... ... : ... .. . ... ... ... : --- .. . ... : ... .. 0 ... : ... .. . ... ... : ... .. 6 ... ... : ... .. 6 ... ... : --- .. . P7E ...
ROW 26 : ... .. . ... ... ... : G#4 00 9 ... ... ... : G#2 00 . ... : D-# 00 F ... : ... .. . ... ... : ... .. . ... ... : D#3 01 A ... ... : G#1 01 F P80 ...
ROW 27 : ... .. . ... ... ... : ... .. 8 ... ... ... : ... .. . ... : ... .. C ... : ... .. . ... ... : ... .. 5 ... ... : ... .. 9 ... ... : ... .. D ... ...
ROW 28 : ... .. . ... ... ... : ... .. . ... ... ... : ... .. . ... : ... .. 6 ... : ... .. . ... ... : ... .. . ... ... : ... .. 8 ... ... : ... .. 8 ... ...
ROW 29 : ... .. . ... ... ... : B-4 00 4 ... ... ... : ... .. . ... : ... .. 3 ... : ... .. . ... ... : --- .. . ... ... : ... .. 7 ... ... : ... .. . ... ...
ROW 2A : ... .. . ... ... ... : ... .. 3 ... ... ... : ... .. . ... : ... .. 2 ... : ... .. . ... ... : ... .. . ... ... : ... .. . ... ... : ... .. . ... ...
ROW 2B : ... .. . ... ... ... : ... .. . ... ... ... : --- .. . ... : ... .. 0 ... : ... .. . ... ... : ... .. . ... ... : ... .. 6 ... ... : --- .. . P7E ...
ROW 2C : ... .. . ... ... ... : ... .. 9 ... ... ... : F#3 00 . ... : ... .. F ... : ... .. . ... ... : G#2 01 A ... ... : C#3 01 A ... ... : F#2 01 F P80 ...
ROW 2D : ... .. . ... ... ... : ... .. 8 ... ... ... : ... .. . ... : ... .. C ... : ... .. . ... ... : ... .. 9 ... ... : ... .. 9 ... ... : ... .. D ... ...
ROW 2E : ... .. . ... ... ... : ... .. . ... ... ... : ... .. . ... : ... .. 6 ... : ... .. . ... ... : ... .. 8 ... ... : ... .. 8 ... ... : ... .. 8 ... ...
ROW 2F : ... .. . ... ... ... : G#4 00 4 ... ... ... : ... .. . ... : ... .. 3 ... : ... .. . ... ... : ... .. 7 ... ... : ... .. 7 ... ... : ... .. . ... ...
ROW 30 : ... .. 2 ... ... ... : ... .. 3 ... ... ... : ... .. . ... : ... .. 2 ... : ... .. . ... ... : ... .. . ... ... : ... .. . ... ... : ... .. . ... ...
ROW 31 : ... .. . ... ... ... : ... .. . ... ... ... : --- .. . ... : ... .. 0 ... : ... .. . ... ... : ... .. 6 ... ... : ... .. 6 ... ... : --- .. . P84 ...
ROW 32 : F#4 00 F ... ... ... : ... .. 9 ... ... ... : G#2 00 . ... : 6-# 00 F ... : ... .. . ... ... : ... .. . ... ... : G#2 01 A ... ... : G#1 01 F P80 ...
ROW 33 : ... .. E ... ... ... : ... .. 8 ... ... ... : ... .. . ... : ... .. C ... : ... .. . ... ... : ... .. 5 ... ... : ... .. 9 ... ... : ... .. D ... ...
ROW 34 : ... .. D ... ... ... : ... .. . ... ... ... : ... .. . ... : ... .. 6 ... : ... .. . ... ... : ... .. . ... ... : ... .. 8 ... ... : ... .. 8 ... ...
ROW 35 : ... .. A ... ... ... : B-4 00 4 ... ... ... : ... .. . ... : ... .. 3 ... : ... .. . ... ... : --- .. . ... ... : ... .. 7 ... ... : ... .. . ... ...
ROW 36 : ... .. . ... ... ... : ... .. 3 ... ... ... : ... .. . ... : ... .. 2 ... : ... .. . ... ... : ... .. . ... ... : ... .. . ... ... : ... .. . ... ...
ROW 37 : ... .. . ... ... ... : ... .. . ... ... ... : --- .. . ... : ... .. 0 ... : ... .. . ... ... : ... .. . ... ... : ... .. 6 ... ... : --- .. . P7E ...
ROW 38 : ... .. . ... ... ... : ... .. 9 ... ... ... : F#3 00 . ... : D-# 00 F ... : ... .. . ... ... : G#2 01 A ... ... : C#3 01 A ... ... : F#2 01 F P80 ...
ROW 39 : ... .. . ... ... ... : ... .. 8 ... ... ... : ... .. . ... : ... .. C ... : ... .. . ... ... : ... .. 9 ... ... : ... .. 9 ... ... : ... .. D ... ...
ROW 3A : ... .. . ... ... ... : ... .. . ... ... ... : ... .. . ... : ... .. 6 ... : ... .. . ... ... : ... .. 8 ... ... : ... .. 8 ... ... : ... .. 8 ... ...
ROW 3B : G-4 00 A P7F ... ... : G#4 00 4 ... ... ... : ... .. . ... : ... .. 3 ... : ... .. . ... ... : --- .. . ... ... : ... .. 7 ... ... : ... .. . ... ...
ROW 3C : ... .. . P81 ... ... : ... .. 3 ... ... ... : ... .. . ... : ... .. 2 ... : ... .. . ... ... : ... .. . ... ... : ... .. . ... ... : ... .. . ... ...
ROW 3D : ... .. . P7E ... ... : ... .. . ... ... ... : --- .. . ... : ... .. 0 ... : ... .. . ... ... : ... .. . ... ... : ... .. 6 ... ... : --- .. . P84 ...
ROW 3E : F#4 00 A P80 ... ... : ... .. 9 ... ... ... : G#3 00 . ... : ... .. F ... : ... .. . ... ... : G#2 01 A ... ... : D#3 01 A ... ... : G#2 01 F P80 ...
ROW 3F : F-4 00 A P82 ... ... : ... .. 8 ... ... ... : ... .. . ... : ... .. C ... : ... .. . ... ... : ... .. 9 ... ... : ... .. 9 ... ... : ... .. D ... ...
ROW 40 : ... .. . P80 ... ... : ... .. . ... ... ... : ... .. . ... : ... .. 6 ... : ... .. . ... ... : ... .. 8 ... ... : ... .. 8 ... ... : ... .. 8 ... ...
ROW 41 : ... .. . P83 ... ... : B-4 00 4 ... ... ... : ... .. . ... : ... .. 3 ... : ... .. . ... ... : --- .. . ... ... : ... .. 7 ... ... : ... .. . ... ...
ROW 42 : F#4 00 A P80 ... ... : ... .. 3 ... ... ... : ... .. . ... : ... .. 2 ... : ... .. . ... ... : ... .. . ... ... : ... .. . ... ... : ... .. . ... ...
ROW 43 : G-4 00 A P7F ... ... : ... .. . ... ... ... : --- .. . ... : ... .. 0 ... : ... .. . ... ... : ... .. . ... ... : ... .. 6 ... ... : --- .. . P7F ...
ROW 44 : F-4 00 F P80 ... ... : C#5 00 9 ... ... ... : C-5 00 . ... : 1-# 00 F ... : ... .. . ... ... : G#2 01 A ... ... : F-3 01 A ... ... : C#2 01 F P80 ...
ROW 45 : ... .. E ... ... ... : ... .. 8 ... ... ... : D-4 00 . ... : ... .. C ... : ... .. . ... ... : ... .. 9 ... ... : ... .. 9 ... ... : ... .. D ... ...
ROW 46 : ... .. D ... ... ... : ... .. . ... ... ... : G-3 00 . ... : ... .. 6 ... : ... .. . ... ... : ... .. 8 ... ... : ... .. 8 ... ... : ... .. 8 ... ...
ROW 47 : ... .. A ... ... ... : G#4 00 4 ... ... ... : F#3 00 . ... : ... .. 3 ... : ... .. . ... ... : ... .. 7 ... ... : ... .. 7 ... ... : ... .. . ... ...
ROW 48 : ... .. 2 ... ... ... : ... .. 3 ... ... ... : C#3 00 . ... : ... .. 2 ... : ... .. . ... ... : ... .. . ... ... : ... .. . ... ... : ... .. . ... ...
ROW 49 : ... .. . ... ... ... : ... .. . ... ... ... : --- .. . ... : ... .. 0 ... : ... .. . ... ... : ... .. 6 ... ... : ... .. 6 ... ... : --- .. . ... ...
ROW 4A : D#4 00 F ... ... ... : ... .. 9 ... ... ... : C#3 00 . ... : D-# 00 F ... : ... .. . ... ... : ... .. . ... ... : C#3 01 A ... ... : C#2 01 F ... ...
ROW 4B : ... .. E ... ... ... : ... .. 8 ... ... ... : ... .. . ... : ... .. C ... : ... .. . ... ... : ... .. 5 ... ... : ... .. 9 ... ... : ... .. D ... ...
ROW 4C : ... .. D ... ... ... : ... .. . ... ... ... : ... .. . ... : ... .. 6 ... : ... .. . ... ... : ... .. . ... ... : ... .. 8 ... ... : ... .. 8 ... ...
ROW 4D : ... .. A ... ... ... : C#5 00 4 ... ... ... : ... .. . ... : ... .. 3 ... : ... .. . ... ... : --- .. . ... ... : ... .. 7 ... ... : ... .. . ... ...
ROW 4E : ... .. 2 ... ... ... : ... .. 3 ... ... ... : ... .. . ... : ... .. 2 ... : ... .. . ... ... : ... .. . ... ... : ... .. . ... ... : ... .. . ... ...
ROW 4F : ... .. . ... ... ... : ... .. . ... ... ... : --- .. . ... : ... .. 0 ... : ... .. . ... ... : ... .. . ... ... : ... .. 6 ... ... : --- .. . ... ...
ROW 50 : F-4 00 F ... ... ... : ... .. 9 ... ... ... : B-3 00 . ... : ... .. F ... : ... .. . ... ... : G#2 01 A ... ... : G#2 01 A ... ... : B-2 01 F ... ...
ROW 51 : ... .. E ... ... ... : ... .. 8 ... ... ... : ... .. . ... : ... .. C ... : ... .. . ... ... : ... .. 9 ... ... : ... .. 9 ... ... : ... .. D ... ...
ROW 52 : ... .. D ... ... ... : ... .. . ... ... ... : ... .. . ... : ... .. 6 ... : ... .. . ... ... : ... .. 8 ... ... : ... .. 8 ... ... : ... .. 8 ... ...
ROW 53 : ... .. A ... ... ... : G#4 00 4 ... ... ... : ... .. . ... : ... .. 3 ... : ... .. . ... ... : ... .. 7 ... ... : ... .. 7 ... ... : ... .. . ... ...
ROW 54 : ... .. . ... ... ... : ... .. 3 ... ... ... : ... .. . ... : ... .. 2 ... : ... .. . ... ... : ... .. . ... ... : ... .. . ... ... : ... .. . ... ...
ROW 55 : ... .. . ... ... ... : ... .. . ... ... ... : --- .. . ... : ... .. 0 ... : ... .. . ... ... : ... .. 6 ... ... : ... .. 6 ... ... : --- .. . P8B ...
ROW 56 : ... .. . ... ... ... : ... .. 9 ... ... ... : C#4 00 . ... : 6-# 00 F ... : ... .. . ... ... : --- .. . ... ... : F-2 01 A ... ... : C#3 01 F P80 ...
ROW 57 : ... .. . ... ... ... : ... .. 8 ... ... ... : ... .. . ... : ... .. C ... : ... .. . ... ... : ... .. . ... ... : ... .. 9 ... ... : ... .. D ... ...
ROW 58 : ... .. . ... ... ... : ... .. . ... ... ... : ... .. . ... : ... .. 6 ... : ... .. . ... ... : ... .. . ... ... : ... .. 8 ... ... : ... .. 8 ... ...
ROW 59 : ... .. . ... ... ... : C#5 00 4 ... ... ... : ... .. . ... : ... .. 3 ... : ... .. . ... ... : ... .. . ... ... : ... .. 7 ... ... : ... .. . ... ...
ROW 5A : ... .. 2 ... ... ... : ... .. 3 ... ... ... : ... .. . ... : ... .. 2 ... : ... .. . ... ... : ... .. . ... ... : ... .. . ... ... : ... .. . ... ...
ROW 5B : ... .. . ... ... ... : ... .. . ... ... ... : --- .. . ... : ... .. 0 ... : ... .. . ... ... : ... .. . ... ... : ... .. 6 ... ... : --- .. . ... ...
ROW 5C : G#3 00 F ... ... ... : ... .. 9 ... ... ... : C#3 00 . ... : 1-# 00 F ... : ... .. . ... ... : G#2 01 A ... ... : G#2 01 A ... ... : C#2 01 F ... ...
ROW 5D : ... .. E ... ... ... : ... .. 8 ... ... ... : ... .. . ... : ... .. C ... : ... .. . ... ... : ... .. 9 ... ... : ... .. 9 ... ... : ... .. D ... ...
ROW 5E : ... .. D ... ... ... : ... .. . ... ... ... : ... .. . ... : ... .. 6 ... : ... .. . ... ... : ... .. 8 ... ... : ... .. 8 ... ... : ... .. 8 ... ...
ROW 5F : ... .. A ... ... ... : G#4 00 4 ... ... ... : ... .. . ... : ... .. 3 ... : ... .. . ... ... : --- .. . ... ... : ... .. 7 ... ... : ... .. . ... ...
ROW 60 : ... .. . ... ... ... : ... .. 3 ... ... ... : ... .. . ... : ... .. 2 ... : ... .. . ... ... : ... .. . ... ... : ... .. . ... ... : ... .. . ... ...
ROW 61 : ... .. . ... ... ... : ... .. . ... ... ... : --- .. . ... : ... .. 0 ... : ... .. . ... ... : ... .. . ... ... : ... .. 6 ... ... : --- .. . ... ...
ROW 62 : ... .. . ... ... ... : ... .. 9 ... ... ... : C#3 00 . ... : 6-# 00 F ... : ... .. . ... ... : G#2 01 A ... ... : C#3 01 A ... ... : C#2 01 F ... ...
ROW 63 : ... .. . ... ... ... : ... .. 8 ... ... ... : ... .. . ... : ... .. C ... : ... .. . ... ... : ... .. 9 ... ... : ... .. 9 ... ... : ... .. D ... ...
ROW 64 : ... .. . ... ... ... : ... .. . ... ... ... : ... .. . ... : ... .. 6 ... : ... .. . ... ... : ... .. 8 ... ... : ... .. 8 ... ... : ... .. 8 ... ...
ROW 65 : ... .. . ... ... ... : C#5 00 4 ... ... ... : ... .. . ... : ... .. 3 ... : ... .. . ... ... : --- .. . ... ... : ... .. 7 ... ... : ... .. . ... ...
ROW 66 : ... .. 2 ... ... ... : ... .. 3 ... ... ... : ... .. . ... : ... .. 2 ... : ... .. . ... ... : ... .. . ... ... : ... .. . ... ... : ... .. . ... ...
ROW 67 : ... .. . ... ... ... : ... .. . ... ... ... : --- .. . ... : ... .. 0 ... : ... .. . ... ... : ... .. . ... ... : ... .. 6 ... ... : --- .. . ... ...
ROW 68 : E-4 00 F ... ... ... : B-4 00 9 ... ... ... : A#4 00 . ... : 1-# 00 F ... : ... .. . ... ... : E-3 01 A ... ... : E-3 01 A ... ... : B-1 01 F ... ...
ROW 69 : ... .. E ... ... ... : ... .. 8 ... ... ... : C-4 00 . ... : ... .. C ... : ... .. . ... ... : ... .. 9 ... ... : ... .. 9 ... ... : ... .. D ... ...
ROW 6A : ... .. D ... ... ... : ... .. . ... ... ... : F-3 00 . ... : ... .. 6 ... : ... .. . ... ... : ... .. 8 ... ... : ... .. 8 ... ... : ... .. 8 ... ...
ROW 6B : ... .. A ... ... ... : G#4 00 4 ... ... ... : E-3 00 . ... : ... .. 3 ... : ... .. . ... ... : ... .. 7 ... ... : ... .. 7 ... ... : ... .. . ... ...
ROW 6C : ... .. 2 ... ... ... : ... .. 3 ... ... ... : B-2 00 . ... : ... .. 2 ... : ... .. . ... ... : ... .. . ... ... : ... .. . ... ... : ... .. . ... ...
ROW 6D : ... .. . ... ... ... : ... .. . ... ... ... : ... .. . ... : ... .. 0 ... : ... .. . ... ... : ... .. 6 ... ... : ... .. 6 ... ... : ... .. . ... ...
ROW 6E : D#4 00 F ... ... ... : ... .. 9 ... ... ... : ... .. . ... : D-# 00 F ... : ... .. . ... ... : --- .. . P82 ... : B-2 01 A ... ... : ... .. . ... ...
ROW 6F : ... .. E ... ... ... : ... .. 8 ... ... ... : ... .. . ... : ... .. C ... : ... .. . ... ... : ... .. . ... ... : ... .. 9 ... ... : ... .. . ... ...
ROW 70 : ... .. D ... ... ... : ... .. . ... ... ... : ... .. . ... : ... .. 6 ... : ... .. . ... ... : ... .. . ... ... : ... .. 8 ... ... : ... .. . ... ...
ROW 71 : ... .. A ... ... ... : B-4 00 4 ... ... ... : ... .. . ... : ... .. 3 ... : ... .. . ... ... : ... .. . ... ... : ... .. 7 ... ... : ... .. . ... ...
ROW 72 : ... .. 2 ... ... ... : ... .. 3 ... ... ... : ... .. . ... : ... .. 2 ... : ... .. . ... ... : ... .. . ... ... : ... .. . ... ... : ... .. . ... ...
ROW 73 : ... .. . ... ... ... : ... .. . ... ... ... : ... .. . ... : ... .. 0 ... : ... .. . ... ... : ... .. . ... ... : ... .. 6 ... ... : ... .. . ... ...
ROW 74 : E-4 00 F ... ... ... : ... .. 9 ... ... ... : ... .. . ... : ... .. F ... : ... .. . ... ... : E-3 01 A P80 ... : G#2 01 A ... ... : ... .. . ... ...
ROW 75 : ... .. E ... ... ... : ... .. 8 ... ... ... : ... .. . ... : ... .. C ... : ... .. . ... ... : ... .. 9 ... ... : ... .. 9 ... ... : ... .. . ... ...
ROW 76 : ... .. D ... ... ... : ... .. . ... ... ... : ... .. . ... : ... .. 6 ... : ... .. . ... ... : ... .. 8 ... ... : ... .. 8 ... ... : ... .. . ... ...
ROW 77 : ... .. A ... ... ... : G#4 00 4 ... ... ... : ... .. . ... : ... .. 3 ... : ... .. . ... ... : ... .. 7 ... ... : ... .. 7 ... ... : ... .. . ... ...
ROW 78 : ... .. . ... ... ... : ... .. 3 ... ... ... : ... .. . ... : ... .. 2 ... : ... .. . ... ... : ... .. . ... ... : ... .. . ... ... : ... .. . ... ...
ROW 79 : ... .. . ... ... ... : ... .. . ... ... ... : --- .. . ... : ... .. 0 ... : ... .. . ... ... : ... .. 6 ... ... : ... .. 6 ... ... : --- .. . P86 ...
ROW 7A : ... .. . ... ... ... : ... .. 9 ... ... ... : G#3 00 . ... : 8-# 00 F ... : ... .. . ... ... : --- .. . P82 ... : G#3 01 A ... ... : G#2 01 F P80 ...
ROW 7B : ... .. . ... ... ... : ... .. 8 ... ... ... : ... .. . ... : ... .. C ... : ... .. . ... ... : ... .. . ... ... : ... .. 9 ... ... : ... .. D ... ...
ROW 7C : ... .. . ... ... ... : ... .. . ... ... ... : ... .. . ... : ... .. 6 ... : ... .. . ... ... : ... .. . ... ... : ... .. 8 ... ... : ... .. 8 ... ...
ROW 7D : ... .. . ... ... ... : B-4 00 4 ... ... ... : ... .. . ... : ... .. 3 ... : ... .. . ... ... : ... .. . ... ... : ... .. 7 ... ... : ... .. . ... ...
ROW 7E : ... .. 2 ... ... ... : ... .. 3 ... ... ... : ... .. . ... : ... .. 2 ... : ... .. . ... ... : ... .. . ... ... : ... .. . ... ... : ... .. . ... ...
ROW 7F : ... .. . ... ... ... : ... .. . ... ... ... : ... .. . ... : ... .. 0 ... : ... .. . ... ... : ... .. . ... ... : ... .. 6 ... ... : ... .. . ... ...
ROW 80 : G#3 00 F ... ... ... : ... .. 9 ... ... ... : ... .. . ... : 4-# 00 F ... : ... .. . ... ... : E-3 01 A P80 ... : E-3 01 A ... ... : ... .. . ... ...
ROW 81 : ... .. E ... ... ... : ... .. 8 ... ... ... : ... .. . ... : ... .. C ... : ... .. . ... ... : ... .. 9 ... ... : ... .. 9 ... ... : ... .. . ... ...
ROW 82 : ... .. D ... ... ... : ... .. . ... ... ... : ... .. . ... : ... .. 6 ... : ... .. . ... ... : ... .. 8 ... ... : ... .. 8 ... ... : ... .. . ... ...
ROW 83 : ... .. A ... ... ... : G#4 00 4 ... ... ... : ... .. . ... : ... .. 3 ... : ... .. . ... ... : --- .. . P82 ... : ... .. 7 ... ... : ... .. . ... ...
ROW 84 : ... .. . ... ... ... : ... .. 3 ... ... ... : ... .. . ... : ... .. 2 ... : ... .. . ... ... : ... .. . ... ... : ... .. . ... ... : ... .. . ... ...
ROW 85 : ... .. . ... ... ... : ... .. . ... ... ... : ... .. . ... : ... .. 0 ... : ... .. . ... ... : ... .. . ... ... : ... .. 6 ... ... : ... .. . ... ...
ROW 86 : ... .. . ... ... ... : ... .. 9 ... ... ... : ... .. . ... : 1-# 00 F ... : ... .. . ... ... : E-3 01 A P80 ... : B-2 01 A ... ... : ... .. . ... ...
ROW 87 : ... .. . ... ... ... : ... .. 8 ... ... ... : ... .. . ... : ... .. C ... : ... .. . ... ... : ... .. 9 ... ... : ... .. 9 ... ... : ... .. . ... ...
ROW 88 : ... .. . ... ... ... : ... .. . ... ... ... : ... .. . ... : ... .. 6 ... : ... .. . ... ... : ... .. 8 ... ... : ... .. 8 ... ... : ... .. . ... ...
ROW 89 : ... .. . ... ... ... : B-4 00 4 ... ... ... : ... .. . ... : ... .. 3 ... : ... .. . ... ... : --- .. . P82 ... : ... .. 7 ... ... : ... .. . ... ...
ROW 8A : ... .. 2 ... ... ... : ... .. 3 ... ... ... : ... .. . ... : ... .. 2 ... : ... .. . ... ... : ... .. . ... ... : ... .. . ... ... : ... .. . ... ...
ROW 8B : ... .. . ... ... ... : ... .. . ... ... ... : --- .. . ... : ... .. 0 ... : ... .. . ... ... : ... .. . ... ... : ... .. 6 ... ... : --- .. . P7F ...
ROW 8C : D#4 00 F ... ... ... : ... .. 9 ... ... ... : D-5 00 . ... : 7-# 00 F ... : ... .. . ... ... : D#3 01 A P80 ... : G#3 01 A ... ... : D#2 01 F P80 ...
ROW 8D : ... .. E ... ... ... : ... .. 8 ... ... ... : E-4 00 . ... : ... .. C ... : ... .. . ... ... : ... .. 9 ... ... : ... .. 9 ... ... : ... .. D ... ...
ROW 8E : ... .. D ... ... ... : ... .. . ... ... ... : A-3 00 . ... : ... .. 6 ... : ... .. . ... ... : ... .. 8 ... ... : ... .. 8 ... ... : ... .. 8 ... ...
ROW 8F : ... .. A ... ... ... : G#4 00 4 ... ... ... : G#3 00 . ... : ... .. 3 ... : ... .. . ... ... : --- .. . P83 ... : ... .. 7 ... ... : ... .. . ... ...
ROW 90 : ... .. 2 ... ... ... : ... .. 3 ... ... ... : D#3 00 . ... : ... .. 2 ... : ... .. . ... ... : ... .. . ... ... : ... .. . ... ... : ... .. . ... ...
ROW 91 : ... .. . ... ... ... : ... .. . ... ... ... : --- .. . ... : ... .. 0 ... : ... .. . ... ... : ... .. . ... ... : ... .. 6 ... ... : --- .. . ... ...
ROW 92 : C#4 00 F ... ... ... : F#4 00 9 ... ... ... : C#3 00 . ... : 3-# 00 F ... : ... .. . ... ... : D#3 01 A P80 ... : D#3 01 A ... ... : C#2 01 F ... ...
ROW 93 : ... .. E ... ... ... : ... .. 8 ... ... ... : ... .. . ... : ... .. C ... : ... .. . ... ... : ... .. 9 ... ... : ... .. 9 ... ... : ... .. D ... ...
ROW 94 : ... .. D ... ... ... : ... .. . ... ... ... : ... .. . ... : ... .. 6 ... : ... .. . ... ... : ... .. 8 ... ... : ... .. 8 ... ... : ... .. 8 ... ...
ROW 95 : ... .. A ... ... ... : B-4 00 4 ... ... ... : ... .. . ... : ... .. 3 ... : ... .. . ... ... : --- .. . P83 ... : ... .. 7 ... ... : ... .. . ... ...
ROW 96 : ... .. 2 ... ... ... : ... .. 3 ... ... ... : ... .. . ... : ... .. 2 ... : ... .. . ... ... : ... .. . ... ... : ... .. . ... ... : ... .. . ... ...
ROW 97 : ... .. . ... ... ... : ... .. . ... ... ... : --- .. . ... : ... .. 0 ... : ... .. . ... ... : ... .. . ... ... : ... .. 6 ... ... : --- .. . ... ...
ROW 98 : D#4 00 F ... ... ... : D#4 00 9 ... ... ... : B-2 00 . ... : 1-# 00 F ... : ... .. . ... ... : C#3 01 A P80 ... : B-2 01 A ... ... : B-1 01 F ... ...
ROW 99 : ... .. E ... ... ... : ... .. 8 ... ... ... : ... .. . ... : ... .. C ... : ... .. . ... ... : ... .. 9 ... ... : ... .. 9 ... ... : ... .. D ... ...
ROW 9A : ... .. D ... ... ... : ... .. . ... ... ... : ... .. . ... : ... .. 6 ... : ... .. . ... ... : ... .. 8 ... ... : ... .. 8 ... ... : ... .. 8 ... ...
ROW 9B : ... .. A ... ... ... : F#4 00 4 ... ... ... : ... .. . ... : ... .. 3 ... : ... .. . ... ... : --- .. . P83 ... : ... .. 7 ... ... : ... .. . ... ...
ROW 9C : ... .. . ... ... ... : ... .. 3 ... ... ... : ... .. . ... : ... .. 2 ... : ... .. . ... ... : ... .. . ... ... : ... .. . ... ... : ... .. . ... ...
ROW 9D : ... .. . ... ... ... : ... .. . ... ... ... : --- .. . ... : ... .. 0 ... : ... .. . ... ... : ... .. . ... ... : ... .. 6 ... ... : --- .. . P86 ...
ROW 9E : E-4 00 A P7D ... ... : A#4 00 9 ... ... ... : A#2 00 . ... : 6-# 00 F ... : ... .. . ... ... : D#3 01 A P80 ... : C#3 01 A ... ... : A#1 01 F P80 ...
ROW 9F : ... .. . P7F ... ... : ... .. 8 ... ... ... : ... .. . ... : ... .. C ... : ... .. . ... ... : ... .. 9 ... ... : ... .. 9 ... ... : ... .. D ... ...
ROW A0 : ... .. . P7C ... ... : ... .. . ... ... ... : ... .. . ... : ... .. 6 ... : ... .. . ... ... : ... .. 8 ... ... : ... .. 8 ... ... : ... .. 8 ... ...
ROW A1 : D#4 00 A P80 ... ... : D#4 00 4 ... ... ... : ... .. . ... : ... .. 3 ... : ... .. . ... ... : ... .. 7 ... ... : ... .. 7 ... ... : ... .. . ... ...
ROW A2 : D-4 00 2 P83 ... ... : ... .. 3 ... ... ... : ... .. . ... : ... .. 2 ... : ... .. . ... ... : ... .. . ... ... : ... .. . ... ... : ... .. . ... ...
ROW A3 : ... .. . P81 ... ... : ... .. . ... ... ... : --- .. . ... : ... .. 0 ... : ... .. . ... ... : ... .. 6 ... ... : ... .. 6 ... ... : --- .. . ... ...
ROW A4 : F#3 00 F P80 ... ... : F#4 00 9 ... ... ... : G#2 00 . ... : 2-# 00 F ... : ... .. . ... ... : ... .. . ... ... : B-2 01 A ... ... : G#1 01 F ... ...
ROW A5 : ... .. E ... ... ... : ... .. 8 ... ... ... : ... .. . ... : ... .. C ... : ... .. . ... ... : ... .. 5 ... ... : ... .. 9 ... ... : ... .. D ... ...
ROW A6 : ... .. D ... ... ... : ... .. . ... ... ... : ... .. . ... : ... .. 6 ... : ... .. . ... ... : ... .. . ... ... : ... .. 8 ... ... : ... .. 8 ... ...
ROW A7 : ... .. A ... ... ... : A#4 00 4 ... ... ... : ... .. . ... : ... .. 3 ... : ... .. . ... ... : ... .. . P8A ... : ... .. 7 ... ... : ... .. . ... ...
ROW A8 : ... .. 2 ... ... ... : ... .. 3 ... ... ... : ... .. . ... : ... .. 2 ... : ... .. . ... ... : E-3 01 5 P7B ... : ... .. . ... ... : ... .. . ... ...
ROW A9 : ... .. . ... ... ... : ... .. . ... ... ... : --- .. . ... : ... .. 0 ... : ... .. . ... ... : ... .. . P79 ... : ... .. 6 ... ... : --- .. . P7E ...
ROW AA : G#3 00 F ... ... ... : C#4 00 9 ... ... ... : F#2 00 . ... : 1-# 00 F ... : ... .. . ... ... : D#3 01 5 P84 ... : A#2 01 A ... ... : F#1 01 F P80 ...
ROW AB : ... .. E ... ... ... : ... .. 8 ... ... ... : ... .. . ... : ... .. C ... : ... .. . ... ... : ... .. . P7C ... : ... .. 9 ... ... : ... .. D ... ...
ROW AC : ... .. D ... ... ... : ... .. . ... ... ... : ... .. . ... : ... .. 6 ... : ... .. . ... ... : D-3 01 5 P87 ... : ... .. 8 ... ... : ... .. 8 ... ...
ROW AD : ... .. A ... ... ... : F#4 00 4 ... ... ... : ... .. . ... : ... .. 3 ... : ... .. . ... ... : ... .. . P85 ... : ... .. 7 ... ... : ... .. . ... ...
ROW AE : ... .. 2 ... ... ... : ... .. 3 ... ... ... : ... .. . ... : ... .. 2 ... : ... .. . ... ... : D#3 01 5 P76 ... : ... .. . ... ... : ... .. . ... ...
ROW AF : ... .. . ... ... ... : ... .. . ... ... ... : --- .. . ... : ... .. 0 ... : ... .. . ... ... : ... .. . P80 ... : ... .. 6 ... ... : --- .. . P81 ...
ROW B0 : D#4 00 F ... ... ... : B-4 00 9 ... ... ... : G-4 00 . ... : ... .. F ... : ... .. . ... ... : G#3 01 A ... ... : B-2 01 A ... ... : G#1 01 F P80 ...
ROW B1 : ... .. E ... ... ... : ... .. 8 ... ... ... : A-3 00 . ... : ... .. C ... : ... .. . ... ... : ... .. 9 ... ... : ... .. 9 ... ... : ... .. D ... ...
ROW B2 : ... .. D ... ... ... : ... .. . ... ... ... : D-3 00 . ... : ... .. 6 ... : ... .. . ... ... : ... .. 8 ... ... : ... .. 8 ... ... : ... .. 8 ... ...
ROW B3 : ... .. A ... ... ... : C#4 00 4 ... ... ... : C#3 00 . ... : ... .. 3 ... : ... .. . ... ... : ... .. 7 ... ... : ... .. 7 ... ... : ... .. . ... ...
ROW B4 : ... .. . ... ... ... : ... .. 3 ... ... ... : G#2 00 . ... : ... .. 2 ... : ... .. . ... ... : ... .. . ... ... : ... .. . ... ... : ... .. . ... ...
ROW B5 : ... .. . ... ... ... : ... .. . ... ... ... : --- .. . ... : ... .. 0 ... : ... .. . ... ... : ... .. 6 ... ... : ... .. 6 ... ... : --- .. . P7E ...
ROW B6 : ... .. . ... ... ... : G#4 00 9 ... ... ... : G#2 00 . ... : D-# 00 F ... : ... .. . ... ... : ... .. . ... ... : G#2 01 A ... ... : G#1 01 F P80 ...
ROW B7 : ... .. . ... ... ... : ... .. 8 ... ... ... : ... .. . ... : ... .. C ... : ... .. . ... ... : ... .. 5 ... ... : ... .. 9 ... ... : ... .. D ... ...
ROW B8 : ... .. . ... ... ... : ... .. . ... ... ... : ... .. . ... : ... .. 6 ... : ... .. . ... ... : ... .. . ... ... : ... .. 8 ... ... : ... .. 8 ... ...
ROW B9 : ... .. . ... ... ... : B-4 00 4 ... ... ... : ... .. . ... : ... .. 3 ... : ... .. . ... ... : --- .. . P82 ... : ... .. 7 ... ... : ... .. . ... ...
ROW BA : ... .. . ... ... ... : ... .. 3 ... ... ... : ... .. . ... : ... .. 2 ... : ... .. . ... ... : ... .. . ... ... : ... .. . ... ... : ... .. . ... ...
ROW BB : ... .. . ... ... ... : ... .. . ... ... ... : ... .. . ... : ... .. 0 ... : ... .. . ... ... : ... .. . ... ... : ... .. 6 ... ... : ... .. . ... ...
ROW BC : ... .. . ... ... ... : ... .. 9 ... ... ... : ... .. . ... : ... .. F ... : ... .. . ... ... : G#3 01 A P80 ... : D#2 01 A ... ... : ... .. . ... ...
ROW BD : ... .. . ... ... ... : ... .. 8 ... ... ... : ... .. . ... : ... .. C ... : ... .. . ... ... : ... .. 9 ... ... : ... .. 9 ... ... : ... .. . ... ...
ROW BE : ... .. . ... ... ... : ... .. . ... ... ... : ... .. . ... : ... .. 6 ... : ... .. . ... ... : ... .. 8 ... ... : ... .. 8 ... ... : ... .. . ... ...
ROW BF : ... .. . ... ... ... : G#4 00 4 ... ... ... : ... .. . ... : ... .. 3 ... : ... .. . ... ... : ... .. 7 ... ... : ... .. 7 ... ... : ... .. . ... ...
ROW C0 : ... .. 2 ... ... ... : ... .. 3 ... ... ... : ... .. . ... : ... .. 2 ... : ... .. . ... ... : ... .. . ... ... : ... .. . ... ... : ... .. . ... ...
ROW C1 : ... .. . ... ... ... : ... .. . ... ... ... : --- .. . ... : ... .. 0 ... : ... .. . ... ... : ... .. 6 ... ... : ... .. 6 ... ... : --- .. . P7E ...
ROW C2 : F#4 00 F ... ... ... : ... .. 9 ... ... ... : G#3 00 . ... : 6-# 00 F ... : ... .. . ... ... : ... .. . ... ... : D#3 01 A ... ... : G#2 01 F P80 ...
ROW C3 : ... .. E ... ... ... : ... .. 8 ... ... ... : ... .. . ... : ... .. C ... : ... .. . ... ... : ... .. 5 ... ... : ... .. 9 ... ... : ... .. D ... ...
ROW C4 : ... .. D ... ... ... : ... .. . ... ... ... : ... .. . ... : ... .. 6 ... : ... .. . ... ... : ... .. . ... ... : ... .. 8 ... ... : ... .. 8 ... ...
ROW C5 : ... .. A ... ... ... : B-4 00 4 ... ... ... : ... .. . ... : ... .. 3 ... : ... .. . ... ... : --- .. . P82 ... : ... .. 7 ... ... : ... .. . ... ...
ROW C6 : ... .. . ... ... ... : ... .. 3 ... ... ... : ... .. . ... : ... .. 2 ... : ... .. . ... ... : ... .. . ... ... : ... .. . ... ... : ... .. . ... ...
ROW C7 : ... .. . ... ... ... : ... .. . ... ... ... : ... .. . ... : ... .. 0 ... : ... .. . ... ... : ... .. . ... ... : ... .. 6 ... ... : ... .. . ... ...
ROW C8 : ... .. . ... ... ... : ... .. 9 ... ... ... : ... .. . ... : D-# 00 F ... : ... .. . ... ... : G#3 01 A P80 ... : B-2 01 A ... ... : ... .. . ... ...
ROW C9 : ... .. . ... ... ... : ... .. 8 ... ... ... : ... .. . ... : ... .. C ... : ... .. . ... ... : ... .. 9 ... ... : ... .. 9 ... ... : ... .. . ... ...
ROW CA : ... .. . ... ... ... : ... .. . ... ... ... : ... .. . ... : ... .. 6 ... : ... .. . ... ... : ... .. 8 ... ... : ... .. 8 ... ... : ... .. . ... ...
ROW CB : G-4 00 A P7F ... ... : G#4 00 4 ... ... ... : ... .. . ... : ... .. 3 ... : ... .. . ... ... : --- .. . P82 ... : ... .. 7 ... ... : ... .. . ... ...
ROW CC : ... .. . P81 ... ... : ... .. 3 ... ... ... : ... .. . ... : ... .. 2 ... : ... .. . ... ... : ... .. . ... ... : ... .. . ... ... : ... .. . ... ...
ROW CD : ... .. . P7E ... ... : ... .. . ... ... ... : --- .. . ... : ... .. 0 ... : ... .. . ... ... : ... .. . ... ... : ... .. 6 ... ... : --- .. . P7F ...
ROW CE : F#4 00 A P80 ... ... : ... .. 9 ... ... ... : G#2 00 . ... : ... .. F ... : ... .. . ... ... : G#3 01 A P80 ... : G#2 01 A ... ... : G#1 01 F P80 ...
ROW CF : F-4 00 A P82 ... ... : ... .. 8 ... ... ... : ... .. . ... : ... .. C ... : ... .. . ... ... : ... .. 9 ... ... : ... .. 9 ... ... : ... .. D ... ...
ROW D0 : ... .. . P80 ... ... : ... .. . ... ... ... : ... .. . ... : ... .. 6 ... : ... .. . ... ... : ... .. 8 ... ... : ... .. 8 ... ... : ... .. 8 ... ...
ROW D1 : ... .. . P83 ... ... : B-4 00 4 ... ... ... : ... .. . ... : ... .. 3 ... : ... .. . ... ... : --- .. . P82 ... : ... .. 7 ... ... : ... .. . ... ...
ROW D2 : F#4 00 2 P80 ... ... : ... .. 3 ... ... ... : ... .. . ... : ... .. 2 ... : ... .. . ... ... : ... .. . ... ... : ... .. . ... ... : ... .. . ... ...
ROW D3 : G-4 00 2 P7F ... ... : ... .. . ... ... ... : --- .. . ... : ... .. 0 ... : ... .. . ... ... : ... .. . ... ... : ... .. 6 ... ... : --- .. . P7E ...
ROW D4 : F-4 00 F P80 ... ... : C#5 00 9 ... ... ... : C-5 00 . ... : 1-# 00 F ... : ... .. . ... ... : G#3 01 A P80 ... : F-3 01 A ... ... : C#2 01 F P80 ...
ROW D5 : ... .. E ... ... ... : ... .. 8 ... ... ... : D-4 00 . ... : ... .. C ... : ... .. . ... ... : ... .. 9 ... ... : ... .. 9 ... ... : ... .. D ... ...
ROW D6 : ... .. D ... ... ... : ... .. . ... ... ... : G-3 00 . ... : ... .. 6 ... : ... .. . ... ... : ... .. 8 ... ... : ... .. 8 ... ... : ... .. 8 ... ...
ROW D7 : ... .. A ... ... ... : G#4 00 4 ... ... ... : F#3 00 . ... : ... .. 3 ... : ... .. . ... ... : ... .. 7 ... ... : ... .. 7 ... ... : ... .. . ... ...
ROW D8 : ... .. 2 ... ... ... : ... .. 3 ... ... ... : C#3 00 . ... : ... .. 2 ... : ... .. . ... ... : ... .. . ... ... : ... .. . ... ... : ... .. . ... ...
ROW D9 : ... .. . ... ... ... : ... .. . ... ... ... : --- .. . ... : ... .. 0 ... : ... .. . ... ... : ... .. 6 ... ... : ... .. 6 ... ... : --- .. . ... ...
ROW DA : D#4 00 F ... ... ... : ... .. 9 ... ... ... : C#3 00 . ... : D-# 00 F ... : ... .. . ... ... : ... .. . ... ... : C#3 01 A ... ... : C#2 01 F ... ...
ROW DB : ... .. E ... ... ... : ... .. 8 ... ... ... : ... .. . ... : ... .. C ... : ... .. . ... ... : ... .. 5 ... ... : ... .. 9 ... ... : ... .. D ... ...
ROW DC : ... .. D ... ... ... : ... .. . ... ... ... : ... .. . ... : ... .. 6 ... : ... .. . ... ... : ... .. . ... ... : ... .. 8 ... ... : ... .. 8 ... ...
ROW DD : ... .. A ... ... ... : C#5 00 4 ... ... ... : ... .. . ... : ... .. 3 ... : ... .. . ... ... : --- .. . P82 ... : ... .. 7 ... ... : ... .. . ... ...
ROW DE : ... .. 2 ... ... ... : ... .. 3 ... ... ... : ... .. . ... : ... .. 2 ... : ... .. . ... ... : ... .. . ... ... : ... .. . ... ... : ... .. . ... ...
ROW DF : ... .. . ... ... ... : ... .. . ... ... ... : --- .. . ... : ... .. 0 ... : ... .. . ... ... : ... .. . ... ... : ... .. 6 ... ... : --- .. . ... ...
ROW E0 : F-4 00 F ... ... ... : ... .. 9 ... ... ... : B-3 00 . ... : ... .. F ... : ... .. . ... ... : G#3 01 A P80 ... : G#2 01 A ... ... : B-2 01 F ... ...
ROW E1 : ... .. E ... ... ... : ... .. 8 ... ... ... : ... .. . ... : ... .. C ... : ... .. . ... ... : ... .. 9 ... ... : ... .. 9 ... ... : ... .. D ... ...
ROW E2 : ... .. D ... ... ... : ... .. . ... ... ... : ... .. . ... : ... .. 6 ... : ... .. . ... ... : ... .. 8 ... ... : ... .. 8 ... ... : ... .. 8 ... ...
ROW E3 : ... .. A ... ... ... : G#4 00 4 ... ... ... : ... .. . ... : ... .. 3 ... : ... .. . ... ... : ... .. 7 ... ... : ... .. 7 ... ... : ... .. . ... ...
ROW E4 : ... .. . ... ... ... : ... .. 3 ... ... ... : ... .. . ... : ... .. 2 ... : ... .. . ... ... : ... .. . ... ... : ... .. . ... ... : ... .. . ... ...
ROW E5 : ... .. . ... ... ... : ... .. . ... ... ... : --- .. . ... : ... .. 0 ... : ... .. . ... ... : ... .. 6 ... ... : ... .. 6 ... ... : --- .. . P8B ...
ROW E6 : ... .. . ... ... ... : ... .. 9 ... ... ... : C#4 00 . ... : 6-# 00 F ... : ... .. . ... ... : --- .. . P82 ... : G#3 01 A ... ... : C#3 01 F P80 ...
ROW E7 : ... .. . ... ... ... : ... .. 8 ... ... ... : ... .. . ... : ... .. C ... : ... .. . ... ... : ... .. . ... ... : ... .. 9 ... ... : ... .. D ... ...
ROW E8 : ... .. . ... ... ... : ... .. . ... ... ... : ... .. . ... : ... .. 6 ... : ... .. . ... ... : ... .. . ... ... : ... .. 8 ... ... : ... .. 8 ... ...
ROW E9 : ... .. . ... ... ... : C#5 00 4 ... ... ... : ... .. . ... : ... .. 3 ... : ... .. . ... ... : ... .. . ... ... : ... .. 7 ... ... : ... .. . ... ...
ROW EA : ... .. 2 ... ... ... : ... .. 3 ... ... ... : ... .. . ... : ... .. 2 ... : ... .. . ... ... : ... .. . ... ... : ... .. . ... ... : ... .. . ... ...
ROW EB : ... .. . ... ... ... : ... .. . ... ... ... : --- .. . ... : ... .. 0 ... : ... .. . ... ... : ... .. . ... ... : ... .. 6 ... ... : --- .. . ... ...
ROW EC : G#3 00 F ... ... ... : ... .. 9 ... ... ... : F-4 00 . ... : 1-# 00 F ... : ... .. . ... ... : G#3 01 A P80 ... : F-3 01 A ... ... : F-3 01 F ... ...
ROW ED : ... .. E ... ... ... : ... .. 8 ... ... ... : ... .. . ... : ... .. C ... : ... .. . ... ... : ... .. 9 ... ... : ... .. 9 ... ... : ... .. D ... ...
ROW EE : ... .. D ... ... ... : ... .. . ... ... ... : ... .. . ... : ... .. 6 ... : ... .. . ... ... : ... .. 8 ... ... : ... .. 8 ... ... : ... .. 8 ... ...
ROW EF : ... .. A ... ... ... : G#4 00 4 ... ... ... : ... .. . ... : ... .. 3 ... : ... .. . ... ... : --- .. . P82 ... : ... .. 7 ... ... : ... .. . ... ...
ROW F0 : ... .. . ... ... ... : ... .. 3 ... ... ... : ... .. . ... : ... .. 2 ... : ... .. . ... ... : ... .. . ... ... : ... .. . ... ... : ... .. . ... ...
ROW F1 : ... .. . ... ... ... : ... .. . ... ... ... : --- .. . ... : ... .. 0 ... : ... .. . ... ... : ... .. . ... ... : ... .. 6 ... ... : --- .. . P7F ...
ROW F2 : ... .. . ... ... ... : ... .. 9 ... ... ... : F#4 00 . ... : 6-# 00 F ... : ... .. . ... ... : G#3 01 A P80 ... : C#3 01 A ... ... : F#3 01 F P80 ...
ROW F3 : ... .. . ... ... ... : ... .. 8 ... ... ... : ... .. . ... : ... .. C ... : ... .. . ... ... : ... .. 9 ... ... : ... .. 9 ... ... : ... .. D ... ...
ROW F4 : ... .. . ... ... ... : ... .. . ... ... ... : ... .. . ... : ... .. 6 ... : ... .. . ... ... : ... .. 8 ... ... : ... .. 8 ... ... : ... .. 8 ... ...
ROW F5 : ... .. . ... ... ... : C#5 00 4 ... ... ... : ... .. . ... : ... .. 3 ... : ... .. . ... ... : --- .. . P82 ... : ... .. 7 ... ... : ... .. . ... ...
ROW F6 : ... .. 2 ... ... ... : ... .. 3 ... ... ... : ... .. . ... : ... .. 2 ... : ... .. . ... ... : ... .. . ... ... : ... .. . ... ... : ... .. . ... ...
ROW F7 : ... .. . ... ... ... : ... .. . ... ... ... : --- .. . ... : ... .. 0 ... : ... .. . ... ... : ... .. . ... ... : ... .. 6 ... ... : --- .. . P82 ...
ROW F8 : E-4 00 F ... ... ... : B-4 00 9 ... ... ... : G-6 00 . ... : 1-# 00 F ... : ... .. . ... ... : G#3 01 A P80 ... : E-4 01 A ... ... : G#3 01 F P80 ...
ROW F9 : ... .. E ... ... ... : ... .. 8 ... ... ... : A-5 00 . ... : ... .. C ... : ... .. . ... ... : ... .. 9 ... ... : ... .. 9 ... ... : ... .. D ... ...
ROW FA : ... .. D ... ... ... : ... .. . ... ... ... : D-5 00 . ... : ... .. 6 ... : ... .. . ... ... : ... .. 8 ... ... : ... .. 8 ... ... : ... .. 8 ... ...
ROW FB : ... .. A ... ... ... : G#4 00 4 ... ... ... : C#5 00 . ... : ... .. 3 ... : ... .. . ... ... : --- .. . P82 ... : ... .. 7 ... ... : ... .. . ... ...
ROW FC : ... .. . ... ... ... : ... .. 3 ... ... ... : G#4 00 . ... : ... .. 2 ... : ... .. . ... ... : ... .. . ... ... : ... .. . ... ... : ... .. . ... ...
ROW FD : ... .. . ... ... ... : ... .. . ... ... ... : ... .. . ... : ... .. 0 ... : ... .. . ... ... : ... .. . ... ... : ... .. 6 ... ... : ... .. . ... ...
ROW FE : D#4 00 F ... ... ... : E-4 00 9 ... ... ... : ... .. . ... : D-# 00 F ... : ... .. . ... ... : G#3 01 A P80 ... : B-3 01 A ... ... : ... .. . ... ...
ROW FF : ... .. E ... ... ... : ... .. 8 ... ... ... : ... .. . ... : ... .. C ... : ... .. . ... ... : ... .. 9 ... ... : ... .. 9 ... ... : ... .. . ... ...

PATTERN 14
ROW 00 : ... .. D ... ... ... : ... .. . ... ... ... : ... .. . ... : ... .. 6 ... : ... .. . ... ... : ... .. 8 ... ... : ... .. 8 ... ... : ... .. . ... ...
ROW 01 : ... .. A ... ... ... : B-4 00 4 ... ... ... : ... .. . ... : ... .. 3 ... : ... .. . ... ... : --- .. . P82 ... : ... .. 7 ... ... : ... .. . ... ...
ROW 02 : ... .. 2 ... ... ... : ... .. 3 ... ... ... : ... .. . ... : ... .. 2 ... : ... .. . ... ... : ... .. . ... ... : ... .. . ... ... : ... .. . ... ...
ROW 03 : ... .. . ... ... ... : ... .. . ... ... ... : ... .. . ... : ... .. 0 ... : ... .. . ... ... : ... .. . ... ... : ... .. 6 ... ... : ... .. . ... ...
ROW 04 : E-4 00 F ... ... ... : G#3 00 9 ... ... ... : ... .. . ... : ... .. F ... : ... .. . ... ... : G#3 01 A P80 ... : G#3 01 A ... ... : ... .. . ... ...
ROW 05 : ... .. E ... ... ... : ... .. 8 ... ... ... : ... .. . ... : ... .. C ... : ... .. . ... ... : ... .. 9 ... ... : ... .. 9 ... ... : ... .. . ... ...
ROW 06 : ... .. D ... ... ... : ... .. . ... ... ... : ... .. . ... : ... .. 6 ... : ... .. . ... ... : ... .. 8 ... ... : ... .. 8 ... ... : ... .. . ... ...
ROW 07 : ... .. A ... ... ... : ... .. 7 ... ... ... : ... .. . ... : ... .. 3 ... : ... .. . ... ... : --- .. . P82 ... : ... .. 7 ... ... : ... .. . ... ...
ROW 08 : ... .. 2 ... ... ... : ... .. 5 ... ... ... : ... .. . ... : ... .. 2 ... : ... .. . ... ... : ... .. . ... ... : ... .. . ... ... : ... .. . ... ...
ROW 09 : ... .. . ... ... ... : ... .. . ... ... ... : --- .. . ... : ... .. 0 ... : ... .. . ... ... : ... .. . ... ... : ... .. 6 ... ... : --- .. . P7F ...
ROW 0A : F#4 00 F ... ... ... : C#5 00 9 ... ... ... : A-6 00 . ... : 8-# 00 F ... : ... .. . ... ... : F#3 01 A P80 ... : F#4 01 A ... ... : A#3 01 F P80 ...
ROW 0B : ... .. E ... ... ... : ... .. 8 ... ... ... : B-5 00 . ... : ... .. C ... : ... .. . ... ... : ... .. 9 ... ... : ... .. 9 ... ... : ... .. D ... ...
ROW 0C : ... .. D ... ... ... : ... .. . ... ... ... : E-5 00 . ... : ... .. 6 ... : ... .. . ... ... : ... .. 8 ... ... : ... .. 8 ... ... : ... .. 8 ... ...
ROW 0D : ... .. A ... ... ... : ... .. 7 ... ... ... : D#5 00 . ... : ... .. 3 ... : ... .. . ... ... : ... .. 7 ... ... : ... .. 7 ... ... : ... .. . ... ...
ROW 0E : ... .. . ... ... ... : ... .. 5 ... ... ... : A#4 00 . ... : ... .. 2 ... : ... .. . ... ... : ... .. . ... ... : ... .. . ... ... : ... .. . ... ...
ROW 0F : ... .. . ... ... ... : ... .. . ... ... ... : ... .. . ... : ... .. 0 ... : ... .. . ... ... : ... .. 6 ... ... : ... .. 6 ... ... : ... .. . ... ...
ROW 10 : C#4 00 F ... ... ... : F#4 00 9 ... ... ... : ... .. . ... : 4-# 00 F ... : ... .. . ... ... : ... .. . ... ... : C#4 01 A ... ... : ... .. . ... ...
ROW 11 : ... .. E ... ... ... : ... .. 8 ... ... ... : ... .. . ... : ... .. C ... : ... .. . ... ... : ... .. 5 ... ... : ... .. 9 ... ... : ... .. . ... ...
ROW 12 : ... .. D ... ... ... : ... .. . ... ... ... : ... .. . ... : ... .. 6 ... : ... .. . ... ... : ... .. . ... ... : ... .. 8 ... ... : ... .. . ... ...
ROW 13 : ... .. A ... ... ... : ... .. 7 ... ... ... : ... .. . ... : ... .. 3 ... : ... .. . ... ... : ... .. . ... ... : ... .. 7 ... ... : ... .. . ... ...
ROW 14 : ... .. 2 ... ... ... : ... .. 5 ... ... ... : ... .. . ... : ... .. 2 ... : ... .. . ... ... : ... .. . ... ... : ... .. . ... ... : ... .. . ... ...
ROW 15 : ... .. . ... ... ... : ... .. . ... ... ... : ... .. . ... : ... .. 0 ... : ... .. . ... ... : ... .. . ... ... : ... .. 6 ... ... : ... .. . ... ...
ROW 16 : F#4 00 F ... ... ... : A#3 00 9 ... ... ... : ... .. . ... : 1-# 00 F ... : ... .. . ... ... : ... .. . ... ... : A#3 01 A ... ... : ... .. . ... ...
ROW 17 : ... .. E ... ... ... : ... .. 8 ... ... ... : ... .. . ... : ... .. C ... : ... .. . ... ... : ... .. . ... ... : ... .. 9 ... ... : ... .. . ... ...
ROW 18 : ... .. D ... ... ... : ... .. . ... ... ... : ... .. . ... : ... .. 6 ... : ... .. . ... ... : ... .. . ... ... : ... .. 8 ... ... : ... .. . ... ...
ROW 19 : ... .. A ... ... ... : ... .. 7 ... ... ... : ... .. . ... : ... .. 3 ... : ... .. . ... ... : ... .. . ... ... : ... .. 7 ... ... : ... .. . ... ...
ROW 1A : ... .. 2 ... ... ... : ... .. 5 ... ... ... : ... .. . ... : ... .. 2 ... : ... .. . ... ... : ... .. . ... ... : ... .. . ... ... : ... .. . ... ...
ROW 1B : ... .. . ... ... ... : ... .. . ... ... ... : --- .. . ... : ... .. 0 ... : ... .. . ... ... : ... .. . ... ... : ... .. 6 ... ... : --- .. . ... ...
ROW 1C : D#4 00 F ... ... ... : D#6 00 9 ... ... ... : A#6 00 . ... : 7-# 00 F ... : ... .. . ... ... : D#3 01 A ... ... : D#4 01 A ... ... : B-3 01 F ... ...
ROW 1D : ... .. E ... ... ... : ... .. 8 ... ... ... : C-6 00 . ... : ... .. C ... : ... .. . ... ... : ... .. 9 ... ... : ... .. 9 ... ... : ... .. D ... ...
ROW 1E : ... .. D ... ... ... : ... .. . ... ... ... : F-5 00 . ... : ... .. 6 ... : ... .. . ... ... : ... .. 8 ... ... : ... .. 8 ... ... : ... .. 8 ... ...
ROW 1F : ... .. A ... ... ... : B-5 00 9 ... ... ... : E-5 00 . ... : ... .. 3 ... : ... .. . ... ... : --- .. . P83 ... : ... .. 7 ... ... : ... .. . ... ...
ROW 20 : ... .. . ... ... ... : ... .. 8 ... ... ... : B-4 00 . ... : ... .. 2 ... : ... .. . ... ... : ... .. . ... ... : ... .. . ... ... : ... .. . ... ...
ROW 21 : ... .. . ... ... ... : ... .. . ... ... ... : --- .. . ... : ... .. 0 ... : ... .. . ... ... : ... .. . ... ... : ... .. 6 ... ... : --- .. . P8E ...
ROW 22 : ... .. . ... ... ... : F#5 00 9 ... ... ... : F#4 00 . ... : 3-# 00 F ... : ... .. . ... ... : D#3 01 A P80 ... : B-3 01 A ... ... : F#3 01 F P80 ...
ROW 23 : ... .. . ... ... ... : ... .. 8 ... ... ... : ... .. . ... : ... .. C ... : ... .. . ... ... : ... .. 9 ... ... : ... .. 9 ... ... : ... .. D ... ...
ROW 24 : ... .. . ... ... ... : ... .. . ... ... ... : ... .. . ... : ... .. 6 ... : ... .. . ... ... : ... .. 8 ... ... : ... .. 8 ... ... : ... .. 8 ... ...
ROW 25 : ... .. . ... ... ... : D#5 00 9 ... ... ... : ... .. . ... : ... .. 3 ... : ... .. . ... ... : --- .. . P83 ... : ... .. 7 ... ... : ... .. . ... ...
ROW 26 : ... .. . ... ... ... : ... .. 8 ... ... ... : ... .. . ... : ... .. 2 ... : ... .. . ... ... : ... .. . ... ... : ... .. . ... ... : ... .. . ... ...
ROW 27 : ... .. . ... ... ... : ... .. . ... ... ... : --- .. . ... : ... .. 0 ... : ... .. . ... ... : ... .. . ... ... : ... .. 6 ... ... : --- .. . P82 ...
ROW 28 : ... .. . ... ... ... : B-4 00 9 ... ... ... : D#4 00 . ... : 1-# 00 F ... : ... .. . ... ... : D#3 01 A P80 ... : F#3 01 A ... ... : D#3 01 F P80 ...
ROW 29 : ... .. . ... ... ... : ... .. 8 ... ... ... : ... .. . ... : ... .. C ... : ... .. . ... ... : ... .. 9 ... ... : ... .. 9 ... ... : ... .. D ... ...
ROW 2A : ... .. . ... ... ... : ... .. . ... ... ... : ... .. . ... : ... .. 6 ... : ... .. . ... ... : ... .. 8 ... ... : ... .. 8 ... ... : ... .. 8 ... ...
ROW 2B : ... .. . ... ... ... : F#4 00 9 ... ... ... : ... .. . ... : ... .. 3 ... : ... .. . ... ... : --- .. . P83 ... : ... .. 7 ... ... : ... .. . ... ...
ROW 2C : ... .. 2 ... ... ... : ... .. 8 ... ... ... : ... .. . ... : ... .. 2 ... : ... .. . ... ... : ... .. . ... ... : ... .. . ... ... : ... .. . ... ...
ROW 2D : ... .. . ... ... ... : ... .. . ... ... ... : --- .. . ... : ... .. 0 ... : ... .. . ... ... : ... .. . ... ... : ... .. 6 ... ... : --- .. . P7F ...
ROW 2E : C#4 00 F ... ... ... : C#6 00 9 ... ... ... : G#6 00 . ... : 6-# 00 F ... : ... .. . ... ... : C#3 01 A P80 ... : C#4 01 A ... ... : A-3 01 F P80 ...
ROW 2F : ... .. E ... ... ... : ... .. 8 ... ... ... : A#5 00 . ... : ... .. C ... : ... .. . ... ... : ... .. 9 ... ... : ... .. 9 ... ... : ... .. D ... ...
ROW 30 : ... .. D ... ... ... : ... .. . ... ... ... : D#5 00 . ... : ... .. 6 ... : ... .. . ... ... : ... .. 8 ... ... : ... .. 8 ... ... : ... .. 8 ... ...
ROW 31 : ... .. A ... ... ... : A-5 00 9 ... ... ... : D-5 00 . ... : ... .. 3 ... : ... .. . ... ... : ... .. 7 ... ... : ... .. 7 ... ... : ... .. . ... ...
ROW 32 : ... .. . ... ... ... : ... .. 8 ... ... ... : A-4 00 . ... : ... .. 2 ... : ... .. . ... ... : ... .. . ... ... : ... .. . ... ... : ... .. . ... ...
ROW 33 : ... .. . ... ... ... : ... .. . ... ... ... : --- .. . ... : ... .. 0 ... : ... .. . ... ... : ... .. 6 ... ... : ... .. 6 ... ... : --- .. . P81 ...
ROW 34 : ... .. . ... ... ... : F#5 00 9 ... ... ... : F#4 00 . ... : 2-# 00 F ... : ... .. . ... ... : ... .. . ... ... : A-3 01 A ... ... : F#3 01 F P80 ...
ROW 35 : ... .. . ... ... ... : ... .. 8 ... ... ... : ... .. . ... : ... .. C ... : ... .. . ... ... : ... .. 5 ... ... : ... .. 9 ... ... : ... .. D ... ...
ROW 36 : ... .. . ... ... ... : ... .. . ... ... ... : ... .. . ... : ... .. 6 ... : ... .. . ... ... : ... .. . ... ... : ... .. 8 ... ... : ... .. 8 ... ...
ROW 37 : ... .. . ... ... ... : C#5 00 9 ... ... ... : ... .. . ... : ... .. 3 ... : ... .. . ... ... : ... .. . ... ... : ... .. 7 ... ... : ... .. . ... ...
ROW 38 : ... .. . ... ... ... : ... .. 8 ... ... ... : ... .. . ... : ... .. 2 ... : ... .. . ... ... : ... .. . ... ... : ... .. . ... ... : ... .. . ... ...
ROW 39 : ... .. . ... ... ... : ... .. . ... ... ... : --- .. . ... : ... .. 0 ... : ... .. . ... ... : ... .. . ... ... : ... .. 6 ... ... : --- .. . P82 ...
ROW 3A : ... .. . ... ... ... : A-4 00 9 ... ... ... : C#4 00 . ... : 1-# 00 F ... : ... .. . ... ... : ... .. . ... ... : F#3 01 A ... ... : C#3 01 F P80 ...
ROW 3B : ... .. . ... ... ... : ... .. 8 ... ... ... : ... .. . ... : ... .. C ... : ... .. . ... ... : ... .. . ... ... : ... .. 9 ... ... : ... .. D ... ...
ROW 3C : ... .. . ... ... ... : ... .. . ... ... ... : ... .. . ... : ... .. 6 ... : ... .. . ... ... : ... .. . ... ... : ... .. 8 ... ... : ... .. 8 ... ...
ROW 3D : ... .. . ... ... ... : F#4 00 9 ... ... ... : ... .. . ... : ... .. 3 ... : ... .. . ... ... : ... .. . ... ... : ... .. 7 ... ... : ... .. . ... ...
ROW 3E : ... .. 2 ... ... ... : ... .. 8 ... ... ... : ... .. . ... : ... .. 2 ... : ... .. . ... ... : ... .. . ... ... : ... .. . ... ... : ... .. . ... ...
ROW 3F : ... .. . ... ... ... : ... .. . ... ... ... : --- .. . ... : ... .. 0 ... : ... .. . ... ... : ... .. . ... ... : ... .. 6 ... ... : --- .. . ... ...
ROW 40 : B-3 00 F ... ... ... : B-4 00 8 ... ... ... : G-4 00 . ... : ... .. F ... : ... .. . ... ... : G#2 01 A ... ... : D#3 01 A ... ... : G#1 01 F ... ...
ROW 41 : ... .. E ... ... ... : ... .. 7 ... ... ... : A-3 00 . ... : ... .. C ... : ... .. . ... ... : ... .. 9 ... ... : ... .. 9 ... ... : ... .. D ... ...
ROW 42 : ... .. D ... ... ... : ... .. . ... ... ... : D-3 00 . ... : ... .. 6 ... : ... .. . ... ... : ... .. 8 ... ... : ... .. 8 ... ... : ... .. 8 ... ...
ROW 43 : ... .. A ... ... ... : ... .. 6 ... ... ... : C#3 00 . ... : ... .. 3 ... : ... .. . ... ... : ... .. 7 ... ... : ... .. 7 ... ... : ... .. . ... ...
ROW 44 : ... .. . ... ... ... : ... .. 5 ... ... ... : G#2 00 . ... : ... .. 2 ... : ... .. . ... ... : ... .. . ... ... : ... .. . ... ... : ... .. . ... ...
ROW 45 : ... .. . ... ... ... : ... .. 4 ... ... ... : --- .. . ... : ... .. 0 ... : ... .. . ... ... : ... .. 6 ... ... : ... .. 6 ... ... : --- .. . P7E ...
ROW 46 : ... .. . ... ... ... : G#4 00 9 ... ... ... : G#2 00 . ... : D-# 00 F ... : ... .. . ... ... : ... .. . ... ... : B-2 01 A ... ... : G#1 01 F P80 ...
ROW 47 : ... .. . ... ... ... : ... .. 8 ... ... ... : ... .. . ... : ... .. C ... : ... .. . ... ... : ... .. 5 ... ... : ... .. 9 ... ... : ... .. D ... ...
ROW 48 : ... .. . ... ... ... : ... .. . ... ... ... : ... .. . ... : ... .. 6 ... : ... .. . ... ... : ... .. . ... ... : ... .. 8 ... ... : ... .. 8 ... ...
ROW 49 : ... .. . ... ... ... : B-4 00 5 ... ... ... : ... .. . ... : ... .. 3 ... : ... .. . ... ... : --- .. . ... ... : ... .. 7 ... ... : ... .. . ... ...
ROW 4A : ... .. . ... ... ... : ... .. 4 ... ... ... : ... .. . ... : ... .. 2 ... : ... .. . ... ... : ... .. . ... ... : ... .. . ... ... : ... .. . ... ...
ROW 4B : ... .. . ... ... ... : ... .. . ... ... ... : --- .. . ... : ... .. 0 ... : ... .. . ... ... : ... .. . ... ... : ... .. 6 ... ... : --- .. . P7E ...
ROW 4C : ... .. . ... ... ... : ... .. 9 ... ... ... : F#3 00 . ... : ... .. F ... : ... .. . ... ... : G#2 01 A ... ... : G#2 01 A ... ... : F#2 01 F P80 ...
ROW 4D : ... .. . ... ... ... : ... .. 8 ... ... ... : ... .. . ... : ... .. C ... : ... .. . ... ... : ... .. 9 ... ... : ... .. 9 ... ... : ... .. D ... ...
ROW 4E : ... .. . ... ... ... : ... .. . ... ... ... : ... .. . ... : ... .. 6 ... : ... .. . ... ... : ... .. 8 ... ... : ... .. 8 ... ... : ... .. 8 ... ...
ROW 4F : ... .. . ... ... ... : G#4 00 5 ... ... ... : ... .. . ... : ... .. 3 ... : ... .. . ... ... : ... .. 7 ... ... : ... .. 7 ... ... : ... .. . ... ...
ROW 50 : ... .. 2 ... ... ... : ... .. 4 ... ... ... : ... .. . ... : ... .. 2 ... : ... .. . ... ... : ... .. . ... ... : ... .. . ... ... : ... .. . ... ...
ROW 51 : ... .. . ... ... ... : ... .. . ... ... ... : --- .. . ... : ... .. 0 ... : ... .. . ... ... : ... .. 6 ... ... : ... .. 6 ... ... : --- .. . P84 ...
ROW 52 : B-4 00 F ... ... ... : ... .. 9 ... ... ... : G#2 00 . ... : 6-# 00 F ... : ... .. . ... ... : ... .. . ... ... : G#3 01 A ... ... : G#1 01 F P80 ...
ROW 53 : ... .. E P83 ... ... : ... .. 8 ... ... ... : ... .. . ... : ... .. C ... : ... .. . ... ... : ... .. 5 ... ... : ... .. 9 ... ... : ... .. D ... ...
ROW 54 : C-5 00 D P80 ... ... : ... .. . ... ... ... : ... .. . ... : ... .. 6 ... : ... .. . ... ... : ... .. . ... ... : ... .. 8 ... ... : ... .. 8 ... ...
ROW 55 : ... .. A P83 ... ... : B-4 00 5 ... ... ... : ... .. . ... : ... .. 3 ... : ... .. . ... ... : --- .. . ... ... : ... .. 7 ... ... : ... .. . ... ...
ROW 56 : C#5 00 A P80 ... ... : ... .. 4 ... ... ... : ... .. . ... : ... .. 2 ... : ... .. . ... ... : ... .. . ... ... : ... .. . ... ... : ... .. . ... ...
ROW 57 : ... .. . ... ... ... : ... .. . ... ... ... : --- .. . ... : ... .. 0 ... : ... .. . ... ... : ... .. . ... ... : ... .. 6 ... ... : --- .. . P7E ...
ROW 58 : ... .. . ... ... ... : ... .. 9 ... ... ... : F#3 00 . ... : D-# 00 F ... : ... .. . ... ... : G#2 01 A ... ... : D#3 01 A ... ... : F#2 01 F P80 ...
ROW 59 : ... .. . ... ... ... : ... .. 8 ... ... ... : ... .. . ... : ... .. C ... : ... .. . ... ... : ... .. 9 ... ... : ... .. 9 ... ... : ... .. D ... ...
ROW 5A : ... .. . ... ... ... : ... .. . ... ... ... : ... .. . ... : ... .. 6 ... : ... .. . ... ... : ... .. 8 ... ... : ... .. 8 ... ... : ... .. 8 ... ...
ROW 5B : ... .. . ... ... ... : G#4 00 5 ... ... ... : ... .. . ... : ... .. 3 ... : ... .. . ... ... : --- .. . ... ... : ... .. 7 ... ... : ... .. . ... ...
ROW 5C : ... .. . ... ... ... : ... .. 4 ... ... ... : ... .. . ... : ... .. 2 ... : ... .. . ... ... : ... .. . ... ... : ... .. . ... ... : ... .. . ... ...
ROW 5D : ... .. . ... ... ... : ... .. . ... ... ... : --- .. . ... : ... .. 0 ... : ... .. . ... ... : ... .. . ... ... : ... .. 6 ... ... : --- .. . P84 ...
ROW 5E : D-5 00 A P81 ... ... : ... .. 9 ... ... ... : G#3 00 . ... : ... .. F ... : ... .. . ... ... : G#2 01 A ... ... : B-2 01 A ... ... : G#2 01 F P80 ...
ROW 5F : D#5 00 A P7E ... ... : ... .. 8 ... ... ... : ... .. . ... : ... .. C ... : ... .. . ... ... : ... .. 9 ... ... : ... .. 9 ... ... : ... .. D ... ...
ROW 60 : D-5 00 A P80 ... ... : ... .. . ... ... ... : ... .. . ... : ... .. 6 ... : ... .. . ... ... : ... .. 8 ... ... : ... .. 8 ... ... : ... .. 8 ... ...
ROW 61 : C#5 00 A ... ... ... : B-4 00 5 ... ... ... : ... .. . ... : ... .. 3 ... : ... .. . ... ... : --- .. . ... ... : ... .. 7 ... ... : ... .. . ... ...
ROW 62 : C-5 00 A P7F ... ... : ... .. 4 ... ... ... : ... .. . ... : ... .. 2 ... : ... .. . ... ... : ... .. . ... ... : ... .. . ... ... : ... .. . ... ...
ROW 63 : B-4 00 A P83 ... ... : ... .. . ... ... ... : --- .. . ... : ... .. 0 ... : ... .. . ... ... : ... .. . ... ... : ... .. 6 ... ... : --- .. . P7F ...
ROW 64 : ... .. F P80 ... ... : C#5 00 9 ... ... ... : C-5 00 . ... : 1-# 00 F ... : ... .. . ... ... : G#2 01 A ... ... : F-3 01 A ... ... : C#2 01 F P80 ...
ROW 65 : ... .. E ... ... ... : ... .. 8 ... ... ... : D-4 00 . ... : ... .. C ... : ... .. . ... ... : ... .. 9 ... ... : ... .. 9 ... ... : ... .. D ... ...
ROW 66 : ... .. D ... ... ... : ... .. . ... ... ... : G-3 00 . ... : ... .. 6 ... : ... .. . ... ... : ... .. 8 ... ... : ... .. 8 ... ... : ... .. 8 ... ...
ROW 67 : ... .. A ... ... ... : G#4 00 5 ... ... ... : F#3 00 . ... : ... .. 3 ... : ... .. . ... ... : ... .. 7 ... ... : ... .. 7 ... ... : ... .. . ... ...
ROW 68 : ... .. 2 ... ... ... : ... .. 4 ... ... ... : C#3 00 . ... : ... .. 2 ... : ... .. . ... ... : ... .. . ... ... : ... .. . ... ... : ... .. . ... ...
ROW 69 : ... .. . ... ... ... : ... .. . ... ... ... : --- .. . ... : ... .. 0 ... : ... .. . ... ... : ... .. 6 ... ... : ... .. 6 ... ... : --- .. . ... ...
ROW 6A : A#4 00 F ... ... ... : ... .. 9 ... ... ... : C#3 00 . ... : D-# 00 F ... : ... .. . ... ... : ... .. . ... ... : C#3 01 A ... ... : C#2 01 F ... ...
ROW 6B : ... .. E ... ... ... : ... .. 8 ... ... ... : ... .. . ... : ... .. C ... : ... .. . ... ... : ... .. 5 ... ... : ... .. 9 ... ... : ... .. D ... ...
ROW 6C : ... .. D ... ... ... : ... .. . ... ... ... : ... .. . ... : ... .. 6 ... : ... .. . ... ... : ... .. . ... ... : ... .. 8 ... ... : ... .. 8 ... ...
ROW 6D : ... .. A ... ... ... : C#5 00 5 ... ... ... : ... .. . ... : ... .. 3 ... : ... .. . ... ... : --- .. . ... ... : ... .. 7 ... ... : ... .. . ... ...
ROW 6E : ... .. 2 ... ... ... : ... .. 4 ... ... ... : ... .. . ... : ... .. 2 ... : ... .. . ... ... : ... .. . ... ... : ... .. . ... ... : ... .. . ... ...
ROW 6F : ... .. . ... ... ... : ... .. . ... ... ... : --- .. . ... : ... .. 0 ... : ... .. . ... ... : ... .. . ... ... : ... .. 6 ... ... : --- .. . ... ...
ROW 70 : G#4 00 F ... ... ... : ... .. 9 ... ... ... : B-3 00 . ... : ... .. F ... : ... .. . ... ... : G#2 01 A ... ... : G#2 01 A ... ... : B-2 01 F ... ...
ROW 71 : ... .. E ... ... ... : ... .. 8 ... ... ... : ... .. . ... : ... .. C ... : ... .. . ... ... : ... .. 9 ... ... : ... .. 9 ... ... : ... .. D ... ...
ROW 72 : ... .. D ... ... ... : ... .. . ... ... ... : ... .. . ... : ... .. 6 ... : ... .. . ... ... : ... .. 8 ... ... : ... .. 8 ... ... : ... .. 8 ... ...
ROW 73 : ... .. A ... ... ... : G#4 00 5 ... ... ... : ... .. . ... : ... .. 3 ... : ... .. . ... ... : ... .. 7 ... ... : ... .. 7 ... ... : ... .. . ... ...
ROW 74 : ... .. . ... ... ... : ... .. 4 ... ... ... : ... .. . ... : ... .. 2 ... : ... .. . ... ... : ... .. . ... ... : ... .. . ... ... : ... .. . ... ...
ROW 75 : ... .. . ... ... ... : ... .. . ... ... ... : --- .. . ... : ... .. 0 ... : ... .. . ... ... : ... .. 6 ... ... : ... .. 6 ... ... : --- .. . P8B ...
ROW 76 : ... .. . ... ... ... : ... .. 9 ... ... ... : C#4 00 . ... : 6-# 00 F ... : ... .. . ... ... : --- .. . ... ... : G#3 01 A ... ... : C#3 01 F P80 ...
ROW 77 : ... .. . ... ... ... : ... .. 8 ... ... ... : ... .. . ... : ... .. C ... : ... .. . ... ... : ... .. . ... ... : ... .. 9 ... ... : ... .. D ... ...
ROW 78 : ... .. . ... ... ... : ... .. . ... ... ... : ... .. . ... : ... .. 6 ... : ... .. . ... ... : ... .. . ... ... : ... .. 8 ... ... : ... .. 8 ... ...
ROW 79 : ... .. . ... ... ... : C#5 00 5 ... ... ... : ... .. . ... : ... .. 3 ... : ... .. . ... ... : ... .. . ... ... : ... .. 7 ... ... : ... .. . ... ...
ROW 7A : ... .. 2 ... ... ... : ... .. 4 ... ... ... : ... .. . ... : ... .. 2 ... : ... .. . ... ... : ... .. . ... ... : ... .. . ... ... : ... .. . ... ...
ROW 7B : ... .. . ... ... ... : ... .. . ... ... ... : --- .. . ... : ... .. 0 ... : ... .. . ... ... : ... .. . ... ... : ... .. 6 ... ... : --- .. . ... ...
ROW 7C : F#4 00 F ... ... ... : ... .. 9 ... ... ... : C#3 00 . ... : 1-# 00 F ... : ... .. . ... ... : G#2 01 A ... ... : F-3 01 A ... ... : C#2 01 F ... ...
ROW 7D : ... .. E ... ... ... : ... .. 8 ... ... ... : ... .. . ... : ... .. C ... : ... .. . ... ... : ... .. 9 ... ... : ... .. 9 ... ... : ... .. D ... ...
ROW 7E : ... .. D ... ... ... : ... .. . ... ... ... : ... .. . ... : ... .. 6 ... : ... .. . ... ... : ... .. 8 ... ... : ... .. 8 ... ... : ... .. 8 ... ...
ROW 7F : ... .. A ... ... ... : G#4 00 5 ... ... ... : ... .. . ... : ... .. 3 ... : ... .. . ... ... : --- .. . ... ... : ... .. 7 ... ... : ... .. . ... ...
ROW 80 : ... .. . ... ... ... : ... .. 4 ... ... ... : ... .. . ... : ... .. 2 ... : ... .. . ... ... : ... .. . ... ... : ... .. . ... ... : ... .. . ... ...
ROW 81 : ... .. . ... ... ... : ... .. . ... ... ... : --- .. . ... : ... .. 0 ... : ... .. . ... ... : ... .. . ... ... : ... .. 6 ... ... : --- .. . ... ...
ROW 82 : ... .. . ... ... ... : ... .. 9 ... ... ... : C#3 00 . ... : 6-# 00 F ... : ... .. . ... ... : G#2 01 A ... ... : C#3 01 A ... ... : C#2 01 F ... ...
ROW 83 : ... .. . ... ... ... : ... .. 8 ... ... ... : ... .. . ... : ... .. C ... : ... .. . ... ... : ... .. 9 ... ... : ... .. 9 ... ... : ... .. D ... ...
ROW 84 : ... .. . ... ... ... : ... .. . ... ... ... : ... .. . ... : ... .. 6 ... : ... .. . ... ... : ... .. 8 ... ... : ... .. 8 ... ... : ... .. 8 ... ...
ROW 85 : ... .. . ... ... ... : C#5 00 5 ... ... ... : ... .. . ... : ... .. 3 ... : ... .. . ... ... : --- .. . ... ... : ... .. 7 ... ... : ... .. . ... ...
ROW 86 : ... .. 2 ... ... ... : ... .. 4 ... ... ... : ... .. . ... : ... .. 2 ... : ... .. . ... ... : ... .. . ... ... : ... .. . ... ... : ... .. . ... ...
ROW 87 : ... .. . ... ... ... : ... .. . ... ... ... : --- .. . ... : ... .. 0 ... : ... .. . ... ... : ... .. . ... ... : ... .. 6 ... ... : --- .. . ... ...
ROW 88 : B-4 00 F ... ... ... : B-4 00 9 ... ... ... : D#5 00 . ... : 1-# 00 F ... : ... .. . ... ... : E-3 01 A ... ... : E-3 01 A ... ... : E-2 01 F ... ...
ROW 89 : ... .. E ... ... ... : ... .. 8 ... ... ... : F-4 00 . ... : ... .. C ... : ... .. . ... ... : ... .. 9 ... ... : ... .. 9 ... ... : ... .. D ... ...
ROW 8A : ... .. D ... ... ... : ... .. . ... ... ... : A#3 00 . ... : ... .. 6 ... : ... .. . ... ... : ... .. 8 ... ... : ... .. 8 ... ... : ... .. 8 ... ...
ROW 8B : ... .. A ... ... ... : G#4 00 5 ... ... ... : A-3 00 . ... : ... .. 3 ... : ... .. . ... ... : ... .. 7 ... ... : ... .. 7 ... ... : ... .. . ... ...
ROW 8C : ... .. 2 ... ... ... : ... .. 4 ... ... ... : E-3 00 . ... : ... .. 2 ... : ... .. . ... ... : ... .. . ... ... : ... .. . ... ... : ... .. . ... ...
ROW 8D : ... .. . ... ... ... : ... .. . ... ... ... : ... .. . ... : ... .. 0 ... : ... .. . ... ... : ... .. 6 ... ... : ... .. 6 ... ... : ... .. . ... ...
ROW 8E : A#4 00 F ... ... ... : ... .. 9 ... ... ... : ... .. . ... : D-# 00 F ... : ... .. . ... ... : --- .. . P82 ... : B-2 01 A ... ... : ... .. . ... ...
ROW 8F : ... .. E ... ... ... : ... .. 8 ... ... ... : ... .. . ... : ... .. C ... : ... .. . ... ... : ... .. . ... ... : ... .. 9 ... ... : ... .. . ... ...
ROW 90 : ... .. D ... ... ... : ... .. . ... ... ... : ... .. . ... : ... .. 6 ... : ... .. . ... ... : ... .. . ... ... : ... .. 8 ... ... : ... .. . ... ...
ROW 91 : ... .. A ... ... ... : B-4 00 5 ... ... ... : ... .. . ... : ... .. 3 ... : ... .. . ... ... : ... .. . ... ... : ... .. 7 ... ... : ... .. . ... ...
ROW 92 : ... .. 2 ... ... ... : ... .. 4 ... ... ... : ... .. . ... : ... .. 2 ... : ... .. . ... ... : ... .. . ... ... : ... .. . ... ... : ... .. . ... ...
ROW 93 : ... .. . ... ... ... : ... .. . ... ... ... : ... .. . ... : ... .. 0 ... : ... .. . ... ... : ... .. . ... ... : ... .. 6 ... ... : ... .. . ... ...
ROW 94 : G#4 00 F ... ... ... : ... .. 9 ... ... ... : ... .. . ... : ... .. F ... : ... .. . ... ... : E-3 01 A P80 ... : G#2 01 A ... ... : ... .. . ... ...
ROW 95 : ... .. E ... ... ... : ... .. 8 ... ... ... : ... .. . ... : ... .. C ... : ... .. . ... ... : ... .. 9 ... ... : ... .. 9 ... ... : ... .. . ... ...
ROW 96 : ... .. D ... ... ... : ... .. . ... ... ... : ... .. . ... : ... .. 6 ... : ... .. . ... ... : ... .. 8 ... ... : ... .. 8 ... ... : ... .. . ... ...
ROW 97 : ... .. A ... ... ... : G#4 00 5 ... ... ... : ... .. . ... : ... .. 3 ... : ... .. . ... ... : ... .. 7 ... ... : ... .. 7 ... ... : ... .. . ... ...
ROW 98 : ... .. . ... ... ... : ... .. 4 ... ... ... : ... .. . ... : ... .. 2 ... : ... .. . ... ... : ... .. . ... ... : ... .. . ... ... : ... .. . ... ...
ROW 99 : ... .. . ... ... ... : ... .. . ... ... ... : --- .. . ... : ... .. 0 ... : ... .. . ... ... : ... .. 6 ... ... : ... .. 6 ... ... : --- .. . P89 ...
ROW 9A : ... .. . ... ... ... : ... .. 9 ... ... ... : E-4 00 . ... : 8-# 00 F ... : ... .. . ... ... : --- .. . P82 ... : G#3 01 A ... ... : E-3 01 F P80 ...
ROW 9B : ... .. . ... ... ... : ... .. 8 ... ... ... : ... .. . ... : ... .. C ... : ... .. . ... ... : ... .. . ... ... : ... .. 9 ... ... : ... .. D ... ...
ROW 9C : ... .. . ... ... ... : ... .. . ... ... ... : ... .. . ... : ... .. 6 ... : ... .. . ... ... : ... .. . ... ... : ... .. 8 ... ... : ... .. 8 ... ...
ROW 9D : ... .. . ... ... ... : B-4 00 5 ... ... ... : ... .. . ... : ... .. 3 ... : ... .. . ... ... : ... .. . ... ... : ... .. 7 ... ... : ... .. . ... ...
ROW 9E : ... .. 2 ... ... ... : ... .. 4 ... ... ... : ... .. . ... : ... .. 2 ... : ... .. . ... ... : ... .. . ... ... : ... .. . ... ... : ... .. . ... ...
ROW 9F : ... .. . ... ... ... : ... .. . ... ... ... : --- .. . ... : ... .. 0 ... : ... .. . ... ... : ... .. . ... ... : ... .. 6 ... ... : --- .. . P7D ...
ROW A0 : D#4 00 F ... ... ... : ... .. 9 ... ... ... : D#4 00 . ... : 4-# 00 F ... : ... .. . ... ... : E-3 01 A P80 ... : E-3 01 A ... ... : D#3 01 F P80 ...
ROW A1 : ... .. E ... ... ... : ... .. 8 ... ... ... : ... .. . ... : ... .. C ... : ... .. . ... ... : ... .. 9 ... ... : ... .. 9 ... ... : ... .. D ... ...
ROW A2 : ... .. D ... ... ... : ... .. . ... ... ... : ... .. . ... : ... .. 6 ... : ... .. . ... ... : ... .. 8 ... ... : ... .. 8 ... ... : ... .. 8 ... ...
ROW A3 : ... .. A ... ... ... : G#4 00 5 ... ... ... : ... .. . ... : ... .. 3 ... : ... .. . ... ... : --- .. . P82 ... : ... .. 7 ... ... : ... .. . ... ...
ROW A4 : ... .. . ... ... ... : ... .. 4 ... ... ... : ... .. . ... : ... .. 2 ... : ... .. . ... ... : ... .. . ... ... : ... .. . ... ... : ... .. . ... ...
ROW A5 : ... .. . ... ... ... : ... .. . ... ... ... : --- .. . ... : ... .. 0 ... : ... .. . ... ... : ... .. . ... ... : ... .. 6 ... ... : --- .. . P7F ...
ROW A6 : ... .. . ... ... ... : ... .. 9 ... ... ... : C#4 00 . ... : 1-# 00 F ... : ... .. . ... ... : E-3 01 A P80 ... : B-2 01 A ... ... : C#3 01 F P80 ...
ROW A7 : ... .. . ... ... ... : ... .. 8 ... ... ... : ... .. . ... : ... .. C ... : ... .. . ... ... : ... .. 9 ... ... : ... .. 9 ... ... : ... .. D ... ...
ROW A8 : ... .. . ... ... ... : ... .. . ... ... ... : ... .. . ... : ... .. 6 ... : ... .. . ... ... : ... .. 8 ... ... : ... .. 8 ... ... : ... .. 8 ... ...
ROW A9 : ... .. . ... ... ... : B-4 00 5 ... ... ... : ... .. . ... : ... .. 3 ... : ... .. . ... ... : --- .. . P82 ... : ... .. 7 ... ... : ... .. . ... ...
ROW AA : ... .. 2 ... ... ... : ... .. 4 ... ... ... : ... .. . ... : ... .. 2 ... : ... .. . ... ... : ... .. . ... ... : ... .. . ... ... : ... .. . ... ...
ROW AB : ... .. . ... ... ... : ... .. . ... ... ... : --- .. . ... : ... .. 0 ... : ... .. . ... ... : ... .. . ... ... : ... .. 6 ... ... : --- .. . ... ...
ROW AC : D#5 00 F ... ... ... : ... .. 9 ... ... ... : A#4 00 . ... : 7-# 00 F ... : ... .. . ... ... : D#3 01 A P80 ... : D#3 01 A ... ... : B-1 01 F ... ...
ROW AD : ... .. E ... ... ... : ... .. 8 ... ... ... : C-4 00 . ... : ... .. C ... : ... .. . ... ... : ... .. 9 ... ... : ... .. 9 ... ... : ... .. D ... ...
ROW AE : ... .. D ... ... ... : ... .. . ... ... ... : F-3 00 . ... : ... .. 6 ... : ... .. . ... ... : ... .. 8 ... ... : ... .. 8 ... ... : ... .. 8 ... ...
ROW AF : ... .. A ... ... ... : G#4 00 5 ... ... ... : E-3 00 . ... : ... .. 3 ... : ... .. . ... ... : --- .. . P83 ... : ... .. 7 ... ... : ... .. . ... ...
ROW B0 : ... .. 2 ... ... ... : ... .. 4 ... ... ... : B-2 00 . ... : ... .. 2 ... : ... .. . ... ... : ... .. . ... ... : ... .. . ... ... : ... .. . ... ...
ROW B1 : ... .. . ... ... ... : ... .. . ... ... ... : --- .. . ... : ... .. 0 ... : ... .. . ... ... : ... .. . ... ... : ... .. 6 ... ... : --- .. . P86 ...
ROW B2 : C#5 00 F ... ... ... : F#4 00 9 ... ... ... : A#2 00 . ... : 3-# 00 F ... : ... .. . ... ... : D#3 01 A P80 ... : B-2 01 A ... ... : A#1 01 F P80 ...
ROW B3 : ... .. E ... ... ... : ... .. 8 ... ... ... : ... .. . ... : ... .. C ... : ... .. . ... ... : ... .. 9 ... ... : ... .. 9 ... ... : ... .. D ... ...
ROW B4 : ... .. D ... ... ... : ... .. . ... ... ... : ... .. . ... : ... .. 6 ... : ... .. . ... ... : ... .. 8 ... ... : ... .. 8 ... ... : ... .. 8 ... ...
ROW B5 : ... .. A ... ... ... : B-4 00 5 ... ... ... : ... .. . ... : ... .. 3 ... : ... .. . ... ... : --- .. . P83 ... : ... .. 7 ... ... : ... .. . ... ...
ROW B6 : ... .. 2 ... ... ... : ... .. 4 ... ... ... : ... .. . ... : ... .. 2 ... : ... .. . ... ... : ... .. . ... ... : ... .. . ... ... : ... .. . ... ...
ROW B7 : ... .. . ... ... ... : ... .. . ... ... ... : --- .. . ... : ... .. 0 ... : ... .. . ... ... : ... .. . ... ... : ... .. 6 ... ... : --- .. . ... ...
ROW B8 : B-4 00 F ... ... ... : D#4 00 9 ... ... ... : G#2 00 . ... : 1-# 00 F ... : ... .. . ... ... : C#3 01 A P80 ... : G#2 01 A ... ... : G#1 01 F ... ...
ROW B9 : ... .. E ... ... ... : ... .. 8 ... ... ... : ... .. . ... : ... .. C ... : ... .. . ... ... : ... .. 9 ... ... : ... .. 9 ... ... : ... .. D ... ...
ROW BA : ... .. D ... ... ... : ... .. . ... ... ... : ... .. . ... : ... .. 6 ... : ... .. . ... ... : ... .. 8 ... ... : ... .. 8 ... ... : ... .. 8 ... ...
ROW BB : ... .. A ... ... ... : F#4 00 5 ... ... ... : ... .. . ... : ... .. 3 ... : ... .. . ... ... : --- .. . P83 ... : ... .. 7 ... ... : ... .. . ... ...
ROW BC : ... .. . ... ... ... : ... .. 4 ... ... ... : ... .. . ... : ... .. 2 ... : ... .. . ... ... : ... .. . ... ... : ... .. . ... ... : ... .. . ... ...
ROW BD : ... .. . ... ... ... : ... .. . ... ... ... : --- .. . ... : ... .. 0 ... : ... .. . ... ... : ... .. . ... ... : ... .. 6 ... ... : --- .. . P7E ...
ROW BE : ... .. . ... ... ... : A#4 00 9 ... ... ... : F#2 00 . ... : 6-# 00 F ... : ... .. . ... ... : D#3 01 A P80 ... : A#2 01 A ... ... : F#1 01 F P80 ...
ROW BF : ... .. . ... ... ... : ... .. 8 ... ... ... : ... .. . ... : ... .. C ... : ... .. . ... ... : ... .. 9 ... ... : ... .. 9 ... ... : ... .. D ... ...
ROW C0 : ... .. . ... ... ... : ... .. . ... ... ... : ... .. . ... : ... .. 6 ... : ... .. . ... ... : ... .. 8 ... ... : ... .. 8 ... ... : ... .. 8 ... ...
ROW C1 : ... .. . ... ... ... : D#4 00 5 ... ... ... : ... .. . ... : ... .. 3 ... : ... .. . ... ... : ... .. 7 ... ... : ... .. 7 ... ... : ... .. . ... ...
ROW C2 : ... .. 2 ... ... ... : ... .. 4 ... ... ... : ... .. . ... : ... .. 2 ... : ... .. . ... ... : ... .. . ... ... : ... .. . ... ... : ... .. . ... ...
ROW C3 : ... .. . ... ... ... : ... .. . ... ... ... : --- .. . ... : ... .. 0 ... : ... .. . ... ... : ... .. 6 ... ... : ... .. 6 ... ... : --- .. . P81 ...
ROW C4 : A#4 00 F ... ... ... : F#4 00 9 ... ... ... : F-2 00 . ... : 2-# 00 F ... : ... .. . ... ... : ... .. . ... ... : B-2 01 A ... ... : F-1 01 F P80 ...
ROW C5 : ... .. E ... ... ... : ... .. 8 ... ... ... : ... .. . ... : ... .. C ... : ... .. . ... ... : ... .. 5 ... ... : ... .. 9 ... ... : ... .. D ... ...
ROW C6 : ... .. D ... ... ... : ... .. . ... ... ... : ... .. . ... : ... .. 6 ... : ... .. . ... ... : ... .. . ... ... : ... .. 8 ... ... : ... .. 8 ... ...
ROW C7 : ... .. A ... ... ... : A#4 00 5 ... ... ... : ... .. . ... : ... .. 3 ... : ... .. . ... ... : ... .. . P8A ... : ... .. 7 ... ... : ... .. . ... ...
ROW C8 : ... .. 2 ... ... ... : ... .. 4 ... ... ... : ... .. . ... : ... .. 2 ... : ... .. . ... ... : E-3 01 5 P7B ... : ... .. . ... ... : ... .. . ... ...
ROW C9 : ... .. . ... ... ... : ... .. . ... ... ... : --- .. . ... : ... .. 0 ... : ... .. . ... ... : ... .. . P79 ... : ... .. 6 ... ... : --- .. . P7F ...
ROW CA : B-4 00 F ... ... ... : C#4 00 9 ... ... ... : D#2 00 . ... : 1-# 00 F ... : ... .. . ... ... : D#3 01 5 P84 ... : C#3 01 A ... ... : D#1 01 F P80 ...
ROW CB : ... .. E ... ... ... : ... .. 8 ... ... ... : ... .. . ... : ... .. C ... : ... .. . ... ... : ... .. . P7C ... : ... .. 9 ... ... : ... .. D ... ...
ROW CC : ... .. D ... ... ... : ... .. . ... ... ... : ... .. . ... : ... .. 6 ... : ... .. . ... ... : D-3 01 5 P87 ... : ... .. 8 ... ... : ... .. 8 ... ...
ROW CD : ... .. A ... ... ... : F#4 00 5 ... ... ... : ... .. . ... : ... .. 3 ... : ... .. . ... ... : ... .. . P85 ... : ... .. 7 ... ... : ... .. . ... ...
ROW CE : ... .. 2 ... ... ... : ... .. 4 ... ... ... : ... .. . ... : ... .. 2 ... : ... .. . ... ... : D#3 01 5 P76 ... : ... .. . ... ... : ... .. . ... ...
ROW CF : ... .. . ... ... ... : ... .. . ... ... ... : --- .. . ... : ... .. 0 ... : ... .. . ... ... : ... .. . P80 ... : ... .. 6 ... ... : --- .. . P81 ...
ROW D0 : D#5 00 F ... ... ... : B-4 00 9 ... ... ... : G-4 00 . ... : ... .. F ... : ... .. . ... ... : G#3 01 A ... ... : D#3 01 A ... ... : G#1 01 F P80 ...
ROW D1 : ... .. E ... ... ... : ... .. 8 ... ... ... : A-3 00 . ... : ... .. C ... : ... .. . ... ... : ... .. 9 ... ... : ... .. 9 ... ... : ... .. D ... ...
ROW D2 : ... .. D ... ... ... : ... .. . ... ... ... : D-3 00 . ... : ... .. 6 ... : ... .. . ... ... : ... .. 8 ... ... : ... .. 8 ... ... : ... .. 8 ... ...
ROW D3 : ... .. A ... ... ... : C#4 00 5 ... ... ... : C#3 00 . ... : ... .. 3 ... : ... .. . ... ... : ... .. 7 ... ... : ... .. 7 ... ... : ... .. . ... ...
ROW D4 : ... .. . ... ... ... : ... .. 4 ... ... ... : G#2 00 . ... : ... .. 2 ... : ... .. . ... ... : ... .. . ... ... : ... .. . ... ... : ... .. . ... ...
ROW D5 : ... .. . ... ... ... : ... .. . ... ... ... : --- .. . ... : ... .. 0 ... : ... .. . ... ... : ... .. 6 ... ... : ... .. 6 ... ... : --- .. . P7E ...
ROW D6 : B-4 00 F ... ... ... : D#4 00 9 ... ... ... : G#2 00 . ... : D-# 00 F ... : ... .. . ... ... : ... .. . ... ... : G#3 01 A ... ... : G#1 01 F P80 ...
ROW D7 : ... .. E ... ... ... : ... .. 8 ... ... ... : ... .. . ... : ... .. C ... : ... .. . ... ... : ... .. 5 ... ... : ... .. 9 ... ... : ... .. D ... ...
ROW D8 : ... .. D ... ... ... : ... .. . ... ... ... : ... .. . ... : ... .. 6 ... : ... .. . ... ... : ... .. . ... ... : ... .. 8 ... ... : ... .. 8 ... ...
ROW D9 : ... .. A ... ... ... : B-4 00 5 ... ... ... : ... .. . ... : ... .. 3 ... : ... .. . ... ... : --- .. . P82 ... : ... .. 7 ... ... : ... .. . ... ...
ROW DA : ... .. . ... ... ... : ... .. 4 ... ... ... : ... .. . ... : ... .. 2 ... : ... .. . ... ... : ... .. . ... ... : ... .. . ... ... : ... .. . ... ...
ROW DB : ... .. . ... ... ... : ... .. . ... ... ... : ... .. . ... : ... .. 0 ... : ... .. . ... ... : ... .. . ... ... : ... .. 6 ... ... : ... .. . ... ...
ROW DC : F#4 00 F ... ... ... : A#4 00 9 ... ... ... : ... .. . ... : ... .. F ... : ... .. . ... ... : G#3 01 A P80 ... : B-3 01 A ... ... : ... .. . ... ...
ROW DD : ... .. E ... ... ... : ... .. 8 ... ... ... : ... .. . ... : ... .. C ... : ... .. . ... ... : ... .. 9 ... ... : ... .. 9 ... ... : ... .. . ... ...
ROW DE : ... .. D ... ... ... : ... .. . ... ... ... : ... .. . ... : ... .. 6 ... : ... .. . ... ... : ... .. 8 ... ... : ... .. 8 ... ... : ... .. . ... ...
ROW DF : ... .. A ... ... ... : D#4 00 5 ... ... ... : ... .. . ... : ... .. 3 ... : ... .. . ... ... : ... .. 7 ... ... : ... .. 7 ... ... : ... .. . ... ...
ROW E0 : ... .. 2 ... ... ... : ... .. 4 ... ... ... : ... .. . ... : ... .. 2 ... : ... .. . ... ... : ... .. . ... ... : ... .. . ... ... : ... .. . ... ...
ROW E1 : ... .. . ... ... ... : ... .. . ... ... ... : --- .. . ... : ... .. 0 ... : ... .. . ... ... : ... .. 6 ... ... : ... .. 6 ... ... : --- .. . P7E ...
ROW E2 : F#5 00 F ... ... ... : ... .. 9 ... ... ... : G#3 00 . ... : 6-# 00 F ... : ... .. . ... ... : ... .. . ... ... : D#4 01 A ... ... : G#2 01 F P80 ...
ROW E3 : ... .. E ... ... ... : ... .. 8 ... ... ... : ... .. . ... : ... .. C ... : ... .. . ... ... : ... .. 5 ... ... : ... .. 9 ... ... : ... .. D ... ...
ROW E4 : ... .. D ... ... ... : ... .. . ... ... ... : ... .. . ... : ... .. 6 ... : ... .. . ... ... : ... .. . ... ... : ... .. 8 ... ... : ... .. 8 ... ...
ROW E5 : ... .. A ... ... ... : A#4 00 5 ... ... ... : ... .. . ... : ... .. 3 ... : ... .. . ... ... : --- .. . P82 ... : ... .. 7 ... ... : ... .. . ... ...
ROW E6 : ... .. . ... ... ... : ... .. 4 ... ... ... : ... .. . ... : ... .. 2 ... : ... .. . ... ... : ... .. . ... ... : ... .. . ... ... : ... .. . ... ...
ROW E7 : ... .. . ... ... ... : ... .. . ... ... ... : ... .. . ... : ... .. 0 ... : ... .. . ... ... : ... .. . ... ... : ... .. 6 ... ... : ... .. . ... ...
ROW E8 : D#5 00 F ... ... ... : G#4 00 9 ... ... ... : ... .. . ... : D-# 00 F ... : ... .. . ... ... : G#3 01 A P80 ... : B-3 01 A ... ... : ... .. . ... ...
ROW E9 : ... .. E ... ... ... : ... .. 8 ... ... ... : ... .. . ... : ... .. C ... : ... .. . ... ... : ... .. 9 ... ... : ... .. 9 ... ... : ... .. . ... ...
ROW EA : ... .. D ... ... ... : ... .. . ... ... ... : ... .. . ... : ... .. 6 ... : ... .. . ... ... : ... .. 8 ... ... : ... .. 8 ... ... : ... .. . ... ...
ROW EB : ... .. A ... ... ... : D#4 00 5 ... ... ... : ... .. . ... : ... .. 3 ... : ... .. . ... ... : --- .. . P82 ... : ... .. 7 ... ... : ... .. . ... ...
ROW EC : ... .. . ... ... ... : ... .. 4 ... ... ... : ... .. . ... : ... .. 2 ... : ... .. . ... ... : ... .. . ... ... : ... .. . ... ... : ... .. . ... ...
ROW ED : ... .. . ... ... ... : ... .. . ... ... ... : --- .. . ... : ... .. 0 ... : ... .. . ... ... : ... .. . ... ... : ... .. 6 ... ... : --- .. . P7F ...
ROW EE : B-4 00 F ... ... ... : ... .. 9 ... ... ... : G#2 00 . ... : ... .. F ... : ... .. . ... ... : G#3 01 A P80 ... : G#3 01 A ... ... : G#1 01 F P80 ...
ROW EF : ... .. E ... ... ... : ... .. 8 ... ... ... : ... .. . ... : ... .. C ... : ... .. . ... ... : ... .. 9 ... ... : ... .. 9 ... ... : ... .. D ... ...
ROW F0 : ... .. D ... ... ... : ... .. . ... ... ... : ... .. . ... : ... .. 6 ... : ... .. . ... ... : ... .. 8 ... ... : ... .. 8 ... ... : ... .. 8 ... ...
ROW F1 : ... .. A ... ... ... : G#4 00 5 ... ... ... : ... .. . ... : ... .. 3 ... : ... .. . ... ... : --- .. . P82 ... : ... .. 7 ... ... : ... .. . ... ...
ROW F2 : ... .. 2 ... ... ... : ... .. 4 ... ... ... : ... .. . ... : ... .. 2 ... : ... .. . ... ... : ... .. . ... ... : ... .. . ... ... : ... .. . ... ...
ROW F3 : ... .. . ... ... ... : ... .. . ... ... ... : --- .. . ... : ... .. 0 ... : ... .. . ... ... : ... .. . ... ... : ... .. 6 ... ... : --- .. . P7E ...
ROW F4 : F-5 00 F ... ... ... : F#4 00 9 ... ... ... : C-5 00 . ... : 1-# 00 F ... : ... .. . ... ... : G#3 01 A P80 ... : F-4 01 A ... ... : C#2 01 F P80 ...
ROW F5 : ... .. E ... ... ... : ... .. 8 ... ... ... : D-4 00 . ... : ... .. C ... : ... .. . ... ... : ... .. 9 ... ... : ... .. 9 ... ... : ... .. D ... ...
ROW F6 : ... .. D ... ... ... : ... .. . ... ... ... : G-3 00 . ... : ... .. 6 ... : ... .. . ... ... : ... .. 8 ... ... : ... .. 8 ... ... : ... .. 8 ... ...
ROW F7 : ... .. A ... ... ... : D#4 00 5 ... ... ... : F#3 00 . ... : ... .. 3 ... : ... .. . ... ... : ... .. 7 ... ... : ... .. 7 ... ... : ... .. . ... ...
ROW F8 : ... .. 2 ... ... ... : ... .. 4 ... ... ... : C#3 00 . ... : ... .. 2 ... : ... .. . ... ... : ... .. . ... ... : ... .. . ... ... : ... .. . ... ...
ROW F9 : ... .. . ... ... ... : ... .. . ... ... ... : --- .. . ... : ... .. 0 ... : ... .. . ... ... : ... .. 6 ... ... : ... .. 6 ... ... : --- .. . ... ...
ROW FA : C#5 00 F ... ... ... : F-4 00 9 ... ... ... : C#3 00 . ... : D-# 00 F ... : ... .. . ... ... : ... .. . ... ... : C#4 01 A ... ... : C#2 01 F ... ...
ROW FB : ... .. E ... ... ... : ... .. 8 ... ... ... : ... .. . ... : ... .. C ... : ... .. . ... ... : ... .. 5 ... ... : ... .. 9 ... ... : ... .. D ... ...
ROW FC : ... .. D ... ... ... : ... .. . ... ... ... : ... .. . ... : ... .. 6 ... : ... .. . ... ... : ... .. . ... ... : ... .. 8 ... ... : ... .. 8 ... ...
ROW FD : ... .. A ... ... ... : F#4 00 5 ... ... ... : ... .. . ... : ... .. 3 ... : ... .. . ... ... : --- .. . P82 ... : ... .. 7 ... ... : ... .. . ... ...
ROW FE : ... .. 2 ... ... ... : ... .. 4 ... ... ... : ... .. . ... : ... .. 2 ... : ... .. . ... ... : ... .. . ... ... : ... .. . ... ... : ... .. . ... ...
ROW FF : ... .. . ... ... ... : ... .. . ... ... ... : --- .. . ... : ... .. 0 ... : ... .. . ... ... : ... .. . ... ... : ... .. 6 ... ... : --- .. . ... ...

PATTERN 15
ROW 00 : G#4 00 F ... ... ... : C#4 00 9 ... ... ... : B-3 00 . ... : ... .. F ... : ... .. . ... ... : G#3 01 A P80 ... : G#3 01 A ... ... : B-2 01 F ... ...
ROW 01 : ... .. E ... ... ... : ... .. 8 ... ... ... : ... .. . ... : ... .. C ... : ... .. . ... ... : ... .. 9 ... ... : ... .. 9 ... ... : ... .. D ... ...
ROW 02 : ... .. D ... ... ... : ... .. . ... ... ... : ... .. . ... : ... .. 6 ... : ... .. . ... ... : ... .. 8 ... ... : ... .. 8 ... ... : ... .. 8 ... ...
ROW 03 : ... .. A ... ... ... : F-4 00 5 ... ... ... : ... .. . ... : ... .. 3 ... : ... .. . ... ... : ... .. 7 ... ... : ... .. 7 ... ... : ... .. . ... ...
ROW 04 : ... .. . ... ... ... : ... .. 4 ... ... ... : ... .. . ... : ... .. 2 ... : ... .. . ... ... : ... .. . ... ... : ... .. . ... ... : ... .. . ... ...
ROW 05 : ... .. . ... ... ... : ... .. . ... ... ... : --- .. . ... : ... .. 0 ... : ... .. . ... ... : ... .. 6 ... ... : ... .. 6 ... ... : --- .. . P8B ...
ROW 06 : G#5 00 F ... ... ... : G#3 00 9 ... ... ... : C#4 00 . ... : 6-# 00 F ... : ... .. . ... ... : --- .. . P82 ... : G#4 01 A ... ... : C#3 01 F P80 ...
ROW 07 : ... .. E ... ... ... : ... .. 8 ... ... ... : ... .. . ... : ... .. C ... : ... .. . ... ... : ... .. . ... ... : ... .. 9 ... ... : ... .. D ... ...
ROW 08 : ... .. D ... ... ... : ... .. . ... ... ... : ... .. . ... : ... .. 6 ... : ... .. . ... ... : ... .. . ... ... : ... .. 8 ... ... : ... .. 8 ... ...
ROW 09 : ... .. A ... ... ... : C#4 00 5 ... ... ... : ... .. . ... : ... .. 3 ... : ... .. . ... ... : ... .. . ... ... : ... .. 7 ... ... : ... .. . ... ...
ROW 0A : ... .. 2 ... ... ... : ... .. 4 ... ... ... : ... .. . ... : ... .. 2 ... : ... .. . ... ... : ... .. . ... ... : ... .. . ... ... : ... .. . ... ...
ROW 0B : ... .. . ... ... ... : ... .. . ... ... ... : --- .. . ... : ... .. 0 ... : ... .. . ... ... : ... .. . ... ... : ... .. 6 ... ... : --- .. . ... ...
ROW 0C : C#5 00 F ... ... ... : D#3 00 9 ... ... ... : F-4 00 . ... : 1-# 00 F ... : ... .. . ... ... : G#3 01 A P80 ... : F-4 01 A ... ... : F-3 01 F ... ...
ROW 0D : ... .. E ... ... ... : ... .. 8 ... ... ... : ... .. . ... : ... .. C ... : ... .. . ... ... : ... .. 9 ... ... : ... .. 9 ... ... : ... .. D ... ...
ROW 0E : ... .. D ... ... ... : ... .. . ... ... ... : ... .. . ... : ... .. 6 ... : ... .. . ... ... : ... .. 8 ... ... : ... .. 8 ... ... : ... .. 8 ... ...
ROW 0F : ... .. A ... ... ... : G#3 00 5 ... ... ... : ... .. . ... : ... .. 3 ... : ... .. . ... ... : --- .. . P82 ... : ... .. 7 ... ... : ... .. . ... ...
ROW 10 : ... .. . ... ... ... : ... .. 4 ... ... ... : ... .. . ... : ... .. 2 ... : ... .. . ... ... : ... .. . ... ... : ... .. . ... ... : ... .. . ... ...
ROW 11 : ... .. . ... ... ... : ... .. . ... ... ... : --- .. . ... : ... .. 0 ... : ... .. . ... ... : ... .. . ... ... : ... .. 6 ... ... : --- .. . P7F ...
ROW 12 : G#4 00 F ... ... ... : C#3 00 9 ... ... ... : F#4 00 . ... : 6-# 00 F ... : ... .. . ... ... : G#3 01 A P80 ... : C#4 01 A ... ... : F#3 01 F P80 ...
ROW 13 : ... .. E ... ... ... : ... .. 8 ... ... ... : ... .. . ... : ... .. C ... : ... .. . ... ... : ... .. 9 ... ... : ... .. 9 ... ... : ... .. D ... ...
ROW 14 : ... .. D ... ... ... : ... .. . ... ... ... : ... .. . ... : ... .. 6 ... : ... .. . ... ... : ... .. 8 ... ... : ... .. 8 ... ... : ... .. 8 ... ...
ROW 15 : ... .. A ... ... ... : D#3 00 5 ... ... ... : ... .. . ... : ... .. 3 ... : ... .. . ... ... : --- .. . P82 ... : ... .. 7 ... ... : ... .. . ... ...
ROW 16 : ... .. 2 ... ... ... : ... .. 4 ... ... ... : ... .. . ... : ... .. 2 ... : ... .. . ... ... : ... .. . ... ... : ... .. . ... ... : ... .. . ... ...
ROW 17 : ... .. . ... ... ... : ... .. . ... ... ... : --- .. . ... : ... .. 0 ... : ... .. . ... ... : ... .. . ... ... : ... .. 6 ... ... : --- .. . P82 ...
ROW 18 : B-4 00 F ... ... ... : E-3 00 9 ... ... ... : G-5 00 . ... : 1-# 00 F ... : ... .. . ... ... : G#3 01 A P80 ... : B-3 01 A ... ... : G#2 01 F P80 ...
ROW 19 : ... .. E ... ... ... : ... .. 8 ... ... ... : A-4 00 . ... : ... .. C ... : ... .. . ... ... : ... .. 9 ... ... : ... .. 9 ... ... : ... .. D ... ...
ROW 1A : ... .. D ... ... ... : ... .. . ... ... ... : D-4 00 . ... : ... .. 6 ... : ... .. . ... ... : ... .. 8 ... ... : ... .. 8 ... ... : ... .. 8 ... ...
ROW 1B : ... .. A ... ... ... : C#3 00 5 ... ... ... : C#4 00 . ... : ... .. 3 ... : ... .. . ... ... : --- .. . P82 ... : ... .. 7 ... ... : ... .. . ... ...
ROW 1C : ... .. . ... ... ... : ... .. 4 ... ... ... : G#3 00 . ... : ... .. 2 ... : ... .. . ... ... : ... .. . ... ... : ... .. . ... ... : ... .. . ... ...
ROW 1D : ... .. . ... ... ... : ... .. . ... ... ... : ... .. . ... : ... .. 0 ... : ... .. . ... ... : ... .. . ... ... : ... .. 6 ... ... : ... .. . ... ...
ROW 1E : G#4 00 F ... ... ... : B-2 00 9 ... ... ... : ... .. . ... : D-# 00 F ... : ... .. . ... ... : G#3 01 A P80 ... : G#3 01 A ... ... : ... .. . ... ...
ROW 1F : ... .. E ... ... ... : ... .. 8 ... ... ... : ... .. . ... : ... .. C ... : ... .. . ... ... : ... .. 9 ... ... : ... .. 9 ... ... : ... .. . ... ...
ROW 20 : ... .. D ... ... ... : ... .. . ... ... ... : ... .. . ... : ... .. 6 ... : ... .. . ... ... : ... .. 8 ... ... : ... .. 8 ... ... : ... .. . ... ...
ROW 21 : ... .. A ... ... ... : E-3 00 5 ... ... ... : ... .. . ... : ... .. 3 ... : ... .. . ... ... : --- .. . P82 ... : ... .. 7 ... ... : ... .. . ... ...
ROW 22 : ... .. 2 ... ... ... : ... .. 4 ... ... ... : ... .. . ... : ... .. 2 ... : ... .. . ... ... : ... .. . ... ... : ... .. . ... ... : ... .. . ... ...
ROW 23 : ... .. . ... ... ... : ... .. . ... ... ... : ... .. . ... : ... .. 0 ... : ... .. . ... ... : ... .. . ... ... : ... .. 6 ... ... : ... .. . ... ...
ROW 24 : E-4 00 F ... ... ... : G#2 00 9 ... ... ... : ... .. . ... : ... .. F ... : ... .. . ... ... : G#3 01 A P80 ... : E-3 01 A ... ... : ... .. . ... ...
ROW 25 : ... .. E ... ... ... : ... .. 8 ... ... ... : ... .. . ... : ... .. C ... : ... .. . ... ... : ... .. 9 ... ... : ... .. 9 ... ... : ... .. . ... ...
ROW 26 : ... .. D ... ... ... : ... .. . ... ... ... : ... .. . ... : ... .. 6 ... : ... .. . ... ... : ... .. 8 ... ... : ... .. 8 ... ... : ... .. . ... ...
ROW 27 : ... .. A ... ... ... : B-2 00 5 ... ... ... : ... .. . ... : ... .. 3 ... : ... .. . ... ... : --- .. . P82 ... : ... .. 7 ... ... : ... .. . ... ...
ROW 28 : ... .. 2 ... ... ... : ... .. 4 ... ... ... : ... .. . ... : ... .. 2 ... : ... .. . ... ... : ... .. . ... ... : ... .. . ... ... : ... .. . ... ...
ROW 29 : ... .. . ... ... ... : ... .. . ... ... ... : --- .. . ... : ... .. 0 ... : ... .. . ... ... : ... .. . ... ... : ... .. 6 ... ... : --- .. . P7F ...
ROW 2A : F#4 00 F ... ... ... : A#3 00 9 ... ... ... : A-5 00 . ... : 8-# 00 F ... : ... .. . ... ... : F#3 01 A P80 ... : C#4 01 A ... ... : A#2 01 F P80 ...
ROW 2B : ... .. E ... ... ... : ... .. 8 ... ... ... : B-4 00 . ... : ... .. C ... : ... .. . ... ... : ... .. 9 ... ... : ... .. 9 ... ... : ... .. D ... ...
ROW 2C : ... .. D ... ... ... : ... .. . ... ... ... : E-4 00 . ... : ... .. 6 ... : ... .. . ... ... : ... .. 8 ... ... : ... .. 8 ... ... : ... .. 8 ... ...
ROW 2D : ... .. A ... ... ... : G#2 00 5 ... ... ... : D#4 00 . ... : ... .. 3 ... : ... .. . ... ... : ... .. 7 ... ... : ... .. 7 ... ... : ... .. . ... ...
ROW 2E : ... .. . ... ... ... : ... .. 4 ... ... ... : A#3 00 . ... : ... .. 2 ... : ... .. . ... ... : ... .. . ... ... : ... .. . ... ... : ... .. . ... ...
ROW 2F : ... .. . ... ... ... : ... .. . ... ... ... : ... .. . ... : ... .. 0 ... : ... .. . ... ... : ... .. 6 ... ... : ... .. 6 ... ... : ... .. . ... ...
ROW 30 : C#4 00 F ... ... ... : F#3 00 9 ... ... ... : ... .. . ... : 4-# 00 F ... : ... .. . ... ... : ... .. . ... ... : A#3 01 A ... ... : ... .. . ... ...
ROW 31 : ... .. E ... ... ... : ... .. 8 ... ... ... : ... .. . ... : ... .. C ... : ... .. . ... ... : ... .. 5 ... ... : ... .. 9 ... ... : ... .. . ... ...
ROW 32 : ... .. D ... ... ... : ... .. . ... ... ... : ... .. . ... : ... .. 6 ... : ... .. . ... ... : ... .. . ... ... : ... .. 8 ... ... : ... .. . ... ...
ROW 33 : ... .. A ... ... ... : A#3 00 5 ... ... ... : ... .. . ... : ... .. 3 ... : ... .. . ... ... : ... .. . ... ... : ... .. 7 ... ... : ... .. . ... ...
ROW 34 : ... .. 2 ... ... ... : ... .. 4 ... ... ... : ... .. . ... : ... .. 2 ... : ... .. . ... ... : ... .. . ... ... : ... .. . ... ... : ... .. . ... ...
ROW 35 : ... .. . ... ... ... : ... .. . ... ... ... : ... .. . ... : ... .. 0 ... : ... .. . ... ... : ... .. . ... ... : ... .. 6 ... ... : ... .. . ... ...
ROW 36 : A#3 00 F ... ... ... : C#3 00 9 ... ... ... : ... .. . ... : 1-# 00 F ... : ... .. . ... ... : ... .. . ... ... : F#3 01 A ... ... : ... .. . ... ...
ROW 37 : ... .. E ... ... ... : ... .. 8 ... ... ... : ... .. . ... : ... .. C ... : ... .. . ... ... : ... .. . ... ... : ... .. 9 ... ... : ... .. . ... ...
ROW 38 : ... .. D ... ... ... : ... .. . ... ... ... : ... .. . ... : ... .. 6 ... : ... .. . ... ... : ... .. . ... ... : ... .. 8 ... ... : ... .. . ... ...
ROW 39 : ... .. A ... ... ... : F#3 00 5 ... ... ... : ... .. . ... : ... .. 3 ... : ... .. . ... ... : ... .. . ... ... : ... .. 7 ... ... : ... .. . ... ...
ROW 3A : ... .. 2 ... ... ... : ... .. 4 ... ... ... : ... .. . ... : ... .. 2 ... : ... .. . ... ... : ... .. . ... ... : ... .. . ... ... : ... .. . ... ...
ROW 3B : ... .. . ... ... ... : ... .. . ... ... ... : --- .. . ... : ... .. 0 ... : ... .. . ... ... : ... .. . ... ... : ... .. 6 ... ... : --- .. . ... ...
ROW 3C : B-3 00 F ... ... ... : ... .. 9 ... ... ... : A#5 00 . ... : 7-# 00 F ... : ... .. . ... ... : D#3 01 A ... ... : D#4 01 A ... ... : B-2 01 F ... ...
ROW 3D : ... .. E ... ... ... : ... .. 8 ... ... ... : C-5 00 . ... : ... .. C ... : ... .. . ... ... : ... .. 9 ... ... : ... .. 9 ... ... : ... .. D ... ...
ROW 3E : ... .. D ... ... ... : ... .. . ... ... ... : F-4 00 . ... : ... .. 6 ... : ... .. . ... ... : ... .. 8 ... ... : ... .. 8 ... ... : ... .. 8 ... ...
ROW 3F : ... .. A ... ... ... : C#3 00 5 ... ... ... : E-4 00 . ... : ... .. 3 ... : ... .. . ... ... : --- .. . P83 ... : ... .. 7 ... ... : ... .. . ... ...
ROW 40 : ... .. . ... ... ... : ... .. 4 ... ... ... : B-3 00 . ... : ... .. 2 ... : ... .. . ... ... : ... .. . ... ... : ... .. . ... ... : ... .. . ... ...
ROW 41 : ... .. . ... ... ... : ... .. . ... ... ... : --- .. . ... : ... .. 0 ... : ... .. . ... ... : ... .. . ... ... : ... .. 6 ... ... : --- .. . P8B ...
ROW 42 : F#3 00 F ... ... ... : D#3 00 9 ... ... ... : B-2 00 . ... : 3-# 00 F ... : ... .. . ... ... : D#3 01 A P80 ... : B-3 01 A ... ... : B-1 01 F P80 ...
ROW 43 : ... .. E ... ... ... : ... .. 8 ... ... ... : ... .. . ... : ... .. C ... : ... .. . ... ... : ... .. 9 ... ... : ... .. 9 ... ... : ... .. D ... ...
ROW 44 : ... .. D ... ... ... : ... .. . ... ... ... : ... .. . ... : ... .. 6 ... : ... .. . ... ... : ... .. 8 ... ... : ... .. 8 ... ... : ... .. 8 ... ...
ROW 45 : ... .. A ... ... ... : F#3 00 5 ... ... ... : ... .. . ... : ... .. 3 ... : ... .. . ... ... : --- .. . P83 ... : ... .. 7 ... ... : ... .. . ... ...
ROW 46 : ... .. . ... ... ... : ... .. 4 ... ... ... : ... .. . ... : ... .. 2 ... : ... .. . ... ... : ... .. . ... ... : ... .. . ... ... : ... .. . ... ...
ROW 47 : ... .. . ... ... ... : ... .. . ... ... ... : --- .. . ... : ... .. 0 ... : ... .. . ... ... : ... .. . ... ... : ... .. 6 ... ... : --- .. . P86 ...
ROW 48 : D#3 00 F ... ... ... : B-2 00 9 ... ... ... : B-2 00 . ... : 1-# 00 F ... : ... .. . ... ... : D#3 01 A P80 ... : F#3 01 A ... ... : B-1 01 F P80 ...
ROW 49 : ... .. E ... ... ... : ... .. 8 ... ... ... : ... .. . ... : ... .. C ... : ... .. . ... ... : ... .. 9 ... ... : ... .. 9 ... ... : ... .. D ... ...
ROW 4A : ... .. D ... ... ... : ... .. . ... ... ... : ... .. . ... : ... .. 6 ... : ... .. . ... ... : ... .. 8 ... ... : ... .. 8 ... ... : ... .. 8 ... ...
ROW 4B : ... .. A ... ... ... : D#3 00 5 ... ... ... : ... .. . ... : ... .. 3 ... : ... .. . ... ... : --- .. . P83 ... : ... .. 7 ... ... : ... .. . ... ...
ROW 4C : ... .. 2 ... ... ... : ... .. 4 ... ... ... : ... .. . ... : ... .. 2 ... : ... .. . ... ... : ... .. . ... ... : ... .. . ... ... : ... .. . ... ...
ROW 4D : ... .. . ... ... ... : ... .. . ... ... ... : --- .. . ... : ... .. 0 ... : ... .. . ... ... : ... .. . ... ... : ... .. 6 ... ... : --- .. . P86 ...
ROW 4E : A#3 00 F ... ... ... : C#3 00 9 ... ... ... : A-5 00 . ... : 6-# 00 F ... : ... .. . ... ... : C#3 01 A P80 ... : F#4 01 A ... ... : A#2 01 F P80 ...
ROW 4F : ... .. E ... ... ... : ... .. 8 ... ... ... : B-4 00 . ... : ... .. C ... : ... .. . ... ... : ... .. 9 ... ... : ... .. 9 ... ... : ... .. D ... ...
ROW 50 : ... .. D ... ... ... : ... .. . ... ... ... : E-4 00 . ... : ... .. 6 ... : ... .. . ... ... : ... .. 8 ... ... : ... .. 8 ... ... : ... .. 8 ... ...
ROW 51 : ... .. A ... ... ... : B-2 00 5 ... ... ... : D#4 00 . ... : ... .. 3 ... : ... .. . ... ... : ... .. 7 ... ... : ... .. 7 ... ... : ... .. . ... ...
ROW 52 : ... .. . ... ... ... : ... .. 4 ... ... ... : A#3 00 . ... : ... .. 2 ... : ... .. . ... ... : ... .. . ... ... : ... .. . ... ... : ... .. . ... ...
ROW 53 : ... .. . ... ... ... : ... .. . ... ... ... : --- .. . ... : ... .. 0 ... : ... .. . ... ... : ... .. 6 ... ... : ... .. 6 ... ... : --- .. . ... ...
ROW 54 : F#3 00 F ... ... ... : A#2 00 9 ... ... ... : F#2 00 . ... : 2-# 00 F ... : ... .. . ... ... : ... .. . ... ... : C#4 01 A ... ... : F#1 01 F ... ...
ROW 55 : ... .. E ... ... ... : ... .. 8 ... ... ... : ... .. . ... : ... .. C ... : ... .. . ... ... : ... .. 5 ... ... : ... .. 9 ... ... : ... .. D ... ...
ROW 56 : ... .. D ... ... ... : ... .. . ... ... ... : ... .. . ... : ... .. 6 ... : ... .. . ... ... : ... .. . ... ... : ... .. 8 ... ... : ... .. 8 ... ...
ROW 57 : ... .. A ... ... ... : C#3 00 5 ... ... ... : ... .. . ... : ... .. 3 ... : ... .. . ... ... : ... .. . ... ... : ... .. 7 ... ... : ... .. . ... ...
ROW 58 : ... .. . ... ... ... : ... .. 4 ... ... ... : ... .. . ... : ... .. 2 ... : ... .. . ... ... : ... .. . ... ... : ... .. . ... ... : ... .. . ... ...
ROW 59 : ... .. . ... ... ... : ... .. . ... ... ... : --- .. . ... : ... .. 0 ... : ... .. . ... ... : ... .. . ... ... : ... .. 6 ... ... : --- .. . P81 ...
ROW 5A : C#3 00 F ... ... ... : F#2 00 9 ... ... ... : F#2 00 . ... : 1-# 00 F ... : ... .. . ... ... : ... .. . ... ... : A#3 01 A ... ... : F#1 01 F P80 ...
ROW 5B : ... .. E ... ... ... : ... .. 8 ... ... ... : ... .. . ... : ... .. C ... : ... .. . ... ... : ... .. . ... ... : ... .. 9 ... ... : ... .. D ... ...
ROW 5C : ... .. D ... ... ... : ... .. . ... ... ... : ... .. . ... : ... .. 6 ... : ... .. . ... ... : ... .. . ... ... : ... .. 8 ... ... : ... .. 8 ... ...
ROW 5D : ... .. A ... ... ... : A#2 00 5 ... ... ... : ... .. . ... : ... .. 3 ... : ... .. . ... ... : ... .. . ... ... : ... .. 7 ... ... : ... .. . ... ...
ROW 5E : ... .. 2 ... ... ... : ... .. 4 ... ... ... : ... .. . ... : ... .. 2 ... : ... .. . ... ... : ... .. . ... ... : ... .. . ... ... : ... .. . ... ...
ROW 5F : ... .. . ... ... ... : ... .. . ... ... ... : --- .. . ... : ... .. 0 ... : ... .. . ... ... : ... .. . ... ... : ... .. 6 ... ... : --- .. . P81 ...
ROW 60 : G#2 00 F ... ... ... : D#2 00 F ... ... ... : G-4 00 . ... : ... .. F ... : ... .. . ... ... : G#3 01 A ... ... : D#3 01 A ... ... : G#0 01 F P80 ...
ROW 61 : ... .. E ... ... ... : ... .. E ... ... ... : A-3 00 . ... : ... .. C ... : ... .. . ... ... : ... .. 9 ... ... : ... .. 9 ... ... : ... .. D ... ...
ROW 62 : ... .. D ... ... ... : ... .. D ... ... ... : D-3 00 . ... : ... .. 6 ... : ... .. . ... ... : ... .. 8 ... ... : ... .. 8 ... ... : ... .. 8 ... ...
ROW 63 : ... .. A ... ... ... : ... .. A ... ... ... : C#3 00 . ... : ... .. 3 ... : ... .. . ... ... : ... .. 7 ... ... : ... .. 7 ... ... : ... .. . ... ...
ROW 64 : ... .. 2 ... ... ... : ... .. 2 ... ... ... : G#2 00 . ... : ... .. 2 ... : ... .. . ... ... : ... .. . ... ... : ... .. . ... ... : ... .. . ... ...
ROW 65 : ... .. . ... ... ... : ... .. . ... ... ... : --- .. . ... : ... .. 0 ... : ... .. . ... ... : ... .. 6 ... ... : ... .. 6 ... ... : --- .. . P84 ...
ROW 66 : ... .. F ... ... ... : ... .. F ... ... ... : G#2 00 . ... : D-# 00 F ... : ... .. . ... ... : ... .. . ... ... : ... .. . ... ... : G#0 01 F P80 ...
ROW 67 : ... .. E ... ... ... : ... .. E ... ... ... : ... .. . ... : ... .. C ... : ... .. . ... ... : ... .. 5 ... ... : ... .. 5 ... ... : ... .. D ... ...
ROW 68 : ... .. D ... ... ... : ... .. D ... ... ... : ... .. . ... : ... .. 6 ... : ... .. . ... ... : ... .. . ... ... : ... .. . ... ... : ... .. 8 ... ...
ROW 69 : ... .. A ... ... ... : ... .. A ... ... ... : ... .. . ... : ... .. 3 ... : ... .. . ... ... : ... .. . ... ... : ... .. . ... ... : ... .. . ... ...
ROW 6A : ... .. 2 ... ... ... : ... .. 2 ... ... ... : ... .. . ... : ... .. 2 ... : ... .. . ... ... : ... .. . ... ... : ... .. . ... ... : ... .. . ... ...
ROW 6B : ... .. . ... ... ... : ... .. . ... ... ... : --- .. . ... : ... .. 0 ... : ... .. . ... ... : ... .. . ... ... : ... .. . ... ... : --- .. . P84 ...
ROW 6C : ... .. F ... ... ... : ... .. F ... ... ... : G#2 00 . ... : 6-# 00 F ... : ... .. . ... ... : --- .. . P82 ... : --- .. . P83 ... : G#0 01 F P80 ...
ROW 6D : ... .. E ... ... ... : ... .. E ... ... ... : ... .. . ... : ... .. C ... : ... .. . ... ... : ... .. . ... ... : ... .. . ... ... : ... .. D ... ...
ROW 6E : ... .. D ... ... ... : ... .. D ... ... ... : ... .. . ... : ... .. 6 ... : ... .. . ... ... : ... .. . ... ... : ... .. . ... ... : ... .. 8 ... ...
ROW 6F : ... .. A ... ... ... : ... .. A ... ... ... : ... .. . ... : ... .. 3 ... : ... .. . ... ... : ... .. . ... ... : ... .. . ... ... : ... .. . ... ...
ROW 70 : ... .. 2 ... ... ... : ... .. 2 ... ... ... : ... .. . ... : ... .. 2 ... : ... .. . ... ... : ... .. . ... ... : ... .. . ... ... : ... .. . ... ...
ROW 71 : ... .. . ... ... ... : ... .. . ... ... ... : --- .. . ... : ... .. 0 ... : ... .. . ... ... : ... .. . ... ... : ... .. . ... ... : --- .. . P84 ...
ROW 72 : B-2 00 F ... ... ... : F#2 00 F ... ... ... : F-5 00 . ... : D-# 00 F ... : ... .. . ... ... : D#3 01 A P80 ... : G#2 01 A P80 ... : F#1 01 F P80 ...
ROW 73 : ... .. E ... ... ... : ... .. E ... ... ... : G-4 00 . ... : ... .. C ... : ... .. . ... ... : ... .. 9 ... ... : ... .. 9 ... ... : ... .. D ... ...
ROW 74 : ... .. D ... ... ... : ... .. D ... ... ... : C-4 00 . ... : ... .. 6 ... : ... .. . ... ... : ... .. 8 ... ... : ... .. 8 ... ... : ... .. 8 ... ...
ROW 75 : ... .. A ... ... ... : ... .. A ... ... ... : B-3 00 . ... : ... .. 3 ... : ... .. . ... ... : --- .. . P83 ... : --- .. . ... ... : ... .. . ... ...
ROW 76 : ... .. . ... ... ... : ... .. . ... ... ... : F#3 00 . ... : ... .. 2 ... : ... .. . ... ... : ... .. . ... ... : ... .. . ... ... : ... .. . ... ...
ROW 77 : ... .. . ... ... ... : ... .. . ... ... ... : --- .. . ... : ... .. 0 ... : ... .. . ... ... : ... .. . ... ... : ... .. . ... ... : --- .. . P81 ...
ROW 78 : F#2 00 F ... ... ... : C#2 00 F ... ... ... : G#3 00 . ... : 1-# 00 F ... : ... .. . ... ... : D#3 01 A P80 ... : G#2 01 A ... ... : G#1 01 F P80 ...
ROW 79 : ... .. E ... ... ... : ... .. E ... ... ... : ... .. . ... : ... .. C ... : ... .. . ... ... : ... .. 9 ... ... : ... .. 9 ... ... : ... .. D ... ...
ROW 7A : ... .. D ... ... ... : ... .. D ... ... ... : ... .. . ... : ... .. 6 ... : ... .. . ... ... : ... .. 8 ... ... : ... .. 8 ... ... : ... .. 8 ... ...
ROW 7B : ... .. A ... ... ... : ... .. A ... ... ... : ... .. . ... : ... .. 3 ... : ... .. . ... ... : --- .. . P83 ... : --- .. . ... ... : ... .. . ... ...
ROW 7C : ... .. 2 ... ... ... : ... .. 2 ... ... ... : ... .. . ... : ... .. 2 ... : ... .. . ... ... : ... .. . ... ... : ... .. . ... ... : ... .. . ... ...
ROW 7D : ... .. . ... ... ... : ... .. . ... ... ... : --- .. . ... : ... .. 0 ... : ... .. . ... ... : ... .. . ... ... : ... .. . ... ... : --- .. . P7E ...
ROW 7E : ... .. F ... ... ... : ... .. F ... ... ... : F#2 00 . ... : ... .. F ... : ... .. . ... ... : D#3 01 A P80 ... : G#2 01 A ... ... : F#0 01 F P80 ...
ROW 7F : ... .. E ... ... ... : ... .. E ... ... ... : ... .. . ... : ... .. C ... : ... .. . ... ... : ... .. 9 ... ... : ... .. 9 ... ... : ... .. D ... ...
ROW 80 : ... .. D ... ... ... : ... .. D ... ... ... : ... .. . ... : ... .. 6 ... : ... .. . ... ... : ... .. 8 ... ... : ... .. 8 ... ... : ... .. 8 ... ...
ROW 81 : ... .. A ... ... ... : ... .. A ... ... ... : ... .. . ... : ... .. 3 ... : ... .. . ... ... : --- .. . P83 ... : --- .. . ... ... : ... .. . ... ...
ROW 82 : ... .. 2 ... ... ... : ... .. 2 ... ... ... : ... .. . ... : ... .. 2 ... : ... .. . ... ... : ... .. . ... ... : ... .. . ... ... : ... .. . ... ...
ROW 83 : ... .. . ... ... ... : ... .. . ... ... ... : --- .. . ... : ... .. 0 ... : ... .. . ... ... : ... .. . ... ... : ... .. . ... ... : --- .. . P81 ...
ROW 84 : G#2 00 F ... ... ... : D#2 00 F ... ... ... : G-4 00 . ... : 6-# 00 F ... : ... .. . ... ... : C#3 01 A P80 ... : F#2 01 A ... ... : G#0 01 F P80 ...
ROW 85 : ... .. E ... ... ... : ... .. E ... ... ... : A-3 00 . ... : ... .. C ... : ... .. . ... ... : ... .. 9 ... ... : ... .. 9 ... ... : ... .. D ... ...
ROW 86 : ... .. D ... ... ... : ... .. D ... ... ... : D-3 00 . ... : ... .. 6 ... : ... .. . ... ... : ... .. 8 ... ... : ... .. 8 ... ... : ... .. 8 ... ...
ROW 87 : ... .. A ... ... ... : ... .. A ... ... ... : C#3 00 . ... : ... .. 3 ... : ... .. . ... ... : ... .. 7 ... ... : ... .. 7 ... ... : ... .. . ... ...
ROW 88 : ... .. 2 ... ... ... : ... .. 2 ... ... ... : G#2 00 . ... : ... .. 2 ... : ... .. . ... ... : ... .. . ... ... : ... .. . ... ... : ... .. . ... ...
ROW 89 : ... .. . ... ... ... : ... .. . ... ... ... : --- .. . ... : ... .. 0 ... : ... .. . ... ... : ... .. 6 ... ... : ... .. 6 ... ... : --- .. . P84 ...
ROW 8A : ... .. F ... ... ... : ... .. F ... ... ... : G#2 00 . ... : D-# 00 F ... : ... .. . ... ... : D#3 01 A ... ... : G#2 01 A ... ... : G#0 01 F P80 ...
ROW 8B : ... .. E ... ... ... : ... .. E ... ... ... : ... .. . ... : ... .. C ... : ... .. . ... ... : ... .. 9 ... ... : ... .. 9 ... ... : ... .. D ... ...
ROW 8C : ... .. D ... ... ... : ... .. D ... ... ... : ... .. . ... : ... .. 6 ... : ... .. . ... ... : ... .. 8 ... ... : ... .. 8 ... ... : ... .. 8 ... ...
ROW 8D : ... .. A ... ... ... : ... .. A ... ... ... : ... .. . ... : ... .. 3 ... : ... .. . ... ... : --- .. . P83 ... : --- .. . ... ... : ... .. . ... ...
ROW 8E : ... .. 2 ... ... ... : ... .. 2 ... ... ... : ... .. . ... : ... .. 2 ... : ... .. . ... ... : ... .. . ... ... : ... .. . ... ... : ... .. . ... ...
ROW 8F : ... .. . ... ... ... : ... .. . ... ... ... : --- .. . ... : ... .. 0 ... : ... .. . ... ... : ... .. . ... ... : ... .. . ... ... : --- .. . P84 ...
ROW 90 : ... .. F ... ... ... : ... .. F ... ... ... : G#2 00 . ... : 1-# 00 F ... : ... .. . ... ... : D#3 01 A P80 ... : G#2 01 A ... ... : G#0 01 F P80 ...
ROW 91 : ... .. E ... ... ... : ... .. E ... ... ... : ... .. . ... : ... .. C ... : ... .. . ... ... : ... .. 9 ... ... : ... .. 9 ... ... : ... .. D ... ...
ROW 92 : ... .. D ... ... ... : ... .. D ... ... ... : ... .. . ... : ... .. 6 ... : ... .. . ... ... : ... .. 8 ... ... : ... .. 8 ... ... : ... .. 8 ... ...
ROW 93 : ... .. A ... ... ... : ... .. A ... ... ... : ... .. . ... : ... .. 3 ... : ... .. . ... ... : --- .. . P83 ... : --- .. . ... ... : ... .. . ... ...
ROW 94 : ... .. 2 ... ... ... : ... .. 2 ... ... ... : ... .. . ... : ... .. 2 ... : ... .. . ... ... : ... .. . ... ... : ... .. . ... ... : ... .. . ... ...
ROW 95 : ... .. . ... ... ... : ... .. . ... ... ... : --- .. . ... : ... .. 0 ... : ... .. . ... ... : ... .. . ... ... : ... .. . ... ... : --- .. . P84 ...
ROW 96 : C#3 00 F ... ... ... : G#2 00 F ... ... ... : F-5 00 . ... : D-# 00 F ... : ... .. . ... ... : D#3 01 A P80 ... : G#2 01 A ... ... : F#1 01 F P80 ...
ROW 97 : ... .. E ... ... ... : ... .. E ... ... ... : G-4 00 . ... : ... .. C ... : ... .. . ... ... : ... .. 9 ... ... : ... .. 9 ... ... : ... .. D ... ...
ROW 98 : ... .. D ... ... ... : ... .. D ... ... ... : C-4 00 . ... : ... .. 6 ... : ... .. . ... ... : ... .. 8 ... ... : ... .. 8 ... ... : ... .. 8 ... ...
ROW 99 : ... .. A ... ... ... : ... .. A ... ... ... : B-3 00 . ... : ... .. 3 ... : ... .. . ... ... : ... .. 7 ... ... : ... .. 7 ... ... : ... .. . ... ...
ROW 9A : ... .. . ... ... ... : ... .. . ... ... ... : F#3 00 . ... : ... .. 2 ... : ... .. . ... ... : ... .. . ... ... : ... .. . ... ... : ... .. . ... ...
ROW 9B : ... .. . ... ... ... : ... .. . ... ... ... : --- .. . ... : ... .. 0 ... : ... .. . ... ... : ... .. 6 ... ... : ... .. 6 ... ... : --- .. . P81 ...
ROW 9C : B-2 00 F ... ... ... : F#2 00 F ... ... ... : G#3 00 . ... : 6-# 00 F ... : ... .. . ... ... : ... .. . ... ... : ... .. . ... ... : G#1 01 F P80 ...
ROW 9D : ... .. E ... ... ... : ... .. E ... ... ... : ... .. . ... : ... .. C ... : ... .. . ... ... : ... .. 5 ... ... : ... .. 5 ... ... : ... .. D ... ...
ROW 9E : ... .. D ... ... ... : ... .. D ... ... ... : ... .. . ... : ... .. 6 ... : ... .. . ... ... : ... .. . ... ... : ... .. . ... ... : ... .. 8 ... ...
ROW 9F : ... .. A ... ... ... : ... .. A ... ... ... : ... .. . ... : ... .. 3 ... : ... .. . ... ... : ... .. . ... ... : ... .. . ... ... : ... .. . ... ...
ROW A0 : ... .. . ... ... ... : ... .. . ... ... ... : ... .. . ... : ... .. 2 ... : ... .. . ... ... : ... .. . ... ... : ... .. . ... ... : ... .. . ... ...
ROW A1 : ... .. . ... ... ... : ... .. . ... ... ... : --- .. . ... : ... .. 0 ... : ... .. . ... ... : ... .. . ... ... : ... .. . ... ... : --- .. . P7E ...
ROW A2 : F#2 00 F ... ... ... : C#2 00 F ... ... ... : F#2 00 . ... : D-# 00 F ... : ... .. . ... ... : ... .. . ... ... : ... .. . ... ... : F#0 01 F P80 ...
ROW A3 : ... .. E ... ... ... : ... .. E ... ... ... : ... .. . ... : ... .. C ... : ... .. . ... ... : ... .. . ... ... : ... .. . ... ... : ... .. D ... ...
ROW A4 : ... .. D ... ... ... : ... .. D ... ... ... : ... .. . ... : ... .. 6 ... : ... .. . ... ... : ... .. . ... ... : ... .. . ... ... : ... .. 8 ... ...
ROW A5 : ... .. A ... ... ... : ... .. A ... ... ... : ... .. . ... : ... .. 3 ... : ... .. . ... ... : ... .. . ... ... : ... .. . ... ... : ... .. . ... ...
ROW A6 : ... .. 2 ... ... ... : ... .. 2 ... ... ... : ... .. . ... : ... .. 2 ... : ... .. . ... ... : ... .. . ... ... : ... .. . ... ... : ... .. . ... ...
ROW A7 : ... .. . ... ... ... : ... .. . ... ... ... : --- .. . ... : ... .. 0 ... : ... .. . ... ... : ... .. . ... ... : ... .. . ... ... : --- .. . P81 ...
ROW A8 : G#2 00 F ... ... ... : D#2 00 F ... ... ... : G-4 00 . ... : 1-# 00 F ... : ... .. . ... ... : ... .. . ... ... : ... .. . ... ... : G#0 01 F P80 ...
ROW A9 : ... .. E ... ... ... : ... .. E ... ... ... : A-3 00 . ... : ... .. C ... : ... .. . ... ... : ... .. . ... ... : ... .. . ... ... : ... .. D ... ...
ROW AA : ... .. D ... ... ... : ... .. D ... ... ... : D-3 00 . ... : ... .. 6 ... : ... .. . ... ... : ... .. . ... ... : ... .. . ... ... : ... .. 8 ... ...
ROW AB : ... .. A ... ... ... : ... .. A ... ... ... : C#3 00 . ... : ... .. 3 ... : ... .. . ... ... : ... .. . ... ... : ... .. . ... ... : ... .. . ... ...
ROW AC : ... .. 2 ... ... ... : ... .. 2 ... ... ... : G#2 00 . ... : ... .. 2 ... : ... .. . ... ... : ... .. . ... ... : ... .. . ... ... : ... .. . ... ...
ROW AD : ... .. . ... ... ... : ... .. . ... ... ... : --- .. . ... : ... .. 0 ... : ... .. . ... ... : ... .. . ... ... : ... .. . ... ... : --- .. . P84 ...
ROW AE : ... .. F ... ... ... : ... .. F ... ... ... : G#2 00 . ... : ... .. F ... : ... .. . ... ... : ... .. . ... ... : ... .. . ... ... : G#0 01 F P80 ...
ROW AF : ... .. E ... ... ... : ... .. E ... ... ... : ... .. . ... : ... .. C ... : ... .. . ... ... : ... .. . ... ... : ... .. . ... ... : ... .. D ... ...
ROW B0 : ... .. D ... ... ... : ... .. D ... ... ... : ... .. . ... : ... .. 6 ... : ... .. . ... ... : ... .. . ... ... : ... .. . ... ... : ... .. 8 ... ...
ROW B1 : ... .. A ... ... ... : ... .. A ... ... ... : ... .. . ... : ... .. 3 ... : ... .. . ... ... : --- .. . P83 ... : --- .. . ... ... : ... .. . ... ...
ROW B2 : ... .. 2 ... ... ... : ... .. 2 ... ... ... : ... .. . ... : ... .. 2 ... : ... .. . ... ... : ... .. . ... ... : ... .. . ... ... : ... .. . ... ...
ROW B3 : ... .. . ... ... ... : ... .. . ... ... ... : --- .. . ... : ... .. 0 ... : ... .. . ... ... : ... .. . ... ... : ... .. . ... ... : --- .. . P84 ...
ROW B4 : ... .. F ... ... ... : ... .. F ... ... ... : G#2 00 . ... : 6-# 00 F ... : ... .. . ... ... : ... .. . ... ... : ... .. . ... ... : G#0 01 F P80 ...
ROW B5 : ... .. E ... ... ... : ... .. E ... ... ... : ... .. . ... : ... .. C ... : ... .. . ... ... : ... .. . ... ... : ... .. . ... ... : ... .. D ... ...
ROW B6 : ... .. D ... ... ... : ... .. D ... ... ... : ... .. . ... : ... .. 6 ... : ... .. . ... ... : ... .. . ... ... : ... .. . ... ... : ... .. 8 ... ...
ROW B7 : ... .. A ... ... ... : ... .. A ... ... ... : ... .. . ... : ... .. 3 ... : ... .. . ... ... : ... .. . ... ... : ... .. . ... ... : ... .. . ... ...
ROW B8 : ... .. 2 ... ... ... : ... .. 2 ... ... ... : ... .. . ... : ... .. 2 ... : ... .. . ... ... : ... .. . ... ... : ... .. . ... ... : ... .. . ... ...
ROW B9 : ... .. . ... ... ... : ... .. . ... ... ... : --- .. . ... : ... .. 0 ... : ... .. . ... ... : ... .. . ... ... : ... .. . ... ... : --- .. . P84 ...
ROW BA : E-3 00 F ... ... ... : B-2 00 F ... ... ... : D#5 00 . ... : D-# 00 F ... : ... .. . ... ... : D#3 01 A P80 ... : G#2 01 A ... ... : E-1 01 F P80 ...
ROW BB : ... .. E ... ... ... : ... .. E ... ... ... : F-4 00 . ... : ... .. C ... : ... .. . ... ... : ... .. 9 ... ... : ... .. 9 ... ... : ... .. D ... ...
ROW BC : ... .. D ... ... ... : ... .. D ... ... ... : A#3 00 . ... : ... .. 6 ... : ... .. . ... ... : ... .. 8 ... ... : ... .. 8 ... ... : ... .. 8 ... ...
ROW BD : ... .. A ... ... ... : ... .. A ... ... ... : A-3 00 . ... : ... .. 3 ... : ... .. . ... ... : --- .. . P83 ... : --- .. . ... ... : ... .. . ... ...
ROW BE : ... .. . ... ... ... : ... .. . ... ... ... : E-3 00 . ... : ... .. 2 ... : ... .. . ... ... : ... .. . ... ... : ... .. . ... ... : ... .. . ... ...
ROW BF : ... .. . ... ... ... : ... .. . ... ... ... : --- .. . ... : ... .. 0 ... : ... .. . ... ... : ... .. . ... ... : ... .. . ... ... : --- .. . P82 ...
ROW C0 : D#3 00 F ... ... ... : A#2 00 F ... ... ... : D#3 00 . ... : 1-# 00 F ... : ... .. . ... ... : D#3 01 A P80 ... : G#2 01 A ... ... : D#1 01 F P80 ...
ROW C1 : ... .. E ... ... ... : ... .. E ... ... ... : ... .. . ... : ... .. C ... : ... .. . ... ... : ... .. 9 ... ... : ... .. 9 ... ... : ... .. D ... ...
ROW C2 : ... .. D ... ... ... : ... .. D ... ... ... : ... .. . ... : ... .. 6 ... : ... .. . ... ... : ... .. 8 ... ... : ... .. 8 ... ... : ... .. 8 ... ...
ROW C3 : ... .. A ... ... ... : ... .. A ... ... ... : ... .. . ... : ... .. 3 ... : ... .. . ... ... : --- .. . P83 ... : --- .. . ... ... : ... .. . ... ...
ROW C4 : ... .. . ... ... ... : ... .. . ... ... ... : ... .. . ... : ... .. 2 ... : ... .. . ... ... : ... .. . ... ... : ... .. . ... ... : ... .. . ... ...
ROW C5 : ... .. . ... ... ... : ... .. . ... ... ... : --- .. . ... : ... .. 0 ... : ... .. . ... ... : ... .. . ... ... : ... .. . ... ... : --- .. . P81 ...
ROW C6 : B-2 00 F ... ... ... : F#2 00 F ... ... ... : F#2 00 . ... : D-# 00 F ... : ... .. . ... ... : D#3 01 A P80 ... : G#2 01 A ... ... : F#0 01 F P80 ...
ROW C7 : ... .. E ... ... ... : ... .. E ... ... ... : ... .. . ... : ... .. C ... : ... .. . ... ... : ... .. 9 ... ... : ... .. 9 ... ... : ... .. D ... ...
ROW C8 : ... .. D ... ... ... : ... .. D ... ... ... : ... .. . ... : ... .. 6 ... : ... .. . ... ... : ... .. 8 ... ... : ... .. 8 ... ... : ... .. 8 ... ...
ROW C9 : ... .. A ... ... ... : ... .. A ... ... ... : ... .. . ... : ... .. 3 ... : ... .. . ... ... : --- .. . P83 ... : --- .. . ... ... : ... .. . ... ...
ROW CA : ... .. 2 ... ... ... : ... .. 2 ... ... ... : ... .. . ... : ... .. 2 ... : ... .. . ... ... : ... .. . ... ... : ... .. . ... ... : ... .. . ... ...
ROW CB : ... .. . ... ... ... : ... .. . ... ... ... : --- .. . ... : ... .. 0 ... : ... .. . ... ... : ... .. . ... ... : ... .. . ... ... : --- .. . P81 ...
ROW CC : C#3 00 F ... ... ... : G#2 00 F ... ... ... : C-5 00 . ... : 6-# 00 F ... : ... .. . ... ... : G#3 01 A P80 ... : D#3 01 A ... ... : C#1 01 F P80 ...
ROW CD : ... .. E ... ... ... : ... .. E ... ... ... : D-4 00 . ... : ... .. C ... : ... .. . ... ... : ... .. 9 ... ... : ... .. 9 ... ... : ... .. D ... ...
ROW CE : ... .. D ... ... ... : ... .. D ... ... ... : G-3 00 . ... : ... .. 6 ... : ... .. . ... ... : ... .. 8 ... ... : ... .. 8 ... ... : ... .. 8 ... ...
ROW CF : ... .. A ... ... ... : ... .. A ... ... ... : F#3 00 . ... : ... .. 3 ... : ... .. . ... ... : ... .. 7 ... ... : ... .. 7 ... ... : ... .. . ... ...
ROW D0 : ... .. . ... ... ... : ... .. . ... ... ... : C#3 00 . ... : ... .. 2 ... : ... .. . ... ... : ... .. . ... ... : ... .. . ... ... : ... .. . ... ...
ROW D1 : ... .. . ... ... ... : ... .. . ... ... ... : --- .. . ... : ... .. 0 ... : ... .. . ... ... : ... .. 6 ... ... : ... .. 6 ... ... : --- .. . P81 ...
ROW D2 : F#2 00 F ... ... ... : C#2 00 F ... ... ... : B-2 00 . ... : D-# 00 F ... : ... .. . ... ... : D#3 01 A ... ... : G#2 01 A ... ... : B-0 01 F P80 ...
ROW D3 : ... .. E ... ... ... : ... .. E ... ... ... : ... .. . ... : ... .. C ... : ... .. . ... ... : ... .. 9 ... ... : ... .. 9 ... ... : ... .. D ... ...
ROW D4 : ... .. D ... ... ... : ... .. D ... ... ... : ... .. . ... : ... .. 6 ... : ... .. . ... ... : ... .. 8 ... ... : ... .. 8 ... ... : ... .. 8 ... ...
ROW D5 : ... .. A ... ... ... : ... .. A ... ... ... : ... .. . ... : ... .. 3 ... : ... .. . ... ... : --- .. . P83 ... : --- .. . ... ... : ... .. . ... ...
ROW D6 : ... .. . ... ... ... : ... .. . ... ... ... : ... .. . ... : ... .. 2 ... : ... .. . ... ... : ... .. . ... ... : ... .. . ... ... : ... .. . ... ...
ROW D7 : ... .. . ... ... ... : ... .. . ... ... ... : --- .. . ... : ... .. 0 ... : ... .. . ... ... : ... .. . ... ... : ... .. . ... ... : --- .. . ... ...
ROW D8 : G#2 00 F ... ... ... : D#2 00 F ... ... ... : C#3 00 . ... : 1-# 00 F ... : ... .. . ... ... : D#3 01 A P80 ... : G#2 01 A ... ... : C#1 01 F ... ...
ROW D9 : ... .. E ... ... ... : ... .. E ... ... ... : ... .. . ... : ... .. C ... : ... .. . ... ... : ... .. 9 ... ... : ... .. 9 ... ... : ... .. D ... ...
ROW DA : ... .. D ... ... ... : ... .. D ... ... ... : ... .. . ... : ... .. 6 ... : ... .. . ... ... : ... .. 8 ... ... : ... .. 8 ... ... : ... .. 8 ... ...
ROW DB : ... .. A ... ... ... : ... .. A ... ... ... : ... .. . ... : ... .. 3 ... : ... .. . ... ... : --- .. . P83 ... : --- .. . ... ... : ... .. . ... ...
ROW DC : ... .. 2 ... ... ... : ... .. 2 ... ... ... : ... .. . ... : ... .. 2 ... : ... .. . ... ... : ... .. . ... ... : ... .. . ... ... : ... .. . ... ...
ROW DD : ... .. . ... ... ... : ... .. . ... ... ... : --- .. . ... : ... .. 0 ... : ... .. . ... ... : ... .. . ... ... : ... .. . ... ... : --- .. . P81 ...
ROW DE : C#2 00 F ... ... ... : G#1 00 F ... ... ... : F-5 00 . ... : ... .. F ... : ... .. . ... ... : D#3 01 A P80 ... : G#2 01 A ... ... : F#1 01 F P80 ...
ROW DF : ... .. E ... ... ... : ... .. E ... ... ... : G-4 00 . ... : ... .. C ... : ... .. . ... ... : ... .. 9 ... ... : ... .. 9 ... ... : ... .. D ... ...
ROW E0 : ... .. D ... ... ... : ... .. D ... ... ... : C-4 00 . ... : ... .. 6 ... : ... .. . ... ... : ... .. 8 ... ... : ... .. 8 ... ... : ... .. 8 ... ...
ROW E1 : ... .. A ... ... ... : ... .. A ... ... ... : B-3 00 . ... : ... .. 3 ... : ... .. . ... ... : ... .. 7 ... ... : ... .. 7 ... ... : ... .. . ... ...
ROW E2 : ... .. . ... ... ... : ... .. . ... ... ... : F#3 00 . ... : ... .. 2 ... : ... .. . ... ... : ... .. . ... ... : ... .. . ... ... : ... .. . ... ...
ROW E3 : ... .. . ... ... ... : ... .. . ... ... ... : --- .. . ... : ... .. 0 ... : ... .. . ... ... : ... .. 6 ... ... : ... .. 6 ... ... : --- .. . P81 ...
ROW E4 : D#2 00 F ... ... ... : A#1 00 F ... ... ... : G#3 00 . ... : 6-# 00 F ... : ... .. . ... ... : ... .. . ... ... : ... .. . ... ... : G#1 01 F P80 ...
ROW E5 : ... .. E ... ... ... : ... .. E ... ... ... : ... .. . ... : ... .. C ... : ... .. . ... ... : ... .. 5 ... ... : ... .. 5 ... ... : ... .. D ... ...
ROW E6 : ... .. D ... ... ... : ... .. D ... ... ... : ... .. . ... : ... .. 6 ... : ... .. . ... ... : ... .. . ... ... : ... .. . ... ... : ... .. 8 ... ...
ROW E7 : ... .. A ... ... ... : ... .. A ... ... ... : ... .. . ... : ... .. 3 ... : ... .. . ... ... : ... .. . ... ... : ... .. . ... ... : ... .. . ... ...
ROW E8 : ... .. . ... ... ... : ... .. . ... ... ... : ... .. . ... : ... .. 2 ... : ... .. . ... ... : ... .. . ... ... : ... .. . ... ... : ... .. . ... ...
ROW E9 : ... .. . ... ... ... : ... .. . ... ... ... : --- .. . ... : ... .. 0 ... : ... .. . ... ... : ... .. . ... ... : ... .. . ... ... : --- .. . P7E ...
ROW EA : B-1 00 F ... ... ... : F#1 00 F ... ... ... : B-3 00 . ... : ... .. F ... : ... .. . ... ... : ... .. . ... ... : ... .. . ... ... : B-1 01 F P80 ...
ROW EB : ... .. E ... ... ... : ... .. E ... ... ... : ... .. . ... : ... .. C ... : ... .. . ... ... : ... .. . ... ... : ... .. . ... ... : ... .. D ... ...
ROW EC : ... .. D ... ... ... : ... .. D ... ... ... : ... .. . ... : ... .. 6 ... : ... .. . ... ... : ... .. . ... ... : ... .. . ... ... : ... .. 8 ... ...
ROW ED : ... .. A ... ... ... : ... .. A ... ... ... : ... .. . ... : ... .. 3 ... : ... .. . ... ... : --- .. . P83 ... : --- .. . ... ... : ... .. . ... ...
ROW EE : ... .. 2 ... ... ... : ... .. 2 ... ... ... : ... .. . ... : ... .. 2 ... : ... .. . ... ... : ... .. . ... ... : ... .. . ... ... : ... .. . ... ...
ROW EF : ... .. . ... ... ... : ... .. . ... ... ... : --- .. . ... : ... .. 0 ... : ... .. . ... ... : ... .. . ... ... : ... .. . ... ... : --- .. . P86 ...
ROW F0 : G#1 00 F ... ... ... : D#1 00 F ... ... ... : G-4 00 . ... : 1-# 00 F ... : ... .. . ... ... : ... .. . ... ... : ... .. . ... ... : G#0 01 F P80 ...
ROW F1 : ... .. E ... ... ... : ... .. E ... ... ... : A-3 00 . ... : ... .. C ... : ... .. . ... ... : ... .. . ... ... : ... .. . ... ... : ... .. D ... ...
ROW F2 : ... .. D ... ... ... : ... .. D ... ... ... : D-3 00 . ... : ... .. 6 ... : ... .. . ... ... : ... .. . ... ... : ... .. . ... ... : ... .. 8 ... ...
ROW F3 : ... .. A ... ... ... : ... .. A ... ... ... : C#3 00 . ... : ... .. 3 ... : ... .. . ... ... : ... .. . ... ... : ... .. . ... ... : ... .. . ... ...
ROW F4 : ... .. 2 ... ... ... : ... .. 2 ... ... ... : G#2 00 . ... : ... .. 2 ... : ... .. . ... ... : ... .. . ... ... : ... .. . ... ... : ... .. . ... ...
ROW F5 : ... .. . ... ... ... : ... .. . ... ... ... : --- .. . ... : ... .. 0 ... : ... .. . ... ... : ... .. . ... ... : ... .. . ... ... : --- .. . P84 ...
ROW F6 : ... .. F ... ... ... : ... .. F ... ... ... : G#2 00 . ... : ... .. F ... : ... .. . ... ... : ... .. . ... ... : ... .. . ... ... : G#0 01 F P80 ...
ROW F7 : ... .. E ... ... ... : ... .. E ... ... ... : ... .. . ... : ... .. C ... : ... .. . ... ... : ... .. . ... ... : ... .. . ... ... : ... .. D ... ...
ROW F8 : ... .. D ... ... ... : ... .. D ... ... ... : ... .. . ... : ... .. 6 ... : ... .. . ... ... : ... .. . ... ... : ... .. . ... ... : ... .. 8 ... ...
ROW F9 : ... .. A ... ... ... : ... .. A ... ... ... : ... .. . ... : ... .. 3 ... : ... .. . ... ... : ... .. . ... ... : ... .. . ... ... : ... .. . ... ...
ROW FA : ... .. 2 ... ... ... : ... .. 2 ... ... ... : ... .. . ... : ... .. 2 ... : ... .. . ... ... : ... .. . ... ... : ... .. . ... ... : ... .. . ... ...
ROW FB : ... .. . ... ... ... : ... .. . ... ... ... : --- .. . ... : ... .. 0 ... : ... .. . ... ... : ... .. . ... ... : ... .. . ... ... : --- .. . P84 ...
ROW FC : ... .. F ... ... ... : ... .. F ... ... ... : G#2 00 . ... : 6-# 00 F ... : ... .. . ... ... : ... .. . ... ... : ... .. . ... ... : G#0 01 F P80 ...
ROW FD : ... .. E ... ... ... : ... .. E ... ... ... : ... .. . ... : ... .. C ... : ... .. . ... ... : ... .. . ... ... : ... .. . ... ... : ... .. D ... ...
ROW FE : ... .. D ... ... ... : ... .. D ... ... ... : ... .. . ... : ... .. 6 ... : ... .. . ... ... : ... .. . ... ... : ... .. . ... ... : ... .. 8 ... ...
ROW FF : ... .. A ... ... ... : ... .. A ... ... ... : ... .. . ... : ... .. 3 ... : ... .. . ... ... : ... .. . ... ... : ... .. . ... ... : ... .. . ... ...

PATTERN 16
ROW 00 : ... .. 2 ... ... ... : ... .. 2 ... ... ... : ... .. . ... : ... .. 2 ... : ... .. . ... ... : ... .. . ... ... : ... .. . ... ... : ... .. . ... ...
ROW 01 : ... .. . ... ... ... : ... .. . ... ... ... : --- .. . ... : ... .. 0 ... : ... .. . ... ... : ... .. . ... ... : ... .. . ... ... : --- .. . P84 ...
ROW 02 : C#3 00 F ... ... ... : G#2 00 F ... ... ... : C-6 00 . ... : 1-# 00 F ... : ... .. . ... ... : G#4 01 A P80 ... : C#4 01 A ... ... : C#2 01 F P80 ...
ROW 03 : ... .. E ... ... ... : ... .. E ... ... ... : D-5 00 . ... : ... .. C ... : ... .. . ... ... : ... .. 9 ... ... : --- .. . ... ... : ... .. D ... ...
ROW 04 : ... .. D ... ... ... : ... .. D ... ... ... : G-4 00 . ... : ... .. 6 ... : ... .. . ... ... : --- .. . ... ... : ... .. . ... ... : ... .. 8 ... ...
ROW 05 : ... .. A ... ... ... : ... .. A ... ... ... : F#4 00 . ... : ... .. 3 ... : ... .. . ... ... : G#4 01 A ... ... : C#4 01 A ... ... : ... .. . ... ...
ROW 06 : ... .. . ... ... ... : ... .. . ... ... ... : C#4 00 . ... : ... .. 2 ... : ... .. . ... ... : ... .. 9 ... ... : --- .. . ... ... : ... .. . ... ...
ROW 07 : ... .. . ... ... ... : ... .. . ... ... ... : ... .. . ... : ... .. 0 ... : ... .. . ... ... : --- .. . ... ... : ... .. . ... ... : ... .. . ... ...
ROW 08 : ... .. . ... ... ... : ... .. . ... ... ... : D-4 00 . P7B : ... .. F ... : ... .. . ... ... : G#4 01 A ... ... : C#4 01 A ... ... : ... .. . P87 ...
ROW 09 : ... .. . ... ... ... : ... .. . ... ... ... : ... .. . P7D : ... .. C ... : ... .. . ... ... : ... .. 9 ... ... : --- .. . ... ... : ... .. . P89 ...
ROW 0A : ... .. . ... ... ... : ... .. . ... ... ... : C#4 00 . P86 : ... .. 6 ... : ... .. . ... ... : --- .. . ... ... : ... .. . ... ... : ... .. . P86 ...
ROW 0B : D-3 00 A P88 ... ... : A-2 00 A ... ... ... : ... .. . P80 : ... .. 3 ... : ... .. . ... ... : G#4 01 A ... ... : C#4 01 A ... ... : ... .. . P80 ...
ROW 0C : D#3 00 A P7F ... ... : ... .. . P8C ... ... : C-4 00 . P85 : ... .. 2 ... : ... .. . ... ... : ... .. 9 ... ... : --- .. . ... ... : ... .. . P79 ...
ROW 0D : D-3 00 A P84 ... ... : ... .. . P7C ... ... : ... .. . P83 : ... .. 0 ... : ... .. . ... ... : --- .. . ... ... : ... .. . ... ... : ... .. . P77 ...
ROW 0E : C#3 00 A P80 ... ... : G#2 00 A P80 ... ... : ... .. . P86 : ... .. F ... : ... .. . ... ... : G#4 01 A ... ... : C#4 01 A ... ... : ... .. . P7A ...
ROW 0F : C-3 00 A P79 ... ... : G-2 00 A P81 ... ... : C#4 00 . P80 : ... .. C ... : ... .. . ... ... : ... .. 9 ... ... : ... .. 9 ... ... : ... .. . P80 ...
ROW 10 : B-2 00 A P86 ... ... : ... .. . P75 ... ... : D-4 00 . P7B : ... .. 6 ... : ... .. . ... ... : ... .. 8 ... ... : ... .. 8 ... ... : ... .. . P87 ...
ROW 11 : C-3 00 A P7D ... ... : ... .. . P85 ... ... : ... .. . P7D : ... .. 3 ... : ... .. . ... ... : --- .. . ... ... : --- .. . ... ... : ... .. . P89 ...
ROW 12 : C#3 00 2 P80 ... ... : G#2 00 2 P80 ... ... : C#4 00 . P86 : ... .. 2 ... : ... .. . ... ... : ... .. . ... ... : ... .. . ... ... : ... .. . P86 ...
ROW 13 : D-3 00 2 P88 ... ... : A-2 00 2 ... ... ... : ... .. . P80 : ... .. 0 ... : ... .. . ... ... : ... .. . ... ... : ... .. . ... ... : ... .. . P80 ...
ROW 14 : G#1 00 F P80 ... ... : D#1 00 F ... ... ... : G-4 00 . ... : 6-# 00 F ... : ... .. . ... ... : G#4 01 A ... ... : G#3 01 A ... ... : G#0 01 F ... ...
ROW 15 : ... .. E ... ... ... : ... .. E ... ... ... : A-3 00 . ... : ... .. C ... : ... .. . ... ... : ... .. 9 ... ... : ... .. 9 ... ... : ... .. D ... ...
ROW 16 : ... .. D ... ... ... : ... .. D ... ... ... : D-3 00 . ... : ... .. 6 ... : ... .. . ... ... : ... .. 8 ... ... : ... .. 8 ... ... : ... .. 8 ... ...
ROW 17 : ... .. A ... ... ... : ... .. A ... ... ... : C#3 00 . ... : ... .. 3 ... : ... .. . ... ... : --- .. . ... ... : --- .. . P82 ... : ... .. . ... ...
ROW 18 : ... .. 2 ... ... ... : ... .. 2 ... ... ... : G#2 00 . ... : ... .. 2 ... : ... .. . ... ... : ... .. . ... ... : ... .. . ... ... : ... .. . ... ...
ROW 19 : ... .. . ... ... ... : ... .. . ... ... ... : --- .. . ... : ... .. 0 ... : ... .. . ... ... : ... .. . ... ... : ... .. . ... ... : --- .. . P84 ...
ROW 1A : ... .. F ... ... ... : ... .. F ... ... ... : G#2 00 . ... : 1-# 00 F ... : ... .. . ... ... : D#4 01 A ... ... : C#4 01 A P80 ... : G#0 01 F P80 ...
ROW 1B : ... .. E ... ... ... : ... .. E ... ... ... : ... .. . ... : ... .. C ... : ... .. . ... ... : ... .. 9 ... ... : ... .. 9 ... ... : ... .. D ... ...
ROW 1C : ... .. D ... ... ... : ... .. D ... ... ... : ... .. . ... : ... .. 6 ... : ... .. . ... ... : ... .. 8 ... ... : ... .. 8 ... ... : ... .. 8 ... ...
ROW 1D : ... .. A ... ... ... : ... .. A ... ... ... : ... .. . ... : ... .. 3 ... : ... .. . ... ... : --- .. . ... ... : --- .. . ... ... : ... .. . ... ...
ROW 1E : ... .. 2 ... ... ... : ... .. 2 ... ... ... : ... .. . ... : ... .. 2 ... : ... .. . ... ... : ... .. . ... ... : ... .. . ... ... : ... .. . ... ...
ROW 1F : ... .. . ... ... ... : ... .. . ... ... ... : --- .. . ... : ... .. 0 ... : ... .. . ... ... : ... .. . ... ... : ... .. . ... ... : --- .. . P84 ...
ROW 20 : ... .. F ... ... ... : ... .. F ... ... ... : G#2 00 . ... : ... .. F ... : ... .. . ... ... : D#4 01 A ... ... : F#4 01 A ... ... : G#0 01 F P80 ...
ROW 21 : ... .. E ... ... ... : ... .. E ... ... ... : ... .. . ... : ... .. C ... : ... .. . ... ... : ... .. 9 ... ... : ... .. 9 ... ... : ... .. D ... ...
ROW 22 : ... .. D ... ... ... : ... .. D ... ... ... : ... .. . ... : ... .. 6 ... : ... .. . ... ... : ... .. 8 ... ... : ... .. 8 ... ... : ... .. 8 ... ...
ROW 23 : ... .. A ... ... ... : ... .. A ... ... ... : ... .. . ... : ... .. 3 ... : ... .. . ... ... : --- .. . ... ... : --- .. . ... ... : ... .. . ... ...
ROW 24 : ... .. 2 ... ... ... : ... .. 2 ... ... ... : ... .. . ... : ... .. 2 ... : ... .. . ... ... : ... .. . ... ... : ... .. . ... ... : ... .. . ... ...
ROW 25 : ... .. . ... ... ... : ... .. . ... ... ... : --- .. . ... : ... .. 0 ... : ... .. . ... ... : ... .. . ... ... : ... .. . ... ... : --- .. . P84 ...
ROW 26 : C#3 00 F ... ... ... : G#2 00 F ... ... ... : C-6 00 . ... : ... .. F ... : ... .. . ... ... : D#4 01 A ... ... : G#3 01 A ... ... : C#2 01 F P80 ...
ROW 27 : ... .. E ... ... ... : ... .. E ... ... ... : D-5 00 . ... : ... .. C ... : ... .. . ... ... : ... .. 9 ... ... : ... .. 9 ... ... : ... .. D ... ...
ROW 28 : ... .. D ... ... ... : ... .. D ... ... ... : G-4 00 . ... : ... .. 6 ... : ... .. . ... ... : ... .. 8 ... ... : ... .. 8 ... ... : ... .. 8 ... ...
ROW 29 : ... .. A ... ... ... : ... .. A ... ... ... : F#4 00 . ... : ... .. 3 ... : ... .. . ... ... : ... .. 7 ... ... : ... .. 7 ... ... : ... .. . ... ...
ROW 2A : ... .. . ... ... ... : ... .. . ... ... ... : C#4 00 . ... : ... .. 2 ... : ... .. . ... ... : ... .. . ... ... : ... .. . ... ... : ... .. . ... ...
ROW 2B : ... .. . ... ... ... : ... .. . ... ... ... : ... .. . ... : ... .. 0 ... : ... .. . ... ... : ... .. 6 ... ... : ... .. 6 ... ... : ... .. . ... ...
ROW 2C : D-3 00 A P88 ... ... : A-2 00 A ... ... ... : D-4 00 . P7B : 6-# 00 F ... : ... .. . ... ... : ... .. . ... ... : ... .. . ... ... : ... .. . P87 ...
ROW 2D : D#3 00 A P7F ... ... : ... .. . P8C ... ... : ... .. . P7D : ... .. C ... : ... .. . ... ... : ... .. 5 ... ... : ... .. 5 ... ... : ... .. . P89 ...
ROW 2E : D-3 00 A P84 ... ... : ... .. . P7C ... ... : C#4 00 . P86 : ... .. 6 ... : ... .. . ... ... : ... .. . ... ... : ... .. . ... ... : ... .. . P86 ...
ROW 2F : C#3 00 A P80 ... ... : G#2 00 A P80 ... ... : ... .. . P80 : ... .. 3 ... : ... .. . ... ... : E-4 01 5 P7D ... : ... .. . P87 ... : ... .. . P80 ...
ROW 30 : C-3 00 A P79 ... ... : G-2 00 A P81 ... ... : C-4 00 . P85 : ... .. 2 ... : ... .. . ... ... : ... .. . P7F ... : A-3 01 5 P7A ... : ... .. . P79 ...
ROW 31 : B-2 00 A P86 ... ... : ... .. . P75 ... ... : ... .. . P83 : ... .. 0 ... : ... .. . ... ... : ... .. . P7C ... : G#3 01 5 P86 ... : ... .. . P77 ...
ROW 32 : C-3 00 A P7D ... ... : ... .. . P85 ... ... : ... .. . P86 : 1-# 00 F ... : ... .. . ... ... : D#4 01 5 P80 ... : ... .. . P80 ... : ... .. . P7A ...
ROW 33 : C#3 00 A P80 ... ... : G#2 00 A P80 ... ... : C#4 00 . P80 : ... .. C ... : ... .. . ... ... : D-4 01 5 P83 ... : ... .. . P79 ... : ... .. . P80 ...
ROW 34 : D-3 00 A P88 ... ... : A-2 00 A ... ... ... : D-4 00 . P7B : ... .. 6 ... : ... .. . ... ... : ... .. . P81 ... : G-3 01 5 P87 ... : ... .. . P87 ...
ROW 35 : D#3 00 A P7F ... ... : ... .. . P8C ... ... : ... .. . P7D : ... .. 3 ... : ... .. . ... ... : ... .. . P84 ... : G#3 01 5 P7A ... : ... .. . P89 ...
ROW 36 : D-3 00 2 P84 ... ... : ... .. 2 P7C ... ... : C#4 00 . P86 : ... .. 2 ... : ... .. . ... ... : D#4 01 5 P80 ... : ... .. . P80 ... : ... .. . P86 ...
ROW 37 : C#3 00 2 P80 ... ... : G#2 00 2 P80 ... ... : ... .. . P80 : ... .. 0 ... : ... .. . ... ... : E-4 01 5 P7D ... : ... .. . P87 ... : ... .. . P80 ...
ROW 38 : B-2 00 F ... ... ... : F#2 00 F ... ... ... : G-4 00 . ... : 6-# 00 F ... : ... .. . ... ... : ... .. . P7F ... : A-3 01 5 P7A ... : G#0 01 F ... ...
ROW 39 : ... .. E ... ... ... : ... .. E ... ... ... : A-3 00 . ... : ... .. C ... : ... .. . ... ... : ... .. . P7C ... : G#3 01 5 P86 ... : ... .. D ... ...
ROW 3A : ... .. D ... ... ... : ... .. D ... ... ... : D-3 00 . ... : ... .. 6 ... : ... .. . ... ... : D#4 01 5 P80 ... : ... .. . P80 ... : ... .. 8 ... ...
ROW 3B : ... .. A ... ... ... : ... .. A ... ... ... : C#3 00 . ... : ... .. 3 ... : ... .. . ... ... : D-4 01 5 P83 ... : ... .. . P79 ... : ... .. . ... ...
ROW 3C : ... .. 2 ... ... ... : ... .. 2 ... ... ... : G#2 00 . ... : ... .. 2 ... : ... .. . ... ... : ... .. . P81 ... : G-3 01 5 P87 ... : ... .. . ... ...
ROW 3D : ... .. . ... ... ... : ... .. . ... ... ... : --- .. . ... : ... .. 0 ... : ... .. . ... ... : ... .. . P84 ... : G#3 01 5 P7A ... : --- .. . P84 ...
ROW 3E : F#2 00 F ... ... ... : C#2 00 F ... ... ... : G#2 00 . ... : 1-# 00 F ... : ... .. . ... ... : D#4 01 5 P80 ... : ... .. . P80 ... : G#0 01 F P80 ...
ROW 3F : ... .. E ... ... ... : ... .. E ... ... ... : ... .. . ... : ... .. C ... : ... .. . ... ... : E-4 01 5 P7D ... : ... .. . P87 ... : ... .. D ... ...
ROW 40 : ... .. D ... ... ... : ... .. D ... ... ... : ... .. . ... : ... .. 6 ... : ... .. . ... ... : ... .. . P7F ... : A-3 01 5 P7A ... : ... .. 8 ... ...
ROW 41 : ... .. A ... ... ... : ... .. A ... ... ... : ... .. . ... : ... .. 3 ... : ... .. . ... ... : --- .. . ... ... : --- .. . P8B ... : ... .. . ... ...
ROW 42 : ... .. 2 ... ... ... : ... .. 2 ... ... ... : ... .. . ... : ... .. 2 ... : ... .. . ... ... : ... .. . ... ... : ... .. . ... ... : ... .. . ... ...
ROW 43 : ... .. . ... ... ... : ... .. . ... ... ... : --- .. . ... : ... .. 0 ... : ... .. . ... ... : ... .. . ... ... : ... .. . ... ... : --- .. . P84 ...
ROW 44 : ... .. F ... ... ... : ... .. F ... ... ... : G#2 00 . ... : ... .. F ... : ... .. . ... ... : ... .. . ... ... : ... .. . ... ... : G#0 01 F P80 ...
ROW 45 : ... .. E ... ... ... : ... .. E ... ... ... : ... .. . ... : ... .. C ... : ... .. . ... ... : ... .. . ... ... : ... .. . ... ... : ... .. D ... ...
ROW 46 : ... .. D ... ... ... : ... .. D ... ... ... : ... .. . ... : ... .. 6 ... : ... .. . ... ... : ... .. . ... ... : ... .. . ... ... : ... .. 8 ... ...
ROW 47 : ... .. A ... ... ... : ... .. A ... ... ... : ... .. . ... : ... .. 3 ... : ... .. . ... ... : ... .. . ... ... : ... .. . ... ... : ... .. . ... ...
ROW 48 : ... .. 2 ... ... ... : ... .. 2 ... ... ... : ... .. . ... : ... .. 2 ... : ... .. . ... ... : ... .. . ... ... : ... .. . ... ... : ... .. . ... ...
ROW 49 : ... .. . ... ... ... : ... .. . ... ... ... : --- .. . ... : ... .. 0 ... : ... .. . ... ... : ... .. . ... ... : ... .. . ... ... : --- .. . P84 ...
ROW 4A : B-2 00 F ... ... ... : F#2 00 F ... ... ... : F-5 00 . ... : A-# 00 F ... : ... .. . ... ... : G#3 01 A P80 ... : D#3 01 A P80 ... : F#1 01 F P80 ...
ROW 4B : ... .. E ... ... ... : ... .. E ... ... ... : G-4 00 . ... : ... .. C ... : ... .. . ... ... : ... .. 9 ... ... : ... .. 9 ... ... : ... .. D ... ...
ROW 4C : ... .. D ... ... ... : ... .. D ... ... ... : C-4 00 . ... : ... .. 6 ... : ... .. . ... ... : ... .. 8 ... ... : ... .. 8 ... ... : ... .. 8 ... ...
ROW 4D : ... .. A ... ... ... : ... .. A ... ... ... : B-3 00 . ... : ... .. 3 ... : ... .. . ... ... : --- .. . P82 ... : --- .. . P83 ... : ... .. . ... ...
ROW 4E : ... .. . ... ... ... : ... .. . ... ... ... : F#3 00 . ... : ... .. 2 ... : ... .. . ... ... : ... .. . ... ... : ... .. . ... ... : ... .. . ... ...
ROW 4F : ... .. . ... ... ... : ... .. . ... ... ... : --- .. . ... : ... .. 0 ... : ... .. . ... ... : ... .. . ... ... : ... .. . ... ... : --- .. . P81 ...
ROW 50 : C#3 00 F ... ... ... : G#2 00 F ... ... ... : G#3 00 . ... : 1-# 00 F ... : ... .. . ... ... : C#4 01 A P80 ... : G#3 01 A P80 ... : G#1 01 F P80 ...
ROW 51 : ... .. E ... ... ... : ... .. E ... ... ... : ... .. . ... : ... .. C ... : ... .. . ... ... : ... .. 9 ... ... : ... .. 9 ... ... : ... .. D ... ...
ROW 52 : ... .. D ... ... ... : ... .. D ... ... ... : ... .. . ... : ... .. 6 ... : ... .. . ... ... : ... .. 8 ... ... : ... .. 8 ... ... : ... .. 8 ... ...
ROW 53 : ... .. A ... ... ... : ... .. A ... ... ... : ... .. . ... : ... .. 3 ... : ... .. . ... ... : --- .. . ... ... : --- .. . P82 ... : ... .. . ... ...
ROW 54 : ... .. 2 ... ... ... : ... .. 2 ... ... ... : ... .. . ... : ... .. 2 ... : ... .. . ... ... : ... .. . ... ... : ... .. . ... ... : ... .. . ... ...
ROW 55 : ... .. . ... ... ... : ... .. . ... ... ... : --- .. . ... : ... .. 0 ... : ... .. . ... ... : ... .. . ... ... : ... .. . ... ... : --- .. . P7E ...
ROW 56 : G#2 00 F ... ... ... : D#2 00 F ... ... ... : B-3 00 . ... : ... .. F ... : ... .. . ... ... : F#4 01 A ... ... : C#4 01 A P80 ... : B-1 01 F P80 ...
ROW 57 : ... .. E ... ... ... : ... .. E ... ... ... : ... .. . ... : ... .. C ... : ... .. . ... ... : ... .. 9 ... ... : ... .. 9 ... ... : ... .. D ... ...
ROW 58 : ... .. D ... ... ... : ... .. D ... ... ... : ... .. . ... : ... .. 6 ... : ... .. . ... ... : ... .. 8 ... ... : ... .. 8 ... ... : ... .. 8 ... ...
ROW 59 : ... .. A ... ... ... : ... .. A ... ... ... : ... .. . ... : ... .. 3 ... : ... .. . ... ... : --- .. . ... ... : --- .. . ... ... : ... .. . ... ...
ROW 5A : ... .. 2 ... ... ... : ... .. 2 ... ... ... : ... .. . ... : ... .. 2 ... : ... .. . ... ... : ... .. . ... ... : ... .. . ... ... : ... .. . ... ...
ROW 5B : ... .. . ... ... ... : ... .. . ... ... ... : --- .. . ... : ... .. 0 ... : ... .. . ... ... : ... .. . ... ... : ... .. . ... ... : --- .. . P86 ...
ROW 5C : B-2 00 F ... ... ... : F#2 00 F ... ... ... : G-5 00 . ... : 6-# 00 F ... : ... .. . ... ... : F#4 01 A ... ... : C#4 01 A ... ... : G#1 01 F P80 ...
ROW 5D : ... .. E ... ... ... : ... .. E ... ... ... : A-4 00 . ... : ... .. C ... : ... .. . ... ... : ... .. 9 ... ... : ... .. 9 ... ... : ... .. D ... ...
ROW 5E : ... .. D ... ... ... : ... .. D ... ... ... : D-4 00 . ... : ... .. 6 ... : ... .. . ... ... : ... .. 8 ... ... : ... .. 8 ... ... : ... .. 8 ... ...
ROW 5F : ... .. A ... ... ... : ... .. A ... ... ... : C#4 00 . ... : ... .. 3 ... : ... .. . ... ... : ... .. 7 ... ... : ... .. 7 ... ... : ... .. . ... ...
ROW 60 : ... .. . ... ... ... : ... .. . ... ... ... : G#3 00 . ... : ... .. 2 ... : ... .. . ... ... : ... .. . ... ... : ... .. . ... ... : ... .. . ... ...
ROW 61 : ... .. . ... ... ... : ... .. . ... ... ... : --- .. . ... : ... .. 0 ... : ... .. . ... ... : ... .. 6 ... ... : ... .. 6 ... ... : --- .. . P7E ...
ROW 62 : F#2 00 F ... ... ... : C#2 00 F ... ... ... : F#3 00 . ... : ... .. F ... : ... .. . ... ... : D#4 01 A ... ... : A#3 01 A ... ... : F#1 01 F P80 ...
ROW 63 : ... .. E ... ... ... : ... .. E ... ... ... : ... .. . ... : ... .. C ... : ... .. . ... ... : ... .. 9 ... ... : ... .. 9 ... ... : ... .. D ... ...
ROW 64 : ... .. D ... ... ... : ... .. D ... ... ... : ... .. . ... : ... .. 6 ... : ... .. . ... ... : ... .. 8 ... ... : ... .. 8 ... ... : ... .. 8 ... ...
ROW 65 : ... .. A ... ... ... : ... .. A ... ... ... : ... .. . ... : ... .. 3 ... : ... .. . ... ... : --- .. . ... ... : --- .. . ... ... : ... .. . ... ...
ROW 66 : ... .. 2 ... ... ... : ... .. 2 ... ... ... : ... .. . ... : ... .. 2 ... : ... .. . ... ... : ... .. . ... ... : ... .. . ... ... : ... .. . ... ...
ROW 67 : ... .. . ... ... ... : ... .. . ... ... ... : --- .. . ... : ... .. 0 ... : ... .. . ... ... : ... .. . ... ... : ... .. . ... ... : --- .. . P81 ...
ROW 68 : ... .. F ... ... ... : ... .. F ... ... ... : D#3 00 . ... : 5-# 00 F ... : ... .. . ... ... : G#4 01 A ... ... : D#4 01 A ... ... : D#1 01 F P80 ...
ROW 69 : ... .. E ... ... ... : ... .. E ... ... ... : ... .. . ... : ... .. C ... : ... .. . ... ... : ... .. 9 ... ... : ... .. 9 ... ... : ... .. D ... ...
ROW 6A : ... .. D ... ... ... : ... .. D ... ... ... : ... .. . ... : ... .. 6 ... : ... .. . ... ... : ... .. 8 ... ... : ... .. 8 ... ... : ... .. 8 ... ...
ROW 6B : ... .. A ... ... ... : ... .. A ... ... ... : ... .. . ... : ... .. 3 ... : ... .. . ... ... : --- .. . ... ... : --- .. . ... ... : ... .. . ... ...
ROW 6C : ... .. 2 ... ... ... : ... .. 2 ... ... ... : ... .. . ... : ... .. 2 ... : ... .. . ... ... : ... .. . ... ... : ... .. . ... ... : ... .. . ... ...
ROW 6D : ... .. . ... ... ... : ... .. . ... ... ... : --- .. . ... : ... .. 0 ... : ... .. . ... ... : ... .. . ... ... : ... .. . ... ... : --- .. . P81 ...
ROW 6E : B-2 00 F ... ... ... : F#2 00 F ... ... ... : C-5 00 . ... : ... .. F ... : ... .. . ... ... : C#5 01 A ... ... : G#4 01 A ... ... : C#1 01 F P80 ...
ROW 6F : ... .. E ... ... ... : ... .. E ... ... ... : D-4 00 . ... : ... .. C ... : ... .. . ... ... : ... .. 9 ... ... : ... .. 9 ... ... : ... .. D ... ...
ROW 70 : ... .. D ... ... ... : ... .. D ... ... ... : G-3 00 . ... : ... .. 6 ... : ... .. . ... ... : ... .. 8 ... ... : ... .. 8 ... ... : ... .. 8 ... ...
ROW 71 : ... .. A ... ... ... : ... .. A ... ... ... : F#3 00 . ... : ... .. 3 ... : ... .. . ... ... : --- .. . ... ... : --- .. . ... ... : ... .. . ... ...
ROW 72 : ... .. . ... ... ... : ... .. . ... ... ... : C#3 00 . ... : ... .. 2 ... : ... .. . ... ... : ... .. . ... ... : ... .. . ... ... : ... .. . ... ...
ROW 73 : ... .. . ... ... ... : ... .. . ... ... ... : --- .. . ... : ... .. 0 ... : ... .. . ... ... : ... .. . ... ... : ... .. . ... ... : --- .. . P81 ...
ROW 74 : C#3 00 F ... ... ... : G#2 00 F ... ... ... : B-2 00 . ... : 3-# 00 F ... : ... .. . ... ... : B-4 01 A ... ... : F#4 01 A ... ... : B-0 01 F P80 ...
ROW 75 : ... .. E ... ... ... : ... .. E ... ... ... : ... .. . ... : ... .. C ... : ... .. . ... ... : ... .. 9 ... ... : ... .. 9 ... ... : ... .. D ... ...
ROW 76 : ... .. D ... ... ... : ... .. D ... ... ... : ... .. . ... : ... .. 6 ... : ... .. . ... ... : ... .. 8 ... ... : ... .. 8 ... ... : ... .. 8 ... ...
ROW 77 : ... .. A ... ... ... : ... .. A ... ... ... : ... .. . ... : ... .. 3 ... : ... .. . ... ... : --- .. . ... ... : --- .. . ... ... : ... .. . ... ...
ROW 78 : ... .. 2 ... ... ... : ... .. 2 ... ... ... : ... .. . ... : ... .. 2 ... : ... .. . ... ... : ... .. . ... ... : ... .. . ... ... : ... .. . ... ...
ROW 79 : ... .. . ... ... ... : ... .. . ... ... ... : --- .. . ... : ... .. 0 ... : ... .. . ... ... : ... .. . ... ... : ... .. . ... ... : --- .. . ... ...
ROW 7A : F#2 00 F ... ... ... : C#2 00 F ... ... ... : C#3 00 . ... : ... .. F ... : ... .. . ... ... : F#5 01 A ... ... : C#5 01 A ... ... : C#1 01 F ... ...
ROW 7B : ... .. E ... ... ... : ... .. E ... ... ... : ... .. . ... : ... .. C ... : ... .. . ... ... : ... .. 9 ... ... : ... .. 9 ... ... : ... .. D ... ...
ROW 7C : ... .. D ... ... ... : ... .. D ... ... ... : ... .. . ... : ... .. 6 ... : ... .. . ... ... : ... .. 8 ... ... : ... .. 8 ... ... : ... .. 8 ... ...
ROW 7D : ... .. A ... ... ... : ... .. A ... ... ... : ... .. . ... : ... .. 3 ... : ... .. . ... ... : --- .. . ... ... : --- .. . ... ... : ... .. . ... ...
ROW 7E : ... .. 2 ... ... ... : ... .. 2 ... ... ... : ... .. . ... : ... .. 2 ... : ... .. . ... ... : ... .. . ... ... : ... .. . ... ... : ... .. . ... ...
ROW 7F : ... .. . ... ... ... : ... .. . ... ... ... : --- .. . ... : ... .. 0 ... : ... .. . ... ... : ... .. . ... ... : ... .. . ... ... : --- .. . P81 ...
ROW 80 : G#1 00 F ... ... ... : D#1 00 F ... ... ... : G-4 00 . ... : 1-# 00 F ... : ... .. . ... ... : G#5 01 A ... ... : D#5 01 A ... ... : G#0 01 F P80 ...
ROW 81 : ... .. E ... ... ... : ... .. E ... ... ... : A-3 00 . ... : ... .. C ... : ... .. . ... ... : ... .. 9 ... ... : ... .. 9 ... ... : ... .. D ... ...
ROW 82 : ... .. D ... ... ... : ... .. D ... ... ... : D-3 00 . ... : ... .. 6 ... : ... .. . ... ... : ... .. 8 ... ... : ... .. 8 ... ... : ... .. 8 ... ...
ROW 83 : ... .. A ... ... ... : ... .. A ... ... ... : C#3 00 . ... : ... .. 3 ... : ... .. . ... ... : ... .. 7 ... ... : ... .. 7 ... ... : ... .. . ... ...
ROW 84 : ... .. 2 ... ... ... : ... .. 2 ... ... ... : G#2 00 . ... : ... .. 2 ... : ... .. . ... ... : ... .. . ... ... : ... .. . ... ... : ... .. . ... ...
ROW 85 : ... .. . ... ... ... : ... .. . ... ... ... : --- .. . ... : ... .. 0 ... : ... .. . ... ... : ... .. 6 ... ... : ... .. 6 ... ... : --- .. . P84 ...
ROW 86 : ... .. F ... ... ... : ... .. F ... ... ... : G#2 00 . ... : D-# 00 F ... : ... .. . ... ... : C#5 01 6 P82 ... : A#4 01 6 P7E ... : G#0 01 F P80 ...
ROW 87 : ... .. E ... ... ... : ... .. E ... ... ... : ... .. . ... : ... .. C ... : ... .. . ... ... : G#4 01 5 P84 ... : F#4 01 5 P7D ... : ... .. D ... ...
ROW 88 : ... .. D ... ... ... : ... .. D ... ... ... : ... .. . ... : ... .. 6 ... : ... .. . ... ... : F-4 01 5 P7D ... : D-4 01 5 P84 ... : ... .. 8 ... ...
ROW 89 : ... .. A ... ... ... : ... .. A ... ... ... : ... .. . ... : ... .. 3 ... : ... .. . ... ... : D-4 01 5 P7B ... : C-4 01 5 P7C ... : ... .. . ... ...
ROW 8A : ... .. 2 ... ... ... : ... .. 2 ... ... ... : ... .. . ... : ... .. 2 ... : ... .. . ... ... : B-3 01 5 P7F ... : A-3 01 5 P84 ... : ... .. . ... ...
ROW 8B : ... .. . ... ... ... : ... .. . ... ... ... : --- .. . ... : ... .. 0 ... : ... .. . ... ... : A-3 01 5 P7B ... : G-3 01 5 P83 ... : --- .. . P84 ...
ROW 8C : ... .. F ... ... ... : ... .. F ... ... ... : G#2 00 . ... : 6-# 00 F ... : ... .. . ... ... : --- .. . P8C ... : --- .. . P81 ... : G#0 01 F P80 ...
ROW 8D : ... .. E ... ... ... : ... .. E ... ... ... : ... .. . ... : ... .. C ... : ... .. . ... ... : ... .. . ... ... : ... .. . ... ... : ... .. D ... ...
ROW 8E : ... .. D ... ... ... : ... .. D ... ... ... : ... .. . ... : ... .. 6 ... : ... .. . ... ... : ... .. . ... ... : ... .. . ... ... : ... .. 8 ... ...
ROW 8F : ... .. A ... ... ... : ... .. A ... ... ... : ... .. . ... : ... .. 3 ... : ... .. . ... ... : ... .. . ... ... : ... .. . ... ... : ... .. . ... ...
ROW 90 : ... .. 2 ... ... ... : ... .. 2 ... ... ... : ... .. . ... : ... .. 2 ... : ... .. . ... ... : ... .. . ... ... : ... .. . ... ... : ... .. . ... ...
ROW 91 : ... .. . ... ... ... : ... .. . ... ... ... : --- .. . ... : ... .. 0 ... : ... .. . ... ... : ... .. . ... ... : ... .. . ... ... : --- .. . P84 ...
ROW 92 : B-3 00 F ... ... ... : F#3 00 F ... ... ... : A#4 00 . ... : D-# 00 F ... : ... .. . ... ... : D#4 01 A P80 ... : G#3 01 A P80 ... : B-0 01 F P80 ...
ROW 93 : ... .. E ... ... ... : ... .. E ... ... ... : C-4 00 . ... : ... .. C ... : ... .. . ... ... : ... .. 9 ... ... : ... .. 9 ... ... : ... .. D ... ...
ROW 94 : ... .. D ... ... ... : ... .. D ... ... ... : F-3 00 . ... : ... .. 6 ... : ... .. . ... ... : ... .. 8 ... ... : ... .. 8 ... ... : ... .. 8 ... ...
ROW 95 : ... .. A ... ... ... : ... .. A ... ... ... : E-3 00 . ... : ... .. 3 ... : ... .. . ... ... : --- .. . ... ... : --- .. . P82 ... : ... .. . ... ...
ROW 96 : ... .. . ... ... ... : ... .. . ... ... ... : B-2 00 . ... : ... .. 2 ... : ... .. . ... ... : ... .. . ... ... : ... .. . ... ... : ... .. . ... ...
ROW 97 : ... .. . ... ... ... : ... .. . ... ... ... : --- .. . ... : ... .. 0 ... : ... .. . ... ... : ... .. . ... ... : ... .. . ... ... : --- .. . ... ...
ROW 98 : A#3 00 F ... ... ... : F-3 00 F ... ... ... : F#2 00 . ... : 1-# 00 F ... : ... .. . ... ... : D#4 01 A ... ... : G#3 01 A P80 ... : F#0 01 F ... ...
ROW 99 : ... .. E ... ... ... : ... .. E ... ... ... : ... .. . ... : ... .. C ... : ... .. . ... ... : ... .. 9 ... ... : ... .. 9 ... ... : ... .. D ... ...
ROW 9A : ... .. D ... ... ... : ... .. D ... ... ... : ... .. . ... : ... .. 6 ... : ... .. . ... ... : ... .. 8 ... ... : ... .. 8 ... ... : ... .. 8 ... ...
ROW 9B : ... .. A ... ... ... : ... .. A ... ... ... : ... .. . ... : ... .. 3 ... : ... .. . ... ... : --- .. . ... ... : --- .. . P82 ... : ... .. . ... ...
ROW 9C : ... .. 2 ... ... ... : ... .. 2 ... ... ... : ... .. . ... : ... .. 2 ... : ... .. . ... ... : ... .. . ... ... : ... .. . ... ... : ... .. . ... ...
ROW 9D : ... .. . ... ... ... : ... .. . ... ... ... : --- .. . ... : ... .. 0 ... : ... .. . ... ... : ... .. . ... ... : ... .. . ... ... : --- .. . P81 ...
ROW 9E : F#2 00 F ... ... ... : C#2 00 F ... ... ... : G#2 00 . ... : ... .. F ... : ... .. . ... ... : D#4 01 A ... ... : G#3 01 A P80 ... : G#0 01 F P80 ...
ROW 9F : ... .. E ... ... ... : ... .. E ... ... ... : ... .. . ... : ... .. C ... : ... .. . ... ... : ... .. 9 ... ... : ... .. 9 ... ... : ... .. D ... ...
ROW A0 : ... .. D ... ... ... : ... .. D ... ... ... : ... .. . ... : ... .. 6 ... : ... .. . ... ... : ... .. 8 ... ... : ... .. 8 ... ... : ... .. 8 ... ...
ROW A1 : ... .. A ... ... ... : ... .. A ... ... ... : ... .. . ... : ... .. 3 ... : ... .. . ... ... : --- .. . ... ... : --- .. . P82 ... : ... .. . ... ...
ROW A2 : ... .. 2 ... ... ... : ... .. 2 ... ... ... : ... .. . ... : ... .. 2 ... : ... .. . ... ... : ... .. . ... ... : ... .. . ... ... : ... .. . ... ...
ROW A3 : ... .. . ... ... ... : ... .. . ... ... ... : --- .. . ... : ... .. 0 ... : ... .. . ... ... : ... .. . ... ... : ... .. . ... ... : --- .. . P84 ...
ROW A4 : G#1 00 F ... ... ... : D#1 00 F ... ... ... : G-4 00 . ... : 6-# 00 F ... : ... .. . ... ... : C#4 01 A ... ... : F#3 01 A P80 ... : G#0 01 F P80 ...
ROW A5 : ... .. E ... ... ... : ... .. E ... ... ... : A-3 00 . ... : ... .. C ... : ... .. . ... ... : ... .. 9 ... ... : ... .. 9 ... ... : ... .. D ... ...
ROW A6 : ... .. D ... ... ... : ... .. D ... ... ... : D-3 00 . ... : ... .. 6 ... : ... .. . ... ... : ... .. 8 ... ... : ... .. 8 ... ... : ... .. 8 ... ...
ROW A7 : ... .. A ... ... ... : ... .. A ... ... ... : C#3 00 . ... : ... .. 3 ... : ... .. . ... ... : ... .. 7 ... ... : ... .. 7 ... ... : ... .. . ... ...
ROW A8 : ... .. 2 ... ... ... : ... .. 2 ... ... ... : G#2 00 . ... : ... .. 2 ... : ... .. . ... ... : ... .. . ... ... : ... .. . ... ... : ... .. . ... ...
ROW A9 : ... .. . ... ... ... : ... .. . ... ... ... : --- .. . ... : ... .. 0 ... : ... .. . ... ... : ... .. 6 ... ... : ... .. 6 ... ... : --- .. . P84 ...
ROW AA : ... .. F ... ... ... : ... .. F ... ... ... : G#2 00 . ... : D-# 00 F ... : ... .. . ... ... : D#4 01 A ... ... : G#3 01 A ... ... : G#0 01 F P80 ...
ROW AB : ... .. E ... ... ... : ... .. E ... ... ... : ... .. . ... : ... .. C ... : ... .. . ... ... : ... .. 9 ... ... : ... .. 9 ... ... : ... .. D ... ...
ROW AC : ... .. D ... ... ... : ... .. D ... ... ... : ... .. . ... : ... .. 6 ... : ... .. . ... ... : ... .. 8 ... ... : ... .. 8 ... ... : ... .. 8 ... ...
ROW AD : ... .. A ... ... ... : ... .. A ... ... ... : ... .. . ... : ... .. 3 ... : ... .. . ... ... : --- .. . ... ... : --- .. . P82 ... : ... .. . ... ...
ROW AE : ... .. 2 ... ... ... : ... .. 2 ... ... ... : ... .. . ... : ... .. 2 ... : ... .. . ... ... : ... .. . ... ... : ... .. . ... ... : ... .. . ... ...
ROW AF : ... .. . ... ... ... : ... .. . ... ... ... : --- .. . ... : ... .. 0 ... : ... .. . ... ... : ... .. . ... ... : ... .. . ... ... : --- .. . P84 ...
ROW B0 : ... .. F ... ... ... : ... .. F ... ... ... : G#2 00 . ... : 1-# 00 F ... : ... .. . ... ... : D#4 01 A ... ... : G#3 01 A P80 ... : G#0 01 F P80 ...
ROW B1 : ... .. E ... ... ... : ... .. E ... ... ... : ... .. . ... : ... .. C ... : ... .. . ... ... : ... .. 9 ... ... : ... .. 9 ... ... : ... .. D ... ...
ROW B2 : ... .. D ... ... ... : ... .. D ... ... ... : ... .. . ... : ... .. 6 ... : ... .. . ... ... : ... .. 8 ... ... : ... .. 8 ... ... : ... .. 8 ... ...
ROW B3 : ... .. A ... ... ... : ... .. A ... ... ... : ... .. . ... : ... .. 3 ... : ... .. . ... ... : --- .. . ... ... : --- .. . P82 ... : ... .. . ... ...
ROW B4 : ... .. 2 ... ... ... : ... .. 2 ... ... ... : ... .. . ... : ... .. 2 ... : ... .. . ... ... : ... .. . ... ... : ... .. . ... ... : ... .. . ... ...
ROW B5 : ... .. . ... ... ... : ... .. . ... ... ... : --- .. . ... : ... .. 0 ... : ... .. . ... ... : ... .. . ... ... : ... .. . ... ... : --- .. . P84 ...
ROW B6 : F#3 00 F ... ... ... : C#3 00 F ... ... ... : C-5 00 . ... : D-# 00 F ... : ... .. . ... ... : D#4 01 A ... ... : G#3 01 A P80 ... : C#1 01 F P80 ...
ROW B7 : ... .. E ... ... ... : ... .. E ... ... ... : D-4 00 . ... : ... .. C ... : ... .. . ... ... : ... .. 9 ... ... : ... .. 9 ... ... : ... .. D ... ...
ROW B8 : ... .. D ... ... ... : ... .. D ... ... ... : G-3 00 . ... : ... .. 6 ... : ... .. . ... ... : ... .. 8 ... ... : ... .. 8 ... ... : ... .. 8 ... ...
ROW B9 : ... .. A ... ... ... : ... .. A ... ... ... : F#3 00 . ... : ... .. 3 ... : ... .. . ... ... : ... .. 7 ... ... : ... .. 7 ... ... : ... .. . ... ...
ROW BA : ... .. . ... ... ... : ... .. . ... ... ... : C#3 00 . ... : ... .. 2 ... : ... .. . ... ... : ... .. . ... ... : ... .. . ... ... : ... .. . ... ...
ROW BB : ... .. . ... ... ... : ... .. . ... ... ... : --- .. . ... : ... .. 0 ... : ... .. . ... ... : ... .. 6 ... ... : ... .. 6 ... ... : --- .. . P81 ...
ROW BC : C#3 00 F ... ... ... : G#2 00 F ... ... ... : B-2 00 . ... : 6-# 00 F ... : ... .. . ... ... : ... .. . ... ... : ... .. . ... ... : B-0 01 F P80 ...
ROW BD : ... .. E ... ... ... : ... .. E ... ... ... : ... .. . ... : ... .. C ... : ... .. . ... ... : ... .. 5 ... ... : ... .. 5 ... ... : ... .. D ... ...
ROW BE : ... .. D ... ... ... : ... .. D ... ... ... : ... .. . ... : ... .. 6 ... : ... .. . ... ... : ... .. . ... ... : ... .. . ... ... : ... .. 8 ... ...
ROW BF : ... .. A ... ... ... : ... .. A ... ... ... : ... .. . ... : ... .. 3 ... : ... .. . ... ... : ... .. . ... ... : ... .. . ... ... : ... .. . ... ...
ROW C0 : ... .. 2 ... ... ... : ... .. 2 ... ... ... : ... .. . ... : ... .. 2 ... : ... .. . ... ... : ... .. . ... ... : ... .. . ... ... : ... .. . ... ...
ROW C1 : ... .. . ... ... ... : ... .. . ... ... ... : --- .. . ... : ... .. 0 ... : ... .. . ... ... : ... .. . ... ... : ... .. . ... ... : --- .. . ... ...
ROW C2 : F#1 00 F ... ... ... : C#1 00 F ... ... ... : F#2 00 . ... : D-# 00 F ... : ... .. . ... ... : ... .. . ... ... : ... .. . ... ... : F#0 01 F ... ...
ROW C3 : ... .. E ... ... ... : ... .. E ... ... ... : ... .. . ... : ... .. C ... : ... .. . ... ... : ... .. . ... ... : ... .. . ... ... : ... .. D ... ...
ROW C4 : ... .. D ... ... ... : ... .. D ... ... ... : ... .. . ... : ... .. 6 ... : ... .. . ... ... : ... .. . ... ... : ... .. . ... ... : ... .. 8 ... ...
ROW C5 : ... .. A ... ... ... : ... .. A ... ... ... : ... .. . ... : ... .. 3 ... : ... .. . ... ... : E-4 01 5 P7D ... : ... .. . P87 ... : ... .. . ... ...
ROW C6 : ... .. . ... ... ... : ... .. . ... ... ... : ... .. . ... : ... .. 2 ... : ... .. . ... ... : ... .. . P7F ... : A-3 01 5 P7A ... : ... .. . ... ...
ROW C7 : ... .. . ... ... ... : ... .. . ... ... ... : --- .. . ... : ... .. 0 ... : ... .. . ... ... : ... .. . P7C ... : G#3 01 5 P86 ... : --- .. . P81 ...
ROW C8 : G#1 00 F ... ... ... : D#1 00 F ... ... ... : G-4 00 . ... : 1-# 00 F ... : ... .. . ... ... : D#4 01 5 P80 ... : ... .. . P80 ... : G#0 01 F P80 ...
ROW C9 : ... .. E ... ... ... : ... .. E ... ... ... : A-3 00 . ... : ... .. C ... : ... .. . ... ... : D-4 01 5 P83 ... : ... .. . P79 ... : ... .. D ... ...
ROW CA : ... .. D ... ... ... : ... .. D ... ... ... : D-3 00 . ... : ... .. 6 ... : ... .. . ... ... : ... .. . P81 ... : G-3 01 5 P87 ... : ... .. 8 ... ...
ROW CB : ... .. A ... ... ... : ... .. A ... ... ... : C#3 00 . ... : ... .. 3 ... : ... .. . ... ... : ... .. . P84 ... : G#3 01 5 P7A ... : ... .. . ... ...
ROW CC : ... .. 2 ... ... ... : ... .. 2 ... ... ... : G#2 00 . ... : ... .. 2 ... : ... .. . ... ... : D#4 01 5 P80 ... : ... .. . P80 ... : ... .. . ... ...
ROW CD : ... .. . ... ... ... : ... .. . ... ... ... : --- .. . ... : ... .. 0 ... : ... .. . ... ... : E-4 01 5 P7D ... : ... .. . P87 ... : --- .. . P84 ...
ROW CE : ... .. F ... ... ... : ... .. F ... ... ... : G#2 00 . ... : ... .. F ... : ... .. . ... ... : ... .. . P7F ... : A-3 01 5 P7A ... : G#0 01 F P80 ...
ROW CF : ... .. E ... ... ... : ... .. E ... ... ... : ... .. . ... : ... .. C ... : ... .. . ... ... : ... .. . P7C ... : G#3 01 5 P86 ... : ... .. D ... ...
ROW D0 : ... .. D ... ... ... : ... .. D ... ... ... : ... .. . ... : ... .. 6 ... : ... .. . ... ... : D#4 01 5 P80 ... : ... .. . P80 ... : ... .. 8 ... ...
ROW D1 : ... .. A ... ... ... : ... .. A ... ... ... : ... .. . ... : ... .. 3 ... : ... .. . ... ... : --- .. . ... ... : --- .. . P82 ... : ... .. . ... ...
ROW D2 : ... .. 2 ... ... ... : ... .. 2 ... ... ... : ... .. . ... : ... .. 2 ... : ... .. . ... ... : ... .. . ... ... : ... .. . ... ... : ... .. . ... ...
ROW D3 : ... .. . ... ... ... : ... .. . ... ... ... : --- .. . ... : ... .. 0 ... : ... .. . ... ... : ... .. . ... ... : ... .. . ... ... : --- .. . P84 ...
ROW D4 : ... .. F ... ... ... : ... .. F ... ... ... : G#2 00 . ... : 6-# 00 F ... : ... .. . ... ... : ... .. . ... ... : ... .. . ... ... : G#0 01 F P80 ...
ROW D5 : ... .. E ... ... ... : ... .. E ... ... ... : ... .. . ... : ... .. C ... : ... .. . ... ... : ... .. . ... ... : ... .. . ... ... : ... .. D ... ...
ROW D6 : ... .. D ... ... ... : ... .. D ... ... ... : ... .. . ... : ... .. 6 ... : ... .. . ... ... : ... .. . ... ... : ... .. . ... ... : ... .. 8 ... ...
ROW D7 : ... .. A ... ... ... : ... .. A ... ... ... : ... .. . ... : ... .. 3 ... : ... .. . ... ... : ... .. . ... ... : ... .. . ... ... : ... .. . ... ...
ROW D8 : ... .. 2 ... ... ... : ... .. 2 ... ... ... : ... .. . ... : ... .. 2 ... : ... .. . ... ... : ... .. . ... ... : ... .. . ... ... : ... .. . ... ...
ROW D9 : ... .. . ... ... ... : ... .. . ... ... ... : --- .. . ... : ... .. 0 ... : ... .. . ... ... : ... .. . ... ... : ... .. . ... ... : --- .. . P84 ...
ROW DA : E-3 00 F ... ... ... : B-2 00 F ... ... ... : D#6 00 . ... : D-# 00 F ... : ... .. . ... ... : D#4 01 A ... ... : G#3 01 A P80 ... : E-2 01 F P80 ...
ROW DB : ... .. E ... ... ... : ... .. E ... ... ... : F-5 00 . ... : ... .. C ... : ... .. . ... ... : ... .. 9 ... ... : ... .. 9 ... ... : ... .. D ... ...
ROW DC : ... .. D ... ... ... : ... .. D ... ... ... : A#4 00 . ... : ... .. 6 ... : ... .. . ... ... : ... .. 8 ... ... : ... .. 8 ... ... : ... .. 8 ... ...
ROW DD : ... .. A ... ... ... : ... .. A ... ... ... : A-4 00 . ... : ... .. 3 ... : ... .. . ... ... : --- .. . ... ... : --- .. . P82 ... : ... .. . ... ...
ROW DE : ... .. . ... ... ... : ... .. . ... ... ... : E-4 00 . ... : ... .. 2 ... : ... .. . ... ... : ... .. . ... ... : ... .. . ... ... : ... .. . ... ...
ROW DF : ... .. . ... ... ... : ... .. . ... ... ... : --- .. . ... : ... .. 0 ... : ... .. . ... ... : ... .. . ... ... : ... .. . ... ... : --- .. . P89 ...
ROW E0 : D#3 00 F ... ... ... : A#2 00 F ... ... ... : D#4 00 . ... : 1-# 00 F ... : ... .. . ... ... : D#4 01 A ... ... : G#3 01 A P80 ... : D#2 01 F P80 ...
ROW E1 : ... .. E ... ... ... : ... .. E ... ... ... : ... .. . ... : ... .. C ... : ... .. . ... ... : ... .. 9 ... ... : ... .. 9 ... ... : ... .. D ... ...
ROW E2 : ... .. D ... ... ... : ... .. D ... ... ... : ... .. . ... : ... .. 6 ... : ... .. . ... ... : ... .. 8 ... ... : ... .. 8 ... ... : ... .. 8 ... ...
ROW E3 : ... .. A ... ... ... : ... .. A ... ... ... : ... .. . ... : ... .. 3 ... : ... .. . ... ... : --- .. . ... ... : --- .. . P82 ... : ... .. . ... ...
ROW E4 : ... .. 2 ... ... ... : ... .. 2 ... ... ... : ... .. . ... : ... .. 2 ... : ... .. . ... ... : ... .. . ... ... : ... .. . ... ... : ... .. . ... ...
ROW E5 : ... .. . ... ... ... : ... .. . ... ... ... : --- .. . ... : ... .. 0 ... : ... .. . ... ... : ... .. . ... ... : ... .. . ... ... : --- .. . ... ...
ROW E6 : G#1 00 F ... ... ... : D#1 00 F ... ... ... : G#2 00 . ... : D-# 00 F ... : ... .. . ... ... : D#4 01 A ... ... : G#3 01 A P80 ... : G#0 01 F ... ...
ROW E7 : ... .. E ... ... ... : ... .. E ... ... ... : ... .. . ... : ... .. C ... : ... .. . ... ... : ... .. 9 ... ... : ... .. 9 ... ... : ... .. D ... ...
ROW E8 : ... .. D ... ... ... : ... .. D ... ... ... : ... .. . ... : ... .. 6 ... : ... .. . ... ... : ... .. 8 ... ... : ... .. 8 ... ... : ... .. 8 ... ...
ROW E9 : ... .. A ... ... ... : ... .. A ... ... ... : ... .. . ... : ... .. 3 ... : ... .. . ... ... : --- .. . ... ... : --- .. . P82 ... : ... .. . ... ...
ROW EA : ... .. 2 ... ... ... : ... .. 2 ... ... ... : ... .. . ... : ... .. 2 ... : ... .. . ... ... : ... .. . ... ... : ... .. . ... ... : ... .. . ... ...
ROW EB : ... .. . ... ... ... : ... .. . ... ... ... : --- .. . ... : ... .. 0 ... : ... .. . ... ... : ... .. . ... ... : ... .. . ... ... : --- .. . P84 ...
ROW EC : C#3 00 F ... ... ... : G#2 00 F ... ... ... : C-6 00 . ... : 6-# 00 F ... : ... .. . ... ... : G#4 01 A ... ... : D#4 01 A P80 ... : C#2 01 F P80 ...
ROW ED : ... .. E ... ... ... : ... .. E ... ... ... : D-5 00 . ... : ... .. C ... : ... .. . ... ... : ... .. 9 ... ... : ... .. 9 ... ... : ... .. D ... ...
ROW EE : ... .. D ... ... ... : ... .. D ... ... ... : G-4 00 . ... : ... .. 6 ... : ... .. . ... ... : ... .. 8 ... ... : ... .. 8 ... ... : ... .. 8 ... ...
ROW EF : ... .. A ... ... ... : ... .. A ... ... ... : F#4 00 . ... : ... .. 3 ... : ... .. . ... ... : ... .. 7 ... ... : ... .. 7 ... ... : ... .. . ... ...
ROW F0 : ... .. . ... ... ... : ... .. . ... ... ... : C#4 00 . ... : ... .. 2 ... : ... .. . ... ... : ... .. . ... ... : ... .. . ... ... : ... .. . ... ...
ROW F1 : ... .. . ... ... ... : ... .. . ... ... ... : --- .. . ... : ... .. 0 ... : ... .. . ... ... : ... .. 6 ... ... : ... .. 6 ... ... : --- .. . ... ...
ROW F2 : D#3 00 F ... ... ... : A#2 00 F ... ... ... : B-3 00 . ... : D-# 00 F ... : ... .. . ... ... : D#4 01 A ... ... : G#3 01 A ... ... : B-1 01 F ... ...
ROW F3 : ... .. E ... ... ... : ... .. E ... ... ... : ... .. . ... : ... .. C ... : ... .. . ... ... : ... .. 9 ... ... : ... .. 9 ... ... : ... .. D ... ...
ROW F4 : ... .. D ... ... ... : ... .. D ... ... ... : ... .. . ... : ... .. 6 ... : ... .. . ... ... : ... .. 8 ... ... : ... .. 8 ... ... : ... .. 8 ... ...
ROW F5 : ... .. A ... ... ... : ... .. A ... ... ... : ... .. . ... : ... .. 3 ... : ... .. . ... ... : --- .. . ... ... : --- .. . P82 ... : ... .. . ... ...
ROW F6 : ... .. 2 ... ... ... : ... .. 2 ... ... ... : ... .. . ... : ... .. 2 ... : ... .. . ... ... : ... .. . ... ... : ... .. . ... ... : ... .. . ... ...
ROW F7 : ... .. . ... ... ... : ... .. . ... ... ... : --- .. . ... : ... .. 0 ... : ... .. . ... ... : ... .. . ... ... : ... .. . ... ... : --- .. . P86 ...
ROW F8 : B-2 00 F ... ... ... : F#2 00 F ... ... ... : G#2 00 . ... : 1-# 00 F ... : ... .. . ... ... : D#4 01 A ... ... : G#3 01 A P80 ... : G#0 01 F P80 ...
ROW F9 : ... .. E ... ... ... : ... .. E ... ... ... : ... .. . ... : ... .. C ... : ... .. . ... ... : ... .. 9 ... ... : ... .. 9 ... ... : ... .. D ... ...
ROW FA : ... .. D ... ... ... : ... .. D ... ... ... : ... .. . ... : ... .. 6 ... : ... .. . ... ... : ... .. 8 ... ... : ... .. 8 ... ... : ... .. 8 ... ...
ROW FB : ... .. A ... ... ... : ... .. A ... ... ... : ... .. . ... : ... .. 3 ... : ... .. . ... ... : --- .. . ... ... : --- .. . P82 ... : ... .. . ... ...
ROW FC : ... .. 2 ... ... ... : ... .. 2 ... ... ... : ... .. . ... : ... .. 2 ... : ... .. . ... ... : ... .. . ... ... : ... .. . ... ... : ... .. . ... ...
ROW FD : ... .. . ... ... ... : ... .. . ... ... ... : --- .. . ... : ... .. 0 ... : ... .. . ... ... : ... .. . ... ... : ... .. . ... ... : --- .. . P84 ...
ROW FE : C#3 00 F ... ... ... : G#2 00 F ... ... ... : F-5 00 . ... : ... .. F ... : ... .. . ... ... : D#4 01 A ... ... : G#3 01 A P80 ... : F#1 01 F P80 ...
ROW FF : ... .. E ... ... ... : ... .. E ... ... ... : G-4 00 . ... : ... .. C ... : ... .. . ... ... : ... .. 9 ... ... : ... .. 9 ... ... : ... .. D ... ...

PATTERN 17
ROW 00 : ... .. D ... ... ... : ... .. D ... ... ... : C-4 00 . ... : ... .. 6 ... : ... .. . ... ... : ... .. 8 ... ... : ... .. 8 ... ... : ... .. 8 ... ...
ROW 01 : ... .. A ... ... ... : ... .. A ... ... ... : B-3 00 . ... : ... .. 3 ... : ... .. . ... ... : ... .. 7 ... ... : ... .. 7 ... ... : ... .. . ... ...
ROW 02 : ... .. . ... ... ... : ... .. . ... ... ... : F#3 00 . ... : ... .. 2 ... : ... .. . ... ... : ... .. . ... ... : ... .. . ... ... : ... .. . ... ...
ROW 03 : ... .. . ... ... ... : ... .. . ... ... ... : --- .. . ... : ... .. 0 ... : ... .. . ... ... : ... .. 6 ... ... : ... .. 6 ... ... : --- .. . P81 ...
ROW 04 : F#2 00 F ... ... ... : C#2 00 F ... ... ... : G#3 00 . ... : 6-# 00 F ... : ... .. . ... ... : ... .. . ... ... : ... .. . ... ... : G#1 01 F P80 ...
ROW 05 : ... .. E ... ... ... : ... .. E ... ... ... : ... .. . ... : ... .. C ... : ... .. . ... ... : ... .. 5 ... ... : ... .. 5 ... ... : ... .. D ... ...
ROW 06 : ... .. D ... ... ... : ... .. D ... ... ... : ... .. . ... : ... .. 6 ... : ... .. . ... ... : ... .. . ... ... : ... .. . ... ... : ... .. 8 ... ...
ROW 07 : ... .. A ... ... ... : ... .. A ... ... ... : ... .. . ... : ... .. 3 ... : ... .. . ... ... : ... .. . ... ... : ... .. . ... ... : ... .. . ... ...
ROW 08 : ... .. 2 ... ... ... : ... .. 2 ... ... ... : ... .. . ... : ... .. 2 ... : ... .. . ... ... : ... .. . ... ... : ... .. . ... ... : ... .. . ... ...
ROW 09 : ... .. . ... ... ... : ... .. . ... ... ... : --- .. . ... : ... .. 0 ... : ... .. . ... ... : ... .. . ... ... : ... .. . ... ... : --- .. . P7E ...
ROW 0A : G#2 00 F ... ... ... : D#2 00 F ... ... ... : B-2 00 . ... : ... .. F ... : ... .. . ... ... : ... .. . ... ... : ... .. . ... ... : B-0 01 F P80 ...
ROW 0B : ... .. E ... ... ... : ... .. E ... ... ... : ... .. . ... : ... .. C ... : ... .. . ... ... : ... .. . ... ... : ... .. . ... ... : ... .. D ... ...
ROW 0C : ... .. D ... ... ... : ... .. D ... ... ... : ... .. . ... : ... .. 6 ... : ... .. . ... ... : ... .. . ... ... : ... .. . ... ... : ... .. 8 ... ...
ROW 0D : ... .. A ... ... ... : ... .. A ... ... ... : ... .. . ... : ... .. 3 ... : ... .. . ... ... : --- .. . ... ... : --- .. . P82 ... : ... .. . ... ...
ROW 0E : ... .. 2 ... ... ... : ... .. 2 ... ... ... : ... .. . ... : ... .. 2 ... : ... .. . ... ... : ... .. . ... ... : ... .. . ... ... : ... .. . ... ...
ROW 0F : ... .. . ... ... ... : ... .. . ... ... ... : --- .. . ... : ... .. 0 ... : ... .. . ... ... : ... .. . ... ... : ... .. . ... ... : --- .. . ... ...
ROW 10 : G#1 00 F ... ... ... : D#1 00 F ... ... ... : G-4 00 . ... : 1-# 00 F ... : ... .. . ... ... : ... .. . ... ... : ... .. . ... ... : G#0 01 F ... ...
ROW 11 : ... .. E ... ... ... : ... .. E ... ... ... : A-3 00 . ... : ... .. C ... : ... .. . ... ... : ... .. . ... ... : ... .. . ... ... : ... .. D ... ...
ROW 12 : ... .. D ... ... ... : ... .. D ... ... ... : D-3 00 . ... : ... .. 6 ... : ... .. . ... ... : ... .. . ... ... : ... .. . ... ... : ... .. 8 ... ...
ROW 13 : ... .. A ... ... ... : ... .. A ... ... ... : C#3 00 . ... : ... .. 3 ... : ... .. . ... ... : ... .. . ... ... : ... .. . ... ... : ... .. . ... ...
ROW 14 : ... .. 2 ... ... ... : ... .. 2 ... ... ... : G#2 00 . ... : ... .. 2 ... : ... .. . ... ... : ... .. . ... ... : ... .. . ... ... : ... .. . ... ...
ROW 15 : ... .. . ... ... ... : ... .. . ... ... ... : --- .. . ... : ... .. 0 ... : ... .. . ... ... : ... .. . ... ... : ... .. . ... ... : --- .. . P84 ...
ROW 16 : ... .. F ... ... ... : ... .. F ... ... ... : G#2 00 . ... : ... .. F ... : ... .. . ... ... : ... .. . ... ... : ... .. . ... ... : G#0 01 F P80 ...
ROW 17 : ... .. E ... ... ... : ... .. E ... ... ... : ... .. . ... : ... .. C ... : ... .. . ... ... : ... .. . ... ... : ... .. . ... ... : ... .. D ... ...
ROW 18 : ... .. D ... ... ... : ... .. D ... ... ... : ... .. . ... : ... .. 6 ... : ... .. . ... ... : ... .. . ... ... : ... .. . ... ... : ... .. 8 ... ...
ROW 19 : ... .. A ... ... ... : ... .. A ... ... ... : ... .. . ... : ... .. 3 ... : ... .. . ... ... : ... .. . ... ... : ... .. . ... ... : ... .. . ... ...
ROW 1A : ... .. 2 ... ... ... : ... .. 2 ... ... ... : ... .. . ... : ... .. 2 ... : ... .. . ... ... : ... .. . ... ... : ... .. . ... ... : ... .. . ... ...
ROW 1B : ... .. . ... ... ... : ... .. . ... ... ... : --- .. . ... : ... .. 0 ... : ... .. . ... ... : ... .. . ... ... : ... .. . ... ... : --- .. . P84 ...
ROW 1C : ... .. F ... ... ... : ... .. F ... ... ... : G#2 00 . ... : 6-# 00 F ... : ... .. . ... ... : ... .. . ... ... : ... .. . ... ... : G#0 01 F P80 ...
ROW 1D : ... .. E ... ... ... : ... .. E ... ... ... : ... .. . ... : ... .. C ... : ... .. . ... ... : ... .. . ... ... : ... .. . ... ... : ... .. D ... ...
ROW 1E : ... .. D ... ... ... : ... .. D ... ... ... : ... .. . ... : ... .. 6 ... : ... .. . ... ... : ... .. . ... ... : ... .. . ... ... : ... .. 8 ... ...
ROW 1F : ... .. A ... ... ... : ... .. A ... ... ... : ... .. . ... : ... .. 3 ... : ... .. . ... ... : ... .. . ... ... : ... .. . ... ... : ... .. . ... ...
ROW 20 : ... .. 2 ... ... ... : ... .. 2 ... ... ... : ... .. . ... : ... .. 2 ... : ... .. . ... ... : ... .. . ... ... : ... .. . ... ... : ... .. . ... ...
ROW 21 : ... .. . ... ... ... : ... .. . ... ... ... : --- .. . ... : ... .. 0 ... : ... .. . ... ... : ... .. . ... ... : ... .. . ... ... : --- .. . P84 ...
ROW 22 : F#4 00 F ... ... ... : C#4 00 F ... ... ... : D-6 00 . ... : 1-# 00 F ... : ... .. . ... ... : G#5 01 A ... ... : D#5 01 A P80 ... : D#2 01 F P80 ...
ROW 23 : ... .. E ... ... ... : ... .. E ... ... ... : E-5 00 . ... : ... .. C ... : ... .. . ... ... : ... .. 9 ... ... : ... .. 9 ... ... : ... .. D ... ...
ROW 24 : ... .. D ... ... ... : ... .. D ... ... ... : A-4 00 . ... : ... .. 6 ... : ... .. . ... ... : --- .. . ... ... : --- .. . ... ... : ... .. 8 ... ...
ROW 25 : ... .. A ... ... ... : ... .. A ... ... ... : G#4 00 . ... : ... .. 3 ... : ... .. . ... ... : G#5 01 A ... ... : D#5 01 A ... ... : ... .. . ... ...
ROW 26 : ... .. . ... ... ... : ... .. . ... ... ... : D#4 00 . ... : ... .. 2 ... : ... .. . ... ... : ... .. 9 ... ... : ... .. 9 ... ... : ... .. . ... ...
ROW 27 : ... .. . ... ... ... : ... .. . ... ... ... : ... .. . ... : ... .. 0 ... : ... .. . ... ... : --- .. . ... ... : --- .. . ... ... : ... .. . ... ...
ROW 28 : G-4 00 A P7F ... ... : D-4 00 A P7B ... ... : E-4 00 . P7D : ... .. F ... : ... .. . ... ... : G#5 01 A ... ... : D#5 01 A ... ... : ... .. . P87 ...
ROW 29 : ... .. . P81 ... ... : ... .. . P7D ... ... : ... .. . P7F : ... .. C ... : ... .. . ... ... : ... .. 9 ... ... : ... .. 9 ... ... : ... .. . P89 ...
ROW 2A : ... .. . P7E ... ... : C#4 00 A P86 ... ... : ... .. . P7C : ... .. 6 ... : ... .. . ... ... : --- .. . ... ... : --- .. . ... ... : ... .. . P86 ...
ROW 2B : F#4 00 A P80 ... ... : ... .. . P80 ... ... : D#4 00 . P80 : ... .. 3 ... : ... .. . ... ... : G#5 01 A ... ... : D#5 01 A ... ... : ... .. . P80 ...
ROW 2C : F-4 00 A P82 ... ... : C-4 00 A P85 ... ... : D-4 00 . P83 : ... .. 2 ... : ... .. . ... ... : ... .. 9 ... ... : ... .. 9 ... ... : ... .. . P79 ...
ROW 2D : ... .. . P80 ... ... : ... .. . P83 ... ... : ... .. . P81 : ... .. 0 ... : ... .. . ... ... : --- .. . ... ... : --- .. . ... ... : ... .. . P77 ...
ROW 2E : ... .. . P83 ... ... : ... .. . P86 ... ... : ... .. . P84 : ... .. F ... : ... .. . ... ... : G#5 01 A ... ... : D#5 01 A ... ... : ... .. . P7A ...
ROW 2F : F#4 00 A P80 ... ... : C#4 00 A P80 ... ... : D#4 00 . P80 : ... .. C ... : ... .. . ... ... : ... .. 9 ... ... : ... .. 9 ... ... : ... .. . P80 ...
ROW 30 : G-4 00 A P7F ... ... : D-4 00 A P7B ... ... : E-4 00 . P7D : ... .. 6 ... : ... .. . ... ... : ... .. 8 ... ... : ... .. 8 ... ... : ... .. . P87 ...
ROW 31 : ... .. . P81 ... ... : ... .. . P7D ... ... : ... .. . P7F : ... .. 3 ... : ... .. . ... ... : --- .. . ... ... : --- .. . ... ... : ... .. . P89 ...
ROW 32 : ... .. . P7E ... ... : C#4 00 A P86 ... ... : ... .. . P7C : ... .. 2 ... : ... .. . ... ... : ... .. . ... ... : ... .. . ... ... : ... .. . P86 ...
ROW 33 : F#4 00 A P80 ... ... : ... .. . P80 ... ... : D#4 00 . P80 : ... .. 0 ... : ... .. . ... ... : ... .. . ... ... : ... .. . ... ... : ... .. . P80 ...
ROW 34 : G#1 00 F ... ... ... : D#1 00 F ... ... ... : G-4 00 . ... : 6-# 00 F ... : ... .. . ... ... : G#5 01 A ... ... : G#4 01 A ... ... : G#0 01 F ... ...
ROW 35 : ... .. E ... ... ... : ... .. E ... ... ... : A-3 00 . ... : ... .. C ... : ... .. . ... ... : ... .. 9 ... ... : ... .. 9 ... ... : ... .. D ... ...
ROW 36 : ... .. D ... ... ... : ... .. D ... ... ... : D-3 00 . ... : ... .. 6 ... : ... .. . ... ... : ... .. 8 ... ... : ... .. 8 ... ... : ... .. 8 ... ...
ROW 37 : ... .. A ... ... ... : ... .. A ... ... ... : C#3 00 . ... : ... .. 3 ... : ... .. . ... ... : --- .. . ... ... : --- .. . ... ... : ... .. . ... ...
ROW 38 : ... .. 2 ... ... ... : ... .. 2 ... ... ... : G#2 00 . ... : ... .. 2 ... : ... .. . ... ... : ... .. . ... ... : ... .. . ... ... : ... .. . ... ...
ROW 39 : ... .. . ... ... ... : ... .. . ... ... ... : --- .. . ... : ... .. 0 ... : ... .. . ... ... : ... .. . ... ... : ... .. . ... ... : --- .. . P84 ...
ROW 3A : ... .. F ... ... ... : ... .. F ... ... ... : G#2 00 . ... : 1-# 00 F ... : ... .. . ... ... : D#5 01 A ... ... : C#5 01 A ... ... : G#0 01 F P80 ...
ROW 3B : ... .. E ... ... ... : ... .. E ... ... ... : ... .. . ... : ... .. C ... : ... .. . ... ... : ... .. 9 ... ... : ... .. 9 ... ... : ... .. D ... ...
ROW 3C : ... .. D ... ... ... : ... .. D ... ... ... : ... .. . ... : ... .. 6 ... : ... .. . ... ... : ... .. 8 ... ... : ... .. 8 ... ... : ... .. 8 ... ...
ROW 3D : ... .. A ... ... ... : ... .. A ... ... ... : ... .. . ... : ... .. 3 ... : ... .. . ... ... : --- .. . ... ... : --- .. . ... ... : ... .. . ... ...
ROW 3E : ... .. 2 ... ... ... : ... .. 2 ... ... ... : ... .. . ... : ... .. 2 ... : ... .. . ... ... : ... .. . ... ... : ... .. . ... ... : ... .. . ... ...
ROW 3F : ... .. . ... ... ... : ... .. . ... ... ... : --- .. . ... : ... .. 0 ... : ... .. . ... ... : ... .. . ... ... : ... .. . ... ... : --- .. . P84 ...
ROW 40 : ... .. F ... ... ... : ... .. F ... ... ... : G#2 00 . ... : ... .. F ... : ... .. . ... ... : D#5 01 A ... ... : F#5 01 A ... ... : G#0 01 F P80 ...
ROW 41 : ... .. E ... ... ... : ... .. E ... ... ... : ... .. . ... : ... .. C ... : ... .. . ... ... : ... .. 9 ... ... : ... .. 9 ... ... : ... .. D ... ...
ROW 42 : ... .. D ... ... ... : ... .. D ... ... ... : ... .. . ... : ... .. 6 ... : ... .. . ... ... : ... .. 8 ... ... : ... .. 8 ... ... : ... .. 8 ... ...
ROW 43 : ... .. A ... ... ... : ... .. A ... ... ... : ... .. . ... : ... .. 3 ... : ... .. . ... ... : --- .. . ... ... : --- .. . ... ... : ... .. . ... ...
ROW 44 : ... .. 2 ... ... ... : ... .. 2 ... ... ... : ... .. . ... : ... .. 2 ... : ... .. . ... ... : ... .. . ... ... : ... .. . ... ... : ... .. . ... ...
ROW 45 : ... .. . ... ... ... : ... .. . ... ... ... : --- .. . ... : ... .. 0 ... : ... .. . ... ... : ... .. . ... ... : ... .. . ... ... : --- .. . P84 ...
ROW 46 : E-4 00 F ... ... ... : B-3 00 F ... ... ... : C-6 00 . ... : ... .. F ... : ... .. . ... ... : D#5 01 A ... ... : G#4 01 A ... ... : C#2 01 F P80 ...
ROW 47 : ... .. E ... ... ... : ... .. E ... ... ... : D-5 00 . ... : ... .. C ... : ... .. . ... ... : ... .. 9 ... ... : ... .. 9 ... ... : ... .. D ... ...
ROW 48 : ... .. D ... ... ... : ... .. D ... ... ... : G-4 00 . ... : ... .. 6 ... : ... .. . ... ... : ... .. 8 ... ... : ... .. 8 ... ... : ... .. 8 ... ...
ROW 49 : ... .. A ... ... ... : ... .. A ... ... ... : F#4 00 . ... : ... .. 3 ... : ... .. . ... ... : ... .. 7 ... ... : ... .. 7 ... ... : ... .. . ... ...
ROW 4A : ... .. . ... ... ... : ... .. . ... ... ... : C#4 00 . ... : ... .. 2 ... : ... .. . ... ... : ... .. . ... ... : ... .. . ... ... : ... .. . ... ...
ROW 4B : ... .. . ... ... ... : ... .. . ... ... ... : ... .. . ... : ... .. 0 ... : ... .. . ... ... : ... .. 6 ... ... : ... .. 6 ... ... : ... .. . ... ...
ROW 4C : F-4 00 A P7D ... ... : C-4 00 A P7B ... ... : D-4 00 . P7B : 6-# 00 F ... : ... .. . ... ... : ... .. . ... ... : ... .. . ... ... : ... .. . P87 ...
ROW 4D : ... .. . P7F ... ... : ... .. . P7D ... ... : ... .. . P7D : ... .. C ... : ... .. . ... ... : ... .. 5 ... ... : ... .. 5 ... ... : ... .. . P89 ...
ROW 4E : ... .. . P7C ... ... : B-3 00 A P86 ... ... : C#4 00 . P86 : ... .. 6 ... : ... .. . ... ... : ... .. . ... ... : ... .. . ... ... : ... .. . P86 ...
ROW 4F : E-4 00 A P80 ... ... : ... .. . P80 ... ... : ... .. . P80 : ... .. 3 ... : ... .. . ... ... : E-5 01 5 P7F ... : A-4 01 5 P7D ... : ... .. . P80 ...
ROW 50 : D#4 00 A P83 ... ... : A#3 00 A P87 ... ... : C-4 00 . P85 : ... .. 2 ... : ... .. . ... ... : ... .. . ... ... : ... .. . P7E ... : ... .. . P79 ...
ROW 51 : ... .. . P81 ... ... : ... .. . P85 ... ... : ... .. . P83 : ... .. 0 ... : ... .. . ... ... : D#5 01 5 P80 ... : G#4 01 5 P80 ... : ... .. . P77 ...
ROW 52 : ... .. . P84 ... ... : B-3 00 A P7A ... ... : ... .. . P86 : 1-# 00 F ... : ... .. . ... ... : D-5 01 5 P82 ... : G-4 01 5 P84 ... : ... .. . P7A ...
ROW 53 : E-4 00 A P80 ... ... : ... .. . P80 ... ... : C#4 00 . P80 : ... .. C ... : ... .. . ... ... : ... .. . P81 ... : ... .. . P82 ... : ... .. . P80 ...
ROW 54 : F-4 00 A P7D ... ... : C-4 00 A P7B ... ... : D-4 00 . P7B : ... .. 6 ... : ... .. . ... ... : D#5 01 5 P7F ... : G#4 01 5 P7E ... : ... .. . P87 ...
ROW 55 : ... .. . P7F ... ... : ... .. . P7D ... ... : ... .. . P7D : ... .. 3 ... : ... .. . ... ... : ... .. . P82 ... : ... .. . P83 ... : ... .. . P89 ...
ROW 56 : ... .. . P7C ... ... : B-3 00 A P86 ... ... : C#4 00 . P86 : ... .. 2 ... : ... .. . ... ... : E-5 01 5 P7F ... : A-4 01 5 P7E ... : ... .. . P86 ...
ROW 57 : E-4 00 A P80 ... ... : ... .. . P80 ... ... : ... .. . P80 : ... .. 0 ... : ... .. . ... ... : D#5 01 5 P82 ... : G#4 01 5 P83 ... : ... .. . P80 ...
ROW 58 : B-2 00 F ... ... ... : F#2 00 F ... ... ... : A#5 00 . ... : 6-# 00 F ... : ... .. . ... ... : ... .. . P7F ... : ... .. . P7E ... : B-1 01 F ... ...
ROW 59 : ... .. E ... ... ... : ... .. E ... ... ... : C-5 00 . ... : ... .. C ... : ... .. . ... ... : D-5 01 5 P81 ... : G-4 01 5 P82 ... : ... .. D ... ...
ROW 5A : ... .. D ... ... ... : ... .. D ... ... ... : F-4 00 . ... : ... .. 6 ... : ... .. . ... ... : ... .. . P82 ... : ... .. . P84 ... : ... .. 8 ... ...
ROW 5B : ... .. A ... ... ... : ... .. A ... ... ... : E-4 00 . ... : ... .. 3 ... : ... .. . ... ... : D#5 01 5 P80 ... : G#4 01 5 P81 ... : ... .. . ... ...
ROW 5C : ... .. 2 ... ... ... : ... .. 2 ... ... ... : B-3 00 . ... : ... .. 2 ... : ... .. . ... ... : E-5 01 5 P7F ... : A-4 01 5 P7E ... : ... .. . ... ...
ROW 5D : ... .. . ... ... ... : ... .. . ... ... ... : --- .. . ... : ... .. 0 ... : ... .. . ... ... : ... .. . P7E ... : ... .. . P7D ... : --- .. . P86 ...
ROW 5E : ... .. F ... ... ... : ... .. F ... ... ... : B-3 00 . ... : 1-# 00 F ... : ... .. . ... ... : D#5 01 5 P80 ... : G#4 01 5 P80 ... : B-1 01 F P80 ...
ROW 5F : ... .. E ... ... ... : ... .. E ... ... ... : ... .. . ... : ... .. C ... : ... .. . ... ... : D-5 01 5 P81 ... : G-4 01 5 P83 ... : ... .. D ... ...
ROW 60 : ... .. D ... ... ... : ... .. D ... ... ... : ... .. . ... : ... .. 6 ... : ... .. . ... ... : ... .. . ... ... : ... .. . P82 ... : ... .. 8 ... ...
ROW 61 : ... .. A ... ... ... : ... .. A ... ... ... : ... .. . ... : ... .. 3 ... : ... .. . ... ... : --- .. . ... ... : --- .. . ... ... : ... .. . ... ...
ROW 62 : ... .. 2 ... ... ... : ... .. 2 ... ... ... : ... .. . ... : ... .. 2 ... : ... .. . ... ... : ... .. . ... ... : ... .. . ... ... : ... .. . ... ...
ROW 63 : ... .. . ... ... ... : ... .. . ... ... ... : --- .. . ... : ... .. 0 ... : ... .. . ... ... : ... .. . ... ... : ... .. . ... ... : --- .. . P86 ...
ROW 64 : ... .. F ... ... ... : ... .. F ... ... ... : B-3 00 . ... : ... .. F ... : ... .. . ... ... : ... .. . ... ... : ... .. . ... ... : B-1 01 F P80 ...
ROW 65 : ... .. E ... ... ... : ... .. E ... ... ... : ... .. . ... : ... .. C ... : ... .. . ... ... : ... .. . ... ... : ... .. . ... ... : ... .. D ... ...
ROW 66 : ... .. D ... ... ... : ... .. D ... ... ... : ... .. . ... : ... .. 6 ... : ... .. . ... ... : ... .. . ... ... : ... .. . ... ... : ... .. 8 ... ...
ROW 67 : ... .. A ... ... ... : ... .. A ... ... ... : ... .. . ... : ... .. 3 ... : ... .. . ... ... : ... .. . ... ... : ... .. . ... ... : ... .. . ... ...
ROW 68 : ... .. 2 ... ... ... : ... .. 2 ... ... ... : ... .. . ... : ... .. 2 ... : ... .. . ... ... : ... .. . ... ... : ... .. . ... ... : ... .. . ... ...
ROW 69 : ... .. . ... ... ... : ... .. . ... ... ... : --- .. . ... : ... .. 0 ... : ... .. . ... ... : ... .. . ... ... : ... .. . ... ... : --- .. . P86 ...
ROW 6A : F#2 00 F ... ... ... : C#2 00 F ... ... ... : F-5 00 . ... : A-# 00 F ... : ... .. . ... ... : G#3 01 A P80 ... : D#3 01 A P80 ... : F#1 01 F P80 ...
ROW 6B : ... .. E ... ... ... : ... .. E ... ... ... : G-4 00 . ... : ... .. C ... : ... .. . ... ... : ... .. 9 ... ... : ... .. 9 ... ... : ... .. D ... ...
ROW 6C : ... .. D ... ... ... : ... .. D ... ... ... : C-4 00 . ... : ... .. 6 ... : ... .. . ... ... : ... .. 8 ... ... : ... .. 8 ... ... : ... .. 8 ... ...
ROW 6D : ... .. A ... ... ... : ... .. A ... ... ... : B-3 00 . ... : ... .. 3 ... : ... .. . ... ... : --- .. . P82 ... : --- .. . P83 ... : ... .. . ... ...
ROW 6E : ... .. 2 ... ... ... : ... .. 2 ... ... ... : F#3 00 . ... : ... .. 2 ... : ... .. . ... ... : ... .. . ... ... : ... .. . ... ... : ... .. . ... ...
ROW 6F : ... .. . ... ... ... : ... .. . ... ... ... : --- .. . ... : ... .. 0 ... : ... .. . ... ... : ... .. . ... ... : ... .. . ... ... : --- .. . P81 ...
ROW 70 : ... .. F ... ... ... : ... .. F ... ... ... : F#3 00 . ... : 1-# 00 F ... : ... .. . ... ... : C#4 01 A P80 ... : G#3 01 A P80 ... : F#1 01 F P80 ...
ROW 71 : ... .. E ... ... ... : ... .. E ... ... ... : ... .. . ... : ... .. C ... : ... .. . ... ... : ... .. 9 ... ... : ... .. 9 ... ... : ... .. D ... ...
ROW 72 : ... .. D ... ... ... : ... .. D ... ... ... : ... .. . ... : ... .. 6 ... : ... .. . ... ... : ... .. 8 ... ... : ... .. 8 ... ... : ... .. 8 ... ...
ROW 73 : ... .. A ... ... ... : ... .. A ... ... ... : ... .. . ... : ... .. 3 ... : ... .. . ... ... : --- .. . ... ... : --- .. . P82 ... : ... .. . ... ...
ROW 74 : ... .. 2 ... ... ... : ... .. 2 ... ... ... : ... .. . ... : ... .. 2 ... : ... .. . ... ... : ... .. . ... ... : ... .. . ... ... : ... .. . ... ...
ROW 75 : ... .. . ... ... ... : ... .. . ... ... ... : --- .. . ... : ... .. 0 ... : ... .. . ... ... : ... .. . ... ... : ... .. . ... ... : --- .. . P81 ...
ROW 76 : ... .. F ... ... ... : ... .. F ... ... ... : F#3 00 . ... : ... .. F ... : ... .. . ... ... : F#4 01 A ... ... : C#4 01 A P80 ... : F#1 01 F P80 ...
ROW 77 : ... .. E ... ... ... : ... .. E ... ... ... : ... .. . ... : ... .. C ... : ... .. . ... ... : ... .. 9 ... ... : ... .. 9 ... ... : ... .. D ... ...
ROW 78 : ... .. D ... ... ... : ... .. D ... ... ... : ... .. . ... : ... .. 6 ... : ... .. . ... ... : ... .. 8 ... ... : ... .. 8 ... ... : ... .. 8 ... ...
ROW 79 : ... .. A ... ... ... : ... .. A ... ... ... : ... .. . ... : ... .. 3 ... : ... .. . ... ... : --- .. . ... ... : --- .. . ... ... : ... .. . ... ...
ROW 7A : ... .. 2 ... ... ... : ... .. 2 ... ... ... : ... .. . ... : ... .. 2 ... : ... .. . ... ... : ... .. . ... ... : ... .. . ... ... : ... .. . ... ...
ROW 7B : ... .. . ... ... ... : ... .. . ... ... ... : --- .. . ... : ... .. 0 ... : ... .. . ... ... : ... .. . ... ... : ... .. . ... ... : --- .. . P81 ...
ROW 7C : C#2 00 F ... ... ... : G#1 00 F ... ... ... : C-5 00 . ... : 6-# 00 F ... : ... .. . ... ... : B-3 01 5 ... ... : C#4 01 A ... ... : C#1 01 F P80 ...
ROW 7D : ... .. E ... ... ... : ... .. E ... ... ... : D-4 00 . ... : ... .. C ... : ... .. . ... ... : ... .. 4 ... ... : ... .. 9 ... ... : ... .. D ... ...
ROW 7E : ... .. D ... ... ... : ... .. D ... ... ... : G-3 00 . ... : ... .. 6 ... : ... .. . ... ... : --- .. . ... ... : ... .. 8 ... ... : ... .. 8 ... ...
ROW 7F : ... .. A ... ... ... : ... .. A ... ... ... : F#3 00 . ... : ... .. 3 ... : ... .. . ... ... : C#4 01 5 ... ... : ... .. 7 ... ... : ... .. . ... ...
ROW 80 : ... .. 2 ... ... ... : ... .. 2 ... ... ... : C#3 00 . ... : ... .. 2 ... : ... .. . ... ... : ... .. 4 ... ... : ... .. . ... ... : ... .. . ... ...
ROW 81 : ... .. . ... ... ... : ... .. . ... ... ... : --- .. . ... : ... .. 0 ... : ... .. . ... ... : --- .. . ... ... : ... .. 6 ... ... : --- .. . P81 ...
ROW 82 : ... .. F ... ... ... : ... .. F ... ... ... : C#3 00 . ... : ... .. F ... : ... .. . ... ... : D#4 01 6 ... ... : A#3 01 A ... ... : C#1 01 F P80 ...
ROW 83 : ... .. E ... ... ... : ... .. E ... ... ... : ... .. . ... : ... .. C ... : ... .. . ... ... : ... .. 5 ... ... : ... .. 9 ... ... : ... .. D ... ...
ROW 84 : ... .. D ... ... ... : ... .. D ... ... ... : ... .. . ... : ... .. 6 ... : ... .. . ... ... : --- .. . ... ... : ... .. 8 ... ... : ... .. 8 ... ...
ROW 85 : ... .. A ... ... ... : ... .. A ... ... ... : ... .. . ... : ... .. 3 ... : ... .. . ... ... : E-4 01 6 ... ... : ... .. 7 ... ... : ... .. . ... ...
ROW 86 : ... .. 2 ... ... ... : ... .. 2 ... ... ... : ... .. . ... : ... .. 2 ... : ... .. . ... ... : ... .. 5 ... ... : ... .. . ... ... : ... .. . ... ...
ROW 87 : ... .. . ... ... ... : ... .. . ... ... ... : --- .. . ... : ... .. 0 ... : ... .. . ... ... : --- .. . ... ... : ... .. 6 ... ... : --- .. . P81 ...
ROW 88 : ... .. F ... ... ... : ... .. F ... ... ... : C#3 00 . ... : 5-# 00 F ... : ... .. . ... ... : F#4 01 6 ... ... : D#4 01 A ... ... : C#1 01 F P80 ...
ROW 89 : ... .. E ... ... ... : ... .. E ... ... ... : ... .. . ... : ... .. C ... : ... .. . ... ... : ... .. . ... ... : ... .. 9 ... ... : ... .. D ... ...
ROW 8A : ... .. D ... ... ... : ... .. D ... ... ... : ... .. . ... : ... .. 6 ... : ... .. . ... ... : --- .. . ... ... : ... .. 8 ... ... : ... .. 8 ... ...
ROW 8B : ... .. A ... ... ... : ... .. A ... ... ... : ... .. . ... : ... .. 3 ... : ... .. . ... ... : G#4 01 7 ... ... : ... .. 7 ... ... : ... .. . ... ...
ROW 8C : ... .. 2 ... ... ... : ... .. 2 ... ... ... : ... .. . ... : ... .. 2 ... : ... .. . ... ... : ... .. 6 ... ... : ... .. . ... ... : ... .. . ... ...
ROW 8D : ... .. . ... ... ... : ... .. . ... ... ... : --- .. . ... : ... .. 0 ... : ... .. . ... ... : --- .. . ... ... : ... .. 6 ... ... : --- .. . P81 ...
ROW 8E : F#1 00 F ... ... ... : C#1 00 F ... ... ... : F-4 00 . ... : ... .. F ... : ... .. . ... ... : A-4 01 7 ... ... : G#4 01 A ... ... : F#0 01 F P80 ...
ROW 8F : ... .. E ... ... ... : ... .. E ... ... ... : G-3 00 . ... : ... .. C ... : ... .. . ... ... : ... .. 6 ... ... : ... .. 9 ... ... : ... .. D ... ...
ROW 90 : ... .. D ... ... ... : ... .. D ... ... ... : C-3 00 . ... : ... .. 6 ... : ... .. . ... ... : --- .. . ... ... : ... .. 8 ... ... : ... .. 8 ... ...
ROW 91 : ... .. A ... ... ... : ... .. A ... ... ... : B-2 00 . ... : ... .. 3 ... : ... .. . ... ... : B-4 01 8 ... ... : ... .. 7 ... ... : ... .. . ... ...
ROW 92 : ... .. 2 ... ... ... : ... .. 2 ... ... ... : F#2 00 . ... : ... .. 2 ... : ... .. . ... ... : ... .. 7 ... ... : ... .. . ... ... : ... .. . ... ...
ROW 93 : ... .. . ... ... ... : ... .. . ... ... ... : --- .. . ... : ... .. 0 ... : ... .. . ... ... : --- .. . ... ... : ... .. 6 ... ... : --- .. . P81 ...
ROW 94 : ... .. F ... ... ... : ... .. F ... ... ... : F#2 00 . ... : 3-# 00 F ... : ... .. . ... ... : C#5 01 8 ... ... : F#4 01 A ... ... : F#0 01 F P80 ...
ROW 95 : ... .. E ... ... ... : ... .. E ... ... ... : ... .. . ... : ... .. C ... : ... .. . ... ... : ... .. 7 ... ... : ... .. 9 ... ... : ... .. D ... ...
ROW 96 : ... .. D ... ... ... : ... .. D ... ... ... : ... .. . ... : ... .. 6 ... : ... .. . ... ... : --- .. . ... ... : ... .. 8 ... ... : ... .. 8 ... ...
ROW 97 : ... .. A ... ... ... : ... .. A ... ... ... : ... .. . ... : ... .. 3 ... : ... .. . ... ... : D#5 01 8 ... ... : ... .. 7 ... ... : ... .. . ... ...
ROW 98 : ... .. 2 ... ... ... : ... .. 2 ... ... ... : ... .. . ... : ... .. 2 ... : ... .. . ... ... : ... .. 7 ... ... : ... .. . ... ... : ... .. . ... ...
ROW 99 : ... .. . ... ... ... : ... .. . ... ... ... : --- .. . ... : ... .. 0 ... : ... .. . ... ... : --- .. . ... ... : ... .. 6 ... ... : --- .. . P81 ...
ROW 9A : ... .. F ... ... ... : ... .. F ... ... ... : F#2 00 . ... : ... .. F ... : ... .. . ... ... : E-5 01 9 ... ... : C#5 01 A ... ... : F#0 01 F P80 ...
ROW 9B : ... .. E ... ... ... : ... .. E ... ... ... : ... .. . ... : ... .. C ... : ... .. . ... ... : ... .. 8 ... ... : ... .. 9 ... ... : ... .. D ... ...
ROW 9C : ... .. D ... ... ... : ... .. D ... ... ... : ... .. . ... : ... .. 6 ... : ... .. . ... ... : --- .. . ... ... : ... .. 8 ... ... : ... .. 8 ... ...
ROW 9D : ... .. A ... ... ... : ... .. A ... ... ... : ... .. . ... : ... .. 3 ... : ... .. . ... ... : F#5 01 A ... ... : ... .. 7 ... ... : ... .. . ... ...
ROW 9E : ... .. 2 ... ... ... : ... .. 2 ... ... ... : ... .. . ... : ... .. 2 ... : ... .. . ... ... : ... .. 9 ... ... : ... .. . ... ... : ... .. . ... ...
ROW 9F : ... .. . ... ... ... : ... .. . ... ... ... : --- .. . ... : ... .. 0 ... : ... .. . ... ... : --- .. . ... ... : ... .. 6 ... ... : --- .. . P81 ...
ROW A0 : G#2 00 F ... ... ... : D#2 00 F ... ... ... : G-4 00 . ... : 1-# 00 F ... : ... .. . ... ... : D#5 01 7 ... V05 : G#5 01 8 ... ... : G#1 01 F P80 ...
ROW A1 : ... .. E ... ... ... : ... .. E ... ... ... : A-3 00 . ... : ... .. C ... : ... .. . ... ... : ... .. 6 ... ... : ... .. 7 ... ... : ... .. D ... ...
ROW A2 : ... .. D ... ... ... : ... .. D ... ... ... : D-3 00 . ... : ... .. 6 ... : ... .. . ... ... : ... .. . ... ... : ... .. 6 ... ... : ... .. 8 ... ...
ROW A3 : ... .. A ... ... ... : ... .. A ... ... ... : C#3 00 . ... : ... .. 3 ... : ... .. . ... ... : ... .. . ... ... : ... .. 5 ... ... : ... .. . ... ...
ROW A4 : ... .. 2 ... ... ... : ... .. 2 ... ... ... : G#2 00 . ... : ... .. 2 ... : ... .. . ... ... : ... .. 5 ... ... : ... .. . ... ... : ... .. . ... ...
ROW A5 : ... .. . ... ... ... : ... .. . ... ... ... : --- .. . ... : ... .. 0 ... : ... .. . ... ... : ... .. . ... ... : ... .. 4 ... ... : --- .. . P7E ...
ROW A6 : ... .. F ... ... ... : ... .. F ... ... ... : G#2 00 . ... : D-# 00 F ... : ... .. . ... ... : D#3 01 7 ... ... : G#3 01 8 ... ... : G#1 01 F P80 ...
ROW A7 : ... .. E ... ... ... : ... .. E ... ... ... : ... .. . ... : ... .. C ... : ... .. . ... ... : ... .. 6 ... ... : ... .. 7 ... ... : ... .. D ... ...
ROW A8 : ... .. D ... ... ... : ... .. D ... ... ... : ... .. . ... : ... .. 6 ... : ... .. . ... ... : ... .. . ... ... : ... .. 6 ... ... : ... .. 8 ... ...
ROW A9 : ... .. A ... ... ... : ... .. A ... ... ... : ... .. . ... : ... .. 3 ... : ... .. . ... ... : ... .. . ... ... : ... .. 5 ... ... : ... .. . ... ...
ROW AA : ... .. 2 ... ... ... : ... .. 2 ... ... ... : ... .. . ... : ... .. 2 ... : ... .. . ... ... : ... .. 5 ... ... : ... .. . ... ... : ... .. . ... ...
ROW AB : ... .. . ... ... ... : ... .. . ... ... ... : --- .. . ... : ... .. 0 ... : ... .. . ... ... : ... .. . ... ... : ... .. 4 ... ... : --- .. . P7E ...
ROW AC : ... .. F ... ... ... : ... .. F ... ... ... : G#2 00 . ... : ... .. F ... : ... .. . ... ... : D#4 01 7 ... ... : G#4 01 8 ... ... : G#1 01 F P80 ...
ROW AD : ... .. E ... ... ... : ... .. E ... ... ... : ... .. . ... : ... .. C ... : ... .. . ... ... : ... .. 6 ... ... : ... .. 7 ... ... : ... .. D ... ...
ROW AE : ... .. D ... ... ... : ... .. D ... ... ... : ... .. . ... : ... .. 6 ... : ... .. . ... ... : ... .. . ... ... : ... .. 6 ... ... : ... .. 8 ... ...
ROW AF : ... .. A ... ... ... : ... .. A ... ... ... : ... .. . ... : ... .. 3 ... : ... .. . ... ... : ... .. . ... ... : ... .. 5 ... ... : ... .. . ... ...
ROW B0 : ... .. 2 ... ... ... : ... .. 2 ... ... ... : ... .. . ... : ... .. 2 ... : ... .. . ... ... : ... .. 5 ... ... : ... .. . ... ... : ... .. . ... ...
ROW B1 : ... .. . ... ... ... : ... .. . ... ... ... : --- .. . ... : ... .. 0 ... : ... .. . ... ... : ... .. . ... ... : ... .. 4 ... ... : --- .. . P7E ...
ROW B2 : B-2 00 F ... ... ... : F#2 00 F ... ... ... : F#3 00 . ... : 6-# 00 F ... : ... .. . ... ... : C#4 01 7 ... ... : F#4 01 8 ... ... : F#2 01 F P80 ...
ROW B3 : ... .. E ... ... ... : ... .. E ... ... ... : ... .. . ... : ... .. C ... : ... .. . ... ... : ... .. 6 ... ... : ... .. 7 ... ... : ... .. D ... ...
ROW B4 : ... .. D ... ... ... : ... .. D ... ... ... : ... .. . ... : ... .. 6 ... : ... .. . ... ... : ... .. . ... ... : ... .. 6 ... ... : ... .. 8 ... ...
ROW B5 : ... .. A ... ... ... : ... .. A ... ... ... : ... .. . ... : ... .. 3 ... : ... .. . ... ... : ... .. . ... ... : ... .. 5 ... ... : ... .. . ... ...
ROW B6 : ... .. . ... ... ... : ... .. . ... ... ... : ... .. . ... : ... .. 2 ... : ... .. . ... ... : ... .. 5 ... ... : ... .. . ... ... : ... .. . ... ...
ROW B7 : ... .. . ... ... ... : ... .. . ... ... ... : --- .. . ... : ... .. 0 ... : ... .. . ... ... : ... .. . ... ... : ... .. 4 ... ... : --- .. . P84 ...
ROW B8 : F#2 00 F ... ... ... : C#2 00 F ... ... ... : G#3 00 . ... : D-# 00 F ... : ... .. . ... ... : D#2 01 7 ... ... : G#2 01 8 ... ... : G#2 01 F P80 ...
ROW B9 : ... .. E ... ... ... : ... .. E ... ... ... : ... .. . ... : ... .. C ... : ... .. . ... ... : ... .. 6 ... ... : ... .. 7 ... ... : ... .. D ... ...
ROW BA : ... .. D ... ... ... : ... .. D ... ... ... : ... .. . ... : ... .. 6 ... : ... .. . ... ... : ... .. . ... ... : ... .. 6 ... ... : ... .. 8 ... ...
ROW BB : ... .. A ... ... ... : ... .. A ... ... ... : ... .. . ... : ... .. 3 ... : ... .. . ... ... : ... .. . ... ... : ... .. 5 ... ... : ... .. . ... ...
ROW BC : ... .. 2 ... ... ... : ... .. 2 ... ... ... : ... .. . ... : ... .. 2 ... : ... .. . ... ... : ... .. 5 ... ... : ... .. . ... ... : ... .. . ... ...
ROW BD : ... .. . ... ... ... : ... .. . ... ... ... : --- .. . ... : ... .. 0 ... : ... .. . ... ... : ... .. . ... ... : ... .. 4 ... ... : --- .. . P7F ...
ROW BE : ... .. F ... ... ... : ... .. F ... ... ... : F#2 00 . ... : ... .. F ... : ... .. . ... ... : C#3 01 7 ... ... : F#3 01 8 ... ... : F#1 01 F P80 ...
ROW BF : ... .. E ... ... ... : ... .. E ... ... ... : ... .. . ... : ... .. C ... : ... .. . ... ... : ... .. 6 ... ... : ... .. 7 ... ... : ... .. D ... ...
ROW C0 : ... .. D ... ... ... : ... .. D ... ... ... : ... .. . ... : ... .. 6 ... : ... .. . ... ... : ... .. . ... ... : ... .. 6 ... ... : ... .. 8 ... ...
ROW C1 : ... .. A ... ... ... : ... .. A ... ... ... : ... .. . ... : ... .. 3 ... : ... .. . ... ... : ... .. . ... ... : ... .. 5 ... ... : ... .. . ... ...
ROW C2 : ... .. 2 ... ... ... : ... .. 2 ... ... ... : ... .. . ... : ... .. 2 ... : ... .. . ... ... : ... .. 5 ... ... : ... .. . ... ... : ... .. . ... ...
ROW C3 : ... .. . ... ... ... : ... .. . ... ... ... : --- .. . ... : ... .. 0 ... : ... .. . ... ... : ... .. . ... ... : ... .. 4 ... ... : --- .. . P81 ...
ROW C4 : G#2 00 F ... ... ... : D#2 00 F ... ... ... : G-4 00 . ... : 1-# 00 F ... : ... .. . ... ... : F#3 01 7 ... ... : B-3 01 8 ... ... : G#1 01 F P80 ...
ROW C5 : ... .. E ... ... ... : ... .. E ... ... ... : A-3 00 . ... : ... .. C ... : ... .. . ... ... : ... .. 6 ... ... : ... .. 7 ... ... : ... .. D ... ...
ROW C6 : ... .. D ... ... ... : ... .. D ... ... ... : D-3 00 . ... : ... .. 6 ... : ... .. . ... ... : ... .. . ... ... : ... .. 6 ... ... : ... .. 8 ... ...
ROW C7 : ... .. A ... ... ... : ... .. A ... ... ... : C#3 00 . ... : ... .. 3 ... : ... .. . ... ... : ... .. . ... ... : ... .. 5 ... ... : ... .. . ... ...
ROW C8 : ... .. 2 ... ... ... : ... .. 2 ... ... ... : G#2 00 . ... : ... .. 2 ... : ... .. . ... ... : ... .. 5 ... ... : ... .. . ... ... : ... .. . ... ...
ROW C9 : ... .. . ... ... ... : ... .. . ... ... ... : --- .. . ... : ... .. 0 ... : ... .. . ... ... : ... .. . ... ... : ... .. 4 ... ... : --- .. . P7E ...
ROW CA : ... .. F ... ... ... : ... .. F ... ... ... : G#2 00 . ... : D-# 00 F ... : ... .. . ... ... : G#3 01 7 ... ... : C#4 01 8 ... ... : G#1 01 F P80 ...
ROW CB : ... .. E ... ... ... : ... .. E ... ... ... : ... .. . ... : ... .. C ... : ... .. . ... ... : ... .. 6 ... ... : ... .. 7 ... ... : ... .. D ... ...
ROW CC : ... .. D ... ... ... : ... .. D ... ... ... : ... .. . ... : ... .. 6 ... : ... .. . ... ... : ... .. . ... ... : ... .. 6 ... ... : ... .. 8 ... ...
ROW CD : ... .. A ... ... ... : ... .. A ... ... ... : ... .. . ... : ... .. 3 ... : ... .. . ... ... : ... .. . ... ... : ... .. 5 ... ... : ... .. . ... ...
ROW CE : ... .. 2 ... ... ... : ... .. 2 ... ... ... : ... .. . ... : ... .. 2 ... : ... .. . ... ... : ... .. 5 ... ... : ... .. . ... ... : ... .. . ... ...
ROW CF : ... .. . ... ... ... : ... .. . ... ... ... : --- .. . ... : ... .. 0 ... : ... .. . ... ... : ... .. . ... ... : ... .. 4 ... ... : --- .. . P7E ...
ROW D0 : ... .. F ... ... ... : ... .. F ... ... ... : G#2 00 . ... : ... .. F ... : ... .. . ... ... : F#2 01 7 ... ... : B-2 01 8 ... ... : G#1 01 F P80 ...
ROW D1 : ... .. E ... ... ... : ... .. E ... ... ... : ... .. . ... : ... .. C ... : ... .. . ... ... : ... .. 6 ... ... : ... .. 7 ... ... : ... .. D ... ...
ROW D2 : ... .. D ... ... ... : ... .. D ... ... ... : ... .. . ... : ... .. 6 ... : ... .. . ... ... : ... .. . ... ... : ... .. 6 ... ... : ... .. 8 ... ...
ROW D3 : ... .. A ... ... ... : ... .. A ... ... ... : ... .. . ... : ... .. 3 ... : ... .. . ... ... : ... .. . ... ... : ... .. 5 ... ... : ... .. . ... ...
ROW D4 : ... .. 2 ... ... ... : ... .. 2 ... ... ... : ... .. . ... : ... .. 2 ... : ... .. . ... ... : ... .. 5 ... ... : ... .. . ... ... : ... .. . ... ...
ROW D5 : ... .. . ... ... ... : ... .. . ... ... ... : --- .. . ... : ... .. 0 ... : ... .. . ... ... : ... .. . ... ... : ... .. 4 ... ... : --- .. . P7E ...
ROW D6 : C#3 00 F ... ... ... : G#2 00 F ... ... ... : F#3 00 . ... : 6-# 00 F ... : ... .. . ... ... : G#3 01 7 ... ... : C#4 01 8 ... ... : F#2 01 F P80 ...
ROW D7 : ... .. E ... ... ... : ... .. E ... ... ... : ... .. . ... : ... .. C ... : ... .. . ... ... : ... .. 6 ... ... : ... .. 7 ... ... : ... .. D ... ...
ROW D8 : ... .. D ... ... ... : ... .. D ... ... ... : ... .. . ... : ... .. 6 ... : ... .. . ... ... : ... .. . ... ... : ... .. 6 ... ... : ... .. 8 ... ...
ROW D9 : ... .. A ... ... ... : ... .. A ... ... ... : ... .. . ... : ... .. 3 ... : ... .. . ... ... : ... .. . ... ... : ... .. 5 ... ... : ... .. . ... ...
ROW DA : ... .. . ... ... ... : ... .. . ... ... ... : ... .. . ... : ... .. 2 ... : ... .. . ... ... : ... .. 5 ... ... : ... .. . ... ... : ... .. . ... ...
ROW DB : ... .. . ... ... ... : ... .. . ... ... ... : --- .. . ... : ... .. 0 ... : ... .. . ... ... : ... .. . ... ... : ... .. 4 ... ... : --- .. . P84 ...
ROW DC : B-2 00 F ... ... ... : F#2 00 F ... ... ... : G#3 00 . ... : 1-# 00 F ... : ... .. . ... ... : A#3 01 7 ... ... : D#4 01 8 ... ... : G#2 01 F P80 ...
ROW DD : ... .. E ... ... ... : ... .. E ... ... ... : ... .. . ... : ... .. C ... : ... .. . ... ... : ... .. 6 ... ... : ... .. 7 ... ... : ... .. D ... ...
ROW DE : ... .. D ... ... ... : ... .. D ... ... ... : ... .. . ... : ... .. 6 ... : ... .. . ... ... : ... .. . ... ... : ... .. 6 ... ... : ... .. 8 ... ...
ROW DF : ... .. A ... ... ... : ... .. A ... ... ... : ... .. . ... : ... .. 3 ... : ... .. . ... ... : ... .. . ... ... : ... .. 5 ... ... : ... .. . ... ...
ROW E0 : ... .. . ... ... ... : ... .. . ... ... ... : ... .. . ... : ... .. 2 ... : ... .. . ... ... : ... .. 5 ... ... : ... .. . ... ... : ... .. . ... ...
ROW E1 : ... .. . ... ... ... : ... .. . ... ... ... : --- .. . ... : ... .. 0 ... : ... .. . ... ... : ... .. . ... ... : ... .. 4 ... ... : --- .. . P7F ...
ROW E2 : F#2 00 F ... ... ... : C#2 00 F ... ... ... : F#2 00 . ... : 6-# 00 F ... : ... .. . ... ... : D#4 01 7 ... ... : G#4 01 8 ... ... : F#1 01 F P80 ...
ROW E3 : ... .. E ... ... ... : ... .. E ... ... ... : ... .. . ... : ... .. C ... : ... .. . ... ... : ... .. 6 ... ... : ... .. 7 ... ... : ... .. D ... ...
ROW E4 : ... .. D ... ... ... : ... .. D ... ... ... : ... .. . ... : ... .. 6 ... : ... .. . ... ... : ... .. . ... ... : ... .. 6 ... ... : ... .. 8 ... ...
ROW E5 : ... .. A ... ... ... : ... .. A ... ... ... : ... .. . ... : ... .. 3 ... : ... .. . ... ... : ... .. . ... ... : ... .. 5 ... ... : ... .. . ... ...
ROW E6 : ... .. 2 ... ... ... : ... .. 2 ... ... ... : ... .. . ... : ... .. 2 ... : ... .. . ... ... : ... .. 5 ... ... : ... .. . ... ... : ... .. . ... ...
ROW E7 : ... .. . ... ... ... : ... .. . ... ... ... : --- .. . ... : ... .. 0 ... : ... .. . ... ... : ... .. . ... ... : ... .. 4 ... ... : --- .. . P81 ...
ROW E8 : G#2 00 F ... ... ... : D#2 00 F ... ... ... : G-4 00 . ... : 1-# 00 F ... : ... .. . ... ... : D#3 01 7 ... ... : G#3 01 8 ... ... : G#1 01 F P80 ...
ROW E9 : ... .. E ... ... ... : ... .. E ... ... ... : A-3 00 . ... : ... .. C ... : ... .. . ... ... : ... .. 6 ... ... : ... .. 7 ... ... : ... .. D ... ...
ROW EA : ... .. D ... ... ... : ... .. D ... ... ... : D-3 00 . ... : ... .. 6 ... : ... .. . ... ... : ... .. . ... ... : ... .. 6 ... ... : ... .. 8 ... ...
ROW EB : ... .. A ... ... ... : ... .. A ... ... ... : C#3 00 . ... : ... .. 3 ... : ... .. . ... ... : ... .. . ... ... : ... .. 5 ... ... : ... .. . ... ...
ROW EC : ... .. 2 ... ... ... : ... .. 2 ... ... ... : G#2 00 . ... : ... .. 2 ... : ... .. . ... ... : ... .. 5 ... ... : ... .. . ... ... : ... .. . ... ...
ROW ED : ... .. . ... ... ... : ... .. . ... ... ... : --- .. . ... : ... .. 0 ... : ... .. . ... ... : ... .. . ... ... : ... .. 4 ... ... : --- .. . P7E ...
ROW EE : ... .. F ... ... ... : ... .. F ... ... ... : G#2 00 . ... : D-# 00 F ... : ... .. . ... ... : C#3 01 7 ... ... : F#3 01 8 ... ... : G#1 01 F P80 ...
ROW EF : ... .. E ... ... ... : ... .. E ... ... ... : ... .. . ... : ... .. C ... : ... .. . ... ... : ... .. 6 ... ... : ... .. 7 ... ... : ... .. D ... ...
ROW F0 : ... .. D ... ... ... : ... .. D ... ... ... : ... .. . ... : ... .. 6 ... : ... .. . ... ... : ... .. . ... ... : ... .. 6 ... ... : ... .. 8 ... ...
ROW F1 : ... .. A ... ... ... : ... .. A ... ... ... : ... .. . ... : ... .. 3 ... : ... .. . ... ... : ... .. . ... ... : ... .. 5 ... ... : ... .. . ... ...
ROW F2 : ... .. 2 ... ... ... : ... .. 2 ... ... ... : ... .. . ... : ... .. 2 ... : ... .. . ... ... : ... .. 5 ... ... : ... .. . ... ... : ... .. . ... ...
ROW F3 : ... .. . ... ... ... : ... .. . ... ... ... : --- .. . ... : ... .. 0 ... : ... .. . ... ... : ... .. . ... ... : ... .. 4 ... ... : --- .. . P7E ...
ROW F4 : ... .. F ... ... ... : ... .. F ... ... ... : G#2 00 . ... : ... .. F ... : ... .. . ... ... : D#3 01 7 ... ... : G#3 01 8 ... ... : G#1 01 F P80 ...
ROW F5 : ... .. E ... ... ... : ... .. E ... ... ... : ... .. . ... : ... .. C ... : ... .. . ... ... : ... .. 6 ... ... : ... .. 7 ... ... : ... .. D ... ...
ROW F6 : ... .. D ... ... ... : ... .. D ... ... ... : ... .. . ... : ... .. 6 ... : ... .. . ... ... : ... .. . ... ... : ... .. 6 ... ... : ... .. 8 ... ...
ROW F7 : ... .. A ... ... ... : ... .. A ... ... ... : ... .. . ... : ... .. 3 ... : ... .. . ... ... : ... .. . ... ... : ... .. 5 ... ... : ... .. . ... ...
ROW F8 : ... .. 2 ... ... ... : ... .. 2 ... ... ... : ... .. . ... : ... .. 2 ... : ... .. . ... ... : ... .. 5 ... ... : ... .. . ... ... : ... .. . ... ...
ROW F9 : ... .. . ... ... ... : ... .. . ... ... ... : --- .. . ... : ... .. 0 ... : ... .. . ... ... : ... .. . ... ... : ... .. 4 ... ... : --- .. . P7E ...
ROW FA : E-3 00 F ... ... ... : B-2 00 F ... ... ... : E-3 00 . ... : 8-# 00 F ... : ... .. . ... ... : D#4 01 7 ... ... : G#4 01 8 ... ... : E-2 01 F P80 ...
ROW FB : ... .. E ... ... ... : ... .. E ... ... ... : ... .. . ... : ... .. C ... : ... .. . ... ... : ... .. 6 ... ... : ... .. 7 ... ... : ... .. D ... ...
ROW FC : ... .. D ... ... ... : ... .. D ... ... ... : ... .. . ... : ... .. 6 ... : ... .. . ... ... : ... .. . ... ... : ... .. 6 ... ... : ... .. 8 ... ...
ROW FD : ... .. A ... ... ... : ... .. A ... ... ... : ... .. . ... : ... .. 3 ... : ... .. . ... ... : ... .. . ... ... : ... .. 5 ... ... : ... .. . ... ...
ROW FE : ... .. . ... ... ... : ... .. . ... ... ... : ... .. . ... : ... .. 2 ... : ... .. . ... ... : ... .. 5 ... ... : ... .. . ... ... : ... .. . ... ...
ROW FF : ... .. . ... ... ... : ... .. . ... ... ... : --- .. . ... : ... .. 0 ... : ... .. . ... ... : ... .. . ... ... : ... .. 4 ... ... : --- .. . P89 ...

PATTERN 18
ROW 00 : D#3 00 F ... ... ... : A#2 00 F ... ... ... : D#3 00 . ... : 4-# 00 F ... : ... .. . ... ... : D#2 01 7 ... ... : G#2 01 8 ... ... : D#2 01 F P80 ...
ROW 01 : ... .. E ... ... ... : ... .. E ... ... ... : ... .. . ... : ... .. C ... : ... .. . ... ... : ... .. 6 ... ... : ... .. 7 ... ... : ... .. D ... ...
ROW 02 : ... .. D ... ... ... : ... .. D ... ... ... : ... .. . ... : ... .. 6 ... : ... .. . ... ... : ... .. . ... ... : ... .. 6 ... ... : ... .. 8 ... ...
ROW 03 : ... .. A ... ... ... : ... .. A ... ... ... : ... .. . ... : ... .. 3 ... : ... .. . ... ... : ... .. . ... ... : ... .. 5 ... ... : ... .. . ... ...
ROW 04 : ... .. . ... ... ... : ... .. . ... ... ... : ... .. . ... : ... .. 2 ... : ... .. . ... ... : ... .. 5 ... ... : ... .. . ... ... : ... .. . ... ...
ROW 05 : ... .. . ... ... ... : ... .. . ... ... ... : --- .. . ... : ... .. 0 ... : ... .. . ... ... : ... .. . ... ... : ... .. 4 ... ... : --- .. . ... ...
ROW 06 : B-2 00 F ... ... ... : F#2 00 F ... ... ... : F#2 00 . ... : 1-# 00 F ... : ... .. . ... ... : C#2 01 7 ... ... : F#2 01 8 ... ... : F#1 01 F ... ...
ROW 07 : ... .. E ... ... ... : ... .. E ... ... ... : ... .. . ... : ... .. C ... : ... .. . ... ... : ... .. 6 ... ... : ... .. 7 ... ... : ... .. D ... ...
ROW 08 : ... .. D ... ... ... : ... .. D ... ... ... : ... .. . ... : ... .. 6 ... : ... .. . ... ... : ... .. . ... ... : ... .. 6 ... ... : ... .. 8 ... ...
ROW 09 : ... .. A ... ... ... : ... .. A ... ... ... : ... .. . ... : ... .. 3 ... : ... .. . ... ... : ... .. . ... ... : ... .. 5 ... ... : ... .. . ... ...
ROW 0A : ... .. 2 ... ... ... : ... .. 2 ... ... ... : ... .. . ... : ... .. 2 ... : ... .. . ... ... : ... .. 5 ... ... : ... .. . ... ... : ... .. . ... ...
ROW 0B : ... .. . ... ... ... : ... .. . ... ... ... : --- .. . ... : ... .. 0 ... : ... .. . ... ... : ... .. . ... ... : ... .. 4 ... ... : --- .. . P81 ...
ROW 0C : C#3 00 F ... ... ... : G#2 00 F ... ... ... : C-5 00 . ... : 7-# 00 F ... : ... .. . ... ... : C#3 01 7 ... ... : F#3 01 8 ... ... : C#2 01 F P80 ...
ROW 0D : ... .. E ... ... ... : ... .. E ... ... ... : D-4 00 . ... : ... .. C ... : ... .. . ... ... : ... .. 6 ... ... : ... .. 7 ... ... : ... .. D ... ...
ROW 0E : ... .. D ... ... ... : ... .. D ... ... ... : G-3 00 . ... : ... .. 6 ... : ... .. . ... ... : ... .. . ... ... : ... .. 6 ... ... : ... .. 8 ... ...
ROW 0F : ... .. A ... ... ... : ... .. A ... ... ... : F#3 00 . ... : ... .. 3 ... : ... .. . ... ... : ... .. . ... ... : ... .. 5 ... ... : ... .. . ... ...
ROW 10 : ... .. . ... ... ... : ... .. . ... ... ... : C#3 00 . ... : ... .. 2 ... : ... .. . ... ... : ... .. 5 ... ... : ... .. . ... ... : ... .. . ... ...
ROW 11 : ... .. . ... ... ... : ... .. . ... ... ... : --- .. . ... : ... .. 0 ... : ... .. . ... ... : ... .. . ... ... : ... .. 4 ... ... : --- .. . ... ...
ROW 12 : F#2 00 F ... ... ... : C#2 00 F ... ... ... : B-2 00 . ... : 3-# 00 F ... : ... .. . ... ... : D#3 01 7 ... ... : G#3 01 8 ... ... : B-1 01 F ... ...
ROW 13 : ... .. E ... ... ... : ... .. E ... ... ... : ... .. . ... : ... .. C ... : ... .. . ... ... : ... .. 6 ... ... : ... .. 7 ... ... : ... .. D ... ...
ROW 14 : ... .. D ... ... ... : ... .. D ... ... ... : ... .. . ... : ... .. 6 ... : ... .. . ... ... : ... .. . ... ... : ... .. 6 ... ... : ... .. 8 ... ...
ROW 15 : ... .. A ... ... ... : ... .. A ... ... ... : ... .. . ... : ... .. 3 ... : ... .. . ... ... : ... .. . ... ... : ... .. 5 ... ... : ... .. . ... ...
ROW 16 : ... .. . ... ... ... : ... .. . ... ... ... : ... .. . ... : ... .. 2 ... : ... .. . ... ... : ... .. 5 ... ... : ... .. . ... ... : ... .. . ... ...
ROW 17 : ... .. . ... ... ... : ... .. . ... ... ... : --- .. . ... : ... .. 0 ... : ... .. . ... ... : ... .. . ... ... : ... .. 4 ... ... : --- .. . P86 ...
ROW 18 : G#2 00 F ... ... ... : D#2 00 F ... ... ... : C#3 00 . ... : 1-# 00 F ... : ... .. . ... ... : D#2 01 7 ... ... : G#2 01 8 ... ... : C#2 01 F P80 ...
ROW 19 : ... .. E ... ... ... : ... .. E ... ... ... : ... .. . ... : ... .. C ... : ... .. . ... ... : ... .. 6 ... ... : ... .. 7 ... ... : ... .. D ... ...
ROW 1A : ... .. D ... ... ... : ... .. D ... ... ... : ... .. . ... : ... .. 6 ... : ... .. . ... ... : ... .. . ... ... : ... .. 6 ... ... : ... .. 8 ... ...
ROW 1B : ... .. A ... ... ... : ... .. A ... ... ... : ... .. . ... : ... .. 3 ... : ... .. . ... ... : ... .. . ... ... : ... .. 5 ... ... : ... .. . ... ...
ROW 1C : ... .. 2 ... ... ... : ... .. 2 ... ... ... : ... .. . ... : ... .. 2 ... : ... .. . ... ... : ... .. 5 ... ... : ... .. . ... ... : ... .. . ... ...
ROW 1D : ... .. . ... ... ... : ... .. . ... ... ... : --- .. . ... : ... .. 0 ... : ... .. . ... ... : ... .. . ... ... : ... .. 4 ... ... : --- .. . ... ...
ROW 1E : C#2 00 F ... ... ... : G#1 00 F ... ... ... : F#3 00 . ... : 6-# 00 F ... : ... .. . ... ... : G#3 01 7 ... ... : C#4 01 8 ... ... : F#2 01 F ... ...
ROW 1F : ... .. E ... ... ... : ... .. E ... ... ... : ... .. . ... : ... .. C ... : ... .. . ... ... : ... .. 6 ... ... : ... .. 7 ... ... : ... .. D ... ...
ROW 20 : ... .. D ... ... ... : ... .. D ... ... ... : ... .. . ... : ... .. 6 ... : ... .. . ... ... : ... .. . ... ... : ... .. 6 ... ... : ... .. 8 ... ...
ROW 21 : ... .. A ... ... ... : ... .. A ... ... ... : ... .. . ... : ... .. 3 ... : ... .. . ... ... : ... .. . ... ... : ... .. 5 ... ... : ... .. . ... ...
ROW 22 : ... .. . ... ... ... : ... .. . ... ... ... : ... .. . ... : ... .. 2 ... : ... .. . ... ... : ... .. 5 ... ... : ... .. . ... ... : ... .. . ... ...
ROW 23 : ... .. . ... ... ... : ... .. . ... ... ... : --- .. . ... : ... .. 0 ... : ... .. . ... ... : ... .. . ... ... : ... .. 4 ... ... : --- .. . P84 ...
ROW 24 : D#2 00 F ... ... ... : A#1 00 F ... ... ... : G#3 00 . ... : 2-# 00 F ... : ... .. . ... ... : A#3 01 7 ... ... : D#4 01 8 ... ... : G#2 01 F P80 ...
ROW 25 : ... .. E ... ... ... : ... .. E ... ... ... : ... .. . ... : ... .. C ... : ... .. . ... ... : ... .. 6 ... ... : ... .. 7 ... ... : ... .. D ... ...
ROW 26 : ... .. D ... ... ... : ... .. D ... ... ... : ... .. . ... : ... .. 6 ... : ... .. . ... ... : ... .. . ... ... : ... .. 6 ... ... : ... .. 8 ... ...
ROW 27 : ... .. A ... ... ... : ... .. A ... ... ... : ... .. . ... : ... .. 3 ... : ... .. . ... ... : ... .. . ... ... : ... .. 5 ... ... : ... .. . ... ...
ROW 28 : ... .. . ... ... ... : ... .. . ... ... ... : ... .. . ... : ... .. 2 ... : ... .. . ... ... : ... .. 5 ... ... : ... .. . ... ... : ... .. . ... ...
ROW 29 : ... .. . ... ... ... : ... .. . ... ... ... : --- .. . ... : ... .. 0 ... : ... .. . ... ... : ... .. . ... ... : ... .. 4 ... ... : --- .. . P7F ...
ROW 2A : B-1 00 F ... ... ... : F#1 00 F ... ... ... : B-3 00 . ... : 1-# 00 F ... : ... .. . ... ... : A#4 01 7 ... ... : D#5 01 8 ... ... : B-2 01 F P80 ...
ROW 2B : ... .. E ... ... ... : ... .. E ... ... ... : ... .. . ... : ... .. C ... : ... .. . ... ... : ... .. 6 ... ... : ... .. 7 ... ... : ... .. D ... ...
ROW 2C : ... .. D ... ... ... : ... .. D ... ... ... : ... .. . ... : ... .. 6 ... : ... .. . ... ... : ... .. . ... ... : ... .. 6 ... ... : ... .. 8 ... ...
ROW 2D : ... .. A ... ... ... : ... .. A ... ... ... : ... .. . ... : ... .. 3 ... : ... .. . ... ... : ... .. . ... ... : ... .. 5 ... ... : ... .. . ... ...
ROW 2E : ... .. 2 ... ... ... : ... .. 2 ... ... ... : ... .. . ... : ... .. 2 ... : ... .. . ... ... : ... .. 5 ... ... : ... .. . ... ... : ... .. . ... ...
ROW 2F : ... .. . ... ... ... : ... .. . ... ... ... : --- .. . ... : ... .. 0 ... : ... .. . ... ... : ... .. . ... ... : ... .. 4 ... ... : --- .. . P8B ...
ROW 30 : G#1 00 F ... ... ... : D#1 00 F ... ... ... : G-4 00 . ... : ... .. F ... : ... .. . ... ... : D#2 01 7 ... ... : G#2 01 8 ... ... : G#1 01 F P80 ...
ROW 31 : ... .. E ... ... ... : ... .. E ... ... ... : A-3 00 . ... : ... .. C ... : ... .. . ... ... : ... .. 6 ... ... : ... .. 7 ... ... : ... .. D ... ...
ROW 32 : ... .. D ... ... ... : ... .. D ... ... ... : D-3 00 . ... : ... .. 6 ... : ... .. . ... ... : ... .. . ... ... : ... .. 6 ... ... : ... .. 8 ... ...
ROW 33 : ... .. A ... ... ... : ... .. A ... ... ... : C#3 00 . ... : ... .. 3 ... : ... .. . ... ... : --- .. . P7B ... : --- .. . ... ... : ... .. . ... ...
ROW 34 : ... .. 2 ... ... ... : ... .. 2 ... ... ... : G#2 00 . ... : ... .. 2 ... : ... .. . ... ... : ... .. . ... ... : ... .. . ... ... : ... .. . ... ...
ROW 35 : ... .. . ... ... ... : ... .. . ... ... ... : --- .. . ... : ... .. 0 ... : ... .. . ... ... : ... .. . ... ... : ... .. . ... ... : --- .. . P7E ...
ROW 36 : ... .. F ... ... ... : ... .. F ... ... ... : G#2 00 . ... : ... .. F ... : ... .. . ... ... : D#2 01 7 P80 ... : G#2 01 8 ... ... : G#1 01 F P80 ...
ROW 37 : ... .. E ... ... ... : ... .. E ... ... ... : ... .. . ... : ... .. C ... : ... .. . ... ... : ... .. 6 ... ... : ... .. 7 ... ... : ... .. D ... ...
ROW 38 : ... .. D ... ... ... : ... .. D ... ... ... : ... .. . ... : ... .. 6 ... : ... .. . ... ... : ... .. . ... ... : ... .. 6 ... ... : ... .. 8 ... ...
ROW 39 : ... .. A ... ... ... : ... .. A ... ... ... : ... .. . ... : ... .. 3 ... : ... .. . ... ... : --- .. . P7B ... : --- .. . ... ... : ... .. . ... ...
ROW 3A : ... .. 2 ... ... ... : ... .. 2 ... ... ... : ... .. . ... : ... .. 2 ... : ... .. . ... ... : ... .. . ... ... : ... .. . ... ... : ... .. . ... ...
ROW 3B : ... .. . ... ... ... : ... .. . ... ... ... : --- .. . ... : ... .. 0 ... : ... .. . ... ... : ... .. . ... ... : ... .. . ... ... : --- .. . P7E ...
ROW 3C : ... .. F ... ... ... : ... .. F ... ... ... : G#2 00 . ... : ... .. F ... : ... .. . ... ... : D#2 01 7 P80 ... : G#2 01 8 ... ... : G#1 01 F P80 ...
ROW 3D : ... .. E ... ... ... : ... .. E ... ... ... : ... .. . ... : ... .. C ... : ... .. . ... ... : ... .. 6 ... ... : ... .. 7 ... ... : ... .. D ... ...
ROW 3E : ... .. D ... ... ... : ... .. D ... ... ... : ... .. . ... : ... .. 6 ... : ... .. . ... ... : ... .. . ... ... : ... .. 6 ... ... : ... .. 8 ... ...
ROW 3F : ... .. A ... ... ... : ... .. A ... ... ... : ... .. . ... : ... .. 3 ... : ... .. . ... ... : --- .. . P7B ... : --- .. . ... ... : ... .. . ... ...
ROW 40 : ... .. 2 ... ... ... : ... .. 2 ... ... ... : ... .. . ... : ... .. 2 ... : ... .. . ... ... : ... .. . ... ... : ... .. . ... ... : ... .. . ... ...
ROW 41 : ... .. . ... ... ... : ... .. . ... ... ... : --- .. . ... : ... .. 0 ... : ... .. . ... ... : ... .. . ... ... : ... .. . ... ... : --- .. . P7E ...
ROW 42 : C#3 00 F ... ... ... : G#2 00 F ... ... ... : C#4 00 . ... : B-# 00 F ... : ... .. . ... ... : F#4 01 9 P80 ... : B-4 01 A ... ... : C#3 01 F P80 ...
ROW 43 : ... .. E ... ... ... : ... .. E ... ... ... : ... .. . ... : ... .. . ... : ... .. . ... ... : ... .. 8 ... ... : ... .. 9 ... ... : ... .. D ... ...
ROW 44 : ... .. D ... ... ... : ... .. D ... ... ... : ... .. . ... : ... .. . ... : ... .. . ... ... : ... .. . ... ... : ... .. 8 ... ... : ... .. 8 ... ...
ROW 45 : ... .. A ... ... ... : ... .. A ... ... ... : ... .. . ... : ... .. D ... : ... .. . ... ... : ... .. . ... ... : ... .. 7 ... ... : ... .. . ... ...
ROW 46 : ... .. . ... ... ... : ... .. . ... ... ... : ... .. . ... : ... .. . ... : ... .. . ... ... : ... .. 7 ... ... : ... .. . ... ... : ... .. . ... ...
ROW 47 : ... .. . ... ... ... : ... .. . ... ... ... : ... .. . ... : ... .. . ... : ... .. . ... ... : ... .. . ... ... : ... .. 6 ... ... : ... .. . ... ...
ROW 48 : ... .. . ... ... ... : ... .. . ... ... ... : D-4 00 . P7B : ... .. C ... : ... .. . ... ... : ... .. . ... ... : ... .. . ... ... : ... .. . P87 ...
ROW 49 : ... .. . ... ... ... : ... .. . ... ... ... : ... .. . P7D : ... .. . ... : ... .. . ... ... : ... .. 6 ... ... : ... .. 5 ... ... : ... .. . P89 ...
ROW 4A : ... .. . ... ... ... : ... .. . ... ... ... : C#4 00 . P86 : ... .. . ... : ... .. . ... ... : ... .. . ... ... : ... .. . ... ... : ... .. . P86 ...
ROW 4B : D-3 00 A P88 ... ... : A-2 00 A ... ... ... : ... .. . P80 : ... .. A ... : ... .. . ... ... : ... .. . P83 ... : ... .. . P83 ... : ... .. . P80 ...
ROW 4C : D#3 00 A P7F ... ... : ... .. . P8C ... ... : C-4 00 . P85 : ... .. . ... : ... .. . ... ... : ... .. . P84 ... : C-5 01 5 P7E ... : ... .. . P79 ...
ROW 4D : D-3 00 A P84 ... ... : ... .. . P7C ... ... : ... .. . P83 : ... .. . ... : ... .. . ... ... : ... .. . P83 ... : B-4 01 5 P83 ... : ... .. . P77 ...
ROW 4E : C#3 00 A P80 ... ... : G#2 00 A P80 ... ... : ... .. . P86 : ... .. 9 ... : ... .. . ... ... : ... .. . P80 ... : ... .. . P80 ... : ... .. . P7A ...
ROW 4F : C-3 00 A P79 ... ... : G-2 00 A P81 ... ... : C#4 00 . P80 : ... .. . ... : ... .. . ... ... : ... .. . P7D ... : ... .. . P7D ... : ... .. . P80 ...
ROW 50 : B-2 00 A P86 ... ... : ... .. . P75 ... ... : D-4 00 . P7B : ... .. . ... : ... .. . ... ... : ... .. . P7C ... : A#4 01 5 P83 ... : ... .. . P87 ...
ROW 51 : C-3 00 A P7D ... ... : ... .. . P85 ... ... : ... .. . P7D : ... .. 8 ... : ... .. . ... ... : ... .. . P7D ... : B-4 01 5 P7D ... : ... .. . P89 ...
ROW 52 : C#3 00 2 P80 ... ... : G#2 00 2 P80 ... ... : C#4 00 . P86 : ... .. . ... : ... .. . ... ... : ... .. . P80 ... : ... .. . P80 ... : ... .. . P86 ...
ROW 53 : D-3 00 2 P88 ... ... : A-2 00 2 ... ... ... : ... .. . P80 : ... .. . ... : ... .. . ... ... : ... .. . P83 ... : ... .. . P83 ... : ... .. . P80 ...
ROW 54 : G#1 00 F P80 ... ... : D#1 00 F ... ... ... : G-4 00 . ... : 1-# 00 F ... : ... .. . ... ... : D#2 01 7 P80 ... : G#2 01 8 P80 ... : G#1 01 F ... ...
ROW 55 : ... .. E ... ... ... : ... .. E ... ... ... : A-3 00 . ... : ... .. C ... : ... .. . ... ... : ... .. 6 ... ... : ... .. 7 ... ... : ... .. D ... ...
ROW 56 : ... .. D ... ... ... : ... .. D ... ... ... : D-3 00 . ... : ... .. 6 ... : ... .. . ... ... : ... .. . ... ... : ... .. 6 ... ... : ... .. 8 ... ...
ROW 57 : ... .. A ... ... ... : ... .. A ... ... ... : C#3 00 . ... : ... .. 3 ... : ... .. . ... ... : --- .. . P7B ... : --- .. . ... ... : ... .. . ... ...
ROW 58 : ... .. 2 ... ... ... : ... .. 2 ... ... ... : G#2 00 . ... : ... .. 2 ... : ... .. . ... ... : ... .. . ... ... : ... .. . ... ... : ... .. . ... ...
ROW 59 : ... .. . ... ... ... : ... .. . ... ... ... : --- .. . ... : ... .. 0 ... : ... .. . ... ... : ... .. . ... ... : ... .. . ... ... : --- .. . P7E ...
ROW 5A : ... .. F ... ... ... : ... .. F ... ... ... : G#2 00 . ... : ... .. F ... : ... .. . ... ... : D#2 01 7 P80 ... : G#2 01 8 ... ... : G#1 01 F P80 ...
ROW 5B : ... .. E ... ... ... : ... .. E ... ... ... : ... .. . ... : ... .. C ... : ... .. . ... ... : ... .. 6 ... ... : ... .. 7 ... ... : ... .. D ... ...
ROW 5C : ... .. D ... ... ... : ... .. D ... ... ... : ... .. . ... : ... .. 6 ... : ... .. . ... ... : ... .. . ... ... : ... .. 6 ... ... : ... .. 8 ... ...
ROW 5D : ... .. A ... ... ... : ... .. A ... ... ... : ... .. . ... : ... .. 3 ... : ... .. . ... ... : --- .. . P7B ... : --- .. . ... ... : ... .. . ... ...
ROW 5E : ... .. 2 ... ... ... : ... .. 2 ... ... ... : ... .. . ... : ... .. 2 ... : ... .. . ... ... : ... .. . ... ... : ... .. . ... ... : ... .. . ... ...
ROW 5F : ... .. . ... ... ... : ... .. . ... ... ... : --- .. . ... : ... .. 0 ... : ... .. . ... ... : ... .. . ... ... : ... .. . ... ... : --- .. . P7E ...
ROW 60 : ... .. F ... ... ... : ... .. F ... ... ... : G#2 00 . ... : ... .. F ... : ... .. . ... ... : D#2 01 7 P80 ... : G#2 01 8 ... ... : G#1 01 F P80 ...
ROW 61 : ... .. E ... ... ... : ... .. E ... ... ... : ... .. . ... : ... .. C ... : ... .. . ... ... : ... .. 6 ... ... : ... .. 7 ... ... : ... .. D ... ...
ROW 62 : ... .. D ... ... ... : ... .. D ... ... ... : ... .. . ... : ... .. 6 ... : ... .. . ... ... : ... .. . ... ... : ... .. 6 ... ... : ... .. 8 ... ...
ROW 63 : ... .. A ... ... ... : ... .. A ... ... ... : ... .. . ... : ... .. 3 ... : ... .. . ... ... : --- .. . P7B ... : --- .. . ... ... : ... .. . ... ...
ROW 64 : ... .. 2 ... ... ... : ... .. 2 ... ... ... : ... .. . ... : ... .. 2 ... : ... .. . ... ... : ... .. . ... ... : ... .. . ... ... : ... .. . ... ...
ROW 65 : ... .. . ... ... ... : ... .. . ... ... ... : --- .. . ... : ... .. 0 ... : ... .. . ... ... : ... .. . ... ... : ... .. . ... ... : --- .. . P7E ...
ROW 66 : C#3 00 F ... ... ... : G#2 00 F ... ... ... : C#4 00 . ... : B-# 00 F ... : ... .. . ... ... : C#4 01 9 P80 ... : F#4 01 A ... ... : C#3 01 F P80 ...
ROW 67 : ... .. E ... ... ... : ... .. E ... ... ... : ... .. . ... : ... .. . ... : ... .. . ... ... : ... .. 8 ... ... : ... .. 9 ... ... : ... .. D ... ...
ROW 68 : ... .. D ... ... ... : ... .. D ... ... ... : ... .. . ... : ... .. . ... : ... .. . ... ... : ... .. . ... ... : ... .. 8 ... ... : ... .. 8 ... ...
ROW 69 : ... .. A ... ... ... : ... .. A ... ... ... : ... .. . ... : ... .. D ... : ... .. . ... ... : ... .. . ... ... : ... .. 7 ... ... : ... .. . ... ...
ROW 6A : ... .. . ... ... ... : ... .. . ... ... ... : ... .. . ... : ... .. . ... : ... .. . ... ... : ... .. 7 ... ... : ... .. . ... ... : ... .. . ... ...
ROW 6B : ... .. . ... ... ... : ... .. . ... ... ... : ... .. . ... : ... .. . ... : ... .. . ... ... : ... .. . ... ... : ... .. 6 ... ... : ... .. . ... ...
ROW 6C : D-3 00 A P88 ... ... : A-2 00 A ... ... ... : D-4 00 . P7B : ... .. C ... : ... .. . ... ... : ... .. . ... ... : ... .. . ... ... : ... .. . P87 ...
ROW 6D : D#3 00 A P7F ... ... : ... .. . P8C ... ... : ... .. . P7D : ... .. . ... : ... .. . ... ... : ... .. 6 ... ... : ... .. 5 ... ... : ... .. . P89 ...
ROW 6E : D-3 00 A P84 ... ... : ... .. . P7C ... ... : C#4 00 . P86 : ... .. . ... : ... .. . ... ... : ... .. . ... ... : ... .. . ... ... : ... .. . P86 ...
ROW 6F : C#3 00 A P80 ... ... : G#2 00 A P80 ... ... : ... .. . P80 : ... .. A ... : ... .. . ... ... : ... .. . P83 ... : ... .. . P83 ... : ... .. . P80 ...
ROW 70 : C-3 00 A P79 ... ... : G-2 00 A P81 ... ... : C-4 00 . P85 : ... .. . ... : ... .. . ... ... : ... .. . P84 ... : ... .. . P84 ... : ... .. . P79 ...
ROW 71 : B-2 00 A P86 ... ... : ... .. . P75 ... ... : ... .. . P83 : ... .. . ... : ... .. . ... ... : ... .. . P83 ... : ... .. . P83 ... : ... .. . P77 ...
ROW 72 : C-3 00 A P7D ... ... : ... .. . P85 ... ... : ... .. . P86 : ... .. 9 ... : ... .. . ... ... : ... .. . P80 ... : ... .. . P80 ... : ... .. . P7A ...
ROW 73 : C#3 00 A P80 ... ... : G#2 00 A P80 ... ... : C#4 00 . P80 : ... .. . ... : ... .. . ... ... : ... .. . P7D ... : ... .. . P7D ... : ... .. . P80 ...
ROW 74 : D-3 00 A P88 ... ... : A-2 00 A ... ... ... : D-4 00 . P7B : ... .. . ... : ... .. . ... ... : ... .. . P7C ... : ... .. . P7C ... : ... .. . P87 ...
ROW 75 : D#3 00 A P7F ... ... : ... .. . P8C ... ... : ... .. . P7D : ... .. 8 ... : ... .. . ... ... : ... .. . P7D ... : ... .. . P7D ... : ... .. . P89 ...
ROW 76 : D-3 00 2 P84 ... ... : ... .. 2 P7C ... ... : C#4 00 . P86 : ... .. . ... : ... .. . ... ... : ... .. . P80 ... : ... .. . P80 ... : ... .. . P86 ...
ROW 77 : C#3 00 2 P80 ... ... : G#2 00 2 P80 ... ... : ... .. . P80 : ... .. . ... : ... .. . ... ... : ... .. . P83 ... : ... .. . P83 ... : ... .. . P80 ...
ROW 78 : B-2 00 F ... ... ... : F#2 00 F ... ... ... : G-4 00 . ... : 1-# 00 F ... : ... .. . ... ... : D#3 01 7 P80 ... : G#3 01 8 P80 ... : G#1 01 F ... ...
ROW 79 : ... .. E ... ... ... : ... .. E ... ... ... : A-3 00 . ... : ... .. C ... : ... .. . ... ... : ... .. 6 ... ... : ... .. 7 ... ... : ... .. D ... ...
ROW 7A : ... .. D ... ... ... : ... .. D ... ... ... : D-3 00 . ... : ... .. 6 ... : ... .. . ... ... : ... .. . ... ... : ... .. 6 ... ... : ... .. 8 ... ...
ROW 7B : ... .. A ... ... ... : ... .. A ... ... ... : C#3 00 . ... : ... .. 3 ... : ... .. . ... ... : --- .. . P83 ... : --- .. . P82 ... : ... .. . ... ...
ROW 7C : ... .. 2 ... ... ... : ... .. 2 ... ... ... : G#2 00 . ... : ... .. 2 ... : ... .. . ... ... : ... .. . ... ... : ... .. . ... ... : ... .. . ... ...
ROW 7D : ... .. . ... ... ... : ... .. . ... ... ... : --- .. . ... : ... .. 0 ... : ... .. . ... ... : ... .. . ... ... : ... .. . ... ... : --- .. . P7E ...
ROW 7E : F#2 00 F ... ... ... : C#2 00 F ... ... ... : G#2 00 . ... : ... .. F ... : ... .. . ... ... : D#3 01 7 P80 ... : G#3 01 8 P80 ... : G#1 01 F P80 ...
ROW 7F : ... .. E ... ... ... : ... .. E ... ... ... : ... .. . ... : ... .. C ... : ... .. . ... ... : ... .. 6 ... ... : ... .. 7 ... ... : ... .. D ... ...
ROW 80 : ... .. D ... ... ... : ... .. D ... ... ... : ... .. . ... : ... .. 6 ... : ... .. . ... ... : ... .. . ... ... : ... .. 6 ... ... : ... .. 8 ... ...
ROW 81 : ... .. A ... ... ... : ... .. A ... ... ... : ... .. . ... : ... .. 3 ... : ... .. . ... ... : --- .. . P83 ... : --- .. . P82 ... : ... .. . ... ...
ROW 82 : ... .. 2 ... ... ... : ... .. 2 ... ... ... : ... .. . ... : ... .. 2 ... : ... .. . ... ... : ... .. . ... ... : ... .. . ... ... : ... .. . ... ...
ROW 83 : ... .. . ... ... ... : ... .. . ... ... ... : --- .. . ... : ... .. 0 ... : ... .. . ... ... : ... .. . ... ... : ... .. . ... ... : --- .. . P7E ...
ROW 84 : ... .. F ... ... ... : ... .. F ... ... ... : G#2 00 . ... : ... .. F ... : ... .. . ... ... : D#3 01 7 P80 ... : G#3 01 8 P80 ... : G#1 01 F P80 ...
ROW 85 : ... .. E ... ... ... : ... .. E ... ... ... : ... .. . ... : ... .. C ... : ... .. . ... ... : ... .. 6 ... ... : ... .. 7 ... ... : ... .. D ... ...
ROW 86 : ... .. D ... ... ... : ... .. D ... ... ... : ... .. . ... : ... .. 6 ... : ... .. . ... ... : ... .. . ... ... : ... .. 6 ... ... : ... .. 8 ... ...
ROW 87 : ... .. A ... ... ... : ... .. A ... ... ... : ... .. . ... : ... .. 3 ... : ... .. . ... ... : --- .. . P83 ... : --- .. . P82 ... : ... .. . ... ...
ROW 88 : ... .. 2 ... ... ... : ... .. 2 ... ... ... : ... .. . ... : ... .. 2 ... : ... .. . ... ... : ... .. . ... ... : ... .. . ... ... : ... .. . ... ...
ROW 89 : ... .. . ... ... ... : ... .. . ... ... ... : --- .. . ... : ... .. 0 ... : ... .. . ... ... : ... .. . ... ... : ... .. . ... ... : --- .. . P7E ...
ROW 8A : B-2 00 F ... ... ... : F#2 00 F ... ... ... : F#3 00 . ... : A-# 00 F ... : ... .. . ... ... : G#3 01 7 P80 ... : C#4 01 8 P80 ... : F#2 01 F P80 ...
ROW 8B : ... .. E ... ... ... : ... .. E ... ... ... : ... .. . ... : ... .. C ... : ... .. . ... ... : ... .. 6 ... ... : ... .. 7 ... ... : ... .. D ... ...
ROW 8C : ... .. D ... ... ... : ... .. D ... ... ... : ... .. . ... : ... .. 6 ... : ... .. . ... ... : ... .. . ... ... : ... .. 6 ... ... : ... .. 8 ... ...
ROW 8D : ... .. A ... ... ... : ... .. A ... ... ... : ... .. . ... : ... .. 3 ... : ... .. . ... ... : ... .. . ... ... : ... .. 5 ... ... : ... .. . ... ...
ROW 8E : ... .. . ... ... ... : ... .. . ... ... ... : ... .. . ... : ... .. 2 ... : ... .. . ... ... : ... .. 5 ... ... : ... .. . ... ... : ... .. . ... ...
ROW 8F : ... .. . ... ... ... : ... .. . ... ... ... : --- .. . ... : ... .. 0 ... : ... .. . ... ... : ... .. . ... ... : ... .. 4 ... ... : --- .. . P84 ...
ROW 90 : C#3 00 F ... ... ... : G#2 00 F ... ... ... : G#3 00 . ... : 5-# 00 F ... : ... .. . ... ... : A#3 01 7 ... ... : D#4 01 8 ... ... : G#2 01 F P80 ...
ROW 91 : ... .. E ... ... ... : ... .. E ... ... ... : ... .. . ... : ... .. C ... : ... .. . ... ... : ... .. 6 ... ... : ... .. 7 ... ... : ... .. D ... ...
ROW 92 : ... .. D ... ... ... : ... .. D ... ... ... : ... .. . ... : ... .. 6 ... : ... .. . ... ... : ... .. . ... ... : ... .. 6 ... ... : ... .. 8 ... ...
ROW 93 : ... .. A ... ... ... : ... .. A ... ... ... : ... .. . ... : ... .. 3 ... : ... .. . ... ... : ... .. . ... ... : ... .. 5 ... ... : ... .. . ... ...
ROW 94 : ... .. 2 ... ... ... : ... .. 2 ... ... ... : ... .. . ... : ... .. 2 ... : ... .. . ... ... : ... .. 5 ... ... : ... .. . ... ... : ... .. . ... ...
ROW 95 : ... .. . ... ... ... : ... .. . ... ... ... : --- .. . ... : ... .. 0 ... : ... .. . ... ... : ... .. . ... ... : ... .. 4 ... ... : --- .. . P7F ...
ROW 96 : G#2 00 F ... ... ... : D#2 00 F ... ... ... : B-3 00 . ... : 3-# 00 F ... : ... .. . ... ... : C#4 01 7 ... ... : F#4 01 8 ... ... : B-2 01 F P80 ...
ROW 97 : ... .. E ... ... ... : ... .. E ... ... ... : ... .. . ... : ... .. C ... : ... .. . ... ... : ... .. 6 ... ... : ... .. 7 ... ... : ... .. D ... ...
ROW 98 : ... .. D ... ... ... : ... .. D ... ... ... : ... .. . ... : ... .. 6 ... : ... .. . ... ... : ... .. . ... ... : ... .. 6 ... ... : ... .. 8 ... ...
ROW 99 : ... .. A ... ... ... : ... .. A ... ... ... : ... .. . ... : ... .. 3 ... : ... .. . ... ... : ... .. . ... ... : ... .. 5 ... ... : ... .. . ... ...
ROW 9A : ... .. 2 ... ... ... : ... .. 2 ... ... ... : ... .. . ... : ... .. 2 ... : ... .. . ... ... : ... .. 5 ... ... : ... .. . ... ... : ... .. . ... ...
ROW 9B : ... .. . ... ... ... : ... .. . ... ... ... : --- .. . ... : ... .. 0 ... : ... .. . ... ... : ... .. . ... ... : ... .. 4 ... ... : --- .. . P8B ...
ROW 9C : B-2 00 F ... ... ... : F#2 00 F ... ... ... : G-5 00 . ... : 8-# 00 F ... : ... .. . ... ... : F#3 01 7 ... ... : B-3 01 8 ... ... : G#2 01 F P80 ...
ROW 9D : ... .. E ... ... ... : ... .. E ... ... ... : A-4 00 . ... : ... .. C ... : ... .. . ... ... : ... .. 6 ... ... : ... .. 7 ... ... : ... .. D ... ...
ROW 9E : ... .. D ... ... ... : ... .. D ... ... ... : D-4 00 . ... : ... .. 6 ... : ... .. . ... ... : ... .. . ... ... : ... .. 6 ... ... : ... .. 8 ... ...
ROW 9F : ... .. A ... ... ... : ... .. A ... ... ... : C#4 00 . ... : ... .. 3 ... : ... .. . ... ... : ... .. . ... ... : ... .. 5 ... ... : ... .. . ... ...
ROW A0 : ... .. . ... ... ... : ... .. . ... ... ... : G#3 00 . ... : ... .. 2 ... : ... .. . ... ... : ... .. 5 ... ... : ... .. . ... ... : ... .. . ... ...
ROW A1 : ... .. . ... ... ... : ... .. . ... ... ... : --- .. . ... : ... .. 0 ... : ... .. . ... ... : ... .. . ... ... : ... .. 4 ... ... : --- .. . P7F ...
ROW A2 : F#2 00 F ... ... ... : C#2 00 F ... ... ... : F#3 00 . ... : 7-# 00 F ... : ... .. . ... ... : G#3 01 7 ... ... : C#4 01 8 ... ... : F#2 01 F P80 ...
ROW A3 : ... .. E ... ... ... : ... .. E ... ... ... : ... .. . ... : ... .. C ... : ... .. . ... ... : ... .. 6 ... ... : ... .. 7 ... ... : ... .. D ... ...
ROW A4 : ... .. D ... ... ... : ... .. D ... ... ... : ... .. . ... : ... .. 6 ... : ... .. . ... ... : ... .. . ... ... : ... .. 6 ... ... : ... .. 8 ... ...
ROW A5 : ... .. A ... ... ... : ... .. A ... ... ... : ... .. . ... : ... .. 3 ... : ... .. . ... ... : ... .. . ... ... : ... .. 5 ... ... : ... .. . ... ...
ROW A6 : ... .. 2 ... ... ... : ... .. 2 ... ... ... : ... .. . ... : ... .. 2 ... : ... .. . ... ... : ... .. 5 ... ... : ... .. . ... ... : ... .. . ... ...
ROW A7 : ... .. . ... ... ... : ... .. . ... ... ... : --- .. . ... : ... .. 0 ... : ... .. . ... ... : ... .. . ... ... : ... .. 4 ... ... : --- .. . P84 ...
ROW A8 : ... .. F ... ... ... : ... .. F ... ... ... : D#3 00 . ... : 6-# 00 F ... : ... .. . ... ... : C#3 01 7 ... ... : F#3 01 8 ... ... : D#2 01 F P80 ...
ROW A9 : ... .. E ... ... ... : ... .. E ... ... ... : ... .. . ... : ... .. C ... : ... .. . ... ... : ... .. 6 ... ... : ... .. 7 ... ... : ... .. D ... ...
ROW AA : ... .. D ... ... ... : ... .. D ... ... ... : ... .. . ... : ... .. 6 ... : ... .. . ... ... : ... .. . ... ... : ... .. 6 ... ... : ... .. 8 ... ...
ROW AB : ... .. A ... ... ... : ... .. A ... ... ... : ... .. . ... : ... .. 3 ... : ... .. . ... ... : ... .. . ... ... : ... .. 5 ... ... : ... .. . ... ...
ROW AC : ... .. 2 ... ... ... : ... .. 2 ... ... ... : ... .. . ... : ... .. 2 ... : ... .. . ... ... : ... .. 5 ... ... : ... .. . ... ... : ... .. . ... ...
ROW AD : ... .. . ... ... ... : ... .. . ... ... ... : --- .. . ... : ... .. 0 ... : ... .. . ... ... : ... .. . ... ... : ... .. 4 ... ... : --- .. . ... ...
ROW AE : B-2 00 F ... ... ... : F#2 00 F ... ... ... : C#3 00 . ... : 5-# 00 F ... : ... .. . ... ... : G#2 01 7 ... ... : C#3 01 8 ... ... : C#2 01 F ... ...
ROW AF : ... .. E ... ... ... : ... .. E ... ... ... : ... .. . ... : ... .. C ... : ... .. . ... ... : ... .. 6 ... ... : ... .. 7 ... ... : ... .. D ... ...
ROW B0 : ... .. D ... ... ... : ... .. D ... ... ... : ... .. . ... : ... .. 6 ... : ... .. . ... ... : ... .. . ... ... : ... .. 6 ... ... : ... .. 8 ... ...
ROW B1 : ... .. A ... ... ... : ... .. A ... ... ... : ... .. . ... : ... .. 3 ... : ... .. . ... ... : ... .. . ... ... : ... .. 5 ... ... : ... .. . ... ...
ROW B2 : ... .. . ... ... ... : ... .. . ... ... ... : ... .. . ... : ... .. 2 ... : ... .. . ... ... : ... .. 5 ... ... : ... .. . ... ... : ... .. . ... ...
ROW B3 : ... .. . ... ... ... : ... .. . ... ... ... : --- .. . ... : ... .. 0 ... : ... .. . ... ... : ... .. . ... ... : ... .. 4 ... ... : --- .. . ... ...
ROW B4 : C#3 00 F ... ... ... : G#2 00 F ... ... ... : B-2 00 . ... : 4-# 00 F ... : ... .. . ... ... : A#2 01 7 ... ... : D#3 01 8 ... ... : B-1 01 F ... ...
ROW B5 : ... .. E ... ... ... : ... .. E ... ... ... : ... .. . ... : ... .. C ... : ... .. . ... ... : ... .. 6 ... ... : ... .. 7 ... ... : ... .. D ... ...
ROW B6 : ... .. D ... ... ... : ... .. D ... ... ... : ... .. . ... : ... .. 6 ... : ... .. . ... ... : ... .. . ... ... : ... .. 6 ... ... : ... .. 8 ... ...
ROW B7 : ... .. A ... ... ... : ... .. A ... ... ... : ... .. . ... : ... .. 3 ... : ... .. . ... ... : ... .. . ... ... : ... .. 5 ... ... : ... .. . ... ...
ROW B8 : ... .. 2 ... ... ... : ... .. 2 ... ... ... : ... .. . ... : ... .. 2 ... : ... .. . ... ... : ... .. 5 ... ... : ... .. . ... ... : ... .. . ... ...
ROW B9 : ... .. . ... ... ... : ... .. . ... ... ... : --- .. . ... : ... .. 0 ... : ... .. . ... ... : ... .. . ... ... : ... .. 4 ... ... : --- .. . P86 ...
ROW BA : F#2 00 F ... ... ... : C#2 00 F ... ... ... : C#3 00 . ... : 3-# 00 F ... : ... .. . ... ... : D#2 01 7 ... ... : G#2 01 8 ... ... : C#2 01 F P80 ...
ROW BB : ... .. E ... ... ... : ... .. E ... ... ... : ... .. . ... : ... .. C ... : ... .. . ... ... : ... .. 6 ... ... : ... .. 7 ... ... : ... .. D ... ...
ROW BC : ... .. D ... ... ... : ... .. D ... ... ... : ... .. . ... : ... .. 6 ... : ... .. . ... ... : ... .. . ... ... : ... .. 6 ... ... : ... .. 8 ... ...
ROW BD : ... .. A ... ... ... : ... .. A ... ... ... : ... .. . ... : ... .. 3 ... : ... .. . ... ... : ... .. . ... ... : ... .. 5 ... ... : ... .. . ... ...
ROW BE : ... .. 2 ... ... ... : ... .. 2 ... ... ... : ... .. . ... : ... .. 2 ... : ... .. . ... ... : ... .. 5 ... ... : ... .. . ... ... : ... .. . ... ...
ROW BF : ... .. . ... ... ... : ... .. . ... ... ... : --- .. . ... : ... .. 0 ... : ... .. . ... ... : ... .. . ... ... : ... .. 4 ... ... : --- .. . ... ...
ROW C0 : G#1 00 F ... ... ... : D#1 00 F ... ... ... : G-4 00 . ... : 1-# 00 F ... : ... .. . ... ... : D#5 01 7 ... ... : G#5 01 8 ... ... : G#1 01 F ... ...
ROW C1 : ... .. E ... ... ... : ... .. E ... ... ... : A-3 00 . ... : ... .. C ... : ... .. . ... ... : ... .. 6 ... ... : ... .. 7 ... ... : ... .. D ... ...
ROW C2 : ... .. D ... ... ... : ... .. D ... ... ... : D-3 00 . ... : ... .. 6 ... : ... .. . ... ... : ... .. . ... ... : ... .. 6 ... ... : ... .. 8 ... ...
ROW C3 : ... .. A ... ... ... : ... .. A ... ... ... : C#3 00 . ... : ... .. 3 ... : ... .. . ... ... : ... .. . ... ... : ... .. 5 ... ... : ... .. . ... ...
ROW C4 : ... .. 2 ... ... ... : ... .. 2 ... ... ... : G#2 00 . ... : ... .. 2 ... : ... .. . ... ... : ... .. 5 ... ... : ... .. . ... ... : ... .. . ... ...
ROW C5 : ... .. . ... ... ... : ... .. . ... ... ... : --- .. . ... : ... .. 0 ... : ... .. . ... ... : ... .. . ... ... : ... .. 4 ... ... : --- .. . P7E ...
ROW C6 : ... .. F ... ... ... : ... .. F ... ... ... : G#2 00 . ... : D-# 00 F ... : ... .. . ... ... : D#3 01 7 ... ... : G#3 01 8 ... ... : G#1 01 F P80 ...
ROW C7 : ... .. E ... ... ... : ... .. E ... ... ... : ... .. . ... : ... .. C ... : ... .. . ... ... : ... .. 6 ... ... : ... .. 7 ... ... : ... .. D ... ...
ROW C8 : ... .. D ... ... ... : ... .. D ... ... ... : ... .. . ... : ... .. 6 ... : ... .. . ... ... : ... .. . ... ... : ... .. 6 ... ... : ... .. 8 ... ...
ROW C9 : ... .. A ... ... ... : ... .. A ... ... ... : ... .. . ... : ... .. 3 ... : ... .. . ... ... : ... .. . ... ... : ... .. 5 ... ... : ... .. . ... ...
ROW CA : ... .. 2 ... ... ... : ... .. 2 ... ... ... : ... .. . ... : ... .. 2 ... : ... .. . ... ... : ... .. 5 ... ... : ... .. . ... ... : ... .. . ... ...
ROW CB : ... .. . ... ... ... : ... .. . ... ... ... : --- .. . ... : ... .. 0 ... : ... .. . ... ... : ... .. . ... ... : ... .. 4 ... ... : --- .. . P7E ...
ROW CC : ... .. F ... ... ... : ... .. F ... ... ... : G#2 00 . ... : ... .. F ... : ... .. . ... ... : D#4 01 7 ... ... : G#4 01 8 ... ... : G#1 01 F P80 ...
ROW CD : ... .. E ... ... ... : ... .. E ... ... ... : ... .. . ... : ... .. C ... : ... .. . ... ... : ... .. 6 ... ... : ... .. 7 ... ... : ... .. D ... ...
ROW CE : ... .. D ... ... ... : ... .. D ... ... ... : ... .. . ... : ... .. 6 ... : ... .. . ... ... : ... .. . ... ... : ... .. 6 ... ... : ... .. 8 ... ...
ROW CF : ... .. A ... ... ... : ... .. A ... ... ... : ... .. . ... : ... .. 3 ... : ... .. . ... ... : ... .. . ... ... : ... .. 5 ... ... : ... .. . ... ...
ROW D0 : ... .. 2 ... ... ... : ... .. 2 ... ... ... : ... .. . ... : ... .. 2 ... : ... .. . ... ... : ... .. 5 ... ... : ... .. . ... ... : ... .. . ... ...
ROW D1 : ... .. . ... ... ... : ... .. . ... ... ... : --- .. . ... : ... .. 0 ... : ... .. . ... ... : ... .. . ... ... : ... .. 4 ... ... : --- .. . P7E ...
ROW D2 : B-3 00 F ... ... ... : F#3 00 F ... ... ... : B-2 00 . ... : 6-# 00 F ... : ... .. . ... ... : C#4 01 7 ... ... : F#4 01 8 ... ... : B-1 01 F P80 ...
ROW D3 : ... .. E ... ... ... : ... .. E ... ... ... : ... .. . ... : ... .. C ... : ... .. . ... ... : ... .. 6 ... ... : ... .. 7 ... ... : ... .. D ... ...
ROW D4 : ... .. D ... ... ... : ... .. D ... ... ... : ... .. . ... : ... .. 6 ... : ... .. . ... ... : ... .. . ... ... : ... .. 6 ... ... : ... .. 8 ... ...
ROW D5 : ... .. A ... ... ... : ... .. A ... ... ... : ... .. . ... : ... .. 3 ... : ... .. . ... ... : ... .. . ... ... : ... .. 5 ... ... : ... .. . ... ...
ROW D6 : ... .. . ... ... ... : ... .. . ... ... ... : ... .. . ... : ... .. 2 ... : ... .. . ... ... : ... .. 5 ... ... : ... .. . ... ... : ... .. . ... ...
ROW D7 : ... .. . ... ... ... : ... .. . ... ... ... : --- .. . ... : ... .. 0 ... : ... .. . ... ... : ... .. . ... ... : ... .. 4 ... ... : --- .. . P86 ...
ROW D8 : A#3 00 F ... ... ... : F-3 00 F ... ... ... : F#2 00 . ... : D-# 00 F ... : ... .. . ... ... : D#2 01 7 ... ... : G#2 01 8 ... ... : F#1 01 F P80 ...
ROW D9 : ... .. E ... ... ... : ... .. E ... ... ... : ... .. . ... : ... .. C ... : ... .. . ... ... : ... .. 6 ... ... : ... .. 7 ... ... : ... .. D ... ...
ROW DA : ... .. D ... ... ... : ... .. D ... ... ... : ... .. . ... : ... .. 6 ... : ... .. . ... ... : ... .. . ... ... : ... .. 6 ... ... : ... .. 8 ... ...
ROW DB : ... .. A ... ... ... : ... .. A ... ... ... : ... .. . ... : ... .. 3 ... : ... .. . ... ... : ... .. . ... ... : ... .. 5 ... ... : ... .. . ... ...
ROW DC : ... .. 2 ... ... ... : ... .. 2 ... ... ... : ... .. . ... : ... .. 2 ... : ... .. . ... ... : ... .. 5 ... ... : ... .. . ... ... : ... .. . ... ...
ROW DD : ... .. . ... ... ... : ... .. . ... ... ... : --- .. . ... : ... .. 0 ... : ... .. . ... ... : ... .. . ... ... : ... .. 4 ... ... : --- .. . P81 ...
ROW DE : F#2 00 F ... ... ... : C#2 00 F ... ... ... : G#2 00 . ... : ... .. F ... : ... .. . ... ... : C#3 01 7 ... ... : F#3 01 8 ... ... : G#1 01 F P80 ...
ROW DF : ... .. E ... ... ... : ... .. E ... ... ... : ... .. . ... : ... .. C ... : ... .. . ... ... : ... .. 6 ... ... : ... .. 7 ... ... : ... .. D ... ...
ROW E0 : ... .. D ... ... ... : ... .. D ... ... ... : ... .. . ... : ... .. 6 ... : ... .. . ... ... : ... .. . ... ... : ... .. 6 ... ... : ... .. 8 ... ...
ROW E1 : ... .. A ... ... ... : ... .. A ... ... ... : ... .. . ... : ... .. 3 ... : ... .. . ... ... : ... .. . ... ... : ... .. 5 ... ... : ... .. . ... ...
ROW E2 : ... .. 2 ... ... ... : ... .. 2 ... ... ... : ... .. . ... : ... .. 2 ... : ... .. . ... ... : ... .. 5 ... ... : ... .. . ... ... : ... .. . ... ...
ROW E3 : ... .. . ... ... ... : ... .. . ... ... ... : --- .. . ... : ... .. 0 ... : ... .. . ... ... : ... .. . ... ... : ... .. 4 ... ... : --- .. . P7E ...
ROW E4 : G#1 00 F ... ... ... : D#1 00 F ... ... ... : G-4 00 . ... : 1-# 00 F ... : ... .. . ... ... : F#3 01 7 ... ... : B-3 01 8 ... ... : G#1 01 F P80 ...
ROW E5 : ... .. E ... ... ... : ... .. E ... ... ... : A-3 00 . ... : ... .. C ... : ... .. . ... ... : ... .. 6 ... ... : ... .. 7 ... ... : ... .. D ... ...
ROW E6 : ... .. D ... ... ... : ... .. D ... ... ... : D-3 00 . ... : ... .. 6 ... : ... .. . ... ... : ... .. . ... ... : ... .. 6 ... ... : ... .. 8 ... ...
ROW E7 : ... .. A ... ... ... : ... .. A ... ... ... : C#3 00 . ... : ... .. 3 ... : ... .. . ... ... : ... .. . ... ... : ... .. 5 ... ... : ... .. . ... ...
ROW E8 : ... .. 2 ... ... ... : ... .. 2 ... ... ... : G#2 00 . ... : ... .. 2 ... : ... .. . ... ... : ... .. 5 ... ... : ... .. . ... ... : ... .. . ... ...
ROW E9 : ... .. . ... ... ... : ... .. . ... ... ... : --- .. . ... : ... .. 0 ... : ... .. . ... ... : ... .. . ... ... : ... .. 4 ... ... : --- .. . P7E ...
ROW EA : ... .. F ... ... ... : ... .. F ... ... ... : G#2 00 . ... : D-# 00 F ... : ... .. . ... ... : G#3 01 7 ... ... : C#4 01 8 ... ... : G#1 01 F P80 ...
ROW EB : ... .. E ... ... ... : ... .. E ... ... ... : ... .. . ... : ... .. C ... : ... .. . ... ... : ... .. 6 ... ... : ... .. 7 ... ... : ... .. D ... ...
ROW EC : ... .. D ... ... ... : ... .. D ... ... ... : ... .. . ... : ... .. 6 ... : ... .. . ... ... : ... .. . ... ... : ... .. 6 ... ... : ... .. 8 ... ...
ROW ED : ... .. A ... ... ... : ... .. A ... ... ... : ... .. . ... : ... .. 3 ... : ... .. . ... ... : ... .. . ... ... : ... .. 5 ... ... : ... .. . ... ...
ROW EE : ... .. 2 ... ... ... : ... .. 2 ... ... ... : ... .. . ... : ... .. 2 ... : ... .. . ... ... : ... .. 5 ... ... : ... .. . ... ... : ... .. . ... ...
ROW EF : ... .. . ... ... ... : ... .. . ... ... ... : --- .. . ... : ... .. 0 ... : ... .. . ... ... : ... .. . ... ... : ... .. 4 ... ... : --- .. . P7E ...
ROW F0 : ... .. F ... ... ... : ... .. F ... ... ... : G#2 00 . ... : ... .. F ... : ... .. . ... ... : F#2 01 7 ... ... : B-2 01 8 ... ... : G#1 01 F P80 ...
ROW F1 : ... .. E ... ... ... : ... .. E ... ... ... : ... .. . ... : ... .. C ... : ... .. . ... ... : ... .. 6 ... ... : ... .. 7 ... ... : ... .. D ... ...
ROW F2 : ... .. D ... ... ... : ... .. D ... ... ... : ... .. . ... : ... .. 6 ... : ... .. . ... ... : ... .. . ... ... : ... .. 6 ... ... : ... .. 8 ... ...
ROW F3 : ... .. A ... ... ... : ... .. A ... ... ... : ... .. . ... : ... .. 3 ... : ... .. . ... ... : ... .. . ... ... : ... .. 5 ... ... : ... .. . ... ...
ROW F4 : ... .. 2 ... ... ... : ... .. 2 ... ... ... : ... .. . ... : ... .. 2 ... : ... .. . ... ... : ... .. 5 ... ... : ... .. . ... ... : ... .. . ... ...
ROW F5 : ... .. . ... ... ... : ... .. . ... ... ... : --- .. . ... : ... .. 0 ... : ... .. . ... ... : ... .. . ... ... : ... .. 4 ... ... : --- .. . P7E ...
ROW F6 : F#3 00 F ... ... ... : C#3 00 F ... ... ... : C#3 00 . ... : 6-# 00 F ... : ... .. . ... ... : G#3 01 7 ... ... : C#4 01 8 ... ... : C#2 01 F P80 ...
ROW F7 : ... .. E ... ... ... : ... .. E ... ... ... : ... .. . ... : ... .. C ... : ... .. . ... ... : ... .. 6 ... ... : ... .. 7 ... ... : ... .. D ... ...
ROW F8 : ... .. D ... ... ... : ... .. D ... ... ... : ... .. . ... : ... .. 6 ... : ... .. . ... ... : ... .. . ... ... : ... .. 6 ... ... : ... .. 8 ... ...
ROW F9 : ... .. A ... ... ... : ... .. A ... ... ... : ... .. . ... : ... .. 3 ... : ... .. . ... ... : ... .. . ... ... : ... .. 5 ... ... : ... .. . ... ...
ROW FA : ... .. . ... ... ... : ... .. . ... ... ... : ... .. . ... : ... .. 2 ... : ... .. . ... ... : ... .. 5 ... ... : ... .. . ... ... : ... .. . ... ...
ROW FB : ... .. . ... ... ... : ... .. . ... ... ... : --- .. . ... : ... .. 0 ... : ... .. . ... ... : ... .. . ... ... : ... .. 4 ... ... : --- .. . ... ...
ROW FC : C#3 00 F ... ... ... : G#2 00 F ... ... ... : B-2 00 . ... : 1-# 00 F ... : ... .. . ... ... : A#3 01 7 ... ... : D#4 01 8 ... ... : B-1 01 F ... ...
ROW FD : ... .. E ... ... ... : ... .. E ... ... ... : ... .. . ... : ... .. C ... : ... .. . ... ... : ... .. 6 ... ... : ... .. 7 ... ... : ... .. D ... ...
ROW FE : ... .. D ... ... ... : ... .. D ... ... ... : ... .. . ... : ... .. 6 ... : ... .. . ... ... : ... .. . ... ... : ... .. 6 ... ... : ... .. 8 ... ...
ROW FF : ... .. A ... ... ... : ... .. A ... ... ... : ... .. . ... : ... .. 3 ... : ... .. . ... ... : ... .. . ... ... : ... .. 5 ... ... : ... .. . ... ...

PATTERN 19
ROW 00 : ... .. 2 ... ... ... : ... .. 2 ... ... ... : ... .. . ... : ... .. 2 ... : ... .. . ... ... : ... .. 5 ... ... : ... .. . ... ... : ... .. . ... ...
ROW 01 : ... .. . ... ... ... : ... .. . ... ... ... : --- .. . ... : ... .. 0 ... : ... .. . ... ... : ... .. . ... ... : ... .. 4 ... ... : --- .. . P86 ...
ROW 02 : F#1 00 F ... ... ... : C#1 00 F ... ... ... : F#2 00 . ... : 6-# 00 F ... : ... .. . ... ... : D#4 01 7 ... ... : G#4 01 8 ... ... : F#1 01 F P80 ...
ROW 03 : ... .. E ... ... ... : ... .. E ... ... ... : ... .. . ... : ... .. C ... : ... .. . ... ... : ... .. 6 ... ... : ... .. 7 ... ... : ... .. D ... ...
ROW 04 : ... .. D ... ... ... : ... .. D ... ... ... : ... .. . ... : ... .. 6 ... : ... .. . ... ... : ... .. . ... ... : ... .. 6 ... ... : ... .. 8 ... ...
ROW 05 : ... .. A ... ... ... : ... .. A ... ... ... : ... .. . ... : ... .. 3 ... : ... .. . ... ... : ... .. . ... ... : ... .. 5 ... ... : ... .. . ... ...
ROW 06 : ... .. . ... ... ... : ... .. . ... ... ... : ... .. . ... : ... .. 2 ... : ... .. . ... ... : ... .. 5 ... ... : ... .. . ... ... : ... .. . ... ...
ROW 07 : ... .. . ... ... ... : ... .. . ... ... ... : --- .. . ... : ... .. 0 ... : ... .. . ... ... : ... .. . ... ... : ... .. 4 ... ... : --- .. . P81 ...
ROW 08 : G#1 00 F ... ... ... : D#1 00 F ... ... ... : G-4 00 . ... : 1-# 00 F ... : ... .. . ... ... : D#3 01 7 ... ... : G#3 01 8 ... ... : G#1 01 F P80 ...
ROW 09 : ... .. E ... ... ... : ... .. E ... ... ... : A-3 00 . ... : ... .. C ... : ... .. . ... ... : ... .. 6 ... ... : ... .. 7 ... ... : ... .. D ... ...
ROW 0A : ... .. D ... ... ... : ... .. D ... ... ... : D-3 00 . ... : ... .. 6 ... : ... .. . ... ... : ... .. . ... ... : ... .. 6 ... ... : ... .. 8 ... ...
ROW 0B : ... .. A ... ... ... : ... .. A ... ... ... : C#3 00 . ... : ... .. 3 ... : ... .. . ... ... : ... .. . ... ... : ... .. 5 ... ... : ... .. . ... ...
ROW 0C : ... .. 2 ... ... ... : ... .. 2 ... ... ... : G#2 00 . ... : ... .. 2 ... : ... .. . ... ... : ... .. 5 ... ... : ... .. . ... ... : ... .. . ... ...
ROW 0D : ... .. . ... ... ... : ... .. . ... ... ... : --- .. . ... : ... .. 0 ... : ... .. . ... ... : ... .. . ... ... : ... .. 4 ... ... : --- .. . P7E ...
ROW 0E : ... .. F ... ... ... : ... .. F ... ... ... : G#2 00 . ... : D-# 00 F ... : ... .. . ... ... : C#3 01 7 ... ... : F#3 01 8 ... ... : G#1 01 F P80 ...
ROW 0F : ... .. E ... ... ... : ... .. E ... ... ... : ... .. . ... : ... .. C ... : ... .. . ... ... : ... .. 6 ... ... : ... .. 7 ... ... : ... .. D ... ...
ROW 10 : ... .. D ... ... ... : ... .. D ... ... ... : ... .. . ... : ... .. 6 ... : ... .. . ... ... : ... .. . ... ... : ... .. 6 ... ... : ... .. 8 ... ...
ROW 11 : ... .. A ... ... ... : ... .. A ... ... ... : ... .. . ... : ... .. 3 ... : ... .. . ... ... : ... .. . ... ... : ... .. 5 ... ... : ... .. . ... ...
ROW 12 : ... .. 2 ... ... ... : ... .. 2 ... ... ... : ... .. . ... : ... .. 2 ... : ... .. . ... ... : ... .. 5 ... ... : ... .. . ... ... : ... .. . ... ...
ROW 13 : ... .. . ... ... ... : ... .. . ... ... ... : --- .. . ... : ... .. 0 ... : ... .. . ... ... : ... .. . ... ... : ... .. 4 ... ... : --- .. . P7E ...
ROW 14 : ... .. F ... ... ... : ... .. F ... ... ... : G#2 00 . ... : ... .. F ... : ... .. . ... ... : D#3 01 7 ... ... : G#3 01 8 ... ... : G#1 01 F P80 ...
ROW 15 : ... .. E ... ... ... : ... .. E ... ... ... : ... .. . ... : ... .. C ... : ... .. . ... ... : ... .. 6 ... ... : ... .. 7 ... ... : ... .. D ... ...
ROW 16 : ... .. D ... ... ... : ... .. D ... ... ... : ... .. . ... : ... .. 6 ... : ... .. . ... ... : ... .. . ... ... : ... .. 6 ... ... : ... .. 8 ... ...
ROW 17 : ... .. A ... ... ... : ... .. A ... ... ... : ... .. . ... : ... .. 3 ... : ... .. . ... ... : ... .. . ... ... : ... .. 5 ... ... : ... .. . ... ...
ROW 18 : ... .. 2 ... ... ... : ... .. 2 ... ... ... : ... .. . ... : ... .. 2 ... : ... .. . ... ... : ... .. 5 ... ... : ... .. . ... ... : ... .. . ... ...
ROW 19 : ... .. . ... ... ... : ... .. . ... ... ... : --- .. . ... : ... .. 0 ... : ... .. . ... ... : ... .. . ... ... : ... .. 4 ... ... : --- .. . P7E ...
ROW 1A : E-3 00 F ... ... ... : B-2 00 F ... ... ... : E-4 00 . ... : 8-# 00 F ... : ... .. . ... ... : D#4 01 7 ... ... : G#4 01 8 ... ... : E-3 01 F P80 ...
ROW 1B : ... .. E ... ... ... : ... .. E ... ... ... : ... .. . ... : ... .. C ... : ... .. . ... ... : ... .. 6 ... ... : ... .. 7 ... ... : ... .. D ... ...
ROW 1C : ... .. D ... ... ... : ... .. D ... ... ... : ... .. . ... : ... .. 6 ... : ... .. . ... ... : ... .. . ... ... : ... .. 6 ... ... : ... .. 8 ... ...
ROW 1D : ... .. A ... ... ... : ... .. A ... ... ... : ... .. . ... : ... .. 3 ... : ... .. . ... ... : ... .. . ... ... : ... .. 5 ... ... : ... .. . ... ...
ROW 1E : ... .. . ... ... ... : ... .. . ... ... ... : ... .. . ... : ... .. 2 ... : ... .. . ... ... : ... .. 5 ... ... : ... .. . ... ... : ... .. . ... ...
ROW 1F : ... .. . ... ... ... : ... .. . ... ... ... : --- .. . ... : ... .. 0 ... : ... .. . ... ... : ... .. . ... ... : ... .. 4 ... ... : --- .. . P7D ...
ROW 20 : D#3 00 F ... ... ... : A#2 00 F ... ... ... : D#4 00 . ... : 4-# 00 F ... : ... .. . ... ... : D#2 01 7 ... ... : G#2 01 8 ... ... : D#3 01 F P80 ...
ROW 21 : ... .. E ... ... ... : ... .. E ... ... ... : ... .. . ... : ... .. C ... : ... .. . ... ... : ... .. 6 ... ... : ... .. 7 ... ... : ... .. D ... ...
ROW 22 : ... .. D ... ... ... : ... .. D ... ... ... : ... .. . ... : ... .. 6 ... : ... .. . ... ... : ... .. . ... ... : ... .. 6 ... ... : ... .. 8 ... ...
ROW 23 : ... .. A ... ... ... : ... .. A ... ... ... : ... .. . ... : ... .. 3 ... : ... .. . ... ... : ... .. . ... ... : ... .. 5 ... ... : ... .. . ... ...
ROW 24 : ... .. 2 ... ... ... : ... .. 2 ... ... ... : ... .. . ... : ... .. 2 ... : ... .. . ... ... : ... .. 5 ... ... : ... .. . ... ... : ... .. . ... ...
ROW 25 : ... .. . ... ... ... : ... .. . ... ... ... : --- .. . ... : ... .. 0 ... : ... .. . ... ... : ... .. . ... ... : ... .. 4 ... ... : --- .. . P7F ...
ROW 26 : G#1 00 F ... ... ... : D#1 00 F ... ... ... : G#2 00 . ... : 1-# 00 F ... : ... .. . ... ... : C#2 01 7 ... ... : F#2 01 8 ... ... : G#1 01 F P80 ...
ROW 27 : ... .. E ... ... ... : ... .. E ... ... ... : ... .. . ... : ... .. C ... : ... .. . ... ... : ... .. 6 ... ... : ... .. 7 ... ... : ... .. D ... ...
ROW 28 : ... .. D ... ... ... : ... .. D ... ... ... : ... .. . ... : ... .. 6 ... : ... .. . ... ... : ... .. . ... ... : ... .. 6 ... ... : ... .. 8 ... ...
ROW 29 : ... .. A ... ... ... : ... .. A ... ... ... : ... .. . ... : ... .. 3 ... : ... .. . ... ... : ... .. . ... ... : ... .. 5 ... ... : ... .. . ... ...
ROW 2A : ... .. 2 ... ... ... : ... .. 2 ... ... ... : ... .. . ... : ... .. 2 ... : ... .. . ... ... : ... .. 5 ... ... : ... .. . ... ... : ... .. . ... ...
ROW 2B : ... .. . ... ... ... : ... .. . ... ... ... : --- .. . ... : ... .. 0 ... : ... .. . ... ... : ... .. . ... ... : ... .. 4 ... ... : --- .. . P7E ...
ROW 2C : C#3 00 F ... ... ... : G#2 00 F ... ... ... : C-6 00 . ... : 7-# 00 F ... : ... .. . ... ... : C#3 01 7 ... ... : F#3 01 8 ... ... : C#3 01 F P80 ...
ROW 2D : ... .. E ... ... ... : ... .. E ... ... ... : D-5 00 . ... : ... .. C ... : ... .. . ... ... : ... .. 6 ... ... : ... .. 7 ... ... : ... .. D ... ...
ROW 2E : ... .. D ... ... ... : ... .. D ... ... ... : G-4 00 . ... : ... .. 6 ... : ... .. . ... ... : ... .. . ... ... : ... .. 6 ... ... : ... .. 8 ... ...
ROW 2F : ... .. A ... ... ... : ... .. A ... ... ... : F#4 00 . ... : ... .. 3 ... : ... .. . ... ... : ... .. . ... ... : ... .. 5 ... ... : ... .. . ... ...
ROW 30 : ... .. . ... ... ... : ... .. . ... ... ... : C#4 00 . ... : ... .. 2 ... : ... .. . ... ... : ... .. 5 ... ... : ... .. . ... ... : ... .. . ... ...
ROW 31 : ... .. . ... ... ... : ... .. . ... ... ... : --- .. . ... : ... .. 0 ... : ... .. . ... ... : ... .. . ... ... : ... .. 4 ... ... : --- .. . ... ...
ROW 32 : D#3 00 F ... ... ... : A#2 00 F ... ... ... : B-3 00 . ... : 3-# 00 F ... : ... .. . ... ... : D#3 01 7 ... ... : G#3 01 8 ... ... : B-2 01 F ... ...
ROW 33 : ... .. E ... ... ... : ... .. E ... ... ... : ... .. . ... : ... .. C ... : ... .. . ... ... : ... .. 6 ... ... : ... .. 7 ... ... : ... .. D ... ...
ROW 34 : ... .. D ... ... ... : ... .. D ... ... ... : ... .. . ... : ... .. 6 ... : ... .. . ... ... : ... .. . ... ... : ... .. 6 ... ... : ... .. 8 ... ...
ROW 35 : ... .. A ... ... ... : ... .. A ... ... ... : ... .. . ... : ... .. 3 ... : ... .. . ... ... : ... .. . ... ... : ... .. 5 ... ... : ... .. . ... ...
ROW 36 : ... .. 2 ... ... ... : ... .. 2 ... ... ... : ... .. . ... : ... .. 2 ... : ... .. . ... ... : ... .. 5 ... ... : ... .. . ... ... : ... .. . ... ...
ROW 37 : ... .. . ... ... ... : ... .. . ... ... ... : --- .. . ... : ... .. 0 ... : ... .. . ... ... : ... .. . ... ... : ... .. 4 ... ... : --- .. . P8B ...
ROW 38 : B-2 00 F ... ... ... : F#2 00 F ... ... ... : G#2 00 . ... : 1-# 00 F ... : ... .. . ... ... : D#2 01 7 ... ... : G#2 01 8 ... ... : G#1 01 F P80 ...
ROW 39 : ... .. E ... ... ... : ... .. E ... ... ... : ... .. . ... : ... .. C ... : ... .. . ... ... : ... .. 6 ... ... : ... .. 7 ... ... : ... .. D ... ...
ROW 3A : ... .. D ... ... ... : ... .. D ... ... ... : ... .. . ... : ... .. 6 ... : ... .. . ... ... : ... .. . ... ... : ... .. 6 ... ... : ... .. 8 ... ...
ROW 3B : ... .. A ... ... ... : ... .. A ... ... ... : ... .. . ... : ... .. 3 ... : ... .. . ... ... : ... .. . ... ... : ... .. 5 ... ... : ... .. . ... ...
ROW 3C : ... .. 2 ... ... ... : ... .. 2 ... ... ... : ... .. . ... : ... .. 2 ... : ... .. . ... ... : ... .. 5 ... ... : ... .. . ... ... : ... .. . ... ...
ROW 3D : ... .. . ... ... ... : ... .. . ... ... ... : --- .. . ... : ... .. 0 ... : ... .. . ... ... : ... .. . ... ... : ... .. 4 ... ... : --- .. . P7E ...
ROW 3E : C#3 00 F ... ... ... : G#2 00 F ... ... ... : F#3 00 . ... : 6-# 00 F ... : ... .. . ... ... : G#3 01 7 ... ... : C#4 01 8 ... ... : F#2 01 F P80 ...
ROW 3F : ... .. E ... ... ... : ... .. E ... ... ... : ... .. . ... : ... .. C ... : ... .. . ... ... : ... .. 6 ... ... : ... .. 7 ... ... : ... .. D ... ...
ROW 40 : ... .. D ... ... ... : ... .. D ... ... ... : ... .. . ... : ... .. 6 ... : ... .. . ... ... : ... .. . ... ... : ... .. 6 ... ... : ... .. 8 ... ...
ROW 41 : ... .. A ... ... ... : ... .. A ... ... ... : ... .. . ... : ... .. 3 ... : ... .. . ... ... : ... .. . ... ... : ... .. 5 ... ... : ... .. . ... ...
ROW 42 : ... .. . ... ... ... : ... .. . ... ... ... : ... .. . ... : ... .. 2 ... : ... .. . ... ... : ... .. 5 ... ... : ... .. . ... ... : ... .. . ... ...
ROW 43 : ... .. . ... ... ... : ... .. . ... ... ... : --- .. . ... : ... .. 0 ... : ... .. . ... ... : ... .. . ... ... : ... .. 4 ... ... : --- .. . P84 ...
ROW 44 : F#2 00 F ... ... ... : C#2 00 F ... ... ... : G#3 00 . ... : 2-# 00 F ... : ... .. . ... ... : A#3 01 7 ... ... : D#4 01 8 ... ... : G#2 01 F P80 ...
ROW 45 : ... .. E ... ... ... : ... .. E ... ... ... : ... .. . ... : ... .. C ... : ... .. . ... ... : ... .. 6 ... ... : ... .. 7 ... ... : ... .. D ... ...
ROW 46 : ... .. D ... ... ... : ... .. D ... ... ... : ... .. . ... : ... .. 6 ... : ... .. . ... ... : ... .. . ... ... : ... .. 6 ... ... : ... .. 8 ... ...
ROW 47 : ... .. A ... ... ... : ... .. A ... ... ... : ... .. . ... : ... .. 3 ... : ... .. . ... ... : ... .. . ... ... : ... .. 5 ... ... : ... .. . ... ...
ROW 48 : ... .. 2 ... ... ... : ... .. 2 ... ... ... : ... .. . ... : ... .. 2 ... : ... .. . ... ... : ... .. 5 ... ... : ... .. . ... ... : ... .. . ... ...
ROW 49 : ... .. . ... ... ... : ... .. . ... ... ... : --- .. . ... : ... .. 0 ... : ... .. . ... ... : ... .. . ... ... : ... .. 4 ... ... : --- .. . P7F ...
ROW 4A : G#2 00 F ... ... ... : D#2 00 F ... ... ... : B-2 00 . ... : 1-# 00 F ... : ... .. . ... ... : A#4 01 7 ... ... : D#5 01 8 ... ... : B-1 01 F P80 ...
ROW 4B : ... .. E ... ... ... : ... .. E ... ... ... : ... .. . ... : ... .. C ... : ... .. . ... ... : ... .. 6 ... ... : ... .. 7 ... ... : ... .. D ... ...
ROW 4C : ... .. D ... ... ... : ... .. D ... ... ... : ... .. . ... : ... .. 6 ... : ... .. . ... ... : ... .. . ... ... : ... .. 6 ... ... : ... .. 8 ... ...
ROW 4D : ... .. A ... ... ... : ... .. A ... ... ... : ... .. . ... : ... .. 3 ... : ... .. . ... ... : ... .. . ... ... : ... .. 5 ... ... : ... .. . ... ...
ROW 4E : ... .. 2 ... ... ... : ... .. 2 ... ... ... : ... .. . ... : ... .. 2 ... : ... .. . ... ... : ... .. 5 ... ... : ... .. . ... ... : ... .. . ... ...
ROW 4F : ... .. . ... ... ... : ... .. . ... ... ... : --- .. . ... : ... .. 0 ... : ... .. . ... ... : ... .. . ... ... : ... .. 4 ... ... : --- .. . P86 ...
ROW 50 : G#1 00 F ... ... ... : D#1 00 F ... ... ... : G-4 00 . ... : ... .. F ... : ... .. . ... ... : D#2 01 7 ... ... : G#2 01 8 ... ... : G#1 01 F P80 ...
ROW 51 : ... .. E ... ... ... : ... .. E ... ... ... : A-3 00 . ... : ... .. C ... : ... .. . ... ... : ... .. 6 ... ... : ... .. 7 ... ... : ... .. D ... ...
ROW 52 : ... .. D ... ... ... : ... .. D ... ... ... : D-3 00 . ... : ... .. 6 ... : ... .. . ... ... : ... .. . ... ... : ... .. 6 ... ... : ... .. 8 ... ...
ROW 53 : ... .. A ... ... ... : ... .. A ... ... ... : C#3 00 . ... : ... .. 3 ... : ... .. . ... ... : --- .. . P7B ... : --- .. . ... ... : ... .. . ... ...
ROW 54 : ... .. 2 ... ... ... : ... .. 2 ... ... ... : G#2 00 . ... : ... .. 2 ... : ... .. . ... ... : ... .. . ... ... : ... .. . ... ... : ... .. . ... ...
ROW 55 : ... .. . ... ... ... : ... .. . ... ... ... : --- .. . ... : ... .. 0 ... : ... .. . ... ... : ... .. . ... ... : ... .. . ... ... : --- .. . P7E ...
ROW 56 : ... .. F ... ... ... : ... .. F ... ... ... : G#2 00 . ... : ... .. F ... : ... .. . ... ... : D#2 01 7 P80 ... : G#2 01 8 ... ... : G#1 01 F P80 ...
ROW 57 : ... .. E ... ... ... : ... .. E ... ... ... : ... .. . ... : ... .. C ... : ... .. . ... ... : ... .. 6 ... ... : ... .. 7 ... ... : ... .. D ... ...
ROW 58 : ... .. D ... ... ... : ... .. D ... ... ... : ... .. . ... : ... .. 6 ... : ... .. . ... ... : ... .. . ... ... : ... .. 6 ... ... : ... .. 8 ... ...
ROW 59 : ... .. A ... ... ... : ... .. A ... ... ... : ... .. . ... : ... .. 3 ... : ... .. . ... ... : --- .. . P7B ... : --- .. . ... ... : ... .. . ... ...
ROW 5A : ... .. 2 ... ... ... : ... .. 2 ... ... ... : ... .. . ... : ... .. 2 ... : ... .. . ... ... : ... .. . ... ... : ... .. . ... ... : ... .. . ... ...
ROW 5B : ... .. . ... ... ... : ... .. . ... ... ... : --- .. . ... : ... .. 0 ... : ... .. . ... ... : ... .. . ... ... : ... .. . ... ... : --- .. . P7E ...
ROW 5C : ... .. F ... ... ... : ... .. F ... ... ... : G#2 00 . ... : ... .. F ... : ... .. . ... ... : D#2 01 7 P80 ... : G#2 01 8 ... ... : G#1 01 F P80 ...
ROW 5D : ... .. E ... ... ... : ... .. E ... ... ... : ... .. . ... : ... .. C ... : ... .. . ... ... : ... .. 6 ... ... : ... .. 7 ... ... : ... .. D ... ...
ROW 5E : ... .. D ... ... ... : ... .. D ... ... ... : ... .. . ... : ... .. 6 ... : ... .. . ... ... : ... .. . ... ... : ... .. 6 ... ... : ... .. 8 ... ...
ROW 5F : ... .. A ... ... ... : ... .. A ... ... ... : ... .. . ... : ... .. 3 ... : ... .. . ... ... : --- .. . P7B ... : --- .. . ... ... : ... .. . ... ...
ROW 60 : ... .. 2 ... ... ... : ... .. 2 ... ... ... : ... .. . ... : ... .. 2 ... : ... .. . ... ... : ... .. . ... ... : ... .. . ... ... : ... .. . ... ...
ROW 61 : ... .. . ... ... ... : ... .. . ... ... ... : --- .. . ... : ... .. 0 ... : ... .. . ... ... : ... .. . ... ... : ... .. . ... ... : --- .. . P7E ...
ROW 62 : F#4 00 F ... ... ... : C#4 00 F ... ... ... : D#4 00 . ... : B-# 00 F ... : ... .. . ... ... : F#4 01 9 P80 ... : B-4 01 A ... ... : D#3 01 F P80 ...
ROW 63 : ... .. E ... ... ... : ... .. E ... ... ... : ... .. . ... : ... .. . ... : ... .. . ... ... : ... .. 8 ... ... : ... .. 9 ... ... : ... .. D ... ...
ROW 64 : ... .. D ... ... ... : ... .. D ... ... ... : ... .. . ... : ... .. . ... : ... .. . ... ... : ... .. . ... ... : ... .. 8 ... ... : ... .. 8 ... ...
ROW 65 : ... .. A ... ... ... : ... .. A ... ... ... : ... .. . ... : ... .. D ... : ... .. . ... ... : ... .. . ... ... : ... .. 7 ... ... : ... .. . ... ...
ROW 66 : ... .. . ... ... ... : ... .. . ... ... ... : ... .. . ... : ... .. . ... : ... .. . ... ... : ... .. 7 ... ... : ... .. . ... ... : ... .. . ... ...
ROW 67 : ... .. . ... ... ... : ... .. . ... ... ... : ... .. . ... : ... .. . ... : ... .. . ... ... : ... .. . ... ... : ... .. 6 ... ... : ... .. . ... ...
ROW 68 : G-4 00 A P7F ... ... : D-4 00 A P7B ... ... : E-4 00 . P7D : ... .. C ... : ... .. . ... ... : ... .. . ... ... : ... .. . ... ... : ... .. . P87 ...
ROW 69 : ... .. . P81 ... ... : ... .. . P7D ... ... : ... .. . P7F : ... .. . ... : ... .. . ... ... : ... .. 6 ... ... : ... .. 5 ... ... : ... .. . P89 ...
ROW 6A : ... .. . P7E ... ... : C#4 00 A P86 ... ... : ... .. . P7C : ... .. . ... : ... .. . ... ... : ... .. . ... ... : ... .. . ... ... : ... .. . P86 ...
ROW 6B : F#4 00 A P80 ... ... : ... .. . P80 ... ... : D#4 00 . P80 : ... .. A ... : ... .. . ... ... : ... .. . P83 ... : ... .. . P83 ... : ... .. . P80 ...
ROW 6C : F-4 00 A P82 ... ... : C-4 00 A P85 ... ... : D-4 00 . P83 : ... .. . ... : ... .. . ... ... : ... .. . P84 ... : C-5 01 5 P7E ... : ... .. . P79 ...
ROW 6D : ... .. . P80 ... ... : ... .. . P83 ... ... : ... .. . P81 : ... .. . ... : ... .. . ... ... : ... .. . P83 ... : B-4 01 5 P83 ... : ... .. . P77 ...
ROW 6E : ... .. . P83 ... ... : ... .. . P86 ... ... : ... .. . P84 : ... .. 9 ... : ... .. . ... ... : ... .. . P80 ... : ... .. . P80 ... : ... .. . P7A ...
ROW 6F : F#4 00 A P80 ... ... : C#4 00 A P80 ... ... : D#4 00 . P80 : ... .. . ... : ... .. . ... ... : ... .. . P7D ... : ... .. . P7D ... : ... .. . P80 ...
ROW 70 : G-4 00 A P7F ... ... : D-4 00 A P7B ... ... : E-4 00 . P7D : ... .. . ... : ... .. . ... ... : ... .. . P7C ... : A#4 01 5 P83 ... : ... .. . P87 ...
ROW 71 : ... .. . P81 ... ... : ... .. . P7D ... ... : ... .. . P7F : ... .. 8 ... : ... .. . ... ... : ... .. . P7D ... : B-4 01 5 P7D ... : ... .. . P89 ...
ROW 72 : ... .. . P7E ... ... : C#4 00 A P86 ... ... : ... .. . P7C : ... .. . ... : ... .. . ... ... : ... .. . P80 ... : ... .. . P80 ... : ... .. . P86 ...
ROW 73 : F#4 00 A P80 ... ... : ... .. . P80 ... ... : D#4 00 . P80 : ... .. . ... : ... .. . ... ... : ... .. . P83 ... : ... .. . P83 ... : ... .. . P80 ...
ROW 74 : G#1 00 F ... ... ... : D#1 00 F ... ... ... : G-4 00 . ... : 1-# 00 F ... : ... .. . ... ... : D#2 01 7 P80 ... : G#2 01 8 P80 ... : G#1 01 F ... ...
ROW 75 : ... .. E ... ... ... : ... .. E ... ... ... : A-3 00 . ... : ... .. C ... : ... .. . ... ... : ... .. 6 ... ... : ... .. 7 ... ... : ... .. D ... ...
ROW 76 : ... .. D ... ... ... : ... .. D ... ... ... : D-3 00 . ... : ... .. 6 ... : ... .. . ... ... : ... .. . ... ... : ... .. 6 ... ... : ... .. 8 ... ...
ROW 77 : ... .. A ... ... ... : ... .. A ... ... ... : C#3 00 . ... : ... .. 3 ... : ... .. . ... ... : --- .. . P7B ... : --- .. . ... ... : ... .. . ... ...
ROW 78 : ... .. 2 ... ... ... : ... .. 2 ... ... ... : G#2 00 . ... : ... .. 2 ... : ... .. . ... ... : ... .. . ... ... : ... .. . ... ... : ... .. . ... ...
ROW 79 : ... .. . ... ... ... : ... .. . ... ... ... : --- .. . ... : ... .. 0 ... : ... .. . ... ... : ... .. . ... ... : ... .. . ... ... : --- .. . P7E ...
ROW 7A : ... .. F ... ... ... : ... .. F ... ... ... : G#2 00 . ... : ... .. F ... : ... .. . ... ... : D#2 01 7 P80 ... : G#2 01 8 ... ... : G#1 01 F P80 ...
ROW 7B : ... .. E ... ... ... : ... .. E ... ... ... : ... .. . ... : ... .. C ... : ... .. . ... ... : ... .. 6 ... ... : ... .. 7 ... ... : ... .. D ... ...
ROW 7C : ... .. D ... ... ... : ... .. D ... ... ... : ... .. . ... : ... .. 6 ... : ... .. . ... ... : ... .. . ... ... : ... .. 6 ... ... : ... .. 8 ... ...
ROW 7D : ... .. A ... ... ... : ... .. A ... ... ... : ... .. . ... : ... .. 3 ... : ... .. . ... ... : --- .. . P7B ... : --- .. . ... ... : ... .. . ... ...
ROW 7E : ... .. 2 ... ... ... : ... .. 2 ... ... ... : ... .. . ... : ... .. 2 ... : ... .. . ... ... : ... .. . ... ... : ... .. . ... ... : ... .. . ... ...
ROW 7F : ... .. . ... ... ... : ... .. . ... ... ... : --- .. . ... : ... .. 0 ... : ... .. . ... ... : ... .. . ... ... : ... .. . ... ... : --- .. . P7E ...
ROW 80 : ... .. F ... ... ... : ... .. F ... ... ... : G#2 00 . ... : ... .. F ... : ... .. . ... ... : D#2 01 7 P80 ... : G#2 01 8 ... ... : G#1 01 F P80 ...
ROW 81 : ... .. E ... ... ... : ... .. E ... ... ... : ... .. . ... : ... .. C ... : ... .. . ... ... : ... .. 6 ... ... : ... .. 7 ... ... : ... .. D ... ...
ROW 82 : ... .. D ... ... ... : ... .. D ... ... ... : ... .. . ... : ... .. 6 ... : ... .. . ... ... : ... .. . ... ... : ... .. 6 ... ... : ... .. 8 ... ...
ROW 83 : ... .. A ... ... ... : ... .. A ... ... ... : ... .. . ... : ... .. 3 ... : ... .. . ... ... : --- .. . P7B ... : --- .. . ... ... : ... .. . ... ...
ROW 84 : ... .. 2 ... ... ... : ... .. 2 ... ... ... : ... .. . ... : ... .. 2 ... : ... .. . ... ... : ... .. . ... ... : ... .. . ... ... : ... .. . ... ...
ROW 85 : ... .. . ... ... ... : ... .. . ... ... ... : --- .. . ... : ... .. 0 ... : ... .. . ... ... : ... .. . ... ... : ... .. . ... ... : --- .. . P7E ...
ROW 86 : E-4 00 F ... ... ... : B-3 00 F ... ... ... : C#4 00 . ... : B-# 00 F ... : ... .. . ... ... : D#4 01 9 P80 ... : F#4 01 A ... ... : C#3 01 F P80 ...
ROW 87 : ... .. E ... ... ... : ... .. E ... ... ... : ... .. . ... : ... .. . ... : ... .. . ... ... : ... .. 8 ... ... : ... .. 9 ... ... : ... .. D ... ...
ROW 88 : ... .. D ... ... ... : ... .. D ... ... ... : ... .. . ... : ... .. . ... : ... .. . ... ... : ... .. . ... ... : ... .. 8 ... ... : ... .. 8 ... ...
ROW 89 : ... .. A ... ... ... : ... .. A ... ... ... : ... .. . ... : ... .. D ... : ... .. . ... ... : ... .. . ... ... : ... .. 7 ... ... : ... .. . ... ...
ROW 8A : ... .. . ... ... ... : ... .. . ... ... ... : ... .. . ... : ... .. . ... : ... .. . ... ... : ... .. 7 ... ... : ... .. . ... ... : ... .. . ... ...
ROW 8B : ... .. . ... ... ... : ... .. . ... ... ... : ... .. . ... : ... .. . ... : ... .. . ... ... : ... .. . ... ... : ... .. 6 ... ... : ... .. . ... ...
ROW 8C : F-4 00 A P7D ... ... : C-4 00 A P7B ... ... : D-4 00 . P7B : ... .. C ... : ... .. . ... ... : ... .. . ... ... : ... .. . ... ... : ... .. . P87 ...
ROW 8D : ... .. . P7F ... ... : ... .. . P7D ... ... : ... .. . P7D : ... .. . ... : ... .. . ... ... : ... .. 6 ... ... : ... .. 5 ... ... : ... .. . P89 ...
ROW 8E : ... .. . P7C ... ... : B-3 00 A P86 ... ... : C#4 00 . P86 : ... .. . ... : ... .. . ... ... : ... .. . ... ... : ... .. . ... ... : ... .. . P86 ...
ROW 8F : E-4 00 A P80 ... ... : ... .. . P80 ... ... : ... .. . P80 : ... .. A ... : ... .. . ... ... : ... .. . P83 ... : ... .. . P83 ... : ... .. . P80 ...
ROW 90 : D#4 00 A P83 ... ... : A#3 00 A P87 ... ... : C-4 00 . P85 : ... .. . ... : ... .. . ... ... : ... .. . P84 ... : ... .. . P84 ... : ... .. . P79 ...
ROW 91 : ... .. . P81 ... ... : ... .. . P85 ... ... : ... .. . P83 : ... .. . ... : ... .. . ... ... : ... .. . P83 ... : ... .. . P83 ... : ... .. . P77 ...
ROW 92 : ... .. . P84 ... ... : B-3 00 A P7A ... ... : ... .. . P86 : ... .. 9 ... : ... .. . ... ... : ... .. . P80 ... : ... .. . P80 ... : ... .. . P7A ...
ROW 93 : E-4 00 A P80 ... ... : ... .. . P80 ... ... : C#4 00 . P80 : ... .. . ... : ... .. . ... ... : ... .. . P7D ... : ... .. . P7D ... : ... .. . P80 ...
ROW 94 : F-4 00 A P7D ... ... : C-4 00 A P7B ... ... : D-4 00 . P7B : ... .. . ... : ... .. . ... ... : ... .. . P7C ... : ... .. . P7C ... : ... .. . P87 ...
ROW 95 : ... .. . P7F ... ... : ... .. . P7D ... ... : ... .. . P7D : ... .. 8 ... : ... .. . ... ... : ... .. . P7D ... : ... .. . P7D ... : ... .. . P89 ...
ROW 96 : ... .. . P7C ... ... : B-3 00 A P86 ... ... : C#4 00 . P86 : ... .. . ... : ... .. . ... ... : ... .. . P80 ... : ... .. . P80 ... : ... .. . P86 ...
ROW 97 : E-4 00 A P80 ... ... : ... .. . P80 ... ... : ... .. . P80 : ... .. . ... : ... .. . ... ... : ... .. . P83 ... : ... .. . P83 ... : ... .. . P80 ...
ROW 98 : B-2 00 F ... ... ... : F#2 00 F ... ... ... : A#5 00 . ... : 1-# 00 F ... : ... .. . ... ... : D#3 01 7 P80 ... : G#3 01 8 P80 ... : B-2 01 F ... ...
ROW 99 : ... .. E ... ... ... : ... .. E ... ... ... : C-5 00 . ... : ... .. C ... : ... .. . ... ... : ... .. 6 ... ... : ... .. 7 ... ... : ... .. D ... ...
ROW 9A : ... .. D ... ... ... : ... .. D ... ... ... : F-4 00 . ... : ... .. 6 ... : ... .. . ... ... : ... .. . ... ... : ... .. 6 ... ... : ... .. 8 ... ...
ROW 9B : ... .. A ... ... ... : ... .. A ... ... ... : E-4 00 . ... : ... .. 3 ... : ... .. . ... ... : --- .. . P83 ... : --- .. . P82 ... : ... .. . ... ...
ROW 9C : ... .. 2 ... ... ... : ... .. 2 ... ... ... : B-3 00 . ... : ... .. 2 ... : ... .. . ... ... : ... .. . ... ... : ... .. . ... ... : ... .. . ... ...
ROW 9D : ... .. . ... ... ... : ... .. . ... ... ... : --- .. . ... : ... .. 0 ... : ... .. . ... ... : ... .. . ... ... : ... .. . ... ... : --- .. . P8B ...
ROW 9E : ... .. F ... ... ... : ... .. F ... ... ... : B-3 00 . ... : ... .. F ... : ... .. . ... ... : D#3 01 7 P80 ... : G#3 01 8 P80 ... : B-2 01 F P80 ...
ROW 9F : ... .. E ... ... ... : ... .. E ... ... ... : ... .. . ... : ... .. C ... : ... .. . ... ... : ... .. 6 ... ... : ... .. 7 ... ... : ... .. D ... ...
ROW A0 : ... .. D ... ... ... : ... .. D ... ... ... : ... .. . ... : ... .. 6 ... : ... .. . ... ... : ... .. . ... ... : ... .. 6 ... ... : ... .. 8 ... ...
ROW A1 : ... .. A ... ... ... : ... .. A ... ... ... : ... .. . ... : ... .. 3 ... : ... .. . ... ... : --- .. . P83 ... : --- .. . P82 ... : ... .. . ... ...
ROW A2 : ... .. 2 ... ... ... : ... .. 2 ... ... ... : ... .. . ... : ... .. 2 ... : ... .. . ... ... : ... .. . ... ... : ... .. . ... ... : ... .. . ... ...
ROW A3 : ... .. . ... ... ... : ... .. . ... ... ... : --- .. . ... : ... .. 0 ... : ... .. . ... ... : ... .. . ... ... : ... .. . ... ... : --- .. . P8B ...
ROW A4 : ... .. F ... ... ... : ... .. F ... ... ... : B-3 00 . ... : ... .. F ... : ... .. . ... ... : D#3 01 7 P80 ... : G#3 01 8 P80 ... : B-2 01 F P80 ...
ROW A5 : ... .. E ... ... ... : ... .. E ... ... ... : ... .. . ... : ... .. C ... : ... .. . ... ... : ... .. 6 ... ... : ... .. 7 ... ... : ... .. D ... ...
ROW A6 : ... .. D ... ... ... : ... .. D ... ... ... : ... .. . ... : ... .. 6 ... : ... .. . ... ... : ... .. . ... ... : ... .. 6 ... ... : ... .. 8 ... ...
ROW A7 : ... .. A ... ... ... : ... .. A ... ... ... : ... .. . ... : ... .. 3 ... : ... .. . ... ... : --- .. . P83 ... : --- .. . P82 ... : ... .. . ... ...
ROW A8 : ... .. 2 ... ... ... : ... .. 2 ... ... ... : ... .. . ... : ... .. 2 ... : ... .. . ... ... : ... .. . ... ... : ... .. . ... ... : ... .. . ... ...
ROW A9 : ... .. . ... ... ... : ... .. . ... ... ... : --- .. . ... : ... .. 0 ... : ... .. . ... ... : ... .. . ... ... : ... .. . ... ... : --- .. . P8B ...
ROW AA : F#2 00 F ... ... ... : C#2 00 F ... ... ... : F#3 00 . ... : A-# 00 F ... : ... .. . ... ... : G#3 01 7 P80 ... : C#4 01 8 P80 ... : F#2 01 F P80 ...
ROW AB : ... .. E ... ... ... : ... .. E ... ... ... : ... .. . ... : ... .. C ... : ... .. . ... ... : ... .. 6 ... ... : ... .. 7 ... ... : ... .. D ... ...
ROW AC : ... .. D ... ... ... : ... .. D ... ... ... : ... .. . ... : ... .. 6 ... : ... .. . ... ... : ... .. . ... ... : ... .. 6 ... ... : ... .. 8 ... ...
ROW AD : ... .. A ... ... ... : ... .. A ... ... ... : ... .. . ... : ... .. 3 ... : ... .. . ... ... : ... .. . ... ... : ... .. 5 ... ... : ... .. . ... ...
ROW AE : ... .. 2 ... ... ... : ... .. 2 ... ... ... : ... .. . ... : ... .. 2 ... : ... .. . ... ... : ... .. 5 ... ... : ... .. . ... ... : ... .. . ... ...
ROW AF : ... .. . ... ... ... : ... .. . ... ... ... : --- .. . ... : ... .. 0 ... : ... .. . ... ... : ... .. . ... ... : ... .. 4 ... ... : --- .. . P84 ...
ROW B0 : ... .. F ... ... ... : ... .. F ... ... ... : F#3 00 . ... : 5-# 00 F ... : ... .. . ... ... : A#3 01 7 ... ... : D#4 01 8 ... ... : F#2 01 F P80 ...
ROW B1 : ... .. E ... ... ... : ... .. E ... ... ... : ... .. . ... : ... .. C ... : ... .. . ... ... : ... .. 6 ... ... : ... .. 7 ... ... : ... .. D ... ...
ROW B2 : ... .. D ... ... ... : ... .. D ... ... ... : ... .. . ... : ... .. 6 ... : ... .. . ... ... : ... .. . ... ... : ... .. 6 ... ... : ... .. 8 ... ...
ROW B3 : ... .. A ... ... ... : ... .. A ... ... ... : ... .. . ... : ... .. 3 ... : ... .. . ... ... : ... .. . ... ... : ... .. 5 ... ... : ... .. . ... ...
ROW B4 : ... .. 2 ... ... ... : ... .. 2 ... ... ... : ... .. . ... : ... .. 2 ... : ... .. . ... ... : ... .. 5 ... ... : ... .. . ... ... : ... .. . ... ...
ROW B5 : ... .. . ... ... ... : ... .. . ... ... ... : --- .. . ... : ... .. 0 ... : ... .. . ... ... : ... .. . ... ... : ... .. 4 ... ... : --- .. . P84 ...
ROW B6 : ... .. F ... ... ... : ... .. F ... ... ... : F#3 00 . ... : 3-# 00 F ... : ... .. . ... ... : C#4 01 7 ... ... : F#4 01 8 ... ... : F#2 01 F P80 ...
ROW B7 : ... .. E ... ... ... : ... .. E ... ... ... : ... .. . ... : ... .. C ... : ... .. . ... ... : ... .. 6 ... ... : ... .. 7 ... ... : ... .. D ... ...
ROW B8 : ... .. D ... ... ... : ... .. D ... ... ... : ... .. . ... : ... .. 6 ... : ... .. . ... ... : ... .. . ... ... : ... .. 6 ... ... : ... .. 8 ... ...
ROW B9 : ... .. A ... ... ... : ... .. A ... ... ... : ... .. . ... : ... .. 3 ... : ... .. . ... ... : ... .. . ... ... : ... .. 5 ... ... : ... .. . ... ...
ROW BA : ... .. 2 ... ... ... : ... .. 2 ... ... ... : ... .. . ... : ... .. 2 ... : ... .. . ... ... : ... .. 5 ... ... : ... .. . ... ... : ... .. . ... ...
ROW BB : ... .. . ... ... ... : ... .. . ... ... ... : --- .. . ... : ... .. 0 ... : ... .. . ... ... : ... .. . ... ... : ... .. 4 ... ... : --- .. . P84 ...
ROW BC : C#2 00 F ... ... ... : G#1 00 F ... ... ... : C-5 00 . ... : 8-# 00 F ... : ... .. . ... ... : F#3 01 7 ... ... : B-3 01 8 ... ... : C#2 01 F P80 ...
ROW BD : ... .. E ... ... ... : ... .. E ... ... ... : D-4 00 . ... : ... .. C ... : ... .. . ... ... : ... .. 6 ... ... : ... .. 7 ... ... : ... .. D ... ...
ROW BE : ... .. D ... ... ... : ... .. D ... ... ... : G-3 00 . ... : ... .. 6 ... : ... .. . ... ... : ... .. . ... ... : ... .. 6 ... ... : ... .. 8 ... ...
ROW BF : ... .. A ... ... ... : ... .. A ... ... ... : F#3 00 . ... : ... .. 3 ... : ... .. . ... ... : ... .. . ... ... : ... .. 5 ... ... : ... .. . ... ...
ROW C0 : ... .. 2 ... ... ... : ... .. 2 ... ... ... : C#3 00 . ... : ... .. 2 ... : ... .. . ... ... : ... .. 5 ... ... : ... .. . ... ... : ... .. . ... ...
ROW C1 : ... .. . ... ... ... : ... .. . ... ... ... : --- .. . ... : ... .. 0 ... : ... .. . ... ... : ... .. . ... ... : ... .. 4 ... ... : --- .. . ... ...
ROW C2 : ... .. F ... ... ... : ... .. F ... ... ... : C#3 00 . ... : 7-# 00 F ... : ... .. . ... ... : G#3 01 7 ... ... : C#4 01 8 ... ... : C#2 01 F ... ...
ROW C3 : ... .. E ... ... ... : ... .. E ... ... ... : ... .. . ... : ... .. C ... : ... .. . ... ... : ... .. 6 ... ... : ... .. 7 ... ... : ... .. D ... ...
ROW C4 : ... .. D ... ... ... : ... .. D ... ... ... : ... .. . ... : ... .. 6 ... : ... .. . ... ... : ... .. . ... ... : ... .. 6 ... ... : ... .. 8 ... ...
ROW C5 : ... .. A ... ... ... : ... .. A ... ... ... : ... .. . ... : ... .. 3 ... : ... .. . ... ... : ... .. . ... ... : ... .. 5 ... ... : ... .. . ... ...
ROW C6 : ... .. 2 ... ... ... : ... .. 2 ... ... ... : ... .. . ... : ... .. 2 ... : ... .. . ... ... : ... .. 5 ... ... : ... .. . ... ... : ... .. . ... ...
ROW C7 : ... .. . ... ... ... : ... .. . ... ... ... : --- .. . ... : ... .. 0 ... : ... .. . ... ... : ... .. . ... ... : ... .. 4 ... ... : --- .. . ... ...
ROW C8 : ... .. F ... ... ... : ... .. F ... ... ... : C#3 00 . ... : 6-# 00 F ... : ... .. . ... ... : C#3 01 7 ... ... : F#3 01 8 ... ... : C#2 01 F ... ...
ROW C9 : ... .. E ... ... ... : ... .. E ... ... ... : ... .. . ... : ... .. C ... : ... .. . ... ... : ... .. 6 ... ... : ... .. 7 ... ... : ... .. D ... ...
ROW CA : ... .. D ... ... ... : ... .. D ... ... ... : ... .. . ... : ... .. 6 ... : ... .. . ... ... : ... .. . ... ... : ... .. 6 ... ... : ... .. 8 ... ...
ROW CB : ... .. A ... ... ... : ... .. A ... ... ... : ... .. . ... : ... .. 3 ... : ... .. . ... ... : ... .. . ... ... : ... .. 5 ... ... : ... .. . ... ...
ROW CC : ... .. 2 ... ... ... : ... .. 2 ... ... ... : ... .. . ... : ... .. 2 ... : ... .. . ... ... : ... .. 5 ... ... : ... .. . ... ... : ... .. . ... ...
ROW CD : ... .. . ... ... ... : ... .. . ... ... ... : --- .. . ... : ... .. 0 ... : ... .. . ... ... : ... .. . ... ... : ... .. 4 ... ... : --- .. . ... ...
ROW CE : F#1 00 F ... ... ... : C#1 00 F ... ... ... : F#2 00 . ... : 5-# 00 F ... : ... .. . ... ... : G#2 01 7 ... ... : C#3 01 8 ... ... : F#1 01 F ... ...
ROW CF : ... .. E ... ... ... : ... .. E ... ... ... : ... .. . ... : ... .. C ... : ... .. . ... ... : ... .. 6 ... ... : ... .. 7 ... ... : ... .. D ... ...
ROW D0 : ... .. D ... ... ... : ... .. D ... ... ... : ... .. . ... : ... .. 6 ... : ... .. . ... ... : ... .. . ... ... : ... .. 6 ... ... : ... .. 8 ... ...
ROW D1 : ... .. A ... ... ... : ... .. A ... ... ... : ... .. . ... : ... .. 3 ... : ... .. . ... ... : ... .. . ... ... : ... .. 5 ... ... : ... .. . ... ...
ROW D2 : ... .. 2 ... ... ... : ... .. 2 ... ... ... : ... .. . ... : ... .. 2 ... : ... .. . ... ... : ... .. 5 ... ... : ... .. . ... ... : ... .. . ... ...
ROW D3 : ... .. . ... ... ... : ... .. . ... ... ... : --- .. . ... : ... .. 0 ... : ... .. . ... ... : ... .. . ... ... : ... .. 4 ... ... : --- .. . P81 ...
ROW D4 : ... .. F ... ... ... : ... .. F ... ... ... : F#2 00 . ... : 4-# 00 F ... : ... .. . ... ... : A#2 01 7 ... ... : D#3 01 8 ... ... : F#1 01 F P80 ...
ROW D5 : ... .. E ... ... ... : ... .. E ... ... ... : ... .. . ... : ... .. C ... : ... .. . ... ... : ... .. 6 ... ... : ... .. 7 ... ... : ... .. D ... ...
ROW D6 : ... .. D ... ... ... : ... .. D ... ... ... : ... .. . ... : ... .. 6 ... : ... .. . ... ... : ... .. . ... ... : ... .. 6 ... ... : ... .. 8 ... ...
ROW D7 : ... .. A ... ... ... : ... .. A ... ... ... : ... .. . ... : ... .. 3 ... : ... .. . ... ... : ... .. . ... ... : ... .. 5 ... ... : ... .. . ... ...
ROW D8 : ... .. 2 ... ... ... : ... .. 2 ... ... ... : ... .. . ... : ... .. 2 ... : ... .. . ... ... : ... .. 5 ... ... : ... .. . ... ... : ... .. . ... ...
ROW D9 : ... .. . ... ... ... : ... .. . ... ... ... : --- .. . ... : ... .. 0 ... : ... .. . ... ... : ... .. . ... ... : ... .. 4 ... ... : --- .. . P81 ...
ROW DA : ... .. F ... ... ... : ... .. F ... ... ... : F#2 00 . ... : 3-# 00 F ... : ... .. . ... ... : D#2 01 7 ... ... : G#2 01 8 ... ... : F#1 01 F P80 ...
ROW DB : ... .. E ... ... ... : ... .. E ... ... ... : ... .. . ... : ... .. C ... : ... .. . ... ... : ... .. 6 ... ... : ... .. 7 ... ... : ... .. D ... ...
ROW DC : ... .. D ... ... ... : ... .. D ... ... ... : ... .. . ... : ... .. 6 ... : ... .. . ... ... : ... .. . ... ... : ... .. 6 ... ... : ... .. 8 ... ...
ROW DD : ... .. A ... ... ... : ... .. A ... ... ... : ... .. . ... : ... .. 3 ... : ... .. . ... ... : ... .. . ... ... : ... .. 5 ... ... : ... .. . ... ...
ROW DE : ... .. 2 ... ... ... : ... .. 2 ... ... ... : ... .. . ... : ... .. 2 ... : ... .. . ... ... : ... .. 5 ... ... : ... .. . ... ... : ... .. . ... ...
ROW DF : ... .. . ... ... ... : ... .. . ... ... ... : --- .. . ... : ... .. 0 ... : ... .. . ... ... : ... .. . ... ... : ... .. 4 ... ... : --- .. . P81 ...
ROW E0 : G#3 00 F ... ... ... : G#2 00 F ... ... ... : D#4 00 . ... : 1-# 00 F ... : ... .. . ... ... : B-2 01 8 ... V03 : G#3 01 8 ... ... : E-1 01 F P80 ...
ROW E1 : ... .. E ... ... ... : ... .. E ... ... ... : F-3 00 . ... : ... .. C ... : ... .. . ... ... : ... .. 7 ... ... : ... .. 7 ... ... : ... .. D ... ...
ROW E2 : ... .. D ... ... ... : ... .. D ... ... ... : A#2 00 . ... : ... .. 6 ... : ... .. . ... ... : ... .. 6 ... ... : ... .. 6 ... ... : ... .. 8 ... ...
ROW E3 : ... .. A ... ... ... : ... .. A ... ... ... : A-2 00 . ... : ... .. 3 ... : ... .. . ... ... : ... .. 5 ... ... : ... .. 5 ... ... : ... .. . ... ...
ROW E4 : ... .. . ... ... ... : ... .. 2 ... ... ... : E-2 00 . ... : ... .. 2 ... : ... .. . ... ... : ... .. . ... ... : ... .. . ... ... : ... .. . ... ...
ROW E5 : ... .. . ... ... ... : ... .. . ... ... ... : --- .. . ... : ... .. 0 ... : ... .. . ... ... : ... .. 4 ... ... : ... .. 4 ... ... : --- .. . P82 ...
ROW E6 : D#4 00 F ... ... ... : ... .. F ... ... ... : E-2 00 . ... : D-# 00 F ... : ... .. . ... ... : A#2 01 8 ... V00 : D#3 01 8 ... ... : E-1 01 F P80 ...
ROW E7 : ... .. E ... ... ... : ... .. E ... ... ... : ... .. . ... : ... .. C ... : ... .. . ... ... : ... .. 7 ... ... : ... .. 7 ... ... : ... .. D ... ...
ROW E8 : ... .. D ... ... ... : ... .. D ... ... ... : ... .. . ... : ... .. 6 ... : ... .. . ... ... : ... .. . ... ... : ... .. 6 ... ... : ... .. 8 ... ...
ROW E9 : ... .. A ... ... ... : ... .. A ... ... ... : ... .. . ... : ... .. 3 ... : ... .. . ... ... : ... .. 6 ... ... : ... .. 5 ... ... : ... .. . ... ...
ROW EA : ... .. . ... ... ... : ... .. 2 ... ... ... : ... .. . ... : ... .. 2 ... : ... .. . ... ... : ... .. 5 ... ... : ... .. . ... ... : ... .. . ... ...
ROW EB : ... .. . ... ... ... : ... .. . ... ... ... : --- .. . ... : ... .. 0 ... : ... .. . ... ... : ... .. . ... ... : ... .. 4 ... ... : --- .. . P82 ...
ROW EC : C#4 00 F ... ... ... : ... .. F ... ... ... : E-2 00 . ... : ... .. F ... : ... .. . ... ... : B-2 01 7 ... V05 : B-2 01 8 ... ... : E-1 01 F P80 ...
ROW ED : ... .. E ... ... ... : ... .. E ... ... ... : ... .. . ... : ... .. C ... : ... .. . ... ... : ... .. 6 ... ... : ... .. 7 ... ... : ... .. D ... ...
ROW EE : ... .. D ... ... ... : ... .. D ... ... ... : ... .. . ... : ... .. 6 ... : ... .. . ... ... : ... .. . ... ... : ... .. 6 ... ... : ... .. 8 ... ...
ROW EF : ... .. A ... ... ... : ... .. A ... ... ... : ... .. . ... : ... .. 3 ... : ... .. . ... ... : ... .. 5 ... ... : ... .. 5 ... ... : ... .. . ... ...
ROW F0 : ... .. . ... ... ... : ... .. 2 ... ... ... : ... .. . ... : ... .. 2 ... : ... .. . ... ... : ... .. . ... ... : ... .. . ... ... : ... .. . ... ...
ROW F1 : ... .. . ... ... ... : ... .. . ... ... ... : --- .. . ... : ... .. 0 ... : ... .. . ... ... : ... .. 4 ... ... : ... .. 4 ... ... : --- .. . P82 ...
ROW F2 : ... .. . ... ... ... : B-2 00 F ... ... ... : B-3 00 . ... : 6-# 00 F ... : ... .. . ... ... : C#3 01 7 ... ... : G#3 01 8 ... ... : B-2 01 F P80 ...
ROW F3 : ... .. . ... ... ... : ... .. E ... ... ... : ... .. . ... : ... .. C ... : ... .. . ... ... : ... .. 6 ... ... : ... .. 7 ... ... : ... .. D ... ...
ROW F4 : ... .. . ... ... ... : ... .. D ... ... ... : ... .. . ... : ... .. 6 ... : ... .. . ... ... : ... .. . ... ... : ... .. 6 ... ... : ... .. 8 ... ...
ROW F5 : ... .. . ... ... ... : ... .. A ... ... ... : ... .. . ... : ... .. 3 ... : ... .. . ... ... : ... .. . ... ... : ... .. 5 ... ... : ... .. . ... ...
ROW F6 : ... .. 2 ... ... ... : ... .. . ... ... ... : ... .. . ... : ... .. 2 ... : ... .. . ... ... : ... .. 5 ... ... : ... .. . ... ... : ... .. . ... ...
ROW F7 : ... .. . ... ... ... : ... .. . ... ... ... : --- .. . ... : ... .. 0 ... : ... .. . ... ... : ... .. . ... ... : ... .. 4 ... ... : --- .. . P8B ...
ROW F8 : D#3 00 F ... ... ... : F#2 00 F ... ... ... : A#3 00 . ... : D-# 00 F ... : ... .. . ... ... : B-2 01 7 ... ... : D#3 01 8 ... ... : A#2 01 F P80 ...
ROW F9 : ... .. E ... ... ... : ... .. E ... ... ... : ... .. . ... : ... .. C ... : ... .. . ... ... : ... .. 6 ... ... : ... .. 7 ... ... : ... .. D ... ...
ROW FA : ... .. D ... ... ... : ... .. D ... ... ... : ... .. . ... : ... .. 6 ... : ... .. . ... ... : ... .. . ... ... : ... .. 6 ... ... : ... .. 8 ... ...
ROW FB : ... .. A ... ... ... : ... .. A ... ... ... : ... .. . ... : ... .. 3 ... : ... .. . ... ... : ... .. . ... ... : ... .. 5 ... ... : ... .. . ... ...
ROW FC : ... .. 2 ... ... ... : ... .. 2 ... ... ... : ... .. . ... : ... .. 2 ... : ... .. . ... ... : ... .. 5 ... ... : ... .. . ... ... : ... .. . ... ...
ROW FD : ... .. . ... ... ... : ... .. . ... ... ... : --- .. . ... : ... .. 0 ... : ... .. . ... ... : ... .. . ... ... : ... .. 4 ... ... : --- .. . ... ...
ROW FE : F#3 00 F ... ... ... : ... .. F ... ... ... : D#2 00 . ... : ... .. F ... : ... .. . ... ... : C#3 01 8 ... V00 : B-2 01 8 ... ... : D#1 01 F ... ...
ROW FF : ... .. E ... ... ... : ... .. E ... ... ... : ... .. . ... : ... .. C ... : ... .. . ... ... : ... .. 7 ... ... : ... .. 7 ... ... : ... .. D ... ...

PATTERN 1A
ROW 00 : ... .. D ... ... ... : ... .. D ... ... ... : ... .. . ... : ... .. 6 ... : ... .. . ... ... : ... .. . ... ... : ... .. 6 ... ... : ... .. 8 ... ...
ROW 01 : ... .. A ... ... ... : ... .. A ... ... ... : ... .. . ... : ... .. 3 ... : ... .. . ... ... : ... .. 6 ... ... : ... .. 5 ... ... : ... .. . ... ...
ROW 02 : ... .. 2 ... ... ... : ... .. 2 ... ... ... : ... .. . ... : ... .. 2 ... : ... .. . ... ... : ... .. 5 ... ... : ... .. . ... ... : ... .. . ... ...
ROW 03 : ... .. . ... ... ... : ... .. . ... ... ... : --- .. . ... : ... .. 0 ... : ... .. . ... ... : ... .. . ... ... : ... .. 4 ... ... : --- .. . P81 ...
ROW 04 : G#3 00 F ... ... ... : G#2 00 F ... ... ... : D#4 00 . ... : 1-# 00 F ... : ... .. . ... ... : D#3 01 7 ... V05 : A#3 01 8 ... ... : E-1 01 F P80 ...
ROW 05 : ... .. E ... ... ... : ... .. E ... ... ... : F-3 00 . ... : ... .. C ... : ... .. . ... ... : ... .. 6 ... ... : ... .. 7 ... ... : ... .. D ... ...
ROW 06 : ... .. D ... ... ... : ... .. D ... ... ... : A#2 00 . ... : ... .. 6 ... : ... .. . ... ... : ... .. . ... ... : ... .. 6 ... ... : ... .. 8 ... ...
ROW 07 : ... .. A ... ... ... : ... .. A ... ... ... : A-2 00 . ... : ... .. 3 ... : ... .. . ... ... : ... .. . ... ... : ... .. 5 ... ... : ... .. . ... ...
ROW 08 : ... .. . ... ... ... : ... .. 2 ... ... ... : E-2 00 . ... : ... .. 2 ... : ... .. . ... ... : ... .. 5 ... ... : ... .. . ... ... : ... .. . ... ...
ROW 09 : ... .. . ... ... ... : ... .. . ... ... ... : --- .. . ... : ... .. 0 ... : ... .. . ... ... : ... .. . ... ... : ... .. 4 ... ... : --- .. . P82 ...
ROW 0A : D#4 00 F ... ... ... : ... .. F ... ... ... : E-2 00 . ... : D-# 00 F ... : ... .. . ... ... : C#3 01 7 ... ... : D#3 01 8 ... ... : E-1 01 F P80 ...
ROW 0B : ... .. E ... ... ... : ... .. E ... ... ... : ... .. . ... : ... .. C ... : ... .. . ... ... : ... .. 6 ... ... : ... .. 7 ... ... : ... .. D ... ...
ROW 0C : ... .. D ... ... ... : ... .. D ... ... ... : ... .. . ... : ... .. 6 ... : ... .. . ... ... : ... .. . ... ... : ... .. 6 ... ... : ... .. 8 ... ...
ROW 0D : ... .. A ... ... ... : ... .. A ... ... ... : ... .. . ... : ... .. 3 ... : ... .. . ... ... : ... .. 5 ... ... : ... .. 5 ... ... : ... .. . ... ...
ROW 0E : ... .. . ... ... ... : ... .. 2 ... ... ... : ... .. . ... : ... .. 2 ... : ... .. . ... ... : ... .. . ... ... : ... .. . ... ... : ... .. . ... ...
ROW 0F : ... .. . ... ... ... : ... .. . ... ... ... : --- .. . ... : ... .. 0 ... : ... .. . ... ... : ... .. 4 ... ... : ... .. 4 ... ... : --- .. . P82 ...
ROW 10 : C#4 00 F ... ... ... : ... .. F ... ... ... : E-2 00 . ... : ... .. F ... : ... .. . ... ... : D#3 01 8 ... V03 : G#2 01 8 ... ... : E-1 01 F P80 ...
ROW 11 : ... .. E ... ... ... : ... .. E ... ... ... : ... .. . ... : ... .. C ... : ... .. . ... ... : ... .. 7 ... ... : ... .. 7 ... ... : ... .. D ... ...
ROW 12 : ... .. D ... ... ... : ... .. D ... ... ... : ... .. . ... : ... .. 6 ... : ... .. . ... ... : ... .. 6 ... ... : ... .. 6 ... ... : ... .. 8 ... ...
ROW 13 : ... .. A ... ... ... : ... .. A ... ... ... : ... .. . ... : ... .. 3 ... : ... .. . ... ... : ... .. 5 ... ... : ... .. 5 ... ... : ... .. . ... ...
ROW 14 : ... .. . ... ... ... : ... .. 2 ... ... ... : ... .. . ... : ... .. 2 ... : ... .. . ... ... : ... .. . ... ... : ... .. . ... ... : ... .. . ... ...
ROW 15 : ... .. . ... ... ... : ... .. . ... ... ... : --- .. . ... : ... .. 0 ... : ... .. . ... ... : ... .. 4 ... ... : ... .. 4 ... ... : --- .. . P82 ...
ROW 16 : ... .. . ... ... ... : C#3 00 F ... ... ... : C#4 00 . ... : 6-# 00 F ... : ... .. . ... ... : E-3 01 8 ... V00 : A#3 01 8 ... ... : C#3 01 F P80 ...
ROW 17 : ... .. . ... ... ... : ... .. E ... ... ... : ... .. . ... : ... .. C ... : ... .. . ... ... : ... .. 7 ... ... : ... .. 7 ... ... : ... .. D ... ...
ROW 18 : ... .. . ... ... ... : ... .. D ... ... ... : ... .. . ... : ... .. 6 ... : ... .. . ... ... : ... .. . ... ... : ... .. 6 ... ... : ... .. 8 ... ...
ROW 19 : ... .. . ... ... ... : ... .. A ... ... ... : ... .. . ... : ... .. 3 ... : ... .. . ... ... : ... .. 6 ... ... : ... .. 5 ... ... : ... .. . ... ...
ROW 1A : ... .. 2 ... ... ... : ... .. . ... ... ... : ... .. . ... : ... .. 2 ... : ... .. . ... ... : ... .. 5 ... ... : ... .. . ... ... : ... .. . ... ...
ROW 1B : ... .. . ... ... ... : ... .. . ... ... ... : --- .. . ... : ... .. 0 ... : ... .. . ... ... : ... .. . ... ... : ... .. 4 ... ... : --- .. . ... ...
ROW 1C : D#3 00 F ... ... ... : B-2 00 F ... ... ... : D#4 00 . ... : 1-# 00 F ... : ... .. . ... ... : D#3 01 7 ... V05 : D#3 01 8 ... ... : D#3 01 F ... ...
ROW 1D : ... .. E ... ... ... : ... .. E ... ... ... : ... .. . ... : ... .. C ... : ... .. . ... ... : ... .. 6 ... ... : ... .. 7 ... ... : ... .. D ... ...
ROW 1E : ... .. D ... ... ... : ... .. D ... ... ... : ... .. . ... : ... .. 6 ... : ... .. . ... ... : ... .. . ... ... : ... .. 6 ... ... : ... .. 8 ... ...
ROW 1F : ... .. A ... ... ... : ... .. A ... ... ... : ... .. . ... : ... .. 3 ... : ... .. . ... ... : ... .. . ... ... : ... .. 5 ... ... : ... .. . ... ...
ROW 20 : ... .. 2 ... ... ... : ... .. . ... ... ... : ... .. . ... : ... .. 2 ... : ... .. . ... ... : ... .. 5 ... ... : ... .. . ... ... : ... .. . ... ...
ROW 21 : ... .. . ... ... ... : ... .. . ... ... ... : --- .. . ... : ... .. 0 ... : ... .. . ... ... : ... .. . ... ... : ... .. 4 ... ... : --- .. . P7F ...
ROW 22 : F#3 00 F ... ... ... : F#2 00 F ... ... ... : E-2 00 . ... : 6-# 00 F ... : ... .. . ... ... : E-3 01 7 ... ... : G#2 01 8 ... ... : E-1 01 F P80 ...
ROW 23 : ... .. E ... ... ... : ... .. E ... ... ... : ... .. . ... : ... .. C ... : ... .. . ... ... : ... .. 6 ... ... : ... .. 7 ... ... : ... .. D ... ...
ROW 24 : ... .. D ... ... ... : ... .. D ... ... ... : ... .. . ... : ... .. 6 ... : ... .. . ... ... : ... .. . ... ... : ... .. 6 ... ... : ... .. 8 ... ...
ROW 25 : ... .. A ... ... ... : ... .. A ... ... ... : ... .. . ... : ... .. 3 ... : ... .. . ... ... : ... .. 5 ... ... : ... .. 5 ... ... : ... .. . ... ...
ROW 26 : ... .. 2 ... ... ... : ... .. 2 ... ... ... : ... .. . ... : ... .. 2 ... : ... .. . ... ... : ... .. . ... ... : ... .. . ... ... : ... .. . ... ...
ROW 27 : ... .. . ... ... ... : ... .. . ... ... ... : --- .. . ... : ... .. 0 ... : ... .. . ... ... : ... .. 4 ... ... : ... .. 4 ... ... : --- .. . P82 ...
ROW 28 : G#3 00 F ... ... ... : G#2 00 F ... ... ... : D#5 00 . ... : 1-# 00 F ... : ... .. . ... ... : F#3 01 7 ... ... : B-3 01 8 ... ... : E-2 01 F P80 ...
ROW 29 : ... .. E ... ... ... : ... .. E ... ... ... : F-4 00 . ... : ... .. C ... : ... .. . ... ... : ... .. 6 ... ... : ... .. 7 ... ... : ... .. D ... ...
ROW 2A : ... .. D ... ... ... : ... .. D ... ... ... : A#3 00 . ... : ... .. 6 ... : ... .. . ... ... : ... .. . ... ... : ... .. 6 ... ... : ... .. 8 ... ...
ROW 2B : ... .. A ... ... ... : ... .. A ... ... ... : A-3 00 . ... : ... .. 3 ... : ... .. . ... ... : ... .. 5 ... ... : ... .. 5 ... ... : ... .. . ... ...
ROW 2C : ... .. . ... ... ... : ... .. 2 ... ... ... : E-3 00 . ... : ... .. 2 ... : ... .. . ... ... : ... .. . ... ... : ... .. . ... ... : ... .. . ... ...
ROW 2D : ... .. . ... ... ... : ... .. . ... ... ... : --- .. . ... : ... .. 0 ... : ... .. . ... ... : ... .. 4 ... ... : ... .. 4 ... ... : --- .. . P89 ...
ROW 2E : ... .. . ... ... ... : ... .. F ... ... ... : E-3 00 . ... : D-# 00 F ... : ... .. . ... ... : E-3 01 8 ... V00 : B-2 01 8 ... ... : E-2 01 F P80 ...
ROW 2F : ... .. . ... ... ... : ... .. E ... ... ... : ... .. . ... : ... .. C ... : ... .. . ... ... : ... .. 7 ... ... : ... .. 7 ... ... : ... .. D ... ...
ROW 30 : ... .. . ... ... ... : ... .. D ... ... ... : ... .. . ... : ... .. 6 ... : ... .. . ... ... : ... .. . ... ... : ... .. 6 ... ... : ... .. 8 ... ...
ROW 31 : ... .. . ... ... ... : ... .. A ... ... ... : ... .. . ... : ... .. 3 ... : ... .. . ... ... : ... .. 6 ... ... : ... .. 5 ... ... : ... .. . ... ...
ROW 32 : ... .. 2 ... ... ... : ... .. 2 ... ... ... : ... .. . ... : ... .. 2 ... : ... .. . ... ... : ... .. 5 ... ... : ... .. . ... ... : ... .. . ... ...
ROW 33 : ... .. . ... ... ... : ... .. . ... ... ... : --- .. . ... : ... .. 0 ... : ... .. . ... ... : ... .. . ... ... : ... .. 4 ... ... : --- .. . P89 ...
ROW 34 : B-3 00 F ... ... ... : ... .. F ... ... ... : E-3 00 . ... : ... .. F ... : ... .. . ... ... : F#3 01 8 ... V03 : E-2 01 8 ... ... : E-2 01 F P80 ...
ROW 35 : ... .. E ... ... ... : ... .. E ... ... ... : ... .. . ... : ... .. C ... : ... .. . ... ... : ... .. 7 ... ... : ... .. 7 ... ... : ... .. D ... ...
ROW 36 : ... .. D ... ... ... : ... .. D ... ... ... : ... .. . ... : ... .. 6 ... : ... .. . ... ... : ... .. 6 ... ... : ... .. 6 ... ... : ... .. 8 ... ...
ROW 37 : ... .. A ... ... ... : ... .. A ... ... ... : ... .. . ... : ... .. 3 ... : ... .. . ... ... : ... .. 5 ... ... : ... .. 5 ... ... : ... .. . ... ...
ROW 38 : ... .. . ... ... ... : ... .. 2 ... ... ... : ... .. . ... : ... .. 2 ... : ... .. . ... ... : ... .. . ... ... : ... .. . ... ... : ... .. . ... ...
ROW 39 : ... .. . ... ... ... : ... .. . ... ... ... : --- .. . ... : ... .. 0 ... : ... .. . ... ... : ... .. 4 ... ... : ... .. 4 ... ... : --- .. . P89 ...
ROW 3A : ... .. . ... ... ... : E-3 00 F ... ... ... : B-3 00 . ... : 8-# 00 F ... : ... .. . ... ... : G#3 01 7 ... V05 : B-3 01 8 ... ... : B-2 01 F P80 ...
ROW 3B : ... .. . ... ... ... : ... .. E ... ... ... : ... .. . ... : ... .. C ... : ... .. . ... ... : ... .. 6 ... ... : ... .. 7 ... ... : ... .. D ... ...
ROW 3C : ... .. . ... ... ... : ... .. D ... ... ... : ... .. . ... : ... .. 6 ... : ... .. . ... ... : ... .. . ... ... : ... .. 6 ... ... : ... .. 8 ... ...
ROW 3D : ... .. . ... ... ... : ... .. A ... ... ... : ... .. . ... : ... .. 3 ... : ... .. . ... ... : ... .. 5 ... ... : ... .. 5 ... ... : ... .. . ... ...
ROW 3E : ... .. 2 ... ... ... : ... .. . ... ... ... : ... .. . ... : ... .. 2 ... : ... .. . ... ... : ... .. . ... ... : ... .. . ... ... : ... .. . ... ...
ROW 3F : ... .. . ... ... ... : ... .. . ... ... ... : --- .. . ... : ... .. 0 ... : ... .. . ... ... : ... .. 4 ... ... : ... .. 4 ... ... : --- .. . P8B ...
ROW 40 : A#3 00 F ... ... ... : D#3 00 F ... ... ... : A#3 00 . ... : 4-# 00 F ... : ... .. . ... ... : F#3 01 8 ... V03 : B-2 01 8 ... ... : A#2 01 F P80 ...
ROW 41 : ... .. E ... ... ... : ... .. E ... ... ... : ... .. . ... : ... .. C ... : ... .. . ... ... : ... .. 7 ... ... : ... .. 7 ... ... : ... .. D ... ...
ROW 42 : ... .. D ... ... ... : ... .. D ... ... ... : ... .. . ... : ... .. 6 ... : ... .. . ... ... : ... .. 6 ... ... : ... .. 6 ... ... : ... .. 8 ... ...
ROW 43 : ... .. A ... ... ... : ... .. A ... ... ... : ... .. . ... : ... .. 3 ... : ... .. . ... ... : ... .. 5 ... ... : ... .. 5 ... ... : ... .. . ... ...
ROW 44 : ... .. . ... ... ... : ... .. . ... ... ... : ... .. . ... : ... .. 2 ... : ... .. . ... ... : ... .. . ... ... : ... .. . ... ... : ... .. . ... ...
ROW 45 : ... .. . ... ... ... : ... .. . ... ... ... : --- .. . ... : ... .. 0 ... : ... .. . ... ... : ... .. 4 ... ... : ... .. 4 ... ... : --- .. . ... ...
ROW 46 : ... .. . ... ... ... : B-2 00 F ... ... ... : B-3 00 . ... : 1-# 00 F ... : ... .. . ... ... : G#3 01 8 ... V00 : E-2 01 8 ... ... : B-2 01 F ... ...
ROW 47 : ... .. . ... ... ... : ... .. E ... ... ... : ... .. . ... : ... .. C ... : ... .. . ... ... : ... .. 7 ... ... : ... .. 7 ... ... : ... .. D ... ...
ROW 48 : ... .. . ... ... ... : ... .. D ... ... ... : ... .. . ... : ... .. 6 ... : ... .. . ... ... : ... .. . ... ... : ... .. 6 ... ... : ... .. 8 ... ...
ROW 49 : ... .. . ... ... ... : ... .. A ... ... ... : ... .. . ... : ... .. 3 ... : ... .. . ... ... : ... .. 6 ... ... : ... .. 5 ... ... : ... .. . ... ...
ROW 4A : ... .. 2 ... ... ... : ... .. 2 ... ... ... : ... .. . ... : ... .. 2 ... : ... .. . ... ... : ... .. 5 ... ... : ... .. . ... ... : ... .. . ... ...
ROW 4B : ... .. . ... ... ... : ... .. . ... ... ... : --- .. . ... : ... .. 0 ... : ... .. . ... ... : ... .. . ... ... : ... .. 4 ... ... : --- .. . P8B ...
ROW 4C : G#3 00 F ... ... ... : C#3 00 F ... ... ... : D#3 00 . ... : 7-# 00 F ... : ... .. . ... ... : A#3 01 8 ... V03 : C#4 01 8 ... ... : E-0 01 F P80 ...
ROW 4D : ... .. E ... ... ... : ... .. E ... ... ... : F-2 00 . ... : ... .. C ... : ... .. . ... ... : ... .. 7 ... ... : ... .. 7 ... ... : ... .. D ... ...
ROW 4E : ... .. D ... ... ... : ... .. D ... ... ... : A#1 00 . ... : ... .. 6 ... : ... .. . ... ... : ... .. 6 ... ... : ... .. 6 ... ... : ... .. 8 ... ...
ROW 4F : ... .. A ... ... ... : ... .. A ... ... ... : A-1 00 . ... : ... .. 3 ... : ... .. . ... ... : ... .. 5 ... ... : ... .. 5 ... ... : ... .. . ... ...
ROW 50 : ... .. . ... ... ... : ... .. . ... ... ... : E-1 00 . ... : ... .. 2 ... : ... .. . ... ... : ... .. . ... ... : ... .. . ... ... : ... .. . ... ...
ROW 51 : ... .. . ... ... ... : ... .. . ... ... ... : --- .. . ... : ... .. 0 ... : ... .. . ... ... : ... .. 4 ... ... : ... .. 4 ... ... : --- .. . ... ...
ROW 52 : D#4 00 F ... ... ... : F#2 00 F ... ... ... : G#4 00 . ... : 3-# 00 F ... : ... .. . ... ... : G#3 01 7 ... V05 : G#3 01 8 ... ... : G#3 01 F ... ...
ROW 53 : ... .. E ... ... ... : ... .. E ... ... ... : ... .. . ... : ... .. C ... : ... .. . ... ... : ... .. 6 ... ... : ... .. 7 ... ... : ... .. D ... ...
ROW 54 : ... .. D ... ... ... : ... .. D ... ... ... : ... .. . ... : ... .. 6 ... : ... .. . ... ... : ... .. . ... ... : ... .. 6 ... ... : ... .. 8 ... ...
ROW 55 : ... .. A ... ... ... : ... .. A ... ... ... : ... .. . ... : ... .. 3 ... : ... .. . ... ... : ... .. 5 ... ... : ... .. 5 ... ... : ... .. . ... ...
ROW 56 : ... .. 2 ... ... ... : ... .. . ... ... ... : ... .. . ... : ... .. 2 ... : ... .. . ... ... : ... .. . ... ... : ... .. . ... ... : ... .. . ... ...
ROW 57 : ... .. . ... ... ... : ... .. . ... ... ... : --- .. . ... : ... .. 0 ... : ... .. . ... ... : ... .. 4 ... ... : ... .. 4 ... ... : --- .. . P7F ...
ROW 58 : G#4 00 F ... ... ... : G#2 00 F ... ... ... : E-1 00 . ... : 1-# 00 F ... : ... .. . ... ... : A#3 01 7 ... ... : E-3 01 8 ... ... : E-0 01 F P80 ...
ROW 59 : ... .. E ... ... ... : ... .. E ... ... ... : ... .. . ... : ... .. C ... : ... .. . ... ... : ... .. 6 ... ... : ... .. 7 ... ... : ... .. D ... ...
ROW 5A : ... .. D ... ... ... : ... .. D ... ... ... : ... .. . ... : ... .. 6 ... : ... .. . ... ... : ... .. . ... ... : ... .. 6 ... ... : ... .. 8 ... ...
ROW 5B : ... .. A ... ... ... : ... .. A ... ... ... : ... .. . ... : ... .. 3 ... : ... .. . ... ... : ... .. 5 ... ... : ... .. 5 ... ... : ... .. . ... ...
ROW 5C : ... .. 2 ... ... ... : ... .. 2 ... ... ... : ... .. . ... : ... .. 2 ... : ... .. . ... ... : ... .. . ... ... : ... .. . ... ... : ... .. . ... ...
ROW 5D : ... .. . ... ... ... : ... .. . ... ... ... : --- .. . ... : ... .. 0 ... : ... .. . ... ... : ... .. 4 ... ... : ... .. 4 ... ... : --- .. . ... ...
ROW 5E : A#4 00 F ... ... ... : C#2 00 F ... ... ... : F#4 00 . ... : 6-# 00 F ... : ... .. . ... ... : B-3 01 7 ... ... : C#4 01 8 ... ... : F#3 01 F ... ...
ROW 5F : ... .. E ... ... ... : ... .. E ... ... ... : ... .. . ... : ... .. C ... : ... .. . ... ... : ... .. 6 ... ... : ... .. 7 ... ... : ... .. D ... ...
ROW 60 : ... .. D ... ... ... : ... .. D ... ... ... : ... .. . ... : ... .. 6 ... : ... .. . ... ... : ... .. . ... ... : ... .. 6 ... ... : ... .. 8 ... ...
ROW 61 : ... .. A ... ... ... : ... .. A ... ... ... : ... .. . ... : ... .. 3 ... : ... .. . ... ... : ... .. . ... ... : ... .. 5 ... ... : ... .. . ... ...
ROW 62 : ... .. . ... ... ... : ... .. . ... ... ... : ... .. . ... : ... .. 2 ... : ... .. . ... ... : ... .. 5 ... ... : ... .. . ... ... : ... .. . ... ...
ROW 63 : ... .. . ... ... ... : ... .. . ... ... ... : --- .. . ... : ... .. 0 ... : ... .. . ... ... : ... .. . ... ... : ... .. 4 ... ... : --- .. . P82 ...
ROW 64 : D#4 00 F ... ... ... : D#2 00 F ... ... ... : C#4 00 . ... : 2-# 00 F ... : ... .. . ... ... : A#3 01 8 ... V00 : G#3 01 8 ... ... : C#3 01 F P80 ...
ROW 65 : ... .. E ... ... ... : ... .. E ... ... ... : ... .. . ... : ... .. C ... : ... .. . ... ... : ... .. 7 ... ... : ... .. 7 ... ... : ... .. D ... ...
ROW 66 : ... .. D ... ... ... : ... .. D ... ... ... : ... .. . ... : ... .. 6 ... : ... .. . ... ... : ... .. . ... ... : ... .. 6 ... ... : ... .. 8 ... ...
ROW 67 : ... .. A ... ... ... : ... .. A ... ... ... : ... .. . ... : ... .. 3 ... : ... .. . ... ... : ... .. 6 ... ... : ... .. 5 ... ... : ... .. . ... ...
ROW 68 : ... .. 2 ... ... ... : ... .. . ... ... ... : ... .. . ... : ... .. 2 ... : ... .. . ... ... : ... .. 5 ... ... : ... .. . ... ... : ... .. . ... ...
ROW 69 : ... .. . ... ... ... : ... .. . ... ... ... : --- .. . ... : ... .. 0 ... : ... .. . ... ... : ... .. . ... ... : ... .. 4 ... ... : --- .. . ... ...
ROW 6A : A#4 00 F ... ... ... : B-1 00 F ... ... ... : D#4 00 . ... : 1-# 00 F ... : ... .. . ... ... : B-3 01 8 ... ... : E-3 01 8 ... ... : D#3 01 F ... ...
ROW 6B : ... .. E ... ... ... : ... .. E ... ... ... : ... .. . ... : ... .. C ... : ... .. . ... ... : ... .. 7 ... ... : ... .. 7 ... ... : ... .. D ... ...
ROW 6C : ... .. D ... ... ... : ... .. D ... ... ... : ... .. . ... : ... .. 6 ... : ... .. . ... ... : ... .. . ... ... : ... .. 6 ... ... : ... .. 8 ... ...
ROW 6D : ... .. A ... ... ... : ... .. A ... ... ... : ... .. . ... : ... .. 3 ... : ... .. . ... ... : ... .. 6 ... ... : ... .. 5 ... ... : ... .. . ... ...
ROW 6E : ... .. 2 ... ... ... : ... .. 2 ... ... ... : ... .. . ... : ... .. 2 ... : ... .. . ... ... : ... .. 5 ... ... : ... .. . ... ... : ... .. . ... ...
ROW 6F : ... .. . ... ... ... : ... .. . ... ... ... : --- .. . ... : ... .. 0 ... : ... .. . ... ... : ... .. . ... ... : ... .. 4 ... ... : --- .. . P7F ...
ROW 70 : B-4 00 F ... ... ... : G#1 00 F ... ... ... : D#4 00 . ... : ... .. F ... : ... .. . ... ... : C#4 01 7 ... V05 : D#4 01 8 ... ... : E-1 01 F P80 ...
ROW 71 : ... .. E ... ... ... : ... .. E ... ... ... : F-3 00 . ... : ... .. C ... : ... .. . ... ... : ... .. 6 ... ... : ... .. 7 ... ... : ... .. D ... ...
ROW 72 : ... .. D ... ... ... : ... .. D ... ... ... : A#2 00 . ... : ... .. 6 ... : ... .. . ... ... : ... .. . ... ... : ... .. 6 ... ... : ... .. 8 ... ...
ROW 73 : ... .. A ... ... ... : ... .. A ... ... ... : A-2 00 . ... : ... .. 3 ... : ... .. . ... ... : ... .. . ... ... : ... .. 5 ... ... : ... .. . ... ...
ROW 74 : ... .. . ... ... ... : ... .. 2 ... ... ... : E-2 00 . ... : ... .. 2 ... : ... .. . ... ... : ... .. 5 ... ... : ... .. . ... ... : ... .. . ... ...
ROW 75 : ... .. . ... ... ... : ... .. . ... ... ... : --- .. . ... : ... .. 0 ... : ... .. . ... ... : ... .. . ... ... : ... .. 4 ... ... : --- .. . P82 ...
ROW 76 : A#4 00 F ... ... ... : ... .. F ... ... ... : E-2 00 . ... : ... .. F ... : ... .. . ... ... : D#4 01 8 ... V00 : G#3 01 8 ... ... : E-1 01 F P80 ...
ROW 77 : ... .. E ... ... ... : ... .. E ... ... ... : ... .. . ... : ... .. C ... : ... .. . ... ... : ... .. 7 ... ... : ... .. 7 ... ... : ... .. D ... ...
ROW 78 : ... .. D ... ... ... : ... .. D ... ... ... : ... .. . ... : ... .. 6 ... : ... .. . ... ... : ... .. . ... ... : ... .. 6 ... ... : ... .. 8 ... ...
ROW 79 : ... .. A ... ... ... : ... .. A ... ... ... : ... .. . ... : ... .. 3 ... : ... .. . ... ... : ... .. 6 ... ... : ... .. 5 ... ... : ... .. . ... ...
ROW 7A : ... .. 2 ... ... ... : ... .. 2 ... ... ... : ... .. . ... : ... .. 2 ... : ... .. . ... ... : ... .. 5 ... ... : ... .. . ... ... : ... .. . ... ...
ROW 7B : ... .. . ... ... ... : ... .. . ... ... ... : --- .. . ... : ... .. 0 ... : ... .. . ... ... : ... .. . ... ... : ... .. 4 ... ... : --- .. . P82 ...
ROW 7C : B-4 00 F ... ... ... : ... .. F ... ... ... : E-2 00 . ... : ... .. F ... : ... .. . ... ... : E-4 01 8 ... V03 : E-3 01 8 ... ... : E-1 01 F P80 ...
ROW 7D : ... .. E ... ... ... : ... .. E ... ... ... : ... .. . ... : ... .. C ... : ... .. . ... ... : ... .. 7 ... ... : ... .. 7 ... ... : ... .. D ... ...
ROW 7E : ... .. D ... ... ... : ... .. D ... ... ... : ... .. . ... : ... .. 6 ... : ... .. . ... ... : ... .. 6 ... ... : ... .. 6 ... ... : ... .. 8 ... ...
ROW 7F : ... .. A ... ... ... : ... .. A ... ... ... : ... .. . ... : ... .. 3 ... : ... .. . ... ... : ... .. 5 ... ... : ... .. 5 ... ... : ... .. . ... ...
ROW 80 : ... .. . ... ... ... : ... .. 2 ... ... ... : ... .. . ... : ... .. 2 ... : ... .. . ... ... : ... .. . ... ... : ... .. . ... ... : ... .. . ... ...
ROW 81 : ... .. . ... ... ... : ... .. . ... ... ... : --- .. . ... : ... .. 0 ... : ... .. . ... ... : ... .. 4 ... ... : ... .. 4 ... ... : --- .. . P82 ...
ROW 82 : ... .. . ... ... ... : C#3 00 F ... ... ... : D#4 00 . ... : B-# 00 F ... : ... .. . ... ... : C#4 01 7 ... V05 : D#4 01 8 ... ... : D#3 01 F P80 ...
ROW 83 : ... .. . ... ... ... : ... .. E ... ... ... : ... .. . ... : ... .. . ... : ... .. . ... ... : ... .. 6 ... ... : ... .. 7 ... ... : ... .. D ... ...
ROW 84 : ... .. . ... ... ... : ... .. D ... ... ... : ... .. . ... : ... .. . ... : ... .. . ... ... : ... .. . ... ... : ... .. 6 ... ... : ... .. 8 ... ...
ROW 85 : ... .. . ... ... ... : ... .. A ... ... ... : ... .. . ... : ... .. D ... : ... .. . ... ... : ... .. . ... ... : ... .. 5 ... ... : ... .. . ... ...
ROW 86 : ... .. . ... ... ... : ... .. . ... ... ... : ... .. . ... : ... .. . ... : ... .. . ... ... : ... .. 5 ... ... : ... .. . ... ... : ... .. . ... ...
ROW 87 : ... .. . ... ... ... : ... .. . ... ... ... : ... .. . ... : ... .. . ... : ... .. . ... ... : ... .. . ... ... : ... .. 4 ... ... : ... .. . ... ...
ROW 88 : ... .. . ... ... ... : ... .. . ... ... ... : E-4 00 . P7D : ... .. C ... : ... .. . ... ... : D#4 01 7 ... ... : G#3 01 8 ... ... : ... .. . P87 ...
ROW 89 : ... .. . ... ... ... : ... .. . ... ... ... : ... .. . P7F : ... .. . ... : ... .. . ... ... : ... .. 6 ... ... : ... .. 7 ... ... : ... .. . P89 ...
ROW 8A : ... .. . ... ... ... : ... .. . ... ... ... : ... .. . P7C : ... .. . ... : ... .. . ... ... : ... .. . ... ... : ... .. 6 ... ... : ... .. . P86 ...
ROW 8B : ... .. . P83 ... ... : D-3 00 A P88 ... ... : D#4 00 . P80 : ... .. A ... : ... .. . ... ... : ... .. 5 ... ... : ... .. 5 ... ... : ... .. . P80 ...
ROW 8C : C-5 00 A P7E ... ... : D#3 00 A P7F ... ... : D-4 00 . P83 : ... .. . ... : ... .. . ... ... : ... .. . ... ... : ... .. . ... ... : ... .. . P79 ...
ROW 8D : B-4 00 A P83 ... ... : D-3 00 A P84 ... ... : ... .. . P81 : ... .. . ... : ... .. . ... ... : ... .. 4 ... ... : ... .. 4 ... ... : ... .. . P77 ...
ROW 8E : ... .. . P80 ... ... : C#3 00 A P80 ... ... : ... .. . P84 : ... .. 9 ... : ... .. . ... ... : E-4 01 7 ... ... : E-3 01 8 ... ... : ... .. . P7A ...
ROW 8F : ... .. . P7D ... ... : C-3 00 A P79 ... ... : D#4 00 . P80 : ... .. . ... : ... .. . ... ... : ... .. 6 ... ... : ... .. 7 ... ... : ... .. . P80 ...
ROW 90 : A#4 00 A P83 ... ... : B-2 00 A P86 ... ... : E-4 00 . P7D : ... .. . ... : ... .. . ... ... : ... .. . ... ... : ... .. 6 ... ... : ... .. . P87 ...
ROW 91 : B-4 00 A P7D ... ... : C-3 00 A P7D ... ... : ... .. . P7F : ... .. 8 ... : ... .. . ... ... : ... .. . ... ... : ... .. 5 ... ... : ... .. . P89 ...
ROW 92 : ... .. . P80 ... ... : C#3 00 2 P80 ... ... : ... .. . P7C : ... .. . ... : ... .. . ... ... : ... .. 5 ... ... : ... .. . ... ... : ... .. . P86 ...
ROW 93 : ... .. . P83 ... ... : D-3 00 2 P88 ... ... : D#4 00 . P80 : ... .. . ... : ... .. . ... ... : ... .. . ... ... : ... .. 4 ... ... : ... .. . P80 ...
ROW 94 : C-5 00 A P7E ... ... : G#1 00 F P80 ... ... : ... .. . ... : 1-# 00 F ... : ... .. . ... ... : F#4 01 8 ... V00 : C#4 01 8 ... ... : E-1 01 F ... ...
ROW 95 : B-4 00 A P83 ... ... : ... .. E ... ... ... : F-3 00 . ... : ... .. C ... : ... .. . ... ... : ... .. 7 ... ... : ... .. 7 ... ... : ... .. D ... ...
ROW 96 : ... .. . P80 ... ... : ... .. D ... ... ... : A#2 00 . ... : ... .. 6 ... : ... .. . ... ... : ... .. . ... ... : ... .. 6 ... ... : ... .. 8 ... ...
ROW 97 : ... .. . P7D ... ... : ... .. A ... ... ... : A-2 00 . ... : ... .. 3 ... : ... .. . ... ... : ... .. 6 ... ... : ... .. 5 ... ... : ... .. . ... ...
ROW 98 : A#4 00 A P83 ... ... : ... .. 2 ... ... ... : E-2 00 . ... : ... .. 2 ... : ... .. . ... ... : ... .. 5 ... ... : ... .. . ... ... : ... .. . ... ...
ROW 99 : B-4 00 A P7D ... ... : ... .. . ... ... ... : --- .. . ... : ... .. 0 ... : ... .. . ... ... : ... .. . ... ... : ... .. 4 ... ... : --- .. . P82 ...
ROW 9A : ... .. . P80 ... ... : ... .. F ... ... ... : E-2 00 . ... : ... .. F ... : ... .. . ... ... : D#4 01 7 ... V05 : G#3 01 8 ... ... : E-1 01 F P80 ...
ROW 9B : ... .. . P83 ... ... : ... .. E ... ... ... : ... .. . ... : ... .. C ... : ... .. . ... ... : ... .. 6 ... ... : ... .. 7 ... ... : ... .. D ... ...
ROW 9C : C-5 00 A P7E ... ... : ... .. D ... ... ... : ... .. . ... : ... .. 6 ... : ... .. . ... ... : ... .. . ... ... : ... .. 6 ... ... : ... .. 8 ... ...
ROW 9D : B-4 00 A P83 ... ... : ... .. A ... ... ... : ... .. . ... : ... .. 3 ... : ... .. . ... ... : ... .. 5 ... ... : ... .. 5 ... ... : ... .. . ... ...
ROW 9E : ... .. . P80 ... ... : ... .. 2 ... ... ... : ... .. . ... : ... .. 2 ... : ... .. . ... ... : ... .. . ... ... : ... .. . ... ... : ... .. . ... ...
ROW 9F : ... .. . P7D ... ... : ... .. . ... ... ... : --- .. . ... : ... .. 0 ... : ... .. . ... ... : ... .. 4 ... ... : ... .. 4 ... ... : --- .. . P82 ...
ROW A0 : A#4 00 A P83 ... ... : ... .. F ... ... ... : E-2 00 . ... : ... .. F ... : ... .. . ... ... : E-4 01 7 ... ... : B-2 01 8 ... ... : E-1 01 F P80 ...
ROW A1 : B-4 00 A P7D ... ... : ... .. E ... ... ... : ... .. . ... : ... .. C ... : ... .. . ... ... : ... .. 6 ... ... : ... .. 7 ... ... : ... .. D ... ...
ROW A2 : ... .. . P80 ... ... : ... .. D ... ... ... : ... .. . ... : ... .. 6 ... : ... .. . ... ... : ... .. . ... ... : ... .. 6 ... ... : ... .. 8 ... ...
ROW A3 : ... .. . P83 ... ... : ... .. A ... ... ... : ... .. . ... : ... .. 3 ... : ... .. . ... ... : ... .. . ... ... : ... .. 5 ... ... : ... .. . ... ...
ROW A4 : C-5 00 A P7E ... ... : ... .. 2 ... ... ... : ... .. . ... : ... .. 2 ... : ... .. . ... ... : ... .. 5 ... ... : ... .. . ... ... : ... .. . ... ...
ROW A5 : B-4 00 A P83 ... ... : ... .. . ... ... ... : --- .. . ... : ... .. 0 ... : ... .. . ... ... : ... .. . ... ... : ... .. 4 ... ... : --- .. . P82 ...
ROW A6 : ... .. . P80 ... ... : C#3 00 F ... ... ... : D#3 00 . ... : B-# 00 F ... : ... .. . ... ... : F#4 01 8 ... V00 : C#4 01 8 ... ... : D#2 01 F P80 ...
ROW A7 : ... .. . P7D ... ... : ... .. E ... ... ... : ... .. . ... : ... .. . ... : ... .. . ... ... : ... .. 7 ... ... : ... .. 7 ... ... : ... .. D ... ...
ROW A8 : A#4 00 A P83 ... ... : ... .. D ... ... ... : ... .. . ... : ... .. . ... : ... .. . ... ... : ... .. . ... ... : ... .. 6 ... ... : ... .. 8 ... ...
ROW A9 : B-4 00 A P7D ... ... : ... .. A ... ... ... : ... .. . ... : ... .. D ... : ... .. . ... ... : ... .. 6 ... ... : ... .. 5 ... ... : ... .. . ... ...
ROW AA : ... .. 2 P80 ... ... : ... .. . ... ... ... : ... .. . ... : ... .. . ... : ... .. . ... ... : ... .. 5 ... ... : ... .. . ... ... : ... .. . ... ...
ROW AB : ... .. . P83 ... ... : ... .. . ... ... ... : ... .. . ... : ... .. . ... : ... .. . ... ... : ... .. . ... ... : ... .. 4 ... ... : ... .. . ... ...
ROW AC : C-5 00 2 P7E ... ... : D-3 00 A P88 ... ... : ... .. . P87 : ... .. C ... : ... .. . ... ... : G#4 01 8 ... ... : G#3 01 8 ... ... : ... .. . P87 ...
ROW AD : B-4 00 1 P83 ... ... : D#3 00 A P7F ... ... : ... .. . P89 : ... .. . ... : ... .. . ... ... : ... .. 7 ... ... : ... .. 7 ... ... : ... .. . P89 ...
ROW AE : ... .. . P80 ... ... : D-3 00 A P84 ... ... : ... .. . P86 : ... .. . ... : ... .. . ... ... : ... .. . ... ... : ... .. 6 ... ... : ... .. . P86 ...
ROW AF : ... .. . P7D ... ... : C#3 00 A P80 ... ... : ... .. . P80 : ... .. A ... : ... .. . ... ... : ... .. 6 ... ... : ... .. 5 ... ... : ... .. . P80 ...
ROW B0 : ... .. 0 ... ... ... : C-3 00 A P79 ... ... : ... .. . P79 : ... .. . ... : ... .. . ... ... : ... .. 5 ... ... : ... .. . ... ... : ... .. . P79 ...
ROW B1 : ... .. . ... ... ... : B-2 00 A P86 ... ... : ... .. . P77 : ... .. . ... : ... .. . ... ... : ... .. . ... ... : ... .. 4 ... ... : ... .. . P77 ...
ROW B2 : ... .. . ... ... ... : C-3 00 A P7D ... ... : ... .. . P7A : ... .. 9 ... : ... .. . ... ... : A#4 01 7 ... V05 : B-2 01 8 ... ... : ... .. . P7A ...
ROW B3 : ... .. . ... ... ... : C#3 00 A P80 ... ... : ... .. . P80 : ... .. . ... : ... .. . ... ... : ... .. 6 ... ... : ... .. 7 ... ... : ... .. . P80 ...
ROW B4 : ... .. . ... ... ... : D-3 00 A P88 ... ... : ... .. . P87 : ... .. . ... : ... .. . ... ... : ... .. . ... ... : ... .. 6 ... ... : ... .. . P87 ...
ROW B5 : ... .. . ... ... ... : D#3 00 A P7F ... ... : ... .. . P89 : ... .. 8 ... : ... .. . ... ... : ... .. . ... ... : ... .. 5 ... ... : ... .. . P89 ...
ROW B6 : ... .. . ... ... ... : D-3 00 2 P84 ... ... : ... .. . P86 : ... .. . ... : ... .. . ... ... : ... .. 5 ... ... : ... .. . ... ... : ... .. . P86 ...
ROW B7 : ... .. . ... ... ... : C#3 00 2 P80 ... ... : ... .. . P80 : ... .. . ... : ... .. . ... ... : ... .. . ... ... : ... .. 4 ... ... : ... .. . P80 ...
ROW B8 : B-4 00 F P80 ... ... : B-2 00 F ... ... ... : D#5 00 . ... : 1-# 00 F ... : ... .. . ... ... : B-4 01 7 ... ... : B-3 01 8 ... ... : E-2 01 F ... ...
ROW B9 : ... .. E ... ... ... : ... .. E ... ... ... : F-4 00 . ... : ... .. C ... : ... .. . ... ... : ... .. 6 ... ... : ... .. 7 ... ... : ... .. D ... ...
ROW BA : ... .. D ... ... ... : ... .. D ... ... ... : A#3 00 . ... : ... .. 6 ... : ... .. . ... ... : ... .. . ... ... : ... .. 6 ... ... : ... .. 8 ... ...
ROW BB : ... .. A ... ... ... : ... .. A ... ... ... : A-3 00 . ... : ... .. 3 ... : ... .. . ... ... : ... .. . ... ... : ... .. 5 ... ... : ... .. . ... ...
ROW BC : ... .. 2 ... ... ... : ... .. 2 ... ... ... : E-3 00 . ... : ... .. 2 ... : ... .. . ... ... : ... .. 5 ... ... : ... .. . ... ... : ... .. . ... ...
ROW BD : ... .. . ... ... ... : ... .. . ... ... ... : --- .. . ... : ... .. 0 ... : ... .. . ... ... : ... .. . ... ... : ... .. 4 ... ... : --- .. . P89 ...
ROW BE : A#4 00 F ... ... ... : F#2 00 F ... ... ... : F#4 00 . ... : ... .. F ... : ... .. . ... ... : A#4 01 8 ... V03 : G#3 01 8 ... ... : F#3 01 F P80 ...
ROW BF : ... .. E ... ... ... : ... .. E ... ... ... : ... .. . ... : ... .. C ... : ... .. . ... ... : ... .. 7 ... ... : ... .. 7 ... ... : ... .. D ... ...
ROW C0 : ... .. D ... ... ... : ... .. D ... ... ... : ... .. . ... : ... .. 6 ... : ... .. . ... ... : ... .. 6 ... ... : ... .. 6 ... ... : ... .. 8 ... ...
ROW C1 : ... .. A ... ... ... : ... .. A ... ... ... : ... .. . ... : ... .. 3 ... : ... .. . ... ... : ... .. 5 ... ... : ... .. 5 ... ... : ... .. . ... ...
ROW C2 : ... .. 2 ... ... ... : ... .. 2 ... ... ... : ... .. . ... : ... .. 2 ... : ... .. . ... ... : ... .. . ... ... : ... .. . ... ... : ... .. . ... ...
ROW C3 : ... .. . ... ... ... : ... .. . ... ... ... : --- .. . ... : ... .. 0 ... : ... .. . ... ... : ... .. 4 ... ... : ... .. 4 ... ... : --- .. . P82 ...
ROW C4 : B-4 00 F ... ... ... : ... .. F ... ... ... : E-4 00 . ... : ... .. F ... : ... .. . ... ... : G#4 01 7 ... V05 : E-3 01 8 ... ... : E-3 01 F P80 ...
ROW C5 : ... .. E ... ... ... : ... .. E ... ... ... : ... .. . ... : ... .. C ... : ... .. . ... ... : ... .. 6 ... ... : ... .. 7 ... ... : ... .. D ... ...
ROW C6 : ... .. D ... ... ... : ... .. D ... ... ... : ... .. . ... : ... .. 6 ... : ... .. . ... ... : ... .. . ... ... : ... .. 6 ... ... : ... .. 8 ... ...
ROW C7 : ... .. A ... ... ... : ... .. A ... ... ... : ... .. . ... : ... .. 3 ... : ... .. . ... ... : ... .. . ... ... : ... .. 5 ... ... : ... .. . ... ...
ROW C8 : ... .. . ... ... ... : ... .. 2 ... ... ... : ... .. . ... : ... .. 2 ... : ... .. . ... ... : ... .. 5 ... ... : ... .. . ... ... : ... .. . ... ...
ROW C9 : ... .. . ... ... ... : ... .. . ... ... ... : --- .. . ... : ... .. 0 ... : ... .. . ... ... : ... .. . ... ... : ... .. 4 ... ... : --- .. . P7D ...
ROW CA : ... .. . ... ... ... : B-2 00 F ... ... ... : D#4 00 . ... : A-# 00 F ... : ... .. . ... ... : F#4 01 8 ... V03 : B-3 01 8 ... ... : D#3 01 F P80 ...
ROW CB : ... .. . ... ... ... : ... .. E ... ... ... : ... .. . ... : ... .. C ... : ... .. . ... ... : ... .. 7 ... ... : ... .. 7 ... ... : ... .. D ... ...
ROW CC : ... .. . ... ... ... : ... .. D ... ... ... : ... .. . ... : ... .. 6 ... : ... .. . ... ... : ... .. 6 ... ... : ... .. 6 ... ... : ... .. 8 ... ...
ROW CD : ... .. . ... ... ... : ... .. A ... ... ... : ... .. . ... : ... .. 3 ... : ... .. . ... ... : ... .. 5 ... ... : ... .. 5 ... ... : ... .. . ... ...
ROW CE : ... .. . ... ... ... : ... .. . ... ... ... : ... .. . ... : ... .. 2 ... : ... .. . ... ... : ... .. . ... ... : ... .. . ... ... : ... .. . ... ...
ROW CF : ... .. . ... ... ... : ... .. . ... ... ... : --- .. . ... : ... .. 0 ... : ... .. . ... ... : ... .. 4 ... ... : ... .. 4 ... ... : --- .. . P7F ...
ROW D0 : ... .. . ... ... ... : C#3 00 F ... ... ... : B-4 00 . ... : 5-# 00 F ... : ... .. . ... ... : E-4 01 7 ... V05 : G#3 01 8 ... ... : B-3 01 F P80 ...
ROW D1 : ... .. . ... ... ... : ... .. E ... ... ... : ... .. . ... : ... .. C ... : ... .. . ... ... : ... .. 6 ... ... : ... .. 7 ... ... : ... .. D ... ...
ROW D2 : ... .. . ... ... ... : ... .. D ... ... ... : ... .. . ... : ... .. 6 ... : ... .. . ... ... : ... .. . ... ... : ... .. 6 ... ... : ... .. 8 ... ...
ROW D3 : ... .. . ... ... ... : ... .. A ... ... ... : ... .. . ... : ... .. 3 ... : ... .. . ... ... : ... .. . ... ... : ... .. 5 ... ... : ... .. . ... ...
ROW D4 : ... .. . ... ... ... : ... .. 2 ... ... ... : ... .. . ... : ... .. 2 ... : ... .. . ... ... : ... .. 5 ... ... : ... .. . ... ... : ... .. . ... ...
ROW D5 : ... .. . ... ... ... : ... .. . ... ... ... : --- .. . ... : ... .. 0 ... : ... .. . ... ... : ... .. . ... ... : ... .. 4 ... ... : --- .. . P8E ...
ROW D6 : ... .. . ... ... ... : G#2 00 F ... ... ... : A#4 00 . ... : 3-# 00 F ... : ... .. . ... ... : D#4 01 8 ... V00 : E-3 01 8 ... ... : A#3 01 F P80 ...
ROW D7 : ... .. . ... ... ... : ... .. E ... ... ... : ... .. . ... : ... .. C ... : ... .. . ... ... : ... .. 7 ... ... : ... .. 7 ... ... : ... .. D ... ...
ROW D8 : ... .. . ... ... ... : ... .. D ... ... ... : ... .. . ... : ... .. 6 ... : ... .. . ... ... : ... .. . ... ... : ... .. 6 ... ... : ... .. 8 ... ...
ROW D9 : ... .. . ... ... ... : ... .. A ... ... ... : ... .. . ... : ... .. 3 ... : ... .. . ... ... : ... .. 6 ... ... : ... .. 5 ... ... : ... .. . ... ...
ROW DA : ... .. 2 ... ... ... : ... .. 2 ... ... ... : ... .. . ... : ... .. 2 ... : ... .. . ... ... : ... .. 5 ... ... : ... .. . ... ... : ... .. . ... ...
ROW DB : ... .. . ... ... ... : ... .. . ... ... ... : --- .. . ... : ... .. 0 ... : ... .. . ... ... : ... .. . ... ... : ... .. 4 ... ... : --- .. . ... ...
ROW DC : C#5 00 F ... ... ... : B-2 00 F ... ... ... : G-6 00 . ... : 8-# 00 F ... : ... .. . ... ... : C#4 01 8 ... ... : A#3 01 8 ... ... : G#3 01 F ... ...
ROW DD : ... .. E ... ... ... : ... .. E ... ... ... : A-5 00 . ... : ... .. C ... : ... .. . ... ... : ... .. 7 ... ... : ... .. 7 ... ... : ... .. D ... ...
ROW DE : ... .. D ... ... ... : ... .. D ... ... ... : D-5 00 . ... : ... .. 6 ... : ... .. . ... ... : ... .. . ... ... : ... .. 6 ... ... : ... .. 8 ... ...
ROW DF : ... .. A ... ... ... : ... .. A ... ... ... : C#5 00 . ... : ... .. 3 ... : ... .. . ... ... : ... .. 6 ... ... : ... .. 5 ... ... : ... .. . ... ...
ROW E0 : ... .. 2 ... ... ... : ... .. . ... ... ... : G#4 00 . ... : ... .. 2 ... : ... .. . ... ... : ... .. 5 ... ... : ... .. . ... ... : ... .. . ... ...
ROW E1 : ... .. . ... ... ... : ... .. . ... ... ... : --- .. . ... : ... .. 0 ... : ... .. . ... ... : ... .. . ... ... : ... .. 4 ... ... : --- .. . P7F ...
ROW E2 : B-4 00 F ... ... ... : F#2 00 F ... ... ... : B-3 00 . ... : 7-# 00 F ... : ... .. . ... ... : B-3 01 8 ... ... : E-3 01 8 ... ... : B-2 01 F P80 ...
ROW E3 : ... .. E ... ... ... : ... .. E ... ... ... : ... .. . ... : ... .. C ... : ... .. . ... ... : ... .. 7 ... ... : ... .. 7 ... ... : ... .. D ... ...
ROW E4 : ... .. D ... ... ... : ... .. D ... ... ... : ... .. . ... : ... .. 6 ... : ... .. . ... ... : ... .. . ... ... : ... .. 6 ... ... : ... .. 8 ... ...
ROW E5 : ... .. A ... ... ... : ... .. A ... ... ... : ... .. . ... : ... .. 3 ... : ... .. . ... ... : ... .. 6 ... ... : ... .. 5 ... ... : ... .. . ... ...
ROW E6 : ... .. 2 ... ... ... : ... .. 2 ... ... ... : ... .. . ... : ... .. 2 ... : ... .. . ... ... : ... .. 5 ... ... : ... .. . ... ... : ... .. . ... ...
ROW E7 : ... .. . ... ... ... : ... .. . ... ... ... : --- .. . ... : ... .. 0 ... : ... .. . ... ... : ... .. . ... ... : ... .. 4 ... ... : --- .. . P8B ...
ROW E8 : C#5 00 F ... ... ... : ... .. F ... ... ... : C#4 00 . ... : 6-# 00 F ... : ... .. . ... ... : A#3 01 7 ... V05 : G#2 01 8 ... ... : C#3 01 F P80 ...
ROW E9 : ... .. E ... ... ... : ... .. E ... ... ... : ... .. . ... : ... .. C ... : ... .. . ... ... : ... .. 6 ... ... : ... .. 7 ... ... : ... .. D ... ...
ROW EA : ... .. D ... ... ... : ... .. D ... ... ... : ... .. . ... : ... .. 6 ... : ... .. . ... ... : ... .. . ... ... : ... .. 6 ... ... : ... .. 8 ... ...
ROW EB : ... .. A ... ... ... : ... .. A ... ... ... : ... .. . ... : ... .. 3 ... : ... .. . ... ... : ... .. . ... ... : ... .. 5 ... ... : ... .. . ... ...
ROW EC : ... .. . ... ... ... : ... .. 2 ... ... ... : ... .. . ... : ... .. 2 ... : ... .. . ... ... : ... .. 5 ... ... : ... .. . ... ... : ... .. . ... ...
ROW ED : ... .. . ... ... ... : ... .. . ... ... ... : --- .. . ... : ... .. 0 ... : ... .. . ... ... : ... .. . ... ... : ... .. 4 ... ... : --- .. . ... ...
ROW EE : ... .. . ... ... ... : B-2 00 F ... ... ... : D#4 00 . ... : 5-# 00 F ... : ... .. . ... ... : G#3 01 7 ... ... : A#3 01 8 ... ... : D#3 01 F ... ...
ROW EF : ... .. . ... ... ... : ... .. E ... ... ... : ... .. . ... : ... .. C ... : ... .. . ... ... : ... .. 6 ... ... : ... .. 7 ... ... : ... .. D ... ...
ROW F0 : ... .. . ... ... ... : ... .. D ... ... ... : ... .. . ... : ... .. 6 ... : ... .. . ... ... : ... .. . ... ... : ... .. 6 ... ... : ... .. 8 ... ...
ROW F1 : ... .. . ... ... ... : ... .. A ... ... ... : ... .. . ... : ... .. 3 ... : ... .. . ... ... : ... .. . ... ... : ... .. 5 ... ... : ... .. . ... ...
ROW F2 : ... .. 2 ... ... ... : ... .. . ... ... ... : ... .. . ... : ... .. 2 ... : ... .. . ... ... : ... .. 5 ... ... : ... .. . ... ... : ... .. . ... ...
ROW F3 : ... .. . ... ... ... : ... .. . ... ... ... : --- .. . ... : ... .. 0 ... : ... .. . ... ... : ... .. . ... ... : ... .. 4 ... ... : --- .. . P7F ...
ROW F4 : G#4 00 F ... ... ... : C#3 00 F ... ... ... : F#3 00 . ... : 4-# 00 F ... : ... .. . ... ... : F#3 01 8 ... V03 : E-3 01 8 ... ... : F#2 01 F P80 ...
ROW F5 : ... .. E ... ... ... : ... .. E ... ... ... : ... .. . ... : ... .. C ... : ... .. . ... ... : ... .. 7 ... ... : ... .. 7 ... ... : ... .. D ... ...
ROW F6 : ... .. D ... ... ... : ... .. D ... ... ... : ... .. . ... : ... .. 6 ... : ... .. . ... ... : ... .. 6 ... ... : ... .. 6 ... ... : ... .. 8 ... ...
ROW F7 : ... .. A ... ... ... : ... .. A ... ... ... : ... .. . ... : ... .. 3 ... : ... .. . ... ... : ... .. 5 ... ... : ... .. 5 ... ... : ... .. . ... ...
ROW F8 : ... .. 2 ... ... ... : ... .. 2 ... ... ... : ... .. . ... : ... .. 2 ... : ... .. . ... ... : ... .. . ... ... : ... .. . ... ... : ... .. . ... ...
ROW F9 : ... .. . ... ... ... : ... .. . ... ... ... : --- .. . ... : ... .. 0 ... : ... .. . ... ... : ... .. 4 ... ... : ... .. 4 ... ... : --- .. . P84 ...
ROW FA : C#5 00 F ... ... ... : F#2 00 F ... ... ... : G#3 00 . ... : 3-# 00 F ... : ... .. . ... ... : E-3 01 7 ... V05 : G#2 01 8 ... ... : G#2 01 F P80 ...
ROW FB : ... .. E ... ... ... : ... .. E ... ... ... : ... .. . ... : ... .. C ... : ... .. . ... ... : ... .. 6 ... ... : ... .. 7 ... ... : ... .. D ... ...
ROW FC : ... .. D ... ... ... : ... .. D ... ... ... : ... .. . ... : ... .. 6 ... : ... .. . ... ... : ... .. . ... ... : ... .. 6 ... ... : ... .. 8 ... ...
ROW FD : ... .. A ... ... ... : ... .. A ... ... ... : ... .. . ... : ... .. 3 ... : ... .. . ... ... : ... .. . ... ... : ... .. 5 ... ... : ... .. . ... ...
ROW FE : ... .. 2 ... ... ... : ... .. 2 ... ... ... : ... .. . ... : ... .. 2 ... : ... .. . ... ... : ... .. 5 ... ... : ... .. . ... ... : ... .. . ... ...
ROW FF : ... .. . ... ... ... : ... .. . ... ... ... : --- .. . ... : ... .. 0 ... : ... .. . ... ... : ... .. . ... ... : ... .. 4 ... ... : --- .. . P7F ...

PATTERN 1B
ROW 00 : D#5 00 F ... ... ... : G#1 00 F ... ... ... : D-4 00 . ... : 1-# 00 F ... : ... .. . ... ... : D#3 01 8 ... V00 : A#4 01 8 ... ... : D#1 01 F P80 ...
ROW 01 : ... .. E ... ... ... : ... .. E ... ... ... : E-3 00 . ... : ... .. C ... : ... .. . ... ... : ... .. 7 ... ... : ... .. 7 ... ... : ... .. D ... ...
ROW 02 : ... .. D ... ... ... : ... .. D ... ... ... : A-2 00 . ... : ... .. 6 ... : ... .. . ... ... : ... .. . ... ... : ... .. 6 ... ... : ... .. 8 ... ...
ROW 03 : ... .. A ... ... ... : ... .. A ... ... ... : G#2 00 . ... : ... .. 3 ... : ... .. . ... ... : ... .. 6 ... ... : ... .. 5 ... ... : ... .. . ... ...
ROW 04 : ... .. . ... ... ... : ... .. 2 ... ... ... : D#2 00 . ... : ... .. 2 ... : ... .. . ... ... : ... .. 5 ... ... : ... .. . ... ... : ... .. . ... ...
ROW 05 : ... .. . ... ... ... : ... .. . ... ... ... : --- .. . ... : ... .. 0 ... : ... .. . ... ... : ... .. . ... ... : ... .. 4 ... ... : --- .. . P81 ...
ROW 06 : C#5 00 F ... ... ... : ... .. F ... ... ... : D#2 00 . ... : D-# 00 F ... : ... .. . ... ... : C#3 01 7 ... V05 : B-4 01 8 ... ... : D#1 01 F P80 ...
ROW 07 : ... .. E ... ... ... : ... .. E ... ... ... : ... .. . ... : ... .. C ... : ... .. . ... ... : ... .. 6 ... ... : ... .. 7 ... ... : ... .. D ... ...
ROW 08 : ... .. D ... ... ... : ... .. D ... ... ... : ... .. . ... : ... .. 6 ... : ... .. . ... ... : ... .. . ... ... : ... .. 6 ... ... : ... .. 8 ... ...
ROW 09 : ... .. A ... ... ... : ... .. A ... ... ... : ... .. . ... : ... .. 3 ... : ... .. . ... ... : ... .. 5 ... ... : ... .. 5 ... ... : ... .. . ... ...
ROW 0A : ... .. 2 ... ... ... : ... .. 2 ... ... ... : ... .. . ... : ... .. 2 ... : ... .. . ... ... : ... .. . ... ... : ... .. . ... ... : ... .. . ... ...
ROW 0B : ... .. . ... ... ... : ... .. . ... ... ... : --- .. . ... : ... .. 0 ... : ... .. . ... ... : ... .. 4 ... ... : ... .. 4 ... ... : --- .. . P81 ...
ROW 0C : D#5 00 F ... ... ... : ... .. F ... ... ... : D#2 00 . ... : ... .. F ... : ... .. . ... ... : D#3 01 7 ... ... : A#4 01 8 ... ... : D#1 01 F P80 ...
ROW 0D : ... .. E ... ... ... : ... .. E ... ... ... : ... .. . ... : ... .. C ... : ... .. . ... ... : ... .. 6 ... ... : ... .. 7 ... ... : ... .. D ... ...
ROW 0E : ... .. D ... ... ... : ... .. D ... ... ... : ... .. . ... : ... .. 6 ... : ... .. . ... ... : ... .. . ... ... : ... .. 6 ... ... : ... .. 8 ... ...
ROW 0F : ... .. A ... ... ... : ... .. A ... ... ... : ... .. . ... : ... .. 3 ... : ... .. . ... ... : ... .. 5 ... ... : ... .. 5 ... ... : ... .. . ... ...
ROW 10 : ... .. . ... ... ... : ... .. 2 ... ... ... : ... .. . ... : ... .. 2 ... : ... .. . ... ... : ... .. . ... ... : ... .. . ... ... : ... .. . ... ...
ROW 11 : ... .. . ... ... ... : ... .. . ... ... ... : --- .. . ... : ... .. 0 ... : ... .. . ... ... : ... .. 4 ... ... : ... .. 4 ... ... : --- .. . P81 ...
ROW 12 : ... .. . ... ... ... : B-3 00 F ... ... ... : B-4 00 . ... : 6-# 00 F ... : ... .. . ... ... : G#3 01 7 ... ... : D#4 01 8 ... ... : B-3 01 F P80 ...
ROW 13 : ... .. . ... ... ... : ... .. E ... ... ... : ... .. . ... : ... .. C ... : ... .. . ... ... : ... .. 6 ... ... : ... .. 7 ... ... : ... .. D ... ...
ROW 14 : ... .. . ... ... ... : ... .. D ... ... ... : ... .. . ... : ... .. 6 ... : ... .. . ... ... : ... .. . ... ... : ... .. 6 ... ... : ... .. 8 ... ...
ROW 15 : ... .. . ... ... ... : ... .. A ... ... ... : ... .. . ... : ... .. 3 ... : ... .. . ... ... : ... .. . ... ... : ... .. 5 ... ... : ... .. . ... ...
ROW 16 : ... .. . ... ... ... : ... .. . ... ... ... : ... .. . ... : ... .. 2 ... : ... .. . ... ... : ... .. 5 ... ... : ... .. . ... ... : ... .. . ... ...
ROW 17 : ... .. . ... ... ... : ... .. . ... ... ... : --- .. . ... : ... .. 0 ... : ... .. . ... ... : ... .. . ... ... : ... .. 4 ... ... : --- .. . P8E ...
ROW 18 : ... .. . ... ... ... : A#3 00 F ... ... ... : F#4 00 . ... : D-# 00 F ... : ... .. . ... ... : F#3 01 8 ... V03 : ... .. . ... ... : F#3 01 F P80 ...
ROW 19 : ... .. . ... ... ... : ... .. E ... ... ... : ... .. . ... : ... .. C ... : ... .. . ... ... : ... .. 7 ... ... : ... .. . ... ... : ... .. D ... ...
ROW 1A : ... .. . ... ... ... : ... .. D ... ... ... : ... .. . ... : ... .. 6 ... : ... .. . ... ... : ... .. 6 ... ... : ... .. . ... ... : ... .. 8 ... ...
ROW 1B : ... .. . ... ... ... : ... .. A ... ... ... : ... .. . ... : ... .. 3 ... : ... .. . ... ... : ... .. 5 ... ... : ... .. . ... ... : ... .. . ... ...
ROW 1C : ... .. . ... ... ... : ... .. 2 ... ... ... : ... .. . ... : ... .. 2 ... : ... .. . ... ... : ... .. . ... ... : ... .. . ... ... : ... .. . ... ...
ROW 1D : ... .. . ... ... ... : ... .. . ... ... ... : --- .. . ... : ... .. 0 ... : ... .. . ... ... : ... .. 4 ... ... : ... .. . ... ... : --- .. . P82 ...
ROW 1E : ... .. . ... ... ... : F#2 00 F ... ... ... : G#4 00 . ... : ... .. F ... : ... .. . ... ... : G#3 01 8 ... V00 : ... .. . ... ... : G#3 01 F P80 ...
ROW 1F : ... .. . ... ... ... : ... .. E ... ... ... : ... .. . ... : ... .. C ... : ... .. . ... ... : ... .. 7 ... ... : ... .. . ... ... : ... .. D ... ...
ROW 20 : ... .. . ... ... ... : ... .. D ... ... ... : ... .. . ... : ... .. 6 ... : ... .. . ... ... : ... .. . ... ... : ... .. . ... ... : ... .. 8 ... ...
ROW 21 : ... .. . ... ... ... : ... .. A ... ... ... : ... .. . ... : ... .. 3 ... : ... .. . ... ... : ... .. 6 ... ... : ... .. . ... ... : ... .. . ... ...
ROW 22 : ... .. . ... ... ... : ... .. 2 ... ... ... : ... .. . ... : ... .. 2 ... : ... .. . ... ... : ... .. 5 ... ... : ... .. . ... ... : ... .. . ... ...
ROW 23 : ... .. . ... ... ... : ... .. . ... ... ... : --- .. . ... : ... .. 0 ... : ... .. . ... ... : ... .. . ... ... : ... .. . ... ... : --- .. . P7F ...
ROW 24 : ... .. . ... ... ... : G#1 00 F ... ... ... : D-4 00 . ... : 1-# 00 F ... : ... .. . ... ... : B-3 01 7 ... V05 : C#4 01 8 ... ... : D#1 01 F P80 ...
ROW 25 : ... .. . ... ... ... : ... .. E ... ... ... : E-3 00 . ... : ... .. C ... : ... .. . ... ... : ... .. 6 ... ... : ... .. 7 ... ... : ... .. D ... ...
ROW 26 : ... .. . ... ... ... : ... .. D ... ... ... : A-2 00 . ... : ... .. 6 ... : ... .. . ... ... : ... .. . ... ... : ... .. 6 ... ... : ... .. 8 ... ...
ROW 27 : ... .. . ... ... ... : ... .. A ... ... ... : G#2 00 . ... : ... .. 3 ... : ... .. . ... ... : ... .. . ... ... : ... .. 5 ... ... : ... .. . ... ...
ROW 28 : ... .. . ... ... ... : ... .. 2 ... ... ... : D#2 00 . ... : ... .. 2 ... : ... .. . ... ... : ... .. 5 ... ... : ... .. . ... ... : ... .. . ... ...
ROW 29 : ... .. . ... ... ... : ... .. . ... ... ... : --- .. . ... : ... .. 0 ... : ... .. . ... ... : ... .. . ... ... : ... .. 4 ... ... : --- .. . P81 ...
ROW 2A : ... .. . ... ... ... : ... .. F ... ... ... : D#2 00 . ... : D-# 00 F ... : ... .. . ... ... : A#3 01 8 ... V03 : D#4 01 8 ... ... : D#1 01 F P80 ...
ROW 2B : ... .. . ... ... ... : ... .. E ... ... ... : ... .. . ... : ... .. C ... : ... .. . ... ... : ... .. 7 ... ... : ... .. 7 ... ... : ... .. D ... ...
ROW 2C : ... .. . ... ... ... : ... .. D ... ... ... : ... .. . ... : ... .. 6 ... : ... .. . ... ... : ... .. 6 ... ... : ... .. 6 ... ... : ... .. 8 ... ...
ROW 2D : ... .. . ... ... ... : ... .. A ... ... ... : ... .. . ... : ... .. 3 ... : ... .. . ... ... : ... .. 5 ... ... : ... .. 5 ... ... : ... .. . ... ...
ROW 2E : ... .. . ... ... ... : ... .. 2 ... ... ... : ... .. . ... : ... .. 2 ... : ... .. . ... ... : ... .. . ... ... : ... .. . ... ... : ... .. . ... ...
ROW 2F : ... .. . ... ... ... : ... .. . ... ... ... : --- .. . ... : ... .. 0 ... : ... .. . ... ... : ... .. 4 ... ... : ... .. 4 ... ... : --- .. . P81 ...
ROW 30 : ... .. . ... ... ... : ... .. F ... ... ... : D#2 00 . ... : ... .. F ... : ... .. . ... ... : B-3 01 7 ... V05 : C#4 01 8 ... ... : D#1 01 F P80 ...
ROW 31 : ... .. . ... ... ... : ... .. E ... ... ... : ... .. . ... : ... .. C ... : ... .. . ... ... : ... .. 6 ... ... : ... .. 7 ... ... : ... .. D ... ...
ROW 32 : ... .. . ... ... ... : ... .. D ... ... ... : ... .. . ... : ... .. 6 ... : ... .. . ... ... : ... .. . ... ... : ... .. 6 ... ... : ... .. 8 ... ...
ROW 33 : ... .. . ... ... ... : ... .. A ... ... ... : ... .. . ... : ... .. 3 ... : ... .. . ... ... : ... .. 5 ... ... : ... .. 5 ... ... : ... .. . ... ...
ROW 34 : ... .. . ... ... ... : ... .. 2 ... ... ... : ... .. . ... : ... .. 2 ... : ... .. . ... ... : ... .. . ... ... : ... .. . ... ... : ... .. . ... ...
ROW 35 : ... .. . ... ... ... : ... .. . ... ... ... : --- .. . ... : ... .. 0 ... : ... .. . ... ... : ... .. 4 ... ... : ... .. 4 ... ... : --- .. . P81 ...
ROW 36 : ... .. . ... ... ... : F#3 00 F ... ... ... : F#3 00 . ... : 6-# 00 F ... : ... .. . ... ... : C#4 01 8 ... V03 : B-3 01 8 ... ... : F#2 01 F P80 ...
ROW 37 : ... .. . ... ... ... : ... .. E ... ... ... : ... .. . ... : ... .. C ... : ... .. . ... ... : ... .. 7 ... ... : ... .. 7 ... ... : ... .. D ... ...
ROW 38 : ... .. . ... ... ... : ... .. D ... ... ... : ... .. . ... : ... .. 6 ... : ... .. . ... ... : ... .. 6 ... ... : ... .. 6 ... ... : ... .. 8 ... ...
ROW 39 : ... .. . ... ... ... : ... .. A ... ... ... : ... .. . ... : ... .. 3 ... : ... .. . ... ... : ... .. 5 ... ... : ... .. 5 ... ... : ... .. . ... ...
ROW 3A : ... .. . ... ... ... : ... .. . ... ... ... : ... .. . ... : ... .. 2 ... : ... .. . ... ... : ... .. . ... ... : ... .. . ... ... : ... .. . ... ...
ROW 3B : ... .. . ... ... ... : ... .. . ... ... ... : --- .. . ... : ... .. 0 ... : ... .. . ... ... : ... .. 4 ... ... : ... .. 4 ... ... : --- .. . P84 ...
ROW 3C : ... .. . ... ... ... : C#3 00 F ... ... ... : G#3 00 . ... : 1-# 00 F ... : ... .. . ... ... : B-3 01 8 ... V00 : ... .. . ... ... : G#2 01 F P80 ...
ROW 3D : ... .. . ... ... ... : ... .. E ... ... ... : ... .. . ... : ... .. C ... : ... .. . ... ... : ... .. 7 ... ... : ... .. . ... ... : ... .. D ... ...
ROW 3E : ... .. . ... ... ... : ... .. D ... ... ... : ... .. . ... : ... .. 6 ... : ... .. . ... ... : ... .. . ... ... : ... .. . ... ... : ... .. 8 ... ...
ROW 3F : ... .. . ... ... ... : ... .. A ... ... ... : ... .. . ... : ... .. 3 ... : ... .. . ... ... : ... .. 6 ... ... : ... .. . ... ... : ... .. . ... ...
ROW 40 : ... .. . ... ... ... : ... .. 2 ... ... ... : ... .. . ... : ... .. 2 ... : ... .. . ... ... : ... .. 5 ... ... : ... .. . ... ... : ... .. . ... ...
ROW 41 : ... .. . ... ... ... : ... .. . ... ... ... : --- .. . ... : ... .. 0 ... : ... .. . ... ... : ... .. . ... ... : ... .. . ... ... : --- .. . P7F ...
ROW 42 : E-5 00 A P7E ... ... : F#1 00 F ... ... ... : B-3 00 . ... : 6-# 00 F ... : ... .. . ... ... : C#4 01 7 ... V05 : ... .. . ... ... : B-2 01 F P80 ...
ROW 43 : ... .. . P7F ... ... : ... .. E ... ... ... : ... .. . ... : ... .. C ... : ... .. . ... ... : ... .. 6 ... ... : ... .. . ... ... : ... .. D ... ...
ROW 44 : ... .. . P7E ... ... : ... .. D ... ... ... : ... .. . ... : ... .. 6 ... : ... .. . ... ... : ... .. . ... ... : ... .. . ... ... : ... .. 8 ... ...
ROW 45 : D#5 00 A P80 ... ... : ... .. A ... ... ... : ... .. . ... : ... .. 3 ... : ... .. . ... ... : ... .. . ... ... : ... .. . ... ... : ... .. . ... ...
ROW 46 : D-5 00 A P82 ... ... : ... .. . ... ... ... : ... .. . ... : ... .. 2 ... : ... .. . ... ... : ... .. 5 ... ... : ... .. . ... ... : ... .. . ... ...
ROW 47 : ... .. . P81 ... ... : ... .. . ... ... ... : --- .. . ... : ... .. 0 ... : ... .. . ... ... : ... .. . ... ... : ... .. . ... ... : --- .. . P8B ...
ROW 48 : ... .. . P82 ... ... : G#1 00 F ... ... ... : D-4 00 . ... : 1-# 00 F ... : ... .. . ... ... : F#4 01 8 ... V03 : A#3 01 8 ... ... : D#1 01 F P80 ...
ROW 49 : D#5 00 A P80 ... ... : ... .. E ... ... ... : E-3 00 . ... : ... .. C ... : ... .. . ... ... : ... .. 7 ... ... : ... .. 7 ... ... : ... .. D ... ...
ROW 4A : E-5 00 A P7E ... ... : ... .. D ... ... ... : A-2 00 . ... : ... .. 6 ... : ... .. . ... ... : ... .. 6 ... ... : ... .. 6 ... ... : ... .. 8 ... ...
ROW 4B : ... .. . P7F ... ... : ... .. A ... ... ... : G#2 00 . ... : ... .. 3 ... : ... .. . ... ... : ... .. 5 ... ... : ... .. 5 ... ... : ... .. . ... ...
ROW 4C : ... .. . P7E ... ... : ... .. 2 ... ... ... : D#2 00 . ... : ... .. 2 ... : ... .. . ... ... : ... .. . ... ... : ... .. . ... ... : ... .. . ... ...
ROW 4D : D#5 00 A P80 ... ... : ... .. . ... ... ... : --- .. . ... : ... .. 0 ... : ... .. . ... ... : ... .. 4 ... ... : ... .. 4 ... ... : --- .. . P81 ...
ROW 4E : D-5 00 A P82 ... ... : ... .. F ... ... ... : D#2 00 . ... : D-# 00 F ... : ... .. . ... ... : C#4 01 8 ... V00 : B-3 01 8 ... ... : D#1 01 F P80 ...
ROW 4F : ... .. . P81 ... ... : ... .. E ... ... ... : ... .. . ... : ... .. C ... : ... .. . ... ... : ... .. 7 ... ... : ... .. 7 ... ... : ... .. D ... ...
ROW 50 : ... .. . P82 ... ... : ... .. D ... ... ... : ... .. . ... : ... .. 6 ... : ... .. . ... ... : ... .. . ... ... : ... .. 6 ... ... : ... .. 8 ... ...
ROW 51 : D#5 00 A P80 ... ... : ... .. A ... ... ... : ... .. . ... : ... .. 3 ... : ... .. . ... ... : ... .. 6 ... ... : ... .. 5 ... ... : ... .. . ... ...
ROW 52 : E-5 00 A P7E ... ... : ... .. 2 ... ... ... : ... .. . ... : ... .. 2 ... : ... .. . ... ... : ... .. 5 ... ... : ... .. . ... ... : ... .. . ... ...
ROW 53 : ... .. . P7F ... ... : ... .. . ... ... ... : --- .. . ... : ... .. 0 ... : ... .. . ... ... : ... .. . ... ... : ... .. 4 ... ... : --- .. . P81 ...
ROW 54 : ... .. . P7E ... ... : ... .. F ... ... ... : D#2 00 . ... : ... .. F ... : ... .. . ... ... : F#4 01 8 ... ... : A#3 01 8 ... ... : D#1 01 F P80 ...
ROW 55 : D#5 00 A P80 ... ... : ... .. E ... ... ... : ... .. . ... : ... .. C ... : ... .. . ... ... : ... .. 7 ... ... : ... .. 7 ... ... : ... .. D ... ...
ROW 56 : D-5 00 A P82 ... ... : ... .. D ... ... ... : ... .. . ... : ... .. 6 ... : ... .. . ... ... : ... .. . ... ... : ... .. 6 ... ... : ... .. 8 ... ...
ROW 57 : ... .. . P81 ... ... : ... .. A ... ... ... : ... .. . ... : ... .. 3 ... : ... .. . ... ... : ... .. 6 ... ... : ... .. 5 ... ... : ... .. . ... ...
ROW 58 : ... .. . P82 ... ... : ... .. 2 ... ... ... : ... .. . ... : ... .. 2 ... : ... .. . ... ... : ... .. 5 ... ... : ... .. . ... ... : ... .. . ... ...
ROW 59 : D#5 00 A P80 ... ... : ... .. . ... ... ... : --- .. . ... : ... .. 0 ... : ... .. . ... ... : ... .. . ... ... : ... .. 4 ... ... : --- .. . P81 ...
ROW 5A : E-5 00 A P7E ... ... : E-3 00 F ... ... ... : B-2 00 . ... : 8-# 00 F ... : ... .. . ... ... : G#4 01 7 ... V05 : G#3 01 8 ... ... : B-1 01 F P80 ...
ROW 5B : ... .. . P7F ... ... : ... .. E ... ... ... : ... .. . ... : ... .. C ... : ... .. . ... ... : ... .. 6 ... ... : ... .. 7 ... ... : ... .. D ... ...
ROW 5C : ... .. . P7E ... ... : ... .. D ... ... ... : ... .. . ... : ... .. 6 ... : ... .. . ... ... : ... .. . ... ... : ... .. 6 ... ... : ... .. 8 ... ...
ROW 5D : D#5 00 A P80 ... ... : ... .. A ... ... ... : ... .. . ... : ... .. 3 ... : ... .. . ... ... : ... .. . ... ... : ... .. 5 ... ... : ... .. . ... ...
ROW 5E : D-5 00 A P82 ... ... : ... .. . ... ... ... : ... .. . ... : ... .. 2 ... : ... .. . ... ... : ... .. 5 ... ... : ... .. . ... ... : ... .. . ... ...
ROW 5F : ... .. . P81 ... ... : ... .. . ... ... ... : --- .. . ... : ... .. 0 ... : ... .. . ... ... : ... .. . ... ... : ... .. 4 ... ... : --- .. . P86 ...
ROW 60 : ... .. . P82 ... ... : D#3 00 F ... ... ... : F#3 00 . ... : 4-# 00 F ... : ... .. . ... ... : F#4 01 8 ... V03 : ... .. . ... ... : F#2 01 F P80 ...
ROW 61 : D#5 00 A P80 ... ... : ... .. E ... ... ... : ... .. . ... : ... .. C ... : ... .. . ... ... : ... .. 7 ... ... : ... .. . ... ... : ... .. D ... ...
ROW 62 : E-5 00 A P7E ... ... : ... .. D ... ... ... : ... .. . ... : ... .. 6 ... : ... .. . ... ... : ... .. 6 ... ... : ... .. . ... ... : ... .. 8 ... ...
ROW 63 : ... .. . P7F ... ... : ... .. A ... ... ... : ... .. . ... : ... .. 3 ... : ... .. . ... ... : ... .. 5 ... ... : ... .. . ... ... : ... .. . ... ...
ROW 64 : ... .. . P7E ... ... : ... .. 2 ... ... ... : ... .. . ... : ... .. 2 ... : ... .. . ... ... : ... .. . ... ... : ... .. . ... ... : ... .. . ... ...
ROW 65 : D#5 00 A P80 ... ... : ... .. . ... ... ... : --- .. . ... : ... .. 0 ... : ... .. . ... ... : ... .. 4 ... ... : ... .. . ... ... : --- .. . P84 ...
ROW 66 : D-5 00 A P82 ... ... : G#1 00 F ... ... ... : C#4 00 . ... : 1-# 00 F ... : ... .. . ... ... : G#4 01 7 ... V05 : ... .. . ... ... : C#3 01 F P80 ...
ROW 67 : ... .. . P81 ... ... : ... .. E ... ... ... : ... .. . ... : ... .. C ... : ... .. . ... ... : ... .. 6 ... ... : ... .. . ... ... : ... .. D ... ...
ROW 68 : ... .. . P82 ... ... : ... .. D ... ... ... : ... .. . ... : ... .. 6 ... : ... .. . ... ... : ... .. . ... ... : ... .. . ... ... : ... .. 8 ... ...
ROW 69 : D#5 00 A P80 ... ... : ... .. A ... ... ... : ... .. . ... : ... .. 3 ... : ... .. . ... ... : ... .. 5 ... ... : ... .. . ... ... : ... .. . ... ...
ROW 6A : E-5 00 A P7E ... ... : ... .. 2 ... ... ... : ... .. . ... : ... .. 2 ... : ... .. . ... ... : ... .. . ... ... : ... .. . ... ... : ... .. . ... ...
ROW 6B : ... .. . P7F ... ... : ... .. . ... ... ... : --- .. . ... : ... .. 0 ... : ... .. . ... ... : ... .. 4 ... ... : ... .. . ... ... : --- .. . ... ...
ROW 6C : ... .. . P7E ... ... : C#3 00 F ... ... ... : D-4 00 . ... : 7-# 00 F ... : ... .. . ... ... : A#4 01 7 ... ... : D#3 01 8 ... ... : D#1 01 F ... ...
ROW 6D : D#5 00 A P80 ... ... : ... .. E ... ... ... : E-3 00 . ... : ... .. C ... : ... .. . ... ... : ... .. 6 ... ... : ... .. 7 ... ... : ... .. D ... ...
ROW 6E : D-5 00 A P82 ... ... : ... .. D ... ... ... : A-2 00 . ... : ... .. 6 ... : ... .. . ... ... : ... .. . ... ... : ... .. 6 ... ... : ... .. 8 ... ...
ROW 6F : ... .. . P81 ... ... : ... .. A ... ... ... : G#2 00 . ... : ... .. 3 ... : ... .. . ... ... : ... .. 5 ... ... : ... .. 5 ... ... : ... .. . ... ...
ROW 70 : ... .. . P82 ... ... : ... .. . ... ... ... : D#2 00 . ... : ... .. 2 ... : ... .. . ... ... : ... .. . ... ... : ... .. . ... ... : ... .. . ... ...
ROW 71 : D#5 00 A P80 ... ... : ... .. . ... ... ... : --- .. . ... : ... .. 0 ... : ... .. . ... ... : ... .. 4 ... ... : ... .. 4 ... ... : --- .. . P81 ...
ROW 72 : E-5 00 A P7E ... ... : D#3 00 F ... ... ... : A#3 00 . ... : 3-# 00 F ... : ... .. . ... ... : G#4 01 7 ... ... : G#3 01 8 ... ... : A#2 01 F P80 ...
ROW 73 : ... .. . P7F ... ... : ... .. E ... ... ... : ... .. . ... : ... .. C ... : ... .. . ... ... : ... .. 6 ... ... : ... .. 7 ... ... : ... .. D ... ...
ROW 74 : ... .. . P7E ... ... : ... .. D ... ... ... : ... .. . ... : ... .. 6 ... : ... .. . ... ... : ... .. . ... ... : ... .. 6 ... ... : ... .. 8 ... ...
ROW 75 : D#5 00 A P80 ... ... : ... .. A ... ... ... : ... .. . ... : ... .. 3 ... : ... .. . ... ... : ... .. . ... ... : ... .. 5 ... ... : ... .. . ... ...
ROW 76 : D-5 00 A P82 ... ... : ... .. 2 ... ... ... : ... .. . ... : ... .. 2 ... : ... .. . ... ... : ... .. 5 ... ... : ... .. . ... ... : ... .. . ... ...
ROW 77 : ... .. . P81 ... ... : ... .. . ... ... ... : --- .. . ... : ... .. 0 ... : ... .. . ... ... : ... .. . ... ... : ... .. 4 ... ... : --- .. . ... ...
ROW 78 : ... .. . P82 ... ... : B-2 00 F ... ... ... : B-3 00 . ... : 1-# 00 F ... : ... .. . ... ... : A#4 01 8 ... V00 : D#3 01 8 ... ... : B-2 01 F ... ...
ROW 79 : D#5 00 A P80 ... ... : ... .. E ... ... ... : ... .. . ... : ... .. C ... : ... .. . ... ... : ... .. 7 ... ... : ... .. 7 ... ... : ... .. D ... ...
ROW 7A : E-5 00 A P7E ... ... : ... .. D ... ... ... : ... .. . ... : ... .. 6 ... : ... .. . ... ... : ... .. . ... ... : ... .. 6 ... ... : ... .. 8 ... ...
ROW 7B : ... .. . P7F ... ... : ... .. A ... ... ... : ... .. . ... : ... .. 3 ... : ... .. . ... ... : ... .. 6 ... ... : ... .. 5 ... ... : ... .. . ... ...
ROW 7C : ... .. 2 P7E ... ... : ... .. 2 ... ... ... : ... .. . ... : ... .. 2 ... : ... .. . ... ... : ... .. 5 ... ... : ... .. . ... ... : ... .. . ... ...
ROW 7D : D#5 00 2 P80 ... ... : ... .. . ... ... ... : --- .. . ... : ... .. 0 ... : ... .. . ... ... : ... .. . ... ... : ... .. 4 ... ... : --- .. . P8B ...
ROW 7E : D-5 00 2 P82 ... ... : C#3 00 F ... ... ... : F#4 00 . ... : 6-# 00 F ... : ... .. . ... ... : B-4 01 8 ... V03 : B-2 01 8 ... ... : F#3 01 F P80 ...
ROW 7F : ... .. 1 P81 ... ... : ... .. E ... ... ... : ... .. . ... : ... .. C ... : ... .. . ... ... : ... .. 7 ... ... : ... .. 7 ... ... : ... .. D ... ...
ROW 80 : ... .. . P82 ... ... : ... .. D ... ... ... : ... .. . ... : ... .. 6 ... : ... .. . ... ... : ... .. 6 ... ... : ... .. 6 ... ... : ... .. 8 ... ...
ROW 81 : D#5 00 1 P80 ... ... : ... .. A ... ... ... : ... .. . ... : ... .. 3 ... : ... .. . ... ... : ... .. 5 ... ... : ... .. 5 ... ... : ... .. . ... ...
ROW 82 : ... .. 0 ... ... ... : ... .. . ... ... ... : ... .. . ... : ... .. 2 ... : ... .. . ... ... : ... .. . ... ... : ... .. . ... ... : ... .. . ... ...
ROW 83 : ... .. . ... ... ... : ... .. . ... ... ... : --- .. . ... : ... .. 0 ... : ... .. . ... ... : ... .. 4 ... ... : ... .. 4 ... ... : --- .. . P82 ...
ROW 84 : ... .. . ... ... ... : F#2 00 F ... ... ... : C#4 00 . ... : 2-# 00 F ... : ... .. . ... ... : A#4 01 8 ... V00 : ... .. . ... ... : C#3 01 F P80 ...
ROW 85 : ... .. . ... ... ... : ... .. E ... ... ... : ... .. . ... : ... .. C ... : ... .. . ... ... : ... .. 7 ... ... : ... .. . ... ... : ... .. D ... ...
ROW 86 : ... .. . ... ... ... : ... .. D ... ... ... : ... .. . ... : ... .. 6 ... : ... .. . ... ... : ... .. . ... ... : ... .. . ... ... : ... .. 8 ... ...
ROW 87 : ... .. . ... ... ... : ... .. A ... ... ... : ... .. . ... : ... .. 3 ... : ... .. . ... ... : ... .. 6 ... ... : ... .. . ... ... : ... .. . ... ...
ROW 88 : ... .. . ... ... ... : ... .. 2 ... ... ... : ... .. . ... : ... .. 2 ... : ... .. . ... ... : ... .. 5 ... ... : ... .. . ... ... : ... .. . ... ...
ROW 89 : ... .. . ... ... ... : ... .. . ... ... ... : --- .. . ... : ... .. 0 ... : ... .. . ... ... : ... .. . ... ... : ... .. . ... ... : --- .. . ... ...
ROW 8A : ... .. . ... ... ... : G#2 00 F ... ... ... : G#4 00 . ... : 1-# 00 F ... : ... .. . ... ... : B-4 01 7 ... V05 : ... .. . ... ... : G#3 01 F ... ...
ROW 8B : ... .. . ... ... ... : ... .. E ... ... ... : ... .. . ... : ... .. C ... : ... .. . ... ... : ... .. 6 ... ... : ... .. . ... ... : ... .. D ... ...
ROW 8C : ... .. . ... ... ... : ... .. D ... ... ... : ... .. . ... : ... .. 6 ... : ... .. . ... ... : ... .. . ... ... : ... .. . ... ... : ... .. 8 ... ...
ROW 8D : ... .. . ... ... ... : ... .. A ... ... ... : ... .. . ... : ... .. 3 ... : ... .. . ... ... : ... .. . ... ... : ... .. . ... ... : ... .. . ... ...
ROW 8E : ... .. . ... ... ... : ... .. 2 ... ... ... : ... .. . ... : ... .. 2 ... : ... .. . ... ... : ... .. 5 ... ... : ... .. . ... ... : ... .. . ... ...
ROW 8F : ... .. . ... ... ... : ... .. . ... ... ... : --- .. . ... : ... .. 0 ... : ... .. . ... ... : ... .. . ... ... : ... .. . ... ... : --- .. . P7F ...
ROW 90 : G#1 00 F P7D ... ... : D#1 00 F ... ... ... : D-4 00 . ... : ... .. F ... : ... .. . ... ... : G#4 01 8 ... V03 : G#2 01 8 ... ... : D#1 01 F P80 ...
ROW 91 : ... .. E P80 ... ... : ... .. E ... ... ... : E-3 00 . ... : ... .. C ... : ... .. . ... ... : ... .. 7 ... ... : ... .. 7 ... ... : ... .. D ... ...
ROW 92 : ... .. D P83 ... ... : ... .. D ... ... ... : A-2 00 . ... : ... .. 6 ... : ... .. . ... ... : ... .. 6 ... ... : ... .. 6 ... ... : ... .. 8 ... ...
ROW 93 : ... .. A P84 ... ... : ... .. A ... ... ... : G#2 00 . ... : ... .. 3 ... : ... .. . ... ... : --- .. . ... ... : --- .. . ... ... : ... .. . ... ...
ROW 94 : ... .. 2 P83 ... ... : ... .. 2 ... ... ... : D#2 00 . ... : ... .. 2 ... : ... .. . ... ... : ... .. . ... ... : ... .. . ... ... : ... .. . ... ...
ROW 95 : ... .. . P80 ... ... : ... .. . ... ... ... : --- .. . ... : ... .. 0 ... : ... .. . ... ... : ... .. . ... ... : ... .. . ... ... : --- .. . P81 ...
ROW 96 : ... .. F P7D ... ... : ... .. F ... ... ... : D#2 00 . ... : ... .. F ... : ... .. . ... ... : G#4 01 8 ... ... : G#2 01 8 ... ... : D#1 01 F P80 ...
ROW 97 : ... .. E P7C ... ... : ... .. E ... ... ... : ... .. . ... : ... .. C ... : ... .. . ... ... : ... .. 7 ... ... : ... .. 7 ... ... : ... .. D ... ...
ROW 98 : ... .. D P7D ... ... : ... .. D ... ... ... : ... .. . ... : ... .. 6 ... : ... .. . ... ... : ... .. 6 ... ... : ... .. 6 ... ... : ... .. 8 ... ...
ROW 99 : ... .. A P80 ... ... : ... .. A ... ... ... : ... .. . ... : ... .. 3 ... : ... .. . ... ... : --- .. . ... ... : --- .. . ... ... : ... .. . ... ...
ROW 9A : ... .. 2 P83 ... ... : ... .. 2 ... ... ... : ... .. . ... : ... .. 2 ... : ... .. . ... ... : ... .. . ... ... : ... .. . ... ... : ... .. . ... ...
ROW 9B : ... .. . P84 ... ... : ... .. . ... ... ... : --- .. . ... : ... .. 0 ... : ... .. . ... ... : ... .. . ... ... : ... .. . ... ... : --- .. . P81 ...
ROW 9C : ... .. F P83 ... ... : ... .. F ... ... ... : D#2 00 . ... : ... .. F ... : ... .. . ... ... : G#4 01 7 ... V05 : G#2 01 8 ... ... : D#1 01 F P80 ...
ROW 9D : ... .. E P80 ... ... : ... .. E ... ... ... : ... .. . ... : ... .. C ... : ... .. . ... ... : ... .. 6 ... ... : ... .. 7 ... ... : ... .. D ... ...
ROW 9E : ... .. D P7D ... ... : ... .. D ... ... ... : ... .. . ... : ... .. 6 ... : ... .. . ... ... : ... .. . ... ... : ... .. 6 ... ... : ... .. 8 ... ...
ROW 9F : ... .. A P7C ... ... : ... .. A ... ... ... : ... .. . ... : ... .. 3 ... : ... .. . ... ... : --- .. . ... ... : --- .. . ... ... : ... .. . ... ...
ROW A0 : ... .. 2 P7D ... ... : ... .. 2 ... ... ... : ... .. . ... : ... .. 2 ... : ... .. . ... ... : ... .. . ... ... : ... .. . ... ... : ... .. . ... ...
ROW A1 : ... .. . P80 ... ... : ... .. . ... ... ... : --- .. . ... : ... .. 0 ... : ... .. . ... ... : ... .. . ... ... : ... .. . ... ... : --- .. . P81 ...
ROW A2 : F#4 00 F P83 ... ... : C#4 00 F ... ... ... : C#5 00 . ... : B-# 00 F ... : ... .. . ... ... : F#5 01 8 ... V00 : C#3 01 8 ... ... : C#4 01 F P80 ...
ROW A3 : ... .. E P84 ... ... : ... .. E ... ... ... : ... .. . ... : ... .. . ... : ... .. . ... ... : ... .. 7 ... ... : ... .. 7 ... ... : ... .. D ... ...
ROW A4 : ... .. D P83 ... ... : ... .. D ... ... ... : ... .. . ... : ... .. . ... : ... .. . ... ... : ... .. . ... ... : ... .. 6 ... ... : ... .. 8 ... ...
ROW A5 : ... .. A P80 ... ... : ... .. A ... ... ... : ... .. . ... : ... .. D ... : ... .. . ... ... : ... .. 6 ... ... : ... .. 5 ... ... : ... .. . ... ...
ROW A6 : ... .. . P7D ... ... : ... .. . ... ... ... : ... .. . ... : ... .. . ... : ... .. . ... ... : ... .. 5 ... ... : ... .. . ... ... : ... .. . ... ...
ROW A7 : ... .. . P7C ... ... : ... .. . ... ... ... : ... .. . ... : ... .. . ... : ... .. . ... ... : ... .. . ... ... : ... .. 4 ... ... : ... .. . ... ...
ROW A8 : F-4 00 A P83 ... ... : D-4 00 A P7B ... ... : D-5 00 . P81 : ... .. C ... : ... .. . ... ... : ... .. 4 ... ... : ... .. . ... ... : D-4 01 8 P7A ...
ROW A9 : F#4 00 A P80 ... ... : ... .. . P7D ... ... : D#5 00 . P7E : ... .. . ... : ... .. . ... ... : ... .. . ... ... : ... .. . ... ... : ... .. . P7C ...
ROW AA : G-4 00 A P7F ... ... : C#4 00 A P86 ... ... : D-5 00 . P80 : ... .. . ... : ... .. . ... ... : ... .. . ... ... : ... .. . ... ... : C#4 01 8 P86 ...
ROW AB : ... .. . P81 ... ... : ... .. . P80 ... ... : C#5 00 . ... : ... .. A ... : ... .. . ... ... : G-5 01 4 P7E ... : ... .. . P83 ... : ... .. . P80 ...
ROW AC : ... .. . P7E ... ... : C-4 00 A P85 ... ... : C-5 00 . P7F : ... .. . ... : ... .. . ... ... : ... .. . P7F ... : ... .. . P84 ... : C-4 01 8 P86 ...
ROW AD : F#4 00 A P80 ... ... : ... .. . P83 ... ... : B-4 00 . P83 : ... .. . ... : ... .. . ... ... : ... .. . P7E ... : ... .. . P83 ... : ... .. . P84 ...
ROW AE : F-4 00 A P82 ... ... : ... .. . P86 ... ... : C-5 00 . P80 : ... .. 9 ... : ... .. . ... ... : F#5 01 4 P80 ... : ... .. . P80 ... : C#4 01 8 P7A ...
ROW AF : ... .. . P80 ... ... : C#4 00 A P80 ... ... : C#5 00 . ... : ... .. . ... : ... .. . ... ... : F-5 01 4 P81 ... : ... .. . P7D ... : ... .. . P80 ...
ROW B0 : ... .. . P83 ... ... : D-4 00 A P7B ... ... : D-5 00 . P81 : ... .. . ... : ... .. . ... ... : ... .. . P80 ... : ... .. . P7C ... : D-4 01 8 P7A ...
ROW B1 : F#4 00 A P80 ... ... : ... .. . P7D ... ... : D#5 00 . P7E : ... .. 8 ... : ... .. . ... ... : ... .. . P81 ... : ... .. . P7D ... : ... .. . P7C ...
ROW B2 : G-4 00 A P7F ... ... : C#4 00 A P86 ... ... : D-5 00 . P80 : ... .. . ... : ... .. . ... ... : F#5 01 4 P80 ... : ... .. . P80 ... : C#4 01 8 P86 ...
ROW B3 : ... .. . P81 ... ... : ... .. . P80 ... ... : C#5 00 . ... : ... .. . ... : ... .. . ... ... : G-5 01 4 P7E ... : ... .. . P83 ... : ... .. . P80 ...
ROW B4 : G#1 00 F P80 ... ... : D#1 00 F ... ... ... : D-4 00 . ... : 1-# 00 F ... : ... .. . ... ... : G#4 01 8 P80 V03 : G#2 01 8 P80 ... : D#1 01 F ... ...
ROW B5 : ... .. E ... ... ... : ... .. E ... ... ... : E-3 00 . ... : ... .. C ... : ... .. . ... ... : ... .. 7 ... ... : ... .. 7 ... ... : ... .. D ... ...
ROW B6 : ... .. D ... ... ... : ... .. D ... ... ... : A-2 00 . ... : ... .. 6 ... : ... .. . ... ... : ... .. 6 ... ... : ... .. 6 ... ... : ... .. 8 ... ...
ROW B7 : ... .. A ... ... ... : ... .. A ... ... ... : G#2 00 . ... : ... .. 3 ... : ... .. . ... ... : --- .. . ... ... : --- .. . ... ... : ... .. . ... ...
ROW B8 : ... .. 2 ... ... ... : ... .. 2 ... ... ... : D#2 00 . ... : ... .. 2 ... : ... .. . ... ... : ... .. . ... ... : ... .. . ... ... : ... .. . ... ...
ROW B9 : ... .. . ... ... ... : ... .. . ... ... ... : --- .. . ... : ... .. 0 ... : ... .. . ... ... : ... .. . ... ... : ... .. . ... ... : --- .. . P81 ...
ROW BA : ... .. F ... ... ... : ... .. F ... ... ... : D#2 00 . ... : ... .. F ... : ... .. . ... ... : G#4 01 7 ... V05 : G#2 01 8 ... ... : D#1 01 F P80 ...
ROW BB : ... .. E ... ... ... : ... .. E ... ... ... : ... .. . ... : ... .. C ... : ... .. . ... ... : ... .. 6 ... ... : ... .. 7 ... ... : ... .. D ... ...
ROW BC : ... .. D ... ... ... : ... .. D ... ... ... : ... .. . ... : ... .. 6 ... : ... .. . ... ... : ... .. . ... ... : ... .. 6 ... ... : ... .. 8 ... ...
ROW BD : ... .. A ... ... ... : ... .. A ... ... ... : ... .. . ... : ... .. 3 ... : ... .. . ... ... : --- .. . ... ... : --- .. . ... ... : ... .. . ... ...
ROW BE : ... .. 2 ... ... ... : ... .. 2 ... ... ... : ... .. . ... : ... .. 2 ... : ... .. . ... ... : ... .. . ... ... : ... .. . ... ... : ... .. . ... ...
ROW BF : ... .. . ... ... ... : ... .. . ... ... ... : --- .. . ... : ... .. 0 ... : ... .. . ... ... : ... .. . ... ... : ... .. . ... ... : --- .. . P81 ...
ROW C0 : ... .. F ... ... ... : ... .. F ... ... ... : D#2 00 . ... : ... .. F ... : ... .. . ... ... : G#4 01 8 ... V00 : G#2 01 8 ... ... : D#1 01 F P80 ...
ROW C1 : ... .. E ... ... ... : ... .. E ... ... ... : ... .. . ... : ... .. C ... : ... .. . ... ... : ... .. 7 ... ... : ... .. 7 ... ... : ... .. D ... ...
ROW C2 : ... .. D ... ... ... : ... .. D ... ... ... : ... .. . ... : ... .. 6 ... : ... .. . ... ... : ... .. . ... ... : ... .. 6 ... ... : ... .. 8 ... ...
ROW C3 : ... .. A ... ... ... : ... .. A ... ... ... : ... .. . ... : ... .. 3 ... : ... .. . ... ... : --- .. . ... ... : --- .. . ... ... : ... .. . ... ...
ROW C4 : ... .. 2 ... ... ... : ... .. 2 ... ... ... : ... .. . ... : ... .. 2 ... : ... .. . ... ... : ... .. . ... ... : ... .. . ... ... : ... .. . ... ...
ROW C5 : ... .. . ... ... ... : ... .. . ... ... ... : --- .. . ... : ... .. 0 ... : ... .. . ... ... : ... .. . ... ... : ... .. . ... ... : --- .. . P81 ...
ROW C6 : E-4 00 F ... ... ... : B-3 00 F ... ... ... : B-4 00 . ... : B-# 00 F ... : ... .. . ... ... : F#5 01 7 ... V05 : C#3 01 8 ... ... : B-3 01 F P80 ...
ROW C7 : ... .. E ... ... ... : ... .. E ... ... ... : ... .. . ... : ... .. . ... : ... .. . ... ... : ... .. 6 ... ... : ... .. 7 ... ... : ... .. D ... ...
ROW C8 : ... .. D ... ... ... : ... .. D ... ... ... : ... .. . ... : ... .. . ... : ... .. . ... ... : ... .. . ... ... : ... .. 6 ... ... : ... .. 8 ... ...
ROW C9 : ... .. A ... ... ... : ... .. A ... ... ... : ... .. . ... : ... .. D ... : ... .. . ... ... : ... .. 5 ... ... : ... .. 5 ... ... : ... .. . ... ...
ROW CA : ... .. . ... ... ... : ... .. . ... ... ... : ... .. . ... : ... .. . ... : ... .. . ... ... : ... .. . ... ... : ... .. . ... ... : ... .. . ... ...
ROW CB : ... .. . ... ... ... : ... .. . ... ... ... : ... .. . ... : ... .. . ... : ... .. . ... ... : ... .. 4 ... ... : ... .. 4 ... ... : ... .. . ... ...
ROW CC : F-4 00 A P7D ... ... : C-4 00 A P7B ... ... : C-5 00 . P81 : ... .. C ... : ... .. . ... ... : ... .. . ... ... : ... .. . ... ... : ... .. . P87 ...
ROW CD : ... .. . P7F ... ... : ... .. . P7D ... ... : ... .. . P83 : ... .. . ... : ... .. . ... ... : ... .. . ... ... : ... .. . ... ... : C-4 01 8 P7A ...
ROW CE : ... .. . P7C ... ... : B-3 00 A P86 ... ... : ... .. . P80 : ... .. . ... : ... .. . ... ... : ... .. 3 ... ... : ... .. . ... ... : B-3 01 8 P86 ...
ROW CF : E-4 00 A P80 ... ... : ... .. . P80 ... ... : B-4 00 . ... : ... .. A ... : ... .. . ... ... : G-5 01 3 P7E ... : ... .. . P83 ... : ... .. . P80 ...
ROW D0 : D#4 00 A P83 ... ... : A#3 00 A P87 ... ... : A#4 00 . ... : ... .. . ... : ... .. . ... ... : ... .. . P7F ... : ... .. . P84 ... : ... .. . P79 ...
ROW D1 : ... .. . P81 ... ... : ... .. . P85 ... ... : ... .. . P7E : ... .. . ... : ... .. . ... ... : ... .. 2 P7E ... : ... .. . P83 ... : A#3 01 8 P86 ...
ROW D2 : ... .. . P84 ... ... : B-3 00 A P7A ... ... : ... .. . P81 : ... .. 9 ... : ... .. . ... ... : F#5 01 2 P80 ... : ... .. . P80 ... : B-3 01 8 P7A ...
ROW D3 : E-4 00 A P80 ... ... : ... .. . P80 ... ... : B-4 00 . P80 : ... .. . ... : ... .. . ... ... : F-5 01 2 P81 ... : ... .. . P7D ... : ... .. . P80 ...
ROW D4 : F-4 00 A P7D ... ... : C-4 00 A P7B ... ... : C-5 00 . P81 : ... .. . ... : ... .. . ... ... : ... .. 1 P80 ... : ... .. . P7C ... : ... .. . P87 ...
ROW D5 : ... .. . P7F ... ... : ... .. . P7D ... ... : ... .. . P83 : ... .. 8 ... : ... .. . ... ... : ... .. . P81 ... : ... .. . P7D ... : C-4 01 8 P7A ...
ROW D6 : ... .. . P7C ... ... : B-3 00 A P86 ... ... : ... .. . P80 : ... .. . ... : ... .. . ... ... : F#5 01 1 P80 ... : ... .. . P80 ... : B-3 01 8 P86 ...
ROW D7 : E-4 00 A P80 ... ... : ... .. . P80 ... ... : B-4 00 . ... : ... .. . ... : ... .. . ... ... : G-5 01 1 P7E ... : ... .. . P83 ... : ... .. . P80 ...
ROW D8 : B-2 00 F ... ... ... : F#2 00 F ... ... ... : D-4 00 . ... : 1-# 00 F ... : ... .. . ... ... : C#5 01 8 P80 V00 : D#3 01 8 P80 ... : D#1 01 F ... ...
ROW D9 : ... .. E ... ... ... : ... .. E ... ... ... : E-3 00 . ... : ... .. C ... : ... .. . ... ... : ... .. 7 ... ... : ... .. 7 ... ... : ... .. D ... ...
ROW DA : ... .. D ... ... ... : ... .. D ... ... ... : A-2 00 . ... : ... .. 6 ... : ... .. . ... ... : ... .. . ... ... : ... .. 6 ... ... : ... .. 8 ... ...
ROW DB : ... .. A ... ... ... : ... .. A ... ... ... : G#2 00 . ... : ... .. 3 ... : ... .. . ... ... : ... .. 6 ... ... : ... .. 5 ... ... : ... .. . ... ...
ROW DC : ... .. 2 ... ... ... : ... .. 2 ... ... ... : D#2 00 . ... : ... .. 2 ... : ... .. . ... ... : ... .. 5 ... ... : ... .. . ... ... : ... .. . ... ...
ROW DD : ... .. . ... ... ... : ... .. . ... ... ... : --- .. . ... : ... .. 0 ... : ... .. . ... ... : ... .. . ... ... : ... .. 4 ... ... : --- .. . P81 ...
ROW DE : ... .. F ... ... ... : ... .. F ... ... ... : D#2 00 . ... : ... .. F ... : ... .. . ... ... : D#5 01 8 ... ... : C#3 01 8 ... ... : D#1 01 F P80 ...
ROW DF : ... .. E ... ... ... : ... .. E ... ... ... : ... .. . ... : ... .. C ... : ... .. . ... ... : ... .. 7 ... ... : ... .. 7 ... ... : ... .. D ... ...
ROW E0 : ... .. D ... ... ... : ... .. D ... ... ... : ... .. . ... : ... .. 6 ... : ... .. . ... ... : ... .. . ... ... : ... .. 6 ... ... : ... .. 8 ... ...
ROW E1 : ... .. A ... ... ... : ... .. A ... ... ... : ... .. . ... : ... .. 3 ... : ... .. . ... ... : ... .. 6 ... ... : ... .. 5 ... ... : ... .. . ... ...
ROW E2 : ... .. 2 ... ... ... : ... .. 2 ... ... ... : ... .. . ... : ... .. 2 ... : ... .. . ... ... : ... .. 5 ... ... : ... .. . ... ... : ... .. . ... ...
ROW E3 : ... .. . ... ... ... : ... .. . ... ... ... : --- .. . ... : ... .. 0 ... : ... .. . ... ... : ... .. . ... ... : ... .. 4 ... ... : --- .. . P81 ...
ROW E4 : ... .. F ... ... ... : ... .. F ... ... ... : F#3 00 . ... : ... .. F ... : ... .. . ... ... : B-4 01 7 ... V05 : B-2 01 8 ... ... : F#2 01 F P80 ...
ROW E5 : ... .. E ... ... ... : ... .. E ... ... ... : ... .. . ... : ... .. C ... : ... .. . ... ... : ... .. 6 ... ... : ... .. 7 ... ... : ... .. D ... ...
ROW E6 : ... .. D ... ... ... : ... .. D ... ... ... : ... .. . ... : ... .. 6 ... : ... .. . ... ... : ... .. . ... ... : ... .. 6 ... ... : ... .. 8 ... ...
ROW E7 : ... .. A ... ... ... : ... .. A ... ... ... : ... .. . ... : ... .. 3 ... : ... .. . ... ... : ... .. 5 ... ... : ... .. 5 ... ... : ... .. . ... ...
ROW E8 : ... .. 2 ... ... ... : ... .. 2 ... ... ... : ... .. . ... : ... .. 2 ... : ... .. . ... ... : ... .. . ... ... : ... .. . ... ... : ... .. . ... ...
ROW E9 : ... .. . ... ... ... : ... .. . ... ... ... : --- .. . ... : ... .. 0 ... : ... .. . ... ... : ... .. 4 ... ... : ... .. 4 ... ... : --- .. . P84 ...
ROW EA : F#2 00 F ... ... ... : C#2 00 F ... ... ... : G#3 00 . ... : A-# 00 F ... : ... .. . ... ... : G#4 01 7 ... ... : C#3 01 8 ... ... : G#2 01 F P80 ...
ROW EB : ... .. E ... ... ... : ... .. E ... ... ... : ... .. . ... : ... .. C ... : ... .. . ... ... : ... .. 6 ... ... : ... .. 7 ... ... : ... .. D ... ...
ROW EC : ... .. D ... ... ... : ... .. D ... ... ... : ... .. . ... : ... .. 6 ... : ... .. . ... ... : ... .. . ... ... : ... .. 6 ... ... : ... .. 8 ... ...
ROW ED : ... .. A ... ... ... : ... .. A ... ... ... : ... .. . ... : ... .. 3 ... : ... .. . ... ... : ... .. 5 ... ... : ... .. 5 ... ... : ... .. . ... ...
ROW EE : ... .. 2 ... ... ... : ... .. 2 ... ... ... : ... .. . ... : ... .. 2 ... : ... .. . ... ... : ... .. . ... ... : ... .. . ... ... : ... .. . ... ...
ROW EF : ... .. . ... ... ... : ... .. . ... ... ... : --- .. . ... : ... .. 0 ... : ... .. . ... ... : ... .. 4 ... ... : ... .. 4 ... ... : --- .. . P7F ...
ROW F0 : ... .. F ... ... ... : ... .. F ... ... ... : B-2 00 . ... : 5-# 00 F ... : ... .. . ... ... : D#4 01 7 ... ... : B-2 01 8 ... ... : B-1 01 F P80 ...
ROW F1 : ... .. E ... ... ... : ... .. E ... ... ... : ... .. . ... : ... .. C ... : ... .. . ... ... : ... .. 6 ... ... : ... .. 7 ... ... : ... .. D ... ...
ROW F2 : ... .. D ... ... ... : ... .. D ... ... ... : ... .. . ... : ... .. 6 ... : ... .. . ... ... : ... .. . ... ... : ... .. 6 ... ... : ... .. 8 ... ...
ROW F3 : ... .. A ... ... ... : ... .. A ... ... ... : ... .. . ... : ... .. 3 ... : ... .. . ... ... : ... .. . ... ... : ... .. 5 ... ... : ... .. . ... ...
ROW F4 : ... .. 2 ... ... ... : ... .. 2 ... ... ... : ... .. . ... : ... .. 2 ... : ... .. . ... ... : ... .. 5 ... ... : ... .. . ... ... : ... .. . ... ...
ROW F5 : ... .. . ... ... ... : ... .. . ... ... ... : --- .. . ... : ... .. 0 ... : ... .. . ... ... : ... .. . ... ... : ... .. 4 ... ... : --- .. . P86 ...
ROW F6 : ... .. F ... ... ... : ... .. F ... ... ... : C#3 00 . ... : 3-# 00 F ... : ... .. . ... ... : C#4 01 8 ... V00 : A#2 01 8 ... ... : C#2 01 F P80 ...
ROW F7 : ... .. E ... ... ... : ... .. E ... ... ... : ... .. . ... : ... .. C ... : ... .. . ... ... : ... .. 7 ... ... : ... .. 7 ... ... : ... .. D ... ...
ROW F8 : ... .. D ... ... ... : ... .. D ... ... ... : ... .. . ... : ... .. 6 ... : ... .. . ... ... : ... .. . ... ... : ... .. 6 ... ... : ... .. 8 ... ...
ROW F9 : ... .. A ... ... ... : ... .. A ... ... ... : ... .. . ... : ... .. 3 ... : ... .. . ... ... : ... .. 6 ... ... : ... .. 5 ... ... : ... .. . ... ...
ROW FA : ... .. 2 ... ... ... : ... .. 2 ... ... ... : ... .. . ... : ... .. 2 ... : ... .. . ... ... : ... .. 5 ... ... : ... .. . ... ... : ... .. . ... ...
ROW FB : ... .. . ... ... ... : ... .. . ... ... ... : --- .. . ... : ... .. 0 ... : ... .. . ... ... : ... .. . ... ... : ... .. 4 ... ... : --- .. . ... ...
ROW FC : C#2 00 F ... ... ... : G#1 00 F ... ... ... : F-5 00 . ... : 8-# 00 F ... : ... .. . ... ... : B-3 01 8 ... ... : B-2 01 8 ... ... : F#2 01 F ... ...
ROW FD : ... .. E ... ... ... : ... .. E ... ... ... : G-4 00 . ... : ... .. C ... : ... .. . ... ... : ... .. 7 ... ... : ... .. 7 ... ... : ... .. D ... ...
ROW FE : ... .. D ... ... ... : ... .. D ... ... ... : C-4 00 . ... : ... .. 6 ... : ... .. . ... ... : ... .. . ... ... : ... .. 6 ... ... : ... .. 8 ... ...
ROW FF : ... .. A ... ... ... : ... .. A ... ... ... : B-3 00 . ... : ... .. 3 ... : ... .. . ... ... : ... .. 6 ... ... : ... .. 5 ... ... : ... .. . ... ...

PATTERN 1C
ROW 00 : ... .. 2 ... ... ... : ... .. 2 ... ... ... : F#3 00 . ... : ... .. 2 ... : ... .. . ... ... : ... .. 5 ... ... : ... .. . ... ... : ... .. . ... ...
ROW 01 : ... .. . ... ... ... : ... .. . ... ... ... : --- .. . ... : ... .. 0 ... : ... .. . ... ... : ... .. . ... ... : ... .. 4 ... ... : --- .. . P84 ...
ROW 02 : ... .. F ... ... ... : ... .. F ... ... ... : B-3 00 . ... : 7-# 00 F ... : ... .. . ... ... : C#4 01 7 ... V05 : A#2 01 8 ... ... : B-2 01 F P80 ...
ROW 03 : ... .. E ... ... ... : ... .. E ... ... ... : ... .. . ... : ... .. C ... : ... .. . ... ... : ... .. 6 ... ... : ... .. 7 ... ... : ... .. D ... ...
ROW 04 : ... .. D ... ... ... : ... .. D ... ... ... : ... .. . ... : ... .. 6 ... : ... .. . ... ... : ... .. . ... ... : ... .. 6 ... ... : ... .. 8 ... ...
ROW 05 : ... .. A ... ... ... : ... .. A ... ... ... : ... .. . ... : ... .. 3 ... : ... .. . ... ... : ... .. . ... ... : ... .. 5 ... ... : ... .. . ... ...
ROW 06 : ... .. 2 ... ... ... : ... .. 2 ... ... ... : ... .. . ... : ... .. 2 ... : ... .. . ... ... : ... .. 5 ... ... : ... .. . ... ... : ... .. . ... ...
ROW 07 : ... .. . ... ... ... : ... .. . ... ... ... : --- .. . ... : ... .. 0 ... : ... .. . ... ... : ... .. . ... ... : ... .. 4 ... ... : --- .. . P8B ...
ROW 08 : ... .. F ... ... ... : ... .. F ... ... ... : G#3 00 . ... : 6-# 00 F ... : ... .. . ... ... : D#4 01 7 ... ... : G#2 01 8 ... ... : G#2 01 F P80 ...
ROW 09 : ... .. E ... ... ... : ... .. E ... ... ... : ... .. . ... : ... .. C ... : ... .. . ... ... : ... .. 6 ... ... : ... .. 7 ... ... : ... .. D ... ...
ROW 0A : ... .. D ... ... ... : ... .. D ... ... ... : ... .. . ... : ... .. 6 ... : ... .. . ... ... : ... .. . ... ... : ... .. 6 ... ... : ... .. 8 ... ...
ROW 0B : ... .. A ... ... ... : ... .. A ... ... ... : ... .. . ... : ... .. 3 ... : ... .. . ... ... : ... .. 5 ... ... : ... .. 5 ... ... : ... .. . ... ...
ROW 0C : ... .. 2 ... ... ... : ... .. 2 ... ... ... : ... .. . ... : ... .. 2 ... : ... .. . ... ... : ... .. . ... ... : ... .. . ... ... : ... .. . ... ...
ROW 0D : ... .. . ... ... ... : ... .. . ... ... ... : --- .. . ... : ... .. 0 ... : ... .. . ... ... : ... .. 4 ... ... : ... .. 4 ... ... : --- .. . P7F ...
ROW 0E : F#1 00 F ... ... ... : C#1 00 F ... ... ... : D#4 00 . ... : 5-# 00 F ... : ... .. . ... ... : G#3 01 7 ... ... : A#2 01 8 ... ... : D#3 01 F P80 ...
ROW 0F : ... .. E ... ... ... : ... .. E ... ... ... : ... .. . ... : ... .. C ... : ... .. . ... ... : ... .. 6 ... ... : ... .. 7 ... ... : ... .. D ... ...
ROW 10 : ... .. D ... ... ... : ... .. D ... ... ... : ... .. . ... : ... .. 6 ... : ... .. . ... ... : ... .. . ... ... : ... .. 6 ... ... : ... .. 8 ... ...
ROW 11 : ... .. A ... ... ... : ... .. A ... ... ... : ... .. . ... : ... .. 3 ... : ... .. . ... ... : ... .. . ... ... : ... .. 5 ... ... : ... .. . ... ...
ROW 12 : ... .. 2 ... ... ... : ... .. 2 ... ... ... : ... .. . ... : ... .. 2 ... : ... .. . ... ... : ... .. 5 ... ... : ... .. . ... ... : ... .. . ... ...
ROW 13 : ... .. . ... ... ... : ... .. . ... ... ... : --- .. . ... : ... .. 0 ... : ... .. . ... ... : ... .. . ... ... : ... .. 4 ... ... : --- .. . P7F ...
ROW 14 : ... .. F ... ... ... : ... .. F ... ... ... : G#4 00 . ... : 4-# 00 F ... : ... .. . ... ... : D#3 01 8 ... V03 : G#2 01 8 ... ... : G#3 01 F P80 ...
ROW 15 : ... .. E ... ... ... : ... .. E ... ... ... : ... .. . ... : ... .. C ... : ... .. . ... ... : ... .. 7 ... ... : ... .. 7 ... ... : ... .. D ... ...
ROW 16 : ... .. D ... ... ... : ... .. D ... ... ... : ... .. . ... : ... .. 6 ... : ... .. . ... ... : ... .. 6 ... ... : ... .. 6 ... ... : ... .. 8 ... ...
ROW 17 : ... .. A ... ... ... : ... .. A ... ... ... : ... .. . ... : ... .. 3 ... : ... .. . ... ... : ... .. 5 ... ... : ... .. 5 ... ... : ... .. . ... ...
ROW 18 : ... .. 2 ... ... ... : ... .. 2 ... ... ... : ... .. . ... : ... .. 2 ... : ... .. . ... ... : ... .. . ... ... : ... .. . ... ... : ... .. . ... ...
ROW 19 : ... .. . ... ... ... : ... .. . ... ... ... : --- .. . ... : ... .. 0 ... : ... .. . ... ... : ... .. 4 ... ... : ... .. 4 ... ... : --- .. . P7F ...
ROW 1A : ... .. F ... ... ... : ... .. F ... ... ... : F#2 00 . ... : 3-# 00 F ... : ... .. . ... ... : B-2 01 8 ... V00 : F#2 01 8 ... ... : F#1 01 F P80 ...
ROW 1B : ... .. E ... ... ... : ... .. E ... ... ... : ... .. . ... : ... .. C ... : ... .. . ... ... : ... .. 7 ... ... : ... .. 7 ... ... : ... .. D ... ...
ROW 1C : ... .. D ... ... ... : ... .. D ... ... ... : ... .. . ... : ... .. 6 ... : ... .. . ... ... : ... .. . ... ... : ... .. 6 ... ... : ... .. 8 ... ...
ROW 1D : ... .. A ... ... ... : ... .. A ... ... ... : ... .. . ... : ... .. 3 ... : ... .. . ... ... : ... .. 6 ... ... : ... .. 5 ... ... : ... .. . ... ...
ROW 1E : ... .. 2 ... ... ... : ... .. 2 ... ... ... : ... .. . ... : ... .. 2 ... : ... .. . ... ... : ... .. 5 ... ... : ... .. . ... ... : ... .. . ... ...
ROW 1F : ... .. . ... ... ... : ... .. . ... ... ... : ... .. . ... : ... .. . ... : ... .. . ... ... : ... .. . ... ... : ... .. . ... ... : ... .. . ... ...
ROW 20 : ... .. . ... ... ... : ... .. . ... ... ... : ... .. . ... : ... .. . ... : ... .. . ... ... : ... .. . ... ... : ... .. . ... ... : ... .. . ... ...
ROW 21 : ... .. . ... ... ... : ... .. . ... ... ... : ... .. . ... : ... .. . ... : ... .. . ... ... : ... .. . ... ... : ... .. . ... ... : ... .. . ... ...
ROW 22 : ... .. . ... ... ... : ... .. . ... ... ... : ... .. . ... : ... .. . ... : ... .. . ... ... : ... .. . ... ... : ... .. . ... ... : ... .. . ... ...
ROW 23 : ... .. . ... ... ... : ... .. . ... ... ... : ... .. . ... : ... .. . ... : ... .. . ... ... : ... .. . ... ... : ... .. . ... ... : ... .. . ... ...
ROW 24 : ... .. . ... ... ... : ... .. . ... ... ... : ... .. . ... : ... .. . ... : ... .. . ... ... : ... .. . ... ... : ... .. . ... ... : ... .. . ... ...
ROW 25 : ... .. . ... ... ... : ... .. . ... ... ... : ... .. . ... : ... .. . ... : ... .. . ... ... : ... .. . ... ... : ... .. . ... ... : ... .. . ... ...
ROW 26 : ... .. . ... ... ... : ... .. . ... ... ... : ... .. . ... : ... .. . ... : ... .. . ... ... : ... .. . ... ... : ... .. . ... ... : ... .. . ... ...
ROW 27 : ... .. . ... ... ... : ... .. . ... ... ... : ... .. . ... : ... .. . ... : ... .. . ... ... : ... .. . ... ... : ... .. . ... ... : ... .. . ... ...
ROW 28 : ... .. . ... ... ... : ... .. . ... ... ... : ... .. . ... : ... .. . ... : ... .. . ... ... : ... .. . ... ... : ... .. . ... ... : ... .. . ... ...
ROW 29 : ... .. . ... ... ... : ... .. . ... ... ... : ... .. . ... : ... .. . ... : ... .. . ... ... : ... .. . ... ... : ... .. . ... ... : ... .. . ... ...
ROW 2A : ... .. . ... ... ... : ... .. . ... ... ... : ... .. . ... : ... .. . ... : ... .. . ... ... : ... .. . ... ... : ... .. . ... ... : ... .. . ... ...
ROW 2B : ... .. . ... ... ... : ... .. . ... ... ... : ... .. . ... : ... .. . ... : ... .. . ... ... : ... .. . ... ... : ... .. . ... ... : ... .. . ... ...
ROW 2C : ... .. . ... ... ... : ... .. . ... ... ... : ... .. . ... : ... .. . ... : ... .. . ... ... : ... .. . ... ... : ... .. . ... ... : ... .. . ... ...
ROW 2D : ... .. . ... ... ... : ... .. . ... ... ... : ... .. . ... : ... .. . ... : ... .. . ... ... : ... .. . ... ... : ... .. . ... ... : ... .. . ... ...
ROW 2E : ... .. . ... ... ... : ... .. . ... ... ... : ... .. . ... : ... .. . ... : ... .. . ... ... : ... .. . ... ... : ... .. . ... ... : ... .. . ... ...
ROW 2F : ... .. . ... ... ... : ... .. . ... ... ... : ... .. . ... : ... .. . ... : ... .. . ... ... : ... .. . ... ... : ... .. . ... ... : ... .. . ... ...
ROW 30 : ... .. . ... ... ... : ... .. . ... ... ... : ... .. . ... : ... .. . ... : ... .. . ... ... : ... .. . ... ... : ... .. . ... ... : ... .. . ... ...
ROW 31 : ... .. . ... ... ... : ... .. . ... ... ... : ... .. . ... : ... .. . ... : ... .. . ... ... : ... .. . ... ... : ... .. . ... ... : ... .. . ... ...
ROW 32 : ... .. . ... ... ... : ... .. . ... ... ... : ... .. . ... : ... .. . ... : ... .. . ... ... : ... .. . ... ... : ... .. . ... ... : ... .. . ... ...
ROW 33 : ... .. . ... ... ... : ... .. . ... ... ... : ... .. . ... : ... .. . ... : ... .. . ... ... : ... .. . ... ... : ... .. . ... ... : ... .. . ... ...
ROW 34 : ... .. . ... ... ... : ... .. . ... ... ... : ... .. . ... : ... .. . ... : ... .. . ... ... : ... .. . ... ... : ... .. . ... ... : ... .. . ... ...
ROW 35 : ... .. . ... ... ... : ... .. . ... ... ... : ... .. . ... : ... .. . ... : ... .. . ... ... : ... .. . ... ... : ... .. . ... ... : ... .. . ... ...
ROW 36 : ... .. . ... ... ... : ... .. . ... ... ... : ... .. . ... : ... .. . ... : ... .. . ... ... : ... .. . ... ... : ... .. . ... ... : ... .. . ... ...
ROW 37 : ... .. . ... ... ... : ... .. . ... ... ... : ... .. . ... : ... .. . ... : ... .. . ... ... : ... .. . ... ... : ... .. . ... ... : ... .. . ... ...
ROW 38 : ... .. . ... ... ... : ... .. . ... ... ... : ... .. . ... : ... .. . ... : ... .. . ... ... : ... .. . ... ... : ... .. . ... ... : ... .. . ... ...
ROW 39 : ... .. . ... ... ... : ... .. . ... ... ... : ... .. . ... : ... .. . ... : ... .. . ... ... : ... .. . ... ... : ... .. . ... ... : ... .. . ... ...
ROW 3A : ... .. . ... ... ... : ... .. . ... ... ... : ... .. . ... : ... .. . ... : ... .. . ... ... : ... .. . ... ... : ... .. . ... ... : ... .. . ... ...
ROW 3B : ... .. . ... ... ... : ... .. . ... ... ... : ... .. . ... : ... .. . ... : ... .. . ... ... : ... .. . ... ... : ... .. . ... ... : ... .. . ... ...
ROW 3C : ... .. . ... ... ... : ... .. . ... ... ... : ... .. . ... : ... .. . ... : ... .. . ... ... : ... .. . ... ... : ... .. . ... ... : ... .. . ... ...
ROW 3D : ... .. . ... ... ... : ... .. . ... ... ... : ... .. . ... : ... .. . ... : ... .. . ... ... : ... .. . ... ... : ... .. . ... ... : ... .. . ... ...
ROW 3E : ... .. . ... ... ... : ... .. . ... ... ... : ... .. . ... : ... .. . ... : ... .. . ... ... : ... .. . ... ... : ... .. . ... ... : ... .. . ... ...
ROW 3F : ... .. . ... ... ... : ... .. . ... ... ... : ... .. . ... : ... .. . ... : ... .. . ... ... : ... .. . ... ... : ... .. . ... ... : ... .. . ... ...
ROW 40 : ... .. . ... ... ... : ... .. . ... ... ... : ... .. . ... : ... .. . ... : ... .. . ... ... : ... .. . ... ... : ... .. . ... ... : ... .. . ... ...
ROW 41 : ... .. . ... ... ... : ... .. . ... ... ... : ... .. . ... : ... .. . ... : ... .. . ... ... : ... .. . ... ... : ... .. . ... ... : ... .. . ... ...
ROW 42 : ... .. . ... ... ... : ... .. . ... ... ... : ... .. . ... : ... .. . ... : ... .. . ... ... : ... .. . ... ... : ... .. . ... ... : ... .. . ... ...
ROW 43 : ... .. . ... ... ... : ... .. . ... ... ... : ... .. . ... : ... .. . ... : ... .. . ... ... : ... .. . ... ... : ... .. . ... ... : ... .. . ... ...
ROW 44 : ... .. . ... ... ... : ... .. . ... ... ... : ... .. . ... : ... .. . ... : ... .. . ... ... : ... .. . ... ... : ... .. . ... ... : ... .. . ... ...
ROW 45 : ... .. . ... ... ... : ... .. . ... ... ... : ... .. . ... : ... .. . ... : ... .. . ... ... : ... .. . ... ... : ... .. . ... ... : ... .. . ... ...
ROW 46 : ... .. . ... ... ... : ... .. . ... ... ... : ... .. . ... : ... .. . ... : ... .. . ... ... : ... .. . ... ... : ... .. . ... ... : ... .. . ... ...
ROW 47 : ... .. . ... ... ... : ... .. . ... ... ... : ... .. . ... : ... .. . ... : ... .. . ... ... : ... .. . ... ... : ... .. . ... ... : ... .. . ... ...
ROW 48 : ... .. . ... ... ... : ... .. . ... ... ... : ... .. . ... : ... .. . ... : ... .. . ... ... : ... .. . ... ... : ... .. . ... ... : ... .. . ... ...
ROW 49 : ... .. . ... ... ... : ... .. . ... ... ... : ... .. . ... : ... .. . ... : ... .. . ... ... : ... .. . ... ... : ... .. . ... ... : ... .. . ... ...
ROW 4A : ... .. . ... ... ... : ... .. . ... ... ... : ... .. . ... : ... .. . ... : ... .. . ... ... : ... .. . ... ... : ... .. . ... ... : ... .. . ... ...
ROW 4B : ... .. . ... ... ... : ... .. . ... ... ... : ... .. . ... : ... .. . ... : ... .. . ... ... : ... .. . ... ... : ... .. . ... ... : ... .. . ... ...
ROW 4C : ... .. . ... ... ... : ... .. . ... ... ... : ... .. . ... : ... .. . ... : ... .. . ... ... : ... .. . ... ... : ... .. . ... ... : ... .. . ... ...
ROW 4D : ... .. . ... ... ... : ... .. . ... ... ... : ... .. . ... : ... .. . ... : ... .. . ... ... : ... .. . ... ... : ... .. . ... ... : ... .. . ... ...
ROW 4E : ... .. . ... ... ... : ... .. . ... ... ... : ... .. . ... : ... .. . ... : ... .. . ... ... : ... .. . ... ... : ... .. . ... ... : ... .. . ... ...
ROW 4F : ... .. . ... ... ... : ... .. . ... ... ... : ... .. . ... : ... .. . ... : ... .. . ... ... : ... .. . ... ... : ... .. . ... ... : ... .. . ... ...
ROW 50 : ... .. . ... ... ... : ... .. . ... ... ... : ... .. . ... : ... .. . ... : ... .. . ... ... : ... .. . ... ... : ... .. . ... ... : ... .. . ... ...
ROW 51 : ... .. . ... ... ... : ... .. . ... ... ... : ... .. . ... : ... .. . ... : ... .. . ... ... : ... .. . ... ... : ... .. . ... ... : ... .. . ... ...
ROW 52 : ... .. . ... ... ... : ... .. . ... ... ... : ... .. . ... : ... .. . ... : ... .. . ... ... : ... .. . ... ... : ... .. . ... ... : ... .. . ... ...
ROW 53 : ... .. . ... ... ... : ... .. . ... ... ... : ... .. . ... : ... .. . ... : ... .. . ... ... : ... .. . ... ... : ... .. . ... ... : ... .. . ... ...
ROW 54 : ... .. . ... ... ... : ... .. . ... ... ... : ... .. . ... : ... .. . ... : ... .. . ... ... : ... .. . ... ... : ... .. . ... ... : ... .. . ... ...
ROW 55 : ... .. . ... ... ... : ... .. . ... ... ... : ... .. . ... : ... .. . ... : ... .. . ... ... : ... .. . ... ... : ... .. . ... ... : ... .. . ... ...
ROW 56 : ... .. . ... ... ... : ... .. . ... ... ... : ... .. . ... : ... .. . ... : ... .. . ... ... : ... .. . ... ... : ... .. . ... ... : ... .. . ... ...
ROW 57 : ... .. . ... ... ... : ... .. . ... ... ... : ... .. . ... : ... .. . ... : ... .. . ... ... : ... .. . ... ... : ... .. . ... ... : ... .. . ... ...
ROW 58 : ... .. . ... ... ... : ... .. . ... ... ... : ... .. . ... : ... .. . ... : ... .. . ... ... : ... .. . ... ... : ... .. . ... ... : ... .. . ... ...
ROW 59 : ... .. . ... ... ... : ... .. . ... ... ... : ... .. . ... : ... .. . ... : ... .. . ... ... : ... .. . ... ... : ... .. . ... ... : ... .. . ... ...
ROW 5A : ... .. . ... ... ... : ... .. . ... ... ... : ... .. . ... : ... .. . ... : ... .. . ... ... : ... .. . ... ... : ... .. . ... ... : ... .. . ... ...
ROW 5B : ... .. . ... ... ... : ... .. . ... ... ... : ... .. . ... : ... .. . ... : ... .. . ... ... : ... .. . ... ... : ... .. . ... ... : ... .. . ... ...
ROW 5C : ... .. . ... ... ... : ... .. . ... ... ... : ... .. . ... : ... .. . ... : ... .. . ... ... : ... .. . ... ... : ... .. . ... ... : ... .. . ... ...
ROW 5D : ... .. . ... ... ... : ... .. . ... ... ... : ... .. . ... : ... .. . ... : ... .. . ... ... : ... .. . ... ... : ... .. . ... ... : ... .. . ... ...
ROW 5E : ... .. . ... ... ... : ... .. . ... ... ... : ... .. . ... : ... .. . ... : ... .. . ... ... : ... .. . ... ... : ... .. . ... ... : ... .. . ... ...
ROW 5F : ... .. . ... ... ... : ... .. . ... ... ... : ... .. . ... : ... .. . ... : ... .. . ... ... : ... .. . ... ... : ... .. . ... ... : ... .. . ... ...
ROW 60 : ... .. . ... ... ... : ... .. . ... ... ... : ... .. . ... : ... .. . ... : ... .. . ... ... : ... .. . ... ... : ... .. . ... ... : ... .. . ... ...
ROW 61 : ... .. . ... ... ... : ... .. . ... ... ... : ... .. . ... : ... .. . ... : ... .. . ... ... : ... .. . ... ... : ... .. . ... ... : ... .. . ... ...
ROW 62 : ... .. . ... ... ... : ... .. . ... ... ... : ... .. . ... : ... .. . ... : ... .. . ... ... : ... .. . ... ... : ... .. . ... ... : ... .. . ... ...
ROW 63 : ... .. . ... ... ... : ... .. . ... ... ... : ... .. . ... : ... .. . ... : ... .. . ... ... : ... .. . ... ... : ... .. . ... ... : ... .. . ... ...
ROW 64 : ... .. . ... ... ... : ... .. . ... ... ... : ... .. . ... : ... .. . ... : ... .. . ... ... : ... .. . ... ... : ... .. . ... ... : ... .. . ... ...
ROW 65 : ... .. . ... ... ... : ... .. . ... ... ... : ... .. . ... : ... .. . ... : ... .. . ... ... : ... .. . ... ... : ... .. . ... ... : ... .. . ... ...
ROW 66 : ... .. . ... ... ... : ... .. . ... ... ... : ... .. . ... : ... .. . ... : ... .. . ... ... : ... .. . ... ... : ... .. . ... ... : ... .. . ... ...
ROW 67 : ... .. . ... ... ... : ... .. . ... ... ... : ... .. . ... : ... .. . ... : ... .. . ... ... : ... .. . ... ... : ... .. . ... ... : ... .. . ... ...
ROW 68 : ... .. . ... ... ... : ... .. . ... ... ... : ... .. . ... : ... .. . ... : ... .. . ... ... : ... .. . ... ... : ... .. . ... ... : ... .. . ... ...
ROW 69 : ... .. . ... ... ... : ... .. . ... ... ... : ... .. . ... : ... .. . ... : ... .. . ... ... : ... .. . ... ... : ... .. . ... ... : ... .. . ... ...
ROW 6A : ... .. . ... ... ... : ... .. . ... ... ... : ... .. . ... : ... .. . ... : ... .. . ... ... : ... .. . ... ... : ... .. . ... ... : ... .. . ... ...
ROW 6B : ... .. . ... ... ... : ... .. . ... ... ... : ... .. . ... : ... .. . ... : ... .. . ... ... : ... .. . ... ... : ... .. . ... ... : ... .. . ... ...
ROW 6C : ... .. . ... ... ... : ... .. . ... ... ... : ... .. . ... : ... .. . ... : ... .. . ... ... : ... .. . ... ... : ... .. . ... ... : ... .. . ... ...
ROW 6D : ... .. . ... ... ... : ... .. . ... ... ... : ... .. . ... : ... .. . ... : ... .. . ... ... : ... .. . ... ... : ... .. . ... ... : ... .. . ... ...
ROW 6E : ... .. . ... ... ... : ... .. . ... ... ... : ... .. . ... : ... .. . ... : ... .. . ... ... : ... .. . ... ... : ... .. . ... ... : ... .. . ... ...
ROW 6F : ... .. . ... ... ... : ... .. . ... ... ... : ... .. . ... : ... .. . ... : ... .. . ... ... : ... .. . ... ... : ... .. . ... ... : ... .. . ... ...
ROW 70 : ... .. . ... ... ... : ... .. . ... ... ... : ... .. . ... : ... .. . ... : ... .. . ... ... : ... .. . ... ... : ... .. . ... ... : ... .. . ... ...
ROW 71 : ... .. . ... ... ... : ... .. . ... ... ... : ... .. . ... : ... .. . ... : ... .. . ... ... : ... .. . ... ... : ... .. . ... ... : ... .. . ... ...
ROW 72 : ... .. . ... ... ... : ... .. . ... ... ... : ... .. . ... : ... .. . ... : ... .. . ... ... : ... .. . ... ... : ... .. . ... ... : ... .. . ... ...
ROW 73 : ... .. . ... ... ... : ... .. . ... ... ... : ... .. . ... : ... .. . ... : ... .. . ... ... : ... .. . ... ... : ... .. . ... ... : ... .. . ... ...
ROW 74 : ... .. . ... ... ... : ... .. . ... ... ... : ... .. . ... : ... .. . ... : ... .. . ... ... : ... .. . ... ... : ... .. . ... ... : ... .. . ... ...
ROW 75 : ... .. . ... ... ... : ... .. . ... ... ... : ... .. . ... : ... .. . ... : ... .. . ... ... : ... .. . ... ... : ... .. . ... ... : ... .. . ... ...
ROW 76 : ... .. . ... ... ... : ... .. . ... ... ... : ... .. . ... : ... .. . ... : ... .. . ... ... : ... .. . ... ... : ... .. . ... ... : ... .. . ... ...
ROW 77 : ... .. . ... ... ... : ... .. . ... ... ... : ... .. . ... : ... .. . ... : ... .. . ... ... : ... .. . ... ... : ... .. . ... ... : ... .. . ... ...
ROW 78 : ... .. . ... ... ... : ... .. . ... ... ... : ... .. . ... : ... .. . ... : ... .. . ... ... : ... .. . ... ... : ... .. . ... ... : ... .. . ... ...
ROW 79 : ... .. . ... ... ... : ... .. . ... ... ... : ... .. . ... : ... .. . ... : ... .. . ... ... : ... .. . ... ... : ... .. . ... ... : ... .. . ... ...
ROW 7A : ... .. . ... ... ... : ... .. . ... ... ... : ... .. . ... : ... .. . ... : ... .. . ... ... : ... .. . ... ... : ... .. . ... ... : ... .. . ... ...
ROW 7B : ... .. . ... ... ... : ... .. . ... ... ... : ... .. . ... : ... .. . ... : ... .. . ... ... : ... .. . ... ... : ... .. . ... ... : ... .. . ... ...
ROW 7C : ... .. . ... ... ... : ... .. . ... ... ... : ... .. . ... : ... .. . ... : ... .. . ... ... : ... .. . ... ... : ... .. . ... ... : ... .. . ... ...
ROW 7D : ... .. . ... ... ... : ... .. . ... ... ... : ... .. . ... : ... .. . ... : ... .. . ... ... : ... .. . ... ... : ... .. . ... ... : ... .. . ... ...
ROW 7E : ... .. . ... ... ... : ... .. . ... ... ... : ... .. . ... : ... .. . ... : ... .. . ... ... : ... .. . ... ... : ... .. . ... ... : ... .. . ... ...
ROW 7F : ... .. . ... ... ... : ... .. . ... ... ... : ... .. . ... : ... .. . ... : ... .. . ... ... : ... .. . ... ... : ... .. . ... ... : ... .. . ... ...
ROW 80 : ... .. . ... ... ... : ... .. . ... ... ... : ... .. . ... : ... .. . ... : ... .. . ... ... : ... .. . ... ... : ... .. . ... ... : ... .. . ... ...
ROW 81 : ... .. . ... ... ... : ... .. . ... ... ... : ... .. . ... : ... .. . ... : ... .. . ... ... : ... .. . ... ... : ... .. . ... ... : ... .. . ... ...
ROW 82 : ... .. . ... ... ... : ... .. . ... ... ... : ... .. . ... : ... .. . ... : ... .. . ... ... : ... .. . ... ... : ... .. . ... ... : ... .. . ... ...
ROW 83 : ... .. . ... ... ... : ... .. . ... ... ... : ... .. . ... : ... .. . ... : ... .. . ... ... : ... .. . ... ... : ... .. . ... ... : ... .. . ... ...
ROW 84 : ... .. . ... ... ... : ... .. . ... ... ... : ... .. . ... : ... .. . ... : ... .. . ... ... : ... .. . ... ... : ... .. . ... ... : ... .. . ... ...
ROW 85 : ... .. . ... ... ... : ... .. . ... ... ... : ... .. . ... : ... .. . ... : ... .. . ... ... : ... .. . ... ... : ... .. . ... ... : ... .. . ... ...
ROW 86 : ... .. . ... ... ... : ... .. . ... ... ... : ... .. . ... : ... .. . ... : ... .. . ... ... : ... .. . ... ... : ... .. . ... ... : ... .. . ... ...
ROW 87 : ... .. . ... ... ... : ... .. . ... ... ... : ... .. . ... : ... .. . ... : ... .. . ... ... : ... .. . ... ... : ... .. . ... ... : ... .. . ... ...
ROW 88 : ... .. . ... ... ... : ... .. . ... ... ... : ... .. . ... : ... .. . ... : ... .. . ... ... : ... .. . ... ... : ... .. . ... ... : ... .. . ... ...
ROW 89 : ... .. . ... ... ... : ... .. . ... ... ... : ... .. . ... : ... .. . ... : ... .. . ... ... : ... .. . ... ... : ... .. . ... ... : ... .. . ... ...
ROW 8A : ... .. . ... ... ... : ... .. . ... ... ... : ... .. . ... : ... .. . ... : ... .. . ... ... : ... .. . ... ... : ... .. . ... ... : ... .. . ... ...
ROW 8B : ... .. . ... ... ... : ... .. . ... ... ... : ... .. . ... : ... .. . ... : ... .. . ... ... : ... .. . ... ... : ... .. . ... ... : ... .. . ... ...
ROW 8C : ... .. . ... ... ... : ... .. . ... ... ... : ... .. . ... : ... .. . ... : ... .. . ... ... : ... .. . ... ... : ... .. . ... ... : ... .. . ... ...
ROW 8D : ... .. . ... ... ... : ... .. . ... ... ... : ... .. . ... : ... .. . ... : ... .. . ... ... : ... .. . ... ... : ... .. . ... ... : ... .. . ... ...
ROW 8E : ... .. . ... ... ... : ... .. . ... ... ... : ... .. . ... : ... .. . ... : ... .. . ... ... : ... .. . ... ... : ... .. . ... ... : ... .. . ... ...
ROW 8F : ... .. . ... ... ... : ... .. . ... ... ... : ... .. . ... : ... .. . ... : ... .. . ... ... : ... .. . ... ... : ... .. . ... ... : ... .. . ... ...
ROW 90 : ... .. . ... ... ... : ... .. . ... ... ... : ... .. . ... : ... .. . ... : ... .. . ... ... : ... .. . ... ... : ... .. . ... ... : ... .. . ... ...
ROW 91 : ... .. . ... ... ... : ... .. . ... ... ... : ... .. . ... : ... .. . ... : ... .. . ... ... : ... .. . ... ... : ... .. . ... ... : ... .. . ... ...
ROW 92 : ... .. . ... ... ... : ... .. . ... ... ... : ... .. . ... : ... .. . ... : ... .. . ... ... : ... .. . ... ... : ... .. . ... ... : ... .. . ... ...
ROW 93 : ... .. . ... ... ... : ... .. . ... ... ... : ... .. . ... : ... .. . ... : ... .. . ... ... : ... .. . ... ... : ... .. . ... ... : ... .. . ... ...
ROW 94 : ... .. . ... ... ... : ... .. . ... ... ... : ... .. . ... : ... .. . ... : ... .. . ... ... : ... .. . ... ... : ... .. . ... ... : ... .. . ... ...
ROW 95 : ... .. . ... ... ... : ... .. . ... ... ... : ... .. . ... : ... .. . ... : ... .. . ... ... : ... .. . ... ... : ... .. . ... ... : ... .. . ... ...
ROW 96 : ... .. . ... ... ... : ... .. . ... ... ... : ... .. . ... : ... .. . ... : ... .. . ... ... : ... .. . ... ... : ... .. . ... ... : ... .. . ... ...
ROW 97 : ... .. . ... ... ... : ... .. . ... ... ... : ... .. . ... : ... .. . ... : ... .. . ... ... : ... .. . ... ... : ... .. . ... ... : ... .. . ... ...
ROW 98 : ... .. . ... ... ... : ... .. . ... ... ... : ... .. . ... : ... .. . ... : ... .. . ... ... : ... .. . ... ... : ... .. . ... ... : ... .. . ... ...
ROW 99 : ... .. . ... ... ... : ... .. . ... ... ... : ... .. . ... : ... .. . ... : ... .. . ... ... : ... .. . ... ... : ... .. . ... ... : ... .. . ... ...
ROW 9A : ... .. . ... ... ... : ... .. . ... ... ... : ... .. . ... : ... .. . ... : ... .. . ... ... : ... .. . ... ... : ... .. . ... ... : ... .. . ... ...
ROW 9B : ... .. . ... ... ... : ... .. . ... ... ... : ... .. . ... : ... .. . ... : ... .. . ... ... : ... .. . ... ... : ... .. . ... ... : ... .. . ... ...
ROW 9C : ... .. . ... ... ... : ... .. . ... ... ... : ... .. . ... : ... .. . ... : ... .. . ... ... : ... .. . ... ... : ... .. . ... ... : ... .. . ... ...
ROW 9D : ... .. . ... ... ... : ... .. . ... ... ... : ... .. . ... : ... .. . ... : ... .. . ... ... : ... .. . ... ... : ... .. . ... ... : ... .. . ... ...
ROW 9E : ... .. . ... ... ... : ... .. . ... ... ... : ... .. . ... : ... .. . ... : ... .. . ... ... : ... .. . ... ... : ... .. . ... ... : ... .. . ... ...
ROW 9F : ... .. . ... ... ... : ... .. . ... ... ... : ... .. . ... : ... .. . ... : ... .. . ... ... : ... .. . ... ... : ... .. . ... ... : ... .. . ... ...
ROW A0 : ... .. . ... ... ... : ... .. . ... ... ... : ... .. . ... : ... .. . ... : ... .. . ... ... : ... .. . ... ... : ... .. . ... ... : ... .. . ... ...
ROW A1 : ... .. . ... ... ... : ... .. . ... ... ... : ... .. . ... : ... .. . ... : ... .. . ... ... : ... .. . ... ... : ... .. . ... ... : ... .. . ... ...
ROW A2 : ... .. . ... ... ... : ... .. . ... ... ... : ... .. . ... : ... .. . ... : ... .. . ... ... : ... .. . ... ... : ... .. . ... ... : ... .. . ... ...
ROW A3 : ... .. . ... ... ... : ... .. . ... ... ... : ... .. . ... : ... .. . ... : ... .. . ... ... : ... .. . ... ... : ... .. . ... ... : ... .. . ... ...
ROW A4 : ... .. . ... ... ... : ... .. . ... ... ... : ... .. . ... : ... .. . ... : ... .. . ... ... : ... .. . ... ... : ... .. . ... ... : ... .. . ... ...
ROW A5 : ... .. . ... ... ... : ... .. . ... ... ... : ... .. . ... : ... .. . ... : ... .. . ... ... : ... .. . ... ... : ... .. . ... ... : ... .. . ... ...
ROW A6 : ... .. . ... ... ... : ... .. . ... ... ... : ... .. . ... : ... .. . ... : ... .. . ... ... : ... .. . ... ... : ... .. . ... ... : ... .. . ... ...
ROW A7 : ... .. . ... ... ... : ... .. . ... ... ... : ... .. . ... : ... .. . ... : ... .. . ... ... : ... .. . ... ... : ... .. . ... ... : ... .. . ... ...
ROW A8 : ... .. . ... ... ... : ... .. . ... ... ... : ... .. . ... : ... .. . ... : ... .. . ... ... : ... .. . ... ... : ... .. . ... ... : ... .. . ... ...
ROW A9 : ... .. . ... ... ... : ... .. . ... ... ... : ... .. . ... : ... .. . ... : ... .. . ... ... : ... .. . ... ... : ... .. . ... ... : ... .. . ... ...
ROW AA : ... .. . ... ... ... : ... .. . ... ... ... : ... .. . ... : ... .. . ... : ... .. . ... ... : ... .. . ... ... : ... .. . ... ... : ... .. . ... ...
ROW AB : ... .. . ... ... ... : ... .. . ... ... ... : ... .. . ... : ... .. . ... : ... .. . ... ... : ... .. . ... ... : ... .. . ... ... : ... .. . ... ...
ROW AC : ... .. . ... ... ... : ... .. . ... ... ... : ... .. . ... : ... .. . ... : ... .. . ... ... : ... .. . ... ... : ... .. . ... ... : ... .. . ... ...
ROW AD : ... .. . ... ... ... : ... .. . ... ... ... : ... .. . ... : ... .. . ... : ... .. . ... ... : ... .. . ... ... : ... .. . ... ... : ... .. . ... ...
ROW AE : ... .. . ... ... ... : ... .. . ... ... ... : ... .. . ... : ... .. . ... : ... .. . ... ... : ... .. . ... ... : ... .. . ... ... : ... .. . ... ...
ROW AF : ... .. . ... ... ... : ... .. . ... ... ... : ... .. . ... : ... .. . ... : ... .. . ... ... : ... .. . ... ... : ... .. . ... ... : ... .. . ... ...
ROW B0 : ... .. . ... ... ... : ... .. . ... ... ... : ... .. . ... : ... .. . ... : ... .. . ... ... : ... .. . ... ... : ... .. . ... ... : ... .. . ... ...
ROW B1 : ... .. . ... ... ... : ... .. . ... ... ... : ... .. . ... : ... .. . ... : ... .. . ... ... : ... .. . ... ... : ... .. . ... ... : ... .. . ... ...
ROW B2 : ... .. . ... ... ... : ... .. . ... ... ... : ... .. . ... : ... .. . ... : ... .. . ... ... : ... .. . ... ... : ... .. . ... ... : ... .. . ... ...
ROW B3 : ... .. . ... ... ... : ... .. . ... ... ... : ... .. . ... : ... .. . ... : ... .. . ... ... : ... .. . ... ... : ... .. . ... ... : ... .. . ... ...
ROW B4 : ... .. . ... ... ... : ... .. . ... ... ... : ... .. . ... : ... .. . ... : ... .. . ... ... : ... .. . ... ... : ... .. . ... ... : ... .. . ... ...
ROW B5 : ... .. . ... ... ... : ... .. . ... ... ... : ... .. . ... : ... .. . ... : ... .. . ... ... : ... .. . ... ... : ... .. . ... ... : ... .. . ... ...
ROW B6 : ... .. . ... ... ... : ... .. . ... ... ... : ... .. . ... : ... .. . ... : ... .. . ... ... : ... .. . ... ... : ... .. . ... ... : ... .. . ... ...
ROW B7 : ... .. . ... ... ... : ... .. . ... ... ... : ... .. . ... : ... .. . ... : ... .. . ... ... : ... .. . ... ... : ... .. . ... ... : ... .. . ... ...
ROW B8 : ... .. . ... ... ... : ... .. . ... ... ... : ... .. . ... : ... .. . ... : ... .. . ... ... : ... .. . ... ... : ... .. . ... ... : ... .. . ... ...
ROW B9 : ... .. . ... ... ... : ... .. . ... ... ... : ... .. . ... : ... .. . ... : ... .. . ... ... : ... .. . ... ... : ... .. . ... ... : ... .. . ... ...
ROW BA : ... .. . ... ... ... : ... .. . ... ... ... : ... .. . ... : ... .. . ... : ... .. . ... ... : ... .. . ... ... : ... .. . ... ... : ... .. . ... ...
ROW BB : ... .. . ... ... ... : ... .. . ... ... ... : ... .. . ... : ... .. . ... : ... .. . ... ... : ... .. . ... ... : ... .. . ... ... : ... .. . ... ...
ROW BC : ... .. . ... ... ... : ... .. . ... ... ... : ... .. . ... : ... .. . ... : ... .. . ... ... : ... .. . ... ... : ... .. . ... ... : ... .. . ... ...
ROW BD : ... .. . ... ... ... : ... .. . ... ... ... : ... .. . ... : ... .. . ... : ... .. . ... ... : ... .. . ... ... : ... .. . ... ... : ... .. . ... ...
ROW BE : ... .. . ... ... ... : ... .. . ... ... ... : ... .. . ... : ... .. . ... : ... .. . ... ... : ... .. . ... ... : ... .. . ... ... : ... .. . ... ...
ROW BF : ... .. . ... ... ... : ... .. . ... ... ... : ... .. . ... : ... .. . ... : ... .. . ... ... : ... .. . ... ... : ... .. . ... ... : ... .. . ... ...
ROW C0 : ... .. . ... ... ... : ... .. . ... ... ... : ... .. . ... : ... .. . ... : ... .. . ... ... : ... .. . ... ... : ... .. . ... ... : ... .. . ... ...
ROW C1 : ... .. . ... ... ... : ... .. . ... ... ... : ... .. . ... : ... .. . ... : ... .. . ... ... : ... .. . ... ... : ... .. . ... ... : ... .. . ... ...
ROW C2 : ... .. . ... ... ... : ... .. . ... ... ... : ... .. . ... : ... .. . ... : ... .. . ... ... : ... .. . ... ... : ... .. . ... ... : ... .. . ... ...
ROW C3 : ... .. . ... ... ... : ... .. . ... ... ... : ... .. . ... : ... .. . ... : ... .. . ... ... : ... .. . ... ... : ... .. . ... ... : ... .. . ... ...
ROW C4 : ... .. . ... ... ... : ... .. . ... ... ... : ... .. . ... : ... .. . ... : ... .. . ... ... : ... .. . ... ... : ... .. . ... ... : ... .. . ... ...
ROW C5 : ... .. . ... ... ... : ... .. . ... ... ... : ... .. . ... : ... .. . ... : ... .. . ... ... : ... .. . ... ... : ... .. . ... ... : ... .. . ... ...
ROW C6 : ... .. . ... ... ... : ... .. . ... ... ... : ... .. . ... : ... .. . ... : ... .. . ... ... : ... .. . ... ... : ... .. . ... ... : ... .. . ... ...
ROW C7 : ... .. . ... ... ... : ... .. . ... ... ... : ... .. . ... : ... .. . ... : ... .. . ... ... : ... .. . ... ... : ... .. . ... ... : ... .. . ... ...
ROW C8 : ... .. . ... ... ... : ... .. . ... ... ... : ... .. . ... : ... .. . ... : ... .. . ... ... : ... .. . ... ... : ... .. . ... ... : ... .. . ... ...
ROW C9 : ... .. . ... ... ... : ... .. . ... ... ... : ... .. . ... : ... .. . ... : ... .. . ... ... : ... .. . ... ... : ... .. . ... ... : ... .. . ... ...
ROW CA : ... .. . ... ... ... : ... .. . ... ... ... : ... .. . ... : ... .. . ... : ... .. . ... ... : ... .. . ... ... : ... .. . ... ... : ... .. . ... ...
ROW CB : ... .. . ... ... ... : ... .. . ... ... ... : ... .. . ... : ... .. . ... : ... .. . ... ... : ... .. . ... ... : ... .. . ... ... : ... .. . ... ...
ROW CC : ... .. . ... ... ... : ... .. . ... ... ... : ... .. . ... : ... .. . ... : ... .. . ... ... : ... .. . ... ... : ... .. . ... ... : ... .. . ... ...
ROW CD : ... .. . ... ... ... : ... .. . ... ... ... : ... .. . ... : ... .. . ... : ... .. . ... ... : ... .. . ... ... : ... .. . ... ... : ... .. . ... ...
ROW CE : ... .. . ... ... ... : ... .. . ... ... ... : ... .. . ... : ... .. . ... : ... .. . ... ... : ... .. . ... ... : ... .. . ... ... : ... .. . ... ...
ROW CF : ... .. . ... ... ... : ... .. . ... ... ... : ... .. . ... : ... .. . ... : ... .. . ... ... : ... .. . ... ... : ... .. . ... ... : ... .. . ... ...
ROW D0 : ... .. . ... ... ... : ... .. . ... ... ... : ... .. . ... : ... .. . ... : ... .. . ... ... : ... .. . ... ... : ... .. . ... ... : ... .. . ... ...
ROW D1 : ... .. . ... ... ... : ... .. . ... ... ... : ... .. . ... : ... .. . ... : ... .. . ... ... : ... .. . ... ... : ... .. . ... ... : ... .. . ... ...
ROW D2 : ... .. . ... ... ... : ... .. . ... ... ... : ... .. . ... : ... .. . ... : ... .. . ... ... : ... .. . ... ... : ... .. . ... ... : ... .. . ... ...
ROW D3 : ... .. . ... ... ... : ... .. . ... ... ... : ... .. . ... : ... .. . ... : ... .. . ... ... : ... .. . ... ... : ... .. . ... ... : ... .. . ... ...
ROW D4 : ... .. . ... ... ... : ... .. . ... ... ... : ... .. . ... : ... .. . ... : ... .. . ... ... : ... .. . ... ... : ... .. . ... ... : ... .. . ... ...
ROW D5 : ... .. . ... ... ... : ... .. . ... ... ... : ... .. . ... : ... .. . ... : ... .. . ... ... : ... .. . ... ... : ... .. . ... ... : ... .. . ... ...
ROW D6 : ... .. . ... ... ... : ... .. . ... ... ... : ... .. . ... : ... .. . ... : ... .. . ... ... : ... .. . ... ... : ... .. . ... ... : ... .. . ... ...
ROW D7 : ... .. . ... ... ... : ... .. . ... ... ... : ... .. . ... : ... .. . ... : ... .. . ... ... : ... .. . ... ... : ... .. . ... ... : ... .. . ... ...
ROW D8 : ... .. . ... ... ... : ... .. . ... ... ... : ... .. . ... : ... .. . ... : ... .. . ... ... : ... .. . ... ... : ... .. . ... ... : ... .. . ... ...
ROW D9 : ... .. . ... ... ... : ... .. . ... ... ... : ... .. . ... : ... .. . ... : ... .. . ... ... : ... .. . ... ... : ... .. . ... ... : ... .. . ... ...
ROW DA : ... .. . ... ... ... : ... .. . ... ... ... : ... .. . ... : ... .. . ... : ... .. . ... ... : ... .. . ... ... : ... .. . ... ... : ... .. . ... ...
ROW DB : ... .. . ... ... ... : ... .. . ... ... ... : ... .. . ... : ... .. . ... : ... .. . ... ... : ... .. . ... ... : ... .. . ... ... : ... .. . ... ...
ROW DC : ... .. . ... ... ... : ... .. . ... ... ... : ... .. . ... : ... .. . ... : ... .. . ... ... : ... .. . ... ... : ... .. . ... ... : ... .. . ... ...
ROW DD : ... .. . ... ... ... : ... .. . ... ... ... : ... .. . ... : ... .. . ... : ... .. . ... ... : ... .. . ... ... : ... .. . ... ... : ... .. . ... ...
ROW DE : ... .. . ... ... ... : ... .. . ... ... ... : ... .. . ... : ... .. . ... : ... .. . ... ... : ... .. . ... ... : ... .. . ... ... : ... .. . ... ...
ROW DF : ... .. . ... ... ... : ... .. . ... ... ... : ... .. . ... : ... .. . ... : ... .. . ... ... : ... .. . ... ... : ... .. . ... ... : ... .. . ... ...
ROW E0 : ... .. . ... ... ... : ... .. . ... ... ... : ... .. . ... : ... .. . ... : ... .. . ... ... : ... .. . ... ... : ... .. . ... ... : ... .. . ... ...
ROW E1 : ... .. . ... ... ... : ... .. . ... ... ... : ... .. . ... : ... .. . ... : ... .. . ... ... : ... .. . ... ... : ... .. . ... ... : ... .. . ... ...
ROW E2 : ... .. . ... ... ... : ... .. . ... ... ... : ... .. . ... : ... .. . ... : ... .. . ... ... : ... .. . ... ... : ... .. . ... ... : ... .. . ... ...
ROW E3 : ... .. . ... ... ... : ... .. . ... ... ... : ... .. . ... : ... .. . ... : ... .. . ... ... : ... .. . ... ... : ... .. . ... ... : ... .. . ... ...
ROW E4 : ... .. . ... ... ... : ... .. . ... ... ... : ... .. . ... : ... .. . ... : ... .. . ... ... : ... .. . ... ... : ... .. . ... ... : ... .. . ... ...
ROW E5 : ... .. . ... ... ... : ... .. . ... ... ... : ... .. . ... : ... .. . ... : ... .. . ... ... : ... .. . ... ... : ... .. . ... ... : ... .. . ... ...
ROW E6 : ... .. . ... ... ... : ... .. . ... ... ... : ... .. . ... : ... .. . ... : ... .. . ... ... : ... .. . ... ... : ... .. . ... ... : ... .. . ... ...
ROW E7 : ... .. . ... ... ... : ... .. . ... ... ... : ... .. . ... : ... .. . ... : ... .. . ... ... : ... .. . ... ... : ... .. . ... ... : ... .. . ... ...
ROW E8 : ... .. . ... ... ... : ... .. . ... ... ... : ... .. . ... : ... .. . ... : ... .. . ... ... : ... .. . ... ... : ... .. . ... ... : ... .. . ... ...
ROW E9 : ... .. . ... ... ... : ... .. . ... ... ... : ... .. . ... : ... .. . ... : ... .. . ... ... : ... .. . ... ... : ... .. . ... ... : ... .. . ... ...
ROW EA : ... .. . ... ... ... : ... .. . ... ... ... : ... .. . ... : ... .. . ... : ... .. . ... ... : ... .. . ... ... : ... .. . ... ... : ... .. . ... ...
ROW EB : ... .. . ... ... ... : ... .. . ... ... ... : ... .. . ... : ... .. . ... : ... .. . ... ... : ... .. . ... ... : ... .. . ... ... : ... .. . ... ...
ROW EC : ... .. . ... ... ... : ... .. . ... ... ... : ... .. . ... : ... .. . ... : ... .. . ... ... : ... .. . ... ... : ... .. . ... ... : ... .. . ... ...
ROW ED : ... .. . ... ... ... : ... .. . ... ... ... : ... .. . ... : ... .. . ... : ... .. . ... ... : ... .. . ... ... : ... .. . ... ... : ... .. . ... ...
ROW EE : ... .. . ... ... ... : ... .. . ... ... ... : ... .. . ... : ... .. . ... : ... .. . ... ... : ... .. . ... ... : ... .. . ... ... : ... .. . ... ...
ROW EF : ... .. . ... ... ... : ... .. . ... ... ... : ... .. . ... : ... .. . ... : ... .. . ... ... : ... .. . ... ... : ... .. . ... ... : ... .. . ... ...
ROW F0 : ... .. . ... ... ... : ... .. . ... ... ... : ... .. . ... : ... .. . ... : ... .. . ... ... : ... .. . ... ... : ... .. . ... ... : ... .. . ... ...
ROW F1 : ... .. . ... ... ... : ... .. . ... ... ... : ... .. . ... : ... .. . ... : ... .. . ... ... : ... .. . ... ... : ... .. . ... ... : ... .. . ... ...
ROW F2 : ... .. . ... ... ... : ... .. . ... ... ... : ... .. . ... : ... .. . ... : ... .. . ... ... : ... .. . ... ... : ... .. . ... ... : ... .. . ... ...
ROW F3 : ... .. . ... ... ... : ... .. . ... ... ... : ... .. . ... : ... .. . ... : ... .. . ... ... : ... .. . ... ... : ... .. . ... ... : ... .. . ... ...
ROW F4 : ... .. . ... ... ... : ... .. . ... ... ... : ... .. . ... : ... .. . ... : ... .. . ... ... : ... .. . ... ... : ... .. . ... ... : ... .. . ... ...
ROW F5 : ... .. . ... ... ... : ... .. . ... ... ... : ... .. . ... : ... .. . ... : ... .. . ... ... : ... .. . ... ... : ... .. . ... ... : ... .. . ... ...
ROW F6 : ... .. . ... ... ... : ... .. . ... ... ... : ... .. . ... : ... .. . ... : ... .. . ... ... : ... .. . ... ... : ... .. . ... ... : ... .. . ... ...
ROW F7 : ... .. . ... ... ... : ... .. . ... ... ... : ... .. . ... : ... .. . ... : ... .. . ... ... : ... .. . ... ... : ... .. . ... ... : ... .. . ... ...
ROW F8 : ... .. . ... ... ... : ... .. . ... ... ... : ... .. . ... : ... .. . ... : ... .. . ... ... : ... .. . ... ... : ... .. . ... ... : ... .. . ... ...
ROW F9 : ... .. . ... ... ... : ... .. . ... ... ... : ... .. . ... : ... .. . ... : ... .. . ... ... : ... .. . ... ... : ... .. . ... ... : ... .. . ... ...
ROW FA : ... .. . ... ... ... : ... .. . ... ... ... : ... .. . ... : ... .. . ... : ... .. . ... ... : ... .. . ... ... : ... .. . ... ... : ... .. . ... ...
ROW FB : ... .. . ... ... ... : ... .. . ... ... ... : ... .. . ... : ... .. . ... : ... .. . ... ... : ... .. . ... ... : ... .. . ... ... : ... .. . ... ...
ROW FC : ... .. . ... ... ... : ... .. . ... ... ... : ... .. . ... : ... .. . ... : ... .. . ... ... : ... .. . ... ... : ... .. . ... ... : ... .. . ... ...
ROW FD : ... .. . ... ... ... : ... .. . ... ... ... : ... .. . ... : ... .. . ... : ... .. . ... ... : ... .. . ... ... : ... .. . ... ... : ... .. . ... ...
ROW FE : ... .. . ... ... ... : ... .. . ... ... ... : ... .. . ... : ... .. . ... : ... .. . ... ... : ... .. . ... ... : ... .. . ... ... : ... .. . ... ...
ROW FF : ... .. . ... ... ... : ... .. . ... ... ... : ... .. . ... : ... .. . ... : ... .. . ... ... : ... .. . ... ... : ... .. . ... ... : ... .. . ... ...

# End of export
