# FamiTracker text export 0.4.2

# Song information
TITLE           "Shovel Knight OST"
AUTHOR          "Jake Kaufman"
COPYRIGHT       ""

# Song comment
COMMENT ""

# Global settings
MACHINE         0
FRAMERATE       0
EXPANSION       1
VIBRATO         1
SPLIT           21

# Macros

# DPCM samples

# Instruments
INST2A03   0    -1  -1  -1  -1  -1 "blank"
INSTVRC6   1    -1  -1  -1  -1  -1 "blank"

# Tracks

TRACK 256   1 150 "New song"
COLUMNS : 3 3 1 1 2 2 2 2

ORDER 00 : 00 00 00 00 00 00 00 00
ORDER 01 : 01 01 01 01 01 01 01 01
ORDER 02 : 02 02 02 02 02 02 02 02
ORDER 03 : 03 03 03 03 03 03 03 03
ORDER 04 : 04 04 04 04 04 04 04 04
ORDER 05 : 05 05 05 05 05 05 05 05
ORDER 06 : 06 06 06 06 06 06 06 06
ORDER 07 : 07 07 07 07 07 07 07 07
ORDER 08 : 08 08 08 08 08 08 08 08
ORDER 09 : 09 09 09 09 09 09 09 09
ORDER 0A : 0A 0A 0A 0A 0A 0A 0A 0A
ORDER 0B : 0B 0B 0B 0B 0B 0B 0B 0B
ORDER 0C : 0C 0C 0C 0C 0C 0C 0C 0C
ORDER 0D : 0D 0D 0D 0D 0D 0D 0D 0D
ORDER 0E : 0E 0E 0E 0E 0E 0E 0E 0E
ORDER 0F : 0F 0F 0F 0F 0F 0F 0F 0F
ORDER 10 : 10 10 10 10 10 10 10 10
ORDER 11 : 11 11 11 11 11 11 11 11
ORDER 12 : 12 12 12 12 12 12 12 12
ORDER 13 : 13 13 13 13 13 13 13 13
ORDER 14 : 14 14 14 14 14 14 14 14
ORDER 15 : 15 15 15 15 15 15 15 15
ORDER 16 : 16 16 16 16 16 16 16 16
ORDER 17 : 17 17 17 17 17 17 17 17
ORDER 18 : 18 18 18 18 18 18 18 18
ORDER 19 : 19 19 19 19 19 19 19 19
ORDER 1A : 1A 1A 1A 1A 1A 1A 1A 1A
ORDER 1B : 1B 1B 1B 1B 1B 1B 1B 1B
ORDER 1C : 1C 1C 1C 1C 1C 1C 1C 1C

PATTERN 00
ROW 00 : F#1 00 F P80 V00 ... : --- .. 0 P80 V00 ... : F-3 00 . P80 : F-# 00 0 V00 : === 00 . Z00 ... : --- .. 0 P80 V00 : --- .. 0 P80 V00 : F#0 01 F P80 V00
ROW 01 : ... .. E ... ... ... : ... .. . ... ... ... : G-2 00 . ... : ... .. . ... : ... .. . ... ... : ... .. . ... ... : ... .. . ... ... : ... .. D ... ...
ROW 02 : ... .. D ... ... ... : ... .. . ... ... ... : C-2 00 . ... : ... .. . ... : ... .. . ... ... : ... .. . ... ... : ... .. . ... ... : ... .. 8 ... ...
ROW 03 : ... .. 9 ... ... ... : ... .. . ... ... ... : B-1 00 . ... : ... .. . ... : ... .. . ... ... : ... .. . ... ... : ... .. . ... ... : ... .. 7 ... ...
ROW 04 : ... .. . ... ... ... : ... .. . ... ... ... : F#1 00 . ... : ... .. . ... : ... .. . ... ... : ... .. . ... ... : ... .. . ... ... : ... .. . ... ...
ROW 05 : ... .. . ... ... ... : ... .. . ... ... ... : ... .. . ... : ... .. . ... : ... .. . ... ... : ... .. . ... ... : ... .. . ... ... : ... .. . ... ...
ROW 06 : ... .. 8 ... ... ... : ... .. . ... ... ... : ... .. . ... : ... .. . ... : ... .. . ... ... : ... .. . ... ... : ... .. . ... ... : ... .. 6 ... ...
ROW 07 : ... .. . ... ... ... : ... .. . ... ... ... : ... .. . ... : ... .. . ... : ... .. . ... ... : ... .. . ... ... : ... .. . ... ... : ... .. . ... ...
ROW 08 : ... .. . ... ... ... : ... .. . ... ... ... : ... .. . ... : ... .. . ... : ... .. . ... ... : ... .. . ... ... : ... .. . ... ... : ... .. . ... ...
ROW 09 : ... .. . ... ... ... : ... .. . ... ... ... : ... .. . ... : ... .. . ... : ... .. . ... ... : ... .. . ... ... : ... .. . ... ... : ... .. . ... ...
ROW 0A : ... .. . ... ... ... : ... .. . ... ... ... : ... .. . ... : ... .. . ... : ... .. . ... ... : ... .. . ... ... : ... .. . ... ... : ... .. . ... ...
ROW 0B : ... .. . ... ... ... : ... .. . ... ... ... : ... .. . ... : ... .. . ... : ... .. . ... ... : ... .. . ... ... : ... .. . ... ... : ... .. . ... ...
ROW 0C : ... .. . ... ... ... : ... .. . ... ... ... : ... .. . ... : 9-# 00 6 ... : ... .. . ... ... : ... .. . ... ... : ... .. . ... ... : ... .. . ... ...
ROW 0D : ... .. . ... ... ... : ... .. . ... ... ... : ... .. . ... : ... .. 4 ... : ... .. . ... ... : ... .. . ... ... : ... .. . ... ... : ... .. . ... ...
ROW 0E : ... .. . ... ... ... : ... .. . ... ... ... : ... .. . ... : ... .. 2 ... : ... .. . ... ... : ... .. . ... ... : ... .. . ... ... : ... .. . ... ...
ROW 0F : ... .. 7 ... ... ... : ... .. . ... ... ... : ... .. . ... : ... .. 6 ... : ... .. . ... ... : ... .. . ... ... : ... .. . ... ... : ... .. 5 ... ...
ROW 10 : ... .. . ... ... ... : ... .. . ... ... ... : ... .. . ... : ... .. 4 ... : ... .. . ... ... : ... .. . ... ... : ... .. . ... ... : ... .. . ... ...
ROW 11 : ... .. . ... ... ... : ... .. . ... ... ... : ... .. . ... : ... .. 2 ... : ... .. . ... ... : ... .. . ... ... : ... .. . ... ... : ... .. . ... ...
ROW 12 : ... .. 6 ... ... ... : ... .. . ... ... ... : ... .. . ... : ... .. 6 ... : ... .. . ... ... : ... .. . ... ... : ... .. . ... ... : ... .. . ... ...
ROW 13 : ... .. . ... ... ... : ... .. . ... ... ... : ... .. . ... : ... .. 4 ... : ... .. . ... ... : ... .. . ... ... : ... .. . ... ... : ... .. . ... ...
ROW 14 : ... .. . ... ... ... : ... .. . ... ... ... : ... .. . ... : ... .. 2 ... : ... .. . ... ... : ... .. . ... ... : ... .. . ... ... : ... .. . ... ...
ROW 15 : ... .. . ... ... ... : ... .. . ... ... ... : ... .. . ... : ... .. 1 ... : ... .. . ... ... : ... .. . ... ... : ... .. . ... ... : ... .. . ... ...
ROW 16 : ... .. . ... ... ... : ... .. . ... ... ... : ... .. . ... : ... .. . ... : ... .. . ... ... : ... .. . ... ... : ... .. . ... ... : ... .. . ... ...
ROW 17 : ... .. . ... ... ... : ... .. . ... ... ... : ... .. . ... : ... .. 0 ... : ... .. . ... ... : ... .. . ... ... : ... .. . ... ... : ... .. . ... ...
ROW 18 : G-3 00 A ... ... ... : G-4 00 A P80 ... ... : F-5 00 . ... : ... .. F ... : ... .. . ... ... : E-4 01 6 ... V03 : C-4 01 6 ... V03 : ... .. 4 ... ...
ROW 19 : ... .. 9 ... ... ... : ... .. 9 ... ... ... : G-4 00 . ... : ... .. C ... : ... .. . ... ... : ... .. . ... ... : ... .. . ... ... : ... .. . ... ...
ROW 1A : ... .. 8 ... ... ... : ... .. 8 ... ... ... : C-4 00 . ... : ... .. 6 ... : ... .. . ... ... : ... .. 5 ... ... : ... .. 5 ... ... : ... .. . ... ...
ROW 1B : ... .. 6 ... ... ... : ... .. 6 ... ... ... : B-3 00 . ... : ... .. 3 ... : ... .. . ... ... : ... .. 4 ... ... : ... .. 4 ... ... : ... .. . ... ...
ROW 1C : ... .. . ... ... ... : ... .. . ... ... ... : F#3 00 . ... : ... .. 2 ... : ... .. . ... ... : ... .. . ... ... : ... .. . ... ... : ... .. . ... ...
ROW 1D : ... .. . ... ... ... : ... .. . ... ... ... : ... .. . ... : ... .. 0 ... : ... .. . ... ... : ... .. . ... ... : ... .. . ... ... : ... .. . ... ...
ROW 1E : ... .. . ... ... ... : ... .. . ... ... ... : ... .. . ... : ... .. . ... : ... .. . ... ... : ... .. 3 ... ... : ... .. 3 ... ... : ... .. . ... ...
ROW 1F : ... .. 1 ... ... ... : ... .. 1 ... ... ... : ... .. . ... : ... .. . ... : ... .. . ... ... : ... .. . ... ... : ... .. . ... ... : ... .. . ... ...
ROW 20 : ... .. . ... ... ... : ... .. . ... ... ... : ... .. . ... : ... .. . ... : ... .. . ... ... : ... .. 2 ... ... : ... .. 2 ... ... : ... .. . ... ...
ROW 21 : ... .. . ... ... ... : ... .. . ... ... ... : ... .. . ... : ... .. . ... : ... .. . ... ... : ... .. . ... ... : ... .. . ... ... : ... .. 3 ... ...
ROW 22 : ... .. . ... ... ... : ... .. . ... ... ... : ... .. . ... : ... .. . ... : ... .. . ... ... : ... .. . ... ... : ... .. . ... ... : ... .. . ... ...
ROW 23 : ... .. . ... ... ... : ... .. . ... ... ... : ... .. . ... : ... .. . ... : ... .. . ... ... : ... .. . ... ... : ... .. . ... ... : ... .. . ... ...
ROW 24 : ... .. 8 ... ... ... : ... .. 8 ... ... ... : --- .. . ... : ... .. 8 ... : ... .. . ... ... : ... .. 5 ... ... : ... .. 5 ... ... : ... .. . ... ...
ROW 25 : ... .. 5 ... ... ... : ... .. 5 ... ... ... : ... .. . ... : ... .. 6 ... : ... .. . ... ... : ... .. 3 ... ... : ... .. 3 ... ... : ... .. . ... ...
ROW 26 : ... .. 3 ... ... ... : ... .. 3 ... ... ... : ... .. . ... : ... .. 3 ... : ... .. . ... ... : ... .. 2 ... ... : ... .. 2 ... ... : ... .. . ... ...
ROW 27 : ... .. 1 ... ... ... : ... .. 1 ... ... ... : ... .. . ... : ... .. 4 ... : ... .. . ... ... : ... .. 1 ... ... : ... .. 1 ... ... : ... .. 2 ... ...
ROW 28 : ... .. 8 ... ... ... : ... .. 8 ... ... ... : ... .. . ... : ... .. 3 ... : ... .. . ... ... : ... .. 5 ... ... : ... .. 5 ... ... : ... .. . ... ...
ROW 29 : ... .. 5 ... ... ... : ... .. 5 ... ... ... : ... .. . ... : ... .. 1 ... : ... .. . ... ... : ... .. 3 ... ... : ... .. 3 ... ... : ... .. . ... ...
ROW 2A : ... .. 3 ... ... ... : ... .. 3 ... ... ... : ... .. . ... : ... .. 8 ... : ... .. . ... ... : ... .. 2 ... ... : ... .. 2 ... ... : ... .. . ... ...
ROW 2B : ... .. 1 ... ... ... : ... .. 1 ... ... ... : ... .. . ... : ... .. 6 ... : ... .. . ... ... : ... .. 1 ... ... : ... .. 1 ... ... : ... .. . ... ...
ROW 2C : ... .. 8 ... ... ... : ... .. 8 ... ... ... : ... .. . ... : ... .. 3 ... : ... .. . ... ... : ... .. 5 ... ... : ... .. 5 ... ... : ... .. . ... ...
ROW 2D : ... .. 5 ... ... ... : ... .. 5 ... ... ... : ... .. . ... : ... .. 1 ... : ... .. . ... ... : ... .. 3 ... ... : ... .. 3 ... ... : ... .. . ... ...
ROW 2E : ... .. 3 ... ... ... : ... .. 3 ... ... ... : ... .. . ... : ... .. . ... : ... .. . ... ... : ... .. 2 ... ... : ... .. 2 ... ... : ... .. . ... ...
ROW 2F : ... .. 1 ... ... ... : ... .. 1 ... ... ... : ... .. . ... : ... .. 0 ... : ... .. . ... ... : ... .. 1 ... ... : ... .. 1 ... ... : ... .. . ... ...
ROW 30 : ... .. A ... ... ... : ... .. A ... ... ... : F-5 00 . ... : ... .. F ... : ... .. . ... ... : ... .. 6 ... ... : ... .. 6 ... ... : ... .. 1 ... ...
ROW 31 : ... .. 9 ... ... ... : ... .. 9 ... ... ... : G-4 00 . ... : ... .. C ... : ... .. . ... ... : ... .. . ... ... : ... .. . ... ... : ... .. . ... ...
ROW 32 : ... .. 8 ... ... ... : ... .. 8 ... ... ... : C-4 00 . ... : ... .. 6 ... : ... .. . ... ... : ... .. 5 ... ... : ... .. 5 ... ... : ... .. . ... ...
ROW 33 : ... .. 6 ... ... ... : ... .. 6 ... ... ... : B-3 00 . ... : ... .. 3 ... : ... .. . ... ... : ... .. 4 ... ... : ... .. 4 ... ... : ... .. . ... ...
ROW 34 : ... .. . ... ... ... : ... .. . ... ... ... : F#3 00 . ... : ... .. 2 ... : ... .. . ... ... : ... .. . ... ... : ... .. . ... ... : ... .. . ... ...
ROW 35 : ... .. . ... ... ... : ... .. . ... ... ... : ... .. . ... : ... .. 0 ... : ... .. . ... ... : ... .. . ... ... : ... .. . ... ... : ... .. . ... ...
ROW 36 : ... .. . ... ... ... : ... .. . ... ... ... : ... .. . ... : ... .. . ... : ... .. . ... ... : ... .. . ... ... : ... .. . ... ... : ... .. . ... ...
ROW 37 : ... .. . ... ... ... : ... .. . ... ... ... : ... .. . ... : ... .. . ... : ... .. . ... ... : ... .. 3 ... ... : ... .. 3 ... ... : ... .. . ... ...
ROW 38 : ... .. A ... ... ... : ... .. A ... ... ... : F-5 00 . ... : ... .. C ... : ... .. . ... ... : ... .. 6 ... ... : ... .. 6 ... ... : ... .. . ... ...
ROW 39 : ... .. 9 ... ... ... : ... .. 9 ... ... ... : G-4 00 . ... : ... .. 9 ... : ... .. . ... ... : ... .. . ... ... : ... .. . ... ... : ... .. . ... ...
ROW 3A : ... .. 8 ... ... ... : ... .. 8 ... ... ... : C-4 00 . ... : ... .. 4 ... : ... .. . ... ... : ... .. 5 ... ... : ... .. 5 ... ... : ... .. . ... ...
ROW 3B : ... .. 6 ... ... ... : ... .. 6 ... ... ... : B-3 00 . ... : ... .. 2 ... : ... .. . ... ... : ... .. 4 ... ... : ... .. 4 ... ... : ... .. . ... ...
ROW 3C : ... .. . ... ... ... : ... .. . ... ... ... : F#3 00 . ... : ... .. 1 ... : ... .. . ... ... : ... .. 3 ... ... : ... .. 3 ... ... : ... .. . ... ...
ROW 3D : ... .. 1 ... ... ... : ... .. 1 ... ... ... : ... .. . ... : ... .. 0 ... : ... .. . ... ... : ... .. . ... ... : ... .. . ... ... : ... .. . ... ...
ROW 3E : ... .. . ... ... ... : ... .. . ... ... ... : ... .. . ... : ... .. . ... : ... .. . ... ... : ... .. 2 ... ... : ... .. 2 ... ... : ... .. . ... ...
ROW 3F : ... .. . ... ... ... : ... .. . ... ... ... : ... .. . ... : ... .. . ... : ... .. . ... ... : ... .. . ... ... : ... .. . ... ... : ... .. . ... ...
ROW 40 : ... .. A ... ... ... : ... .. A ... ... ... : F-5 00 . ... : ... .. F ... : ... .. . ... ... : ... .. 6 ... ... : ... .. 6 ... ... : ... .. . ... ...
ROW 41 : ... .. 9 ... ... ... : ... .. 9 ... ... ... : G-4 00 . ... : ... .. C ... : ... .. . ... ... : ... .. . ... ... : ... .. . ... ... : ... .. . ... ...
ROW 42 : ... .. 8 ... ... ... : ... .. 8 ... ... ... : C-4 00 . ... : ... .. 6 ... : ... .. . ... ... : ... .. 5 ... ... : ... .. 5 ... ... : ... .. . ... ...
ROW 43 : ... .. 6 ... ... ... : ... .. 6 ... ... ... : B-3 00 . ... : ... .. 3 ... : ... .. . ... ... : ... .. 4 ... ... : ... .. 4 ... ... : ... .. . ... ...
ROW 44 : ... .. . ... ... ... : ... .. . ... ... ... : F#3 00 . ... : ... .. 2 ... : ... .. . ... ... : ... .. . ... ... : ... .. . ... ... : ... .. . ... ...
ROW 45 : ... .. . ... ... ... : ... .. . ... ... ... : ... .. . ... : ... .. 0 ... : ... .. . ... ... : ... .. . ... ... : ... .. . ... ... : ... .. . ... ...
ROW 46 : ... .. . ... ... ... : ... .. . ... ... ... : ... .. . ... : ... .. . ... : ... .. . ... ... : ... .. . ... ... : ... .. . ... ... : ... .. . ... ...
ROW 47 : ... .. . ... ... ... : ... .. . ... ... ... : ... .. . ... : ... .. . ... : ... .. . ... ... : ... .. 3 ... ... : ... .. 3 ... ... : ... .. . ... ...
ROW 48 : ... .. 2 ... ... ... : ... .. 2 ... ... ... : F-3 00 . ... : ... .. F ... : ... .. . ... ... : ... .. 1 ... ... : ... .. 1 ... ... : F#1 01 F ... ...
ROW 49 : ... .. 1 ... ... ... : ... .. 1 ... ... ... : G-2 00 . ... : ... .. C ... : ... .. . ... ... : ... .. . ... ... : ... .. . ... ... : ... .. D ... ...
ROW 4A : ... .. . ... ... ... : ... .. . ... ... ... : C-2 00 . ... : ... .. 6 ... : ... .. . ... ... : ... .. . ... ... : ... .. . ... ... : ... .. 8 ... ...
ROW 4B : A#4 00 2 ... ... ... : ... .. . ... ... ... : B-1 00 . ... : ... .. 3 ... : ... .. . ... ... : ... .. . ... ... : ... .. . ... ... : ... .. . ... ...
ROW 4C : ... .. 1 ... ... ... : ... .. . ... ... ... : F#1 00 . ... : ... .. 2 ... : ... .. . ... ... : ... .. . ... ... : ... .. . ... ... : ... .. . ... ...
ROW 4D : ... .. . ... ... ... : ... .. . ... ... ... : ... .. . ... : ... .. 0 ... : ... .. . ... ... : ... .. . ... ... : ... .. . ... ... : ... .. . ... ...
ROW 4E : C-5 00 4 ... ... ... : ... .. . ... ... ... : ... .. . ... : ... .. . ... : ... .. . ... ... : ... .. . ... ... : ... .. . ... ... : ... .. . ... ...
ROW 4F : ... .. 3 ... ... ... : ... .. 0 ... ... ... : ... .. . ... : ... .. . ... : ... .. . ... ... : ... .. . ... ... : ... .. . ... ... : ... .. . ... ...
ROW 50 : ... .. . ... ... ... : ... .. . ... ... ... : F-3 00 . ... : ... .. C ... : ... .. . ... ... : ... .. . ... ... : ... .. . ... ... : ... .. F ... ...
ROW 51 : D-5 00 6 ... ... ... : ... .. . ... ... ... : G-2 00 . ... : ... .. 9 ... : ... .. . ... ... : ... .. . ... ... : ... .. . ... ... : ... .. D ... ...
ROW 52 : ... .. 5 ... ... ... : ... .. . ... ... ... : C-2 00 . ... : ... .. 4 ... : ... .. . ... ... : ... .. . ... ... : ... .. . ... ... : ... .. 8 ... ...
ROW 53 : ... .. . ... ... ... : ... .. . ... ... ... : B-1 00 . ... : ... .. 2 ... : ... .. . ... ... : ... .. . ... ... : ... .. . ... ... : ... .. . ... ...
ROW 54 : E-5 00 8 ... ... ... : ... .. . ... ... ... : F#1 00 . ... : ... .. 1 ... : ... .. . ... ... : ... .. . ... ... : ... .. . ... ... : ... .. . ... ...
ROW 55 : ... .. 7 ... ... ... : ... .. . ... ... ... : ... .. . ... : ... .. 0 ... : ... .. . ... ... : ... .. . ... ... : ... .. . ... ... : ... .. . ... ...
ROW 56 : ... .. 6 ... ... ... : ... .. . ... ... ... : ... .. . ... : ... .. . ... : ... .. . ... ... : ... .. . ... ... : ... .. . ... ... : ... .. . ... ...
ROW 57 : F#5 00 A ... ... ... : ... .. . ... ... ... : ... .. . ... : ... .. . ... : ... .. . ... ... : ... .. . ... ... : ... .. . ... ... : ... .. . ... ...
ROW 58 : ... .. 9 ... ... ... : ... .. . ... ... ... : F-3 00 . ... : ... .. F ... : ... .. . ... ... : ... .. . ... ... : ... .. . ... ... : ... .. F ... ...
ROW 59 : ... .. 8 ... ... ... : ... .. . ... ... ... : G-2 00 . ... : ... .. C ... : ... .. . ... ... : ... .. . ... ... : ... .. . ... ... : ... .. D ... ...
ROW 5A : G-5 00 C ... ... ... : ... .. . ... ... ... : C-2 00 . ... : ... .. 6 ... : ... .. . ... ... : ... .. . ... ... : ... .. . ... ... : ... .. 8 ... ...
ROW 5B : ... .. B ... ... ... : ... .. . ... ... ... : B-1 00 . ... : ... .. 3 ... : ... .. . ... ... : ... .. . ... ... : ... .. . ... ... : ... .. . ... ...
ROW 5C : ... .. A ... ... ... : ... .. . ... ... ... : F#1 00 . ... : ... .. 2 ... : ... .. . ... ... : ... .. . ... ... : ... .. . ... ... : ... .. . ... ...
ROW 5D : A-5 00 E ... ... ... : ... .. . ... ... ... : ... .. . ... : ... .. 0 ... : ... .. . ... ... : ... .. . ... ... : ... .. . ... ... : ... .. . ... ...
ROW 5E : ... .. D ... ... ... : ... .. . ... ... ... : ... .. . ... : ... .. . ... : ... .. . ... ... : ... .. . ... ... : ... .. . ... ... : ... .. . ... ...
ROW 5F : ... .. C ... ... ... : ... .. . ... ... ... : ... .. . ... : ... .. . ... : ... .. . ... ... : ... .. . ... ... : ... .. . ... ... : ... .. . ... ...
ROW 60 : B-5 00 E ... ... ... : F#2 00 8 P80 ... ... : A#4 00 . ... : ... .. F ... : ... .. . ... ... : D-3 01 5 ... ... : F#2 01 A ... ... : D-3 01 A ... ...
ROW 61 : ... .. D ... ... ... : ... .. B ... ... ... : C-4 00 . ... : ... .. C ... : ... .. . ... ... : ... .. 4 ... ... : ... .. 9 ... ... : ... .. 8 ... ...
ROW 62 : ... .. C ... ... ... : ... .. 8 ... ... ... : F-3 00 . ... : ... .. 6 ... : ... .. . ... ... : ... .. . ... ... : ... .. 8 ... ... : ... .. 5 ... ...
ROW 63 : ... .. 6 ... ... ... : ... .. 0 ... ... ... : E-3 00 . ... : ... .. 3 ... : ... .. . ... ... : E-3 01 5 ... ... : ... .. 7 ... ... : ... .. . ... ...
ROW 64 : ... .. . ... ... ... : F#2 00 5 P80 ... ... : B-2 00 . ... : ... .. 2 ... : ... .. . ... ... : ... .. 4 ... ... : ... .. . ... ... : ... .. . ... ...
ROW 65 : ... .. . ... ... ... : ... .. 8 ... ... ... : ... .. . ... : ... .. 0 ... : ... .. . ... ... : ... .. . ... ... : ... .. 6 ... ... : ... .. . ... ...
ROW 66 : ... .. 4 ... ... ... : G-2 00 8 ... ... ... : ... .. . ... : 2-# 00 F ... : ... .. . ... ... : F#3 01 5 ... ... : ... .. . ... ... : ... .. . ... ...
ROW 67 : ... .. . ... ... ... : ... .. B ... ... ... : ... .. . ... : ... .. C ... : ... .. . ... ... : ... .. 4 ... ... : ... .. 5 ... ... : ... .. . ... ...
ROW 68 : ... .. . ... ... ... : ... .. 8 ... ... ... : ... .. . ... : ... .. 6 ... : ... .. . ... ... : ... .. . ... ... : ... .. . ... ... : ... .. . ... ...
ROW 69 : ... .. 2 ... ... ... : ... .. 0 ... ... ... : ... .. . ... : ... .. 3 ... : ... .. . ... ... : G-3 01 5 ... ... : ... .. . ... ... : ... .. . ... ...
ROW 6A : ... .. . ... ... ... : G-2 00 5 P80 ... ... : ... .. . ... : ... .. 2 ... : ... .. . ... ... : ... .. 4 ... ... : ... .. . ... ... : ... .. . ... ...
ROW 6B : ... .. . ... ... ... : ... .. 8 ... ... ... : ... .. . ... : ... .. 0 ... : ... .. . ... ... : ... .. . ... ... : ... .. . ... ... : ... .. . ... ...
ROW 6C : B-2 00 F ... ... ... : A-2 00 8 ... ... ... : A#2 00 . P7B : 1-# 00 F ... : ... .. . ... ... : A-3 01 5 ... ... : ... .. . ... ... : ... .. . ... ...
ROW 6D : ... .. E ... ... ... : ... .. B ... ... ... : A-2 00 . P77 : ... .. C ... : ... .. . ... ... : ... .. 4 ... ... : ... .. . ... ... : ... .. . ... ...
ROW 6E : ... .. D ... ... ... : ... .. 8 ... ... ... : G#2 00 . P76 : ... .. 6 ... : ... .. . ... ... : ... .. . ... ... : ... .. . ... ... : ... .. . ... ...
ROW 6F : ... .. A ... ... ... : ... .. 0 ... ... ... : G-2 00 . ... : ... .. 3 ... : ... .. . ... ... : B-3 01 5 ... ... : ... .. . ... ... : ... .. . ... ...
ROW 70 : ... .. . ... ... ... : A-2 00 5 P80 ... ... : F#2 00 . P78 : ... .. 2 ... : ... .. . ... ... : ... .. 4 ... ... : ... .. . ... ... : ... .. . ... ...
ROW 71 : ... .. . ... ... ... : ... .. 8 ... ... ... : F-2 00 . P7C : ... .. 0 ... : ... .. . ... ... : ... .. . ... ... : ... .. . ... ... : ... .. . ... ...
ROW 72 : ... .. . ... ... ... : B-2 00 8 ... ... ... : E-2 00 . P82 : C-# 00 F ... : ... .. . ... ... : C#4 01 5 ... ... : ... .. . ... ... : ... .. . ... ...
ROW 73 : ... .. 2 ... ... ... : ... .. B ... ... ... : D#2 00 . P8A : ... .. C ... : ... .. . ... ... : ... .. 4 ... ... : ... .. . ... ... : ... .. . ... ...
ROW 74 : ... .. . ... ... ... : ... .. 8 ... ... ... : D-2 00 . P95 : ... .. 6 ... : ... .. . ... ... : ... .. . ... ... : ... .. . ... ... : ... .. . ... ...
ROW 75 : ... .. . ... ... ... : ... .. 0 ... ... ... : ... .. . P75 : ... .. 3 ... : ... .. . ... ... : D-4 01 5 ... ... : ... .. . ... ... : ... .. . ... ...
ROW 76 : ... .. 1 ... ... ... : B-2 00 5 P80 ... ... : C#2 00 . P82 : ... .. 2 ... : ... .. . ... ... : ... .. 4 ... ... : ... .. . ... ... : ... .. . ... ...
ROW 77 : ... .. . ... ... ... : ... .. 8 ... ... ... : C-2 00 . P92 : ... .. 0 ... : ... .. . ... ... : ... .. . ... ... : ... .. . ... ... : ... .. . ... ...
ROW 78 : F#3 00 F ... ... ... : F#2 00 8 ... ... ... : A#3 00 . P80 : 7-# 00 F ... : ... .. . ... ... : E-4 01 5 ... ... : ... .. . ... ... : ... .. . ... ...
ROW 79 : ... .. E ... ... ... : ... .. B ... ... ... : C-3 00 . ... : ... .. C ... : ... .. . ... ... : ... .. 4 ... ... : ... .. . ... ... : ... .. . ... ...
ROW 7A : ... .. D ... ... ... : ... .. 8 ... ... ... : F-2 00 . ... : ... .. 6 ... : ... .. . ... ... : ... .. . ... ... : ... .. . ... ... : ... .. . ... ...
ROW 7B : ... .. A ... ... ... : ... .. 0 ... ... ... : E-2 00 . ... : ... .. 3 ... : ... .. . ... ... : F#4 01 5 ... ... : ... .. . ... ... : ... .. . ... ...
ROW 7C : ... .. . ... ... ... : F#2 00 5 P80 ... ... : B-1 00 . ... : ... .. 2 ... : ... .. . ... ... : ... .. 4 ... ... : ... .. . ... ... : ... .. . ... ...
ROW 7D : ... .. . ... ... ... : ... .. 8 ... ... ... : ... .. . ... : ... .. 0 ... : ... .. . ... ... : ... .. . ... ... : ... .. . ... ... : ... .. . ... ...
ROW 7E : ... .. . ... ... ... : G-2 00 8 ... ... ... : ... .. . ... : 1-# 00 F ... : ... .. . ... ... : G-4 01 5 ... ... : ... .. . ... ... : ... .. . ... ...
ROW 7F : ... .. . ... ... ... : ... .. B ... ... ... : ... .. . ... : ... .. C ... : ... .. . ... ... : ... .. 4 ... ... : ... .. . ... ... : ... .. . ... ...
ROW 80 : ... .. . ... ... ... : ... .. 8 ... ... ... : ... .. . ... : ... .. 6 ... : ... .. . ... ... : ... .. . ... ... : ... .. . ... ... : ... .. . ... ...
ROW 81 : ... .. . ... ... ... : ... .. 0 ... ... ... : ... .. . ... : ... .. 3 ... : ... .. . ... ... : A-4 01 5 ... ... : ... .. . ... ... : ... .. . ... ...
ROW 82 : ... .. 2 ... ... ... : G-2 00 5 P80 ... ... : ... .. . ... : ... .. 2 ... : ... .. . ... ... : ... .. 4 ... ... : ... .. . ... ... : ... .. . ... ...
ROW 83 : ... .. . ... ... ... : ... .. 8 ... ... ... : ... .. . ... : ... .. 0 ... : ... .. . ... ... : ... .. . ... ... : ... .. . ... ... : ... .. . ... ...
ROW 84 : B-2 00 F ... ... ... : A-2 00 8 ... ... ... : ... .. . ... : C-# 00 F ... : ... .. . ... ... : B-4 01 5 ... ... : D-2 01 A ... ... : B-2 01 A ... ...
ROW 85 : ... .. E ... ... ... : ... .. B ... ... ... : ... .. . ... : ... .. C ... : ... .. . ... ... : ... .. 4 ... ... : ... .. 9 ... ... : ... .. 8 ... ...
ROW 86 : ... .. D ... ... ... : ... .. 8 ... ... ... : ... .. . ... : ... .. 6 ... : ... .. . ... ... : ... .. . ... ... : ... .. 8 ... ... : ... .. 5 ... ...
ROW 87 : ... .. A ... ... ... : ... .. 0 ... ... ... : ... .. . ... : ... .. 3 ... : ... .. . ... ... : C#5 01 5 ... ... : ... .. 7 ... ... : ... .. . ... ...
ROW 88 : ... .. . ... ... ... : A-2 00 5 P80 ... ... : ... .. . ... : ... .. 2 ... : ... .. . ... ... : ... .. 4 ... ... : ... .. . ... ... : ... .. . ... ...
ROW 89 : ... .. . ... ... ... : ... .. 8 ... ... ... : ... .. . ... : ... .. 0 ... : ... .. . ... ... : ... .. . ... ... : ... .. 6 ... ... : ... .. . ... ...
ROW 8A : ... .. . ... ... ... : B-2 00 8 ... ... ... : ... .. . ... : 7-# 00 F ... : ... .. . ... ... : D-5 01 5 ... ... : --- .. . P84 ... : --- .. . P8B ...
ROW 8B : ... .. . ... ... ... : ... .. B ... ... ... : ... .. . ... : ... .. C ... : ... .. . ... ... : ... .. 4 ... ... : ... .. . ... ... : ... .. . ... ...
ROW 8C : ... .. . ... ... ... : ... .. 8 ... ... ... : ... .. . ... : ... .. 6 ... : ... .. . ... ... : ... .. . ... ... : ... .. . ... ... : ... .. . ... ...
ROW 8D : ... .. . ... ... ... : ... .. 0 ... ... ... : ... .. . ... : ... .. 3 ... : ... .. . ... ... : E-5 01 5 ... ... : ... .. . ... ... : ... .. . ... ...
ROW 8E : ... .. 2 ... ... ... : B-2 00 5 P80 ... ... : ... .. . ... : ... .. 2 ... : ... .. . ... ... : ... .. 4 ... ... : ... .. . ... ... : ... .. . ... ...
ROW 8F : ... .. . ... ... ... : ... .. 8 ... ... ... : ... .. . ... : ... .. 0 ... : ... .. . ... ... : ... .. . ... ... : ... .. . ... ... : ... .. . ... ...
ROW 90 : F#3 00 F ... ... ... : F#2 00 8 ... ... ... : A#4 00 . ... : 1-# 00 F ... : ... .. . ... ... : F#5 01 5 ... ... : B-2 01 A P80 ... : F#3 01 A P80 ...
ROW 91 : ... .. E ... ... ... : ... .. B ... ... ... : C-4 00 . ... : ... .. C ... : ... .. . ... ... : ... .. 4 ... ... : ... .. 9 ... ... : ... .. 8 ... ...
ROW 92 : ... .. D ... ... ... : ... .. 8 ... ... ... : F-3 00 . ... : ... .. 6 ... : ... .. . ... ... : ... .. . ... ... : ... .. 8 ... ... : ... .. 5 ... ...
ROW 93 : ... .. A ... ... ... : ... .. 0 ... ... ... : E-3 00 . ... : ... .. 3 ... : ... .. . ... ... : E-5 01 5 ... ... : ... .. 7 ... ... : ... .. . ... ...
ROW 94 : ... .. . ... ... ... : F#2 00 5 P80 ... ... : B-2 00 . ... : ... .. 2 ... : ... .. . ... ... : ... .. 4 ... ... : ... .. . ... ... : ... .. . ... ...
ROW 95 : ... .. . ... ... ... : ... .. 8 ... ... ... : ... .. . ... : ... .. 0 ... : ... .. . ... ... : ... .. . ... ... : ... .. 6 ... ... : ... .. . ... ...
ROW 96 : ... .. . ... ... ... : G-2 00 8 ... ... ... : ... .. . ... : B-# 00 F ... : ... .. . ... ... : D-5 01 5 ... ... : ... .. . ... ... : ... .. . ... ...
ROW 97 : ... .. . ... ... ... : ... .. B ... ... ... : ... .. . ... : ... .. C ... : ... .. . ... ... : ... .. 4 ... ... : ... .. 5 ... ... : ... .. . ... ...
ROW 98 : ... .. . ... ... ... : ... .. 8 ... ... ... : ... .. . ... : ... .. 6 ... : ... .. . ... ... : ... .. . ... ... : ... .. . ... ... : ... .. . ... ...
ROW 99 : ... .. . ... ... ... : ... .. 0 ... ... ... : ... .. . ... : ... .. 3 ... : ... .. . ... ... : C#5 01 5 ... ... : ... .. . ... ... : ... .. . ... ...
ROW 9A : ... .. . ... ... ... : G-2 00 5 P80 ... ... : ... .. . ... : ... .. 2 ... : ... .. . ... ... : ... .. 4 ... ... : ... .. . ... ... : ... .. . ... ...
ROW 9B : ... .. . ... ... ... : ... .. 8 ... ... ... : ... .. . ... : ... .. 0 ... : ... .. . ... ... : ... .. . ... ... : ... .. . ... ... : ... .. . ... ...
ROW 9C : ... .. . ... ... ... : A-2 00 8 ... ... ... : A#2 00 . P7B : 7-# 00 F ... : ... .. . ... ... : B-4 01 5 ... ... : ... .. . ... ... : ... .. . ... ...
ROW 9D : ... .. . ... ... ... : ... .. B ... ... ... : A-2 00 . P77 : ... .. C ... : ... .. . ... ... : ... .. 4 ... ... : ... .. . ... ... : ... .. . ... ...
ROW 9E : ... .. . ... ... ... : ... .. 8 ... ... ... : G#2 00 . P76 : ... .. 6 ... : ... .. . ... ... : ... .. . ... ... : ... .. . ... ... : ... .. . ... ...
ROW 9F : ... .. . ... ... ... : ... .. 0 ... ... ... : G-2 00 . ... : ... .. 3 ... : ... .. . ... ... : A-4 01 5 ... ... : ... .. . ... ... : ... .. . ... ...
ROW A0 : ... .. . ... ... ... : A-2 00 5 P80 ... ... : F#2 00 . P78 : ... .. 2 ... : ... .. . ... ... : ... .. 4 ... ... : ... .. . ... ... : ... .. . ... ...
ROW A1 : ... .. . ... ... ... : ... .. 8 ... ... ... : F-2 00 . P7C : ... .. 0 ... : ... .. . ... ... : ... .. . ... ... : ... .. . ... ... : ... .. . ... ...
ROW A2 : ... .. . ... ... ... : B-2 00 8 ... ... ... : E-2 00 . P82 : 1-# 00 F ... : ... .. . ... ... : G-4 01 5 ... ... : ... .. . ... ... : ... .. . ... ...
ROW A3 : ... .. 2 ... ... ... : ... .. B ... ... ... : D#2 00 . P8A : ... .. C ... : ... .. . ... ... : ... .. 4 ... ... : ... .. . ... ... : ... .. . ... ...
ROW A4 : ... .. . ... ... ... : ... .. 8 ... ... ... : D-2 00 . P95 : ... .. 6 ... : ... .. . ... ... : ... .. . ... ... : ... .. . ... ... : ... .. . ... ...
ROW A5 : ... .. . ... ... ... : ... .. 0 ... ... ... : ... .. . P75 : ... .. 3 ... : ... .. . ... ... : F#4 01 5 ... ... : --- .. . P85 ... : --- .. . P82 ...
ROW A6 : ... .. 1 ... ... ... : B-2 00 5 P80 ... ... : C#2 00 . P82 : ... .. 2 ... : ... .. . ... ... : ... .. 4 ... ... : ... .. . ... ... : ... .. . ... ...
ROW A7 : ... .. . ... ... ... : ... .. 8 ... ... ... : C-2 00 . P92 : ... .. 0 ... : ... .. . ... ... : ... .. . ... ... : ... .. . ... ... : ... .. . ... ...
ROW A8 : B-2 00 F ... ... ... : F#2 00 8 ... ... ... : A#3 00 . P80 : 9-# 00 F ... : ... .. . ... ... : E-4 01 5 ... ... : D-3 01 6 P80 ... : D-3 01 A P80 ...
ROW A9 : ... .. E ... ... ... : ... .. B ... ... ... : C-3 00 . ... : ... .. C ... : ... .. . ... ... : ... .. 4 ... ... : ... .. . ... ... : ... .. 8 ... ...
ROW AA : ... .. D ... ... ... : ... .. 8 ... ... ... : F-2 00 . ... : ... .. 6 ... : ... .. . ... ... : ... .. . ... ... : ... .. 5 ... ... : ... .. 5 ... ...
ROW AB : ... .. A ... ... ... : ... .. 0 ... ... ... : E-2 00 . ... : ... .. 3 ... : ... .. . ... ... : D-4 01 5 ... ... : ... .. 4 ... ... : ... .. . ... ...
ROW AC : ... .. . ... ... ... : F#2 00 5 P80 ... ... : B-1 00 . ... : ... .. 2 ... : ... .. . ... ... : ... .. 4 ... ... : ... .. . ... ... : ... .. . ... ...
ROW AD : ... .. . ... ... ... : ... .. 8 ... ... ... : ... .. . ... : ... .. 0 ... : ... .. . ... ... : ... .. . ... ... : --- .. . P82 ... : --- .. . P84 ...
ROW AE : ... .. . ... ... ... : G-2 00 8 ... ... ... : ... .. . ... : ... .. F ... : ... .. . ... ... : C-4 01 5 ... ... : ... .. . ... ... : ... .. . ... ...
ROW AF : ... .. . ... ... ... : ... .. B ... ... ... : ... .. . ... : ... .. C ... : ... .. . ... ... : ... .. 4 ... ... : ... .. . ... ... : ... .. . ... ...
ROW B0 : ... .. . ... ... ... : ... .. 8 ... ... ... : ... .. . ... : ... .. 6 ... : ... .. . ... ... : ... .. . ... ... : D-3 01 6 P80 ... : D-3 01 A P80 ...
ROW B1 : ... .. . ... ... ... : ... .. 0 ... ... ... : ... .. . ... : ... .. 3 ... : ... .. . ... ... : C#4 01 5 ... ... : ... .. . ... ... : ... .. 8 ... ...
ROW B2 : ... .. . ... ... ... : G-2 00 5 P80 ... ... : ... .. . ... : ... .. 2 ... : ... .. . ... ... : ... .. 4 ... ... : ... .. 5 ... ... : ... .. 5 ... ...
ROW B3 : ... .. . ... ... ... : ... .. 8 ... ... ... : ... .. . ... : ... .. 0 ... : ... .. . ... ... : ... .. . ... ... : ... .. 4 ... ... : ... .. . ... ...
ROW B4 : A-3 00 F ... ... ... : A-2 00 8 ... ... ... : ... .. . ... : 7-# 00 F ... : ... .. . ... ... : B-3 01 5 ... ... : --- .. . P82 ... : --- .. . P84 ...
ROW B5 : ... .. E ... ... ... : ... .. B ... ... ... : ... .. . ... : ... .. C ... : ... .. . ... ... : ... .. 4 ... ... : ... .. . ... ... : ... .. . ... ...
ROW B6 : ... .. D ... ... ... : ... .. 8 ... ... ... : ... .. . ... : ... .. 6 ... : ... .. . ... ... : ... .. . ... ... : ... .. . ... ... : ... .. . ... ...
ROW B7 : ... .. A ... ... ... : ... .. 0 ... ... ... : ... .. . ... : ... .. 3 ... : ... .. . ... ... : A-3 01 5 ... ... : ... .. . ... ... : ... .. . ... ...
ROW B8 : ... .. . ... ... ... : A-2 00 5 P80 ... ... : ... .. . ... : ... .. 2 ... : ... .. . ... ... : ... .. 4 ... ... : D-3 01 6 P80 ... : D-3 01 A P80 ...
ROW B9 : ... .. . ... ... ... : ... .. 8 ... ... ... : ... .. . ... : ... .. 0 ... : ... .. . ... ... : ... .. . ... ... : ... .. . ... ... : ... .. 8 ... ...
ROW BA : ... .. . ... ... ... : B-2 00 8 ... ... ... : ... .. . ... : ... .. F ... : ... .. . ... ... : G-3 01 5 ... ... : ... .. 5 ... ... : ... .. 5 ... ...
ROW BB : ... .. . ... ... ... : ... .. B ... ... ... : ... .. . ... : ... .. C ... : ... .. . ... ... : ... .. 4 ... ... : ... .. 4 ... ... : ... .. . ... ...
ROW BC : ... .. . ... ... ... : ... .. 8 ... ... ... : ... .. . ... : ... .. 6 ... : ... .. . ... ... : ... .. . ... ... : ... .. . ... ... : ... .. . ... ...
ROW BD : ... .. . ... ... ... : ... .. 0 ... ... ... : ... .. . ... : ... .. 3 ... : ... .. . ... ... : F#3 01 5 ... ... : --- .. . P82 ... : --- .. . P84 ...
ROW BE : ... .. 2 ... ... ... : B-2 00 5 P80 ... ... : ... .. . ... : ... .. 2 ... : ... .. . ... ... : ... .. 4 ... ... : ... .. . ... ... : ... .. . ... ...
ROW BF : ... .. . ... ... ... : ... .. 8 ... ... ... : ... .. . ... : ... .. 0 ... : ... .. . ... ... : ... .. . ... ... : ... .. . ... ... : ... .. . ... ...
ROW C0 : G-3 00 F ... ... ... : F#2 00 8 ... ... ... : A#4 00 . ... : 9-# 00 F ... : ... .. . ... ... : E-3 01 5 ... ... : E-2 01 6 P80 ... : E-3 01 A P80 ...
ROW C1 : ... .. E ... ... ... : ... .. B ... ... ... : C-4 00 . ... : ... .. C ... : ... .. . ... ... : ... .. 4 ... ... : ... .. . ... ... : ... .. 8 ... ...
ROW C2 : ... .. D ... ... ... : ... .. 8 ... ... ... : F-3 00 . ... : ... .. 6 ... : ... .. . ... ... : ... .. . ... ... : ... .. 5 ... ... : ... .. 5 ... ...
ROW C3 : ... .. A ... ... ... : ... .. 0 ... ... ... : E-3 00 . ... : ... .. 3 ... : ... .. . ... ... : F#3 01 5 ... ... : --- .. . P83 ... : --- .. . P7D ...
ROW C4 : ... .. . ... ... ... : F#2 00 5 P80 ... ... : B-2 00 . ... : ... .. 2 ... : ... .. . ... ... : ... .. 4 ... ... : ... .. . ... ... : ... .. . ... ...
ROW C5 : ... .. . ... ... ... : ... .. 8 ... ... ... : ... .. . ... : ... .. 0 ... : ... .. . ... ... : ... .. . ... ... : ... .. . ... ... : ... .. . ... ...
ROW C6 : ... .. . ... ... ... : G-2 00 8 ... ... ... : ... .. . ... : 2-# 00 F ... : ... .. . ... ... : G-3 01 5 ... ... : G-2 01 6 P80 ... : F#3 01 A P80 ...
ROW C7 : ... .. . ... ... ... : ... .. B ... ... ... : ... .. . ... : ... .. C ... : ... .. . ... ... : ... .. 4 ... ... : ... .. . ... ... : ... .. 8 ... ...
ROW C8 : ... .. . ... ... ... : ... .. 8 ... ... ... : ... .. . ... : ... .. 6 ... : ... .. . ... ... : ... .. . ... ... : ... .. 5 ... ... : ... .. 5 ... ...
ROW C9 : ... .. . ... ... ... : ... .. 0 ... ... ... : ... .. . ... : ... .. 3 ... : ... .. . ... ... : A-3 01 5 ... ... : --- .. . P81 ... : --- .. . P82 ...
ROW CA : ... .. . ... ... ... : G-2 00 5 P80 ... ... : ... .. . ... : ... .. 2 ... : ... .. . ... ... : ... .. 4 ... ... : ... .. . ... ... : ... .. . ... ...
ROW CB : ... .. . ... ... ... : ... .. 8 ... ... ... : ... .. . ... : ... .. 0 ... : ... .. . ... ... : ... .. . ... ... : ... .. . ... ... : ... .. . ... ...
ROW CC : ... .. . ... ... ... : A-2 00 8 ... ... ... : A#2 00 . P7B : 1-# 00 F ... : ... .. . ... ... : B-3 01 5 ... ... : C-3 01 6 P80 ... : G-3 01 A P80 ...
ROW CD : ... .. 2 ... ... ... : ... .. B ... ... ... : A-2 00 . P77 : ... .. C ... : ... .. . ... ... : ... .. 4 ... ... : ... .. . ... ... : ... .. 8 ... ...
ROW CE : ... .. . ... ... ... : ... .. 8 ... ... ... : G#2 00 . P76 : ... .. 6 ... : ... .. . ... ... : ... .. . ... ... : ... .. 5 ... ... : ... .. 5 ... ...
ROW CF : ... .. . ... ... ... : ... .. 0 ... ... ... : G-2 00 . ... : ... .. 3 ... : ... .. . ... ... : C-4 01 5 ... ... : ... .. 4 ... ... : ... .. . ... ...
ROW D0 : ... .. 1 ... ... ... : A-2 00 5 P80 ... ... : F#2 00 . P78 : ... .. 2 ... : ... .. . ... ... : ... .. 4 ... ... : ... .. . ... ... : ... .. . ... ...
ROW D1 : ... .. . ... ... ... : ... .. 8 ... ... ... : F-2 00 . P7C : ... .. 0 ... : ... .. . ... ... : ... .. . ... ... : ... .. . ... ... : ... .. . ... ...
ROW D2 : F#3 00 F ... ... ... : B-2 00 8 ... ... ... : E-2 00 . P82 : C-# 00 F ... : ... .. . ... ... : D-4 01 5 ... ... : ... .. . ... ... : ... .. . ... ...
ROW D3 : ... .. E ... ... ... : ... .. B ... ... ... : D#2 00 . P8A : ... .. C ... : ... .. . ... ... : ... .. 4 ... ... : ... .. 3 ... ... : ... .. . ... ...
ROW D4 : ... .. D ... ... ... : ... .. 8 ... ... ... : D-2 00 . P95 : ... .. 6 ... : ... .. . ... ... : ... .. . ... ... : ... .. . ... ... : ... .. . ... ...
ROW D5 : ... .. A ... ... ... : ... .. 0 ... ... ... : ... .. . P75 : ... .. 3 ... : ... .. . ... ... : E-4 01 5 ... ... : ... .. . ... ... : ... .. . ... ...
ROW D6 : ... .. . ... ... ... : B-2 00 5 P80 ... ... : C#2 00 . P82 : ... .. 2 ... : ... .. . ... ... : ... .. 4 ... ... : ... .. . ... ... : ... .. . ... ...
ROW D7 : ... .. . ... ... ... : ... .. 8 ... ... ... : C-2 00 . P92 : ... .. 0 ... : ... .. . ... ... : ... .. . ... ... : ... .. . ... ... : ... .. . ... ...
ROW D8 : ... .. . ... ... ... : F#2 00 8 ... ... ... : A#3 00 . P80 : 7-# 00 F ... : ... .. . ... ... : F#4 01 5 ... ... : ... .. . ... ... : ... .. . ... ...
ROW D9 : ... .. . ... ... ... : ... .. B ... ... ... : C-3 00 . ... : ... .. C ... : ... .. . ... ... : ... .. 4 ... ... : ... .. . ... ... : ... .. . ... ...
ROW DA : ... .. . ... ... ... : ... .. 8 ... ... ... : F-2 00 . ... : ... .. 6 ... : ... .. . ... ... : ... .. . ... ... : ... .. . ... ... : ... .. . ... ...
ROW DB : ... .. . ... ... ... : ... .. 0 ... ... ... : E-2 00 . ... : ... .. 3 ... : ... .. . ... ... : G-4 01 5 ... ... : ... .. . ... ... : ... .. . ... ...
ROW DC : ... .. . ... ... ... : F#2 00 5 P80 ... ... : B-1 00 . ... : ... .. 2 ... : ... .. . ... ... : ... .. 4 ... ... : ... .. . ... ... : ... .. . ... ...
ROW DD : ... .. . ... ... ... : ... .. 8 ... ... ... : ... .. . ... : ... .. 0 ... : ... .. . ... ... : ... .. . ... ... : ... .. . ... ... : ... .. . ... ...
ROW DE : ... .. . ... ... ... : G-2 00 8 ... ... ... : ... .. . ... : 1-# 00 F ... : ... .. . ... ... : A-4 01 5 ... ... : ... .. . ... ... : ... .. . ... ...
ROW DF : ... .. 2 ... ... ... : ... .. B ... ... ... : ... .. . ... : ... .. C ... : ... .. . ... ... : ... .. 4 ... ... : ... .. . ... ... : ... .. . ... ...
ROW E0 : ... .. . ... ... ... : ... .. 8 ... ... ... : ... .. . ... : ... .. 6 ... : ... .. . ... ... : ... .. . ... ... : ... .. . ... ... : ... .. . ... ...
ROW E1 : ... .. . ... ... ... : ... .. 0 ... ... ... : ... .. . ... : ... .. 3 ... : ... .. . ... ... : B-4 01 5 ... ... : ... .. . ... ... : ... .. . ... ...
ROW E2 : ... .. 1 ... ... ... : G-2 00 5 P80 ... ... : ... .. . ... : ... .. 2 ... : ... .. . ... ... : ... .. 4 ... ... : ... .. . ... ... : ... .. . ... ...
ROW E3 : ... .. . ... ... ... : ... .. 8 ... ... ... : ... .. . ... : ... .. 0 ... : ... .. . ... ... : ... .. . ... ... : ... .. . ... ... : ... .. . ... ...
ROW E4 : E-3 00 F ... ... ... : A-2 00 8 ... ... ... : ... .. . ... : C-# 00 F ... : ... .. . ... ... : C-5 01 5 ... ... : ... .. . ... ... : ... .. . ... ...
ROW E5 : ... .. E ... ... ... : ... .. B ... ... ... : ... .. . ... : ... .. C ... : ... .. . ... ... : ... .. 4 ... ... : ... .. . ... ... : ... .. . ... ...
ROW E6 : ... .. D ... ... ... : ... .. 8 ... ... ... : ... .. . ... : ... .. 6 ... : ... .. . ... ... : ... .. . ... ... : ... .. . ... ... : ... .. . ... ...
ROW E7 : ... .. A ... ... ... : ... .. 0 ... ... ... : ... .. . ... : ... .. 3 ... : ... .. . ... ... : D-5 01 5 ... ... : ... .. . ... ... : ... .. . ... ...
ROW E8 : ... .. . ... ... ... : A-2 00 5 P80 ... ... : ... .. . ... : ... .. 2 ... : ... .. . ... ... : ... .. 4 ... ... : ... .. . ... ... : ... .. . ... ...
ROW E9 : ... .. . ... ... ... : ... .. 8 ... ... ... : ... .. . ... : ... .. 0 ... : ... .. . ... ... : ... .. . ... ... : ... .. . ... ... : ... .. . ... ...
ROW EA : ... .. . ... ... ... : B-2 00 8 ... ... ... : ... .. . ... : 7-# 00 F ... : ... .. . ... ... : E-5 01 5 ... ... : --- .. . P7E ... : --- .. . P7F ...
ROW EB : ... .. . ... ... ... : ... .. B ... ... ... : ... .. . ... : ... .. C ... : ... .. . ... ... : ... .. 4 ... ... : ... .. . ... ... : ... .. . ... ...
ROW EC : ... .. . ... ... ... : ... .. 8 ... ... ... : ... .. . ... : ... .. 6 ... : ... .. . ... ... : ... .. . ... ... : ... .. . ... ... : ... .. . ... ...
ROW ED : ... .. . ... ... ... : ... .. 0 ... ... ... : ... .. . ... : ... .. 3 ... : ... .. . ... ... : F#5 01 5 ... ... : ... .. . ... ... : ... .. . ... ...
ROW EE : ... .. . ... ... ... : B-2 00 5 P80 ... ... : ... .. . ... : ... .. 2 ... : ... .. . ... ... : ... .. 4 ... ... : ... .. . ... ... : ... .. . ... ...
ROW EF : ... .. . ... ... ... : ... .. 8 ... ... ... : ... .. . ... : ... .. 0 ... : ... .. . ... ... : ... .. . ... ... : ... .. . ... ... : ... .. . ... ...
ROW F0 : ... .. . ... ... ... : F#2 00 8 ... ... ... : A#4 00 . ... : 1-# 00 F ... : ... .. . ... ... : G-5 01 5 ... ... : G-2 01 6 P80 ... : E-3 01 A P80 ...
ROW F1 : ... .. . ... ... ... : ... .. B ... ... ... : C-4 00 . ... : ... .. C ... : ... .. . ... ... : ... .. 4 ... ... : ... .. . ... ... : ... .. 8 ... ...
ROW F2 : ... .. . ... ... ... : ... .. 8 ... ... ... : F-3 00 . ... : ... .. 6 ... : ... .. . ... ... : ... .. . ... ... : ... .. 5 ... ... : ... .. 5 ... ...
ROW F3 : ... .. . ... ... ... : ... .. 0 ... ... ... : E-3 00 . ... : ... .. 3 ... : ... .. . ... ... : F#5 01 5 ... ... : ... .. 4 ... ... : ... .. . ... ...
ROW F4 : ... .. . ... ... ... : F#2 00 5 P80 ... ... : B-2 00 . ... : ... .. 2 ... : ... .. . ... ... : ... .. 4 ... ... : ... .. . ... ... : ... .. . ... ...
ROW F5 : ... .. . ... ... ... : ... .. 8 ... ... ... : ... .. . ... : ... .. 0 ... : ... .. . ... ... : ... .. . ... ... : ... .. . ... ... : ... .. . ... ...
ROW F6 : ... .. . ... ... ... : G-2 00 8 ... ... ... : ... .. . ... : B-# 00 F ... : ... .. . ... ... : E-5 01 5 ... ... : ... .. . ... ... : ... .. . ... ...
ROW F7 : ... .. . ... ... ... : ... .. B ... ... ... : ... .. . ... : ... .. C ... : ... .. . ... ... : ... .. 4 ... ... : ... .. 3 ... ... : ... .. . ... ...
ROW F8 : ... .. . ... ... ... : ... .. 8 ... ... ... : ... .. . ... : ... .. 6 ... : ... .. . ... ... : ... .. . ... ... : ... .. . ... ... : ... .. . ... ...
ROW F9 : ... .. . ... ... ... : ... .. 0 ... ... ... : ... .. . ... : ... .. 3 ... : ... .. . ... ... : D-5 01 5 ... ... : ... .. . ... ... : ... .. . ... ...
ROW FA : ... .. . ... ... ... : G-2 00 5 P80 ... ... : ... .. . ... : ... .. 2 ... : ... .. . ... ... : ... .. 4 ... ... : ... .. . ... ... : ... .. . ... ...
ROW FB : ... .. . ... ... ... : ... .. 8 ... ... ... : ... .. . ... : ... .. 0 ... : ... .. . ... ... : ... .. . ... ... : ... .. . ... ... : ... .. . ... ...
ROW FC : ... .. . ... ... ... : A-2 00 8 ... ... ... : A#2 00 . P7B : 7-# 00 F ... : ... .. . ... ... : C-5 01 5 ... ... : ... .. . ... ... : ... .. . ... ...
ROW FD : ... .. . ... ... ... : ... .. B ... ... ... : A-2 00 . P77 : ... .. C ... : ... .. . ... ... : ... .. 4 ... ... : ... .. . ... ... : ... .. . ... ...
ROW FE : ... .. . ... ... ... : ... .. 8 ... ... ... : G#2 00 . P76 : ... .. 6 ... : ... .. . ... ... : ... .. . ... ... : ... .. . ... ... : ... .. . ... ...
ROW FF : ... .. . ... ... ... : ... .. 0 ... ... ... : G-2 00 . ... : ... .. 3 ... : ... .. . ... ... : B-4 01 5 ... ... : ... .. . ... ... : ... .. . ... ...

PATTERN 01
ROW 00 : ... .. . ... ... ... : A-2 00 5 P80 ... ... : F#2 00 . P78 : ... .. 2 ... : ... .. . ... ... : ... .. 4 ... ... : ... .. . ... ... : ... .. . ... ...
ROW 01 : ... .. . ... ... ... : ... .. 8 ... ... ... : F-2 00 . P7C : ... .. 0 ... : ... .. . ... ... : ... .. . ... ... : ... .. . ... ... : ... .. . ... ...
ROW 02 : ... .. . ... ... ... : B-2 00 8 ... ... ... : E-2 00 . P82 : 1-# 00 F ... : ... .. . ... ... : A-4 01 5 ... ... : ... .. . ... ... : ... .. . ... ...
ROW 03 : ... .. . ... ... ... : ... .. B ... ... ... : D#2 00 . P8A : ... .. C ... : ... .. . ... ... : ... .. 4 ... ... : ... .. . ... ... : ... .. . ... ...
ROW 04 : ... .. . ... ... ... : ... .. 8 ... ... ... : D-2 00 . P95 : ... .. 6 ... : ... .. . ... ... : ... .. . ... ... : ... .. . ... ... : ... .. . ... ...
ROW 05 : ... .. . ... ... ... : ... .. 0 ... ... ... : ... .. . P75 : ... .. 3 ... : ... .. . ... ... : G-4 01 5 ... ... : ... .. . ... ... : ... .. . ... ...
ROW 06 : ... .. . ... ... ... : B-2 00 5 P80 ... ... : C#2 00 . P82 : ... .. 2 ... : ... .. . ... ... : ... .. 4 ... ... : ... .. . ... ... : ... .. . ... ...
ROW 07 : ... .. . ... ... ... : ... .. 8 ... ... ... : C-2 00 . P92 : ... .. 0 ... : ... .. . ... ... : ... .. . ... ... : ... .. . ... ... : ... .. . ... ...
ROW 08 : ... .. . ... ... ... : F#2 00 8 ... ... ... : A#3 00 . P80 : 9-# 00 F ... : ... .. . ... ... : F#4 01 5 ... ... : ... .. 6 ... ... : ... .. A ... ...
ROW 09 : ... .. . ... ... ... : ... .. B ... ... ... : C-3 00 . ... : ... .. C ... : ... .. . ... ... : ... .. 4 ... ... : ... .. . ... ... : ... .. 8 ... ...
ROW 0A : ... .. . ... ... ... : ... .. 8 ... ... ... : F-2 00 . ... : ... .. 6 ... : ... .. . ... ... : ... .. . ... ... : ... .. 5 ... ... : ... .. 5 ... ...
ROW 0B : ... .. . ... ... ... : ... .. 0 ... ... ... : E-2 00 . ... : ... .. 3 ... : ... .. . ... ... : E-4 01 5 ... ... : ... .. 4 ... ... : ... .. . ... ...
ROW 0C : ... .. . ... ... ... : F#2 00 5 P80 ... ... : B-1 00 . ... : ... .. 2 ... : ... .. . ... ... : ... .. 4 ... ... : ... .. . ... ... : ... .. . ... ...
ROW 0D : ... .. . ... ... ... : ... .. 8 ... ... ... : ... .. . ... : ... .. 0 ... : ... .. . ... ... : ... .. . ... ... : ... .. . ... ... : ... .. . ... ...
ROW 0E : ... .. . ... ... ... : G-2 00 8 ... ... ... : ... .. . ... : ... .. F ... : ... .. . ... ... : D-4 01 5 ... ... : C-3 01 6 ... ... : G-3 01 A ... ...
ROW 0F : ... .. . ... ... ... : ... .. B ... ... ... : ... .. . ... : ... .. C ... : ... .. . ... ... : ... .. 4 ... ... : ... .. . ... ... : ... .. 8 ... ...
ROW 10 : ... .. . ... ... ... : ... .. 8 ... ... ... : ... .. . ... : ... .. 6 ... : ... .. . ... ... : ... .. . ... ... : ... .. 5 ... ... : ... .. 5 ... ...
ROW 11 : ... .. . ... ... ... : ... .. 0 ... ... ... : ... .. . ... : ... .. 3 ... : ... .. . ... ... : C-4 01 5 ... ... : ... .. 4 ... ... : ... .. . ... ...
ROW 12 : ... .. . ... ... ... : G-2 00 5 P80 ... ... : ... .. . ... : ... .. 2 ... : ... .. . ... ... : ... .. 4 ... ... : ... .. . ... ... : ... .. . ... ...
ROW 13 : ... .. . ... ... ... : ... .. 8 ... ... ... : ... .. . ... : ... .. 0 ... : ... .. . ... ... : ... .. . ... ... : ... .. . ... ... : ... .. . ... ...
ROW 14 : ... .. . P84 ... ... : A-2 00 8 ... ... ... : ... .. . ... : 7-# 00 F ... : ... .. . ... ... : B-3 01 5 ... ... : E-3 01 6 ... ... : C-4 01 A ... ...
ROW 15 : ... .. . P86 ... ... : ... .. B ... ... ... : ... .. . ... : ... .. C ... : ... .. . ... ... : ... .. 4 ... ... : ... .. . ... ... : ... .. 8 ... ...
ROW 16 : ... .. . P85 ... ... : ... .. 8 ... ... ... : ... .. . ... : ... .. 6 ... : ... .. . ... ... : ... .. . ... ... : ... .. 5 ... ... : ... .. 5 ... ...
ROW 17 : ... .. . P82 ... ... : ... .. 0 ... ... ... : ... .. . ... : ... .. 3 ... : ... .. . ... ... : A-3 01 5 ... ... : ... .. 4 ... ... : ... .. . ... ...
ROW 18 : ... .. . P7E ... ... : A-2 00 5 P80 ... ... : ... .. . ... : ... .. 2 ... : ... .. . ... ... : ... .. 4 ... ... : ... .. . ... ... : ... .. . ... ...
ROW 19 : ... .. . P7B ... ... : ... .. 8 ... ... ... : ... .. . ... : ... .. 0 ... : ... .. . ... ... : ... .. . ... ... : ... .. . ... ... : ... .. . ... ...
ROW 1A : ... .. . P7A ... ... : B-2 00 8 ... ... ... : ... .. . ... : ... .. F ... : ... .. . ... ... : G-3 01 5 ... ... : G-3 01 6 ... ... : E-4 01 A ... ...
ROW 1B : ... .. . P7C ... ... : ... .. B ... ... ... : ... .. . ... : ... .. C ... : ... .. . ... ... : ... .. 4 ... ... : ... .. . ... ... : ... .. 8 ... ...
ROW 1C : ... .. . P80 ... ... : ... .. 8 ... ... ... : ... .. . ... : ... .. 6 ... : ... .. . ... ... : ... .. . ... ... : ... .. 5 ... ... : ... .. 5 ... ...
ROW 1D : ... .. . P83 ... ... : ... .. 0 ... ... ... : ... .. . ... : ... .. 3 ... : ... .. . ... ... : F#3 01 5 ... ... : ... .. 4 ... ... : ... .. . ... ...
ROW 1E : ... .. . P86 ... ... : B-2 00 5 P80 ... ... : ... .. . ... : ... .. 2 ... : ... .. . ... ... : ... .. 4 ... ... : ... .. . ... ... : ... .. . ... ...
ROW 1F : ... .. . ... ... ... : ... .. 8 ... ... ... : ... .. . ... : ... .. 0 ... : ... .. . ... ... : ... .. . ... ... : ... .. . ... ... : ... .. . ... ...
ROW 20 : ... .. . P82 ... ... : A-2 00 8 ... ... ... : A#4 00 . ... : 9-# 00 F ... : ... .. . ... ... : E-3 01 5 ... ... : C-4 01 6 ... ... : F#4 01 A ... ...
ROW 21 : ... .. . P7F ... ... : ... .. B ... ... ... : C-4 00 . ... : ... .. C ... : ... .. . ... ... : ... .. 4 ... ... : ... .. . ... ... : ... .. 8 ... ...
ROW 22 : ... .. . P7B ... ... : ... .. 8 ... ... ... : F-3 00 . ... : ... .. 6 ... : ... .. . ... ... : ... .. . ... ... : ... .. 5 ... ... : ... .. 5 ... ...
ROW 23 : ... .. . P7A ... ... : ... .. 0 ... ... ... : E-3 00 . ... : ... .. 3 ... : ... .. . ... ... : F#3 01 5 ... ... : ... .. 3 ... ... : ... .. 4 ... ...
ROW 24 : ... .. . P7C ... ... : A-2 00 5 P80 ... ... : B-2 00 . ... : ... .. 2 ... : ... .. . ... ... : ... .. 4 ... ... : ... .. . ... ... : ... .. . ... ...
ROW 25 : ... .. . P80 ... ... : ... .. 8 ... ... ... : ... .. . ... : ... .. 0 ... : ... .. . ... ... : ... .. . ... ... : ... .. . ... ... : ... .. . ... ...
ROW 26 : ... .. . P83 ... ... : B-2 00 8 ... ... ... : ... .. . ... : 2-# 00 F ... : ... .. . ... ... : G-3 01 5 ... ... : ... .. 2 ... ... : ... .. 3 ... ...
ROW 27 : ... .. . P86 ... ... : ... .. B ... ... ... : ... .. . ... : ... .. C ... : ... .. . ... ... : ... .. 4 ... ... : ... .. . ... ... : ... .. . ... ...
ROW 28 : ... .. . ... ... ... : ... .. 8 ... ... ... : ... .. . ... : ... .. 6 ... : ... .. . ... ... : ... .. . ... ... : ... .. . ... ... : ... .. . ... ...
ROW 29 : ... .. . P83 ... ... : ... .. 0 ... ... ... : ... .. . ... : ... .. 3 ... : ... .. . ... ... : A-3 01 5 ... ... : ... .. . ... ... : ... .. . ... ...
ROW 2A : ... .. . P80 ... ... : B-2 00 5 P80 ... ... : ... .. . ... : ... .. 2 ... : ... .. . ... ... : ... .. 4 ... ... : ... .. . ... ... : ... .. . ... ...
ROW 2B : ... .. . P7C ... ... : ... .. 8 ... ... ... : ... .. . ... : ... .. 0 ... : ... .. . ... ... : ... .. . ... ... : ... .. . ... ... : ... .. . ... ...
ROW 2C : ... .. . P7A ... ... : C-3 00 8 ... ... ... : A#2 00 . P7B : 1-# 00 F ... : ... .. . ... ... : B-3 01 5 ... ... : ... .. 1 ... ... : ... .. 2 ... ...
ROW 2D : ... .. . P7B ... ... : ... .. B ... ... ... : A-2 00 . P77 : ... .. C ... : ... .. . ... ... : ... .. 4 ... ... : ... .. . ... ... : ... .. . ... ...
ROW 2E : ... .. . P7F ... ... : ... .. 8 ... ... ... : G#2 00 . P76 : ... .. 6 ... : ... .. . ... ... : ... .. . ... ... : ... .. . ... ... : ... .. . ... ...
ROW 2F : ... .. . P82 ... ... : ... .. 0 ... ... ... : G-2 00 . ... : ... .. 3 ... : ... .. . ... ... : C-4 01 5 ... ... : ... .. . ... ... : ... .. . ... ...
ROW 30 : ... .. . P86 ... ... : C-3 00 5 P80 ... ... : F#2 00 . P78 : ... .. 2 ... : ... .. . ... ... : ... .. 4 ... ... : ... .. . ... ... : ... .. . ... ...
ROW 31 : ... .. . ... ... ... : ... .. 8 ... ... ... : F-2 00 . P7C : ... .. 0 ... : ... .. . ... ... : ... .. . ... ... : ... .. . ... ... : ... .. . ... ...
ROW 32 : ... .. . P83 ... ... : D-3 00 8 ... ... ... : E-2 00 . P82 : C-# 00 F ... : ... .. . ... ... : D-4 01 5 ... ... : ... .. . ... ... : ... .. . ... ...
ROW 33 : ... .. . P80 ... ... : ... .. B ... ... ... : D#2 00 . P8A : ... .. C ... : ... .. . ... ... : ... .. 4 ... ... : ... .. . ... ... : ... .. . ... ...
ROW 34 : ... .. . P7C ... ... : ... .. 8 ... ... ... : D-2 00 . P95 : ... .. 6 ... : ... .. . ... ... : ... .. . ... ... : ... .. . ... ... : ... .. . ... ...
ROW 35 : ... .. . P7A ... ... : ... .. 0 ... ... ... : ... .. . P75 : ... .. 3 ... : ... .. . ... ... : E-4 01 5 ... ... : ... .. 2 ... ... : ... .. 3 ... ...
ROW 36 : ... .. . P7B ... ... : D-3 00 5 P80 ... ... : C#2 00 . P82 : ... .. 2 ... : ... .. . ... ... : ... .. 4 ... ... : ... .. . ... ... : ... .. . ... ...
ROW 37 : ... .. . P7E ... ... : ... .. 8 ... ... ... : C-2 00 . P92 : ... .. 0 ... : ... .. . ... ... : ... .. . ... ... : ... .. . ... ... : ... .. . ... ...
ROW 38 : ... .. . P82 ... ... : C-3 00 8 ... ... ... : A#3 00 . P80 : 7-# 00 F ... : ... .. . ... ... : F#4 01 5 ... ... : ... .. . P84 ... : ... .. . P84 ...
ROW 39 : ... .. . P85 ... ... : ... .. B ... ... ... : C-3 00 . ... : ... .. C ... : ... .. . ... ... : ... .. 4 ... ... : ... .. . P86 ... : G-4 01 3 P7C ...
ROW 3A : ... .. . P86 ... ... : ... .. 8 ... ... ... : F-2 00 . ... : ... .. 6 ... : ... .. . ... ... : ... .. . ... ... : ... .. . P85 ... : F#4 01 3 P85 ...
ROW 3B : ... .. . P84 ... ... : ... .. 0 ... ... ... : E-2 00 . ... : ... .. 3 ... : ... .. . ... ... : G-4 01 5 ... ... : ... .. . P82 ... : ... .. 4 P82 ...
ROW 3C : ... .. . P80 ... ... : C-3 00 5 P80 ... ... : B-1 00 . ... : ... .. 2 ... : ... .. . ... ... : ... .. 4 ... ... : ... .. . P7E ... : ... .. . P7E ...
ROW 3D : ... .. . P7D ... ... : ... .. 8 ... ... ... : ... .. . ... : ... .. 0 ... : ... .. . ... ... : ... .. . ... ... : ... .. . P7B ... : F-4 01 4 P85 ...
ROW 3E : ... .. . P7A ... ... : D-3 00 8 ... ... ... : ... .. . ... : 1-# 00 F ... : ... .. . ... ... : A-4 01 5 ... ... : B-3 01 3 P86 ... : ... .. 5 P84 ...
ROW 3F : ... .. . ... ... ... : ... .. B ... ... ... : ... .. . ... : ... .. C ... : ... .. . ... ... : ... .. 4 ... ... : C-4 01 3 P7C ... : F#4 01 5 P7C ...
ROW 40 : ... .. . P7E ... ... : ... .. 8 ... ... ... : ... .. . ... : ... .. 6 ... : ... .. . ... ... : ... .. . ... ... : ... .. . P80 ... : ... .. . P80 ...
ROW 41 : ... .. . P81 ... ... : ... .. 0 ... ... ... : ... .. . ... : ... .. 3 ... : ... .. . ... ... : B-4 01 5 ... ... : ... .. . P83 ... : ... .. . P83 ...
ROW 42 : ... .. . P85 ... ... : D-3 00 5 P80 ... ... : ... .. . ... : ... .. 2 ... : ... .. . ... ... : ... .. 4 ... ... : ... .. . P86 ... : G-4 01 5 P7C ...
ROW 43 : ... .. . P86 ... ... : ... .. 8 ... ... ... : ... .. . ... : ... .. 0 ... : ... .. . ... ... : ... .. . ... ... : ... .. . ... ... : ... .. . ... ...
ROW 44 : ... .. . P84 ... ... : E-3 00 8 ... ... ... : ... .. . ... : C-# 00 F ... : ... .. . ... ... : C-5 01 5 ... ... : ... .. 4 P82 ... : F#4 01 6 P82 ...
ROW 45 : ... .. 2 P80 ... ... : ... .. B ... ... ... : ... .. . ... : ... .. C ... : ... .. . ... ... : ... .. 4 ... ... : ... .. . P7F ... : ... .. . P7F ...
ROW 46 : ... .. . P7D ... ... : ... .. 8 ... ... ... : ... .. . ... : ... .. 6 ... : ... .. . ... ... : ... .. . ... ... : ... .. . P7B ... : F-4 01 6 P85 ...
ROW 47 : ... .. . P7A ... ... : ... .. 0 ... ... ... : ... .. . ... : ... .. 3 ... : ... .. . ... ... : D-5 01 5 ... ... : B-3 01 4 P86 ... : ... .. . P84 ...
ROW 48 : ... .. 1 ... ... ... : E-3 00 5 P80 ... ... : ... .. . ... : ... .. 2 ... : ... .. . ... ... : ... .. 4 ... ... : C-4 01 4 P7C ... : F#4 01 6 P7C ...
ROW 49 : ... .. . P7D ... ... : ... .. 8 ... ... ... : ... .. . ... : ... .. 0 ... : ... .. . ... ... : ... .. . ... ... : ... .. . P80 ... : ... .. . P80 ...
ROW 4A : ... .. . P80 ... ... : F#3 00 8 ... ... ... : ... .. . ... : 7-# 00 F ... : ... .. . ... ... : E-5 01 5 ... ... : ... .. 5 P83 ... : ... .. 8 P83 ...
ROW 4B : ... .. 0 ... ... ... : ... .. B ... ... ... : ... .. . ... : ... .. C ... : ... .. . ... ... : ... .. 4 ... ... : ... .. . P86 ... : G-4 01 8 P7C ...
ROW 4C : ... .. . ... ... ... : ... .. 8 ... ... ... : ... .. . ... : ... .. 6 ... : ... .. . ... ... : ... .. . ... ... : ... .. . ... ... : ... .. . ... ...
ROW 4D : ... .. . ... ... ... : ... .. 0 ... ... ... : ... .. . ... : ... .. 3 ... : ... .. . ... ... : F#5 01 5 ... ... : ... .. 4 P83 ... : F#4 01 6 P83 ...
ROW 4E : ... .. . ... ... ... : F#3 00 5 P80 ... ... : ... .. . ... : ... .. 2 ... : ... .. . ... ... : ... .. 4 ... ... : ... .. . P80 ... : ... .. . P80 ...
ROW 4F : ... .. . ... ... ... : ... .. 8 ... ... ... : ... .. . ... : ... .. 0 ... : ... .. . ... ... : ... .. . ... ... : ... .. . P7C ... : ... .. . P7C ...
ROW 50 : G-3 00 F P80 ... ... : G-3 00 8 ... ... ... : A#4 00 . ... : 1-# 00 F ... : ... .. . ... ... : G-5 01 5 ... ... : ... .. 6 P80 ... : ... .. A P80 ...
ROW 51 : ... .. E ... ... ... : ... .. B ... ... ... : C-4 00 . ... : ... .. C ... : ... .. . ... ... : ... .. 4 ... ... : ... .. . ... ... : ... .. 8 ... ...
ROW 52 : ... .. D ... ... ... : ... .. 8 ... ... ... : F-3 00 . ... : ... .. 6 ... : ... .. . ... ... : ... .. . ... ... : ... .. 5 ... ... : ... .. 5 ... ...
ROW 53 : ... .. A ... ... ... : ... .. 0 ... ... ... : E-3 00 . ... : ... .. 3 ... : ... .. . ... ... : F#5 01 5 ... ... : ... .. 4 ... ... : ... .. . ... ...
ROW 54 : ... .. . ... ... ... : G-3 00 5 P80 ... ... : B-2 00 . ... : ... .. 2 ... : ... .. . ... ... : ... .. 4 ... ... : ... .. . ... ... : ... .. . ... ...
ROW 55 : ... .. . ... ... ... : ... .. 8 ... ... ... : ... .. . ... : ... .. 0 ... : ... .. . ... ... : ... .. . ... ... : ... .. . ... ... : ... .. . ... ...
ROW 56 : ... .. . ... ... ... : A-3 00 8 ... ... ... : ... .. . ... : B-# 00 F ... : ... .. . ... ... : E-5 01 5 ... ... : ... .. . ... ... : ... .. . ... ...
ROW 57 : ... .. . ... ... ... : ... .. B ... ... ... : ... .. . ... : ... .. C ... : ... .. . ... ... : ... .. 4 ... ... : ... .. 3 ... ... : ... .. . ... ...
ROW 58 : ... .. . ... ... ... : ... .. 8 ... ... ... : ... .. . ... : ... .. 6 ... : ... .. . ... ... : ... .. . ... ... : ... .. . ... ... : ... .. . ... ...
ROW 59 : ... .. 0 ... ... ... : ... .. 0 ... ... ... : ... .. . ... : ... .. 3 ... : ... .. . ... ... : D-5 01 5 ... ... : --- .. . ... ... : --- .. . ... ...
ROW 5A : ... .. . ... ... ... : A-3 00 5 P80 ... ... : ... .. . ... : ... .. 2 ... : ... .. . ... ... : ... .. 4 ... ... : ... .. . ... ... : ... .. . ... ...
ROW 5B : ... .. . ... ... ... : ... .. 8 ... ... ... : ... .. . ... : ... .. 0 ... : ... .. . ... ... : ... .. . ... ... : ... .. . ... ... : ... .. . ... ...
ROW 5C : G-3 00 D P80 ... ... : B-3 00 8 ... ... ... : A#2 00 . P7B : 7-# 00 F ... : ... .. . ... ... : C-5 01 5 ... ... : C-4 01 5 ... ... : F#4 01 8 ... ...
ROW 5D : ... .. A ... ... ... : ... .. B ... ... ... : A-2 00 . P77 : ... .. C ... : ... .. . ... ... : ... .. 4 ... ... : ... .. 3 ... ... : ... .. 5 ... ...
ROW 5E : ... .. 7 ... ... ... : ... .. 8 ... ... ... : G#2 00 . P76 : ... .. 6 ... : ... .. . ... ... : ... .. . ... ... : ... .. 2 ... ... : ... .. 2 ... ...
ROW 5F : ... .. 4 ... ... ... : ... .. 0 ... ... ... : G-2 00 . ... : ... .. 3 ... : ... .. . ... ... : B-4 01 5 ... ... : ... .. 1 ... ... : ... .. 1 ... ...
ROW 60 : ... .. D ... ... ... : B-3 00 5 P80 ... ... : F#2 00 . P78 : ... .. 2 ... : ... .. . ... ... : ... .. 4 ... ... : ... .. 5 ... ... : ... .. 8 ... ...
ROW 61 : ... .. A ... ... ... : ... .. 8 ... ... ... : F-2 00 . P7C : ... .. 0 ... : ... .. . ... ... : ... .. . ... ... : ... .. 3 ... ... : ... .. 5 ... ...
ROW 62 : ... .. 7 ... ... ... : C-4 00 8 ... ... ... : E-2 00 . P82 : 1-# 00 F ... : ... .. . ... ... : A-4 01 5 ... ... : ... .. 2 ... ... : ... .. 2 ... ...
ROW 63 : ... .. 4 ... ... ... : ... .. B ... ... ... : D#2 00 . P8A : ... .. C ... : ... .. . ... ... : ... .. 4 ... ... : ... .. 1 ... ... : ... .. 1 ... ...
ROW 64 : ... .. D ... ... ... : ... .. 8 ... ... ... : D-2 00 . P95 : ... .. 6 ... : ... .. . ... ... : ... .. . ... ... : ... .. 5 ... ... : ... .. 8 ... ...
ROW 65 : ... .. A ... ... ... : ... .. 0 ... ... ... : ... .. . P75 : ... .. 3 ... : ... .. . ... ... : G-4 01 5 ... ... : ... .. 3 ... ... : ... .. 5 ... ...
ROW 66 : ... .. 7 ... ... ... : C-4 00 5 P80 ... ... : C#2 00 . P82 : ... .. 2 ... : ... .. . ... ... : ... .. 4 ... ... : ... .. 2 ... ... : ... .. 2 ... ...
ROW 67 : ... .. 4 ... ... ... : ... .. 8 ... ... ... : C-2 00 . P92 : ... .. 0 ... : ... .. . ... ... : ... .. . ... ... : ... .. 1 ... ... : ... .. 1 ... ...
ROW 68 : ... .. F ... ... ... : D-4 00 8 ... ... ... : A#3 00 . P80 : 9-# 00 F ... : ... .. . ... ... : F#4 01 5 ... ... : ... .. 6 ... ... : ... .. A ... ...
ROW 69 : ... .. E ... ... ... : ... .. B ... ... ... : C-3 00 . ... : ... .. C ... : ... .. . ... ... : ... .. 4 ... ... : ... .. . ... ... : ... .. 8 ... ...
ROW 6A : ... .. D ... ... ... : ... .. 8 ... ... ... : F-2 00 . ... : ... .. 6 ... : ... .. . ... ... : ... .. . ... ... : ... .. 5 ... ... : ... .. 5 ... ...
ROW 6B : ... .. A ... ... ... : ... .. 0 ... ... ... : E-2 00 . ... : ... .. 3 ... : ... .. . ... ... : E-4 01 5 ... ... : ... .. 4 ... ... : ... .. . ... ...
ROW 6C : ... .. . ... ... ... : D-4 00 5 P80 ... ... : B-1 00 . ... : ... .. 2 ... : ... .. . ... ... : ... .. 4 ... ... : ... .. . ... ... : ... .. . ... ...
ROW 6D : ... .. 0 ... ... ... : ... .. 8 ... ... ... : ... .. . ... : ... .. 0 ... : ... .. . ... ... : ... .. . ... ... : --- .. . ... ... : --- .. . ... ...
ROW 6E : ... .. . ... ... ... : E-4 00 8 ... ... ... : ... .. . ... : ... .. F ... : ... .. . ... ... : D-4 01 5 ... ... : ... .. . ... ... : ... .. . ... ...
ROW 6F : ... .. . ... ... ... : ... .. B ... ... ... : ... .. . ... : ... .. C ... : ... .. . ... ... : ... .. 4 ... ... : ... .. . ... ... : ... .. . ... ...
ROW 70 : G-3 00 F P80 ... ... : ... .. 8 ... ... ... : ... .. . ... : ... .. 6 ... : ... .. . ... ... : ... .. . ... ... : C-4 01 6 ... ... : F#4 01 A ... ...
ROW 71 : ... .. E ... ... ... : ... .. 0 ... ... ... : ... .. . ... : ... .. 3 ... : ... .. . ... ... : C-4 01 5 ... ... : ... .. . ... ... : ... .. 8 ... ...
ROW 72 : ... .. D ... ... ... : E-4 00 5 P80 ... ... : ... .. . ... : ... .. 2 ... : ... .. . ... ... : ... .. 4 ... ... : ... .. 5 ... ... : ... .. 5 ... ...
ROW 73 : ... .. A ... ... ... : ... .. 8 ... ... ... : ... .. . ... : ... .. 0 ... : ... .. . ... ... : ... .. . ... ... : ... .. 4 ... ... : ... .. . ... ...
ROW 74 : ... .. 0 ... ... ... : F#4 00 8 ... ... ... : ... .. . ... : 7-# 00 F ... : ... .. . ... ... : B-3 01 5 ... ... : --- .. . ... ... : --- .. . ... ...
ROW 75 : ... .. . ... ... ... : ... .. B ... ... ... : ... .. . ... : ... .. C ... : ... .. . ... ... : ... .. 4 ... ... : ... .. . ... ... : ... .. . ... ...
ROW 76 : ... .. . ... ... ... : ... .. 8 ... ... ... : ... .. . ... : ... .. 6 ... : ... .. . ... ... : ... .. . ... ... : ... .. . ... ... : ... .. . ... ...
ROW 77 : ... .. . ... ... ... : ... .. 0 ... ... ... : ... .. . ... : ... .. 3 ... : ... .. . ... ... : A-3 01 5 ... ... : ... .. . ... ... : ... .. . ... ...
ROW 78 : G-3 00 F P80 ... ... : F#4 00 5 P80 ... ... : ... .. . ... : ... .. 2 ... : ... .. . ... ... : ... .. 4 ... ... : C-4 01 6 ... ... : F#4 01 A ... ...
ROW 79 : ... .. E ... ... ... : ... .. 8 ... ... ... : ... .. . ... : ... .. 0 ... : ... .. . ... ... : ... .. . ... ... : ... .. . ... ... : ... .. 8 ... ...
ROW 7A : ... .. D ... ... ... : G-4 00 8 ... ... ... : ... .. . ... : ... .. F ... : ... .. . ... ... : G-3 01 5 ... ... : ... .. 5 ... ... : ... .. 5 ... ...
ROW 7B : ... .. A ... ... ... : ... .. B ... ... ... : ... .. . ... : ... .. C ... : ... .. . ... ... : ... .. 4 ... ... : ... .. 4 ... ... : ... .. . ... ...
ROW 7C : ... .. . ... ... ... : ... .. 8 ... ... ... : ... .. . ... : ... .. 6 ... : ... .. . ... ... : ... .. . ... ... : ... .. . ... ... : ... .. . ... ...
ROW 7D : ... .. 0 ... ... ... : ... .. 0 ... ... ... : ... .. . ... : ... .. 3 ... : ... .. . ... ... : F#3 01 5 ... ... : --- .. . ... ... : --- .. . ... ...
ROW 7E : ... .. . ... ... ... : G-4 00 5 P80 ... ... : ... .. . ... : ... .. 2 ... : ... .. . ... ... : ... .. 4 ... ... : ... .. . ... ... : ... .. . ... ...
ROW 7F : ... .. . ... ... ... : ... .. 8 ... ... ... : ... .. . ... : ... .. 0 ... : ... .. . ... ... : ... .. . ... ... : ... .. . ... ... : ... .. . ... ...
ROW 80 : ... .. . ... ... ... : F#2 00 8 ... ... ... : F-5 00 . ... : 9-# 00 F ... : ... .. . ... ... : D-3 01 5 ... ... : C#4 01 6 ... ... : F#4 01 A ... ...
ROW 81 : ... .. . ... ... ... : ... .. B ... ... ... : G-4 00 . ... : ... .. C ... : ... .. . ... ... : ... .. 4 ... ... : ... .. . ... ... : ... .. 8 ... ...
ROW 82 : ... .. . ... ... ... : ... .. 8 ... ... ... : C-4 00 . ... : ... .. 6 ... : ... .. . ... ... : ... .. . ... ... : ... .. 5 ... ... : ... .. 5 ... ...
ROW 83 : ... .. . ... ... ... : ... .. 0 ... ... ... : B-3 00 . ... : ... .. 3 ... : ... .. . ... ... : E-3 01 5 ... ... : ... .. 4 ... ... : ... .. . ... ...
ROW 84 : ... .. . ... ... ... : F#2 00 5 P80 ... ... : F#3 00 . ... : ... .. 2 ... : ... .. . ... ... : ... .. 4 ... ... : ... .. . ... ... : ... .. . ... ...
ROW 85 : ... .. . ... ... ... : ... .. 8 ... ... ... : ... .. . ... : ... .. 0 ... : ... .. . ... ... : ... .. . ... ... : ... .. . ... ... : ... .. . ... ...
ROW 86 : ... .. . ... ... ... : G-2 00 8 ... ... ... : ... .. . ... : 2-# 00 F ... : ... .. . ... ... : F#3 01 5 ... ... : ... .. . ... ... : ... .. . ... ...
ROW 87 : ... .. . ... ... ... : ... .. B ... ... ... : ... .. . ... : ... .. C ... : ... .. . ... ... : ... .. 4 ... ... : ... .. 3 ... ... : ... .. . ... ...
ROW 88 : ... .. . ... ... ... : ... .. 8 ... ... ... : ... .. . ... : ... .. 6 ... : ... .. . ... ... : ... .. . ... ... : ... .. . ... ... : ... .. . ... ...
ROW 89 : ... .. . ... ... ... : ... .. 0 ... ... ... : ... .. . ... : ... .. 3 ... : ... .. . ... ... : G-3 01 5 ... ... : ... .. . ... ... : ... .. . ... ...
ROW 8A : ... .. . ... ... ... : G-2 00 5 P80 ... ... : ... .. . ... : ... .. 2 ... : ... .. . ... ... : ... .. 4 ... ... : ... .. . ... ... : ... .. . ... ...
ROW 8B : ... .. . ... ... ... : ... .. 8 ... ... ... : ... .. . ... : ... .. 0 ... : ... .. . ... ... : ... .. . ... ... : ... .. . ... ... : ... .. . ... ...
ROW 8C : F#3 00 F P80 ... ... : A-2 00 8 ... ... ... : E-3 00 . P85 : 1-# 00 F ... : ... .. . ... ... : A-3 01 5 ... ... : ... .. . ... ... : ... .. . ... ...
ROW 8D : ... .. E ... ... ... : ... .. B ... ... ... : D#3 00 . P7A : ... .. C ... : ... .. . ... ... : ... .. 4 ... ... : ... .. . ... ... : ... .. . ... ...
ROW 8E : ... .. D ... ... ... : ... .. 8 ... ... ... : C#3 00 . P86 : ... .. 6 ... : ... .. . ... ... : ... .. . ... ... : ... .. . ... ... : ... .. . ... ...
ROW 8F : ... .. A ... ... ... : ... .. 0 ... ... ... : C-3 00 . P7E : ... .. 3 ... : ... .. . ... ... : B-3 01 5 ... ... : ... .. . ... ... : ... .. . ... ...
ROW 90 : ... .. . ... ... ... : A-2 00 5 P80 ... ... : B-2 00 . P77 : ... .. 2 ... : ... .. . ... ... : ... .. 4 ... ... : ... .. . ... ... : ... .. . ... ...
ROW 91 : ... .. . ... ... ... : ... .. 8 ... ... ... : A-2 00 . P8E : ... .. 0 ... : ... .. . ... ... : ... .. . ... ... : ... .. . ... ... : ... .. . ... ...
ROW 92 : ... .. . ... ... ... : B-2 00 8 ... ... ... : G#2 00 . P8D : C-# 00 F ... : ... .. . ... ... : C#4 01 5 ... ... : ... .. . ... ... : ... .. . ... ...
ROW 93 : ... .. 2 ... ... ... : ... .. B ... ... ... : G-2 00 . ... : ... .. C ... : ... .. . ... ... : ... .. 4 ... ... : ... .. . ... ... : ... .. . ... ...
ROW 94 : ... .. . ... ... ... : ... .. 8 ... ... ... : F#2 00 . P8F : ... .. 6 ... : ... .. . ... ... : ... .. . ... ... : ... .. . ... ... : ... .. . ... ...
ROW 95 : ... .. . ... ... ... : ... .. 0 ... ... ... : ... .. . P6F : ... .. 3 ... : ... .. . ... ... : D-4 01 5 ... ... : ... .. . ... ... : ... .. . ... ...
ROW 96 : ... .. 1 ... ... ... : B-2 00 5 P80 ... ... : F-2 00 . P73 : ... .. 2 ... : ... .. . ... ... : ... .. 4 ... ... : ... .. . ... ... : ... .. . ... ...
ROW 97 : ... .. . ... ... ... : ... .. 8 ... ... ... : E-2 00 . P79 : ... .. 0 ... : ... .. . ... ... : ... .. . ... ... : ... .. . ... ... : ... .. . ... ...
ROW 98 : C#4 00 F ... ... ... : F#2 00 8 ... ... ... : F-4 00 . P80 : 7-# 00 F ... : ... .. . ... ... : E-4 01 5 ... ... : ... .. . ... ... : ... .. . ... ...
ROW 99 : ... .. E ... ... ... : ... .. B ... ... ... : G-3 00 . ... : ... .. C ... : ... .. . ... ... : ... .. 4 ... ... : ... .. . ... ... : ... .. . ... ...
ROW 9A : ... .. D ... ... ... : ... .. 8 ... ... ... : C-3 00 . ... : ... .. 6 ... : ... .. . ... ... : ... .. . ... ... : ... .. . ... ... : ... .. . ... ...
ROW 9B : ... .. A ... ... ... : ... .. 0 ... ... ... : B-2 00 . ... : ... .. 3 ... : ... .. . ... ... : F#4 01 5 ... ... : ... .. . ... ... : ... .. . ... ...
ROW 9C : ... .. . ... ... ... : F#2 00 5 P80 ... ... : F#2 00 . ... : ... .. 2 ... : ... .. . ... ... : ... .. 4 ... ... : ... .. . ... ... : ... .. . ... ...
ROW 9D : ... .. . ... ... ... : ... .. 8 ... ... ... : ... .. . ... : ... .. 0 ... : ... .. . ... ... : ... .. . ... ... : ... .. . ... ... : ... .. . ... ...
ROW 9E : ... .. . ... ... ... : G-2 00 8 ... ... ... : ... .. . ... : 1-# 00 F ... : ... .. . ... ... : G-4 01 5 ... ... : ... .. . ... ... : ... .. . ... ...
ROW 9F : ... .. . ... ... ... : ... .. B ... ... ... : ... .. . ... : ... .. C ... : ... .. . ... ... : ... .. 4 ... ... : ... .. . ... ... : ... .. . ... ...
ROW A0 : ... .. . ... ... ... : ... .. 8 ... ... ... : ... .. . ... : ... .. 6 ... : ... .. . ... ... : ... .. . ... ... : ... .. . ... ... : ... .. . ... ...
ROW A1 : ... .. . ... ... ... : ... .. 0 ... ... ... : ... .. . ... : ... .. 3 ... : ... .. . ... ... : A-4 01 5 ... ... : ... .. . ... ... : ... .. . ... ...
ROW A2 : ... .. 2 ... ... ... : G-2 00 5 P80 ... ... : ... .. . ... : ... .. 2 ... : ... .. . ... ... : ... .. 4 ... ... : ... .. . ... ... : ... .. . ... ...
ROW A3 : ... .. . ... ... ... : ... .. 8 ... ... ... : ... .. . ... : ... .. 0 ... : ... .. . ... ... : ... .. . ... ... : ... .. . ... ... : ... .. . ... ...
ROW A4 : F#3 00 F ... ... ... : A-2 00 8 ... ... ... : ... .. . ... : C-# 00 F ... : ... .. . ... ... : B-4 01 5 ... ... : A-2 01 A ... ... : F#3 01 A ... ...
ROW A5 : ... .. E ... ... ... : ... .. B ... ... ... : ... .. . ... : ... .. C ... : ... .. . ... ... : ... .. 4 ... ... : ... .. 9 ... ... : ... .. 8 ... ...
ROW A6 : ... .. D ... ... ... : ... .. 8 ... ... ... : ... .. . ... : ... .. 6 ... : ... .. . ... ... : ... .. . ... ... : ... .. 8 ... ... : ... .. 5 ... ...
ROW A7 : ... .. A ... ... ... : ... .. 0 ... ... ... : ... .. . ... : ... .. 3 ... : ... .. . ... ... : C#5 01 5 ... ... : ... .. 7 ... ... : ... .. . ... ...
ROW A8 : ... .. . ... ... ... : A-2 00 5 P80 ... ... : ... .. . ... : ... .. 2 ... : ... .. . ... ... : ... .. 4 ... ... : ... .. . ... ... : ... .. . ... ...
ROW A9 : ... .. . ... ... ... : ... .. 8 ... ... ... : ... .. . ... : ... .. 0 ... : ... .. . ... ... : ... .. . ... ... : ... .. 6 ... ... : ... .. . ... ...
ROW AA : ... .. . ... ... ... : B-2 00 8 ... ... ... : ... .. . ... : 7-# 00 F ... : ... .. . ... ... : D-5 01 5 ... ... : --- .. . P82 ... : --- .. . P82 ...
ROW AB : ... .. . ... ... ... : ... .. B ... ... ... : ... .. . ... : ... .. C ... : ... .. . ... ... : ... .. 4 ... ... : ... .. . ... ... : ... .. . ... ...
ROW AC : ... .. . ... ... ... : ... .. 8 ... ... ... : ... .. . ... : ... .. 6 ... : ... .. . ... ... : ... .. . ... ... : ... .. . ... ... : ... .. . ... ...
ROW AD : ... .. . ... ... ... : ... .. 0 ... ... ... : ... .. . ... : ... .. 3 ... : ... .. . ... ... : E-5 01 5 ... ... : ... .. . ... ... : ... .. . ... ...
ROW AE : ... .. 2 ... ... ... : B-2 00 5 P80 ... ... : ... .. . ... : ... .. 2 ... : ... .. . ... ... : ... .. 4 ... ... : ... .. . ... ... : ... .. . ... ...
ROW AF : ... .. . ... ... ... : ... .. 8 ... ... ... : ... .. . ... : ... .. 0 ... : ... .. . ... ... : ... .. . ... ... : ... .. . ... ... : ... .. . ... ...
ROW B0 : C#4 00 F ... ... ... : F#2 00 8 ... ... ... : F-5 00 . ... : 1-# 00 F ... : ... .. . ... ... : F#5 01 5 ... ... : F#3 01 A P80 ... : C#4 01 A P80 ...
ROW B1 : ... .. E ... ... ... : ... .. B ... ... ... : G-4 00 . ... : ... .. C ... : ... .. . ... ... : ... .. 4 ... ... : ... .. 9 ... ... : ... .. 8 ... ...
ROW B2 : ... .. D ... ... ... : ... .. 8 ... ... ... : C-4 00 . ... : ... .. 6 ... : ... .. . ... ... : ... .. . ... ... : ... .. 8 ... ... : ... .. 5 ... ...
ROW B3 : ... .. A ... ... ... : ... .. 0 ... ... ... : B-3 00 . ... : ... .. 3 ... : ... .. . ... ... : E-5 01 5 ... ... : ... .. 7 ... ... : ... .. . ... ...
ROW B4 : ... .. . ... ... ... : F#2 00 5 P80 ... ... : F#3 00 . ... : ... .. 2 ... : ... .. . ... ... : ... .. 4 ... ... : ... .. . ... ... : ... .. . ... ...
ROW B5 : ... .. . ... ... ... : ... .. 8 ... ... ... : ... .. . ... : ... .. 0 ... : ... .. . ... ... : ... .. . ... ... : ... .. 6 ... ... : ... .. . ... ...
ROW B6 : ... .. . ... ... ... : G-2 00 8 ... ... ... : ... .. . ... : B-# 00 F ... : ... .. . ... ... : D-5 01 5 ... ... : ... .. . ... ... : ... .. . ... ...
ROW B7 : ... .. . ... ... ... : ... .. B ... ... ... : ... .. . ... : ... .. C ... : ... .. . ... ... : ... .. 4 ... ... : ... .. 5 ... ... : ... .. . ... ...
ROW B8 : ... .. . ... ... ... : ... .. 8 ... ... ... : ... .. . ... : ... .. 6 ... : ... .. . ... ... : ... .. . ... ... : ... .. . ... ... : ... .. . ... ...
ROW B9 : ... .. . ... ... ... : ... .. 0 ... ... ... : ... .. . ... : ... .. 3 ... : ... .. . ... ... : C#5 01 5 ... ... : ... .. . ... ... : ... .. . ... ...
ROW BA : ... .. . ... ... ... : G-2 00 5 P80 ... ... : ... .. . ... : ... .. 2 ... : ... .. . ... ... : ... .. 4 ... ... : ... .. . ... ... : ... .. . ... ...
ROW BB : ... .. . ... ... ... : ... .. 8 ... ... ... : ... .. . ... : ... .. 0 ... : ... .. . ... ... : ... .. . ... ... : ... .. . ... ... : ... .. . ... ...
ROW BC : ... .. . ... ... ... : A-2 00 8 ... ... ... : E-3 00 . P85 : 7-# 00 F ... : ... .. . ... ... : B-4 01 5 ... ... : ... .. . ... ... : ... .. . ... ...
ROW BD : ... .. . ... ... ... : ... .. B ... ... ... : D#3 00 . P7A : ... .. C ... : ... .. . ... ... : ... .. 4 ... ... : ... .. . ... ... : ... .. . ... ...
ROW BE : ... .. . ... ... ... : ... .. 8 ... ... ... : C#3 00 . P86 : ... .. 6 ... : ... .. . ... ... : ... .. . ... ... : ... .. . ... ... : ... .. . ... ...
ROW BF : ... .. . ... ... ... : ... .. 0 ... ... ... : C-3 00 . P7E : ... .. 3 ... : ... .. . ... ... : A-4 01 5 ... ... : ... .. . ... ... : ... .. . ... ...
ROW C0 : ... .. . ... ... ... : A-2 00 5 P80 ... ... : B-2 00 . P77 : ... .. 2 ... : ... .. . ... ... : ... .. 4 ... ... : ... .. . ... ... : ... .. . ... ...
ROW C1 : ... .. . ... ... ... : ... .. 8 ... ... ... : A-2 00 . P8E : ... .. 0 ... : ... .. . ... ... : ... .. . ... ... : ... .. . ... ... : ... .. . ... ...
ROW C2 : ... .. . ... ... ... : B-2 00 8 ... ... ... : G#2 00 . P8D : 1-# 00 F ... : ... .. . ... ... : G-4 01 5 ... ... : ... .. . ... ... : ... .. . ... ...
ROW C3 : ... .. 2 ... ... ... : ... .. B ... ... ... : G-2 00 . ... : ... .. C ... : ... .. . ... ... : ... .. 4 ... ... : ... .. . ... ... : ... .. . ... ...
ROW C4 : ... .. . ... ... ... : ... .. 8 ... ... ... : F#2 00 . P8F : ... .. 6 ... : ... .. . ... ... : ... .. . ... ... : ... .. . ... ... : ... .. . ... ...
ROW C5 : ... .. . ... ... ... : ... .. 0 ... ... ... : ... .. . P6F : ... .. 3 ... : ... .. . ... ... : F#4 01 5 ... ... : --- .. . P7F ... : --- .. . ... ...
ROW C6 : ... .. 1 ... ... ... : B-2 00 5 P80 ... ... : F-2 00 . P73 : ... .. 2 ... : ... .. . ... ... : ... .. 4 ... ... : ... .. . ... ... : ... .. . ... ...
ROW C7 : ... .. . ... ... ... : ... .. 8 ... ... ... : E-2 00 . P79 : ... .. 0 ... : ... .. . ... ... : ... .. . ... ... : ... .. . ... ... : ... .. . ... ...
ROW C8 : F#3 00 F ... ... ... : F#2 00 8 ... ... ... : F-4 00 . P80 : 9-# 00 F ... : ... .. . ... ... : E-4 01 5 ... ... : A-3 01 6 P80 ... : A-3 01 A ... ...
ROW C9 : ... .. E ... ... ... : ... .. B ... ... ... : G-3 00 . ... : ... .. C ... : ... .. . ... ... : ... .. 4 ... ... : ... .. . ... ... : ... .. 8 ... ...
ROW CA : ... .. D ... ... ... : ... .. 8 ... ... ... : C-3 00 . ... : ... .. 6 ... : ... .. . ... ... : ... .. . ... ... : ... .. 5 ... ... : ... .. 5 ... ...
ROW CB : ... .. A ... ... ... : ... .. 0 ... ... ... : B-2 00 . ... : ... .. 3 ... : ... .. . ... ... : D-4 01 5 ... ... : ... .. 4 ... ... : ... .. . ... ...
ROW CC : ... .. . ... ... ... : F#2 00 5 P80 ... ... : F#2 00 . ... : ... .. 2 ... : ... .. . ... ... : ... .. 4 ... ... : ... .. . ... ... : ... .. . ... ...
ROW CD : ... .. . ... ... ... : ... .. 8 ... ... ... : ... .. . ... : ... .. 0 ... : ... .. . ... ... : ... .. . ... ... : --- .. . ... ... : --- .. . P81 ...
ROW CE : ... .. . ... ... ... : G-2 00 8 ... ... ... : ... .. . ... : ... .. F ... : ... .. . ... ... : C-4 01 5 ... ... : ... .. . ... ... : ... .. . ... ...
ROW CF : ... .. . ... ... ... : ... .. B ... ... ... : ... .. . ... : ... .. C ... : ... .. . ... ... : ... .. 4 ... ... : ... .. . ... ... : ... .. . ... ...
ROW D0 : ... .. . ... ... ... : ... .. 8 ... ... ... : ... .. . ... : ... .. 6 ... : ... .. . ... ... : ... .. . ... ... : A-3 01 6 ... ... : A-3 01 A P80 ...
ROW D1 : ... .. . ... ... ... : ... .. 0 ... ... ... : ... .. . ... : ... .. 3 ... : ... .. . ... ... : C#4 01 5 ... ... : ... .. . ... ... : ... .. 8 ... ...
ROW D2 : ... .. . ... ... ... : G-2 00 5 P80 ... ... : ... .. . ... : ... .. 2 ... : ... .. . ... ... : ... .. 4 ... ... : ... .. 5 ... ... : ... .. 5 ... ...
ROW D3 : ... .. . ... ... ... : ... .. 8 ... ... ... : ... .. . ... : ... .. 0 ... : ... .. . ... ... : ... .. . ... ... : ... .. 4 ... ... : ... .. . ... ...
ROW D4 : E-4 00 F ... ... ... : A-2 00 8 ... ... ... : ... .. . ... : 7-# 00 F ... : ... .. . ... ... : B-3 01 5 ... ... : --- .. . ... ... : --- .. . P81 ...
ROW D5 : ... .. E ... ... ... : ... .. B ... ... ... : ... .. . ... : ... .. C ... : ... .. . ... ... : ... .. 4 ... ... : ... .. . ... ... : ... .. . ... ...
ROW D6 : ... .. D ... ... ... : ... .. 8 ... ... ... : ... .. . ... : ... .. 6 ... : ... .. . ... ... : ... .. . ... ... : ... .. . ... ... : ... .. . ... ...
ROW D7 : ... .. A ... ... ... : ... .. 0 ... ... ... : ... .. . ... : ... .. 3 ... : ... .. . ... ... : A-3 01 5 ... ... : ... .. . ... ... : ... .. . ... ...
ROW D8 : ... .. . ... ... ... : A-2 00 5 P80 ... ... : ... .. . ... : ... .. 2 ... : ... .. . ... ... : ... .. 4 ... ... : A-3 01 6 ... ... : A-3 01 A P80 ...
ROW D9 : ... .. . ... ... ... : ... .. 8 ... ... ... : ... .. . ... : ... .. 0 ... : ... .. . ... ... : ... .. . ... ... : ... .. . ... ... : ... .. 8 ... ...
ROW DA : ... .. . ... ... ... : B-2 00 8 ... ... ... : ... .. . ... : ... .. F ... : ... .. . ... ... : G-3 01 5 ... ... : ... .. 5 ... ... : ... .. 5 ... ...
ROW DB : ... .. . ... ... ... : ... .. B ... ... ... : ... .. . ... : ... .. C ... : ... .. . ... ... : ... .. 4 ... ... : ... .. 4 ... ... : ... .. . ... ...
ROW DC : ... .. . ... ... ... : ... .. 8 ... ... ... : ... .. . ... : ... .. 6 ... : ... .. . ... ... : ... .. . ... ... : ... .. . ... ... : ... .. . ... ...
ROW DD : ... .. . ... ... ... : ... .. 0 ... ... ... : ... .. . ... : ... .. 3 ... : ... .. . ... ... : F#3 01 5 ... ... : --- .. . ... ... : --- .. . P81 ...
ROW DE : ... .. 2 ... ... ... : B-2 00 5 P80 ... ... : ... .. . ... : ... .. 2 ... : ... .. . ... ... : ... .. 4 ... ... : ... .. . ... ... : ... .. . ... ...
ROW DF : ... .. . ... ... ... : ... .. 8 ... ... ... : ... .. . ... : ... .. 0 ... : ... .. . ... ... : ... .. . ... ... : ... .. . ... ... : ... .. . ... ...
ROW E0 : D-4 00 F ... ... ... : F#2 00 8 ... ... ... : F-5 00 . ... : 9-# 00 F ... : ... .. . ... ... : D-3 01 5 ... ... : B-2 01 6 ... ... : B-3 01 A P80 ...
ROW E1 : ... .. E ... ... ... : ... .. B ... ... ... : G-4 00 . ... : ... .. C ... : ... .. . ... ... : ... .. 4 ... ... : ... .. . ... ... : ... .. 8 ... ...
ROW E2 : ... .. D ... ... ... : ... .. 8 ... ... ... : C-4 00 . ... : ... .. 6 ... : ... .. . ... ... : ... .. . ... ... : ... .. 5 ... ... : ... .. 5 ... ...
ROW E3 : ... .. A ... ... ... : ... .. 0 ... ... ... : B-3 00 . ... : ... .. 3 ... : ... .. . ... ... : E-3 01 5 ... ... : --- .. . P85 ... : --- .. . P8E ...
ROW E4 : ... .. . ... ... ... : F#2 00 5 P80 ... ... : F#3 00 . ... : ... .. 2 ... : ... .. . ... ... : ... .. 4 ... ... : ... .. . ... ... : ... .. . ... ...
ROW E5 : ... .. . ... ... ... : ... .. 8 ... ... ... : ... .. . ... : ... .. 0 ... : ... .. . ... ... : ... .. . ... ... : ... .. . ... ... : ... .. . ... ...
ROW E6 : ... .. . ... ... ... : G-2 00 8 ... ... ... : ... .. . ... : 2-# 00 F ... : ... .. . ... ... : F#3 01 5 ... ... : D-3 01 6 P80 ... : C#4 01 A P80 ...
ROW E7 : ... .. . ... ... ... : ... .. B ... ... ... : ... .. . ... : ... .. C ... : ... .. . ... ... : ... .. 4 ... ... : ... .. . ... ... : ... .. 8 ... ...
ROW E8 : ... .. . ... ... ... : ... .. 8 ... ... ... : ... .. . ... : ... .. 6 ... : ... .. . ... ... : ... .. . ... ... : ... .. 5 ... ... : ... .. 5 ... ...
ROW E9 : ... .. . ... ... ... : ... .. 0 ... ... ... : ... .. . ... : ... .. 3 ... : ... .. . ... ... : G-3 01 5 ... ... : --- .. . P82 ... : --- .. . ... ...
ROW EA : ... .. . ... ... ... : G-2 00 5 P80 ... ... : ... .. . ... : ... .. 2 ... : ... .. . ... ... : ... .. 4 ... ... : ... .. . ... ... : ... .. . ... ...
ROW EB : ... .. . ... ... ... : ... .. 8 ... ... ... : ... .. . ... : ... .. 0 ... : ... .. . ... ... : ... .. . ... ... : ... .. . ... ... : ... .. . ... ...
ROW EC : ... .. . ... ... ... : A-2 00 8 ... ... ... : E-3 00 . P85 : 1-# 00 F ... : ... .. . ... ... : A-3 01 5 ... ... : G-3 01 6 P80 ... : D-4 01 A ... ...
ROW ED : ... .. 2 ... ... ... : ... .. B ... ... ... : D#3 00 . P7A : ... .. C ... : ... .. . ... ... : ... .. 4 ... ... : ... .. . ... ... : ... .. 8 ... ...
ROW EE : ... .. . ... ... ... : ... .. 8 ... ... ... : C#3 00 . P86 : ... .. 6 ... : ... .. . ... ... : ... .. . ... ... : ... .. 5 ... ... : ... .. 5 ... ...
ROW EF : ... .. . ... ... ... : ... .. 0 ... ... ... : C-3 00 . P7E : ... .. 3 ... : ... .. . ... ... : B-3 01 5 ... ... : ... .. 4 ... ... : ... .. . ... ...
ROW F0 : ... .. 1 ... ... ... : A-2 00 5 P80 ... ... : B-2 00 . P77 : ... .. 2 ... : ... .. . ... ... : ... .. 4 ... ... : ... .. . ... ... : ... .. . ... ...
ROW F1 : ... .. . ... ... ... : ... .. 8 ... ... ... : A-2 00 . P8E : ... .. 0 ... : ... .. . ... ... : ... .. . ... ... : ... .. . ... ... : ... .. . ... ...
ROW F2 : C#4 00 F ... ... ... : B-2 00 8 ... ... ... : G#2 00 . P8D : C-# 00 F ... : ... .. . ... ... : C#4 01 5 ... ... : ... .. . ... ... : ... .. . ... ...
ROW F3 : ... .. E ... ... ... : ... .. B ... ... ... : G-2 00 . ... : ... .. C ... : ... .. . ... ... : ... .. 4 ... ... : ... .. 3 ... ... : ... .. . ... ...
ROW F4 : ... .. D ... ... ... : ... .. 8 ... ... ... : F#2 00 . P8F : ... .. 6 ... : ... .. . ... ... : ... .. . ... ... : ... .. . ... ... : ... .. . ... ...
ROW F5 : ... .. A ... ... ... : ... .. 0 ... ... ... : ... .. . P6F : ... .. 3 ... : ... .. . ... ... : D-4 01 5 ... ... : ... .. . ... ... : ... .. . ... ...
ROW F6 : ... .. . ... ... ... : B-2 00 5 P80 ... ... : F-2 00 . P73 : ... .. 2 ... : ... .. . ... ... : ... .. 4 ... ... : ... .. . ... ... : ... .. . ... ...
ROW F7 : ... .. . ... ... ... : ... .. 8 ... ... ... : E-2 00 . P79 : ... .. 0 ... : ... .. . ... ... : ... .. . ... ... : ... .. . ... ... : ... .. . ... ...
ROW F8 : ... .. . ... ... ... : F#2 00 8 ... ... ... : F-4 00 . P80 : 7-# 00 F ... : ... .. . ... ... : E-4 01 5 ... ... : ... .. . ... ... : ... .. . ... ...
ROW F9 : ... .. . ... ... ... : ... .. B ... ... ... : G-3 00 . ... : ... .. C ... : ... .. . ... ... : ... .. 4 ... ... : ... .. . ... ... : ... .. . ... ...
ROW FA : ... .. . ... ... ... : ... .. 8 ... ... ... : C-3 00 . ... : ... .. 6 ... : ... .. . ... ... : ... .. . ... ... : ... .. . ... ... : ... .. . ... ...
ROW FB : ... .. . ... ... ... : ... .. 0 ... ... ... : B-2 00 . ... : ... .. 3 ... : ... .. . ... ... : F#4 01 5 ... ... : ... .. . ... ... : ... .. . ... ...
ROW FC : ... .. . ... ... ... : F#2 00 5 P80 ... ... : F#2 00 . ... : ... .. 2 ... : ... .. . ... ... : ... .. 4 ... ... : ... .. . ... ... : ... .. . ... ...
ROW FD : ... .. . ... ... ... : ... .. 8 ... ... ... : ... .. . ... : ... .. 0 ... : ... .. . ... ... : ... .. . ... ... : ... .. . ... ... : ... .. . ... ...
ROW FE : ... .. . ... ... ... : G-2 00 8 ... ... ... : ... .. . ... : 1-# 00 F ... : ... .. . ... ... : G-4 01 5 ... ... : ... .. . ... ... : ... .. . ... ...
ROW FF : ... .. 2 ... ... ... : ... .. B ... ... ... : ... .. . ... : ... .. C ... : ... .. . ... ... : ... .. 4 ... ... : ... .. . ... ... : ... .. . ... ...

PATTERN 02
ROW 00 : ... .. . ... ... ... : ... .. 8 ... ... ... : ... .. . ... : ... .. 6 ... : ... .. . ... ... : ... .. . ... ... : ... .. . ... ... : ... .. . ... ...
ROW 01 : ... .. . ... ... ... : ... .. 0 ... ... ... : ... .. . ... : ... .. 3 ... : ... .. . ... ... : A-4 01 5 ... ... : ... .. . ... ... : ... .. . ... ...
ROW 02 : ... .. 1 ... ... ... : G-2 00 5 P80 ... ... : ... .. . ... : ... .. 2 ... : ... .. . ... ... : ... .. 4 ... ... : ... .. . ... ... : ... .. . ... ...
ROW 03 : ... .. . ... ... ... : ... .. 8 ... ... ... : ... .. . ... : ... .. 0 ... : ... .. . ... ... : ... .. . ... ... : ... .. . ... ... : ... .. . ... ...
ROW 04 : B-3 00 F ... ... ... : A-2 00 8 ... ... ... : ... .. . ... : C-# 00 F ... : ... .. . ... ... : B-4 01 5 ... ... : ... .. . ... ... : ... .. . ... ...
ROW 05 : ... .. E ... ... ... : ... .. B ... ... ... : ... .. . ... : ... .. C ... : ... .. . ... ... : ... .. 4 ... ... : ... .. . ... ... : ... .. . ... ...
ROW 06 : ... .. D ... ... ... : ... .. 8 ... ... ... : ... .. . ... : ... .. 6 ... : ... .. . ... ... : ... .. . ... ... : ... .. . ... ... : ... .. . ... ...
ROW 07 : ... .. A ... ... ... : ... .. 0 ... ... ... : ... .. . ... : ... .. 3 ... : ... .. . ... ... : C#5 01 5 ... ... : ... .. . ... ... : ... .. . ... ...
ROW 08 : ... .. . ... ... ... : A-2 00 5 P80 ... ... : ... .. . ... : ... .. 2 ... : ... .. . ... ... : ... .. 4 ... ... : ... .. . ... ... : ... .. . ... ...
ROW 09 : ... .. . ... ... ... : ... .. 8 ... ... ... : ... .. . ... : ... .. 0 ... : ... .. . ... ... : ... .. . ... ... : ... .. . ... ... : ... .. . ... ...
ROW 0A : ... .. . ... ... ... : B-2 00 8 ... ... ... : ... .. . ... : 7-# 00 F ... : ... .. . ... ... : D-5 01 5 ... ... : --- .. . P81 ... : --- .. . ... ...
ROW 0B : ... .. . ... ... ... : ... .. B ... ... ... : ... .. . ... : ... .. C ... : ... .. . ... ... : ... .. 4 ... ... : ... .. . ... ... : ... .. . ... ...
ROW 0C : ... .. . ... ... ... : ... .. 8 ... ... ... : ... .. . ... : ... .. 6 ... : ... .. . ... ... : ... .. . ... ... : ... .. . ... ... : ... .. . ... ...
ROW 0D : ... .. . ... ... ... : ... .. 0 ... ... ... : ... .. . ... : ... .. 3 ... : ... .. . ... ... : E-5 01 5 ... ... : ... .. . ... ... : ... .. . ... ...
ROW 0E : ... .. . ... ... ... : B-2 00 5 P80 ... ... : ... .. . ... : ... .. 2 ... : ... .. . ... ... : ... .. 4 ... ... : ... .. . ... ... : ... .. . ... ...
ROW 0F : ... .. . ... ... ... : ... .. 8 ... ... ... : ... .. . ... : ... .. 0 ... : ... .. . ... ... : ... .. . ... ... : ... .. . ... ... : ... .. . ... ...
ROW 10 : ... .. . ... ... ... : F#2 00 8 ... ... ... : F-5 00 . ... : 1-# 00 F ... : ... .. . ... ... : F#5 01 5 ... ... : D-3 01 6 P80 ... : B-3 01 A ... ...
ROW 11 : ... .. . ... ... ... : ... .. B ... ... ... : G-4 00 . ... : ... .. C ... : ... .. . ... ... : ... .. 4 ... ... : ... .. . ... ... : ... .. 8 ... ...
ROW 12 : ... .. . ... ... ... : ... .. 8 ... ... ... : C-4 00 . ... : ... .. 6 ... : ... .. . ... ... : ... .. . ... ... : ... .. 5 ... ... : ... .. 5 ... ...
ROW 13 : ... .. . ... ... ... : ... .. 0 ... ... ... : B-3 00 . ... : ... .. 3 ... : ... .. . ... ... : E-5 01 5 ... ... : ... .. 4 ... ... : ... .. . ... ...
ROW 14 : ... .. . ... ... ... : F#2 00 5 P80 ... ... : F#3 00 . ... : ... .. 2 ... : ... .. . ... ... : ... .. 4 ... ... : ... .. . ... ... : ... .. . ... ...
ROW 15 : ... .. . ... ... ... : ... .. 8 ... ... ... : ... .. . ... : ... .. 0 ... : ... .. . ... ... : ... .. . ... ... : ... .. . ... ... : ... .. . ... ...
ROW 16 : ... .. . ... ... ... : G-2 00 8 ... ... ... : ... .. . ... : B-# 00 F ... : ... .. . ... ... : D-5 01 5 ... ... : ... .. . ... ... : ... .. . ... ...
ROW 17 : ... .. . ... ... ... : ... .. B ... ... ... : ... .. . ... : ... .. C ... : ... .. . ... ... : ... .. 4 ... ... : ... .. 3 ... ... : ... .. . ... ...
ROW 18 : ... .. . ... ... ... : ... .. 8 ... ... ... : ... .. . ... : ... .. 6 ... : ... .. . ... ... : ... .. . ... ... : ... .. . ... ... : ... .. . ... ...
ROW 19 : ... .. . ... ... ... : ... .. 0 ... ... ... : ... .. . ... : ... .. 3 ... : ... .. . ... ... : C#5 01 5 ... ... : ... .. . ... ... : ... .. . ... ...
ROW 1A : ... .. . ... ... ... : G-2 00 5 P80 ... ... : ... .. . ... : ... .. 2 ... : ... .. . ... ... : ... .. 4 ... ... : ... .. . ... ... : ... .. . ... ...
ROW 1B : ... .. . ... ... ... : ... .. 8 ... ... ... : ... .. . ... : ... .. 0 ... : ... .. . ... ... : ... .. . ... ... : ... .. . ... ... : ... .. . ... ...
ROW 1C : ... .. . ... ... ... : A-2 00 8 ... ... ... : E-3 00 . P85 : 7-# 00 F ... : ... .. . ... ... : B-4 01 5 ... ... : ... .. . ... ... : ... .. . ... ...
ROW 1D : ... .. . ... ... ... : ... .. B ... ... ... : D#3 00 . P7A : ... .. C ... : ... .. . ... ... : ... .. 4 ... ... : ... .. . ... ... : ... .. . ... ...
ROW 1E : ... .. . ... ... ... : ... .. 8 ... ... ... : C#3 00 . P86 : ... .. 6 ... : ... .. . ... ... : ... .. . ... ... : ... .. . ... ... : ... .. . ... ...
ROW 1F : ... .. . ... ... ... : ... .. 0 ... ... ... : C-3 00 . P7E : ... .. 3 ... : ... .. . ... ... : A-4 01 5 ... ... : ... .. . ... ... : ... .. . ... ...
ROW 20 : ... .. . ... ... ... : A-2 00 5 P80 ... ... : B-2 00 . P77 : ... .. 2 ... : ... .. . ... ... : ... .. 4 ... ... : ... .. . ... ... : ... .. . ... ...
ROW 21 : ... .. . ... ... ... : ... .. 8 ... ... ... : A-2 00 . P8E : ... .. 0 ... : ... .. . ... ... : ... .. . ... ... : ... .. . ... ... : ... .. . ... ...
ROW 22 : ... .. . ... ... ... : B-2 00 8 ... ... ... : G#2 00 . P8D : 1-# 00 F ... : ... .. . ... ... : G-4 01 5 ... ... : ... .. . ... ... : ... .. . ... ...
ROW 23 : ... .. . ... ... ... : ... .. B ... ... ... : G-2 00 . ... : ... .. C ... : ... .. . ... ... : ... .. 4 ... ... : ... .. . ... ... : ... .. . ... ...
ROW 24 : ... .. . ... ... ... : ... .. 8 ... ... ... : F#2 00 . P8F : ... .. 6 ... : ... .. . ... ... : ... .. . ... ... : ... .. . ... ... : ... .. . ... ...
ROW 25 : ... .. . ... ... ... : ... .. 0 ... ... ... : ... .. . P6F : ... .. 3 ... : ... .. . ... ... : F#4 01 5 ... ... : ... .. . ... ... : ... .. . ... ...
ROW 26 : ... .. . ... ... ... : B-2 00 5 P80 ... ... : F-2 00 . P73 : ... .. 2 ... : ... .. . ... ... : ... .. 4 ... ... : ... .. . ... ... : ... .. . ... ...
ROW 27 : ... .. . ... ... ... : ... .. 8 ... ... ... : E-2 00 . P79 : ... .. 0 ... : ... .. . ... ... : ... .. . ... ... : ... .. . ... ... : ... .. . ... ...
ROW 28 : ... .. . ... ... ... : F#2 00 8 ... ... ... : F-4 00 . P80 : 9-# 00 F ... : ... .. . ... ... : E-4 01 5 ... ... : ... .. 6 ... ... : ... .. A ... ...
ROW 29 : ... .. . ... ... ... : ... .. B ... ... ... : G-3 00 . ... : ... .. C ... : ... .. . ... ... : ... .. 4 ... ... : ... .. . ... ... : ... .. 8 ... ...
ROW 2A : ... .. . ... ... ... : ... .. 8 ... ... ... : C-3 00 . ... : ... .. 6 ... : ... .. . ... ... : ... .. . ... ... : ... .. 5 ... ... : ... .. 5 ... ...
ROW 2B : ... .. . ... ... ... : ... .. 0 ... ... ... : B-2 00 . ... : ... .. 3 ... : ... .. . ... ... : D-4 01 5 ... ... : ... .. 4 ... ... : ... .. . ... ...
ROW 2C : ... .. . ... ... ... : F#2 00 5 P80 ... ... : F#2 00 . ... : ... .. 2 ... : ... .. . ... ... : ... .. 4 ... ... : ... .. . ... ... : ... .. . ... ...
ROW 2D : ... .. . ... ... ... : ... .. 8 ... ... ... : ... .. . ... : ... .. 0 ... : ... .. . ... ... : ... .. . ... ... : ... .. . ... ... : ... .. . ... ...
ROW 2E : ... .. . ... ... ... : G-2 00 8 ... ... ... : ... .. . ... : ... .. F ... : ... .. . ... ... : C-4 01 5 ... ... : G-3 01 6 ... ... : D-4 01 A ... ...
ROW 2F : ... .. . ... ... ... : ... .. B ... ... ... : ... .. . ... : ... .. C ... : ... .. . ... ... : ... .. 4 ... ... : ... .. . ... ... : ... .. 8 ... ...
ROW 30 : ... .. . ... ... ... : ... .. 8 ... ... ... : ... .. . ... : ... .. 6 ... : ... .. . ... ... : ... .. . ... ... : ... .. 5 ... ... : ... .. 5 ... ...
ROW 31 : ... .. . ... ... ... : ... .. 0 ... ... ... : ... .. . ... : ... .. 3 ... : ... .. . ... ... : C#4 01 5 ... ... : ... .. 4 ... ... : ... .. . ... ...
ROW 32 : ... .. . ... ... ... : G-2 00 5 P80 ... ... : ... .. . ... : ... .. 2 ... : ... .. . ... ... : ... .. 4 ... ... : ... .. . ... ... : ... .. . ... ...
ROW 33 : ... .. . ... ... ... : ... .. 8 ... ... ... : ... .. . ... : ... .. 0 ... : ... .. . ... ... : ... .. . ... ... : ... .. . ... ... : ... .. . ... ...
ROW 34 : ... .. . P84 ... ... : A-2 00 8 ... ... ... : ... .. . ... : 7-# 00 F ... : ... .. . ... ... : B-3 01 5 ... ... : B-3 01 6 ... ... : G-4 01 A ... ...
ROW 35 : ... .. . P86 ... ... : ... .. B ... ... ... : ... .. . ... : ... .. C ... : ... .. . ... ... : ... .. 4 ... ... : ... .. . ... ... : ... .. 8 ... ...
ROW 36 : ... .. . P85 ... ... : ... .. 8 ... ... ... : ... .. . ... : ... .. 6 ... : ... .. . ... ... : ... .. . ... ... : ... .. 5 ... ... : ... .. 5 ... ...
ROW 37 : ... .. . P82 ... ... : ... .. 0 ... ... ... : ... .. . ... : ... .. 3 ... : ... .. . ... ... : A-3 01 5 ... ... : ... .. 4 ... ... : ... .. . ... ...
ROW 38 : ... .. . P7E ... ... : A-2 00 5 P80 ... ... : ... .. . ... : ... .. 2 ... : ... .. . ... ... : ... .. 4 ... ... : ... .. . ... ... : ... .. . ... ...
ROW 39 : ... .. . P7B ... ... : ... .. 8 ... ... ... : ... .. . ... : ... .. 0 ... : ... .. . ... ... : ... .. . ... ... : ... .. . ... ... : ... .. . ... ...
ROW 3A : ... .. . P7A ... ... : B-2 00 8 ... ... ... : ... .. . ... : ... .. F ... : ... .. . ... ... : G-3 01 5 ... ... : D-4 01 6 ... ... : B-4 01 A ... ...
ROW 3B : ... .. . P7C ... ... : ... .. B ... ... ... : ... .. . ... : ... .. C ... : ... .. . ... ... : ... .. 4 ... ... : ... .. . ... ... : ... .. 8 ... ...
ROW 3C : ... .. . P80 ... ... : ... .. 8 ... ... ... : ... .. . ... : ... .. 6 ... : ... .. . ... ... : ... .. . ... ... : ... .. 5 ... ... : ... .. 5 ... ...
ROW 3D : ... .. . P83 ... ... : ... .. 0 ... ... ... : ... .. . ... : ... .. 3 ... : ... .. . ... ... : F#3 01 5 ... ... : ... .. 4 ... ... : ... .. . ... ...
ROW 3E : ... .. . P86 ... ... : B-2 00 5 P80 ... ... : ... .. . ... : ... .. 2 ... : ... .. . ... ... : ... .. 4 ... ... : ... .. . ... ... : ... .. . ... ...
ROW 3F : ... .. . ... ... ... : ... .. 8 ... ... ... : ... .. . ... : ... .. 0 ... : ... .. . ... ... : ... .. . ... ... : ... .. . ... ... : ... .. . ... ...
ROW 40 : ... .. . P82 ... ... : A-2 00 8 ... ... ... : F-5 00 . ... : 9-# 00 F ... : ... .. . ... ... : D-3 01 5 ... ... : G-4 01 6 ... ... : C#5 01 A ... ...
ROW 41 : ... .. . P7F ... ... : ... .. B ... ... ... : G-4 00 . ... : ... .. C ... : ... .. . ... ... : ... .. 4 ... ... : ... .. . ... ... : ... .. 8 ... ...
ROW 42 : ... .. . P7B ... ... : ... .. 8 ... ... ... : C-4 00 . ... : ... .. 6 ... : ... .. . ... ... : ... .. . ... ... : ... .. 5 ... ... : ... .. 5 ... ...
ROW 43 : ... .. . P7A ... ... : ... .. 0 ... ... ... : B-3 00 . ... : ... .. 3 ... : ... .. . ... ... : E-3 01 5 ... ... : ... .. 3 ... ... : ... .. 4 ... ...
ROW 44 : ... .. . P7C ... ... : A-2 00 5 P80 ... ... : F#3 00 . ... : ... .. 2 ... : ... .. . ... ... : ... .. 4 ... ... : ... .. . ... ... : ... .. . ... ...
ROW 45 : ... .. . P80 ... ... : ... .. 8 ... ... ... : ... .. . ... : ... .. 0 ... : ... .. . ... ... : ... .. . ... ... : ... .. . ... ... : ... .. . ... ...
ROW 46 : ... .. . P83 ... ... : B-2 00 8 ... ... ... : ... .. . ... : 2-# 00 F ... : ... .. . ... ... : F#3 01 5 ... ... : ... .. 2 ... ... : ... .. 3 ... ...
ROW 47 : ... .. . P86 ... ... : ... .. B ... ... ... : ... .. . ... : ... .. C ... : ... .. . ... ... : ... .. 4 ... ... : ... .. . ... ... : ... .. . ... ...
ROW 48 : ... .. . ... ... ... : ... .. 8 ... ... ... : ... .. . ... : ... .. 6 ... : ... .. . ... ... : ... .. . ... ... : ... .. . ... ... : ... .. . ... ...
ROW 49 : ... .. . P83 ... ... : ... .. 0 ... ... ... : ... .. . ... : ... .. 3 ... : ... .. . ... ... : G-3 01 5 ... ... : ... .. . ... ... : ... .. . ... ...
ROW 4A : ... .. . P80 ... ... : B-2 00 5 P80 ... ... : ... .. . ... : ... .. 2 ... : ... .. . ... ... : ... .. 4 ... ... : ... .. . ... ... : ... .. . ... ...
ROW 4B : ... .. . P7C ... ... : ... .. 8 ... ... ... : ... .. . ... : ... .. 0 ... : ... .. . ... ... : ... .. . ... ... : ... .. . ... ... : ... .. . ... ...
ROW 4C : ... .. . P7A ... ... : C#3 00 8 ... ... ... : E-3 00 . P85 : 1-# 00 F ... : ... .. . ... ... : A-3 01 5 ... ... : ... .. 1 ... ... : ... .. 2 ... ...
ROW 4D : ... .. . P7B ... ... : ... .. B ... ... ... : D#3 00 . P7A : ... .. C ... : ... .. . ... ... : ... .. 4 ... ... : ... .. . ... ... : ... .. . ... ...
ROW 4E : ... .. . P7F ... ... : ... .. 8 ... ... ... : C#3 00 . P86 : ... .. 6 ... : ... .. . ... ... : ... .. . ... ... : ... .. . ... ... : ... .. . ... ...
ROW 4F : ... .. . P82 ... ... : ... .. 0 ... ... ... : C-3 00 . P7E : ... .. 3 ... : ... .. . ... ... : B-3 01 5 ... ... : ... .. . ... ... : ... .. . ... ...
ROW 50 : ... .. . P86 ... ... : C#3 00 5 P80 ... ... : B-2 00 . P77 : ... .. 2 ... : ... .. . ... ... : ... .. 4 ... ... : ... .. . ... ... : ... .. . ... ...
ROW 51 : ... .. . ... ... ... : ... .. 8 ... ... ... : A-2 00 . P8E : ... .. 0 ... : ... .. . ... ... : ... .. . ... ... : ... .. . ... ... : ... .. . ... ...
ROW 52 : ... .. . P83 ... ... : D-3 00 8 ... ... ... : G#2 00 . P8D : C-# 00 F ... : ... .. . ... ... : C#4 01 5 ... ... : ... .. . ... ... : ... .. . ... ...
ROW 53 : ... .. . P80 ... ... : ... .. B ... ... ... : G-2 00 . ... : ... .. C ... : ... .. . ... ... : ... .. 4 ... ... : ... .. . ... ... : ... .. . ... ...
ROW 54 : ... .. . P7C ... ... : ... .. 8 ... ... ... : F#2 00 . P8F : ... .. 6 ... : ... .. . ... ... : ... .. . ... ... : ... .. . ... ... : ... .. . ... ...
ROW 55 : ... .. . P7A ... ... : ... .. 0 ... ... ... : ... .. . P6F : ... .. 3 ... : ... .. . ... ... : D-4 01 5 ... ... : ... .. 2 ... ... : ... .. 3 ... ...
ROW 56 : ... .. . P7B ... ... : D-3 00 5 P80 ... ... : F-2 00 . P73 : ... .. 2 ... : ... .. . ... ... : ... .. 4 ... ... : ... .. . ... ... : ... .. . ... ...
ROW 57 : ... .. . P7E ... ... : ... .. 8 ... ... ... : E-2 00 . P79 : ... .. 0 ... : ... .. . ... ... : ... .. . ... ... : ... .. . ... ... : ... .. . ... ...
ROW 58 : ... .. . P82 ... ... : C#3 00 8 ... ... ... : F-4 00 . P80 : 7-# 00 F ... : ... .. . ... ... : E-4 01 5 ... ... : ... .. . P84 ... : D-5 01 3 P7E ...
ROW 59 : ... .. . P85 ... ... : ... .. B ... ... ... : G-3 00 . ... : ... .. C ... : ... .. . ... ... : ... .. 4 ... ... : G#4 01 2 P7E ... : ... .. . P80 ...
ROW 5A : ... .. . P86 ... ... : ... .. 8 ... ... ... : C-3 00 . ... : ... .. 6 ... : ... .. . ... ... : ... .. . ... ... : ... .. . P7D ... : ... .. . P7F ...
ROW 5B : ... .. . P84 ... ... : ... .. 0 ... ... ... : B-2 00 . ... : ... .. 3 ... : ... .. . ... ... : F#4 01 5 ... ... : G-4 01 2 P82 ... : C#5 01 4 P82 ...
ROW 5C : ... .. . P80 ... ... : C#3 00 5 P80 ... ... : F#2 00 . ... : ... .. 2 ... : ... .. . ... ... : ... .. 4 ... ... : ... .. . P7E ... : ... .. . P7E ...
ROW 5D : ... .. . P7D ... ... : ... .. 8 ... ... ... : ... .. . ... : ... .. 0 ... : ... .. . ... ... : ... .. . ... ... : F#4 01 2 P83 ... : C-5 01 4 P82 ...
ROW 5E : ... .. . P7A ... ... : D-3 00 8 ... ... ... : ... .. . ... : 1-# 00 F ... : ... .. . ... ... : G-4 01 5 ... ... : ... .. 3 P82 ... : ... .. 5 P81 ...
ROW 5F : ... .. . ... ... ... : ... .. B ... ... ... : ... .. . ... : ... .. C ... : ... .. . ... ... : ... .. 4 ... ... : ... .. . P84 ... : ... .. . P83 ...
ROW 60 : ... .. . P7E ... ... : ... .. 8 ... ... ... : ... .. . ... : ... .. 6 ... : ... .. . ... ... : ... .. . ... ... : G-4 01 3 P80 ... : C#5 01 5 P80 ...
ROW 61 : ... .. . P81 ... ... : ... .. 0 ... ... ... : ... .. . ... : ... .. 3 ... : ... .. . ... ... : A-4 01 5 ... ... : ... .. . P83 ... : ... .. . P83 ...
ROW 62 : ... .. . P85 ... ... : D-3 00 5 P80 ... ... : ... .. . ... : ... .. 2 ... : ... .. . ... ... : ... .. 4 ... ... : G#4 01 3 P7E ... : D-5 01 5 P80 ...
ROW 63 : ... .. . P86 ... ... : ... .. 8 ... ... ... : ... .. . ... : ... .. 0 ... : ... .. . ... ... : ... .. . ... ... : ... .. . ... ... : ... .. . ... ...
ROW 64 : ... .. . P84 ... ... : E-3 00 8 ... ... ... : ... .. . ... : C-# 00 F ... : ... .. . ... ... : B-4 01 5 ... ... : G-4 01 4 P82 ... : C#5 01 6 P82 ...
ROW 65 : ... .. . P80 ... ... : ... .. B ... ... ... : ... .. . ... : ... .. C ... : ... .. . ... ... : ... .. 4 ... ... : ... .. . P7F ... : ... .. . P7F ...
ROW 66 : ... .. . P7D ... ... : ... .. 8 ... ... ... : ... .. . ... : ... .. 6 ... : ... .. . ... ... : ... .. . ... ... : F#4 01 4 P83 ... : C-5 01 6 P82 ...
ROW 67 : ... .. . P7A ... ... : ... .. 0 ... ... ... : ... .. . ... : ... .. 3 ... : ... .. . ... ... : C#5 01 5 ... ... : ... .. . P82 ... : ... .. . P81 ...
ROW 68 : ... .. 2 ... ... ... : E-3 00 5 P80 ... ... : ... .. . ... : ... .. 2 ... : ... .. . ... ... : ... .. 4 ... ... : ... .. . P84 ... : ... .. . P83 ...
ROW 69 : ... .. . P7D ... ... : ... .. 8 ... ... ... : ... .. . ... : ... .. 0 ... : ... .. . ... ... : ... .. . ... ... : G-4 01 4 P80 ... : C#5 01 6 P80 ...
ROW 6A : ... .. . P80 ... ... : F#3 00 8 ... ... ... : ... .. . ... : 7-# 00 F ... : ... .. . ... ... : D-5 01 5 ... ... : ... .. 5 P83 ... : ... .. 8 P83 ...
ROW 6B : ... .. 1 P84 ... ... : ... .. B ... ... ... : ... .. . ... : ... .. C ... : ... .. . ... ... : ... .. 4 ... ... : G#4 01 5 P7E ... : D-5 01 8 P80 ...
ROW 6C : ... .. . P86 ... ... : ... .. 8 ... ... ... : ... .. . ... : ... .. 6 ... : ... .. . ... ... : ... .. . ... ... : ... .. . ... ... : ... .. . ... ...
ROW 6D : ... .. . P85 ... ... : ... .. 0 ... ... ... : ... .. . ... : ... .. 3 ... : ... .. . ... ... : E-5 01 5 ... ... : G-4 01 4 P83 ... : C#5 01 6 P83 ...
ROW 6E : ... .. 0 ... ... ... : F#3 00 5 P80 ... ... : ... .. . ... : ... .. 2 ... : ... .. . ... ... : ... .. 4 ... ... : ... .. . P80 ... : ... .. . P80 ...
ROW 6F : ... .. . ... ... ... : ... .. 8 ... ... ... : ... .. . ... : ... .. 0 ... : ... .. . ... ... : ... .. . ... ... : F#4 01 4 P84 ... : C-5 01 6 P83 ...
ROW 70 : G-3 00 F P80 ... ... : G-3 00 8 ... ... ... : F-5 00 . ... : 1-# 00 F ... : ... .. . ... ... : F#5 01 5 ... ... : G-4 01 6 P80 ... : C#5 01 A P80 ...
ROW 71 : ... .. E ... ... ... : ... .. B ... ... ... : G-4 00 . ... : ... .. C ... : ... .. . ... ... : ... .. 4 ... ... : ... .. . ... ... : ... .. 8 ... ...
ROW 72 : ... .. D ... ... ... : ... .. 8 ... ... ... : C-4 00 . ... : ... .. 6 ... : ... .. . ... ... : ... .. . ... ... : ... .. 5 ... ... : ... .. 5 ... ...
ROW 73 : ... .. A ... ... ... : ... .. 0 ... ... ... : B-3 00 . ... : ... .. 3 ... : ... .. . ... ... : E-5 01 5 ... ... : ... .. 4 ... ... : ... .. . ... ...
ROW 74 : ... .. . ... ... ... : G-3 00 5 P80 ... ... : F#3 00 . ... : ... .. 2 ... : ... .. . ... ... : ... .. 4 ... ... : ... .. . ... ... : ... .. . ... ...
ROW 75 : ... .. . ... ... ... : ... .. 8 ... ... ... : ... .. . ... : ... .. 0 ... : ... .. . ... ... : ... .. . ... ... : ... .. . ... ... : ... .. . ... ...
ROW 76 : ... .. . ... ... ... : A-3 00 8 ... ... ... : ... .. . ... : B-# 00 F ... : ... .. . ... ... : D-5 01 5 ... ... : ... .. . ... ... : ... .. . ... ...
ROW 77 : ... .. . ... ... ... : ... .. B ... ... ... : ... .. . ... : ... .. C ... : ... .. . ... ... : ... .. 4 ... ... : ... .. 3 ... ... : ... .. . ... ...
ROW 78 : ... .. . ... ... ... : ... .. 8 ... ... ... : ... .. . ... : ... .. 6 ... : ... .. . ... ... : ... .. . ... ... : ... .. . ... ... : ... .. . ... ...
ROW 79 : ... .. 0 ... ... ... : ... .. 0 ... ... ... : ... .. . ... : ... .. 3 ... : ... .. . ... ... : C#5 01 5 ... ... : --- .. . ... ... : --- .. . ... ...
ROW 7A : ... .. . ... ... ... : A-3 00 5 P80 ... ... : ... .. . ... : ... .. 2 ... : ... .. . ... ... : ... .. 4 ... ... : ... .. . ... ... : ... .. . ... ...
ROW 7B : ... .. . ... ... ... : ... .. 8 ... ... ... : ... .. . ... : ... .. 0 ... : ... .. . ... ... : ... .. . ... ... : ... .. . ... ... : ... .. . ... ...
ROW 7C : G-3 00 D P80 ... ... : B-3 00 8 ... ... ... : E-3 00 . P85 : 7-# 00 F ... : ... .. . ... ... : B-4 01 5 ... ... : G-4 01 5 ... ... : C#5 01 8 ... ...
ROW 7D : ... .. A ... ... ... : ... .. B ... ... ... : D#3 00 . P7A : ... .. C ... : ... .. . ... ... : ... .. 4 ... ... : ... .. 3 ... ... : ... .. 5 ... ...
ROW 7E : ... .. 7 ... ... ... : ... .. 8 ... ... ... : C#3 00 . P86 : ... .. 6 ... : ... .. . ... ... : ... .. . ... ... : ... .. 2 ... ... : ... .. 2 ... ...
ROW 7F : ... .. 4 ... ... ... : ... .. 0 ... ... ... : C-3 00 . P7E : ... .. 3 ... : ... .. . ... ... : A-4 01 5 ... ... : ... .. 1 ... ... : ... .. 1 ... ...
ROW 80 : ... .. D ... ... ... : B-3 00 5 P80 ... ... : B-2 00 . P77 : ... .. 2 ... : ... .. . ... ... : ... .. 4 ... ... : ... .. 5 ... ... : ... .. 8 ... ...
ROW 81 : ... .. A ... ... ... : ... .. 8 ... ... ... : A-2 00 . P8E : ... .. 0 ... : ... .. . ... ... : ... .. . ... ... : ... .. 3 ... ... : ... .. 5 ... ...
ROW 82 : ... .. 7 ... ... ... : C#4 00 8 ... ... ... : G#2 00 . P8D : 1-# 00 F ... : ... .. . ... ... : G-4 01 5 ... ... : ... .. 2 ... ... : ... .. 2 ... ...
ROW 83 : ... .. 4 ... ... ... : ... .. B ... ... ... : G-2 00 . ... : ... .. C ... : ... .. . ... ... : ... .. 4 ... ... : ... .. 1 ... ... : ... .. 1 ... ...
ROW 84 : ... .. D ... ... ... : ... .. 8 ... ... ... : F#2 00 . P8F : ... .. 6 ... : ... .. . ... ... : ... .. . ... ... : ... .. 5 ... ... : ... .. 8 ... ...
ROW 85 : ... .. A ... ... ... : ... .. 0 ... ... ... : ... .. . P6F : ... .. 3 ... : ... .. . ... ... : F#4 01 5 ... ... : ... .. 3 ... ... : ... .. 5 ... ...
ROW 86 : ... .. 7 ... ... ... : C#4 00 5 P80 ... ... : F-2 00 . P73 : ... .. 2 ... : ... .. . ... ... : ... .. 4 ... ... : ... .. 2 ... ... : ... .. 2 ... ...
ROW 87 : ... .. 4 ... ... ... : ... .. 8 ... ... ... : E-2 00 . P79 : ... .. 0 ... : ... .. . ... ... : ... .. . ... ... : ... .. 1 ... ... : ... .. 1 ... ...
ROW 88 : ... .. F ... ... ... : D-4 00 8 ... ... ... : F-4 00 . P80 : 9-# 00 F ... : ... .. . ... ... : E-4 01 5 ... ... : ... .. 6 ... ... : ... .. A ... ...
ROW 89 : ... .. E ... ... ... : ... .. B ... ... ... : G-3 00 . ... : ... .. C ... : ... .. . ... ... : ... .. 4 ... ... : ... .. . ... ... : ... .. 8 ... ...
ROW 8A : ... .. D ... ... ... : ... .. 8 ... ... ... : C-3 00 . ... : ... .. 6 ... : ... .. . ... ... : ... .. . ... ... : ... .. 5 ... ... : ... .. 5 ... ...
ROW 8B : ... .. A ... ... ... : ... .. 0 ... ... ... : B-2 00 . ... : ... .. 3 ... : ... .. . ... ... : D-4 01 5 ... ... : ... .. 4 ... ... : ... .. . ... ...
ROW 8C : ... .. . ... ... ... : D-4 00 5 P80 ... ... : F#2 00 . ... : ... .. 2 ... : ... .. . ... ... : ... .. 4 ... ... : ... .. . ... ... : ... .. . ... ...
ROW 8D : ... .. 0 ... ... ... : ... .. 8 ... ... ... : ... .. . ... : ... .. 0 ... : ... .. . ... ... : ... .. . ... ... : --- .. . ... ... : --- .. . ... ...
ROW 8E : ... .. . ... ... ... : E-4 00 8 ... ... ... : ... .. . ... : ... .. F ... : ... .. . ... ... : C-4 01 5 ... ... : ... .. . ... ... : ... .. . ... ...
ROW 8F : ... .. . ... ... ... : ... .. B ... ... ... : ... .. . ... : ... .. C ... : ... .. . ... ... : ... .. 4 ... ... : ... .. . ... ... : ... .. . ... ...
ROW 90 : G-3 00 F P80 ... ... : ... .. 8 ... ... ... : ... .. . ... : ... .. 6 ... : ... .. . ... ... : ... .. . ... ... : G-4 01 6 ... ... : C#5 01 A ... ...
ROW 91 : ... .. E ... ... ... : ... .. 0 ... ... ... : ... .. . ... : ... .. 3 ... : ... .. . ... ... : C#4 01 5 ... ... : ... .. . ... ... : ... .. 8 ... ...
ROW 92 : ... .. D ... ... ... : E-4 00 5 P80 ... ... : ... .. . ... : ... .. 2 ... : ... .. . ... ... : ... .. 4 ... ... : ... .. 5 ... ... : ... .. 5 ... ...
ROW 93 : ... .. A ... ... ... : ... .. 8 ... ... ... : ... .. . ... : ... .. 0 ... : ... .. . ... ... : ... .. . ... ... : ... .. 4 ... ... : ... .. . ... ...
ROW 94 : ... .. 0 ... ... ... : F#4 00 8 ... ... ... : ... .. . ... : 7-# 00 F ... : ... .. . ... ... : B-3 01 5 ... ... : --- .. . ... ... : --- .. . ... ...
ROW 95 : ... .. . ... ... ... : ... .. B ... ... ... : ... .. . ... : ... .. C ... : ... .. . ... ... : ... .. 4 ... ... : ... .. . ... ... : ... .. . ... ...
ROW 96 : ... .. . ... ... ... : ... .. 8 ... ... ... : ... .. . ... : ... .. 6 ... : ... .. . ... ... : ... .. . ... ... : ... .. . ... ... : ... .. . ... ...
ROW 97 : ... .. . ... ... ... : ... .. 0 ... ... ... : ... .. . ... : ... .. 3 ... : ... .. . ... ... : A-3 01 5 ... ... : ... .. . ... ... : ... .. . ... ...
ROW 98 : G-3 00 F P80 ... ... : F#4 00 5 P80 ... ... : ... .. . ... : ... .. 2 ... : ... .. . ... ... : ... .. 4 ... ... : G-4 01 6 ... ... : C#5 01 A ... ...
ROW 99 : ... .. E ... ... ... : ... .. 8 ... ... ... : ... .. . ... : ... .. 0 ... : ... .. . ... ... : ... .. . ... ... : ... .. . ... ... : ... .. 8 ... ...
ROW 9A : ... .. D ... ... ... : G-4 00 8 ... ... ... : ... .. . ... : ... .. F ... : ... .. . ... ... : G-3 01 5 ... ... : ... .. 5 ... ... : ... .. 5 ... ...
ROW 9B : ... .. A ... ... ... : ... .. B ... ... ... : ... .. . ... : ... .. C ... : ... .. . ... ... : ... .. 4 ... ... : ... .. 4 ... ... : ... .. . ... ...
ROW 9C : ... .. . ... ... ... : ... .. 8 ... ... ... : ... .. . ... : ... .. 6 ... : ... .. . ... ... : ... .. . ... ... : ... .. . ... ... : ... .. . ... ...
ROW 9D : ... .. 0 ... ... ... : ... .. 0 ... ... ... : ... .. . ... : ... .. 3 ... : ... .. . ... ... : F#3 01 5 ... ... : --- .. . ... ... : --- .. . ... ...
ROW 9E : ... .. . ... ... ... : G-4 00 5 P80 ... ... : ... .. . ... : ... .. 2 ... : ... .. . ... ... : ... .. 4 ... ... : ... .. . ... ... : ... .. . ... ...
ROW 9F : ... .. . ... ... ... : ... .. 8 ... ... ... : ... .. . ... : ... .. 0 ... : ... .. . ... ... : ... .. . ... ... : ... .. . ... ... : ... .. . ... ...
ROW A0 : C#5 00 F P80 ... ... : G-3 00 9 ... ... ... : G#5 00 . ... : ... .. F ... : ... .. . ... ... : F-3 01 A ... ... : D-4 01 A ... ... : A#3 01 F ... ...
ROW A1 : ... .. E ... ... ... : ... .. 8 ... ... ... : A#4 00 . ... : ... .. C ... : ... .. . ... ... : ... .. 9 ... ... : ... .. 9 ... ... : ... .. D ... ...
ROW A2 : ... .. D ... ... ... : ... .. . ... ... ... : D#4 00 . ... : ... .. 6 ... : ... .. . ... ... : ... .. 8 ... ... : ... .. 8 ... ... : ... .. 8 ... ...
ROW A3 : ... .. A ... ... ... : ... .. 7 ... ... ... : D-4 00 . ... : ... .. 3 ... : ... .. . ... ... : ... .. 6 ... ... : ... .. 6 ... ... : ... .. 6 ... ...
ROW A4 : ... .. . ... ... ... : ... .. 5 ... ... ... : A-3 00 . ... : ... .. 2 ... : ... .. . ... ... : ... .. . ... ... : ... .. . ... ... : ... .. . ... ...
ROW A5 : ... .. . ... ... ... : ... .. . ... ... ... : ... .. . ... : ... .. 0 ... : ... .. . ... ... : ... .. 5 ... ... : ... .. 5 ... ... : ... .. . ... ...
ROW A6 : ... .. . ... ... ... : G#3 00 9 ... ... ... : ... .. . ... : ... .. . ... : ... .. . ... ... : ... .. 4 ... ... : ... .. 4 ... ... : ... .. 5 ... ...
ROW A7 : ... .. . ... ... ... : ... .. 8 ... ... ... : ... .. . ... : ... .. . ... : ... .. . ... ... : ... .. 3 ... ... : ... .. 3 ... ... : ... .. . ... ...
ROW A8 : ... .. . ... ... ... : ... .. . ... ... ... : ... .. . ... : ... .. F ... : ... .. . ... ... : ... .. . ... ... : ... .. . ... ... : ... .. . ... ...
ROW A9 : ... .. 0 ... ... ... : ... .. 7 ... ... ... : ... .. . ... : ... .. C ... : ... .. . ... ... : ... .. . ... ... : ... .. . ... ... : ... .. . ... ...
ROW AA : ... .. . ... ... ... : ... .. 5 ... ... ... : ... .. . ... : ... .. 6 ... : ... .. . ... ... : ... .. . ... ... : ... .. . ... ... : ... .. . ... ...
ROW AB : ... .. . ... ... ... : ... .. . ... ... ... : ... .. . ... : ... .. 3 ... : ... .. . ... ... : ... .. . ... ... : ... .. . ... ... : ... .. . ... ...
ROW AC : C#5 00 D P80 ... ... : A#3 00 9 ... ... ... : G-3 00 . P7F : ... .. 2 ... : ... .. . ... ... : ... .. 2 ... ... : ... .. 2 ... ... : ... .. 4 ... ...
ROW AD : ... .. A ... ... ... : ... .. 8 ... ... ... : F-3 00 . P82 : ... .. 0 ... : ... .. . ... ... : ... .. . ... ... : ... .. . ... ... : ... .. . ... ...
ROW AE : ... .. 7 ... ... ... : ... .. . ... ... ... : D#3 00 . P8A : ... .. . ... : ... .. . ... ... : ... .. . ... ... : ... .. . ... ... : ... .. . ... ...
ROW AF : ... .. 4 ... ... ... : ... .. 7 ... ... ... : D-3 00 . P7F : ... .. . ... : ... .. . ... ... : ... .. . ... ... : ... .. . ... ... : ... .. 3 ... ...
ROW B0 : ... .. D ... ... ... : ... .. 5 ... ... ... : C#3 00 . P76 : ... .. F ... : ... .. . ... ... : ... .. . ... ... : ... .. . ... ... : ... .. . ... ...
ROW B1 : ... .. A ... ... ... : ... .. . ... ... ... : B-2 00 . P87 : ... .. C ... : ... .. . ... ... : ... .. . ... ... : ... .. . ... ... : ... .. . ... ...
ROW B2 : ... .. 7 ... ... ... : B-3 00 9 ... ... ... : A#2 00 . P82 : ... .. 6 ... : ... .. . ... ... : ... .. 1 ... ... : ... .. 1 ... ... : ... .. 2 ... ...
ROW B3 : ... .. 4 ... ... ... : ... .. 8 ... ... ... : A-2 00 . P7E : ... .. 3 ... : ... .. . ... ... : ... .. . ... ... : ... .. . ... ... : ... .. . ... ...
ROW B4 : ... .. D ... ... ... : ... .. . ... ... ... : G#2 00 . P7D : ... .. 2 ... : ... .. . ... ... : ... .. . ... ... : ... .. . ... ... : ... .. . ... ...
ROW B5 : ... .. A ... ... ... : ... .. 7 ... ... ... : --- .. . ... : ... .. 0 ... : ... .. . ... ... : ... .. . ... ... : ... .. . ... ... : ... .. 1 ... ...
ROW B6 : ... .. 7 ... ... ... : ... .. 5 ... ... ... : ... .. . ... : ... .. . ... : ... .. . ... ... : ... .. . ... ... : ... .. . ... ... : ... .. . ... ...
ROW B7 : ... .. 4 ... ... ... : ... .. . ... ... ... : ... .. . ... : ... .. . ... : ... .. . ... ... : ... .. . ... ... : ... .. . ... ... : ... .. . ... ...
ROW B8 : ... .. F ... ... ... : A#3 00 9 ... ... ... : A-2 00 . P80 : ... .. F ... : ... .. . ... ... : ... .. . ... ... : ... .. . ... ... : ... .. . ... ...
ROW B9 : ... .. E ... ... ... : ... .. 8 ... ... ... : ... .. . ... : ... .. C ... : ... .. . ... ... : ... .. . ... ... : ... .. . ... ... : ... .. . ... ...
ROW BA : ... .. D ... ... ... : ... .. . ... ... ... : ... .. . ... : ... .. 6 ... : ... .. . ... ... : ... .. . ... ... : ... .. . ... ... : ... .. . ... ...
ROW BB : ... .. 8 ... ... ... : ... .. 7 ... ... ... : ... .. . ... : A-# 00 F ... : ... .. . ... ... : ... .. . ... ... : ... .. . ... ... : ... .. . ... ...
ROW BC : ... .. . ... ... ... : ... .. 5 ... ... ... : ... .. . ... : ... .. . ... : ... .. . ... ... : ... .. . ... ... : ... .. . ... ... : ... .. . ... ...
ROW BD : ... .. . ... ... ... : ... .. . ... ... ... : --- .. . ... : ... .. . ... : ... .. . ... ... : ... .. . ... ... : ... .. . ... ... : ... .. . ... ...
ROW BE : ... .. 6 ... ... ... : C-4 00 9 ... ... ... : ... .. . ... : ... .. D ... : ... .. . ... ... : ... .. . ... ... : ... .. . ... ... : ... .. . ... ...
ROW BF : ... .. . ... ... ... : ... .. 8 ... ... ... : ... .. . ... : ... .. . ... : ... .. . ... ... : ... .. . ... ... : ... .. . ... ... : ... .. . ... ...
ROW C0 : ... .. . ... ... ... : ... .. . ... ... ... : G-2 00 . ... : ... .. . ... : ... .. . ... ... : ... .. . ... ... : ... .. . ... ... : ... .. . ... ...
ROW C1 : ... .. 4 ... ... ... : ... .. 7 ... ... ... : ... .. . ... : ... .. C ... : ... .. . ... ... : ... .. . ... ... : ... .. . ... ... : ... .. . ... ...
ROW C2 : ... .. . ... ... ... : ... .. 5 ... ... ... : ... .. . ... : ... .. . ... : ... .. . ... ... : ... .. . ... ... : ... .. . ... ... : ... .. . ... ...
ROW C3 : ... .. . ... ... ... : ... .. . ... ... ... : ... .. . ... : ... .. . ... : ... .. . ... ... : ... .. . ... ... : ... .. . ... ... : ... .. . ... ...
ROW C4 : ... .. 2 ... ... ... : C#4 00 9 ... ... ... : --- .. . ... : ... .. B ... : ... .. . ... ... : ... .. . ... ... : ... .. . ... ... : ... .. 2 ... ...
ROW C5 : ... .. . ... ... ... : ... .. 8 ... ... ... : ... .. . ... : ... .. . ... : ... .. . ... ... : ... .. . ... ... : ... .. . ... ... : ... .. . ... ...
ROW C6 : ... .. . ... ... ... : ... .. . ... ... ... : ... .. . ... : ... .. . ... : ... .. . ... ... : ... .. . ... ... : ... .. . ... ... : ... .. . ... ...
ROW C7 : ... .. 3 ... ... ... : ... .. 7 ... ... ... : ... .. . ... : ... .. A ... : ... .. . ... ... : ... .. . ... ... : ... .. . ... ... : ... .. . ... ...
ROW C8 : ... .. . ... ... ... : ... .. 5 ... ... ... : B-2 00 . ... : ... .. . ... : ... .. . ... ... : ... .. . ... ... : ... .. . ... ... : ... .. . ... ...
ROW C9 : ... .. . ... ... ... : ... .. . ... ... ... : ... .. . ... : ... .. . ... : ... .. . ... ... : ... .. . ... ... : ... .. . ... ... : ... .. . ... ...
ROW CA : ... .. 4 ... ... ... : D#4 00 9 ... ... ... : ... .. . ... : ... .. 9 ... : ... .. . ... ... : ... .. . ... ... : ... .. . ... ... : ... .. . ... ...
ROW CB : ... .. . ... ... ... : ... .. 8 ... ... ... : ... .. . ... : ... .. . ... : ... .. . ... ... : ... .. . ... ... : ... .. . ... ... : ... .. . ... ...
ROW CC : ... .. . ... ... ... : ... .. . ... ... ... : ... .. . ... : ... .. . ... : ... .. . ... ... : ... .. . ... ... : ... .. . ... ... : ... .. . ... ...
ROW CD : ... .. 5 ... ... ... : ... .. 7 ... ... ... : --- .. . ... : ... .. 8 ... : ... .. . ... ... : ... .. . ... ... : ... .. . ... ... : ... .. . ... ...
ROW CE : ... .. . ... ... ... : ... .. 5 ... ... ... : ... .. . ... : ... .. . ... : ... .. . ... ... : ... .. . ... ... : ... .. . ... ... : ... .. . ... ...
ROW CF : ... .. . ... ... ... : ... .. . ... ... ... : ... .. . ... : ... .. . ... : ... .. . ... ... : ... .. . ... ... : ... .. . ... ... : ... .. . ... ...
ROW D0 : ... .. 6 ... ... ... : C#4 00 9 ... ... ... : F-3 00 . ... : ... .. 7 ... : ... .. . ... ... : G#3 01 4 ... ... : F-4 01 4 ... ... : C#4 01 6 ... ...
ROW D1 : ... .. . ... ... ... : ... .. 8 ... ... ... : ... .. . ... : ... .. . ... : ... .. . ... ... : ... .. 3 ... ... : ... .. 3 ... ... : ... .. 5 ... ...
ROW D2 : ... .. . ... ... ... : ... .. . ... ... ... : ... .. . ... : ... .. . ... : ... .. . ... ... : ... .. . ... ... : ... .. . ... ... : ... .. 3 ... ...
ROW D3 : ... .. . ... ... ... : ... .. 7 ... ... ... : ... .. . ... : ... .. 6 ... : ... .. . ... ... : ... .. . ... ... : ... .. . ... ... : ... .. . ... ...
ROW D4 : ... .. . ... ... ... : ... .. 5 ... ... ... : ... .. . ... : ... .. . ... : ... .. . ... ... : ... .. . ... ... : ... .. . ... ... : ... .. . ... ...
ROW D5 : ... .. . ... ... ... : ... .. . ... ... ... : --- .. . ... : ... .. . ... : ... .. . ... ... : ... .. 2 ... ... : ... .. 2 ... ... : ... .. . ... ...
ROW D6 : ... .. 8 ... ... ... : D#4 00 9 ... ... ... : ... .. . ... : ... .. 5 ... : ... .. . ... ... : ... .. . ... ... : ... .. . ... ... : ... .. . ... ...
ROW D7 : ... .. . ... ... ... : ... .. 8 ... ... ... : ... .. . ... : ... .. . ... : ... .. . ... ... : ... .. . ... ... : ... .. . ... ... : ... .. . ... ...
ROW D8 : ... .. . ... ... ... : ... .. . ... ... ... : D#3 00 . ... : ... .. . ... : ... .. . ... ... : ... .. . ... ... : ... .. . ... ... : ... .. . ... ...
ROW D9 : ... .. . ... ... ... : ... .. 7 ... ... ... : ... .. . ... : ... .. 4 ... : ... .. . ... ... : ... .. . ... ... : ... .. . ... ... : ... .. 4 ... ...
ROW DA : ... .. . ... ... ... : ... .. 5 ... ... ... : ... .. . ... : ... .. . ... : ... .. . ... ... : ... .. . ... ... : ... .. . ... ... : ... .. . ... ...
ROW DB : ... .. . ... ... ... : ... .. . ... ... ... : ... .. . ... : ... .. . ... : ... .. . ... ... : ... .. . ... ... : ... .. . ... ... : ... .. . ... ...
ROW DC : F-5 00 D ... ... ... : F-4 00 9 ... ... ... : --- .. . ... : ... .. . ... : ... .. . ... ... : ... .. . ... ... : ... .. . ... ... : ... .. . ... ...
ROW DD : ... .. A ... ... ... : ... .. 8 ... ... ... : ... .. . ... : ... .. . ... : ... .. . ... ... : ... .. . ... ... : ... .. . ... ... : ... .. . ... ...
ROW DE : ... .. 7 ... ... ... : ... .. . ... ... ... : ... .. . ... : ... .. . ... : ... .. . ... ... : ... .. . ... ... : ... .. . ... ... : ... .. . ... ...
ROW DF : ... .. 4 ... ... ... : ... .. 7 ... ... ... : ... .. . ... : ... .. . ... : ... .. . ... ... : ... .. 3 ... ... : ... .. 3 ... ... : ... .. . ... ...
ROW E0 : ... .. D ... ... ... : ... .. 5 ... ... ... : G#3 00 . ... : ... .. . ... : ... .. . ... ... : ... .. . ... ... : ... .. . ... ... : ... .. . ... ...
ROW E1 : ... .. A ... ... ... : ... .. . ... ... ... : ... .. . ... : ... .. . ... : ... .. . ... ... : ... .. . ... ... : ... .. . ... ... : ... .. . ... ...
ROW E2 : ... .. 7 ... ... ... : G-4 00 9 ... ... ... : ... .. . ... : ... .. . ... : ... .. . ... ... : ... .. . ... ... : ... .. . ... ... : ... .. . ... ...
ROW E3 : ... .. 4 ... ... ... : ... .. 8 ... ... ... : ... .. . ... : ... .. . ... : ... .. . ... ... : ... .. . ... ... : ... .. . ... ... : ... .. . ... ...
ROW E4 : ... .. D ... ... ... : ... .. . ... ... ... : ... .. . ... : ... .. . ... : ... .. . ... ... : ... .. . ... ... : ... .. . ... ... : ... .. . ... ...
ROW E5 : ... .. A ... ... ... : ... .. 7 ... ... ... : --- .. . ... : ... .. . ... : ... .. . ... ... : ... .. . ... ... : ... .. . ... ... : ... .. 5 ... ...
ROW E6 : ... .. 7 ... ... ... : ... .. 5 ... ... ... : ... .. . ... : ... .. . ... : ... .. . ... ... : ... .. . ... ... : ... .. . ... ... : ... .. . ... ...
ROW E7 : ... .. 4 ... ... ... : ... .. . ... ... ... : ... .. . ... : ... .. . ... : ... .. . ... ... : ... .. . ... ... : ... .. . ... ... : ... .. . ... ...
ROW E8 : ... .. F ... ... ... : F-4 00 9 ... ... ... : G#3 00 . ... : 7-# 00 F ... : ... .. . ... ... : ... .. . ... ... : ... .. . ... ... : ... .. . ... ...
ROW E9 : ... .. E ... ... ... : ... .. 8 ... ... ... : A#2 00 . ... : ... .. C ... : ... .. . ... ... : ... .. . ... ... : ... .. . ... ... : ... .. . ... ...
ROW EA : ... .. D ... ... ... : ... .. . ... ... ... : D#2 00 . ... : ... .. 6 ... : ... .. . ... ... : ... .. . ... ... : ... .. . ... ... : ... .. . ... ...
ROW EB : ... .. 8 ... ... ... : ... .. 7 ... ... ... : D-2 00 . ... : ... .. 3 ... : ... .. . ... ... : ... .. . ... ... : ... .. . ... ... : ... .. . ... ...
ROW EC : ... .. . ... ... ... : ... .. 5 ... ... ... : A-1 00 . ... : ... .. 2 ... : ... .. . ... ... : ... .. . ... ... : ... .. . ... ... : ... .. . ... ...
ROW ED : ... .. . ... ... ... : ... .. . ... ... ... : ... .. . ... : ... .. 0 ... : ... .. . ... ... : ... .. . ... ... : ... .. . ... ... : ... .. . ... ...
ROW EE : ... .. 7 ... ... ... : G-4 00 9 ... ... ... : ... .. . ... : ... .. . ... : ... .. . ... ... : ... .. 4 ... ... : ... .. 4 ... ... : ... .. 6 ... ...
ROW EF : ... .. . ... ... ... : ... .. 8 ... ... ... : ... .. . ... : ... .. . ... : ... .. . ... ... : ... .. . ... ... : ... .. . ... ... : ... .. . ... ...
ROW F0 : ... .. . ... ... ... : ... .. . ... ... ... : ... .. . ... : ... .. F ... : ... .. . ... ... : ... .. . ... ... : ... .. . ... ... : ... .. . ... ...
ROW F1 : ... .. 6 ... ... ... : ... .. 7 ... ... ... : ... .. . ... : ... .. C ... : ... .. . ... ... : ... .. . ... ... : ... .. . ... ... : ... .. . ... ...
ROW F2 : ... .. . ... ... ... : ... .. 5 ... ... ... : ... .. . ... : ... .. 6 ... : ... .. . ... ... : ... .. . ... ... : ... .. . ... ... : ... .. . ... ...
ROW F3 : ... .. . ... ... ... : ... .. . ... ... ... : ... .. . ... : ... .. 3 ... : ... .. . ... ... : ... .. . ... ... : ... .. . ... ... : ... .. . ... ...
ROW F4 : ... .. 5 ... ... ... : A-4 00 9 ... ... ... : A#1 00 . P77 : ... .. 2 ... : ... .. . ... ... : ... .. . ... ... : ... .. . ... ... : ... .. . ... ...
ROW F5 : ... .. . ... ... ... : ... .. 8 ... ... ... : B-1 00 . P71 : ... .. 0 ... : ... .. . ... ... : ... .. . ... ... : ... .. . ... ... : ... .. . ... ...
ROW F6 : ... .. . ... ... ... : ... .. . ... ... ... : C-2 00 . P6E : ... .. . ... : ... .. . ... ... : ... .. . ... ... : ... .. . ... ... : ... .. . ... ...
ROW F7 : ... .. 4 ... ... ... : ... .. 7 ... ... ... : C#2 00 . ... : ... .. . ... : ... .. . ... ... : ... .. . ... ... : ... .. . ... ... : ... .. . ... ...
ROW F8 : ... .. . ... ... ... : ... .. 5 ... ... ... : D-2 00 . P71 : ... .. F ... : ... .. . ... ... : ... .. . ... ... : ... .. . ... ... : ... .. . ... ...
ROW F9 : ... .. . ... ... ... : ... .. . ... ... ... : D#2 00 . P76 : ... .. C ... : ... .. . ... ... : ... .. . ... ... : ... .. . ... ... : ... .. . ... ...
ROW FA : ... .. 3 ... ... ... : B-4 00 9 ... ... ... : E-2 00 . P7E : ... .. 6 ... : ... .. . ... ... : ... .. . ... ... : ... .. . ... ... : ... .. . ... ...
ROW FB : ... .. . ... ... ... : ... .. 8 ... ... ... : F-2 00 . P88 : ... .. 3 ... : ... .. . ... ... : ... .. . ... ... : ... .. . ... ... : ... .. 3 ... ...
ROW FC : ... .. . ... ... ... : ... .. . ... ... ... : G-2 00 . P72 : ... .. 2 ... : ... .. . ... ... : ... .. 2 ... ... : ... .. 2 ... ... : ... .. . ... ...
ROW FD : ... .. 2 ... ... ... : ... .. 7 ... ... ... : G#2 00 . P82 : ... .. 0 ... : ... .. . ... ... : ... .. 3 ... ... : ... .. 3 ... ... : ... .. 1 ... ...
ROW FE : ... .. . ... ... ... : ... .. 5 ... ... ... : A#2 00 . P77 : ... .. . ... : ... .. . ... ... : ... .. . ... ... : ... .. . ... ... : ... .. . ... ...
ROW FF : ... .. . ... ... ... : ... .. . ... ... ... : B-2 00 . P8C : ... .. . ... : ... .. . ... ... : ... .. . ... ... : ... .. . ... ... : ... .. . ... ...

PATTERN 03
ROW 00 : F#3 00 D ... ... ... : C#5 00 9 ... ... ... : F-5 00 . P80 : 9-# 00 F ... : ... .. . ... ... : C#4 01 8 ... ... : F#4 01 8 ... ... : F#2 01 7 ... ...
ROW 01 : ... .. B ... ... ... : ... .. 8 ... ... ... : G-4 00 . ... : ... .. C ... : ... .. . ... ... : ... .. 7 ... ... : ... .. 7 ... ... : ... .. 9 ... ...
ROW 02 : ... .. . ... ... ... : ... .. . ... ... ... : C-4 00 . ... : ... .. 6 ... : ... .. . ... ... : ... .. 6 ... ... : ... .. 6 ... ... : ... .. . ... ...
ROW 03 : ... .. A ... ... ... : ... .. 7 ... ... ... : B-3 00 . ... : ... .. 3 ... : ... .. . ... ... : ... .. 5 ... ... : ... .. 5 ... ... : ... .. 6 ... ...
ROW 04 : ... .. 8 ... ... ... : ... .. 5 ... ... ... : F#3 00 . ... : ... .. 2 ... : ... .. . ... ... : ... .. . ... ... : ... .. . ... ... : ... .. . ... ...
ROW 05 : ... .. 7 ... ... ... : ... .. . ... ... ... : ... .. . ... : ... .. 0 ... : ... .. . ... ... : ... .. 4 ... ... : ... .. 4 ... ... : ... .. . ... ...
ROW 06 : ... .. 6 ... ... ... : ... .. 4 ... ... ... : E-3 00 . P85 : 2-# 00 F ... : ... .. . ... ... : ... .. . ... ... : ... .. . ... ... : ... .. 5 ... ...
ROW 07 : ... .. . ... ... ... : ... .. . ... ... ... : D#3 00 . P7A : ... .. C ... : ... .. . ... ... : ... .. . ... ... : ... .. . ... ... : ... .. . ... ...
ROW 08 : ... .. 5 ... ... ... : ... .. 3 ... ... ... : C#3 00 . P86 : ... .. 6 ... : ... .. . ... ... : ... .. . ... ... : ... .. . ... ... : ... .. . ... ...
ROW 09 : ... .. . ... ... ... : ... .. . ... ... ... : C-3 00 . P7E : ... .. 3 ... : ... .. . ... ... : --- .. . ... ... : --- .. . ... ... : ... .. 4 ... ...
ROW 0A : ... .. 4 ... ... ... : ... .. 2 ... ... ... : B-2 00 . P77 : ... .. 2 ... : ... .. . ... ... : ... .. . ... ... : ... .. . ... ... : ... .. . ... ...
ROW 0B : ... .. . ... ... ... : ... .. . ... ... ... : --- .. . ... : ... .. 0 ... : ... .. . ... ... : ... .. . ... ... : ... .. . ... ... : ... .. . ... ...
ROW 0C : C#5 00 5 ... ... ... : C#3 00 3 ... ... ... : E-2 00 . P80 : 1-# 00 F ... : ... .. . ... ... : C#4 01 6 ... ... : F#4 01 6 ... ... : ... .. 3 ... ...
ROW 0D : ... .. 4 ... ... ... : ... .. 2 ... ... ... : ... .. . ... : ... .. C ... : ... .. . ... ... : ... .. 4 ... ... : ... .. 4 ... ... : ... .. . ... ...
ROW 0E : ... .. . ... ... ... : ... .. . ... ... ... : ... .. . ... : ... .. 6 ... : ... .. . ... ... : ... .. 3 ... ... : ... .. 3 ... ... : ... .. . ... ...
ROW 0F : ... .. . ... ... ... : ... .. . ... ... ... : ... .. . ... : ... .. 3 ... : ... .. . ... ... : ... .. 1 ... ... : ... .. 1 ... ... : ... .. 2 ... ...
ROW 10 : ... .. 3 ... ... ... : B-2 00 3 ... ... ... : ... .. . ... : ... .. 2 ... : ... .. . ... ... : ... .. 6 ... ... : ... .. 6 ... ... : ... .. . ... ...
ROW 11 : ... .. 2 ... ... ... : ... .. 2 ... ... ... : --- .. . ... : ... .. 0 ... : ... .. . ... ... : ... .. 4 ... ... : ... .. 4 ... ... : ... .. . ... ...
ROW 12 : ... .. . ... ... ... : ... .. . ... ... ... : F#2 00 . ... : C-# 00 F ... : ... .. . ... ... : ... .. 3 ... ... : ... .. 3 ... ... : ... .. 1 ... ...
ROW 13 : ... .. . ... ... ... : ... .. . ... ... ... : ... .. . ... : ... .. C ... : ... .. . ... ... : ... .. 1 ... ... : ... .. 1 ... ... : ... .. . ... ...
ROW 14 : ... .. . ... ... ... : A-2 00 3 ... ... ... : ... .. . ... : ... .. 6 ... : ... .. . ... ... : ... .. 6 ... ... : ... .. 6 ... ... : ... .. . ... ...
ROW 15 : ... .. . ... ... ... : ... .. 2 ... ... ... : ... .. . ... : ... .. 3 ... : ... .. . ... ... : ... .. 4 ... ... : ... .. 4 ... ... : ... .. . ... ...
ROW 16 : ... .. 1 ... ... ... : ... .. . ... ... ... : ... .. . ... : ... .. 2 ... : ... .. . ... ... : ... .. 3 ... ... : ... .. 3 ... ... : ... .. . ... ...
ROW 17 : ... .. . ... ... ... : ... .. . ... ... ... : --- .. . ... : ... .. 0 ... : ... .. . ... ... : ... .. 1 ... ... : ... .. 1 ... ... : ... .. . ... ...
ROW 18 : F#2 00 F ... ... ... : G-2 00 4 ... ... ... : F-4 00 . ... : 7-# 00 F ... : ... .. . ... ... : ... .. 8 ... ... : ... .. 8 ... ... : F#1 01 F ... ...
ROW 19 : ... .. E ... ... ... : ... .. 3 ... ... ... : G-3 00 . ... : ... .. C ... : ... .. . ... ... : ... .. 7 ... ... : ... .. 7 ... ... : ... .. D ... ...
ROW 1A : ... .. D ... ... ... : ... .. . ... ... ... : C-3 00 . ... : ... .. 6 ... : ... .. . ... ... : ... .. 6 ... ... : ... .. 6 ... ... : ... .. 8 ... ...
ROW 1B : ... .. A ... ... ... : ... .. . ... ... ... : B-2 00 . ... : ... .. 3 ... : ... .. . ... ... : ... .. 5 ... ... : ... .. 5 ... ... : ... .. . ... ...
ROW 1C : ... .. . ... ... ... : F#2 00 4 ... ... ... : F#2 00 . ... : ... .. 2 ... : ... .. . ... ... : ... .. . ... ... : ... .. . ... ... : ... .. . ... ...
ROW 1D : ... .. . ... ... ... : ... .. 3 ... ... ... : --- .. . ... : ... .. 0 ... : ... .. . ... ... : --- .. . ... ... : --- .. . ... ... : ... .. . ... ...
ROW 1E : ... .. . ... ... ... : ... .. . ... ... ... : F#3 00 . ... : 1-# 00 F ... : ... .. . ... ... : ... .. . ... ... : ... .. . ... ... : ... .. . ... ...
ROW 1F : ... .. . ... ... ... : ... .. . ... ... ... : ... .. . ... : ... .. C ... : ... .. . ... ... : ... .. . ... ... : ... .. . ... ... : ... .. . ... ...
ROW 20 : ... .. . ... ... ... : G-2 00 4 ... ... ... : ... .. . ... : ... .. 6 ... : ... .. . ... ... : C#4 01 8 ... ... : F#4 01 8 ... ... : ... .. . ... ...
ROW 21 : ... .. . ... ... ... : ... .. 3 ... ... ... : ... .. . ... : ... .. 3 ... : ... .. . ... ... : ... .. 7 ... ... : ... .. 7 ... ... : ... .. . ... ...
ROW 22 : ... .. . ... ... ... : ... .. . ... ... ... : ... .. . ... : ... .. 2 ... : ... .. . ... ... : ... .. 6 ... ... : ... .. 6 ... ... : ... .. . ... ...
ROW 23 : ... .. . ... ... ... : ... .. . ... ... ... : --- .. . ... : ... .. 0 ... : ... .. . ... ... : ... .. 5 ... ... : ... .. 5 ... ... : ... .. . ... ...
ROW 24 : ... .. . ... ... ... : A-2 00 5 ... ... ... : E-3 00 . ... : C-# 00 F ... : ... .. . ... ... : --- .. . ... ... : --- .. . ... ... : ... .. . ... ...
ROW 25 : ... .. . ... ... ... : ... .. 4 ... ... ... : ... .. . ... : ... .. C ... : ... .. . ... ... : ... .. . ... ... : ... .. . ... ... : ... .. . ... ...
ROW 26 : ... .. . ... ... ... : ... .. . ... ... ... : ... .. . ... : ... .. 6 ... : ... .. . ... ... : ... .. . ... ... : ... .. . ... ... : ... .. . ... ...
ROW 27 : ... .. . ... ... ... : ... .. . ... ... ... : ... .. . ... : ... .. 3 ... : ... .. . ... ... : ... .. . ... ... : ... .. . ... ... : ... .. . ... ...
ROW 28 : ... .. . ... ... ... : B-2 00 5 ... ... ... : ... .. . ... : ... .. 2 ... : ... .. . ... ... : C#4 01 8 ... ... : F#4 01 8 ... ... : ... .. . ... ...
ROW 29 : ... .. . ... ... ... : ... .. 4 ... ... ... : --- .. . ... : ... .. 0 ... : ... .. . ... ... : ... .. 7 ... ... : ... .. 7 ... ... : ... .. . ... ...
ROW 2A : ... .. . ... ... ... : ... .. . ... ... ... : F#3 00 . ... : 7-# 00 F ... : ... .. . ... ... : ... .. 6 ... ... : ... .. 6 ... ... : ... .. . ... ...
ROW 2B : ... .. 2 ... ... ... : ... .. . ... ... ... : ... .. . ... : ... .. C ... : ... .. . ... ... : ... .. 5 ... ... : ... .. 5 ... ... : ... .. 4 ... ...
ROW 2C : ... .. . ... ... ... : C#3 00 5 ... ... ... : ... .. . ... : ... .. 6 ... : ... .. . ... ... : ... .. . ... ... : ... .. . ... ... : ... .. . ... ...
ROW 2D : ... .. . ... ... ... : ... .. . ... ... ... : ... .. . ... : ... .. 3 ... : ... .. . ... ... : --- .. . ... ... : --- .. . ... ... : ... .. 1 ... ...
ROW 2E : ... .. 1 ... ... ... : ... .. . ... ... ... : ... .. . ... : ... .. 2 ... : ... .. . ... ... : ... .. . ... ... : ... .. . ... ... : ... .. . ... ...
ROW 2F : ... .. . ... ... ... : ... .. 4 ... ... ... : --- .. . ... : ... .. 0 ... : ... .. . ... ... : ... .. . ... ... : ... .. . ... ... : ... .. . ... ...
ROW 30 : C#3 00 F ... ... ... : D-3 00 6 ... ... ... : F-5 00 . ... : 1-# 00 F ... : ... .. . ... ... : C#3 01 8 ... ... : F#3 01 8 ... ... : C#2 01 F ... ...
ROW 31 : ... .. E ... ... ... : ... .. 5 ... ... ... : G-4 00 . ... : ... .. C ... : ... .. . ... ... : ... .. 7 ... ... : ... .. 7 ... ... : ... .. D ... ...
ROW 32 : ... .. D ... ... ... : ... .. . ... ... ... : C-4 00 . ... : ... .. 6 ... : ... .. . ... ... : ... .. 6 ... ... : ... .. 6 ... ... : ... .. 8 ... ...
ROW 33 : ... .. A ... ... ... : ... .. 4 ... ... ... : B-3 00 . ... : ... .. 3 ... : ... .. . ... ... : ... .. 5 ... ... : ... .. 5 ... ... : ... .. . ... ...
ROW 34 : ... .. . ... ... ... : C#3 00 6 ... ... ... : F#3 00 . ... : ... .. 2 ... : ... .. . ... ... : ... .. . ... ... : ... .. . ... ... : ... .. . ... ...
ROW 35 : ... .. . ... ... ... : ... .. 5 ... ... ... : ... .. . ... : ... .. 0 ... : ... .. . ... ... : --- .. . P83 ... : --- .. . P7F ... : ... .. . ... ...
ROW 36 : ... .. . ... ... ... : ... .. . ... ... ... : E-3 00 . P85 : B-# 00 F ... : ... .. . ... ... : ... .. . ... ... : ... .. . ... ... : ... .. . ... ...
ROW 37 : ... .. . ... ... ... : ... .. 4 ... ... ... : D#3 00 . P7A : ... .. C ... : ... .. . ... ... : ... .. . ... ... : ... .. . ... ... : ... .. . ... ...
ROW 38 : ... .. . ... ... ... : B-2 00 6 ... ... ... : C#3 00 . P86 : ... .. 6 ... : ... .. . ... ... : C#3 01 8 P80 ... : F#3 01 8 P80 ... : ... .. . ... ...
ROW 39 : ... .. . ... ... ... : ... .. 5 ... ... ... : C-3 00 . P7E : ... .. 3 ... : ... .. . ... ... : ... .. 7 ... ... : ... .. 7 ... ... : ... .. . ... ...
ROW 3A : ... .. . ... ... ... : ... .. . ... ... ... : B-2 00 . P77 : ... .. 2 ... : ... .. . ... ... : ... .. 6 ... ... : ... .. 6 ... ... : ... .. . ... ...
ROW 3B : ... .. . ... ... ... : ... .. . ... ... ... : --- .. . ... : ... .. 0 ... : ... .. . ... ... : ... .. 5 ... ... : ... .. 5 ... ... : ... .. . ... ...
ROW 3C : ... .. . ... ... ... : A-2 00 6 ... ... ... : E-2 00 . P80 : 7-# 00 F ... : ... .. . ... ... : --- .. . P83 ... : --- .. . P7F ... : ... .. . ... ...
ROW 3D : ... .. . ... ... ... : ... .. 5 ... ... ... : ... .. . ... : ... .. C ... : ... .. . ... ... : ... .. . ... ... : ... .. . ... ... : ... .. . ... ...
ROW 3E : ... .. . ... ... ... : ... .. . ... ... ... : ... .. . ... : ... .. 6 ... : ... .. . ... ... : ... .. . ... ... : ... .. . ... ... : ... .. . ... ...
ROW 3F : ... .. . ... ... ... : ... .. . ... ... ... : ... .. . ... : ... .. 3 ... : ... .. . ... ... : ... .. . ... ... : ... .. . ... ... : ... .. . ... ...
ROW 40 : ... .. . ... ... ... : G-2 00 6 ... ... ... : ... .. . ... : ... .. 2 ... : ... .. . ... ... : C#3 01 8 P80 ... : F#3 01 8 P80 ... : ... .. . ... ...
ROW 41 : ... .. . ... ... ... : ... .. 5 ... ... ... : --- .. . ... : ... .. 0 ... : ... .. . ... ... : ... .. 7 ... ... : ... .. 7 ... ... : ... .. . ... ...
ROW 42 : ... .. . ... ... ... : ... .. . ... ... ... : F#2 00 . ... : 1-# 00 F ... : ... .. . ... ... : ... .. 6 ... ... : ... .. 6 ... ... : ... .. . ... ...
ROW 43 : ... .. 2 ... ... ... : ... .. . ... ... ... : ... .. . ... : ... .. C ... : ... .. . ... ... : ... .. 5 ... ... : ... .. 5 ... ... : ... .. 4 ... ...
ROW 44 : ... .. . ... ... ... : F#2 00 6 ... ... ... : ... .. . ... : ... .. 6 ... : ... .. . ... ... : ... .. . ... ... : ... .. . ... ... : ... .. . ... ...
ROW 45 : ... .. . ... ... ... : ... .. . ... ... ... : ... .. . ... : ... .. 3 ... : ... .. . ... ... : --- .. . P83 ... : --- .. . P7F ... : ... .. 1 ... ...
ROW 46 : ... .. 1 ... ... ... : ... .. . ... ... ... : ... .. . ... : ... .. 2 ... : ... .. . ... ... : ... .. . ... ... : ... .. . ... ... : ... .. . ... ...
ROW 47 : ... .. . ... ... ... : ... .. . ... ... ... : --- .. . ... : ... .. 0 ... : ... .. . ... ... : ... .. . ... ... : ... .. . ... ... : ... .. . ... ...
ROW 48 : F#2 00 F ... ... ... : G-2 00 7 ... ... ... : F-4 00 . ... : 9-# 00 F ... : ... .. . ... ... : C#4 01 8 P80 ... : A-4 01 8 P80 ... : F#1 01 F ... ...
ROW 49 : ... .. E ... ... ... : ... .. 6 ... ... ... : G-3 00 . ... : ... .. C ... : ... .. . ... ... : ... .. 7 ... ... : ... .. 7 ... ... : ... .. D ... ...
ROW 4A : ... .. D ... ... ... : ... .. . ... ... ... : C-3 00 . ... : ... .. 6 ... : ... .. . ... ... : ... .. 6 ... ... : ... .. 6 ... ... : ... .. 8 ... ...
ROW 4B : ... .. A ... ... ... : ... .. . ... ... ... : B-2 00 . ... : ... .. 3 ... : ... .. . ... ... : ... .. 5 ... ... : ... .. 5 ... ... : ... .. . ... ...
ROW 4C : ... .. . ... ... ... : A-2 00 7 ... ... ... : F#2 00 . ... : ... .. 2 ... : ... .. . ... ... : ... .. . ... ... : ... .. . ... ... : ... .. . ... ...
ROW 4D : ... .. . ... ... ... : ... .. 6 ... ... ... : --- .. . ... : ... .. 0 ... : ... .. . ... ... : --- .. . ... ... : --- .. . ... ... : ... .. . ... ...
ROW 4E : ... .. . ... ... ... : ... .. . ... ... ... : F#3 00 . ... : ... .. F ... : ... .. . ... ... : ... .. . ... ... : ... .. . ... ... : ... .. . ... ...
ROW 4F : ... .. . ... ... ... : ... .. . ... ... ... : ... .. . ... : ... .. C ... : ... .. . ... ... : ... .. . ... ... : ... .. . ... ... : ... .. . ... ...
ROW 50 : ... .. . ... ... ... : B-2 00 8 ... ... ... : ... .. . ... : ... .. 6 ... : ... .. . ... ... : C#4 01 8 ... ... : A-4 01 8 ... ... : ... .. . ... ...
ROW 51 : ... .. . ... ... ... : ... .. 7 ... ... ... : ... .. . ... : ... .. 3 ... : ... .. . ... ... : ... .. 7 ... ... : ... .. 7 ... ... : ... .. . ... ...
ROW 52 : ... .. 2 ... ... ... : ... .. . ... ... ... : ... .. . ... : ... .. 2 ... : ... .. . ... ... : ... .. 6 ... ... : ... .. 6 ... ... : ... .. 4 ... ...
ROW 53 : ... .. . ... ... ... : ... .. 6 ... ... ... : --- .. . ... : ... .. 0 ... : ... .. . ... ... : ... .. 5 ... ... : ... .. 5 ... ... : ... .. . ... ...
ROW 54 : E-3 00 F ... ... ... : C#3 00 8 ... ... ... : E-3 00 . ... : 7-# 00 F ... : ... .. . ... ... : --- .. . ... ... : --- .. . ... ... : E-2 01 F ... ...
ROW 55 : ... .. E ... ... ... : ... .. 7 ... ... ... : ... .. . ... : ... .. C ... : ... .. . ... ... : ... .. . ... ... : ... .. . ... ... : ... .. D ... ...
ROW 56 : ... .. D ... ... ... : ... .. . ... ... ... : ... .. . ... : ... .. 6 ... : ... .. . ... ... : ... .. . ... ... : ... .. . ... ... : ... .. 8 ... ...
ROW 57 : ... .. A ... ... ... : ... .. 6 ... ... ... : ... .. . ... : ... .. 3 ... : ... .. . ... ... : ... .. . ... ... : ... .. . ... ... : ... .. . ... ...
ROW 58 : ... .. . ... ... ... : D-3 00 8 ... ... ... : ... .. . ... : ... .. 2 ... : ... .. . ... ... : C#4 01 8 ... ... : A-4 01 8 ... ... : ... .. . ... ...
ROW 59 : ... .. . ... ... ... : ... .. 7 ... ... ... : --- .. . ... : ... .. 0 ... : ... .. . ... ... : ... .. 7 ... ... : ... .. 7 ... ... : ... .. . ... ...
ROW 5A : ... .. . ... ... ... : ... .. . ... ... ... : F#3 00 . ... : ... .. F ... : ... .. . ... ... : ... .. 6 ... ... : ... .. 6 ... ... : ... .. . ... ...
ROW 5B : ... .. . ... ... ... : ... .. 6 ... ... ... : ... .. . ... : ... .. C ... : ... .. . ... ... : ... .. 5 ... ... : ... .. 5 ... ... : ... .. . ... ...
ROW 5C : ... .. . ... ... ... : E-3 00 9 ... ... ... : ... .. . ... : ... .. 6 ... : ... .. . ... ... : ... .. . ... ... : ... .. . ... ... : ... .. . ... ...
ROW 5D : ... .. . ... ... ... : ... .. 8 ... ... ... : ... .. . ... : ... .. 3 ... : ... .. . ... ... : --- .. . ... ... : --- .. . ... ... : ... .. . ... ...
ROW 5E : ... .. 2 ... ... ... : ... .. . ... ... ... : ... .. . ... : ... .. 2 ... : ... .. . ... ... : ... .. . ... ... : ... .. . ... ... : ... .. 4 ... ...
ROW 5F : ... .. . ... ... ... : ... .. 7 ... ... ... : --- .. . ... : ... .. 0 ... : ... .. . ... ... : ... .. . ... ... : ... .. . ... ... : ... .. . ... ...
ROW 60 : D-3 00 F ... ... ... : F#3 00 9 ... ... ... : F-4 00 . ... : 9-# 00 F ... : ... .. . ... ... : D-4 01 8 ... ... : G-4 01 8 ... ... : D-2 01 F ... ...
ROW 61 : ... .. E ... ... ... : ... .. 8 ... ... ... : G-3 00 . ... : ... .. C ... : ... .. . ... ... : ... .. 7 ... ... : ... .. 7 ... ... : ... .. D ... ...
ROW 62 : ... .. D ... ... ... : ... .. . ... ... ... : C-3 00 . ... : ... .. 6 ... : ... .. . ... ... : ... .. 6 ... ... : ... .. 6 ... ... : ... .. 8 ... ...
ROW 63 : ... .. A ... ... ... : ... .. 7 ... ... ... : B-2 00 . ... : ... .. 3 ... : ... .. . ... ... : ... .. 5 ... ... : ... .. 5 ... ... : ... .. . ... ...
ROW 64 : ... .. . ... ... ... : E-3 00 9 ... ... ... : F#2 00 . ... : ... .. 2 ... : ... .. . ... ... : ... .. . ... ... : ... .. . ... ... : ... .. . ... ...
ROW 65 : ... .. . ... ... ... : ... .. 8 ... ... ... : ... .. . ... : ... .. 0 ... : ... .. . ... ... : ... .. 4 ... ... : ... .. 4 ... ... : ... .. . ... ...
ROW 66 : ... .. . ... ... ... : ... .. . ... ... ... : F-2 00 . P84 : 2-# 00 F ... : ... .. . ... ... : ... .. . ... ... : ... .. . ... ... : ... .. . ... ...
ROW 67 : ... .. . ... ... ... : ... .. 7 ... ... ... : E-2 00 . P8A : ... .. C ... : ... .. . ... ... : ... .. . ... ... : ... .. . ... ... : ... .. . ... ...
ROW 68 : ... .. . ... ... ... : D-3 00 A ... ... ... : D#2 00 . P92 : ... .. 6 ... : ... .. . ... ... : ... .. . ... ... : ... .. . ... ... : ... .. . ... ...
ROW 69 : ... .. . ... ... ... : ... .. 8 ... ... ... : ... .. . P72 : ... .. 3 ... : ... .. . ... ... : --- .. . ... ... : --- .. . ... ... : ... .. . ... ...
ROW 6A : ... .. . ... ... ... : ... .. . ... ... ... : D-2 00 . P7D : ... .. 2 ... : ... .. . ... ... : ... .. . ... ... : ... .. . ... ... : ... .. . ... ...
ROW 6B : ... .. . ... ... ... : ... .. . ... ... ... : --- .. . ... : ... .. 0 ... : ... .. . ... ... : ... .. . ... ... : ... .. . ... ... : ... .. . ... ...
ROW 6C : ... .. . ... ... ... : C#3 00 A ... ... ... : E-1 00 . P80 : 1-# 00 F ... : ... .. . ... ... : D-4 01 6 ... ... : G-4 01 6 ... ... : ... .. . ... ...
ROW 6D : ... .. . ... ... ... : ... .. 8 ... ... ... : ... .. . ... : ... .. C ... : ... .. . ... ... : ... .. 4 ... ... : ... .. 4 ... ... : ... .. . ... ...
ROW 6E : ... .. . ... ... ... : ... .. . ... ... ... : ... .. . ... : ... .. 6 ... : ... .. . ... ... : ... .. 3 ... ... : ... .. 3 ... ... : ... .. . ... ...
ROW 6F : ... .. . ... ... ... : ... .. . ... ... ... : ... .. . ... : ... .. 3 ... : ... .. . ... ... : ... .. 1 ... ... : ... .. 1 ... ... : ... .. . ... ...
ROW 70 : ... .. . ... ... ... : B-2 00 B ... ... ... : ... .. . ... : ... .. 2 ... : ... .. . ... ... : ... .. 6 ... ... : ... .. 6 ... ... : ... .. . ... ...
ROW 71 : ... .. . ... ... ... : ... .. 9 ... ... ... : --- .. . ... : ... .. 0 ... : ... .. . ... ... : ... .. 4 ... ... : ... .. 4 ... ... : ... .. . ... ...
ROW 72 : ... .. . ... ... ... : ... .. . ... ... ... : F#1 00 . ... : C-# 00 F ... : ... .. . ... ... : ... .. 3 ... ... : ... .. 3 ... ... : ... .. . ... ...
ROW 73 : ... .. . ... ... ... : ... .. 8 ... ... ... : ... .. . ... : ... .. C ... : ... .. . ... ... : ... .. 1 ... ... : ... .. 1 ... ... : ... .. . ... ...
ROW 74 : ... .. . ... ... ... : A-2 00 B ... ... ... : ... .. . ... : ... .. 6 ... : ... .. . ... ... : ... .. 6 ... ... : ... .. 6 ... ... : ... .. . ... ...
ROW 75 : ... .. . ... ... ... : ... .. 9 ... ... ... : ... .. . ... : ... .. 3 ... : ... .. . ... ... : ... .. 4 ... ... : ... .. 4 ... ... : ... .. . ... ...
ROW 76 : ... .. . ... ... ... : ... .. . ... ... ... : ... .. . ... : ... .. 2 ... : ... .. . ... ... : ... .. 3 ... ... : ... .. 3 ... ... : ... .. . ... ...
ROW 77 : ... .. . ... ... ... : ... .. 8 ... ... ... : --- .. . ... : ... .. 0 ... : ... .. . ... ... : ... .. 1 ... ... : ... .. 1 ... ... : ... .. . ... ...
ROW 78 : ... .. . ... ... ... : B-2 00 B ... ... ... : F-3 00 . ... : 7-# 00 F ... : ... .. . ... ... : ... .. 8 ... ... : ... .. 8 ... ... : ... .. . ... ...
ROW 79 : ... .. . ... ... ... : ... .. 9 ... ... ... : G-2 00 . ... : ... .. C ... : ... .. . ... ... : ... .. 7 ... ... : ... .. 7 ... ... : ... .. . ... ...
ROW 7A : ... .. . ... ... ... : ... .. . ... ... ... : C-2 00 . ... : ... .. 6 ... : ... .. . ... ... : ... .. 6 ... ... : ... .. 6 ... ... : ... .. . ... ...
ROW 7B : ... .. . ... ... ... : ... .. 8 ... ... ... : B-1 00 . ... : ... .. 3 ... : ... .. . ... ... : ... .. 5 ... ... : ... .. 5 ... ... : ... .. . ... ...
ROW 7C : ... .. . ... ... ... : C#3 00 C ... ... ... : F#1 00 . ... : ... .. 2 ... : ... .. . ... ... : ... .. . ... ... : ... .. . ... ... : ... .. . ... ...
ROW 7D : ... .. . ... ... ... : ... .. A ... ... ... : --- .. . ... : ... .. 0 ... : ... .. . ... ... : --- .. . ... ... : --- .. . ... ... : ... .. . ... ...
ROW 7E : ... .. . ... ... ... : ... .. . ... ... ... : F#2 00 . ... : 1-# 00 F ... : ... .. . ... ... : ... .. . ... ... : ... .. . ... ... : ... .. . ... ...
ROW 7F : ... .. 2 ... ... ... : ... .. 9 ... ... ... : ... .. . ... : ... .. C ... : ... .. . ... ... : ... .. . ... ... : ... .. . ... ... : ... .. 4 ... ...
ROW 80 : ... .. . ... ... ... : D-3 00 C ... ... ... : ... .. . ... : ... .. 6 ... : ... .. . ... ... : D-4 01 8 ... ... : G-4 01 8 ... ... : ... .. . ... ...
ROW 81 : ... .. . ... ... ... : ... .. A ... ... ... : ... .. . ... : ... .. 3 ... : ... .. . ... ... : ... .. 7 ... ... : ... .. 7 ... ... : ... .. 1 ... ...
ROW 82 : ... .. 1 ... ... ... : ... .. . ... ... ... : ... .. . ... : ... .. 2 ... : ... .. . ... ... : ... .. 6 ... ... : ... .. 6 ... ... : ... .. . ... ...
ROW 83 : ... .. . ... ... ... : ... .. 9 ... ... ... : --- .. . ... : ... .. 0 ... : ... .. . ... ... : ... .. 5 ... ... : ... .. 5 ... ... : ... .. . ... ...
ROW 84 : ... .. F ... ... ... : E-3 00 D ... ... ... : E-2 00 . ... : C-# 00 F ... : ... .. . ... ... : --- .. . ... ... : --- .. . ... ... : ... .. F ... ...
ROW 85 : ... .. E ... ... ... : ... .. B ... ... ... : ... .. . ... : ... .. C ... : ... .. . ... ... : ... .. . ... ... : ... .. . ... ... : ... .. D ... ...
ROW 86 : ... .. D ... ... ... : ... .. . ... ... ... : ... .. . ... : ... .. 6 ... : ... .. . ... ... : ... .. . ... ... : ... .. . ... ... : ... .. 8 ... ...
ROW 87 : ... .. A ... ... ... : ... .. A ... ... ... : ... .. . ... : ... .. 3 ... : ... .. . ... ... : ... .. . ... ... : ... .. . ... ... : --- .. . ... ...
ROW 88 : ... .. 2 ... ... ... : F#3 00 C ... ... ... : ... .. . ... : ... .. 2 ... : ... .. . ... ... : D-4 01 8 ... ... : G-4 01 8 ... ... : ... .. . ... ...
ROW 89 : ... .. . ... ... ... : ... .. A ... ... ... : --- .. . ... : ... .. 0 ... : ... .. . ... ... : ... .. 7 ... ... : ... .. 7 ... ... : ... .. . ... ...
ROW 8A : C#3 00 F ... ... ... : ... .. . ... ... ... : F#2 00 . ... : 7-# 00 F ... : ... .. . ... ... : ... .. 6 ... ... : ... .. 6 ... ... : C#2 01 F ... ...
ROW 8B : ... .. E ... ... ... : ... .. 9 ... ... ... : ... .. . ... : ... .. C ... : ... .. . ... ... : ... .. 5 ... ... : ... .. 5 ... ... : ... .. D ... ...
ROW 8C : ... .. D ... ... ... : G-3 00 B ... ... ... : ... .. . ... : ... .. 6 ... : ... .. . ... ... : ... .. . ... ... : ... .. . ... ... : ... .. 8 ... ...
ROW 8D : ... .. A ... ... ... : ... .. 9 ... ... ... : ... .. . ... : ... .. 3 ... : ... .. . ... ... : --- .. . ... ... : --- .. . ... ... : --- .. . ... ...
ROW 8E : ... .. 2 ... ... ... : ... .. . ... ... ... : ... .. . ... : ... .. 2 ... : ... .. . ... ... : ... .. . ... ... : ... .. . ... ... : ... .. . ... ...
ROW 8F : ... .. . ... ... ... : ... .. 8 ... ... ... : --- .. . ... : ... .. 0 ... : ... .. . ... ... : ... .. . ... ... : ... .. . ... ... : ... .. . ... ...
ROW 90 : B-2 00 F ... ... ... : F#3 00 A ... ... ... : F-5 00 . ... : 1-# 00 F ... : ... .. . ... ... : D-3 01 8 ... ... : G-3 01 8 ... ... : B-1 01 F ... ...
ROW 91 : ... .. E ... ... ... : ... .. 8 ... ... ... : G-4 00 . ... : ... .. C ... : ... .. . ... ... : ... .. 7 ... ... : ... .. 7 ... ... : ... .. D ... ...
ROW 92 : ... .. D ... ... ... : ... .. . ... ... ... : C-4 00 . ... : ... .. 6 ... : ... .. . ... ... : ... .. 6 ... ... : ... .. 6 ... ... : ... .. 8 ... ...
ROW 93 : ... .. A ... ... ... : ... .. . ... ... ... : B-3 00 . ... : ... .. 3 ... : ... .. . ... ... : ... .. 5 ... ... : ... .. 5 ... ... : ... .. . ... ...
ROW 94 : ... .. . ... ... ... : E-3 00 9 ... ... ... : F#3 00 . ... : ... .. 2 ... : ... .. . ... ... : ... .. . ... ... : ... .. . ... ... : ... .. . ... ...
ROW 95 : ... .. . ... ... ... : ... .. 8 ... ... ... : ... .. . ... : ... .. 0 ... : ... .. . ... ... : --- .. . P82 ... : --- .. . P81 ... : ... .. . ... ...
ROW 96 : ... .. . ... ... ... : ... .. . ... ... ... : E-3 00 . P85 : B-# 00 F ... : ... .. . ... ... : ... .. . ... ... : ... .. . ... ... : ... .. . ... ...
ROW 97 : ... .. . ... ... ... : ... .. 7 ... ... ... : D#3 00 . P7A : ... .. C ... : ... .. . ... ... : ... .. . ... ... : ... .. . ... ... : ... .. . ... ...
ROW 98 : ... .. . ... ... ... : D-3 00 9 ... ... ... : C#3 00 . P86 : ... .. 6 ... : ... .. . ... ... : D-3 01 8 P80 ... : G-3 01 8 P80 ... : ... .. . ... ...
ROW 99 : ... .. . ... ... ... : ... .. 7 ... ... ... : C-3 00 . P7E : ... .. 3 ... : ... .. . ... ... : ... .. 7 ... ... : ... .. 7 ... ... : ... .. . ... ...
ROW 9A : ... .. . ... ... ... : ... .. . ... ... ... : B-2 00 . P77 : ... .. 2 ... : ... .. . ... ... : ... .. 6 ... ... : ... .. 6 ... ... : ... .. . ... ...
ROW 9B : ... .. . ... ... ... : ... .. 6 ... ... ... : --- .. . ... : ... .. 0 ... : ... .. . ... ... : ... .. 5 ... ... : ... .. 5 ... ... : ... .. . ... ...
ROW 9C : ... .. . ... ... ... : C#3 00 8 ... ... ... : E-2 00 . P80 : 7-# 00 F ... : ... .. . ... ... : --- .. . P82 ... : --- .. . P81 ... : ... .. . ... ...
ROW 9D : ... .. . ... ... ... : ... .. 7 ... ... ... : ... .. . ... : ... .. C ... : ... .. . ... ... : ... .. . ... ... : ... .. . ... ... : ... .. . ... ...
ROW 9E : ... .. . ... ... ... : ... .. . ... ... ... : ... .. . ... : ... .. 6 ... : ... .. . ... ... : ... .. . ... ... : ... .. . ... ... : ... .. . ... ...
ROW 9F : ... .. . ... ... ... : ... .. 6 ... ... ... : ... .. . ... : ... .. 3 ... : ... .. . ... ... : ... .. . ... ... : ... .. . ... ... : ... .. . ... ...
ROW A0 : ... .. . ... ... ... : B-2 00 7 ... ... ... : ... .. . ... : ... .. 2 ... : ... .. . ... ... : D-3 01 8 P80 ... : G-3 01 8 P80 ... : ... .. . ... ...
ROW A1 : ... .. . ... ... ... : ... .. 6 ... ... ... : --- .. . ... : ... .. 0 ... : ... .. . ... ... : ... .. 7 ... ... : ... .. 7 ... ... : ... .. . ... ...
ROW A2 : ... .. . ... ... ... : ... .. . ... ... ... : F#2 00 . ... : 1-# 00 F ... : ... .. . ... ... : ... .. 6 ... ... : ... .. 6 ... ... : ... .. . ... ...
ROW A3 : ... .. . ... ... ... : ... .. . ... ... ... : ... .. . ... : ... .. C ... : ... .. . ... ... : ... .. 5 ... ... : ... .. 5 ... ... : ... .. . ... ...
ROW A4 : ... .. . ... ... ... : A-2 00 6 ... ... ... : ... .. . ... : ... .. 6 ... : ... .. . ... ... : ... .. . ... ... : ... .. . ... ... : ... .. . ... ...
ROW A5 : ... .. . ... ... ... : ... .. 5 ... ... ... : ... .. . ... : ... .. 3 ... : ... .. . ... ... : --- .. . P82 ... : --- .. . P81 ... : ... .. . ... ...
ROW A6 : ... .. . ... ... ... : ... .. . ... ... ... : ... .. . ... : ... .. 2 ... : ... .. . ... ... : ... .. . ... ... : ... .. . ... ... : ... .. . ... ...
ROW A7 : ... .. . ... ... ... : ... .. . ... ... ... : --- .. . ... : ... .. 0 ... : ... .. . ... ... : ... .. . ... ... : ... .. . ... ... : ... .. . ... ...
ROW A8 : ... .. . ... ... ... : B-2 00 6 ... ... ... : F-4 00 . ... : 9-# 00 F ... : ... .. . ... ... : D-4 01 8 P80 ... : B-4 01 8 P80 ... : ... .. . ... ...
ROW A9 : ... .. . ... ... ... : ... .. 5 ... ... ... : G-3 00 . ... : ... .. C ... : ... .. . ... ... : ... .. 7 ... ... : ... .. 7 ... ... : ... .. . ... ...
ROW AA : ... .. . ... ... ... : ... .. . ... ... ... : C-3 00 . ... : ... .. 6 ... : ... .. . ... ... : ... .. 6 ... ... : ... .. 6 ... ... : ... .. . ... ...
ROW AB : ... .. . ... ... ... : ... .. 4 ... ... ... : B-2 00 . ... : ... .. 3 ... : ... .. . ... ... : ... .. 5 ... ... : ... .. 5 ... ... : ... .. . ... ...
ROW AC : ... .. . ... ... ... : C#3 00 6 ... ... ... : F#2 00 . ... : ... .. 2 ... : ... .. . ... ... : ... .. . ... ... : ... .. . ... ... : ... .. . ... ...
ROW AD : ... .. . ... ... ... : ... .. 5 ... ... ... : --- .. . ... : ... .. 0 ... : ... .. . ... ... : --- .. . ... ... : --- .. . ... ... : ... .. . ... ...
ROW AE : ... .. . ... ... ... : ... .. . ... ... ... : F#3 00 . ... : ... .. F ... : ... .. . ... ... : ... .. . ... ... : ... .. . ... ... : ... .. . ... ...
ROW AF : ... .. . ... ... ... : ... .. 4 ... ... ... : ... .. . ... : ... .. C ... : ... .. . ... ... : ... .. . ... ... : ... .. . ... ... : ... .. . ... ...
ROW B0 : ... .. . ... ... ... : D-3 00 5 ... ... ... : ... .. . ... : ... .. 6 ... : ... .. . ... ... : D-4 01 8 ... ... : B-4 01 8 ... ... : ... .. . ... ...
ROW B1 : ... .. . ... ... ... : ... .. 3 ... ... ... : ... .. . ... : ... .. 3 ... : ... .. . ... ... : ... .. 7 ... ... : ... .. 7 ... ... : ... .. . ... ...
ROW B2 : ... .. . ... ... ... : ... .. . ... ... ... : ... .. . ... : ... .. 2 ... : ... .. . ... ... : ... .. 6 ... ... : ... .. 6 ... ... : ... .. . ... ...
ROW B3 : ... .. . ... ... ... : ... .. . ... ... ... : --- .. . ... : ... .. 0 ... : ... .. . ... ... : ... .. 5 ... ... : ... .. 5 ... ... : ... .. . ... ...
ROW B4 : ... .. . ... ... ... : E-3 00 4 ... ... ... : E-3 00 . ... : 7-# 00 F ... : ... .. . ... ... : --- .. . ... ... : --- .. . ... ... : ... .. . ... ...
ROW B5 : ... .. . ... ... ... : ... .. 3 ... ... ... : ... .. . ... : ... .. C ... : ... .. . ... ... : ... .. . ... ... : ... .. . ... ... : ... .. . ... ...
ROW B6 : ... .. . ... ... ... : ... .. . ... ... ... : ... .. . ... : ... .. 6 ... : ... .. . ... ... : ... .. . ... ... : ... .. . ... ... : ... .. . ... ...
ROW B7 : ... .. . ... ... ... : ... .. . ... ... ... : ... .. . ... : ... .. 3 ... : ... .. . ... ... : ... .. . ... ... : ... .. . ... ... : ... .. . ... ...
ROW B8 : ... .. . ... ... ... : F#3 00 3 ... ... ... : ... .. . ... : ... .. 2 ... : ... .. . ... ... : D-4 01 8 ... ... : B-4 01 8 ... ... : ... .. . ... ...
ROW B9 : ... .. . ... ... ... : ... .. 2 ... ... ... : --- .. . ... : ... .. 0 ... : ... .. . ... ... : ... .. 7 ... ... : ... .. 7 ... ... : ... .. . ... ...
ROW BA : ... .. . ... ... ... : ... .. . ... ... ... : F#3 00 . ... : ... .. F ... : ... .. . ... ... : ... .. 6 ... ... : ... .. 6 ... ... : ... .. . ... ...
ROW BB : ... .. . ... ... ... : ... .. . ... ... ... : ... .. . ... : ... .. C ... : ... .. . ... ... : ... .. 5 ... ... : ... .. 5 ... ... : ... .. . ... ...
ROW BC : ... .. . ... ... ... : G-3 00 3 ... ... ... : ... .. . ... : ... .. 6 ... : ... .. . ... ... : ... .. . ... ... : ... .. . ... ... : ... .. . ... ...
ROW BD : ... .. . ... ... ... : ... .. 2 ... ... ... : ... .. . ... : ... .. 3 ... : ... .. . ... ... : --- .. . ... ... : --- .. . ... ... : ... .. . ... ...
ROW BE : ... .. 2 ... ... ... : ... .. . ... ... ... : ... .. . ... : ... .. 2 ... : ... .. . ... ... : ... .. . ... ... : ... .. . ... ... : ... .. . ... ...
ROW BF : ... .. . ... ... ... : ... .. . ... ... ... : --- .. . ... : ... .. 0 ... : ... .. . ... ... : ... .. . ... ... : ... .. . ... ... : ... .. . ... ...
ROW C0 : ... .. . ... ... ... : B-2 00 3 ... ... ... : F#4 00 . ... : ... .. F ... : ... .. . ... ... : D-4 01 8 ... ... : B-4 01 8 ... ... : C#5 01 C ... ...
ROW C1 : ... .. 1 ... ... ... : ... .. 2 ... ... ... : G#3 00 . ... : ... .. C ... : ... .. . ... ... : ... .. 7 ... ... : ... .. 7 ... ... : ... .. A ... ...
ROW C2 : ... .. . ... ... ... : ... .. . ... ... ... : C#3 00 . ... : ... .. 6 ... : ... .. . ... ... : ... .. 6 ... ... : ... .. 6 ... ... : ... .. 6 ... ...
ROW C3 : ... .. . ... ... ... : ... .. . ... ... ... : C-3 00 . ... : 9-# 00 D ... : ... .. . ... ... : ... .. 5 ... ... : ... .. 5 ... ... : ... .. . ... ...
ROW C4 : ... .. 0 ... ... ... : C#3 00 3 ... ... ... : G-2 00 . ... : ... .. B ... : ... .. . ... ... : ... .. . ... ... : ... .. . ... ... : ... .. . ... ...
ROW C5 : ... .. . ... ... ... : ... .. 2 ... ... ... : ... .. . ... : ... .. . ... : ... .. . ... ... : --- .. . ... ... : --- .. . ... ... : --- .. . ... ...
ROW C6 : ... .. . ... ... ... : ... .. . ... ... ... : ... .. . ... : ... .. A ... : ... .. . ... ... : ... .. . ... ... : ... .. . ... ... : ... .. . ... ...
ROW C7 : ... .. . ... ... ... : ... .. . ... ... ... : ... .. . ... : ... .. 8 ... : ... .. . ... ... : ... .. . ... ... : ... .. . ... ... : ... .. . ... ...
ROW C8 : ... .. . ... ... ... : D-3 00 3 ... ... ... : F#4 00 . ... : ... .. 7 ... : ... .. . ... ... : D-4 01 8 ... ... : B-4 01 8 ... ... : C#5 01 C ... ...
ROW C9 : ... .. . ... ... ... : ... .. . ... ... ... : G#3 00 . ... : ... .. 6 ... : ... .. . ... ... : ... .. 7 ... ... : ... .. 7 ... ... : ... .. A ... ...
ROW CA : ... .. . ... ... ... : ... .. . ... ... ... : C#3 00 . ... : ... .. . ... : ... .. . ... ... : ... .. 6 ... ... : ... .. 6 ... ... : ... .. 6 ... ...
ROW CB : ... .. . ... ... ... : ... .. . ... ... ... : C-3 00 . ... : ... .. 5 ... : ... .. . ... ... : ... .. 5 ... ... : ... .. 5 ... ... : ... .. . ... ...
ROW CC : ... .. . ... ... ... : E-3 00 4 ... ... ... : G-2 00 . ... : 7-# 00 F ... : ... .. . ... ... : --- .. . ... ... : --- .. . ... ... : --- .. . ... ...
ROW CD : ... .. . ... ... ... : ... .. 3 ... ... ... : ... .. . ... : ... .. C ... : ... .. . ... ... : ... .. . ... ... : ... .. . ... ... : ... .. . ... ...
ROW CE : ... .. . ... ... ... : ... .. . ... ... ... : ... .. . ... : ... .. 6 ... : ... .. . ... ... : ... .. . ... ... : ... .. . ... ... : ... .. . ... ...
ROW CF : ... .. . ... ... ... : ... .. . ... ... ... : ... .. . ... : ... .. 3 ... : ... .. . ... ... : ... .. . ... ... : ... .. . ... ... : ... .. . ... ...
ROW D0 : ... .. . ... ... ... : F#3 00 5 ... ... ... : F#4 00 . ... : ... .. F ... : ... .. . ... ... : D-4 01 8 ... ... : B-4 01 8 ... ... : C#5 01 C ... ...
ROW D1 : ... .. . ... ... ... : ... .. 4 ... ... ... : G#3 00 . ... : ... .. C ... : ... .. . ... ... : ... .. 7 ... ... : ... .. 7 ... ... : ... .. A ... ...
ROW D2 : ... .. . ... ... ... : ... .. . ... ... ... : C#3 00 . ... : ... .. 6 ... : ... .. . ... ... : ... .. 6 ... ... : ... .. 6 ... ... : ... .. 6 ... ...
ROW D3 : ... .. . ... ... ... : ... .. . ... ... ... : C-3 00 . ... : ... .. 3 ... : ... .. . ... ... : ... .. 5 ... ... : ... .. 5 ... ... : ... .. . ... ...
ROW D4 : ... .. . ... ... ... : G-3 00 5 ... ... ... : G-2 00 . ... : ... .. F ... : ... .. . ... ... : ... .. . ... ... : ... .. . ... ... : ... .. . ... ...
ROW D5 : ... .. . ... ... ... : ... .. . ... ... ... : ... .. . ... : ... .. C ... : ... .. . ... ... : --- .. . ... ... : --- .. . ... ... : --- .. . ... ...
ROW D6 : ... .. . ... ... ... : ... .. . ... ... ... : ... .. . ... : ... .. 6 ... : ... .. . ... ... : ... .. . ... ... : ... .. . ... ... : ... .. . ... ...
ROW D7 : ... .. . ... ... ... : ... .. 4 ... ... ... : ... .. . ... : ... .. 3 ... : ... .. . ... ... : ... .. . ... ... : ... .. . ... ... : ... .. . ... ...
ROW D8 : ... .. . ... ... ... : E-3 00 6 ... ... ... : F#3 00 . ... : ... .. F ... : ... .. . ... ... : D-2 01 8 ... ... : B-2 01 8 ... ... : C#3 01 C ... ...
ROW D9 : ... .. . ... ... ... : ... .. 5 ... ... ... : G#2 00 . ... : ... .. C ... : ... .. . ... ... : ... .. 7 ... ... : ... .. 7 ... ... : ... .. A ... ...
ROW DA : ... .. . ... ... ... : ... .. . ... ... ... : C#2 00 . ... : ... .. 6 ... : ... .. . ... ... : ... .. 6 ... ... : ... .. 6 ... ... : ... .. 6 ... ...
ROW DB : ... .. . ... ... ... : ... .. 4 ... ... ... : C-2 00 . ... : 9-# 00 D ... : ... .. . ... ... : ... .. 5 ... ... : ... .. 5 ... ... : ... .. . ... ...
ROW DC : ... .. . ... ... ... : F#3 00 6 ... ... ... : G-1 00 . ... : ... .. B ... : ... .. . ... ... : ... .. . ... ... : ... .. . ... ... : ... .. . ... ...
ROW DD : ... .. . ... ... ... : ... .. 5 ... ... ... : ... .. . ... : ... .. . ... : ... .. . ... ... : --- .. . P84 ... : --- .. . P85 ... : --- .. . ... ...
ROW DE : ... .. . ... ... ... : ... .. . ... ... ... : ... .. . ... : ... .. A ... : ... .. . ... ... : ... .. . ... ... : ... .. . ... ... : ... .. . ... ...
ROW DF : ... .. . ... ... ... : ... .. . ... ... ... : ... .. . ... : ... .. 8 ... : ... .. . ... ... : ... .. . ... ... : ... .. . ... ... : ... .. . ... ...
ROW E0 : ... .. . ... ... ... : G-3 00 6 ... ... ... : ... .. . ... : ... .. 7 ... : ... .. . ... ... : D-2 01 8 P80 ... : B-2 01 8 P80 ... : C#3 01 C ... ...
ROW E1 : ... .. . ... ... ... : ... .. . ... ... ... : ... .. . ... : ... .. 6 ... : ... .. . ... ... : ... .. 7 ... ... : ... .. 7 ... ... : ... .. A ... ...
ROW E2 : ... .. . ... ... ... : ... .. . ... ... ... : ... .. . ... : ... .. . ... : ... .. . ... ... : ... .. 6 ... ... : ... .. 6 ... ... : ... .. 6 ... ...
ROW E3 : ... .. . ... ... ... : ... .. . ... ... ... : ... .. . ... : ... .. 5 ... : ... .. . ... ... : ... .. 5 ... ... : ... .. 5 ... ... : ... .. . ... ...
ROW E4 : ... .. . ... ... ... : A-3 00 7 ... ... ... : ... .. . PA0 : 7-# 00 F ... : ... .. . ... ... : --- .. . P84 ... : --- .. . P85 ... : --- .. . ... ...
ROW E5 : ... .. . ... ... ... : ... .. 6 ... ... ... : G#1 00 . P80 : ... .. C ... : ... .. . ... ... : ... .. . ... ... : ... .. . ... ... : ... .. . ... ...
ROW E6 : ... .. . ... ... ... : ... .. . ... ... ... : A-1 00 . P64 : ... .. 6 ... : ... .. . ... ... : ... .. . ... ... : ... .. . ... ... : ... .. . ... ...
ROW E7 : ... .. . ... ... ... : ... .. . ... ... ... : ... .. . P84 : ... .. 3 ... : ... .. . ... ... : ... .. . ... ... : ... .. . ... ... : ... .. . ... ...
ROW E8 : ... .. . ... ... ... : B-3 00 7 ... ... ... : A#1 00 . P6B : ... .. F ... : ... .. . ... ... : D-2 01 8 P80 ... : B-2 01 8 P80 ... : C#3 01 C ... ...
ROW E9 : ... .. . ... ... ... : ... .. 6 ... ... ... : ... .. . P8B : ... .. C ... : ... .. . ... ... : ... .. 7 ... ... : ... .. 7 ... ... : ... .. A ... ...
ROW EA : ... .. . ... ... ... : ... .. . ... ... ... : B-1 00 . P75 : ... .. 6 ... : ... .. . ... ... : ... .. 6 ... ... : ... .. 6 ... ... : ... .. 6 ... ...
ROW EB : ... .. . ... ... ... : ... .. . ... ... ... : ... .. . P95 : ... .. 3 ... : ... .. . ... ... : ... .. 5 ... ... : ... .. 5 ... ... : ... .. . ... ...
ROW EC : ... .. . ... ... ... : C#4 00 8 ... ... ... : C-2 00 . P82 : ... .. F ... : ... .. . ... ... : ... .. . ... ... : ... .. . ... ... : ... .. . ... ...
ROW ED : ... .. . ... ... ... : ... .. 7 ... ... ... : C#2 00 . P72 : ... .. C ... : ... .. . ... ... : --- .. . P84 ... : --- .. . P85 ... : --- .. . ... ...
ROW EE : ... .. . ... ... ... : ... .. . ... ... ... : ... .. . P92 : ... .. 6 ... : ... .. . ... ... : ... .. . ... ... : ... .. . ... ... : ... .. . ... ...
ROW EF : ... .. . ... ... ... : ... .. 6 ... ... ... : D-2 00 . P85 : ... .. 3 ... : ... .. . ... ... : ... .. . ... ... : ... .. . ... ... : ... .. . ... ...
ROW F0 : ... .. . ... ... ... : D-4 00 9 ... ... ... : F#4 00 . P80 : ... .. F ... : ... .. . ... ... : B-3 01 8 P80 ... : E-4 01 8 P80 ... : G-4 01 C ... ...
ROW F1 : ... .. . ... ... ... : ... .. 8 ... ... ... : G#3 00 . ... : ... .. C ... : ... .. . ... ... : ... .. 7 ... ... : ... .. 7 ... ... : ... .. A ... ...
ROW F2 : ... .. . ... ... ... : ... .. . ... ... ... : C#3 00 . ... : ... .. 6 ... : ... .. . ... ... : ... .. 6 ... ... : ... .. 6 ... ... : ... .. 6 ... ...
ROW F3 : ... .. . ... ... ... : ... .. 7 ... ... ... : C-3 00 . ... : ... .. 3 ... : ... .. . ... ... : ... .. 5 ... ... : ... .. 5 ... ... : ... .. . ... ...
ROW F4 : ... .. . ... ... ... : E-4 00 9 ... ... ... : G-2 00 . ... : ... .. 2 ... : ... .. . ... ... : ... .. . ... ... : ... .. . ... ... : ... .. . ... ...
ROW F5 : ... .. . ... ... ... : ... .. 8 ... ... ... : ... .. . ... : ... .. 0 ... : ... .. . ... ... : ... .. 4 ... ... : ... .. 4 ... ... : ... .. . ... ...
ROW F6 : ... .. . ... ... ... : ... .. . ... ... ... : ... .. . ... : ... .. . ... : ... .. . ... ... : ... .. . ... ... : ... .. . ... ... : ... .. . ... ...
ROW F7 : ... .. . ... ... ... : ... .. 7 ... ... ... : ... .. . ... : ... .. . ... : ... .. . ... ... : ... .. . ... ... : ... .. . ... ... : ... .. . ... ...
ROW F8 : ... .. . ... ... ... : F#4 00 A ... ... ... : F#4 00 . ... : ... .. F ... : ... .. . ... ... : ... .. . ... ... : ... .. . ... ... : ... .. . ... ...
ROW F9 : ... .. . ... ... ... : ... .. 8 ... ... ... : G#3 00 . ... : ... .. C ... : ... .. . ... ... : --- .. . ... ... : --- .. . ... ... : --- .. . ... ...
ROW FA : ... .. . ... ... ... : ... .. . ... ... ... : C#3 00 . ... : ... .. 6 ... : ... .. . ... ... : ... .. . ... ... : ... .. . ... ... : ... .. . ... ...
ROW FB : ... .. . ... ... ... : ... .. . ... ... ... : C-3 00 . ... : ... .. 3 ... : ... .. . ... ... : ... .. . ... ... : ... .. . ... ... : ... .. . ... ...
ROW FC : ... .. . ... ... ... : G-4 00 B ... ... ... : G-2 00 . ... : ... .. 2 ... : ... .. . ... ... : B-3 01 6 ... ... : E-4 01 6 ... ... : G-4 01 A ... ...
ROW FD : ... .. . ... ... ... : ... .. 9 ... ... ... : ... .. . ... : ... .. 0 ... : ... .. . ... ... : ... .. 4 ... ... : ... .. 4 ... ... : ... .. 6 ... ...
ROW FE : ... .. . ... ... ... : ... .. . ... ... ... : ... .. . ... : ... .. . ... : ... .. . ... ... : ... .. 3 ... ... : ... .. 3 ... ... : ... .. 3 ... ...
ROW FF : ... .. . ... ... ... : ... .. 8 ... ... ... : ... .. . ... : ... .. . ... : ... .. . ... ... : ... .. 1 ... ... : ... .. 1 ... ... : ... .. 2 ... ...

PATTERN 04
ROW 00 : ... .. . ... ... ... : A-4 00 B ... ... ... : F#4 00 . ... : ... .. F ... : ... .. . ... ... : ... .. 6 ... ... : ... .. 6 ... ... : ... .. A ... ...
ROW 01 : ... .. . ... ... ... : ... .. 9 ... ... ... : G#3 00 . ... : ... .. C ... : ... .. . ... ... : ... .. 4 ... ... : ... .. 4 ... ... : ... .. 6 ... ...
ROW 02 : ... .. . ... ... ... : ... .. . ... ... ... : C#3 00 . ... : ... .. 6 ... : ... .. . ... ... : ... .. 3 ... ... : ... .. 3 ... ... : ... .. 3 ... ...
ROW 03 : ... .. . ... ... ... : ... .. 8 ... ... ... : C-3 00 . ... : ... .. 3 ... : ... .. . ... ... : ... .. 1 ... ... : ... .. 1 ... ... : ... .. 2 ... ...
ROW 04 : ... .. . ... ... ... : B-4 00 C ... ... ... : G-2 00 . ... : ... .. 2 ... : ... .. . ... ... : ... .. 6 ... ... : ... .. 6 ... ... : ... .. A ... ...
ROW 05 : ... .. . ... ... ... : ... .. A ... ... ... : ... .. . ... : ... .. 0 ... : ... .. . ... ... : ... .. 4 ... ... : ... .. 4 ... ... : ... .. 6 ... ...
ROW 06 : ... .. . ... ... ... : ... .. . ... ... ... : ... .. . ... : ... .. . ... : ... .. . ... ... : ... .. 3 ... ... : ... .. 3 ... ... : ... .. 3 ... ...
ROW 07 : ... .. . ... ... ... : ... .. 9 ... ... ... : ... .. . ... : ... .. . ... : ... .. . ... ... : ... .. 1 ... ... : ... .. 1 ... ... : ... .. 2 ... ...
ROW 08 : ... .. . ... ... ... : G-4 00 D ... ... ... : D#4 00 . ... : ... .. F ... : ... .. . ... ... : B-2 01 8 ... ... : D-4 01 8 ... ... : ... .. C ... ...
ROW 09 : ... .. . ... ... ... : ... .. B ... ... ... : F-3 00 . ... : ... .. C ... : ... .. . ... ... : ... .. 7 ... ... : ... .. 7 ... ... : ... .. A ... ...
ROW 0A : ... .. . ... ... ... : ... .. . ... ... ... : A#2 00 . ... : ... .. 6 ... : ... .. . ... ... : ... .. 6 ... ... : ... .. 6 ... ... : ... .. 6 ... ...
ROW 0B : ... .. . ... ... ... : ... .. A ... ... ... : A-2 00 . ... : ... .. 3 ... : ... .. . ... ... : ... .. 5 ... ... : ... .. 5 ... ... : ... .. . ... ...
ROW 0C : ... .. . ... ... ... : A-4 00 D ... ... ... : E-2 00 . ... : ... .. 2 ... : ... .. . ... ... : ... .. . ... ... : ... .. . ... ... : ... .. . ... ...
ROW 0D : ... .. . ... ... ... : ... .. B ... ... ... : ... .. . ... : ... .. 0 ... : ... .. . ... ... : --- .. . P85 ... : --- .. . ... ... : --- .. . ... ...
ROW 0E : ... .. . ... ... ... : ... .. . ... ... ... : ... .. . ... : ... .. . ... : ... .. . ... ... : ... .. . ... ... : ... .. . ... ... : ... .. . ... ...
ROW 0F : ... .. . ... ... ... : ... .. A ... ... ... : ... .. . ... : ... .. . ... : ... .. . ... ... : ... .. . ... ... : ... .. . ... ... : ... .. . ... ...
ROW 10 : ... .. . ... ... ... : B-4 00 D ... ... ... : F-4 00 . ... : ... .. F ... : ... .. . ... ... : C#3 01 8 P80 ... : C#4 01 8 ... ... : F#4 01 C ... ...
ROW 11 : ... .. . ... ... ... : ... .. B ... ... ... : G-3 00 . ... : ... .. C ... : ... .. . ... ... : ... .. 7 ... ... : ... .. 7 ... ... : ... .. A ... ...
ROW 12 : ... .. . ... ... ... : ... .. . ... ... ... : C-3 00 . ... : ... .. 6 ... : ... .. . ... ... : ... .. 6 ... ... : ... .. 6 ... ... : ... .. 6 ... ...
ROW 13 : ... .. . ... ... ... : ... .. A ... ... ... : B-2 00 . ... : ... .. 3 ... : ... .. . ... ... : ... .. 5 ... ... : ... .. 5 ... ... : ... .. . ... ...
ROW 14 : ... .. . ... ... ... : C#5 00 D ... ... ... : F#2 00 . ... : ... .. 2 ... : ... .. . ... ... : --- .. . P83 ... : --- .. . ... ... : --- .. . ... ...
ROW 15 : ... .. . ... ... ... : ... .. B ... ... ... : ... .. . ... : ... .. 0 ... : ... .. . ... ... : ... .. . ... ... : ... .. . ... ... : ... .. . ... ...
ROW 16 : ... .. . ... ... ... : ... .. . ... ... ... : ... .. . ... : ... .. . ... : ... .. . ... ... : ... .. . ... ... : ... .. . ... ... : ... .. . ... ...
ROW 17 : ... .. . ... ... ... : ... .. A ... ... ... : ... .. . ... : ... .. . ... : ... .. . ... ... : ... .. . ... ... : ... .. . ... ... : ... .. . ... ...
ROW 18 : ... .. . ... ... ... : D-5 00 D ... ... ... : F#4 00 . ... : ... .. F ... : ... .. . ... ... : D-3 01 8 P80 ... : B-3 01 8 ... ... : E-4 01 C ... ...
ROW 19 : ... .. . ... ... ... : ... .. B ... ... ... : G#3 00 . ... : ... .. C ... : ... .. . ... ... : ... .. 7 ... ... : ... .. 7 ... ... : ... .. A ... ...
ROW 1A : ... .. . ... ... ... : ... .. . ... ... ... : C#3 00 . ... : ... .. 6 ... : ... .. . ... ... : ... .. 6 ... ... : ... .. 6 ... ... : ... .. 6 ... ...
ROW 1B : ... .. . ... ... ... : ... .. A ... ... ... : C-3 00 . ... : ... .. 3 ... : ... .. . ... ... : ... .. 5 ... ... : ... .. 5 ... ... : ... .. . ... ...
ROW 1C : ... .. . ... ... ... : E-5 00 D ... ... ... : G-2 00 . ... : ... .. 2 ... : ... .. . ... ... : ... .. . ... ... : ... .. . ... ... : ... .. . ... ...
ROW 1D : ... .. . ... ... ... : ... .. B ... ... ... : ... .. . ... : ... .. 0 ... : ... .. . ... ... : ... .. 4 ... ... : ... .. 4 ... ... : ... .. . ... ...
ROW 1E : ... .. . ... ... ... : ... .. . ... ... ... : ... .. . ... : ... .. . ... : ... .. . ... ... : ... .. . ... ... : ... .. . ... ... : ... .. . ... ...
ROW 1F : ... .. . ... ... ... : ... .. A ... ... ... : ... .. . ... : ... .. . ... : ... .. . ... ... : ... .. . ... ... : ... .. . ... ... : ... .. . ... ...
ROW 20 : C#4 00 C P80 ... ... : F#5 00 D ... ... ... : F-5 00 . ... : 9-# 00 F ... : ... .. . ... ... : C#4 01 8 ... ... : F#4 01 8 ... ... : C#3 01 C ... ...
ROW 21 : ... .. B ... ... ... : ... .. B ... ... ... : G-4 00 . ... : ... .. C ... : ... .. . ... ... : ... .. 7 ... ... : ... .. 7 ... ... : ... .. A ... ...
ROW 22 : ... .. A ... ... ... : ... .. . ... ... ... : C-4 00 . ... : ... .. 6 ... : ... .. . ... ... : ... .. 6 ... ... : ... .. 6 ... ... : ... .. 6 ... ...
ROW 23 : ... .. 8 ... ... ... : E-5 00 C ... ... ... : B-3 00 . ... : ... .. 3 ... : ... .. . ... ... : ... .. 5 ... ... : ... .. 5 ... ... : ... .. . ... ...
ROW 24 : ... .. . ... ... ... : ... .. A ... ... ... : F#3 00 . ... : ... .. 2 ... : ... .. . ... ... : ... .. . ... ... : ... .. . ... ... : ... .. . ... ...
ROW 25 : ... .. . ... ... ... : ... .. . ... ... ... : ... .. . ... : ... .. 0 ... : ... .. . ... ... : ... .. 4 ... ... : ... .. 4 ... ... : ... .. . ... ...
ROW 26 : ... .. . ... ... ... : D-5 00 B ... ... ... : E-3 00 . P85 : 2-# 00 F ... : ... .. . ... ... : ... .. . ... ... : ... .. . ... ... : ... .. . ... ...
ROW 27 : ... .. . ... ... ... : ... .. 9 ... ... ... : D#3 00 . P7A : ... .. C ... : ... .. . ... ... : ... .. . ... ... : ... .. . ... ... : ... .. . ... ...
ROW 28 : ... .. . ... ... ... : ... .. . ... ... ... : C#3 00 . P86 : ... .. 6 ... : ... .. . ... ... : ... .. . ... ... : ... .. . ... ... : ... .. . ... ...
ROW 29 : ... .. . ... ... ... : C#5 00 A ... ... ... : C-3 00 . P7E : ... .. 3 ... : ... .. . ... ... : --- .. . ... ... : --- .. . ... ... : ... .. . ... ...
ROW 2A : ... .. . ... ... ... : ... .. 8 ... ... ... : B-2 00 . P77 : ... .. 2 ... : ... .. . ... ... : ... .. . ... ... : ... .. . ... ... : ... .. . ... ...
ROW 2B : ... .. . ... ... ... : ... .. . ... ... ... : --- .. . ... : ... .. 0 ... : ... .. . ... ... : ... .. . ... ... : ... .. . ... ... : ... .. . ... ...
ROW 2C : ... .. . ... ... ... : B-4 00 9 ... ... ... : E-2 00 . P80 : 1-# 00 F ... : ... .. . ... ... : C#4 01 6 ... ... : F#4 01 6 ... ... : ... .. . ... ...
ROW 2D : ... .. . ... ... ... : ... .. 8 ... ... ... : ... .. . ... : ... .. C ... : ... .. . ... ... : ... .. 4 ... ... : ... .. 4 ... ... : ... .. . ... ...
ROW 2E : ... .. . ... ... ... : ... .. . ... ... ... : ... .. . ... : ... .. 6 ... : ... .. . ... ... : ... .. 3 ... ... : ... .. 3 ... ... : ... .. . ... ...
ROW 2F : ... .. . ... ... ... : ... .. 7 ... ... ... : ... .. . ... : ... .. 3 ... : ... .. . ... ... : ... .. 1 ... ... : ... .. 1 ... ... : ... .. . ... ...
ROW 30 : ... .. . ... ... ... : A-4 00 8 ... ... ... : ... .. . ... : ... .. 2 ... : ... .. . ... ... : ... .. 6 ... ... : ... .. 6 ... ... : ... .. . ... ...
ROW 31 : ... .. . ... ... ... : ... .. 7 ... ... ... : --- .. . ... : ... .. 0 ... : ... .. . ... ... : ... .. 4 ... ... : ... .. 4 ... ... : ... .. . ... ...
ROW 32 : ... .. . ... ... ... : ... .. . ... ... ... : F#2 00 . ... : C-# 00 F ... : ... .. . ... ... : ... .. 3 ... ... : ... .. 3 ... ... : ... .. . ... ...
ROW 33 : ... .. . ... ... ... : ... .. 6 ... ... ... : ... .. . ... : ... .. C ... : ... .. . ... ... : ... .. 1 ... ... : ... .. 1 ... ... : ... .. . ... ...
ROW 34 : ... .. . ... ... ... : G-4 00 7 ... ... ... : ... .. . ... : ... .. 6 ... : ... .. . ... ... : ... .. 6 ... ... : ... .. 6 ... ... : ... .. . ... ...
ROW 35 : ... .. . ... ... ... : ... .. 5 ... ... ... : ... .. . ... : ... .. 3 ... : ... .. . ... ... : ... .. 4 ... ... : ... .. 4 ... ... : ... .. . ... ...
ROW 36 : ... .. . ... ... ... : ... .. . ... ... ... : ... .. . ... : ... .. 2 ... : ... .. . ... ... : ... .. 3 ... ... : ... .. 3 ... ... : ... .. . ... ...
ROW 37 : ... .. . ... ... ... : ... .. . ... ... ... : --- .. . ... : ... .. 0 ... : ... .. . ... ... : ... .. 1 ... ... : ... .. 1 ... ... : ... .. . ... ...
ROW 38 : ... .. . ... ... ... : F#4 00 6 ... ... ... : F-4 00 . ... : 7-# 00 F ... : ... .. . ... ... : ... .. 8 ... ... : ... .. 8 ... ... : ... .. . ... ...
ROW 39 : ... .. . ... ... ... : ... .. 5 ... ... ... : G-3 00 . ... : ... .. C ... : ... .. . ... ... : ... .. 7 ... ... : ... .. 7 ... ... : ... .. . ... ...
ROW 3A : ... .. . ... ... ... : ... .. . ... ... ... : C-3 00 . ... : ... .. 6 ... : ... .. . ... ... : ... .. 6 ... ... : ... .. 6 ... ... : ... .. . ... ...
ROW 3B : ... .. . ... ... ... : ... .. 4 ... ... ... : B-2 00 . ... : ... .. 3 ... : ... .. . ... ... : ... .. 5 ... ... : ... .. 5 ... ... : ... .. . ... ...
ROW 3C : ... .. . ... ... ... : E-4 00 5 ... ... ... : F#2 00 . ... : ... .. 2 ... : ... .. . ... ... : ... .. . ... ... : ... .. . ... ... : ... .. . ... ...
ROW 3D : ... .. . ... ... ... : ... .. 4 ... ... ... : --- .. . ... : ... .. 0 ... : ... .. . ... ... : --- .. . ... ... : --- .. . ... ... : ... .. . ... ...
ROW 3E : ... .. . ... ... ... : ... .. . ... ... ... : F#3 00 . ... : 1-# 00 F ... : ... .. . ... ... : ... .. . ... ... : ... .. . ... ... : ... .. . ... ...
ROW 3F : ... .. 1 ... ... ... : ... .. . ... ... ... : ... .. . ... : ... .. C ... : ... .. . ... ... : ... .. . ... ... : ... .. . ... ... : ... .. 3 ... ...
ROW 40 : ... .. . ... ... ... : D-4 00 4 ... ... ... : ... .. . ... : ... .. 6 ... : ... .. . ... ... : C#4 01 8 ... ... : F#4 01 8 ... ... : ... .. . ... ...
ROW 41 : ... .. . ... ... ... : ... .. 3 ... ... ... : ... .. . ... : ... .. 3 ... : ... .. . ... ... : ... .. 7 ... ... : ... .. 7 ... ... : ... .. 1 ... ...
ROW 42 : ... .. . ... ... ... : ... .. . ... ... ... : ... .. . ... : ... .. 2 ... : ... .. . ... ... : ... .. 6 ... ... : ... .. 6 ... ... : ... .. . ... ...
ROW 43 : ... .. . ... ... ... : ... .. . ... ... ... : --- .. . ... : ... .. 0 ... : ... .. . ... ... : ... .. 5 ... ... : ... .. 5 ... ... : ... .. . ... ...
ROW 44 : ... .. C ... ... ... : C#4 00 5 ... ... ... : E-3 00 . ... : C-# 00 F ... : ... .. . ... ... : --- .. . ... ... : --- .. . ... ... : ... .. C ... ...
ROW 45 : ... .. B ... ... ... : ... .. 4 ... ... ... : ... .. . ... : ... .. C ... : ... .. . ... ... : ... .. . ... ... : ... .. . ... ... : ... .. A ... ...
ROW 46 : ... .. A ... ... ... : ... .. . ... ... ... : ... .. . ... : ... .. 6 ... : ... .. . ... ... : ... .. . ... ... : ... .. . ... ... : ... .. 6 ... ...
ROW 47 : ... .. 8 ... ... ... : ... .. . ... ... ... : ... .. . ... : ... .. 3 ... : ... .. . ... ... : ... .. . ... ... : ... .. . ... ... : ... .. . ... ...
ROW 48 : ... .. 1 ... ... ... : B-2 00 5 ... ... ... : ... .. . ... : ... .. 2 ... : ... .. . ... ... : C#4 01 8 ... ... : F#4 01 8 ... ... : ... .. 3 ... ...
ROW 49 : ... .. . ... ... ... : ... .. 4 ... ... ... : --- .. . ... : ... .. 0 ... : ... .. . ... ... : ... .. 7 ... ... : ... .. 7 ... ... : ... .. . ... ...
ROW 4A : B-3 00 C ... ... ... : ... .. . ... ... ... : F#3 00 . ... : 7-# 00 F ... : ... .. . ... ... : ... .. 6 ... ... : ... .. 6 ... ... : B-2 01 C ... ...
ROW 4B : ... .. B ... ... ... : ... .. . ... ... ... : ... .. . ... : ... .. C ... : ... .. . ... ... : ... .. 5 ... ... : ... .. 5 ... ... : ... .. A ... ...
ROW 4C : ... .. A ... ... ... : C#3 00 5 ... ... ... : ... .. . ... : ... .. 6 ... : ... .. . ... ... : ... .. . ... ... : ... .. . ... ... : ... .. 6 ... ...
ROW 4D : ... .. 8 ... ... ... : ... .. . ... ... ... : ... .. . ... : ... .. 3 ... : ... .. . ... ... : --- .. . ... ... : --- .. . ... ... : ... .. . ... ...
ROW 4E : ... .. 1 ... ... ... : ... .. . ... ... ... : ... .. . ... : ... .. 2 ... : ... .. . ... ... : ... .. . ... ... : ... .. . ... ... : ... .. 3 ... ...
ROW 4F : ... .. . ... ... ... : ... .. 4 ... ... ... : --- .. . ... : ... .. 0 ... : ... .. . ... ... : ... .. . ... ... : ... .. . ... ... : ... .. . ... ...
ROW 50 : A-3 00 C ... ... ... : D-3 00 6 ... ... ... : F-5 00 . ... : 1-# 00 F ... : ... .. . ... ... : C#3 01 8 ... ... : F#3 01 8 ... ... : A-2 01 C ... ...
ROW 51 : ... .. B ... ... ... : ... .. 5 ... ... ... : G-4 00 . ... : ... .. C ... : ... .. . ... ... : ... .. 7 ... ... : ... .. 7 ... ... : ... .. A ... ...
ROW 52 : ... .. A ... ... ... : ... .. . ... ... ... : C-4 00 . ... : ... .. 6 ... : ... .. . ... ... : ... .. 6 ... ... : ... .. 6 ... ... : ... .. 6 ... ...
ROW 53 : ... .. 8 ... ... ... : ... .. 4 ... ... ... : B-3 00 . ... : ... .. 3 ... : ... .. . ... ... : ... .. 5 ... ... : ... .. 5 ... ... : ... .. . ... ...
ROW 54 : ... .. . ... ... ... : C#3 00 6 ... ... ... : F#3 00 . ... : ... .. 2 ... : ... .. . ... ... : ... .. . ... ... : ... .. . ... ... : ... .. . ... ...
ROW 55 : ... .. . ... ... ... : ... .. 5 ... ... ... : ... .. . ... : ... .. 0 ... : ... .. . ... ... : --- .. . P83 ... : --- .. . P7F ... : ... .. . ... ...
ROW 56 : ... .. . ... ... ... : ... .. . ... ... ... : E-3 00 . P85 : B-# 00 F ... : ... .. . ... ... : ... .. . ... ... : ... .. . ... ... : ... .. . ... ...
ROW 57 : ... .. . ... ... ... : ... .. 4 ... ... ... : D#3 00 . P7A : ... .. C ... : ... .. . ... ... : ... .. . ... ... : ... .. . ... ... : ... .. . ... ...
ROW 58 : ... .. . ... ... ... : B-2 00 6 ... ... ... : C#3 00 . P86 : ... .. 6 ... : ... .. . ... ... : C#3 01 8 P80 ... : F#3 01 8 P80 ... : ... .. . ... ...
ROW 59 : ... .. . ... ... ... : ... .. 5 ... ... ... : C-3 00 . P7E : ... .. 3 ... : ... .. . ... ... : ... .. 7 ... ... : ... .. 7 ... ... : ... .. . ... ...
ROW 5A : ... .. . ... ... ... : ... .. . ... ... ... : B-2 00 . P77 : ... .. 2 ... : ... .. . ... ... : ... .. 6 ... ... : ... .. 6 ... ... : ... .. . ... ...
ROW 5B : ... .. . ... ... ... : ... .. . ... ... ... : --- .. . ... : ... .. 0 ... : ... .. . ... ... : ... .. 5 ... ... : ... .. 5 ... ... : ... .. . ... ...
ROW 5C : ... .. . ... ... ... : A-2 00 6 ... ... ... : E-2 00 . P80 : 7-# 00 F ... : ... .. . ... ... : --- .. . P83 ... : --- .. . P7F ... : ... .. . ... ...
ROW 5D : ... .. . ... ... ... : ... .. 5 ... ... ... : ... .. . ... : ... .. C ... : ... .. . ... ... : ... .. . ... ... : ... .. . ... ... : ... .. . ... ...
ROW 5E : ... .. . ... ... ... : ... .. . ... ... ... : ... .. . ... : ... .. 6 ... : ... .. . ... ... : ... .. . ... ... : ... .. . ... ... : ... .. . ... ...
ROW 5F : ... .. . ... ... ... : ... .. . ... ... ... : ... .. . ... : ... .. 3 ... : ... .. . ... ... : ... .. . ... ... : ... .. . ... ... : ... .. . ... ...
ROW 60 : ... .. . ... ... ... : G-2 00 6 ... ... ... : ... .. . ... : ... .. 2 ... : ... .. . ... ... : C#3 01 8 P80 ... : F#3 01 8 P80 ... : ... .. . ... ...
ROW 61 : ... .. . ... ... ... : ... .. 5 ... ... ... : --- .. . ... : ... .. 0 ... : ... .. . ... ... : ... .. 7 ... ... : ... .. 7 ... ... : ... .. . ... ...
ROW 62 : ... .. . ... ... ... : ... .. . ... ... ... : F#2 00 . ... : 1-# 00 F ... : ... .. . ... ... : ... .. 6 ... ... : ... .. 6 ... ... : ... .. . ... ...
ROW 63 : ... .. . ... ... ... : ... .. . ... ... ... : ... .. . ... : ... .. C ... : ... .. . ... ... : ... .. 5 ... ... : ... .. 5 ... ... : ... .. . ... ...
ROW 64 : ... .. . ... ... ... : F#2 00 6 ... ... ... : ... .. . ... : ... .. 6 ... : ... .. . ... ... : ... .. . ... ... : ... .. . ... ... : ... .. . ... ...
ROW 65 : ... .. . ... ... ... : ... .. . ... ... ... : ... .. . ... : ... .. 3 ... : ... .. . ... ... : --- .. . P83 ... : --- .. . P7F ... : ... .. . ... ...
ROW 66 : ... .. . ... ... ... : ... .. . ... ... ... : ... .. . ... : ... .. 2 ... : ... .. . ... ... : ... .. . ... ... : ... .. . ... ... : ... .. . ... ...
ROW 67 : ... .. . ... ... ... : ... .. . ... ... ... : --- .. . ... : ... .. 0 ... : ... .. . ... ... : ... .. . ... ... : ... .. . ... ... : ... .. . ... ...
ROW 68 : ... .. . ... ... ... : G-2 00 7 ... ... ... : F-4 00 . ... : 9-# 00 F ... : ... .. . ... ... : C#4 01 8 P80 ... : A-4 01 8 P80 ... : ... .. . ... ...
ROW 69 : ... .. . ... ... ... : ... .. 6 ... ... ... : G-3 00 . ... : ... .. C ... : ... .. . ... ... : ... .. 7 ... ... : ... .. 7 ... ... : ... .. . ... ...
ROW 6A : ... .. . ... ... ... : ... .. . ... ... ... : C-3 00 . ... : ... .. 6 ... : ... .. . ... ... : ... .. 6 ... ... : ... .. 6 ... ... : ... .. . ... ...
ROW 6B : ... .. . ... ... ... : ... .. . ... ... ... : B-2 00 . ... : ... .. 3 ... : ... .. . ... ... : ... .. 5 ... ... : ... .. 5 ... ... : ... .. . ... ...
ROW 6C : ... .. . ... ... ... : A-2 00 7 ... ... ... : F#2 00 . ... : ... .. 2 ... : ... .. . ... ... : ... .. . ... ... : ... .. . ... ... : ... .. . ... ...
ROW 6D : ... .. . ... ... ... : ... .. 6 ... ... ... : --- .. . ... : ... .. 0 ... : ... .. . ... ... : --- .. . ... ... : --- .. . ... ... : ... .. . ... ...
ROW 6E : ... .. . ... ... ... : ... .. . ... ... ... : F#3 00 . ... : ... .. F ... : ... .. . ... ... : ... .. . ... ... : ... .. . ... ... : ... .. . ... ...
ROW 6F : ... .. . ... ... ... : ... .. . ... ... ... : ... .. . ... : ... .. C ... : ... .. . ... ... : ... .. . ... ... : ... .. . ... ... : ... .. . ... ...
ROW 70 : ... .. . ... ... ... : B-2 00 8 ... ... ... : ... .. . ... : ... .. 6 ... : ... .. . ... ... : C#4 01 8 ... ... : A-4 01 8 ... ... : ... .. . ... ...
ROW 71 : ... .. . ... ... ... : ... .. 7 ... ... ... : ... .. . ... : ... .. 3 ... : ... .. . ... ... : ... .. 7 ... ... : ... .. 7 ... ... : ... .. . ... ...
ROW 72 : ... .. . ... ... ... : ... .. . ... ... ... : ... .. . ... : ... .. 2 ... : ... .. . ... ... : ... .. 6 ... ... : ... .. 6 ... ... : ... .. . ... ...
ROW 73 : ... .. . ... ... ... : ... .. 6 ... ... ... : --- .. . ... : ... .. 0 ... : ... .. . ... ... : ... .. 5 ... ... : ... .. 5 ... ... : ... .. . ... ...
ROW 74 : ... .. . ... ... ... : C#3 00 8 ... ... ... : E-3 00 . ... : 7-# 00 F ... : ... .. . ... ... : --- .. . ... ... : --- .. . ... ... : ... .. . ... ...
ROW 75 : ... .. . ... ... ... : ... .. 7 ... ... ... : ... .. . ... : ... .. C ... : ... .. . ... ... : ... .. . ... ... : ... .. . ... ... : ... .. . ... ...
ROW 76 : ... .. . ... ... ... : ... .. . ... ... ... : ... .. . ... : ... .. 6 ... : ... .. . ... ... : ... .. . ... ... : ... .. . ... ... : ... .. . ... ...
ROW 77 : ... .. . ... ... ... : ... .. 6 ... ... ... : ... .. . ... : ... .. 3 ... : ... .. . ... ... : ... .. . ... ... : ... .. . ... ... : ... .. . ... ...
ROW 78 : ... .. . ... ... ... : D-3 00 8 ... ... ... : ... .. . ... : ... .. 2 ... : ... .. . ... ... : C#4 01 8 ... ... : A-4 01 8 ... ... : ... .. . ... ...
ROW 79 : ... .. . ... ... ... : ... .. 7 ... ... ... : --- .. . ... : ... .. 0 ... : ... .. . ... ... : ... .. 7 ... ... : ... .. 7 ... ... : ... .. . ... ...
ROW 7A : ... .. . ... ... ... : ... .. . ... ... ... : F#3 00 . ... : ... .. F ... : ... .. . ... ... : ... .. 6 ... ... : ... .. 6 ... ... : ... .. . ... ...
ROW 7B : ... .. 1 ... ... ... : ... .. 6 ... ... ... : ... .. . ... : ... .. C ... : ... .. . ... ... : ... .. 5 ... ... : ... .. 5 ... ... : ... .. 3 ... ...
ROW 7C : ... .. . ... ... ... : E-3 00 9 ... ... ... : ... .. . ... : ... .. 6 ... : ... .. . ... ... : ... .. . ... ... : ... .. . ... ... : ... .. . ... ...
ROW 7D : ... .. . ... ... ... : ... .. 8 ... ... ... : ... .. . ... : ... .. 3 ... : ... .. . ... ... : --- .. . ... ... : --- .. . ... ... : ... .. 1 ... ...
ROW 7E : ... .. . ... ... ... : ... .. . ... ... ... : ... .. . ... : ... .. 2 ... : ... .. . ... ... : ... .. . ... ... : ... .. . ... ... : ... .. . ... ...
ROW 7F : ... .. . ... ... ... : ... .. 7 ... ... ... : --- .. . ... : ... .. 0 ... : ... .. . ... ... : ... .. . ... ... : ... .. . ... ... : ... .. . ... ...
ROW 80 : B-3 00 C ... ... ... : F#3 00 9 ... ... ... : F-4 00 . ... : 9-# 00 F ... : ... .. . ... ... : D-4 01 8 ... ... : G-4 01 8 ... ... : B-2 01 C ... ...
ROW 81 : ... .. B ... ... ... : ... .. 8 ... ... ... : G-3 00 . ... : ... .. C ... : ... .. . ... ... : ... .. 7 ... ... : ... .. 7 ... ... : ... .. A ... ...
ROW 82 : ... .. A ... ... ... : ... .. . ... ... ... : C-3 00 . ... : ... .. 6 ... : ... .. . ... ... : ... .. 6 ... ... : ... .. 6 ... ... : ... .. 6 ... ...
ROW 83 : ... .. 8 ... ... ... : ... .. 7 ... ... ... : B-2 00 . ... : ... .. 3 ... : ... .. . ... ... : ... .. 5 ... ... : ... .. 5 ... ... : ... .. . ... ...
ROW 84 : ... .. . ... ... ... : E-3 00 9 ... ... ... : F#2 00 . ... : ... .. 2 ... : ... .. . ... ... : ... .. . ... ... : ... .. . ... ... : ... .. . ... ...
ROW 85 : ... .. . ... ... ... : ... .. 8 ... ... ... : ... .. . ... : ... .. 0 ... : ... .. . ... ... : ... .. 4 ... ... : ... .. 4 ... ... : ... .. . ... ...
ROW 86 : ... .. . ... ... ... : ... .. . ... ... ... : F-2 00 . P84 : 2-# 00 F ... : ... .. . ... ... : ... .. . ... ... : ... .. . ... ... : ... .. . ... ...
ROW 87 : ... .. . ... ... ... : ... .. 7 ... ... ... : E-2 00 . P8A : ... .. C ... : ... .. . ... ... : ... .. . ... ... : ... .. . ... ... : ... .. . ... ...
ROW 88 : ... .. . ... ... ... : D-3 00 A ... ... ... : D#2 00 . P92 : ... .. 6 ... : ... .. . ... ... : ... .. . ... ... : ... .. . ... ... : ... .. . ... ...
ROW 89 : ... .. . ... ... ... : ... .. 8 ... ... ... : ... .. . P72 : ... .. 3 ... : ... .. . ... ... : --- .. . ... ... : --- .. . ... ... : ... .. . ... ...
ROW 8A : ... .. . ... ... ... : ... .. . ... ... ... : D-2 00 . P7D : ... .. 2 ... : ... .. . ... ... : ... .. . ... ... : ... .. . ... ... : ... .. . ... ...
ROW 8B : ... .. . ... ... ... : ... .. . ... ... ... : --- .. . ... : ... .. 0 ... : ... .. . ... ... : ... .. . ... ... : ... .. . ... ... : ... .. . ... ...
ROW 8C : ... .. . ... ... ... : C#3 00 A ... ... ... : E-1 00 . P80 : 1-# 00 F ... : ... .. . ... ... : D-4 01 6 ... ... : G-4 01 6 ... ... : ... .. . ... ...
ROW 8D : ... .. . ... ... ... : ... .. 8 ... ... ... : ... .. . ... : ... .. C ... : ... .. . ... ... : ... .. 4 ... ... : ... .. 4 ... ... : ... .. . ... ...
ROW 8E : ... .. . ... ... ... : ... .. . ... ... ... : ... .. . ... : ... .. 6 ... : ... .. . ... ... : ... .. 3 ... ... : ... .. 3 ... ... : ... .. . ... ...
ROW 8F : ... .. . ... ... ... : ... .. . ... ... ... : ... .. . ... : ... .. 3 ... : ... .. . ... ... : ... .. 1 ... ... : ... .. 1 ... ... : ... .. . ... ...
ROW 90 : ... .. . ... ... ... : B-2 00 B ... ... ... : ... .. . ... : ... .. 2 ... : ... .. . ... ... : ... .. 6 ... ... : ... .. 6 ... ... : ... .. . ... ...
ROW 91 : ... .. . ... ... ... : ... .. 9 ... ... ... : --- .. . ... : ... .. 0 ... : ... .. . ... ... : ... .. 4 ... ... : ... .. 4 ... ... : ... .. . ... ...
ROW 92 : ... .. . ... ... ... : ... .. . ... ... ... : F#1 00 . ... : C-# 00 F ... : ... .. . ... ... : ... .. 3 ... ... : ... .. 3 ... ... : ... .. . ... ...
ROW 93 : ... .. . ... ... ... : ... .. 8 ... ... ... : ... .. . ... : ... .. C ... : ... .. . ... ... : ... .. 1 ... ... : ... .. 1 ... ... : ... .. . ... ...
ROW 94 : ... .. . ... ... ... : A-2 00 B ... ... ... : ... .. . ... : ... .. 6 ... : ... .. . ... ... : ... .. 6 ... ... : ... .. 6 ... ... : ... .. . ... ...
ROW 95 : ... .. . ... ... ... : ... .. 9 ... ... ... : ... .. . ... : ... .. 3 ... : ... .. . ... ... : ... .. 4 ... ... : ... .. 4 ... ... : ... .. . ... ...
ROW 96 : ... .. . ... ... ... : ... .. . ... ... ... : ... .. . ... : ... .. 2 ... : ... .. . ... ... : ... .. 3 ... ... : ... .. 3 ... ... : ... .. . ... ...
ROW 97 : ... .. . ... ... ... : ... .. 8 ... ... ... : --- .. . ... : ... .. 0 ... : ... .. . ... ... : ... .. 1 ... ... : ... .. 1 ... ... : ... .. . ... ...
ROW 98 : ... .. . ... ... ... : B-2 00 B ... ... ... : F-3 00 . ... : 7-# 00 F ... : ... .. . ... ... : ... .. 8 ... ... : ... .. 8 ... ... : ... .. . ... ...
ROW 99 : ... .. . ... ... ... : ... .. 9 ... ... ... : G-2 00 . ... : ... .. C ... : ... .. . ... ... : ... .. 7 ... ... : ... .. 7 ... ... : ... .. . ... ...
ROW 9A : ... .. . ... ... ... : ... .. . ... ... ... : C-2 00 . ... : ... .. 6 ... : ... .. . ... ... : ... .. 6 ... ... : ... .. 6 ... ... : ... .. . ... ...
ROW 9B : ... .. . ... ... ... : ... .. 8 ... ... ... : B-1 00 . ... : ... .. 3 ... : ... .. . ... ... : ... .. 5 ... ... : ... .. 5 ... ... : ... .. . ... ...
ROW 9C : ... .. . ... ... ... : C#3 00 C ... ... ... : F#1 00 . ... : ... .. 2 ... : ... .. . ... ... : ... .. . ... ... : ... .. . ... ... : ... .. . ... ...
ROW 9D : ... .. . ... ... ... : ... .. A ... ... ... : --- .. . ... : ... .. 0 ... : ... .. . ... ... : --- .. . ... ... : --- .. . ... ... : ... .. . ... ...
ROW 9E : ... .. . ... ... ... : ... .. . ... ... ... : F#2 00 . ... : 1-# 00 F ... : ... .. . ... ... : ... .. . ... ... : ... .. . ... ... : ... .. . ... ...
ROW 9F : ... .. . ... ... ... : ... .. 9 ... ... ... : ... .. . ... : ... .. C ... : ... .. . ... ... : ... .. . ... ... : ... .. . ... ... : ... .. . ... ...
ROW A0 : ... .. . ... ... ... : D-3 00 C ... ... ... : ... .. . ... : ... .. 6 ... : ... .. . ... ... : D-4 01 8 ... ... : G-4 01 8 ... ... : ... .. . ... ...
ROW A1 : ... .. . ... ... ... : ... .. A ... ... ... : ... .. . ... : ... .. 3 ... : ... .. . ... ... : ... .. 7 ... ... : ... .. 7 ... ... : ... .. . ... ...
ROW A2 : ... .. . ... ... ... : ... .. . ... ... ... : ... .. . ... : ... .. 2 ... : ... .. . ... ... : ... .. 6 ... ... : ... .. 6 ... ... : ... .. . ... ...
ROW A3 : ... .. . ... ... ... : ... .. 9 ... ... ... : --- .. . ... : ... .. 0 ... : ... .. . ... ... : ... .. 5 ... ... : ... .. 5 ... ... : ... .. . ... ...
ROW A4 : ... .. C ... ... ... : E-3 00 D ... ... ... : E-2 00 . ... : C-# 00 F ... : ... .. . ... ... : --- .. . ... ... : --- .. . ... ... : ... .. C ... ...
ROW A5 : ... .. B ... ... ... : ... .. B ... ... ... : ... .. . ... : ... .. C ... : ... .. . ... ... : ... .. . ... ... : ... .. . ... ... : ... .. A ... ...
ROW A6 : ... .. A ... ... ... : ... .. . ... ... ... : ... .. . ... : ... .. 6 ... : ... .. . ... ... : ... .. . ... ... : ... .. . ... ... : ... .. 6 ... ...
ROW A7 : ... .. 0 ... ... ... : ... .. A ... ... ... : ... .. . ... : ... .. 3 ... : ... .. . ... ... : ... .. . ... ... : ... .. . ... ... : --- .. . P8B ...
ROW A8 : ... .. . ... ... ... : F#3 00 C ... ... ... : ... .. . ... : ... .. 2 ... : ... .. . ... ... : D-4 01 8 ... ... : G-4 01 8 ... ... : ... .. . ... ...
ROW A9 : ... .. . ... ... ... : ... .. A ... ... ... : --- .. . ... : ... .. 0 ... : ... .. . ... ... : ... .. 7 ... ... : ... .. 7 ... ... : ... .. . ... ...
ROW AA : A-3 00 C P80 ... ... : ... .. . ... ... ... : F#2 00 . ... : 7-# 00 F ... : ... .. . ... ... : ... .. 6 ... ... : ... .. 6 ... ... : A-2 01 C P80 ...
ROW AB : ... .. B ... ... ... : ... .. 9 ... ... ... : ... .. . ... : ... .. C ... : ... .. . ... ... : ... .. 5 ... ... : ... .. 5 ... ... : ... .. A ... ...
ROW AC : ... .. A ... ... ... : G-3 00 B ... ... ... : ... .. . ... : ... .. 6 ... : ... .. . ... ... : ... .. . ... ... : ... .. . ... ... : ... .. 6 ... ...
ROW AD : ... .. 0 ... ... ... : ... .. 9 ... ... ... : ... .. . ... : ... .. 3 ... : ... .. . ... ... : --- .. . ... ... : --- .. . ... ... : --- .. . ... ...
ROW AE : ... .. . ... ... ... : ... .. . ... ... ... : ... .. . ... : ... .. 2 ... : ... .. . ... ... : ... .. . ... ... : ... .. . ... ... : ... .. . ... ...
ROW AF : ... .. . ... ... ... : ... .. 8 ... ... ... : --- .. . ... : ... .. 0 ... : ... .. . ... ... : ... .. . ... ... : ... .. . ... ... : ... .. . ... ...
ROW B0 : G-3 00 C P80 ... ... : F#3 00 A ... ... ... : F-5 00 . ... : 1-# 00 F ... : ... .. . ... ... : D-3 01 8 ... ... : G-3 01 8 ... ... : G-2 01 C ... ...
ROW B1 : ... .. B ... ... ... : ... .. 8 ... ... ... : G-4 00 . ... : ... .. C ... : ... .. . ... ... : ... .. 7 ... ... : ... .. 7 ... ... : ... .. A ... ...
ROW B2 : ... .. A ... ... ... : ... .. . ... ... ... : C-4 00 . ... : ... .. 6 ... : ... .. . ... ... : ... .. 6 ... ... : ... .. 6 ... ... : ... .. 6 ... ...
ROW B3 : ... .. 8 ... ... ... : ... .. . ... ... ... : B-3 00 . ... : ... .. 3 ... : ... .. . ... ... : ... .. 5 ... ... : ... .. 5 ... ... : ... .. . ... ...
ROW B4 : ... .. . ... ... ... : E-3 00 9 ... ... ... : F#3 00 . ... : ... .. 2 ... : ... .. . ... ... : ... .. . ... ... : ... .. . ... ... : ... .. . ... ...
ROW B5 : ... .. . ... ... ... : ... .. 8 ... ... ... : ... .. . ... : ... .. 0 ... : ... .. . ... ... : --- .. . P82 ... : --- .. . P81 ... : ... .. . ... ...
ROW B6 : ... .. . ... ... ... : ... .. . ... ... ... : E-3 00 . P85 : B-# 00 F ... : ... .. . ... ... : ... .. . ... ... : ... .. . ... ... : ... .. . ... ...
ROW B7 : ... .. . ... ... ... : ... .. 7 ... ... ... : D#3 00 . P7A : ... .. C ... : ... .. . ... ... : ... .. . ... ... : ... .. . ... ... : ... .. . ... ...
ROW B8 : ... .. . ... ... ... : D-3 00 9 ... ... ... : C#3 00 . P86 : ... .. 6 ... : ... .. . ... ... : D-3 01 8 P80 ... : G-3 01 8 P80 ... : ... .. . ... ...
ROW B9 : ... .. . ... ... ... : ... .. 7 ... ... ... : C-3 00 . P7E : ... .. 3 ... : ... .. . ... ... : ... .. 7 ... ... : ... .. 7 ... ... : ... .. . ... ...
ROW BA : ... .. . ... ... ... : ... .. . ... ... ... : B-2 00 . P77 : ... .. 2 ... : ... .. . ... ... : ... .. 6 ... ... : ... .. 6 ... ... : ... .. . ... ...
ROW BB : ... .. . ... ... ... : ... .. 6 ... ... ... : --- .. . ... : ... .. 0 ... : ... .. . ... ... : ... .. 5 ... ... : ... .. 5 ... ... : ... .. . ... ...
ROW BC : ... .. . ... ... ... : C#3 00 8 ... ... ... : E-2 00 . P80 : 7-# 00 F ... : ... .. . ... ... : --- .. . P82 ... : --- .. . P81 ... : ... .. . ... ...
ROW BD : ... .. . ... ... ... : ... .. 7 ... ... ... : ... .. . ... : ... .. C ... : ... .. . ... ... : ... .. . ... ... : ... .. . ... ... : ... .. . ... ...
ROW BE : ... .. . ... ... ... : ... .. . ... ... ... : ... .. . ... : ... .. 6 ... : ... .. . ... ... : ... .. . ... ... : ... .. . ... ... : ... .. . ... ...
ROW BF : ... .. . ... ... ... : ... .. 6 ... ... ... : ... .. . ... : ... .. 3 ... : ... .. . ... ... : ... .. . ... ... : ... .. . ... ... : ... .. . ... ...
ROW C0 : ... .. . ... ... ... : B-2 00 7 ... ... ... : ... .. . ... : ... .. 2 ... : ... .. . ... ... : D-3 01 8 P80 ... : G-3 01 8 P80 ... : ... .. . ... ...
ROW C1 : ... .. . ... ... ... : ... .. 6 ... ... ... : --- .. . ... : ... .. 0 ... : ... .. . ... ... : ... .. 7 ... ... : ... .. 7 ... ... : ... .. . ... ...
ROW C2 : ... .. . ... ... ... : ... .. . ... ... ... : F#2 00 . ... : 1-# 00 F ... : ... .. . ... ... : ... .. 6 ... ... : ... .. 6 ... ... : ... .. . ... ...
ROW C3 : ... .. . ... ... ... : ... .. . ... ... ... : ... .. . ... : ... .. C ... : ... .. . ... ... : ... .. 5 ... ... : ... .. 5 ... ... : ... .. . ... ...
ROW C4 : ... .. . ... ... ... : A-2 00 6 ... ... ... : ... .. . ... : ... .. 6 ... : ... .. . ... ... : ... .. . ... ... : ... .. . ... ... : ... .. . ... ...
ROW C5 : ... .. . ... ... ... : ... .. 5 ... ... ... : ... .. . ... : ... .. 3 ... : ... .. . ... ... : --- .. . P82 ... : --- .. . P81 ... : ... .. . ... ...
ROW C6 : ... .. . ... ... ... : ... .. . ... ... ... : ... .. . ... : ... .. 2 ... : ... .. . ... ... : ... .. . ... ... : ... .. . ... ... : ... .. . ... ...
ROW C7 : ... .. . ... ... ... : ... .. . ... ... ... : --- .. . ... : ... .. 0 ... : ... .. . ... ... : ... .. . ... ... : ... .. . ... ... : ... .. . ... ...
ROW C8 : ... .. . ... ... ... : B-2 00 6 ... ... ... : F-4 00 . ... : 9-# 00 F ... : ... .. . ... ... : D-4 01 8 P80 ... : B-4 01 8 P80 ... : ... .. . ... ...
ROW C9 : ... .. . ... ... ... : ... .. 5 ... ... ... : G-3 00 . ... : ... .. C ... : ... .. . ... ... : ... .. 7 ... ... : ... .. 7 ... ... : ... .. . ... ...
ROW CA : ... .. . ... ... ... : ... .. . ... ... ... : C-3 00 . ... : ... .. 6 ... : ... .. . ... ... : ... .. 6 ... ... : ... .. 6 ... ... : ... .. . ... ...
ROW CB : ... .. . ... ... ... : ... .. 4 ... ... ... : B-2 00 . ... : ... .. 3 ... : ... .. . ... ... : ... .. 5 ... ... : ... .. 5 ... ... : ... .. . ... ...
ROW CC : ... .. . ... ... ... : C#3 00 6 ... ... ... : F#2 00 . ... : ... .. 2 ... : ... .. . ... ... : ... .. . ... ... : ... .. . ... ... : ... .. . ... ...
ROW CD : ... .. . ... ... ... : ... .. 5 ... ... ... : --- .. . ... : ... .. 0 ... : ... .. . ... ... : --- .. . ... ... : --- .. . ... ... : ... .. . ... ...
ROW CE : ... .. . ... ... ... : ... .. . ... ... ... : F#3 00 . ... : ... .. F ... : ... .. . ... ... : ... .. . ... ... : ... .. . ... ... : ... .. . ... ...
ROW CF : ... .. . ... ... ... : ... .. 4 ... ... ... : ... .. . ... : ... .. C ... : ... .. . ... ... : ... .. . ... ... : ... .. . ... ... : ... .. . ... ...
ROW D0 : ... .. . ... ... ... : D-3 00 5 ... ... ... : ... .. . ... : ... .. 6 ... : ... .. . ... ... : D-4 01 8 ... ... : B-4 01 8 ... ... : ... .. . ... ...
ROW D1 : ... .. . ... ... ... : ... .. 3 ... ... ... : ... .. . ... : ... .. 3 ... : ... .. . ... ... : ... .. 7 ... ... : ... .. 7 ... ... : ... .. . ... ...
ROW D2 : ... .. . ... ... ... : ... .. . ... ... ... : ... .. . ... : ... .. 2 ... : ... .. . ... ... : ... .. 6 ... ... : ... .. 6 ... ... : ... .. . ... ...
ROW D3 : ... .. . ... ... ... : ... .. . ... ... ... : --- .. . ... : ... .. 0 ... : ... .. . ... ... : ... .. 5 ... ... : ... .. 5 ... ... : ... .. . ... ...
ROW D4 : ... .. . ... ... ... : E-3 00 4 ... ... ... : E-3 00 . ... : 7-# 00 F ... : ... .. . ... ... : --- .. . ... ... : --- .. . ... ... : ... .. . ... ...
ROW D5 : ... .. 1 ... ... ... : ... .. 3 ... ... ... : ... .. . ... : ... .. C ... : ... .. . ... ... : ... .. . ... ... : ... .. . ... ... : ... .. 3 ... ...
ROW D6 : ... .. . ... ... ... : ... .. . ... ... ... : ... .. . ... : ... .. 6 ... : ... .. . ... ... : ... .. . ... ... : ... .. . ... ... : ... .. . ... ...
ROW D7 : ... .. . ... ... ... : ... .. . ... ... ... : ... .. . ... : ... .. 3 ... : ... .. . ... ... : ... .. . ... ... : ... .. . ... ... : ... .. 1 ... ...
ROW D8 : ... .. . ... ... ... : F#3 00 3 ... ... ... : ... .. . ... : ... .. 2 ... : ... .. . ... ... : D-4 01 8 ... ... : B-4 01 8 ... ... : ... .. . ... ...
ROW D9 : ... .. . ... ... ... : ... .. 2 ... ... ... : --- .. . ... : ... .. 0 ... : ... .. . ... ... : ... .. 7 ... ... : ... .. 7 ... ... : ... .. . ... ...
ROW DA : ... .. . ... ... ... : ... .. . ... ... ... : F#3 00 . ... : ... .. F ... : ... .. . ... ... : ... .. 6 ... ... : ... .. 6 ... ... : ... .. . ... ...
ROW DB : ... .. 0 ... ... ... : ... .. . ... ... ... : ... .. . ... : ... .. C ... : ... .. . ... ... : ... .. 5 ... ... : ... .. 5 ... ... : ... .. . ... ...
ROW DC : ... .. . ... ... ... : G-3 00 3 ... ... ... : ... .. . ... : ... .. 6 ... : ... .. . ... ... : ... .. . ... ... : ... .. . ... ... : ... .. . ... ...
ROW DD : ... .. . ... ... ... : ... .. 2 ... ... ... : ... .. . ... : ... .. 3 ... : ... .. . ... ... : --- .. . ... ... : --- .. . ... ... : ... .. . ... ...
ROW DE : ... .. . ... ... ... : ... .. . ... ... ... : ... .. . ... : ... .. 2 ... : ... .. . ... ... : ... .. . ... ... : ... .. . ... ... : ... .. 0 ... ...
ROW DF : ... .. . ... ... ... : ... .. . ... ... ... : --- .. . ... : ... .. 0 ... : ... .. . ... ... : ... .. . ... ... : ... .. . ... ... : ... .. . ... ...
ROW E0 : ... .. . ... ... ... : B-2 00 3 ... ... ... : F#5 00 . ... : ... .. F ... : ... .. . ... ... : D-4 01 8 ... ... : B-4 01 8 ... ... : C#5 01 C ... ...
ROW E1 : ... .. . ... ... ... : ... .. 2 ... ... ... : G#4 00 . ... : ... .. C ... : ... .. . ... ... : ... .. 7 ... ... : ... .. 7 ... ... : ... .. A ... ...
ROW E2 : ... .. . ... ... ... : ... .. . ... ... ... : C#4 00 . ... : ... .. 6 ... : ... .. . ... ... : ... .. 6 ... ... : ... .. 6 ... ... : ... .. 6 ... ...
ROW E3 : ... .. . ... ... ... : ... .. . ... ... ... : C-4 00 . ... : 9-# 00 D ... : ... .. . ... ... : ... .. 5 ... ... : ... .. 5 ... ... : ... .. . ... ...
ROW E4 : ... .. . ... ... ... : C#3 00 3 ... ... ... : G-3 00 . ... : ... .. B ... : ... .. . ... ... : ... .. . ... ... : ... .. . ... ... : ... .. . ... ...
ROW E5 : ... .. . ... ... ... : ... .. 2 ... ... ... : ... .. . ... : ... .. . ... : ... .. . ... ... : --- .. . ... ... : --- .. . ... ... : --- .. . ... ...
ROW E6 : ... .. . ... ... ... : ... .. . ... ... ... : ... .. . ... : ... .. A ... : ... .. . ... ... : ... .. . ... ... : ... .. . ... ... : ... .. . ... ...
ROW E7 : ... .. . ... ... ... : ... .. . ... ... ... : ... .. . ... : ... .. 8 ... : ... .. . ... ... : ... .. . ... ... : ... .. . ... ... : ... .. . ... ...
ROW E8 : ... .. . ... ... ... : D-3 00 3 ... ... ... : F#5 00 . ... : ... .. 7 ... : ... .. . ... ... : D-4 01 8 ... ... : B-4 01 8 ... ... : C#5 01 C ... ...
ROW E9 : ... .. . ... ... ... : ... .. . ... ... ... : G#4 00 . ... : ... .. 6 ... : ... .. . ... ... : ... .. 7 ... ... : ... .. 7 ... ... : ... .. A ... ...
ROW EA : ... .. . ... ... ... : ... .. . ... ... ... : C#4 00 . ... : ... .. . ... : ... .. . ... ... : ... .. 6 ... ... : ... .. 6 ... ... : ... .. 6 ... ...
ROW EB : ... .. . ... ... ... : ... .. . ... ... ... : C-4 00 . ... : ... .. 5 ... : ... .. . ... ... : ... .. 5 ... ... : ... .. 5 ... ... : ... .. . ... ...
ROW EC : ... .. . ... ... ... : E-3 00 4 ... ... ... : G-3 00 . ... : 7-# 00 F ... : ... .. . ... ... : --- .. . ... ... : --- .. . ... ... : --- .. . ... ...
ROW ED : ... .. . ... ... ... : ... .. 3 ... ... ... : ... .. . ... : ... .. C ... : ... .. . ... ... : ... .. . ... ... : ... .. . ... ... : ... .. . ... ...
ROW EE : ... .. . ... ... ... : ... .. . ... ... ... : ... .. . ... : ... .. 6 ... : ... .. . ... ... : ... .. . ... ... : ... .. . ... ... : ... .. . ... ...
ROW EF : ... .. . ... ... ... : ... .. . ... ... ... : ... .. . ... : ... .. 3 ... : ... .. . ... ... : ... .. . ... ... : ... .. . ... ... : ... .. . ... ...
ROW F0 : ... .. . ... ... ... : F#3 00 5 ... ... ... : F#5 00 . ... : ... .. F ... : ... .. . ... ... : D-4 01 8 ... ... : B-4 01 8 ... ... : C#5 01 C ... ...
ROW F1 : ... .. . ... ... ... : ... .. 4 ... ... ... : G#4 00 . ... : ... .. C ... : ... .. . ... ... : ... .. 7 ... ... : ... .. 7 ... ... : ... .. A ... ...
ROW F2 : ... .. . ... ... ... : ... .. . ... ... ... : C#4 00 . ... : ... .. 6 ... : ... .. . ... ... : ... .. 6 ... ... : ... .. 6 ... ... : ... .. 6 ... ...
ROW F3 : ... .. . ... ... ... : ... .. . ... ... ... : C-4 00 . ... : ... .. 3 ... : ... .. . ... ... : ... .. 5 ... ... : ... .. 5 ... ... : ... .. . ... ...
ROW F4 : ... .. . ... ... ... : G-3 00 5 ... ... ... : G-3 00 . ... : ... .. F ... : ... .. . ... ... : ... .. . ... ... : ... .. . ... ... : ... .. . ... ...
ROW F5 : ... .. . ... ... ... : ... .. . ... ... ... : ... .. . ... : ... .. C ... : ... .. . ... ... : --- .. . ... ... : --- .. . ... ... : --- .. . ... ...
ROW F6 : ... .. . ... ... ... : ... .. . ... ... ... : ... .. . ... : ... .. 6 ... : ... .. . ... ... : ... .. . ... ... : ... .. . ... ... : ... .. . ... ...
ROW F7 : ... .. . ... ... ... : ... .. 4 ... ... ... : ... .. . ... : ... .. 3 ... : ... .. . ... ... : ... .. . ... ... : ... .. . ... ... : ... .. . ... ...
ROW F8 : ... .. . ... ... ... : E-3 00 6 ... ... ... : F#4 00 . ... : ... .. F ... : ... .. . ... ... : D-2 01 8 ... ... : B-2 01 8 ... ... : C#3 01 C ... ...
ROW F9 : ... .. . ... ... ... : ... .. 5 ... ... ... : G#3 00 . ... : ... .. C ... : ... .. . ... ... : ... .. 7 ... ... : ... .. 7 ... ... : ... .. A ... ...
ROW FA : ... .. . ... ... ... : ... .. . ... ... ... : C#3 00 . ... : ... .. 6 ... : ... .. . ... ... : ... .. 6 ... ... : ... .. 6 ... ... : ... .. 6 ... ...
ROW FB : ... .. . ... ... ... : ... .. 4 ... ... ... : C-3 00 . ... : 9-# 00 D ... : ... .. . ... ... : ... .. 5 ... ... : ... .. 5 ... ... : ... .. . ... ...
ROW FC : ... .. . ... ... ... : F#3 00 6 ... ... ... : G-2 00 . ... : ... .. B ... : ... .. . ... ... : ... .. . ... ... : ... .. . ... ... : ... .. . ... ...
ROW FD : ... .. . ... ... ... : ... .. 5 ... ... ... : ... .. . ... : ... .. . ... : ... .. . ... ... : --- .. . P84 ... : --- .. . P85 ... : --- .. . ... ...
ROW FE : ... .. . ... ... ... : ... .. . ... ... ... : ... .. . ... : ... .. A ... : ... .. . ... ... : ... .. . ... ... : ... .. . ... ... : ... .. . ... ...
ROW FF : ... .. . ... ... ... : ... .. . ... ... ... : ... .. . ... : ... .. 8 ... : ... .. . ... ... : ... .. . ... ... : ... .. . ... ... : ... .. . ... ...

PATTERN 05
ROW 00 : ... .. . ... ... ... : G-3 00 6 ... ... ... : ... .. . ... : ... .. 7 ... : ... .. . ... ... : D-2 01 8 P80 ... : B-2 01 8 P80 ... : C#3 01 C ... ...
ROW 01 : ... .. . ... ... ... : ... .. . ... ... ... : ... .. . ... : ... .. 6 ... : ... .. . ... ... : ... .. 7 ... ... : ... .. 7 ... ... : ... .. A ... ...
ROW 02 : ... .. . ... ... ... : ... .. . ... ... ... : ... .. . ... : ... .. . ... : ... .. . ... ... : ... .. 6 ... ... : ... .. 6 ... ... : ... .. 6 ... ...
ROW 03 : ... .. . ... ... ... : ... .. . ... ... ... : ... .. . ... : ... .. 5 ... : ... .. . ... ... : ... .. 5 ... ... : ... .. 5 ... ... : ... .. . ... ...
ROW 04 : ... .. . ... ... ... : A-3 00 7 ... ... ... : ... .. . P70 : 7-# 00 F ... : ... .. . ... ... : --- .. . P84 ... : --- .. . P85 ... : --- .. . ... ...
ROW 05 : ... .. . ... ... ... : ... .. 6 ... ... ... : F#2 00 . P82 : ... .. C ... : ... .. . ... ... : ... .. . ... ... : ... .. . ... ... : ... .. . ... ...
ROW 06 : ... .. . ... ... ... : ... .. . ... ... ... : ... .. . P72 : ... .. 6 ... : ... .. . ... ... : ... .. . ... ... : ... .. . ... ... : ... .. . ... ...
ROW 07 : ... .. . ... ... ... : ... .. . ... ... ... : F-2 00 . P86 : ... .. 3 ... : ... .. . ... ... : ... .. . ... ... : ... .. . ... ... : ... .. . ... ...
ROW 08 : ... .. . ... ... ... : B-3 00 7 ... ... ... : ... .. . P76 : ... .. F ... : ... .. . ... ... : D-2 01 8 P80 ... : B-2 01 8 P80 ... : C#3 01 C ... ...
ROW 09 : ... .. . ... ... ... : ... .. 6 ... ... ... : E-2 00 . P8C : ... .. C ... : ... .. . ... ... : ... .. 7 ... ... : ... .. 7 ... ... : ... .. A ... ...
ROW 0A : ... .. . ... ... ... : ... .. . ... ... ... : ... .. . P7C : ... .. 6 ... : ... .. . ... ... : ... .. 6 ... ... : ... .. 6 ... ... : ... .. 6 ... ...
ROW 0B : ... .. . ... ... ... : ... .. . ... ... ... : D#2 00 . P94 : ... .. 3 ... : ... .. . ... ... : ... .. 5 ... ... : ... .. 5 ... ... : ... .. . ... ...
ROW 0C : ... .. . ... ... ... : C#4 00 8 ... ... ... : ... .. . P84 : ... .. F ... : ... .. . ... ... : ... .. . ... ... : ... .. . ... ... : ... .. . ... ...
ROW 0D : ... .. . ... ... ... : ... .. 7 ... ... ... : ... .. . P74 : ... .. C ... : ... .. . ... ... : --- .. . P84 ... : --- .. . P85 ... : --- .. . ... ...
ROW 0E : ... .. . ... ... ... : ... .. . ... ... ... : D-2 00 . P8F : ... .. 6 ... : ... .. . ... ... : ... .. . ... ... : ... .. . ... ... : ... .. . ... ...
ROW 0F : ... .. . ... ... ... : ... .. 6 ... ... ... : ... .. . P7F : ... .. 3 ... : ... .. . ... ... : ... .. . ... ... : ... .. . ... ... : ... .. . ... ...
ROW 10 : ... .. . ... ... ... : D-4 00 9 ... ... ... : C-5 00 . P80 : ... .. F ... : ... .. . ... ... : B-3 01 8 P80 ... : E-4 01 8 P80 ... : G-4 01 C ... ...
ROW 11 : ... .. . ... ... ... : ... .. 8 ... ... ... : D-4 00 . ... : ... .. C ... : ... .. . ... ... : ... .. 7 ... ... : ... .. 7 ... ... : ... .. A ... ...
ROW 12 : ... .. . ... ... ... : ... .. . ... ... ... : G-3 00 . ... : ... .. 6 ... : ... .. . ... ... : ... .. 6 ... ... : ... .. 6 ... ... : ... .. 6 ... ...
ROW 13 : ... .. . ... ... ... : ... .. 7 ... ... ... : F#3 00 . ... : ... .. 3 ... : ... .. . ... ... : ... .. 5 ... ... : ... .. 5 ... ... : ... .. . ... ...
ROW 14 : ... .. . ... ... ... : E-4 00 9 ... ... ... : C#3 00 . ... : ... .. 2 ... : ... .. . ... ... : ... .. . ... ... : ... .. . ... ... : ... .. . ... ...
ROW 15 : ... .. . ... ... ... : ... .. 8 ... ... ... : ... .. . ... : ... .. 0 ... : ... .. . ... ... : ... .. 4 ... ... : ... .. 4 ... ... : ... .. . ... ...
ROW 16 : ... .. . ... ... ... : ... .. . ... ... ... : ... .. . ... : ... .. . ... : ... .. . ... ... : ... .. . ... ... : ... .. . ... ... : ... .. . ... ...
ROW 17 : ... .. . ... ... ... : ... .. 7 ... ... ... : ... .. . ... : ... .. . ... : ... .. . ... ... : ... .. . ... ... : ... .. . ... ... : ... .. . ... ...
ROW 18 : ... .. . ... ... ... : F#4 00 A ... ... ... : C-5 00 . ... : ... .. F ... : ... .. . ... ... : ... .. . ... ... : ... .. . ... ... : ... .. . ... ...
ROW 19 : ... .. . ... ... ... : ... .. 8 ... ... ... : D-4 00 . ... : ... .. C ... : ... .. . ... ... : --- .. . ... ... : --- .. . ... ... : --- .. . ... ...
ROW 1A : ... .. . ... ... ... : ... .. . ... ... ... : G-3 00 . ... : ... .. 6 ... : ... .. . ... ... : ... .. . ... ... : ... .. . ... ... : ... .. . ... ...
ROW 1B : ... .. . ... ... ... : ... .. . ... ... ... : F#3 00 . ... : ... .. 3 ... : ... .. . ... ... : ... .. . ... ... : ... .. . ... ... : ... .. . ... ...
ROW 1C : ... .. . ... ... ... : G-4 00 B ... ... ... : C#3 00 . ... : ... .. 2 ... : ... .. . ... ... : B-3 01 6 ... ... : E-4 01 6 ... ... : G-4 01 A ... ...
ROW 1D : ... .. . ... ... ... : ... .. 9 ... ... ... : ... .. . ... : ... .. 0 ... : ... .. . ... ... : ... .. 4 ... ... : ... .. 4 ... ... : ... .. 6 ... ...
ROW 1E : ... .. . ... ... ... : ... .. . ... ... ... : ... .. . ... : ... .. . ... : ... .. . ... ... : ... .. 3 ... ... : ... .. 3 ... ... : ... .. 3 ... ...
ROW 1F : ... .. . ... ... ... : ... .. 8 ... ... ... : ... .. . ... : ... .. . ... : ... .. . ... ... : ... .. 1 ... ... : ... .. 1 ... ... : ... .. 2 ... ...
ROW 20 : ... .. . ... ... ... : A-4 00 B ... ... ... : C-5 00 . ... : ... .. F ... : ... .. . ... ... : ... .. 6 ... ... : ... .. 6 ... ... : ... .. A ... ...
ROW 21 : ... .. . ... ... ... : ... .. 9 ... ... ... : D-4 00 . ... : ... .. C ... : ... .. . ... ... : ... .. 4 ... ... : ... .. 4 ... ... : ... .. 6 ... ...
ROW 22 : ... .. . ... ... ... : ... .. . ... ... ... : G-3 00 . ... : ... .. 6 ... : ... .. . ... ... : ... .. 3 ... ... : ... .. 3 ... ... : ... .. 3 ... ...
ROW 23 : ... .. . ... ... ... : ... .. 8 ... ... ... : F#3 00 . ... : ... .. 3 ... : ... .. . ... ... : ... .. 1 ... ... : ... .. 1 ... ... : ... .. 2 ... ...
ROW 24 : ... .. . ... ... ... : B-4 00 C ... ... ... : C#3 00 . ... : ... .. 2 ... : ... .. . ... ... : ... .. 6 ... ... : ... .. 6 ... ... : ... .. A ... ...
ROW 25 : ... .. . ... ... ... : ... .. A ... ... ... : ... .. . ... : ... .. 0 ... : ... .. . ... ... : ... .. 4 ... ... : ... .. 4 ... ... : ... .. 6 ... ...
ROW 26 : ... .. . ... ... ... : ... .. . ... ... ... : ... .. . ... : ... .. . ... : ... .. . ... ... : ... .. 3 ... ... : ... .. 3 ... ... : ... .. 3 ... ...
ROW 27 : ... .. . ... ... ... : ... .. 9 ... ... ... : ... .. . ... : ... .. . ... : ... .. . ... ... : ... .. 1 ... ... : ... .. 1 ... ... : ... .. 2 ... ...
ROW 28 : ... .. . ... ... ... : G-4 00 D ... ... ... : F#5 00 . ... : ... .. F ... : ... .. . ... ... : B-2 01 8 ... ... : D-4 01 8 ... ... : ... .. C ... ...
ROW 29 : ... .. . ... ... ... : ... .. B ... ... ... : G#4 00 . ... : ... .. C ... : ... .. . ... ... : ... .. 7 ... ... : ... .. 7 ... ... : ... .. A ... ...
ROW 2A : ... .. . ... ... ... : ... .. . ... ... ... : C#4 00 . ... : ... .. 6 ... : ... .. . ... ... : ... .. 6 ... ... : ... .. 6 ... ... : ... .. 6 ... ...
ROW 2B : ... .. . ... ... ... : ... .. A ... ... ... : C-4 00 . ... : ... .. 3 ... : ... .. . ... ... : ... .. 5 ... ... : ... .. 5 ... ... : ... .. . ... ...
ROW 2C : ... .. . ... ... ... : A-4 00 D ... ... ... : G-3 00 . ... : ... .. 2 ... : ... .. . ... ... : ... .. . ... ... : ... .. . ... ... : ... .. . ... ...
ROW 2D : ... .. . ... ... ... : ... .. B ... ... ... : ... .. . ... : ... .. 0 ... : ... .. . ... ... : --- .. . P85 ... : --- .. . ... ... : --- .. . ... ...
ROW 2E : ... .. . ... ... ... : ... .. . ... ... ... : ... .. . ... : ... .. . ... : ... .. . ... ... : ... .. . ... ... : ... .. . ... ... : ... .. . ... ...
ROW 2F : ... .. . ... ... ... : ... .. A ... ... ... : ... .. . ... : ... .. . ... : ... .. . ... ... : ... .. . ... ... : ... .. . ... ... : ... .. . ... ...
ROW 30 : ... .. . ... ... ... : B-4 00 D ... ... ... : D#5 00 . ... : ... .. F ... : ... .. . ... ... : C#3 01 8 P80 ... : C#4 01 8 ... ... : F#4 01 C ... ...
ROW 31 : ... .. . ... ... ... : ... .. B ... ... ... : F-4 00 . ... : ... .. C ... : ... .. . ... ... : ... .. 7 ... ... : ... .. 7 ... ... : ... .. A ... ...
ROW 32 : ... .. . ... ... ... : ... .. . ... ... ... : A#3 00 . ... : ... .. 6 ... : ... .. . ... ... : ... .. 6 ... ... : ... .. 6 ... ... : ... .. 6 ... ...
ROW 33 : ... .. . ... ... ... : ... .. A ... ... ... : A-3 00 . ... : ... .. 3 ... : ... .. . ... ... : ... .. 5 ... ... : ... .. 5 ... ... : ... .. . ... ...
ROW 34 : ... .. . ... ... ... : C#5 00 D ... ... ... : E-3 00 . ... : ... .. 2 ... : ... .. . ... ... : --- .. . P83 ... : --- .. . ... ... : --- .. . ... ...
ROW 35 : ... .. . ... ... ... : ... .. B ... ... ... : ... .. . ... : ... .. 0 ... : ... .. . ... ... : ... .. . ... ... : ... .. . ... ... : ... .. . ... ...
ROW 36 : ... .. . ... ... ... : ... .. . ... ... ... : ... .. . ... : ... .. . ... : ... .. . ... ... : ... .. . ... ... : ... .. . ... ... : ... .. . ... ...
ROW 37 : ... .. . ... ... ... : ... .. A ... ... ... : ... .. . ... : ... .. . ... : ... .. . ... ... : ... .. . ... ... : ... .. . ... ... : ... .. . ... ...
ROW 38 : ... .. . ... ... ... : D-5 00 D ... ... ... : D#4 00 . ... : ... .. F ... : ... .. . ... ... : D-3 01 8 P80 ... : B-3 01 8 ... ... : E-4 01 C ... ...
ROW 39 : ... .. . ... ... ... : ... .. B ... ... ... : F-3 00 . ... : ... .. C ... : ... .. . ... ... : ... .. 7 ... ... : ... .. 7 ... ... : ... .. A ... ...
ROW 3A : ... .. . ... ... ... : ... .. . ... ... ... : A#2 00 . ... : ... .. 6 ... : ... .. . ... ... : ... .. 6 ... ... : ... .. 6 ... ... : ... .. 6 ... ...
ROW 3B : ... .. . ... ... ... : ... .. A ... ... ... : A-2 00 . ... : ... .. 3 ... : ... .. . ... ... : ... .. 5 ... ... : ... .. 5 ... ... : ... .. . ... ...
ROW 3C : ... .. . ... ... ... : E-5 00 D ... ... ... : E-2 00 . ... : ... .. 2 ... : ... .. . ... ... : ... .. . ... ... : ... .. . ... ... : ... .. . ... ...
ROW 3D : ... .. . ... ... ... : ... .. B ... ... ... : ... .. . ... : ... .. 0 ... : ... .. . ... ... : ... .. 4 ... ... : ... .. 4 ... ... : ... .. . ... ...
ROW 3E : ... .. . ... ... ... : ... .. . ... ... ... : ... .. . ... : ... .. . ... : ... .. . ... ... : ... .. . ... ... : ... .. . ... ... : ... .. . ... ...
ROW 3F : ... .. . ... ... ... : ... .. A ... ... ... : ... .. . ... : ... .. . ... : ... .. . ... ... : ... .. . ... ... : ... .. . ... ... : ... .. . ... ...
ROW 40 : ... .. . ... ... ... : F#5 00 D ... ... ... : F-5 00 . ... : 9-# 00 F ... : ... .. . ... ... : A-3 01 8 ... ... : F#4 01 8 ... ... : F#1 01 D ... ...
ROW 41 : ... .. . ... ... ... : ... .. B ... ... ... : G-4 00 . ... : ... .. C ... : ... .. . ... ... : ... .. 7 ... ... : ... .. 7 ... ... : ... .. B ... ...
ROW 42 : ... .. . ... ... ... : ... .. . ... ... ... : C-4 00 . ... : ... .. 6 ... : ... .. . ... ... : ... .. 6 ... ... : ... .. 6 ... ... : ... .. 6 ... ...
ROW 43 : ... .. . ... ... ... : ... .. 9 ... ... ... : B-3 00 . ... : ... .. 3 ... : ... .. . ... ... : ... .. 5 ... ... : ... .. 5 ... ... : ... .. . ... ...
ROW 44 : ... .. . ... ... ... : ... .. 7 ... ... ... : F#3 00 . ... : ... .. 2 ... : ... .. . ... ... : ... .. . ... ... : ... .. . ... ... : ... .. . ... ...
ROW 45 : ... .. . ... ... ... : ... .. 6 ... ... ... : ... .. . ... : ... .. 0 ... : ... .. . ... ... : ... .. 4 ... ... : ... .. 4 ... ... : ... .. . ... ...
ROW 46 : ... .. . ... ... ... : C#5 00 C ... ... ... : E-3 00 . P85 : 2-# 00 F ... : ... .. . ... ... : ... .. . ... ... : ... .. . ... ... : ... .. . ... ...
ROW 47 : ... .. . ... ... ... : ... .. A ... ... ... : D#3 00 . P7A : ... .. C ... : ... .. . ... ... : ... .. . ... ... : ... .. . ... ... : ... .. . ... ...
ROW 48 : ... .. . ... ... ... : ... .. . ... ... ... : C#3 00 . P86 : ... .. 6 ... : ... .. . ... ... : ... .. . ... ... : ... .. . ... ... : ... .. . ... ...
ROW 49 : ... .. . ... ... ... : ... .. 8 ... ... ... : C-3 00 . P7E : ... .. 3 ... : ... .. . ... ... : ... .. . ... ... : ... .. . ... ... : ... .. . ... ...
ROW 4A : ... .. . ... ... ... : ... .. 6 ... ... ... : B-2 00 . P77 : ... .. 2 ... : ... .. . ... ... : ... .. . ... ... : ... .. . ... ... : ... .. . ... ...
ROW 4B : ... .. . ... ... ... : ... .. . ... ... ... : --- .. . ... : ... .. 0 ... : ... .. . ... ... : ... .. . ... ... : ... .. . ... ... : ... .. . ... ...
ROW 4C : F#2 00 C P80 ... ... : A-4 00 B ... ... ... : E-2 00 . P80 : 1-# 00 F ... : ... .. . ... ... : ... .. . ... ... : ... .. . ... ... : ... .. . ... ...
ROW 4D : ... .. B ... ... ... : ... .. 9 ... ... ... : ... .. . ... : ... .. C ... : ... .. . ... ... : ... .. . ... ... : ... .. . ... ... : ... .. 3 ... ...
ROW 4E : ... .. A ... ... ... : ... .. . ... ... ... : ... .. . ... : ... .. 6 ... : ... .. . ... ... : ... .. 2 ... ... : ... .. 2 ... ... : ... .. . ... ...
ROW 4F : ... .. 8 ... ... ... : ... .. 8 ... ... ... : ... .. . ... : ... .. 3 ... : ... .. . ... ... : ... .. . ... ... : ... .. . ... ... : ... .. 1 ... ...
ROW 50 : ... .. 1 ... ... ... : ... .. 6 ... ... ... : ... .. . ... : ... .. 2 ... : ... .. . ... ... : ... .. . ... ... : ... .. . ... ... : ... .. . ... ...
ROW 51 : ... .. . ... ... ... : ... .. 5 ... ... ... : --- .. . ... : ... .. 0 ... : ... .. . ... ... : ... .. . ... ... : ... .. . ... ... : ... .. . ... ...
ROW 52 : ... .. C ... ... ... : F#4 00 A ... ... ... : F#2 00 . ... : C-# 00 F ... : ... .. . ... ... : ... .. 8 ... ... : ... .. 8 ... ... : ... .. . ... ...
ROW 53 : ... .. B ... ... ... : ... .. 8 ... ... ... : ... .. . ... : ... .. C ... : ... .. . ... ... : ... .. 7 ... ... : ... .. 7 ... ... : ... .. . ... ...
ROW 54 : ... .. A ... ... ... : ... .. . ... ... ... : ... .. . ... : ... .. 6 ... : ... .. . ... ... : ... .. 6 ... ... : ... .. 6 ... ... : ... .. . ... ...
ROW 55 : ... .. 8 ... ... ... : ... .. 7 ... ... ... : ... .. . ... : ... .. 3 ... : ... .. . ... ... : ... .. 4 ... ... : ... .. 4 ... ... : ... .. . ... ...
ROW 56 : ... .. 1 ... ... ... : ... .. 5 ... ... ... : ... .. . ... : ... .. 2 ... : ... .. . ... ... : ... .. . ... ... : ... .. . ... ... : ... .. 0 ... ...
ROW 57 : ... .. . ... ... ... : ... .. . ... ... ... : --- .. . ... : ... .. 0 ... : ... .. . ... ... : ... .. 2 ... ... : ... .. 2 ... ... : ... .. . ... ...
ROW 58 : C#3 00 C ... ... ... : C#4 00 9 ... ... ... : F-4 00 . ... : 7-# 00 F ... : ... .. . ... ... : F#4 01 8 ... ... : C#5 01 8 ... ... : ... .. D ... ...
ROW 59 : ... .. B ... ... ... : ... .. 8 ... ... ... : G-3 00 . ... : ... .. C ... : ... .. . ... ... : ... .. 7 ... ... : ... .. 7 ... ... : ... .. B ... ...
ROW 5A : ... .. A ... ... ... : ... .. . ... ... ... : C-3 00 . ... : ... .. 6 ... : ... .. . ... ... : ... .. 6 ... ... : ... .. 6 ... ... : ... .. 6 ... ...
ROW 5B : ... .. 8 ... ... ... : ... .. 7 ... ... ... : B-2 00 . ... : ... .. 3 ... : ... .. . ... ... : ... .. 5 ... ... : ... .. 5 ... ... : ... .. . ... ...
ROW 5C : ... .. . ... ... ... : ... .. 5 ... ... ... : F#2 00 . ... : ... .. 2 ... : ... .. . ... ... : ... .. . ... ... : ... .. . ... ... : ... .. . ... ...
ROW 5D : ... .. . ... ... ... : ... .. . ... ... ... : --- .. . ... : ... .. 0 ... : ... .. . ... ... : ... .. 4 ... ... : ... .. 4 ... ... : ... .. . ... ...
ROW 5E : ... .. . ... ... ... : A-3 00 8 ... ... ... : F#3 00 . ... : 1-# 00 F ... : ... .. . ... ... : ... .. . ... ... : ... .. . ... ... : ... .. . ... ...
ROW 5F : ... .. . ... ... ... : ... .. 7 ... ... ... : ... .. . ... : ... .. C ... : ... .. . ... ... : ... .. . ... ... : ... .. . ... ... : ... .. . ... ...
ROW 60 : ... .. . ... ... ... : ... .. . ... ... ... : ... .. . ... : ... .. 6 ... : ... .. . ... ... : ... .. . ... ... : ... .. . ... ... : ... .. . ... ...
ROW 61 : ... .. . ... ... ... : ... .. 6 ... ... ... : ... .. . ... : ... .. 3 ... : ... .. . ... ... : ... .. . ... ... : ... .. . ... ... : ... .. . ... ...
ROW 62 : ... .. 1 ... ... ... : ... .. 5 ... ... ... : ... .. . ... : ... .. 2 ... : ... .. . ... ... : ... .. . ... ... : ... .. . ... ... : ... .. . ... ...
ROW 63 : ... .. . ... ... ... : ... .. 4 ... ... ... : --- .. . ... : ... .. 0 ... : ... .. . ... ... : ... .. . ... ... : ... .. . ... ... : ... .. . ... ...
ROW 64 : F#2 00 C ... ... ... : F#3 00 7 ... ... ... : E-3 00 . ... : C-# 00 F ... : ... .. . ... ... : ... .. . ... ... : ... .. . ... ... : ... .. . ... ...
ROW 65 : ... .. B ... ... ... : ... .. 6 ... ... ... : ... .. . ... : ... .. C ... : ... .. . ... ... : ... .. . ... ... : ... .. . ... ... : ... .. 3 ... ...
ROW 66 : ... .. A ... ... ... : ... .. . ... ... ... : ... .. . ... : ... .. 6 ... : ... .. . ... ... : ... .. . ... ... : ... .. . ... ... : ... .. . ... ...
ROW 67 : ... .. 8 ... ... ... : ... .. . ... ... ... : ... .. . ... : ... .. 3 ... : ... .. . ... ... : ... .. . ... ... : ... .. . ... ... : ... .. 1 ... ...
ROW 68 : ... .. 1 ... ... ... : ... .. 4 ... ... ... : ... .. . ... : ... .. 2 ... : ... .. . ... ... : ... .. . ... ... : ... .. . ... ... : ... .. . ... ...
ROW 69 : ... .. . ... ... ... : ... .. . ... ... ... : --- .. . ... : ... .. 0 ... : ... .. . ... ... : ... .. . ... ... : ... .. . ... ... : ... .. . ... ...
ROW 6A : C#3 00 C ... ... ... : C#3 00 6 ... ... ... : F#3 00 . ... : 7-# 00 F ... : ... .. . ... ... : ... .. . ... ... : ... .. . ... ... : ... .. . ... ...
ROW 6B : ... .. B ... ... ... : ... .. 5 ... ... ... : ... .. . ... : ... .. C ... : ... .. . ... ... : ... .. . ... ... : ... .. . ... ... : ... .. . ... ...
ROW 6C : ... .. A ... ... ... : ... .. . ... ... ... : ... .. . ... : ... .. 6 ... : ... .. . ... ... : ... .. 2 ... ... : ... .. 2 ... ... : ... .. . ... ...
ROW 6D : ... .. 8 ... ... ... : ... .. . ... ... ... : ... .. . ... : ... .. 3 ... : ... .. . ... ... : ... .. . ... ... : ... .. . ... ... : ... .. . ... ...
ROW 6E : ... .. 1 ... ... ... : ... .. 4 ... ... ... : ... .. . ... : ... .. 2 ... : ... .. . ... ... : ... .. . ... ... : ... .. . ... ... : ... .. 0 ... ...
ROW 6F : ... .. . ... ... ... : ... .. 3 ... ... ... : --- .. . ... : ... .. 0 ... : ... .. . ... ... : ... .. . ... ... : ... .. . ... ... : ... .. . ... ...
ROW 70 : B-2 00 C ... ... ... : D-3 00 6 ... ... ... : F-5 00 . ... : 1-# 00 F ... : ... .. . ... ... : G-4 01 8 ... ... : B-4 01 8 ... ... : ... .. D ... ...
ROW 71 : ... .. B ... ... ... : ... .. 5 ... ... ... : G-4 00 . ... : ... .. C ... : ... .. . ... ... : ... .. 7 ... ... : ... .. 7 ... ... : ... .. B ... ...
ROW 72 : ... .. A ... ... ... : ... .. . ... ... ... : C-4 00 . ... : ... .. 6 ... : ... .. . ... ... : ... .. 6 ... ... : ... .. 6 ... ... : ... .. 6 ... ...
ROW 73 : ... .. 8 ... ... ... : ... .. . ... ... ... : B-3 00 . ... : ... .. 3 ... : ... .. . ... ... : ... .. 5 ... ... : ... .. 5 ... ... : ... .. . ... ...
ROW 74 : ... .. . ... ... ... : ... .. 4 ... ... ... : F#3 00 . ... : ... .. 2 ... : ... .. . ... ... : ... .. . ... ... : ... .. . ... ... : ... .. . ... ...
ROW 75 : ... .. . ... ... ... : ... .. 3 ... ... ... : ... .. . ... : ... .. 0 ... : ... .. . ... ... : ... .. 4 ... ... : ... .. 4 ... ... : ... .. . ... ...
ROW 76 : ... .. . ... ... ... : G-3 00 6 ... ... ... : E-3 00 . P85 : B-# 00 F ... : ... .. . ... ... : ... .. . ... ... : ... .. . ... ... : ... .. . ... ...
ROW 77 : ... .. . ... ... ... : ... .. 5 ... ... ... : D#3 00 . P7A : ... .. C ... : ... .. . ... ... : ... .. . ... ... : ... .. . ... ... : ... .. . ... ...
ROW 78 : ... .. . ... ... ... : ... .. . ... ... ... : C#3 00 . P86 : ... .. 6 ... : ... .. . ... ... : ... .. . ... ... : ... .. . ... ... : ... .. . ... ...
ROW 79 : ... .. . ... ... ... : ... .. . ... ... ... : C-3 00 . P7E : ... .. 3 ... : ... .. . ... ... : ... .. . ... ... : ... .. . ... ... : ... .. . ... ...
ROW 7A : ... .. . ... ... ... : ... .. 4 ... ... ... : B-2 00 . P77 : ... .. 2 ... : ... .. . ... ... : ... .. . ... ... : ... .. . ... ... : ... .. . ... ...
ROW 7B : ... .. . ... ... ... : ... .. 3 ... ... ... : --- .. . ... : ... .. 0 ... : ... .. . ... ... : ... .. . ... ... : ... .. . ... ... : ... .. . ... ...
ROW 7C : ... .. . ... ... ... : D-3 00 6 ... ... ... : E-2 00 . P80 : 7-# 00 F ... : ... .. . ... ... : ... .. . ... ... : ... .. . ... ... : ... .. . ... ...
ROW 7D : ... .. . ... ... ... : ... .. 5 ... ... ... : ... .. . ... : ... .. C ... : ... .. . ... ... : ... .. . ... ... : ... .. . ... ... : ... .. 3 ... ...
ROW 7E : ... .. . ... ... ... : ... .. . ... ... ... : ... .. . ... : ... .. 6 ... : ... .. . ... ... : ... .. . ... ... : ... .. . ... ... : ... .. . ... ...
ROW 7F : ... .. . ... ... ... : ... .. . ... ... ... : ... .. . ... : ... .. 3 ... : ... .. . ... ... : ... .. . ... ... : ... .. . ... ... : ... .. 1 ... ...
ROW 80 : ... .. . ... ... ... : ... .. 4 ... ... ... : ... .. . ... : ... .. 2 ... : ... .. . ... ... : ... .. . ... ... : ... .. . ... ... : ... .. . ... ...
ROW 81 : ... .. . ... ... ... : ... .. 3 ... ... ... : --- .. . ... : ... .. 0 ... : ... .. . ... ... : ... .. . ... ... : ... .. . ... ... : ... .. . ... ...
ROW 82 : ... .. . P84 ... ... : G-3 00 6 ... ... ... : F#2 00 . ... : 1-# 00 F ... : ... .. . ... ... : ... .. . ... ... : ... .. . ... ... : ... .. . ... ...
ROW 83 : ... .. . P86 ... ... : ... .. 5 ... ... ... : ... .. . ... : ... .. C ... : ... .. . ... ... : ... .. . ... ... : ... .. . ... ... : ... .. . ... ...
ROW 84 : ... .. . P85 ... ... : ... .. . ... ... ... : ... .. . ... : ... .. 6 ... : ... .. . ... ... : ... .. . ... ... : ... .. . ... ... : ... .. . ... ...
ROW 85 : ... .. . P82 ... ... : ... .. 6 ... ... ... : ... .. . ... : ... .. 3 ... : ... .. . ... ... : ... .. . ... ... : ... .. . ... ... : ... .. . ... ...
ROW 86 : ... .. . P7E ... ... : ... .. 4 ... ... ... : ... .. . ... : ... .. 2 ... : ... .. . ... ... : ... .. . ... ... : ... .. . ... ... : ... .. 0 ... ...
ROW 87 : ... .. . P7B ... ... : ... .. . ... ... ... : --- .. . ... : ... .. 0 ... : ... .. . ... ... : ... .. . ... ... : ... .. . ... ... : ... .. . ... ...
ROW 88 : ... .. . P7A ... ... : B-3 00 7 ... ... ... : F-4 00 . ... : 9-# 00 F ... : ... .. . ... ... : B-4 01 8 ... ... : D-5 01 8 ... ... : ... .. D ... ...
ROW 89 : ... .. . P7C ... ... : ... .. 6 ... ... ... : G-3 00 . ... : ... .. C ... : ... .. . ... ... : ... .. 7 ... ... : ... .. 7 ... ... : ... .. B ... ...
ROW 8A : ... .. . P80 ... ... : ... .. . ... ... ... : C-3 00 . ... : ... .. 6 ... : ... .. . ... ... : ... .. 6 ... ... : ... .. 6 ... ... : ... .. 6 ... ...
ROW 8B : ... .. . P83 ... ... : ... .. . ... ... ... : B-2 00 . ... : ... .. 3 ... : ... .. . ... ... : ... .. 5 ... ... : ... .. 5 ... ... : ... .. . ... ...
ROW 8C : ... .. . P86 ... ... : ... .. 4 ... ... ... : F#2 00 . ... : ... .. 2 ... : ... .. . ... ... : ... .. . ... ... : ... .. . ... ... : ... .. . ... ...
ROW 8D : ... .. . ... ... ... : ... .. . ... ... ... : --- .. . ... : ... .. 0 ... : ... .. . ... ... : ... .. 4 ... ... : ... .. 4 ... ... : ... .. . ... ...
ROW 8E : ... .. . P82 ... ... : D-4 00 7 ... ... ... : F#3 00 . ... : ... .. F ... : ... .. . ... ... : ... .. . ... ... : ... .. . ... ... : ... .. . ... ...
ROW 8F : ... .. . P7F ... ... : ... .. 6 ... ... ... : ... .. . ... : ... .. C ... : ... .. . ... ... : ... .. . ... ... : ... .. . ... ... : ... .. . ... ...
ROW 90 : ... .. . P7B ... ... : ... .. . ... ... ... : ... .. . ... : ... .. 6 ... : ... .. . ... ... : ... .. . ... ... : ... .. . ... ... : ... .. . ... ...
ROW 91 : ... .. . P7A ... ... : ... .. . ... ... ... : ... .. . ... : ... .. 3 ... : ... .. . ... ... : ... .. . ... ... : ... .. . ... ... : ... .. . ... ...
ROW 92 : ... .. 1 P7C ... ... : ... .. 4 ... ... ... : ... .. . ... : ... .. 2 ... : ... .. . ... ... : ... .. . ... ... : ... .. . ... ... : ... .. . ... ...
ROW 93 : ... .. . P80 ... ... : ... .. . ... ... ... : --- .. . ... : ... .. 0 ... : ... .. . ... ... : ... .. . ... ... : ... .. . ... ... : ... .. . ... ...
ROW 94 : ... .. . P83 ... ... : B-3 00 7 ... ... ... : E-3 00 . ... : 7-# 00 F ... : ... .. . ... ... : ... .. . ... ... : ... .. . ... ... : ... .. . ... ...
ROW 95 : ... .. . P86 ... ... : ... .. 6 ... ... ... : ... .. . ... : ... .. C ... : ... .. . ... ... : ... .. . ... ... : ... .. . ... ... : ... .. 3 ... ...
ROW 96 : ... .. . ... ... ... : ... .. . ... ... ... : ... .. . ... : ... .. 6 ... : ... .. . ... ... : ... .. . ... ... : ... .. . ... ... : ... .. . ... ...
ROW 97 : ... .. . P83 ... ... : ... .. . ... ... ... : ... .. . ... : ... .. 3 ... : ... .. . ... ... : ... .. . ... ... : ... .. . ... ... : ... .. 1 ... ...
ROW 98 : ... .. 0 ... ... ... : ... .. 4 ... ... ... : ... .. . ... : ... .. 2 ... : ... .. . ... ... : ... .. . ... ... : ... .. . ... ... : ... .. . ... ...
ROW 99 : ... .. . ... ... ... : ... .. . ... ... ... : --- .. . ... : ... .. 0 ... : ... .. . ... ... : ... .. . ... ... : ... .. . ... ... : ... .. . ... ...
ROW 9A : ... .. . ... ... ... : D-4 00 8 ... ... ... : F#3 00 . ... : ... .. F ... : ... .. . ... ... : ... .. . ... ... : ... .. . ... ... : ... .. . ... ...
ROW 9B : ... .. . ... ... ... : ... .. 7 ... ... ... : ... .. . ... : ... .. C ... : ... .. . ... ... : ... .. . ... ... : ... .. . ... ... : ... .. . ... ...
ROW 9C : ... .. . ... ... ... : ... .. . ... ... ... : ... .. . ... : ... .. 6 ... : ... .. . ... ... : ... .. 2 ... ... : ... .. 2 ... ... : ... .. . ... ...
ROW 9D : ... .. . ... ... ... : ... .. 6 ... ... ... : ... .. . ... : ... .. 3 ... : ... .. . ... ... : ... .. . ... ... : ... .. . ... ... : ... .. . ... ...
ROW 9E : ... .. . ... ... ... : ... .. 5 ... ... ... : ... .. . ... : ... .. 2 ... : ... .. . ... ... : ... .. . ... ... : ... .. . ... ... : ... .. 0 ... ...
ROW 9F : ... .. . ... ... ... : ... .. 4 ... ... ... : --- .. . ... : ... .. 0 ... : ... .. . ... ... : ... .. . ... ... : ... .. . ... ... : ... .. . ... ...
ROW A0 : ... .. . ... ... ... : G#3 00 8 ... ... ... : F-4 00 . ... : 9-# 00 F ... : ... .. . ... ... : G#4 01 8 ... ... : D#5 01 8 ... ... : ... .. D ... ...
ROW A1 : ... .. . ... ... ... : ... .. 7 ... ... ... : G-3 00 . ... : ... .. C ... : ... .. . ... ... : ... .. 7 ... ... : ... .. 7 ... ... : ... .. B ... ...
ROW A2 : ... .. . ... ... ... : ... .. . ... ... ... : C-3 00 . ... : ... .. 6 ... : ... .. . ... ... : ... .. 6 ... ... : ... .. 6 ... ... : ... .. 6 ... ...
ROW A3 : ... .. . ... ... ... : ... .. 6 ... ... ... : B-2 00 . ... : ... .. 3 ... : ... .. . ... ... : ... .. 5 ... ... : ... .. 5 ... ... : ... .. . ... ...
ROW A4 : ... .. . ... ... ... : ... .. 5 ... ... ... : F#2 00 . ... : ... .. 2 ... : ... .. . ... ... : ... .. . ... ... : ... .. . ... ... : ... .. . ... ...
ROW A5 : ... .. . ... ... ... : ... .. 4 ... ... ... : ... .. . ... : ... .. 0 ... : ... .. . ... ... : ... .. 4 ... ... : ... .. 4 ... ... : ... .. . ... ...
ROW A6 : ... .. . ... ... ... : C-4 00 8 ... ... ... : F-2 00 . P84 : 2-# 00 F ... : ... .. . ... ... : ... .. . ... ... : ... .. . ... ... : ... .. . ... ...
ROW A7 : ... .. . ... ... ... : ... .. 7 ... ... ... : E-2 00 . P8A : ... .. C ... : ... .. . ... ... : ... .. . ... ... : ... .. . ... ... : ... .. . ... ...
ROW A8 : ... .. . ... ... ... : ... .. . ... ... ... : D#2 00 . P92 : ... .. 6 ... : ... .. . ... ... : ... .. . ... ... : ... .. . ... ... : ... .. . ... ...
ROW A9 : ... .. . ... ... ... : ... .. 6 ... ... ... : ... .. . P72 : ... .. 3 ... : ... .. . ... ... : ... .. . ... ... : ... .. . ... ... : ... .. . ... ...
ROW AA : ... .. . ... ... ... : ... .. 5 ... ... ... : D-2 00 . P7D : ... .. 2 ... : ... .. . ... ... : ... .. . ... ... : ... .. . ... ... : ... .. . ... ...
ROW AB : ... .. . ... ... ... : ... .. 4 ... ... ... : --- .. . ... : ... .. 0 ... : ... .. . ... ... : ... .. . ... ... : ... .. . ... ... : ... .. . ... ...
ROW AC : G#2 00 C P80 ... ... : G#3 00 9 ... ... ... : E-1 00 . P80 : 1-# 00 F ... : ... .. . ... ... : ... .. . ... ... : ... .. . ... ... : ... .. . ... ...
ROW AD : ... .. B ... ... ... : ... .. 8 ... ... ... : ... .. . ... : ... .. C ... : ... .. . ... ... : ... .. . ... ... : ... .. . ... ... : ... .. 3 ... ...
ROW AE : ... .. A ... ... ... : ... .. . ... ... ... : ... .. . ... : ... .. 6 ... : ... .. . ... ... : ... .. 2 ... ... : ... .. 2 ... ... : ... .. . ... ...
ROW AF : ... .. 8 ... ... ... : ... .. 7 ... ... ... : ... .. . ... : ... .. 3 ... : ... .. . ... ... : ... .. . ... ... : ... .. . ... ... : ... .. 1 ... ...
ROW B0 : ... .. 1 ... ... ... : ... .. 5 ... ... ... : ... .. . ... : ... .. 2 ... : ... .. . ... ... : ... .. . ... ... : ... .. . ... ... : ... .. . ... ...
ROW B1 : ... .. . ... ... ... : ... .. . ... ... ... : --- .. . ... : ... .. 0 ... : ... .. . ... ... : ... .. . ... ... : ... .. . ... ... : ... .. . ... ...
ROW B2 : ... .. C ... ... ... : C-4 00 9 ... ... ... : F#1 00 . ... : C-# 00 F ... : ... .. . ... ... : D#4 01 8 ... ... : C-5 01 8 ... ... : ... .. . ... ...
ROW B3 : ... .. B ... ... ... : ... .. 8 ... ... ... : ... .. . ... : ... .. C ... : ... .. . ... ... : ... .. 7 ... ... : ... .. 7 ... ... : ... .. . ... ...
ROW B4 : ... .. A ... ... ... : ... .. . ... ... ... : ... .. . ... : ... .. 6 ... : ... .. . ... ... : ... .. 6 ... ... : ... .. 6 ... ... : ... .. . ... ...
ROW B5 : ... .. 8 ... ... ... : ... .. 7 ... ... ... : ... .. . ... : ... .. 3 ... : ... .. . ... ... : --- .. . ... ... : --- .. . ... ... : ... .. . ... ...
ROW B6 : ... .. 1 ... ... ... : ... .. 5 ... ... ... : ... .. . ... : ... .. 2 ... : ... .. . ... ... : ... .. . ... ... : ... .. . ... ... : ... .. 0 ... ...
ROW B7 : ... .. . ... ... ... : ... .. . ... ... ... : --- .. . ... : ... .. 0 ... : ... .. . ... ... : ... .. . ... ... : ... .. . ... ... : ... .. . ... ...
ROW B8 : D#3 00 C ... ... ... : E-4 00 9 ... ... ... : F-3 00 . ... : 7-# 00 F ... : ... .. . ... ... : D#4 01 8 ... ... : C-5 01 8 ... ... : ... .. D ... ...
ROW B9 : ... .. B ... ... ... : ... .. 8 ... ... ... : G-2 00 . ... : ... .. C ... : ... .. . ... ... : ... .. 7 ... ... : ... .. 7 ... ... : ... .. B ... ...
ROW BA : ... .. A ... ... ... : ... .. . ... ... ... : C-2 00 . ... : ... .. 6 ... : ... .. . ... ... : ... .. 6 ... ... : ... .. 6 ... ... : ... .. 6 ... ...
ROW BB : ... .. 8 ... ... ... : ... .. 7 ... ... ... : B-1 00 . ... : ... .. 3 ... : ... .. . ... ... : ... .. 5 ... ... : ... .. 5 ... ... : ... .. . ... ...
ROW BC : ... .. . ... ... ... : ... .. 5 ... ... ... : F#1 00 . ... : ... .. 2 ... : ... .. . ... ... : ... .. . ... ... : ... .. . ... ... : ... .. . ... ...
ROW BD : ... .. . ... ... ... : ... .. . ... ... ... : --- .. . ... : ... .. 0 ... : ... .. . ... ... : ... .. 4 ... ... : ... .. 4 ... ... : ... .. . ... ...
ROW BE : ... .. . ... ... ... : D#4 00 9 ... ... ... : F#2 00 . ... : 1-# 00 F ... : ... .. . ... ... : ... .. . ... ... : ... .. . ... ... : ... .. . ... ...
ROW BF : ... .. . ... ... ... : ... .. 8 ... ... ... : ... .. . ... : ... .. C ... : ... .. . ... ... : ... .. . ... ... : ... .. . ... ... : ... .. . ... ...
ROW C0 : ... .. . ... ... ... : ... .. . ... ... ... : ... .. . ... : ... .. 6 ... : ... .. . ... ... : ... .. . ... ... : ... .. . ... ... : ... .. . ... ...
ROW C1 : ... .. . ... ... ... : ... .. . ... ... ... : ... .. . ... : ... .. 3 ... : ... .. . ... ... : ... .. . ... ... : ... .. . ... ... : ... .. . ... ...
ROW C2 : ... .. 1 ... ... ... : ... .. 6 ... ... ... : ... .. . ... : ... .. 2 ... : ... .. . ... ... : ... .. . ... ... : ... .. . ... ... : ... .. . ... ...
ROW C3 : ... .. . ... ... ... : ... .. 5 ... ... ... : --- .. . ... : ... .. 0 ... : ... .. . ... ... : ... .. . ... ... : ... .. . ... ... : ... .. . ... ...
ROW C4 : G#2 00 C ... ... ... : C-4 00 A ... ... ... : E-2 00 . ... : C-# 00 F ... : ... .. . ... ... : ... .. . ... ... : ... .. . ... ... : ... .. . ... ...
ROW C5 : ... .. B ... ... ... : ... .. 8 ... ... ... : ... .. . ... : ... .. C ... : ... .. . ... ... : ... .. . ... ... : ... .. . ... ... : ... .. 3 ... ...
ROW C6 : ... .. A ... ... ... : ... .. . ... ... ... : ... .. . ... : ... .. 6 ... : ... .. . ... ... : ... .. . ... ... : ... .. . ... ... : ... .. . ... ...
ROW C7 : ... .. 8 ... ... ... : ... .. . ... ... ... : ... .. . ... : ... .. 3 ... : ... .. . ... ... : ... .. . ... ... : ... .. . ... ... : ... .. 1 ... ...
ROW C8 : ... .. 1 ... ... ... : ... .. 6 ... ... ... : ... .. . ... : ... .. 2 ... : ... .. . ... ... : ... .. . ... ... : ... .. . ... ... : ... .. . ... ...
ROW C9 : ... .. . ... ... ... : ... .. 5 ... ... ... : --- .. . ... : ... .. 0 ... : ... .. . ... ... : ... .. . ... ... : ... .. . ... ... : ... .. . ... ...
ROW CA : D#3 00 C ... ... ... : G#3 00 A ... ... ... : F#2 00 . ... : 7-# 00 F ... : ... .. . ... ... : ... .. . ... ... : ... .. . ... ... : ... .. . ... ...
ROW CB : ... .. B ... ... ... : ... .. 8 ... ... ... : ... .. . ... : ... .. C ... : ... .. . ... ... : ... .. . ... ... : ... .. . ... ... : ... .. . ... ...
ROW CC : ... .. A ... ... ... : ... .. . ... ... ... : ... .. . ... : ... .. 6 ... : ... .. . ... ... : ... .. . ... ... : ... .. . ... ... : ... .. . ... ...
ROW CD : ... .. 8 ... ... ... : ... .. . ... ... ... : ... .. . ... : ... .. 3 ... : ... .. . ... ... : --- .. . ... ... : --- .. . ... ... : ... .. . ... ...
ROW CE : ... .. 1 ... ... ... : ... .. 6 ... ... ... : ... .. . ... : ... .. 2 ... : ... .. . ... ... : ... .. . ... ... : ... .. . ... ... : ... .. 0 ... ...
ROW CF : ... .. . ... ... ... : ... .. 5 ... ... ... : --- .. . ... : ... .. 0 ... : ... .. . ... ... : ... .. . ... ... : ... .. . ... ... : ... .. . ... ...
ROW D0 : E-3 00 C ... ... ... : ... .. A ... ... ... : F-5 00 . ... : 1-# 00 F ... : ... .. . ... ... : C-4 01 8 ... ... : G#4 01 8 ... ... : ... .. D ... ...
ROW D1 : ... .. B ... ... ... : ... .. 8 ... ... ... : G-4 00 . ... : ... .. C ... : ... .. . ... ... : ... .. 7 ... ... : ... .. 7 ... ... : ... .. B ... ...
ROW D2 : ... .. A ... ... ... : ... .. . ... ... ... : C-4 00 . ... : ... .. 6 ... : ... .. . ... ... : ... .. 6 ... ... : ... .. 6 ... ... : ... .. 6 ... ...
ROW D3 : ... .. 8 ... ... ... : ... .. . ... ... ... : B-3 00 . ... : ... .. 3 ... : ... .. . ... ... : ... .. 5 ... ... : ... .. 5 ... ... : ... .. . ... ...
ROW D4 : ... .. 1 ... ... ... : ... .. 6 ... ... ... : F#3 00 . ... : ... .. 2 ... : ... .. . ... ... : ... .. . ... ... : ... .. . ... ... : ... .. . ... ...
ROW D5 : ... .. . ... ... ... : ... .. . ... ... ... : ... .. . ... : ... .. 0 ... : ... .. . ... ... : ... .. 4 ... ... : ... .. 4 ... ... : ... .. . ... ...
ROW D6 : ... .. . ... ... ... : C-4 00 B ... ... ... : E-3 00 . P85 : B-# 00 F ... : ... .. . ... ... : ... .. . ... ... : ... .. . ... ... : ... .. . ... ...
ROW D7 : ... .. . ... ... ... : ... .. 9 ... ... ... : D#3 00 . P7A : ... .. C ... : ... .. . ... ... : ... .. . ... ... : ... .. . ... ... : ... .. . ... ...
ROW D8 : D#3 00 C ... ... ... : ... .. . ... ... ... : C#3 00 . P86 : ... .. 6 ... : ... .. . ... ... : ... .. . ... ... : ... .. . ... ... : ... .. . ... ...
ROW D9 : ... .. B ... ... ... : ... .. 8 ... ... ... : C-3 00 . P7E : ... .. 3 ... : ... .. . ... ... : ... .. . ... ... : ... .. . ... ... : ... .. . ... ...
ROW DA : ... .. A ... ... ... : ... .. 6 ... ... ... : B-2 00 . P77 : ... .. 2 ... : ... .. . ... ... : ... .. . ... ... : ... .. . ... ... : ... .. . ... ...
ROW DB : ... .. 8 ... ... ... : ... .. . ... ... ... : --- .. . ... : ... .. 0 ... : ... .. . ... ... : ... .. . ... ... : ... .. . ... ... : ... .. . ... ...
ROW DC : ... .. . ... ... ... : G#3 00 B ... ... ... : E-2 00 . P80 : 7-# 00 F ... : ... .. . ... ... : ... .. . ... ... : ... .. . ... ... : ... .. . ... ...
ROW DD : ... .. 1 ... ... ... : ... .. 9 ... ... ... : ... .. . ... : ... .. C ... : ... .. . ... ... : ... .. . ... ... : ... .. . ... ... : ... .. 3 ... ...
ROW DE : ... .. . ... ... ... : ... .. . ... ... ... : ... .. . ... : ... .. 6 ... : ... .. . ... ... : ... .. . ... ... : ... .. . ... ... : ... .. . ... ...
ROW DF : ... .. . ... ... ... : ... .. 8 ... ... ... : ... .. . ... : ... .. 3 ... : ... .. . ... ... : --- .. . ... ... : --- .. . ... ... : ... .. 1 ... ...
ROW E0 : ... .. C ... ... ... : ... .. 6 ... ... ... : ... .. . ... : ... .. 2 ... : ... .. . ... ... : ... .. . ... ... : ... .. . ... ... : ... .. . ... ...
ROW E1 : ... .. B ... ... ... : ... .. . ... ... ... : --- .. . ... : ... .. 0 ... : ... .. . ... ... : ... .. . ... ... : ... .. . ... ... : ... .. . ... ...
ROW E2 : ... .. A ... ... ... : C-4 00 B ... ... ... : F#2 00 . ... : 1-# 00 F ... : ... .. . ... ... : G#3 01 8 ... ... : D#4 01 8 ... ... : ... .. . ... ...
ROW E3 : ... .. 8 ... ... ... : ... .. 9 ... ... ... : ... .. . ... : ... .. C ... : ... .. . ... ... : ... .. 7 ... ... : ... .. 7 ... ... : ... .. . ... ...
ROW E4 : ... .. . ... ... ... : ... .. . ... ... ... : ... .. . ... : ... .. 6 ... : ... .. . ... ... : ... .. 6 ... ... : ... .. 6 ... ... : ... .. . ... ...
ROW E5 : ... .. . ... ... ... : ... .. 8 ... ... ... : ... .. . ... : ... .. 3 ... : ... .. . ... ... : --- .. . P82 ... : --- .. . ... ... : ... .. . ... ...
ROW E6 : ... .. . ... ... ... : ... .. 6 ... ... ... : ... .. . ... : ... .. 2 ... : ... .. . ... ... : ... .. . ... ... : ... .. . ... ... : ... .. 0 ... ...
ROW E7 : ... .. . ... ... ... : ... .. . ... ... ... : --- .. . ... : ... .. 0 ... : ... .. . ... ... : ... .. . ... ... : ... .. . ... ... : ... .. . ... ...
ROW E8 : ... .. . ... ... ... : E-4 00 C ... ... ... : F-4 00 . ... : 9-# 00 F ... : ... .. . ... ... : G#3 01 8 P80 ... : D#4 01 8 ... ... : ... .. D ... ...
ROW E9 : ... .. . ... ... ... : ... .. A ... ... ... : G-3 00 . ... : ... .. C ... : ... .. . ... ... : ... .. 7 ... ... : ... .. 7 ... ... : ... .. B ... ...
ROW EA : ... .. . ... ... ... : ... .. . ... ... ... : C-3 00 . ... : ... .. 6 ... : ... .. . ... ... : ... .. 6 ... ... : ... .. 6 ... ... : ... .. 6 ... ...
ROW EB : ... .. . ... ... ... : ... .. 9 ... ... ... : B-2 00 . ... : ... .. 3 ... : ... .. . ... ... : ... .. 5 ... ... : ... .. 5 ... ... : ... .. . ... ...
ROW EC : ... .. . ... ... ... : ... .. 7 ... ... ... : F#2 00 . ... : ... .. 2 ... : ... .. . ... ... : ... .. . ... ... : ... .. . ... ... : ... .. . ... ...
ROW ED : ... .. . ... ... ... : ... .. 6 ... ... ... : --- .. . ... : ... .. 0 ... : ... .. . ... ... : ... .. 4 ... ... : ... .. 4 ... ... : ... .. . ... ...
ROW EE : ... .. . ... ... ... : D#4 00 C ... ... ... : F#3 00 . ... : ... .. F ... : ... .. . ... ... : ... .. . ... ... : ... .. . ... ... : ... .. . ... ...
ROW EF : ... .. . ... ... ... : ... .. A ... ... ... : ... .. . ... : ... .. C ... : ... .. . ... ... : ... .. . ... ... : ... .. . ... ... : ... .. . ... ...
ROW F0 : ... .. . ... ... ... : ... .. . ... ... ... : ... .. . ... : ... .. 6 ... : ... .. . ... ... : ... .. . ... ... : ... .. . ... ... : ... .. . ... ...
ROW F1 : ... .. . ... ... ... : ... .. 9 ... ... ... : ... .. . ... : ... .. 3 ... : ... .. . ... ... : ... .. . ... ... : ... .. . ... ... : ... .. . ... ...
ROW F2 : ... .. . ... ... ... : ... .. 7 ... ... ... : ... .. . ... : ... .. 2 ... : ... .. . ... ... : ... .. . ... ... : ... .. . ... ... : ... .. . ... ...
ROW F3 : ... .. . ... ... ... : ... .. 6 ... ... ... : --- .. . ... : ... .. 0 ... : ... .. . ... ... : ... .. . ... ... : ... .. . ... ... : ... .. . ... ...
ROW F4 : ... .. . ... ... ... : C-4 00 C ... ... ... : E-3 00 . ... : 7-# 00 F ... : ... .. . ... ... : ... .. . ... ... : ... .. . ... ... : ... .. . ... ...
ROW F5 : ... .. . ... ... ... : ... .. A ... ... ... : ... .. . ... : ... .. C ... : ... .. . ... ... : ... .. . ... ... : ... .. . ... ... : ... .. 3 ... ...
ROW F6 : ... .. . ... ... ... : ... .. . ... ... ... : ... .. . ... : ... .. 6 ... : ... .. . ... ... : ... .. . ... ... : ... .. . ... ... : ... .. . ... ...
ROW F7 : ... .. . P84 ... ... : ... .. 9 ... ... ... : ... .. . ... : ... .. 3 ... : ... .. . ... ... : ... .. . ... ... : ... .. . ... ... : ... .. 1 ... ...
ROW F8 : ... .. . P86 ... ... : ... .. 7 ... ... ... : ... .. . ... : ... .. 2 ... : ... .. . ... ... : ... .. . ... ... : ... .. . ... ... : ... .. . ... ...
ROW F9 : ... .. . P85 ... ... : ... .. 6 ... ... ... : --- .. . ... : ... .. 0 ... : ... .. . ... ... : ... .. . ... ... : ... .. . ... ... : ... .. . ... ...
ROW FA : ... .. . P82 ... ... : G#3 00 D ... ... ... : F#3 00 . ... : ... .. F ... : ... .. . ... ... : --- .. . P82 ... : --- .. . ... ... : ... .. . ... ...
ROW FB : ... .. . P7E ... ... : ... .. B ... ... ... : ... .. . ... : ... .. C ... : ... .. . ... ... : ... .. . ... ... : ... .. . ... ... : ... .. . ... ...
ROW FC : ... .. . P7B ... ... : ... .. . ... ... ... : ... .. . ... : ... .. 6 ... : ... .. . ... ... : ... .. . ... ... : ... .. . ... ... : ... .. . ... ...
ROW FD : ... .. . P7A ... ... : ... .. A ... ... ... : ... .. . ... : ... .. 3 ... : ... .. . ... ... : ... .. . ... ... : ... .. . ... ... : ... .. . ... ...
ROW FE : ... .. . P7C ... ... : ... .. 8 ... ... ... : ... .. . ... : ... .. 2 ... : ... .. . ... ... : ... .. . ... ... : ... .. . ... ... : ... .. 0 ... ...
ROW FF : ... .. . P80 ... ... : ... .. 7 ... ... ... : --- .. . ... : ... .. 0 ... : ... .. . ... ... : ... .. . ... ... : ... .. . ... ... : ... .. . ... ...

PATTERN 06
ROW 00 : ... .. . P83 ... ... : G-3 00 D ... ... ... : F#4 00 . ... : ... .. F ... : ... .. . ... ... : B-3 01 8 P80 ... : F#4 01 8 ... ... : ... .. . ... ...
ROW 01 : ... .. 1 P86 ... ... : ... .. B ... ... ... : G#3 00 . ... : ... .. C ... : ... .. . ... ... : ... .. 7 ... ... : ... .. 7 ... ... : ... .. . ... ...
ROW 02 : ... .. . ... ... ... : ... .. . ... ... ... : C#3 00 . ... : ... .. 6 ... : ... .. . ... ... : ... .. 6 ... ... : ... .. 6 ... ... : ... .. . ... ...
ROW 03 : ... .. . P82 ... ... : ... .. A ... ... ... : C-3 00 . ... : 9-# 00 D ... : ... .. . ... ... : ... .. 5 ... ... : ... .. 5 ... ... : ... .. . ... ...
ROW 04 : ... .. . P7F ... ... : ... .. 8 ... ... ... : G-2 00 . ... : ... .. B ... : ... .. . ... ... : ... .. . ... ... : ... .. . ... ... : ... .. . ... ...
ROW 05 : ... .. . P7B ... ... : ... .. 0 ... ... ... : ... .. . ... : ... .. . ... : ... .. . ... ... : --- .. . ... ... : --- .. . ... ... : ... .. . ... ...
ROW 06 : ... .. . P7A ... ... : ... .. . ... ... ... : ... .. . ... : ... .. A ... : ... .. . ... ... : ... .. . ... ... : ... .. . ... ... : ... .. . ... ...
ROW 07 : ... .. 0 ... ... ... : ... .. . ... ... ... : ... .. . ... : ... .. 8 ... : ... .. . ... ... : ... .. . ... ... : ... .. . ... ... : ... .. . ... ...
ROW 08 : ... .. . ... ... ... : G-3 00 D P80 ... ... : F#4 00 . ... : ... .. 7 ... : ... .. . ... ... : B-3 01 8 ... ... : F#4 01 8 ... ... : ... .. . ... ...
ROW 09 : ... .. . ... ... ... : ... .. B ... ... ... : G#3 00 . ... : ... .. 6 ... : ... .. . ... ... : ... .. 7 ... ... : ... .. 7 ... ... : ... .. . ... ...
ROW 0A : ... .. . ... ... ... : ... .. . ... ... ... : C#3 00 . ... : ... .. . ... : ... .. . ... ... : ... .. 6 ... ... : ... .. 6 ... ... : ... .. . ... ...
ROW 0B : ... .. . ... ... ... : ... .. A ... ... ... : C-3 00 . ... : ... .. 5 ... : ... .. . ... ... : ... .. 5 ... ... : ... .. 5 ... ... : ... .. . ... ...
ROW 0C : F#3 00 C P80 ... ... : ... .. 0 ... ... ... : G-2 00 . ... : 7-# 00 F ... : ... .. . ... ... : --- .. . ... ... : --- .. . ... ... : ... .. . ... ...
ROW 0D : ... .. B ... ... ... : ... .. . ... ... ... : ... .. . ... : ... .. C ... : ... .. . ... ... : ... .. . ... ... : ... .. . ... ... : ... .. . ... ...
ROW 0E : ... .. A ... ... ... : ... .. . ... ... ... : ... .. . ... : ... .. 6 ... : ... .. . ... ... : ... .. . ... ... : ... .. . ... ... : ... .. . ... ...
ROW 0F : ... .. 0 ... ... ... : ... .. . ... ... ... : ... .. . ... : ... .. 3 ... : ... .. . ... ... : ... .. . ... ... : ... .. . ... ... : ... .. . ... ...
ROW 10 : ... .. . ... ... ... : G-3 00 D P80 ... ... : F#4 00 . ... : ... .. F ... : ... .. . ... ... : B-3 01 8 ... ... : F#4 01 8 ... ... : ... .. . ... ...
ROW 11 : ... .. . ... ... ... : ... .. B ... ... ... : G#3 00 . ... : ... .. C ... : ... .. . ... ... : ... .. 7 ... ... : ... .. 7 ... ... : ... .. . ... ...
ROW 12 : F#3 00 C P80 ... ... : ... .. . ... ... ... : C#3 00 . ... : ... .. 6 ... : ... .. . ... ... : ... .. 6 ... ... : ... .. 6 ... ... : ... .. . ... ...
ROW 13 : ... .. B ... ... ... : ... .. A ... ... ... : C-3 00 . ... : ... .. 3 ... : ... .. . ... ... : ... .. 5 ... ... : ... .. 5 ... ... : ... .. . ... ...
ROW 14 : ... .. A ... ... ... : ... .. 8 ... ... ... : G-2 00 . ... : ... .. F ... : ... .. . ... ... : ... .. . ... ... : ... .. . ... ... : ... .. . ... ...
ROW 15 : ... .. 0 ... ... ... : ... .. 0 ... ... ... : ... .. . ... : ... .. C ... : ... .. . ... ... : --- .. . ... ... : --- .. . ... ... : ... .. . ... ...
ROW 16 : ... .. . ... ... ... : ... .. . ... ... ... : ... .. . ... : ... .. 6 ... : ... .. . ... ... : ... .. . ... ... : ... .. . ... ... : ... .. . ... ...
ROW 17 : ... .. . ... ... ... : ... .. . ... ... ... : ... .. . ... : ... .. 3 ... : ... .. . ... ... : ... .. . ... ... : ... .. . ... ... : ... .. . ... ...
ROW 18 : C#4 00 C P80 ... ... : B-2 00 D P80 ... ... : F#3 00 . ... : ... .. F ... : ... .. . ... ... : D-3 01 8 ... ... : E-3 01 8 ... ... : ... .. . ... ...
ROW 19 : ... .. B ... ... ... : ... .. B ... ... ... : G#2 00 . ... : ... .. C ... : ... .. . ... ... : ... .. 7 ... ... : ... .. 7 ... ... : ... .. . ... ...
ROW 1A : ... .. A ... ... ... : ... .. . ... ... ... : C#2 00 . ... : ... .. 6 ... : ... .. . ... ... : ... .. 6 ... ... : ... .. 6 ... ... : ... .. . ... ...
ROW 1B : ... .. 8 ... ... ... : ... .. A ... ... ... : C-2 00 . ... : 9-# 00 D ... : ... .. . ... ... : ... .. 5 ... ... : ... .. 5 ... ... : ... .. . ... ...
ROW 1C : ... .. . ... ... ... : ... .. 8 ... ... ... : G-1 00 . ... : ... .. B ... : ... .. . ... ... : ... .. . ... ... : ... .. . ... ... : ... .. . ... ...
ROW 1D : ... .. . ... ... ... : ... .. 0 ... ... ... : ... .. . ... : ... .. . ... : ... .. . ... ... : --- .. . P82 ... : --- .. . P82 ... : ... .. . ... ...
ROW 1E : ... .. . ... ... ... : ... .. . ... ... ... : ... .. . ... : ... .. A ... : ... .. . ... ... : ... .. . ... ... : ... .. . ... ... : ... .. . ... ...
ROW 1F : ... .. . ... ... ... : ... .. . ... ... ... : ... .. . ... : ... .. 8 ... : ... .. . ... ... : ... .. . ... ... : ... .. . ... ... : ... .. . ... ...
ROW 20 : ... .. . ... ... ... : B-2 00 A P80 ... ... : ... .. . ... : ... .. 7 ... : ... .. . ... ... : D-3 01 8 P80 ... : E-3 01 8 P80 ... : ... .. . ... ...
ROW 21 : ... .. . ... ... ... : ... .. 8 ... ... ... : ... .. . ... : ... .. 6 ... : ... .. . ... ... : ... .. 7 ... ... : ... .. 7 ... ... : ... .. . ... ...
ROW 22 : ... .. 1 ... ... ... : ... .. . ... ... ... : ... .. . ... : ... .. . ... : ... .. . ... ... : ... .. 6 ... ... : ... .. 6 ... ... : ... .. . ... ...
ROW 23 : ... .. . ... ... ... : ... .. . ... ... ... : ... .. . ... : ... .. 5 ... : ... .. . ... ... : ... .. 5 ... ... : ... .. 5 ... ... : ... .. . ... ...
ROW 24 : F#3 00 C ... ... ... : F#4 00 C ... ... ... : ... .. . PA0 : 7-# 00 F ... : ... .. . ... ... : --- .. . P82 ... : --- .. . P82 ... : ... .. . ... ...
ROW 25 : ... .. B ... ... ... : ... .. B ... ... ... : G#1 00 . P80 : ... .. C ... : ... .. . ... ... : ... .. . ... ... : ... .. . ... ... : ... .. . ... ...
ROW 26 : ... .. A ... ... ... : ... .. A ... ... ... : A-1 00 . P64 : ... .. 6 ... : ... .. . ... ... : ... .. . ... ... : ... .. . ... ... : ... .. . ... ...
ROW 27 : ... .. 8 ... ... ... : ... .. 0 ... ... ... : ... .. . P84 : ... .. 3 ... : ... .. . ... ... : ... .. . ... ... : ... .. . ... ... : ... .. . ... ...
ROW 28 : ... .. 1 ... ... ... : ... .. . ... ... ... : A#1 00 . P6B : ... .. F ... : ... .. . ... ... : D-3 01 8 P80 ... : E-3 01 8 P80 ... : ... .. . ... ...
ROW 29 : ... .. . ... ... ... : ... .. . ... ... ... : ... .. . P8B : ... .. C ... : ... .. . ... ... : ... .. 7 ... ... : ... .. 7 ... ... : ... .. . ... ...
ROW 2A : C#4 00 C ... ... ... : F#4 00 C P80 ... ... : B-1 00 . P75 : ... .. 6 ... : ... .. . ... ... : ... .. 6 ... ... : ... .. 6 ... ... : ... .. . ... ...
ROW 2B : ... .. B ... ... ... : ... .. B ... ... ... : ... .. . P95 : ... .. 3 ... : ... .. . ... ... : ... .. 5 ... ... : ... .. 5 ... ... : ... .. . ... ...
ROW 2C : ... .. A ... ... ... : ... .. A ... ... ... : C-2 00 . P82 : ... .. F ... : ... .. . ... ... : ... .. . ... ... : ... .. . ... ... : ... .. . ... ...
ROW 2D : ... .. 8 ... ... ... : ... .. 0 ... ... ... : C#2 00 . P72 : ... .. C ... : ... .. . ... ... : --- .. . P82 ... : --- .. . P82 ... : ... .. . ... ...
ROW 2E : ... .. 1 ... ... ... : ... .. . ... ... ... : ... .. . P92 : ... .. 6 ... : ... .. . ... ... : ... .. . ... ... : ... .. . ... ... : ... .. . ... ...
ROW 2F : ... .. . ... ... ... : ... .. . ... ... ... : D-2 00 . P85 : ... .. 3 ... : ... .. . ... ... : ... .. . ... ... : ... .. . ... ... : ... .. . ... ...
ROW 30 : D-4 00 C ... ... ... : B-4 00 C P80 ... ... : F#4 00 . P80 : ... .. F ... : ... .. . ... ... : B-3 01 8 P80 ... : F#4 01 8 P80 ... : ... .. . ... ...
ROW 31 : ... .. B ... ... ... : ... .. B ... ... ... : G#3 00 . ... : ... .. C ... : ... .. . ... ... : ... .. 7 ... ... : ... .. 7 ... ... : ... .. . ... ...
ROW 32 : ... .. A ... ... ... : ... .. A ... ... ... : C#3 00 . ... : ... .. 6 ... : ... .. . ... ... : ... .. 6 ... ... : ... .. 6 ... ... : ... .. . ... ...
ROW 33 : ... .. 8 ... ... ... : ... .. 8 ... ... ... : C-3 00 . ... : ... .. 3 ... : ... .. . ... ... : ... .. 5 ... ... : ... .. 5 ... ... : ... .. . ... ...
ROW 34 : ... .. . ... ... ... : ... .. . ... ... ... : G-2 00 . ... : ... .. 2 ... : ... .. . ... ... : ... .. . ... ... : ... .. . ... ... : ... .. . ... ...
ROW 35 : ... .. . ... ... ... : ... .. . ... ... ... : ... .. . ... : ... .. 0 ... : ... .. . ... ... : --- .. . ... ... : --- .. . ... ... : ... .. . ... ...
ROW 36 : ... .. . ... ... ... : ... .. . ... ... ... : ... .. . ... : ... .. . ... : ... .. . ... ... : ... .. . ... ... : ... .. . ... ... : ... .. . ... ...
ROW 37 : ... .. . ... ... ... : ... .. . ... ... ... : ... .. . ... : ... .. . ... : ... .. . ... ... : ... .. . ... ... : ... .. . ... ... : ... .. . ... ...
ROW 38 : ... .. . ... ... ... : ... .. . ... ... ... : F#4 00 . ... : ... .. F ... : ... .. . ... ... : B-3 01 8 ... ... : F#4 01 8 ... ... : ... .. . ... ...
ROW 39 : ... .. . ... ... ... : ... .. . ... ... ... : G#3 00 . ... : ... .. C ... : ... .. . ... ... : ... .. 7 ... ... : ... .. 7 ... ... : ... .. . ... ...
ROW 3A : ... .. . ... ... ... : ... .. . ... ... ... : C#3 00 . ... : ... .. 6 ... : ... .. . ... ... : ... .. 6 ... ... : ... .. 6 ... ... : ... .. . ... ...
ROW 3B : ... .. . ... ... ... : ... .. . ... ... ... : C-3 00 . ... : ... .. 3 ... : ... .. . ... ... : ... .. 5 ... ... : ... .. 5 ... ... : ... .. . ... ...
ROW 3C : ... .. . ... ... ... : ... .. . ... ... ... : G-2 00 . ... : ... .. 2 ... : ... .. . ... ... : --- .. . ... ... : --- .. . ... ... : ... .. . ... ...
ROW 3D : ... .. . ... ... ... : ... .. . ... ... ... : ... .. . ... : ... .. 0 ... : ... .. . ... ... : ... .. . ... ... : ... .. . ... ... : ... .. . ... ...
ROW 3E : ... .. . ... ... ... : ... .. . ... ... ... : ... .. . ... : ... .. . ... : ... .. . ... ... : ... .. . ... ... : ... .. . ... ... : ... .. . ... ...
ROW 3F : ... .. . ... ... ... : ... .. . ... ... ... : ... .. . ... : ... .. . ... : ... .. . ... ... : ... .. . ... ... : ... .. . ... ... : ... .. . ... ...
ROW 40 : ... .. . ... ... ... : ... .. . ... ... ... : F#4 00 . ... : ... .. F ... : ... .. . ... ... : B-3 01 8 ... ... : F#4 01 8 ... ... : ... .. . ... ...
ROW 41 : ... .. . ... ... ... : ... .. . ... ... ... : G#3 00 . ... : ... .. C ... : ... .. . ... ... : ... .. 7 ... ... : ... .. 7 ... ... : ... .. . ... ...
ROW 42 : ... .. . ... ... ... : ... .. . ... ... ... : C#3 00 . ... : ... .. 6 ... : ... .. . ... ... : ... .. 6 ... ... : ... .. 6 ... ... : ... .. . ... ...
ROW 43 : ... .. . ... ... ... : ... .. . ... ... ... : C-3 00 . ... : ... .. 3 ... : ... .. . ... ... : ... .. 5 ... ... : ... .. 5 ... ... : ... .. . ... ...
ROW 44 : ... .. . ... ... ... : ... .. . ... ... ... : G-2 00 . ... : ... .. 2 ... : ... .. . ... ... : ... .. . ... ... : ... .. . ... ... : ... .. . ... ...
ROW 45 : ... .. . ... ... ... : ... .. . ... ... ... : ... .. . ... : ... .. 0 ... : ... .. . ... ... : --- .. . ... ... : --- .. . ... ... : ... .. . ... ...
ROW 46 : ... .. . ... ... ... : ... .. . ... ... ... : ... .. . ... : ... .. . ... : ... .. . ... ... : ... .. . ... ... : ... .. . ... ... : ... .. . ... ...
ROW 47 : ... .. . ... ... ... : ... .. . ... ... ... : ... .. . ... : ... .. . ... : ... .. . ... ... : ... .. . ... ... : ... .. . ... ... : ... .. . ... ...
ROW 48 : D#4 00 8 P7C ... ... : C-5 00 8 P7E ... ... : D#4 00 . ... : ... .. F ... : ... .. . ... ... : G-4 01 8 ... ... : G-3 01 8 ... ... : ... .. . ... ...
ROW 49 : ... .. . P7F ... ... : ... .. . P80 ... ... : F-3 00 . ... : ... .. C ... : ... .. . ... ... : ... .. 7 ... ... : ... .. 7 ... ... : ... .. . ... ...
ROW 4A : ... .. . P7E ... ... : ... .. . P7F ... ... : A#2 00 . ... : ... .. 6 ... : ... .. . ... ... : ... .. 6 ... ... : ... .. 6 ... ... : ... .. . ... ...
ROW 4B : D-4 00 8 P82 ... ... : B-4 00 8 P82 ... ... : A-2 00 . ... : ... .. 3 ... : ... .. . ... ... : F#4 01 8 ... ... : F#3 01 8 ... ... : ... .. . ... ...
ROW 4C : ... .. . P7E ... ... : ... .. . P7E ... ... : E-2 00 . ... : ... .. 2 ... : ... .. . ... ... : ... .. 7 ... ... : ... .. 7 ... ... : ... .. . ... ...
ROW 4D : C#4 00 8 P84 ... ... : A#4 00 8 P82 ... ... : ... .. . ... : ... .. 0 ... : ... .. . ... ... : ... .. 6 ... ... : ... .. 6 ... ... : ... .. . ... ...
ROW 4E : ... .. . P83 ... ... : ... .. . P81 ... ... : ... .. . ... : ... .. . ... : ... .. . ... ... : E-4 01 8 ... ... : E-3 01 8 ... ... : ... .. . ... ...
ROW 4F : ... .. . P86 ... ... : ... .. . P83 ... ... : ... .. . ... : ... .. . ... : ... .. . ... ... : ... .. 7 ... ... : ... .. 7 ... ... : ... .. . ... ...
ROW 50 : D-4 00 8 P80 ... ... : B-4 00 8 P80 ... ... : F-4 00 . ... : ... .. F ... : ... .. . ... ... : ... .. 6 ... ... : ... .. 6 ... ... : ... .. . ... ...
ROW 51 : ... .. . P85 ... ... : ... .. . P83 ... ... : G-3 00 . ... : ... .. C ... : ... .. . ... ... : D-4 01 8 ... ... : D-3 01 8 ... ... : ... .. . ... ...
ROW 52 : D#4 00 8 P7F ... ... : C-5 00 8 P80 ... ... : C-3 00 . ... : ... .. 6 ... : ... .. . ... ... : ... .. 7 ... ... : ... .. 7 ... ... : ... .. . ... ...
ROW 53 : ... .. . P7E ... ... : ... .. . ... ... ... : B-2 00 . ... : ... .. 3 ... : ... .. . ... ... : ... .. 6 ... ... : ... .. 6 ... ... : ... .. . ... ...
ROW 54 : D-4 00 8 P83 ... ... : B-4 00 8 P82 ... ... : F#2 00 . ... : ... .. 2 ... : ... .. . ... ... : C#4 01 8 ... ... : C#3 01 8 ... ... : ... .. . ... ...
ROW 55 : ... .. . P7F ... ... : ... .. . P7F ... ... : ... .. . ... : ... .. 0 ... : ... .. . ... ... : ... .. 7 ... ... : ... .. 7 ... ... : ... .. . ... ...
ROW 56 : C#4 00 8 P85 ... ... : A#4 00 8 P82 ... ... : ... .. . ... : ... .. . ... : ... .. . ... ... : ... .. 6 ... ... : ... .. 6 ... ... : ... .. . ... ...
ROW 57 : ... .. . P83 ... ... : ... .. . P81 ... ... : ... .. . ... : ... .. . ... : ... .. . ... ... : B-3 01 8 ... ... : B-2 01 8 ... ... : ... .. . ... ...
ROW 58 : ... .. 1 P85 ... ... : ... .. 1 P83 ... ... : F#4 00 . ... : ... .. F ... : ... .. . ... ... : ... .. 7 ... ... : ... .. 7 ... ... : ... .. . ... ...
ROW 59 : D-4 00 1 P80 ... ... : B-4 00 1 P80 ... ... : G#3 00 . ... : ... .. C ... : ... .. . ... ... : ... .. 6 ... ... : ... .. 6 ... ... : ... .. . ... ...
ROW 5A : ... .. . P84 ... ... : ... .. . P83 ... ... : C#3 00 . ... : ... .. 6 ... : ... .. . ... ... : A-3 01 8 ... ... : A-2 01 8 ... ... : ... .. . ... ...
ROW 5B : D#4 00 1 P7F ... ... : C-5 00 1 P80 ... ... : C-3 00 . ... : ... .. 3 ... : ... .. . ... ... : ... .. 7 ... ... : ... .. 7 ... ... : ... .. . ... ...
ROW 5C : ... .. . ... ... ... : ... .. . ... ... ... : G-2 00 . ... : ... .. 2 ... : ... .. . ... ... : ... .. 6 ... ... : ... .. 6 ... ... : ... .. . ... ...
ROW 5D : D-4 00 1 P84 ... ... : B-4 00 1 P83 ... ... : ... .. . ... : ... .. 0 ... : ... .. . ... ... : G-3 01 8 ... ... : G-2 01 8 ... ... : ... .. . ... ...
ROW 5E : ... .. 0 ... ... ... : ... .. 0 ... ... ... : ... .. . ... : ... .. . ... : ... .. . ... ... : ... .. 7 ... ... : ... .. 7 ... ... : ... .. . ... ...
ROW 5F : ... .. . ... ... ... : ... .. . ... ... ... : ... .. . ... : ... .. . ... : ... .. . ... ... : ... .. 6 ... ... : ... .. 6 ... ... : ... .. . ... ...
ROW 60 : ... .. . ... ... ... : D-4 00 8 P80 ... ... : F-5 00 . ... : 9-# 00 F ... : ... .. . ... ... : F#3 01 A ... ... : F#2 01 A ... ... : D-3 01 C ... ...
ROW 61 : ... .. . ... ... ... : ... .. 7 ... ... ... : G-4 00 . ... : ... .. C ... : ... .. . ... ... : ... .. 9 ... ... : ... .. 9 ... ... : ... .. A ... ...
ROW 62 : ... .. . ... ... ... : ... .. . ... ... ... : C-4 00 . ... : ... .. 6 ... : ... .. . ... ... : ... .. 8 ... ... : ... .. 8 ... ... : ... .. 6 ... ...
ROW 63 : ... .. . ... ... ... : ... .. 6 ... ... ... : B-3 00 . ... : ... .. 3 ... : ... .. . ... ... : ... .. 7 ... ... : ... .. 7 ... ... : ... .. . ... ...
ROW 64 : ... .. . ... ... ... : ... .. 5 ... ... ... : F#3 00 . ... : ... .. 2 ... : ... .. . ... ... : ... .. . ... ... : ... .. . ... ... : ... .. 3 ... ...
ROW 65 : ... .. . ... ... ... : ... .. 4 ... ... ... : ... .. . ... : ... .. 0 ... : ... .. . ... ... : ... .. 6 ... ... : ... .. 6 ... ... : ... .. . ... ...
ROW 66 : ... .. . ... ... ... : A-3 00 8 ... ... ... : ... .. . ... : 2-# 00 F ... : ... .. . ... ... : ... .. . ... ... : ... .. . ... ... : ... .. 1 ... ...
ROW 67 : ... .. . ... ... ... : ... .. 7 ... ... ... : ... .. . ... : ... .. C ... : ... .. . ... ... : ... .. 5 ... ... : ... .. 5 ... ... : ... .. . ... ...
ROW 68 : ... .. . ... ... ... : ... .. . ... ... ... : ... .. . ... : ... .. 6 ... : ... .. . ... ... : ... .. . ... ... : ... .. . ... ... : E-3 01 C ... ...
ROW 69 : ... .. . ... ... ... : ... .. 6 ... ... ... : ... .. . ... : ... .. 3 ... : ... .. . ... ... : ... .. . ... ... : ... .. . ... ... : ... .. A ... ...
ROW 6A : ... .. . ... ... ... : ... .. 5 ... ... ... : ... .. . ... : ... .. 2 ... : ... .. . ... ... : ... .. . ... ... : ... .. . ... ... : ... .. 6 ... ...
ROW 6B : ... .. . ... ... ... : ... .. 4 ... ... ... : ... .. . ... : ... .. 0 ... : ... .. . ... ... : ... .. . ... ... : ... .. . ... ... : ... .. . ... ...
ROW 6C : A-3 00 C P80 ... ... : F#3 00 8 ... ... ... : E-3 00 . P85 : 1-# 00 F ... : ... .. . ... ... : ... .. . ... ... : ... .. . ... ... : ... .. . ... ...
ROW 6D : ... .. B ... ... ... : ... .. 7 ... ... ... : D#3 00 . P7A : ... .. C ... : ... .. . ... ... : ... .. . ... ... : ... .. . ... ... : ... .. 3 ... ...
ROW 6E : ... .. A ... ... ... : ... .. . ... ... ... : C#3 00 . P86 : ... .. 6 ... : ... .. . ... ... : ... .. . ... ... : ... .. . ... ... : ... .. . ... ...
ROW 6F : ... .. 0 ... ... ... : ... .. 6 ... ... ... : C-3 00 . P7E : ... .. 3 ... : ... .. . ... ... : ... .. . ... ... : ... .. . ... ... : ... .. 1 ... ...
ROW 70 : ... .. . ... ... ... : ... .. 5 ... ... ... : B-2 00 . P77 : ... .. 2 ... : ... .. . ... ... : ... .. . ... ... : ... .. . ... ... : D-3 01 C ... ...
ROW 71 : ... .. . ... ... ... : ... .. 4 ... ... ... : A-2 00 . P8E : ... .. 0 ... : ... .. . ... ... : ... .. . ... ... : ... .. . ... ... : ... .. A ... ...
ROW 72 : A-3 00 C P80 ... ... : D-3 00 8 ... ... ... : G#2 00 . P8D : C-# 00 F ... : ... .. . ... ... : ... .. . ... ... : ... .. . ... ... : ... .. 6 ... ...
ROW 73 : ... .. B ... ... ... : ... .. 7 ... ... ... : G-2 00 . ... : ... .. C ... : ... .. . ... ... : ... .. . ... ... : ... .. . ... ... : ... .. . ... ...
ROW 74 : ... .. A ... ... ... : ... .. . ... ... ... : F#2 00 . P8F : ... .. 6 ... : ... .. . ... ... : ... .. . ... ... : ... .. . ... ... : ... .. . ... ...
ROW 75 : ... .. 0 ... ... ... : ... .. 6 ... ... ... : ... .. . P6F : ... .. 3 ... : ... .. . ... ... : ... .. . ... ... : ... .. . ... ... : ... .. . ... ...
ROW 76 : ... .. . ... ... ... : ... .. 5 ... ... ... : F-2 00 . P73 : ... .. 2 ... : ... .. . ... ... : ... .. . ... ... : ... .. . ... ... : ... .. 3 ... ...
ROW 77 : ... .. . ... ... ... : ... .. 4 ... ... ... : E-2 00 . P79 : ... .. 0 ... : ... .. . ... ... : ... .. . ... ... : ... .. . ... ... : ... .. . ... ...
ROW 78 : D-4 00 C P80 ... ... : A-2 00 8 ... ... ... : F-4 00 . P80 : 7-# 00 F ... : ... .. . ... ... : ... .. . ... ... : ... .. . ... ... : ... .. C ... ...
ROW 79 : ... .. B ... ... ... : ... .. 7 ... ... ... : G-3 00 . ... : ... .. C ... : ... .. . ... ... : ... .. . ... ... : ... .. . ... ... : ... .. A ... ...
ROW 7A : ... .. A ... ... ... : ... .. . ... ... ... : C-3 00 . ... : ... .. 6 ... : ... .. . ... ... : ... .. . ... ... : ... .. . ... ... : ... .. 6 ... ...
ROW 7B : ... .. 8 ... ... ... : ... .. 6 ... ... ... : B-2 00 . ... : ... .. 3 ... : ... .. . ... ... : ... .. . ... ... : ... .. . ... ... : ... .. . ... ...
ROW 7C : ... .. . ... ... ... : ... .. 5 ... ... ... : F#2 00 . ... : ... .. 2 ... : ... .. . ... ... : ... .. . ... ... : ... .. . ... ... : ... .. 3 ... ...
ROW 7D : ... .. . ... ... ... : ... .. 4 ... ... ... : ... .. . ... : ... .. 0 ... : ... .. . ... ... : ... .. . ... ... : ... .. . ... ... : ... .. . ... ...
ROW 7E : ... .. . ... ... ... : F#2 00 8 ... ... ... : ... .. . ... : 1-# 00 F ... : ... .. . ... ... : ... .. . ... ... : ... .. . ... ... : ... .. 1 ... ...
ROW 7F : ... .. . ... ... ... : ... .. 7 ... ... ... : ... .. . ... : ... .. C ... : ... .. . ... ... : ... .. . ... ... : ... .. . ... ... : ... .. . ... ...
ROW 80 : ... .. . ... ... ... : ... .. . ... ... ... : ... .. . ... : ... .. 6 ... : ... .. . ... ... : ... .. . ... ... : ... .. . ... ... : E-3 01 C ... ...
ROW 81 : ... .. 0 ... ... ... : ... .. 6 ... ... ... : ... .. . ... : ... .. 3 ... : ... .. . ... ... : ... .. . ... ... : ... .. . ... ... : ... .. A ... ...
ROW 82 : ... .. . ... ... ... : ... .. 5 ... ... ... : ... .. . ... : ... .. 2 ... : ... .. . ... ... : ... .. . ... ... : ... .. . ... ... : ... .. 6 ... ...
ROW 83 : ... .. . ... ... ... : ... .. 4 ... ... ... : ... .. . ... : ... .. 0 ... : ... .. . ... ... : ... .. . ... ... : ... .. . ... ... : ... .. . ... ...
ROW 84 : A-3 00 C P80 ... ... : D-2 00 8 ... ... ... : ... .. . ... : C-# 00 F ... : ... .. . ... ... : A-2 01 A ... ... : A-3 01 A ... ... : ... .. . ... ...
ROW 85 : ... .. B ... ... ... : ... .. 7 ... ... ... : ... .. . ... : ... .. C ... : ... .. . ... ... : ... .. 9 ... ... : ... .. 9 ... ... : ... .. 3 ... ...
ROW 86 : ... .. A ... ... ... : ... .. . ... ... ... : ... .. . ... : ... .. 6 ... : ... .. . ... ... : ... .. 8 ... ... : ... .. 8 ... ... : ... .. . ... ...
ROW 87 : ... .. 0 ... ... ... : ... .. 6 ... ... ... : ... .. . ... : ... .. 3 ... : ... .. . ... ... : ... .. 7 ... ... : ... .. 7 ... ... : ... .. 1 ... ...
ROW 88 : ... .. . ... ... ... : ... .. 5 ... ... ... : ... .. . ... : ... .. 2 ... : ... .. . ... ... : ... .. . ... ... : ... .. . ... ... : D-3 01 C ... ...
ROW 89 : ... .. . ... ... ... : ... .. 4 ... ... ... : ... .. . ... : ... .. 0 ... : ... .. . ... ... : ... .. 6 ... ... : ... .. 6 ... ... : ... .. A ... ...
ROW 8A : D-4 00 C P80 ... ... : A-1 00 8 ... ... ... : ... .. . ... : 7-# 00 F ... : ... .. . ... ... : ... .. . ... ... : ... .. . ... ... : ... .. 6 ... ...
ROW 8B : ... .. B ... ... ... : ... .. 7 ... ... ... : ... .. . ... : ... .. C ... : ... .. . ... ... : ... .. 5 ... ... : ... .. 5 ... ... : ... .. . ... ...
ROW 8C : ... .. A ... ... ... : ... .. . ... ... ... : ... .. . ... : ... .. 6 ... : ... .. . ... ... : ... .. . ... ... : ... .. . ... ... : ... .. . ... ...
ROW 8D : ... .. 0 ... ... ... : ... .. 6 ... ... ... : ... .. . ... : ... .. 3 ... : ... .. . ... ... : ... .. . ... ... : ... .. . ... ... : ... .. . ... ...
ROW 8E : ... .. . ... ... ... : ... .. 5 ... ... ... : ... .. . ... : ... .. 2 ... : ... .. . ... ... : ... .. . ... ... : ... .. . ... ... : ... .. 3 ... ...
ROW 8F : ... .. . ... ... ... : ... .. 4 ... ... ... : ... .. . ... : ... .. 0 ... : ... .. . ... ... : ... .. . ... ... : ... .. . ... ... : ... .. . ... ...
ROW 90 : A-4 00 C P80 ... ... : D-4 00 8 ... ... ... : F-5 00 . ... : 1-# 00 F ... : ... .. . ... ... : D-3 01 A ... ... : D-4 01 A ... ... : ... .. C ... ...
ROW 91 : ... .. B ... ... ... : ... .. 7 ... ... ... : G-4 00 . ... : ... .. C ... : ... .. . ... ... : ... .. 9 ... ... : ... .. 9 ... ... : ... .. A ... ...
ROW 92 : ... .. A ... ... ... : ... .. . ... ... ... : C-4 00 . ... : ... .. 6 ... : ... .. . ... ... : ... .. 8 ... ... : ... .. 8 ... ... : ... .. 6 ... ...
ROW 93 : ... .. 8 ... ... ... : ... .. 6 ... ... ... : B-3 00 . ... : ... .. 3 ... : ... .. . ... ... : ... .. 7 ... ... : ... .. 7 ... ... : ... .. . ... ...
ROW 94 : ... .. . ... ... ... : ... .. 5 ... ... ... : F#3 00 . ... : ... .. 2 ... : ... .. . ... ... : ... .. . ... ... : ... .. . ... ... : ... .. 3 ... ...
ROW 95 : ... .. . ... ... ... : ... .. 4 ... ... ... : ... .. . ... : ... .. 0 ... : ... .. . ... ... : ... .. 6 ... ... : ... .. 6 ... ... : ... .. . ... ...
ROW 96 : ... .. . ... ... ... : A-3 00 8 ... ... ... : ... .. . ... : B-# 00 F ... : ... .. . ... ... : ... .. . ... ... : ... .. . ... ... : ... .. 1 ... ...
ROW 97 : ... .. . ... ... ... : ... .. 7 ... ... ... : ... .. . ... : ... .. C ... : ... .. . ... ... : ... .. 5 ... ... : ... .. 5 ... ... : ... .. . ... ...
ROW 98 : ... .. . ... ... ... : ... .. . ... ... ... : ... .. . ... : ... .. 6 ... : ... .. . ... ... : ... .. . ... ... : ... .. . ... ... : E-3 01 C ... ...
ROW 99 : ... .. . ... ... ... : ... .. 6 ... ... ... : ... .. . ... : ... .. 3 ... : ... .. . ... ... : ... .. . ... ... : ... .. . ... ... : ... .. A ... ...
ROW 9A : ... .. . ... ... ... : ... .. 5 ... ... ... : ... .. . ... : ... .. 2 ... : ... .. . ... ... : ... .. . ... ... : ... .. . ... ... : ... .. 6 ... ...
ROW 9B : ... .. . ... ... ... : ... .. 4 ... ... ... : ... .. . ... : ... .. 0 ... : ... .. . ... ... : ... .. . ... ... : ... .. . ... ... : ... .. . ... ...
ROW 9C : ... .. . ... ... ... : F#3 00 8 ... ... ... : E-3 00 . P85 : 7-# 00 F ... : ... .. . ... ... : ... .. . ... ... : ... .. . ... ... : ... .. . ... ...
ROW 9D : ... .. . ... ... ... : ... .. 7 ... ... ... : D#3 00 . P7A : ... .. C ... : ... .. . ... ... : ... .. . ... ... : ... .. . ... ... : ... .. 3 ... ...
ROW 9E : ... .. . ... ... ... : ... .. . ... ... ... : C#3 00 . P86 : ... .. 6 ... : ... .. . ... ... : ... .. . ... ... : ... .. . ... ... : ... .. . ... ...
ROW 9F : ... .. . ... ... ... : ... .. 6 ... ... ... : C-3 00 . P7E : ... .. 3 ... : ... .. . ... ... : ... .. . ... ... : ... .. . ... ... : ... .. 1 ... ...
ROW A0 : ... .. . ... ... ... : ... .. 5 ... ... ... : B-2 00 . P77 : ... .. 2 ... : ... .. . ... ... : ... .. . ... ... : ... .. . ... ... : D-3 01 C ... ...
ROW A1 : ... .. . ... ... ... : ... .. 4 ... ... ... : A-2 00 . P8E : ... .. 0 ... : ... .. . ... ... : ... .. . ... ... : ... .. . ... ... : ... .. A ... ...
ROW A2 : ... .. . ... ... ... : D-3 00 8 ... ... ... : G#2 00 . P8D : 1-# 00 F ... : ... .. . ... ... : E-3 01 A ... ... : E-4 01 A ... ... : ... .. 6 ... ...
ROW A3 : ... .. . ... ... ... : ... .. 7 ... ... ... : G-2 00 . ... : ... .. C ... : ... .. . ... ... : ... .. 9 ... ... : ... .. 9 ... ... : ... .. . ... ...
ROW A4 : ... .. . ... ... ... : ... .. . ... ... ... : F#2 00 . P8F : ... .. 6 ... : ... .. . ... ... : ... .. 8 ... ... : ... .. 8 ... ... : ... .. . ... ...
ROW A5 : ... .. . ... ... ... : ... .. 6 ... ... ... : ... .. . P6F : ... .. 3 ... : ... .. . ... ... : ... .. 7 ... ... : ... .. 7 ... ... : ... .. . ... ...
ROW A6 : ... .. . ... ... ... : ... .. 5 ... ... ... : F-2 00 . P73 : ... .. 2 ... : ... .. . ... ... : ... .. . ... ... : ... .. . ... ... : ... .. 3 ... ...
ROW A7 : ... .. . ... ... ... : ... .. 4 ... ... ... : E-2 00 . P79 : ... .. 0 ... : ... .. . ... ... : ... .. 6 ... ... : ... .. 6 ... ... : ... .. . ... ...
ROW A8 : ... .. . P82 ... ... : A-2 00 8 ... ... ... : F-4 00 . P80 : 9-# 00 F ... : ... .. . ... ... : ... .. . ... ... : ... .. . ... ... : ... .. C ... ...
ROW A9 : ... .. . P83 ... ... : ... .. 7 ... ... ... : G-3 00 . ... : ... .. C ... : ... .. . ... ... : ... .. 5 ... ... : ... .. 5 ... ... : ... .. A ... ...
ROW AA : ... .. . ... ... ... : ... .. . ... ... ... : C-3 00 . ... : ... .. 6 ... : ... .. . ... ... : ... .. . ... ... : ... .. . ... ... : ... .. 6 ... ...
ROW AB : ... .. . P81 ... ... : ... .. 6 ... ... ... : B-2 00 . ... : ... .. 3 ... : ... .. . ... ... : ... .. . ... ... : ... .. . ... ... : ... .. . ... ...
ROW AC : ... .. . P7F ... ... : ... .. 5 ... ... ... : F#2 00 . ... : ... .. 2 ... : ... .. . ... ... : ... .. . ... ... : ... .. . ... ... : ... .. 3 ... ...
ROW AD : ... .. . P7D ... ... : ... .. 4 ... ... ... : ... .. . ... : ... .. 0 ... : ... .. . ... ... : ... .. . ... ... : ... .. . ... ... : ... .. . ... ...
ROW AE : ... .. . ... ... ... : F#2 00 8 ... ... ... : ... .. . ... : ... .. F ... : ... .. . ... ... : ... .. . ... ... : ... .. . ... ... : ... .. 1 ... ...
ROW AF : ... .. . P7E ... ... : ... .. 7 ... ... ... : ... .. . ... : ... .. C ... : ... .. . ... ... : ... .. . ... ... : ... .. . ... ... : ... .. . ... ...
ROW B0 : ... .. . P80 ... ... : ... .. . ... ... ... : ... .. . ... : ... .. 6 ... : ... .. . ... ... : ... .. . ... ... : ... .. . ... ... : E-3 01 C ... ...
ROW B1 : ... .. . P82 ... ... : ... .. 6 ... ... ... : ... .. . ... : ... .. 3 ... : ... .. . ... ... : ... .. . ... ... : ... .. . ... ... : ... .. A ... ...
ROW B2 : ... .. . P83 ... ... : ... .. 5 ... ... ... : ... .. . ... : ... .. 2 ... : ... .. . ... ... : ... .. . ... ... : ... .. . ... ... : ... .. 6 ... ...
ROW B3 : ... .. . ... ... ... : ... .. 4 ... ... ... : ... .. . ... : ... .. 0 ... : ... .. . ... ... : ... .. . ... ... : ... .. . ... ... : ... .. . ... ...
ROW B4 : ... .. . P81 ... ... : D-2 00 8 ... ... ... : ... .. . ... : 7-# 00 F ... : ... .. . ... ... : A-3 01 A ... ... : A-4 01 A ... ... : ... .. . ... ...
ROW B5 : ... .. . P80 ... ... : ... .. 7 ... ... ... : ... .. . ... : ... .. C ... : ... .. . ... ... : ... .. 9 ... ... : ... .. 9 ... ... : ... .. 3 ... ...
ROW B6 : ... .. . P7D ... ... : ... .. . ... ... ... : ... .. . ... : ... .. 6 ... : ... .. . ... ... : ... .. 8 ... ... : ... .. 8 ... ... : ... .. . ... ...
ROW B7 : ... .. . ... ... ... : ... .. 6 ... ... ... : ... .. . ... : ... .. 3 ... : ... .. . ... ... : ... .. 7 ... ... : ... .. 7 ... ... : ... .. 1 ... ...
ROW B8 : ... .. . P7E ... ... : ... .. 5 ... ... ... : ... .. . ... : ... .. 2 ... : ... .. . ... ... : ... .. . ... ... : ... .. . ... ... : D-3 01 C ... ...
ROW B9 : ... .. . P80 ... ... : ... .. 4 ... ... ... : ... .. . ... : ... .. 0 ... : ... .. . ... ... : ... .. 6 ... ... : ... .. 6 ... ... : ... .. A ... ...
ROW BA : ... .. . P81 ... ... : A-1 00 8 ... ... ... : ... .. . ... : ... .. F ... : ... .. . ... ... : ... .. . ... ... : ... .. . ... ... : ... .. 6 ... ...
ROW BB : ... .. . P83 ... ... : ... .. 7 ... ... ... : ... .. . ... : ... .. C ... : ... .. . ... ... : ... .. 5 ... ... : ... .. 5 ... ... : ... .. . ... ...
ROW BC : ... .. . ... ... ... : ... .. . ... ... ... : ... .. . ... : ... .. 6 ... : ... .. . ... ... : ... .. . ... ... : ... .. . ... ... : ... .. . ... ...
ROW BD : ... .. . P81 ... ... : ... .. 6 ... ... ... : ... .. . ... : ... .. 3 ... : ... .. . ... ... : ... .. . ... ... : ... .. . ... ... : ... .. . ... ...
ROW BE : ... .. . P80 ... ... : ... .. 5 ... ... ... : ... .. . ... : ... .. 2 ... : ... .. . ... ... : ... .. . ... ... : ... .. . ... ... : ... .. 3 ... ...
ROW BF : ... .. . P7E ... ... : ... .. 4 ... ... ... : ... .. . ... : ... .. 0 ... : ... .. . ... ... : ... .. . ... ... : ... .. . ... ... : ... .. . ... ...
ROW C0 : ... .. . P7D ... ... : C-4 00 8 ... ... ... : F-5 00 . ... : 9-# 00 F ... : ... .. . ... ... : B-3 01 A ... ... : B-4 01 A ... ... : C-3 01 C ... ...
ROW C1 : ... .. 1 ... ... ... : ... .. 7 ... ... ... : G-4 00 . ... : ... .. C ... : ... .. . ... ... : ... .. 9 ... ... : ... .. 9 ... ... : ... .. A ... ...
ROW C2 : ... .. . P80 ... ... : ... .. . ... ... ... : C-4 00 . ... : ... .. 6 ... : ... .. . ... ... : ... .. 8 ... ... : ... .. 8 ... ... : ... .. 6 ... ...
ROW C3 : ... .. . P81 ... ... : ... .. 6 ... ... ... : B-3 00 . ... : ... .. 3 ... : ... .. . ... ... : ... .. 7 ... ... : ... .. 7 ... ... : ... .. . ... ...
ROW C4 : ... .. . P83 ... ... : ... .. 5 ... ... ... : F#3 00 . ... : ... .. 2 ... : ... .. . ... ... : ... .. . ... ... : ... .. . ... ... : ... .. 3 ... ...
ROW C5 : ... .. . ... ... ... : ... .. 4 ... ... ... : ... .. . ... : ... .. 0 ... : ... .. . ... ... : ... .. 6 ... ... : ... .. 6 ... ... : ... .. . ... ...
ROW C6 : ... .. . P82 ... ... : G-3 00 8 ... ... ... : ... .. . ... : 2-# 00 F ... : ... .. . ... ... : ... .. . ... ... : ... .. . ... ... : ... .. 1 ... ...
ROW C7 : ... .. 0 ... ... ... : ... .. 7 ... ... ... : ... .. . ... : ... .. C ... : ... .. . ... ... : ... .. 5 ... ... : ... .. 5 ... ... : ... .. . ... ...
ROW C8 : ... .. . ... ... ... : ... .. . ... ... ... : ... .. . ... : ... .. 6 ... : ... .. . ... ... : ... .. . ... ... : ... .. . ... ... : D-3 01 C ... ...
ROW C9 : ... .. . ... ... ... : ... .. 6 ... ... ... : ... .. . ... : ... .. 3 ... : ... .. . ... ... : ... .. . ... ... : ... .. . ... ... : ... .. A ... ...
ROW CA : ... .. . ... ... ... : ... .. 5 ... ... ... : ... .. . ... : ... .. 2 ... : ... .. . ... ... : ... .. . ... ... : ... .. . ... ... : ... .. 6 ... ...
ROW CB : ... .. . ... ... ... : ... .. 4 ... ... ... : ... .. . ... : ... .. 0 ... : ... .. . ... ... : ... .. . ... ... : ... .. . ... ... : ... .. . ... ...
ROW CC : F#4 00 C P80 ... ... : E-3 00 8 ... ... ... : E-3 00 . P85 : 1-# 00 F ... : ... .. . ... ... : ... .. . ... ... : ... .. . ... ... : ... .. . ... ...
ROW CD : ... .. B ... ... ... : ... .. 7 ... ... ... : D#3 00 . P7A : ... .. C ... : ... .. . ... ... : ... .. . ... ... : ... .. . ... ... : ... .. 3 ... ...
ROW CE : ... .. A ... ... ... : ... .. . ... ... ... : C#3 00 . P86 : ... .. 6 ... : ... .. . ... ... : ... .. . ... ... : ... .. . ... ... : ... .. . ... ...
ROW CF : ... .. 0 ... ... ... : ... .. 6 ... ... ... : C-3 00 . P7E : ... .. 3 ... : ... .. . ... ... : ... .. . ... ... : ... .. . ... ... : ... .. 1 ... ...
ROW D0 : ... .. . ... ... ... : ... .. 5 ... ... ... : B-2 00 . P77 : ... .. 2 ... : ... .. . ... ... : ... .. . ... ... : ... .. . ... ... : C-3 01 C ... ...
ROW D1 : ... .. . ... ... ... : ... .. 4 ... ... ... : A-2 00 . P8E : ... .. 0 ... : ... .. . ... ... : ... .. . ... ... : ... .. . ... ... : ... .. A ... ...
ROW D2 : F#4 00 C P80 ... ... : C-3 00 8 ... ... ... : G#2 00 . P8D : C-# 00 F ... : ... .. . ... ... : ... .. . ... ... : ... .. . ... ... : ... .. 6 ... ...
ROW D3 : ... .. B ... ... ... : ... .. 7 ... ... ... : G-2 00 . ... : ... .. C ... : ... .. . ... ... : ... .. . ... ... : ... .. . ... ... : ... .. . ... ...
ROW D4 : ... .. A ... ... ... : ... .. . ... ... ... : F#2 00 . P8F : ... .. 6 ... : ... .. . ... ... : ... .. . ... ... : ... .. . ... ... : ... .. . ... ...
ROW D5 : ... .. 0 ... ... ... : ... .. 6 ... ... ... : ... .. . P6F : ... .. 3 ... : ... .. . ... ... : ... .. . ... ... : ... .. . ... ... : ... .. . ... ...
ROW D6 : ... .. . ... ... ... : ... .. 5 ... ... ... : F-2 00 . P73 : ... .. 2 ... : ... .. . ... ... : ... .. . ... ... : ... .. . ... ... : ... .. 3 ... ...
ROW D7 : ... .. . ... ... ... : ... .. 4 ... ... ... : E-2 00 . P79 : ... .. 0 ... : ... .. . ... ... : ... .. . ... ... : ... .. . ... ... : ... .. . ... ...
ROW D8 : B-4 00 C P80 ... ... : G-2 00 8 ... ... ... : F-4 00 . P80 : 7-# 00 F ... : ... .. . ... ... : A-3 01 A ... ... : A-4 01 A ... ... : ... .. C ... ...
ROW D9 : ... .. B ... ... ... : ... .. 7 ... ... ... : G-3 00 . ... : ... .. C ... : ... .. . ... ... : ... .. 9 ... ... : ... .. 9 ... ... : ... .. A ... ...
ROW DA : ... .. A ... ... ... : ... .. . ... ... ... : C-3 00 . ... : ... .. 6 ... : ... .. . ... ... : ... .. 8 ... ... : ... .. 8 ... ... : ... .. 6 ... ...
ROW DB : ... .. 8 ... ... ... : ... .. 6 ... ... ... : B-2 00 . ... : ... .. 3 ... : ... .. . ... ... : ... .. 7 ... ... : ... .. 7 ... ... : ... .. . ... ...
ROW DC : ... .. . ... ... ... : ... .. 5 ... ... ... : F#2 00 . ... : ... .. 2 ... : ... .. . ... ... : ... .. . ... ... : ... .. . ... ... : ... .. 3 ... ...
ROW DD : ... .. . ... ... ... : ... .. 4 ... ... ... : ... .. . ... : ... .. 0 ... : ... .. . ... ... : ... .. 6 ... ... : ... .. 6 ... ... : ... .. . ... ...
ROW DE : ... .. . ... ... ... : E-2 00 8 ... ... ... : ... .. . ... : 1-# 00 F ... : ... .. . ... ... : ... .. . ... ... : ... .. . ... ... : ... .. 1 ... ...
ROW DF : ... .. . ... ... ... : ... .. 7 ... ... ... : ... .. . ... : ... .. C ... : ... .. . ... ... : ... .. 5 ... ... : ... .. 5 ... ... : ... .. . ... ...
ROW E0 : ... .. . ... ... ... : ... .. . ... ... ... : ... .. . ... : ... .. 6 ... : ... .. . ... ... : ... .. . ... ... : ... .. . ... ... : D-3 01 C ... ...
ROW E1 : ... .. 0 ... ... ... : ... .. 6 ... ... ... : ... .. . ... : ... .. 3 ... : ... .. . ... ... : ... .. . ... ... : ... .. . ... ... : ... .. A ... ...
ROW E2 : ... .. . ... ... ... : ... .. 5 ... ... ... : ... .. . ... : ... .. 2 ... : ... .. . ... ... : ... .. . ... ... : ... .. . ... ... : ... .. 6 ... ...
ROW E3 : ... .. . ... ... ... : ... .. 4 ... ... ... : ... .. . ... : ... .. 0 ... : ... .. . ... ... : ... .. . ... ... : ... .. . ... ... : ... .. . ... ...
ROW E4 : F#4 00 C P80 ... ... : C-2 00 8 ... ... ... : ... .. . ... : C-# 00 F ... : ... .. . ... ... : E-3 01 A ... ... : E-4 01 A ... ... : ... .. . ... ...
ROW E5 : ... .. B ... ... ... : ... .. 7 ... ... ... : ... .. . ... : ... .. C ... : ... .. . ... ... : ... .. 9 ... ... : ... .. 9 ... ... : ... .. 3 ... ...
ROW E6 : ... .. A ... ... ... : ... .. . ... ... ... : ... .. . ... : ... .. 6 ... : ... .. . ... ... : ... .. 8 ... ... : ... .. 8 ... ... : ... .. . ... ...
ROW E7 : ... .. 0 ... ... ... : ... .. 6 ... ... ... : ... .. . ... : ... .. 3 ... : ... .. . ... ... : ... .. 7 ... ... : ... .. 7 ... ... : ... .. 1 ... ...
ROW E8 : ... .. . ... ... ... : ... .. 5 ... ... ... : ... .. . ... : ... .. 2 ... : ... .. . ... ... : ... .. . ... ... : ... .. . ... ... : C-3 01 C ... ...
ROW E9 : ... .. . ... ... ... : ... .. 4 ... ... ... : ... .. . ... : ... .. 0 ... : ... .. . ... ... : ... .. 6 ... ... : ... .. 6 ... ... : ... .. A ... ...
ROW EA : B-4 00 C P80 ... ... : G-1 00 8 ... ... ... : ... .. . ... : 7-# 00 F ... : ... .. . ... ... : ... .. . ... ... : ... .. . ... ... : ... .. 6 ... ...
ROW EB : ... .. B ... ... ... : ... .. 7 ... ... ... : ... .. . ... : ... .. C ... : ... .. . ... ... : ... .. 5 ... ... : ... .. 5 ... ... : ... .. . ... ...
ROW EC : ... .. A ... ... ... : ... .. . ... ... ... : ... .. . ... : ... .. 6 ... : ... .. . ... ... : ... .. . ... ... : ... .. . ... ... : ... .. . ... ...
ROW ED : ... .. 0 ... ... ... : ... .. 6 ... ... ... : ... .. . ... : ... .. 3 ... : ... .. . ... ... : ... .. . ... ... : ... .. . ... ... : ... .. . ... ...
ROW EE : ... .. . ... ... ... : ... .. 5 ... ... ... : ... .. . ... : ... .. 2 ... : ... .. . ... ... : ... .. . ... ... : ... .. . ... ... : ... .. 3 ... ...
ROW EF : ... .. . ... ... ... : ... .. 4 ... ... ... : ... .. . ... : ... .. 0 ... : ... .. . ... ... : ... .. . ... ... : ... .. . ... ... : ... .. . ... ...
ROW F0 : F#5 00 C P80 ... ... : C-4 00 8 ... ... ... : F-5 00 . ... : 1-# 00 F ... : ... .. . ... ... : ... .. . ... ... : ... .. . ... ... : ... .. C ... ...
ROW F1 : ... .. B ... ... ... : ... .. 7 ... ... ... : G-4 00 . ... : ... .. C ... : ... .. . ... ... : ... .. . ... ... : ... .. . ... ... : ... .. A ... ...
ROW F2 : ... .. A ... ... ... : ... .. . ... ... ... : C-4 00 . ... : ... .. 6 ... : ... .. . ... ... : ... .. . ... ... : ... .. . ... ... : ... .. 6 ... ...
ROW F3 : ... .. 8 ... ... ... : ... .. 6 ... ... ... : B-3 00 . ... : ... .. 3 ... : ... .. . ... ... : ... .. . ... ... : ... .. . ... ... : ... .. . ... ...
ROW F4 : ... .. . ... ... ... : ... .. 5 ... ... ... : F#3 00 . ... : ... .. 2 ... : ... .. . ... ... : ... .. . ... ... : ... .. . ... ... : ... .. 3 ... ...
ROW F5 : ... .. . ... ... ... : ... .. 4 ... ... ... : ... .. . ... : ... .. 0 ... : ... .. . ... ... : ... .. . ... ... : ... .. . ... ... : ... .. . ... ...
ROW F6 : ... .. . ... ... ... : G-3 00 8 ... ... ... : ... .. . ... : B-# 00 F ... : ... .. . ... ... : ... .. . ... ... : ... .. . ... ... : ... .. 1 ... ...
ROW F7 : ... .. . ... ... ... : ... .. 7 ... ... ... : ... .. . ... : ... .. C ... : ... .. . ... ... : ... .. . ... ... : ... .. . ... ... : ... .. . ... ...
ROW F8 : ... .. . ... ... ... : ... .. . ... ... ... : ... .. . ... : ... .. 6 ... : ... .. . ... ... : ... .. . ... ... : ... .. . ... ... : D-3 01 C ... ...
ROW F9 : ... .. . ... ... ... : ... .. 6 ... ... ... : ... .. . ... : ... .. 3 ... : ... .. . ... ... : ... .. . ... ... : ... .. . ... ... : ... .. A ... ...
ROW FA : ... .. . ... ... ... : ... .. 5 ... ... ... : ... .. . ... : ... .. 2 ... : ... .. . ... ... : ... .. . ... ... : ... .. . ... ... : ... .. 6 ... ...
ROW FB : ... .. . ... ... ... : ... .. 4 ... ... ... : ... .. . ... : ... .. 0 ... : ... .. . ... ... : ... .. . ... ... : ... .. . ... ... : ... .. . ... ...
ROW FC : ... .. . ... ... ... : E-3 00 8 ... ... ... : E-3 00 . P85 : 7-# 00 F ... : ... .. . ... ... : ... .. . ... ... : ... .. . ... ... : ... .. . ... ...
ROW FD : ... .. . ... ... ... : ... .. 7 ... ... ... : D#3 00 . P7A : ... .. C ... : ... .. . ... ... : ... .. . ... ... : ... .. . ... ... : ... .. 3 ... ...
ROW FE : ... .. . ... ... ... : ... .. . ... ... ... : C#3 00 . P86 : ... .. 6 ... : ... .. . ... ... : ... .. . ... ... : ... .. . ... ... : ... .. . ... ...
ROW FF : ... .. . ... ... ... : ... .. 6 ... ... ... : C-3 00 . P7E : ... .. 3 ... : ... .. . ... ... : ... .. . ... ... : ... .. . ... ... : ... .. 1 ... ...

PATTERN 07
ROW 00 : ... .. . ... ... ... : ... .. 5 ... ... ... : B-2 00 . P77 : ... .. 2 ... : ... .. . ... ... : ... .. . ... ... : ... .. . ... ... : C-3 01 C ... ...
ROW 01 : ... .. . ... ... ... : ... .. 4 ... ... ... : A-2 00 . P8E : ... .. 0 ... : ... .. . ... ... : ... .. . ... ... : ... .. . ... ... : ... .. A ... ...
ROW 02 : ... .. . ... ... ... : C-3 00 8 ... ... ... : G#2 00 . P8D : 1-# 00 F ... : ... .. . ... ... : ... .. . ... ... : ... .. . ... ... : ... .. 6 ... ...
ROW 03 : ... .. . ... ... ... : ... .. 7 ... ... ... : G-2 00 . ... : ... .. C ... : ... .. . ... ... : ... .. . ... ... : ... .. . ... ... : ... .. . ... ...
ROW 04 : ... .. . ... ... ... : ... .. . ... ... ... : F#2 00 . P8F : ... .. 6 ... : ... .. . ... ... : ... .. . ... ... : ... .. . ... ... : ... .. . ... ...
ROW 05 : ... .. . ... ... ... : ... .. 6 ... ... ... : ... .. . P6F : ... .. 3 ... : ... .. . ... ... : ... .. . ... ... : ... .. . ... ... : ... .. . ... ...
ROW 06 : ... .. . ... ... ... : ... .. 5 ... ... ... : F-2 00 . P73 : ... .. 2 ... : ... .. . ... ... : ... .. . ... ... : ... .. . ... ... : ... .. 3 ... ...
ROW 07 : ... .. . ... ... ... : ... .. 4 ... ... ... : E-2 00 . P79 : ... .. 0 ... : ... .. . ... ... : ... .. . ... ... : ... .. . ... ... : ... .. . ... ...
ROW 08 : ... .. . P81 ... ... : G-2 00 8 ... ... ... : F-4 00 . P80 : 9-# 00 F ... : ... .. . ... ... : ... .. . ... ... : ... .. . ... ... : ... .. C ... ...
ROW 09 : ... .. . P82 ... ... : ... .. 7 ... ... ... : G-3 00 . ... : ... .. C ... : ... .. . ... ... : ... .. . ... ... : ... .. . ... ... : ... .. A ... ...
ROW 0A : ... .. . ... ... ... : ... .. . ... ... ... : C-3 00 . ... : ... .. 6 ... : ... .. . ... ... : ... .. . ... ... : ... .. . ... ... : ... .. 6 ... ...
ROW 0B : ... .. . P80 ... ... : ... .. 6 ... ... ... : B-2 00 . ... : ... .. 3 ... : ... .. . ... ... : ... .. . ... ... : ... .. . ... ... : ... .. . ... ...
ROW 0C : ... .. . ... ... ... : ... .. 5 ... ... ... : F#2 00 . ... : ... .. 2 ... : ... .. . ... ... : ... .. . ... ... : ... .. . ... ... : ... .. 3 ... ...
ROW 0D : F-5 00 8 P82 ... ... : ... .. 4 ... ... ... : ... .. . ... : ... .. 0 ... : ... .. . ... ... : ... .. . ... ... : ... .. . ... ... : ... .. . ... ...
ROW 0E : ... .. . ... ... ... : E-2 00 8 ... ... ... : ... .. . ... : ... .. F ... : ... .. . ... ... : ... .. . ... ... : ... .. . ... ... : ... .. 1 ... ...
ROW 0F : F#5 00 8 P7F ... ... : ... .. 7 ... ... ... : ... .. . ... : ... .. C ... : ... .. . ... ... : ... .. . ... ... : ... .. . ... ... : ... .. . ... ...
ROW 10 : ... .. . P80 ... ... : ... .. . ... ... ... : ... .. . ... : ... .. 6 ... : ... .. . ... ... : ... .. . ... ... : ... .. . ... ... : D-3 01 C ... ...
ROW 11 : ... .. . P81 ... ... : ... .. 6 ... ... ... : ... .. . ... : ... .. 3 ... : ... .. . ... ... : ... .. . ... ... : ... .. . ... ... : ... .. A ... ...
ROW 12 : ... .. . P82 ... ... : ... .. 5 ... ... ... : ... .. . ... : ... .. 2 ... : ... .. . ... ... : ... .. . ... ... : ... .. . ... ... : ... .. 6 ... ...
ROW 13 : ... .. . ... ... ... : ... .. 4 ... ... ... : ... .. . ... : ... .. 0 ... : ... .. . ... ... : ... .. . ... ... : ... .. . ... ... : ... .. . ... ...
ROW 14 : ... .. . P80 ... ... : C-2 00 8 ... ... ... : ... .. . ... : 7-# 00 F ... : ... .. . ... ... : ... .. . ... ... : ... .. . ... ... : ... .. . ... ...
ROW 15 : ... .. . ... ... ... : ... .. 7 ... ... ... : ... .. . ... : ... .. C ... : ... .. . ... ... : ... .. . ... ... : ... .. . ... ... : ... .. 3 ... ...
ROW 16 : ... .. . P7F ... ... : ... .. . ... ... ... : ... .. . ... : ... .. 6 ... : ... .. . ... ... : ... .. . ... ... : ... .. . ... ... : ... .. . ... ...
ROW 17 : F-5 00 8 P82 ... ... : ... .. 6 ... ... ... : ... .. . ... : ... .. 3 ... : ... .. . ... ... : ... .. . ... ... : ... .. . ... ... : ... .. 1 ... ...
ROW 18 : F#5 00 8 P7F ... ... : ... .. 5 ... ... ... : ... .. . ... : ... .. 2 ... : ... .. . ... ... : ... .. . ... ... : ... .. . ... ... : C-3 01 C ... ...
ROW 19 : ... .. . P80 ... ... : ... .. 4 ... ... ... : ... .. . ... : ... .. 0 ... : ... .. . ... ... : ... .. . ... ... : ... .. . ... ... : ... .. A ... ...
ROW 1A : ... .. . P81 ... ... : G-1 00 8 ... ... ... : ... .. . ... : ... .. F ... : ... .. . ... ... : ... .. . ... ... : ... .. . ... ... : ... .. 6 ... ...
ROW 1B : ... .. . P82 ... ... : ... .. 7 ... ... ... : ... .. . ... : ... .. C ... : ... .. . ... ... : ... .. . ... ... : ... .. . ... ... : ... .. . ... ...
ROW 1C : ... .. . ... ... ... : ... .. . ... ... ... : ... .. . ... : ... .. 6 ... : ... .. . ... ... : ... .. . ... ... : ... .. . ... ... : ... .. . ... ...
ROW 1D : ... .. 0 ... ... ... : ... .. 6 ... ... ... : ... .. . ... : ... .. 3 ... : ... .. . ... ... : ... .. . ... ... : ... .. . ... ... : ... .. . ... ...
ROW 1E : ... .. . ... ... ... : ... .. 5 ... ... ... : ... .. . ... : ... .. 2 ... : ... .. . ... ... : ... .. . ... ... : ... .. . ... ... : ... .. 3 ... ...
ROW 1F : ... .. . ... ... ... : ... .. 4 ... ... ... : ... .. . ... : ... .. 0 ... : ... .. . ... ... : ... .. . ... ... : ... .. . ... ... : ... .. . ... ...
ROW 20 : ... .. . ... ... ... : D-4 00 8 ... ... ... : F-5 00 . ... : 9-# 00 F ... : ... .. . ... ... : D-3 01 A ... ... : D-4 01 A ... ... : E-3 01 C ... ...
ROW 21 : ... .. . ... ... ... : ... .. 7 ... ... ... : G-4 00 . ... : ... .. C ... : ... .. . ... ... : ... .. 9 ... ... : ... .. 9 ... ... : ... .. A ... ...
ROW 22 : ... .. . ... ... ... : ... .. . ... ... ... : C-4 00 . ... : ... .. 6 ... : ... .. . ... ... : ... .. 8 ... ... : ... .. 8 ... ... : ... .. 6 ... ...
ROW 23 : ... .. . ... ... ... : ... .. 6 ... ... ... : B-3 00 . ... : ... .. 3 ... : ... .. . ... ... : ... .. 7 ... ... : ... .. 7 ... ... : ... .. . ... ...
ROW 24 : ... .. . ... ... ... : ... .. 5 ... ... ... : F#3 00 . ... : ... .. 2 ... : ... .. . ... ... : ... .. . ... ... : ... .. . ... ... : ... .. 3 ... ...
ROW 25 : ... .. . ... ... ... : ... .. 4 ... ... ... : ... .. . ... : ... .. 0 ... : ... .. . ... ... : ... .. 6 ... ... : ... .. 6 ... ... : ... .. . ... ...
ROW 26 : ... .. . ... ... ... : A#3 00 8 ... ... ... : ... .. . ... : 2-# 00 F ... : ... .. . ... ... : ... .. . ... ... : ... .. . ... ... : ... .. 1 ... ...
ROW 27 : ... .. . ... ... ... : ... .. 7 ... ... ... : ... .. . ... : ... .. C ... : ... .. . ... ... : ... .. 5 ... ... : ... .. 5 ... ... : ... .. . ... ...
ROW 28 : ... .. . ... ... ... : ... .. . ... ... ... : ... .. . ... : ... .. 6 ... : ... .. . ... ... : ... .. . ... ... : ... .. . ... ... : F-3 01 C ... ...
ROW 29 : ... .. . ... ... ... : ... .. 6 ... ... ... : ... .. . ... : ... .. 3 ... : ... .. . ... ... : ... .. . ... ... : ... .. . ... ... : ... .. A ... ...
ROW 2A : ... .. . ... ... ... : ... .. 5 ... ... ... : ... .. . ... : ... .. 2 ... : ... .. . ... ... : ... .. . ... ... : ... .. . ... ... : ... .. 6 ... ...
ROW 2B : ... .. . ... ... ... : ... .. 4 ... ... ... : ... .. . ... : ... .. 0 ... : ... .. . ... ... : ... .. . ... ... : ... .. . ... ... : ... .. . ... ...
ROW 2C : F-4 00 C P80 ... ... : F-3 00 8 ... ... ... : E-3 00 . P85 : 1-# 00 F ... : ... .. . ... ... : ... .. . ... ... : ... .. . ... ... : ... .. . ... ...
ROW 2D : ... .. B ... ... ... : ... .. 7 ... ... ... : D#3 00 . P7A : ... .. C ... : ... .. . ... ... : ... .. . ... ... : ... .. . ... ... : ... .. 3 ... ...
ROW 2E : ... .. A ... ... ... : ... .. . ... ... ... : C#3 00 . P86 : ... .. 6 ... : ... .. . ... ... : ... .. . ... ... : ... .. . ... ... : ... .. . ... ...
ROW 2F : ... .. 8 ... ... ... : ... .. 6 ... ... ... : C-3 00 . P7E : ... .. 3 ... : ... .. . ... ... : ... .. . ... ... : ... .. . ... ... : ... .. 1 ... ...
ROW 30 : ... .. . ... ... ... : ... .. 5 ... ... ... : B-2 00 . P77 : ... .. 2 ... : ... .. . ... ... : ... .. . ... ... : ... .. . ... ... : E-3 01 C ... ...
ROW 31 : ... .. . ... ... ... : ... .. 4 ... ... ... : A-2 00 . P8E : ... .. 0 ... : ... .. . ... ... : ... .. . ... ... : ... .. . ... ... : ... .. A ... ...
ROW 32 : E-4 00 C ... ... ... : D-3 00 8 ... ... ... : G#2 00 . P8D : C-# 00 F ... : ... .. . ... ... : ... .. . ... ... : ... .. . ... ... : ... .. 6 ... ...
ROW 33 : ... .. B ... ... ... : ... .. 7 ... ... ... : G-2 00 . ... : ... .. C ... : ... .. . ... ... : ... .. . ... ... : ... .. . ... ... : ... .. . ... ...
ROW 34 : ... .. A ... ... ... : ... .. . ... ... ... : F#2 00 . P8F : ... .. 6 ... : ... .. . ... ... : ... .. . ... ... : ... .. . ... ... : ... .. . ... ...
ROW 35 : ... .. 8 ... ... ... : ... .. 6 ... ... ... : ... .. . P6F : ... .. 3 ... : ... .. . ... ... : ... .. . ... ... : ... .. . ... ... : ... .. . ... ...
ROW 36 : ... .. . ... ... ... : ... .. 5 ... ... ... : F-2 00 . P73 : ... .. 2 ... : ... .. . ... ... : ... .. . ... ... : ... .. . ... ... : ... .. 3 ... ...
ROW 37 : ... .. . ... ... ... : ... .. 4 ... ... ... : E-2 00 . P79 : ... .. 0 ... : ... .. . ... ... : ... .. . ... ... : ... .. . ... ... : ... .. . ... ...
ROW 38 : D-4 00 C ... ... ... : A#2 00 8 ... ... ... : F-4 00 . P80 : 7-# 00 F ... : ... .. . ... ... : F-2 01 A ... ... : F-3 01 A ... ... : ... .. C ... ...
ROW 39 : ... .. B ... ... ... : ... .. 7 ... ... ... : G-3 00 . ... : ... .. C ... : ... .. . ... ... : ... .. 9 ... ... : ... .. 9 ... ... : ... .. A ... ...
ROW 3A : ... .. A ... ... ... : ... .. . ... ... ... : C-3 00 . ... : ... .. 6 ... : ... .. . ... ... : ... .. 8 ... ... : ... .. 8 ... ... : ... .. 6 ... ...
ROW 3B : ... .. 8 ... ... ... : ... .. 6 ... ... ... : B-2 00 . ... : ... .. 3 ... : ... .. . ... ... : ... .. 7 ... ... : ... .. 7 ... ... : ... .. . ... ...
ROW 3C : ... .. . ... ... ... : ... .. 5 ... ... ... : F#2 00 . ... : ... .. 2 ... : ... .. . ... ... : ... .. . ... ... : ... .. . ... ... : ... .. 3 ... ...
ROW 3D : ... .. . ... ... ... : ... .. 4 ... ... ... : ... .. . ... : ... .. 0 ... : ... .. . ... ... : ... .. 6 ... ... : ... .. 6 ... ... : ... .. . ... ...
ROW 3E : C-4 00 C ... ... ... : F-2 00 8 ... ... ... : ... .. . ... : 1-# 00 F ... : ... .. . ... ... : ... .. . ... ... : ... .. . ... ... : ... .. 1 ... ...
ROW 3F : ... .. B ... ... ... : ... .. 7 ... ... ... : ... .. . ... : ... .. C ... : ... .. . ... ... : ... .. 5 ... ... : ... .. 5 ... ... : ... .. . ... ...
ROW 40 : ... .. A ... ... ... : ... .. . ... ... ... : ... .. . ... : ... .. 6 ... : ... .. . ... ... : ... .. . ... ... : ... .. . ... ... : F-3 01 C ... ...
ROW 41 : ... .. 8 ... ... ... : ... .. 6 ... ... ... : ... .. . ... : ... .. 3 ... : ... .. . ... ... : ... .. . ... ... : ... .. . ... ... : ... .. A ... ...
ROW 42 : ... .. . ... ... ... : ... .. 5 ... ... ... : ... .. . ... : ... .. 2 ... : ... .. . ... ... : ... .. . ... ... : ... .. . ... ... : ... .. 6 ... ...
ROW 43 : ... .. . ... ... ... : ... .. 4 ... ... ... : ... .. . ... : ... .. 0 ... : ... .. . ... ... : ... .. . ... ... : ... .. . ... ... : ... .. . ... ...
ROW 44 : A#3 00 C ... ... ... : D-2 00 8 ... ... ... : ... .. . ... : C-# 00 F ... : ... .. . ... ... : ... .. . ... ... : ... .. . ... ... : ... .. . ... ...
ROW 45 : ... .. B ... ... ... : ... .. 7 ... ... ... : ... .. . ... : ... .. C ... : ... .. . ... ... : ... .. . ... ... : ... .. . ... ... : ... .. 3 ... ...
ROW 46 : ... .. A ... ... ... : ... .. . ... ... ... : ... .. . ... : ... .. 6 ... : ... .. . ... ... : ... .. . ... ... : ... .. . ... ... : ... .. . ... ...
ROW 47 : ... .. 8 ... ... ... : ... .. 6 ... ... ... : ... .. . ... : ... .. 3 ... : ... .. . ... ... : ... .. . ... ... : ... .. . ... ... : ... .. 1 ... ...
ROW 48 : ... .. . ... ... ... : ... .. 5 ... ... ... : ... .. . ... : ... .. 2 ... : ... .. . ... ... : ... .. . ... ... : ... .. . ... ... : E-3 01 C ... ...
ROW 49 : ... .. . ... ... ... : ... .. 4 ... ... ... : ... .. . ... : ... .. 0 ... : ... .. . ... ... : ... .. . ... ... : ... .. . ... ... : ... .. A ... ...
ROW 4A : A-3 00 C ... ... ... : A#1 00 8 ... ... ... : ... .. . ... : 7-# 00 F ... : ... .. . ... ... : ... .. . ... ... : ... .. . ... ... : ... .. 6 ... ...
ROW 4B : ... .. B ... ... ... : ... .. 7 ... ... ... : ... .. . ... : ... .. C ... : ... .. . ... ... : ... .. . ... ... : ... .. . ... ... : ... .. . ... ...
ROW 4C : ... .. A ... ... ... : ... .. . ... ... ... : ... .. . ... : ... .. 6 ... : ... .. . ... ... : ... .. . ... ... : ... .. . ... ... : ... .. . ... ...
ROW 4D : ... .. 8 ... ... ... : ... .. 6 ... ... ... : ... .. . ... : ... .. 3 ... : ... .. . ... ... : ... .. . ... ... : ... .. . ... ... : ... .. . ... ...
ROW 4E : ... .. . ... ... ... : ... .. 5 ... ... ... : ... .. . ... : ... .. 2 ... : ... .. . ... ... : ... .. . ... ... : ... .. . ... ... : ... .. 3 ... ...
ROW 4F : ... .. . ... ... ... : ... .. 4 ... ... ... : ... .. . ... : ... .. 0 ... : ... .. . ... ... : ... .. . ... ... : ... .. . ... ... : ... .. . ... ...
ROW 50 : C-4 00 C ... ... ... : D-4 00 8 ... ... ... : F-5 00 . ... : 1-# 00 F ... : ... .. . ... ... : A#2 01 A ... ... : A#3 01 A ... ... : ... .. C ... ...
ROW 51 : ... .. B ... ... ... : ... .. 7 ... ... ... : G-4 00 . ... : ... .. C ... : ... .. . ... ... : ... .. 9 ... ... : ... .. 9 ... ... : ... .. A ... ...
ROW 52 : ... .. A ... ... ... : ... .. . ... ... ... : C-4 00 . ... : ... .. 6 ... : ... .. . ... ... : ... .. 8 ... ... : ... .. 8 ... ... : ... .. 6 ... ...
ROW 53 : ... .. 8 ... ... ... : ... .. 6 ... ... ... : B-3 00 . ... : ... .. 3 ... : ... .. . ... ... : ... .. 7 ... ... : ... .. 7 ... ... : ... .. . ... ...
ROW 54 : ... .. . ... ... ... : ... .. 5 ... ... ... : F#3 00 . ... : ... .. 2 ... : ... .. . ... ... : ... .. . ... ... : ... .. . ... ... : ... .. 3 ... ...
ROW 55 : ... .. . ... ... ... : ... .. 4 ... ... ... : ... .. . ... : ... .. 0 ... : ... .. . ... ... : ... .. 6 ... ... : ... .. 6 ... ... : ... .. . ... ...
ROW 56 : A#3 00 C ... ... ... : A#3 00 8 ... ... ... : ... .. . ... : B-# 00 F ... : ... .. . ... ... : ... .. . ... ... : ... .. . ... ... : ... .. 1 ... ...
ROW 57 : ... .. B ... ... ... : ... .. 7 ... ... ... : ... .. . ... : ... .. C ... : ... .. . ... ... : ... .. 5 ... ... : ... .. 5 ... ... : ... .. . ... ...
ROW 58 : ... .. A ... ... ... : ... .. . ... ... ... : ... .. . ... : ... .. 6 ... : ... .. . ... ... : ... .. . ... ... : ... .. . ... ... : F-3 01 C ... ...
ROW 59 : ... .. 8 ... ... ... : ... .. 6 ... ... ... : ... .. . ... : ... .. 3 ... : ... .. . ... ... : ... .. . ... ... : ... .. . ... ... : ... .. A ... ...
ROW 5A : ... .. . ... ... ... : ... .. 5 ... ... ... : ... .. . ... : ... .. 2 ... : ... .. . ... ... : ... .. . ... ... : ... .. . ... ... : ... .. 6 ... ...
ROW 5B : ... .. . ... ... ... : ... .. 4 ... ... ... : ... .. . ... : ... .. 0 ... : ... .. . ... ... : ... .. . ... ... : ... .. . ... ... : ... .. . ... ...
ROW 5C : A-3 00 C ... ... ... : F-3 00 8 ... ... ... : E-3 00 . P85 : 7-# 00 F ... : ... .. . ... ... : ... .. . ... ... : ... .. . ... ... : ... .. . ... ...
ROW 5D : ... .. B ... ... ... : ... .. 7 ... ... ... : D#3 00 . P7A : ... .. C ... : ... .. . ... ... : ... .. . ... ... : ... .. . ... ... : ... .. 3 ... ...
ROW 5E : ... .. A ... ... ... : ... .. . ... ... ... : C#3 00 . P86 : ... .. 6 ... : ... .. . ... ... : ... .. . ... ... : ... .. . ... ... : ... .. . ... ...
ROW 5F : ... .. 8 ... ... ... : ... .. 6 ... ... ... : C-3 00 . P7E : ... .. 3 ... : ... .. . ... ... : ... .. . ... ... : ... .. . ... ... : ... .. 1 ... ...
ROW 60 : ... .. . ... ... ... : ... .. 5 ... ... ... : B-2 00 . P77 : ... .. 2 ... : ... .. . ... ... : ... .. . ... ... : ... .. . ... ... : E-3 01 C ... ...
ROW 61 : ... .. . ... ... ... : ... .. 4 ... ... ... : A-2 00 . P8E : ... .. 0 ... : ... .. . ... ... : ... .. . ... ... : ... .. . ... ... : ... .. A ... ...
ROW 62 : G-3 00 C ... ... ... : D-3 00 8 ... ... ... : G#2 00 . P8D : 1-# 00 F ... : ... .. . ... ... : C-3 01 A ... ... : C-4 01 A ... ... : ... .. 6 ... ...
ROW 63 : ... .. B ... ... ... : ... .. 7 ... ... ... : G-2 00 . ... : ... .. C ... : ... .. . ... ... : ... .. 9 ... ... : ... .. 9 ... ... : ... .. . ... ...
ROW 64 : ... .. A ... ... ... : ... .. . ... ... ... : F#2 00 . P8F : ... .. 6 ... : ... .. . ... ... : ... .. 8 ... ... : ... .. 8 ... ... : ... .. . ... ...
ROW 65 : ... .. 8 ... ... ... : ... .. 6 ... ... ... : ... .. . P6F : ... .. 3 ... : ... .. . ... ... : ... .. 7 ... ... : ... .. 7 ... ... : ... .. . ... ...
ROW 66 : ... .. . ... ... ... : ... .. 5 ... ... ... : F-2 00 . P73 : ... .. 2 ... : ... .. . ... ... : ... .. . ... ... : ... .. . ... ... : ... .. 3 ... ...
ROW 67 : ... .. . ... ... ... : ... .. 4 ... ... ... : E-2 00 . P79 : ... .. 0 ... : ... .. . ... ... : ... .. 6 ... ... : ... .. 6 ... ... : ... .. . ... ...
ROW 68 : F-3 00 C ... ... ... : A#2 00 8 ... ... ... : F-4 00 . P80 : 9-# 00 F ... : ... .. . ... ... : ... .. . ... ... : ... .. . ... ... : ... .. C ... ...
ROW 69 : ... .. B ... ... ... : ... .. 7 ... ... ... : G-3 00 . ... : ... .. C ... : ... .. . ... ... : ... .. 5 ... ... : ... .. 5 ... ... : ... .. A ... ...
ROW 6A : ... .. A ... ... ... : ... .. . ... ... ... : C-3 00 . ... : ... .. 6 ... : ... .. . ... ... : ... .. . ... ... : ... .. . ... ... : ... .. 6 ... ...
ROW 6B : ... .. 8 ... ... ... : ... .. 6 ... ... ... : B-2 00 . ... : ... .. 3 ... : ... .. . ... ... : ... .. . ... ... : ... .. . ... ... : ... .. . ... ...
ROW 6C : ... .. . ... ... ... : ... .. 5 ... ... ... : F#2 00 . ... : ... .. 2 ... : ... .. . ... ... : ... .. . ... ... : ... .. . ... ... : ... .. 3 ... ...
ROW 6D : ... .. . ... ... ... : ... .. 4 ... ... ... : ... .. . ... : ... .. 0 ... : ... .. . ... ... : ... .. . ... ... : ... .. . ... ... : ... .. . ... ...
ROW 6E : E-3 00 C ... ... ... : F-2 00 8 ... ... ... : ... .. . ... : ... .. F ... : ... .. . ... ... : ... .. . ... ... : ... .. . ... ... : ... .. 1 ... ...
ROW 6F : ... .. B ... ... ... : ... .. 7 ... ... ... : ... .. . ... : ... .. C ... : ... .. . ... ... : ... .. . ... ... : ... .. . ... ... : ... .. . ... ...
ROW 70 : ... .. A ... ... ... : ... .. . ... ... ... : ... .. . ... : ... .. 6 ... : ... .. . ... ... : ... .. . ... ... : ... .. . ... ... : F-3 01 C ... ...
ROW 71 : ... .. 8 ... ... ... : ... .. 6 ... ... ... : ... .. . ... : ... .. 3 ... : ... .. . ... ... : ... .. . ... ... : ... .. . ... ... : ... .. A ... ...
ROW 72 : ... .. . ... ... ... : ... .. 5 ... ... ... : ... .. . ... : ... .. 2 ... : ... .. . ... ... : ... .. . ... ... : ... .. . ... ... : ... .. 6 ... ...
ROW 73 : ... .. . ... ... ... : ... .. 4 ... ... ... : ... .. . ... : ... .. 0 ... : ... .. . ... ... : ... .. . ... ... : ... .. . ... ... : ... .. . ... ...
ROW 74 : D-3 00 C ... ... ... : D-2 00 8 ... ... ... : ... .. . ... : 7-# 00 F ... : ... .. . ... ... : D-3 01 A ... ... : D-4 01 A ... ... : ... .. . ... ...
ROW 75 : ... .. B ... ... ... : ... .. 7 ... ... ... : ... .. . ... : ... .. C ... : ... .. . ... ... : ... .. 9 ... ... : ... .. 9 ... ... : ... .. 3 ... ...
ROW 76 : ... .. A ... ... ... : ... .. . ... ... ... : ... .. . ... : ... .. 6 ... : ... .. . ... ... : ... .. 8 ... ... : ... .. 8 ... ... : ... .. . ... ...
ROW 77 : ... .. 8 ... ... ... : ... .. 6 ... ... ... : ... .. . ... : ... .. 3 ... : ... .. . ... ... : ... .. 7 ... ... : ... .. 7 ... ... : ... .. 1 ... ...
ROW 78 : ... .. . ... ... ... : ... .. 5 ... ... ... : ... .. . ... : ... .. 2 ... : ... .. . ... ... : ... .. . ... ... : ... .. . ... ... : E-3 01 C ... ...
ROW 79 : ... .. . ... ... ... : ... .. 4 ... ... ... : ... .. . ... : ... .. 0 ... : ... .. . ... ... : ... .. 6 ... ... : ... .. 6 ... ... : ... .. A ... ...
ROW 7A : C-3 00 C ... ... ... : A#1 00 8 ... ... ... : ... .. . ... : ... .. F ... : ... .. . ... ... : ... .. . ... ... : ... .. . ... ... : ... .. 6 ... ...
ROW 7B : ... .. B ... ... ... : ... .. 7 ... ... ... : ... .. . ... : ... .. C ... : ... .. . ... ... : ... .. 5 ... ... : ... .. 5 ... ... : ... .. . ... ...
ROW 7C : ... .. A ... ... ... : ... .. . ... ... ... : ... .. . ... : ... .. 6 ... : ... .. . ... ... : ... .. . ... ... : ... .. . ... ... : ... .. . ... ...
ROW 7D : ... .. 8 ... ... ... : ... .. 6 ... ... ... : ... .. . ... : ... .. 3 ... : ... .. . ... ... : ... .. . ... ... : ... .. . ... ... : ... .. . ... ...
ROW 7E : ... .. . ... ... ... : ... .. 5 ... ... ... : ... .. . ... : ... .. 2 ... : ... .. . ... ... : ... .. . ... ... : ... .. . ... ... : ... .. 3 ... ...
ROW 7F : ... .. . ... ... ... : ... .. 4 ... ... ... : ... .. . ... : ... .. 0 ... : ... .. . ... ... : ... .. . ... ... : ... .. . ... ... : ... .. . ... ...
ROW 80 : A#2 00 C ... ... ... : C-4 00 8 ... ... ... : F-5 00 . ... : 9-# 00 F ... : ... .. . ... ... : C-3 01 A ... ... : C-4 01 A ... ... : F#3 01 C ... ...
ROW 81 : ... .. B ... ... ... : ... .. 7 ... ... ... : G-4 00 . ... : ... .. C ... : ... .. . ... ... : ... .. 9 ... ... : ... .. 9 ... ... : ... .. A ... ...
ROW 82 : ... .. A ... ... ... : ... .. . ... ... ... : C-4 00 . ... : ... .. 6 ... : ... .. . ... ... : ... .. 8 ... ... : ... .. 8 ... ... : ... .. 6 ... ...
ROW 83 : ... .. 8 ... ... ... : ... .. 6 ... ... ... : B-3 00 . ... : ... .. 3 ... : ... .. . ... ... : ... .. 7 ... ... : ... .. 7 ... ... : ... .. . ... ...
ROW 84 : ... .. . ... ... ... : ... .. 5 ... ... ... : F#3 00 . ... : ... .. 2 ... : ... .. . ... ... : ... .. . ... ... : ... .. . ... ... : ... .. 3 ... ...
ROW 85 : ... .. . ... ... ... : ... .. 4 ... ... ... : ... .. . ... : ... .. 0 ... : ... .. . ... ... : ... .. 6 ... ... : ... .. 6 ... ... : ... .. . ... ...
ROW 86 : G#2 00 C ... ... ... : G#3 00 8 ... ... ... : ... .. . ... : 2-# 00 F ... : ... .. . ... ... : ... .. . ... ... : ... .. . ... ... : ... .. 1 ... ...
ROW 87 : ... .. B ... ... ... : ... .. 7 ... ... ... : ... .. . ... : ... .. C ... : ... .. . ... ... : ... .. 5 ... ... : ... .. 5 ... ... : ... .. . ... ...
ROW 88 : ... .. A ... ... ... : ... .. . ... ... ... : ... .. . ... : ... .. 6 ... : ... .. . ... ... : ... .. . ... ... : ... .. . ... ... : G#3 01 C ... ...
ROW 89 : ... .. 8 ... ... ... : ... .. 6 ... ... ... : ... .. . ... : ... .. 3 ... : ... .. . ... ... : ... .. . ... ... : ... .. . ... ... : ... .. A ... ...
ROW 8A : ... .. . ... ... ... : ... .. 5 ... ... ... : ... .. . ... : ... .. 2 ... : ... .. . ... ... : ... .. . ... ... : ... .. . ... ... : ... .. 6 ... ...
ROW 8B : ... .. . ... ... ... : ... .. 4 ... ... ... : ... .. . ... : ... .. 0 ... : ... .. . ... ... : ... .. . ... ... : ... .. . ... ... : ... .. . ... ...
ROW 8C : F#2 00 C ... ... ... : D#3 00 8 ... ... ... : E-3 00 . P85 : 1-# 00 F ... : ... .. . ... ... : ... .. . ... ... : ... .. . ... ... : ... .. . ... ...
ROW 8D : ... .. B ... ... ... : ... .. 7 ... ... ... : D#3 00 . P7A : ... .. C ... : ... .. . ... ... : ... .. . ... ... : ... .. . ... ... : ... .. 3 ... ...
ROW 8E : ... .. A ... ... ... : ... .. . ... ... ... : C#3 00 . P86 : ... .. 6 ... : ... .. . ... ... : ... .. . ... ... : ... .. . ... ... : ... .. . ... ...
ROW 8F : ... .. 8 ... ... ... : ... .. 6 ... ... ... : C-3 00 . P7E : ... .. 3 ... : ... .. . ... ... : ... .. . ... ... : ... .. . ... ... : ... .. 1 ... ...
ROW 90 : ... .. . ... ... ... : ... .. 5 ... ... ... : B-2 00 . P77 : ... .. 2 ... : ... .. . ... ... : ... .. . ... ... : ... .. . ... ... : F#3 01 C ... ...
ROW 91 : ... .. . ... ... ... : ... .. 4 ... ... ... : A-2 00 . P8E : ... .. 0 ... : ... .. . ... ... : ... .. . ... ... : ... .. . ... ... : ... .. A ... ...
ROW 92 : E-2 00 C ... ... ... : C-3 00 8 ... ... ... : G#2 00 . P8D : C-# 00 F ... : ... .. . ... ... : ... .. . ... ... : ... .. . ... ... : ... .. 6 ... ...
ROW 93 : ... .. B ... ... ... : ... .. 7 ... ... ... : G-2 00 . ... : ... .. C ... : ... .. . ... ... : ... .. . ... ... : ... .. . ... ... : ... .. . ... ...
ROW 94 : ... .. A ... ... ... : ... .. . ... ... ... : F#2 00 . P8F : ... .. 6 ... : ... .. . ... ... : ... .. . ... ... : ... .. . ... ... : ... .. . ... ...
ROW 95 : ... .. 8 ... ... ... : ... .. 6 ... ... ... : ... .. . P6F : ... .. 3 ... : ... .. . ... ... : ... .. . ... ... : ... .. . ... ... : ... .. . ... ...
ROW 96 : ... .. . ... ... ... : ... .. 5 ... ... ... : F-2 00 . P73 : ... .. 2 ... : ... .. . ... ... : ... .. . ... ... : ... .. . ... ... : ... .. 3 ... ...
ROW 97 : ... .. . ... ... ... : ... .. 4 ... ... ... : E-2 00 . P79 : ... .. 0 ... : ... .. . ... ... : ... .. . ... ... : ... .. . ... ... : ... .. . ... ...
ROW 98 : D-2 00 C ... ... ... : G#2 00 8 ... ... ... : F-4 00 . P80 : 7-# 00 F ... : ... .. . ... ... : F#3 01 A ... ... : ... .. . ... ... : ... .. C ... ...
ROW 99 : ... .. B ... ... ... : ... .. 7 ... ... ... : G-3 00 . ... : ... .. C ... : ... .. . ... ... : ... .. 9 ... ... : ... .. . ... ... : ... .. A ... ...
ROW 9A : ... .. A ... ... ... : ... .. . ... ... ... : C-3 00 . ... : ... .. 6 ... : ... .. . ... ... : ... .. 8 ... ... : ... .. . ... ... : ... .. 6 ... ...
ROW 9B : ... .. 8 ... ... ... : ... .. 6 ... ... ... : B-2 00 . ... : ... .. 3 ... : ... .. . ... ... : ... .. 7 ... ... : ... .. . ... ... : ... .. . ... ...
ROW 9C : ... .. . ... ... ... : ... .. 5 ... ... ... : F#2 00 . ... : ... .. 2 ... : ... .. . ... ... : ... .. . ... ... : ... .. . ... ... : ... .. 3 ... ...
ROW 9D : ... .. . ... ... ... : ... .. 4 ... ... ... : ... .. . ... : ... .. 0 ... : ... .. . ... ... : ... .. 6 ... ... : ... .. . ... ... : ... .. . ... ...
ROW 9E : C-2 00 C ... ... ... : D#2 00 8 ... ... ... : ... .. . ... : 1-# 00 F ... : ... .. . ... ... : G#3 01 A ... ... : ... .. . ... ... : ... .. 1 ... ...
ROW 9F : ... .. B ... ... ... : ... .. 7 ... ... ... : ... .. . ... : ... .. C ... : ... .. . ... ... : ... .. 9 ... ... : ... .. . ... ... : ... .. . ... ...
ROW A0 : ... .. A ... ... ... : ... .. . ... ... ... : ... .. . ... : ... .. 6 ... : ... .. . ... ... : ... .. 8 ... ... : ... .. . ... ... : G#3 01 C ... ...
ROW A1 : ... .. 8 ... ... ... : ... .. 6 ... ... ... : ... .. . ... : ... .. 3 ... : ... .. . ... ... : ... .. 7 ... ... : ... .. . ... ... : ... .. A ... ...
ROW A2 : ... .. . ... ... ... : ... .. 5 ... ... ... : ... .. . ... : ... .. 2 ... : ... .. . ... ... : ... .. . ... ... : ... .. . ... ... : ... .. 6 ... ...
ROW A3 : ... .. . ... ... ... : ... .. 4 ... ... ... : ... .. . ... : ... .. 0 ... : ... .. . ... ... : ... .. 6 ... ... : ... .. . ... ... : ... .. . ... ...
ROW A4 : A#1 00 C ... ... ... : C-2 00 8 ... ... ... : ... .. . ... : C-# 00 F ... : ... .. . ... ... : C-4 01 A ... ... : ... .. . ... ... : ... .. . ... ...
ROW A5 : ... .. B ... ... ... : ... .. 7 ... ... ... : ... .. . ... : ... .. C ... : ... .. . ... ... : ... .. 9 ... ... : ... .. . ... ... : ... .. 3 ... ...
ROW A6 : ... .. A ... ... ... : ... .. . ... ... ... : ... .. . ... : ... .. 6 ... : ... .. . ... ... : ... .. 8 ... ... : ... .. . ... ... : ... .. . ... ...
ROW A7 : ... .. 8 ... ... ... : ... .. 6 ... ... ... : ... .. . ... : ... .. 3 ... : ... .. . ... ... : ... .. 7 ... ... : ... .. . ... ... : ... .. 1 ... ...
ROW A8 : ... .. . ... ... ... : ... .. 5 ... ... ... : ... .. . ... : ... .. 2 ... : ... .. . ... ... : ... .. . ... ... : ... .. . ... ... : F#3 01 C ... ...
ROW A9 : ... .. . ... ... ... : ... .. 4 ... ... ... : ... .. . ... : ... .. 0 ... : ... .. . ... ... : ... .. 6 ... ... : ... .. . ... ... : ... .. A ... ...
ROW AA : G#1 00 C ... ... ... : G#1 00 8 ... ... ... : ... .. . ... : 7-# 00 F ... : ... .. . ... ... : D#4 01 A ... ... : ... .. . ... ... : ... .. 6 ... ...
ROW AB : ... .. B ... ... ... : ... .. 7 ... ... ... : ... .. . ... : ... .. C ... : ... .. . ... ... : ... .. 9 ... ... : ... .. . ... ... : ... .. . ... ...
ROW AC : ... .. A ... ... ... : ... .. . ... ... ... : ... .. . ... : ... .. 6 ... : ... .. . ... ... : ... .. 8 ... ... : ... .. . ... ... : ... .. . ... ...
ROW AD : ... .. 8 ... ... ... : ... .. 6 ... ... ... : ... .. . ... : ... .. 3 ... : ... .. . ... ... : ... .. 7 ... ... : ... .. . ... ... : ... .. . ... ...
ROW AE : ... .. . ... ... ... : ... .. 5 ... ... ... : ... .. . ... : ... .. 2 ... : ... .. . ... ... : ... .. . ... ... : ... .. . ... ... : ... .. 3 ... ...
ROW AF : ... .. . ... ... ... : ... .. 4 ... ... ... : ... .. . ... : ... .. 0 ... : ... .. . ... ... : ... .. 6 ... ... : ... .. . ... ... : ... .. . ... ...
ROW B0 : F#1 00 C ... ... ... : C-4 00 8 ... ... ... : F-5 00 . ... : 1-# 00 F ... : ... .. . ... ... : D-4 01 A ... ... : ... .. . ... ... : ... .. C ... ...
ROW B1 : ... .. B ... ... ... : ... .. 7 ... ... ... : G-4 00 . ... : ... .. C ... : ... .. . ... ... : ... .. 9 ... ... : ... .. . ... ... : ... .. A ... ...
ROW B2 : ... .. A ... ... ... : ... .. . ... ... ... : C-4 00 . ... : ... .. 6 ... : ... .. . ... ... : ... .. 8 ... ... : ... .. . ... ... : ... .. 6 ... ...
ROW B3 : ... .. 8 ... ... ... : ... .. 6 ... ... ... : B-3 00 . ... : ... .. 3 ... : ... .. . ... ... : ... .. 7 ... ... : ... .. . ... ... : ... .. . ... ...
ROW B4 : ... .. . ... ... ... : ... .. 5 ... ... ... : F#3 00 . ... : ... .. 2 ... : ... .. . ... ... : ... .. . ... ... : ... .. . ... ... : ... .. 3 ... ...
ROW B5 : ... .. . ... ... ... : ... .. 4 ... ... ... : ... .. . ... : ... .. 0 ... : ... .. . ... ... : ... .. 6 ... ... : ... .. . ... ... : ... .. . ... ...
ROW B6 : ... .. . ... ... ... : G#3 00 8 ... ... ... : ... .. . ... : B-# 00 F ... : ... .. . ... ... : D#4 01 A ... ... : ... .. . ... ... : ... .. 1 ... ...
ROW B7 : ... .. . ... ... ... : ... .. 7 ... ... ... : ... .. . ... : ... .. C ... : ... .. . ... ... : ... .. 9 ... ... : ... .. . ... ... : ... .. . ... ...
ROW B8 : ... .. . ... ... ... : ... .. . ... ... ... : ... .. . ... : ... .. 6 ... : ... .. . ... ... : ... .. 8 ... ... : ... .. . ... ... : G#3 01 C ... ...
ROW B9 : ... .. . ... ... ... : ... .. 6 ... ... ... : ... .. . ... : ... .. 3 ... : ... .. . ... ... : ... .. 7 ... ... : ... .. . ... ... : ... .. A ... ...
ROW BA : ... .. . ... ... ... : ... .. 5 ... ... ... : ... .. . ... : ... .. 2 ... : ... .. . ... ... : ... .. . ... ... : ... .. . ... ... : ... .. 6 ... ...
ROW BB : ... .. . ... ... ... : ... .. 4 ... ... ... : ... .. . ... : ... .. 0 ... : ... .. . ... ... : ... .. 6 ... ... : ... .. . ... ... : ... .. . ... ...
ROW BC : ... .. . ... ... ... : D#3 00 8 ... ... ... : E-3 00 . P85 : 7-# 00 F ... : ... .. . ... ... : F#4 01 A ... ... : ... .. . ... ... : ... .. . ... ...
ROW BD : ... .. . ... ... ... : ... .. 7 ... ... ... : D#3 00 . P7A : ... .. C ... : ... .. . ... ... : ... .. 9 ... ... : ... .. . ... ... : ... .. 3 ... ...
ROW BE : ... .. . ... ... ... : ... .. . ... ... ... : C#3 00 . P86 : ... .. 6 ... : ... .. . ... ... : ... .. 8 ... ... : ... .. . ... ... : ... .. . ... ...
ROW BF : ... .. . ... ... ... : ... .. 6 ... ... ... : C-3 00 . P7E : ... .. 3 ... : ... .. . ... ... : ... .. 7 ... ... : ... .. . ... ... : ... .. 1 ... ...
ROW C0 : ... .. . ... ... ... : ... .. 5 ... ... ... : B-2 00 . P77 : ... .. 2 ... : ... .. . ... ... : ... .. . ... ... : ... .. . ... ... : F#3 01 C ... ...
ROW C1 : ... .. . ... ... ... : ... .. 4 ... ... ... : A-2 00 . P8E : ... .. 0 ... : ... .. . ... ... : ... .. 6 ... ... : ... .. . ... ... : ... .. A ... ...
ROW C2 : F#2 00 C ... ... ... : C-3 00 8 ... ... ... : G#2 00 . P8D : 1-# 00 F ... : ... .. . ... ... : G#4 01 A ... ... : ... .. . ... ... : ... .. 6 ... ...
ROW C3 : ... .. B ... ... ... : ... .. 7 ... ... ... : G-2 00 . ... : ... .. C ... : ... .. . ... ... : ... .. 9 ... ... : ... .. . ... ... : ... .. . ... ...
ROW C4 : ... .. A ... ... ... : ... .. . ... ... ... : F#2 00 . P8F : ... .. 6 ... : ... .. . ... ... : ... .. 8 ... ... : ... .. . ... ... : ... .. . ... ...
ROW C5 : ... .. 0 ... ... ... : ... .. 6 ... ... ... : ... .. . P6F : ... .. 3 ... : ... .. . ... ... : ... .. 7 ... ... : ... .. . ... ... : ... .. . ... ...
ROW C6 : ... .. . ... ... ... : ... .. 5 ... ... ... : F-2 00 . P73 : ... .. 2 ... : ... .. . ... ... : ... .. . ... ... : ... .. . ... ... : ... .. 3 ... ...
ROW C7 : ... .. . ... ... ... : ... .. 4 ... ... ... : E-2 00 . P79 : ... .. 0 ... : ... .. . ... ... : ... .. 6 ... ... : ... .. . ... ... : ... .. . ... ...
ROW C8 : F#3 00 C P80 ... ... : G#2 00 8 ... ... ... : F-4 00 . P80 : 9-# 00 F ... : ... .. . ... ... : F#4 01 A ... ... : ... .. . ... ... : ... .. C ... ...
ROW C9 : ... .. B ... ... ... : ... .. 7 ... ... ... : G-3 00 . ... : ... .. C ... : ... .. . ... ... : ... .. 9 ... ... : ... .. . ... ... : ... .. A ... ...
ROW CA : ... .. A ... ... ... : ... .. . ... ... ... : C-3 00 . ... : ... .. 6 ... : ... .. . ... ... : ... .. 8 ... ... : ... .. . ... ... : ... .. 6 ... ...
ROW CB : ... .. 8 ... ... ... : ... .. 6 ... ... ... : B-2 00 . ... : ... .. 3 ... : ... .. . ... ... : ... .. 7 ... ... : ... .. . ... ... : ... .. . ... ...
ROW CC : ... .. . ... ... ... : ... .. 5 ... ... ... : F#2 00 . ... : ... .. 2 ... : ... .. . ... ... : ... .. . ... ... : ... .. . ... ... : ... .. 3 ... ...
ROW CD : ... .. . ... ... ... : ... .. 4 ... ... ... : ... .. . ... : ... .. 0 ... : ... .. . ... ... : ... .. 6 ... ... : ... .. . ... ... : ... .. . ... ...
ROW CE : ... .. . ... ... ... : D#2 00 8 ... ... ... : ... .. . ... : ... .. F ... : ... .. . ... ... : G#4 01 A ... ... : ... .. . ... ... : ... .. 1 ... ...
ROW CF : ... .. . ... ... ... : ... .. 7 ... ... ... : ... .. . ... : ... .. C ... : ... .. . ... ... : ... .. 9 ... ... : ... .. . ... ... : ... .. . ... ...
ROW D0 : ... .. . ... ... ... : ... .. . ... ... ... : ... .. . ... : ... .. 6 ... : ... .. . ... ... : ... .. 8 ... ... : ... .. . ... ... : G#3 01 C ... ...
ROW D1 : ... .. . ... ... ... : ... .. 6 ... ... ... : ... .. . ... : ... .. 3 ... : ... .. . ... ... : ... .. 7 ... ... : ... .. . ... ... : ... .. A ... ...
ROW D2 : ... .. . ... ... ... : ... .. 5 ... ... ... : ... .. . ... : ... .. 2 ... : ... .. . ... ... : ... .. . ... ... : ... .. . ... ... : ... .. 6 ... ...
ROW D3 : ... .. . ... ... ... : ... .. 4 ... ... ... : ... .. . ... : ... .. 0 ... : ... .. . ... ... : ... .. 6 ... ... : ... .. . ... ... : ... .. . ... ...
ROW D4 : ... .. . ... ... ... : C-2 00 8 ... ... ... : ... .. . ... : 7-# 00 F ... : ... .. . ... ... : C-5 01 A ... ... : ... .. . ... ... : ... .. . ... ...
ROW D5 : ... .. . ... ... ... : ... .. 7 ... ... ... : ... .. . ... : ... .. C ... : ... .. . ... ... : ... .. 9 ... ... : ... .. . ... ... : ... .. 3 ... ...
ROW D6 : ... .. . ... ... ... : ... .. . ... ... ... : ... .. . ... : ... .. 6 ... : ... .. . ... ... : ... .. 8 ... ... : ... .. . ... ... : ... .. . ... ...
ROW D7 : ... .. . ... ... ... : ... .. 6 ... ... ... : ... .. . ... : ... .. 3 ... : ... .. . ... ... : ... .. 7 ... ... : ... .. . ... ... : ... .. 1 ... ...
ROW D8 : ... .. . ... ... ... : ... .. 5 ... ... ... : ... .. . ... : ... .. 2 ... : ... .. . ... ... : ... .. . ... ... : ... .. . ... ... : F#3 01 C ... ...
ROW D9 : ... .. . ... ... ... : ... .. 4 ... ... ... : ... .. . ... : ... .. 0 ... : ... .. . ... ... : ... .. 6 ... ... : ... .. . ... ... : ... .. A ... ...
ROW DA : ... .. . ... ... ... : G#1 00 8 ... ... ... : ... .. . ... : ... .. F ... : ... .. . ... ... : D-5 01 A ... ... : ... .. . ... ... : ... .. 6 ... ...
ROW DB : ... .. . ... ... ... : ... .. 7 ... ... ... : ... .. . ... : ... .. C ... : ... .. . ... ... : ... .. 9 ... ... : ... .. . ... ... : ... .. . ... ...
ROW DC : ... .. . ... ... ... : ... .. . ... ... ... : ... .. . ... : ... .. 6 ... : ... .. . ... ... : ... .. 8 ... ... : ... .. . ... ... : ... .. . ... ...
ROW DD : ... .. 0 ... ... ... : ... .. 6 ... ... ... : ... .. . ... : ... .. 3 ... : ... .. . ... ... : ... .. 7 ... ... : ... .. . ... ... : ... .. . ... ...
ROW DE : ... .. . ... ... ... : ... .. 5 ... ... ... : ... .. . ... : ... .. 2 ... : ... .. . ... ... : ... .. . ... ... : ... .. . ... ... : ... .. 3 ... ...
ROW DF : ... .. . ... ... ... : ... .. 4 ... ... ... : ... .. . ... : ... .. 0 ... : ... .. . ... ... : ... .. 6 ... ... : ... .. . ... ... : ... .. . ... ...
ROW E0 : ... .. . ... ... ... : E-5 00 A ... ... ... : --- .. . ... : 9-# 00 F ... : ... .. . ... ... : F-4 01 8 ... ... : A-4 01 8 ... ... : --- .. . P82 ...
ROW E1 : ... .. . ... ... ... : ... .. 8 ... ... ... : ... .. . ... : ... .. C ... : ... .. . ... ... : ... .. 7 ... ... : ... .. 7 ... ... : ... .. . ... ...
ROW E2 : ... .. . ... ... ... : ... .. . ... ... ... : ... .. . ... : ... .. 6 ... : ... .. . ... ... : ... .. 6 ... ... : ... .. 6 ... ... : ... .. . ... ...
ROW E3 : D-4 00 4 P80 ... ... : ... .. . ... ... ... : ... .. . ... : ... .. 3 ... : ... .. . ... ... : ... .. 5 ... ... : ... .. 5 ... ... : ... .. . ... ...
ROW E4 : ... .. 3 ... ... ... : ... .. 6 ... ... ... : ... .. . ... : ... .. 2 ... : ... .. . ... ... : ... .. . ... ... : ... .. . ... ... : ... .. . ... ...
ROW E5 : ... .. . ... ... ... : ... .. 5 ... ... ... : ... .. . ... : ... .. 0 ... : ... .. . ... ... : ... .. 4 ... ... : ... .. 4 ... ... : ... .. . ... ...
ROW E6 : E-4 00 5 ... ... ... : D-5 00 A ... ... ... : ... .. . ... : 2-# 00 F ... : ... .. . ... ... : ... .. . ... ... : ... .. . ... ... : ... .. . ... ...
ROW E7 : ... .. 4 ... ... ... : ... .. 8 ... ... ... : ... .. . ... : ... .. C ... : ... .. . ... ... : ... .. . ... ... : ... .. . ... ... : ... .. . ... ...
ROW E8 : ... .. . ... ... ... : ... .. . ... ... ... : ... .. . ... : ... .. 6 ... : ... .. . ... ... : ... .. . ... ... : ... .. . ... ... : ... .. . ... ...
ROW E9 : F-4 00 7 ... ... ... : E-5 00 5 ... ... ... : ... .. . ... : ... .. 3 ... : ... .. . ... ... : --- .. . ... ... : --- .. . ... ... : ... .. . ... ...
ROW EA : ... .. 6 ... ... ... : ... .. 4 ... ... ... : ... .. . ... : ... .. 2 ... : ... .. . ... ... : ... .. . ... ... : ... .. . ... ... : ... .. . ... ...
ROW EB : ... .. . ... ... ... : ... .. . ... ... ... : ... .. . ... : ... .. 0 ... : ... .. . ... ... : ... .. . ... ... : ... .. . ... ... : ... .. . ... ...
ROW EC : G-4 00 8 ... ... ... : A-4 00 A ... ... ... : ... .. . ... : 1-# 00 F ... : ... .. . ... ... : F-4 01 6 ... ... : A-4 01 6 ... ... : ... .. . ... ...
ROW ED : ... .. 7 ... ... ... : ... .. 8 ... ... ... : ... .. . ... : ... .. C ... : ... .. . ... ... : ... .. 4 ... ... : ... .. 4 ... ... : ... .. . ... ...
ROW EE : ... .. 6 ... ... ... : ... .. . ... ... ... : ... .. . ... : ... .. 6 ... : ... .. . ... ... : ... .. 3 ... ... : ... .. 3 ... ... : ... .. . ... ...
ROW EF : A-4 00 A ... ... ... : D-5 00 5 ... ... ... : ... .. . ... : ... .. 3 ... : ... .. . ... ... : ... .. 1 ... ... : ... .. 1 ... ... : ... .. . ... ...
ROW F0 : ... .. 9 ... ... ... : ... .. 4 ... ... ... : ... .. . ... : ... .. 2 ... : ... .. . ... ... : ... .. 6 ... ... : ... .. 6 ... ... : ... .. . ... ...
ROW F1 : ... .. 8 ... ... ... : ... .. . ... ... ... : ... .. . ... : ... .. 0 ... : ... .. . ... ... : ... .. 4 ... ... : ... .. 4 ... ... : ... .. . ... ...
ROW F2 : A#4 00 B ... ... ... : F-4 00 A ... ... ... : ... .. . ... : C-# 00 F ... : ... .. . ... ... : ... .. 3 ... ... : ... .. 3 ... ... : ... .. . ... ...
ROW F3 : ... .. A ... ... ... : ... .. 8 ... ... ... : ... .. . ... : ... .. C ... : ... .. . ... ... : ... .. 1 ... ... : ... .. 1 ... ... : ... .. . ... ...
ROW F4 : ... .. 9 ... ... ... : ... .. . ... ... ... : ... .. . ... : ... .. 6 ... : ... .. . ... ... : ... .. 6 ... ... : ... .. 6 ... ... : ... .. . ... ...
ROW F5 : C-5 00 D ... ... ... : A-4 00 5 ... ... ... : ... .. . ... : ... .. 3 ... : ... .. . ... ... : ... .. 4 ... ... : ... .. 4 ... ... : ... .. . ... ...
ROW F6 : ... .. C ... ... ... : ... .. 4 ... ... ... : ... .. . ... : ... .. 2 ... : ... .. . ... ... : ... .. 3 ... ... : ... .. 3 ... ... : ... .. . ... ...
ROW F7 : ... .. B ... ... ... : ... .. . ... ... ... : ... .. . ... : ... .. 0 ... : ... .. . ... ... : ... .. 1 ... ... : ... .. 1 ... ... : ... .. . ... ...
ROW F8 : D-5 00 F ... ... ... : D-4 00 A ... ... ... : C#4 00 . ... : A-# 00 C ... : ... .. . ... ... : ... .. 8 ... ... : ... .. 8 ... ... : D-0 01 C P80 ...
ROW F9 : ... .. E ... ... ... : ... .. 8 ... ... ... : D#3 00 . ... : ... .. . ... : ... .. . ... ... : ... .. 7 ... ... : ... .. 7 ... ... : ... .. A ... ...
ROW FA : ... .. D ... ... ... : ... .. . ... ... ... : G#2 00 . ... : ... .. . ... : ... .. . ... ... : ... .. 6 ... ... : ... .. 6 ... ... : ... .. 6 ... ...
ROW FB : ... .. A ... ... ... : F-4 00 5 ... ... ... : G-2 00 . ... : ... .. A ... : ... .. . ... ... : ... .. 5 ... ... : ... .. 5 ... ... : ... .. . ... ...
ROW FC : ... .. . ... ... ... : ... .. 4 ... ... ... : D-2 00 . ... : ... .. . ... : ... .. . ... ... : ... .. . ... ... : ... .. . ... ... : ... .. . ... ...
ROW FD : ... .. . ... ... ... : ... .. . ... ... ... : ... .. . ... : ... .. . ... : ... .. . ... ... : ... .. 4 ... ... : ... .. 4 ... ... : ... .. . ... ...
ROW FE : ... .. . ... ... ... : A-3 00 A ... ... ... : ... .. . ... : ... .. 9 ... : ... .. . ... ... : ... .. . ... ... : ... .. . ... ... : ... .. . ... ...
ROW FF : ... .. . ... ... ... : ... .. 8 ... ... ... : ... .. . ... : ... .. . ... : ... .. . ... ... : ... .. . ... ... : ... .. . ... ... : ... .. . ... ...

PATTERN 08
ROW 00 : ... .. . ... ... ... : ... .. . ... ... ... : ... .. . ... : ... .. . ... : ... .. . ... ... : ... .. . ... ... : ... .. . ... ... : ... .. . ... ...
ROW 01 : ... .. . ... ... ... : D-4 00 5 ... ... ... : ... .. . ... : ... .. 8 ... : ... .. . ... ... : --- .. . ... ... : --- .. . ... ... : ... .. . ... ...
ROW 02 : ... .. . ... ... ... : ... .. 4 ... ... ... : ... .. . ... : ... .. . ... : ... .. . ... ... : ... .. . ... ... : ... .. . ... ... : ... .. . ... ...
ROW 03 : ... .. . ... ... ... : ... .. . ... ... ... : ... .. . ... : ... .. . ... : ... .. . ... ... : ... .. . ... ... : ... .. . ... ... : ... .. . ... ...
ROW 04 : ... .. . ... ... ... : F-3 00 A ... ... ... : ... .. . ... : ... .. 7 ... : ... .. . ... ... : F-4 01 6 ... ... : A-4 01 6 ... ... : ... .. . ... ...
ROW 05 : ... .. . ... ... ... : ... .. 8 ... ... ... : ... .. . ... : ... .. . ... : ... .. . ... ... : ... .. 4 ... ... : ... .. 4 ... ... : ... .. . ... ...
ROW 06 : ... .. . ... ... ... : ... .. . ... ... ... : ... .. . ... : ... .. . ... : ... .. . ... ... : ... .. 3 ... ... : ... .. 3 ... ... : ... .. . ... ...
ROW 07 : ... .. . P82 ... ... : A-3 00 5 ... ... ... : ... .. . ... : ... .. 6 ... : ... .. . ... ... : ... .. 1 ... ... : ... .. 1 ... ... : ... .. . ... ...
ROW 08 : D#5 00 A P7E ... ... : ... .. 4 ... ... ... : ... .. . ... : ... .. . ... : ... .. . ... ... : ... .. 6 ... ... : ... .. 6 ... ... : ... .. . ... ...
ROW 09 : ... .. . ... ... ... : ... .. . ... ... ... : ... .. . ... : ... .. . ... : ... .. . ... ... : ... .. 4 ... ... : ... .. 4 ... ... : ... .. . ... ...
ROW 0A : D-5 00 A P81 ... ... : D-3 00 A ... ... ... : ... .. . ... : ... .. 5 ... : ... .. . ... ... : ... .. 3 ... ... : ... .. 3 ... ... : ... .. . ... ...
ROW 0B : ... .. . P7F ... ... : ... .. 8 ... ... ... : ... .. . ... : ... .. . ... : ... .. . ... ... : ... .. 1 ... ... : ... .. 1 ... ... : ... .. . ... ...
ROW 0C : C#5 00 A P83 ... ... : ... .. . ... ... ... : ... .. . ... : ... .. . ... : ... .. . ... ... : ... .. 6 ... ... : ... .. 6 ... ... : ... .. . ... ...
ROW 0D : ... .. . ... ... ... : F-3 00 5 ... ... ... : ... .. . ... : ... .. 4 ... : ... .. . ... ... : ... .. 4 ... ... : ... .. 4 ... ... : ... .. . ... ...
ROW 0E : D-5 00 A P7E ... ... : ... .. 4 ... ... ... : ... .. . ... : ... .. . ... : ... .. . ... ... : ... .. 3 ... ... : ... .. 3 ... ... : ... .. . ... ...
ROW 0F : ... .. . P80 ... ... : ... .. . ... ... ... : ... .. . ... : ... .. . ... : ... .. . ... ... : ... .. 1 ... ... : ... .. 1 ... ... : ... .. . ... ...
ROW 10 : ... .. . P82 ... ... : F#5 00 A ... ... ... : C#5 00 . ... : 1-# 00 F ... : ... .. . ... ... : F#4 01 8 ... ... : A#4 01 8 ... ... : D-1 01 C ... ...
ROW 11 : D#5 00 A P7E ... ... : ... .. 8 ... ... ... : D#4 00 . ... : ... .. C ... : ... .. . ... ... : ... .. 7 ... ... : ... .. 7 ... ... : ... .. A ... ...
ROW 12 : ... .. . ... ... ... : ... .. . ... ... ... : G#3 00 . ... : ... .. 6 ... : ... .. . ... ... : ... .. 6 ... ... : ... .. 6 ... ... : ... .. 6 ... ...
ROW 13 : D-5 00 A P81 ... ... : D-3 00 5 ... ... ... : G-3 00 . ... : ... .. 3 ... : ... .. . ... ... : ... .. 5 ... ... : ... .. 5 ... ... : ... .. . ... ...
ROW 14 : ... .. . P80 ... ... : ... .. 4 ... ... ... : D-3 00 . ... : ... .. 2 ... : ... .. . ... ... : ... .. . ... ... : ... .. . ... ... : ... .. . ... ...
ROW 15 : C#5 00 A P83 ... ... : ... .. . ... ... ... : ... .. . ... : ... .. 0 ... : ... .. . ... ... : --- .. . ... ... : --- .. . ... ... : ... .. . ... ...
ROW 16 : D-5 00 A P80 ... ... : C#5 00 A ... ... ... : ... .. . ... : B-# 00 F ... : ... .. . ... ... : ... .. . ... ... : ... .. . ... ... : ... .. . ... ...
ROW 17 : ... .. . ... ... ... : ... .. 8 ... ... ... : ... .. . ... : ... .. C ... : ... .. . ... ... : ... .. . ... ... : ... .. . ... ... : ... .. . ... ...
ROW 18 : ... .. . ... ... ... : ... .. . ... ... ... : ... .. . ... : ... .. 6 ... : ... .. . ... ... : F#4 01 8 ... ... : A#4 01 8 ... ... : ... .. . ... ...
ROW 19 : ... .. 8 ... ... ... : F#5 00 5 ... ... ... : ... .. . ... : ... .. 3 ... : ... .. . ... ... : ... .. 7 ... ... : ... .. 7 ... ... : ... .. . ... ...
ROW 1A : ... .. 7 ... ... ... : ... .. 4 ... ... ... : ... .. . ... : ... .. 2 ... : ... .. . ... ... : ... .. 6 ... ... : ... .. 6 ... ... : ... .. . ... ...
ROW 1B : ... .. 6 ... ... ... : ... .. . ... ... ... : ... .. . ... : ... .. 0 ... : ... .. . ... ... : ... .. 5 ... ... : ... .. 5 ... ... : ... .. . ... ...
ROW 1C : ... .. B ... ... ... : A#4 00 A ... ... ... : ... .. . ... : 7-# 00 F ... : ... .. . ... ... : --- .. . ... ... : --- .. . ... ... : ... .. . ... ...
ROW 1D : ... .. 8 ... ... ... : ... .. 8 ... ... ... : ... .. . ... : ... .. C ... : ... .. . ... ... : ... .. . ... ... : ... .. . ... ... : ... .. . ... ...
ROW 1E : ... .. 0 ... ... ... : ... .. . ... ... ... : ... .. . ... : ... .. 6 ... : ... .. . ... ... : ... .. . ... ... : ... .. . ... ... : ... .. . ... ...
ROW 1F : D-5 00 B P80 ... ... : C#5 00 5 ... ... ... : ... .. . ... : ... .. 3 ... : ... .. . ... ... : ... .. . ... ... : ... .. . ... ... : ... .. . ... ...
ROW 20 : ... .. 8 ... ... ... : ... .. 4 ... ... ... : ... .. . ... : ... .. 2 ... : ... .. . ... ... : F#4 01 8 ... ... : A#4 01 8 ... ... : ... .. . ... ...
ROW 21 : ... .. 0 ... ... ... : ... .. . ... ... ... : ... .. . ... : ... .. 0 ... : ... .. . ... ... : ... .. 7 ... ... : ... .. 7 ... ... : ... .. . ... ...
ROW 22 : D-5 00 B P80 ... ... : F#4 00 A ... ... ... : ... .. . ... : 1-# 00 F ... : ... .. . ... ... : ... .. 6 ... ... : ... .. 6 ... ... : ... .. . ... ...
ROW 23 : ... .. 8 ... ... ... : ... .. 8 ... ... ... : ... .. . ... : ... .. C ... : ... .. . ... ... : ... .. 5 ... ... : ... .. 5 ... ... : ... .. . ... ...
ROW 24 : ... .. 0 ... ... ... : ... .. . ... ... ... : ... .. . ... : ... .. 6 ... : ... .. . ... ... : ... .. . ... ... : ... .. . ... ... : ... .. . ... ...
ROW 25 : ... .. . ... ... ... : A#4 00 5 ... ... ... : ... .. . ... : ... .. 3 ... : ... .. . ... ... : --- .. . ... ... : --- .. . ... ... : ... .. . ... ...
ROW 26 : ... .. . ... ... ... : ... .. 4 ... ... ... : ... .. . ... : ... .. 2 ... : ... .. . ... ... : ... .. . ... ... : ... .. . ... ... : ... .. . ... ...
ROW 27 : ... .. . ... ... ... : ... .. . ... ... ... : ... .. . ... : ... .. 0 ... : ... .. . ... ... : ... .. . ... ... : ... .. . ... ... : ... .. . ... ...
ROW 28 : D-5 00 F P80 ... ... : D-4 00 A ... ... ... : ... .. . ... : 9-# 00 F ... : ... .. . ... ... : D-4 01 8 ... ... : F#4 01 8 ... ... : ... .. . ... ...
ROW 29 : ... .. E ... ... ... : ... .. 8 ... ... ... : ... .. . ... : ... .. C ... : ... .. . ... ... : ... .. 7 ... ... : ... .. 7 ... ... : ... .. . ... ...
ROW 2A : ... .. D ... ... ... : ... .. . ... ... ... : ... .. . ... : ... .. 6 ... : ... .. . ... ... : ... .. 6 ... ... : ... .. 6 ... ... : ... .. . ... ...
ROW 2B : ... .. A ... ... ... : F#4 00 5 ... ... ... : ... .. . ... : ... .. 3 ... : ... .. . ... ... : ... .. 5 ... ... : ... .. 5 ... ... : ... .. . ... ...
ROW 2C : ... .. 2 ... ... ... : ... .. 4 ... ... ... : ... .. . ... : ... .. 2 ... : ... .. . ... ... : ... .. . ... ... : ... .. . ... ... : ... .. . ... ...
ROW 2D : ... .. . ... ... ... : ... .. . ... ... ... : ... .. . ... : ... .. 0 ... : ... .. . ... ... : --- .. . ... ... : --- .. . ... ... : ... .. . ... ...
ROW 2E : ... .. . ... ... ... : A#3 00 A ... ... ... : ... .. . ... : ... .. F ... : ... .. . ... ... : ... .. . ... ... : ... .. . ... ... : ... .. . ... ...
ROW 2F : ... .. 1 ... ... ... : ... .. 8 ... ... ... : ... .. . ... : ... .. C ... : ... .. . ... ... : ... .. . ... ... : ... .. . ... ... : ... .. . ... ...
ROW 30 : G#4 00 F ... ... ... : ... .. . ... ... ... : ... .. . ... : ... .. 6 ... : ... .. . ... ... : D-4 01 8 ... ... : F#4 01 8 ... ... : ... .. . ... ...
ROW 31 : ... .. E ... ... ... : D-4 00 5 ... ... ... : ... .. . ... : ... .. 3 ... : ... .. . ... ... : ... .. 7 ... ... : ... .. 7 ... ... : ... .. . ... ...
ROW 32 : ... .. D ... ... ... : ... .. 4 ... ... ... : ... .. . ... : ... .. 2 ... : ... .. . ... ... : ... .. 6 ... ... : ... .. 6 ... ... : ... .. . ... ...
ROW 33 : ... .. A ... ... ... : ... .. . ... ... ... : ... .. . ... : ... .. 0 ... : ... .. . ... ... : ... .. 5 ... ... : ... .. 5 ... ... : ... .. . ... ...
ROW 34 : ... .. . ... ... ... : F#3 00 A ... ... ... : ... .. . ... : 7-# 00 F ... : ... .. . ... ... : --- .. . ... ... : --- .. . ... ... : ... .. . ... ...
ROW 35 : ... .. 2 ... ... ... : ... .. 8 ... ... ... : ... .. . ... : ... .. C ... : ... .. . ... ... : ... .. . ... ... : ... .. . ... ... : ... .. . ... ...
ROW 36 : ... .. . ... ... ... : ... .. . ... ... ... : ... .. . ... : ... .. 6 ... : ... .. . ... ... : ... .. . ... ... : ... .. . ... ... : ... .. . ... ...
ROW 37 : ... .. . ... ... ... : A#3 00 5 ... ... ... : ... .. . ... : ... .. 3 ... : ... .. . ... ... : ... .. . ... ... : ... .. . ... ... : ... .. . ... ...
ROW 38 : ... .. F ... ... ... : ... .. 4 ... ... ... : ... .. . ... : ... .. 2 ... : ... .. . ... ... : D-4 01 8 ... ... : F#4 01 8 ... ... : ... .. . ... ...
ROW 39 : ... .. E ... ... ... : ... .. . ... ... ... : ... .. . ... : ... .. 0 ... : ... .. . ... ... : ... .. 7 ... ... : ... .. 7 ... ... : ... .. . ... ...
ROW 3A : ... .. D ... ... ... : D-3 00 A ... ... ... : ... .. . ... : ... .. F ... : ... .. . ... ... : ... .. 6 ... ... : ... .. 6 ... ... : ... .. . ... ...
ROW 3B : ... .. A ... ... ... : ... .. 8 ... ... ... : ... .. . ... : ... .. C ... : ... .. . ... ... : ... .. 5 ... ... : ... .. 5 ... ... : ... .. . ... ...
ROW 3C : ... .. . ... ... ... : ... .. . ... ... ... : ... .. . ... : ... .. 6 ... : ... .. . ... ... : ... .. . ... ... : ... .. . ... ... : ... .. . ... ...
ROW 3D : ... .. 0 ... ... ... : F#3 00 5 ... ... ... : ... .. . ... : ... .. 3 ... : ... .. . ... ... : --- .. . ... ... : --- .. . ... ... : ... .. . ... ...
ROW 3E : ... .. . ... ... ... : ... .. 4 ... ... ... : ... .. . ... : ... .. 2 ... : ... .. . ... ... : ... .. . ... ... : ... .. . ... ... : ... .. . ... ...
ROW 3F : ... .. . ... ... ... : ... .. . ... ... ... : ... .. . ... : ... .. 0 ... : ... .. . ... ... : ... .. . ... ... : ... .. . ... ... : ... .. . ... ...
ROW 40 : G#4 00 F P80 ... ... : G#5 00 A ... ... ... : D-5 00 . ... : 9-# 00 F ... : ... .. . ... ... : D#4 01 8 ... ... : G#4 01 8 ... ... : D#1 01 C ... ...
ROW 41 : ... .. E ... ... ... : ... .. 8 ... ... ... : E-4 00 . ... : ... .. C ... : ... .. . ... ... : ... .. 7 ... ... : ... .. 7 ... ... : ... .. A ... ...
ROW 42 : ... .. D ... ... ... : ... .. . ... ... ... : A-3 00 . ... : ... .. 6 ... : ... .. . ... ... : ... .. 6 ... ... : ... .. 6 ... ... : ... .. 6 ... ...
ROW 43 : ... .. A ... ... ... : D-3 00 5 ... ... ... : G#3 00 . ... : ... .. 3 ... : ... .. . ... ... : ... .. 5 ... ... : ... .. 5 ... ... : ... .. . ... ...
ROW 44 : ... .. 2 ... ... ... : ... .. 4 ... ... ... : D#3 00 . ... : ... .. 2 ... : ... .. . ... ... : ... .. . ... ... : ... .. . ... ... : ... .. . ... ...
ROW 45 : ... .. . ... ... ... : ... .. . ... ... ... : ... .. . ... : ... .. 0 ... : ... .. . ... ... : ... .. 4 ... ... : ... .. 4 ... ... : ... .. . ... ...
ROW 46 : ... .. . ... ... ... : D#5 00 A ... ... ... : D-3 00 . ... : 2-# 00 F ... : ... .. . ... ... : ... .. . ... ... : ... .. . ... ... : D-1 01 C ... ...
ROW 47 : ... .. 1 ... ... ... : ... .. 8 ... ... ... : ... .. . ... : ... .. C ... : ... .. . ... ... : ... .. . ... ... : ... .. . ... ... : ... .. A ... ...
ROW 48 : D#4 00 F ... ... ... : ... .. . ... ... ... : ... .. . ... : ... .. 6 ... : ... .. . ... ... : ... .. . ... ... : ... .. . ... ... : ... .. 6 ... ...
ROW 49 : ... .. E ... ... ... : G#5 00 5 ... ... ... : ... .. . ... : ... .. 3 ... : ... .. . ... ... : --- .. . ... ... : --- .. . ... ... : ... .. . ... ...
ROW 4A : ... .. D ... ... ... : ... .. 4 ... ... ... : ... .. . ... : ... .. 2 ... : ... .. . ... ... : ... .. . ... ... : ... .. . ... ... : ... .. . ... ...
ROW 4B : ... .. A ... ... ... : ... .. . ... ... ... : ... .. . ... : ... .. 0 ... : ... .. . ... ... : ... .. . ... ... : ... .. . ... ... : ... .. . ... ...
ROW 4C : ... .. . ... ... ... : B-4 00 A ... ... ... : D#3 00 . ... : 1-# 00 F ... : ... .. . ... ... : D#4 01 6 ... ... : G#4 01 6 ... ... : D#1 01 C ... ...
ROW 4D : ... .. 2 ... ... ... : ... .. 8 ... ... ... : ... .. . ... : ... .. C ... : ... .. . ... ... : ... .. 4 ... ... : ... .. 4 ... ... : ... .. A ... ...
ROW 4E : ... .. . ... ... ... : ... .. . ... ... ... : ... .. . ... : ... .. 6 ... : ... .. . ... ... : ... .. 3 ... ... : ... .. 3 ... ... : ... .. 6 ... ...
ROW 4F : ... .. . ... ... ... : D#5 00 5 ... ... ... : ... .. . ... : ... .. 3 ... : ... .. . ... ... : ... .. 1 ... ... : ... .. 1 ... ... : ... .. . ... ...
ROW 50 : ... .. F ... ... ... : ... .. 4 ... ... ... : ... .. . ... : ... .. 2 ... : ... .. . ... ... : ... .. 6 ... ... : ... .. 6 ... ... : ... .. . ... ...
ROW 51 : ... .. E ... ... ... : ... .. . ... ... ... : ... .. . ... : ... .. 0 ... : ... .. . ... ... : ... .. 4 ... ... : ... .. 4 ... ... : ... .. . ... ...
ROW 52 : ... .. D ... ... ... : G#4 00 A ... ... ... : ... .. . ... : C-# 00 F ... : ... .. . ... ... : ... .. 3 ... ... : ... .. 3 ... ... : ... .. . ... ...
ROW 53 : ... .. A ... ... ... : ... .. 8 ... ... ... : ... .. . ... : ... .. C ... : ... .. . ... ... : ... .. 1 ... ... : ... .. 1 ... ... : ... .. . ... ...
ROW 54 : ... .. . ... ... ... : ... .. . ... ... ... : ... .. . ... : ... .. 6 ... : ... .. . ... ... : ... .. 6 ... ... : ... .. 6 ... ... : ... .. . ... ...
ROW 55 : ... .. . ... ... ... : B-4 00 5 ... ... ... : ... .. . ... : ... .. 3 ... : ... .. . ... ... : ... .. 4 ... ... : ... .. 4 ... ... : ... .. . ... ...
ROW 56 : ... .. . ... ... ... : ... .. 4 ... ... ... : ... .. . ... : ... .. 2 ... : ... .. . ... ... : ... .. 3 ... ... : ... .. 3 ... ... : ... .. . ... ...
ROW 57 : ... .. . ... ... ... : ... .. . ... ... ... : ... .. . ... : ... .. 0 ... : ... .. . ... ... : ... .. 1 ... ... : ... .. 1 ... ... : ... .. . ... ...
ROW 58 : ... .. F ... ... ... : D#4 00 A ... ... ... : ... .. . ... : 7-# 00 F ... : ... .. . ... ... : B-3 01 8 ... ... : D#4 01 8 ... ... : ... .. . ... ...
ROW 59 : ... .. E ... ... ... : ... .. 8 ... ... ... : ... .. . ... : ... .. C ... : ... .. . ... ... : ... .. 7 ... ... : ... .. 7 ... ... : ... .. . ... ...
ROW 5A : ... .. D ... ... ... : ... .. . ... ... ... : ... .. . ... : ... .. 6 ... : ... .. . ... ... : ... .. 6 ... ... : ... .. 6 ... ... : ... .. . ... ...
ROW 5B : ... .. A ... ... ... : G#4 00 5 ... ... ... : ... .. . ... : ... .. 3 ... : ... .. . ... ... : ... .. 5 ... ... : ... .. 5 ... ... : ... .. . ... ...
ROW 5C : ... .. 2 ... ... ... : ... .. 4 ... ... ... : ... .. . ... : ... .. 2 ... : ... .. . ... ... : ... .. . ... ... : ... .. . ... ... : ... .. . ... ...
ROW 5D : ... .. . ... ... ... : ... .. . ... ... ... : ... .. . ... : ... .. 0 ... : ... .. . ... ... : ... .. 4 ... ... : ... .. 4 ... ... : ... .. . ... ...
ROW 5E : ... .. . ... ... ... : B-3 00 A ... ... ... : ... .. . ... : 1-# 00 F ... : ... .. . ... ... : ... .. . ... ... : ... .. . ... ... : ... .. . ... ...
ROW 5F : ... .. 1 ... ... ... : ... .. 8 ... ... ... : ... .. . ... : ... .. C ... : ... .. . ... ... : ... .. . ... ... : ... .. . ... ... : ... .. . ... ...
ROW 60 : G#3 00 F ... ... ... : ... .. . ... ... ... : ... .. . ... : ... .. 6 ... : ... .. . ... ... : ... .. . ... ... : ... .. . ... ... : ... .. . ... ...
ROW 61 : ... .. E ... ... ... : D#4 00 5 ... ... ... : ... .. . ... : ... .. 3 ... : ... .. . ... ... : --- .. . ... ... : --- .. . ... ... : ... .. . ... ...
ROW 62 : ... .. D ... ... ... : ... .. 4 ... ... ... : ... .. . ... : ... .. 2 ... : ... .. . ... ... : ... .. . ... ... : ... .. . ... ... : ... .. . ... ...
ROW 63 : ... .. A ... ... ... : ... .. . ... ... ... : ... .. . ... : ... .. 0 ... : ... .. . ... ... : ... .. . ... ... : ... .. . ... ... : ... .. . ... ...
ROW 64 : ... .. . ... ... ... : G#3 00 A ... ... ... : A#5 00 . ... : C-# 00 F ... : ... .. . ... ... : B-3 01 6 ... ... : D#4 01 6 ... ... : B-1 01 C ... ...
ROW 65 : ... .. 2 ... ... ... : ... .. 8 ... ... ... : C-5 00 . ... : ... .. C ... : ... .. . ... ... : ... .. 4 ... ... : ... .. 4 ... ... : ... .. A ... ...
ROW 66 : ... .. . ... ... ... : ... .. . ... ... ... : F-4 00 . ... : ... .. 6 ... : ... .. . ... ... : ... .. 3 ... ... : ... .. 3 ... ... : ... .. 6 ... ...
ROW 67 : ... .. . ... ... ... : B-3 00 5 ... ... ... : E-4 00 . ... : ... .. 3 ... : ... .. . ... ... : ... .. 1 ... ... : ... .. 1 ... ... : ... .. . ... ...
ROW 68 : ... .. F ... ... ... : ... .. 4 ... ... ... : B-3 00 . ... : ... .. 2 ... : ... .. . ... ... : ... .. 6 ... ... : ... .. 6 ... ... : ... .. . ... ...
ROW 69 : ... .. E ... ... ... : ... .. . ... ... ... : ... .. . ... : ... .. 0 ... : ... .. . ... ... : ... .. 4 ... ... : ... .. 4 ... ... : ... .. . ... ...
ROW 6A : ... .. D ... ... ... : D#3 00 A ... ... ... : ... .. . ... : 7-# 00 F ... : ... .. . ... ... : ... .. 3 ... ... : ... .. 3 ... ... : ... .. . ... ...
ROW 6B : ... .. A ... ... ... : ... .. 8 ... ... ... : ... .. . ... : ... .. C ... : ... .. . ... ... : ... .. 1 ... ... : ... .. 1 ... ... : ... .. . ... ...
ROW 6C : ... .. . ... ... ... : ... .. . ... ... ... : ... .. . ... : ... .. 6 ... : ... .. . ... ... : ... .. 6 ... ... : ... .. 6 ... ... : ... .. . ... ...
ROW 6D : ... .. . ... ... ... : G#3 00 5 ... ... ... : ... .. . ... : ... .. 3 ... : ... .. . ... ... : ... .. 4 ... ... : ... .. 4 ... ... : ... .. . ... ...
ROW 6E : ... .. 2 ... ... ... : ... .. 4 ... ... ... : ... .. . ... : ... .. 2 ... : ... .. . ... ... : ... .. 3 ... ... : ... .. 3 ... ... : ... .. . ... ...
ROW 6F : ... .. . ... ... ... : ... .. . ... ... ... : ... .. . ... : ... .. 0 ... : ... .. . ... ... : ... .. 1 ... ... : ... .. 1 ... ... : ... .. . ... ...
ROW 70 : ... .. F ... ... ... : A-5 00 A ... ... ... : E-6 00 . ... : 1-# 00 F ... : ... .. . ... ... : C#4 01 8 ... ... : F-4 01 8 ... ... : F-2 01 C ... ...
ROW 71 : ... .. E ... ... ... : ... .. 8 ... ... ... : F#5 00 . ... : ... .. C ... : ... .. . ... ... : ... .. 7 ... ... : ... .. 7 ... ... : ... .. A ... ...
ROW 72 : ... .. D ... ... ... : ... .. . ... ... ... : B-4 00 . ... : ... .. 6 ... : ... .. . ... ... : ... .. 6 ... ... : ... .. 6 ... ... : ... .. 6 ... ...
ROW 73 : ... .. A ... ... ... : D#3 00 5 ... ... ... : A#4 00 . ... : ... .. 3 ... : ... .. . ... ... : ... .. 5 ... ... : ... .. 5 ... ... : ... .. . ... ...
ROW 74 : ... .. 2 ... ... ... : ... .. 4 ... ... ... : F-4 00 . ... : ... .. 2 ... : ... .. . ... ... : ... .. . ... ... : ... .. . ... ... : ... .. . ... ...
ROW 75 : ... .. . ... ... ... : ... .. . ... ... ... : ... .. . ... : ... .. 0 ... : ... .. . ... ... : --- .. . ... ... : --- .. . ... ... : ... .. . ... ...
ROW 76 : ... .. . ... ... ... : F-5 00 A ... ... ... : ... .. . ... : B-# 00 F ... : ... .. . ... ... : ... .. . ... ... : ... .. . ... ... : ... .. . ... ...
ROW 77 : ... .. 1 ... ... ... : ... .. 8 ... ... ... : ... .. . ... : ... .. C ... : ... .. . ... ... : ... .. . ... ... : ... .. . ... ... : ... .. . ... ...
ROW 78 : A-3 00 F ... ... ... : ... .. . ... ... ... : ... .. . ... : ... .. 6 ... : ... .. . ... ... : C#4 01 8 ... ... : F-4 01 8 ... ... : ... .. . ... ...
ROW 79 : ... .. E ... ... ... : A-5 00 5 ... ... ... : ... .. . ... : ... .. 3 ... : ... .. . ... ... : ... .. 7 ... ... : ... .. 7 ... ... : ... .. . ... ...
ROW 7A : ... .. D ... ... ... : ... .. 4 ... ... ... : ... .. . ... : ... .. 2 ... : ... .. . ... ... : ... .. 6 ... ... : ... .. 6 ... ... : ... .. . ... ...
ROW 7B : ... .. A ... ... ... : ... .. . ... ... ... : ... .. . ... : ... .. 0 ... : ... .. . ... ... : ... .. 5 ... ... : ... .. 5 ... ... : ... .. . ... ...
ROW 7C : ... .. . ... ... ... : C#5 00 A ... ... ... : ... .. . ... : 7-# 00 F ... : ... .. . ... ... : --- .. . ... ... : --- .. . ... ... : ... .. . ... ...
ROW 7D : ... .. 2 ... ... ... : ... .. 8 ... ... ... : ... .. . ... : ... .. C ... : ... .. . ... ... : ... .. . ... ... : ... .. . ... ... : ... .. . ... ...
ROW 7E : ... .. . ... ... ... : ... .. . ... ... ... : ... .. . ... : ... .. 6 ... : ... .. . ... ... : ... .. . ... ... : ... .. . ... ... : ... .. . ... ...
ROW 7F : ... .. . ... ... ... : F-5 00 5 ... ... ... : ... .. . ... : ... .. 3 ... : ... .. . ... ... : ... .. . ... ... : ... .. . ... ... : ... .. . ... ...
ROW 80 : ... .. F ... ... ... : ... .. 4 ... ... ... : ... .. . ... : ... .. 2 ... : ... .. . ... ... : C#4 01 8 ... ... : F-4 01 8 ... ... : ... .. . ... ...
ROW 81 : ... .. E ... ... ... : ... .. . ... ... ... : ... .. . ... : ... .. 0 ... : ... .. . ... ... : ... .. 7 ... ... : ... .. 7 ... ... : ... .. . ... ...
ROW 82 : ... .. B ... ... ... : A-4 00 A ... ... ... : ... .. . ... : 1-# 00 F ... : ... .. . ... ... : ... .. 6 ... ... : ... .. 6 ... ... : ... .. . ... ...
ROW 83 : ... .. 8 ... ... ... : ... .. 8 ... ... ... : ... .. . ... : ... .. C ... : ... .. . ... ... : ... .. 5 ... ... : ... .. 5 ... ... : ... .. . ... ...
ROW 84 : ... .. . ... ... ... : ... .. . ... ... ... : ... .. . ... : ... .. 6 ... : ... .. . ... ... : ... .. . ... ... : ... .. . ... ... : ... .. . ... ...
ROW 85 : ... .. . ... ... ... : C#5 00 5 ... ... ... : ... .. . ... : ... .. 3 ... : ... .. . ... ... : --- .. . ... ... : --- .. . ... ... : ... .. . ... ...
ROW 86 : ... .. . ... ... ... : ... .. 4 ... ... ... : ... .. . ... : ... .. 2 ... : ... .. . ... ... : ... .. . ... ... : ... .. . ... ... : ... .. . ... ...
ROW 87 : ... .. . ... ... ... : ... .. . ... ... ... : ... .. . ... : ... .. 0 ... : ... .. . ... ... : ... .. . ... ... : ... .. . ... ... : ... .. . ... ...
ROW 88 : ... .. 2 ... ... ... : F-4 00 A ... ... ... : ... .. . ... : 9-# 00 F ... : ... .. . ... ... : A-3 01 8 ... ... : C#4 01 8 ... ... : ... .. . ... ...
ROW 89 : ... .. . ... ... ... : ... .. 8 ... ... ... : ... .. . ... : ... .. C ... : ... .. . ... ... : ... .. 7 ... ... : ... .. 7 ... ... : ... .. . ... ...
ROW 8A : ... .. . ... ... ... : ... .. . ... ... ... : ... .. . ... : ... .. 6 ... : ... .. . ... ... : ... .. 6 ... ... : ... .. 6 ... ... : ... .. . ... ...
ROW 8B : ... .. 3 ... ... ... : A-4 00 5 ... ... ... : ... .. . ... : ... .. 3 ... : ... .. . ... ... : ... .. 5 ... ... : ... .. 5 ... ... : ... .. . ... ...
ROW 8C : ... .. . ... ... ... : ... .. 4 ... ... ... : ... .. . ... : ... .. 2 ... : ... .. . ... ... : ... .. . ... ... : ... .. . ... ... : ... .. . ... ...
ROW 8D : ... .. . ... ... ... : ... .. . ... ... ... : ... .. . ... : ... .. 0 ... : ... .. . ... ... : --- .. . ... ... : --- .. . ... ... : ... .. . ... ...
ROW 8E : ... .. 4 ... ... ... : C#4 00 A ... ... ... : ... .. . ... : ... .. F ... : ... .. . ... ... : ... .. . ... ... : ... .. . ... ... : ... .. . ... ...
ROW 8F : ... .. . ... ... ... : ... .. 8 ... ... ... : ... .. . ... : ... .. C ... : ... .. . ... ... : ... .. . ... ... : ... .. . ... ... : ... .. . ... ...
ROW 90 : ... .. . ... ... ... : ... .. . ... ... ... : ... .. . ... : ... .. 6 ... : ... .. . ... ... : A-3 01 8 ... ... : C#4 01 8 ... ... : ... .. . ... ...
ROW 91 : ... .. 6 ... ... ... : F-4 00 5 ... ... ... : ... .. . ... : ... .. 3 ... : ... .. . ... ... : ... .. 7 ... ... : ... .. 7 ... ... : ... .. . ... ...
ROW 92 : ... .. . ... ... ... : ... .. 4 ... ... ... : ... .. . ... : ... .. 2 ... : ... .. . ... ... : ... .. 6 ... ... : ... .. 6 ... ... : ... .. . ... ...
ROW 93 : ... .. . ... ... ... : ... .. . ... ... ... : ... .. . ... : ... .. 0 ... : ... .. . ... ... : ... .. 5 ... ... : ... .. 5 ... ... : ... .. . ... ...
ROW 94 : ... .. 7 ... ... ... : A-3 00 A ... ... ... : ... .. . ... : 7-# 00 F ... : ... .. . ... ... : --- .. . ... ... : --- .. . ... ... : ... .. . ... ...
ROW 95 : ... .. . ... ... ... : ... .. 8 ... ... ... : ... .. . ... : ... .. C ... : ... .. . ... ... : ... .. . ... ... : ... .. . ... ... : ... .. . ... ...
ROW 96 : ... .. . ... ... ... : ... .. . ... ... ... : ... .. . ... : ... .. 6 ... : ... .. . ... ... : ... .. . ... ... : ... .. . ... ... : ... .. . ... ...
ROW 97 : ... .. 8 ... ... ... : C#4 00 5 ... ... ... : ... .. . ... : ... .. 3 ... : ... .. . ... ... : ... .. . ... ... : ... .. . ... ... : ... .. . ... ...
ROW 98 : ... .. . ... ... ... : ... .. 4 ... ... ... : ... .. . ... : ... .. 2 ... : ... .. . ... ... : A-3 01 8 ... ... : C#4 01 8 ... ... : ... .. . ... ...
ROW 99 : ... .. . ... ... ... : ... .. . ... ... ... : ... .. . ... : ... .. 0 ... : ... .. . ... ... : ... .. 7 ... ... : ... .. 7 ... ... : ... .. . ... ...
ROW 9A : ... .. A P84 ... ... : F-3 00 A ... ... ... : ... .. . ... : ... .. F ... : ... .. . ... ... : ... .. 6 ... ... : ... .. 6 ... ... : ... .. . ... ...
ROW 9B : ... .. . P86 ... ... : ... .. 8 ... ... ... : ... .. . ... : ... .. C ... : ... .. . ... ... : ... .. 5 ... ... : ... .. 5 ... ... : ... .. . ... ...
ROW 9C : ... .. . P85 ... ... : ... .. . ... ... ... : ... .. . ... : ... .. 6 ... : ... .. . ... ... : ... .. . ... ... : ... .. . ... ... : ... .. . ... ...
ROW 9D : ... .. . P82 ... ... : A-3 00 5 ... ... ... : ... .. . ... : ... .. 3 ... : ... .. . ... ... : --- .. . ... ... : --- .. . ... ... : ... .. . ... ...
ROW 9E : ... .. . P7E ... ... : ... .. 4 ... ... ... : ... .. . ... : ... .. 2 ... : ... .. . ... ... : ... .. . ... ... : ... .. . ... ... : ... .. . ... ...
ROW 9F : ... .. . P7B ... ... : ... .. . ... ... ... : ... .. . ... : ... .. 0 ... : ... .. . ... ... : ... .. . ... ... : ... .. . ... ... : ... .. . ... ...
ROW A0 : ... .. . P7A ... ... : B-5 00 A ... ... ... : ... .. . ... : ... .. F ... : ... .. . ... ... : F-3 01 8 ... ... : A-3 01 8 ... ... : ... .. . ... ...
ROW A1 : ... .. . P7C ... ... : ... .. 8 ... ... ... : ... .. . ... : ... .. C ... : ... .. . ... ... : ... .. 7 ... ... : ... .. 7 ... ... : ... .. . ... ...
ROW A2 : ... .. . P80 ... ... : ... .. . ... ... ... : ... .. . ... : ... .. 6 ... : ... .. . ... ... : ... .. 6 ... ... : ... .. 6 ... ... : ... .. . ... ...
ROW A3 : ... .. . P83 ... ... : F-3 00 5 ... ... ... : ... .. . ... : 9-# 00 D ... : ... .. . ... ... : ... .. 5 ... ... : ... .. 5 ... ... : ... .. . ... ...
ROW A4 : ... .. . P86 ... ... : ... .. 4 ... ... ... : ... .. . ... : ... .. B ... : ... .. . ... ... : ... .. . ... ... : ... .. . ... ... : ... .. . ... ...
ROW A5 : ... .. . ... ... ... : ... .. . ... ... ... : ... .. . ... : ... .. . ... : ... .. . ... ... : ... .. 4 ... ... : ... .. 4 ... ... : ... .. . ... ...
ROW A6 : ... .. . P82 ... ... : B-4 00 A ... ... ... : ... .. . ... : ... .. A ... : ... .. . ... ... : ... .. . ... ... : ... .. . ... ... : ... .. . ... ...
ROW A7 : ... .. . P7F ... ... : ... .. 8 ... ... ... : ... .. . ... : ... .. 8 ... : ... .. . ... ... : ... .. . ... ... : ... .. . ... ... : ... .. . ... ...
ROW A8 : ... .. . P7B ... ... : ... .. . ... ... ... : ... .. . ... : ... .. 7 ... : ... .. . ... ... : ... .. . ... ... : ... .. . ... ... : ... .. . ... ...
ROW A9 : ... .. . P7A ... ... : B-5 00 5 ... ... ... : ... .. . ... : ... .. 6 ... : ... .. . ... ... : --- .. . ... ... : --- .. . ... ... : ... .. . ... ...
ROW AA : ... .. . P7C ... ... : ... .. 4 ... ... ... : ... .. . ... : ... .. . ... : ... .. . ... ... : ... .. . ... ... : ... .. . ... ... : ... .. . ... ...
ROW AB : ... .. . P80 ... ... : ... .. . ... ... ... : ... .. . ... : ... .. 5 ... : ... .. . ... ... : ... .. . ... ... : ... .. . ... ... : ... .. . ... ...
ROW AC : ... .. . P83 ... ... : B-3 00 A ... ... ... : ... .. . ... : 7-# 00 F ... : ... .. . ... ... : F-3 01 6 ... ... : A-3 01 6 ... ... : ... .. . ... ...
ROW AD : ... .. . P86 ... ... : ... .. 8 ... ... ... : ... .. . ... : ... .. C ... : ... .. . ... ... : ... .. 4 ... ... : ... .. 4 ... ... : ... .. . ... ...
ROW AE : ... .. . ... ... ... : ... .. . ... ... ... : ... .. . ... : ... .. 6 ... : ... .. . ... ... : ... .. 3 ... ... : ... .. 3 ... ... : ... .. . ... ...
ROW AF : ... .. . P83 ... ... : B-4 00 5 ... ... ... : ... .. . ... : ... .. 3 ... : ... .. . ... ... : ... .. 1 ... ... : ... .. 1 ... ... : ... .. . ... ...
ROW B0 : ... .. . P80 ... ... : ... .. 4 ... ... ... : ... .. . ... : ... .. F ... : ... .. . ... ... : ... .. 6 ... ... : ... .. 6 ... ... : ... .. . ... ...
ROW B1 : ... .. . P7C ... ... : ... .. . ... ... ... : ... .. . ... : ... .. C ... : ... .. . ... ... : ... .. 4 ... ... : ... .. 4 ... ... : ... .. . ... ...
ROW B2 : ... .. . P7A ... ... : ... .. A ... ... ... : ... .. . ... : ... .. 6 ... : ... .. . ... ... : ... .. 3 ... ... : ... .. 3 ... ... : ... .. . ... ...
ROW B3 : ... .. . P7B ... ... : ... .. 8 ... ... ... : ... .. . ... : ... .. 3 ... : ... .. . ... ... : ... .. 1 ... ... : ... .. 1 ... ... : ... .. . ... ...
ROW B4 : ... .. . P7F ... ... : ... .. . ... ... ... : ... .. . ... : ... .. F ... : ... .. . ... ... : ... .. 6 ... ... : ... .. 6 ... ... : ... .. . ... ...
ROW B5 : ... .. . P82 ... ... : B-3 00 5 ... ... ... : ... .. . ... : ... .. C ... : ... .. . ... ... : ... .. 4 ... ... : ... .. 4 ... ... : ... .. . ... ...
ROW B6 : ... .. . P86 ... ... : ... .. 4 ... ... ... : ... .. . ... : ... .. 6 ... : ... .. . ... ... : ... .. 3 ... ... : ... .. 3 ... ... : ... .. . ... ...
ROW B7 : ... .. . ... ... ... : ... .. . ... ... ... : ... .. . ... : ... .. 3 ... : ... .. . ... ... : ... .. 1 ... ... : ... .. 1 ... ... : ... .. . ... ...
ROW B8 : ... .. . P83 ... ... : A-5 00 A ... ... ... : E-4 00 . ... : ... .. F ... : ... .. . ... ... : ... .. 8 ... ... : ... .. 8 ... ... : F-0 01 C ... ...
ROW B9 : ... .. . P80 ... ... : ... .. 8 ... ... ... : F#3 00 . ... : ... .. C ... : ... .. . ... ... : ... .. 7 ... ... : ... .. 7 ... ... : ... .. A ... ...
ROW BA : ... .. . P7C ... ... : ... .. . ... ... ... : B-2 00 . ... : ... .. 6 ... : ... .. . ... ... : ... .. 6 ... ... : ... .. 6 ... ... : ... .. 6 ... ...
ROW BB : ... .. . P7A ... ... : B-4 00 5 ... ... ... : A#2 00 . ... : 9-# 00 D ... : ... .. . ... ... : ... .. 5 ... ... : ... .. 5 ... ... : ... .. . ... ...
ROW BC : ... .. . P7B ... ... : ... .. 4 ... ... ... : F-2 00 . ... : ... .. B ... : ... .. . ... ... : ... .. . ... ... : ... .. . ... ... : ... .. . ... ...
ROW BD : ... .. . P7E ... ... : ... .. . ... ... ... : ... .. . ... : ... .. . ... : ... .. . ... ... : ... .. 4 ... ... : ... .. 4 ... ... : ... .. . ... ...
ROW BE : ... .. . P82 ... ... : A-4 00 A ... ... ... : ... .. . ... : ... .. A ... : ... .. . ... ... : ... .. . ... ... : ... .. . ... ... : ... .. . ... ...
ROW BF : ... .. 2 P85 ... ... : ... .. 8 ... ... ... : ... .. . ... : ... .. 8 ... : ... .. . ... ... : ... .. . ... ... : ... .. . ... ... : ... .. . ... ...
ROW C0 : ... .. . P86 ... ... : ... .. . ... ... ... : ... .. . ... : ... .. 7 ... : ... .. . ... ... : ... .. . ... ... : ... .. . ... ... : ... .. . ... ...
ROW C1 : ... .. . P84 ... ... : A-5 00 5 ... ... ... : ... .. . ... : ... .. 6 ... : ... .. . ... ... : --- .. . ... ... : --- .. . ... ... : ... .. . ... ...
ROW C2 : ... .. 1 P80 ... ... : ... .. 4 ... ... ... : ... .. . ... : ... .. . ... : ... .. . ... ... : ... .. . ... ... : ... .. . ... ... : ... .. . ... ...
ROW C3 : ... .. . P7D ... ... : ... .. . ... ... ... : ... .. . ... : ... .. 5 ... : ... .. . ... ... : ... .. . ... ... : ... .. . ... ... : ... .. . ... ...
ROW C4 : ... .. . P7A ... ... : A-3 00 A ... ... ... : E-2 00 . P86 : 7-# 00 F ... : ... .. . ... ... : F-3 01 6 ... ... : A-3 01 6 ... ... : ... .. . P60 ...
ROW C5 : ... .. 0 ... ... ... : ... .. 8 ... ... ... : D#2 00 . P8E : ... .. C ... : ... .. . ... ... : ... .. 4 ... ... : ... .. 4 ... ... : ... .. . P40 ...
ROW C6 : ... .. . ... ... ... : ... .. . ... ... ... : ... .. . P6E : ... .. 6 ... : ... .. . ... ... : ... .. 3 ... ... : ... .. 3 ... ... : E-0 01 6 PCE ...
ROW C7 : ... .. . ... ... ... : A-4 00 5 ... ... ... : D-2 00 . P79 : ... .. 3 ... : ... .. . ... ... : ... .. 1 ... ... : ... .. 1 ... ... : ... .. . PAE ...
ROW C8 : ... .. . ... ... ... : ... .. 4 ... ... ... : C#2 00 . P86 : ... .. F ... : ... .. . ... ... : ... .. 6 ... ... : ... .. 6 ... ... : ... .. . P8E ...
ROW C9 : ... .. . ... ... ... : ... .. . ... ... ... : C-2 00 . P96 : ... .. C ... : ... .. . ... ... : ... .. 4 ... ... : ... .. 4 ... ... : ... .. . P6E ...
ROW CA : ... .. . ... ... ... : ... .. A ... ... ... : ... .. . P76 : ... .. 6 ... : ... .. . ... ... : ... .. 3 ... ... : ... .. 3 ... ... : ... .. . P4E ...
ROW CB : ... .. . ... ... ... : ... .. 8 ... ... ... : B-1 00 . P89 : ... .. 3 ... : ... .. . ... ... : ... .. 1 ... ... : ... .. 1 ... ... : ... .. . P2E ...
ROW CC : ... .. . ... ... ... : ... .. . ... ... ... : ... .. . P69 : ... .. F ... : ... .. . ... ... : ... .. 6 ... ... : ... .. 6 ... ... : D#0 01 6 PC6 ...
ROW CD : ... .. . ... ... ... : A-3 00 5 ... ... ... : A#1 00 . P7F : ... .. C ... : ... .. . ... ... : ... .. 4 ... ... : ... .. 4 ... ... : ... .. . PA6 ...
ROW CE : ... .. . ... ... ... : ... .. 4 ... ... ... : A-1 00 . P98 : ... .. 6 ... : ... .. . ... ... : ... .. 3 ... ... : ... .. 3 ... ... : ... .. . P86 ...
ROW CF : ... .. . ... ... ... : ... .. . ... ... ... : ... .. . P78 : ... .. 3 ... : ... .. . ... ... : ... .. 1 ... ... : ... .. 1 ... ... : ... .. . P66 ...
ROW D0 : ... .. . ... ... ... : F-5 00 A ... ... ... : E-4 00 . P80 : ... .. F ... : ... .. . ... ... : G-3 01 8 ... ... : B-3 01 8 ... ... : F-0 01 C P80 ...
ROW D1 : ... .. . ... ... ... : ... .. 8 ... ... ... : F#3 00 . ... : ... .. C ... : ... .. . ... ... : ... .. 7 ... ... : ... .. 7 ... ... : ... .. A ... ...
ROW D2 : ... .. . ... ... ... : ... .. . ... ... ... : B-2 00 . ... : ... .. 6 ... : ... .. . ... ... : ... .. 6 ... ... : ... .. 6 ... ... : ... .. 6 ... ...
ROW D3 : ... .. . ... ... ... : A-4 00 5 ... ... ... : A#2 00 . ... : ... .. 3 ... : ... .. . ... ... : ... .. 5 ... ... : ... .. 5 ... ... : ... .. . ... ...
ROW D4 : ... .. . ... ... ... : ... .. 4 ... ... ... : F-2 00 . ... : ... .. 2 ... : ... .. . ... ... : ... .. . ... ... : ... .. . ... ... : ... .. . ... ...
ROW D5 : ... .. . ... ... ... : ... .. . ... ... ... : ... .. . ... : ... .. 0 ... : ... .. . ... ... : --- .. . P81 ... : --- .. . ... ... : ... .. . ... ...
ROW D6 : ... .. . ... ... ... : F-4 00 A ... ... ... : ... .. . ... : ... .. . ... : ... .. . ... ... : ... .. . ... ... : ... .. . ... ... : ... .. . ... ...
ROW D7 : ... .. . ... ... ... : ... .. 8 ... ... ... : ... .. . ... : ... .. . ... : ... .. . ... ... : ... .. . ... ... : ... .. . ... ... : ... .. . ... ...
ROW D8 : ... .. . ... ... ... : ... .. . ... ... ... : E-4 00 . ... : ... .. F ... : ... .. . ... ... : G-3 01 8 P80 ... : B-3 01 8 ... ... : ... .. C ... ...
ROW D9 : ... .. . ... ... ... : F-5 00 5 ... ... ... : F#3 00 . ... : ... .. C ... : ... .. . ... ... : ... .. 7 ... ... : ... .. 7 ... ... : ... .. A ... ...
ROW DA : ... .. . ... ... ... : ... .. 4 ... ... ... : B-2 00 . ... : ... .. 6 ... : ... .. . ... ... : ... .. 6 ... ... : ... .. 6 ... ... : ... .. 6 ... ...
ROW DB : ... .. . ... ... ... : ... .. . ... ... ... : A#2 00 . ... : ... .. 3 ... : ... .. . ... ... : ... .. 5 ... ... : ... .. 5 ... ... : ... .. . ... ...
ROW DC : ... .. . ... ... ... : F-3 00 A ... ... ... : F-2 00 . ... : ... .. 2 ... : ... .. . ... ... : --- .. . P81 ... : --- .. . ... ... : ... .. . ... ...
ROW DD : ... .. . ... ... ... : ... .. 8 ... ... ... : ... .. . ... : ... .. 0 ... : ... .. . ... ... : ... .. . ... ... : ... .. . ... ... : ... .. . ... ...
ROW DE : ... .. . ... ... ... : ... .. . ... ... ... : ... .. . ... : ... .. . ... : ... .. . ... ... : ... .. . ... ... : ... .. . ... ... : ... .. . ... ...
ROW DF : ... .. . ... ... ... : F-4 00 5 ... ... ... : ... .. . ... : ... .. . ... : ... .. . ... ... : ... .. . ... ... : ... .. . ... ... : ... .. . ... ...
ROW E0 : ... .. . ... ... ... : ... .. 4 ... ... ... : E-4 00 . ... : ... .. F ... : ... .. . ... ... : G-3 01 8 P80 ... : B-3 01 8 ... ... : ... .. C ... ...
ROW E1 : ... .. . ... ... ... : ... .. . ... ... ... : F#3 00 . ... : ... .. C ... : ... .. . ... ... : ... .. 7 ... ... : ... .. 7 ... ... : ... .. A ... ...
ROW E2 : ... .. . ... ... ... : ... .. A ... ... ... : B-2 00 . ... : ... .. 6 ... : ... .. . ... ... : ... .. 6 ... ... : ... .. 6 ... ... : ... .. 6 ... ...
ROW E3 : ... .. . ... ... ... : ... .. 8 ... ... ... : A#2 00 . ... : ... .. 3 ... : ... .. . ... ... : ... .. 5 ... ... : ... .. 5 ... ... : ... .. . ... ...
ROW E4 : ... .. . ... ... ... : ... .. . ... ... ... : F-2 00 . ... : ... .. 2 ... : ... .. . ... ... : ... .. . ... ... : ... .. . ... ... : ... .. . ... ...
ROW E5 : ... .. . ... ... ... : F-3 00 5 ... ... ... : ... .. . ... : ... .. 0 ... : ... .. . ... ... : --- .. . P81 ... : --- .. . ... ... : ... .. . ... ...
ROW E6 : ... .. . ... ... ... : ... .. 4 ... ... ... : ... .. . ... : ... .. . ... : ... .. . ... ... : ... .. . ... ... : ... .. . ... ... : ... .. . ... ...
ROW E7 : ... .. . ... ... ... : ... .. . ... ... ... : ... .. . ... : ... .. . ... : ... .. . ... ... : ... .. . ... ... : ... .. . ... ... : ... .. . ... ...
ROW E8 : B-3 00 F P80 ... ... : D#5 00 A ... ... ... : E-3 00 . ... : ... .. F ... : ... .. . ... ... : D#3 01 8 P80 ... : G-3 01 8 ... ... : ... .. C ... ...
ROW E9 : ... .. E ... ... ... : ... .. 8 ... ... ... : F#2 00 . ... : ... .. C ... : ... .. . ... ... : ... .. 7 ... ... : ... .. 7 ... ... : ... .. A ... ...
ROW EA : ... .. D ... ... ... : ... .. . ... ... ... : B-1 00 . ... : ... .. 6 ... : ... .. . ... ... : ... .. 6 ... ... : ... .. 6 ... ... : ... .. 6 ... ...
ROW EB : ... .. A ... ... ... : F-4 00 5 ... ... ... : A#1 00 . ... : ... .. 3 ... : ... .. . ... ... : ... .. 5 ... ... : ... .. 5 ... ... : ... .. . ... ...
ROW EC : ... .. . ... ... ... : ... .. 4 ... ... ... : F-1 00 . ... : ... .. 2 ... : ... .. . ... ... : ... .. . ... ... : ... .. . ... ... : ... .. . ... ...
ROW ED : ... .. . ... ... ... : ... .. . ... ... ... : ... .. . ... : ... .. 0 ... : ... .. . ... ... : --- .. . P83 ... : --- .. . P81 ... : ... .. . ... ...
ROW EE : ... .. . ... ... ... : D#4 00 A ... ... ... : ... .. . ... : ... .. . ... : ... .. . ... ... : ... .. . ... ... : ... .. . ... ... : ... .. . ... ...
ROW EF : ... .. . ... ... ... : ... .. 8 ... ... ... : ... .. . ... : ... .. . ... : ... .. . ... ... : ... .. . ... ... : ... .. . ... ... : ... .. . ... ...
ROW F0 : ... .. . ... ... ... : ... .. . ... ... ... : E-3 00 . ... : ... .. F ... : ... .. . ... ... : D#3 01 8 P80 ... : G-3 01 8 P80 ... : ... .. C ... ...
ROW F1 : ... .. . ... ... ... : D#5 00 5 ... ... ... : F#2 00 . ... : ... .. C ... : ... .. . ... ... : ... .. 7 ... ... : ... .. 7 ... ... : ... .. A ... ...
ROW F2 : ... .. . ... ... ... : ... .. 4 ... ... ... : B-1 00 . ... : ... .. 6 ... : ... .. . ... ... : ... .. 6 ... ... : ... .. 6 ... ... : ... .. 6 ... ...
ROW F3 : ... .. . ... ... ... : ... .. . ... ... ... : A#1 00 . ... : ... .. 3 ... : ... .. . ... ... : ... .. 5 ... ... : ... .. 5 ... ... : ... .. . ... ...
ROW F4 : ... .. . ... ... ... : D#3 00 A ... ... ... : F-1 00 . ... : ... .. 2 ... : ... .. . ... ... : --- .. . P83 ... : --- .. . P81 ... : ... .. . ... ...
ROW F5 : ... .. 2 ... ... ... : ... .. 8 ... ... ... : ... .. . ... : ... .. 0 ... : ... .. . ... ... : ... .. . ... ... : ... .. . ... ... : ... .. . ... ...
ROW F6 : ... .. . ... ... ... : ... .. . ... ... ... : ... .. . ... : ... .. . ... : ... .. . ... ... : ... .. . ... ... : ... .. . ... ... : ... .. . ... ...
ROW F7 : ... .. . ... ... ... : D#4 00 5 ... ... ... : ... .. . ... : ... .. . ... : ... .. . ... ... : ... .. . ... ... : ... .. . ... ... : ... .. . ... ...
ROW F8 : ... .. 1 ... ... ... : ... .. 4 ... ... ... : E-3 00 . ... : ... .. F ... : ... .. . ... ... : D#3 01 8 P80 ... : G-3 01 8 P80 ... : ... .. C ... ...
ROW F9 : ... .. . ... ... ... : ... .. . ... ... ... : F#2 00 . ... : ... .. C ... : ... .. . ... ... : ... .. 7 ... ... : ... .. 7 ... ... : ... .. A ... ...
ROW FA : ... .. F ... ... ... : ... .. A ... ... ... : B-1 00 . ... : ... .. 6 ... : ... .. . ... ... : ... .. 6 ... ... : ... .. 6 ... ... : ... .. 6 ... ...
ROW FB : ... .. E ... ... ... : ... .. 8 ... ... ... : A#1 00 . ... : ... .. 3 ... : ... .. . ... ... : ... .. 5 ... ... : ... .. 5 ... ... : ... .. . ... ...
ROW FC : ... .. D ... ... ... : ... .. . ... ... ... : F-1 00 . ... : ... .. 2 ... : ... .. . ... ... : ... .. . ... ... : ... .. . ... ... : ... .. . ... ...
ROW FD : ... .. 0 ... ... ... : D#3 00 5 ... ... ... : ... .. . ... : ... .. 0 ... : ... .. . ... ... : --- .. . P83 ... : --- .. . P81 ... : ... .. . ... ...
ROW FE : ... .. . ... ... ... : ... .. 4 ... ... ... : ... .. . ... : ... .. . ... : ... .. . ... ... : ... .. . ... ... : ... .. . ... ... : ... .. . ... ...
ROW FF : ... .. . ... ... ... : ... .. . ... ... ... : ... .. . ... : ... .. . ... : ... .. . ... ... : ... .. . ... ... : ... .. . ... ... : ... .. . ... ...

PATTERN 09
ROW 00 : B-4 00 F P80 ... ... : C#4 00 A ... ... ... : --- .. . ... : 9-# 00 F ... : ... .. . ... ... : F-3 01 8 P80 ... : A-3 01 8 P80 ... : --- .. . P82 ...
ROW 01 : ... .. E ... ... ... : ... .. 8 ... ... ... : ... .. . ... : ... .. C ... : ... .. . ... ... : ... .. 7 ... ... : ... .. 7 ... ... : ... .. . ... ...
ROW 02 : ... .. D ... ... ... : ... .. . ... ... ... : ... .. . ... : ... .. 6 ... : ... .. . ... ... : ... .. 6 ... ... : ... .. 6 ... ... : ... .. . ... ...
ROW 03 : ... .. 8 ... ... ... : D#4 00 5 ... ... ... : ... .. . ... : ... .. 3 ... : ... .. . ... ... : ... .. 5 ... ... : ... .. 5 ... ... : ... .. . ... ...
ROW 04 : ... .. . ... ... ... : ... .. 4 ... ... ... : ... .. . ... : ... .. 2 ... : ... .. . ... ... : ... .. . ... ... : ... .. . ... ... : ... .. . ... ...
ROW 05 : ... .. . ... ... ... : ... .. . ... ... ... : ... .. . ... : ... .. 0 ... : ... .. . ... ... : ... .. 4 ... ... : ... .. 4 ... ... : ... .. . ... ...
ROW 06 : ... .. 6 ... ... ... : A-3 00 A ... ... ... : ... .. . ... : 2-# 00 F ... : ... .. . ... ... : ... .. . ... ... : ... .. . ... ... : ... .. . ... ...
ROW 07 : ... .. . ... ... ... : ... .. 8 ... ... ... : ... .. . ... : ... .. C ... : ... .. . ... ... : ... .. . ... ... : ... .. . ... ... : ... .. . ... ...
ROW 08 : ... .. . ... ... ... : ... .. . ... ... ... : ... .. . ... : ... .. 6 ... : ... .. . ... ... : ... .. . ... ... : ... .. . ... ... : ... .. . ... ...
ROW 09 : ... .. 4 ... ... ... : C#4 00 5 ... ... ... : ... .. . ... : ... .. 3 ... : ... .. . ... ... : --- .. . ... ... : --- .. . ... ... : ... .. . ... ...
ROW 0A : ... .. . ... ... ... : ... .. 4 ... ... ... : ... .. . ... : ... .. 2 ... : ... .. . ... ... : ... .. . ... ... : ... .. . ... ... : ... .. . ... ...
ROW 0B : ... .. . ... ... ... : ... .. . ... ... ... : ... .. . ... : ... .. 0 ... : ... .. . ... ... : ... .. . ... ... : ... .. . ... ... : ... .. . ... ...
ROW 0C : ... .. 2 ... ... ... : F-3 00 A ... ... ... : ... .. . ... : 1-# 00 F ... : ... .. . ... ... : F-3 01 6 ... ... : A-3 01 6 ... ... : ... .. . ... ...
ROW 0D : ... .. . ... ... ... : ... .. 8 ... ... ... : ... .. . ... : ... .. C ... : ... .. . ... ... : ... .. 4 ... ... : ... .. 4 ... ... : ... .. . ... ...
ROW 0E : ... .. . ... ... ... : ... .. . ... ... ... : ... .. . ... : ... .. 6 ... : ... .. . ... ... : ... .. 3 ... ... : ... .. 3 ... ... : ... .. . ... ...
ROW 0F : ... .. 3 ... ... ... : A-3 00 5 ... ... ... : ... .. . ... : ... .. 3 ... : ... .. . ... ... : ... .. 1 ... ... : ... .. 1 ... ... : ... .. . ... ...
ROW 10 : ... .. . ... ... ... : ... .. 4 ... ... ... : ... .. . ... : ... .. 2 ... : ... .. . ... ... : ... .. 6 ... ... : ... .. 6 ... ... : ... .. . ... ...
ROW 11 : ... .. . ... ... ... : ... .. . ... ... ... : ... .. . ... : ... .. 0 ... : ... .. . ... ... : ... .. 4 ... ... : ... .. 4 ... ... : ... .. . ... ...
ROW 12 : ... .. 4 ... ... ... : C#3 00 A ... ... ... : ... .. . ... : C-# 00 F ... : ... .. . ... ... : ... .. 3 ... ... : ... .. 3 ... ... : ... .. . ... ...
ROW 13 : ... .. . ... ... ... : ... .. 8 ... ... ... : ... .. . ... : ... .. C ... : ... .. . ... ... : ... .. 1 ... ... : ... .. 1 ... ... : ... .. . ... ...
ROW 14 : ... .. . ... ... ... : ... .. . ... ... ... : ... .. . ... : ... .. 6 ... : ... .. . ... ... : ... .. 6 ... ... : ... .. 6 ... ... : ... .. . ... ...
ROW 15 : ... .. . ... ... ... : F-3 00 5 ... ... ... : ... .. . ... : ... .. 3 ... : ... .. . ... ... : ... .. 4 ... ... : ... .. 4 ... ... : ... .. . ... ...
ROW 16 : ... .. . ... ... ... : ... .. 4 ... ... ... : ... .. . ... : ... .. 2 ... : ... .. . ... ... : ... .. 3 ... ... : ... .. 3 ... ... : ... .. . ... ...
ROW 17 : ... .. . ... ... ... : ... .. . ... ... ... : ... .. . ... : ... .. 0 ... : ... .. . ... ... : ... .. 1 ... ... : ... .. 1 ... ... : ... .. . ... ...
ROW 18 : ... .. 5 P82 ... ... : B-3 00 A ... ... ... : E-5 00 . ... : 7-# 00 F ... : ... .. . ... ... : C#3 01 8 ... ... : F-3 01 8 ... ... : F-1 01 C P80 ...
ROW 19 : ... .. . P83 ... ... : ... .. 8 ... ... ... : F#4 00 . ... : ... .. C ... : ... .. . ... ... : ... .. 7 ... ... : ... .. 7 ... ... : ... .. A ... ...
ROW 1A : ... .. . ... ... ... : ... .. . ... ... ... : B-3 00 . ... : ... .. 6 ... : ... .. . ... ... : ... .. 6 ... ... : ... .. 6 ... ... : ... .. 6 ... ...
ROW 1B : ... .. 6 P81 ... ... : C#3 00 5 ... ... ... : A#3 00 . ... : ... .. 3 ... : ... .. . ... ... : ... .. 5 ... ... : ... .. 5 ... ... : ... .. . ... ...
ROW 1C : ... .. . P7F ... ... : ... .. 4 ... ... ... : F-3 00 . ... : ... .. 2 ... : ... .. . ... ... : ... .. . ... ... : ... .. . ... ... : ... .. . ... ...
ROW 1D : ... .. . P7D ... ... : ... .. . ... ... ... : ... .. . ... : ... .. 0 ... : ... .. . ... ... : ... .. 4 ... ... : ... .. 4 ... ... : ... .. . ... ...
ROW 1E : ... .. . ... ... ... : G-3 00 A ... ... ... : ... .. . ... : 1-# 00 F ... : ... .. . ... ... : ... .. . ... ... : ... .. . ... ... : ... .. . ... ...
ROW 1F : ... .. . P7E ... ... : ... .. 8 ... ... ... : ... .. . ... : ... .. C ... : ... .. . ... ... : ... .. . ... ... : ... .. . ... ... : ... .. . ... ...
ROW 20 : ... .. . P80 ... ... : ... .. . ... ... ... : ... .. . ... : ... .. 6 ... : ... .. . ... ... : ... .. . ... ... : ... .. . ... ... : ... .. . ... ...
ROW 21 : ... .. 7 P82 ... ... : B-3 00 5 ... ... ... : ... .. . ... : ... .. 3 ... : ... .. . ... ... : --- .. . P83 ... : --- .. . ... ... : ... .. . ... ...
ROW 22 : ... .. . P83 ... ... : ... .. 4 ... ... ... : ... .. . ... : ... .. 2 ... : ... .. . ... ... : ... .. . ... ... : ... .. . ... ... : ... .. . ... ...
ROW 23 : ... .. . ... ... ... : ... .. . ... ... ... : ... .. . ... : ... .. 0 ... : ... .. . ... ... : ... .. . ... ... : ... .. . ... ... : ... .. . ... ...
ROW 24 : ... .. 8 P81 ... ... : D#3 00 A ... ... ... : D#3 00 . P88 : C-# 00 F ... : ... .. . ... ... : C#3 01 6 P80 ... : F-3 01 6 ... ... : ... .. . P60 ...
ROW 25 : ... .. . P80 ... ... : ... .. 8 ... ... ... : D-3 00 . P7D : ... .. C ... : ... .. . ... ... : ... .. 4 ... ... : ... .. 4 ... ... : E-1 01 6 P97 ...
ROW 26 : ... .. . P7D ... ... : ... .. . ... ... ... : C-3 00 . P8C : ... .. 6 ... : ... .. . ... ... : ... .. 3 ... ... : ... .. 3 ... ... : ... .. . P77 ...
ROW 27 : ... .. . ... ... ... : G-3 00 5 ... ... ... : B-2 00 . P85 : ... .. 3 ... : ... .. . ... ... : ... .. 1 ... ... : ... .. 1 ... ... : ... .. . P57 ...
ROW 28 : ... .. . P7E ... ... : ... .. 4 ... ... ... : A#2 00 . P80 : ... .. 2 ... : ... .. . ... ... : ... .. 6 ... ... : ... .. 6 ... ... : D#1 01 6 P94 ...
ROW 29 : ... .. . P80 ... ... : ... .. . ... ... ... : A-2 00 . P7C : ... .. 0 ... : ... .. . ... ... : ... .. 4 ... ... : ... .. 4 ... ... : ... .. . P74 ...
ROW 2A : ... .. A P81 ... ... : B-2 00 A ... ... ... : G#2 00 . P7B : 7-# 00 F ... : ... .. . ... ... : ... .. 3 ... ... : ... .. 3 ... ... : ... .. . P54 ...
ROW 2B : ... .. . P83 ... ... : ... .. 8 ... ... ... : G-2 00 . ... : ... .. C ... : ... .. . ... ... : ... .. 1 ... ... : ... .. 1 ... ... : D-1 01 6 P95 ...
ROW 2C : ... .. . ... ... ... : ... .. . ... ... ... : F#2 00 . P7D : ... .. 6 ... : ... .. . ... ... : ... .. 6 ... ... : ... .. 6 ... ... : ... .. . P75 ...
ROW 2D : ... .. . P81 ... ... : D#3 00 5 ... ... ... : F-2 00 . P81 : ... .. 3 ... : ... .. . ... ... : ... .. 4 ... ... : ... .. 4 ... ... : ... .. . P55 ...
ROW 2E : ... .. . P80 ... ... : ... .. 4 ... ... ... : E-2 00 . P87 : ... .. 2 ... : ... .. . ... ... : ... .. 3 ... ... : ... .. 3 ... ... : C#1 01 6 P9D ...
ROW 2F : ... .. . P7E ... ... : ... .. . ... ... ... : D#2 00 . P8F : ... .. 0 ... : ... .. . ... ... : ... .. 1 ... ... : ... .. 1 ... ... : ... .. . P7D ...
ROW 30 : ... .. . P7D ... ... : A-3 00 A ... ... ... : E-5 00 . P80 : 1-# 00 F ... : ... .. . ... ... : D#3 01 8 ... ... : G-3 01 8 ... ... : F-1 01 C P80 ...
ROW 31 : ... .. . ... ... ... : ... .. 8 ... ... ... : F#4 00 . ... : ... .. C ... : ... .. . ... ... : ... .. 7 ... ... : ... .. 7 ... ... : ... .. A ... ...
ROW 32 : ... .. . P80 ... ... : ... .. . ... ... ... : B-3 00 . ... : ... .. 6 ... : ... .. . ... ... : ... .. 6 ... ... : ... .. 6 ... ... : ... .. 6 ... ...
ROW 33 : ... .. . P81 ... ... : B-2 00 5 ... ... ... : A#3 00 . ... : ... .. 3 ... : ... .. . ... ... : ... .. 5 ... ... : ... .. 5 ... ... : ... .. . ... ...
ROW 34 : ... .. . P83 ... ... : ... .. 4 ... ... ... : F-3 00 . ... : ... .. 2 ... : ... .. . ... ... : ... .. . ... ... : ... .. . ... ... : ... .. . ... ...
ROW 35 : ... .. . ... ... ... : ... .. . ... ... ... : ... .. . ... : ... .. 0 ... : ... .. . ... ... : --- .. . P83 ... : --- .. . P81 ... : ... .. . ... ...
ROW 36 : ... .. . P82 ... ... : F-3 00 A ... ... ... : ... .. . ... : B-# 00 F ... : ... .. . ... ... : ... .. . ... ... : ... .. . ... ... : ... .. . ... ...
ROW 37 : ... .. . P80 ... ... : ... .. 8 ... ... ... : ... .. . ... : ... .. C ... : ... .. . ... ... : ... .. . ... ... : ... .. . ... ... : ... .. . ... ...
ROW 38 : ... .. . P7E ... ... : ... .. . ... ... ... : E-5 00 . ... : ... .. 6 ... : ... .. . ... ... : D#3 01 8 P80 ... : G-3 01 8 P80 ... : ... .. C ... ...
ROW 39 : ... .. . P7D ... ... : A-3 00 5 ... ... ... : F#4 00 . ... : ... .. 3 ... : ... .. . ... ... : ... .. 7 ... ... : ... .. 7 ... ... : ... .. A ... ...
ROW 3A : ... .. . ... ... ... : ... .. 4 ... ... ... : B-3 00 . ... : ... .. 2 ... : ... .. . ... ... : ... .. 6 ... ... : ... .. 6 ... ... : ... .. 6 ... ...
ROW 3B : ... .. . P7F ... ... : ... .. . ... ... ... : A#3 00 . ... : ... .. 0 ... : ... .. . ... ... : ... .. 5 ... ... : ... .. 5 ... ... : ... .. . ... ...
ROW 3C : ... .. . P81 ... ... : C#3 00 A ... ... ... : F-3 00 . ... : 7-# 00 F ... : ... .. . ... ... : --- .. . P83 ... : --- .. . P81 ... : ... .. . ... ...
ROW 3D : ... .. . P83 ... ... : ... .. 8 ... ... ... : ... .. . ... : ... .. C ... : ... .. . ... ... : ... .. . ... ... : ... .. . ... ... : ... .. . ... ...
ROW 3E : ... .. . ... ... ... : ... .. . ... ... ... : ... .. . ... : ... .. 6 ... : ... .. . ... ... : ... .. . ... ... : ... .. . ... ... : ... .. . ... ...
ROW 3F : ... .. . P82 ... ... : F-3 00 5 ... ... ... : ... .. . ... : ... .. 3 ... : ... .. . ... ... : ... .. . ... ... : ... .. . ... ... : ... .. . ... ...
ROW 40 : ... .. . P80 ... ... : ... .. 4 ... ... ... : E-5 00 . ... : ... .. 2 ... : ... .. . ... ... : D#3 01 8 P80 ... : G-3 01 8 P80 ... : ... .. C ... ...
ROW 41 : ... .. . P7E ... ... : ... .. . ... ... ... : F#4 00 . ... : ... .. 0 ... : ... .. . ... ... : ... .. 7 ... ... : ... .. 7 ... ... : ... .. A ... ...
ROW 42 : ... .. . P7D ... ... : A-2 00 A ... ... ... : B-3 00 . ... : 1-# 00 F ... : ... .. . ... ... : ... .. 6 ... ... : ... .. 6 ... ... : ... .. 6 ... ...
ROW 43 : ... .. . ... ... ... : ... .. 8 ... ... ... : A#3 00 . ... : ... .. C ... : ... .. . ... ... : ... .. 5 ... ... : ... .. 5 ... ... : ... .. . ... ...
ROW 44 : ... .. . P7F ... ... : ... .. . ... ... ... : F-3 00 . ... : ... .. 6 ... : ... .. . ... ... : ... .. . ... ... : ... .. . ... ... : ... .. . ... ...
ROW 45 : ... .. . P80 ... ... : C#3 00 5 ... ... ... : ... .. . ... : ... .. 3 ... : ... .. . ... ... : --- .. . P83 ... : --- .. . P81 ... : ... .. . ... ...
ROW 46 : ... .. . P83 ... ... : ... .. 4 ... ... ... : ... .. . ... : ... .. 2 ... : ... .. . ... ... : ... .. . ... ... : ... .. . ... ... : ... .. . ... ...
ROW 47 : ... .. . ... ... ... : ... .. . ... ... ... : ... .. . ... : ... .. 0 ... : ... .. . ... ... : ... .. . ... ... : ... .. . ... ... : ... .. . ... ...
ROW 48 : ... .. . P82 ... ... : G-3 00 A ... ... ... : E-4 00 . ... : 9-# 00 F ... : ... .. . ... ... : B-2 01 8 P80 ... : D#3 01 8 P80 ... : F-0 01 C ... ...
ROW 49 : ... .. . P80 ... ... : ... .. 8 ... ... ... : F#3 00 . ... : ... .. C ... : ... .. . ... ... : ... .. 7 ... ... : ... .. 7 ... ... : ... .. A ... ...
ROW 4A : ... .. . P7F ... ... : ... .. . ... ... ... : B-2 00 . ... : ... .. 6 ... : ... .. . ... ... : ... .. 6 ... ... : ... .. 6 ... ... : ... .. 6 ... ...
ROW 4B : ... .. . P7D ... ... : A-2 00 5 ... ... ... : A#2 00 . ... : ... .. 3 ... : ... .. . ... ... : ... .. 5 ... ... : ... .. 5 ... ... : ... .. . ... ...
ROW 4C : ... .. . ... ... ... : ... .. 4 ... ... ... : F-2 00 . ... : ... .. 2 ... : ... .. . ... ... : ... .. . ... ... : ... .. . ... ... : ... .. . ... ...
ROW 4D : ... .. . P7F ... ... : ... .. . ... ... ... : ... .. . ... : ... .. 0 ... : ... .. . ... ... : --- .. . P85 ... : --- .. . P83 ... : ... .. . ... ...
ROW 4E : ... .. . P80 ... ... : D#3 00 A ... ... ... : ... .. . ... : ... .. F ... : ... .. . ... ... : ... .. . ... ... : ... .. . ... ... : ... .. . ... ...
ROW 4F : ... .. . P82 ... ... : ... .. 8 ... ... ... : ... .. . ... : ... .. C ... : ... .. . ... ... : ... .. . ... ... : ... .. . ... ... : ... .. . ... ...
ROW 50 : ... .. . P83 ... ... : ... .. . ... ... ... : E-4 00 . ... : ... .. 6 ... : ... .. . ... ... : B-2 01 8 P80 ... : D#3 01 8 P80 ... : ... .. C ... ...
ROW 51 : ... .. . ... ... ... : G-3 00 5 ... ... ... : F#3 00 . ... : ... .. 3 ... : ... .. . ... ... : ... .. 7 ... ... : ... .. 7 ... ... : ... .. A ... ...
ROW 52 : ... .. 2 P80 ... ... : ... .. 4 ... ... ... : B-2 00 . ... : ... .. 2 ... : ... .. . ... ... : ... .. 6 ... ... : ... .. 6 ... ... : ... .. 6 ... ...
ROW 53 : ... .. . P7F ... ... : ... .. . ... ... ... : A#2 00 . ... : ... .. 0 ... : ... .. . ... ... : ... .. 5 ... ... : ... .. 5 ... ... : ... .. . ... ...
ROW 54 : ... .. . P7D ... ... : B-2 00 A ... ... ... : F-2 00 . ... : 7-# 00 F ... : ... .. . ... ... : --- .. . P85 ... : --- .. . P83 ... : ... .. . ... ...
ROW 55 : ... .. 1 ... ... ... : ... .. 8 ... ... ... : ... .. . ... : ... .. C ... : ... .. . ... ... : ... .. . ... ... : ... .. . ... ... : ... .. . ... ...
ROW 56 : ... .. . P7E ... ... : ... .. . ... ... ... : ... .. . ... : ... .. 6 ... : ... .. . ... ... : ... .. . ... ... : ... .. . ... ... : ... .. . ... ...
ROW 57 : ... .. . P80 ... ... : D#3 00 5 ... ... ... : ... .. . ... : ... .. 3 ... : ... .. . ... ... : ... .. . ... ... : ... .. . ... ... : ... .. . ... ...
ROW 58 : ... .. 0 ... ... ... : ... .. 4 ... ... ... : E-4 00 . ... : ... .. 2 ... : ... .. . ... ... : B-2 01 8 P80 ... : D#3 01 8 P80 ... : ... .. C ... ...
ROW 59 : ... .. . ... ... ... : ... .. . ... ... ... : F#3 00 . ... : ... .. 0 ... : ... .. . ... ... : ... .. 7 ... ... : ... .. 7 ... ... : ... .. A ... ...
ROW 5A : ... .. . ... ... ... : G-2 00 A ... ... ... : B-2 00 . ... : ... .. F ... : ... .. . ... ... : ... .. 6 ... ... : ... .. 6 ... ... : ... .. 6 ... ...
ROW 5B : ... .. . ... ... ... : ... .. 8 ... ... ... : A#2 00 . ... : ... .. C ... : ... .. . ... ... : ... .. 5 ... ... : ... .. 5 ... ... : ... .. . ... ...
ROW 5C : ... .. . ... ... ... : ... .. . ... ... ... : F-2 00 . ... : ... .. 6 ... : ... .. . ... ... : ... .. . ... ... : ... .. . ... ... : ... .. . ... ...
ROW 5D : ... .. . ... ... ... : B-2 00 5 ... ... ... : ... .. . ... : ... .. 3 ... : ... .. . ... ... : --- .. . P85 ... : --- .. . P83 ... : ... .. . ... ...
ROW 5E : ... .. . ... ... ... : ... .. 4 ... ... ... : ... .. . ... : ... .. 2 ... : ... .. . ... ... : ... .. . ... ... : ... .. . ... ... : ... .. . ... ...
ROW 5F : ... .. . ... ... ... : ... .. . ... ... ... : ... .. . ... : ... .. 0 ... : ... .. . ... ... : ... .. . ... ... : ... .. . ... ... : ... .. . ... ...
ROW 60 : B-1 00 D P80 ... ... : F#2 00 A ... ... ... : --- .. . ... : 9-# 00 F ... : ... .. . ... ... : D-4 01 8 P80 ... : F#4 01 8 P80 ... : --- .. . P82 ...
ROW 61 : ... .. B ... ... ... : ... .. 8 ... ... ... : ... .. . ... : ... .. C ... : ... .. . ... ... : ... .. 7 ... ... : ... .. 7 ... ... : ... .. . ... ...
ROW 62 : ... .. . ... ... ... : ... .. . ... ... ... : ... .. . ... : ... .. 6 ... : ... .. . ... ... : ... .. 6 ... ... : ... .. 6 ... ... : ... .. . ... ...
ROW 63 : D-4 00 4 ... ... ... : G-2 00 5 ... ... ... : ... .. . ... : ... .. 3 ... : ... .. . ... ... : ... .. 5 ... ... : ... .. 5 ... ... : ... .. . ... ...
ROW 64 : ... .. 3 ... ... ... : ... .. 4 ... ... ... : ... .. . ... : ... .. 2 ... : ... .. . ... ... : ... .. . ... ... : ... .. . ... ... : ... .. . ... ...
ROW 65 : ... .. . ... ... ... : ... .. . ... ... ... : ... .. . ... : ... .. 0 ... : ... .. . ... ... : ... .. 4 ... ... : ... .. 4 ... ... : ... .. . ... ...
ROW 66 : E-4 00 5 ... ... ... : ... .. A ... ... ... : ... .. . ... : 2-# 00 F ... : ... .. . ... ... : ... .. . ... ... : ... .. . ... ... : ... .. . ... ...
ROW 67 : ... .. 4 ... ... ... : ... .. 8 ... ... ... : ... .. . ... : ... .. C ... : ... .. . ... ... : ... .. . ... ... : ... .. . ... ... : ... .. . ... ...
ROW 68 : ... .. . ... ... ... : ... .. . ... ... ... : ... .. . ... : ... .. 6 ... : ... .. . ... ... : ... .. . ... ... : ... .. . ... ... : ... .. . ... ...
ROW 69 : F#4 00 7 ... ... ... : F#2 00 5 ... ... ... : ... .. . ... : ... .. 3 ... : ... .. . ... ... : --- .. . ... ... : --- .. . ... ... : ... .. . ... ...
ROW 6A : ... .. 6 ... ... ... : ... .. 4 ... ... ... : ... .. . ... : ... .. 2 ... : ... .. . ... ... : ... .. . ... ... : ... .. . ... ... : ... .. . ... ...
ROW 6B : ... .. . ... ... ... : ... .. . ... ... ... : ... .. . ... : ... .. 0 ... : ... .. . ... ... : ... .. . ... ... : ... .. . ... ... : ... .. . ... ...
ROW 6C : G#4 00 8 ... ... ... : B-2 00 A ... ... ... : ... .. . ... : 1-# 00 F ... : ... .. . ... ... : D-4 01 6 ... ... : F#4 01 6 ... ... : ... .. . ... ...
ROW 6D : ... .. 7 ... ... ... : ... .. 8 ... ... ... : ... .. . ... : ... .. C ... : ... .. . ... ... : ... .. 4 ... ... : ... .. 4 ... ... : ... .. . ... ...
ROW 6E : ... .. 6 ... ... ... : ... .. . ... ... ... : ... .. . ... : ... .. 6 ... : ... .. . ... ... : ... .. 3 ... ... : ... .. 3 ... ... : ... .. . ... ...
ROW 6F : A#4 00 A ... ... ... : G-2 00 5 ... ... ... : ... .. . ... : ... .. 3 ... : ... .. . ... ... : ... .. 1 ... ... : ... .. 1 ... ... : ... .. . ... ...
ROW 70 : ... .. 9 ... ... ... : ... .. 4 ... ... ... : ... .. . ... : ... .. 2 ... : ... .. . ... ... : ... .. 6 ... ... : ... .. 6 ... ... : ... .. . ... ...
ROW 71 : ... .. 8 ... ... ... : ... .. . ... ... ... : ... .. . ... : ... .. 0 ... : ... .. . ... ... : ... .. 4 ... ... : ... .. 4 ... ... : ... .. . ... ...
ROW 72 : B-4 00 B ... ... ... : D-3 00 A ... ... ... : ... .. . ... : C-# 00 F ... : ... .. . ... ... : ... .. 3 ... ... : ... .. 3 ... ... : ... .. . ... ...
ROW 73 : ... .. A ... ... ... : ... .. 8 ... ... ... : ... .. . ... : ... .. C ... : ... .. . ... ... : ... .. 1 ... ... : ... .. 1 ... ... : ... .. . ... ...
ROW 74 : ... .. 9 ... ... ... : ... .. . ... ... ... : ... .. . ... : ... .. 6 ... : ... .. . ... ... : ... .. 6 ... ... : ... .. 6 ... ... : ... .. . ... ...
ROW 75 : C#5 00 D ... ... ... : B-2 00 5 ... ... ... : ... .. . ... : ... .. 3 ... : ... .. . ... ... : ... .. 4 ... ... : ... .. 4 ... ... : ... .. . ... ...
ROW 76 : ... .. C ... ... ... : ... .. 4 ... ... ... : ... .. . ... : ... .. 2 ... : ... .. . ... ... : ... .. 3 ... ... : ... .. 3 ... ... : ... .. . ... ...
ROW 77 : ... .. B ... ... ... : ... .. . ... ... ... : ... .. . ... : ... .. 0 ... : ... .. . ... ... : ... .. 1 ... ... : ... .. 1 ... ... : ... .. . ... ...
ROW 78 : D-5 00 F ... ... ... : F#3 00 A ... ... ... : A#3 00 . ... : 7-# 00 F ... : ... .. . ... ... : ... .. 8 ... ... : ... .. 8 ... ... : B-0 01 C P80 ...
ROW 79 : ... .. E ... ... ... : ... .. 8 ... ... ... : C-3 00 . ... : ... .. C ... : ... .. . ... ... : ... .. 7 ... ... : ... .. 7 ... ... : ... .. A ... ...
ROW 7A : ... .. D ... ... ... : ... .. . ... ... ... : F-2 00 . ... : ... .. 6 ... : ... .. . ... ... : ... .. 6 ... ... : ... .. 6 ... ... : ... .. 6 ... ...
ROW 7B : ... .. A ... ... ... : D-3 00 5 ... ... ... : E-2 00 . ... : ... .. 3 ... : ... .. . ... ... : ... .. 5 ... ... : ... .. 5 ... ... : ... .. . ... ...
ROW 7C : ... .. . ... ... ... : ... .. 4 ... ... ... : B-1 00 . ... : ... .. 2 ... : ... .. . ... ... : ... .. . ... ... : ... .. . ... ... : ... .. . ... ...
ROW 7D : ... .. . ... ... ... : ... .. . ... ... ... : ... .. . ... : ... .. 0 ... : ... .. . ... ... : ... .. 4 ... ... : ... .. 4 ... ... : ... .. . ... ...
ROW 7E : ... .. . ... ... ... : G-3 00 A ... ... ... : ... .. . ... : 1-# 00 F ... : ... .. . ... ... : ... .. . ... ... : ... .. . ... ... : ... .. . ... ...
ROW 7F : ... .. . ... ... ... : ... .. 8 ... ... ... : ... .. . ... : ... .. C ... : ... .. . ... ... : ... .. . ... ... : ... .. . ... ... : ... .. . ... ...
ROW 80 : ... .. . ... ... ... : ... .. . ... ... ... : ... .. . ... : ... .. 6 ... : ... .. . ... ... : ... .. . ... ... : ... .. . ... ... : ... .. . ... ...
ROW 81 : ... .. . ... ... ... : F#3 00 5 ... ... ... : ... .. . ... : ... .. 3 ... : ... .. . ... ... : --- .. . ... ... : --- .. . ... ... : ... .. . ... ...
ROW 82 : ... .. . ... ... ... : ... .. 4 ... ... ... : ... .. . ... : ... .. 2 ... : ... .. . ... ... : ... .. . ... ... : ... .. . ... ... : ... .. . ... ...
ROW 83 : ... .. . ... ... ... : ... .. . ... ... ... : ... .. . ... : ... .. 0 ... : ... .. . ... ... : ... .. . ... ... : ... .. . ... ... : ... .. . ... ...
ROW 84 : ... .. . ... ... ... : B-3 00 A ... ... ... : ... .. . ... : C-# 00 F ... : ... .. . ... ... : D-4 01 6 ... ... : F#4 01 6 ... ... : ... .. . ... ...
ROW 85 : ... .. . ... ... ... : ... .. 8 ... ... ... : ... .. . ... : ... .. C ... : ... .. . ... ... : ... .. 4 ... ... : ... .. 4 ... ... : ... .. . ... ...
ROW 86 : ... .. . ... ... ... : ... .. . ... ... ... : ... .. . ... : ... .. 6 ... : ... .. . ... ... : ... .. 3 ... ... : ... .. 3 ... ... : ... .. . ... ...
ROW 87 : ... .. . P82 ... ... : G-3 00 5 ... ... ... : ... .. . ... : ... .. 3 ... : ... .. . ... ... : ... .. 1 ... ... : ... .. 1 ... ... : ... .. . ... ...
ROW 88 : D#5 00 A P7E ... ... : ... .. 4 ... ... ... : ... .. . ... : ... .. 2 ... : ... .. . ... ... : ... .. 6 ... ... : ... .. 6 ... ... : ... .. . ... ...
ROW 89 : ... .. . ... ... ... : ... .. . ... ... ... : ... .. . ... : ... .. 0 ... : ... .. . ... ... : ... .. 4 ... ... : ... .. 4 ... ... : ... .. . ... ...
ROW 8A : D-5 00 A P81 ... ... : D-4 00 A ... ... ... : ... .. . ... : 7-# 00 F ... : ... .. . ... ... : ... .. 3 ... ... : ... .. 3 ... ... : ... .. . ... ...
ROW 8B : ... .. . P7F ... ... : ... .. 8 ... ... ... : ... .. . ... : ... .. C ... : ... .. . ... ... : ... .. 1 ... ... : ... .. 1 ... ... : ... .. . ... ...
ROW 8C : C#5 00 A P83 ... ... : ... .. . ... ... ... : ... .. . ... : ... .. 6 ... : ... .. . ... ... : ... .. 6 ... ... : ... .. 6 ... ... : ... .. . ... ...
ROW 8D : ... .. . ... ... ... : B-3 00 5 ... ... ... : ... .. . ... : ... .. 3 ... : ... .. . ... ... : ... .. 4 ... ... : ... .. 4 ... ... : ... .. . ... ...
ROW 8E : D-5 00 A P7E ... ... : ... .. 4 ... ... ... : ... .. . ... : ... .. 2 ... : ... .. . ... ... : ... .. 3 ... ... : ... .. 3 ... ... : ... .. . ... ...
ROW 8F : ... .. . P80 ... ... : ... .. . ... ... ... : ... .. . ... : ... .. 0 ... : ... .. . ... ... : ... .. 1 ... ... : ... .. 1 ... ... : ... .. . ... ...
ROW 90 : ... .. . P82 ... ... : D#4 00 A ... ... ... : A#4 00 . ... : 1-# 00 F ... : ... .. . ... ... : D#4 01 8 ... ... : G-4 01 8 ... ... : ... .. C ... ...
ROW 91 : D#5 00 A P7E ... ... : ... .. 8 ... ... ... : C-4 00 . ... : ... .. C ... : ... .. . ... ... : ... .. 7 ... ... : ... .. 7 ... ... : ... .. A ... ...
ROW 92 : ... .. . ... ... ... : ... .. . ... ... ... : F-3 00 . ... : ... .. 6 ... : ... .. . ... ... : ... .. 6 ... ... : ... .. 6 ... ... : ... .. 6 ... ...
ROW 93 : D-5 00 A P81 ... ... : D-4 00 5 ... ... ... : E-3 00 . ... : ... .. 3 ... : ... .. . ... ... : ... .. 5 ... ... : ... .. 5 ... ... : ... .. . ... ...
ROW 94 : ... .. . P80 ... ... : ... .. 4 ... ... ... : B-2 00 . ... : ... .. 2 ... : ... .. . ... ... : ... .. . ... ... : ... .. . ... ... : ... .. . ... ...
ROW 95 : C#5 00 A P83 ... ... : ... .. . ... ... ... : ... .. . ... : ... .. 0 ... : ... .. . ... ... : --- .. . ... ... : --- .. . ... ... : ... .. . ... ...
ROW 96 : D-5 00 A P80 ... ... : B-3 00 A ... ... ... : ... .. . ... : B-# 00 F ... : ... .. . ... ... : ... .. . ... ... : ... .. . ... ... : ... .. . ... ...
ROW 97 : ... .. . ... ... ... : ... .. 8 ... ... ... : ... .. . ... : ... .. C ... : ... .. . ... ... : ... .. . ... ... : ... .. . ... ... : ... .. . ... ...
ROW 98 : ... .. . ... ... ... : ... .. . ... ... ... : ... .. . ... : ... .. 6 ... : ... .. . ... ... : D#4 01 8 ... ... : G-4 01 8 ... ... : ... .. . ... ...
ROW 99 : ... .. 8 ... ... ... : D#4 00 5 ... ... ... : ... .. . ... : ... .. 3 ... : ... .. . ... ... : ... .. 7 ... ... : ... .. 7 ... ... : ... .. . ... ...
ROW 9A : ... .. 7 ... ... ... : ... .. 4 ... ... ... : ... .. . ... : ... .. 2 ... : ... .. . ... ... : ... .. 6 ... ... : ... .. 6 ... ... : ... .. . ... ...
ROW 9B : ... .. 6 ... ... ... : ... .. . ... ... ... : ... .. . ... : ... .. 0 ... : ... .. . ... ... : ... .. 5 ... ... : ... .. 5 ... ... : ... .. . ... ...
ROW 9C : ... .. B ... ... ... : ... .. A ... ... ... : ... .. . ... : 7-# 00 F ... : ... .. . ... ... : --- .. . ... ... : --- .. . ... ... : ... .. . ... ...
ROW 9D : ... .. 8 ... ... ... : ... .. 8 ... ... ... : ... .. . ... : ... .. C ... : ... .. . ... ... : ... .. . ... ... : ... .. . ... ... : ... .. . ... ...
ROW 9E : ... .. 0 ... ... ... : ... .. . ... ... ... : ... .. . ... : ... .. 6 ... : ... .. . ... ... : ... .. . ... ... : ... .. . ... ... : ... .. . ... ...
ROW 9F : D-5 00 B P80 ... ... : B-3 00 5 ... ... ... : ... .. . ... : ... .. 3 ... : ... .. . ... ... : ... .. . ... ... : ... .. . ... ... : ... .. . ... ...
ROW A0 : ... .. 8 ... ... ... : ... .. 4 ... ... ... : ... .. . ... : ... .. 2 ... : ... .. . ... ... : D#4 01 8 ... ... : G-4 01 8 ... ... : ... .. . ... ...
ROW A1 : ... .. 0 ... ... ... : ... .. . ... ... ... : ... .. . ... : ... .. 0 ... : ... .. . ... ... : ... .. 7 ... ... : ... .. 7 ... ... : ... .. . ... ...
ROW A2 : D-5 00 B P80 ... ... : G-4 00 A ... ... ... : ... .. . ... : 1-# 00 F ... : ... .. . ... ... : ... .. 6 ... ... : ... .. 6 ... ... : ... .. . ... ...
ROW A3 : ... .. 8 ... ... ... : ... .. 8 ... ... ... : ... .. . ... : ... .. C ... : ... .. . ... ... : ... .. 5 ... ... : ... .. 5 ... ... : ... .. . ... ...
ROW A4 : ... .. 0 ... ... ... : ... .. . ... ... ... : ... .. . ... : ... .. 6 ... : ... .. . ... ... : ... .. . ... ... : ... .. . ... ... : ... .. . ... ...
ROW A5 : ... .. . ... ... ... : D#4 00 5 ... ... ... : ... .. . ... : ... .. 3 ... : ... .. . ... ... : --- .. . ... ... : --- .. . ... ... : ... .. . ... ...
ROW A6 : ... .. . ... ... ... : ... .. 4 ... ... ... : ... .. . ... : ... .. 2 ... : ... .. . ... ... : ... .. . ... ... : ... .. . ... ... : ... .. . ... ...
ROW A7 : ... .. . ... ... ... : ... .. . ... ... ... : ... .. . ... : ... .. 0 ... : ... .. . ... ... : ... .. . ... ... : ... .. . ... ... : ... .. . ... ...
ROW A8 : D-5 00 F P80 ... ... : B-3 00 A ... ... ... : ... .. . ... : 9-# 00 F ... : ... .. . ... ... : B-3 01 8 ... ... : D#4 01 8 ... ... : ... .. . ... ...
ROW A9 : ... .. E ... ... ... : ... .. 8 ... ... ... : ... .. . ... : ... .. C ... : ... .. . ... ... : ... .. 7 ... ... : ... .. 7 ... ... : ... .. . ... ...
ROW AA : ... .. D ... ... ... : ... .. . ... ... ... : ... .. . ... : ... .. 6 ... : ... .. . ... ... : ... .. 6 ... ... : ... .. 6 ... ... : ... .. . ... ...
ROW AB : ... .. A ... ... ... : G-4 00 5 ... ... ... : ... .. . ... : ... .. 3 ... : ... .. . ... ... : ... .. 5 ... ... : ... .. 5 ... ... : ... .. . ... ...
ROW AC : ... .. 2 ... ... ... : ... .. 4 ... ... ... : ... .. . ... : ... .. 2 ... : ... .. . ... ... : ... .. . ... ... : ... .. . ... ... : ... .. . ... ...
ROW AD : ... .. . ... ... ... : ... .. . ... ... ... : ... .. . ... : ... .. 0 ... : ... .. . ... ... : --- .. . ... ... : --- .. . ... ... : ... .. . ... ...
ROW AE : ... .. . ... ... ... : D#4 00 A ... ... ... : ... .. . ... : ... .. F ... : ... .. . ... ... : ... .. . ... ... : ... .. . ... ... : ... .. . ... ...
ROW AF : ... .. 1 ... ... ... : ... .. 8 ... ... ... : ... .. . ... : ... .. C ... : ... .. . ... ... : ... .. . ... ... : ... .. . ... ... : ... .. . ... ...
ROW B0 : G-4 00 F ... ... ... : ... .. . ... ... ... : ... .. . ... : ... .. 6 ... : ... .. . ... ... : B-3 01 8 ... ... : D#4 01 8 ... ... : ... .. . ... ...
ROW B1 : ... .. E ... ... ... : B-3 00 5 ... ... ... : ... .. . ... : ... .. 3 ... : ... .. . ... ... : ... .. 7 ... ... : ... .. 7 ... ... : ... .. . ... ...
ROW B2 : ... .. D ... ... ... : ... .. 4 ... ... ... : ... .. . ... : ... .. 2 ... : ... .. . ... ... : ... .. 6 ... ... : ... .. 6 ... ... : ... .. . ... ...
ROW B3 : ... .. A ... ... ... : ... .. . ... ... ... : ... .. . ... : ... .. 0 ... : ... .. . ... ... : ... .. 5 ... ... : ... .. 5 ... ... : ... .. . ... ...
ROW B4 : ... .. . ... ... ... : G-4 00 A ... ... ... : ... .. . ... : 7-# 00 F ... : ... .. . ... ... : --- .. . ... ... : --- .. . ... ... : ... .. . ... ...
ROW B5 : ... .. 2 ... ... ... : ... .. 8 ... ... ... : ... .. . ... : ... .. C ... : ... .. . ... ... : ... .. . ... ... : ... .. . ... ... : ... .. . ... ...
ROW B6 : ... .. . ... ... ... : ... .. . ... ... ... : ... .. . ... : ... .. 6 ... : ... .. . ... ... : ... .. . ... ... : ... .. . ... ... : ... .. . ... ...
ROW B7 : ... .. . ... ... ... : D#4 00 5 ... ... ... : ... .. . ... : ... .. 3 ... : ... .. . ... ... : ... .. . ... ... : ... .. . ... ... : ... .. . ... ...
ROW B8 : ... .. F ... ... ... : ... .. 4 ... ... ... : ... .. . ... : ... .. 2 ... : ... .. . ... ... : B-3 01 8 ... ... : D#4 01 8 ... ... : ... .. . ... ...
ROW B9 : ... .. E ... ... ... : ... .. . ... ... ... : ... .. . ... : ... .. 0 ... : ... .. . ... ... : ... .. 7 ... ... : ... .. 7 ... ... : ... .. . ... ...
ROW BA : ... .. D ... ... ... : B-4 00 A ... ... ... : ... .. . ... : ... .. F ... : ... .. . ... ... : ... .. 6 ... ... : ... .. 6 ... ... : ... .. . ... ...
ROW BB : ... .. A ... ... ... : ... .. 8 ... ... ... : ... .. . ... : ... .. C ... : ... .. . ... ... : ... .. 5 ... ... : ... .. 5 ... ... : ... .. . ... ...
ROW BC : ... .. . ... ... ... : ... .. . ... ... ... : ... .. . ... : ... .. 6 ... : ... .. . ... ... : ... .. . ... ... : ... .. . ... ... : ... .. . ... ...
ROW BD : ... .. 0 ... ... ... : G-4 00 5 ... ... ... : ... .. . ... : ... .. 3 ... : ... .. . ... ... : --- .. . ... ... : --- .. . ... ... : ... .. . ... ...
ROW BE : ... .. . ... ... ... : ... .. 4 ... ... ... : ... .. . ... : ... .. 2 ... : ... .. . ... ... : ... .. . ... ... : ... .. . ... ... : ... .. . ... ...
ROW BF : ... .. . ... ... ... : ... .. . ... ... ... : ... .. . ... : ... .. 0 ... : ... .. . ... ... : ... .. . ... ... : ... .. . ... ... : ... .. . ... ...
ROW C0 : G#4 00 F P80 ... ... : C-5 00 A ... ... ... : B-4 00 . ... : 9-# 00 F ... : ... .. . ... ... : C-4 01 8 ... ... : F-4 01 8 ... ... : C-1 01 C ... ...
ROW C1 : ... .. E ... ... ... : ... .. 8 ... ... ... : C#4 00 . ... : ... .. C ... : ... .. . ... ... : ... .. 7 ... ... : ... .. 7 ... ... : ... .. A ... ...
ROW C2 : ... .. D ... ... ... : ... .. . ... ... ... : F#3 00 . ... : ... .. 6 ... : ... .. . ... ... : ... .. 6 ... ... : ... .. 6 ... ... : ... .. 6 ... ...
ROW C3 : ... .. A ... ... ... : B-4 00 5 ... ... ... : F-3 00 . ... : ... .. 3 ... : ... .. . ... ... : ... .. 5 ... ... : ... .. 5 ... ... : ... .. . ... ...
ROW C4 : ... .. 2 ... ... ... : ... .. 4 ... ... ... : C-3 00 . ... : ... .. 2 ... : ... .. . ... ... : ... .. . ... ... : ... .. . ... ... : ... .. . ... ...
ROW C5 : ... .. . ... ... ... : ... .. . ... ... ... : ... .. . ... : ... .. 0 ... : ... .. . ... ... : ... .. 4 ... ... : ... .. 4 ... ... : ... .. . ... ...
ROW C6 : ... .. . ... ... ... : G#4 00 A ... ... ... : ... .. . ... : 2-# 00 F ... : ... .. . ... ... : ... .. . ... ... : ... .. . ... ... : ... .. . ... ...
ROW C7 : ... .. 1 ... ... ... : ... .. 8 ... ... ... : ... .. . ... : ... .. C ... : ... .. . ... ... : ... .. . ... ... : ... .. . ... ... : ... .. . ... ...
ROW C8 : D-4 00 F ... ... ... : ... .. . ... ... ... : ... .. . ... : ... .. 6 ... : ... .. . ... ... : ... .. . ... ... : ... .. . ... ... : ... .. . ... ...
ROW C9 : ... .. E ... ... ... : C-5 00 5 ... ... ... : ... .. . ... : ... .. 3 ... : ... .. . ... ... : --- .. . ... ... : --- .. . ... ... : ... .. . ... ...
ROW CA : ... .. D ... ... ... : ... .. 4 ... ... ... : ... .. . ... : ... .. 2 ... : ... .. . ... ... : ... .. . ... ... : ... .. . ... ... : ... .. . ... ...
ROW CB : ... .. A ... ... ... : ... .. . ... ... ... : ... .. . ... : ... .. 0 ... : ... .. . ... ... : ... .. . ... ... : ... .. . ... ... : ... .. . ... ...
ROW CC : ... .. . ... ... ... : F-4 00 A ... ... ... : ... .. . ... : 1-# 00 F ... : ... .. . ... ... : C-4 01 6 ... ... : F-4 01 6 ... ... : ... .. . ... ...
ROW CD : ... .. 2 ... ... ... : ... .. 8 ... ... ... : ... .. . ... : ... .. C ... : ... .. . ... ... : ... .. 4 ... ... : ... .. 4 ... ... : ... .. . ... ...
ROW CE : ... .. . ... ... ... : ... .. . ... ... ... : ... .. . ... : ... .. 6 ... : ... .. . ... ... : ... .. 3 ... ... : ... .. 3 ... ... : ... .. . ... ...
ROW CF : ... .. . ... ... ... : G#4 00 5 ... ... ... : ... .. . ... : ... .. 3 ... : ... .. . ... ... : ... .. 1 ... ... : ... .. 1 ... ... : ... .. . ... ...
ROW D0 : ... .. F ... ... ... : ... .. 4 ... ... ... : ... .. . ... : ... .. 2 ... : ... .. . ... ... : ... .. 6 ... ... : ... .. 6 ... ... : ... .. . ... ...
ROW D1 : ... .. E ... ... ... : ... .. . ... ... ... : ... .. . ... : ... .. 0 ... : ... .. . ... ... : ... .. 4 ... ... : ... .. 4 ... ... : ... .. . ... ...
ROW D2 : ... .. D ... ... ... : C-4 00 A ... ... ... : ... .. . ... : C-# 00 F ... : ... .. . ... ... : ... .. 3 ... ... : ... .. 3 ... ... : ... .. . ... ...
ROW D3 : ... .. A ... ... ... : ... .. 8 ... ... ... : ... .. . ... : ... .. C ... : ... .. . ... ... : ... .. 1 ... ... : ... .. 1 ... ... : ... .. . ... ...
ROW D4 : ... .. . ... ... ... : ... .. . ... ... ... : ... .. . ... : ... .. 6 ... : ... .. . ... ... : ... .. 6 ... ... : ... .. 6 ... ... : ... .. . ... ...
ROW D5 : ... .. . ... ... ... : F-4 00 5 ... ... ... : ... .. . ... : ... .. 3 ... : ... .. . ... ... : ... .. 4 ... ... : ... .. 4 ... ... : ... .. . ... ...
ROW D6 : ... .. . ... ... ... : ... .. 4 ... ... ... : ... .. . ... : ... .. 2 ... : ... .. . ... ... : ... .. 3 ... ... : ... .. 3 ... ... : ... .. . ... ...
ROW D7 : ... .. . ... ... ... : ... .. . ... ... ... : ... .. . ... : ... .. 0 ... : ... .. . ... ... : ... .. 1 ... ... : ... .. 1 ... ... : ... .. . ... ...
ROW D8 : ... .. F ... ... ... : G#3 00 A ... ... ... : ... .. . ... : 7-# 00 F ... : ... .. . ... ... : G#3 01 8 ... ... : C-4 01 8 ... ... : ... .. . ... ...
ROW D9 : ... .. E ... ... ... : ... .. 8 ... ... ... : ... .. . ... : ... .. C ... : ... .. . ... ... : ... .. 7 ... ... : ... .. 7 ... ... : ... .. . ... ...
ROW DA : ... .. D ... ... ... : ... .. . ... ... ... : ... .. . ... : ... .. 6 ... : ... .. . ... ... : ... .. 6 ... ... : ... .. 6 ... ... : ... .. . ... ...
ROW DB : ... .. A ... ... ... : C-4 00 5 ... ... ... : ... .. . ... : ... .. 3 ... : ... .. . ... ... : ... .. 5 ... ... : ... .. 5 ... ... : ... .. . ... ...
ROW DC : ... .. 2 ... ... ... : ... .. 4 ... ... ... : ... .. . ... : ... .. 2 ... : ... .. . ... ... : ... .. . ... ... : ... .. . ... ... : ... .. . ... ...
ROW DD : ... .. . ... ... ... : ... .. . ... ... ... : ... .. . ... : ... .. 0 ... : ... .. . ... ... : ... .. 4 ... ... : ... .. 4 ... ... : ... .. . ... ...
ROW DE : ... .. . ... ... ... : ... .. A ... ... ... : ... .. . ... : 1-# 00 F ... : ... .. . ... ... : ... .. . ... ... : ... .. . ... ... : ... .. . ... ...
ROW DF : ... .. 1 ... ... ... : ... .. 8 ... ... ... : ... .. . ... : ... .. C ... : ... .. . ... ... : ... .. . ... ... : ... .. . ... ... : ... .. . ... ...
ROW E0 : G#3 00 F ... ... ... : ... .. . ... ... ... : ... .. . ... : ... .. 6 ... : ... .. . ... ... : ... .. . ... ... : ... .. . ... ... : ... .. . ... ...
ROW E1 : ... .. E ... ... ... : G#3 00 5 ... ... ... : ... .. . ... : ... .. 3 ... : ... .. . ... ... : --- .. . P82 ... : --- .. . ... ... : ... .. . ... ...
ROW E2 : ... .. D ... ... ... : ... .. 4 ... ... ... : ... .. . ... : ... .. 2 ... : ... .. . ... ... : ... .. . ... ... : ... .. . ... ... : ... .. . ... ...
ROW E3 : ... .. A ... ... ... : ... .. . ... ... ... : ... .. . ... : ... .. 0 ... : ... .. . ... ... : ... .. . ... ... : ... .. . ... ... : ... .. . ... ...
ROW E4 : ... .. . ... ... ... : F-4 00 A ... ... ... : G-5 00 . ... : C-# 00 F ... : ... .. . ... ... : G#3 01 6 P80 ... : C-4 01 6 ... ... : G#1 01 C ... ...
ROW E5 : ... .. 2 ... ... ... : ... .. 8 ... ... ... : A-4 00 . ... : ... .. C ... : ... .. . ... ... : ... .. 4 ... ... : ... .. 4 ... ... : ... .. A ... ...
ROW E6 : ... .. . ... ... ... : ... .. . ... ... ... : D-4 00 . ... : ... .. 6 ... : ... .. . ... ... : ... .. 3 ... ... : ... .. 3 ... ... : ... .. 6 ... ...
ROW E7 : ... .. . ... ... ... : C-4 00 5 ... ... ... : C#4 00 . ... : ... .. 3 ... : ... .. . ... ... : ... .. 1 ... ... : ... .. 1 ... ... : ... .. . ... ...
ROW E8 : ... .. F ... ... ... : ... .. 4 ... ... ... : G#3 00 . ... : ... .. 2 ... : ... .. . ... ... : ... .. 6 ... ... : ... .. 6 ... ... : ... .. . ... ...
ROW E9 : ... .. E ... ... ... : ... .. . ... ... ... : ... .. . ... : ... .. 0 ... : ... .. . ... ... : ... .. 4 ... ... : ... .. 4 ... ... : ... .. . ... ...
ROW EA : ... .. D ... ... ... : G#4 00 A ... ... ... : ... .. . ... : 7-# 00 F ... : ... .. . ... ... : ... .. 3 ... ... : ... .. 3 ... ... : ... .. . ... ...
ROW EB : ... .. A ... ... ... : ... .. 8 ... ... ... : ... .. . ... : ... .. C ... : ... .. . ... ... : ... .. 1 ... ... : ... .. 1 ... ... : ... .. . ... ...
ROW EC : ... .. . ... ... ... : ... .. . ... ... ... : ... .. . ... : ... .. 6 ... : ... .. . ... ... : ... .. 6 ... ... : ... .. 6 ... ... : ... .. . ... ...
ROW ED : ... .. . ... ... ... : F-4 00 5 ... ... ... : ... .. . ... : ... .. 3 ... : ... .. . ... ... : ... .. 4 ... ... : ... .. 4 ... ... : ... .. . ... ...
ROW EE : ... .. 2 ... ... ... : ... .. 4 ... ... ... : ... .. . ... : ... .. 2 ... : ... .. . ... ... : ... .. 3 ... ... : ... .. 3 ... ... : ... .. . ... ...
ROW EF : ... .. . ... ... ... : ... .. . ... ... ... : ... .. . ... : ... .. 0 ... : ... .. . ... ... : ... .. 1 ... ... : ... .. 1 ... ... : ... .. . ... ...
ROW F0 : ... .. F ... ... ... : A#4 00 A ... ... ... : C#6 00 . ... : 1-# 00 F ... : ... .. . ... ... : A#3 01 8 ... ... : D-4 01 8 ... ... : D-2 01 C ... ...
ROW F1 : ... .. E ... ... ... : ... .. 8 ... ... ... : D#5 00 . ... : ... .. C ... : ... .. . ... ... : ... .. 7 ... ... : ... .. 7 ... ... : ... .. A ... ...
ROW F2 : ... .. D ... ... ... : ... .. . ... ... ... : G#4 00 . ... : ... .. 6 ... : ... .. . ... ... : ... .. 6 ... ... : ... .. 6 ... ... : ... .. 6 ... ...
ROW F3 : ... .. A ... ... ... : G#4 00 5 ... ... ... : G-4 00 . ... : ... .. 3 ... : ... .. . ... ... : ... .. 5 ... ... : ... .. 5 ... ... : ... .. . ... ...
ROW F4 : ... .. 2 ... ... ... : ... .. 4 ... ... ... : D-4 00 . ... : ... .. 2 ... : ... .. . ... ... : ... .. . ... ... : ... .. . ... ... : ... .. . ... ...
ROW F5 : ... .. . ... ... ... : ... .. . ... ... ... : ... .. . ... : ... .. 0 ... : ... .. . ... ... : --- .. . ... ... : --- .. . ... ... : ... .. . ... ...
ROW F6 : ... .. . ... ... ... : F#4 00 A ... ... ... : ... .. . ... : B-# 00 F ... : ... .. . ... ... : ... .. . ... ... : ... .. . ... ... : ... .. . ... ...
ROW F7 : ... .. 1 ... ... ... : ... .. 8 ... ... ... : ... .. . ... : ... .. C ... : ... .. . ... ... : ... .. . ... ... : ... .. . ... ... : ... .. . ... ...
ROW F8 : D-3 00 F ... ... ... : ... .. . ... ... ... : ... .. . ... : ... .. 6 ... : ... .. . ... ... : A#3 01 8 ... ... : D-4 01 8 ... ... : ... .. . ... ...
ROW F9 : ... .. E ... ... ... : A#4 00 5 ... ... ... : ... .. . ... : ... .. 3 ... : ... .. . ... ... : ... .. 7 ... ... : ... .. 7 ... ... : ... .. . ... ...
ROW FA : ... .. D ... ... ... : ... .. 4 ... ... ... : ... .. . ... : ... .. 2 ... : ... .. . ... ... : ... .. 6 ... ... : ... .. 6 ... ... : ... .. . ... ...
ROW FB : ... .. A ... ... ... : ... .. . ... ... ... : ... .. . ... : ... .. 0 ... : ... .. . ... ... : ... .. 5 ... ... : ... .. 5 ... ... : ... .. . ... ...
ROW FC : ... .. . ... ... ... : D-4 00 A ... ... ... : ... .. . ... : 7-# 00 F ... : ... .. . ... ... : --- .. . ... ... : --- .. . ... ... : ... .. . ... ...
ROW FD : ... .. 2 ... ... ... : ... .. 8 ... ... ... : ... .. . ... : ... .. C ... : ... .. . ... ... : ... .. . ... ... : ... .. . ... ... : ... .. . ... ...
ROW FE : ... .. . ... ... ... : ... .. . ... ... ... : ... .. . ... : ... .. 6 ... : ... .. . ... ... : ... .. . ... ... : ... .. . ... ... : ... .. . ... ...
ROW FF : ... .. . ... ... ... : F#4 00 5 ... ... ... : ... .. . ... : ... .. 3 ... : ... .. . ... ... : ... .. . ... ... : ... .. . ... ... : ... .. . ... ...

PATTERN 0A
ROW 00 : ... .. F ... ... ... : ... .. 4 ... ... ... : ... .. . ... : ... .. 2 ... : ... .. . ... ... : A#3 01 8 ... ... : D-4 01 8 ... ... : ... .. . ... ...
ROW 01 : ... .. E ... ... ... : ... .. . ... ... ... : ... .. . ... : ... .. 0 ... : ... .. . ... ... : ... .. 7 ... ... : ... .. 7 ... ... : ... .. . ... ...
ROW 02 : ... .. B ... ... ... : A#3 00 A ... ... ... : ... .. . ... : 1-# 00 F ... : ... .. . ... ... : ... .. 6 ... ... : ... .. 6 ... ... : ... .. . ... ...
ROW 03 : ... .. 8 ... ... ... : ... .. 8 ... ... ... : ... .. . ... : ... .. C ... : ... .. . ... ... : ... .. 5 ... ... : ... .. 5 ... ... : ... .. . ... ...
ROW 04 : ... .. . ... ... ... : ... .. . ... ... ... : ... .. . ... : ... .. 6 ... : ... .. . ... ... : ... .. . ... ... : ... .. . ... ... : ... .. . ... ...
ROW 05 : ... .. . ... ... ... : D-4 00 5 ... ... ... : ... .. . ... : ... .. 3 ... : ... .. . ... ... : --- .. . ... ... : --- .. . ... ... : ... .. . ... ...
ROW 06 : ... .. . ... ... ... : ... .. 4 ... ... ... : ... .. . ... : ... .. 2 ... : ... .. . ... ... : ... .. . ... ... : ... .. . ... ... : ... .. . ... ...
ROW 07 : ... .. . ... ... ... : ... .. . ... ... ... : ... .. . ... : ... .. 0 ... : ... .. . ... ... : ... .. . ... ... : ... .. . ... ... : ... .. . ... ...
ROW 08 : ... .. 2 ... ... ... : F#3 00 A ... ... ... : ... .. . ... : 9-# 00 F ... : ... .. . ... ... : F#3 01 8 ... ... : A#3 01 8 ... ... : ... .. . ... ...
ROW 09 : ... .. . ... ... ... : ... .. 8 ... ... ... : ... .. . ... : ... .. C ... : ... .. . ... ... : ... .. 7 ... ... : ... .. 7 ... ... : ... .. . ... ...
ROW 0A : ... .. . ... ... ... : ... .. . ... ... ... : ... .. . ... : ... .. 6 ... : ... .. . ... ... : ... .. 6 ... ... : ... .. 6 ... ... : ... .. . ... ...
ROW 0B : ... .. 3 ... ... ... : A#3 00 5 ... ... ... : ... .. . ... : ... .. 3 ... : ... .. . ... ... : ... .. 5 ... ... : ... .. 5 ... ... : ... .. . ... ...
ROW 0C : ... .. . ... ... ... : ... .. 4 ... ... ... : ... .. . ... : ... .. 2 ... : ... .. . ... ... : ... .. . ... ... : ... .. . ... ... : ... .. . ... ...
ROW 0D : ... .. . ... ... ... : ... .. . ... ... ... : ... .. . ... : ... .. 0 ... : ... .. . ... ... : --- .. . P7F ... : --- .. . ... ... : ... .. . ... ...
ROW 0E : ... .. 4 ... ... ... : ... .. A ... ... ... : ... .. . ... : ... .. F ... : ... .. . ... ... : ... .. . ... ... : ... .. . ... ... : ... .. . ... ...
ROW 0F : ... .. . ... ... ... : ... .. 8 ... ... ... : ... .. . ... : ... .. C ... : ... .. . ... ... : ... .. . ... ... : ... .. . ... ... : ... .. . ... ...
ROW 10 : ... .. . ... ... ... : ... .. . ... ... ... : ... .. . ... : ... .. 6 ... : ... .. . ... ... : F#3 01 8 P80 ... : A#3 01 8 ... ... : ... .. . ... ...
ROW 11 : ... .. 6 ... ... ... : F#3 00 5 ... ... ... : ... .. . ... : ... .. 3 ... : ... .. . ... ... : ... .. 7 ... ... : ... .. 7 ... ... : ... .. . ... ...
ROW 12 : ... .. . ... ... ... : ... .. 4 ... ... ... : ... .. . ... : ... .. 2 ... : ... .. . ... ... : ... .. 6 ... ... : ... .. 6 ... ... : ... .. . ... ...
ROW 13 : ... .. . ... ... ... : ... .. . ... ... ... : ... .. . ... : ... .. 0 ... : ... .. . ... ... : ... .. 5 ... ... : ... .. 5 ... ... : ... .. . ... ...
ROW 14 : ... .. 7 ... ... ... : D-4 00 A ... ... ... : ... .. . ... : 7-# 00 F ... : ... .. . ... ... : --- .. . P7F ... : --- .. . ... ... : ... .. . ... ...
ROW 15 : ... .. . ... ... ... : ... .. 8 ... ... ... : ... .. . ... : ... .. C ... : ... .. . ... ... : ... .. . ... ... : ... .. . ... ... : ... .. . ... ...
ROW 16 : ... .. . ... ... ... : ... .. . ... ... ... : ... .. . ... : ... .. 6 ... : ... .. . ... ... : ... .. . ... ... : ... .. . ... ... : ... .. . ... ...
ROW 17 : ... .. 8 ... ... ... : A#3 00 5 ... ... ... : ... .. . ... : ... .. 3 ... : ... .. . ... ... : ... .. . ... ... : ... .. . ... ... : ... .. . ... ...
ROW 18 : ... .. . ... ... ... : ... .. 4 ... ... ... : ... .. . ... : ... .. 2 ... : ... .. . ... ... : F#3 01 8 P80 ... : A#3 01 8 ... ... : ... .. . ... ...
ROW 19 : ... .. . ... ... ... : ... .. . ... ... ... : ... .. . ... : ... .. 0 ... : ... .. . ... ... : ... .. 7 ... ... : ... .. 7 ... ... : ... .. . ... ...
ROW 1A : ... .. A P84 ... ... : F#4 00 A ... ... ... : ... .. . ... : ... .. F ... : ... .. . ... ... : ... .. 6 ... ... : ... .. 6 ... ... : ... .. . ... ...
ROW 1B : ... .. . P86 ... ... : ... .. 8 ... ... ... : ... .. . ... : ... .. C ... : ... .. . ... ... : ... .. 5 ... ... : ... .. 5 ... ... : ... .. . ... ...
ROW 1C : ... .. . P85 ... ... : ... .. . ... ... ... : ... .. . ... : ... .. 6 ... : ... .. . ... ... : ... .. . ... ... : ... .. . ... ... : ... .. . ... ...
ROW 1D : ... .. . P82 ... ... : D-4 00 5 ... ... ... : ... .. . ... : ... .. 3 ... : ... .. . ... ... : --- .. . P7F ... : --- .. . ... ... : ... .. . ... ...
ROW 1E : ... .. . P7E ... ... : ... .. 4 ... ... ... : ... .. . ... : ... .. 2 ... : ... .. . ... ... : ... .. . ... ... : ... .. . ... ... : ... .. . ... ...
ROW 1F : ... .. . P7B ... ... : ... .. . ... ... ... : ... .. . ... : ... .. 0 ... : ... .. . ... ... : ... .. . ... ... : ... .. . ... ... : ... .. . ... ...
ROW 20 : ... .. . P7A ... ... : G#4 00 A ... ... ... : ... .. . ... : 9-# 00 F ... : ... .. . ... ... : D-3 01 8 P80 ... : F#3 01 8 ... ... : ... .. . ... ...
ROW 21 : ... .. . P7C ... ... : ... .. 8 ... ... ... : ... .. . ... : ... .. C ... : ... .. . ... ... : ... .. 7 ... ... : ... .. 7 ... ... : ... .. . ... ...
ROW 22 : ... .. . P80 ... ... : ... .. . ... ... ... : ... .. . ... : ... .. 6 ... : ... .. . ... ... : ... .. 6 ... ... : ... .. 6 ... ... : ... .. . ... ...
ROW 23 : ... .. . P83 ... ... : F#4 00 5 ... ... ... : ... .. . ... : ... .. 3 ... : ... .. . ... ... : ... .. 5 ... ... : ... .. 5 ... ... : ... .. . ... ...
ROW 24 : ... .. . P86 ... ... : ... .. 4 ... ... ... : ... .. . ... : ... .. 2 ... : ... .. . ... ... : ... .. . ... ... : ... .. . ... ... : ... .. . ... ...
ROW 25 : ... .. . ... ... ... : ... .. . ... ... ... : ... .. . ... : ... .. 0 ... : ... .. . ... ... : ... .. 4 ... ... : ... .. 4 ... ... : ... .. . ... ...
ROW 26 : ... .. . P82 ... ... : E-4 00 A ... ... ... : ... .. . ... : 2-# 00 F ... : ... .. . ... ... : ... .. . ... ... : ... .. . ... ... : ... .. . ... ...
ROW 27 : ... .. . P7F ... ... : ... .. 8 ... ... ... : ... .. . ... : ... .. C ... : ... .. . ... ... : ... .. . ... ... : ... .. . ... ... : ... .. . ... ...
ROW 28 : ... .. . P7B ... ... : ... .. . ... ... ... : ... .. . ... : ... .. 6 ... : ... .. . ... ... : ... .. . ... ... : ... .. . ... ... : ... .. . ... ...
ROW 29 : ... .. . P7A ... ... : G#4 00 5 ... ... ... : ... .. . ... : ... .. 3 ... : ... .. . ... ... : --- .. . P82 ... : --- .. . P7F ... : ... .. . ... ...
ROW 2A : ... .. . P7C ... ... : ... .. 4 ... ... ... : ... .. . ... : ... .. 2 ... : ... .. . ... ... : ... .. . ... ... : ... .. . ... ... : ... .. . ... ...
ROW 2B : ... .. . P80 ... ... : ... .. . ... ... ... : ... .. . ... : ... .. 0 ... : ... .. . ... ... : ... .. . ... ... : ... .. . ... ... : ... .. . ... ...
ROW 2C : ... .. . P83 ... ... : D-4 00 A ... ... ... : ... .. . ... : 1-# 00 F ... : ... .. . ... ... : D-3 01 6 P80 ... : F#3 01 6 P80 ... : ... .. . ... ...
ROW 2D : ... .. . P86 ... ... : ... .. 8 ... ... ... : ... .. . ... : ... .. C ... : ... .. . ... ... : ... .. 4 ... ... : ... .. 4 ... ... : ... .. . ... ...
ROW 2E : ... .. . ... ... ... : ... .. . ... ... ... : ... .. . ... : ... .. 6 ... : ... .. . ... ... : ... .. 3 ... ... : ... .. 3 ... ... : ... .. . ... ...
ROW 2F : ... .. . P83 ... ... : E-4 00 5 ... ... ... : ... .. . ... : ... .. 3 ... : ... .. . ... ... : ... .. 1 ... ... : ... .. 1 ... ... : ... .. . ... ...
ROW 30 : ... .. . P80 ... ... : ... .. 4 ... ... ... : ... .. . ... : ... .. 2 ... : ... .. . ... ... : ... .. 6 ... ... : ... .. 6 ... ... : ... .. . ... ...
ROW 31 : ... .. . P7C ... ... : ... .. . ... ... ... : ... .. . ... : ... .. 0 ... : ... .. . ... ... : ... .. 4 ... ... : ... .. 4 ... ... : ... .. . ... ...
ROW 32 : ... .. . P7A ... ... : ... .. A ... ... ... : ... .. . ... : C-# 00 F ... : ... .. . ... ... : ... .. 3 ... ... : ... .. 3 ... ... : ... .. . ... ...
ROW 33 : ... .. . P7B ... ... : ... .. 8 ... ... ... : ... .. . ... : ... .. C ... : ... .. . ... ... : ... .. 1 ... ... : ... .. 1 ... ... : ... .. . ... ...
ROW 34 : ... .. . P7F ... ... : ... .. . ... ... ... : ... .. . ... : ... .. 6 ... : ... .. . ... ... : ... .. 6 ... ... : ... .. 6 ... ... : ... .. . ... ...
ROW 35 : ... .. . P82 ... ... : D-4 00 5 ... ... ... : ... .. . ... : ... .. 3 ... : ... .. . ... ... : ... .. 4 ... ... : ... .. 4 ... ... : ... .. . ... ...
ROW 36 : ... .. . P86 ... ... : ... .. 4 ... ... ... : ... .. . ... : ... .. 2 ... : ... .. . ... ... : ... .. 3 ... ... : ... .. 3 ... ... : ... .. . ... ...
ROW 37 : ... .. . ... ... ... : ... .. . ... ... ... : ... .. . ... : ... .. 0 ... : ... .. . ... ... : ... .. 1 ... ... : ... .. 1 ... ... : ... .. . ... ...
ROW 38 : ... .. . P83 ... ... : A#4 00 A ... ... ... : C#4 00 . ... : 7-# 00 F ... : ... .. . ... ... : ... .. 8 ... ... : ... .. 8 ... ... : D-0 01 C ... ...
ROW 39 : ... .. . P80 ... ... : ... .. 8 ... ... ... : D#3 00 . ... : ... .. C ... : ... .. . ... ... : ... .. 7 ... ... : ... .. 7 ... ... : ... .. A ... ...
ROW 3A : ... .. . P7C ... ... : ... .. . ... ... ... : G#2 00 . ... : ... .. 6 ... : ... .. . ... ... : ... .. 6 ... ... : ... .. 6 ... ... : ... .. 6 ... ...
ROW 3B : ... .. . P7A ... ... : E-4 00 5 ... ... ... : G-2 00 . ... : ... .. 3 ... : ... .. . ... ... : ... .. 5 ... ... : ... .. 5 ... ... : ... .. . ... ...
ROW 3C : ... .. . P7B ... ... : ... .. 4 ... ... ... : D-2 00 . ... : ... .. 2 ... : ... .. . ... ... : ... .. . ... ... : ... .. . ... ... : ... .. . ... ...
ROW 3D : ... .. . P7E ... ... : ... .. . ... ... ... : ... .. . ... : ... .. 0 ... : ... .. . ... ... : ... .. 4 ... ... : ... .. 4 ... ... : ... .. . ... ...
ROW 3E : ... .. . P82 ... ... : F#4 00 A ... ... ... : ... .. . ... : 1-# 00 F ... : ... .. . ... ... : ... .. . ... ... : ... .. . ... ... : ... .. . ... ...
ROW 3F : ... .. 2 P85 ... ... : ... .. 8 ... ... ... : ... .. . ... : ... .. C ... : ... .. . ... ... : ... .. . ... ... : ... .. . ... ... : ... .. . ... ...
ROW 40 : ... .. . P86 ... ... : ... .. . ... ... ... : ... .. . ... : ... .. 6 ... : ... .. . ... ... : ... .. . ... ... : ... .. . ... ... : ... .. . ... ...
ROW 41 : ... .. . P84 ... ... : A#4 00 5 ... ... ... : ... .. . ... : ... .. 3 ... : ... .. . ... ... : --- .. . P82 ... : --- .. . P7F ... : ... .. . ... ...
ROW 42 : ... .. 1 P80 ... ... : ... .. 4 ... ... ... : ... .. . ... : ... .. 2 ... : ... .. . ... ... : ... .. . ... ... : ... .. . ... ... : ... .. . ... ...
ROW 43 : ... .. . P7D ... ... : ... .. . ... ... ... : ... .. . ... : ... .. 0 ... : ... .. . ... ... : ... .. . ... ... : ... .. . ... ... : ... .. . ... ...
ROW 44 : ... .. . P7A ... ... : E-4 00 A ... ... ... : C#2 00 . P8D : C-# 00 F ... : ... .. . ... ... : D-3 01 6 P80 ... : F#3 01 6 P80 ... : ... .. . P60 ...
ROW 45 : ... .. 0 ... ... ... : ... .. 8 ... ... ... : ... .. . P6D : ... .. C ... : ... .. . ... ... : ... .. 4 ... ... : ... .. 4 ... ... : ... .. . P40 ...
ROW 46 : ... .. . ... ... ... : ... .. . ... ... ... : C-2 00 . P7D : ... .. 6 ... : ... .. . ... ... : ... .. 3 ... ... : ... .. 3 ... ... : ... .. . P20 ...
ROW 47 : ... .. . ... ... ... : F#4 00 5 ... ... ... : B-1 00 . P90 : ... .. 3 ... : ... .. . ... ... : ... .. 1 ... ... : ... .. 1 ... ... : C#0 01 6 PCF ...
ROW 48 : ... .. . ... ... ... : ... .. 4 ... ... ... : ... .. . P70 : ... .. 2 ... : ... .. . ... ... : ... .. 6 ... ... : ... .. 6 ... ... : ... .. . PAF ...
ROW 49 : ... .. . ... ... ... : ... .. . ... ... ... : A#1 00 . P86 : ... .. 0 ... : ... .. . ... ... : ... .. 4 ... ... : ... .. 4 ... ... : ... .. . P8F ...
ROW 4A : ... .. . ... ... ... : ... .. A ... ... ... : ... .. . P66 : 7-# 00 F ... : ... .. . ... ... : ... .. 3 ... ... : ... .. 3 ... ... : ... .. . P6F ...
ROW 4B : ... .. . ... ... ... : ... .. 8 ... ... ... : A-1 00 . P7F : ... .. C ... : ... .. . ... ... : ... .. 1 ... ... : ... .. 1 ... ... : ... .. . P4F ...
ROW 4C : ... .. . ... ... ... : ... .. . ... ... ... : G#1 00 . P9B : ... .. 6 ... : ... .. . ... ... : ... .. 6 ... ... : ... .. 6 ... ... : ... .. . P2F ...
ROW 4D : ... .. . ... ... ... : E-4 00 5 ... ... ... : ... .. . P7B : ... .. 3 ... : ... .. . ... ... : ... .. 4 ... ... : ... .. 4 ... ... : ... .. . P0F ...
ROW 4E : ... .. . ... ... ... : ... .. 4 ... ... ... : G-1 00 . P9B : ... .. 2 ... : ... .. . ... ... : ... .. 3 ... ... : ... .. 3 ... ... : ... .. . PEF ...
ROW 4F : ... .. . ... ... ... : ... .. . ... ... ... : ... .. . P7B : ... .. 0 ... : ... .. . ... ... : ... .. 1 ... ... : ... .. 1 ... ... : ... .. . PCF ...
ROW 50 : ... .. . ... ... ... : C-5 00 A ... ... ... : C#4 00 . P80 : 1-# 00 F ... : ... .. . ... ... : E-3 01 8 ... ... : G#3 01 8 ... ... : D-0 01 C P80 ...
ROW 51 : ... .. . ... ... ... : ... .. 8 ... ... ... : D#3 00 . ... : ... .. C ... : ... .. . ... ... : ... .. 7 ... ... : ... .. 7 ... ... : ... .. A ... ...
ROW 52 : ... .. . ... ... ... : ... .. . ... ... ... : G#2 00 . ... : ... .. 6 ... : ... .. . ... ... : ... .. 6 ... ... : ... .. 6 ... ... : ... .. 6 ... ...
ROW 53 : ... .. . ... ... ... : F#4 00 5 ... ... ... : G-2 00 . ... : ... .. 3 ... : ... .. . ... ... : ... .. 5 ... ... : ... .. 5 ... ... : ... .. . ... ...
ROW 54 : ... .. . ... ... ... : ... .. 4 ... ... ... : D-2 00 . ... : ... .. 2 ... : ... .. . ... ... : ... .. . ... ... : ... .. . ... ... : ... .. . ... ...
ROW 55 : ... .. . ... ... ... : ... .. . ... ... ... : ... .. . ... : ... .. 0 ... : ... .. . ... ... : --- .. . P82 ... : --- .. . P82 ... : ... .. . ... ...
ROW 56 : ... .. . ... ... ... : G#4 00 A ... ... ... : ... .. . ... : B-# 00 F ... : ... .. . ... ... : ... .. . ... ... : ... .. . ... ... : ... .. . ... ...
ROW 57 : ... .. . ... ... ... : ... .. 8 ... ... ... : ... .. . ... : ... .. C ... : ... .. . ... ... : ... .. . ... ... : ... .. . ... ... : ... .. . ... ...
ROW 58 : ... .. . ... ... ... : ... .. . ... ... ... : C#4 00 . ... : ... .. 6 ... : ... .. . ... ... : E-3 01 8 P80 ... : G#3 01 8 P80 ... : ... .. C ... ...
ROW 59 : ... .. . ... ... ... : C-5 00 5 ... ... ... : D#3 00 . ... : ... .. 3 ... : ... .. . ... ... : ... .. 7 ... ... : ... .. 7 ... ... : ... .. A ... ...
ROW 5A : ... .. . ... ... ... : ... .. 4 ... ... ... : G#2 00 . ... : ... .. 2 ... : ... .. . ... ... : ... .. 6 ... ... : ... .. 6 ... ... : ... .. 6 ... ...
ROW 5B : ... .. . ... ... ... : ... .. . ... ... ... : G-2 00 . ... : ... .. 0 ... : ... .. . ... ... : ... .. 5 ... ... : ... .. 5 ... ... : ... .. . ... ...
ROW 5C : ... .. . ... ... ... : F#4 00 A ... ... ... : D-2 00 . ... : 7-# 00 F ... : ... .. . ... ... : --- .. . P82 ... : --- .. . P82 ... : ... .. . ... ...
ROW 5D : ... .. . ... ... ... : ... .. 8 ... ... ... : ... .. . ... : ... .. C ... : ... .. . ... ... : ... .. . ... ... : ... .. . ... ... : ... .. . ... ...
ROW 5E : ... .. . ... ... ... : ... .. . ... ... ... : ... .. . ... : ... .. 6 ... : ... .. . ... ... : ... .. . ... ... : ... .. . ... ... : ... .. . ... ...
ROW 5F : ... .. . ... ... ... : G#4 00 5 ... ... ... : ... .. . ... : ... .. 3 ... : ... .. . ... ... : ... .. . ... ... : ... .. . ... ... : ... .. . ... ...
ROW 60 : ... .. . ... ... ... : ... .. 4 ... ... ... : C#4 00 . ... : ... .. 2 ... : ... .. . ... ... : E-3 01 8 P80 ... : G#3 01 8 P80 ... : ... .. C ... ...
ROW 61 : ... .. . ... ... ... : ... .. . ... ... ... : D#3 00 . ... : ... .. 0 ... : ... .. . ... ... : ... .. 7 ... ... : ... .. 7 ... ... : ... .. A ... ...
ROW 62 : ... .. . ... ... ... : ... .. A ... ... ... : G#2 00 . ... : 1-# 00 F ... : ... .. . ... ... : ... .. 6 ... ... : ... .. 6 ... ... : ... .. 6 ... ...
ROW 63 : ... .. . ... ... ... : ... .. 8 ... ... ... : G-2 00 . ... : ... .. C ... : ... .. . ... ... : ... .. 5 ... ... : ... .. 5 ... ... : ... .. . ... ...
ROW 64 : ... .. . ... ... ... : ... .. . ... ... ... : D-2 00 . ... : ... .. 6 ... : ... .. . ... ... : ... .. . ... ... : ... .. . ... ... : ... .. . ... ...
ROW 65 : ... .. . ... ... ... : F#4 00 5 ... ... ... : ... .. . ... : ... .. 3 ... : ... .. . ... ... : --- .. . P82 ... : --- .. . P82 ... : ... .. . ... ...
ROW 66 : ... .. . ... ... ... : ... .. 4 ... ... ... : ... .. . ... : ... .. 2 ... : ... .. . ... ... : ... .. . ... ... : ... .. . ... ... : ... .. . ... ...
ROW 67 : ... .. . ... ... ... : ... .. . ... ... ... : ... .. . ... : ... .. 0 ... : ... .. . ... ... : ... .. . ... ... : ... .. . ... ... : ... .. . ... ...
ROW 68 : C-4 00 F P80 ... ... : D-5 00 A ... ... ... : C#3 00 . ... : 9-# 00 F ... : ... .. . ... ... : C-3 01 8 P80 ... : E-3 01 8 P80 ... : ... .. C ... ...
ROW 69 : ... .. E ... ... ... : ... .. 8 ... ... ... : D#2 00 . ... : ... .. C ... : ... .. . ... ... : ... .. 7 ... ... : ... .. 7 ... ... : ... .. A ... ...
ROW 6A : ... .. D ... ... ... : ... .. . ... ... ... : G#1 00 . ... : ... .. 6 ... : ... .. . ... ... : ... .. 6 ... ... : ... .. 6 ... ... : ... .. 6 ... ...
ROW 6B : ... .. A ... ... ... : G#4 00 5 ... ... ... : G-1 00 . ... : ... .. 3 ... : ... .. . ... ... : ... .. 5 ... ... : ... .. 5 ... ... : ... .. . ... ...
ROW 6C : ... .. . ... ... ... : ... .. 4 ... ... ... : D-1 00 . ... : ... .. 2 ... : ... .. . ... ... : ... .. . ... ... : ... .. . ... ... : ... .. . ... ...
ROW 6D : ... .. . ... ... ... : ... .. . ... ... ... : ... .. . ... : ... .. 0 ... : ... .. . ... ... : --- .. . P7E ... : --- .. . P82 ... : ... .. . ... ...
ROW 6E : ... .. . ... ... ... : A#4 00 A ... ... ... : ... .. . ... : ... .. F ... : ... .. . ... ... : ... .. . ... ... : ... .. . ... ... : ... .. . ... ...
ROW 6F : ... .. . ... ... ... : ... .. 8 ... ... ... : ... .. . ... : ... .. C ... : ... .. . ... ... : ... .. . ... ... : ... .. . ... ... : ... .. . ... ...
ROW 70 : ... .. . ... ... ... : ... .. . ... ... ... : C#3 00 . ... : ... .. 6 ... : ... .. . ... ... : C-3 01 8 P80 ... : E-3 01 8 P80 ... : ... .. C ... ...
ROW 71 : ... .. . ... ... ... : D-5 00 5 ... ... ... : D#2 00 . ... : ... .. 3 ... : ... .. . ... ... : ... .. 7 ... ... : ... .. 7 ... ... : ... .. A ... ...
ROW 72 : ... .. . ... ... ... : ... .. 4 ... ... ... : G#1 00 . ... : ... .. 2 ... : ... .. . ... ... : ... .. 6 ... ... : ... .. 6 ... ... : ... .. 6 ... ...
ROW 73 : ... .. . ... ... ... : ... .. . ... ... ... : G-1 00 . ... : ... .. 0 ... : ... .. . ... ... : ... .. 5 ... ... : ... .. 5 ... ... : ... .. . ... ...
ROW 74 : ... .. . ... ... ... : G#4 00 A ... ... ... : D-1 00 . ... : 7-# 00 F ... : ... .. . ... ... : --- .. . P7E ... : --- .. . P82 ... : ... .. . ... ...
ROW 75 : ... .. 2 ... ... ... : ... .. 8 ... ... ... : ... .. . ... : ... .. C ... : ... .. . ... ... : ... .. . ... ... : ... .. . ... ... : ... .. . ... ...
ROW 76 : ... .. . ... ... ... : ... .. . ... ... ... : ... .. . ... : ... .. 6 ... : ... .. . ... ... : ... .. . ... ... : ... .. . ... ... : ... .. . ... ...
ROW 77 : ... .. . ... ... ... : A#4 00 5 ... ... ... : ... .. . ... : ... .. 3 ... : ... .. . ... ... : ... .. . ... ... : ... .. . ... ... : ... .. . ... ...
ROW 78 : ... .. 1 ... ... ... : ... .. 4 ... ... ... : C#3 00 . ... : ... .. 2 ... : ... .. . ... ... : C-3 01 8 P80 ... : E-3 01 8 P80 ... : ... .. C ... ...
ROW 79 : ... .. . ... ... ... : ... .. . ... ... ... : D#2 00 . ... : ... .. 0 ... : ... .. . ... ... : ... .. 7 ... ... : ... .. 7 ... ... : ... .. A ... ...
ROW 7A : ... .. F ... ... ... : ... .. A ... ... ... : G#1 00 . ... : ... .. F ... : ... .. . ... ... : ... .. 6 ... ... : ... .. 6 ... ... : ... .. 6 ... ...
ROW 7B : ... .. E ... ... ... : ... .. 8 ... ... ... : G-1 00 . ... : ... .. C ... : ... .. . ... ... : ... .. 5 ... ... : ... .. 5 ... ... : ... .. . ... ...
ROW 7C : ... .. D ... ... ... : ... .. . ... ... ... : D-1 00 . ... : ... .. 6 ... : ... .. . ... ... : ... .. . ... ... : ... .. . ... ... : ... .. . ... ...
ROW 7D : ... .. 0 ... ... ... : G#4 00 5 ... ... ... : ... .. . ... : ... .. 3 ... : ... .. . ... ... : --- .. . P7E ... : --- .. . P82 ... : ... .. . ... ...
ROW 7E : ... .. . ... ... ... : ... .. 4 ... ... ... : ... .. . ... : ... .. 2 ... : ... .. . ... ... : ... .. . ... ... : ... .. . ... ... : ... .. . ... ...
ROW 7F : ... .. . ... ... ... : ... .. . ... ... ... : ... .. . ... : ... .. 0 ... : ... .. . ... ... : ... .. . ... ... : ... .. . ... ... : ... .. . ... ...
ROW 80 : C-5 00 F P80 ... ... : E-5 00 A ... ... ... : --- .. . ... : ... .. F ... : ... .. . ... ... : D-3 01 8 P80 ... : F#3 01 8 P80 ... : --- .. . P7F ...
ROW 81 : ... .. E ... ... ... : ... .. 8 ... ... ... : ... .. . ... : ... .. C ... : ... .. . ... ... : ... .. 7 ... ... : ... .. 7 ... ... : ... .. . ... ...
ROW 82 : ... .. D ... ... ... : ... .. . ... ... ... : ... .. . ... : ... .. 6 ... : ... .. . ... ... : ... .. 6 ... ... : ... .. 6 ... ... : ... .. . ... ...
ROW 83 : ... .. 8 ... ... ... : A#4 00 5 ... ... ... : ... .. . ... : 9-# 00 D ... : ... .. . ... ... : ... .. 5 ... ... : ... .. 5 ... ... : ... .. . ... ...
ROW 84 : ... .. . ... ... ... : ... .. 4 ... ... ... : ... .. . ... : ... .. B ... : ... .. . ... ... : ... .. . ... ... : ... .. . ... ... : ... .. . ... ...
ROW 85 : ... .. . ... ... ... : ... .. . ... ... ... : ... .. . ... : ... .. . ... : ... .. . ... ... : ... .. 4 ... ... : ... .. 4 ... ... : ... .. . ... ...
ROW 86 : ... .. 6 ... ... ... : C-5 00 A ... ... ... : ... .. . ... : ... .. A ... : ... .. . ... ... : ... .. . ... ... : ... .. . ... ... : ... .. . ... ...
ROW 87 : ... .. . ... ... ... : ... .. 8 ... ... ... : ... .. . ... : ... .. 8 ... : ... .. . ... ... : ... .. . ... ... : ... .. . ... ... : ... .. . ... ...
ROW 88 : ... .. . ... ... ... : ... .. . ... ... ... : ... .. . ... : ... .. 7 ... : ... .. . ... ... : ... .. . ... ... : ... .. . ... ... : ... .. . ... ...
ROW 89 : ... .. 4 ... ... ... : E-5 00 5 ... ... ... : ... .. . ... : ... .. 6 ... : ... .. . ... ... : --- .. . P82 ... : --- .. . P7F ... : ... .. . ... ...
ROW 8A : ... .. . ... ... ... : ... .. 4 ... ... ... : ... .. . ... : ... .. . ... : ... .. . ... ... : ... .. . ... ... : ... .. . ... ... : ... .. . ... ...
ROW 8B : ... .. . ... ... ... : ... .. . ... ... ... : ... .. . ... : ... .. 5 ... : ... .. . ... ... : ... .. . ... ... : ... .. . ... ... : ... .. . ... ...
ROW 8C : ... .. 2 ... ... ... : A#4 00 A ... ... ... : ... .. . ... : 7-# 00 F ... : ... .. . ... ... : D-3 01 6 P80 ... : F#3 01 6 P80 ... : ... .. . ... ...
ROW 8D : ... .. . ... ... ... : ... .. 8 ... ... ... : ... .. . ... : ... .. C ... : ... .. . ... ... : ... .. 4 ... ... : ... .. 4 ... ... : ... .. . ... ...
ROW 8E : ... .. . ... ... ... : ... .. . ... ... ... : ... .. . ... : ... .. 6 ... : ... .. . ... ... : ... .. 3 ... ... : ... .. 3 ... ... : ... .. . ... ...
ROW 8F : ... .. 3 ... ... ... : C-5 00 5 ... ... ... : ... .. . ... : ... .. 3 ... : ... .. . ... ... : ... .. 1 ... ... : ... .. 1 ... ... : ... .. . ... ...
ROW 90 : ... .. . ... ... ... : ... .. 4 ... ... ... : ... .. . ... : ... .. F ... : ... .. . ... ... : ... .. 6 ... ... : ... .. 6 ... ... : ... .. . ... ...
ROW 91 : ... .. . ... ... ... : ... .. . ... ... ... : ... .. . ... : ... .. C ... : ... .. . ... ... : ... .. 4 ... ... : ... .. 4 ... ... : ... .. . ... ...
ROW 92 : ... .. 4 ... ... ... : ... .. A ... ... ... : ... .. . ... : ... .. 6 ... : ... .. . ... ... : ... .. 3 ... ... : ... .. 3 ... ... : ... .. . ... ...
ROW 93 : ... .. . ... ... ... : ... .. 8 ... ... ... : ... .. . ... : ... .. 3 ... : ... .. . ... ... : ... .. 1 ... ... : ... .. 1 ... ... : ... .. . ... ...
ROW 94 : ... .. . ... ... ... : ... .. . ... ... ... : ... .. . ... : ... .. F ... : ... .. . ... ... : ... .. 6 ... ... : ... .. 6 ... ... : ... .. . ... ...
ROW 95 : ... .. . ... ... ... : A#4 00 5 ... ... ... : ... .. . ... : ... .. C ... : ... .. . ... ... : ... .. 4 ... ... : ... .. 4 ... ... : ... .. . ... ...
ROW 96 : ... .. . ... ... ... : ... .. 4 ... ... ... : ... .. . ... : ... .. 6 ... : ... .. . ... ... : ... .. 3 ... ... : ... .. 3 ... ... : ... .. . ... ...
ROW 97 : ... .. . ... ... ... : ... .. . ... ... ... : ... .. . ... : ... .. 3 ... : ... .. . ... ... : ... .. 1 ... ... : ... .. 1 ... ... : ... .. . ... ...
ROW 98 : ... .. 5 P82 ... ... : F#5 00 A ... ... ... : C#5 00 . ... : ... .. F ... : ... .. . ... ... : A#2 01 8 ... ... : D-3 01 8 ... ... : D-1 01 C P80 ...
ROW 99 : ... .. . P83 ... ... : ... .. 8 ... ... ... : D#4 00 . ... : ... .. C ... : ... .. . ... ... : ... .. 7 ... ... : ... .. 7 ... ... : ... .. A ... ...
ROW 9A : ... .. . ... ... ... : ... .. . ... ... ... : G#3 00 . ... : ... .. 6 ... : ... .. . ... ... : ... .. 6 ... ... : ... .. 6 ... ... : ... .. 6 ... ...
ROW 9B : ... .. 6 P81 ... ... : C-5 00 5 ... ... ... : G-3 00 . ... : 9-# 00 D ... : ... .. . ... ... : ... .. 5 ... ... : ... .. 5 ... ... : ... .. . ... ...
ROW 9C : ... .. . P7F ... ... : ... .. 4 ... ... ... : D-3 00 . ... : ... .. B ... : ... .. . ... ... : ... .. . ... ... : ... .. . ... ... : ... .. . ... ...
ROW 9D : B-4 00 6 P83 ... ... : ... .. . ... ... ... : ... .. . ... : ... .. . ... : ... .. . ... ... : ... .. 4 ... ... : ... .. 4 ... ... : ... .. . ... ...
ROW 9E : ... .. . ... ... ... : D-5 00 A ... ... ... : ... .. . ... : ... .. A ... : ... .. . ... ... : ... .. . ... ... : ... .. . ... ... : ... .. . ... ...
ROW 9F : C-5 00 6 P7E ... ... : ... .. 8 ... ... ... : ... .. . ... : ... .. 8 ... : ... .. . ... ... : ... .. . ... ... : ... .. . ... ... : ... .. . ... ...
ROW A0 : ... .. . P80 ... ... : ... .. . ... ... ... : ... .. . ... : ... .. 7 ... : ... .. . ... ... : ... .. . ... ... : ... .. . ... ... : ... .. . ... ...
ROW A1 : ... .. 7 P82 ... ... : F#5 00 5 ... ... ... : ... .. . ... : ... .. 6 ... : ... .. . ... ... : --- .. . P82 ... : --- .. . P82 ... : ... .. . ... ...
ROW A2 : ... .. . P83 ... ... : ... .. 4 ... ... ... : ... .. . ... : ... .. . ... : ... .. . ... ... : ... .. . ... ... : ... .. . ... ... : ... .. . ... ...
ROW A3 : ... .. . ... ... ... : ... .. . ... ... ... : ... .. . ... : ... .. 5 ... : ... .. . ... ... : ... .. . ... ... : ... .. . ... ... : ... .. . ... ...
ROW A4 : ... .. 8 P81 ... ... : C-5 00 A ... ... ... : C#3 00 . P77 : 7-# 00 F ... : ... .. . ... ... : A#2 01 6 P80 ... : D-3 01 6 P80 ... : ... .. . P60 ...
ROW A5 : ... .. . P80 ... ... : ... .. 8 ... ... ... : B-2 00 . P88 : ... .. C ... : ... .. . ... ... : ... .. 4 ... ... : ... .. 4 ... ... : C#1 01 6 PA8 ...
ROW A6 : B-4 00 8 P83 ... ... : ... .. . ... ... ... : A#2 00 . P83 : ... .. 6 ... : ... .. . ... ... : ... .. 3 ... ... : ... .. 3 ... ... : ... .. . P88 ...
ROW A7 : ... .. . ... ... ... : D-5 00 5 ... ... ... : A-2 00 . P7F : ... .. 3 ... : ... .. . ... ... : ... .. 1 ... ... : ... .. 1 ... ... : ... .. . P68 ...
ROW A8 : C-5 00 8 P7E ... ... : ... .. 4 ... ... ... : G#2 00 . P7E : ... .. F ... : ... .. . ... ... : ... .. 6 ... ... : ... .. 6 ... ... : C-1 01 6 PB6 ...
ROW A9 : ... .. . P80 ... ... : ... .. . ... ... ... : G-2 00 . ... : ... .. C ... : ... .. . ... ... : ... .. 4 ... ... : ... .. 4 ... ... : ... .. . P96 ...
ROW AA : ... .. A P81 ... ... : ... .. A ... ... ... : F#2 00 . P80 : ... .. 6 ... : ... .. . ... ... : ... .. 3 ... ... : ... .. 3 ... ... : ... .. . P76 ...
ROW AB : ... .. . P83 ... ... : ... .. 8 ... ... ... : F-2 00 . P84 : ... .. 3 ... : ... .. . ... ... : ... .. 1 ... ... : ... .. 1 ... ... : ... .. . P56 ...
ROW AC : ... .. . ... ... ... : ... .. . ... ... ... : E-2 00 . P8A : ... .. F ... : ... .. . ... ... : ... .. 6 ... ... : ... .. 6 ... ... : B-0 01 6 PAA ...
ROW AD : ... .. . P81 ... ... : C-5 00 5 ... ... ... : D#2 00 . P92 : ... .. C ... : ... .. . ... ... : ... .. 4 ... ... : ... .. 4 ... ... : ... .. . P8A ...
ROW AE : ... .. . P80 ... ... : ... .. 4 ... ... ... : ... .. . P72 : ... .. 6 ... : ... .. . ... ... : ... .. 3 ... ... : ... .. 3 ... ... : ... .. . P6A ...
ROW AF : ... .. . P7E ... ... : ... .. . ... ... ... : D-2 00 . P7D : ... .. 3 ... : ... .. . ... ... : ... .. 1 ... ... : ... .. 1 ... ... : ... .. . P4A ...
ROW B0 : B-4 00 A P83 ... ... : G#5 00 A ... ... ... : C#5 00 . P80 : ... .. F ... : ... .. . ... ... : C-3 01 8 ... ... : E-3 01 8 ... ... : D-1 01 C P80 ...
ROW B1 : ... .. . ... ... ... : ... .. 8 ... ... ... : D#4 00 . ... : ... .. C ... : ... .. . ... ... : ... .. 7 ... ... : ... .. 7 ... ... : ... .. A ... ...
ROW B2 : C-5 00 A P80 ... ... : ... .. . ... ... ... : G#3 00 . ... : ... .. 6 ... : ... .. . ... ... : ... .. 6 ... ... : ... .. 6 ... ... : ... .. 6 ... ...
ROW B3 : ... .. . P81 ... ... : D-5 00 5 ... ... ... : G-3 00 . ... : ... .. 3 ... : ... .. . ... ... : ... .. 5 ... ... : ... .. 5 ... ... : ... .. . ... ...
ROW B4 : ... .. . P83 ... ... : ... .. 4 ... ... ... : D-3 00 . ... : ... .. 2 ... : ... .. . ... ... : ... .. . ... ... : ... .. . ... ... : ... .. . ... ...
ROW B5 : ... .. . ... ... ... : ... .. . ... ... ... : ... .. . ... : ... .. 0 ... : ... .. . ... ... : --- .. . P7E ... : --- .. . P82 ... : ... .. . ... ...
ROW B6 : ... .. . P82 ... ... : E-5 00 A ... ... ... : ... .. . ... : ... .. . ... : ... .. . ... ... : ... .. . ... ... : ... .. . ... ... : ... .. . ... ...
ROW B7 : ... .. . P80 ... ... : ... .. 8 ... ... ... : ... .. . ... : ... .. . ... : ... .. . ... ... : ... .. . ... ... : ... .. . ... ... : ... .. . ... ...
ROW B8 : ... .. . P7E ... ... : ... .. . ... ... ... : C#5 00 . ... : ... .. F ... : ... .. . ... ... : C-3 01 8 P80 ... : E-3 01 8 P80 ... : ... .. C ... ...
ROW B9 : B-4 00 A P83 ... ... : G#5 00 5 ... ... ... : D#4 00 . ... : ... .. C ... : ... .. . ... ... : ... .. 7 ... ... : ... .. 7 ... ... : ... .. A ... ...
ROW BA : ... .. . ... ... ... : ... .. 4 ... ... ... : G#3 00 . ... : ... .. 6 ... : ... .. . ... ... : ... .. 6 ... ... : ... .. 6 ... ... : ... .. 6 ... ...
ROW BB : C-5 00 A P7F ... ... : ... .. . ... ... ... : G-3 00 . ... : ... .. 3 ... : ... .. . ... ... : ... .. 5 ... ... : ... .. 5 ... ... : ... .. . ... ...
ROW BC : ... .. . P81 ... ... : D-5 00 A ... ... ... : D-3 00 . ... : ... .. 2 ... : ... .. . ... ... : --- .. . P7E ... : --- .. . P82 ... : ... .. . ... ...
ROW BD : ... .. . P83 ... ... : ... .. 8 ... ... ... : ... .. . ... : ... .. 0 ... : ... .. . ... ... : ... .. . ... ... : ... .. . ... ... : ... .. . ... ...
ROW BE : ... .. . ... ... ... : ... .. . ... ... ... : ... .. . ... : ... .. . ... : ... .. . ... ... : ... .. . ... ... : ... .. . ... ... : ... .. . ... ...
ROW BF : ... .. . P82 ... ... : E-5 00 5 ... ... ... : ... .. . ... : ... .. . ... : ... .. . ... ... : ... .. . ... ... : ... .. . ... ... : ... .. . ... ...
ROW C0 : ... .. . P80 ... ... : ... .. 4 ... ... ... : C#5 00 . ... : ... .. F ... : ... .. . ... ... : C-3 01 8 P80 ... : E-3 01 8 P80 ... : ... .. C ... ...
ROW C1 : ... .. . P7E ... ... : ... .. . ... ... ... : D#4 00 . ... : ... .. C ... : ... .. . ... ... : ... .. 7 ... ... : ... .. 7 ... ... : ... .. A ... ...
ROW C2 : B-4 00 A P83 ... ... : ... .. A ... ... ... : G#3 00 . ... : ... .. 6 ... : ... .. . ... ... : ... .. 6 ... ... : ... .. 6 ... ... : ... .. 6 ... ...
ROW C3 : ... .. . ... ... ... : ... .. 8 ... ... ... : G-3 00 . ... : ... .. 3 ... : ... .. . ... ... : ... .. 5 ... ... : ... .. 5 ... ... : ... .. . ... ...
ROW C4 : C-5 00 A P7F ... ... : ... .. . ... ... ... : D-3 00 . ... : ... .. 2 ... : ... .. . ... ... : ... .. . ... ... : ... .. . ... ... : ... .. . ... ...
ROW C5 : ... .. . P80 ... ... : D-5 00 5 ... ... ... : ... .. . ... : ... .. 0 ... : ... .. . ... ... : --- .. . P7E ... : --- .. . P82 ... : ... .. . ... ...
ROW C6 : ... .. . P83 ... ... : ... .. 4 ... ... ... : ... .. . ... : ... .. . ... : ... .. . ... ... : ... .. . ... ... : ... .. . ... ... : ... .. . ... ...
ROW C7 : ... .. . ... ... ... : ... .. . ... ... ... : ... .. . ... : ... .. . ... : ... .. . ... ... : ... .. . ... ... : ... .. . ... ... : ... .. . ... ...
ROW C8 : ... .. . P82 ... ... : A#5 00 A ... ... ... : F#5 00 . ... : ... .. F ... : ... .. . ... ... : G#2 01 8 P80 ... : C-3 01 8 P80 ... : G-1 01 C ... ...
ROW C9 : ... .. . P80 ... ... : ... .. 8 ... ... ... : G#4 00 . ... : ... .. C ... : ... .. . ... ... : ... .. 7 ... ... : ... .. 7 ... ... : ... .. A ... ...
ROW CA : ... .. . P7F ... ... : ... .. . ... ... ... : C#4 00 . ... : ... .. 6 ... : ... .. . ... ... : ... .. 6 ... ... : ... .. 6 ... ... : ... .. 6 ... ...
ROW CB : B-4 00 A P83 ... ... : E-5 00 5 ... ... ... : C-4 00 . ... : ... .. 3 ... : ... .. . ... ... : ... .. 5 ... ... : ... .. 5 ... ... : ... .. . ... ...
ROW CC : ... .. . ... ... ... : ... .. 4 ... ... ... : G-3 00 . ... : ... .. 2 ... : ... .. . ... ... : ... .. . ... ... : ... .. . ... ... : ... .. . ... ...
ROW CD : C-5 00 A P7F ... ... : ... .. . ... ... ... : ... .. . ... : ... .. 0 ... : ... .. . ... ... : --- .. . ... ... : --- .. . P7E ... : ... .. . ... ...
ROW CE : ... .. . P80 ... ... : F#5 00 A ... ... ... : ... .. . ... : ... .. . ... : ... .. . ... ... : ... .. . ... ... : ... .. . ... ... : ... .. . ... ...
ROW CF : ... .. . P82 ... ... : ... .. 8 ... ... ... : ... .. . ... : ... .. . ... : ... .. . ... ... : ... .. . ... ... : ... .. . ... ... : ... .. . ... ...
ROW D0 : ... .. . P83 ... ... : ... .. . ... ... ... : B-4 00 . ... : ... .. F ... : ... .. . ... ... : G#2 01 8 ... ... : C-3 01 8 P80 ... : C-1 01 C ... ...
ROW D1 : ... .. . ... ... ... : A#5 00 5 ... ... ... : C#4 00 . ... : ... .. C ... : ... .. . ... ... : ... .. 7 ... ... : ... .. 7 ... ... : ... .. A ... ...
ROW D2 : ... .. 2 P80 ... ... : ... .. 4 ... ... ... : F#3 00 . ... : ... .. 6 ... : ... .. . ... ... : ... .. 6 ... ... : ... .. 6 ... ... : ... .. 6 ... ...
ROW D3 : ... .. . P7F ... ... : ... .. . ... ... ... : F-3 00 . ... : ... .. 3 ... : ... .. . ... ... : ... .. 5 ... ... : ... .. 5 ... ... : ... .. . ... ...
ROW D4 : B-4 00 2 P83 ... ... : E-5 00 A ... ... ... : C-3 00 . ... : ... .. 2 ... : ... .. . ... ... : --- .. . ... ... : --- .. . P7E ... : ... .. . ... ...
ROW D5 : ... .. 1 ... ... ... : ... .. 8 ... ... ... : ... .. . ... : ... .. 0 ... : ... .. . ... ... : ... .. . ... ... : ... .. . ... ... : ... .. . ... ...
ROW D6 : C-5 00 1 P7E ... ... : ... .. . ... ... ... : ... .. . ... : ... .. . ... : ... .. . ... ... : ... .. . ... ... : ... .. . ... ... : ... .. . ... ...
ROW D7 : ... .. . P80 ... ... : F#5 00 5 ... ... ... : ... .. . ... : ... .. . ... : ... .. . ... ... : ... .. . ... ... : ... .. . ... ... : ... .. . ... ...
ROW D8 : ... .. 0 ... ... ... : ... .. 4 ... ... ... : F#5 00 . ... : ... .. F ... : ... .. . ... ... : G#2 01 8 ... ... : C-3 01 8 P80 ... : G-1 01 C ... ...
ROW D9 : ... .. . ... ... ... : ... .. . ... ... ... : G#4 00 . ... : ... .. C ... : ... .. . ... ... : ... .. 7 ... ... : ... .. 7 ... ... : ... .. A ... ...
ROW DA : ... .. . ... ... ... : ... .. A ... ... ... : C#4 00 . ... : ... .. 6 ... : ... .. . ... ... : ... .. 6 ... ... : ... .. 6 ... ... : ... .. 6 ... ...
ROW DB : ... .. . ... ... ... : ... .. 8 ... ... ... : C-4 00 . ... : ... .. 3 ... : ... .. . ... ... : ... .. 5 ... ... : ... .. 5 ... ... : ... .. . ... ...
ROW DC : ... .. . ... ... ... : ... .. . ... ... ... : G-3 00 . ... : ... .. 2 ... : ... .. . ... ... : ... .. . ... ... : ... .. . ... ... : ... .. . ... ...
ROW DD : ... .. . ... ... ... : E-5 00 5 ... ... ... : ... .. . ... : ... .. 0 ... : ... .. . ... ... : --- .. . ... ... : --- .. . P7E ... : ... .. . ... ...
ROW DE : ... .. . ... ... ... : ... .. 4 ... ... ... : ... .. . ... : ... .. . ... : ... .. . ... ... : ... .. . ... ... : ... .. . ... ... : ... .. . ... ...
ROW DF : ... .. . ... ... ... : ... .. . ... ... ... : ... .. . ... : ... .. . ... : ... .. . ... ... : ... .. . ... ... : ... .. . ... ... : ... .. . ... ...
ROW E0 : F#1 00 F P80 ... ... : C-6 00 8 ... ... ... : F-5 00 . ... : ... .. . ... : ... .. . ... ... : ... .. . ... ... : ... .. . ... ... : F#0 01 F ... ...
ROW E1 : ... .. E ... ... ... : ... .. 7 ... ... ... : G-4 00 . ... : ... .. . ... : ... .. . ... ... : ... .. . ... ... : ... .. . ... ... : ... .. D ... ...
ROW E2 : ... .. D ... ... ... : ... .. . ... ... ... : C-4 00 . ... : ... .. . ... : ... .. . ... ... : ... .. . ... ... : ... .. . ... ... : ... .. 8 ... ...
ROW E3 : ... .. 9 ... ... ... : ... .. 6 ... ... ... : B-3 00 . ... : ... .. . ... : ... .. . ... ... : ... .. . ... ... : ... .. . ... ... : ... .. 7 ... ...
ROW E4 : ... .. . ... ... ... : ... .. 5 ... ... ... : F#3 00 . ... : ... .. . ... : ... .. . ... ... : ... .. . ... ... : ... .. . ... ... : ... .. . ... ...
ROW E5 : ... .. . ... ... ... : ... .. 4 ... ... ... : ... .. . ... : ... .. . ... : ... .. . ... ... : ... .. . ... ... : ... .. . ... ... : ... .. . ... ...
ROW E6 : ... .. 8 ... ... ... : A#5 00 8 ... ... ... : ... .. . ... : ... .. . ... : ... .. . ... ... : ... .. . ... ... : ... .. . ... ... : ... .. 6 ... ...
ROW E7 : ... .. . ... ... ... : ... .. 7 ... ... ... : ... .. . ... : ... .. . ... : ... .. . ... ... : ... .. . ... ... : ... .. . ... ... : ... .. . ... ...
ROW E8 : ... .. . ... ... ... : ... .. . ... ... ... : ... .. . ... : ... .. . ... : ... .. . ... ... : ... .. . ... ... : ... .. . ... ... : ... .. . ... ...
ROW E9 : ... .. . ... ... ... : G#5 00 6 ... ... ... : ... .. . ... : ... .. . ... : ... .. . ... ... : ... .. . ... ... : ... .. . ... ... : ... .. . ... ...
ROW EA : ... .. . ... ... ... : ... .. 5 ... ... ... : ... .. . ... : ... .. . ... : ... .. . ... ... : ... .. . ... ... : ... .. . ... ... : ... .. . ... ...
ROW EB : ... .. . ... ... ... : ... .. . ... ... ... : ... .. . ... : ... .. . ... : ... .. . ... ... : ... .. . ... ... : ... .. . ... ... : ... .. . ... ...
ROW EC : ... .. . ... ... ... : F#5 00 6 ... ... ... : ... .. . ... : 6-# 00 4 ... : ... .. . ... ... : ... .. . ... ... : ... .. . ... ... : ... .. . ... ...
ROW ED : ... .. . ... ... ... : ... .. 5 ... ... ... : ... .. . ... : ... .. 3 ... : ... .. . ... ... : ... .. . ... ... : ... .. . ... ... : ... .. . ... ...
ROW EE : ... .. . ... ... ... : ... .. . ... ... ... : ... .. . ... : ... .. 1 ... : ... .. . ... ... : ... .. . ... ... : ... .. . ... ... : ... .. . ... ...
ROW EF : ... .. 7 ... ... ... : E-5 00 5 ... ... ... : E-3 00 . P85 : 7-# 00 5 ... : ... .. . ... ... : ... .. . ... ... : ... .. . ... ... : ... .. 5 ... ...
ROW F0 : ... .. . ... ... ... : ... .. 4 ... ... ... : D#3 00 . P7A : ... .. 4 ... : ... .. . ... ... : ... .. . ... ... : ... .. . ... ... : ... .. . ... ...
ROW F1 : ... .. . ... ... ... : ... .. . ... ... ... : C#3 00 . P86 : ... .. 2 ... : ... .. . ... ... : ... .. . ... ... : ... .. . ... ... : ... .. . ... ...
ROW F2 : ... .. 6 ... ... ... : D-5 00 4 ... ... ... : C-3 00 . P7E : 8-# 00 7 ... : ... .. . ... ... : ... .. . ... ... : ... .. . ... ... : ... .. . ... ...
ROW F3 : ... .. . ... ... ... : ... .. 3 ... ... ... : B-2 00 . P77 : ... .. 5 ... : ... .. . ... ... : ... .. . ... ... : ... .. . ... ... : ... .. . ... ...
ROW F4 : ... .. . ... ... ... : ... .. . ... ... ... : A-2 00 . P8E : ... .. 2 ... : ... .. . ... ... : ... .. . ... ... : ... .. . ... ... : ... .. . ... ...
ROW F5 : ... .. . ... ... ... : C-5 00 3 ... ... ... : G#2 00 . P8D : 9-# 00 8 ... : ... .. . ... ... : ... .. . ... ... : ... .. . ... ... : ... .. . ... ...
ROW F6 : ... .. . ... ... ... : ... .. 2 ... ... ... : G-2 00 . ... : ... .. 6 ... : ... .. . ... ... : ... .. . ... ... : ... .. . ... ... : ... .. . ... ...
ROW F7 : ... .. . ... ... ... : ... .. . ... ... ... : F#2 00 . P8F : ... .. 3 ... : ... .. . ... ... : ... .. . ... ... : ... .. . ... ... : ... .. . ... ...
ROW F8 : G-3 00 A ... ... ... : G-4 00 A ... ... ... : F-4 00 . P80 : A-# 00 A ... : ... .. . ... ... : E-4 01 6 ... ... : C-4 01 6 P80 ... : ... .. 4 ... ...
ROW F9 : ... .. 9 ... ... ... : ... .. 9 ... ... ... : G-3 00 . ... : ... .. . ... : ... .. . ... ... : ... .. . ... ... : ... .. . ... ... : ... .. . ... ...
ROW FA : ... .. 8 ... ... ... : ... .. 8 ... ... ... : C-3 00 . ... : ... .. . ... : ... .. . ... ... : ... .. 5 ... ... : ... .. 5 ... ... : ... .. . ... ...
ROW FB : ... .. 6 ... ... ... : ... .. 6 ... ... ... : B-2 00 . ... : ... .. 8 ... : ... .. . ... ... : ... .. 4 ... ... : ... .. 4 ... ... : ... .. . ... ...
ROW FC : ... .. . ... ... ... : ... .. . ... ... ... : F#2 00 . ... : ... .. . ... : ... .. . ... ... : ... .. . ... ... : ... .. . ... ... : ... .. . ... ...
ROW FD : ... .. . ... ... ... : ... .. . ... ... ... : ... .. . ... : ... .. . ... : ... .. . ... ... : ... .. . ... ... : ... .. . ... ... : ... .. . ... ...
ROW FE : ... .. . ... ... ... : ... .. . ... ... ... : ... .. . ... : ... .. 6 ... : ... .. . ... ... : ... .. 3 ... ... : ... .. 3 ... ... : ... .. . ... ...
ROW FF : ... .. 1 ... ... ... : ... .. 1 ... ... ... : ... .. . ... : ... .. . ... : ... .. . ... ... : ... .. . ... ... : ... .. . ... ... : ... .. . ... ...

PATTERN 0B
ROW 00 : ... .. . ... ... ... : ... .. . ... ... ... : ... .. . ... : ... .. . ... : ... .. . ... ... : ... .. 2 ... ... : ... .. 2 ... ... : ... .. . ... ...
ROW 01 : ... .. . ... ... ... : ... .. . ... ... ... : ... .. . ... : ... .. 4 ... : ... .. . ... ... : ... .. . ... ... : ... .. . ... ... : ... .. 3 ... ...
ROW 02 : ... .. . ... ... ... : ... .. . ... ... ... : ... .. . ... : ... .. . ... : ... .. . ... ... : ... .. . ... ... : ... .. . ... ... : ... .. . ... ...
ROW 03 : ... .. . ... ... ... : ... .. . ... ... ... : ... .. . ... : ... .. . ... : ... .. . ... ... : ... .. . ... ... : ... .. . ... ... : ... .. . ... ...
ROW 04 : ... .. 8 ... ... ... : ... .. 8 ... ... ... : ... .. . ... : 9-# 00 8 ... : ... .. . ... ... : ... .. 5 ... ... : ... .. 5 ... ... : ... .. . ... ...
ROW 05 : ... .. 5 ... ... ... : ... .. 5 ... ... ... : ... .. . ... : ... .. 6 ... : ... .. . ... ... : ... .. 3 ... ... : ... .. 3 ... ... : ... .. . ... ...
ROW 06 : ... .. 3 ... ... ... : ... .. 3 ... ... ... : ... .. . ... : ... .. 3 ... : ... .. . ... ... : ... .. 2 ... ... : ... .. 2 ... ... : ... .. . ... ...
ROW 07 : ... .. 1 ... ... ... : ... .. 1 ... ... ... : ... .. . ... : ... .. 4 ... : ... .. . ... ... : ... .. 1 ... ... : ... .. 1 ... ... : ... .. 2 ... ...
ROW 08 : ... .. 8 ... ... ... : ... .. 8 ... ... ... : ... .. . ... : ... .. 3 ... : ... .. . ... ... : ... .. 5 ... ... : ... .. 5 ... ... : ... .. . ... ...
ROW 09 : ... .. 5 ... ... ... : ... .. 5 ... ... ... : ... .. . ... : ... .. 1 ... : ... .. . ... ... : ... .. 3 ... ... : ... .. 3 ... ... : ... .. . ... ...
ROW 0A : ... .. 3 ... ... ... : ... .. 3 ... ... ... : ... .. . ... : ... .. 8 ... : ... .. . ... ... : ... .. 2 ... ... : ... .. 2 ... ... : ... .. . ... ...
ROW 0B : ... .. 1 ... ... ... : ... .. 1 ... ... ... : ... .. . ... : ... .. 6 ... : ... .. . ... ... : ... .. 1 ... ... : ... .. 1 ... ... : ... .. . ... ...
ROW 0C : ... .. 8 ... ... ... : ... .. 8 ... ... ... : ... .. . ... : ... .. 3 ... : ... .. . ... ... : ... .. 5 ... ... : ... .. 5 ... ... : ... .. . ... ...
ROW 0D : ... .. 5 ... ... ... : ... .. 5 ... ... ... : ... .. . ... : ... .. 1 ... : ... .. . ... ... : ... .. 3 ... ... : ... .. 3 ... ... : ... .. . ... ...
ROW 0E : ... .. 3 ... ... ... : ... .. 3 ... ... ... : ... .. . ... : ... .. . ... : ... .. . ... ... : ... .. 2 ... ... : ... .. 2 ... ... : ... .. . ... ...
ROW 0F : ... .. 1 ... ... ... : ... .. 1 ... ... ... : ... .. . ... : ... .. 0 ... : ... .. . ... ... : ... .. 1 ... ... : ... .. 1 ... ... : ... .. . ... ...
ROW 10 : ... .. A ... ... ... : ... .. A ... ... ... : F-5 00 . ... : ... .. F ... : ... .. . ... ... : ... .. 6 ... ... : ... .. 6 ... ... : ... .. 1 ... ...
ROW 11 : ... .. 9 ... ... ... : ... .. 9 ... ... ... : G-4 00 . ... : ... .. C ... : ... .. . ... ... : ... .. . ... ... : ... .. . ... ... : ... .. . ... ...
ROW 12 : ... .. 8 ... ... ... : ... .. 8 ... ... ... : C-4 00 . ... : ... .. 6 ... : ... .. . ... ... : ... .. 5 ... ... : ... .. 5 ... ... : ... .. . ... ...
ROW 13 : ... .. 6 ... ... ... : ... .. 6 ... ... ... : B-3 00 . ... : ... .. 3 ... : ... .. . ... ... : ... .. 4 ... ... : ... .. 4 ... ... : ... .. . ... ...
ROW 14 : ... .. . ... ... ... : ... .. . ... ... ... : F#3 00 . ... : ... .. 2 ... : ... .. . ... ... : ... .. . ... ... : ... .. . ... ... : ... .. . ... ...
ROW 15 : ... .. . ... ... ... : ... .. . ... ... ... : ... .. . ... : ... .. 0 ... : ... .. . ... ... : ... .. . ... ... : ... .. . ... ... : ... .. . ... ...
ROW 16 : ... .. . ... ... ... : ... .. . ... ... ... : ... .. . ... : ... .. . ... : ... .. . ... ... : ... .. . ... ... : ... .. . ... ... : ... .. . ... ...
ROW 17 : ... .. . ... ... ... : ... .. . ... ... ... : ... .. . ... : ... .. . ... : ... .. . ... ... : ... .. 3 ... ... : ... .. 3 ... ... : ... .. . ... ...
ROW 18 : ... .. A ... ... ... : ... .. A ... ... ... : F-5 00 . ... : ... .. C ... : ... .. . ... ... : ... .. 6 ... ... : ... .. 6 ... ... : ... .. . ... ...
ROW 19 : ... .. 9 ... ... ... : ... .. 9 ... ... ... : G-4 00 . ... : ... .. 9 ... : ... .. . ... ... : ... .. . ... ... : ... .. . ... ... : ... .. . ... ...
ROW 1A : ... .. 8 ... ... ... : ... .. 8 ... ... ... : C-4 00 . ... : ... .. 4 ... : ... .. . ... ... : ... .. 5 ... ... : ... .. 5 ... ... : ... .. . ... ...
ROW 1B : ... .. 6 ... ... ... : ... .. 6 ... ... ... : B-3 00 . ... : ... .. 2 ... : ... .. . ... ... : ... .. 4 ... ... : ... .. 4 ... ... : ... .. . ... ...
ROW 1C : ... .. . ... ... ... : ... .. . ... ... ... : F#3 00 . ... : ... .. 1 ... : ... .. . ... ... : ... .. 3 ... ... : ... .. 3 ... ... : ... .. . ... ...
ROW 1D : ... .. 1 ... ... ... : ... .. 1 ... ... ... : ... .. . ... : ... .. 0 ... : ... .. . ... ... : ... .. . ... ... : ... .. . ... ... : ... .. . ... ...
ROW 1E : ... .. . ... ... ... : ... .. . ... ... ... : ... .. . ... : ... .. . ... : ... .. . ... ... : ... .. 2 ... ... : ... .. 2 ... ... : ... .. . ... ...
ROW 1F : ... .. . ... ... ... : ... .. . ... ... ... : ... .. . ... : ... .. . ... : ... .. . ... ... : ... .. . ... ... : ... .. . ... ... : ... .. . ... ...
ROW 20 : ... .. A ... ... ... : ... .. A ... ... ... : F-5 00 . ... : ... .. F ... : ... .. . ... ... : ... .. 6 ... ... : ... .. 6 ... ... : ... .. . ... ...
ROW 21 : ... .. 9 ... ... ... : ... .. 9 ... ... ... : G-4 00 . ... : ... .. C ... : ... .. . ... ... : ... .. . ... ... : ... .. . ... ... : ... .. . ... ...
ROW 22 : ... .. 8 ... ... ... : ... .. 8 ... ... ... : C-4 00 . ... : ... .. 6 ... : ... .. . ... ... : ... .. 5 ... ... : ... .. 5 ... ... : ... .. . ... ...
ROW 23 : ... .. 6 ... ... ... : ... .. 6 ... ... ... : B-3 00 . ... : ... .. 3 ... : ... .. . ... ... : ... .. 4 ... ... : ... .. 4 ... ... : ... .. . ... ...
ROW 24 : ... .. . ... ... ... : ... .. . ... ... ... : F#3 00 . ... : ... .. 2 ... : ... .. . ... ... : ... .. . ... ... : ... .. . ... ... : ... .. . ... ...
ROW 25 : ... .. . ... ... ... : ... .. . ... ... ... : ... .. . ... : ... .. 0 ... : ... .. . ... ... : ... .. . ... ... : ... .. . ... ... : ... .. . ... ...
ROW 26 : ... .. . ... ... ... : ... .. . ... ... ... : ... .. . ... : ... .. . ... : ... .. . ... ... : ... .. . ... ... : ... .. . ... ... : ... .. . ... ...
ROW 27 : ... .. . ... ... ... : ... .. . ... ... ... : ... .. . ... : ... .. . ... : ... .. . ... ... : ... .. 3 ... ... : ... .. 3 ... ... : ... .. . ... ...
ROW 28 : ... .. . ... ... ... : ... .. 2 ... ... ... : F-3 00 . ... : ... .. F ... : ... .. . ... ... : ... .. 1 ... ... : ... .. 1 ... ... : F#1 01 F ... ...
ROW 29 : ... .. 1 ... ... ... : ... .. 1 ... ... ... : G-2 00 . ... : ... .. C ... : ... .. . ... ... : ... .. . ... ... : ... .. . ... ... : ... .. D ... ...
ROW 2A : ... .. . ... ... ... : ... .. . ... ... ... : C-2 00 . ... : ... .. 6 ... : ... .. . ... ... : ... .. . ... ... : ... .. . ... ... : ... .. 8 ... ...
ROW 2B : ... .. . ... ... ... : ... .. . ... ... ... : B-1 00 . ... : ... .. 3 ... : ... .. . ... ... : ... .. . ... ... : ... .. . ... ... : ... .. . ... ...
ROW 2C : ... .. . ... ... ... : ... .. . ... ... ... : F#1 00 . ... : ... .. 2 ... : ... .. . ... ... : ... .. . ... ... : ... .. . ... ... : ... .. . ... ...
ROW 2D : ... .. . ... ... ... : ... .. . ... ... ... : ... .. . ... : ... .. 0 ... : ... .. . ... ... : ... .. . ... ... : ... .. . ... ... : ... .. . ... ...
ROW 2E : ... .. . ... ... ... : ... .. . ... ... ... : ... .. . ... : ... .. . ... : ... .. . ... ... : ... .. . ... ... : ... .. . ... ... : ... .. . ... ...
ROW 2F : ... .. 0 ... ... ... : ... .. 0 ... ... ... : ... .. . ... : ... .. . ... : ... .. . ... ... : ... .. . ... ... : ... .. . ... ... : ... .. . ... ...
ROW 30 : ... .. . ... ... ... : ... .. . ... ... ... : F-3 00 . ... : ... .. C ... : ... .. . ... ... : ... .. . ... ... : ... .. . ... ... : ... .. F ... ...
ROW 31 : ... .. . ... ... ... : ... .. . ... ... ... : G-2 00 . ... : ... .. 9 ... : ... .. . ... ... : ... .. . ... ... : ... .. . ... ... : ... .. D ... ...
ROW 32 : ... .. . ... ... ... : ... .. . ... ... ... : C-2 00 . ... : ... .. 4 ... : ... .. . ... ... : ... .. . ... ... : ... .. . ... ... : ... .. 8 ... ...
ROW 33 : ... .. . ... ... ... : ... .. . ... ... ... : B-1 00 . ... : ... .. 2 ... : ... .. . ... ... : ... .. . ... ... : ... .. . ... ... : ... .. . ... ...
ROW 34 : ... .. . ... ... ... : ... .. . ... ... ... : F#1 00 . ... : ... .. 1 ... : ... .. . ... ... : ... .. . ... ... : ... .. . ... ... : ... .. . ... ...
ROW 35 : ... .. . ... ... ... : ... .. . ... ... ... : ... .. . ... : ... .. 0 ... : ... .. . ... ... : ... .. . ... ... : ... .. . ... ... : ... .. . ... ...
ROW 36 : ... .. . ... ... ... : ... .. . ... ... ... : ... .. . ... : ... .. . ... : ... .. . ... ... : ... .. . ... ... : ... .. . ... ... : ... .. . ... ...
ROW 37 : ... .. . ... ... ... : ... .. . ... ... ... : ... .. . ... : ... .. . ... : ... .. . ... ... : ... .. . ... ... : ... .. . ... ... : ... .. . ... ...
ROW 38 : ... .. . ... ... ... : ... .. . ... ... ... : F-3 00 . ... : ... .. F ... : ... .. . ... ... : ... .. . ... ... : ... .. . ... ... : ... .. F ... ...
ROW 39 : ... .. . ... ... ... : ... .. . ... ... ... : G-2 00 . ... : ... .. C ... : ... .. . ... ... : ... .. . ... ... : ... .. . ... ... : ... .. D ... ...
ROW 3A : ... .. . ... ... ... : ... .. . ... ... ... : C-2 00 . ... : ... .. 6 ... : ... .. . ... ... : ... .. . ... ... : ... .. . ... ... : ... .. 8 ... ...
ROW 3B : ... .. . ... ... ... : ... .. . ... ... ... : B-1 00 . ... : ... .. 3 ... : ... .. . ... ... : ... .. . ... ... : ... .. . ... ... : ... .. . ... ...
ROW 3C : ... .. . ... ... ... : ... .. . ... ... ... : F#1 00 . ... : ... .. 2 ... : ... .. . ... ... : ... .. . ... ... : ... .. . ... ... : ... .. . ... ...
ROW 3D : ... .. . ... ... ... : ... .. . ... ... ... : ... .. . ... : ... .. 0 ... : ... .. . ... ... : ... .. . ... ... : ... .. . ... ... : ... .. . ... ...
ROW 3E : ... .. . ... ... ... : ... .. . ... ... ... : ... .. . ... : ... .. . ... : ... .. . ... ... : ... .. . ... ... : ... .. . ... ... : ... .. . ... ...
ROW 3F : ... .. . ... ... ... : ... .. . ... ... ... : ... .. . ... : ... .. . ... : ... .. . ... ... : ... .. . ... ... : ... .. . ... ... : ... .. . ... ...
ROW 40 : ... .. . ... ... ... : G-4 00 A P80 ... ... : F-4 00 . ... : A-# 00 F ... : ... .. . ... ... : ... .. 6 ... ... : ... .. 6 ... ... : ... .. . ... ...
ROW 41 : ... .. . ... ... ... : ... .. 9 ... ... ... : G-3 00 . ... : ... .. C ... : ... .. . ... ... : ... .. . ... ... : ... .. . ... ... : ... .. . ... ...
ROW 42 : ... .. . ... ... ... : ... .. 8 ... ... ... : C-3 00 . ... : ... .. 6 ... : ... .. . ... ... : ... .. 5 ... ... : ... .. 5 ... ... : ... .. . ... ...
ROW 43 : ... .. . ... ... ... : ... .. 6 ... ... ... : B-2 00 . ... : ... .. B ... : ... .. . ... ... : ... .. 4 ... ... : ... .. 4 ... ... : ... .. . ... ...
ROW 44 : ... .. . ... ... ... : ... .. . ... ... ... : F#2 00 . ... : ... .. 8 ... : ... .. . ... ... : ... .. . ... ... : ... .. . ... ... : ... .. . ... ...
ROW 45 : ... .. . ... ... ... : ... .. . ... ... ... : ... .. . ... : ... .. 4 ... : ... .. . ... ... : ... .. . ... ... : ... .. . ... ... : ... .. . ... ...
ROW 46 : ... .. . ... ... ... : ... .. . ... ... ... : ... .. . ... : ... .. 7 ... : ... .. . ... ... : ... .. . ... ... : ... .. . ... ... : ... .. . ... ...
ROW 47 : ... .. . ... ... ... : ... .. . ... ... ... : ... .. . ... : ... .. 5 ... : ... .. . ... ... : ... .. 3 ... ... : ... .. 3 ... ... : ... .. . ... ...
ROW 48 : ... .. . ... ... ... : ... .. . ... ... ... : F-4 00 . ... : ... .. 2 ... : ... .. . ... ... : ... .. . ... ... : ... .. . ... ... : ... .. . ... ...
ROW 49 : ... .. . ... ... ... : ... .. . ... ... ... : G-3 00 . ... : ... .. 4 ... : ... .. . ... ... : ... .. . ... ... : ... .. . ... ... : ... .. . ... ...
ROW 4A : ... .. . ... ... ... : ... .. . ... ... ... : C-3 00 . ... : ... .. 3 ... : ... .. . ... ... : ... .. . ... ... : ... .. . ... ... : ... .. . ... ...
ROW 4B : ... .. . ... ... ... : ... .. . ... ... ... : B-2 00 . ... : ... .. 1 ... : ... .. . ... ... : ... .. . ... ... : ... .. . ... ... : ... .. . ... ...
ROW 4C : G-3 00 6 P80 ... ... : ... .. . ... ... ... : F#2 00 . ... : ... .. 6 ... : ... .. . ... ... : ... .. . ... ... : ... .. . ... ... : ... .. . ... ...
ROW 4D : ... .. 1 ... ... ... : ... .. 1 ... ... ... : ... .. . ... : ... .. 4 ... : ... .. . ... ... : ... .. . ... ... : ... .. . ... ... : ... .. 4 ... ...
ROW 4E : ... .. . ... ... ... : ... .. . ... ... ... : ... .. . ... : ... .. 2 ... : ... .. . ... ... : ... .. 2 ... ... : ... .. 2 ... ... : ... .. . ... ...
ROW 4F : ... .. . ... ... ... : ... .. . ... ... ... : ... .. . ... : ... .. 8 ... : ... .. . ... ... : ... .. . ... ... : ... .. . ... ... : ... .. 1 ... ...
ROW 50 : ... .. . ... ... ... : ... .. . ... ... ... : F-4 00 . ... : ... .. 6 ... : ... .. . ... ... : ... .. . ... ... : ... .. . ... ... : ... .. . ... ...
ROW 51 : ... .. . ... ... ... : ... .. . ... ... ... : G-3 00 . ... : ... .. 3 ... : ... .. . ... ... : ... .. . ... ... : ... .. . ... ... : ... .. . ... ...
ROW 52 : ... .. A ... ... ... : ... .. A ... ... ... : C-3 00 . ... : ... .. A ... : ... .. . ... ... : ... .. 6 ... ... : ... .. 6 ... ... : ... .. . ... ...
ROW 53 : ... .. 9 ... ... ... : ... .. 9 ... ... ... : B-2 00 . ... : ... .. 8 ... : ... .. . ... ... : ... .. . ... ... : ... .. . ... ... : ... .. . ... ...
ROW 54 : ... .. 8 ... ... ... : ... .. 8 ... ... ... : F#2 00 . ... : ... .. 4 ... : ... .. . ... ... : ... .. 5 ... ... : ... .. 5 ... ... : ... .. . ... ...
ROW 55 : ... .. 6 ... ... ... : ... .. 6 ... ... ... : ... .. . ... : ... .. C ... : ... .. . ... ... : ... .. 3 ... ... : ... .. 3 ... ... : ... .. . ... ...
ROW 56 : ... .. 1 ... ... ... : ... .. 1 ... ... ... : ... .. . ... : ... .. 9 ... : ... .. . ... ... : ... .. . ... ... : ... .. . ... ... : ... .. 0 ... ...
ROW 57 : ... .. . ... ... ... : ... .. . ... ... ... : ... .. . ... : ... .. 4 ... : ... .. . ... ... : ... .. 2 ... ... : ... .. 2 ... ... : ... .. . ... ...
ROW 58 : A#3 00 A ... ... ... : A#4 00 A ... ... ... : D-4 00 . ... : B-# 00 F ... : ... .. . ... ... : F#4 01 6 ... ... : A#2 01 6 ... ... : A#2 01 A ... ...
ROW 59 : ... .. 9 ... ... ... : ... .. 9 ... ... ... : E-3 00 . ... : ... .. . ... : ... .. . ... ... : ... .. . ... ... : ... .. . ... ... : ... .. 8 ... ...
ROW 5A : ... .. 8 ... ... ... : ... .. 8 ... ... ... : A-2 00 . ... : ... .. . ... : ... .. . ... ... : ... .. 5 ... ... : ... .. 5 ... ... : ... .. 5 ... ...
ROW 5B : ... .. 6 ... ... ... : ... .. 6 ... ... ... : G#2 00 . ... : ... .. E ... : ... .. . ... ... : ... .. 4 ... ... : ... .. 4 ... ... : ... .. . ... ...
ROW 5C : ... .. . ... ... ... : ... .. . ... ... ... : D#2 00 . ... : ... .. . ... : ... .. . ... ... : ... .. . ... ... : ... .. . ... ... : ... .. . ... ...
ROW 5D : ... .. . ... ... ... : ... .. . ... ... ... : ... .. . ... : ... .. . ... : ... .. . ... ... : ... .. . ... ... : ... .. . ... ... : ... .. . ... ...
ROW 5E : ... .. . ... ... ... : ... .. . ... ... ... : ... .. . ... : ... .. D ... : ... .. . ... ... : ... .. . ... ... : ... .. . ... ... : B-2 01 A ... ...
ROW 5F : ... .. . ... ... ... : ... .. . ... ... ... : ... .. . ... : ... .. . ... : ... .. . ... ... : ... .. 3 ... ... : ... .. 3 ... ... : ... .. 8 ... ...
ROW 60 : ... .. . ... ... ... : ... .. . ... ... ... : ... .. . ... : ... .. . ... : ... .. . ... ... : ... .. . ... ... : ... .. . ... ... : ... .. 5 ... ...
ROW 61 : ... .. . ... ... ... : ... .. . ... ... ... : ... .. . ... : ... .. . ... : ... .. . ... ... : ... .. . ... ... : ... .. . ... ... : ... .. . ... ...
ROW 62 : ... .. . ... ... ... : ... .. . ... ... ... : ... .. . ... : ... .. . ... : ... .. . ... ... : ... .. . ... ... : ... .. . ... ... : ... .. . ... ...
ROW 63 : ... .. . ... ... ... : ... .. . ... ... ... : ... .. . ... : ... .. . ... : ... .. . ... ... : ... .. . ... ... : ... .. . ... ... : ... .. . ... ...
ROW 64 : ... .. . ... ... ... : ... .. . ... ... ... : ... .. . ... : ... .. C ... : ... .. . ... ... : ... .. . ... ... : ... .. . ... ... : D-3 01 A ... ...
ROW 65 : ... .. . ... ... ... : ... .. . ... ... ... : ... .. . ... : ... .. . ... : ... .. . ... ... : ... .. . ... ... : ... .. . ... ... : ... .. 8 ... ...
ROW 66 : ... .. . ... ... ... : ... .. . ... ... ... : ... .. . ... : ... .. . ... : ... .. . ... ... : ... .. . ... ... : ... .. . ... ... : ... .. 5 ... ...
ROW 67 : ... .. . ... ... ... : ... .. . ... ... ... : ... .. . ... : ... .. . ... : ... .. . ... ... : ... .. . ... ... : ... .. . ... ... : ... .. . ... ...
ROW 68 : ... .. . ... ... ... : ... .. . ... ... ... : ... .. . ... : ... .. . ... : ... .. . ... ... : ... .. . ... ... : ... .. . ... ... : ... .. . ... ...
ROW 69 : ... .. . ... ... ... : ... .. . ... ... ... : ... .. . ... : ... .. . ... : ... .. . ... ... : ... .. . ... ... : ... .. . ... ... : ... .. . ... ...
ROW 6A : ... .. . ... ... ... : ... .. . ... ... ... : ... .. . ... : ... .. B ... : ... .. . ... ... : ... .. . ... ... : ... .. . ... ... : D#3 01 A ... ...
ROW 6B : ... .. . ... ... ... : ... .. . ... ... ... : ... .. . ... : ... .. . ... : ... .. . ... ... : ... .. . ... ... : ... .. . ... ... : ... .. 8 ... ...
ROW 6C : ... .. . ... ... ... : ... .. . ... ... ... : ... .. . ... : ... .. . ... : ... .. . ... ... : ... .. . ... ... : ... .. . ... ... : ... .. 5 ... ...
ROW 6D : ... .. . ... ... ... : ... .. . ... ... ... : ... .. . ... : ... .. A ... : ... .. . ... ... : ... .. . ... ... : ... .. . ... ... : ... .. . ... ...
ROW 6E : ... .. . ... ... ... : ... .. . ... ... ... : ... .. . ... : ... .. . ... : ... .. . ... ... : ... .. . ... ... : ... .. . ... ... : ... .. . ... ...
ROW 6F : ... .. . ... ... ... : ... .. . ... ... ... : ... .. . ... : ... .. . ... : ... .. . ... ... : ... .. . ... ... : ... .. . ... ... : ... .. . ... ...
ROW 70 : ... .. . ... ... ... : ... .. . ... ... ... : ... .. . ... : ... .. . ... : ... .. . ... ... : ... .. . ... ... : F#3 01 6 ... ... : D-3 01 A ... ...
ROW 71 : ... .. . ... ... ... : ... .. . ... ... ... : ... .. . ... : ... .. . ... : ... .. . ... ... : ... .. . ... ... : ... .. . ... ... : ... .. 8 ... ...
ROW 72 : ... .. . ... ... ... : ... .. . ... ... ... : ... .. . ... : ... .. . ... : ... .. . ... ... : ... .. . ... ... : ... .. 5 ... ... : ... .. 5 ... ...
ROW 73 : ... .. . ... ... ... : ... .. . ... ... ... : ... .. . ... : ... .. 9 ... : ... .. . ... ... : ... .. . ... ... : ... .. 4 ... ... : ... .. . ... ...
ROW 74 : ... .. . ... ... ... : ... .. . ... ... ... : ... .. . ... : ... .. . ... : ... .. . ... ... : ... .. . ... ... : ... .. . ... ... : ... .. . ... ...
ROW 75 : ... .. . ... ... ... : ... .. . ... ... ... : ... .. . ... : ... .. . ... : ... .. . ... ... : ... .. . ... ... : ... .. . ... ... : ... .. . ... ...
ROW 76 : ... .. . ... ... ... : ... .. . ... ... ... : ... .. . ... : ... .. . ... : ... .. . ... ... : ... .. . ... ... : ... .. . ... ... : D#3 01 A ... ...
ROW 77 : ... .. . ... ... ... : ... .. . ... ... ... : ... .. . ... : ... .. . ... : ... .. . ... ... : ... .. . ... ... : ... .. 3 ... ... : ... .. 8 ... ...
ROW 78 : ... .. . ... ... ... : ... .. . ... ... ... : ... .. . ... : ... .. . ... : ... .. . ... ... : ... .. . ... ... : ... .. . ... ... : ... .. 5 ... ...
ROW 79 : ... .. . ... ... ... : ... .. . ... ... ... : ... .. . ... : ... .. 8 ... : ... .. . ... ... : ... .. . ... ... : ... .. . ... ... : ... .. . ... ...
ROW 7A : ... .. . ... ... ... : ... .. . ... ... ... : ... .. . ... : ... .. . ... : ... .. . ... ... : ... .. . ... ... : ... .. . ... ... : ... .. . ... ...
ROW 7B : ... .. . ... ... ... : ... .. . ... ... ... : ... .. . ... : ... .. . ... : ... .. . ... ... : ... .. . ... ... : ... .. . ... ... : ... .. . ... ...
ROW 7C : ... .. . ... ... ... : ... .. . ... ... ... : ... .. . ... : ... .. . ... : ... .. . ... ... : ... .. . ... ... : ... .. . ... ... : F-3 01 A ... ...
ROW 7D : ... .. . ... ... ... : ... .. . ... ... ... : ... .. . ... : ... .. . ... : ... .. . ... ... : ... .. . ... ... : ... .. . ... ... : ... .. 8 ... ...
ROW 7E : ... .. . ... ... ... : ... .. . ... ... ... : ... .. . ... : ... .. . ... : ... .. . ... ... : ... .. . ... ... : ... .. . ... ... : ... .. 5 ... ...
ROW 7F : ... .. . ... ... ... : ... .. . ... ... ... : ... .. . ... : ... .. 7 ... : ... .. . ... ... : ... .. . ... ... : ... .. . ... ... : ... .. . ... ...
ROW 80 : ... .. . ... ... ... : ... .. . ... ... ... : ... .. . ... : ... .. . ... : ... .. . ... ... : ... .. . ... ... : ... .. . ... ... : ... .. . ... ...
ROW 81 : ... .. . ... ... ... : ... .. . ... ... ... : ... .. . ... : ... .. . ... : ... .. . ... ... : ... .. . ... ... : ... .. . ... ... : ... .. . ... ...
ROW 82 : ... .. . ... ... ... : ... .. . ... ... ... : ... .. . ... : ... .. 6 ... : ... .. . ... ... : ... .. . ... ... : ... .. . ... ... : F#3 01 A ... ...
ROW 83 : ... .. . ... ... ... : ... .. . ... ... ... : ... .. . ... : ... .. . ... : ... .. . ... ... : ... .. . ... ... : ... .. . ... ... : ... .. 8 ... ...
ROW 84 : ... .. . ... ... ... : ... .. . ... ... ... : ... .. . ... : ... .. . ... : ... .. . ... ... : ... .. . ... ... : ... .. . ... ... : ... .. 5 ... ...
ROW 85 : ... .. . ... ... ... : ... .. . ... ... ... : ... .. . ... : ... .. . ... : ... .. . ... ... : ... .. . ... ... : ... .. . ... ... : ... .. . ... ...
ROW 86 : ... .. . ... ... ... : ... .. . ... ... ... : ... .. . ... : ... .. . ... : ... .. . ... ... : ... .. . ... ... : ... .. . ... ... : ... .. . ... ...
ROW 87 : ... .. . ... ... ... : ... .. . ... ... ... : ... .. . ... : ... .. . ... : ... .. . ... ... : ... .. . ... ... : ... .. . ... ... : ... .. . ... ...
ROW 88 : ... .. . ... ... ... : ... .. . ... ... ... : ... .. . ... : ... .. 5 ... : ... .. . ... ... : ... .. . ... ... : B-3 01 6 ... ... : D#3 01 A ... ...
ROW 89 : ... .. . ... ... ... : ... .. . ... ... ... : ... .. . ... : ... .. . ... : ... .. . ... ... : ... .. . ... ... : ... .. . ... ... : ... .. 8 ... ...
ROW 8A : ... .. . ... ... ... : ... .. . ... ... ... : ... .. . ... : ... .. . ... : ... .. . ... ... : ... .. . ... ... : ... .. 5 ... ... : ... .. 5 ... ...
ROW 8B : ... .. . ... ... ... : ... .. . ... ... ... : ... .. . ... : ... .. . ... : ... .. . ... ... : ... .. . ... ... : ... .. 4 ... ... : ... .. . ... ...
ROW 8C : ... .. . ... ... ... : ... .. . ... ... ... : ... .. . ... : ... .. . ... : ... .. . ... ... : ... .. . ... ... : ... .. . ... ... : ... .. . ... ...
ROW 8D : ... .. . ... ... ... : ... .. . ... ... ... : ... .. . ... : ... .. . ... : ... .. . ... ... : ... .. . ... ... : ... .. . ... ... : ... .. . ... ...
ROW 8E : ... .. . ... ... ... : ... .. . ... ... ... : ... .. . ... : ... .. 4 ... : ... .. . ... ... : ... .. . ... ... : ... .. . ... ... : F-3 01 A ... ...
ROW 8F : ... .. . ... ... ... : ... .. . ... ... ... : ... .. . ... : ... .. . ... : ... .. . ... ... : ... .. . ... ... : ... .. 3 ... ... : ... .. 8 ... ...
ROW 90 : ... .. . ... ... ... : ... .. . ... ... ... : ... .. . ... : ... .. . ... : ... .. . ... ... : ... .. . ... ... : ... .. . ... ... : ... .. 5 ... ...
ROW 91 : ... .. . ... ... ... : ... .. . ... ... ... : ... .. . ... : ... .. 3 ... : ... .. . ... ... : ... .. . ... ... : ... .. . ... ... : ... .. . ... ...
ROW 92 : ... .. . ... ... ... : ... .. . ... ... ... : ... .. . ... : ... .. . ... : ... .. . ... ... : ... .. . ... ... : ... .. . ... ... : ... .. . ... ...
ROW 93 : ... .. . ... ... ... : ... .. . ... ... ... : ... .. . ... : ... .. . ... : ... .. . ... ... : ... .. . ... ... : ... .. . ... ... : ... .. . ... ...
ROW 94 : ... .. . ... ... ... : ... .. . ... ... ... : ... .. . ... : ... .. . ... : ... .. . ... ... : ... .. . ... ... : ... .. . ... ... : F#3 01 A ... ...
ROW 95 : ... .. . ... ... ... : ... .. . ... ... ... : ... .. . ... : ... .. . ... : ... .. . ... ... : ... .. . ... ... : ... .. . ... ... : ... .. 8 ... ...
ROW 96 : ... .. . ... ... ... : ... .. . ... ... ... : ... .. . ... : ... .. . ... : ... .. . ... ... : ... .. . ... ... : ... .. . ... ... : ... .. 5 ... ...
ROW 97 : ... .. . ... ... ... : ... .. . ... ... ... : ... .. . ... : ... .. 2 ... : ... .. . ... ... : ... .. . ... ... : ... .. . ... ... : ... .. . ... ...
ROW 98 : ... .. . ... ... ... : ... .. . ... ... ... : ... .. . ... : ... .. . ... : ... .. . ... ... : ... .. . ... ... : ... .. . ... ... : ... .. . ... ...
ROW 99 : ... .. . ... ... ... : ... .. . ... ... ... : ... .. . ... : ... .. . ... : ... .. . ... ... : ... .. . ... ... : ... .. . ... ... : ... .. . ... ...
ROW 9A : ... .. . ... ... ... : ... .. . ... ... ... : ... .. . ... : ... .. . ... : ... .. . ... ... : ... .. . ... ... : ... .. . ... ... : A#3 01 A ... ...
ROW 9B : ... .. . ... ... ... : ... .. . ... ... ... : ... .. . ... : ... .. . ... : ... .. . ... ... : ... .. . ... ... : ... .. . ... ... : ... .. 8 ... ...
ROW 9C : ... .. . ... ... ... : ... .. . ... ... ... : ... .. . ... : ... .. . ... : ... .. . ... ... : ... .. . ... ... : ... .. . ... ... : ... .. 5 ... ...
ROW 9D : ... .. . ... ... ... : ... .. . ... ... ... : ... .. . ... : ... .. 1 ... : ... .. . ... ... : ... .. . ... ... : ... .. . ... ... : ... .. . ... ...
ROW 9E : ... .. . ... ... ... : ... .. . ... ... ... : ... .. . ... : ... .. . ... : ... .. . ... ... : ... .. . ... ... : ... .. . ... ... : ... .. . ... ...
ROW 9F : ... .. . ... ... ... : ... .. . ... ... ... : ... .. . ... : ... .. . ... : ... .. . ... ... : ... .. . ... ... : ... .. . ... ... : ... .. . ... ...
ROW A0 : ... .. . ... ... ... : ... .. . ... ... ... : ... .. . ... : ... .. . ... : ... .. . ... ... : ... .. . ... ... : D-4 01 6 ... ... : B-3 01 A ... ...
ROW A1 : ... .. . ... ... ... : ... .. . ... ... ... : ... .. . ... : ... .. . ... : ... .. . ... ... : ... .. . ... ... : ... .. . ... ... : ... .. 8 ... ...
ROW A2 : ... .. . ... ... ... : ... .. . ... ... ... : ... .. . ... : ... .. . ... : ... .. . ... ... : ... .. . ... ... : ... .. 5 ... ... : ... .. 5 ... ...
ROW A3 : ... .. . ... ... ... : ... .. . ... ... ... : ... .. . ... : ... .. . ... : ... .. . ... ... : ... .. . ... ... : ... .. 4 ... ... : ... .. . ... ...
ROW A4 : ... .. . ... ... ... : ... .. . ... ... ... : ... .. . ... : ... .. . ... : ... .. . ... ... : ... .. . ... ... : ... .. . ... ... : ... .. . ... ...
ROW A5 : ... .. . ... ... ... : ... .. . ... ... ... : ... .. . ... : ... .. . ... : ... .. . ... ... : ... .. . ... ... : ... .. . ... ... : ... .. . ... ...
ROW A6 : ... .. . ... ... ... : ... .. . ... ... ... : ... .. . ... : ... .. . ... : ... .. . ... ... : ... .. . ... ... : ... .. . ... ... : D-4 01 A ... ...
ROW A7 : ... .. . ... ... ... : ... .. . ... ... ... : ... .. . ... : ... .. . ... : ... .. . ... ... : ... .. . ... ... : ... .. 3 ... ... : ... .. 8 ... ...
ROW A8 : ... .. . ... ... ... : ... .. . ... ... ... : ... .. . ... : ... .. . ... : ... .. . ... ... : ... .. . ... ... : ... .. . ... ... : ... .. 5 ... ...
ROW A9 : ... .. . ... ... ... : ... .. . ... ... ... : ... .. . ... : ... .. . ... : ... .. . ... ... : ... .. . ... ... : ... .. . ... ... : ... .. . ... ...
ROW AA : ... .. . ... ... ... : ... .. . ... ... ... : ... .. . ... : ... .. . ... : ... .. . ... ... : ... .. . ... ... : ... .. . ... ... : ... .. . ... ...
ROW AB : ... .. . ... ... ... : ... .. . ... ... ... : ... .. . ... : ... .. . ... : ... .. . ... ... : ... .. . ... ... : ... .. . ... ... : ... .. . ... ...
ROW AC : ... .. . ... ... ... : ... .. . ... ... ... : ... .. . ... : ... .. . ... : ... .. . ... ... : ... .. . ... ... : ... .. . ... ... : D#4 01 A ... ...
ROW AD : ... .. . ... ... ... : ... .. . ... ... ... : ... .. . ... : ... .. . ... : ... .. . ... ... : ... .. . ... ... : ... .. . ... ... : ... .. 8 ... ...
ROW AE : ... .. . ... ... ... : ... .. . ... ... ... : ... .. . ... : ... .. . ... : ... .. . ... ... : ... .. . ... ... : ... .. . ... ... : ... .. 5 ... ...
ROW AF : ... .. . ... ... ... : ... .. . ... ... ... : ... .. . ... : ... .. . ... : ... .. . ... ... : ... .. . ... ... : ... .. . ... ... : ... .. . ... ...
ROW B0 : ... .. . ... ... ... : ... .. . ... ... ... : ... .. . ... : ... .. . ... : ... .. . ... ... : ... .. . ... ... : ... .. . ... ... : ... .. . ... ...
ROW B1 : ... .. . ... ... ... : ... .. . ... ... ... : ... .. . ... : ... .. . ... : ... .. . ... ... : ... .. . ... ... : ... .. . ... ... : ... .. . ... ...
ROW B2 : ... .. . ... ... ... : ... .. . ... ... ... : ... .. . ... : ... .. . ... : ... .. . ... ... : ... .. . ... ... : ... .. . ... ... : F-4 01 A ... ...
ROW B3 : ... .. . ... ... ... : ... .. . ... ... ... : ... .. . ... : ... .. . ... : ... .. . ... ... : ... .. . ... ... : ... .. . ... ... : ... .. 8 ... ...
ROW B4 : ... .. . ... ... ... : ... .. . ... ... ... : ... .. . ... : ... .. . ... : ... .. . ... ... : ... .. . ... ... : ... .. . ... ... : ... .. 5 ... ...
ROW B5 : ... .. . ... ... ... : ... .. . ... ... ... : ... .. . ... : ... .. . ... : ... .. . ... ... : ... .. . ... ... : ... .. . ... ... : ... .. . ... ...
ROW B6 : ... .. . ... ... ... : ... .. . ... ... ... : ... .. . ... : ... .. . ... : ... .. . ... ... : ... .. . ... ... : ... .. . ... ... : ... .. . ... ...
ROW B7 : ... .. . ... ... ... : ... .. . ... ... ... : ... .. . ... : ... .. . ... : ... .. . ... ... : ... .. . ... ... : ... .. . ... ... : ... .. . ... ...
ROW B8 : G-3 00 A ... ... ... : G-4 00 A ... ... ... : D-5 00 . ... : 9-# 00 F ... : ... .. . ... ... : E-4 01 6 ... ... : C-4 01 6 ... ... : A#4 01 A ... ...
ROW B9 : ... .. 9 ... ... ... : ... .. 9 ... ... ... : E-4 00 . ... : ... .. C ... : ... .. . ... ... : ... .. . ... ... : ... .. . ... ... : ... .. 8 ... ...
ROW BA : ... .. 8 ... ... ... : ... .. 8 ... ... ... : A-3 00 . ... : ... .. 6 ... : ... .. . ... ... : ... .. 5 ... ... : ... .. 5 ... ... : ... .. 5 ... ...
ROW BB : ... .. 6 ... ... ... : ... .. 6 ... ... ... : G#3 00 . ... : ... .. 3 ... : ... .. . ... ... : ... .. 4 ... ... : ... .. 4 ... ... : ... .. . ... ...
ROW BC : ... .. . ... ... ... : ... .. . ... ... ... : D#3 00 . ... : ... .. 2 ... : ... .. . ... ... : ... .. . ... ... : ... .. . ... ... : ... .. . ... ...
ROW BD : ... .. . ... ... ... : ... .. . ... ... ... : ... .. . ... : ... .. 0 ... : ... .. . ... ... : ... .. . ... ... : ... .. . ... ... : ... .. . ... ...
ROW BE : ... .. . ... ... ... : ... .. . ... ... ... : ... .. . ... : ... .. . ... : ... .. . ... ... : ... .. 3 ... ... : ... .. 3 ... ... : ... .. . ... ...
ROW BF : ... .. 1 ... ... ... : ... .. 1 ... ... ... : ... .. . ... : ... .. . ... : ... .. . ... ... : ... .. . ... ... : ... .. . ... ... : ... .. 2 ... ...
ROW C0 : ... .. . ... ... ... : ... .. . ... ... ... : ... .. . ... : ... .. . ... : ... .. . ... ... : ... .. 2 ... ... : ... .. 2 ... ... : ... .. . ... ...
ROW C1 : ... .. . ... ... ... : ... .. . ... ... ... : ... .. . ... : ... .. . ... : ... .. . ... ... : ... .. . ... ... : ... .. . ... ... : ... .. 1 ... ...
ROW C2 : ... .. . ... ... ... : ... .. . ... ... ... : ... .. . ... : ... .. . ... : ... .. . ... ... : ... .. . ... ... : ... .. . ... ... : ... .. . ... ...
ROW C3 : ... .. . ... ... ... : ... .. . ... ... ... : ... .. . ... : ... .. . ... : ... .. . ... ... : ... .. . ... ... : ... .. . ... ... : ... .. . ... ...
ROW C4 : ... .. 8 ... ... ... : ... .. 8 ... ... ... : --- .. . ... : ... .. 8 ... : ... .. . ... ... : ... .. 5 ... ... : ... .. 5 ... ... : ... .. 8 ... ...
ROW C5 : ... .. 5 ... ... ... : ... .. 5 ... ... ... : ... .. . ... : ... .. 6 ... : ... .. . ... ... : ... .. 3 ... ... : ... .. 3 ... ... : ... .. 5 ... ...
ROW C6 : ... .. 3 ... ... ... : ... .. 3 ... ... ... : ... .. . ... : ... .. 3 ... : ... .. . ... ... : ... .. 2 ... ... : ... .. 2 ... ... : ... .. 2 ... ...
ROW C7 : ... .. 1 ... ... ... : ... .. 1 ... ... ... : ... .. . ... : ... .. 4 ... : ... .. . ... ... : ... .. 1 ... ... : ... .. 1 ... ... : ... .. 1 ... ...
ROW C8 : ... .. 8 ... ... ... : ... .. 8 ... ... ... : ... .. . ... : ... .. 3 ... : ... .. . ... ... : ... .. 5 ... ... : ... .. 5 ... ... : ... .. 8 ... ...
ROW C9 : ... .. 5 ... ... ... : ... .. 5 ... ... ... : ... .. . ... : ... .. 1 ... : ... .. . ... ... : ... .. 3 ... ... : ... .. 3 ... ... : ... .. 5 ... ...
ROW CA : ... .. 3 ... ... ... : ... .. 3 ... ... ... : ... .. . ... : ... .. 8 ... : ... .. . ... ... : ... .. 2 ... ... : ... .. 2 ... ... : ... .. 2 ... ...
ROW CB : ... .. 1 ... ... ... : ... .. 1 ... ... ... : ... .. . ... : ... .. 6 ... : ... .. . ... ... : ... .. 1 ... ... : ... .. 1 ... ... : ... .. 1 ... ...
ROW CC : ... .. 8 ... ... ... : ... .. 8 ... ... ... : ... .. . ... : ... .. 3 ... : ... .. . ... ... : ... .. 5 ... ... : ... .. 5 ... ... : ... .. 8 ... ...
ROW CD : ... .. 5 ... ... ... : ... .. 5 ... ... ... : ... .. . ... : ... .. 1 ... : ... .. . ... ... : ... .. 3 ... ... : ... .. 3 ... ... : ... .. 5 ... ...
ROW CE : ... .. 3 ... ... ... : ... .. 3 ... ... ... : ... .. . ... : ... .. . ... : ... .. . ... ... : ... .. 2 ... ... : ... .. 2 ... ... : ... .. 2 ... ...
ROW CF : ... .. 1 ... ... ... : ... .. 1 ... ... ... : ... .. . ... : ... .. 0 ... : ... .. . ... ... : ... .. 1 ... ... : ... .. 1 ... ... : ... .. 1 ... ...
ROW D0 : ... .. A ... ... ... : ... .. A ... ... ... : D-5 00 . ... : ... .. F ... : ... .. . ... ... : ... .. 6 ... ... : ... .. 6 ... ... : ... .. A ... ...
ROW D1 : ... .. 9 ... ... ... : ... .. 9 ... ... ... : E-4 00 . ... : ... .. C ... : ... .. . ... ... : ... .. . ... ... : ... .. . ... ... : ... .. 8 ... ...
ROW D2 : ... .. 8 ... ... ... : ... .. 8 ... ... ... : A-3 00 . ... : ... .. 6 ... : ... .. . ... ... : ... .. 5 ... ... : ... .. 5 ... ... : ... .. 5 ... ...
ROW D3 : ... .. 6 ... ... ... : ... .. 6 ... ... ... : G#3 00 . ... : ... .. 3 ... : ... .. . ... ... : ... .. 4 ... ... : ... .. 4 ... ... : ... .. . ... ...
ROW D4 : ... .. . ... ... ... : ... .. . ... ... ... : D#3 00 . ... : ... .. 2 ... : ... .. . ... ... : ... .. . ... ... : ... .. . ... ... : ... .. . ... ...
ROW D5 : ... .. . ... ... ... : ... .. . ... ... ... : ... .. . ... : ... .. 0 ... : ... .. . ... ... : ... .. . ... ... : ... .. . ... ... : ... .. . ... ...
ROW D6 : ... .. . ... ... ... : ... .. . ... ... ... : ... .. . ... : ... .. . ... : ... .. . ... ... : ... .. . ... ... : ... .. . ... ... : ... .. . ... ...
ROW D7 : ... .. . ... ... ... : ... .. . ... ... ... : ... .. . ... : ... .. . ... : ... .. . ... ... : ... .. 3 ... ... : ... .. 3 ... ... : ... .. . ... ...
ROW D8 : ... .. . ... ... ... : ... .. . ... ... ... : ... .. . ... : ... .. . ... : ... .. . ... ... : ... .. . ... ... : ... .. . ... ... : ... .. . ... ...
ROW D9 : ... .. . ... ... ... : ... .. . ... ... ... : ... .. . ... : ... .. . ... : ... .. . ... ... : ... .. . ... ... : ... .. . ... ... : ... .. . ... ...
ROW DA : ... .. 1 ... ... ... : ... .. 1 ... ... ... : ... .. . ... : ... .. . ... : ... .. . ... ... : ... .. . ... ... : ... .. . ... ... : ... .. 2 ... ...
ROW DB : ... .. . ... ... ... : ... .. . ... ... ... : ... .. . ... : ... .. . ... : ... .. . ... ... : ... .. 2 ... ... : ... .. 2 ... ... : ... .. . ... ...
ROW DC : ... .. 8 ... ... ... : ... .. 8 ... ... ... : --- .. . ... : ... .. 8 ... : ... .. . ... ... : ... .. 5 ... ... : ... .. 5 ... ... : ... .. 8 ... ...
ROW DD : ... .. 5 ... ... ... : ... .. 5 ... ... ... : ... .. . ... : ... .. 6 ... : ... .. . ... ... : ... .. 3 ... ... : ... .. 3 ... ... : ... .. 5 ... ...
ROW DE : ... .. 3 ... ... ... : ... .. 3 ... ... ... : ... .. . ... : ... .. 3 ... : ... .. . ... ... : ... .. 2 ... ... : ... .. 2 ... ... : ... .. 2 ... ...
ROW DF : ... .. 1 ... ... ... : ... .. 1 ... ... ... : ... .. . ... : ... .. 4 ... : ... .. . ... ... : ... .. 1 ... ... : ... .. 1 ... ... : ... .. 1 ... ...
ROW E0 : ... .. 8 ... ... ... : ... .. 8 ... ... ... : ... .. . ... : ... .. 3 ... : ... .. . ... ... : ... .. 5 ... ... : ... .. 5 ... ... : ... .. 8 ... ...
ROW E1 : ... .. 5 ... ... ... : ... .. 5 ... ... ... : ... .. . ... : ... .. 1 ... : ... .. . ... ... : ... .. 3 ... ... : ... .. 3 ... ... : ... .. 5 ... ...
ROW E2 : ... .. 3 ... ... ... : ... .. 3 ... ... ... : ... .. . ... : ... .. 8 ... : ... .. . ... ... : ... .. 2 ... ... : ... .. 2 ... ... : ... .. 2 ... ...
ROW E3 : ... .. 1 ... ... ... : ... .. 1 ... ... ... : ... .. . ... : ... .. 6 ... : ... .. . ... ... : ... .. 1 ... ... : ... .. 1 ... ... : ... .. 1 ... ...
ROW E4 : ... .. 8 ... ... ... : ... .. 8 ... ... ... : ... .. . ... : ... .. 3 ... : ... .. . ... ... : ... .. 5 ... ... : ... .. 5 ... ... : ... .. 8 ... ...
ROW E5 : ... .. 5 ... ... ... : ... .. 5 ... ... ... : ... .. . ... : ... .. 1 ... : ... .. . ... ... : ... .. 3 ... ... : ... .. 3 ... ... : ... .. 5 ... ...
ROW E6 : ... .. 3 ... ... ... : ... .. 3 ... ... ... : ... .. . ... : ... .. . ... : ... .. . ... ... : ... .. 2 ... ... : ... .. 2 ... ... : ... .. 2 ... ...
ROW E7 : ... .. 1 ... ... ... : ... .. 1 ... ... ... : ... .. . ... : ... .. 0 ... : ... .. . ... ... : ... .. 1 ... ... : ... .. 1 ... ... : ... .. 1 ... ...
ROW E8 : ... .. A ... ... ... : ... .. A ... ... ... : D-5 00 . ... : ... .. F ... : ... .. . ... ... : ... .. 6 ... ... : ... .. 6 ... ... : ... .. A ... ...
ROW E9 : ... .. 9 ... ... ... : ... .. 9 ... ... ... : E-4 00 . ... : ... .. C ... : ... .. . ... ... : ... .. . ... ... : ... .. . ... ... : ... .. 8 ... ...
ROW EA : ... .. 8 ... ... ... : ... .. 8 ... ... ... : A-3 00 . ... : ... .. 6 ... : ... .. . ... ... : ... .. 5 ... ... : ... .. 5 ... ... : ... .. 5 ... ...
ROW EB : ... .. 6 ... ... ... : ... .. 6 ... ... ... : G#3 00 . ... : ... .. 3 ... : ... .. . ... ... : ... .. 4 ... ... : ... .. 4 ... ... : ... .. . ... ...
ROW EC : ... .. . ... ... ... : ... .. . ... ... ... : D#3 00 . ... : ... .. 2 ... : ... .. . ... ... : ... .. . ... ... : ... .. . ... ... : ... .. . ... ...
ROW ED : ... .. . ... ... ... : ... .. . ... ... ... : ... .. . ... : ... .. 0 ... : ... .. . ... ... : ... .. . ... ... : ... .. . ... ... : ... .. . ... ...
ROW EE : ... .. . ... ... ... : ... .. . ... ... ... : ... .. . ... : ... .. . ... : ... .. . ... ... : ... .. . ... ... : ... .. . ... ... : ... .. . ... ...
ROW EF : ... .. . ... ... ... : ... .. . ... ... ... : ... .. . ... : ... .. . ... : ... .. . ... ... : ... .. 3 ... ... : ... .. 3 ... ... : ... .. . ... ...
ROW F0 : ... .. A ... ... ... : ... .. A ... ... ... : D-5 00 . ... : ... .. C ... : ... .. . ... ... : ... .. 6 ... ... : ... .. 6 ... ... : ... .. A ... ...
ROW F1 : ... .. 9 ... ... ... : ... .. 9 ... ... ... : E-4 00 . ... : ... .. 9 ... : ... .. . ... ... : ... .. . ... ... : ... .. . ... ... : ... .. 8 ... ...
ROW F2 : ... .. 8 ... ... ... : ... .. 8 ... ... ... : A-3 00 . ... : ... .. 4 ... : ... .. . ... ... : ... .. 5 ... ... : ... .. 5 ... ... : ... .. 5 ... ...
ROW F3 : ... .. 6 ... ... ... : ... .. 6 ... ... ... : G#3 00 . ... : ... .. 2 ... : ... .. . ... ... : ... .. 4 ... ... : ... .. 4 ... ... : ... .. . ... ...
ROW F4 : ... .. . ... ... ... : ... .. . ... ... ... : D#3 00 . ... : ... .. 1 ... : ... .. . ... ... : ... .. 3 ... ... : ... .. 3 ... ... : ... .. . ... ...
ROW F5 : ... .. 1 ... ... ... : ... .. 1 ... ... ... : ... .. . ... : ... .. 0 ... : ... .. . ... ... : ... .. . ... ... : ... .. . ... ... : ... .. 2 ... ...
ROW F6 : ... .. . ... ... ... : ... .. . ... ... ... : ... .. . ... : ... .. . ... : ... .. . ... ... : ... .. 2 ... ... : ... .. 2 ... ... : ... .. . ... ...
ROW F7 : ... .. . ... ... ... : ... .. . ... ... ... : ... .. . ... : ... .. . ... : ... .. . ... ... : ... .. . ... ... : ... .. . ... ... : ... .. 1 ... ...
ROW F8 : ... .. A ... ... ... : ... .. A ... ... ... : D-5 00 . ... : ... .. F ... : ... .. . ... ... : ... .. 6 ... ... : ... .. 6 ... ... : ... .. A ... ...
ROW F9 : ... .. 9 ... ... ... : ... .. 9 ... ... ... : E-4 00 . ... : ... .. C ... : ... .. . ... ... : ... .. . ... ... : ... .. . ... ... : ... .. 8 ... ...
ROW FA : ... .. 8 ... ... ... : ... .. 8 ... ... ... : A-3 00 . ... : ... .. 6 ... : ... .. . ... ... : ... .. 5 ... ... : ... .. 5 ... ... : ... .. 5 ... ...
ROW FB : ... .. 6 ... ... ... : ... .. 6 ... ... ... : G#3 00 . ... : ... .. 3 ... : ... .. . ... ... : ... .. 4 ... ... : ... .. 4 ... ... : ... .. . ... ...
ROW FC : ... .. . ... ... ... : ... .. . ... ... ... : D#3 00 . ... : ... .. 2 ... : ... .. . ... ... : ... .. . ... ... : ... .. . ... ... : ... .. . ... ...
ROW FD : ... .. . ... ... ... : ... .. . ... ... ... : ... .. . ... : ... .. 0 ... : ... .. . ... ... : ... .. . ... ... : ... .. . ... ... : ... .. . ... ...
ROW FE : ... .. . ... ... ... : ... .. . ... ... ... : ... .. . ... : ... .. . ... : ... .. . ... ... : ... .. . ... ... : ... .. . ... ... : ... .. . ... ...
ROW FF : ... .. . ... ... ... : ... .. . ... ... ... : ... .. . ... : ... .. . ... : ... .. . ... ... : ... .. 3 ... ... : ... .. 3 ... ... : ... .. . ... ...

PATTERN 0C
ROW 00 : ... .. 2 ... ... ... : ... .. 2 ... ... ... : D-3 00 . ... : ... .. F ... : ... .. . ... ... : ... .. 1 ... ... : ... .. 1 ... ... : F#1 01 F ... ...
ROW 01 : ... .. 1 ... ... ... : ... .. 1 ... ... ... : E-2 00 . ... : ... .. C ... : ... .. . ... ... : ... .. . ... ... : ... .. . ... ... : ... .. D ... ...
ROW 02 : ... .. . ... ... ... : ... .. . ... ... ... : A-1 00 . ... : ... .. 6 ... : ... .. . ... ... : ... .. . ... ... : ... .. . ... ... : ... .. 8 ... ...
ROW 03 : A#4 00 2 ... ... ... : ... .. . ... ... ... : G#1 00 . ... : ... .. 3 ... : ... .. . ... ... : ... .. . ... ... : ... .. . ... ... : ... .. . ... ...
ROW 04 : ... .. 1 ... ... ... : ... .. . ... ... ... : D#1 00 . ... : ... .. 2 ... : ... .. . ... ... : ... .. . ... ... : ... .. . ... ... : ... .. 4 ... ...
ROW 05 : ... .. . ... ... ... : ... .. . ... ... ... : ... .. . ... : ... .. 0 ... : ... .. . ... ... : ... .. . ... ... : ... .. . ... ... : ... .. . ... ...
ROW 06 : C-5 00 4 ... ... ... : ... .. . ... ... ... : ... .. . ... : ... .. . ... : ... .. . ... ... : ... .. . ... ... : ... .. . ... ... : ... .. 1 ... ...
ROW 07 : ... .. 3 ... ... ... : ... .. 0 ... ... ... : ... .. . ... : ... .. . ... : ... .. . ... ... : ... .. . ... ... : ... .. . ... ... : ... .. . ... ...
ROW 08 : ... .. . ... ... ... : ... .. . ... ... ... : D-3 00 . ... : ... .. C ... : ... .. . ... ... : ... .. . ... ... : ... .. . ... ... : ... .. F ... ...
ROW 09 : D-5 00 6 ... ... ... : ... .. . ... ... ... : E-2 00 . ... : ... .. 9 ... : ... .. . ... ... : ... .. . ... ... : ... .. . ... ... : ... .. D ... ...
ROW 0A : ... .. 5 ... ... ... : ... .. . ... ... ... : A-1 00 . ... : ... .. 4 ... : ... .. . ... ... : ... .. . ... ... : ... .. . ... ... : ... .. 8 ... ...
ROW 0B : ... .. . ... ... ... : ... .. . ... ... ... : G#1 00 . ... : ... .. 2 ... : ... .. . ... ... : ... .. . ... ... : ... .. . ... ... : ... .. . ... ...
ROW 0C : E-5 00 8 ... ... ... : ... .. . ... ... ... : D#1 00 . ... : ... .. 1 ... : ... .. . ... ... : ... .. . ... ... : ... .. . ... ... : ... .. . ... ...
ROW 0D : ... .. 7 ... ... ... : ... .. . ... ... ... : ... .. . ... : ... .. 0 ... : ... .. . ... ... : ... .. . ... ... : ... .. . ... ... : ... .. 4 ... ...
ROW 0E : ... .. 6 ... ... ... : ... .. . ... ... ... : ... .. . ... : ... .. . ... : ... .. . ... ... : ... .. . ... ... : ... .. . ... ... : ... .. . ... ...
ROW 0F : F#5 00 A ... ... ... : ... .. . ... ... ... : ... .. . ... : ... .. . ... : ... .. . ... ... : ... .. . ... ... : ... .. . ... ... : ... .. 1 ... ...
ROW 10 : ... .. 9 ... ... ... : ... .. . ... ... ... : D-3 00 . ... : ... .. F ... : ... .. . ... ... : ... .. . ... ... : ... .. . ... ... : ... .. F ... ...
ROW 11 : ... .. 8 ... ... ... : ... .. . ... ... ... : E-2 00 . ... : ... .. C ... : ... .. . ... ... : ... .. . ... ... : ... .. . ... ... : ... .. D ... ...
ROW 12 : G-5 00 C ... ... ... : ... .. . ... ... ... : A-1 00 . ... : ... .. 6 ... : ... .. . ... ... : ... .. . ... ... : ... .. . ... ... : ... .. 8 ... ...
ROW 13 : ... .. B ... ... ... : ... .. . ... ... ... : G#1 00 . ... : ... .. 3 ... : ... .. . ... ... : ... .. . ... ... : ... .. . ... ... : ... .. . ... ...
ROW 14 : ... .. A ... ... ... : ... .. . ... ... ... : D#1 00 . ... : ... .. 2 ... : ... .. . ... ... : ... .. . ... ... : ... .. . ... ... : ... .. . ... ...
ROW 15 : A-5 00 E ... ... ... : ... .. . ... ... ... : ... .. . ... : ... .. 0 ... : ... .. . ... ... : ... .. . ... ... : ... .. . ... ... : ... .. . ... ...
ROW 16 : ... .. D ... ... ... : ... .. . ... ... ... : ... .. . ... : ... .. . ... : ... .. . ... ... : ... .. . ... ... : ... .. . ... ... : ... .. 4 ... ...
ROW 17 : ... .. C ... ... ... : ... .. . ... ... ... : ... .. . ... : ... .. . ... : ... .. . ... ... : ... .. . ... ... : ... .. . ... ... : ... .. . ... ...
ROW 18 : B-5 00 E ... ... ... : F#2 00 8 P80 ... ... : A#4 00 . ... : ... .. F ... : ... .. . ... ... : D-3 01 5 ... ... : F#2 01 A ... ... : D-3 01 A ... ...
ROW 19 : ... .. D ... ... ... : ... .. B ... ... ... : C-4 00 . ... : ... .. C ... : ... .. . ... ... : ... .. 4 ... ... : ... .. 9 ... ... : ... .. 8 ... ...
ROW 1A : ... .. C ... ... ... : ... .. 8 ... ... ... : F-3 00 . ... : ... .. 6 ... : ... .. . ... ... : ... .. . ... ... : ... .. 8 ... ... : ... .. 5 ... ...
ROW 1B : ... .. 6 ... ... ... : ... .. 0 ... ... ... : E-3 00 . ... : ... .. 3 ... : ... .. . ... ... : E-3 01 5 ... ... : ... .. 7 ... ... : ... .. . ... ...
ROW 1C : ... .. . ... ... ... : F#2 00 5 P80 ... ... : B-2 00 . ... : ... .. 2 ... : ... .. . ... ... : ... .. 4 ... ... : ... .. . ... ... : ... .. . ... ...
ROW 1D : ... .. . ... ... ... : ... .. 8 ... ... ... : ... .. . ... : ... .. 0 ... : ... .. . ... ... : ... .. . ... ... : ... .. 6 ... ... : ... .. . ... ...
ROW 1E : ... .. 4 ... ... ... : G-2 00 8 ... ... ... : ... .. . ... : 2-# 00 F ... : ... .. . ... ... : F#3 01 5 ... ... : ... .. . ... ... : ... .. . ... ...
ROW 1F : ... .. . ... ... ... : ... .. B ... ... ... : ... .. . ... : ... .. C ... : ... .. . ... ... : ... .. 4 ... ... : ... .. 5 ... ... : ... .. . ... ...
ROW 20 : ... .. . ... ... ... : ... .. 8 ... ... ... : ... .. . ... : ... .. 6 ... : ... .. . ... ... : ... .. . ... ... : ... .. . ... ... : ... .. . ... ...
ROW 21 : ... .. 2 ... ... ... : ... .. 0 ... ... ... : ... .. . ... : ... .. 3 ... : ... .. . ... ... : G-3 01 5 ... ... : ... .. . ... ... : ... .. . ... ...
ROW 22 : ... .. . ... ... ... : G-2 00 5 P80 ... ... : ... .. . ... : ... .. 2 ... : ... .. . ... ... : ... .. 4 ... ... : ... .. . ... ... : ... .. . ... ...
ROW 23 : ... .. . ... ... ... : ... .. 8 ... ... ... : ... .. . ... : ... .. 0 ... : ... .. . ... ... : ... .. . ... ... : ... .. . ... ... : ... .. . ... ...
ROW 24 : B-2 00 F ... ... ... : A-2 00 8 ... ... ... : A#2 00 . P7B : 1-# 00 F ... : ... .. . ... ... : A-3 01 5 ... ... : ... .. . ... ... : ... .. . ... ...
ROW 25 : ... .. E ... ... ... : ... .. B ... ... ... : A-2 00 . P77 : ... .. C ... : ... .. . ... ... : ... .. 4 ... ... : ... .. . ... ... : ... .. . ... ...
ROW 26 : ... .. D ... ... ... : ... .. 8 ... ... ... : G#2 00 . P76 : ... .. 6 ... : ... .. . ... ... : ... .. . ... ... : ... .. . ... ... : ... .. . ... ...
ROW 27 : ... .. A ... ... ... : ... .. 0 ... ... ... : G-2 00 . ... : ... .. 3 ... : ... .. . ... ... : B-3 01 5 ... ... : ... .. . ... ... : ... .. . ... ...
ROW 28 : ... .. . ... ... ... : A-2 00 5 P80 ... ... : F#2 00 . P78 : ... .. 2 ... : ... .. . ... ... : ... .. 4 ... ... : ... .. . ... ... : ... .. . ... ...
ROW 29 : ... .. . ... ... ... : ... .. 8 ... ... ... : F-2 00 . P7C : ... .. 0 ... : ... .. . ... ... : ... .. . ... ... : ... .. . ... ... : ... .. . ... ...
ROW 2A : ... .. . ... ... ... : B-2 00 8 ... ... ... : E-2 00 . P82 : C-# 00 F ... : ... .. . ... ... : C#4 01 5 ... ... : ... .. . ... ... : ... .. . ... ...
ROW 2B : ... .. 2 ... ... ... : ... .. B ... ... ... : D#2 00 . P8A : ... .. C ... : ... .. . ... ... : ... .. 4 ... ... : ... .. . ... ... : ... .. . ... ...
ROW 2C : ... .. . ... ... ... : ... .. 8 ... ... ... : D-2 00 . P95 : ... .. 6 ... : ... .. . ... ... : ... .. . ... ... : ... .. . ... ... : ... .. . ... ...
ROW 2D : ... .. . ... ... ... : ... .. 0 ... ... ... : ... .. . P75 : ... .. 3 ... : ... .. . ... ... : D-4 01 5 ... ... : ... .. . ... ... : ... .. . ... ...
ROW 2E : ... .. 1 ... ... ... : B-2 00 5 P80 ... ... : C#2 00 . P82 : ... .. 2 ... : ... .. . ... ... : ... .. 4 ... ... : ... .. . ... ... : ... .. . ... ...
ROW 2F : ... .. . ... ... ... : ... .. 8 ... ... ... : C-2 00 . P92 : ... .. 0 ... : ... .. . ... ... : ... .. . ... ... : ... .. . ... ... : ... .. . ... ...
ROW 30 : F#3 00 F ... ... ... : F#2 00 8 ... ... ... : A#3 00 . P80 : 7-# 00 F ... : ... .. . ... ... : E-4 01 5 ... ... : ... .. . ... ... : ... .. . ... ...
ROW 31 : ... .. E ... ... ... : ... .. B ... ... ... : C-3 00 . ... : ... .. C ... : ... .. . ... ... : ... .. 4 ... ... : ... .. . ... ... : ... .. . ... ...
ROW 32 : ... .. D ... ... ... : ... .. 8 ... ... ... : F-2 00 . ... : ... .. 6 ... : ... .. . ... ... : ... .. . ... ... : ... .. . ... ... : ... .. . ... ...
ROW 33 : ... .. A ... ... ... : ... .. 0 ... ... ... : E-2 00 . ... : ... .. 3 ... : ... .. . ... ... : F#4 01 5 ... ... : ... .. . ... ... : ... .. . ... ...
ROW 34 : ... .. . ... ... ... : F#2 00 5 P80 ... ... : B-1 00 . ... : ... .. 2 ... : ... .. . ... ... : ... .. 4 ... ... : ... .. . ... ... : ... .. . ... ...
ROW 35 : ... .. . ... ... ... : ... .. 8 ... ... ... : ... .. . ... : ... .. 0 ... : ... .. . ... ... : ... .. . ... ... : ... .. . ... ... : ... .. . ... ...
ROW 36 : ... .. . ... ... ... : G-2 00 8 ... ... ... : ... .. . ... : 1-# 00 F ... : ... .. . ... ... : G-4 01 5 ... ... : ... .. . ... ... : ... .. . ... ...
ROW 37 : ... .. . ... ... ... : ... .. B ... ... ... : ... .. . ... : ... .. C ... : ... .. . ... ... : ... .. 4 ... ... : ... .. . ... ... : ... .. . ... ...
ROW 38 : ... .. . ... ... ... : ... .. 8 ... ... ... : ... .. . ... : ... .. 6 ... : ... .. . ... ... : ... .. . ... ... : ... .. . ... ... : ... .. . ... ...
ROW 39 : ... .. . ... ... ... : ... .. 0 ... ... ... : ... .. . ... : ... .. 3 ... : ... .. . ... ... : A-4 01 5 ... ... : ... .. . ... ... : ... .. . ... ...
ROW 3A : ... .. 2 ... ... ... : G-2 00 5 P80 ... ... : ... .. . ... : ... .. 2 ... : ... .. . ... ... : ... .. 4 ... ... : ... .. . ... ... : ... .. . ... ...
ROW 3B : ... .. . ... ... ... : ... .. 8 ... ... ... : ... .. . ... : ... .. 0 ... : ... .. . ... ... : ... .. . ... ... : ... .. . ... ... : ... .. . ... ...
ROW 3C : B-2 00 F ... ... ... : A-2 00 8 ... ... ... : ... .. . ... : C-# 00 F ... : ... .. . ... ... : B-4 01 5 ... ... : D-2 01 A ... ... : B-2 01 A ... ...
ROW 3D : ... .. E ... ... ... : ... .. B ... ... ... : ... .. . ... : ... .. C ... : ... .. . ... ... : ... .. 4 ... ... : ... .. 9 ... ... : ... .. 8 ... ...
ROW 3E : ... .. D ... ... ... : ... .. 8 ... ... ... : ... .. . ... : ... .. 6 ... : ... .. . ... ... : ... .. . ... ... : ... .. 8 ... ... : ... .. 5 ... ...
ROW 3F : ... .. A ... ... ... : ... .. 0 ... ... ... : ... .. . ... : ... .. 3 ... : ... .. . ... ... : C#5 01 5 ... ... : ... .. 7 ... ... : ... .. . ... ...
ROW 40 : ... .. . ... ... ... : A-2 00 5 P80 ... ... : ... .. . ... : ... .. 2 ... : ... .. . ... ... : ... .. 4 ... ... : ... .. . ... ... : ... .. . ... ...
ROW 41 : ... .. . ... ... ... : ... .. 8 ... ... ... : ... .. . ... : ... .. 0 ... : ... .. . ... ... : ... .. . ... ... : ... .. 6 ... ... : ... .. . ... ...
ROW 42 : ... .. . ... ... ... : B-2 00 8 ... ... ... : ... .. . ... : 7-# 00 F ... : ... .. . ... ... : D-5 01 5 ... ... : --- .. . P84 ... : --- .. . P8B ...
ROW 43 : ... .. . ... ... ... : ... .. B ... ... ... : ... .. . ... : ... .. C ... : ... .. . ... ... : ... .. 4 ... ... : ... .. . ... ... : ... .. . ... ...
ROW 44 : ... .. . ... ... ... : ... .. 8 ... ... ... : ... .. . ... : ... .. 6 ... : ... .. . ... ... : ... .. . ... ... : ... .. . ... ... : ... .. . ... ...
ROW 45 : ... .. . ... ... ... : ... .. 0 ... ... ... : ... .. . ... : ... .. 3 ... : ... .. . ... ... : E-5 01 5 ... ... : ... .. . ... ... : ... .. . ... ...
ROW 46 : ... .. 2 ... ... ... : B-2 00 5 P80 ... ... : ... .. . ... : ... .. 2 ... : ... .. . ... ... : ... .. 4 ... ... : ... .. . ... ... : ... .. . ... ...
ROW 47 : ... .. . ... ... ... : ... .. 8 ... ... ... : ... .. . ... : ... .. 0 ... : ... .. . ... ... : ... .. . ... ... : ... .. . ... ... : ... .. . ... ...
ROW 48 : F#3 00 F ... ... ... : F#2 00 8 ... ... ... : A#4 00 . ... : 1-# 00 F ... : ... .. . ... ... : F#5 01 5 ... ... : B-2 01 A P80 ... : F#3 01 A P80 ...
ROW 49 : ... .. E ... ... ... : ... .. B ... ... ... : C-4 00 . ... : ... .. C ... : ... .. . ... ... : ... .. 4 ... ... : ... .. 9 ... ... : ... .. 8 ... ...
ROW 4A : ... .. D ... ... ... : ... .. 8 ... ... ... : F-3 00 . ... : ... .. 6 ... : ... .. . ... ... : ... .. . ... ... : ... .. 8 ... ... : ... .. 5 ... ...
ROW 4B : ... .. A ... ... ... : ... .. 0 ... ... ... : E-3 00 . ... : ... .. 3 ... : ... .. . ... ... : E-5 01 5 ... ... : ... .. 7 ... ... : ... .. . ... ...
ROW 4C : ... .. . ... ... ... : F#2 00 5 P80 ... ... : B-2 00 . ... : ... .. 2 ... : ... .. . ... ... : ... .. 4 ... ... : ... .. . ... ... : ... .. . ... ...
ROW 4D : ... .. . ... ... ... : ... .. 8 ... ... ... : ... .. . ... : ... .. 0 ... : ... .. . ... ... : ... .. . ... ... : ... .. 6 ... ... : ... .. . ... ...
ROW 4E : ... .. . ... ... ... : G-2 00 8 ... ... ... : ... .. . ... : B-# 00 F ... : ... .. . ... ... : D-5 01 5 ... ... : ... .. . ... ... : ... .. . ... ...
ROW 4F : ... .. . ... ... ... : ... .. B ... ... ... : ... .. . ... : ... .. C ... : ... .. . ... ... : ... .. 4 ... ... : ... .. 5 ... ... : ... .. . ... ...
ROW 50 : ... .. . ... ... ... : ... .. 8 ... ... ... : ... .. . ... : ... .. 6 ... : ... .. . ... ... : ... .. . ... ... : ... .. . ... ... : ... .. . ... ...
ROW 51 : ... .. . ... ... ... : ... .. 0 ... ... ... : ... .. . ... : ... .. 3 ... : ... .. . ... ... : C#5 01 5 ... ... : ... .. . ... ... : ... .. . ... ...
ROW 52 : ... .. . ... ... ... : G-2 00 5 P80 ... ... : ... .. . ... : ... .. 2 ... : ... .. . ... ... : ... .. 4 ... ... : ... .. . ... ... : ... .. . ... ...
ROW 53 : ... .. . ... ... ... : ... .. 8 ... ... ... : ... .. . ... : ... .. 0 ... : ... .. . ... ... : ... .. . ... ... : ... .. . ... ... : ... .. . ... ...
ROW 54 : ... .. . ... ... ... : A-2 00 8 ... ... ... : A#2 00 . P7B : 7-# 00 F ... : ... .. . ... ... : B-4 01 5 ... ... : ... .. . ... ... : ... .. . ... ...
ROW 55 : ... .. . ... ... ... : ... .. B ... ... ... : A-2 00 . P77 : ... .. C ... : ... .. . ... ... : ... .. 4 ... ... : ... .. . ... ... : ... .. . ... ...
ROW 56 : ... .. . ... ... ... : ... .. 8 ... ... ... : G#2 00 . P76 : ... .. 6 ... : ... .. . ... ... : ... .. . ... ... : ... .. . ... ... : ... .. . ... ...
ROW 57 : ... .. . ... ... ... : ... .. 0 ... ... ... : G-2 00 . ... : ... .. 3 ... : ... .. . ... ... : A-4 01 5 ... ... : ... .. . ... ... : ... .. . ... ...
ROW 58 : ... .. . ... ... ... : A-2 00 5 P80 ... ... : F#2 00 . P78 : ... .. 2 ... : ... .. . ... ... : ... .. 4 ... ... : ... .. . ... ... : ... .. . ... ...
ROW 59 : ... .. . ... ... ... : ... .. 8 ... ... ... : F-2 00 . P7C : ... .. 0 ... : ... .. . ... ... : ... .. . ... ... : ... .. . ... ... : ... .. . ... ...
ROW 5A : ... .. . ... ... ... : B-2 00 8 ... ... ... : E-2 00 . P82 : 1-# 00 F ... : ... .. . ... ... : G-4 01 5 ... ... : ... .. . ... ... : ... .. . ... ...
ROW 5B : ... .. 2 ... ... ... : ... .. B ... ... ... : D#2 00 . P8A : ... .. C ... : ... .. . ... ... : ... .. 4 ... ... : ... .. . ... ... : ... .. . ... ...
ROW 5C : ... .. . ... ... ... : ... .. 8 ... ... ... : D-2 00 . P95 : ... .. 6 ... : ... .. . ... ... : ... .. . ... ... : ... .. . ... ... : ... .. . ... ...
ROW 5D : ... .. . ... ... ... : ... .. 0 ... ... ... : ... .. . P75 : ... .. 3 ... : ... .. . ... ... : F#4 01 5 ... ... : --- .. . P85 ... : --- .. . P82 ...
ROW 5E : ... .. 1 ... ... ... : B-2 00 5 P80 ... ... : C#2 00 . P82 : ... .. 2 ... : ... .. . ... ... : ... .. 4 ... ... : ... .. . ... ... : ... .. . ... ...
ROW 5F : ... .. . ... ... ... : ... .. 8 ... ... ... : C-2 00 . P92 : ... .. 0 ... : ... .. . ... ... : ... .. . ... ... : ... .. . ... ... : ... .. . ... ...
ROW 60 : B-2 00 F ... ... ... : F#2 00 8 ... ... ... : A#3 00 . P80 : 9-# 00 F ... : ... .. . ... ... : E-4 01 5 ... ... : D-3 01 6 P80 ... : D-3 01 A P80 ...
ROW 61 : ... .. E ... ... ... : ... .. B ... ... ... : C-3 00 . ... : ... .. C ... : ... .. . ... ... : ... .. 4 ... ... : ... .. . ... ... : ... .. 8 ... ...
ROW 62 : ... .. D ... ... ... : ... .. 8 ... ... ... : F-2 00 . ... : ... .. 6 ... : ... .. . ... ... : ... .. . ... ... : ... .. 5 ... ... : ... .. 5 ... ...
ROW 63 : ... .. A ... ... ... : ... .. 0 ... ... ... : E-2 00 . ... : ... .. 3 ... : ... .. . ... ... : D-4 01 5 ... ... : ... .. 4 ... ... : ... .. . ... ...
ROW 64 : ... .. . ... ... ... : F#2 00 5 P80 ... ... : B-1 00 . ... : ... .. 2 ... : ... .. . ... ... : ... .. 4 ... ... : ... .. . ... ... : ... .. . ... ...
ROW 65 : ... .. . ... ... ... : ... .. 8 ... ... ... : ... .. . ... : ... .. 0 ... : ... .. . ... ... : ... .. . ... ... : --- .. . P82 ... : --- .. . P84 ...
ROW 66 : ... .. . ... ... ... : G-2 00 8 ... ... ... : ... .. . ... : ... .. F ... : ... .. . ... ... : C-4 01 5 ... ... : ... .. . ... ... : ... .. . ... ...
ROW 67 : ... .. . ... ... ... : ... .. B ... ... ... : ... .. . ... : ... .. C ... : ... .. . ... ... : ... .. 4 ... ... : ... .. . ... ... : ... .. . ... ...
ROW 68 : ... .. . ... ... ... : ... .. 8 ... ... ... : ... .. . ... : ... .. 6 ... : ... .. . ... ... : ... .. . ... ... : D-3 01 6 P80 ... : D-3 01 A P80 ...
ROW 69 : ... .. . ... ... ... : ... .. 0 ... ... ... : ... .. . ... : ... .. 3 ... : ... .. . ... ... : C#4 01 5 ... ... : ... .. . ... ... : ... .. 8 ... ...
ROW 6A : ... .. . ... ... ... : G-2 00 5 P80 ... ... : ... .. . ... : ... .. 2 ... : ... .. . ... ... : ... .. 4 ... ... : ... .. 5 ... ... : ... .. 5 ... ...
ROW 6B : ... .. . ... ... ... : ... .. 8 ... ... ... : ... .. . ... : ... .. 0 ... : ... .. . ... ... : ... .. . ... ... : ... .. 4 ... ... : ... .. . ... ...
ROW 6C : A-3 00 F ... ... ... : A-2 00 8 ... ... ... : ... .. . ... : 7-# 00 F ... : ... .. . ... ... : B-3 01 5 ... ... : --- .. . P82 ... : --- .. . P84 ...
ROW 6D : ... .. E ... ... ... : ... .. B ... ... ... : ... .. . ... : ... .. C ... : ... .. . ... ... : ... .. 4 ... ... : ... .. . ... ... : ... .. . ... ...
ROW 6E : ... .. D ... ... ... : ... .. 8 ... ... ... : ... .. . ... : ... .. 6 ... : ... .. . ... ... : ... .. . ... ... : ... .. . ... ... : ... .. . ... ...
ROW 6F : ... .. A ... ... ... : ... .. 0 ... ... ... : ... .. . ... : ... .. 3 ... : ... .. . ... ... : A-3 01 5 ... ... : ... .. . ... ... : ... .. . ... ...
ROW 70 : ... .. . ... ... ... : A-2 00 5 P80 ... ... : ... .. . ... : ... .. 2 ... : ... .. . ... ... : ... .. 4 ... ... : D-3 01 6 P80 ... : D-3 01 A P80 ...
ROW 71 : ... .. . ... ... ... : ... .. 8 ... ... ... : ... .. . ... : ... .. 0 ... : ... .. . ... ... : ... .. . ... ... : ... .. . ... ... : ... .. 8 ... ...
ROW 72 : ... .. . ... ... ... : B-2 00 8 ... ... ... : ... .. . ... : ... .. F ... : ... .. . ... ... : G-3 01 5 ... ... : ... .. 5 ... ... : ... .. 5 ... ...
ROW 73 : ... .. . ... ... ... : ... .. B ... ... ... : ... .. . ... : ... .. C ... : ... .. . ... ... : ... .. 4 ... ... : ... .. 4 ... ... : ... .. . ... ...
ROW 74 : ... .. . ... ... ... : ... .. 8 ... ... ... : ... .. . ... : ... .. 6 ... : ... .. . ... ... : ... .. . ... ... : ... .. . ... ... : ... .. . ... ...
ROW 75 : ... .. . ... ... ... : ... .. 0 ... ... ... : ... .. . ... : ... .. 3 ... : ... .. . ... ... : F#3 01 5 ... ... : --- .. . P82 ... : --- .. . P84 ...
ROW 76 : ... .. 2 ... ... ... : B-2 00 5 P80 ... ... : ... .. . ... : ... .. 2 ... : ... .. . ... ... : ... .. 4 ... ... : ... .. . ... ... : ... .. . ... ...
ROW 77 : ... .. . ... ... ... : ... .. 8 ... ... ... : ... .. . ... : ... .. 0 ... : ... .. . ... ... : ... .. . ... ... : ... .. . ... ... : ... .. . ... ...
ROW 78 : G-3 00 F ... ... ... : F#2 00 8 ... ... ... : A#4 00 . ... : 9-# 00 F ... : ... .. . ... ... : E-3 01 5 ... ... : E-2 01 6 P80 ... : E-3 01 A P80 ...
ROW 79 : ... .. E ... ... ... : ... .. B ... ... ... : C-4 00 . ... : ... .. C ... : ... .. . ... ... : ... .. 4 ... ... : ... .. . ... ... : ... .. 8 ... ...
ROW 7A : ... .. D ... ... ... : ... .. 8 ... ... ... : F-3 00 . ... : ... .. 6 ... : ... .. . ... ... : ... .. . ... ... : ... .. 5 ... ... : ... .. 5 ... ...
ROW 7B : ... .. A ... ... ... : ... .. 0 ... ... ... : E-3 00 . ... : ... .. 3 ... : ... .. . ... ... : F#3 01 5 ... ... : --- .. . P83 ... : --- .. . P7D ...
ROW 7C : ... .. . ... ... ... : F#2 00 5 P80 ... ... : B-2 00 . ... : ... .. 2 ... : ... .. . ... ... : ... .. 4 ... ... : ... .. . ... ... : ... .. . ... ...
ROW 7D : ... .. . ... ... ... : ... .. 8 ... ... ... : ... .. . ... : ... .. 0 ... : ... .. . ... ... : ... .. . ... ... : ... .. . ... ... : ... .. . ... ...
ROW 7E : ... .. . ... ... ... : G-2 00 8 ... ... ... : ... .. . ... : 2-# 00 F ... : ... .. . ... ... : G-3 01 5 ... ... : G-2 01 6 P80 ... : F#3 01 A P80 ...
ROW 7F : ... .. . ... ... ... : ... .. B ... ... ... : ... .. . ... : ... .. C ... : ... .. . ... ... : ... .. 4 ... ... : ... .. . ... ... : ... .. 8 ... ...
ROW 80 : ... .. . ... ... ... : ... .. 8 ... ... ... : ... .. . ... : ... .. 6 ... : ... .. . ... ... : ... .. . ... ... : ... .. 5 ... ... : ... .. 5 ... ...
ROW 81 : ... .. . ... ... ... : ... .. 0 ... ... ... : ... .. . ... : ... .. 3 ... : ... .. . ... ... : A-3 01 5 ... ... : --- .. . P81 ... : --- .. . P82 ...
ROW 82 : ... .. . ... ... ... : G-2 00 5 P80 ... ... : ... .. . ... : ... .. 2 ... : ... .. . ... ... : ... .. 4 ... ... : ... .. . ... ... : ... .. . ... ...
ROW 83 : ... .. . ... ... ... : ... .. 8 ... ... ... : ... .. . ... : ... .. 0 ... : ... .. . ... ... : ... .. . ... ... : ... .. . ... ... : ... .. . ... ...
ROW 84 : ... .. . ... ... ... : A-2 00 8 ... ... ... : A#2 00 . P7B : 1-# 00 F ... : ... .. . ... ... : B-3 01 5 ... ... : C-3 01 6 P80 ... : G-3 01 A P80 ...
ROW 85 : ... .. 2 ... ... ... : ... .. B ... ... ... : A-2 00 . P77 : ... .. C ... : ... .. . ... ... : ... .. 4 ... ... : ... .. . ... ... : ... .. 8 ... ...
ROW 86 : ... .. . ... ... ... : ... .. 8 ... ... ... : G#2 00 . P76 : ... .. 6 ... : ... .. . ... ... : ... .. . ... ... : ... .. 5 ... ... : ... .. 5 ... ...
ROW 87 : ... .. . ... ... ... : ... .. 0 ... ... ... : G-2 00 . ... : ... .. 3 ... : ... .. . ... ... : C-4 01 5 ... ... : ... .. 4 ... ... : ... .. . ... ...
ROW 88 : ... .. 1 ... ... ... : A-2 00 5 P80 ... ... : F#2 00 . P78 : ... .. 2 ... : ... .. . ... ... : ... .. 4 ... ... : ... .. . ... ... : ... .. . ... ...
ROW 89 : ... .. . ... ... ... : ... .. 8 ... ... ... : F-2 00 . P7C : ... .. 0 ... : ... .. . ... ... : ... .. . ... ... : ... .. . ... ... : ... .. . ... ...
ROW 8A : F#3 00 F ... ... ... : B-2 00 8 ... ... ... : E-2 00 . P82 : C-# 00 F ... : ... .. . ... ... : D-4 01 5 ... ... : ... .. . ... ... : ... .. . ... ...
ROW 8B : ... .. E ... ... ... : ... .. B ... ... ... : D#2 00 . P8A : ... .. C ... : ... .. . ... ... : ... .. 4 ... ... : ... .. 3 ... ... : ... .. . ... ...
ROW 8C : ... .. D ... ... ... : ... .. 8 ... ... ... : D-2 00 . P95 : ... .. 6 ... : ... .. . ... ... : ... .. . ... ... : ... .. . ... ... : ... .. . ... ...
ROW 8D : ... .. A ... ... ... : ... .. 0 ... ... ... : ... .. . P75 : ... .. 3 ... : ... .. . ... ... : E-4 01 5 ... ... : ... .. . ... ... : ... .. . ... ...
ROW 8E : ... .. . ... ... ... : B-2 00 5 P80 ... ... : C#2 00 . P82 : ... .. 2 ... : ... .. . ... ... : ... .. 4 ... ... : ... .. . ... ... : ... .. . ... ...
ROW 8F : ... .. . ... ... ... : ... .. 8 ... ... ... : C-2 00 . P92 : ... .. 0 ... : ... .. . ... ... : ... .. . ... ... : ... .. . ... ... : ... .. . ... ...
ROW 90 : ... .. . ... ... ... : F#2 00 8 ... ... ... : A#3 00 . P80 : 7-# 00 F ... : ... .. . ... ... : F#4 01 5 ... ... : ... .. . ... ... : ... .. . ... ...
ROW 91 : ... .. . ... ... ... : ... .. B ... ... ... : C-3 00 . ... : ... .. C ... : ... .. . ... ... : ... .. 4 ... ... : ... .. . ... ... : ... .. . ... ...
ROW 92 : ... .. . ... ... ... : ... .. 8 ... ... ... : F-2 00 . ... : ... .. 6 ... : ... .. . ... ... : ... .. . ... ... : ... .. . ... ... : ... .. . ... ...
ROW 93 : ... .. . ... ... ... : ... .. 0 ... ... ... : E-2 00 . ... : ... .. 3 ... : ... .. . ... ... : G-4 01 5 ... ... : ... .. . ... ... : ... .. . ... ...
ROW 94 : ... .. . ... ... ... : F#2 00 5 P80 ... ... : B-1 00 . ... : ... .. 2 ... : ... .. . ... ... : ... .. 4 ... ... : ... .. . ... ... : ... .. . ... ...
ROW 95 : ... .. . ... ... ... : ... .. 8 ... ... ... : ... .. . ... : ... .. 0 ... : ... .. . ... ... : ... .. . ... ... : ... .. . ... ... : ... .. . ... ...
ROW 96 : ... .. . ... ... ... : G-2 00 8 ... ... ... : ... .. . ... : 1-# 00 F ... : ... .. . ... ... : A-4 01 5 ... ... : ... .. . ... ... : ... .. . ... ...
ROW 97 : ... .. 2 ... ... ... : ... .. B ... ... ... : ... .. . ... : ... .. C ... : ... .. . ... ... : ... .. 4 ... ... : ... .. . ... ... : ... .. . ... ...
ROW 98 : ... .. . ... ... ... : ... .. 8 ... ... ... : ... .. . ... : ... .. 6 ... : ... .. . ... ... : ... .. . ... ... : ... .. . ... ... : ... .. . ... ...
ROW 99 : ... .. . ... ... ... : ... .. 0 ... ... ... : ... .. . ... : ... .. 3 ... : ... .. . ... ... : B-4 01 5 ... ... : ... .. . ... ... : ... .. . ... ...
ROW 9A : ... .. 1 ... ... ... : G-2 00 5 P80 ... ... : ... .. . ... : ... .. 2 ... : ... .. . ... ... : ... .. 4 ... ... : ... .. . ... ... : ... .. . ... ...
ROW 9B : ... .. . ... ... ... : ... .. 8 ... ... ... : ... .. . ... : ... .. 0 ... : ... .. . ... ... : ... .. . ... ... : ... .. . ... ... : ... .. . ... ...
ROW 9C : E-3 00 F ... ... ... : A-2 00 8 ... ... ... : ... .. . ... : C-# 00 F ... : ... .. . ... ... : C-5 01 5 ... ... : ... .. . ... ... : ... .. . ... ...
ROW 9D : ... .. E ... ... ... : ... .. B ... ... ... : ... .. . ... : ... .. C ... : ... .. . ... ... : ... .. 4 ... ... : ... .. . ... ... : ... .. . ... ...
ROW 9E : ... .. D ... ... ... : ... .. 8 ... ... ... : ... .. . ... : ... .. 6 ... : ... .. . ... ... : ... .. . ... ... : ... .. . ... ... : ... .. . ... ...
ROW 9F : ... .. A ... ... ... : ... .. 0 ... ... ... : ... .. . ... : ... .. 3 ... : ... .. . ... ... : D-5 01 5 ... ... : ... .. . ... ... : ... .. . ... ...
ROW A0 : ... .. . ... ... ... : A-2 00 5 P80 ... ... : ... .. . ... : ... .. 2 ... : ... .. . ... ... : ... .. 4 ... ... : ... .. . ... ... : ... .. . ... ...
ROW A1 : ... .. . ... ... ... : ... .. 8 ... ... ... : ... .. . ... : ... .. 0 ... : ... .. . ... ... : ... .. . ... ... : ... .. . ... ... : ... .. . ... ...
ROW A2 : ... .. . ... ... ... : B-2 00 8 ... ... ... : ... .. . ... : 7-# 00 F ... : ... .. . ... ... : E-5 01 5 ... ... : --- .. . P7E ... : --- .. . P7F ...
ROW A3 : ... .. . ... ... ... : ... .. B ... ... ... : ... .. . ... : ... .. C ... : ... .. . ... ... : ... .. 4 ... ... : ... .. . ... ... : ... .. . ... ...
ROW A4 : ... .. . ... ... ... : ... .. 8 ... ... ... : ... .. . ... : ... .. 6 ... : ... .. . ... ... : ... .. . ... ... : ... .. . ... ... : ... .. . ... ...
ROW A5 : ... .. . ... ... ... : ... .. 0 ... ... ... : ... .. . ... : ... .. 3 ... : ... .. . ... ... : F#5 01 5 ... ... : ... .. . ... ... : ... .. . ... ...
ROW A6 : ... .. . ... ... ... : B-2 00 5 P80 ... ... : ... .. . ... : ... .. 2 ... : ... .. . ... ... : ... .. 4 ... ... : ... .. . ... ... : ... .. . ... ...
ROW A7 : ... .. . ... ... ... : ... .. 8 ... ... ... : ... .. . ... : ... .. 0 ... : ... .. . ... ... : ... .. . ... ... : ... .. . ... ... : ... .. . ... ...
ROW A8 : ... .. . ... ... ... : F#2 00 8 ... ... ... : A#4 00 . ... : 1-# 00 F ... : ... .. . ... ... : G-5 01 5 ... ... : G-2 01 6 P80 ... : E-3 01 A P80 ...
ROW A9 : ... .. . ... ... ... : ... .. B ... ... ... : C-4 00 . ... : ... .. C ... : ... .. . ... ... : ... .. 4 ... ... : ... .. . ... ... : ... .. 8 ... ...
ROW AA : ... .. . ... ... ... : ... .. 8 ... ... ... : F-3 00 . ... : ... .. 6 ... : ... .. . ... ... : ... .. . ... ... : ... .. 5 ... ... : ... .. 5 ... ...
ROW AB : ... .. . ... ... ... : ... .. 0 ... ... ... : E-3 00 . ... : ... .. 3 ... : ... .. . ... ... : F#5 01 5 ... ... : ... .. 4 ... ... : ... .. . ... ...
ROW AC : ... .. . ... ... ... : F#2 00 5 P80 ... ... : B-2 00 . ... : ... .. 2 ... : ... .. . ... ... : ... .. 4 ... ... : ... .. . ... ... : ... .. . ... ...
ROW AD : ... .. . ... ... ... : ... .. 8 ... ... ... : ... .. . ... : ... .. 0 ... : ... .. . ... ... : ... .. . ... ... : ... .. . ... ... : ... .. . ... ...
ROW AE : ... .. . ... ... ... : G-2 00 8 ... ... ... : ... .. . ... : B-# 00 F ... : ... .. . ... ... : E-5 01 5 ... ... : ... .. . ... ... : ... .. . ... ...
ROW AF : ... .. . ... ... ... : ... .. B ... ... ... : ... .. . ... : ... .. C ... : ... .. . ... ... : ... .. 4 ... ... : ... .. 3 ... ... : ... .. . ... ...
ROW B0 : ... .. . ... ... ... : ... .. 8 ... ... ... : ... .. . ... : ... .. 6 ... : ... .. . ... ... : ... .. . ... ... : ... .. . ... ... : ... .. . ... ...
ROW B1 : ... .. . ... ... ... : ... .. 0 ... ... ... : ... .. . ... : ... .. 3 ... : ... .. . ... ... : D-5 01 5 ... ... : ... .. . ... ... : ... .. . ... ...
ROW B2 : ... .. . ... ... ... : G-2 00 5 P80 ... ... : ... .. . ... : ... .. 2 ... : ... .. . ... ... : ... .. 4 ... ... : ... .. . ... ... : ... .. . ... ...
ROW B3 : ... .. . ... ... ... : ... .. 8 ... ... ... : ... .. . ... : ... .. 0 ... : ... .. . ... ... : ... .. . ... ... : ... .. . ... ... : ... .. . ... ...
ROW B4 : ... .. . ... ... ... : A-2 00 8 ... ... ... : A#2 00 . P7B : 7-# 00 F ... : ... .. . ... ... : C-5 01 5 ... ... : ... .. . ... ... : ... .. . ... ...
ROW B5 : ... .. . ... ... ... : ... .. B ... ... ... : A-2 00 . P77 : ... .. C ... : ... .. . ... ... : ... .. 4 ... ... : ... .. . ... ... : ... .. . ... ...
ROW B6 : ... .. . ... ... ... : ... .. 8 ... ... ... : G#2 00 . P76 : ... .. 6 ... : ... .. . ... ... : ... .. . ... ... : ... .. . ... ... : ... .. . ... ...
ROW B7 : ... .. . ... ... ... : ... .. 0 ... ... ... : G-2 00 . ... : ... .. 3 ... : ... .. . ... ... : B-4 01 5 ... ... : ... .. . ... ... : ... .. . ... ...
ROW B8 : ... .. . ... ... ... : A-2 00 5 P80 ... ... : F#2 00 . P78 : ... .. 2 ... : ... .. . ... ... : ... .. 4 ... ... : ... .. . ... ... : ... .. . ... ...
ROW B9 : ... .. . ... ... ... : ... .. 8 ... ... ... : F-2 00 . P7C : ... .. 0 ... : ... .. . ... ... : ... .. . ... ... : ... .. . ... ... : ... .. . ... ...
ROW BA : ... .. . ... ... ... : B-2 00 8 ... ... ... : E-2 00 . P82 : 1-# 00 F ... : ... .. . ... ... : A-4 01 5 ... ... : ... .. . ... ... : ... .. . ... ...
ROW BB : ... .. . ... ... ... : ... .. B ... ... ... : D#2 00 . P8A : ... .. C ... : ... .. . ... ... : ... .. 4 ... ... : ... .. . ... ... : ... .. . ... ...
ROW BC : ... .. . ... ... ... : ... .. 8 ... ... ... : D-2 00 . P95 : ... .. 6 ... : ... .. . ... ... : ... .. . ... ... : ... .. . ... ... : ... .. . ... ...
ROW BD : ... .. . ... ... ... : ... .. 0 ... ... ... : ... .. . P75 : ... .. 3 ... : ... .. . ... ... : G-4 01 5 ... ... : ... .. . ... ... : ... .. . ... ...
ROW BE : ... .. . ... ... ... : B-2 00 5 P80 ... ... : C#2 00 . P82 : ... .. 2 ... : ... .. . ... ... : ... .. 4 ... ... : ... .. . ... ... : ... .. . ... ...
ROW BF : ... .. . ... ... ... : ... .. 8 ... ... ... : C-2 00 . P92 : ... .. 0 ... : ... .. . ... ... : ... .. . ... ... : ... .. . ... ... : ... .. . ... ...
ROW C0 : ... .. . ... ... ... : F#2 00 8 ... ... ... : A#3 00 . P80 : 9-# 00 F ... : ... .. . ... ... : F#4 01 5 ... ... : ... .. 6 ... ... : ... .. A ... ...
ROW C1 : ... .. . ... ... ... : ... .. B ... ... ... : C-3 00 . ... : ... .. C ... : ... .. . ... ... : ... .. 4 ... ... : ... .. . ... ... : ... .. 8 ... ...
ROW C2 : ... .. . ... ... ... : ... .. 8 ... ... ... : F-2 00 . ... : ... .. 6 ... : ... .. . ... ... : ... .. . ... ... : ... .. 5 ... ... : ... .. 5 ... ...
ROW C3 : ... .. . ... ... ... : ... .. 0 ... ... ... : E-2 00 . ... : ... .. 3 ... : ... .. . ... ... : E-4 01 5 ... ... : ... .. 4 ... ... : ... .. . ... ...
ROW C4 : ... .. . ... ... ... : F#2 00 5 P80 ... ... : B-1 00 . ... : ... .. 2 ... : ... .. . ... ... : ... .. 4 ... ... : ... .. . ... ... : ... .. . ... ...
ROW C5 : ... .. . ... ... ... : ... .. 8 ... ... ... : ... .. . ... : ... .. 0 ... : ... .. . ... ... : ... .. . ... ... : ... .. . ... ... : ... .. . ... ...
ROW C6 : ... .. . ... ... ... : G-2 00 8 ... ... ... : ... .. . ... : ... .. F ... : ... .. . ... ... : D-4 01 5 ... ... : C-3 01 6 ... ... : G-3 01 A ... ...
ROW C7 : ... .. . ... ... ... : ... .. B ... ... ... : ... .. . ... : ... .. C ... : ... .. . ... ... : ... .. 4 ... ... : ... .. . ... ... : ... .. 8 ... ...
ROW C8 : ... .. . ... ... ... : ... .. 8 ... ... ... : ... .. . ... : ... .. 6 ... : ... .. . ... ... : ... .. . ... ... : ... .. 5 ... ... : ... .. 5 ... ...
ROW C9 : ... .. . ... ... ... : ... .. 0 ... ... ... : ... .. . ... : ... .. 3 ... : ... .. . ... ... : C-4 01 5 ... ... : ... .. 4 ... ... : ... .. . ... ...
ROW CA : ... .. . ... ... ... : G-2 00 5 P80 ... ... : ... .. . ... : ... .. 2 ... : ... .. . ... ... : ... .. 4 ... ... : ... .. . ... ... : ... .. . ... ...
ROW CB : ... .. . ... ... ... : ... .. 8 ... ... ... : ... .. . ... : ... .. 0 ... : ... .. . ... ... : ... .. . ... ... : ... .. . ... ... : ... .. . ... ...
ROW CC : ... .. . P84 ... ... : A-2 00 8 ... ... ... : ... .. . ... : 7-# 00 F ... : ... .. . ... ... : B-3 01 5 ... ... : E-3 01 6 ... ... : C-4 01 A ... ...
ROW CD : ... .. . P86 ... ... : ... .. B ... ... ... : ... .. . ... : ... .. C ... : ... .. . ... ... : ... .. 4 ... ... : ... .. . ... ... : ... .. 8 ... ...
ROW CE : ... .. . P85 ... ... : ... .. 8 ... ... ... : ... .. . ... : ... .. 6 ... : ... .. . ... ... : ... .. . ... ... : ... .. 5 ... ... : ... .. 5 ... ...
ROW CF : ... .. . P82 ... ... : ... .. 0 ... ... ... : ... .. . ... : ... .. 3 ... : ... .. . ... ... : A-3 01 5 ... ... : ... .. 4 ... ... : ... .. . ... ...
ROW D0 : ... .. . P7E ... ... : A-2 00 5 P80 ... ... : ... .. . ... : ... .. 2 ... : ... .. . ... ... : ... .. 4 ... ... : ... .. . ... ... : ... .. . ... ...
ROW D1 : ... .. . P7B ... ... : ... .. 8 ... ... ... : ... .. . ... : ... .. 0 ... : ... .. . ... ... : ... .. . ... ... : ... .. . ... ... : ... .. . ... ...
ROW D2 : ... .. . P7A ... ... : B-2 00 8 ... ... ... : ... .. . ... : ... .. F ... : ... .. . ... ... : G-3 01 5 ... ... : G-3 01 6 ... ... : E-4 01 A ... ...
ROW D3 : ... .. . P7C ... ... : ... .. B ... ... ... : ... .. . ... : ... .. C ... : ... .. . ... ... : ... .. 4 ... ... : ... .. . ... ... : ... .. 8 ... ...
ROW D4 : ... .. . P80 ... ... : ... .. 8 ... ... ... : ... .. . ... : ... .. 6 ... : ... .. . ... ... : ... .. . ... ... : ... .. 5 ... ... : ... .. 5 ... ...
ROW D5 : ... .. . P83 ... ... : ... .. 0 ... ... ... : ... .. . ... : ... .. 3 ... : ... .. . ... ... : F#3 01 5 ... ... : ... .. 4 ... ... : ... .. . ... ...
ROW D6 : ... .. . P86 ... ... : B-2 00 5 P80 ... ... : ... .. . ... : ... .. 2 ... : ... .. . ... ... : ... .. 4 ... ... : ... .. . ... ... : ... .. . ... ...
ROW D7 : ... .. . ... ... ... : ... .. 8 ... ... ... : ... .. . ... : ... .. 0 ... : ... .. . ... ... : ... .. . ... ... : ... .. . ... ... : ... .. . ... ...
ROW D8 : ... .. . P82 ... ... : A-2 00 8 ... ... ... : A#4 00 . ... : 9-# 00 F ... : ... .. . ... ... : E-3 01 5 ... ... : C-4 01 6 ... ... : F#4 01 A ... ...
ROW D9 : ... .. . P7F ... ... : ... .. B ... ... ... : C-4 00 . ... : ... .. C ... : ... .. . ... ... : ... .. 4 ... ... : ... .. . ... ... : ... .. 8 ... ...
ROW DA : ... .. . P7B ... ... : ... .. 8 ... ... ... : F-3 00 . ... : ... .. 6 ... : ... .. . ... ... : ... .. . ... ... : ... .. 5 ... ... : ... .. 5 ... ...
ROW DB : ... .. . P7A ... ... : ... .. 0 ... ... ... : E-3 00 . ... : ... .. 3 ... : ... .. . ... ... : F#3 01 5 ... ... : ... .. 3 ... ... : ... .. 4 ... ...
ROW DC : ... .. . P7C ... ... : A-2 00 5 P80 ... ... : B-2 00 . ... : ... .. 2 ... : ... .. . ... ... : ... .. 4 ... ... : ... .. . ... ... : ... .. . ... ...
ROW DD : ... .. . P80 ... ... : ... .. 8 ... ... ... : ... .. . ... : ... .. 0 ... : ... .. . ... ... : ... .. . ... ... : ... .. . ... ... : ... .. . ... ...
ROW DE : ... .. . P83 ... ... : B-2 00 8 ... ... ... : ... .. . ... : 2-# 00 F ... : ... .. . ... ... : G-3 01 5 ... ... : ... .. 2 ... ... : ... .. 3 ... ...
ROW DF : ... .. . P86 ... ... : ... .. B ... ... ... : ... .. . ... : ... .. C ... : ... .. . ... ... : ... .. 4 ... ... : ... .. . ... ... : ... .. . ... ...
ROW E0 : ... .. . ... ... ... : ... .. 8 ... ... ... : ... .. . ... : ... .. 6 ... : ... .. . ... ... : ... .. . ... ... : ... .. . ... ... : ... .. . ... ...
ROW E1 : ... .. . P83 ... ... : ... .. 0 ... ... ... : ... .. . ... : ... .. 3 ... : ... .. . ... ... : A-3 01 5 ... ... : ... .. . ... ... : ... .. . ... ...
ROW E2 : ... .. . P80 ... ... : B-2 00 5 P80 ... ... : ... .. . ... : ... .. 2 ... : ... .. . ... ... : ... .. 4 ... ... : ... .. . ... ... : ... .. . ... ...
ROW E3 : ... .. . P7C ... ... : ... .. 8 ... ... ... : ... .. . ... : ... .. 0 ... : ... .. . ... ... : ... .. . ... ... : ... .. . ... ... : ... .. . ... ...
ROW E4 : ... .. . P7A ... ... : C-3 00 8 ... ... ... : A#2 00 . P7B : 1-# 00 F ... : ... .. . ... ... : B-3 01 5 ... ... : ... .. 1 ... ... : ... .. 2 ... ...
ROW E5 : ... .. . P7B ... ... : ... .. B ... ... ... : A-2 00 . P77 : ... .. C ... : ... .. . ... ... : ... .. 4 ... ... : ... .. . ... ... : ... .. . ... ...
ROW E6 : ... .. . P7F ... ... : ... .. 8 ... ... ... : G#2 00 . P76 : ... .. 6 ... : ... .. . ... ... : ... .. . ... ... : ... .. . ... ... : ... .. . ... ...
ROW E7 : ... .. . P82 ... ... : ... .. 0 ... ... ... : G-2 00 . ... : ... .. 3 ... : ... .. . ... ... : C-4 01 5 ... ... : ... .. . ... ... : ... .. . ... ...
ROW E8 : ... .. . P86 ... ... : C-3 00 5 P80 ... ... : F#2 00 . P78 : ... .. 2 ... : ... .. . ... ... : ... .. 4 ... ... : ... .. . ... ... : ... .. . ... ...
ROW E9 : ... .. . ... ... ... : ... .. 8 ... ... ... : F-2 00 . P7C : ... .. 0 ... : ... .. . ... ... : ... .. . ... ... : ... .. . ... ... : ... .. . ... ...
ROW EA : ... .. . P83 ... ... : D-3 00 8 ... ... ... : E-2 00 . P82 : C-# 00 F ... : ... .. . ... ... : D-4 01 5 ... ... : ... .. . ... ... : ... .. . ... ...
ROW EB : ... .. . P80 ... ... : ... .. B ... ... ... : D#2 00 . P8A : ... .. C ... : ... .. . ... ... : ... .. 4 ... ... : ... .. . ... ... : ... .. . ... ...
ROW EC : ... .. . P7C ... ... : ... .. 8 ... ... ... : D-2 00 . P95 : ... .. 6 ... : ... .. . ... ... : ... .. . ... ... : ... .. . ... ... : ... .. . ... ...
ROW ED : ... .. . P7A ... ... : ... .. 0 ... ... ... : ... .. . P75 : ... .. 3 ... : ... .. . ... ... : E-4 01 5 ... ... : ... .. 2 ... ... : ... .. 3 ... ...
ROW EE : ... .. . P7B ... ... : D-3 00 5 P80 ... ... : C#2 00 . P82 : ... .. 2 ... : ... .. . ... ... : ... .. 4 ... ... : ... .. . ... ... : ... .. . ... ...
ROW EF : ... .. . P7E ... ... : ... .. 8 ... ... ... : C-2 00 . P92 : ... .. 0 ... : ... .. . ... ... : ... .. . ... ... : ... .. . ... ... : ... .. . ... ...
ROW F0 : ... .. . P82 ... ... : C-3 00 8 ... ... ... : A#3 00 . P80 : 7-# 00 F ... : ... .. . ... ... : F#4 01 5 ... ... : ... .. . P84 ... : ... .. . P84 ...
ROW F1 : ... .. . P85 ... ... : ... .. B ... ... ... : C-3 00 . ... : ... .. C ... : ... .. . ... ... : ... .. 4 ... ... : ... .. . P86 ... : G-4 01 3 P7C ...
ROW F2 : ... .. . P86 ... ... : ... .. 8 ... ... ... : F-2 00 . ... : ... .. 6 ... : ... .. . ... ... : ... .. . ... ... : ... .. . P85 ... : F#4 01 3 P85 ...
ROW F3 : ... .. . P84 ... ... : ... .. 0 ... ... ... : E-2 00 . ... : ... .. 3 ... : ... .. . ... ... : G-4 01 5 ... ... : ... .. . P82 ... : ... .. 4 P82 ...
ROW F4 : ... .. . P80 ... ... : C-3 00 5 P80 ... ... : B-1 00 . ... : ... .. 2 ... : ... .. . ... ... : ... .. 4 ... ... : ... .. . P7E ... : ... .. . P7E ...
ROW F5 : ... .. . P7D ... ... : ... .. 8 ... ... ... : ... .. . ... : ... .. 0 ... : ... .. . ... ... : ... .. . ... ... : ... .. . P7B ... : F-4 01 4 P85 ...
ROW F6 : ... .. . P7A ... ... : D-3 00 8 ... ... ... : ... .. . ... : 1-# 00 F ... : ... .. . ... ... : A-4 01 5 ... ... : B-3 01 3 P86 ... : ... .. 5 P84 ...
ROW F7 : ... .. . ... ... ... : ... .. B ... ... ... : ... .. . ... : ... .. C ... : ... .. . ... ... : ... .. 4 ... ... : C-4 01 3 P7C ... : F#4 01 5 P7C ...
ROW F8 : ... .. . P7E ... ... : ... .. 8 ... ... ... : ... .. . ... : ... .. 6 ... : ... .. . ... ... : ... .. . ... ... : ... .. . P80 ... : ... .. . P80 ...
ROW F9 : ... .. . P81 ... ... : ... .. 0 ... ... ... : ... .. . ... : ... .. 3 ... : ... .. . ... ... : B-4 01 5 ... ... : ... .. . P83 ... : ... .. . P83 ...
ROW FA : ... .. . P85 ... ... : D-3 00 5 P80 ... ... : ... .. . ... : ... .. 2 ... : ... .. . ... ... : ... .. 4 ... ... : ... .. . P86 ... : G-4 01 5 P7C ...
ROW FB : ... .. . P86 ... ... : ... .. 8 ... ... ... : ... .. . ... : ... .. 0 ... : ... .. . ... ... : ... .. . ... ... : ... .. . ... ... : ... .. . ... ...
ROW FC : ... .. . P84 ... ... : E-3 00 8 ... ... ... : ... .. . ... : C-# 00 F ... : ... .. . ... ... : C-5 01 5 ... ... : ... .. 4 P82 ... : F#4 01 6 P82 ...
ROW FD : ... .. 2 P80 ... ... : ... .. B ... ... ... : ... .. . ... : ... .. C ... : ... .. . ... ... : ... .. 4 ... ... : ... .. . P7F ... : ... .. . P7F ...
ROW FE : ... .. . P7D ... ... : ... .. 8 ... ... ... : ... .. . ... : ... .. 6 ... : ... .. . ... ... : ... .. . ... ... : ... .. . P7B ... : F-4 01 6 P85 ...
ROW FF : ... .. . P7A ... ... : ... .. 0 ... ... ... : ... .. . ... : ... .. 3 ... : ... .. . ... ... : D-5 01 5 ... ... : B-3 01 4 P86 ... : ... .. . P84 ...

PATTERN 0D
ROW 00 : ... .. 1 ... ... ... : E-3 00 5 P80 ... ... : ... .. . ... : ... .. 2 ... : ... .. . ... ... : ... .. 4 ... ... : C-4 01 4 P7C ... : F#4 01 6 P7C ...
ROW 01 : ... .. . P7D ... ... : ... .. 8 ... ... ... : ... .. . ... : ... .. 0 ... : ... .. . ... ... : ... .. . ... ... : ... .. . P80 ... : ... .. . P80 ...
ROW 02 : ... .. . P80 ... ... : F#3 00 8 ... ... ... : ... .. . ... : 7-# 00 F ... : ... .. . ... ... : E-5 01 5 ... ... : ... .. 5 P83 ... : ... .. 8 P83 ...
ROW 03 : ... .. 0 ... ... ... : ... .. B ... ... ... : ... .. . ... : ... .. C ... : ... .. . ... ... : ... .. 4 ... ... : ... .. . P86 ... : G-4 01 8 P7C ...
ROW 04 : ... .. . ... ... ... : ... .. 8 ... ... ... : ... .. . ... : ... .. 6 ... : ... .. . ... ... : ... .. . ... ... : ... .. . ... ... : ... .. . ... ...
ROW 05 : ... .. . ... ... ... : ... .. 0 ... ... ... : ... .. . ... : ... .. 3 ... : ... .. . ... ... : F#5 01 5 ... ... : ... .. 4 P83 ... : F#4 01 6 P83 ...
ROW 06 : ... .. . ... ... ... : F#3 00 5 P80 ... ... : ... .. . ... : ... .. 2 ... : ... .. . ... ... : ... .. 4 ... ... : ... .. . P80 ... : ... .. . P80 ...
ROW 07 : ... .. . ... ... ... : ... .. 8 ... ... ... : ... .. . ... : ... .. 0 ... : ... .. . ... ... : ... .. . ... ... : ... .. . P7C ... : ... .. . P7C ...
ROW 08 : G-3 00 F P80 ... ... : G-3 00 8 ... ... ... : A#4 00 . ... : 1-# 00 F ... : ... .. . ... ... : G-5 01 5 ... ... : ... .. 6 P80 ... : ... .. A P80 ...
ROW 09 : ... .. E ... ... ... : ... .. B ... ... ... : C-4 00 . ... : ... .. C ... : ... .. . ... ... : ... .. 4 ... ... : ... .. . ... ... : ... .. 8 ... ...
ROW 0A : ... .. D ... ... ... : ... .. 8 ... ... ... : F-3 00 . ... : ... .. 6 ... : ... .. . ... ... : ... .. . ... ... : ... .. 5 ... ... : ... .. 5 ... ...
ROW 0B : ... .. A ... ... ... : ... .. 0 ... ... ... : E-3 00 . ... : ... .. 3 ... : ... .. . ... ... : F#5 01 5 ... ... : ... .. 4 ... ... : ... .. . ... ...
ROW 0C : ... .. . ... ... ... : G-3 00 5 P80 ... ... : B-2 00 . ... : ... .. 2 ... : ... .. . ... ... : ... .. 4 ... ... : ... .. . ... ... : ... .. . ... ...
ROW 0D : ... .. . ... ... ... : ... .. 8 ... ... ... : ... .. . ... : ... .. 0 ... : ... .. . ... ... : ... .. . ... ... : ... .. . ... ... : ... .. . ... ...
ROW 0E : ... .. . ... ... ... : A-3 00 8 ... ... ... : ... .. . ... : B-# 00 F ... : ... .. . ... ... : E-5 01 5 ... ... : ... .. . ... ... : ... .. . ... ...
ROW 0F : ... .. . ... ... ... : ... .. B ... ... ... : ... .. . ... : ... .. C ... : ... .. . ... ... : ... .. 4 ... ... : ... .. 3 ... ... : ... .. . ... ...
ROW 10 : ... .. . ... ... ... : ... .. 8 ... ... ... : ... .. . ... : ... .. 6 ... : ... .. . ... ... : ... .. . ... ... : ... .. . ... ... : ... .. . ... ...
ROW 11 : ... .. 0 ... ... ... : ... .. 0 ... ... ... : ... .. . ... : ... .. 3 ... : ... .. . ... ... : D-5 01 5 ... ... : --- .. . ... ... : --- .. . ... ...
ROW 12 : ... .. . ... ... ... : A-3 00 5 P80 ... ... : ... .. . ... : ... .. 2 ... : ... .. . ... ... : ... .. 4 ... ... : ... .. . ... ... : ... .. . ... ...
ROW 13 : ... .. . ... ... ... : ... .. 8 ... ... ... : ... .. . ... : ... .. 0 ... : ... .. . ... ... : ... .. . ... ... : ... .. . ... ... : ... .. . ... ...
ROW 14 : G-3 00 D P80 ... ... : B-3 00 8 ... ... ... : A#2 00 . P7B : 7-# 00 F ... : ... .. . ... ... : C-5 01 5 ... ... : C-4 01 5 ... ... : F#4 01 8 ... ...
ROW 15 : ... .. A ... ... ... : ... .. B ... ... ... : A-2 00 . P77 : ... .. C ... : ... .. . ... ... : ... .. 4 ... ... : ... .. 3 ... ... : ... .. 5 ... ...
ROW 16 : ... .. 7 ... ... ... : ... .. 8 ... ... ... : G#2 00 . P76 : ... .. 6 ... : ... .. . ... ... : ... .. . ... ... : ... .. 2 ... ... : ... .. 2 ... ...
ROW 17 : ... .. 4 ... ... ... : ... .. 0 ... ... ... : G-2 00 . ... : ... .. 3 ... : ... .. . ... ... : B-4 01 5 ... ... : ... .. 1 ... ... : ... .. 1 ... ...
ROW 18 : ... .. D ... ... ... : B-3 00 5 P80 ... ... : F#2 00 . P78 : ... .. 2 ... : ... .. . ... ... : ... .. 4 ... ... : ... .. 5 ... ... : ... .. 8 ... ...
ROW 19 : ... .. A ... ... ... : ... .. 8 ... ... ... : F-2 00 . P7C : ... .. 0 ... : ... .. . ... ... : ... .. . ... ... : ... .. 3 ... ... : ... .. 5 ... ...
ROW 1A : ... .. 7 ... ... ... : C-4 00 8 ... ... ... : E-2 00 . P82 : 1-# 00 F ... : ... .. . ... ... : A-4 01 5 ... ... : ... .. 2 ... ... : ... .. 2 ... ...
ROW 1B : ... .. 4 ... ... ... : ... .. B ... ... ... : D#2 00 . P8A : ... .. C ... : ... .. . ... ... : ... .. 4 ... ... : ... .. 1 ... ... : ... .. 1 ... ...
ROW 1C : ... .. D ... ... ... : ... .. 8 ... ... ... : D-2 00 . P95 : ... .. 6 ... : ... .. . ... ... : ... .. . ... ... : ... .. 5 ... ... : ... .. 8 ... ...
ROW 1D : ... .. A ... ... ... : ... .. 0 ... ... ... : ... .. . P75 : ... .. 3 ... : ... .. . ... ... : G-4 01 5 ... ... : ... .. 3 ... ... : ... .. 5 ... ...
ROW 1E : ... .. 7 ... ... ... : C-4 00 5 P80 ... ... : C#2 00 . P82 : ... .. 2 ... : ... .. . ... ... : ... .. 4 ... ... : ... .. 2 ... ... : ... .. 2 ... ...
ROW 1F : ... .. 4 ... ... ... : ... .. 8 ... ... ... : C-2 00 . P92 : ... .. 0 ... : ... .. . ... ... : ... .. . ... ... : ... .. 1 ... ... : ... .. 1 ... ...
ROW 20 : ... .. F ... ... ... : D-4 00 8 ... ... ... : A#3 00 . P80 : 9-# 00 F ... : ... .. . ... ... : F#4 01 5 ... ... : ... .. 6 ... ... : ... .. A ... ...
ROW 21 : ... .. E ... ... ... : ... .. B ... ... ... : C-3 00 . ... : ... .. C ... : ... .. . ... ... : ... .. 4 ... ... : ... .. . ... ... : ... .. 8 ... ...
ROW 22 : ... .. D ... ... ... : ... .. 8 ... ... ... : F-2 00 . ... : ... .. 6 ... : ... .. . ... ... : ... .. . ... ... : ... .. 5 ... ... : ... .. 5 ... ...
ROW 23 : ... .. A ... ... ... : ... .. 0 ... ... ... : E-2 00 . ... : ... .. 3 ... : ... .. . ... ... : E-4 01 5 ... ... : ... .. 4 ... ... : ... .. . ... ...
ROW 24 : ... .. . ... ... ... : D-4 00 5 P80 ... ... : B-1 00 . ... : ... .. 2 ... : ... .. . ... ... : ... .. 4 ... ... : ... .. . ... ... : ... .. . ... ...
ROW 25 : ... .. 0 ... ... ... : ... .. 8 ... ... ... : ... .. . ... : ... .. 0 ... : ... .. . ... ... : ... .. . ... ... : --- .. . ... ... : --- .. . ... ...
ROW 26 : ... .. . ... ... ... : E-4 00 8 ... ... ... : ... .. . ... : ... .. F ... : ... .. . ... ... : D-4 01 5 ... ... : ... .. . ... ... : ... .. . ... ...
ROW 27 : ... .. . ... ... ... : ... .. B ... ... ... : ... .. . ... : ... .. C ... : ... .. . ... ... : ... .. 4 ... ... : ... .. . ... ... : ... .. . ... ...
ROW 28 : G-3 00 F P80 ... ... : ... .. 8 ... ... ... : ... .. . ... : ... .. 6 ... : ... .. . ... ... : ... .. . ... ... : C-4 01 6 ... ... : F#4 01 A ... ...
ROW 29 : ... .. E ... ... ... : ... .. 0 ... ... ... : ... .. . ... : ... .. 3 ... : ... .. . ... ... : C-4 01 5 ... ... : ... .. . ... ... : ... .. 8 ... ...
ROW 2A : ... .. D ... ... ... : E-4 00 5 P80 ... ... : ... .. . ... : ... .. 2 ... : ... .. . ... ... : ... .. 4 ... ... : ... .. 5 ... ... : ... .. 5 ... ...
ROW 2B : ... .. A ... ... ... : ... .. 8 ... ... ... : ... .. . ... : ... .. 0 ... : ... .. . ... ... : ... .. . ... ... : ... .. 4 ... ... : ... .. . ... ...
ROW 2C : ... .. 0 ... ... ... : F#4 00 8 ... ... ... : ... .. . ... : 7-# 00 F ... : ... .. . ... ... : B-3 01 5 ... ... : --- .. . ... ... : --- .. . ... ...
ROW 2D : ... .. . ... ... ... : ... .. B ... ... ... : ... .. . ... : ... .. C ... : ... .. . ... ... : ... .. 4 ... ... : ... .. . ... ... : ... .. . ... ...
ROW 2E : ... .. . ... ... ... : ... .. 8 ... ... ... : ... .. . ... : ... .. 6 ... : ... .. . ... ... : ... .. . ... ... : ... .. . ... ... : ... .. . ... ...
ROW 2F : ... .. . ... ... ... : ... .. 0 ... ... ... : ... .. . ... : ... .. 3 ... : ... .. . ... ... : A-3 01 5 ... ... : ... .. . ... ... : ... .. . ... ...
ROW 30 : G-3 00 F P80 ... ... : F#4 00 5 P80 ... ... : ... .. . ... : ... .. 2 ... : ... .. . ... ... : ... .. 4 ... ... : C-4 01 6 ... ... : F#4 01 A ... ...
ROW 31 : ... .. E ... ... ... : ... .. 8 ... ... ... : ... .. . ... : ... .. 0 ... : ... .. . ... ... : ... .. . ... ... : ... .. . ... ... : ... .. 8 ... ...
ROW 32 : ... .. D ... ... ... : G-4 00 8 ... ... ... : ... .. . ... : ... .. F ... : ... .. . ... ... : G-3 01 5 ... ... : ... .. 5 ... ... : ... .. 5 ... ...
ROW 33 : ... .. A ... ... ... : ... .. B ... ... ... : ... .. . ... : ... .. C ... : ... .. . ... ... : ... .. 4 ... ... : ... .. 4 ... ... : ... .. . ... ...
ROW 34 : ... .. . ... ... ... : ... .. 8 ... ... ... : ... .. . ... : ... .. 6 ... : ... .. . ... ... : ... .. . ... ... : ... .. . ... ... : ... .. . ... ...
ROW 35 : ... .. 0 ... ... ... : ... .. 0 ... ... ... : ... .. . ... : ... .. 3 ... : ... .. . ... ... : F#3 01 5 ... ... : --- .. . ... ... : --- .. . ... ...
ROW 36 : ... .. . ... ... ... : G-4 00 5 P80 ... ... : ... .. . ... : ... .. 2 ... : ... .. . ... ... : ... .. 4 ... ... : ... .. . ... ... : ... .. . ... ...
ROW 37 : ... .. . ... ... ... : ... .. 8 ... ... ... : ... .. . ... : ... .. 0 ... : ... .. . ... ... : ... .. . ... ... : ... .. . ... ... : ... .. . ... ...
ROW 38 : ... .. . ... ... ... : F#2 00 8 ... ... ... : F-5 00 . ... : 9-# 00 F ... : ... .. . ... ... : D-3 01 5 ... ... : C#4 01 6 ... ... : F#4 01 A ... ...
ROW 39 : ... .. . ... ... ... : ... .. B ... ... ... : G-4 00 . ... : ... .. C ... : ... .. . ... ... : ... .. 4 ... ... : ... .. . ... ... : ... .. 8 ... ...
ROW 3A : ... .. . ... ... ... : ... .. 8 ... ... ... : C-4 00 . ... : ... .. 6 ... : ... .. . ... ... : ... .. . ... ... : ... .. 5 ... ... : ... .. 5 ... ...
ROW 3B : ... .. . ... ... ... : ... .. 0 ... ... ... : B-3 00 . ... : ... .. 3 ... : ... .. . ... ... : E-3 01 5 ... ... : ... .. 4 ... ... : ... .. . ... ...
ROW 3C : ... .. . ... ... ... : F#2 00 5 P80 ... ... : F#3 00 . ... : ... .. 2 ... : ... .. . ... ... : ... .. 4 ... ... : ... .. . ... ... : ... .. . ... ...
ROW 3D : ... .. . ... ... ... : ... .. 8 ... ... ... : ... .. . ... : ... .. 0 ... : ... .. . ... ... : ... .. . ... ... : ... .. . ... ... : ... .. . ... ...
ROW 3E : ... .. . ... ... ... : G-2 00 8 ... ... ... : ... .. . ... : 2-# 00 F ... : ... .. . ... ... : F#3 01 5 ... ... : ... .. . ... ... : ... .. . ... ...
ROW 3F : ... .. . ... ... ... : ... .. B ... ... ... : ... .. . ... : ... .. C ... : ... .. . ... ... : ... .. 4 ... ... : ... .. 3 ... ... : ... .. . ... ...
ROW 40 : ... .. . ... ... ... : ... .. 8 ... ... ... : ... .. . ... : ... .. 6 ... : ... .. . ... ... : ... .. . ... ... : ... .. . ... ... : ... .. . ... ...
ROW 41 : ... .. . ... ... ... : ... .. 0 ... ... ... : ... .. . ... : ... .. 3 ... : ... .. . ... ... : G-3 01 5 ... ... : ... .. . ... ... : ... .. . ... ...
ROW 42 : ... .. . ... ... ... : G-2 00 5 P80 ... ... : ... .. . ... : ... .. 2 ... : ... .. . ... ... : ... .. 4 ... ... : ... .. . ... ... : ... .. . ... ...
ROW 43 : ... .. . ... ... ... : ... .. 8 ... ... ... : ... .. . ... : ... .. 0 ... : ... .. . ... ... : ... .. . ... ... : ... .. . ... ... : ... .. . ... ...
ROW 44 : F#3 00 F P80 ... ... : A-2 00 8 ... ... ... : E-3 00 . P85 : 1-# 00 F ... : ... .. . ... ... : A-3 01 5 ... ... : ... .. . ... ... : ... .. . ... ...
ROW 45 : ... .. E ... ... ... : ... .. B ... ... ... : D#3 00 . P7A : ... .. C ... : ... .. . ... ... : ... .. 4 ... ... : ... .. . ... ... : ... .. . ... ...
ROW 46 : ... .. D ... ... ... : ... .. 8 ... ... ... : C#3 00 . P86 : ... .. 6 ... : ... .. . ... ... : ... .. . ... ... : ... .. . ... ... : ... .. . ... ...
ROW 47 : ... .. A ... ... ... : ... .. 0 ... ... ... : C-3 00 . P7E : ... .. 3 ... : ... .. . ... ... : B-3 01 5 ... ... : ... .. . ... ... : ... .. . ... ...
ROW 48 : ... .. . ... ... ... : A-2 00 5 P80 ... ... : B-2 00 . P77 : ... .. 2 ... : ... .. . ... ... : ... .. 4 ... ... : ... .. . ... ... : ... .. . ... ...
ROW 49 : ... .. . ... ... ... : ... .. 8 ... ... ... : A-2 00 . P8E : ... .. 0 ... : ... .. . ... ... : ... .. . ... ... : ... .. . ... ... : ... .. . ... ...
ROW 4A : ... .. . ... ... ... : B-2 00 8 ... ... ... : G#2 00 . P8D : C-# 00 F ... : ... .. . ... ... : C#4 01 5 ... ... : ... .. . ... ... : ... .. . ... ...
ROW 4B : ... .. 2 ... ... ... : ... .. B ... ... ... : G-2 00 . ... : ... .. C ... : ... .. . ... ... : ... .. 4 ... ... : ... .. . ... ... : ... .. . ... ...
ROW 4C : ... .. . ... ... ... : ... .. 8 ... ... ... : F#2 00 . P8F : ... .. 6 ... : ... .. . ... ... : ... .. . ... ... : ... .. . ... ... : ... .. . ... ...
ROW 4D : ... .. . ... ... ... : ... .. 0 ... ... ... : ... .. . P6F : ... .. 3 ... : ... .. . ... ... : D-4 01 5 ... ... : ... .. . ... ... : ... .. . ... ...
ROW 4E : ... .. 1 ... ... ... : B-2 00 5 P80 ... ... : F-2 00 . P73 : ... .. 2 ... : ... .. . ... ... : ... .. 4 ... ... : ... .. . ... ... : ... .. . ... ...
ROW 4F : ... .. . ... ... ... : ... .. 8 ... ... ... : E-2 00 . P79 : ... .. 0 ... : ... .. . ... ... : ... .. . ... ... : ... .. . ... ... : ... .. . ... ...
ROW 50 : C#4 00 F ... ... ... : F#2 00 8 ... ... ... : F-4 00 . P80 : 7-# 00 F ... : ... .. . ... ... : E-4 01 5 ... ... : ... .. . ... ... : ... .. . ... ...
ROW 51 : ... .. E ... ... ... : ... .. B ... ... ... : G-3 00 . ... : ... .. C ... : ... .. . ... ... : ... .. 4 ... ... : ... .. . ... ... : ... .. . ... ...
ROW 52 : ... .. D ... ... ... : ... .. 8 ... ... ... : C-3 00 . ... : ... .. 6 ... : ... .. . ... ... : ... .. . ... ... : ... .. . ... ... : ... .. . ... ...
ROW 53 : ... .. A ... ... ... : ... .. 0 ... ... ... : B-2 00 . ... : ... .. 3 ... : ... .. . ... ... : F#4 01 5 ... ... : ... .. . ... ... : ... .. . ... ...
ROW 54 : ... .. . ... ... ... : F#2 00 5 P80 ... ... : F#2 00 . ... : ... .. 2 ... : ... .. . ... ... : ... .. 4 ... ... : ... .. . ... ... : ... .. . ... ...
ROW 55 : ... .. . ... ... ... : ... .. 8 ... ... ... : ... .. . ... : ... .. 0 ... : ... .. . ... ... : ... .. . ... ... : ... .. . ... ... : ... .. . ... ...
ROW 56 : ... .. . ... ... ... : G-2 00 8 ... ... ... : ... .. . ... : 1-# 00 F ... : ... .. . ... ... : G-4 01 5 ... ... : ... .. . ... ... : ... .. . ... ...
ROW 57 : ... .. . ... ... ... : ... .. B ... ... ... : ... .. . ... : ... .. C ... : ... .. . ... ... : ... .. 4 ... ... : ... .. . ... ... : ... .. . ... ...
ROW 58 : ... .. . ... ... ... : ... .. 8 ... ... ... : ... .. . ... : ... .. 6 ... : ... .. . ... ... : ... .. . ... ... : ... .. . ... ... : ... .. . ... ...
ROW 59 : ... .. . ... ... ... : ... .. 0 ... ... ... : ... .. . ... : ... .. 3 ... : ... .. . ... ... : A-4 01 5 ... ... : ... .. . ... ... : ... .. . ... ...
ROW 5A : ... .. 2 ... ... ... : G-2 00 5 P80 ... ... : ... .. . ... : ... .. 2 ... : ... .. . ... ... : ... .. 4 ... ... : ... .. . ... ... : ... .. . ... ...
ROW 5B : ... .. . ... ... ... : ... .. 8 ... ... ... : ... .. . ... : ... .. 0 ... : ... .. . ... ... : ... .. . ... ... : ... .. . ... ... : ... .. . ... ...
ROW 5C : F#3 00 F ... ... ... : A-2 00 8 ... ... ... : ... .. . ... : C-# 00 F ... : ... .. . ... ... : B-4 01 5 ... ... : A-2 01 A ... ... : F#3 01 A ... ...
ROW 5D : ... .. E ... ... ... : ... .. B ... ... ... : ... .. . ... : ... .. C ... : ... .. . ... ... : ... .. 4 ... ... : ... .. 9 ... ... : ... .. 8 ... ...
ROW 5E : ... .. D ... ... ... : ... .. 8 ... ... ... : ... .. . ... : ... .. 6 ... : ... .. . ... ... : ... .. . ... ... : ... .. 8 ... ... : ... .. 5 ... ...
ROW 5F : ... .. A ... ... ... : ... .. 0 ... ... ... : ... .. . ... : ... .. 3 ... : ... .. . ... ... : C#5 01 5 ... ... : ... .. 7 ... ... : ... .. . ... ...
ROW 60 : ... .. . ... ... ... : A-2 00 5 P80 ... ... : ... .. . ... : ... .. 2 ... : ... .. . ... ... : ... .. 4 ... ... : ... .. . ... ... : ... .. . ... ...
ROW 61 : ... .. . ... ... ... : ... .. 8 ... ... ... : ... .. . ... : ... .. 0 ... : ... .. . ... ... : ... .. . ... ... : ... .. 6 ... ... : ... .. . ... ...
ROW 62 : ... .. . ... ... ... : B-2 00 8 ... ... ... : ... .. . ... : 7-# 00 F ... : ... .. . ... ... : D-5 01 5 ... ... : --- .. . P82 ... : --- .. . P82 ...
ROW 63 : ... .. . ... ... ... : ... .. B ... ... ... : ... .. . ... : ... .. C ... : ... .. . ... ... : ... .. 4 ... ... : ... .. . ... ... : ... .. . ... ...
ROW 64 : ... .. . ... ... ... : ... .. 8 ... ... ... : ... .. . ... : ... .. 6 ... : ... .. . ... ... : ... .. . ... ... : ... .. . ... ... : ... .. . ... ...
ROW 65 : ... .. . ... ... ... : ... .. 0 ... ... ... : ... .. . ... : ... .. 3 ... : ... .. . ... ... : E-5 01 5 ... ... : ... .. . ... ... : ... .. . ... ...
ROW 66 : ... .. 2 ... ... ... : B-2 00 5 P80 ... ... : ... .. . ... : ... .. 2 ... : ... .. . ... ... : ... .. 4 ... ... : ... .. . ... ... : ... .. . ... ...
ROW 67 : ... .. . ... ... ... : ... .. 8 ... ... ... : ... .. . ... : ... .. 0 ... : ... .. . ... ... : ... .. . ... ... : ... .. . ... ... : ... .. . ... ...
ROW 68 : C#4 00 F ... ... ... : F#2 00 8 ... ... ... : F-5 00 . ... : 1-# 00 F ... : ... .. . ... ... : F#5 01 5 ... ... : F#3 01 A P80 ... : C#4 01 A P80 ...
ROW 69 : ... .. E ... ... ... : ... .. B ... ... ... : G-4 00 . ... : ... .. C ... : ... .. . ... ... : ... .. 4 ... ... : ... .. 9 ... ... : ... .. 8 ... ...
ROW 6A : ... .. D ... ... ... : ... .. 8 ... ... ... : C-4 00 . ... : ... .. 6 ... : ... .. . ... ... : ... .. . ... ... : ... .. 8 ... ... : ... .. 5 ... ...
ROW 6B : ... .. A ... ... ... : ... .. 0 ... ... ... : B-3 00 . ... : ... .. 3 ... : ... .. . ... ... : E-5 01 5 ... ... : ... .. 7 ... ... : ... .. . ... ...
ROW 6C : ... .. . ... ... ... : F#2 00 5 P80 ... ... : F#3 00 . ... : ... .. 2 ... : ... .. . ... ... : ... .. 4 ... ... : ... .. . ... ... : ... .. . ... ...
ROW 6D : ... .. . ... ... ... : ... .. 8 ... ... ... : ... .. . ... : ... .. 0 ... : ... .. . ... ... : ... .. . ... ... : ... .. 6 ... ... : ... .. . ... ...
ROW 6E : ... .. . ... ... ... : G-2 00 8 ... ... ... : ... .. . ... : B-# 00 F ... : ... .. . ... ... : D-5 01 5 ... ... : ... .. . ... ... : ... .. . ... ...
ROW 6F : ... .. . ... ... ... : ... .. B ... ... ... : ... .. . ... : ... .. C ... : ... .. . ... ... : ... .. 4 ... ... : ... .. 5 ... ... : ... .. . ... ...
ROW 70 : ... .. . ... ... ... : ... .. 8 ... ... ... : ... .. . ... : ... .. 6 ... : ... .. . ... ... : ... .. . ... ... : ... .. . ... ... : ... .. . ... ...
ROW 71 : ... .. . ... ... ... : ... .. 0 ... ... ... : ... .. . ... : ... .. 3 ... : ... .. . ... ... : C#5 01 5 ... ... : ... .. . ... ... : ... .. . ... ...
ROW 72 : ... .. . ... ... ... : G-2 00 5 P80 ... ... : ... .. . ... : ... .. 2 ... : ... .. . ... ... : ... .. 4 ... ... : ... .. . ... ... : ... .. . ... ...
ROW 73 : ... .. . ... ... ... : ... .. 8 ... ... ... : ... .. . ... : ... .. 0 ... : ... .. . ... ... : ... .. . ... ... : ... .. . ... ... : ... .. . ... ...
ROW 74 : ... .. . ... ... ... : A-2 00 8 ... ... ... : E-3 00 . P85 : 7-# 00 F ... : ... .. . ... ... : B-4 01 5 ... ... : ... .. . ... ... : ... .. . ... ...
ROW 75 : ... .. . ... ... ... : ... .. B ... ... ... : D#3 00 . P7A : ... .. C ... : ... .. . ... ... : ... .. 4 ... ... : ... .. . ... ... : ... .. . ... ...
ROW 76 : ... .. . ... ... ... : ... .. 8 ... ... ... : C#3 00 . P86 : ... .. 6 ... : ... .. . ... ... : ... .. . ... ... : ... .. . ... ... : ... .. . ... ...
ROW 77 : ... .. . ... ... ... : ... .. 0 ... ... ... : C-3 00 . P7E : ... .. 3 ... : ... .. . ... ... : A-4 01 5 ... ... : ... .. . ... ... : ... .. . ... ...
ROW 78 : ... .. . ... ... ... : A-2 00 5 P80 ... ... : B-2 00 . P77 : ... .. 2 ... : ... .. . ... ... : ... .. 4 ... ... : ... .. . ... ... : ... .. . ... ...
ROW 79 : ... .. . ... ... ... : ... .. 8 ... ... ... : A-2 00 . P8E : ... .. 0 ... : ... .. . ... ... : ... .. . ... ... : ... .. . ... ... : ... .. . ... ...
ROW 7A : ... .. . ... ... ... : B-2 00 8 ... ... ... : G#2 00 . P8D : 1-# 00 F ... : ... .. . ... ... : G-4 01 5 ... ... : ... .. . ... ... : ... .. . ... ...
ROW 7B : ... .. 2 ... ... ... : ... .. B ... ... ... : G-2 00 . ... : ... .. C ... : ... .. . ... ... : ... .. 4 ... ... : ... .. . ... ... : ... .. . ... ...
ROW 7C : ... .. . ... ... ... : ... .. 8 ... ... ... : F#2 00 . P8F : ... .. 6 ... : ... .. . ... ... : ... .. . ... ... : ... .. . ... ... : ... .. . ... ...
ROW 7D : ... .. . ... ... ... : ... .. 0 ... ... ... : ... .. . P6F : ... .. 3 ... : ... .. . ... ... : F#4 01 5 ... ... : --- .. . P7F ... : --- .. . ... ...
ROW 7E : ... .. 1 ... ... ... : B-2 00 5 P80 ... ... : F-2 00 . P73 : ... .. 2 ... : ... .. . ... ... : ... .. 4 ... ... : ... .. . ... ... : ... .. . ... ...
ROW 7F : ... .. . ... ... ... : ... .. 8 ... ... ... : E-2 00 . P79 : ... .. 0 ... : ... .. . ... ... : ... .. . ... ... : ... .. . ... ... : ... .. . ... ...
ROW 80 : F#3 00 F ... ... ... : F#2 00 8 ... ... ... : F-4 00 . P80 : 9-# 00 F ... : ... .. . ... ... : E-4 01 5 ... ... : A-3 01 6 P80 ... : A-3 01 A ... ...
ROW 81 : ... .. E ... ... ... : ... .. B ... ... ... : G-3 00 . ... : ... .. C ... : ... .. . ... ... : ... .. 4 ... ... : ... .. . ... ... : ... .. 8 ... ...
ROW 82 : ... .. D ... ... ... : ... .. 8 ... ... ... : C-3 00 . ... : ... .. 6 ... : ... .. . ... ... : ... .. . ... ... : ... .. 5 ... ... : ... .. 5 ... ...
ROW 83 : ... .. A ... ... ... : ... .. 0 ... ... ... : B-2 00 . ... : ... .. 3 ... : ... .. . ... ... : D-4 01 5 ... ... : ... .. 4 ... ... : ... .. . ... ...
ROW 84 : ... .. . ... ... ... : F#2 00 5 P80 ... ... : F#2 00 . ... : ... .. 2 ... : ... .. . ... ... : ... .. 4 ... ... : ... .. . ... ... : ... .. . ... ...
ROW 85 : ... .. . ... ... ... : ... .. 8 ... ... ... : ... .. . ... : ... .. 0 ... : ... .. . ... ... : ... .. . ... ... : --- .. . ... ... : --- .. . P81 ...
ROW 86 : ... .. . ... ... ... : G-2 00 8 ... ... ... : ... .. . ... : ... .. F ... : ... .. . ... ... : C-4 01 5 ... ... : ... .. . ... ... : ... .. . ... ...
ROW 87 : ... .. . ... ... ... : ... .. B ... ... ... : ... .. . ... : ... .. C ... : ... .. . ... ... : ... .. 4 ... ... : ... .. . ... ... : ... .. . ... ...
ROW 88 : ... .. . ... ... ... : ... .. 8 ... ... ... : ... .. . ... : ... .. 6 ... : ... .. . ... ... : ... .. . ... ... : A-3 01 6 ... ... : A-3 01 A P80 ...
ROW 89 : ... .. . ... ... ... : ... .. 0 ... ... ... : ... .. . ... : ... .. 3 ... : ... .. . ... ... : C#4 01 5 ... ... : ... .. . ... ... : ... .. 8 ... ...
ROW 8A : ... .. . ... ... ... : G-2 00 5 P80 ... ... : ... .. . ... : ... .. 2 ... : ... .. . ... ... : ... .. 4 ... ... : ... .. 5 ... ... : ... .. 5 ... ...
ROW 8B : ... .. . ... ... ... : ... .. 8 ... ... ... : ... .. . ... : ... .. 0 ... : ... .. . ... ... : ... .. . ... ... : ... .. 4 ... ... : ... .. . ... ...
ROW 8C : E-4 00 F ... ... ... : A-2 00 8 ... ... ... : ... .. . ... : 7-# 00 F ... : ... .. . ... ... : B-3 01 5 ... ... : --- .. . ... ... : --- .. . P81 ...
ROW 8D : ... .. E ... ... ... : ... .. B ... ... ... : ... .. . ... : ... .. C ... : ... .. . ... ... : ... .. 4 ... ... : ... .. . ... ... : ... .. . ... ...
ROW 8E : ... .. D ... ... ... : ... .. 8 ... ... ... : ... .. . ... : ... .. 6 ... : ... .. . ... ... : ... .. . ... ... : ... .. . ... ... : ... .. . ... ...
ROW 8F : ... .. A ... ... ... : ... .. 0 ... ... ... : ... .. . ... : ... .. 3 ... : ... .. . ... ... : A-3 01 5 ... ... : ... .. . ... ... : ... .. . ... ...
ROW 90 : ... .. . ... ... ... : A-2 00 5 P80 ... ... : ... .. . ... : ... .. 2 ... : ... .. . ... ... : ... .. 4 ... ... : A-3 01 6 ... ... : A-3 01 A P80 ...
ROW 91 : ... .. . ... ... ... : ... .. 8 ... ... ... : ... .. . ... : ... .. 0 ... : ... .. . ... ... : ... .. . ... ... : ... .. . ... ... : ... .. 8 ... ...
ROW 92 : ... .. . ... ... ... : B-2 00 8 ... ... ... : ... .. . ... : ... .. F ... : ... .. . ... ... : G-3 01 5 ... ... : ... .. 5 ... ... : ... .. 5 ... ...
ROW 93 : ... .. . ... ... ... : ... .. B ... ... ... : ... .. . ... : ... .. C ... : ... .. . ... ... : ... .. 4 ... ... : ... .. 4 ... ... : ... .. . ... ...
ROW 94 : ... .. . ... ... ... : ... .. 8 ... ... ... : ... .. . ... : ... .. 6 ... : ... .. . ... ... : ... .. . ... ... : ... .. . ... ... : ... .. . ... ...
ROW 95 : ... .. . ... ... ... : ... .. 0 ... ... ... : ... .. . ... : ... .. 3 ... : ... .. . ... ... : F#3 01 5 ... ... : --- .. . ... ... : --- .. . P81 ...
ROW 96 : ... .. 2 ... ... ... : B-2 00 5 P80 ... ... : ... .. . ... : ... .. 2 ... : ... .. . ... ... : ... .. 4 ... ... : ... .. . ... ... : ... .. . ... ...
ROW 97 : ... .. . ... ... ... : ... .. 8 ... ... ... : ... .. . ... : ... .. 0 ... : ... .. . ... ... : ... .. . ... ... : ... .. . ... ... : ... .. . ... ...
ROW 98 : D-4 00 F ... ... ... : F#2 00 8 ... ... ... : F-5 00 . ... : 9-# 00 F ... : ... .. . ... ... : D-3 01 5 ... ... : B-2 01 6 ... ... : B-3 01 A P80 ...
ROW 99 : ... .. E ... ... ... : ... .. B ... ... ... : G-4 00 . ... : ... .. C ... : ... .. . ... ... : ... .. 4 ... ... : ... .. . ... ... : ... .. 8 ... ...
ROW 9A : ... .. D ... ... ... : ... .. 8 ... ... ... : C-4 00 . ... : ... .. 6 ... : ... .. . ... ... : ... .. . ... ... : ... .. 5 ... ... : ... .. 5 ... ...
ROW 9B : ... .. A ... ... ... : ... .. 0 ... ... ... : B-3 00 . ... : ... .. 3 ... : ... .. . ... ... : E-3 01 5 ... ... : --- .. . P85 ... : --- .. . P8E ...
ROW 9C : ... .. . ... ... ... : F#2 00 5 P80 ... ... : F#3 00 . ... : ... .. 2 ... : ... .. . ... ... : ... .. 4 ... ... : ... .. . ... ... : ... .. . ... ...
ROW 9D : ... .. . ... ... ... : ... .. 8 ... ... ... : ... .. . ... : ... .. 0 ... : ... .. . ... ... : ... .. . ... ... : ... .. . ... ... : ... .. . ... ...
ROW 9E : ... .. . ... ... ... : G-2 00 8 ... ... ... : ... .. . ... : 2-# 00 F ... : ... .. . ... ... : F#3 01 5 ... ... : D-3 01 6 P80 ... : C#4 01 A P80 ...
ROW 9F : ... .. . ... ... ... : ... .. B ... ... ... : ... .. . ... : ... .. C ... : ... .. . ... ... : ... .. 4 ... ... : ... .. . ... ... : ... .. 8 ... ...
ROW A0 : ... .. . ... ... ... : ... .. 8 ... ... ... : ... .. . ... : ... .. 6 ... : ... .. . ... ... : ... .. . ... ... : ... .. 5 ... ... : ... .. 5 ... ...
ROW A1 : ... .. . ... ... ... : ... .. 0 ... ... ... : ... .. . ... : ... .. 3 ... : ... .. . ... ... : G-3 01 5 ... ... : --- .. . P82 ... : --- .. . ... ...
ROW A2 : ... .. . ... ... ... : G-2 00 5 P80 ... ... : ... .. . ... : ... .. 2 ... : ... .. . ... ... : ... .. 4 ... ... : ... .. . ... ... : ... .. . ... ...
ROW A3 : ... .. . ... ... ... : ... .. 8 ... ... ... : ... .. . ... : ... .. 0 ... : ... .. . ... ... : ... .. . ... ... : ... .. . ... ... : ... .. . ... ...
ROW A4 : ... .. . ... ... ... : A-2 00 8 ... ... ... : E-3 00 . P85 : 1-# 00 F ... : ... .. . ... ... : A-3 01 5 ... ... : G-3 01 6 P80 ... : D-4 01 A ... ...
ROW A5 : ... .. 2 ... ... ... : ... .. B ... ... ... : D#3 00 . P7A : ... .. C ... : ... .. . ... ... : ... .. 4 ... ... : ... .. . ... ... : ... .. 8 ... ...
ROW A6 : ... .. . ... ... ... : ... .. 8 ... ... ... : C#3 00 . P86 : ... .. 6 ... : ... .. . ... ... : ... .. . ... ... : ... .. 5 ... ... : ... .. 5 ... ...
ROW A7 : ... .. . ... ... ... : ... .. 0 ... ... ... : C-3 00 . P7E : ... .. 3 ... : ... .. . ... ... : B-3 01 5 ... ... : ... .. 4 ... ... : ... .. . ... ...
ROW A8 : ... .. 1 ... ... ... : A-2 00 5 P80 ... ... : B-2 00 . P77 : ... .. 2 ... : ... .. . ... ... : ... .. 4 ... ... : ... .. . ... ... : ... .. . ... ...
ROW A9 : ... .. . ... ... ... : ... .. 8 ... ... ... : A-2 00 . P8E : ... .. 0 ... : ... .. . ... ... : ... .. . ... ... : ... .. . ... ... : ... .. . ... ...
ROW AA : C#4 00 F ... ... ... : B-2 00 8 ... ... ... : G#2 00 . P8D : C-# 00 F ... : ... .. . ... ... : C#4 01 5 ... ... : ... .. . ... ... : ... .. . ... ...
ROW AB : ... .. E ... ... ... : ... .. B ... ... ... : G-2 00 . ... : ... .. C ... : ... .. . ... ... : ... .. 4 ... ... : ... .. 3 ... ... : ... .. . ... ...
ROW AC : ... .. D ... ... ... : ... .. 8 ... ... ... : F#2 00 . P8F : ... .. 6 ... : ... .. . ... ... : ... .. . ... ... : ... .. . ... ... : ... .. . ... ...
ROW AD : ... .. A ... ... ... : ... .. 0 ... ... ... : ... .. . P6F : ... .. 3 ... : ... .. . ... ... : D-4 01 5 ... ... : ... .. . ... ... : ... .. . ... ...
ROW AE : ... .. . ... ... ... : B-2 00 5 P80 ... ... : F-2 00 . P73 : ... .. 2 ... : ... .. . ... ... : ... .. 4 ... ... : ... .. . ... ... : ... .. . ... ...
ROW AF : ... .. . ... ... ... : ... .. 8 ... ... ... : E-2 00 . P79 : ... .. 0 ... : ... .. . ... ... : ... .. . ... ... : ... .. . ... ... : ... .. . ... ...
ROW B0 : ... .. . ... ... ... : F#2 00 8 ... ... ... : F-4 00 . P80 : 7-# 00 F ... : ... .. . ... ... : E-4 01 5 ... ... : ... .. . ... ... : ... .. . ... ...
ROW B1 : ... .. . ... ... ... : ... .. B ... ... ... : G-3 00 . ... : ... .. C ... : ... .. . ... ... : ... .. 4 ... ... : ... .. . ... ... : ... .. . ... ...
ROW B2 : ... .. . ... ... ... : ... .. 8 ... ... ... : C-3 00 . ... : ... .. 6 ... : ... .. . ... ... : ... .. . ... ... : ... .. . ... ... : ... .. . ... ...
ROW B3 : ... .. . ... ... ... : ... .. 0 ... ... ... : B-2 00 . ... : ... .. 3 ... : ... .. . ... ... : F#4 01 5 ... ... : ... .. . ... ... : ... .. . ... ...
ROW B4 : ... .. . ... ... ... : F#2 00 5 P80 ... ... : F#2 00 . ... : ... .. 2 ... : ... .. . ... ... : ... .. 4 ... ... : ... .. . ... ... : ... .. . ... ...
ROW B5 : ... .. . ... ... ... : ... .. 8 ... ... ... : ... .. . ... : ... .. 0 ... : ... .. . ... ... : ... .. . ... ... : ... .. . ... ... : ... .. . ... ...
ROW B6 : ... .. . ... ... ... : G-2 00 8 ... ... ... : ... .. . ... : 1-# 00 F ... : ... .. . ... ... : G-4 01 5 ... ... : ... .. . ... ... : ... .. . ... ...
ROW B7 : ... .. 2 ... ... ... : ... .. B ... ... ... : ... .. . ... : ... .. C ... : ... .. . ... ... : ... .. 4 ... ... : ... .. . ... ... : ... .. . ... ...
ROW B8 : ... .. . ... ... ... : ... .. 8 ... ... ... : ... .. . ... : ... .. 6 ... : ... .. . ... ... : ... .. . ... ... : ... .. . ... ... : ... .. . ... ...
ROW B9 : ... .. . ... ... ... : ... .. 0 ... ... ... : ... .. . ... : ... .. 3 ... : ... .. . ... ... : A-4 01 5 ... ... : ... .. . ... ... : ... .. . ... ...
ROW BA : ... .. 1 ... ... ... : G-2 00 5 P80 ... ... : ... .. . ... : ... .. 2 ... : ... .. . ... ... : ... .. 4 ... ... : ... .. . ... ... : ... .. . ... ...
ROW BB : ... .. . ... ... ... : ... .. 8 ... ... ... : ... .. . ... : ... .. 0 ... : ... .. . ... ... : ... .. . ... ... : ... .. . ... ... : ... .. . ... ...
ROW BC : B-3 00 F ... ... ... : A-2 00 8 ... ... ... : ... .. . ... : C-# 00 F ... : ... .. . ... ... : B-4 01 5 ... ... : ... .. . ... ... : ... .. . ... ...
ROW BD : ... .. E ... ... ... : ... .. B ... ... ... : ... .. . ... : ... .. C ... : ... .. . ... ... : ... .. 4 ... ... : ... .. . ... ... : ... .. . ... ...
ROW BE : ... .. D ... ... ... : ... .. 8 ... ... ... : ... .. . ... : ... .. 6 ... : ... .. . ... ... : ... .. . ... ... : ... .. . ... ... : ... .. . ... ...
ROW BF : ... .. A ... ... ... : ... .. 0 ... ... ... : ... .. . ... : ... .. 3 ... : ... .. . ... ... : C#5 01 5 ... ... : ... .. . ... ... : ... .. . ... ...
ROW C0 : ... .. . ... ... ... : A-2 00 5 P80 ... ... : ... .. . ... : ... .. 2 ... : ... .. . ... ... : ... .. 4 ... ... : ... .. . ... ... : ... .. . ... ...
ROW C1 : ... .. . ... ... ... : ... .. 8 ... ... ... : ... .. . ... : ... .. 0 ... : ... .. . ... ... : ... .. . ... ... : ... .. . ... ... : ... .. . ... ...
ROW C2 : ... .. . ... ... ... : B-2 00 8 ... ... ... : ... .. . ... : 7-# 00 F ... : ... .. . ... ... : D-5 01 5 ... ... : --- .. . P81 ... : --- .. . ... ...
ROW C3 : ... .. . ... ... ... : ... .. B ... ... ... : ... .. . ... : ... .. C ... : ... .. . ... ... : ... .. 4 ... ... : ... .. . ... ... : ... .. . ... ...
ROW C4 : ... .. . ... ... ... : ... .. 8 ... ... ... : ... .. . ... : ... .. 6 ... : ... .. . ... ... : ... .. . ... ... : ... .. . ... ... : ... .. . ... ...
ROW C5 : ... .. . ... ... ... : ... .. 0 ... ... ... : ... .. . ... : ... .. 3 ... : ... .. . ... ... : E-5 01 5 ... ... : ... .. . ... ... : ... .. . ... ...
ROW C6 : ... .. . ... ... ... : B-2 00 5 P80 ... ... : ... .. . ... : ... .. 2 ... : ... .. . ... ... : ... .. 4 ... ... : ... .. . ... ... : ... .. . ... ...
ROW C7 : ... .. . ... ... ... : ... .. 8 ... ... ... : ... .. . ... : ... .. 0 ... : ... .. . ... ... : ... .. . ... ... : ... .. . ... ... : ... .. . ... ...
ROW C8 : ... .. . ... ... ... : F#2 00 8 ... ... ... : F-5 00 . ... : 1-# 00 F ... : ... .. . ... ... : F#5 01 5 ... ... : D-3 01 6 P80 ... : B-3 01 A ... ...
ROW C9 : ... .. . ... ... ... : ... .. B ... ... ... : G-4 00 . ... : ... .. C ... : ... .. . ... ... : ... .. 4 ... ... : ... .. . ... ... : ... .. 8 ... ...
ROW CA : ... .. . ... ... ... : ... .. 8 ... ... ... : C-4 00 . ... : ... .. 6 ... : ... .. . ... ... : ... .. . ... ... : ... .. 5 ... ... : ... .. 5 ... ...
ROW CB : ... .. . ... ... ... : ... .. 0 ... ... ... : B-3 00 . ... : ... .. 3 ... : ... .. . ... ... : E-5 01 5 ... ... : ... .. 4 ... ... : ... .. . ... ...
ROW CC : ... .. . ... ... ... : F#2 00 5 P80 ... ... : F#3 00 . ... : ... .. 2 ... : ... .. . ... ... : ... .. 4 ... ... : ... .. . ... ... : ... .. . ... ...
ROW CD : ... .. . ... ... ... : ... .. 8 ... ... ... : ... .. . ... : ... .. 0 ... : ... .. . ... ... : ... .. . ... ... : ... .. . ... ... : ... .. . ... ...
ROW CE : ... .. . ... ... ... : G-2 00 8 ... ... ... : ... .. . ... : B-# 00 F ... : ... .. . ... ... : D-5 01 5 ... ... : ... .. . ... ... : ... .. . ... ...
ROW CF : ... .. . ... ... ... : ... .. B ... ... ... : ... .. . ... : ... .. C ... : ... .. . ... ... : ... .. 4 ... ... : ... .. 3 ... ... : ... .. . ... ...
ROW D0 : ... .. . ... ... ... : ... .. 8 ... ... ... : ... .. . ... : ... .. 6 ... : ... .. . ... ... : ... .. . ... ... : ... .. . ... ... : ... .. . ... ...
ROW D1 : ... .. . ... ... ... : ... .. 0 ... ... ... : ... .. . ... : ... .. 3 ... : ... .. . ... ... : C#5 01 5 ... ... : ... .. . ... ... : ... .. . ... ...
ROW D2 : ... .. . ... ... ... : G-2 00 5 P80 ... ... : ... .. . ... : ... .. 2 ... : ... .. . ... ... : ... .. 4 ... ... : ... .. . ... ... : ... .. . ... ...
ROW D3 : ... .. . ... ... ... : ... .. 8 ... ... ... : ... .. . ... : ... .. 0 ... : ... .. . ... ... : ... .. . ... ... : ... .. . ... ... : ... .. . ... ...
ROW D4 : ... .. . ... ... ... : A-2 00 8 ... ... ... : E-3 00 . P85 : 7-# 00 F ... : ... .. . ... ... : B-4 01 5 ... ... : ... .. . ... ... : ... .. . ... ...
ROW D5 : ... .. . ... ... ... : ... .. B ... ... ... : D#3 00 . P7A : ... .. C ... : ... .. . ... ... : ... .. 4 ... ... : ... .. . ... ... : ... .. . ... ...
ROW D6 : ... .. . ... ... ... : ... .. 8 ... ... ... : C#3 00 . P86 : ... .. 6 ... : ... .. . ... ... : ... .. . ... ... : ... .. . ... ... : ... .. . ... ...
ROW D7 : ... .. . ... ... ... : ... .. 0 ... ... ... : C-3 00 . P7E : ... .. 3 ... : ... .. . ... ... : A-4 01 5 ... ... : ... .. . ... ... : ... .. . ... ...
ROW D8 : ... .. . ... ... ... : A-2 00 5 P80 ... ... : B-2 00 . P77 : ... .. 2 ... : ... .. . ... ... : ... .. 4 ... ... : ... .. . ... ... : ... .. . ... ...
ROW D9 : ... .. . ... ... ... : ... .. 8 ... ... ... : A-2 00 . P8E : ... .. 0 ... : ... .. . ... ... : ... .. . ... ... : ... .. . ... ... : ... .. . ... ...
ROW DA : ... .. . ... ... ... : B-2 00 8 ... ... ... : G#2 00 . P8D : 1-# 00 F ... : ... .. . ... ... : G-4 01 5 ... ... : ... .. . ... ... : ... .. . ... ...
ROW DB : ... .. . ... ... ... : ... .. B ... ... ... : G-2 00 . ... : ... .. C ... : ... .. . ... ... : ... .. 4 ... ... : ... .. . ... ... : ... .. . ... ...
ROW DC : ... .. . ... ... ... : ... .. 8 ... ... ... : F#2 00 . P8F : ... .. 6 ... : ... .. . ... ... : ... .. . ... ... : ... .. . ... ... : ... .. . ... ...
ROW DD : ... .. . ... ... ... : ... .. 0 ... ... ... : ... .. . P6F : ... .. 3 ... : ... .. . ... ... : F#4 01 5 ... ... : ... .. . ... ... : ... .. . ... ...
ROW DE : ... .. . ... ... ... : B-2 00 5 P80 ... ... : F-2 00 . P73 : ... .. 2 ... : ... .. . ... ... : ... .. 4 ... ... : ... .. . ... ... : ... .. . ... ...
ROW DF : ... .. . ... ... ... : ... .. 8 ... ... ... : E-2 00 . P79 : ... .. 0 ... : ... .. . ... ... : ... .. . ... ... : ... .. . ... ... : ... .. . ... ...
ROW E0 : ... .. . ... ... ... : F#2 00 8 ... ... ... : F-4 00 . P80 : 9-# 00 F ... : ... .. . ... ... : E-4 01 5 ... ... : ... .. 6 ... ... : ... .. A ... ...
ROW E1 : ... .. . ... ... ... : ... .. B ... ... ... : G-3 00 . ... : ... .. C ... : ... .. . ... ... : ... .. 4 ... ... : ... .. . ... ... : ... .. 8 ... ...
ROW E2 : ... .. . ... ... ... : ... .. 8 ... ... ... : C-3 00 . ... : ... .. 6 ... : ... .. . ... ... : ... .. . ... ... : ... .. 5 ... ... : ... .. 5 ... ...
ROW E3 : ... .. . ... ... ... : ... .. 0 ... ... ... : B-2 00 . ... : ... .. 3 ... : ... .. . ... ... : D-4 01 5 ... ... : ... .. 4 ... ... : ... .. . ... ...
ROW E4 : ... .. . ... ... ... : F#2 00 5 P80 ... ... : F#2 00 . ... : ... .. 2 ... : ... .. . ... ... : ... .. 4 ... ... : ... .. . ... ... : ... .. . ... ...
ROW E5 : ... .. . ... ... ... : ... .. 8 ... ... ... : ... .. . ... : ... .. 0 ... : ... .. . ... ... : ... .. . ... ... : ... .. . ... ... : ... .. . ... ...
ROW E6 : ... .. . ... ... ... : G-2 00 8 ... ... ... : ... .. . ... : ... .. F ... : ... .. . ... ... : C-4 01 5 ... ... : G-3 01 6 ... ... : D-4 01 A ... ...
ROW E7 : ... .. . ... ... ... : ... .. B ... ... ... : ... .. . ... : ... .. C ... : ... .. . ... ... : ... .. 4 ... ... : ... .. . ... ... : ... .. 8 ... ...
ROW E8 : ... .. . ... ... ... : ... .. 8 ... ... ... : ... .. . ... : ... .. 6 ... : ... .. . ... ... : ... .. . ... ... : ... .. 5 ... ... : ... .. 5 ... ...
ROW E9 : ... .. . ... ... ... : ... .. 0 ... ... ... : ... .. . ... : ... .. 3 ... : ... .. . ... ... : C#4 01 5 ... ... : ... .. 4 ... ... : ... .. . ... ...
ROW EA : ... .. . ... ... ... : G-2 00 5 P80 ... ... : ... .. . ... : ... .. 2 ... : ... .. . ... ... : ... .. 4 ... ... : ... .. . ... ... : ... .. . ... ...
ROW EB : ... .. . ... ... ... : ... .. 8 ... ... ... : ... .. . ... : ... .. 0 ... : ... .. . ... ... : ... .. . ... ... : ... .. . ... ... : ... .. . ... ...
ROW EC : ... .. . P84 ... ... : A-2 00 8 ... ... ... : ... .. . ... : 7-# 00 F ... : ... .. . ... ... : B-3 01 5 ... ... : B-3 01 6 ... ... : G-4 01 A ... ...
ROW ED : ... .. . P86 ... ... : ... .. B ... ... ... : ... .. . ... : ... .. C ... : ... .. . ... ... : ... .. 4 ... ... : ... .. . ... ... : ... .. 8 ... ...
ROW EE : ... .. . P85 ... ... : ... .. 8 ... ... ... : ... .. . ... : ... .. 6 ... : ... .. . ... ... : ... .. . ... ... : ... .. 5 ... ... : ... .. 5 ... ...
ROW EF : ... .. . P82 ... ... : ... .. 0 ... ... ... : ... .. . ... : ... .. 3 ... : ... .. . ... ... : A-3 01 5 ... ... : ... .. 4 ... ... : ... .. . ... ...
ROW F0 : ... .. . P7E ... ... : A-2 00 5 P80 ... ... : ... .. . ... : ... .. 2 ... : ... .. . ... ... : ... .. 4 ... ... : ... .. . ... ... : ... .. . ... ...
ROW F1 : ... .. . P7B ... ... : ... .. 8 ... ... ... : ... .. . ... : ... .. 0 ... : ... .. . ... ... : ... .. . ... ... : ... .. . ... ... : ... .. . ... ...
ROW F2 : ... .. . P7A ... ... : B-2 00 8 ... ... ... : ... .. . ... : ... .. F ... : ... .. . ... ... : G-3 01 5 ... ... : D-4 01 6 ... ... : B-4 01 A ... ...
ROW F3 : ... .. . P7C ... ... : ... .. B ... ... ... : ... .. . ... : ... .. C ... : ... .. . ... ... : ... .. 4 ... ... : ... .. . ... ... : ... .. 8 ... ...
ROW F4 : ... .. . P80 ... ... : ... .. 8 ... ... ... : ... .. . ... : ... .. 6 ... : ... .. . ... ... : ... .. . ... ... : ... .. 5 ... ... : ... .. 5 ... ...
ROW F5 : ... .. . P83 ... ... : ... .. 0 ... ... ... : ... .. . ... : ... .. 3 ... : ... .. . ... ... : F#3 01 5 ... ... : ... .. 4 ... ... : ... .. . ... ...
ROW F6 : ... .. . P86 ... ... : B-2 00 5 P80 ... ... : ... .. . ... : ... .. 2 ... : ... .. . ... ... : ... .. 4 ... ... : ... .. . ... ... : ... .. . ... ...
ROW F7 : ... .. . ... ... ... : ... .. 8 ... ... ... : ... .. . ... : ... .. 0 ... : ... .. . ... ... : ... .. . ... ... : ... .. . ... ... : ... .. . ... ...
ROW F8 : ... .. . P82 ... ... : A-2 00 8 ... ... ... : F-5 00 . ... : 9-# 00 F ... : ... .. . ... ... : D-3 01 5 ... ... : G-4 01 6 ... ... : C#5 01 A ... ...
ROW F9 : ... .. . P7F ... ... : ... .. B ... ... ... : G-4 00 . ... : ... .. C ... : ... .. . ... ... : ... .. 4 ... ... : ... .. . ... ... : ... .. 8 ... ...
ROW FA : ... .. . P7B ... ... : ... .. 8 ... ... ... : C-4 00 . ... : ... .. 6 ... : ... .. . ... ... : ... .. . ... ... : ... .. 5 ... ... : ... .. 5 ... ...
ROW FB : ... .. . P7A ... ... : ... .. 0 ... ... ... : B-3 00 . ... : ... .. 3 ... : ... .. . ... ... : E-3 01 5 ... ... : ... .. 3 ... ... : ... .. 4 ... ...
ROW FC : ... .. . P7C ... ... : A-2 00 5 P80 ... ... : F#3 00 . ... : ... .. 2 ... : ... .. . ... ... : ... .. 4 ... ... : ... .. . ... ... : ... .. . ... ...
ROW FD : ... .. . P80 ... ... : ... .. 8 ... ... ... : ... .. . ... : ... .. 0 ... : ... .. . ... ... : ... .. . ... ... : ... .. . ... ... : ... .. . ... ...
ROW FE : ... .. . P83 ... ... : B-2 00 8 ... ... ... : ... .. . ... : 2-# 00 F ... : ... .. . ... ... : F#3 01 5 ... ... : ... .. 2 ... ... : ... .. 3 ... ...
ROW FF : ... .. . P86 ... ... : ... .. B ... ... ... : ... .. . ... : ... .. C ... : ... .. . ... ... : ... .. 4 ... ... : ... .. . ... ... : ... .. . ... ...

PATTERN 0E
ROW 00 : ... .. . ... ... ... : ... .. 8 ... ... ... : ... .. . ... : ... .. 6 ... : ... .. . ... ... : ... .. . ... ... : ... .. . ... ... : ... .. . ... ...
ROW 01 : ... .. . P83 ... ... : ... .. 0 ... ... ... : ... .. . ... : ... .. 3 ... : ... .. . ... ... : G-3 01 5 ... ... : ... .. . ... ... : ... .. . ... ...
ROW 02 : ... .. . P80 ... ... : B-2 00 5 P80 ... ... : ... .. . ... : ... .. 2 ... : ... .. . ... ... : ... .. 4 ... ... : ... .. . ... ... : ... .. . ... ...
ROW 03 : ... .. . P7C ... ... : ... .. 8 ... ... ... : ... .. . ... : ... .. 0 ... : ... .. . ... ... : ... .. . ... ... : ... .. . ... ... : ... .. . ... ...
ROW 04 : ... .. . P7A ... ... : C#3 00 8 ... ... ... : E-3 00 . P85 : 1-# 00 F ... : ... .. . ... ... : A-3 01 5 ... ... : ... .. 1 ... ... : ... .. 2 ... ...
ROW 05 : ... .. . P7B ... ... : ... .. B ... ... ... : D#3 00 . P7A : ... .. C ... : ... .. . ... ... : ... .. 4 ... ... : ... .. . ... ... : ... .. . ... ...
ROW 06 : ... .. . P7F ... ... : ... .. 8 ... ... ... : C#3 00 . P86 : ... .. 6 ... : ... .. . ... ... : ... .. . ... ... : ... .. . ... ... : ... .. . ... ...
ROW 07 : ... .. . P82 ... ... : ... .. 0 ... ... ... : C-3 00 . P7E : ... .. 3 ... : ... .. . ... ... : B-3 01 5 ... ... : ... .. . ... ... : ... .. . ... ...
ROW 08 : ... .. . P86 ... ... : C#3 00 5 P80 ... ... : B-2 00 . P77 : ... .. 2 ... : ... .. . ... ... : ... .. 4 ... ... : ... .. . ... ... : ... .. . ... ...
ROW 09 : ... .. . ... ... ... : ... .. 8 ... ... ... : A-2 00 . P8E : ... .. 0 ... : ... .. . ... ... : ... .. . ... ... : ... .. . ... ... : ... .. . ... ...
ROW 0A : ... .. . P83 ... ... : D-3 00 8 ... ... ... : G#2 00 . P8D : C-# 00 F ... : ... .. . ... ... : C#4 01 5 ... ... : ... .. . ... ... : ... .. . ... ...
ROW 0B : ... .. . P80 ... ... : ... .. B ... ... ... : G-2 00 . ... : ... .. C ... : ... .. . ... ... : ... .. 4 ... ... : ... .. . ... ... : ... .. . ... ...
ROW 0C : ... .. . P7C ... ... : ... .. 8 ... ... ... : F#2 00 . P8F : ... .. 6 ... : ... .. . ... ... : ... .. . ... ... : ... .. . ... ... : ... .. . ... ...
ROW 0D : ... .. . P7A ... ... : ... .. 0 ... ... ... : ... .. . P6F : ... .. 3 ... : ... .. . ... ... : D-4 01 5 ... ... : ... .. 2 ... ... : ... .. 3 ... ...
ROW 0E : ... .. . P7B ... ... : D-3 00 5 P80 ... ... : F-2 00 . P73 : ... .. 2 ... : ... .. . ... ... : ... .. 4 ... ... : ... .. . ... ... : ... .. . ... ...
ROW 0F : ... .. . P7E ... ... : ... .. 8 ... ... ... : E-2 00 . P79 : ... .. 0 ... : ... .. . ... ... : ... .. . ... ... : ... .. . ... ... : ... .. . ... ...
ROW 10 : ... .. . P82 ... ... : C#3 00 8 ... ... ... : F-4 00 . P80 : 7-# 00 F ... : ... .. . ... ... : E-4 01 5 ... ... : ... .. . P84 ... : D-5 01 3 P7E ...
ROW 11 : ... .. . P85 ... ... : ... .. B ... ... ... : G-3 00 . ... : ... .. C ... : ... .. . ... ... : ... .. 4 ... ... : G#4 01 2 P7E ... : ... .. . P80 ...
ROW 12 : ... .. . P86 ... ... : ... .. 8 ... ... ... : C-3 00 . ... : ... .. 6 ... : ... .. . ... ... : ... .. . ... ... : ... .. . P7D ... : ... .. . P7F ...
ROW 13 : ... .. . P84 ... ... : ... .. 0 ... ... ... : B-2 00 . ... : ... .. 3 ... : ... .. . ... ... : F#4 01 5 ... ... : G-4 01 2 P82 ... : C#5 01 4 P82 ...
ROW 14 : ... .. . P80 ... ... : C#3 00 5 P80 ... ... : F#2 00 . ... : ... .. 2 ... : ... .. . ... ... : ... .. 4 ... ... : ... .. . P7E ... : ... .. . P7E ...
ROW 15 : ... .. . P7D ... ... : ... .. 8 ... ... ... : ... .. . ... : ... .. 0 ... : ... .. . ... ... : ... .. . ... ... : F#4 01 2 P83 ... : C-5 01 4 P82 ...
ROW 16 : ... .. . P7A ... ... : D-3 00 8 ... ... ... : ... .. . ... : 1-# 00 F ... : ... .. . ... ... : G-4 01 5 ... ... : ... .. 3 P82 ... : ... .. 5 P81 ...
ROW 17 : ... .. . ... ... ... : ... .. B ... ... ... : ... .. . ... : ... .. C ... : ... .. . ... ... : ... .. 4 ... ... : ... .. . P84 ... : ... .. . P83 ...
ROW 18 : ... .. . P7E ... ... : ... .. 8 ... ... ... : ... .. . ... : ... .. 6 ... : ... .. . ... ... : ... .. . ... ... : G-4 01 3 P80 ... : C#5 01 5 P80 ...
ROW 19 : ... .. . P81 ... ... : ... .. 0 ... ... ... : ... .. . ... : ... .. 3 ... : ... .. . ... ... : A-4 01 5 ... ... : ... .. . P83 ... : ... .. . P83 ...
ROW 1A : ... .. . P85 ... ... : D-3 00 5 P80 ... ... : ... .. . ... : ... .. 2 ... : ... .. . ... ... : ... .. 4 ... ... : G#4 01 3 P7E ... : D-5 01 5 P80 ...
ROW 1B : ... .. . P86 ... ... : ... .. 8 ... ... ... : ... .. . ... : ... .. 0 ... : ... .. . ... ... : ... .. . ... ... : ... .. . ... ... : ... .. . ... ...
ROW 1C : ... .. . P84 ... ... : E-3 00 8 ... ... ... : ... .. . ... : C-# 00 F ... : ... .. . ... ... : B-4 01 5 ... ... : G-4 01 4 P82 ... : C#5 01 6 P82 ...
ROW 1D : ... .. . P80 ... ... : ... .. B ... ... ... : ... .. . ... : ... .. C ... : ... .. . ... ... : ... .. 4 ... ... : ... .. . P7F ... : ... .. . P7F ...
ROW 1E : ... .. . P7D ... ... : ... .. 8 ... ... ... : ... .. . ... : ... .. 6 ... : ... .. . ... ... : ... .. . ... ... : F#4 01 4 P83 ... : C-5 01 6 P82 ...
ROW 1F : ... .. . P7A ... ... : ... .. 0 ... ... ... : ... .. . ... : ... .. 3 ... : ... .. . ... ... : C#5 01 5 ... ... : ... .. . P82 ... : ... .. . P81 ...
ROW 20 : ... .. 2 ... ... ... : E-3 00 5 P80 ... ... : ... .. . ... : ... .. 2 ... : ... .. . ... ... : ... .. 4 ... ... : ... .. . P84 ... : ... .. . P83 ...
ROW 21 : ... .. . P7D ... ... : ... .. 8 ... ... ... : ... .. . ... : ... .. 0 ... : ... .. . ... ... : ... .. . ... ... : G-4 01 4 P80 ... : C#5 01 6 P80 ...
ROW 22 : ... .. . P80 ... ... : F#3 00 8 ... ... ... : ... .. . ... : 7-# 00 F ... : ... .. . ... ... : D-5 01 5 ... ... : ... .. 5 P83 ... : ... .. 8 P83 ...
ROW 23 : ... .. 1 P84 ... ... : ... .. B ... ... ... : ... .. . ... : ... .. C ... : ... .. . ... ... : ... .. 4 ... ... : G#4 01 5 P7E ... : D-5 01 8 P80 ...
ROW 24 : ... .. . P86 ... ... : ... .. 8 ... ... ... : ... .. . ... : ... .. 6 ... : ... .. . ... ... : ... .. . ... ... : ... .. . ... ... : ... .. . ... ...
ROW 25 : ... .. . P85 ... ... : ... .. 0 ... ... ... : ... .. . ... : ... .. 3 ... : ... .. . ... ... : E-5 01 5 ... ... : G-4 01 4 P83 ... : C#5 01 6 P83 ...
ROW 26 : ... .. 0 ... ... ... : F#3 00 5 P80 ... ... : ... .. . ... : ... .. 2 ... : ... .. . ... ... : ... .. 4 ... ... : ... .. . P80 ... : ... .. . P80 ...
ROW 27 : ... .. . ... ... ... : ... .. 8 ... ... ... : ... .. . ... : ... .. 0 ... : ... .. . ... ... : ... .. . ... ... : F#4 01 4 P84 ... : C-5 01 6 P83 ...
ROW 28 : G-3 00 F P80 ... ... : G-3 00 8 ... ... ... : F-5 00 . ... : 1-# 00 F ... : ... .. . ... ... : F#5 01 5 ... ... : G-4 01 6 P80 ... : C#5 01 A P80 ...
ROW 29 : ... .. E ... ... ... : ... .. B ... ... ... : G-4 00 . ... : ... .. C ... : ... .. . ... ... : ... .. 4 ... ... : ... .. . ... ... : ... .. 8 ... ...
ROW 2A : ... .. D ... ... ... : ... .. 8 ... ... ... : C-4 00 . ... : ... .. 6 ... : ... .. . ... ... : ... .. . ... ... : ... .. 5 ... ... : ... .. 5 ... ...
ROW 2B : ... .. A ... ... ... : ... .. 0 ... ... ... : B-3 00 . ... : ... .. 3 ... : ... .. . ... ... : E-5 01 5 ... ... : ... .. 4 ... ... : ... .. . ... ...
ROW 2C : ... .. . ... ... ... : G-3 00 5 P80 ... ... : F#3 00 . ... : ... .. 2 ... : ... .. . ... ... : ... .. 4 ... ... : ... .. . ... ... : ... .. . ... ...
ROW 2D : ... .. . ... ... ... : ... .. 8 ... ... ... : ... .. . ... : ... .. 0 ... : ... .. . ... ... : ... .. . ... ... : ... .. . ... ... : ... .. . ... ...
ROW 2E : ... .. . ... ... ... : A-3 00 8 ... ... ... : ... .. . ... : B-# 00 F ... : ... .. . ... ... : D-5 01 5 ... ... : ... .. . ... ... : ... .. . ... ...
ROW 2F : ... .. . ... ... ... : ... .. B ... ... ... : ... .. . ... : ... .. C ... : ... .. . ... ... : ... .. 4 ... ... : ... .. 3 ... ... : ... .. . ... ...
ROW 30 : ... .. . ... ... ... : ... .. 8 ... ... ... : ... .. . ... : ... .. 6 ... : ... .. . ... ... : ... .. . ... ... : ... .. . ... ... : ... .. . ... ...
ROW 31 : ... .. 0 ... ... ... : ... .. 0 ... ... ... : ... .. . ... : ... .. 3 ... : ... .. . ... ... : C#5 01 5 ... ... : --- .. . ... ... : --- .. . ... ...
ROW 32 : ... .. . ... ... ... : A-3 00 5 P80 ... ... : ... .. . ... : ... .. 2 ... : ... .. . ... ... : ... .. 4 ... ... : ... .. . ... ... : ... .. . ... ...
ROW 33 : ... .. . ... ... ... : ... .. 8 ... ... ... : ... .. . ... : ... .. 0 ... : ... .. . ... ... : ... .. . ... ... : ... .. . ... ... : ... .. . ... ...
ROW 34 : G-3 00 D P80 ... ... : B-3 00 8 ... ... ... : E-3 00 . P85 : 7-# 00 F ... : ... .. . ... ... : B-4 01 5 ... ... : G-4 01 5 ... ... : C#5 01 8 ... ...
ROW 35 : ... .. A ... ... ... : ... .. B ... ... ... : D#3 00 . P7A : ... .. C ... : ... .. . ... ... : ... .. 4 ... ... : ... .. 3 ... ... : ... .. 5 ... ...
ROW 36 : ... .. 7 ... ... ... : ... .. 8 ... ... ... : C#3 00 . P86 : ... .. 6 ... : ... .. . ... ... : ... .. . ... ... : ... .. 2 ... ... : ... .. 2 ... ...
ROW 37 : ... .. 4 ... ... ... : ... .. 0 ... ... ... : C-3 00 . P7E : ... .. 3 ... : ... .. . ... ... : A-4 01 5 ... ... : ... .. 1 ... ... : ... .. 1 ... ...
ROW 38 : ... .. D ... ... ... : B-3 00 5 P80 ... ... : B-2 00 . P77 : ... .. 2 ... : ... .. . ... ... : ... .. 4 ... ... : ... .. 5 ... ... : ... .. 8 ... ...
ROW 39 : ... .. A ... ... ... : ... .. 8 ... ... ... : A-2 00 . P8E : ... .. 0 ... : ... .. . ... ... : ... .. . ... ... : ... .. 3 ... ... : ... .. 5 ... ...
ROW 3A : ... .. 7 ... ... ... : C#4 00 8 ... ... ... : G#2 00 . P8D : 1-# 00 F ... : ... .. . ... ... : G-4 01 5 ... ... : ... .. 2 ... ... : ... .. 2 ... ...
ROW 3B : ... .. 4 ... ... ... : ... .. B ... ... ... : G-2 00 . ... : ... .. C ... : ... .. . ... ... : ... .. 4 ... ... : ... .. 1 ... ... : ... .. 1 ... ...
ROW 3C : ... .. D ... ... ... : ... .. 8 ... ... ... : F#2 00 . P8F : ... .. 6 ... : ... .. . ... ... : ... .. . ... ... : ... .. 5 ... ... : ... .. 8 ... ...
ROW 3D : ... .. A ... ... ... : ... .. 0 ... ... ... : ... .. . P6F : ... .. 3 ... : ... .. . ... ... : F#4 01 5 ... ... : ... .. 3 ... ... : ... .. 5 ... ...
ROW 3E : ... .. 7 ... ... ... : C#4 00 5 P80 ... ... : F-2 00 . P73 : ... .. 2 ... : ... .. . ... ... : ... .. 4 ... ... : ... .. 2 ... ... : ... .. 2 ... ...
ROW 3F : ... .. 4 ... ... ... : ... .. 8 ... ... ... : E-2 00 . P79 : ... .. 0 ... : ... .. . ... ... : ... .. . ... ... : ... .. 1 ... ... : ... .. 1 ... ...
ROW 40 : ... .. F ... ... ... : D-4 00 8 ... ... ... : F-4 00 . P80 : 9-# 00 F ... : ... .. . ... ... : E-4 01 5 ... ... : ... .. 6 ... ... : ... .. A ... ...
ROW 41 : ... .. E ... ... ... : ... .. B ... ... ... : G-3 00 . ... : ... .. C ... : ... .. . ... ... : ... .. 4 ... ... : ... .. . ... ... : ... .. 8 ... ...
ROW 42 : ... .. D ... ... ... : ... .. 8 ... ... ... : C-3 00 . ... : ... .. 6 ... : ... .. . ... ... : ... .. . ... ... : ... .. 5 ... ... : ... .. 5 ... ...
ROW 43 : ... .. A ... ... ... : ... .. 0 ... ... ... : B-2 00 . ... : ... .. 3 ... : ... .. . ... ... : D-4 01 5 ... ... : ... .. 4 ... ... : ... .. . ... ...
ROW 44 : ... .. . ... ... ... : D-4 00 5 P80 ... ... : F#2 00 . ... : ... .. 2 ... : ... .. . ... ... : ... .. 4 ... ... : ... .. . ... ... : ... .. . ... ...
ROW 45 : ... .. 0 ... ... ... : ... .. 8 ... ... ... : ... .. . ... : ... .. 0 ... : ... .. . ... ... : ... .. . ... ... : --- .. . ... ... : --- .. . ... ...
ROW 46 : ... .. . ... ... ... : E-4 00 8 ... ... ... : ... .. . ... : ... .. F ... : ... .. . ... ... : C-4 01 5 ... ... : ... .. . ... ... : ... .. . ... ...
ROW 47 : ... .. . ... ... ... : ... .. B ... ... ... : ... .. . ... : ... .. C ... : ... .. . ... ... : ... .. 4 ... ... : ... .. . ... ... : ... .. . ... ...
ROW 48 : G-3 00 F P80 ... ... : ... .. 8 ... ... ... : ... .. . ... : ... .. 6 ... : ... .. . ... ... : ... .. . ... ... : G-4 01 6 ... ... : C#5 01 A ... ...
ROW 49 : ... .. E ... ... ... : ... .. 0 ... ... ... : ... .. . ... : ... .. 3 ... : ... .. . ... ... : C#4 01 5 ... ... : ... .. . ... ... : ... .. 8 ... ...
ROW 4A : ... .. D ... ... ... : E-4 00 5 P80 ... ... : ... .. . ... : ... .. 2 ... : ... .. . ... ... : ... .. 4 ... ... : ... .. 5 ... ... : ... .. 5 ... ...
ROW 4B : ... .. A ... ... ... : ... .. 8 ... ... ... : ... .. . ... : ... .. 0 ... : ... .. . ... ... : ... .. . ... ... : ... .. 4 ... ... : ... .. . ... ...
ROW 4C : ... .. 0 ... ... ... : F#4 00 8 ... ... ... : ... .. . ... : 7-# 00 F ... : ... .. . ... ... : B-3 01 5 ... ... : --- .. . ... ... : --- .. . ... ...
ROW 4D : ... .. . ... ... ... : ... .. B ... ... ... : ... .. . ... : ... .. C ... : ... .. . ... ... : ... .. 4 ... ... : ... .. . ... ... : ... .. . ... ...
ROW 4E : ... .. . ... ... ... : ... .. 8 ... ... ... : ... .. . ... : ... .. 6 ... : ... .. . ... ... : ... .. . ... ... : ... .. . ... ... : ... .. . ... ...
ROW 4F : ... .. . ... ... ... : ... .. 0 ... ... ... : ... .. . ... : ... .. 3 ... : ... .. . ... ... : A-3 01 5 ... ... : ... .. . ... ... : ... .. . ... ...
ROW 50 : G-3 00 F P80 ... ... : F#4 00 5 P80 ... ... : ... .. . ... : ... .. 2 ... : ... .. . ... ... : ... .. 4 ... ... : G-4 01 6 ... ... : C#5 01 A ... ...
ROW 51 : ... .. E ... ... ... : ... .. 8 ... ... ... : ... .. . ... : ... .. 0 ... : ... .. . ... ... : ... .. . ... ... : ... .. . ... ... : ... .. 8 ... ...
ROW 52 : ... .. D ... ... ... : G-4 00 8 ... ... ... : ... .. . ... : ... .. F ... : ... .. . ... ... : G-3 01 5 ... ... : ... .. 5 ... ... : ... .. 5 ... ...
ROW 53 : ... .. A ... ... ... : ... .. B ... ... ... : ... .. . ... : ... .. C ... : ... .. . ... ... : ... .. 4 ... ... : ... .. 4 ... ... : ... .. . ... ...
ROW 54 : ... .. . ... ... ... : ... .. 8 ... ... ... : ... .. . ... : ... .. 6 ... : ... .. . ... ... : ... .. . ... ... : ... .. . ... ... : ... .. . ... ...
ROW 55 : ... .. 0 ... ... ... : ... .. 0 ... ... ... : ... .. . ... : ... .. 3 ... : ... .. . ... ... : F#3 01 5 ... ... : --- .. . ... ... : --- .. . ... ...
ROW 56 : ... .. . ... ... ... : G-4 00 5 P80 ... ... : ... .. . ... : ... .. 2 ... : ... .. . ... ... : ... .. 4 ... ... : ... .. . ... ... : ... .. . ... ...
ROW 57 : ... .. . ... ... ... : ... .. 8 ... ... ... : ... .. . ... : ... .. 0 ... : ... .. . ... ... : ... .. . ... ... : ... .. . ... ... : ... .. . ... ...
ROW 58 : C#5 00 F P80 ... ... : G-3 00 9 ... ... ... : G#5 00 . ... : ... .. F ... : ... .. . ... ... : F-3 01 A ... ... : D-4 01 A ... ... : A#3 01 F ... ...
ROW 59 : ... .. E ... ... ... : ... .. 8 ... ... ... : A#4 00 . ... : ... .. C ... : ... .. . ... ... : ... .. 9 ... ... : ... .. 9 ... ... : ... .. D ... ...
ROW 5A : ... .. D ... ... ... : ... .. . ... ... ... : D#4 00 . ... : ... .. 6 ... : ... .. . ... ... : ... .. 8 ... ... : ... .. 8 ... ... : ... .. 8 ... ...
ROW 5B : ... .. A ... ... ... : ... .. 7 ... ... ... : D-4 00 . ... : ... .. 3 ... : ... .. . ... ... : ... .. 6 ... ... : ... .. 6 ... ... : ... .. 6 ... ...
ROW 5C : ... .. . ... ... ... : ... .. 5 ... ... ... : A-3 00 . ... : ... .. 2 ... : ... .. . ... ... : ... .. . ... ... : ... .. . ... ... : ... .. . ... ...
ROW 5D : ... .. . ... ... ... : ... .. . ... ... ... : ... .. . ... : ... .. 0 ... : ... .. . ... ... : ... .. 5 ... ... : ... .. 5 ... ... : ... .. . ... ...
ROW 5E : ... .. . ... ... ... : G#3 00 9 ... ... ... : ... .. . ... : ... .. . ... : ... .. . ... ... : ... .. 4 ... ... : ... .. 4 ... ... : ... .. 5 ... ...
ROW 5F : ... .. . ... ... ... : ... .. 8 ... ... ... : ... .. . ... : ... .. . ... : ... .. . ... ... : ... .. 3 ... ... : ... .. 3 ... ... : ... .. . ... ...
ROW 60 : ... .. . ... ... ... : ... .. . ... ... ... : ... .. . ... : ... .. F ... : ... .. . ... ... : ... .. . ... ... : ... .. . ... ... : ... .. . ... ...
ROW 61 : ... .. 0 ... ... ... : ... .. 7 ... ... ... : ... .. . ... : ... .. C ... : ... .. . ... ... : ... .. . ... ... : ... .. . ... ... : ... .. . ... ...
ROW 62 : ... .. . ... ... ... : ... .. 5 ... ... ... : ... .. . ... : ... .. 6 ... : ... .. . ... ... : ... .. . ... ... : ... .. . ... ... : ... .. . ... ...
ROW 63 : ... .. . ... ... ... : ... .. . ... ... ... : ... .. . ... : ... .. 3 ... : ... .. . ... ... : ... .. . ... ... : ... .. . ... ... : ... .. . ... ...
ROW 64 : C#5 00 D P80 ... ... : A#3 00 9 ... ... ... : G-3 00 . P7F : ... .. 2 ... : ... .. . ... ... : ... .. 2 ... ... : ... .. 2 ... ... : ... .. 4 ... ...
ROW 65 : ... .. A ... ... ... : ... .. 8 ... ... ... : F-3 00 . P82 : ... .. 0 ... : ... .. . ... ... : ... .. . ... ... : ... .. . ... ... : ... .. . ... ...
ROW 66 : ... .. 7 ... ... ... : ... .. . ... ... ... : D#3 00 . P8A : ... .. . ... : ... .. . ... ... : ... .. . ... ... : ... .. . ... ... : ... .. . ... ...
ROW 67 : ... .. 4 ... ... ... : ... .. 7 ... ... ... : D-3 00 . P7F : ... .. . ... : ... .. . ... ... : ... .. . ... ... : ... .. . ... ... : ... .. 3 ... ...
ROW 68 : ... .. D ... ... ... : ... .. 5 ... ... ... : C#3 00 . P76 : ... .. F ... : ... .. . ... ... : ... .. . ... ... : ... .. . ... ... : ... .. . ... ...
ROW 69 : ... .. A ... ... ... : ... .. . ... ... ... : B-2 00 . P87 : ... .. C ... : ... .. . ... ... : ... .. . ... ... : ... .. . ... ... : ... .. . ... ...
ROW 6A : ... .. 7 ... ... ... : B-3 00 9 ... ... ... : A#2 00 . P82 : ... .. 6 ... : ... .. . ... ... : ... .. 1 ... ... : ... .. 1 ... ... : ... .. 2 ... ...
ROW 6B : ... .. 4 ... ... ... : ... .. 8 ... ... ... : A-2 00 . P7E : ... .. 3 ... : ... .. . ... ... : ... .. . ... ... : ... .. . ... ... : ... .. . ... ...
ROW 6C : ... .. D ... ... ... : ... .. . ... ... ... : G#2 00 . P7D : ... .. 2 ... : ... .. . ... ... : ... .. . ... ... : ... .. . ... ... : ... .. . ... ...
ROW 6D : ... .. A ... ... ... : ... .. 7 ... ... ... : --- .. . ... : ... .. 0 ... : ... .. . ... ... : ... .. . ... ... : ... .. . ... ... : ... .. 1 ... ...
ROW 6E : ... .. 7 ... ... ... : ... .. 5 ... ... ... : ... .. . ... : ... .. . ... : ... .. . ... ... : ... .. . ... ... : ... .. . ... ... : ... .. . ... ...
ROW 6F : ... .. 4 ... ... ... : ... .. . ... ... ... : ... .. . ... : ... .. . ... : ... .. . ... ... : ... .. . ... ... : ... .. . ... ... : ... .. . ... ...
ROW 70 : ... .. F ... ... ... : A#3 00 9 ... ... ... : A-2 00 . P80 : ... .. F ... : ... .. . ... ... : ... .. . ... ... : ... .. . ... ... : ... .. . ... ...
ROW 71 : ... .. E ... ... ... : ... .. 8 ... ... ... : ... .. . ... : ... .. C ... : ... .. . ... ... : ... .. . ... ... : ... .. . ... ... : ... .. . ... ...
ROW 72 : ... .. D ... ... ... : ... .. . ... ... ... : ... .. . ... : ... .. 6 ... : ... .. . ... ... : ... .. . ... ... : ... .. . ... ... : ... .. . ... ...
ROW 73 : ... .. 8 ... ... ... : ... .. 7 ... ... ... : ... .. . ... : A-# 00 F ... : ... .. . ... ... : ... .. . ... ... : ... .. . ... ... : ... .. . ... ...
ROW 74 : ... .. . ... ... ... : ... .. 5 ... ... ... : ... .. . ... : ... .. . ... : ... .. . ... ... : ... .. . ... ... : ... .. . ... ... : ... .. . ... ...
ROW 75 : ... .. . ... ... ... : ... .. . ... ... ... : --- .. . ... : ... .. . ... : ... .. . ... ... : ... .. . ... ... : ... .. . ... ... : ... .. . ... ...
ROW 76 : ... .. 6 ... ... ... : C-4 00 9 ... ... ... : ... .. . ... : ... .. D ... : ... .. . ... ... : ... .. . ... ... : ... .. . ... ... : ... .. . ... ...
ROW 77 : ... .. . ... ... ... : ... .. 8 ... ... ... : ... .. . ... : ... .. . ... : ... .. . ... ... : ... .. . ... ... : ... .. . ... ... : ... .. . ... ...
ROW 78 : ... .. . ... ... ... : ... .. . ... ... ... : G-2 00 . ... : ... .. . ... : ... .. . ... ... : ... .. . ... ... : ... .. . ... ... : ... .. . ... ...
ROW 79 : ... .. 4 ... ... ... : ... .. 7 ... ... ... : ... .. . ... : ... .. C ... : ... .. . ... ... : ... .. . ... ... : ... .. . ... ... : ... .. . ... ...
ROW 7A : ... .. . ... ... ... : ... .. 5 ... ... ... : ... .. . ... : ... .. . ... : ... .. . ... ... : ... .. . ... ... : ... .. . ... ... : ... .. . ... ...
ROW 7B : ... .. . ... ... ... : ... .. . ... ... ... : ... .. . ... : ... .. . ... : ... .. . ... ... : ... .. . ... ... : ... .. . ... ... : ... .. . ... ...
ROW 7C : ... .. 2 ... ... ... : C#4 00 9 ... ... ... : --- .. . ... : ... .. B ... : ... .. . ... ... : ... .. . ... ... : ... .. . ... ... : ... .. 2 ... ...
ROW 7D : ... .. . ... ... ... : ... .. 8 ... ... ... : ... .. . ... : ... .. . ... : ... .. . ... ... : ... .. . ... ... : ... .. . ... ... : ... .. . ... ...
ROW 7E : ... .. . ... ... ... : ... .. . ... ... ... : ... .. . ... : ... .. . ... : ... .. . ... ... : ... .. . ... ... : ... .. . ... ... : ... .. . ... ...
ROW 7F : ... .. 3 ... ... ... : ... .. 7 ... ... ... : ... .. . ... : ... .. A ... : ... .. . ... ... : ... .. . ... ... : ... .. . ... ... : ... .. . ... ...
ROW 80 : ... .. . ... ... ... : ... .. 5 ... ... ... : B-2 00 . ... : ... .. . ... : ... .. . ... ... : ... .. . ... ... : ... .. . ... ... : ... .. . ... ...
ROW 81 : ... .. . ... ... ... : ... .. . ... ... ... : ... .. . ... : ... .. . ... : ... .. . ... ... : ... .. . ... ... : ... .. . ... ... : ... .. . ... ...
ROW 82 : ... .. 4 ... ... ... : D#4 00 9 ... ... ... : ... .. . ... : ... .. 9 ... : ... .. . ... ... : ... .. . ... ... : ... .. . ... ... : ... .. . ... ...
ROW 83 : ... .. . ... ... ... : ... .. 8 ... ... ... : ... .. . ... : ... .. . ... : ... .. . ... ... : ... .. . ... ... : ... .. . ... ... : ... .. . ... ...
ROW 84 : ... .. . ... ... ... : ... .. . ... ... ... : ... .. . ... : ... .. . ... : ... .. . ... ... : ... .. . ... ... : ... .. . ... ... : ... .. . ... ...
ROW 85 : ... .. 5 ... ... ... : ... .. 7 ... ... ... : --- .. . ... : ... .. 8 ... : ... .. . ... ... : ... .. . ... ... : ... .. . ... ... : ... .. . ... ...
ROW 86 : ... .. . ... ... ... : ... .. 5 ... ... ... : ... .. . ... : ... .. . ... : ... .. . ... ... : ... .. . ... ... : ... .. . ... ... : ... .. . ... ...
ROW 87 : ... .. . ... ... ... : ... .. . ... ... ... : ... .. . ... : ... .. . ... : ... .. . ... ... : ... .. . ... ... : ... .. . ... ... : ... .. . ... ...
ROW 88 : ... .. 6 ... ... ... : C#4 00 9 ... ... ... : F-3 00 . ... : ... .. 7 ... : ... .. . ... ... : G#3 01 4 ... ... : F-4 01 4 ... ... : C#4 01 6 ... ...
ROW 89 : ... .. . ... ... ... : ... .. 8 ... ... ... : ... .. . ... : ... .. . ... : ... .. . ... ... : ... .. 3 ... ... : ... .. 3 ... ... : ... .. 5 ... ...
ROW 8A : ... .. . ... ... ... : ... .. . ... ... ... : ... .. . ... : ... .. . ... : ... .. . ... ... : ... .. . ... ... : ... .. . ... ... : ... .. 3 ... ...
ROW 8B : ... .. . ... ... ... : ... .. 7 ... ... ... : ... .. . ... : ... .. 6 ... : ... .. . ... ... : ... .. . ... ... : ... .. . ... ... : ... .. . ... ...
ROW 8C : ... .. . ... ... ... : ... .. 5 ... ... ... : ... .. . ... : ... .. . ... : ... .. . ... ... : ... .. . ... ... : ... .. . ... ... : ... .. . ... ...
ROW 8D : ... .. . ... ... ... : ... .. . ... ... ... : --- .. . ... : ... .. . ... : ... .. . ... ... : ... .. 2 ... ... : ... .. 2 ... ... : ... .. . ... ...
ROW 8E : ... .. 8 ... ... ... : D#4 00 9 ... ... ... : ... .. . ... : ... .. 5 ... : ... .. . ... ... : ... .. . ... ... : ... .. . ... ... : ... .. . ... ...
ROW 8F : ... .. . ... ... ... : ... .. 8 ... ... ... : ... .. . ... : ... .. . ... : ... .. . ... ... : ... .. . ... ... : ... .. . ... ... : ... .. . ... ...
ROW 90 : ... .. . ... ... ... : ... .. . ... ... ... : D#3 00 . ... : ... .. . ... : ... .. . ... ... : ... .. . ... ... : ... .. . ... ... : ... .. . ... ...
ROW 91 : ... .. . ... ... ... : ... .. 7 ... ... ... : ... .. . ... : ... .. 4 ... : ... .. . ... ... : ... .. . ... ... : ... .. . ... ... : ... .. 4 ... ...
ROW 92 : ... .. . ... ... ... : ... .. 5 ... ... ... : ... .. . ... : ... .. . ... : ... .. . ... ... : ... .. . ... ... : ... .. . ... ... : ... .. . ... ...
ROW 93 : ... .. . ... ... ... : ... .. . ... ... ... : ... .. . ... : ... .. . ... : ... .. . ... ... : ... .. . ... ... : ... .. . ... ... : ... .. . ... ...
ROW 94 : F-5 00 D ... ... ... : F-4 00 9 ... ... ... : --- .. . ... : ... .. . ... : ... .. . ... ... : ... .. . ... ... : ... .. . ... ... : ... .. . ... ...
ROW 95 : ... .. A ... ... ... : ... .. 8 ... ... ... : ... .. . ... : ... .. . ... : ... .. . ... ... : ... .. . ... ... : ... .. . ... ... : ... .. . ... ...
ROW 96 : ... .. 7 ... ... ... : ... .. . ... ... ... : ... .. . ... : ... .. . ... : ... .. . ... ... : ... .. . ... ... : ... .. . ... ... : ... .. . ... ...
ROW 97 : ... .. 4 ... ... ... : ... .. 7 ... ... ... : ... .. . ... : ... .. . ... : ... .. . ... ... : ... .. 3 ... ... : ... .. 3 ... ... : ... .. . ... ...
ROW 98 : ... .. D ... ... ... : ... .. 5 ... ... ... : G#3 00 . ... : ... .. . ... : ... .. . ... ... : ... .. . ... ... : ... .. . ... ... : ... .. . ... ...
ROW 99 : ... .. A ... ... ... : ... .. . ... ... ... : ... .. . ... : ... .. . ... : ... .. . ... ... : ... .. . ... ... : ... .. . ... ... : ... .. . ... ...
ROW 9A : ... .. 7 ... ... ... : G-4 00 9 ... ... ... : ... .. . ... : ... .. . ... : ... .. . ... ... : ... .. . ... ... : ... .. . ... ... : ... .. . ... ...
ROW 9B : ... .. 4 ... ... ... : ... .. 8 ... ... ... : ... .. . ... : ... .. . ... : ... .. . ... ... : ... .. . ... ... : ... .. . ... ... : ... .. . ... ...
ROW 9C : ... .. D ... ... ... : ... .. . ... ... ... : ... .. . ... : ... .. . ... : ... .. . ... ... : ... .. . ... ... : ... .. . ... ... : ... .. . ... ...
ROW 9D : ... .. A ... ... ... : ... .. 7 ... ... ... : --- .. . ... : ... .. . ... : ... .. . ... ... : ... .. . ... ... : ... .. . ... ... : ... .. 5 ... ...
ROW 9E : ... .. 7 ... ... ... : ... .. 5 ... ... ... : ... .. . ... : ... .. . ... : ... .. . ... ... : ... .. . ... ... : ... .. . ... ... : ... .. . ... ...
ROW 9F : ... .. 4 ... ... ... : ... .. . ... ... ... : ... .. . ... : ... .. . ... : ... .. . ... ... : ... .. . ... ... : ... .. . ... ... : ... .. . ... ...
ROW A0 : ... .. F ... ... ... : F-4 00 9 ... ... ... : G#3 00 . ... : 7-# 00 F ... : ... .. . ... ... : ... .. . ... ... : ... .. . ... ... : ... .. . ... ...
ROW A1 : ... .. E ... ... ... : ... .. 8 ... ... ... : A#2 00 . ... : ... .. C ... : ... .. . ... ... : ... .. . ... ... : ... .. . ... ... : ... .. . ... ...
ROW A2 : ... .. D ... ... ... : ... .. . ... ... ... : D#2 00 . ... : ... .. 6 ... : ... .. . ... ... : ... .. . ... ... : ... .. . ... ... : ... .. . ... ...
ROW A3 : ... .. 8 ... ... ... : ... .. 7 ... ... ... : D-2 00 . ... : ... .. 3 ... : ... .. . ... ... : ... .. . ... ... : ... .. . ... ... : ... .. . ... ...
ROW A4 : ... .. . ... ... ... : ... .. 5 ... ... ... : A-1 00 . ... : ... .. 2 ... : ... .. . ... ... : ... .. . ... ... : ... .. . ... ... : ... .. . ... ...
ROW A5 : ... .. . ... ... ... : ... .. . ... ... ... : ... .. . ... : ... .. 0 ... : ... .. . ... ... : ... .. . ... ... : ... .. . ... ... : ... .. . ... ...
ROW A6 : ... .. 7 ... ... ... : G-4 00 9 ... ... ... : ... .. . ... : ... .. . ... : ... .. . ... ... : ... .. 4 ... ... : ... .. 4 ... ... : ... .. 6 ... ...
ROW A7 : ... .. . ... ... ... : ... .. 8 ... ... ... : ... .. . ... : ... .. . ... : ... .. . ... ... : ... .. . ... ... : ... .. . ... ... : ... .. . ... ...
ROW A8 : ... .. . ... ... ... : ... .. . ... ... ... : ... .. . ... : ... .. F ... : ... .. . ... ... : ... .. . ... ... : ... .. . ... ... : ... .. . ... ...
ROW A9 : ... .. 6 ... ... ... : ... .. 7 ... ... ... : ... .. . ... : ... .. C ... : ... .. . ... ... : ... .. . ... ... : ... .. . ... ... : ... .. . ... ...
ROW AA : ... .. . ... ... ... : ... .. 5 ... ... ... : ... .. . ... : ... .. 6 ... : ... .. . ... ... : ... .. . ... ... : ... .. . ... ... : ... .. . ... ...
ROW AB : ... .. . ... ... ... : ... .. . ... ... ... : ... .. . ... : ... .. 3 ... : ... .. . ... ... : ... .. . ... ... : ... .. . ... ... : ... .. . ... ...
ROW AC : ... .. 5 ... ... ... : A-4 00 9 ... ... ... : A#1 00 . P77 : ... .. 2 ... : ... .. . ... ... : ... .. . ... ... : ... .. . ... ... : ... .. . ... ...
ROW AD : ... .. . ... ... ... : ... .. 8 ... ... ... : B-1 00 . P71 : ... .. 0 ... : ... .. . ... ... : ... .. . ... ... : ... .. . ... ... : ... .. . ... ...
ROW AE : ... .. . ... ... ... : ... .. . ... ... ... : C-2 00 . P6E : ... .. . ... : ... .. . ... ... : ... .. . ... ... : ... .. . ... ... : ... .. . ... ...
ROW AF : ... .. 4 ... ... ... : ... .. 7 ... ... ... : C#2 00 . ... : ... .. . ... : ... .. . ... ... : ... .. . ... ... : ... .. . ... ... : ... .. . ... ...
ROW B0 : ... .. . ... ... ... : ... .. 5 ... ... ... : D-2 00 . P71 : ... .. F ... : ... .. . ... ... : ... .. . ... ... : ... .. . ... ... : ... .. . ... ...
ROW B1 : ... .. . ... ... ... : ... .. . ... ... ... : D#2 00 . P76 : ... .. C ... : ... .. . ... ... : ... .. . ... ... : ... .. . ... ... : ... .. . ... ...
ROW B2 : ... .. 3 ... ... ... : B-4 00 9 ... ... ... : E-2 00 . P7E : ... .. 6 ... : ... .. . ... ... : ... .. . ... ... : ... .. . ... ... : ... .. . ... ...
ROW B3 : ... .. . ... ... ... : ... .. 8 ... ... ... : F-2 00 . P88 : ... .. 3 ... : ... .. . ... ... : ... .. . ... ... : ... .. . ... ... : ... .. 3 ... ...
ROW B4 : ... .. . ... ... ... : ... .. . ... ... ... : G-2 00 . P72 : ... .. 2 ... : ... .. . ... ... : ... .. 2 ... ... : ... .. 2 ... ... : ... .. . ... ...
ROW B5 : ... .. 2 ... ... ... : ... .. 7 ... ... ... : G#2 00 . P82 : ... .. 0 ... : ... .. . ... ... : ... .. 3 ... ... : ... .. 3 ... ... : ... .. 1 ... ...
ROW B6 : ... .. . ... ... ... : ... .. 5 ... ... ... : A#2 00 . P77 : ... .. . ... : ... .. . ... ... : ... .. . ... ... : ... .. . ... ... : ... .. . ... ...
ROW B7 : ... .. . ... ... ... : ... .. . ... ... ... : B-2 00 . P8C : ... .. . ... : ... .. . ... ... : ... .. . ... ... : ... .. . ... ... : ... .. . ... ...
ROW B8 : F#3 00 D ... ... ... : C#5 00 9 ... ... ... : F-5 00 . P80 : 9-# 00 F ... : ... .. . ... ... : C#4 01 8 ... ... : F#4 01 8 ... ... : F#2 01 7 ... ...
ROW B9 : ... .. B ... ... ... : ... .. 8 ... ... ... : G-4 00 . ... : ... .. C ... : ... .. . ... ... : ... .. 7 ... ... : ... .. 7 ... ... : ... .. 9 ... ...
ROW BA : ... .. . ... ... ... : ... .. . ... ... ... : C-4 00 . ... : ... .. 6 ... : ... .. . ... ... : ... .. 6 ... ... : ... .. 6 ... ... : ... .. . ... ...
ROW BB : ... .. A ... ... ... : ... .. 7 ... ... ... : B-3 00 . ... : ... .. 3 ... : ... .. . ... ... : ... .. 5 ... ... : ... .. 5 ... ... : ... .. 6 ... ...
ROW BC : ... .. 8 ... ... ... : ... .. 5 ... ... ... : F#3 00 . ... : ... .. 2 ... : ... .. . ... ... : ... .. . ... ... : ... .. . ... ... : ... .. . ... ...
ROW BD : ... .. 7 ... ... ... : ... .. . ... ... ... : ... .. . ... : ... .. 0 ... : ... .. . ... ... : ... .. 4 ... ... : ... .. 4 ... ... : ... .. . ... ...
ROW BE : ... .. 6 ... ... ... : ... .. 4 ... ... ... : E-3 00 . P85 : 2-# 00 F ... : ... .. . ... ... : ... .. . ... ... : ... .. . ... ... : ... .. 5 ... ...
ROW BF : ... .. . ... ... ... : ... .. . ... ... ... : D#3 00 . P7A : ... .. C ... : ... .. . ... ... : ... .. . ... ... : ... .. . ... ... : ... .. . ... ...
ROW C0 : ... .. 5 ... ... ... : ... .. 3 ... ... ... : C#3 00 . P86 : ... .. 6 ... : ... .. . ... ... : ... .. . ... ... : ... .. . ... ... : ... .. . ... ...
ROW C1 : ... .. . ... ... ... : ... .. . ... ... ... : C-3 00 . P7E : ... .. 3 ... : ... .. . ... ... : --- .. . ... ... : --- .. . ... ... : ... .. 4 ... ...
ROW C2 : ... .. 4 ... ... ... : ... .. 2 ... ... ... : B-2 00 . P77 : ... .. 2 ... : ... .. . ... ... : ... .. . ... ... : ... .. . ... ... : ... .. . ... ...
ROW C3 : ... .. . ... ... ... : ... .. . ... ... ... : --- .. . ... : ... .. 0 ... : ... .. . ... ... : ... .. . ... ... : ... .. . ... ... : ... .. . ... ...
ROW C4 : C#5 00 5 ... ... ... : C#3 00 3 ... ... ... : E-2 00 . P80 : 1-# 00 F ... : ... .. . ... ... : C#4 01 6 ... ... : F#4 01 6 ... ... : ... .. 3 ... ...
ROW C5 : ... .. 4 ... ... ... : ... .. 2 ... ... ... : ... .. . ... : ... .. C ... : ... .. . ... ... : ... .. 4 ... ... : ... .. 4 ... ... : ... .. . ... ...
ROW C6 : ... .. . ... ... ... : ... .. . ... ... ... : ... .. . ... : ... .. 6 ... : ... .. . ... ... : ... .. 3 ... ... : ... .. 3 ... ... : ... .. . ... ...
ROW C7 : ... .. . ... ... ... : ... .. . ... ... ... : ... .. . ... : ... .. 3 ... : ... .. . ... ... : ... .. 1 ... ... : ... .. 1 ... ... : ... .. 2 ... ...
ROW C8 : ... .. 3 ... ... ... : B-2 00 3 ... ... ... : ... .. . ... : ... .. 2 ... : ... .. . ... ... : ... .. 6 ... ... : ... .. 6 ... ... : ... .. . ... ...
ROW C9 : ... .. 2 ... ... ... : ... .. 2 ... ... ... : --- .. . ... : ... .. 0 ... : ... .. . ... ... : ... .. 4 ... ... : ... .. 4 ... ... : ... .. . ... ...
ROW CA : ... .. . ... ... ... : ... .. . ... ... ... : F#2 00 . ... : C-# 00 F ... : ... .. . ... ... : ... .. 3 ... ... : ... .. 3 ... ... : ... .. 1 ... ...
ROW CB : ... .. . ... ... ... : ... .. . ... ... ... : ... .. . ... : ... .. C ... : ... .. . ... ... : ... .. 1 ... ... : ... .. 1 ... ... : ... .. . ... ...
ROW CC : ... .. . ... ... ... : A-2 00 3 ... ... ... : ... .. . ... : ... .. 6 ... : ... .. . ... ... : ... .. 6 ... ... : ... .. 6 ... ... : ... .. . ... ...
ROW CD : ... .. . ... ... ... : ... .. 2 ... ... ... : ... .. . ... : ... .. 3 ... : ... .. . ... ... : ... .. 4 ... ... : ... .. 4 ... ... : ... .. . ... ...
ROW CE : ... .. 1 ... ... ... : ... .. . ... ... ... : ... .. . ... : ... .. 2 ... : ... .. . ... ... : ... .. 3 ... ... : ... .. 3 ... ... : ... .. . ... ...
ROW CF : ... .. . ... ... ... : ... .. . ... ... ... : --- .. . ... : ... .. 0 ... : ... .. . ... ... : ... .. 1 ... ... : ... .. 1 ... ... : ... .. . ... ...
ROW D0 : F#2 00 F ... ... ... : G-2 00 4 ... ... ... : F-4 00 . ... : 7-# 00 F ... : ... .. . ... ... : ... .. 8 ... ... : ... .. 8 ... ... : F#1 01 F ... ...
ROW D1 : ... .. E ... ... ... : ... .. 3 ... ... ... : G-3 00 . ... : ... .. C ... : ... .. . ... ... : ... .. 7 ... ... : ... .. 7 ... ... : ... .. D ... ...
ROW D2 : ... .. D ... ... ... : ... .. . ... ... ... : C-3 00 . ... : ... .. 6 ... : ... .. . ... ... : ... .. 6 ... ... : ... .. 6 ... ... : ... .. 8 ... ...
ROW D3 : ... .. A ... ... ... : ... .. . ... ... ... : B-2 00 . ... : ... .. 3 ... : ... .. . ... ... : ... .. 5 ... ... : ... .. 5 ... ... : ... .. . ... ...
ROW D4 : ... .. . ... ... ... : F#2 00 4 ... ... ... : F#2 00 . ... : ... .. 2 ... : ... .. . ... ... : ... .. . ... ... : ... .. . ... ... : ... .. . ... ...
ROW D5 : ... .. . ... ... ... : ... .. 3 ... ... ... : --- .. . ... : ... .. 0 ... : ... .. . ... ... : --- .. . ... ... : --- .. . ... ... : ... .. . ... ...
ROW D6 : ... .. . ... ... ... : ... .. . ... ... ... : F#3 00 . ... : 1-# 00 F ... : ... .. . ... ... : ... .. . ... ... : ... .. . ... ... : ... .. . ... ...
ROW D7 : ... .. . ... ... ... : ... .. . ... ... ... : ... .. . ... : ... .. C ... : ... .. . ... ... : ... .. . ... ... : ... .. . ... ... : ... .. . ... ...
ROW D8 : ... .. . ... ... ... : G-2 00 4 ... ... ... : ... .. . ... : ... .. 6 ... : ... .. . ... ... : C#4 01 8 ... ... : F#4 01 8 ... ... : ... .. . ... ...
ROW D9 : ... .. . ... ... ... : ... .. 3 ... ... ... : ... .. . ... : ... .. 3 ... : ... .. . ... ... : ... .. 7 ... ... : ... .. 7 ... ... : ... .. . ... ...
ROW DA : ... .. . ... ... ... : ... .. . ... ... ... : ... .. . ... : ... .. 2 ... : ... .. . ... ... : ... .. 6 ... ... : ... .. 6 ... ... : ... .. . ... ...
ROW DB : ... .. . ... ... ... : ... .. . ... ... ... : --- .. . ... : ... .. 0 ... : ... .. . ... ... : ... .. 5 ... ... : ... .. 5 ... ... : ... .. . ... ...
ROW DC : ... .. . ... ... ... : A-2 00 5 ... ... ... : E-3 00 . ... : C-# 00 F ... : ... .. . ... ... : --- .. . ... ... : --- .. . ... ... : ... .. . ... ...
ROW DD : ... .. . ... ... ... : ... .. 4 ... ... ... : ... .. . ... : ... .. C ... : ... .. . ... ... : ... .. . ... ... : ... .. . ... ... : ... .. . ... ...
ROW DE : ... .. . ... ... ... : ... .. . ... ... ... : ... .. . ... : ... .. 6 ... : ... .. . ... ... : ... .. . ... ... : ... .. . ... ... : ... .. . ... ...
ROW DF : ... .. . ... ... ... : ... .. . ... ... ... : ... .. . ... : ... .. 3 ... : ... .. . ... ... : ... .. . ... ... : ... .. . ... ... : ... .. . ... ...
ROW E0 : ... .. . ... ... ... : B-2 00 5 ... ... ... : ... .. . ... : ... .. 2 ... : ... .. . ... ... : C#4 01 8 ... ... : F#4 01 8 ... ... : ... .. . ... ...
ROW E1 : ... .. . ... ... ... : ... .. 4 ... ... ... : --- .. . ... : ... .. 0 ... : ... .. . ... ... : ... .. 7 ... ... : ... .. 7 ... ... : ... .. . ... ...
ROW E2 : ... .. . ... ... ... : ... .. . ... ... ... : F#3 00 . ... : 7-# 00 F ... : ... .. . ... ... : ... .. 6 ... ... : ... .. 6 ... ... : ... .. . ... ...
ROW E3 : ... .. 2 ... ... ... : ... .. . ... ... ... : ... .. . ... : ... .. C ... : ... .. . ... ... : ... .. 5 ... ... : ... .. 5 ... ... : ... .. 4 ... ...
ROW E4 : ... .. . ... ... ... : C#3 00 5 ... ... ... : ... .. . ... : ... .. 6 ... : ... .. . ... ... : ... .. . ... ... : ... .. . ... ... : ... .. . ... ...
ROW E5 : ... .. . ... ... ... : ... .. . ... ... ... : ... .. . ... : ... .. 3 ... : ... .. . ... ... : --- .. . ... ... : --- .. . ... ... : ... .. 1 ... ...
ROW E6 : ... .. 1 ... ... ... : ... .. . ... ... ... : ... .. . ... : ... .. 2 ... : ... .. . ... ... : ... .. . ... ... : ... .. . ... ... : ... .. . ... ...
ROW E7 : ... .. . ... ... ... : ... .. 4 ... ... ... : --- .. . ... : ... .. 0 ... : ... .. . ... ... : ... .. . ... ... : ... .. . ... ... : ... .. . ... ...
ROW E8 : C#3 00 F ... ... ... : D-3 00 6 ... ... ... : F-5 00 . ... : 1-# 00 F ... : ... .. . ... ... : C#3 01 8 ... ... : F#3 01 8 ... ... : C#2 01 F ... ...
ROW E9 : ... .. E ... ... ... : ... .. 5 ... ... ... : G-4 00 . ... : ... .. C ... : ... .. . ... ... : ... .. 7 ... ... : ... .. 7 ... ... : ... .. D ... ...
ROW EA : ... .. D ... ... ... : ... .. . ... ... ... : C-4 00 . ... : ... .. 6 ... : ... .. . ... ... : ... .. 6 ... ... : ... .. 6 ... ... : ... .. 8 ... ...
ROW EB : ... .. A ... ... ... : ... .. 4 ... ... ... : B-3 00 . ... : ... .. 3 ... : ... .. . ... ... : ... .. 5 ... ... : ... .. 5 ... ... : ... .. . ... ...
ROW EC : ... .. . ... ... ... : C#3 00 6 ... ... ... : F#3 00 . ... : ... .. 2 ... : ... .. . ... ... : ... .. . ... ... : ... .. . ... ... : ... .. . ... ...
ROW ED : ... .. . ... ... ... : ... .. 5 ... ... ... : ... .. . ... : ... .. 0 ... : ... .. . ... ... : --- .. . P83 ... : --- .. . P7F ... : ... .. . ... ...
ROW EE : ... .. . ... ... ... : ... .. . ... ... ... : E-3 00 . P85 : B-# 00 F ... : ... .. . ... ... : ... .. . ... ... : ... .. . ... ... : ... .. . ... ...
ROW EF : ... .. . ... ... ... : ... .. 4 ... ... ... : D#3 00 . P7A : ... .. C ... : ... .. . ... ... : ... .. . ... ... : ... .. . ... ... : ... .. . ... ...
ROW F0 : ... .. . ... ... ... : B-2 00 6 ... ... ... : C#3 00 . P86 : ... .. 6 ... : ... .. . ... ... : C#3 01 8 P80 ... : F#3 01 8 P80 ... : ... .. . ... ...
ROW F1 : ... .. . ... ... ... : ... .. 5 ... ... ... : C-3 00 . P7E : ... .. 3 ... : ... .. . ... ... : ... .. 7 ... ... : ... .. 7 ... ... : ... .. . ... ...
ROW F2 : ... .. . ... ... ... : ... .. . ... ... ... : B-2 00 . P77 : ... .. 2 ... : ... .. . ... ... : ... .. 6 ... ... : ... .. 6 ... ... : ... .. . ... ...
ROW F3 : ... .. . ... ... ... : ... .. . ... ... ... : --- .. . ... : ... .. 0 ... : ... .. . ... ... : ... .. 5 ... ... : ... .. 5 ... ... : ... .. . ... ...
ROW F4 : ... .. . ... ... ... : A-2 00 6 ... ... ... : E-2 00 . P80 : 7-# 00 F ... : ... .. . ... ... : --- .. . P83 ... : --- .. . P7F ... : ... .. . ... ...
ROW F5 : ... .. . ... ... ... : ... .. 5 ... ... ... : ... .. . ... : ... .. C ... : ... .. . ... ... : ... .. . ... ... : ... .. . ... ... : ... .. . ... ...
ROW F6 : ... .. . ... ... ... : ... .. . ... ... ... : ... .. . ... : ... .. 6 ... : ... .. . ... ... : ... .. . ... ... : ... .. . ... ... : ... .. . ... ...
ROW F7 : ... .. . ... ... ... : ... .. . ... ... ... : ... .. . ... : ... .. 3 ... : ... .. . ... ... : ... .. . ... ... : ... .. . ... ... : ... .. . ... ...
ROW F8 : ... .. . ... ... ... : G-2 00 6 ... ... ... : ... .. . ... : ... .. 2 ... : ... .. . ... ... : C#3 01 8 P80 ... : F#3 01 8 P80 ... : ... .. . ... ...
ROW F9 : ... .. . ... ... ... : ... .. 5 ... ... ... : --- .. . ... : ... .. 0 ... : ... .. . ... ... : ... .. 7 ... ... : ... .. 7 ... ... : ... .. . ... ...
ROW FA : ... .. . ... ... ... : ... .. . ... ... ... : F#2 00 . ... : 1-# 00 F ... : ... .. . ... ... : ... .. 6 ... ... : ... .. 6 ... ... : ... .. . ... ...
ROW FB : ... .. 2 ... ... ... : ... .. . ... ... ... : ... .. . ... : ... .. C ... : ... .. . ... ... : ... .. 5 ... ... : ... .. 5 ... ... : ... .. 4 ... ...
ROW FC : ... .. . ... ... ... : F#2 00 6 ... ... ... : ... .. . ... : ... .. 6 ... : ... .. . ... ... : ... .. . ... ... : ... .. . ... ... : ... .. . ... ...
ROW FD : ... .. . ... ... ... : ... .. . ... ... ... : ... .. . ... : ... .. 3 ... : ... .. . ... ... : --- .. . P83 ... : --- .. . P7F ... : ... .. 1 ... ...
ROW FE : ... .. 1 ... ... ... : ... .. . ... ... ... : ... .. . ... : ... .. 2 ... : ... .. . ... ... : ... .. . ... ... : ... .. . ... ... : ... .. . ... ...
ROW FF : ... .. . ... ... ... : ... .. . ... ... ... : --- .. . ... : ... .. 0 ... : ... .. . ... ... : ... .. . ... ... : ... .. . ... ... : ... .. . ... ...

PATTERN 0F
ROW 00 : F#2 00 F ... ... ... : G-2 00 7 ... ... ... : F-4 00 . ... : 9-# 00 F ... : ... .. . ... ... : C#4 01 8 P80 ... : A-4 01 8 P80 ... : F#1 01 F ... ...
ROW 01 : ... .. E ... ... ... : ... .. 6 ... ... ... : G-3 00 . ... : ... .. C ... : ... .. . ... ... : ... .. 7 ... ... : ... .. 7 ... ... : ... .. D ... ...
ROW 02 : ... .. D ... ... ... : ... .. . ... ... ... : C-3 00 . ... : ... .. 6 ... : ... .. . ... ... : ... .. 6 ... ... : ... .. 6 ... ... : ... .. 8 ... ...
ROW 03 : ... .. A ... ... ... : ... .. . ... ... ... : B-2 00 . ... : ... .. 3 ... : ... .. . ... ... : ... .. 5 ... ... : ... .. 5 ... ... : ... .. . ... ...
ROW 04 : ... .. . ... ... ... : A-2 00 7 ... ... ... : F#2 00 . ... : ... .. 2 ... : ... .. . ... ... : ... .. . ... ... : ... .. . ... ... : ... .. . ... ...
ROW 05 : ... .. . ... ... ... : ... .. 6 ... ... ... : --- .. . ... : ... .. 0 ... : ... .. . ... ... : --- .. . ... ... : --- .. . ... ... : ... .. . ... ...
ROW 06 : ... .. . ... ... ... : ... .. . ... ... ... : F#3 00 . ... : ... .. F ... : ... .. . ... ... : ... .. . ... ... : ... .. . ... ... : ... .. . ... ...
ROW 07 : ... .. . ... ... ... : ... .. . ... ... ... : ... .. . ... : ... .. C ... : ... .. . ... ... : ... .. . ... ... : ... .. . ... ... : ... .. . ... ...
ROW 08 : ... .. . ... ... ... : B-2 00 8 ... ... ... : ... .. . ... : ... .. 6 ... : ... .. . ... ... : C#4 01 8 ... ... : A-4 01 8 ... ... : ... .. . ... ...
ROW 09 : ... .. . ... ... ... : ... .. 7 ... ... ... : ... .. . ... : ... .. 3 ... : ... .. . ... ... : ... .. 7 ... ... : ... .. 7 ... ... : ... .. . ... ...
ROW 0A : ... .. 2 ... ... ... : ... .. . ... ... ... : ... .. . ... : ... .. 2 ... : ... .. . ... ... : ... .. 6 ... ... : ... .. 6 ... ... : ... .. 4 ... ...
ROW 0B : ... .. . ... ... ... : ... .. 6 ... ... ... : --- .. . ... : ... .. 0 ... : ... .. . ... ... : ... .. 5 ... ... : ... .. 5 ... ... : ... .. . ... ...
ROW 0C : E-3 00 F ... ... ... : C#3 00 8 ... ... ... : E-3 00 . ... : 7-# 00 F ... : ... .. . ... ... : --- .. . ... ... : --- .. . ... ... : E-2 01 F ... ...
ROW 0D : ... .. E ... ... ... : ... .. 7 ... ... ... : ... .. . ... : ... .. C ... : ... .. . ... ... : ... .. . ... ... : ... .. . ... ... : ... .. D ... ...
ROW 0E : ... .. D ... ... ... : ... .. . ... ... ... : ... .. . ... : ... .. 6 ... : ... .. . ... ... : ... .. . ... ... : ... .. . ... ... : ... .. 8 ... ...
ROW 0F : ... .. A ... ... ... : ... .. 6 ... ... ... : ... .. . ... : ... .. 3 ... : ... .. . ... ... : ... .. . ... ... : ... .. . ... ... : ... .. . ... ...
ROW 10 : ... .. . ... ... ... : D-3 00 8 ... ... ... : ... .. . ... : ... .. 2 ... : ... .. . ... ... : C#4 01 8 ... ... : A-4 01 8 ... ... : ... .. . ... ...
ROW 11 : ... .. . ... ... ... : ... .. 7 ... ... ... : --- .. . ... : ... .. 0 ... : ... .. . ... ... : ... .. 7 ... ... : ... .. 7 ... ... : ... .. . ... ...
ROW 12 : ... .. . ... ... ... : ... .. . ... ... ... : F#3 00 . ... : ... .. F ... : ... .. . ... ... : ... .. 6 ... ... : ... .. 6 ... ... : ... .. . ... ...
ROW 13 : ... .. . ... ... ... : ... .. 6 ... ... ... : ... .. . ... : ... .. C ... : ... .. . ... ... : ... .. 5 ... ... : ... .. 5 ... ... : ... .. . ... ...
ROW 14 : ... .. . ... ... ... : E-3 00 9 ... ... ... : ... .. . ... : ... .. 6 ... : ... .. . ... ... : ... .. . ... ... : ... .. . ... ... : ... .. . ... ...
ROW 15 : ... .. . ... ... ... : ... .. 8 ... ... ... : ... .. . ... : ... .. 3 ... : ... .. . ... ... : --- .. . ... ... : --- .. . ... ... : ... .. . ... ...
ROW 16 : ... .. 2 ... ... ... : ... .. . ... ... ... : ... .. . ... : ... .. 2 ... : ... .. . ... ... : ... .. . ... ... : ... .. . ... ... : ... .. 4 ... ...
ROW 17 : ... .. . ... ... ... : ... .. 7 ... ... ... : --- .. . ... : ... .. 0 ... : ... .. . ... ... : ... .. . ... ... : ... .. . ... ... : ... .. . ... ...
ROW 18 : D-3 00 F ... ... ... : F#3 00 9 ... ... ... : F-4 00 . ... : 9-# 00 F ... : ... .. . ... ... : D-4 01 8 ... ... : G-4 01 8 ... ... : D-2 01 F ... ...
ROW 19 : ... .. E ... ... ... : ... .. 8 ... ... ... : G-3 00 . ... : ... .. C ... : ... .. . ... ... : ... .. 7 ... ... : ... .. 7 ... ... : ... .. D ... ...
ROW 1A : ... .. D ... ... ... : ... .. . ... ... ... : C-3 00 . ... : ... .. 6 ... : ... .. . ... ... : ... .. 6 ... ... : ... .. 6 ... ... : ... .. 8 ... ...
ROW 1B : ... .. A ... ... ... : ... .. 7 ... ... ... : B-2 00 . ... : ... .. 3 ... : ... .. . ... ... : ... .. 5 ... ... : ... .. 5 ... ... : ... .. . ... ...
ROW 1C : ... .. . ... ... ... : E-3 00 9 ... ... ... : F#2 00 . ... : ... .. 2 ... : ... .. . ... ... : ... .. . ... ... : ... .. . ... ... : ... .. . ... ...
ROW 1D : ... .. . ... ... ... : ... .. 8 ... ... ... : ... .. . ... : ... .. 0 ... : ... .. . ... ... : ... .. 4 ... ... : ... .. 4 ... ... : ... .. . ... ...
ROW 1E : ... .. . ... ... ... : ... .. . ... ... ... : F-2 00 . P84 : 2-# 00 F ... : ... .. . ... ... : ... .. . ... ... : ... .. . ... ... : ... .. . ... ...
ROW 1F : ... .. . ... ... ... : ... .. 7 ... ... ... : E-2 00 . P8A : ... .. C ... : ... .. . ... ... : ... .. . ... ... : ... .. . ... ... : ... .. . ... ...
ROW 20 : ... .. . ... ... ... : D-3 00 A ... ... ... : D#2 00 . P92 : ... .. 6 ... : ... .. . ... ... : ... .. . ... ... : ... .. . ... ... : ... .. . ... ...
ROW 21 : ... .. . ... ... ... : ... .. 8 ... ... ... : ... .. . P72 : ... .. 3 ... : ... .. . ... ... : --- .. . ... ... : --- .. . ... ... : ... .. . ... ...
ROW 22 : ... .. . ... ... ... : ... .. . ... ... ... : D-2 00 . P7D : ... .. 2 ... : ... .. . ... ... : ... .. . ... ... : ... .. . ... ... : ... .. . ... ...
ROW 23 : ... .. . ... ... ... : ... .. . ... ... ... : --- .. . ... : ... .. 0 ... : ... .. . ... ... : ... .. . ... ... : ... .. . ... ... : ... .. . ... ...
ROW 24 : ... .. . ... ... ... : C#3 00 A ... ... ... : E-1 00 . P80 : 1-# 00 F ... : ... .. . ... ... : D-4 01 6 ... ... : G-4 01 6 ... ... : ... .. . ... ...
ROW 25 : ... .. . ... ... ... : ... .. 8 ... ... ... : ... .. . ... : ... .. C ... : ... .. . ... ... : ... .. 4 ... ... : ... .. 4 ... ... : ... .. . ... ...
ROW 26 : ... .. . ... ... ... : ... .. . ... ... ... : ... .. . ... : ... .. 6 ... : ... .. . ... ... : ... .. 3 ... ... : ... .. 3 ... ... : ... .. . ... ...
ROW 27 : ... .. . ... ... ... : ... .. . ... ... ... : ... .. . ... : ... .. 3 ... : ... .. . ... ... : ... .. 1 ... ... : ... .. 1 ... ... : ... .. . ... ...
ROW 28 : ... .. . ... ... ... : B-2 00 B ... ... ... : ... .. . ... : ... .. 2 ... : ... .. . ... ... : ... .. 6 ... ... : ... .. 6 ... ... : ... .. . ... ...
ROW 29 : ... .. . ... ... ... : ... .. 9 ... ... ... : --- .. . ... : ... .. 0 ... : ... .. . ... ... : ... .. 4 ... ... : ... .. 4 ... ... : ... .. . ... ...
ROW 2A : ... .. . ... ... ... : ... .. . ... ... ... : F#1 00 . ... : C-# 00 F ... : ... .. . ... ... : ... .. 3 ... ... : ... .. 3 ... ... : ... .. . ... ...
ROW 2B : ... .. . ... ... ... : ... .. 8 ... ... ... : ... .. . ... : ... .. C ... : ... .. . ... ... : ... .. 1 ... ... : ... .. 1 ... ... : ... .. . ... ...
ROW 2C : ... .. . ... ... ... : A-2 00 B ... ... ... : ... .. . ... : ... .. 6 ... : ... .. . ... ... : ... .. 6 ... ... : ... .. 6 ... ... : ... .. . ... ...
ROW 2D : ... .. . ... ... ... : ... .. 9 ... ... ... : ... .. . ... : ... .. 3 ... : ... .. . ... ... : ... .. 4 ... ... : ... .. 4 ... ... : ... .. . ... ...
ROW 2E : ... .. . ... ... ... : ... .. . ... ... ... : ... .. . ... : ... .. 2 ... : ... .. . ... ... : ... .. 3 ... ... : ... .. 3 ... ... : ... .. . ... ...
ROW 2F : ... .. . ... ... ... : ... .. 8 ... ... ... : --- .. . ... : ... .. 0 ... : ... .. . ... ... : ... .. 1 ... ... : ... .. 1 ... ... : ... .. . ... ...
ROW 30 : ... .. . ... ... ... : B-2 00 B ... ... ... : F-3 00 . ... : 7-# 00 F ... : ... .. . ... ... : ... .. 8 ... ... : ... .. 8 ... ... : ... .. . ... ...
ROW 31 : ... .. . ... ... ... : ... .. 9 ... ... ... : G-2 00 . ... : ... .. C ... : ... .. . ... ... : ... .. 7 ... ... : ... .. 7 ... ... : ... .. . ... ...
ROW 32 : ... .. . ... ... ... : ... .. . ... ... ... : C-2 00 . ... : ... .. 6 ... : ... .. . ... ... : ... .. 6 ... ... : ... .. 6 ... ... : ... .. . ... ...
ROW 33 : ... .. . ... ... ... : ... .. 8 ... ... ... : B-1 00 . ... : ... .. 3 ... : ... .. . ... ... : ... .. 5 ... ... : ... .. 5 ... ... : ... .. . ... ...
ROW 34 : ... .. . ... ... ... : C#3 00 C ... ... ... : F#1 00 . ... : ... .. 2 ... : ... .. . ... ... : ... .. . ... ... : ... .. . ... ... : ... .. . ... ...
ROW 35 : ... .. . ... ... ... : ... .. A ... ... ... : --- .. . ... : ... .. 0 ... : ... .. . ... ... : --- .. . ... ... : --- .. . ... ... : ... .. . ... ...
ROW 36 : ... .. . ... ... ... : ... .. . ... ... ... : F#2 00 . ... : 1-# 00 F ... : ... .. . ... ... : ... .. . ... ... : ... .. . ... ... : ... .. . ... ...
ROW 37 : ... .. 2 ... ... ... : ... .. 9 ... ... ... : ... .. . ... : ... .. C ... : ... .. . ... ... : ... .. . ... ... : ... .. . ... ... : ... .. 4 ... ...
ROW 38 : ... .. . ... ... ... : D-3 00 C ... ... ... : ... .. . ... : ... .. 6 ... : ... .. . ... ... : D-4 01 8 ... ... : G-4 01 8 ... ... : ... .. . ... ...
ROW 39 : ... .. . ... ... ... : ... .. A ... ... ... : ... .. . ... : ... .. 3 ... : ... .. . ... ... : ... .. 7 ... ... : ... .. 7 ... ... : ... .. 1 ... ...
ROW 3A : ... .. 1 ... ... ... : ... .. . ... ... ... : ... .. . ... : ... .. 2 ... : ... .. . ... ... : ... .. 6 ... ... : ... .. 6 ... ... : ... .. . ... ...
ROW 3B : ... .. . ... ... ... : ... .. 9 ... ... ... : --- .. . ... : ... .. 0 ... : ... .. . ... ... : ... .. 5 ... ... : ... .. 5 ... ... : ... .. . ... ...
ROW 3C : ... .. F ... ... ... : E-3 00 D ... ... ... : E-2 00 . ... : C-# 00 F ... : ... .. . ... ... : --- .. . ... ... : --- .. . ... ... : ... .. F ... ...
ROW 3D : ... .. E ... ... ... : ... .. B ... ... ... : ... .. . ... : ... .. C ... : ... .. . ... ... : ... .. . ... ... : ... .. . ... ... : ... .. D ... ...
ROW 3E : ... .. D ... ... ... : ... .. . ... ... ... : ... .. . ... : ... .. 6 ... : ... .. . ... ... : ... .. . ... ... : ... .. . ... ... : ... .. 8 ... ...
ROW 3F : ... .. A ... ... ... : ... .. A ... ... ... : ... .. . ... : ... .. 3 ... : ... .. . ... ... : ... .. . ... ... : ... .. . ... ... : --- .. . ... ...
ROW 40 : ... .. 2 ... ... ... : F#3 00 C ... ... ... : ... .. . ... : ... .. 2 ... : ... .. . ... ... : D-4 01 8 ... ... : G-4 01 8 ... ... : ... .. . ... ...
ROW 41 : ... .. . ... ... ... : ... .. A ... ... ... : --- .. . ... : ... .. 0 ... : ... .. . ... ... : ... .. 7 ... ... : ... .. 7 ... ... : ... .. . ... ...
ROW 42 : C#3 00 F ... ... ... : ... .. . ... ... ... : F#2 00 . ... : 7-# 00 F ... : ... .. . ... ... : ... .. 6 ... ... : ... .. 6 ... ... : C#2 01 F ... ...
ROW 43 : ... .. E ... ... ... : ... .. 9 ... ... ... : ... .. . ... : ... .. C ... : ... .. . ... ... : ... .. 5 ... ... : ... .. 5 ... ... : ... .. D ... ...
ROW 44 : ... .. D ... ... ... : G-3 00 B ... ... ... : ... .. . ... : ... .. 6 ... : ... .. . ... ... : ... .. . ... ... : ... .. . ... ... : ... .. 8 ... ...
ROW 45 : ... .. A ... ... ... : ... .. 9 ... ... ... : ... .. . ... : ... .. 3 ... : ... .. . ... ... : --- .. . ... ... : --- .. . ... ... : --- .. . ... ...
ROW 46 : ... .. 2 ... ... ... : ... .. . ... ... ... : ... .. . ... : ... .. 2 ... : ... .. . ... ... : ... .. . ... ... : ... .. . ... ... : ... .. . ... ...
ROW 47 : ... .. . ... ... ... : ... .. 8 ... ... ... : --- .. . ... : ... .. 0 ... : ... .. . ... ... : ... .. . ... ... : ... .. . ... ... : ... .. . ... ...
ROW 48 : B-2 00 F ... ... ... : F#3 00 A ... ... ... : F-5 00 . ... : 1-# 00 F ... : ... .. . ... ... : D-3 01 8 ... ... : G-3 01 8 ... ... : B-1 01 F ... ...
ROW 49 : ... .. E ... ... ... : ... .. 8 ... ... ... : G-4 00 . ... : ... .. C ... : ... .. . ... ... : ... .. 7 ... ... : ... .. 7 ... ... : ... .. D ... ...
ROW 4A : ... .. D ... ... ... : ... .. . ... ... ... : C-4 00 . ... : ... .. 6 ... : ... .. . ... ... : ... .. 6 ... ... : ... .. 6 ... ... : ... .. 8 ... ...
ROW 4B : ... .. A ... ... ... : ... .. . ... ... ... : B-3 00 . ... : ... .. 3 ... : ... .. . ... ... : ... .. 5 ... ... : ... .. 5 ... ... : ... .. . ... ...
ROW 4C : ... .. . ... ... ... : E-3 00 9 ... ... ... : F#3 00 . ... : ... .. 2 ... : ... .. . ... ... : ... .. . ... ... : ... .. . ... ... : ... .. . ... ...
ROW 4D : ... .. . ... ... ... : ... .. 8 ... ... ... : ... .. . ... : ... .. 0 ... : ... .. . ... ... : --- .. . P82 ... : --- .. . P81 ... : ... .. . ... ...
ROW 4E : ... .. . ... ... ... : ... .. . ... ... ... : E-3 00 . P85 : B-# 00 F ... : ... .. . ... ... : ... .. . ... ... : ... .. . ... ... : ... .. . ... ...
ROW 4F : ... .. . ... ... ... : ... .. 7 ... ... ... : D#3 00 . P7A : ... .. C ... : ... .. . ... ... : ... .. . ... ... : ... .. . ... ... : ... .. . ... ...
ROW 50 : ... .. . ... ... ... : D-3 00 9 ... ... ... : C#3 00 . P86 : ... .. 6 ... : ... .. . ... ... : D-3 01 8 P80 ... : G-3 01 8 P80 ... : ... .. . ... ...
ROW 51 : ... .. . ... ... ... : ... .. 7 ... ... ... : C-3 00 . P7E : ... .. 3 ... : ... .. . ... ... : ... .. 7 ... ... : ... .. 7 ... ... : ... .. . ... ...
ROW 52 : ... .. . ... ... ... : ... .. . ... ... ... : B-2 00 . P77 : ... .. 2 ... : ... .. . ... ... : ... .. 6 ... ... : ... .. 6 ... ... : ... .. . ... ...
ROW 53 : ... .. . ... ... ... : ... .. 6 ... ... ... : --- .. . ... : ... .. 0 ... : ... .. . ... ... : ... .. 5 ... ... : ... .. 5 ... ... : ... .. . ... ...
ROW 54 : ... .. . ... ... ... : C#3 00 8 ... ... ... : E-2 00 . P80 : 7-# 00 F ... : ... .. . ... ... : --- .. . P82 ... : --- .. . P81 ... : ... .. . ... ...
ROW 55 : ... .. . ... ... ... : ... .. 7 ... ... ... : ... .. . ... : ... .. C ... : ... .. . ... ... : ... .. . ... ... : ... .. . ... ... : ... .. . ... ...
ROW 56 : ... .. . ... ... ... : ... .. . ... ... ... : ... .. . ... : ... .. 6 ... : ... .. . ... ... : ... .. . ... ... : ... .. . ... ... : ... .. . ... ...
ROW 57 : ... .. . ... ... ... : ... .. 6 ... ... ... : ... .. . ... : ... .. 3 ... : ... .. . ... ... : ... .. . ... ... : ... .. . ... ... : ... .. . ... ...
ROW 58 : ... .. . ... ... ... : B-2 00 7 ... ... ... : ... .. . ... : ... .. 2 ... : ... .. . ... ... : D-3 01 8 P80 ... : G-3 01 8 P80 ... : ... .. . ... ...
ROW 59 : ... .. . ... ... ... : ... .. 6 ... ... ... : --- .. . ... : ... .. 0 ... : ... .. . ... ... : ... .. 7 ... ... : ... .. 7 ... ... : ... .. . ... ...
ROW 5A : ... .. . ... ... ... : ... .. . ... ... ... : F#2 00 . ... : 1-# 00 F ... : ... .. . ... ... : ... .. 6 ... ... : ... .. 6 ... ... : ... .. . ... ...
ROW 5B : ... .. . ... ... ... : ... .. . ... ... ... : ... .. . ... : ... .. C ... : ... .. . ... ... : ... .. 5 ... ... : ... .. 5 ... ... : ... .. . ... ...
ROW 5C : ... .. . ... ... ... : A-2 00 6 ... ... ... : ... .. . ... : ... .. 6 ... : ... .. . ... ... : ... .. . ... ... : ... .. . ... ... : ... .. . ... ...
ROW 5D : ... .. . ... ... ... : ... .. 5 ... ... ... : ... .. . ... : ... .. 3 ... : ... .. . ... ... : --- .. . P82 ... : --- .. . P81 ... : ... .. . ... ...
ROW 5E : ... .. . ... ... ... : ... .. . ... ... ... : ... .. . ... : ... .. 2 ... : ... .. . ... ... : ... .. . ... ... : ... .. . ... ... : ... .. . ... ...
ROW 5F : ... .. . ... ... ... : ... .. . ... ... ... : --- .. . ... : ... .. 0 ... : ... .. . ... ... : ... .. . ... ... : ... .. . ... ... : ... .. . ... ...
ROW 60 : ... .. . ... ... ... : B-2 00 6 ... ... ... : F-4 00 . ... : 9-# 00 F ... : ... .. . ... ... : D-4 01 8 P80 ... : B-4 01 8 P80 ... : ... .. . ... ...
ROW 61 : ... .. . ... ... ... : ... .. 5 ... ... ... : G-3 00 . ... : ... .. C ... : ... .. . ... ... : ... .. 7 ... ... : ... .. 7 ... ... : ... .. . ... ...
ROW 62 : ... .. . ... ... ... : ... .. . ... ... ... : C-3 00 . ... : ... .. 6 ... : ... .. . ... ... : ... .. 6 ... ... : ... .. 6 ... ... : ... .. . ... ...
ROW 63 : ... .. . ... ... ... : ... .. 4 ... ... ... : B-2 00 . ... : ... .. 3 ... : ... .. . ... ... : ... .. 5 ... ... : ... .. 5 ... ... : ... .. . ... ...
ROW 64 : ... .. . ... ... ... : C#3 00 6 ... ... ... : F#2 00 . ... : ... .. 2 ... : ... .. . ... ... : ... .. . ... ... : ... .. . ... ... : ... .. . ... ...
ROW 65 : ... .. . ... ... ... : ... .. 5 ... ... ... : --- .. . ... : ... .. 0 ... : ... .. . ... ... : --- .. . ... ... : --- .. . ... ... : ... .. . ... ...
ROW 66 : ... .. . ... ... ... : ... .. . ... ... ... : F#3 00 . ... : ... .. F ... : ... .. . ... ... : ... .. . ... ... : ... .. . ... ... : ... .. . ... ...
ROW 67 : ... .. . ... ... ... : ... .. 4 ... ... ... : ... .. . ... : ... .. C ... : ... .. . ... ... : ... .. . ... ... : ... .. . ... ... : ... .. . ... ...
ROW 68 : ... .. . ... ... ... : D-3 00 5 ... ... ... : ... .. . ... : ... .. 6 ... : ... .. . ... ... : D-4 01 8 ... ... : B-4 01 8 ... ... : ... .. . ... ...
ROW 69 : ... .. . ... ... ... : ... .. 3 ... ... ... : ... .. . ... : ... .. 3 ... : ... .. . ... ... : ... .. 7 ... ... : ... .. 7 ... ... : ... .. . ... ...
ROW 6A : ... .. . ... ... ... : ... .. . ... ... ... : ... .. . ... : ... .. 2 ... : ... .. . ... ... : ... .. 6 ... ... : ... .. 6 ... ... : ... .. . ... ...
ROW 6B : ... .. . ... ... ... : ... .. . ... ... ... : --- .. . ... : ... .. 0 ... : ... .. . ... ... : ... .. 5 ... ... : ... .. 5 ... ... : ... .. . ... ...
ROW 6C : ... .. . ... ... ... : E-3 00 4 ... ... ... : E-3 00 . ... : 7-# 00 F ... : ... .. . ... ... : --- .. . ... ... : --- .. . ... ... : ... .. . ... ...
ROW 6D : ... .. . ... ... ... : ... .. 3 ... ... ... : ... .. . ... : ... .. C ... : ... .. . ... ... : ... .. . ... ... : ... .. . ... ... : ... .. . ... ...
ROW 6E : ... .. . ... ... ... : ... .. . ... ... ... : ... .. . ... : ... .. 6 ... : ... .. . ... ... : ... .. . ... ... : ... .. . ... ... : ... .. . ... ...
ROW 6F : ... .. . ... ... ... : ... .. . ... ... ... : ... .. . ... : ... .. 3 ... : ... .. . ... ... : ... .. . ... ... : ... .. . ... ... : ... .. . ... ...
ROW 70 : ... .. . ... ... ... : F#3 00 3 ... ... ... : ... .. . ... : ... .. 2 ... : ... .. . ... ... : D-4 01 8 ... ... : B-4 01 8 ... ... : ... .. . ... ...
ROW 71 : ... .. . ... ... ... : ... .. 2 ... ... ... : --- .. . ... : ... .. 0 ... : ... .. . ... ... : ... .. 7 ... ... : ... .. 7 ... ... : ... .. . ... ...
ROW 72 : ... .. . ... ... ... : ... .. . ... ... ... : F#3 00 . ... : ... .. F ... : ... .. . ... ... : ... .. 6 ... ... : ... .. 6 ... ... : ... .. . ... ...
ROW 73 : ... .. . ... ... ... : ... .. . ... ... ... : ... .. . ... : ... .. C ... : ... .. . ... ... : ... .. 5 ... ... : ... .. 5 ... ... : ... .. . ... ...
ROW 74 : ... .. . ... ... ... : G-3 00 3 ... ... ... : ... .. . ... : ... .. 6 ... : ... .. . ... ... : ... .. . ... ... : ... .. . ... ... : ... .. . ... ...
ROW 75 : ... .. . ... ... ... : ... .. 2 ... ... ... : ... .. . ... : ... .. 3 ... : ... .. . ... ... : --- .. . ... ... : --- .. . ... ... : ... .. . ... ...
ROW 76 : ... .. 2 ... ... ... : ... .. . ... ... ... : ... .. . ... : ... .. 2 ... : ... .. . ... ... : ... .. . ... ... : ... .. . ... ... : ... .. . ... ...
ROW 77 : ... .. . ... ... ... : ... .. . ... ... ... : --- .. . ... : ... .. 0 ... : ... .. . ... ... : ... .. . ... ... : ... .. . ... ... : ... .. . ... ...
ROW 78 : ... .. . ... ... ... : B-2 00 3 ... ... ... : F#4 00 . ... : ... .. F ... : ... .. . ... ... : D-4 01 8 ... ... : B-4 01 8 ... ... : C#5 01 C ... ...
ROW 79 : ... .. 1 ... ... ... : ... .. 2 ... ... ... : G#3 00 . ... : ... .. C ... : ... .. . ... ... : ... .. 7 ... ... : ... .. 7 ... ... : ... .. A ... ...
ROW 7A : ... .. . ... ... ... : ... .. . ... ... ... : C#3 00 . ... : ... .. 6 ... : ... .. . ... ... : ... .. 6 ... ... : ... .. 6 ... ... : ... .. 6 ... ...
ROW 7B : ... .. . ... ... ... : ... .. . ... ... ... : C-3 00 . ... : 9-# 00 D ... : ... .. . ... ... : ... .. 5 ... ... : ... .. 5 ... ... : ... .. . ... ...
ROW 7C : ... .. 0 ... ... ... : C#3 00 3 ... ... ... : G-2 00 . ... : ... .. B ... : ... .. . ... ... : ... .. . ... ... : ... .. . ... ... : ... .. . ... ...
ROW 7D : ... .. . ... ... ... : ... .. 2 ... ... ... : ... .. . ... : ... .. . ... : ... .. . ... ... : --- .. . ... ... : --- .. . ... ... : --- .. . ... ...
ROW 7E : ... .. . ... ... ... : ... .. . ... ... ... : ... .. . ... : ... .. A ... : ... .. . ... ... : ... .. . ... ... : ... .. . ... ... : ... .. . ... ...
ROW 7F : ... .. . ... ... ... : ... .. . ... ... ... : ... .. . ... : ... .. 8 ... : ... .. . ... ... : ... .. . ... ... : ... .. . ... ... : ... .. . ... ...
ROW 80 : ... .. . ... ... ... : D-3 00 3 ... ... ... : F#4 00 . ... : ... .. 7 ... : ... .. . ... ... : D-4 01 8 ... ... : B-4 01 8 ... ... : C#5 01 C ... ...
ROW 81 : ... .. . ... ... ... : ... .. . ... ... ... : G#3 00 . ... : ... .. 6 ... : ... .. . ... ... : ... .. 7 ... ... : ... .. 7 ... ... : ... .. A ... ...
ROW 82 : ... .. . ... ... ... : ... .. . ... ... ... : C#3 00 . ... : ... .. . ... : ... .. . ... ... : ... .. 6 ... ... : ... .. 6 ... ... : ... .. 6 ... ...
ROW 83 : ... .. . ... ... ... : ... .. . ... ... ... : C-3 00 . ... : ... .. 5 ... : ... .. . ... ... : ... .. 5 ... ... : ... .. 5 ... ... : ... .. . ... ...
ROW 84 : ... .. . ... ... ... : E-3 00 4 ... ... ... : G-2 00 . ... : 7-# 00 F ... : ... .. . ... ... : --- .. . ... ... : --- .. . ... ... : --- .. . ... ...
ROW 85 : ... .. . ... ... ... : ... .. 3 ... ... ... : ... .. . ... : ... .. C ... : ... .. . ... ... : ... .. . ... ... : ... .. . ... ... : ... .. . ... ...
ROW 86 : ... .. . ... ... ... : ... .. . ... ... ... : ... .. . ... : ... .. 6 ... : ... .. . ... ... : ... .. . ... ... : ... .. . ... ... : ... .. . ... ...
ROW 87 : ... .. . ... ... ... : ... .. . ... ... ... : ... .. . ... : ... .. 3 ... : ... .. . ... ... : ... .. . ... ... : ... .. . ... ... : ... .. . ... ...
ROW 88 : ... .. . ... ... ... : F#3 00 5 ... ... ... : F#4 00 . ... : ... .. F ... : ... .. . ... ... : D-4 01 8 ... ... : B-4 01 8 ... ... : C#5 01 C ... ...
ROW 89 : ... .. . ... ... ... : ... .. 4 ... ... ... : G#3 00 . ... : ... .. C ... : ... .. . ... ... : ... .. 7 ... ... : ... .. 7 ... ... : ... .. A ... ...
ROW 8A : ... .. . ... ... ... : ... .. . ... ... ... : C#3 00 . ... : ... .. 6 ... : ... .. . ... ... : ... .. 6 ... ... : ... .. 6 ... ... : ... .. 6 ... ...
ROW 8B : ... .. . ... ... ... : ... .. . ... ... ... : C-3 00 . ... : ... .. 3 ... : ... .. . ... ... : ... .. 5 ... ... : ... .. 5 ... ... : ... .. . ... ...
ROW 8C : ... .. . ... ... ... : G-3 00 5 ... ... ... : G-2 00 . ... : ... .. F ... : ... .. . ... ... : ... .. . ... ... : ... .. . ... ... : ... .. . ... ...
ROW 8D : ... .. . ... ... ... : ... .. . ... ... ... : ... .. . ... : ... .. C ... : ... .. . ... ... : --- .. . ... ... : --- .. . ... ... : --- .. . ... ...
ROW 8E : ... .. . ... ... ... : ... .. . ... ... ... : ... .. . ... : ... .. 6 ... : ... .. . ... ... : ... .. . ... ... : ... .. . ... ... : ... .. . ... ...
ROW 8F : ... .. . ... ... ... : ... .. 4 ... ... ... : ... .. . ... : ... .. 3 ... : ... .. . ... ... : ... .. . ... ... : ... .. . ... ... : ... .. . ... ...
ROW 90 : ... .. . ... ... ... : E-3 00 6 ... ... ... : F#3 00 . ... : ... .. F ... : ... .. . ... ... : D-2 01 8 ... ... : B-2 01 8 ... ... : C#3 01 C ... ...
ROW 91 : ... .. . ... ... ... : ... .. 5 ... ... ... : G#2 00 . ... : ... .. C ... : ... .. . ... ... : ... .. 7 ... ... : ... .. 7 ... ... : ... .. A ... ...
ROW 92 : ... .. . ... ... ... : ... .. . ... ... ... : C#2 00 . ... : ... .. 6 ... : ... .. . ... ... : ... .. 6 ... ... : ... .. 6 ... ... : ... .. 6 ... ...
ROW 93 : ... .. . ... ... ... : ... .. 4 ... ... ... : C-2 00 . ... : 9-# 00 D ... : ... .. . ... ... : ... .. 5 ... ... : ... .. 5 ... ... : ... .. . ... ...
ROW 94 : ... .. . ... ... ... : F#3 00 6 ... ... ... : G-1 00 . ... : ... .. B ... : ... .. . ... ... : ... .. . ... ... : ... .. . ... ... : ... .. . ... ...
ROW 95 : ... .. . ... ... ... : ... .. 5 ... ... ... : ... .. . ... : ... .. . ... : ... .. . ... ... : --- .. . P84 ... : --- .. . P85 ... : --- .. . ... ...
ROW 96 : ... .. . ... ... ... : ... .. . ... ... ... : ... .. . ... : ... .. A ... : ... .. . ... ... : ... .. . ... ... : ... .. . ... ... : ... .. . ... ...
ROW 97 : ... .. . ... ... ... : ... .. . ... ... ... : ... .. . ... : ... .. 8 ... : ... .. . ... ... : ... .. . ... ... : ... .. . ... ... : ... .. . ... ...
ROW 98 : ... .. . ... ... ... : G-3 00 6 ... ... ... : ... .. . ... : ... .. 7 ... : ... .. . ... ... : D-2 01 8 P80 ... : B-2 01 8 P80 ... : C#3 01 C ... ...
ROW 99 : ... .. . ... ... ... : ... .. . ... ... ... : ... .. . ... : ... .. 6 ... : ... .. . ... ... : ... .. 7 ... ... : ... .. 7 ... ... : ... .. A ... ...
ROW 9A : ... .. . ... ... ... : ... .. . ... ... ... : ... .. . ... : ... .. . ... : ... .. . ... ... : ... .. 6 ... ... : ... .. 6 ... ... : ... .. 6 ... ...
ROW 9B : ... .. . ... ... ... : ... .. . ... ... ... : ... .. . ... : ... .. 5 ... : ... .. . ... ... : ... .. 5 ... ... : ... .. 5 ... ... : ... .. . ... ...
ROW 9C : ... .. . ... ... ... : A-3 00 7 ... ... ... : ... .. . PA0 : 7-# 00 F ... : ... .. . ... ... : --- .. . P84 ... : --- .. . P85 ... : --- .. . ... ...
ROW 9D : ... .. . ... ... ... : ... .. 6 ... ... ... : G#1 00 . P80 : ... .. C ... : ... .. . ... ... : ... .. . ... ... : ... .. . ... ... : ... .. . ... ...
ROW 9E : ... .. . ... ... ... : ... .. . ... ... ... : A-1 00 . P64 : ... .. 6 ... : ... .. . ... ... : ... .. . ... ... : ... .. . ... ... : ... .. . ... ...
ROW 9F : ... .. . ... ... ... : ... .. . ... ... ... : ... .. . P84 : ... .. 3 ... : ... .. . ... ... : ... .. . ... ... : ... .. . ... ... : ... .. . ... ...
ROW A0 : ... .. . ... ... ... : B-3 00 7 ... ... ... : A#1 00 . P6B : ... .. F ... : ... .. . ... ... : D-2 01 8 P80 ... : B-2 01 8 P80 ... : C#3 01 C ... ...
ROW A1 : ... .. . ... ... ... : ... .. 6 ... ... ... : ... .. . P8B : ... .. C ... : ... .. . ... ... : ... .. 7 ... ... : ... .. 7 ... ... : ... .. A ... ...
ROW A2 : ... .. . ... ... ... : ... .. . ... ... ... : B-1 00 . P75 : ... .. 6 ... : ... .. . ... ... : ... .. 6 ... ... : ... .. 6 ... ... : ... .. 6 ... ...
ROW A3 : ... .. . ... ... ... : ... .. . ... ... ... : ... .. . P95 : ... .. 3 ... : ... .. . ... ... : ... .. 5 ... ... : ... .. 5 ... ... : ... .. . ... ...
ROW A4 : ... .. . ... ... ... : C#4 00 8 ... ... ... : C-2 00 . P82 : ... .. F ... : ... .. . ... ... : ... .. . ... ... : ... .. . ... ... : ... .. . ... ...
ROW A5 : ... .. . ... ... ... : ... .. 7 ... ... ... : C#2 00 . P72 : ... .. C ... : ... .. . ... ... : --- .. . P84 ... : --- .. . P85 ... : --- .. . ... ...
ROW A6 : ... .. . ... ... ... : ... .. . ... ... ... : ... .. . P92 : ... .. 6 ... : ... .. . ... ... : ... .. . ... ... : ... .. . ... ... : ... .. . ... ...
ROW A7 : ... .. . ... ... ... : ... .. 6 ... ... ... : D-2 00 . P85 : ... .. 3 ... : ... .. . ... ... : ... .. . ... ... : ... .. . ... ... : ... .. . ... ...
ROW A8 : ... .. . ... ... ... : D-4 00 9 ... ... ... : F#4 00 . P80 : ... .. F ... : ... .. . ... ... : B-3 01 8 P80 ... : E-4 01 8 P80 ... : G-4 01 C ... ...
ROW A9 : ... .. . ... ... ... : ... .. 8 ... ... ... : G#3 00 . ... : ... .. C ... : ... .. . ... ... : ... .. 7 ... ... : ... .. 7 ... ... : ... .. A ... ...
ROW AA : ... .. . ... ... ... : ... .. . ... ... ... : C#3 00 . ... : ... .. 6 ... : ... .. . ... ... : ... .. 6 ... ... : ... .. 6 ... ... : ... .. 6 ... ...
ROW AB : ... .. . ... ... ... : ... .. 7 ... ... ... : C-3 00 . ... : ... .. 3 ... : ... .. . ... ... : ... .. 5 ... ... : ... .. 5 ... ... : ... .. . ... ...
ROW AC : ... .. . ... ... ... : E-4 00 9 ... ... ... : G-2 00 . ... : ... .. 2 ... : ... .. . ... ... : ... .. . ... ... : ... .. . ... ... : ... .. . ... ...
ROW AD : ... .. . ... ... ... : ... .. 8 ... ... ... : ... .. . ... : ... .. 0 ... : ... .. . ... ... : ... .. 4 ... ... : ... .. 4 ... ... : ... .. . ... ...
ROW AE : ... .. . ... ... ... : ... .. . ... ... ... : ... .. . ... : ... .. . ... : ... .. . ... ... : ... .. . ... ... : ... .. . ... ... : ... .. . ... ...
ROW AF : ... .. . ... ... ... : ... .. 7 ... ... ... : ... .. . ... : ... .. . ... : ... .. . ... ... : ... .. . ... ... : ... .. . ... ... : ... .. . ... ...
ROW B0 : ... .. . ... ... ... : F#4 00 A ... ... ... : F#4 00 . ... : ... .. F ... : ... .. . ... ... : ... .. . ... ... : ... .. . ... ... : ... .. . ... ...
ROW B1 : ... .. . ... ... ... : ... .. 8 ... ... ... : G#3 00 . ... : ... .. C ... : ... .. . ... ... : --- .. . ... ... : --- .. . ... ... : --- .. . ... ...
ROW B2 : ... .. . ... ... ... : ... .. . ... ... ... : C#3 00 . ... : ... .. 6 ... : ... .. . ... ... : ... .. . ... ... : ... .. . ... ... : ... .. . ... ...
ROW B3 : ... .. . ... ... ... : ... .. . ... ... ... : C-3 00 . ... : ... .. 3 ... : ... .. . ... ... : ... .. . ... ... : ... .. . ... ... : ... .. . ... ...
ROW B4 : ... .. . ... ... ... : G-4 00 B ... ... ... : G-2 00 . ... : ... .. 2 ... : ... .. . ... ... : B-3 01 6 ... ... : E-4 01 6 ... ... : G-4 01 A ... ...
ROW B5 : ... .. . ... ... ... : ... .. 9 ... ... ... : ... .. . ... : ... .. 0 ... : ... .. . ... ... : ... .. 4 ... ... : ... .. 4 ... ... : ... .. 6 ... ...
ROW B6 : ... .. . ... ... ... : ... .. . ... ... ... : ... .. . ... : ... .. . ... : ... .. . ... ... : ... .. 3 ... ... : ... .. 3 ... ... : ... .. 3 ... ...
ROW B7 : ... .. . ... ... ... : ... .. 8 ... ... ... : ... .. . ... : ... .. . ... : ... .. . ... ... : ... .. 1 ... ... : ... .. 1 ... ... : ... .. 2 ... ...
ROW B8 : ... .. . ... ... ... : A-4 00 B ... ... ... : F#4 00 . ... : ... .. F ... : ... .. . ... ... : ... .. 6 ... ... : ... .. 6 ... ... : ... .. A ... ...
ROW B9 : ... .. . ... ... ... : ... .. 9 ... ... ... : G#3 00 . ... : ... .. C ... : ... .. . ... ... : ... .. 4 ... ... : ... .. 4 ... ... : ... .. 6 ... ...
ROW BA : ... .. . ... ... ... : ... .. . ... ... ... : C#3 00 . ... : ... .. 6 ... : ... .. . ... ... : ... .. 3 ... ... : ... .. 3 ... ... : ... .. 3 ... ...
ROW BB : ... .. . ... ... ... : ... .. 8 ... ... ... : C-3 00 . ... : ... .. 3 ... : ... .. . ... ... : ... .. 1 ... ... : ... .. 1 ... ... : ... .. 2 ... ...
ROW BC : ... .. . ... ... ... : B-4 00 C ... ... ... : G-2 00 . ... : ... .. 2 ... : ... .. . ... ... : ... .. 6 ... ... : ... .. 6 ... ... : ... .. A ... ...
ROW BD : ... .. . ... ... ... : ... .. A ... ... ... : ... .. . ... : ... .. 0 ... : ... .. . ... ... : ... .. 4 ... ... : ... .. 4 ... ... : ... .. 6 ... ...
ROW BE : ... .. . ... ... ... : ... .. . ... ... ... : ... .. . ... : ... .. . ... : ... .. . ... ... : ... .. 3 ... ... : ... .. 3 ... ... : ... .. 3 ... ...
ROW BF : ... .. . ... ... ... : ... .. 9 ... ... ... : ... .. . ... : ... .. . ... : ... .. . ... ... : ... .. 1 ... ... : ... .. 1 ... ... : ... .. 2 ... ...
ROW C0 : ... .. . ... ... ... : G-4 00 D ... ... ... : D#4 00 . ... : ... .. F ... : ... .. . ... ... : B-2 01 8 ... ... : D-4 01 8 ... ... : ... .. C ... ...
ROW C1 : ... .. . ... ... ... : ... .. B ... ... ... : F-3 00 . ... : ... .. C ... : ... .. . ... ... : ... .. 7 ... ... : ... .. 7 ... ... : ... .. A ... ...
ROW C2 : ... .. . ... ... ... : ... .. . ... ... ... : A#2 00 . ... : ... .. 6 ... : ... .. . ... ... : ... .. 6 ... ... : ... .. 6 ... ... : ... .. 6 ... ...
ROW C3 : ... .. . ... ... ... : ... .. A ... ... ... : A-2 00 . ... : ... .. 3 ... : ... .. . ... ... : ... .. 5 ... ... : ... .. 5 ... ... : ... .. . ... ...
ROW C4 : ... .. . ... ... ... : A-4 00 D ... ... ... : E-2 00 . ... : ... .. 2 ... : ... .. . ... ... : ... .. . ... ... : ... .. . ... ... : ... .. . ... ...
ROW C5 : ... .. . ... ... ... : ... .. B ... ... ... : ... .. . ... : ... .. 0 ... : ... .. . ... ... : --- .. . P85 ... : --- .. . ... ... : --- .. . ... ...
ROW C6 : ... .. . ... ... ... : ... .. . ... ... ... : ... .. . ... : ... .. . ... : ... .. . ... ... : ... .. . ... ... : ... .. . ... ... : ... .. . ... ...
ROW C7 : ... .. . ... ... ... : ... .. A ... ... ... : ... .. . ... : ... .. . ... : ... .. . ... ... : ... .. . ... ... : ... .. . ... ... : ... .. . ... ...
ROW C8 : ... .. . ... ... ... : B-4 00 D ... ... ... : F-4 00 . ... : ... .. F ... : ... .. . ... ... : C#3 01 8 P80 ... : C#4 01 8 ... ... : F#4 01 C ... ...
ROW C9 : ... .. . ... ... ... : ... .. B ... ... ... : G-3 00 . ... : ... .. C ... : ... .. . ... ... : ... .. 7 ... ... : ... .. 7 ... ... : ... .. A ... ...
ROW CA : ... .. . ... ... ... : ... .. . ... ... ... : C-3 00 . ... : ... .. 6 ... : ... .. . ... ... : ... .. 6 ... ... : ... .. 6 ... ... : ... .. 6 ... ...
ROW CB : ... .. . ... ... ... : ... .. A ... ... ... : B-2 00 . ... : ... .. 3 ... : ... .. . ... ... : ... .. 5 ... ... : ... .. 5 ... ... : ... .. . ... ...
ROW CC : ... .. . ... ... ... : C#5 00 D ... ... ... : F#2 00 . ... : ... .. 2 ... : ... .. . ... ... : --- .. . P83 ... : --- .. . ... ... : --- .. . ... ...
ROW CD : ... .. . ... ... ... : ... .. B ... ... ... : ... .. . ... : ... .. 0 ... : ... .. . ... ... : ... .. . ... ... : ... .. . ... ... : ... .. . ... ...
ROW CE : ... .. . ... ... ... : ... .. . ... ... ... : ... .. . ... : ... .. . ... : ... .. . ... ... : ... .. . ... ... : ... .. . ... ... : ... .. . ... ...
ROW CF : ... .. . ... ... ... : ... .. A ... ... ... : ... .. . ... : ... .. . ... : ... .. . ... ... : ... .. . ... ... : ... .. . ... ... : ... .. . ... ...
ROW D0 : ... .. . ... ... ... : D-5 00 D ... ... ... : F#4 00 . ... : ... .. F ... : ... .. . ... ... : D-3 01 8 P80 ... : B-3 01 8 ... ... : E-4 01 C ... ...
ROW D1 : ... .. . ... ... ... : ... .. B ... ... ... : G#3 00 . ... : ... .. C ... : ... .. . ... ... : ... .. 7 ... ... : ... .. 7 ... ... : ... .. A ... ...
ROW D2 : ... .. . ... ... ... : ... .. . ... ... ... : C#3 00 . ... : ... .. 6 ... : ... .. . ... ... : ... .. 6 ... ... : ... .. 6 ... ... : ... .. 6 ... ...
ROW D3 : ... .. . ... ... ... : ... .. A ... ... ... : C-3 00 . ... : ... .. 3 ... : ... .. . ... ... : ... .. 5 ... ... : ... .. 5 ... ... : ... .. . ... ...
ROW D4 : ... .. . ... ... ... : E-5 00 D ... ... ... : G-2 00 . ... : ... .. 2 ... : ... .. . ... ... : ... .. . ... ... : ... .. . ... ... : ... .. . ... ...
ROW D5 : ... .. . ... ... ... : ... .. B ... ... ... : ... .. . ... : ... .. 0 ... : ... .. . ... ... : ... .. 4 ... ... : ... .. 4 ... ... : ... .. . ... ...
ROW D6 : ... .. . ... ... ... : ... .. . ... ... ... : ... .. . ... : ... .. . ... : ... .. . ... ... : ... .. . ... ... : ... .. . ... ... : ... .. . ... ...
ROW D7 : ... .. . ... ... ... : ... .. A ... ... ... : ... .. . ... : ... .. . ... : ... .. . ... ... : ... .. . ... ... : ... .. . ... ... : ... .. . ... ...
ROW D8 : C#4 00 C P80 ... ... : F#5 00 D ... ... ... : F-5 00 . ... : 9-# 00 F ... : ... .. . ... ... : C#4 01 8 ... ... : F#4 01 8 ... ... : C#3 01 C ... ...
ROW D9 : ... .. B ... ... ... : ... .. B ... ... ... : G-4 00 . ... : ... .. C ... : ... .. . ... ... : ... .. 7 ... ... : ... .. 7 ... ... : ... .. A ... ...
ROW DA : ... .. A ... ... ... : ... .. . ... ... ... : C-4 00 . ... : ... .. 6 ... : ... .. . ... ... : ... .. 6 ... ... : ... .. 6 ... ... : ... .. 6 ... ...
ROW DB : ... .. 8 ... ... ... : E-5 00 C ... ... ... : B-3 00 . ... : ... .. 3 ... : ... .. . ... ... : ... .. 5 ... ... : ... .. 5 ... ... : ... .. . ... ...
ROW DC : ... .. . ... ... ... : ... .. A ... ... ... : F#3 00 . ... : ... .. 2 ... : ... .. . ... ... : ... .. . ... ... : ... .. . ... ... : ... .. . ... ...
ROW DD : ... .. . ... ... ... : ... .. . ... ... ... : ... .. . ... : ... .. 0 ... : ... .. . ... ... : ... .. 4 ... ... : ... .. 4 ... ... : ... .. . ... ...
ROW DE : ... .. . ... ... ... : D-5 00 B ... ... ... : E-3 00 . P85 : 2-# 00 F ... : ... .. . ... ... : ... .. . ... ... : ... .. . ... ... : ... .. . ... ...
ROW DF : ... .. . ... ... ... : ... .. 9 ... ... ... : D#3 00 . P7A : ... .. C ... : ... .. . ... ... : ... .. . ... ... : ... .. . ... ... : ... .. . ... ...
ROW E0 : ... .. . ... ... ... : ... .. . ... ... ... : C#3 00 . P86 : ... .. 6 ... : ... .. . ... ... : ... .. . ... ... : ... .. . ... ... : ... .. . ... ...
ROW E1 : ... .. . ... ... ... : C#5 00 A ... ... ... : C-3 00 . P7E : ... .. 3 ... : ... .. . ... ... : --- .. . ... ... : --- .. . ... ... : ... .. . ... ...
ROW E2 : ... .. . ... ... ... : ... .. 8 ... ... ... : B-2 00 . P77 : ... .. 2 ... : ... .. . ... ... : ... .. . ... ... : ... .. . ... ... : ... .. . ... ...
ROW E3 : ... .. . ... ... ... : ... .. . ... ... ... : --- .. . ... : ... .. 0 ... : ... .. . ... ... : ... .. . ... ... : ... .. . ... ... : ... .. . ... ...
ROW E4 : ... .. . ... ... ... : B-4 00 9 ... ... ... : E-2 00 . P80 : 1-# 00 F ... : ... .. . ... ... : C#4 01 6 ... ... : F#4 01 6 ... ... : ... .. . ... ...
ROW E5 : ... .. . ... ... ... : ... .. 8 ... ... ... : ... .. . ... : ... .. C ... : ... .. . ... ... : ... .. 4 ... ... : ... .. 4 ... ... : ... .. . ... ...
ROW E6 : ... .. . ... ... ... : ... .. . ... ... ... : ... .. . ... : ... .. 6 ... : ... .. . ... ... : ... .. 3 ... ... : ... .. 3 ... ... : ... .. . ... ...
ROW E7 : ... .. . ... ... ... : ... .. 7 ... ... ... : ... .. . ... : ... .. 3 ... : ... .. . ... ... : ... .. 1 ... ... : ... .. 1 ... ... : ... .. . ... ...
ROW E8 : ... .. . ... ... ... : A-4 00 8 ... ... ... : ... .. . ... : ... .. 2 ... : ... .. . ... ... : ... .. 6 ... ... : ... .. 6 ... ... : ... .. . ... ...
ROW E9 : ... .. . ... ... ... : ... .. 7 ... ... ... : --- .. . ... : ... .. 0 ... : ... .. . ... ... : ... .. 4 ... ... : ... .. 4 ... ... : ... .. . ... ...
ROW EA : ... .. . ... ... ... : ... .. . ... ... ... : F#2 00 . ... : C-# 00 F ... : ... .. . ... ... : ... .. 3 ... ... : ... .. 3 ... ... : ... .. . ... ...
ROW EB : ... .. . ... ... ... : ... .. 6 ... ... ... : ... .. . ... : ... .. C ... : ... .. . ... ... : ... .. 1 ... ... : ... .. 1 ... ... : ... .. . ... ...
ROW EC : ... .. . ... ... ... : G-4 00 7 ... ... ... : ... .. . ... : ... .. 6 ... : ... .. . ... ... : ... .. 6 ... ... : ... .. 6 ... ... : ... .. . ... ...
ROW ED : ... .. . ... ... ... : ... .. 5 ... ... ... : ... .. . ... : ... .. 3 ... : ... .. . ... ... : ... .. 4 ... ... : ... .. 4 ... ... : ... .. . ... ...
ROW EE : ... .. . ... ... ... : ... .. . ... ... ... : ... .. . ... : ... .. 2 ... : ... .. . ... ... : ... .. 3 ... ... : ... .. 3 ... ... : ... .. . ... ...
ROW EF : ... .. . ... ... ... : ... .. . ... ... ... : --- .. . ... : ... .. 0 ... : ... .. . ... ... : ... .. 1 ... ... : ... .. 1 ... ... : ... .. . ... ...
ROW F0 : ... .. . ... ... ... : F#4 00 6 ... ... ... : F-4 00 . ... : 7-# 00 F ... : ... .. . ... ... : ... .. 8 ... ... : ... .. 8 ... ... : ... .. . ... ...
ROW F1 : ... .. . ... ... ... : ... .. 5 ... ... ... : G-3 00 . ... : ... .. C ... : ... .. . ... ... : ... .. 7 ... ... : ... .. 7 ... ... : ... .. . ... ...
ROW F2 : ... .. . ... ... ... : ... .. . ... ... ... : C-3 00 . ... : ... .. 6 ... : ... .. . ... ... : ... .. 6 ... ... : ... .. 6 ... ... : ... .. . ... ...
ROW F3 : ... .. . ... ... ... : ... .. 4 ... ... ... : B-2 00 . ... : ... .. 3 ... : ... .. . ... ... : ... .. 5 ... ... : ... .. 5 ... ... : ... .. . ... ...
ROW F4 : ... .. . ... ... ... : E-4 00 5 ... ... ... : F#2 00 . ... : ... .. 2 ... : ... .. . ... ... : ... .. . ... ... : ... .. . ... ... : ... .. . ... ...
ROW F5 : ... .. . ... ... ... : ... .. 4 ... ... ... : --- .. . ... : ... .. 0 ... : ... .. . ... ... : --- .. . ... ... : --- .. . ... ... : ... .. . ... ...
ROW F6 : ... .. . ... ... ... : ... .. . ... ... ... : F#3 00 . ... : 1-# 00 F ... : ... .. . ... ... : ... .. . ... ... : ... .. . ... ... : ... .. . ... ...
ROW F7 : ... .. 1 ... ... ... : ... .. . ... ... ... : ... .. . ... : ... .. C ... : ... .. . ... ... : ... .. . ... ... : ... .. . ... ... : ... .. 3 ... ...
ROW F8 : ... .. . ... ... ... : D-4 00 4 ... ... ... : ... .. . ... : ... .. 6 ... : ... .. . ... ... : C#4 01 8 ... ... : F#4 01 8 ... ... : ... .. . ... ...
ROW F9 : ... .. . ... ... ... : ... .. 3 ... ... ... : ... .. . ... : ... .. 3 ... : ... .. . ... ... : ... .. 7 ... ... : ... .. 7 ... ... : ... .. 1 ... ...
ROW FA : ... .. . ... ... ... : ... .. . ... ... ... : ... .. . ... : ... .. 2 ... : ... .. . ... ... : ... .. 6 ... ... : ... .. 6 ... ... : ... .. . ... ...
ROW FB : ... .. . ... ... ... : ... .. . ... ... ... : --- .. . ... : ... .. 0 ... : ... .. . ... ... : ... .. 5 ... ... : ... .. 5 ... ... : ... .. . ... ...
ROW FC : ... .. C ... ... ... : C#4 00 5 ... ... ... : E-3 00 . ... : C-# 00 F ... : ... .. . ... ... : --- .. . ... ... : --- .. . ... ... : ... .. C ... ...
ROW FD : ... .. B ... ... ... : ... .. 4 ... ... ... : ... .. . ... : ... .. C ... : ... .. . ... ... : ... .. . ... ... : ... .. . ... ... : ... .. A ... ...
ROW FE : ... .. A ... ... ... : ... .. . ... ... ... : ... .. . ... : ... .. 6 ... : ... .. . ... ... : ... .. . ... ... : ... .. . ... ... : ... .. 6 ... ...
ROW FF : ... .. 8 ... ... ... : ... .. . ... ... ... : ... .. . ... : ... .. 3 ... : ... .. . ... ... : ... .. . ... ... : ... .. . ... ... : ... .. . ... ...

PATTERN 10
ROW 00 : ... .. 1 ... ... ... : B-2 00 5 ... ... ... : ... .. . ... : ... .. 2 ... : ... .. . ... ... : C#4 01 8 ... ... : F#4 01 8 ... ... : ... .. 3 ... ...
ROW 01 : ... .. . ... ... ... : ... .. 4 ... ... ... : --- .. . ... : ... .. 0 ... : ... .. . ... ... : ... .. 7 ... ... : ... .. 7 ... ... : ... .. . ... ...
ROW 02 : B-3 00 C ... ... ... : ... .. . ... ... ... : F#3 00 . ... : 7-# 00 F ... : ... .. . ... ... : ... .. 6 ... ... : ... .. 6 ... ... : B-2 01 C ... ...
ROW 03 : ... .. B ... ... ... : ... .. . ... ... ... : ... .. . ... : ... .. C ... : ... .. . ... ... : ... .. 5 ... ... : ... .. 5 ... ... : ... .. A ... ...
ROW 04 : ... .. A ... ... ... : C#3 00 5 ... ... ... : ... .. . ... : ... .. 6 ... : ... .. . ... ... : ... .. . ... ... : ... .. . ... ... : ... .. 6 ... ...
ROW 05 : ... .. 8 ... ... ... : ... .. . ... ... ... : ... .. . ... : ... .. 3 ... : ... .. . ... ... : --- .. . ... ... : --- .. . ... ... : ... .. . ... ...
ROW 06 : ... .. 1 ... ... ... : ... .. . ... ... ... : ... .. . ... : ... .. 2 ... : ... .. . ... ... : ... .. . ... ... : ... .. . ... ... : ... .. 3 ... ...
ROW 07 : ... .. . ... ... ... : ... .. 4 ... ... ... : --- .. . ... : ... .. 0 ... : ... .. . ... ... : ... .. . ... ... : ... .. . ... ... : ... .. . ... ...
ROW 08 : A-3 00 C ... ... ... : D-3 00 6 ... ... ... : F-5 00 . ... : 1-# 00 F ... : ... .. . ... ... : C#3 01 8 ... ... : F#3 01 8 ... ... : A-2 01 C ... ...
ROW 09 : ... .. B ... ... ... : ... .. 5 ... ... ... : G-4 00 . ... : ... .. C ... : ... .. . ... ... : ... .. 7 ... ... : ... .. 7 ... ... : ... .. A ... ...
ROW 0A : ... .. A ... ... ... : ... .. . ... ... ... : C-4 00 . ... : ... .. 6 ... : ... .. . ... ... : ... .. 6 ... ... : ... .. 6 ... ... : ... .. 6 ... ...
ROW 0B : ... .. 8 ... ... ... : ... .. 4 ... ... ... : B-3 00 . ... : ... .. 3 ... : ... .. . ... ... : ... .. 5 ... ... : ... .. 5 ... ... : ... .. . ... ...
ROW 0C : ... .. . ... ... ... : C#3 00 6 ... ... ... : F#3 00 . ... : ... .. 2 ... : ... .. . ... ... : ... .. . ... ... : ... .. . ... ... : ... .. . ... ...
ROW 0D : ... .. . ... ... ... : ... .. 5 ... ... ... : ... .. . ... : ... .. 0 ... : ... .. . ... ... : --- .. . P83 ... : --- .. . P7F ... : ... .. . ... ...
ROW 0E : ... .. . ... ... ... : ... .. . ... ... ... : E-3 00 . P85 : B-# 00 F ... : ... .. . ... ... : ... .. . ... ... : ... .. . ... ... : ... .. . ... ...
ROW 0F : ... .. . ... ... ... : ... .. 4 ... ... ... : D#3 00 . P7A : ... .. C ... : ... .. . ... ... : ... .. . ... ... : ... .. . ... ... : ... .. . ... ...
ROW 10 : ... .. . ... ... ... : B-2 00 6 ... ... ... : C#3 00 . P86 : ... .. 6 ... : ... .. . ... ... : C#3 01 8 P80 ... : F#3 01 8 P80 ... : ... .. . ... ...
ROW 11 : ... .. . ... ... ... : ... .. 5 ... ... ... : C-3 00 . P7E : ... .. 3 ... : ... .. . ... ... : ... .. 7 ... ... : ... .. 7 ... ... : ... .. . ... ...
ROW 12 : ... .. . ... ... ... : ... .. . ... ... ... : B-2 00 . P77 : ... .. 2 ... : ... .. . ... ... : ... .. 6 ... ... : ... .. 6 ... ... : ... .. . ... ...
ROW 13 : ... .. . ... ... ... : ... .. . ... ... ... : --- .. . ... : ... .. 0 ... : ... .. . ... ... : ... .. 5 ... ... : ... .. 5 ... ... : ... .. . ... ...
ROW 14 : ... .. . ... ... ... : A-2 00 6 ... ... ... : E-2 00 . P80 : 7-# 00 F ... : ... .. . ... ... : --- .. . P83 ... : --- .. . P7F ... : ... .. . ... ...
ROW 15 : ... .. . ... ... ... : ... .. 5 ... ... ... : ... .. . ... : ... .. C ... : ... .. . ... ... : ... .. . ... ... : ... .. . ... ... : ... .. . ... ...
ROW 16 : ... .. . ... ... ... : ... .. . ... ... ... : ... .. . ... : ... .. 6 ... : ... .. . ... ... : ... .. . ... ... : ... .. . ... ... : ... .. . ... ...
ROW 17 : ... .. . ... ... ... : ... .. . ... ... ... : ... .. . ... : ... .. 3 ... : ... .. . ... ... : ... .. . ... ... : ... .. . ... ... : ... .. . ... ...
ROW 18 : ... .. . ... ... ... : G-2 00 6 ... ... ... : ... .. . ... : ... .. 2 ... : ... .. . ... ... : C#3 01 8 P80 ... : F#3 01 8 P80 ... : ... .. . ... ...
ROW 19 : ... .. . ... ... ... : ... .. 5 ... ... ... : --- .. . ... : ... .. 0 ... : ... .. . ... ... : ... .. 7 ... ... : ... .. 7 ... ... : ... .. . ... ...
ROW 1A : ... .. . ... ... ... : ... .. . ... ... ... : F#2 00 . ... : 1-# 00 F ... : ... .. . ... ... : ... .. 6 ... ... : ... .. 6 ... ... : ... .. . ... ...
ROW 1B : ... .. . ... ... ... : ... .. . ... ... ... : ... .. . ... : ... .. C ... : ... .. . ... ... : ... .. 5 ... ... : ... .. 5 ... ... : ... .. . ... ...
ROW 1C : ... .. . ... ... ... : F#2 00 6 ... ... ... : ... .. . ... : ... .. 6 ... : ... .. . ... ... : ... .. . ... ... : ... .. . ... ... : ... .. . ... ...
ROW 1D : ... .. . ... ... ... : ... .. . ... ... ... : ... .. . ... : ... .. 3 ... : ... .. . ... ... : --- .. . P83 ... : --- .. . P7F ... : ... .. . ... ...
ROW 1E : ... .. . ... ... ... : ... .. . ... ... ... : ... .. . ... : ... .. 2 ... : ... .. . ... ... : ... .. . ... ... : ... .. . ... ... : ... .. . ... ...
ROW 1F : ... .. . ... ... ... : ... .. . ... ... ... : --- .. . ... : ... .. 0 ... : ... .. . ... ... : ... .. . ... ... : ... .. . ... ... : ... .. . ... ...
ROW 20 : ... .. . ... ... ... : G-2 00 7 ... ... ... : F-4 00 . ... : 9-# 00 F ... : ... .. . ... ... : C#4 01 8 P80 ... : A-4 01 8 P80 ... : ... .. . ... ...
ROW 21 : ... .. . ... ... ... : ... .. 6 ... ... ... : G-3 00 . ... : ... .. C ... : ... .. . ... ... : ... .. 7 ... ... : ... .. 7 ... ... : ... .. . ... ...
ROW 22 : ... .. . ... ... ... : ... .. . ... ... ... : C-3 00 . ... : ... .. 6 ... : ... .. . ... ... : ... .. 6 ... ... : ... .. 6 ... ... : ... .. . ... ...
ROW 23 : ... .. . ... ... ... : ... .. . ... ... ... : B-2 00 . ... : ... .. 3 ... : ... .. . ... ... : ... .. 5 ... ... : ... .. 5 ... ... : ... .. . ... ...
ROW 24 : ... .. . ... ... ... : A-2 00 7 ... ... ... : F#2 00 . ... : ... .. 2 ... : ... .. . ... ... : ... .. . ... ... : ... .. . ... ... : ... .. . ... ...
ROW 25 : ... .. . ... ... ... : ... .. 6 ... ... ... : --- .. . ... : ... .. 0 ... : ... .. . ... ... : --- .. . ... ... : --- .. . ... ... : ... .. . ... ...
ROW 26 : ... .. . ... ... ... : ... .. . ... ... ... : F#3 00 . ... : ... .. F ... : ... .. . ... ... : ... .. . ... ... : ... .. . ... ... : ... .. . ... ...
ROW 27 : ... .. . ... ... ... : ... .. . ... ... ... : ... .. . ... : ... .. C ... : ... .. . ... ... : ... .. . ... ... : ... .. . ... ... : ... .. . ... ...
ROW 28 : ... .. . ... ... ... : B-2 00 8 ... ... ... : ... .. . ... : ... .. 6 ... : ... .. . ... ... : C#4 01 8 ... ... : A-4 01 8 ... ... : ... .. . ... ...
ROW 29 : ... .. . ... ... ... : ... .. 7 ... ... ... : ... .. . ... : ... .. 3 ... : ... .. . ... ... : ... .. 7 ... ... : ... .. 7 ... ... : ... .. . ... ...
ROW 2A : ... .. . ... ... ... : ... .. . ... ... ... : ... .. . ... : ... .. 2 ... : ... .. . ... ... : ... .. 6 ... ... : ... .. 6 ... ... : ... .. . ... ...
ROW 2B : ... .. . ... ... ... : ... .. 6 ... ... ... : --- .. . ... : ... .. 0 ... : ... .. . ... ... : ... .. 5 ... ... : ... .. 5 ... ... : ... .. . ... ...
ROW 2C : ... .. . ... ... ... : C#3 00 8 ... ... ... : E-3 00 . ... : 7-# 00 F ... : ... .. . ... ... : --- .. . ... ... : --- .. . ... ... : ... .. . ... ...
ROW 2D : ... .. . ... ... ... : ... .. 7 ... ... ... : ... .. . ... : ... .. C ... : ... .. . ... ... : ... .. . ... ... : ... .. . ... ... : ... .. . ... ...
ROW 2E : ... .. . ... ... ... : ... .. . ... ... ... : ... .. . ... : ... .. 6 ... : ... .. . ... ... : ... .. . ... ... : ... .. . ... ... : ... .. . ... ...
ROW 2F : ... .. . ... ... ... : ... .. 6 ... ... ... : ... .. . ... : ... .. 3 ... : ... .. . ... ... : ... .. . ... ... : ... .. . ... ... : ... .. . ... ...
ROW 30 : ... .. . ... ... ... : D-3 00 8 ... ... ... : ... .. . ... : ... .. 2 ... : ... .. . ... ... : C#4 01 8 ... ... : A-4 01 8 ... ... : ... .. . ... ...
ROW 31 : ... .. . ... ... ... : ... .. 7 ... ... ... : --- .. . ... : ... .. 0 ... : ... .. . ... ... : ... .. 7 ... ... : ... .. 7 ... ... : ... .. . ... ...
ROW 32 : ... .. . ... ... ... : ... .. . ... ... ... : F#3 00 . ... : ... .. F ... : ... .. . ... ... : ... .. 6 ... ... : ... .. 6 ... ... : ... .. . ... ...
ROW 33 : ... .. 1 ... ... ... : ... .. 6 ... ... ... : ... .. . ... : ... .. C ... : ... .. . ... ... : ... .. 5 ... ... : ... .. 5 ... ... : ... .. 3 ... ...
ROW 34 : ... .. . ... ... ... : E-3 00 9 ... ... ... : ... .. . ... : ... .. 6 ... : ... .. . ... ... : ... .. . ... ... : ... .. . ... ... : ... .. . ... ...
ROW 35 : ... .. . ... ... ... : ... .. 8 ... ... ... : ... .. . ... : ... .. 3 ... : ... .. . ... ... : --- .. . ... ... : --- .. . ... ... : ... .. 1 ... ...
ROW 36 : ... .. . ... ... ... : ... .. . ... ... ... : ... .. . ... : ... .. 2 ... : ... .. . ... ... : ... .. . ... ... : ... .. . ... ... : ... .. . ... ...
ROW 37 : ... .. . ... ... ... : ... .. 7 ... ... ... : --- .. . ... : ... .. 0 ... : ... .. . ... ... : ... .. . ... ... : ... .. . ... ... : ... .. . ... ...
ROW 38 : B-3 00 C ... ... ... : F#3 00 9 ... ... ... : F-4 00 . ... : 9-# 00 F ... : ... .. . ... ... : D-4 01 8 ... ... : G-4 01 8 ... ... : B-2 01 C ... ...
ROW 39 : ... .. B ... ... ... : ... .. 8 ... ... ... : G-3 00 . ... : ... .. C ... : ... .. . ... ... : ... .. 7 ... ... : ... .. 7 ... ... : ... .. A ... ...
ROW 3A : ... .. A ... ... ... : ... .. . ... ... ... : C-3 00 . ... : ... .. 6 ... : ... .. . ... ... : ... .. 6 ... ... : ... .. 6 ... ... : ... .. 6 ... ...
ROW 3B : ... .. 8 ... ... ... : ... .. 7 ... ... ... : B-2 00 . ... : ... .. 3 ... : ... .. . ... ... : ... .. 5 ... ... : ... .. 5 ... ... : ... .. . ... ...
ROW 3C : ... .. . ... ... ... : E-3 00 9 ... ... ... : F#2 00 . ... : ... .. 2 ... : ... .. . ... ... : ... .. . ... ... : ... .. . ... ... : ... .. . ... ...
ROW 3D : ... .. . ... ... ... : ... .. 8 ... ... ... : ... .. . ... : ... .. 0 ... : ... .. . ... ... : ... .. 4 ... ... : ... .. 4 ... ... : ... .. . ... ...
ROW 3E : ... .. . ... ... ... : ... .. . ... ... ... : F-2 00 . P84 : 2-# 00 F ... : ... .. . ... ... : ... .. . ... ... : ... .. . ... ... : ... .. . ... ...
ROW 3F : ... .. . ... ... ... : ... .. 7 ... ... ... : E-2 00 . P8A : ... .. C ... : ... .. . ... ... : ... .. . ... ... : ... .. . ... ... : ... .. . ... ...
ROW 40 : ... .. . ... ... ... : D-3 00 A ... ... ... : D#2 00 . P92 : ... .. 6 ... : ... .. . ... ... : ... .. . ... ... : ... .. . ... ... : ... .. . ... ...
ROW 41 : ... .. . ... ... ... : ... .. 8 ... ... ... : ... .. . P72 : ... .. 3 ... : ... .. . ... ... : --- .. . ... ... : --- .. . ... ... : ... .. . ... ...
ROW 42 : ... .. . ... ... ... : ... .. . ... ... ... : D-2 00 . P7D : ... .. 2 ... : ... .. . ... ... : ... .. . ... ... : ... .. . ... ... : ... .. . ... ...
ROW 43 : ... .. . ... ... ... : ... .. . ... ... ... : --- .. . ... : ... .. 0 ... : ... .. . ... ... : ... .. . ... ... : ... .. . ... ... : ... .. . ... ...
ROW 44 : ... .. . ... ... ... : C#3 00 A ... ... ... : E-1 00 . P80 : 1-# 00 F ... : ... .. . ... ... : D-4 01 6 ... ... : G-4 01 6 ... ... : ... .. . ... ...
ROW 45 : ... .. . ... ... ... : ... .. 8 ... ... ... : ... .. . ... : ... .. C ... : ... .. . ... ... : ... .. 4 ... ... : ... .. 4 ... ... : ... .. . ... ...
ROW 46 : ... .. . ... ... ... : ... .. . ... ... ... : ... .. . ... : ... .. 6 ... : ... .. . ... ... : ... .. 3 ... ... : ... .. 3 ... ... : ... .. . ... ...
ROW 47 : ... .. . ... ... ... : ... .. . ... ... ... : ... .. . ... : ... .. 3 ... : ... .. . ... ... : ... .. 1 ... ... : ... .. 1 ... ... : ... .. . ... ...
ROW 48 : ... .. . ... ... ... : B-2 00 B ... ... ... : ... .. . ... : ... .. 2 ... : ... .. . ... ... : ... .. 6 ... ... : ... .. 6 ... ... : ... .. . ... ...
ROW 49 : ... .. . ... ... ... : ... .. 9 ... ... ... : --- .. . ... : ... .. 0 ... : ... .. . ... ... : ... .. 4 ... ... : ... .. 4 ... ... : ... .. . ... ...
ROW 4A : ... .. . ... ... ... : ... .. . ... ... ... : F#1 00 . ... : C-# 00 F ... : ... .. . ... ... : ... .. 3 ... ... : ... .. 3 ... ... : ... .. . ... ...
ROW 4B : ... .. . ... ... ... : ... .. 8 ... ... ... : ... .. . ... : ... .. C ... : ... .. . ... ... : ... .. 1 ... ... : ... .. 1 ... ... : ... .. . ... ...
ROW 4C : ... .. . ... ... ... : A-2 00 B ... ... ... : ... .. . ... : ... .. 6 ... : ... .. . ... ... : ... .. 6 ... ... : ... .. 6 ... ... : ... .. . ... ...
ROW 4D : ... .. . ... ... ... : ... .. 9 ... ... ... : ... .. . ... : ... .. 3 ... : ... .. . ... ... : ... .. 4 ... ... : ... .. 4 ... ... : ... .. . ... ...
ROW 4E : ... .. . ... ... ... : ... .. . ... ... ... : ... .. . ... : ... .. 2 ... : ... .. . ... ... : ... .. 3 ... ... : ... .. 3 ... ... : ... .. . ... ...
ROW 4F : ... .. . ... ... ... : ... .. 8 ... ... ... : --- .. . ... : ... .. 0 ... : ... .. . ... ... : ... .. 1 ... ... : ... .. 1 ... ... : ... .. . ... ...
ROW 50 : ... .. . ... ... ... : B-2 00 B ... ... ... : F-3 00 . ... : 7-# 00 F ... : ... .. . ... ... : ... .. 8 ... ... : ... .. 8 ... ... : ... .. . ... ...
ROW 51 : ... .. . ... ... ... : ... .. 9 ... ... ... : G-2 00 . ... : ... .. C ... : ... .. . ... ... : ... .. 7 ... ... : ... .. 7 ... ... : ... .. . ... ...
ROW 52 : ... .. . ... ... ... : ... .. . ... ... ... : C-2 00 . ... : ... .. 6 ... : ... .. . ... ... : ... .. 6 ... ... : ... .. 6 ... ... : ... .. . ... ...
ROW 53 : ... .. . ... ... ... : ... .. 8 ... ... ... : B-1 00 . ... : ... .. 3 ... : ... .. . ... ... : ... .. 5 ... ... : ... .. 5 ... ... : ... .. . ... ...
ROW 54 : ... .. . ... ... ... : C#3 00 C ... ... ... : F#1 00 . ... : ... .. 2 ... : ... .. . ... ... : ... .. . ... ... : ... .. . ... ... : ... .. . ... ...
ROW 55 : ... .. . ... ... ... : ... .. A ... ... ... : --- .. . ... : ... .. 0 ... : ... .. . ... ... : --- .. . ... ... : --- .. . ... ... : ... .. . ... ...
ROW 56 : ... .. . ... ... ... : ... .. . ... ... ... : F#2 00 . ... : 1-# 00 F ... : ... .. . ... ... : ... .. . ... ... : ... .. . ... ... : ... .. . ... ...
ROW 57 : ... .. . ... ... ... : ... .. 9 ... ... ... : ... .. . ... : ... .. C ... : ... .. . ... ... : ... .. . ... ... : ... .. . ... ... : ... .. . ... ...
ROW 58 : ... .. . ... ... ... : D-3 00 C ... ... ... : ... .. . ... : ... .. 6 ... : ... .. . ... ... : D-4 01 8 ... ... : G-4 01 8 ... ... : ... .. . ... ...
ROW 59 : ... .. . ... ... ... : ... .. A ... ... ... : ... .. . ... : ... .. 3 ... : ... .. . ... ... : ... .. 7 ... ... : ... .. 7 ... ... : ... .. . ... ...
ROW 5A : ... .. . ... ... ... : ... .. . ... ... ... : ... .. . ... : ... .. 2 ... : ... .. . ... ... : ... .. 6 ... ... : ... .. 6 ... ... : ... .. . ... ...
ROW 5B : ... .. . ... ... ... : ... .. 9 ... ... ... : --- .. . ... : ... .. 0 ... : ... .. . ... ... : ... .. 5 ... ... : ... .. 5 ... ... : ... .. . ... ...
ROW 5C : ... .. C ... ... ... : E-3 00 D ... ... ... : E-2 00 . ... : C-# 00 F ... : ... .. . ... ... : --- .. . ... ... : --- .. . ... ... : ... .. C ... ...
ROW 5D : ... .. B ... ... ... : ... .. B ... ... ... : ... .. . ... : ... .. C ... : ... .. . ... ... : ... .. . ... ... : ... .. . ... ... : ... .. A ... ...
ROW 5E : ... .. A ... ... ... : ... .. . ... ... ... : ... .. . ... : ... .. 6 ... : ... .. . ... ... : ... .. . ... ... : ... .. . ... ... : ... .. 6 ... ...
ROW 5F : ... .. 0 ... ... ... : ... .. A ... ... ... : ... .. . ... : ... .. 3 ... : ... .. . ... ... : ... .. . ... ... : ... .. . ... ... : --- .. . P8B ...
ROW 60 : ... .. . ... ... ... : F#3 00 C ... ... ... : ... .. . ... : ... .. 2 ... : ... .. . ... ... : D-4 01 8 ... ... : G-4 01 8 ... ... : ... .. . ... ...
ROW 61 : ... .. . ... ... ... : ... .. A ... ... ... : --- .. . ... : ... .. 0 ... : ... .. . ... ... : ... .. 7 ... ... : ... .. 7 ... ... : ... .. . ... ...
ROW 62 : A-3 00 C P80 ... ... : ... .. . ... ... ... : F#2 00 . ... : 7-# 00 F ... : ... .. . ... ... : ... .. 6 ... ... : ... .. 6 ... ... : A-2 01 C P80 ...
ROW 63 : ... .. B ... ... ... : ... .. 9 ... ... ... : ... .. . ... : ... .. C ... : ... .. . ... ... : ... .. 5 ... ... : ... .. 5 ... ... : ... .. A ... ...
ROW 64 : ... .. A ... ... ... : G-3 00 B ... ... ... : ... .. . ... : ... .. 6 ... : ... .. . ... ... : ... .. . ... ... : ... .. . ... ... : ... .. 6 ... ...
ROW 65 : ... .. 0 ... ... ... : ... .. 9 ... ... ... : ... .. . ... : ... .. 3 ... : ... .. . ... ... : --- .. . ... ... : --- .. . ... ... : --- .. . ... ...
ROW 66 : ... .. . ... ... ... : ... .. . ... ... ... : ... .. . ... : ... .. 2 ... : ... .. . ... ... : ... .. . ... ... : ... .. . ... ... : ... .. . ... ...
ROW 67 : ... .. . ... ... ... : ... .. 8 ... ... ... : --- .. . ... : ... .. 0 ... : ... .. . ... ... : ... .. . ... ... : ... .. . ... ... : ... .. . ... ...
ROW 68 : G-3 00 C P80 ... ... : F#3 00 A ... ... ... : F-5 00 . ... : 1-# 00 F ... : ... .. . ... ... : D-3 01 8 ... ... : G-3 01 8 ... ... : G-2 01 C ... ...
ROW 69 : ... .. B ... ... ... : ... .. 8 ... ... ... : G-4 00 . ... : ... .. C ... : ... .. . ... ... : ... .. 7 ... ... : ... .. 7 ... ... : ... .. A ... ...
ROW 6A : ... .. A ... ... ... : ... .. . ... ... ... : C-4 00 . ... : ... .. 6 ... : ... .. . ... ... : ... .. 6 ... ... : ... .. 6 ... ... : ... .. 6 ... ...
ROW 6B : ... .. 8 ... ... ... : ... .. . ... ... ... : B-3 00 . ... : ... .. 3 ... : ... .. . ... ... : ... .. 5 ... ... : ... .. 5 ... ... : ... .. . ... ...
ROW 6C : ... .. . ... ... ... : E-3 00 9 ... ... ... : F#3 00 . ... : ... .. 2 ... : ... .. . ... ... : ... .. . ... ... : ... .. . ... ... : ... .. . ... ...
ROW 6D : ... .. . ... ... ... : ... .. 8 ... ... ... : ... .. . ... : ... .. 0 ... : ... .. . ... ... : --- .. . P82 ... : --- .. . P81 ... : ... .. . ... ...
ROW 6E : ... .. . ... ... ... : ... .. . ... ... ... : E-3 00 . P85 : B-# 00 F ... : ... .. . ... ... : ... .. . ... ... : ... .. . ... ... : ... .. . ... ...
ROW 6F : ... .. . ... ... ... : ... .. 7 ... ... ... : D#3 00 . P7A : ... .. C ... : ... .. . ... ... : ... .. . ... ... : ... .. . ... ... : ... .. . ... ...
ROW 70 : ... .. . ... ... ... : D-3 00 9 ... ... ... : C#3 00 . P86 : ... .. 6 ... : ... .. . ... ... : D-3 01 8 P80 ... : G-3 01 8 P80 ... : ... .. . ... ...
ROW 71 : ... .. . ... ... ... : ... .. 7 ... ... ... : C-3 00 . P7E : ... .. 3 ... : ... .. . ... ... : ... .. 7 ... ... : ... .. 7 ... ... : ... .. . ... ...
ROW 72 : ... .. . ... ... ... : ... .. . ... ... ... : B-2 00 . P77 : ... .. 2 ... : ... .. . ... ... : ... .. 6 ... ... : ... .. 6 ... ... : ... .. . ... ...
ROW 73 : ... .. . ... ... ... : ... .. 6 ... ... ... : --- .. . ... : ... .. 0 ... : ... .. . ... ... : ... .. 5 ... ... : ... .. 5 ... ... : ... .. . ... ...
ROW 74 : ... .. . ... ... ... : C#3 00 8 ... ... ... : E-2 00 . P80 : 7-# 00 F ... : ... .. . ... ... : --- .. . P82 ... : --- .. . P81 ... : ... .. . ... ...
ROW 75 : ... .. . ... ... ... : ... .. 7 ... ... ... : ... .. . ... : ... .. C ... : ... .. . ... ... : ... .. . ... ... : ... .. . ... ... : ... .. . ... ...
ROW 76 : ... .. . ... ... ... : ... .. . ... ... ... : ... .. . ... : ... .. 6 ... : ... .. . ... ... : ... .. . ... ... : ... .. . ... ... : ... .. . ... ...
ROW 77 : ... .. . ... ... ... : ... .. 6 ... ... ... : ... .. . ... : ... .. 3 ... : ... .. . ... ... : ... .. . ... ... : ... .. . ... ... : ... .. . ... ...
ROW 78 : ... .. . ... ... ... : B-2 00 7 ... ... ... : ... .. . ... : ... .. 2 ... : ... .. . ... ... : D-3 01 8 P80 ... : G-3 01 8 P80 ... : ... .. . ... ...
ROW 79 : ... .. . ... ... ... : ... .. 6 ... ... ... : --- .. . ... : ... .. 0 ... : ... .. . ... ... : ... .. 7 ... ... : ... .. 7 ... ... : ... .. . ... ...
ROW 7A : ... .. . ... ... ... : ... .. . ... ... ... : F#2 00 . ... : 1-# 00 F ... : ... .. . ... ... : ... .. 6 ... ... : ... .. 6 ... ... : ... .. . ... ...
ROW 7B : ... .. . ... ... ... : ... .. . ... ... ... : ... .. . ... : ... .. C ... : ... .. . ... ... : ... .. 5 ... ... : ... .. 5 ... ... : ... .. . ... ...
ROW 7C : ... .. . ... ... ... : A-2 00 6 ... ... ... : ... .. . ... : ... .. 6 ... : ... .. . ... ... : ... .. . ... ... : ... .. . ... ... : ... .. . ... ...
ROW 7D : ... .. . ... ... ... : ... .. 5 ... ... ... : ... .. . ... : ... .. 3 ... : ... .. . ... ... : --- .. . P82 ... : --- .. . P81 ... : ... .. . ... ...
ROW 7E : ... .. . ... ... ... : ... .. . ... ... ... : ... .. . ... : ... .. 2 ... : ... .. . ... ... : ... .. . ... ... : ... .. . ... ... : ... .. . ... ...
ROW 7F : ... .. . ... ... ... : ... .. . ... ... ... : --- .. . ... : ... .. 0 ... : ... .. . ... ... : ... .. . ... ... : ... .. . ... ... : ... .. . ... ...
ROW 80 : ... .. . ... ... ... : B-2 00 6 ... ... ... : F-4 00 . ... : 9-# 00 F ... : ... .. . ... ... : D-4 01 8 P80 ... : B-4 01 8 P80 ... : ... .. . ... ...
ROW 81 : ... .. . ... ... ... : ... .. 5 ... ... ... : G-3 00 . ... : ... .. C ... : ... .. . ... ... : ... .. 7 ... ... : ... .. 7 ... ... : ... .. . ... ...
ROW 82 : ... .. . ... ... ... : ... .. . ... ... ... : C-3 00 . ... : ... .. 6 ... : ... .. . ... ... : ... .. 6 ... ... : ... .. 6 ... ... : ... .. . ... ...
ROW 83 : ... .. . ... ... ... : ... .. 4 ... ... ... : B-2 00 . ... : ... .. 3 ... : ... .. . ... ... : ... .. 5 ... ... : ... .. 5 ... ... : ... .. . ... ...
ROW 84 : ... .. . ... ... ... : C#3 00 6 ... ... ... : F#2 00 . ... : ... .. 2 ... : ... .. . ... ... : ... .. . ... ... : ... .. . ... ... : ... .. . ... ...
ROW 85 : ... .. . ... ... ... : ... .. 5 ... ... ... : --- .. . ... : ... .. 0 ... : ... .. . ... ... : --- .. . ... ... : --- .. . ... ... : ... .. . ... ...
ROW 86 : ... .. . ... ... ... : ... .. . ... ... ... : F#3 00 . ... : ... .. F ... : ... .. . ... ... : ... .. . ... ... : ... .. . ... ... : ... .. . ... ...
ROW 87 : ... .. . ... ... ... : ... .. 4 ... ... ... : ... .. . ... : ... .. C ... : ... .. . ... ... : ... .. . ... ... : ... .. . ... ... : ... .. . ... ...
ROW 88 : ... .. . ... ... ... : D-3 00 5 ... ... ... : ... .. . ... : ... .. 6 ... : ... .. . ... ... : D-4 01 8 ... ... : B-4 01 8 ... ... : ... .. . ... ...
ROW 89 : ... .. . ... ... ... : ... .. 3 ... ... ... : ... .. . ... : ... .. 3 ... : ... .. . ... ... : ... .. 7 ... ... : ... .. 7 ... ... : ... .. . ... ...
ROW 8A : ... .. . ... ... ... : ... .. . ... ... ... : ... .. . ... : ... .. 2 ... : ... .. . ... ... : ... .. 6 ... ... : ... .. 6 ... ... : ... .. . ... ...
ROW 8B : ... .. . ... ... ... : ... .. . ... ... ... : --- .. . ... : ... .. 0 ... : ... .. . ... ... : ... .. 5 ... ... : ... .. 5 ... ... : ... .. . ... ...
ROW 8C : ... .. . ... ... ... : E-3 00 4 ... ... ... : E-3 00 . ... : 7-# 00 F ... : ... .. . ... ... : --- .. . ... ... : --- .. . ... ... : ... .. . ... ...
ROW 8D : ... .. 1 ... ... ... : ... .. 3 ... ... ... : ... .. . ... : ... .. C ... : ... .. . ... ... : ... .. . ... ... : ... .. . ... ... : ... .. 3 ... ...
ROW 8E : ... .. . ... ... ... : ... .. . ... ... ... : ... .. . ... : ... .. 6 ... : ... .. . ... ... : ... .. . ... ... : ... .. . ... ... : ... .. . ... ...
ROW 8F : ... .. . ... ... ... : ... .. . ... ... ... : ... .. . ... : ... .. 3 ... : ... .. . ... ... : ... .. . ... ... : ... .. . ... ... : ... .. 1 ... ...
ROW 90 : ... .. . ... ... ... : F#3 00 3 ... ... ... : ... .. . ... : ... .. 2 ... : ... .. . ... ... : D-4 01 8 ... ... : B-4 01 8 ... ... : ... .. . ... ...
ROW 91 : ... .. . ... ... ... : ... .. 2 ... ... ... : --- .. . ... : ... .. 0 ... : ... .. . ... ... : ... .. 7 ... ... : ... .. 7 ... ... : ... .. . ... ...
ROW 92 : ... .. . ... ... ... : ... .. . ... ... ... : F#3 00 . ... : ... .. F ... : ... .. . ... ... : ... .. 6 ... ... : ... .. 6 ... ... : ... .. . ... ...
ROW 93 : ... .. 0 ... ... ... : ... .. . ... ... ... : ... .. . ... : ... .. C ... : ... .. . ... ... : ... .. 5 ... ... : ... .. 5 ... ... : ... .. . ... ...
ROW 94 : ... .. . ... ... ... : G-3 00 3 ... ... ... : ... .. . ... : ... .. 6 ... : ... .. . ... ... : ... .. . ... ... : ... .. . ... ... : ... .. . ... ...
ROW 95 : ... .. . ... ... ... : ... .. 2 ... ... ... : ... .. . ... : ... .. 3 ... : ... .. . ... ... : --- .. . ... ... : --- .. . ... ... : ... .. . ... ...
ROW 96 : ... .. . ... ... ... : ... .. . ... ... ... : ... .. . ... : ... .. 2 ... : ... .. . ... ... : ... .. . ... ... : ... .. . ... ... : ... .. 0 ... ...
ROW 97 : ... .. . ... ... ... : ... .. . ... ... ... : --- .. . ... : ... .. 0 ... : ... .. . ... ... : ... .. . ... ... : ... .. . ... ... : ... .. . ... ...
ROW 98 : ... .. . ... ... ... : B-2 00 3 ... ... ... : F#5 00 . ... : ... .. F ... : ... .. . ... ... : D-4 01 8 ... ... : B-4 01 8 ... ... : C#5 01 C ... ...
ROW 99 : ... .. . ... ... ... : ... .. 2 ... ... ... : G#4 00 . ... : ... .. C ... : ... .. . ... ... : ... .. 7 ... ... : ... .. 7 ... ... : ... .. A ... ...
ROW 9A : ... .. . ... ... ... : ... .. . ... ... ... : C#4 00 . ... : ... .. 6 ... : ... .. . ... ... : ... .. 6 ... ... : ... .. 6 ... ... : ... .. 6 ... ...
ROW 9B : ... .. . ... ... ... : ... .. . ... ... ... : C-4 00 . ... : 9-# 00 D ... : ... .. . ... ... : ... .. 5 ... ... : ... .. 5 ... ... : ... .. . ... ...
ROW 9C : ... .. . ... ... ... : C#3 00 3 ... ... ... : G-3 00 . ... : ... .. B ... : ... .. . ... ... : ... .. . ... ... : ... .. . ... ... : ... .. . ... ...
ROW 9D : ... .. . ... ... ... : ... .. 2 ... ... ... : ... .. . ... : ... .. . ... : ... .. . ... ... : --- .. . ... ... : --- .. . ... ... : --- .. . ... ...
ROW 9E : ... .. . ... ... ... : ... .. . ... ... ... : ... .. . ... : ... .. A ... : ... .. . ... ... : ... .. . ... ... : ... .. . ... ... : ... .. . ... ...
ROW 9F : ... .. . ... ... ... : ... .. . ... ... ... : ... .. . ... : ... .. 8 ... : ... .. . ... ... : ... .. . ... ... : ... .. . ... ... : ... .. . ... ...
ROW A0 : ... .. . ... ... ... : D-3 00 3 ... ... ... : F#5 00 . ... : ... .. 7 ... : ... .. . ... ... : D-4 01 8 ... ... : B-4 01 8 ... ... : C#5 01 C ... ...
ROW A1 : ... .. . ... ... ... : ... .. . ... ... ... : G#4 00 . ... : ... .. 6 ... : ... .. . ... ... : ... .. 7 ... ... : ... .. 7 ... ... : ... .. A ... ...
ROW A2 : ... .. . ... ... ... : ... .. . ... ... ... : C#4 00 . ... : ... .. . ... : ... .. . ... ... : ... .. 6 ... ... : ... .. 6 ... ... : ... .. 6 ... ...
ROW A3 : ... .. . ... ... ... : ... .. . ... ... ... : C-4 00 . ... : ... .. 5 ... : ... .. . ... ... : ... .. 5 ... ... : ... .. 5 ... ... : ... .. . ... ...
ROW A4 : ... .. . ... ... ... : E-3 00 4 ... ... ... : G-3 00 . ... : 7-# 00 F ... : ... .. . ... ... : --- .. . ... ... : --- .. . ... ... : --- .. . ... ...
ROW A5 : ... .. . ... ... ... : ... .. 3 ... ... ... : ... .. . ... : ... .. C ... : ... .. . ... ... : ... .. . ... ... : ... .. . ... ... : ... .. . ... ...
ROW A6 : ... .. . ... ... ... : ... .. . ... ... ... : ... .. . ... : ... .. 6 ... : ... .. . ... ... : ... .. . ... ... : ... .. . ... ... : ... .. . ... ...
ROW A7 : ... .. . ... ... ... : ... .. . ... ... ... : ... .. . ... : ... .. 3 ... : ... .. . ... ... : ... .. . ... ... : ... .. . ... ... : ... .. . ... ...
ROW A8 : ... .. . ... ... ... : F#3 00 5 ... ... ... : F#5 00 . ... : ... .. F ... : ... .. . ... ... : D-4 01 8 ... ... : B-4 01 8 ... ... : C#5 01 C ... ...
ROW A9 : ... .. . ... ... ... : ... .. 4 ... ... ... : G#4 00 . ... : ... .. C ... : ... .. . ... ... : ... .. 7 ... ... : ... .. 7 ... ... : ... .. A ... ...
ROW AA : ... .. . ... ... ... : ... .. . ... ... ... : C#4 00 . ... : ... .. 6 ... : ... .. . ... ... : ... .. 6 ... ... : ... .. 6 ... ... : ... .. 6 ... ...
ROW AB : ... .. . ... ... ... : ... .. . ... ... ... : C-4 00 . ... : ... .. 3 ... : ... .. . ... ... : ... .. 5 ... ... : ... .. 5 ... ... : ... .. . ... ...
ROW AC : ... .. . ... ... ... : G-3 00 5 ... ... ... : G-3 00 . ... : ... .. F ... : ... .. . ... ... : ... .. . ... ... : ... .. . ... ... : ... .. . ... ...
ROW AD : ... .. . ... ... ... : ... .. . ... ... ... : ... .. . ... : ... .. C ... : ... .. . ... ... : --- .. . ... ... : --- .. . ... ... : --- .. . ... ...
ROW AE : ... .. . ... ... ... : ... .. . ... ... ... : ... .. . ... : ... .. 6 ... : ... .. . ... ... : ... .. . ... ... : ... .. . ... ... : ... .. . ... ...
ROW AF : ... .. . ... ... ... : ... .. 4 ... ... ... : ... .. . ... : ... .. 3 ... : ... .. . ... ... : ... .. . ... ... : ... .. . ... ... : ... .. . ... ...
ROW B0 : ... .. . ... ... ... : E-3 00 6 ... ... ... : F#4 00 . ... : ... .. F ... : ... .. . ... ... : D-2 01 8 ... ... : B-2 01 8 ... ... : C#3 01 C ... ...
ROW B1 : ... .. . ... ... ... : ... .. 5 ... ... ... : G#3 00 . ... : ... .. C ... : ... .. . ... ... : ... .. 7 ... ... : ... .. 7 ... ... : ... .. A ... ...
ROW B2 : ... .. . ... ... ... : ... .. . ... ... ... : C#3 00 . ... : ... .. 6 ... : ... .. . ... ... : ... .. 6 ... ... : ... .. 6 ... ... : ... .. 6 ... ...
ROW B3 : ... .. . ... ... ... : ... .. 4 ... ... ... : C-3 00 . ... : 9-# 00 D ... : ... .. . ... ... : ... .. 5 ... ... : ... .. 5 ... ... : ... .. . ... ...
ROW B4 : ... .. . ... ... ... : F#3 00 6 ... ... ... : G-2 00 . ... : ... .. B ... : ... .. . ... ... : ... .. . ... ... : ... .. . ... ... : ... .. . ... ...
ROW B5 : ... .. . ... ... ... : ... .. 5 ... ... ... : ... .. . ... : ... .. . ... : ... .. . ... ... : --- .. . P84 ... : --- .. . P85 ... : --- .. . ... ...
ROW B6 : ... .. . ... ... ... : ... .. . ... ... ... : ... .. . ... : ... .. A ... : ... .. . ... ... : ... .. . ... ... : ... .. . ... ... : ... .. . ... ...
ROW B7 : ... .. . ... ... ... : ... .. . ... ... ... : ... .. . ... : ... .. 8 ... : ... .. . ... ... : ... .. . ... ... : ... .. . ... ... : ... .. . ... ...
ROW B8 : ... .. . ... ... ... : G-3 00 6 ... ... ... : ... .. . ... : ... .. 7 ... : ... .. . ... ... : D-2 01 8 P80 ... : B-2 01 8 P80 ... : C#3 01 C ... ...
ROW B9 : ... .. . ... ... ... : ... .. . ... ... ... : ... .. . ... : ... .. 6 ... : ... .. . ... ... : ... .. 7 ... ... : ... .. 7 ... ... : ... .. A ... ...
ROW BA : ... .. . ... ... ... : ... .. . ... ... ... : ... .. . ... : ... .. . ... : ... .. . ... ... : ... .. 6 ... ... : ... .. 6 ... ... : ... .. 6 ... ...
ROW BB : ... .. . ... ... ... : ... .. . ... ... ... : ... .. . ... : ... .. 5 ... : ... .. . ... ... : ... .. 5 ... ... : ... .. 5 ... ... : ... .. . ... ...
ROW BC : ... .. . ... ... ... : A-3 00 7 ... ... ... : ... .. . P70 : 7-# 00 F ... : ... .. . ... ... : --- .. . P84 ... : --- .. . P85 ... : --- .. . ... ...
ROW BD : ... .. . ... ... ... : ... .. 6 ... ... ... : F#2 00 . P82 : ... .. C ... : ... .. . ... ... : ... .. . ... ... : ... .. . ... ... : ... .. . ... ...
ROW BE : ... .. . ... ... ... : ... .. . ... ... ... : ... .. . P72 : ... .. 6 ... : ... .. . ... ... : ... .. . ... ... : ... .. . ... ... : ... .. . ... ...
ROW BF : ... .. . ... ... ... : ... .. . ... ... ... : F-2 00 . P86 : ... .. 3 ... : ... .. . ... ... : ... .. . ... ... : ... .. . ... ... : ... .. . ... ...
ROW C0 : ... .. . ... ... ... : B-3 00 7 ... ... ... : ... .. . P76 : ... .. F ... : ... .. . ... ... : D-2 01 8 P80 ... : B-2 01 8 P80 ... : C#3 01 C ... ...
ROW C1 : ... .. . ... ... ... : ... .. 6 ... ... ... : E-2 00 . P8C : ... .. C ... : ... .. . ... ... : ... .. 7 ... ... : ... .. 7 ... ... : ... .. A ... ...
ROW C2 : ... .. . ... ... ... : ... .. . ... ... ... : ... .. . P7C : ... .. 6 ... : ... .. . ... ... : ... .. 6 ... ... : ... .. 6 ... ... : ... .. 6 ... ...
ROW C3 : ... .. . ... ... ... : ... .. . ... ... ... : D#2 00 . P94 : ... .. 3 ... : ... .. . ... ... : ... .. 5 ... ... : ... .. 5 ... ... : ... .. . ... ...
ROW C4 : ... .. . ... ... ... : C#4 00 8 ... ... ... : ... .. . P84 : ... .. F ... : ... .. . ... ... : ... .. . ... ... : ... .. . ... ... : ... .. . ... ...
ROW C5 : ... .. . ... ... ... : ... .. 7 ... ... ... : ... .. . P74 : ... .. C ... : ... .. . ... ... : --- .. . P84 ... : --- .. . P85 ... : --- .. . ... ...
ROW C6 : ... .. . ... ... ... : ... .. . ... ... ... : D-2 00 . P8F : ... .. 6 ... : ... .. . ... ... : ... .. . ... ... : ... .. . ... ... : ... .. . ... ...
ROW C7 : ... .. . ... ... ... : ... .. 6 ... ... ... : ... .. . P7F : ... .. 3 ... : ... .. . ... ... : ... .. . ... ... : ... .. . ... ... : ... .. . ... ...
ROW C8 : ... .. . ... ... ... : D-4 00 9 ... ... ... : C-5 00 . P80 : ... .. F ... : ... .. . ... ... : B-3 01 8 P80 ... : E-4 01 8 P80 ... : G-4 01 C ... ...
ROW C9 : ... .. . ... ... ... : ... .. 8 ... ... ... : D-4 00 . ... : ... .. C ... : ... .. . ... ... : ... .. 7 ... ... : ... .. 7 ... ... : ... .. A ... ...
ROW CA : ... .. . ... ... ... : ... .. . ... ... ... : G-3 00 . ... : ... .. 6 ... : ... .. . ... ... : ... .. 6 ... ... : ... .. 6 ... ... : ... .. 6 ... ...
ROW CB : ... .. . ... ... ... : ... .. 7 ... ... ... : F#3 00 . ... : ... .. 3 ... : ... .. . ... ... : ... .. 5 ... ... : ... .. 5 ... ... : ... .. . ... ...
ROW CC : ... .. . ... ... ... : E-4 00 9 ... ... ... : C#3 00 . ... : ... .. 2 ... : ... .. . ... ... : ... .. . ... ... : ... .. . ... ... : ... .. . ... ...
ROW CD : ... .. . ... ... ... : ... .. 8 ... ... ... : ... .. . ... : ... .. 0 ... : ... .. . ... ... : ... .. 4 ... ... : ... .. 4 ... ... : ... .. . ... ...
ROW CE : ... .. . ... ... ... : ... .. . ... ... ... : ... .. . ... : ... .. . ... : ... .. . ... ... : ... .. . ... ... : ... .. . ... ... : ... .. . ... ...
ROW CF : ... .. . ... ... ... : ... .. 7 ... ... ... : ... .. . ... : ... .. . ... : ... .. . ... ... : ... .. . ... ... : ... .. . ... ... : ... .. . ... ...
ROW D0 : ... .. . ... ... ... : F#4 00 A ... ... ... : C-5 00 . ... : ... .. F ... : ... .. . ... ... : ... .. . ... ... : ... .. . ... ... : ... .. . ... ...
ROW D1 : ... .. . ... ... ... : ... .. 8 ... ... ... : D-4 00 . ... : ... .. C ... : ... .. . ... ... : --- .. . ... ... : --- .. . ... ... : --- .. . ... ...
ROW D2 : ... .. . ... ... ... : ... .. . ... ... ... : G-3 00 . ... : ... .. 6 ... : ... .. . ... ... : ... .. . ... ... : ... .. . ... ... : ... .. . ... ...
ROW D3 : ... .. . ... ... ... : ... .. . ... ... ... : F#3 00 . ... : ... .. 3 ... : ... .. . ... ... : ... .. . ... ... : ... .. . ... ... : ... .. . ... ...
ROW D4 : ... .. . ... ... ... : G-4 00 B ... ... ... : C#3 00 . ... : ... .. 2 ... : ... .. . ... ... : B-3 01 6 ... ... : E-4 01 6 ... ... : G-4 01 A ... ...
ROW D5 : ... .. . ... ... ... : ... .. 9 ... ... ... : ... .. . ... : ... .. 0 ... : ... .. . ... ... : ... .. 4 ... ... : ... .. 4 ... ... : ... .. 6 ... ...
ROW D6 : ... .. . ... ... ... : ... .. . ... ... ... : ... .. . ... : ... .. . ... : ... .. . ... ... : ... .. 3 ... ... : ... .. 3 ... ... : ... .. 3 ... ...
ROW D7 : ... .. . ... ... ... : ... .. 8 ... ... ... : ... .. . ... : ... .. . ... : ... .. . ... ... : ... .. 1 ... ... : ... .. 1 ... ... : ... .. 2 ... ...
ROW D8 : ... .. . ... ... ... : A-4 00 B ... ... ... : C-5 00 . ... : ... .. F ... : ... .. . ... ... : ... .. 6 ... ... : ... .. 6 ... ... : ... .. A ... ...
ROW D9 : ... .. . ... ... ... : ... .. 9 ... ... ... : D-4 00 . ... : ... .. C ... : ... .. . ... ... : ... .. 4 ... ... : ... .. 4 ... ... : ... .. 6 ... ...
ROW DA : ... .. . ... ... ... : ... .. . ... ... ... : G-3 00 . ... : ... .. 6 ... : ... .. . ... ... : ... .. 3 ... ... : ... .. 3 ... ... : ... .. 3 ... ...
ROW DB : ... .. . ... ... ... : ... .. 8 ... ... ... : F#3 00 . ... : ... .. 3 ... : ... .. . ... ... : ... .. 1 ... ... : ... .. 1 ... ... : ... .. 2 ... ...
ROW DC : ... .. . ... ... ... : B-4 00 C ... ... ... : C#3 00 . ... : ... .. 2 ... : ... .. . ... ... : ... .. 6 ... ... : ... .. 6 ... ... : ... .. A ... ...
ROW DD : ... .. . ... ... ... : ... .. A ... ... ... : ... .. . ... : ... .. 0 ... : ... .. . ... ... : ... .. 4 ... ... : ... .. 4 ... ... : ... .. 6 ... ...
ROW DE : ... .. . ... ... ... : ... .. . ... ... ... : ... .. . ... : ... .. . ... : ... .. . ... ... : ... .. 3 ... ... : ... .. 3 ... ... : ... .. 3 ... ...
ROW DF : ... .. . ... ... ... : ... .. 9 ... ... ... : ... .. . ... : ... .. . ... : ... .. . ... ... : ... .. 1 ... ... : ... .. 1 ... ... : ... .. 2 ... ...
ROW E0 : ... .. . ... ... ... : G-4 00 D ... ... ... : F#5 00 . ... : ... .. F ... : ... .. . ... ... : B-2 01 8 ... ... : D-4 01 8 ... ... : ... .. C ... ...
ROW E1 : ... .. . ... ... ... : ... .. B ... ... ... : G#4 00 . ... : ... .. C ... : ... .. . ... ... : ... .. 7 ... ... : ... .. 7 ... ... : ... .. A ... ...
ROW E2 : ... .. . ... ... ... : ... .. . ... ... ... : C#4 00 . ... : ... .. 6 ... : ... .. . ... ... : ... .. 6 ... ... : ... .. 6 ... ... : ... .. 6 ... ...
ROW E3 : ... .. . ... ... ... : ... .. A ... ... ... : C-4 00 . ... : ... .. 3 ... : ... .. . ... ... : ... .. 5 ... ... : ... .. 5 ... ... : ... .. . ... ...
ROW E4 : ... .. . ... ... ... : A-4 00 D ... ... ... : G-3 00 . ... : ... .. 2 ... : ... .. . ... ... : ... .. . ... ... : ... .. . ... ... : ... .. . ... ...
ROW E5 : ... .. . ... ... ... : ... .. B ... ... ... : ... .. . ... : ... .. 0 ... : ... .. . ... ... : --- .. . P85 ... : --- .. . ... ... : --- .. . ... ...
ROW E6 : ... .. . ... ... ... : ... .. . ... ... ... : ... .. . ... : ... .. . ... : ... .. . ... ... : ... .. . ... ... : ... .. . ... ... : ... .. . ... ...
ROW E7 : ... .. . ... ... ... : ... .. A ... ... ... : ... .. . ... : ... .. . ... : ... .. . ... ... : ... .. . ... ... : ... .. . ... ... : ... .. . ... ...
ROW E8 : ... .. . ... ... ... : B-4 00 D ... ... ... : D#5 00 . ... : ... .. F ... : ... .. . ... ... : C#3 01 8 P80 ... : C#4 01 8 ... ... : F#4 01 C ... ...
ROW E9 : ... .. . ... ... ... : ... .. B ... ... ... : F-4 00 . ... : ... .. C ... : ... .. . ... ... : ... .. 7 ... ... : ... .. 7 ... ... : ... .. A ... ...
ROW EA : ... .. . ... ... ... : ... .. . ... ... ... : A#3 00 . ... : ... .. 6 ... : ... .. . ... ... : ... .. 6 ... ... : ... .. 6 ... ... : ... .. 6 ... ...
ROW EB : ... .. . ... ... ... : ... .. A ... ... ... : A-3 00 . ... : ... .. 3 ... : ... .. . ... ... : ... .. 5 ... ... : ... .. 5 ... ... : ... .. . ... ...
ROW EC : ... .. . ... ... ... : C#5 00 D ... ... ... : E-3 00 . ... : ... .. 2 ... : ... .. . ... ... : --- .. . P83 ... : --- .. . ... ... : --- .. . ... ...
ROW ED : ... .. . ... ... ... : ... .. B ... ... ... : ... .. . ... : ... .. 0 ... : ... .. . ... ... : ... .. . ... ... : ... .. . ... ... : ... .. . ... ...
ROW EE : ... .. . ... ... ... : ... .. . ... ... ... : ... .. . ... : ... .. . ... : ... .. . ... ... : ... .. . ... ... : ... .. . ... ... : ... .. . ... ...
ROW EF : ... .. . ... ... ... : ... .. A ... ... ... : ... .. . ... : ... .. . ... : ... .. . ... ... : ... .. . ... ... : ... .. . ... ... : ... .. . ... ...
ROW F0 : ... .. . ... ... ... : D-5 00 D ... ... ... : D#4 00 . ... : ... .. F ... : ... .. . ... ... : D-3 01 8 P80 ... : B-3 01 8 ... ... : E-4 01 C ... ...
ROW F1 : ... .. . ... ... ... : ... .. B ... ... ... : F-3 00 . ... : ... .. C ... : ... .. . ... ... : ... .. 7 ... ... : ... .. 7 ... ... : ... .. A ... ...
ROW F2 : ... .. . ... ... ... : ... .. . ... ... ... : A#2 00 . ... : ... .. 6 ... : ... .. . ... ... : ... .. 6 ... ... : ... .. 6 ... ... : ... .. 6 ... ...
ROW F3 : ... .. . ... ... ... : ... .. A ... ... ... : A-2 00 . ... : ... .. 3 ... : ... .. . ... ... : ... .. 5 ... ... : ... .. 5 ... ... : ... .. . ... ...
ROW F4 : ... .. . ... ... ... : E-5 00 D ... ... ... : E-2 00 . ... : ... .. 2 ... : ... .. . ... ... : ... .. . ... ... : ... .. . ... ... : ... .. . ... ...
ROW F5 : ... .. . ... ... ... : ... .. B ... ... ... : ... .. . ... : ... .. 0 ... : ... .. . ... ... : ... .. 4 ... ... : ... .. 4 ... ... : ... .. . ... ...
ROW F6 : ... .. . ... ... ... : ... .. . ... ... ... : ... .. . ... : ... .. . ... : ... .. . ... ... : ... .. . ... ... : ... .. . ... ... : ... .. . ... ...
ROW F7 : ... .. . ... ... ... : ... .. A ... ... ... : ... .. . ... : ... .. . ... : ... .. . ... ... : ... .. . ... ... : ... .. . ... ... : ... .. . ... ...
ROW F8 : ... .. . ... ... ... : F#5 00 D ... ... ... : F-5 00 . ... : 9-# 00 F ... : ... .. . ... ... : A-3 01 8 ... ... : F#4 01 8 ... ... : F#1 01 D ... ...
ROW F9 : ... .. . ... ... ... : ... .. B ... ... ... : G-4 00 . ... : ... .. C ... : ... .. . ... ... : ... .. 7 ... ... : ... .. 7 ... ... : ... .. B ... ...
ROW FA : ... .. . ... ... ... : ... .. . ... ... ... : C-4 00 . ... : ... .. 6 ... : ... .. . ... ... : ... .. 6 ... ... : ... .. 6 ... ... : ... .. 6 ... ...
ROW FB : ... .. . ... ... ... : ... .. 9 ... ... ... : B-3 00 . ... : ... .. 3 ... : ... .. . ... ... : ... .. 5 ... ... : ... .. 5 ... ... : ... .. . ... ...
ROW FC : ... .. . ... ... ... : ... .. 7 ... ... ... : F#3 00 . ... : ... .. 2 ... : ... .. . ... ... : ... .. . ... ... : ... .. . ... ... : ... .. . ... ...
ROW FD : ... .. . ... ... ... : ... .. 6 ... ... ... : ... .. . ... : ... .. 0 ... : ... .. . ... ... : ... .. 4 ... ... : ... .. 4 ... ... : ... .. . ... ...
ROW FE : ... .. . ... ... ... : C#5 00 C ... ... ... : E-3 00 . P85 : 2-# 00 F ... : ... .. . ... ... : ... .. . ... ... : ... .. . ... ... : ... .. . ... ...
ROW FF : ... .. . ... ... ... : ... .. A ... ... ... : D#3 00 . P7A : ... .. C ... : ... .. . ... ... : ... .. . ... ... : ... .. . ... ... : ... .. . ... ...

PATTERN 11
ROW 00 : ... .. . ... ... ... : ... .. . ... ... ... : C#3 00 . P86 : ... .. 6 ... : ... .. . ... ... : ... .. . ... ... : ... .. . ... ... : ... .. . ... ...
ROW 01 : ... .. . ... ... ... : ... .. 8 ... ... ... : C-3 00 . P7E : ... .. 3 ... : ... .. . ... ... : ... .. . ... ... : ... .. . ... ... : ... .. . ... ...
ROW 02 : ... .. . ... ... ... : ... .. 6 ... ... ... : B-2 00 . P77 : ... .. 2 ... : ... .. . ... ... : ... .. . ... ... : ... .. . ... ... : ... .. . ... ...
ROW 03 : ... .. . ... ... ... : ... .. . ... ... ... : --- .. . ... : ... .. 0 ... : ... .. . ... ... : ... .. . ... ... : ... .. . ... ... : ... .. . ... ...
ROW 04 : F#2 00 C P80 ... ... : A-4 00 B ... ... ... : E-2 00 . P80 : 1-# 00 F ... : ... .. . ... ... : ... .. . ... ... : ... .. . ... ... : ... .. . ... ...
ROW 05 : ... .. B ... ... ... : ... .. 9 ... ... ... : ... .. . ... : ... .. C ... : ... .. . ... ... : ... .. . ... ... : ... .. . ... ... : ... .. 3 ... ...
ROW 06 : ... .. A ... ... ... : ... .. . ... ... ... : ... .. . ... : ... .. 6 ... : ... .. . ... ... : ... .. 2 ... ... : ... .. 2 ... ... : ... .. . ... ...
ROW 07 : ... .. 8 ... ... ... : ... .. 8 ... ... ... : ... .. . ... : ... .. 3 ... : ... .. . ... ... : ... .. . ... ... : ... .. . ... ... : ... .. 1 ... ...
ROW 08 : ... .. 1 ... ... ... : ... .. 6 ... ... ... : ... .. . ... : ... .. 2 ... : ... .. . ... ... : ... .. . ... ... : ... .. . ... ... : ... .. . ... ...
ROW 09 : ... .. . ... ... ... : ... .. 5 ... ... ... : --- .. . ... : ... .. 0 ... : ... .. . ... ... : ... .. . ... ... : ... .. . ... ... : ... .. . ... ...
ROW 0A : ... .. C ... ... ... : F#4 00 A ... ... ... : F#2 00 . ... : C-# 00 F ... : ... .. . ... ... : ... .. 8 ... ... : ... .. 8 ... ... : ... .. . ... ...
ROW 0B : ... .. B ... ... ... : ... .. 8 ... ... ... : ... .. . ... : ... .. C ... : ... .. . ... ... : ... .. 7 ... ... : ... .. 7 ... ... : ... .. . ... ...
ROW 0C : ... .. A ... ... ... : ... .. . ... ... ... : ... .. . ... : ... .. 6 ... : ... .. . ... ... : ... .. 6 ... ... : ... .. 6 ... ... : ... .. . ... ...
ROW 0D : ... .. 8 ... ... ... : ... .. 7 ... ... ... : ... .. . ... : ... .. 3 ... : ... .. . ... ... : ... .. 4 ... ... : ... .. 4 ... ... : ... .. . ... ...
ROW 0E : ... .. 1 ... ... ... : ... .. 5 ... ... ... : ... .. . ... : ... .. 2 ... : ... .. . ... ... : ... .. . ... ... : ... .. . ... ... : ... .. 0 ... ...
ROW 0F : ... .. . ... ... ... : ... .. . ... ... ... : --- .. . ... : ... .. 0 ... : ... .. . ... ... : ... .. 2 ... ... : ... .. 2 ... ... : ... .. . ... ...
ROW 10 : C#3 00 C ... ... ... : C#4 00 9 ... ... ... : F-4 00 . ... : 7-# 00 F ... : ... .. . ... ... : F#4 01 8 ... ... : C#5 01 8 ... ... : ... .. D ... ...
ROW 11 : ... .. B ... ... ... : ... .. 8 ... ... ... : G-3 00 . ... : ... .. C ... : ... .. . ... ... : ... .. 7 ... ... : ... .. 7 ... ... : ... .. B ... ...
ROW 12 : ... .. A ... ... ... : ... .. . ... ... ... : C-3 00 . ... : ... .. 6 ... : ... .. . ... ... : ... .. 6 ... ... : ... .. 6 ... ... : ... .. 6 ... ...
ROW 13 : ... .. 8 ... ... ... : ... .. 7 ... ... ... : B-2 00 . ... : ... .. 3 ... : ... .. . ... ... : ... .. 5 ... ... : ... .. 5 ... ... : ... .. . ... ...
ROW 14 : ... .. . ... ... ... : ... .. 5 ... ... ... : F#2 00 . ... : ... .. 2 ... : ... .. . ... ... : ... .. . ... ... : ... .. . ... ... : ... .. . ... ...
ROW 15 : ... .. . ... ... ... : ... .. . ... ... ... : --- .. . ... : ... .. 0 ... : ... .. . ... ... : ... .. 4 ... ... : ... .. 4 ... ... : ... .. . ... ...
ROW 16 : ... .. . ... ... ... : A-3 00 8 ... ... ... : F#3 00 . ... : 1-# 00 F ... : ... .. . ... ... : ... .. . ... ... : ... .. . ... ... : ... .. . ... ...
ROW 17 : ... .. . ... ... ... : ... .. 7 ... ... ... : ... .. . ... : ... .. C ... : ... .. . ... ... : ... .. . ... ... : ... .. . ... ... : ... .. . ... ...
ROW 18 : ... .. . ... ... ... : ... .. . ... ... ... : ... .. . ... : ... .. 6 ... : ... .. . ... ... : ... .. . ... ... : ... .. . ... ... : ... .. . ... ...
ROW 19 : ... .. . ... ... ... : ... .. 6 ... ... ... : ... .. . ... : ... .. 3 ... : ... .. . ... ... : ... .. . ... ... : ... .. . ... ... : ... .. . ... ...
ROW 1A : ... .. 1 ... ... ... : ... .. 5 ... ... ... : ... .. . ... : ... .. 2 ... : ... .. . ... ... : ... .. . ... ... : ... .. . ... ... : ... .. . ... ...
ROW 1B : ... .. . ... ... ... : ... .. 4 ... ... ... : --- .. . ... : ... .. 0 ... : ... .. . ... ... : ... .. . ... ... : ... .. . ... ... : ... .. . ... ...
ROW 1C : F#2 00 C ... ... ... : F#3 00 7 ... ... ... : E-3 00 . ... : C-# 00 F ... : ... .. . ... ... : ... .. . ... ... : ... .. . ... ... : ... .. . ... ...
ROW 1D : ... .. B ... ... ... : ... .. 6 ... ... ... : ... .. . ... : ... .. C ... : ... .. . ... ... : ... .. . ... ... : ... .. . ... ... : ... .. 3 ... ...
ROW 1E : ... .. A ... ... ... : ... .. . ... ... ... : ... .. . ... : ... .. 6 ... : ... .. . ... ... : ... .. . ... ... : ... .. . ... ... : ... .. . ... ...
ROW 1F : ... .. 8 ... ... ... : ... .. . ... ... ... : ... .. . ... : ... .. 3 ... : ... .. . ... ... : ... .. . ... ... : ... .. . ... ... : ... .. 1 ... ...
ROW 20 : ... .. 1 ... ... ... : ... .. 4 ... ... ... : ... .. . ... : ... .. 2 ... : ... .. . ... ... : ... .. . ... ... : ... .. . ... ... : ... .. . ... ...
ROW 21 : ... .. . ... ... ... : ... .. . ... ... ... : --- .. . ... : ... .. 0 ... : ... .. . ... ... : ... .. . ... ... : ... .. . ... ... : ... .. . ... ...
ROW 22 : C#3 00 C ... ... ... : C#3 00 6 ... ... ... : F#3 00 . ... : 7-# 00 F ... : ... .. . ... ... : ... .. . ... ... : ... .. . ... ... : ... .. . ... ...
ROW 23 : ... .. B ... ... ... : ... .. 5 ... ... ... : ... .. . ... : ... .. C ... : ... .. . ... ... : ... .. . ... ... : ... .. . ... ... : ... .. . ... ...
ROW 24 : ... .. A ... ... ... : ... .. . ... ... ... : ... .. . ... : ... .. 6 ... : ... .. . ... ... : ... .. 2 ... ... : ... .. 2 ... ... : ... .. . ... ...
ROW 25 : ... .. 8 ... ... ... : ... .. . ... ... ... : ... .. . ... : ... .. 3 ... : ... .. . ... ... : ... .. . ... ... : ... .. . ... ... : ... .. . ... ...
ROW 26 : ... .. 1 ... ... ... : ... .. 4 ... ... ... : ... .. . ... : ... .. 2 ... : ... .. . ... ... : ... .. . ... ... : ... .. . ... ... : ... .. 0 ... ...
ROW 27 : ... .. . ... ... ... : ... .. 3 ... ... ... : --- .. . ... : ... .. 0 ... : ... .. . ... ... : ... .. . ... ... : ... .. . ... ... : ... .. . ... ...
ROW 28 : B-2 00 C ... ... ... : D-3 00 6 ... ... ... : F-5 00 . ... : 1-# 00 F ... : ... .. . ... ... : G-4 01 8 ... ... : B-4 01 8 ... ... : ... .. D ... ...
ROW 29 : ... .. B ... ... ... : ... .. 5 ... ... ... : G-4 00 . ... : ... .. C ... : ... .. . ... ... : ... .. 7 ... ... : ... .. 7 ... ... : ... .. B ... ...
ROW 2A : ... .. A ... ... ... : ... .. . ... ... ... : C-4 00 . ... : ... .. 6 ... : ... .. . ... ... : ... .. 6 ... ... : ... .. 6 ... ... : ... .. 6 ... ...
ROW 2B : ... .. 8 ... ... ... : ... .. . ... ... ... : B-3 00 . ... : ... .. 3 ... : ... .. . ... ... : ... .. 5 ... ... : ... .. 5 ... ... : ... .. . ... ...
ROW 2C : ... .. . ... ... ... : ... .. 4 ... ... ... : F#3 00 . ... : ... .. 2 ... : ... .. . ... ... : ... .. . ... ... : ... .. . ... ... : ... .. . ... ...
ROW 2D : ... .. . ... ... ... : ... .. 3 ... ... ... : ... .. . ... : ... .. 0 ... : ... .. . ... ... : ... .. 4 ... ... : ... .. 4 ... ... : ... .. . ... ...
ROW 2E : ... .. . ... ... ... : G-3 00 6 ... ... ... : E-3 00 . P85 : B-# 00 F ... : ... .. . ... ... : ... .. . ... ... : ... .. . ... ... : ... .. . ... ...
ROW 2F : ... .. . ... ... ... : ... .. 5 ... ... ... : D#3 00 . P7A : ... .. C ... : ... .. . ... ... : ... .. . ... ... : ... .. . ... ... : ... .. . ... ...
ROW 30 : ... .. . ... ... ... : ... .. . ... ... ... : C#3 00 . P86 : ... .. 6 ... : ... .. . ... ... : ... .. . ... ... : ... .. . ... ... : ... .. . ... ...
ROW 31 : ... .. . ... ... ... : ... .. . ... ... ... : C-3 00 . P7E : ... .. 3 ... : ... .. . ... ... : ... .. . ... ... : ... .. . ... ... : ... .. . ... ...
ROW 32 : ... .. . ... ... ... : ... .. 4 ... ... ... : B-2 00 . P77 : ... .. 2 ... : ... .. . ... ... : ... .. . ... ... : ... .. . ... ... : ... .. . ... ...
ROW 33 : ... .. . ... ... ... : ... .. 3 ... ... ... : --- .. . ... : ... .. 0 ... : ... .. . ... ... : ... .. . ... ... : ... .. . ... ... : ... .. . ... ...
ROW 34 : ... .. . ... ... ... : D-3 00 6 ... ... ... : E-2 00 . P80 : 7-# 00 F ... : ... .. . ... ... : ... .. . ... ... : ... .. . ... ... : ... .. . ... ...
ROW 35 : ... .. . ... ... ... : ... .. 5 ... ... ... : ... .. . ... : ... .. C ... : ... .. . ... ... : ... .. . ... ... : ... .. . ... ... : ... .. 3 ... ...
ROW 36 : ... .. . ... ... ... : ... .. . ... ... ... : ... .. . ... : ... .. 6 ... : ... .. . ... ... : ... .. . ... ... : ... .. . ... ... : ... .. . ... ...
ROW 37 : ... .. . ... ... ... : ... .. . ... ... ... : ... .. . ... : ... .. 3 ... : ... .. . ... ... : ... .. . ... ... : ... .. . ... ... : ... .. 1 ... ...
ROW 38 : ... .. . ... ... ... : ... .. 4 ... ... ... : ... .. . ... : ... .. 2 ... : ... .. . ... ... : ... .. . ... ... : ... .. . ... ... : ... .. . ... ...
ROW 39 : ... .. . ... ... ... : ... .. 3 ... ... ... : --- .. . ... : ... .. 0 ... : ... .. . ... ... : ... .. . ... ... : ... .. . ... ... : ... .. . ... ...
ROW 3A : ... .. . P84 ... ... : G-3 00 6 ... ... ... : F#2 00 . ... : 1-# 00 F ... : ... .. . ... ... : ... .. . ... ... : ... .. . ... ... : ... .. . ... ...
ROW 3B : ... .. . P86 ... ... : ... .. 5 ... ... ... : ... .. . ... : ... .. C ... : ... .. . ... ... : ... .. . ... ... : ... .. . ... ... : ... .. . ... ...
ROW 3C : ... .. . P85 ... ... : ... .. . ... ... ... : ... .. . ... : ... .. 6 ... : ... .. . ... ... : ... .. . ... ... : ... .. . ... ... : ... .. . ... ...
ROW 3D : ... .. . P82 ... ... : ... .. 6 ... ... ... : ... .. . ... : ... .. 3 ... : ... .. . ... ... : ... .. . ... ... : ... .. . ... ... : ... .. . ... ...
ROW 3E : ... .. . P7E ... ... : ... .. 4 ... ... ... : ... .. . ... : ... .. 2 ... : ... .. . ... ... : ... .. . ... ... : ... .. . ... ... : ... .. 0 ... ...
ROW 3F : ... .. . P7B ... ... : ... .. . ... ... ... : --- .. . ... : ... .. 0 ... : ... .. . ... ... : ... .. . ... ... : ... .. . ... ... : ... .. . ... ...
ROW 40 : ... .. . P7A ... ... : B-3 00 7 ... ... ... : F-4 00 . ... : 9-# 00 F ... : ... .. . ... ... : B-4 01 8 ... ... : D-5 01 8 ... ... : ... .. D ... ...
ROW 41 : ... .. . P7C ... ... : ... .. 6 ... ... ... : G-3 00 . ... : ... .. C ... : ... .. . ... ... : ... .. 7 ... ... : ... .. 7 ... ... : ... .. B ... ...
ROW 42 : ... .. . P80 ... ... : ... .. . ... ... ... : C-3 00 . ... : ... .. 6 ... : ... .. . ... ... : ... .. 6 ... ... : ... .. 6 ... ... : ... .. 6 ... ...
ROW 43 : ... .. . P83 ... ... : ... .. . ... ... ... : B-2 00 . ... : ... .. 3 ... : ... .. . ... ... : ... .. 5 ... ... : ... .. 5 ... ... : ... .. . ... ...
ROW 44 : ... .. . P86 ... ... : ... .. 4 ... ... ... : F#2 00 . ... : ... .. 2 ... : ... .. . ... ... : ... .. . ... ... : ... .. . ... ... : ... .. . ... ...
ROW 45 : ... .. . ... ... ... : ... .. . ... ... ... : --- .. . ... : ... .. 0 ... : ... .. . ... ... : ... .. 4 ... ... : ... .. 4 ... ... : ... .. . ... ...
ROW 46 : ... .. . P82 ... ... : D-4 00 7 ... ... ... : F#3 00 . ... : ... .. F ... : ... .. . ... ... : ... .. . ... ... : ... .. . ... ... : ... .. . ... ...
ROW 47 : ... .. . P7F ... ... : ... .. 6 ... ... ... : ... .. . ... : ... .. C ... : ... .. . ... ... : ... .. . ... ... : ... .. . ... ... : ... .. . ... ...
ROW 48 : ... .. . P7B ... ... : ... .. . ... ... ... : ... .. . ... : ... .. 6 ... : ... .. . ... ... : ... .. . ... ... : ... .. . ... ... : ... .. . ... ...
ROW 49 : ... .. . P7A ... ... : ... .. . ... ... ... : ... .. . ... : ... .. 3 ... : ... .. . ... ... : ... .. . ... ... : ... .. . ... ... : ... .. . ... ...
ROW 4A : ... .. 1 P7C ... ... : ... .. 4 ... ... ... : ... .. . ... : ... .. 2 ... : ... .. . ... ... : ... .. . ... ... : ... .. . ... ... : ... .. . ... ...
ROW 4B : ... .. . P80 ... ... : ... .. . ... ... ... : --- .. . ... : ... .. 0 ... : ... .. . ... ... : ... .. . ... ... : ... .. . ... ... : ... .. . ... ...
ROW 4C : ... .. . P83 ... ... : B-3 00 7 ... ... ... : E-3 00 . ... : 7-# 00 F ... : ... .. . ... ... : ... .. . ... ... : ... .. . ... ... : ... .. . ... ...
ROW 4D : ... .. . P86 ... ... : ... .. 6 ... ... ... : ... .. . ... : ... .. C ... : ... .. . ... ... : ... .. . ... ... : ... .. . ... ... : ... .. 3 ... ...
ROW 4E : ... .. . ... ... ... : ... .. . ... ... ... : ... .. . ... : ... .. 6 ... : ... .. . ... ... : ... .. . ... ... : ... .. . ... ... : ... .. . ... ...
ROW 4F : ... .. . P83 ... ... : ... .. . ... ... ... : ... .. . ... : ... .. 3 ... : ... .. . ... ... : ... .. . ... ... : ... .. . ... ... : ... .. 1 ... ...
ROW 50 : ... .. 0 ... ... ... : ... .. 4 ... ... ... : ... .. . ... : ... .. 2 ... : ... .. . ... ... : ... .. . ... ... : ... .. . ... ... : ... .. . ... ...
ROW 51 : ... .. . ... ... ... : ... .. . ... ... ... : --- .. . ... : ... .. 0 ... : ... .. . ... ... : ... .. . ... ... : ... .. . ... ... : ... .. . ... ...
ROW 52 : ... .. . ... ... ... : D-4 00 8 ... ... ... : F#3 00 . ... : ... .. F ... : ... .. . ... ... : ... .. . ... ... : ... .. . ... ... : ... .. . ... ...
ROW 53 : ... .. . ... ... ... : ... .. 7 ... ... ... : ... .. . ... : ... .. C ... : ... .. . ... ... : ... .. . ... ... : ... .. . ... ... : ... .. . ... ...
ROW 54 : ... .. . ... ... ... : ... .. . ... ... ... : ... .. . ... : ... .. 6 ... : ... .. . ... ... : ... .. 2 ... ... : ... .. 2 ... ... : ... .. . ... ...
ROW 55 : ... .. . ... ... ... : ... .. 6 ... ... ... : ... .. . ... : ... .. 3 ... : ... .. . ... ... : ... .. . ... ... : ... .. . ... ... : ... .. . ... ...
ROW 56 : ... .. . ... ... ... : ... .. 5 ... ... ... : ... .. . ... : ... .. 2 ... : ... .. . ... ... : ... .. . ... ... : ... .. . ... ... : ... .. 0 ... ...
ROW 57 : ... .. . ... ... ... : ... .. 4 ... ... ... : --- .. . ... : ... .. 0 ... : ... .. . ... ... : ... .. . ... ... : ... .. . ... ... : ... .. . ... ...
ROW 58 : ... .. . ... ... ... : G#3 00 8 ... ... ... : F-4 00 . ... : 9-# 00 F ... : ... .. . ... ... : G#4 01 8 ... ... : D#5 01 8 ... ... : ... .. D ... ...
ROW 59 : ... .. . ... ... ... : ... .. 7 ... ... ... : G-3 00 . ... : ... .. C ... : ... .. . ... ... : ... .. 7 ... ... : ... .. 7 ... ... : ... .. B ... ...
ROW 5A : ... .. . ... ... ... : ... .. . ... ... ... : C-3 00 . ... : ... .. 6 ... : ... .. . ... ... : ... .. 6 ... ... : ... .. 6 ... ... : ... .. 6 ... ...
ROW 5B : ... .. . ... ... ... : ... .. 6 ... ... ... : B-2 00 . ... : ... .. 3 ... : ... .. . ... ... : ... .. 5 ... ... : ... .. 5 ... ... : ... .. . ... ...
ROW 5C : ... .. . ... ... ... : ... .. 5 ... ... ... : F#2 00 . ... : ... .. 2 ... : ... .. . ... ... : ... .. . ... ... : ... .. . ... ... : ... .. . ... ...
ROW 5D : ... .. . ... ... ... : ... .. 4 ... ... ... : ... .. . ... : ... .. 0 ... : ... .. . ... ... : ... .. 4 ... ... : ... .. 4 ... ... : ... .. . ... ...
ROW 5E : ... .. . ... ... ... : C-4 00 8 ... ... ... : F-2 00 . P84 : 2-# 00 F ... : ... .. . ... ... : ... .. . ... ... : ... .. . ... ... : ... .. . ... ...
ROW 5F : ... .. . ... ... ... : ... .. 7 ... ... ... : E-2 00 . P8A : ... .. C ... : ... .. . ... ... : ... .. . ... ... : ... .. . ... ... : ... .. . ... ...
ROW 60 : ... .. . ... ... ... : ... .. . ... ... ... : D#2 00 . P92 : ... .. 6 ... : ... .. . ... ... : ... .. . ... ... : ... .. . ... ... : ... .. . ... ...
ROW 61 : ... .. . ... ... ... : ... .. 6 ... ... ... : ... .. . P72 : ... .. 3 ... : ... .. . ... ... : ... .. . ... ... : ... .. . ... ... : ... .. . ... ...
ROW 62 : ... .. . ... ... ... : ... .. 5 ... ... ... : D-2 00 . P7D : ... .. 2 ... : ... .. . ... ... : ... .. . ... ... : ... .. . ... ... : ... .. . ... ...
ROW 63 : ... .. . ... ... ... : ... .. 4 ... ... ... : --- .. . ... : ... .. 0 ... : ... .. . ... ... : ... .. . ... ... : ... .. . ... ... : ... .. . ... ...
ROW 64 : G#2 00 C P80 ... ... : G#3 00 9 ... ... ... : E-1 00 . P80 : 1-# 00 F ... : ... .. . ... ... : ... .. . ... ... : ... .. . ... ... : ... .. . ... ...
ROW 65 : ... .. B ... ... ... : ... .. 8 ... ... ... : ... .. . ... : ... .. C ... : ... .. . ... ... : ... .. . ... ... : ... .. . ... ... : ... .. 3 ... ...
ROW 66 : ... .. A ... ... ... : ... .. . ... ... ... : ... .. . ... : ... .. 6 ... : ... .. . ... ... : ... .. 2 ... ... : ... .. 2 ... ... : ... .. . ... ...
ROW 67 : ... .. 8 ... ... ... : ... .. 7 ... ... ... : ... .. . ... : ... .. 3 ... : ... .. . ... ... : ... .. . ... ... : ... .. . ... ... : ... .. 1 ... ...
ROW 68 : ... .. 1 ... ... ... : ... .. 5 ... ... ... : ... .. . ... : ... .. 2 ... : ... .. . ... ... : ... .. . ... ... : ... .. . ... ... : ... .. . ... ...
ROW 69 : ... .. . ... ... ... : ... .. . ... ... ... : --- .. . ... : ... .. 0 ... : ... .. . ... ... : ... .. . ... ... : ... .. . ... ... : ... .. . ... ...
ROW 6A : ... .. C ... ... ... : C-4 00 9 ... ... ... : F#1 00 . ... : C-# 00 F ... : ... .. . ... ... : D#4 01 8 ... ... : C-5 01 8 ... ... : ... .. . ... ...
ROW 6B : ... .. B ... ... ... : ... .. 8 ... ... ... : ... .. . ... : ... .. C ... : ... .. . ... ... : ... .. 7 ... ... : ... .. 7 ... ... : ... .. . ... ...
ROW 6C : ... .. A ... ... ... : ... .. . ... ... ... : ... .. . ... : ... .. 6 ... : ... .. . ... ... : ... .. 6 ... ... : ... .. 6 ... ... : ... .. . ... ...
ROW 6D : ... .. 8 ... ... ... : ... .. 7 ... ... ... : ... .. . ... : ... .. 3 ... : ... .. . ... ... : --- .. . ... ... : --- .. . ... ... : ... .. . ... ...
ROW 6E : ... .. 1 ... ... ... : ... .. 5 ... ... ... : ... .. . ... : ... .. 2 ... : ... .. . ... ... : ... .. . ... ... : ... .. . ... ... : ... .. 0 ... ...
ROW 6F : ... .. . ... ... ... : ... .. . ... ... ... : --- .. . ... : ... .. 0 ... : ... .. . ... ... : ... .. . ... ... : ... .. . ... ... : ... .. . ... ...
ROW 70 : D#3 00 C ... ... ... : E-4 00 9 ... ... ... : F-3 00 . ... : 7-# 00 F ... : ... .. . ... ... : D#4 01 8 ... ... : C-5 01 8 ... ... : ... .. D ... ...
ROW 71 : ... .. B ... ... ... : ... .. 8 ... ... ... : G-2 00 . ... : ... .. C ... : ... .. . ... ... : ... .. 7 ... ... : ... .. 7 ... ... : ... .. B ... ...
ROW 72 : ... .. A ... ... ... : ... .. . ... ... ... : C-2 00 . ... : ... .. 6 ... : ... .. . ... ... : ... .. 6 ... ... : ... .. 6 ... ... : ... .. 6 ... ...
ROW 73 : ... .. 8 ... ... ... : ... .. 7 ... ... ... : B-1 00 . ... : ... .. 3 ... : ... .. . ... ... : ... .. 5 ... ... : ... .. 5 ... ... : ... .. . ... ...
ROW 74 : ... .. . ... ... ... : ... .. 5 ... ... ... : F#1 00 . ... : ... .. 2 ... : ... .. . ... ... : ... .. . ... ... : ... .. . ... ... : ... .. . ... ...
ROW 75 : ... .. . ... ... ... : ... .. . ... ... ... : --- .. . ... : ... .. 0 ... : ... .. . ... ... : ... .. 4 ... ... : ... .. 4 ... ... : ... .. . ... ...
ROW 76 : ... .. . ... ... ... : D#4 00 9 ... ... ... : F#2 00 . ... : 1-# 00 F ... : ... .. . ... ... : ... .. . ... ... : ... .. . ... ... : ... .. . ... ...
ROW 77 : ... .. . ... ... ... : ... .. 8 ... ... ... : ... .. . ... : ... .. C ... : ... .. . ... ... : ... .. . ... ... : ... .. . ... ... : ... .. . ... ...
ROW 78 : ... .. . ... ... ... : ... .. . ... ... ... : ... .. . ... : ... .. 6 ... : ... .. . ... ... : ... .. . ... ... : ... .. . ... ... : ... .. . ... ...
ROW 79 : ... .. . ... ... ... : ... .. . ... ... ... : ... .. . ... : ... .. 3 ... : ... .. . ... ... : ... .. . ... ... : ... .. . ... ... : ... .. . ... ...
ROW 7A : ... .. 1 ... ... ... : ... .. 6 ... ... ... : ... .. . ... : ... .. 2 ... : ... .. . ... ... : ... .. . ... ... : ... .. . ... ... : ... .. . ... ...
ROW 7B : ... .. . ... ... ... : ... .. 5 ... ... ... : --- .. . ... : ... .. 0 ... : ... .. . ... ... : ... .. . ... ... : ... .. . ... ... : ... .. . ... ...
ROW 7C : G#2 00 C ... ... ... : C-4 00 A ... ... ... : E-2 00 . ... : C-# 00 F ... : ... .. . ... ... : ... .. . ... ... : ... .. . ... ... : ... .. . ... ...
ROW 7D : ... .. B ... ... ... : ... .. 8 ... ... ... : ... .. . ... : ... .. C ... : ... .. . ... ... : ... .. . ... ... : ... .. . ... ... : ... .. 3 ... ...
ROW 7E : ... .. A ... ... ... : ... .. . ... ... ... : ... .. . ... : ... .. 6 ... : ... .. . ... ... : ... .. . ... ... : ... .. . ... ... : ... .. . ... ...
ROW 7F : ... .. 8 ... ... ... : ... .. . ... ... ... : ... .. . ... : ... .. 3 ... : ... .. . ... ... : ... .. . ... ... : ... .. . ... ... : ... .. 1 ... ...
ROW 80 : ... .. 1 ... ... ... : ... .. 6 ... ... ... : ... .. . ... : ... .. 2 ... : ... .. . ... ... : ... .. . ... ... : ... .. . ... ... : ... .. . ... ...
ROW 81 : ... .. . ... ... ... : ... .. 5 ... ... ... : --- .. . ... : ... .. 0 ... : ... .. . ... ... : ... .. . ... ... : ... .. . ... ... : ... .. . ... ...
ROW 82 : D#3 00 C ... ... ... : G#3 00 A ... ... ... : F#2 00 . ... : 7-# 00 F ... : ... .. . ... ... : ... .. . ... ... : ... .. . ... ... : ... .. . ... ...
ROW 83 : ... .. B ... ... ... : ... .. 8 ... ... ... : ... .. . ... : ... .. C ... : ... .. . ... ... : ... .. . ... ... : ... .. . ... ... : ... .. . ... ...
ROW 84 : ... .. A ... ... ... : ... .. . ... ... ... : ... .. . ... : ... .. 6 ... : ... .. . ... ... : ... .. . ... ... : ... .. . ... ... : ... .. . ... ...
ROW 85 : ... .. 8 ... ... ... : ... .. . ... ... ... : ... .. . ... : ... .. 3 ... : ... .. . ... ... : --- .. . ... ... : --- .. . ... ... : ... .. . ... ...
ROW 86 : ... .. 1 ... ... ... : ... .. 6 ... ... ... : ... .. . ... : ... .. 2 ... : ... .. . ... ... : ... .. . ... ... : ... .. . ... ... : ... .. 0 ... ...
ROW 87 : ... .. . ... ... ... : ... .. 5 ... ... ... : --- .. . ... : ... .. 0 ... : ... .. . ... ... : ... .. . ... ... : ... .. . ... ... : ... .. . ... ...
ROW 88 : E-3 00 C ... ... ... : ... .. A ... ... ... : F-5 00 . ... : 1-# 00 F ... : ... .. . ... ... : C-4 01 8 ... ... : G#4 01 8 ... ... : ... .. D ... ...
ROW 89 : ... .. B ... ... ... : ... .. 8 ... ... ... : G-4 00 . ... : ... .. C ... : ... .. . ... ... : ... .. 7 ... ... : ... .. 7 ... ... : ... .. B ... ...
ROW 8A : ... .. A ... ... ... : ... .. . ... ... ... : C-4 00 . ... : ... .. 6 ... : ... .. . ... ... : ... .. 6 ... ... : ... .. 6 ... ... : ... .. 6 ... ...
ROW 8B : ... .. 8 ... ... ... : ... .. . ... ... ... : B-3 00 . ... : ... .. 3 ... : ... .. . ... ... : ... .. 5 ... ... : ... .. 5 ... ... : ... .. . ... ...
ROW 8C : ... .. 1 ... ... ... : ... .. 6 ... ... ... : F#3 00 . ... : ... .. 2 ... : ... .. . ... ... : ... .. . ... ... : ... .. . ... ... : ... .. . ... ...
ROW 8D : ... .. . ... ... ... : ... .. . ... ... ... : ... .. . ... : ... .. 0 ... : ... .. . ... ... : ... .. 4 ... ... : ... .. 4 ... ... : ... .. . ... ...
ROW 8E : ... .. . ... ... ... : C-4 00 B ... ... ... : E-3 00 . P85 : B-# 00 F ... : ... .. . ... ... : ... .. . ... ... : ... .. . ... ... : ... .. . ... ...
ROW 8F : ... .. . ... ... ... : ... .. 9 ... ... ... : D#3 00 . P7A : ... .. C ... : ... .. . ... ... : ... .. . ... ... : ... .. . ... ... : ... .. . ... ...
ROW 90 : D#3 00 C ... ... ... : ... .. . ... ... ... : C#3 00 . P86 : ... .. 6 ... : ... .. . ... ... : ... .. . ... ... : ... .. . ... ... : ... .. . ... ...
ROW 91 : ... .. B ... ... ... : ... .. 8 ... ... ... : C-3 00 . P7E : ... .. 3 ... : ... .. . ... ... : ... .. . ... ... : ... .. . ... ... : ... .. . ... ...
ROW 92 : ... .. A ... ... ... : ... .. 6 ... ... ... : B-2 00 . P77 : ... .. 2 ... : ... .. . ... ... : ... .. . ... ... : ... .. . ... ... : ... .. . ... ...
ROW 93 : ... .. 8 ... ... ... : ... .. . ... ... ... : --- .. . ... : ... .. 0 ... : ... .. . ... ... : ... .. . ... ... : ... .. . ... ... : ... .. . ... ...
ROW 94 : ... .. . ... ... ... : G#3 00 B ... ... ... : E-2 00 . P80 : 7-# 00 F ... : ... .. . ... ... : ... .. . ... ... : ... .. . ... ... : ... .. . ... ...
ROW 95 : ... .. 1 ... ... ... : ... .. 9 ... ... ... : ... .. . ... : ... .. C ... : ... .. . ... ... : ... .. . ... ... : ... .. . ... ... : ... .. 3 ... ...
ROW 96 : ... .. . ... ... ... : ... .. . ... ... ... : ... .. . ... : ... .. 6 ... : ... .. . ... ... : ... .. . ... ... : ... .. . ... ... : ... .. . ... ...
ROW 97 : ... .. . ... ... ... : ... .. 8 ... ... ... : ... .. . ... : ... .. 3 ... : ... .. . ... ... : --- .. . ... ... : --- .. . ... ... : ... .. 1 ... ...
ROW 98 : ... .. C ... ... ... : ... .. 6 ... ... ... : ... .. . ... : ... .. 2 ... : ... .. . ... ... : ... .. . ... ... : ... .. . ... ... : ... .. . ... ...
ROW 99 : ... .. B ... ... ... : ... .. . ... ... ... : --- .. . ... : ... .. 0 ... : ... .. . ... ... : ... .. . ... ... : ... .. . ... ... : ... .. . ... ...
ROW 9A : ... .. A ... ... ... : C-4 00 B ... ... ... : F#2 00 . ... : 1-# 00 F ... : ... .. . ... ... : G#3 01 8 ... ... : D#4 01 8 ... ... : ... .. . ... ...
ROW 9B : ... .. 8 ... ... ... : ... .. 9 ... ... ... : ... .. . ... : ... .. C ... : ... .. . ... ... : ... .. 7 ... ... : ... .. 7 ... ... : ... .. . ... ...
ROW 9C : ... .. . ... ... ... : ... .. . ... ... ... : ... .. . ... : ... .. 6 ... : ... .. . ... ... : ... .. 6 ... ... : ... .. 6 ... ... : ... .. . ... ...
ROW 9D : ... .. . ... ... ... : ... .. 8 ... ... ... : ... .. . ... : ... .. 3 ... : ... .. . ... ... : --- .. . P82 ... : --- .. . ... ... : ... .. . ... ...
ROW 9E : ... .. . ... ... ... : ... .. 6 ... ... ... : ... .. . ... : ... .. 2 ... : ... .. . ... ... : ... .. . ... ... : ... .. . ... ... : ... .. 0 ... ...
ROW 9F : ... .. . ... ... ... : ... .. . ... ... ... : --- .. . ... : ... .. 0 ... : ... .. . ... ... : ... .. . ... ... : ... .. . ... ... : ... .. . ... ...
ROW A0 : ... .. . ... ... ... : E-4 00 C ... ... ... : F-4 00 . ... : 9-# 00 F ... : ... .. . ... ... : G#3 01 8 P80 ... : D#4 01 8 ... ... : ... .. D ... ...
ROW A1 : ... .. . ... ... ... : ... .. A ... ... ... : G-3 00 . ... : ... .. C ... : ... .. . ... ... : ... .. 7 ... ... : ... .. 7 ... ... : ... .. B ... ...
ROW A2 : ... .. . ... ... ... : ... .. . ... ... ... : C-3 00 . ... : ... .. 6 ... : ... .. . ... ... : ... .. 6 ... ... : ... .. 6 ... ... : ... .. 6 ... ...
ROW A3 : ... .. . ... ... ... : ... .. 9 ... ... ... : B-2 00 . ... : ... .. 3 ... : ... .. . ... ... : ... .. 5 ... ... : ... .. 5 ... ... : ... .. . ... ...
ROW A4 : ... .. . ... ... ... : ... .. 7 ... ... ... : F#2 00 . ... : ... .. 2 ... : ... .. . ... ... : ... .. . ... ... : ... .. . ... ... : ... .. . ... ...
ROW A5 : ... .. . ... ... ... : ... .. 6 ... ... ... : --- .. . ... : ... .. 0 ... : ... .. . ... ... : ... .. 4 ... ... : ... .. 4 ... ... : ... .. . ... ...
ROW A6 : ... .. . ... ... ... : D#4 00 C ... ... ... : F#3 00 . ... : ... .. F ... : ... .. . ... ... : ... .. . ... ... : ... .. . ... ... : ... .. . ... ...
ROW A7 : ... .. . ... ... ... : ... .. A ... ... ... : ... .. . ... : ... .. C ... : ... .. . ... ... : ... .. . ... ... : ... .. . ... ... : ... .. . ... ...
ROW A8 : ... .. . ... ... ... : ... .. . ... ... ... : ... .. . ... : ... .. 6 ... : ... .. . ... ... : ... .. . ... ... : ... .. . ... ... : ... .. . ... ...
ROW A9 : ... .. . ... ... ... : ... .. 9 ... ... ... : ... .. . ... : ... .. 3 ... : ... .. . ... ... : ... .. . ... ... : ... .. . ... ... : ... .. . ... ...
ROW AA : ... .. . ... ... ... : ... .. 7 ... ... ... : ... .. . ... : ... .. 2 ... : ... .. . ... ... : ... .. . ... ... : ... .. . ... ... : ... .. . ... ...
ROW AB : ... .. . ... ... ... : ... .. 6 ... ... ... : --- .. . ... : ... .. 0 ... : ... .. . ... ... : ... .. . ... ... : ... .. . ... ... : ... .. . ... ...
ROW AC : ... .. . ... ... ... : C-4 00 C ... ... ... : E-3 00 . ... : 7-# 00 F ... : ... .. . ... ... : ... .. . ... ... : ... .. . ... ... : ... .. . ... ...
ROW AD : ... .. . ... ... ... : ... .. A ... ... ... : ... .. . ... : ... .. C ... : ... .. . ... ... : ... .. . ... ... : ... .. . ... ... : ... .. 3 ... ...
ROW AE : ... .. . ... ... ... : ... .. . ... ... ... : ... .. . ... : ... .. 6 ... : ... .. . ... ... : ... .. . ... ... : ... .. . ... ... : ... .. . ... ...
ROW AF : ... .. . P84 ... ... : ... .. 9 ... ... ... : ... .. . ... : ... .. 3 ... : ... .. . ... ... : ... .. . ... ... : ... .. . ... ... : ... .. 1 ... ...
ROW B0 : ... .. . P86 ... ... : ... .. 7 ... ... ... : ... .. . ... : ... .. 2 ... : ... .. . ... ... : ... .. . ... ... : ... .. . ... ... : ... .. . ... ...
ROW B1 : ... .. . P85 ... ... : ... .. 6 ... ... ... : --- .. . ... : ... .. 0 ... : ... .. . ... ... : ... .. . ... ... : ... .. . ... ... : ... .. . ... ...
ROW B2 : ... .. . P82 ... ... : G#3 00 D ... ... ... : F#3 00 . ... : ... .. F ... : ... .. . ... ... : --- .. . P82 ... : --- .. . ... ... : ... .. . ... ...
ROW B3 : ... .. . P7E ... ... : ... .. B ... ... ... : ... .. . ... : ... .. C ... : ... .. . ... ... : ... .. . ... ... : ... .. . ... ... : ... .. . ... ...
ROW B4 : ... .. . P7B ... ... : ... .. . ... ... ... : ... .. . ... : ... .. 6 ... : ... .. . ... ... : ... .. . ... ... : ... .. . ... ... : ... .. . ... ...
ROW B5 : ... .. . P7A ... ... : ... .. A ... ... ... : ... .. . ... : ... .. 3 ... : ... .. . ... ... : ... .. . ... ... : ... .. . ... ... : ... .. . ... ...
ROW B6 : ... .. . P7C ... ... : ... .. 8 ... ... ... : ... .. . ... : ... .. 2 ... : ... .. . ... ... : ... .. . ... ... : ... .. . ... ... : ... .. 0 ... ...
ROW B7 : ... .. . P80 ... ... : ... .. 7 ... ... ... : --- .. . ... : ... .. 0 ... : ... .. . ... ... : ... .. . ... ... : ... .. . ... ... : ... .. . ... ...
ROW B8 : ... .. . P83 ... ... : G-3 00 D ... ... ... : F#4 00 . ... : ... .. F ... : ... .. . ... ... : B-3 01 8 P80 ... : F#4 01 8 ... ... : ... .. . ... ...
ROW B9 : ... .. 1 P86 ... ... : ... .. B ... ... ... : G#3 00 . ... : ... .. C ... : ... .. . ... ... : ... .. 7 ... ... : ... .. 7 ... ... : ... .. . ... ...
ROW BA : ... .. . ... ... ... : ... .. . ... ... ... : C#3 00 . ... : ... .. 6 ... : ... .. . ... ... : ... .. 6 ... ... : ... .. 6 ... ... : ... .. . ... ...
ROW BB : ... .. . P82 ... ... : ... .. A ... ... ... : C-3 00 . ... : 9-# 00 D ... : ... .. . ... ... : ... .. 5 ... ... : ... .. 5 ... ... : ... .. . ... ...
ROW BC : ... .. . P7F ... ... : ... .. 8 ... ... ... : G-2 00 . ... : ... .. B ... : ... .. . ... ... : ... .. . ... ... : ... .. . ... ... : ... .. . ... ...
ROW BD : ... .. . P7B ... ... : ... .. 0 ... ... ... : ... .. . ... : ... .. . ... : ... .. . ... ... : --- .. . ... ... : --- .. . ... ... : ... .. . ... ...
ROW BE : ... .. . P7A ... ... : ... .. . ... ... ... : ... .. . ... : ... .. A ... : ... .. . ... ... : ... .. . ... ... : ... .. . ... ... : ... .. . ... ...
ROW BF : ... .. 0 ... ... ... : ... .. . ... ... ... : ... .. . ... : ... .. 8 ... : ... .. . ... ... : ... .. . ... ... : ... .. . ... ... : ... .. . ... ...
ROW C0 : ... .. . ... ... ... : G-3 00 D P80 ... ... : F#4 00 . ... : ... .. 7 ... : ... .. . ... ... : B-3 01 8 ... ... : F#4 01 8 ... ... : ... .. . ... ...
ROW C1 : ... .. . ... ... ... : ... .. B ... ... ... : G#3 00 . ... : ... .. 6 ... : ... .. . ... ... : ... .. 7 ... ... : ... .. 7 ... ... : ... .. . ... ...
ROW C2 : ... .. . ... ... ... : ... .. . ... ... ... : C#3 00 . ... : ... .. . ... : ... .. . ... ... : ... .. 6 ... ... : ... .. 6 ... ... : ... .. . ... ...
ROW C3 : ... .. . ... ... ... : ... .. A ... ... ... : C-3 00 . ... : ... .. 5 ... : ... .. . ... ... : ... .. 5 ... ... : ... .. 5 ... ... : ... .. . ... ...
ROW C4 : F#3 00 C P80 ... ... : ... .. 0 ... ... ... : G-2 00 . ... : 7-# 00 F ... : ... .. . ... ... : --- .. . ... ... : --- .. . ... ... : ... .. . ... ...
ROW C5 : ... .. B ... ... ... : ... .. . ... ... ... : ... .. . ... : ... .. C ... : ... .. . ... ... : ... .. . ... ... : ... .. . ... ... : ... .. . ... ...
ROW C6 : ... .. A ... ... ... : ... .. . ... ... ... : ... .. . ... : ... .. 6 ... : ... .. . ... ... : ... .. . ... ... : ... .. . ... ... : ... .. . ... ...
ROW C7 : ... .. 0 ... ... ... : ... .. . ... ... ... : ... .. . ... : ... .. 3 ... : ... .. . ... ... : ... .. . ... ... : ... .. . ... ... : ... .. . ... ...
ROW C8 : ... .. . ... ... ... : G-3 00 D P80 ... ... : F#4 00 . ... : ... .. F ... : ... .. . ... ... : B-3 01 8 ... ... : F#4 01 8 ... ... : ... .. . ... ...
ROW C9 : ... .. . ... ... ... : ... .. B ... ... ... : G#3 00 . ... : ... .. C ... : ... .. . ... ... : ... .. 7 ... ... : ... .. 7 ... ... : ... .. . ... ...
ROW CA : F#3 00 C P80 ... ... : ... .. . ... ... ... : C#3 00 . ... : ... .. 6 ... : ... .. . ... ... : ... .. 6 ... ... : ... .. 6 ... ... : ... .. . ... ...
ROW CB : ... .. B ... ... ... : ... .. A ... ... ... : C-3 00 . ... : ... .. 3 ... : ... .. . ... ... : ... .. 5 ... ... : ... .. 5 ... ... : ... .. . ... ...
ROW CC : ... .. A ... ... ... : ... .. 8 ... ... ... : G-2 00 . ... : ... .. F ... : ... .. . ... ... : ... .. . ... ... : ... .. . ... ... : ... .. . ... ...
ROW CD : ... .. 0 ... ... ... : ... .. 0 ... ... ... : ... .. . ... : ... .. C ... : ... .. . ... ... : --- .. . ... ... : --- .. . ... ... : ... .. . ... ...
ROW CE : ... .. . ... ... ... : ... .. . ... ... ... : ... .. . ... : ... .. 6 ... : ... .. . ... ... : ... .. . ... ... : ... .. . ... ... : ... .. . ... ...
ROW CF : ... .. . ... ... ... : ... .. . ... ... ... : ... .. . ... : ... .. 3 ... : ... .. . ... ... : ... .. . ... ... : ... .. . ... ... : ... .. . ... ...
ROW D0 : C#4 00 C P80 ... ... : B-2 00 D P80 ... ... : F#3 00 . ... : ... .. F ... : ... .. . ... ... : D-3 01 8 ... ... : E-3 01 8 ... ... : ... .. . ... ...
ROW D1 : ... .. B ... ... ... : ... .. B ... ... ... : G#2 00 . ... : ... .. C ... : ... .. . ... ... : ... .. 7 ... ... : ... .. 7 ... ... : ... .. . ... ...
ROW D2 : ... .. A ... ... ... : ... .. . ... ... ... : C#2 00 . ... : ... .. 6 ... : ... .. . ... ... : ... .. 6 ... ... : ... .. 6 ... ... : ... .. . ... ...
ROW D3 : ... .. 8 ... ... ... : ... .. A ... ... ... : C-2 00 . ... : 9-# 00 D ... : ... .. . ... ... : ... .. 5 ... ... : ... .. 5 ... ... : ... .. . ... ...
ROW D4 : ... .. . ... ... ... : ... .. 8 ... ... ... : G-1 00 . ... : ... .. B ... : ... .. . ... ... : ... .. . ... ... : ... .. . ... ... : ... .. . ... ...
ROW D5 : ... .. . ... ... ... : ... .. 0 ... ... ... : ... .. . ... : ... .. . ... : ... .. . ... ... : --- .. . P82 ... : --- .. . P82 ... : ... .. . ... ...
ROW D6 : ... .. . ... ... ... : ... .. . ... ... ... : ... .. . ... : ... .. A ... : ... .. . ... ... : ... .. . ... ... : ... .. . ... ... : ... .. . ... ...
ROW D7 : ... .. . ... ... ... : ... .. . ... ... ... : ... .. . ... : ... .. 8 ... : ... .. . ... ... : ... .. . ... ... : ... .. . ... ... : ... .. . ... ...
ROW D8 : ... .. . ... ... ... : B-2 00 A P80 ... ... : ... .. . ... : ... .. 7 ... : ... .. . ... ... : D-3 01 8 P80 ... : E-3 01 8 P80 ... : ... .. . ... ...
ROW D9 : ... .. . ... ... ... : ... .. 8 ... ... ... : ... .. . ... : ... .. 6 ... : ... .. . ... ... : ... .. 7 ... ... : ... .. 7 ... ... : ... .. . ... ...
ROW DA : ... .. 1 ... ... ... : ... .. . ... ... ... : ... .. . ... : ... .. . ... : ... .. . ... ... : ... .. 6 ... ... : ... .. 6 ... ... : ... .. . ... ...
ROW DB : ... .. . ... ... ... : ... .. . ... ... ... : ... .. . ... : ... .. 5 ... : ... .. . ... ... : ... .. 5 ... ... : ... .. 5 ... ... : ... .. . ... ...
ROW DC : F#3 00 C ... ... ... : F#4 00 C ... ... ... : ... .. . PA0 : 7-# 00 F ... : ... .. . ... ... : --- .. . P82 ... : --- .. . P82 ... : ... .. . ... ...
ROW DD : ... .. B ... ... ... : ... .. B ... ... ... : G#1 00 . P80 : ... .. C ... : ... .. . ... ... : ... .. . ... ... : ... .. . ... ... : ... .. . ... ...
ROW DE : ... .. A ... ... ... : ... .. A ... ... ... : A-1 00 . P64 : ... .. 6 ... : ... .. . ... ... : ... .. . ... ... : ... .. . ... ... : ... .. . ... ...
ROW DF : ... .. 8 ... ... ... : ... .. 0 ... ... ... : ... .. . P84 : ... .. 3 ... : ... .. . ... ... : ... .. . ... ... : ... .. . ... ... : ... .. . ... ...
ROW E0 : ... .. 1 ... ... ... : ... .. . ... ... ... : A#1 00 . P6B : ... .. F ... : ... .. . ... ... : D-3 01 8 P80 ... : E-3 01 8 P80 ... : ... .. . ... ...
ROW E1 : ... .. . ... ... ... : ... .. . ... ... ... : ... .. . P8B : ... .. C ... : ... .. . ... ... : ... .. 7 ... ... : ... .. 7 ... ... : ... .. . ... ...
ROW E2 : C#4 00 C ... ... ... : F#4 00 C P80 ... ... : B-1 00 . P75 : ... .. 6 ... : ... .. . ... ... : ... .. 6 ... ... : ... .. 6 ... ... : ... .. . ... ...
ROW E3 : ... .. B ... ... ... : ... .. B ... ... ... : ... .. . P95 : ... .. 3 ... : ... .. . ... ... : ... .. 5 ... ... : ... .. 5 ... ... : ... .. . ... ...
ROW E4 : ... .. A ... ... ... : ... .. A ... ... ... : C-2 00 . P82 : ... .. F ... : ... .. . ... ... : ... .. . ... ... : ... .. . ... ... : ... .. . ... ...
ROW E5 : ... .. 8 ... ... ... : ... .. 0 ... ... ... : C#2 00 . P72 : ... .. C ... : ... .. . ... ... : --- .. . P82 ... : --- .. . P82 ... : ... .. . ... ...
ROW E6 : ... .. 1 ... ... ... : ... .. . ... ... ... : ... .. . P92 : ... .. 6 ... : ... .. . ... ... : ... .. . ... ... : ... .. . ... ... : ... .. . ... ...
ROW E7 : ... .. . ... ... ... : ... .. . ... ... ... : D-2 00 . P85 : ... .. 3 ... : ... .. . ... ... : ... .. . ... ... : ... .. . ... ... : ... .. . ... ...
ROW E8 : D-4 00 C ... ... ... : B-4 00 C P80 ... ... : F#4 00 . P80 : ... .. F ... : ... .. . ... ... : B-3 01 8 P80 ... : F#4 01 8 P80 ... : ... .. . ... ...
ROW E9 : ... .. B ... ... ... : ... .. B ... ... ... : G#3 00 . ... : ... .. C ... : ... .. . ... ... : ... .. 7 ... ... : ... .. 7 ... ... : ... .. . ... ...
ROW EA : ... .. A ... ... ... : ... .. A ... ... ... : C#3 00 . ... : ... .. 6 ... : ... .. . ... ... : ... .. 6 ... ... : ... .. 6 ... ... : ... .. . ... ...
ROW EB : ... .. 8 ... ... ... : ... .. 8 ... ... ... : C-3 00 . ... : ... .. 3 ... : ... .. . ... ... : ... .. 5 ... ... : ... .. 5 ... ... : ... .. . ... ...
ROW EC : ... .. . ... ... ... : ... .. . ... ... ... : G-2 00 . ... : ... .. 2 ... : ... .. . ... ... : ... .. . ... ... : ... .. . ... ... : ... .. . ... ...
ROW ED : ... .. . ... ... ... : ... .. . ... ... ... : ... .. . ... : ... .. 0 ... : ... .. . ... ... : --- .. . ... ... : --- .. . ... ... : ... .. . ... ...
ROW EE : ... .. . ... ... ... : ... .. . ... ... ... : ... .. . ... : ... .. . ... : ... .. . ... ... : ... .. . ... ... : ... .. . ... ... : ... .. . ... ...
ROW EF : ... .. . ... ... ... : ... .. . ... ... ... : ... .. . ... : ... .. . ... : ... .. . ... ... : ... .. . ... ... : ... .. . ... ... : ... .. . ... ...
ROW F0 : ... .. . ... ... ... : ... .. . ... ... ... : F#4 00 . ... : ... .. F ... : ... .. . ... ... : B-3 01 8 ... ... : F#4 01 8 ... ... : ... .. . ... ...
ROW F1 : ... .. . ... ... ... : ... .. . ... ... ... : G#3 00 . ... : ... .. C ... : ... .. . ... ... : ... .. 7 ... ... : ... .. 7 ... ... : ... .. . ... ...
ROW F2 : ... .. . ... ... ... : ... .. . ... ... ... : C#3 00 . ... : ... .. 6 ... : ... .. . ... ... : ... .. 6 ... ... : ... .. 6 ... ... : ... .. . ... ...
ROW F3 : ... .. . ... ... ... : ... .. . ... ... ... : C-3 00 . ... : ... .. 3 ... : ... .. . ... ... : ... .. 5 ... ... : ... .. 5 ... ... : ... .. . ... ...
ROW F4 : ... .. . ... ... ... : ... .. . ... ... ... : G-2 00 . ... : ... .. 2 ... : ... .. . ... ... : --- .. . ... ... : --- .. . ... ... : ... .. . ... ...
ROW F5 : ... .. . ... ... ... : ... .. . ... ... ... : ... .. . ... : ... .. 0 ... : ... .. . ... ... : ... .. . ... ... : ... .. . ... ... : ... .. . ... ...
ROW F6 : ... .. . ... ... ... : ... .. . ... ... ... : ... .. . ... : ... .. . ... : ... .. . ... ... : ... .. . ... ... : ... .. . ... ... : ... .. . ... ...
ROW F7 : ... .. . ... ... ... : ... .. . ... ... ... : ... .. . ... : ... .. . ... : ... .. . ... ... : ... .. . ... ... : ... .. . ... ... : ... .. . ... ...
ROW F8 : ... .. . ... ... ... : ... .. . ... ... ... : F#4 00 . ... : ... .. F ... : ... .. . ... ... : B-3 01 8 ... ... : F#4 01 8 ... ... : ... .. . ... ...
ROW F9 : ... .. . ... ... ... : ... .. . ... ... ... : G#3 00 . ... : ... .. C ... : ... .. . ... ... : ... .. 7 ... ... : ... .. 7 ... ... : ... .. . ... ...
ROW FA : ... .. . ... ... ... : ... .. . ... ... ... : C#3 00 . ... : ... .. 6 ... : ... .. . ... ... : ... .. 6 ... ... : ... .. 6 ... ... : ... .. . ... ...
ROW FB : ... .. . ... ... ... : ... .. . ... ... ... : C-3 00 . ... : ... .. 3 ... : ... .. . ... ... : ... .. 5 ... ... : ... .. 5 ... ... : ... .. . ... ...
ROW FC : ... .. . ... ... ... : ... .. . ... ... ... : G-2 00 . ... : ... .. 2 ... : ... .. . ... ... : ... .. . ... ... : ... .. . ... ... : ... .. . ... ...
ROW FD : ... .. . ... ... ... : ... .. . ... ... ... : ... .. . ... : ... .. 0 ... : ... .. . ... ... : --- .. . ... ... : --- .. . ... ... : ... .. . ... ...
ROW FE : ... .. . ... ... ... : ... .. . ... ... ... : ... .. . ... : ... .. . ... : ... .. . ... ... : ... .. . ... ... : ... .. . ... ... : ... .. . ... ...
ROW FF : ... .. . ... ... ... : ... .. . ... ... ... : ... .. . ... : ... .. . ... : ... .. . ... ... : ... .. . ... ... : ... .. . ... ... : ... .. . ... ...

PATTERN 12
ROW 00 : D#4 00 8 P7C ... ... : C-5 00 8 P7E ... ... : D#4 00 . ... : ... .. F ... : ... .. . ... ... : G-4 01 8 ... ... : G-3 01 8 ... ... : ... .. . ... ...
ROW 01 : ... .. . P7F ... ... : ... .. . P80 ... ... : F-3 00 . ... : ... .. C ... : ... .. . ... ... : ... .. 7 ... ... : ... .. 7 ... ... : ... .. . ... ...
ROW 02 : ... .. . P7E ... ... : ... .. . P7F ... ... : A#2 00 . ... : ... .. 6 ... : ... .. . ... ... : ... .. 6 ... ... : ... .. 6 ... ... : ... .. . ... ...
ROW 03 : D-4 00 8 P82 ... ... : B-4 00 8 P82 ... ... : A-2 00 . ... : ... .. 3 ... : ... .. . ... ... : F#4 01 8 ... ... : F#3 01 8 ... ... : ... .. . ... ...
ROW 04 : ... .. . P7E ... ... : ... .. . P7E ... ... : E-2 00 . ... : ... .. 2 ... : ... .. . ... ... : ... .. 7 ... ... : ... .. 7 ... ... : ... .. . ... ...
ROW 05 : C#4 00 8 P84 ... ... : A#4 00 8 P82 ... ... : ... .. . ... : ... .. 0 ... : ... .. . ... ... : ... .. 6 ... ... : ... .. 6 ... ... : ... .. . ... ...
ROW 06 : ... .. . P83 ... ... : ... .. . P81 ... ... : ... .. . ... : ... .. . ... : ... .. . ... ... : E-4 01 8 ... ... : E-3 01 8 ... ... : ... .. . ... ...
ROW 07 : ... .. . P86 ... ... : ... .. . P83 ... ... : ... .. . ... : ... .. . ... : ... .. . ... ... : ... .. 7 ... ... : ... .. 7 ... ... : ... .. . ... ...
ROW 08 : D-4 00 8 P80 ... ... : B-4 00 8 P80 ... ... : F-4 00 . ... : ... .. F ... : ... .. . ... ... : ... .. 6 ... ... : ... .. 6 ... ... : ... .. . ... ...
ROW 09 : ... .. . P85 ... ... : ... .. . P83 ... ... : G-3 00 . ... : ... .. C ... : ... .. . ... ... : D-4 01 8 ... ... : D-3 01 8 ... ... : ... .. . ... ...
ROW 0A : D#4 00 8 P7F ... ... : C-5 00 8 P80 ... ... : C-3 00 . ... : ... .. 6 ... : ... .. . ... ... : ... .. 7 ... ... : ... .. 7 ... ... : ... .. . ... ...
ROW 0B : ... .. . P7E ... ... : ... .. . ... ... ... : B-2 00 . ... : ... .. 3 ... : ... .. . ... ... : ... .. 6 ... ... : ... .. 6 ... ... : ... .. . ... ...
ROW 0C : D-4 00 8 P83 ... ... : B-4 00 8 P82 ... ... : F#2 00 . ... : ... .. 2 ... : ... .. . ... ... : C#4 01 8 ... ... : C#3 01 8 ... ... : ... .. . ... ...
ROW 0D : ... .. . P7F ... ... : ... .. . P7F ... ... : ... .. . ... : ... .. 0 ... : ... .. . ... ... : ... .. 7 ... ... : ... .. 7 ... ... : ... .. . ... ...
ROW 0E : C#4 00 8 P85 ... ... : A#4 00 8 P82 ... ... : ... .. . ... : ... .. . ... : ... .. . ... ... : ... .. 6 ... ... : ... .. 6 ... ... : ... .. . ... ...
ROW 0F : ... .. . P83 ... ... : ... .. . P81 ... ... : ... .. . ... : ... .. . ... : ... .. . ... ... : B-3 01 8 ... ... : B-2 01 8 ... ... : ... .. . ... ...
ROW 10 : ... .. 1 P85 ... ... : ... .. 1 P83 ... ... : F#4 00 . ... : ... .. F ... : ... .. . ... ... : ... .. 7 ... ... : ... .. 7 ... ... : ... .. . ... ...
ROW 11 : D-4 00 1 P80 ... ... : B-4 00 1 P80 ... ... : G#3 00 . ... : ... .. C ... : ... .. . ... ... : ... .. 6 ... ... : ... .. 6 ... ... : ... .. . ... ...
ROW 12 : ... .. . P84 ... ... : ... .. . P83 ... ... : C#3 00 . ... : ... .. 6 ... : ... .. . ... ... : A-3 01 8 ... ... : A-2 01 8 ... ... : ... .. . ... ...
ROW 13 : D#4 00 1 P7F ... ... : C-5 00 1 P80 ... ... : C-3 00 . ... : ... .. 3 ... : ... .. . ... ... : ... .. 7 ... ... : ... .. 7 ... ... : ... .. . ... ...
ROW 14 : ... .. . ... ... ... : ... .. . ... ... ... : G-2 00 . ... : ... .. 2 ... : ... .. . ... ... : ... .. 6 ... ... : ... .. 6 ... ... : ... .. . ... ...
ROW 15 : D-4 00 1 P84 ... ... : B-4 00 1 P83 ... ... : ... .. . ... : ... .. 0 ... : ... .. . ... ... : G-3 01 8 ... ... : G-2 01 8 ... ... : ... .. . ... ...
ROW 16 : ... .. 0 ... ... ... : ... .. 0 ... ... ... : ... .. . ... : ... .. . ... : ... .. . ... ... : ... .. 7 ... ... : ... .. 7 ... ... : ... .. . ... ...
ROW 17 : ... .. . ... ... ... : ... .. . ... ... ... : ... .. . ... : ... .. . ... : ... .. . ... ... : ... .. 6 ... ... : ... .. 6 ... ... : ... .. . ... ...
ROW 18 : ... .. . ... ... ... : D-4 00 8 P80 ... ... : F-5 00 . ... : 9-# 00 F ... : ... .. . ... ... : F#3 01 A ... ... : F#2 01 A ... ... : D-3 01 C ... ...
ROW 19 : ... .. . ... ... ... : ... .. 7 ... ... ... : G-4 00 . ... : ... .. C ... : ... .. . ... ... : ... .. 9 ... ... : ... .. 9 ... ... : ... .. A ... ...
ROW 1A : ... .. . ... ... ... : ... .. . ... ... ... : C-4 00 . ... : ... .. 6 ... : ... .. . ... ... : ... .. 8 ... ... : ... .. 8 ... ... : ... .. 6 ... ...
ROW 1B : ... .. . ... ... ... : ... .. 6 ... ... ... : B-3 00 . ... : ... .. 3 ... : ... .. . ... ... : ... .. 7 ... ... : ... .. 7 ... ... : ... .. . ... ...
ROW 1C : ... .. . ... ... ... : ... .. 5 ... ... ... : F#3 00 . ... : ... .. 2 ... : ... .. . ... ... : ... .. . ... ... : ... .. . ... ... : ... .. 3 ... ...
ROW 1D : ... .. . ... ... ... : ... .. 4 ... ... ... : ... .. . ... : ... .. 0 ... : ... .. . ... ... : ... .. 6 ... ... : ... .. 6 ... ... : ... .. . ... ...
ROW 1E : ... .. . ... ... ... : A-3 00 8 ... ... ... : ... .. . ... : 2-# 00 F ... : ... .. . ... ... : ... .. . ... ... : ... .. . ... ... : ... .. 1 ... ...
ROW 1F : ... .. . ... ... ... : ... .. 7 ... ... ... : ... .. . ... : ... .. C ... : ... .. . ... ... : ... .. 5 ... ... : ... .. 5 ... ... : ... .. . ... ...
ROW 20 : ... .. . ... ... ... : ... .. . ... ... ... : ... .. . ... : ... .. 6 ... : ... .. . ... ... : ... .. . ... ... : ... .. . ... ... : E-3 01 C ... ...
ROW 21 : ... .. . ... ... ... : ... .. 6 ... ... ... : ... .. . ... : ... .. 3 ... : ... .. . ... ... : ... .. . ... ... : ... .. . ... ... : ... .. A ... ...
ROW 22 : ... .. . ... ... ... : ... .. 5 ... ... ... : ... .. . ... : ... .. 2 ... : ... .. . ... ... : ... .. . ... ... : ... .. . ... ... : ... .. 6 ... ...
ROW 23 : ... .. . ... ... ... : ... .. 4 ... ... ... : ... .. . ... : ... .. 0 ... : ... .. . ... ... : ... .. . ... ... : ... .. . ... ... : ... .. . ... ...
ROW 24 : A-3 00 C P80 ... ... : F#3 00 8 ... ... ... : E-3 00 . P85 : 1-# 00 F ... : ... .. . ... ... : ... .. . ... ... : ... .. . ... ... : ... .. . ... ...
ROW 25 : ... .. B ... ... ... : ... .. 7 ... ... ... : D#3 00 . P7A : ... .. C ... : ... .. . ... ... : ... .. . ... ... : ... .. . ... ... : ... .. 3 ... ...
ROW 26 : ... .. A ... ... ... : ... .. . ... ... ... : C#3 00 . P86 : ... .. 6 ... : ... .. . ... ... : ... .. . ... ... : ... .. . ... ... : ... .. . ... ...
ROW 27 : ... .. 0 ... ... ... : ... .. 6 ... ... ... : C-3 00 . P7E : ... .. 3 ... : ... .. . ... ... : ... .. . ... ... : ... .. . ... ... : ... .. 1 ... ...
ROW 28 : ... .. . ... ... ... : ... .. 5 ... ... ... : B-2 00 . P77 : ... .. 2 ... : ... .. . ... ... : ... .. . ... ... : ... .. . ... ... : D-3 01 C ... ...
ROW 29 : ... .. . ... ... ... : ... .. 4 ... ... ... : A-2 00 . P8E : ... .. 0 ... : ... .. . ... ... : ... .. . ... ... : ... .. . ... ... : ... .. A ... ...
ROW 2A : A-3 00 C P80 ... ... : D-3 00 8 ... ... ... : G#2 00 . P8D : C-# 00 F ... : ... .. . ... ... : ... .. . ... ... : ... .. . ... ... : ... .. 6 ... ...
ROW 2B : ... .. B ... ... ... : ... .. 7 ... ... ... : G-2 00 . ... : ... .. C ... : ... .. . ... ... : ... .. . ... ... : ... .. . ... ... : ... .. . ... ...
ROW 2C : ... .. A ... ... ... : ... .. . ... ... ... : F#2 00 . P8F : ... .. 6 ... : ... .. . ... ... : ... .. . ... ... : ... .. . ... ... : ... .. . ... ...
ROW 2D : ... .. 0 ... ... ... : ... .. 6 ... ... ... : ... .. . P6F : ... .. 3 ... : ... .. . ... ... : ... .. . ... ... : ... .. . ... ... : ... .. . ... ...
ROW 2E : ... .. . ... ... ... : ... .. 5 ... ... ... : F-2 00 . P73 : ... .. 2 ... : ... .. . ... ... : ... .. . ... ... : ... .. . ... ... : ... .. 3 ... ...
ROW 2F : ... .. . ... ... ... : ... .. 4 ... ... ... : E-2 00 . P79 : ... .. 0 ... : ... .. . ... ... : ... .. . ... ... : ... .. . ... ... : ... .. . ... ...
ROW 30 : D-4 00 C P80 ... ... : A-2 00 8 ... ... ... : F-4 00 . P80 : 7-# 00 F ... : ... .. . ... ... : ... .. . ... ... : ... .. . ... ... : ... .. C ... ...
ROW 31 : ... .. B ... ... ... : ... .. 7 ... ... ... : G-3 00 . ... : ... .. C ... : ... .. . ... ... : ... .. . ... ... : ... .. . ... ... : ... .. A ... ...
ROW 32 : ... .. A ... ... ... : ... .. . ... ... ... : C-3 00 . ... : ... .. 6 ... : ... .. . ... ... : ... .. . ... ... : ... .. . ... ... : ... .. 6 ... ...
ROW 33 : ... .. 8 ... ... ... : ... .. 6 ... ... ... : B-2 00 . ... : ... .. 3 ... : ... .. . ... ... : ... .. . ... ... : ... .. . ... ... : ... .. . ... ...
ROW 34 : ... .. . ... ... ... : ... .. 5 ... ... ... : F#2 00 . ... : ... .. 2 ... : ... .. . ... ... : ... .. . ... ... : ... .. . ... ... : ... .. 3 ... ...
ROW 35 : ... .. . ... ... ... : ... .. 4 ... ... ... : ... .. . ... : ... .. 0 ... : ... .. . ... ... : ... .. . ... ... : ... .. . ... ... : ... .. . ... ...
ROW 36 : ... .. . ... ... ... : F#2 00 8 ... ... ... : ... .. . ... : 1-# 00 F ... : ... .. . ... ... : ... .. . ... ... : ... .. . ... ... : ... .. 1 ... ...
ROW 37 : ... .. . ... ... ... : ... .. 7 ... ... ... : ... .. . ... : ... .. C ... : ... .. . ... ... : ... .. . ... ... : ... .. . ... ... : ... .. . ... ...
ROW 38 : ... .. . ... ... ... : ... .. . ... ... ... : ... .. . ... : ... .. 6 ... : ... .. . ... ... : ... .. . ... ... : ... .. . ... ... : E-3 01 C ... ...
ROW 39 : ... .. 0 ... ... ... : ... .. 6 ... ... ... : ... .. . ... : ... .. 3 ... : ... .. . ... ... : ... .. . ... ... : ... .. . ... ... : ... .. A ... ...
ROW 3A : ... .. . ... ... ... : ... .. 5 ... ... ... : ... .. . ... : ... .. 2 ... : ... .. . ... ... : ... .. . ... ... : ... .. . ... ... : ... .. 6 ... ...
ROW 3B : ... .. . ... ... ... : ... .. 4 ... ... ... : ... .. . ... : ... .. 0 ... : ... .. . ... ... : ... .. . ... ... : ... .. . ... ... : ... .. . ... ...
ROW 3C : A-3 00 C P80 ... ... : D-2 00 8 ... ... ... : ... .. . ... : C-# 00 F ... : ... .. . ... ... : A-2 01 A ... ... : A-3 01 A ... ... : ... .. . ... ...
ROW 3D : ... .. B ... ... ... : ... .. 7 ... ... ... : ... .. . ... : ... .. C ... : ... .. . ... ... : ... .. 9 ... ... : ... .. 9 ... ... : ... .. 3 ... ...
ROW 3E : ... .. A ... ... ... : ... .. . ... ... ... : ... .. . ... : ... .. 6 ... : ... .. . ... ... : ... .. 8 ... ... : ... .. 8 ... ... : ... .. . ... ...
ROW 3F : ... .. 0 ... ... ... : ... .. 6 ... ... ... : ... .. . ... : ... .. 3 ... : ... .. . ... ... : ... .. 7 ... ... : ... .. 7 ... ... : ... .. 1 ... ...
ROW 40 : ... .. . ... ... ... : ... .. 5 ... ... ... : ... .. . ... : ... .. 2 ... : ... .. . ... ... : ... .. . ... ... : ... .. . ... ... : D-3 01 C ... ...
ROW 41 : ... .. . ... ... ... : ... .. 4 ... ... ... : ... .. . ... : ... .. 0 ... : ... .. . ... ... : ... .. 6 ... ... : ... .. 6 ... ... : ... .. A ... ...
ROW 42 : D-4 00 C P80 ... ... : A-1 00 8 ... ... ... : ... .. . ... : 7-# 00 F ... : ... .. . ... ... : ... .. . ... ... : ... .. . ... ... : ... .. 6 ... ...
ROW 43 : ... .. B ... ... ... : ... .. 7 ... ... ... : ... .. . ... : ... .. C ... : ... .. . ... ... : ... .. 5 ... ... : ... .. 5 ... ... : ... .. . ... ...
ROW 44 : ... .. A ... ... ... : ... .. . ... ... ... : ... .. . ... : ... .. 6 ... : ... .. . ... ... : ... .. . ... ... : ... .. . ... ... : ... .. . ... ...
ROW 45 : ... .. 0 ... ... ... : ... .. 6 ... ... ... : ... .. . ... : ... .. 3 ... : ... .. . ... ... : ... .. . ... ... : ... .. . ... ... : ... .. . ... ...
ROW 46 : ... .. . ... ... ... : ... .. 5 ... ... ... : ... .. . ... : ... .. 2 ... : ... .. . ... ... : ... .. . ... ... : ... .. . ... ... : ... .. 3 ... ...
ROW 47 : ... .. . ... ... ... : ... .. 4 ... ... ... : ... .. . ... : ... .. 0 ... : ... .. . ... ... : ... .. . ... ... : ... .. . ... ... : ... .. . ... ...
ROW 48 : A-4 00 C P80 ... ... : D-4 00 8 ... ... ... : F-5 00 . ... : 1-# 00 F ... : ... .. . ... ... : D-3 01 A ... ... : D-4 01 A ... ... : ... .. C ... ...
ROW 49 : ... .. B ... ... ... : ... .. 7 ... ... ... : G-4 00 . ... : ... .. C ... : ... .. . ... ... : ... .. 9 ... ... : ... .. 9 ... ... : ... .. A ... ...
ROW 4A : ... .. A ... ... ... : ... .. . ... ... ... : C-4 00 . ... : ... .. 6 ... : ... .. . ... ... : ... .. 8 ... ... : ... .. 8 ... ... : ... .. 6 ... ...
ROW 4B : ... .. 8 ... ... ... : ... .. 6 ... ... ... : B-3 00 . ... : ... .. 3 ... : ... .. . ... ... : ... .. 7 ... ... : ... .. 7 ... ... : ... .. . ... ...
ROW 4C : ... .. . ... ... ... : ... .. 5 ... ... ... : F#3 00 . ... : ... .. 2 ... : ... .. . ... ... : ... .. . ... ... : ... .. . ... ... : ... .. 3 ... ...
ROW 4D : ... .. . ... ... ... : ... .. 4 ... ... ... : ... .. . ... : ... .. 0 ... : ... .. . ... ... : ... .. 6 ... ... : ... .. 6 ... ... : ... .. . ... ...
ROW 4E : ... .. . ... ... ... : A-3 00 8 ... ... ... : ... .. . ... : B-# 00 F ... : ... .. . ... ... : ... .. . ... ... : ... .. . ... ... : ... .. 1 ... ...
ROW 4F : ... .. . ... ... ... : ... .. 7 ... ... ... : ... .. . ... : ... .. C ... : ... .. . ... ... : ... .. 5 ... ... : ... .. 5 ... ... : ... .. . ... ...
ROW 50 : ... .. . ... ... ... : ... .. . ... ... ... : ... .. . ... : ... .. 6 ... : ... .. . ... ... : ... .. . ... ... : ... .. . ... ... : E-3 01 C ... ...
ROW 51 : ... .. . ... ... ... : ... .. 6 ... ... ... : ... .. . ... : ... .. 3 ... : ... .. . ... ... : ... .. . ... ... : ... .. . ... ... : ... .. A ... ...
ROW 52 : ... .. . ... ... ... : ... .. 5 ... ... ... : ... .. . ... : ... .. 2 ... : ... .. . ... ... : ... .. . ... ... : ... .. . ... ... : ... .. 6 ... ...
ROW 53 : ... .. . ... ... ... : ... .. 4 ... ... ... : ... .. . ... : ... .. 0 ... : ... .. . ... ... : ... .. . ... ... : ... .. . ... ... : ... .. . ... ...
ROW 54 : ... .. . ... ... ... : F#3 00 8 ... ... ... : E-3 00 . P85 : 7-# 00 F ... : ... .. . ... ... : ... .. . ... ... : ... .. . ... ... : ... .. . ... ...
ROW 55 : ... .. . ... ... ... : ... .. 7 ... ... ... : D#3 00 . P7A : ... .. C ... : ... .. . ... ... : ... .. . ... ... : ... .. . ... ... : ... .. 3 ... ...
ROW 56 : ... .. . ... ... ... : ... .. . ... ... ... : C#3 00 . P86 : ... .. 6 ... : ... .. . ... ... : ... .. . ... ... : ... .. . ... ... : ... .. . ... ...
ROW 57 : ... .. . ... ... ... : ... .. 6 ... ... ... : C-3 00 . P7E : ... .. 3 ... : ... .. . ... ... : ... .. . ... ... : ... .. . ... ... : ... .. 1 ... ...
ROW 58 : ... .. . ... ... ... : ... .. 5 ... ... ... : B-2 00 . P77 : ... .. 2 ... : ... .. . ... ... : ... .. . ... ... : ... .. . ... ... : D-3 01 C ... ...
ROW 59 : ... .. . ... ... ... : ... .. 4 ... ... ... : A-2 00 . P8E : ... .. 0 ... : ... .. . ... ... : ... .. . ... ... : ... .. . ... ... : ... .. A ... ...
ROW 5A : ... .. . ... ... ... : D-3 00 8 ... ... ... : G#2 00 . P8D : 1-# 00 F ... : ... .. . ... ... : E-3 01 A ... ... : E-4 01 A ... ... : ... .. 6 ... ...
ROW 5B : ... .. . ... ... ... : ... .. 7 ... ... ... : G-2 00 . ... : ... .. C ... : ... .. . ... ... : ... .. 9 ... ... : ... .. 9 ... ... : ... .. . ... ...
ROW 5C : ... .. . ... ... ... : ... .. . ... ... ... : F#2 00 . P8F : ... .. 6 ... : ... .. . ... ... : ... .. 8 ... ... : ... .. 8 ... ... : ... .. . ... ...
ROW 5D : ... .. . ... ... ... : ... .. 6 ... ... ... : ... .. . P6F : ... .. 3 ... : ... .. . ... ... : ... .. 7 ... ... : ... .. 7 ... ... : ... .. . ... ...
ROW 5E : ... .. . ... ... ... : ... .. 5 ... ... ... : F-2 00 . P73 : ... .. 2 ... : ... .. . ... ... : ... .. . ... ... : ... .. . ... ... : ... .. 3 ... ...
ROW 5F : ... .. . ... ... ... : ... .. 4 ... ... ... : E-2 00 . P79 : ... .. 0 ... : ... .. . ... ... : ... .. 6 ... ... : ... .. 6 ... ... : ... .. . ... ...
ROW 60 : ... .. . P82 ... ... : A-2 00 8 ... ... ... : F-4 00 . P80 : 9-# 00 F ... : ... .. . ... ... : ... .. . ... ... : ... .. . ... ... : ... .. C ... ...
ROW 61 : ... .. . P83 ... ... : ... .. 7 ... ... ... : G-3 00 . ... : ... .. C ... : ... .. . ... ... : ... .. 5 ... ... : ... .. 5 ... ... : ... .. A ... ...
ROW 62 : ... .. . ... ... ... : ... .. . ... ... ... : C-3 00 . ... : ... .. 6 ... : ... .. . ... ... : ... .. . ... ... : ... .. . ... ... : ... .. 6 ... ...
ROW 63 : ... .. . P81 ... ... : ... .. 6 ... ... ... : B-2 00 . ... : ... .. 3 ... : ... .. . ... ... : ... .. . ... ... : ... .. . ... ... : ... .. . ... ...
ROW 64 : ... .. . P7F ... ... : ... .. 5 ... ... ... : F#2 00 . ... : ... .. 2 ... : ... .. . ... ... : ... .. . ... ... : ... .. . ... ... : ... .. 3 ... ...
ROW 65 : ... .. . P7D ... ... : ... .. 4 ... ... ... : ... .. . ... : ... .. 0 ... : ... .. . ... ... : ... .. . ... ... : ... .. . ... ... : ... .. . ... ...
ROW 66 : ... .. . ... ... ... : F#2 00 8 ... ... ... : ... .. . ... : ... .. F ... : ... .. . ... ... : ... .. . ... ... : ... .. . ... ... : ... .. 1 ... ...
ROW 67 : ... .. . P7E ... ... : ... .. 7 ... ... ... : ... .. . ... : ... .. C ... : ... .. . ... ... : ... .. . ... ... : ... .. . ... ... : ... .. . ... ...
ROW 68 : ... .. . P80 ... ... : ... .. . ... ... ... : ... .. . ... : ... .. 6 ... : ... .. . ... ... : ... .. . ... ... : ... .. . ... ... : E-3 01 C ... ...
ROW 69 : ... .. . P82 ... ... : ... .. 6 ... ... ... : ... .. . ... : ... .. 3 ... : ... .. . ... ... : ... .. . ... ... : ... .. . ... ... : ... .. A ... ...
ROW 6A : ... .. . P83 ... ... : ... .. 5 ... ... ... : ... .. . ... : ... .. 2 ... : ... .. . ... ... : ... .. . ... ... : ... .. . ... ... : ... .. 6 ... ...
ROW 6B : ... .. . ... ... ... : ... .. 4 ... ... ... : ... .. . ... : ... .. 0 ... : ... .. . ... ... : ... .. . ... ... : ... .. . ... ... : ... .. . ... ...
ROW 6C : ... .. . P81 ... ... : D-2 00 8 ... ... ... : ... .. . ... : 7-# 00 F ... : ... .. . ... ... : A-3 01 A ... ... : A-4 01 A ... ... : ... .. . ... ...
ROW 6D : ... .. . P80 ... ... : ... .. 7 ... ... ... : ... .. . ... : ... .. C ... : ... .. . ... ... : ... .. 9 ... ... : ... .. 9 ... ... : ... .. 3 ... ...
ROW 6E : ... .. . P7D ... ... : ... .. . ... ... ... : ... .. . ... : ... .. 6 ... : ... .. . ... ... : ... .. 8 ... ... : ... .. 8 ... ... : ... .. . ... ...
ROW 6F : ... .. . ... ... ... : ... .. 6 ... ... ... : ... .. . ... : ... .. 3 ... : ... .. . ... ... : ... .. 7 ... ... : ... .. 7 ... ... : ... .. 1 ... ...
ROW 70 : ... .. . P7E ... ... : ... .. 5 ... ... ... : ... .. . ... : ... .. 2 ... : ... .. . ... ... : ... .. . ... ... : ... .. . ... ... : D-3 01 C ... ...
ROW 71 : ... .. . P80 ... ... : ... .. 4 ... ... ... : ... .. . ... : ... .. 0 ... : ... .. . ... ... : ... .. 6 ... ... : ... .. 6 ... ... : ... .. A ... ...
ROW 72 : ... .. . P81 ... ... : A-1 00 8 ... ... ... : ... .. . ... : ... .. F ... : ... .. . ... ... : ... .. . ... ... : ... .. . ... ... : ... .. 6 ... ...
ROW 73 : ... .. . P83 ... ... : ... .. 7 ... ... ... : ... .. . ... : ... .. C ... : ... .. . ... ... : ... .. 5 ... ... : ... .. 5 ... ... : ... .. . ... ...
ROW 74 : ... .. . ... ... ... : ... .. . ... ... ... : ... .. . ... : ... .. 6 ... : ... .. . ... ... : ... .. . ... ... : ... .. . ... ... : ... .. . ... ...
ROW 75 : ... .. . P81 ... ... : ... .. 6 ... ... ... : ... .. . ... : ... .. 3 ... : ... .. . ... ... : ... .. . ... ... : ... .. . ... ... : ... .. . ... ...
ROW 76 : ... .. . P80 ... ... : ... .. 5 ... ... ... : ... .. . ... : ... .. 2 ... : ... .. . ... ... : ... .. . ... ... : ... .. . ... ... : ... .. 3 ... ...
ROW 77 : ... .. . P7E ... ... : ... .. 4 ... ... ... : ... .. . ... : ... .. 0 ... : ... .. . ... ... : ... .. . ... ... : ... .. . ... ... : ... .. . ... ...
ROW 78 : ... .. . P7D ... ... : C-4 00 8 ... ... ... : F-5 00 . ... : 9-# 00 F ... : ... .. . ... ... : B-3 01 A ... ... : B-4 01 A ... ... : C-3 01 C ... ...
ROW 79 : ... .. 1 ... ... ... : ... .. 7 ... ... ... : G-4 00 . ... : ... .. C ... : ... .. . ... ... : ... .. 9 ... ... : ... .. 9 ... ... : ... .. A ... ...
ROW 7A : ... .. . P80 ... ... : ... .. . ... ... ... : C-4 00 . ... : ... .. 6 ... : ... .. . ... ... : ... .. 8 ... ... : ... .. 8 ... ... : ... .. 6 ... ...
ROW 7B : ... .. . P81 ... ... : ... .. 6 ... ... ... : B-3 00 . ... : ... .. 3 ... : ... .. . ... ... : ... .. 7 ... ... : ... .. 7 ... ... : ... .. . ... ...
ROW 7C : ... .. . P83 ... ... : ... .. 5 ... ... ... : F#3 00 . ... : ... .. 2 ... : ... .. . ... ... : ... .. . ... ... : ... .. . ... ... : ... .. 3 ... ...
ROW 7D : ... .. . ... ... ... : ... .. 4 ... ... ... : ... .. . ... : ... .. 0 ... : ... .. . ... ... : ... .. 6 ... ... : ... .. 6 ... ... : ... .. . ... ...
ROW 7E : ... .. . P82 ... ... : G-3 00 8 ... ... ... : ... .. . ... : 2-# 00 F ... : ... .. . ... ... : ... .. . ... ... : ... .. . ... ... : ... .. 1 ... ...
ROW 7F : ... .. 0 ... ... ... : ... .. 7 ... ... ... : ... .. . ... : ... .. C ... : ... .. . ... ... : ... .. 5 ... ... : ... .. 5 ... ... : ... .. . ... ...
ROW 80 : ... .. . ... ... ... : ... .. . ... ... ... : ... .. . ... : ... .. 6 ... : ... .. . ... ... : ... .. . ... ... : ... .. . ... ... : D-3 01 C ... ...
ROW 81 : ... .. . ... ... ... : ... .. 6 ... ... ... : ... .. . ... : ... .. 3 ... : ... .. . ... ... : ... .. . ... ... : ... .. . ... ... : ... .. A ... ...
ROW 82 : ... .. . ... ... ... : ... .. 5 ... ... ... : ... .. . ... : ... .. 2 ... : ... .. . ... ... : ... .. . ... ... : ... .. . ... ... : ... .. 6 ... ...
ROW 83 : ... .. . ... ... ... : ... .. 4 ... ... ... : ... .. . ... : ... .. 0 ... : ... .. . ... ... : ... .. . ... ... : ... .. . ... ... : ... .. . ... ...
ROW 84 : F#4 00 C P80 ... ... : E-3 00 8 ... ... ... : E-3 00 . P85 : 1-# 00 F ... : ... .. . ... ... : ... .. . ... ... : ... .. . ... ... : ... .. . ... ...
ROW 85 : ... .. B ... ... ... : ... .. 7 ... ... ... : D#3 00 . P7A : ... .. C ... : ... .. . ... ... : ... .. . ... ... : ... .. . ... ... : ... .. 3 ... ...
ROW 86 : ... .. A ... ... ... : ... .. . ... ... ... : C#3 00 . P86 : ... .. 6 ... : ... .. . ... ... : ... .. . ... ... : ... .. . ... ... : ... .. . ... ...
ROW 87 : ... .. 0 ... ... ... : ... .. 6 ... ... ... : C-3 00 . P7E : ... .. 3 ... : ... .. . ... ... : ... .. . ... ... : ... .. . ... ... : ... .. 1 ... ...
ROW 88 : ... .. . ... ... ... : ... .. 5 ... ... ... : B-2 00 . P77 : ... .. 2 ... : ... .. . ... ... : ... .. . ... ... : ... .. . ... ... : C-3 01 C ... ...
ROW 89 : ... .. . ... ... ... : ... .. 4 ... ... ... : A-2 00 . P8E : ... .. 0 ... : ... .. . ... ... : ... .. . ... ... : ... .. . ... ... : ... .. A ... ...
ROW 8A : F#4 00 C P80 ... ... : C-3 00 8 ... ... ... : G#2 00 . P8D : C-# 00 F ... : ... .. . ... ... : ... .. . ... ... : ... .. . ... ... : ... .. 6 ... ...
ROW 8B : ... .. B ... ... ... : ... .. 7 ... ... ... : G-2 00 . ... : ... .. C ... : ... .. . ... ... : ... .. . ... ... : ... .. . ... ... : ... .. . ... ...
ROW 8C : ... .. A ... ... ... : ... .. . ... ... ... : F#2 00 . P8F : ... .. 6 ... : ... .. . ... ... : ... .. . ... ... : ... .. . ... ... : ... .. . ... ...
ROW 8D : ... .. 0 ... ... ... : ... .. 6 ... ... ... : ... .. . P6F : ... .. 3 ... : ... .. . ... ... : ... .. . ... ... : ... .. . ... ... : ... .. . ... ...
ROW 8E : ... .. . ... ... ... : ... .. 5 ... ... ... : F-2 00 . P73 : ... .. 2 ... : ... .. . ... ... : ... .. . ... ... : ... .. . ... ... : ... .. 3 ... ...
ROW 8F : ... .. . ... ... ... : ... .. 4 ... ... ... : E-2 00 . P79 : ... .. 0 ... : ... .. . ... ... : ... .. . ... ... : ... .. . ... ... : ... .. . ... ...
ROW 90 : B-4 00 C P80 ... ... : G-2 00 8 ... ... ... : F-4 00 . P80 : 7-# 00 F ... : ... .. . ... ... : A-3 01 A ... ... : A-4 01 A ... ... : ... .. C ... ...
ROW 91 : ... .. B ... ... ... : ... .. 7 ... ... ... : G-3 00 . ... : ... .. C ... : ... .. . ... ... : ... .. 9 ... ... : ... .. 9 ... ... : ... .. A ... ...
ROW 92 : ... .. A ... ... ... : ... .. . ... ... ... : C-3 00 . ... : ... .. 6 ... : ... .. . ... ... : ... .. 8 ... ... : ... .. 8 ... ... : ... .. 6 ... ...
ROW 93 : ... .. 8 ... ... ... : ... .. 6 ... ... ... : B-2 00 . ... : ... .. 3 ... : ... .. . ... ... : ... .. 7 ... ... : ... .. 7 ... ... : ... .. . ... ...
ROW 94 : ... .. . ... ... ... : ... .. 5 ... ... ... : F#2 00 . ... : ... .. 2 ... : ... .. . ... ... : ... .. . ... ... : ... .. . ... ... : ... .. 3 ... ...
ROW 95 : ... .. . ... ... ... : ... .. 4 ... ... ... : ... .. . ... : ... .. 0 ... : ... .. . ... ... : ... .. 6 ... ... : ... .. 6 ... ... : ... .. . ... ...
ROW 96 : ... .. . ... ... ... : E-2 00 8 ... ... ... : ... .. . ... : 1-# 00 F ... : ... .. . ... ... : ... .. . ... ... : ... .. . ... ... : ... .. 1 ... ...
ROW 97 : ... .. . ... ... ... : ... .. 7 ... ... ... : ... .. . ... : ... .. C ... : ... .. . ... ... : ... .. 5 ... ... : ... .. 5 ... ... : ... .. . ... ...
ROW 98 : ... .. . ... ... ... : ... .. . ... ... ... : ... .. . ... : ... .. 6 ... : ... .. . ... ... : ... .. . ... ... : ... .. . ... ... : D-3 01 C ... ...
ROW 99 : ... .. 0 ... ... ... : ... .. 6 ... ... ... : ... .. . ... : ... .. 3 ... : ... .. . ... ... : ... .. . ... ... : ... .. . ... ... : ... .. A ... ...
ROW 9A : ... .. . ... ... ... : ... .. 5 ... ... ... : ... .. . ... : ... .. 2 ... : ... .. . ... ... : ... .. . ... ... : ... .. . ... ... : ... .. 6 ... ...
ROW 9B : ... .. . ... ... ... : ... .. 4 ... ... ... : ... .. . ... : ... .. 0 ... : ... .. . ... ... : ... .. . ... ... : ... .. . ... ... : ... .. . ... ...
ROW 9C : F#4 00 C P80 ... ... : C-2 00 8 ... ... ... : ... .. . ... : C-# 00 F ... : ... .. . ... ... : E-3 01 A ... ... : E-4 01 A ... ... : ... .. . ... ...
ROW 9D : ... .. B ... ... ... : ... .. 7 ... ... ... : ... .. . ... : ... .. C ... : ... .. . ... ... : ... .. 9 ... ... : ... .. 9 ... ... : ... .. 3 ... ...
ROW 9E : ... .. A ... ... ... : ... .. . ... ... ... : ... .. . ... : ... .. 6 ... : ... .. . ... ... : ... .. 8 ... ... : ... .. 8 ... ... : ... .. . ... ...
ROW 9F : ... .. 0 ... ... ... : ... .. 6 ... ... ... : ... .. . ... : ... .. 3 ... : ... .. . ... ... : ... .. 7 ... ... : ... .. 7 ... ... : ... .. 1 ... ...
ROW A0 : ... .. . ... ... ... : ... .. 5 ... ... ... : ... .. . ... : ... .. 2 ... : ... .. . ... ... : ... .. . ... ... : ... .. . ... ... : C-3 01 C ... ...
ROW A1 : ... .. . ... ... ... : ... .. 4 ... ... ... : ... .. . ... : ... .. 0 ... : ... .. . ... ... : ... .. 6 ... ... : ... .. 6 ... ... : ... .. A ... ...
ROW A2 : B-4 00 C P80 ... ... : G-1 00 8 ... ... ... : ... .. . ... : 7-# 00 F ... : ... .. . ... ... : ... .. . ... ... : ... .. . ... ... : ... .. 6 ... ...
ROW A3 : ... .. B ... ... ... : ... .. 7 ... ... ... : ... .. . ... : ... .. C ... : ... .. . ... ... : ... .. 5 ... ... : ... .. 5 ... ... : ... .. . ... ...
ROW A4 : ... .. A ... ... ... : ... .. . ... ... ... : ... .. . ... : ... .. 6 ... : ... .. . ... ... : ... .. . ... ... : ... .. . ... ... : ... .. . ... ...
ROW A5 : ... .. 0 ... ... ... : ... .. 6 ... ... ... : ... .. . ... : ... .. 3 ... : ... .. . ... ... : ... .. . ... ... : ... .. . ... ... : ... .. . ... ...
ROW A6 : ... .. . ... ... ... : ... .. 5 ... ... ... : ... .. . ... : ... .. 2 ... : ... .. . ... ... : ... .. . ... ... : ... .. . ... ... : ... .. 3 ... ...
ROW A7 : ... .. . ... ... ... : ... .. 4 ... ... ... : ... .. . ... : ... .. 0 ... : ... .. . ... ... : ... .. . ... ... : ... .. . ... ... : ... .. . ... ...
ROW A8 : F#5 00 C P80 ... ... : C-4 00 8 ... ... ... : F-5 00 . ... : 1-# 00 F ... : ... .. . ... ... : ... .. . ... ... : ... .. . ... ... : ... .. C ... ...
ROW A9 : ... .. B ... ... ... : ... .. 7 ... ... ... : G-4 00 . ... : ... .. C ... : ... .. . ... ... : ... .. . ... ... : ... .. . ... ... : ... .. A ... ...
ROW AA : ... .. A ... ... ... : ... .. . ... ... ... : C-4 00 . ... : ... .. 6 ... : ... .. . ... ... : ... .. . ... ... : ... .. . ... ... : ... .. 6 ... ...
ROW AB : ... .. 8 ... ... ... : ... .. 6 ... ... ... : B-3 00 . ... : ... .. 3 ... : ... .. . ... ... : ... .. . ... ... : ... .. . ... ... : ... .. . ... ...
ROW AC : ... .. . ... ... ... : ... .. 5 ... ... ... : F#3 00 . ... : ... .. 2 ... : ... .. . ... ... : ... .. . ... ... : ... .. . ... ... : ... .. 3 ... ...
ROW AD : ... .. . ... ... ... : ... .. 4 ... ... ... : ... .. . ... : ... .. 0 ... : ... .. . ... ... : ... .. . ... ... : ... .. . ... ... : ... .. . ... ...
ROW AE : ... .. . ... ... ... : G-3 00 8 ... ... ... : ... .. . ... : B-# 00 F ... : ... .. . ... ... : ... .. . ... ... : ... .. . ... ... : ... .. 1 ... ...
ROW AF : ... .. . ... ... ... : ... .. 7 ... ... ... : ... .. . ... : ... .. C ... : ... .. . ... ... : ... .. . ... ... : ... .. . ... ... : ... .. . ... ...
ROW B0 : ... .. . ... ... ... : ... .. . ... ... ... : ... .. . ... : ... .. 6 ... : ... .. . ... ... : ... .. . ... ... : ... .. . ... ... : D-3 01 C ... ...
ROW B1 : ... .. . ... ... ... : ... .. 6 ... ... ... : ... .. . ... : ... .. 3 ... : ... .. . ... ... : ... .. . ... ... : ... .. . ... ... : ... .. A ... ...
ROW B2 : ... .. . ... ... ... : ... .. 5 ... ... ... : ... .. . ... : ... .. 2 ... : ... .. . ... ... : ... .. . ... ... : ... .. . ... ... : ... .. 6 ... ...
ROW B3 : ... .. . ... ... ... : ... .. 4 ... ... ... : ... .. . ... : ... .. 0 ... : ... .. . ... ... : ... .. . ... ... : ... .. . ... ... : ... .. . ... ...
ROW B4 : ... .. . ... ... ... : E-3 00 8 ... ... ... : E-3 00 . P85 : 7-# 00 F ... : ... .. . ... ... : ... .. . ... ... : ... .. . ... ... : ... .. . ... ...
ROW B5 : ... .. . ... ... ... : ... .. 7 ... ... ... : D#3 00 . P7A : ... .. C ... : ... .. . ... ... : ... .. . ... ... : ... .. . ... ... : ... .. 3 ... ...
ROW B6 : ... .. . ... ... ... : ... .. . ... ... ... : C#3 00 . P86 : ... .. 6 ... : ... .. . ... ... : ... .. . ... ... : ... .. . ... ... : ... .. . ... ...
ROW B7 : ... .. . ... ... ... : ... .. 6 ... ... ... : C-3 00 . P7E : ... .. 3 ... : ... .. . ... ... : ... .. . ... ... : ... .. . ... ... : ... .. 1 ... ...
ROW B8 : ... .. . ... ... ... : ... .. 5 ... ... ... : B-2 00 . P77 : ... .. 2 ... : ... .. . ... ... : ... .. . ... ... : ... .. . ... ... : C-3 01 C ... ...
ROW B9 : ... .. . ... ... ... : ... .. 4 ... ... ... : A-2 00 . P8E : ... .. 0 ... : ... .. . ... ... : ... .. . ... ... : ... .. . ... ... : ... .. A ... ...
ROW BA : ... .. . ... ... ... : C-3 00 8 ... ... ... : G#2 00 . P8D : 1-# 00 F ... : ... .. . ... ... : ... .. . ... ... : ... .. . ... ... : ... .. 6 ... ...
ROW BB : ... .. . ... ... ... : ... .. 7 ... ... ... : G-2 00 . ... : ... .. C ... : ... .. . ... ... : ... .. . ... ... : ... .. . ... ... : ... .. . ... ...
ROW BC : ... .. . ... ... ... : ... .. . ... ... ... : F#2 00 . P8F : ... .. 6 ... : ... .. . ... ... : ... .. . ... ... : ... .. . ... ... : ... .. . ... ...
ROW BD : ... .. . ... ... ... : ... .. 6 ... ... ... : ... .. . P6F : ... .. 3 ... : ... .. . ... ... : ... .. . ... ... : ... .. . ... ... : ... .. . ... ...
ROW BE : ... .. . ... ... ... : ... .. 5 ... ... ... : F-2 00 . P73 : ... .. 2 ... : ... .. . ... ... : ... .. . ... ... : ... .. . ... ... : ... .. 3 ... ...
ROW BF : ... .. . ... ... ... : ... .. 4 ... ... ... : E-2 00 . P79 : ... .. 0 ... : ... .. . ... ... : ... .. . ... ... : ... .. . ... ... : ... .. . ... ...
ROW C0 : ... .. . P81 ... ... : G-2 00 8 ... ... ... : F-4 00 . P80 : 9-# 00 F ... : ... .. . ... ... : ... .. . ... ... : ... .. . ... ... : ... .. C ... ...
ROW C1 : ... .. . P82 ... ... : ... .. 7 ... ... ... : G-3 00 . ... : ... .. C ... : ... .. . ... ... : ... .. . ... ... : ... .. . ... ... : ... .. A ... ...
ROW C2 : ... .. . ... ... ... : ... .. . ... ... ... : C-3 00 . ... : ... .. 6 ... : ... .. . ... ... : ... .. . ... ... : ... .. . ... ... : ... .. 6 ... ...
ROW C3 : ... .. . P80 ... ... : ... .. 6 ... ... ... : B-2 00 . ... : ... .. 3 ... : ... .. . ... ... : ... .. . ... ... : ... .. . ... ... : ... .. . ... ...
ROW C4 : ... .. . ... ... ... : ... .. 5 ... ... ... : F#2 00 . ... : ... .. 2 ... : ... .. . ... ... : ... .. . ... ... : ... .. . ... ... : ... .. 3 ... ...
ROW C5 : F-5 00 8 P82 ... ... : ... .. 4 ... ... ... : ... .. . ... : ... .. 0 ... : ... .. . ... ... : ... .. . ... ... : ... .. . ... ... : ... .. . ... ...
ROW C6 : ... .. . ... ... ... : E-2 00 8 ... ... ... : ... .. . ... : ... .. F ... : ... .. . ... ... : ... .. . ... ... : ... .. . ... ... : ... .. 1 ... ...
ROW C7 : F#5 00 8 P7F ... ... : ... .. 7 ... ... ... : ... .. . ... : ... .. C ... : ... .. . ... ... : ... .. . ... ... : ... .. . ... ... : ... .. . ... ...
ROW C8 : ... .. . P80 ... ... : ... .. . ... ... ... : ... .. . ... : ... .. 6 ... : ... .. . ... ... : ... .. . ... ... : ... .. . ... ... : D-3 01 C ... ...
ROW C9 : ... .. . P81 ... ... : ... .. 6 ... ... ... : ... .. . ... : ... .. 3 ... : ... .. . ... ... : ... .. . ... ... : ... .. . ... ... : ... .. A ... ...
ROW CA : ... .. . P82 ... ... : ... .. 5 ... ... ... : ... .. . ... : ... .. 2 ... : ... .. . ... ... : ... .. . ... ... : ... .. . ... ... : ... .. 6 ... ...
ROW CB : ... .. . ... ... ... : ... .. 4 ... ... ... : ... .. . ... : ... .. 0 ... : ... .. . ... ... : ... .. . ... ... : ... .. . ... ... : ... .. . ... ...
ROW CC : ... .. . P80 ... ... : C-2 00 8 ... ... ... : ... .. . ... : 7-# 00 F ... : ... .. . ... ... : ... .. . ... ... : ... .. . ... ... : ... .. . ... ...
ROW CD : ... .. . ... ... ... : ... .. 7 ... ... ... : ... .. . ... : ... .. C ... : ... .. . ... ... : ... .. . ... ... : ... .. . ... ... : ... .. 3 ... ...
ROW CE : ... .. . P7F ... ... : ... .. . ... ... ... : ... .. . ... : ... .. 6 ... : ... .. . ... ... : ... .. . ... ... : ... .. . ... ... : ... .. . ... ...
ROW CF : F-5 00 8 P82 ... ... : ... .. 6 ... ... ... : ... .. . ... : ... .. 3 ... : ... .. . ... ... : ... .. . ... ... : ... .. . ... ... : ... .. 1 ... ...
ROW D0 : F#5 00 8 P7F ... ... : ... .. 5 ... ... ... : ... .. . ... : ... .. 2 ... : ... .. . ... ... : ... .. . ... ... : ... .. . ... ... : C-3 01 C ... ...
ROW D1 : ... .. . P80 ... ... : ... .. 4 ... ... ... : ... .. . ... : ... .. 0 ... : ... .. . ... ... : ... .. . ... ... : ... .. . ... ... : ... .. A ... ...
ROW D2 : ... .. . P81 ... ... : G-1 00 8 ... ... ... : ... .. . ... : ... .. F ... : ... .. . ... ... : ... .. . ... ... : ... .. . ... ... : ... .. 6 ... ...
ROW D3 : ... .. . P82 ... ... : ... .. 7 ... ... ... : ... .. . ... : ... .. C ... : ... .. . ... ... : ... .. . ... ... : ... .. . ... ... : ... .. . ... ...
ROW D4 : ... .. . ... ... ... : ... .. . ... ... ... : ... .. . ... : ... .. 6 ... : ... .. . ... ... : ... .. . ... ... : ... .. . ... ... : ... .. . ... ...
ROW D5 : ... .. 0 ... ... ... : ... .. 6 ... ... ... : ... .. . ... : ... .. 3 ... : ... .. . ... ... : ... .. . ... ... : ... .. . ... ... : ... .. . ... ...
ROW D6 : ... .. . ... ... ... : ... .. 5 ... ... ... : ... .. . ... : ... .. 2 ... : ... .. . ... ... : ... .. . ... ... : ... .. . ... ... : ... .. 3 ... ...
ROW D7 : ... .. . ... ... ... : ... .. 4 ... ... ... : ... .. . ... : ... .. 0 ... : ... .. . ... ... : ... .. . ... ... : ... .. . ... ... : ... .. . ... ...
ROW D8 : ... .. . ... ... ... : D-4 00 8 ... ... ... : F-5 00 . ... : 9-# 00 F ... : ... .. . ... ... : D-3 01 A ... ... : D-4 01 A ... ... : E-3 01 C ... ...
ROW D9 : ... .. . ... ... ... : ... .. 7 ... ... ... : G-4 00 . ... : ... .. C ... : ... .. . ... ... : ... .. 9 ... ... : ... .. 9 ... ... : ... .. A ... ...
ROW DA : ... .. . ... ... ... : ... .. . ... ... ... : C-4 00 . ... : ... .. 6 ... : ... .. . ... ... : ... .. 8 ... ... : ... .. 8 ... ... : ... .. 6 ... ...
ROW DB : ... .. . ... ... ... : ... .. 6 ... ... ... : B-3 00 . ... : ... .. 3 ... : ... .. . ... ... : ... .. 7 ... ... : ... .. 7 ... ... : ... .. . ... ...
ROW DC : ... .. . ... ... ... : ... .. 5 ... ... ... : F#3 00 . ... : ... .. 2 ... : ... .. . ... ... : ... .. . ... ... : ... .. . ... ... : ... .. 3 ... ...
ROW DD : ... .. . ... ... ... : ... .. 4 ... ... ... : ... .. . ... : ... .. 0 ... : ... .. . ... ... : ... .. 6 ... ... : ... .. 6 ... ... : ... .. . ... ...
ROW DE : ... .. . ... ... ... : A#3 00 8 ... ... ... : ... .. . ... : 2-# 00 F ... : ... .. . ... ... : ... .. . ... ... : ... .. . ... ... : ... .. 1 ... ...
ROW DF : ... .. . ... ... ... : ... .. 7 ... ... ... : ... .. . ... : ... .. C ... : ... .. . ... ... : ... .. 5 ... ... : ... .. 5 ... ... : ... .. . ... ...
ROW E0 : ... .. . ... ... ... : ... .. . ... ... ... : ... .. . ... : ... .. 6 ... : ... .. . ... ... : ... .. . ... ... : ... .. . ... ... : F-3 01 C ... ...
ROW E1 : ... .. . ... ... ... : ... .. 6 ... ... ... : ... .. . ... : ... .. 3 ... : ... .. . ... ... : ... .. . ... ... : ... .. . ... ... : ... .. A ... ...
ROW E2 : ... .. . ... ... ... : ... .. 5 ... ... ... : ... .. . ... : ... .. 2 ... : ... .. . ... ... : ... .. . ... ... : ... .. . ... ... : ... .. 6 ... ...
ROW E3 : ... .. . ... ... ... : ... .. 4 ... ... ... : ... .. . ... : ... .. 0 ... : ... .. . ... ... : ... .. . ... ... : ... .. . ... ... : ... .. . ... ...
ROW E4 : F-4 00 C P80 ... ... : F-3 00 8 ... ... ... : E-3 00 . P85 : 1-# 00 F ... : ... .. . ... ... : ... .. . ... ... : ... .. . ... ... : ... .. . ... ...
ROW E5 : ... .. B ... ... ... : ... .. 7 ... ... ... : D#3 00 . P7A : ... .. C ... : ... .. . ... ... : ... .. . ... ... : ... .. . ... ... : ... .. 3 ... ...
ROW E6 : ... .. A ... ... ... : ... .. . ... ... ... : C#3 00 . P86 : ... .. 6 ... : ... .. . ... ... : ... .. . ... ... : ... .. . ... ... : ... .. . ... ...
ROW E7 : ... .. 8 ... ... ... : ... .. 6 ... ... ... : C-3 00 . P7E : ... .. 3 ... : ... .. . ... ... : ... .. . ... ... : ... .. . ... ... : ... .. 1 ... ...
ROW E8 : ... .. . ... ... ... : ... .. 5 ... ... ... : B-2 00 . P77 : ... .. 2 ... : ... .. . ... ... : ... .. . ... ... : ... .. . ... ... : E-3 01 C ... ...
ROW E9 : ... .. . ... ... ... : ... .. 4 ... ... ... : A-2 00 . P8E : ... .. 0 ... : ... .. . ... ... : ... .. . ... ... : ... .. . ... ... : ... .. A ... ...
ROW EA : E-4 00 C ... ... ... : D-3 00 8 ... ... ... : G#2 00 . P8D : C-# 00 F ... : ... .. . ... ... : ... .. . ... ... : ... .. . ... ... : ... .. 6 ... ...
ROW EB : ... .. B ... ... ... : ... .. 7 ... ... ... : G-2 00 . ... : ... .. C ... : ... .. . ... ... : ... .. . ... ... : ... .. . ... ... : ... .. . ... ...
ROW EC : ... .. A ... ... ... : ... .. . ... ... ... : F#2 00 . P8F : ... .. 6 ... : ... .. . ... ... : ... .. . ... ... : ... .. . ... ... : ... .. . ... ...
ROW ED : ... .. 8 ... ... ... : ... .. 6 ... ... ... : ... .. . P6F : ... .. 3 ... : ... .. . ... ... : ... .. . ... ... : ... .. . ... ... : ... .. . ... ...
ROW EE : ... .. . ... ... ... : ... .. 5 ... ... ... : F-2 00 . P73 : ... .. 2 ... : ... .. . ... ... : ... .. . ... ... : ... .. . ... ... : ... .. 3 ... ...
ROW EF : ... .. . ... ... ... : ... .. 4 ... ... ... : E-2 00 . P79 : ... .. 0 ... : ... .. . ... ... : ... .. . ... ... : ... .. . ... ... : ... .. . ... ...
ROW F0 : D-4 00 C ... ... ... : A#2 00 8 ... ... ... : F-4 00 . P80 : 7-# 00 F ... : ... .. . ... ... : F-2 01 A ... ... : F-3 01 A ... ... : ... .. C ... ...
ROW F1 : ... .. B ... ... ... : ... .. 7 ... ... ... : G-3 00 . ... : ... .. C ... : ... .. . ... ... : ... .. 9 ... ... : ... .. 9 ... ... : ... .. A ... ...
ROW F2 : ... .. A ... ... ... : ... .. . ... ... ... : C-3 00 . ... : ... .. 6 ... : ... .. . ... ... : ... .. 8 ... ... : ... .. 8 ... ... : ... .. 6 ... ...
ROW F3 : ... .. 8 ... ... ... : ... .. 6 ... ... ... : B-2 00 . ... : ... .. 3 ... : ... .. . ... ... : ... .. 7 ... ... : ... .. 7 ... ... : ... .. . ... ...
ROW F4 : ... .. . ... ... ... : ... .. 5 ... ... ... : F#2 00 . ... : ... .. 2 ... : ... .. . ... ... : ... .. . ... ... : ... .. . ... ... : ... .. 3 ... ...
ROW F5 : ... .. . ... ... ... : ... .. 4 ... ... ... : ... .. . ... : ... .. 0 ... : ... .. . ... ... : ... .. 6 ... ... : ... .. 6 ... ... : ... .. . ... ...
ROW F6 : C-4 00 C ... ... ... : F-2 00 8 ... ... ... : ... .. . ... : 1-# 00 F ... : ... .. . ... ... : ... .. . ... ... : ... .. . ... ... : ... .. 1 ... ...
ROW F7 : ... .. B ... ... ... : ... .. 7 ... ... ... : ... .. . ... : ... .. C ... : ... .. . ... ... : ... .. 5 ... ... : ... .. 5 ... ... : ... .. . ... ...
ROW F8 : ... .. A ... ... ... : ... .. . ... ... ... : ... .. . ... : ... .. 6 ... : ... .. . ... ... : ... .. . ... ... : ... .. . ... ... : F-3 01 C ... ...
ROW F9 : ... .. 8 ... ... ... : ... .. 6 ... ... ... : ... .. . ... : ... .. 3 ... : ... .. . ... ... : ... .. . ... ... : ... .. . ... ... : ... .. A ... ...
ROW FA : ... .. . ... ... ... : ... .. 5 ... ... ... : ... .. . ... : ... .. 2 ... : ... .. . ... ... : ... .. . ... ... : ... .. . ... ... : ... .. 6 ... ...
ROW FB : ... .. . ... ... ... : ... .. 4 ... ... ... : ... .. . ... : ... .. 0 ... : ... .. . ... ... : ... .. . ... ... : ... .. . ... ... : ... .. . ... ...
ROW FC : A#3 00 C ... ... ... : D-2 00 8 ... ... ... : ... .. . ... : C-# 00 F ... : ... .. . ... ... : ... .. . ... ... : ... .. . ... ... : ... .. . ... ...
ROW FD : ... .. B ... ... ... : ... .. 7 ... ... ... : ... .. . ... : ... .. C ... : ... .. . ... ... : ... .. . ... ... : ... .. . ... ... : ... .. 3 ... ...
ROW FE : ... .. A ... ... ... : ... .. . ... ... ... : ... .. . ... : ... .. 6 ... : ... .. . ... ... : ... .. . ... ... : ... .. . ... ... : ... .. . ... ...
ROW FF : ... .. 8 ... ... ... : ... .. 6 ... ... ... : ... .. . ... : ... .. 3 ... : ... .. . ... ... : ... .. . ... ... : ... .. . ... ... : ... .. 1 ... ...

PATTERN 13
ROW 00 : ... .. . ... ... ... : ... .. 5 ... ... ... : ... .. . ... : ... .. 2 ... : ... .. . ... ... : ... .. . ... ... : ... .. . ... ... : E-3 01 C ... ...
ROW 01 : ... .. . ... ... ... : ... .. 4 ... ... ... : ... .. . ... : ... .. 0 ... : ... .. . ... ... : ... .. . ... ... : ... .. . ... ... : ... .. A ... ...
ROW 02 : A-3 00 C ... ... ... : A#1 00 8 ... ... ... : ... .. . ... : 7-# 00 F ... : ... .. . ... ... : ... .. . ... ... : ... .. . ... ... : ... .. 6 ... ...
ROW 03 : ... .. B ... ... ... : ... .. 7 ... ... ... : ... .. . ... : ... .. C ... : ... .. . ... ... : ... .. . ... ... : ... .. . ... ... : ... .. . ... ...
ROW 04 : ... .. A ... ... ... : ... .. . ... ... ... : ... .. . ... : ... .. 6 ... : ... .. . ... ... : ... .. . ... ... : ... .. . ... ... : ... .. . ... ...
ROW 05 : ... .. 8 ... ... ... : ... .. 6 ... ... ... : ... .. . ... : ... .. 3 ... : ... .. . ... ... : ... .. . ... ... : ... .. . ... ... : ... .. . ... ...
ROW 06 : ... .. . ... ... ... : ... .. 5 ... ... ... : ... .. . ... : ... .. 2 ... : ... .. . ... ... : ... .. . ... ... : ... .. . ... ... : ... .. 3 ... ...
ROW 07 : ... .. . ... ... ... : ... .. 4 ... ... ... : ... .. . ... : ... .. 0 ... : ... .. . ... ... : ... .. . ... ... : ... .. . ... ... : ... .. . ... ...
ROW 08 : C-4 00 C ... ... ... : D-4 00 8 ... ... ... : F-5 00 . ... : 1-# 00 F ... : ... .. . ... ... : A#2 01 A ... ... : A#3 01 A ... ... : ... .. C ... ...
ROW 09 : ... .. B ... ... ... : ... .. 7 ... ... ... : G-4 00 . ... : ... .. C ... : ... .. . ... ... : ... .. 9 ... ... : ... .. 9 ... ... : ... .. A ... ...
ROW 0A : ... .. A ... ... ... : ... .. . ... ... ... : C-4 00 . ... : ... .. 6 ... : ... .. . ... ... : ... .. 8 ... ... : ... .. 8 ... ... : ... .. 6 ... ...
ROW 0B : ... .. 8 ... ... ... : ... .. 6 ... ... ... : B-3 00 . ... : ... .. 3 ... : ... .. . ... ... : ... .. 7 ... ... : ... .. 7 ... ... : ... .. . ... ...
ROW 0C : ... .. . ... ... ... : ... .. 5 ... ... ... : F#3 00 . ... : ... .. 2 ... : ... .. . ... ... : ... .. . ... ... : ... .. . ... ... : ... .. 3 ... ...
ROW 0D : ... .. . ... ... ... : ... .. 4 ... ... ... : ... .. . ... : ... .. 0 ... : ... .. . ... ... : ... .. 6 ... ... : ... .. 6 ... ... : ... .. . ... ...
ROW 0E : A#3 00 C ... ... ... : A#3 00 8 ... ... ... : ... .. . ... : B-# 00 F ... : ... .. . ... ... : ... .. . ... ... : ... .. . ... ... : ... .. 1 ... ...
ROW 0F : ... .. B ... ... ... : ... .. 7 ... ... ... : ... .. . ... : ... .. C ... : ... .. . ... ... : ... .. 5 ... ... : ... .. 5 ... ... : ... .. . ... ...
ROW 10 : ... .. A ... ... ... : ... .. . ... ... ... : ... .. . ... : ... .. 6 ... : ... .. . ... ... : ... .. . ... ... : ... .. . ... ... : F-3 01 C ... ...
ROW 11 : ... .. 8 ... ... ... : ... .. 6 ... ... ... : ... .. . ... : ... .. 3 ... : ... .. . ... ... : ... .. . ... ... : ... .. . ... ... : ... .. A ... ...
ROW 12 : ... .. . ... ... ... : ... .. 5 ... ... ... : ... .. . ... : ... .. 2 ... : ... .. . ... ... : ... .. . ... ... : ... .. . ... ... : ... .. 6 ... ...
ROW 13 : ... .. . ... ... ... : ... .. 4 ... ... ... : ... .. . ... : ... .. 0 ... : ... .. . ... ... : ... .. . ... ... : ... .. . ... ... : ... .. . ... ...
ROW 14 : A-3 00 C ... ... ... : F-3 00 8 ... ... ... : E-3 00 . P85 : 7-# 00 F ... : ... .. . ... ... : ... .. . ... ... : ... .. . ... ... : ... .. . ... ...
ROW 15 : ... .. B ... ... ... : ... .. 7 ... ... ... : D#3 00 . P7A : ... .. C ... : ... .. . ... ... : ... .. . ... ... : ... .. . ... ... : ... .. 3 ... ...
ROW 16 : ... .. A ... ... ... : ... .. . ... ... ... : C#3 00 . P86 : ... .. 6 ... : ... .. . ... ... : ... .. . ... ... : ... .. . ... ... : ... .. . ... ...
ROW 17 : ... .. 8 ... ... ... : ... .. 6 ... ... ... : C-3 00 . P7E : ... .. 3 ... : ... .. . ... ... : ... .. . ... ... : ... .. . ... ... : ... .. 1 ... ...
ROW 18 : ... .. . ... ... ... : ... .. 5 ... ... ... : B-2 00 . P77 : ... .. 2 ... : ... .. . ... ... : ... .. . ... ... : ... .. . ... ... : E-3 01 C ... ...
ROW 19 : ... .. . ... ... ... : ... .. 4 ... ... ... : A-2 00 . P8E : ... .. 0 ... : ... .. . ... ... : ... .. . ... ... : ... .. . ... ... : ... .. A ... ...
ROW 1A : G-3 00 C ... ... ... : D-3 00 8 ... ... ... : G#2 00 . P8D : 1-# 00 F ... : ... .. . ... ... : C-3 01 A ... ... : C-4 01 A ... ... : ... .. 6 ... ...
ROW 1B : ... .. B ... ... ... : ... .. 7 ... ... ... : G-2 00 . ... : ... .. C ... : ... .. . ... ... : ... .. 9 ... ... : ... .. 9 ... ... : ... .. . ... ...
ROW 1C : ... .. A ... ... ... : ... .. . ... ... ... : F#2 00 . P8F : ... .. 6 ... : ... .. . ... ... : ... .. 8 ... ... : ... .. 8 ... ... : ... .. . ... ...
ROW 1D : ... .. 8 ... ... ... : ... .. 6 ... ... ... : ... .. . P6F : ... .. 3 ... : ... .. . ... ... : ... .. 7 ... ... : ... .. 7 ... ... : ... .. . ... ...
ROW 1E : ... .. . ... ... ... : ... .. 5 ... ... ... : F-2 00 . P73 : ... .. 2 ... : ... .. . ... ... : ... .. . ... ... : ... .. . ... ... : ... .. 3 ... ...
ROW 1F : ... .. . ... ... ... : ... .. 4 ... ... ... : E-2 00 . P79 : ... .. 0 ... : ... .. . ... ... : ... .. 6 ... ... : ... .. 6 ... ... : ... .. . ... ...
ROW 20 : F-3 00 C ... ... ... : A#2 00 8 ... ... ... : F-4 00 . P80 : 9-# 00 F ... : ... .. . ... ... : ... .. . ... ... : ... .. . ... ... : ... .. C ... ...
ROW 21 : ... .. B ... ... ... : ... .. 7 ... ... ... : G-3 00 . ... : ... .. C ... : ... .. . ... ... : ... .. 5 ... ... : ... .. 5 ... ... : ... .. A ... ...
ROW 22 : ... .. A ... ... ... : ... .. . ... ... ... : C-3 00 . ... : ... .. 6 ... : ... .. . ... ... : ... .. . ... ... : ... .. . ... ... : ... .. 6 ... ...
ROW 23 : ... .. 8 ... ... ... : ... .. 6 ... ... ... : B-2 00 . ... : ... .. 3 ... : ... .. . ... ... : ... .. . ... ... : ... .. . ... ... : ... .. . ... ...
ROW 24 : ... .. . ... ... ... : ... .. 5 ... ... ... : F#2 00 . ... : ... .. 2 ... : ... .. . ... ... : ... .. . ... ... : ... .. . ... ... : ... .. 3 ... ...
ROW 25 : ... .. . ... ... ... : ... .. 4 ... ... ... : ... .. . ... : ... .. 0 ... : ... .. . ... ... : ... .. . ... ... : ... .. . ... ... : ... .. . ... ...
ROW 26 : E-3 00 C ... ... ... : F-2 00 8 ... ... ... : ... .. . ... : ... .. F ... : ... .. . ... ... : ... .. . ... ... : ... .. . ... ... : ... .. 1 ... ...
ROW 27 : ... .. B ... ... ... : ... .. 7 ... ... ... : ... .. . ... : ... .. C ... : ... .. . ... ... : ... .. . ... ... : ... .. . ... ... : ... .. . ... ...
ROW 28 : ... .. A ... ... ... : ... .. . ... ... ... : ... .. . ... : ... .. 6 ... : ... .. . ... ... : ... .. . ... ... : ... .. . ... ... : F-3 01 C ... ...
ROW 29 : ... .. 8 ... ... ... : ... .. 6 ... ... ... : ... .. . ... : ... .. 3 ... : ... .. . ... ... : ... .. . ... ... : ... .. . ... ... : ... .. A ... ...
ROW 2A : ... .. . ... ... ... : ... .. 5 ... ... ... : ... .. . ... : ... .. 2 ... : ... .. . ... ... : ... .. . ... ... : ... .. . ... ... : ... .. 6 ... ...
ROW 2B : ... .. . ... ... ... : ... .. 4 ... ... ... : ... .. . ... : ... .. 0 ... : ... .. . ... ... : ... .. . ... ... : ... .. . ... ... : ... .. . ... ...
ROW 2C : D-3 00 C ... ... ... : D-2 00 8 ... ... ... : ... .. . ... : 7-# 00 F ... : ... .. . ... ... : D-3 01 A ... ... : D-4 01 A ... ... : ... .. . ... ...
ROW 2D : ... .. B ... ... ... : ... .. 7 ... ... ... : ... .. . ... : ... .. C ... : ... .. . ... ... : ... .. 9 ... ... : ... .. 9 ... ... : ... .. 3 ... ...
ROW 2E : ... .. A ... ... ... : ... .. . ... ... ... : ... .. . ... : ... .. 6 ... : ... .. . ... ... : ... .. 8 ... ... : ... .. 8 ... ... : ... .. . ... ...
ROW 2F : ... .. 8 ... ... ... : ... .. 6 ... ... ... : ... .. . ... : ... .. 3 ... : ... .. . ... ... : ... .. 7 ... ... : ... .. 7 ... ... : ... .. 1 ... ...
ROW 30 : ... .. . ... ... ... : ... .. 5 ... ... ... : ... .. . ... : ... .. 2 ... : ... .. . ... ... : ... .. . ... ... : ... .. . ... ... : E-3 01 C ... ...
ROW 31 : ... .. . ... ... ... : ... .. 4 ... ... ... : ... .. . ... : ... .. 0 ... : ... .. . ... ... : ... .. 6 ... ... : ... .. 6 ... ... : ... .. A ... ...
ROW 32 : C-3 00 C ... ... ... : A#1 00 8 ... ... ... : ... .. . ... : ... .. F ... : ... .. . ... ... : ... .. . ... ... : ... .. . ... ... : ... .. 6 ... ...
ROW 33 : ... .. B ... ... ... : ... .. 7 ... ... ... : ... .. . ... : ... .. C ... : ... .. . ... ... : ... .. 5 ... ... : ... .. 5 ... ... : ... .. . ... ...
ROW 34 : ... .. A ... ... ... : ... .. . ... ... ... : ... .. . ... : ... .. 6 ... : ... .. . ... ... : ... .. . ... ... : ... .. . ... ... : ... .. . ... ...
ROW 35 : ... .. 8 ... ... ... : ... .. 6 ... ... ... : ... .. . ... : ... .. 3 ... : ... .. . ... ... : ... .. . ... ... : ... .. . ... ... : ... .. . ... ...
ROW 36 : ... .. . ... ... ... : ... .. 5 ... ... ... : ... .. . ... : ... .. 2 ... : ... .. . ... ... : ... .. . ... ... : ... .. . ... ... : ... .. 3 ... ...
ROW 37 : ... .. . ... ... ... : ... .. 4 ... ... ... : ... .. . ... : ... .. 0 ... : ... .. . ... ... : ... .. . ... ... : ... .. . ... ... : ... .. . ... ...
ROW 38 : A#2 00 C ... ... ... : C-4 00 8 ... ... ... : F-5 00 . ... : 9-# 00 F ... : ... .. . ... ... : C-3 01 A ... ... : C-4 01 A ... ... : F#3 01 C ... ...
ROW 39 : ... .. B ... ... ... : ... .. 7 ... ... ... : G-4 00 . ... : ... .. C ... : ... .. . ... ... : ... .. 9 ... ... : ... .. 9 ... ... : ... .. A ... ...
ROW 3A : ... .. A ... ... ... : ... .. . ... ... ... : C-4 00 . ... : ... .. 6 ... : ... .. . ... ... : ... .. 8 ... ... : ... .. 8 ... ... : ... .. 6 ... ...
ROW 3B : ... .. 8 ... ... ... : ... .. 6 ... ... ... : B-3 00 . ... : ... .. 3 ... : ... .. . ... ... : ... .. 7 ... ... : ... .. 7 ... ... : ... .. . ... ...
ROW 3C : ... .. . ... ... ... : ... .. 5 ... ... ... : F#3 00 . ... : ... .. 2 ... : ... .. . ... ... : ... .. . ... ... : ... .. . ... ... : ... .. 3 ... ...
ROW 3D : ... .. . ... ... ... : ... .. 4 ... ... ... : ... .. . ... : ... .. 0 ... : ... .. . ... ... : ... .. 6 ... ... : ... .. 6 ... ... : ... .. . ... ...
ROW 3E : G#2 00 C ... ... ... : G#3 00 8 ... ... ... : ... .. . ... : 2-# 00 F ... : ... .. . ... ... : ... .. . ... ... : ... .. . ... ... : ... .. 1 ... ...
ROW 3F : ... .. B ... ... ... : ... .. 7 ... ... ... : ... .. . ... : ... .. C ... : ... .. . ... ... : ... .. 5 ... ... : ... .. 5 ... ... : ... .. . ... ...
ROW 40 : ... .. A ... ... ... : ... .. . ... ... ... : ... .. . ... : ... .. 6 ... : ... .. . ... ... : ... .. . ... ... : ... .. . ... ... : G#3 01 C ... ...
ROW 41 : ... .. 8 ... ... ... : ... .. 6 ... ... ... : ... .. . ... : ... .. 3 ... : ... .. . ... ... : ... .. . ... ... : ... .. . ... ... : ... .. A ... ...
ROW 42 : ... .. . ... ... ... : ... .. 5 ... ... ... : ... .. . ... : ... .. 2 ... : ... .. . ... ... : ... .. . ... ... : ... .. . ... ... : ... .. 6 ... ...
ROW 43 : ... .. . ... ... ... : ... .. 4 ... ... ... : ... .. . ... : ... .. 0 ... : ... .. . ... ... : ... .. . ... ... : ... .. . ... ... : ... .. . ... ...
ROW 44 : F#2 00 C ... ... ... : D#3 00 8 ... ... ... : E-3 00 . P85 : 1-# 00 F ... : ... .. . ... ... : ... .. . ... ... : ... .. . ... ... : ... .. . ... ...
ROW 45 : ... .. B ... ... ... : ... .. 7 ... ... ... : D#3 00 . P7A : ... .. C ... : ... .. . ... ... : ... .. . ... ... : ... .. . ... ... : ... .. 3 ... ...
ROW 46 : ... .. A ... ... ... : ... .. . ... ... ... : C#3 00 . P86 : ... .. 6 ... : ... .. . ... ... : ... .. . ... ... : ... .. . ... ... : ... .. . ... ...
ROW 47 : ... .. 8 ... ... ... : ... .. 6 ... ... ... : C-3 00 . P7E : ... .. 3 ... : ... .. . ... ... : ... .. . ... ... : ... .. . ... ... : ... .. 1 ... ...
ROW 48 : ... .. . ... ... ... : ... .. 5 ... ... ... : B-2 00 . P77 : ... .. 2 ... : ... .. . ... ... : ... .. . ... ... : ... .. . ... ... : F#3 01 C ... ...
ROW 49 : ... .. . ... ... ... : ... .. 4 ... ... ... : A-2 00 . P8E : ... .. 0 ... : ... .. . ... ... : ... .. . ... ... : ... .. . ... ... : ... .. A ... ...
ROW 4A : E-2 00 C ... ... ... : C-3 00 8 ... ... ... : G#2 00 . P8D : C-# 00 F ... : ... .. . ... ... : ... .. . ... ... : ... .. . ... ... : ... .. 6 ... ...
ROW 4B : ... .. B ... ... ... : ... .. 7 ... ... ... : G-2 00 . ... : ... .. C ... : ... .. . ... ... : ... .. . ... ... : ... .. . ... ... : ... .. . ... ...
ROW 4C : ... .. A ... ... ... : ... .. . ... ... ... : F#2 00 . P8F : ... .. 6 ... : ... .. . ... ... : ... .. . ... ... : ... .. . ... ... : ... .. . ... ...
ROW 4D : ... .. 8 ... ... ... : ... .. 6 ... ... ... : ... .. . P6F : ... .. 3 ... : ... .. . ... ... : ... .. . ... ... : ... .. . ... ... : ... .. . ... ...
ROW 4E : ... .. . ... ... ... : ... .. 5 ... ... ... : F-2 00 . P73 : ... .. 2 ... : ... .. . ... ... : ... .. . ... ... : ... .. . ... ... : ... .. 3 ... ...
ROW 4F : ... .. . ... ... ... : ... .. 4 ... ... ... : E-2 00 . P79 : ... .. 0 ... : ... .. . ... ... : ... .. . ... ... : ... .. . ... ... : ... .. . ... ...
ROW 50 : D-2 00 C ... ... ... : G#2 00 8 ... ... ... : F-4 00 . P80 : 7-# 00 F ... : ... .. . ... ... : F#3 01 A ... ... : ... .. . ... ... : ... .. C ... ...
ROW 51 : ... .. B ... ... ... : ... .. 7 ... ... ... : G-3 00 . ... : ... .. C ... : ... .. . ... ... : ... .. 9 ... ... : ... .. . ... ... : ... .. A ... ...
ROW 52 : ... .. A ... ... ... : ... .. . ... ... ... : C-3 00 . ... : ... .. 6 ... : ... .. . ... ... : ... .. 8 ... ... : ... .. . ... ... : ... .. 6 ... ...
ROW 53 : ... .. 8 ... ... ... : ... .. 6 ... ... ... : B-2 00 . ... : ... .. 3 ... : ... .. . ... ... : ... .. 7 ... ... : ... .. . ... ... : ... .. . ... ...
ROW 54 : ... .. . ... ... ... : ... .. 5 ... ... ... : F#2 00 . ... : ... .. 2 ... : ... .. . ... ... : ... .. . ... ... : ... .. . ... ... : ... .. 3 ... ...
ROW 55 : ... .. . ... ... ... : ... .. 4 ... ... ... : ... .. . ... : ... .. 0 ... : ... .. . ... ... : ... .. 6 ... ... : ... .. . ... ... : ... .. . ... ...
ROW 56 : C-2 00 C ... ... ... : D#2 00 8 ... ... ... : ... .. . ... : 1-# 00 F ... : ... .. . ... ... : G#3 01 A ... ... : ... .. . ... ... : ... .. 1 ... ...
ROW 57 : ... .. B ... ... ... : ... .. 7 ... ... ... : ... .. . ... : ... .. C ... : ... .. . ... ... : ... .. 9 ... ... : ... .. . ... ... : ... .. . ... ...
ROW 58 : ... .. A ... ... ... : ... .. . ... ... ... : ... .. . ... : ... .. 6 ... : ... .. . ... ... : ... .. 8 ... ... : ... .. . ... ... : G#3 01 C ... ...
ROW 59 : ... .. 8 ... ... ... : ... .. 6 ... ... ... : ... .. . ... : ... .. 3 ... : ... .. . ... ... : ... .. 7 ... ... : ... .. . ... ... : ... .. A ... ...
ROW 5A : ... .. . ... ... ... : ... .. 5 ... ... ... : ... .. . ... : ... .. 2 ... : ... .. . ... ... : ... .. . ... ... : ... .. . ... ... : ... .. 6 ... ...
ROW 5B : ... .. . ... ... ... : ... .. 4 ... ... ... : ... .. . ... : ... .. 0 ... : ... .. . ... ... : ... .. 6 ... ... : ... .. . ... ... : ... .. . ... ...
ROW 5C : A#1 00 C ... ... ... : C-2 00 8 ... ... ... : ... .. . ... : C-# 00 F ... : ... .. . ... ... : C-4 01 A ... ... : ... .. . ... ... : ... .. . ... ...
ROW 5D : ... .. B ... ... ... : ... .. 7 ... ... ... : ... .. . ... : ... .. C ... : ... .. . ... ... : ... .. 9 ... ... : ... .. . ... ... : ... .. 3 ... ...
ROW 5E : ... .. A ... ... ... : ... .. . ... ... ... : ... .. . ... : ... .. 6 ... : ... .. . ... ... : ... .. 8 ... ... : ... .. . ... ... : ... .. . ... ...
ROW 5F : ... .. 8 ... ... ... : ... .. 6 ... ... ... : ... .. . ... : ... .. 3 ... : ... .. . ... ... : ... .. 7 ... ... : ... .. . ... ... : ... .. 1 ... ...
ROW 60 : ... .. . ... ... ... : ... .. 5 ... ... ... : ... .. . ... : ... .. 2 ... : ... .. . ... ... : ... .. . ... ... : ... .. . ... ... : F#3 01 C ... ...
ROW 61 : ... .. . ... ... ... : ... .. 4 ... ... ... : ... .. . ... : ... .. 0 ... : ... .. . ... ... : ... .. 6 ... ... : ... .. . ... ... : ... .. A ... ...
ROW 62 : G#1 00 C ... ... ... : G#1 00 8 ... ... ... : ... .. . ... : 7-# 00 F ... : ... .. . ... ... : D#4 01 A ... ... : ... .. . ... ... : ... .. 6 ... ...
ROW 63 : ... .. B ... ... ... : ... .. 7 ... ... ... : ... .. . ... : ... .. C ... : ... .. . ... ... : ... .. 9 ... ... : ... .. . ... ... : ... .. . ... ...
ROW 64 : ... .. A ... ... ... : ... .. . ... ... ... : ... .. . ... : ... .. 6 ... : ... .. . ... ... : ... .. 8 ... ... : ... .. . ... ... : ... .. . ... ...
ROW 65 : ... .. 8 ... ... ... : ... .. 6 ... ... ... : ... .. . ... : ... .. 3 ... : ... .. . ... ... : ... .. 7 ... ... : ... .. . ... ... : ... .. . ... ...
ROW 66 : ... .. . ... ... ... : ... .. 5 ... ... ... : ... .. . ... : ... .. 2 ... : ... .. . ... ... : ... .. . ... ... : ... .. . ... ... : ... .. 3 ... ...
ROW 67 : ... .. . ... ... ... : ... .. 4 ... ... ... : ... .. . ... : ... .. 0 ... : ... .. . ... ... : ... .. 6 ... ... : ... .. . ... ... : ... .. . ... ...
ROW 68 : F#1 00 C ... ... ... : C-4 00 8 ... ... ... : F-5 00 . ... : 1-# 00 F ... : ... .. . ... ... : D-4 01 A ... ... : ... .. . ... ... : ... .. C ... ...
ROW 69 : ... .. B ... ... ... : ... .. 7 ... ... ... : G-4 00 . ... : ... .. C ... : ... .. . ... ... : ... .. 9 ... ... : ... .. . ... ... : ... .. A ... ...
ROW 6A : ... .. A ... ... ... : ... .. . ... ... ... : C-4 00 . ... : ... .. 6 ... : ... .. . ... ... : ... .. 8 ... ... : ... .. . ... ... : ... .. 6 ... ...
ROW 6B : ... .. 8 ... ... ... : ... .. 6 ... ... ... : B-3 00 . ... : ... .. 3 ... : ... .. . ... ... : ... .. 7 ... ... : ... .. . ... ... : ... .. . ... ...
ROW 6C : ... .. . ... ... ... : ... .. 5 ... ... ... : F#3 00 . ... : ... .. 2 ... : ... .. . ... ... : ... .. . ... ... : ... .. . ... ... : ... .. 3 ... ...
ROW 6D : ... .. . ... ... ... : ... .. 4 ... ... ... : ... .. . ... : ... .. 0 ... : ... .. . ... ... : ... .. 6 ... ... : ... .. . ... ... : ... .. . ... ...
ROW 6E : ... .. . ... ... ... : G#3 00 8 ... ... ... : ... .. . ... : B-# 00 F ... : ... .. . ... ... : D#4 01 A ... ... : ... .. . ... ... : ... .. 1 ... ...
ROW 6F : ... .. . ... ... ... : ... .. 7 ... ... ... : ... .. . ... : ... .. C ... : ... .. . ... ... : ... .. 9 ... ... : ... .. . ... ... : ... .. . ... ...
ROW 70 : ... .. . ... ... ... : ... .. . ... ... ... : ... .. . ... : ... .. 6 ... : ... .. . ... ... : ... .. 8 ... ... : ... .. . ... ... : G#3 01 C ... ...
ROW 71 : ... .. . ... ... ... : ... .. 6 ... ... ... : ... .. . ... : ... .. 3 ... : ... .. . ... ... : ... .. 7 ... ... : ... .. . ... ... : ... .. A ... ...
ROW 72 : ... .. . ... ... ... : ... .. 5 ... ... ... : ... .. . ... : ... .. 2 ... : ... .. . ... ... : ... .. . ... ... : ... .. . ... ... : ... .. 6 ... ...
ROW 73 : ... .. . ... ... ... : ... .. 4 ... ... ... : ... .. . ... : ... .. 0 ... : ... .. . ... ... : ... .. 6 ... ... : ... .. . ... ... : ... .. . ... ...
ROW 74 : ... .. . ... ... ... : D#3 00 8 ... ... ... : E-3 00 . P85 : 7-# 00 F ... : ... .. . ... ... : F#4 01 A ... ... : ... .. . ... ... : ... .. . ... ...
ROW 75 : ... .. . ... ... ... : ... .. 7 ... ... ... : D#3 00 . P7A : ... .. C ... : ... .. . ... ... : ... .. 9 ... ... : ... .. . ... ... : ... .. 3 ... ...
ROW 76 : ... .. . ... ... ... : ... .. . ... ... ... : C#3 00 . P86 : ... .. 6 ... : ... .. . ... ... : ... .. 8 ... ... : ... .. . ... ... : ... .. . ... ...
ROW 77 : ... .. . ... ... ... : ... .. 6 ... ... ... : C-3 00 . P7E : ... .. 3 ... : ... .. . ... ... : ... .. 7 ... ... : ... .. . ... ... : ... .. 1 ... ...
ROW 78 : ... .. . ... ... ... : ... .. 5 ... ... ... : B-2 00 . P77 : ... .. 2 ... : ... .. . ... ... : ... .. . ... ... : ... .. . ... ... : F#3 01 C ... ...
ROW 79 : ... .. . ... ... ... : ... .. 4 ... ... ... : A-2 00 . P8E : ... .. 0 ... : ... .. . ... ... : ... .. 6 ... ... : ... .. . ... ... : ... .. A ... ...
ROW 7A : F#2 00 C ... ... ... : C-3 00 8 ... ... ... : G#2 00 . P8D : 1-# 00 F ... : ... .. . ... ... : G#4 01 A ... ... : ... .. . ... ... : ... .. 6 ... ...
ROW 7B : ... .. B ... ... ... : ... .. 7 ... ... ... : G-2 00 . ... : ... .. C ... : ... .. . ... ... : ... .. 9 ... ... : ... .. . ... ... : ... .. . ... ...
ROW 7C : ... .. A ... ... ... : ... .. . ... ... ... : F#2 00 . P8F : ... .. 6 ... : ... .. . ... ... : ... .. 8 ... ... : ... .. . ... ... : ... .. . ... ...
ROW 7D : ... .. 0 ... ... ... : ... .. 6 ... ... ... : ... .. . P6F : ... .. 3 ... : ... .. . ... ... : ... .. 7 ... ... : ... .. . ... ... : ... .. . ... ...
ROW 7E : ... .. . ... ... ... : ... .. 5 ... ... ... : F-2 00 . P73 : ... .. 2 ... : ... .. . ... ... : ... .. . ... ... : ... .. . ... ... : ... .. 3 ... ...
ROW 7F : ... .. . ... ... ... : ... .. 4 ... ... ... : E-2 00 . P79 : ... .. 0 ... : ... .. . ... ... : ... .. 6 ... ... : ... .. . ... ... : ... .. . ... ...
ROW 80 : F#3 00 C P80 ... ... : G#2 00 8 ... ... ... : F-4 00 . P80 : 9-# 00 F ... : ... .. . ... ... : F#4 01 A ... ... : ... .. . ... ... : ... .. C ... ...
ROW 81 : ... .. B ... ... ... : ... .. 7 ... ... ... : G-3 00 . ... : ... .. C ... : ... .. . ... ... : ... .. 9 ... ... : ... .. . ... ... : ... .. A ... ...
ROW 82 : ... .. A ... ... ... : ... .. . ... ... ... : C-3 00 . ... : ... .. 6 ... : ... .. . ... ... : ... .. 8 ... ... : ... .. . ... ... : ... .. 6 ... ...
ROW 83 : ... .. 8 ... ... ... : ... .. 6 ... ... ... : B-2 00 . ... : ... .. 3 ... : ... .. . ... ... : ... .. 7 ... ... : ... .. . ... ... : ... .. . ... ...
ROW 84 : ... .. . ... ... ... : ... .. 5 ... ... ... : F#2 00 . ... : ... .. 2 ... : ... .. . ... ... : ... .. . ... ... : ... .. . ... ... : ... .. 3 ... ...
ROW 85 : ... .. . ... ... ... : ... .. 4 ... ... ... : ... .. . ... : ... .. 0 ... : ... .. . ... ... : ... .. 6 ... ... : ... .. . ... ... : ... .. . ... ...
ROW 86 : ... .. . ... ... ... : D#2 00 8 ... ... ... : ... .. . ... : ... .. F ... : ... .. . ... ... : G#4 01 A ... ... : ... .. . ... ... : ... .. 1 ... ...
ROW 87 : ... .. . ... ... ... : ... .. 7 ... ... ... : ... .. . ... : ... .. C ... : ... .. . ... ... : ... .. 9 ... ... : ... .. . ... ... : ... .. . ... ...
ROW 88 : ... .. . ... ... ... : ... .. . ... ... ... : ... .. . ... : ... .. 6 ... : ... .. . ... ... : ... .. 8 ... ... : ... .. . ... ... : G#3 01 C ... ...
ROW 89 : ... .. . ... ... ... : ... .. 6 ... ... ... : ... .. . ... : ... .. 3 ... : ... .. . ... ... : ... .. 7 ... ... : ... .. . ... ... : ... .. A ... ...
ROW 8A : ... .. . ... ... ... : ... .. 5 ... ... ... : ... .. . ... : ... .. 2 ... : ... .. . ... ... : ... .. . ... ... : ... .. . ... ... : ... .. 6 ... ...
ROW 8B : ... .. . ... ... ... : ... .. 4 ... ... ... : ... .. . ... : ... .. 0 ... : ... .. . ... ... : ... .. 6 ... ... : ... .. . ... ... : ... .. . ... ...
ROW 8C : ... .. . ... ... ... : C-2 00 8 ... ... ... : ... .. . ... : 7-# 00 F ... : ... .. . ... ... : C-5 01 A ... ... : ... .. . ... ... : ... .. . ... ...
ROW 8D : ... .. . ... ... ... : ... .. 7 ... ... ... : ... .. . ... : ... .. C ... : ... .. . ... ... : ... .. 9 ... ... : ... .. . ... ... : ... .. 3 ... ...
ROW 8E : ... .. . ... ... ... : ... .. . ... ... ... : ... .. . ... : ... .. 6 ... : ... .. . ... ... : ... .. 8 ... ... : ... .. . ... ... : ... .. . ... ...
ROW 8F : ... .. . ... ... ... : ... .. 6 ... ... ... : ... .. . ... : ... .. 3 ... : ... .. . ... ... : ... .. 7 ... ... : ... .. . ... ... : ... .. 1 ... ...
ROW 90 : ... .. . ... ... ... : ... .. 5 ... ... ... : ... .. . ... : ... .. 2 ... : ... .. . ... ... : ... .. . ... ... : ... .. . ... ... : F#3 01 C ... ...
ROW 91 : ... .. . ... ... ... : ... .. 4 ... ... ... : ... .. . ... : ... .. 0 ... : ... .. . ... ... : ... .. 6 ... ... : ... .. . ... ... : ... .. A ... ...
ROW 92 : ... .. . ... ... ... : G#1 00 8 ... ... ... : ... .. . ... : ... .. F ... : ... .. . ... ... : D-5 01 A ... ... : ... .. . ... ... : ... .. 6 ... ...
ROW 93 : ... .. . ... ... ... : ... .. 7 ... ... ... : ... .. . ... : ... .. C ... : ... .. . ... ... : ... .. 9 ... ... : ... .. . ... ... : ... .. . ... ...
ROW 94 : ... .. . ... ... ... : ... .. . ... ... ... : ... .. . ... : ... .. 6 ... : ... .. . ... ... : ... .. 8 ... ... : ... .. . ... ... : ... .. . ... ...
ROW 95 : ... .. 0 ... ... ... : ... .. 6 ... ... ... : ... .. . ... : ... .. 3 ... : ... .. . ... ... : ... .. 7 ... ... : ... .. . ... ... : ... .. . ... ...
ROW 96 : ... .. . ... ... ... : ... .. 5 ... ... ... : ... .. . ... : ... .. 2 ... : ... .. . ... ... : ... .. . ... ... : ... .. . ... ... : ... .. 3 ... ...
ROW 97 : ... .. . ... ... ... : ... .. 4 ... ... ... : ... .. . ... : ... .. 0 ... : ... .. . ... ... : ... .. 6 ... ... : ... .. . ... ... : ... .. . ... ...
ROW 98 : ... .. . ... ... ... : E-5 00 A ... ... ... : --- .. . ... : 9-# 00 F ... : ... .. . ... ... : F-4 01 8 ... ... : A-4 01 8 ... ... : --- .. . P82 ...
ROW 99 : ... .. . ... ... ... : ... .. 8 ... ... ... : ... .. . ... : ... .. C ... : ... .. . ... ... : ... .. 7 ... ... : ... .. 7 ... ... : ... .. . ... ...
ROW 9A : ... .. . ... ... ... : ... .. . ... ... ... : ... .. . ... : ... .. 6 ... : ... .. . ... ... : ... .. 6 ... ... : ... .. 6 ... ... : ... .. . ... ...
ROW 9B : D-4 00 4 P80 ... ... : ... .. . ... ... ... : ... .. . ... : ... .. 3 ... : ... .. . ... ... : ... .. 5 ... ... : ... .. 5 ... ... : ... .. . ... ...
ROW 9C : ... .. 3 ... ... ... : ... .. 6 ... ... ... : ... .. . ... : ... .. 2 ... : ... .. . ... ... : ... .. . ... ... : ... .. . ... ... : ... .. . ... ...
ROW 9D : ... .. . ... ... ... : ... .. 5 ... ... ... : ... .. . ... : ... .. 0 ... : ... .. . ... ... : ... .. 4 ... ... : ... .. 4 ... ... : ... .. . ... ...
ROW 9E : E-4 00 5 ... ... ... : D-5 00 A ... ... ... : ... .. . ... : 2-# 00 F ... : ... .. . ... ... : ... .. . ... ... : ... .. . ... ... : ... .. . ... ...
ROW 9F : ... .. 4 ... ... ... : ... .. 8 ... ... ... : ... .. . ... : ... .. C ... : ... .. . ... ... : ... .. . ... ... : ... .. . ... ... : ... .. . ... ...
ROW A0 : ... .. . ... ... ... : ... .. . ... ... ... : ... .. . ... : ... .. 6 ... : ... .. . ... ... : ... .. . ... ... : ... .. . ... ... : ... .. . ... ...
ROW A1 : F-4 00 7 ... ... ... : E-5 00 5 ... ... ... : ... .. . ... : ... .. 3 ... : ... .. . ... ... : --- .. . ... ... : --- .. . ... ... : ... .. . ... ...
ROW A2 : ... .. 6 ... ... ... : ... .. 4 ... ... ... : ... .. . ... : ... .. 2 ... : ... .. . ... ... : ... .. . ... ... : ... .. . ... ... : ... .. . ... ...
ROW A3 : ... .. . ... ... ... : ... .. . ... ... ... : ... .. . ... : ... .. 0 ... : ... .. . ... ... : ... .. . ... ... : ... .. . ... ... : ... .. . ... ...
ROW A4 : G-4 00 8 ... ... ... : A-4 00 A ... ... ... : ... .. . ... : 1-# 00 F ... : ... .. . ... ... : F-4 01 6 ... ... : A-4 01 6 ... ... : ... .. . ... ...
ROW A5 : ... .. 7 ... ... ... : ... .. 8 ... ... ... : ... .. . ... : ... .. C ... : ... .. . ... ... : ... .. 4 ... ... : ... .. 4 ... ... : ... .. . ... ...
ROW A6 : ... .. 6 ... ... ... : ... .. . ... ... ... : ... .. . ... : ... .. 6 ... : ... .. . ... ... : ... .. 3 ... ... : ... .. 3 ... ... : ... .. . ... ...
ROW A7 : A-4 00 A ... ... ... : D-5 00 5 ... ... ... : ... .. . ... : ... .. 3 ... : ... .. . ... ... : ... .. 1 ... ... : ... .. 1 ... ... : ... .. . ... ...
ROW A8 : ... .. 9 ... ... ... : ... .. 4 ... ... ... : ... .. . ... : ... .. 2 ... : ... .. . ... ... : ... .. 6 ... ... : ... .. 6 ... ... : ... .. . ... ...
ROW A9 : ... .. 8 ... ... ... : ... .. . ... ... ... : ... .. . ... : ... .. 0 ... : ... .. . ... ... : ... .. 4 ... ... : ... .. 4 ... ... : ... .. . ... ...
ROW AA : A#4 00 B ... ... ... : F-4 00 A ... ... ... : ... .. . ... : C-# 00 F ... : ... .. . ... ... : ... .. 3 ... ... : ... .. 3 ... ... : ... .. . ... ...
ROW AB : ... .. A ... ... ... : ... .. 8 ... ... ... : ... .. . ... : ... .. C ... : ... .. . ... ... : ... .. 1 ... ... : ... .. 1 ... ... : ... .. . ... ...
ROW AC : ... .. 9 ... ... ... : ... .. . ... ... ... : ... .. . ... : ... .. 6 ... : ... .. . ... ... : ... .. 6 ... ... : ... .. 6 ... ... : ... .. . ... ...
ROW AD : C-5 00 D ... ... ... : A-4 00 5 ... ... ... : ... .. . ... : ... .. 3 ... : ... .. . ... ... : ... .. 4 ... ... : ... .. 4 ... ... : ... .. . ... ...
ROW AE : ... .. C ... ... ... : ... .. 4 ... ... ... : ... .. . ... : ... .. 2 ... : ... .. . ... ... : ... .. 3 ... ... : ... .. 3 ... ... : ... .. . ... ...
ROW AF : ... .. B ... ... ... : ... .. . ... ... ... : ... .. . ... : ... .. 0 ... : ... .. . ... ... : ... .. 1 ... ... : ... .. 1 ... ... : ... .. . ... ...
ROW B0 : D-5 00 F ... ... ... : D-4 00 A ... ... ... : C#4 00 . ... : A-# 00 C ... : ... .. . ... ... : ... .. 8 ... ... : ... .. 8 ... ... : D-0 01 C P80 ...
ROW B1 : ... .. E ... ... ... : ... .. 8 ... ... ... : D#3 00 . ... : ... .. . ... : ... .. . ... ... : ... .. 7 ... ... : ... .. 7 ... ... : ... .. A ... ...
ROW B2 : ... .. D ... ... ... : ... .. . ... ... ... : G#2 00 . ... : ... .. . ... : ... .. . ... ... : ... .. 6 ... ... : ... .. 6 ... ... : ... .. 6 ... ...
ROW B3 : ... .. A ... ... ... : F-4 00 5 ... ... ... : G-2 00 . ... : ... .. A ... : ... .. . ... ... : ... .. 5 ... ... : ... .. 5 ... ... : ... .. . ... ...
ROW B4 : ... .. . ... ... ... : ... .. 4 ... ... ... : D-2 00 . ... : ... .. . ... : ... .. . ... ... : ... .. . ... ... : ... .. . ... ... : ... .. . ... ...
ROW B5 : ... .. . ... ... ... : ... .. . ... ... ... : ... .. . ... : ... .. . ... : ... .. . ... ... : ... .. 4 ... ... : ... .. 4 ... ... : ... .. . ... ...
ROW B6 : ... .. . ... ... ... : A-3 00 A ... ... ... : ... .. . ... : ... .. 9 ... : ... .. . ... ... : ... .. . ... ... : ... .. . ... ... : ... .. . ... ...
ROW B7 : ... .. . ... ... ... : ... .. 8 ... ... ... : ... .. . ... : ... .. . ... : ... .. . ... ... : ... .. . ... ... : ... .. . ... ... : ... .. . ... ...
ROW B8 : ... .. . ... ... ... : ... .. . ... ... ... : ... .. . ... : ... .. . ... : ... .. . ... ... : ... .. . ... ... : ... .. . ... ... : ... .. . ... ...
ROW B9 : ... .. . ... ... ... : D-4 00 5 ... ... ... : ... .. . ... : ... .. 8 ... : ... .. . ... ... : --- .. . ... ... : --- .. . ... ... : ... .. . ... ...
ROW BA : ... .. . ... ... ... : ... .. 4 ... ... ... : ... .. . ... : ... .. . ... : ... .. . ... ... : ... .. . ... ... : ... .. . ... ... : ... .. . ... ...
ROW BB : ... .. . ... ... ... : ... .. . ... ... ... : ... .. . ... : ... .. . ... : ... .. . ... ... : ... .. . ... ... : ... .. . ... ... : ... .. . ... ...
ROW BC : ... .. . ... ... ... : F-3 00 A ... ... ... : ... .. . ... : ... .. 7 ... : ... .. . ... ... : F-4 01 6 ... ... : A-4 01 6 ... ... : ... .. . ... ...
ROW BD : ... .. . ... ... ... : ... .. 8 ... ... ... : ... .. . ... : ... .. . ... : ... .. . ... ... : ... .. 4 ... ... : ... .. 4 ... ... : ... .. . ... ...
ROW BE : ... .. . ... ... ... : ... .. . ... ... ... : ... .. . ... : ... .. . ... : ... .. . ... ... : ... .. 3 ... ... : ... .. 3 ... ... : ... .. . ... ...
ROW BF : ... .. . P82 ... ... : A-3 00 5 ... ... ... : ... .. . ... : ... .. 6 ... : ... .. . ... ... : ... .. 1 ... ... : ... .. 1 ... ... : ... .. . ... ...
ROW C0 : D#5 00 A P7E ... ... : ... .. 4 ... ... ... : ... .. . ... : ... .. . ... : ... .. . ... ... : ... .. 6 ... ... : ... .. 6 ... ... : ... .. . ... ...
ROW C1 : ... .. . ... ... ... : ... .. . ... ... ... : ... .. . ... : ... .. . ... : ... .. . ... ... : ... .. 4 ... ... : ... .. 4 ... ... : ... .. . ... ...
ROW C2 : D-5 00 A P81 ... ... : D-3 00 A ... ... ... : ... .. . ... : ... .. 5 ... : ... .. . ... ... : ... .. 3 ... ... : ... .. 3 ... ... : ... .. . ... ...
ROW C3 : ... .. . P7F ... ... : ... .. 8 ... ... ... : ... .. . ... : ... .. . ... : ... .. . ... ... : ... .. 1 ... ... : ... .. 1 ... ... : ... .. . ... ...
ROW C4 : C#5 00 A P83 ... ... : ... .. . ... ... ... : ... .. . ... : ... .. . ... : ... .. . ... ... : ... .. 6 ... ... : ... .. 6 ... ... : ... .. . ... ...
ROW C5 : ... .. . ... ... ... : F-3 00 5 ... ... ... : ... .. . ... : ... .. 4 ... : ... .. . ... ... : ... .. 4 ... ... : ... .. 4 ... ... : ... .. . ... ...
ROW C6 : D-5 00 A P7E ... ... : ... .. 4 ... ... ... : ... .. . ... : ... .. . ... : ... .. . ... ... : ... .. 3 ... ... : ... .. 3 ... ... : ... .. . ... ...
ROW C7 : ... .. . P80 ... ... : ... .. . ... ... ... : ... .. . ... : ... .. . ... : ... .. . ... ... : ... .. 1 ... ... : ... .. 1 ... ... : ... .. . ... ...
ROW C8 : ... .. . P82 ... ... : F#5 00 A ... ... ... : C#5 00 . ... : 1-# 00 F ... : ... .. . ... ... : F#4 01 8 ... ... : A#4 01 8 ... ... : D-1 01 C ... ...
ROW C9 : D#5 00 A P7E ... ... : ... .. 8 ... ... ... : D#4 00 . ... : ... .. C ... : ... .. . ... ... : ... .. 7 ... ... : ... .. 7 ... ... : ... .. A ... ...
ROW CA : ... .. . ... ... ... : ... .. . ... ... ... : G#3 00 . ... : ... .. 6 ... : ... .. . ... ... : ... .. 6 ... ... : ... .. 6 ... ... : ... .. 6 ... ...
ROW CB : D-5 00 A P81 ... ... : D-3 00 5 ... ... ... : G-3 00 . ... : ... .. 3 ... : ... .. . ... ... : ... .. 5 ... ... : ... .. 5 ... ... : ... .. . ... ...
ROW CC : ... .. . P80 ... ... : ... .. 4 ... ... ... : D-3 00 . ... : ... .. 2 ... : ... .. . ... ... : ... .. . ... ... : ... .. . ... ... : ... .. . ... ...
ROW CD : C#5 00 A P83 ... ... : ... .. . ... ... ... : ... .. . ... : ... .. 0 ... : ... .. . ... ... : --- .. . ... ... : --- .. . ... ... : ... .. . ... ...
ROW CE : D-5 00 A P80 ... ... : C#5 00 A ... ... ... : ... .. . ... : B-# 00 F ... : ... .. . ... ... : ... .. . ... ... : ... .. . ... ... : ... .. . ... ...
ROW CF : ... .. . ... ... ... : ... .. 8 ... ... ... : ... .. . ... : ... .. C ... : ... .. . ... ... : ... .. . ... ... : ... .. . ... ... : ... .. . ... ...
ROW D0 : ... .. . ... ... ... : ... .. . ... ... ... : ... .. . ... : ... .. 6 ... : ... .. . ... ... : F#4 01 8 ... ... : A#4 01 8 ... ... : ... .. . ... ...
ROW D1 : ... .. 8 ... ... ... : F#5 00 5 ... ... ... : ... .. . ... : ... .. 3 ... : ... .. . ... ... : ... .. 7 ... ... : ... .. 7 ... ... : ... .. . ... ...
ROW D2 : ... .. 7 ... ... ... : ... .. 4 ... ... ... : ... .. . ... : ... .. 2 ... : ... .. . ... ... : ... .. 6 ... ... : ... .. 6 ... ... : ... .. . ... ...
ROW D3 : ... .. 6 ... ... ... : ... .. . ... ... ... : ... .. . ... : ... .. 0 ... : ... .. . ... ... : ... .. 5 ... ... : ... .. 5 ... ... : ... .. . ... ...
ROW D4 : ... .. B ... ... ... : A#4 00 A ... ... ... : ... .. . ... : 7-# 00 F ... : ... .. . ... ... : --- .. . ... ... : --- .. . ... ... : ... .. . ... ...
ROW D5 : ... .. 8 ... ... ... : ... .. 8 ... ... ... : ... .. . ... : ... .. C ... : ... .. . ... ... : ... .. . ... ... : ... .. . ... ... : ... .. . ... ...
ROW D6 : ... .. 0 ... ... ... : ... .. . ... ... ... : ... .. . ... : ... .. 6 ... : ... .. . ... ... : ... .. . ... ... : ... .. . ... ... : ... .. . ... ...
ROW D7 : D-5 00 B P80 ... ... : C#5 00 5 ... ... ... : ... .. . ... : ... .. 3 ... : ... .. . ... ... : ... .. . ... ... : ... .. . ... ... : ... .. . ... ...
ROW D8 : ... .. 8 ... ... ... : ... .. 4 ... ... ... : ... .. . ... : ... .. 2 ... : ... .. . ... ... : F#4 01 8 ... ... : A#4 01 8 ... ... : ... .. . ... ...
ROW D9 : ... .. 0 ... ... ... : ... .. . ... ... ... : ... .. . ... : ... .. 0 ... : ... .. . ... ... : ... .. 7 ... ... : ... .. 7 ... ... : ... .. . ... ...
ROW DA : D-5 00 B P80 ... ... : F#4 00 A ... ... ... : ... .. . ... : 1-# 00 F ... : ... .. . ... ... : ... .. 6 ... ... : ... .. 6 ... ... : ... .. . ... ...
ROW DB : ... .. 8 ... ... ... : ... .. 8 ... ... ... : ... .. . ... : ... .. C ... : ... .. . ... ... : ... .. 5 ... ... : ... .. 5 ... ... : ... .. . ... ...
ROW DC : ... .. 0 ... ... ... : ... .. . ... ... ... : ... .. . ... : ... .. 6 ... : ... .. . ... ... : ... .. . ... ... : ... .. . ... ... : ... .. . ... ...
ROW DD : ... .. . ... ... ... : A#4 00 5 ... ... ... : ... .. . ... : ... .. 3 ... : ... .. . ... ... : --- .. . ... ... : --- .. . ... ... : ... .. . ... ...
ROW DE : ... .. . ... ... ... : ... .. 4 ... ... ... : ... .. . ... : ... .. 2 ... : ... .. . ... ... : ... .. . ... ... : ... .. . ... ... : ... .. . ... ...
ROW DF : ... .. . ... ... ... : ... .. . ... ... ... : ... .. . ... : ... .. 0 ... : ... .. . ... ... : ... .. . ... ... : ... .. . ... ... : ... .. . ... ...
ROW E0 : D-5 00 F P80 ... ... : D-4 00 A ... ... ... : ... .. . ... : 9-# 00 F ... : ... .. . ... ... : D-4 01 8 ... ... : F#4 01 8 ... ... : ... .. . ... ...
ROW E1 : ... .. E ... ... ... : ... .. 8 ... ... ... : ... .. . ... : ... .. C ... : ... .. . ... ... : ... .. 7 ... ... : ... .. 7 ... ... : ... .. . ... ...
ROW E2 : ... .. D ... ... ... : ... .. . ... ... ... : ... .. . ... : ... .. 6 ... : ... .. . ... ... : ... .. 6 ... ... : ... .. 6 ... ... : ... .. . ... ...
ROW E3 : ... .. A ... ... ... : F#4 00 5 ... ... ... : ... .. . ... : ... .. 3 ... : ... .. . ... ... : ... .. 5 ... ... : ... .. 5 ... ... : ... .. . ... ...
ROW E4 : ... .. 2 ... ... ... : ... .. 4 ... ... ... : ... .. . ... : ... .. 2 ... : ... .. . ... ... : ... .. . ... ... : ... .. . ... ... : ... .. . ... ...
ROW E5 : ... .. . ... ... ... : ... .. . ... ... ... : ... .. . ... : ... .. 0 ... : ... .. . ... ... : --- .. . ... ... : --- .. . ... ... : ... .. . ... ...
ROW E6 : ... .. . ... ... ... : A#3 00 A ... ... ... : ... .. . ... : ... .. F ... : ... .. . ... ... : ... .. . ... ... : ... .. . ... ... : ... .. . ... ...
ROW E7 : ... .. 1 ... ... ... : ... .. 8 ... ... ... : ... .. . ... : ... .. C ... : ... .. . ... ... : ... .. . ... ... : ... .. . ... ... : ... .. . ... ...
ROW E8 : G#4 00 F ... ... ... : ... .. . ... ... ... : ... .. . ... : ... .. 6 ... : ... .. . ... ... : D-4 01 8 ... ... : F#4 01 8 ... ... : ... .. . ... ...
ROW E9 : ... .. E ... ... ... : D-4 00 5 ... ... ... : ... .. . ... : ... .. 3 ... : ... .. . ... ... : ... .. 7 ... ... : ... .. 7 ... ... : ... .. . ... ...
ROW EA : ... .. D ... ... ... : ... .. 4 ... ... ... : ... .. . ... : ... .. 2 ... : ... .. . ... ... : ... .. 6 ... ... : ... .. 6 ... ... : ... .. . ... ...
ROW EB : ... .. A ... ... ... : ... .. . ... ... ... : ... .. . ... : ... .. 0 ... : ... .. . ... ... : ... .. 5 ... ... : ... .. 5 ... ... : ... .. . ... ...
ROW EC : ... .. . ... ... ... : F#3 00 A ... ... ... : ... .. . ... : 7-# 00 F ... : ... .. . ... ... : --- .. . ... ... : --- .. . ... ... : ... .. . ... ...
ROW ED : ... .. 2 ... ... ... : ... .. 8 ... ... ... : ... .. . ... : ... .. C ... : ... .. . ... ... : ... .. . ... ... : ... .. . ... ... : ... .. . ... ...
ROW EE : ... .. . ... ... ... : ... .. . ... ... ... : ... .. . ... : ... .. 6 ... : ... .. . ... ... : ... .. . ... ... : ... .. . ... ... : ... .. . ... ...
ROW EF : ... .. . ... ... ... : A#3 00 5 ... ... ... : ... .. . ... : ... .. 3 ... : ... .. . ... ... : ... .. . ... ... : ... .. . ... ... : ... .. . ... ...
ROW F0 : ... .. F ... ... ... : ... .. 4 ... ... ... : ... .. . ... : ... .. 2 ... : ... .. . ... ... : D-4 01 8 ... ... : F#4 01 8 ... ... : ... .. . ... ...
ROW F1 : ... .. E ... ... ... : ... .. . ... ... ... : ... .. . ... : ... .. 0 ... : ... .. . ... ... : ... .. 7 ... ... : ... .. 7 ... ... : ... .. . ... ...
ROW F2 : ... .. D ... ... ... : D-3 00 A ... ... ... : ... .. . ... : ... .. F ... : ... .. . ... ... : ... .. 6 ... ... : ... .. 6 ... ... : ... .. . ... ...
ROW F3 : ... .. A ... ... ... : ... .. 8 ... ... ... : ... .. . ... : ... .. C ... : ... .. . ... ... : ... .. 5 ... ... : ... .. 5 ... ... : ... .. . ... ...
ROW F4 : ... .. . ... ... ... : ... .. . ... ... ... : ... .. . ... : ... .. 6 ... : ... .. . ... ... : ... .. . ... ... : ... .. . ... ... : ... .. . ... ...
ROW F5 : ... .. 0 ... ... ... : F#3 00 5 ... ... ... : ... .. . ... : ... .. 3 ... : ... .. . ... ... : --- .. . ... ... : --- .. . ... ... : ... .. . ... ...
ROW F6 : ... .. . ... ... ... : ... .. 4 ... ... ... : ... .. . ... : ... .. 2 ... : ... .. . ... ... : ... .. . ... ... : ... .. . ... ... : ... .. . ... ...
ROW F7 : ... .. . ... ... ... : ... .. . ... ... ... : ... .. . ... : ... .. 0 ... : ... .. . ... ... : ... .. . ... ... : ... .. . ... ... : ... .. . ... ...
ROW F8 : G#4 00 F P80 ... ... : G#5 00 A ... ... ... : D-5 00 . ... : 9-# 00 F ... : ... .. . ... ... : D#4 01 8 ... ... : G#4 01 8 ... ... : D#1 01 C ... ...
ROW F9 : ... .. E ... ... ... : ... .. 8 ... ... ... : E-4 00 . ... : ... .. C ... : ... .. . ... ... : ... .. 7 ... ... : ... .. 7 ... ... : ... .. A ... ...
ROW FA : ... .. D ... ... ... : ... .. . ... ... ... : A-3 00 . ... : ... .. 6 ... : ... .. . ... ... : ... .. 6 ... ... : ... .. 6 ... ... : ... .. 6 ... ...
ROW FB : ... .. A ... ... ... : D-3 00 5 ... ... ... : G#3 00 . ... : ... .. 3 ... : ... .. . ... ... : ... .. 5 ... ... : ... .. 5 ... ... : ... .. . ... ...
ROW FC : ... .. 2 ... ... ... : ... .. 4 ... ... ... : D#3 00 . ... : ... .. 2 ... : ... .. . ... ... : ... .. . ... ... : ... .. . ... ... : ... .. . ... ...
ROW FD : ... .. . ... ... ... : ... .. . ... ... ... : ... .. . ... : ... .. 0 ... : ... .. . ... ... : ... .. 4 ... ... : ... .. 4 ... ... : ... .. . ... ...
ROW FE : ... .. . ... ... ... : D#5 00 A ... ... ... : D-3 00 . ... : 2-# 00 F ... : ... .. . ... ... : ... .. . ... ... : ... .. . ... ... : D-1 01 C ... ...
ROW FF : ... .. 1 ... ... ... : ... .. 8 ... ... ... : ... .. . ... : ... .. C ... : ... .. . ... ... : ... .. . ... ... : ... .. . ... ... : ... .. A ... ...

PATTERN 14
ROW 00 : D#4 00 F ... ... ... : ... .. . ... ... ... : ... .. . ... : ... .. 6 ... : ... .. . ... ... : ... .. . ... ... : ... .. . ... ... : ... .. 6 ... ...
ROW 01 : ... .. E ... ... ... : G#5 00 5 ... ... ... : ... .. . ... : ... .. 3 ... : ... .. . ... ... : --- .. . ... ... : --- .. . ... ... : ... .. . ... ...
ROW 02 : ... .. D ... ... ... : ... .. 4 ... ... ... : ... .. . ... : ... .. 2 ... : ... .. . ... ... : ... .. . ... ... : ... .. . ... ... : ... .. . ... ...
ROW 03 : ... .. A ... ... ... : ... .. . ... ... ... : ... .. . ... : ... .. 0 ... : ... .. . ... ... : ... .. . ... ... : ... .. . ... ... : ... .. . ... ...
ROW 04 : ... .. . ... ... ... : B-4 00 A ... ... ... : D#3 00 . ... : 1-# 00 F ... : ... .. . ... ... : D#4 01 6 ... ... : G#4 01 6 ... ... : D#1 01 C ... ...
ROW 05 : ... .. 2 ... ... ... : ... .. 8 ... ... ... : ... .. . ... : ... .. C ... : ... .. . ... ... : ... .. 4 ... ... : ... .. 4 ... ... : ... .. A ... ...
ROW 06 : ... .. . ... ... ... : ... .. . ... ... ... : ... .. . ... : ... .. 6 ... : ... .. . ... ... : ... .. 3 ... ... : ... .. 3 ... ... : ... .. 6 ... ...
ROW 07 : ... .. . ... ... ... : D#5 00 5 ... ... ... : ... .. . ... : ... .. 3 ... : ... .. . ... ... : ... .. 1 ... ... : ... .. 1 ... ... : ... .. . ... ...
ROW 08 : ... .. F ... ... ... : ... .. 4 ... ... ... : ... .. . ... : ... .. 2 ... : ... .. . ... ... : ... .. 6 ... ... : ... .. 6 ... ... : ... .. . ... ...
ROW 09 : ... .. E ... ... ... : ... .. . ... ... ... : ... .. . ... : ... .. 0 ... : ... .. . ... ... : ... .. 4 ... ... : ... .. 4 ... ... : ... .. . ... ...
ROW 0A : ... .. D ... ... ... : G#4 00 A ... ... ... : ... .. . ... : C-# 00 F ... : ... .. . ... ... : ... .. 3 ... ... : ... .. 3 ... ... : ... .. . ... ...
ROW 0B : ... .. A ... ... ... : ... .. 8 ... ... ... : ... .. . ... : ... .. C ... : ... .. . ... ... : ... .. 1 ... ... : ... .. 1 ... ... : ... .. . ... ...
ROW 0C : ... .. . ... ... ... : ... .. . ... ... ... : ... .. . ... : ... .. 6 ... : ... .. . ... ... : ... .. 6 ... ... : ... .. 6 ... ... : ... .. . ... ...
ROW 0D : ... .. . ... ... ... : B-4 00 5 ... ... ... : ... .. . ... : ... .. 3 ... : ... .. . ... ... : ... .. 4 ... ... : ... .. 4 ... ... : ... .. . ... ...
ROW 0E : ... .. . ... ... ... : ... .. 4 ... ... ... : ... .. . ... : ... .. 2 ... : ... .. . ... ... : ... .. 3 ... ... : ... .. 3 ... ... : ... .. . ... ...
ROW 0F : ... .. . ... ... ... : ... .. . ... ... ... : ... .. . ... : ... .. 0 ... : ... .. . ... ... : ... .. 1 ... ... : ... .. 1 ... ... : ... .. . ... ...
ROW 10 : ... .. F ... ... ... : D#4 00 A ... ... ... : ... .. . ... : 7-# 00 F ... : ... .. . ... ... : B-3 01 8 ... ... : D#4 01 8 ... ... : ... .. . ... ...
ROW 11 : ... .. E ... ... ... : ... .. 8 ... ... ... : ... .. . ... : ... .. C ... : ... .. . ... ... : ... .. 7 ... ... : ... .. 7 ... ... : ... .. . ... ...
ROW 12 : ... .. D ... ... ... : ... .. . ... ... ... : ... .. . ... : ... .. 6 ... : ... .. . ... ... : ... .. 6 ... ... : ... .. 6 ... ... : ... .. . ... ...
ROW 13 : ... .. A ... ... ... : G#4 00 5 ... ... ... : ... .. . ... : ... .. 3 ... : ... .. . ... ... : ... .. 5 ... ... : ... .. 5 ... ... : ... .. . ... ...
ROW 14 : ... .. 2 ... ... ... : ... .. 4 ... ... ... : ... .. . ... : ... .. 2 ... : ... .. . ... ... : ... .. . ... ... : ... .. . ... ... : ... .. . ... ...
ROW 15 : ... .. . ... ... ... : ... .. . ... ... ... : ... .. . ... : ... .. 0 ... : ... .. . ... ... : ... .. 4 ... ... : ... .. 4 ... ... : ... .. . ... ...
ROW 16 : ... .. . ... ... ... : B-3 00 A ... ... ... : ... .. . ... : 1-# 00 F ... : ... .. . ... ... : ... .. . ... ... : ... .. . ... ... : ... .. . ... ...
ROW 17 : ... .. 1 ... ... ... : ... .. 8 ... ... ... : ... .. . ... : ... .. C ... : ... .. . ... ... : ... .. . ... ... : ... .. . ... ... : ... .. . ... ...
ROW 18 : G#3 00 F ... ... ... : ... .. . ... ... ... : ... .. . ... : ... .. 6 ... : ... .. . ... ... : ... .. . ... ... : ... .. . ... ... : ... .. . ... ...
ROW 19 : ... .. E ... ... ... : D#4 00 5 ... ... ... : ... .. . ... : ... .. 3 ... : ... .. . ... ... : --- .. . ... ... : --- .. . ... ... : ... .. . ... ...
ROW 1A : ... .. D ... ... ... : ... .. 4 ... ... ... : ... .. . ... : ... .. 2 ... : ... .. . ... ... : ... .. . ... ... : ... .. . ... ... : ... .. . ... ...
ROW 1B : ... .. A ... ... ... : ... .. . ... ... ... : ... .. . ... : ... .. 0 ... : ... .. . ... ... : ... .. . ... ... : ... .. . ... ... : ... .. . ... ...
ROW 1C : ... .. . ... ... ... : G#3 00 A ... ... ... : A#5 00 . ... : C-# 00 F ... : ... .. . ... ... : B-3 01 6 ... ... : D#4 01 6 ... ... : B-1 01 C ... ...
ROW 1D : ... .. 2 ... ... ... : ... .. 8 ... ... ... : C-5 00 . ... : ... .. C ... : ... .. . ... ... : ... .. 4 ... ... : ... .. 4 ... ... : ... .. A ... ...
ROW 1E : ... .. . ... ... ... : ... .. . ... ... ... : F-4 00 . ... : ... .. 6 ... : ... .. . ... ... : ... .. 3 ... ... : ... .. 3 ... ... : ... .. 6 ... ...
ROW 1F : ... .. . ... ... ... : B-3 00 5 ... ... ... : E-4 00 . ... : ... .. 3 ... : ... .. . ... ... : ... .. 1 ... ... : ... .. 1 ... ... : ... .. . ... ...
ROW 20 : ... .. F ... ... ... : ... .. 4 ... ... ... : B-3 00 . ... : ... .. 2 ... : ... .. . ... ... : ... .. 6 ... ... : ... .. 6 ... ... : ... .. . ... ...
ROW 21 : ... .. E ... ... ... : ... .. . ... ... ... : ... .. . ... : ... .. 0 ... : ... .. . ... ... : ... .. 4 ... ... : ... .. 4 ... ... : ... .. . ... ...
ROW 22 : ... .. D ... ... ... : D#3 00 A ... ... ... : ... .. . ... : 7-# 00 F ... : ... .. . ... ... : ... .. 3 ... ... : ... .. 3 ... ... : ... .. . ... ...
ROW 23 : ... .. A ... ... ... : ... .. 8 ... ... ... : ... .. . ... : ... .. C ... : ... .. . ... ... : ... .. 1 ... ... : ... .. 1 ... ... : ... .. . ... ...
ROW 24 : ... .. . ... ... ... : ... .. . ... ... ... : ... .. . ... : ... .. 6 ... : ... .. . ... ... : ... .. 6 ... ... : ... .. 6 ... ... : ... .. . ... ...
ROW 25 : ... .. . ... ... ... : G#3 00 5 ... ... ... : ... .. . ... : ... .. 3 ... : ... .. . ... ... : ... .. 4 ... ... : ... .. 4 ... ... : ... .. . ... ...
ROW 26 : ... .. 2 ... ... ... : ... .. 4 ... ... ... : ... .. . ... : ... .. 2 ... : ... .. . ... ... : ... .. 3 ... ... : ... .. 3 ... ... : ... .. . ... ...
ROW 27 : ... .. . ... ... ... : ... .. . ... ... ... : ... .. . ... : ... .. 0 ... : ... .. . ... ... : ... .. 1 ... ... : ... .. 1 ... ... : ... .. . ... ...
ROW 28 : ... .. F ... ... ... : A-5 00 A ... ... ... : E-6 00 . ... : 1-# 00 F ... : ... .. . ... ... : C#4 01 8 ... ... : F-4 01 8 ... ... : F-2 01 C ... ...
ROW 29 : ... .. E ... ... ... : ... .. 8 ... ... ... : F#5 00 . ... : ... .. C ... : ... .. . ... ... : ... .. 7 ... ... : ... .. 7 ... ... : ... .. A ... ...
ROW 2A : ... .. D ... ... ... : ... .. . ... ... ... : B-4 00 . ... : ... .. 6 ... : ... .. . ... ... : ... .. 6 ... ... : ... .. 6 ... ... : ... .. 6 ... ...
ROW 2B : ... .. A ... ... ... : D#3 00 5 ... ... ... : A#4 00 . ... : ... .. 3 ... : ... .. . ... ... : ... .. 5 ... ... : ... .. 5 ... ... : ... .. . ... ...
ROW 2C : ... .. 2 ... ... ... : ... .. 4 ... ... ... : F-4 00 . ... : ... .. 2 ... : ... .. . ... ... : ... .. . ... ... : ... .. . ... ... : ... .. . ... ...
ROW 2D : ... .. . ... ... ... : ... .. . ... ... ... : ... .. . ... : ... .. 0 ... : ... .. . ... ... : --- .. . ... ... : --- .. . ... ... : ... .. . ... ...
ROW 2E : ... .. . ... ... ... : F-5 00 A ... ... ... : ... .. . ... : B-# 00 F ... : ... .. . ... ... : ... .. . ... ... : ... .. . ... ... : ... .. . ... ...
ROW 2F : ... .. 1 ... ... ... : ... .. 8 ... ... ... : ... .. . ... : ... .. C ... : ... .. . ... ... : ... .. . ... ... : ... .. . ... ... : ... .. . ... ...
ROW 30 : A-3 00 F ... ... ... : ... .. . ... ... ... : ... .. . ... : ... .. 6 ... : ... .. . ... ... : C#4 01 8 ... ... : F-4 01 8 ... ... : ... .. . ... ...
ROW 31 : ... .. E ... ... ... : A-5 00 5 ... ... ... : ... .. . ... : ... .. 3 ... : ... .. . ... ... : ... .. 7 ... ... : ... .. 7 ... ... : ... .. . ... ...
ROW 32 : ... .. D ... ... ... : ... .. 4 ... ... ... : ... .. . ... : ... .. 2 ... : ... .. . ... ... : ... .. 6 ... ... : ... .. 6 ... ... : ... .. . ... ...
ROW 33 : ... .. A ... ... ... : ... .. . ... ... ... : ... .. . ... : ... .. 0 ... : ... .. . ... ... : ... .. 5 ... ... : ... .. 5 ... ... : ... .. . ... ...
ROW 34 : ... .. . ... ... ... : C#5 00 A ... ... ... : ... .. . ... : 7-# 00 F ... : ... .. . ... ... : --- .. . ... ... : --- .. . ... ... : ... .. . ... ...
ROW 35 : ... .. 2 ... ... ... : ... .. 8 ... ... ... : ... .. . ... : ... .. C ... : ... .. . ... ... : ... .. . ... ... : ... .. . ... ... : ... .. . ... ...
ROW 36 : ... .. . ... ... ... : ... .. . ... ... ... : ... .. . ... : ... .. 6 ... : ... .. . ... ... : ... .. . ... ... : ... .. . ... ... : ... .. . ... ...
ROW 37 : ... .. . ... ... ... : F-5 00 5 ... ... ... : ... .. . ... : ... .. 3 ... : ... .. . ... ... : ... .. . ... ... : ... .. . ... ... : ... .. . ... ...
ROW 38 : ... .. F ... ... ... : ... .. 4 ... ... ... : ... .. . ... : ... .. 2 ... : ... .. . ... ... : C#4 01 8 ... ... : F-4 01 8 ... ... : ... .. . ... ...
ROW 39 : ... .. E ... ... ... : ... .. . ... ... ... : ... .. . ... : ... .. 0 ... : ... .. . ... ... : ... .. 7 ... ... : ... .. 7 ... ... : ... .. . ... ...
ROW 3A : ... .. B ... ... ... : A-4 00 A ... ... ... : ... .. . ... : 1-# 00 F ... : ... .. . ... ... : ... .. 6 ... ... : ... .. 6 ... ... : ... .. . ... ...
ROW 3B : ... .. 8 ... ... ... : ... .. 8 ... ... ... : ... .. . ... : ... .. C ... : ... .. . ... ... : ... .. 5 ... ... : ... .. 5 ... ... : ... .. . ... ...
ROW 3C : ... .. . ... ... ... : ... .. . ... ... ... : ... .. . ... : ... .. 6 ... : ... .. . ... ... : ... .. . ... ... : ... .. . ... ... : ... .. . ... ...
ROW 3D : ... .. . ... ... ... : C#5 00 5 ... ... ... : ... .. . ... : ... .. 3 ... : ... .. . ... ... : --- .. . ... ... : --- .. . ... ... : ... .. . ... ...
ROW 3E : ... .. . ... ... ... : ... .. 4 ... ... ... : ... .. . ... : ... .. 2 ... : ... .. . ... ... : ... .. . ... ... : ... .. . ... ... : ... .. . ... ...
ROW 3F : ... .. . ... ... ... : ... .. . ... ... ... : ... .. . ... : ... .. 0 ... : ... .. . ... ... : ... .. . ... ... : ... .. . ... ... : ... .. . ... ...
ROW 40 : ... .. 2 ... ... ... : F-4 00 A ... ... ... : ... .. . ... : 9-# 00 F ... : ... .. . ... ... : A-3 01 8 ... ... : C#4 01 8 ... ... : ... .. . ... ...
ROW 41 : ... .. . ... ... ... : ... .. 8 ... ... ... : ... .. . ... : ... .. C ... : ... .. . ... ... : ... .. 7 ... ... : ... .. 7 ... ... : ... .. . ... ...
ROW 42 : ... .. . ... ... ... : ... .. . ... ... ... : ... .. . ... : ... .. 6 ... : ... .. . ... ... : ... .. 6 ... ... : ... .. 6 ... ... : ... .. . ... ...
ROW 43 : ... .. 3 ... ... ... : A-4 00 5 ... ... ... : ... .. . ... : ... .. 3 ... : ... .. . ... ... : ... .. 5 ... ... : ... .. 5 ... ... : ... .. . ... ...
ROW 44 : ... .. . ... ... ... : ... .. 4 ... ... ... : ... .. . ... : ... .. 2 ... : ... .. . ... ... : ... .. . ... ... : ... .. . ... ... : ... .. . ... ...
ROW 45 : ... .. . ... ... ... : ... .. . ... ... ... : ... .. . ... : ... .. 0 ... : ... .. . ... ... : --- .. . ... ... : --- .. . ... ... : ... .. . ... ...
ROW 46 : ... .. 4 ... ... ... : C#4 00 A ... ... ... : ... .. . ... : ... .. F ... : ... .. . ... ... : ... .. . ... ... : ... .. . ... ... : ... .. . ... ...
ROW 47 : ... .. . ... ... ... : ... .. 8 ... ... ... : ... .. . ... : ... .. C ... : ... .. . ... ... : ... .. . ... ... : ... .. . ... ... : ... .. . ... ...
ROW 48 : ... .. . ... ... ... : ... .. . ... ... ... : ... .. . ... : ... .. 6 ... : ... .. . ... ... : A-3 01 8 ... ... : C#4 01 8 ... ... : ... .. . ... ...
ROW 49 : ... .. 6 ... ... ... : F-4 00 5 ... ... ... : ... .. . ... : ... .. 3 ... : ... .. . ... ... : ... .. 7 ... ... : ... .. 7 ... ... : ... .. . ... ...
ROW 4A : ... .. . ... ... ... : ... .. 4 ... ... ... : ... .. . ... : ... .. 2 ... : ... .. . ... ... : ... .. 6 ... ... : ... .. 6 ... ... : ... .. . ... ...
ROW 4B : ... .. . ... ... ... : ... .. . ... ... ... : ... .. . ... : ... .. 0 ... : ... .. . ... ... : ... .. 5 ... ... : ... .. 5 ... ... : ... .. . ... ...
ROW 4C : ... .. 7 ... ... ... : A-3 00 A ... ... ... : ... .. . ... : 7-# 00 F ... : ... .. . ... ... : --- .. . ... ... : --- .. . ... ... : ... .. . ... ...
ROW 4D : ... .. . ... ... ... : ... .. 8 ... ... ... : ... .. . ... : ... .. C ... : ... .. . ... ... : ... .. . ... ... : ... .. . ... ... : ... .. . ... ...
ROW 4E : ... .. . ... ... ... : ... .. . ... ... ... : ... .. . ... : ... .. 6 ... : ... .. . ... ... : ... .. . ... ... : ... .. . ... ... : ... .. . ... ...
ROW 4F : ... .. 8 ... ... ... : C#4 00 5 ... ... ... : ... .. . ... : ... .. 3 ... : ... .. . ... ... : ... .. . ... ... : ... .. . ... ... : ... .. . ... ...
ROW 50 : ... .. . ... ... ... : ... .. 4 ... ... ... : ... .. . ... : ... .. 2 ... : ... .. . ... ... : A-3 01 8 ... ... : C#4 01 8 ... ... : ... .. . ... ...
ROW 51 : ... .. . ... ... ... : ... .. . ... ... ... : ... .. . ... : ... .. 0 ... : ... .. . ... ... : ... .. 7 ... ... : ... .. 7 ... ... : ... .. . ... ...
ROW 52 : ... .. A P84 ... ... : F-3 00 A ... ... ... : ... .. . ... : ... .. F ... : ... .. . ... ... : ... .. 6 ... ... : ... .. 6 ... ... : ... .. . ... ...
ROW 53 : ... .. . P86 ... ... : ... .. 8 ... ... ... : ... .. . ... : ... .. C ... : ... .. . ... ... : ... .. 5 ... ... : ... .. 5 ... ... : ... .. . ... ...
ROW 54 : ... .. . P85 ... ... : ... .. . ... ... ... : ... .. . ... : ... .. 6 ... : ... .. . ... ... : ... .. . ... ... : ... .. . ... ... : ... .. . ... ...
ROW 55 : ... .. . P82 ... ... : A-3 00 5 ... ... ... : ... .. . ... : ... .. 3 ... : ... .. . ... ... : --- .. . ... ... : --- .. . ... ... : ... .. . ... ...
ROW 56 : ... .. . P7E ... ... : ... .. 4 ... ... ... : ... .. . ... : ... .. 2 ... : ... .. . ... ... : ... .. . ... ... : ... .. . ... ... : ... .. . ... ...
ROW 57 : ... .. . P7B ... ... : ... .. . ... ... ... : ... .. . ... : ... .. 0 ... : ... .. . ... ... : ... .. . ... ... : ... .. . ... ... : ... .. . ... ...
ROW 58 : ... .. . P7A ... ... : B-5 00 A ... ... ... : ... .. . ... : ... .. F ... : ... .. . ... ... : F-3 01 8 ... ... : A-3 01 8 ... ... : ... .. . ... ...
ROW 59 : ... .. . P7C ... ... : ... .. 8 ... ... ... : ... .. . ... : ... .. C ... : ... .. . ... ... : ... .. 7 ... ... : ... .. 7 ... ... : ... .. . ... ...
ROW 5A : ... .. . P80 ... ... : ... .. . ... ... ... : ... .. . ... : ... .. 6 ... : ... .. . ... ... : ... .. 6 ... ... : ... .. 6 ... ... : ... .. . ... ...
ROW 5B : ... .. . P83 ... ... : F-3 00 5 ... ... ... : ... .. . ... : 9-# 00 D ... : ... .. . ... ... : ... .. 5 ... ... : ... .. 5 ... ... : ... .. . ... ...
ROW 5C : ... .. . P86 ... ... : ... .. 4 ... ... ... : ... .. . ... : ... .. B ... : ... .. . ... ... : ... .. . ... ... : ... .. . ... ... : ... .. . ... ...
ROW 5D : ... .. . ... ... ... : ... .. . ... ... ... : ... .. . ... : ... .. . ... : ... .. . ... ... : ... .. 4 ... ... : ... .. 4 ... ... : ... .. . ... ...
ROW 5E : ... .. . P82 ... ... : B-4 00 A ... ... ... : ... .. . ... : ... .. A ... : ... .. . ... ... : ... .. . ... ... : ... .. . ... ... : ... .. . ... ...
ROW 5F : ... .. . P7F ... ... : ... .. 8 ... ... ... : ... .. . ... : ... .. 8 ... : ... .. . ... ... : ... .. . ... ... : ... .. . ... ... : ... .. . ... ...
ROW 60 : ... .. . P7B ... ... : ... .. . ... ... ... : ... .. . ... : ... .. 7 ... : ... .. . ... ... : ... .. . ... ... : ... .. . ... ... : ... .. . ... ...
ROW 61 : ... .. . P7A ... ... : B-5 00 5 ... ... ... : ... .. . ... : ... .. 6 ... : ... .. . ... ... : --- .. . ... ... : --- .. . ... ... : ... .. . ... ...
ROW 62 : ... .. . P7C ... ... : ... .. 4 ... ... ... : ... .. . ... : ... .. . ... : ... .. . ... ... : ... .. . ... ... : ... .. . ... ... : ... .. . ... ...
ROW 63 : ... .. . P80 ... ... : ... .. . ... ... ... : ... .. . ... : ... .. 5 ... : ... .. . ... ... : ... .. . ... ... : ... .. . ... ... : ... .. . ... ...
ROW 64 : ... .. . P83 ... ... : B-3 00 A ... ... ... : ... .. . ... : 7-# 00 F ... : ... .. . ... ... : F-3 01 6 ... ... : A-3 01 6 ... ... : ... .. . ... ...
ROW 65 : ... .. . P86 ... ... : ... .. 8 ... ... ... : ... .. . ... : ... .. C ... : ... .. . ... ... : ... .. 4 ... ... : ... .. 4 ... ... : ... .. . ... ...
ROW 66 : ... .. . ... ... ... : ... .. . ... ... ... : ... .. . ... : ... .. 6 ... : ... .. . ... ... : ... .. 3 ... ... : ... .. 3 ... ... : ... .. . ... ...
ROW 67 : ... .. . P83 ... ... : B-4 00 5 ... ... ... : ... .. . ... : ... .. 3 ... : ... .. . ... ... : ... .. 1 ... ... : ... .. 1 ... ... : ... .. . ... ...
ROW 68 : ... .. . P80 ... ... : ... .. 4 ... ... ... : ... .. . ... : ... .. F ... : ... .. . ... ... : ... .. 6 ... ... : ... .. 6 ... ... : ... .. . ... ...
ROW 69 : ... .. . P7C ... ... : ... .. . ... ... ... : ... .. . ... : ... .. C ... : ... .. . ... ... : ... .. 4 ... ... : ... .. 4 ... ... : ... .. . ... ...
ROW 6A : ... .. . P7A ... ... : ... .. A ... ... ... : ... .. . ... : ... .. 6 ... : ... .. . ... ... : ... .. 3 ... ... : ... .. 3 ... ... : ... .. . ... ...
ROW 6B : ... .. . P7B ... ... : ... .. 8 ... ... ... : ... .. . ... : ... .. 3 ... : ... .. . ... ... : ... .. 1 ... ... : ... .. 1 ... ... : ... .. . ... ...
ROW 6C : ... .. . P7F ... ... : ... .. . ... ... ... : ... .. . ... : ... .. F ... : ... .. . ... ... : ... .. 6 ... ... : ... .. 6 ... ... : ... .. . ... ...
ROW 6D : ... .. . P82 ... ... : B-3 00 5 ... ... ... : ... .. . ... : ... .. C ... : ... .. . ... ... : ... .. 4 ... ... : ... .. 4 ... ... : ... .. . ... ...
ROW 6E : ... .. . P86 ... ... : ... .. 4 ... ... ... : ... .. . ... : ... .. 6 ... : ... .. . ... ... : ... .. 3 ... ... : ... .. 3 ... ... : ... .. . ... ...
ROW 6F : ... .. . ... ... ... : ... .. . ... ... ... : ... .. . ... : ... .. 3 ... : ... .. . ... ... : ... .. 1 ... ... : ... .. 1 ... ... : ... .. . ... ...
ROW 70 : ... .. . P83 ... ... : A-5 00 A ... ... ... : E-4 00 . ... : ... .. F ... : ... .. . ... ... : ... .. 8 ... ... : ... .. 8 ... ... : F-0 01 C ... ...
ROW 71 : ... .. . P80 ... ... : ... .. 8 ... ... ... : F#3 00 . ... : ... .. C ... : ... .. . ... ... : ... .. 7 ... ... : ... .. 7 ... ... : ... .. A ... ...
ROW 72 : ... .. . P7C ... ... : ... .. . ... ... ... : B-2 00 . ... : ... .. 6 ... : ... .. . ... ... : ... .. 6 ... ... : ... .. 6 ... ... : ... .. 6 ... ...
ROW 73 : ... .. . P7A ... ... : B-4 00 5 ... ... ... : A#2 00 . ... : 9-# 00 D ... : ... .. . ... ... : ... .. 5 ... ... : ... .. 5 ... ... : ... .. . ... ...
ROW 74 : ... .. . P7B ... ... : ... .. 4 ... ... ... : F-2 00 . ... : ... .. B ... : ... .. . ... ... : ... .. . ... ... : ... .. . ... ... : ... .. . ... ...
ROW 75 : ... .. . P7E ... ... : ... .. . ... ... ... : ... .. . ... : ... .. . ... : ... .. . ... ... : ... .. 4 ... ... : ... .. 4 ... ... : ... .. . ... ...
ROW 76 : ... .. . P82 ... ... : A-4 00 A ... ... ... : ... .. . ... : ... .. A ... : ... .. . ... ... : ... .. . ... ... : ... .. . ... ... : ... .. . ... ...
ROW 77 : ... .. 2 P85 ... ... : ... .. 8 ... ... ... : ... .. . ... : ... .. 8 ... : ... .. . ... ... : ... .. . ... ... : ... .. . ... ... : ... .. . ... ...
ROW 78 : ... .. . P86 ... ... : ... .. . ... ... ... : ... .. . ... : ... .. 7 ... : ... .. . ... ... : ... .. . ... ... : ... .. . ... ... : ... .. . ... ...
ROW 79 : ... .. . P84 ... ... : A-5 00 5 ... ... ... : ... .. . ... : ... .. 6 ... : ... .. . ... ... : --- .. . ... ... : --- .. . ... ... : ... .. . ... ...
ROW 7A : ... .. 1 P80 ... ... : ... .. 4 ... ... ... : ... .. . ... : ... .. . ... : ... .. . ... ... : ... .. . ... ... : ... .. . ... ... : ... .. . ... ...
ROW 7B : ... .. . P7D ... ... : ... .. . ... ... ... : ... .. . ... : ... .. 5 ... : ... .. . ... ... : ... .. . ... ... : ... .. . ... ... : ... .. . ... ...
ROW 7C : ... .. . P7A ... ... : A-3 00 A ... ... ... : E-2 00 . P86 : 7-# 00 F ... : ... .. . ... ... : F-3 01 6 ... ... : A-3 01 6 ... ... : ... .. . P60 ...
ROW 7D : ... .. 0 ... ... ... : ... .. 8 ... ... ... : D#2 00 . P8E : ... .. C ... : ... .. . ... ... : ... .. 4 ... ... : ... .. 4 ... ... : ... .. . P40 ...
ROW 7E : ... .. . ... ... ... : ... .. . ... ... ... : ... .. . P6E : ... .. 6 ... : ... .. . ... ... : ... .. 3 ... ... : ... .. 3 ... ... : E-0 01 6 PCE ...
ROW 7F : ... .. . ... ... ... : A-4 00 5 ... ... ... : D-2 00 . P79 : ... .. 3 ... : ... .. . ... ... : ... .. 1 ... ... : ... .. 1 ... ... : ... .. . PAE ...
ROW 80 : ... .. . ... ... ... : ... .. 4 ... ... ... : C#2 00 . P86 : ... .. F ... : ... .. . ... ... : ... .. 6 ... ... : ... .. 6 ... ... : ... .. . P8E ...
ROW 81 : ... .. . ... ... ... : ... .. . ... ... ... : C-2 00 . P96 : ... .. C ... : ... .. . ... ... : ... .. 4 ... ... : ... .. 4 ... ... : ... .. . P6E ...
ROW 82 : ... .. . ... ... ... : ... .. A ... ... ... : ... .. . P76 : ... .. 6 ... : ... .. . ... ... : ... .. 3 ... ... : ... .. 3 ... ... : ... .. . P4E ...
ROW 83 : ... .. . ... ... ... : ... .. 8 ... ... ... : B-1 00 . P89 : ... .. 3 ... : ... .. . ... ... : ... .. 1 ... ... : ... .. 1 ... ... : ... .. . P2E ...
ROW 84 : ... .. . ... ... ... : ... .. . ... ... ... : ... .. . P69 : ... .. F ... : ... .. . ... ... : ... .. 6 ... ... : ... .. 6 ... ... : D#0 01 6 PC6 ...
ROW 85 : ... .. . ... ... ... : A-3 00 5 ... ... ... : A#1 00 . P7F : ... .. C ... : ... .. . ... ... : ... .. 4 ... ... : ... .. 4 ... ... : ... .. . PA6 ...
ROW 86 : ... .. . ... ... ... : ... .. 4 ... ... ... : A-1 00 . P98 : ... .. 6 ... : ... .. . ... ... : ... .. 3 ... ... : ... .. 3 ... ... : ... .. . P86 ...
ROW 87 : ... .. . ... ... ... : ... .. . ... ... ... : ... .. . P78 : ... .. 3 ... : ... .. . ... ... : ... .. 1 ... ... : ... .. 1 ... ... : ... .. . P66 ...
ROW 88 : ... .. . ... ... ... : F-5 00 A ... ... ... : E-4 00 . P80 : ... .. F ... : ... .. . ... ... : G-3 01 8 ... ... : B-3 01 8 ... ... : F-0 01 C P80 ...
ROW 89 : ... .. . ... ... ... : ... .. 8 ... ... ... : F#3 00 . ... : ... .. C ... : ... .. . ... ... : ... .. 7 ... ... : ... .. 7 ... ... : ... .. A ... ...
ROW 8A : ... .. . ... ... ... : ... .. . ... ... ... : B-2 00 . ... : ... .. 6 ... : ... .. . ... ... : ... .. 6 ... ... : ... .. 6 ... ... : ... .. 6 ... ...
ROW 8B : ... .. . ... ... ... : A-4 00 5 ... ... ... : A#2 00 . ... : ... .. 3 ... : ... .. . ... ... : ... .. 5 ... ... : ... .. 5 ... ... : ... .. . ... ...
ROW 8C : ... .. . ... ... ... : ... .. 4 ... ... ... : F-2 00 . ... : ... .. 2 ... : ... .. . ... ... : ... .. . ... ... : ... .. . ... ... : ... .. . ... ...
ROW 8D : ... .. . ... ... ... : ... .. . ... ... ... : ... .. . ... : ... .. 0 ... : ... .. . ... ... : --- .. . P81 ... : --- .. . ... ... : ... .. . ... ...
ROW 8E : ... .. . ... ... ... : F-4 00 A ... ... ... : ... .. . ... : ... .. . ... : ... .. . ... ... : ... .. . ... ... : ... .. . ... ... : ... .. . ... ...
ROW 8F : ... .. . ... ... ... : ... .. 8 ... ... ... : ... .. . ... : ... .. . ... : ... .. . ... ... : ... .. . ... ... : ... .. . ... ... : ... .. . ... ...
ROW 90 : ... .. . ... ... ... : ... .. . ... ... ... : E-4 00 . ... : ... .. F ... : ... .. . ... ... : G-3 01 8 P80 ... : B-3 01 8 ... ... : ... .. C ... ...
ROW 91 : ... .. . ... ... ... : F-5 00 5 ... ... ... : F#3 00 . ... : ... .. C ... : ... .. . ... ... : ... .. 7 ... ... : ... .. 7 ... ... : ... .. A ... ...
ROW 92 : ... .. . ... ... ... : ... .. 4 ... ... ... : B-2 00 . ... : ... .. 6 ... : ... .. . ... ... : ... .. 6 ... ... : ... .. 6 ... ... : ... .. 6 ... ...
ROW 93 : ... .. . ... ... ... : ... .. . ... ... ... : A#2 00 . ... : ... .. 3 ... : ... .. . ... ... : ... .. 5 ... ... : ... .. 5 ... ... : ... .. . ... ...
ROW 94 : ... .. . ... ... ... : F-3 00 A ... ... ... : F-2 00 . ... : ... .. 2 ... : ... .. . ... ... : --- .. . P81 ... : --- .. . ... ... : ... .. . ... ...
ROW 95 : ... .. . ... ... ... : ... .. 8 ... ... ... : ... .. . ... : ... .. 0 ... : ... .. . ... ... : ... .. . ... ... : ... .. . ... ... : ... .. . ... ...
ROW 96 : ... .. . ... ... ... : ... .. . ... ... ... : ... .. . ... : ... .. . ... : ... .. . ... ... : ... .. . ... ... : ... .. . ... ... : ... .. . ... ...
ROW 97 : ... .. . ... ... ... : F-4 00 5 ... ... ... : ... .. . ... : ... .. . ... : ... .. . ... ... : ... .. . ... ... : ... .. . ... ... : ... .. . ... ...
ROW 98 : ... .. . ... ... ... : ... .. 4 ... ... ... : E-4 00 . ... : ... .. F ... : ... .. . ... ... : G-3 01 8 P80 ... : B-3 01 8 ... ... : ... .. C ... ...
ROW 99 : ... .. . ... ... ... : ... .. . ... ... ... : F#3 00 . ... : ... .. C ... : ... .. . ... ... : ... .. 7 ... ... : ... .. 7 ... ... : ... .. A ... ...
ROW 9A : ... .. . ... ... ... : ... .. A ... ... ... : B-2 00 . ... : ... .. 6 ... : ... .. . ... ... : ... .. 6 ... ... : ... .. 6 ... ... : ... .. 6 ... ...
ROW 9B : ... .. . ... ... ... : ... .. 8 ... ... ... : A#2 00 . ... : ... .. 3 ... : ... .. . ... ... : ... .. 5 ... ... : ... .. 5 ... ... : ... .. . ... ...
ROW 9C : ... .. . ... ... ... : ... .. . ... ... ... : F-2 00 . ... : ... .. 2 ... : ... .. . ... ... : ... .. . ... ... : ... .. . ... ... : ... .. . ... ...
ROW 9D : ... .. . ... ... ... : F-3 00 5 ... ... ... : ... .. . ... : ... .. 0 ... : ... .. . ... ... : --- .. . P81 ... : --- .. . ... ... : ... .. . ... ...
ROW 9E : ... .. . ... ... ... : ... .. 4 ... ... ... : ... .. . ... : ... .. . ... : ... .. . ... ... : ... .. . ... ... : ... .. . ... ... : ... .. . ... ...
ROW 9F : ... .. . ... ... ... : ... .. . ... ... ... : ... .. . ... : ... .. . ... : ... .. . ... ... : ... .. . ... ... : ... .. . ... ... : ... .. . ... ...
ROW A0 : B-3 00 F P80 ... ... : D#5 00 A ... ... ... : E-3 00 . ... : ... .. F ... : ... .. . ... ... : D#3 01 8 P80 ... : G-3 01 8 ... ... : ... .. C ... ...
ROW A1 : ... .. E ... ... ... : ... .. 8 ... ... ... : F#2 00 . ... : ... .. C ... : ... .. . ... ... : ... .. 7 ... ... : ... .. 7 ... ... : ... .. A ... ...
ROW A2 : ... .. D ... ... ... : ... .. . ... ... ... : B-1 00 . ... : ... .. 6 ... : ... .. . ... ... : ... .. 6 ... ... : ... .. 6 ... ... : ... .. 6 ... ...
ROW A3 : ... .. A ... ... ... : F-4 00 5 ... ... ... : A#1 00 . ... : ... .. 3 ... : ... .. . ... ... : ... .. 5 ... ... : ... .. 5 ... ... : ... .. . ... ...
ROW A4 : ... .. . ... ... ... : ... .. 4 ... ... ... : F-1 00 . ... : ... .. 2 ... : ... .. . ... ... : ... .. . ... ... : ... .. . ... ... : ... .. . ... ...
ROW A5 : ... .. . ... ... ... : ... .. . ... ... ... : ... .. . ... : ... .. 0 ... : ... .. . ... ... : --- .. . P83 ... : --- .. . P81 ... : ... .. . ... ...
ROW A6 : ... .. . ... ... ... : D#4 00 A ... ... ... : ... .. . ... : ... .. . ... : ... .. . ... ... : ... .. . ... ... : ... .. . ... ... : ... .. . ... ...
ROW A7 : ... .. . ... ... ... : ... .. 8 ... ... ... : ... .. . ... : ... .. . ... : ... .. . ... ... : ... .. . ... ... : ... .. . ... ... : ... .. . ... ...
ROW A8 : ... .. . ... ... ... : ... .. . ... ... ... : E-3 00 . ... : ... .. F ... : ... .. . ... ... : D#3 01 8 P80 ... : G-3 01 8 P80 ... : ... .. C ... ...
ROW A9 : ... .. . ... ... ... : D#5 00 5 ... ... ... : F#2 00 . ... : ... .. C ... : ... .. . ... ... : ... .. 7 ... ... : ... .. 7 ... ... : ... .. A ... ...
ROW AA : ... .. . ... ... ... : ... .. 4 ... ... ... : B-1 00 . ... : ... .. 6 ... : ... .. . ... ... : ... .. 6 ... ... : ... .. 6 ... ... : ... .. 6 ... ...
ROW AB : ... .. . ... ... ... : ... .. . ... ... ... : A#1 00 . ... : ... .. 3 ... : ... .. . ... ... : ... .. 5 ... ... : ... .. 5 ... ... : ... .. . ... ...
ROW AC : ... .. . ... ... ... : D#3 00 A ... ... ... : F-1 00 . ... : ... .. 2 ... : ... .. . ... ... : --- .. . P83 ... : --- .. . P81 ... : ... .. . ... ...
ROW AD : ... .. 2 ... ... ... : ... .. 8 ... ... ... : ... .. . ... : ... .. 0 ... : ... .. . ... ... : ... .. . ... ... : ... .. . ... ... : ... .. . ... ...
ROW AE : ... .. . ... ... ... : ... .. . ... ... ... : ... .. . ... : ... .. . ... : ... .. . ... ... : ... .. . ... ... : ... .. . ... ... : ... .. . ... ...
ROW AF : ... .. . ... ... ... : D#4 00 5 ... ... ... : ... .. . ... : ... .. . ... : ... .. . ... ... : ... .. . ... ... : ... .. . ... ... : ... .. . ... ...
ROW B0 : ... .. 1 ... ... ... : ... .. 4 ... ... ... : E-3 00 . ... : ... .. F ... : ... .. . ... ... : D#3 01 8 P80 ... : G-3 01 8 P80 ... : ... .. C ... ...
ROW B1 : ... .. . ... ... ... : ... .. . ... ... ... : F#2 00 . ... : ... .. C ... : ... .. . ... ... : ... .. 7 ... ... : ... .. 7 ... ... : ... .. A ... ...
ROW B2 : ... .. F ... ... ... : ... .. A ... ... ... : B-1 00 . ... : ... .. 6 ... : ... .. . ... ... : ... .. 6 ... ... : ... .. 6 ... ... : ... .. 6 ... ...
ROW B3 : ... .. E ... ... ... : ... .. 8 ... ... ... : A#1 00 . ... : ... .. 3 ... : ... .. . ... ... : ... .. 5 ... ... : ... .. 5 ... ... : ... .. . ... ...
ROW B4 : ... .. D ... ... ... : ... .. . ... ... ... : F-1 00 . ... : ... .. 2 ... : ... .. . ... ... : ... .. . ... ... : ... .. . ... ... : ... .. . ... ...
ROW B5 : ... .. 0 ... ... ... : D#3 00 5 ... ... ... : ... .. . ... : ... .. 0 ... : ... .. . ... ... : --- .. . P83 ... : --- .. . P81 ... : ... .. . ... ...
ROW B6 : ... .. . ... ... ... : ... .. 4 ... ... ... : ... .. . ... : ... .. . ... : ... .. . ... ... : ... .. . ... ... : ... .. . ... ... : ... .. . ... ...
ROW B7 : ... .. . ... ... ... : ... .. . ... ... ... : ... .. . ... : ... .. . ... : ... .. . ... ... : ... .. . ... ... : ... .. . ... ... : ... .. . ... ...
ROW B8 : B-4 00 F P80 ... ... : C#4 00 A ... ... ... : --- .. . ... : 9-# 00 F ... : ... .. . ... ... : F-3 01 8 P80 ... : A-3 01 8 P80 ... : --- .. . P82 ...
ROW B9 : ... .. E ... ... ... : ... .. 8 ... ... ... : ... .. . ... : ... .. C ... : ... .. . ... ... : ... .. 7 ... ... : ... .. 7 ... ... : ... .. . ... ...
ROW BA : ... .. D ... ... ... : ... .. . ... ... ... : ... .. . ... : ... .. 6 ... : ... .. . ... ... : ... .. 6 ... ... : ... .. 6 ... ... : ... .. . ... ...
ROW BB : ... .. 8 ... ... ... : D#4 00 5 ... ... ... : ... .. . ... : ... .. 3 ... : ... .. . ... ... : ... .. 5 ... ... : ... .. 5 ... ... : ... .. . ... ...
ROW BC : ... .. . ... ... ... : ... .. 4 ... ... ... : ... .. . ... : ... .. 2 ... : ... .. . ... ... : ... .. . ... ... : ... .. . ... ... : ... .. . ... ...
ROW BD : ... .. . ... ... ... : ... .. . ... ... ... : ... .. . ... : ... .. 0 ... : ... .. . ... ... : ... .. 4 ... ... : ... .. 4 ... ... : ... .. . ... ...
ROW BE : ... .. 6 ... ... ... : A-3 00 A ... ... ... : ... .. . ... : 2-# 00 F ... : ... .. . ... ... : ... .. . ... ... : ... .. . ... ... : ... .. . ... ...
ROW BF : ... .. . ... ... ... : ... .. 8 ... ... ... : ... .. . ... : ... .. C ... : ... .. . ... ... : ... .. . ... ... : ... .. . ... ... : ... .. . ... ...
ROW C0 : ... .. . ... ... ... : ... .. . ... ... ... : ... .. . ... : ... .. 6 ... : ... .. . ... ... : ... .. . ... ... : ... .. . ... ... : ... .. . ... ...
ROW C1 : ... .. 4 ... ... ... : C#4 00 5 ... ... ... : ... .. . ... : ... .. 3 ... : ... .. . ... ... : --- .. . ... ... : --- .. . ... ... : ... .. . ... ...
ROW C2 : ... .. . ... ... ... : ... .. 4 ... ... ... : ... .. . ... : ... .. 2 ... : ... .. . ... ... : ... .. . ... ... : ... .. . ... ... : ... .. . ... ...
ROW C3 : ... .. . ... ... ... : ... .. . ... ... ... : ... .. . ... : ... .. 0 ... : ... .. . ... ... : ... .. . ... ... : ... .. . ... ... : ... .. . ... ...
ROW C4 : ... .. 2 ... ... ... : F-3 00 A ... ... ... : ... .. . ... : 1-# 00 F ... : ... .. . ... ... : F-3 01 6 ... ... : A-3 01 6 ... ... : ... .. . ... ...
ROW C5 : ... .. . ... ... ... : ... .. 8 ... ... ... : ... .. . ... : ... .. C ... : ... .. . ... ... : ... .. 4 ... ... : ... .. 4 ... ... : ... .. . ... ...
ROW C6 : ... .. . ... ... ... : ... .. . ... ... ... : ... .. . ... : ... .. 6 ... : ... .. . ... ... : ... .. 3 ... ... : ... .. 3 ... ... : ... .. . ... ...
ROW C7 : ... .. 3 ... ... ... : A-3 00 5 ... ... ... : ... .. . ... : ... .. 3 ... : ... .. . ... ... : ... .. 1 ... ... : ... .. 1 ... ... : ... .. . ... ...
ROW C8 : ... .. . ... ... ... : ... .. 4 ... ... ... : ... .. . ... : ... .. 2 ... : ... .. . ... ... : ... .. 6 ... ... : ... .. 6 ... ... : ... .. . ... ...
ROW C9 : ... .. . ... ... ... : ... .. . ... ... ... : ... .. . ... : ... .. 0 ... : ... .. . ... ... : ... .. 4 ... ... : ... .. 4 ... ... : ... .. . ... ...
ROW CA : ... .. 4 ... ... ... : C#3 00 A ... ... ... : ... .. . ... : C-# 00 F ... : ... .. . ... ... : ... .. 3 ... ... : ... .. 3 ... ... : ... .. . ... ...
ROW CB : ... .. . ... ... ... : ... .. 8 ... ... ... : ... .. . ... : ... .. C ... : ... .. . ... ... : ... .. 1 ... ... : ... .. 1 ... ... : ... .. . ... ...
ROW CC : ... .. . ... ... ... : ... .. . ... ... ... : ... .. . ... : ... .. 6 ... : ... .. . ... ... : ... .. 6 ... ... : ... .. 6 ... ... : ... .. . ... ...
ROW CD : ... .. . ... ... ... : F-3 00 5 ... ... ... : ... .. . ... : ... .. 3 ... : ... .. . ... ... : ... .. 4 ... ... : ... .. 4 ... ... : ... .. . ... ...
ROW CE : ... .. . ... ... ... : ... .. 4 ... ... ... : ... .. . ... : ... .. 2 ... : ... .. . ... ... : ... .. 3 ... ... : ... .. 3 ... ... : ... .. . ... ...
ROW CF : ... .. . ... ... ... : ... .. . ... ... ... : ... .. . ... : ... .. 0 ... : ... .. . ... ... : ... .. 1 ... ... : ... .. 1 ... ... : ... .. . ... ...
ROW D0 : ... .. 5 P82 ... ... : B-3 00 A ... ... ... : E-5 00 . ... : 7-# 00 F ... : ... .. . ... ... : C#3 01 8 ... ... : F-3 01 8 ... ... : F-1 01 C P80 ...
ROW D1 : ... .. . P83 ... ... : ... .. 8 ... ... ... : F#4 00 . ... : ... .. C ... : ... .. . ... ... : ... .. 7 ... ... : ... .. 7 ... ... : ... .. A ... ...
ROW D2 : ... .. . ... ... ... : ... .. . ... ... ... : B-3 00 . ... : ... .. 6 ... : ... .. . ... ... : ... .. 6 ... ... : ... .. 6 ... ... : ... .. 6 ... ...
ROW D3 : ... .. 6 P81 ... ... : C#3 00 5 ... ... ... : A#3 00 . ... : ... .. 3 ... : ... .. . ... ... : ... .. 5 ... ... : ... .. 5 ... ... : ... .. . ... ...
ROW D4 : ... .. . P7F ... ... : ... .. 4 ... ... ... : F-3 00 . ... : ... .. 2 ... : ... .. . ... ... : ... .. . ... ... : ... .. . ... ... : ... .. . ... ...
ROW D5 : ... .. . P7D ... ... : ... .. . ... ... ... : ... .. . ... : ... .. 0 ... : ... .. . ... ... : ... .. 4 ... ... : ... .. 4 ... ... : ... .. . ... ...
ROW D6 : ... .. . ... ... ... : G-3 00 A ... ... ... : ... .. . ... : 1-# 00 F ... : ... .. . ... ... : ... .. . ... ... : ... .. . ... ... : ... .. . ... ...
ROW D7 : ... .. . P7E ... ... : ... .. 8 ... ... ... : ... .. . ... : ... .. C ... : ... .. . ... ... : ... .. . ... ... : ... .. . ... ... : ... .. . ... ...
ROW D8 : ... .. . P80 ... ... : ... .. . ... ... ... : ... .. . ... : ... .. 6 ... : ... .. . ... ... : ... .. . ... ... : ... .. . ... ... : ... .. . ... ...
ROW D9 : ... .. 7 P82 ... ... : B-3 00 5 ... ... ... : ... .. . ... : ... .. 3 ... : ... .. . ... ... : --- .. . P83 ... : --- .. . ... ... : ... .. . ... ...
ROW DA : ... .. . P83 ... ... : ... .. 4 ... ... ... : ... .. . ... : ... .. 2 ... : ... .. . ... ... : ... .. . ... ... : ... .. . ... ... : ... .. . ... ...
ROW DB : ... .. . ... ... ... : ... .. . ... ... ... : ... .. . ... : ... .. 0 ... : ... .. . ... ... : ... .. . ... ... : ... .. . ... ... : ... .. . ... ...
ROW DC : ... .. 8 P81 ... ... : D#3 00 A ... ... ... : D#3 00 . P88 : C-# 00 F ... : ... .. . ... ... : C#3 01 6 P80 ... : F-3 01 6 ... ... : ... .. . P60 ...
ROW DD : ... .. . P80 ... ... : ... .. 8 ... ... ... : D-3 00 . P7D : ... .. C ... : ... .. . ... ... : ... .. 4 ... ... : ... .. 4 ... ... : E-1 01 6 P97 ...
ROW DE : ... .. . P7D ... ... : ... .. . ... ... ... : C-3 00 . P8C : ... .. 6 ... : ... .. . ... ... : ... .. 3 ... ... : ... .. 3 ... ... : ... .. . P77 ...
ROW DF : ... .. . ... ... ... : G-3 00 5 ... ... ... : B-2 00 . P85 : ... .. 3 ... : ... .. . ... ... : ... .. 1 ... ... : ... .. 1 ... ... : ... .. . P57 ...
ROW E0 : ... .. . P7E ... ... : ... .. 4 ... ... ... : A#2 00 . P80 : ... .. 2 ... : ... .. . ... ... : ... .. 6 ... ... : ... .. 6 ... ... : D#1 01 6 P94 ...
ROW E1 : ... .. . P80 ... ... : ... .. . ... ... ... : A-2 00 . P7C : ... .. 0 ... : ... .. . ... ... : ... .. 4 ... ... : ... .. 4 ... ... : ... .. . P74 ...
ROW E2 : ... .. A P81 ... ... : B-2 00 A ... ... ... : G#2 00 . P7B : 7-# 00 F ... : ... .. . ... ... : ... .. 3 ... ... : ... .. 3 ... ... : ... .. . P54 ...
ROW E3 : ... .. . P83 ... ... : ... .. 8 ... ... ... : G-2 00 . ... : ... .. C ... : ... .. . ... ... : ... .. 1 ... ... : ... .. 1 ... ... : D-1 01 6 P95 ...
ROW E4 : ... .. . ... ... ... : ... .. . ... ... ... : F#2 00 . P7D : ... .. 6 ... : ... .. . ... ... : ... .. 6 ... ... : ... .. 6 ... ... : ... .. . P75 ...
ROW E5 : ... .. . P81 ... ... : D#3 00 5 ... ... ... : F-2 00 . P81 : ... .. 3 ... : ... .. . ... ... : ... .. 4 ... ... : ... .. 4 ... ... : ... .. . P55 ...
ROW E6 : ... .. . P80 ... ... : ... .. 4 ... ... ... : E-2 00 . P87 : ... .. 2 ... : ... .. . ... ... : ... .. 3 ... ... : ... .. 3 ... ... : C#1 01 6 P9D ...
ROW E7 : ... .. . P7E ... ... : ... .. . ... ... ... : D#2 00 . P8F : ... .. 0 ... : ... .. . ... ... : ... .. 1 ... ... : ... .. 1 ... ... : ... .. . P7D ...
ROW E8 : ... .. . P7D ... ... : A-3 00 A ... ... ... : E-5 00 . P80 : 1-# 00 F ... : ... .. . ... ... : D#3 01 8 ... ... : G-3 01 8 ... ... : F-1 01 C P80 ...
ROW E9 : ... .. . ... ... ... : ... .. 8 ... ... ... : F#4 00 . ... : ... .. C ... : ... .. . ... ... : ... .. 7 ... ... : ... .. 7 ... ... : ... .. A ... ...
ROW EA : ... .. . P80 ... ... : ... .. . ... ... ... : B-3 00 . ... : ... .. 6 ... : ... .. . ... ... : ... .. 6 ... ... : ... .. 6 ... ... : ... .. 6 ... ...
ROW EB : ... .. . P81 ... ... : B-2 00 5 ... ... ... : A#3 00 . ... : ... .. 3 ... : ... .. . ... ... : ... .. 5 ... ... : ... .. 5 ... ... : ... .. . ... ...
ROW EC : ... .. . P83 ... ... : ... .. 4 ... ... ... : F-3 00 . ... : ... .. 2 ... : ... .. . ... ... : ... .. . ... ... : ... .. . ... ... : ... .. . ... ...
ROW ED : ... .. . ... ... ... : ... .. . ... ... ... : ... .. . ... : ... .. 0 ... : ... .. . ... ... : --- .. . P83 ... : --- .. . P81 ... : ... .. . ... ...
ROW EE : ... .. . P82 ... ... : F-3 00 A ... ... ... : ... .. . ... : B-# 00 F ... : ... .. . ... ... : ... .. . ... ... : ... .. . ... ... : ... .. . ... ...
ROW EF : ... .. . P80 ... ... : ... .. 8 ... ... ... : ... .. . ... : ... .. C ... : ... .. . ... ... : ... .. . ... ... : ... .. . ... ... : ... .. . ... ...
ROW F0 : ... .. . P7E ... ... : ... .. . ... ... ... : E-5 00 . ... : ... .. 6 ... : ... .. . ... ... : D#3 01 8 P80 ... : G-3 01 8 P80 ... : ... .. C ... ...
ROW F1 : ... .. . P7D ... ... : A-3 00 5 ... ... ... : F#4 00 . ... : ... .. 3 ... : ... .. . ... ... : ... .. 7 ... ... : ... .. 7 ... ... : ... .. A ... ...
ROW F2 : ... .. . ... ... ... : ... .. 4 ... ... ... : B-3 00 . ... : ... .. 2 ... : ... .. . ... ... : ... .. 6 ... ... : ... .. 6 ... ... : ... .. 6 ... ...
ROW F3 : ... .. . P7F ... ... : ... .. . ... ... ... : A#3 00 . ... : ... .. 0 ... : ... .. . ... ... : ... .. 5 ... ... : ... .. 5 ... ... : ... .. . ... ...
ROW F4 : ... .. . P81 ... ... : C#3 00 A ... ... ... : F-3 00 . ... : 7-# 00 F ... : ... .. . ... ... : --- .. . P83 ... : --- .. . P81 ... : ... .. . ... ...
ROW F5 : ... .. . P83 ... ... : ... .. 8 ... ... ... : ... .. . ... : ... .. C ... : ... .. . ... ... : ... .. . ... ... : ... .. . ... ... : ... .. . ... ...
ROW F6 : ... .. . ... ... ... : ... .. . ... ... ... : ... .. . ... : ... .. 6 ... : ... .. . ... ... : ... .. . ... ... : ... .. . ... ... : ... .. . ... ...
ROW F7 : ... .. . P82 ... ... : F-3 00 5 ... ... ... : ... .. . ... : ... .. 3 ... : ... .. . ... ... : ... .. . ... ... : ... .. . ... ... : ... .. . ... ...
ROW F8 : ... .. . P80 ... ... : ... .. 4 ... ... ... : E-5 00 . ... : ... .. 2 ... : ... .. . ... ... : D#3 01 8 P80 ... : G-3 01 8 P80 ... : ... .. C ... ...
ROW F9 : ... .. . P7E ... ... : ... .. . ... ... ... : F#4 00 . ... : ... .. 0 ... : ... .. . ... ... : ... .. 7 ... ... : ... .. 7 ... ... : ... .. A ... ...
ROW FA : ... .. . P7D ... ... : A-2 00 A ... ... ... : B-3 00 . ... : 1-# 00 F ... : ... .. . ... ... : ... .. 6 ... ... : ... .. 6 ... ... : ... .. 6 ... ...
ROW FB : ... .. . ... ... ... : ... .. 8 ... ... ... : A#3 00 . ... : ... .. C ... : ... .. . ... ... : ... .. 5 ... ... : ... .. 5 ... ... : ... .. . ... ...
ROW FC : ... .. . P7F ... ... : ... .. . ... ... ... : F-3 00 . ... : ... .. 6 ... : ... .. . ... ... : ... .. . ... ... : ... .. . ... ... : ... .. . ... ...
ROW FD : ... .. . P80 ... ... : C#3 00 5 ... ... ... : ... .. . ... : ... .. 3 ... : ... .. . ... ... : --- .. . P83 ... : --- .. . P81 ... : ... .. . ... ...
ROW FE : ... .. . P83 ... ... : ... .. 4 ... ... ... : ... .. . ... : ... .. 2 ... : ... .. . ... ... : ... .. . ... ... : ... .. . ... ... : ... .. . ... ...
ROW FF : ... .. . ... ... ... : ... .. . ... ... ... : ... .. . ... : ... .. 0 ... : ... .. . ... ... : ... .. . ... ... : ... .. . ... ... : ... .. . ... ...

PATTERN 15
ROW 00 : ... .. . P82 ... ... : G-3 00 A ... ... ... : E-4 00 . ... : 9-# 00 F ... : ... .. . ... ... : B-2 01 8 P80 ... : D#3 01 8 P80 ... : F-0 01 C ... ...
ROW 01 : ... .. . P80 ... ... : ... .. 8 ... ... ... : F#3 00 . ... : ... .. C ... : ... .. . ... ... : ... .. 7 ... ... : ... .. 7 ... ... : ... .. A ... ...
ROW 02 : ... .. . P7F ... ... : ... .. . ... ... ... : B-2 00 . ... : ... .. 6 ... : ... .. . ... ... : ... .. 6 ... ... : ... .. 6 ... ... : ... .. 6 ... ...
ROW 03 : ... .. . P7D ... ... : A-2 00 5 ... ... ... : A#2 00 . ... : ... .. 3 ... : ... .. . ... ... : ... .. 5 ... ... : ... .. 5 ... ... : ... .. . ... ...
ROW 04 : ... .. . ... ... ... : ... .. 4 ... ... ... : F-2 00 . ... : ... .. 2 ... : ... .. . ... ... : ... .. . ... ... : ... .. . ... ... : ... .. . ... ...
ROW 05 : ... .. . P7F ... ... : ... .. . ... ... ... : ... .. . ... : ... .. 0 ... : ... .. . ... ... : --- .. . P85 ... : --- .. . P83 ... : ... .. . ... ...
ROW 06 : ... .. . P80 ... ... : D#3 00 A ... ... ... : ... .. . ... : ... .. F ... : ... .. . ... ... : ... .. . ... ... : ... .. . ... ... : ... .. . ... ...
ROW 07 : ... .. . P82 ... ... : ... .. 8 ... ... ... : ... .. . ... : ... .. C ... : ... .. . ... ... : ... .. . ... ... : ... .. . ... ... : ... .. . ... ...
ROW 08 : ... .. . P83 ... ... : ... .. . ... ... ... : E-4 00 . ... : ... .. 6 ... : ... .. . ... ... : B-2 01 8 P80 ... : D#3 01 8 P80 ... : ... .. C ... ...
ROW 09 : ... .. . ... ... ... : G-3 00 5 ... ... ... : F#3 00 . ... : ... .. 3 ... : ... .. . ... ... : ... .. 7 ... ... : ... .. 7 ... ... : ... .. A ... ...
ROW 0A : ... .. 2 P80 ... ... : ... .. 4 ... ... ... : B-2 00 . ... : ... .. 2 ... : ... .. . ... ... : ... .. 6 ... ... : ... .. 6 ... ... : ... .. 6 ... ...
ROW 0B : ... .. . P7F ... ... : ... .. . ... ... ... : A#2 00 . ... : ... .. 0 ... : ... .. . ... ... : ... .. 5 ... ... : ... .. 5 ... ... : ... .. . ... ...
ROW 0C : ... .. . P7D ... ... : B-2 00 A ... ... ... : F-2 00 . ... : 7-# 00 F ... : ... .. . ... ... : --- .. . P85 ... : --- .. . P83 ... : ... .. . ... ...
ROW 0D : ... .. 1 ... ... ... : ... .. 8 ... ... ... : ... .. . ... : ... .. C ... : ... .. . ... ... : ... .. . ... ... : ... .. . ... ... : ... .. . ... ...
ROW 0E : ... .. . P7E ... ... : ... .. . ... ... ... : ... .. . ... : ... .. 6 ... : ... .. . ... ... : ... .. . ... ... : ... .. . ... ... : ... .. . ... ...
ROW 0F : ... .. . P80 ... ... : D#3 00 5 ... ... ... : ... .. . ... : ... .. 3 ... : ... .. . ... ... : ... .. . ... ... : ... .. . ... ... : ... .. . ... ...
ROW 10 : ... .. 0 ... ... ... : ... .. 4 ... ... ... : E-4 00 . ... : ... .. 2 ... : ... .. . ... ... : B-2 01 8 P80 ... : D#3 01 8 P80 ... : ... .. C ... ...
ROW 11 : ... .. . ... ... ... : ... .. . ... ... ... : F#3 00 . ... : ... .. 0 ... : ... .. . ... ... : ... .. 7 ... ... : ... .. 7 ... ... : ... .. A ... ...
ROW 12 : ... .. . ... ... ... : G-2 00 A ... ... ... : B-2 00 . ... : ... .. F ... : ... .. . ... ... : ... .. 6 ... ... : ... .. 6 ... ... : ... .. 6 ... ...
ROW 13 : ... .. . ... ... ... : ... .. 8 ... ... ... : A#2 00 . ... : ... .. C ... : ... .. . ... ... : ... .. 5 ... ... : ... .. 5 ... ... : ... .. . ... ...
ROW 14 : ... .. . ... ... ... : ... .. . ... ... ... : F-2 00 . ... : ... .. 6 ... : ... .. . ... ... : ... .. . ... ... : ... .. . ... ... : ... .. . ... ...
ROW 15 : ... .. . ... ... ... : B-2 00 5 ... ... ... : ... .. . ... : ... .. 3 ... : ... .. . ... ... : --- .. . P85 ... : --- .. . P83 ... : ... .. . ... ...
ROW 16 : ... .. . ... ... ... : ... .. 4 ... ... ... : ... .. . ... : ... .. 2 ... : ... .. . ... ... : ... .. . ... ... : ... .. . ... ... : ... .. . ... ...
ROW 17 : ... .. . ... ... ... : ... .. . ... ... ... : ... .. . ... : ... .. 0 ... : ... .. . ... ... : ... .. . ... ... : ... .. . ... ... : ... .. . ... ...
ROW 18 : B-1 00 D P80 ... ... : F#2 00 A ... ... ... : --- .. . ... : 9-# 00 F ... : ... .. . ... ... : D-4 01 8 P80 ... : F#4 01 8 P80 ... : --- .. . P82 ...
ROW 19 : ... .. B ... ... ... : ... .. 8 ... ... ... : ... .. . ... : ... .. C ... : ... .. . ... ... : ... .. 7 ... ... : ... .. 7 ... ... : ... .. . ... ...
ROW 1A : ... .. . ... ... ... : ... .. . ... ... ... : ... .. . ... : ... .. 6 ... : ... .. . ... ... : ... .. 6 ... ... : ... .. 6 ... ... : ... .. . ... ...
ROW 1B : D-4 00 4 ... ... ... : G-2 00 5 ... ... ... : ... .. . ... : ... .. 3 ... : ... .. . ... ... : ... .. 5 ... ... : ... .. 5 ... ... : ... .. . ... ...
ROW 1C : ... .. 3 ... ... ... : ... .. 4 ... ... ... : ... .. . ... : ... .. 2 ... : ... .. . ... ... : ... .. . ... ... : ... .. . ... ... : ... .. . ... ...
ROW 1D : ... .. . ... ... ... : ... .. . ... ... ... : ... .. . ... : ... .. 0 ... : ... .. . ... ... : ... .. 4 ... ... : ... .. 4 ... ... : ... .. . ... ...
ROW 1E : E-4 00 5 ... ... ... : ... .. A ... ... ... : ... .. . ... : 2-# 00 F ... : ... .. . ... ... : ... .. . ... ... : ... .. . ... ... : ... .. . ... ...
ROW 1F : ... .. 4 ... ... ... : ... .. 8 ... ... ... : ... .. . ... : ... .. C ... : ... .. . ... ... : ... .. . ... ... : ... .. . ... ... : ... .. . ... ...
ROW 20 : ... .. . ... ... ... : ... .. . ... ... ... : ... .. . ... : ... .. 6 ... : ... .. . ... ... : ... .. . ... ... : ... .. . ... ... : ... .. . ... ...
ROW 21 : F#4 00 7 ... ... ... : F#2 00 5 ... ... ... : ... .. . ... : ... .. 3 ... : ... .. . ... ... : --- .. . ... ... : --- .. . ... ... : ... .. . ... ...
ROW 22 : ... .. 6 ... ... ... : ... .. 4 ... ... ... : ... .. . ... : ... .. 2 ... : ... .. . ... ... : ... .. . ... ... : ... .. . ... ... : ... .. . ... ...
ROW 23 : ... .. . ... ... ... : ... .. . ... ... ... : ... .. . ... : ... .. 0 ... : ... .. . ... ... : ... .. . ... ... : ... .. . ... ... : ... .. . ... ...
ROW 24 : G#4 00 8 ... ... ... : B-2 00 A ... ... ... : ... .. . ... : 1-# 00 F ... : ... .. . ... ... : D-4 01 6 ... ... : F#4 01 6 ... ... : ... .. . ... ...
ROW 25 : ... .. 7 ... ... ... : ... .. 8 ... ... ... : ... .. . ... : ... .. C ... : ... .. . ... ... : ... .. 4 ... ... : ... .. 4 ... ... : ... .. . ... ...
ROW 26 : ... .. 6 ... ... ... : ... .. . ... ... ... : ... .. . ... : ... .. 6 ... : ... .. . ... ... : ... .. 3 ... ... : ... .. 3 ... ... : ... .. . ... ...
ROW 27 : A#4 00 A ... ... ... : G-2 00 5 ... ... ... : ... .. . ... : ... .. 3 ... : ... .. . ... ... : ... .. 1 ... ... : ... .. 1 ... ... : ... .. . ... ...
ROW 28 : ... .. 9 ... ... ... : ... .. 4 ... ... ... : ... .. . ... : ... .. 2 ... : ... .. . ... ... : ... .. 6 ... ... : ... .. 6 ... ... : ... .. . ... ...
ROW 29 : ... .. 8 ... ... ... : ... .. . ... ... ... : ... .. . ... : ... .. 0 ... : ... .. . ... ... : ... .. 4 ... ... : ... .. 4 ... ... : ... .. . ... ...
ROW 2A : B-4 00 B ... ... ... : D-3 00 A ... ... ... : ... .. . ... : C-# 00 F ... : ... .. . ... ... : ... .. 3 ... ... : ... .. 3 ... ... : ... .. . ... ...
ROW 2B : ... .. A ... ... ... : ... .. 8 ... ... ... : ... .. . ... : ... .. C ... : ... .. . ... ... : ... .. 1 ... ... : ... .. 1 ... ... : ... .. . ... ...
ROW 2C : ... .. 9 ... ... ... : ... .. . ... ... ... : ... .. . ... : ... .. 6 ... : ... .. . ... ... : ... .. 6 ... ... : ... .. 6 ... ... : ... .. . ... ...
ROW 2D : C#5 00 D ... ... ... : B-2 00 5 ... ... ... : ... .. . ... : ... .. 3 ... : ... .. . ... ... : ... .. 4 ... ... : ... .. 4 ... ... : ... .. . ... ...
ROW 2E : ... .. C ... ... ... : ... .. 4 ... ... ... : ... .. . ... : ... .. 2 ... : ... .. . ... ... : ... .. 3 ... ... : ... .. 3 ... ... : ... .. . ... ...
ROW 2F : ... .. B ... ... ... : ... .. . ... ... ... : ... .. . ... : ... .. 0 ... : ... .. . ... ... : ... .. 1 ... ... : ... .. 1 ... ... : ... .. . ... ...
ROW 30 : D-5 00 F ... ... ... : F#3 00 A ... ... ... : A#3 00 . ... : 7-# 00 F ... : ... .. . ... ... : ... .. 8 ... ... : ... .. 8 ... ... : B-0 01 C P80 ...
ROW 31 : ... .. E ... ... ... : ... .. 8 ... ... ... : C-3 00 . ... : ... .. C ... : ... .. . ... ... : ... .. 7 ... ... : ... .. 7 ... ... : ... .. A ... ...
ROW 32 : ... .. D ... ... ... : ... .. . ... ... ... : F-2 00 . ... : ... .. 6 ... : ... .. . ... ... : ... .. 6 ... ... : ... .. 6 ... ... : ... .. 6 ... ...
ROW 33 : ... .. A ... ... ... : D-3 00 5 ... ... ... : E-2 00 . ... : ... .. 3 ... : ... .. . ... ... : ... .. 5 ... ... : ... .. 5 ... ... : ... .. . ... ...
ROW 34 : ... .. . ... ... ... : ... .. 4 ... ... ... : B-1 00 . ... : ... .. 2 ... : ... .. . ... ... : ... .. . ... ... : ... .. . ... ... : ... .. . ... ...
ROW 35 : ... .. . ... ... ... : ... .. . ... ... ... : ... .. . ... : ... .. 0 ... : ... .. . ... ... : ... .. 4 ... ... : ... .. 4 ... ... : ... .. . ... ...
ROW 36 : ... .. . ... ... ... : G-3 00 A ... ... ... : ... .. . ... : 1-# 00 F ... : ... .. . ... ... : ... .. . ... ... : ... .. . ... ... : ... .. . ... ...
ROW 37 : ... .. . ... ... ... : ... .. 8 ... ... ... : ... .. . ... : ... .. C ... : ... .. . ... ... : ... .. . ... ... : ... .. . ... ... : ... .. . ... ...
ROW 38 : ... .. . ... ... ... : ... .. . ... ... ... : ... .. . ... : ... .. 6 ... : ... .. . ... ... : ... .. . ... ... : ... .. . ... ... : ... .. . ... ...
ROW 39 : ... .. . ... ... ... : F#3 00 5 ... ... ... : ... .. . ... : ... .. 3 ... : ... .. . ... ... : --- .. . ... ... : --- .. . ... ... : ... .. . ... ...
ROW 3A : ... .. . ... ... ... : ... .. 4 ... ... ... : ... .. . ... : ... .. 2 ... : ... .. . ... ... : ... .. . ... ... : ... .. . ... ... : ... .. . ... ...
ROW 3B : ... .. . ... ... ... : ... .. . ... ... ... : ... .. . ... : ... .. 0 ... : ... .. . ... ... : ... .. . ... ... : ... .. . ... ... : ... .. . ... ...
ROW 3C : ... .. . ... ... ... : B-3 00 A ... ... ... : ... .. . ... : C-# 00 F ... : ... .. . ... ... : D-4 01 6 ... ... : F#4 01 6 ... ... : ... .. . ... ...
ROW 3D : ... .. . ... ... ... : ... .. 8 ... ... ... : ... .. . ... : ... .. C ... : ... .. . ... ... : ... .. 4 ... ... : ... .. 4 ... ... : ... .. . ... ...
ROW 3E : ... .. . ... ... ... : ... .. . ... ... ... : ... .. . ... : ... .. 6 ... : ... .. . ... ... : ... .. 3 ... ... : ... .. 3 ... ... : ... .. . ... ...
ROW 3F : ... .. . P82 ... ... : G-3 00 5 ... ... ... : ... .. . ... : ... .. 3 ... : ... .. . ... ... : ... .. 1 ... ... : ... .. 1 ... ... : ... .. . ... ...
ROW 40 : D#5 00 A P7E ... ... : ... .. 4 ... ... ... : ... .. . ... : ... .. 2 ... : ... .. . ... ... : ... .. 6 ... ... : ... .. 6 ... ... : ... .. . ... ...
ROW 41 : ... .. . ... ... ... : ... .. . ... ... ... : ... .. . ... : ... .. 0 ... : ... .. . ... ... : ... .. 4 ... ... : ... .. 4 ... ... : ... .. . ... ...
ROW 42 : D-5 00 A P81 ... ... : D-4 00 A ... ... ... : ... .. . ... : 7-# 00 F ... : ... .. . ... ... : ... .. 3 ... ... : ... .. 3 ... ... : ... .. . ... ...
ROW 43 : ... .. . P7F ... ... : ... .. 8 ... ... ... : ... .. . ... : ... .. C ... : ... .. . ... ... : ... .. 1 ... ... : ... .. 1 ... ... : ... .. . ... ...
ROW 44 : C#5 00 A P83 ... ... : ... .. . ... ... ... : ... .. . ... : ... .. 6 ... : ... .. . ... ... : ... .. 6 ... ... : ... .. 6 ... ... : ... .. . ... ...
ROW 45 : ... .. . ... ... ... : B-3 00 5 ... ... ... : ... .. . ... : ... .. 3 ... : ... .. . ... ... : ... .. 4 ... ... : ... .. 4 ... ... : ... .. . ... ...
ROW 46 : D-5 00 A P7E ... ... : ... .. 4 ... ... ... : ... .. . ... : ... .. 2 ... : ... .. . ... ... : ... .. 3 ... ... : ... .. 3 ... ... : ... .. . ... ...
ROW 47 : ... .. . P80 ... ... : ... .. . ... ... ... : ... .. . ... : ... .. 0 ... : ... .. . ... ... : ... .. 1 ... ... : ... .. 1 ... ... : ... .. . ... ...
ROW 48 : ... .. . P82 ... ... : D#4 00 A ... ... ... : A#4 00 . ... : 1-# 00 F ... : ... .. . ... ... : D#4 01 8 ... ... : G-4 01 8 ... ... : ... .. C ... ...
ROW 49 : D#5 00 A P7E ... ... : ... .. 8 ... ... ... : C-4 00 . ... : ... .. C ... : ... .. . ... ... : ... .. 7 ... ... : ... .. 7 ... ... : ... .. A ... ...
ROW 4A : ... .. . ... ... ... : ... .. . ... ... ... : F-3 00 . ... : ... .. 6 ... : ... .. . ... ... : ... .. 6 ... ... : ... .. 6 ... ... : ... .. 6 ... ...
ROW 4B : D-5 00 A P81 ... ... : D-4 00 5 ... ... ... : E-3 00 . ... : ... .. 3 ... : ... .. . ... ... : ... .. 5 ... ... : ... .. 5 ... ... : ... .. . ... ...
ROW 4C : ... .. . P80 ... ... : ... .. 4 ... ... ... : B-2 00 . ... : ... .. 2 ... : ... .. . ... ... : ... .. . ... ... : ... .. . ... ... : ... .. . ... ...
ROW 4D : C#5 00 A P83 ... ... : ... .. . ... ... ... : ... .. . ... : ... .. 0 ... : ... .. . ... ... : --- .. . ... ... : --- .. . ... ... : ... .. . ... ...
ROW 4E : D-5 00 A P80 ... ... : B-3 00 A ... ... ... : ... .. . ... : B-# 00 F ... : ... .. . ... ... : ... .. . ... ... : ... .. . ... ... : ... .. . ... ...
ROW 4F : ... .. . ... ... ... : ... .. 8 ... ... ... : ... .. . ... : ... .. C ... : ... .. . ... ... : ... .. . ... ... : ... .. . ... ... : ... .. . ... ...
ROW 50 : ... .. . ... ... ... : ... .. . ... ... ... : ... .. . ... : ... .. 6 ... : ... .. . ... ... : D#4 01 8 ... ... : G-4 01 8 ... ... : ... .. . ... ...
ROW 51 : ... .. 8 ... ... ... : D#4 00 5 ... ... ... : ... .. . ... : ... .. 3 ... : ... .. . ... ... : ... .. 7 ... ... : ... .. 7 ... ... : ... .. . ... ...
ROW 52 : ... .. 7 ... ... ... : ... .. 4 ... ... ... : ... .. . ... : ... .. 2 ... : ... .. . ... ... : ... .. 6 ... ... : ... .. 6 ... ... : ... .. . ... ...
ROW 53 : ... .. 6 ... ... ... : ... .. . ... ... ... : ... .. . ... : ... .. 0 ... : ... .. . ... ... : ... .. 5 ... ... : ... .. 5 ... ... : ... .. . ... ...
ROW 54 : ... .. B ... ... ... : ... .. A ... ... ... : ... .. . ... : 7-# 00 F ... : ... .. . ... ... : --- .. . ... ... : --- .. . ... ... : ... .. . ... ...
ROW 55 : ... .. 8 ... ... ... : ... .. 8 ... ... ... : ... .. . ... : ... .. C ... : ... .. . ... ... : ... .. . ... ... : ... .. . ... ... : ... .. . ... ...
ROW 56 : ... .. 0 ... ... ... : ... .. . ... ... ... : ... .. . ... : ... .. 6 ... : ... .. . ... ... : ... .. . ... ... : ... .. . ... ... : ... .. . ... ...
ROW 57 : D-5 00 B P80 ... ... : B-3 00 5 ... ... ... : ... .. . ... : ... .. 3 ... : ... .. . ... ... : ... .. . ... ... : ... .. . ... ... : ... .. . ... ...
ROW 58 : ... .. 8 ... ... ... : ... .. 4 ... ... ... : ... .. . ... : ... .. 2 ... : ... .. . ... ... : D#4 01 8 ... ... : G-4 01 8 ... ... : ... .. . ... ...
ROW 59 : ... .. 0 ... ... ... : ... .. . ... ... ... : ... .. . ... : ... .. 0 ... : ... .. . ... ... : ... .. 7 ... ... : ... .. 7 ... ... : ... .. . ... ...
ROW 5A : D-5 00 B P80 ... ... : G-4 00 A ... ... ... : ... .. . ... : 1-# 00 F ... : ... .. . ... ... : ... .. 6 ... ... : ... .. 6 ... ... : ... .. . ... ...
ROW 5B : ... .. 8 ... ... ... : ... .. 8 ... ... ... : ... .. . ... : ... .. C ... : ... .. . ... ... : ... .. 5 ... ... : ... .. 5 ... ... : ... .. . ... ...
ROW 5C : ... .. 0 ... ... ... : ... .. . ... ... ... : ... .. . ... : ... .. 6 ... : ... .. . ... ... : ... .. . ... ... : ... .. . ... ... : ... .. . ... ...
ROW 5D : ... .. . ... ... ... : D#4 00 5 ... ... ... : ... .. . ... : ... .. 3 ... : ... .. . ... ... : --- .. . ... ... : --- .. . ... ... : ... .. . ... ...
ROW 5E : ... .. . ... ... ... : ... .. 4 ... ... ... : ... .. . ... : ... .. 2 ... : ... .. . ... ... : ... .. . ... ... : ... .. . ... ... : ... .. . ... ...
ROW 5F : ... .. . ... ... ... : ... .. . ... ... ... : ... .. . ... : ... .. 0 ... : ... .. . ... ... : ... .. . ... ... : ... .. . ... ... : ... .. . ... ...
ROW 60 : D-5 00 F P80 ... ... : B-3 00 A ... ... ... : ... .. . ... : 9-# 00 F ... : ... .. . ... ... : B-3 01 8 ... ... : D#4 01 8 ... ... : ... .. . ... ...
ROW 61 : ... .. E ... ... ... : ... .. 8 ... ... ... : ... .. . ... : ... .. C ... : ... .. . ... ... : ... .. 7 ... ... : ... .. 7 ... ... : ... .. . ... ...
ROW 62 : ... .. D ... ... ... : ... .. . ... ... ... : ... .. . ... : ... .. 6 ... : ... .. . ... ... : ... .. 6 ... ... : ... .. 6 ... ... : ... .. . ... ...
ROW 63 : ... .. A ... ... ... : G-4 00 5 ... ... ... : ... .. . ... : ... .. 3 ... : ... .. . ... ... : ... .. 5 ... ... : ... .. 5 ... ... : ... .. . ... ...
ROW 64 : ... .. 2 ... ... ... : ... .. 4 ... ... ... : ... .. . ... : ... .. 2 ... : ... .. . ... ... : ... .. . ... ... : ... .. . ... ... : ... .. . ... ...
ROW 65 : ... .. . ... ... ... : ... .. . ... ... ... : ... .. . ... : ... .. 0 ... : ... .. . ... ... : --- .. . ... ... : --- .. . ... ... : ... .. . ... ...
ROW 66 : ... .. . ... ... ... : D#4 00 A ... ... ... : ... .. . ... : ... .. F ... : ... .. . ... ... : ... .. . ... ... : ... .. . ... ... : ... .. . ... ...
ROW 67 : ... .. 1 ... ... ... : ... .. 8 ... ... ... : ... .. . ... : ... .. C ... : ... .. . ... ... : ... .. . ... ... : ... .. . ... ... : ... .. . ... ...
ROW 68 : G-4 00 F ... ... ... : ... .. . ... ... ... : ... .. . ... : ... .. 6 ... : ... .. . ... ... : B-3 01 8 ... ... : D#4 01 8 ... ... : ... .. . ... ...
ROW 69 : ... .. E ... ... ... : B-3 00 5 ... ... ... : ... .. . ... : ... .. 3 ... : ... .. . ... ... : ... .. 7 ... ... : ... .. 7 ... ... : ... .. . ... ...
ROW 6A : ... .. D ... ... ... : ... .. 4 ... ... ... : ... .. . ... : ... .. 2 ... : ... .. . ... ... : ... .. 6 ... ... : ... .. 6 ... ... : ... .. . ... ...
ROW 6B : ... .. A ... ... ... : ... .. . ... ... ... : ... .. . ... : ... .. 0 ... : ... .. . ... ... : ... .. 5 ... ... : ... .. 5 ... ... : ... .. . ... ...
ROW 6C : ... .. . ... ... ... : G-4 00 A ... ... ... : ... .. . ... : 7-# 00 F ... : ... .. . ... ... : --- .. . ... ... : --- .. . ... ... : ... .. . ... ...
ROW 6D : ... .. 2 ... ... ... : ... .. 8 ... ... ... : ... .. . ... : ... .. C ... : ... .. . ... ... : ... .. . ... ... : ... .. . ... ... : ... .. . ... ...
ROW 6E : ... .. . ... ... ... : ... .. . ... ... ... : ... .. . ... : ... .. 6 ... : ... .. . ... ... : ... .. . ... ... : ... .. . ... ... : ... .. . ... ...
ROW 6F : ... .. . ... ... ... : D#4 00 5 ... ... ... : ... .. . ... : ... .. 3 ... : ... .. . ... ... : ... .. . ... ... : ... .. . ... ... : ... .. . ... ...
ROW 70 : ... .. F ... ... ... : ... .. 4 ... ... ... : ... .. . ... : ... .. 2 ... : ... .. . ... ... : B-3 01 8 ... ... : D#4 01 8 ... ... : ... .. . ... ...
ROW 71 : ... .. E ... ... ... : ... .. . ... ... ... : ... .. . ... : ... .. 0 ... : ... .. . ... ... : ... .. 7 ... ... : ... .. 7 ... ... : ... .. . ... ...
ROW 72 : ... .. D ... ... ... : B-4 00 A ... ... ... : ... .. . ... : ... .. F ... : ... .. . ... ... : ... .. 6 ... ... : ... .. 6 ... ... : ... .. . ... ...
ROW 73 : ... .. A ... ... ... : ... .. 8 ... ... ... : ... .. . ... : ... .. C ... : ... .. . ... ... : ... .. 5 ... ... : ... .. 5 ... ... : ... .. . ... ...
ROW 74 : ... .. . ... ... ... : ... .. . ... ... ... : ... .. . ... : ... .. 6 ... : ... .. . ... ... : ... .. . ... ... : ... .. . ... ... : ... .. . ... ...
ROW 75 : ... .. 0 ... ... ... : G-4 00 5 ... ... ... : ... .. . ... : ... .. 3 ... : ... .. . ... ... : --- .. . ... ... : --- .. . ... ... : ... .. . ... ...
ROW 76 : ... .. . ... ... ... : ... .. 4 ... ... ... : ... .. . ... : ... .. 2 ... : ... .. . ... ... : ... .. . ... ... : ... .. . ... ... : ... .. . ... ...
ROW 77 : ... .. . ... ... ... : ... .. . ... ... ... : ... .. . ... : ... .. 0 ... : ... .. . ... ... : ... .. . ... ... : ... .. . ... ... : ... .. . ... ...
ROW 78 : G#4 00 F P80 ... ... : C-5 00 A ... ... ... : B-4 00 . ... : 9-# 00 F ... : ... .. . ... ... : C-4 01 8 ... ... : F-4 01 8 ... ... : C-1 01 C ... ...
ROW 79 : ... .. E ... ... ... : ... .. 8 ... ... ... : C#4 00 . ... : ... .. C ... : ... .. . ... ... : ... .. 7 ... ... : ... .. 7 ... ... : ... .. A ... ...
ROW 7A : ... .. D ... ... ... : ... .. . ... ... ... : F#3 00 . ... : ... .. 6 ... : ... .. . ... ... : ... .. 6 ... ... : ... .. 6 ... ... : ... .. 6 ... ...
ROW 7B : ... .. A ... ... ... : B-4 00 5 ... ... ... : F-3 00 . ... : ... .. 3 ... : ... .. . ... ... : ... .. 5 ... ... : ... .. 5 ... ... : ... .. . ... ...
ROW 7C : ... .. 2 ... ... ... : ... .. 4 ... ... ... : C-3 00 . ... : ... .. 2 ... : ... .. . ... ... : ... .. . ... ... : ... .. . ... ... : ... .. . ... ...
ROW 7D : ... .. . ... ... ... : ... .. . ... ... ... : ... .. . ... : ... .. 0 ... : ... .. . ... ... : ... .. 4 ... ... : ... .. 4 ... ... : ... .. . ... ...
ROW 7E : ... .. . ... ... ... : G#4 00 A ... ... ... : ... .. . ... : 2-# 00 F ... : ... .. . ... ... : ... .. . ... ... : ... .. . ... ... : ... .. . ... ...
ROW 7F : ... .. 1 ... ... ... : ... .. 8 ... ... ... : ... .. . ... : ... .. C ... : ... .. . ... ... : ... .. . ... ... : ... .. . ... ... : ... .. . ... ...
ROW 80 : D-4 00 F ... ... ... : ... .. . ... ... ... : ... .. . ... : ... .. 6 ... : ... .. . ... ... : ... .. . ... ... : ... .. . ... ... : ... .. . ... ...
ROW 81 : ... .. E ... ... ... : C-5 00 5 ... ... ... : ... .. . ... : ... .. 3 ... : ... .. . ... ... : --- .. . ... ... : --- .. . ... ... : ... .. . ... ...
ROW 82 : ... .. D ... ... ... : ... .. 4 ... ... ... : ... .. . ... : ... .. 2 ... : ... .. . ... ... : ... .. . ... ... : ... .. . ... ... : ... .. . ... ...
ROW 83 : ... .. A ... ... ... : ... .. . ... ... ... : ... .. . ... : ... .. 0 ... : ... .. . ... ... : ... .. . ... ... : ... .. . ... ... : ... .. . ... ...
ROW 84 : ... .. . ... ... ... : F-4 00 A ... ... ... : ... .. . ... : 1-# 00 F ... : ... .. . ... ... : C-4 01 6 ... ... : F-4 01 6 ... ... : ... .. . ... ...
ROW 85 : ... .. 2 ... ... ... : ... .. 8 ... ... ... : ... .. . ... : ... .. C ... : ... .. . ... ... : ... .. 4 ... ... : ... .. 4 ... ... : ... .. . ... ...
ROW 86 : ... .. . ... ... ... : ... .. . ... ... ... : ... .. . ... : ... .. 6 ... : ... .. . ... ... : ... .. 3 ... ... : ... .. 3 ... ... : ... .. . ... ...
ROW 87 : ... .. . ... ... ... : G#4 00 5 ... ... ... : ... .. . ... : ... .. 3 ... : ... .. . ... ... : ... .. 1 ... ... : ... .. 1 ... ... : ... .. . ... ...
ROW 88 : ... .. F ... ... ... : ... .. 4 ... ... ... : ... .. . ... : ... .. 2 ... : ... .. . ... ... : ... .. 6 ... ... : ... .. 6 ... ... : ... .. . ... ...
ROW 89 : ... .. E ... ... ... : ... .. . ... ... ... : ... .. . ... : ... .. 0 ... : ... .. . ... ... : ... .. 4 ... ... : ... .. 4 ... ... : ... .. . ... ...
ROW 8A : ... .. D ... ... ... : C-4 00 A ... ... ... : ... .. . ... : C-# 00 F ... : ... .. . ... ... : ... .. 3 ... ... : ... .. 3 ... ... : ... .. . ... ...
ROW 8B : ... .. A ... ... ... : ... .. 8 ... ... ... : ... .. . ... : ... .. C ... : ... .. . ... ... : ... .. 1 ... ... : ... .. 1 ... ... : ... .. . ... ...
ROW 8C : ... .. . ... ... ... : ... .. . ... ... ... : ... .. . ... : ... .. 6 ... : ... .. . ... ... : ... .. 6 ... ... : ... .. 6 ... ... : ... .. . ... ...
ROW 8D : ... .. . ... ... ... : F-4 00 5 ... ... ... : ... .. . ... : ... .. 3 ... : ... .. . ... ... : ... .. 4 ... ... : ... .. 4 ... ... : ... .. . ... ...
ROW 8E : ... .. . ... ... ... : ... .. 4 ... ... ... : ... .. . ... : ... .. 2 ... : ... .. . ... ... : ... .. 3 ... ... : ... .. 3 ... ... : ... .. . ... ...
ROW 8F : ... .. . ... ... ... : ... .. . ... ... ... : ... .. . ... : ... .. 0 ... : ... .. . ... ... : ... .. 1 ... ... : ... .. 1 ... ... : ... .. . ... ...
ROW 90 : ... .. F ... ... ... : G#3 00 A ... ... ... : ... .. . ... : 7-# 00 F ... : ... .. . ... ... : G#3 01 8 ... ... : C-4 01 8 ... ... : ... .. . ... ...
ROW 91 : ... .. E ... ... ... : ... .. 8 ... ... ... : ... .. . ... : ... .. C ... : ... .. . ... ... : ... .. 7 ... ... : ... .. 7 ... ... : ... .. . ... ...
ROW 92 : ... .. D ... ... ... : ... .. . ... ... ... : ... .. . ... : ... .. 6 ... : ... .. . ... ... : ... .. 6 ... ... : ... .. 6 ... ... : ... .. . ... ...
ROW 93 : ... .. A ... ... ... : C-4 00 5 ... ... ... : ... .. . ... : ... .. 3 ... : ... .. . ... ... : ... .. 5 ... ... : ... .. 5 ... ... : ... .. . ... ...
ROW 94 : ... .. 2 ... ... ... : ... .. 4 ... ... ... : ... .. . ... : ... .. 2 ... : ... .. . ... ... : ... .. . ... ... : ... .. . ... ... : ... .. . ... ...
ROW 95 : ... .. . ... ... ... : ... .. . ... ... ... : ... .. . ... : ... .. 0 ... : ... .. . ... ... : ... .. 4 ... ... : ... .. 4 ... ... : ... .. . ... ...
ROW 96 : ... .. . ... ... ... : ... .. A ... ... ... : ... .. . ... : 1-# 00 F ... : ... .. . ... ... : ... .. . ... ... : ... .. . ... ... : ... .. . ... ...
ROW 97 : ... .. 1 ... ... ... : ... .. 8 ... ... ... : ... .. . ... : ... .. C ... : ... .. . ... ... : ... .. . ... ... : ... .. . ... ... : ... .. . ... ...
ROW 98 : G#3 00 F ... ... ... : ... .. . ... ... ... : ... .. . ... : ... .. 6 ... : ... .. . ... ... : ... .. . ... ... : ... .. . ... ... : ... .. . ... ...
ROW 99 : ... .. E ... ... ... : G#3 00 5 ... ... ... : ... .. . ... : ... .. 3 ... : ... .. . ... ... : --- .. . P82 ... : --- .. . ... ... : ... .. . ... ...
ROW 9A : ... .. D ... ... ... : ... .. 4 ... ... ... : ... .. . ... : ... .. 2 ... : ... .. . ... ... : ... .. . ... ... : ... .. . ... ... : ... .. . ... ...
ROW 9B : ... .. A ... ... ... : ... .. . ... ... ... : ... .. . ... : ... .. 0 ... : ... .. . ... ... : ... .. . ... ... : ... .. . ... ... : ... .. . ... ...
ROW 9C : ... .. . ... ... ... : F-4 00 A ... ... ... : G-5 00 . ... : C-# 00 F ... : ... .. . ... ... : G#3 01 6 P80 ... : C-4 01 6 ... ... : G#1 01 C ... ...
ROW 9D : ... .. 2 ... ... ... : ... .. 8 ... ... ... : A-4 00 . ... : ... .. C ... : ... .. . ... ... : ... .. 4 ... ... : ... .. 4 ... ... : ... .. A ... ...
ROW 9E : ... .. . ... ... ... : ... .. . ... ... ... : D-4 00 . ... : ... .. 6 ... : ... .. . ... ... : ... .. 3 ... ... : ... .. 3 ... ... : ... .. 6 ... ...
ROW 9F : ... .. . ... ... ... : C-4 00 5 ... ... ... : C#4 00 . ... : ... .. 3 ... : ... .. . ... ... : ... .. 1 ... ... : ... .. 1 ... ... : ... .. . ... ...
ROW A0 : ... .. F ... ... ... : ... .. 4 ... ... ... : G#3 00 . ... : ... .. 2 ... : ... .. . ... ... : ... .. 6 ... ... : ... .. 6 ... ... : ... .. . ... ...
ROW A1 : ... .. E ... ... ... : ... .. . ... ... ... : ... .. . ... : ... .. 0 ... : ... .. . ... ... : ... .. 4 ... ... : ... .. 4 ... ... : ... .. . ... ...
ROW A2 : ... .. D ... ... ... : G#4 00 A ... ... ... : ... .. . ... : 7-# 00 F ... : ... .. . ... ... : ... .. 3 ... ... : ... .. 3 ... ... : ... .. . ... ...
ROW A3 : ... .. A ... ... ... : ... .. 8 ... ... ... : ... .. . ... : ... .. C ... : ... .. . ... ... : ... .. 1 ... ... : ... .. 1 ... ... : ... .. . ... ...
ROW A4 : ... .. . ... ... ... : ... .. . ... ... ... : ... .. . ... : ... .. 6 ... : ... .. . ... ... : ... .. 6 ... ... : ... .. 6 ... ... : ... .. . ... ...
ROW A5 : ... .. . ... ... ... : F-4 00 5 ... ... ... : ... .. . ... : ... .. 3 ... : ... .. . ... ... : ... .. 4 ... ... : ... .. 4 ... ... : ... .. . ... ...
ROW A6 : ... .. 2 ... ... ... : ... .. 4 ... ... ... : ... .. . ... : ... .. 2 ... : ... .. . ... ... : ... .. 3 ... ... : ... .. 3 ... ... : ... .. . ... ...
ROW A7 : ... .. . ... ... ... : ... .. . ... ... ... : ... .. . ... : ... .. 0 ... : ... .. . ... ... : ... .. 1 ... ... : ... .. 1 ... ... : ... .. . ... ...
ROW A8 : ... .. F ... ... ... : A#4 00 A ... ... ... : C#6 00 . ... : 1-# 00 F ... : ... .. . ... ... : A#3 01 8 ... ... : D-4 01 8 ... ... : D-2 01 C ... ...
ROW A9 : ... .. E ... ... ... : ... .. 8 ... ... ... : D#5 00 . ... : ... .. C ... : ... .. . ... ... : ... .. 7 ... ... : ... .. 7 ... ... : ... .. A ... ...
ROW AA : ... .. D ... ... ... : ... .. . ... ... ... : G#4 00 . ... : ... .. 6 ... : ... .. . ... ... : ... .. 6 ... ... : ... .. 6 ... ... : ... .. 6 ... ...
ROW AB : ... .. A ... ... ... : G#4 00 5 ... ... ... : G-4 00 . ... : ... .. 3 ... : ... .. . ... ... : ... .. 5 ... ... : ... .. 5 ... ... : ... .. . ... ...
ROW AC : ... .. 2 ... ... ... : ... .. 4 ... ... ... : D-4 00 . ... : ... .. 2 ... : ... .. . ... ... : ... .. . ... ... : ... .. . ... ... : ... .. . ... ...
ROW AD : ... .. . ... ... ... : ... .. . ... ... ... : ... .. . ... : ... .. 0 ... : ... .. . ... ... : --- .. . ... ... : --- .. . ... ... : ... .. . ... ...
ROW AE : ... .. . ... ... ... : F#4 00 A ... ... ... : ... .. . ... : B-# 00 F ... : ... .. . ... ... : ... .. . ... ... : ... .. . ... ... : ... .. . ... ...
ROW AF : ... .. 1 ... ... ... : ... .. 8 ... ... ... : ... .. . ... : ... .. C ... : ... .. . ... ... : ... .. . ... ... : ... .. . ... ... : ... .. . ... ...
ROW B0 : D-3 00 F ... ... ... : ... .. . ... ... ... : ... .. . ... : ... .. 6 ... : ... .. . ... ... : A#3 01 8 ... ... : D-4 01 8 ... ... : ... .. . ... ...
ROW B1 : ... .. E ... ... ... : A#4 00 5 ... ... ... : ... .. . ... : ... .. 3 ... : ... .. . ... ... : ... .. 7 ... ... : ... .. 7 ... ... : ... .. . ... ...
ROW B2 : ... .. D ... ... ... : ... .. 4 ... ... ... : ... .. . ... : ... .. 2 ... : ... .. . ... ... : ... .. 6 ... ... : ... .. 6 ... ... : ... .. . ... ...
ROW B3 : ... .. A ... ... ... : ... .. . ... ... ... : ... .. . ... : ... .. 0 ... : ... .. . ... ... : ... .. 5 ... ... : ... .. 5 ... ... : ... .. . ... ...
ROW B4 : ... .. . ... ... ... : D-4 00 A ... ... ... : ... .. . ... : 7-# 00 F ... : ... .. . ... ... : --- .. . ... ... : --- .. . ... ... : ... .. . ... ...
ROW B5 : ... .. 2 ... ... ... : ... .. 8 ... ... ... : ... .. . ... : ... .. C ... : ... .. . ... ... : ... .. . ... ... : ... .. . ... ... : ... .. . ... ...
ROW B6 : ... .. . ... ... ... : ... .. . ... ... ... : ... .. . ... : ... .. 6 ... : ... .. . ... ... : ... .. . ... ... : ... .. . ... ... : ... .. . ... ...
ROW B7 : ... .. . ... ... ... : F#4 00 5 ... ... ... : ... .. . ... : ... .. 3 ... : ... .. . ... ... : ... .. . ... ... : ... .. . ... ... : ... .. . ... ...
ROW B8 : ... .. F ... ... ... : ... .. 4 ... ... ... : ... .. . ... : ... .. 2 ... : ... .. . ... ... : A#3 01 8 ... ... : D-4 01 8 ... ... : ... .. . ... ...
ROW B9 : ... .. E ... ... ... : ... .. . ... ... ... : ... .. . ... : ... .. 0 ... : ... .. . ... ... : ... .. 7 ... ... : ... .. 7 ... ... : ... .. . ... ...
ROW BA : ... .. B ... ... ... : A#3 00 A ... ... ... : ... .. . ... : 1-# 00 F ... : ... .. . ... ... : ... .. 6 ... ... : ... .. 6 ... ... : ... .. . ... ...
ROW BB : ... .. 8 ... ... ... : ... .. 8 ... ... ... : ... .. . ... : ... .. C ... : ... .. . ... ... : ... .. 5 ... ... : ... .. 5 ... ... : ... .. . ... ...
ROW BC : ... .. . ... ... ... : ... .. . ... ... ... : ... .. . ... : ... .. 6 ... : ... .. . ... ... : ... .. . ... ... : ... .. . ... ... : ... .. . ... ...
ROW BD : ... .. . ... ... ... : D-4 00 5 ... ... ... : ... .. . ... : ... .. 3 ... : ... .. . ... ... : --- .. . ... ... : --- .. . ... ... : ... .. . ... ...
ROW BE : ... .. . ... ... ... : ... .. 4 ... ... ... : ... .. . ... : ... .. 2 ... : ... .. . ... ... : ... .. . ... ... : ... .. . ... ... : ... .. . ... ...
ROW BF : ... .. . ... ... ... : ... .. . ... ... ... : ... .. . ... : ... .. 0 ... : ... .. . ... ... : ... .. . ... ... : ... .. . ... ... : ... .. . ... ...
ROW C0 : ... .. 2 ... ... ... : F#3 00 A ... ... ... : ... .. . ... : 9-# 00 F ... : ... .. . ... ... : F#3 01 8 ... ... : A#3 01 8 ... ... : ... .. . ... ...
ROW C1 : ... .. . ... ... ... : ... .. 8 ... ... ... : ... .. . ... : ... .. C ... : ... .. . ... ... : ... .. 7 ... ... : ... .. 7 ... ... : ... .. . ... ...
ROW C2 : ... .. . ... ... ... : ... .. . ... ... ... : ... .. . ... : ... .. 6 ... : ... .. . ... ... : ... .. 6 ... ... : ... .. 6 ... ... : ... .. . ... ...
ROW C3 : ... .. 3 ... ... ... : A#3 00 5 ... ... ... : ... .. . ... : ... .. 3 ... : ... .. . ... ... : ... .. 5 ... ... : ... .. 5 ... ... : ... .. . ... ...
ROW C4 : ... .. . ... ... ... : ... .. 4 ... ... ... : ... .. . ... : ... .. 2 ... : ... .. . ... ... : ... .. . ... ... : ... .. . ... ... : ... .. . ... ...
ROW C5 : ... .. . ... ... ... : ... .. . ... ... ... : ... .. . ... : ... .. 0 ... : ... .. . ... ... : --- .. . P7F ... : --- .. . ... ... : ... .. . ... ...
ROW C6 : ... .. 4 ... ... ... : ... .. A ... ... ... : ... .. . ... : ... .. F ... : ... .. . ... ... : ... .. . ... ... : ... .. . ... ... : ... .. . ... ...
ROW C7 : ... .. . ... ... ... : ... .. 8 ... ... ... : ... .. . ... : ... .. C ... : ... .. . ... ... : ... .. . ... ... : ... .. . ... ... : ... .. . ... ...
ROW C8 : ... .. . ... ... ... : ... .. . ... ... ... : ... .. . ... : ... .. 6 ... : ... .. . ... ... : F#3 01 8 P80 ... : A#3 01 8 ... ... : ... .. . ... ...
ROW C9 : ... .. 6 ... ... ... : F#3 00 5 ... ... ... : ... .. . ... : ... .. 3 ... : ... .. . ... ... : ... .. 7 ... ... : ... .. 7 ... ... : ... .. . ... ...
ROW CA : ... .. . ... ... ... : ... .. 4 ... ... ... : ... .. . ... : ... .. 2 ... : ... .. . ... ... : ... .. 6 ... ... : ... .. 6 ... ... : ... .. . ... ...
ROW CB : ... .. . ... ... ... : ... .. . ... ... ... : ... .. . ... : ... .. 0 ... : ... .. . ... ... : ... .. 5 ... ... : ... .. 5 ... ... : ... .. . ... ...
ROW CC : ... .. 7 ... ... ... : D-4 00 A ... ... ... : ... .. . ... : 7-# 00 F ... : ... .. . ... ... : --- .. . P7F ... : --- .. . ... ... : ... .. . ... ...
ROW CD : ... .. . ... ... ... : ... .. 8 ... ... ... : ... .. . ... : ... .. C ... : ... .. . ... ... : ... .. . ... ... : ... .. . ... ... : ... .. . ... ...
ROW CE : ... .. . ... ... ... : ... .. . ... ... ... : ... .. . ... : ... .. 6 ... : ... .. . ... ... : ... .. . ... ... : ... .. . ... ... : ... .. . ... ...
ROW CF : ... .. 8 ... ... ... : A#3 00 5 ... ... ... : ... .. . ... : ... .. 3 ... : ... .. . ... ... : ... .. . ... ... : ... .. . ... ... : ... .. . ... ...
ROW D0 : ... .. . ... ... ... : ... .. 4 ... ... ... : ... .. . ... : ... .. 2 ... : ... .. . ... ... : F#3 01 8 P80 ... : A#3 01 8 ... ... : ... .. . ... ...
ROW D1 : ... .. . ... ... ... : ... .. . ... ... ... : ... .. . ... : ... .. 0 ... : ... .. . ... ... : ... .. 7 ... ... : ... .. 7 ... ... : ... .. . ... ...
ROW D2 : ... .. A P84 ... ... : F#4 00 A ... ... ... : ... .. . ... : ... .. F ... : ... .. . ... ... : ... .. 6 ... ... : ... .. 6 ... ... : ... .. . ... ...
ROW D3 : ... .. . P86 ... ... : ... .. 8 ... ... ... : ... .. . ... : ... .. C ... : ... .. . ... ... : ... .. 5 ... ... : ... .. 5 ... ... : ... .. . ... ...
ROW D4 : ... .. . P85 ... ... : ... .. . ... ... ... : ... .. . ... : ... .. 6 ... : ... .. . ... ... : ... .. . ... ... : ... .. . ... ... : ... .. . ... ...
ROW D5 : ... .. . P82 ... ... : D-4 00 5 ... ... ... : ... .. . ... : ... .. 3 ... : ... .. . ... ... : --- .. . P7F ... : --- .. . ... ... : ... .. . ... ...
ROW D6 : ... .. . P7E ... ... : ... .. 4 ... ... ... : ... .. . ... : ... .. 2 ... : ... .. . ... ... : ... .. . ... ... : ... .. . ... ... : ... .. . ... ...
ROW D7 : ... .. . P7B ... ... : ... .. . ... ... ... : ... .. . ... : ... .. 0 ... : ... .. . ... ... : ... .. . ... ... : ... .. . ... ... : ... .. . ... ...
ROW D8 : ... .. . P7A ... ... : G#4 00 A ... ... ... : ... .. . ... : 9-# 00 F ... : ... .. . ... ... : D-3 01 8 P80 ... : F#3 01 8 ... ... : ... .. . ... ...
ROW D9 : ... .. . P7C ... ... : ... .. 8 ... ... ... : ... .. . ... : ... .. C ... : ... .. . ... ... : ... .. 7 ... ... : ... .. 7 ... ... : ... .. . ... ...
ROW DA : ... .. . P80 ... ... : ... .. . ... ... ... : ... .. . ... : ... .. 6 ... : ... .. . ... ... : ... .. 6 ... ... : ... .. 6 ... ... : ... .. . ... ...
ROW DB : ... .. . P83 ... ... : F#4 00 5 ... ... ... : ... .. . ... : ... .. 3 ... : ... .. . ... ... : ... .. 5 ... ... : ... .. 5 ... ... : ... .. . ... ...
ROW DC : ... .. . P86 ... ... : ... .. 4 ... ... ... : ... .. . ... : ... .. 2 ... : ... .. . ... ... : ... .. . ... ... : ... .. . ... ... : ... .. . ... ...
ROW DD : ... .. . ... ... ... : ... .. . ... ... ... : ... .. . ... : ... .. 0 ... : ... .. . ... ... : ... .. 4 ... ... : ... .. 4 ... ... : ... .. . ... ...
ROW DE : ... .. . P82 ... ... : E-4 00 A ... ... ... : ... .. . ... : 2-# 00 F ... : ... .. . ... ... : ... .. . ... ... : ... .. . ... ... : ... .. . ... ...
ROW DF : ... .. . P7F ... ... : ... .. 8 ... ... ... : ... .. . ... : ... .. C ... : ... .. . ... ... : ... .. . ... ... : ... .. . ... ... : ... .. . ... ...
ROW E0 : ... .. . P7B ... ... : ... .. . ... ... ... : ... .. . ... : ... .. 6 ... : ... .. . ... ... : ... .. . ... ... : ... .. . ... ... : ... .. . ... ...
ROW E1 : ... .. . P7A ... ... : G#4 00 5 ... ... ... : ... .. . ... : ... .. 3 ... : ... .. . ... ... : --- .. . P82 ... : --- .. . P7F ... : ... .. . ... ...
ROW E2 : ... .. . P7C ... ... : ... .. 4 ... ... ... : ... .. . ... : ... .. 2 ... : ... .. . ... ... : ... .. . ... ... : ... .. . ... ... : ... .. . ... ...
ROW E3 : ... .. . P80 ... ... : ... .. . ... ... ... : ... .. . ... : ... .. 0 ... : ... .. . ... ... : ... .. . ... ... : ... .. . ... ... : ... .. . ... ...
ROW E4 : ... .. . P83 ... ... : D-4 00 A ... ... ... : ... .. . ... : 1-# 00 F ... : ... .. . ... ... : D-3 01 6 P80 ... : F#3 01 6 P80 ... : ... .. . ... ...
ROW E5 : ... .. . P86 ... ... : ... .. 8 ... ... ... : ... .. . ... : ... .. C ... : ... .. . ... ... : ... .. 4 ... ... : ... .. 4 ... ... : ... .. . ... ...
ROW E6 : ... .. . ... ... ... : ... .. . ... ... ... : ... .. . ... : ... .. 6 ... : ... .. . ... ... : ... .. 3 ... ... : ... .. 3 ... ... : ... .. . ... ...
ROW E7 : ... .. . P83 ... ... : E-4 00 5 ... ... ... : ... .. . ... : ... .. 3 ... : ... .. . ... ... : ... .. 1 ... ... : ... .. 1 ... ... : ... .. . ... ...
ROW E8 : ... .. . P80 ... ... : ... .. 4 ... ... ... : ... .. . ... : ... .. 2 ... : ... .. . ... ... : ... .. 6 ... ... : ... .. 6 ... ... : ... .. . ... ...
ROW E9 : ... .. . P7C ... ... : ... .. . ... ... ... : ... .. . ... : ... .. 0 ... : ... .. . ... ... : ... .. 4 ... ... : ... .. 4 ... ... : ... .. . ... ...
ROW EA : ... .. . P7A ... ... : ... .. A ... ... ... : ... .. . ... : C-# 00 F ... : ... .. . ... ... : ... .. 3 ... ... : ... .. 3 ... ... : ... .. . ... ...
ROW EB : ... .. . P7B ... ... : ... .. 8 ... ... ... : ... .. . ... : ... .. C ... : ... .. . ... ... : ... .. 1 ... ... : ... .. 1 ... ... : ... .. . ... ...
ROW EC : ... .. . P7F ... ... : ... .. . ... ... ... : ... .. . ... : ... .. 6 ... : ... .. . ... ... : ... .. 6 ... ... : ... .. 6 ... ... : ... .. . ... ...
ROW ED : ... .. . P82 ... ... : D-4 00 5 ... ... ... : ... .. . ... : ... .. 3 ... : ... .. . ... ... : ... .. 4 ... ... : ... .. 4 ... ... : ... .. . ... ...
ROW EE : ... .. . P86 ... ... : ... .. 4 ... ... ... : ... .. . ... : ... .. 2 ... : ... .. . ... ... : ... .. 3 ... ... : ... .. 3 ... ... : ... .. . ... ...
ROW EF : ... .. . ... ... ... : ... .. . ... ... ... : ... .. . ... : ... .. 0 ... : ... .. . ... ... : ... .. 1 ... ... : ... .. 1 ... ... : ... .. . ... ...
ROW F0 : ... .. . P83 ... ... : A#4 00 A ... ... ... : C#4 00 . ... : 7-# 00 F ... : ... .. . ... ... : ... .. 8 ... ... : ... .. 8 ... ... : D-0 01 C ... ...
ROW F1 : ... .. . P80 ... ... : ... .. 8 ... ... ... : D#3 00 . ... : ... .. C ... : ... .. . ... ... : ... .. 7 ... ... : ... .. 7 ... ... : ... .. A ... ...
ROW F2 : ... .. . P7C ... ... : ... .. . ... ... ... : G#2 00 . ... : ... .. 6 ... : ... .. . ... ... : ... .. 6 ... ... : ... .. 6 ... ... : ... .. 6 ... ...
ROW F3 : ... .. . P7A ... ... : E-4 00 5 ... ... ... : G-2 00 . ... : ... .. 3 ... : ... .. . ... ... : ... .. 5 ... ... : ... .. 5 ... ... : ... .. . ... ...
ROW F4 : ... .. . P7B ... ... : ... .. 4 ... ... ... : D-2 00 . ... : ... .. 2 ... : ... .. . ... ... : ... .. . ... ... : ... .. . ... ... : ... .. . ... ...
ROW F5 : ... .. . P7E ... ... : ... .. . ... ... ... : ... .. . ... : ... .. 0 ... : ... .. . ... ... : ... .. 4 ... ... : ... .. 4 ... ... : ... .. . ... ...
ROW F6 : ... .. . P82 ... ... : F#4 00 A ... ... ... : ... .. . ... : 1-# 00 F ... : ... .. . ... ... : ... .. . ... ... : ... .. . ... ... : ... .. . ... ...
ROW F7 : ... .. 2 P85 ... ... : ... .. 8 ... ... ... : ... .. . ... : ... .. C ... : ... .. . ... ... : ... .. . ... ... : ... .. . ... ... : ... .. . ... ...
ROW F8 : ... .. . P86 ... ... : ... .. . ... ... ... : ... .. . ... : ... .. 6 ... : ... .. . ... ... : ... .. . ... ... : ... .. . ... ... : ... .. . ... ...
ROW F9 : ... .. . P84 ... ... : A#4 00 5 ... ... ... : ... .. . ... : ... .. 3 ... : ... .. . ... ... : --- .. . P82 ... : --- .. . P7F ... : ... .. . ... ...
ROW FA : ... .. 1 P80 ... ... : ... .. 4 ... ... ... : ... .. . ... : ... .. 2 ... : ... .. . ... ... : ... .. . ... ... : ... .. . ... ... : ... .. . ... ...
ROW FB : ... .. . P7D ... ... : ... .. . ... ... ... : ... .. . ... : ... .. 0 ... : ... .. . ... ... : ... .. . ... ... : ... .. . ... ... : ... .. . ... ...
ROW FC : ... .. . P7A ... ... : E-4 00 A ... ... ... : C#2 00 . P8D : C-# 00 F ... : ... .. . ... ... : D-3 01 6 P80 ... : F#3 01 6 P80 ... : ... .. . P60 ...
ROW FD : ... .. 0 ... ... ... : ... .. 8 ... ... ... : ... .. . P6D : ... .. C ... : ... .. . ... ... : ... .. 4 ... ... : ... .. 4 ... ... : ... .. . P40 ...
ROW FE : ... .. . ... ... ... : ... .. . ... ... ... : C-2 00 . P7D : ... .. 6 ... : ... .. . ... ... : ... .. 3 ... ... : ... .. 3 ... ... : ... .. . P20 ...
ROW FF : ... .. . ... ... ... : F#4 00 5 ... ... ... : B-1 00 . P90 : ... .. 3 ... : ... .. . ... ... : ... .. 1 ... ... : ... .. 1 ... ... : C#0 01 6 PCF ...

PATTERN 16
ROW 00 : ... .. . ... ... ... : ... .. 4 ... ... ... : ... .. . P70 : ... .. 2 ... : ... .. . ... ... : ... .. 6 ... ... : ... .. 6 ... ... : ... .. . PAF ...
ROW 01 : ... .. . ... ... ... : ... .. . ... ... ... : A#1 00 . P86 : ... .. 0 ... : ... .. . ... ... : ... .. 4 ... ... : ... .. 4 ... ... : ... .. . P8F ...
ROW 02 : ... .. . ... ... ... : ... .. A ... ... ... : ... .. . P66 : 7-# 00 F ... : ... .. . ... ... : ... .. 3 ... ... : ... .. 3 ... ... : ... .. . P6F ...
ROW 03 : ... .. . ... ... ... : ... .. 8 ... ... ... : A-1 00 . P7F : ... .. C ... : ... .. . ... ... : ... .. 1 ... ... : ... .. 1 ... ... : ... .. . P4F ...
ROW 04 : ... .. . ... ... ... : ... .. . ... ... ... : G#1 00 . P9B : ... .. 6 ... : ... .. . ... ... : ... .. 6 ... ... : ... .. 6 ... ... : ... .. . P2F ...
ROW 05 : ... .. . ... ... ... : E-4 00 5 ... ... ... : ... .. . P7B : ... .. 3 ... : ... .. . ... ... : ... .. 4 ... ... : ... .. 4 ... ... : ... .. . P0F ...
ROW 06 : ... .. . ... ... ... : ... .. 4 ... ... ... : G-1 00 . P9B : ... .. 2 ... : ... .. . ... ... : ... .. 3 ... ... : ... .. 3 ... ... : ... .. . PEF ...
ROW 07 : ... .. . ... ... ... : ... .. . ... ... ... : ... .. . P7B : ... .. 0 ... : ... .. . ... ... : ... .. 1 ... ... : ... .. 1 ... ... : ... .. . PCF ...
ROW 08 : ... .. . ... ... ... : C-5 00 A ... ... ... : C#4 00 . P80 : 1-# 00 F ... : ... .. . ... ... : E-3 01 8 ... ... : G#3 01 8 ... ... : D-0 01 C P80 ...
ROW 09 : ... .. . ... ... ... : ... .. 8 ... ... ... : D#3 00 . ... : ... .. C ... : ... .. . ... ... : ... .. 7 ... ... : ... .. 7 ... ... : ... .. A ... ...
ROW 0A : ... .. . ... ... ... : ... .. . ... ... ... : G#2 00 . ... : ... .. 6 ... : ... .. . ... ... : ... .. 6 ... ... : ... .. 6 ... ... : ... .. 6 ... ...
ROW 0B : ... .. . ... ... ... : F#4 00 5 ... ... ... : G-2 00 . ... : ... .. 3 ... : ... .. . ... ... : ... .. 5 ... ... : ... .. 5 ... ... : ... .. . ... ...
ROW 0C : ... .. . ... ... ... : ... .. 4 ... ... ... : D-2 00 . ... : ... .. 2 ... : ... .. . ... ... : ... .. . ... ... : ... .. . ... ... : ... .. . ... ...
ROW 0D : ... .. . ... ... ... : ... .. . ... ... ... : ... .. . ... : ... .. 0 ... : ... .. . ... ... : --- .. . P82 ... : --- .. . P82 ... : ... .. . ... ...
ROW 0E : ... .. . ... ... ... : G#4 00 A ... ... ... : ... .. . ... : B-# 00 F ... : ... .. . ... ... : ... .. . ... ... : ... .. . ... ... : ... .. . ... ...
ROW 0F : ... .. . ... ... ... : ... .. 8 ... ... ... : ... .. . ... : ... .. C ... : ... .. . ... ... : ... .. . ... ... : ... .. . ... ... : ... .. . ... ...
ROW 10 : ... .. . ... ... ... : ... .. . ... ... ... : C#4 00 . ... : ... .. 6 ... : ... .. . ... ... : E-3 01 8 P80 ... : G#3 01 8 P80 ... : ... .. C ... ...
ROW 11 : ... .. . ... ... ... : C-5 00 5 ... ... ... : D#3 00 . ... : ... .. 3 ... : ... .. . ... ... : ... .. 7 ... ... : ... .. 7 ... ... : ... .. A ... ...
ROW 12 : ... .. . ... ... ... : ... .. 4 ... ... ... : G#2 00 . ... : ... .. 2 ... : ... .. . ... ... : ... .. 6 ... ... : ... .. 6 ... ... : ... .. 6 ... ...
ROW 13 : ... .. . ... ... ... : ... .. . ... ... ... : G-2 00 . ... : ... .. 0 ... : ... .. . ... ... : ... .. 5 ... ... : ... .. 5 ... ... : ... .. . ... ...
ROW 14 : ... .. . ... ... ... : F#4 00 A ... ... ... : D-2 00 . ... : 7-# 00 F ... : ... .. . ... ... : --- .. . P82 ... : --- .. . P82 ... : ... .. . ... ...
ROW 15 : ... .. . ... ... ... : ... .. 8 ... ... ... : ... .. . ... : ... .. C ... : ... .. . ... ... : ... .. . ... ... : ... .. . ... ... : ... .. . ... ...
ROW 16 : ... .. . ... ... ... : ... .. . ... ... ... : ... .. . ... : ... .. 6 ... : ... .. . ... ... : ... .. . ... ... : ... .. . ... ... : ... .. . ... ...
ROW 17 : ... .. . ... ... ... : G#4 00 5 ... ... ... : ... .. . ... : ... .. 3 ... : ... .. . ... ... : ... .. . ... ... : ... .. . ... ... : ... .. . ... ...
ROW 18 : ... .. . ... ... ... : ... .. 4 ... ... ... : C#4 00 . ... : ... .. 2 ... : ... .. . ... ... : E-3 01 8 P80 ... : G#3 01 8 P80 ... : ... .. C ... ...
ROW 19 : ... .. . ... ... ... : ... .. . ... ... ... : D#3 00 . ... : ... .. 0 ... : ... .. . ... ... : ... .. 7 ... ... : ... .. 7 ... ... : ... .. A ... ...
ROW 1A : ... .. . ... ... ... : ... .. A ... ... ... : G#2 00 . ... : 1-# 00 F ... : ... .. . ... ... : ... .. 6 ... ... : ... .. 6 ... ... : ... .. 6 ... ...
ROW 1B : ... .. . ... ... ... : ... .. 8 ... ... ... : G-2 00 . ... : ... .. C ... : ... .. . ... ... : ... .. 5 ... ... : ... .. 5 ... ... : ... .. . ... ...
ROW 1C : ... .. . ... ... ... : ... .. . ... ... ... : D-2 00 . ... : ... .. 6 ... : ... .. . ... ... : ... .. . ... ... : ... .. . ... ... : ... .. . ... ...
ROW 1D : ... .. . ... ... ... : F#4 00 5 ... ... ... : ... .. . ... : ... .. 3 ... : ... .. . ... ... : --- .. . P82 ... : --- .. . P82 ... : ... .. . ... ...
ROW 1E : ... .. . ... ... ... : ... .. 4 ... ... ... : ... .. . ... : ... .. 2 ... : ... .. . ... ... : ... .. . ... ... : ... .. . ... ... : ... .. . ... ...
ROW 1F : ... .. . ... ... ... : ... .. . ... ... ... : ... .. . ... : ... .. 0 ... : ... .. . ... ... : ... .. . ... ... : ... .. . ... ... : ... .. . ... ...
ROW 20 : C-4 00 F P80 ... ... : D-5 00 A ... ... ... : C#3 00 . ... : 9-# 00 F ... : ... .. . ... ... : C-3 01 8 P80 ... : E-3 01 8 P80 ... : ... .. C ... ...
ROW 21 : ... .. E ... ... ... : ... .. 8 ... ... ... : D#2 00 . ... : ... .. C ... : ... .. . ... ... : ... .. 7 ... ... : ... .. 7 ... ... : ... .. A ... ...
ROW 22 : ... .. D ... ... ... : ... .. . ... ... ... : G#1 00 . ... : ... .. 6 ... : ... .. . ... ... : ... .. 6 ... ... : ... .. 6 ... ... : ... .. 6 ... ...
ROW 23 : ... .. A ... ... ... : G#4 00 5 ... ... ... : G-1 00 . ... : ... .. 3 ... : ... .. . ... ... : ... .. 5 ... ... : ... .. 5 ... ... : ... .. . ... ...
ROW 24 : ... .. . ... ... ... : ... .. 4 ... ... ... : D-1 00 . ... : ... .. 2 ... : ... .. . ... ... : ... .. . ... ... : ... .. . ... ... : ... .. . ... ...
ROW 25 : ... .. . ... ... ... : ... .. . ... ... ... : ... .. . ... : ... .. 0 ... : ... .. . ... ... : --- .. . P7E ... : --- .. . P82 ... : ... .. . ... ...
ROW 26 : ... .. . ... ... ... : A#4 00 A ... ... ... : ... .. . ... : ... .. F ... : ... .. . ... ... : ... .. . ... ... : ... .. . ... ... : ... .. . ... ...
ROW 27 : ... .. . ... ... ... : ... .. 8 ... ... ... : ... .. . ... : ... .. C ... : ... .. . ... ... : ... .. . ... ... : ... .. . ... ... : ... .. . ... ...
ROW 28 : ... .. . ... ... ... : ... .. . ... ... ... : C#3 00 . ... : ... .. 6 ... : ... .. . ... ... : C-3 01 8 P80 ... : E-3 01 8 P80 ... : ... .. C ... ...
ROW 29 : ... .. . ... ... ... : D-5 00 5 ... ... ... : D#2 00 . ... : ... .. 3 ... : ... .. . ... ... : ... .. 7 ... ... : ... .. 7 ... ... : ... .. A ... ...
ROW 2A : ... .. . ... ... ... : ... .. 4 ... ... ... : G#1 00 . ... : ... .. 2 ... : ... .. . ... ... : ... .. 6 ... ... : ... .. 6 ... ... : ... .. 6 ... ...
ROW 2B : ... .. . ... ... ... : ... .. . ... ... ... : G-1 00 . ... : ... .. 0 ... : ... .. . ... ... : ... .. 5 ... ... : ... .. 5 ... ... : ... .. . ... ...
ROW 2C : ... .. . ... ... ... : G#4 00 A ... ... ... : D-1 00 . ... : 7-# 00 F ... : ... .. . ... ... : --- .. . P7E ... : --- .. . P82 ... : ... .. . ... ...
ROW 2D : ... .. 2 ... ... ... : ... .. 8 ... ... ... : ... .. . ... : ... .. C ... : ... .. . ... ... : ... .. . ... ... : ... .. . ... ... : ... .. . ... ...
ROW 2E : ... .. . ... ... ... : ... .. . ... ... ... : ... .. . ... : ... .. 6 ... : ... .. . ... ... : ... .. . ... ... : ... .. . ... ... : ... .. . ... ...
ROW 2F : ... .. . ... ... ... : A#4 00 5 ... ... ... : ... .. . ... : ... .. 3 ... : ... .. . ... ... : ... .. . ... ... : ... .. . ... ... : ... .. . ... ...
ROW 30 : ... .. 1 ... ... ... : ... .. 4 ... ... ... : C#3 00 . ... : ... .. 2 ... : ... .. . ... ... : C-3 01 8 P80 ... : E-3 01 8 P80 ... : ... .. C ... ...
ROW 31 : ... .. . ... ... ... : ... .. . ... ... ... : D#2 00 . ... : ... .. 0 ... : ... .. . ... ... : ... .. 7 ... ... : ... .. 7 ... ... : ... .. A ... ...
ROW 32 : ... .. F ... ... ... : ... .. A ... ... ... : G#1 00 . ... : ... .. F ... : ... .. . ... ... : ... .. 6 ... ... : ... .. 6 ... ... : ... .. 6 ... ...
ROW 33 : ... .. E ... ... ... : ... .. 8 ... ... ... : G-1 00 . ... : ... .. C ... : ... .. . ... ... : ... .. 5 ... ... : ... .. 5 ... ... : ... .. . ... ...
ROW 34 : ... .. D ... ... ... : ... .. . ... ... ... : D-1 00 . ... : ... .. 6 ... : ... .. . ... ... : ... .. . ... ... : ... .. . ... ... : ... .. . ... ...
ROW 35 : ... .. 0 ... ... ... : G#4 00 5 ... ... ... : ... .. . ... : ... .. 3 ... : ... .. . ... ... : --- .. . P7E ... : --- .. . P82 ... : ... .. . ... ...
ROW 36 : ... .. . ... ... ... : ... .. 4 ... ... ... : ... .. . ... : ... .. 2 ... : ... .. . ... ... : ... .. . ... ... : ... .. . ... ... : ... .. . ... ...
ROW 37 : ... .. . ... ... ... : ... .. . ... ... ... : ... .. . ... : ... .. 0 ... : ... .. . ... ... : ... .. . ... ... : ... .. . ... ... : ... .. . ... ...
ROW 38 : C-5 00 F P80 ... ... : E-5 00 A ... ... ... : --- .. . ... : ... .. F ... : ... .. . ... ... : D-3 01 8 P80 ... : F#3 01 8 P80 ... : --- .. . P7F ...
ROW 39 : ... .. E ... ... ... : ... .. 8 ... ... ... : ... .. . ... : ... .. C ... : ... .. . ... ... : ... .. 7 ... ... : ... .. 7 ... ... : ... .. . ... ...
ROW 3A : ... .. D ... ... ... : ... .. . ... ... ... : ... .. . ... : ... .. 6 ... : ... .. . ... ... : ... .. 6 ... ... : ... .. 6 ... ... : ... .. . ... ...
ROW 3B : ... .. 8 ... ... ... : A#4 00 5 ... ... ... : ... .. . ... : 9-# 00 D ... : ... .. . ... ... : ... .. 5 ... ... : ... .. 5 ... ... : ... .. . ... ...
ROW 3C : ... .. . ... ... ... : ... .. 4 ... ... ... : ... .. . ... : ... .. B ... : ... .. . ... ... : ... .. . ... ... : ... .. . ... ... : ... .. . ... ...
ROW 3D : ... .. . ... ... ... : ... .. . ... ... ... : ... .. . ... : ... .. . ... : ... .. . ... ... : ... .. 4 ... ... : ... .. 4 ... ... : ... .. . ... ...
ROW 3E : ... .. 6 ... ... ... : C-5 00 A ... ... ... : ... .. . ... : ... .. A ... : ... .. . ... ... : ... .. . ... ... : ... .. . ... ... : ... .. . ... ...
ROW 3F : ... .. . ... ... ... : ... .. 8 ... ... ... : ... .. . ... : ... .. 8 ... : ... .. . ... ... : ... .. . ... ... : ... .. . ... ... : ... .. . ... ...
ROW 40 : ... .. . ... ... ... : ... .. . ... ... ... : ... .. . ... : ... .. 7 ... : ... .. . ... ... : ... .. . ... ... : ... .. . ... ... : ... .. . ... ...
ROW 41 : ... .. 4 ... ... ... : E-5 00 5 ... ... ... : ... .. . ... : ... .. 6 ... : ... .. . ... ... : --- .. . P82 ... : --- .. . P7F ... : ... .. . ... ...
ROW 42 : ... .. . ... ... ... : ... .. 4 ... ... ... : ... .. . ... : ... .. . ... : ... .. . ... ... : ... .. . ... ... : ... .. . ... ... : ... .. . ... ...
ROW 43 : ... .. . ... ... ... : ... .. . ... ... ... : ... .. . ... : ... .. 5 ... : ... .. . ... ... : ... .. . ... ... : ... .. . ... ... : ... .. . ... ...
ROW 44 : ... .. 2 ... ... ... : A#4 00 A ... ... ... : ... .. . ... : 7-# 00 F ... : ... .. . ... ... : D-3 01 6 P80 ... : F#3 01 6 P80 ... : ... .. . ... ...
ROW 45 : ... .. . ... ... ... : ... .. 8 ... ... ... : ... .. . ... : ... .. C ... : ... .. . ... ... : ... .. 4 ... ... : ... .. 4 ... ... : ... .. . ... ...
ROW 46 : ... .. . ... ... ... : ... .. . ... ... ... : ... .. . ... : ... .. 6 ... : ... .. . ... ... : ... .. 3 ... ... : ... .. 3 ... ... : ... .. . ... ...
ROW 47 : ... .. 3 ... ... ... : C-5 00 5 ... ... ... : ... .. . ... : ... .. 3 ... : ... .. . ... ... : ... .. 1 ... ... : ... .. 1 ... ... : ... .. . ... ...
ROW 48 : ... .. . ... ... ... : ... .. 4 ... ... ... : ... .. . ... : ... .. F ... : ... .. . ... ... : ... .. 6 ... ... : ... .. 6 ... ... : ... .. . ... ...
ROW 49 : ... .. . ... ... ... : ... .. . ... ... ... : ... .. . ... : ... .. C ... : ... .. . ... ... : ... .. 4 ... ... : ... .. 4 ... ... : ... .. . ... ...
ROW 4A : ... .. 4 ... ... ... : ... .. A ... ... ... : ... .. . ... : ... .. 6 ... : ... .. . ... ... : ... .. 3 ... ... : ... .. 3 ... ... : ... .. . ... ...
ROW 4B : ... .. . ... ... ... : ... .. 8 ... ... ... : ... .. . ... : ... .. 3 ... : ... .. . ... ... : ... .. 1 ... ... : ... .. 1 ... ... : ... .. . ... ...
ROW 4C : ... .. . ... ... ... : ... .. . ... ... ... : ... .. . ... : ... .. F ... : ... .. . ... ... : ... .. 6 ... ... : ... .. 6 ... ... : ... .. . ... ...
ROW 4D : ... .. . ... ... ... : A#4 00 5 ... ... ... : ... .. . ... : ... .. C ... : ... .. . ... ... : ... .. 4 ... ... : ... .. 4 ... ... : ... .. . ... ...
ROW 4E : ... .. . ... ... ... : ... .. 4 ... ... ... : ... .. . ... : ... .. 6 ... : ... .. . ... ... : ... .. 3 ... ... : ... .. 3 ... ... : ... .. . ... ...
ROW 4F : ... .. . ... ... ... : ... .. . ... ... ... : ... .. . ... : ... .. 3 ... : ... .. . ... ... : ... .. 1 ... ... : ... .. 1 ... ... : ... .. . ... ...
ROW 50 : ... .. 5 P82 ... ... : F#5 00 A ... ... ... : C#5 00 . ... : ... .. F ... : ... .. . ... ... : A#2 01 8 ... ... : D-3 01 8 ... ... : D-1 01 C P80 ...
ROW 51 : ... .. . P83 ... ... : ... .. 8 ... ... ... : D#4 00 . ... : ... .. C ... : ... .. . ... ... : ... .. 7 ... ... : ... .. 7 ... ... : ... .. A ... ...
ROW 52 : ... .. . ... ... ... : ... .. . ... ... ... : G#3 00 . ... : ... .. 6 ... : ... .. . ... ... : ... .. 6 ... ... : ... .. 6 ... ... : ... .. 6 ... ...
ROW 53 : ... .. 6 P81 ... ... : C-5 00 5 ... ... ... : G-3 00 . ... : 9-# 00 D ... : ... .. . ... ... : ... .. 5 ... ... : ... .. 5 ... ... : ... .. . ... ...
ROW 54 : ... .. . P7F ... ... : ... .. 4 ... ... ... : D-3 00 . ... : ... .. B ... : ... .. . ... ... : ... .. . ... ... : ... .. . ... ... : ... .. . ... ...
ROW 55 : B-4 00 6 P83 ... ... : ... .. . ... ... ... : ... .. . ... : ... .. . ... : ... .. . ... ... : ... .. 4 ... ... : ... .. 4 ... ... : ... .. . ... ...
ROW 56 : ... .. . ... ... ... : D-5 00 A ... ... ... : ... .. . ... : ... .. A ... : ... .. . ... ... : ... .. . ... ... : ... .. . ... ... : ... .. . ... ...
ROW 57 : C-5 00 6 P7E ... ... : ... .. 8 ... ... ... : ... .. . ... : ... .. 8 ... : ... .. . ... ... : ... .. . ... ... : ... .. . ... ... : ... .. . ... ...
ROW 58 : ... .. . P80 ... ... : ... .. . ... ... ... : ... .. . ... : ... .. 7 ... : ... .. . ... ... : ... .. . ... ... : ... .. . ... ... : ... .. . ... ...
ROW 59 : ... .. 7 P82 ... ... : F#5 00 5 ... ... ... : ... .. . ... : ... .. 6 ... : ... .. . ... ... : --- .. . P82 ... : --- .. . P82 ... : ... .. . ... ...
ROW 5A : ... .. . P83 ... ... : ... .. 4 ... ... ... : ... .. . ... : ... .. . ... : ... .. . ... ... : ... .. . ... ... : ... .. . ... ... : ... .. . ... ...
ROW 5B : ... .. . ... ... ... : ... .. . ... ... ... : ... .. . ... : ... .. 5 ... : ... .. . ... ... : ... .. . ... ... : ... .. . ... ... : ... .. . ... ...
ROW 5C : ... .. 8 P81 ... ... : C-5 00 A ... ... ... : C#3 00 . P77 : 7-# 00 F ... : ... .. . ... ... : A#2 01 6 P80 ... : D-3 01 6 P80 ... : ... .. . P60 ...
ROW 5D : ... .. . P80 ... ... : ... .. 8 ... ... ... : B-2 00 . P88 : ... .. C ... : ... .. . ... ... : ... .. 4 ... ... : ... .. 4 ... ... : C#1 01 6 PA8 ...
ROW 5E : B-4 00 8 P83 ... ... : ... .. . ... ... ... : A#2 00 . P83 : ... .. 6 ... : ... .. . ... ... : ... .. 3 ... ... : ... .. 3 ... ... : ... .. . P88 ...
ROW 5F : ... .. . ... ... ... : D-5 00 5 ... ... ... : A-2 00 . P7F : ... .. 3 ... : ... .. . ... ... : ... .. 1 ... ... : ... .. 1 ... ... : ... .. . P68 ...
ROW 60 : C-5 00 8 P7E ... ... : ... .. 4 ... ... ... : G#2 00 . P7E : ... .. F ... : ... .. . ... ... : ... .. 6 ... ... : ... .. 6 ... ... : C-1 01 6 PB6 ...
ROW 61 : ... .. . P80 ... ... : ... .. . ... ... ... : G-2 00 . ... : ... .. C ... : ... .. . ... ... : ... .. 4 ... ... : ... .. 4 ... ... : ... .. . P96 ...
ROW 62 : ... .. A P81 ... ... : ... .. A ... ... ... : F#2 00 . P80 : ... .. 6 ... : ... .. . ... ... : ... .. 3 ... ... : ... .. 3 ... ... : ... .. . P76 ...
ROW 63 : ... .. . P83 ... ... : ... .. 8 ... ... ... : F-2 00 . P84 : ... .. 3 ... : ... .. . ... ... : ... .. 1 ... ... : ... .. 1 ... ... : ... .. . P56 ...
ROW 64 : ... .. . ... ... ... : ... .. . ... ... ... : E-2 00 . P8A : ... .. F ... : ... .. . ... ... : ... .. 6 ... ... : ... .. 6 ... ... : B-0 01 6 PAA ...
ROW 65 : ... .. . P81 ... ... : C-5 00 5 ... ... ... : D#2 00 . P92 : ... .. C ... : ... .. . ... ... : ... .. 4 ... ... : ... .. 4 ... ... : ... .. . P8A ...
ROW 66 : ... .. . P80 ... ... : ... .. 4 ... ... ... : ... .. . P72 : ... .. 6 ... : ... .. . ... ... : ... .. 3 ... ... : ... .. 3 ... ... : ... .. . P6A ...
ROW 67 : ... .. . P7E ... ... : ... .. . ... ... ... : D-2 00 . P7D : ... .. 3 ... : ... .. . ... ... : ... .. 1 ... ... : ... .. 1 ... ... : ... .. . P4A ...
ROW 68 : B-4 00 A P83 ... ... : G#5 00 A ... ... ... : C#5 00 . P80 : ... .. F ... : ... .. . ... ... : C-3 01 8 ... ... : E-3 01 8 ... ... : D-1 01 C P80 ...
ROW 69 : ... .. . ... ... ... : ... .. 8 ... ... ... : D#4 00 . ... : ... .. C ... : ... .. . ... ... : ... .. 7 ... ... : ... .. 7 ... ... : ... .. A ... ...
ROW 6A : C-5 00 A P80 ... ... : ... .. . ... ... ... : G#3 00 . ... : ... .. 6 ... : ... .. . ... ... : ... .. 6 ... ... : ... .. 6 ... ... : ... .. 6 ... ...
ROW 6B : ... .. . P81 ... ... : D-5 00 5 ... ... ... : G-3 00 . ... : ... .. 3 ... : ... .. . ... ... : ... .. 5 ... ... : ... .. 5 ... ... : ... .. . ... ...
ROW 6C : ... .. . P83 ... ... : ... .. 4 ... ... ... : D-3 00 . ... : ... .. 2 ... : ... .. . ... ... : ... .. . ... ... : ... .. . ... ... : ... .. . ... ...
ROW 6D : ... .. . ... ... ... : ... .. . ... ... ... : ... .. . ... : ... .. 0 ... : ... .. . ... ... : --- .. . P7E ... : --- .. . P82 ... : ... .. . ... ...
ROW 6E : ... .. . P82 ... ... : E-5 00 A ... ... ... : ... .. . ... : ... .. . ... : ... .. . ... ... : ... .. . ... ... : ... .. . ... ... : ... .. . ... ...
ROW 6F : ... .. . P80 ... ... : ... .. 8 ... ... ... : ... .. . ... : ... .. . ... : ... .. . ... ... : ... .. . ... ... : ... .. . ... ... : ... .. . ... ...
ROW 70 : ... .. . P7E ... ... : ... .. . ... ... ... : C#5 00 . ... : ... .. F ... : ... .. . ... ... : C-3 01 8 P80 ... : E-3 01 8 P80 ... : ... .. C ... ...
ROW 71 : B-4 00 A P83 ... ... : G#5 00 5 ... ... ... : D#4 00 . ... : ... .. C ... : ... .. . ... ... : ... .. 7 ... ... : ... .. 7 ... ... : ... .. A ... ...
ROW 72 : ... .. . ... ... ... : ... .. 4 ... ... ... : G#3 00 . ... : ... .. 6 ... : ... .. . ... ... : ... .. 6 ... ... : ... .. 6 ... ... : ... .. 6 ... ...
ROW 73 : C-5 00 A P7F ... ... : ... .. . ... ... ... : G-3 00 . ... : ... .. 3 ... : ... .. . ... ... : ... .. 5 ... ... : ... .. 5 ... ... : ... .. . ... ...
ROW 74 : ... .. . P81 ... ... : D-5 00 A ... ... ... : D-3 00 . ... : ... .. 2 ... : ... .. . ... ... : --- .. . P7E ... : --- .. . P82 ... : ... .. . ... ...
ROW 75 : ... .. . P83 ... ... : ... .. 8 ... ... ... : ... .. . ... : ... .. 0 ... : ... .. . ... ... : ... .. . ... ... : ... .. . ... ... : ... .. . ... ...
ROW 76 : ... .. . ... ... ... : ... .. . ... ... ... : ... .. . ... : ... .. . ... : ... .. . ... ... : ... .. . ... ... : ... .. . ... ... : ... .. . ... ...
ROW 77 : ... .. . P82 ... ... : E-5 00 5 ... ... ... : ... .. . ... : ... .. . ... : ... .. . ... ... : ... .. . ... ... : ... .. . ... ... : ... .. . ... ...
ROW 78 : ... .. . P80 ... ... : ... .. 4 ... ... ... : C#5 00 . ... : ... .. F ... : ... .. . ... ... : C-3 01 8 P80 ... : E-3 01 8 P80 ... : ... .. C ... ...
ROW 79 : ... .. . P7E ... ... : ... .. . ... ... ... : D#4 00 . ... : ... .. C ... : ... .. . ... ... : ... .. 7 ... ... : ... .. 7 ... ... : ... .. A ... ...
ROW 7A : B-4 00 A P83 ... ... : ... .. A ... ... ... : G#3 00 . ... : ... .. 6 ... : ... .. . ... ... : ... .. 6 ... ... : ... .. 6 ... ... : ... .. 6 ... ...
ROW 7B : ... .. . ... ... ... : ... .. 8 ... ... ... : G-3 00 . ... : ... .. 3 ... : ... .. . ... ... : ... .. 5 ... ... : ... .. 5 ... ... : ... .. . ... ...
ROW 7C : C-5 00 A P7F ... ... : ... .. . ... ... ... : D-3 00 . ... : ... .. 2 ... : ... .. . ... ... : ... .. . ... ... : ... .. . ... ... : ... .. . ... ...
ROW 7D : ... .. . P80 ... ... : D-5 00 5 ... ... ... : ... .. . ... : ... .. 0 ... : ... .. . ... ... : --- .. . P7E ... : --- .. . P82 ... : ... .. . ... ...
ROW 7E : ... .. . P83 ... ... : ... .. 4 ... ... ... : ... .. . ... : ... .. . ... : ... .. . ... ... : ... .. . ... ... : ... .. . ... ... : ... .. . ... ...
ROW 7F : ... .. . ... ... ... : ... .. . ... ... ... : ... .. . ... : ... .. . ... : ... .. . ... ... : ... .. . ... ... : ... .. . ... ... : ... .. . ... ...
ROW 80 : ... .. . P82 ... ... : A#5 00 A ... ... ... : F#5 00 . ... : ... .. F ... : ... .. . ... ... : G#2 01 8 P80 ... : C-3 01 8 P80 ... : G-1 01 C ... ...
ROW 81 : ... .. . P80 ... ... : ... .. 8 ... ... ... : G#4 00 . ... : ... .. C ... : ... .. . ... ... : ... .. 7 ... ... : ... .. 7 ... ... : ... .. A ... ...
ROW 82 : ... .. . P7F ... ... : ... .. . ... ... ... : C#4 00 . ... : ... .. 6 ... : ... .. . ... ... : ... .. 6 ... ... : ... .. 6 ... ... : ... .. 6 ... ...
ROW 83 : B-4 00 A P83 ... ... : E-5 00 5 ... ... ... : C-4 00 . ... : ... .. 3 ... : ... .. . ... ... : ... .. 5 ... ... : ... .. 5 ... ... : ... .. . ... ...
ROW 84 : ... .. . ... ... ... : ... .. 4 ... ... ... : G-3 00 . ... : ... .. 2 ... : ... .. . ... ... : ... .. . ... ... : ... .. . ... ... : ... .. . ... ...
ROW 85 : C-5 00 A P7F ... ... : ... .. . ... ... ... : ... .. . ... : ... .. 0 ... : ... .. . ... ... : --- .. . ... ... : --- .. . P7E ... : ... .. . ... ...
ROW 86 : ... .. . P80 ... ... : F#5 00 A ... ... ... : ... .. . ... : ... .. . ... : ... .. . ... ... : ... .. . ... ... : ... .. . ... ... : ... .. . ... ...
ROW 87 : ... .. . P82 ... ... : ... .. 8 ... ... ... : ... .. . ... : ... .. . ... : ... .. . ... ... : ... .. . ... ... : ... .. . ... ... : ... .. . ... ...
ROW 88 : ... .. . P83 ... ... : ... .. . ... ... ... : B-4 00 . ... : ... .. F ... : ... .. . ... ... : G#2 01 8 ... ... : C-3 01 8 P80 ... : C-1 01 C ... ...
ROW 89 : ... .. . ... ... ... : A#5 00 5 ... ... ... : C#4 00 . ... : ... .. C ... : ... .. . ... ... : ... .. 7 ... ... : ... .. 7 ... ... : ... .. A ... ...
ROW 8A : ... .. 2 P80 ... ... : ... .. 4 ... ... ... : F#3 00 . ... : ... .. 6 ... : ... .. . ... ... : ... .. 6 ... ... : ... .. 6 ... ... : ... .. 6 ... ...
ROW 8B : ... .. . P7F ... ... : ... .. . ... ... ... : F-3 00 . ... : ... .. 3 ... : ... .. . ... ... : ... .. 5 ... ... : ... .. 5 ... ... : ... .. . ... ...
ROW 8C : B-4 00 2 P83 ... ... : E-5 00 A ... ... ... : C-3 00 . ... : ... .. 2 ... : ... .. . ... ... : --- .. . ... ... : --- .. . P7E ... : ... .. . ... ...
ROW 8D : ... .. 1 ... ... ... : ... .. 8 ... ... ... : ... .. . ... : ... .. 0 ... : ... .. . ... ... : ... .. . ... ... : ... .. . ... ... : ... .. . ... ...
ROW 8E : C-5 00 1 P7E ... ... : ... .. . ... ... ... : ... .. . ... : ... .. . ... : ... .. . ... ... : ... .. . ... ... : ... .. . ... ... : ... .. . ... ...
ROW 8F : ... .. . P80 ... ... : F#5 00 5 ... ... ... : ... .. . ... : ... .. . ... : ... .. . ... ... : ... .. . ... ... : ... .. . ... ... : ... .. . ... ...
ROW 90 : ... .. 0 ... ... ... : ... .. 4 ... ... ... : F#5 00 . ... : ... .. F ... : ... .. . ... ... : G#2 01 8 ... ... : C-3 01 8 P80 ... : G-1 01 C ... ...
ROW 91 : ... .. . ... ... ... : ... .. . ... ... ... : G#4 00 . ... : ... .. C ... : ... .. . ... ... : ... .. 7 ... ... : ... .. 7 ... ... : ... .. A ... ...
ROW 92 : ... .. . ... ... ... : ... .. A ... ... ... : C#4 00 . ... : ... .. 6 ... : ... .. . ... ... : ... .. 6 ... ... : ... .. 6 ... ... : ... .. 6 ... ...
ROW 93 : ... .. . ... ... ... : ... .. 8 ... ... ... : C-4 00 . ... : ... .. 3 ... : ... .. . ... ... : ... .. 5 ... ... : ... .. 5 ... ... : ... .. . ... ...
ROW 94 : ... .. . ... ... ... : ... .. . ... ... ... : G-3 00 . ... : ... .. 2 ... : ... .. . ... ... : ... .. . ... ... : ... .. . ... ... : ... .. . ... ...
ROW 95 : ... .. . ... ... ... : E-5 00 5 ... ... ... : ... .. . ... : ... .. 0 ... : ... .. . ... ... : --- .. . ... ... : --- .. . P7E ... : ... .. . ... ...
ROW 96 : ... .. . ... ... ... : ... .. 4 ... ... ... : ... .. . ... : ... .. . ... : ... .. . ... ... : ... .. . ... ... : ... .. . ... ... : ... .. . ... ...
ROW 97 : ... .. . ... ... ... : ... .. . ... ... ... : ... .. . ... : ... .. . ... : ... .. . ... ... : ... .. . ... ... : ... .. . ... ... : ... .. . ... ...
ROW 98 : F#1 00 F P80 ... ... : C-6 00 8 ... ... ... : F-5 00 . ... : ... .. . ... : ... .. . ... ... : ... .. . ... ... : ... .. . ... ... : F#0 01 F ... ...
ROW 99 : ... .. E ... ... ... : ... .. 7 ... ... ... : G-4 00 . ... : ... .. . ... : ... .. . ... ... : ... .. . ... ... : ... .. . ... ... : ... .. D ... ...
ROW 9A : ... .. D ... ... ... : ... .. . ... ... ... : C-4 00 . ... : ... .. . ... : ... .. . ... ... : ... .. . ... ... : ... .. . ... ... : ... .. 8 ... ...
ROW 9B : ... .. 9 ... ... ... : ... .. 6 ... ... ... : B-3 00 . ... : ... .. . ... : ... .. . ... ... : ... .. . ... ... : ... .. . ... ... : ... .. 7 ... ...
ROW 9C : ... .. . ... ... ... : ... .. 5 ... ... ... : F#3 00 . ... : ... .. . ... : ... .. . ... ... : ... .. . ... ... : ... .. . ... ... : ... .. . ... ...
ROW 9D : ... .. . ... ... ... : ... .. 4 ... ... ... : ... .. . ... : ... .. . ... : ... .. . ... ... : ... .. . ... ... : ... .. . ... ... : ... .. . ... ...
ROW 9E : ... .. 8 ... ... ... : A#5 00 8 ... ... ... : ... .. . ... : ... .. . ... : ... .. . ... ... : ... .. . ... ... : ... .. . ... ... : ... .. 6 ... ...
ROW 9F : ... .. . ... ... ... : ... .. 7 ... ... ... : ... .. . ... : ... .. . ... : ... .. . ... ... : ... .. . ... ... : ... .. . ... ... : ... .. . ... ...
ROW A0 : ... .. . ... ... ... : ... .. . ... ... ... : ... .. . ... : ... .. . ... : ... .. . ... ... : ... .. . ... ... : ... .. . ... ... : ... .. . ... ...
ROW A1 : ... .. . ... ... ... : G#5 00 6 ... ... ... : ... .. . ... : ... .. . ... : ... .. . ... ... : ... .. . ... ... : ... .. . ... ... : ... .. . ... ...
ROW A2 : ... .. . ... ... ... : ... .. 5 ... ... ... : ... .. . ... : ... .. . ... : ... .. . ... ... : ... .. . ... ... : ... .. . ... ... : ... .. . ... ...
ROW A3 : ... .. . ... ... ... : ... .. . ... ... ... : ... .. . ... : ... .. . ... : ... .. . ... ... : ... .. . ... ... : ... .. . ... ... : ... .. . ... ...
ROW A4 : ... .. . ... ... ... : F#5 00 6 ... ... ... : ... .. . ... : 6-# 00 4 ... : ... .. . ... ... : ... .. . ... ... : ... .. . ... ... : ... .. . ... ...
ROW A5 : ... .. . ... ... ... : ... .. 5 ... ... ... : ... .. . ... : ... .. 3 ... : ... .. . ... ... : ... .. . ... ... : ... .. . ... ... : ... .. . ... ...
ROW A6 : ... .. . ... ... ... : ... .. . ... ... ... : ... .. . ... : ... .. 1 ... : ... .. . ... ... : ... .. . ... ... : ... .. . ... ... : ... .. . ... ...
ROW A7 : ... .. 7 ... ... ... : E-5 00 5 ... ... ... : E-3 00 . P85 : 7-# 00 5 ... : ... .. . ... ... : ... .. . ... ... : ... .. . ... ... : ... .. 5 ... ...
ROW A8 : ... .. . ... ... ... : ... .. 4 ... ... ... : D#3 00 . P7A : ... .. 4 ... : ... .. . ... ... : ... .. . ... ... : ... .. . ... ... : ... .. . ... ...
ROW A9 : ... .. . ... ... ... : ... .. . ... ... ... : C#3 00 . P86 : ... .. 2 ... : ... .. . ... ... : ... .. . ... ... : ... .. . ... ... : ... .. . ... ...
ROW AA : ... .. 6 ... ... ... : D-5 00 4 ... ... ... : C-3 00 . P7E : 8-# 00 7 ... : ... .. . ... ... : ... .. . ... ... : ... .. . ... ... : ... .. . ... ...
ROW AB : ... .. . ... ... ... : ... .. 3 ... ... ... : B-2 00 . P77 : ... .. 5 ... : ... .. . ... ... : ... .. . ... ... : ... .. . ... ... : ... .. . ... ...
ROW AC : ... .. . ... ... ... : ... .. . ... ... ... : A-2 00 . P8E : ... .. 2 ... : ... .. . ... ... : ... .. . ... ... : ... .. . ... ... : ... .. . ... ...
ROW AD : ... .. . ... ... ... : C-5 00 3 ... ... ... : G#2 00 . P8D : 9-# 00 8 ... : ... .. . ... ... : ... .. . ... ... : ... .. . ... ... : ... .. . ... ...
ROW AE : ... .. . ... ... ... : ... .. 2 ... ... ... : G-2 00 . ... : ... .. 6 ... : ... .. . ... ... : ... .. . ... ... : ... .. . ... ... : ... .. . ... ...
ROW AF : ... .. . ... ... ... : ... .. . ... ... ... : F#2 00 . P8F : ... .. 3 ... : ... .. . ... ... : ... .. . ... ... : ... .. . ... ... : ... .. . ... ...
ROW B0 : G-3 00 A ... ... ... : G-4 00 A ... ... ... : F-4 00 . P80 : A-# 00 A ... : ... .. . ... ... : E-4 01 6 ... ... : C-4 01 6 P80 ... : ... .. 4 ... ...
ROW B1 : ... .. 9 ... ... ... : ... .. 9 ... ... ... : G-3 00 . ... : ... .. . ... : ... .. . ... ... : ... .. . ... ... : ... .. . ... ... : ... .. . ... ...
ROW B2 : ... .. 8 ... ... ... : ... .. 8 ... ... ... : C-3 00 . ... : ... .. . ... : ... .. . ... ... : ... .. 5 ... ... : ... .. 5 ... ... : ... .. . ... ...
ROW B3 : ... .. 6 ... ... ... : ... .. 6 ... ... ... : B-2 00 . ... : ... .. 8 ... : ... .. . ... ... : ... .. 4 ... ... : ... .. 4 ... ... : ... .. . ... ...
ROW B4 : ... .. . ... ... ... : ... .. . ... ... ... : F#2 00 . ... : ... .. . ... : ... .. . ... ... : ... .. . ... ... : ... .. . ... ... : ... .. . ... ...
ROW B5 : ... .. . ... ... ... : ... .. . ... ... ... : ... .. . ... : ... .. . ... : ... .. . ... ... : ... .. . ... ... : ... .. . ... ... : ... .. . ... ...
ROW B6 : ... .. . ... ... ... : ... .. . ... ... ... : ... .. . ... : ... .. 6 ... : ... .. . ... ... : ... .. 3 ... ... : ... .. 3 ... ... : ... .. . ... ...
ROW B7 : ... .. 1 ... ... ... : ... .. 1 ... ... ... : ... .. . ... : ... .. . ... : ... .. . ... ... : ... .. . ... ... : ... .. . ... ... : ... .. . ... ...
ROW B8 : ... .. . ... ... ... : ... .. . ... ... ... : ... .. . ... : ... .. . ... : ... .. . ... ... : ... .. 2 ... ... : ... .. 2 ... ... : ... .. . ... ...
ROW B9 : ... .. . ... ... ... : ... .. . ... ... ... : ... .. . ... : ... .. 4 ... : ... .. . ... ... : ... .. . ... ... : ... .. . ... ... : ... .. 3 ... ...
ROW BA : ... .. . ... ... ... : ... .. . ... ... ... : ... .. . ... : ... .. . ... : ... .. . ... ... : ... .. . ... ... : ... .. . ... ... : ... .. . ... ...
ROW BB : ... .. . ... ... ... : ... .. . ... ... ... : ... .. . ... : ... .. . ... : ... .. . ... ... : ... .. . ... ... : ... .. . ... ... : ... .. . ... ...
ROW BC : ... .. 8 ... ... ... : ... .. 8 ... ... ... : ... .. . ... : 9-# 00 8 ... : ... .. . ... ... : ... .. 5 ... ... : ... .. 5 ... ... : ... .. . ... ...
ROW BD : ... .. 5 ... ... ... : ... .. 5 ... ... ... : ... .. . ... : ... .. 6 ... : ... .. . ... ... : ... .. 3 ... ... : ... .. 3 ... ... : ... .. . ... ...
ROW BE : ... .. 3 ... ... ... : ... .. 3 ... ... ... : ... .. . ... : ... .. 3 ... : ... .. . ... ... : ... .. 2 ... ... : ... .. 2 ... ... : ... .. . ... ...
ROW BF : ... .. 1 ... ... ... : ... .. 1 ... ... ... : ... .. . ... : ... .. 4 ... : ... .. . ... ... : ... .. 1 ... ... : ... .. 1 ... ... : ... .. 2 ... ...
ROW C0 : ... .. 8 ... ... ... : ... .. 8 ... ... ... : ... .. . ... : ... .. 3 ... : ... .. . ... ... : ... .. 5 ... ... : ... .. 5 ... ... : ... .. . ... ...
ROW C1 : ... .. 5 ... ... ... : ... .. 5 ... ... ... : ... .. . ... : ... .. 1 ... : ... .. . ... ... : ... .. 3 ... ... : ... .. 3 ... ... : ... .. . ... ...
ROW C2 : ... .. 3 ... ... ... : ... .. 3 ... ... ... : ... .. . ... : ... .. 8 ... : ... .. . ... ... : ... .. 2 ... ... : ... .. 2 ... ... : ... .. . ... ...
ROW C3 : ... .. 1 ... ... ... : ... .. 1 ... ... ... : ... .. . ... : ... .. 6 ... : ... .. . ... ... : ... .. 1 ... ... : ... .. 1 ... ... : ... .. . ... ...
ROW C4 : ... .. 8 ... ... ... : ... .. 8 ... ... ... : ... .. . ... : ... .. 3 ... : ... .. . ... ... : ... .. 5 ... ... : ... .. 5 ... ... : ... .. . ... ...
ROW C5 : ... .. 5 ... ... ... : ... .. 5 ... ... ... : ... .. . ... : ... .. 1 ... : ... .. . ... ... : ... .. 3 ... ... : ... .. 3 ... ... : ... .. . ... ...
ROW C6 : ... .. 3 ... ... ... : ... .. 3 ... ... ... : ... .. . ... : ... .. . ... : ... .. . ... ... : ... .. 2 ... ... : ... .. 2 ... ... : ... .. . ... ...
ROW C7 : ... .. 1 ... ... ... : ... .. 1 ... ... ... : ... .. . ... : ... .. 0 ... : ... .. . ... ... : ... .. 1 ... ... : ... .. 1 ... ... : ... .. . ... ...
ROW C8 : ... .. A ... ... ... : ... .. A ... ... ... : F-5 00 . ... : ... .. F ... : ... .. . ... ... : ... .. 6 ... ... : ... .. 6 ... ... : ... .. 1 ... ...
ROW C9 : ... .. 9 ... ... ... : ... .. 9 ... ... ... : G-4 00 . ... : ... .. C ... : ... .. . ... ... : ... .. . ... ... : ... .. . ... ... : ... .. . ... ...
ROW CA : ... .. 8 ... ... ... : ... .. 8 ... ... ... : C-4 00 . ... : ... .. 6 ... : ... .. . ... ... : ... .. 5 ... ... : ... .. 5 ... ... : ... .. . ... ...
ROW CB : ... .. 6 ... ... ... : ... .. 6 ... ... ... : B-3 00 . ... : ... .. 3 ... : ... .. . ... ... : ... .. 4 ... ... : ... .. 4 ... ... : ... .. . ... ...
ROW CC : ... .. . ... ... ... : ... .. . ... ... ... : F#3 00 . ... : ... .. 2 ... : ... .. . ... ... : ... .. . ... ... : ... .. . ... ... : ... .. . ... ...
ROW CD : ... .. . ... ... ... : ... .. . ... ... ... : ... .. . ... : ... .. 0 ... : ... .. . ... ... : ... .. . ... ... : ... .. . ... ... : ... .. . ... ...
ROW CE : ... .. . ... ... ... : ... .. . ... ... ... : ... .. . ... : ... .. . ... : ... .. . ... ... : ... .. . ... ... : ... .. . ... ... : ... .. . ... ...
ROW CF : ... .. . ... ... ... : ... .. . ... ... ... : ... .. . ... : ... .. . ... : ... .. . ... ... : ... .. 3 ... ... : ... .. 3 ... ... : ... .. . ... ...
ROW D0 : ... .. A ... ... ... : ... .. A ... ... ... : F-5 00 . ... : ... .. C ... : ... .. . ... ... : ... .. 6 ... ... : ... .. 6 ... ... : ... .. . ... ...
ROW D1 : ... .. 9 ... ... ... : ... .. 9 ... ... ... : G-4 00 . ... : ... .. 9 ... : ... .. . ... ... : ... .. . ... ... : ... .. . ... ... : ... .. . ... ...
ROW D2 : ... .. 8 ... ... ... : ... .. 8 ... ... ... : C-4 00 . ... : ... .. 4 ... : ... .. . ... ... : ... .. 5 ... ... : ... .. 5 ... ... : ... .. . ... ...
ROW D3 : ... .. 6 ... ... ... : ... .. 6 ... ... ... : B-3 00 . ... : ... .. 2 ... : ... .. . ... ... : ... .. 4 ... ... : ... .. 4 ... ... : ... .. . ... ...
ROW D4 : ... .. . ... ... ... : ... .. . ... ... ... : F#3 00 . ... : ... .. 1 ... : ... .. . ... ... : ... .. 3 ... ... : ... .. 3 ... ... : ... .. . ... ...
ROW D5 : ... .. 1 ... ... ... : ... .. 1 ... ... ... : ... .. . ... : ... .. 0 ... : ... .. . ... ... : ... .. . ... ... : ... .. . ... ... : ... .. . ... ...
ROW D6 : ... .. . ... ... ... : ... .. . ... ... ... : ... .. . ... : ... .. . ... : ... .. . ... ... : ... .. 2 ... ... : ... .. 2 ... ... : ... .. . ... ...
ROW D7 : ... .. . ... ... ... : ... .. . ... ... ... : ... .. . ... : ... .. . ... : ... .. . ... ... : ... .. . ... ... : ... .. . ... ... : ... .. . ... ...
ROW D8 : ... .. A ... ... ... : ... .. A ... ... ... : F-5 00 . ... : ... .. F ... : ... .. . ... ... : ... .. 6 ... ... : ... .. 6 ... ... : ... .. . ... ...
ROW D9 : ... .. 9 ... ... ... : ... .. 9 ... ... ... : G-4 00 . ... : ... .. C ... : ... .. . ... ... : ... .. . ... ... : ... .. . ... ... : ... .. . ... ...
ROW DA : ... .. 8 ... ... ... : ... .. 8 ... ... ... : C-4 00 . ... : ... .. 6 ... : ... .. . ... ... : ... .. 5 ... ... : ... .. 5 ... ... : ... .. . ... ...
ROW DB : ... .. 6 ... ... ... : ... .. 6 ... ... ... : B-3 00 . ... : ... .. 3 ... : ... .. . ... ... : ... .. 4 ... ... : ... .. 4 ... ... : ... .. . ... ...
ROW DC : ... .. . ... ... ... : ... .. . ... ... ... : F#3 00 . ... : ... .. 2 ... : ... .. . ... ... : ... .. . ... ... : ... .. . ... ... : ... .. . ... ...
ROW DD : ... .. . ... ... ... : ... .. . ... ... ... : ... .. . ... : ... .. 0 ... : ... .. . ... ... : ... .. . ... ... : ... .. . ... ... : ... .. . ... ...
ROW DE : ... .. . ... ... ... : ... .. . ... ... ... : ... .. . ... : ... .. . ... : ... .. . ... ... : ... .. . ... ... : ... .. . ... ... : ... .. . ... ...
ROW DF : ... .. . ... ... ... : ... .. . ... ... ... : ... .. . ... : ... .. . ... : ... .. . ... ... : ... .. 3 ... ... : ... .. 3 ... ... : ... .. . ... ...
ROW E0 : ... .. . ... ... ... : ... .. 2 ... ... ... : F-3 00 . ... : ... .. F ... : ... .. . ... ... : ... .. 1 ... ... : ... .. 1 ... ... : F#1 01 F ... ...
ROW E1 : ... .. 1 ... ... ... : ... .. 1 ... ... ... : G-2 00 . ... : ... .. C ... : ... .. . ... ... : ... .. . ... ... : ... .. . ... ... : ... .. D ... ...
ROW E2 : ... .. . ... ... ... : ... .. . ... ... ... : C-2 00 . ... : ... .. 6 ... : ... .. . ... ... : ... .. . ... ... : ... .. . ... ... : ... .. 8 ... ...
ROW E3 : ... .. . ... ... ... : ... .. . ... ... ... : B-1 00 . ... : ... .. 3 ... : ... .. . ... ... : ... .. . ... ... : ... .. . ... ... : ... .. . ... ...
ROW E4 : ... .. . ... ... ... : ... .. . ... ... ... : F#1 00 . ... : ... .. 2 ... : ... .. . ... ... : ... .. . ... ... : ... .. . ... ... : ... .. . ... ...
ROW E5 : ... .. . ... ... ... : ... .. . ... ... ... : ... .. . ... : ... .. 0 ... : ... .. . ... ... : ... .. . ... ... : ... .. . ... ... : ... .. . ... ...
ROW E6 : ... .. . ... ... ... : ... .. . ... ... ... : ... .. . ... : ... .. . ... : ... .. . ... ... : ... .. . ... ... : ... .. . ... ... : ... .. . ... ...
ROW E7 : ... .. 0 ... ... ... : ... .. 0 ... ... ... : ... .. . ... : ... .. . ... : ... .. . ... ... : ... .. . ... ... : ... .. . ... ... : ... .. . ... ...
ROW E8 : ... .. . ... ... ... : ... .. . ... ... ... : F-3 00 . ... : ... .. C ... : ... .. . ... ... : ... .. . ... ... : ... .. . ... ... : ... .. F ... ...
ROW E9 : ... .. . ... ... ... : ... .. . ... ... ... : G-2 00 . ... : ... .. 9 ... : ... .. . ... ... : ... .. . ... ... : ... .. . ... ... : ... .. D ... ...
ROW EA : ... .. . ... ... ... : ... .. . ... ... ... : C-2 00 . ... : ... .. 4 ... : ... .. . ... ... : ... .. . ... ... : ... .. . ... ... : ... .. 8 ... ...
ROW EB : ... .. . ... ... ... : ... .. . ... ... ... : B-1 00 . ... : ... .. 2 ... : ... .. . ... ... : ... .. . ... ... : ... .. . ... ... : ... .. . ... ...
ROW EC : ... .. . ... ... ... : ... .. . ... ... ... : F#1 00 . ... : ... .. 1 ... : ... .. . ... ... : ... .. . ... ... : ... .. . ... ... : ... .. . ... ...
ROW ED : ... .. . ... ... ... : ... .. . ... ... ... : ... .. . ... : ... .. 0 ... : ... .. . ... ... : ... .. . ... ... : ... .. . ... ... : ... .. . ... ...
ROW EE : ... .. . ... ... ... : ... .. . ... ... ... : ... .. . ... : ... .. . ... : ... .. . ... ... : ... .. . ... ... : ... .. . ... ... : ... .. . ... ...
ROW EF : ... .. . ... ... ... : ... .. . ... ... ... : ... .. . ... : ... .. . ... : ... .. . ... ... : ... .. . ... ... : ... .. . ... ... : ... .. . ... ...
ROW F0 : ... .. . ... ... ... : ... .. . ... ... ... : F-3 00 . ... : ... .. F ... : ... .. . ... ... : ... .. . ... ... : ... .. . ... ... : ... .. F ... ...
ROW F1 : ... .. . ... ... ... : ... .. . ... ... ... : G-2 00 . ... : ... .. C ... : ... .. . ... ... : ... .. . ... ... : ... .. . ... ... : ... .. D ... ...
ROW F2 : ... .. . ... ... ... : ... .. . ... ... ... : C-2 00 . ... : ... .. 6 ... : ... .. . ... ... : ... .. . ... ... : ... .. . ... ... : ... .. 8 ... ...
ROW F3 : ... .. . ... ... ... : ... .. . ... ... ... : B-1 00 . ... : ... .. 3 ... : ... .. . ... ... : ... .. . ... ... : ... .. . ... ... : ... .. . ... ...
ROW F4 : ... .. . ... ... ... : ... .. . ... ... ... : F#1 00 . ... : ... .. 2 ... : ... .. . ... ... : ... .. . ... ... : ... .. . ... ... : ... .. . ... ...
ROW F5 : ... .. . ... ... ... : ... .. . ... ... ... : ... .. . ... : ... .. 0 ... : ... .. . ... ... : ... .. . ... ... : ... .. . ... ... : ... .. . ... ...
ROW F6 : ... .. . ... ... ... : ... .. . ... ... ... : ... .. . ... : ... .. . ... : ... .. . ... ... : ... .. . ... ... : ... .. . ... ... : ... .. . ... ...
ROW F7 : ... .. . ... ... ... : ... .. . ... ... ... : ... .. . ... : ... .. . ... : ... .. . ... ... : ... .. . ... ... : ... .. . ... ... : ... .. . ... ...
ROW F8 : ... .. . ... ... ... : G-4 00 A P80 ... ... : F-4 00 . ... : A-# 00 F ... : ... .. . ... ... : ... .. 6 ... ... : ... .. 6 ... ... : ... .. . ... ...
ROW F9 : ... .. . ... ... ... : ... .. 9 ... ... ... : G-3 00 . ... : ... .. C ... : ... .. . ... ... : ... .. . ... ... : ... .. . ... ... : ... .. . ... ...
ROW FA : ... .. . ... ... ... : ... .. 8 ... ... ... : C-3 00 . ... : ... .. 6 ... : ... .. . ... ... : ... .. 5 ... ... : ... .. 5 ... ... : ... .. . ... ...
ROW FB : ... .. . ... ... ... : ... .. 6 ... ... ... : B-2 00 . ... : ... .. B ... : ... .. . ... ... : ... .. 4 ... ... : ... .. 4 ... ... : ... .. . ... ...
ROW FC : ... .. . ... ... ... : ... .. . ... ... ... : F#2 00 . ... : ... .. 8 ... : ... .. . ... ... : ... .. . ... ... : ... .. . ... ... : ... .. . ... ...
ROW FD : ... .. . ... ... ... : ... .. . ... ... ... : ... .. . ... : ... .. 4 ... : ... .. . ... ... : ... .. . ... ... : ... .. . ... ... : ... .. . ... ...
ROW FE : ... .. . ... ... ... : ... .. . ... ... ... : ... .. . ... : ... .. 7 ... : ... .. . ... ... : ... .. . ... ... : ... .. . ... ... : ... .. . ... ...
ROW FF : ... .. . ... ... ... : ... .. . ... ... ... : ... .. . ... : ... .. 5 ... : ... .. . ... ... : ... .. 3 ... ... : ... .. 3 ... ... : ... .. . ... ...

PATTERN 17
ROW 00 : ... .. . ... ... ... : ... .. . ... ... ... : F-4 00 . ... : ... .. 2 ... : ... .. . ... ... : ... .. . ... ... : ... .. . ... ... : ... .. . ... ...
ROW 01 : ... .. . ... ... ... : ... .. . ... ... ... : G-3 00 . ... : ... .. 4 ... : ... .. . ... ... : ... .. . ... ... : ... .. . ... ... : ... .. . ... ...
ROW 02 : ... .. . ... ... ... : ... .. . ... ... ... : C-3 00 . ... : ... .. 3 ... : ... .. . ... ... : ... .. . ... ... : ... .. . ... ... : ... .. . ... ...
ROW 03 : ... .. . ... ... ... : ... .. . ... ... ... : B-2 00 . ... : ... .. 1 ... : ... .. . ... ... : ... .. . ... ... : ... .. . ... ... : ... .. . ... ...
ROW 04 : G-3 00 6 P80 ... ... : ... .. . ... ... ... : F#2 00 . ... : ... .. 6 ... : ... .. . ... ... : ... .. . ... ... : ... .. . ... ... : ... .. . ... ...
ROW 05 : ... .. 1 ... ... ... : ... .. 1 ... ... ... : ... .. . ... : ... .. 4 ... : ... .. . ... ... : ... .. . ... ... : ... .. . ... ... : ... .. 4 ... ...
ROW 06 : ... .. . ... ... ... : ... .. . ... ... ... : ... .. . ... : ... .. 2 ... : ... .. . ... ... : ... .. 2 ... ... : ... .. 2 ... ... : ... .. . ... ...
ROW 07 : ... .. . ... ... ... : ... .. . ... ... ... : ... .. . ... : ... .. 8 ... : ... .. . ... ... : ... .. . ... ... : ... .. . ... ... : ... .. 1 ... ...
ROW 08 : ... .. . ... ... ... : ... .. . ... ... ... : F-4 00 . ... : ... .. 6 ... : ... .. . ... ... : ... .. . ... ... : ... .. . ... ... : ... .. . ... ...
ROW 09 : ... .. . ... ... ... : ... .. . ... ... ... : G-3 00 . ... : ... .. 3 ... : ... .. . ... ... : ... .. . ... ... : ... .. . ... ... : ... .. . ... ...
ROW 0A : ... .. A ... ... ... : ... .. A ... ... ... : C-3 00 . ... : ... .. A ... : ... .. . ... ... : ... .. 6 ... ... : ... .. 6 ... ... : ... .. . ... ...
ROW 0B : ... .. 9 ... ... ... : ... .. 9 ... ... ... : B-2 00 . ... : ... .. 8 ... : ... .. . ... ... : ... .. . ... ... : ... .. . ... ... : ... .. . ... ...
ROW 0C : ... .. 8 ... ... ... : ... .. 8 ... ... ... : F#2 00 . ... : ... .. 4 ... : ... .. . ... ... : ... .. 5 ... ... : ... .. 5 ... ... : ... .. . ... ...
ROW 0D : ... .. 6 ... ... ... : ... .. 6 ... ... ... : ... .. . ... : ... .. C ... : ... .. . ... ... : ... .. 3 ... ... : ... .. 3 ... ... : ... .. . ... ...
ROW 0E : ... .. 1 ... ... ... : ... .. 1 ... ... ... : ... .. . ... : ... .. 9 ... : ... .. . ... ... : ... .. . ... ... : ... .. . ... ... : ... .. 0 ... ...
ROW 0F : ... .. . ... ... ... : ... .. . ... ... ... : ... .. . ... : ... .. 4 ... : ... .. . ... ... : ... .. 2 ... ... : ... .. 2 ... ... : ... .. . ... ...
ROW 10 : A#3 00 A ... ... ... : A#4 00 A ... ... ... : D-4 00 . ... : B-# 00 F ... : ... .. . ... ... : F#4 01 6 ... ... : A#2 01 6 ... ... : A#2 01 A ... ...
ROW 11 : ... .. 9 ... ... ... : ... .. 9 ... ... ... : E-3 00 . ... : ... .. . ... : ... .. . ... ... : ... .. . ... ... : ... .. . ... ... : ... .. 8 ... ...
ROW 12 : ... .. 8 ... ... ... : ... .. 8 ... ... ... : A-2 00 . ... : ... .. . ... : ... .. . ... ... : ... .. 5 ... ... : ... .. 5 ... ... : ... .. 5 ... ...
ROW 13 : ... .. 6 ... ... ... : ... .. 6 ... ... ... : G#2 00 . ... : ... .. E ... : ... .. . ... ... : ... .. 4 ... ... : ... .. 4 ... ... : ... .. . ... ...
ROW 14 : ... .. . ... ... ... : ... .. . ... ... ... : D#2 00 . ... : ... .. . ... : ... .. . ... ... : ... .. . ... ... : ... .. . ... ... : ... .. . ... ...
ROW 15 : ... .. . ... ... ... : ... .. . ... ... ... : ... .. . ... : ... .. . ... : ... .. . ... ... : ... .. . ... ... : ... .. . ... ... : ... .. . ... ...
ROW 16 : ... .. . ... ... ... : ... .. . ... ... ... : ... .. . ... : ... .. D ... : ... .. . ... ... : ... .. . ... ... : ... .. . ... ... : B-2 01 A ... ...
ROW 17 : ... .. . ... ... ... : ... .. . ... ... ... : ... .. . ... : ... .. . ... : ... .. . ... ... : ... .. 3 ... ... : ... .. 3 ... ... : ... .. 8 ... ...
ROW 18 : ... .. . ... ... ... : ... .. . ... ... ... : ... .. . ... : ... .. . ... : ... .. . ... ... : ... .. . ... ... : ... .. . ... ... : ... .. 5 ... ...
ROW 19 : ... .. . ... ... ... : ... .. . ... ... ... : ... .. . ... : ... .. . ... : ... .. . ... ... : ... .. . ... ... : ... .. . ... ... : ... .. . ... ...
ROW 1A : ... .. . ... ... ... : ... .. . ... ... ... : ... .. . ... : ... .. . ... : ... .. . ... ... : ... .. . ... ... : ... .. . ... ... : ... .. . ... ...
ROW 1B : ... .. . ... ... ... : ... .. . ... ... ... : ... .. . ... : ... .. . ... : ... .. . ... ... : ... .. . ... ... : ... .. . ... ... : ... .. . ... ...
ROW 1C : ... .. . ... ... ... : ... .. . ... ... ... : ... .. . ... : ... .. C ... : ... .. . ... ... : ... .. . ... ... : ... .. . ... ... : D-3 01 A ... ...
ROW 1D : ... .. . ... ... ... : ... .. . ... ... ... : ... .. . ... : ... .. . ... : ... .. . ... ... : ... .. . ... ... : ... .. . ... ... : ... .. 8 ... ...
ROW 1E : ... .. . ... ... ... : ... .. . ... ... ... : ... .. . ... : ... .. . ... : ... .. . ... ... : ... .. . ... ... : ... .. . ... ... : ... .. 5 ... ...
ROW 1F : ... .. . ... ... ... : ... .. . ... ... ... : ... .. . ... : ... .. . ... : ... .. . ... ... : ... .. . ... ... : ... .. . ... ... : ... .. . ... ...
ROW 20 : ... .. . ... ... ... : ... .. . ... ... ... : ... .. . ... : ... .. . ... : ... .. . ... ... : ... .. . ... ... : ... .. . ... ... : ... .. . ... ...
ROW 21 : ... .. . ... ... ... : ... .. . ... ... ... : ... .. . ... : ... .. . ... : ... .. . ... ... : ... .. . ... ... : ... .. . ... ... : ... .. . ... ...
ROW 22 : ... .. . ... ... ... : ... .. . ... ... ... : ... .. . ... : ... .. B ... : ... .. . ... ... : ... .. . ... ... : ... .. . ... ... : D#3 01 A ... ...
ROW 23 : ... .. . ... ... ... : ... .. . ... ... ... : ... .. . ... : ... .. . ... : ... .. . ... ... : ... .. . ... ... : ... .. . ... ... : ... .. 8 ... ...
ROW 24 : ... .. . ... ... ... : ... .. . ... ... ... : ... .. . ... : ... .. . ... : ... .. . ... ... : ... .. . ... ... : ... .. . ... ... : ... .. 5 ... ...
ROW 25 : ... .. . ... ... ... : ... .. . ... ... ... : ... .. . ... : ... .. A ... : ... .. . ... ... : ... .. . ... ... : ... .. . ... ... : ... .. . ... ...
ROW 26 : ... .. . ... ... ... : ... .. . ... ... ... : ... .. . ... : ... .. . ... : ... .. . ... ... : ... .. . ... ... : ... .. . ... ... : ... .. . ... ...
ROW 27 : ... .. . ... ... ... : ... .. . ... ... ... : ... .. . ... : ... .. . ... : ... .. . ... ... : ... .. . ... ... : ... .. . ... ... : ... .. . ... ...
ROW 28 : ... .. . ... ... ... : ... .. . ... ... ... : ... .. . ... : ... .. . ... : ... .. . ... ... : ... .. . ... ... : F#3 01 6 ... ... : D-3 01 A ... ...
ROW 29 : ... .. . ... ... ... : ... .. . ... ... ... : ... .. . ... : ... .. . ... : ... .. . ... ... : ... .. . ... ... : ... .. . ... ... : ... .. 8 ... ...
ROW 2A : ... .. . ... ... ... : ... .. . ... ... ... : ... .. . ... : ... .. . ... : ... .. . ... ... : ... .. . ... ... : ... .. 5 ... ... : ... .. 5 ... ...
ROW 2B : ... .. . ... ... ... : ... .. . ... ... ... : ... .. . ... : ... .. 9 ... : ... .. . ... ... : ... .. . ... ... : ... .. 4 ... ... : ... .. . ... ...
ROW 2C : ... .. . ... ... ... : ... .. . ... ... ... : ... .. . ... : ... .. . ... : ... .. . ... ... : ... .. . ... ... : ... .. . ... ... : ... .. . ... ...
ROW 2D : ... .. . ... ... ... : ... .. . ... ... ... : ... .. . ... : ... .. . ... : ... .. . ... ... : ... .. . ... ... : ... .. . ... ... : ... .. . ... ...
ROW 2E : ... .. . ... ... ... : ... .. . ... ... ... : ... .. . ... : ... .. . ... : ... .. . ... ... : ... .. . ... ... : ... .. . ... ... : D#3 01 A ... ...
ROW 2F : ... .. . ... ... ... : ... .. . ... ... ... : ... .. . ... : ... .. . ... : ... .. . ... ... : ... .. . ... ... : ... .. 3 ... ... : ... .. 8 ... ...
ROW 30 : ... .. . ... ... ... : ... .. . ... ... ... : ... .. . ... : ... .. . ... : ... .. . ... ... : ... .. . ... ... : ... .. . ... ... : ... .. 5 ... ...
ROW 31 : ... .. . ... ... ... : ... .. . ... ... ... : ... .. . ... : ... .. 8 ... : ... .. . ... ... : ... .. . ... ... : ... .. . ... ... : ... .. . ... ...
ROW 32 : ... .. . ... ... ... : ... .. . ... ... ... : ... .. . ... : ... .. . ... : ... .. . ... ... : ... .. . ... ... : ... .. . ... ... : ... .. . ... ...
ROW 33 : ... .. . ... ... ... : ... .. . ... ... ... : ... .. . ... : ... .. . ... : ... .. . ... ... : ... .. . ... ... : ... .. . ... ... : ... .. . ... ...
ROW 34 : ... .. . ... ... ... : ... .. . ... ... ... : ... .. . ... : ... .. . ... : ... .. . ... ... : ... .. . ... ... : ... .. . ... ... : F-3 01 A ... ...
ROW 35 : ... .. . ... ... ... : ... .. . ... ... ... : ... .. . ... : ... .. . ... : ... .. . ... ... : ... .. . ... ... : ... .. . ... ... : ... .. 8 ... ...
ROW 36 : ... .. . ... ... ... : ... .. . ... ... ... : ... .. . ... : ... .. . ... : ... .. . ... ... : ... .. . ... ... : ... .. . ... ... : ... .. 5 ... ...
ROW 37 : ... .. . ... ... ... : ... .. . ... ... ... : ... .. . ... : ... .. 7 ... : ... .. . ... ... : ... .. . ... ... : ... .. . ... ... : ... .. . ... ...
ROW 38 : ... .. . ... ... ... : ... .. . ... ... ... : ... .. . ... : ... .. . ... : ... .. . ... ... : ... .. . ... ... : ... .. . ... ... : ... .. . ... ...
ROW 39 : ... .. . ... ... ... : ... .. . ... ... ... : ... .. . ... : ... .. . ... : ... .. . ... ... : ... .. . ... ... : ... .. . ... ... : ... .. . ... ...
ROW 3A : ... .. . ... ... ... : ... .. . ... ... ... : ... .. . ... : ... .. 6 ... : ... .. . ... ... : ... .. . ... ... : ... .. . ... ... : F#3 01 A ... ...
ROW 3B : ... .. . ... ... ... : ... .. . ... ... ... : ... .. . ... : ... .. . ... : ... .. . ... ... : ... .. . ... ... : ... .. . ... ... : ... .. 8 ... ...
ROW 3C : ... .. . ... ... ... : ... .. . ... ... ... : ... .. . ... : ... .. . ... : ... .. . ... ... : ... .. . ... ... : ... .. . ... ... : ... .. 5 ... ...
ROW 3D : ... .. . ... ... ... : ... .. . ... ... ... : ... .. . ... : ... .. . ... : ... .. . ... ... : ... .. . ... ... : ... .. . ... ... : ... .. . ... ...
ROW 3E : ... .. . ... ... ... : ... .. . ... ... ... : ... .. . ... : ... .. . ... : ... .. . ... ... : ... .. . ... ... : ... .. . ... ... : ... .. . ... ...
ROW 3F : ... .. . ... ... ... : ... .. . ... ... ... : ... .. . ... : ... .. . ... : ... .. . ... ... : ... .. . ... ... : ... .. . ... ... : ... .. . ... ...
ROW 40 : ... .. . ... ... ... : ... .. . ... ... ... : ... .. . ... : ... .. 5 ... : ... .. . ... ... : ... .. . ... ... : B-3 01 6 ... ... : D#3 01 A ... ...
ROW 41 : ... .. . ... ... ... : ... .. . ... ... ... : ... .. . ... : ... .. . ... : ... .. . ... ... : ... .. . ... ... : ... .. . ... ... : ... .. 8 ... ...
ROW 42 : ... .. . ... ... ... : ... .. . ... ... ... : ... .. . ... : ... .. . ... : ... .. . ... ... : ... .. . ... ... : ... .. 5 ... ... : ... .. 5 ... ...
ROW 43 : ... .. . ... ... ... : ... .. . ... ... ... : ... .. . ... : ... .. . ... : ... .. . ... ... : ... .. . ... ... : ... .. 4 ... ... : ... .. . ... ...
ROW 44 : ... .. . ... ... ... : ... .. . ... ... ... : ... .. . ... : ... .. . ... : ... .. . ... ... : ... .. . ... ... : ... .. . ... ... : ... .. . ... ...
ROW 45 : ... .. . ... ... ... : ... .. . ... ... ... : ... .. . ... : ... .. . ... : ... .. . ... ... : ... .. . ... ... : ... .. . ... ... : ... .. . ... ...
ROW 46 : ... .. . ... ... ... : ... .. . ... ... ... : ... .. . ... : ... .. 4 ... : ... .. . ... ... : ... .. . ... ... : ... .. . ... ... : F-3 01 A ... ...
ROW 47 : ... .. . ... ... ... : ... .. . ... ... ... : ... .. . ... : ... .. . ... : ... .. . ... ... : ... .. . ... ... : ... .. 3 ... ... : ... .. 8 ... ...
ROW 48 : ... .. . ... ... ... : ... .. . ... ... ... : ... .. . ... : ... .. . ... : ... .. . ... ... : ... .. . ... ... : ... .. . ... ... : ... .. 5 ... ...
ROW 49 : ... .. . ... ... ... : ... .. . ... ... ... : ... .. . ... : ... .. 3 ... : ... .. . ... ... : ... .. . ... ... : ... .. . ... ... : ... .. . ... ...
ROW 4A : ... .. . ... ... ... : ... .. . ... ... ... : ... .. . ... : ... .. . ... : ... .. . ... ... : ... .. . ... ... : ... .. . ... ... : ... .. . ... ...
ROW 4B : ... .. . ... ... ... : ... .. . ... ... ... : ... .. . ... : ... .. . ... : ... .. . ... ... : ... .. . ... ... : ... .. . ... ... : ... .. . ... ...
ROW 4C : ... .. . ... ... ... : ... .. . ... ... ... : ... .. . ... : ... .. . ... : ... .. . ... ... : ... .. . ... ... : ... .. . ... ... : F#3 01 A ... ...
ROW 4D : ... .. . ... ... ... : ... .. . ... ... ... : ... .. . ... : ... .. . ... : ... .. . ... ... : ... .. . ... ... : ... .. . ... ... : ... .. 8 ... ...
ROW 4E : ... .. . ... ... ... : ... .. . ... ... ... : ... .. . ... : ... .. . ... : ... .. . ... ... : ... .. . ... ... : ... .. . ... ... : ... .. 5 ... ...
ROW 4F : ... .. . ... ... ... : ... .. . ... ... ... : ... .. . ... : ... .. 2 ... : ... .. . ... ... : ... .. . ... ... : ... .. . ... ... : ... .. . ... ...
ROW 50 : ... .. . ... ... ... : ... .. . ... ... ... : ... .. . ... : ... .. . ... : ... .. . ... ... : ... .. . ... ... : ... .. . ... ... : ... .. . ... ...
ROW 51 : ... .. . ... ... ... : ... .. . ... ... ... : ... .. . ... : ... .. . ... : ... .. . ... ... : ... .. . ... ... : ... .. . ... ... : ... .. . ... ...
ROW 52 : ... .. . ... ... ... : ... .. . ... ... ... : ... .. . ... : ... .. . ... : ... .. . ... ... : ... .. . ... ... : ... .. . ... ... : A#3 01 A ... ...
ROW 53 : ... .. . ... ... ... : ... .. . ... ... ... : ... .. . ... : ... .. . ... : ... .. . ... ... : ... .. . ... ... : ... .. . ... ... : ... .. 8 ... ...
ROW 54 : ... .. . ... ... ... : ... .. . ... ... ... : ... .. . ... : ... .. . ... : ... .. . ... ... : ... .. . ... ... : ... .. . ... ... : ... .. 5 ... ...
ROW 55 : ... .. . ... ... ... : ... .. . ... ... ... : ... .. . ... : ... .. 1 ... : ... .. . ... ... : ... .. . ... ... : ... .. . ... ... : ... .. . ... ...
ROW 56 : ... .. . ... ... ... : ... .. . ... ... ... : ... .. . ... : ... .. . ... : ... .. . ... ... : ... .. . ... ... : ... .. . ... ... : ... .. . ... ...
ROW 57 : ... .. . ... ... ... : ... .. . ... ... ... : ... .. . ... : ... .. . ... : ... .. . ... ... : ... .. . ... ... : ... .. . ... ... : ... .. . ... ...
ROW 58 : ... .. . ... ... ... : ... .. . ... ... ... : ... .. . ... : ... .. . ... : ... .. . ... ... : ... .. . ... ... : D-4 01 6 ... ... : B-3 01 A ... ...
ROW 59 : ... .. . ... ... ... : ... .. . ... ... ... : ... .. . ... : ... .. . ... : ... .. . ... ... : ... .. . ... ... : ... .. . ... ... : ... .. 8 ... ...
ROW 5A : ... .. . ... ... ... : ... .. . ... ... ... : ... .. . ... : ... .. . ... : ... .. . ... ... : ... .. . ... ... : ... .. 5 ... ... : ... .. 5 ... ...
ROW 5B : ... .. . ... ... ... : ... .. . ... ... ... : ... .. . ... : ... .. . ... : ... .. . ... ... : ... .. . ... ... : ... .. 4 ... ... : ... .. . ... ...
ROW 5C : ... .. . ... ... ... : ... .. . ... ... ... : ... .. . ... : ... .. . ... : ... .. . ... ... : ... .. . ... ... : ... .. . ... ... : ... .. . ... ...
ROW 5D : ... .. . ... ... ... : ... .. . ... ... ... : ... .. . ... : ... .. . ... : ... .. . ... ... : ... .. . ... ... : ... .. . ... ... : ... .. . ... ...
ROW 5E : ... .. . ... ... ... : ... .. . ... ... ... : ... .. . ... : ... .. . ... : ... .. . ... ... : ... .. . ... ... : ... .. . ... ... : D-4 01 A ... ...
ROW 5F : ... .. . ... ... ... : ... .. . ... ... ... : ... .. . ... : ... .. . ... : ... .. . ... ... : ... .. . ... ... : ... .. 3 ... ... : ... .. 8 ... ...
ROW 60 : ... .. . ... ... ... : ... .. . ... ... ... : ... .. . ... : ... .. . ... : ... .. . ... ... : ... .. . ... ... : ... .. . ... ... : ... .. 5 ... ...
ROW 61 : ... .. . ... ... ... : ... .. . ... ... ... : ... .. . ... : ... .. . ... : ... .. . ... ... : ... .. . ... ... : ... .. . ... ... : ... .. . ... ...
ROW 62 : ... .. . ... ... ... : ... .. . ... ... ... : ... .. . ... : ... .. . ... : ... .. . ... ... : ... .. . ... ... : ... .. . ... ... : ... .. . ... ...
ROW 63 : ... .. . ... ... ... : ... .. . ... ... ... : ... .. . ... : ... .. . ... : ... .. . ... ... : ... .. . ... ... : ... .. . ... ... : ... .. . ... ...
ROW 64 : ... .. . ... ... ... : ... .. . ... ... ... : ... .. . ... : ... .. . ... : ... .. . ... ... : ... .. . ... ... : ... .. . ... ... : D#4 01 A ... ...
ROW 65 : ... .. . ... ... ... : ... .. . ... ... ... : ... .. . ... : ... .. . ... : ... .. . ... ... : ... .. . ... ... : ... .. . ... ... : ... .. 8 ... ...
ROW 66 : ... .. . ... ... ... : ... .. . ... ... ... : ... .. . ... : ... .. . ... : ... .. . ... ... : ... .. . ... ... : ... .. . ... ... : ... .. 5 ... ...
ROW 67 : ... .. . ... ... ... : ... .. . ... ... ... : ... .. . ... : ... .. . ... : ... .. . ... ... : ... .. . ... ... : ... .. . ... ... : ... .. . ... ...
ROW 68 : ... .. . ... ... ... : ... .. . ... ... ... : ... .. . ... : ... .. . ... : ... .. . ... ... : ... .. . ... ... : ... .. . ... ... : ... .. . ... ...
ROW 69 : ... .. . ... ... ... : ... .. . ... ... ... : ... .. . ... : ... .. . ... : ... .. . ... ... : ... .. . ... ... : ... .. . ... ... : ... .. . ... ...
ROW 6A : ... .. . ... ... ... : ... .. . ... ... ... : ... .. . ... : ... .. . ... : ... .. . ... ... : ... .. . ... ... : ... .. . ... ... : F-4 01 A ... ...
ROW 6B : ... .. . ... ... ... : ... .. . ... ... ... : ... .. . ... : ... .. . ... : ... .. . ... ... : ... .. . ... ... : ... .. . ... ... : ... .. 8 ... ...
ROW 6C : ... .. . ... ... ... : ... .. . ... ... ... : ... .. . ... : ... .. . ... : ... .. . ... ... : ... .. . ... ... : ... .. . ... ... : ... .. 5 ... ...
ROW 6D : ... .. . ... ... ... : ... .. . ... ... ... : ... .. . ... : ... .. . ... : ... .. . ... ... : ... .. . ... ... : ... .. . ... ... : ... .. . ... ...
ROW 6E : ... .. . ... ... ... : ... .. . ... ... ... : ... .. . ... : ... .. . ... : ... .. . ... ... : ... .. . ... ... : ... .. . ... ... : ... .. . ... ...
ROW 6F : ... .. . ... ... ... : ... .. . ... ... ... : ... .. . ... : ... .. . ... : ... .. . ... ... : ... .. . ... ... : ... .. . ... ... : ... .. . ... ...
ROW 70 : G-3 00 A ... ... ... : G-4 00 A ... ... ... : D-5 00 . ... : 9-# 00 F ... : ... .. . ... ... : E-4 01 6 ... ... : C-4 01 6 ... ... : A#4 01 A ... ...
ROW 71 : ... .. 9 ... ... ... : ... .. 9 ... ... ... : E-4 00 . ... : ... .. C ... : ... .. . ... ... : ... .. . ... ... : ... .. . ... ... : ... .. 8 ... ...
ROW 72 : ... .. 8 ... ... ... : ... .. 8 ... ... ... : A-3 00 . ... : ... .. 6 ... : ... .. . ... ... : ... .. 5 ... ... : ... .. 5 ... ... : ... .. 5 ... ...
ROW 73 : ... .. 6 ... ... ... : ... .. 6 ... ... ... : G#3 00 . ... : ... .. 3 ... : ... .. . ... ... : ... .. 4 ... ... : ... .. 4 ... ... : ... .. . ... ...
ROW 74 : ... .. . ... ... ... : ... .. . ... ... ... : D#3 00 . ... : ... .. 2 ... : ... .. . ... ... : ... .. . ... ... : ... .. . ... ... : ... .. . ... ...
ROW 75 : ... .. . ... ... ... : ... .. . ... ... ... : ... .. . ... : ... .. 0 ... : ... .. . ... ... : ... .. . ... ... : ... .. . ... ... : ... .. . ... ...
ROW 76 : ... .. . ... ... ... : ... .. . ... ... ... : ... .. . ... : ... .. . ... : ... .. . ... ... : ... .. 3 ... ... : ... .. 3 ... ... : ... .. . ... ...
ROW 77 : ... .. 1 ... ... ... : ... .. 1 ... ... ... : ... .. . ... : ... .. . ... : ... .. . ... ... : ... .. . ... ... : ... .. . ... ... : ... .. 2 ... ...
ROW 78 : ... .. . ... ... ... : ... .. . ... ... ... : ... .. . ... : ... .. . ... : ... .. . ... ... : ... .. 2 ... ... : ... .. 2 ... ... : ... .. . ... ...
ROW 79 : ... .. . ... ... ... : ... .. . ... ... ... : ... .. . ... : ... .. . ... : ... .. . ... ... : ... .. . ... ... : ... .. . ... ... : ... .. 1 ... ...
ROW 7A : ... .. . ... ... ... : ... .. . ... ... ... : ... .. . ... : ... .. . ... : ... .. . ... ... : ... .. . ... ... : ... .. . ... ... : ... .. . ... ...
ROW 7B : ... .. . ... ... ... : ... .. . ... ... ... : ... .. . ... : ... .. . ... : ... .. . ... ... : ... .. . ... ... : ... .. . ... ... : ... .. . ... ...
ROW 7C : ... .. 8 ... ... ... : ... .. 8 ... ... ... : --- .. . ... : ... .. 8 ... : ... .. . ... ... : ... .. 5 ... ... : ... .. 5 ... ... : ... .. 8 ... ...
ROW 7D : ... .. 5 ... ... ... : ... .. 5 ... ... ... : ... .. . ... : ... .. 6 ... : ... .. . ... ... : ... .. 3 ... ... : ... .. 3 ... ... : ... .. 5 ... ...
ROW 7E : ... .. 3 ... ... ... : ... .. 3 ... ... ... : ... .. . ... : ... .. 3 ... : ... .. . ... ... : ... .. 2 ... ... : ... .. 2 ... ... : ... .. 2 ... ...
ROW 7F : ... .. 1 ... ... ... : ... .. 1 ... ... ... : ... .. . ... : ... .. 4 ... : ... .. . ... ... : ... .. 1 ... ... : ... .. 1 ... ... : ... .. 1 ... ...
ROW 80 : ... .. 8 ... ... ... : ... .. 8 ... ... ... : ... .. . ... : ... .. 3 ... : ... .. . ... ... : ... .. 5 ... ... : ... .. 5 ... ... : ... .. 8 ... ...
ROW 81 : ... .. 5 ... ... ... : ... .. 5 ... ... ... : ... .. . ... : ... .. 1 ... : ... .. . ... ... : ... .. 3 ... ... : ... .. 3 ... ... : ... .. 5 ... ...
ROW 82 : ... .. 3 ... ... ... : ... .. 3 ... ... ... : ... .. . ... : ... .. 8 ... : ... .. . ... ... : ... .. 2 ... ... : ... .. 2 ... ... : ... .. 2 ... ...
ROW 83 : ... .. 1 ... ... ... : ... .. 1 ... ... ... : ... .. . ... : ... .. 6 ... : ... .. . ... ... : ... .. 1 ... ... : ... .. 1 ... ... : ... .. 1 ... ...
ROW 84 : ... .. 8 ... ... ... : ... .. 8 ... ... ... : ... .. . ... : ... .. 3 ... : ... .. . ... ... : ... .. 5 ... ... : ... .. 5 ... ... : ... .. 8 ... ...
ROW 85 : ... .. 5 ... ... ... : ... .. 5 ... ... ... : ... .. . ... : ... .. 1 ... : ... .. . ... ... : ... .. 3 ... ... : ... .. 3 ... ... : ... .. 5 ... ...
ROW 86 : ... .. 3 ... ... ... : ... .. 3 ... ... ... : ... .. . ... : ... .. . ... : ... .. . ... ... : ... .. 2 ... ... : ... .. 2 ... ... : ... .. 2 ... ...
ROW 87 : ... .. 1 ... ... ... : ... .. 1 ... ... ... : ... .. . ... : ... .. 0 ... : ... .. . ... ... : ... .. 1 ... ... : ... .. 1 ... ... : ... .. 1 ... ...
ROW 88 : ... .. A ... ... ... : ... .. A ... ... ... : D-5 00 . ... : ... .. F ... : ... .. . ... ... : ... .. 6 ... ... : ... .. 6 ... ... : ... .. A ... ...
ROW 89 : ... .. 9 ... ... ... : ... .. 9 ... ... ... : E-4 00 . ... : ... .. C ... : ... .. . ... ... : ... .. . ... ... : ... .. . ... ... : ... .. 8 ... ...
ROW 8A : ... .. 8 ... ... ... : ... .. 8 ... ... ... : A-3 00 . ... : ... .. 6 ... : ... .. . ... ... : ... .. 5 ... ... : ... .. 5 ... ... : ... .. 5 ... ...
ROW 8B : ... .. 6 ... ... ... : ... .. 6 ... ... ... : G#3 00 . ... : ... .. 3 ... : ... .. . ... ... : ... .. 4 ... ... : ... .. 4 ... ... : ... .. . ... ...
ROW 8C : ... .. . ... ... ... : ... .. . ... ... ... : D#3 00 . ... : ... .. 2 ... : ... .. . ... ... : ... .. . ... ... : ... .. . ... ... : ... .. . ... ...
ROW 8D : ... .. . ... ... ... : ... .. . ... ... ... : ... .. . ... : ... .. 0 ... : ... .. . ... ... : ... .. . ... ... : ... .. . ... ... : ... .. . ... ...
ROW 8E : ... .. . ... ... ... : ... .. . ... ... ... : ... .. . ... : ... .. . ... : ... .. . ... ... : ... .. . ... ... : ... .. . ... ... : ... .. . ... ...
ROW 8F : ... .. . ... ... ... : ... .. . ... ... ... : ... .. . ... : ... .. . ... : ... .. . ... ... : ... .. 3 ... ... : ... .. 3 ... ... : ... .. . ... ...
ROW 90 : ... .. . ... ... ... : ... .. . ... ... ... : ... .. . ... : ... .. . ... : ... .. . ... ... : ... .. . ... ... : ... .. . ... ... : ... .. . ... ...
ROW 91 : ... .. . ... ... ... : ... .. . ... ... ... : ... .. . ... : ... .. . ... : ... .. . ... ... : ... .. . ... ... : ... .. . ... ... : ... .. . ... ...
ROW 92 : ... .. 1 ... ... ... : ... .. 1 ... ... ... : ... .. . ... : ... .. . ... : ... .. . ... ... : ... .. . ... ... : ... .. . ... ... : ... .. 2 ... ...
ROW 93 : ... .. . ... ... ... : ... .. . ... ... ... : ... .. . ... : ... .. . ... : ... .. . ... ... : ... .. 2 ... ... : ... .. 2 ... ... : ... .. . ... ...
ROW 94 : ... .. 8 ... ... ... : ... .. 8 ... ... ... : --- .. . ... : ... .. 8 ... : ... .. . ... ... : ... .. 5 ... ... : ... .. 5 ... ... : ... .. 8 ... ...
ROW 95 : ... .. 5 ... ... ... : ... .. 5 ... ... ... : ... .. . ... : ... .. 6 ... : ... .. . ... ... : ... .. 3 ... ... : ... .. 3 ... ... : ... .. 5 ... ...
ROW 96 : ... .. 3 ... ... ... : ... .. 3 ... ... ... : ... .. . ... : ... .. 3 ... : ... .. . ... ... : ... .. 2 ... ... : ... .. 2 ... ... : ... .. 2 ... ...
ROW 97 : ... .. 1 ... ... ... : ... .. 1 ... ... ... : ... .. . ... : ... .. 4 ... : ... .. . ... ... : ... .. 1 ... ... : ... .. 1 ... ... : ... .. 1 ... ...
ROW 98 : ... .. 8 ... ... ... : ... .. 8 ... ... ... : ... .. . ... : ... .. 3 ... : ... .. . ... ... : ... .. 5 ... ... : ... .. 5 ... ... : ... .. 8 ... ...
ROW 99 : ... .. 5 ... ... ... : ... .. 5 ... ... ... : ... .. . ... : ... .. 1 ... : ... .. . ... ... : ... .. 3 ... ... : ... .. 3 ... ... : ... .. 5 ... ...
ROW 9A : ... .. 3 ... ... ... : ... .. 3 ... ... ... : ... .. . ... : ... .. 8 ... : ... .. . ... ... : ... .. 2 ... ... : ... .. 2 ... ... : ... .. 2 ... ...
ROW 9B : ... .. 1 ... ... ... : ... .. 1 ... ... ... : ... .. . ... : ... .. 6 ... : ... .. . ... ... : ... .. 1 ... ... : ... .. 1 ... ... : ... .. 1 ... ...
ROW 9C : ... .. 8 ... ... ... : ... .. 8 ... ... ... : ... .. . ... : ... .. 3 ... : ... .. . ... ... : ... .. 5 ... ... : ... .. 5 ... ... : ... .. 8 ... ...
ROW 9D : ... .. 5 ... ... ... : ... .. 5 ... ... ... : ... .. . ... : ... .. 1 ... : ... .. . ... ... : ... .. 3 ... ... : ... .. 3 ... ... : ... .. 5 ... ...
ROW 9E : ... .. 3 ... ... ... : ... .. 3 ... ... ... : ... .. . ... : ... .. . ... : ... .. . ... ... : ... .. 2 ... ... : ... .. 2 ... ... : ... .. 2 ... ...
ROW 9F : ... .. 1 ... ... ... : ... .. 1 ... ... ... : ... .. . ... : ... .. 0 ... : ... .. . ... ... : ... .. 1 ... ... : ... .. 1 ... ... : ... .. 1 ... ...
ROW A0 : ... .. A ... ... ... : ... .. A ... ... ... : D-5 00 . ... : ... .. F ... : ... .. . ... ... : ... .. 6 ... ... : ... .. 6 ... ... : ... .. A ... ...
ROW A1 : ... .. 9 ... ... ... : ... .. 9 ... ... ... : E-4 00 . ... : ... .. C ... : ... .. . ... ... : ... .. . ... ... : ... .. . ... ... : ... .. 8 ... ...
ROW A2 : ... .. 8 ... ... ... : ... .. 8 ... ... ... : A-3 00 . ... : ... .. 6 ... : ... .. . ... ... : ... .. 5 ... ... : ... .. 5 ... ... : ... .. 5 ... ...
ROW A3 : ... .. 6 ... ... ... : ... .. 6 ... ... ... : G#3 00 . ... : ... .. 3 ... : ... .. . ... ... : ... .. 4 ... ... : ... .. 4 ... ... : ... .. . ... ...
ROW A4 : ... .. . ... ... ... : ... .. . ... ... ... : D#3 00 . ... : ... .. 2 ... : ... .. . ... ... : ... .. . ... ... : ... .. . ... ... : ... .. . ... ...
ROW A5 : ... .. . ... ... ... : ... .. . ... ... ... : ... .. . ... : ... .. 0 ... : ... .. . ... ... : ... .. . ... ... : ... .. . ... ... : ... .. . ... ...
ROW A6 : ... .. . ... ... ... : ... .. . ... ... ... : ... .. . ... : ... .. . ... : ... .. . ... ... : ... .. . ... ... : ... .. . ... ... : ... .. . ... ...
ROW A7 : ... .. . ... ... ... : ... .. . ... ... ... : ... .. . ... : ... .. . ... : ... .. . ... ... : ... .. 3 ... ... : ... .. 3 ... ... : ... .. . ... ...
ROW A8 : ... .. A ... ... ... : ... .. A ... ... ... : D-5 00 . ... : ... .. C ... : ... .. . ... ... : ... .. 6 ... ... : ... .. 6 ... ... : ... .. A ... ...
ROW A9 : ... .. 9 ... ... ... : ... .. 9 ... ... ... : E-4 00 . ... : ... .. 9 ... : ... .. . ... ... : ... .. . ... ... : ... .. . ... ... : ... .. 8 ... ...
ROW AA : ... .. 8 ... ... ... : ... .. 8 ... ... ... : A-3 00 . ... : ... .. 4 ... : ... .. . ... ... : ... .. 5 ... ... : ... .. 5 ... ... : ... .. 5 ... ...
ROW AB : ... .. 6 ... ... ... : ... .. 6 ... ... ... : G#3 00 . ... : ... .. 2 ... : ... .. . ... ... : ... .. 4 ... ... : ... .. 4 ... ... : ... .. . ... ...
ROW AC : ... .. . ... ... ... : ... .. . ... ... ... : D#3 00 . ... : ... .. 1 ... : ... .. . ... ... : ... .. 3 ... ... : ... .. 3 ... ... : ... .. . ... ...
ROW AD : ... .. 1 ... ... ... : ... .. 1 ... ... ... : ... .. . ... : ... .. 0 ... : ... .. . ... ... : ... .. . ... ... : ... .. . ... ... : ... .. 2 ... ...
ROW AE : ... .. . ... ... ... : ... .. . ... ... ... : ... .. . ... : ... .. . ... : ... .. . ... ... : ... .. 2 ... ... : ... .. 2 ... ... : ... .. . ... ...
ROW AF : ... .. . ... ... ... : ... .. . ... ... ... : ... .. . ... : ... .. . ... : ... .. . ... ... : ... .. . ... ... : ... .. . ... ... : ... .. 1 ... ...
ROW B0 : ... .. A ... ... ... : ... .. A ... ... ... : D-5 00 . ... : ... .. F ... : ... .. . ... ... : ... .. 6 ... ... : ... .. 6 ... ... : ... .. A ... ...
ROW B1 : ... .. 9 ... ... ... : ... .. 9 ... ... ... : E-4 00 . ... : ... .. C ... : ... .. . ... ... : ... .. . ... ... : ... .. . ... ... : ... .. 8 ... ...
ROW B2 : ... .. 8 ... ... ... : ... .. 8 ... ... ... : A-3 00 . ... : ... .. 6 ... : ... .. . ... ... : ... .. 5 ... ... : ... .. 5 ... ... : ... .. 5 ... ...
ROW B3 : ... .. 6 ... ... ... : ... .. 6 ... ... ... : G#3 00 . ... : ... .. 3 ... : ... .. . ... ... : ... .. 4 ... ... : ... .. 4 ... ... : ... .. . ... ...
ROW B4 : ... .. . ... ... ... : ... .. . ... ... ... : D#3 00 . ... : ... .. 2 ... : ... .. . ... ... : ... .. . ... ... : ... .. . ... ... : ... .. . ... ...
ROW B5 : ... .. . ... ... ... : ... .. . ... ... ... : ... .. . ... : ... .. 0 ... : ... .. . ... ... : ... .. . ... ... : ... .. . ... ... : ... .. . ... ...
ROW B6 : ... .. . ... ... ... : ... .. . ... ... ... : ... .. . ... : ... .. . ... : ... .. . ... ... : ... .. . ... ... : ... .. . ... ... : ... .. . ... ...
ROW B7 : ... .. . ... ... ... : ... .. . ... ... ... : ... .. . ... : ... .. . ... : ... .. . ... ... : ... .. 3 ... ... : ... .. 3 ... ... : ... .. . ... ...
ROW B8 : ... .. 2 ... ... ... : ... .. 2 ... ... ... : D-3 00 . ... : ... .. F ... : ... .. . ... ... : ... .. 1 ... ... : ... .. 1 ... ... : F#1 01 F ... ...
ROW B9 : ... .. 1 ... ... ... : ... .. 1 ... ... ... : E-2 00 . ... : ... .. C ... : ... .. . ... ... : ... .. . ... ... : ... .. . ... ... : ... .. D ... ...
ROW BA : ... .. . ... ... ... : ... .. . ... ... ... : A-1 00 . ... : ... .. 6 ... : ... .. . ... ... : ... .. . ... ... : ... .. . ... ... : ... .. 8 ... ...
ROW BB : A#4 00 2 ... ... ... : ... .. . ... ... ... : G#1 00 . ... : ... .. 3 ... : ... .. . ... ... : ... .. . ... ... : ... .. . ... ... : ... .. . ... ...
ROW BC : ... .. 1 ... ... ... : ... .. . ... ... ... : D#1 00 . ... : ... .. 2 ... : ... .. . ... ... : ... .. . ... ... : ... .. . ... ... : ... .. 4 ... ...
ROW BD : ... .. . ... ... ... : ... .. . ... ... ... : ... .. . ... : ... .. 0 ... : ... .. . ... ... : ... .. . ... ... : ... .. . ... ... : ... .. . ... ...
ROW BE : C-5 00 4 ... ... ... : ... .. . ... ... ... : ... .. . ... : ... .. . ... : ... .. . ... ... : ... .. . ... ... : ... .. . ... ... : ... .. 1 ... ...
ROW BF : ... .. 3 ... ... ... : ... .. 0 ... ... ... : ... .. . ... : ... .. . ... : ... .. . ... ... : ... .. . ... ... : ... .. . ... ... : ... .. . ... ...
ROW C0 : ... .. . ... ... ... : ... .. . ... ... ... : D-3 00 . ... : ... .. C ... : ... .. . ... ... : ... .. . ... ... : ... .. . ... ... : ... .. F ... ...
ROW C1 : D-5 00 6 ... ... ... : ... .. . ... ... ... : E-2 00 . ... : ... .. 9 ... : ... .. . ... ... : ... .. . ... ... : ... .. . ... ... : ... .. D ... ...
ROW C2 : ... .. 5 ... ... ... : ... .. . ... ... ... : A-1 00 . ... : ... .. 4 ... : ... .. . ... ... : ... .. . ... ... : ... .. . ... ... : ... .. 8 ... ...
ROW C3 : ... .. . ... ... ... : ... .. . ... ... ... : G#1 00 . ... : ... .. 2 ... : ... .. . ... ... : ... .. . ... ... : ... .. . ... ... : ... .. . ... ...
ROW C4 : E-5 00 8 ... ... ... : ... .. . ... ... ... : D#1 00 . ... : ... .. 1 ... : ... .. . ... ... : ... .. . ... ... : ... .. . ... ... : ... .. . ... ...
ROW C5 : ... .. 7 ... ... ... : ... .. . ... ... ... : ... .. . ... : ... .. 0 ... : ... .. . ... ... : ... .. . ... ... : ... .. . ... ... : ... .. 4 ... ...
ROW C6 : ... .. 6 ... ... ... : ... .. . ... ... ... : ... .. . ... : ... .. . ... : ... .. . ... ... : ... .. . ... ... : ... .. . ... ... : ... .. . ... ...
ROW C7 : F#5 00 A ... ... ... : ... .. . ... ... ... : ... .. . ... : ... .. . ... : ... .. . ... ... : ... .. . ... ... : ... .. . ... ... : ... .. 1 ... ...
ROW C8 : ... .. 9 ... ... ... : ... .. . ... ... ... : D-3 00 . ... : ... .. F ... : ... .. . ... ... : ... .. . ... ... : ... .. . ... ... : ... .. F ... ...
ROW C9 : ... .. 8 ... ... ... : ... .. . ... ... ... : E-2 00 . ... : ... .. C ... : ... .. . ... ... : ... .. . ... ... : ... .. . ... ... : ... .. D ... ...
ROW CA : G-5 00 C ... ... ... : ... .. . ... ... ... : A-1 00 . ... : ... .. 6 ... : ... .. . ... ... : ... .. . ... ... : ... .. . ... ... : ... .. 8 ... ...
ROW CB : ... .. B ... ... ... : ... .. . ... ... ... : G#1 00 . ... : ... .. 3 ... : ... .. . ... ... : ... .. . ... ... : ... .. . ... ... : ... .. . ... ...
ROW CC : ... .. A ... ... ... : ... .. . ... ... ... : D#1 00 . ... : ... .. 2 ... : ... .. . ... ... : ... .. . ... ... : ... .. . ... ... : ... .. . ... ...
ROW CD : A-5 00 E ... ... ... : ... .. . ... ... ... : ... .. . ... : ... .. 0 ... : ... .. . ... ... : ... .. . ... ... : ... .. . ... ... : ... .. . ... ...
ROW CE : ... .. D ... ... ... : ... .. . ... ... ... : ... .. . ... : ... .. . ... : ... .. . ... ... : ... .. . ... ... : ... .. . ... ... : ... .. 4 ... ...
ROW CF : ... .. C ... ... ... : ... .. . ... ... ... : ... .. . ... : ... .. . ... : ... .. . ... ... : ... .. . ... ... : ... .. . ... ... : ... .. . ... ...
ROW D0 : B-5 00 E ... ... ... : F#2 00 8 P80 ... ... : A#4 00 . ... : ... .. F ... : ... .. . ... ... : D-3 01 5 ... ... : F#2 01 A ... ... : D-3 01 A ... ...
ROW D1 : ... .. D ... ... ... : ... .. B ... ... ... : C-4 00 . ... : ... .. C ... : ... .. . ... ... : ... .. 4 ... ... : ... .. 9 ... ... : ... .. 8 ... ...
ROW D2 : ... .. C ... ... ... : ... .. 8 ... ... ... : F-3 00 . ... : ... .. 6 ... : ... .. . ... ... : ... .. . ... ... : ... .. 8 ... ... : ... .. 5 ... ...
ROW D3 : ... .. 6 ... ... ... : ... .. 0 ... ... ... : E-3 00 . ... : ... .. 3 ... : ... .. . ... ... : E-3 01 5 ... ... : ... .. 7 ... ... : ... .. . ... ...
ROW D4 : ... .. . ... ... ... : F#2 00 5 P80 ... ... : B-2 00 . ... : ... .. 2 ... : ... .. . ... ... : ... .. 4 ... ... : ... .. . ... ... : ... .. . ... ...
ROW D5 : ... .. . ... ... ... : ... .. 8 ... ... ... : ... .. . ... : ... .. 0 ... : ... .. . ... ... : ... .. . ... ... : ... .. 6 ... ... : ... .. . ... ...
ROW D6 : ... .. 4 ... ... ... : G-2 00 8 ... ... ... : ... .. . ... : 2-# 00 F ... : ... .. . ... ... : F#3 01 5 ... ... : ... .. . ... ... : ... .. . ... ...
ROW D7 : ... .. . ... ... ... : ... .. B ... ... ... : ... .. . ... : ... .. C ... : ... .. . ... ... : ... .. 4 ... ... : ... .. 5 ... ... : ... .. . ... ...
ROW D8 : ... .. . ... ... ... : ... .. 8 ... ... ... : ... .. . ... : ... .. 6 ... : ... .. . ... ... : ... .. . ... ... : ... .. . ... ... : ... .. . ... ...
ROW D9 : ... .. 2 ... ... ... : ... .. 0 ... ... ... : ... .. . ... : ... .. 3 ... : ... .. . ... ... : G-3 01 5 ... ... : ... .. . ... ... : ... .. . ... ...
ROW DA : ... .. . ... ... ... : G-2 00 5 P80 ... ... : ... .. . ... : ... .. 2 ... : ... .. . ... ... : ... .. 4 ... ... : ... .. . ... ... : ... .. . ... ...
ROW DB : ... .. . ... ... ... : ... .. 8 ... ... ... : ... .. . ... : ... .. 0 ... : ... .. . ... ... : ... .. . ... ... : ... .. . ... ... : ... .. . ... ...
ROW DC : B-2 00 F ... ... ... : A-2 00 8 ... ... ... : A#2 00 . P7B : 1-# 00 F ... : ... .. . ... ... : A-3 01 5 ... ... : ... .. . ... ... : ... .. . ... ...
ROW DD : ... .. E ... ... ... : ... .. B ... ... ... : A-2 00 . P77 : ... .. C ... : ... .. . ... ... : ... .. 4 ... ... : ... .. . ... ... : ... .. . ... ...
ROW DE : ... .. D ... ... ... : ... .. 8 ... ... ... : G#2 00 . P76 : ... .. 6 ... : ... .. . ... ... : ... .. . ... ... : ... .. . ... ... : ... .. . ... ...
ROW DF : ... .. A ... ... ... : ... .. 0 ... ... ... : G-2 00 . ... : ... .. 3 ... : ... .. . ... ... : B-3 01 5 ... ... : ... .. . ... ... : ... .. . ... ...
ROW E0 : ... .. . ... ... ... : A-2 00 5 P80 ... ... : F#2 00 . P78 : ... .. 2 ... : ... .. . ... ... : ... .. 4 ... ... : ... .. . ... ... : ... .. . ... ...
ROW E1 : ... .. . ... ... ... : ... .. 8 ... ... ... : F-2 00 . P7C : ... .. 0 ... : ... .. . ... ... : ... .. . ... ... : ... .. . ... ... : ... .. . ... ...
ROW E2 : ... .. . ... ... ... : B-2 00 8 ... ... ... : E-2 00 . P82 : C-# 00 F ... : ... .. . ... ... : C#4 01 5 ... ... : ... .. . ... ... : ... .. . ... ...
ROW E3 : ... .. 2 ... ... ... : ... .. B ... ... ... : D#2 00 . P8A : ... .. C ... : ... .. . ... ... : ... .. 4 ... ... : ... .. . ... ... : ... .. . ... ...
ROW E4 : ... .. . ... ... ... : ... .. 8 ... ... ... : D-2 00 . P95 : ... .. 6 ... : ... .. . ... ... : ... .. . ... ... : ... .. . ... ... : ... .. . ... ...
ROW E5 : ... .. . ... ... ... : ... .. 0 ... ... ... : ... .. . P75 : ... .. 3 ... : ... .. . ... ... : D-4 01 5 ... ... : ... .. . ... ... : ... .. . ... ...
ROW E6 : ... .. 1 ... ... ... : B-2 00 5 P80 ... ... : C#2 00 . P82 : ... .. 2 ... : ... .. . ... ... : ... .. 4 ... ... : ... .. . ... ... : ... .. . ... ...
ROW E7 : ... .. . ... ... ... : ... .. 8 ... ... ... : C-2 00 . P92 : ... .. 0 ... : ... .. . ... ... : ... .. . ... ... : ... .. . ... ... : ... .. . ... ...
ROW E8 : F#3 00 F ... ... ... : F#2 00 8 ... ... ... : A#3 00 . P80 : 7-# 00 F ... : ... .. . ... ... : E-4 01 5 ... ... : ... .. . ... ... : ... .. . ... ...
ROW E9 : ... .. E ... ... ... : ... .. B ... ... ... : C-3 00 . ... : ... .. C ... : ... .. . ... ... : ... .. 4 ... ... : ... .. . ... ... : ... .. . ... ...
ROW EA : ... .. D ... ... ... : ... .. 8 ... ... ... : F-2 00 . ... : ... .. 6 ... : ... .. . ... ... : ... .. . ... ... : ... .. . ... ... : ... .. . ... ...
ROW EB : ... .. A ... ... ... : ... .. 0 ... ... ... : E-2 00 . ... : ... .. 3 ... : ... .. . ... ... : F#4 01 5 ... ... : ... .. . ... ... : ... .. . ... ...
ROW EC : ... .. . ... ... ... : F#2 00 5 P80 ... ... : B-1 00 . ... : ... .. 2 ... : ... .. . ... ... : ... .. 4 ... ... : ... .. . ... ... : ... .. . ... ...
ROW ED : ... .. . ... ... ... : ... .. 8 ... ... ... : ... .. . ... : ... .. 0 ... : ... .. . ... ... : ... .. . ... ... : ... .. . ... ... : ... .. . ... ...
ROW EE : ... .. . ... ... ... : G-2 00 8 ... ... ... : ... .. . ... : 1-# 00 F ... : ... .. . ... ... : G-4 01 5 ... ... : ... .. . ... ... : ... .. . ... ...
ROW EF : ... .. . ... ... ... : ... .. B ... ... ... : ... .. . ... : ... .. C ... : ... .. . ... ... : ... .. 4 ... ... : ... .. . ... ... : ... .. . ... ...
ROW F0 : ... .. . ... ... ... : ... .. 8 ... ... ... : ... .. . ... : ... .. 6 ... : ... .. . ... ... : ... .. . ... ... : ... .. . ... ... : ... .. . ... ...
ROW F1 : ... .. . ... ... ... : ... .. 0 ... ... ... : ... .. . ... : ... .. 3 ... : ... .. . ... ... : A-4 01 5 ... ... : ... .. . ... ... : ... .. . ... ...
ROW F2 : ... .. 2 ... ... ... : G-2 00 5 P80 ... ... : ... .. . ... : ... .. 2 ... : ... .. . ... ... : ... .. 4 ... ... : ... .. . ... ... : ... .. . ... ...
ROW F3 : ... .. . ... ... ... : ... .. 8 ... ... ... : ... .. . ... : ... .. 0 ... : ... .. . ... ... : ... .. . ... ... : ... .. . ... ... : ... .. . ... ...
ROW F4 : B-2 00 F ... ... ... : A-2 00 8 ... ... ... : ... .. . ... : C-# 00 F ... : ... .. . ... ... : B-4 01 5 ... ... : D-2 01 A ... ... : B-2 01 A ... ...
ROW F5 : ... .. E ... ... ... : ... .. B ... ... ... : ... .. . ... : ... .. C ... : ... .. . ... ... : ... .. 4 ... ... : ... .. 9 ... ... : ... .. 8 ... ...
ROW F6 : ... .. D ... ... ... : ... .. 8 ... ... ... : ... .. . ... : ... .. 6 ... : ... .. . ... ... : ... .. . ... ... : ... .. 8 ... ... : ... .. 5 ... ...
ROW F7 : ... .. A ... ... ... : ... .. 0 ... ... ... : ... .. . ... : ... .. 3 ... : ... .. . ... ... : C#5 01 5 ... ... : ... .. 7 ... ... : ... .. . ... ...
ROW F8 : ... .. . ... ... ... : A-2 00 5 P80 ... ... : ... .. . ... : ... .. 2 ... : ... .. . ... ... : ... .. 4 ... ... : ... .. . ... ... : ... .. . ... ...
ROW F9 : ... .. . ... ... ... : ... .. 8 ... ... ... : ... .. . ... : ... .. 0 ... : ... .. . ... ... : ... .. . ... ... : ... .. 6 ... ... : ... .. . ... ...
ROW FA : ... .. . ... ... ... : B-2 00 8 ... ... ... : ... .. . ... : 7-# 00 F ... : ... .. . ... ... : D-5 01 5 ... ... : --- .. . P84 ... : --- .. . P8B ...
ROW FB : ... .. . ... ... ... : ... .. B ... ... ... : ... .. . ... : ... .. C ... : ... .. . ... ... : ... .. 4 ... ... : ... .. . ... ... : ... .. . ... ...
ROW FC : ... .. . ... ... ... : ... .. 8 ... ... ... : ... .. . ... : ... .. 6 ... : ... .. . ... ... : ... .. . ... ... : ... .. . ... ... : ... .. . ... ...
ROW FD : ... .. . ... ... ... : ... .. 0 ... ... ... : ... .. . ... : ... .. 3 ... : ... .. . ... ... : E-5 01 5 ... ... : ... .. . ... ... : ... .. . ... ...
ROW FE : ... .. 2 ... ... ... : B-2 00 5 P80 ... ... : ... .. . ... : ... .. 2 ... : ... .. . ... ... : ... .. 4 ... ... : ... .. . ... ... : ... .. . ... ...
ROW FF : ... .. . ... ... ... : ... .. 8 ... ... ... : ... .. . ... : ... .. 0 ... : ... .. . ... ... : ... .. . ... ... : ... .. . ... ... : ... .. . ... ...

PATTERN 18
ROW 00 : F#3 00 F ... ... ... : F#2 00 8 ... ... ... : A#4 00 . ... : 1-# 00 F ... : ... .. . ... ... : F#5 01 5 ... ... : B-2 01 A P80 ... : F#3 01 A P80 ...
ROW 01 : ... .. E ... ... ... : ... .. B ... ... ... : C-4 00 . ... : ... .. C ... : ... .. . ... ... : ... .. 4 ... ... : ... .. 9 ... ... : ... .. 8 ... ...
ROW 02 : ... .. D ... ... ... : ... .. 8 ... ... ... : F-3 00 . ... : ... .. 6 ... : ... .. . ... ... : ... .. . ... ... : ... .. 8 ... ... : ... .. 5 ... ...
ROW 03 : ... .. A ... ... ... : ... .. 0 ... ... ... : E-3 00 . ... : ... .. 3 ... : ... .. . ... ... : E-5 01 5 ... ... : ... .. 7 ... ... : ... .. . ... ...
ROW 04 : ... .. . ... ... ... : F#2 00 5 P80 ... ... : B-2 00 . ... : ... .. 2 ... : ... .. . ... ... : ... .. 4 ... ... : ... .. . ... ... : ... .. . ... ...
ROW 05 : ... .. . ... ... ... : ... .. 8 ... ... ... : ... .. . ... : ... .. 0 ... : ... .. . ... ... : ... .. . ... ... : ... .. 6 ... ... : ... .. . ... ...
ROW 06 : ... .. . ... ... ... : G-2 00 8 ... ... ... : ... .. . ... : B-# 00 F ... : ... .. . ... ... : D-5 01 5 ... ... : ... .. . ... ... : ... .. . ... ...
ROW 07 : ... .. . ... ... ... : ... .. B ... ... ... : ... .. . ... : ... .. C ... : ... .. . ... ... : ... .. 4 ... ... : ... .. 5 ... ... : ... .. . ... ...
ROW 08 : ... .. . ... ... ... : ... .. 8 ... ... ... : ... .. . ... : ... .. 6 ... : ... .. . ... ... : ... .. . ... ... : ... .. . ... ... : ... .. . ... ...
ROW 09 : ... .. . ... ... ... : ... .. 0 ... ... ... : ... .. . ... : ... .. 3 ... : ... .. . ... ... : C#5 01 5 ... ... : ... .. . ... ... : ... .. . ... ...
ROW 0A : ... .. . ... ... ... : G-2 00 5 P80 ... ... : ... .. . ... : ... .. 2 ... : ... .. . ... ... : ... .. 4 ... ... : ... .. . ... ... : ... .. . ... ...
ROW 0B : ... .. . ... ... ... : ... .. 8 ... ... ... : ... .. . ... : ... .. 0 ... : ... .. . ... ... : ... .. . ... ... : ... .. . ... ... : ... .. . ... ...
ROW 0C : ... .. . ... ... ... : A-2 00 8 ... ... ... : A#2 00 . P7B : 7-# 00 F ... : ... .. . ... ... : B-4 01 5 ... ... : ... .. . ... ... : ... .. . ... ...
ROW 0D : ... .. . ... ... ... : ... .. B ... ... ... : A-2 00 . P77 : ... .. C ... : ... .. . ... ... : ... .. 4 ... ... : ... .. . ... ... : ... .. . ... ...
ROW 0E : ... .. . ... ... ... : ... .. 8 ... ... ... : G#2 00 . P76 : ... .. 6 ... : ... .. . ... ... : ... .. . ... ... : ... .. . ... ... : ... .. . ... ...
ROW 0F : ... .. . ... ... ... : ... .. 0 ... ... ... : G-2 00 . ... : ... .. 3 ... : ... .. . ... ... : A-4 01 5 ... ... : ... .. . ... ... : ... .. . ... ...
ROW 10 : ... .. . ... ... ... : A-2 00 5 P80 ... ... : F#2 00 . P78 : ... .. 2 ... : ... .. . ... ... : ... .. 4 ... ... : ... .. . ... ... : ... .. . ... ...
ROW 11 : ... .. . ... ... ... : ... .. 8 ... ... ... : F-2 00 . P7C : ... .. 0 ... : ... .. . ... ... : ... .. . ... ... : ... .. . ... ... : ... .. . ... ...
ROW 12 : ... .. . ... ... ... : B-2 00 8 ... ... ... : E-2 00 . P82 : 1-# 00 F ... : ... .. . ... ... : G-4 01 5 ... ... : ... .. . ... ... : ... .. . ... ...
ROW 13 : ... .. 2 ... ... ... : ... .. B ... ... ... : D#2 00 . P8A : ... .. C ... : ... .. . ... ... : ... .. 4 ... ... : ... .. . ... ... : ... .. . ... ...
ROW 14 : ... .. . ... ... ... : ... .. 8 ... ... ... : D-2 00 . P95 : ... .. 6 ... : ... .. . ... ... : ... .. . ... ... : ... .. . ... ... : ... .. . ... ...
ROW 15 : ... .. . ... ... ... : ... .. 0 ... ... ... : ... .. . P75 : ... .. 3 ... : ... .. . ... ... : F#4 01 5 ... ... : --- .. . P85 ... : --- .. . P82 ...
ROW 16 : ... .. 1 ... ... ... : B-2 00 5 P80 ... ... : C#2 00 . P82 : ... .. 2 ... : ... .. . ... ... : ... .. 4 ... ... : ... .. . ... ... : ... .. . ... ...
ROW 17 : ... .. . ... ... ... : ... .. 8 ... ... ... : C-2 00 . P92 : ... .. 0 ... : ... .. . ... ... : ... .. . ... ... : ... .. . ... ... : ... .. . ... ...
ROW 18 : B-2 00 F ... ... ... : F#2 00 8 ... ... ... : A#3 00 . P80 : 9-# 00 F ... : ... .. . ... ... : E-4 01 5 ... ... : D-3 01 6 P80 ... : D-3 01 A P80 ...
ROW 19 : ... .. E ... ... ... : ... .. B ... ... ... : C-3 00 . ... : ... .. C ... : ... .. . ... ... : ... .. 4 ... ... : ... .. . ... ... : ... .. 8 ... ...
ROW 1A : ... .. D ... ... ... : ... .. 8 ... ... ... : F-2 00 . ... : ... .. 6 ... : ... .. . ... ... : ... .. . ... ... : ... .. 5 ... ... : ... .. 5 ... ...
ROW 1B : ... .. A ... ... ... : ... .. 0 ... ... ... : E-2 00 . ... : ... .. 3 ... : ... .. . ... ... : D-4 01 5 ... ... : ... .. 4 ... ... : ... .. . ... ...
ROW 1C : ... .. . ... ... ... : F#2 00 5 P80 ... ... : B-1 00 . ... : ... .. 2 ... : ... .. . ... ... : ... .. 4 ... ... : ... .. . ... ... : ... .. . ... ...
ROW 1D : ... .. . ... ... ... : ... .. 8 ... ... ... : ... .. . ... : ... .. 0 ... : ... .. . ... ... : ... .. . ... ... : --- .. . P82 ... : --- .. . P84 ...
ROW 1E : ... .. . ... ... ... : G-2 00 8 ... ... ... : ... .. . ... : ... .. F ... : ... .. . ... ... : C-4 01 5 ... ... : ... .. . ... ... : ... .. . ... ...
ROW 1F : ... .. . ... ... ... : ... .. B ... ... ... : ... .. . ... : ... .. C ... : ... .. . ... ... : ... .. 4 ... ... : ... .. . ... ... : ... .. . ... ...
ROW 20 : ... .. . ... ... ... : ... .. 8 ... ... ... : ... .. . ... : ... .. 6 ... : ... .. . ... ... : ... .. . ... ... : D-3 01 6 P80 ... : D-3 01 A P80 ...
ROW 21 : ... .. . ... ... ... : ... .. 0 ... ... ... : ... .. . ... : ... .. 3 ... : ... .. . ... ... : C#4 01 5 ... ... : ... .. . ... ... : ... .. 8 ... ...
ROW 22 : ... .. . ... ... ... : G-2 00 5 P80 ... ... : ... .. . ... : ... .. 2 ... : ... .. . ... ... : ... .. 4 ... ... : ... .. 5 ... ... : ... .. 5 ... ...
ROW 23 : ... .. . ... ... ... : ... .. 8 ... ... ... : ... .. . ... : ... .. 0 ... : ... .. . ... ... : ... .. . ... ... : ... .. 4 ... ... : ... .. . ... ...
ROW 24 : A-3 00 F ... ... ... : A-2 00 8 ... ... ... : ... .. . ... : 7-# 00 F ... : ... .. . ... ... : B-3 01 5 ... ... : --- .. . P82 ... : --- .. . P84 ...
ROW 25 : ... .. E ... ... ... : ... .. B ... ... ... : ... .. . ... : ... .. C ... : ... .. . ... ... : ... .. 4 ... ... : ... .. . ... ... : ... .. . ... ...
ROW 26 : ... .. D ... ... ... : ... .. 8 ... ... ... : ... .. . ... : ... .. 6 ... : ... .. . ... ... : ... .. . ... ... : ... .. . ... ... : ... .. . ... ...
ROW 27 : ... .. A ... ... ... : ... .. 0 ... ... ... : ... .. . ... : ... .. 3 ... : ... .. . ... ... : A-3 01 5 ... ... : ... .. . ... ... : ... .. . ... ...
ROW 28 : ... .. . ... ... ... : A-2 00 5 P80 ... ... : ... .. . ... : ... .. 2 ... : ... .. . ... ... : ... .. 4 ... ... : D-3 01 6 P80 ... : D-3 01 A P80 ...
ROW 29 : ... .. . ... ... ... : ... .. 8 ... ... ... : ... .. . ... : ... .. 0 ... : ... .. . ... ... : ... .. . ... ... : ... .. . ... ... : ... .. 8 ... ...
ROW 2A : ... .. . ... ... ... : B-2 00 8 ... ... ... : ... .. . ... : ... .. F ... : ... .. . ... ... : G-3 01 5 ... ... : ... .. 5 ... ... : ... .. 5 ... ...
ROW 2B : ... .. . ... ... ... : ... .. B ... ... ... : ... .. . ... : ... .. C ... : ... .. . ... ... : ... .. 4 ... ... : ... .. 4 ... ... : ... .. . ... ...
ROW 2C : ... .. . ... ... ... : ... .. 8 ... ... ... : ... .. . ... : ... .. 6 ... : ... .. . ... ... : ... .. . ... ... : ... .. . ... ... : ... .. . ... ...
ROW 2D : ... .. . ... ... ... : ... .. 0 ... ... ... : ... .. . ... : ... .. 3 ... : ... .. . ... ... : F#3 01 5 ... ... : --- .. . P82 ... : --- .. . P84 ...
ROW 2E : ... .. 2 ... ... ... : B-2 00 5 P80 ... ... : ... .. . ... : ... .. 2 ... : ... .. . ... ... : ... .. 4 ... ... : ... .. . ... ... : ... .. . ... ...
ROW 2F : ... .. . ... ... ... : ... .. 8 ... ... ... : ... .. . ... : ... .. 0 ... : ... .. . ... ... : ... .. . ... ... : ... .. . ... ... : ... .. . ... ...
ROW 30 : G-3 00 F ... ... ... : F#2 00 8 ... ... ... : A#4 00 . ... : 9-# 00 F ... : ... .. . ... ... : E-3 01 5 ... ... : E-2 01 6 P80 ... : E-3 01 A P80 ...
ROW 31 : ... .. E ... ... ... : ... .. B ... ... ... : C-4 00 . ... : ... .. C ... : ... .. . ... ... : ... .. 4 ... ... : ... .. . ... ... : ... .. 8 ... ...
ROW 32 : ... .. D ... ... ... : ... .. 8 ... ... ... : F-3 00 . ... : ... .. 6 ... : ... .. . ... ... : ... .. . ... ... : ... .. 5 ... ... : ... .. 5 ... ...
ROW 33 : ... .. A ... ... ... : ... .. 0 ... ... ... : E-3 00 . ... : ... .. 3 ... : ... .. . ... ... : F#3 01 5 ... ... : --- .. . P83 ... : --- .. . P7D ...
ROW 34 : ... .. . ... ... ... : F#2 00 5 P80 ... ... : B-2 00 . ... : ... .. 2 ... : ... .. . ... ... : ... .. 4 ... ... : ... .. . ... ... : ... .. . ... ...
ROW 35 : ... .. . ... ... ... : ... .. 8 ... ... ... : ... .. . ... : ... .. 0 ... : ... .. . ... ... : ... .. . ... ... : ... .. . ... ... : ... .. . ... ...
ROW 36 : ... .. . ... ... ... : G-2 00 8 ... ... ... : ... .. . ... : 2-# 00 F ... : ... .. . ... ... : G-3 01 5 ... ... : G-2 01 6 P80 ... : F#3 01 A P80 ...
ROW 37 : ... .. . ... ... ... : ... .. B ... ... ... : ... .. . ... : ... .. C ... : ... .. . ... ... : ... .. 4 ... ... : ... .. . ... ... : ... .. 8 ... ...
ROW 38 : ... .. . ... ... ... : ... .. 8 ... ... ... : ... .. . ... : ... .. 6 ... : ... .. . ... ... : ... .. . ... ... : ... .. 5 ... ... : ... .. 5 ... ...
ROW 39 : ... .. . ... ... ... : ... .. 0 ... ... ... : ... .. . ... : ... .. 3 ... : ... .. . ... ... : A-3 01 5 ... ... : --- .. . P81 ... : --- .. . P82 ...
ROW 3A : ... .. . ... ... ... : G-2 00 5 P80 ... ... : ... .. . ... : ... .. 2 ... : ... .. . ... ... : ... .. 4 ... ... : ... .. . ... ... : ... .. . ... ...
ROW 3B : ... .. . ... ... ... : ... .. 8 ... ... ... : ... .. . ... : ... .. 0 ... : ... .. . ... ... : ... .. . ... ... : ... .. . ... ... : ... .. . ... ...
ROW 3C : ... .. . ... ... ... : A-2 00 8 ... ... ... : A#2 00 . P7B : 1-# 00 F ... : ... .. . ... ... : B-3 01 5 ... ... : C-3 01 6 P80 ... : G-3 01 A P80 ...
ROW 3D : ... .. 2 ... ... ... : ... .. B ... ... ... : A-2 00 . P77 : ... .. C ... : ... .. . ... ... : ... .. 4 ... ... : ... .. . ... ... : ... .. 8 ... ...
ROW 3E : ... .. . ... ... ... : ... .. 8 ... ... ... : G#2 00 . P76 : ... .. 6 ... : ... .. . ... ... : ... .. . ... ... : ... .. 5 ... ... : ... .. 5 ... ...
ROW 3F : ... .. . ... ... ... : ... .. 0 ... ... ... : G-2 00 . ... : ... .. 3 ... : ... .. . ... ... : C-4 01 5 ... ... : ... .. 4 ... ... : ... .. . ... ...
ROW 40 : ... .. 1 ... ... ... : A-2 00 5 P80 ... ... : F#2 00 . P78 : ... .. 2 ... : ... .. . ... ... : ... .. 4 ... ... : ... .. . ... ... : ... .. . ... ...
ROW 41 : ... .. . ... ... ... : ... .. 8 ... ... ... : F-2 00 . P7C : ... .. 0 ... : ... .. . ... ... : ... .. . ... ... : ... .. . ... ... : ... .. . ... ...
ROW 42 : F#3 00 F ... ... ... : B-2 00 8 ... ... ... : E-2 00 . P82 : C-# 00 F ... : ... .. . ... ... : D-4 01 5 ... ... : ... .. . ... ... : ... .. . ... ...
ROW 43 : ... .. E ... ... ... : ... .. B ... ... ... : D#2 00 . P8A : ... .. C ... : ... .. . ... ... : ... .. 4 ... ... : ... .. 3 ... ... : ... .. . ... ...
ROW 44 : ... .. D ... ... ... : ... .. 8 ... ... ... : D-2 00 . P95 : ... .. 6 ... : ... .. . ... ... : ... .. . ... ... : ... .. . ... ... : ... .. . ... ...
ROW 45 : ... .. A ... ... ... : ... .. 0 ... ... ... : ... .. . P75 : ... .. 3 ... : ... .. . ... ... : E-4 01 5 ... ... : ... .. . ... ... : ... .. . ... ...
ROW 46 : ... .. . ... ... ... : B-2 00 5 P80 ... ... : C#2 00 . P82 : ... .. 2 ... : ... .. . ... ... : ... .. 4 ... ... : ... .. . ... ... : ... .. . ... ...
ROW 47 : ... .. . ... ... ... : ... .. 8 ... ... ... : C-2 00 . P92 : ... .. 0 ... : ... .. . ... ... : ... .. . ... ... : ... .. . ... ... : ... .. . ... ...
ROW 48 : ... .. . ... ... ... : F#2 00 8 ... ... ... : A#3 00 . P80 : 7-# 00 F ... : ... .. . ... ... : F#4 01 5 ... ... : ... .. . ... ... : ... .. . ... ...
ROW 49 : ... .. . ... ... ... : ... .. B ... ... ... : C-3 00 . ... : ... .. C ... : ... .. . ... ... : ... .. 4 ... ... : ... .. . ... ... : ... .. . ... ...
ROW 4A : ... .. . ... ... ... : ... .. 8 ... ... ... : F-2 00 . ... : ... .. 6 ... : ... .. . ... ... : ... .. . ... ... : ... .. . ... ... : ... .. . ... ...
ROW 4B : ... .. . ... ... ... : ... .. 0 ... ... ... : E-2 00 . ... : ... .. 3 ... : ... .. . ... ... : G-4 01 5 ... ... : ... .. . ... ... : ... .. . ... ...
ROW 4C : ... .. . ... ... ... : F#2 00 5 P80 ... ... : B-1 00 . ... : ... .. 2 ... : ... .. . ... ... : ... .. 4 ... ... : ... .. . ... ... : ... .. . ... ...
ROW 4D : ... .. . ... ... ... : ... .. 8 ... ... ... : ... .. . ... : ... .. 0 ... : ... .. . ... ... : ... .. . ... ... : ... .. . ... ... : ... .. . ... ...
ROW 4E : ... .. . ... ... ... : G-2 00 8 ... ... ... : ... .. . ... : 1-# 00 F ... : ... .. . ... ... : A-4 01 5 ... ... : ... .. . ... ... : ... .. . ... ...
ROW 4F : ... .. 2 ... ... ... : ... .. B ... ... ... : ... .. . ... : ... .. C ... : ... .. . ... ... : ... .. 4 ... ... : ... .. . ... ... : ... .. . ... ...
ROW 50 : ... .. . ... ... ... : ... .. 8 ... ... ... : ... .. . ... : ... .. 6 ... : ... .. . ... ... : ... .. . ... ... : ... .. . ... ... : ... .. . ... ...
ROW 51 : ... .. . ... ... ... : ... .. 0 ... ... ... : ... .. . ... : ... .. 3 ... : ... .. . ... ... : B-4 01 5 ... ... : ... .. . ... ... : ... .. . ... ...
ROW 52 : ... .. 1 ... ... ... : G-2 00 5 P80 ... ... : ... .. . ... : ... .. 2 ... : ... .. . ... ... : ... .. 4 ... ... : ... .. . ... ... : ... .. . ... ...
ROW 53 : ... .. . ... ... ... : ... .. 8 ... ... ... : ... .. . ... : ... .. 0 ... : ... .. . ... ... : ... .. . ... ... : ... .. . ... ... : ... .. . ... ...
ROW 54 : E-3 00 F ... ... ... : A-2 00 8 ... ... ... : ... .. . ... : C-# 00 F ... : ... .. . ... ... : C-5 01 5 ... ... : ... .. . ... ... : ... .. . ... ...
ROW 55 : ... .. E ... ... ... : ... .. B ... ... ... : ... .. . ... : ... .. C ... : ... .. . ... ... : ... .. 4 ... ... : ... .. . ... ... : ... .. . ... ...
ROW 56 : ... .. D ... ... ... : ... .. 8 ... ... ... : ... .. . ... : ... .. 6 ... : ... .. . ... ... : ... .. . ... ... : ... .. . ... ... : ... .. . ... ...
ROW 57 : ... .. A ... ... ... : ... .. 0 ... ... ... : ... .. . ... : ... .. 3 ... : ... .. . ... ... : D-5 01 5 ... ... : ... .. . ... ... : ... .. . ... ...
ROW 58 : ... .. . ... ... ... : A-2 00 5 P80 ... ... : ... .. . ... : ... .. 2 ... : ... .. . ... ... : ... .. 4 ... ... : ... .. . ... ... : ... .. . ... ...
ROW 59 : ... .. . ... ... ... : ... .. 8 ... ... ... : ... .. . ... : ... .. 0 ... : ... .. . ... ... : ... .. . ... ... : ... .. . ... ... : ... .. . ... ...
ROW 5A : ... .. . ... ... ... : B-2 00 8 ... ... ... : ... .. . ... : 7-# 00 F ... : ... .. . ... ... : E-5 01 5 ... ... : --- .. . P7E ... : --- .. . P7F ...
ROW 5B : ... .. . ... ... ... : ... .. B ... ... ... : ... .. . ... : ... .. C ... : ... .. . ... ... : ... .. 4 ... ... : ... .. . ... ... : ... .. . ... ...
ROW 5C : ... .. . ... ... ... : ... .. 8 ... ... ... : ... .. . ... : ... .. 6 ... : ... .. . ... ... : ... .. . ... ... : ... .. . ... ... : ... .. . ... ...
ROW 5D : ... .. . ... ... ... : ... .. 0 ... ... ... : ... .. . ... : ... .. 3 ... : ... .. . ... ... : F#5 01 5 ... ... : ... .. . ... ... : ... .. . ... ...
ROW 5E : ... .. . ... ... ... : B-2 00 5 P80 ... ... : ... .. . ... : ... .. 2 ... : ... .. . ... ... : ... .. 4 ... ... : ... .. . ... ... : ... .. . ... ...
ROW 5F : ... .. . ... ... ... : ... .. 8 ... ... ... : ... .. . ... : ... .. 0 ... : ... .. . ... ... : ... .. . ... ... : ... .. . ... ... : ... .. . ... ...
ROW 60 : ... .. . ... ... ... : F#2 00 8 ... ... ... : A#4 00 . ... : 1-# 00 F ... : ... .. . ... ... : G-5 01 5 ... ... : G-2 01 6 P80 ... : E-3 01 A P80 ...
ROW 61 : ... .. . ... ... ... : ... .. B ... ... ... : C-4 00 . ... : ... .. C ... : ... .. . ... ... : ... .. 4 ... ... : ... .. . ... ... : ... .. 8 ... ...
ROW 62 : ... .. . ... ... ... : ... .. 8 ... ... ... : F-3 00 . ... : ... .. 6 ... : ... .. . ... ... : ... .. . ... ... : ... .. 5 ... ... : ... .. 5 ... ...
ROW 63 : ... .. . ... ... ... : ... .. 0 ... ... ... : E-3 00 . ... : ... .. 3 ... : ... .. . ... ... : F#5 01 5 ... ... : ... .. 4 ... ... : ... .. . ... ...
ROW 64 : ... .. . ... ... ... : F#2 00 5 P80 ... ... : B-2 00 . ... : ... .. 2 ... : ... .. . ... ... : ... .. 4 ... ... : ... .. . ... ... : ... .. . ... ...
ROW 65 : ... .. . ... ... ... : ... .. 8 ... ... ... : ... .. . ... : ... .. 0 ... : ... .. . ... ... : ... .. . ... ... : ... .. . ... ... : ... .. . ... ...
ROW 66 : ... .. . ... ... ... : G-2 00 8 ... ... ... : ... .. . ... : B-# 00 F ... : ... .. . ... ... : E-5 01 5 ... ... : ... .. . ... ... : ... .. . ... ...
ROW 67 : ... .. . ... ... ... : ... .. B ... ... ... : ... .. . ... : ... .. C ... : ... .. . ... ... : ... .. 4 ... ... : ... .. 3 ... ... : ... .. . ... ...
ROW 68 : ... .. . ... ... ... : ... .. 8 ... ... ... : ... .. . ... : ... .. 6 ... : ... .. . ... ... : ... .. . ... ... : ... .. . ... ... : ... .. . ... ...
ROW 69 : ... .. . ... ... ... : ... .. 0 ... ... ... : ... .. . ... : ... .. 3 ... : ... .. . ... ... : D-5 01 5 ... ... : ... .. . ... ... : ... .. . ... ...
ROW 6A : ... .. . ... ... ... : G-2 00 5 P80 ... ... : ... .. . ... : ... .. 2 ... : ... .. . ... ... : ... .. 4 ... ... : ... .. . ... ... : ... .. . ... ...
ROW 6B : ... .. . ... ... ... : ... .. 8 ... ... ... : ... .. . ... : ... .. 0 ... : ... .. . ... ... : ... .. . ... ... : ... .. . ... ... : ... .. . ... ...
ROW 6C : ... .. . ... ... ... : A-2 00 8 ... ... ... : A#2 00 . P7B : 7-# 00 F ... : ... .. . ... ... : C-5 01 5 ... ... : ... .. . ... ... : ... .. . ... ...
ROW 6D : ... .. . ... ... ... : ... .. B ... ... ... : A-2 00 . P77 : ... .. C ... : ... .. . ... ... : ... .. 4 ... ... : ... .. . ... ... : ... .. . ... ...
ROW 6E : ... .. . ... ... ... : ... .. 8 ... ... ... : G#2 00 . P76 : ... .. 6 ... : ... .. . ... ... : ... .. . ... ... : ... .. . ... ... : ... .. . ... ...
ROW 6F : ... .. . ... ... ... : ... .. 0 ... ... ... : G-2 00 . ... : ... .. 3 ... : ... .. . ... ... : B-4 01 5 ... ... : ... .. . ... ... : ... .. . ... ...
ROW 70 : ... .. . ... ... ... : A-2 00 5 P80 ... ... : F#2 00 . P78 : ... .. 2 ... : ... .. . ... ... : ... .. 4 ... ... : ... .. . ... ... : ... .. . ... ...
ROW 71 : ... .. . ... ... ... : ... .. 8 ... ... ... : F-2 00 . P7C : ... .. 0 ... : ... .. . ... ... : ... .. . ... ... : ... .. . ... ... : ... .. . ... ...
ROW 72 : ... .. . ... ... ... : B-2 00 8 ... ... ... : E-2 00 . P82 : 1-# 00 F ... : ... .. . ... ... : A-4 01 5 ... ... : ... .. . ... ... : ... .. . ... ...
ROW 73 : ... .. . ... ... ... : ... .. B ... ... ... : D#2 00 . P8A : ... .. C ... : ... .. . ... ... : ... .. 4 ... ... : ... .. . ... ... : ... .. . ... ...
ROW 74 : ... .. . ... ... ... : ... .. 8 ... ... ... : D-2 00 . P95 : ... .. 6 ... : ... .. . ... ... : ... .. . ... ... : ... .. . ... ... : ... .. . ... ...
ROW 75 : ... .. . ... ... ... : ... .. 0 ... ... ... : ... .. . P75 : ... .. 3 ... : ... .. . ... ... : G-4 01 5 ... ... : ... .. . ... ... : ... .. . ... ...
ROW 76 : ... .. . ... ... ... : B-2 00 5 P80 ... ... : C#2 00 . P82 : ... .. 2 ... : ... .. . ... ... : ... .. 4 ... ... : ... .. . ... ... : ... .. . ... ...
ROW 77 : ... .. . ... ... ... : ... .. 8 ... ... ... : C-2 00 . P92 : ... .. 0 ... : ... .. . ... ... : ... .. . ... ... : ... .. . ... ... : ... .. . ... ...
ROW 78 : ... .. . ... ... ... : F#2 00 8 ... ... ... : A#3 00 . P80 : 9-# 00 F ... : ... .. . ... ... : F#4 01 5 ... ... : ... .. 6 ... ... : ... .. A ... ...
ROW 79 : ... .. . ... ... ... : ... .. B ... ... ... : C-3 00 . ... : ... .. C ... : ... .. . ... ... : ... .. 4 ... ... : ... .. . ... ... : ... .. 8 ... ...
ROW 7A : ... .. . ... ... ... : ... .. 8 ... ... ... : F-2 00 . ... : ... .. 6 ... : ... .. . ... ... : ... .. . ... ... : ... .. 5 ... ... : ... .. 5 ... ...
ROW 7B : ... .. . ... ... ... : ... .. 0 ... ... ... : E-2 00 . ... : ... .. 3 ... : ... .. . ... ... : E-4 01 5 ... ... : ... .. 4 ... ... : ... .. . ... ...
ROW 7C : ... .. . ... ... ... : F#2 00 5 P80 ... ... : B-1 00 . ... : ... .. 2 ... : ... .. . ... ... : ... .. 4 ... ... : ... .. . ... ... : ... .. . ... ...
ROW 7D : ... .. . ... ... ... : ... .. 8 ... ... ... : ... .. . ... : ... .. 0 ... : ... .. . ... ... : ... .. . ... ... : ... .. . ... ... : ... .. . ... ...
ROW 7E : ... .. . ... ... ... : G-2 00 8 ... ... ... : ... .. . ... : ... .. F ... : ... .. . ... ... : D-4 01 5 ... ... : C-3 01 6 ... ... : G-3 01 A ... ...
ROW 7F : ... .. . ... ... ... : ... .. B ... ... ... : ... .. . ... : ... .. C ... : ... .. . ... ... : ... .. 4 ... ... : ... .. . ... ... : ... .. 8 ... ...
ROW 80 : ... .. . ... ... ... : ... .. 8 ... ... ... : ... .. . ... : ... .. 6 ... : ... .. . ... ... : ... .. . ... ... : ... .. 5 ... ... : ... .. 5 ... ...
ROW 81 : ... .. . ... ... ... : ... .. 0 ... ... ... : ... .. . ... : ... .. 3 ... : ... .. . ... ... : C-4 01 5 ... ... : ... .. 4 ... ... : ... .. . ... ...
ROW 82 : ... .. . ... ... ... : G-2 00 5 P80 ... ... : ... .. . ... : ... .. 2 ... : ... .. . ... ... : ... .. 4 ... ... : ... .. . ... ... : ... .. . ... ...
ROW 83 : ... .. . ... ... ... : ... .. 8 ... ... ... : ... .. . ... : ... .. 0 ... : ... .. . ... ... : ... .. . ... ... : ... .. . ... ... : ... .. . ... ...
ROW 84 : ... .. . P84 ... ... : A-2 00 8 ... ... ... : ... .. . ... : 7-# 00 F ... : ... .. . ... ... : B-3 01 5 ... ... : E-3 01 6 ... ... : C-4 01 A ... ...
ROW 85 : ... .. . P86 ... ... : ... .. B ... ... ... : ... .. . ... : ... .. C ... : ... .. . ... ... : ... .. 4 ... ... : ... .. . ... ... : ... .. 8 ... ...
ROW 86 : ... .. . P85 ... ... : ... .. 8 ... ... ... : ... .. . ... : ... .. 6 ... : ... .. . ... ... : ... .. . ... ... : ... .. 5 ... ... : ... .. 5 ... ...
ROW 87 : ... .. . P82 ... ... : ... .. 0 ... ... ... : ... .. . ... : ... .. 3 ... : ... .. . ... ... : A-3 01 5 ... ... : ... .. 4 ... ... : ... .. . ... ...
ROW 88 : ... .. . P7E ... ... : A-2 00 5 P80 ... ... : ... .. . ... : ... .. 2 ... : ... .. . ... ... : ... .. 4 ... ... : ... .. . ... ... : ... .. . ... ...
ROW 89 : ... .. . P7B ... ... : ... .. 8 ... ... ... : ... .. . ... : ... .. 0 ... : ... .. . ... ... : ... .. . ... ... : ... .. . ... ... : ... .. . ... ...
ROW 8A : ... .. . P7A ... ... : B-2 00 8 ... ... ... : ... .. . ... : ... .. F ... : ... .. . ... ... : G-3 01 5 ... ... : G-3 01 6 ... ... : E-4 01 A ... ...
ROW 8B : ... .. . P7C ... ... : ... .. B ... ... ... : ... .. . ... : ... .. C ... : ... .. . ... ... : ... .. 4 ... ... : ... .. . ... ... : ... .. 8 ... ...
ROW 8C : ... .. . P80 ... ... : ... .. 8 ... ... ... : ... .. . ... : ... .. 6 ... : ... .. . ... ... : ... .. . ... ... : ... .. 5 ... ... : ... .. 5 ... ...
ROW 8D : ... .. . P83 ... ... : ... .. 0 ... ... ... : ... .. . ... : ... .. 3 ... : ... .. . ... ... : F#3 01 5 ... ... : ... .. 4 ... ... : ... .. . ... ...
ROW 8E : ... .. . P86 ... ... : B-2 00 5 P80 ... ... : ... .. . ... : ... .. 2 ... : ... .. . ... ... : ... .. 4 ... ... : ... .. . ... ... : ... .. . ... ...
ROW 8F : ... .. . ... ... ... : ... .. 8 ... ... ... : ... .. . ... : ... .. 0 ... : ... .. . ... ... : ... .. . ... ... : ... .. . ... ... : ... .. . ... ...
ROW 90 : ... .. . P82 ... ... : A-2 00 8 ... ... ... : A#4 00 . ... : 9-# 00 F ... : ... .. . ... ... : E-3 01 5 ... ... : C-4 01 6 ... ... : F#4 01 A ... ...
ROW 91 : ... .. . P7F ... ... : ... .. B ... ... ... : C-4 00 . ... : ... .. C ... : ... .. . ... ... : ... .. 4 ... ... : ... .. . ... ... : ... .. 8 ... ...
ROW 92 : ... .. . P7B ... ... : ... .. 8 ... ... ... : F-3 00 . ... : ... .. 6 ... : ... .. . ... ... : ... .. . ... ... : ... .. 5 ... ... : ... .. 5 ... ...
ROW 93 : ... .. . P7A ... ... : ... .. 0 ... ... ... : E-3 00 . ... : ... .. 3 ... : ... .. . ... ... : F#3 01 5 ... ... : ... .. 3 ... ... : ... .. 4 ... ...
ROW 94 : ... .. . P7C ... ... : A-2 00 5 P80 ... ... : B-2 00 . ... : ... .. 2 ... : ... .. . ... ... : ... .. 4 ... ... : ... .. . ... ... : ... .. . ... ...
ROW 95 : ... .. . P80 ... ... : ... .. 8 ... ... ... : ... .. . ... : ... .. 0 ... : ... .. . ... ... : ... .. . ... ... : ... .. . ... ... : ... .. . ... ...
ROW 96 : ... .. . P83 ... ... : B-2 00 8 ... ... ... : ... .. . ... : 2-# 00 F ... : ... .. . ... ... : G-3 01 5 ... ... : ... .. 2 ... ... : ... .. 3 ... ...
ROW 97 : ... .. . P86 ... ... : ... .. B ... ... ... : ... .. . ... : ... .. C ... : ... .. . ... ... : ... .. 4 ... ... : ... .. . ... ... : ... .. . ... ...
ROW 98 : ... .. . ... ... ... : ... .. 8 ... ... ... : ... .. . ... : ... .. 6 ... : ... .. . ... ... : ... .. . ... ... : ... .. . ... ... : ... .. . ... ...
ROW 99 : ... .. . P83 ... ... : ... .. 0 ... ... ... : ... .. . ... : ... .. 3 ... : ... .. . ... ... : A-3 01 5 ... ... : ... .. . ... ... : ... .. . ... ...
ROW 9A : ... .. . P80 ... ... : B-2 00 5 P80 ... ... : ... .. . ... : ... .. 2 ... : ... .. . ... ... : ... .. 4 ... ... : ... .. . ... ... : ... .. . ... ...
ROW 9B : ... .. . P7C ... ... : ... .. 8 ... ... ... : ... .. . ... : ... .. 0 ... : ... .. . ... ... : ... .. . ... ... : ... .. . ... ... : ... .. . ... ...
ROW 9C : ... .. . P7A ... ... : C-3 00 8 ... ... ... : A#2 00 . P7B : 1-# 00 F ... : ... .. . ... ... : B-3 01 5 ... ... : ... .. 1 ... ... : ... .. 2 ... ...
ROW 9D : ... .. . P7B ... ... : ... .. B ... ... ... : A-2 00 . P77 : ... .. C ... : ... .. . ... ... : ... .. 4 ... ... : ... .. . ... ... : ... .. . ... ...
ROW 9E : ... .. . P7F ... ... : ... .. 8 ... ... ... : G#2 00 . P76 : ... .. 6 ... : ... .. . ... ... : ... .. . ... ... : ... .. . ... ... : ... .. . ... ...
ROW 9F : ... .. . P82 ... ... : ... .. 0 ... ... ... : G-2 00 . ... : ... .. 3 ... : ... .. . ... ... : C-4 01 5 ... ... : ... .. . ... ... : ... .. . ... ...
ROW A0 : ... .. . P86 ... ... : C-3 00 5 P80 ... ... : F#2 00 . P78 : ... .. 2 ... : ... .. . ... ... : ... .. 4 ... ... : ... .. . ... ... : ... .. . ... ...
ROW A1 : ... .. . ... ... ... : ... .. 8 ... ... ... : F-2 00 . P7C : ... .. 0 ... : ... .. . ... ... : ... .. . ... ... : ... .. . ... ... : ... .. . ... ...
ROW A2 : ... .. . P83 ... ... : D-3 00 8 ... ... ... : E-2 00 . P82 : C-# 00 F ... : ... .. . ... ... : D-4 01 5 ... ... : ... .. . ... ... : ... .. . ... ...
ROW A3 : ... .. . P80 ... ... : ... .. B ... ... ... : D#2 00 . P8A : ... .. C ... : ... .. . ... ... : ... .. 4 ... ... : ... .. . ... ... : ... .. . ... ...
ROW A4 : ... .. . P7C ... ... : ... .. 8 ... ... ... : D-2 00 . P95 : ... .. 6 ... : ... .. . ... ... : ... .. . ... ... : ... .. . ... ... : ... .. . ... ...
ROW A5 : ... .. . P7A ... ... : ... .. 0 ... ... ... : ... .. . P75 : ... .. 3 ... : ... .. . ... ... : E-4 01 5 ... ... : ... .. 2 ... ... : ... .. 3 ... ...
ROW A6 : ... .. . P7B ... ... : D-3 00 5 P80 ... ... : C#2 00 . P82 : ... .. 2 ... : ... .. . ... ... : ... .. 4 ... ... : ... .. . ... ... : ... .. . ... ...
ROW A7 : ... .. . P7E ... ... : ... .. 8 ... ... ... : C-2 00 . P92 : ... .. 0 ... : ... .. . ... ... : ... .. . ... ... : ... .. . ... ... : ... .. . ... ...
ROW A8 : ... .. . P82 ... ... : C-3 00 8 ... ... ... : A#3 00 . P80 : 7-# 00 F ... : ... .. . ... ... : F#4 01 5 ... ... : ... .. . P84 ... : ... .. . P84 ...
ROW A9 : ... .. . P85 ... ... : ... .. B ... ... ... : C-3 00 . ... : ... .. C ... : ... .. . ... ... : ... .. 4 ... ... : ... .. . P86 ... : G-4 01 3 P7C ...
ROW AA : ... .. . P86 ... ... : ... .. 8 ... ... ... : F-2 00 . ... : ... .. 6 ... : ... .. . ... ... : ... .. . ... ... : ... .. . P85 ... : F#4 01 3 P85 ...
ROW AB : ... .. . P84 ... ... : ... .. 0 ... ... ... : E-2 00 . ... : ... .. 3 ... : ... .. . ... ... : G-4 01 5 ... ... : ... .. . P82 ... : ... .. 4 P82 ...
ROW AC : ... .. . P80 ... ... : C-3 00 5 P80 ... ... : B-1 00 . ... : ... .. 2 ... : ... .. . ... ... : ... .. 4 ... ... : ... .. . P7E ... : ... .. . P7E ...
ROW AD : ... .. . P7D ... ... : ... .. 8 ... ... ... : ... .. . ... : ... .. 0 ... : ... .. . ... ... : ... .. . ... ... : ... .. . P7B ... : F-4 01 4 P85 ...
ROW AE : ... .. . P7A ... ... : D-3 00 8 ... ... ... : ... .. . ... : 1-# 00 F ... : ... .. . ... ... : A-4 01 5 ... ... : B-3 01 3 P86 ... : ... .. 5 P84 ...
ROW AF : ... .. . ... ... ... : ... .. B ... ... ... : ... .. . ... : ... .. C ... : ... .. . ... ... : ... .. 4 ... ... : C-4 01 3 P7C ... : F#4 01 5 P7C ...
ROW B0 : ... .. . P7E ... ... : ... .. 8 ... ... ... : ... .. . ... : ... .. 6 ... : ... .. . ... ... : ... .. . ... ... : ... .. . P80 ... : ... .. . P80 ...
ROW B1 : ... .. . P81 ... ... : ... .. 0 ... ... ... : ... .. . ... : ... .. 3 ... : ... .. . ... ... : B-4 01 5 ... ... : ... .. . P83 ... : ... .. . P83 ...
ROW B2 : ... .. . P85 ... ... : D-3 00 5 P80 ... ... : ... .. . ... : ... .. 2 ... : ... .. . ... ... : ... .. 4 ... ... : ... .. . P86 ... : G-4 01 5 P7C ...
ROW B3 : ... .. . P86 ... ... : ... .. 8 ... ... ... : ... .. . ... : ... .. 0 ... : ... .. . ... ... : ... .. . ... ... : ... .. . ... ... : ... .. . ... ...
ROW B4 : ... .. . P84 ... ... : E-3 00 8 ... ... ... : ... .. . ... : C-# 00 F ... : ... .. . ... ... : C-5 01 5 ... ... : ... .. 4 P82 ... : F#4 01 6 P82 ...
ROW B5 : ... .. 2 P80 ... ... : ... .. B ... ... ... : ... .. . ... : ... .. C ... : ... .. . ... ... : ... .. 4 ... ... : ... .. . P7F ... : ... .. . P7F ...
ROW B6 : ... .. . P7D ... ... : ... .. 8 ... ... ... : ... .. . ... : ... .. 6 ... : ... .. . ... ... : ... .. . ... ... : ... .. . P7B ... : F-4 01 6 P85 ...
ROW B7 : ... .. . P7A ... ... : ... .. 0 ... ... ... : ... .. . ... : ... .. 3 ... : ... .. . ... ... : D-5 01 5 ... ... : B-3 01 4 P86 ... : ... .. . P84 ...
ROW B8 : ... .. 1 ... ... ... : E-3 00 5 P80 ... ... : ... .. . ... : ... .. 2 ... : ... .. . ... ... : ... .. 4 ... ... : C-4 01 4 P7C ... : F#4 01 6 P7C ...
ROW B9 : ... .. . P7D ... ... : ... .. 8 ... ... ... : ... .. . ... : ... .. 0 ... : ... .. . ... ... : ... .. . ... ... : ... .. . P80 ... : ... .. . P80 ...
ROW BA : ... .. . P80 ... ... : F#3 00 8 ... ... ... : ... .. . ... : 7-# 00 F ... : ... .. . ... ... : E-5 01 5 ... ... : ... .. 5 P83 ... : ... .. 8 P83 ...
ROW BB : ... .. 0 ... ... ... : ... .. B ... ... ... : ... .. . ... : ... .. C ... : ... .. . ... ... : ... .. 4 ... ... : ... .. . P86 ... : G-4 01 8 P7C ...
ROW BC : ... .. . ... ... ... : ... .. 8 ... ... ... : ... .. . ... : ... .. 6 ... : ... .. . ... ... : ... .. . ... ... : ... .. . ... ... : ... .. . ... ...
ROW BD : ... .. . ... ... ... : ... .. 0 ... ... ... : ... .. . ... : ... .. 3 ... : ... .. . ... ... : F#5 01 5 ... ... : ... .. 4 P83 ... : F#4 01 6 P83 ...
ROW BE : ... .. . ... ... ... : F#3 00 5 P80 ... ... : ... .. . ... : ... .. 2 ... : ... .. . ... ... : ... .. 4 ... ... : ... .. . P80 ... : ... .. . P80 ...
ROW BF : ... .. . ... ... ... : ... .. 8 ... ... ... : ... .. . ... : ... .. 0 ... : ... .. . ... ... : ... .. . ... ... : ... .. . P7C ... : ... .. . P7C ...
ROW C0 : G-3 00 F P80 ... ... : G-3 00 8 ... ... ... : A#4 00 . ... : 1-# 00 F ... : ... .. . ... ... : G-5 01 5 ... ... : ... .. 6 P80 ... : ... .. A P80 ...
ROW C1 : ... .. E ... ... ... : ... .. B ... ... ... : C-4 00 . ... : ... .. C ... : ... .. . ... ... : ... .. 4 ... ... : ... .. . ... ... : ... .. 8 ... ...
ROW C2 : ... .. D ... ... ... : ... .. 8 ... ... ... : F-3 00 . ... : ... .. 6 ... : ... .. . ... ... : ... .. . ... ... : ... .. 5 ... ... : ... .. 5 ... ...
ROW C3 : ... .. A ... ... ... : ... .. 0 ... ... ... : E-3 00 . ... : ... .. 3 ... : ... .. . ... ... : F#5 01 5 ... ... : ... .. 4 ... ... : ... .. . ... ...
ROW C4 : ... .. . ... ... ... : G-3 00 5 P80 ... ... : B-2 00 . ... : ... .. 2 ... : ... .. . ... ... : ... .. 4 ... ... : ... .. . ... ... : ... .. . ... ...
ROW C5 : ... .. . ... ... ... : ... .. 8 ... ... ... : ... .. . ... : ... .. 0 ... : ... .. . ... ... : ... .. . ... ... : ... .. . ... ... : ... .. . ... ...
ROW C6 : ... .. . ... ... ... : A-3 00 8 ... ... ... : ... .. . ... : B-# 00 F ... : ... .. . ... ... : E-5 01 5 ... ... : ... .. . ... ... : ... .. . ... ...
ROW C7 : ... .. . ... ... ... : ... .. B ... ... ... : ... .. . ... : ... .. C ... : ... .. . ... ... : ... .. 4 ... ... : ... .. 3 ... ... : ... .. . ... ...
ROW C8 : ... .. . ... ... ... : ... .. 8 ... ... ... : ... .. . ... : ... .. 6 ... : ... .. . ... ... : ... .. . ... ... : ... .. . ... ... : ... .. . ... ...
ROW C9 : ... .. 0 ... ... ... : ... .. 0 ... ... ... : ... .. . ... : ... .. 3 ... : ... .. . ... ... : D-5 01 5 ... ... : --- .. . ... ... : --- .. . ... ...
ROW CA : ... .. . ... ... ... : A-3 00 5 P80 ... ... : ... .. . ... : ... .. 2 ... : ... .. . ... ... : ... .. 4 ... ... : ... .. . ... ... : ... .. . ... ...
ROW CB : ... .. . ... ... ... : ... .. 8 ... ... ... : ... .. . ... : ... .. 0 ... : ... .. . ... ... : ... .. . ... ... : ... .. . ... ... : ... .. . ... ...
ROW CC : G-3 00 D P80 ... ... : B-3 00 8 ... ... ... : A#2 00 . P7B : 7-# 00 F ... : ... .. . ... ... : C-5 01 5 ... ... : C-4 01 5 ... ... : F#4 01 8 ... ...
ROW CD : ... .. A ... ... ... : ... .. B ... ... ... : A-2 00 . P77 : ... .. C ... : ... .. . ... ... : ... .. 4 ... ... : ... .. 3 ... ... : ... .. 5 ... ...
ROW CE : ... .. 7 ... ... ... : ... .. 8 ... ... ... : G#2 00 . P76 : ... .. 6 ... : ... .. . ... ... : ... .. . ... ... : ... .. 2 ... ... : ... .. 2 ... ...
ROW CF : ... .. 4 ... ... ... : ... .. 0 ... ... ... : G-2 00 . ... : ... .. 3 ... : ... .. . ... ... : B-4 01 5 ... ... : ... .. 1 ... ... : ... .. 1 ... ...
ROW D0 : ... .. D ... ... ... : B-3 00 5 P80 ... ... : F#2 00 . P78 : ... .. 2 ... : ... .. . ... ... : ... .. 4 ... ... : ... .. 5 ... ... : ... .. 8 ... ...
ROW D1 : ... .. A ... ... ... : ... .. 8 ... ... ... : F-2 00 . P7C : ... .. 0 ... : ... .. . ... ... : ... .. . ... ... : ... .. 3 ... ... : ... .. 5 ... ...
ROW D2 : ... .. 7 ... ... ... : C-4 00 8 ... ... ... : E-2 00 . P82 : 1-# 00 F ... : ... .. . ... ... : A-4 01 5 ... ... : ... .. 2 ... ... : ... .. 2 ... ...
ROW D3 : ... .. 4 ... ... ... : ... .. B ... ... ... : D#2 00 . P8A : ... .. C ... : ... .. . ... ... : ... .. 4 ... ... : ... .. 1 ... ... : ... .. 1 ... ...
ROW D4 : ... .. D ... ... ... : ... .. 8 ... ... ... : D-2 00 . P95 : ... .. 6 ... : ... .. . ... ... : ... .. . ... ... : ... .. 5 ... ... : ... .. 8 ... ...
ROW D5 : ... .. A ... ... ... : ... .. 0 ... ... ... : ... .. . P75 : ... .. 3 ... : ... .. . ... ... : G-4 01 5 ... ... : ... .. 3 ... ... : ... .. 5 ... ...
ROW D6 : ... .. 7 ... ... ... : C-4 00 5 P80 ... ... : C#2 00 . P82 : ... .. 2 ... : ... .. . ... ... : ... .. 4 ... ... : ... .. 2 ... ... : ... .. 2 ... ...
ROW D7 : ... .. 4 ... ... ... : ... .. 8 ... ... ... : C-2 00 . P92 : ... .. 0 ... : ... .. . ... ... : ... .. . ... ... : ... .. 1 ... ... : ... .. 1 ... ...
ROW D8 : ... .. F ... ... ... : D-4 00 8 ... ... ... : A#3 00 . P80 : 9-# 00 F ... : ... .. . ... ... : F#4 01 5 ... ... : ... .. 6 ... ... : ... .. A ... ...
ROW D9 : ... .. E ... ... ... : ... .. B ... ... ... : C-3 00 . ... : ... .. C ... : ... .. . ... ... : ... .. 4 ... ... : ... .. . ... ... : ... .. 8 ... ...
ROW DA : ... .. D ... ... ... : ... .. 8 ... ... ... : F-2 00 . ... : ... .. 6 ... : ... .. . ... ... : ... .. . ... ... : ... .. 5 ... ... : ... .. 5 ... ...
ROW DB : ... .. A ... ... ... : ... .. 0 ... ... ... : E-2 00 . ... : ... .. 3 ... : ... .. . ... ... : E-4 01 5 ... ... : ... .. 4 ... ... : ... .. . ... ...
ROW DC : ... .. . ... ... ... : D-4 00 5 P80 ... ... : B-1 00 . ... : ... .. 2 ... : ... .. . ... ... : ... .. 4 ... ... : ... .. . ... ... : ... .. . ... ...
ROW DD : ... .. 0 ... ... ... : ... .. 8 ... ... ... : ... .. . ... : ... .. 0 ... : ... .. . ... ... : ... .. . ... ... : --- .. . ... ... : --- .. . ... ...
ROW DE : ... .. . ... ... ... : E-4 00 8 ... ... ... : ... .. . ... : ... .. F ... : ... .. . ... ... : D-4 01 5 ... ... : ... .. . ... ... : ... .. . ... ...
ROW DF : ... .. . ... ... ... : ... .. B ... ... ... : ... .. . ... : ... .. C ... : ... .. . ... ... : ... .. 4 ... ... : ... .. . ... ... : ... .. . ... ...
ROW E0 : G-3 00 F P80 ... ... : ... .. 8 ... ... ... : ... .. . ... : ... .. 6 ... : ... .. . ... ... : ... .. . ... ... : C-4 01 6 ... ... : F#4 01 A ... ...
ROW E1 : ... .. E ... ... ... : ... .. 0 ... ... ... : ... .. . ... : ... .. 3 ... : ... .. . ... ... : C-4 01 5 ... ... : ... .. . ... ... : ... .. 8 ... ...
ROW E2 : ... .. D ... ... ... : E-4 00 5 P80 ... ... : ... .. . ... : ... .. 2 ... : ... .. . ... ... : ... .. 4 ... ... : ... .. 5 ... ... : ... .. 5 ... ...
ROW E3 : ... .. A ... ... ... : ... .. 8 ... ... ... : ... .. . ... : ... .. 0 ... : ... .. . ... ... : ... .. . ... ... : ... .. 4 ... ... : ... .. . ... ...
ROW E4 : ... .. 0 ... ... ... : F#4 00 8 ... ... ... : ... .. . ... : 7-# 00 F ... : ... .. . ... ... : B-3 01 5 ... ... : --- .. . ... ... : --- .. . ... ...
ROW E5 : ... .. . ... ... ... : ... .. B ... ... ... : ... .. . ... : ... .. C ... : ... .. . ... ... : ... .. 4 ... ... : ... .. . ... ... : ... .. . ... ...
ROW E6 : ... .. . ... ... ... : ... .. 8 ... ... ... : ... .. . ... : ... .. 6 ... : ... .. . ... ... : ... .. . ... ... : ... .. . ... ... : ... .. . ... ...
ROW E7 : ... .. . ... ... ... : ... .. 0 ... ... ... : ... .. . ... : ... .. 3 ... : ... .. . ... ... : A-3 01 5 ... ... : ... .. . ... ... : ... .. . ... ...
ROW E8 : G-3 00 F P80 ... ... : F#4 00 5 P80 ... ... : ... .. . ... : ... .. 2 ... : ... .. . ... ... : ... .. 4 ... ... : C-4 01 6 ... ... : F#4 01 A ... ...
ROW E9 : ... .. E ... ... ... : ... .. 8 ... ... ... : ... .. . ... : ... .. 0 ... : ... .. . ... ... : ... .. . ... ... : ... .. . ... ... : ... .. 8 ... ...
ROW EA : ... .. D ... ... ... : G-4 00 8 ... ... ... : ... .. . ... : ... .. F ... : ... .. . ... ... : G-3 01 5 ... ... : ... .. 5 ... ... : ... .. 5 ... ...
ROW EB : ... .. A ... ... ... : ... .. B ... ... ... : ... .. . ... : ... .. C ... : ... .. . ... ... : ... .. 4 ... ... : ... .. 4 ... ... : ... .. . ... ...
ROW EC : ... .. . ... ... ... : ... .. 8 ... ... ... : ... .. . ... : ... .. 6 ... : ... .. . ... ... : ... .. . ... ... : ... .. . ... ... : ... .. . ... ...
ROW ED : ... .. 0 ... ... ... : ... .. 0 ... ... ... : ... .. . ... : ... .. 3 ... : ... .. . ... ... : F#3 01 5 ... ... : --- .. . ... ... : --- .. . ... ...
ROW EE : ... .. . ... ... ... : G-4 00 5 P80 ... ... : ... .. . ... : ... .. 2 ... : ... .. . ... ... : ... .. 4 ... ... : ... .. . ... ... : ... .. . ... ...
ROW EF : ... .. . ... ... ... : ... .. 8 ... ... ... : ... .. . ... : ... .. 0 ... : ... .. . ... ... : ... .. . ... ... : ... .. . ... ... : ... .. . ... ...
ROW F0 : ... .. . ... ... ... : F#2 00 8 ... ... ... : F-5 00 . ... : 9-# 00 F ... : ... .. . ... ... : D-3 01 5 ... ... : C#4 01 6 ... ... : F#4 01 A ... ...
ROW F1 : ... .. . ... ... ... : ... .. B ... ... ... : G-4 00 . ... : ... .. C ... : ... .. . ... ... : ... .. 4 ... ... : ... .. . ... ... : ... .. 8 ... ...
ROW F2 : ... .. . ... ... ... : ... .. 8 ... ... ... : C-4 00 . ... : ... .. 6 ... : ... .. . ... ... : ... .. . ... ... : ... .. 5 ... ... : ... .. 5 ... ...
ROW F3 : ... .. . ... ... ... : ... .. 0 ... ... ... : B-3 00 . ... : ... .. 3 ... : ... .. . ... ... : E-3 01 5 ... ... : ... .. 4 ... ... : ... .. . ... ...
ROW F4 : ... .. . ... ... ... : F#2 00 5 P80 ... ... : F#3 00 . ... : ... .. 2 ... : ... .. . ... ... : ... .. 4 ... ... : ... .. . ... ... : ... .. . ... ...
ROW F5 : ... .. . ... ... ... : ... .. 8 ... ... ... : ... .. . ... : ... .. 0 ... : ... .. . ... ... : ... .. . ... ... : ... .. . ... ... : ... .. . ... ...
ROW F6 : ... .. . ... ... ... : G-2 00 8 ... ... ... : ... .. . ... : 2-# 00 F ... : ... .. . ... ... : F#3 01 5 ... ... : ... .. . ... ... : ... .. . ... ...
ROW F7 : ... .. . ... ... ... : ... .. B ... ... ... : ... .. . ... : ... .. C ... : ... .. . ... ... : ... .. 4 ... ... : ... .. 3 ... ... : ... .. . ... ...
ROW F8 : ... .. . ... ... ... : ... .. 8 ... ... ... : ... .. . ... : ... .. 6 ... : ... .. . ... ... : ... .. . ... ... : ... .. . ... ... : ... .. . ... ...
ROW F9 : ... .. . ... ... ... : ... .. 0 ... ... ... : ... .. . ... : ... .. 3 ... : ... .. . ... ... : G-3 01 5 ... ... : ... .. . ... ... : ... .. . ... ...
ROW FA : ... .. . ... ... ... : G-2 00 5 P80 ... ... : ... .. . ... : ... .. 2 ... : ... .. . ... ... : ... .. 4 ... ... : ... .. . ... ... : ... .. . ... ...
ROW FB : ... .. . ... ... ... : ... .. 8 ... ... ... : ... .. . ... : ... .. 0 ... : ... .. . ... ... : ... .. . ... ... : ... .. . ... ... : ... .. . ... ...
ROW FC : F#3 00 F P80 ... ... : A-2 00 8 ... ... ... : E-3 00 . P85 : 1-# 00 F ... : ... .. . ... ... : A-3 01 5 ... ... : ... .. . ... ... : ... .. . ... ...
ROW FD : ... .. E ... ... ... : ... .. B ... ... ... : D#3 00 . P7A : ... .. C ... : ... .. . ... ... : ... .. 4 ... ... : ... .. . ... ... : ... .. . ... ...
ROW FE : ... .. D ... ... ... : ... .. 8 ... ... ... : C#3 00 . P86 : ... .. 6 ... : ... .. . ... ... : ... .. . ... ... : ... .. . ... ... : ... .. . ... ...
ROW FF : ... .. A ... ... ... : ... .. 0 ... ... ... : C-3 00 . P7E : ... .. 3 ... : ... .. . ... ... : B-3 01 5 ... ... : ... .. . ... ... : ... .. . ... ...

PATTERN 19
ROW 00 : ... .. . ... ... ... : A-2 00 5 P80 ... ... : B-2 00 . P77 : ... .. 2 ... : ... .. . ... ... : ... .. 4 ... ... : ... .. . ... ... : ... .. . ... ...
ROW 01 : ... .. . ... ... ... : ... .. 8 ... ... ... : A-2 00 . P8E : ... .. 0 ... : ... .. . ... ... : ... .. . ... ... : ... .. . ... ... : ... .. . ... ...
ROW 02 : ... .. . ... ... ... : B-2 00 8 ... ... ... : G#2 00 . P8D : C-# 00 F ... : ... .. . ... ... : C#4 01 5 ... ... : ... .. . ... ... : ... .. . ... ...
ROW 03 : ... .. 2 ... ... ... : ... .. B ... ... ... : G-2 00 . ... : ... .. C ... : ... .. . ... ... : ... .. 4 ... ... : ... .. . ... ... : ... .. . ... ...
ROW 04 : ... .. . ... ... ... : ... .. 8 ... ... ... : F#2 00 . P8F : ... .. 6 ... : ... .. . ... ... : ... .. . ... ... : ... .. . ... ... : ... .. . ... ...
ROW 05 : ... .. . ... ... ... : ... .. 0 ... ... ... : ... .. . P6F : ... .. 3 ... : ... .. . ... ... : D-4 01 5 ... ... : ... .. . ... ... : ... .. . ... ...
ROW 06 : ... .. 1 ... ... ... : B-2 00 5 P80 ... ... : F-2 00 . P73 : ... .. 2 ... : ... .. . ... ... : ... .. 4 ... ... : ... .. . ... ... : ... .. . ... ...
ROW 07 : ... .. . ... ... ... : ... .. 8 ... ... ... : E-2 00 . P79 : ... .. 0 ... : ... .. . ... ... : ... .. . ... ... : ... .. . ... ... : ... .. . ... ...
ROW 08 : C#4 00 F ... ... ... : F#2 00 8 ... ... ... : F-4 00 . P80 : 7-# 00 F ... : ... .. . ... ... : E-4 01 5 ... ... : ... .. . ... ... : ... .. . ... ...
ROW 09 : ... .. E ... ... ... : ... .. B ... ... ... : G-3 00 . ... : ... .. C ... : ... .. . ... ... : ... .. 4 ... ... : ... .. . ... ... : ... .. . ... ...
ROW 0A : ... .. D ... ... ... : ... .. 8 ... ... ... : C-3 00 . ... : ... .. 6 ... : ... .. . ... ... : ... .. . ... ... : ... .. . ... ... : ... .. . ... ...
ROW 0B : ... .. A ... ... ... : ... .. 0 ... ... ... : B-2 00 . ... : ... .. 3 ... : ... .. . ... ... : F#4 01 5 ... ... : ... .. . ... ... : ... .. . ... ...
ROW 0C : ... .. . ... ... ... : F#2 00 5 P80 ... ... : F#2 00 . ... : ... .. 2 ... : ... .. . ... ... : ... .. 4 ... ... : ... .. . ... ... : ... .. . ... ...
ROW 0D : ... .. . ... ... ... : ... .. 8 ... ... ... : ... .. . ... : ... .. 0 ... : ... .. . ... ... : ... .. . ... ... : ... .. . ... ... : ... .. . ... ...
ROW 0E : ... .. . ... ... ... : G-2 00 8 ... ... ... : ... .. . ... : 1-# 00 F ... : ... .. . ... ... : G-4 01 5 ... ... : ... .. . ... ... : ... .. . ... ...
ROW 0F : ... .. . ... ... ... : ... .. B ... ... ... : ... .. . ... : ... .. C ... : ... .. . ... ... : ... .. 4 ... ... : ... .. . ... ... : ... .. . ... ...
ROW 10 : ... .. . ... ... ... : ... .. 8 ... ... ... : ... .. . ... : ... .. 6 ... : ... .. . ... ... : ... .. . ... ... : ... .. . ... ... : ... .. . ... ...
ROW 11 : ... .. . ... ... ... : ... .. 0 ... ... ... : ... .. . ... : ... .. 3 ... : ... .. . ... ... : A-4 01 5 ... ... : ... .. . ... ... : ... .. . ... ...
ROW 12 : ... .. 2 ... ... ... : G-2 00 5 P80 ... ... : ... .. . ... : ... .. 2 ... : ... .. . ... ... : ... .. 4 ... ... : ... .. . ... ... : ... .. . ... ...
ROW 13 : ... .. . ... ... ... : ... .. 8 ... ... ... : ... .. . ... : ... .. 0 ... : ... .. . ... ... : ... .. . ... ... : ... .. . ... ... : ... .. . ... ...
ROW 14 : F#3 00 F ... ... ... : A-2 00 8 ... ... ... : ... .. . ... : C-# 00 F ... : ... .. . ... ... : B-4 01 5 ... ... : A-2 01 A ... ... : F#3 01 A ... ...
ROW 15 : ... .. E ... ... ... : ... .. B ... ... ... : ... .. . ... : ... .. C ... : ... .. . ... ... : ... .. 4 ... ... : ... .. 9 ... ... : ... .. 8 ... ...
ROW 16 : ... .. D ... ... ... : ... .. 8 ... ... ... : ... .. . ... : ... .. 6 ... : ... .. . ... ... : ... .. . ... ... : ... .. 8 ... ... : ... .. 5 ... ...
ROW 17 : ... .. A ... ... ... : ... .. 0 ... ... ... : ... .. . ... : ... .. 3 ... : ... .. . ... ... : C#5 01 5 ... ... : ... .. 7 ... ... : ... .. . ... ...
ROW 18 : ... .. . ... ... ... : A-2 00 5 P80 ... ... : ... .. . ... : ... .. 2 ... : ... .. . ... ... : ... .. 4 ... ... : ... .. . ... ... : ... .. . ... ...
ROW 19 : ... .. . ... ... ... : ... .. 8 ... ... ... : ... .. . ... : ... .. 0 ... : ... .. . ... ... : ... .. . ... ... : ... .. 6 ... ... : ... .. . ... ...
ROW 1A : ... .. . ... ... ... : B-2 00 8 ... ... ... : ... .. . ... : 7-# 00 F ... : ... .. . ... ... : D-5 01 5 ... ... : --- .. . P82 ... : --- .. . P82 ...
ROW 1B : ... .. . ... ... ... : ... .. B ... ... ... : ... .. . ... : ... .. C ... : ... .. . ... ... : ... .. 4 ... ... : ... .. . ... ... : ... .. . ... ...
ROW 1C : ... .. . ... ... ... : ... .. 8 ... ... ... : ... .. . ... : ... .. 6 ... : ... .. . ... ... : ... .. . ... ... : ... .. . ... ... : ... .. . ... ...
ROW 1D : ... .. . ... ... ... : ... .. 0 ... ... ... : ... .. . ... : ... .. 3 ... : ... .. . ... ... : E-5 01 5 ... ... : ... .. . ... ... : ... .. . ... ...
ROW 1E : ... .. 2 ... ... ... : B-2 00 5 P80 ... ... : ... .. . ... : ... .. 2 ... : ... .. . ... ... : ... .. 4 ... ... : ... .. . ... ... : ... .. . ... ...
ROW 1F : ... .. . ... ... ... : ... .. 8 ... ... ... : ... .. . ... : ... .. 0 ... : ... .. . ... ... : ... .. . ... ... : ... .. . ... ... : ... .. . ... ...
ROW 20 : C#4 00 F ... ... ... : F#2 00 8 ... ... ... : F-5 00 . ... : 1-# 00 F ... : ... .. . ... ... : F#5 01 5 ... ... : F#3 01 A P80 ... : C#4 01 A P80 ...
ROW 21 : ... .. E ... ... ... : ... .. B ... ... ... : G-4 00 . ... : ... .. C ... : ... .. . ... ... : ... .. 4 ... ... : ... .. 9 ... ... : ... .. 8 ... ...
ROW 22 : ... .. D ... ... ... : ... .. 8 ... ... ... : C-4 00 . ... : ... .. 6 ... : ... .. . ... ... : ... .. . ... ... : ... .. 8 ... ... : ... .. 5 ... ...
ROW 23 : ... .. A ... ... ... : ... .. 0 ... ... ... : B-3 00 . ... : ... .. 3 ... : ... .. . ... ... : E-5 01 5 ... ... : ... .. 7 ... ... : ... .. . ... ...
ROW 24 : ... .. . ... ... ... : F#2 00 5 P80 ... ... : F#3 00 . ... : ... .. 2 ... : ... .. . ... ... : ... .. 4 ... ... : ... .. . ... ... : ... .. . ... ...
ROW 25 : ... .. . ... ... ... : ... .. 8 ... ... ... : ... .. . ... : ... .. 0 ... : ... .. . ... ... : ... .. . ... ... : ... .. 6 ... ... : ... .. . ... ...
ROW 26 : ... .. . ... ... ... : G-2 00 8 ... ... ... : ... .. . ... : B-# 00 F ... : ... .. . ... ... : D-5 01 5 ... ... : ... .. . ... ... : ... .. . ... ...
ROW 27 : ... .. . ... ... ... : ... .. B ... ... ... : ... .. . ... : ... .. C ... : ... .. . ... ... : ... .. 4 ... ... : ... .. 5 ... ... : ... .. . ... ...
ROW 28 : ... .. . ... ... ... : ... .. 8 ... ... ... : ... .. . ... : ... .. 6 ... : ... .. . ... ... : ... .. . ... ... : ... .. . ... ... : ... .. . ... ...
ROW 29 : ... .. . ... ... ... : ... .. 0 ... ... ... : ... .. . ... : ... .. 3 ... : ... .. . ... ... : C#5 01 5 ... ... : ... .. . ... ... : ... .. . ... ...
ROW 2A : ... .. . ... ... ... : G-2 00 5 P80 ... ... : ... .. . ... : ... .. 2 ... : ... .. . ... ... : ... .. 4 ... ... : ... .. . ... ... : ... .. . ... ...
ROW 2B : ... .. . ... ... ... : ... .. 8 ... ... ... : ... .. . ... : ... .. 0 ... : ... .. . ... ... : ... .. . ... ... : ... .. . ... ... : ... .. . ... ...
ROW 2C : ... .. . ... ... ... : A-2 00 8 ... ... ... : E-3 00 . P85 : 7-# 00 F ... : ... .. . ... ... : B-4 01 5 ... ... : ... .. . ... ... : ... .. . ... ...
ROW 2D : ... .. . ... ... ... : ... .. B ... ... ... : D#3 00 . P7A : ... .. C ... : ... .. . ... ... : ... .. 4 ... ... : ... .. . ... ... : ... .. . ... ...
ROW 2E : ... .. . ... ... ... : ... .. 8 ... ... ... : C#3 00 . P86 : ... .. 6 ... : ... .. . ... ... : ... .. . ... ... : ... .. . ... ... : ... .. . ... ...
ROW 2F : ... .. . ... ... ... : ... .. 0 ... ... ... : C-3 00 . P7E : ... .. 3 ... : ... .. . ... ... : A-4 01 5 ... ... : ... .. . ... ... : ... .. . ... ...
ROW 30 : ... .. . ... ... ... : A-2 00 5 P80 ... ... : B-2 00 . P77 : ... .. 2 ... : ... .. . ... ... : ... .. 4 ... ... : ... .. . ... ... : ... .. . ... ...
ROW 31 : ... .. . ... ... ... : ... .. 8 ... ... ... : A-2 00 . P8E : ... .. 0 ... : ... .. . ... ... : ... .. . ... ... : ... .. . ... ... : ... .. . ... ...
ROW 32 : ... .. . ... ... ... : B-2 00 8 ... ... ... : G#2 00 . P8D : 1-# 00 F ... : ... .. . ... ... : G-4 01 5 ... ... : ... .. . ... ... : ... .. . ... ...
ROW 33 : ... .. 2 ... ... ... : ... .. B ... ... ... : G-2 00 . ... : ... .. C ... : ... .. . ... ... : ... .. 4 ... ... : ... .. . ... ... : ... .. . ... ...
ROW 34 : ... .. . ... ... ... : ... .. 8 ... ... ... : F#2 00 . P8F : ... .. 6 ... : ... .. . ... ... : ... .. . ... ... : ... .. . ... ... : ... .. . ... ...
ROW 35 : ... .. . ... ... ... : ... .. 0 ... ... ... : ... .. . P6F : ... .. 3 ... : ... .. . ... ... : F#4 01 5 ... ... : --- .. . P7F ... : --- .. . ... ...
ROW 36 : ... .. 1 ... ... ... : B-2 00 5 P80 ... ... : F-2 00 . P73 : ... .. 2 ... : ... .. . ... ... : ... .. 4 ... ... : ... .. . ... ... : ... .. . ... ...
ROW 37 : ... .. . ... ... ... : ... .. 8 ... ... ... : E-2 00 . P79 : ... .. 0 ... : ... .. . ... ... : ... .. . ... ... : ... .. . ... ... : ... .. . ... ...
ROW 38 : F#3 00 F ... ... ... : F#2 00 8 ... ... ... : F-4 00 . P80 : 9-# 00 F ... : ... .. . ... ... : E-4 01 5 ... ... : A-3 01 6 P80 ... : A-3 01 A ... ...
ROW 39 : ... .. E ... ... ... : ... .. B ... ... ... : G-3 00 . ... : ... .. C ... : ... .. . ... ... : ... .. 4 ... ... : ... .. . ... ... : ... .. 8 ... ...
ROW 3A : ... .. D ... ... ... : ... .. 8 ... ... ... : C-3 00 . ... : ... .. 6 ... : ... .. . ... ... : ... .. . ... ... : ... .. 5 ... ... : ... .. 5 ... ...
ROW 3B : ... .. A ... ... ... : ... .. 0 ... ... ... : B-2 00 . ... : ... .. 3 ... : ... .. . ... ... : D-4 01 5 ... ... : ... .. 4 ... ... : ... .. . ... ...
ROW 3C : ... .. . ... ... ... : F#2 00 5 P80 ... ... : F#2 00 . ... : ... .. 2 ... : ... .. . ... ... : ... .. 4 ... ... : ... .. . ... ... : ... .. . ... ...
ROW 3D : ... .. . ... ... ... : ... .. 8 ... ... ... : ... .. . ... : ... .. 0 ... : ... .. . ... ... : ... .. . ... ... : --- .. . ... ... : --- .. . P81 ...
ROW 3E : ... .. . ... ... ... : G-2 00 8 ... ... ... : ... .. . ... : ... .. F ... : ... .. . ... ... : C-4 01 5 ... ... : ... .. . ... ... : ... .. . ... ...
ROW 3F : ... .. . ... ... ... : ... .. B ... ... ... : ... .. . ... : ... .. C ... : ... .. . ... ... : ... .. 4 ... ... : ... .. . ... ... : ... .. . ... ...
ROW 40 : ... .. . ... ... ... : ... .. 8 ... ... ... : ... .. . ... : ... .. 6 ... : ... .. . ... ... : ... .. . ... ... : A-3 01 6 ... ... : A-3 01 A P80 ...
ROW 41 : ... .. . ... ... ... : ... .. 0 ... ... ... : ... .. . ... : ... .. 3 ... : ... .. . ... ... : C#4 01 5 ... ... : ... .. . ... ... : ... .. 8 ... ...
ROW 42 : ... .. . ... ... ... : G-2 00 5 P80 ... ... : ... .. . ... : ... .. 2 ... : ... .. . ... ... : ... .. 4 ... ... : ... .. 5 ... ... : ... .. 5 ... ...
ROW 43 : ... .. . ... ... ... : ... .. 8 ... ... ... : ... .. . ... : ... .. 0 ... : ... .. . ... ... : ... .. . ... ... : ... .. 4 ... ... : ... .. . ... ...
ROW 44 : E-4 00 F ... ... ... : A-2 00 8 ... ... ... : ... .. . ... : 7-# 00 F ... : ... .. . ... ... : B-3 01 5 ... ... : --- .. . ... ... : --- .. . P81 ...
ROW 45 : ... .. E ... ... ... : ... .. B ... ... ... : ... .. . ... : ... .. C ... : ... .. . ... ... : ... .. 4 ... ... : ... .. . ... ... : ... .. . ... ...
ROW 46 : ... .. D ... ... ... : ... .. 8 ... ... ... : ... .. . ... : ... .. 6 ... : ... .. . ... ... : ... .. . ... ... : ... .. . ... ... : ... .. . ... ...
ROW 47 : ... .. A ... ... ... : ... .. 0 ... ... ... : ... .. . ... : ... .. 3 ... : ... .. . ... ... : A-3 01 5 ... ... : ... .. . ... ... : ... .. . ... ...
ROW 48 : ... .. . ... ... ... : A-2 00 5 P80 ... ... : ... .. . ... : ... .. 2 ... : ... .. . ... ... : ... .. 4 ... ... : A-3 01 6 ... ... : A-3 01 A P80 ...
ROW 49 : ... .. . ... ... ... : ... .. 8 ... ... ... : ... .. . ... : ... .. 0 ... : ... .. . ... ... : ... .. . ... ... : ... .. . ... ... : ... .. 8 ... ...
ROW 4A : ... .. . ... ... ... : B-2 00 8 ... ... ... : ... .. . ... : ... .. F ... : ... .. . ... ... : G-3 01 5 ... ... : ... .. 5 ... ... : ... .. 5 ... ...
ROW 4B : ... .. . ... ... ... : ... .. B ... ... ... : ... .. . ... : ... .. C ... : ... .. . ... ... : ... .. 4 ... ... : ... .. 4 ... ... : ... .. . ... ...
ROW 4C : ... .. . ... ... ... : ... .. 8 ... ... ... : ... .. . ... : ... .. 6 ... : ... .. . ... ... : ... .. . ... ... : ... .. . ... ... : ... .. . ... ...
ROW 4D : ... .. . ... ... ... : ... .. 0 ... ... ... : ... .. . ... : ... .. 3 ... : ... .. . ... ... : F#3 01 5 ... ... : --- .. . ... ... : --- .. . P81 ...
ROW 4E : ... .. 2 ... ... ... : B-2 00 5 P80 ... ... : ... .. . ... : ... .. 2 ... : ... .. . ... ... : ... .. 4 ... ... : ... .. . ... ... : ... .. . ... ...
ROW 4F : ... .. . ... ... ... : ... .. 8 ... ... ... : ... .. . ... : ... .. 0 ... : ... .. . ... ... : ... .. . ... ... : ... .. . ... ... : ... .. . ... ...
ROW 50 : D-4 00 F ... ... ... : F#2 00 8 ... ... ... : F-5 00 . ... : 9-# 00 F ... : ... .. . ... ... : D-3 01 5 ... ... : B-2 01 6 ... ... : B-3 01 A P80 ...
ROW 51 : ... .. E ... ... ... : ... .. B ... ... ... : G-4 00 . ... : ... .. C ... : ... .. . ... ... : ... .. 4 ... ... : ... .. . ... ... : ... .. 8 ... ...
ROW 52 : ... .. D ... ... ... : ... .. 8 ... ... ... : C-4 00 . ... : ... .. 6 ... : ... .. . ... ... : ... .. . ... ... : ... .. 5 ... ... : ... .. 5 ... ...
ROW 53 : ... .. A ... ... ... : ... .. 0 ... ... ... : B-3 00 . ... : ... .. 3 ... : ... .. . ... ... : E-3 01 5 ... ... : --- .. . P85 ... : --- .. . P8E ...
ROW 54 : ... .. . ... ... ... : F#2 00 5 P80 ... ... : F#3 00 . ... : ... .. 2 ... : ... .. . ... ... : ... .. 4 ... ... : ... .. . ... ... : ... .. . ... ...
ROW 55 : ... .. . ... ... ... : ... .. 8 ... ... ... : ... .. . ... : ... .. 0 ... : ... .. . ... ... : ... .. . ... ... : ... .. . ... ... : ... .. . ... ...
ROW 56 : ... .. . ... ... ... : G-2 00 8 ... ... ... : ... .. . ... : 2-# 00 F ... : ... .. . ... ... : F#3 01 5 ... ... : D-3 01 6 P80 ... : C#4 01 A P80 ...
ROW 57 : ... .. . ... ... ... : ... .. B ... ... ... : ... .. . ... : ... .. C ... : ... .. . ... ... : ... .. 4 ... ... : ... .. . ... ... : ... .. 8 ... ...
ROW 58 : ... .. . ... ... ... : ... .. 8 ... ... ... : ... .. . ... : ... .. 6 ... : ... .. . ... ... : ... .. . ... ... : ... .. 5 ... ... : ... .. 5 ... ...
ROW 59 : ... .. . ... ... ... : ... .. 0 ... ... ... : ... .. . ... : ... .. 3 ... : ... .. . ... ... : G-3 01 5 ... ... : --- .. . P82 ... : --- .. . ... ...
ROW 5A : ... .. . ... ... ... : G-2 00 5 P80 ... ... : ... .. . ... : ... .. 2 ... : ... .. . ... ... : ... .. 4 ... ... : ... .. . ... ... : ... .. . ... ...
ROW 5B : ... .. . ... ... ... : ... .. 8 ... ... ... : ... .. . ... : ... .. 0 ... : ... .. . ... ... : ... .. . ... ... : ... .. . ... ... : ... .. . ... ...
ROW 5C : ... .. . ... ... ... : A-2 00 8 ... ... ... : E-3 00 . P85 : 1-# 00 F ... : ... .. . ... ... : A-3 01 5 ... ... : G-3 01 6 P80 ... : D-4 01 A ... ...
ROW 5D : ... .. 2 ... ... ... : ... .. B ... ... ... : D#3 00 . P7A : ... .. C ... : ... .. . ... ... : ... .. 4 ... ... : ... .. . ... ... : ... .. 8 ... ...
ROW 5E : ... .. . ... ... ... : ... .. 8 ... ... ... : C#3 00 . P86 : ... .. 6 ... : ... .. . ... ... : ... .. . ... ... : ... .. 5 ... ... : ... .. 5 ... ...
ROW 5F : ... .. . ... ... ... : ... .. 0 ... ... ... : C-3 00 . P7E : ... .. 3 ... : ... .. . ... ... : B-3 01 5 ... ... : ... .. 4 ... ... : ... .. . ... ...
ROW 60 : ... .. 1 ... ... ... : A-2 00 5 P80 ... ... : B-2 00 . P77 : ... .. 2 ... : ... .. . ... ... : ... .. 4 ... ... : ... .. . ... ... : ... .. . ... ...
ROW 61 : ... .. . ... ... ... : ... .. 8 ... ... ... : A-2 00 . P8E : ... .. 0 ... : ... .. . ... ... : ... .. . ... ... : ... .. . ... ... : ... .. . ... ...
ROW 62 : C#4 00 F ... ... ... : B-2 00 8 ... ... ... : G#2 00 . P8D : C-# 00 F ... : ... .. . ... ... : C#4 01 5 ... ... : ... .. . ... ... : ... .. . ... ...
ROW 63 : ... .. E ... ... ... : ... .. B ... ... ... : G-2 00 . ... : ... .. C ... : ... .. . ... ... : ... .. 4 ... ... : ... .. 3 ... ... : ... .. . ... ...
ROW 64 : ... .. D ... ... ... : ... .. 8 ... ... ... : F#2 00 . P8F : ... .. 6 ... : ... .. . ... ... : ... .. . ... ... : ... .. . ... ... : ... .. . ... ...
ROW 65 : ... .. A ... ... ... : ... .. 0 ... ... ... : ... .. . P6F : ... .. 3 ... : ... .. . ... ... : D-4 01 5 ... ... : ... .. . ... ... : ... .. . ... ...
ROW 66 : ... .. . ... ... ... : B-2 00 5 P80 ... ... : F-2 00 . P73 : ... .. 2 ... : ... .. . ... ... : ... .. 4 ... ... : ... .. . ... ... : ... .. . ... ...
ROW 67 : ... .. . ... ... ... : ... .. 8 ... ... ... : E-2 00 . P79 : ... .. 0 ... : ... .. . ... ... : ... .. . ... ... : ... .. . ... ... : ... .. . ... ...
ROW 68 : ... .. . ... ... ... : F#2 00 8 ... ... ... : F-4 00 . P80 : 7-# 00 F ... : ... .. . ... ... : E-4 01 5 ... ... : ... .. . ... ... : ... .. . ... ...
ROW 69 : ... .. . ... ... ... : ... .. B ... ... ... : G-3 00 . ... : ... .. C ... : ... .. . ... ... : ... .. 4 ... ... : ... .. . ... ... : ... .. . ... ...
ROW 6A : ... .. . ... ... ... : ... .. 8 ... ... ... : C-3 00 . ... : ... .. 6 ... : ... .. . ... ... : ... .. . ... ... : ... .. . ... ... : ... .. . ... ...
ROW 6B : ... .. . ... ... ... : ... .. 0 ... ... ... : B-2 00 . ... : ... .. 3 ... : ... .. . ... ... : F#4 01 5 ... ... : ... .. . ... ... : ... .. . ... ...
ROW 6C : ... .. . ... ... ... : F#2 00 5 P80 ... ... : F#2 00 . ... : ... .. 2 ... : ... .. . ... ... : ... .. 4 ... ... : ... .. . ... ... : ... .. . ... ...
ROW 6D : ... .. . ... ... ... : ... .. 8 ... ... ... : ... .. . ... : ... .. 0 ... : ... .. . ... ... : ... .. . ... ... : ... .. . ... ... : ... .. . ... ...
ROW 6E : ... .. . ... ... ... : G-2 00 8 ... ... ... : ... .. . ... : 1-# 00 F ... : ... .. . ... ... : G-4 01 5 ... ... : ... .. . ... ... : ... .. . ... ...
ROW 6F : ... .. 2 ... ... ... : ... .. B ... ... ... : ... .. . ... : ... .. C ... : ... .. . ... ... : ... .. 4 ... ... : ... .. . ... ... : ... .. . ... ...
ROW 70 : ... .. . ... ... ... : ... .. 8 ... ... ... : ... .. . ... : ... .. 6 ... : ... .. . ... ... : ... .. . ... ... : ... .. . ... ... : ... .. . ... ...
ROW 71 : ... .. . ... ... ... : ... .. 0 ... ... ... : ... .. . ... : ... .. 3 ... : ... .. . ... ... : A-4 01 5 ... ... : ... .. . ... ... : ... .. . ... ...
ROW 72 : ... .. 1 ... ... ... : G-2 00 5 P80 ... ... : ... .. . ... : ... .. 2 ... : ... .. . ... ... : ... .. 4 ... ... : ... .. . ... ... : ... .. . ... ...
ROW 73 : ... .. . ... ... ... : ... .. 8 ... ... ... : ... .. . ... : ... .. 0 ... : ... .. . ... ... : ... .. . ... ... : ... .. . ... ... : ... .. . ... ...
ROW 74 : B-3 00 F ... ... ... : A-2 00 8 ... ... ... : ... .. . ... : C-# 00 F ... : ... .. . ... ... : B-4 01 5 ... ... : ... .. . ... ... : ... .. . ... ...
ROW 75 : ... .. E ... ... ... : ... .. B ... ... ... : ... .. . ... : ... .. C ... : ... .. . ... ... : ... .. 4 ... ... : ... .. . ... ... : ... .. . ... ...
ROW 76 : ... .. D ... ... ... : ... .. 8 ... ... ... : ... .. . ... : ... .. 6 ... : ... .. . ... ... : ... .. . ... ... : ... .. . ... ... : ... .. . ... ...
ROW 77 : ... .. A ... ... ... : ... .. 0 ... ... ... : ... .. . ... : ... .. 3 ... : ... .. . ... ... : C#5 01 5 ... ... : ... .. . ... ... : ... .. . ... ...
ROW 78 : ... .. . ... ... ... : A-2 00 5 P80 ... ... : ... .. . ... : ... .. 2 ... : ... .. . ... ... : ... .. 4 ... ... : ... .. . ... ... : ... .. . ... ...
ROW 79 : ... .. . ... ... ... : ... .. 8 ... ... ... : ... .. . ... : ... .. 0 ... : ... .. . ... ... : ... .. . ... ... : ... .. . ... ... : ... .. . ... ...
ROW 7A : ... .. . ... ... ... : B-2 00 8 ... ... ... : ... .. . ... : 7-# 00 F ... : ... .. . ... ... : D-5 01 5 ... ... : --- .. . P81 ... : --- .. . ... ...
ROW 7B : ... .. . ... ... ... : ... .. B ... ... ... : ... .. . ... : ... .. C ... : ... .. . ... ... : ... .. 4 ... ... : ... .. . ... ... : ... .. . ... ...
ROW 7C : ... .. . ... ... ... : ... .. 8 ... ... ... : ... .. . ... : ... .. 6 ... : ... .. . ... ... : ... .. . ... ... : ... .. . ... ... : ... .. . ... ...
ROW 7D : ... .. . ... ... ... : ... .. 0 ... ... ... : ... .. . ... : ... .. 3 ... : ... .. . ... ... : E-5 01 5 ... ... : ... .. . ... ... : ... .. . ... ...
ROW 7E : ... .. . ... ... ... : B-2 00 5 P80 ... ... : ... .. . ... : ... .. 2 ... : ... .. . ... ... : ... .. 4 ... ... : ... .. . ... ... : ... .. . ... ...
ROW 7F : ... .. . ... ... ... : ... .. 8 ... ... ... : ... .. . ... : ... .. 0 ... : ... .. . ... ... : ... .. . ... ... : ... .. . ... ... : ... .. . ... ...
ROW 80 : ... .. . ... ... ... : F#2 00 8 ... ... ... : F-5 00 . ... : 1-# 00 F ... : ... .. . ... ... : F#5 01 5 ... ... : D-3 01 6 P80 ... : B-3 01 A ... ...
ROW 81 : ... .. . ... ... ... : ... .. B ... ... ... : G-4 00 . ... : ... .. C ... : ... .. . ... ... : ... .. 4 ... ... : ... .. . ... ... : ... .. 8 ... ...
ROW 82 : ... .. . ... ... ... : ... .. 8 ... ... ... : C-4 00 . ... : ... .. 6 ... : ... .. . ... ... : ... .. . ... ... : ... .. 5 ... ... : ... .. 5 ... ...
ROW 83 : ... .. . ... ... ... : ... .. 0 ... ... ... : B-3 00 . ... : ... .. 3 ... : ... .. . ... ... : E-5 01 5 ... ... : ... .. 4 ... ... : ... .. . ... ...
ROW 84 : ... .. . ... ... ... : F#2 00 5 P80 ... ... : F#3 00 . ... : ... .. 2 ... : ... .. . ... ... : ... .. 4 ... ... : ... .. . ... ... : ... .. . ... ...
ROW 85 : ... .. . ... ... ... : ... .. 8 ... ... ... : ... .. . ... : ... .. 0 ... : ... .. . ... ... : ... .. . ... ... : ... .. . ... ... : ... .. . ... ...
ROW 86 : ... .. . ... ... ... : G-2 00 8 ... ... ... : ... .. . ... : B-# 00 F ... : ... .. . ... ... : D-5 01 5 ... ... : ... .. . ... ... : ... .. . ... ...
ROW 87 : ... .. . ... ... ... : ... .. B ... ... ... : ... .. . ... : ... .. C ... : ... .. . ... ... : ... .. 4 ... ... : ... .. 3 ... ... : ... .. . ... ...
ROW 88 : ... .. . ... ... ... : ... .. 8 ... ... ... : ... .. . ... : ... .. 6 ... : ... .. . ... ... : ... .. . ... ... : ... .. . ... ... : ... .. . ... ...
ROW 89 : ... .. . ... ... ... : ... .. 0 ... ... ... : ... .. . ... : ... .. 3 ... : ... .. . ... ... : C#5 01 5 ... ... : ... .. . ... ... : ... .. . ... ...
ROW 8A : ... .. . ... ... ... : G-2 00 5 P80 ... ... : ... .. . ... : ... .. 2 ... : ... .. . ... ... : ... .. 4 ... ... : ... .. . ... ... : ... .. . ... ...
ROW 8B : ... .. . ... ... ... : ... .. 8 ... ... ... : ... .. . ... : ... .. 0 ... : ... .. . ... ... : ... .. . ... ... : ... .. . ... ... : ... .. . ... ...
ROW 8C : ... .. . ... ... ... : A-2 00 8 ... ... ... : E-3 00 . P85 : 7-# 00 F ... : ... .. . ... ... : B-4 01 5 ... ... : ... .. . ... ... : ... .. . ... ...
ROW 8D : ... .. . ... ... ... : ... .. B ... ... ... : D#3 00 . P7A : ... .. C ... : ... .. . ... ... : ... .. 4 ... ... : ... .. . ... ... : ... .. . ... ...
ROW 8E : ... .. . ... ... ... : ... .. 8 ... ... ... : C#3 00 . P86 : ... .. 6 ... : ... .. . ... ... : ... .. . ... ... : ... .. . ... ... : ... .. . ... ...
ROW 8F : ... .. . ... ... ... : ... .. 0 ... ... ... : C-3 00 . P7E : ... .. 3 ... : ... .. . ... ... : A-4 01 5 ... ... : ... .. . ... ... : ... .. . ... ...
ROW 90 : ... .. . ... ... ... : A-2 00 5 P80 ... ... : B-2 00 . P77 : ... .. 2 ... : ... .. . ... ... : ... .. 4 ... ... : ... .. . ... ... : ... .. . ... ...
ROW 91 : ... .. . ... ... ... : ... .. 8 ... ... ... : A-2 00 . P8E : ... .. 0 ... : ... .. . ... ... : ... .. . ... ... : ... .. . ... ... : ... .. . ... ...
ROW 92 : ... .. . ... ... ... : B-2 00 8 ... ... ... : G#2 00 . P8D : 1-# 00 F ... : ... .. . ... ... : G-4 01 5 ... ... : ... .. . ... ... : ... .. . ... ...
ROW 93 : ... .. . ... ... ... : ... .. B ... ... ... : G-2 00 . ... : ... .. C ... : ... .. . ... ... : ... .. 4 ... ... : ... .. . ... ... : ... .. . ... ...
ROW 94 : ... .. . ... ... ... : ... .. 8 ... ... ... : F#2 00 . P8F : ... .. 6 ... : ... .. . ... ... : ... .. . ... ... : ... .. . ... ... : ... .. . ... ...
ROW 95 : ... .. . ... ... ... : ... .. 0 ... ... ... : ... .. . P6F : ... .. 3 ... : ... .. . ... ... : F#4 01 5 ... ... : ... .. . ... ... : ... .. . ... ...
ROW 96 : ... .. . ... ... ... : B-2 00 5 P80 ... ... : F-2 00 . P73 : ... .. 2 ... : ... .. . ... ... : ... .. 4 ... ... : ... .. . ... ... : ... .. . ... ...
ROW 97 : ... .. . ... ... ... : ... .. 8 ... ... ... : E-2 00 . P79 : ... .. 0 ... : ... .. . ... ... : ... .. . ... ... : ... .. . ... ... : ... .. . ... ...
ROW 98 : ... .. . ... ... ... : F#2 00 8 ... ... ... : F-4 00 . P80 : 9-# 00 F ... : ... .. . ... ... : E-4 01 5 ... ... : ... .. 6 ... ... : ... .. A ... ...
ROW 99 : ... .. . ... ... ... : ... .. B ... ... ... : G-3 00 . ... : ... .. C ... : ... .. . ... ... : ... .. 4 ... ... : ... .. . ... ... : ... .. 8 ... ...
ROW 9A : ... .. . ... ... ... : ... .. 8 ... ... ... : C-3 00 . ... : ... .. 6 ... : ... .. . ... ... : ... .. . ... ... : ... .. 5 ... ... : ... .. 5 ... ...
ROW 9B : ... .. . ... ... ... : ... .. 0 ... ... ... : B-2 00 . ... : ... .. 3 ... : ... .. . ... ... : D-4 01 5 ... ... : ... .. 4 ... ... : ... .. . ... ...
ROW 9C : ... .. . ... ... ... : F#2 00 5 P80 ... ... : F#2 00 . ... : ... .. 2 ... : ... .. . ... ... : ... .. 4 ... ... : ... .. . ... ... : ... .. . ... ...
ROW 9D : ... .. . ... ... ... : ... .. 8 ... ... ... : ... .. . ... : ... .. 0 ... : ... .. . ... ... : ... .. . ... ... : ... .. . ... ... : ... .. . ... ...
ROW 9E : ... .. . ... ... ... : G-2 00 8 ... ... ... : ... .. . ... : ... .. F ... : ... .. . ... ... : C-4 01 5 ... ... : G-3 01 6 ... ... : D-4 01 A ... ...
ROW 9F : ... .. . ... ... ... : ... .. B ... ... ... : ... .. . ... : ... .. C ... : ... .. . ... ... : ... .. 4 ... ... : ... .. . ... ... : ... .. 8 ... ...
ROW A0 : ... .. . ... ... ... : ... .. 8 ... ... ... : ... .. . ... : ... .. 6 ... : ... .. . ... ... : ... .. . ... ... : ... .. 5 ... ... : ... .. 5 ... ...
ROW A1 : ... .. . ... ... ... : ... .. 0 ... ... ... : ... .. . ... : ... .. 3 ... : ... .. . ... ... : C#4 01 5 ... ... : ... .. 4 ... ... : ... .. . ... ...
ROW A2 : ... .. . ... ... ... : G-2 00 5 P80 ... ... : ... .. . ... : ... .. 2 ... : ... .. . ... ... : ... .. 4 ... ... : ... .. . ... ... : ... .. . ... ...
ROW A3 : ... .. . ... ... ... : ... .. 8 ... ... ... : ... .. . ... : ... .. 0 ... : ... .. . ... ... : ... .. . ... ... : ... .. . ... ... : ... .. . ... ...
ROW A4 : ... .. . P84 ... ... : A-2 00 8 ... ... ... : ... .. . ... : 7-# 00 F ... : ... .. . ... ... : B-3 01 5 ... ... : B-3 01 6 ... ... : G-4 01 A ... ...
ROW A5 : ... .. . P86 ... ... : ... .. B ... ... ... : ... .. . ... : ... .. C ... : ... .. . ... ... : ... .. 4 ... ... : ... .. . ... ... : ... .. 8 ... ...
ROW A6 : ... .. . P85 ... ... : ... .. 8 ... ... ... : ... .. . ... : ... .. 6 ... : ... .. . ... ... : ... .. . ... ... : ... .. 5 ... ... : ... .. 5 ... ...
ROW A7 : ... .. . P82 ... ... : ... .. 0 ... ... ... : ... .. . ... : ... .. 3 ... : ... .. . ... ... : A-3 01 5 ... ... : ... .. 4 ... ... : ... .. . ... ...
ROW A8 : ... .. . P7E ... ... : A-2 00 5 P80 ... ... : ... .. . ... : ... .. 2 ... : ... .. . ... ... : ... .. 4 ... ... : ... .. . ... ... : ... .. . ... ...
ROW A9 : ... .. . P7B ... ... : ... .. 8 ... ... ... : ... .. . ... : ... .. 0 ... : ... .. . ... ... : ... .. . ... ... : ... .. . ... ... : ... .. . ... ...
ROW AA : ... .. . P7A ... ... : B-2 00 8 ... ... ... : ... .. . ... : ... .. F ... : ... .. . ... ... : G-3 01 5 ... ... : D-4 01 6 ... ... : B-4 01 A ... ...
ROW AB : ... .. . P7C ... ... : ... .. B ... ... ... : ... .. . ... : ... .. C ... : ... .. . ... ... : ... .. 4 ... ... : ... .. . ... ... : ... .. 8 ... ...
ROW AC : ... .. . P80 ... ... : ... .. 8 ... ... ... : ... .. . ... : ... .. 6 ... : ... .. . ... ... : ... .. . ... ... : ... .. 5 ... ... : ... .. 5 ... ...
ROW AD : ... .. . P83 ... ... : ... .. 0 ... ... ... : ... .. . ... : ... .. 3 ... : ... .. . ... ... : F#3 01 5 ... ... : ... .. 4 ... ... : ... .. . ... ...
ROW AE : ... .. . P86 ... ... : B-2 00 5 P80 ... ... : ... .. . ... : ... .. 2 ... : ... .. . ... ... : ... .. 4 ... ... : ... .. . ... ... : ... .. . ... ...
ROW AF : ... .. . ... ... ... : ... .. 8 ... ... ... : ... .. . ... : ... .. 0 ... : ... .. . ... ... : ... .. . ... ... : ... .. . ... ... : ... .. . ... ...
ROW B0 : ... .. . P82 ... ... : A-2 00 8 ... ... ... : F-5 00 . ... : 9-# 00 F ... : ... .. . ... ... : D-3 01 5 ... ... : G-4 01 6 ... ... : C#5 01 A ... ...
ROW B1 : ... .. . P7F ... ... : ... .. B ... ... ... : G-4 00 . ... : ... .. C ... : ... .. . ... ... : ... .. 4 ... ... : ... .. . ... ... : ... .. 8 ... ...
ROW B2 : ... .. . P7B ... ... : ... .. 8 ... ... ... : C-4 00 . ... : ... .. 6 ... : ... .. . ... ... : ... .. . ... ... : ... .. 5 ... ... : ... .. 5 ... ...
ROW B3 : ... .. . P7A ... ... : ... .. 0 ... ... ... : B-3 00 . ... : ... .. 3 ... : ... .. . ... ... : E-3 01 5 ... ... : ... .. 3 ... ... : ... .. 4 ... ...
ROW B4 : ... .. . P7C ... ... : A-2 00 5 P80 ... ... : F#3 00 . ... : ... .. 2 ... : ... .. . ... ... : ... .. 4 ... ... : ... .. . ... ... : ... .. . ... ...
ROW B5 : ... .. . P80 ... ... : ... .. 8 ... ... ... : ... .. . ... : ... .. 0 ... : ... .. . ... ... : ... .. . ... ... : ... .. . ... ... : ... .. . ... ...
ROW B6 : ... .. . P83 ... ... : B-2 00 8 ... ... ... : ... .. . ... : 2-# 00 F ... : ... .. . ... ... : F#3 01 5 ... ... : ... .. 2 ... ... : ... .. 3 ... ...
ROW B7 : ... .. . P86 ... ... : ... .. B ... ... ... : ... .. . ... : ... .. C ... : ... .. . ... ... : ... .. 4 ... ... : ... .. . ... ... : ... .. . ... ...
ROW B8 : ... .. . ... ... ... : ... .. 8 ... ... ... : ... .. . ... : ... .. 6 ... : ... .. . ... ... : ... .. . ... ... : ... .. . ... ... : ... .. . ... ...
ROW B9 : ... .. . P83 ... ... : ... .. 0 ... ... ... : ... .. . ... : ... .. 3 ... : ... .. . ... ... : G-3 01 5 ... ... : ... .. . ... ... : ... .. . ... ...
ROW BA : ... .. . P80 ... ... : B-2 00 5 P80 ... ... : ... .. . ... : ... .. 2 ... : ... .. . ... ... : ... .. 4 ... ... : ... .. . ... ... : ... .. . ... ...
ROW BB : ... .. . P7C ... ... : ... .. 8 ... ... ... : ... .. . ... : ... .. 0 ... : ... .. . ... ... : ... .. . ... ... : ... .. . ... ... : ... .. . ... ...
ROW BC : ... .. . P7A ... ... : C#3 00 8 ... ... ... : E-3 00 . P85 : 1-# 00 F ... : ... .. . ... ... : A-3 01 5 ... ... : ... .. 1 ... ... : ... .. 2 ... ...
ROW BD : ... .. . P7B ... ... : ... .. B ... ... ... : D#3 00 . P7A : ... .. C ... : ... .. . ... ... : ... .. 4 ... ... : ... .. . ... ... : ... .. . ... ...
ROW BE : ... .. . P7F ... ... : ... .. 8 ... ... ... : C#3 00 . P86 : ... .. 6 ... : ... .. . ... ... : ... .. . ... ... : ... .. . ... ... : ... .. . ... ...
ROW BF : ... .. . P82 ... ... : ... .. 0 ... ... ... : C-3 00 . P7E : ... .. 3 ... : ... .. . ... ... : B-3 01 5 ... ... : ... .. . ... ... : ... .. . ... ...
ROW C0 : ... .. . P86 ... ... : C#3 00 5 P80 ... ... : B-2 00 . P77 : ... .. 2 ... : ... .. . ... ... : ... .. 4 ... ... : ... .. . ... ... : ... .. . ... ...
ROW C1 : ... .. . ... ... ... : ... .. 8 ... ... ... : A-2 00 . P8E : ... .. 0 ... : ... .. . ... ... : ... .. . ... ... : ... .. . ... ... : ... .. . ... ...
ROW C2 : ... .. . P83 ... ... : D-3 00 8 ... ... ... : G#2 00 . P8D : C-# 00 F ... : ... .. . ... ... : C#4 01 5 ... ... : ... .. . ... ... : ... .. . ... ...
ROW C3 : ... .. . P80 ... ... : ... .. B ... ... ... : G-2 00 . ... : ... .. C ... : ... .. . ... ... : ... .. 4 ... ... : ... .. . ... ... : ... .. . ... ...
ROW C4 : ... .. . P7C ... ... : ... .. 8 ... ... ... : F#2 00 . P8F : ... .. 6 ... : ... .. . ... ... : ... .. . ... ... : ... .. . ... ... : ... .. . ... ...
ROW C5 : ... .. . P7A ... ... : ... .. 0 ... ... ... : ... .. . P6F : ... .. 3 ... : ... .. . ... ... : D-4 01 5 ... ... : ... .. 2 ... ... : ... .. 3 ... ...
ROW C6 : ... .. . P7B ... ... : D-3 00 5 P80 ... ... : F-2 00 . P73 : ... .. 2 ... : ... .. . ... ... : ... .. 4 ... ... : ... .. . ... ... : ... .. . ... ...
ROW C7 : ... .. . P7E ... ... : ... .. 8 ... ... ... : E-2 00 . P79 : ... .. 0 ... : ... .. . ... ... : ... .. . ... ... : ... .. . ... ... : ... .. . ... ...
ROW C8 : ... .. . P82 ... ... : C#3 00 8 ... ... ... : F-4 00 . P80 : 7-# 00 F ... : ... .. . ... ... : E-4 01 5 ... ... : ... .. . P84 ... : D-5 01 3 P7E ...
ROW C9 : ... .. . P85 ... ... : ... .. B ... ... ... : G-3 00 . ... : ... .. C ... : ... .. . ... ... : ... .. 4 ... ... : G#4 01 2 P7E ... : ... .. . P80 ...
ROW CA : ... .. . P86 ... ... : ... .. 8 ... ... ... : C-3 00 . ... : ... .. 6 ... : ... .. . ... ... : ... .. . ... ... : ... .. . P7D ... : ... .. . P7F ...
ROW CB : ... .. . P84 ... ... : ... .. 0 ... ... ... : B-2 00 . ... : ... .. 3 ... : ... .. . ... ... : F#4 01 5 ... ... : G-4 01 2 P82 ... : C#5 01 4 P82 ...
ROW CC : ... .. . P80 ... ... : C#3 00 5 P80 ... ... : F#2 00 . ... : ... .. 2 ... : ... .. . ... ... : ... .. 4 ... ... : ... .. . P7E ... : ... .. . P7E ...
ROW CD : ... .. . P7D ... ... : ... .. 8 ... ... ... : ... .. . ... : ... .. 0 ... : ... .. . ... ... : ... .. . ... ... : F#4 01 2 P83 ... : C-5 01 4 P82 ...
ROW CE : ... .. . P7A ... ... : D-3 00 8 ... ... ... : ... .. . ... : 1-# 00 F ... : ... .. . ... ... : G-4 01 5 ... ... : ... .. 3 P82 ... : ... .. 5 P81 ...
ROW CF : ... .. . ... ... ... : ... .. B ... ... ... : ... .. . ... : ... .. C ... : ... .. . ... ... : ... .. 4 ... ... : ... .. . P84 ... : ... .. . P83 ...
ROW D0 : ... .. . P7E ... ... : ... .. 8 ... ... ... : ... .. . ... : ... .. 6 ... : ... .. . ... ... : ... .. . ... ... : G-4 01 3 P80 ... : C#5 01 5 P80 ...
ROW D1 : ... .. . P81 ... ... : ... .. 0 ... ... ... : ... .. . ... : ... .. 3 ... : ... .. . ... ... : A-4 01 5 ... ... : ... .. . P83 ... : ... .. . P83 ...
ROW D2 : ... .. . P85 ... ... : D-3 00 5 P80 ... ... : ... .. . ... : ... .. 2 ... : ... .. . ... ... : ... .. 4 ... ... : G#4 01 3 P7E ... : D-5 01 5 P80 ...
ROW D3 : ... .. . P86 ... ... : ... .. 8 ... ... ... : ... .. . ... : ... .. 0 ... : ... .. . ... ... : ... .. . ... ... : ... .. . ... ... : ... .. . ... ...
ROW D4 : ... .. . P84 ... ... : E-3 00 8 ... ... ... : ... .. . ... : C-# 00 F ... : ... .. . ... ... : B-4 01 5 ... ... : G-4 01 4 P82 ... : C#5 01 6 P82 ...
ROW D5 : ... .. . P80 ... ... : ... .. B ... ... ... : ... .. . ... : ... .. C ... : ... .. . ... ... : ... .. 4 ... ... : ... .. . P7F ... : ... .. . P7F ...
ROW D6 : ... .. . P7D ... ... : ... .. 8 ... ... ... : ... .. . ... : ... .. 6 ... : ... .. . ... ... : ... .. . ... ... : F#4 01 4 P83 ... : C-5 01 6 P82 ...
ROW D7 : ... .. . P7A ... ... : ... .. 0 ... ... ... : ... .. . ... : ... .. 3 ... : ... .. . ... ... : C#5 01 5 ... ... : ... .. . P82 ... : ... .. . P81 ...
ROW D8 : ... .. 2 ... ... ... : E-3 00 5 P80 ... ... : ... .. . ... : ... .. 2 ... : ... .. . ... ... : ... .. 4 ... ... : ... .. . P84 ... : ... .. . P83 ...
ROW D9 : ... .. . P7D ... ... : ... .. 8 ... ... ... : ... .. . ... : ... .. 0 ... : ... .. . ... ... : ... .. . ... ... : G-4 01 4 P80 ... : C#5 01 6 P80 ...
ROW DA : ... .. . P80 ... ... : F#3 00 8 ... ... ... : ... .. . ... : 7-# 00 F ... : ... .. . ... ... : D-5 01 5 ... ... : ... .. 5 P83 ... : ... .. 8 P83 ...
ROW DB : ... .. 1 P84 ... ... : ... .. B ... ... ... : ... .. . ... : ... .. C ... : ... .. . ... ... : ... .. 4 ... ... : G#4 01 5 P7E ... : D-5 01 8 P80 ...
ROW DC : ... .. . P86 ... ... : ... .. 8 ... ... ... : ... .. . ... : ... .. 6 ... : ... .. . ... ... : ... .. . ... ... : ... .. . ... ... : ... .. . ... ...
ROW DD : ... .. . P85 ... ... : ... .. 0 ... ... ... : ... .. . ... : ... .. 3 ... : ... .. . ... ... : E-5 01 5 ... ... : G-4 01 4 P83 ... : C#5 01 6 P83 ...
ROW DE : ... .. 0 ... ... ... : F#3 00 5 P80 ... ... : ... .. . ... : ... .. 2 ... : ... .. . ... ... : ... .. 4 ... ... : ... .. . P80 ... : ... .. . P80 ...
ROW DF : ... .. . ... ... ... : ... .. 8 ... ... ... : ... .. . ... : ... .. 0 ... : ... .. . ... ... : ... .. . ... ... : F#4 01 4 P84 ... : C-5 01 6 P83 ...
ROW E0 : G-3 00 F P80 ... ... : G-3 00 8 ... ... ... : F-5 00 . ... : 1-# 00 F ... : ... .. . ... ... : F#5 01 5 ... ... : G-4 01 6 P80 ... : C#5 01 A P80 ...
ROW E1 : ... .. E ... ... ... : ... .. B ... ... ... : G-4 00 . ... : ... .. C ... : ... .. . ... ... : ... .. 4 ... ... : ... .. . ... ... : ... .. 8 ... ...
ROW E2 : ... .. D ... ... ... : ... .. 8 ... ... ... : C-4 00 . ... : ... .. 6 ... : ... .. . ... ... : ... .. . ... ... : ... .. 5 ... ... : ... .. 5 ... ...
ROW E3 : ... .. A ... ... ... : ... .. 0 ... ... ... : B-3 00 . ... : ... .. 3 ... : ... .. . ... ... : E-5 01 5 ... ... : ... .. 4 ... ... : ... .. . ... ...
ROW E4 : ... .. . ... ... ... : G-3 00 5 P80 ... ... : F#3 00 . ... : ... .. 2 ... : ... .. . ... ... : ... .. 4 ... ... : ... .. . ... ... : ... .. . ... ...
ROW E5 : ... .. . ... ... ... : ... .. 8 ... ... ... : ... .. . ... : ... .. 0 ... : ... .. . ... ... : ... .. . ... ... : ... .. . ... ... : ... .. . ... ...
ROW E6 : ... .. . ... ... ... : A-3 00 8 ... ... ... : ... .. . ... : B-# 00 F ... : ... .. . ... ... : D-5 01 5 ... ... : ... .. . ... ... : ... .. . ... ...
ROW E7 : ... .. . ... ... ... : ... .. B ... ... ... : ... .. . ... : ... .. C ... : ... .. . ... ... : ... .. 4 ... ... : ... .. 3 ... ... : ... .. . ... ...
ROW E8 : ... .. . ... ... ... : ... .. 8 ... ... ... : ... .. . ... : ... .. 6 ... : ... .. . ... ... : ... .. . ... ... : ... .. . ... ... : ... .. . ... ...
ROW E9 : ... .. 0 ... ... ... : ... .. 0 ... ... ... : ... .. . ... : ... .. 3 ... : ... .. . ... ... : C#5 01 5 ... ... : --- .. . ... ... : --- .. . ... ...
ROW EA : ... .. . ... ... ... : A-3 00 5 P80 ... ... : ... .. . ... : ... .. 2 ... : ... .. . ... ... : ... .. 4 ... ... : ... .. . ... ... : ... .. . ... ...
ROW EB : ... .. . ... ... ... : ... .. 8 ... ... ... : ... .. . ... : ... .. 0 ... : ... .. . ... ... : ... .. . ... ... : ... .. . ... ... : ... .. . ... ...
ROW EC : G-3 00 D P80 ... ... : B-3 00 8 ... ... ... : E-3 00 . P85 : 7-# 00 F ... : ... .. . ... ... : B-4 01 5 ... ... : G-4 01 5 ... ... : C#5 01 8 ... ...
ROW ED : ... .. A ... ... ... : ... .. B ... ... ... : D#3 00 . P7A : ... .. C ... : ... .. . ... ... : ... .. 4 ... ... : ... .. 3 ... ... : ... .. 5 ... ...
ROW EE : ... .. 7 ... ... ... : ... .. 8 ... ... ... : C#3 00 . P86 : ... .. 6 ... : ... .. . ... ... : ... .. . ... ... : ... .. 2 ... ... : ... .. 2 ... ...
ROW EF : ... .. 4 ... ... ... : ... .. 0 ... ... ... : C-3 00 . P7E : ... .. 3 ... : ... .. . ... ... : A-4 01 5 ... ... : ... .. 1 ... ... : ... .. 1 ... ...
ROW F0 : ... .. D ... ... ... : B-3 00 5 P80 ... ... : B-2 00 . P77 : ... .. 2 ... : ... .. . ... ... : ... .. 4 ... ... : ... .. 5 ... ... : ... .. 8 ... ...
ROW F1 : ... .. A ... ... ... : ... .. 8 ... ... ... : A-2 00 . P8E : ... .. 0 ... : ... .. . ... ... : ... .. . ... ... : ... .. 3 ... ... : ... .. 5 ... ...
ROW F2 : ... .. 7 ... ... ... : C#4 00 8 ... ... ... : G#2 00 . P8D : 1-# 00 F ... : ... .. . ... ... : G-4 01 5 ... ... : ... .. 2 ... ... : ... .. 2 ... ...
ROW F3 : ... .. 4 ... ... ... : ... .. B ... ... ... : G-2 00 . ... : ... .. C ... : ... .. . ... ... : ... .. 4 ... ... : ... .. 1 ... ... : ... .. 1 ... ...
ROW F4 : ... .. D ... ... ... : ... .. 8 ... ... ... : F#2 00 . P8F : ... .. 6 ... : ... .. . ... ... : ... .. . ... ... : ... .. 5 ... ... : ... .. 8 ... ...
ROW F5 : ... .. A ... ... ... : ... .. 0 ... ... ... : ... .. . P6F : ... .. 3 ... : ... .. . ... ... : F#4 01 5 ... ... : ... .. 3 ... ... : ... .. 5 ... ...
ROW F6 : ... .. 7 ... ... ... : C#4 00 5 P80 ... ... : F-2 00 . P73 : ... .. 2 ... : ... .. . ... ... : ... .. 4 ... ... : ... .. 2 ... ... : ... .. 2 ... ...
ROW F7 : ... .. 4 ... ... ... : ... .. 8 ... ... ... : E-2 00 . P79 : ... .. 0 ... : ... .. . ... ... : ... .. . ... ... : ... .. 1 ... ... : ... .. 1 ... ...
ROW F8 : ... .. F ... ... ... : D-4 00 8 ... ... ... : F-4 00 . P80 : 9-# 00 F ... : ... .. . ... ... : E-4 01 5 ... ... : ... .. 6 ... ... : ... .. A ... ...
ROW F9 : ... .. E ... ... ... : ... .. B ... ... ... : G-3 00 . ... : ... .. C ... : ... .. . ... ... : ... .. 4 ... ... : ... .. . ... ... : ... .. 8 ... ...
ROW FA : ... .. D ... ... ... : ... .. 8 ... ... ... : C-3 00 . ... : ... .. 6 ... : ... .. . ... ... : ... .. . ... ... : ... .. 5 ... ... : ... .. 5 ... ...
ROW FB : ... .. A ... ... ... : ... .. 0 ... ... ... : B-2 00 . ... : ... .. 3 ... : ... .. . ... ... : D-4 01 5 ... ... : ... .. 4 ... ... : ... .. . ... ...
ROW FC : ... .. . ... ... ... : D-4 00 5 P80 ... ... : F#2 00 . ... : ... .. 2 ... : ... .. . ... ... : ... .. 4 ... ... : ... .. . ... ... : ... .. . ... ...
ROW FD : ... .. 0 ... ... ... : ... .. 8 ... ... ... : ... .. . ... : ... .. 0 ... : ... .. . ... ... : ... .. . ... ... : --- .. . ... ... : --- .. . ... ...
ROW FE : ... .. . ... ... ... : E-4 00 8 ... ... ... : ... .. . ... : ... .. F ... : ... .. . ... ... : C-4 01 5 ... ... : ... .. . ... ... : ... .. . ... ...
ROW FF : ... .. . ... ... ... : ... .. B ... ... ... : ... .. . ... : ... .. C ... : ... .. . ... ... : ... .. 4 ... ... : ... .. . ... ... : ... .. . ... ...

PATTERN 1A
ROW 00 : G-3 00 F P80 ... ... : ... .. 8 ... ... ... : ... .. . ... : ... .. 6 ... : ... .. . ... ... : ... .. . ... ... : G-4 01 6 ... ... : C#5 01 A ... ...
ROW 01 : ... .. E ... ... ... : ... .. 0 ... ... ... : ... .. . ... : ... .. 3 ... : ... .. . ... ... : C#4 01 5 ... ... : ... .. . ... ... : ... .. 8 ... ...
ROW 02 : ... .. D ... ... ... : E-4 00 5 P80 ... ... : ... .. . ... : ... .. 2 ... : ... .. . ... ... : ... .. 4 ... ... : ... .. 5 ... ... : ... .. 5 ... ...
ROW 03 : ... .. A ... ... ... : ... .. 8 ... ... ... : ... .. . ... : ... .. 0 ... : ... .. . ... ... : ... .. . ... ... : ... .. 4 ... ... : ... .. . ... ...
ROW 04 : ... .. 0 ... ... ... : F#4 00 8 ... ... ... : ... .. . ... : 7-# 00 F ... : ... .. . ... ... : B-3 01 5 ... ... : --- .. . ... ... : --- .. . ... ...
ROW 05 : ... .. . ... ... ... : ... .. B ... ... ... : ... .. . ... : ... .. C ... : ... .. . ... ... : ... .. 4 ... ... : ... .. . ... ... : ... .. . ... ...
ROW 06 : ... .. . ... ... ... : ... .. 8 ... ... ... : ... .. . ... : ... .. 6 ... : ... .. . ... ... : ... .. . ... ... : ... .. . ... ... : ... .. . ... ...
ROW 07 : ... .. . ... ... ... : ... .. 0 ... ... ... : ... .. . ... : ... .. 3 ... : ... .. . ... ... : A-3 01 5 ... ... : ... .. . ... ... : ... .. . ... ...
ROW 08 : G-3 00 F P80 ... ... : F#4 00 5 P80 ... ... : ... .. . ... : ... .. 2 ... : ... .. . ... ... : ... .. 4 ... ... : G-4 01 6 ... ... : C#5 01 A ... ...
ROW 09 : ... .. E ... ... ... : ... .. 8 ... ... ... : ... .. . ... : ... .. 0 ... : ... .. . ... ... : ... .. . ... ... : ... .. . ... ... : ... .. 8 ... ...
ROW 0A : ... .. D ... ... ... : G-4 00 8 ... ... ... : ... .. . ... : ... .. F ... : ... .. . ... ... : G-3 01 5 ... ... : ... .. 5 ... ... : ... .. 5 ... ...
ROW 0B : ... .. A ... ... ... : ... .. B ... ... ... : ... .. . ... : ... .. C ... : ... .. . ... ... : ... .. 4 ... ... : ... .. 4 ... ... : ... .. . ... ...
ROW 0C : ... .. . ... ... ... : ... .. 8 ... ... ... : ... .. . ... : ... .. 6 ... : ... .. . ... ... : ... .. . ... ... : ... .. . ... ... : ... .. . ... ...
ROW 0D : ... .. 0 ... ... ... : ... .. 0 ... ... ... : ... .. . ... : ... .. 3 ... : ... .. . ... ... : F#3 01 5 ... ... : --- .. . ... ... : --- .. . ... ...
ROW 0E : ... .. . ... ... ... : G-4 00 5 P80 ... ... : ... .. . ... : ... .. 2 ... : ... .. . ... ... : ... .. 4 ... ... : ... .. . ... ... : ... .. . ... ...
ROW 0F : ... .. . ... ... ... : ... .. 8 ... ... ... : ... .. . ... : ... .. 0 ... : ... .. . ... ... : ... .. . ... ... : ... .. . ... ... : ... .. . ... ...
ROW 10 : C#5 00 F P80 ... ... : G-3 00 9 ... ... ... : G#5 00 . ... : ... .. F ... : ... .. . ... ... : F-3 01 A ... ... : D-4 01 A ... ... : A#3 01 F ... ...
ROW 11 : ... .. E ... ... ... : ... .. 8 ... ... ... : A#4 00 . ... : ... .. C ... : ... .. . ... ... : ... .. 9 ... ... : ... .. 9 ... ... : ... .. D ... ...
ROW 12 : ... .. D ... ... ... : ... .. . ... ... ... : D#4 00 . ... : ... .. 6 ... : ... .. . ... ... : ... .. 8 ... ... : ... .. 8 ... ... : ... .. 8 ... ...
ROW 13 : ... .. A ... ... ... : ... .. 7 ... ... ... : D-4 00 . ... : ... .. 3 ... : ... .. . ... ... : ... .. 6 ... ... : ... .. 6 ... ... : ... .. 6 ... ...
ROW 14 : ... .. . ... ... ... : ... .. 5 ... ... ... : A-3 00 . ... : ... .. 2 ... : ... .. . ... ... : ... .. . ... ... : ... .. . ... ... : ... .. . ... ...
ROW 15 : ... .. . ... ... ... : ... .. . ... ... ... : ... .. . ... : ... .. 0 ... : ... .. . ... ... : ... .. 5 ... ... : ... .. 5 ... ... : ... .. . ... ...
ROW 16 : ... .. . ... ... ... : G#3 00 9 ... ... ... : ... .. . ... : ... .. . ... : ... .. . ... ... : ... .. 4 ... ... : ... .. 4 ... ... : ... .. 5 ... ...
ROW 17 : ... .. . ... ... ... : ... .. 8 ... ... ... : ... .. . ... : ... .. . ... : ... .. . ... ... : ... .. 3 ... ... : ... .. 3 ... ... : ... .. . ... ...
ROW 18 : ... .. . ... ... ... : ... .. . ... ... ... : ... .. . ... : ... .. F ... : ... .. . ... ... : ... .. . ... ... : ... .. . ... ... : ... .. . ... ...
ROW 19 : ... .. 0 ... ... ... : ... .. 7 ... ... ... : ... .. . ... : ... .. C ... : ... .. . ... ... : ... .. . ... ... : ... .. . ... ... : ... .. . ... ...
ROW 1A : ... .. . ... ... ... : ... .. 5 ... ... ... : ... .. . ... : ... .. 6 ... : ... .. . ... ... : ... .. . ... ... : ... .. . ... ... : ... .. . ... ...
ROW 1B : ... .. . ... ... ... : ... .. . ... ... ... : ... .. . ... : ... .. 3 ... : ... .. . ... ... : ... .. . ... ... : ... .. . ... ... : ... .. . ... ...
ROW 1C : C#5 00 D P80 ... ... : A#3 00 9 ... ... ... : G-3 00 . P7F : ... .. 2 ... : ... .. . ... ... : ... .. 2 ... ... : ... .. 2 ... ... : ... .. 4 ... ...
ROW 1D : ... .. A ... ... ... : ... .. 8 ... ... ... : F-3 00 . P82 : ... .. 0 ... : ... .. . ... ... : ... .. . ... ... : ... .. . ... ... : ... .. . ... ...
ROW 1E : ... .. 7 ... ... ... : ... .. . ... ... ... : D#3 00 . P8A : ... .. . ... : ... .. . ... ... : ... .. . ... ... : ... .. . ... ... : ... .. . ... ...
ROW 1F : ... .. 4 ... ... ... : ... .. 7 ... ... ... : D-3 00 . P7F : ... .. . ... : ... .. . ... ... : ... .. . ... ... : ... .. . ... ... : ... .. 3 ... ...
ROW 20 : ... .. D ... ... ... : ... .. 5 ... ... ... : C#3 00 . P76 : ... .. F ... : ... .. . ... ... : ... .. . ... ... : ... .. . ... ... : ... .. . ... ...
ROW 21 : ... .. A ... ... ... : ... .. . ... ... ... : B-2 00 . P87 : ... .. C ... : ... .. . ... ... : ... .. . ... ... : ... .. . ... ... : ... .. . ... ...
ROW 22 : ... .. 7 ... ... ... : B-3 00 9 ... ... ... : A#2 00 . P82 : ... .. 6 ... : ... .. . ... ... : ... .. 1 ... ... : ... .. 1 ... ... : ... .. 2 ... ...
ROW 23 : ... .. 4 ... ... ... : ... .. 8 ... ... ... : A-2 00 . P7E : ... .. 3 ... : ... .. . ... ... : ... .. . ... ... : ... .. . ... ... : ... .. . ... ...
ROW 24 : ... .. D ... ... ... : ... .. . ... ... ... : G#2 00 . P7D : ... .. 2 ... : ... .. . ... ... : ... .. . ... ... : ... .. . ... ... : ... .. . ... ...
ROW 25 : ... .. A ... ... ... : ... .. 7 ... ... ... : --- .. . ... : ... .. 0 ... : ... .. . ... ... : ... .. . ... ... : ... .. . ... ... : ... .. 1 ... ...
ROW 26 : ... .. 7 ... ... ... : ... .. 5 ... ... ... : ... .. . ... : ... .. . ... : ... .. . ... ... : ... .. . ... ... : ... .. . ... ... : ... .. . ... ...
ROW 27 : ... .. 4 ... ... ... : ... .. . ... ... ... : ... .. . ... : ... .. . ... : ... .. . ... ... : ... .. . ... ... : ... .. . ... ... : ... .. . ... ...
ROW 28 : ... .. F ... ... ... : A#3 00 9 ... ... ... : A-2 00 . P80 : ... .. F ... : ... .. . ... ... : ... .. . ... ... : ... .. . ... ... : ... .. . ... ...
ROW 29 : ... .. E ... ... ... : ... .. 8 ... ... ... : ... .. . ... : ... .. C ... : ... .. . ... ... : ... .. . ... ... : ... .. . ... ... : ... .. . ... ...
ROW 2A : ... .. D ... ... ... : ... .. . ... ... ... : ... .. . ... : ... .. 6 ... : ... .. . ... ... : ... .. . ... ... : ... .. . ... ... : ... .. . ... ...
ROW 2B : ... .. 8 ... ... ... : ... .. 7 ... ... ... : ... .. . ... : A-# 00 F ... : ... .. . ... ... : ... .. . ... ... : ... .. . ... ... : ... .. . ... ...
ROW 2C : ... .. . ... ... ... : ... .. 5 ... ... ... : ... .. . ... : ... .. . ... : ... .. . ... ... : ... .. . ... ... : ... .. . ... ... : ... .. . ... ...
ROW 2D : ... .. . ... ... ... : ... .. . ... ... ... : --- .. . ... : ... .. . ... : ... .. . ... ... : ... .. . ... ... : ... .. . ... ... : ... .. . ... ...
ROW 2E : ... .. 6 ... ... ... : C-4 00 9 ... ... ... : ... .. . ... : ... .. D ... : ... .. . ... ... : ... .. . ... ... : ... .. . ... ... : ... .. . ... ...
ROW 2F : ... .. . ... ... ... : ... .. 8 ... ... ... : ... .. . ... : ... .. . ... : ... .. . ... ... : ... .. . ... ... : ... .. . ... ... : ... .. . ... ...
ROW 30 : ... .. . ... ... ... : ... .. . ... ... ... : G-2 00 . ... : ... .. . ... : ... .. . ... ... : ... .. . ... ... : ... .. . ... ... : ... .. . ... ...
ROW 31 : ... .. 4 ... ... ... : ... .. 7 ... ... ... : ... .. . ... : ... .. C ... : ... .. . ... ... : ... .. . ... ... : ... .. . ... ... : ... .. . ... ...
ROW 32 : ... .. . ... ... ... : ... .. 5 ... ... ... : ... .. . ... : ... .. . ... : ... .. . ... ... : ... .. . ... ... : ... .. . ... ... : ... .. . ... ...
ROW 33 : ... .. . ... ... ... : ... .. . ... ... ... : ... .. . ... : ... .. . ... : ... .. . ... ... : ... .. . ... ... : ... .. . ... ... : ... .. . ... ...
ROW 34 : ... .. 2 ... ... ... : C#4 00 9 ... ... ... : --- .. . ... : ... .. B ... : ... .. . ... ... : ... .. . ... ... : ... .. . ... ... : ... .. 2 ... ...
ROW 35 : ... .. . ... ... ... : ... .. 8 ... ... ... : ... .. . ... : ... .. . ... : ... .. . ... ... : ... .. . ... ... : ... .. . ... ... : ... .. . ... ...
ROW 36 : ... .. . ... ... ... : ... .. . ... ... ... : ... .. . ... : ... .. . ... : ... .. . ... ... : ... .. . ... ... : ... .. . ... ... : ... .. . ... ...
ROW 37 : ... .. 3 ... ... ... : ... .. 7 ... ... ... : ... .. . ... : ... .. A ... : ... .. . ... ... : ... .. . ... ... : ... .. . ... ... : ... .. . ... ...
ROW 38 : ... .. . ... ... ... : ... .. 5 ... ... ... : B-2 00 . ... : ... .. . ... : ... .. . ... ... : ... .. . ... ... : ... .. . ... ... : ... .. . ... ...
ROW 39 : ... .. . ... ... ... : ... .. . ... ... ... : ... .. . ... : ... .. . ... : ... .. . ... ... : ... .. . ... ... : ... .. . ... ... : ... .. . ... ...
ROW 3A : ... .. 4 ... ... ... : D#4 00 9 ... ... ... : ... .. . ... : ... .. 9 ... : ... .. . ... ... : ... .. . ... ... : ... .. . ... ... : ... .. . ... ...
ROW 3B : ... .. . ... ... ... : ... .. 8 ... ... ... : ... .. . ... : ... .. . ... : ... .. . ... ... : ... .. . ... ... : ... .. . ... ... : ... .. . ... ...
ROW 3C : ... .. . ... ... ... : ... .. . ... ... ... : ... .. . ... : ... .. . ... : ... .. . ... ... : ... .. . ... ... : ... .. . ... ... : ... .. . ... ...
ROW 3D : ... .. 5 ... ... ... : ... .. 7 ... ... ... : --- .. . ... : ... .. 8 ... : ... .. . ... ... : ... .. . ... ... : ... .. . ... ... : ... .. . ... ...
ROW 3E : ... .. . ... ... ... : ... .. 5 ... ... ... : ... .. . ... : ... .. . ... : ... .. . ... ... : ... .. . ... ... : ... .. . ... ... : ... .. . ... ...
ROW 3F : ... .. . ... ... ... : ... .. . ... ... ... : ... .. . ... : ... .. . ... : ... .. . ... ... : ... .. . ... ... : ... .. . ... ... : ... .. . ... ...
ROW 40 : ... .. 6 ... ... ... : C#4 00 9 ... ... ... : F-3 00 . ... : ... .. 7 ... : ... .. . ... ... : G#3 01 4 ... ... : F-4 01 4 ... ... : C#4 01 6 ... ...
ROW 41 : ... .. . ... ... ... : ... .. 8 ... ... ... : ... .. . ... : ... .. . ... : ... .. . ... ... : ... .. 3 ... ... : ... .. 3 ... ... : ... .. 5 ... ...
ROW 42 : ... .. . ... ... ... : ... .. . ... ... ... : ... .. . ... : ... .. . ... : ... .. . ... ... : ... .. . ... ... : ... .. . ... ... : ... .. 3 ... ...
ROW 43 : ... .. . ... ... ... : ... .. 7 ... ... ... : ... .. . ... : ... .. 6 ... : ... .. . ... ... : ... .. . ... ... : ... .. . ... ... : ... .. . ... ...
ROW 44 : ... .. . ... ... ... : ... .. 5 ... ... ... : ... .. . ... : ... .. . ... : ... .. . ... ... : ... .. . ... ... : ... .. . ... ... : ... .. . ... ...
ROW 45 : ... .. . ... ... ... : ... .. . ... ... ... : --- .. . ... : ... .. . ... : ... .. . ... ... : ... .. 2 ... ... : ... .. 2 ... ... : ... .. . ... ...
ROW 46 : ... .. 8 ... ... ... : D#4 00 9 ... ... ... : ... .. . ... : ... .. 5 ... : ... .. . ... ... : ... .. . ... ... : ... .. . ... ... : ... .. . ... ...
ROW 47 : ... .. . ... ... ... : ... .. 8 ... ... ... : ... .. . ... : ... .. . ... : ... .. . ... ... : ... .. . ... ... : ... .. . ... ... : ... .. . ... ...
ROW 48 : ... .. . ... ... ... : ... .. . ... ... ... : D#3 00 . ... : ... .. . ... : ... .. . ... ... : ... .. . ... ... : ... .. . ... ... : ... .. . ... ...
ROW 49 : ... .. . ... ... ... : ... .. 7 ... ... ... : ... .. . ... : ... .. 4 ... : ... .. . ... ... : ... .. . ... ... : ... .. . ... ... : ... .. 4 ... ...
ROW 4A : ... .. . ... ... ... : ... .. 5 ... ... ... : ... .. . ... : ... .. . ... : ... .. . ... ... : ... .. . ... ... : ... .. . ... ... : ... .. . ... ...
ROW 4B : ... .. . ... ... ... : ... .. . ... ... ... : ... .. . ... : ... .. . ... : ... .. . ... ... : ... .. . ... ... : ... .. . ... ... : ... .. . ... ...
ROW 4C : F-5 00 D ... ... ... : F-4 00 9 ... ... ... : --- .. . ... : ... .. . ... : ... .. . ... ... : ... .. . ... ... : ... .. . ... ... : ... .. . ... ...
ROW 4D : ... .. A ... ... ... : ... .. 8 ... ... ... : ... .. . ... : ... .. . ... : ... .. . ... ... : ... .. . ... ... : ... .. . ... ... : ... .. . ... ...
ROW 4E : ... .. 7 ... ... ... : ... .. . ... ... ... : ... .. . ... : ... .. . ... : ... .. . ... ... : ... .. . ... ... : ... .. . ... ... : ... .. . ... ...
ROW 4F : ... .. 4 ... ... ... : ... .. 7 ... ... ... : ... .. . ... : ... .. . ... : ... .. . ... ... : ... .. 3 ... ... : ... .. 3 ... ... : ... .. . ... ...
ROW 50 : ... .. D ... ... ... : ... .. 5 ... ... ... : G#3 00 . ... : ... .. . ... : ... .. . ... ... : ... .. . ... ... : ... .. . ... ... : ... .. . ... ...
ROW 51 : ... .. A ... ... ... : ... .. . ... ... ... : ... .. . ... : ... .. . ... : ... .. . ... ... : ... .. . ... ... : ... .. . ... ... : ... .. . ... ...
ROW 52 : ... .. 7 ... ... ... : G-4 00 9 ... ... ... : ... .. . ... : ... .. . ... : ... .. . ... ... : ... .. . ... ... : ... .. . ... ... : ... .. . ... ...
ROW 53 : ... .. 4 ... ... ... : ... .. 8 ... ... ... : ... .. . ... : ... .. . ... : ... .. . ... ... : ... .. . ... ... : ... .. . ... ... : ... .. . ... ...
ROW 54 : ... .. D ... ... ... : ... .. . ... ... ... : ... .. . ... : ... .. . ... : ... .. . ... ... : ... .. . ... ... : ... .. . ... ... : ... .. . ... ...
ROW 55 : ... .. A ... ... ... : ... .. 7 ... ... ... : --- .. . ... : ... .. . ... : ... .. . ... ... : ... .. . ... ... : ... .. . ... ... : ... .. 5 ... ...
ROW 56 : ... .. 7 ... ... ... : ... .. 5 ... ... ... : ... .. . ... : ... .. . ... : ... .. . ... ... : ... .. . ... ... : ... .. . ... ... : ... .. . ... ...
ROW 57 : ... .. 4 ... ... ... : ... .. . ... ... ... : ... .. . ... : ... .. . ... : ... .. . ... ... : ... .. . ... ... : ... .. . ... ... : ... .. . ... ...
ROW 58 : ... .. F ... ... ... : F-4 00 9 ... ... ... : G#3 00 . ... : 7-# 00 F ... : ... .. . ... ... : ... .. . ... ... : ... .. . ... ... : ... .. . ... ...
ROW 59 : ... .. E ... ... ... : ... .. 8 ... ... ... : A#2 00 . ... : ... .. C ... : ... .. . ... ... : ... .. . ... ... : ... .. . ... ... : ... .. . ... ...
ROW 5A : ... .. D ... ... ... : ... .. . ... ... ... : D#2 00 . ... : ... .. 6 ... : ... .. . ... ... : ... .. . ... ... : ... .. . ... ... : ... .. . ... ...
ROW 5B : ... .. 8 ... ... ... : ... .. 7 ... ... ... : D-2 00 . ... : ... .. 3 ... : ... .. . ... ... : ... .. . ... ... : ... .. . ... ... : ... .. . ... ...
ROW 5C : ... .. . ... ... ... : ... .. 5 ... ... ... : A-1 00 . ... : ... .. 2 ... : ... .. . ... ... : ... .. . ... ... : ... .. . ... ... : ... .. . ... ...
ROW 5D : ... .. . ... ... ... : ... .. . ... ... ... : ... .. . ... : ... .. 0 ... : ... .. . ... ... : ... .. . ... ... : ... .. . ... ... : ... .. . ... ...
ROW 5E : ... .. 7 ... ... ... : G-4 00 9 ... ... ... : ... .. . ... : ... .. . ... : ... .. . ... ... : ... .. 4 ... ... : ... .. 4 ... ... : ... .. 6 ... ...
ROW 5F : ... .. . ... ... ... : ... .. 8 ... ... ... : ... .. . ... : ... .. . ... : ... .. . ... ... : ... .. . ... ... : ... .. . ... ... : ... .. . ... ...
ROW 60 : ... .. . ... ... ... : ... .. . ... ... ... : ... .. . ... : ... .. F ... : ... .. . ... ... : ... .. . ... ... : ... .. . ... ... : ... .. . ... ...
ROW 61 : ... .. 6 ... ... ... : ... .. 7 ... ... ... : ... .. . ... : ... .. C ... : ... .. . ... ... : ... .. . ... ... : ... .. . ... ... : ... .. . ... ...
ROW 62 : ... .. . ... ... ... : ... .. 5 ... ... ... : ... .. . ... : ... .. 6 ... : ... .. . ... ... : ... .. . ... ... : ... .. . ... ... : ... .. . ... ...
ROW 63 : ... .. . ... ... ... : ... .. . ... ... ... : ... .. . ... : ... .. 3 ... : ... .. . ... ... : ... .. . ... ... : ... .. . ... ... : ... .. . ... ...
ROW 64 : ... .. 5 ... ... ... : A-4 00 9 ... ... ... : A#1 00 . P77 : ... .. 2 ... : ... .. . ... ... : ... .. . ... ... : ... .. . ... ... : ... .. . ... ...
ROW 65 : ... .. . ... ... ... : ... .. 8 ... ... ... : B-1 00 . P71 : ... .. 0 ... : ... .. . ... ... : ... .. . ... ... : ... .. . ... ... : ... .. . ... ...
ROW 66 : ... .. . ... ... ... : ... .. . ... ... ... : C-2 00 . P6E : ... .. . ... : ... .. . ... ... : ... .. . ... ... : ... .. . ... ... : ... .. . ... ...
ROW 67 : ... .. 4 ... ... ... : ... .. 7 ... ... ... : C#2 00 . ... : ... .. . ... : ... .. . ... ... : ... .. . ... ... : ... .. . ... ... : ... .. . ... ...
ROW 68 : ... .. . ... ... ... : ... .. 5 ... ... ... : D-2 00 . P71 : ... .. F ... : ... .. . ... ... : ... .. . ... ... : ... .. . ... ... : ... .. . ... ...
ROW 69 : ... .. . ... ... ... : ... .. . ... ... ... : D#2 00 . P76 : ... .. C ... : ... .. . ... ... : ... .. . ... ... : ... .. . ... ... : ... .. . ... ...
ROW 6A : ... .. 3 ... ... ... : B-4 00 9 ... ... ... : E-2 00 . P7E : ... .. 6 ... : ... .. . ... ... : ... .. . ... ... : ... .. . ... ... : ... .. . ... ...
ROW 6B : ... .. . ... ... ... : ... .. 8 ... ... ... : F-2 00 . P88 : ... .. 3 ... : ... .. . ... ... : ... .. . ... ... : ... .. . ... ... : ... .. 3 ... ...
ROW 6C : ... .. . ... ... ... : ... .. . ... ... ... : G-2 00 . P72 : ... .. 2 ... : ... .. . ... ... : ... .. 2 ... ... : ... .. 2 ... ... : ... .. . ... ...
ROW 6D : ... .. 2 ... ... ... : ... .. 7 ... ... ... : G#2 00 . P82 : ... .. 0 ... : ... .. . ... ... : ... .. 3 ... ... : ... .. 3 ... ... : ... .. 1 ... ...
ROW 6E : ... .. . ... ... ... : ... .. 5 ... ... ... : A#2 00 . P77 : ... .. . ... : ... .. . ... ... : ... .. . ... ... : ... .. . ... ... : ... .. . ... ...
ROW 6F : ... .. . ... ... ... : ... .. . ... ... ... : B-2 00 . P8C : ... .. . ... : ... .. . ... ... : ... .. . ... ... : ... .. . ... ... : ... .. . ... ...
ROW 70 : F#3 00 D ... ... ... : C#5 00 9 ... ... ... : F-5 00 . P80 : 9-# 00 F ... : ... .. . ... ... : C#4 01 8 ... ... : F#4 01 8 ... ... : F#2 01 7 ... ...
ROW 71 : ... .. B ... ... ... : ... .. 8 ... ... ... : G-4 00 . ... : ... .. C ... : ... .. . ... ... : ... .. 7 ... ... : ... .. 7 ... ... : ... .. 9 ... ...
ROW 72 : ... .. . ... ... ... : ... .. . ... ... ... : C-4 00 . ... : ... .. 6 ... : ... .. . ... ... : ... .. 6 ... ... : ... .. 6 ... ... : ... .. . ... ...
ROW 73 : ... .. A ... ... ... : ... .. 7 ... ... ... : B-3 00 . ... : ... .. 3 ... : ... .. . ... ... : ... .. 5 ... ... : ... .. 5 ... ... : ... .. 6 ... ...
ROW 74 : ... .. 8 ... ... ... : ... .. 5 ... ... ... : F#3 00 . ... : ... .. 2 ... : ... .. . ... ... : ... .. . ... ... : ... .. . ... ... : ... .. . ... ...
ROW 75 : ... .. 7 ... ... ... : ... .. . ... ... ... : ... .. . ... : ... .. 0 ... : ... .. . ... ... : ... .. 4 ... ... : ... .. 4 ... ... : ... .. . ... ...
ROW 76 : ... .. 6 ... ... ... : ... .. 4 ... ... ... : E-3 00 . P85 : 2-# 00 F ... : ... .. . ... ... : ... .. . ... ... : ... .. . ... ... : ... .. 5 ... ...
ROW 77 : ... .. . ... ... ... : ... .. . ... ... ... : D#3 00 . P7A : ... .. C ... : ... .. . ... ... : ... .. . ... ... : ... .. . ... ... : ... .. . ... ...
ROW 78 : ... .. 5 ... ... ... : ... .. 3 ... ... ... : C#3 00 . P86 : ... .. 6 ... : ... .. . ... ... : ... .. . ... ... : ... .. . ... ... : ... .. . ... ...
ROW 79 : ... .. . ... ... ... : ... .. . ... ... ... : C-3 00 . P7E : ... .. 3 ... : ... .. . ... ... : --- .. . ... ... : --- .. . ... ... : ... .. 4 ... ...
ROW 7A : ... .. 4 ... ... ... : ... .. 2 ... ... ... : B-2 00 . P77 : ... .. 2 ... : ... .. . ... ... : ... .. . ... ... : ... .. . ... ... : ... .. . ... ...
ROW 7B : ... .. . ... ... ... : ... .. . ... ... ... : --- .. . ... : ... .. 0 ... : ... .. . ... ... : ... .. . ... ... : ... .. . ... ... : ... .. . ... ...
ROW 7C : C#5 00 5 ... ... ... : C#3 00 3 ... ... ... : E-2 00 . P80 : 1-# 00 F ... : ... .. . ... ... : C#4 01 6 ... ... : F#4 01 6 ... ... : ... .. 3 ... ...
ROW 7D : ... .. 4 ... ... ... : ... .. 2 ... ... ... : ... .. . ... : ... .. C ... : ... .. . ... ... : ... .. 4 ... ... : ... .. 4 ... ... : ... .. . ... ...
ROW 7E : ... .. . ... ... ... : ... .. . ... ... ... : ... .. . ... : ... .. 6 ... : ... .. . ... ... : ... .. 3 ... ... : ... .. 3 ... ... : ... .. . ... ...
ROW 7F : ... .. . ... ... ... : ... .. . ... ... ... : ... .. . ... : ... .. 3 ... : ... .. . ... ... : ... .. 1 ... ... : ... .. 1 ... ... : ... .. 2 ... ...
ROW 80 : ... .. 3 ... ... ... : B-2 00 3 ... ... ... : ... .. . ... : ... .. 2 ... : ... .. . ... ... : ... .. 6 ... ... : ... .. 6 ... ... : ... .. . ... ...
ROW 81 : ... .. 2 ... ... ... : ... .. 2 ... ... ... : --- .. . ... : ... .. 0 ... : ... .. . ... ... : ... .. 4 ... ... : ... .. 4 ... ... : ... .. . ... ...
ROW 82 : ... .. . ... ... ... : ... .. . ... ... ... : F#2 00 . ... : C-# 00 F ... : ... .. . ... ... : ... .. 3 ... ... : ... .. 3 ... ... : ... .. 1 ... ...
ROW 83 : ... .. . ... ... ... : ... .. . ... ... ... : ... .. . ... : ... .. C ... : ... .. . ... ... : ... .. 1 ... ... : ... .. 1 ... ... : ... .. . ... ...
ROW 84 : ... .. . ... ... ... : A-2 00 3 ... ... ... : ... .. . ... : ... .. 6 ... : ... .. . ... ... : ... .. 6 ... ... : ... .. 6 ... ... : ... .. . ... ...
ROW 85 : ... .. . ... ... ... : ... .. 2 ... ... ... : ... .. . ... : ... .. 3 ... : ... .. . ... ... : ... .. 4 ... ... : ... .. 4 ... ... : ... .. . ... ...
ROW 86 : ... .. 1 ... ... ... : ... .. . ... ... ... : ... .. . ... : ... .. 2 ... : ... .. . ... ... : ... .. 3 ... ... : ... .. 3 ... ... : ... .. . ... ...
ROW 87 : ... .. . ... ... ... : ... .. . ... ... ... : --- .. . ... : ... .. 0 ... : ... .. . ... ... : ... .. 1 ... ... : ... .. 1 ... ... : ... .. . ... ...
ROW 88 : F#2 00 F ... ... ... : G-2 00 4 ... ... ... : F-4 00 . ... : 7-# 00 F ... : ... .. . ... ... : ... .. 8 ... ... : ... .. 8 ... ... : F#1 01 F ... ...
ROW 89 : ... .. E ... ... ... : ... .. 3 ... ... ... : G-3 00 . ... : ... .. C ... : ... .. . ... ... : ... .. 7 ... ... : ... .. 7 ... ... : ... .. D ... ...
ROW 8A : ... .. D ... ... ... : ... .. . ... ... ... : C-3 00 . ... : ... .. 6 ... : ... .. . ... ... : ... .. 6 ... ... : ... .. 6 ... ... : ... .. 8 ... ...
ROW 8B : ... .. A ... ... ... : ... .. . ... ... ... : B-2 00 . ... : ... .. 3 ... : ... .. . ... ... : ... .. 5 ... ... : ... .. 5 ... ... : ... .. . ... ...
ROW 8C : ... .. . ... ... ... : F#2 00 4 ... ... ... : F#2 00 . ... : ... .. 2 ... : ... .. . ... ... : ... .. . ... ... : ... .. . ... ... : ... .. . ... ...
ROW 8D : ... .. . ... ... ... : ... .. 3 ... ... ... : --- .. . ... : ... .. 0 ... : ... .. . ... ... : --- .. . ... ... : --- .. . ... ... : ... .. . ... ...
ROW 8E : ... .. . ... ... ... : ... .. . ... ... ... : F#3 00 . ... : 1-# 00 F ... : ... .. . ... ... : ... .. . ... ... : ... .. . ... ... : ... .. . ... ...
ROW 8F : ... .. . ... ... ... : ... .. . ... ... ... : ... .. . ... : ... .. C ... : ... .. . ... ... : ... .. . ... ... : ... .. . ... ... : ... .. . ... ...
ROW 90 : ... .. . ... ... ... : G-2 00 4 ... ... ... : ... .. . ... : ... .. 6 ... : ... .. . ... ... : C#4 01 8 ... ... : F#4 01 8 ... ... : ... .. . ... ...
ROW 91 : ... .. . ... ... ... : ... .. 3 ... ... ... : ... .. . ... : ... .. 3 ... : ... .. . ... ... : ... .. 7 ... ... : ... .. 7 ... ... : ... .. . ... ...
ROW 92 : ... .. . ... ... ... : ... .. . ... ... ... : ... .. . ... : ... .. 2 ... : ... .. . ... ... : ... .. 6 ... ... : ... .. 6 ... ... : ... .. . ... ...
ROW 93 : ... .. . ... ... ... : ... .. . ... ... ... : --- .. . ... : ... .. 0 ... : ... .. . ... ... : ... .. 5 ... ... : ... .. 5 ... ... : ... .. . ... ...
ROW 94 : ... .. . ... ... ... : A-2 00 5 ... ... ... : E-3 00 . ... : C-# 00 F ... : ... .. . ... ... : --- .. . ... ... : --- .. . ... ... : ... .. . ... ...
ROW 95 : ... .. . ... ... ... : ... .. 4 ... ... ... : ... .. . ... : ... .. C ... : ... .. . ... ... : ... .. . ... ... : ... .. . ... ... : ... .. . ... ...
ROW 96 : ... .. . ... ... ... : ... .. . ... ... ... : ... .. . ... : ... .. 6 ... : ... .. . ... ... : ... .. . ... ... : ... .. . ... ... : ... .. . ... ...
ROW 97 : ... .. . ... ... ... : ... .. . ... ... ... : ... .. . ... : ... .. 3 ... : ... .. . ... ... : ... .. . ... ... : ... .. . ... ... : ... .. . ... ...
ROW 98 : ... .. . ... ... ... : B-2 00 5 ... ... ... : ... .. . ... : ... .. 2 ... : ... .. . ... ... : C#4 01 8 ... ... : F#4 01 8 ... ... : ... .. . ... ...
ROW 99 : ... .. . ... ... ... : ... .. 4 ... ... ... : --- .. . ... : ... .. 0 ... : ... .. . ... ... : ... .. 7 ... ... : ... .. 7 ... ... : ... .. . ... ...
ROW 9A : ... .. . ... ... ... : ... .. . ... ... ... : F#3 00 . ... : 7-# 00 F ... : ... .. . ... ... : ... .. 6 ... ... : ... .. 6 ... ... : ... .. . ... ...
ROW 9B : ... .. 2 ... ... ... : ... .. . ... ... ... : ... .. . ... : ... .. C ... : ... .. . ... ... : ... .. 5 ... ... : ... .. 5 ... ... : ... .. 4 ... ...
ROW 9C : ... .. . ... ... ... : C#3 00 5 ... ... ... : ... .. . ... : ... .. 6 ... : ... .. . ... ... : ... .. . ... ... : ... .. . ... ... : ... .. . ... ...
ROW 9D : ... .. . ... ... ... : ... .. . ... ... ... : ... .. . ... : ... .. 3 ... : ... .. . ... ... : --- .. . ... ... : --- .. . ... ... : ... .. 1 ... ...
ROW 9E : ... .. 1 ... ... ... : ... .. . ... ... ... : ... .. . ... : ... .. 2 ... : ... .. . ... ... : ... .. . ... ... : ... .. . ... ... : ... .. . ... ...
ROW 9F : ... .. . ... ... ... : ... .. 4 ... ... ... : --- .. . ... : ... .. 0 ... : ... .. . ... ... : ... .. . ... ... : ... .. . ... ... : ... .. . ... ...
ROW A0 : C#3 00 F ... ... ... : D-3 00 6 ... ... ... : F-5 00 . ... : 1-# 00 F ... : ... .. . ... ... : C#3 01 8 ... ... : F#3 01 8 ... ... : C#2 01 F ... ...
ROW A1 : ... .. E ... ... ... : ... .. 5 ... ... ... : G-4 00 . ... : ... .. C ... : ... .. . ... ... : ... .. 7 ... ... : ... .. 7 ... ... : ... .. D ... ...
ROW A2 : ... .. D ... ... ... : ... .. . ... ... ... : C-4 00 . ... : ... .. 6 ... : ... .. . ... ... : ... .. 6 ... ... : ... .. 6 ... ... : ... .. 8 ... ...
ROW A3 : ... .. A ... ... ... : ... .. 4 ... ... ... : B-3 00 . ... : ... .. 3 ... : ... .. . ... ... : ... .. 5 ... ... : ... .. 5 ... ... : ... .. . ... ...
ROW A4 : ... .. . ... ... ... : C#3 00 6 ... ... ... : F#3 00 . ... : ... .. 2 ... : ... .. . ... ... : ... .. . ... ... : ... .. . ... ... : ... .. . ... ...
ROW A5 : ... .. . ... ... ... : ... .. 5 ... ... ... : ... .. . ... : ... .. 0 ... : ... .. . ... ... : --- .. . P83 ... : --- .. . P7F ... : ... .. . ... ...
ROW A6 : ... .. . ... ... ... : ... .. . ... ... ... : E-3 00 . P85 : B-# 00 F ... : ... .. . ... ... : ... .. . ... ... : ... .. . ... ... : ... .. . ... ...
ROW A7 : ... .. . ... ... ... : ... .. 4 ... ... ... : D#3 00 . P7A : ... .. C ... : ... .. . ... ... : ... .. . ... ... : ... .. . ... ... : ... .. . ... ...
ROW A8 : ... .. . ... ... ... : B-2 00 6 ... ... ... : C#3 00 . P86 : ... .. 6 ... : ... .. . ... ... : C#3 01 8 P80 ... : F#3 01 8 P80 ... : ... .. . ... ...
ROW A9 : ... .. . ... ... ... : ... .. 5 ... ... ... : C-3 00 . P7E : ... .. 3 ... : ... .. . ... ... : ... .. 7 ... ... : ... .. 7 ... ... : ... .. . ... ...
ROW AA : ... .. . ... ... ... : ... .. . ... ... ... : B-2 00 . P77 : ... .. 2 ... : ... .. . ... ... : ... .. 6 ... ... : ... .. 6 ... ... : ... .. . ... ...
ROW AB : ... .. . ... ... ... : ... .. . ... ... ... : --- .. . ... : ... .. 0 ... : ... .. . ... ... : ... .. 5 ... ... : ... .. 5 ... ... : ... .. . ... ...
ROW AC : ... .. . ... ... ... : A-2 00 6 ... ... ... : E-2 00 . P80 : 7-# 00 F ... : ... .. . ... ... : --- .. . P83 ... : --- .. . P7F ... : ... .. . ... ...
ROW AD : ... .. . ... ... ... : ... .. 5 ... ... ... : ... .. . ... : ... .. C ... : ... .. . ... ... : ... .. . ... ... : ... .. . ... ... : ... .. . ... ...
ROW AE : ... .. . ... ... ... : ... .. . ... ... ... : ... .. . ... : ... .. 6 ... : ... .. . ... ... : ... .. . ... ... : ... .. . ... ... : ... .. . ... ...
ROW AF : ... .. . ... ... ... : ... .. . ... ... ... : ... .. . ... : ... .. 3 ... : ... .. . ... ... : ... .. . ... ... : ... .. . ... ... : ... .. . ... ...
ROW B0 : ... .. . ... ... ... : G-2 00 6 ... ... ... : ... .. . ... : ... .. 2 ... : ... .. . ... ... : C#3 01 8 P80 ... : F#3 01 8 P80 ... : ... .. . ... ...
ROW B1 : ... .. . ... ... ... : ... .. 5 ... ... ... : --- .. . ... : ... .. 0 ... : ... .. . ... ... : ... .. 7 ... ... : ... .. 7 ... ... : ... .. . ... ...
ROW B2 : ... .. . ... ... ... : ... .. . ... ... ... : F#2 00 . ... : 1-# 00 F ... : ... .. . ... ... : ... .. 6 ... ... : ... .. 6 ... ... : ... .. . ... ...
ROW B3 : ... .. 2 ... ... ... : ... .. . ... ... ... : ... .. . ... : ... .. C ... : ... .. . ... ... : ... .. 5 ... ... : ... .. 5 ... ... : ... .. 4 ... ...
ROW B4 : ... .. . ... ... ... : F#2 00 6 ... ... ... : ... .. . ... : ... .. 6 ... : ... .. . ... ... : ... .. . ... ... : ... .. . ... ... : ... .. . ... ...
ROW B5 : ... .. . ... ... ... : ... .. . ... ... ... : ... .. . ... : ... .. 3 ... : ... .. . ... ... : --- .. . P83 ... : --- .. . P7F ... : ... .. 1 ... ...
ROW B6 : ... .. 1 ... ... ... : ... .. . ... ... ... : ... .. . ... : ... .. 2 ... : ... .. . ... ... : ... .. . ... ... : ... .. . ... ... : ... .. . ... ...
ROW B7 : ... .. . ... ... ... : ... .. . ... ... ... : --- .. . ... : ... .. 0 ... : ... .. . ... ... : ... .. . ... ... : ... .. . ... ... : ... .. . ... ...
ROW B8 : F#2 00 F ... ... ... : G-2 00 7 ... ... ... : F-4 00 . ... : 9-# 00 F ... : ... .. . ... ... : C#4 01 8 P80 ... : A-4 01 8 P80 ... : F#1 01 F ... ...
ROW B9 : ... .. E ... ... ... : ... .. 6 ... ... ... : G-3 00 . ... : ... .. C ... : ... .. . ... ... : ... .. 7 ... ... : ... .. 7 ... ... : ... .. D ... ...
ROW BA : ... .. D ... ... ... : ... .. . ... ... ... : C-3 00 . ... : ... .. 6 ... : ... .. . ... ... : ... .. 6 ... ... : ... .. 6 ... ... : ... .. 8 ... ...
ROW BB : ... .. A ... ... ... : ... .. . ... ... ... : B-2 00 . ... : ... .. 3 ... : ... .. . ... ... : ... .. 5 ... ... : ... .. 5 ... ... : ... .. . ... ...
ROW BC : ... .. . ... ... ... : A-2 00 7 ... ... ... : F#2 00 . ... : ... .. 2 ... : ... .. . ... ... : ... .. . ... ... : ... .. . ... ... : ... .. . ... ...
ROW BD : ... .. . ... ... ... : ... .. 6 ... ... ... : --- .. . ... : ... .. 0 ... : ... .. . ... ... : --- .. . ... ... : --- .. . ... ... : ... .. . ... ...
ROW BE : ... .. . ... ... ... : ... .. . ... ... ... : F#3 00 . ... : ... .. F ... : ... .. . ... ... : ... .. . ... ... : ... .. . ... ... : ... .. . ... ...
ROW BF : ... .. . ... ... ... : ... .. . ... ... ... : ... .. . ... : ... .. C ... : ... .. . ... ... : ... .. . ... ... : ... .. . ... ... : ... .. . ... ...
ROW C0 : ... .. . ... ... ... : B-2 00 8 ... ... ... : ... .. . ... : ... .. 6 ... : ... .. . ... ... : C#4 01 8 ... ... : A-4 01 8 ... ... : ... .. . ... ...
ROW C1 : ... .. . ... ... ... : ... .. 7 ... ... ... : ... .. . ... : ... .. 3 ... : ... .. . ... ... : ... .. 7 ... ... : ... .. 7 ... ... : ... .. . ... ...
ROW C2 : ... .. 2 ... ... ... : ... .. . ... ... ... : ... .. . ... : ... .. 2 ... : ... .. . ... ... : ... .. 6 ... ... : ... .. 6 ... ... : ... .. 4 ... ...
ROW C3 : ... .. . ... ... ... : ... .. 6 ... ... ... : --- .. . ... : ... .. 0 ... : ... .. . ... ... : ... .. 5 ... ... : ... .. 5 ... ... : ... .. . ... ...
ROW C4 : E-3 00 F ... ... ... : C#3 00 8 ... ... ... : E-3 00 . ... : 7-# 00 F ... : ... .. . ... ... : --- .. . ... ... : --- .. . ... ... : E-2 01 F ... ...
ROW C5 : ... .. E ... ... ... : ... .. 7 ... ... ... : ... .. . ... : ... .. C ... : ... .. . ... ... : ... .. . ... ... : ... .. . ... ... : ... .. D ... ...
ROW C6 : ... .. D ... ... ... : ... .. . ... ... ... : ... .. . ... : ... .. 6 ... : ... .. . ... ... : ... .. . ... ... : ... .. . ... ... : ... .. 8 ... ...
ROW C7 : ... .. A ... ... ... : ... .. 6 ... ... ... : ... .. . ... : ... .. 3 ... : ... .. . ... ... : ... .. . ... ... : ... .. . ... ... : ... .. . ... ...
ROW C8 : ... .. . ... ... ... : D-3 00 8 ... ... ... : ... .. . ... : ... .. 2 ... : ... .. . ... ... : C#4 01 8 ... ... : A-4 01 8 ... ... : ... .. . ... ...
ROW C9 : ... .. . ... ... ... : ... .. 7 ... ... ... : --- .. . ... : ... .. 0 ... : ... .. . ... ... : ... .. 7 ... ... : ... .. 7 ... ... : ... .. . ... ...
ROW CA : ... .. . ... ... ... : ... .. . ... ... ... : F#3 00 . ... : ... .. F ... : ... .. . ... ... : ... .. 6 ... ... : ... .. 6 ... ... : ... .. . ... ...
ROW CB : ... .. . ... ... ... : ... .. 6 ... ... ... : ... .. . ... : ... .. C ... : ... .. . ... ... : ... .. 5 ... ... : ... .. 5 ... ... : ... .. . ... ...
ROW CC : ... .. . ... ... ... : E-3 00 9 ... ... ... : ... .. . ... : ... .. 6 ... : ... .. . ... ... : ... .. . ... ... : ... .. . ... ... : ... .. . ... ...
ROW CD : ... .. . ... ... ... : ... .. 8 ... ... ... : ... .. . ... : ... .. 3 ... : ... .. . ... ... : --- .. . ... ... : --- .. . ... ... : ... .. . ... ...
ROW CE : ... .. 2 ... ... ... : ... .. . ... ... ... : ... .. . ... : ... .. 2 ... : ... .. . ... ... : ... .. . ... ... : ... .. . ... ... : ... .. 4 ... ...
ROW CF : ... .. . ... ... ... : ... .. 7 ... ... ... : --- .. . ... : ... .. 0 ... : ... .. . ... ... : ... .. . ... ... : ... .. . ... ... : ... .. . ... ...
ROW D0 : D-3 00 F ... ... ... : F#3 00 9 ... ... ... : F-4 00 . ... : 9-# 00 F ... : ... .. . ... ... : D-4 01 8 ... ... : G-4 01 8 ... ... : D-2 01 F ... ...
ROW D1 : ... .. E ... ... ... : ... .. 8 ... ... ... : G-3 00 . ... : ... .. C ... : ... .. . ... ... : ... .. 7 ... ... : ... .. 7 ... ... : ... .. D ... ...
ROW D2 : ... .. D ... ... ... : ... .. . ... ... ... : C-3 00 . ... : ... .. 6 ... : ... .. . ... ... : ... .. 6 ... ... : ... .. 6 ... ... : ... .. 8 ... ...
ROW D3 : ... .. A ... ... ... : ... .. 7 ... ... ... : B-2 00 . ... : ... .. 3 ... : ... .. . ... ... : ... .. 5 ... ... : ... .. 5 ... ... : ... .. . ... ...
ROW D4 : ... .. . ... ... ... : E-3 00 9 ... ... ... : F#2 00 . ... : ... .. 2 ... : ... .. . ... ... : ... .. . ... ... : ... .. . ... ... : ... .. . ... ...
ROW D5 : ... .. . ... ... ... : ... .. 8 ... ... ... : ... .. . ... : ... .. 0 ... : ... .. . ... ... : ... .. 4 ... ... : ... .. 4 ... ... : ... .. . ... ...
ROW D6 : ... .. . ... ... ... : ... .. . ... ... ... : F-2 00 . P84 : 2-# 00 F ... : ... .. . ... ... : ... .. . ... ... : ... .. . ... ... : ... .. . ... ...
ROW D7 : ... .. . ... ... ... : ... .. 7 ... ... ... : E-2 00 . P8A : ... .. C ... : ... .. . ... ... : ... .. . ... ... : ... .. . ... ... : ... .. . ... ...
ROW D8 : ... .. . ... ... ... : D-3 00 A ... ... ... : D#2 00 . P92 : ... .. 6 ... : ... .. . ... ... : ... .. . ... ... : ... .. . ... ... : ... .. . ... ...
ROW D9 : ... .. . ... ... ... : ... .. 8 ... ... ... : ... .. . P72 : ... .. 3 ... : ... .. . ... ... : --- .. . ... ... : --- .. . ... ... : ... .. . ... ...
ROW DA : ... .. . ... ... ... : ... .. . ... ... ... : D-2 00 . P7D : ... .. 2 ... : ... .. . ... ... : ... .. . ... ... : ... .. . ... ... : ... .. . ... ...
ROW DB : ... .. . ... ... ... : ... .. . ... ... ... : --- .. . ... : ... .. 0 ... : ... .. . ... ... : ... .. . ... ... : ... .. . ... ... : ... .. . ... ...
ROW DC : ... .. . ... ... ... : C#3 00 A ... ... ... : E-1 00 . P80 : 1-# 00 F ... : ... .. . ... ... : D-4 01 6 ... ... : G-4 01 6 ... ... : ... .. . ... ...
ROW DD : ... .. . ... ... ... : ... .. 8 ... ... ... : ... .. . ... : ... .. C ... : ... .. . ... ... : ... .. 4 ... ... : ... .. 4 ... ... : ... .. . ... ...
ROW DE : ... .. . ... ... ... : ... .. . ... ... ... : ... .. . ... : ... .. 6 ... : ... .. . ... ... : ... .. 3 ... ... : ... .. 3 ... ... : ... .. . ... ...
ROW DF : ... .. . ... ... ... : ... .. . ... ... ... : ... .. . ... : ... .. 3 ... : ... .. . ... ... : ... .. 1 ... ... : ... .. 1 ... ... : ... .. . ... ...
ROW E0 : ... .. . ... ... ... : B-2 00 B ... ... ... : ... .. . ... : ... .. 2 ... : ... .. . ... ... : ... .. 6 ... ... : ... .. 6 ... ... : ... .. . ... ...
ROW E1 : ... .. . ... ... ... : ... .. 9 ... ... ... : --- .. . ... : ... .. 0 ... : ... .. . ... ... : ... .. 4 ... ... : ... .. 4 ... ... : ... .. . ... ...
ROW E2 : ... .. . ... ... ... : ... .. . ... ... ... : F#1 00 . ... : C-# 00 F ... : ... .. . ... ... : ... .. 3 ... ... : ... .. 3 ... ... : ... .. . ... ...
ROW E3 : ... .. . ... ... ... : ... .. 8 ... ... ... : ... .. . ... : ... .. C ... : ... .. . ... ... : ... .. 1 ... ... : ... .. 1 ... ... : ... .. . ... ...
ROW E4 : ... .. . ... ... ... : A-2 00 B ... ... ... : ... .. . ... : ... .. 6 ... : ... .. . ... ... : ... .. 6 ... ... : ... .. 6 ... ... : ... .. . ... ...
ROW E5 : ... .. . ... ... ... : ... .. 9 ... ... ... : ... .. . ... : ... .. 3 ... : ... .. . ... ... : ... .. 4 ... ... : ... .. 4 ... ... : ... .. . ... ...
ROW E6 : ... .. . ... ... ... : ... .. . ... ... ... : ... .. . ... : ... .. 2 ... : ... .. . ... ... : ... .. 3 ... ... : ... .. 3 ... ... : ... .. . ... ...
ROW E7 : ... .. . ... ... ... : ... .. 8 ... ... ... : --- .. . ... : ... .. 0 ... : ... .. . ... ... : ... .. 1 ... ... : ... .. 1 ... ... : ... .. . ... ...
ROW E8 : ... .. . ... ... ... : B-2 00 B ... ... ... : F-3 00 . ... : 7-# 00 F ... : ... .. . ... ... : ... .. 8 ... ... : ... .. 8 ... ... : ... .. . ... ...
ROW E9 : ... .. . ... ... ... : ... .. 9 ... ... ... : G-2 00 . ... : ... .. C ... : ... .. . ... ... : ... .. 7 ... ... : ... .. 7 ... ... : ... .. . ... ...
ROW EA : ... .. . ... ... ... : ... .. . ... ... ... : C-2 00 . ... : ... .. 6 ... : ... .. . ... ... : ... .. 6 ... ... : ... .. 6 ... ... : ... .. . ... ...
ROW EB : ... .. . ... ... ... : ... .. 8 ... ... ... : B-1 00 . ... : ... .. 3 ... : ... .. . ... ... : ... .. 5 ... ... : ... .. 5 ... ... : ... .. . ... ...
ROW EC : ... .. . ... ... ... : C#3 00 C ... ... ... : F#1 00 . ... : ... .. 2 ... : ... .. . ... ... : ... .. . ... ... : ... .. . ... ... : ... .. . ... ...
ROW ED : ... .. . ... ... ... : ... .. A ... ... ... : --- .. . ... : ... .. 0 ... : ... .. . ... ... : --- .. . ... ... : --- .. . ... ... : ... .. . ... ...
ROW EE : ... .. . ... ... ... : ... .. . ... ... ... : F#2 00 . ... : 1-# 00 F ... : ... .. . ... ... : ... .. . ... ... : ... .. . ... ... : ... .. . ... ...
ROW EF : ... .. 2 ... ... ... : ... .. 9 ... ... ... : ... .. . ... : ... .. C ... : ... .. . ... ... : ... .. . ... ... : ... .. . ... ... : ... .. 4 ... ...
ROW F0 : ... .. . ... ... ... : D-3 00 C ... ... ... : ... .. . ... : ... .. 6 ... : ... .. . ... ... : D-4 01 8 ... ... : G-4 01 8 ... ... : ... .. . ... ...
ROW F1 : ... .. . ... ... ... : ... .. A ... ... ... : ... .. . ... : ... .. 3 ... : ... .. . ... ... : ... .. 7 ... ... : ... .. 7 ... ... : ... .. 1 ... ...
ROW F2 : ... .. 1 ... ... ... : ... .. . ... ... ... : ... .. . ... : ... .. 2 ... : ... .. . ... ... : ... .. 6 ... ... : ... .. 6 ... ... : ... .. . ... ...
ROW F3 : ... .. . ... ... ... : ... .. 9 ... ... ... : --- .. . ... : ... .. 0 ... : ... .. . ... ... : ... .. 5 ... ... : ... .. 5 ... ... : ... .. . ... ...
ROW F4 : ... .. F ... ... ... : E-3 00 D ... ... ... : E-2 00 . ... : C-# 00 F ... : ... .. . ... ... : --- .. . ... ... : --- .. . ... ... : ... .. F ... ...
ROW F5 : ... .. E ... ... ... : ... .. B ... ... ... : ... .. . ... : ... .. C ... : ... .. . ... ... : ... .. . ... ... : ... .. . ... ... : ... .. D ... ...
ROW F6 : ... .. D ... ... ... : ... .. . ... ... ... : ... .. . ... : ... .. 6 ... : ... .. . ... ... : ... .. . ... ... : ... .. . ... ... : ... .. 8 ... ...
ROW F7 : ... .. A ... ... ... : ... .. A ... ... ... : ... .. . ... : ... .. 3 ... : ... .. . ... ... : ... .. . ... ... : ... .. . ... ... : --- .. . ... ...
ROW F8 : ... .. 2 ... ... ... : F#3 00 C ... ... ... : ... .. . ... : ... .. 2 ... : ... .. . ... ... : D-4 01 8 ... ... : G-4 01 8 ... ... : ... .. . ... ...
ROW F9 : ... .. . ... ... ... : ... .. A ... ... ... : --- .. . ... : ... .. 0 ... : ... .. . ... ... : ... .. 7 ... ... : ... .. 7 ... ... : ... .. . ... ...
ROW FA : C#3 00 F ... ... ... : ... .. . ... ... ... : F#2 00 . ... : 7-# 00 F ... : ... .. . ... ... : ... .. 6 ... ... : ... .. 6 ... ... : C#2 01 F ... ...
ROW FB : ... .. E ... ... ... : ... .. 9 ... ... ... : ... .. . ... : ... .. C ... : ... .. . ... ... : ... .. 5 ... ... : ... .. 5 ... ... : ... .. D ... ...
ROW FC : ... .. D ... ... ... : G-3 00 B ... ... ... : ... .. . ... : ... .. 6 ... : ... .. . ... ... : ... .. . ... ... : ... .. . ... ... : ... .. 8 ... ...
ROW FD : ... .. A ... ... ... : ... .. 9 ... ... ... : ... .. . ... : ... .. 3 ... : ... .. . ... ... : --- .. . ... ... : --- .. . ... ... : --- .. . ... ...
ROW FE : ... .. 2 ... ... ... : ... .. . ... ... ... : ... .. . ... : ... .. 2 ... : ... .. . ... ... : ... .. . ... ... : ... .. . ... ... : ... .. . ... ...
ROW FF : ... .. . ... ... ... : ... .. 8 ... ... ... : --- .. . ... : ... .. 0 ... : ... .. . ... ... : ... .. . ... ... : ... .. . ... ... : ... .. . ... ...

PATTERN 1B
ROW 00 : B-2 00 F ... ... ... : F#3 00 A ... ... ... : F-5 00 . ... : 1-# 00 F ... : ... .. . ... ... : D-3 01 8 ... ... : G-3 01 8 ... ... : B-1 01 F ... ...
ROW 01 : ... .. E ... ... ... : ... .. 8 ... ... ... : G-4 00 . ... : ... .. C ... : ... .. . ... ... : ... .. 7 ... ... : ... .. 7 ... ... : ... .. D ... ...
ROW 02 : ... .. D ... ... ... : ... .. . ... ... ... : C-4 00 . ... : ... .. 6 ... : ... .. . ... ... : ... .. 6 ... ... : ... .. 6 ... ... : ... .. 8 ... ...
ROW 03 : ... .. A ... ... ... : ... .. . ... ... ... : B-3 00 . ... : ... .. 3 ... : ... .. . ... ... : ... .. 5 ... ... : ... .. 5 ... ... : ... .. . ... ...
ROW 04 : ... .. . ... ... ... : E-3 00 9 ... ... ... : F#3 00 . ... : ... .. 2 ... : ... .. . ... ... : ... .. . ... ... : ... .. . ... ... : ... .. . ... ...
ROW 05 : ... .. . ... ... ... : ... .. 8 ... ... ... : ... .. . ... : ... .. 0 ... : ... .. . ... ... : --- .. . P82 ... : --- .. . P81 ... : ... .. . ... ...
ROW 06 : ... .. . ... ... ... : ... .. . ... ... ... : E-3 00 . P85 : B-# 00 F ... : ... .. . ... ... : ... .. . ... ... : ... .. . ... ... : ... .. . ... ...
ROW 07 : ... .. . ... ... ... : ... .. 7 ... ... ... : D#3 00 . P7A : ... .. C ... : ... .. . ... ... : ... .. . ... ... : ... .. . ... ... : ... .. . ... ...
ROW 08 : ... .. . ... ... ... : D-3 00 9 ... ... ... : C#3 00 . P86 : ... .. 6 ... : ... .. . ... ... : D-3 01 8 P80 ... : G-3 01 8 P80 ... : ... .. . ... ...
ROW 09 : ... .. . ... ... ... : ... .. 7 ... ... ... : C-3 00 . P7E : ... .. 3 ... : ... .. . ... ... : ... .. 7 ... ... : ... .. 7 ... ... : ... .. . ... ...
ROW 0A : ... .. . ... ... ... : ... .. . ... ... ... : B-2 00 . P77 : ... .. 2 ... : ... .. . ... ... : ... .. 6 ... ... : ... .. 6 ... ... : ... .. . ... ...
ROW 0B : ... .. . ... ... ... : ... .. 6 ... ... ... : --- .. . ... : ... .. 0 ... : ... .. . ... ... : ... .. 5 ... ... : ... .. 5 ... ... : ... .. . ... ...
ROW 0C : ... .. . ... ... ... : C#3 00 8 ... ... ... : E-2 00 . P80 : 7-# 00 F ... : ... .. . ... ... : --- .. . P82 ... : --- .. . P81 ... : ... .. . ... ...
ROW 0D : ... .. . ... ... ... : ... .. 7 ... ... ... : ... .. . ... : ... .. C ... : ... .. . ... ... : ... .. . ... ... : ... .. . ... ... : ... .. . ... ...
ROW 0E : ... .. . ... ... ... : ... .. . ... ... ... : ... .. . ... : ... .. 6 ... : ... .. . ... ... : ... .. . ... ... : ... .. . ... ... : ... .. . ... ...
ROW 0F : ... .. . ... ... ... : ... .. 6 ... ... ... : ... .. . ... : ... .. 3 ... : ... .. . ... ... : ... .. . ... ... : ... .. . ... ... : ... .. . ... ...
ROW 10 : ... .. . ... ... ... : B-2 00 7 ... ... ... : ... .. . ... : ... .. 2 ... : ... .. . ... ... : D-3 01 8 P80 ... : G-3 01 8 P80 ... : ... .. . ... ...
ROW 11 : ... .. . ... ... ... : ... .. 6 ... ... ... : --- .. . ... : ... .. 0 ... : ... .. . ... ... : ... .. 7 ... ... : ... .. 7 ... ... : ... .. . ... ...
ROW 12 : ... .. . ... ... ... : ... .. . ... ... ... : F#2 00 . ... : 1-# 00 F ... : ... .. . ... ... : ... .. 6 ... ... : ... .. 6 ... ... : ... .. . ... ...
ROW 13 : ... .. . ... ... ... : ... .. . ... ... ... : ... .. . ... : ... .. C ... : ... .. . ... ... : ... .. 5 ... ... : ... .. 5 ... ... : ... .. . ... ...
ROW 14 : ... .. . ... ... ... : A-2 00 6 ... ... ... : ... .. . ... : ... .. 6 ... : ... .. . ... ... : ... .. . ... ... : ... .. . ... ... : ... .. . ... ...
ROW 15 : ... .. . ... ... ... : ... .. 5 ... ... ... : ... .. . ... : ... .. 3 ... : ... .. . ... ... : --- .. . P82 ... : --- .. . P81 ... : ... .. . ... ...
ROW 16 : ... .. . ... ... ... : ... .. . ... ... ... : ... .. . ... : ... .. 2 ... : ... .. . ... ... : ... .. . ... ... : ... .. . ... ... : ... .. . ... ...
ROW 17 : ... .. . ... ... ... : ... .. . ... ... ... : --- .. . ... : ... .. 0 ... : ... .. . ... ... : ... .. . ... ... : ... .. . ... ... : ... .. . ... ...
ROW 18 : ... .. . ... ... ... : B-2 00 6 ... ... ... : F-4 00 . ... : 9-# 00 F ... : ... .. . ... ... : D-4 01 8 P80 ... : B-4 01 8 P80 ... : ... .. . ... ...
ROW 19 : ... .. . ... ... ... : ... .. 5 ... ... ... : G-3 00 . ... : ... .. C ... : ... .. . ... ... : ... .. 7 ... ... : ... .. 7 ... ... : ... .. . ... ...
ROW 1A : ... .. . ... ... ... : ... .. . ... ... ... : C-3 00 . ... : ... .. 6 ... : ... .. . ... ... : ... .. 6 ... ... : ... .. 6 ... ... : ... .. . ... ...
ROW 1B : ... .. . ... ... ... : ... .. 4 ... ... ... : B-2 00 . ... : ... .. 3 ... : ... .. . ... ... : ... .. 5 ... ... : ... .. 5 ... ... : ... .. . ... ...
ROW 1C : ... .. . ... ... ... : C#3 00 6 ... ... ... : F#2 00 . ... : ... .. 2 ... : ... .. . ... ... : ... .. . ... ... : ... .. . ... ... : ... .. . ... ...
ROW 1D : ... .. . ... ... ... : ... .. 5 ... ... ... : --- .. . ... : ... .. 0 ... : ... .. . ... ... : --- .. . ... ... : --- .. . ... ... : ... .. . ... ...
ROW 1E : ... .. . ... ... ... : ... .. . ... ... ... : F#3 00 . ... : ... .. F ... : ... .. . ... ... : ... .. . ... ... : ... .. . ... ... : ... .. . ... ...
ROW 1F : ... .. . ... ... ... : ... .. 4 ... ... ... : ... .. . ... : ... .. C ... : ... .. . ... ... : ... .. . ... ... : ... .. . ... ... : ... .. . ... ...
ROW 20 : ... .. . ... ... ... : D-3 00 5 ... ... ... : ... .. . ... : ... .. 6 ... : ... .. . ... ... : D-4 01 8 ... ... : B-4 01 8 ... ... : ... .. . ... ...
ROW 21 : ... .. . ... ... ... : ... .. 3 ... ... ... : ... .. . ... : ... .. 3 ... : ... .. . ... ... : ... .. 7 ... ... : ... .. 7 ... ... : ... .. . ... ...
ROW 22 : ... .. . ... ... ... : ... .. . ... ... ... : ... .. . ... : ... .. 2 ... : ... .. . ... ... : ... .. 6 ... ... : ... .. 6 ... ... : ... .. . ... ...
ROW 23 : ... .. . ... ... ... : ... .. . ... ... ... : --- .. . ... : ... .. 0 ... : ... .. . ... ... : ... .. 5 ... ... : ... .. 5 ... ... : ... .. . ... ...
ROW 24 : ... .. . ... ... ... : E-3 00 4 ... ... ... : E-3 00 . ... : 7-# 00 F ... : ... .. . ... ... : --- .. . ... ... : --- .. . ... ... : ... .. . ... ...
ROW 25 : ... .. . ... ... ... : ... .. 3 ... ... ... : ... .. . ... : ... .. C ... : ... .. . ... ... : ... .. . ... ... : ... .. . ... ... : ... .. . ... ...
ROW 26 : ... .. . ... ... ... : ... .. . ... ... ... : ... .. . ... : ... .. 6 ... : ... .. . ... ... : ... .. . ... ... : ... .. . ... ... : ... .. . ... ...
ROW 27 : ... .. . ... ... ... : ... .. . ... ... ... : ... .. . ... : ... .. 3 ... : ... .. . ... ... : ... .. . ... ... : ... .. . ... ... : ... .. . ... ...
ROW 28 : ... .. . ... ... ... : F#3 00 3 ... ... ... : ... .. . ... : ... .. 2 ... : ... .. . ... ... : D-4 01 8 ... ... : B-4 01 8 ... ... : ... .. . ... ...
ROW 29 : ... .. . ... ... ... : ... .. 2 ... ... ... : --- .. . ... : ... .. 0 ... : ... .. . ... ... : ... .. 7 ... ... : ... .. 7 ... ... : ... .. . ... ...
ROW 2A : ... .. . ... ... ... : ... .. . ... ... ... : F#3 00 . ... : ... .. F ... : ... .. . ... ... : ... .. 6 ... ... : ... .. 6 ... ... : ... .. . ... ...
ROW 2B : ... .. . ... ... ... : ... .. . ... ... ... : ... .. . ... : ... .. C ... : ... .. . ... ... : ... .. 5 ... ... : ... .. 5 ... ... : ... .. . ... ...
ROW 2C : ... .. . ... ... ... : G-3 00 3 ... ... ... : ... .. . ... : ... .. 6 ... : ... .. . ... ... : ... .. . ... ... : ... .. . ... ... : ... .. . ... ...
ROW 2D : ... .. . ... ... ... : ... .. 2 ... ... ... : ... .. . ... : ... .. 3 ... : ... .. . ... ... : --- .. . ... ... : --- .. . ... ... : ... .. . ... ...
ROW 2E : ... .. 2 ... ... ... : ... .. . ... ... ... : ... .. . ... : ... .. 2 ... : ... .. . ... ... : ... .. . ... ... : ... .. . ... ... : ... .. . ... ...
ROW 2F : ... .. . ... ... ... : ... .. . ... ... ... : --- .. . ... : ... .. 0 ... : ... .. . ... ... : ... .. . ... ... : ... .. . ... ... : ... .. . ... ...
ROW 30 : ... .. . ... ... ... : B-2 00 3 ... ... ... : F#4 00 . ... : ... .. F ... : ... .. . ... ... : D-4 01 8 ... ... : B-4 01 8 ... ... : C#5 01 C ... ...
ROW 31 : ... .. 1 ... ... ... : ... .. 2 ... ... ... : G#3 00 . ... : ... .. C ... : ... .. . ... ... : ... .. 7 ... ... : ... .. 7 ... ... : ... .. A ... ...
ROW 32 : ... .. . ... ... ... : ... .. . ... ... ... : C#3 00 . ... : ... .. 6 ... : ... .. . ... ... : ... .. 6 ... ... : ... .. 6 ... ... : ... .. 6 ... ...
ROW 33 : ... .. . ... ... ... : ... .. . ... ... ... : C-3 00 . ... : 9-# 00 D ... : ... .. . ... ... : ... .. 5 ... ... : ... .. 5 ... ... : ... .. . ... ...
ROW 34 : ... .. 0 ... ... ... : C#3 00 3 ... ... ... : G-2 00 . ... : ... .. B ... : ... .. . ... ... : ... .. . ... ... : ... .. . ... ... : ... .. . ... ...
ROW 35 : ... .. . ... ... ... : ... .. 2 ... ... ... : ... .. . ... : ... .. . ... : ... .. . ... ... : --- .. . ... ... : --- .. . ... ... : --- .. . ... ...
ROW 36 : ... .. . ... ... ... : ... .. . ... ... ... : ... .. . ... : ... .. A ... : ... .. . ... ... : ... .. . ... ... : ... .. . ... ... : ... .. . ... ...
ROW 37 : ... .. . ... ... ... : ... .. . ... ... ... : ... .. . ... : ... .. 8 ... : ... .. . ... ... : ... .. . ... ... : ... .. . ... ... : ... .. . ... ...
ROW 38 : ... .. . ... ... ... : D-3 00 3 ... ... ... : F#4 00 . ... : ... .. 7 ... : ... .. . ... ... : D-4 01 8 ... ... : B-4 01 8 ... ... : C#5 01 C ... ...
ROW 39 : ... .. . ... ... ... : ... .. . ... ... ... : G#3 00 . ... : ... .. 6 ... : ... .. . ... ... : ... .. 7 ... ... : ... .. 7 ... ... : ... .. A ... ...
ROW 3A : ... .. . ... ... ... : ... .. . ... ... ... : C#3 00 . ... : ... .. . ... : ... .. . ... ... : ... .. 6 ... ... : ... .. 6 ... ... : ... .. 6 ... ...
ROW 3B : ... .. . ... ... ... : ... .. . ... ... ... : C-3 00 . ... : ... .. 5 ... : ... .. . ... ... : ... .. 5 ... ... : ... .. 5 ... ... : ... .. . ... ...
ROW 3C : ... .. . ... ... ... : E-3 00 4 ... ... ... : G-2 00 . ... : 7-# 00 F ... : ... .. . ... ... : --- .. . ... ... : --- .. . ... ... : --- .. . ... ...
ROW 3D : ... .. . ... ... ... : ... .. 3 ... ... ... : ... .. . ... : ... .. C ... : ... .. . ... ... : ... .. . ... ... : ... .. . ... ... : ... .. . ... ...
ROW 3E : ... .. . ... ... ... : ... .. . ... ... ... : ... .. . ... : ... .. 6 ... : ... .. . ... ... : ... .. . ... ... : ... .. . ... ... : ... .. . ... ...
ROW 3F : ... .. . ... ... ... : ... .. . ... ... ... : ... .. . ... : ... .. 3 ... : ... .. . ... ... : ... .. . ... ... : ... .. . ... ... : ... .. . ... ...
ROW 40 : ... .. . ... ... ... : F#3 00 5 ... ... ... : F#4 00 . ... : ... .. F ... : ... .. . ... ... : D-4 01 8 ... ... : B-4 01 8 ... ... : C#5 01 C ... ...
ROW 41 : ... .. . ... ... ... : ... .. 4 ... ... ... : G#3 00 . ... : ... .. C ... : ... .. . ... ... : ... .. 7 ... ... : ... .. 7 ... ... : ... .. A ... ...
ROW 42 : ... .. . ... ... ... : ... .. . ... ... ... : C#3 00 . ... : ... .. 6 ... : ... .. . ... ... : ... .. 6 ... ... : ... .. 6 ... ... : ... .. 6 ... ...
ROW 43 : ... .. . ... ... ... : ... .. . ... ... ... : C-3 00 . ... : ... .. 3 ... : ... .. . ... ... : ... .. 5 ... ... : ... .. 5 ... ... : ... .. . ... ...
ROW 44 : ... .. . ... ... ... : G-3 00 5 ... ... ... : G-2 00 . ... : ... .. F ... : ... .. . ... ... : ... .. . ... ... : ... .. . ... ... : ... .. . ... ...
ROW 45 : ... .. . ... ... ... : ... .. . ... ... ... : ... .. . ... : ... .. C ... : ... .. . ... ... : --- .. . ... ... : --- .. . ... ... : --- .. . ... ...
ROW 46 : ... .. . ... ... ... : ... .. . ... ... ... : ... .. . ... : ... .. 6 ... : ... .. . ... ... : ... .. . ... ... : ... .. . ... ... : ... .. . ... ...
ROW 47 : ... .. . ... ... ... : ... .. 4 ... ... ... : ... .. . ... : ... .. 3 ... : ... .. . ... ... : ... .. . ... ... : ... .. . ... ... : ... .. . ... ...
ROW 48 : ... .. . ... ... ... : E-3 00 6 ... ... ... : F#3 00 . ... : ... .. F ... : ... .. . ... ... : D-2 01 8 ... ... : B-2 01 8 ... ... : C#3 01 C ... ...
ROW 49 : ... .. . ... ... ... : ... .. 5 ... ... ... : G#2 00 . ... : ... .. C ... : ... .. . ... ... : ... .. 7 ... ... : ... .. 7 ... ... : ... .. A ... ...
ROW 4A : ... .. . ... ... ... : ... .. . ... ... ... : C#2 00 . ... : ... .. 6 ... : ... .. . ... ... : ... .. 6 ... ... : ... .. 6 ... ... : ... .. 6 ... ...
ROW 4B : ... .. . ... ... ... : ... .. 4 ... ... ... : C-2 00 . ... : 9-# 00 D ... : ... .. . ... ... : ... .. 5 ... ... : ... .. 5 ... ... : ... .. . ... ...
ROW 4C : ... .. . ... ... ... : F#3 00 6 ... ... ... : G-1 00 . ... : ... .. B ... : ... .. . ... ... : ... .. . ... ... : ... .. . ... ... : ... .. . ... ...
ROW 4D : ... .. . ... ... ... : ... .. 5 ... ... ... : ... .. . ... : ... .. . ... : ... .. . ... ... : --- .. . P84 ... : --- .. . P85 ... : --- .. . ... ...
ROW 4E : ... .. . ... ... ... : ... .. . ... ... ... : ... .. . ... : ... .. A ... : ... .. . ... ... : ... .. . ... ... : ... .. . ... ... : ... .. . ... ...
ROW 4F : ... .. . ... ... ... : ... .. . ... ... ... : ... .. . ... : ... .. 8 ... : ... .. . ... ... : ... .. . ... ... : ... .. . ... ... : ... .. . ... ...
ROW 50 : ... .. . ... ... ... : G-3 00 6 ... ... ... : ... .. . ... : ... .. 7 ... : ... .. . ... ... : D-2 01 8 P80 ... : B-2 01 8 P80 ... : C#3 01 C ... ...
ROW 51 : ... .. . ... ... ... : ... .. . ... ... ... : ... .. . ... : ... .. 6 ... : ... .. . ... ... : ... .. 7 ... ... : ... .. 7 ... ... : ... .. A ... ...
ROW 52 : ... .. . ... ... ... : ... .. . ... ... ... : ... .. . ... : ... .. . ... : ... .. . ... ... : ... .. 6 ... ... : ... .. 6 ... ... : ... .. 6 ... ...
ROW 53 : ... .. . ... ... ... : ... .. . ... ... ... : ... .. . ... : ... .. 5 ... : ... .. . ... ... : ... .. 5 ... ... : ... .. 5 ... ... : ... .. . ... ...
ROW 54 : ... .. . ... ... ... : A-3 00 7 ... ... ... : ... .. . PA0 : 7-# 00 F ... : ... .. . ... ... : --- .. . P84 ... : --- .. . P85 ... : --- .. . ... ...
ROW 55 : ... .. . ... ... ... : ... .. 6 ... ... ... : G#1 00 . P80 : ... .. C ... : ... .. . ... ... : ... .. . ... ... : ... .. . ... ... : ... .. . ... ...
ROW 56 : ... .. . ... ... ... : ... .. . ... ... ... : A-1 00 . P64 : ... .. 6 ... : ... .. . ... ... : ... .. . ... ... : ... .. . ... ... : ... .. . ... ...
ROW 57 : ... .. . ... ... ... : ... .. . ... ... ... : ... .. . P84 : ... .. 3 ... : ... .. . ... ... : ... .. . ... ... : ... .. . ... ... : ... .. . ... ...
ROW 58 : ... .. . ... ... ... : B-3 00 7 ... ... ... : A#1 00 . P6B : ... .. F ... : ... .. . ... ... : D-2 01 8 P80 ... : B-2 01 8 P80 ... : C#3 01 C ... ...
ROW 59 : ... .. . ... ... ... : ... .. 6 ... ... ... : ... .. . P8B : ... .. C ... : ... .. . ... ... : ... .. 7 ... ... : ... .. 7 ... ... : ... .. A ... ...
ROW 5A : ... .. . ... ... ... : ... .. . ... ... ... : B-1 00 . P75 : ... .. 6 ... : ... .. . ... ... : ... .. 6 ... ... : ... .. 6 ... ... : ... .. 6 ... ...
ROW 5B : ... .. . ... ... ... : ... .. . ... ... ... : ... .. . P95 : ... .. 3 ... : ... .. . ... ... : ... .. 5 ... ... : ... .. 5 ... ... : ... .. . ... ...
ROW 5C : ... .. . ... ... ... : C#4 00 8 ... ... ... : C-2 00 . P82 : ... .. F ... : ... .. . ... ... : ... .. . ... ... : ... .. . ... ... : ... .. . ... ...
ROW 5D : ... .. . ... ... ... : ... .. 7 ... ... ... : C#2 00 . P72 : ... .. C ... : ... .. . ... ... : --- .. . P84 ... : --- .. . P85 ... : --- .. . ... ...
ROW 5E : ... .. . ... ... ... : ... .. . ... ... ... : ... .. . P92 : ... .. 6 ... : ... .. . ... ... : ... .. . ... ... : ... .. . ... ... : ... .. . ... ...
ROW 5F : ... .. . ... ... ... : ... .. 6 ... ... ... : D-2 00 . P85 : ... .. 3 ... : ... .. . ... ... : ... .. . ... ... : ... .. . ... ... : ... .. . ... ...
ROW 60 : ... .. . ... ... ... : D-4 00 9 ... ... ... : F#4 00 . P80 : ... .. F ... : ... .. . ... ... : B-3 01 8 P80 ... : E-4 01 8 P80 ... : G-4 01 C ... ...
ROW 61 : ... .. . ... ... ... : ... .. 8 ... ... ... : G#3 00 . ... : ... .. C ... : ... .. . ... ... : ... .. 7 ... ... : ... .. 7 ... ... : ... .. A ... ...
ROW 62 : ... .. . ... ... ... : ... .. . ... ... ... : C#3 00 . ... : ... .. 6 ... : ... .. . ... ... : ... .. 6 ... ... : ... .. 6 ... ... : ... .. 6 ... ...
ROW 63 : ... .. . ... ... ... : ... .. 7 ... ... ... : C-3 00 . ... : ... .. 3 ... : ... .. . ... ... : ... .. 5 ... ... : ... .. 5 ... ... : ... .. . ... ...
ROW 64 : ... .. . ... ... ... : E-4 00 9 ... ... ... : G-2 00 . ... : ... .. 2 ... : ... .. . ... ... : ... .. . ... ... : ... .. . ... ... : ... .. . ... ...
ROW 65 : ... .. . ... ... ... : ... .. 8 ... ... ... : ... .. . ... : ... .. 0 ... : ... .. . ... ... : ... .. 4 ... ... : ... .. 4 ... ... : ... .. . ... ...
ROW 66 : ... .. . ... ... ... : ... .. . ... ... ... : ... .. . ... : ... .. . ... : ... .. . ... ... : ... .. . ... ... : ... .. . ... ... : ... .. . ... ...
ROW 67 : ... .. . ... ... ... : ... .. 7 ... ... ... : ... .. . ... : ... .. . ... : ... .. . ... ... : ... .. . ... ... : ... .. . ... ... : ... .. . ... ...
ROW 68 : ... .. . ... ... ... : F#4 00 A ... ... ... : F#4 00 . ... : ... .. F ... : ... .. . ... ... : ... .. . ... ... : ... .. . ... ... : ... .. . ... ...
ROW 69 : ... .. . ... ... ... : ... .. 8 ... ... ... : G#3 00 . ... : ... .. C ... : ... .. . ... ... : --- .. . ... ... : --- .. . ... ... : --- .. . ... ...
ROW 6A : ... .. . ... ... ... : ... .. . ... ... ... : C#3 00 . ... : ... .. 6 ... : ... .. . ... ... : ... .. . ... ... : ... .. . ... ... : ... .. . ... ...
ROW 6B : ... .. . ... ... ... : ... .. . ... ... ... : C-3 00 . ... : ... .. 3 ... : ... .. . ... ... : ... .. . ... ... : ... .. . ... ... : ... .. . ... ...
ROW 6C : ... .. . ... ... ... : G-4 00 B ... ... ... : G-2 00 . ... : ... .. 2 ... : ... .. . ... ... : B-3 01 6 ... ... : E-4 01 6 ... ... : G-4 01 A ... ...
ROW 6D : ... .. . ... ... ... : ... .. 9 ... ... ... : ... .. . ... : ... .. 0 ... : ... .. . ... ... : ... .. 4 ... ... : ... .. 4 ... ... : ... .. 6 ... ...
ROW 6E : ... .. . ... ... ... : ... .. . ... ... ... : ... .. . ... : ... .. . ... : ... .. . ... ... : ... .. 3 ... ... : ... .. 3 ... ... : ... .. 3 ... ...
ROW 6F : ... .. . ... ... ... : ... .. 8 ... ... ... : ... .. . ... : ... .. . ... : ... .. . ... ... : ... .. 1 ... ... : ... .. 1 ... ... : ... .. 2 ... ...
ROW 70 : ... .. . ... ... ... : A-4 00 B ... ... ... : F#4 00 . ... : ... .. F ... : ... .. . ... ... : ... .. 6 ... ... : ... .. 6 ... ... : ... .. A ... ...
ROW 71 : ... .. . ... ... ... : ... .. 9 ... ... ... : G#3 00 . ... : ... .. C ... : ... .. . ... ... : ... .. 4 ... ... : ... .. 4 ... ... : ... .. 6 ... ...
ROW 72 : ... .. . ... ... ... : ... .. . ... ... ... : C#3 00 . ... : ... .. 6 ... : ... .. . ... ... : ... .. 3 ... ... : ... .. 3 ... ... : ... .. 3 ... ...
ROW 73 : ... .. . ... ... ... : ... .. 8 ... ... ... : C-3 00 . ... : ... .. 3 ... : ... .. . ... ... : ... .. 1 ... ... : ... .. 1 ... ... : ... .. 2 ... ...
ROW 74 : ... .. . ... ... ... : B-4 00 C ... ... ... : G-2 00 . ... : ... .. 2 ... : ... .. . ... ... : ... .. 6 ... ... : ... .. 6 ... ... : ... .. A ... ...
ROW 75 : ... .. . ... ... ... : ... .. A ... ... ... : ... .. . ... : ... .. 0 ... : ... .. . ... ... : ... .. 4 ... ... : ... .. 4 ... ... : ... .. 6 ... ...
ROW 76 : ... .. . ... ... ... : ... .. . ... ... ... : ... .. . ... : ... .. . ... : ... .. . ... ... : ... .. 3 ... ... : ... .. 3 ... ... : ... .. 3 ... ...
ROW 77 : ... .. . ... ... ... : ... .. 9 ... ... ... : ... .. . ... : ... .. . ... : ... .. . ... ... : ... .. 1 ... ... : ... .. 1 ... ... : ... .. 2 ... ...
ROW 78 : ... .. . ... ... ... : G-4 00 D ... ... ... : D#4 00 . ... : ... .. F ... : ... .. . ... ... : B-2 01 8 ... ... : D-4 01 8 ... ... : ... .. C ... ...
ROW 79 : ... .. . ... ... ... : ... .. B ... ... ... : F-3 00 . ... : ... .. C ... : ... .. . ... ... : ... .. 7 ... ... : ... .. 7 ... ... : ... .. A ... ...
ROW 7A : ... .. . ... ... ... : ... .. . ... ... ... : A#2 00 . ... : ... .. 6 ... : ... .. . ... ... : ... .. 6 ... ... : ... .. 6 ... ... : ... .. 6 ... ...
ROW 7B : ... .. . ... ... ... : ... .. A ... ... ... : A-2 00 . ... : ... .. 3 ... : ... .. . ... ... : ... .. 5 ... ... : ... .. 5 ... ... : ... .. . ... ...
ROW 7C : ... .. . ... ... ... : A-4 00 D ... ... ... : E-2 00 . ... : ... .. 2 ... : ... .. . ... ... : ... .. . ... ... : ... .. . ... ... : ... .. . ... ...
ROW 7D : ... .. . ... ... ... : ... .. B ... ... ... : ... .. . ... : ... .. 0 ... : ... .. . ... ... : --- .. . P85 ... : --- .. . ... ... : --- .. . ... ...
ROW 7E : ... .. . ... ... ... : ... .. . ... ... ... : ... .. . ... : ... .. . ... : ... .. . ... ... : ... .. . ... ... : ... .. . ... ... : ... .. . ... ...
ROW 7F : ... .. . ... ... ... : ... .. A ... ... ... : ... .. . ... : ... .. . ... : ... .. . ... ... : ... .. . ... ... : ... .. . ... ... : ... .. . ... ...
ROW 80 : ... .. . ... ... ... : B-4 00 D ... ... ... : F-4 00 . ... : ... .. F ... : ... .. . ... ... : C#3 01 8 P80 ... : C#4 01 8 ... ... : F#4 01 C ... ...
ROW 81 : ... .. . ... ... ... : ... .. B ... ... ... : G-3 00 . ... : ... .. C ... : ... .. . ... ... : ... .. 7 ... ... : ... .. 7 ... ... : ... .. A ... ...
ROW 82 : ... .. . ... ... ... : ... .. . ... ... ... : C-3 00 . ... : ... .. 6 ... : ... .. . ... ... : ... .. 6 ... ... : ... .. 6 ... ... : ... .. 6 ... ...
ROW 83 : ... .. . ... ... ... : ... .. A ... ... ... : B-2 00 . ... : ... .. 3 ... : ... .. . ... ... : ... .. 5 ... ... : ... .. 5 ... ... : ... .. . ... ...
ROW 84 : ... .. . ... ... ... : C#5 00 D ... ... ... : F#2 00 . ... : ... .. 2 ... : ... .. . ... ... : --- .. . P83 ... : --- .. . ... ... : --- .. . ... ...
ROW 85 : ... .. . ... ... ... : ... .. B ... ... ... : ... .. . ... : ... .. 0 ... : ... .. . ... ... : ... .. . ... ... : ... .. . ... ... : ... .. . ... ...
ROW 86 : ... .. . ... ... ... : ... .. . ... ... ... : ... .. . ... : ... .. . ... : ... .. . ... ... : ... .. . ... ... : ... .. . ... ... : ... .. . ... ...
ROW 87 : ... .. . ... ... ... : ... .. A ... ... ... : ... .. . ... : ... .. . ... : ... .. . ... ... : ... .. . ... ... : ... .. . ... ... : ... .. . ... ...
ROW 88 : ... .. . ... ... ... : D-5 00 D ... ... ... : F#4 00 . ... : ... .. F ... : ... .. . ... ... : D-3 01 8 P80 ... : B-3 01 8 ... ... : E-4 01 C ... ...
ROW 89 : ... .. . ... ... ... : ... .. B ... ... ... : G#3 00 . ... : ... .. C ... : ... .. . ... ... : ... .. 7 ... ... : ... .. 7 ... ... : ... .. A ... ...
ROW 8A : ... .. . ... ... ... : ... .. . ... ... ... : C#3 00 . ... : ... .. 6 ... : ... .. . ... ... : ... .. 6 ... ... : ... .. 6 ... ... : ... .. 6 ... ...
ROW 8B : ... .. . ... ... ... : ... .. A ... ... ... : C-3 00 . ... : ... .. 3 ... : ... .. . ... ... : ... .. 5 ... ... : ... .. 5 ... ... : ... .. . ... ...
ROW 8C : ... .. . ... ... ... : E-5 00 D ... ... ... : G-2 00 . ... : ... .. 2 ... : ... .. . ... ... : ... .. . ... ... : ... .. . ... ... : ... .. . ... ...
ROW 8D : ... .. . ... ... ... : ... .. B ... ... ... : ... .. . ... : ... .. 0 ... : ... .. . ... ... : ... .. 4 ... ... : ... .. 4 ... ... : ... .. . ... ...
ROW 8E : ... .. . ... ... ... : ... .. . ... ... ... : ... .. . ... : ... .. . ... : ... .. . ... ... : ... .. . ... ... : ... .. . ... ... : ... .. . ... ...
ROW 8F : ... .. . ... ... ... : ... .. A ... ... ... : ... .. . ... : ... .. . ... : ... .. . ... ... : ... .. . ... ... : ... .. . ... ... : ... .. . ... ...
ROW 90 : C#4 00 C P80 ... ... : F#5 00 D ... ... ... : F-5 00 . ... : 9-# 00 F ... : ... .. . ... ... : C#4 01 8 ... ... : F#4 01 8 ... ... : C#3 01 C ... ...
ROW 91 : ... .. B ... ... ... : ... .. B ... ... ... : G-4 00 . ... : ... .. C ... : ... .. . ... ... : ... .. 7 ... ... : ... .. 7 ... ... : ... .. A ... ...
ROW 92 : ... .. A ... ... ... : ... .. . ... ... ... : C-4 00 . ... : ... .. 6 ... : ... .. . ... ... : ... .. 6 ... ... : ... .. 6 ... ... : ... .. 6 ... ...
ROW 93 : ... .. 8 ... ... ... : E-5 00 C ... ... ... : B-3 00 . ... : ... .. 3 ... : ... .. . ... ... : ... .. 5 ... ... : ... .. 5 ... ... : ... .. . ... ...
ROW 94 : ... .. . ... ... ... : ... .. A ... ... ... : F#3 00 . ... : ... .. 2 ... : ... .. . ... ... : ... .. . ... ... : ... .. . ... ... : ... .. . ... ...
ROW 95 : ... .. . ... ... ... : ... .. . ... ... ... : ... .. . ... : ... .. 0 ... : ... .. . ... ... : ... .. 4 ... ... : ... .. 4 ... ... : ... .. . ... ...
ROW 96 : ... .. . ... ... ... : D-5 00 B ... ... ... : E-3 00 . P85 : 2-# 00 F ... : ... .. . ... ... : ... .. . ... ... : ... .. . ... ... : ... .. . ... ...
ROW 97 : ... .. . ... ... ... : ... .. 9 ... ... ... : D#3 00 . P7A : ... .. C ... : ... .. . ... ... : ... .. . ... ... : ... .. . ... ... : ... .. . ... ...
ROW 98 : ... .. . ... ... ... : ... .. . ... ... ... : C#3 00 . P86 : ... .. 6 ... : ... .. . ... ... : ... .. . ... ... : ... .. . ... ... : ... .. . ... ...
ROW 99 : ... .. . ... ... ... : C#5 00 A ... ... ... : C-3 00 . P7E : ... .. 3 ... : ... .. . ... ... : --- .. . ... ... : --- .. . ... ... : ... .. . ... ...
ROW 9A : ... .. . ... ... ... : ... .. 8 ... ... ... : B-2 00 . P77 : ... .. 2 ... : ... .. . ... ... : ... .. . ... ... : ... .. . ... ... : ... .. . ... ...
ROW 9B : ... .. . ... ... ... : ... .. . ... ... ... : --- .. . ... : ... .. 0 ... : ... .. . ... ... : ... .. . ... ... : ... .. . ... ... : ... .. . ... ...
ROW 9C : ... .. . ... ... ... : B-4 00 9 ... ... ... : E-2 00 . P80 : 1-# 00 F ... : ... .. . ... ... : C#4 01 6 ... ... : F#4 01 6 ... ... : ... .. . ... ...
ROW 9D : ... .. . ... ... ... : ... .. 8 ... ... ... : ... .. . ... : ... .. C ... : ... .. . ... ... : ... .. 4 ... ... : ... .. 4 ... ... : ... .. . ... ...
ROW 9E : ... .. . ... ... ... : ... .. . ... ... ... : ... .. . ... : ... .. 6 ... : ... .. . ... ... : ... .. 3 ... ... : ... .. 3 ... ... : ... .. . ... ...
ROW 9F : ... .. . ... ... ... : ... .. 7 ... ... ... : ... .. . ... : ... .. 3 ... : ... .. . ... ... : ... .. 1 ... ... : ... .. 1 ... ... : ... .. . ... ...
ROW A0 : ... .. . ... ... ... : A-4 00 8 ... ... ... : ... .. . ... : ... .. 2 ... : ... .. . ... ... : ... .. 6 ... ... : ... .. 6 ... ... : ... .. . ... ...
ROW A1 : ... .. . ... ... ... : ... .. 7 ... ... ... : --- .. . ... : ... .. 0 ... : ... .. . ... ... : ... .. 4 ... ... : ... .. 4 ... ... : ... .. . ... ...
ROW A2 : ... .. . ... ... ... : ... .. . ... ... ... : F#2 00 . ... : C-# 00 F ... : ... .. . ... ... : ... .. 3 ... ... : ... .. 3 ... ... : ... .. . ... ...
ROW A3 : ... .. . ... ... ... : ... .. 6 ... ... ... : ... .. . ... : ... .. C ... : ... .. . ... ... : ... .. 1 ... ... : ... .. 1 ... ... : ... .. . ... ...
ROW A4 : ... .. . ... ... ... : G-4 00 7 ... ... ... : ... .. . ... : ... .. 6 ... : ... .. . ... ... : ... .. 6 ... ... : ... .. 6 ... ... : ... .. . ... ...
ROW A5 : ... .. . ... ... ... : ... .. 5 ... ... ... : ... .. . ... : ... .. 3 ... : ... .. . ... ... : ... .. 4 ... ... : ... .. 4 ... ... : ... .. . ... ...
ROW A6 : ... .. . ... ... ... : ... .. . ... ... ... : ... .. . ... : ... .. 2 ... : ... .. . ... ... : ... .. 3 ... ... : ... .. 3 ... ... : ... .. . ... ...
ROW A7 : ... .. . ... ... ... : ... .. . ... ... ... : --- .. . ... : ... .. 0 ... : ... .. . ... ... : ... .. 1 ... ... : ... .. 1 ... ... : ... .. . ... ...
ROW A8 : ... .. . ... ... ... : F#4 00 6 ... ... ... : F-4 00 . ... : 7-# 00 F ... : ... .. . ... ... : ... .. 8 ... ... : ... .. 8 ... ... : ... .. . ... ...
ROW A9 : ... .. . ... ... ... : ... .. 5 ... ... ... : G-3 00 . ... : ... .. C ... : ... .. . ... ... : ... .. 7 ... ... : ... .. 7 ... ... : ... .. . ... ...
ROW AA : ... .. . ... ... ... : ... .. . ... ... ... : C-3 00 . ... : ... .. 6 ... : ... .. . ... ... : ... .. 6 ... ... : ... .. 6 ... ... : ... .. . ... ...
ROW AB : ... .. . ... ... ... : ... .. 4 ... ... ... : B-2 00 . ... : ... .. 3 ... : ... .. . ... ... : ... .. 5 ... ... : ... .. 5 ... ... : ... .. . ... ...
ROW AC : ... .. . ... ... ... : E-4 00 5 ... ... ... : F#2 00 . ... : ... .. 2 ... : ... .. . ... ... : ... .. . ... ... : ... .. . ... ... : ... .. . ... ...
ROW AD : ... .. . ... ... ... : ... .. 4 ... ... ... : --- .. . ... : ... .. 0 ... : ... .. . ... ... : --- .. . ... ... : --- .. . ... ... : ... .. . ... ...
ROW AE : ... .. . ... ... ... : ... .. . ... ... ... : F#3 00 . ... : 1-# 00 F ... : ... .. . ... ... : ... .. . ... ... : ... .. . ... ... : ... .. . ... ...
ROW AF : ... .. 1 ... ... ... : ... .. . ... ... ... : ... .. . ... : ... .. C ... : ... .. . ... ... : ... .. . ... ... : ... .. . ... ... : ... .. 3 ... ...
ROW B0 : ... .. . ... ... ... : D-4 00 4 ... ... ... : ... .. . ... : ... .. 6 ... : ... .. . ... ... : C#4 01 8 ... ... : F#4 01 8 ... ... : ... .. . ... ...
ROW B1 : ... .. . ... ... ... : ... .. 3 ... ... ... : ... .. . ... : ... .. 3 ... : ... .. . ... ... : ... .. 7 ... ... : ... .. 7 ... ... : ... .. 1 ... ...
ROW B2 : ... .. . ... ... ... : ... .. . ... ... ... : ... .. . ... : ... .. 2 ... : ... .. . ... ... : ... .. 6 ... ... : ... .. 6 ... ... : ... .. . ... ...
ROW B3 : ... .. . ... ... ... : ... .. . ... ... ... : --- .. . ... : ... .. 0 ... : ... .. . ... ... : ... .. 5 ... ... : ... .. 5 ... ... : ... .. . ... ...
ROW B4 : ... .. C ... ... ... : C#4 00 5 ... ... ... : E-3 00 . ... : C-# 00 F ... : ... .. . ... ... : --- .. . ... ... : --- .. . ... ... : ... .. C ... ...
ROW B5 : ... .. B ... ... ... : ... .. 4 ... ... ... : ... .. . ... : ... .. C ... : ... .. . ... ... : ... .. . ... ... : ... .. . ... ... : ... .. A ... ...
ROW B6 : ... .. A ... ... ... : ... .. . ... ... ... : ... .. . ... : ... .. 6 ... : ... .. . ... ... : ... .. . ... ... : ... .. . ... ... : ... .. 6 ... ...
ROW B7 : ... .. 8 ... ... ... : ... .. . ... ... ... : ... .. . ... : ... .. 3 ... : ... .. . ... ... : ... .. . ... ... : ... .. . ... ... : ... .. . ... ...
ROW B8 : ... .. 1 ... ... ... : B-2 00 5 ... ... ... : ... .. . ... : ... .. 2 ... : ... .. . ... ... : C#4 01 8 ... ... : F#4 01 8 ... ... : ... .. 3 ... ...
ROW B9 : ... .. . ... ... ... : ... .. 4 ... ... ... : --- .. . ... : ... .. 0 ... : ... .. . ... ... : ... .. 7 ... ... : ... .. 7 ... ... : ... .. . ... ...
ROW BA : B-3 00 C ... ... ... : ... .. . ... ... ... : F#3 00 . ... : 7-# 00 F ... : ... .. . ... ... : ... .. 6 ... ... : ... .. 6 ... ... : B-2 01 C ... ...
ROW BB : ... .. B ... ... ... : ... .. . ... ... ... : ... .. . ... : ... .. C ... : ... .. . ... ... : ... .. 5 ... ... : ... .. 5 ... ... : ... .. A ... ...
ROW BC : ... .. A ... ... ... : C#3 00 5 ... ... ... : ... .. . ... : ... .. 6 ... : ... .. . ... ... : ... .. . ... ... : ... .. . ... ... : ... .. 6 ... ...
ROW BD : ... .. 8 ... ... ... : ... .. . ... ... ... : ... .. . ... : ... .. 3 ... : ... .. . ... ... : --- .. . ... ... : --- .. . ... ... : ... .. . ... ...
ROW BE : ... .. 1 ... ... ... : ... .. . ... ... ... : ... .. . ... : ... .. 2 ... : ... .. . ... ... : ... .. . ... ... : ... .. . ... ... : ... .. 3 ... ...
ROW BF : ... .. . ... ... ... : ... .. 4 ... ... ... : --- .. . ... : ... .. 0 ... : ... .. . ... ... : ... .. . ... ... : ... .. . ... ... : ... .. . ... ...
ROW C0 : A-3 00 C ... ... ... : D-3 00 6 ... ... ... : F-5 00 . ... : 1-# 00 F ... : ... .. . ... ... : C#3 01 8 ... ... : F#3 01 8 ... ... : A-2 01 C ... ...
ROW C1 : ... .. B ... ... ... : ... .. 5 ... ... ... : G-4 00 . ... : ... .. C ... : ... .. . ... ... : ... .. 7 ... ... : ... .. 7 ... ... : ... .. A ... ...
ROW C2 : ... .. A ... ... ... : ... .. . ... ... ... : C-4 00 . ... : ... .. 6 ... : ... .. . ... ... : ... .. 6 ... ... : ... .. 6 ... ... : ... .. 6 ... ...
ROW C3 : ... .. 8 ... ... ... : ... .. 4 ... ... ... : B-3 00 . ... : ... .. 3 ... : ... .. . ... ... : ... .. 5 ... ... : ... .. 5 ... ... : ... .. . ... ...
ROW C4 : ... .. . ... ... ... : C#3 00 6 ... ... ... : F#3 00 . ... : ... .. 2 ... : ... .. . ... ... : ... .. . ... ... : ... .. . ... ... : ... .. . ... ...
ROW C5 : ... .. . ... ... ... : ... .. 5 ... ... ... : ... .. . ... : ... .. 0 ... : ... .. . ... ... : --- .. . P83 ... : --- .. . P7F ... : ... .. . ... ...
ROW C6 : ... .. . ... ... ... : ... .. . ... ... ... : E-3 00 . P85 : B-# 00 F ... : ... .. . ... ... : ... .. . ... ... : ... .. . ... ... : ... .. . ... ...
ROW C7 : ... .. . ... ... ... : ... .. 4 ... ... ... : D#3 00 . P7A : ... .. C ... : ... .. . ... ... : ... .. . ... ... : ... .. . ... ... : ... .. . ... ...
ROW C8 : ... .. . ... ... ... : B-2 00 6 ... ... ... : C#3 00 . P86 : ... .. 6 ... : ... .. . ... ... : C#3 01 8 P80 ... : F#3 01 8 P80 ... : ... .. . ... ...
ROW C9 : ... .. . ... ... ... : ... .. 5 ... ... ... : C-3 00 . P7E : ... .. 3 ... : ... .. . ... ... : ... .. 7 ... ... : ... .. 7 ... ... : ... .. . ... ...
ROW CA : ... .. . ... ... ... : ... .. . ... ... ... : B-2 00 . P77 : ... .. 2 ... : ... .. . ... ... : ... .. 6 ... ... : ... .. 6 ... ... : ... .. . ... ...
ROW CB : ... .. . ... ... ... : ... .. . ... ... ... : --- .. . ... : ... .. 0 ... : ... .. . ... ... : ... .. 5 ... ... : ... .. 5 ... ... : ... .. . ... ...
ROW CC : ... .. . ... ... ... : A-2 00 6 ... ... ... : E-2 00 . P80 : 7-# 00 F ... : ... .. . ... ... : --- .. . P83 ... : --- .. . P7F ... : ... .. . ... ...
ROW CD : ... .. . ... ... ... : ... .. 5 ... ... ... : ... .. . ... : ... .. C ... : ... .. . ... ... : ... .. . ... ... : ... .. . ... ... : ... .. . ... ...
ROW CE : ... .. . ... ... ... : ... .. . ... ... ... : ... .. . ... : ... .. 6 ... : ... .. . ... ... : ... .. . ... ... : ... .. . ... ... : ... .. . ... ...
ROW CF : ... .. . ... ... ... : ... .. . ... ... ... : ... .. . ... : ... .. 3 ... : ... .. . ... ... : ... .. . ... ... : ... .. . ... ... : ... .. . ... ...
ROW D0 : ... .. . ... ... ... : G-2 00 6 ... ... ... : ... .. . ... : ... .. 2 ... : ... .. . ... ... : C#3 01 8 P80 ... : F#3 01 8 P80 ... : ... .. . ... ...
ROW D1 : ... .. . ... ... ... : ... .. 5 ... ... ... : --- .. . ... : ... .. 0 ... : ... .. . ... ... : ... .. 7 ... ... : ... .. 7 ... ... : ... .. . ... ...
ROW D2 : ... .. . ... ... ... : ... .. . ... ... ... : F#2 00 . ... : 1-# 00 F ... : ... .. . ... ... : ... .. 6 ... ... : ... .. 6 ... ... : ... .. . ... ...
ROW D3 : ... .. . ... ... ... : ... .. . ... ... ... : ... .. . ... : ... .. C ... : ... .. . ... ... : ... .. 5 ... ... : ... .. 5 ... ... : ... .. . ... ...
ROW D4 : ... .. . ... ... ... : F#2 00 6 ... ... ... : ... .. . ... : ... .. 6 ... : ... .. . ... ... : ... .. . ... ... : ... .. . ... ... : ... .. . ... ...
ROW D5 : ... .. . ... ... ... : ... .. . ... ... ... : ... .. . ... : ... .. 3 ... : ... .. . ... ... : --- .. . P83 ... : --- .. . P7F ... : ... .. . ... ...
ROW D6 : ... .. . ... ... ... : ... .. . ... ... ... : ... .. . ... : ... .. 2 ... : ... .. . ... ... : ... .. . ... ... : ... .. . ... ... : ... .. . ... ...
ROW D7 : ... .. . ... ... ... : ... .. . ... ... ... : --- .. . ... : ... .. 0 ... : ... .. . ... ... : ... .. . ... ... : ... .. . ... ... : ... .. . ... ...
ROW D8 : ... .. . ... ... ... : G-2 00 7 ... ... ... : F-4 00 . ... : 9-# 00 F ... : ... .. . ... ... : C#4 01 8 P80 ... : A-4 01 8 P80 ... : ... .. . ... ...
ROW D9 : ... .. . ... ... ... : ... .. 6 ... ... ... : G-3 00 . ... : ... .. C ... : ... .. . ... ... : ... .. 7 ... ... : ... .. 7 ... ... : ... .. . ... ...
ROW DA : ... .. . ... ... ... : ... .. . ... ... ... : C-3 00 . ... : ... .. 6 ... : ... .. . ... ... : ... .. 6 ... ... : ... .. 6 ... ... : ... .. . ... ...
ROW DB : ... .. . ... ... ... : ... .. . ... ... ... : B-2 00 . ... : ... .. 3 ... : ... .. . ... ... : ... .. 5 ... ... : ... .. 5 ... ... : ... .. . ... ...
ROW DC : ... .. . ... ... ... : A-2 00 7 ... ... ... : F#2 00 . ... : ... .. 2 ... : ... .. . ... ... : ... .. . ... ... : ... .. . ... ... : ... .. . ... ...
ROW DD : ... .. . ... ... ... : ... .. 6 ... ... ... : --- .. . ... : ... .. 0 ... : ... .. . ... ... : --- .. . ... ... : --- .. . ... ... : ... .. . ... ...
ROW DE : ... .. . ... ... ... : ... .. . ... ... ... : F#3 00 . ... : ... .. F ... : ... .. . ... ... : ... .. . ... ... : ... .. . ... ... : ... .. . ... ...
ROW DF : ... .. . ... ... ... : ... .. . ... ... ... : ... .. . ... : ... .. C ... : ... .. . ... ... : ... .. . ... ... : ... .. . ... ... : ... .. . ... ...
ROW E0 : ... .. . ... ... ... : B-2 00 8 ... ... ... : ... .. . ... : ... .. 6 ... : ... .. . ... ... : C#4 01 8 ... ... : A-4 01 8 ... ... : ... .. . ... ...
ROW E1 : ... .. . ... ... ... : ... .. 7 ... ... ... : ... .. . ... : ... .. 3 ... : ... .. . ... ... : ... .. 7 ... ... : ... .. 7 ... ... : ... .. . ... ...
ROW E2 : ... .. . ... ... ... : ... .. . ... ... ... : ... .. . ... : ... .. 2 ... : ... .. . ... ... : ... .. 6 ... ... : ... .. 6 ... ... : ... .. . ... ...
ROW E3 : ... .. . ... ... ... : ... .. 6 ... ... ... : --- .. . ... : ... .. 0 ... : ... .. . ... ... : ... .. 5 ... ... : ... .. 5 ... ... : ... .. . ... ...
ROW E4 : ... .. . ... ... ... : C#3 00 8 ... ... ... : E-3 00 . ... : 7-# 00 F ... : ... .. . ... ... : --- .. . ... ... : --- .. . ... ... : ... .. . ... ...
ROW E5 : ... .. . ... ... ... : ... .. 7 ... ... ... : ... .. . ... : ... .. C ... : ... .. . ... ... : ... .. . ... ... : ... .. . ... ... : ... .. . ... ...
ROW E6 : ... .. . ... ... ... : ... .. . ... ... ... : ... .. . ... : ... .. 6 ... : ... .. . ... ... : ... .. . ... ... : ... .. . ... ... : ... .. . ... ...
ROW E7 : ... .. . ... ... ... : ... .. 6 ... ... ... : ... .. . ... : ... .. 3 ... : ... .. . ... ... : ... .. . ... ... : ... .. . ... ... : ... .. . ... ...
ROW E8 : ... .. . ... ... ... : D-3 00 8 ... ... ... : ... .. . ... : ... .. 2 ... : ... .. . ... ... : C#4 01 8 ... ... : A-4 01 8 ... ... : ... .. . ... ...
ROW E9 : ... .. . ... ... ... : ... .. 7 ... ... ... : --- .. . ... : ... .. 0 ... : ... .. . ... ... : ... .. 7 ... ... : ... .. 7 ... ... : ... .. . ... ...
ROW EA : ... .. . ... ... ... : ... .. . ... ... ... : F#3 00 . ... : ... .. F ... : ... .. . ... ... : ... .. 6 ... ... : ... .. 6 ... ... : ... .. . ... ...
ROW EB : ... .. 1 ... ... ... : ... .. 6 ... ... ... : ... .. . ... : ... .. C ... : ... .. . ... ... : ... .. 5 ... ... : ... .. 5 ... ... : ... .. 3 ... ...
ROW EC : ... .. . ... ... ... : E-3 00 9 ... ... ... : ... .. . ... : ... .. 6 ... : ... .. . ... ... : ... .. . ... ... : ... .. . ... ... : ... .. . ... ...
ROW ED : ... .. . ... ... ... : ... .. 8 ... ... ... : ... .. . ... : ... .. 3 ... : ... .. . ... ... : --- .. . ... ... : --- .. . ... ... : ... .. 1 ... ...
ROW EE : ... .. . ... ... ... : ... .. . ... ... ... : ... .. . ... : ... .. 2 ... : ... .. . ... ... : ... .. . ... ... : ... .. . ... ... : ... .. . ... ...
ROW EF : ... .. . ... ... ... : ... .. 7 ... ... ... : --- .. . ... : ... .. 0 ... : ... .. . ... ... : ... .. . ... ... : ... .. . ... ... : ... .. . ... ...
ROW F0 : B-3 00 C ... ... ... : F#3 00 9 ... ... ... : F-4 00 . ... : 9-# 00 F ... : ... .. . ... ... : D-4 01 8 ... ... : G-4 01 8 ... ... : B-2 01 C ... ...
ROW F1 : ... .. B ... ... ... : ... .. 8 ... ... ... : G-3 00 . ... : ... .. C ... : ... .. . ... ... : ... .. 7 ... ... : ... .. 7 ... ... : ... .. A ... ...
ROW F2 : ... .. A ... ... ... : ... .. . ... ... ... : C-3 00 . ... : ... .. 6 ... : ... .. . ... ... : ... .. 6 ... ... : ... .. 6 ... ... : ... .. 6 ... ...
ROW F3 : ... .. 8 ... ... ... : ... .. 7 ... ... ... : B-2 00 . ... : ... .. 3 ... : ... .. . ... ... : ... .. 5 ... ... : ... .. 5 ... ... : ... .. . ... ...
ROW F4 : ... .. . ... ... ... : E-3 00 9 ... ... ... : F#2 00 . ... : ... .. 2 ... : ... .. . ... ... : ... .. . ... ... : ... .. . ... ... : ... .. . ... ...
ROW F5 : ... .. . ... ... ... : ... .. 8 ... ... ... : ... .. . ... : ... .. 0 ... : ... .. . ... ... : ... .. 4 ... ... : ... .. 4 ... ... : ... .. . ... ...
ROW F6 : ... .. . ... ... ... : ... .. . ... ... ... : F-2 00 . P84 : 2-# 00 F ... : ... .. . ... ... : ... .. . ... ... : ... .. . ... ... : ... .. . ... ...
ROW F7 : ... .. . ... ... ... : ... .. 7 ... ... ... : E-2 00 . P8A : ... .. C ... : ... .. . ... ... : ... .. . ... ... : ... .. . ... ... : ... .. . ... ...
ROW F8 : ... .. . ... ... ... : D-3 00 A ... ... ... : D#2 00 . P92 : ... .. 6 ... : ... .. . ... ... : ... .. . ... ... : ... .. . ... ... : ... .. . ... ...
ROW F9 : ... .. . ... ... ... : ... .. 8 ... ... ... : ... .. . P72 : ... .. 3 ... : ... .. . ... ... : --- .. . ... ... : --- .. . ... ... : ... .. . ... ...
ROW FA : ... .. . ... ... ... : ... .. . ... ... ... : D-2 00 . P7D : ... .. 2 ... : ... .. . ... ... : ... .. . ... ... : ... .. . ... ... : ... .. . ... ...
ROW FB : ... .. . ... ... ... : ... .. . ... ... ... : --- .. . ... : ... .. 0 ... : ... .. . ... ... : ... .. . ... ... : ... .. . ... ... : ... .. . ... ...
ROW FC : ... .. . ... ... ... : C#3 00 A ... ... ... : E-1 00 . P80 : 1-# 00 F ... : ... .. . ... ... : D-4 01 6 ... ... : G-4 01 6 ... ... : ... .. . ... ...
ROW FD : ... .. . ... ... ... : ... .. 8 ... ... ... : ... .. . ... : ... .. C ... : ... .. . ... ... : ... .. 4 ... ... : ... .. 4 ... ... : ... .. . ... ...
ROW FE : ... .. . ... ... ... : ... .. . ... ... ... : ... .. . ... : ... .. 6 ... : ... .. . ... ... : ... .. 3 ... ... : ... .. 3 ... ... : ... .. . ... ...
ROW FF : ... .. . ... ... ... : ... .. . ... ... ... : ... .. . ... : ... .. 3 ... : ... .. . ... ... : ... .. 1 ... ... : ... .. 1 ... ... : ... .. . ... ...

PATTERN 1C
ROW 00 : ... .. . ... ... ... : B-2 00 B ... ... ... : ... .. . ... : ... .. 2 ... : ... .. . ... ... : ... .. 6 ... ... : ... .. 6 ... ... : ... .. . ... ...
ROW 01 : ... .. . ... ... ... : ... .. 9 ... ... ... : --- .. . ... : ... .. 0 ... : ... .. . ... ... : ... .. 4 ... ... : ... .. 4 ... ... : ... .. . ... ...
ROW 02 : ... .. . ... ... ... : ... .. . ... ... ... : F#1 00 . ... : C-# 00 F ... : ... .. . ... ... : ... .. 3 ... ... : ... .. 3 ... ... : ... .. . ... ...
ROW 03 : ... .. . ... ... ... : ... .. 8 ... ... ... : ... .. . ... : ... .. C ... : ... .. . ... ... : ... .. 1 ... ... : ... .. 1 ... ... : ... .. . ... ...
ROW 04 : ... .. . ... ... ... : A-2 00 B ... ... ... : ... .. . ... : ... .. 6 ... : ... .. . ... ... : ... .. 6 ... ... : ... .. 6 ... ... : ... .. . ... ...
ROW 05 : ... .. . ... ... ... : ... .. 9 ... ... ... : ... .. . ... : ... .. 3 ... : ... .. . ... ... : ... .. 4 ... ... : ... .. 4 ... ... : ... .. . ... ...
ROW 06 : ... .. . ... ... ... : ... .. . ... ... ... : ... .. . ... : ... .. 2 ... : ... .. . ... ... : ... .. 3 ... ... : ... .. 3 ... ... : ... .. . ... ...
ROW 07 : ... .. . ... ... ... : ... .. 8 ... ... ... : --- .. . ... : ... .. 0 ... : ... .. . ... ... : ... .. 1 ... ... : ... .. 1 ... ... : ... .. . ... ...
ROW 08 : ... .. . ... ... ... : B-2 00 B ... ... ... : F-3 00 . ... : 7-# 00 F ... : ... .. . ... ... : ... .. 8 ... ... : ... .. 8 ... ... : ... .. . ... ...
ROW 09 : ... .. . ... ... ... : ... .. 9 ... ... ... : G-2 00 . ... : ... .. C ... : ... .. . ... ... : ... .. 7 ... ... : ... .. 7 ... ... : ... .. . ... ...
ROW 0A : ... .. . ... ... ... : ... .. . ... ... ... : C-2 00 . ... : ... .. 6 ... : ... .. . ... ... : ... .. 6 ... ... : ... .. 6 ... ... : ... .. . ... ...
ROW 0B : ... .. . ... ... ... : ... .. 8 ... ... ... : B-1 00 . ... : ... .. 3 ... : ... .. . ... ... : ... .. 5 ... ... : ... .. 5 ... ... : ... .. . ... ...
ROW 0C : ... .. . ... ... ... : C#3 00 C ... ... ... : F#1 00 . ... : ... .. 2 ... : ... .. . ... ... : ... .. . ... ... : ... .. . ... ... : ... .. . ... ...
ROW 0D : ... .. . ... ... ... : ... .. A ... ... ... : --- .. . ... : ... .. 0 ... : ... .. . ... ... : --- .. . ... ... : --- .. . ... ... : ... .. . ... ...
ROW 0E : ... .. . ... ... ... : ... .. . ... ... ... : F#2 00 . ... : 1-# 00 F ... : ... .. . ... ... : ... .. . ... ... : ... .. . ... ... : ... .. . ... ...
ROW 0F : ... .. . ... ... ... : ... .. 9 ... ... ... : ... .. . ... : ... .. C ... : ... .. . ... ... : ... .. . ... ... : ... .. . ... ... : ... .. . ... ...
ROW 10 : ... .. . ... ... ... : D-3 00 C ... ... ... : ... .. . ... : ... .. 6 ... : ... .. . ... ... : D-4 01 8 ... ... : G-4 01 8 ... ... : ... .. . ... ...
ROW 11 : ... .. . ... ... ... : ... .. A ... ... ... : ... .. . ... : ... .. 3 ... : ... .. . ... ... : ... .. 7 ... ... : ... .. 7 ... ... : ... .. . ... ...
ROW 12 : ... .. . ... ... ... : ... .. . ... ... ... : ... .. . ... : ... .. 2 ... : ... .. . ... ... : ... .. 6 ... ... : ... .. 6 ... ... : ... .. . ... ...
ROW 13 : ... .. . ... ... ... : ... .. 9 ... ... ... : --- .. . ... : ... .. 0 ... : ... .. . ... ... : ... .. 5 ... ... : ... .. 5 ... ... : ... .. . ... ...
ROW 14 : ... .. C ... ... ... : E-3 00 D ... ... ... : E-2 00 . ... : C-# 00 F ... : ... .. . ... ... : --- .. . ... ... : --- .. . ... ... : ... .. C ... ...
ROW 15 : ... .. B ... ... ... : ... .. B ... ... ... : ... .. . ... : ... .. C ... : ... .. . ... ... : ... .. . ... ... : ... .. . ... ... : ... .. A ... ...
ROW 16 : ... .. A ... ... ... : ... .. . ... ... ... : ... .. . ... : ... .. 6 ... : ... .. . ... ... : ... .. . ... ... : ... .. . ... ... : ... .. 6 ... ...
ROW 17 : ... .. 0 ... ... ... : ... .. A ... ... ... : ... .. . ... : ... .. 3 ... : ... .. . ... ... : ... .. . ... ... : ... .. . ... ... : --- .. . P8B ...
ROW 18 : ... .. . ... ... ... : F#3 00 C ... ... ... : ... .. . ... : ... .. 2 ... : ... .. . ... ... : D-4 01 8 ... ... : G-4 01 8 ... ... : ... .. . ... ...
ROW 19 : ... .. . ... ... ... : ... .. A ... ... ... : --- .. . ... : ... .. 0 ... : ... .. . ... ... : ... .. 7 ... ... : ... .. 7 ... ... : ... .. . ... ...
ROW 1A : A-3 00 C P80 ... ... : ... .. . ... ... ... : F#2 00 . ... : 7-# 00 F ... : ... .. . ... ... : ... .. 6 ... ... : ... .. 6 ... ... : A-2 01 C P80 ...
ROW 1B : ... .. B ... ... ... : ... .. 9 ... ... ... : ... .. . ... : ... .. C ... : ... .. . ... ... : ... .. 5 ... ... : ... .. 5 ... ... : ... .. A ... ...
ROW 1C : ... .. A ... ... ... : G-3 00 B ... ... ... : ... .. . ... : ... .. 6 ... : ... .. . ... ... : ... .. . ... ... : ... .. . ... ... : ... .. 6 ... ...
ROW 1D : ... .. 0 ... ... ... : ... .. 9 ... ... ... : ... .. . ... : ... .. 3 ... : ... .. . ... ... : --- .. . ... ... : --- .. . ... ... : --- .. . ... ...
ROW 1E : ... .. . ... ... ... : ... .. . ... ... ... : ... .. . ... : ... .. 2 ... : ... .. . ... ... : ... .. . ... ... : ... .. . ... ... : ... .. . ... ...
ROW 1F : ... .. . ... ... ... : ... .. . ... ... ... : ... .. . ... : ... .. . ... : ... .. . ... ... : ... .. . ... ... : ... .. . ... ... : ... .. . ... ...
ROW 20 : ... .. . ... ... ... : ... .. . ... ... ... : ... .. . ... : ... .. . ... : ... .. . ... ... : ... .. . ... ... : ... .. . ... ... : ... .. . ... ...
ROW 21 : ... .. . ... ... ... : ... .. . ... ... ... : ... .. . ... : ... .. . ... : ... .. . ... ... : ... .. . ... ... : ... .. . ... ... : ... .. . ... ...
ROW 22 : ... .. . ... ... ... : ... .. . ... ... ... : ... .. . ... : ... .. . ... : ... .. . ... ... : ... .. . ... ... : ... .. . ... ... : ... .. . ... ...
ROW 23 : ... .. . ... ... ... : ... .. . ... ... ... : ... .. . ... : ... .. . ... : ... .. . ... ... : ... .. . ... ... : ... .. . ... ... : ... .. . ... ...
ROW 24 : ... .. . ... ... ... : ... .. . ... ... ... : ... .. . ... : ... .. . ... : ... .. . ... ... : ... .. . ... ... : ... .. . ... ... : ... .. . ... ...
ROW 25 : ... .. . ... ... ... : ... .. . ... ... ... : ... .. . ... : ... .. . ... : ... .. . ... ... : ... .. . ... ... : ... .. . ... ... : ... .. . ... ...
ROW 26 : ... .. . ... ... ... : ... .. . ... ... ... : ... .. . ... : ... .. . ... : ... .. . ... ... : ... .. . ... ... : ... .. . ... ... : ... .. . ... ...
ROW 27 : ... .. . ... ... ... : ... .. . ... ... ... : ... .. . ... : ... .. . ... : ... .. . ... ... : ... .. . ... ... : ... .. . ... ... : ... .. . ... ...
ROW 28 : ... .. . ... ... ... : ... .. . ... ... ... : ... .. . ... : ... .. . ... : ... .. . ... ... : ... .. . ... ... : ... .. . ... ... : ... .. . ... ...
ROW 29 : ... .. . ... ... ... : ... .. . ... ... ... : ... .. . ... : ... .. . ... : ... .. . ... ... : ... .. . ... ... : ... .. . ... ... : ... .. . ... ...
ROW 2A : ... .. . ... ... ... : ... .. . ... ... ... : ... .. . ... : ... .. . ... : ... .. . ... ... : ... .. . ... ... : ... .. . ... ... : ... .. . ... ...
ROW 2B : ... .. . ... ... ... : ... .. . ... ... ... : ... .. . ... : ... .. . ... : ... .. . ... ... : ... .. . ... ... : ... .. . ... ... : ... .. . ... ...
ROW 2C : ... .. . ... ... ... : ... .. . ... ... ... : ... .. . ... : ... .. . ... : ... .. . ... ... : ... .. . ... ... : ... .. . ... ... : ... .. . ... ...
ROW 2D : ... .. . ... ... ... : ... .. . ... ... ... : ... .. . ... : ... .. . ... : ... .. . ... ... : ... .. . ... ... : ... .. . ... ... : ... .. . ... ...
ROW 2E : ... .. . ... ... ... : ... .. . ... ... ... : ... .. . ... : ... .. . ... : ... .. . ... ... : ... .. . ... ... : ... .. . ... ... : ... .. . ... ...
ROW 2F : ... .. . ... ... ... : ... .. . ... ... ... : ... .. . ... : ... .. . ... : ... .. . ... ... : ... .. . ... ... : ... .. . ... ... : ... .. . ... ...
ROW 30 : ... .. . ... ... ... : ... .. . ... ... ... : ... .. . ... : ... .. . ... : ... .. . ... ... : ... .. . ... ... : ... .. . ... ... : ... .. . ... ...
ROW 31 : ... .. . ... ... ... : ... .. . ... ... ... : ... .. . ... : ... .. . ... : ... .. . ... ... : ... .. . ... ... : ... .. . ... ... : ... .. . ... ...
ROW 32 : ... .. . ... ... ... : ... .. . ... ... ... : ... .. . ... : ... .. . ... : ... .. . ... ... : ... .. . ... ... : ... .. . ... ... : ... .. . ... ...
ROW 33 : ... .. . ... ... ... : ... .. . ... ... ... : ... .. . ... : ... .. . ... : ... .. . ... ... : ... .. . ... ... : ... .. . ... ... : ... .. . ... ...
ROW 34 : ... .. . ... ... ... : ... .. . ... ... ... : ... .. . ... : ... .. . ... : ... .. . ... ... : ... .. . ... ... : ... .. . ... ... : ... .. . ... ...
ROW 35 : ... .. . ... ... ... : ... .. . ... ... ... : ... .. . ... : ... .. . ... : ... .. . ... ... : ... .. . ... ... : ... .. . ... ... : ... .. . ... ...
ROW 36 : ... .. . ... ... ... : ... .. . ... ... ... : ... .. . ... : ... .. . ... : ... .. . ... ... : ... .. . ... ... : ... .. . ... ... : ... .. . ... ...
ROW 37 : ... .. . ... ... ... : ... .. . ... ... ... : ... .. . ... : ... .. . ... : ... .. . ... ... : ... .. . ... ... : ... .. . ... ... : ... .. . ... ...
ROW 38 : ... .. . ... ... ... : ... .. . ... ... ... : ... .. . ... : ... .. . ... : ... .. . ... ... : ... .. . ... ... : ... .. . ... ... : ... .. . ... ...
ROW 39 : ... .. . ... ... ... : ... .. . ... ... ... : ... .. . ... : ... .. . ... : ... .. . ... ... : ... .. . ... ... : ... .. . ... ... : ... .. . ... ...
ROW 3A : ... .. . ... ... ... : ... .. . ... ... ... : ... .. . ... : ... .. . ... : ... .. . ... ... : ... .. . ... ... : ... .. . ... ... : ... .. . ... ...
ROW 3B : ... .. . ... ... ... : ... .. . ... ... ... : ... .. . ... : ... .. . ... : ... .. . ... ... : ... .. . ... ... : ... .. . ... ... : ... .. . ... ...
ROW 3C : ... .. . ... ... ... : ... .. . ... ... ... : ... .. . ... : ... .. . ... : ... .. . ... ... : ... .. . ... ... : ... .. . ... ... : ... .. . ... ...
ROW 3D : ... .. . ... ... ... : ... .. . ... ... ... : ... .. . ... : ... .. . ... : ... .. . ... ... : ... .. . ... ... : ... .. . ... ... : ... .. . ... ...
ROW 3E : ... .. . ... ... ... : ... .. . ... ... ... : ... .. . ... : ... .. . ... : ... .. . ... ... : ... .. . ... ... : ... .. . ... ... : ... .. . ... ...
ROW 3F : ... .. . ... ... ... : ... .. . ... ... ... : ... .. . ... : ... .. . ... : ... .. . ... ... : ... .. . ... ... : ... .. . ... ... : ... .. . ... ...
ROW 40 : ... .. . ... ... ... : ... .. . ... ... ... : ... .. . ... : ... .. . ... : ... .. . ... ... : ... .. . ... ... : ... .. . ... ... : ... .. . ... ...
ROW 41 : ... .. . ... ... ... : ... .. . ... ... ... : ... .. . ... : ... .. . ... : ... .. . ... ... : ... .. . ... ... : ... .. . ... ... : ... .. . ... ...
ROW 42 : ... .. . ... ... ... : ... .. . ... ... ... : ... .. . ... : ... .. . ... : ... .. . ... ... : ... .. . ... ... : ... .. . ... ... : ... .. . ... ...
ROW 43 : ... .. . ... ... ... : ... .. . ... ... ... : ... .. . ... : ... .. . ... : ... .. . ... ... : ... .. . ... ... : ... .. . ... ... : ... .. . ... ...
ROW 44 : ... .. . ... ... ... : ... .. . ... ... ... : ... .. . ... : ... .. . ... : ... .. . ... ... : ... .. . ... ... : ... .. . ... ... : ... .. . ... ...
ROW 45 : ... .. . ... ... ... : ... .. . ... ... ... : ... .. . ... : ... .. . ... : ... .. . ... ... : ... .. . ... ... : ... .. . ... ... : ... .. . ... ...
ROW 46 : ... .. . ... ... ... : ... .. . ... ... ... : ... .. . ... : ... .. . ... : ... .. . ... ... : ... .. . ... ... : ... .. . ... ... : ... .. . ... ...
ROW 47 : ... .. . ... ... ... : ... .. . ... ... ... : ... .. . ... : ... .. . ... : ... .. . ... ... : ... .. . ... ... : ... .. . ... ... : ... .. . ... ...
ROW 48 : ... .. . ... ... ... : ... .. . ... ... ... : ... .. . ... : ... .. . ... : ... .. . ... ... : ... .. . ... ... : ... .. . ... ... : ... .. . ... ...
ROW 49 : ... .. . ... ... ... : ... .. . ... ... ... : ... .. . ... : ... .. . ... : ... .. . ... ... : ... .. . ... ... : ... .. . ... ... : ... .. . ... ...
ROW 4A : ... .. . ... ... ... : ... .. . ... ... ... : ... .. . ... : ... .. . ... : ... .. . ... ... : ... .. . ... ... : ... .. . ... ... : ... .. . ... ...
ROW 4B : ... .. . ... ... ... : ... .. . ... ... ... : ... .. . ... : ... .. . ... : ... .. . ... ... : ... .. . ... ... : ... .. . ... ... : ... .. . ... ...
ROW 4C : ... .. . ... ... ... : ... .. . ... ... ... : ... .. . ... : ... .. . ... : ... .. . ... ... : ... .. . ... ... : ... .. . ... ... : ... .. . ... ...
ROW 4D : ... .. . ... ... ... : ... .. . ... ... ... : ... .. . ... : ... .. . ... : ... .. . ... ... : ... .. . ... ... : ... .. . ... ... : ... .. . ... ...
ROW 4E : ... .. . ... ... ... : ... .. . ... ... ... : ... .. . ... : ... .. . ... : ... .. . ... ... : ... .. . ... ... : ... .. . ... ... : ... .. . ... ...
ROW 4F : ... .. . ... ... ... : ... .. . ... ... ... : ... .. . ... : ... .. . ... : ... .. . ... ... : ... .. . ... ... : ... .. . ... ... : ... .. . ... ...
ROW 50 : ... .. . ... ... ... : ... .. . ... ... ... : ... .. . ... : ... .. . ... : ... .. . ... ... : ... .. . ... ... : ... .. . ... ... : ... .. . ... ...
ROW 51 : ... .. . ... ... ... : ... .. . ... ... ... : ... .. . ... : ... .. . ... : ... .. . ... ... : ... .. . ... ... : ... .. . ... ... : ... .. . ... ...
ROW 52 : ... .. . ... ... ... : ... .. . ... ... ... : ... .. . ... : ... .. . ... : ... .. . ... ... : ... .. . ... ... : ... .. . ... ... : ... .. . ... ...
ROW 53 : ... .. . ... ... ... : ... .. . ... ... ... : ... .. . ... : ... .. . ... : ... .. . ... ... : ... .. . ... ... : ... .. . ... ... : ... .. . ... ...
ROW 54 : ... .. . ... ... ... : ... .. . ... ... ... : ... .. . ... : ... .. . ... : ... .. . ... ... : ... .. . ... ... : ... .. . ... ... : ... .. . ... ...
ROW 55 : ... .. . ... ... ... : ... .. . ... ... ... : ... .. . ... : ... .. . ... : ... .. . ... ... : ... .. . ... ... : ... .. . ... ... : ... .. . ... ...
ROW 56 : ... .. . ... ... ... : ... .. . ... ... ... : ... .. . ... : ... .. . ... : ... .. . ... ... : ... .. . ... ... : ... .. . ... ... : ... .. . ... ...
ROW 57 : ... .. . ... ... ... : ... .. . ... ... ... : ... .. . ... : ... .. . ... : ... .. . ... ... : ... .. . ... ... : ... .. . ... ... : ... .. . ... ...
ROW 58 : ... .. . ... ... ... : ... .. . ... ... ... : ... .. . ... : ... .. . ... : ... .. . ... ... : ... .. . ... ... : ... .. . ... ... : ... .. . ... ...
ROW 59 : ... .. . ... ... ... : ... .. . ... ... ... : ... .. . ... : ... .. . ... : ... .. . ... ... : ... .. . ... ... : ... .. . ... ... : ... .. . ... ...
ROW 5A : ... .. . ... ... ... : ... .. . ... ... ... : ... .. . ... : ... .. . ... : ... .. . ... ... : ... .. . ... ... : ... .. . ... ... : ... .. . ... ...
ROW 5B : ... .. . ... ... ... : ... .. . ... ... ... : ... .. . ... : ... .. . ... : ... .. . ... ... : ... .. . ... ... : ... .. . ... ... : ... .. . ... ...
ROW 5C : ... .. . ... ... ... : ... .. . ... ... ... : ... .. . ... : ... .. . ... : ... .. . ... ... : ... .. . ... ... : ... .. . ... ... : ... .. . ... ...
ROW 5D : ... .. . ... ... ... : ... .. . ... ... ... : ... .. . ... : ... .. . ... : ... .. . ... ... : ... .. . ... ... : ... .. . ... ... : ... .. . ... ...
ROW 5E : ... .. . ... ... ... : ... .. . ... ... ... : ... .. . ... : ... .. . ... : ... .. . ... ... : ... .. . ... ... : ... .. . ... ... : ... .. . ... ...
ROW 5F : ... .. . ... ... ... : ... .. . ... ... ... : ... .. . ... : ... .. . ... : ... .. . ... ... : ... .. . ... ... : ... .. . ... ... : ... .. . ... ...
ROW 60 : ... .. . ... ... ... : ... .. . ... ... ... : ... .. . ... : ... .. . ... : ... .. . ... ... : ... .. . ... ... : ... .. . ... ... : ... .. . ... ...
ROW 61 : ... .. . ... ... ... : ... .. . ... ... ... : ... .. . ... : ... .. . ... : ... .. . ... ... : ... .. . ... ... : ... .. . ... ... : ... .. . ... ...
ROW 62 : ... .. . ... ... ... : ... .. . ... ... ... : ... .. . ... : ... .. . ... : ... .. . ... ... : ... .. . ... ... : ... .. . ... ... : ... .. . ... ...
ROW 63 : ... .. . ... ... ... : ... .. . ... ... ... : ... .. . ... : ... .. . ... : ... .. . ... ... : ... .. . ... ... : ... .. . ... ... : ... .. . ... ...
ROW 64 : ... .. . ... ... ... : ... .. . ... ... ... : ... .. . ... : ... .. . ... : ... .. . ... ... : ... .. . ... ... : ... .. . ... ... : ... .. . ... ...
ROW 65 : ... .. . ... ... ... : ... .. . ... ... ... : ... .. . ... : ... .. . ... : ... .. . ... ... : ... .. . ... ... : ... .. . ... ... : ... .. . ... ...
ROW 66 : ... .. . ... ... ... : ... .. . ... ... ... : ... .. . ... : ... .. . ... : ... .. . ... ... : ... .. . ... ... : ... .. . ... ... : ... .. . ... ...
ROW 67 : ... .. . ... ... ... : ... .. . ... ... ... : ... .. . ... : ... .. . ... : ... .. . ... ... : ... .. . ... ... : ... .. . ... ... : ... .. . ... ...
ROW 68 : ... .. . ... ... ... : ... .. . ... ... ... : ... .. . ... : ... .. . ... : ... .. . ... ... : ... .. . ... ... : ... .. . ... ... : ... .. . ... ...
ROW 69 : ... .. . ... ... ... : ... .. . ... ... ... : ... .. . ... : ... .. . ... : ... .. . ... ... : ... .. . ... ... : ... .. . ... ... : ... .. . ... ...
ROW 6A : ... .. . ... ... ... : ... .. . ... ... ... : ... .. . ... : ... .. . ... : ... .. . ... ... : ... .. . ... ... : ... .. . ... ... : ... .. . ... ...
ROW 6B : ... .. . ... ... ... : ... .. . ... ... ... : ... .. . ... : ... .. . ... : ... .. . ... ... : ... .. . ... ... : ... .. . ... ... : ... .. . ... ...
ROW 6C : ... .. . ... ... ... : ... .. . ... ... ... : ... .. . ... : ... .. . ... : ... .. . ... ... : ... .. . ... ... : ... .. . ... ... : ... .. . ... ...
ROW 6D : ... .. . ... ... ... : ... .. . ... ... ... : ... .. . ... : ... .. . ... : ... .. . ... ... : ... .. . ... ... : ... .. . ... ... : ... .. . ... ...
ROW 6E : ... .. . ... ... ... : ... .. . ... ... ... : ... .. . ... : ... .. . ... : ... .. . ... ... : ... .. . ... ... : ... .. . ... ... : ... .. . ... ...
ROW 6F : ... .. . ... ... ... : ... .. . ... ... ... : ... .. . ... : ... .. . ... : ... .. . ... ... : ... .. . ... ... : ... .. . ... ... : ... .. . ... ...
ROW 70 : ... .. . ... ... ... : ... .. . ... ... ... : ... .. . ... : ... .. . ... : ... .. . ... ... : ... .. . ... ... : ... .. . ... ... : ... .. . ... ...
ROW 71 : ... .. . ... ... ... : ... .. . ... ... ... : ... .. . ... : ... .. . ... : ... .. . ... ... : ... .. . ... ... : ... .. . ... ... : ... .. . ... ...
ROW 72 : ... .. . ... ... ... : ... .. . ... ... ... : ... .. . ... : ... .. . ... : ... .. . ... ... : ... .. . ... ... : ... .. . ... ... : ... .. . ... ...
ROW 73 : ... .. . ... ... ... : ... .. . ... ... ... : ... .. . ... : ... .. . ... : ... .. . ... ... : ... .. . ... ... : ... .. . ... ... : ... .. . ... ...
ROW 74 : ... .. . ... ... ... : ... .. . ... ... ... : ... .. . ... : ... .. . ... : ... .. . ... ... : ... .. . ... ... : ... .. . ... ... : ... .. . ... ...
ROW 75 : ... .. . ... ... ... : ... .. . ... ... ... : ... .. . ... : ... .. . ... : ... .. . ... ... : ... .. . ... ... : ... .. . ... ... : ... .. . ... ...
ROW 76 : ... .. . ... ... ... : ... .. . ... ... ... : ... .. . ... : ... .. . ... : ... .. . ... ... : ... .. . ... ... : ... .. . ... ... : ... .. . ... ...
ROW 77 : ... .. . ... ... ... : ... .. . ... ... ... : ... .. . ... : ... .. . ... : ... .. . ... ... : ... .. . ... ... : ... .. . ... ... : ... .. . ... ...
ROW 78 : ... .. . ... ... ... : ... .. . ... ... ... : ... .. . ... : ... .. . ... : ... .. . ... ... : ... .. . ... ... : ... .. . ... ... : ... .. . ... ...
ROW 79 : ... .. . ... ... ... : ... .. . ... ... ... : ... .. . ... : ... .. . ... : ... .. . ... ... : ... .. . ... ... : ... .. . ... ... : ... .. . ... ...
ROW 7A : ... .. . ... ... ... : ... .. . ... ... ... : ... .. . ... : ... .. . ... : ... .. . ... ... : ... .. . ... ... : ... .. . ... ... : ... .. . ... ...
ROW 7B : ... .. . ... ... ... : ... .. . ... ... ... : ... .. . ... : ... .. . ... : ... .. . ... ... : ... .. . ... ... : ... .. . ... ... : ... .. . ... ...
ROW 7C : ... .. . ... ... ... : ... .. . ... ... ... : ... .. . ... : ... .. . ... : ... .. . ... ... : ... .. . ... ... : ... .. . ... ... : ... .. . ... ...
ROW 7D : ... .. . ... ... ... : ... .. . ... ... ... : ... .. . ... : ... .. . ... : ... .. . ... ... : ... .. . ... ... : ... .. . ... ... : ... .. . ... ...
ROW 7E : ... .. . ... ... ... : ... .. . ... ... ... : ... .. . ... : ... .. . ... : ... .. . ... ... : ... .. . ... ... : ... .. . ... ... : ... .. . ... ...
ROW 7F : ... .. . ... ... ... : ... .. . ... ... ... : ... .. . ... : ... .. . ... : ... .. . ... ... : ... .. . ... ... : ... .. . ... ... : ... .. . ... ...
ROW 80 : ... .. . ... ... ... : ... .. . ... ... ... : ... .. . ... : ... .. . ... : ... .. . ... ... : ... .. . ... ... : ... .. . ... ... : ... .. . ... ...
ROW 81 : ... .. . ... ... ... : ... .. . ... ... ... : ... .. . ... : ... .. . ... : ... .. . ... ... : ... .. . ... ... : ... .. . ... ... : ... .. . ... ...
ROW 82 : ... .. . ... ... ... : ... .. . ... ... ... : ... .. . ... : ... .. . ... : ... .. . ... ... : ... .. . ... ... : ... .. . ... ... : ... .. . ... ...
ROW 83 : ... .. . ... ... ... : ... .. . ... ... ... : ... .. . ... : ... .. . ... : ... .. . ... ... : ... .. . ... ... : ... .. . ... ... : ... .. . ... ...
ROW 84 : ... .. . ... ... ... : ... .. . ... ... ... : ... .. . ... : ... .. . ... : ... .. . ... ... : ... .. . ... ... : ... .. . ... ... : ... .. . ... ...
ROW 85 : ... .. . ... ... ... : ... .. . ... ... ... : ... .. . ... : ... .. . ... : ... .. . ... ... : ... .. . ... ... : ... .. . ... ... : ... .. . ... ...
ROW 86 : ... .. . ... ... ... : ... .. . ... ... ... : ... .. . ... : ... .. . ... : ... .. . ... ... : ... .. . ... ... : ... .. . ... ... : ... .. . ... ...
ROW 87 : ... .. . ... ... ... : ... .. . ... ... ... : ... .. . ... : ... .. . ... : ... .. . ... ... : ... .. . ... ... : ... .. . ... ... : ... .. . ... ...
ROW 88 : ... .. . ... ... ... : ... .. . ... ... ... : ... .. . ... : ... .. . ... : ... .. . ... ... : ... .. . ... ... : ... .. . ... ... : ... .. . ... ...
ROW 89 : ... .. . ... ... ... : ... .. . ... ... ... : ... .. . ... : ... .. . ... : ... .. . ... ... : ... .. . ... ... : ... .. . ... ... : ... .. . ... ...
ROW 8A : ... .. . ... ... ... : ... .. . ... ... ... : ... .. . ... : ... .. . ... : ... .. . ... ... : ... .. . ... ... : ... .. . ... ... : ... .. . ... ...
ROW 8B : ... .. . ... ... ... : ... .. . ... ... ... : ... .. . ... : ... .. . ... : ... .. . ... ... : ... .. . ... ... : ... .. . ... ... : ... .. . ... ...
ROW 8C : ... .. . ... ... ... : ... .. . ... ... ... : ... .. . ... : ... .. . ... : ... .. . ... ... : ... .. . ... ... : ... .. . ... ... : ... .. . ... ...
ROW 8D : ... .. . ... ... ... : ... .. . ... ... ... : ... .. . ... : ... .. . ... : ... .. . ... ... : ... .. . ... ... : ... .. . ... ... : ... .. . ... ...
ROW 8E : ... .. . ... ... ... : ... .. . ... ... ... : ... .. . ... : ... .. . ... : ... .. . ... ... : ... .. . ... ... : ... .. . ... ... : ... .. . ... ...
ROW 8F : ... .. . ... ... ... : ... .. . ... ... ... : ... .. . ... : ... .. . ... : ... .. . ... ... : ... .. . ... ... : ... .. . ... ... : ... .. . ... ...
ROW 90 : ... .. . ... ... ... : ... .. . ... ... ... : ... .. . ... : ... .. . ... : ... .. . ... ... : ... .. . ... ... : ... .. . ... ... : ... .. . ... ...
ROW 91 : ... .. . ... ... ... : ... .. . ... ... ... : ... .. . ... : ... .. . ... : ... .. . ... ... : ... .. . ... ... : ... .. . ... ... : ... .. . ... ...
ROW 92 : ... .. . ... ... ... : ... .. . ... ... ... : ... .. . ... : ... .. . ... : ... .. . ... ... : ... .. . ... ... : ... .. . ... ... : ... .. . ... ...
ROW 93 : ... .. . ... ... ... : ... .. . ... ... ... : ... .. . ... : ... .. . ... : ... .. . ... ... : ... .. . ... ... : ... .. . ... ... : ... .. . ... ...
ROW 94 : ... .. . ... ... ... : ... .. . ... ... ... : ... .. . ... : ... .. . ... : ... .. . ... ... : ... .. . ... ... : ... .. . ... ... : ... .. . ... ...
ROW 95 : ... .. . ... ... ... : ... .. . ... ... ... : ... .. . ... : ... .. . ... : ... .. . ... ... : ... .. . ... ... : ... .. . ... ... : ... .. . ... ...
ROW 96 : ... .. . ... ... ... : ... .. . ... ... ... : ... .. . ... : ... .. . ... : ... .. . ... ... : ... .. . ... ... : ... .. . ... ... : ... .. . ... ...
ROW 97 : ... .. . ... ... ... : ... .. . ... ... ... : ... .. . ... : ... .. . ... : ... .. . ... ... : ... .. . ... ... : ... .. . ... ... : ... .. . ... ...
ROW 98 : ... .. . ... ... ... : ... .. . ... ... ... : ... .. . ... : ... .. . ... : ... .. . ... ... : ... .. . ... ... : ... .. . ... ... : ... .. . ... ...
ROW 99 : ... .. . ... ... ... : ... .. . ... ... ... : ... .. . ... : ... .. . ... : ... .. . ... ... : ... .. . ... ... : ... .. . ... ... : ... .. . ... ...
ROW 9A : ... .. . ... ... ... : ... .. . ... ... ... : ... .. . ... : ... .. . ... : ... .. . ... ... : ... .. . ... ... : ... .. . ... ... : ... .. . ... ...
ROW 9B : ... .. . ... ... ... : ... .. . ... ... ... : ... .. . ... : ... .. . ... : ... .. . ... ... : ... .. . ... ... : ... .. . ... ... : ... .. . ... ...
ROW 9C : ... .. . ... ... ... : ... .. . ... ... ... : ... .. . ... : ... .. . ... : ... .. . ... ... : ... .. . ... ... : ... .. . ... ... : ... .. . ... ...
ROW 9D : ... .. . ... ... ... : ... .. . ... ... ... : ... .. . ... : ... .. . ... : ... .. . ... ... : ... .. . ... ... : ... .. . ... ... : ... .. . ... ...
ROW 9E : ... .. . ... ... ... : ... .. . ... ... ... : ... .. . ... : ... .. . ... : ... .. . ... ... : ... .. . ... ... : ... .. . ... ... : ... .. . ... ...
ROW 9F : ... .. . ... ... ... : ... .. . ... ... ... : ... .. . ... : ... .. . ... : ... .. . ... ... : ... .. . ... ... : ... .. . ... ... : ... .. . ... ...
ROW A0 : ... .. . ... ... ... : ... .. . ... ... ... : ... .. . ... : ... .. . ... : ... .. . ... ... : ... .. . ... ... : ... .. . ... ... : ... .. . ... ...
ROW A1 : ... .. . ... ... ... : ... .. . ... ... ... : ... .. . ... : ... .. . ... : ... .. . ... ... : ... .. . ... ... : ... .. . ... ... : ... .. . ... ...
ROW A2 : ... .. . ... ... ... : ... .. . ... ... ... : ... .. . ... : ... .. . ... : ... .. . ... ... : ... .. . ... ... : ... .. . ... ... : ... .. . ... ...
ROW A3 : ... .. . ... ... ... : ... .. . ... ... ... : ... .. . ... : ... .. . ... : ... .. . ... ... : ... .. . ... ... : ... .. . ... ... : ... .. . ... ...
ROW A4 : ... .. . ... ... ... : ... .. . ... ... ... : ... .. . ... : ... .. . ... : ... .. . ... ... : ... .. . ... ... : ... .. . ... ... : ... .. . ... ...
ROW A5 : ... .. . ... ... ... : ... .. . ... ... ... : ... .. . ... : ... .. . ... : ... .. . ... ... : ... .. . ... ... : ... .. . ... ... : ... .. . ... ...
ROW A6 : ... .. . ... ... ... : ... .. . ... ... ... : ... .. . ... : ... .. . ... : ... .. . ... ... : ... .. . ... ... : ... .. . ... ... : ... .. . ... ...
ROW A7 : ... .. . ... ... ... : ... .. . ... ... ... : ... .. . ... : ... .. . ... : ... .. . ... ... : ... .. . ... ... : ... .. . ... ... : ... .. . ... ...
ROW A8 : ... .. . ... ... ... : ... .. . ... ... ... : ... .. . ... : ... .. . ... : ... .. . ... ... : ... .. . ... ... : ... .. . ... ... : ... .. . ... ...
ROW A9 : ... .. . ... ... ... : ... .. . ... ... ... : ... .. . ... : ... .. . ... : ... .. . ... ... : ... .. . ... ... : ... .. . ... ... : ... .. . ... ...
ROW AA : ... .. . ... ... ... : ... .. . ... ... ... : ... .. . ... : ... .. . ... : ... .. . ... ... : ... .. . ... ... : ... .. . ... ... : ... .. . ... ...
ROW AB : ... .. . ... ... ... : ... .. . ... ... ... : ... .. . ... : ... .. . ... : ... .. . ... ... : ... .. . ... ... : ... .. . ... ... : ... .. . ... ...
ROW AC : ... .. . ... ... ... : ... .. . ... ... ... : ... .. . ... : ... .. . ... : ... .. . ... ... : ... .. . ... ... : ... .. . ... ... : ... .. . ... ...
ROW AD : ... .. . ... ... ... : ... .. . ... ... ... : ... .. . ... : ... .. . ... : ... .. . ... ... : ... .. . ... ... : ... .. . ... ... : ... .. . ... ...
ROW AE : ... .. . ... ... ... : ... .. . ... ... ... : ... .. . ... : ... .. . ... : ... .. . ... ... : ... .. . ... ... : ... .. . ... ... : ... .. . ... ...
ROW AF : ... .. . ... ... ... : ... .. . ... ... ... : ... .. . ... : ... .. . ... : ... .. . ... ... : ... .. . ... ... : ... .. . ... ... : ... .. . ... ...
ROW B0 : ... .. . ... ... ... : ... .. . ... ... ... : ... .. . ... : ... .. . ... : ... .. . ... ... : ... .. . ... ... : ... .. . ... ... : ... .. . ... ...
ROW B1 : ... .. . ... ... ... : ... .. . ... ... ... : ... .. . ... : ... .. . ... : ... .. . ... ... : ... .. . ... ... : ... .. . ... ... : ... .. . ... ...
ROW B2 : ... .. . ... ... ... : ... .. . ... ... ... : ... .. . ... : ... .. . ... : ... .. . ... ... : ... .. . ... ... : ... .. . ... ... : ... .. . ... ...
ROW B3 : ... .. . ... ... ... : ... .. . ... ... ... : ... .. . ... : ... .. . ... : ... .. . ... ... : ... .. . ... ... : ... .. . ... ... : ... .. . ... ...
ROW B4 : ... .. . ... ... ... : ... .. . ... ... ... : ... .. . ... : ... .. . ... : ... .. . ... ... : ... .. . ... ... : ... .. . ... ... : ... .. . ... ...
ROW B5 : ... .. . ... ... ... : ... .. . ... ... ... : ... .. . ... : ... .. . ... : ... .. . ... ... : ... .. . ... ... : ... .. . ... ... : ... .. . ... ...
ROW B6 : ... .. . ... ... ... : ... .. . ... ... ... : ... .. . ... : ... .. . ... : ... .. . ... ... : ... .. . ... ... : ... .. . ... ... : ... .. . ... ...
ROW B7 : ... .. . ... ... ... : ... .. . ... ... ... : ... .. . ... : ... .. . ... : ... .. . ... ... : ... .. . ... ... : ... .. . ... ... : ... .. . ... ...
ROW B8 : ... .. . ... ... ... : ... .. . ... ... ... : ... .. . ... : ... .. . ... : ... .. . ... ... : ... .. . ... ... : ... .. . ... ... : ... .. . ... ...
ROW B9 : ... .. . ... ... ... : ... .. . ... ... ... : ... .. . ... : ... .. . ... : ... .. . ... ... : ... .. . ... ... : ... .. . ... ... : ... .. . ... ...
ROW BA : ... .. . ... ... ... : ... .. . ... ... ... : ... .. . ... : ... .. . ... : ... .. . ... ... : ... .. . ... ... : ... .. . ... ... : ... .. . ... ...
ROW BB : ... .. . ... ... ... : ... .. . ... ... ... : ... .. . ... : ... .. . ... : ... .. . ... ... : ... .. . ... ... : ... .. . ... ... : ... .. . ... ...
ROW BC : ... .. . ... ... ... : ... .. . ... ... ... : ... .. . ... : ... .. . ... : ... .. . ... ... : ... .. . ... ... : ... .. . ... ... : ... .. . ... ...
ROW BD : ... .. . ... ... ... : ... .. . ... ... ... : ... .. . ... : ... .. . ... : ... .. . ... ... : ... .. . ... ... : ... .. . ... ... : ... .. . ... ...
ROW BE : ... .. . ... ... ... : ... .. . ... ... ... : ... .. . ... : ... .. . ... : ... .. . ... ... : ... .. . ... ... : ... .. . ... ... : ... .. . ... ...
ROW BF : ... .. . ... ... ... : ... .. . ... ... ... : ... .. . ... : ... .. . ... : ... .. . ... ... : ... .. . ... ... : ... .. . ... ... : ... .. . ... ...
ROW C0 : ... .. . ... ... ... : ... .. . ... ... ... : ... .. . ... : ... .. . ... : ... .. . ... ... : ... .. . ... ... : ... .. . ... ... : ... .. . ... ...
ROW C1 : ... .. . ... ... ... : ... .. . ... ... ... : ... .. . ... : ... .. . ... : ... .. . ... ... : ... .. . ... ... : ... .. . ... ... : ... .. . ... ...
ROW C2 : ... .. . ... ... ... : ... .. . ... ... ... : ... .. . ... : ... .. . ... : ... .. . ... ... : ... .. . ... ... : ... .. . ... ... : ... .. . ... ...
ROW C3 : ... .. . ... ... ... : ... .. . ... ... ... : ... .. . ... : ... .. . ... : ... .. . ... ... : ... .. . ... ... : ... .. . ... ... : ... .. . ... ...
ROW C4 : ... .. . ... ... ... : ... .. . ... ... ... : ... .. . ... : ... .. . ... : ... .. . ... ... : ... .. . ... ... : ... .. . ... ... : ... .. . ... ...
ROW C5 : ... .. . ... ... ... : ... .. . ... ... ... : ... .. . ... : ... .. . ... : ... .. . ... ... : ... .. . ... ... : ... .. . ... ... : ... .. . ... ...
ROW C6 : ... .. . ... ... ... : ... .. . ... ... ... : ... .. . ... : ... .. . ... : ... .. . ... ... : ... .. . ... ... : ... .. . ... ... : ... .. . ... ...
ROW C7 : ... .. . ... ... ... : ... .. . ... ... ... : ... .. . ... : ... .. . ... : ... .. . ... ... : ... .. . ... ... : ... .. . ... ... : ... .. . ... ...
ROW C8 : ... .. . ... ... ... : ... .. . ... ... ... : ... .. . ... : ... .. . ... : ... .. . ... ... : ... .. . ... ... : ... .. . ... ... : ... .. . ... ...
ROW C9 : ... .. . ... ... ... : ... .. . ... ... ... : ... .. . ... : ... .. . ... : ... .. . ... ... : ... .. . ... ... : ... .. . ... ... : ... .. . ... ...
ROW CA : ... .. . ... ... ... : ... .. . ... ... ... : ... .. . ... : ... .. . ... : ... .. . ... ... : ... .. . ... ... : ... .. . ... ... : ... .. . ... ...
ROW CB : ... .. . ... ... ... : ... .. . ... ... ... : ... .. . ... : ... .. . ... : ... .. . ... ... : ... .. . ... ... : ... .. . ... ... : ... .. . ... ...
ROW CC : ... .. . ... ... ... : ... .. . ... ... ... : ... .. . ... : ... .. . ... : ... .. . ... ... : ... .. . ... ... : ... .. . ... ... : ... .. . ... ...
ROW CD : ... .. . ... ... ... : ... .. . ... ... ... : ... .. . ... : ... .. . ... : ... .. . ... ... : ... .. . ... ... : ... .. . ... ... : ... .. . ... ...
ROW CE : ... .. . ... ... ... : ... .. . ... ... ... : ... .. . ... : ... .. . ... : ... .. . ... ... : ... .. . ... ... : ... .. . ... ... : ... .. . ... ...
ROW CF : ... .. . ... ... ... : ... .. . ... ... ... : ... .. . ... : ... .. . ... : ... .. . ... ... : ... .. . ... ... : ... .. . ... ... : ... .. . ... ...
ROW D0 : ... .. . ... ... ... : ... .. . ... ... ... : ... .. . ... : ... .. . ... : ... .. . ... ... : ... .. . ... ... : ... .. . ... ... : ... .. . ... ...
ROW D1 : ... .. . ... ... ... : ... .. . ... ... ... : ... .. . ... : ... .. . ... : ... .. . ... ... : ... .. . ... ... : ... .. . ... ... : ... .. . ... ...
ROW D2 : ... .. . ... ... ... : ... .. . ... ... ... : ... .. . ... : ... .. . ... : ... .. . ... ... : ... .. . ... ... : ... .. . ... ... : ... .. . ... ...
ROW D3 : ... .. . ... ... ... : ... .. . ... ... ... : ... .. . ... : ... .. . ... : ... .. . ... ... : ... .. . ... ... : ... .. . ... ... : ... .. . ... ...
ROW D4 : ... .. . ... ... ... : ... .. . ... ... ... : ... .. . ... : ... .. . ... : ... .. . ... ... : ... .. . ... ... : ... .. . ... ... : ... .. . ... ...
ROW D5 : ... .. . ... ... ... : ... .. . ... ... ... : ... .. . ... : ... .. . ... : ... .. . ... ... : ... .. . ... ... : ... .. . ... ... : ... .. . ... ...
ROW D6 : ... .. . ... ... ... : ... .. . ... ... ... : ... .. . ... : ... .. . ... : ... .. . ... ... : ... .. . ... ... : ... .. . ... ... : ... .. . ... ...
ROW D7 : ... .. . ... ... ... : ... .. . ... ... ... : ... .. . ... : ... .. . ... : ... .. . ... ... : ... .. . ... ... : ... .. . ... ... : ... .. . ... ...
ROW D8 : ... .. . ... ... ... : ... .. . ... ... ... : ... .. . ... : ... .. . ... : ... .. . ... ... : ... .. . ... ... : ... .. . ... ... : ... .. . ... ...
ROW D9 : ... .. . ... ... ... : ... .. . ... ... ... : ... .. . ... : ... .. . ... : ... .. . ... ... : ... .. . ... ... : ... .. . ... ... : ... .. . ... ...
ROW DA : ... .. . ... ... ... : ... .. . ... ... ... : ... .. . ... : ... .. . ... : ... .. . ... ... : ... .. . ... ... : ... .. . ... ... : ... .. . ... ...
ROW DB : ... .. . ... ... ... : ... .. . ... ... ... : ... .. . ... : ... .. . ... : ... .. . ... ... : ... .. . ... ... : ... .. . ... ... : ... .. . ... ...
ROW DC : ... .. . ... ... ... : ... .. . ... ... ... : ... .. . ... : ... .. . ... : ... .. . ... ... : ... .. . ... ... : ... .. . ... ... : ... .. . ... ...
ROW DD : ... .. . ... ... ... : ... .. . ... ... ... : ... .. . ... : ... .. . ... : ... .. . ... ... : ... .. . ... ... : ... .. . ... ... : ... .. . ... ...
ROW DE : ... .. . ... ... ... : ... .. . ... ... ... : ... .. . ... : ... .. . ... : ... .. . ... ... : ... .. . ... ... : ... .. . ... ... : ... .. . ... ...
ROW DF : ... .. . ... ... ... : ... .. . ... ... ... : ... .. . ... : ... .. . ... : ... .. . ... ... : ... .. . ... ... : ... .. . ... ... : ... .. . ... ...
ROW E0 : ... .. . ... ... ... : ... .. . ... ... ... : ... .. . ... : ... .. . ... : ... .. . ... ... : ... .. . ... ... : ... .. . ... ... : ... .. . ... ...
ROW E1 : ... .. . ... ... ... : ... .. . ... ... ... : ... .. . ... : ... .. . ... : ... .. . ... ... : ... .. . ... ... : ... .. . ... ... : ... .. . ... ...
ROW E2 : ... .. . ... ... ... : ... .. . ... ... ... : ... .. . ... : ... .. . ... : ... .. . ... ... : ... .. . ... ... : ... .. . ... ... : ... .. . ... ...
ROW E3 : ... .. . ... ... ... : ... .. . ... ... ... : ... .. . ... : ... .. . ... : ... .. . ... ... : ... .. . ... ... : ... .. . ... ... : ... .. . ... ...
ROW E4 : ... .. . ... ... ... : ... .. . ... ... ... : ... .. . ... : ... .. . ... : ... .. . ... ... : ... .. . ... ... : ... .. . ... ... : ... .. . ... ...
ROW E5 : ... .. . ... ... ... : ... .. . ... ... ... : ... .. . ... : ... .. . ... : ... .. . ... ... : ... .. . ... ... : ... .. . ... ... : ... .. . ... ...
ROW E6 : ... .. . ... ... ... : ... .. . ... ... ... : ... .. . ... : ... .. . ... : ... .. . ... ... : ... .. . ... ... : ... .. . ... ... : ... .. . ... ...
ROW E7 : ... .. . ... ... ... : ... .. . ... ... ... : ... .. . ... : ... .. . ... : ... .. . ... ... : ... .. . ... ... : ... .. . ... ... : ... .. . ... ...
ROW E8 : ... .. . ... ... ... : ... .. . ... ... ... : ... .. . ... : ... .. . ... : ... .. . ... ... : ... .. . ... ... : ... .. . ... ... : ... .. . ... ...
ROW E9 : ... .. . ... ... ... : ... .. . ... ... ... : ... .. . ... : ... .. . ... : ... .. . ... ... : ... .. . ... ... : ... .. . ... ... : ... .. . ... ...
ROW EA : ... .. . ... ... ... : ... .. . ... ... ... : ... .. . ... : ... .. . ... : ... .. . ... ... : ... .. . ... ... : ... .. . ... ... : ... .. . ... ...
ROW EB : ... .. . ... ... ... : ... .. . ... ... ... : ... .. . ... : ... .. . ... : ... .. . ... ... : ... .. . ... ... : ... .. . ... ... : ... .. . ... ...
ROW EC : ... .. . ... ... ... : ... .. . ... ... ... : ... .. . ... : ... .. . ... : ... .. . ... ... : ... .. . ... ... : ... .. . ... ... : ... .. . ... ...
ROW ED : ... .. . ... ... ... : ... .. . ... ... ... : ... .. . ... : ... .. . ... : ... .. . ... ... : ... .. . ... ... : ... .. . ... ... : ... .. . ... ...
ROW EE : ... .. . ... ... ... : ... .. . ... ... ... : ... .. . ... : ... .. . ... : ... .. . ... ... : ... .. . ... ... : ... .. . ... ... : ... .. . ... ...
ROW EF : ... .. . ... ... ... : ... .. . ... ... ... : ... .. . ... : ... .. . ... : ... .. . ... ... : ... .. . ... ... : ... .. . ... ... : ... .. . ... ...
ROW F0 : ... .. . ... ... ... : ... .. . ... ... ... : ... .. . ... : ... .. . ... : ... .. . ... ... : ... .. . ... ... : ... .. . ... ... : ... .. . ... ...
ROW F1 : ... .. . ... ... ... : ... .. . ... ... ... : ... .. . ... : ... .. . ... : ... .. . ... ... : ... .. . ... ... : ... .. . ... ... : ... .. . ... ...
ROW F2 : ... .. . ... ... ... : ... .. . ... ... ... : ... .. . ... : ... .. . ... : ... .. . ... ... : ... .. . ... ... : ... .. . ... ... : ... .. . ... ...
ROW F3 : ... .. . ... ... ... : ... .. . ... ... ... : ... .. . ... : ... .. . ... : ... .. . ... ... : ... .. . ... ... : ... .. . ... ... : ... .. . ... ...
ROW F4 : ... .. . ... ... ... : ... .. . ... ... ... : ... .. . ... : ... .. . ... : ... .. . ... ... : ... .. . ... ... : ... .. . ... ... : ... .. . ... ...
ROW F5 : ... .. . ... ... ... : ... .. . ... ... ... : ... .. . ... : ... .. . ... : ... .. . ... ... : ... .. . ... ... : ... .. . ... ... : ... .. . ... ...
ROW F6 : ... .. . ... ... ... : ... .. . ... ... ... : ... .. . ... : ... .. . ... : ... .. . ... ... : ... .. . ... ... : ... .. . ... ... : ... .. . ... ...
ROW F7 : ... .. . ... ... ... : ... .. . ... ... ... : ... .. . ... : ... .. . ... : ... .. . ... ... : ... .. . ... ... : ... .. . ... ... : ... .. . ... ...
ROW F8 : ... .. . ... ... ... : ... .. . ... ... ... : ... .. . ... : ... .. . ... : ... .. . ... ... : ... .. . ... ... : ... .. . ... ... : ... .. . ... ...
ROW F9 : ... .. . ... ... ... : ... .. . ... ... ... : ... .. . ... : ... .. . ... : ... .. . ... ... : ... .. . ... ... : ... .. . ... ... : ... .. . ... ...
ROW FA : ... .. . ... ... ... : ... .. . ... ... ... : ... .. . ... : ... .. . ... : ... .. . ... ... : ... .. . ... ... : ... .. . ... ... : ... .. . ... ...
ROW FB : ... .. . ... ... ... : ... .. . ... ... ... : ... .. . ... : ... .. . ... : ... .. . ... ... : ... .. . ... ... : ... .. . ... ... : ... .. . ... ...
ROW FC : ... .. . ... ... ... : ... .. . ... ... ... : ... .. . ... : ... .. . ... : ... .. . ... ... : ... .. . ... ... : ... .. . ... ... : ... .. . ... ...
ROW FD : ... .. . ... ... ... : ... .. . ... ... ... : ... .. . ... : ... .. . ... : ... .. . ... ... : ... .. . ... ... : ... .. . ... ... : ... .. . ... ...
ROW FE : ... .. . ... ... ... : ... .. . ... ... ... : ... .. . ... : ... .. . ... : ... .. . ... ... : ... .. . ... ... : ... .. . ... ... : ... .. . ... ...
ROW FF : ... .. . ... ... ... : ... .. . ... ... ... : ... .. . ... : ... .. . ... : ... .. . ... ... : ... .. . ... ... : ... .. . ... ... : ... .. . ... ...

# End of export
