# FamiTracker text export 0.4.2

# Song information
TITLE           "Shovel Knight OST"
AUTHOR          "Jake Kaufman"
COPYRIGHT       ""

# Song comment
COMMENT ""

# Global settings
MACHINE         0
FRAMERATE       0
EXPANSION       1
VIBRATO         1
SPLIT           21

# Macros

# DPCM samples

# Instruments
INST2A03   0    -1  -1  -1  -1  -1 "blank"
INSTVRC6   1    -1  -1  -1  -1  -1 "blank"

# Tracks

TRACK 256   1 150 "New song"
COLUMNS : 3 3 1 1 2 2 2 2

ORDER 00 : 00 00 00 00 00 00 00 00
ORDER 01 : 01 01 01 01 01 01 01 01
ORDER 02 : 02 02 02 02 02 02 02 02
ORDER 03 : 03 03 03 03 03 03 03 03
ORDER 04 : 04 04 04 04 04 04 04 04
ORDER 05 : 05 05 05 05 05 05 05 05
ORDER 06 : 06 06 06 06 06 06 06 06
ORDER 07 : 07 07 07 07 07 07 07 07
ORDER 08 : 08 08 08 08 08 08 08 08
ORDER 09 : 09 09 09 09 09 09 09 09
ORDER 0A : 0A 0A 0A 0A 0A 0A 0A 0A
ORDER 0B : 0B 0B 0B 0B 0B 0B 0B 0B
ORDER 0C : 0C 0C 0C 0C 0C 0C 0C 0C
ORDER 0D : 0D 0D 0D 0D 0D 0D 0D 0D
ORDER 0E : 0E 0E 0E 0E 0E 0E 0E 0E
ORDER 0F : 0F 0F 0F 0F 0F 0F 0F 0F
ORDER 10 : 10 10 10 10 10 10 10 10
ORDER 11 : 11 11 11 11 11 11 11 11
ORDER 12 : 12 12 12 12 12 12 12 12
ORDER 13 : 13 13 13 13 13 13 13 13
ORDER 14 : 14 14 14 14 14 14 14 14
ORDER 15 : 15 15 15 15 15 15 15 15
ORDER 16 : 16 16 16 16 16 16 16 16
ORDER 17 : 17 17 17 17 17 17 17 17
ORDER 18 : 18 18 18 18 18 18 18 18
ORDER 19 : 19 19 19 19 19 19 19 19
ORDER 1A : 1A 1A 1A 1A 1A 1A 1A 1A
ORDER 1B : 1B 1B 1B 1B 1B 1B 1B 1B
ORDER 1C : 1C 1C 1C 1C 1C 1C 1C 1C

PATTERN 00
ROW 00 : --- .. 0 P80 V00 ... : --- .. 0 P80 V00 ... : B-2 00 . P80 : F-# 00 0 V00 : === 00 . Z00 ... : --- .. 0 P80 V00 : B-1 01 7 P80 V05 : B-0 01 C P80 V00
ROW 01 : ... .. . ... ... ... : ... .. . ... ... ... : ... .. . ... : ... .. . ... : ... .. . ... ... : ... .. . ... ... : ... .. 6 ... ... : ... .. A ... ...
ROW 02 : ... .. . ... ... ... : ... .. . ... ... ... : ... .. . ... : ... .. . ... : ... .. . ... ... : ... .. . ... ... : ... .. . ... ... : ... .. 6 ... ...
ROW 03 : ... .. . ... ... ... : ... .. . ... ... ... : ... .. . ... : ... .. . ... : ... .. . ... ... : ... .. . ... ... : ... .. . ... ... : ... .. . ... ...
ROW 04 : ... .. . ... ... ... : ... .. . ... ... ... : ... .. . ... : ... .. . ... : ... .. . ... ... : ... .. . ... ... : ... .. 5 ... ... : ... .. . ... ...
ROW 05 : ... .. . ... ... ... : ... .. . ... ... ... : ... .. . ... : ... .. . ... : ... .. . ... ... : ... .. . ... ... : ... .. . ... ... : ... .. . ... ...
ROW 06 : ... .. . ... ... ... : ... .. . ... ... ... : ... .. . ... : ... .. . ... : ... .. . ... ... : ... .. . ... ... : ... .. . ... ... : ... .. . ... ...
ROW 07 : ... .. . ... ... ... : ... .. . ... ... ... : ... .. . ... : ... .. . ... : ... .. . ... ... : ... .. . ... ... : ... .. 4 ... ... : ... .. . ... ...
ROW 08 : ... .. . ... ... ... : ... .. . ... ... ... : ... .. . ... : ... .. . ... : ... .. . ... ... : ... .. . ... ... : ... .. . ... ... : ... .. . ... ...
ROW 09 : ... .. . ... ... ... : ... .. . ... ... ... : ... .. . ... : ... .. . ... : ... .. . ... ... : ... .. . ... ... : ... .. . ... ... : ... .. . ... ...
ROW 0A : ... .. . ... ... ... : ... .. . ... ... ... : ... .. . ... : ... .. . ... : ... .. . ... ... : ... .. . ... ... : ... .. . ... ... : ... .. . ... ...
ROW 0B : ... .. . ... ... ... : ... .. . ... ... ... : ... .. . ... : ... .. . ... : ... .. . ... ... : ... .. . ... ... : ... .. . ... ... : ... .. . ... ...
ROW 0C : ... .. . ... ... ... : ... .. . ... ... ... : ... .. . ... : ... .. . ... : ... .. . ... ... : ... .. . ... ... : ... .. . ... ... : ... .. . ... ...
ROW 0D : ... .. . ... ... ... : ... .. . ... ... ... : ... .. . ... : ... .. . ... : ... .. . ... ... : ... .. . ... ... : ... .. . ... ... : ... .. . ... ...
ROW 0E : ... .. . ... ... ... : ... .. . ... ... ... : ... .. . ... : ... .. . ... : ... .. . ... ... : ... .. . ... ... : ... .. . ... ... : ... .. . ... ...
ROW 0F : ... .. . ... ... ... : ... .. . ... ... ... : ... .. . ... : ... .. . ... : ... .. . ... ... : ... .. . ... ... : ... .. . ... ... : ... .. . ... ...
ROW 10 : ... .. . ... ... ... : ... .. . ... ... ... : ... .. . ... : ... .. . ... : ... .. . ... ... : ... .. . ... ... : ... .. . ... ... : ... .. . ... ...
ROW 11 : ... .. . ... ... ... : ... .. . ... ... ... : ... .. . ... : ... .. . ... : ... .. . ... ... : ... .. . ... ... : ... .. . ... ... : ... .. . ... ...
ROW 12 : ... .. . ... ... ... : ... .. . ... ... ... : ... .. . ... : ... .. . ... : ... .. . ... ... : ... .. . ... ... : ... .. . ... ... : ... .. . ... ...
ROW 13 : ... .. . ... ... ... : ... .. . ... ... ... : ... .. . ... : ... .. . ... : ... .. . ... ... : ... .. . ... ... : ... .. . ... ... : ... .. . ... ...
ROW 14 : ... .. . ... ... ... : ... .. . ... ... ... : --- .. . ... : ... .. . ... : ... .. . ... ... : F#2 01 5 ... V05 : ... .. . ... ... : ... .. . ... ...
ROW 15 : ... .. . ... ... ... : ... .. . ... ... ... : ... .. . ... : ... .. . ... : ... .. . ... ... : ... .. 4 ... ... : ... .. . ... ... : ... .. 3 ... ...
ROW 16 : ... .. . ... ... ... : ... .. . ... ... ... : ... .. . ... : ... .. . ... : ... .. . ... ... : ... .. 3 ... ... : ... .. . ... ... : ... .. . ... ...
ROW 17 : ... .. . ... ... ... : ... .. . ... ... ... : ... .. . ... : ... .. . ... : ... .. . ... ... : ... .. 2 ... ... : ... .. 3 ... ... : ... .. 1 ... ...
ROW 18 : ... .. . ... ... ... : ... .. . ... ... ... : ... .. . ... : ... .. . ... : ... .. . ... ... : ... .. . ... ... : ... .. 2 ... ... : ... .. . ... ...
ROW 19 : ... .. . ... ... ... : ... .. . ... ... ... : ... .. . ... : ... .. . ... : ... .. . ... ... : ... .. 1 ... ... : ... .. . ... ... : ... .. . ... ...
ROW 1A : ... .. . ... ... ... : ... .. . ... ... ... : ... .. . ... : ... .. . ... : ... .. . ... ... : ... .. . ... ... : ... .. . ... ... : ... .. . ... ...
ROW 1B : ... .. . ... ... ... : ... .. . ... ... ... : ... .. . ... : ... .. . ... : ... .. . ... ... : ... .. . ... ... : ... .. . ... ... : ... .. . ... ...
ROW 1C : ... .. . ... ... ... : ... .. . ... ... ... : ... .. . ... : ... .. . ... : ... .. . ... ... : ... .. . ... ... : ... .. . ... ... : ... .. . ... ...
ROW 1D : ... .. . ... ... ... : ... .. . ... ... ... : ... .. . ... : ... .. . ... : ... .. . ... ... : --- .. . P82 ... : ... .. . ... ... : ... .. . ... ...
ROW 1E : ... .. . ... ... ... : ... .. . ... ... ... : ... .. . ... : ... .. . ... : ... .. . ... ... : F#2 01 5 P80 ... : ... .. . ... ... : ... .. 0 ... ...
ROW 1F : ... .. . ... ... ... : ... .. . ... ... ... : ... .. . ... : ... .. . ... : ... .. . ... ... : ... .. 4 ... ... : ... .. . ... ... : ... .. . ... ...
ROW 20 : ... .. . ... ... ... : ... .. . ... ... ... : ... .. . ... : ... .. . ... : ... .. . ... ... : ... .. 3 ... ... : ... .. . ... ... : ... .. . ... ...
ROW 21 : ... .. . ... ... ... : ... .. . ... ... ... : ... .. . ... : ... .. . ... : ... .. . ... ... : ... .. 2 ... ... : ... .. . ... ... : ... .. . ... ...
ROW 22 : ... .. . ... ... ... : ... .. . ... ... ... : ... .. . ... : ... .. . ... : ... .. . ... ... : ... .. . ... ... : ... .. . ... ... : ... .. . ... ...
ROW 23 : ... .. . ... ... ... : ... .. . ... ... ... : ... .. . ... : ... .. . ... : ... .. . ... ... : ... .. 1 ... ... : ... .. 1 ... ... : ... .. . ... ...
ROW 24 : ... .. . ... ... ... : ... .. . ... ... ... : ... .. . ... : ... .. . ... : ... .. . ... ... : ... .. . ... ... : ... .. . ... ... : ... .. . ... ...
ROW 25 : ... .. . ... ... ... : ... .. . ... ... ... : ... .. . ... : ... .. . ... : ... .. . ... ... : ... .. . ... ... : ... .. . ... ... : ... .. . ... ...
ROW 26 : ... .. . ... ... ... : ... .. . ... ... ... : ... .. . ... : ... .. . ... : ... .. . ... ... : ... .. . ... ... : ... .. . ... ... : ... .. . ... ...
ROW 27 : ... .. . ... ... ... : ... .. . ... ... ... : ... .. . ... : ... .. . ... : ... .. . ... ... : --- .. . P82 ... : ... .. . ... ... : ... .. . ... ...
ROW 28 : ... .. . ... ... ... : ... .. . ... ... ... : F#2 00 . ... : ... .. . ... : ... .. . ... ... : ... .. . ... ... : ... .. . ... ... : F#1 01 C P81 ...
ROW 29 : ... .. . ... ... ... : ... .. . ... ... ... : ... .. . ... : ... .. . ... : ... .. . ... ... : ... .. . ... ... : ... .. . ... ... : ... .. A ... ...
ROW 2A : ... .. . ... ... ... : ... .. . ... ... ... : ... .. . ... : ... .. . ... : ... .. . ... ... : ... .. . ... ... : ... .. . ... ... : ... .. 6 ... ...
ROW 2B : ... .. . ... ... ... : ... .. . ... ... ... : ... .. . ... : ... .. . ... : ... .. . ... ... : ... .. . ... ... : ... .. . ... ... : ... .. . ... ...
ROW 2C : ... .. . ... ... ... : ... .. . ... ... ... : ... .. . ... : ... .. . ... : ... .. . ... ... : ... .. . ... ... : ... .. . ... ... : ... .. . ... ...
ROW 2D : ... .. . ... ... ... : ... .. . ... ... ... : ... .. . ... : ... .. . ... : ... .. . ... ... : ... .. . ... ... : ... .. . ... ... : ... .. . ... ...
ROW 2E : ... .. . ... ... ... : ... .. . ... ... ... : ... .. . ... : ... .. . ... : ... .. . ... ... : ... .. . ... ... : ... .. . ... ... : ... .. . ... ...
ROW 2F : ... .. . ... ... ... : ... .. . ... ... ... : ... .. . ... : ... .. . ... : ... .. . ... ... : ... .. . ... ... : ... .. . ... ... : ... .. . ... ...
ROW 30 : ... .. . ... ... ... : ... .. . ... ... ... : ... .. . ... : ... .. . ... : ... .. . ... ... : ... .. . ... ... : ... .. . ... ... : ... .. . ... ...
ROW 31 : ... .. . ... ... ... : ... .. . ... ... ... : ... .. . ... : ... .. . ... : ... .. . ... ... : ... .. . ... ... : --- .. . P7D ... : ... .. . ... ...
ROW 32 : ... .. . ... ... ... : ... .. . ... ... ... : ... .. . ... : ... .. . ... : ... .. . ... ... : ... .. . ... ... : ... .. . ... ... : ... .. . ... ...
ROW 33 : ... .. . ... ... ... : ... .. . ... ... ... : ... .. . ... : ... .. . ... : ... .. . ... ... : ... .. . ... ... : ... .. . ... ... : ... .. 3 ... ...
ROW 34 : ... .. . ... ... ... : ... .. . ... ... ... : ... .. . ... : ... .. . ... : ... .. . ... ... : ... .. . ... ... : ... .. . ... ... : ... .. . ... ...
ROW 35 : ... .. . ... ... ... : ... .. . ... ... ... : ... .. . ... : ... .. . ... : ... .. . ... ... : ... .. . ... ... : ... .. . ... ... : ... .. 1 ... ...
ROW 36 : ... .. . ... ... ... : ... .. . ... ... ... : ... .. . ... : ... .. . ... : ... .. . ... ... : ... .. . ... ... : ... .. . ... ... : ... .. . ... ...
ROW 37 : ... .. . ... ... ... : ... .. . ... ... ... : ... .. . ... : ... .. . ... : ... .. . ... ... : ... .. . ... ... : ... .. . ... ... : ... .. . ... ...
ROW 38 : ... .. . ... ... ... : ... .. . ... ... ... : ... .. . ... : ... .. . ... : ... .. . ... ... : ... .. . ... ... : ... .. . ... ... : ... .. . ... ...
ROW 39 : ... .. . ... ... ... : ... .. . ... ... ... : ... .. . ... : ... .. . ... : ... .. . ... ... : ... .. . ... ... : ... .. . ... ... : ... .. . ... ...
ROW 3A : ... .. . ... ... ... : ... .. . ... ... ... : ... .. . ... : ... .. . ... : ... .. . ... ... : ... .. . ... ... : ... .. . ... ... : ... .. . ... ...
ROW 3B : ... .. . ... ... ... : ... .. . ... ... ... : ... .. . ... : ... .. . ... : ... .. . ... ... : ... .. . ... ... : ... .. . ... ... : ... .. . ... ...
ROW 3C : ... .. . ... ... ... : ... .. . ... ... ... : --- .. . ... : ... .. . ... : ... .. . ... ... : F-2 01 5 P80 ... : ... .. . ... ... : D#2 01 C ... ...
ROW 3D : ... .. . ... ... ... : ... .. . ... ... ... : ... .. . ... : ... .. . ... : ... .. . ... ... : ... .. 4 ... ... : ... .. . ... ... : ... .. A ... ...
ROW 3E : ... .. . ... ... ... : ... .. . ... ... ... : ... .. . ... : ... .. . ... : ... .. . ... ... : ... .. 3 ... ... : ... .. . ... ... : ... .. 6 ... ...
ROW 3F : ... .. . ... ... ... : ... .. . ... ... ... : ... .. . ... : ... .. . ... : ... .. . ... ... : ... .. 2 ... ... : ... .. . ... ... : ... .. . ... ...
ROW 40 : ... .. . ... ... ... : ... .. . ... ... ... : ... .. . ... : ... .. . ... : ... .. . ... ... : ... .. . ... ... : ... .. . ... ... : ... .. . ... ...
ROW 41 : ... .. . ... ... ... : ... .. . ... ... ... : ... .. . ... : ... .. . ... : ... .. . ... ... : ... .. 1 ... ... : ... .. . ... ... : ... .. . ... ...
ROW 42 : ... .. . ... ... ... : ... .. . ... ... ... : ... .. . ... : ... .. . ... : ... .. . ... ... : ... .. . ... ... : ... .. . ... ... : ... .. . ... ...
ROW 43 : ... .. . ... ... ... : ... .. . ... ... ... : ... .. . ... : ... .. . ... : ... .. . ... ... : ... .. . ... ... : ... .. . ... ... : ... .. . ... ...
ROW 44 : ... .. . ... ... ... : ... .. . ... ... ... : ... .. . ... : ... .. . ... : ... .. . ... ... : ... .. . ... ... : ... .. . ... ... : ... .. . ... ...
ROW 45 : ... .. . ... ... ... : ... .. . ... ... ... : ... .. . ... : ... .. . ... : ... .. . ... ... : --- .. . P7E ... : ... .. . ... ... : ... .. . ... ...
ROW 46 : ... .. . ... ... ... : ... .. . ... ... ... : ... .. . ... : ... .. . ... : ... .. . ... ... : F-2 01 5 P80 ... : ... .. . ... ... : ... .. . ... ...
ROW 47 : ... .. . ... ... ... : ... .. . ... ... ... : ... .. . ... : ... .. . ... : ... .. . ... ... : ... .. 4 ... ... : ... .. . ... ... : ... .. 3 ... ...
ROW 48 : ... .. . ... ... ... : ... .. . ... ... ... : ... .. . ... : ... .. . ... : ... .. . ... ... : ... .. 3 ... ... : ... .. . ... ... : ... .. . ... ...
ROW 49 : ... .. . ... ... ... : ... .. . ... ... ... : ... .. . ... : ... .. . ... : ... .. . ... ... : ... .. 2 ... ... : ... .. . ... ... : ... .. 1 ... ...
ROW 4A : ... .. . ... ... ... : ... .. . ... ... ... : ... .. . ... : ... .. . ... : ... .. . ... ... : ... .. . ... ... : ... .. . ... ... : ... .. . ... ...
ROW 4B : ... .. . ... ... ... : ... .. . ... ... ... : ... .. . ... : ... .. . ... : ... .. . ... ... : ... .. 1 ... ... : ... .. . ... ... : ... .. . ... ...
ROW 4C : ... .. . ... ... ... : ... .. . ... ... ... : ... .. . ... : ... .. . ... : ... .. . ... ... : ... .. . ... ... : ... .. . ... ... : ... .. . ... ...
ROW 4D : ... .. . ... ... ... : ... .. . ... ... ... : ... .. . ... : ... .. . ... : ... .. . ... ... : ... .. . ... ... : ... .. . ... ... : ... .. . ... ...
ROW 4E : ... .. . ... ... ... : ... .. . ... ... ... : ... .. . ... : ... .. . ... : ... .. . ... ... : ... .. . ... ... : ... .. . ... ... : ... .. . ... ...
ROW 4F : ... .. . ... ... ... : ... .. . ... ... ... : ... .. . ... : ... .. . ... : ... .. . ... ... : --- .. . P7E ... : ... .. . ... ... : ... .. . ... ...
ROW 50 : ... .. . ... ... ... : ... .. . ... ... ... : B-2 00 . ... : ... .. . ... : ... .. . ... ... : ... .. . ... ... : ... .. . ... ... : ... .. C ... ...
ROW 51 : ... .. . ... ... ... : ... .. . ... ... ... : ... .. . ... : ... .. . ... : ... .. . ... ... : ... .. . ... ... : ... .. . ... ... : ... .. A ... ...
ROW 52 : ... .. . ... ... ... : ... .. . ... ... ... : ... .. . ... : ... .. . ... : ... .. . ... ... : ... .. . ... ... : ... .. . ... ... : ... .. 6 ... ...
ROW 53 : ... .. . ... ... ... : ... .. . ... ... ... : ... .. . ... : ... .. . ... : ... .. . ... ... : ... .. . ... ... : ... .. . ... ... : ... .. . ... ...
ROW 54 : ... .. . ... ... ... : ... .. . ... ... ... : ... .. . ... : ... .. . ... : ... .. . ... ... : ... .. . ... ... : ... .. . ... ... : ... .. . ... ...
ROW 55 : ... .. . ... ... ... : ... .. . ... ... ... : ... .. . ... : ... .. . ... : ... .. . ... ... : ... .. . ... ... : ... .. . ... ... : ... .. . ... ...
ROW 56 : ... .. . ... ... ... : ... .. . ... ... ... : ... .. . ... : ... .. . ... : ... .. . ... ... : ... .. . ... ... : ... .. . ... ... : ... .. . ... ...
ROW 57 : ... .. . ... ... ... : ... .. . ... ... ... : ... .. . ... : ... .. . ... : ... .. . ... ... : ... .. . ... ... : ... .. . ... ... : ... .. . ... ...
ROW 58 : ... .. . ... ... ... : ... .. . ... ... ... : ... .. . ... : ... .. . ... : ... .. . ... ... : ... .. . ... ... : ... .. . ... ... : ... .. . ... ...
ROW 59 : ... .. . ... ... ... : ... .. . ... ... ... : ... .. . ... : ... .. . ... : ... .. . ... ... : ... .. . ... ... : ... .. . ... ... : ... .. . ... ...
ROW 5A : ... .. . ... ... ... : ... .. . ... ... ... : ... .. . ... : ... .. . ... : ... .. . ... ... : ... .. . ... ... : ... .. . ... ... : ... .. . ... ...
ROW 5B : ... .. . ... ... ... : ... .. . ... ... ... : ... .. . ... : ... .. . ... : ... .. . ... ... : ... .. . ... ... : ... .. . ... ... : ... .. . ... ...
ROW 5C : ... .. . ... ... ... : ... .. . ... ... ... : ... .. . ... : ... .. . ... : ... .. . ... ... : ... .. . ... ... : ... .. . ... ... : ... .. . ... ...
ROW 5D : ... .. . ... ... ... : ... .. . ... ... ... : ... .. . ... : ... .. . ... : ... .. . ... ... : ... .. . ... ... : ... .. . ... ... : ... .. . ... ...
ROW 5E : ... .. . ... ... ... : ... .. . ... ... ... : ... .. . ... : ... .. . ... : ... .. . ... ... : ... .. . ... ... : ... .. . ... ... : ... .. . ... ...
ROW 5F : ... .. . ... ... ... : ... .. . ... ... ... : ... .. . ... : ... .. . ... : ... .. . ... ... : ... .. . ... ... : ... .. . ... ... : ... .. . ... ...
ROW 60 : ... .. . ... ... ... : ... .. . ... ... ... : ... .. . ... : ... .. . ... : ... .. . ... ... : ... .. . ... ... : ... .. . ... ... : ... .. . ... ...
ROW 61 : ... .. . ... ... ... : ... .. . ... ... ... : ... .. . ... : ... .. . ... : ... .. . ... ... : ... .. . ... ... : ... .. . ... ... : ... .. . ... ...
ROW 62 : ... .. . ... ... ... : ... .. . ... ... ... : ... .. . ... : ... .. . ... : ... .. . ... ... : ... .. . ... ... : ... .. . ... ... : ... .. . ... ...
ROW 63 : ... .. . ... ... ... : ... .. . ... ... ... : ... .. . ... : ... .. . ... : ... .. . ... ... : ... .. . ... ... : ... .. . ... ... : ... .. . ... ...
ROW 64 : ... .. . ... ... ... : ... .. . ... ... ... : --- .. . ... : ... .. . ... : ... .. . ... ... : F#2 01 5 P80 ... : ... .. . ... ... : C#2 01 C ... ...
ROW 65 : ... .. . ... ... ... : ... .. . ... ... ... : ... .. . ... : ... .. . ... : ... .. . ... ... : ... .. 4 ... ... : ... .. . ... ... : ... .. A ... ...
ROW 66 : ... .. . ... ... ... : ... .. . ... ... ... : ... .. . ... : ... .. . ... : ... .. . ... ... : ... .. 3 ... ... : ... .. . ... ... : ... .. 6 ... ...
ROW 67 : ... .. . ... ... ... : ... .. . ... ... ... : ... .. . ... : ... .. . ... : ... .. . ... ... : ... .. 2 ... ... : ... .. . ... ... : ... .. . ... ...
ROW 68 : ... .. . ... ... ... : ... .. . ... ... ... : ... .. . ... : ... .. . ... : ... .. . ... ... : ... .. . ... ... : ... .. . ... ... : ... .. . ... ...
ROW 69 : ... .. . ... ... ... : ... .. . ... ... ... : ... .. . ... : ... .. . ... : ... .. . ... ... : ... .. 1 ... ... : ... .. . ... ... : ... .. . ... ...
ROW 6A : ... .. . ... ... ... : ... .. . ... ... ... : ... .. . ... : ... .. . ... : ... .. . ... ... : ... .. . ... ... : ... .. . ... ... : ... .. 3 ... ...
ROW 6B : ... .. . ... ... ... : ... .. . ... ... ... : ... .. . ... : ... .. . ... : ... .. . ... ... : ... .. . ... ... : ... .. . ... ... : ... .. . ... ...
ROW 6C : ... .. . ... ... ... : ... .. . ... ... ... : ... .. . ... : ... .. . ... : ... .. . ... ... : ... .. . ... ... : ... .. . ... ... : ... .. 1 ... ...
ROW 6D : ... .. . ... ... ... : ... .. . ... ... ... : ... .. . ... : ... .. . ... : ... .. . ... ... : --- .. . P82 ... : ... .. . ... ... : ... .. . ... ...
ROW 6E : ... .. . ... ... ... : ... .. . ... ... ... : ... .. . ... : ... .. . ... : ... .. . ... ... : F#2 01 5 P80 ... : ... .. . ... ... : D#2 01 C ... ...
ROW 6F : ... .. . ... ... ... : ... .. . ... ... ... : ... .. . ... : ... .. . ... : ... .. . ... ... : ... .. 4 ... ... : ... .. . ... ... : ... .. A ... ...
ROW 70 : ... .. . ... ... ... : ... .. . ... ... ... : ... .. . ... : ... .. . ... : ... .. . ... ... : ... .. 3 ... ... : ... .. . ... ... : ... .. 6 ... ...
ROW 71 : ... .. . ... ... ... : ... .. . ... ... ... : ... .. . ... : ... .. . ... : ... .. . ... ... : ... .. 2 ... ... : ... .. . ... ... : ... .. . ... ...
ROW 72 : ... .. . ... ... ... : ... .. . ... ... ... : ... .. . ... : ... .. . ... : ... .. . ... ... : ... .. . ... ... : ... .. . ... ... : ... .. . ... ...
ROW 73 : ... .. . ... ... ... : ... .. . ... ... ... : ... .. . ... : ... .. . ... : ... .. . ... ... : ... .. 1 ... ... : ... .. . ... ... : ... .. . ... ...
ROW 74 : ... .. . ... ... ... : ... .. . ... ... ... : ... .. . ... : ... .. . ... : ... .. . ... ... : ... .. . ... ... : ... .. . ... ... : ... .. 3 ... ...
ROW 75 : ... .. . ... ... ... : ... .. . ... ... ... : ... .. . ... : ... .. . ... : ... .. . ... ... : ... .. . ... ... : ... .. . ... ... : ... .. . ... ...
ROW 76 : ... .. . ... ... ... : ... .. . ... ... ... : ... .. . ... : ... .. . ... : ... .. . ... ... : ... .. . ... ... : ... .. . ... ... : ... .. 1 ... ...
ROW 77 : ... .. . ... ... ... : ... .. . ... ... ... : ... .. . ... : ... .. . ... : ... .. . ... ... : --- .. . P82 ... : ... .. . ... ... : ... .. . ... ...
ROW 78 : ... .. . ... ... ... : ... .. . ... ... ... : F-2 00 . ... : ... .. . ... : ... .. . ... ... : ... .. . ... ... : ... .. . ... ... : F-2 01 C ... ...
ROW 79 : ... .. . ... ... ... : ... .. . ... ... ... : ... .. . ... : ... .. . ... : ... .. . ... ... : ... .. . ... ... : ... .. . ... ... : ... .. A ... ...
ROW 7A : ... .. . ... ... ... : ... .. . ... ... ... : ... .. . ... : ... .. . ... : ... .. . ... ... : ... .. . ... ... : ... .. . ... ... : ... .. 6 ... ...
ROW 7B : ... .. . ... ... ... : ... .. . ... ... ... : ... .. . ... : ... .. . ... : ... .. . ... ... : ... .. . ... ... : ... .. . ... ... : ... .. . ... ...
ROW 7C : ... .. . ... ... ... : ... .. . ... ... ... : ... .. . ... : ... .. . ... : ... .. . ... ... : ... .. . ... ... : ... .. . ... ... : ... .. . ... ...
ROW 7D : ... .. . ... ... ... : ... .. . ... ... ... : ... .. . ... : ... .. . ... : ... .. . ... ... : ... .. . ... ... : ... .. . ... ... : ... .. . ... ...
ROW 7E : ... .. . ... ... ... : ... .. . ... ... ... : ... .. . ... : ... .. . ... : ... .. . ... ... : ... .. . ... ... : ... .. . ... ... : ... .. . ... ...
ROW 7F : ... .. . ... ... ... : ... .. . ... ... ... : ... .. . ... : ... .. . ... : ... .. . ... ... : ... .. . ... ... : ... .. . ... ... : ... .. . ... ...
ROW 80 : ... .. . ... ... ... : ... .. . ... ... ... : ... .. . ... : ... .. . ... : ... .. . ... ... : ... .. . ... ... : ... .. . ... ... : ... .. . ... ...
ROW 81 : ... .. . ... ... ... : ... .. . ... ... ... : ... .. . ... : ... .. . ... : ... .. . ... ... : ... .. . ... ... : ... .. . ... ... : ... .. . ... ...
ROW 82 : ... .. . ... ... ... : ... .. . ... ... ... : --- .. . ... : ... .. . ... : ... .. . ... ... : ... .. . ... ... : ... .. . ... ... : ... .. . ... ...
ROW 83 : ... .. . ... ... ... : ... .. . ... ... ... : ... .. . ... : ... .. . ... : ... .. . ... ... : ... .. . ... ... : ... .. . ... ... : ... .. 3 ... ...
ROW 84 : ... .. . ... ... ... : ... .. . ... ... ... : ... .. . ... : ... .. . ... : ... .. . ... ... : ... .. . ... ... : ... .. . ... ... : ... .. . ... ...
ROW 85 : ... .. . ... ... ... : ... .. . ... ... ... : ... .. . ... : ... .. . ... : ... .. . ... ... : ... .. . ... ... : ... .. . ... ... : ... .. 1 ... ...
ROW 86 : ... .. . ... ... ... : ... .. . ... ... ... : ... .. . ... : ... .. . ... : ... .. . ... ... : ... .. . ... ... : ... .. . ... ... : ... .. . ... ...
ROW 87 : ... .. . ... ... ... : ... .. . ... ... ... : ... .. . ... : ... .. . ... : ... .. . ... ... : ... .. . ... ... : ... .. . ... ... : ... .. . ... ...
ROW 88 : ... .. . ... ... ... : ... .. . ... ... ... : ... .. . ... : ... .. . ... : ... .. . ... ... : ... .. . ... ... : ... .. . ... ... : ... .. . ... ...
ROW 89 : ... .. . ... ... ... : ... .. . ... ... ... : ... .. . ... : ... .. . ... : ... .. . ... ... : ... .. . ... ... : ... .. . ... ... : ... .. . ... ...
ROW 8A : ... .. . ... ... ... : ... .. . ... ... ... : ... .. . ... : ... .. . ... : ... .. . ... ... : ... .. . ... ... : ... .. . ... ... : ... .. . ... ...
ROW 8B : ... .. . ... ... ... : ... .. . ... ... ... : ... .. . ... : ... .. . ... : ... .. . ... ... : ... .. . ... ... : ... .. . ... ... : ... .. . ... ...
ROW 8C : ... .. . ... ... ... : ... .. . ... ... ... : ... .. . ... : ... .. . ... : ... .. . ... ... : F-2 01 5 P80 ... : ... .. . ... ... : C#2 01 C ... ...
ROW 8D : ... .. . ... ... ... : ... .. . ... ... ... : ... .. . ... : ... .. . ... : ... .. . ... ... : ... .. 4 ... ... : ... .. . ... ... : ... .. A ... ...
ROW 8E : ... .. . ... ... ... : ... .. . ... ... ... : ... .. . ... : ... .. . ... : ... .. . ... ... : ... .. 3 ... ... : ... .. . ... ... : ... .. 6 ... ...
ROW 8F : ... .. . ... ... ... : ... .. . ... ... ... : ... .. . ... : ... .. . ... : ... .. . ... ... : ... .. 2 ... ... : ... .. . ... ... : ... .. . ... ...
ROW 90 : ... .. . ... ... ... : ... .. . ... ... ... : ... .. . ... : ... .. . ... : ... .. . ... ... : ... .. . ... ... : ... .. . ... ... : ... .. . ... ...
ROW 91 : ... .. . ... ... ... : ... .. . ... ... ... : ... .. . ... : ... .. . ... : ... .. . ... ... : ... .. 1 ... ... : ... .. . ... ... : ... .. 5 ... ...
ROW 92 : ... .. . ... ... ... : ... .. . ... ... ... : ... .. . ... : ... .. . ... : ... .. . ... ... : ... .. . ... ... : ... .. . ... ... : ... .. . ... ...
ROW 93 : ... .. . ... ... ... : ... .. . ... ... ... : ... .. . ... : ... .. . ... : ... .. . ... ... : ... .. . ... ... : ... .. . ... ... : ... .. . ... ...
ROW 94 : ... .. . ... ... ... : ... .. . ... ... ... : ... .. . ... : ... .. . ... : ... .. . ... ... : ... .. . ... ... : ... .. . ... ... : ... .. . ... ...
ROW 95 : ... .. . ... ... ... : ... .. . ... ... ... : ... .. . ... : ... .. . ... : ... .. . ... ... : --- .. . P7E ... : ... .. . ... ... : ... .. . ... ...
ROW 96 : ... .. . ... ... ... : ... .. . ... ... ... : ... .. . ... : ... .. . ... : ... .. . ... ... : ... .. . ... ... : ... .. . ... ... : ... .. . ... ...
ROW 97 : ... .. . ... ... ... : ... .. . ... ... ... : ... .. . ... : ... .. . ... : ... .. . ... ... : ... .. . ... ... : ... .. . ... ... : ... .. . ... ...
ROW 98 : ... .. . ... ... ... : ... .. . ... ... ... : ... .. . ... : ... .. . ... : ... .. . ... ... : ... .. . ... ... : ... .. . ... ... : ... .. . ... ...
ROW 99 : ... .. . ... ... ... : ... .. . ... ... ... : ... .. . ... : ... .. . ... : ... .. . ... ... : ... .. . ... ... : ... .. . ... ... : ... .. . ... ...
ROW 9A : ... .. . ... ... ... : ... .. . ... ... ... : ... .. . ... : ... .. . ... : ... .. . ... ... : ... .. . ... ... : ... .. . ... ... : ... .. . ... ...
ROW 9B : ... .. . ... ... ... : ... .. . ... ... ... : ... .. . ... : ... .. . ... : ... .. . ... ... : ... .. . ... ... : ... .. . ... ... : ... .. 4 ... ...
ROW 9C : ... .. . ... ... ... : ... .. . ... ... ... : ... .. . ... : ... .. . ... : ... .. . ... ... : ... .. . ... ... : ... .. . ... ... : ... .. . ... ...
ROW 9D : ... .. . ... ... ... : ... .. . ... ... ... : ... .. . ... : ... .. . ... : ... .. . ... ... : ... .. . ... ... : ... .. . ... ... : ... .. . ... ...
ROW 9E : ... .. . ... ... ... : ... .. . ... ... ... : ... .. . ... : ... .. . ... : ... .. . ... ... : ... .. . ... ... : ... .. . ... ... : ... .. . ... ...
ROW 9F : ... .. . ... ... ... : ... .. . ... ... ... : ... .. . ... : ... .. . ... : ... .. . ... ... : ... .. . ... ... : ... .. . ... ... : ... .. . ... ...
ROW A0 : B-1 00 A P80 V02 ... : ... .. . ... ... ... : B-2 00 . ... : ... .. . ... : ... .. . ... ... : ... .. . ... ... : F#3 01 7 P80 ... : ... .. . ... ...
ROW A1 : ... .. 9 ... ... ... : ... .. . ... ... ... : ... .. . ... : ... .. . ... : ... .. . ... ... : ... .. . ... ... : ... .. 6 ... ... : ... .. . ... ...
ROW A2 : ... .. 8 ... ... ... : ... .. . ... ... ... : ... .. . ... : ... .. . ... : ... .. . ... ... : ... .. . ... ... : ... .. . ... ... : ... .. . ... ...
ROW A3 : ... .. 6 ... ... ... : ... .. . ... ... ... : ... .. . ... : ... .. . ... : ... .. . ... ... : ... .. . ... ... : ... .. . ... ... : ... .. . ... ...
ROW A4 : ... .. . ... ... ... : ... .. . ... ... ... : ... .. . ... : ... .. . ... : ... .. . ... ... : ... .. . ... ... : ... .. 5 ... ... : ... .. . ... ...
ROW A5 : ... .. . ... ... ... : ... .. . ... ... ... : ... .. . ... : ... .. . ... : ... .. . ... ... : ... .. . ... ... : ... .. . ... ... : ... .. 3 ... ...
ROW A6 : ... .. . ... ... ... : ... .. . ... ... ... : ... .. . ... : ... .. . ... : ... .. . ... ... : ... .. . ... ... : ... .. . ... ... : ... .. . ... ...
ROW A7 : ... .. . ... ... ... : ... .. . ... ... ... : ... .. . ... : ... .. . ... : ... .. . ... ... : ... .. . ... ... : ... .. 4 ... ... : ... .. . ... ...
ROW A8 : ... .. . ... ... ... : ... .. . ... ... ... : ... .. . ... : ... .. . ... : ... .. . ... ... : ... .. . ... ... : ... .. . ... ... : ... .. . ... ...
ROW A9 : ... .. . ... ... ... : ... .. . ... ... ... : ... .. . ... : ... .. . ... : ... .. . ... ... : ... .. . ... ... : ... .. . ... ... : ... .. . ... ...
ROW AA : ... .. . ... ... ... : ... .. . ... ... ... : ... .. . ... : ... .. . ... : ... .. . ... ... : ... .. . ... ... : ... .. . ... ... : ... .. . ... ...
ROW AB : ... .. 1 ... ... ... : ... .. . ... ... ... : ... .. . ... : ... .. . ... : ... .. . ... ... : ... .. . ... ... : ... .. . ... ... : ... .. . ... ...
ROW AC : ... .. . ... ... ... : ... .. . ... ... ... : ... .. . ... : ... .. . ... : ... .. . ... ... : ... .. . ... ... : ... .. . ... ... : ... .. . ... ...
ROW AD : ... .. . ... ... ... : ... .. . ... ... ... : ... .. . ... : ... .. . ... : ... .. . ... ... : ... .. . ... ... : ... .. . ... ... : ... .. . ... ...
ROW AE : ... .. . ... ... ... : ... .. . ... ... ... : ... .. . ... : ... .. . ... : ... .. . ... ... : ... .. . ... ... : ... .. . ... ... : ... .. . ... ...
ROW AF : ... .. . ... ... ... : ... .. . ... ... ... : ... .. . ... : ... .. . ... : ... .. . ... ... : ... .. . ... ... : ... .. . ... ... : ... .. 2 ... ...
ROW B0 : ... .. . ... ... ... : ... .. . ... ... ... : ... .. . ... : ... .. . ... : ... .. . ... ... : ... .. . ... ... : ... .. . ... ... : ... .. . ... ...
ROW B1 : ... .. 0 ... V00 ... : ... .. . ... ... ... : ... .. . ... : ... .. . ... : ... .. . ... ... : ... .. . ... ... : ... .. . ... ... : ... .. . ... ...
ROW B2 : ... .. . ... ... ... : ... .. . ... ... ... : ... .. . ... : ... .. . ... : ... .. . ... ... : ... .. . ... ... : ... .. . ... ... : ... .. . ... ...
ROW B3 : ... .. . ... ... ... : ... .. . ... ... ... : ... .. . ... : ... .. . ... : ... .. . ... ... : ... .. . ... ... : ... .. . ... ... : ... .. . ... ...
ROW B4 : C#2 00 A P80 V02 ... : ... .. . ... ... ... : --- .. . ... : ... .. . ... : ... .. . ... ... : F#2 01 5 P80 ... : D#3 01 7 ... ... : ... .. . ... ...
ROW B5 : ... .. 9 ... ... ... : ... .. . ... ... ... : ... .. . ... : ... .. . ... : ... .. . ... ... : ... .. 4 ... ... : ... .. 6 ... ... : ... .. . ... ...
ROW B6 : ... .. 8 ... ... ... : ... .. . ... ... ... : ... .. . ... : ... .. . ... : ... .. . ... ... : ... .. 3 ... ... : ... .. . ... ... : ... .. . ... ...
ROW B7 : ... .. 6 ... ... ... : ... .. . ... ... ... : ... .. . ... : ... .. . ... : ... .. . ... ... : ... .. 2 ... ... : ... .. . ... ... : ... .. . ... ...
ROW B8 : ... .. . ... ... ... : ... .. . ... ... ... : ... .. . ... : ... .. . ... : ... .. . ... ... : ... .. . ... ... : ... .. 5 ... ... : ... .. . ... ...
ROW B9 : ... .. . ... ... ... : ... .. . ... ... ... : ... .. . ... : ... .. . ... : ... .. . ... ... : ... .. 1 ... ... : ... .. . ... ... : ... .. . ... ...
ROW BA : ... .. 1 ... ... ... : ... .. . ... ... ... : ... .. . ... : ... .. . ... : ... .. . ... ... : ... .. . ... ... : ... .. . ... ... : ... .. . ... ...
ROW BB : ... .. . ... ... ... : ... .. . ... ... ... : ... .. . ... : ... .. . ... : ... .. . ... ... : ... .. . ... ... : ... .. 4 ... ... : ... .. . ... ...
ROW BC : ... .. . ... ... ... : ... .. . ... ... ... : ... .. . ... : ... .. . ... : ... .. . ... ... : ... .. . ... ... : ... .. . ... ... : ... .. . ... ...
ROW BD : ... .. . ... ... ... : ... .. . ... ... ... : ... .. . ... : ... .. . ... : ... .. . ... ... : --- .. . P82 ... : ... .. . ... ... : ... .. . ... ...
ROW BE : D#2 00 A ... ... ... : ... .. . ... ... ... : ... .. . ... : ... .. . ... : ... .. . ... ... : F#2 01 5 P80 ... : ... .. . ... ... : ... .. . ... ...
ROW BF : ... .. 9 ... ... ... : ... .. . ... ... ... : ... .. . ... : ... .. . ... : ... .. . ... ... : ... .. 4 ... ... : ... .. . ... ... : ... .. . ... ...
ROW C0 : ... .. 8 ... ... ... : ... .. . ... ... ... : ... .. . ... : ... .. . ... : ... .. . ... ... : ... .. 3 ... ... : ... .. . ... ... : ... .. . ... ...
ROW C1 : ... .. 6 ... ... ... : ... .. . ... ... ... : ... .. . ... : ... .. . ... : ... .. . ... ... : ... .. 2 ... ... : ... .. . ... ... : ... .. . ... ...
ROW C2 : ... .. . ... ... ... : ... .. . ... ... ... : ... .. . ... : ... .. . ... : ... .. . ... ... : ... .. . ... ... : ... .. . ... ... : ... .. . ... ...
ROW C3 : ... .. . ... ... ... : ... .. . ... ... ... : ... .. . ... : ... .. . ... : ... .. . ... ... : ... .. 1 ... ... : ... .. . ... ... : ... .. . ... ...
ROW C4 : ... .. 1 ... ... ... : ... .. . ... ... ... : ... .. . ... : ... .. . ... : ... .. . ... ... : ... .. . ... ... : ... .. . ... ... : ... .. . ... ...
ROW C5 : ... .. . ... ... ... : ... .. . ... ... ... : ... .. . ... : ... .. . ... : ... .. . ... ... : ... .. . ... ... : ... .. . ... ... : ... .. . ... ...
ROW C6 : ... .. . ... ... ... : ... .. . ... ... ... : ... .. . ... : ... .. . ... : ... .. . ... ... : ... .. . ... ... : ... .. . ... ... : ... .. . ... ...
ROW C7 : ... .. . ... ... ... : ... .. . ... ... ... : ... .. . ... : ... .. . ... : ... .. . ... ... : --- .. . P82 ... : ... .. . ... ... : ... .. . ... ...
ROW C8 : C#2 00 A ... ... ... : ... .. . ... ... ... : F#2 00 . ... : ... .. . ... : ... .. . ... ... : ... .. . ... ... : F-3 01 7 ... ... : ... .. . ... ...
ROW C9 : ... .. 9 ... ... ... : ... .. . ... ... ... : ... .. . ... : ... .. . ... : ... .. . ... ... : ... .. . ... ... : ... .. 6 ... ... : ... .. . ... ...
ROW CA : ... .. 8 ... ... ... : ... .. . ... ... ... : ... .. . ... : ... .. . ... : ... .. . ... ... : ... .. . ... ... : ... .. . ... ... : ... .. . ... ...
ROW CB : ... .. 6 ... ... ... : ... .. . ... ... ... : ... .. . ... : ... .. . ... : ... .. . ... ... : ... .. . ... ... : ... .. . ... ... : ... .. . ... ...
ROW CC : ... .. . ... ... ... : ... .. . ... ... ... : ... .. . ... : ... .. . ... : ... .. . ... ... : ... .. . ... ... : ... .. 5 ... ... : ... .. . ... ...
ROW CD : ... .. . ... ... ... : ... .. . ... ... ... : ... .. . ... : ... .. . ... : ... .. . ... ... : ... .. . ... ... : ... .. . ... ... : ... .. . ... ...
ROW CE : ... .. . ... ... ... : ... .. . ... ... ... : ... .. . ... : ... .. . ... : ... .. . ... ... : ... .. . ... ... : ... .. . ... ... : ... .. . ... ...
ROW CF : ... .. . ... ... ... : ... .. . ... ... ... : ... .. . ... : ... .. . ... : ... .. . ... ... : ... .. . ... ... : ... .. 4 ... ... : ... .. . ... ...
ROW D0 : ... .. . ... ... ... : ... .. . ... ... ... : ... .. . ... : ... .. . ... : ... .. . ... ... : ... .. . ... ... : ... .. . ... ... : ... .. . ... ...
ROW D1 : ... .. . ... ... ... : ... .. . ... ... ... : ... .. . ... : ... .. . ... : ... .. . ... ... : ... .. . ... ... : ... .. . ... ... : ... .. . ... ...
ROW D2 : ... .. . ... ... ... : ... .. . ... ... ... : ... .. . ... : ... .. . ... : ... .. . ... ... : ... .. . ... ... : ... .. . ... ... : ... .. . ... ...
ROW D3 : ... .. 1 ... ... ... : ... .. . ... ... ... : ... .. . ... : ... .. . ... : ... .. . ... ... : ... .. . ... ... : ... .. . ... ... : ... .. . ... ...
ROW D4 : ... .. . ... ... ... : ... .. . ... ... ... : ... .. . ... : ... .. . ... : ... .. . ... ... : ... .. . ... ... : ... .. . ... ... : ... .. . ... ...
ROW D5 : ... .. . ... ... ... : ... .. . ... ... ... : ... .. . ... : ... .. . ... : ... .. . ... ... : ... .. . ... ... : ... .. . ... ... : ... .. . ... ...
ROW D6 : ... .. . ... ... ... : ... .. . ... ... ... : ... .. . ... : ... .. . ... : ... .. . ... ... : ... .. . ... ... : ... .. . ... ... : ... .. . ... ...
ROW D7 : ... .. . ... ... ... : ... .. . ... ... ... : ... .. . ... : ... .. . ... : ... .. . ... ... : ... .. . ... ... : ... .. . ... ... : ... .. 3 P84 ...
ROW D8 : ... .. . ... ... ... : ... .. . ... ... ... : ... .. . ... : ... .. . ... : ... .. . ... ... : ... .. . ... ... : ... .. . ... ... : ... .. . P87 ...
ROW D9 : ... .. 0 ... V00 ... : ... .. . ... ... ... : ... .. . ... : ... .. . ... : ... .. . ... ... : ... .. . ... ... : ... .. . ... ... : ... .. . ... ...
ROW DA : ... .. . ... ... ... : ... .. . ... ... ... : ... .. . ... : ... .. . ... : ... .. . ... ... : ... .. . ... ... : ... .. . ... ... : ... .. . P85 ...
ROW DB : ... .. . ... ... ... : ... .. . ... ... ... : ... .. . ... : ... .. . ... : ... .. . ... ... : ... .. . ... ... : ... .. . ... ... : ... .. . P81 ...
ROW DC : G#1 00 A P80 V02 ... : ... .. . ... ... ... : --- .. . ... : ... .. . ... : ... .. . ... ... : F-2 01 5 P80 ... : G#3 01 7 ... ... : ... .. . P7F ...
ROW DD : ... .. 9 ... ... ... : ... .. . ... ... ... : ... .. . ... : ... .. . ... : ... .. . ... ... : ... .. 4 ... ... : ... .. 6 ... ... : ... .. . P7C ...
ROW DE : ... .. 8 ... ... ... : ... .. . ... ... ... : ... .. . ... : ... .. . ... : ... .. . ... ... : ... .. 3 ... ... : ... .. . ... ... : ... .. . P7B ...
ROW DF : ... .. 6 ... ... ... : ... .. . ... ... ... : ... .. . ... : ... .. . ... : ... .. . ... ... : ... .. 2 ... ... : ... .. . ... ... : ... .. . P7C ...
ROW E0 : ... .. . ... ... ... : ... .. . ... ... ... : ... .. . ... : ... .. . ... : ... .. . ... ... : ... .. . ... ... : ... .. 5 ... ... : ... .. . P7F ...
ROW E1 : ... .. . ... ... ... : ... .. . ... ... ... : ... .. . ... : ... .. . ... : ... .. . ... ... : ... .. 1 ... ... : ... .. . ... ... : ... .. . P82 ...
ROW E2 : ... .. 1 ... ... ... : ... .. . ... ... ... : ... .. . ... : ... .. . ... : ... .. . ... ... : ... .. . ... ... : ... .. . ... ... : ... .. . P85 ...
ROW E3 : ... .. . ... ... ... : ... .. . ... ... ... : ... .. . ... : ... .. . ... : ... .. . ... ... : ... .. . ... ... : ... .. 4 ... ... : ... .. . P87 ...
ROW E4 : ... .. . ... ... ... : ... .. . ... ... ... : ... .. . ... : ... .. . ... : ... .. . ... ... : ... .. . ... ... : ... .. . ... ... : ... .. . ... ...
ROW E5 : ... .. . ... ... ... : ... .. . ... ... ... : ... .. . ... : ... .. . ... : ... .. . ... ... : --- .. . P7E ... : ... .. . ... ... : ... .. . P84 ...
ROW E6 : ... .. . ... ... ... : ... .. . ... ... ... : ... .. . ... : ... .. . ... : ... .. . ... ... : F-2 01 5 P80 ... : ... .. . ... ... : ... .. . P81 ...
ROW E7 : ... .. . ... ... ... : ... .. . ... ... ... : ... .. . ... : ... .. . ... : ... .. . ... ... : ... .. 4 ... ... : ... .. . ... ... : ... .. . P7E ...
ROW E8 : ... .. 0 ... V00 ... : ... .. . ... ... ... : ... .. . ... : ... .. . ... : ... .. . ... ... : ... .. 3 ... ... : ... .. . ... ... : ... .. . P7B ...
ROW E9 : ... .. . ... ... ... : ... .. . ... ... ... : ... .. . ... : ... .. . ... : ... .. . ... ... : ... .. 2 ... ... : ... .. . ... ... : ... .. . ... ...
ROW EA : ... .. . ... ... ... : ... .. . ... ... ... : ... .. . ... : ... .. . ... : ... .. . ... ... : ... .. . ... ... : ... .. . ... ... : ... .. . P7D ...
ROW EB : ... .. . ... ... ... : ... .. . ... ... ... : ... .. . ... : ... .. . ... : ... .. . ... ... : ... .. 1 ... ... : ... .. . ... ... : ... .. . P81 ...
ROW EC : ... .. . ... ... ... : ... .. . ... ... ... : ... .. . ... : ... .. . ... : ... .. . ... ... : ... .. . ... ... : ... .. . ... ... : ... .. . P83 ...
ROW ED : ... .. . ... ... ... : ... .. . ... ... ... : ... .. . ... : ... .. . ... : ... .. . ... ... : ... .. . ... ... : ... .. . ... ... : ... .. . P86 ...
ROW EE : ... .. . ... ... ... : ... .. . ... ... ... : ... .. . ... : ... .. . ... : ... .. . ... ... : ... .. . ... ... : ... .. . ... ... : ... .. . P87 ...
ROW EF : ... .. . ... ... ... : ... .. . ... ... ... : ... .. . ... : ... .. . ... : ... .. . ... ... : --- .. . P7E ... : ... .. . ... ... : ... .. . P86 ...
ROW F0 : B-2 00 C P80 V02 ... : F#3 00 C P80 ... ... : B-2 00 . ... : ... .. . ... : ... .. . ... ... : ... .. . ... ... : ... .. . ... ... : ... .. . P83 ...
ROW F1 : ... .. B ... ... ... : ... .. B ... ... ... : ... .. . ... : ... .. . ... : ... .. . ... ... : ... .. . ... ... : ... .. . ... ... : ... .. . P80 ...
ROW F2 : ... .. A ... ... ... : ... .. A ... ... ... : ... .. . ... : ... .. . ... : ... .. . ... ... : ... .. . ... ... : ... .. . ... ... : ... .. . P7D ...
ROW F3 : ... .. 8 ... ... ... : ... .. 8 ... ... ... : ... .. . ... : ... .. . ... : ... .. . ... ... : ... .. . ... ... : ... .. . ... ... : ... .. . P7B ...
ROW F4 : ... .. . ... ... ... : ... .. . ... ... ... : ... .. . ... : ... .. . ... : ... .. . ... ... : ... .. . ... ... : ... .. . ... ... : ... .. . ... ...
ROW F5 : ... .. . ... ... ... : ... .. . ... ... ... : ... .. . ... : ... .. . ... : ... .. . ... ... : ... .. . ... ... : ... .. . ... ... : ... .. . P7E ...
ROW F6 : ... .. . ... ... ... : ... .. . ... ... ... : ... .. . ... : ... .. . ... : ... .. . ... ... : ... .. . ... ... : ... .. . ... ... : ... .. . P81 ...
ROW F7 : ... .. . ... ... ... : ... .. . ... ... ... : ... .. . ... : ... .. . ... : ... .. . ... ... : ... .. . ... ... : ... .. . ... ... : ... .. . P84 ...
ROW F8 : ... .. . ... ... ... : ... .. . ... ... ... : ... .. . ... : ... .. . ... : ... .. . ... ... : ... .. . ... ... : ... .. . ... ... : ... .. . P87 ...
ROW F9 : ... .. . ... ... ... : ... .. . ... ... ... : ... .. . ... : ... .. . ... : ... .. . ... ... : ... .. . ... ... : ... .. . ... ... : ... .. . ... ...
ROW FA : ... .. . ... ... ... : ... .. . ... ... ... : ... .. . ... : ... .. . ... : ... .. . ... ... : ... .. . ... ... : ... .. . ... ... : ... .. 4 P85 ...
ROW FB : ... .. . ... ... ... : ... .. . ... ... ... : ... .. . ... : ... .. . ... : ... .. . ... ... : ... .. . ... ... : ... .. . ... ... : ... .. . P81 ...
ROW FC : ... .. . ... ... ... : ... .. . ... ... ... : ... .. . ... : ... .. . ... : ... .. . ... ... : ... .. . ... ... : ... .. . ... ... : ... .. . P7F ...
ROW FD : ... .. . ... ... ... : ... .. . ... ... ... : ... .. . ... : ... .. . ... : ... .. . ... ... : ... .. . ... ... : ... .. . ... ... : ... .. . P7C ...
ROW FE : ... .. . ... ... ... : ... .. . ... ... ... : ... .. . ... : ... .. . ... : ... .. . ... ... : ... .. . ... ... : ... .. . ... ... : ... .. . P7B ...
ROW FF : ... .. . P8A ... ... : ... .. . ... ... ... : ... .. . ... : ... .. . ... : ... .. . ... ... : ... .. . ... ... : ... .. . ... ... : ... .. . P7C ...

PATTERN 01
ROW 00 : C-3 00 8 P77 ... ... : ... .. . ... ... ... : ... .. . ... : ... .. . ... : ... .. . ... ... : ... .. . ... ... : ... .. . ... ... : ... .. . P7F ...
ROW 01 : ... .. . P75 ... ... : ... .. . ... ... ... : ... .. . ... : ... .. . ... : ... .. . ... ... : ... .. . ... ... : ... .. . ... ... : ... .. . P82 ...
ROW 02 : B-2 00 8 P84 ... ... : ... .. . ... ... ... : ... .. . ... : ... .. . ... : ... .. . ... ... : ... .. . ... ... : ... .. . ... ... : ... .. . P85 ...
ROW 03 : ... .. . P7C ... ... : ... .. . ... ... ... : ... .. . ... : ... .. . ... : ... .. . ... ... : ... .. . ... ... : ... .. . ... ... : ... .. . P87 ...
ROW 04 : A#2 00 8 P8D ... ... : ... .. . ... ... ... : --- .. . ... : ... .. . ... : ... .. . ... ... : F#2 01 5 P80 ... : ... .. . ... ... : ... .. . ... ...
ROW 05 : ... .. . P8B ... ... : ... .. . ... ... ... : ... .. . ... : ... .. . ... : ... .. . ... ... : ... .. 4 ... ... : ... .. . ... ... : ... .. . P84 ...
ROW 06 : B-2 00 8 P76 ... ... : ... .. . ... ... ... : ... .. . ... : ... .. . ... : ... .. . ... ... : ... .. 3 ... ... : ... .. . ... ... : ... .. . P81 ...
ROW 07 : ... .. . P80 ... ... : ... .. . ... ... ... : ... .. . ... : ... .. . ... : ... .. . ... ... : ... .. 2 ... ... : ... .. . ... ... : ... .. . P7E ...
ROW 08 : ... .. . P89 ... ... : ... .. . ... ... ... : ... .. . ... : ... .. . ... : ... .. . ... ... : ... .. . ... ... : ... .. . ... ... : ... .. . P7B ...
ROW 09 : C-3 00 8 P77 ... ... : ... .. . ... ... ... : ... .. . ... : ... .. . ... : ... .. . ... ... : ... .. 1 ... ... : ... .. . ... ... : ... .. . ... ...
ROW 0A : ... .. 1 P75 ... ... : ... .. 1 ... ... ... : ... .. . ... : ... .. . ... : ... .. . ... ... : ... .. . ... ... : ... .. . ... ... : ... .. . P7D ...
ROW 0B : B-2 00 1 P86 ... ... : ... .. . ... ... ... : ... .. . ... : ... .. . ... : ... .. . ... ... : ... .. . ... ... : ... .. . ... ... : ... .. . P81 ...
ROW 0C : ... .. . P7D ... ... : ... .. . ... ... ... : ... .. . ... : ... .. . ... : ... .. . ... ... : ... .. . ... ... : ... .. . ... ... : ... .. . P83 ...
ROW 0D : ... .. . P73 ... ... : ... .. . ... ... ... : ... .. . ... : ... .. . ... : ... .. . ... ... : --- .. . P82 ... : ... .. . ... ... : ... .. . P86 ...
ROW 0E : F#2 00 8 P80 ... ... : D#3 00 C ... ... ... : ... .. . ... : ... .. . ... : ... .. . ... ... : F#2 01 5 P80 ... : ... .. . ... ... : ... .. . P87 ...
ROW 0F : ... .. 7 ... ... ... : ... .. B ... ... ... : ... .. . ... : ... .. . ... : ... .. . ... ... : ... .. 4 ... ... : ... .. . ... ... : ... .. . P86 ...
ROW 10 : ... .. 6 ... ... ... : ... .. A ... ... ... : ... .. . ... : ... .. . ... : ... .. . ... ... : ... .. 3 ... ... : ... .. . ... ... : ... .. . P83 ...
ROW 11 : ... .. 5 ... ... ... : ... .. 8 ... ... ... : ... .. . ... : ... .. . ... : ... .. . ... ... : ... .. 2 ... ... : ... .. . ... ... : ... .. . P80 ...
ROW 12 : ... .. . ... ... ... : ... .. . ... ... ... : ... .. . ... : ... .. . ... : ... .. . ... ... : ... .. . ... ... : ... .. . ... ... : ... .. . P7D ...
ROW 13 : ... .. . ... ... ... : ... .. . ... ... ... : ... .. . ... : ... .. . ... : ... .. . ... ... : ... .. 1 ... ... : ... .. . ... ... : ... .. . P7B ...
ROW 14 : ... .. 1 ... ... ... : ... .. 1 ... ... ... : ... .. . ... : ... .. . ... : ... .. . ... ... : ... .. . ... ... : ... .. . ... ... : ... .. . ... ...
ROW 15 : ... .. . ... ... ... : ... .. . ... ... ... : ... .. . ... : ... .. . ... : ... .. . ... ... : ... .. . ... ... : ... .. . ... ... : ... .. . P7E ...
ROW 16 : ... .. . ... ... ... : ... .. . ... ... ... : ... .. . ... : ... .. . ... : ... .. . ... ... : ... .. . ... ... : ... .. . ... ... : ... .. . P81 ...
ROW 17 : ... .. . ... ... ... : ... .. . ... ... ... : ... .. . ... : ... .. . ... : ... .. . ... ... : --- .. . P82 ... : ... .. . ... ... : ... .. . P84 ...
ROW 18 : G#2 00 C ... ... ... : F-3 00 C ... ... ... : F-2 00 . ... : ... .. . ... : ... .. . ... ... : ... .. . ... ... : ... .. . ... ... : ... .. 5 P87 ...
ROW 19 : ... .. B ... ... ... : ... .. B ... ... ... : ... .. . ... : ... .. . ... : ... .. . ... ... : ... .. . ... ... : ... .. . ... ... : ... .. . ... ...
ROW 1A : ... .. A ... ... ... : ... .. A ... ... ... : ... .. . ... : ... .. . ... : ... .. . ... ... : ... .. . ... ... : ... .. . ... ... : ... .. . P85 ...
ROW 1B : ... .. 8 ... ... ... : ... .. 8 ... ... ... : ... .. . ... : ... .. . ... : ... .. . ... ... : ... .. . ... ... : ... .. . ... ... : ... .. . P81 ...
ROW 1C : ... .. . ... ... ... : ... .. . ... ... ... : ... .. . ... : ... .. . ... : ... .. . ... ... : ... .. . ... ... : ... .. . ... ... : ... .. . P7F ...
ROW 1D : ... .. . ... ... ... : ... .. . ... ... ... : ... .. . ... : ... .. . ... : ... .. . ... ... : ... .. . ... ... : ... .. . ... ... : ... .. . P7C ...
ROW 1E : ... .. . ... ... ... : ... .. . ... ... ... : ... .. . ... : ... .. . ... : ... .. . ... ... : ... .. . ... ... : ... .. . ... ... : ... .. . P7B ...
ROW 1F : ... .. . ... ... ... : ... .. . ... ... ... : ... .. . ... : ... .. . ... : ... .. . ... ... : ... .. . ... ... : ... .. . ... ... : ... .. . P7C ...
ROW 20 : ... .. . ... ... ... : ... .. . ... ... ... : ... .. . ... : ... .. . ... : ... .. . ... ... : ... .. . ... ... : ... .. . ... ... : ... .. . P7F ...
ROW 21 : ... .. . ... ... ... : ... .. . ... ... ... : ... .. . ... : ... .. . ... : ... .. . ... ... : ... .. . ... ... : ... .. . ... ... : ... .. . P82 ...
ROW 22 : ... .. . ... ... ... : ... .. . ... ... ... : ... .. . ... : ... .. . ... : ... .. . ... ... : ... .. . ... ... : ... .. . ... ... : ... .. . P85 ...
ROW 23 : ... .. . ... ... ... : ... .. . ... ... ... : ... .. . ... : ... .. . ... : ... .. . ... ... : ... .. . ... ... : ... .. . ... ... : ... .. . P87 ...
ROW 24 : ... .. . ... ... ... : ... .. . ... ... ... : ... .. . ... : ... .. . ... : ... .. . ... ... : ... .. . ... ... : ... .. . ... ... : ... .. . ... ...
ROW 25 : ... .. . ... ... ... : ... .. . ... ... ... : ... .. . ... : ... .. . ... : ... .. . ... ... : ... .. . ... ... : ... .. . ... ... : ... .. . P84 ...
ROW 26 : ... .. . ... ... ... : ... .. . ... ... ... : ... .. . ... : ... .. . ... : ... .. . ... ... : ... .. . ... ... : ... .. . ... ... : ... .. . P81 ...
ROW 27 : ... .. . ... ... ... : ... .. . ... ... ... : ... .. . ... : ... .. . ... : ... .. . ... ... : ... .. . ... ... : ... .. . ... ... : ... .. . P7E ...
ROW 28 : ... .. 1 ... ... ... : ... .. 1 ... ... ... : ... .. . ... : ... .. . ... : ... .. . ... ... : ... .. . ... ... : ... .. . ... ... : ... .. . P7B ...
ROW 29 : ... .. . ... ... ... : ... .. . ... ... ... : ... .. . ... : ... .. . ... : ... .. . ... ... : ... .. . ... ... : ... .. . ... ... : ... .. . ... ...
ROW 2A : ... .. . ... ... ... : ... .. . ... ... ... : ... .. . ... : ... .. . ... : ... .. . ... ... : ... .. . ... ... : ... .. . ... ... : ... .. . P7D ...
ROW 2B : ... .. . ... ... ... : ... .. . ... ... ... : ... .. . ... : ... .. . ... : ... .. . ... ... : ... .. . ... ... : ... .. . ... ... : ... .. . P81 ...
ROW 2C : C#3 00 A ... ... ... : ... .. A ... ... ... : F#2 00 . ... : ... .. . ... : ... .. . ... ... : F-2 01 5 P80 ... : F-4 01 A ... V00 : ... .. . P83 ...
ROW 2D : ... .. 8 ... ... ... : ... .. 8 ... ... ... : ... .. . ... : ... .. . ... : ... .. . ... ... : ... .. 4 ... ... : ... .. 8 ... ... : ... .. 2 P86 ...
ROW 2E : ... .. . ... ... ... : ... .. . ... ... ... : ... .. . ... : ... .. . ... : ... .. . ... ... : ... .. 3 ... ... : --- .. . ... ... : ... .. . P87 ...
ROW 2F : ... .. . ... ... ... : ... .. . ... ... ... : ... .. . ... : ... .. . ... : ... .. . ... ... : ... .. 2 ... ... : ... .. . ... ... : ... .. 1 P86 ...
ROW 30 : ... .. 6 ... ... ... : ... .. 6 ... ... ... : ... .. . ... : ... .. . ... : ... .. . ... ... : ... .. . ... ... : ... .. . ... ... : ... .. . P83 ...
ROW 31 : ... .. 5 ... ... ... : ... .. 5 ... ... ... : ... .. . ... : ... .. . ... : ... .. . ... ... : ... .. 1 ... ... : ... .. . ... ... : ... .. . P80 ...
ROW 32 : ... .. 4 ... ... ... : ... .. 4 ... ... ... : ... .. . ... : ... .. . ... : ... .. . ... ... : ... .. . ... ... : ... .. . ... ... : ... .. . P7D ...
ROW 33 : D#3 00 A ... ... ... : F#3 00 6 ... ... ... : ... .. . ... : ... .. . ... : ... .. . ... ... : ... .. . ... ... : F#4 01 6 ... ... : ... .. . P7B ...
ROW 34 : ... .. 8 ... ... ... : ... .. 5 ... ... ... : ... .. . ... : ... .. . ... : ... .. . ... ... : ... .. . ... ... : ... .. 5 ... ... : ... .. . ... ...
ROW 35 : ... .. . ... ... ... : ... .. . ... ... ... : ... .. . ... : ... .. . ... : ... .. . ... ... : --- .. . P7E ... : --- .. . ... ... : ... .. . P7E ...
ROW 36 : ... .. . ... ... ... : ... .. . ... ... ... : ... .. . ... : ... .. . ... : ... .. . ... ... : ... .. . ... ... : ... .. . ... ... : ... .. 0 P81 ...
ROW 37 : ... .. 6 ... ... ... : ... .. 4 ... ... ... : ... .. . ... : ... .. . ... : ... .. . ... ... : ... .. . ... ... : ... .. . ... ... : ... .. . P84 ...
ROW 38 : ... .. 5 ... ... ... : ... .. 3 ... ... ... : ... .. . ... : ... .. . ... : ... .. . ... ... : ... .. . ... ... : ... .. . ... ... : ... .. . P87 ...
ROW 39 : ... .. 4 ... ... ... : ... .. . ... ... ... : ... .. . ... : ... .. . ... : ... .. . ... ... : ... .. . ... ... : ... .. . ... ... : ... .. . ... ...
ROW 3A : F-3 00 A ... ... ... : G#3 00 6 ... ... ... : ... .. . ... : ... .. . ... : ... .. . ... ... : ... .. . ... ... : G#4 01 6 ... ... : ... .. . P85 ...
ROW 3B : ... .. 8 ... ... ... : ... .. 5 ... ... ... : ... .. . ... : ... .. . ... : ... .. . ... ... : ... .. . ... ... : ... .. 5 ... ... : ... .. . P81 ...
ROW 3C : ... .. . ... ... ... : ... .. . ... ... ... : ... .. . ... : ... .. . ... : ... .. . ... ... : ... .. . ... ... : --- .. . ... ... : ... .. . P7F ...
ROW 3D : ... .. . ... ... ... : ... .. . ... ... ... : ... .. . ... : ... .. . ... : ... .. . ... ... : ... .. . ... ... : ... .. . ... ... : ... .. . P7C ...
ROW 3E : ... .. 6 ... ... ... : ... .. 4 ... ... ... : ... .. . ... : ... .. . ... : ... .. . ... ... : ... .. . ... ... : ... .. . ... ... : ... .. . P7B ...
ROW 3F : ... .. 5 ... ... ... : ... .. 3 ... ... ... : ... .. . ... : ... .. . ... : ... .. . ... ... : ... .. . ... ... : ... .. . ... ... : ... .. . P7C ...
ROW 40 : D#3 00 C ... ... ... : F#3 00 C ... ... ... : B-1 00 . ... : ... .. . ... : ... .. . ... ... : ... .. . ... ... : B-1 01 7 ... V05 : B-0 01 C P81 ...
ROW 41 : ... .. B ... ... ... : ... .. B ... ... ... : ... .. . ... : ... .. . ... : ... .. . ... ... : ... .. . ... ... : ... .. 6 ... ... : ... .. A ... ...
ROW 42 : ... .. A ... ... ... : ... .. A ... ... ... : ... .. . ... : ... .. . ... : ... .. . ... ... : ... .. . ... ... : ... .. . ... ... : ... .. 6 ... ...
ROW 43 : ... .. 8 ... ... ... : ... .. 8 ... ... ... : ... .. . ... : ... .. . ... : ... .. . ... ... : ... .. . ... ... : ... .. . ... ... : ... .. . ... ...
ROW 44 : ... .. . ... ... ... : ... .. . ... ... ... : ... .. . ... : ... .. . ... : ... .. . ... ... : ... .. . ... ... : ... .. 5 ... ... : ... .. . ... ...
ROW 45 : ... .. . ... ... ... : ... .. . ... ... ... : ... .. . ... : ... .. . ... : ... .. . ... ... : ... .. . ... ... : ... .. . ... ... : ... .. . ... ...
ROW 46 : ... .. . ... ... ... : ... .. . ... ... ... : ... .. . ... : ... .. . ... : ... .. . ... ... : ... .. . ... ... : ... .. . ... ... : ... .. . ... ...
ROW 47 : ... .. . ... ... ... : ... .. . ... ... ... : ... .. . ... : ... .. . ... : ... .. . ... ... : ... .. . ... ... : ... .. 4 ... ... : ... .. . ... ...
ROW 48 : ... .. . ... ... ... : ... .. . ... ... ... : ... .. . ... : ... .. . ... : ... .. . ... ... : ... .. . ... ... : ... .. . ... ... : ... .. . ... ...
ROW 49 : ... .. . ... ... ... : ... .. . ... ... ... : ... .. . ... : ... .. . ... : ... .. . ... ... : ... .. . ... ... : ... .. . ... ... : ... .. . ... ...
ROW 4A : ... .. . ... ... ... : ... .. . ... ... ... : ... .. . ... : ... .. . ... : ... .. . ... ... : ... .. . ... ... : ... .. . ... ... : ... .. . ... ...
ROW 4B : ... .. 1 ... ... ... : ... .. 1 ... ... ... : ... .. . ... : ... .. . ... : ... .. . ... ... : ... .. . ... ... : ... .. . ... ... : ... .. . ... ...
ROW 4C : ... .. . ... ... ... : ... .. . ... ... ... : ... .. . ... : ... .. . ... : ... .. . ... ... : ... .. . ... ... : ... .. . ... ... : ... .. . ... ...
ROW 4D : ... .. . ... ... ... : ... .. . ... ... ... : ... .. . ... : ... .. . ... : ... .. . ... ... : ... .. . ... ... : ... .. . ... ... : ... .. . ... ...
ROW 4E : ... .. . ... ... ... : ... .. . ... ... ... : ... .. . ... : ... .. . ... : ... .. . ... ... : ... .. . ... ... : ... .. . ... ... : ... .. . ... ...
ROW 4F : ... .. . ... ... ... : ... .. . ... ... ... : ... .. . ... : ... .. . ... : ... .. . ... ... : ... .. . ... ... : ... .. . ... ... : ... .. . ... ...
ROW 50 : ... .. . ... ... ... : ... .. . ... ... ... : ... .. . ... : ... .. . ... : ... .. . ... ... : ... .. . ... ... : ... .. . ... ... : ... .. . ... ...
ROW 51 : ... .. 0 ... V00 ... : ... .. 0 ... ... ... : ... .. . ... : ... .. . ... : ... .. . ... ... : ... .. . ... ... : ... .. . ... ... : ... .. . ... ...
ROW 52 : ... .. . ... ... ... : ... .. . ... ... ... : ... .. . ... : ... .. . ... : ... .. . ... ... : ... .. . ... ... : ... .. . ... ... : ... .. . ... ...
ROW 53 : ... .. . ... ... ... : ... .. . ... ... ... : ... .. . ... : ... .. . ... : ... .. . ... ... : ... .. . ... ... : ... .. . ... ... : ... .. . ... ...
ROW 54 : ... .. . ... ... ... : ... .. . ... ... ... : --- .. . ... : ... .. . ... : ... .. . ... ... : F#2 01 5 P80 ... : ... .. . ... ... : ... .. . ... ...
ROW 55 : ... .. . ... ... ... : ... .. . ... ... ... : ... .. . ... : ... .. . ... : ... .. . ... ... : ... .. 4 ... ... : ... .. . ... ... : ... .. 3 ... ...
ROW 56 : ... .. . ... ... ... : ... .. . ... ... ... : ... .. . ... : ... .. . ... : ... .. . ... ... : ... .. 3 ... ... : ... .. . ... ... : ... .. . ... ...
ROW 57 : ... .. . ... ... ... : ... .. . ... ... ... : ... .. . ... : ... .. . ... : ... .. . ... ... : ... .. 2 ... ... : ... .. 3 ... ... : ... .. 1 ... ...
ROW 58 : ... .. . ... ... ... : ... .. . ... ... ... : ... .. . ... : ... .. . ... : ... .. . ... ... : ... .. . ... ... : ... .. 2 ... ... : ... .. . ... ...
ROW 59 : ... .. . ... ... ... : ... .. . ... ... ... : ... .. . ... : ... .. . ... : ... .. . ... ... : ... .. 1 ... ... : ... .. . ... ... : ... .. . ... ...
ROW 5A : ... .. . ... ... ... : ... .. . ... ... ... : ... .. . ... : ... .. . ... : ... .. . ... ... : ... .. . ... ... : ... .. . ... ... : ... .. . ... ...
ROW 5B : ... .. . ... ... ... : ... .. . ... ... ... : ... .. . ... : ... .. . ... : ... .. . ... ... : ... .. . ... ... : ... .. . ... ... : ... .. . ... ...
ROW 5C : ... .. . ... ... ... : ... .. . ... ... ... : ... .. . ... : ... .. . ... : ... .. . ... ... : ... .. . ... ... : ... .. . ... ... : ... .. . ... ...
ROW 5D : ... .. . ... ... ... : ... .. . ... ... ... : ... .. . ... : ... .. . ... : ... .. . ... ... : --- .. . P82 ... : ... .. . ... ... : ... .. . ... ...
ROW 5E : ... .. . ... ... ... : ... .. . ... ... ... : ... .. . ... : ... .. . ... : ... .. . ... ... : F#2 01 5 P80 ... : ... .. . ... ... : ... .. 0 ... ...
ROW 5F : ... .. . ... ... ... : ... .. . ... ... ... : ... .. . ... : ... .. . ... : ... .. . ... ... : ... .. 4 ... ... : ... .. . ... ... : ... .. . ... ...
ROW 60 : ... .. . ... ... ... : ... .. . ... ... ... : ... .. . ... : ... .. . ... : ... .. . ... ... : ... .. 3 ... ... : ... .. . ... ... : ... .. . ... ...
ROW 61 : ... .. . ... ... ... : ... .. . ... ... ... : ... .. . ... : ... .. . ... : ... .. . ... ... : ... .. 2 ... ... : ... .. . ... ... : ... .. . ... ...
ROW 62 : ... .. . ... ... ... : ... .. . ... ... ... : ... .. . ... : ... .. . ... : ... .. . ... ... : ... .. . ... ... : ... .. . ... ... : ... .. . ... ...
ROW 63 : ... .. . ... ... ... : ... .. . ... ... ... : ... .. . ... : ... .. . ... : ... .. . ... ... : ... .. 1 ... ... : ... .. 1 ... ... : ... .. . ... ...
ROW 64 : ... .. . ... ... ... : ... .. . ... ... ... : ... .. . ... : ... .. . ... : ... .. . ... ... : ... .. . ... ... : ... .. . ... ... : ... .. . ... ...
ROW 65 : ... .. . ... ... ... : ... .. . ... ... ... : ... .. . ... : ... .. . ... : ... .. . ... ... : ... .. . ... ... : ... .. . ... ... : ... .. . ... ...
ROW 66 : ... .. . ... ... ... : ... .. . ... ... ... : ... .. . ... : ... .. . ... : ... .. . ... ... : ... .. . ... ... : ... .. . ... ... : ... .. . ... ...
ROW 67 : ... .. . ... ... ... : ... .. . ... ... ... : ... .. . ... : ... .. . ... : ... .. . ... ... : --- .. . P82 ... : ... .. . ... ... : ... .. . ... ...
ROW 68 : F#2 00 C P80 V02 ... : ... .. . ... ... ... : F#1 00 . ... : ... .. . ... : ... .. . ... ... : ... .. . ... ... : ... .. . ... ... : F#1 01 C ... ...
ROW 69 : ... .. B ... ... ... : ... .. . ... ... ... : ... .. . ... : ... .. . ... : ... .. . ... ... : ... .. . ... ... : ... .. . ... ... : ... .. A ... ...
ROW 6A : ... .. A ... ... ... : ... .. . ... ... ... : ... .. . ... : ... .. . ... : ... .. . ... ... : ... .. . ... ... : ... .. . ... ... : ... .. 6 ... ...
ROW 6B : ... .. 8 ... ... ... : ... .. . ... ... ... : ... .. . ... : ... .. . ... : ... .. . ... ... : ... .. . ... ... : ... .. . ... ... : ... .. . ... ...
ROW 6C : ... .. . ... ... ... : ... .. . ... ... ... : ... .. . ... : ... .. . ... : ... .. . ... ... : ... .. . ... ... : ... .. . ... ... : ... .. . ... ...
ROW 6D : ... .. 7 ... ... ... : ... .. . ... ... ... : ... .. . ... : ... .. . ... : ... .. . ... ... : ... .. . ... ... : ... .. . ... ... : ... .. . ... ...
ROW 6E : ... .. . ... ... ... : ... .. . ... ... ... : ... .. . ... : ... .. . ... : ... .. . ... ... : ... .. . ... ... : ... .. . ... ... : ... .. . ... ...
ROW 6F : ... .. . ... ... ... : ... .. . ... ... ... : ... .. . ... : ... .. . ... : ... .. . ... ... : ... .. . ... ... : ... .. . ... ... : ... .. . ... ...
ROW 70 : ... .. . ... ... ... : ... .. . ... ... ... : ... .. . ... : ... .. . ... : ... .. . ... ... : ... .. . ... ... : ... .. . ... ... : ... .. . ... ...
ROW 71 : ... .. . ... ... ... : ... .. . ... ... ... : ... .. . ... : ... .. . ... : ... .. . ... ... : ... .. . ... ... : --- .. . P7D ... : ... .. . ... ...
ROW 72 : ... .. . ... ... ... : ... .. . ... ... ... : ... .. . ... : ... .. . ... : ... .. . ... ... : ... .. . ... ... : ... .. . ... ... : ... .. . ... ...
ROW 73 : ... .. 1 ... ... ... : ... .. . ... ... ... : ... .. . ... : ... .. . ... : ... .. . ... ... : ... .. . ... ... : ... .. . ... ... : ... .. 3 ... ...
ROW 74 : ... .. . ... ... ... : ... .. . ... ... ... : ... .. . ... : ... .. . ... : ... .. . ... ... : ... .. . ... ... : ... .. . ... ... : ... .. . ... ...
ROW 75 : ... .. . ... ... ... : ... .. . ... ... ... : ... .. . ... : ... .. . ... : ... .. . ... ... : ... .. . ... ... : ... .. . ... ... : ... .. 1 ... ...
ROW 76 : ... .. . ... ... ... : ... .. . ... ... ... : ... .. . ... : ... .. . ... : ... .. . ... ... : ... .. . ... ... : ... .. . ... ... : ... .. . ... ...
ROW 77 : ... .. . ... ... ... : ... .. . ... ... ... : ... .. . ... : ... .. . ... : ... .. . ... ... : ... .. . ... ... : ... .. . ... ... : ... .. . ... ...
ROW 78 : ... .. . ... ... ... : ... .. . ... ... ... : ... .. . ... : ... .. . ... : ... .. . ... ... : ... .. . ... ... : ... .. . ... ... : ... .. . ... ...
ROW 79 : ... .. 0 ... V00 ... : ... .. . ... ... ... : ... .. . ... : ... .. . ... : ... .. . ... ... : ... .. . ... ... : ... .. . ... ... : ... .. . ... ...
ROW 7A : ... .. . ... ... ... : ... .. . ... ... ... : ... .. . ... : ... .. . ... : ... .. . ... ... : ... .. . ... ... : ... .. . ... ... : ... .. . ... ...
ROW 7B : ... .. . ... ... ... : ... .. . ... ... ... : ... .. . ... : ... .. . ... : ... .. . ... ... : ... .. . ... ... : ... .. . ... ... : ... .. . ... ...
ROW 7C : D#3 00 B P80 V02 ... : ... .. . ... ... ... : --- .. . ... : ... .. . ... : ... .. . ... ... : F-2 01 5 P80 ... : ... .. . ... ... : D#2 01 C ... ...
ROW 7D : ... .. A ... ... ... : ... .. . ... ... ... : ... .. . ... : ... .. . ... : ... .. . ... ... : ... .. 4 ... ... : ... .. . ... ... : ... .. A ... ...
ROW 7E : ... .. 9 ... ... ... : ... .. . ... ... ... : ... .. . ... : ... .. . ... : ... .. . ... ... : ... .. 3 ... ... : ... .. . ... ... : ... .. 6 ... ...
ROW 7F : ... .. 7 ... ... ... : ... .. . ... ... ... : ... .. . ... : ... .. . ... : ... .. . ... ... : ... .. 2 ... ... : ... .. . ... ... : ... .. . ... ...
ROW 80 : ... .. . ... ... ... : ... .. . ... ... ... : ... .. . ... : ... .. . ... : ... .. . ... ... : ... .. . ... ... : ... .. . ... ... : ... .. . ... ...
ROW 81 : ... .. . ... ... ... : ... .. . ... ... ... : ... .. . ... : ... .. . ... : ... .. . ... ... : ... .. 1 ... ... : ... .. . ... ... : ... .. . ... ...
ROW 82 : ... .. . ... ... ... : ... .. . ... ... ... : ... .. . ... : ... .. . ... : ... .. . ... ... : ... .. . ... ... : ... .. . ... ... : ... .. . ... ...
ROW 83 : ... .. . ... ... ... : ... .. . ... ... ... : ... .. . ... : ... .. . ... : ... .. . ... ... : ... .. . ... ... : ... .. . ... ... : ... .. . ... ...
ROW 84 : ... .. . ... ... ... : ... .. . ... ... ... : ... .. . ... : ... .. . ... : ... .. . ... ... : ... .. . ... ... : ... .. . ... ... : ... .. . ... ...
ROW 85 : ... .. . ... ... ... : ... .. . ... ... ... : ... .. . ... : ... .. . ... : ... .. . ... ... : --- .. . P7E ... : ... .. . ... ... : ... .. . ... ...
ROW 86 : ... .. 6 ... ... ... : ... .. . ... ... ... : ... .. . ... : ... .. . ... : ... .. . ... ... : F-2 01 5 P80 ... : ... .. . ... ... : ... .. . ... ...
ROW 87 : ... .. 1 ... ... ... : ... .. . ... ... ... : ... .. . ... : ... .. . ... : ... .. . ... ... : ... .. 4 ... ... : ... .. . ... ... : ... .. 3 ... ...
ROW 88 : ... .. . ... ... ... : ... .. . ... ... ... : ... .. . ... : ... .. . ... : ... .. . ... ... : ... .. 3 ... ... : ... .. . ... ... : ... .. . ... ...
ROW 89 : ... .. . ... ... ... : ... .. . ... ... ... : ... .. . ... : ... .. . ... : ... .. . ... ... : ... .. 2 ... ... : ... .. . ... ... : ... .. 1 ... ...
ROW 8A : ... .. . ... ... ... : ... .. . ... ... ... : ... .. . ... : ... .. . ... : ... .. . ... ... : ... .. . ... ... : ... .. . ... ... : ... .. . ... ...
ROW 8B : ... .. . ... ... ... : ... .. . ... ... ... : ... .. . ... : ... .. . ... : ... .. . ... ... : ... .. 1 ... ... : ... .. . ... ... : ... .. . ... ...
ROW 8C : ... .. . ... ... ... : ... .. . ... ... ... : ... .. . ... : ... .. . ... : ... .. . ... ... : ... .. . ... ... : ... .. . ... ... : ... .. . ... ...
ROW 8D : ... .. 0 ... V00 ... : ... .. . ... ... ... : ... .. . ... : ... .. . ... : ... .. . ... ... : ... .. . ... ... : ... .. . ... ... : ... .. . ... ...
ROW 8E : ... .. . ... ... ... : ... .. . ... ... ... : ... .. . ... : ... .. . ... : ... .. . ... ... : ... .. . ... ... : ... .. . ... ... : ... .. . ... ...
ROW 8F : ... .. . ... ... ... : ... .. . ... ... ... : ... .. . ... : ... .. . ... : ... .. . ... ... : --- .. . P7E ... : ... .. . ... ... : ... .. . ... ...
ROW 90 : F#3 00 A P80 V02 ... : ... .. . ... ... ... : B-1 00 . ... : ... .. . ... : ... .. . ... ... : ... .. . ... ... : ... .. . ... ... : F#2 01 C ... ...
ROW 91 : ... .. 9 ... ... ... : ... .. . ... ... ... : ... .. . ... : ... .. . ... : ... .. . ... ... : ... .. . ... ... : ... .. . ... ... : ... .. A ... ...
ROW 92 : ... .. 8 ... ... ... : ... .. . ... ... ... : ... .. . ... : ... .. . ... : ... .. . ... ... : ... .. . ... ... : ... .. . ... ... : ... .. 6 ... ...
ROW 93 : ... .. 6 ... ... ... : ... .. . ... ... ... : ... .. . ... : ... .. . ... : ... .. . ... ... : ... .. . ... ... : ... .. . ... ... : ... .. . ... ...
ROW 94 : ... .. . ... ... ... : ... .. . ... ... ... : ... .. . ... : ... .. . ... : ... .. . ... ... : ... .. . ... ... : ... .. . ... ... : ... .. . ... ...
ROW 95 : ... .. . ... ... ... : ... .. . ... ... ... : ... .. . ... : ... .. . ... : ... .. . ... ... : ... .. . ... ... : ... .. . ... ... : ... .. . ... ...
ROW 96 : ... .. . ... ... ... : ... .. . ... ... ... : ... .. . ... : ... .. . ... : ... .. . ... ... : ... .. . ... ... : ... .. . ... ... : ... .. . ... ...
ROW 97 : ... .. . ... ... ... : ... .. . ... ... ... : ... .. . ... : ... .. . ... : ... .. . ... ... : ... .. . ... ... : ... .. . ... ... : ... .. . ... ...
ROW 98 : ... .. . ... ... ... : ... .. . ... ... ... : ... .. . ... : ... .. . ... : ... .. . ... ... : ... .. . ... ... : ... .. . ... ... : ... .. . ... ...
ROW 99 : ... .. . ... ... ... : ... .. . ... ... ... : ... .. . ... : ... .. . ... : ... .. . ... ... : ... .. . ... ... : ... .. . ... ... : ... .. . ... ...
ROW 9A : ... .. . ... ... ... : ... .. . ... ... ... : ... .. . ... : ... .. . ... : ... .. . ... ... : ... .. . ... ... : ... .. . ... ... : ... .. . ... ...
ROW 9B : ... .. . ... ... ... : ... .. . ... ... ... : ... .. . ... : ... .. . ... : ... .. . ... ... : ... .. . ... ... : ... .. . ... ... : ... .. . ... ...
ROW 9C : ... .. . ... ... ... : ... .. . ... ... ... : ... .. . ... : ... .. . ... : ... .. . ... ... : ... .. . ... ... : ... .. . ... ... : ... .. . ... ...
ROW 9D : ... .. . ... ... ... : ... .. . ... ... ... : ... .. . ... : ... .. . ... : ... .. . ... ... : ... .. . ... ... : ... .. . ... ... : ... .. . ... ...
ROW 9E : ... .. . ... ... ... : ... .. . ... ... ... : ... .. . ... : ... .. . ... : ... .. . ... ... : ... .. . ... ... : ... .. . ... ... : ... .. . ... ...
ROW 9F : ... .. . ... ... ... : ... .. . ... ... ... : ... .. . ... : ... .. . ... : ... .. . ... ... : ... .. . ... ... : ... .. . ... ... : ... .. . ... ...
ROW A0 : ... .. . ... ... ... : ... .. . ... ... ... : ... .. . ... : ... .. . ... : ... .. . ... ... : ... .. . ... ... : ... .. . ... ... : ... .. . ... ...
ROW A1 : ... .. . ... ... ... : ... .. . ... ... ... : ... .. . ... : ... .. . ... : ... .. . ... ... : ... .. . ... ... : ... .. . ... ... : ... .. . ... ...
ROW A2 : ... .. . ... ... ... : ... .. . ... ... ... : ... .. . ... : ... .. . ... : ... .. . ... ... : ... .. . ... ... : ... .. . ... ... : ... .. . ... ...
ROW A3 : ... .. . ... ... ... : ... .. . ... ... ... : ... .. . ... : ... .. . ... : ... .. . ... ... : ... .. . ... ... : ... .. . ... ... : ... .. . ... ...
ROW A4 : F-3 00 9 ... ... ... : ... .. . ... ... ... : --- .. . ... : ... .. . ... : ... .. . ... ... : F#2 01 5 P80 ... : ... .. . ... ... : F-2 01 C ... ...
ROW A5 : ... .. 8 ... ... ... : ... .. . ... ... ... : ... .. . ... : ... .. . ... : ... .. . ... ... : ... .. 4 ... ... : ... .. . ... ... : ... .. A ... ...
ROW A6 : ... .. 7 ... ... ... : ... .. . ... ... ... : ... .. . ... : ... .. . ... : ... .. . ... ... : ... .. 3 ... ... : ... .. . ... ... : ... .. 6 ... ...
ROW A7 : ... .. 6 ... ... ... : ... .. . ... ... ... : ... .. . ... : ... .. . ... : ... .. . ... ... : ... .. 2 ... ... : ... .. . ... ... : ... .. . ... ...
ROW A8 : ... .. . ... ... ... : ... .. . ... ... ... : ... .. . ... : ... .. . ... : ... .. . ... ... : ... .. . ... ... : ... .. . ... ... : ... .. . ... ...
ROW A9 : ... .. . ... ... ... : ... .. . ... ... ... : ... .. . ... : ... .. . ... : ... .. . ... ... : ... .. 1 ... ... : ... .. . ... ... : ... .. . ... ...
ROW AA : ... .. 1 ... ... ... : ... .. . ... ... ... : ... .. . ... : ... .. . ... : ... .. . ... ... : ... .. . ... ... : ... .. . ... ... : ... .. 3 ... ...
ROW AB : ... .. . ... ... ... : ... .. . ... ... ... : ... .. . ... : ... .. . ... : ... .. . ... ... : ... .. . ... ... : ... .. . ... ... : ... .. . ... ...
ROW AC : ... .. . ... ... ... : ... .. . ... ... ... : ... .. . ... : ... .. . ... : ... .. . ... ... : ... .. . ... ... : ... .. . ... ... : ... .. 1 ... ...
ROW AD : ... .. . ... ... ... : ... .. . ... ... ... : ... .. . ... : ... .. . ... : ... .. . ... ... : --- .. . P82 ... : ... .. . ... ... : ... .. . ... ...
ROW AE : F#3 00 9 ... ... ... : ... .. . ... ... ... : ... .. . ... : ... .. . ... : ... .. . ... ... : F#2 01 5 P80 ... : ... .. . ... ... : F#2 01 C ... ...
ROW AF : ... .. 8 ... ... ... : ... .. . ... ... ... : ... .. . ... : ... .. . ... : ... .. . ... ... : ... .. 4 ... ... : ... .. . ... ... : ... .. A ... ...
ROW B0 : ... .. 7 ... ... ... : ... .. . ... ... ... : ... .. . ... : ... .. . ... : ... .. . ... ... : ... .. 3 ... ... : ... .. . ... ... : ... .. 6 ... ...
ROW B1 : ... .. 6 ... ... ... : ... .. . ... ... ... : ... .. . ... : ... .. . ... : ... .. . ... ... : ... .. 2 ... ... : ... .. . ... ... : ... .. . ... ...
ROW B2 : ... .. . ... ... ... : ... .. . ... ... ... : ... .. . ... : ... .. . ... : ... .. . ... ... : ... .. . ... ... : ... .. . ... ... : ... .. . ... ...
ROW B3 : ... .. . ... ... ... : ... .. . ... ... ... : ... .. . ... : ... .. . ... : ... .. . ... ... : ... .. 1 ... ... : ... .. . ... ... : ... .. . ... ...
ROW B4 : ... .. 1 ... ... ... : ... .. . ... ... ... : ... .. . ... : ... .. . ... : ... .. . ... ... : ... .. . ... ... : ... .. . ... ... : ... .. 3 ... ...
ROW B5 : ... .. . ... ... ... : ... .. . ... ... ... : ... .. . ... : ... .. . ... : ... .. . ... ... : ... .. . ... ... : ... .. . ... ... : ... .. . ... ...
ROW B6 : ... .. . ... ... ... : ... .. . ... ... ... : ... .. . ... : ... .. . ... : ... .. . ... ... : ... .. . ... ... : ... .. . ... ... : ... .. 1 ... ...
ROW B7 : ... .. . ... ... ... : ... .. . ... ... ... : ... .. . ... : ... .. . ... : ... .. . ... ... : --- .. . P82 ... : ... .. . ... ... : ... .. . ... ...
ROW B8 : G#3 00 8 ... ... ... : ... .. . ... ... ... : F-1 00 . ... : ... .. . ... : ... .. . ... ... : ... .. . ... ... : ... .. . ... ... : G#2 01 C ... ...
ROW B9 : ... .. 7 ... ... ... : ... .. . ... ... ... : ... .. . ... : ... .. . ... : ... .. . ... ... : ... .. . ... ... : ... .. . ... ... : ... .. A ... ...
ROW BA : ... .. 6 ... ... ... : ... .. . ... ... ... : ... .. . ... : ... .. . ... : ... .. . ... ... : ... .. . ... ... : ... .. . ... ... : ... .. 6 ... ...
ROW BB : ... .. 5 ... ... ... : ... .. . ... ... ... : ... .. . ... : ... .. . ... : ... .. . ... ... : ... .. . ... ... : ... .. . ... ... : ... .. . ... ...
ROW BC : ... .. . ... ... ... : ... .. . ... ... ... : ... .. . ... : ... .. . ... : ... .. . ... ... : ... .. . ... ... : ... .. . ... ... : ... .. . ... ...
ROW BD : ... .. . ... ... ... : ... .. . ... ... ... : ... .. . ... : ... .. . ... : ... .. . ... ... : ... .. . ... ... : ... .. . ... ... : ... .. . ... ...
ROW BE : ... .. . ... ... ... : ... .. . ... ... ... : ... .. . ... : ... .. . ... : ... .. . ... ... : ... .. . ... ... : ... .. . ... ... : ... .. . ... ...
ROW BF : ... .. . ... ... ... : ... .. . ... ... ... : ... .. . ... : ... .. . ... : ... .. . ... ... : ... .. . ... ... : ... .. . ... ... : ... .. . ... ...
ROW C0 : ... .. . ... ... ... : ... .. . ... ... ... : ... .. . ... : ... .. . ... : ... .. . ... ... : ... .. . ... ... : ... .. . ... ... : ... .. . ... ...
ROW C1 : ... .. . ... ... ... : ... .. . ... ... ... : ... .. . ... : ... .. . ... : ... .. . ... ... : ... .. . ... ... : ... .. . ... ... : ... .. . ... ...
ROW C2 : ... .. . ... ... ... : ... .. . ... ... ... : ... .. . ... : ... .. . ... : ... .. . ... ... : ... .. . ... ... : ... .. . ... ... : ... .. . ... ...
ROW C3 : ... .. 1 ... ... ... : ... .. . ... ... ... : ... .. . ... : ... .. . ... : ... .. . ... ... : ... .. . ... ... : ... .. . ... ... : ... .. 3 ... ...
ROW C4 : ... .. . ... ... ... : ... .. . ... ... ... : ... .. . ... : ... .. . ... : ... .. . ... ... : ... .. . ... ... : ... .. . ... ... : ... .. . ... ...
ROW C5 : ... .. . ... ... ... : ... .. . ... ... ... : ... .. . ... : ... .. . ... : ... .. . ... ... : ... .. . ... ... : ... .. . ... ... : ... .. 1 ... ...
ROW C6 : ... .. . ... ... ... : ... .. . ... ... ... : ... .. . ... : ... .. . ... : ... .. . ... ... : ... .. . ... ... : ... .. . ... ... : ... .. . ... ...
ROW C7 : ... .. . ... ... ... : ... .. . ... ... ... : ... .. . ... : ... .. . ... : ... .. . ... ... : ... .. . ... ... : ... .. . ... ... : ... .. . ... ...
ROW C8 : ... .. . ... ... ... : ... .. . ... ... ... : ... .. . ... : ... .. . ... : ... .. . ... ... : ... .. . ... ... : ... .. . ... ... : ... .. . ... ...
ROW C9 : ... .. 0 ... V00 ... : ... .. . ... ... ... : ... .. . ... : ... .. . ... : ... .. . ... ... : ... .. . ... ... : ... .. . ... ... : ... .. . ... ...
ROW CA : ... .. . ... ... ... : ... .. . ... ... ... : ... .. . ... : ... .. . ... : ... .. . ... ... : ... .. . ... ... : ... .. . ... ... : ... .. . ... ...
ROW CB : ... .. . ... ... ... : ... .. . ... ... ... : ... .. . ... : ... .. . ... : ... .. . ... ... : ... .. . ... ... : ... .. . ... ... : ... .. . ... ...
ROW CC : C#4 00 8 P80 V02 ... : ... .. . ... ... ... : --- .. . ... : ... .. . ... : ... .. . ... ... : F-2 01 5 P80 ... : ... .. . ... ... : C#3 01 C ... ...
ROW CD : ... .. 7 ... ... ... : ... .. . ... ... ... : ... .. . ... : ... .. . ... : ... .. . ... ... : ... .. 4 ... ... : ... .. . ... ... : ... .. A ... ...
ROW CE : ... .. 6 ... ... ... : ... .. . ... ... ... : ... .. . ... : ... .. . ... : ... .. . ... ... : ... .. 3 ... ... : ... .. . ... ... : ... .. 6 ... ...
ROW CF : ... .. 5 ... ... ... : ... .. . ... ... ... : ... .. . ... : ... .. . ... : ... .. . ... ... : ... .. 2 ... ... : ... .. . ... ... : ... .. . ... ...
ROW D0 : ... .. . ... ... ... : ... .. . ... ... ... : ... .. . ... : ... .. . ... : ... .. . ... ... : ... .. . ... ... : ... .. . ... ... : ... .. . ... ...
ROW D1 : ... .. . ... ... ... : ... .. . ... ... ... : ... .. . ... : ... .. . ... : ... .. . ... ... : ... .. 1 ... ... : ... .. . ... ... : ... .. 5 ... ...
ROW D2 : ... .. . ... ... ... : ... .. . ... ... ... : ... .. . ... : ... .. . ... : ... .. . ... ... : ... .. . ... ... : ... .. . ... ... : ... .. . ... ...
ROW D3 : ... .. . ... ... ... : ... .. . ... ... ... : ... .. . ... : ... .. . ... : ... .. . ... ... : ... .. . ... ... : ... .. . ... ... : ... .. . ... ...
ROW D4 : ... .. . ... ... ... : ... .. . ... ... ... : ... .. . ... : ... .. . ... : ... .. . ... ... : ... .. . ... ... : ... .. . ... ... : ... .. . ... ...
ROW D5 : ... .. . ... ... ... : ... .. . ... ... ... : ... .. . ... : ... .. . ... : ... .. . ... ... : --- .. . P7E ... : ... .. . ... ... : ... .. . ... ...
ROW D6 : ... .. . ... ... ... : ... .. . ... ... ... : ... .. . ... : ... .. . ... : ... .. . ... ... : ... .. . ... ... : ... .. . ... ... : ... .. . ... ...
ROW D7 : ... .. . ... ... ... : ... .. . ... ... ... : ... .. . ... : ... .. . ... : ... .. . ... ... : ... .. . ... ... : ... .. . ... ... : ... .. . ... ...
ROW D8 : ... .. . ... ... ... : ... .. . ... ... ... : ... .. . ... : ... .. . ... : ... .. . ... ... : ... .. . ... ... : ... .. . ... ... : ... .. . ... ...
ROW D9 : ... .. . ... ... ... : ... .. . ... ... ... : ... .. . ... : ... .. . ... : ... .. . ... ... : ... .. . ... ... : ... .. . ... ... : ... .. . ... ...
ROW DA : ... .. . ... ... ... : ... .. . ... ... ... : ... .. . ... : ... .. . ... : ... .. . ... ... : ... .. . ... ... : ... .. . ... ... : ... .. . ... ...
ROW DB : ... .. 6 ... ... ... : ... .. . ... ... ... : ... .. . ... : ... .. . ... : ... .. . ... ... : ... .. . ... ... : ... .. . ... ... : ... .. 4 ... ...
ROW DC : ... .. . ... ... ... : ... .. . ... ... ... : ... .. . ... : ... .. . ... : ... .. . ... ... : ... .. . ... ... : ... .. . ... ... : ... .. . ... ...
ROW DD : ... .. . ... ... ... : ... .. . ... ... ... : ... .. . ... : ... .. . ... : ... .. . ... ... : ... .. . ... ... : ... .. . ... ... : ... .. . ... ...
ROW DE : ... .. . ... ... ... : ... .. . ... ... ... : ... .. . ... : ... .. . ... : ... .. . ... ... : ... .. . ... ... : ... .. . ... ... : ... .. . ... ...
ROW DF : ... .. . ... ... ... : ... .. . ... ... ... : ... .. . ... : ... .. . ... : ... .. . ... ... : ... .. . ... ... : ... .. . ... ... : ... .. . ... ...
ROW E0 : ... .. . ... ... ... : ... .. . ... ... ... : B-1 00 . ... : ... .. . ... : ... .. . ... ... : ... .. . ... ... : F#3 01 7 P80 ... : ... .. . ... ...
ROW E1 : ... .. . ... ... ... : ... .. . ... ... ... : ... .. . ... : ... .. . ... : ... .. . ... ... : ... .. . ... ... : ... .. 6 ... ... : ... .. . ... ...
ROW E2 : ... .. . ... ... ... : ... .. . ... ... ... : ... .. . ... : ... .. . ... : ... .. . ... ... : ... .. . ... ... : ... .. . ... ... : ... .. . ... ...
ROW E3 : ... .. . ... ... ... : ... .. . ... ... ... : ... .. . ... : ... .. . ... : ... .. . ... ... : ... .. . ... ... : ... .. . ... ... : ... .. . ... ...
ROW E4 : ... .. . ... ... ... : ... .. . ... ... ... : ... .. . ... : ... .. . ... : ... .. . ... ... : ... .. . ... ... : ... .. 5 ... ... : ... .. . ... ...
ROW E5 : ... .. . ... ... ... : ... .. . ... ... ... : ... .. . ... : ... .. . ... : ... .. . ... ... : ... .. . ... ... : ... .. . ... ... : ... .. 3 ... ...
ROW E6 : ... .. . ... ... ... : ... .. . ... ... ... : ... .. . ... : ... .. . ... : ... .. . ... ... : ... .. . ... ... : ... .. . ... ... : ... .. . ... ...
ROW E7 : ... .. . ... ... ... : ... .. . ... ... ... : ... .. . ... : ... .. . ... : ... .. . ... ... : ... .. . ... ... : ... .. 4 ... ... : ... .. . ... ...
ROW E8 : ... .. . ... ... ... : ... .. . ... ... ... : ... .. . ... : ... .. . ... : ... .. . ... ... : ... .. . ... ... : ... .. . ... ... : ... .. . ... ...
ROW E9 : ... .. . ... ... ... : ... .. . ... ... ... : ... .. . ... : ... .. . ... : ... .. . ... ... : ... .. . ... ... : ... .. . ... ... : ... .. . ... ...
ROW EA : ... .. . ... ... ... : ... .. . ... ... ... : ... .. . ... : ... .. . ... : ... .. . ... ... : ... .. . ... ... : ... .. . ... ... : ... .. . ... ...
ROW EB : ... .. . ... ... ... : ... .. . ... ... ... : ... .. . ... : ... .. . ... : ... .. . ... ... : ... .. . ... ... : ... .. . ... ... : ... .. . ... ...
ROW EC : ... .. . ... ... ... : ... .. . ... ... ... : ... .. . ... : ... .. . ... : ... .. . ... ... : ... .. . ... ... : ... .. . ... ... : ... .. . ... ...
ROW ED : ... .. . ... ... ... : ... .. . ... ... ... : ... .. . ... : ... .. . ... : ... .. . ... ... : ... .. . ... ... : ... .. . ... ... : ... .. . ... ...
ROW EE : ... .. . ... ... ... : ... .. . ... ... ... : ... .. . ... : ... .. . ... : ... .. . ... ... : ... .. . ... ... : ... .. . ... ... : ... .. . ... ...
ROW EF : ... .. 7 ... ... ... : ... .. . ... ... ... : ... .. . ... : ... .. . ... : ... .. . ... ... : ... .. . ... ... : ... .. . ... ... : ... .. 2 ... ...
ROW F0 : ... .. . ... ... ... : ... .. . ... ... ... : ... .. . ... : ... .. . ... : ... .. . ... ... : ... .. . ... ... : ... .. . ... ... : ... .. . ... ...
ROW F1 : ... .. . ... ... ... : ... .. . ... ... ... : ... .. . ... : ... .. . ... : ... .. . ... ... : ... .. . ... ... : ... .. . ... ... : ... .. . ... ...
ROW F2 : ... .. . ... ... ... : ... .. . ... ... ... : ... .. . ... : ... .. . ... : ... .. . ... ... : ... .. . ... ... : ... .. . ... ... : ... .. . ... ...
ROW F3 : ... .. . ... ... ... : ... .. . ... ... ... : ... .. . ... : ... .. . ... : ... .. . ... ... : ... .. . ... ... : ... .. . ... ... : ... .. . ... ...
ROW F4 : ... .. . ... ... ... : ... .. . ... ... ... : --- .. . ... : ... .. . ... : ... .. . ... ... : F#2 01 5 P80 ... : D#3 01 7 ... ... : ... .. . ... ...
ROW F5 : ... .. . ... ... ... : ... .. . ... ... ... : ... .. . ... : ... .. . ... : ... .. . ... ... : ... .. 4 ... ... : ... .. 6 ... ... : ... .. . ... ...
ROW F6 : ... .. . ... ... ... : ... .. . ... ... ... : ... .. . ... : ... .. . ... : ... .. . ... ... : ... .. 3 ... ... : ... .. . ... ... : ... .. . ... ...
ROW F7 : ... .. . ... ... ... : ... .. . ... ... ... : ... .. . ... : ... .. . ... : ... .. . ... ... : ... .. 2 ... ... : ... .. . ... ... : ... .. . ... ...
ROW F8 : ... .. . ... ... ... : ... .. . ... ... ... : ... .. . ... : ... .. . ... : ... .. . ... ... : ... .. . ... ... : ... .. 5 ... ... : ... .. . ... ...
ROW F9 : ... .. 8 ... ... ... : ... .. . ... ... ... : ... .. . ... : ... .. . ... : ... .. . ... ... : ... .. 1 ... ... : ... .. . ... ... : ... .. . ... ...
ROW FA : ... .. . ... ... ... : ... .. . ... ... ... : ... .. . ... : ... .. . ... : ... .. . ... ... : ... .. . ... ... : ... .. . ... ... : ... .. . ... ...
ROW FB : ... .. . ... ... ... : ... .. . ... ... ... : ... .. . ... : ... .. . ... : ... .. . ... ... : ... .. . ... ... : ... .. 4 ... ... : ... .. . ... ...
ROW FC : ... .. . ... ... ... : ... .. . ... ... ... : ... .. . ... : ... .. . ... : ... .. . ... ... : ... .. . ... ... : ... .. . ... ... : ... .. . ... ...
ROW FD : ... .. . ... ... ... : ... .. . ... ... ... : ... .. . ... : ... .. . ... : ... .. . ... ... : --- .. . P82 ... : ... .. . ... ... : ... .. . ... ...
ROW FE : ... .. . ... ... ... : ... .. . ... ... ... : ... .. . ... : ... .. . ... : ... .. . ... ... : F#2 01 5 P80 ... : ... .. . ... ... : ... .. . ... ...
ROW FF : ... .. . ... ... ... : ... .. . ... ... ... : ... .. . ... : ... .. . ... : ... .. . ... ... : ... .. 4 ... ... : ... .. . ... ... : ... .. . ... ...

PATTERN 02
ROW 00 : ... .. . ... ... ... : ... .. . ... ... ... : ... .. . ... : ... .. . ... : ... .. . ... ... : ... .. 3 ... ... : ... .. . ... ... : ... .. . ... ...
ROW 01 : ... .. . ... ... ... : ... .. . ... ... ... : ... .. . ... : ... .. . ... : ... .. . ... ... : ... .. 2 ... ... : ... .. . ... ... : ... .. . ... ...
ROW 02 : ... .. . ... ... ... : ... .. . ... ... ... : ... .. . ... : ... .. . ... : ... .. . ... ... : ... .. . ... ... : ... .. . ... ... : ... .. . ... ...
ROW 03 : ... .. . P82 ... ... : ... .. . ... ... ... : ... .. . ... : ... .. . ... : ... .. . ... ... : ... .. 1 ... ... : ... .. . ... ... : ... .. . P83 ...
ROW 04 : ... .. . P83 ... ... : ... .. . ... ... ... : ... .. . ... : ... .. . ... : ... .. . ... ... : ... .. . ... ... : ... .. . ... ... : ... .. . P84 ...
ROW 05 : ... .. . ... ... ... : ... .. . ... ... ... : ... .. . ... : ... .. . ... : ... .. . ... ... : ... .. . ... ... : ... .. . ... ... : ... .. . ... ...
ROW 06 : ... .. . P81 ... ... : ... .. . ... ... ... : ... .. . ... : ... .. . ... : ... .. . ... ... : ... .. . ... ... : ... .. . ... ... : ... .. . P82 ...
ROW 07 : ... .. . P7F ... ... : ... .. . ... ... ... : ... .. . ... : ... .. . ... : ... .. . ... ... : --- .. . P82 ... : ... .. . ... ... : ... .. . P80 ...
ROW 08 : ... .. . P7D ... ... : ... .. . ... ... ... : F-1 00 . ... : ... .. . ... : ... .. . ... ... : ... .. . ... ... : F-3 01 7 ... ... : ... .. . P7E ...
ROW 09 : ... .. . ... ... ... : ... .. . ... ... ... : ... .. . ... : ... .. . ... : ... .. . ... ... : ... .. . ... ... : ... .. 6 ... ... : ... .. . ... ...
ROW 0A : ... .. . P7E ... ... : ... .. . ... ... ... : ... .. . ... : ... .. . ... : ... .. . ... ... : ... .. . ... ... : ... .. . ... ... : ... .. . P7F ...
ROW 0B : ... .. . P80 ... ... : ... .. . ... ... ... : ... .. . ... : ... .. . ... : ... .. . ... ... : ... .. . ... ... : ... .. . ... ... : ... .. . P81 ...
ROW 0C : ... .. . P82 ... ... : ... .. . ... ... ... : ... .. . ... : ... .. . ... : ... .. . ... ... : ... .. . ... ... : ... .. 5 ... ... : ... .. . P83 ...
ROW 0D : ... .. 9 P83 ... ... : ... .. . ... ... ... : ... .. . ... : ... .. . ... : ... .. . ... ... : ... .. . ... ... : ... .. . ... ... : ... .. . P84 ...
ROW 0E : ... .. . ... ... ... : ... .. . ... ... ... : ... .. . ... : ... .. . ... : ... .. . ... ... : ... .. . ... ... : ... .. . ... ... : ... .. . ... ...
ROW 0F : ... .. . P81 ... ... : ... .. . ... ... ... : ... .. . ... : ... .. . ... : ... .. . ... ... : ... .. . ... ... : ... .. 4 ... ... : ... .. . P82 ...
ROW 10 : ... .. . P80 ... ... : ... .. . ... ... ... : ... .. . ... : ... .. . ... : ... .. . ... ... : ... .. . ... ... : ... .. . ... ... : ... .. . P81 ...
ROW 11 : ... .. . P7D ... ... : ... .. . ... ... ... : ... .. . ... : ... .. . ... : ... .. . ... ... : ... .. . ... ... : ... .. . ... ... : ... .. . P7E ...
ROW 12 : ... .. . ... ... ... : ... .. . ... ... ... : ... .. . ... : ... .. . ... : ... .. . ... ... : ... .. . ... ... : ... .. . ... ... : ... .. . ... ...
ROW 13 : ... .. . P7E ... ... : ... .. . ... ... ... : ... .. . ... : ... .. . ... : ... .. . ... ... : ... .. . ... ... : ... .. . ... ... : ... .. . P7F ...
ROW 14 : ... .. . P80 ... ... : ... .. . ... ... ... : ... .. . ... : ... .. . ... : ... .. . ... ... : ... .. . ... ... : ... .. . ... ... : ... .. . P81 ...
ROW 15 : ... .. . P81 ... ... : ... .. . ... ... ... : ... .. . ... : ... .. . ... : ... .. . ... ... : ... .. . ... ... : ... .. . ... ... : ... .. . P82 ...
ROW 16 : ... .. . P83 ... ... : ... .. . ... ... ... : ... .. . ... : ... .. . ... : ... .. . ... ... : ... .. . ... ... : ... .. . ... ... : ... .. . P84 ...
ROW 17 : ... .. A ... ... ... : ... .. . ... ... ... : ... .. . ... : ... .. . ... : ... .. . ... ... : ... .. . ... ... : ... .. . ... ... : ... .. 3 ... ...
ROW 18 : ... .. . P81 ... ... : ... .. . ... ... ... : ... .. . ... : ... .. . ... : ... .. . ... ... : ... .. . ... ... : ... .. . ... ... : ... .. . P82 ...
ROW 19 : ... .. . P80 ... ... : ... .. . ... ... ... : ... .. . ... : ... .. . ... : ... .. . ... ... : ... .. . ... ... : ... .. . ... ... : ... .. . P81 ...
ROW 1A : ... .. . P7E ... ... : ... .. . ... ... ... : ... .. . ... : ... .. . ... : ... .. . ... ... : ... .. . ... ... : ... .. . ... ... : ... .. . P7F ...
ROW 1B : ... .. . P7D ... ... : ... .. . ... ... ... : ... .. . ... : ... .. . ... : ... .. . ... ... : ... .. . ... ... : ... .. . ... ... : ... .. . P7E ...
ROW 1C : ... .. 9 ... ... ... : ... .. . ... ... ... : --- .. . ... : ... .. . ... : ... .. . ... ... : F-2 01 5 P80 ... : G#3 01 7 ... ... : ... .. . ... ...
ROW 1D : ... .. . P80 ... ... : ... .. . ... ... ... : ... .. . ... : ... .. . ... : ... .. . ... ... : ... .. 4 ... ... : ... .. 6 ... ... : ... .. . P81 ...
ROW 1E : ... .. . P81 ... ... : ... .. . ... ... ... : ... .. . ... : ... .. . ... : ... .. . ... ... : ... .. 3 ... ... : ... .. . ... ... : ... .. . P82 ...
ROW 1F : ... .. . P83 ... ... : ... .. . ... ... ... : ... .. . ... : ... .. . ... : ... .. . ... ... : ... .. 2 ... ... : ... .. . ... ... : ... .. . P84 ...
ROW 20 : ... .. . ... ... ... : ... .. . ... ... ... : ... .. . ... : ... .. . ... : ... .. . ... ... : ... .. . ... ... : ... .. 5 ... ... : ... .. . ... ...
ROW 21 : ... .. 8 P82 ... ... : ... .. . ... ... ... : ... .. . ... : ... .. . ... : ... .. . ... ... : ... .. 1 ... ... : ... .. . ... ... : ... .. . P83 ...
ROW 22 : ... .. . P80 ... ... : ... .. . ... ... ... : ... .. . ... : ... .. . ... : ... .. . ... ... : ... .. . ... ... : ... .. . ... ... : ... .. . P81 ...
ROW 23 : ... .. . P7E ... ... : ... .. . ... ... ... : ... .. . ... : ... .. . ... : ... .. . ... ... : ... .. . ... ... : ... .. 4 ... ... : ... .. . P7F ...
ROW 24 : ... .. . P7D ... ... : ... .. . ... ... ... : ... .. . ... : ... .. . ... : ... .. . ... ... : ... .. . ... ... : ... .. . ... ... : ... .. . P7E ...
ROW 25 : ... .. . ... ... ... : ... .. . ... ... ... : ... .. . ... : ... .. . ... : ... .. . ... ... : --- .. . P7E ... : ... .. . ... ... : ... .. . ... ...
ROW 26 : ... .. . P7F ... ... : ... .. . ... ... ... : ... .. . ... : ... .. . ... : ... .. . ... ... : F-2 01 5 P80 ... : ... .. . ... ... : ... .. . P80 ...
ROW 27 : ... .. . P81 ... ... : ... .. . ... ... ... : ... .. . ... : ... .. . ... : ... .. . ... ... : ... .. 4 ... ... : ... .. . ... ... : ... .. . P82 ...
ROW 28 : ... .. . P83 ... ... : ... .. . ... ... ... : ... .. . ... : ... .. . ... : ... .. . ... ... : ... .. 3 ... ... : ... .. . ... ... : ... .. . P84 ...
ROW 29 : ... .. . ... ... ... : ... .. . ... ... ... : ... .. . ... : ... .. . ... : ... .. . ... ... : ... .. 2 ... ... : ... .. . ... ... : ... .. . ... ...
ROW 2A : ... .. . P82 ... ... : ... .. . ... ... ... : ... .. . ... : ... .. . ... : ... .. . ... ... : ... .. . ... ... : ... .. . ... ... : ... .. . P83 ...
ROW 2B : ... .. . P80 ... ... : ... .. . ... ... ... : ... .. . ... : ... .. . ... : ... .. . ... ... : ... .. 1 ... ... : ... .. . ... ... : ... .. . P81 ...
ROW 2C : ... .. . P7E ... ... : ... .. . ... ... ... : ... .. . ... : ... .. . ... : ... .. . ... ... : ... .. . ... ... : ... .. . ... ... : ... .. . P7F ...
ROW 2D : ... .. . P7D ... ... : ... .. . ... ... ... : ... .. . ... : ... .. . ... : ... .. . ... ... : ... .. . ... ... : ... .. . ... ... : ... .. . P7E ...
ROW 2E : ... .. . ... ... ... : ... .. . ... ... ... : ... .. . ... : ... .. . ... : ... .. . ... ... : ... .. . ... ... : ... .. . ... ... : ... .. . ... ...
ROW 2F : ... .. . P7F ... ... : ... .. . ... ... ... : ... .. . ... : ... .. . ... : ... .. . ... ... : --- .. . P7E ... : ... .. . ... ... : ... .. . P80 ...
ROW 30 : G#2 00 C P80 ... ... : F-3 00 C P80 ... ... : C#2 00 . ... : ... .. . ... : ... .. . ... ... : ... .. . ... ... : ... .. . ... ... : ... .. . P81 ...
ROW 31 : ... .. B ... ... ... : ... .. B ... ... ... : ... .. . ... : ... .. . ... : ... .. . ... ... : ... .. . ... ... : ... .. . ... ... : ... .. . P84 ...
ROW 32 : ... .. A ... ... ... : ... .. A ... ... ... : ... .. . ... : ... .. . ... : ... .. . ... ... : ... .. . ... ... : ... .. . ... ... : ... .. . ... ...
ROW 33 : ... .. 8 ... ... ... : ... .. 8 ... ... ... : ... .. . ... : ... .. . ... : ... .. . ... ... : ... .. . ... ... : ... .. . ... ... : ... .. . P83 ...
ROW 34 : ... .. . ... ... ... : ... .. . ... ... ... : ... .. . ... : ... .. . ... : ... .. . ... ... : ... .. . ... ... : ... .. . ... ... : ... .. . P81 ...
ROW 35 : ... .. . ... ... ... : ... .. . ... ... ... : ... .. . ... : ... .. . ... : ... .. . ... ... : ... .. . ... ... : ... .. . ... ... : ... .. . P80 ...
ROW 36 : ... .. . ... ... ... : ... .. . ... ... ... : ... .. . ... : ... .. . ... : ... .. . ... ... : ... .. . ... ... : ... .. . ... ... : ... .. . P7E ...
ROW 37 : ... .. . ... ... ... : ... .. . ... ... ... : ... .. . ... : ... .. . ... : ... .. . ... ... : ... .. . ... ... : ... .. . ... ... : ... .. . ... ...
ROW 38 : ... .. . ... ... ... : ... .. . ... ... ... : ... .. . ... : ... .. . ... : ... .. . ... ... : ... .. . ... ... : ... .. . ... ... : ... .. . P80 ...
ROW 39 : ... .. . ... ... ... : ... .. . ... ... ... : ... .. . ... : ... .. . ... : ... .. . ... ... : ... .. . ... ... : ... .. . ... ... : ... .. . P81 ...
ROW 3A : ... .. . ... ... ... : ... .. . ... ... ... : ... .. . ... : ... .. . ... : ... .. . ... ... : ... .. . ... ... : ... .. . ... ... : ... .. 4 P83 ...
ROW 3B : ... .. . ... ... ... : ... .. . ... ... ... : ... .. . ... : ... .. . ... : ... .. . ... ... : ... .. . ... ... : ... .. . ... ... : ... .. . P84 ...
ROW 3C : ... .. . ... ... ... : ... .. . ... ... ... : ... .. . ... : ... .. . ... : ... .. . ... ... : ... .. . ... ... : ... .. . ... ... : ... .. . ... ...
ROW 3D : ... .. . ... ... ... : ... .. . ... ... ... : ... .. . ... : ... .. . ... : ... .. . ... ... : ... .. . ... ... : ... .. . ... ... : ... .. . P81 ...
ROW 3E : ... .. . ... ... ... : ... .. . ... ... ... : ... .. . ... : ... .. . ... : ... .. . ... ... : ... .. . ... ... : ... .. . ... ... : ... .. . P80 ...
ROW 3F : ... .. . ... ... ... : ... .. . ... ... ... : ... .. . ... : ... .. . ... : ... .. . ... ... : ... .. . ... ... : ... .. . ... ... : ... .. . P7E ...
ROW 40 : ... .. 1 ... ... ... : ... .. 1 ... ... ... : ... .. . ... : ... .. . ... : ... .. . ... ... : ... .. . ... ... : ... .. . ... ... : ... .. . ... ...
ROW 41 : ... .. . ... ... ... : ... .. . ... ... ... : ... .. . ... : ... .. . ... : ... .. . ... ... : ... .. . ... ... : ... .. . ... ... : ... .. . P7F ...
ROW 42 : ... .. . ... ... ... : ... .. . ... ... ... : ... .. . ... : ... .. . ... : ... .. . ... ... : ... .. . ... ... : ... .. . ... ... : ... .. . P81 ...
ROW 43 : ... .. . ... ... ... : ... .. . ... ... ... : ... .. . ... : ... .. . ... : ... .. . ... ... : ... .. . ... ... : ... .. . ... ... : ... .. . P83 ...
ROW 44 : F-2 00 C ... ... ... : C#3 00 C ... ... ... : G#1 00 . ... : ... .. . ... : ... .. . ... ... : ... .. . ... ... : ... .. . ... ... : ... .. . P84 ...
ROW 45 : ... .. B ... ... ... : ... .. B ... ... ... : ... .. . ... : ... .. . ... : ... .. . ... ... : ... .. . ... ... : ... .. . ... ... : ... .. . ... ...
ROW 46 : ... .. A ... ... ... : ... .. A ... ... ... : ... .. . ... : ... .. . ... : ... .. . ... ... : ... .. . ... ... : ... .. . ... ... : ... .. . P82 ...
ROW 47 : ... .. 8 ... ... ... : ... .. 8 ... ... ... : ... .. . ... : ... .. . ... : ... .. . ... ... : ... .. . ... ... : ... .. . ... ... : ... .. . P80 ...
ROW 48 : ... .. . ... ... ... : ... .. . ... ... ... : ... .. . ... : ... .. . ... : ... .. . ... ... : ... .. . ... ... : ... .. . ... ... : ... .. . P7E ...
ROW 49 : ... .. . ... ... ... : ... .. . ... ... ... : ... .. . ... : ... .. . ... : ... .. . ... ... : ... .. . ... ... : ... .. . ... ... : ... .. . ... ...
ROW 4A : ... .. . ... ... ... : ... .. . ... ... ... : ... .. . ... : ... .. . ... : ... .. . ... ... : ... .. . ... ... : ... .. . ... ... : ... .. . P7F ...
ROW 4B : ... .. . ... ... ... : ... .. . ... ... ... : ... .. . ... : ... .. . ... : ... .. . ... ... : ... .. . ... ... : ... .. . ... ... : ... .. . P81 ...
ROW 4C : ... .. . ... ... ... : ... .. . ... ... ... : ... .. . ... : ... .. . ... : ... .. . ... ... : ... .. . ... ... : ... .. . ... ... : ... .. . P83 ...
ROW 4D : ... .. . ... ... ... : ... .. . ... ... ... : ... .. . ... : ... .. . ... : ... .. . ... ... : ... .. . ... ... : ... .. . ... ... : ... .. . P84 ...
ROW 4E : ... .. . ... ... ... : ... .. . ... ... ... : ... .. . ... : ... .. . ... : ... .. . ... ... : ... .. . ... ... : ... .. . ... ... : ... .. . ... ...
ROW 4F : ... .. 1 ... ... ... : ... .. 1 ... ... ... : ... .. . ... : ... .. . ... : ... .. . ... ... : ... .. . ... ... : ... .. . ... ... : ... .. . P82 ...
ROW 50 : ... .. . ... ... ... : ... .. . ... ... ... : ... .. . ... : ... .. . ... : ... .. . ... ... : ... .. . ... ... : ... .. . ... ... : ... .. . P81 ...
ROW 51 : ... .. . ... ... ... : ... .. . ... ... ... : ... .. . ... : ... .. . ... : ... .. . ... ... : ... .. . ... ... : ... .. . ... ... : ... .. . P7E ...
ROW 52 : ... .. . ... ... ... : ... .. . ... ... ... : ... .. . ... : ... .. . ... : ... .. . ... ... : ... .. . ... ... : ... .. . ... ... : ... .. . ... ...
ROW 53 : ... .. . ... ... ... : ... .. . ... ... ... : ... .. . ... : ... .. . ... : ... .. . ... ... : ... .. . ... ... : ... .. . ... ... : ... .. . P7F ...
ROW 54 : ... .. . ... ... ... : ... .. . ... ... ... : ... .. . ... : ... .. . ... : ... .. . ... ... : ... .. . ... ... : ... .. . ... ... : ... .. . P81 ...
ROW 55 : ... .. 0 ... V00 ... : ... .. 0 ... ... ... : ... .. . ... : ... .. . ... : ... .. . ... ... : ... .. . ... ... : ... .. . ... ... : ... .. . P82 ...
ROW 56 : ... .. . ... ... ... : ... .. . ... ... ... : ... .. . ... : ... .. . ... : ... .. . ... ... : ... .. . ... ... : ... .. . ... ... : ... .. . P84 ...
ROW 57 : ... .. . ... ... ... : ... .. . ... ... ... : ... .. . ... : ... .. . ... : ... .. . ... ... : ... .. . ... ... : ... .. . ... ... : ... .. . ... ...
ROW 58 : G#2 00 C P80 V02 ... : F-3 00 C P80 ... ... : C#2 00 . ... : ... .. . ... : ... .. . ... ... : ... .. . ... ... : ... .. . ... ... : ... .. 5 P82 ...
ROW 59 : ... .. B ... ... ... : ... .. B ... ... ... : ... .. . ... : ... .. . ... : ... .. . ... ... : ... .. . ... ... : ... .. . ... ... : ... .. . P81 ...
ROW 5A : ... .. A ... ... ... : ... .. A ... ... ... : ... .. . ... : ... .. . ... : ... .. . ... ... : ... .. . ... ... : ... .. . ... ... : ... .. . P7F ...
ROW 5B : ... .. 8 ... ... ... : ... .. 8 ... ... ... : ... .. . ... : ... .. . ... : ... .. . ... ... : ... .. . ... ... : ... .. . ... ... : ... .. . P7E ...
ROW 5C : ... .. . ... ... ... : ... .. . ... ... ... : ... .. . ... : ... .. . ... : ... .. . ... ... : ... .. . ... ... : ... .. . ... ... : ... .. . ... ...
ROW 5D : ... .. . ... ... ... : ... .. . ... ... ... : ... .. . ... : ... .. . ... : ... .. . ... ... : ... .. . ... ... : ... .. . ... ... : ... .. . P81 ...
ROW 5E : ... .. . ... ... ... : ... .. . ... ... ... : ... .. . ... : ... .. . ... : ... .. . ... ... : ... .. . ... ... : ... .. . ... ... : ... .. . P82 ...
ROW 5F : ... .. . ... ... ... : ... .. . ... ... ... : ... .. . ... : ... .. . ... : ... .. . ... ... : ... .. . ... ... : ... .. . ... ... : ... .. . P84 ...
ROW 60 : ... .. . ... ... ... : ... .. . ... ... ... : ... .. . ... : ... .. . ... : ... .. . ... ... : ... .. . ... ... : ... .. . ... ... : ... .. . ... ...
ROW 61 : ... .. . ... ... ... : ... .. . ... ... ... : ... .. . ... : ... .. . ... : ... .. . ... ... : ... .. . ... ... : ... .. . ... ... : ... .. . P83 ...
ROW 62 : ... .. . ... ... ... : ... .. . ... ... ... : ... .. . ... : ... .. . ... : ... .. . ... ... : ... .. . ... ... : ... .. . ... ... : ... .. . P81 ...
ROW 63 : ... .. . ... ... ... : ... .. . ... ... ... : ... .. . ... : ... .. . ... : ... .. . ... ... : ... .. . ... ... : ... .. . ... ... : ... .. . P7F ...
ROW 64 : ... .. . ... ... ... : ... .. . ... ... ... : ... .. . ... : ... .. . ... : ... .. . ... ... : ... .. . ... ... : ... .. . ... ... : ... .. . P7E ...
ROW 65 : ... .. . ... ... ... : ... .. . ... ... ... : ... .. . ... : ... .. . ... : ... .. . ... ... : ... .. . ... ... : ... .. . ... ... : ... .. . ... ...
ROW 66 : ... .. . ... ... ... : ... .. . ... ... ... : ... .. . ... : ... .. . ... : ... .. . ... ... : ... .. . ... ... : ... .. . ... ... : ... .. . P80 ...
ROW 67 : ... .. . ... ... ... : ... .. . ... ... ... : ... .. . ... : ... .. . ... : ... .. . ... ... : ... .. . ... ... : ... .. . ... ... : ... .. . P82 ...
ROW 68 : ... .. 1 ... ... ... : ... .. . ... ... ... : ... .. . ... : ... .. . ... : ... .. . ... ... : ... .. . ... ... : ... .. . ... ... : ... .. . P84 ...
ROW 69 : ... .. . ... ... ... : ... .. . ... ... ... : ... .. . ... : ... .. . ... : ... .. . ... ... : ... .. . ... ... : ... .. . ... ... : ... .. . ... ...
ROW 6A : ... .. . ... ... ... : ... .. . ... ... ... : ... .. . ... : ... .. . ... : ... .. . ... ... : ... .. . ... ... : ... .. . ... ... : ... .. . P83 ...
ROW 6B : ... .. . ... ... ... : ... .. . ... ... ... : ... .. . ... : ... .. . ... : ... .. . ... ... : ... .. . ... ... : ... .. . ... ... : ... .. . P81 ...
ROW 6C : F-3 00 A ... ... ... : ... .. . ... ... ... : --- .. . ... : ... .. . ... : ... .. . ... ... : ... .. . ... ... : --- .. . P82 ... : ... .. . P7F ...
ROW 6D : ... .. 8 ... ... ... : ... .. 1 ... ... ... : ... .. . ... : ... .. . ... : ... .. . ... ... : ... .. . ... ... : ... .. . ... ... : ... .. 2 P7E ...
ROW 6E : ... .. . ... ... ... : ... .. . ... ... ... : ... .. . ... : ... .. . ... : ... .. . ... ... : ... .. . ... ... : ... .. . ... ... : ... .. . ... ...
ROW 6F : ... .. . ... ... ... : ... .. . ... ... ... : ... .. . ... : ... .. . ... : ... .. . ... ... : ... .. . ... ... : ... .. . ... ... : ... .. 1 P80 ...
ROW 70 : ... .. 6 ... ... ... : ... .. . ... ... ... : ... .. . ... : ... .. . ... : ... .. . ... ... : ... .. . ... ... : ... .. . ... ... : ... .. . P81 ...
ROW 71 : ... .. 5 ... ... ... : ... .. . ... ... ... : ... .. . ... : ... .. . ... : ... .. . ... ... : ... .. . ... ... : ... .. . ... ... : ... .. . P84 ...
ROW 72 : ... .. 4 ... ... ... : ... .. . ... ... ... : ... .. . ... : ... .. . ... : ... .. . ... ... : ... .. . ... ... : ... .. . ... ... : ... .. . ... ...
ROW 73 : F#3 00 A ... ... ... : ... .. 0 ... ... ... : ... .. . ... : ... .. . ... : ... .. . ... ... : ... .. . ... ... : ... .. . ... ... : ... .. . P83 ...
ROW 74 : ... .. 8 ... ... ... : ... .. . ... ... ... : ... .. . ... : ... .. . ... : ... .. . ... ... : ... .. . ... ... : ... .. . ... ... : ... .. . P81 ...
ROW 75 : ... .. . ... ... ... : ... .. . ... ... ... : ... .. . ... : ... .. . ... : ... .. . ... ... : ... .. . ... ... : ... .. . ... ... : ... .. . P80 ...
ROW 76 : ... .. . ... ... ... : ... .. . ... ... ... : ... .. . ... : ... .. . ... : ... .. . ... ... : ... .. . ... ... : ... .. . ... ... : ... .. 0 P7E ...
ROW 77 : ... .. 6 ... ... ... : ... .. . ... ... ... : ... .. . ... : ... .. . ... : ... .. . ... ... : ... .. . ... ... : ... .. . ... ... : ... .. . ... ...
ROW 78 : ... .. 5 ... ... ... : ... .. . ... ... ... : ... .. . ... : ... .. . ... : ... .. . ... ... : ... .. . ... ... : ... .. . ... ... : ... .. . P80 ...
ROW 79 : G#3 00 A ... ... ... : ... .. . ... ... ... : ... .. . ... : ... .. . ... : ... .. . ... ... : ... .. . ... ... : ... .. . ... ... : ... .. . P81 ...
ROW 7A : ... .. 8 ... ... ... : ... .. . ... ... ... : ... .. . ... : ... .. . ... : ... .. . ... ... : ... .. . ... ... : ... .. . ... ... : ... .. . P83 ...
ROW 7B : ... .. . ... ... ... : ... .. . ... ... ... : ... .. . ... : ... .. . ... : ... .. . ... ... : ... .. . ... ... : ... .. . ... ... : ... .. . P84 ...
ROW 7C : ... .. . ... ... ... : ... .. . ... ... ... : ... .. . ... : ... .. . ... : ... .. . ... ... : ... .. . ... ... : ... .. . ... ... : ... .. . ... ...
ROW 7D : ... .. 6 ... ... ... : ... .. . ... ... ... : ... .. . ... : ... .. . ... : ... .. . ... ... : ... .. . ... ... : ... .. . ... ... : ... .. . P81 ...
ROW 7E : ... .. 5 ... ... ... : ... .. . ... ... ... : ... .. . ... : ... .. . ... : ... .. . ... ... : ... .. . ... ... : ... .. . ... ... : ... .. . P80 ...
ROW 7F : ... .. 4 ... ... ... : ... .. . ... ... ... : ... .. . ... : ... .. . ... : ... .. . ... ... : ... .. . ... ... : ... .. . ... ... : ... .. . P7E ...
ROW 80 : ... .. 0 ... V00 ... : A-3 00 C P80 V02 ... : D-2 00 . ... : ... .. . ... : ... .. . ... ... : ... .. . ... ... : F#3 01 6 P80 ... : D-1 01 C P81 ...
ROW 81 : ... .. . ... ... ... : ... .. B ... ... ... : ... .. . ... : ... .. . ... : ... .. . ... ... : ... .. . ... ... : ... .. 5 ... ... : ... .. A ... ...
ROW 82 : ... .. . ... ... ... : ... .. A ... ... ... : ... .. . ... : ... .. . ... : ... .. . ... ... : ... .. . ... ... : ... .. . ... ... : ... .. 6 ... ...
ROW 83 : ... .. . ... ... ... : ... .. 8 ... ... ... : ... .. . ... : ... .. . ... : ... .. . ... ... : ... .. . ... ... : ... .. 4 ... ... : ... .. . ... ...
ROW 84 : ... .. . ... ... ... : ... .. . ... ... ... : ... .. . ... : ... .. . ... : ... .. . ... ... : ... .. . ... ... : ... .. . ... ... : ... .. . ... ...
ROW 85 : ... .. . ... ... ... : ... .. . ... ... ... : ... .. . ... : ... .. . ... : ... .. . ... ... : ... .. . ... ... : ... .. . ... ... : ... .. . ... ...
ROW 86 : ... .. . ... ... ... : ... .. . ... ... ... : ... .. . ... : ... .. . ... : ... .. . ... ... : ... .. . ... ... : ... .. . ... ... : ... .. . ... ...
ROW 87 : ... .. . ... ... ... : ... .. . ... ... ... : ... .. . ... : ... .. . ... : ... .. . ... ... : ... .. . ... ... : ... .. 3 ... ... : ... .. . ... ...
ROW 88 : ... .. . ... ... ... : ... .. . ... ... ... : ... .. . ... : ... .. . ... : ... .. . ... ... : ... .. . ... ... : ... .. 2 ... ... : ... .. . ... ...
ROW 89 : ... .. . ... ... ... : ... .. . ... ... ... : ... .. . ... : ... .. . ... : ... .. . ... ... : ... .. . ... ... : ... .. . ... ... : ... .. . ... ...
ROW 8A : A-3 00 7 P81 V02 ... : ... .. . ... ... ... : ... .. . ... : ... .. . ... : ... .. . ... ... : ... .. . ... ... : ... .. . ... ... : ... .. . ... ...
ROW 8B : ... .. 6 ... ... ... : ... .. . ... ... ... : ... .. . ... : ... .. . ... : ... .. . ... ... : ... .. . ... ... : ... .. . ... ... : ... .. . ... ...
ROW 8C : ... .. . ... ... ... : ... .. . ... ... ... : ... .. . ... : ... .. . ... : ... .. . ... ... : ... .. . ... ... : ... .. . ... ... : ... .. . ... ...
ROW 8D : ... .. 4 ... ... ... : ... .. . ... ... ... : ... .. . ... : ... .. . ... : ... .. . ... ... : ... .. . ... ... : ... .. . ... ... : ... .. . ... ...
ROW 8E : ... .. . ... ... ... : ... .. . ... ... ... : ... .. . ... : ... .. . ... : ... .. . ... ... : ... .. . ... ... : ... .. 1 ... ... : ... .. . ... ...
ROW 8F : ... .. . ... ... ... : ... .. . ... ... ... : ... .. . ... : ... .. . ... : ... .. . ... ... : ... .. . ... ... : ... .. . ... ... : ... .. . ... ...
ROW 90 : ... .. . ... ... ... : ... .. . ... ... ... : ... .. . ... : ... .. . ... : ... .. . ... ... : ... .. . ... ... : ... .. . ... ... : ... .. . ... ...
ROW 91 : ... .. . ... ... ... : ... .. . ... ... ... : ... .. . ... : ... .. . ... : ... .. . ... ... : ... .. . ... ... : ... .. . ... ... : ... .. . ... ...
ROW 92 : ... .. . ... ... ... : ... .. . ... ... ... : ... .. . ... : ... .. . ... : ... .. . ... ... : ... .. . ... ... : ... .. . ... ... : ... .. . ... ...
ROW 93 : ... .. . ... ... ... : ... .. . ... ... ... : ... .. . ... : ... .. . ... : ... .. . ... ... : ... .. . ... ... : ... .. . ... ... : ... .. . ... ...
ROW 94 : ... .. . ... ... ... : ... .. . ... ... ... : --- .. . ... : ... .. . ... : ... .. . ... ... : F#2 01 5 P80 ... : ... .. . ... ... : ... .. . ... ...
ROW 95 : ... .. . ... ... ... : ... .. . ... ... ... : ... .. . ... : ... .. . ... : ... .. . ... ... : ... .. 4 ... ... : ... .. . ... ... : ... .. 3 ... ...
ROW 96 : ... .. . ... ... ... : ... .. . ... ... ... : ... .. . ... : ... .. . ... : ... .. . ... ... : ... .. 3 ... ... : ... .. . ... ... : ... .. . ... ...
ROW 97 : ... .. . ... ... ... : ... .. . ... ... ... : ... .. . ... : ... .. . ... : ... .. . ... ... : ... .. 2 ... ... : ... .. . ... ... : ... .. 1 ... ...
ROW 98 : ... .. . ... ... ... : ... .. . ... ... ... : ... .. . ... : ... .. . ... : ... .. . ... ... : ... .. . ... ... : ... .. . ... ... : ... .. . ... ...
ROW 99 : ... .. . ... ... ... : ... .. . ... ... ... : ... .. . ... : ... .. . ... : ... .. . ... ... : ... .. 1 ... ... : ... .. . ... ... : ... .. . ... ...
ROW 9A : ... .. . ... ... ... : ... .. . ... ... ... : ... .. . ... : ... .. . ... : ... .. . ... ... : ... .. . ... ... : ... .. . ... ... : ... .. . ... ...
ROW 9B : ... .. . ... ... ... : ... .. . ... ... ... : ... .. . ... : ... .. . ... : ... .. . ... ... : ... .. . ... ... : ... .. . ... ... : ... .. . ... ...
ROW 9C : ... .. . ... ... ... : ... .. . ... ... ... : ... .. . ... : ... .. . ... : ... .. . ... ... : ... .. . ... ... : ... .. . ... ... : ... .. . ... ...
ROW 9D : ... .. . ... ... ... : ... .. . ... ... ... : ... .. . ... : ... .. . ... : ... .. . ... ... : --- .. . P82 ... : ... .. . ... ... : ... .. . ... ...
ROW 9E : ... .. . ... ... ... : ... .. . P81 ... ... : ... .. . ... : ... .. . ... : ... .. . ... ... : F#2 01 5 P80 ... : ... .. . ... ... : ... .. 0 ... ...
ROW 9F : ... .. . ... ... ... : ... .. . P82 ... ... : ... .. . ... : ... .. . ... : ... .. . ... ... : ... .. 4 ... ... : ... .. . ... ... : ... .. . ... ...
ROW A0 : ... .. . ... ... ... : ... .. . P83 ... ... : ... .. . ... : ... .. . ... : ... .. . ... ... : ... .. 3 ... ... : ... .. . ... ... : ... .. . ... ...
ROW A1 : ... .. . ... ... ... : ... .. . ... ... ... : ... .. . ... : ... .. . ... : ... .. . ... ... : ... .. 2 ... ... : ... .. . ... ... : ... .. . ... ...
ROW A2 : ... .. . ... ... ... : ... .. . ... ... ... : ... .. . ... : ... .. . ... : ... .. . ... ... : ... .. . ... ... : ... .. . ... ... : ... .. . ... ...
ROW A3 : ... .. . ... ... ... : ... .. . P82 ... ... : ... .. . ... : ... .. . ... : ... .. . ... ... : ... .. 1 ... ... : ... .. . ... ... : ... .. . ... ...
ROW A4 : ... .. . ... ... ... : ... .. . P81 ... ... : ... .. . ... : ... .. . ... : ... .. . ... ... : ... .. . ... ... : ... .. . ... ... : ... .. . ... ...
ROW A5 : ... .. . ... ... ... : ... .. . P80 ... ... : ... .. . ... : ... .. . ... : ... .. . ... ... : ... .. . ... ... : ... .. . ... ... : ... .. . ... ...
ROW A6 : ... .. . ... ... ... : ... .. . P7F ... ... : ... .. . ... : ... .. . ... : ... .. . ... ... : ... .. . ... ... : ... .. . ... ... : ... .. . ... ...
ROW A7 : ... .. . ... ... ... : ... .. . P7E ... ... : ... .. . ... : ... .. . ... : ... .. . ... ... : --- .. . P82 ... : ... .. . ... ... : ... .. . ... ...
ROW A8 : ... .. . P82 ... ... : ... .. . P7D ... ... : C#2 00 . ... : ... .. . ... : ... .. . ... ... : ... .. . ... ... : E-3 01 6 ... ... : ... .. . ... ...
ROW A9 : ... .. . P83 ... ... : ... .. 1 ... ... ... : ... .. . ... : ... .. . ... : ... .. . ... ... : ... .. . ... ... : ... .. 5 ... ... : ... .. . ... ...
ROW AA : ... .. . P84 ... ... : ... .. . ... ... ... : ... .. . ... : ... .. . ... : ... .. . ... ... : ... .. . ... ... : ... .. . ... ... : ... .. . ... ...
ROW AB : ... .. . ... ... ... : ... .. . P7E ... ... : ... .. . ... : ... .. . ... : ... .. . ... ... : ... .. . ... ... : ... .. 4 ... ... : ... .. . ... ...
ROW AC : ... .. . ... ... ... : ... .. . P7F ... ... : ... .. . ... : ... .. . ... : ... .. . ... ... : ... .. . ... ... : ... .. . ... ... : ... .. . ... ...
ROW AD : ... .. . P83 ... ... : ... .. . P80 ... ... : ... .. . ... : ... .. . ... : ... .. . ... ... : ... .. . ... ... : ... .. . ... ... : ... .. . ... ...
ROW AE : ... .. . P82 ... ... : ... .. . P81 ... ... : ... .. . ... : ... .. . ... : ... .. . ... ... : ... .. . ... ... : ... .. . ... ... : ... .. . ... ...
ROW AF : ... .. . P81 ... ... : ... .. 0 ... V00 ... : ... .. . ... : ... .. . ... : ... .. . ... ... : ... .. . ... ... : ... .. 3 ... ... : ... .. . ... ...
ROW B0 : ... .. . P80 ... ... : ... .. . ... ... ... : ... .. . ... : ... .. . ... : ... .. . ... ... : ... .. . ... ... : ... .. 2 ... ... : ... .. . ... ...
ROW B1 : ... .. . P7F ... ... : ... .. . ... ... ... : ... .. . ... : ... .. . ... : ... .. . ... ... : ... .. . ... ... : ... .. . ... ... : ... .. . ... ...
ROW B2 : ... .. . P7E ... ... : ... .. . ... ... ... : ... .. . ... : ... .. . ... : ... .. . ... ... : ... .. . ... ... : ... .. . ... ... : ... .. . ... ...
ROW B3 : ... .. 1 ... ... ... : ... .. . ... ... ... : ... .. . ... : ... .. . ... : ... .. . ... ... : ... .. . ... ... : ... .. . ... ... : ... .. . ... ...
ROW B4 : ... .. . ... ... ... : ... .. . ... ... ... : ... .. . ... : ... .. . ... : ... .. . ... ... : ... .. . ... ... : ... .. . ... ... : ... .. . ... ...
ROW B5 : ... .. . P7F ... ... : ... .. . ... ... ... : ... .. . ... : ... .. . ... : ... .. . ... ... : ... .. . ... ... : ... .. . ... ... : ... .. . ... ...
ROW B6 : ... .. . P80 ... ... : ... .. . ... ... ... : ... .. . ... : ... .. . ... : ... .. . ... ... : ... .. . ... ... : ... .. 1 ... ... : ... .. . ... ...
ROW B7 : ... .. . P81 ... ... : ... .. . ... ... ... : ... .. . ... : ... .. . ... : ... .. . ... ... : ... .. . ... ... : ... .. . ... ... : ... .. . ... ...
ROW B8 : ... .. . P82 ... ... : ... .. . ... ... ... : ... .. . ... : ... .. . ... : ... .. . ... ... : ... .. . ... ... : ... .. . ... ... : ... .. . ... ...
ROW B9 : ... .. 0 ... V00 ... : ... .. . ... ... ... : ... .. . ... : ... .. . ... : ... .. . ... ... : ... .. . ... ... : ... .. . ... ... : ... .. . ... ...
ROW BA : ... .. . ... ... ... : ... .. . ... ... ... : ... .. . ... : ... .. . ... : ... .. . ... ... : ... .. . ... ... : ... .. . ... ... : ... .. . ... ...
ROW BB : ... .. . ... ... ... : ... .. . ... ... ... : ... .. . ... : ... .. . ... : ... .. . ... ... : ... .. . ... ... : ... .. . ... ... : ... .. . ... ...
ROW BC : ... .. . ... ... ... : A-3 00 C P80 V02 ... : --- .. . ... : ... .. . ... : ... .. . ... ... : E-2 01 5 P80 ... : ... .. . ... ... : ... .. . ... ...
ROW BD : ... .. . ... ... ... : ... .. B ... ... ... : ... .. . ... : ... .. . ... : ... .. . ... ... : ... .. 4 ... ... : ... .. . ... ... : ... .. . ... ...
ROW BE : ... .. . ... ... ... : ... .. A ... ... ... : ... .. . ... : ... .. . ... : ... .. . ... ... : ... .. 3 ... ... : ... .. . ... ... : ... .. . ... ...
ROW BF : ... .. . ... ... ... : ... .. 8 ... ... ... : ... .. . ... : ... .. . ... : ... .. . ... ... : ... .. 2 ... ... : ... .. . ... ... : ... .. . ... ...
ROW C0 : ... .. . ... ... ... : ... .. . ... ... ... : ... .. . ... : ... .. . ... : ... .. . ... ... : ... .. . ... ... : ... .. . ... ... : ... .. . ... ...
ROW C1 : ... .. . ... ... ... : ... .. . ... ... ... : ... .. . ... : ... .. . ... : ... .. . ... ... : ... .. 1 ... ... : ... .. . ... ... : ... .. . ... ...
ROW C2 : ... .. . ... ... ... : ... .. . ... ... ... : ... .. . ... : ... .. . ... : ... .. . ... ... : ... .. . ... ... : ... .. . ... ... : ... .. . ... ...
ROW C3 : ... .. . ... ... ... : ... .. . ... ... ... : ... .. . ... : ... .. . ... : ... .. . ... ... : ... .. . ... ... : ... .. . ... ... : ... .. . ... ...
ROW C4 : ... .. . ... ... ... : ... .. . ... ... ... : ... .. . ... : ... .. . ... : ... .. . ... ... : ... .. . ... ... : ... .. . ... ... : ... .. . ... ...
ROW C5 : ... .. . ... ... ... : ... .. . ... ... ... : ... .. . ... : ... .. . ... : ... .. . ... ... : --- .. . P83 ... : ... .. . ... ... : ... .. . ... ...
ROW C6 : A-3 00 7 P81 V02 ... : ... .. . ... ... ... : ... .. . ... : ... .. . ... : ... .. . ... ... : E-2 01 5 P80 ... : ... .. . ... ... : ... .. . ... ...
ROW C7 : ... .. 6 ... ... ... : ... .. 1 ... ... ... : ... .. . ... : ... .. . ... : ... .. . ... ... : ... .. 4 ... ... : ... .. . ... ... : ... .. . ... ...
ROW C8 : ... .. . ... ... ... : ... .. . ... ... ... : ... .. . ... : ... .. . ... : ... .. . ... ... : ... .. 3 ... ... : ... .. . ... ... : ... .. . ... ...
ROW C9 : ... .. 4 ... ... ... : ... .. . ... ... ... : ... .. . ... : ... .. . ... : ... .. . ... ... : ... .. 2 ... ... : ... .. . ... ... : ... .. . ... ...
ROW CA : ... .. . ... ... ... : ... .. . ... ... ... : ... .. . ... : ... .. . ... : ... .. . ... ... : ... .. . ... ... : ... .. . ... ... : ... .. . ... ...
ROW CB : ... .. . ... ... ... : ... .. . ... ... ... : ... .. . ... : ... .. . ... : ... .. . ... ... : ... .. 1 ... ... : ... .. . ... ... : ... .. . ... ...
ROW CC : ... .. . ... ... ... : ... .. . ... ... ... : ... .. . ... : ... .. . ... : ... .. . ... ... : ... .. . ... ... : ... .. . ... ... : ... .. . ... ...
ROW CD : ... .. . ... ... ... : ... .. 0 ... V00 ... : ... .. . ... : ... .. . ... : ... .. . ... ... : ... .. . ... ... : ... .. . ... ... : ... .. . ... ...
ROW CE : ... .. . ... ... ... : ... .. . ... ... ... : ... .. . ... : ... .. . ... : ... .. . ... ... : ... .. . ... ... : ... .. . ... ... : ... .. . ... ...
ROW CF : ... .. . ... ... ... : ... .. . ... ... ... : ... .. . ... : ... .. . ... : ... .. . ... ... : --- .. . P83 ... : ... .. . ... ... : ... .. . ... ...
ROW D0 : ... .. . ... ... ... : B-3 00 C P80 V02 ... : B-1 00 . ... : ... .. . ... : ... .. . ... ... : ... .. . ... ... : D#3 01 6 ... ... : ... .. . ... ...
ROW D1 : ... .. 1 ... ... ... : ... .. B ... ... ... : ... .. . ... : ... .. . ... : ... .. . ... ... : ... .. . ... ... : ... .. 5 ... ... : ... .. . ... ...
ROW D2 : ... .. . ... ... ... : ... .. A ... ... ... : ... .. . ... : ... .. . ... : ... .. . ... ... : ... .. . ... ... : ... .. . ... ... : ... .. . ... ...
ROW D3 : ... .. . ... ... ... : ... .. 8 ... ... ... : ... .. . ... : ... .. . ... : ... .. . ... ... : ... .. . ... ... : ... .. 4 ... ... : ... .. . ... ...
ROW D4 : ... .. . ... ... ... : ... .. . ... ... ... : ... .. . ... : ... .. . ... : ... .. . ... ... : ... .. . ... ... : ... .. . ... ... : ... .. . ... ...
ROW D5 : ... .. . ... ... ... : ... .. . ... ... ... : ... .. . ... : ... .. . ... : ... .. . ... ... : ... .. . ... ... : ... .. . ... ... : ... .. . ... ...
ROW D6 : ... .. . ... ... ... : ... .. . ... ... ... : ... .. . ... : ... .. . ... : ... .. . ... ... : ... .. . ... ... : ... .. . ... ... : ... .. . ... ...
ROW D7 : ... .. 0 ... V00 ... : ... .. . ... ... ... : ... .. . ... : ... .. . ... : ... .. . ... ... : ... .. . ... ... : ... .. 3 ... ... : ... .. . ... ...
ROW D8 : ... .. . ... ... ... : ... .. . ... ... ... : ... .. . ... : ... .. . ... : ... .. . ... ... : ... .. . ... ... : ... .. 2 ... ... : ... .. . ... ...
ROW D9 : ... .. . ... ... ... : ... .. . ... ... ... : ... .. . ... : ... .. . ... : ... .. . ... ... : ... .. . ... ... : ... .. . ... ... : ... .. . ... ...
ROW DA : B-3 00 7 P81 V02 ... : ... .. . ... ... ... : ... .. . ... : ... .. . ... : ... .. . ... ... : ... .. . ... ... : C#3 01 6 ... ... : ... .. . ... ...
ROW DB : ... .. 6 ... ... ... : ... .. 1 ... ... ... : ... .. . ... : ... .. . ... : ... .. . ... ... : ... .. . ... ... : ... .. 5 ... ... : ... .. . ... ...
ROW DC : ... .. . ... ... ... : ... .. . ... ... ... : ... .. . ... : ... .. . ... : ... .. . ... ... : ... .. . ... ... : ... .. . ... ... : ... .. . ... ...
ROW DD : ... .. 4 ... ... ... : ... .. . ... ... ... : ... .. . ... : ... .. . ... : ... .. . ... ... : ... .. . ... ... : ... .. 4 ... ... : ... .. . ... ...
ROW DE : ... .. . ... ... ... : ... .. . ... ... ... : ... .. . ... : ... .. . ... : ... .. . ... ... : ... .. . ... ... : ... .. . ... ... : ... .. . ... ...
ROW DF : ... .. . ... ... ... : ... .. . ... ... ... : ... .. . ... : ... .. . ... : ... .. . ... ... : ... .. . ... ... : ... .. . ... ... : ... .. . ... ...
ROW E0 : ... .. . ... ... ... : ... .. . ... ... ... : ... .. . ... : ... .. . ... : ... .. . ... ... : ... .. . ... ... : ... .. . ... ... : ... .. . ... ...
ROW E1 : ... .. . ... ... ... : ... .. 0 ... V00 ... : ... .. . ... : ... .. . ... : ... .. . ... ... : ... .. . ... ... : ... .. 3 ... ... : ... .. . ... ...
ROW E2 : ... .. . ... ... ... : ... .. . ... ... ... : ... .. . ... : ... .. . ... : ... .. . ... ... : ... .. . ... ... : ... .. 2 ... ... : ... .. . ... ...
ROW E3 : ... .. . ... ... ... : ... .. . ... ... ... : ... .. . ... : ... .. . ... : ... .. . ... ... : ... .. . ... ... : ... .. . ... ... : ... .. . ... ...
ROW E4 : ... .. . ... ... ... : F#3 00 C P80 V02 ... : --- .. . ... : ... .. . ... : ... .. . ... ... : D#2 01 5 P80 ... : B-2 01 6 ... ... : ... .. . ... ...
ROW E5 : ... .. 1 ... ... ... : ... .. B ... ... ... : ... .. . ... : ... .. . ... : ... .. . ... ... : ... .. 4 ... ... : ... .. 5 ... ... : ... .. . ... ...
ROW E6 : ... .. . ... ... ... : ... .. A ... ... ... : ... .. . ... : ... .. . ... : ... .. . ... ... : ... .. 3 ... ... : ... .. . ... ... : ... .. . ... ...
ROW E7 : ... .. . ... ... ... : ... .. 8 ... ... ... : ... .. . ... : ... .. . ... : ... .. . ... ... : ... .. 2 ... ... : ... .. 4 ... ... : ... .. . ... ...
ROW E8 : ... .. . ... ... ... : ... .. . ... ... ... : ... .. . ... : ... .. . ... : ... .. . ... ... : ... .. . ... ... : ... .. . ... ... : ... .. . ... ...
ROW E9 : ... .. . ... ... ... : ... .. . ... ... ... : ... .. . ... : ... .. . ... : ... .. . ... ... : ... .. 1 ... ... : ... .. . ... ... : ... .. . ... ...
ROW EA : ... .. . ... ... ... : ... .. . ... ... ... : ... .. . ... : ... .. . ... : ... .. . ... ... : ... .. . ... ... : ... .. . ... ... : ... .. . ... ...
ROW EB : ... .. 0 ... V00 ... : ... .. . ... ... ... : ... .. . ... : ... .. . ... : ... .. . ... ... : ... .. . ... ... : ... .. 3 ... ... : ... .. . ... ...
ROW EC : ... .. . ... ... ... : ... .. . ... ... ... : ... .. . ... : ... .. . ... : ... .. . ... ... : ... .. . ... ... : ... .. 2 ... ... : ... .. . ... ...
ROW ED : ... .. . ... ... ... : ... .. . ... ... ... : ... .. . ... : ... .. . ... : ... .. . ... ... : --- .. . P7B ... : ... .. . ... ... : ... .. . ... ...
ROW EE : F#3 00 7 P81 V02 ... : ... .. . ... ... ... : ... .. . ... : ... .. . ... : ... .. . ... ... : D#2 01 5 P80 ... : C#3 01 6 ... ... : ... .. . ... ...
ROW EF : ... .. 6 ... ... ... : ... .. 1 ... ... ... : ... .. . ... : ... .. . ... : ... .. . ... ... : ... .. 4 ... ... : ... .. 5 ... ... : ... .. . ... ...
ROW F0 : ... .. . ... ... ... : ... .. . ... ... ... : ... .. . ... : ... .. . ... : ... .. . ... ... : ... .. 3 ... ... : ... .. . ... ... : ... .. . ... ...
ROW F1 : ... .. 4 ... ... ... : ... .. . ... ... ... : ... .. . ... : ... .. . ... : ... .. . ... ... : ... .. 2 ... ... : ... .. 4 ... ... : ... .. . ... ...
ROW F2 : ... .. . ... ... ... : ... .. . ... ... ... : ... .. . ... : ... .. . ... : ... .. . ... ... : ... .. . ... ... : ... .. . ... ... : ... .. . ... ...
ROW F3 : ... .. . ... ... ... : ... .. . ... ... ... : ... .. . ... : ... .. . ... : ... .. . ... ... : ... .. 1 ... ... : ... .. . ... ... : ... .. . ... ...
ROW F4 : ... .. . ... ... ... : ... .. . ... ... ... : ... .. . ... : ... .. . ... : ... .. . ... ... : ... .. . ... ... : ... .. . ... ... : ... .. . ... ...
ROW F5 : ... .. . ... ... ... : ... .. 0 ... V00 ... : ... .. . ... : ... .. . ... : ... .. . ... ... : ... .. . ... ... : ... .. 3 ... ... : ... .. . ... ...
ROW F6 : ... .. . ... ... ... : ... .. . ... ... ... : ... .. . ... : ... .. . ... : ... .. . ... ... : ... .. . ... ... : ... .. 2 ... ... : ... .. . ... ...
ROW F7 : ... .. . ... ... ... : ... .. . ... ... ... : ... .. . ... : ... .. . ... : ... .. . ... ... : --- .. . P7B ... : ... .. . ... ... : ... .. . ... ...
ROW F8 : ... .. . ... ... ... : ... .. . ... ... ... : B-2 00 . ... : ... .. . ... : ... .. . ... ... : ... .. . ... ... : D#3 01 6 ... ... : ... .. . ... ...
ROW F9 : ... .. 1 ... ... ... : ... .. . ... ... ... : ... .. . ... : ... .. . ... : ... .. . ... ... : ... .. . ... ... : ... .. 5 ... ... : ... .. . ... ...
ROW FA : ... .. . ... ... ... : ... .. . ... ... ... : ... .. . ... : ... .. . ... : ... .. . ... ... : ... .. . ... ... : ... .. . ... ... : ... .. . ... ...
ROW FB : ... .. . ... ... ... : ... .. . ... ... ... : ... .. . ... : ... .. . ... : ... .. . ... ... : ... .. . ... ... : ... .. 4 ... ... : ... .. . ... ...
ROW FC : ... .. . ... ... ... : ... .. . ... ... ... : ... .. . ... : ... .. . ... : ... .. . ... ... : ... .. . ... ... : ... .. . ... ... : ... .. . ... ...
ROW FD : ... .. . ... ... ... : ... .. . ... ... ... : ... .. . ... : ... .. . ... : ... .. . ... ... : ... .. . ... ... : ... .. . ... ... : ... .. . ... ...
ROW FE : ... .. . ... ... ... : ... .. . ... ... ... : ... .. . ... : ... .. . ... : ... .. . ... ... : ... .. . ... ... : ... .. . ... ... : ... .. . ... ...
ROW FF : ... .. 0 ... V00 ... : ... .. . ... ... ... : ... .. . ... : ... .. . ... : ... .. . ... ... : ... .. . ... ... : ... .. 3 ... ... : ... .. . ... ...

PATTERN 03
ROW 00 : ... .. . ... ... ... : ... .. . ... ... ... : ... .. . ... : ... .. . ... : ... .. . ... ... : ... .. . ... ... : ... .. 2 ... ... : ... .. . ... ...
ROW 01 : ... .. . ... ... ... : ... .. . ... ... ... : ... .. . ... : ... .. . ... : ... .. . ... ... : ... .. . ... ... : ... .. . ... ... : ... .. . ... ...
ROW 02 : ... .. . ... ... ... : ... .. . ... ... ... : ... .. . ... : ... .. . ... : ... .. . ... ... : ... .. . ... ... : ... .. . ... ... : ... .. . ... ...
ROW 03 : ... .. . ... ... ... : ... .. . ... ... ... : ... .. . ... : ... .. . ... : ... .. . ... ... : ... .. . ... ... : ... .. . ... ... : ... .. . ... ...
ROW 04 : ... .. . ... ... ... : ... .. . ... ... ... : ... .. . ... : ... .. . ... : ... .. . ... ... : ... .. . ... ... : ... .. . ... ... : ... .. . ... ...
ROW 05 : ... .. . ... ... ... : ... .. . ... ... ... : ... .. . ... : ... .. . ... : ... .. . ... ... : ... .. . ... ... : ... .. . ... ... : ... .. . ... ...
ROW 06 : ... .. . ... ... ... : ... .. . ... ... ... : ... .. . ... : ... .. . ... : ... .. . ... ... : ... .. . ... ... : ... .. 1 ... ... : ... .. . ... ...
ROW 07 : ... .. . ... ... ... : ... .. . ... ... ... : ... .. . ... : ... .. . ... : ... .. . ... ... : ... .. . ... ... : ... .. . ... ... : ... .. . ... ...
ROW 08 : ... .. . ... ... ... : ... .. . ... ... ... : ... .. . ... : ... .. . ... : ... .. . ... ... : ... .. . ... ... : ... .. . ... ... : ... .. . ... ...
ROW 09 : ... .. . ... ... ... : ... .. . ... ... ... : ... .. . ... : ... .. . ... : ... .. . ... ... : ... .. . ... ... : ... .. . ... ... : ... .. . ... ...
ROW 0A : ... .. . ... ... ... : ... .. . ... ... ... : ... .. . ... : ... .. . ... : ... .. . ... ... : ... .. . ... ... : ... .. . ... ... : ... .. . ... ...
ROW 0B : ... .. . ... ... ... : ... .. . ... ... ... : ... .. . ... : ... .. . ... : ... .. . ... ... : ... .. . ... ... : ... .. . ... ... : ... .. . ... ...
ROW 0C : ... .. . ... ... ... : ... .. . ... ... ... : --- .. . ... : ... .. . ... : ... .. . ... ... : F#2 01 5 P80 ... : F#3 01 6 ... ... : ... .. . ... ...
ROW 0D : ... .. . ... ... ... : ... .. . ... ... ... : ... .. . ... : ... .. . ... : ... .. . ... ... : ... .. 4 ... ... : ... .. 5 ... ... : ... .. . ... ...
ROW 0E : ... .. . ... ... ... : ... .. . ... ... ... : ... .. . ... : ... .. . ... : ... .. . ... ... : ... .. 3 ... ... : ... .. . ... ... : ... .. . ... ...
ROW 0F : ... .. . ... ... ... : ... .. . ... ... ... : ... .. . ... : ... .. . ... : ... .. . ... ... : ... .. 2 ... ... : ... .. 4 ... ... : ... .. . ... ...
ROW 10 : ... .. . ... ... ... : ... .. . ... ... ... : ... .. . ... : ... .. . ... : ... .. . ... ... : ... .. . ... ... : ... .. . ... ... : ... .. . ... ...
ROW 11 : ... .. . ... ... ... : ... .. . ... ... ... : ... .. . ... : ... .. . ... : ... .. . ... ... : ... .. 1 ... ... : ... .. . ... ... : ... .. . ... ...
ROW 12 : ... .. . ... ... ... : ... .. . ... ... ... : ... .. . ... : ... .. . ... : ... .. . ... ... : ... .. . ... ... : ... .. . ... ... : ... .. . ... ...
ROW 13 : ... .. . ... ... ... : ... .. . ... ... ... : ... .. . ... : ... .. . ... : ... .. . ... ... : ... .. . ... ... : ... .. 3 ... ... : ... .. . ... ...
ROW 14 : ... .. . ... ... ... : ... .. . ... ... ... : ... .. . ... : ... .. . ... : ... .. . ... ... : ... .. . ... ... : ... .. 2 ... ... : ... .. . ... ...
ROW 15 : ... .. . ... ... ... : ... .. . ... ... ... : ... .. . ... : ... .. . ... : ... .. . ... ... : --- .. . P82 ... : ... .. . ... ... : ... .. . ... ...
ROW 16 : ... .. . ... ... ... : ... .. . ... ... ... : ... .. . ... : ... .. . ... : ... .. . ... ... : ... .. . ... ... : ... .. . ... ... : ... .. . ... ...
ROW 17 : ... .. . ... ... ... : ... .. . ... ... ... : ... .. . ... : ... .. . ... : ... .. . ... ... : ... .. . ... ... : ... .. . ... ... : ... .. . ... ...
ROW 18 : ... .. . ... ... ... : ... .. . ... ... ... : ... .. . ... : ... .. . ... : ... .. . ... ... : ... .. . ... ... : ... .. . ... ... : ... .. . ... ...
ROW 19 : ... .. . ... ... ... : ... .. . ... ... ... : ... .. . ... : ... .. . ... : ... .. . ... ... : ... .. . ... ... : ... .. . ... ... : ... .. . ... ...
ROW 1A : ... .. . ... ... ... : ... .. . ... ... ... : ... .. . ... : ... .. . ... : ... .. . ... ... : ... .. . ... ... : ... .. 1 ... ... : ... .. . ... ...
ROW 1B : ... .. . ... ... ... : ... .. . ... ... ... : ... .. . ... : ... .. . ... : ... .. . ... ... : ... .. . ... ... : ... .. . ... ... : ... .. . ... ...
ROW 1C : ... .. . ... ... ... : ... .. . ... ... ... : ... .. . ... : ... .. . ... : ... .. . ... ... : ... .. . ... ... : ... .. . ... ... : ... .. . ... ...
ROW 1D : ... .. . ... ... ... : ... .. . ... ... ... : ... .. . ... : ... .. . ... : ... .. . ... ... : ... .. . ... ... : ... .. . ... ... : ... .. . ... ...
ROW 1E : ... .. . ... ... ... : ... .. . ... ... ... : ... .. . ... : ... .. . ... : ... .. . ... ... : ... .. . ... ... : ... .. . ... ... : ... .. . ... ...
ROW 1F : ... .. . ... ... ... : ... .. . ... ... ... : ... .. . ... : ... .. . ... : ... .. . ... ... : ... .. . ... ... : ... .. . ... ... : ... .. . ... ...
ROW 20 : ... .. . ... ... ... : A-3 00 6 P80 V02 ... : F#1 00 . ... : ... .. . ... : ... .. . ... ... : ... .. . ... ... : E-3 01 6 ... ... : F#0 01 C ... ...
ROW 21 : ... .. . ... ... ... : ... .. 5 ... ... ... : ... .. . ... : ... .. . ... : ... .. . ... ... : ... .. . ... ... : ... .. 5 ... ... : ... .. A ... ...
ROW 22 : ... .. . ... ... ... : ... .. . ... ... ... : ... .. . ... : ... .. . ... : ... .. . ... ... : ... .. . ... ... : ... .. . ... ... : ... .. 6 ... ...
ROW 23 : ... .. . ... ... ... : ... .. 4 ... ... ... : ... .. . ... : ... .. . ... : ... .. . ... ... : ... .. . ... ... : ... .. 4 ... ... : ... .. . ... ...
ROW 24 : ... .. . ... ... ... : ... .. . ... ... ... : ... .. . ... : ... .. . ... : ... .. . ... ... : ... .. . ... ... : ... .. . ... ... : ... .. . ... ...
ROW 25 : ... .. . ... ... ... : ... .. . ... ... ... : ... .. . ... : ... .. . ... : ... .. . ... ... : ... .. . ... ... : ... .. . ... ... : ... .. . ... ...
ROW 26 : ... .. . ... ... ... : ... .. . ... ... ... : ... .. . ... : ... .. . ... : ... .. . ... ... : ... .. . ... ... : ... .. . ... ... : ... .. . ... ...
ROW 27 : ... .. . ... ... ... : ... .. . ... ... ... : ... .. . ... : ... .. . ... : ... .. . ... ... : ... .. . ... ... : ... .. 3 ... ... : ... .. . ... ...
ROW 28 : ... .. . ... ... ... : ... .. . ... ... ... : ... .. . ... : ... .. . ... : ... .. . ... ... : ... .. . ... ... : ... .. 2 ... ... : ... .. . ... ...
ROW 29 : ... .. . ... ... ... : ... .. . ... ... ... : ... .. . ... : ... .. . ... : ... .. . ... ... : ... .. . ... ... : ... .. . ... ... : ... .. . ... ...
ROW 2A : A-3 00 1 P81 V02 ... : ... .. 5 ... ... ... : ... .. . ... : ... .. . ... : ... .. . ... ... : ... .. . ... ... : ... .. . ... ... : ... .. . ... ...
ROW 2B : ... .. . ... ... ... : ... .. . ... ... ... : ... .. . ... : ... .. . ... : ... .. . ... ... : ... .. . ... ... : ... .. . ... ... : ... .. . ... ...
ROW 2C : ... .. . ... ... ... : ... .. . ... ... ... : ... .. . ... : ... .. . ... : ... .. . ... ... : ... .. . ... ... : ... .. . ... ... : ... .. . ... ...
ROW 2D : ... .. . ... ... ... : ... .. . ... ... ... : ... .. . ... : ... .. . ... : ... .. . ... ... : ... .. . ... ... : ... .. . ... ... : ... .. . ... ...
ROW 2E : ... .. . ... ... ... : ... .. . ... ... ... : ... .. . ... : ... .. . ... : ... .. . ... ... : ... .. . ... ... : ... .. 1 ... ... : ... .. . ... ...
ROW 2F : ... .. . ... ... ... : ... .. 6 ... ... ... : ... .. . ... : ... .. . ... : ... .. . ... ... : ... .. . ... ... : ... .. . ... ... : ... .. . ... ...
ROW 30 : ... .. . ... ... ... : ... .. . ... ... ... : ... .. . ... : ... .. . ... : ... .. . ... ... : ... .. . ... ... : ... .. . ... ... : ... .. . ... ...
ROW 31 : ... .. . ... ... ... : ... .. . ... ... ... : ... .. . ... : ... .. . ... : ... .. . ... ... : ... .. . ... ... : ... .. . ... ... : ... .. . ... ...
ROW 32 : ... .. . ... ... ... : ... .. . ... ... ... : ... .. . ... : ... .. . ... : ... .. . ... ... : ... .. . ... ... : ... .. . ... ... : ... .. . ... ...
ROW 33 : ... .. . ... ... ... : ... .. . ... ... ... : ... .. . ... : ... .. . ... : ... .. . ... ... : ... .. . ... ... : ... .. . ... ... : ... .. . ... ...
ROW 34 : ... .. 2 ... ... ... : ... .. . ... ... ... : --- .. . ... : ... .. . ... : ... .. . ... ... : F#2 01 5 P80 ... : ... .. . ... ... : ... .. . ... ...
ROW 35 : ... .. . ... ... ... : ... .. . ... ... ... : ... .. . ... : ... .. . ... : ... .. . ... ... : ... .. 4 ... ... : ... .. . ... ... : ... .. 3 ... ...
ROW 36 : ... .. . ... ... ... : ... .. . ... ... ... : ... .. . ... : ... .. . ... : ... .. . ... ... : ... .. 3 ... ... : ... .. . ... ... : ... .. . ... ...
ROW 37 : ... .. . ... ... ... : ... .. . ... ... ... : ... .. . ... : ... .. . ... : ... .. . ... ... : ... .. 2 ... ... : ... .. . ... ... : ... .. 1 ... ...
ROW 38 : ... .. . ... ... ... : ... .. . ... ... ... : ... .. . ... : ... .. . ... : ... .. . ... ... : ... .. . ... ... : ... .. . ... ... : ... .. . ... ...
ROW 39 : ... .. . ... ... ... : ... .. 7 ... ... ... : ... .. . ... : ... .. . ... : ... .. . ... ... : ... .. 1 ... ... : ... .. . ... ... : ... .. . ... ...
ROW 3A : ... .. . ... ... ... : ... .. . ... ... ... : ... .. . ... : ... .. . ... : ... .. . ... ... : ... .. . ... ... : ... .. . ... ... : ... .. . ... ...
ROW 3B : ... .. . ... ... ... : ... .. . ... ... ... : ... .. . ... : ... .. . ... : ... .. . ... ... : ... .. . ... ... : ... .. . ... ... : ... .. . ... ...
ROW 3C : ... .. . ... ... ... : ... .. . ... ... ... : ... .. . ... : ... .. . ... : ... .. . ... ... : ... .. . ... ... : ... .. . ... ... : ... .. . ... ...
ROW 3D : ... .. . ... ... ... : ... .. . ... ... ... : ... .. . ... : ... .. . ... : ... .. . ... ... : --- .. . P82 ... : ... .. . ... ... : ... .. . ... ...
ROW 3E : ... .. 3 ... ... ... : ... .. 8 P81 ... ... : ... .. . ... : ... .. . ... : ... .. . ... ... : F#2 01 5 P80 ... : ... .. . ... ... : ... .. 0 ... ...
ROW 3F : ... .. . ... ... ... : ... .. . P82 ... ... : ... .. . ... : ... .. . ... : ... .. . ... ... : ... .. 4 ... ... : ... .. . ... ... : ... .. . ... ...
ROW 40 : ... .. . ... ... ... : ... .. . P83 ... ... : ... .. . ... : ... .. . ... : ... .. . ... ... : ... .. 3 ... ... : ... .. . ... ... : ... .. . ... ...
ROW 41 : ... .. . ... ... ... : ... .. . ... ... ... : ... .. . ... : ... .. . ... : ... .. . ... ... : ... .. 2 ... ... : ... .. . ... ... : ... .. . ... ...
ROW 42 : ... .. . ... ... ... : ... .. . ... ... ... : ... .. . ... : ... .. . ... : ... .. . ... ... : ... .. . ... ... : ... .. . ... ... : ... .. . ... ...
ROW 43 : ... .. 4 ... ... ... : ... .. . P82 ... ... : ... .. . ... : ... .. . ... : ... .. . ... ... : ... .. 1 ... ... : ... .. . ... ... : ... .. . ... ...
ROW 44 : ... .. . ... ... ... : ... .. . P81 ... ... : ... .. . ... : ... .. . ... : ... .. . ... ... : ... .. . ... ... : ... .. . ... ... : ... .. . ... ...
ROW 45 : ... .. . ... ... ... : ... .. . P80 ... ... : ... .. . ... : ... .. . ... : ... .. . ... ... : ... .. . ... ... : ... .. . ... ... : ... .. . ... ...
ROW 46 : ... .. . ... ... ... : ... .. . P7F ... ... : ... .. . ... : ... .. . ... : ... .. . ... ... : ... .. . ... ... : ... .. . ... ... : ... .. . ... ...
ROW 47 : ... .. . ... ... ... : ... .. . P7E ... ... : ... .. . ... : ... .. . ... : ... .. . ... ... : --- .. . P82 ... : ... .. . ... ... : ... .. . ... ...
ROW 48 : ... .. . P82 ... ... : ... .. A P7D ... ... : F#2 00 . ... : ... .. . ... : ... .. . ... ... : ... .. . ... ... : C#3 01 6 ... ... : ... .. . ... ...
ROW 49 : ... .. . P83 ... ... : ... .. . ... ... ... : ... .. . ... : ... .. . ... : ... .. . ... ... : ... .. . ... ... : ... .. 5 ... ... : ... .. . ... ...
ROW 4A : ... .. . P84 ... ... : ... .. . ... ... ... : ... .. . ... : ... .. . ... : ... .. . ... ... : ... .. . ... ... : ... .. . ... ... : ... .. . ... ...
ROW 4B : ... .. . ... ... ... : ... .. . P7E ... ... : ... .. . ... : ... .. . ... : ... .. . ... ... : ... .. . ... ... : ... .. 4 ... ... : ... .. . ... ...
ROW 4C : ... .. . ... ... ... : ... .. . P7F ... ... : ... .. . ... : ... .. . ... : ... .. . ... ... : ... .. . ... ... : ... .. . ... ... : ... .. . ... ...
ROW 4D : ... .. 5 P83 ... ... : ... .. . P80 ... ... : ... .. . ... : ... .. . ... : ... .. . ... ... : ... .. . ... ... : ... .. . ... ... : ... .. . ... ...
ROW 4E : ... .. . P82 ... ... : ... .. . P81 ... ... : ... .. . ... : ... .. . ... : ... .. . ... ... : ... .. . ... ... : ... .. . ... ... : ... .. . ... ...
ROW 4F : ... .. . P81 ... ... : ... .. . P82 ... ... : ... .. . ... : ... .. . ... : ... .. . ... ... : ... .. . ... ... : ... .. 3 ... ... : ... .. . ... ...
ROW 50 : ... .. . P80 ... ... : ... .. . P83 ... ... : ... .. . ... : ... .. . ... : ... .. . ... ... : ... .. . ... ... : ... .. 2 ... ... : ... .. . ... ...
ROW 51 : ... .. . P7F ... ... : ... .. . ... ... ... : ... .. . ... : ... .. . ... : ... .. . ... ... : ... .. . ... ... : ... .. . ... ... : ... .. . ... ...
ROW 52 : ... .. 6 P7E ... ... : ... .. . ... ... ... : ... .. . ... : ... .. . ... : ... .. . ... ... : ... .. . ... ... : ... .. . ... ... : ... .. . ... ...
ROW 53 : ... .. . ... ... ... : ... .. . P82 ... ... : ... .. . ... : ... .. . ... : ... .. . ... ... : ... .. . ... ... : ... .. . ... ... : ... .. . ... ...
ROW 54 : ... .. . ... ... ... : ... .. . P81 ... ... : ... .. . ... : ... .. . ... : ... .. . ... ... : ... .. . ... ... : ... .. . ... ... : ... .. . ... ...
ROW 55 : ... .. . P7F ... ... : ... .. . P80 ... ... : ... .. . ... : ... .. . ... : ... .. . ... ... : ... .. . ... ... : ... .. . ... ... : ... .. . ... ...
ROW 56 : ... .. . P80 ... ... : ... .. . P7F ... ... : ... .. . ... : ... .. . ... : ... .. . ... ... : ... .. . ... ... : ... .. 1 ... ... : ... .. . ... ...
ROW 57 : ... .. . P81 ... ... : ... .. . P7E ... ... : ... .. . ... : ... .. . ... : ... .. . ... ... : ... .. . ... ... : ... .. . ... ... : ... .. . ... ...
ROW 58 : ... .. . P82 ... ... : ... .. 2 P7D ... ... : ... .. . ... : ... .. . ... : ... .. . ... ... : ... .. . ... ... : ... .. . ... ... : ... .. . ... ...
ROW 59 : ... .. . P83 ... ... : ... .. . ... ... ... : ... .. . ... : ... .. . ... : ... .. . ... ... : ... .. . ... ... : ... .. . ... ... : ... .. . ... ...
ROW 5A : ... .. . P84 ... ... : ... .. . ... ... ... : ... .. . ... : ... .. . ... : ... .. . ... ... : ... .. . ... ... : ... .. . ... ... : ... .. . ... ...
ROW 5B : ... .. . ... ... ... : ... .. 1 P7E ... ... : ... .. . ... : ... .. . ... : ... .. . ... ... : ... .. . ... ... : ... .. . ... ... : ... .. . ... ...
ROW 5C : ... .. . ... ... ... : B-3 00 C P80 ... ... : --- .. . ... : ... .. . ... : ... .. . ... ... : E-2 01 5 P80 ... : E-3 01 6 ... ... : ... .. . ... ...
ROW 5D : ... .. . P83 ... ... : ... .. B ... ... ... : ... .. . ... : ... .. . ... : ... .. . ... ... : ... .. 4 ... ... : ... .. 5 ... ... : ... .. . ... ...
ROW 5E : ... .. . P82 ... ... : ... .. A ... ... ... : ... .. . ... : ... .. . ... : ... .. . ... ... : ... .. 3 ... ... : ... .. . ... ... : ... .. . ... ...
ROW 5F : ... .. . P81 ... ... : ... .. 8 ... ... ... : ... .. . ... : ... .. . ... : ... .. . ... ... : ... .. 2 ... ... : ... .. 4 ... ... : ... .. . ... ...
ROW 60 : ... .. . P80 ... ... : ... .. . ... ... ... : ... .. . ... : ... .. . ... : ... .. . ... ... : ... .. . ... ... : ... .. . ... ... : ... .. . ... ...
ROW 61 : ... .. . P7F ... ... : ... .. . ... ... ... : ... .. . ... : ... .. . ... : ... .. . ... ... : ... .. 1 ... ... : ... .. . ... ... : ... .. . ... ...
ROW 62 : ... .. 1 P7E ... ... : ... .. . ... ... ... : ... .. . ... : ... .. . ... : ... .. . ... ... : ... .. . ... ... : ... .. . ... ... : ... .. . ... ...
ROW 63 : ... .. . ... ... ... : ... .. . ... ... ... : ... .. . ... : ... .. . ... : ... .. . ... ... : ... .. . ... ... : ... .. 3 ... ... : ... .. . ... ...
ROW 64 : ... .. . ... ... ... : ... .. . ... ... ... : ... .. . ... : ... .. . ... : ... .. . ... ... : ... .. . ... ... : ... .. 2 ... ... : ... .. . ... ...
ROW 65 : ... .. . P7F ... ... : ... .. . ... ... ... : ... .. . ... : ... .. . ... : ... .. . ... ... : --- .. . P83 ... : ... .. . ... ... : ... .. . ... ...
ROW 66 : B-3 00 7 P81 ... ... : C#4 00 C ... ... ... : ... .. . ... : ... .. . ... : ... .. . ... ... : E-2 01 5 P80 ... : ... .. . ... ... : ... .. . ... ...
ROW 67 : ... .. 6 ... ... ... : ... .. B ... ... ... : ... .. . ... : ... .. . ... : ... .. . ... ... : ... .. 4 ... ... : ... .. . ... ... : ... .. . ... ...
ROW 68 : ... .. . ... ... ... : ... .. A ... ... ... : ... .. . ... : ... .. . ... : ... .. . ... ... : ... .. 3 ... ... : ... .. . ... ... : ... .. . ... ...
ROW 69 : ... .. 4 ... ... ... : ... .. 8 ... ... ... : ... .. . ... : ... .. . ... : ... .. . ... ... : ... .. 2 ... ... : ... .. . ... ... : ... .. . ... ...
ROW 6A : ... .. . ... ... ... : ... .. . ... ... ... : ... .. . ... : ... .. . ... : ... .. . ... ... : ... .. . ... ... : ... .. 1 ... ... : ... .. . ... ...
ROW 6B : ... .. . ... ... ... : ... .. . ... ... ... : ... .. . ... : ... .. . ... : ... .. . ... ... : ... .. 1 ... ... : ... .. . ... ... : ... .. . ... ...
ROW 6C : ... .. . ... ... ... : ... .. . ... ... ... : ... .. . ... : ... .. . ... : ... .. . ... ... : ... .. . ... ... : ... .. . ... ... : ... .. . ... ...
ROW 6D : ... .. . ... ... ... : ... .. . ... ... ... : ... .. . ... : ... .. . ... : ... .. . ... ... : ... .. . ... ... : ... .. . ... ... : ... .. . ... ...
ROW 6E : ... .. . ... ... ... : ... .. . ... ... ... : ... .. . ... : ... .. . ... : ... .. . ... ... : ... .. . ... ... : ... .. . ... ... : ... .. . ... ...
ROW 6F : ... .. . ... ... ... : ... .. . ... ... ... : ... .. . ... : ... .. . ... : ... .. . ... ... : --- .. . P83 ... : ... .. . ... ... : ... .. . ... ...
ROW 70 : C#4 00 7 ... ... ... : B-3 00 C ... ... ... : B-1 00 . ... : ... .. . ... : ... .. . ... ... : ... .. . ... ... : D#3 01 6 ... ... : ... .. . ... ...
ROW 71 : ... .. 6 ... ... ... : ... .. B ... ... ... : ... .. . ... : ... .. . ... : ... .. . ... ... : ... .. . ... ... : ... .. 5 ... ... : ... .. . ... ...
ROW 72 : ... .. . ... ... ... : ... .. A ... ... ... : ... .. . ... : ... .. . ... : ... .. . ... ... : ... .. . ... ... : ... .. . ... ... : ... .. . ... ...
ROW 73 : ... .. 4 ... ... ... : ... .. 8 ... ... ... : ... .. . ... : ... .. . ... : ... .. . ... ... : ... .. . ... ... : ... .. 4 ... ... : ... .. . ... ...
ROW 74 : ... .. . ... ... ... : ... .. . ... ... ... : ... .. . ... : ... .. . ... : ... .. . ... ... : ... .. . ... ... : ... .. . ... ... : ... .. . ... ...
ROW 75 : ... .. . ... ... ... : ... .. . ... ... ... : ... .. . ... : ... .. . ... : ... .. . ... ... : ... .. . ... ... : ... .. . ... ... : ... .. . ... ...
ROW 76 : ... .. . ... ... ... : ... .. . ... ... ... : ... .. . ... : ... .. . ... : ... .. . ... ... : ... .. . ... ... : ... .. . ... ... : ... .. . ... ...
ROW 77 : ... .. . ... ... ... : ... .. . ... ... ... : ... .. . ... : ... .. . ... : ... .. . ... ... : ... .. . ... ... : ... .. 3 ... ... : ... .. . ... ...
ROW 78 : ... .. . ... ... ... : ... .. . ... ... ... : ... .. . ... : ... .. . ... : ... .. . ... ... : ... .. . ... ... : ... .. 2 ... ... : ... .. . ... ...
ROW 79 : ... .. . ... ... ... : ... .. . ... ... ... : ... .. . ... : ... .. . ... : ... .. . ... ... : ... .. . ... ... : ... .. . ... ... : ... .. . ... ...
ROW 7A : B-3 00 7 ... ... ... : ... .. . ... ... ... : ... .. . ... : ... .. . ... : ... .. . ... ... : ... .. . ... ... : C#3 01 6 ... ... : ... .. . ... ...
ROW 7B : ... .. 6 ... ... ... : ... .. 1 ... ... ... : ... .. . ... : ... .. . ... : ... .. . ... ... : ... .. . ... ... : ... .. 5 ... ... : ... .. . ... ...
ROW 7C : ... .. . ... ... ... : ... .. . ... ... ... : ... .. . ... : ... .. . ... : ... .. . ... ... : ... .. . ... ... : ... .. . ... ... : ... .. . ... ...
ROW 7D : ... .. 4 ... ... ... : ... .. . ... ... ... : ... .. . ... : ... .. . ... : ... .. . ... ... : ... .. . ... ... : ... .. 4 ... ... : ... .. . ... ...
ROW 7E : ... .. . ... ... ... : ... .. . ... ... ... : ... .. . ... : ... .. . ... : ... .. . ... ... : ... .. . ... ... : ... .. . ... ... : ... .. . ... ...
ROW 7F : ... .. . ... ... ... : ... .. . ... ... ... : ... .. . ... : ... .. . ... : ... .. . ... ... : ... .. . ... ... : ... .. . ... ... : ... .. . ... ...
ROW 80 : ... .. . ... ... ... : ... .. . ... ... ... : ... .. . ... : ... .. . ... : ... .. . ... ... : ... .. . ... ... : ... .. . ... ... : ... .. . ... ...
ROW 81 : ... .. . ... ... ... : ... .. 0 ... V00 ... : ... .. . ... : ... .. . ... : ... .. . ... ... : ... .. . ... ... : ... .. 3 ... ... : ... .. . ... ...
ROW 82 : ... .. . ... ... ... : ... .. . ... ... ... : ... .. . ... : ... .. . ... : ... .. . ... ... : ... .. . ... ... : ... .. 2 ... ... : ... .. . ... ...
ROW 83 : ... .. . ... ... ... : ... .. . ... ... ... : ... .. . ... : ... .. . ... : ... .. . ... ... : ... .. . ... ... : ... .. . ... ... : ... .. . ... ...
ROW 84 : ... .. . ... ... ... : F#3 00 C P80 V02 ... : --- .. . ... : ... .. . ... : ... .. . ... ... : D#2 01 5 P80 ... : B-2 01 6 ... ... : ... .. . ... ...
ROW 85 : ... .. 1 ... ... ... : ... .. B ... ... ... : ... .. . ... : ... .. . ... : ... .. . ... ... : ... .. 4 ... ... : ... .. 5 ... ... : ... .. . ... ...
ROW 86 : ... .. . ... ... ... : ... .. A ... ... ... : ... .. . ... : ... .. . ... : ... .. . ... ... : ... .. 3 ... ... : ... .. . ... ... : ... .. . ... ...
ROW 87 : ... .. . ... ... ... : ... .. 8 ... ... ... : ... .. . ... : ... .. . ... : ... .. . ... ... : ... .. 2 ... ... : ... .. 4 ... ... : ... .. . ... ...
ROW 88 : ... .. . ... ... ... : ... .. . ... ... ... : ... .. . ... : ... .. . ... : ... .. . ... ... : ... .. . ... ... : ... .. . ... ... : ... .. . ... ...
ROW 89 : ... .. . ... ... ... : ... .. . ... ... ... : ... .. . ... : ... .. . ... : ... .. . ... ... : ... .. 1 ... ... : ... .. . ... ... : ... .. . ... ...
ROW 8A : ... .. . ... ... ... : ... .. . ... ... ... : ... .. . ... : ... .. . ... : ... .. . ... ... : ... .. . ... ... : ... .. . ... ... : ... .. . ... ...
ROW 8B : ... .. 0 ... V00 ... : ... .. . ... ... ... : ... .. . ... : ... .. . ... : ... .. . ... ... : ... .. . ... ... : ... .. 3 ... ... : ... .. . ... ...
ROW 8C : ... .. . ... ... ... : ... .. . ... ... ... : ... .. . ... : ... .. . ... : ... .. . ... ... : ... .. . ... ... : ... .. 2 ... ... : ... .. . ... ...
ROW 8D : ... .. . ... ... ... : ... .. . ... ... ... : ... .. . ... : ... .. . ... : ... .. . ... ... : --- .. . P7B ... : ... .. . ... ... : ... .. . ... ...
ROW 8E : F#3 00 7 P81 V02 ... : ... .. . ... ... ... : ... .. . ... : ... .. . ... : ... .. . ... ... : D#2 01 5 P80 ... : F#2 01 6 ... ... : ... .. . ... ...
ROW 8F : ... .. 6 ... ... ... : ... .. 1 ... ... ... : ... .. . ... : ... .. . ... : ... .. . ... ... : ... .. 4 ... ... : ... .. 5 ... ... : ... .. . ... ...
ROW 90 : ... .. . ... ... ... : ... .. . ... ... ... : ... .. . ... : ... .. . ... : ... .. . ... ... : ... .. 3 ... ... : ... .. . ... ... : ... .. . ... ...
ROW 91 : ... .. 4 ... ... ... : ... .. . ... ... ... : ... .. . ... : ... .. . ... : ... .. . ... ... : ... .. 2 ... ... : ... .. 4 ... ... : ... .. . ... ...
ROW 92 : ... .. . ... ... ... : ... .. . ... ... ... : ... .. . ... : ... .. . ... : ... .. . ... ... : ... .. . ... ... : ... .. . ... ... : ... .. . ... ...
ROW 93 : ... .. . ... ... ... : ... .. . ... ... ... : ... .. . ... : ... .. . ... : ... .. . ... ... : ... .. 1 ... ... : ... .. . ... ... : ... .. . ... ...
ROW 94 : ... .. . ... ... ... : ... .. . ... ... ... : ... .. . ... : ... .. . ... : ... .. . ... ... : ... .. . ... ... : ... .. . ... ... : ... .. . ... ...
ROW 95 : ... .. . ... ... ... : ... .. 0 ... V00 ... : ... .. . ... : ... .. . ... : ... .. . ... ... : ... .. . ... ... : ... .. 3 ... ... : ... .. . ... ...
ROW 96 : ... .. . ... ... ... : ... .. . ... ... ... : ... .. . ... : ... .. . ... : ... .. . ... ... : ... .. . ... ... : ... .. 2 ... ... : ... .. . ... ...
ROW 97 : ... .. . ... ... ... : ... .. . ... ... ... : ... .. . ... : ... .. . ... : ... .. . ... ... : --- .. . P7B ... : ... .. . ... ... : ... .. . ... ...
ROW 98 : ... .. . ... ... ... : ... .. . ... ... ... : D#2 00 . ... : ... .. . ... : ... .. . ... ... : ... .. . ... ... : B-2 01 6 ... ... : ... .. . ... ...
ROW 99 : ... .. 1 ... ... ... : ... .. . ... ... ... : ... .. . ... : ... .. . ... : ... .. . ... ... : ... .. . ... ... : ... .. 5 ... ... : ... .. . ... ...
ROW 9A : ... .. . ... ... ... : ... .. . ... ... ... : ... .. . ... : ... .. . ... : ... .. . ... ... : ... .. . ... ... : ... .. . ... ... : ... .. . ... ...
ROW 9B : ... .. . ... ... ... : ... .. . ... ... ... : ... .. . ... : ... .. . ... : ... .. . ... ... : ... .. . ... ... : ... .. 4 ... ... : ... .. . ... ...
ROW 9C : ... .. . ... ... ... : ... .. . ... ... ... : ... .. . ... : ... .. . ... : ... .. . ... ... : ... .. . ... ... : ... .. . ... ... : ... .. . ... ...
ROW 9D : ... .. . ... ... ... : ... .. . ... ... ... : ... .. . ... : ... .. . ... : ... .. . ... ... : ... .. . ... ... : ... .. . ... ... : ... .. . ... ...
ROW 9E : ... .. . ... ... ... : ... .. . ... ... ... : ... .. . ... : ... .. . ... : ... .. . ... ... : ... .. . ... ... : ... .. . ... ... : ... .. . ... ...
ROW 9F : ... .. 0 ... V00 ... : ... .. . ... ... ... : ... .. . ... : ... .. . ... : ... .. . ... ... : ... .. . ... ... : ... .. 3 ... ... : ... .. . ... ...
ROW A0 : ... .. . ... ... ... : ... .. . ... ... ... : ... .. . ... : ... .. . ... : ... .. . ... ... : ... .. . ... ... : ... .. 2 ... ... : ... .. . ... ...
ROW A1 : ... .. . ... ... ... : ... .. . ... ... ... : ... .. . ... : ... .. . ... : ... .. . ... ... : ... .. . ... ... : ... .. . ... ... : ... .. . ... ...
ROW A2 : ... .. . ... ... ... : ... .. . ... ... ... : ... .. . ... : ... .. . ... : ... .. . ... ... : ... .. . ... ... : ... .. . ... ... : ... .. . ... ...
ROW A3 : ... .. . ... ... ... : ... .. . ... ... ... : ... .. . ... : ... .. . ... : ... .. . ... ... : ... .. . ... ... : ... .. . ... ... : ... .. . ... ...
ROW A4 : ... .. . ... ... ... : ... .. . ... ... ... : ... .. . ... : ... .. . ... : ... .. . ... ... : ... .. . ... ... : ... .. . ... ... : ... .. . ... ...
ROW A5 : ... .. . ... ... ... : ... .. . ... ... ... : ... .. . ... : ... .. . ... : ... .. . ... ... : ... .. . ... ... : ... .. . ... ... : ... .. . ... ...
ROW A6 : ... .. . ... ... ... : ... .. . ... ... ... : ... .. . ... : ... .. . ... : ... .. . ... ... : ... .. . ... ... : ... .. 1 ... ... : ... .. . ... ...
ROW A7 : ... .. . ... ... ... : ... .. . ... ... ... : ... .. . ... : ... .. . ... : ... .. . ... ... : ... .. . ... ... : ... .. . ... ... : ... .. . ... ...
ROW A8 : ... .. . ... ... ... : ... .. . ... ... ... : ... .. . ... : ... .. . ... : ... .. . ... ... : ... .. . ... ... : ... .. . ... ... : ... .. . ... ...
ROW A9 : ... .. . ... ... ... : ... .. . ... ... ... : ... .. . ... : ... .. . ... : ... .. . ... ... : ... .. . ... ... : ... .. . ... ... : ... .. . ... ...
ROW AA : ... .. . ... ... ... : ... .. . ... ... ... : ... .. . ... : ... .. . ... : ... .. . ... ... : ... .. . ... ... : ... .. . ... ... : ... .. . ... ...
ROW AB : ... .. . ... ... ... : ... .. . ... ... ... : ... .. . ... : ... .. . ... : ... .. . ... ... : ... .. . ... ... : ... .. . ... ... : ... .. . ... ...
ROW AC : ... .. . ... ... ... : ... .. . ... ... ... : B-1 00 . ... : ... .. . ... : ... .. . ... ... : F#2 01 5 P80 ... : D#3 01 6 ... ... : ... .. . ... ...
ROW AD : ... .. . ... ... ... : ... .. . ... ... ... : ... .. . ... : ... .. . ... : ... .. . ... ... : ... .. 4 ... ... : ... .. 5 ... ... : ... .. . ... ...
ROW AE : ... .. . ... ... ... : ... .. . ... ... ... : ... .. . ... : ... .. . ... : ... .. . ... ... : ... .. 3 ... ... : ... .. . ... ... : ... .. . ... ...
ROW AF : ... .. . ... ... ... : ... .. . ... ... ... : ... .. . ... : ... .. . ... : ... .. . ... ... : ... .. 2 ... ... : ... .. 4 ... ... : ... .. . ... ...
ROW B0 : ... .. . ... ... ... : ... .. . ... ... ... : ... .. . ... : ... .. . ... : ... .. . ... ... : ... .. . ... ... : ... .. . ... ... : ... .. . ... ...
ROW B1 : ... .. . ... ... ... : ... .. . ... ... ... : ... .. . ... : ... .. . ... : ... .. . ... ... : ... .. 1 ... ... : ... .. . ... ... : ... .. . ... ...
ROW B2 : ... .. . ... ... ... : ... .. . ... ... ... : ... .. . ... : ... .. . ... : ... .. . ... ... : ... .. . ... ... : ... .. . ... ... : ... .. . ... ...
ROW B3 : ... .. . ... ... ... : ... .. . ... ... ... : ... .. . ... : ... .. . ... : ... .. . ... ... : ... .. . ... ... : ... .. 3 ... ... : ... .. . ... ...
ROW B4 : ... .. . ... ... ... : ... .. . ... ... ... : ... .. . ... : ... .. . ... : ... .. . ... ... : ... .. . ... ... : ... .. 2 ... ... : ... .. . ... ...
ROW B5 : ... .. . ... ... ... : ... .. . ... ... ... : ... .. . ... : ... .. . ... : ... .. . ... ... : --- .. . P82 ... : ... .. . ... ... : ... .. . ... ...
ROW B6 : ... .. . ... ... ... : ... .. . ... ... ... : ... .. . ... : ... .. . ... : ... .. . ... ... : ... .. . ... ... : ... .. . ... ... : ... .. . ... ...
ROW B7 : ... .. . ... ... ... : ... .. . ... ... ... : ... .. . ... : ... .. . ... : ... .. . ... ... : ... .. . ... ... : ... .. . ... ... : ... .. . ... ...
ROW B8 : ... .. . ... ... ... : ... .. . ... ... ... : ... .. . ... : ... .. . ... : ... .. . ... ... : ... .. . ... ... : ... .. . ... ... : ... .. . ... ...
ROW B9 : ... .. . ... ... ... : ... .. . ... ... ... : ... .. . ... : ... .. . ... : ... .. . ... ... : ... .. . ... ... : ... .. . ... ... : ... .. . ... ...
ROW BA : ... .. . ... ... ... : ... .. . ... ... ... : ... .. . ... : ... .. . ... : ... .. . ... ... : ... .. . ... ... : ... .. 1 ... ... : ... .. . ... ...
ROW BB : ... .. . ... ... ... : ... .. . ... ... ... : ... .. . ... : ... .. . ... : ... .. . ... ... : ... .. . ... ... : ... .. . ... ... : ... .. . ... ...
ROW BC : ... .. . ... ... ... : ... .. . ... ... ... : ... .. . ... : ... .. . ... : ... .. . ... ... : ... .. . ... ... : ... .. . ... ... : ... .. . ... ...
ROW BD : ... .. . ... ... ... : ... .. . ... ... ... : ... .. . ... : ... .. . ... : ... .. . ... ... : ... .. . ... ... : ... .. . ... ... : ... .. . ... ...
ROW BE : ... .. . ... ... ... : ... .. . ... ... ... : ... .. . ... : ... .. . ... : ... .. . ... ... : ... .. . ... ... : ... .. . ... ... : ... .. . ... ...
ROW BF : ... .. . ... ... ... : ... .. . ... ... ... : ... .. . ... : ... .. . ... : ... .. . ... ... : ... .. . ... ... : ... .. . ... ... : ... .. . ... ...
ROW C0 : ... .. . ... ... ... : A-3 00 6 P80 V02 ... : F#1 00 . ... : ... .. . ... : ... .. . ... ... : ... .. . ... ... : C#3 01 6 ... ... : ... .. C ... ...
ROW C1 : ... .. . ... ... ... : ... .. 5 ... ... ... : ... .. . ... : ... .. . ... : ... .. . ... ... : ... .. . ... ... : ... .. 5 ... ... : ... .. A ... ...
ROW C2 : ... .. . ... ... ... : ... .. . ... ... ... : ... .. . ... : ... .. . ... : ... .. . ... ... : ... .. . ... ... : ... .. . ... ... : ... .. 6 ... ...
ROW C3 : ... .. . ... ... ... : ... .. 4 ... ... ... : ... .. . ... : ... .. . ... : ... .. . ... ... : ... .. . ... ... : ... .. 4 ... ... : ... .. . ... ...
ROW C4 : ... .. . ... ... ... : ... .. . ... ... ... : ... .. . ... : ... .. . ... : ... .. . ... ... : ... .. . ... ... : ... .. . ... ... : ... .. . ... ...
ROW C5 : ... .. . ... ... ... : ... .. . ... ... ... : ... .. . ... : ... .. . ... : ... .. . ... ... : ... .. . ... ... : ... .. . ... ... : ... .. . ... ...
ROW C6 : ... .. . ... ... ... : ... .. . ... ... ... : ... .. . ... : ... .. . ... : ... .. . ... ... : ... .. . ... ... : ... .. . ... ... : ... .. . ... ...
ROW C7 : ... .. . ... ... ... : ... .. . ... ... ... : ... .. . ... : ... .. . ... : ... .. . ... ... : ... .. . ... ... : ... .. 3 ... ... : ... .. . ... ...
ROW C8 : ... .. . ... ... ... : ... .. . ... ... ... : ... .. . ... : ... .. . ... : ... .. . ... ... : ... .. . ... ... : ... .. 2 ... ... : ... .. . ... ...
ROW C9 : ... .. . ... ... ... : ... .. . ... ... ... : ... .. . ... : ... .. . ... : ... .. . ... ... : ... .. . ... ... : ... .. . ... ... : ... .. . ... ...
ROW CA : A-3 00 1 P81 V02 ... : ... .. 5 ... ... ... : ... .. . ... : ... .. . ... : ... .. . ... ... : ... .. . ... ... : ... .. . ... ... : ... .. . ... ...
ROW CB : ... .. . ... ... ... : ... .. . ... ... ... : ... .. . ... : ... .. . ... : ... .. . ... ... : ... .. . ... ... : ... .. . ... ... : ... .. . ... ...
ROW CC : ... .. . ... ... ... : ... .. . ... ... ... : ... .. . ... : ... .. . ... : ... .. . ... ... : ... .. . ... ... : ... .. . ... ... : ... .. . ... ...
ROW CD : ... .. . ... ... ... : ... .. . ... ... ... : ... .. . ... : ... .. . ... : ... .. . ... ... : ... .. . ... ... : ... .. . ... ... : ... .. . ... ...
ROW CE : ... .. . ... ... ... : ... .. . ... ... ... : ... .. . ... : ... .. . ... : ... .. . ... ... : ... .. . ... ... : ... .. 1 ... ... : ... .. . ... ...
ROW CF : ... .. . ... ... ... : ... .. 6 ... ... ... : ... .. . ... : ... .. . ... : ... .. . ... ... : ... .. . ... ... : ... .. . ... ... : ... .. . ... ...
ROW D0 : ... .. . ... ... ... : ... .. . ... ... ... : ... .. . ... : ... .. . ... : ... .. . ... ... : ... .. . ... ... : ... .. . ... ... : ... .. . ... ...
ROW D1 : ... .. . ... ... ... : ... .. . ... ... ... : ... .. . ... : ... .. . ... : ... .. . ... ... : ... .. . ... ... : ... .. . ... ... : ... .. . ... ...
ROW D2 : ... .. . ... ... ... : ... .. . ... ... ... : ... .. . ... : ... .. . ... : ... .. . ... ... : ... .. . ... ... : ... .. . ... ... : ... .. . ... ...
ROW D3 : ... .. . ... ... ... : ... .. . ... ... ... : ... .. . ... : ... .. . ... : ... .. . ... ... : ... .. . ... ... : ... .. . ... ... : ... .. . ... ...
ROW D4 : ... .. 2 ... ... ... : ... .. . ... ... ... : --- .. . ... : ... .. . ... : ... .. . ... ... : F#2 01 5 P80 ... : ... .. . ... ... : ... .. . ... ...
ROW D5 : ... .. . ... ... ... : ... .. . ... ... ... : ... .. . ... : ... .. . ... : ... .. . ... ... : ... .. 4 ... ... : ... .. . ... ... : ... .. 3 ... ...
ROW D6 : ... .. . ... ... ... : ... .. . ... ... ... : ... .. . ... : ... .. . ... : ... .. . ... ... : ... .. 3 ... ... : ... .. . ... ... : ... .. . ... ...
ROW D7 : ... .. . ... ... ... : ... .. . ... ... ... : ... .. . ... : ... .. . ... : ... .. . ... ... : ... .. 2 ... ... : ... .. . ... ... : ... .. 1 ... ...
ROW D8 : ... .. . ... ... ... : ... .. . ... ... ... : ... .. . ... : ... .. . ... : ... .. . ... ... : ... .. . ... ... : ... .. . ... ... : ... .. . ... ...
ROW D9 : ... .. . ... ... ... : ... .. 7 ... ... ... : ... .. . ... : ... .. . ... : ... .. . ... ... : ... .. 1 ... ... : ... .. . ... ... : ... .. . ... ...
ROW DA : ... .. . ... ... ... : ... .. . ... ... ... : ... .. . ... : ... .. . ... : ... .. . ... ... : ... .. . ... ... : ... .. . ... ... : ... .. . ... ...
ROW DB : ... .. . ... ... ... : ... .. . ... ... ... : ... .. . ... : ... .. . ... : ... .. . ... ... : ... .. . ... ... : ... .. . ... ... : ... .. . ... ...
ROW DC : ... .. . ... ... ... : ... .. . ... ... ... : ... .. . ... : ... .. . ... : ... .. . ... ... : ... .. . ... ... : ... .. . ... ... : ... .. . ... ...
ROW DD : ... .. . ... ... ... : ... .. . ... ... ... : ... .. . ... : ... .. . ... : ... .. . ... ... : --- .. . P82 ... : ... .. . ... ... : ... .. . ... ...
ROW DE : ... .. 3 ... ... ... : ... .. 8 ... ... ... : ... .. . ... : ... .. . ... : ... .. . ... ... : F#2 01 5 P80 ... : ... .. . ... ... : ... .. 0 ... ...
ROW DF : ... .. . ... ... ... : ... .. . ... ... ... : ... .. . ... : ... .. . ... : ... .. . ... ... : ... .. 4 ... ... : ... .. . ... ... : ... .. . ... ...
ROW E0 : ... .. . ... ... ... : ... .. . ... ... ... : ... .. . ... : ... .. . ... : ... .. . ... ... : ... .. 3 ... ... : ... .. . ... ... : ... .. . ... ...
ROW E1 : ... .. . ... ... ... : ... .. . ... ... ... : ... .. . ... : ... .. . ... : ... .. . ... ... : ... .. 2 ... ... : ... .. . ... ... : ... .. . ... ...
ROW E2 : ... .. . ... ... ... : ... .. . ... ... ... : ... .. . ... : ... .. . ... : ... .. . ... ... : ... .. . ... ... : ... .. . ... ... : ... .. . ... ...
ROW E3 : ... .. 4 ... ... ... : ... .. . ... ... ... : ... .. . ... : ... .. . ... : ... .. . ... ... : ... .. 1 ... ... : ... .. . ... ... : ... .. . ... ...
ROW E4 : ... .. . ... ... ... : ... .. . ... ... ... : ... .. . ... : ... .. . ... : ... .. . ... ... : ... .. . ... ... : ... .. . ... ... : ... .. . ... ...
ROW E5 : ... .. . ... ... ... : ... .. . ... ... ... : ... .. . ... : ... .. . ... : ... .. . ... ... : ... .. . ... ... : ... .. . ... ... : ... .. . ... ...
ROW E6 : ... .. . ... ... ... : ... .. . ... ... ... : ... .. . ... : ... .. . ... : ... .. . ... ... : ... .. . ... ... : ... .. . ... ... : ... .. . ... ...
ROW E7 : ... .. . ... ... ... : ... .. . ... ... ... : ... .. . ... : ... .. . ... : ... .. . ... ... : --- .. . P82 ... : ... .. . ... ... : ... .. . ... ...
ROW E8 : ... .. . ... ... ... : ... .. A ... ... ... : F#2 00 . ... : ... .. . ... : ... .. . ... ... : ... .. . ... ... : A-2 01 6 ... ... : ... .. . ... ...
ROW E9 : ... .. . ... ... ... : ... .. . ... ... ... : ... .. . ... : ... .. . ... : ... .. . ... ... : ... .. . ... ... : ... .. 5 ... ... : ... .. . ... ...
ROW EA : ... .. . ... ... ... : ... .. . ... ... ... : ... .. . ... : ... .. . ... : ... .. . ... ... : ... .. . ... ... : ... .. . ... ... : ... .. . ... ...
ROW EB : ... .. . ... ... ... : ... .. . ... ... ... : ... .. . ... : ... .. . ... : ... .. . ... ... : ... .. . ... ... : ... .. 4 ... ... : ... .. . ... ...
ROW EC : ... .. . ... ... ... : ... .. . ... ... ... : ... .. . ... : ... .. . ... : ... .. . ... ... : ... .. . ... ... : ... .. . ... ... : ... .. . ... ...
ROW ED : ... .. 5 ... ... ... : ... .. . ... ... ... : ... .. . ... : ... .. . ... : ... .. . ... ... : ... .. . ... ... : ... .. . ... ... : ... .. . ... ...
ROW EE : ... .. . ... ... ... : ... .. . ... ... ... : ... .. . ... : ... .. . ... : ... .. . ... ... : ... .. . ... ... : ... .. . ... ... : ... .. . ... ...
ROW EF : ... .. . ... ... ... : ... .. . ... ... ... : ... .. . ... : ... .. . ... : ... .. . ... ... : ... .. . ... ... : ... .. 3 ... ... : ... .. . ... ...
ROW F0 : ... .. . ... ... ... : ... .. . ... ... ... : ... .. . ... : ... .. . ... : ... .. . ... ... : ... .. . ... ... : ... .. 2 ... ... : ... .. . ... ...
ROW F1 : ... .. . ... ... ... : ... .. . ... ... ... : ... .. . ... : ... .. . ... : ... .. . ... ... : ... .. . ... ... : ... .. . ... ... : ... .. . ... ...
ROW F2 : ... .. 6 ... ... ... : ... .. . ... ... ... : ... .. . ... : ... .. . ... : ... .. . ... ... : ... .. . ... ... : ... .. . ... ... : ... .. . ... ...
ROW F3 : ... .. . ... ... ... : ... .. . ... ... ... : ... .. . ... : ... .. . ... : ... .. . ... ... : ... .. . ... ... : ... .. . ... ... : ... .. . ... ...
ROW F4 : ... .. . ... ... ... : ... .. . ... ... ... : ... .. . ... : ... .. . ... : ... .. . ... ... : ... .. . ... ... : ... .. . ... ... : ... .. . ... ...
ROW F5 : ... .. . ... ... ... : ... .. . ... ... ... : ... .. . ... : ... .. . ... : ... .. . ... ... : ... .. . ... ... : ... .. . ... ... : ... .. . ... ...
ROW F6 : ... .. . ... ... ... : ... .. . ... ... ... : ... .. . ... : ... .. . ... : ... .. . ... ... : ... .. . ... ... : ... .. 1 ... ... : ... .. . ... ...
ROW F7 : ... .. . ... ... ... : ... .. . ... ... ... : ... .. . ... : ... .. . ... : ... .. . ... ... : ... .. . ... ... : ... .. . ... ... : ... .. . ... ...
ROW F8 : ... .. . ... ... ... : ... .. 2 ... ... ... : ... .. . ... : ... .. . ... : ... .. . ... ... : ... .. . ... ... : ... .. . ... ... : ... .. . ... ...
ROW F9 : ... .. . ... ... ... : ... .. . ... ... ... : ... .. . ... : ... .. . ... : ... .. . ... ... : ... .. . ... ... : ... .. . ... ... : ... .. . ... ...
ROW FA : ... .. . ... ... ... : ... .. . ... ... ... : ... .. . ... : ... .. . ... : ... .. . ... ... : ... .. . ... ... : ... .. . ... ... : ... .. . ... ...
ROW FB : ... .. . ... ... ... : ... .. 1 ... ... ... : ... .. . ... : ... .. . ... : ... .. . ... ... : ... .. . ... ... : ... .. . ... ... : ... .. . ... ...
ROW FC : ... .. . ... ... ... : B-3 00 C ... ... ... : --- .. . ... : ... .. . ... : ... .. . ... ... : F#2 01 5 P80 ... : ... .. . ... ... : ... .. . ... ...
ROW FD : ... .. . ... ... ... : ... .. B ... ... ... : ... .. . ... : ... .. . ... : ... .. . ... ... : ... .. 4 ... ... : ... .. . ... ... : ... .. . ... ...
ROW FE : ... .. . ... ... ... : ... .. A ... ... ... : ... .. . ... : ... .. . ... : ... .. . ... ... : ... .. 3 ... ... : ... .. . ... ... : ... .. . ... ...
ROW FF : ... .. . ... ... ... : ... .. 8 ... ... ... : ... .. . ... : ... .. . ... : ... .. . ... ... : ... .. 2 ... ... : ... .. . ... ... : ... .. . ... ...

PATTERN 04
ROW 00 : ... .. . ... ... ... : ... .. . ... ... ... : ... .. . ... : ... .. . ... : ... .. . ... ... : ... .. . ... ... : ... .. . ... ... : ... .. . ... ...
ROW 01 : ... .. . ... ... ... : ... .. . ... ... ... : ... .. . ... : ... .. . ... : ... .. . ... ... : ... .. 1 ... ... : ... .. . ... ... : ... .. . ... ...
ROW 02 : ... .. 1 ... ... ... : ... .. . ... ... ... : ... .. . ... : ... .. . ... : ... .. . ... ... : ... .. . ... ... : ... .. . ... ... : ... .. . ... ...
ROW 03 : ... .. . ... ... ... : ... .. . ... ... ... : ... .. . ... : ... .. . ... : ... .. . ... ... : ... .. . ... ... : ... .. . ... ... : ... .. . ... ...
ROW 04 : ... .. . ... ... ... : ... .. . ... ... ... : ... .. . ... : ... .. . ... : ... .. . ... ... : ... .. . ... ... : ... .. . ... ... : ... .. . ... ...
ROW 05 : ... .. . ... ... ... : ... .. . ... ... ... : ... .. . ... : ... .. . ... : ... .. . ... ... : --- .. . P82 ... : ... .. . ... ... : ... .. . ... ...
ROW 06 : B-3 00 7 ... ... ... : C#4 00 C ... ... ... : ... .. . ... : ... .. . ... : ... .. . ... ... : F#2 01 5 P80 ... : ... .. . ... ... : ... .. . ... ...
ROW 07 : ... .. 6 ... ... ... : ... .. B ... ... ... : ... .. . ... : ... .. . ... : ... .. . ... ... : ... .. 4 ... ... : ... .. . ... ... : ... .. . ... ...
ROW 08 : ... .. . ... ... ... : ... .. A ... ... ... : ... .. . ... : ... .. . ... : ... .. . ... ... : ... .. 3 ... ... : ... .. . ... ... : ... .. . ... ...
ROW 09 : ... .. 4 ... ... ... : ... .. 8 ... ... ... : ... .. . ... : ... .. . ... : ... .. . ... ... : ... .. 2 ... ... : ... .. . ... ... : ... .. . ... ...
ROW 0A : ... .. . ... ... ... : ... .. . ... ... ... : ... .. . ... : ... .. . ... : ... .. . ... ... : ... .. . ... ... : ... .. . ... ... : ... .. . ... ...
ROW 0B : ... .. . ... ... ... : ... .. . ... ... ... : ... .. . ... : ... .. . ... : ... .. . ... ... : ... .. 1 ... ... : ... .. . ... ... : ... .. . ... ...
ROW 0C : ... .. . ... ... ... : ... .. . ... ... ... : ... .. . ... : ... .. . ... : ... .. . ... ... : ... .. . ... ... : ... .. . ... ... : ... .. . ... ...
ROW 0D : ... .. . ... ... ... : ... .. . ... ... ... : ... .. . ... : ... .. . ... : ... .. . ... ... : ... .. . ... ... : ... .. . ... ... : ... .. . ... ...
ROW 0E : ... .. . ... ... ... : ... .. . ... ... ... : ... .. . ... : ... .. . ... : ... .. . ... ... : ... .. . ... ... : ... .. . ... ... : ... .. . ... ...
ROW 0F : ... .. . ... ... ... : ... .. . ... ... ... : ... .. . ... : ... .. . ... : ... .. . ... ... : --- .. . P82 ... : ... .. . ... ... : ... .. . ... ...
ROW 10 : C#4 00 7 ... ... ... : B-3 00 C ... ... ... : G-2 00 . ... : ... .. . ... : ... .. . ... ... : ... .. . ... ... : B-2 01 6 ... ... : ... .. . ... ...
ROW 11 : ... .. 6 ... ... ... : ... .. B ... ... ... : ... .. . ... : ... .. . ... : ... .. . ... ... : ... .. . ... ... : ... .. 5 ... ... : ... .. . ... ...
ROW 12 : ... .. . ... ... ... : ... .. A ... ... ... : ... .. . ... : ... .. . ... : ... .. . ... ... : ... .. . ... ... : ... .. . ... ... : ... .. . ... ...
ROW 13 : ... .. 4 ... ... ... : ... .. 8 ... ... ... : ... .. . ... : ... .. . ... : ... .. . ... ... : ... .. . ... ... : ... .. 4 ... ... : ... .. . ... ...
ROW 14 : ... .. . ... ... ... : ... .. . ... ... ... : ... .. . ... : ... .. . ... : ... .. . ... ... : ... .. . ... ... : ... .. . ... ... : ... .. . ... ...
ROW 15 : ... .. . ... ... ... : ... .. 7 ... ... ... : ... .. . ... : ... .. . ... : ... .. . ... ... : ... .. . ... ... : ... .. . ... ... : ... .. . ... ...
ROW 16 : ... .. . ... ... ... : ... .. . ... ... ... : ... .. . ... : ... .. . ... : ... .. . ... ... : ... .. . ... ... : ... .. . ... ... : ... .. . ... ...
ROW 17 : ... .. . ... ... ... : ... .. . ... ... ... : ... .. . ... : ... .. . ... : ... .. . ... ... : ... .. . ... ... : ... .. 3 ... ... : ... .. . ... ...
ROW 18 : ... .. . ... ... ... : ... .. . ... ... ... : ... .. . ... : ... .. . ... : ... .. . ... ... : ... .. . ... ... : ... .. 2 ... ... : ... .. . ... ...
ROW 19 : ... .. . ... ... ... : ... .. . ... ... ... : ... .. . ... : ... .. . ... : ... .. . ... ... : ... .. . ... ... : ... .. . ... ... : ... .. . ... ...
ROW 1A : B-3 00 7 ... ... ... : ... .. . ... ... ... : ... .. . ... : ... .. . ... : ... .. . ... ... : ... .. . ... ... : A-2 01 6 ... ... : ... .. . ... ...
ROW 1B : ... .. 6 ... ... ... : ... .. . ... ... ... : ... .. . ... : ... .. . ... : ... .. . ... ... : ... .. . ... ... : ... .. 5 ... ... : ... .. . ... ...
ROW 1C : ... .. . ... ... ... : ... .. . ... ... ... : ... .. . ... : ... .. . ... : ... .. . ... ... : ... .. . ... ... : ... .. . ... ... : ... .. . ... ...
ROW 1D : ... .. 4 ... ... ... : ... .. . ... ... ... : ... .. . ... : ... .. . ... : ... .. . ... ... : ... .. . ... ... : ... .. 4 ... ... : ... .. . ... ...
ROW 1E : ... .. . ... ... ... : ... .. . ... ... ... : ... .. . ... : ... .. . ... : ... .. . ... ... : ... .. . ... ... : ... .. . ... ... : ... .. . ... ...
ROW 1F : ... .. . ... ... ... : ... .. 6 ... ... ... : ... .. . ... : ... .. . ... : ... .. . ... ... : ... .. . ... ... : ... .. . ... ... : ... .. . ... ...
ROW 20 : ... .. . ... ... ... : ... .. . ... ... ... : ... .. . ... : ... .. . ... : ... .. . ... ... : ... .. . ... ... : ... .. . ... ... : ... .. . ... ...
ROW 21 : ... .. . ... ... ... : ... .. . ... ... ... : ... .. . ... : ... .. . ... : ... .. . ... ... : ... .. . ... ... : ... .. 3 ... ... : ... .. . ... ...
ROW 22 : ... .. . ... ... ... : ... .. . ... ... ... : ... .. . ... : ... .. . ... : ... .. . ... ... : ... .. . ... ... : ... .. 2 ... ... : ... .. . ... ...
ROW 23 : ... .. . ... ... ... : ... .. . ... ... ... : ... .. . ... : ... .. . ... : ... .. . ... ... : ... .. . ... ... : ... .. . ... ... : ... .. . ... ...
ROW 24 : ... .. . ... ... ... : ... .. . ... ... ... : --- .. . ... : ... .. . ... : ... .. . ... ... : ... .. . ... ... : G-2 01 6 ... ... : ... .. . ... ...
ROW 25 : ... .. . ... ... ... : ... .. . ... ... ... : ... .. . ... : ... .. . ... : ... .. . ... ... : ... .. . ... ... : ... .. 5 ... ... : ... .. . ... ...
ROW 26 : ... .. . ... ... ... : ... .. . ... ... ... : ... .. . ... : ... .. . ... : ... .. . ... ... : ... .. . ... ... : ... .. . ... ... : ... .. . ... ...
ROW 27 : ... .. . ... ... ... : ... .. . ... ... ... : ... .. . ... : ... .. . ... : ... .. . ... ... : ... .. . ... ... : ... .. 4 ... ... : ... .. . ... ...
ROW 28 : ... .. . ... ... ... : ... .. . ... ... ... : ... .. . ... : ... .. . ... : ... .. . ... ... : ... .. . ... ... : ... .. . ... ... : ... .. . ... ...
ROW 29 : ... .. 3 ... ... ... : ... .. . ... ... ... : ... .. . ... : ... .. . ... : ... .. . ... ... : ... .. . ... ... : ... .. . ... ... : ... .. . ... ...
ROW 2A : ... .. . ... ... ... : ... .. . ... ... ... : ... .. . ... : ... .. . ... : ... .. . ... ... : ... .. . ... ... : ... .. . ... ... : ... .. . ... ...
ROW 2B : ... .. . ... ... ... : ... .. . ... ... ... : ... .. . ... : ... .. . ... : ... .. . ... ... : ... .. . ... ... : ... .. 3 ... ... : ... .. . ... ...
ROW 2C : ... .. . ... ... ... : ... .. . ... ... ... : ... .. . ... : ... .. . ... : ... .. . ... ... : ... .. . ... ... : ... .. 2 ... ... : ... .. . ... ...
ROW 2D : ... .. . ... ... ... : ... .. . ... ... ... : ... .. . ... : ... .. . ... : ... .. . ... ... : ... .. . ... ... : ... .. . ... ... : ... .. . ... ...
ROW 2E : ... .. . ... ... ... : ... .. . ... ... ... : ... .. . ... : ... .. . ... : ... .. . ... ... : ... .. . ... ... : F#2 01 6 ... ... : ... .. . ... ...
ROW 2F : ... .. . ... ... ... : ... .. . ... ... ... : ... .. . ... : ... .. . ... : ... .. . ... ... : ... .. . ... ... : ... .. 5 ... ... : ... .. . ... ...
ROW 30 : ... .. . ... ... ... : ... .. . ... ... ... : ... .. . ... : ... .. . ... : ... .. . ... ... : ... .. . ... ... : ... .. . ... ... : ... .. . ... ...
ROW 31 : ... .. . ... ... ... : ... .. . ... ... ... : ... .. . ... : ... .. . ... : ... .. . ... ... : ... .. . ... ... : ... .. 4 ... ... : ... .. . ... ...
ROW 32 : ... .. . ... ... ... : ... .. . ... ... ... : ... .. . ... : ... .. . ... : ... .. . ... ... : ... .. . ... ... : ... .. . ... ... : ... .. . ... ...
ROW 33 : ... .. . ... ... ... : ... .. . ... ... ... : ... .. . ... : ... .. . ... : ... .. . ... ... : ... .. . ... ... : ... .. . ... ... : ... .. . ... ...
ROW 34 : ... .. . ... ... ... : ... .. . ... ... ... : ... .. . ... : ... .. . ... : ... .. . ... ... : ... .. . ... ... : ... .. . ... ... : ... .. . ... ...
ROW 35 : ... .. . ... ... ... : ... .. . ... ... ... : ... .. . ... : ... .. . ... : ... .. . ... ... : ... .. . ... ... : ... .. 3 ... ... : ... .. . ... ...
ROW 36 : ... .. . ... ... ... : ... .. . ... ... ... : ... .. . ... : ... .. . ... : ... .. . ... ... : ... .. . ... ... : ... .. 2 ... ... : ... .. . ... ...
ROW 37 : ... .. . ... ... ... : ... .. . ... ... ... : ... .. . ... : ... .. . ... : ... .. . ... ... : ... .. . ... ... : ... .. . ... ... : ... .. . ... ...
ROW 38 : ... .. 2 ... ... ... : ... .. . ... ... ... : D-2 00 . ... : ... .. . ... : ... .. . ... ... : ... .. . ... ... : G-2 01 6 ... ... : ... .. . ... ...
ROW 39 : ... .. . ... ... ... : ... .. . ... ... ... : ... .. . ... : ... .. . ... : ... .. . ... ... : ... .. . ... ... : ... .. 5 ... ... : ... .. . ... ...
ROW 3A : ... .. . ... ... ... : ... .. . ... ... ... : ... .. . ... : ... .. . ... : ... .. . ... ... : ... .. . ... ... : ... .. . ... ... : ... .. . ... ...
ROW 3B : ... .. . ... ... ... : ... .. . ... ... ... : ... .. . ... : ... .. . ... : ... .. . ... ... : ... .. . ... ... : ... .. 4 ... ... : ... .. . ... ...
ROW 3C : ... .. . ... ... ... : ... .. . ... ... ... : ... .. . ... : ... .. . ... : ... .. . ... ... : ... .. . ... ... : ... .. . ... ... : ... .. . ... ...
ROW 3D : ... .. . ... ... ... : ... .. 5 ... ... ... : ... .. . ... : ... .. . ... : ... .. . ... ... : ... .. . ... ... : ... .. . ... ... : ... .. . ... ...
ROW 3E : ... .. . ... ... ... : ... .. . ... ... ... : ... .. . ... : ... .. . ... : ... .. . ... ... : ... .. . ... ... : ... .. . ... ... : ... .. . ... ...
ROW 3F : ... .. . ... ... ... : ... .. . ... ... ... : ... .. . ... : ... .. . ... : ... .. . ... ... : ... .. . ... ... : ... .. 3 ... ... : ... .. . ... ...
ROW 40 : ... .. . ... ... ... : ... .. . ... ... ... : ... .. . ... : ... .. . ... : ... .. . ... ... : ... .. . ... ... : ... .. 2 ... ... : ... .. . ... ...
ROW 41 : ... .. . ... ... ... : ... .. . ... ... ... : ... .. . ... : ... .. . ... : ... .. . ... ... : ... .. . ... ... : ... .. . ... ... : ... .. . ... ...
ROW 42 : ... .. . ... ... ... : ... .. . ... ... ... : --- .. . ... : ... .. . ... : ... .. . ... ... : ... .. . ... ... : B-2 01 6 ... ... : ... .. . ... ...
ROW 43 : ... .. . ... ... ... : ... .. . ... ... ... : ... .. . ... : ... .. . ... : ... .. . ... ... : ... .. . ... ... : ... .. 5 ... ... : ... .. . ... ...
ROW 44 : ... .. . ... ... ... : ... .. . ... ... ... : ... .. . ... : ... .. . ... : ... .. . ... ... : ... .. . ... ... : ... .. . ... ... : ... .. . ... ...
ROW 45 : ... .. . ... ... ... : ... .. . ... ... ... : ... .. . ... : ... .. . ... : ... .. . ... ... : ... .. . ... ... : ... .. 4 ... ... : ... .. . ... ...
ROW 46 : ... .. . ... ... ... : ... .. . ... ... ... : ... .. . ... : ... .. . ... : ... .. . ... ... : ... .. . ... ... : ... .. . ... ... : ... .. . ... ...
ROW 47 : ... .. . ... ... ... : ... .. 4 ... ... ... : ... .. . ... : ... .. . ... : ... .. . ... ... : ... .. . ... ... : ... .. . ... ... : ... .. . ... ...
ROW 48 : ... .. . ... ... ... : ... .. . ... ... ... : ... .. . ... : ... .. . ... : ... .. . ... ... : ... .. . ... ... : ... .. . ... ... : ... .. . ... ...
ROW 49 : ... .. . ... ... ... : ... .. . ... ... ... : ... .. . ... : ... .. . ... : ... .. . ... ... : ... .. . ... ... : ... .. 3 ... ... : ... .. . ... ...
ROW 4A : ... .. . ... ... ... : ... .. . ... ... ... : ... .. . ... : ... .. . ... : ... .. . ... ... : ... .. . ... ... : ... .. 2 ... ... : ... .. . ... ...
ROW 4B : ... .. . ... ... ... : ... .. . ... ... ... : ... .. . ... : ... .. . ... : ... .. . ... ... : ... .. . ... ... : ... .. . ... ... : ... .. . ... ...
ROW 4C : ... .. . ... ... ... : ... .. . ... ... ... : D-2 00 . ... : ... .. . ... : ... .. . ... ... : ... .. . ... ... : D-3 01 6 ... ... : ... .. . ... ...
ROW 4D : ... .. . ... ... ... : ... .. . ... ... ... : ... .. . ... : ... .. . ... : ... .. . ... ... : ... .. . ... ... : ... .. 5 ... ... : ... .. . ... ...
ROW 4E : ... .. . ... ... ... : ... .. . ... ... ... : ... .. . ... : ... .. . ... : ... .. . ... ... : ... .. . ... ... : ... .. . ... ... : ... .. . ... ...
ROW 4F : ... .. . ... ... ... : ... .. . ... ... ... : ... .. . ... : ... .. . ... : ... .. . ... ... : ... .. . ... ... : ... .. 4 ... ... : ... .. . ... ...
ROW 50 : ... .. . ... ... ... : ... .. . ... ... ... : ... .. . ... : ... .. . ... : ... .. . ... ... : ... .. . ... ... : ... .. . ... ... : ... .. . ... ...
ROW 51 : ... .. . ... ... ... : ... .. . ... ... ... : ... .. . ... : ... .. . ... : ... .. . ... ... : ... .. . ... ... : ... .. . ... ... : ... .. . ... ...
ROW 52 : ... .. . ... ... ... : ... .. . ... ... ... : ... .. . ... : ... .. . ... : ... .. . ... ... : ... .. . ... ... : ... .. . ... ... : ... .. . ... ...
ROW 53 : ... .. . ... ... ... : ... .. . ... ... ... : ... .. . ... : ... .. . ... : ... .. . ... ... : ... .. . ... ... : ... .. 3 ... ... : ... .. . ... ...
ROW 54 : ... .. . ... ... ... : ... .. . ... ... ... : ... .. . ... : ... .. . ... : ... .. . ... ... : ... .. . ... ... : ... .. 2 ... ... : ... .. . ... ...
ROW 55 : ... .. . ... ... ... : ... .. . ... ... ... : ... .. . ... : ... .. . ... : ... .. . ... ... : ... .. . ... ... : ... .. . ... ... : ... .. . ... ...
ROW 56 : ... .. . ... ... ... : ... .. . ... ... ... : ... .. . ... : ... .. . ... : ... .. . ... ... : ... .. . ... ... : F#3 01 6 ... ... : ... .. . ... ...
ROW 57 : ... .. . ... ... ... : ... .. . ... ... ... : ... .. . ... : ... .. . ... : ... .. . ... ... : ... .. . ... ... : ... .. 5 ... ... : ... .. . ... ...
ROW 58 : ... .. . ... ... ... : ... .. . ... ... ... : ... .. . ... : ... .. . ... : ... .. . ... ... : ... .. . ... ... : ... .. . ... ... : ... .. . ... ...
ROW 59 : ... .. . ... ... ... : ... .. . ... ... ... : ... .. . ... : ... .. . ... : ... .. . ... ... : ... .. . ... ... : ... .. 4 ... ... : ... .. . ... ...
ROW 5A : ... .. . ... ... ... : ... .. . ... ... ... : ... .. . ... : ... .. . ... : ... .. . ... ... : ... .. . ... ... : ... .. . ... ... : ... .. . ... ...
ROW 5B : ... .. . ... ... ... : ... .. . P82 ... ... : ... .. . ... : ... .. . ... : ... .. . ... ... : ... .. . ... ... : ... .. . ... ... : ... .. . ... ...
ROW 5C : ... .. . ... ... ... : ... .. . P84 ... ... : ... .. . ... : ... .. . ... : ... .. . ... ... : ... .. . ... ... : ... .. . ... ... : ... .. . ... ...
ROW 5D : ... .. . ... ... ... : ... .. . ... ... ... : ... .. . ... : ... .. . ... : ... .. . ... ... : ... .. . ... ... : ... .. 3 ... ... : ... .. . ... ...
ROW 5E : ... .. . ... ... ... : ... .. . P83 ... ... : ... .. . ... : ... .. . ... : ... .. . ... ... : ... .. . ... ... : ... .. 2 ... ... : ... .. . ... ...
ROW 5F : ... .. . ... ... ... : ... .. . P80 ... ... : ... .. . ... : ... .. . ... : ... .. . ... ... : ... .. . ... ... : ... .. . ... ... : ... .. . ... ...
ROW 60 : F#3 00 6 P80 ... ... : ... .. . P7F ... ... : G-1 00 . ... : ... .. . ... : ... .. . ... ... : ... .. . ... ... : G-3 01 6 ... ... : F#3 01 5 ... ...
ROW 61 : ... .. 5 ... ... ... : ... .. . P7C ... ... : ... .. . ... : ... .. . ... : ... .. . ... ... : ... .. . ... ... : ... .. 5 ... ... : ... .. 6 ... ...
ROW 62 : ... .. . ... ... ... : ... .. . ... ... ... : ... .. . ... : ... .. . ... : ... .. . ... ... : ... .. . ... ... : ... .. . ... ... : ... .. . ... ...
ROW 63 : ... .. . ... ... ... : ... .. . P7D ... ... : ... .. . ... : ... .. . ... : ... .. . ... ... : ... .. . ... ... : ... .. . ... ... : ... .. 5 ... ...
ROW 64 : ... .. 4 ... ... ... : ... .. . P7F ... ... : ... .. . ... : ... .. . ... : ... .. . ... ... : ... .. . ... ... : ... .. . ... ... : ... .. . ... ...
ROW 65 : ... .. 3 ... ... ... : ... .. . P80 ... ... : ... .. . ... : ... .. . ... : ... .. . ... ... : ... .. . ... ... : ... .. 4 ... ... : ... .. . ... ...
ROW 66 : ... .. . ... ... ... : ... .. . P83 ... ... : ... .. . ... : ... .. . ... : ... .. . ... ... : ... .. . ... ... : ... .. . ... ... : ... .. . ... ...
ROW 67 : ... .. . ... ... ... : ... .. . P84 ... ... : ... .. . ... : ... .. . ... : ... .. . ... ... : ... .. . ... ... : ... .. 3 ... ... : ... .. . ... ...
ROW 68 : ... .. 2 ... ... ... : ... .. . ... ... ... : ... .. . ... : ... .. . ... : ... .. . ... ... : ... .. . ... ... : ... .. 2 ... ... : ... .. . ... ...
ROW 69 : ... .. . ... ... ... : ... .. . P82 ... ... : ... .. . ... : ... .. . ... : ... .. . ... ... : ... .. . ... ... : ... .. . ... ... : ... .. . ... ...
ROW 6A : E-3 00 6 ... ... ... : ... .. . P80 ... ... : ... .. . ... : ... .. . ... : ... .. . ... ... : ... .. . ... ... : ... .. 1 ... ... : ... .. 3 ... ...
ROW 6B : ... .. 5 ... ... ... : ... .. . P7E ... ... : ... .. . ... : ... .. . ... : ... .. . ... ... : ... .. . ... ... : ... .. . ... ... : ... .. . ... ...
ROW 6C : ... .. . ... ... ... : ... .. . P7C ... ... : ... .. . ... : ... .. . ... : ... .. . ... ... : ... .. . ... ... : ... .. . ... ... : ... .. . ... ...
ROW 6D : ... .. . ... ... ... : ... .. . ... ... ... : ... .. . ... : ... .. . ... : ... .. . ... ... : ... .. . ... ... : ... .. . ... ... : ... .. . ... ...
ROW 6E : ... .. 4 ... ... ... : ... .. . P7D ... ... : ... .. . ... : ... .. . ... : ... .. . ... ... : ... .. . ... ... : ... .. . ... ... : ... .. . ... ...
ROW 6F : ... .. 3 ... ... ... : ... .. . P80 ... ... : ... .. . ... : ... .. . ... : ... .. . ... ... : ... .. . ... ... : ... .. . ... ... : ... .. . ... ...
ROW 70 : ... .. . ... ... ... : ... .. . P81 ... ... : ... .. . ... : ... .. . ... : ... .. . ... ... : ... .. . ... ... : ... .. . ... ... : ... .. . ... ...
ROW 71 : ... .. . ... ... ... : ... .. . P84 ... ... : ... .. . ... : ... .. . ... : ... .. . ... ... : ... .. . ... ... : ... .. . ... ... : ... .. . ... ...
ROW 72 : ... .. 2 ... ... ... : ... .. . ... ... ... : ... .. . ... : ... .. . ... : ... .. . ... ... : ... .. . ... ... : ... .. . ... ... : ... .. . ... ...
ROW 73 : ... .. . ... ... ... : ... .. . P83 ... ... : ... .. . ... : ... .. . ... : ... .. . ... ... : ... .. . ... ... : ... .. . ... ... : ... .. . ... ...
ROW 74 : F#3 00 6 ... ... ... : ... .. . P81 ... ... : --- .. . ... : ... .. . ... : ... .. . ... ... : ... .. . ... ... : A-3 01 4 ... ... : ... .. 4 ... ...
ROW 75 : ... .. 5 ... ... ... : ... .. . P80 ... ... : ... .. . ... : ... .. . ... : ... .. . ... ... : ... .. . ... ... : ... .. . ... ... : ... .. . ... ...
ROW 76 : ... .. . ... ... ... : ... .. . P7D ... ... : ... .. . ... : ... .. . ... : ... .. . ... ... : ... .. . ... ... : ... .. . ... ... : ... .. . ... ...
ROW 77 : ... .. 4 ... ... ... : ... .. . P7C ... ... : ... .. . ... : ... .. . ... : ... .. . ... ... : ... .. . ... ... : ... .. 3 ... ... : ... .. . ... ...
ROW 78 : ... .. 3 ... ... ... : ... .. . ... ... ... : ... .. . ... : ... .. . ... : ... .. . ... ... : ... .. . ... ... : ... .. . ... ... : ... .. . ... ...
ROW 79 : ... .. . ... ... ... : ... .. 5 P7E ... ... : ... .. . ... : ... .. . ... : ... .. . ... ... : ... .. . ... ... : ... .. . ... ... : ... .. . ... ...
ROW 7A : ... .. . ... ... ... : ... .. . P80 ... ... : ... .. . ... : ... .. . ... : ... .. . ... ... : ... .. . ... ... : ... .. . ... ... : ... .. . ... ...
ROW 7B : ... .. . ... ... ... : ... .. . P82 ... ... : ... .. . ... : ... .. . ... : ... .. . ... ... : ... .. . ... ... : ... .. . ... ... : ... .. . ... ...
ROW 7C : ... .. 2 ... ... ... : ... .. . P84 ... ... : ... .. . ... : ... .. . ... : ... .. . ... ... : ... .. . ... ... : ... .. 2 ... ... : ... .. . ... ...
ROW 7D : ... .. . ... ... ... : ... .. . ... ... ... : ... .. . ... : ... .. . ... : ... .. . ... ... : ... .. . ... ... : ... .. . ... ... : ... .. . ... ...
ROW 7E : ... .. . ... ... ... : ... .. . P83 ... ... : ... .. . ... : ... .. . ... : ... .. . ... ... : ... .. . ... ... : ... .. . ... ... : ... .. 5 ... ...
ROW 7F : ... .. . ... ... ... : ... .. . P80 ... ... : ... .. . ... : ... .. . ... : ... .. . ... ... : ... .. . ... ... : ... .. . ... ... : ... .. . ... ...
ROW 80 : ... .. 1 ... ... ... : ... .. . P7F ... ... : ... .. . ... : ... .. . ... : ... .. . ... ... : ... .. . ... ... : ... .. . ... ... : ... .. . ... ...
ROW 81 : ... .. . ... ... ... : ... .. . P7C ... ... : ... .. . ... : ... .. . ... : ... .. . ... ... : ... .. . ... ... : ... .. . ... ... : ... .. . ... ...
ROW 82 : ... .. . ... ... ... : ... .. . ... ... ... : ... .. . ... : ... .. . ... : ... .. . ... ... : ... .. . ... ... : ... .. 1 ... ... : ... .. . ... ...
ROW 83 : ... .. . ... ... ... : ... .. . P7D ... ... : ... .. . ... : ... .. . ... : ... .. . ... ... : ... .. . ... ... : ... .. . ... ... : ... .. 6 ... ...
ROW 84 : ... .. 0 ... V00 ... : ... .. . P7F ... ... : ... .. . ... : ... .. . ... : ... .. . ... ... : ... .. . ... ... : ... .. . ... ... : ... .. . ... ...
ROW 85 : ... .. . ... ... ... : ... .. . P80 ... ... : ... .. . ... : ... .. . ... : ... .. . ... ... : ... .. . ... ... : ... .. . ... ... : ... .. . ... ...
ROW 86 : ... .. . ... ... ... : ... .. . P83 ... ... : ... .. . ... : ... .. . ... : ... .. . ... ... : ... .. . ... ... : ... .. . ... ... : ... .. . ... ...
ROW 87 : ... .. . ... ... ... : ... .. . P84 ... ... : ... .. . ... : ... .. . ... : ... .. . ... ... : ... .. . ... ... : ... .. . ... ... : ... .. . ... ...
ROW 88 : ... .. . ... ... ... : ... .. 6 ... ... ... : G-2 00 . ... : ... .. . ... : ... .. . ... ... : ... .. . ... ... : F#3 01 6 ... ... : ... .. 4 ... ...
ROW 89 : ... .. . ... ... ... : ... .. . P82 ... ... : ... .. . ... : ... .. . ... : ... .. . ... ... : ... .. . ... ... : ... .. 5 ... ... : ... .. 6 ... ...
ROW 8A : ... .. . ... ... ... : ... .. . P80 ... ... : ... .. . ... : ... .. . ... : ... .. . ... ... : ... .. . ... ... : ... .. . ... ... : ... .. . ... ...
ROW 8B : ... .. . ... ... ... : ... .. . P7E ... ... : ... .. . ... : ... .. . ... : ... .. . ... ... : ... .. . ... ... : ... .. 4 ... ... : ... .. 5 ... ...
ROW 8C : ... .. . ... ... ... : ... .. . P7C ... ... : ... .. . ... : ... .. . ... : ... .. . ... ... : ... .. . ... ... : ... .. . ... ... : ... .. . ... ...
ROW 8D : ... .. . ... ... ... : ... .. . ... ... ... : ... .. . ... : ... .. . ... : ... .. . ... ... : ... .. . ... ... : ... .. 3 ... ... : ... .. 4 ... ...
ROW 8E : ... .. . ... ... ... : ... .. . P7D ... ... : ... .. . ... : ... .. . ... : ... .. . ... ... : ... .. . ... ... : ... .. . ... ... : ... .. . ... ...
ROW 8F : ... .. . ... ... ... : ... .. . P80 ... ... : ... .. . ... : ... .. . ... : ... .. . ... ... : ... .. . ... ... : ... .. . ... ... : ... .. . ... ...
ROW 90 : ... .. . ... ... ... : ... .. . P81 ... ... : ... .. . ... : ... .. . ... : ... .. . ... ... : ... .. . ... ... : ... .. 2 ... ... : ... .. . ... ...
ROW 91 : ... .. . ... ... ... : ... .. . P84 ... ... : ... .. . ... : ... .. . ... : ... .. . ... ... : ... .. . ... ... : ... .. . ... ... : ... .. . ... ...
ROW 92 : ... .. . ... ... ... : ... .. . ... ... ... : ... .. . ... : ... .. . ... : ... .. . ... ... : ... .. . ... ... : ... .. 1 ... ... : ... .. 3 ... ...
ROW 93 : ... .. . ... ... ... : ... .. . P83 ... ... : ... .. . ... : ... .. . ... : ... .. . ... ... : ... .. . ... ... : ... .. . ... ... : ... .. . ... ...
ROW 94 : ... .. . ... ... ... : ... .. . P81 ... ... : ... .. . ... : ... .. . ... : ... .. . ... ... : ... .. . ... ... : ... .. . ... ... : ... .. . ... ...
ROW 95 : ... .. . ... ... ... : ... .. . P80 ... ... : ... .. . ... : ... .. . ... : ... .. . ... ... : ... .. . ... ... : ... .. . ... ... : ... .. . ... ...
ROW 96 : ... .. . ... ... ... : ... .. . P7D ... ... : ... .. . ... : ... .. . ... : ... .. . ... ... : ... .. . ... ... : ... .. . ... ... : ... .. . ... ...
ROW 97 : ... .. . ... ... ... : ... .. . P7C ... ... : ... .. . ... : ... .. . ... : ... .. . ... ... : ... .. . ... ... : ... .. . ... ... : ... .. . ... ...
ROW 98 : ... .. . ... ... ... : ... .. . ... ... ... : ... .. . ... : ... .. . ... : ... .. . ... ... : ... .. . ... ... : ... .. . ... ... : ... .. . ... ...
ROW 99 : ... .. . ... ... ... : ... .. . P7E ... ... : ... .. . ... : ... .. . ... : ... .. . ... ... : ... .. . ... ... : ... .. . ... ... : ... .. . ... ...
ROW 9A : ... .. . ... ... ... : ... .. . P80 ... ... : ... .. . ... : ... .. . ... : ... .. . ... ... : ... .. . ... ... : ... .. . ... ... : ... .. . ... ...
ROW 9B : ... .. . ... ... ... : ... .. . P82 ... ... : ... .. . ... : ... .. . ... : ... .. . ... ... : ... .. . ... ... : ... .. . ... ... : ... .. . ... ...
ROW 9C : ... .. . ... ... ... : ... .. . P84 ... ... : --- .. . ... : ... .. . ... : ... .. . ... ... : ... .. . ... ... : E-3 01 3 ... ... : ... .. 2 ... ...
ROW 9D : ... .. . ... ... ... : ... .. . ... ... ... : ... .. . ... : ... .. . ... : ... .. . ... ... : ... .. . ... ... : ... .. 2 ... ... : ... .. . ... ...
ROW 9E : ... .. . ... ... ... : ... .. . P83 ... ... : ... .. . ... : ... .. . ... : ... .. . ... ... : ... .. . ... ... : ... .. . ... ... : ... .. . ... ...
ROW 9F : ... .. . ... ... ... : ... .. . P80 ... ... : ... .. . ... : ... .. . ... : ... .. . ... ... : ... .. . ... ... : ... .. . ... ... : ... .. . ... ...
ROW A0 : ... .. . ... ... ... : ... .. . P7F ... ... : ... .. . ... : ... .. . ... : ... .. . ... ... : ... .. . ... ... : ... .. . ... ... : ... .. . ... ...
ROW A1 : ... .. . ... ... ... : ... .. 7 P7C ... ... : ... .. . ... : ... .. . ... : ... .. . ... ... : ... .. . ... ... : ... .. 1 ... ... : ... .. 1 ... ...
ROW A2 : ... .. . ... ... ... : ... .. . ... ... ... : ... .. . ... : ... .. . ... : ... .. . ... ... : ... .. . ... ... : ... .. . ... ... : ... .. . ... ...
ROW A3 : ... .. . ... ... ... : ... .. . P7D ... ... : ... .. . ... : ... .. . ... : ... .. . ... ... : ... .. . ... ... : ... .. . ... ... : ... .. . ... ...
ROW A4 : ... .. . ... ... ... : ... .. . P7F ... ... : ... .. . ... : ... .. . ... : ... .. . ... ... : ... .. . ... ... : ... .. . ... ... : ... .. . ... ...
ROW A5 : ... .. . ... ... ... : ... .. . P80 ... ... : ... .. . ... : ... .. . ... : ... .. . ... ... : ... .. . ... ... : ... .. . ... ... : ... .. . ... ...
ROW A6 : ... .. . ... ... ... : ... .. . P83 ... ... : ... .. . ... : ... .. . ... : ... .. . ... ... : ... .. . ... ... : ... .. . ... ... : ... .. . ... ...
ROW A7 : ... .. . ... ... ... : ... .. . P84 ... ... : ... .. . ... : ... .. . ... : ... .. . ... ... : ... .. . ... ... : ... .. . ... ... : ... .. . ... ...
ROW A8 : ... .. . ... ... ... : ... .. . ... ... ... : ... .. . ... : ... .. . ... : ... .. . ... ... : ... .. . ... ... : ... .. . ... ... : ... .. . ... ...
ROW A9 : ... .. . ... ... ... : ... .. . P82 ... ... : ... .. . ... : ... .. . ... : ... .. . ... ... : ... .. . ... ... : ... .. . ... ... : ... .. . ... ...
ROW AA : ... .. . ... ... ... : ... .. . P80 ... ... : ... .. . ... : ... .. . ... : ... .. . ... ... : ... .. . ... ... : ... .. . ... ... : ... .. . ... ...
ROW AB : ... .. . ... ... ... : ... .. . P7E ... ... : ... .. . ... : ... .. . ... : ... .. . ... ... : ... .. . ... ... : ... .. . ... ... : ... .. . ... ...
ROW AC : ... .. . ... ... ... : ... .. . P7C ... ... : ... .. . ... : ... .. . ... : ... .. . ... ... : ... .. . ... ... : ... .. . ... ... : ... .. . ... ...
ROW AD : ... .. . ... ... ... : ... .. . ... ... ... : ... .. . ... : ... .. . ... : ... .. . ... ... : ... .. . ... ... : ... .. . ... ... : ... .. . ... ...
ROW AE : ... .. . ... ... ... : ... .. . P7D ... ... : ... .. . ... : ... .. . ... : ... .. . ... ... : ... .. . ... ... : ... .. . ... ... : ... .. . ... ...
ROW AF : ... .. . ... ... ... : ... .. . P80 ... ... : ... .. . ... : ... .. . ... : ... .. . ... ... : ... .. . ... ... : ... .. . ... ... : ... .. . ... ...
ROW B0 : ... .. . ... ... ... : ... .. 8 P81 ... ... : A-2 00 . ... : ... .. . ... : ... .. . ... ... : ... .. . ... ... : C#3 01 6 ... ... : E-3 01 5 ... ...
ROW B1 : ... .. . ... ... ... : ... .. . P84 ... ... : ... .. . ... : ... .. . ... : ... .. . ... ... : ... .. . ... ... : ... .. 5 ... ... : ... .. 6 ... ...
ROW B2 : ... .. . ... ... ... : ... .. . ... ... ... : ... .. . ... : ... .. . ... : ... .. . ... ... : ... .. . ... ... : ... .. . ... ... : ... .. . ... ...
ROW B3 : ... .. . ... ... ... : ... .. . P83 ... ... : ... .. . ... : ... .. . ... : ... .. . ... ... : ... .. . ... ... : ... .. . ... ... : ... .. 5 ... ...
ROW B4 : ... .. . ... ... ... : ... .. . P81 ... ... : ... .. . ... : ... .. . ... : ... .. . ... ... : ... .. . ... ... : ... .. . ... ... : ... .. . ... ...
ROW B5 : ... .. . ... ... ... : ... .. . P80 ... ... : ... .. . ... : ... .. . ... : ... .. . ... ... : ... .. . ... ... : ... .. 4 ... ... : ... .. . ... ...
ROW B6 : ... .. . ... ... ... : ... .. . P7D ... ... : ... .. . ... : ... .. . ... : ... .. . ... ... : ... .. . ... ... : ... .. . ... ... : ... .. . ... ...
ROW B7 : ... .. . ... ... ... : ... .. . P7C ... ... : ... .. . ... : ... .. . ... : ... .. . ... ... : ... .. . ... ... : ... .. 3 ... ... : ... .. . ... ...
ROW B8 : ... .. . ... ... ... : ... .. . ... ... ... : ... .. . ... : ... .. . ... : ... .. . ... ... : ... .. . ... ... : ... .. 2 ... ... : ... .. . ... ...
ROW B9 : ... .. . ... ... ... : ... .. . P7E ... ... : ... .. . ... : ... .. . ... : ... .. . ... ... : ... .. . ... ... : ... .. . ... ... : ... .. . ... ...
ROW BA : ... .. . ... ... ... : ... .. . P80 ... ... : ... .. . ... : ... .. . ... : ... .. . ... ... : ... .. . ... ... : ... .. 1 ... ... : ... .. 3 ... ...
ROW BB : ... .. . ... ... ... : ... .. . P82 ... ... : ... .. . ... : ... .. . ... : ... .. . ... ... : ... .. . ... ... : ... .. . ... ... : ... .. . ... ...
ROW BC : ... .. . ... ... ... : ... .. . P84 ... ... : ... .. . ... : ... .. . ... : ... .. . ... ... : ... .. . ... ... : ... .. . ... ... : ... .. . ... ...
ROW BD : ... .. . ... ... ... : ... .. . ... ... ... : ... .. . ... : ... .. . ... : ... .. . ... ... : ... .. . ... ... : ... .. . ... ... : ... .. . ... ...
ROW BE : ... .. . ... ... ... : ... .. . P83 ... ... : ... .. . ... : ... .. . ... : ... .. . ... ... : ... .. . ... ... : ... .. . ... ... : ... .. . ... ...
ROW BF : ... .. . ... ... ... : ... .. . P80 ... ... : --- .. . ... : ... .. . ... : ... .. . ... ... : ... .. . ... ... : ... .. . ... ... : ... .. . ... ...
ROW C0 : ... .. . ... ... ... : ... .. . P7F ... ... : ... .. . ... : ... .. . ... : ... .. . ... ... : ... .. . ... ... : ... .. . ... ... : ... .. . ... ...
ROW C1 : ... .. . ... ... ... : ... .. . P7C ... ... : ... .. . ... : ... .. . ... : ... .. . ... ... : ... .. . ... ... : ... .. . ... ... : ... .. . ... ...
ROW C2 : ... .. . ... ... ... : ... .. . ... ... ... : ... .. . ... : ... .. . ... : ... .. . ... ... : ... .. . ... ... : ... .. . ... ... : ... .. . ... ...
ROW C3 : ... .. . ... ... ... : ... .. . P7D ... ... : ... .. . ... : ... .. . ... : ... .. . ... ... : ... .. . ... ... : ... .. . ... ... : ... .. . ... ...
ROW C4 : ... .. . ... ... ... : ... .. 9 P7F ... ... : F#2 00 . ... : ... .. . ... : ... .. . ... ... : ... .. . ... ... : ... .. 4 ... ... : ... .. 4 ... ...
ROW C5 : ... .. . ... ... ... : ... .. . P80 ... ... : ... .. . ... : ... .. . ... : ... .. . ... ... : ... .. . ... ... : ... .. . ... ... : ... .. . ... ...
ROW C6 : ... .. . ... ... ... : ... .. . P83 ... ... : ... .. . ... : ... .. . ... : ... .. . ... ... : ... .. . ... ... : ... .. . ... ... : ... .. . ... ...
ROW C7 : ... .. . ... ... ... : ... .. . P84 ... ... : ... .. . ... : ... .. . ... : ... .. . ... ... : ... .. . ... ... : ... .. 3 ... ... : ... .. . ... ...
ROW C8 : ... .. . ... ... ... : ... .. . ... ... ... : ... .. . ... : ... .. . ... : ... .. . ... ... : ... .. . ... ... : ... .. . ... ... : ... .. . ... ...
ROW C9 : ... .. . ... ... ... : ... .. . P82 ... ... : ... .. . ... : ... .. . ... : ... .. . ... ... : ... .. . ... ... : ... .. . ... ... : ... .. . ... ...
ROW CA : ... .. . ... ... ... : ... .. 1 P80 ... ... : ... .. . ... : ... .. . ... : ... .. . ... ... : ... .. . ... ... : ... .. . ... ... : ... .. . ... ...
ROW CB : ... .. . ... ... ... : ... .. . P7E ... ... : ... .. . ... : ... .. . ... : ... .. . ... ... : ... .. . ... ... : ... .. . ... ... : ... .. . ... ...
ROW CC : ... .. . ... ... ... : ... .. . P7C ... ... : ... .. . ... : ... .. . ... : ... .. . ... ... : ... .. . ... ... : ... .. 2 ... ... : ... .. . ... ...
ROW CD : ... .. . ... ... ... : ... .. . ... ... ... : ... .. . ... : ... .. . ... : ... .. . ... ... : ... .. . ... ... : ... .. . ... ... : ... .. . ... ...
ROW CE : ... .. . ... ... ... : ... .. . P7D ... ... : ... .. . ... : ... .. . ... : ... .. . ... ... : ... .. . ... ... : ... .. . ... ... : ... .. 5 ... ...
ROW CF : ... .. . ... ... ... : ... .. . P80 ... ... : ... .. . ... : ... .. . ... : ... .. . ... ... : ... .. . ... ... : ... .. . ... ... : ... .. . ... ...
ROW D0 : ... .. . ... ... ... : ... .. 0 ... V00 ... : ... .. . ... : ... .. . ... : ... .. . ... ... : ... .. . ... ... : ... .. . ... ... : ... .. . ... ...
ROW D1 : ... .. . ... ... ... : ... .. . ... ... ... : ... .. . ... : ... .. . ... : ... .. . ... ... : ... .. . ... ... : ... .. . ... ... : ... .. . ... ...
ROW D2 : ... .. . ... ... ... : ... .. . ... ... ... : ... .. . ... : ... .. . ... : ... .. . ... ... : ... .. . ... ... : ... .. 1 ... ... : ... .. . ... ...
ROW D3 : ... .. . ... ... ... : ... .. . ... ... ... : ... .. . ... : ... .. . ... : ... .. . ... ... : ... .. . ... ... : ... .. . ... ... : ... .. 6 ... ...
ROW D4 : ... .. . ... ... ... : ... .. . ... ... ... : ... .. . ... : ... .. . ... : ... .. . ... ... : ... .. . ... ... : ... .. . ... ... : ... .. . ... ...
ROW D5 : ... .. . ... ... ... : ... .. . ... ... ... : ... .. . ... : ... .. . ... : ... .. . ... ... : ... .. . ... ... : ... .. . ... ... : ... .. . ... ...
ROW D6 : ... .. . ... ... ... : ... .. . ... ... ... : ... .. . ... : ... .. . ... : ... .. . ... ... : ... .. . ... ... : ... .. . ... ... : ... .. . ... ...
ROW D7 : ... .. . ... ... ... : ... .. . ... ... ... : ... .. . ... : ... .. . ... : ... .. . ... ... : ... .. . ... ... : ... .. . ... ... : ... .. . ... ...
ROW D8 : ... .. . ... ... ... : ... .. . ... ... ... : ... .. . ... : ... .. . ... : ... .. . ... ... : ... .. . ... ... : A-2 01 6 ... ... : ... .. 5 P84 ...
ROW D9 : ... .. . ... ... ... : ... .. . ... ... ... : ... .. . ... : ... .. . ... : ... .. . ... ... : ... .. . ... ... : ... .. 5 ... ... : ... .. . P86 ...
ROW DA : ... .. . ... ... ... : ... .. . ... ... ... : ... .. . ... : ... .. . ... : ... .. . ... ... : ... .. . ... ... : ... .. . ... ... : ... .. . P87 ...
ROW DB : ... .. . ... ... ... : ... .. . ... ... ... : ... .. . ... : ... .. . ... : ... .. . ... ... : ... .. . ... ... : ... .. 4 ... ... : ... .. . ... ...
ROW DC : ... .. . ... ... ... : ... .. . ... ... ... : ... .. . ... : ... .. . ... : ... .. . ... ... : ... .. . ... ... : ... .. . ... ... : ... .. . P84 ...
ROW DD : ... .. . ... ... ... : ... .. . ... ... ... : ... .. . ... : ... .. . ... : ... .. . ... ... : ... .. . ... ... : ... .. 3 ... ... : ... .. 4 P81 ...
ROW DE : ... .. . ... ... ... : ... .. . ... ... ... : ... .. . ... : ... .. . ... : ... .. . ... ... : ... .. . ... ... : ... .. . ... ... : ... .. . P7F ...
ROW DF : ... .. . ... ... ... : ... .. . ... ... ... : ... .. . ... : ... .. . ... : ... .. . ... ... : ... .. . ... ... : ... .. . ... ... : ... .. . P7D ...
ROW E0 : ... .. . ... ... ... : ... .. . ... ... ... : ... .. . ... : ... .. . ... : ... .. . ... ... : ... .. . ... ... : ... .. 2 ... ... : ... .. . P7B ...
ROW E1 : ... .. . ... ... ... : ... .. . ... ... ... : ... .. . ... : ... .. . ... : ... .. . ... ... : ... .. . ... ... : ... .. . ... ... : ... .. . ... ...
ROW E2 : ... .. . ... ... ... : ... .. . ... ... ... : E-2 00 . ... : ... .. . ... : ... .. . ... ... : ... .. . ... ... : ... .. 1 ... ... : ... .. 3 P7D ...
ROW E3 : ... .. . ... ... ... : ... .. . ... ... ... : ... .. . ... : ... .. . ... : ... .. . ... ... : ... .. . ... ... : ... .. . ... ... : ... .. . P7F ...
ROW E4 : ... .. . ... ... ... : ... .. . ... ... ... : ... .. . ... : ... .. . ... : ... .. . ... ... : ... .. . ... ... : ... .. . ... ... : ... .. . P81 ...
ROW E5 : ... .. . ... ... ... : ... .. . ... ... ... : ... .. . ... : ... .. . ... : ... .. . ... ... : ... .. . ... ... : ... .. . ... ... : ... .. . P84 ...
ROW E6 : ... .. . ... ... ... : ... .. . ... ... ... : ... .. . ... : ... .. . ... : ... .. . ... ... : ... .. . ... ... : ... .. . ... ... : ... .. . P87 ...
ROW E7 : ... .. . ... ... ... : ... .. . ... ... ... : --- .. . ... : ... .. . ... : ... .. . ... ... : ... .. . ... ... : ... .. . ... ... : ... .. . ... ...
ROW E8 : ... .. . ... ... ... : ... .. . ... ... ... : ... .. . ... : ... .. . ... : ... .. . ... ... : ... .. . ... ... : ... .. . ... ... : ... .. . P86 ...
ROW E9 : ... .. . ... ... ... : ... .. . ... ... ... : ... .. . ... : ... .. . ... : ... .. . ... ... : ... .. . ... ... : ... .. . ... ... : ... .. . P84 ...
ROW EA : ... .. . ... ... ... : ... .. . ... ... ... : ... .. . ... : ... .. . ... : ... .. . ... ... : ... .. . ... ... : ... .. . ... ... : ... .. . P81 ...
ROW EB : ... .. . ... ... ... : ... .. . ... ... ... : ... .. . ... : ... .. . ... : ... .. . ... ... : ... .. . ... ... : ... .. . ... ... : ... .. . P7F ...
ROW EC : ... .. . ... ... ... : ... .. . ... ... ... : D#2 00 . ... : ... .. . ... : ... .. . ... ... : ... .. . ... ... : C#3 01 3 ... ... : --- .. . P84 ...
ROW ED : ... .. . ... ... ... : ... .. . ... ... ... : ... .. . ... : ... .. . ... : ... .. . ... ... : ... .. . ... ... : ... .. 2 ... ... : ... .. . ... ...
ROW EE : ... .. . ... ... ... : ... .. . ... ... ... : ... .. . ... : ... .. . ... : ... .. . ... ... : ... .. . ... ... : ... .. . ... ... : ... .. . ... ...
ROW EF : ... .. . ... ... ... : ... .. . ... ... ... : ... .. . ... : ... .. . ... : ... .. . ... ... : ... .. . ... ... : ... .. . ... ... : ... .. . ... ...
ROW F0 : ... .. . ... ... ... : ... .. . ... ... ... : ... .. . ... : ... .. . ... : ... .. . ... ... : ... .. . ... ... : ... .. . ... ... : ... .. . ... ...
ROW F1 : ... .. . ... ... ... : ... .. . ... ... ... : --- .. . ... : ... .. . ... : ... .. . ... ... : ... .. . ... ... : ... .. 1 ... ... : ... .. . ... ...
ROW F2 : ... .. . ... ... ... : ... .. . ... ... ... : ... .. . ... : ... .. . ... : ... .. . ... ... : ... .. . ... ... : ... .. . ... ... : ... .. . ... ...
ROW F3 : ... .. . ... ... ... : ... .. . ... ... ... : ... .. . ... : ... .. . ... : ... .. . ... ... : ... .. . ... ... : ... .. . ... ... : ... .. . ... ...
ROW F4 : ... .. . ... ... ... : ... .. . ... ... ... : ... .. . ... : ... .. . ... : ... .. . ... ... : ... .. . ... ... : ... .. . ... ... : ... .. . ... ...
ROW F5 : ... .. . ... ... ... : ... .. . ... ... ... : ... .. . ... : ... .. . ... : ... .. . ... ... : ... .. . ... ... : ... .. . ... ... : ... .. . ... ...
ROW F6 : ... .. . ... ... ... : ... .. . ... ... ... : C#2 00 . ... : ... .. . ... : ... .. . ... ... : ... .. . ... ... : ... .. . ... ... : ... .. . ... ...
ROW F7 : ... .. . ... ... ... : ... .. . ... ... ... : ... .. . ... : ... .. . ... : ... .. . ... ... : ... .. . ... ... : ... .. . ... ... : ... .. . ... ...
ROW F8 : ... .. . ... ... ... : ... .. . ... ... ... : ... .. . ... : ... .. . ... : ... .. . ... ... : ... .. . ... ... : ... .. . ... ... : ... .. . ... ...
ROW F9 : ... .. . ... ... ... : ... .. . ... ... ... : ... .. . ... : ... .. . ... : ... .. . ... ... : ... .. . ... ... : ... .. . ... ... : ... .. . ... ...
ROW FA : ... .. . ... ... ... : ... .. . ... ... ... : ... .. . ... : ... .. . ... : ... .. . ... ... : ... .. . ... ... : ... .. . ... ... : ... .. . ... ...
ROW FB : ... .. . ... ... ... : ... .. . ... ... ... : --- .. . ... : ... .. . ... : ... .. . ... ... : ... .. . ... ... : ... .. . ... ... : ... .. . ... ...
ROW FC : ... .. . ... ... ... : ... .. . ... ... ... : ... .. . ... : ... .. . ... : ... .. . ... ... : ... .. . ... ... : ... .. . ... ... : ... .. . ... ...
ROW FD : ... .. . ... ... ... : ... .. . ... ... ... : ... .. . ... : ... .. . ... : ... .. . ... ... : ... .. . ... ... : ... .. . ... ... : ... .. . ... ...
ROW FE : ... .. . ... ... ... : ... .. . ... ... ... : ... .. . ... : ... .. . ... : ... .. . ... ... : ... .. . ... ... : ... .. . ... ... : ... .. . ... ...
ROW FF : ... .. . ... ... ... : ... .. . ... ... ... : ... .. . ... : ... .. . ... : ... .. . ... ... : ... .. . ... ... : ... .. . ... ... : ... .. . ... ...

PATTERN 05
ROW 00 : ... .. . ... ... ... : ... .. . ... ... ... : B-1 00 . ... : ... .. . ... : ... .. . ... ... : ... .. . ... ... : --- .. . P83 ... : D#3 01 0 P81 ...
ROW 01 : ... .. . ... ... ... : ... .. . ... ... ... : ... .. . ... : ... .. . ... : ... .. . ... ... : ... .. . ... ... : ... .. . ... ... : ... .. . ... ...
ROW 02 : ... .. . ... ... ... : ... .. . ... ... ... : ... .. . ... : ... .. . ... : ... .. . ... ... : ... .. . ... ... : ... .. . ... ... : ... .. . ... ...
ROW 03 : ... .. . ... ... ... : ... .. . ... ... ... : ... .. . ... : ... .. . ... : ... .. . ... ... : ... .. . ... ... : ... .. . ... ... : ... .. . ... ...
ROW 04 : ... .. . ... ... ... : ... .. . ... ... ... : ... .. . ... : ... .. . ... : ... .. . ... ... : ... .. . ... ... : ... .. . ... ... : ... .. . ... ...
ROW 05 : ... .. . ... ... ... : ... .. . ... ... ... : ... .. . ... : ... .. . ... : ... .. . ... ... : ... .. . ... ... : ... .. . ... ... : ... .. . ... ...
ROW 06 : ... .. . ... ... ... : ... .. . ... ... ... : ... .. . ... : ... .. . ... : ... .. . ... ... : ... .. . ... ... : ... .. . ... ... : ... .. . ... ...
ROW 07 : ... .. . ... ... ... : ... .. . ... ... ... : ... .. . ... : ... .. . ... : ... .. . ... ... : ... .. . ... ... : ... .. . ... ... : ... .. . ... ...
ROW 08 : ... .. . ... ... ... : ... .. . ... ... ... : ... .. . ... : ... .. . ... : ... .. . ... ... : ... .. . ... ... : ... .. . ... ... : ... .. . ... ...
ROW 09 : ... .. . ... ... ... : ... .. . ... ... ... : ... .. . ... : ... .. . ... : ... .. . ... ... : ... .. . ... ... : ... .. . ... ... : ... .. . ... ...
ROW 0A : ... .. . ... ... ... : ... .. . ... ... ... : ... .. . ... : ... .. . ... : ... .. . ... ... : ... .. . ... ... : ... .. . ... ... : ... .. . ... ...
ROW 0B : ... .. . ... ... ... : ... .. . ... ... ... : ... .. . ... : ... .. . ... : ... .. . ... ... : ... .. . ... ... : ... .. . ... ... : ... .. . ... ...
ROW 0C : ... .. . ... ... ... : ... .. . ... ... ... : ... .. . ... : ... .. . ... : ... .. . ... ... : ... .. . ... ... : ... .. . ... ... : ... .. . ... ...
ROW 0D : ... .. . ... ... ... : ... .. . ... ... ... : ... .. . ... : ... .. . ... : ... .. . ... ... : ... .. . ... ... : ... .. . ... ... : ... .. . ... ...
ROW 0E : ... .. . ... ... ... : ... .. . ... ... ... : ... .. . ... : ... .. . ... : ... .. . ... ... : ... .. . ... ... : ... .. . ... ... : ... .. . ... ...
ROW 0F : ... .. . ... ... ... : ... .. . ... ... ... : ... .. . ... : ... .. . ... : ... .. . ... ... : ... .. . ... ... : ... .. . ... ... : ... .. . ... ...
ROW 10 : ... .. . ... ... ... : ... .. . ... ... ... : ... .. . ... : ... .. . ... : ... .. . ... ... : ... .. . ... ... : ... .. . ... ... : ... .. . ... ...
ROW 11 : ... .. . ... ... ... : ... .. . ... ... ... : ... .. . ... : ... .. . ... : ... .. . ... ... : ... .. . ... ... : ... .. . ... ... : ... .. . ... ...
ROW 12 : ... .. . ... ... ... : ... .. . ... ... ... : ... .. . ... : ... .. . ... : ... .. . ... ... : ... .. . ... ... : ... .. . ... ... : ... .. . ... ...
ROW 13 : ... .. . ... ... ... : ... .. . ... ... ... : ... .. . ... : ... .. . ... : ... .. . ... ... : ... .. . ... ... : ... .. . ... ... : ... .. . ... ...
ROW 14 : ... .. . ... ... ... : ... .. . ... ... ... : --- .. . ... : ... .. . ... : ... .. . ... ... : F#2 01 5 P80 ... : B-2 01 3 P81 V00 : ... .. 4 ... ...
ROW 15 : ... .. . ... ... ... : ... .. . ... ... ... : ... .. . ... : ... .. . ... : ... .. . ... ... : ... .. 4 ... ... : ... .. . ... ... : ... .. . ... ...
ROW 16 : ... .. . ... ... ... : ... .. . ... ... ... : ... .. . ... : ... .. . ... : ... .. . ... ... : ... .. 3 ... ... : ... .. . ... ... : ... .. . ... ...
ROW 17 : ... .. . ... ... ... : ... .. . ... ... ... : ... .. . ... : ... .. . ... : ... .. . ... ... : ... .. 2 ... ... : ... .. . ... ... : ... .. . ... ...
ROW 18 : ... .. . ... ... ... : ... .. . ... ... ... : ... .. . ... : ... .. . ... : ... .. . ... ... : ... .. . ... ... : ... .. . ... ... : ... .. . ... ...
ROW 19 : ... .. . ... ... ... : ... .. . ... ... ... : ... .. . ... : ... .. . ... : ... .. . ... ... : ... .. 1 ... ... : ... .. 1 ... ... : ... .. 1 ... ...
ROW 1A : ... .. . ... ... ... : ... .. . ... ... ... : ... .. . ... : ... .. . ... : ... .. . ... ... : ... .. . ... ... : ... .. . ... ... : ... .. . ... ...
ROW 1B : ... .. . ... ... ... : ... .. . ... ... ... : ... .. . ... : ... .. . ... : ... .. . ... ... : ... .. . ... ... : ... .. . ... ... : ... .. . ... ...
ROW 1C : ... .. . ... ... ... : ... .. . ... ... ... : ... .. . ... : ... .. . ... : ... .. . ... ... : ... .. . ... ... : ... .. . ... ... : ... .. . ... ...
ROW 1D : ... .. . ... ... ... : ... .. . ... ... ... : ... .. . ... : ... .. . ... : ... .. . ... ... : --- .. . P82 ... : ... .. . ... ... : ... .. . ... ...
ROW 1E : ... .. . ... ... ... : ... .. . ... ... ... : ... .. . ... : ... .. . ... : ... .. . ... ... : F#2 01 5 P80 ... : ... .. 3 ... ... : ... .. 4 ... ...
ROW 1F : ... .. . ... ... ... : ... .. . ... ... ... : ... .. . ... : ... .. . ... : ... .. . ... ... : ... .. 4 ... ... : ... .. . ... ... : ... .. . ... ...
ROW 20 : ... .. . ... ... ... : ... .. . ... ... ... : ... .. . ... : ... .. . ... : ... .. . ... ... : ... .. 3 ... ... : ... .. . ... ... : ... .. . ... ...
ROW 21 : ... .. . ... ... ... : ... .. . ... ... ... : ... .. . ... : ... .. . ... : ... .. . ... ... : ... .. 2 ... ... : ... .. . ... ... : ... .. . ... ...
ROW 22 : ... .. . ... ... ... : ... .. . ... ... ... : ... .. . ... : ... .. . ... : ... .. . ... ... : ... .. . ... ... : ... .. . ... ... : ... .. . ... ...
ROW 23 : ... .. . ... ... ... : ... .. . ... ... ... : ... .. . ... : ... .. . ... : ... .. . ... ... : ... .. 1 ... ... : ... .. 1 ... ... : ... .. 1 ... ...
ROW 24 : ... .. . ... ... ... : ... .. . ... ... ... : ... .. . ... : ... .. . ... : ... .. . ... ... : ... .. . ... ... : ... .. . ... ... : ... .. . ... ...
ROW 25 : ... .. . ... ... ... : ... .. . ... ... ... : ... .. . ... : ... .. . ... : ... .. . ... ... : ... .. . ... ... : ... .. . ... ... : ... .. . ... ...
ROW 26 : ... .. . ... ... ... : ... .. . ... ... ... : ... .. . ... : ... .. . ... : ... .. . ... ... : ... .. . ... ... : ... .. . ... ... : ... .. . ... ...
ROW 27 : ... .. . ... ... ... : ... .. . ... ... ... : ... .. . ... : ... .. . ... : ... .. . ... ... : --- .. . P82 ... : ... .. . ... ... : ... .. . ... ...
ROW 28 : F#3 00 B P80 V01 ... : ... .. . ... ... ... : B-2 00 . ... : ... .. . ... : ... .. . ... ... : ... .. . ... ... : ... .. . ... ... : ... .. . ... ...
ROW 29 : ... .. A ... ... ... : ... .. . ... ... ... : ... .. . ... : ... .. . ... : ... .. . ... ... : ... .. . ... ... : ... .. . ... ... : ... .. . ... ...
ROW 2A : ... .. 9 ... ... ... : ... .. . ... ... ... : ... .. . ... : ... .. . ... : ... .. . ... ... : ... .. . ... ... : ... .. . ... ... : ... .. . ... ...
ROW 2B : ... .. 7 ... ... ... : ... .. . ... ... ... : ... .. . ... : ... .. . ... : ... .. . ... ... : ... .. . ... ... : ... .. . ... ... : ... .. . ... ...
ROW 2C : ... .. . ... ... ... : ... .. . ... ... ... : ... .. . ... : ... .. . ... : ... .. . ... ... : ... .. . ... ... : ... .. . ... ... : ... .. . ... ...
ROW 2D : ... .. . ... ... ... : ... .. . ... ... ... : ... .. . ... : ... .. . ... : ... .. . ... ... : ... .. . ... ... : --- .. . P86 ... : ... .. 0 ... ...
ROW 2E : ... .. . ... ... ... : ... .. . ... ... ... : ... .. . ... : ... .. . ... : ... .. . ... ... : ... .. . ... ... : ... .. . ... ... : ... .. . ... ...
ROW 2F : ... .. . ... ... ... : ... .. . ... ... ... : ... .. . ... : ... .. . ... : ... .. . ... ... : ... .. . ... ... : ... .. . ... ... : ... .. . ... ...
ROW 30 : ... .. . ... ... ... : ... .. . ... ... ... : ... .. . ... : ... .. . ... : ... .. . ... ... : ... .. . ... ... : ... .. . ... ... : ... .. . ... ...
ROW 31 : ... .. . ... ... ... : ... .. . ... ... ... : ... .. . ... : ... .. . ... : ... .. . ... ... : ... .. . ... ... : ... .. . ... ... : ... .. . ... ...
ROW 32 : ... .. . ... ... ... : F#3 00 4 P81 V01 ... : ... .. . ... : ... .. . ... : ... .. . ... ... : ... .. . ... ... : ... .. . ... ... : ... .. . ... ...
ROW 33 : ... .. 1 ... ... ... : ... .. 3 ... ... ... : ... .. . ... : ... .. . ... : ... .. . ... ... : ... .. . ... ... : ... .. . ... ... : ... .. . ... ...
ROW 34 : ... .. . ... ... ... : ... .. . ... ... ... : ... .. . ... : ... .. . ... : ... .. . ... ... : ... .. . ... ... : ... .. . ... ... : ... .. . ... ...
ROW 35 : ... .. . ... ... ... : ... .. 2 ... ... ... : ... .. . ... : ... .. . ... : ... .. . ... ... : ... .. . ... ... : ... .. . ... ... : ... .. . ... ...
ROW 36 : ... .. . ... ... ... : ... .. . ... ... ... : ... .. . ... : ... .. . ... : ... .. . ... ... : ... .. . ... ... : ... .. . ... ... : ... .. . ... ...
ROW 37 : ... .. . ... ... ... : ... .. . ... ... ... : ... .. . ... : ... .. . ... : ... .. . ... ... : ... .. . ... ... : ... .. . ... ... : ... .. . ... ...
ROW 38 : ... .. . ... ... ... : ... .. . ... ... ... : ... .. . ... : ... .. . ... : ... .. . ... ... : ... .. . ... ... : ... .. . ... ... : ... .. . ... ...
ROW 39 : ... .. 0 ... V00 ... : ... .. . ... ... ... : ... .. . ... : ... .. . ... : ... .. . ... ... : ... .. . ... ... : ... .. . ... ... : ... .. . ... ...
ROW 3A : ... .. . ... ... ... : ... .. . ... ... ... : ... .. . ... : ... .. . ... : ... .. . ... ... : ... .. . ... ... : ... .. . ... ... : ... .. . ... ...
ROW 3B : ... .. . ... ... ... : ... .. . ... ... ... : ... .. . ... : ... .. . ... : ... .. . ... ... : ... .. . ... ... : ... .. . ... ... : ... .. . ... ...
ROW 3C : E-3 00 B P80 V01 ... : ... .. . ... ... ... : --- .. . ... : ... .. . ... : ... .. . ... ... : F#2 01 5 P80 ... : B-2 01 3 P81 ... : ... .. 4 ... ...
ROW 3D : ... .. A ... ... ... : ... .. 1 ... ... ... : ... .. . ... : ... .. . ... : ... .. . ... ... : ... .. 4 ... ... : ... .. . ... ... : ... .. . ... ...
ROW 3E : ... .. 9 ... ... ... : ... .. . ... ... ... : ... .. . ... : ... .. . ... : ... .. . ... ... : ... .. 3 ... ... : ... .. . ... ... : ... .. . ... ...
ROW 3F : ... .. 7 ... ... ... : ... .. . ... ... ... : ... .. . ... : ... .. . ... : ... .. . ... ... : ... .. 2 ... ... : ... .. . ... ... : ... .. . ... ...
ROW 40 : ... .. . ... ... ... : ... .. . ... ... ... : ... .. . ... : ... .. . ... : ... .. . ... ... : ... .. . ... ... : ... .. . ... ... : ... .. . ... ...
ROW 41 : ... .. . ... ... ... : ... .. . ... ... ... : ... .. . ... : ... .. . ... : ... .. . ... ... : ... .. 1 ... ... : ... .. 1 ... ... : ... .. 1 ... ...
ROW 42 : ... .. 1 ... ... ... : ... .. . ... ... ... : ... .. . ... : ... .. . ... : ... .. . ... ... : ... .. . ... ... : ... .. . ... ... : ... .. . ... ...
ROW 43 : ... .. . ... ... ... : ... .. 0 ... V00 ... : ... .. . ... : ... .. . ... : ... .. . ... ... : ... .. . ... ... : ... .. . ... ... : ... .. . ... ...
ROW 44 : ... .. . ... ... ... : ... .. . ... ... ... : ... .. . ... : ... .. . ... : ... .. . ... ... : ... .. . ... ... : ... .. . ... ... : ... .. . ... ...
ROW 45 : ... .. . ... ... ... : ... .. . ... ... ... : ... .. . ... : ... .. . ... : ... .. . ... ... : --- .. . P82 ... : ... .. . ... ... : ... .. . ... ...
ROW 46 : D#3 00 B ... ... ... : E-3 00 4 P81 V01 ... : ... .. . ... : ... .. . ... : ... .. . ... ... : F#2 01 5 P80 ... : ... .. 3 ... ... : ... .. 4 ... ...
ROW 47 : ... .. A ... ... ... : ... .. 3 ... ... ... : ... .. . ... : ... .. . ... : ... .. . ... ... : ... .. 4 ... ... : ... .. . ... ... : ... .. . ... ...
ROW 48 : ... .. 9 ... ... ... : ... .. . ... ... ... : ... .. . ... : ... .. . ... : ... .. . ... ... : ... .. 3 ... ... : ... .. . ... ... : ... .. . ... ...
ROW 49 : ... .. 7 ... ... ... : ... .. 2 ... ... ... : ... .. . ... : ... .. . ... : ... .. . ... ... : ... .. 2 ... ... : ... .. . ... ... : ... .. . ... ...
ROW 4A : ... .. . ... ... ... : ... .. . ... ... ... : ... .. . ... : ... .. . ... : ... .. . ... ... : ... .. . ... ... : ... .. . ... ... : ... .. . ... ...
ROW 4B : ... .. . ... ... ... : ... .. . ... ... ... : ... .. . ... : ... .. . ... : ... .. . ... ... : ... .. 1 ... ... : ... .. 1 ... ... : ... .. 1 ... ...
ROW 4C : ... .. 1 ... ... ... : ... .. 1 ... ... ... : ... .. . ... : ... .. . ... : ... .. . ... ... : ... .. . ... ... : ... .. . ... ... : ... .. . ... ...
ROW 4D : ... .. . ... ... ... : ... .. . ... ... ... : ... .. . ... : ... .. . ... : ... .. . ... ... : ... .. . ... ... : ... .. . ... ... : ... .. . ... ...
ROW 4E : ... .. . ... ... ... : ... .. . ... ... ... : ... .. . ... : ... .. . ... : ... .. . ... ... : ... .. . ... ... : ... .. . ... ... : ... .. . ... ...
ROW 4F : ... .. . ... ... ... : ... .. . ... ... ... : ... .. . ... : ... .. . ... : ... .. . ... ... : --- .. . P82 ... : ... .. . ... ... : ... .. . ... ...
ROW 50 : C#3 00 B ... ... ... : D#3 00 4 ... ... ... : F#2 00 . ... : ... .. . ... : ... .. . ... ... : ... .. . ... ... : --- .. . P86 ... : E-3 01 0 ... ...
ROW 51 : ... .. A ... ... ... : ... .. 3 ... ... ... : ... .. . ... : ... .. . ... : ... .. . ... ... : ... .. . ... ... : ... .. . ... ... : ... .. . ... ...
ROW 52 : ... .. 9 ... ... ... : ... .. . ... ... ... : ... .. . ... : ... .. . ... : ... .. . ... ... : ... .. . ... ... : ... .. . ... ... : ... .. . ... ...
ROW 53 : ... .. 7 ... ... ... : ... .. 2 ... ... ... : ... .. . ... : ... .. . ... : ... .. . ... ... : ... .. . ... ... : ... .. . ... ... : ... .. . ... ...
ROW 54 : ... .. . ... ... ... : ... .. . ... ... ... : ... .. . ... : ... .. . ... : ... .. . ... ... : ... .. . ... ... : ... .. . ... ... : ... .. . ... ...
ROW 55 : ... .. . ... ... ... : ... .. . ... ... ... : ... .. . ... : ... .. . ... : ... .. . ... ... : ... .. . ... ... : ... .. . ... ... : ... .. . ... ...
ROW 56 : ... .. . ... ... ... : ... .. 1 ... ... ... : ... .. . ... : ... .. . ... : ... .. . ... ... : ... .. . ... ... : ... .. . ... ... : ... .. . ... ...
ROW 57 : ... .. . ... ... ... : ... .. . ... ... ... : ... .. . ... : ... .. . ... : ... .. . ... ... : ... .. . ... ... : ... .. . ... ... : ... .. . ... ...
ROW 58 : ... .. . ... ... ... : ... .. . ... ... ... : ... .. . ... : ... .. . ... : ... .. . ... ... : ... .. . ... ... : ... .. . ... ... : ... .. . ... ...
ROW 59 : ... .. . ... ... ... : ... .. . ... ... ... : ... .. . ... : ... .. . ... : ... .. . ... ... : ... .. . ... ... : ... .. . ... ... : ... .. . ... ...
ROW 5A : ... .. . ... ... ... : C#3 00 4 ... ... ... : ... .. . ... : ... .. . ... : ... .. . ... ... : ... .. . ... ... : ... .. . ... ... : ... .. . ... ...
ROW 5B : ... .. 1 ... ... ... : ... .. 3 ... ... ... : ... .. . ... : ... .. . ... : ... .. . ... ... : ... .. . ... ... : ... .. . ... ... : ... .. . ... ...
ROW 5C : ... .. . ... ... ... : ... .. . ... ... ... : ... .. . ... : ... .. . ... : ... .. . ... ... : ... .. . ... ... : ... .. . ... ... : ... .. . ... ...
ROW 5D : ... .. . ... ... ... : ... .. 2 ... ... ... : ... .. . ... : ... .. . ... : ... .. . ... ... : ... .. . ... ... : ... .. . ... ... : ... .. . ... ...
ROW 5E : ... .. . ... ... ... : ... .. . ... ... ... : ... .. . ... : ... .. . ... : ... .. . ... ... : ... .. . ... ... : ... .. . ... ... : ... .. . ... ...
ROW 5F : ... .. . ... ... ... : ... .. . ... ... ... : ... .. . ... : ... .. . ... : ... .. . ... ... : ... .. . ... ... : ... .. . ... ... : ... .. . ... ...
ROW 60 : ... .. . ... ... ... : ... .. . ... ... ... : ... .. . ... : ... .. . ... : ... .. . ... ... : ... .. . ... ... : ... .. . ... ... : ... .. . ... ...
ROW 61 : ... .. 0 ... V00 ... : ... .. . ... ... ... : ... .. . ... : ... .. . ... : ... .. . ... ... : ... .. . ... ... : ... .. . ... ... : ... .. . ... ...
ROW 62 : ... .. . ... ... ... : ... .. . ... ... ... : ... .. . ... : ... .. . ... : ... .. . ... ... : ... .. . ... ... : ... .. . ... ... : ... .. . ... ...
ROW 63 : ... .. . ... ... ... : ... .. . ... ... ... : ... .. . ... : ... .. . ... : ... .. . ... ... : ... .. . ... ... : ... .. . ... ... : ... .. . ... ...
ROW 64 : F#2 00 B P80 V01 ... : ... .. . ... ... ... : --- .. . ... : ... .. . ... : ... .. . ... ... : A-2 01 5 P80 ... : C#3 01 3 P81 ... : ... .. 4 ... ...
ROW 65 : ... .. A ... ... ... : ... .. 1 ... ... ... : ... .. . ... : ... .. . ... : ... .. . ... ... : ... .. 4 ... ... : ... .. . ... ... : ... .. . ... ...
ROW 66 : ... .. 9 ... ... ... : ... .. . ... ... ... : ... .. . ... : ... .. . ... : ... .. . ... ... : ... .. 3 ... ... : ... .. . ... ... : ... .. . ... ...
ROW 67 : ... .. 7 ... ... ... : ... .. . ... ... ... : ... .. . ... : ... .. . ... : ... .. . ... ... : ... .. 2 ... ... : ... .. . ... ... : ... .. . ... ...
ROW 68 : ... .. . ... ... ... : ... .. . ... ... ... : ... .. . ... : ... .. . ... : ... .. . ... ... : ... .. . ... ... : ... .. . ... ... : ... .. . ... ...
ROW 69 : ... .. . ... ... ... : ... .. . ... ... ... : ... .. . ... : ... .. . ... : ... .. . ... ... : ... .. 1 ... ... : ... .. 1 ... ... : ... .. 1 ... ...
ROW 6A : ... .. . ... ... ... : ... .. . ... ... ... : ... .. . ... : ... .. . ... : ... .. . ... ... : ... .. . ... ... : ... .. . ... ... : ... .. . ... ...
ROW 6B : ... .. . ... ... ... : ... .. 0 ... V00 ... : ... .. . ... : ... .. . ... : ... .. . ... ... : ... .. . ... ... : ... .. . ... ... : ... .. . ... ...
ROW 6C : ... .. . ... ... ... : ... .. . ... ... ... : ... .. . ... : ... .. . ... : ... .. . ... ... : ... .. . ... ... : ... .. . ... ... : ... .. . ... ...
ROW 6D : ... .. . ... ... ... : ... .. . ... ... ... : ... .. . ... : ... .. . ... : ... .. . ... ... : --- .. . P82 ... : ... .. . ... ... : ... .. . ... ...
ROW 6E : ... .. . ... ... ... : F#2 00 4 P81 V01 ... : ... .. . ... : ... .. . ... : ... .. . ... ... : A-2 01 5 P80 ... : ... .. 3 ... ... : ... .. 4 ... ...
ROW 6F : ... .. 1 ... ... ... : ... .. 3 ... ... ... : ... .. . ... : ... .. . ... : ... .. . ... ... : ... .. 4 ... ... : ... .. . ... ... : ... .. . ... ...
ROW 70 : ... .. . ... ... ... : ... .. . ... ... ... : ... .. . ... : ... .. . ... : ... .. . ... ... : ... .. 3 ... ... : ... .. . ... ... : ... .. . ... ...
ROW 71 : ... .. . ... ... ... : ... .. 2 ... ... ... : ... .. . ... : ... .. . ... : ... .. . ... ... : ... .. 2 ... ... : ... .. . ... ... : ... .. . ... ...
ROW 72 : ... .. . ... ... ... : ... .. . ... ... ... : ... .. . ... : ... .. . ... : ... .. . ... ... : ... .. . ... ... : ... .. . ... ... : ... .. . ... ...
ROW 73 : ... .. . ... ... ... : ... .. . ... ... ... : ... .. . ... : ... .. . ... : ... .. . ... ... : ... .. 1 ... ... : ... .. 1 ... ... : ... .. 1 ... ...
ROW 74 : ... .. . ... ... ... : ... .. . ... ... ... : ... .. . ... : ... .. . ... : ... .. . ... ... : ... .. . ... ... : ... .. . ... ... : ... .. . ... ...
ROW 75 : ... .. 0 ... V00 ... : ... .. . ... ... ... : ... .. . ... : ... .. . ... : ... .. . ... ... : ... .. . ... ... : ... .. . ... ... : ... .. . ... ...
ROW 76 : ... .. . ... ... ... : ... .. . ... ... ... : ... .. . ... : ... .. . ... : ... .. . ... ... : ... .. . ... ... : ... .. . ... ... : ... .. . ... ...
ROW 77 : ... .. . ... ... ... : ... .. . ... ... ... : ... .. . ... : ... .. . ... : ... .. . ... ... : --- .. . P82 ... : ... .. . ... ... : ... .. . ... ...
ROW 78 : ... .. . ... ... ... : ... .. . ... ... ... : F#2 00 . ... : ... .. . ... : ... .. . ... ... : ... .. . ... ... : ... .. . ... ... : ... .. . ... ...
ROW 79 : ... .. . ... ... ... : ... .. 1 ... ... ... : ... .. . ... : ... .. . ... : ... .. . ... ... : ... .. . ... ... : ... .. . ... ... : ... .. . ... ...
ROW 7A : ... .. . ... ... ... : ... .. . ... ... ... : ... .. . ... : ... .. . ... : ... .. . ... ... : ... .. . ... ... : ... .. . ... ... : ... .. . ... ...
ROW 7B : ... .. . ... ... ... : ... .. . ... ... ... : ... .. . ... : ... .. . ... : ... .. . ... ... : ... .. . ... ... : ... .. . ... ... : ... .. . ... ...
ROW 7C : ... .. . ... ... ... : ... .. . ... ... ... : ... .. . ... : ... .. . ... : ... .. . ... ... : ... .. . ... ... : ... .. . ... ... : ... .. . ... ...
ROW 7D : ... .. . ... ... ... : ... .. . ... ... ... : ... .. . ... : ... .. . ... : ... .. . ... ... : ... .. . ... ... : --- .. . P84 ... : ... .. 0 ... ...
ROW 7E : ... .. . ... ... ... : ... .. . ... ... ... : ... .. . ... : ... .. . ... : ... .. . ... ... : ... .. . ... ... : ... .. . ... ... : ... .. . ... ...
ROW 7F : ... .. . ... ... ... : ... .. 0 ... V00 ... : ... .. . ... : ... .. . ... : ... .. . ... ... : ... .. . ... ... : ... .. . ... ... : ... .. . ... ...
ROW 80 : ... .. . ... ... ... : ... .. . ... ... ... : ... .. . ... : ... .. . ... : ... .. . ... ... : ... .. . ... ... : ... .. . ... ... : ... .. . ... ...
ROW 81 : ... .. . ... ... ... : ... .. . ... ... ... : ... .. . ... : ... .. . ... : ... .. . ... ... : ... .. . ... ... : ... .. . ... ... : ... .. . ... ...
ROW 82 : ... .. . ... ... ... : ... .. . ... ... ... : ... .. . ... : ... .. . ... : ... .. . ... ... : ... .. . ... ... : ... .. . ... ... : ... .. . ... ...
ROW 83 : ... .. . ... ... ... : ... .. . ... ... ... : ... .. . ... : ... .. . ... : ... .. . ... ... : ... .. . ... ... : ... .. . ... ... : ... .. . ... ...
ROW 84 : ... .. . ... ... ... : ... .. . ... ... ... : ... .. . ... : ... .. . ... : ... .. . ... ... : ... .. . ... ... : ... .. . ... ... : ... .. . ... ...
ROW 85 : ... .. . ... ... ... : ... .. . ... ... ... : ... .. . ... : ... .. . ... : ... .. . ... ... : ... .. . ... ... : ... .. . ... ... : ... .. . ... ...
ROW 86 : ... .. . ... ... ... : ... .. . ... ... ... : ... .. . ... : ... .. . ... : ... .. . ... ... : ... .. . ... ... : ... .. . ... ... : ... .. . ... ...
ROW 87 : ... .. . ... ... ... : ... .. . ... ... ... : ... .. . ... : ... .. . ... : ... .. . ... ... : ... .. . ... ... : ... .. . ... ... : ... .. . ... ...
ROW 88 : ... .. . ... ... ... : ... .. . ... ... ... : ... .. . ... : ... .. . ... : ... .. . ... ... : ... .. . ... ... : ... .. . ... ... : ... .. . ... ...
ROW 89 : ... .. . ... ... ... : ... .. . ... ... ... : ... .. . ... : ... .. . ... : ... .. . ... ... : ... .. . ... ... : ... .. . ... ... : ... .. . ... ...
ROW 8A : ... .. . ... ... ... : ... .. . ... ... ... : ... .. . ... : ... .. . ... : ... .. . ... ... : ... .. . ... ... : ... .. . ... ... : ... .. . ... ...
ROW 8B : ... .. . ... ... ... : ... .. . ... ... ... : ... .. . ... : ... .. . ... : ... .. . ... ... : ... .. . ... ... : ... .. . ... ... : ... .. . ... ...
ROW 8C : ... .. . ... ... ... : ... .. . ... ... ... : --- .. . ... : ... .. . ... : ... .. . ... ... : A-2 01 5 P80 ... : C#3 01 3 P81 ... : ... .. 4 ... ...
ROW 8D : ... .. . ... ... ... : ... .. . ... ... ... : ... .. . ... : ... .. . ... : ... .. . ... ... : ... .. 4 ... ... : ... .. . ... ... : ... .. . ... ...
ROW 8E : ... .. . ... ... ... : ... .. . ... ... ... : ... .. . ... : ... .. . ... : ... .. . ... ... : ... .. 3 ... ... : ... .. . ... ... : ... .. . ... ...
ROW 8F : ... .. . ... ... ... : ... .. . ... ... ... : ... .. . ... : ... .. . ... : ... .. . ... ... : ... .. 2 ... ... : ... .. . ... ... : ... .. . ... ...
ROW 90 : ... .. . ... ... ... : ... .. . ... ... ... : ... .. . ... : ... .. . ... : ... .. . ... ... : ... .. . ... ... : ... .. . ... ... : ... .. . ... ...
ROW 91 : ... .. . ... ... ... : ... .. . ... ... ... : ... .. . ... : ... .. . ... : ... .. . ... ... : ... .. 1 ... ... : ... .. 1 ... ... : ... .. 1 ... ...
ROW 92 : ... .. . ... ... ... : ... .. . ... ... ... : ... .. . ... : ... .. . ... : ... .. . ... ... : ... .. . ... ... : ... .. . ... ... : ... .. . ... ...
ROW 93 : ... .. . ... ... ... : ... .. . ... ... ... : ... .. . ... : ... .. . ... : ... .. . ... ... : ... .. . ... ... : ... .. . ... ... : ... .. . ... ...
ROW 94 : ... .. . ... ... ... : ... .. . ... ... ... : ... .. . ... : ... .. . ... : ... .. . ... ... : ... .. . ... ... : ... .. . ... ... : ... .. . ... ...
ROW 95 : ... .. . ... ... ... : ... .. . ... ... ... : ... .. . ... : ... .. . ... : ... .. . ... ... : --- .. . P82 ... : ... .. . ... ... : ... .. . ... ...
ROW 96 : ... .. . ... ... ... : ... .. . ... ... ... : ... .. . ... : ... .. . ... : ... .. . ... ... : A-2 01 5 P80 ... : ... .. 3 ... ... : ... .. 4 ... ...
ROW 97 : ... .. . ... ... ... : ... .. . ... ... ... : ... .. . ... : ... .. . ... : ... .. . ... ... : ... .. 4 ... ... : ... .. . ... ... : ... .. . ... ...
ROW 98 : ... .. . ... ... ... : ... .. . ... ... ... : ... .. . ... : ... .. . ... : ... .. . ... ... : ... .. 3 ... ... : ... .. . ... ... : ... .. . ... ...
ROW 99 : ... .. . ... ... ... : ... .. . ... ... ... : ... .. . ... : ... .. . ... : ... .. . ... ... : ... .. 2 ... ... : ... .. . ... ... : ... .. . ... ...
ROW 9A : ... .. . ... ... ... : ... .. . ... ... ... : ... .. . ... : ... .. . ... : ... .. . ... ... : ... .. . ... ... : ... .. . ... ... : ... .. . ... ...
ROW 9B : ... .. . ... ... ... : ... .. . ... ... ... : ... .. . ... : ... .. . ... : ... .. . ... ... : ... .. 1 ... ... : ... .. 1 ... ... : ... .. 1 ... ...
ROW 9C : ... .. . ... ... ... : ... .. . ... ... ... : ... .. . ... : ... .. . ... : ... .. . ... ... : ... .. . ... ... : ... .. . ... ... : ... .. . ... ...
ROW 9D : ... .. . ... ... ... : ... .. . ... ... ... : ... .. . ... : ... .. . ... : ... .. . ... ... : ... .. . ... ... : ... .. . ... ... : ... .. . ... ...
ROW 9E : ... .. . ... ... ... : ... .. . ... ... ... : ... .. . ... : ... .. . ... : ... .. . ... ... : ... .. . ... ... : ... .. . ... ... : ... .. . ... ...
ROW 9F : ... .. . ... ... ... : ... .. . ... ... ... : ... .. . ... : ... .. . ... : ... .. . ... ... : --- .. . P82 ... : ... .. . ... ... : ... .. . ... ...
ROW A0 : ... .. . ... ... ... : ... .. . ... ... ... : A-2 00 . ... : ... .. . ... : ... .. . ... ... : ... .. . ... ... : --- .. . P84 ... : C#3 01 0 ... ...
ROW A1 : ... .. . ... ... ... : ... .. . ... ... ... : ... .. . ... : ... .. . ... : ... .. . ... ... : ... .. . ... ... : ... .. . ... ... : ... .. . ... ...
ROW A2 : ... .. . ... ... ... : ... .. . ... ... ... : ... .. . ... : ... .. . ... : ... .. . ... ... : ... .. . ... ... : ... .. . ... ... : ... .. . ... ...
ROW A3 : ... .. . ... ... ... : ... .. . ... ... ... : ... .. . ... : ... .. . ... : ... .. . ... ... : ... .. . ... ... : ... .. . ... ... : ... .. . ... ...
ROW A4 : ... .. . ... ... ... : ... .. . ... ... ... : ... .. . ... : ... .. . ... : ... .. . ... ... : ... .. . ... ... : ... .. . ... ... : ... .. . ... ...
ROW A5 : ... .. . ... ... ... : ... .. . ... ... ... : ... .. . ... : ... .. . ... : ... .. . ... ... : ... .. . ... ... : ... .. . ... ... : ... .. . ... ...
ROW A6 : ... .. . ... ... ... : ... .. . ... ... ... : ... .. . ... : ... .. . ... : ... .. . ... ... : ... .. . ... ... : ... .. . ... ... : ... .. . ... ...
ROW A7 : ... .. . ... ... ... : ... .. . ... ... ... : ... .. . ... : ... .. . ... : ... .. . ... ... : ... .. . ... ... : ... .. . ... ... : ... .. . ... ...
ROW A8 : ... .. . ... ... ... : ... .. . ... ... ... : ... .. . ... : ... .. . ... : ... .. . ... ... : ... .. . ... ... : ... .. . ... ... : ... .. . ... ...
ROW A9 : ... .. . ... ... ... : ... .. . ... ... ... : ... .. . ... : ... .. . ... : ... .. . ... ... : ... .. . ... ... : ... .. . ... ... : ... .. . ... ...
ROW AA : ... .. . ... ... ... : ... .. . ... ... ... : ... .. . ... : ... .. . ... : ... .. . ... ... : ... .. . ... ... : ... .. . ... ... : ... .. . ... ...
ROW AB : ... .. . ... ... ... : ... .. . ... ... ... : ... .. . ... : ... .. . ... : ... .. . ... ... : ... .. . ... ... : ... .. . ... ... : ... .. . ... ...
ROW AC : ... .. . ... ... ... : ... .. . ... ... ... : ... .. . ... : ... .. . ... : ... .. . ... ... : ... .. . ... ... : ... .. . ... ... : ... .. . ... ...
ROW AD : ... .. . ... ... ... : ... .. . ... ... ... : ... .. . ... : ... .. . ... : ... .. . ... ... : ... .. . ... ... : ... .. . ... ... : ... .. . ... ...
ROW AE : ... .. . ... ... ... : ... .. . ... ... ... : ... .. . ... : ... .. . ... : ... .. . ... ... : ... .. . ... ... : ... .. . ... ... : ... .. . ... ...
ROW AF : ... .. . ... ... ... : ... .. . ... ... ... : ... .. . ... : ... .. . ... : ... .. . ... ... : ... .. . ... ... : ... .. . ... ... : ... .. . ... ...
ROW B0 : ... .. . ... ... ... : ... .. . ... ... ... : ... .. . ... : ... .. . ... : ... .. . ... ... : ... .. . ... ... : ... .. . ... ... : ... .. . ... ...
ROW B1 : ... .. . ... ... ... : ... .. . ... ... ... : ... .. . ... : ... .. . ... : ... .. . ... ... : ... .. . ... ... : ... .. . ... ... : ... .. . ... ...
ROW B2 : ... .. . ... ... ... : ... .. . ... ... ... : ... .. . ... : ... .. . ... : ... .. . ... ... : ... .. . ... ... : ... .. . ... ... : ... .. . ... ...
ROW B3 : ... .. . ... ... ... : ... .. . ... ... ... : ... .. . ... : ... .. . ... : ... .. . ... ... : ... .. . ... ... : ... .. . ... ... : ... .. . ... ...
ROW B4 : ... .. . ... ... ... : ... .. . ... ... ... : --- .. . ... : ... .. . ... : ... .. . ... ... : A-2 01 5 P80 ... : B-2 01 3 P81 ... : ... .. 4 ... ...
ROW B5 : ... .. . ... ... ... : ... .. . ... ... ... : ... .. . ... : ... .. . ... : ... .. . ... ... : ... .. 4 ... ... : ... .. . ... ... : ... .. . ... ...
ROW B6 : ... .. . ... ... ... : ... .. . ... ... ... : ... .. . ... : ... .. . ... : ... .. . ... ... : ... .. 3 ... ... : ... .. . ... ... : ... .. . ... ...
ROW B7 : ... .. . ... ... ... : ... .. . ... ... ... : ... .. . ... : ... .. . ... : ... .. . ... ... : ... .. 2 ... ... : ... .. . ... ... : ... .. . ... ...
ROW B8 : ... .. . ... ... ... : ... .. . ... ... ... : ... .. . ... : ... .. . ... : ... .. . ... ... : ... .. . ... ... : ... .. . ... ... : ... .. . ... ...
ROW B9 : ... .. . ... ... ... : ... .. . ... ... ... : ... .. . ... : ... .. . ... : ... .. . ... ... : ... .. 1 ... ... : ... .. 1 ... ... : ... .. 1 ... ...
ROW BA : ... .. . ... ... ... : ... .. . ... ... ... : ... .. . ... : ... .. . ... : ... .. . ... ... : ... .. . ... ... : ... .. . ... ... : ... .. . ... ...
ROW BB : ... .. . ... ... ... : ... .. . ... ... ... : ... .. . ... : ... .. . ... : ... .. . ... ... : ... .. . ... ... : ... .. . ... ... : ... .. . ... ...
ROW BC : ... .. . ... ... ... : ... .. . ... ... ... : ... .. . ... : ... .. . ... : ... .. . ... ... : ... .. . ... ... : ... .. . ... ... : ... .. . ... ...
ROW BD : ... .. . ... ... ... : ... .. . ... ... ... : ... .. . ... : ... .. . ... : ... .. . ... ... : --- .. . P82 ... : ... .. . ... ... : ... .. . ... ...
ROW BE : ... .. . ... ... ... : ... .. . ... ... ... : ... .. . ... : ... .. . ... : ... .. . ... ... : A-2 01 5 P80 ... : ... .. 3 ... ... : ... .. 4 ... ...
ROW BF : ... .. . ... ... ... : ... .. . ... ... ... : ... .. . ... : ... .. . ... : ... .. . ... ... : ... .. 4 ... ... : ... .. . ... ... : ... .. . ... ...
ROW C0 : ... .. . ... ... ... : ... .. . ... ... ... : ... .. . ... : ... .. . ... : ... .. . ... ... : ... .. 3 ... ... : ... .. . ... ... : ... .. . ... ...
ROW C1 : ... .. . ... ... ... : ... .. . ... ... ... : ... .. . ... : ... .. . ... : ... .. . ... ... : ... .. 2 ... ... : ... .. . ... ... : ... .. . ... ...
ROW C2 : ... .. . ... ... ... : ... .. . ... ... ... : ... .. . ... : ... .. . ... : ... .. . ... ... : ... .. . ... ... : ... .. . ... ... : ... .. . ... ...
ROW C3 : ... .. . ... ... ... : ... .. . ... ... ... : ... .. . ... : ... .. . ... : ... .. . ... ... : ... .. 1 ... ... : ... .. 1 ... ... : ... .. 1 ... ...
ROW C4 : ... .. . ... ... ... : ... .. . ... ... ... : ... .. . ... : ... .. . ... : ... .. . ... ... : ... .. . ... ... : ... .. . ... ... : ... .. . ... ...
ROW C5 : ... .. . ... ... ... : ... .. . ... ... ... : ... .. . ... : ... .. . ... : ... .. . ... ... : ... .. . ... ... : ... .. . ... ... : ... .. . ... ...
ROW C6 : ... .. . ... ... ... : ... .. . ... ... ... : ... .. . ... : ... .. . ... : ... .. . ... ... : ... .. . ... ... : ... .. . ... ... : ... .. . ... ...
ROW C7 : ... .. . ... ... ... : ... .. . ... ... ... : ... .. . ... : ... .. . ... : ... .. . ... ... : --- .. . P82 ... : ... .. . ... ... : ... .. . ... ...
ROW C8 : E-3 00 B P80 V01 ... : ... .. . ... ... ... : A-1 00 . ... : ... .. . ... : ... .. . ... ... : ... .. . ... ... : ... .. . ... ... : ... .. . ... ...
ROW C9 : ... .. A ... ... ... : ... .. . ... ... ... : ... .. . ... : ... .. . ... : ... .. . ... ... : ... .. . ... ... : ... .. . ... ... : ... .. . ... ...
ROW CA : ... .. 9 ... ... ... : ... .. . ... ... ... : ... .. . ... : ... .. . ... : ... .. . ... ... : ... .. . ... ... : ... .. . ... ... : ... .. . ... ...
ROW CB : ... .. 7 ... ... ... : ... .. . ... ... ... : ... .. . ... : ... .. . ... : ... .. . ... ... : ... .. . ... ... : ... .. . ... ... : ... .. . ... ...
ROW CC : ... .. . ... ... ... : ... .. . ... ... ... : ... .. . ... : ... .. . ... : ... .. . ... ... : ... .. . ... ... : ... .. . ... ... : ... .. . ... ...
ROW CD : ... .. . ... ... ... : ... .. . ... ... ... : ... .. . ... : ... .. . ... : ... .. . ... ... : ... .. . ... ... : --- .. . P86 ... : ... .. 0 ... ...
ROW CE : ... .. . ... ... ... : ... .. . ... ... ... : ... .. . ... : ... .. . ... : ... .. . ... ... : ... .. . ... ... : ... .. . ... ... : ... .. . ... ...
ROW CF : ... .. . ... ... ... : ... .. . ... ... ... : ... .. . ... : ... .. . ... : ... .. . ... ... : ... .. . ... ... : ... .. . ... ... : ... .. . ... ...
ROW D0 : ... .. . ... ... ... : ... .. . ... ... ... : ... .. . ... : ... .. . ... : ... .. . ... ... : ... .. . ... ... : ... .. . ... ... : ... .. . ... ...
ROW D1 : ... .. . ... ... ... : ... .. . ... ... ... : ... .. . ... : ... .. . ... : ... .. . ... ... : ... .. . ... ... : ... .. . ... ... : ... .. . ... ...
ROW D2 : ... .. . ... ... ... : E-3 00 4 P81 V01 ... : ... .. . ... : ... .. . ... : ... .. . ... ... : ... .. . ... ... : ... .. . ... ... : ... .. . ... ...
ROW D3 : ... .. 1 ... ... ... : ... .. 3 ... ... ... : ... .. . ... : ... .. . ... : ... .. . ... ... : ... .. . ... ... : ... .. . ... ... : ... .. . ... ...
ROW D4 : ... .. . ... ... ... : ... .. . ... ... ... : ... .. . ... : ... .. . ... : ... .. . ... ... : ... .. . ... ... : ... .. . ... ... : ... .. . ... ...
ROW D5 : ... .. . ... ... ... : ... .. 2 ... ... ... : ... .. . ... : ... .. . ... : ... .. . ... ... : ... .. . ... ... : ... .. . ... ... : ... .. . ... ...
ROW D6 : ... .. . ... ... ... : ... .. . ... ... ... : ... .. . ... : ... .. . ... : ... .. . ... ... : ... .. . ... ... : ... .. . ... ... : ... .. . ... ...
ROW D7 : ... .. . ... ... ... : ... .. . ... ... ... : ... .. . ... : ... .. . ... : ... .. . ... ... : ... .. . ... ... : ... .. . ... ... : ... .. . ... ...
ROW D8 : ... .. . ... ... ... : ... .. . ... ... ... : ... .. . ... : ... .. . ... : ... .. . ... ... : ... .. . ... ... : ... .. . ... ... : ... .. . ... ...
ROW D9 : ... .. 0 ... V00 ... : ... .. . ... ... ... : ... .. . ... : ... .. . ... : ... .. . ... ... : ... .. . ... ... : ... .. . ... ... : ... .. . ... ...
ROW DA : ... .. . ... ... ... : ... .. . ... ... ... : ... .. . ... : ... .. . ... : ... .. . ... ... : ... .. . ... ... : ... .. . ... ... : ... .. . ... ...
ROW DB : ... .. . ... ... ... : ... .. . ... ... ... : ... .. . ... : ... .. . ... : ... .. . ... ... : ... .. . ... ... : ... .. . ... ... : ... .. . ... ...
ROW DC : D#3 00 B P80 V01 ... : ... .. . ... ... ... : --- .. . ... : ... .. . ... : ... .. . ... ... : A-2 01 5 P80 ... : B-2 01 3 P81 ... : ... .. 4 ... ...
ROW DD : ... .. A ... ... ... : ... .. 1 ... ... ... : ... .. . ... : ... .. . ... : ... .. . ... ... : ... .. 4 ... ... : ... .. . ... ... : ... .. . ... ...
ROW DE : ... .. 9 ... ... ... : ... .. . ... ... ... : ... .. . ... : ... .. . ... : ... .. . ... ... : ... .. 3 ... ... : ... .. . ... ... : ... .. . ... ...
ROW DF : ... .. 7 ... ... ... : ... .. . ... ... ... : ... .. . ... : ... .. . ... : ... .. . ... ... : ... .. 2 ... ... : ... .. . ... ... : ... .. . ... ...
ROW E0 : ... .. . ... ... ... : ... .. . ... ... ... : ... .. . ... : ... .. . ... : ... .. . ... ... : ... .. . ... ... : ... .. . ... ... : ... .. . ... ...
ROW E1 : ... .. . ... ... ... : ... .. . ... ... ... : ... .. . ... : ... .. . ... : ... .. . ... ... : ... .. 1 ... ... : ... .. 1 ... ... : ... .. 1 ... ...
ROW E2 : ... .. 1 ... ... ... : ... .. . ... ... ... : ... .. . ... : ... .. . ... : ... .. . ... ... : ... .. . ... ... : ... .. . ... ... : ... .. . ... ...
ROW E3 : ... .. . ... ... ... : ... .. 0 ... V00 ... : ... .. . ... : ... .. . ... : ... .. . ... ... : ... .. . ... ... : ... .. . ... ... : ... .. . ... ...
ROW E4 : ... .. . ... ... ... : ... .. . ... ... ... : ... .. . ... : ... .. . ... : ... .. . ... ... : ... .. . ... ... : ... .. . ... ... : ... .. . ... ...
ROW E5 : ... .. . ... ... ... : ... .. . ... ... ... : ... .. . ... : ... .. . ... : ... .. . ... ... : --- .. . P82 ... : ... .. . ... ... : ... .. . ... ...
ROW E6 : C#3 00 B ... ... ... : D#3 00 4 P81 V01 ... : ... .. . ... : ... .. . ... : ... .. . ... ... : A-2 01 5 P80 ... : ... .. 3 ... ... : ... .. 4 ... ...
ROW E7 : ... .. A ... ... ... : ... .. 3 ... ... ... : ... .. . ... : ... .. . ... : ... .. . ... ... : ... .. 4 ... ... : ... .. . ... ... : ... .. . ... ...
ROW E8 : ... .. 9 ... ... ... : ... .. . ... ... ... : ... .. . ... : ... .. . ... : ... .. . ... ... : ... .. 3 ... ... : ... .. . ... ... : ... .. . ... ...
ROW E9 : ... .. 7 ... ... ... : ... .. 2 ... ... ... : ... .. . ... : ... .. . ... : ... .. . ... ... : ... .. 2 ... ... : ... .. . ... ... : ... .. . ... ...
ROW EA : ... .. . ... ... ... : ... .. . ... ... ... : ... .. . ... : ... .. . ... : ... .. . ... ... : ... .. . ... ... : ... .. . ... ... : ... .. . ... ...
ROW EB : ... .. . ... ... ... : ... .. . ... ... ... : ... .. . ... : ... .. . ... : ... .. . ... ... : ... .. 1 ... ... : ... .. 1 ... ... : ... .. 1 ... ...
ROW EC : ... .. 1 ... ... ... : ... .. 1 ... ... ... : ... .. . ... : ... .. . ... : ... .. . ... ... : ... .. . ... ... : ... .. . ... ... : ... .. . ... ...
ROW ED : ... .. . ... ... ... : ... .. . ... ... ... : ... .. . ... : ... .. . ... : ... .. . ... ... : ... .. . ... ... : ... .. . ... ... : ... .. . ... ...
ROW EE : ... .. . ... ... ... : ... .. . ... ... ... : ... .. . ... : ... .. . ... : ... .. . ... ... : ... .. . ... ... : ... .. . ... ... : ... .. . ... ...
ROW EF : ... .. . ... ... ... : ... .. . ... ... ... : ... .. . ... : ... .. . ... : ... .. . ... ... : --- .. . P82 ... : ... .. . ... ... : ... .. . ... ...
ROW F0 : B-2 00 B ... ... ... : C#3 00 4 ... ... ... : E-2 00 . ... : ... .. . ... : ... .. . ... ... : F#2 01 6 P80 V00 : --- .. . P86 ... : D#3 01 0 ... ...
ROW F1 : ... .. A ... ... ... : ... .. 3 ... ... ... : ... .. . ... : ... .. . ... : ... .. . ... ... : ... .. 5 ... ... : ... .. . ... ... : ... .. . ... ...
ROW F2 : ... .. 9 ... ... ... : ... .. . ... ... ... : ... .. . ... : ... .. . ... : ... .. . ... ... : ... .. . ... ... : ... .. . ... ... : ... .. . ... ...
ROW F3 : ... .. 7 ... ... ... : ... .. 2 ... ... ... : ... .. . ... : ... .. . ... : ... .. . ... ... : ... .. 4 ... ... : ... .. . ... ... : ... .. . ... ...
ROW F4 : ... .. . ... ... ... : ... .. . ... ... ... : ... .. . ... : ... .. . ... : ... .. . ... ... : ... .. . ... ... : ... .. . ... ... : ... .. . ... ...
ROW F5 : ... .. . ... ... ... : ... .. . ... ... ... : ... .. . ... : ... .. . ... : ... .. . ... ... : ... .. . ... ... : ... .. . ... ... : ... .. . ... ...
ROW F6 : ... .. . ... ... ... : ... .. 1 ... ... ... : ... .. . ... : ... .. . ... : ... .. . ... ... : ... .. 3 ... ... : ... .. . ... ... : ... .. . ... ...
ROW F7 : ... .. . ... ... ... : ... .. . ... ... ... : ... .. . ... : ... .. . ... : ... .. . ... ... : ... .. . ... ... : ... .. . ... ... : ... .. . ... ...
ROW F8 : ... .. . ... ... ... : ... .. . ... ... ... : ... .. . ... : ... .. . ... : ... .. . ... ... : ... .. . ... ... : ... .. . ... ... : ... .. . ... ...
ROW F9 : ... .. . ... ... ... : ... .. . ... ... ... : ... .. . ... : ... .. . ... : ... .. . ... ... : ... .. . ... ... : ... .. . ... ... : ... .. . ... ...
ROW FA : ... .. . P84 ... ... : B-2 00 4 ... ... ... : ... .. . ... : ... .. . ... : ... .. . ... ... : ... .. 2 ... ... : ... .. . ... ... : ... .. . ... ...
ROW FB : ... .. . P86 ... ... : ... .. 3 ... ... ... : ... .. . ... : ... .. . ... : ... .. . ... ... : ... .. . ... ... : ... .. . ... ... : ... .. . ... ...
ROW FC : ... .. . P85 ... ... : ... .. . ... ... ... : ... .. . ... : ... .. . ... : ... .. . ... ... : ... .. . ... ... : ... .. . ... ... : ... .. . ... ...
ROW FD : ... .. . P82 ... ... : ... .. 2 ... ... ... : ... .. . ... : ... .. . ... : ... .. . ... ... : ... .. . ... ... : ... .. . ... ... : ... .. . ... ...
ROW FE : ... .. . P7E ... ... : ... .. . ... ... ... : ... .. . ... : ... .. . ... : ... .. . ... ... : ... .. . ... ... : ... .. . ... ... : ... .. . ... ...
ROW FF : ... .. . P7B ... ... : ... .. . ... ... ... : ... .. . ... : ... .. . ... : ... .. . ... ... : ... .. . ... ... : ... .. . ... ... : ... .. . ... ...

PATTERN 06
ROW 00 : ... .. . P7A ... ... : ... .. . ... ... ... : ... .. . ... : ... .. . ... : ... .. . ... ... : ... .. . ... ... : ... .. . ... ... : ... .. . ... ...
ROW 01 : ... .. . P7C ... ... : ... .. . ... ... ... : ... .. . ... : ... .. . ... : ... .. . ... ... : ... .. . ... ... : ... .. . ... ... : ... .. . ... ...
ROW 02 : ... .. . P80 ... ... : ... .. . ... ... ... : ... .. . ... : ... .. . ... : ... .. . ... ... : ... .. . ... ... : ... .. . ... ... : ... .. . ... ...
ROW 03 : ... .. . P83 ... ... : ... .. . ... ... ... : ... .. . ... : ... .. . ... : ... .. . ... ... : ... .. . ... ... : ... .. . ... ... : ... .. . ... ...
ROW 04 : ... .. . P86 ... ... : ... .. . P85 ... ... : --- .. . ... : ... .. . ... : ... .. . ... ... : ... .. . ... ... : B-2 01 3 P81 ... : ... .. 4 ... ...
ROW 05 : ... .. 1 ... ... ... : ... .. . P87 ... ... : ... .. . ... : ... .. . ... : ... .. . ... ... : ... .. . ... ... : ... .. . ... ... : ... .. . ... ...
ROW 06 : ... .. . P82 ... ... : ... .. . P86 ... ... : ... .. . ... : ... .. . ... : ... .. . ... ... : ... .. . ... ... : ... .. . ... ... : ... .. . ... ...
ROW 07 : ... .. . P7F ... ... : ... .. . P83 ... ... : ... .. . ... : ... .. . ... : ... .. . ... ... : ... .. . ... ... : ... .. . ... ... : ... .. . ... ...
ROW 08 : ... .. . P7B ... ... : ... .. . P7F ... ... : ... .. . ... : ... .. . ... : ... .. . ... ... : ... .. . ... ... : ... .. . ... ... : ... .. . ... ...
ROW 09 : ... .. . P7A ... ... : ... .. . P7C ... ... : ... .. . ... : ... .. . ... : ... .. . ... ... : ... .. . ... ... : ... .. 1 ... ... : ... .. 1 ... ...
ROW 0A : ... .. . P7C ... ... : ... .. . P7B ... ... : ... .. . ... : ... .. . ... : ... .. . ... ... : ... .. . ... ... : ... .. . ... ... : ... .. . ... ...
ROW 0B : ... .. 0 ... V00 ... : ... .. . P7D ... ... : ... .. . ... : ... .. . ... : ... .. . ... ... : ... .. . ... ... : ... .. . ... ... : ... .. . ... ...
ROW 0C : ... .. . ... ... ... : ... .. . P81 ... ... : ... .. . ... : ... .. . ... : ... .. . ... ... : ... .. . ... ... : ... .. . ... ... : ... .. . ... ...
ROW 0D : ... .. . ... ... ... : ... .. . P84 ... ... : ... .. . ... : ... .. . ... : ... .. . ... ... : ... .. . ... ... : ... .. . ... ... : ... .. . ... ...
ROW 0E : ... .. . ... ... ... : ... .. . P87 ... ... : ... .. . ... : ... .. . ... : ... .. . ... ... : ... .. 3 ... ... : ... .. 3 ... ... : ... .. 4 ... ...
ROW 0F : ... .. . ... ... ... : ... .. 1 ... ... ... : ... .. . ... : ... .. . ... : ... .. . ... ... : ... .. . ... ... : ... .. . ... ... : ... .. . ... ...
ROW 10 : ... .. . ... ... ... : ... .. . P83 ... ... : ... .. . ... : ... .. . ... : ... .. . ... ... : ... .. . ... ... : ... .. . ... ... : ... .. . ... ...
ROW 11 : ... .. . ... ... ... : ... .. . P80 ... ... : ... .. . ... : ... .. . ... : ... .. . ... ... : ... .. . ... ... : ... .. . ... ... : ... .. . ... ...
ROW 12 : ... .. . ... ... ... : ... .. . P7C ... ... : ... .. . ... : ... .. . ... : ... .. . ... ... : ... .. . ... ... : ... .. . ... ... : ... .. . ... ...
ROW 13 : ... .. . ... ... ... : ... .. . P7B ... ... : ... .. . ... : ... .. . ... : ... .. . ... ... : ... .. 4 ... ... : ... .. 1 ... ... : ... .. 1 ... ...
ROW 14 : ... .. . ... ... ... : ... .. . P7D ... ... : ... .. . ... : ... .. . ... : ... .. . ... ... : ... .. . ... ... : ... .. . ... ... : ... .. . ... ...
ROW 15 : ... .. . ... ... ... : ... .. 0 ... V00 ... : ... .. . ... : ... .. . ... : ... .. . ... ... : ... .. . ... ... : ... .. . ... ... : ... .. . ... ...
ROW 16 : ... .. . ... ... ... : ... .. . ... ... ... : ... .. . ... : ... .. . ... : ... .. . ... ... : ... .. . ... ... : ... .. . ... ... : ... .. . ... ...
ROW 17 : ... .. . ... ... ... : ... .. . ... ... ... : ... .. . ... : ... .. . ... : ... .. . ... ... : ... .. . ... ... : ... .. . ... ... : ... .. . ... ...
ROW 18 : ... .. . ... ... ... : ... .. . ... ... ... : E-2 00 . ... : ... .. . ... : ... .. . ... ... : G#2 01 5 ... ... : ... .. 2 ... ... : B-2 01 1 ... ...
ROW 19 : ... .. . ... ... ... : ... .. . ... ... ... : ... .. . ... : ... .. . ... : ... .. . ... ... : ... .. 4 ... ... : ... .. 1 ... ... : ... .. . ... ...
ROW 1A : ... .. . ... ... ... : ... .. . ... ... ... : ... .. . ... : ... .. . ... : ... .. . ... ... : ... .. . ... ... : ... .. . ... ... : ... .. . ... ...
ROW 1B : ... .. . ... ... ... : ... .. . ... ... ... : ... .. . ... : ... .. . ... : ... .. . ... ... : ... .. . ... ... : ... .. . ... ... : ... .. . ... ...
ROW 1C : ... .. . ... ... ... : ... .. . ... ... ... : ... .. . ... : ... .. . ... : ... .. . ... ... : ... .. 3 ... ... : ... .. . ... ... : ... .. . ... ...
ROW 1D : ... .. . ... ... ... : ... .. . ... ... ... : ... .. . ... : ... .. . ... : ... .. . ... ... : ... .. . ... ... : --- .. . P86 ... : ... .. 0 ... ...
ROW 1E : ... .. . ... ... ... : ... .. . ... ... ... : ... .. . ... : ... .. . ... : ... .. . ... ... : ... .. 2 ... ... : ... .. . ... ... : ... .. . ... ...
ROW 1F : ... .. . ... ... ... : ... .. . ... ... ... : ... .. . ... : ... .. . ... : ... .. . ... ... : ... .. . ... ... : ... .. . ... ... : ... .. . ... ...
ROW 20 : ... .. . ... ... ... : ... .. . ... ... ... : ... .. . ... : ... .. . ... : ... .. . ... ... : ... .. . ... ... : ... .. . ... ... : ... .. . ... ...
ROW 21 : ... .. . ... ... ... : ... .. . ... ... ... : ... .. . ... : ... .. . ... : ... .. . ... ... : ... .. . ... ... : ... .. . ... ... : ... .. . ... ...
ROW 22 : ... .. . ... ... ... : ... .. . ... ... ... : ... .. . ... : ... .. . ... : ... .. . ... ... : ... .. . ... ... : ... .. . ... ... : ... .. . ... ...
ROW 23 : ... .. . ... ... ... : ... .. . ... ... ... : ... .. . ... : ... .. . ... : ... .. . ... ... : ... .. . ... ... : ... .. . ... ... : ... .. . ... ...
ROW 24 : ... .. . ... ... ... : ... .. . ... ... ... : ... .. . ... : ... .. . ... : ... .. . ... ... : ... .. . ... ... : ... .. . ... ... : ... .. . ... ...
ROW 25 : ... .. . ... ... ... : ... .. . ... ... ... : ... .. . ... : ... .. . ... : ... .. . ... ... : ... .. . ... ... : ... .. . ... ... : ... .. . ... ...
ROW 26 : ... .. . ... ... ... : ... .. . ... ... ... : ... .. . ... : ... .. . ... : ... .. . ... ... : ... .. . ... ... : ... .. . ... ... : ... .. . ... ...
ROW 27 : ... .. . ... ... ... : ... .. . ... ... ... : ... .. . ... : ... .. . ... : ... .. . ... ... : ... .. 1 ... ... : ... .. . ... ... : ... .. . ... ...
ROW 28 : ... .. . ... ... ... : ... .. . ... ... ... : ... .. . ... : ... .. . ... : ... .. . ... ... : ... .. . ... ... : ... .. . ... ... : ... .. . ... ...
ROW 29 : ... .. . ... ... ... : ... .. . ... ... ... : ... .. . ... : ... .. . ... : ... .. . ... ... : ... .. . ... ... : ... .. . ... ... : ... .. . ... ...
ROW 2A : ... .. . ... ... ... : ... .. . ... ... ... : ... .. . ... : ... .. . ... : ... .. . ... ... : ... .. . ... ... : ... .. . ... ... : ... .. . ... ...
ROW 2B : ... .. . ... ... ... : ... .. . ... ... ... : ... .. . ... : ... .. . ... : ... .. . ... ... : ... .. . ... ... : ... .. . ... ... : ... .. . ... ...
ROW 2C : B-2 00 B P80 V01 ... : ... .. . ... ... ... : --- .. . ... : ... .. . ... : ... .. . ... ... : ... .. 2 ... ... : B-2 01 6 P81 ... : C#3 01 4 ... ...
ROW 2D : ... .. A ... ... ... : ... .. . ... ... ... : ... .. . ... : ... .. . ... : ... .. . ... ... : ... .. 1 ... ... : ... .. 5 ... ... : ... .. 5 ... ...
ROW 2E : ... .. 9 ... ... ... : ... .. . ... ... ... : ... .. . ... : ... .. . ... : ... .. . ... ... : ... .. . ... ... : ... .. . ... ... : ... .. . ... ...
ROW 2F : ... .. 7 ... ... ... : ... .. . ... ... ... : ... .. . ... : ... .. . ... : ... .. . ... ... : ... .. . ... ... : ... .. 4 ... ... : ... .. 4 ... ...
ROW 30 : ... .. . ... ... ... : ... .. . ... ... ... : ... .. . ... : ... .. . ... : ... .. . ... ... : ... .. . ... ... : ... .. . ... ... : ... .. . ... ...
ROW 31 : ... .. . ... ... ... : ... .. . ... ... ... : ... .. . ... : ... .. . ... : ... .. . ... ... : ... .. . ... ... : ... .. 1 ... ... : ... .. 1 ... ...
ROW 32 : ... .. 1 ... ... ... : ... .. . ... ... ... : ... .. . ... : ... .. . ... : ... .. . ... ... : ... .. . ... ... : ... .. . ... ... : ... .. . ... ...
ROW 33 : ... .. . ... ... ... : ... .. . ... ... ... : ... .. . ... : ... .. . ... : ... .. . ... ... : ... .. . ... ... : ... .. . ... ... : ... .. . ... ...
ROW 34 : ... .. . ... ... ... : ... .. . ... ... ... : ... .. . ... : ... .. . ... : ... .. . ... ... : ... .. . ... ... : ... .. . ... ... : ... .. . ... ...
ROW 35 : ... .. . ... ... ... : ... .. . ... ... ... : ... .. . ... : ... .. . ... : ... .. . ... ... : ... .. . ... ... : ... .. . ... ... : ... .. . ... ...
ROW 36 : C#3 00 B ... ... ... : B-2 00 4 P81 V01 ... : ... .. . ... : ... .. . ... : ... .. . ... ... : --- .. . ... ... : ... .. 3 ... ... : ... .. 4 ... ...
ROW 37 : ... .. A ... ... ... : ... .. 3 ... ... ... : ... .. . ... : ... .. . ... : ... .. . ... ... : ... .. . ... ... : ... .. . ... ... : ... .. . ... ...
ROW 38 : ... .. 9 ... ... ... : ... .. . ... ... ... : ... .. . ... : ... .. . ... : ... .. . ... ... : ... .. . ... ... : ... .. . ... ... : ... .. . ... ...
ROW 39 : ... .. 7 ... ... ... : ... .. 2 ... ... ... : ... .. . ... : ... .. . ... : ... .. . ... ... : ... .. . ... ... : ... .. . ... ... : ... .. . ... ...
ROW 3A : ... .. . ... ... ... : ... .. . ... ... ... : ... .. . ... : ... .. . ... : ... .. . ... ... : ... .. . ... ... : ... .. . ... ... : ... .. . ... ...
ROW 3B : ... .. . ... ... ... : ... .. . ... ... ... : ... .. . ... : ... .. . ... : ... .. . ... ... : ... .. . ... ... : ... .. 1 ... ... : ... .. 1 ... ...
ROW 3C : ... .. 1 ... ... ... : ... .. 1 ... ... ... : ... .. . ... : ... .. . ... : ... .. . ... ... : ... .. . ... ... : ... .. . ... ... : ... .. . ... ...
ROW 3D : ... .. . ... ... ... : ... .. . ... ... ... : ... .. . ... : ... .. . ... : ... .. . ... ... : ... .. . ... ... : ... .. . ... ... : ... .. . ... ...
ROW 3E : ... .. . ... ... ... : ... .. . ... ... ... : ... .. . ... : ... .. . ... : ... .. . ... ... : ... .. . ... ... : ... .. . ... ... : ... .. . ... ...
ROW 3F : ... .. . ... ... ... : ... .. . ... ... ... : ... .. . ... : ... .. . ... : ... .. . ... ... : ... .. . ... ... : ... .. . ... ... : ... .. . ... ...
ROW 40 : D-3 00 B ... ... ... : C#3 00 4 ... ... ... : G-2 00 . ... : ... .. . ... : ... .. . ... ... : B-2 01 6 ... ... : --- .. . P86 ... : F#3 01 0 ... ...
ROW 41 : ... .. A ... ... ... : ... .. 3 ... ... ... : ... .. . ... : ... .. . ... : ... .. . ... ... : ... .. 5 ... ... : ... .. . ... ... : ... .. . ... ...
ROW 42 : ... .. 9 ... ... ... : ... .. . ... ... ... : ... .. . ... : ... .. . ... : ... .. . ... ... : ... .. . ... ... : ... .. . ... ... : ... .. . ... ...
ROW 43 : ... .. 7 ... ... ... : ... .. 2 ... ... ... : ... .. . ... : ... .. . ... : ... .. . ... ... : ... .. 4 ... ... : ... .. . ... ... : ... .. . ... ...
ROW 44 : ... .. . ... ... ... : ... .. . ... ... ... : ... .. . ... : ... .. . ... : ... .. . ... ... : ... .. . ... ... : ... .. . ... ... : ... .. . ... ...
ROW 45 : ... .. . ... ... ... : ... .. . ... ... ... : ... .. . ... : ... .. . ... : ... .. . ... ... : ... .. . ... ... : ... .. . ... ... : ... .. . ... ...
ROW 46 : ... .. . ... ... ... : ... .. 1 ... ... ... : ... .. . ... : ... .. . ... : ... .. . ... ... : ... .. 3 ... ... : ... .. . ... ... : ... .. . ... ...
ROW 47 : ... .. . ... ... ... : ... .. . ... ... ... : ... .. . ... : ... .. . ... : ... .. . ... ... : ... .. . ... ... : ... .. . ... ... : ... .. . ... ...
ROW 48 : ... .. . ... ... ... : ... .. . ... ... ... : ... .. . ... : ... .. . ... : ... .. . ... ... : ... .. . ... ... : ... .. . ... ... : ... .. . ... ...
ROW 49 : ... .. . ... ... ... : ... .. . ... ... ... : ... .. . ... : ... .. . ... : ... .. . ... ... : ... .. . ... ... : ... .. . ... ... : ... .. . ... ...
ROW 4A : ... .. . ... ... ... : D-3 00 4 ... ... ... : ... .. . ... : ... .. . ... : ... .. . ... ... : ... .. 2 ... ... : ... .. . ... ... : ... .. . ... ...
ROW 4B : ... .. . ... ... ... : ... .. 3 ... ... ... : ... .. . ... : ... .. . ... : ... .. . ... ... : ... .. . ... ... : ... .. . ... ... : ... .. . ... ...
ROW 4C : ... .. . ... ... ... : ... .. . ... ... ... : ... .. . ... : ... .. . ... : ... .. . ... ... : ... .. . ... ... : ... .. . ... ... : ... .. . ... ...
ROW 4D : ... .. . ... ... ... : ... .. 2 ... ... ... : ... .. . ... : ... .. . ... : ... .. . ... ... : ... .. . ... ... : ... .. . ... ... : ... .. . ... ...
ROW 4E : ... .. . ... ... ... : ... .. . ... ... ... : ... .. . ... : ... .. . ... : ... .. . ... ... : ... .. . ... ... : ... .. . ... ... : ... .. . ... ...
ROW 4F : ... .. . ... ... ... : ... .. . ... ... ... : ... .. . ... : ... .. . ... : ... .. . ... ... : ... .. . ... ... : ... .. . ... ... : ... .. . ... ...
ROW 50 : ... .. . ... ... ... : ... .. . ... ... ... : ... .. . ... : ... .. . ... : ... .. . ... ... : ... .. . ... ... : ... .. . ... ... : ... .. . ... ...
ROW 51 : ... .. . ... ... ... : ... .. . ... ... ... : ... .. . ... : ... .. . ... : ... .. . ... ... : ... .. . ... ... : ... .. . ... ... : ... .. . ... ...
ROW 52 : ... .. . ... ... ... : ... .. . ... ... ... : ... .. . ... : ... .. . ... : ... .. . ... ... : ... .. . ... ... : ... .. . ... ... : ... .. . ... ...
ROW 53 : ... .. . ... ... ... : ... .. . ... ... ... : ... .. . ... : ... .. . ... : ... .. . ... ... : ... .. . ... ... : ... .. . ... ... : ... .. . ... ...
ROW 54 : B-2 00 B ... ... ... : ... .. . ... ... ... : --- .. . ... : ... .. . ... : ... .. . ... ... : ... .. . ... ... : D-3 01 3 P81 ... : ... .. 4 ... ...
ROW 55 : ... .. A ... ... ... : ... .. . ... ... ... : ... .. . ... : ... .. . ... : ... .. . ... ... : ... .. . ... ... : ... .. . ... ... : ... .. . ... ...
ROW 56 : ... .. 9 ... ... ... : ... .. . ... ... ... : ... .. . ... : ... .. . ... : ... .. . ... ... : ... .. . ... ... : ... .. . ... ... : ... .. . ... ...
ROW 57 : ... .. 7 ... ... ... : ... .. . ... ... ... : ... .. . ... : ... .. . ... : ... .. . ... ... : ... .. . ... ... : ... .. . ... ... : ... .. . ... ...
ROW 58 : ... .. . ... ... ... : ... .. . ... ... ... : ... .. . ... : ... .. . ... : ... .. . ... ... : ... .. . ... ... : ... .. . ... ... : ... .. . ... ...
ROW 59 : ... .. . ... ... ... : ... .. . ... ... ... : ... .. . ... : ... .. . ... : ... .. . ... ... : ... .. . ... ... : ... .. 1 ... ... : ... .. 1 ... ...
ROW 5A : ... .. . ... ... ... : ... .. . ... ... ... : ... .. . ... : ... .. . ... : ... .. . ... ... : ... .. . ... ... : ... .. . ... ... : ... .. . ... ...
ROW 5B : ... .. . ... ... ... : ... .. . ... ... ... : ... .. . ... : ... .. . ... : ... .. . ... ... : ... .. . ... ... : ... .. . ... ... : ... .. . ... ...
ROW 5C : ... .. . ... ... ... : ... .. . ... ... ... : ... .. . ... : ... .. . ... : ... .. . ... ... : ... .. . ... ... : ... .. . ... ... : ... .. . ... ...
ROW 5D : ... .. . ... ... ... : ... .. . ... ... ... : ... .. . ... : ... .. . ... : ... .. . ... ... : ... .. . ... ... : ... .. . ... ... : ... .. . ... ...
ROW 5E : ... .. . ... ... ... : B-2 00 4 ... ... ... : ... .. . ... : ... .. . ... : ... .. . ... ... : ... .. 3 ... ... : ... .. 3 ... ... : ... .. 4 ... ...
ROW 5F : ... .. 1 ... ... ... : ... .. 3 ... ... ... : ... .. . ... : ... .. . ... : ... .. . ... ... : ... .. . ... ... : ... .. . ... ... : ... .. . ... ...
ROW 60 : ... .. . ... ... ... : ... .. . ... ... ... : ... .. . ... : ... .. . ... : ... .. . ... ... : ... .. . ... ... : ... .. . ... ... : ... .. . ... ...
ROW 61 : ... .. . ... ... ... : ... .. 2 ... ... ... : ... .. . ... : ... .. . ... : ... .. . ... ... : ... .. . ... ... : ... .. . ... ... : ... .. . ... ...
ROW 62 : ... .. . ... ... ... : ... .. . ... ... ... : ... .. . ... : ... .. . ... : ... .. . ... ... : ... .. . ... ... : ... .. . ... ... : ... .. . ... ...
ROW 63 : ... .. . ... ... ... : ... .. . ... ... ... : ... .. . ... : ... .. . ... : ... .. . ... ... : ... .. 4 ... ... : ... .. 1 ... ... : ... .. 1 ... ...
ROW 64 : ... .. . ... ... ... : ... .. . ... ... ... : ... .. . ... : ... .. . ... : ... .. . ... ... : ... .. . ... ... : ... .. . ... ... : ... .. . ... ...
ROW 65 : ... .. 0 ... V00 ... : ... .. . ... ... ... : ... .. . ... : ... .. . ... : ... .. . ... ... : ... .. . ... ... : ... .. . ... ... : ... .. . ... ...
ROW 66 : ... .. . ... ... ... : ... .. . ... ... ... : ... .. . ... : ... .. . ... : ... .. . ... ... : ... .. . ... ... : ... .. . ... ... : ... .. . ... ...
ROW 67 : ... .. . ... ... ... : ... .. . ... ... ... : ... .. . ... : ... .. . ... : ... .. . ... ... : ... .. . ... ... : ... .. . ... ... : ... .. . ... ...
ROW 68 : C#3 00 B P80 V01 ... : ... .. . ... ... ... : A-2 00 . ... : ... .. . ... : ... .. . ... ... : C#3 01 5 ... ... : E-3 01 2 ... ... : E-3 01 1 ... ...
ROW 69 : ... .. A ... ... ... : ... .. 1 ... ... ... : ... .. . ... : ... .. . ... : ... .. . ... ... : ... .. 4 ... ... : ... .. 1 ... ... : ... .. . ... ...
ROW 6A : ... .. 9 ... ... ... : ... .. . ... ... ... : ... .. . ... : ... .. . ... : ... .. . ... ... : ... .. . ... ... : ... .. . ... ... : ... .. . ... ...
ROW 6B : ... .. 7 ... ... ... : ... .. . ... ... ... : ... .. . ... : ... .. . ... : ... .. . ... ... : ... .. . ... ... : ... .. . ... ... : ... .. . ... ...
ROW 6C : ... .. . ... ... ... : ... .. . ... ... ... : ... .. . ... : ... .. . ... : ... .. . ... ... : ... .. 3 ... ... : ... .. . ... ... : ... .. . ... ...
ROW 6D : ... .. . ... ... ... : ... .. . ... ... ... : ... .. . ... : ... .. . ... : ... .. . ... ... : ... .. . ... ... : --- .. . P7E ... : ... .. 0 ... ...
ROW 6E : ... .. . ... ... ... : ... .. . ... ... ... : ... .. . ... : ... .. . ... : ... .. . ... ... : ... .. 2 ... ... : ... .. . ... ... : ... .. . ... ...
ROW 6F : ... .. . ... ... ... : ... .. 0 ... V00 ... : ... .. . ... : ... .. . ... : ... .. . ... ... : ... .. . ... ... : ... .. . ... ... : ... .. . ... ...
ROW 70 : ... .. . ... ... ... : ... .. . ... ... ... : ... .. . ... : ... .. . ... : ... .. . ... ... : ... .. . ... ... : ... .. . ... ... : ... .. . ... ...
ROW 71 : ... .. . ... ... ... : ... .. . ... ... ... : ... .. . ... : ... .. . ... : ... .. . ... ... : ... .. . ... ... : ... .. . ... ... : ... .. . ... ...
ROW 72 : ... .. . ... ... ... : C#3 00 4 P81 V01 ... : ... .. . ... : ... .. . ... : ... .. . ... ... : ... .. . ... ... : ... .. . ... ... : ... .. . ... ...
ROW 73 : ... .. . ... ... ... : ... .. 3 ... ... ... : ... .. . ... : ... .. . ... : ... .. . ... ... : ... .. . ... ... : ... .. . ... ... : ... .. . ... ...
ROW 74 : ... .. . ... ... ... : ... .. . ... ... ... : ... .. . ... : ... .. . ... : ... .. . ... ... : ... .. . ... ... : ... .. . ... ... : ... .. . ... ...
ROW 75 : ... .. . ... ... ... : ... .. 2 ... ... ... : ... .. . ... : ... .. . ... : ... .. . ... ... : ... .. . ... ... : ... .. . ... ... : ... .. . ... ...
ROW 76 : ... .. . ... ... ... : ... .. . ... ... ... : ... .. . ... : ... .. . ... : ... .. . ... ... : ... .. . ... ... : ... .. . ... ... : ... .. . ... ...
ROW 77 : ... .. . ... ... ... : ... .. . ... ... ... : ... .. . ... : ... .. . ... : ... .. . ... ... : ... .. 1 ... ... : ... .. . ... ... : ... .. . ... ...
ROW 78 : ... .. . ... ... ... : ... .. . ... ... ... : ... .. . ... : ... .. . ... : ... .. . ... ... : ... .. . ... ... : ... .. . ... ... : ... .. . ... ...
ROW 79 : ... .. . ... ... ... : ... .. . ... ... ... : ... .. . ... : ... .. . ... : ... .. . ... ... : ... .. . ... ... : ... .. . ... ... : ... .. . ... ...
ROW 7A : ... .. . ... ... ... : ... .. . ... ... ... : ... .. . ... : ... .. . ... : ... .. . ... ... : ... .. . ... ... : ... .. . ... ... : ... .. . ... ...
ROW 7B : ... .. . ... ... ... : ... .. . ... ... ... : ... .. . ... : ... .. . ... : ... .. . ... ... : ... .. . ... ... : ... .. . ... ... : ... .. . ... ...
ROW 7C : B-2 00 B ... ... ... : ... .. . ... ... ... : --- .. . ... : ... .. . ... : ... .. . ... ... : ... .. . ... ... : E-3 01 3 P81 ... : ... .. 4 ... ...
ROW 7D : ... .. A ... ... ... : ... .. . ... ... ... : ... .. . ... : ... .. . ... : ... .. . ... ... : ... .. . ... ... : ... .. . ... ... : ... .. . ... ...
ROW 7E : ... .. 9 ... ... ... : ... .. . ... ... ... : ... .. . ... : ... .. . ... : ... .. . ... ... : ... .. . ... ... : ... .. . ... ... : ... .. . ... ...
ROW 7F : ... .. 7 ... ... ... : ... .. . ... ... ... : ... .. . ... : ... .. . ... : ... .. . ... ... : ... .. . ... ... : ... .. . ... ... : ... .. . ... ...
ROW 80 : ... .. . ... ... ... : ... .. . ... ... ... : ... .. . ... : ... .. . ... : ... .. . ... ... : ... .. . ... ... : ... .. . ... ... : ... .. . ... ...
ROW 81 : ... .. . ... ... ... : ... .. . ... ... ... : ... .. . ... : ... .. . ... : ... .. . ... ... : ... .. . ... ... : ... .. 1 ... ... : ... .. 1 ... ...
ROW 82 : ... .. 1 ... ... ... : ... .. . ... ... ... : ... .. . ... : ... .. . ... : ... .. . ... ... : ... .. . ... ... : ... .. . ... ... : ... .. . ... ...
ROW 83 : ... .. . ... ... ... : ... .. . ... ... ... : ... .. . ... : ... .. . ... : ... .. . ... ... : ... .. . ... ... : ... .. . ... ... : ... .. . ... ...
ROW 84 : ... .. . ... ... ... : ... .. . ... ... ... : ... .. . ... : ... .. . ... : ... .. . ... ... : ... .. . ... ... : ... .. . ... ... : ... .. . ... ...
ROW 85 : ... .. . ... ... ... : ... .. . ... ... ... : ... .. . ... : ... .. . ... : ... .. . ... ... : ... .. . ... ... : ... .. . ... ... : ... .. . ... ...
ROW 86 : A-2 00 B ... ... ... : B-2 00 4 ... ... ... : ... .. . ... : ... .. . ... : ... .. . ... ... : --- .. . P83 ... : ... .. 3 ... ... : ... .. 4 ... ...
ROW 87 : ... .. A ... ... ... : ... .. 3 ... ... ... : ... .. . ... : ... .. . ... : ... .. . ... ... : ... .. . ... ... : ... .. . ... ... : ... .. . ... ...
ROW 88 : ... .. 9 ... ... ... : ... .. . ... ... ... : ... .. . ... : ... .. . ... : ... .. . ... ... : ... .. . ... ... : ... .. . ... ... : ... .. . ... ...
ROW 89 : ... .. 7 ... ... ... : ... .. 2 ... ... ... : ... .. . ... : ... .. . ... : ... .. . ... ... : ... .. . ... ... : ... .. . ... ... : ... .. . ... ...
ROW 8A : ... .. . ... ... ... : ... .. . ... ... ... : ... .. . ... : ... .. . ... : ... .. . ... ... : ... .. . ... ... : ... .. . ... ... : ... .. . ... ...
ROW 8B : ... .. . ... ... ... : ... .. . ... ... ... : ... .. . ... : ... .. . ... : ... .. . ... ... : ... .. . ... ... : ... .. 1 ... ... : ... .. 1 ... ...
ROW 8C : ... .. 1 ... ... ... : ... .. 1 ... ... ... : ... .. . ... : ... .. . ... : ... .. . ... ... : ... .. . ... ... : ... .. . ... ... : ... .. . ... ...
ROW 8D : ... .. . ... ... ... : ... .. . ... ... ... : ... .. . ... : ... .. . ... : ... .. . ... ... : ... .. . ... ... : ... .. . ... ... : ... .. . ... ...
ROW 8E : ... .. . ... ... ... : ... .. . ... ... ... : ... .. . ... : ... .. . ... : ... .. . ... ... : ... .. . ... ... : ... .. . ... ... : ... .. . ... ...
ROW 8F : ... .. . ... ... ... : ... .. . ... ... ... : ... .. . ... : ... .. . ... : ... .. . ... ... : ... .. . ... ... : ... .. . ... ... : ... .. . ... ...
ROW 90 : B-2 00 B ... ... ... : A-2 00 4 ... ... ... : E-2 00 . ... : ... .. . ... : ... .. . ... ... : G#2 01 6 P80 ... : ... .. 4 ... ... : F#3 01 3 ... ...
ROW 91 : ... .. A ... ... ... : ... .. 3 ... ... ... : ... .. . ... : ... .. . ... : ... .. . ... ... : ... .. 5 ... ... : ... .. . ... ... : ... .. 4 ... ...
ROW 92 : ... .. 9 ... ... ... : ... .. . ... ... ... : ... .. . ... : ... .. . ... : ... .. . ... ... : ... .. . ... ... : ... .. . ... ... : ... .. . ... ...
ROW 93 : ... .. 7 ... ... ... : ... .. 2 ... ... ... : ... .. . ... : ... .. . ... : ... .. . ... ... : ... .. 4 ... ... : ... .. 3 ... ... : ... .. 3 ... ...
ROW 94 : ... .. . ... ... ... : ... .. . ... ... ... : ... .. . ... : ... .. . ... : ... .. . ... ... : ... .. . ... ... : ... .. . ... ... : ... .. . ... ...
ROW 95 : ... .. . ... ... ... : ... .. . ... ... ... : ... .. . ... : ... .. . ... : ... .. . ... ... : ... .. . ... ... : ... .. . ... ... : ... .. . ... ...
ROW 96 : ... .. . ... ... ... : ... .. 1 ... ... ... : ... .. . ... : ... .. . ... : ... .. . ... ... : ... .. 3 ... ... : ... .. 2 ... ... : ... .. . ... ...
ROW 97 : ... .. . ... ... ... : ... .. . ... ... ... : ... .. . ... : ... .. . ... : ... .. . ... ... : ... .. . ... ... : ... .. . ... ... : ... .. . ... ...
ROW 98 : ... .. . ... ... ... : ... .. . ... ... ... : ... .. . ... : ... .. . ... : ... .. . ... ... : ... .. . ... ... : ... .. . ... ... : ... .. . ... ...
ROW 99 : ... .. . ... ... ... : ... .. . ... ... ... : ... .. . ... : ... .. . ... : ... .. . ... ... : ... .. . ... ... : ... .. . ... ... : ... .. . ... ...
ROW 9A : ... .. . ... ... ... : B-2 00 4 ... ... ... : ... .. . ... : ... .. . ... : ... .. . ... ... : ... .. 2 ... ... : ... .. . ... ... : ... .. . ... ...
ROW 9B : ... .. 1 ... ... ... : ... .. 3 ... ... ... : ... .. . ... : ... .. . ... : ... .. . ... ... : ... .. 1 ... ... : ... .. 1 ... ... : ... .. 1 ... ...
ROW 9C : ... .. . ... ... ... : ... .. . ... ... ... : ... .. . ... : ... .. . ... : ... .. . ... ... : ... .. . ... ... : ... .. . ... ... : ... .. . ... ...
ROW 9D : ... .. . ... ... ... : ... .. 2 ... ... ... : ... .. . ... : ... .. . ... : ... .. . ... ... : ... .. . ... ... : ... .. . ... ... : ... .. . ... ...
ROW 9E : ... .. . ... ... ... : ... .. . ... ... ... : ... .. . ... : ... .. . ... : ... .. . ... ... : ... .. . ... ... : ... .. . ... ... : ... .. . ... ...
ROW 9F : ... .. . ... ... ... : ... .. . ... ... ... : ... .. . ... : ... .. . ... : ... .. . ... ... : ... .. . ... ... : ... .. . ... ... : ... .. . ... ...
ROW A0 : ... .. . ... ... ... : ... .. . ... ... ... : ... .. . ... : ... .. . ... : ... .. . ... ... : ... .. . ... ... : ... .. . ... ... : ... .. . ... ...
ROW A1 : ... .. 0 ... V00 ... : ... .. . ... ... ... : ... .. . ... : ... .. . ... : ... .. . ... ... : ... .. . ... ... : ... .. . ... ... : ... .. . ... ...
ROW A2 : ... .. . ... ... ... : ... .. . ... ... ... : ... .. . ... : ... .. . ... : ... .. . ... ... : ... .. . ... ... : ... .. . ... ... : ... .. . ... ...
ROW A3 : ... .. . ... ... ... : ... .. . ... ... ... : ... .. . ... : ... .. . ... : ... .. . ... ... : ... .. . ... ... : ... .. . ... ... : ... .. . ... ...
ROW A4 : E-3 00 B P80 V01 ... : ... .. . ... ... ... : E-1 00 . ... : ... .. . ... : ... .. . ... ... : B-2 01 4 ... ... : ... .. 4 ... ... : G#3 01 3 ... ...
ROW A5 : ... .. A ... ... ... : ... .. 1 ... ... ... : ... .. . ... : ... .. . ... : ... .. . ... ... : ... .. 3 ... ... : ... .. . ... ... : ... .. 4 ... ...
ROW A6 : ... .. 9 ... ... ... : ... .. . ... ... ... : ... .. . ... : ... .. . ... : ... .. . ... ... : ... .. . ... ... : ... .. . ... ... : ... .. . ... ...
ROW A7 : ... .. 7 ... ... ... : ... .. . ... ... ... : ... .. . ... : ... .. . ... : ... .. . ... ... : ... .. . ... ... : ... .. 3 ... ... : ... .. 3 ... ...
ROW A8 : ... .. . ... ... ... : ... .. . ... ... ... : ... .. . ... : ... .. . ... : ... .. . ... ... : ... .. 2 ... ... : ... .. . ... ... : ... .. . ... ...
ROW A9 : ... .. . ... ... ... : ... .. . ... ... ... : ... .. . ... : ... .. . ... : ... .. . ... ... : ... .. 3 ... ... : ... .. . ... ... : ... .. . ... ...
ROW AA : ... .. . ... ... ... : ... .. . ... ... ... : ... .. . ... : ... .. . ... : ... .. . ... ... : ... .. 2 ... ... : ... .. 2 ... ... : ... .. . ... ...
ROW AB : ... .. . ... ... ... : ... .. 0 ... V00 ... : ... .. . ... : ... .. . ... : ... .. . ... ... : ... .. . ... ... : ... .. . ... ... : ... .. . ... ...
ROW AC : ... .. . ... ... ... : ... .. . ... ... ... : ... .. . ... : ... .. . ... : ... .. . ... ... : ... .. . ... ... : ... .. . ... ... : ... .. . ... ...
ROW AD : ... .. . ... ... ... : ... .. . ... ... ... : ... .. . ... : ... .. . ... : ... .. . ... ... : ... .. . ... ... : ... .. . ... ... : ... .. . ... ...
ROW AE : ... .. . ... ... ... : E-3 00 4 P81 V01 ... : ... .. . ... : ... .. . ... : ... .. . ... ... : ... .. 3 ... ... : ... .. . ... ... : ... .. . ... ...
ROW AF : ... .. 1 ... ... ... : ... .. 3 ... ... ... : ... .. . ... : ... .. . ... : ... .. . ... ... : ... .. 1 ... ... : ... .. 1 ... ... : ... .. 1 ... ...
ROW B0 : ... .. . ... ... ... : ... .. . ... ... ... : ... .. . ... : ... .. . ... : ... .. . ... ... : ... .. . ... ... : ... .. . ... ... : ... .. . ... ...
ROW B1 : ... .. . ... ... ... : ... .. 2 ... ... ... : ... .. . ... : ... .. . ... : ... .. . ... ... : ... .. . ... ... : ... .. . ... ... : ... .. . ... ...
ROW B2 : ... .. . ... ... ... : ... .. . ... ... ... : ... .. . ... : ... .. . ... : ... .. . ... ... : ... .. . ... ... : ... .. . ... ... : ... .. . ... ...
ROW B3 : ... .. . ... ... ... : ... .. . ... ... ... : ... .. . ... : ... .. . ... : ... .. . ... ... : ... .. . ... ... : ... .. . ... ... : ... .. . ... ...
ROW B4 : ... .. . ... ... ... : ... .. . ... ... ... : ... .. . ... : ... .. . ... : ... .. . ... ... : ... .. . ... ... : ... .. . ... ... : ... .. . ... ...
ROW B5 : ... .. 0 ... V00 ... : ... .. . ... ... ... : ... .. . ... : ... .. . ... : ... .. . ... ... : ... .. . ... ... : ... .. . ... ... : ... .. . ... ...
ROW B6 : ... .. . ... ... ... : ... .. . ... ... ... : ... .. . ... : ... .. . ... : ... .. . ... ... : ... .. . ... ... : ... .. . ... ... : ... .. . ... ...
ROW B7 : ... .. . ... ... ... : ... .. . ... ... ... : ... .. . ... : ... .. . ... : ... .. . ... ... : ... .. . ... ... : ... .. . ... ... : ... .. . ... ...
ROW B8 : ... .. . ... ... ... : ... .. . ... ... ... : B-2 00 . ... : ... .. . ... : ... .. . ... ... : ... .. . ... ... : ... .. . ... ... : ... .. . ... ...
ROW B9 : ... .. . ... ... ... : ... .. 1 ... ... ... : ... .. . ... : ... .. . ... : ... .. . ... ... : ... .. . ... ... : ... .. . ... ... : ... .. . ... ...
ROW BA : ... .. . ... ... ... : ... .. . ... ... ... : ... .. . ... : ... .. . ... : ... .. . ... ... : ... .. . ... ... : ... .. . ... ... : ... .. . ... ...
ROW BB : ... .. . ... ... ... : ... .. . ... ... ... : ... .. . ... : ... .. . ... : ... .. . ... ... : ... .. . ... ... : ... .. . ... ... : ... .. . ... ...
ROW BC : ... .. . ... ... ... : ... .. . ... ... ... : ... .. . ... : ... .. . ... : ... .. . ... ... : ... .. . ... ... : ... .. . ... ... : ... .. . ... ...
ROW BD : ... .. . ... ... ... : ... .. . ... ... ... : ... .. . ... : ... .. . ... : ... .. . ... ... : ... .. . ... ... : ... .. . ... ... : ... .. . ... ...
ROW BE : ... .. . ... ... ... : ... .. . ... ... ... : ... .. . ... : ... .. . ... : ... .. . ... ... : ... .. . ... ... : ... .. . ... ... : ... .. . ... ...
ROW BF : ... .. . ... ... ... : ... .. 0 ... V00 ... : ... .. . ... : ... .. . ... : ... .. . ... ... : ... .. . ... ... : ... .. . ... ... : ... .. . ... ...
ROW C0 : ... .. . ... ... ... : ... .. . ... ... ... : ... .. . ... : ... .. . ... : ... .. . ... ... : ... .. . ... ... : ... .. . ... ... : ... .. . ... ...
ROW C1 : ... .. . ... ... ... : ... .. . ... ... ... : ... .. . ... : ... .. . ... : ... .. . ... ... : ... .. . ... ... : ... .. . ... ... : ... .. . ... ...
ROW C2 : ... .. . ... ... ... : ... .. . ... ... ... : ... .. . ... : ... .. . ... : ... .. . ... ... : ... .. . ... ... : ... .. . ... ... : ... .. . ... ...
ROW C3 : ... .. . ... ... ... : ... .. . ... ... ... : ... .. . ... : ... .. . ... : ... .. . ... ... : --- .. . P85 ... : --- .. . P7E ... : ... .. . ... ...
ROW C4 : ... .. . ... ... ... : ... .. . ... ... ... : ... .. . ... : ... .. . ... : ... .. . ... ... : ... .. . ... ... : ... .. . ... ... : ... .. . ... ...
ROW C5 : ... .. . ... ... ... : ... .. . ... ... ... : ... .. . ... : ... .. . ... : ... .. . ... ... : ... .. . ... ... : ... .. . ... ... : ... .. . ... ...
ROW C6 : ... .. . ... ... ... : ... .. . ... ... ... : ... .. . ... : ... .. . ... : ... .. . ... ... : ... .. . ... ... : ... .. . ... ... : ... .. . ... ...
ROW C7 : ... .. . ... ... ... : ... .. . ... ... ... : ... .. . ... : ... .. . ... : ... .. . ... ... : ... .. . ... ... : ... .. . ... ... : ... .. . ... ...
ROW C8 : ... .. . ... ... ... : ... .. . ... ... ... : ... .. . ... : ... .. . ... : ... .. . ... ... : ... .. . ... ... : ... .. . ... ... : ... .. 0 ... ...
ROW C9 : ... .. . ... ... ... : ... .. . ... ... ... : ... .. . ... : ... .. . ... : ... .. . ... ... : ... .. . ... ... : ... .. . ... ... : ... .. . ... ...
ROW CA : ... .. . ... ... ... : ... .. . ... ... ... : ... .. . ... : ... .. . ... : ... .. . ... ... : ... .. . ... ... : ... .. . ... ... : ... .. . ... ...
ROW CB : ... .. . ... ... ... : ... .. . ... ... ... : ... .. . ... : ... .. . ... : ... .. . ... ... : ... .. . ... ... : ... .. . ... ... : ... .. . ... ...
ROW CC : B-2 00 B P80 V01 ... : ... .. . ... ... ... : E-2 00 . ... : ... .. . ... : ... .. . ... ... : ... .. . ... ... : ... .. . ... ... : ... .. . ... ...
ROW CD : ... .. A ... ... ... : ... .. . ... ... ... : ... .. . ... : ... .. . ... : ... .. . ... ... : ... .. . ... ... : ... .. . ... ... : ... .. . ... ...
ROW CE : ... .. 9 ... ... ... : ... .. . ... ... ... : ... .. . ... : ... .. . ... : ... .. . ... ... : ... .. . ... ... : ... .. . ... ... : ... .. . ... ...
ROW CF : ... .. 7 ... ... ... : ... .. . ... ... ... : ... .. . ... : ... .. . ... : ... .. . ... ... : ... .. . ... ... : ... .. . ... ... : ... .. . ... ...
ROW D0 : ... .. . ... ... ... : ... .. . ... ... ... : ... .. . ... : ... .. . ... : ... .. . ... ... : ... .. . ... ... : ... .. . ... ... : ... .. . ... ...
ROW D1 : ... .. . ... ... ... : ... .. . ... ... ... : ... .. . ... : ... .. . ... : ... .. . ... ... : ... .. . ... ... : ... .. . ... ... : ... .. . ... ...
ROW D2 : ... .. 1 ... ... ... : ... .. . ... ... ... : ... .. . ... : ... .. . ... : ... .. . ... ... : ... .. . ... ... : ... .. . ... ... : ... .. . ... ...
ROW D3 : ... .. . ... ... ... : ... .. . ... ... ... : ... .. . ... : ... .. . ... : ... .. . ... ... : ... .. . ... ... : ... .. . ... ... : ... .. . ... ...
ROW D4 : ... .. . ... ... ... : ... .. . ... ... ... : ... .. . ... : ... .. . ... : ... .. . ... ... : ... .. . ... ... : ... .. . ... ... : ... .. . ... ...
ROW D5 : ... .. . ... ... ... : ... .. . ... ... ... : ... .. . ... : ... .. . ... : ... .. . ... ... : ... .. . ... ... : ... .. . ... ... : ... .. . ... ...
ROW D6 : C#3 00 B ... ... ... : B-2 00 4 P81 V01 ... : ... .. . ... : ... .. . ... : ... .. . ... ... : ... .. . ... ... : ... .. . ... ... : ... .. . ... ...
ROW D7 : ... .. A ... ... ... : ... .. 3 ... ... ... : ... .. . ... : ... .. . ... : ... .. . ... ... : ... .. . ... ... : ... .. . ... ... : ... .. . ... ...
ROW D8 : ... .. 9 ... ... ... : ... .. . ... ... ... : ... .. . ... : ... .. . ... : ... .. . ... ... : ... .. . ... ... : ... .. . ... ... : ... .. . ... ...
ROW D9 : ... .. 7 ... ... ... : ... .. 2 ... ... ... : ... .. . ... : ... .. . ... : ... .. . ... ... : ... .. . ... ... : ... .. . ... ... : ... .. . ... ...
ROW DA : ... .. . ... ... ... : ... .. . ... ... ... : ... .. . ... : ... .. . ... : ... .. . ... ... : ... .. . ... ... : ... .. . ... ... : ... .. . ... ...
ROW DB : ... .. . ... ... ... : ... .. . ... ... ... : ... .. . ... : ... .. . ... : ... .. . ... ... : ... .. . ... ... : ... .. . ... ... : ... .. . ... ...
ROW DC : ... .. 1 ... ... ... : ... .. 1 ... ... ... : ... .. . ... : ... .. . ... : ... .. . ... ... : ... .. . ... ... : ... .. . ... ... : ... .. . ... ...
ROW DD : ... .. . ... ... ... : ... .. . ... ... ... : ... .. . ... : ... .. . ... : ... .. . ... ... : ... .. . ... ... : ... .. . ... ... : ... .. . ... ...
ROW DE : ... .. . ... ... ... : ... .. . ... ... ... : ... .. . ... : ... .. . ... : ... .. . ... ... : ... .. . ... ... : ... .. . ... ... : ... .. . ... ...
ROW DF : ... .. . ... ... ... : ... .. . ... ... ... : ... .. . ... : ... .. . ... : ... .. . ... ... : ... .. . ... ... : ... .. . ... ... : ... .. . ... ...
ROW E0 : D-3 00 B ... ... ... : C#3 00 4 ... ... ... : G-2 00 . ... : ... .. . ... : ... .. . ... ... : B-2 01 6 P80 ... : D-3 01 4 P81 ... : G-3 01 3 ... ...
ROW E1 : ... .. A ... ... ... : ... .. 3 ... ... ... : ... .. . ... : ... .. . ... : ... .. . ... ... : ... .. 5 ... ... : ... .. . ... ... : ... .. 4 ... ...
ROW E2 : ... .. 9 ... ... ... : ... .. . ... ... ... : ... .. . ... : ... .. . ... : ... .. . ... ... : ... .. . ... ... : ... .. . ... ... : ... .. . ... ...
ROW E3 : ... .. 7 ... ... ... : ... .. 2 ... ... ... : ... .. . ... : ... .. . ... : ... .. . ... ... : ... .. 4 ... ... : ... .. 3 ... ... : ... .. 3 ... ...
ROW E4 : ... .. . ... ... ... : ... .. . ... ... ... : ... .. . ... : ... .. . ... : ... .. . ... ... : ... .. . ... ... : ... .. . ... ... : ... .. . ... ...
ROW E5 : ... .. . ... ... ... : ... .. . ... ... ... : ... .. . ... : ... .. . ... : ... .. . ... ... : ... .. . ... ... : ... .. . ... ... : ... .. . ... ...
ROW E6 : ... .. . ... ... ... : ... .. 1 ... ... ... : ... .. . ... : ... .. . ... : ... .. . ... ... : ... .. 3 ... ... : ... .. 2 ... ... : ... .. . ... ...
ROW E7 : ... .. . ... ... ... : ... .. . ... ... ... : ... .. . ... : ... .. . ... : ... .. . ... ... : ... .. . ... ... : ... .. . ... ... : ... .. . ... ...
ROW E8 : ... .. . ... ... ... : ... .. . ... ... ... : ... .. . ... : ... .. . ... : ... .. . ... ... : ... .. . ... ... : ... .. . ... ... : ... .. . ... ...
ROW E9 : ... .. . ... ... ... : ... .. . ... ... ... : ... .. . ... : ... .. . ... : ... .. . ... ... : ... .. . ... ... : ... .. . ... ... : ... .. . ... ...
ROW EA : ... .. . ... ... ... : D-3 00 4 ... ... ... : ... .. . ... : ... .. . ... : ... .. . ... ... : ... .. 2 ... ... : ... .. . ... ... : ... .. . ... ...
ROW EB : ... .. . ... ... ... : ... .. 3 ... ... ... : ... .. . ... : ... .. . ... : ... .. . ... ... : ... .. . ... ... : ... .. . ... ... : ... .. . ... ...
ROW EC : ... .. . ... ... ... : ... .. . ... ... ... : ... .. . ... : ... .. . ... : ... .. . ... ... : ... .. . ... ... : ... .. . ... ... : ... .. . ... ...
ROW ED : ... .. . ... ... ... : ... .. 2 ... ... ... : ... .. . ... : ... .. . ... : ... .. . ... ... : ... .. . ... ... : ... .. . ... ... : ... .. . ... ...
ROW EE : ... .. . ... ... ... : ... .. . ... ... ... : ... .. . ... : ... .. . ... : ... .. . ... ... : ... .. . ... ... : ... .. . ... ... : ... .. . ... ...
ROW EF : ... .. . ... ... ... : ... .. . ... ... ... : ... .. . ... : ... .. . ... : ... .. . ... ... : ... .. . ... ... : ... .. . ... ... : ... .. . ... ...
ROW F0 : ... .. . ... ... ... : ... .. . ... ... ... : ... .. . ... : ... .. . ... : ... .. . ... ... : ... .. . ... ... : ... .. . ... ... : ... .. . ... ...
ROW F1 : ... .. . ... ... ... : ... .. . ... ... ... : ... .. . ... : ... .. . ... : ... .. . ... ... : ... .. . ... ... : ... .. . ... ... : ... .. . ... ...
ROW F2 : ... .. . ... ... ... : ... .. . ... ... ... : ... .. . ... : ... .. . ... : ... .. . ... ... : ... .. . ... ... : ... .. . ... ... : ... .. . ... ...
ROW F3 : ... .. . ... ... ... : ... .. . ... ... ... : ... .. . ... : ... .. . ... : ... .. . ... ... : ... .. . ... ... : ... .. . ... ... : ... .. . ... ...
ROW F4 : C#3 00 B ... ... ... : ... .. . ... ... ... : --- .. . ... : ... .. . ... : ... .. . ... ... : ... .. . ... ... : ... .. . ... ... : ... .. . ... ...
ROW F5 : ... .. A ... ... ... : ... .. . ... ... ... : ... .. . ... : ... .. . ... : ... .. . ... ... : ... .. . ... ... : ... .. . ... ... : ... .. . ... ...
ROW F6 : ... .. 9 ... ... ... : ... .. . ... ... ... : ... .. . ... : ... .. . ... : ... .. . ... ... : ... .. . ... ... : ... .. . ... ... : ... .. . ... ...
ROW F7 : ... .. 7 ... ... ... : ... .. . ... ... ... : ... .. . ... : ... .. . ... : ... .. . ... ... : ... .. . ... ... : ... .. . ... ... : ... .. . ... ...
ROW F8 : ... .. . ... ... ... : ... .. . ... ... ... : ... .. . ... : ... .. . ... : ... .. . ... ... : ... .. . ... ... : ... .. . ... ... : ... .. . ... ...
ROW F9 : ... .. . ... ... ... : ... .. . ... ... ... : ... .. . ... : ... .. . ... : ... .. . ... ... : ... .. . ... ... : ... .. . ... ... : ... .. . ... ...
ROW FA : ... .. 1 ... ... ... : ... .. . ... ... ... : ... .. . ... : ... .. . ... : ... .. . ... ... : ... .. . ... ... : ... .. . ... ... : ... .. . ... ...
ROW FB : ... .. . ... ... ... : ... .. . ... ... ... : ... .. . ... : ... .. . ... : ... .. . ... ... : ... .. . ... ... : ... .. . ... ... : ... .. . ... ...
ROW FC : ... .. . ... ... ... : ... .. . ... ... ... : ... .. . ... : ... .. . ... : ... .. . ... ... : ... .. . ... ... : ... .. . ... ... : ... .. . ... ...
ROW FD : ... .. . ... ... ... : ... .. . ... ... ... : ... .. . ... : ... .. . ... : ... .. . ... ... : ... .. . ... ... : ... .. . ... ... : ... .. . ... ...
ROW FE : B-2 00 B ... ... ... : C#3 00 4 ... ... ... : ... .. . ... : ... .. . ... : ... .. . ... ... : ... .. 3 ... ... : ... .. . ... ... : ... .. . ... ...
ROW FF : ... .. A ... ... ... : ... .. 3 ... ... ... : ... .. . ... : ... .. . ... : ... .. . ... ... : ... .. 1 ... ... : ... .. 1 ... ... : ... .. 1 ... ...

PATTERN 07
ROW 00 : ... .. 9 ... ... ... : ... .. . ... ... ... : ... .. . ... : ... .. . ... : ... .. . ... ... : ... .. . ... ... : ... .. . ... ... : ... .. . ... ...
ROW 01 : ... .. 7 ... ... ... : ... .. 2 ... ... ... : ... .. . ... : ... .. . ... : ... .. . ... ... : ... .. . ... ... : ... .. . ... ... : ... .. . ... ...
ROW 02 : ... .. . ... ... ... : ... .. . ... ... ... : ... .. . ... : ... .. . ... : ... .. . ... ... : ... .. . ... ... : ... .. . ... ... : ... .. . ... ...
ROW 03 : ... .. . ... ... ... : ... .. . ... ... ... : ... .. . ... : ... .. . ... : ... .. . ... ... : ... .. . ... ... : ... .. . ... ... : ... .. . ... ...
ROW 04 : ... .. 1 ... ... ... : ... .. 1 ... ... ... : ... .. . ... : ... .. . ... : ... .. . ... ... : ... .. . ... ... : ... .. . ... ... : ... .. . ... ...
ROW 05 : ... .. . ... ... ... : ... .. . ... ... ... : ... .. . ... : ... .. . ... : ... .. . ... ... : ... .. . ... ... : ... .. . ... ... : ... .. . ... ...
ROW 06 : ... .. . ... ... ... : ... .. . ... ... ... : ... .. . ... : ... .. . ... : ... .. . ... ... : ... .. . ... ... : ... .. . ... ... : ... .. . ... ...
ROW 07 : ... .. . ... ... ... : ... .. . ... ... ... : ... .. . ... : ... .. . ... : ... .. . ... ... : ... .. . ... ... : ... .. . ... ... : ... .. . ... ...
ROW 08 : A-2 00 B ... ... ... : B-2 00 4 ... ... ... : F#2 00 . ... : ... .. . ... : ... .. . ... ... : C#3 01 5 ... ... : E-3 01 4 ... ... : A-3 01 3 ... ...
ROW 09 : ... .. A ... ... ... : ... .. 3 ... ... ... : ... .. . ... : ... .. . ... : ... .. . ... ... : ... .. 4 ... ... : ... .. . ... ... : ... .. 4 ... ...
ROW 0A : ... .. 9 ... ... ... : ... .. . ... ... ... : ... .. . ... : ... .. . ... : ... .. . ... ... : ... .. . ... ... : ... .. . ... ... : ... .. . ... ...
ROW 0B : ... .. 7 ... ... ... : ... .. 2 ... ... ... : ... .. . ... : ... .. . ... : ... .. . ... ... : ... .. . ... ... : ... .. 3 ... ... : ... .. 3 ... ...
ROW 0C : ... .. . ... ... ... : ... .. . ... ... ... : ... .. . ... : ... .. . ... : ... .. . ... ... : ... .. 3 ... ... : ... .. . ... ... : ... .. . ... ...
ROW 0D : ... .. . ... ... ... : ... .. . ... ... ... : ... .. . ... : ... .. . ... : ... .. . ... ... : ... .. . ... ... : ... .. . ... ... : ... .. . ... ...
ROW 0E : ... .. . ... ... ... : ... .. 1 ... ... ... : ... .. . ... : ... .. . ... : ... .. . ... ... : ... .. 2 ... ... : ... .. 2 ... ... : ... .. . ... ...
ROW 0F : ... .. . ... ... ... : ... .. . ... ... ... : ... .. . ... : ... .. . ... : ... .. . ... ... : ... .. . ... ... : ... .. . ... ... : ... .. . ... ...
ROW 10 : ... .. . ... ... ... : ... .. . ... ... ... : ... .. . ... : ... .. . ... : ... .. . ... ... : ... .. . ... ... : ... .. . ... ... : ... .. . ... ...
ROW 11 : ... .. . ... ... ... : ... .. . ... ... ... : ... .. . ... : ... .. . ... : ... .. . ... ... : ... .. . ... ... : ... .. . ... ... : ... .. . ... ...
ROW 12 : ... .. . ... ... ... : A-2 00 4 ... ... ... : ... .. . ... : ... .. . ... : ... .. . ... ... : ... .. . ... ... : ... .. . ... ... : ... .. . ... ...
ROW 13 : ... .. 1 ... ... ... : ... .. 3 ... ... ... : ... .. . ... : ... .. . ... : ... .. . ... ... : ... .. . ... ... : ... .. . ... ... : ... .. . ... ...
ROW 14 : ... .. . ... ... ... : ... .. . ... ... ... : ... .. . ... : ... .. . ... : ... .. . ... ... : ... .. . ... ... : ... .. . ... ... : ... .. . ... ...
ROW 15 : ... .. . ... ... ... : ... .. 2 ... ... ... : ... .. . ... : ... .. . ... : ... .. . ... ... : ... .. . ... ... : ... .. . ... ... : ... .. . ... ...
ROW 16 : ... .. . ... ... ... : ... .. . ... ... ... : ... .. . ... : ... .. . ... : ... .. . ... ... : ... .. . ... ... : ... .. . ... ... : ... .. . ... ...
ROW 17 : ... .. . ... ... ... : ... .. . ... ... ... : ... .. . ... : ... .. . ... : ... .. . ... ... : ... .. 1 ... ... : ... .. . ... ... : ... .. . ... ...
ROW 18 : ... .. . ... ... ... : ... .. . ... ... ... : ... .. . ... : ... .. . ... : ... .. . ... ... : ... .. . ... ... : ... .. . ... ... : ... .. . ... ...
ROW 19 : ... .. 0 ... V00 ... : ... .. . ... ... ... : ... .. . ... : ... .. . ... : ... .. . ... ... : ... .. . ... ... : ... .. . ... ... : ... .. . ... ...
ROW 1A : ... .. . ... ... ... : ... .. . ... ... ... : ... .. . ... : ... .. . ... : ... .. . ... ... : ... .. . ... ... : ... .. . ... ... : ... .. . ... ...
ROW 1B : ... .. . ... ... ... : ... .. . ... ... ... : ... .. . ... : ... .. . ... : ... .. . ... ... : ... .. . ... ... : ... .. . ... ... : ... .. . ... ...
ROW 1C : C#3 00 B P80 V01 ... : ... .. . ... ... ... : --- .. . ... : ... .. . ... : ... .. . ... ... : ... .. . ... ... : ... .. . ... ... : ... .. . ... ...
ROW 1D : ... .. A ... ... ... : ... .. 1 ... ... ... : ... .. . ... : ... .. . ... : ... .. . ... ... : ... .. . ... ... : ... .. . ... ... : ... .. . ... ...
ROW 1E : ... .. 9 ... ... ... : ... .. . ... ... ... : ... .. . ... : ... .. . ... : ... .. . ... ... : ... .. . ... ... : ... .. . ... ... : ... .. . ... ...
ROW 1F : ... .. 7 ... ... ... : ... .. . ... ... ... : ... .. . ... : ... .. . ... : ... .. . ... ... : ... .. . ... ... : ... .. . ... ... : ... .. . ... ...
ROW 20 : ... .. . ... ... ... : ... .. . ... ... ... : ... .. . ... : ... .. . ... : ... .. . ... ... : ... .. . ... ... : ... .. . ... ... : ... .. . ... ...
ROW 21 : ... .. . ... ... ... : ... .. . ... ... ... : ... .. . ... : ... .. . ... : ... .. . ... ... : ... .. . ... ... : ... .. . ... ... : ... .. . ... ...
ROW 22 : ... .. . ... ... ... : ... .. . ... ... ... : ... .. . ... : ... .. . ... : ... .. . ... ... : ... .. . ... ... : ... .. . ... ... : ... .. . ... ...
ROW 23 : ... .. . ... ... ... : ... .. 0 ... V00 ... : ... .. . ... : ... .. . ... : ... .. . ... ... : ... .. . ... ... : ... .. . ... ... : ... .. . ... ...
ROW 24 : ... .. . ... ... ... : ... .. . ... ... ... : ... .. . ... : ... .. . ... : ... .. . ... ... : ... .. . ... ... : ... .. . ... ... : ... .. . ... ...
ROW 25 : ... .. . ... ... ... : ... .. . ... ... ... : ... .. . ... : ... .. . ... : ... .. . ... ... : ... .. . ... ... : ... .. . ... ... : ... .. . ... ...
ROW 26 : ... .. . ... ... ... : C#3 00 4 P81 V01 ... : ... .. . ... : ... .. . ... : ... .. . ... ... : --- .. . P83 ... : ... .. . ... ... : ... .. . ... ...
ROW 27 : ... .. . ... ... ... : ... .. 3 ... ... ... : ... .. . ... : ... .. . ... : ... .. . ... ... : ... .. . ... ... : ... .. 1 ... ... : ... .. 1 ... ...
ROW 28 : ... .. . ... ... ... : ... .. . ... ... ... : ... .. . ... : ... .. . ... : ... .. . ... ... : ... .. . ... ... : ... .. . ... ... : ... .. . ... ...
ROW 29 : ... .. . ... ... ... : ... .. 2 ... ... ... : ... .. . ... : ... .. . ... : ... .. . ... ... : ... .. . ... ... : ... .. . ... ... : ... .. . ... ...
ROW 2A : ... .. . ... ... ... : ... .. . ... ... ... : ... .. . ... : ... .. . ... : ... .. . ... ... : ... .. . ... ... : ... .. . ... ... : ... .. . ... ...
ROW 2B : ... .. . ... ... ... : ... .. . ... ... ... : ... .. . ... : ... .. . ... : ... .. . ... ... : ... .. . ... ... : ... .. . ... ... : ... .. . ... ...
ROW 2C : ... .. . ... ... ... : ... .. . ... ... ... : ... .. . ... : ... .. . ... : ... .. . ... ... : ... .. . ... ... : ... .. . ... ... : ... .. . ... ...
ROW 2D : ... .. . ... ... ... : ... .. . ... ... ... : ... .. . ... : ... .. . ... : ... .. . ... ... : ... .. . ... ... : ... .. . ... ... : ... .. . ... ...
ROW 2E : ... .. . ... ... ... : ... .. . ... ... ... : ... .. . ... : ... .. . ... : ... .. . ... ... : ... .. . ... ... : ... .. . ... ... : ... .. . ... ...
ROW 2F : ... .. . ... ... ... : ... .. . ... ... ... : ... .. . ... : ... .. . ... : ... .. . ... ... : ... .. . ... ... : ... .. . ... ... : ... .. . ... ...
ROW 30 : B-2 00 B ... ... ... : ... .. . ... ... ... : B-1 00 . ... : ... .. . ... : ... .. . ... ... : B-2 01 6 P80 ... : C#3 01 4 ... ... : F#3 01 3 ... ...
ROW 31 : ... .. A ... ... ... : ... .. . ... ... ... : ... .. . ... : ... .. . ... : ... .. . ... ... : ... .. 5 ... ... : ... .. . ... ... : ... .. 4 ... ...
ROW 32 : ... .. 9 ... ... ... : ... .. . ... ... ... : ... .. . ... : ... .. . ... : ... .. . ... ... : ... .. . ... ... : ... .. . ... ... : ... .. . ... ...
ROW 33 : ... .. 7 ... ... ... : ... .. . ... ... ... : ... .. . ... : ... .. . ... : ... .. . ... ... : ... .. 4 ... ... : ... .. 3 ... ... : ... .. 3 ... ...
ROW 34 : ... .. . ... ... ... : ... .. . ... ... ... : ... .. . ... : ... .. . ... : ... .. . ... ... : ... .. . ... ... : ... .. . ... ... : ... .. . ... ...
ROW 35 : ... .. . ... ... ... : ... .. . ... ... ... : ... .. . ... : ... .. . ... : ... .. . ... ... : ... .. . ... ... : ... .. . ... ... : ... .. . ... ...
ROW 36 : ... .. . ... ... ... : ... .. . ... ... ... : ... .. . ... : ... .. . ... : ... .. . ... ... : ... .. 3 ... ... : ... .. 2 ... ... : ... .. . ... ...
ROW 37 : ... .. . ... ... ... : ... .. . ... ... ... : ... .. . ... : ... .. . ... : ... .. . ... ... : ... .. . ... ... : ... .. . ... ... : ... .. . ... ...
ROW 38 : ... .. . ... ... ... : ... .. . ... ... ... : ... .. . ... : ... .. . ... : ... .. . ... ... : ... .. . ... ... : ... .. . ... ... : ... .. . ... ...
ROW 39 : ... .. . ... ... ... : ... .. . ... ... ... : ... .. . ... : ... .. . ... : ... .. . ... ... : ... .. . ... ... : ... .. . ... ... : ... .. . ... ...
ROW 3A : ... .. . ... ... ... : B-2 00 4 ... ... ... : ... .. . ... : ... .. . ... : ... .. . ... ... : ... .. 2 ... ... : ... .. . ... ... : ... .. . ... ...
ROW 3B : ... .. . ... ... ... : ... .. 3 ... ... ... : ... .. . ... : ... .. . ... : ... .. . ... ... : ... .. . ... ... : ... .. . ... ... : ... .. . ... ...
ROW 3C : ... .. . ... ... ... : ... .. . ... ... ... : ... .. . ... : ... .. . ... : ... .. . ... ... : ... .. . ... ... : ... .. . ... ... : ... .. . ... ...
ROW 3D : ... .. . ... ... ... : ... .. 2 ... ... ... : ... .. . ... : ... .. . ... : ... .. . ... ... : ... .. . ... ... : ... .. . ... ... : ... .. . ... ...
ROW 3E : ... .. . ... ... ... : ... .. . ... ... ... : ... .. . ... : ... .. . ... : ... .. . ... ... : ... .. . ... ... : ... .. . ... ... : ... .. . ... ...
ROW 3F : ... .. . ... ... ... : ... .. . ... ... ... : ... .. . ... : ... .. . ... : ... .. . ... ... : ... .. . ... ... : ... .. . ... ... : ... .. . ... ...
ROW 40 : ... .. . ... ... ... : ... .. . ... ... ... : ... .. . ... : ... .. . ... : ... .. . ... ... : ... .. . ... ... : ... .. . ... ... : ... .. . ... ...
ROW 41 : ... .. . ... ... ... : ... .. . ... ... ... : ... .. . ... : ... .. . ... : ... .. . ... ... : ... .. . ... ... : ... .. . ... ... : ... .. . ... ...
ROW 42 : ... .. . ... ... ... : ... .. . ... ... ... : ... .. . ... : ... .. . ... : ... .. . ... ... : ... .. . ... ... : ... .. . ... ... : ... .. . ... ...
ROW 43 : ... .. . ... ... ... : ... .. . ... ... ... : ... .. . ... : ... .. . ... : ... .. . ... ... : ... .. . ... ... : ... .. . ... ... : ... .. . ... ...
ROW 44 : ... .. . ... ... ... : ... .. . ... ... ... : ... .. . ... : ... .. . ... : ... .. . ... ... : ... .. . ... ... : ... .. . ... ... : ... .. . ... ...
ROW 45 : ... .. . ... ... ... : ... .. . ... ... ... : ... .. . ... : ... .. . ... : ... .. . ... ... : ... .. . ... ... : ... .. . ... ... : ... .. . ... ...
ROW 46 : ... .. . ... ... ... : ... .. . ... ... ... : ... .. . ... : ... .. . ... : ... .. . ... ... : ... .. . ... ... : ... .. . ... ... : ... .. . ... ...
ROW 47 : ... .. . ... ... ... : ... .. . ... ... ... : ... .. . ... : ... .. . ... : ... .. . ... ... : ... .. . ... ... : ... .. . ... ... : ... .. . ... ...
ROW 48 : ... .. . ... ... ... : ... .. . ... ... ... : ... .. . ... : ... .. . ... : ... .. . ... ... : ... .. . ... ... : ... .. . ... ... : ... .. . ... ...
ROW 49 : ... .. . P87 ... ... : ... .. . ... ... ... : ... .. . ... : ... .. . ... : ... .. . ... ... : ... .. . ... ... : ... .. . ... ... : ... .. . ... ...
ROW 4A : ... .. . P8B ... ... : ... .. . ... ... ... : ... .. . ... : ... .. . ... : ... .. . ... ... : ... .. . ... ... : ... .. . ... ... : ... .. . ... ...
ROW 4B : ... .. . P89 ... ... : ... .. . ... ... ... : ... .. . ... : ... .. . ... : ... .. . ... ... : ... .. . ... ... : ... .. . ... ... : ... .. . ... ...
ROW 4C : ... .. . P83 ... ... : ... .. . ... ... ... : ... .. . ... : ... .. . ... : ... .. . ... ... : ... .. . ... ... : ... .. . ... ... : ... .. . ... ...
ROW 4D : ... .. . P7D ... ... : ... .. . ... ... ... : ... .. . ... : ... .. . ... : ... .. . ... ... : ... .. . ... ... : ... .. . ... ... : ... .. . ... ...
ROW 4E : ... .. . P77 ... ... : ... .. . ... ... ... : ... .. . ... : ... .. . ... : ... .. . ... ... : ... .. 3 ... ... : ... .. . ... ... : ... .. . ... ...
ROW 4F : ... .. . P75 ... ... : ... .. . ... ... ... : ... .. . ... : ... .. . ... : ... .. . ... ... : ... .. . ... ... : ... .. . ... ... : ... .. . ... ...
ROW 50 : ... .. . P79 ... ... : ... .. . ... ... ... : ... .. . ... : ... .. . ... : ... .. . ... ... : ... .. . ... ... : ... .. . ... ... : ... .. . ... ...
ROW 51 : ... .. . P80 ... ... : ... .. . ... ... ... : ... .. . ... : ... .. . ... : ... .. . ... ... : ... .. . ... ... : ... .. . ... ... : ... .. . ... ...
ROW 52 : ... .. . P86 ... ... : ... .. . ... ... ... : ... .. . ... : ... .. . ... : ... .. . ... ... : ... .. . ... ... : ... .. . ... ... : ... .. . ... ...
ROW 53 : ... .. . P8B ... ... : ... .. . ... ... ... : ... .. . ... : ... .. . ... : ... .. . ... ... : ... .. 4 ... ... : ... .. . ... ... : ... .. . ... ...
ROW 54 : ... .. . P8A ... ... : ... .. . ... ... ... : ... .. . ... : ... .. . ... : ... .. . ... ... : ... .. . ... ... : ... .. . ... ... : ... .. . ... ...
ROW 55 : ... .. . P84 ... ... : ... .. . ... ... ... : ... .. . ... : ... .. . ... : ... .. . ... ... : ... .. . ... ... : ... .. . ... ... : ... .. . ... ...
ROW 56 : ... .. . P7E ... ... : ... .. . ... ... ... : ... .. . ... : ... .. . ... : ... .. . ... ... : ... .. . ... ... : ... .. . ... ... : ... .. . ... ...
ROW 57 : ... .. . P77 ... ... : ... .. . ... ... ... : ... .. . ... : ... .. . ... : ... .. . ... ... : ... .. . ... ... : ... .. . ... ... : ... .. . ... ...
ROW 58 : ... .. . P75 ... ... : ... .. . ... ... ... : ... .. . ... : ... .. . ... : ... .. . ... ... : A-2 01 6 ... ... : B-2 01 4 ... ... : E-3 01 3 ... ...
ROW 59 : ... .. . P78 ... ... : ... .. . ... ... ... : ... .. . ... : ... .. . ... : ... .. . ... ... : ... .. 5 ... ... : ... .. . ... ... : ... .. 4 ... ...
ROW 5A : ... .. . P7F ... ... : ... .. . ... ... ... : ... .. . ... : ... .. . ... : ... .. . ... ... : ... .. . ... ... : ... .. . ... ... : ... .. . ... ...
ROW 5B : ... .. . P85 ... ... : ... .. . ... ... ... : ... .. . ... : ... .. . ... : ... .. . ... ... : ... .. 4 ... ... : ... .. 3 ... ... : ... .. 3 ... ...
ROW 5C : ... .. . P8B ... ... : ... .. . ... ... ... : ... .. . ... : ... .. . ... : ... .. . ... ... : ... .. . ... ... : ... .. . ... ... : ... .. . ... ...
ROW 5D : ... .. 0 ... V00 ... : ... .. . ... ... ... : ... .. . ... : ... .. . ... : ... .. . ... ... : ... .. 3 ... ... : ... .. . ... ... : ... .. . ... ...
ROW 5E : ... .. . ... ... ... : ... .. . ... ... ... : ... .. . ... : ... .. . ... : ... .. . ... ... : ... .. 2 ... ... : ... .. 2 ... ... : ... .. . ... ...
ROW 5F : ... .. . ... ... ... : ... .. . ... ... ... : ... .. . ... : ... .. . ... : ... .. . ... ... : ... .. . ... ... : ... .. . ... ... : ... .. . ... ...
ROW 60 : ... .. . ... ... ... : ... .. . ... ... ... : ... .. . ... : ... .. . ... : ... .. . ... ... : ... .. . ... ... : ... .. . ... ... : ... .. . ... ...
ROW 61 : ... .. . ... ... ... : ... .. . ... ... ... : ... .. . ... : ... .. . ... : ... .. . ... ... : ... .. . ... ... : ... .. . ... ... : ... .. . ... ...
ROW 62 : ... .. . ... ... ... : ... .. . ... ... ... : --- .. . ... : ... .. . ... : ... .. . ... ... : ... .. . ... ... : ... .. . ... ... : ... .. . ... ...
ROW 63 : ... .. . ... ... ... : ... .. . ... ... ... : ... .. . ... : ... .. . ... : ... .. . ... ... : ... .. . ... ... : ... .. . ... ... : ... .. . ... ...
ROW 64 : ... .. . ... ... ... : ... .. . ... ... ... : ... .. . ... : ... .. . ... : ... .. . ... ... : ... .. . ... ... : ... .. . ... ... : ... .. . ... ...
ROW 65 : ... .. . ... ... ... : ... .. . ... ... ... : ... .. . ... : ... .. . ... : ... .. . ... ... : ... .. . ... ... : ... .. . ... ... : ... .. . ... ...
ROW 66 : ... .. . ... ... ... : ... .. . ... ... ... : ... .. . ... : ... .. . ... : ... .. . ... ... : ... .. . ... ... : ... .. . ... ... : ... .. . ... ...
ROW 67 : ... .. . ... ... ... : ... .. . ... ... ... : ... .. . ... : ... .. . ... : ... .. . ... ... : ... .. 1 ... ... : ... .. . ... ... : ... .. . ... ...
ROW 68 : ... .. . ... ... ... : ... .. . ... ... ... : ... .. . ... : ... .. . ... : ... .. . ... ... : ... .. . ... ... : ... .. . ... ... : ... .. . ... ...
ROW 69 : ... .. . ... ... ... : ... .. . ... ... ... : ... .. . ... : ... .. . ... : ... .. . ... ... : ... .. . ... ... : ... .. . ... ... : ... .. . ... ...
ROW 6A : ... .. . ... ... ... : ... .. . ... ... ... : ... .. . ... : ... .. . ... : ... .. . ... ... : ... .. . ... ... : ... .. . ... ... : ... .. . ... ...
ROW 6B : ... .. . ... ... ... : ... .. . ... ... ... : ... .. . ... : ... .. . ... : ... .. . ... ... : ... .. . ... ... : ... .. . ... ... : ... .. . ... ...
ROW 6C : ... .. . ... ... ... : C#3 00 8 ... V02 ... : F#1 00 . ... : ... .. . ... : ... .. . ... ... : ... .. . ... ... : ... .. . ... ... : ... .. . ... ...
ROW 6D : ... .. . ... ... ... : ... .. 7 ... ... ... : ... .. . ... : ... .. . ... : ... .. . ... ... : ... .. . ... ... : ... .. . ... ... : ... .. . ... ...
ROW 6E : ... .. . ... ... ... : ... .. . ... ... ... : ... .. . ... : ... .. . ... : ... .. . ... ... : ... .. . ... ... : ... .. . ... ... : ... .. . ... ...
ROW 6F : ... .. . ... ... ... : ... .. 6 ... ... ... : ... .. . ... : ... .. . ... : ... .. . ... ... : ... .. . ... ... : ... .. . ... ... : ... .. . ... ...
ROW 70 : ... .. . ... ... ... : ... .. 5 ... ... ... : ... .. . ... : ... .. . ... : ... .. . ... ... : ... .. . ... ... : ... .. . ... ... : ... .. . ... ...
ROW 71 : ... .. . ... ... ... : ... .. 4 P80 ... ... : ... .. . ... : ... .. . ... : ... .. . ... ... : ... .. . ... ... : ... .. . ... ... : ... .. . ... ...
ROW 72 : ... .. . ... ... ... : ... .. . ... ... ... : ... .. . ... : ... .. . ... : ... .. . ... ... : ... .. . ... ... : ... .. . ... ... : ... .. . ... ...
ROW 73 : ... .. . ... ... ... : ... .. . ... ... ... : ... .. . ... : ... .. . ... : ... .. . ... ... : ... .. . ... ... : ... .. . ... ... : ... .. . ... ...
ROW 74 : ... .. . ... ... ... : ... .. 3 ... ... ... : ... .. . ... : ... .. . ... : ... .. . ... ... : ... .. . ... ... : ... .. . ... ... : ... .. . ... ...
ROW 75 : ... .. . ... ... ... : ... .. . ... ... ... : ... .. . ... : ... .. . ... : ... .. . ... ... : ... .. . ... ... : ... .. . ... ... : ... .. . ... ...
ROW 76 : ... .. . ... ... ... : ... .. 2 ... ... ... : ... .. . ... : ... .. . ... : ... .. . ... ... : --- .. . P82 ... : ... .. . ... ... : ... .. . ... ...
ROW 77 : ... .. . ... ... ... : ... .. . ... ... ... : ... .. . ... : ... .. . ... : ... .. . ... ... : ... .. . ... ... : ... .. . ... ... : ... .. . ... ...
ROW 78 : ... .. . ... ... ... : ... .. . ... ... ... : ... .. . ... : ... .. . ... : ... .. . ... ... : ... .. . ... ... : ... .. . ... ... : ... .. . ... ...
ROW 79 : ... .. . ... ... ... : ... .. 1 ... ... ... : ... .. . ... : ... .. . ... : ... .. . ... ... : ... .. . ... ... : ... .. . ... ... : ... .. . ... ...
ROW 7A : ... .. . ... ... ... : ... .. . ... ... ... : ... .. . ... : ... .. . ... : ... .. . ... ... : ... .. . ... ... : ... .. . ... ... : ... .. . ... ...
ROW 7B : ... .. . ... ... ... : ... .. . ... ... ... : ... .. . ... : ... .. . ... : ... .. . ... ... : ... .. . ... ... : ... .. . ... ... : ... .. . ... ...
ROW 7C : ... .. . ... ... ... : ... .. 0 ... V00 ... : ... .. . ... : ... .. . ... : ... .. . ... ... : ... .. . ... ... : ... .. . ... ... : ... .. . ... ...
ROW 7D : ... .. . ... ... ... : ... .. . ... ... ... : ... .. . ... : ... .. . ... : ... .. . ... ... : ... .. . ... ... : ... .. . ... ... : ... .. . ... ...
ROW 7E : ... .. . ... ... ... : ... .. . ... ... ... : ... .. . ... : ... .. . ... : ... .. . ... ... : ... .. . ... ... : ... .. . ... ... : ... .. . ... ...
ROW 7F : ... .. . ... ... ... : ... .. . ... ... ... : ... .. . ... : ... .. . ... : ... .. . ... ... : ... .. . ... ... : ... .. . ... ... : ... .. . ... ...
ROW 80 : ... .. . ... ... ... : D#3 00 A P80 V02 ... : B-1 00 . ... : ... .. . ... : ... .. . ... ... : B-2 01 6 P80 ... : --- .. . P86 ... : ... .. 0 ... ...
ROW 81 : ... .. . ... ... ... : ... .. 9 ... ... ... : ... .. . ... : ... .. . ... : ... .. . ... ... : ... .. 5 ... ... : ... .. . ... ... : ... .. . ... ...
ROW 82 : ... .. . ... ... ... : ... .. 8 ... ... ... : ... .. . ... : ... .. . ... : ... .. . ... ... : ... .. . ... ... : ... .. . ... ... : ... .. . ... ...
ROW 83 : ... .. . ... ... ... : ... .. 6 ... ... ... : ... .. . ... : ... .. . ... : ... .. . ... ... : ... .. 4 ... ... : ... .. . ... ... : ... .. . ... ...
ROW 84 : ... .. . ... ... ... : ... .. . ... ... ... : ... .. . ... : ... .. . ... : ... .. . ... ... : ... .. . ... ... : ... .. . ... ... : ... .. . ... ...
ROW 85 : ... .. . ... ... ... : ... .. . ... ... ... : ... .. . ... : ... .. . ... : ... .. . ... ... : ... .. . ... ... : ... .. . ... ... : ... .. . ... ...
ROW 86 : ... .. . ... ... ... : ... .. 1 ... ... ... : ... .. . ... : ... .. . ... : ... .. . ... ... : ... .. 3 ... ... : ... .. . ... ... : ... .. . ... ...
ROW 87 : ... .. . ... ... ... : ... .. . ... ... ... : ... .. . ... : ... .. . ... : ... .. . ... ... : ... .. . ... ... : ... .. . ... ... : ... .. . ... ...
ROW 88 : ... .. . ... ... ... : ... .. . ... ... ... : ... .. . ... : ... .. . ... : ... .. . ... ... : ... .. . ... ... : ... .. . ... ... : ... .. . ... ...
ROW 89 : ... .. . ... ... ... : ... .. . ... ... ... : ... .. . ... : ... .. . ... : ... .. . ... ... : ... .. . ... ... : ... .. . ... ... : ... .. . ... ...
ROW 8A : ... .. . ... ... ... : C#3 00 A ... ... ... : ... .. . ... : ... .. . ... : ... .. . ... ... : ... .. 2 ... ... : ... .. . ... ... : ... .. . ... ...
ROW 8B : ... .. . ... ... ... : ... .. 9 ... ... ... : ... .. . ... : ... .. . ... : ... .. . ... ... : ... .. . ... ... : ... .. . ... ... : ... .. . ... ...
ROW 8C : ... .. . ... ... ... : ... .. 8 ... ... ... : ... .. . ... : ... .. . ... : ... .. . ... ... : ... .. . ... ... : ... .. . ... ... : ... .. . ... ...
ROW 8D : ... .. . ... ... ... : ... .. 6 ... ... ... : ... .. . ... : ... .. . ... : ... .. . ... ... : ... .. . ... ... : ... .. . ... ... : ... .. . ... ...
ROW 8E : ... .. . ... ... ... : ... .. . ... ... ... : ... .. . ... : ... .. . ... : ... .. . ... ... : ... .. . ... ... : ... .. . ... ... : ... .. . ... ...
ROW 8F : ... .. . ... ... ... : ... .. . ... ... ... : ... .. . ... : ... .. . ... : ... .. . ... ... : ... .. . ... ... : ... .. . ... ... : ... .. . ... ...
ROW 90 : ... .. . ... ... ... : ... .. 1 ... ... ... : ... .. . ... : ... .. . ... : ... .. . ... ... : ... .. . ... ... : ... .. . ... ... : ... .. . ... ...
ROW 91 : ... .. . ... ... ... : ... .. . ... ... ... : ... .. . ... : ... .. . ... : ... .. . ... ... : ... .. . ... ... : ... .. . ... ... : ... .. . ... ...
ROW 92 : ... .. . ... ... ... : ... .. . ... ... ... : ... .. . ... : ... .. . ... : ... .. . ... ... : ... .. . ... ... : ... .. . ... ... : ... .. . ... ...
ROW 93 : ... .. . ... ... ... : ... .. . ... ... ... : ... .. . ... : ... .. . ... : ... .. . ... ... : ... .. . ... ... : ... .. . ... ... : ... .. . ... ...
ROW 94 : ... .. . ... ... ... : D#3 00 8 ... ... ... : --- .. . ... : ... .. . ... : ... .. . ... ... : ... .. 4 ... ... : C#3 01 6 P81 ... : F#2 01 7 ... ...
ROW 95 : ... .. . ... ... ... : ... .. 7 ... ... ... : ... .. . ... : ... .. . ... : ... .. . ... ... : ... .. 3 ... ... : ... .. 5 ... ... : ... .. 6 ... ...
ROW 96 : ... .. . ... ... ... : ... .. 6 ... ... ... : ... .. . ... : ... .. . ... : ... .. . ... ... : ... .. . ... ... : ... .. . ... ... : ... .. 5 ... ...
ROW 97 : ... .. . ... ... ... : ... .. 5 ... ... ... : ... .. . ... : ... .. . ... : ... .. . ... ... : ... .. . ... ... : ... .. 4 ... ... : ... .. 4 ... ...
ROW 98 : ... .. . ... ... ... : ... .. . ... ... ... : ... .. . ... : ... .. . ... : ... .. . ... ... : ... .. 2 ... ... : ... .. . ... ... : ... .. 3 ... ...
ROW 99 : ... .. . ... ... ... : ... .. 6 ... ... ... : ... .. . ... : ... .. . ... : ... .. . ... ... : ... .. 3 ... ... : ... .. 1 ... ... : ... .. 1 ... ...
ROW 9A : ... .. . ... ... ... : ... .. . ... ... ... : ... .. . ... : ... .. . ... : ... .. . ... ... : ... .. 2 ... ... : ... .. . ... ... : ... .. . ... ...
ROW 9B : ... .. . ... ... ... : ... .. . ... ... ... : ... .. . ... : ... .. . ... : ... .. . ... ... : ... .. . ... ... : ... .. . ... ... : ... .. . ... ...
ROW 9C : ... .. . ... ... ... : ... .. . ... ... ... : ... .. . ... : ... .. . ... : ... .. . ... ... : ... .. . ... ... : ... .. . ... ... : ... .. . ... ...
ROW 9D : ... .. . ... ... ... : ... .. . ... ... ... : ... .. . ... : ... .. . ... : ... .. . ... ... : ... .. . ... ... : ... .. . ... ... : ... .. . ... ...
ROW 9E : ... .. . ... ... ... : ... .. . ... ... ... : ... .. . ... : ... .. . ... : ... .. . ... ... : ... .. 3 ... ... : ... .. 3 ... ... : ... .. 7 ... ...
ROW 9F : ... .. . ... ... ... : ... .. . ... ... ... : ... .. . ... : ... .. . ... : ... .. . ... ... : ... .. . ... ... : ... .. . ... ... : ... .. 6 ... ...
ROW A0 : ... .. . ... ... ... : ... .. . ... ... ... : ... .. . ... : ... .. . ... : ... .. . ... ... : ... .. . ... ... : ... .. . ... ... : ... .. 5 ... ...
ROW A1 : ... .. . ... ... ... : ... .. . ... ... ... : ... .. . ... : ... .. . ... : ... .. . ... ... : ... .. . ... ... : ... .. . ... ... : ... .. 4 ... ...
ROW A2 : ... .. . ... ... ... : ... .. . ... ... ... : ... .. . ... : ... .. . ... : ... .. . ... ... : ... .. . ... ... : ... .. . ... ... : ... .. 3 ... ...
ROW A3 : ... .. . ... ... ... : ... .. 8 ... ... ... : ... .. . ... : ... .. . ... : ... .. . ... ... : ... .. 4 ... ... : ... .. 1 ... ... : ... .. 1 ... ...
ROW A4 : ... .. . ... ... ... : ... .. . ... ... ... : ... .. . ... : ... .. . ... : ... .. . ... ... : ... .. . ... ... : ... .. . ... ... : ... .. . ... ...
ROW A5 : ... .. . ... ... ... : ... .. . ... ... ... : ... .. . ... : ... .. . ... : ... .. . ... ... : ... .. . ... ... : ... .. . ... ... : ... .. . ... ...
ROW A6 : ... .. . ... ... ... : ... .. . ... ... ... : ... .. . ... : ... .. . ... : ... .. . ... ... : ... .. . ... ... : ... .. . ... ... : ... .. . ... ...
ROW A7 : ... .. . ... ... ... : ... .. . ... ... ... : ... .. . ... : ... .. . ... : ... .. . ... ... : ... .. . ... ... : ... .. . ... ... : ... .. . ... ...
ROW A8 : F#3 00 8 P80 V01 ... : ... .. . P84 ... ... : B-1 00 . ... : ... .. . ... : ... .. . ... ... : ... .. 5 ... ... : ... .. 2 ... ... : ... .. . ... ...
ROW A9 : ... .. 7 ... ... ... : ... .. . P86 ... ... : ... .. . ... : ... .. . ... : ... .. . ... ... : ... .. 4 ... ... : ... .. 1 ... ... : ... .. . ... ...
ROW AA : ... .. 6 ... ... ... : ... .. . P85 ... ... : ... .. . ... : ... .. . ... : ... .. . ... ... : ... .. . ... ... : ... .. . ... ... : ... .. . ... ...
ROW AB : ... .. 5 ... ... ... : ... .. . P82 ... ... : ... .. . ... : ... .. . ... : ... .. . ... ... : ... .. . ... ... : ... .. . ... ... : ... .. 0 ... ...
ROW AC : ... .. . ... ... ... : ... .. . P7E ... ... : ... .. . ... : ... .. . ... : ... .. . ... ... : ... .. 3 ... ... : ... .. . ... ... : ... .. . ... ...
ROW AD : ... .. . ... ... ... : ... .. A P7B ... ... : ... .. . ... : ... .. . ... : ... .. . ... ... : ... .. . ... ... : --- .. . P84 ... : ... .. . ... ...
ROW AE : ... .. . ... ... ... : ... .. . P7A ... ... : ... .. . ... : ... .. . ... : ... .. . ... ... : ... .. 2 ... ... : ... .. . ... ... : ... .. . ... ...
ROW AF : ... .. . ... ... ... : ... .. . P7C ... ... : ... .. . ... : ... .. . ... : ... .. . ... ... : ... .. . ... ... : ... .. . ... ... : ... .. . ... ...
ROW B0 : ... .. . ... ... ... : ... .. . P80 ... ... : ... .. . ... : ... .. . ... : ... .. . ... ... : ... .. . ... ... : ... .. . ... ... : ... .. . ... ...
ROW B1 : ... .. . ... ... ... : ... .. . P83 ... ... : ... .. . ... : ... .. . ... : ... .. . ... ... : ... .. . ... ... : ... .. . ... ... : ... .. . ... ...
ROW B2 : ... .. . ... ... ... : ... .. . P86 ... ... : ... .. . ... : ... .. . ... : ... .. . ... ... : ... .. . ... ... : ... .. . ... ... : ... .. . ... ...
ROW B3 : ... .. 1 ... ... ... : ... .. . ... ... ... : ... .. . ... : ... .. . ... : ... .. . ... ... : ... .. . ... ... : ... .. . ... ... : ... .. . ... ...
ROW B4 : ... .. . ... ... ... : ... .. . P82 ... ... : ... .. . ... : ... .. . ... : ... .. . ... ... : ... .. . ... ... : ... .. . ... ... : ... .. . ... ...
ROW B5 : ... .. . ... ... ... : ... .. . P7F ... ... : ... .. . ... : ... .. . ... : ... .. . ... ... : ... .. . ... ... : ... .. . ... ... : ... .. . ... ...
ROW B6 : ... .. . ... ... ... : ... .. . P7B ... ... : ... .. . ... : ... .. . ... : ... .. . ... ... : ... .. . ... ... : ... .. . ... ... : ... .. . ... ...
ROW B7 : ... .. . ... ... ... : ... .. . P80 ... ... : ... .. . ... : ... .. . ... : ... .. . ... ... : ... .. 1 ... ... : ... .. . ... ... : ... .. . ... ...
ROW B8 : ... .. . ... ... ... : ... .. 2 ... ... ... : ... .. . ... : ... .. . ... : ... .. . ... ... : ... .. . ... ... : ... .. . ... ... : ... .. . ... ...
ROW B9 : ... .. 0 ... V00 ... : ... .. . ... ... ... : ... .. . ... : ... .. . ... : ... .. . ... ... : ... .. . ... ... : ... .. . ... ... : ... .. . ... ...
ROW BA : ... .. . ... ... ... : ... .. . ... ... ... : ... .. . ... : ... .. . ... : ... .. . ... ... : ... .. . ... ... : ... .. . ... ... : ... .. . ... ...
ROW BB : ... .. . ... ... ... : ... .. 1 ... ... ... : ... .. . ... : ... .. . ... : ... .. . ... ... : ... .. . ... ... : ... .. . ... ... : ... .. . ... ...
ROW BC : B-2 00 8 P80 V01 ... : C#3 00 A ... ... ... : --- .. . ... : ... .. . ... : ... .. . ... ... : ... .. 2 ... ... : C#3 01 6 P81 ... : ... .. 7 ... ...
ROW BD : ... .. 7 ... ... ... : ... .. 9 ... ... ... : ... .. . ... : ... .. . ... : ... .. . ... ... : ... .. 1 ... ... : ... .. 5 ... ... : ... .. 6 ... ...
ROW BE : ... .. 6 ... ... ... : ... .. 8 ... ... ... : ... .. . ... : ... .. . ... : ... .. . ... ... : ... .. . ... ... : ... .. . ... ... : ... .. 5 ... ...
ROW BF : ... .. 5 ... ... ... : ... .. 6 ... ... ... : ... .. . ... : ... .. . ... : ... .. . ... ... : ... .. . ... ... : ... .. 4 ... ... : ... .. 4 ... ...
ROW C0 : ... .. . ... ... ... : ... .. . ... ... ... : ... .. . ... : ... .. . ... : ... .. . ... ... : ... .. . ... ... : ... .. . ... ... : ... .. 3 ... ...
ROW C1 : ... .. . ... ... ... : ... .. . ... ... ... : ... .. . ... : ... .. . ... : ... .. . ... ... : ... .. . ... ... : ... .. 1 ... ... : ... .. 1 ... ...
ROW C2 : ... .. . ... ... ... : ... .. . ... ... ... : ... .. . ... : ... .. . ... : ... .. . ... ... : ... .. . ... ... : ... .. . ... ... : ... .. . ... ...
ROW C3 : ... .. . ... ... ... : ... .. . ... ... ... : ... .. . ... : ... .. . ... : ... .. . ... ... : ... .. . ... ... : ... .. . ... ... : ... .. . ... ...
ROW C4 : ... .. . ... ... ... : ... .. . ... ... ... : ... .. . ... : ... .. . ... : ... .. . ... ... : ... .. . ... ... : ... .. . ... ... : ... .. . ... ...
ROW C5 : ... .. . ... ... ... : D#3 00 8 ... ... ... : ... .. . ... : ... .. . ... : ... .. . ... ... : ... .. . ... ... : ... .. . ... ... : ... .. . ... ...
ROW C6 : ... .. . ... ... ... : ... .. 7 ... ... ... : ... .. . ... : ... .. . ... : ... .. . ... ... : --- .. . P85 ... : ... .. 3 ... ... : ... .. 7 ... ...
ROW C7 : ... .. 1 ... ... ... : ... .. 6 ... ... ... : ... .. . ... : ... .. . ... : ... .. . ... ... : ... .. . ... ... : ... .. . ... ... : ... .. 6 ... ...
ROW C8 : ... .. . ... ... ... : C#3 00 6 ... ... ... : ... .. . ... : ... .. . ... : ... .. . ... ... : ... .. . ... ... : ... .. . ... ... : ... .. 5 ... ...
ROW C9 : ... .. . ... ... ... : ... .. 5 ... ... ... : ... .. . ... : ... .. . ... : ... .. . ... ... : ... .. . ... ... : ... .. . ... ... : ... .. 4 ... ...
ROW CA : ... .. . ... ... ... : ... .. . ... ... ... : ... .. . ... : ... .. . ... : ... .. . ... ... : ... .. . ... ... : ... .. . ... ... : ... .. 3 ... ...
ROW CB : ... .. . ... ... ... : ... .. 4 ... ... ... : ... .. . ... : ... .. . ... : ... .. . ... ... : ... .. . ... ... : ... .. 1 ... ... : ... .. 1 ... ...
ROW CC : ... .. . ... ... ... : B-2 00 8 ... ... ... : ... .. . ... : ... .. . ... : ... .. . ... ... : ... .. . ... ... : ... .. . ... ... : ... .. . ... ...
ROW CD : ... .. 0 ... V00 ... : ... .. 7 ... ... ... : ... .. . ... : ... .. . ... : ... .. . ... ... : ... .. . ... ... : ... .. . ... ... : ... .. . ... ...
ROW CE : ... .. . ... ... ... : ... .. 6 ... ... ... : ... .. . ... : ... .. . ... : ... .. . ... ... : ... .. . ... ... : ... .. . ... ... : ... .. . ... ...
ROW CF : ... .. . ... ... ... : ... .. 5 ... ... ... : ... .. . ... : ... .. . ... : ... .. . ... ... : ... .. . ... ... : ... .. . ... ... : ... .. . ... ...
ROW D0 : C#3 00 8 P80 V01 ... : A-2 00 A ... ... ... : F#2 00 . ... : ... .. . ... : ... .. . ... ... : A-2 01 6 P80 ... : --- .. . P84 ... : ... .. 0 ... ...
ROW D1 : ... .. 7 ... ... ... : ... .. 9 ... ... ... : ... .. . ... : ... .. . ... : ... .. . ... ... : ... .. 5 ... ... : ... .. . ... ... : ... .. . ... ...
ROW D2 : ... .. 6 ... ... ... : ... .. 8 ... ... ... : ... .. . ... : ... .. . ... : ... .. . ... ... : ... .. . ... ... : ... .. . ... ... : ... .. . ... ...
ROW D3 : ... .. 5 ... ... ... : ... .. 6 ... ... ... : ... .. . ... : ... .. . ... : ... .. . ... ... : ... .. 4 ... ... : ... .. . ... ... : ... .. . ... ...
ROW D4 : ... .. . ... ... ... : ... .. . ... ... ... : ... .. . ... : ... .. . ... : ... .. . ... ... : ... .. . ... ... : ... .. . ... ... : ... .. . ... ...
ROW D5 : ... .. . ... ... ... : ... .. . ... ... ... : ... .. . ... : ... .. . ... : ... .. . ... ... : ... .. . ... ... : ... .. . ... ... : ... .. . ... ...
ROW D6 : ... .. . ... ... ... : ... .. 1 ... ... ... : ... .. . ... : ... .. . ... : ... .. . ... ... : ... .. 3 ... ... : ... .. . ... ... : ... .. . ... ...
ROW D7 : ... .. . ... ... ... : ... .. . ... ... ... : ... .. . ... : ... .. . ... : ... .. . ... ... : ... .. . ... ... : ... .. . ... ... : ... .. . ... ...
ROW D8 : ... .. . ... ... ... : ... .. . ... ... ... : ... .. . ... : ... .. . ... : ... .. . ... ... : ... .. . ... ... : ... .. . ... ... : ... .. . ... ...
ROW D9 : ... .. . ... ... ... : ... .. . ... ... ... : ... .. . ... : ... .. . ... : ... .. . ... ... : ... .. . ... ... : ... .. . ... ... : ... .. . ... ...
ROW DA : ... .. . ... ... ... : G#2 00 A ... ... ... : ... .. . ... : ... .. . ... : ... .. . ... ... : ... .. 2 ... ... : ... .. . ... ... : ... .. . ... ...
ROW DB : ... .. 1 ... ... ... : ... .. 9 ... ... ... : ... .. . ... : ... .. . ... : ... .. . ... ... : ... .. . ... ... : ... .. . ... ... : ... .. . ... ...
ROW DC : ... .. . ... ... ... : ... .. 8 ... ... ... : ... .. . ... : ... .. . ... : ... .. . ... ... : ... .. . ... ... : ... .. . ... ... : ... .. . ... ...
ROW DD : ... .. . ... ... ... : ... .. 6 ... ... ... : ... .. . ... : ... .. . ... : ... .. . ... ... : ... .. . ... ... : ... .. . ... ... : ... .. . ... ...
ROW DE : ... .. . ... ... ... : ... .. . ... ... ... : ... .. . ... : ... .. . ... : ... .. . ... ... : ... .. . ... ... : ... .. . ... ... : ... .. . ... ...
ROW DF : ... .. . ... ... ... : ... .. . ... ... ... : ... .. . ... : ... .. . ... : ... .. . ... ... : ... .. . ... ... : ... .. . ... ... : ... .. . ... ...
ROW E0 : ... .. . ... ... ... : ... .. 1 ... ... ... : ... .. . ... : ... .. . ... : ... .. . ... ... : ... .. . ... ... : ... .. . ... ... : ... .. . ... ...
ROW E1 : ... .. 0 ... V00 ... : ... .. . ... ... ... : ... .. . ... : ... .. . ... : ... .. . ... ... : ... .. . ... ... : ... .. . ... ... : ... .. . ... ...
ROW E2 : ... .. . ... ... ... : ... .. . ... ... ... : ... .. . ... : ... .. . ... : ... .. . ... ... : ... .. . ... ... : ... .. . ... ... : ... .. . ... ...
ROW E3 : ... .. . ... ... ... : ... .. . ... ... ... : ... .. . ... : ... .. . ... : ... .. . ... ... : ... .. . ... ... : ... .. . ... ... : ... .. . ... ...
ROW E4 : F#2 00 8 P80 V01 ... : F#2 00 A ... ... ... : --- .. . ... : ... .. . ... : ... .. . ... ... : ... .. 4 ... ... : C#3 01 6 P81 ... : E-2 01 7 ... ...
ROW E5 : ... .. 7 ... ... ... : ... .. 9 ... ... ... : ... .. . ... : ... .. . ... : ... .. . ... ... : ... .. 3 ... ... : ... .. 5 ... ... : ... .. 6 ... ...
ROW E6 : ... .. 6 ... ... ... : ... .. 8 ... ... ... : ... .. . ... : ... .. . ... : ... .. . ... ... : ... .. . ... ... : ... .. . ... ... : ... .. 5 ... ...
ROW E7 : ... .. 5 ... ... ... : ... .. 6 ... ... ... : ... .. . ... : ... .. . ... : ... .. . ... ... : ... .. . ... ... : ... .. 4 ... ... : ... .. 4 ... ...
ROW E8 : ... .. . ... ... ... : ... .. . ... ... ... : ... .. . ... : ... .. . ... : ... .. . ... ... : ... .. 2 ... ... : ... .. . ... ... : ... .. 3 ... ...
ROW E9 : ... .. . ... ... ... : ... .. . ... ... ... : ... .. . ... : ... .. . ... : ... .. . ... ... : ... .. 3 ... ... : ... .. 1 ... ... : ... .. 1 ... ...
ROW EA : ... .. . ... ... ... : ... .. . ... ... ... : ... .. . ... : ... .. . ... : ... .. . ... ... : ... .. 2 ... ... : ... .. . ... ... : ... .. . ... ...
ROW EB : ... .. . ... ... ... : ... .. . ... ... ... : ... .. . ... : ... .. . ... : ... .. . ... ... : ... .. . ... ... : ... .. . ... ... : ... .. . ... ...
ROW EC : ... .. . ... ... ... : ... .. . ... ... ... : ... .. . ... : ... .. . ... : ... .. . ... ... : ... .. . ... ... : ... .. . ... ... : ... .. . ... ...
ROW ED : ... .. . ... ... ... : ... .. . ... ... ... : ... .. . ... : ... .. . ... : ... .. . ... ... : ... .. . ... ... : ... .. . ... ... : ... .. . ... ...
ROW EE : ... .. . ... ... ... : ... .. . ... ... ... : ... .. . ... : ... .. . ... : ... .. . ... ... : ... .. 3 ... ... : ... .. 3 ... ... : ... .. 7 ... ...
ROW EF : ... .. . ... ... ... : ... .. . ... ... ... : ... .. . ... : ... .. . ... : ... .. . ... ... : ... .. . ... ... : ... .. . ... ... : ... .. 6 ... ...
ROW F0 : ... .. . ... ... ... : ... .. . ... ... ... : ... .. . ... : ... .. . ... : ... .. . ... ... : ... .. . ... ... : ... .. . ... ... : ... .. 5 ... ...
ROW F1 : ... .. . ... ... ... : ... .. . ... ... ... : ... .. . ... : ... .. . ... : ... .. . ... ... : ... .. . ... ... : ... .. . ... ... : ... .. 4 ... ...
ROW F2 : ... .. . ... ... ... : ... .. . ... ... ... : ... .. . ... : ... .. . ... : ... .. . ... ... : ... .. . ... ... : ... .. . ... ... : ... .. 3 ... ...
ROW F3 : ... .. . ... ... ... : ... .. . ... ... ... : ... .. . ... : ... .. . ... : ... .. . ... ... : ... .. 4 ... ... : ... .. 1 ... ... : ... .. 1 ... ...
ROW F4 : ... .. . ... ... ... : ... .. . ... ... ... : ... .. . ... : ... .. . ... : ... .. . ... ... : ... .. . ... ... : ... .. . ... ... : ... .. . ... ...
ROW F5 : ... .. . ... ... ... : ... .. . ... ... ... : ... .. . ... : ... .. . ... : ... .. . ... ... : ... .. . ... ... : ... .. . ... ... : ... .. . ... ...
ROW F6 : ... .. . ... ... ... : ... .. . ... ... ... : ... .. . ... : ... .. . ... : ... .. . ... ... : ... .. . ... ... : ... .. . ... ... : ... .. . ... ...
ROW F7 : ... .. . ... ... ... : ... .. . ... ... ... : ... .. . ... : ... .. . ... : ... .. . ... ... : ... .. . ... ... : ... .. . ... ... : ... .. . ... ...
ROW F8 : ... .. . ... ... ... : ... .. . ... ... ... : F#2 00 . ... : ... .. . ... : ... .. . ... ... : ... .. 5 ... ... : ... .. 2 ... ... : ... .. . ... ...
ROW F9 : ... .. 1 ... ... ... : ... .. 1 ... ... ... : ... .. . ... : ... .. . ... : ... .. . ... ... : ... .. 4 ... ... : ... .. 1 ... ... : ... .. . ... ...
ROW FA : ... .. . ... ... ... : ... .. . ... ... ... : ... .. . ... : ... .. . ... : ... .. . ... ... : ... .. . ... ... : ... .. . ... ... : ... .. . ... ...
ROW FB : ... .. . ... ... ... : ... .. . ... ... ... : ... .. . ... : ... .. . ... : ... .. . ... ... : ... .. . ... ... : ... .. . ... ... : ... .. 0 ... ...
ROW FC : ... .. . ... ... ... : ... .. . ... ... ... : ... .. . ... : ... .. . ... : ... .. . ... ... : ... .. 3 ... ... : ... .. . ... ... : ... .. . ... ...
ROW FD : ... .. . ... ... ... : ... .. . ... ... ... : ... .. . ... : ... .. . ... : ... .. . ... ... : ... .. . ... ... : --- .. . P84 ... : ... .. . ... ...
ROW FE : ... .. . ... ... ... : ... .. . ... ... ... : ... .. . ... : ... .. . ... : ... .. . ... ... : ... .. 2 ... ... : ... .. . ... ... : ... .. . ... ...
ROW FF : ... .. 0 ... V00 ... : ... .. 0 ... V00 ... : ... .. . ... : ... .. . ... : ... .. . ... ... : ... .. . ... ... : ... .. . ... ... : ... .. . ... ...

PATTERN 08
ROW 00 : ... .. . ... ... ... : ... .. . ... ... ... : ... .. . ... : ... .. . ... : ... .. . ... ... : ... .. . ... ... : ... .. . ... ... : ... .. . ... ...
ROW 01 : ... .. . ... ... ... : ... .. . ... ... ... : ... .. . ... : ... .. . ... : ... .. . ... ... : ... .. . ... ... : ... .. . ... ... : ... .. . ... ...
ROW 02 : ... .. . ... ... ... : ... .. . ... ... ... : ... .. . ... : ... .. . ... : ... .. . ... ... : ... .. . ... ... : ... .. . ... ... : ... .. . ... ...
ROW 03 : ... .. . ... ... ... : ... .. . ... ... ... : ... .. . ... : ... .. . ... : ... .. . ... ... : ... .. . ... ... : ... .. . ... ... : ... .. . ... ...
ROW 04 : ... .. . ... ... ... : ... .. . ... ... ... : ... .. . ... : ... .. . ... : ... .. . ... ... : ... .. . ... ... : ... .. . ... ... : ... .. . ... ...
ROW 05 : ... .. . ... ... ... : ... .. . ... ... ... : ... .. . ... : ... .. . ... : ... .. . ... ... : ... .. . ... ... : ... .. . ... ... : ... .. . ... ...
ROW 06 : ... .. . ... ... ... : ... .. . ... ... ... : ... .. . ... : ... .. . ... : ... .. . ... ... : ... .. . ... ... : ... .. . ... ... : ... .. . ... ...
ROW 07 : ... .. . ... ... ... : ... .. . ... ... ... : ... .. . ... : ... .. . ... : ... .. . ... ... : ... .. 1 ... ... : ... .. . ... ... : ... .. . ... ...
ROW 08 : ... .. . ... ... ... : ... .. . ... ... ... : ... .. . ... : ... .. . ... : ... .. . ... ... : ... .. . ... ... : ... .. . ... ... : ... .. . ... ...
ROW 09 : ... .. . ... ... ... : ... .. . ... ... ... : ... .. . ... : ... .. . ... : ... .. . ... ... : ... .. . ... ... : ... .. . ... ... : ... .. . ... ...
ROW 0A : ... .. . ... ... ... : ... .. . ... ... ... : ... .. . ... : ... .. . ... : ... .. . ... ... : ... .. . ... ... : ... .. . ... ... : ... .. . ... ...
ROW 0B : ... .. . ... ... ... : ... .. . ... ... ... : ... .. . ... : ... .. . ... : ... .. . ... ... : ... .. . ... ... : ... .. . ... ... : ... .. . ... ...
ROW 0C : ... .. . ... ... ... : F#2 00 A P80 V02 ... : --- .. . ... : ... .. . ... : ... .. . ... ... : ... .. 2 ... ... : C#3 01 6 P81 ... : ... .. 7 ... ...
ROW 0D : ... .. . ... ... ... : ... .. 9 ... ... ... : ... .. . ... : ... .. . ... : ... .. . ... ... : ... .. 1 ... ... : ... .. 5 ... ... : ... .. 6 ... ...
ROW 0E : ... .. . ... ... ... : ... .. 8 ... ... ... : ... .. . ... : ... .. . ... : ... .. . ... ... : ... .. . ... ... : ... .. . ... ... : ... .. 5 ... ...
ROW 0F : ... .. . ... ... ... : ... .. 6 ... ... ... : ... .. . ... : ... .. . ... : ... .. . ... ... : ... .. . ... ... : ... .. 4 ... ... : ... .. 4 ... ...
ROW 10 : ... .. . ... ... ... : ... .. . ... ... ... : ... .. . ... : ... .. . ... : ... .. . ... ... : ... .. . ... ... : ... .. . ... ... : ... .. 3 ... ...
ROW 11 : ... .. . ... ... ... : ... .. . ... ... ... : ... .. . ... : ... .. . ... : ... .. . ... ... : ... .. . ... ... : ... .. 1 ... ... : ... .. 1 ... ...
ROW 12 : ... .. . ... ... ... : ... .. . ... ... ... : ... .. . ... : ... .. . ... : ... .. . ... ... : ... .. . ... ... : ... .. . ... ... : ... .. . ... ...
ROW 13 : ... .. . ... ... ... : ... .. . ... ... ... : ... .. . ... : ... .. . ... : ... .. . ... ... : ... .. . ... ... : ... .. . ... ... : ... .. . ... ...
ROW 14 : ... .. . ... ... ... : ... .. . ... ... ... : ... .. . ... : ... .. . ... : ... .. . ... ... : ... .. . ... ... : ... .. . ... ... : ... .. . ... ...
ROW 15 : ... .. . ... ... ... : ... .. . ... ... ... : ... .. . ... : ... .. . ... : ... .. . ... ... : ... .. . ... ... : ... .. . ... ... : ... .. . ... ...
ROW 16 : ... .. . ... ... ... : ... .. . ... ... ... : ... .. . ... : ... .. . ... : ... .. . ... ... : --- .. . P82 ... : ... .. 3 ... ... : ... .. 7 ... ...
ROW 17 : ... .. . ... ... ... : ... .. 1 ... ... ... : ... .. . ... : ... .. . ... : ... .. . ... ... : ... .. . ... ... : ... .. . ... ... : ... .. 6 ... ...
ROW 18 : ... .. . ... ... ... : ... .. . ... ... ... : ... .. . ... : ... .. . ... : ... .. . ... ... : ... .. . ... ... : ... .. . ... ... : ... .. 5 ... ...
ROW 19 : ... .. . ... ... ... : ... .. . ... ... ... : ... .. . ... : ... .. . ... : ... .. . ... ... : ... .. . ... ... : ... .. . ... ... : ... .. 4 ... ...
ROW 1A : ... .. . ... ... ... : ... .. . ... ... ... : ... .. . ... : ... .. . ... : ... .. . ... ... : ... .. . ... ... : ... .. . ... ... : ... .. 3 ... ...
ROW 1B : ... .. . ... ... ... : ... .. . ... ... ... : ... .. . ... : ... .. . ... : ... .. . ... ... : ... .. . ... ... : ... .. 1 ... ... : ... .. 1 ... ...
ROW 1C : ... .. . ... ... ... : ... .. . ... ... ... : ... .. . ... : ... .. . ... : ... .. . ... ... : ... .. . ... ... : ... .. . ... ... : ... .. . ... ...
ROW 1D : ... .. . ... ... ... : ... .. 0 ... V00 ... : ... .. . ... : ... .. . ... : ... .. . ... ... : ... .. . ... ... : ... .. . ... ... : ... .. . ... ...
ROW 1E : ... .. . ... ... ... : ... .. . ... ... ... : ... .. . ... : ... .. . ... : ... .. . ... ... : ... .. . ... ... : ... .. . ... ... : ... .. . ... ...
ROW 1F : ... .. . ... ... ... : ... .. . ... ... ... : ... .. . ... : ... .. . ... : ... .. . ... ... : ... .. . ... ... : ... .. . ... ... : ... .. . ... ...
ROW 20 : ... .. . ... ... ... : C#3 00 A P80 V02 ... : F#1 00 . ... : ... .. . ... : ... .. . ... ... : B-2 01 6 P80 ... : --- .. . P84 ... : ... .. 0 ... ...
ROW 21 : ... .. . ... ... ... : ... .. 9 ... ... ... : ... .. . ... : ... .. . ... : ... .. . ... ... : ... .. 5 ... ... : ... .. . ... ... : ... .. . ... ...
ROW 22 : ... .. . ... ... ... : ... .. 8 ... ... ... : ... .. . ... : ... .. . ... : ... .. . ... ... : ... .. . ... ... : ... .. . ... ... : ... .. . ... ...
ROW 23 : ... .. . ... ... ... : ... .. 6 ... ... ... : ... .. . ... : ... .. . ... : ... .. . ... ... : ... .. 4 ... ... : ... .. . ... ... : ... .. . ... ...
ROW 24 : ... .. . ... ... ... : ... .. . ... ... ... : ... .. . ... : ... .. . ... : ... .. . ... ... : ... .. . ... ... : ... .. . ... ... : ... .. . ... ...
ROW 25 : ... .. . ... ... ... : ... .. . ... ... ... : ... .. . ... : ... .. . ... : ... .. . ... ... : ... .. . ... ... : ... .. . ... ... : ... .. . ... ...
ROW 26 : ... .. . ... ... ... : ... .. 1 ... ... ... : ... .. . ... : ... .. . ... : ... .. . ... ... : ... .. 3 ... ... : ... .. . ... ... : ... .. . ... ...
ROW 27 : ... .. . ... ... ... : ... .. . ... ... ... : ... .. . ... : ... .. . ... : ... .. . ... ... : ... .. . ... ... : ... .. . ... ... : ... .. . ... ...
ROW 28 : ... .. . ... ... ... : ... .. . ... ... ... : ... .. . ... : ... .. . ... : ... .. . ... ... : ... .. . ... ... : ... .. . ... ... : ... .. . ... ...
ROW 29 : ... .. . ... ... ... : ... .. . ... ... ... : ... .. . ... : ... .. . ... : ... .. . ... ... : ... .. . ... ... : ... .. . ... ... : ... .. . ... ...
ROW 2A : ... .. . ... ... ... : B-2 00 A ... ... ... : ... .. . ... : ... .. . ... : ... .. . ... ... : ... .. 2 ... ... : ... .. . ... ... : ... .. . ... ...
ROW 2B : ... .. . ... ... ... : ... .. 9 ... ... ... : ... .. . ... : ... .. . ... : ... .. . ... ... : ... .. . ... ... : ... .. . ... ... : ... .. . ... ...
ROW 2C : ... .. . ... ... ... : ... .. 8 ... ... ... : ... .. . ... : ... .. . ... : ... .. . ... ... : ... .. . ... ... : ... .. . ... ... : ... .. . ... ...
ROW 2D : ... .. . ... ... ... : ... .. 6 ... ... ... : ... .. . ... : ... .. . ... : ... .. . ... ... : ... .. . ... ... : ... .. . ... ... : ... .. . ... ...
ROW 2E : ... .. . ... ... ... : ... .. . ... ... ... : ... .. . ... : ... .. . ... : ... .. . ... ... : ... .. . ... ... : ... .. . ... ... : ... .. . ... ...
ROW 2F : ... .. . ... ... ... : ... .. . ... ... ... : ... .. . ... : ... .. . ... : ... .. . ... ... : ... .. . ... ... : ... .. . ... ... : ... .. . ... ...
ROW 30 : ... .. . ... ... ... : ... .. 1 ... ... ... : ... .. . ... : ... .. . ... : ... .. . ... ... : ... .. . ... ... : ... .. . ... ... : ... .. . ... ...
ROW 31 : ... .. . ... ... ... : ... .. . ... ... ... : ... .. . ... : ... .. . ... : ... .. . ... ... : ... .. . ... ... : ... .. . ... ... : ... .. . ... ...
ROW 32 : ... .. . ... ... ... : ... .. . ... ... ... : ... .. . ... : ... .. . ... : ... .. . ... ... : ... .. . ... ... : ... .. . ... ... : ... .. . ... ...
ROW 33 : ... .. . ... ... ... : ... .. . ... ... ... : ... .. . ... : ... .. . ... : ... .. . ... ... : ... .. . ... ... : ... .. . ... ... : ... .. . ... ...
ROW 34 : ... .. . ... ... ... : C#3 00 8 ... ... ... : --- .. . ... : ... .. . ... : ... .. . ... ... : ... .. 4 ... ... : C#3 01 6 P81 ... : ... .. 7 ... ...
ROW 35 : ... .. . ... ... ... : ... .. 7 ... ... ... : ... .. . ... : ... .. . ... : ... .. . ... ... : ... .. 3 ... ... : ... .. 5 ... ... : ... .. 6 ... ...
ROW 36 : ... .. . ... ... ... : ... .. 6 ... ... ... : ... .. . ... : ... .. . ... : ... .. . ... ... : ... .. . ... ... : ... .. . ... ... : ... .. 5 ... ...
ROW 37 : ... .. . ... ... ... : ... .. 5 ... ... ... : ... .. . ... : ... .. . ... : ... .. . ... ... : ... .. . ... ... : ... .. 4 ... ... : ... .. 4 ... ...
ROW 38 : ... .. . ... ... ... : ... .. . ... ... ... : ... .. . ... : ... .. . ... : ... .. . ... ... : ... .. 2 ... ... : ... .. . ... ... : ... .. 3 ... ...
ROW 39 : ... .. . ... ... ... : ... .. 6 ... ... ... : ... .. . ... : ... .. . ... : ... .. . ... ... : ... .. 3 ... ... : ... .. 1 ... ... : ... .. 1 ... ...
ROW 3A : ... .. . ... ... ... : ... .. . ... ... ... : ... .. . ... : ... .. . ... : ... .. . ... ... : ... .. 2 ... ... : ... .. . ... ... : ... .. . ... ...
ROW 3B : ... .. . ... ... ... : ... .. . ... ... ... : ... .. . ... : ... .. . ... : ... .. . ... ... : ... .. . ... ... : ... .. . ... ... : ... .. . ... ...
ROW 3C : ... .. . ... ... ... : ... .. . ... ... ... : ... .. . ... : ... .. . ... : ... .. . ... ... : ... .. . ... ... : ... .. . ... ... : ... .. . ... ...
ROW 3D : ... .. . ... ... ... : ... .. . ... ... ... : ... .. . ... : ... .. . ... : ... .. . ... ... : ... .. . ... ... : ... .. . ... ... : ... .. . ... ...
ROW 3E : ... .. . ... ... ... : ... .. . ... ... ... : ... .. . ... : ... .. . ... : ... .. . ... ... : ... .. 3 ... ... : ... .. 3 ... ... : ... .. 7 ... ...
ROW 3F : ... .. . ... ... ... : ... .. . ... ... ... : ... .. . ... : ... .. . ... : ... .. . ... ... : ... .. . ... ... : ... .. . ... ... : ... .. 6 ... ...
ROW 40 : ... .. . ... ... ... : ... .. . ... ... ... : ... .. . ... : ... .. . ... : ... .. . ... ... : ... .. . ... ... : ... .. . ... ... : ... .. 5 ... ...
ROW 41 : ... .. . ... ... ... : ... .. . ... ... ... : ... .. . ... : ... .. . ... : ... .. . ... ... : ... .. . ... ... : ... .. . ... ... : ... .. 4 ... ...
ROW 42 : ... .. . ... ... ... : ... .. . ... ... ... : ... .. . ... : ... .. . ... : ... .. . ... ... : ... .. . ... ... : ... .. . ... ... : ... .. 3 ... ...
ROW 43 : ... .. . ... ... ... : ... .. 8 ... ... ... : ... .. . ... : ... .. . ... : ... .. . ... ... : ... .. 4 ... ... : ... .. 1 ... ... : ... .. 1 ... ...
ROW 44 : ... .. . ... ... ... : ... .. . ... ... ... : ... .. . ... : ... .. . ... : ... .. . ... ... : ... .. . ... ... : ... .. . ... ... : ... .. . ... ...
ROW 45 : ... .. . ... ... ... : ... .. . ... ... ... : ... .. . ... : ... .. . ... : ... .. . ... ... : ... .. . ... ... : ... .. . ... ... : ... .. . ... ...
ROW 46 : ... .. . ... ... ... : ... .. . ... ... ... : ... .. . ... : ... .. . ... : ... .. . ... ... : ... .. . ... ... : ... .. . ... ... : ... .. . ... ...
ROW 47 : ... .. . ... ... ... : ... .. . ... ... ... : ... .. . ... : ... .. . ... : ... .. . ... ... : ... .. . ... ... : ... .. . ... ... : ... .. . ... ...
ROW 48 : E-3 00 8 P80 V01 ... : ... .. . P84 ... ... : F#1 00 . ... : ... .. . ... : ... .. . ... ... : ... .. 5 ... ... : ... .. 2 ... ... : ... .. . ... ...
ROW 49 : ... .. 7 ... ... ... : ... .. . P86 ... ... : ... .. . ... : ... .. . ... : ... .. . ... ... : ... .. 4 ... ... : ... .. 1 ... ... : ... .. . ... ...
ROW 4A : ... .. 6 ... ... ... : ... .. . P85 ... ... : ... .. . ... : ... .. . ... : ... .. . ... ... : ... .. . ... ... : ... .. . ... ... : ... .. . ... ...
ROW 4B : ... .. 5 ... ... ... : ... .. . P82 ... ... : ... .. . ... : ... .. . ... : ... .. . ... ... : ... .. . ... ... : ... .. . ... ... : ... .. 0 ... ...
ROW 4C : ... .. . ... ... ... : ... .. . P7E ... ... : ... .. . ... : ... .. . ... : ... .. . ... ... : ... .. 3 ... ... : ... .. . ... ... : ... .. . ... ...
ROW 4D : ... .. . ... ... ... : ... .. A P7B ... ... : ... .. . ... : ... .. . ... : ... .. . ... ... : ... .. . ... ... : --- .. . P84 ... : ... .. . ... ...
ROW 4E : ... .. . ... ... ... : ... .. . P7A ... ... : ... .. . ... : ... .. . ... : ... .. . ... ... : ... .. 2 ... ... : ... .. . ... ... : ... .. . ... ...
ROW 4F : ... .. . ... ... ... : ... .. . P7C ... ... : ... .. . ... : ... .. . ... : ... .. . ... ... : ... .. . ... ... : ... .. . ... ... : ... .. . ... ...
ROW 50 : ... .. . ... ... ... : ... .. . P80 ... ... : ... .. . ... : ... .. . ... : ... .. . ... ... : ... .. . ... ... : ... .. . ... ... : ... .. . ... ...
ROW 51 : ... .. . ... ... ... : ... .. . P83 ... ... : ... .. . ... : ... .. . ... : ... .. . ... ... : ... .. . ... ... : ... .. . ... ... : ... .. . ... ...
ROW 52 : ... .. . ... ... ... : ... .. . P86 ... ... : ... .. . ... : ... .. . ... : ... .. . ... ... : ... .. . ... ... : ... .. . ... ... : ... .. . ... ...
ROW 53 : ... .. . ... ... ... : ... .. . ... ... ... : ... .. . ... : ... .. . ... : ... .. . ... ... : ... .. . ... ... : ... .. . ... ... : ... .. . ... ...
ROW 54 : ... .. . ... ... ... : ... .. . P82 ... ... : ... .. . ... : ... .. . ... : ... .. . ... ... : ... .. . ... ... : ... .. . ... ... : ... .. . ... ...
ROW 55 : ... .. . ... ... ... : ... .. . P7F ... ... : ... .. . ... : ... .. . ... : ... .. . ... ... : ... .. . ... ... : ... .. . ... ... : ... .. . ... ...
ROW 56 : ... .. . ... ... ... : ... .. . P7B ... ... : ... .. . ... : ... .. . ... : ... .. . ... ... : ... .. . ... ... : ... .. . ... ... : ... .. . ... ...
ROW 57 : ... .. . ... ... ... : ... .. . P7A ... ... : ... .. . ... : ... .. . ... : ... .. . ... ... : ... .. 1 ... ... : ... .. . ... ... : ... .. . ... ...
ROW 58 : ... .. . ... ... ... : ... .. . P7C ... ... : ... .. . ... : ... .. . ... : ... .. . ... ... : ... .. . ... ... : ... .. . ... ... : ... .. . ... ...
ROW 59 : ... .. . ... ... ... : ... .. . P80 ... ... : ... .. . ... : ... .. . ... : ... .. . ... ... : ... .. . ... ... : ... .. . ... ... : ... .. . ... ...
ROW 5A : ... .. . ... ... ... : ... .. . P83 ... ... : ... .. . ... : ... .. . ... : ... .. . ... ... : ... .. . ... ... : ... .. . ... ... : ... .. . ... ...
ROW 5B : ... .. . ... ... ... : ... .. . P86 ... ... : ... .. . ... : ... .. . ... : ... .. . ... ... : ... .. . ... ... : ... .. . ... ... : ... .. . ... ...
ROW 5C : D#3 00 8 ... ... ... : A-2 00 A P80 ... ... : --- .. . ... : ... .. . ... : ... .. . ... ... : ... .. 2 ... ... : C#3 01 6 P81 ... : ... .. 7 ... ...
ROW 5D : ... .. 7 ... ... ... : ... .. 9 ... ... ... : ... .. . ... : ... .. . ... : ... .. . ... ... : ... .. 1 ... ... : ... .. 5 ... ... : ... .. 6 ... ...
ROW 5E : ... .. 6 ... ... ... : ... .. 8 ... ... ... : ... .. . ... : ... .. . ... : ... .. . ... ... : ... .. . ... ... : ... .. . ... ... : ... .. 5 ... ...
ROW 5F : ... .. 5 ... ... ... : ... .. 6 ... ... ... : ... .. . ... : ... .. . ... : ... .. . ... ... : ... .. . ... ... : ... .. 4 ... ... : ... .. 4 ... ...
ROW 60 : ... .. . ... ... ... : ... .. . ... ... ... : ... .. . ... : ... .. . ... : ... .. . ... ... : ... .. . ... ... : ... .. . ... ... : ... .. 3 ... ...
ROW 61 : ... .. . ... ... ... : ... .. . ... ... ... : ... .. . ... : ... .. . ... : ... .. . ... ... : ... .. . ... ... : ... .. 1 ... ... : ... .. 1 ... ...
ROW 62 : ... .. 1 ... ... ... : ... .. . ... ... ... : ... .. . ... : ... .. . ... : ... .. . ... ... : ... .. . ... ... : ... .. . ... ... : ... .. . ... ...
ROW 63 : ... .. . ... ... ... : ... .. . ... ... ... : ... .. . ... : ... .. . ... : ... .. . ... ... : ... .. . ... ... : ... .. . ... ... : ... .. . ... ...
ROW 64 : ... .. . ... ... ... : ... .. . ... ... ... : ... .. . ... : ... .. . ... : ... .. . ... ... : ... .. . ... ... : ... .. . ... ... : ... .. . ... ...
ROW 65 : ... .. . ... ... ... : ... .. . ... ... ... : ... .. . ... : ... .. . ... : ... .. . ... ... : ... .. . ... ... : ... .. . ... ... : ... .. . ... ...
ROW 66 : C#3 00 8 ... ... ... : E-3 00 A ... ... ... : ... .. . ... : ... .. . ... : ... .. . ... ... : --- .. . P85 ... : ... .. 3 ... ... : ... .. 7 ... ...
ROW 67 : ... .. 7 ... ... ... : ... .. 9 ... ... ... : ... .. . ... : ... .. . ... : ... .. . ... ... : ... .. . ... ... : ... .. . ... ... : ... .. 6 ... ...
ROW 68 : ... .. 6 ... ... ... : ... .. 8 ... ... ... : ... .. . ... : ... .. . ... : ... .. . ... ... : ... .. . ... ... : ... .. . ... ... : ... .. 5 ... ...
ROW 69 : ... .. 5 ... ... ... : ... .. 6 ... ... ... : ... .. . ... : ... .. . ... : ... .. . ... ... : ... .. . ... ... : ... .. . ... ... : ... .. 4 ... ...
ROW 6A : ... .. . ... ... ... : ... .. . ... ... ... : ... .. . ... : ... .. . ... : ... .. . ... ... : ... .. . ... ... : ... .. . ... ... : ... .. 3 ... ...
ROW 6B : ... .. . ... ... ... : ... .. . ... ... ... : ... .. . ... : ... .. . ... : ... .. . ... ... : ... .. . ... ... : ... .. 1 ... ... : ... .. 1 ... ...
ROW 6C : ... .. 1 ... ... ... : ... .. 1 ... ... ... : ... .. . ... : ... .. . ... : ... .. . ... ... : ... .. . ... ... : ... .. . ... ... : ... .. . ... ...
ROW 6D : ... .. . ... ... ... : ... .. . ... ... ... : ... .. . ... : ... .. . ... : ... .. . ... ... : ... .. . ... ... : ... .. . ... ... : ... .. . ... ...
ROW 6E : ... .. . ... ... ... : ... .. . ... ... ... : ... .. . ... : ... .. . ... : ... .. . ... ... : ... .. . ... ... : ... .. . ... ... : ... .. . ... ...
ROW 6F : ... .. . ... ... ... : ... .. . ... ... ... : ... .. . ... : ... .. . ... : ... .. . ... ... : ... .. . ... ... : ... .. . ... ... : ... .. . ... ...
ROW 70 : B-2 00 8 ... ... ... : ... .. A ... ... ... : E-1 00 . ... : ... .. . ... : ... .. . ... ... : F#2 01 6 P80 ... : --- .. . P84 ... : ... .. 0 ... ...
ROW 71 : ... .. 7 ... ... ... : ... .. 9 ... ... ... : ... .. . ... : ... .. . ... : ... .. . ... ... : ... .. 5 ... ... : ... .. . ... ... : ... .. . ... ...
ROW 72 : ... .. 6 ... ... ... : ... .. 8 ... ... ... : ... .. . ... : ... .. . ... : ... .. . ... ... : ... .. . ... ... : ... .. . ... ... : ... .. . ... ...
ROW 73 : ... .. 5 ... ... ... : ... .. 6 ... ... ... : ... .. . ... : ... .. . ... : ... .. . ... ... : ... .. 4 ... ... : ... .. . ... ... : ... .. . ... ...
ROW 74 : ... .. . ... ... ... : ... .. . ... ... ... : ... .. . ... : ... .. . ... : ... .. . ... ... : ... .. . ... ... : ... .. . ... ... : ... .. . ... ...
ROW 75 : ... .. . ... ... ... : ... .. . ... ... ... : ... .. . ... : ... .. . ... : ... .. . ... ... : ... .. . ... ... : ... .. . ... ... : ... .. . ... ...
ROW 76 : ... .. . ... ... ... : ... .. . ... ... ... : ... .. . ... : ... .. . ... : ... .. . ... ... : ... .. 3 ... ... : ... .. . ... ... : ... .. . ... ...
ROW 77 : ... .. . ... ... ... : ... .. . ... ... ... : ... .. . ... : ... .. . ... : ... .. . ... ... : ... .. . ... ... : ... .. . ... ... : ... .. . ... ...
ROW 78 : ... .. . ... ... ... : ... .. . ... ... ... : ... .. . ... : ... .. . ... : ... .. . ... ... : ... .. . ... ... : ... .. . ... ... : ... .. . ... ...
ROW 79 : ... .. . ... ... ... : ... .. . ... ... ... : ... .. . ... : ... .. . ... : ... .. . ... ... : ... .. . ... ... : ... .. . ... ... : ... .. . ... ...
ROW 7A : ... .. . ... ... ... : ... .. . ... ... ... : ... .. . ... : ... .. . ... : ... .. . ... ... : ... .. 2 ... ... : ... .. . ... ... : ... .. . ... ...
ROW 7B : ... .. . ... ... ... : ... .. . ... ... ... : ... .. . ... : ... .. . ... : ... .. . ... ... : ... .. . ... ... : ... .. . ... ... : ... .. . ... ...
ROW 7C : ... .. . ... ... ... : ... .. . ... ... ... : ... .. . ... : ... .. . ... : ... .. . ... ... : ... .. . ... ... : ... .. . ... ... : ... .. . ... ...
ROW 7D : ... .. . ... ... ... : ... .. . ... ... ... : ... .. . ... : ... .. . ... : ... .. . ... ... : ... .. . ... ... : ... .. . ... ... : ... .. . ... ...
ROW 7E : ... .. . ... ... ... : ... .. . ... ... ... : ... .. . ... : ... .. . ... : ... .. . ... ... : ... .. . ... ... : ... .. . ... ... : ... .. . ... ...
ROW 7F : ... .. . ... ... ... : ... .. . ... ... ... : ... .. . ... : ... .. . ... : ... .. . ... ... : ... .. . ... ... : ... .. . ... ... : ... .. . ... ...
ROW 80 : ... .. . ... ... ... : ... .. . ... ... ... : ... .. . ... : ... .. . ... : ... .. . ... ... : ... .. . ... ... : ... .. . ... ... : ... .. . ... ...
ROW 81 : ... .. . ... ... ... : ... .. . ... ... ... : ... .. . ... : ... .. . ... : ... .. . ... ... : ... .. . ... ... : ... .. . ... ... : ... .. . ... ...
ROW 82 : ... .. . ... ... ... : ... .. . ... ... ... : ... .. . ... : ... .. . ... : ... .. . ... ... : ... .. . ... ... : ... .. . ... ... : ... .. . ... ...
ROW 83 : ... .. . ... ... ... : ... .. . ... ... ... : ... .. . ... : ... .. . ... : ... .. . ... ... : ... .. . ... ... : ... .. . ... ... : ... .. . ... ...
ROW 84 : ... .. . ... ... ... : ... .. . ... ... ... : --- .. . ... : ... .. . ... : ... .. . ... ... : ... .. 4 ... ... : B-2 01 6 P81 ... : B-1 01 7 ... ...
ROW 85 : ... .. 1 ... ... ... : ... .. . ... ... ... : ... .. . ... : ... .. . ... : ... .. . ... ... : ... .. 3 ... ... : ... .. 5 ... ... : ... .. 6 ... ...
ROW 86 : ... .. . ... ... ... : ... .. . ... ... ... : ... .. . ... : ... .. . ... : ... .. . ... ... : ... .. . ... ... : ... .. . ... ... : ... .. 5 ... ...
ROW 87 : ... .. . ... ... ... : ... .. . ... ... ... : ... .. . ... : ... .. . ... : ... .. . ... ... : ... .. . ... ... : ... .. 4 ... ... : ... .. 4 ... ...
ROW 88 : ... .. . ... ... ... : ... .. . ... ... ... : ... .. . ... : ... .. . ... : ... .. . ... ... : ... .. 2 ... ... : ... .. . ... ... : ... .. 3 ... ...
ROW 89 : ... .. . ... ... ... : ... .. . ... ... ... : ... .. . ... : ... .. . ... : ... .. . ... ... : ... .. 3 ... ... : ... .. 1 ... ... : ... .. 1 ... ...
ROW 8A : ... .. . ... ... ... : ... .. 1 ... ... ... : ... .. . ... : ... .. . ... : ... .. . ... ... : ... .. 2 ... ... : ... .. . ... ... : ... .. . ... ...
ROW 8B : ... .. 0 ... V00 ... : ... .. . ... ... ... : ... .. . ... : ... .. . ... : ... .. . ... ... : ... .. . ... ... : ... .. . ... ... : ... .. . ... ...
ROW 8C : ... .. . ... ... ... : ... .. . ... ... ... : ... .. . ... : ... .. . ... : ... .. . ... ... : ... .. . ... ... : ... .. . ... ... : ... .. . ... ...
ROW 8D : ... .. . ... ... ... : ... .. . ... ... ... : ... .. . ... : ... .. . ... : ... .. . ... ... : ... .. . ... ... : ... .. . ... ... : ... .. . ... ...
ROW 8E : ... .. . ... ... ... : B-2 00 A ... ... ... : ... .. . ... : ... .. . ... : ... .. . ... ... : ... .. 3 ... ... : ... .. 3 ... ... : ... .. 7 ... ...
ROW 8F : ... .. . ... ... ... : ... .. 9 ... ... ... : ... .. . ... : ... .. . ... : ... .. . ... ... : ... .. . ... ... : ... .. . ... ... : ... .. 6 ... ...
ROW 90 : ... .. . ... ... ... : ... .. 8 ... ... ... : ... .. . ... : ... .. . ... : ... .. . ... ... : ... .. . ... ... : ... .. . ... ... : ... .. 5 ... ...
ROW 91 : ... .. . ... ... ... : ... .. 6 ... ... ... : ... .. . ... : ... .. . ... : ... .. . ... ... : ... .. . ... ... : ... .. . ... ... : ... .. 4 ... ...
ROW 92 : ... .. . ... ... ... : ... .. . ... ... ... : ... .. . ... : ... .. . ... : ... .. . ... ... : ... .. . ... ... : ... .. . ... ... : ... .. 3 ... ...
ROW 93 : ... .. . ... ... ... : ... .. . ... ... ... : ... .. . ... : ... .. . ... : ... .. . ... ... : ... .. 4 ... ... : ... .. 1 ... ... : ... .. 1 ... ...
ROW 94 : ... .. . ... ... ... : ... .. 1 ... ... ... : ... .. . ... : ... .. . ... : ... .. . ... ... : ... .. . ... ... : ... .. . ... ... : ... .. . ... ...
ROW 95 : ... .. . ... ... ... : ... .. . ... ... ... : ... .. . ... : ... .. . ... : ... .. . ... ... : ... .. . ... ... : ... .. . ... ... : ... .. . ... ...
ROW 96 : ... .. . ... ... ... : ... .. . ... ... ... : ... .. . ... : ... .. . ... : ... .. . ... ... : ... .. . ... ... : ... .. . ... ... : ... .. . ... ...
ROW 97 : ... .. . ... ... ... : ... .. . ... ... ... : ... .. . ... : ... .. . ... : ... .. . ... ... : ... .. . ... ... : ... .. . ... ... : ... .. . ... ...
ROW 98 : ... .. . ... ... ... : ... .. A ... ... ... : E-2 00 . ... : ... .. . ... : ... .. . ... ... : ... .. 5 ... ... : ... .. 2 ... ... : ... .. . ... ...
ROW 99 : ... .. . ... ... ... : ... .. 9 ... ... ... : ... .. . ... : ... .. . ... : ... .. . ... ... : ... .. 4 ... ... : ... .. 1 ... ... : ... .. . ... ...
ROW 9A : ... .. . ... ... ... : ... .. 8 ... ... ... : ... .. . ... : ... .. . ... : ... .. . ... ... : ... .. . ... ... : ... .. . ... ... : ... .. . ... ...
ROW 9B : ... .. . ... ... ... : ... .. 6 ... ... ... : ... .. . ... : ... .. . ... : ... .. . ... ... : ... .. . ... ... : ... .. . ... ... : ... .. 0 ... ...
ROW 9C : ... .. . ... ... ... : ... .. . ... ... ... : ... .. . ... : ... .. . ... : ... .. . ... ... : ... .. 3 ... ... : ... .. . ... ... : ... .. . ... ...
ROW 9D : ... .. . ... ... ... : ... .. . ... ... ... : ... .. . ... : ... .. . ... : ... .. . ... ... : ... .. . ... ... : --- .. . P86 ... : ... .. . ... ...
ROW 9E : ... .. . ... ... ... : ... .. . ... ... ... : ... .. . ... : ... .. . ... : ... .. . ... ... : ... .. 2 ... ... : ... .. . ... ... : ... .. . ... ...
ROW 9F : ... .. . ... ... ... : ... .. . ... ... ... : ... .. . ... : ... .. . ... : ... .. . ... ... : ... .. . ... ... : ... .. . ... ... : ... .. . ... ...
ROW A0 : ... .. . ... ... ... : ... .. . ... ... ... : ... .. . ... : ... .. . ... : ... .. . ... ... : ... .. . ... ... : ... .. . ... ... : ... .. . ... ...
ROW A1 : ... .. . ... ... ... : ... .. . ... ... ... : ... .. . ... : ... .. . ... : ... .. . ... ... : ... .. . ... ... : ... .. . ... ... : ... .. . ... ...
ROW A2 : ... .. . ... ... ... : ... .. . ... ... ... : ... .. . ... : ... .. . ... : ... .. . ... ... : ... .. . ... ... : ... .. . ... ... : ... .. . ... ...
ROW A3 : ... .. . ... ... ... : ... .. . ... ... ... : ... .. . ... : ... .. . ... : ... .. . ... ... : ... .. . ... ... : ... .. . ... ... : ... .. . ... ...
ROW A4 : ... .. . ... ... ... : ... .. . ... ... ... : ... .. . ... : ... .. . ... : ... .. . ... ... : ... .. . ... ... : ... .. . ... ... : ... .. . ... ...
ROW A5 : ... .. . ... ... ... : ... .. . ... ... ... : ... .. . ... : ... .. . ... : ... .. . ... ... : ... .. . ... ... : ... .. . ... ... : ... .. . ... ...
ROW A6 : ... .. . ... ... ... : ... .. . ... ... ... : ... .. . ... : ... .. . ... : ... .. . ... ... : ... .. . ... ... : ... .. . ... ... : ... .. . ... ...
ROW A7 : ... .. . ... ... ... : ... .. . ... ... ... : ... .. . ... : ... .. . ... : ... .. . ... ... : ... .. 1 ... ... : ... .. . ... ... : ... .. . ... ...
ROW A8 : ... .. . ... ... ... : ... .. . ... ... ... : ... .. . ... : ... .. . ... : ... .. . ... ... : ... .. . ... ... : ... .. . ... ... : ... .. . ... ...
ROW A9 : ... .. . ... ... ... : ... .. . ... ... ... : ... .. . ... : ... .. . ... : ... .. . ... ... : ... .. . ... ... : ... .. . ... ... : ... .. . ... ...
ROW AA : ... .. . ... ... ... : ... .. . ... ... ... : ... .. . ... : ... .. . ... : ... .. . ... ... : ... .. . ... ... : ... .. . ... ... : ... .. . ... ...
ROW AB : ... .. . ... ... ... : ... .. . ... ... ... : ... .. . ... : ... .. . ... : ... .. . ... ... : ... .. . ... ... : ... .. . ... ... : ... .. . ... ...
ROW AC : B-2 00 8 P80 V01 ... : ... .. . ... ... ... : --- .. . ... : ... .. . ... : ... .. . ... ... : ... .. 2 ... ... : B-2 01 6 P81 ... : ... .. 7 ... ...
ROW AD : ... .. 7 ... ... ... : ... .. . ... ... ... : ... .. . ... : ... .. . ... : ... .. . ... ... : ... .. 1 ... ... : ... .. 5 ... ... : ... .. 6 ... ...
ROW AE : ... .. 6 ... ... ... : ... .. . ... ... ... : ... .. . ... : ... .. . ... : ... .. . ... ... : ... .. . ... ... : ... .. . ... ... : ... .. 5 ... ...
ROW AF : ... .. 5 ... ... ... : ... .. . ... ... ... : ... .. . ... : ... .. . ... : ... .. . ... ... : ... .. . ... ... : ... .. 4 ... ... : ... .. 4 ... ...
ROW B0 : ... .. . ... ... ... : ... .. . ... ... ... : ... .. . ... : ... .. . ... : ... .. . ... ... : ... .. . ... ... : ... .. . ... ... : ... .. 3 ... ...
ROW B1 : ... .. . ... ... ... : ... .. . ... ... ... : ... .. . ... : ... .. . ... : ... .. . ... ... : ... .. . ... ... : ... .. 1 ... ... : ... .. 1 ... ...
ROW B2 : ... .. 1 ... ... ... : ... .. . ... ... ... : ... .. . ... : ... .. . ... : ... .. . ... ... : ... .. . ... ... : ... .. . ... ... : ... .. . ... ...
ROW B3 : ... .. . ... ... ... : ... .. . ... ... ... : ... .. . ... : ... .. . ... : ... .. . ... ... : ... .. . ... ... : ... .. . ... ... : ... .. . ... ...
ROW B4 : ... .. . ... ... ... : ... .. . ... ... ... : ... .. . ... : ... .. . ... : ... .. . ... ... : ... .. . ... ... : ... .. . ... ... : ... .. . ... ...
ROW B5 : ... .. . ... ... ... : ... .. . ... ... ... : ... .. . ... : ... .. . ... : ... .. . ... ... : ... .. . ... ... : ... .. . ... ... : ... .. . ... ...
ROW B6 : C#3 00 8 ... ... ... : ... .. . ... ... ... : ... .. . ... : ... .. . ... : ... .. . ... ... : --- .. . P82 ... : ... .. 3 ... ... : C#2 01 7 ... ...
ROW B7 : ... .. 7 ... ... ... : ... .. 1 ... ... ... : ... .. . ... : ... .. . ... : ... .. . ... ... : ... .. . ... ... : ... .. . ... ... : ... .. 6 ... ...
ROW B8 : ... .. 6 ... ... ... : ... .. . ... ... ... : ... .. . ... : ... .. . ... : ... .. . ... ... : ... .. . ... ... : ... .. . ... ... : ... .. 5 ... ...
ROW B9 : ... .. 5 ... ... ... : ... .. . ... ... ... : ... .. . ... : ... .. . ... : ... .. . ... ... : ... .. . ... ... : ... .. . ... ... : ... .. 4 ... ...
ROW BA : ... .. . ... ... ... : ... .. . ... ... ... : ... .. . ... : ... .. . ... : ... .. . ... ... : ... .. . ... ... : ... .. . ... ... : ... .. 3 ... ...
ROW BB : ... .. . ... ... ... : ... .. . ... ... ... : ... .. . ... : ... .. . ... : ... .. . ... ... : ... .. . ... ... : ... .. 1 ... ... : ... .. 1 ... ...
ROW BC : ... .. 1 ... ... ... : ... .. . ... ... ... : ... .. . ... : ... .. . ... : ... .. . ... ... : ... .. . ... ... : ... .. . ... ... : ... .. . ... ...
ROW BD : ... .. . ... ... ... : ... .. 0 ... V00 ... : ... .. . ... : ... .. . ... : ... .. . ... ... : ... .. . ... ... : ... .. . ... ... : ... .. . ... ...
ROW BE : ... .. . ... ... ... : ... .. . ... ... ... : ... .. . ... : ... .. . ... : ... .. . ... ... : ... .. . ... ... : ... .. . ... ... : ... .. . ... ...
ROW BF : ... .. . ... ... ... : ... .. . ... ... ... : ... .. . ... : ... .. . ... : ... .. . ... ... : ... .. . ... ... : ... .. . ... ... : ... .. . ... ...
ROW C0 : D-3 00 8 ... ... ... : G-3 00 8 P80 ... ... : E-2 00 . ... : ... .. . ... : ... .. . ... ... : B-2 01 6 P80 ... : D-3 01 4 ... ... : G-3 01 3 ... ...
ROW C1 : ... .. 7 ... ... ... : ... .. 7 ... ... ... : ... .. . ... : ... .. . ... : ... .. . ... ... : ... .. 5 ... ... : ... .. . ... ... : ... .. 4 ... ...
ROW C2 : ... .. 6 ... ... ... : ... .. 6 ... ... ... : ... .. . ... : ... .. . ... : ... .. . ... ... : ... .. . ... ... : ... .. . ... ... : ... .. . ... ...
ROW C3 : ... .. 5 ... ... ... : ... .. 5 ... ... ... : ... .. . ... : ... .. . ... : ... .. . ... ... : ... .. 4 ... ... : ... .. 3 ... ... : ... .. 3 ... ...
ROW C4 : ... .. . ... ... ... : ... .. . ... ... ... : ... .. . ... : ... .. . ... : ... .. . ... ... : ... .. . ... ... : ... .. . ... ... : ... .. . ... ...
ROW C5 : ... .. . ... ... ... : ... .. . ... ... ... : ... .. . ... : ... .. . ... : ... .. . ... ... : ... .. . ... ... : ... .. . ... ... : ... .. . ... ...
ROW C6 : ... .. . ... ... ... : ... .. . ... ... ... : ... .. . ... : ... .. . ... : ... .. . ... ... : ... .. 3 ... ... : ... .. 2 ... ... : ... .. . ... ...
ROW C7 : ... .. . ... ... ... : ... .. . ... ... ... : ... .. . ... : ... .. . ... : ... .. . ... ... : ... .. . ... ... : ... .. . ... ... : ... .. . ... ...
ROW C8 : ... .. . ... ... ... : ... .. . ... ... ... : ... .. . ... : ... .. . ... : ... .. . ... ... : ... .. . ... ... : ... .. . ... ... : ... .. . ... ...
ROW C9 : ... .. . ... ... ... : ... .. . ... ... ... : ... .. . ... : ... .. . ... : ... .. . ... ... : ... .. . ... ... : ... .. . ... ... : ... .. . ... ...
ROW CA : ... .. . ... ... ... : ... .. . ... ... ... : ... .. . ... : ... .. . ... : ... .. . ... ... : ... .. 2 ... ... : ... .. 1 ... ... : ... .. 1 ... ...
ROW CB : ... .. . ... ... ... : ... .. . ... ... ... : ... .. . ... : ... .. . ... : ... .. . ... ... : ... .. . ... ... : ... .. . ... ... : ... .. . ... ...
ROW CC : ... .. . ... ... ... : ... .. . ... ... ... : ... .. . ... : ... .. . ... : ... .. . ... ... : ... .. . ... ... : ... .. . ... ... : ... .. . ... ...
ROW CD : ... .. . ... ... ... : ... .. . ... ... ... : ... .. . ... : ... .. . ... : ... .. . ... ... : ... .. . ... ... : ... .. . ... ... : ... .. . ... ...
ROW CE : ... .. . ... ... ... : ... .. . ... ... ... : ... .. . ... : ... .. . ... : ... .. . ... ... : ... .. . ... ... : ... .. . ... ... : ... .. . ... ...
ROW CF : ... .. . ... ... ... : ... .. . ... ... ... : ... .. . ... : ... .. . ... : ... .. . ... ... : ... .. . ... ... : ... .. . ... ... : ... .. . ... ...
ROW D0 : ... .. . ... ... ... : ... .. . ... ... ... : ... .. . ... : ... .. . ... : ... .. . ... ... : ... .. . ... ... : ... .. . ... ... : ... .. . ... ...
ROW D1 : ... .. . ... ... ... : ... .. . ... ... ... : ... .. . ... : ... .. . ... : ... .. . ... ... : ... .. . ... ... : ... .. . ... ... : ... .. . ... ...
ROW D2 : ... .. . ... ... ... : ... .. . ... ... ... : ... .. . ... : ... .. . ... : ... .. . ... ... : ... .. . ... ... : ... .. . ... ... : ... .. . ... ...
ROW D3 : ... .. . ... ... ... : ... .. . ... ... ... : ... .. . ... : ... .. . ... : ... .. . ... ... : ... .. . ... ... : ... .. . ... ... : ... .. . ... ...
ROW D4 : ... .. . ... ... ... : B-3 00 8 ... ... ... : --- .. . ... : ... .. . ... : ... .. . ... ... : ... .. . ... ... : ... .. . ... ... : ... .. 2 ... ...
ROW D5 : ... .. . ... ... ... : ... .. 7 ... ... ... : ... .. . ... : ... .. . ... : ... .. . ... ... : ... .. . ... ... : ... .. . ... ... : ... .. . ... ...
ROW D6 : ... .. . ... ... ... : ... .. 6 ... ... ... : ... .. . ... : ... .. . ... : ... .. . ... ... : ... .. . ... ... : ... .. . ... ... : ... .. . ... ...
ROW D7 : ... .. . ... ... ... : ... .. 5 ... ... ... : ... .. . ... : ... .. . ... : ... .. . ... ... : ... .. . ... ... : ... .. . ... ... : ... .. . ... ...
ROW D8 : ... .. . ... ... ... : ... .. . ... ... ... : ... .. . ... : ... .. . ... : ... .. . ... ... : ... .. . ... ... : ... .. . ... ... : ... .. . ... ...
ROW D9 : ... .. . ... ... ... : ... .. . ... ... ... : ... .. . ... : ... .. . ... : ... .. . ... ... : ... .. . ... ... : ... .. 2 ... ... : ... .. . ... ...
ROW DA : ... .. . ... ... ... : ... .. . ... ... ... : ... .. . ... : ... .. . ... : ... .. . ... ... : ... .. . ... ... : ... .. . ... ... : ... .. . ... ...
ROW DB : ... .. . ... ... ... : ... .. . ... ... ... : ... .. . ... : ... .. . ... : ... .. . ... ... : ... .. . ... ... : ... .. . ... ... : ... .. . ... ...
ROW DC : ... .. . ... ... ... : ... .. . ... ... ... : ... .. . ... : ... .. . ... : ... .. . ... ... : ... .. . ... ... : ... .. . ... ... : ... .. . ... ...
ROW DD : ... .. . ... ... ... : ... .. . ... ... ... : ... .. . ... : ... .. . ... : ... .. . ... ... : ... .. . ... ... : ... .. . ... ... : ... .. . ... ...
ROW DE : ... .. . ... ... ... : ... .. . ... ... ... : ... .. . ... : ... .. . ... : ... .. . ... ... : ... .. 3 ... ... : ... .. . ... ... : ... .. 3 ... ...
ROW DF : ... .. 1 ... ... ... : ... .. 1 ... ... ... : ... .. . ... : ... .. . ... : ... .. . ... ... : ... .. 1 ... ... : ... .. 1 ... ... : ... .. 1 ... ...
ROW E0 : ... .. . ... ... ... : ... .. . ... ... ... : ... .. . ... : ... .. . ... : ... .. . ... ... : ... .. . ... ... : ... .. . ... ... : ... .. . ... ...
ROW E1 : ... .. . ... ... ... : ... .. . ... ... ... : ... .. . ... : ... .. . ... : ... .. . ... ... : ... .. . ... ... : ... .. . ... ... : ... .. . ... ...
ROW E2 : ... .. . ... ... ... : ... .. . ... ... ... : ... .. . ... : ... .. . ... : ... .. . ... ... : ... .. . ... ... : ... .. . ... ... : ... .. . ... ...
ROW E3 : ... .. . ... ... ... : ... .. . ... ... ... : ... .. . ... : ... .. . ... : ... .. . ... ... : ... .. . ... ... : ... .. . ... ... : ... .. . ... ...
ROW E4 : ... .. . ... ... ... : ... .. . ... ... ... : ... .. . ... : ... .. . ... : ... .. . ... ... : ... .. . ... ... : ... .. . ... ... : ... .. . ... ...
ROW E5 : ... .. 0 ... V00 ... : ... .. 0 ... ... ... : ... .. . ... : ... .. . ... : ... .. . ... ... : ... .. . ... ... : ... .. . ... ... : ... .. . ... ...
ROW E6 : ... .. . ... ... ... : ... .. . ... ... ... : ... .. . ... : ... .. . ... : ... .. . ... ... : ... .. . ... ... : ... .. . ... ... : ... .. . ... ...
ROW E7 : ... .. . ... ... ... : ... .. . ... ... ... : ... .. . ... : ... .. . ... : ... .. . ... ... : ... .. . ... ... : ... .. . ... ... : ... .. . ... ...
ROW E8 : C#3 00 8 P80 V01 ... : A-3 00 8 P80 ... ... : F#2 00 . ... : ... .. . ... : ... .. . ... ... : C#3 01 5 ... ... : E-3 01 4 ... ... : A-3 01 2 ... ...
ROW E9 : ... .. 7 ... ... ... : ... .. 7 ... ... ... : ... .. . ... : ... .. . ... : ... .. . ... ... : ... .. 4 ... ... : ... .. 3 ... ... : ... .. 3 ... ...
ROW EA : ... .. 6 ... ... ... : ... .. 6 ... ... ... : ... .. . ... : ... .. . ... : ... .. . ... ... : ... .. . ... ... : ... .. . ... ... : ... .. . ... ...
ROW EB : ... .. 5 ... ... ... : ... .. 5 ... ... ... : ... .. . ... : ... .. . ... : ... .. . ... ... : ... .. . ... ... : ... .. . ... ... : ... .. . ... ...
ROW EC : ... .. . ... ... ... : ... .. . ... ... ... : ... .. . ... : ... .. . ... : ... .. . ... ... : ... .. 3 ... ... : ... .. 2 ... ... : ... .. . ... ...
ROW ED : ... .. . ... ... ... : ... .. . ... ... ... : ... .. . ... : ... .. . ... : ... .. . ... ... : ... .. . ... ... : ... .. . ... ... : ... .. 2 ... ...
ROW EE : ... .. . ... ... ... : ... .. . ... ... ... : ... .. . ... : ... .. . ... : ... .. . ... ... : ... .. 2 ... ... : ... .. . ... ... : ... .. . ... ...
ROW EF : ... .. . ... ... ... : ... .. . ... ... ... : ... .. . ... : ... .. . ... : ... .. . ... ... : ... .. . ... ... : ... .. . ... ... : ... .. . ... ...
ROW F0 : ... .. . ... ... ... : ... .. . ... ... ... : ... .. . ... : ... .. . ... : ... .. . ... ... : ... .. . ... ... : ... .. . ... ... : ... .. . ... ...
ROW F1 : ... .. . ... ... ... : ... .. . ... ... ... : ... .. . ... : ... .. . ... : ... .. . ... ... : ... .. . ... ... : ... .. . ... ... : ... .. . ... ...
ROW F2 : ... .. . ... ... ... : ... .. . ... ... ... : ... .. . ... : ... .. . ... : ... .. . ... ... : ... .. . ... ... : ... .. 1 ... ... : ... .. 1 ... ...
ROW F3 : ... .. . ... ... ... : ... .. . ... ... ... : ... .. . ... : ... .. . ... : ... .. . ... ... : ... .. . ... ... : ... .. . ... ... : ... .. . ... ...
ROW F4 : ... .. . ... ... ... : ... .. . ... ... ... : ... .. . ... : ... .. . ... : ... .. . ... ... : ... .. . ... ... : ... .. . ... ... : ... .. . ... ...
ROW F5 : ... .. . ... ... ... : ... .. . ... ... ... : ... .. . ... : ... .. . ... : ... .. . ... ... : ... .. . ... ... : ... .. . ... ... : ... .. . ... ...
ROW F6 : ... .. . ... ... ... : ... .. . ... ... ... : ... .. . ... : ... .. . ... : ... .. . ... ... : ... .. . ... ... : ... .. . ... ... : ... .. . ... ...
ROW F7 : ... .. . ... ... ... : ... .. . ... ... ... : ... .. . ... : ... .. . ... : ... .. . ... ... : ... .. 1 ... ... : ... .. . ... ... : ... .. . ... ...
ROW F8 : ... .. . ... ... ... : ... .. . ... ... ... : ... .. . ... : ... .. . ... : ... .. . ... ... : ... .. . ... ... : ... .. . ... ... : ... .. . ... ...
ROW F9 : ... .. . ... ... ... : ... .. . ... ... ... : ... .. . ... : ... .. . ... : ... .. . ... ... : ... .. . ... ... : ... .. . ... ... : ... .. . ... ...
ROW FA : ... .. . ... ... ... : ... .. . ... ... ... : ... .. . ... : ... .. . ... : ... .. . ... ... : ... .. . ... ... : ... .. . ... ... : ... .. . ... ...
ROW FB : ... .. . ... ... ... : ... .. . ... ... ... : ... .. . ... : ... .. . ... : ... .. . ... ... : ... .. . ... ... : ... .. . ... ... : ... .. . ... ...
ROW FC : ... .. . ... ... ... : ... .. . ... ... ... : --- .. . ... : ... .. . ... : ... .. . ... ... : ... .. . ... ... : ... .. . ... ... : ... .. . ... ...
ROW FD : ... .. 1 ... ... ... : ... .. 1 ... ... ... : ... .. . ... : ... .. . ... : ... .. . ... ... : ... .. . ... ... : ... .. . ... ... : ... .. . ... ...
ROW FE : ... .. . ... ... ... : ... .. . ... ... ... : ... .. . ... : ... .. . ... : ... .. . ... ... : ... .. . ... ... : ... .. . ... ... : ... .. . ... ...
ROW FF : ... .. . ... ... ... : ... .. . ... ... ... : ... .. . ... : ... .. . ... : ... .. . ... ... : ... .. . ... ... : ... .. . ... ... : ... .. . ... ...

PATTERN 09
ROW 00 : ... .. . ... ... ... : ... .. . ... ... ... : ... .. . ... : ... .. . ... : ... .. . ... ... : ... .. . ... ... : ... .. . ... ... : ... .. . ... ...
ROW 01 : ... .. . ... ... ... : ... .. . ... ... ... : ... .. . ... : ... .. . ... : ... .. . ... ... : ... .. . ... ... : --- .. . P7E ... : ... .. 0 ... ...
ROW 02 : ... .. . ... ... ... : ... .. . ... ... ... : ... .. . ... : ... .. . ... : ... .. . ... ... : ... .. . ... ... : ... .. . ... ... : ... .. . ... ...
ROW 03 : ... .. 0 ... V00 ... : ... .. 0 ... ... ... : ... .. . ... : ... .. . ... : ... .. . ... ... : ... .. . ... ... : ... .. . ... ... : ... .. . ... ...
ROW 04 : ... .. . ... ... ... : ... .. . ... ... ... : ... .. . ... : ... .. . ... : ... .. . ... ... : ... .. . ... ... : ... .. . ... ... : ... .. . ... ...
ROW 05 : ... .. . ... ... ... : ... .. . ... ... ... : ... .. . ... : ... .. . ... : ... .. . ... ... : ... .. . ... ... : ... .. . ... ... : ... .. . ... ...
ROW 06 : ... .. . ... ... ... : E-3 00 8 P80 ... ... : ... .. . ... : ... .. . ... : ... .. . ... ... : --- .. . P83 ... : ... .. . ... ... : ... .. . ... ...
ROW 07 : ... .. . ... ... ... : ... .. 7 ... ... ... : ... .. . ... : ... .. . ... : ... .. . ... ... : ... .. . ... ... : ... .. . ... ... : ... .. . ... ...
ROW 08 : ... .. . ... ... ... : ... .. 6 ... ... ... : ... .. . ... : ... .. . ... : ... .. . ... ... : ... .. . ... ... : ... .. . ... ... : ... .. . ... ...
ROW 09 : ... .. . ... ... ... : ... .. 5 ... ... ... : ... .. . ... : ... .. . ... : ... .. . ... ... : ... .. . ... ... : ... .. . ... ... : ... .. . ... ...
ROW 0A : ... .. . ... ... ... : ... .. . ... ... ... : ... .. . ... : ... .. . ... : ... .. . ... ... : ... .. . ... ... : ... .. . ... ... : ... .. . ... ...
ROW 0B : ... .. . ... ... ... : ... .. . ... ... ... : ... .. . ... : ... .. . ... : ... .. . ... ... : ... .. . ... ... : ... .. . ... ... : ... .. . ... ...
ROW 0C : ... .. . ... ... ... : ... .. 1 ... ... ... : ... .. . ... : ... .. . ... : ... .. . ... ... : ... .. . ... ... : ... .. . ... ... : ... .. . ... ...
ROW 0D : ... .. . ... ... ... : ... .. . ... ... ... : ... .. . ... : ... .. . ... : ... .. . ... ... : ... .. . ... ... : ... .. . ... ... : ... .. . ... ...
ROW 0E : ... .. . ... ... ... : ... .. . ... ... ... : ... .. . ... : ... .. . ... : ... .. . ... ... : ... .. . ... ... : ... .. . ... ... : ... .. . ... ...
ROW 0F : ... .. . ... ... ... : ... .. . ... ... ... : ... .. . ... : ... .. . ... : ... .. . ... ... : ... .. . ... ... : ... .. . ... ... : ... .. . ... ...
ROW 10 : B-2 00 8 P80 V01 ... : F#3 00 8 ... ... ... : G-2 00 . ... : ... .. . ... : ... .. . ... ... : B-2 01 6 P80 ... : D-3 01 4 P81 ... : G-3 01 3 ... ...
ROW 11 : ... .. 7 ... ... ... : ... .. 7 ... ... ... : ... .. . ... : ... .. . ... : ... .. . ... ... : ... .. 5 ... ... : ... .. . ... ... : ... .. 4 ... ...
ROW 12 : ... .. 6 ... ... ... : ... .. 6 ... ... ... : ... .. . ... : ... .. . ... : ... .. . ... ... : ... .. . ... ... : ... .. . ... ... : ... .. . ... ...
ROW 13 : ... .. 5 ... ... ... : ... .. 5 ... ... ... : ... .. . ... : ... .. . ... : ... .. . ... ... : ... .. 4 ... ... : ... .. 3 ... ... : ... .. 3 ... ...
ROW 14 : ... .. . ... ... ... : ... .. . ... ... ... : ... .. . ... : ... .. . ... : ... .. . ... ... : ... .. . ... ... : ... .. . ... ... : ... .. . ... ...
ROW 15 : ... .. . ... ... ... : ... .. . ... ... ... : ... .. . ... : ... .. . ... : ... .. . ... ... : ... .. . ... ... : ... .. . ... ... : ... .. . ... ...
ROW 16 : ... .. . ... ... ... : ... .. . ... ... ... : ... .. . ... : ... .. . ... : ... .. . ... ... : ... .. 3 ... ... : ... .. 2 ... ... : ... .. . ... ...
ROW 17 : ... .. . ... ... ... : ... .. . ... ... ... : ... .. . ... : ... .. . ... : ... .. . ... ... : ... .. . ... ... : ... .. . ... ... : ... .. . ... ...
ROW 18 : ... .. . ... ... ... : ... .. . ... ... ... : ... .. . ... : ... .. . ... : ... .. . ... ... : ... .. . ... ... : ... .. . ... ... : ... .. . ... ...
ROW 19 : ... .. . ... ... ... : ... .. . ... ... ... : ... .. . ... : ... .. . ... : ... .. . ... ... : ... .. . ... ... : ... .. . ... ... : ... .. . ... ...
ROW 1A : ... .. . ... ... ... : ... .. . ... ... ... : ... .. . ... : ... .. . ... : ... .. . ... ... : ... .. 2 ... ... : ... .. 1 ... ... : ... .. 1 ... ...
ROW 1B : ... .. 1 ... ... ... : ... .. 1 ... ... ... : ... .. . ... : ... .. . ... : ... .. . ... ... : ... .. . ... ... : ... .. . ... ... : ... .. . ... ...
ROW 1C : ... .. . ... ... ... : ... .. . ... ... ... : ... .. . ... : ... .. . ... : ... .. . ... ... : ... .. . ... ... : ... .. . ... ... : ... .. . ... ...
ROW 1D : ... .. . ... ... ... : ... .. . ... ... ... : ... .. . ... : ... .. . ... : ... .. . ... ... : ... .. . ... ... : ... .. . ... ... : ... .. . ... ...
ROW 1E : ... .. . ... ... ... : ... .. . ... ... ... : ... .. . ... : ... .. . ... : ... .. . ... ... : ... .. . ... ... : ... .. . ... ... : ... .. . ... ...
ROW 1F : ... .. . ... ... ... : ... .. . ... ... ... : ... .. . ... : ... .. . ... : ... .. . ... ... : ... .. . ... ... : ... .. . ... ... : ... .. . ... ...
ROW 20 : ... .. . ... ... ... : ... .. . ... ... ... : ... .. . ... : ... .. . ... : ... .. . ... ... : ... .. 1 ... ... : ... .. . ... ... : ... .. . ... ...
ROW 21 : ... .. 0 ... V00 ... : ... .. 0 ... ... ... : ... .. . ... : ... .. . ... : ... .. . ... ... : ... .. . ... ... : ... .. . ... ... : ... .. . ... ...
ROW 22 : ... .. . ... ... ... : ... .. . ... ... ... : ... .. . ... : ... .. . ... : ... .. . ... ... : ... .. . ... ... : ... .. . ... ... : ... .. . ... ...
ROW 23 : ... .. . ... ... ... : ... .. . ... ... ... : ... .. . ... : ... .. . ... : ... .. . ... ... : ... .. . ... ... : ... .. . ... ... : ... .. . ... ...
ROW 24 : F#3 00 8 P80 V01 ... : G-3 00 8 P80 ... ... : --- .. . ... : ... .. . ... : ... .. . ... ... : D-3 01 4 ... ... : F#3 01 2 ... ... : B-3 01 1 ... ...
ROW 25 : ... .. 7 ... ... ... : ... .. 7 ... ... ... : ... .. . ... : ... .. . ... : ... .. . ... ... : ... .. 3 ... ... : ... .. . ... ... : ... .. 2 ... ...
ROW 26 : ... .. 6 ... ... ... : ... .. 6 ... ... ... : ... .. . ... : ... .. . ... : ... .. . ... ... : ... .. . ... ... : ... .. . ... ... : ... .. . ... ...
ROW 27 : ... .. 5 ... ... ... : ... .. 5 ... ... ... : ... .. . ... : ... .. . ... : ... .. . ... ... : ... .. . ... ... : ... .. . ... ... : ... .. . ... ...
ROW 28 : ... .. . ... ... ... : ... .. . ... ... ... : ... .. . ... : ... .. . ... : ... .. . ... ... : ... .. 2 ... ... : ... .. 1 ... ... : ... .. . ... ...
ROW 29 : ... .. . ... ... ... : ... .. . ... ... ... : ... .. . ... : ... .. . ... : ... .. . ... ... : ... .. 3 ... ... : ... .. 2 ... ... : ... .. . ... ...
ROW 2A : ... .. . ... ... ... : ... .. . ... ... ... : ... .. . ... : ... .. . ... : ... .. . ... ... : ... .. 2 ... ... : ... .. . ... ... : ... .. . ... ...
ROW 2B : ... .. . ... ... ... : ... .. . ... ... ... : ... .. . ... : ... .. . ... : ... .. . ... ... : ... .. . ... ... : ... .. . ... ... : ... .. . ... ...
ROW 2C : ... .. . ... ... ... : ... .. . ... ... ... : ... .. . ... : ... .. . ... : ... .. . ... ... : ... .. . ... ... : ... .. . ... ... : ... .. . ... ...
ROW 2D : ... .. . ... ... ... : ... .. . ... ... ... : ... .. . ... : ... .. . ... : ... .. . ... ... : ... .. . ... ... : ... .. . ... ... : ... .. . ... ...
ROW 2E : ... .. . ... ... ... : ... .. . ... ... ... : ... .. . ... : ... .. . ... : ... .. . ... ... : ... .. 3 ... ... : ... .. . ... ... : ... .. 3 ... ...
ROW 2F : ... .. 1 ... ... ... : ... .. 1 ... ... ... : ... .. . ... : ... .. . ... : ... .. . ... ... : ... .. 1 ... ... : ... .. 1 ... ... : ... .. 1 ... ...
ROW 30 : ... .. . ... ... ... : ... .. . ... ... ... : ... .. . ... : ... .. . ... : ... .. . ... ... : ... .. . ... ... : ... .. . ... ... : ... .. . ... ...
ROW 31 : ... .. . ... ... ... : ... .. . ... ... ... : ... .. . ... : ... .. . ... : ... .. . ... ... : ... .. . ... ... : ... .. . ... ... : ... .. . ... ...
ROW 32 : ... .. . ... ... ... : ... .. . ... ... ... : ... .. . ... : ... .. . ... : ... .. . ... ... : ... .. . ... ... : ... .. . ... ... : ... .. . ... ...
ROW 33 : ... .. . ... ... ... : ... .. . ... ... ... : ... .. . ... : ... .. . ... : ... .. . ... ... : ... .. . ... ... : ... .. . ... ... : ... .. . ... ...
ROW 34 : ... .. . ... ... ... : ... .. . ... ... ... : ... .. . ... : ... .. . ... : ... .. . ... ... : ... .. . ... ... : ... .. . ... ... : ... .. . ... ...
ROW 35 : ... .. 0 ... V00 ... : ... .. 0 ... ... ... : ... .. . ... : ... .. . ... : ... .. . ... ... : ... .. . ... ... : ... .. . ... ... : ... .. . ... ...
ROW 36 : ... .. . ... ... ... : ... .. . ... ... ... : ... .. . ... : ... .. . ... : ... .. . ... ... : ... .. . ... ... : ... .. . ... ... : ... .. . ... ...
ROW 37 : ... .. . ... ... ... : ... .. . ... ... ... : ... .. . ... : ... .. . ... : ... .. . ... ... : ... .. . ... ... : ... .. . ... ... : ... .. . ... ...
ROW 38 : E-3 00 8 P80 V01 ... : E-3 00 8 P80 ... ... : C#2 00 . ... : ... .. . ... : ... .. . ... ... : C#3 01 5 ... ... : E-3 01 4 ... ... : A-3 01 2 ... ...
ROW 39 : ... .. 7 ... ... ... : ... .. 7 ... ... ... : ... .. . ... : ... .. . ... : ... .. . ... ... : ... .. 4 ... ... : ... .. 3 ... ... : ... .. 3 ... ...
ROW 3A : ... .. 6 ... ... ... : ... .. 6 ... ... ... : ... .. . ... : ... .. . ... : ... .. . ... ... : ... .. . ... ... : ... .. . ... ... : ... .. . ... ...
ROW 3B : ... .. 5 ... ... ... : ... .. 5 ... ... ... : ... .. . ... : ... .. . ... : ... .. . ... ... : ... .. . ... ... : ... .. . ... ... : ... .. . ... ...
ROW 3C : ... .. . ... ... ... : ... .. . ... ... ... : ... .. . ... : ... .. . ... : ... .. . ... ... : ... .. 3 ... ... : ... .. 2 ... ... : ... .. . ... ...
ROW 3D : ... .. . ... ... ... : ... .. . ... ... ... : ... .. . ... : ... .. . ... : ... .. . ... ... : ... .. . ... ... : ... .. . ... ... : ... .. 2 ... ...
ROW 3E : ... .. . ... ... ... : ... .. . ... ... ... : ... .. . ... : ... .. . ... : ... .. . ... ... : ... .. 2 ... ... : ... .. . ... ... : ... .. . ... ...
ROW 3F : ... .. . ... ... ... : ... .. . ... ... ... : ... .. . ... : ... .. . ... : ... .. . ... ... : ... .. . ... ... : ... .. . ... ... : ... .. . ... ...
ROW 40 : ... .. . ... ... ... : ... .. . ... ... ... : ... .. . ... : ... .. . ... : ... .. . ... ... : ... .. . ... ... : ... .. . ... ... : ... .. . ... ...
ROW 41 : ... .. . ... ... ... : ... .. . ... ... ... : ... .. . ... : ... .. . ... : ... .. . ... ... : ... .. . ... ... : ... .. . ... ... : ... .. . ... ...
ROW 42 : ... .. . ... ... ... : ... .. . ... ... ... : D-2 00 . ... : ... .. . ... : ... .. . ... ... : ... .. . ... ... : ... .. 1 ... ... : ... .. 1 ... ...
ROW 43 : ... .. . ... ... ... : ... .. 1 ... ... ... : ... .. . ... : ... .. . ... : ... .. . ... ... : ... .. . ... ... : ... .. . ... ... : ... .. . ... ...
ROW 44 : ... .. . ... ... ... : ... .. . ... ... ... : ... .. . ... : ... .. . ... : ... .. . ... ... : ... .. . ... ... : ... .. . ... ... : ... .. . ... ...
ROW 45 : ... .. . ... ... ... : ... .. . ... ... ... : ... .. . ... : ... .. . ... : ... .. . ... ... : ... .. . ... ... : ... .. . ... ... : ... .. . ... ...
ROW 46 : ... .. . ... ... ... : ... .. . ... ... ... : ... .. . ... : ... .. . ... : ... .. . ... ... : ... .. . ... ... : ... .. . ... ... : ... .. . ... ...
ROW 47 : ... .. . ... ... ... : ... .. . ... ... ... : ... .. . ... : ... .. . ... : ... .. . ... ... : ... .. 1 ... ... : ... .. . ... ... : ... .. . ... ...
ROW 48 : ... .. . ... ... ... : ... .. . ... ... ... : ... .. . ... : ... .. . ... : ... .. . ... ... : ... .. . ... ... : ... .. . ... ... : ... .. . ... ...
ROW 49 : ... .. . ... ... ... : ... .. 0 ... ... ... : ... .. . ... : ... .. . ... : ... .. . ... ... : ... .. . ... ... : ... .. . ... ... : ... .. . ... ...
ROW 4A : ... .. . ... ... ... : ... .. . ... ... ... : ... .. . ... : ... .. . ... : ... .. . ... ... : ... .. . ... ... : ... .. . ... ... : ... .. . ... ...
ROW 4B : ... .. . ... ... ... : ... .. . ... ... ... : ... .. . ... : ... .. . ... : ... .. . ... ... : ... .. . ... ... : ... .. . ... ... : ... .. . ... ...
ROW 4C : D-3 00 D ... ... ... : C#3 00 8 P80 ... ... : E-2 00 . ... : ... .. . ... : ... .. . ... ... : E-3 01 2 ... ... : ... .. . ... ... : ... .. . ... ...
ROW 4D : ... .. C ... ... ... : ... .. 7 ... ... ... : ... .. . ... : ... .. . ... : ... .. . ... ... : ... .. 1 ... ... : ... .. . ... ... : ... .. . ... ...
ROW 4E : ... .. B ... ... ... : ... .. 6 ... ... ... : ... .. . ... : ... .. . ... : ... .. . ... ... : ... .. . ... ... : ... .. . ... ... : ... .. . ... ...
ROW 4F : ... .. 8 ... ... ... : ... .. 5 ... ... ... : ... .. . ... : ... .. . ... : ... .. . ... ... : ... .. . ... ... : ... .. . ... ... : ... .. . ... ...
ROW 50 : ... .. . ... ... ... : ... .. . ... ... ... : ... .. . ... : ... .. . ... : ... .. . ... ... : ... .. . ... ... : ... .. . ... ... : ... .. . ... ...
ROW 51 : ... .. . ... ... ... : ... .. . ... ... ... : ... .. . ... : ... .. . ... : ... .. . ... ... : ... .. . ... ... : --- .. . P7E ... : ... .. 0 ... ...
ROW 52 : ... .. 1 ... ... ... : ... .. . ... ... ... : ... .. . ... : ... .. . ... : ... .. . ... ... : ... .. . ... ... : ... .. . ... ... : ... .. . ... ...
ROW 53 : ... .. . ... ... ... : ... .. . ... ... ... : ... .. . ... : ... .. . ... : ... .. . ... ... : ... .. . ... ... : ... .. . ... ... : ... .. . ... ...
ROW 54 : ... .. . ... ... ... : ... .. . ... ... ... : ... .. . ... : ... .. . ... : ... .. . ... ... : ... .. . ... ... : ... .. . ... ... : ... .. . ... ...
ROW 55 : ... .. . ... ... ... : ... .. . ... ... ... : ... .. . ... : ... .. . ... : ... .. . ... ... : ... .. . ... ... : ... .. . ... ... : ... .. . ... ...
ROW 56 : E-3 00 D ... ... ... : ... .. . ... ... ... : C#2 00 . ... : ... .. . ... : ... .. . ... ... : --- .. . P82 ... : ... .. . ... ... : ... .. . ... ...
ROW 57 : ... .. C ... ... ... : ... .. 1 ... ... ... : ... .. . ... : ... .. . ... : ... .. . ... ... : ... .. . ... ... : ... .. . ... ... : ... .. . ... ...
ROW 58 : ... .. B ... ... ... : ... .. . ... ... ... : ... .. . ... : ... .. . ... : ... .. . ... ... : ... .. . ... ... : ... .. . ... ... : ... .. . ... ...
ROW 59 : ... .. 8 ... ... ... : ... .. . ... ... ... : ... .. . ... : ... .. . ... : ... .. . ... ... : ... .. . ... ... : ... .. . ... ... : ... .. . ... ...
ROW 5A : ... .. . ... ... ... : ... .. . ... ... ... : ... .. . ... : ... .. . ... : ... .. . ... ... : ... .. . ... ... : ... .. . ... ... : ... .. . ... ...
ROW 5B : ... .. . ... ... ... : ... .. . ... ... ... : ... .. . ... : ... .. . ... : ... .. . ... ... : ... .. . ... ... : ... .. . ... ... : ... .. . ... ...
ROW 5C : ... .. 1 ... ... ... : ... .. . ... ... ... : ... .. . ... : ... .. . ... : ... .. . ... ... : ... .. . ... ... : ... .. . ... ... : ... .. . ... ...
ROW 5D : ... .. . ... ... ... : ... .. 0 ... ... ... : ... .. . ... : ... .. . ... : ... .. . ... ... : ... .. . ... ... : ... .. . ... ... : ... .. . ... ...
ROW 5E : ... .. . ... ... ... : ... .. . ... ... ... : ... .. . ... : ... .. . ... : ... .. . ... ... : ... .. . ... ... : ... .. . ... ... : ... .. . ... ...
ROW 5F : ... .. . ... ... ... : ... .. . ... ... ... : ... .. . ... : ... .. . ... : ... .. . ... ... : ... .. . ... ... : ... .. . ... ... : ... .. . ... ...
ROW 60 : F#3 00 B ... ... ... : B-2 00 B P80 ... ... : F#2 00 . ... : ... .. . ... : ... .. . ... ... : B-2 01 4 P80 ... : C#3 01 3 P81 ... : F#3 01 2 ... ...
ROW 61 : ... .. A ... ... ... : ... .. A ... ... ... : ... .. . ... : ... .. . ... : ... .. . ... ... : ... .. . ... ... : ... .. . ... ... : ... .. 3 ... ...
ROW 62 : ... .. 9 ... ... ... : ... .. 9 ... ... ... : ... .. . ... : ... .. . ... : ... .. . ... ... : ... .. . ... ... : ... .. . ... ... : ... .. . ... ...
ROW 63 : ... .. 7 ... ... ... : ... .. 7 ... ... ... : ... .. . ... : ... .. . ... : ... .. . ... ... : ... .. 3 ... ... : ... .. 2 ... ... : ... .. 2 ... ...
ROW 64 : ... .. . ... ... ... : ... .. . ... ... ... : ... .. . ... : ... .. . ... : ... .. . ... ... : ... .. . ... ... : ... .. . ... ... : ... .. . ... ...
ROW 65 : ... .. . ... ... ... : ... .. . ... ... ... : ... .. . ... : ... .. . ... : ... .. . ... ... : ... .. . ... ... : ... .. . ... ... : ... .. . ... ...
ROW 66 : ... .. . ... ... ... : ... .. . ... ... ... : ... .. . ... : ... .. . ... : ... .. . ... ... : ... .. 2 ... ... : ... .. . ... ... : ... .. . ... ...
ROW 67 : ... .. . ... ... ... : ... .. . ... ... ... : ... .. . ... : ... .. . ... : ... .. . ... ... : ... .. . ... ... : ... .. . ... ... : ... .. . ... ...
ROW 68 : ... .. . ... ... ... : ... .. . ... ... ... : ... .. . ... : ... .. . ... : ... .. . ... ... : ... .. . ... ... : ... .. . ... ... : ... .. . ... ...
ROW 69 : ... .. . ... ... ... : ... .. . ... ... ... : ... .. . ... : ... .. . ... : ... .. . ... ... : ... .. . ... ... : ... .. . ... ... : ... .. . ... ...
ROW 6A : ... .. 8 ... ... ... : ... .. 8 ... ... ... : ... .. . ... : ... .. . ... : ... .. . ... ... : ... .. . ... ... : ... .. . ... ... : ... .. . ... ...
ROW 6B : ... .. . ... ... ... : ... .. . ... ... ... : ... .. . ... : ... .. . ... : ... .. . ... ... : ... .. . ... ... : ... .. . ... ... : ... .. . ... ...
ROW 6C : ... .. . ... ... ... : ... .. . ... ... ... : ... .. . ... : ... .. . ... : ... .. . ... ... : ... .. . ... ... : ... .. . ... ... : ... .. . ... ...
ROW 6D : ... .. . ... ... ... : ... .. . ... ... ... : ... .. . ... : ... .. . ... : ... .. . ... ... : ... .. . ... ... : ... .. . ... ... : ... .. . ... ...
ROW 6E : ... .. . ... ... ... : ... .. . ... ... ... : ... .. . ... : ... .. . ... : ... .. . ... ... : ... .. . ... ... : ... .. . ... ... : ... .. . ... ...
ROW 6F : ... .. . ... ... ... : ... .. . ... ... ... : ... .. . ... : ... .. . ... : ... .. . ... ... : ... .. . ... ... : ... .. . ... ... : ... .. . ... ...
ROW 70 : ... .. . ... ... ... : ... .. . ... ... ... : ... .. . ... : ... .. . ... : ... .. . ... ... : ... .. . ... ... : ... .. . ... ... : ... .. . ... ...
ROW 71 : ... .. . ... ... ... : ... .. . ... ... ... : ... .. . ... : ... .. . ... : ... .. . ... ... : ... .. . ... ... : ... .. . ... ... : ... .. . ... ...
ROW 72 : ... .. . ... ... ... : ... .. . ... ... ... : ... .. . ... : ... .. . ... : ... .. . ... ... : ... .. . ... ... : ... .. . ... ... : ... .. . ... ...
ROW 73 : ... .. . ... ... ... : ... .. . ... ... ... : ... .. . ... : ... .. . ... : ... .. . ... ... : ... .. . ... ... : ... .. . ... ... : ... .. . ... ...
ROW 74 : ... .. . ... ... ... : ... .. . ... ... ... : ... .. . ... : ... .. . ... : ... .. . ... ... : ... .. . ... ... : ... .. . ... ... : ... .. . ... ...
ROW 75 : ... .. . ... ... ... : ... .. . ... ... ... : ... .. . ... : ... .. . ... : ... .. . ... ... : ... .. . ... ... : ... .. . ... ... : ... .. . ... ...
ROW 76 : ... .. . ... ... ... : ... .. . ... ... ... : ... .. . ... : ... .. . ... : ... .. . ... ... : ... .. . ... ... : ... .. . ... ... : ... .. . ... ...
ROW 77 : ... .. . ... ... ... : ... .. . ... ... ... : ... .. . ... : ... .. . ... : ... .. . ... ... : ... .. . ... ... : ... .. . ... ... : ... .. . ... ...
ROW 78 : ... .. . ... ... ... : ... .. . ... ... ... : ... .. . ... : ... .. . ... : ... .. . ... ... : ... .. . ... ... : ... .. . ... ... : ... .. . ... ...
ROW 79 : ... .. . ... ... ... : ... .. . ... ... ... : ... .. . ... : ... .. . ... : ... .. . ... ... : ... .. . ... ... : ... .. . ... ... : ... .. . ... ...
ROW 7A : ... .. . ... ... ... : ... .. . ... ... ... : ... .. . ... : ... .. . ... : ... .. . ... ... : ... .. . ... ... : ... .. . ... ... : ... .. . ... ...
ROW 7B : ... .. . ... ... ... : ... .. . ... ... ... : ... .. . ... : ... .. . ... : ... .. . ... ... : ... .. . ... ... : ... .. . ... ... : ... .. . ... ...
ROW 7C : ... .. . ... ... ... : ... .. . ... ... ... : ... .. . ... : ... .. . ... : ... .. . ... ... : ... .. . ... ... : ... .. . ... ... : ... .. . ... ...
ROW 7D : ... .. . ... ... ... : ... .. . ... ... ... : ... .. . ... : ... .. . ... : ... .. . ... ... : ... .. . ... ... : ... .. . ... ... : ... .. . ... ...
ROW 7E : ... .. 9 ... ... ... : ... .. 9 ... ... ... : ... .. . ... : ... .. . ... : ... .. . ... ... : ... .. . ... ... : ... .. . ... ... : ... .. . ... ...
ROW 7F : ... .. . ... ... ... : ... .. . ... ... ... : ... .. . ... : ... .. . ... : ... .. . ... ... : ... .. 1 ... ... : ... .. 1 ... ... : ... .. 1 ... ...
ROW 80 : ... .. . ... ... ... : ... .. . ... ... ... : ... .. . ... : ... .. . ... : ... .. . ... ... : ... .. . ... ... : ... .. . ... ... : ... .. . ... ...
ROW 81 : ... .. . ... ... ... : ... .. . ... ... ... : ... .. . ... : ... .. . ... : ... .. . ... ... : ... .. . ... ... : ... .. . ... ... : ... .. . ... ...
ROW 82 : ... .. . ... ... ... : ... .. . ... ... ... : ... .. . ... : ... .. . ... : ... .. . ... ... : ... .. . ... ... : ... .. . ... ... : ... .. . ... ...
ROW 83 : ... .. A P82 ... ... : ... .. A P82 ... ... : ... .. . ... : ... .. . ... : ... .. . ... ... : ... .. . ... ... : ... .. . ... ... : ... .. . ... ...
ROW 84 : ... .. . P83 ... ... : ... .. . P83 ... ... : ... .. . ... : ... .. . ... : ... .. . ... ... : ... .. . ... ... : ... .. . ... ... : ... .. . ... ...
ROW 85 : ... .. . ... ... ... : ... .. . ... ... ... : ... .. . ... : ... .. . ... : ... .. . ... ... : ... .. . ... ... : ... .. . ... ... : ... .. . ... ...
ROW 86 : ... .. . P81 ... ... : ... .. . P81 ... ... : ... .. . ... : ... .. . ... : ... .. . ... ... : ... .. . ... ... : ... .. . ... ... : ... .. . ... ...
ROW 87 : ... .. . P7F ... ... : ... .. . P7F ... ... : ... .. . ... : ... .. . ... : ... .. . ... ... : ... .. . ... ... : ... .. . ... ... : ... .. . ... ...
ROW 88 : ... .. 9 P7D ... ... : ... .. 9 P7D ... ... : ... .. . ... : ... .. . ... : ... .. . ... ... : D-3 01 4 ... ... : E-3 01 3 ... ... : A-3 01 2 ... ...
ROW 89 : ... .. . ... ... ... : ... .. . ... ... ... : ... .. . ... : ... .. . ... : ... .. . ... ... : ... .. . ... ... : ... .. . ... ... : ... .. 3 ... ...
ROW 8A : ... .. . P7E ... ... : ... .. . P7E ... ... : ... .. . ... : ... .. . ... : ... .. . ... ... : ... .. . ... ... : ... .. . ... ... : ... .. . ... ...
ROW 8B : ... .. . P80 ... ... : ... .. . P80 ... ... : ... .. . ... : ... .. . ... : ... .. . ... ... : ... .. 3 ... ... : ... .. 2 ... ... : ... .. 2 ... ...
ROW 8C : ... .. . P82 ... ... : ... .. . P82 ... ... : ... .. . ... : ... .. . ... : ... .. . ... ... : ... .. . ... ... : ... .. . ... ... : ... .. . ... ...
ROW 8D : ... .. 8 P83 ... ... : ... .. 8 P83 ... ... : ... .. . ... : ... .. . ... : ... .. . ... ... : ... .. . ... ... : ... .. . ... ... : ... .. . ... ...
ROW 8E : ... .. . ... ... ... : ... .. . ... ... ... : ... .. . ... : ... .. . ... : ... .. . ... ... : ... .. 2 ... ... : ... .. . ... ... : ... .. . ... ...
ROW 8F : ... .. . P81 ... ... : ... .. . P81 ... ... : ... .. . ... : ... .. . ... : ... .. . ... ... : ... .. . ... ... : ... .. . ... ... : ... .. . ... ...
ROW 90 : ... .. . P80 ... ... : ... .. . P80 ... ... : ... .. . ... : ... .. . ... : ... .. . ... ... : ... .. . ... ... : ... .. . ... ... : ... .. . ... ...
ROW 91 : ... .. . P7D ... ... : ... .. . P7D ... ... : ... .. . ... : ... .. . ... : ... .. . ... ... : ... .. . ... ... : ... .. . ... ... : ... .. . ... ...
ROW 92 : ... .. . ... ... ... : ... .. . ... ... ... : ... .. . ... : ... .. . ... : ... .. . ... ... : ... .. . ... ... : ... .. . ... ... : ... .. . ... ...
ROW 93 : ... .. . P7E ... ... : ... .. . P7E ... ... : ... .. . ... : ... .. . ... : ... .. . ... ... : ... .. . ... ... : ... .. . ... ... : ... .. . ... ...
ROW 94 : ... .. . P80 ... ... : ... .. . P80 ... ... : ... .. . ... : ... .. . ... : ... .. . ... ... : ... .. . ... ... : ... .. . ... ... : ... .. . ... ...
ROW 95 : ... .. . P81 ... ... : ... .. . P81 ... ... : ... .. . ... : ... .. . ... : ... .. . ... ... : ... .. . ... ... : ... .. . ... ... : ... .. . ... ...
ROW 96 : ... .. . P83 ... ... : ... .. . P83 ... ... : ... .. . ... : ... .. . ... : ... .. . ... ... : ... .. . ... ... : ... .. . ... ... : ... .. . ... ...
ROW 97 : ... .. 7 ... ... ... : ... .. 7 ... ... ... : ... .. . ... : ... .. . ... : ... .. . ... ... : ... .. . ... ... : ... .. . ... ... : ... .. . ... ...
ROW 98 : ... .. . P81 ... ... : ... .. . P81 ... ... : ... .. . ... : ... .. . ... : ... .. . ... ... : ... .. . ... ... : ... .. . ... ... : ... .. . ... ...
ROW 99 : ... .. . P80 ... ... : ... .. . P80 ... ... : ... .. . ... : ... .. . ... : ... .. . ... ... : ... .. . ... ... : ... .. . ... ... : ... .. . ... ...
ROW 9A : ... .. . P7E ... ... : ... .. . P7E ... ... : ... .. . ... : ... .. . ... : ... .. . ... ... : ... .. . ... ... : ... .. . ... ... : ... .. . ... ...
ROW 9B : ... .. . P7D ... ... : ... .. . P7D ... ... : ... .. . ... : ... .. . ... : ... .. . ... ... : ... .. . ... ... : ... .. . ... ... : ... .. . ... ...
ROW 9C : ... .. 6 ... ... ... : ... .. 6 ... ... ... : ... .. . ... : ... .. . ... : ... .. . ... ... : ... .. . ... ... : ... .. . ... ... : ... .. . ... ...
ROW 9D : ... .. . P80 ... ... : ... .. . P80 ... ... : ... .. . ... : ... .. . ... : ... .. . ... ... : ... .. . ... ... : ... .. . ... ... : ... .. . ... ...
ROW 9E : ... .. . P81 ... ... : ... .. . P81 ... ... : ... .. . ... : ... .. . ... : ... .. . ... ... : ... .. . ... ... : ... .. . ... ... : ... .. . ... ...
ROW 9F : ... .. . P83 ... ... : ... .. . P83 ... ... : ... .. . ... : ... .. . ... : ... .. . ... ... : ... .. . ... ... : ... .. . ... ... : ... .. . ... ...
ROW A0 : ... .. . ... ... ... : ... .. . ... ... ... : ... .. . ... : ... .. . ... : ... .. . ... ... : ... .. . ... ... : ... .. . ... ... : ... .. . ... ...
ROW A1 : ... .. . P82 ... ... : ... .. . P82 ... ... : ... .. . ... : ... .. . ... : ... .. . ... ... : ... .. . ... ... : ... .. . ... ... : ... .. . ... ...
ROW A2 : ... .. . P80 ... ... : ... .. . P80 ... ... : ... .. . ... : ... .. . ... : ... .. . ... ... : ... .. . ... ... : ... .. . ... ... : ... .. . ... ...
ROW A3 : ... .. . P7E ... ... : ... .. . P7E ... ... : ... .. . ... : ... .. . ... : ... .. . ... ... : ... .. . ... ... : ... .. . ... ... : ... .. . ... ...
ROW A4 : ... .. . P7D ... ... : ... .. . P7D ... ... : ... .. . ... : ... .. . ... : ... .. . ... ... : ... .. . ... ... : ... .. . ... ... : ... .. . ... ...
ROW A5 : ... .. . ... ... ... : ... .. . ... ... ... : ... .. . ... : ... .. . ... : ... .. . ... ... : ... .. . ... ... : ... .. . ... ... : ... .. . ... ...
ROW A6 : ... .. . P7F ... ... : ... .. . P7F ... ... : --- .. . ... : ... .. . ... : ... .. . ... ... : ... .. . ... ... : ... .. . ... ... : ... .. . ... ...
ROW A7 : ... .. . P81 ... ... : ... .. . P81 ... ... : ... .. . ... : ... .. . ... : ... .. . ... ... : ... .. . ... ... : ... .. . ... ... : ... .. . ... ...
ROW A8 : ... .. . P83 ... ... : ... .. . P83 ... ... : ... .. . ... : ... .. . ... : ... .. . ... ... : ... .. . ... ... : ... .. . ... ... : ... .. . ... ...
ROW A9 : ... .. . ... ... ... : ... .. . ... ... ... : ... .. . ... : ... .. . ... : ... .. . ... ... : ... .. . ... ... : ... .. . ... ... : ... .. . ... ...
ROW AA : ... .. . P82 ... ... : ... .. . P82 ... ... : ... .. . ... : ... .. . ... : ... .. . ... ... : ... .. . ... ... : ... .. . ... ... : ... .. . ... ...
ROW AB : ... .. . P80 ... ... : ... .. . P80 ... ... : ... .. . ... : ... .. . ... : ... .. . ... ... : ... .. . ... ... : ... .. . ... ... : ... .. . ... ...
ROW AC : ... .. . P7E ... ... : ... .. . P7E ... ... : ... .. . ... : ... .. . ... : ... .. . ... ... : ... .. . ... ... : ... .. . ... ... : ... .. . ... ...
ROW AD : ... .. . P7D ... ... : ... .. . P7D ... ... : ... .. . ... : ... .. . ... : ... .. . ... ... : ... .. . ... ... : ... .. . ... ... : ... .. . ... ...
ROW AE : ... .. . ... ... ... : ... .. . ... ... ... : ... .. . ... : ... .. . ... : ... .. . ... ... : ... .. . ... ... : ... .. . ... ... : ... .. . ... ...
ROW AF : ... .. . P7F ... ... : ... .. . P7F ... ... : ... .. . ... : ... .. . ... : ... .. . ... ... : ... .. . ... ... : ... .. . ... ... : ... .. . ... ...
ROW B0 : ... .. 5 P80 ... ... : ... .. . P80 ... ... : F#3 00 . ... : ... .. . ... : ... .. . ... ... : E-3 01 4 ... ... : F#3 01 3 ... ... : B-3 01 2 ... ...
ROW B1 : ... .. . P83 ... ... : ... .. . P83 ... ... : ... .. . ... : ... .. . ... : ... .. . ... ... : ... .. . ... ... : ... .. . ... ... : ... .. 3 ... ...
ROW B2 : ... .. . ... ... ... : ... .. . ... ... ... : ... .. . ... : ... .. . ... : ... .. . ... ... : ... .. . ... ... : ... .. . ... ... : ... .. . ... ...
ROW B3 : ... .. . P82 ... ... : ... .. . P82 ... ... : ... .. . ... : ... .. . ... : ... .. . ... ... : ... .. 3 ... ... : ... .. 2 ... ... : ... .. 2 ... ...
ROW B4 : ... .. . P80 ... ... : ... .. . P80 ... ... : ... .. . ... : ... .. . ... : ... .. . ... ... : ... .. . ... ... : ... .. . ... ... : ... .. . ... ...
ROW B5 : ... .. . P7F ... ... : ... .. . P7F ... ... : ... .. . ... : ... .. . ... : ... .. . ... ... : ... .. . ... ... : ... .. . ... ... : ... .. . ... ...
ROW B6 : ... .. . P7D ... ... : ... .. . P7D ... ... : ... .. . ... : ... .. . ... : ... .. . ... ... : ... .. 2 ... ... : ... .. . ... ... : ... .. . ... ...
ROW B7 : ... .. . ... ... ... : ... .. . ... ... ... : ... .. . ... : ... .. . ... : ... .. . ... ... : ... .. . ... ... : ... .. . ... ... : ... .. . ... ...
ROW B8 : ... .. . P7F ... ... : ... .. . P7F ... ... : ... .. . ... : ... .. . ... : ... .. . ... ... : ... .. . ... ... : ... .. . ... ... : ... .. . ... ...
ROW B9 : ... .. . P80 ... ... : ... .. . P80 ... ... : ... .. . ... : ... .. . ... : ... .. . ... ... : ... .. . ... ... : ... .. . ... ... : ... .. . ... ...
ROW BA : ... .. 4 P82 ... ... : ... .. . P82 ... ... : --- .. . ... : ... .. . ... : ... .. . ... ... : ... .. . ... ... : ... .. . ... ... : ... .. . ... ...
ROW BB : ... .. . P83 ... ... : ... .. . P83 ... ... : ... .. . ... : ... .. . ... : ... .. . ... ... : ... .. 1 ... ... : ... .. 1 ... ... : ... .. 1 ... ...
ROW BC : ... .. . ... ... ... : ... .. . ... ... ... : ... .. . ... : ... .. . ... : ... .. . ... ... : ... .. . ... ... : ... .. . ... ... : ... .. . ... ...
ROW BD : ... .. . P80 ... ... : ... .. . P80 ... ... : ... .. . ... : ... .. . ... : ... .. . ... ... : ... .. . ... ... : ... .. . ... ... : ... .. . ... ...
ROW BE : ... .. . P7F ... ... : ... .. . P7F ... ... : ... .. . ... : ... .. . ... : ... .. . ... ... : ... .. . ... ... : ... .. . ... ... : ... .. . ... ...
ROW BF : ... .. . P7D ... ... : ... .. . P7D ... ... : ... .. . ... : ... .. . ... : ... .. . ... ... : ... .. . ... ... : ... .. . ... ... : ... .. . ... ...
ROW C0 : ... .. . ... ... ... : ... .. . ... ... ... : ... .. . ... : ... .. . ... : ... .. . ... ... : ... .. . ... ... : ... .. . ... ... : ... .. . ... ...
ROW C1 : ... .. . P7E ... ... : ... .. . P7E ... ... : ... .. . ... : ... .. . ... : ... .. . ... ... : ... .. . ... ... : ... .. . ... ... : ... .. . ... ...
ROW C2 : ... .. . P80 ... ... : ... .. . P80 ... ... : ... .. . ... : ... .. . ... : ... .. . ... ... : ... .. . ... ... : ... .. . ... ... : ... .. . ... ...
ROW C3 : ... .. . P82 ... ... : ... .. . P82 ... ... : ... .. . ... : ... .. . ... : ... .. . ... ... : ... .. . ... ... : ... .. . ... ... : ... .. . ... ...
ROW C4 : ... .. . P83 ... ... : ... .. . P83 ... ... : F#2 00 . ... : ... .. . ... : ... .. . ... ... : A-2 01 4 ... ... : B-2 01 3 ... ... : E-3 01 2 ... ...
ROW C5 : ... .. . ... ... ... : ... .. . ... ... ... : ... .. . ... : ... .. . ... : ... .. . ... ... : ... .. . ... ... : ... .. . ... ... : ... .. 3 ... ...
ROW C6 : ... .. . P81 ... ... : ... .. . P81 ... ... : ... .. . ... : ... .. . ... : ... .. . ... ... : ... .. . ... ... : ... .. . ... ... : ... .. . ... ...
ROW C7 : ... .. . P7F ... ... : ... .. . P7F ... ... : ... .. . ... : ... .. . ... : ... .. . ... ... : ... .. 3 ... ... : ... .. 2 ... ... : ... .. 2 ... ...
ROW C8 : ... .. . P7D ... ... : ... .. . P7D ... ... : ... .. . ... : ... .. . ... : ... .. . ... ... : ... .. . ... ... : ... .. . ... ... : ... .. . ... ...
ROW C9 : ... .. . ... ... ... : ... .. . ... ... ... : ... .. . ... : ... .. . ... : ... .. . ... ... : ... .. . ... ... : ... .. . ... ... : ... .. . ... ...
ROW CA : ... .. . P7E ... ... : ... .. . P7E ... ... : ... .. . ... : ... .. . ... : ... .. . ... ... : ... .. 2 ... ... : ... .. . ... ... : ... .. . ... ...
ROW CB : ... .. . P80 ... ... : ... .. . P80 ... ... : ... .. . ... : ... .. . ... : ... .. . ... ... : ... .. . ... ... : ... .. . ... ... : ... .. . ... ...
ROW CC : ... .. . P82 ... ... : ... .. . P82 ... ... : ... .. . ... : ... .. . ... : ... .. . ... ... : ... .. . ... ... : ... .. . ... ... : ... .. . ... ...
ROW CD : ... .. . P83 ... ... : ... .. . P83 ... ... : ... .. . ... : ... .. . ... : ... .. . ... ... : ... .. . ... ... : ... .. . ... ... : ... .. . ... ...
ROW CE : ... .. . ... ... ... : ... .. . ... ... ... : ... .. . ... : ... .. . ... : ... .. . ... ... : ... .. . ... ... : ... .. . ... ... : ... .. . ... ...
ROW CF : ... .. . P81 ... ... : ... .. . P81 ... ... : ... .. . ... : ... .. . ... : ... .. . ... ... : ... .. . ... ... : ... .. . ... ... : ... .. . ... ...
ROW D0 : ... .. . P80 ... ... : ... .. . P80 ... ... : ... .. . ... : ... .. . ... : ... .. . ... ... : ... .. . ... ... : ... .. . ... ... : ... .. . ... ...
ROW D1 : ... .. . P7D ... ... : ... .. . P7D ... ... : ... .. . ... : ... .. . ... : ... .. . ... ... : ... .. . ... ... : ... .. . ... ... : ... .. . ... ...
ROW D2 : ... .. . ... ... ... : ... .. . ... ... ... : ... .. . ... : ... .. . ... : ... .. . ... ... : ... .. . ... ... : ... .. . ... ... : ... .. . ... ...
ROW D3 : ... .. 3 P7E ... ... : ... .. . P7E ... ... : ... .. . ... : ... .. . ... : ... .. . ... ... : ... .. . ... ... : ... .. . ... ... : ... .. . ... ...
ROW D4 : ... .. . P80 ... ... : ... .. . P80 ... ... : ... .. . ... : ... .. . ... : ... .. . ... ... : ... .. . ... ... : ... .. . ... ... : ... .. . ... ...
ROW D5 : ... .. . P81 ... ... : ... .. . P81 ... ... : ... .. . ... : ... .. . ... : ... .. . ... ... : ... .. . ... ... : ... .. . ... ... : ... .. . ... ...
ROW D6 : ... .. . P83 ... ... : ... .. . P83 ... ... : ... .. . ... : ... .. . ... : ... .. . ... ... : ... .. . ... ... : ... .. . ... ... : ... .. . ... ...
ROW D7 : ... .. . ... ... ... : ... .. . ... ... ... : ... .. . ... : ... .. . ... : ... .. . ... ... : ... .. . ... ... : ... .. . ... ... : ... .. . ... ...
ROW D8 : ... .. . P81 ... ... : ... .. . P81 ... ... : ... .. . ... : ... .. . ... : ... .. . ... ... : ... .. . ... ... : ... .. . ... ... : ... .. . ... ...
ROW D9 : ... .. . P80 ... ... : ... .. . P80 ... ... : ... .. . ... : ... .. . ... : ... .. . ... ... : ... .. 1 ... ... : ... .. 1 ... ... : ... .. 1 ... ...
ROW DA : ... .. . P7E ... ... : ... .. . P7F ... ... : ... .. . ... : ... .. . ... : ... .. . ... ... : ... .. . ... ... : ... .. . ... ... : ... .. . ... ...
ROW DB : ... .. . P7D ... ... : ... .. . P7E ... ... : ... .. . ... : ... .. . ... : ... .. . ... ... : ... .. . ... ... : ... .. . ... ... : ... .. . ... ...
ROW DC : ... .. . ... ... ... : ... .. . P7F ... ... : ... .. . ... : ... .. . ... : ... .. . ... ... : ... .. . ... ... : ... .. . ... ... : ... .. . ... ...
ROW DD : ... .. 2 P80 ... ... : ... .. 5 P80 ... ... : ... .. . ... : ... .. . ... : ... .. . ... ... : ... .. . ... ... : ... .. . ... ... : ... .. . ... ...
ROW DE : ... .. . P81 ... ... : ... .. . ... ... ... : ... .. . ... : ... .. . ... : ... .. . ... ... : ... .. . ... ... : ... .. . ... ... : ... .. . ... ...
ROW DF : ... .. . P83 ... ... : ... .. . P82 ... ... : ... .. . ... : ... .. . ... : ... .. . ... ... : ... .. . ... ... : ... .. . ... ... : ... .. . ... ...
ROW E0 : ... .. . ... ... ... : ... .. . ... ... ... : ... .. . ... : ... .. . ... : ... .. . ... ... : ... .. . ... ... : ... .. . ... ... : ... .. . ... ...
ROW E1 : ... .. . P82 ... ... : ... .. . P81 ... ... : ... .. . ... : ... .. . ... : ... .. . ... ... : ... .. . ... ... : ... .. . ... ... : ... .. . ... ...
ROW E2 : ... .. . P80 ... ... : ... .. . P80 ... ... : ... .. . ... : ... .. . ... : ... .. . ... ... : ... .. . ... ... : ... .. . ... ... : ... .. . ... ...
ROW E3 : ... .. . P7E ... ... : ... .. . P7F ... ... : ... .. . ... : ... .. . ... : ... .. . ... ... : ... .. . ... ... : ... .. . ... ... : ... .. . ... ...
ROW E4 : ... .. . P7D ... ... : ... .. . P7E ... ... : ... .. . ... : ... .. . ... : ... .. . ... ... : ... .. . ... ... : ... .. . ... ... : ... .. . ... ...
ROW E5 : ... .. . ... ... ... : ... .. . ... ... ... : ... .. . ... : ... .. . ... : ... .. . ... ... : ... .. . ... ... : ... .. . ... ... : ... .. . ... ...
ROW E6 : ... .. . P7F ... ... : ... .. . P80 ... ... : ... .. . ... : ... .. . ... : ... .. . ... ... : ... .. . ... ... : ... .. . ... ... : ... .. . ... ...
ROW E7 : ... .. . P81 ... ... : ... .. . ... ... ... : ... .. . ... : ... .. . ... : ... .. . ... ... : ... .. . ... ... : ... .. . ... ... : ... .. . ... ...
ROW E8 : ... .. . P83 ... ... : ... .. . ... ... ... : ... .. . ... : ... .. . ... : ... .. . ... ... : ... .. . ... ... : ... .. . ... ... : ... .. . ... ...
ROW E9 : ... .. . ... ... ... : ... .. . ... ... ... : ... .. . ... : ... .. . ... : ... .. . ... ... : ... .. . ... ... : ... .. . ... ... : ... .. . ... ...
ROW EA : ... .. . P82 ... ... : ... .. . ... ... ... : ... .. . ... : ... .. . ... : ... .. . ... ... : ... .. . ... ... : ... .. . ... ... : ... .. . ... ...
ROW EB : ... .. . P80 ... ... : ... .. . ... ... ... : ... .. . ... : ... .. . ... : ... .. . ... ... : ... .. . ... ... : ... .. . ... ... : ... .. . ... ...
ROW EC : ... .. . P7E ... ... : ... .. 4 ... ... ... : F#1 00 . ... : ... .. . ... : ... .. . ... ... : ... .. 4 ... ... : ... .. 3 ... ... : ... .. 2 ... ...
ROW ED : ... .. . P7D ... ... : ... .. 3 ... ... ... : ... .. . ... : ... .. . ... : ... .. . ... ... : ... .. . ... ... : ... .. . ... ... : ... .. 3 ... ...
ROW EE : ... .. . ... ... ... : ... .. . ... ... ... : ... .. . ... : ... .. . ... : ... .. . ... ... : ... .. . ... ... : ... .. . ... ... : ... .. . ... ...
ROW EF : ... .. . P7F ... ... : ... .. 2 ... ... ... : ... .. . ... : ... .. . ... : ... .. . ... ... : ... .. 3 ... ... : ... .. 2 ... ... : ... .. 2 ... ...
ROW F0 : ... .. . P80 ... ... : ... .. . ... ... ... : ... .. . ... : ... .. . ... : ... .. . ... ... : ... .. . ... ... : ... .. . ... ... : ... .. . ... ...
ROW F1 : ... .. 1 P83 ... ... : C#3 00 6 ... ... ... : ... .. . ... : ... .. . ... : ... .. . ... ... : ... .. . ... ... : ... .. . ... ... : ... .. . ... ...
ROW F2 : ... .. . ... ... ... : ... .. 5 ... ... ... : ... .. . ... : ... .. . ... : ... .. . ... ... : ... .. 2 ... ... : ... .. . ... ... : ... .. . ... ...
ROW F3 : ... .. . P82 ... ... : ... .. . ... ... ... : ... .. . ... : ... .. . ... : ... .. . ... ... : ... .. . ... ... : ... .. . ... ... : ... .. . ... ...
ROW F4 : ... .. . P80 ... ... : ... .. 4 ... ... ... : ... .. . ... : ... .. . ... : ... .. . ... ... : ... .. . ... ... : ... .. . ... ... : ... .. . ... ...
ROW F5 : ... .. . P7F ... ... : ... .. . ... ... ... : ... .. . ... : ... .. . ... : ... .. . ... ... : ... .. . ... ... : ... .. . ... ... : ... .. . ... ...
ROW F6 : ... .. . P7D ... ... : D#3 00 8 ... ... ... : ... .. . ... : ... .. . ... : ... .. . ... ... : ... .. . ... ... : ... .. 1 ... ... : C#3 01 1 ... ...
ROW F7 : ... .. . ... ... ... : ... .. 7 ... ... ... : ... .. . ... : ... .. . ... : ... .. . ... ... : ... .. . ... ... : ... .. . ... ... : ... .. . ... ...
ROW F8 : ... .. . P7F ... ... : ... .. 6 ... ... ... : ... .. . ... : ... .. . ... : ... .. . ... ... : ... .. . ... ... : ... .. . ... ... : ... .. . ... ...
ROW F9 : ... .. . P80 ... ... : ... .. 5 ... ... ... : ... .. . ... : ... .. . ... : ... .. . ... ... : ... .. . ... ... : ... .. . ... ... : ... .. . ... ...
ROW FA : ... .. . P82 ... ... : ... .. . ... ... ... : ... .. . ... : ... .. . ... : ... .. . ... ... : ... .. . ... ... : ... .. . ... ... : ... .. . ... ...
ROW FB : ... .. . P83 ... ... : E-3 00 6 ... ... ... : ... .. . ... : ... .. . ... : ... .. . ... ... : ... .. . ... ... : ... .. . ... ... : ... .. . ... ...
ROW FC : ... .. . ... ... ... : ... .. 5 ... ... ... : ... .. . ... : ... .. . ... : ... .. . ... ... : ... .. . ... ... : ... .. . ... ... : ... .. . ... ...
ROW FD : ... .. . P80 ... ... : ... .. . ... ... ... : ... .. . ... : ... .. . ... : ... .. . ... ... : ... .. . ... ... : ... .. . ... ... : ... .. . ... ...
ROW FE : ... .. . P7F ... ... : ... .. 4 ... ... ... : ... .. . ... : ... .. . ... : ... .. . ... ... : ... .. . ... ... : ... .. . ... ... : ... .. . ... ...
ROW FF : ... .. . P7D ... ... : ... .. . ... ... ... : ... .. . ... : ... .. . ... : ... .. . ... ... : ... .. . ... ... : ... .. . ... ... : ... .. . ... ...

PATTERN 0A
ROW 00 : ... .. 8 P80 ... ... : ... .. 0 ... ... ... : B-1 00 . ... : ... .. . ... : ... .. . ... ... : --- .. . P82 ... : ... .. . ... ... : D#3 01 1 ... ...
ROW 01 : ... .. 7 ... ... ... : ... .. . ... ... ... : ... .. . ... : ... .. . ... : ... .. . ... ... : ... .. . ... ... : ... .. . ... ... : ... .. . ... ...
ROW 02 : ... .. 6 ... ... ... : ... .. . ... ... ... : ... .. . ... : ... .. . ... : ... .. . ... ... : ... .. . ... ... : ... .. . ... ... : ... .. . ... ...
ROW 03 : ... .. 5 ... ... ... : ... .. . ... ... ... : ... .. . ... : ... .. . ... : ... .. . ... ... : ... .. . ... ... : ... .. . ... ... : ... .. . ... ...
ROW 04 : ... .. . ... ... ... : ... .. . ... ... ... : ... .. . ... : ... .. . ... : ... .. . ... ... : ... .. . ... ... : ... .. . ... ... : ... .. . ... ...
ROW 05 : ... .. 4 ... ... ... : ... .. . ... ... ... : ... .. . ... : ... .. . ... : ... .. . ... ... : ... .. . ... ... : ... .. . ... ... : ... .. . ... ...
ROW 06 : ... .. . ... ... ... : ... .. . ... ... ... : ... .. . ... : ... .. . ... : ... .. . ... ... : ... .. . ... ... : ... .. . ... ... : ... .. . ... ...
ROW 07 : ... .. . ... ... ... : ... .. . ... ... ... : ... .. . ... : ... .. . ... : ... .. . ... ... : ... .. . ... ... : ... .. . ... ... : ... .. . ... ...
ROW 08 : ... .. . ... ... ... : ... .. . ... ... ... : ... .. . ... : ... .. . ... : ... .. . ... ... : ... .. . ... ... : ... .. . ... ... : ... .. . ... ...
ROW 09 : ... .. . ... ... ... : ... .. . ... ... ... : ... .. . ... : ... .. . ... : ... .. . ... ... : ... .. . ... ... : ... .. . ... ... : ... .. . ... ...
ROW 0A : ... .. 2 ... ... ... : ... .. . ... ... ... : ... .. . ... : ... .. . ... : ... .. . ... ... : ... .. . ... ... : ... .. . ... ... : ... .. . ... ...
ROW 0B : ... .. . ... ... ... : ... .. . ... ... ... : ... .. . ... : ... .. . ... : ... .. . ... ... : ... .. . ... ... : ... .. . ... ... : ... .. . ... ...
ROW 0C : ... .. . ... ... ... : ... .. . ... ... ... : ... .. . ... : ... .. . ... : ... .. . ... ... : ... .. . ... ... : ... .. . ... ... : ... .. . ... ...
ROW 0D : ... .. . ... ... ... : ... .. . ... ... ... : ... .. . ... : ... .. . ... : ... .. . ... ... : ... .. . ... ... : ... .. . ... ... : ... .. . ... ...
ROW 0E : ... .. . ... ... ... : ... .. . ... ... ... : ... .. . ... : ... .. . ... : ... .. . ... ... : ... .. . ... ... : ... .. . ... ... : ... .. . ... ...
ROW 0F : ... .. 1 ... ... ... : ... .. . ... ... ... : ... .. . ... : ... .. . ... : ... .. . ... ... : ... .. . ... ... : ... .. . ... ... : ... .. . ... ...
ROW 10 : ... .. . ... ... ... : ... .. . ... ... ... : ... .. . ... : ... .. . ... : ... .. . ... ... : ... .. . ... ... : ... .. . ... ... : ... .. . ... ...
ROW 11 : ... .. . ... ... ... : ... .. . ... ... ... : ... .. . ... : ... .. . ... : ... .. . ... ... : ... .. . ... ... : ... .. . ... ... : ... .. . ... ...
ROW 12 : ... .. . ... ... ... : ... .. . ... ... ... : ... .. . ... : ... .. . ... : ... .. . ... ... : ... .. . ... ... : ... .. . ... ... : ... .. . ... ...
ROW 13 : ... .. . ... ... ... : ... .. . ... ... ... : ... .. . ... : ... .. . ... : ... .. . ... ... : ... .. . ... ... : ... .. . ... ... : ... .. . ... ...
ROW 14 : ... .. . ... ... ... : ... .. . ... ... ... : --- .. . ... : ... .. . ... : ... .. . ... ... : F#2 01 5 P80 V05 : ... .. 4 ... ... : ... .. 5 ... ...
ROW 15 : ... .. . ... ... ... : ... .. . ... ... ... : ... .. . ... : ... .. . ... : ... .. . ... ... : ... .. 4 ... ... : ... .. . ... ... : ... .. . ... ...
ROW 16 : ... .. . ... ... ... : ... .. . ... ... ... : ... .. . ... : ... .. . ... : ... .. . ... ... : ... .. 3 ... ... : ... .. . ... ... : ... .. . ... ...
ROW 17 : ... .. . ... ... ... : ... .. . ... ... ... : ... .. . ... : ... .. . ... : ... .. . ... ... : ... .. 2 ... ... : ... .. . ... ... : ... .. . ... ...
ROW 18 : ... .. . ... ... ... : ... .. . ... ... ... : ... .. . ... : ... .. . ... : ... .. . ... ... : ... .. . ... ... : ... .. . ... ... : ... .. . ... ...
ROW 19 : ... .. . ... ... ... : ... .. . ... ... ... : ... .. . ... : ... .. . ... : ... .. . ... ... : ... .. 1 ... ... : ... .. 1 ... ... : ... .. 2 ... ...
ROW 1A : ... .. . ... ... ... : ... .. . ... ... ... : ... .. . ... : ... .. . ... : ... .. . ... ... : ... .. . ... ... : ... .. . ... ... : ... .. . ... ...
ROW 1B : ... .. . ... ... ... : ... .. . ... ... ... : ... .. . ... : ... .. . ... : ... .. . ... ... : ... .. . ... ... : ... .. . ... ... : ... .. . ... ...
ROW 1C : ... .. . ... ... ... : ... .. . ... ... ... : ... .. . ... : ... .. . ... : ... .. . ... ... : ... .. . ... ... : ... .. . ... ... : ... .. . ... ...
ROW 1D : ... .. . ... ... ... : ... .. . ... ... ... : ... .. . ... : ... .. . ... : ... .. . ... ... : --- .. . P82 ... : ... .. . ... ... : ... .. . ... ...
ROW 1E : ... .. . ... ... ... : ... .. . ... ... ... : ... .. . ... : ... .. . ... : ... .. . ... ... : F#2 01 5 P80 ... : ... .. 4 ... ... : ... .. 5 ... ...
ROW 1F : ... .. . ... ... ... : ... .. . ... ... ... : ... .. . ... : ... .. . ... : ... .. . ... ... : ... .. 4 ... ... : ... .. . ... ... : ... .. . ... ...
ROW 20 : ... .. . ... ... ... : ... .. . ... ... ... : ... .. . ... : ... .. . ... : ... .. . ... ... : ... .. 3 ... ... : ... .. . ... ... : ... .. . ... ...
ROW 21 : ... .. . ... ... ... : ... .. . ... ... ... : ... .. . ... : ... .. . ... : ... .. . ... ... : ... .. 2 ... ... : ... .. . ... ... : ... .. . ... ...
ROW 22 : ... .. . ... ... ... : ... .. . ... ... ... : ... .. . ... : ... .. . ... : ... .. . ... ... : ... .. . ... ... : ... .. . ... ... : ... .. . ... ...
ROW 23 : ... .. . ... ... ... : ... .. . ... ... ... : ... .. . ... : ... .. . ... : ... .. . ... ... : ... .. 1 ... ... : ... .. 1 ... ... : ... .. 2 ... ...
ROW 24 : ... .. . ... ... ... : ... .. . ... ... ... : ... .. . ... : ... .. . ... : ... .. . ... ... : ... .. . ... ... : ... .. . ... ... : ... .. . ... ...
ROW 25 : ... .. . ... ... ... : ... .. . ... ... ... : ... .. . ... : ... .. . ... : ... .. . ... ... : ... .. . ... ... : ... .. . ... ... : ... .. . ... ...
ROW 26 : ... .. . ... ... ... : ... .. . ... ... ... : ... .. . ... : ... .. . ... : ... .. . ... ... : ... .. . ... ... : ... .. . ... ... : ... .. . ... ...
ROW 27 : ... .. . ... ... ... : ... .. . ... ... ... : ... .. . ... : ... .. . ... : ... .. . ... ... : --- .. . P82 ... : ... .. . ... ... : ... .. . ... ...
ROW 28 : ... .. F ... ... ... : ... .. . ... ... ... : B-2 00 . ... : ... .. . ... : ... .. . ... ... : ... .. . ... ... : ... .. . ... ... : ... .. . ... ...
ROW 29 : ... .. E ... ... ... : ... .. . ... ... ... : ... .. . ... : ... .. . ... : ... .. . ... ... : ... .. . ... ... : ... .. . ... ... : ... .. . ... ...
ROW 2A : ... .. D ... ... ... : ... .. . ... ... ... : ... .. . ... : ... .. . ... : ... .. . ... ... : ... .. . ... ... : ... .. . ... ... : ... .. . ... ...
ROW 2B : ... .. A ... ... ... : ... .. . ... ... ... : ... .. . ... : ... .. . ... : ... .. . ... ... : ... .. . ... ... : ... .. . ... ... : ... .. . ... ...
ROW 2C : ... .. . ... ... ... : ... .. . ... ... ... : ... .. . ... : ... .. . ... : ... .. . ... ... : ... .. . ... ... : ... .. . ... ... : ... .. . ... ...
ROW 2D : ... .. . ... ... ... : ... .. . ... ... ... : ... .. . ... : ... .. . ... : ... .. . ... ... : ... .. . ... ... : ... .. . ... ... : ... .. 1 ... ...
ROW 2E : ... .. . ... ... ... : ... .. . ... ... ... : ... .. . ... : ... .. . ... : ... .. . ... ... : ... .. . ... ... : ... .. . ... ... : ... .. . ... ...
ROW 2F : ... .. . ... ... ... : ... .. . ... ... ... : ... .. . ... : ... .. . ... : ... .. . ... ... : ... .. . ... ... : ... .. . ... ... : ... .. . ... ...
ROW 30 : ... .. . ... ... ... : ... .. . ... ... ... : ... .. . ... : ... .. . ... : ... .. . ... ... : ... .. . ... ... : ... .. . ... ... : ... .. . ... ...
ROW 31 : ... .. . ... ... ... : ... .. . ... ... ... : ... .. . ... : ... .. . ... : ... .. . ... ... : ... .. . ... ... : ... .. . ... ... : ... .. . ... ...
ROW 32 : ... .. . ... ... ... : F#3 00 8 P81 V01 ... : ... .. . ... : ... .. . ... : ... .. . ... ... : ... .. . ... ... : ... .. . ... ... : ... .. . ... ...
ROW 33 : ... .. 2 ... ... ... : ... .. 7 ... ... ... : ... .. . ... : ... .. . ... : ... .. . ... ... : ... .. . ... ... : ... .. . ... ... : ... .. . ... ...
ROW 34 : ... .. . ... ... ... : ... .. 6 ... ... ... : ... .. . ... : ... .. . ... : ... .. . ... ... : ... .. . ... ... : ... .. . ... ... : ... .. . ... ...
ROW 35 : ... .. . ... ... ... : ... .. 5 ... ... ... : ... .. . ... : ... .. . ... : ... .. . ... ... : ... .. . ... ... : ... .. . ... ... : ... .. . ... ...
ROW 36 : ... .. 1 ... ... ... : ... .. . ... ... ... : ... .. . ... : ... .. . ... : ... .. . ... ... : ... .. . ... ... : ... .. . ... ... : ... .. . ... ...
ROW 37 : ... .. . ... ... ... : ... .. . ... ... ... : ... .. . ... : ... .. . ... : ... .. . ... ... : ... .. . ... ... : ... .. . ... ... : ... .. . ... ...
ROW 38 : ... .. . ... ... ... : ... .. . ... ... ... : ... .. . ... : ... .. . ... : ... .. . ... ... : ... .. . ... ... : ... .. . ... ... : ... .. . ... ...
ROW 39 : ... .. 0 ... V00 ... : ... .. . ... ... ... : ... .. . ... : ... .. . ... : ... .. . ... ... : ... .. . ... ... : ... .. . ... ... : ... .. . ... ...
ROW 3A : ... .. . ... ... ... : ... .. . ... ... ... : ... .. . ... : ... .. . ... : ... .. . ... ... : ... .. . ... ... : ... .. . ... ... : ... .. . ... ...
ROW 3B : ... .. . ... ... ... : ... .. . ... ... ... : ... .. . ... : ... .. . ... : ... .. . ... ... : ... .. . ... ... : ... .. . ... ... : ... .. . ... ...
ROW 3C : E-3 00 A P80 V01 ... : ... .. . ... ... ... : --- .. . ... : ... .. . ... : ... .. . ... ... : F#2 01 5 P80 ... : ... .. 4 ... ... : ... .. 5 ... ...
ROW 3D : ... .. 9 ... ... ... : ... .. 1 ... ... ... : ... .. . ... : ... .. . ... : ... .. . ... ... : ... .. 4 ... ... : ... .. . ... ... : ... .. . ... ...
ROW 3E : ... .. 8 ... ... ... : ... .. . ... ... ... : ... .. . ... : ... .. . ... : ... .. . ... ... : ... .. 3 ... ... : ... .. . ... ... : ... .. . ... ...
ROW 3F : ... .. 6 ... ... ... : ... .. . ... ... ... : ... .. . ... : ... .. . ... : ... .. . ... ... : ... .. 2 ... ... : ... .. . ... ... : ... .. . ... ...
ROW 40 : ... .. . ... ... ... : ... .. . ... ... ... : ... .. . ... : ... .. . ... : ... .. . ... ... : ... .. . ... ... : ... .. . ... ... : ... .. . ... ...
ROW 41 : ... .. . ... ... ... : ... .. . ... ... ... : ... .. . ... : ... .. . ... : ... .. . ... ... : ... .. 1 ... ... : ... .. 1 ... ... : ... .. 2 ... ...
ROW 42 : ... .. 1 ... ... ... : ... .. . ... ... ... : ... .. . ... : ... .. . ... : ... .. . ... ... : ... .. . ... ... : ... .. . ... ... : ... .. . ... ...
ROW 43 : ... .. . ... ... ... : ... .. 0 ... V00 ... : ... .. . ... : ... .. . ... : ... .. . ... ... : ... .. . ... ... : ... .. . ... ... : ... .. . ... ...
ROW 44 : ... .. . ... ... ... : ... .. . ... ... ... : ... .. . ... : ... .. . ... : ... .. . ... ... : ... .. . ... ... : ... .. . ... ... : ... .. . ... ...
ROW 45 : ... .. . ... ... ... : ... .. . ... ... ... : ... .. . ... : ... .. . ... : ... .. . ... ... : --- .. . P82 ... : ... .. . ... ... : ... .. . ... ...
ROW 46 : D#3 00 A ... ... ... : E-3 00 4 P81 V01 ... : ... .. . ... : ... .. . ... : ... .. . ... ... : F#2 01 5 P80 ... : ... .. 4 ... ... : ... .. 5 ... ...
ROW 47 : ... .. 9 ... ... ... : ... .. 3 ... ... ... : ... .. . ... : ... .. . ... : ... .. . ... ... : ... .. 4 ... ... : ... .. . ... ... : ... .. . ... ...
ROW 48 : ... .. 8 ... ... ... : ... .. . ... ... ... : ... .. . ... : ... .. . ... : ... .. . ... ... : ... .. 3 ... ... : ... .. . ... ... : ... .. . ... ...
ROW 49 : ... .. 6 ... ... ... : ... .. 2 ... ... ... : ... .. . ... : ... .. . ... : ... .. . ... ... : ... .. 2 ... ... : ... .. . ... ... : ... .. . ... ...
ROW 4A : ... .. . ... ... ... : ... .. . ... ... ... : ... .. . ... : ... .. . ... : ... .. . ... ... : ... .. . ... ... : ... .. . ... ... : ... .. . ... ...
ROW 4B : ... .. . ... ... ... : ... .. . ... ... ... : ... .. . ... : ... .. . ... : ... .. . ... ... : ... .. 1 ... ... : ... .. 1 ... ... : ... .. 2 ... ...
ROW 4C : ... .. 1 ... ... ... : ... .. 1 ... ... ... : ... .. . ... : ... .. . ... : ... .. . ... ... : ... .. . ... ... : ... .. . ... ... : ... .. . ... ...
ROW 4D : ... .. . ... ... ... : ... .. . ... ... ... : ... .. . ... : ... .. . ... : ... .. . ... ... : ... .. . ... ... : ... .. . ... ... : ... .. . ... ...
ROW 4E : ... .. . ... ... ... : ... .. . ... ... ... : ... .. . ... : ... .. . ... : ... .. . ... ... : ... .. . ... ... : ... .. . ... ... : ... .. . ... ...
ROW 4F : ... .. . ... ... ... : ... .. . ... ... ... : ... .. . ... : ... .. . ... : ... .. . ... ... : --- .. . P82 ... : ... .. . ... ... : ... .. . ... ...
ROW 50 : C#3 00 F ... ... ... : D#3 00 4 ... ... ... : F#2 00 . ... : ... .. . ... : ... .. . ... ... : ... .. . ... ... : C#3 01 1 ... ... : E-3 01 1 ... ...
ROW 51 : ... .. E ... ... ... : ... .. 3 ... ... ... : ... .. . ... : ... .. . ... : ... .. . ... ... : ... .. . ... ... : ... .. . ... ... : ... .. . ... ...
ROW 52 : ... .. D ... ... ... : ... .. . ... ... ... : ... .. . ... : ... .. . ... : ... .. . ... ... : ... .. . ... ... : ... .. . ... ... : ... .. . ... ...
ROW 53 : ... .. A ... ... ... : ... .. 2 ... ... ... : ... .. . ... : ... .. . ... : ... .. . ... ... : ... .. . ... ... : ... .. . ... ... : ... .. . ... ...
ROW 54 : ... .. . ... ... ... : ... .. . ... ... ... : ... .. . ... : ... .. . ... : ... .. . ... ... : ... .. . ... ... : ... .. . ... ... : ... .. . ... ...
ROW 55 : ... .. . ... ... ... : ... .. . ... ... ... : ... .. . ... : ... .. . ... : ... .. . ... ... : ... .. . ... ... : ... .. . ... ... : ... .. . ... ...
ROW 56 : ... .. . ... ... ... : ... .. 1 ... ... ... : ... .. . ... : ... .. . ... : ... .. . ... ... : ... .. . ... ... : ... .. . ... ... : ... .. . ... ...
ROW 57 : ... .. . ... ... ... : ... .. . ... ... ... : ... .. . ... : ... .. . ... : ... .. . ... ... : ... .. . ... ... : ... .. . ... ... : ... .. . ... ...
ROW 58 : ... .. . ... ... ... : ... .. . ... ... ... : ... .. . ... : ... .. . ... : ... .. . ... ... : ... .. . ... ... : ... .. . ... ... : ... .. . ... ...
ROW 59 : ... .. . ... ... ... : ... .. . ... ... ... : ... .. . ... : ... .. . ... : ... .. . ... ... : ... .. . ... ... : ... .. . ... ... : ... .. . ... ...
ROW 5A : ... .. . ... ... ... : C#3 00 8 ... ... ... : ... .. . ... : ... .. . ... : ... .. . ... ... : ... .. . ... ... : ... .. . ... ... : ... .. . ... ...
ROW 5B : ... .. 2 ... ... ... : ... .. 7 ... ... ... : ... .. . ... : ... .. . ... : ... .. . ... ... : ... .. . ... ... : ... .. . ... ... : ... .. . ... ...
ROW 5C : ... .. . ... ... ... : ... .. 6 ... ... ... : ... .. . ... : ... .. . ... : ... .. . ... ... : ... .. . ... ... : ... .. . ... ... : ... .. . ... ...
ROW 5D : ... .. . ... ... ... : ... .. 5 ... ... ... : ... .. . ... : ... .. . ... : ... .. . ... ... : ... .. . ... ... : ... .. . ... ... : ... .. . ... ...
ROW 5E : ... .. 1 ... ... ... : ... .. . ... ... ... : ... .. . ... : ... .. . ... : ... .. . ... ... : ... .. . ... ... : ... .. . ... ... : ... .. . ... ...
ROW 5F : ... .. . ... ... ... : ... .. . ... ... ... : ... .. . ... : ... .. . ... : ... .. . ... ... : ... .. . ... ... : ... .. . ... ... : ... .. . ... ...
ROW 60 : ... .. . ... ... ... : ... .. . ... ... ... : ... .. . ... : ... .. . ... : ... .. . ... ... : ... .. . ... ... : ... .. . ... ... : ... .. . ... ...
ROW 61 : ... .. 0 ... V00 ... : ... .. . ... ... ... : ... .. . ... : ... .. . ... : ... .. . ... ... : ... .. . ... ... : ... .. . ... ... : ... .. . ... ...
ROW 62 : ... .. . ... ... ... : ... .. . ... ... ... : ... .. . ... : ... .. . ... : ... .. . ... ... : ... .. . ... ... : ... .. . ... ... : ... .. . ... ...
ROW 63 : ... .. . ... ... ... : ... .. . ... ... ... : ... .. . ... : ... .. . ... : ... .. . ... ... : ... .. . ... ... : ... .. . ... ... : ... .. . ... ...
ROW 64 : F#2 00 F P80 V01 ... : ... .. . ... ... ... : --- .. . ... : ... .. . ... : ... .. . ... ... : A-2 01 5 P80 ... : ... .. 4 ... ... : ... .. 5 ... ...
ROW 65 : ... .. E ... ... ... : ... .. 1 ... ... ... : ... .. . ... : ... .. . ... : ... .. . ... ... : ... .. 4 ... ... : ... .. . ... ... : ... .. . ... ...
ROW 66 : ... .. D ... ... ... : ... .. . ... ... ... : ... .. . ... : ... .. . ... : ... .. . ... ... : ... .. 3 ... ... : ... .. . ... ... : ... .. . ... ...
ROW 67 : ... .. A ... ... ... : ... .. . ... ... ... : ... .. . ... : ... .. . ... : ... .. . ... ... : ... .. 2 ... ... : ... .. . ... ... : ... .. . ... ...
ROW 68 : ... .. . ... ... ... : ... .. . ... ... ... : ... .. . ... : ... .. . ... : ... .. . ... ... : ... .. . ... ... : ... .. . ... ... : ... .. . ... ...
ROW 69 : ... .. . ... ... ... : ... .. . ... ... ... : ... .. . ... : ... .. . ... : ... .. . ... ... : ... .. 1 ... ... : ... .. 1 ... ... : ... .. 2 ... ...
ROW 6A : ... .. . ... ... ... : ... .. . ... ... ... : ... .. . ... : ... .. . ... : ... .. . ... ... : ... .. . ... ... : ... .. . ... ... : ... .. . ... ...
ROW 6B : ... .. . ... ... ... : ... .. 0 ... V00 ... : ... .. . ... : ... .. . ... : ... .. . ... ... : ... .. . ... ... : ... .. . ... ... : ... .. . ... ...
ROW 6C : ... .. . ... ... ... : ... .. . ... ... ... : ... .. . ... : ... .. . ... : ... .. . ... ... : ... .. . ... ... : ... .. . ... ... : ... .. . ... ...
ROW 6D : ... .. . ... ... ... : ... .. . ... ... ... : ... .. . ... : ... .. . ... : ... .. . ... ... : --- .. . P82 ... : ... .. . ... ... : ... .. . ... ...
ROW 6E : ... .. . ... ... ... : F#2 00 8 P81 V01 ... : ... .. . ... : ... .. . ... : ... .. . ... ... : A-2 01 5 P80 ... : ... .. 4 ... ... : ... .. 5 ... ...
ROW 6F : ... .. 2 ... ... ... : ... .. 7 ... ... ... : ... .. . ... : ... .. . ... : ... .. . ... ... : ... .. 4 ... ... : ... .. . ... ... : ... .. . ... ...
ROW 70 : ... .. . ... ... ... : ... .. 6 ... ... ... : ... .. . ... : ... .. . ... : ... .. . ... ... : ... .. 3 ... ... : ... .. . ... ... : ... .. . ... ...
ROW 71 : ... .. . ... ... ... : ... .. 5 ... ... ... : ... .. . ... : ... .. . ... : ... .. . ... ... : ... .. 2 ... ... : ... .. . ... ... : ... .. . ... ...
ROW 72 : ... .. 1 ... ... ... : ... .. . ... ... ... : ... .. . ... : ... .. . ... : ... .. . ... ... : ... .. . ... ... : ... .. . ... ... : ... .. . ... ...
ROW 73 : ... .. . ... ... ... : ... .. . ... ... ... : ... .. . ... : ... .. . ... : ... .. . ... ... : ... .. 1 ... ... : ... .. 1 ... ... : ... .. 2 ... ...
ROW 74 : ... .. . ... ... ... : ... .. . ... ... ... : ... .. . ... : ... .. . ... : ... .. . ... ... : ... .. . ... ... : ... .. . ... ... : ... .. . ... ...
ROW 75 : ... .. 0 ... V00 ... : ... .. . ... ... ... : ... .. . ... : ... .. . ... : ... .. . ... ... : ... .. . ... ... : ... .. . ... ... : ... .. . ... ...
ROW 76 : ... .. . ... ... ... : ... .. . ... ... ... : ... .. . ... : ... .. . ... : ... .. . ... ... : ... .. . ... ... : ... .. . ... ... : ... .. . ... ...
ROW 77 : ... .. . ... ... ... : ... .. . ... ... ... : ... .. . ... : ... .. . ... : ... .. . ... ... : --- .. . P82 ... : ... .. . ... ... : ... .. . ... ...
ROW 78 : F#3 00 6 P80 V01 ... : ... .. . ... ... ... : F#2 00 . ... : ... .. . ... : ... .. . ... ... : ... .. . ... ... : ... .. . ... ... : ... .. . ... ...
ROW 79 : ... .. 5 ... ... ... : ... .. 1 ... ... ... : ... .. . ... : ... .. . ... : ... .. . ... ... : ... .. . ... ... : ... .. . ... ... : ... .. . ... ...
ROW 7A : ... .. . ... ... ... : ... .. . ... ... ... : ... .. . ... : ... .. . ... : ... .. . ... ... : ... .. . ... ... : ... .. . ... ... : ... .. . ... ...
ROW 7B : ... .. . ... ... ... : ... .. . ... ... ... : ... .. . ... : ... .. . ... : ... .. . ... ... : ... .. . ... ... : ... .. . ... ... : ... .. . ... ...
ROW 7C : ... .. 4 ... ... ... : ... .. . ... ... ... : ... .. . ... : ... .. . ... : ... .. . ... ... : ... .. . ... ... : ... .. . ... ... : ... .. . ... ...
ROW 7D : ... .. 3 ... ... ... : ... .. . ... ... ... : ... .. . ... : ... .. . ... : ... .. . ... ... : ... .. . ... ... : ... .. . ... ... : ... .. 1 ... ...
ROW 7E : ... .. . ... ... ... : ... .. . ... ... ... : ... .. . ... : ... .. . ... : ... .. . ... ... : ... .. . ... ... : ... .. . ... ... : ... .. . ... ...
ROW 7F : ... .. . ... ... ... : ... .. 0 ... V00 ... : ... .. . ... : ... .. . ... : ... .. . ... ... : ... .. . ... ... : ... .. . ... ... : ... .. . ... ...
ROW 80 : ... .. 2 ... ... ... : ... .. . ... ... ... : ... .. . ... : ... .. . ... : ... .. . ... ... : ... .. . ... ... : ... .. . ... ... : ... .. . ... ...
ROW 81 : ... .. . ... ... ... : ... .. . ... ... ... : ... .. . ... : ... .. . ... : ... .. . ... ... : ... .. . ... ... : ... .. . ... ... : ... .. . ... ...
ROW 82 : A-3 00 6 ... ... ... : F#3 00 1 P81 V01 ... : ... .. . ... : ... .. . ... : ... .. . ... ... : ... .. . ... ... : ... .. . ... ... : ... .. . ... ...
ROW 83 : ... .. 5 ... ... ... : ... .. . ... ... ... : ... .. . ... : ... .. . ... : ... .. . ... ... : ... .. . ... ... : ... .. . ... ... : ... .. . ... ...
ROW 84 : ... .. . ... ... ... : ... .. . ... ... ... : ... .. . ... : ... .. . ... : ... .. . ... ... : ... .. . ... ... : ... .. . ... ... : ... .. . ... ...
ROW 85 : ... .. . ... ... ... : ... .. . ... ... ... : ... .. . ... : ... .. . ... : ... .. . ... ... : ... .. . ... ... : ... .. . ... ... : ... .. . ... ...
ROW 86 : ... .. 4 ... ... ... : ... .. . ... ... ... : ... .. . ... : ... .. . ... : ... .. . ... ... : ... .. . ... ... : ... .. . ... ... : ... .. . ... ...
ROW 87 : ... .. 3 ... ... ... : ... .. . ... ... ... : ... .. . ... : ... .. . ... : ... .. . ... ... : ... .. . ... ... : ... .. . ... ... : ... .. . ... ...
ROW 88 : ... .. . ... ... ... : ... .. . ... ... ... : ... .. . ... : ... .. . ... : ... .. . ... ... : ... .. . ... ... : ... .. . ... ... : ... .. . ... ...
ROW 89 : ... .. . ... ... ... : ... .. . ... ... ... : ... .. . ... : ... .. . ... : ... .. . ... ... : ... .. . ... ... : ... .. . ... ... : ... .. . ... ...
ROW 8A : ... .. 2 ... ... ... : ... .. . ... ... ... : ... .. . ... : ... .. . ... : ... .. . ... ... : ... .. . ... ... : ... .. . ... ... : ... .. . ... ...
ROW 8B : ... .. . ... ... ... : ... .. . ... ... ... : ... .. . ... : ... .. . ... : ... .. . ... ... : ... .. . ... ... : ... .. . ... ... : ... .. . ... ...
ROW 8C : C#4 00 6 ... ... ... : A-3 00 1 ... ... ... : --- .. . ... : ... .. . ... : ... .. . ... ... : A-2 01 5 P80 ... : ... .. 4 ... ... : ... .. 5 ... ...
ROW 8D : ... .. 5 ... ... ... : ... .. . ... ... ... : ... .. . ... : ... .. . ... : ... .. . ... ... : ... .. 4 ... ... : ... .. . ... ... : ... .. . ... ...
ROW 8E : ... .. . ... ... ... : ... .. . ... ... ... : ... .. . ... : ... .. . ... : ... .. . ... ... : ... .. 3 ... ... : ... .. . ... ... : ... .. . ... ...
ROW 8F : ... .. . ... ... ... : ... .. . ... ... ... : ... .. . ... : ... .. . ... : ... .. . ... ... : ... .. 2 ... ... : ... .. . ... ... : ... .. . ... ...
ROW 90 : ... .. 4 ... ... ... : ... .. . ... ... ... : ... .. . ... : ... .. . ... : ... .. . ... ... : ... .. . ... ... : ... .. . ... ... : ... .. . ... ...
ROW 91 : ... .. 3 ... ... ... : ... .. . ... ... ... : ... .. . ... : ... .. . ... : ... .. . ... ... : ... .. 1 ... ... : ... .. 1 ... ... : ... .. 2 ... ...
ROW 92 : ... .. . ... ... ... : ... .. . ... ... ... : ... .. . ... : ... .. . ... : ... .. . ... ... : ... .. . ... ... : ... .. . ... ... : ... .. . ... ...
ROW 93 : ... .. . ... ... ... : ... .. . ... ... ... : ... .. . ... : ... .. . ... : ... .. . ... ... : ... .. . ... ... : ... .. . ... ... : ... .. . ... ...
ROW 94 : ... .. 2 ... ... ... : ... .. . ... ... ... : ... .. . ... : ... .. . ... : ... .. . ... ... : ... .. . ... ... : ... .. . ... ... : ... .. . ... ...
ROW 95 : ... .. . ... ... ... : ... .. . ... ... ... : ... .. . ... : ... .. . ... : ... .. . ... ... : --- .. . P82 ... : ... .. . ... ... : ... .. . ... ...
ROW 96 : F#4 00 6 ... ... ... : C#4 00 1 ... ... ... : ... .. . ... : ... .. . ... : ... .. . ... ... : A-2 01 5 P80 ... : ... .. 4 ... ... : ... .. 5 ... ...
ROW 97 : ... .. 5 ... ... ... : ... .. . ... ... ... : ... .. . ... : ... .. . ... : ... .. . ... ... : ... .. 4 ... ... : ... .. . ... ... : ... .. . ... ...
ROW 98 : ... .. . ... ... ... : ... .. . ... ... ... : ... .. . ... : ... .. . ... : ... .. . ... ... : ... .. 3 ... ... : ... .. . ... ... : ... .. . ... ...
ROW 99 : ... .. . ... ... ... : ... .. . ... ... ... : ... .. . ... : ... .. . ... : ... .. . ... ... : ... .. 2 ... ... : ... .. . ... ... : ... .. . ... ...
ROW 9A : ... .. 4 ... ... ... : ... .. . ... ... ... : ... .. . ... : ... .. . ... : ... .. . ... ... : ... .. . ... ... : ... .. . ... ... : ... .. . ... ...
ROW 9B : ... .. 3 ... ... ... : ... .. . ... ... ... : ... .. . ... : ... .. . ... : ... .. . ... ... : ... .. 1 ... ... : ... .. 1 ... ... : ... .. 2 ... ...
ROW 9C : ... .. . ... ... ... : ... .. . ... ... ... : ... .. . ... : ... .. . ... : ... .. . ... ... : ... .. . ... ... : ... .. . ... ... : ... .. . ... ...
ROW 9D : ... .. . ... ... ... : ... .. . ... ... ... : ... .. . ... : ... .. . ... : ... .. . ... ... : ... .. . ... ... : ... .. . ... ... : ... .. . ... ...
ROW 9E : ... .. 2 ... ... ... : ... .. . ... ... ... : ... .. . ... : ... .. . ... : ... .. . ... ... : ... .. . ... ... : ... .. . ... ... : ... .. . ... ...
ROW 9F : ... .. . ... ... ... : ... .. . ... ... ... : ... .. . ... : ... .. . ... : ... .. . ... ... : --- .. . P82 ... : ... .. . ... ... : ... .. . ... ...
ROW A0 : E-4 00 4 ... ... ... : F#4 00 1 ... ... ... : A-2 00 . ... : ... .. . ... : ... .. . ... ... : ... .. . ... ... : B-2 01 1 ... ... : C#3 01 1 ... ...
ROW A1 : ... .. 3 ... ... ... : ... .. . ... ... ... : ... .. . ... : ... .. . ... : ... .. . ... ... : ... .. . ... ... : ... .. . ... ... : ... .. . ... ...
ROW A2 : ... .. . ... ... ... : ... .. . ... ... ... : ... .. . ... : ... .. . ... : ... .. . ... ... : ... .. . ... ... : ... .. . ... ... : ... .. . ... ...
ROW A3 : ... .. 2 ... ... ... : ... .. . ... ... ... : ... .. . ... : ... .. . ... : ... .. . ... ... : ... .. . ... ... : ... .. . ... ... : ... .. . ... ...
ROW A4 : ... .. . ... ... ... : ... .. . ... ... ... : ... .. . ... : ... .. . ... : ... .. . ... ... : ... .. . ... ... : ... .. . ... ... : ... .. . ... ...
ROW A5 : ... .. . ... ... ... : ... .. . ... ... ... : ... .. . ... : ... .. . ... : ... .. . ... ... : ... .. . ... ... : ... .. . ... ... : ... .. . ... ...
ROW A6 : ... .. . ... ... ... : ... .. . ... ... ... : ... .. . ... : ... .. . ... : ... .. . ... ... : ... .. . ... ... : ... .. . ... ... : ... .. . ... ...
ROW A7 : ... .. . ... ... ... : ... .. . ... ... ... : ... .. . ... : ... .. . ... : ... .. . ... ... : ... .. . ... ... : ... .. . ... ... : ... .. . ... ...
ROW A8 : ... .. . ... ... ... : ... .. . ... ... ... : ... .. . ... : ... .. . ... : ... .. . ... ... : ... .. . ... ... : ... .. . ... ... : ... .. . ... ...
ROW A9 : ... .. . ... ... ... : ... .. . ... ... ... : ... .. . ... : ... .. . ... : ... .. . ... ... : ... .. . ... ... : ... .. . ... ... : ... .. . ... ...
ROW AA : ... .. 3 ... ... ... : E-4 00 1 ... ... ... : ... .. . ... : ... .. . ... : ... .. . ... ... : ... .. . ... ... : ... .. . ... ... : ... .. . ... ...
ROW AB : ... .. . ... ... ... : ... .. . ... ... ... : ... .. . ... : ... .. . ... : ... .. . ... ... : ... .. . ... ... : ... .. . ... ... : ... .. . ... ...
ROW AC : ... .. . ... ... ... : ... .. . ... ... ... : ... .. . ... : ... .. . ... : ... .. . ... ... : ... .. . ... ... : ... .. . ... ... : ... .. . ... ...
ROW AD : ... .. . ... ... ... : ... .. . ... ... ... : ... .. . ... : ... .. . ... : ... .. . ... ... : ... .. . ... ... : ... .. . ... ... : ... .. . ... ...
ROW AE : ... .. . ... ... ... : ... .. . ... ... ... : ... .. . ... : ... .. . ... : ... .. . ... ... : ... .. . ... ... : ... .. . ... ... : ... .. . ... ...
ROW AF : ... .. . ... ... ... : ... .. . ... ... ... : ... .. . ... : ... .. . ... : ... .. . ... ... : ... .. . ... ... : ... .. . ... ... : ... .. . ... ...
ROW B0 : ... .. . ... ... ... : ... .. . ... ... ... : ... .. . ... : ... .. . ... : ... .. . ... ... : ... .. . ... ... : ... .. . ... ... : ... .. . ... ...
ROW B1 : ... .. . ... ... ... : ... .. . ... ... ... : ... .. . ... : ... .. . ... : ... .. . ... ... : ... .. . ... ... : ... .. . ... ... : ... .. . ... ...
ROW B2 : ... .. . ... ... ... : ... .. . ... ... ... : ... .. . ... : ... .. . ... : ... .. . ... ... : ... .. . ... ... : ... .. . ... ... : ... .. . ... ...
ROW B3 : ... .. . ... ... ... : ... .. . ... ... ... : ... .. . ... : ... .. . ... : ... .. . ... ... : ... .. . ... ... : ... .. . ... ... : ... .. . ... ...
ROW B4 : ... .. 4 ... ... ... : ... .. . ... ... ... : --- .. . ... : ... .. . ... : ... .. . ... ... : A-2 01 5 P80 ... : ... .. 4 ... ... : ... .. 5 ... ...
ROW B5 : ... .. . ... ... ... : ... .. . ... ... ... : ... .. . ... : ... .. . ... : ... .. . ... ... : ... .. 4 ... ... : ... .. . ... ... : ... .. . ... ...
ROW B6 : ... .. . ... ... ... : ... .. . ... ... ... : ... .. . ... : ... .. . ... : ... .. . ... ... : ... .. 3 ... ... : ... .. . ... ... : ... .. . ... ...
ROW B7 : ... .. . ... ... ... : ... .. . ... ... ... : ... .. . ... : ... .. . ... : ... .. . ... ... : ... .. 2 ... ... : ... .. . ... ... : ... .. . ... ...
ROW B8 : ... .. . ... ... ... : ... .. . ... ... ... : ... .. . ... : ... .. . ... : ... .. . ... ... : ... .. . ... ... : ... .. . ... ... : ... .. . ... ...
ROW B9 : ... .. . P83 ... ... : ... .. . ... ... ... : ... .. . ... : ... .. . ... : ... .. . ... ... : ... .. 1 ... ... : ... .. 1 ... ... : ... .. 2 ... ...
ROW BA : ... .. . P85 ... ... : ... .. . ... ... ... : ... .. . ... : ... .. . ... : ... .. . ... ... : ... .. . ... ... : ... .. . ... ... : ... .. . ... ...
ROW BB : F-4 00 4 P7C ... ... : ... .. . ... ... ... : ... .. . ... : ... .. . ... : ... .. . ... ... : ... .. . ... ... : ... .. . ... ... : ... .. . ... ...
ROW BC : ... .. . ... ... ... : ... .. . ... ... ... : ... .. . ... : ... .. . ... : ... .. . ... ... : ... .. . ... ... : ... .. . ... ... : ... .. . ... ...
ROW BD : E-4 00 4 P83 ... ... : ... .. . ... ... ... : ... .. . ... : ... .. . ... : ... .. . ... ... : --- .. . P82 ... : ... .. . ... ... : ... .. . ... ...
ROW BE : ... .. . P80 ... ... : ... .. . ... ... ... : ... .. . ... : ... .. . ... : ... .. . ... ... : A-2 01 5 P80 ... : ... .. 4 ... ... : ... .. 5 ... ...
ROW BF : ... .. . P7E ... ... : ... .. . ... ... ... : ... .. . ... : ... .. . ... : ... .. . ... ... : ... .. 4 ... ... : ... .. . ... ... : ... .. . ... ...
ROW C0 : ... .. . P7C ... ... : ... .. . ... ... ... : ... .. . ... : ... .. . ... : ... .. . ... ... : ... .. 3 ... ... : ... .. . ... ... : ... .. . ... ...
ROW C1 : D#4 00 4 P84 ... ... : ... .. . ... ... ... : ... .. . ... : ... .. . ... : ... .. . ... ... : ... .. 2 ... ... : ... .. . ... ... : ... .. . ... ...
ROW C2 : ... .. . ... ... ... : ... .. . ... ... ... : ... .. . ... : ... .. . ... : ... .. . ... ... : ... .. . ... ... : ... .. . ... ... : ... .. . ... ...
ROW C3 : E-4 00 5 P7C ... ... : ... .. . P84 ... ... : ... .. . ... : ... .. . ... : ... .. . ... ... : ... .. 1 ... ... : ... .. 1 ... ... : ... .. 2 ... ...
ROW C4 : ... .. . P7E ... ... : F-4 00 1 P7C ... ... : ... .. . ... : ... .. . ... : ... .. . ... ... : ... .. . ... ... : ... .. . ... ... : ... .. . ... ...
ROW C5 : ... .. . P80 ... ... : ... .. . P7D ... ... : ... .. . ... : ... .. . ... : ... .. . ... ... : ... .. . ... ... : ... .. . ... ... : ... .. . ... ...
ROW C6 : ... .. . P83 ... ... : ... .. . ... ... ... : ... .. . ... : ... .. . ... : ... .. . ... ... : ... .. . ... ... : ... .. . ... ... : ... .. . ... ...
ROW C7 : F-4 00 5 P7C ... ... : E-4 00 1 P84 ... ... : ... .. . ... : ... .. . ... : ... .. . ... ... : --- .. . P82 ... : ... .. . ... ... : ... .. . ... ...
ROW C8 : E-3 00 9 P80 ... ... : ... .. . P81 ... ... : A-1 00 . ... : ... .. . ... : ... .. . ... ... : ... .. . ... ... : ... .. . ... ... : ... .. . ... ...
ROW C9 : ... .. 8 ... ... ... : ... .. . P7F ... ... : ... .. . ... : ... .. . ... : ... .. . ... ... : ... .. . ... ... : ... .. . ... ... : ... .. . ... ...
ROW CA : ... .. 7 ... ... ... : ... .. . P7D ... ... : ... .. . ... : ... .. . ... : ... .. . ... ... : ... .. . ... ... : ... .. . ... ... : ... .. . ... ...
ROW CB : ... .. 6 ... ... ... : D#4 00 1 P85 ... ... : ... .. . ... : ... .. . ... : ... .. . ... ... : ... .. . ... ... : ... .. . ... ... : ... .. . ... ...
ROW CC : ... .. . ... ... ... : ... .. . ... ... ... : ... .. . ... : ... .. . ... : ... .. . ... ... : ... .. . ... ... : ... .. . ... ... : ... .. . ... ...
ROW CD : ... .. . ... ... ... : E-4 00 1 P7D ... ... : ... .. . ... : ... .. . ... : ... .. . ... ... : ... .. . ... ... : ... .. . ... ... : ... .. 1 ... ...
ROW CE : ... .. . ... ... ... : ... .. . P7F ... ... : ... .. . ... : ... .. . ... : ... .. . ... ... : ... .. . ... ... : ... .. . ... ... : ... .. . ... ...
ROW CF : ... .. . ... ... ... : ... .. . P81 ... ... : ... .. . ... : ... .. . ... : ... .. . ... ... : ... .. . ... ... : ... .. . ... ... : ... .. . ... ...
ROW D0 : ... .. . ... ... ... : ... .. . P84 ... ... : ... .. . ... : ... .. . ... : ... .. . ... ... : ... .. . ... ... : ... .. . ... ... : ... .. . ... ...
ROW D1 : ... .. . ... ... ... : F-4 00 1 P7D ... ... : ... .. . ... : ... .. . ... : ... .. . ... ... : ... .. . ... ... : ... .. . ... ... : ... .. . ... ...
ROW D2 : ... .. . ... ... ... : E-3 00 2 P81 ... ... : ... .. . ... : ... .. . ... : ... .. . ... ... : ... .. . ... ... : ... .. . ... ... : ... .. . ... ...
ROW D3 : ... .. 1 ... ... ... : ... .. 1 ... ... ... : ... .. . ... : ... .. . ... : ... .. . ... ... : ... .. . ... ... : ... .. . ... ... : ... .. . ... ...
ROW D4 : ... .. . ... ... ... : ... .. . ... ... ... : ... .. . ... : ... .. . ... : ... .. . ... ... : ... .. . ... ... : ... .. . ... ... : ... .. . ... ...
ROW D5 : ... .. . ... ... ... : ... .. . ... ... ... : ... .. . ... : ... .. . ... : ... .. . ... ... : ... .. . ... ... : ... .. . ... ... : ... .. . ... ...
ROW D6 : ... .. . ... ... ... : ... .. . ... ... ... : ... .. . ... : ... .. . ... : ... .. . ... ... : ... .. . ... ... : ... .. . ... ... : ... .. . ... ...
ROW D7 : ... .. . ... ... ... : ... .. . ... ... ... : ... .. . ... : ... .. . ... : ... .. . ... ... : ... .. . ... ... : ... .. . ... ... : ... .. . ... ...
ROW D8 : ... .. . ... ... ... : ... .. . ... ... ... : ... .. . ... : ... .. . ... : ... .. . ... ... : ... .. . ... ... : ... .. . ... ... : ... .. . ... ...
ROW D9 : ... .. 0 ... V00 ... : ... .. . ... ... ... : ... .. . ... : ... .. . ... : ... .. . ... ... : ... .. . ... ... : ... .. . ... ... : ... .. . ... ...
ROW DA : ... .. . ... ... ... : ... .. . ... ... ... : ... .. . ... : ... .. . ... : ... .. . ... ... : ... .. . ... ... : ... .. . ... ... : ... .. . ... ...
ROW DB : ... .. . ... ... ... : ... .. . ... ... ... : ... .. . ... : ... .. . ... : ... .. . ... ... : ... .. . ... ... : ... .. . ... ... : ... .. . ... ...
ROW DC : D#3 00 B P80 V01 ... : ... .. 2 ... ... ... : --- .. . ... : ... .. . ... : ... .. . ... ... : A-2 01 5 P80 ... : ... .. 4 ... ... : ... .. 5 ... ...
ROW DD : ... .. A ... ... ... : ... .. 1 ... ... ... : ... .. . ... : ... .. . ... : ... .. . ... ... : ... .. 4 ... ... : ... .. . ... ... : ... .. . ... ...
ROW DE : ... .. 9 ... ... ... : ... .. . ... ... ... : ... .. . ... : ... .. . ... : ... .. . ... ... : ... .. 3 ... ... : ... .. . ... ... : ... .. . ... ...
ROW DF : ... .. 7 ... ... ... : ... .. . ... ... ... : ... .. . ... : ... .. . ... : ... .. . ... ... : ... .. 2 ... ... : ... .. . ... ... : ... .. . ... ...
ROW E0 : ... .. . ... ... ... : ... .. . ... ... ... : ... .. . ... : ... .. . ... : ... .. . ... ... : ... .. . ... ... : ... .. . ... ... : ... .. . ... ...
ROW E1 : ... .. 8 ... ... ... : ... .. . ... ... ... : ... .. . ... : ... .. . ... : ... .. . ... ... : ... .. 1 ... ... : ... .. 1 ... ... : ... .. 2 ... ...
ROW E2 : ... .. 1 ... ... ... : ... .. . ... ... ... : ... .. . ... : ... .. . ... : ... .. . ... ... : ... .. . ... ... : ... .. . ... ... : ... .. . ... ...
ROW E3 : ... .. . ... ... ... : ... .. 0 ... V00 ... : ... .. . ... : ... .. . ... : ... .. . ... ... : ... .. . ... ... : ... .. . ... ... : ... .. . ... ...
ROW E4 : ... .. . ... ... ... : ... .. . ... ... ... : ... .. . ... : ... .. . ... : ... .. . ... ... : ... .. . ... ... : ... .. . ... ... : ... .. . ... ...
ROW E5 : ... .. . ... ... ... : ... .. . ... ... ... : ... .. . ... : ... .. . ... : ... .. . ... ... : --- .. . P82 ... : ... .. . ... ... : ... .. . ... ...
ROW E6 : C#3 00 C ... ... ... : D#3 00 4 P81 V01 ... : ... .. . ... : ... .. . ... : ... .. . ... ... : A-2 01 5 P80 ... : ... .. 4 ... ... : ... .. 5 ... ...
ROW E7 : ... .. B ... ... ... : ... .. 3 ... ... ... : ... .. . ... : ... .. . ... : ... .. . ... ... : ... .. 4 ... ... : ... .. . ... ... : ... .. . ... ...
ROW E8 : ... .. A ... ... ... : ... .. . ... ... ... : ... .. . ... : ... .. . ... : ... .. . ... ... : ... .. 3 ... ... : ... .. . ... ... : ... .. . ... ...
ROW E9 : ... .. 8 ... ... ... : ... .. 2 ... ... ... : ... .. . ... : ... .. . ... : ... .. . ... ... : ... .. 2 ... ... : ... .. . ... ... : ... .. . ... ...
ROW EA : ... .. . ... ... ... : ... .. . ... ... ... : ... .. . ... : ... .. . ... : ... .. . ... ... : ... .. . ... ... : ... .. . ... ... : ... .. . ... ...
ROW EB : ... .. . ... ... ... : ... .. 3 ... ... ... : ... .. . ... : ... .. . ... : ... .. . ... ... : ... .. 1 ... ... : ... .. 1 ... ... : ... .. 2 ... ...
ROW EC : ... .. 1 ... ... ... : ... .. 1 ... ... ... : ... .. . ... : ... .. . ... : ... .. . ... ... : ... .. . ... ... : ... .. . ... ... : ... .. . ... ...
ROW ED : ... .. . ... ... ... : ... .. . ... ... ... : ... .. . ... : ... .. . ... : ... .. . ... ... : ... .. . ... ... : ... .. . ... ... : ... .. . ... ...
ROW EE : ... .. . ... ... ... : ... .. . ... ... ... : ... .. . ... : ... .. . ... : ... .. . ... ... : ... .. . ... ... : ... .. . ... ... : ... .. . ... ...
ROW EF : ... .. . ... ... ... : ... .. . ... ... ... : ... .. . ... : ... .. . ... : ... .. . ... ... : --- .. . P82 ... : ... .. . ... ... : ... .. . ... ...
ROW F0 : B-2 00 E ... ... ... : C#3 00 5 ... ... ... : E-2 00 . ... : ... .. . ... : ... .. . ... ... : F#2 01 6 P80 V00 : ... .. . ... ... : D#3 01 1 ... ...
ROW F1 : ... .. D ... ... ... : ... .. 4 ... ... ... : ... .. . ... : ... .. . ... : ... .. . ... ... : ... .. 5 ... ... : ... .. . ... ... : ... .. . ... ...
ROW F2 : ... .. C ... ... ... : ... .. . ... ... ... : ... .. . ... : ... .. . ... : ... .. . ... ... : ... .. . ... ... : ... .. . ... ... : ... .. . ... ...
ROW F3 : ... .. 9 ... ... ... : ... .. 3 ... ... ... : ... .. . ... : ... .. . ... : ... .. . ... ... : ... .. 4 ... ... : ... .. . ... ... : ... .. . ... ...
ROW F4 : ... .. . ... ... ... : ... .. . ... ... ... : ... .. . ... : ... .. . ... : ... .. . ... ... : ... .. . ... ... : ... .. . ... ... : ... .. . ... ...
ROW F5 : ... .. . ... ... ... : ... .. 4 ... ... ... : ... .. . ... : ... .. . ... : ... .. . ... ... : ... .. . ... ... : ... .. . ... ... : ... .. . ... ...
ROW F6 : ... .. . ... ... ... : ... .. 1 ... ... ... : ... .. . ... : ... .. . ... : ... .. . ... ... : ... .. 3 ... ... : ... .. . ... ... : ... .. . ... ...
ROW F7 : ... .. . ... ... ... : ... .. . ... ... ... : ... .. . ... : ... .. . ... : ... .. . ... ... : ... .. . ... ... : ... .. . ... ... : ... .. . ... ...
ROW F8 : ... .. . ... ... ... : ... .. . ... ... ... : ... .. . ... : ... .. . ... : ... .. . ... ... : ... .. . ... ... : ... .. . ... ... : ... .. . ... ...
ROW F9 : ... .. . ... ... ... : ... .. . ... ... ... : ... .. . ... : ... .. . ... : ... .. . ... ... : ... .. . ... ... : ... .. . ... ... : ... .. . ... ...
ROW FA : ... .. . ... ... ... : B-2 00 7 ... ... ... : ... .. . ... : ... .. . ... : ... .. . ... ... : ... .. 2 ... ... : ... .. . ... ... : ... .. . ... ...
ROW FB : ... .. . ... ... ... : ... .. 6 ... ... ... : ... .. . ... : ... .. . ... : ... .. . ... ... : ... .. . ... ... : ... .. . ... ... : ... .. . ... ...
ROW FC : ... .. . ... ... ... : ... .. . ... ... ... : ... .. . ... : ... .. . ... : ... .. . ... ... : ... .. . ... ... : ... .. . ... ... : ... .. . ... ...
ROW FD : ... .. . ... ... ... : ... .. 4 ... ... ... : ... .. . ... : ... .. . ... : ... .. . ... ... : ... .. . ... ... : ... .. . ... ... : ... .. . ... ...
ROW FE : ... .. . ... ... ... : ... .. . ... ... ... : ... .. . ... : ... .. . ... : ... .. . ... ... : ... .. . ... ... : ... .. . ... ... : ... .. . ... ...
ROW FF : ... .. . ... ... ... : ... .. . ... ... ... : ... .. . ... : ... .. . ... : ... .. . ... ... : ... .. . ... ... : ... .. . ... ... : ... .. . ... ...

PATTERN 0B
ROW 00 : ... .. . ... ... ... : ... .. . ... ... ... : ... .. . ... : ... .. . ... : ... .. . ... ... : ... .. . ... ... : ... .. . ... ... : ... .. . ... ...
ROW 01 : ... .. . ... ... ... : ... .. . ... ... ... : ... .. . ... : ... .. . ... : ... .. . ... ... : ... .. . ... ... : ... .. . ... ... : ... .. . ... ...
ROW 02 : ... .. . ... ... ... : ... .. . ... ... ... : ... .. . ... : ... .. . ... : ... .. . ... ... : ... .. . ... ... : ... .. . ... ... : ... .. . ... ...
ROW 03 : ... .. . ... ... ... : ... .. . ... ... ... : ... .. . ... : ... .. . ... : ... .. . ... ... : ... .. . ... ... : ... .. . ... ... : ... .. . ... ...
ROW 04 : ... .. . ... ... ... : ... .. . ... ... ... : --- .. . ... : ... .. . ... : ... .. . ... ... : ... .. . ... ... : ... .. 4 ... ... : ... .. 5 ... ...
ROW 05 : ... .. 1 ... ... ... : ... .. . ... ... ... : ... .. . ... : ... .. . ... : ... .. . ... ... : ... .. . ... ... : ... .. . ... ... : ... .. . ... ...
ROW 06 : ... .. . ... ... ... : ... .. . ... ... ... : ... .. . ... : ... .. . ... : ... .. . ... ... : ... .. . ... ... : ... .. . ... ... : ... .. . ... ...
ROW 07 : ... .. . ... ... ... : ... .. . ... ... ... : ... .. . ... : ... .. . ... : ... .. . ... ... : ... .. . ... ... : ... .. . ... ... : ... .. . ... ...
ROW 08 : ... .. . ... ... ... : ... .. . ... ... ... : ... .. . ... : ... .. . ... : ... .. . ... ... : ... .. . ... ... : ... .. . ... ... : ... .. . ... ...
ROW 09 : ... .. . ... ... ... : ... .. . ... ... ... : ... .. . ... : ... .. . ... : ... .. . ... ... : ... .. . ... ... : ... .. 1 ... ... : ... .. 2 ... ...
ROW 0A : ... .. . ... ... ... : ... .. . ... ... ... : ... .. . ... : ... .. . ... : ... .. . ... ... : ... .. . ... ... : ... .. . ... ... : ... .. . ... ...
ROW 0B : ... .. 0 ... V00 ... : ... .. . ... ... ... : ... .. . ... : ... .. . ... : ... .. . ... ... : ... .. . ... ... : ... .. . ... ... : ... .. . ... ...
ROW 0C : ... .. . ... ... ... : ... .. . ... ... ... : ... .. . ... : ... .. . ... : ... .. . ... ... : ... .. . ... ... : ... .. . ... ... : ... .. . ... ...
ROW 0D : ... .. . ... ... ... : ... .. . ... ... ... : ... .. . ... : ... .. . ... : ... .. . ... ... : ... .. . ... ... : ... .. . ... ... : ... .. . ... ...
ROW 0E : ... .. . ... ... ... : ... .. . ... ... ... : ... .. . ... : ... .. . ... : ... .. . ... ... : ... .. 3 ... ... : ... .. 4 ... ... : ... .. 5 ... ...
ROW 0F : ... .. . ... ... ... : ... .. 1 ... ... ... : ... .. . ... : ... .. . ... : ... .. . ... ... : ... .. . ... ... : ... .. . ... ... : ... .. . ... ...
ROW 10 : ... .. . ... ... ... : ... .. . ... ... ... : ... .. . ... : ... .. . ... : ... .. . ... ... : ... .. . ... ... : ... .. . ... ... : ... .. . ... ...
ROW 11 : ... .. . ... ... ... : ... .. . ... ... ... : ... .. . ... : ... .. . ... : ... .. . ... ... : ... .. . ... ... : ... .. . ... ... : ... .. . ... ...
ROW 12 : ... .. . ... ... ... : ... .. . ... ... ... : ... .. . ... : ... .. . ... : ... .. . ... ... : ... .. . ... ... : ... .. . ... ... : ... .. . ... ...
ROW 13 : ... .. . ... ... ... : ... .. . ... ... ... : ... .. . ... : ... .. . ... : ... .. . ... ... : ... .. 4 ... ... : ... .. 1 ... ... : ... .. 2 ... ...
ROW 14 : ... .. . ... ... ... : ... .. . ... ... ... : ... .. . ... : ... .. . ... : ... .. . ... ... : ... .. . ... ... : ... .. . ... ... : ... .. . ... ...
ROW 15 : ... .. . ... ... ... : ... .. 0 ... V00 ... : ... .. . ... : ... .. . ... : ... .. . ... ... : ... .. . ... ... : ... .. . ... ... : ... .. . ... ...
ROW 16 : ... .. . ... ... ... : ... .. . ... ... ... : ... .. . ... : ... .. . ... : ... .. . ... ... : ... .. . ... ... : ... .. . ... ... : ... .. . ... ...
ROW 17 : ... .. . ... ... ... : ... .. . ... ... ... : ... .. . ... : ... .. . ... : ... .. . ... ... : ... .. . ... ... : ... .. . ... ... : ... .. . ... ...
ROW 18 : ... .. . ... ... ... : ... .. . ... ... ... : E-2 00 . ... : ... .. . ... : ... .. . ... ... : G#2 01 5 ... ... : ... .. 2 ... ... : B-2 01 1 ... ...
ROW 19 : ... .. . ... ... ... : ... .. . ... ... ... : ... .. . ... : ... .. . ... : ... .. . ... ... : ... .. 4 ... ... : ... .. . ... ... : ... .. 2 ... ...
ROW 1A : ... .. . ... ... ... : ... .. . ... ... ... : ... .. . ... : ... .. . ... : ... .. . ... ... : ... .. . ... ... : ... .. . ... ... : ... .. . ... ...
ROW 1B : ... .. . ... ... ... : ... .. . ... ... ... : ... .. . ... : ... .. . ... : ... .. . ... ... : ... .. . ... ... : ... .. . ... ... : ... .. . ... ...
ROW 1C : ... .. . ... ... ... : ... .. . ... ... ... : ... .. . ... : ... .. . ... : ... .. . ... ... : ... .. 3 ... ... : ... .. 1 ... ... : ... .. . ... ...
ROW 1D : ... .. . ... ... ... : ... .. . ... ... ... : ... .. . ... : ... .. . ... : ... .. . ... ... : ... .. . ... ... : ... .. . ... ... : ... .. 1 ... ...
ROW 1E : ... .. . ... ... ... : ... .. . ... ... ... : ... .. . ... : ... .. . ... : ... .. . ... ... : ... .. 2 ... ... : ... .. . ... ... : ... .. . ... ...
ROW 1F : ... .. . ... ... ... : ... .. . ... ... ... : ... .. . ... : ... .. . ... : ... .. . ... ... : ... .. . ... ... : ... .. . ... ... : ... .. . ... ...
ROW 20 : ... .. . ... ... ... : ... .. . ... ... ... : ... .. . ... : ... .. . ... : ... .. . ... ... : ... .. . ... ... : ... .. . ... ... : ... .. . ... ...
ROW 21 : ... .. . ... ... ... : ... .. . ... ... ... : ... .. . ... : ... .. . ... : ... .. . ... ... : ... .. . ... ... : ... .. . ... ... : ... .. . ... ...
ROW 22 : ... .. . ... ... ... : ... .. . ... ... ... : ... .. . ... : ... .. . ... : ... .. . ... ... : ... .. . ... ... : ... .. . ... ... : ... .. . ... ...
ROW 23 : ... .. . ... ... ... : ... .. . ... ... ... : ... .. . ... : ... .. . ... : ... .. . ... ... : ... .. . ... ... : ... .. . ... ... : ... .. . ... ...
ROW 24 : ... .. . ... ... ... : ... .. . ... ... ... : ... .. . ... : ... .. . ... : ... .. . ... ... : ... .. . ... ... : ... .. . ... ... : ... .. . ... ...
ROW 25 : ... .. . ... ... ... : ... .. . ... ... ... : ... .. . ... : ... .. . ... : ... .. . ... ... : ... .. . ... ... : ... .. . ... ... : ... .. . ... ...
ROW 26 : ... .. . ... ... ... : ... .. . ... ... ... : ... .. . ... : ... .. . ... : ... .. . ... ... : ... .. . ... ... : ... .. . ... ... : ... .. . ... ...
ROW 27 : ... .. . ... ... ... : ... .. . ... ... ... : ... .. . ... : ... .. . ... : ... .. . ... ... : ... .. 1 ... ... : ... .. . ... ... : ... .. . ... ...
ROW 28 : ... .. . ... ... ... : ... .. . ... ... ... : ... .. . ... : ... .. . ... : ... .. . ... ... : ... .. . ... ... : ... .. . ... ... : ... .. . ... ...
ROW 29 : ... .. . ... ... ... : ... .. . ... ... ... : ... .. . ... : ... .. . ... : ... .. . ... ... : ... .. . ... ... : ... .. . ... ... : ... .. . ... ...
ROW 2A : ... .. . ... ... ... : ... .. . ... ... ... : ... .. . ... : ... .. . ... : ... .. . ... ... : ... .. . ... ... : ... .. . ... ... : ... .. . ... ...
ROW 2B : ... .. . ... ... ... : ... .. . ... ... ... : ... .. . ... : ... .. . ... : ... .. . ... ... : ... .. . ... ... : ... .. . ... ... : ... .. . ... ...
ROW 2C : B-2 00 E P80 V01 ... : ... .. . ... ... ... : --- .. . ... : ... .. . ... : ... .. . ... ... : ... .. 2 ... ... : ... .. 6 ... ... : C#3 01 4 ... ...
ROW 2D : ... .. D ... ... ... : ... .. . ... ... ... : ... .. . ... : ... .. . ... : ... .. . ... ... : ... .. 1 ... ... : ... .. . ... ... : ... .. 6 ... ...
ROW 2E : ... .. C ... ... ... : ... .. . ... ... ... : ... .. . ... : ... .. . ... : ... .. . ... ... : ... .. . ... ... : ... .. . ... ... : ... .. . ... ...
ROW 2F : ... .. 9 ... ... ... : ... .. . ... ... ... : ... .. . ... : ... .. . ... : ... .. . ... ... : ... .. . ... ... : ... .. 5 ... ... : ... .. 5 ... ...
ROW 30 : ... .. . ... ... ... : ... .. . ... ... ... : ... .. . ... : ... .. . ... : ... .. . ... ... : ... .. . ... ... : ... .. 4 ... ... : ... .. . ... ...
ROW 31 : ... .. . ... ... ... : ... .. . ... ... ... : ... .. . ... : ... .. . ... : ... .. . ... ... : ... .. . ... ... : ... .. 1 ... ... : ... .. 2 ... ...
ROW 32 : ... .. 1 ... ... ... : ... .. . ... ... ... : ... .. . ... : ... .. . ... : ... .. . ... ... : ... .. . ... ... : ... .. . ... ... : ... .. . ... ...
ROW 33 : ... .. . ... ... ... : ... .. . ... ... ... : ... .. . ... : ... .. . ... : ... .. . ... ... : ... .. . ... ... : ... .. . ... ... : ... .. . ... ...
ROW 34 : ... .. . ... ... ... : ... .. . ... ... ... : ... .. . ... : ... .. . ... : ... .. . ... ... : ... .. . ... ... : ... .. . ... ... : ... .. . ... ...
ROW 35 : ... .. . ... ... ... : ... .. . ... ... ... : ... .. . ... : ... .. . ... : ... .. . ... ... : ... .. . ... ... : ... .. . ... ... : ... .. . ... ...
ROW 36 : C#3 00 E ... ... ... : B-2 00 7 P81 V01 ... : ... .. . ... : ... .. . ... : ... .. . ... ... : --- .. . ... ... : ... .. 4 ... ... : ... .. 5 ... ...
ROW 37 : ... .. D ... ... ... : ... .. 6 ... ... ... : ... .. . ... : ... .. . ... : ... .. . ... ... : ... .. . ... ... : ... .. . ... ... : ... .. . ... ...
ROW 38 : ... .. C ... ... ... : ... .. . ... ... ... : ... .. . ... : ... .. . ... : ... .. . ... ... : ... .. . ... ... : ... .. . ... ... : ... .. . ... ...
ROW 39 : ... .. 9 ... ... ... : ... .. 4 ... ... ... : ... .. . ... : ... .. . ... : ... .. . ... ... : ... .. . ... ... : ... .. . ... ... : ... .. . ... ...
ROW 3A : ... .. . ... ... ... : ... .. . ... ... ... : ... .. . ... : ... .. . ... : ... .. . ... ... : ... .. . ... ... : ... .. . ... ... : ... .. . ... ...
ROW 3B : ... .. . ... ... ... : ... .. . ... ... ... : ... .. . ... : ... .. . ... : ... .. . ... ... : ... .. . ... ... : ... .. 1 ... ... : ... .. 2 ... ...
ROW 3C : ... .. 1 ... ... ... : ... .. 1 ... ... ... : ... .. . ... : ... .. . ... : ... .. . ... ... : ... .. . ... ... : ... .. . ... ... : ... .. . ... ...
ROW 3D : ... .. . ... ... ... : ... .. . ... ... ... : ... .. . ... : ... .. . ... : ... .. . ... ... : ... .. . ... ... : ... .. . ... ... : ... .. . ... ...
ROW 3E : ... .. . ... ... ... : ... .. . ... ... ... : ... .. . ... : ... .. . ... : ... .. . ... ... : ... .. . ... ... : ... .. . ... ... : ... .. . ... ...
ROW 3F : ... .. . ... ... ... : ... .. . ... ... ... : ... .. . ... : ... .. . ... : ... .. . ... ... : ... .. . ... ... : ... .. . ... ... : ... .. . ... ...
ROW 40 : D-3 00 E ... ... ... : C#3 00 7 ... ... ... : G-2 00 . ... : ... .. . ... : ... .. . ... ... : B-2 01 6 ... ... : D-3 01 1 ... ... : F#3 01 1 ... ...
ROW 41 : ... .. D ... ... ... : ... .. 6 ... ... ... : ... .. . ... : ... .. . ... : ... .. . ... ... : ... .. 5 ... ... : ... .. . ... ... : ... .. . ... ...
ROW 42 : ... .. C ... ... ... : ... .. . ... ... ... : ... .. . ... : ... .. . ... : ... .. . ... ... : ... .. . ... ... : ... .. . ... ... : ... .. . ... ...
ROW 43 : ... .. 9 ... ... ... : ... .. 4 ... ... ... : ... .. . ... : ... .. . ... : ... .. . ... ... : ... .. 4 ... ... : ... .. . ... ... : ... .. . ... ...
ROW 44 : ... .. . ... ... ... : ... .. . ... ... ... : ... .. . ... : ... .. . ... : ... .. . ... ... : ... .. . ... ... : ... .. . ... ... : ... .. . ... ...
ROW 45 : ... .. . ... ... ... : ... .. . ... ... ... : ... .. . ... : ... .. . ... : ... .. . ... ... : ... .. . ... ... : ... .. . ... ... : ... .. . ... ...
ROW 46 : ... .. . ... ... ... : ... .. 1 ... ... ... : ... .. . ... : ... .. . ... : ... .. . ... ... : ... .. 3 ... ... : ... .. . ... ... : ... .. . ... ...
ROW 47 : ... .. . ... ... ... : ... .. . ... ... ... : ... .. . ... : ... .. . ... : ... .. . ... ... : ... .. . ... ... : ... .. . ... ... : ... .. . ... ...
ROW 48 : ... .. . ... ... ... : ... .. . ... ... ... : ... .. . ... : ... .. . ... : ... .. . ... ... : ... .. . ... ... : ... .. . ... ... : ... .. . ... ...
ROW 49 : ... .. . ... ... ... : ... .. . ... ... ... : ... .. . ... : ... .. . ... : ... .. . ... ... : ... .. . ... ... : ... .. . ... ... : ... .. . ... ...
ROW 4A : ... .. . ... ... ... : D-3 00 7 ... ... ... : ... .. . ... : ... .. . ... : ... .. . ... ... : ... .. 2 ... ... : ... .. . ... ... : ... .. . ... ...
ROW 4B : ... .. . ... ... ... : ... .. 6 ... ... ... : ... .. . ... : ... .. . ... : ... .. . ... ... : ... .. . ... ... : ... .. . ... ... : ... .. . ... ...
ROW 4C : ... .. . ... ... ... : ... .. . ... ... ... : ... .. . ... : ... .. . ... : ... .. . ... ... : ... .. . ... ... : ... .. . ... ... : ... .. . ... ...
ROW 4D : ... .. . ... ... ... : ... .. 4 ... ... ... : ... .. . ... : ... .. . ... : ... .. . ... ... : ... .. . ... ... : ... .. . ... ... : ... .. . ... ...
ROW 4E : ... .. . ... ... ... : ... .. . ... ... ... : ... .. . ... : ... .. . ... : ... .. . ... ... : ... .. . ... ... : ... .. . ... ... : ... .. . ... ...
ROW 4F : ... .. . ... ... ... : ... .. . ... ... ... : ... .. . ... : ... .. . ... : ... .. . ... ... : ... .. . ... ... : ... .. . ... ... : ... .. . ... ...
ROW 50 : ... .. . ... ... ... : ... .. . ... ... ... : ... .. . ... : ... .. . ... : ... .. . ... ... : ... .. . ... ... : ... .. . ... ... : ... .. . ... ...
ROW 51 : ... .. . ... ... ... : ... .. . ... ... ... : ... .. . ... : ... .. . ... : ... .. . ... ... : ... .. . ... ... : ... .. . ... ... : ... .. . ... ...
ROW 52 : ... .. . ... ... ... : ... .. . ... ... ... : ... .. . ... : ... .. . ... : ... .. . ... ... : ... .. . ... ... : ... .. . ... ... : ... .. . ... ...
ROW 53 : ... .. . ... ... ... : ... .. . ... ... ... : ... .. . ... : ... .. . ... : ... .. . ... ... : ... .. . ... ... : ... .. . ... ... : ... .. . ... ...
ROW 54 : B-2 00 E ... ... ... : ... .. . ... ... ... : --- .. . ... : ... .. . ... : ... .. . ... ... : ... .. . ... ... : ... .. 4 ... ... : ... .. 5 ... ...
ROW 55 : ... .. D ... ... ... : ... .. . ... ... ... : ... .. . ... : ... .. . ... : ... .. . ... ... : ... .. . ... ... : ... .. . ... ... : ... .. . ... ...
ROW 56 : ... .. C ... ... ... : ... .. . ... ... ... : ... .. . ... : ... .. . ... : ... .. . ... ... : ... .. . ... ... : ... .. . ... ... : ... .. . ... ...
ROW 57 : ... .. 9 ... ... ... : ... .. . ... ... ... : ... .. . ... : ... .. . ... : ... .. . ... ... : ... .. . ... ... : ... .. . ... ... : ... .. . ... ...
ROW 58 : ... .. . ... ... ... : ... .. . ... ... ... : ... .. . ... : ... .. . ... : ... .. . ... ... : ... .. . ... ... : ... .. . ... ... : ... .. . ... ...
ROW 59 : ... .. . ... ... ... : ... .. . ... ... ... : ... .. . ... : ... .. . ... : ... .. . ... ... : ... .. . ... ... : ... .. 1 ... ... : ... .. 2 ... ...
ROW 5A : ... .. . ... ... ... : ... .. . ... ... ... : ... .. . ... : ... .. . ... : ... .. . ... ... : ... .. . ... ... : ... .. . ... ... : ... .. . ... ...
ROW 5B : ... .. . ... ... ... : ... .. . ... ... ... : ... .. . ... : ... .. . ... : ... .. . ... ... : ... .. . ... ... : ... .. . ... ... : ... .. . ... ...
ROW 5C : ... .. . ... ... ... : ... .. . ... ... ... : ... .. . ... : ... .. . ... : ... .. . ... ... : ... .. . ... ... : ... .. . ... ... : ... .. . ... ...
ROW 5D : ... .. . ... ... ... : ... .. . ... ... ... : ... .. . ... : ... .. . ... : ... .. . ... ... : ... .. . ... ... : ... .. . ... ... : ... .. . ... ...
ROW 5E : ... .. . ... ... ... : B-2 00 7 ... ... ... : ... .. . ... : ... .. . ... : ... .. . ... ... : ... .. 3 ... ... : ... .. 4 ... ... : ... .. 5 ... ...
ROW 5F : ... .. 1 ... ... ... : ... .. 6 ... ... ... : ... .. . ... : ... .. . ... : ... .. . ... ... : ... .. . ... ... : ... .. . ... ... : ... .. . ... ...
ROW 60 : ... .. . ... ... ... : ... .. . ... ... ... : ... .. . ... : ... .. . ... : ... .. . ... ... : ... .. . ... ... : ... .. . ... ... : ... .. . ... ...
ROW 61 : ... .. . ... ... ... : ... .. 4 ... ... ... : ... .. . ... : ... .. . ... : ... .. . ... ... : ... .. . ... ... : ... .. . ... ... : ... .. . ... ...
ROW 62 : ... .. . ... ... ... : ... .. . ... ... ... : ... .. . ... : ... .. . ... : ... .. . ... ... : ... .. . ... ... : ... .. . ... ... : ... .. . ... ...
ROW 63 : ... .. . ... ... ... : ... .. . ... ... ... : ... .. . ... : ... .. . ... : ... .. . ... ... : ... .. 4 ... ... : ... .. 1 ... ... : ... .. 2 ... ...
ROW 64 : ... .. . ... ... ... : ... .. . ... ... ... : ... .. . ... : ... .. . ... : ... .. . ... ... : ... .. . ... ... : ... .. . ... ... : ... .. . ... ...
ROW 65 : ... .. 0 ... V00 ... : ... .. . ... ... ... : ... .. . ... : ... .. . ... : ... .. . ... ... : ... .. . ... ... : ... .. . ... ... : ... .. . ... ...
ROW 66 : ... .. . ... ... ... : ... .. . ... ... ... : ... .. . ... : ... .. . ... : ... .. . ... ... : ... .. . ... ... : ... .. . ... ... : ... .. . ... ...
ROW 67 : ... .. . ... ... ... : ... .. . ... ... ... : ... .. . ... : ... .. . ... : ... .. . ... ... : ... .. . ... ... : ... .. . ... ... : ... .. . ... ...
ROW 68 : C#3 00 E P80 V01 ... : ... .. . ... ... ... : A-2 00 . ... : ... .. . ... : ... .. . ... ... : C#3 01 5 ... ... : E-3 01 2 ... ... : E-3 01 1 ... ...
ROW 69 : ... .. D ... ... ... : ... .. 1 ... ... ... : ... .. . ... : ... .. . ... : ... .. . ... ... : ... .. 4 ... ... : ... .. . ... ... : ... .. 2 ... ...
ROW 6A : ... .. C ... ... ... : ... .. . ... ... ... : ... .. . ... : ... .. . ... : ... .. . ... ... : ... .. . ... ... : ... .. . ... ... : ... .. . ... ...
ROW 6B : ... .. 9 ... ... ... : ... .. . ... ... ... : ... .. . ... : ... .. . ... : ... .. . ... ... : ... .. . ... ... : ... .. . ... ... : ... .. . ... ...
ROW 6C : ... .. . ... ... ... : ... .. . ... ... ... : ... .. . ... : ... .. . ... : ... .. . ... ... : ... .. 3 ... ... : ... .. 1 ... ... : ... .. . ... ...
ROW 6D : ... .. . ... ... ... : ... .. . ... ... ... : ... .. . ... : ... .. . ... : ... .. . ... ... : ... .. . ... ... : ... .. . ... ... : ... .. 1 ... ...
ROW 6E : ... .. . ... ... ... : ... .. . ... ... ... : ... .. . ... : ... .. . ... : ... .. . ... ... : ... .. 2 ... ... : ... .. . ... ... : ... .. . ... ...
ROW 6F : ... .. . ... ... ... : ... .. 0 ... V00 ... : ... .. . ... : ... .. . ... : ... .. . ... ... : ... .. . ... ... : ... .. . ... ... : ... .. . ... ...
ROW 70 : ... .. . ... ... ... : ... .. . ... ... ... : ... .. . ... : ... .. . ... : ... .. . ... ... : ... .. . ... ... : ... .. . ... ... : ... .. . ... ...
ROW 71 : ... .. . ... ... ... : ... .. . ... ... ... : ... .. . ... : ... .. . ... : ... .. . ... ... : ... .. . ... ... : ... .. . ... ... : ... .. . ... ...
ROW 72 : ... .. . ... ... ... : C#3 00 7 P81 V01 ... : ... .. . ... : ... .. . ... : ... .. . ... ... : ... .. . ... ... : ... .. . ... ... : ... .. . ... ...
ROW 73 : ... .. . ... ... ... : ... .. 6 ... ... ... : ... .. . ... : ... .. . ... : ... .. . ... ... : ... .. . ... ... : ... .. . ... ... : ... .. . ... ...
ROW 74 : ... .. . ... ... ... : ... .. . ... ... ... : ... .. . ... : ... .. . ... : ... .. . ... ... : ... .. . ... ... : ... .. . ... ... : ... .. . ... ...
ROW 75 : ... .. . ... ... ... : ... .. 4 ... ... ... : ... .. . ... : ... .. . ... : ... .. . ... ... : ... .. . ... ... : ... .. . ... ... : ... .. . ... ...
ROW 76 : ... .. . ... ... ... : ... .. . ... ... ... : ... .. . ... : ... .. . ... : ... .. . ... ... : ... .. . ... ... : ... .. . ... ... : ... .. . ... ...
ROW 77 : ... .. . ... ... ... : ... .. . ... ... ... : ... .. . ... : ... .. . ... : ... .. . ... ... : ... .. 1 ... ... : ... .. . ... ... : ... .. . ... ...
ROW 78 : ... .. . ... ... ... : ... .. . ... ... ... : ... .. . ... : ... .. . ... : ... .. . ... ... : ... .. . ... ... : ... .. . ... ... : ... .. . ... ...
ROW 79 : ... .. . ... ... ... : ... .. . ... ... ... : ... .. . ... : ... .. . ... : ... .. . ... ... : ... .. . ... ... : ... .. . ... ... : ... .. . ... ...
ROW 7A : ... .. . ... ... ... : ... .. . ... ... ... : ... .. . ... : ... .. . ... : ... .. . ... ... : ... .. . ... ... : ... .. . ... ... : ... .. . ... ...
ROW 7B : ... .. . ... ... ... : ... .. . ... ... ... : ... .. . ... : ... .. . ... : ... .. . ... ... : ... .. . ... ... : ... .. . ... ... : ... .. . ... ...
ROW 7C : B-2 00 E ... ... ... : ... .. . ... ... ... : --- .. . ... : ... .. . ... : ... .. . ... ... : ... .. . ... ... : ... .. 4 ... ... : ... .. 5 ... ...
ROW 7D : ... .. D ... ... ... : ... .. . ... ... ... : ... .. . ... : ... .. . ... : ... .. . ... ... : ... .. . ... ... : ... .. . ... ... : ... .. . ... ...
ROW 7E : ... .. C ... ... ... : ... .. . ... ... ... : ... .. . ... : ... .. . ... : ... .. . ... ... : ... .. . ... ... : ... .. . ... ... : ... .. . ... ...
ROW 7F : ... .. 9 ... ... ... : ... .. . ... ... ... : ... .. . ... : ... .. . ... : ... .. . ... ... : ... .. . ... ... : ... .. . ... ... : ... .. . ... ...
ROW 80 : ... .. . ... ... ... : ... .. . ... ... ... : ... .. . ... : ... .. . ... : ... .. . ... ... : ... .. . ... ... : ... .. . ... ... : ... .. . ... ...
ROW 81 : ... .. . ... ... ... : ... .. . ... ... ... : ... .. . ... : ... .. . ... : ... .. . ... ... : ... .. . ... ... : ... .. 1 ... ... : ... .. 2 ... ...
ROW 82 : ... .. 1 ... ... ... : ... .. . ... ... ... : ... .. . ... : ... .. . ... : ... .. . ... ... : ... .. . ... ... : ... .. . ... ... : ... .. . ... ...
ROW 83 : ... .. . ... ... ... : ... .. . ... ... ... : ... .. . ... : ... .. . ... : ... .. . ... ... : ... .. . ... ... : ... .. . ... ... : ... .. . ... ...
ROW 84 : ... .. . ... ... ... : ... .. . ... ... ... : ... .. . ... : ... .. . ... : ... .. . ... ... : ... .. . ... ... : ... .. . ... ... : ... .. . ... ...
ROW 85 : ... .. . ... ... ... : ... .. . ... ... ... : ... .. . ... : ... .. . ... : ... .. . ... ... : ... .. . ... ... : ... .. . ... ... : ... .. . ... ...
ROW 86 : A-2 00 E ... ... ... : B-2 00 7 ... ... ... : ... .. . ... : ... .. . ... : ... .. . ... ... : --- .. . P83 ... : ... .. 4 ... ... : ... .. 5 ... ...
ROW 87 : ... .. D ... ... ... : ... .. 6 ... ... ... : ... .. . ... : ... .. . ... : ... .. . ... ... : ... .. . ... ... : ... .. . ... ... : ... .. . ... ...
ROW 88 : ... .. C ... ... ... : ... .. . ... ... ... : ... .. . ... : ... .. . ... : ... .. . ... ... : ... .. . ... ... : ... .. . ... ... : ... .. . ... ...
ROW 89 : ... .. 9 ... ... ... : ... .. 4 ... ... ... : ... .. . ... : ... .. . ... : ... .. . ... ... : ... .. . ... ... : ... .. . ... ... : ... .. . ... ...
ROW 8A : ... .. . ... ... ... : ... .. . ... ... ... : ... .. . ... : ... .. . ... : ... .. . ... ... : ... .. . ... ... : ... .. . ... ... : ... .. . ... ...
ROW 8B : ... .. . ... ... ... : ... .. . ... ... ... : ... .. . ... : ... .. . ... : ... .. . ... ... : ... .. . ... ... : ... .. 1 ... ... : ... .. 2 ... ...
ROW 8C : ... .. 1 ... ... ... : ... .. 1 ... ... ... : ... .. . ... : ... .. . ... : ... .. . ... ... : ... .. . ... ... : ... .. . ... ... : ... .. . ... ...
ROW 8D : ... .. . ... ... ... : ... .. . ... ... ... : ... .. . ... : ... .. . ... : ... .. . ... ... : ... .. . ... ... : ... .. . ... ... : ... .. . ... ...
ROW 8E : ... .. . ... ... ... : ... .. . ... ... ... : ... .. . ... : ... .. . ... : ... .. . ... ... : ... .. . ... ... : ... .. . ... ... : ... .. . ... ...
ROW 8F : ... .. . ... ... ... : ... .. . ... ... ... : ... .. . ... : ... .. . ... : ... .. . ... ... : ... .. . ... ... : ... .. . ... ... : ... .. . ... ...
ROW 90 : B-2 00 E ... ... ... : A-2 00 7 ... ... ... : E-2 00 . ... : ... .. . ... : ... .. . ... ... : G#2 01 6 P80 ... : ... .. 5 ... ... : F#3 01 3 ... ...
ROW 91 : ... .. D ... ... ... : ... .. 6 ... ... ... : ... .. . ... : ... .. . ... : ... .. . ... ... : ... .. 5 ... ... : ... .. 4 ... ... : ... .. 4 ... ...
ROW 92 : ... .. C ... ... ... : ... .. . ... ... ... : ... .. . ... : ... .. . ... : ... .. . ... ... : ... .. . ... ... : ... .. . ... ... : ... .. . ... ...
ROW 93 : ... .. 9 ... ... ... : ... .. 4 ... ... ... : ... .. . ... : ... .. . ... : ... .. . ... ... : ... .. 4 ... ... : ... .. . ... ... : ... .. . ... ...
ROW 94 : ... .. . ... ... ... : ... .. . ... ... ... : ... .. . ... : ... .. . ... : ... .. . ... ... : ... .. . ... ... : ... .. 3 ... ... : ... .. . ... ...
ROW 95 : ... .. . ... ... ... : ... .. . ... ... ... : ... .. . ... : ... .. . ... : ... .. . ... ... : ... .. . ... ... : ... .. . ... ... : ... .. . ... ...
ROW 96 : ... .. . ... ... ... : ... .. 1 ... ... ... : ... .. . ... : ... .. . ... : ... .. . ... ... : ... .. 3 ... ... : ... .. . ... ... : ... .. . ... ...
ROW 97 : ... .. . ... ... ... : ... .. . ... ... ... : ... .. . ... : ... .. . ... : ... .. . ... ... : ... .. . ... ... : ... .. . ... ... : ... .. . ... ...
ROW 98 : ... .. . ... ... ... : ... .. . ... ... ... : ... .. . ... : ... .. . ... : ... .. . ... ... : ... .. . ... ... : ... .. . ... ... : ... .. . ... ...
ROW 99 : ... .. . ... ... ... : ... .. . ... ... ... : ... .. . ... : ... .. . ... : ... .. . ... ... : ... .. . ... ... : ... .. . ... ... : ... .. . ... ...
ROW 9A : ... .. . ... ... ... : B-2 00 7 ... ... ... : ... .. . ... : ... .. . ... : ... .. . ... ... : ... .. 2 ... ... : ... .. . ... ... : ... .. . ... ...
ROW 9B : ... .. 1 ... ... ... : ... .. 6 ... ... ... : ... .. . ... : ... .. . ... : ... .. . ... ... : ... .. 1 ... ... : ... .. 1 ... ... : ... .. 1 ... ...
ROW 9C : ... .. . ... ... ... : ... .. . ... ... ... : ... .. . ... : ... .. . ... : ... .. . ... ... : ... .. . ... ... : ... .. . ... ... : ... .. . ... ...
ROW 9D : ... .. . ... ... ... : ... .. 4 ... ... ... : ... .. . ... : ... .. . ... : ... .. . ... ... : ... .. . ... ... : ... .. . ... ... : ... .. . ... ...
ROW 9E : ... .. . ... ... ... : ... .. . ... ... ... : ... .. . ... : ... .. . ... : ... .. . ... ... : ... .. . ... ... : ... .. . ... ... : ... .. . ... ...
ROW 9F : ... .. . ... ... ... : ... .. . ... ... ... : ... .. . ... : ... .. . ... : ... .. . ... ... : ... .. . ... ... : ... .. . ... ... : ... .. . ... ...
ROW A0 : ... .. . ... ... ... : ... .. . ... ... ... : ... .. . ... : ... .. . ... : ... .. . ... ... : ... .. . ... ... : ... .. . ... ... : ... .. . ... ...
ROW A1 : ... .. 0 ... V00 ... : ... .. . ... ... ... : ... .. . ... : ... .. . ... : ... .. . ... ... : ... .. . ... ... : ... .. . ... ... : ... .. . ... ...
ROW A2 : ... .. . ... ... ... : ... .. . ... ... ... : ... .. . ... : ... .. . ... : ... .. . ... ... : ... .. . ... ... : ... .. . ... ... : ... .. . ... ...
ROW A3 : ... .. . ... ... ... : ... .. . ... ... ... : ... .. . ... : ... .. . ... : ... .. . ... ... : ... .. . ... ... : ... .. . ... ... : ... .. . ... ...
ROW A4 : E-3 00 E P80 V01 ... : ... .. . ... ... ... : E-1 00 . ... : ... .. . ... : ... .. . ... ... : B-2 01 4 ... ... : ... .. 5 ... ... : G#3 01 3 ... ...
ROW A5 : ... .. D ... ... ... : ... .. 1 ... ... ... : ... .. . ... : ... .. . ... : ... .. . ... ... : ... .. 3 ... ... : ... .. 4 ... ... : ... .. 4 ... ...
ROW A6 : ... .. C ... ... ... : ... .. . ... ... ... : ... .. . ... : ... .. . ... : ... .. . ... ... : ... .. . ... ... : ... .. . ... ... : ... .. . ... ...
ROW A7 : ... .. 9 ... ... ... : ... .. . ... ... ... : ... .. . ... : ... .. . ... : ... .. . ... ... : ... .. . ... ... : ... .. . ... ... : ... .. . ... ...
ROW A8 : ... .. . ... ... ... : ... .. . ... ... ... : ... .. . ... : ... .. . ... : ... .. . ... ... : ... .. 2 ... ... : ... .. 3 ... ... : ... .. . ... ...
ROW A9 : ... .. . ... ... ... : ... .. . ... ... ... : ... .. . ... : ... .. . ... : ... .. . ... ... : ... .. 3 ... ... : ... .. . ... ... : ... .. . ... ...
ROW AA : ... .. . ... ... ... : ... .. . ... ... ... : ... .. . ... : ... .. . ... : ... .. . ... ... : ... .. 2 ... ... : ... .. . ... ... : ... .. . ... ...
ROW AB : ... .. . ... ... ... : ... .. 0 ... V00 ... : ... .. . ... : ... .. . ... : ... .. . ... ... : ... .. . ... ... : ... .. . ... ... : ... .. . ... ...
ROW AC : ... .. . ... ... ... : ... .. . ... ... ... : ... .. . ... : ... .. . ... : ... .. . ... ... : ... .. . ... ... : ... .. . ... ... : ... .. . ... ...
ROW AD : ... .. . ... ... ... : ... .. . ... ... ... : ... .. . ... : ... .. . ... : ... .. . ... ... : ... .. . ... ... : ... .. . ... ... : ... .. . ... ...
ROW AE : ... .. . ... ... ... : E-3 00 7 P81 V01 ... : ... .. . ... : ... .. . ... : ... .. . ... ... : ... .. 3 ... ... : ... .. . ... ... : ... .. . ... ...
ROW AF : ... .. 1 ... ... ... : ... .. 6 ... ... ... : ... .. . ... : ... .. . ... : ... .. . ... ... : ... .. 1 ... ... : ... .. 1 ... ... : ... .. 1 ... ...
ROW B0 : ... .. . ... ... ... : ... .. . ... ... ... : ... .. . ... : ... .. . ... : ... .. . ... ... : ... .. . ... ... : ... .. . ... ... : ... .. . ... ...
ROW B1 : ... .. . ... ... ... : ... .. 4 ... ... ... : ... .. . ... : ... .. . ... : ... .. . ... ... : ... .. . ... ... : ... .. . ... ... : ... .. . ... ...
ROW B2 : ... .. . ... ... ... : ... .. . ... ... ... : ... .. . ... : ... .. . ... : ... .. . ... ... : ... .. . ... ... : ... .. . ... ... : ... .. . ... ...
ROW B3 : ... .. . ... ... ... : ... .. . ... ... ... : ... .. . ... : ... .. . ... : ... .. . ... ... : ... .. . ... ... : ... .. . ... ... : ... .. . ... ...
ROW B4 : ... .. . ... ... ... : ... .. . ... ... ... : ... .. . ... : ... .. . ... : ... .. . ... ... : ... .. . ... ... : ... .. . ... ... : ... .. . ... ...
ROW B5 : ... .. 0 ... V00 ... : ... .. . ... ... ... : ... .. . ... : ... .. . ... : ... .. . ... ... : ... .. . ... ... : ... .. . ... ... : ... .. . ... ...
ROW B6 : ... .. . ... ... ... : ... .. . ... ... ... : ... .. . ... : ... .. . ... : ... .. . ... ... : ... .. . ... ... : ... .. . ... ... : ... .. . ... ...
ROW B7 : ... .. . ... ... ... : ... .. . ... ... ... : ... .. . ... : ... .. . ... : ... .. . ... ... : ... .. . ... ... : ... .. . ... ... : ... .. . ... ...
ROW B8 : ... .. . ... ... ... : ... .. . ... ... ... : B-2 00 . ... : ... .. . ... : ... .. . ... ... : ... .. . ... ... : ... .. . ... ... : ... .. . ... ...
ROW B9 : ... .. . ... ... ... : ... .. 1 ... ... ... : ... .. . ... : ... .. . ... : ... .. . ... ... : ... .. . ... ... : ... .. . ... ... : ... .. . ... ...
ROW BA : ... .. . ... ... ... : ... .. . ... ... ... : ... .. . ... : ... .. . ... : ... .. . ... ... : ... .. . ... ... : ... .. . ... ... : ... .. . ... ...
ROW BB : ... .. . ... ... ... : ... .. . ... ... ... : ... .. . ... : ... .. . ... : ... .. . ... ... : ... .. . ... ... : ... .. . ... ... : ... .. . ... ...
ROW BC : ... .. . ... ... ... : ... .. . ... ... ... : ... .. . ... : ... .. . ... : ... .. . ... ... : ... .. . ... ... : ... .. . ... ... : ... .. . ... ...
ROW BD : ... .. . ... ... ... : ... .. . ... ... ... : ... .. . ... : ... .. . ... : ... .. . ... ... : ... .. . ... ... : ... .. . ... ... : ... .. . ... ...
ROW BE : ... .. . ... ... ... : ... .. . ... ... ... : ... .. . ... : ... .. . ... : ... .. . ... ... : ... .. . ... ... : ... .. . ... ... : ... .. . ... ...
ROW BF : ... .. . ... ... ... : ... .. 0 ... V00 ... : ... .. . ... : ... .. . ... : ... .. . ... ... : ... .. . ... ... : ... .. . ... ... : ... .. . ... ...
ROW C0 : ... .. . ... ... ... : ... .. . ... ... ... : ... .. . ... : ... .. . ... : ... .. . ... ... : ... .. . ... ... : ... .. . ... ... : ... .. . ... ...
ROW C1 : ... .. . ... ... ... : ... .. . ... ... ... : ... .. . ... : ... .. . ... : ... .. . ... ... : ... .. . ... ... : ... .. . ... ... : ... .. . ... ...
ROW C2 : ... .. . ... ... ... : ... .. . ... ... ... : ... .. . ... : ... .. . ... : ... .. . ... ... : ... .. . ... ... : ... .. . ... ... : ... .. . ... ...
ROW C3 : ... .. . ... ... ... : ... .. . ... ... ... : ... .. . ... : ... .. . ... : ... .. . ... ... : --- .. . P85 ... : --- .. . P7E ... : ... .. . ... ...
ROW C4 : ... .. . ... ... ... : ... .. . ... ... ... : ... .. . ... : ... .. . ... : ... .. . ... ... : ... .. . ... ... : ... .. . ... ... : ... .. . ... ...
ROW C5 : ... .. . ... ... ... : ... .. . ... ... ... : ... .. . ... : ... .. . ... : ... .. . ... ... : ... .. . ... ... : ... .. . ... ... : ... .. . ... ...
ROW C6 : ... .. . ... ... ... : ... .. . ... ... ... : ... .. . ... : ... .. . ... : ... .. . ... ... : ... .. . ... ... : ... .. . ... ... : ... .. . ... ...
ROW C7 : ... .. . ... ... ... : ... .. . ... ... ... : ... .. . ... : ... .. . ... : ... .. . ... ... : ... .. . ... ... : ... .. . ... ... : ... .. . ... ...
ROW C8 : ... .. . ... ... ... : ... .. . ... ... ... : ... .. . ... : ... .. . ... : ... .. . ... ... : ... .. . ... ... : ... .. . ... ... : ... .. 0 ... ...
ROW C9 : ... .. . ... ... ... : ... .. . ... ... ... : ... .. . ... : ... .. . ... : ... .. . ... ... : ... .. . ... ... : ... .. . ... ... : ... .. . ... ...
ROW CA : ... .. . ... ... ... : ... .. . ... ... ... : ... .. . ... : ... .. . ... : ... .. . ... ... : ... .. . ... ... : ... .. . ... ... : ... .. . ... ...
ROW CB : ... .. . ... ... ... : ... .. . ... ... ... : ... .. . ... : ... .. . ... : ... .. . ... ... : ... .. . ... ... : ... .. . ... ... : ... .. . ... ...
ROW CC : B-2 00 E P80 V01 ... : ... .. . ... ... ... : E-2 00 . ... : ... .. . ... : ... .. . ... ... : ... .. . ... ... : ... .. . ... ... : ... .. . ... ...
ROW CD : ... .. D ... ... ... : ... .. . ... ... ... : ... .. . ... : ... .. . ... : ... .. . ... ... : ... .. . ... ... : ... .. . ... ... : ... .. . ... ...
ROW CE : ... .. C ... ... ... : ... .. . ... ... ... : ... .. . ... : ... .. . ... : ... .. . ... ... : ... .. . ... ... : ... .. . ... ... : ... .. . ... ...
ROW CF : ... .. 9 ... ... ... : ... .. . ... ... ... : ... .. . ... : ... .. . ... : ... .. . ... ... : ... .. . ... ... : ... .. . ... ... : ... .. . ... ...
ROW D0 : ... .. . ... ... ... : ... .. . ... ... ... : ... .. . ... : ... .. . ... : ... .. . ... ... : ... .. . ... ... : ... .. . ... ... : ... .. . ... ...
ROW D1 : ... .. . ... ... ... : ... .. . ... ... ... : ... .. . ... : ... .. . ... : ... .. . ... ... : ... .. . ... ... : ... .. . ... ... : ... .. . ... ...
ROW D2 : ... .. 1 ... ... ... : ... .. . ... ... ... : ... .. . ... : ... .. . ... : ... .. . ... ... : ... .. . ... ... : ... .. . ... ... : ... .. . ... ...
ROW D3 : ... .. . ... ... ... : ... .. . ... ... ... : ... .. . ... : ... .. . ... : ... .. . ... ... : ... .. . ... ... : ... .. . ... ... : ... .. . ... ...
ROW D4 : ... .. . ... ... ... : ... .. . ... ... ... : ... .. . ... : ... .. . ... : ... .. . ... ... : ... .. . ... ... : ... .. . ... ... : ... .. . ... ...
ROW D5 : ... .. . ... ... ... : ... .. . ... ... ... : ... .. . ... : ... .. . ... : ... .. . ... ... : ... .. . ... ... : ... .. . ... ... : ... .. . ... ...
ROW D6 : C#3 00 E ... ... ... : B-2 00 7 P81 V01 ... : ... .. . ... : ... .. . ... : ... .. . ... ... : ... .. . ... ... : ... .. . ... ... : ... .. . ... ...
ROW D7 : ... .. D ... ... ... : ... .. 6 ... ... ... : ... .. . ... : ... .. . ... : ... .. . ... ... : ... .. . ... ... : ... .. . ... ... : ... .. . ... ...
ROW D8 : ... .. C ... ... ... : ... .. . ... ... ... : ... .. . ... : ... .. . ... : ... .. . ... ... : ... .. . ... ... : ... .. . ... ... : ... .. . ... ...
ROW D9 : ... .. 9 ... ... ... : ... .. 4 ... ... ... : ... .. . ... : ... .. . ... : ... .. . ... ... : ... .. . ... ... : ... .. . ... ... : ... .. . ... ...
ROW DA : ... .. . ... ... ... : ... .. . ... ... ... : ... .. . ... : ... .. . ... : ... .. . ... ... : ... .. . ... ... : ... .. . ... ... : ... .. . ... ...
ROW DB : ... .. . ... ... ... : ... .. . ... ... ... : ... .. . ... : ... .. . ... : ... .. . ... ... : ... .. . ... ... : ... .. . ... ... : ... .. . ... ...
ROW DC : ... .. 1 ... ... ... : ... .. 1 ... ... ... : ... .. . ... : ... .. . ... : ... .. . ... ... : ... .. . ... ... : ... .. . ... ... : ... .. . ... ...
ROW DD : ... .. . ... ... ... : ... .. . ... ... ... : ... .. . ... : ... .. . ... : ... .. . ... ... : ... .. . ... ... : ... .. . ... ... : ... .. . ... ...
ROW DE : ... .. . ... ... ... : ... .. . ... ... ... : ... .. . ... : ... .. . ... : ... .. . ... ... : ... .. . ... ... : ... .. . ... ... : ... .. . ... ...
ROW DF : ... .. . ... ... ... : ... .. . ... ... ... : ... .. . ... : ... .. . ... : ... .. . ... ... : ... .. . ... ... : ... .. . ... ... : ... .. . ... ...
ROW E0 : D-3 00 E ... ... ... : C#3 00 7 ... ... ... : G-2 00 . ... : ... .. . ... : ... .. . ... ... : B-2 01 6 P80 ... : D-3 01 5 P81 ... : G-3 01 3 ... ...
ROW E1 : ... .. D ... ... ... : ... .. 6 ... ... ... : ... .. . ... : ... .. . ... : ... .. . ... ... : ... .. 5 ... ... : ... .. 4 ... ... : ... .. 4 ... ...
ROW E2 : ... .. C ... ... ... : ... .. . ... ... ... : ... .. . ... : ... .. . ... : ... .. . ... ... : ... .. . ... ... : ... .. . ... ... : ... .. . ... ...
ROW E3 : ... .. 9 ... ... ... : ... .. 4 ... ... ... : ... .. . ... : ... .. . ... : ... .. . ... ... : ... .. 4 ... ... : ... .. . ... ... : ... .. . ... ...
ROW E4 : ... .. . ... ... ... : ... .. . ... ... ... : ... .. . ... : ... .. . ... : ... .. . ... ... : ... .. . ... ... : ... .. 3 ... ... : ... .. . ... ...
ROW E5 : ... .. . ... ... ... : ... .. . ... ... ... : ... .. . ... : ... .. . ... : ... .. . ... ... : ... .. . ... ... : ... .. . ... ... : ... .. . ... ...
ROW E6 : ... .. . ... ... ... : ... .. 1 ... ... ... : ... .. . ... : ... .. . ... : ... .. . ... ... : ... .. 3 ... ... : ... .. . ... ... : ... .. . ... ...
ROW E7 : ... .. . ... ... ... : ... .. . ... ... ... : ... .. . ... : ... .. . ... : ... .. . ... ... : ... .. . ... ... : ... .. . ... ... : ... .. . ... ...
ROW E8 : ... .. . ... ... ... : ... .. . ... ... ... : ... .. . ... : ... .. . ... : ... .. . ... ... : ... .. . ... ... : ... .. . ... ... : ... .. . ... ...
ROW E9 : ... .. . ... ... ... : ... .. . ... ... ... : ... .. . ... : ... .. . ... : ... .. . ... ... : ... .. . ... ... : ... .. . ... ... : ... .. . ... ...
ROW EA : ... .. . ... ... ... : D-3 00 7 ... ... ... : ... .. . ... : ... .. . ... : ... .. . ... ... : ... .. 2 ... ... : ... .. . ... ... : ... .. . ... ...
ROW EB : ... .. . ... ... ... : ... .. 6 ... ... ... : ... .. . ... : ... .. . ... : ... .. . ... ... : ... .. . ... ... : ... .. . ... ... : ... .. . ... ...
ROW EC : ... .. . ... ... ... : ... .. . ... ... ... : ... .. . ... : ... .. . ... : ... .. . ... ... : ... .. . ... ... : ... .. . ... ... : ... .. . ... ...
ROW ED : ... .. . ... ... ... : ... .. 4 ... ... ... : ... .. . ... : ... .. . ... : ... .. . ... ... : ... .. . ... ... : ... .. . ... ... : ... .. . ... ...
ROW EE : ... .. . ... ... ... : ... .. . ... ... ... : ... .. . ... : ... .. . ... : ... .. . ... ... : ... .. . ... ... : ... .. . ... ... : ... .. . ... ...
ROW EF : ... .. . ... ... ... : ... .. . ... ... ... : ... .. . ... : ... .. . ... : ... .. . ... ... : ... .. . ... ... : ... .. . ... ... : ... .. . ... ...
ROW F0 : ... .. . ... ... ... : ... .. . ... ... ... : ... .. . ... : ... .. . ... : ... .. . ... ... : ... .. . ... ... : ... .. . ... ... : ... .. . ... ...
ROW F1 : ... .. . ... ... ... : ... .. . ... ... ... : ... .. . ... : ... .. . ... : ... .. . ... ... : ... .. . ... ... : ... .. . ... ... : ... .. . ... ...
ROW F2 : ... .. . ... ... ... : ... .. . ... ... ... : ... .. . ... : ... .. . ... : ... .. . ... ... : ... .. . ... ... : ... .. . ... ... : ... .. . ... ...
ROW F3 : ... .. . ... ... ... : ... .. . ... ... ... : ... .. . ... : ... .. . ... : ... .. . ... ... : ... .. . ... ... : ... .. . ... ... : ... .. . ... ...
ROW F4 : C#3 00 E ... ... ... : ... .. . ... ... ... : --- .. . ... : ... .. . ... : ... .. . ... ... : ... .. . ... ... : ... .. . ... ... : ... .. . ... ...
ROW F5 : ... .. D ... ... ... : ... .. . ... ... ... : ... .. . ... : ... .. . ... : ... .. . ... ... : ... .. . ... ... : ... .. . ... ... : ... .. . ... ...
ROW F6 : ... .. C ... ... ... : ... .. . ... ... ... : ... .. . ... : ... .. . ... : ... .. . ... ... : ... .. . ... ... : ... .. . ... ... : ... .. . ... ...
ROW F7 : ... .. 9 ... ... ... : ... .. . ... ... ... : ... .. . ... : ... .. . ... : ... .. . ... ... : ... .. . ... ... : ... .. . ... ... : ... .. . ... ...
ROW F8 : ... .. . ... ... ... : ... .. . ... ... ... : ... .. . ... : ... .. . ... : ... .. . ... ... : ... .. . ... ... : ... .. . ... ... : ... .. . ... ...
ROW F9 : ... .. . ... ... ... : ... .. . ... ... ... : ... .. . ... : ... .. . ... : ... .. . ... ... : ... .. . ... ... : ... .. . ... ... : ... .. . ... ...
ROW FA : ... .. 1 ... ... ... : ... .. . ... ... ... : ... .. . ... : ... .. . ... : ... .. . ... ... : ... .. . ... ... : ... .. . ... ... : ... .. . ... ...
ROW FB : ... .. . ... ... ... : ... .. . ... ... ... : ... .. . ... : ... .. . ... : ... .. . ... ... : ... .. . ... ... : ... .. . ... ... : ... .. . ... ...
ROW FC : ... .. . ... ... ... : ... .. . ... ... ... : ... .. . ... : ... .. . ... : ... .. . ... ... : ... .. . ... ... : ... .. . ... ... : ... .. . ... ...
ROW FD : ... .. . ... ... ... : ... .. . ... ... ... : ... .. . ... : ... .. . ... : ... .. . ... ... : ... .. . ... ... : ... .. . ... ... : ... .. . ... ...
ROW FE : B-2 00 E ... ... ... : C#3 00 7 ... ... ... : ... .. . ... : ... .. . ... : ... .. . ... ... : ... .. 3 ... ... : ... .. . ... ... : ... .. . ... ...
ROW FF : ... .. D ... ... ... : ... .. 6 ... ... ... : ... .. . ... : ... .. . ... : ... .. . ... ... : ... .. 1 ... ... : ... .. 1 ... ... : ... .. 1 ... ...

PATTERN 0C
ROW 00 : ... .. C ... ... ... : ... .. . ... ... ... : ... .. . ... : ... .. . ... : ... .. . ... ... : ... .. . ... ... : ... .. . ... ... : ... .. . ... ...
ROW 01 : ... .. 9 ... ... ... : ... .. 4 ... ... ... : ... .. . ... : ... .. . ... : ... .. . ... ... : ... .. . ... ... : ... .. . ... ... : ... .. . ... ...
ROW 02 : ... .. . ... ... ... : ... .. . ... ... ... : ... .. . ... : ... .. . ... : ... .. . ... ... : ... .. . ... ... : ... .. . ... ... : ... .. . ... ...
ROW 03 : ... .. . ... ... ... : ... .. . ... ... ... : ... .. . ... : ... .. . ... : ... .. . ... ... : ... .. . ... ... : ... .. . ... ... : ... .. . ... ...
ROW 04 : ... .. 1 ... ... ... : ... .. 1 ... ... ... : ... .. . ... : ... .. . ... : ... .. . ... ... : ... .. . ... ... : ... .. . ... ... : ... .. . ... ...
ROW 05 : ... .. . ... ... ... : ... .. . ... ... ... : ... .. . ... : ... .. . ... : ... .. . ... ... : ... .. . ... ... : ... .. . ... ... : ... .. . ... ...
ROW 06 : ... .. . ... ... ... : ... .. . ... ... ... : ... .. . ... : ... .. . ... : ... .. . ... ... : ... .. . ... ... : ... .. . ... ... : ... .. . ... ...
ROW 07 : ... .. . ... ... ... : ... .. . ... ... ... : ... .. . ... : ... .. . ... : ... .. . ... ... : ... .. . ... ... : ... .. . ... ... : ... .. . ... ...
ROW 08 : A-2 00 E ... ... ... : B-2 00 7 ... ... ... : F#2 00 . ... : ... .. . ... : ... .. . ... ... : C#3 01 5 ... ... : E-3 01 5 ... ... : A-3 01 3 ... ...
ROW 09 : ... .. D ... ... ... : ... .. 6 ... ... ... : ... .. . ... : ... .. . ... : ... .. . ... ... : ... .. 4 ... ... : ... .. 4 ... ... : ... .. 4 ... ...
ROW 0A : ... .. C ... ... ... : ... .. . ... ... ... : ... .. . ... : ... .. . ... : ... .. . ... ... : ... .. . ... ... : ... .. . ... ... : ... .. . ... ...
ROW 0B : ... .. 9 ... ... ... : ... .. 4 ... ... ... : ... .. . ... : ... .. . ... : ... .. . ... ... : ... .. . ... ... : ... .. . ... ... : ... .. . ... ...
ROW 0C : ... .. . ... ... ... : ... .. . ... ... ... : ... .. . ... : ... .. . ... : ... .. . ... ... : ... .. 3 ... ... : ... .. 3 ... ... : ... .. . ... ...
ROW 0D : ... .. . ... ... ... : ... .. . ... ... ... : ... .. . ... : ... .. . ... : ... .. . ... ... : ... .. . ... ... : ... .. . ... ... : ... .. . ... ...
ROW 0E : ... .. . ... ... ... : ... .. 1 ... ... ... : ... .. . ... : ... .. . ... : ... .. . ... ... : ... .. 2 ... ... : ... .. . ... ... : ... .. . ... ...
ROW 0F : ... .. . ... ... ... : ... .. . ... ... ... : ... .. . ... : ... .. . ... : ... .. . ... ... : ... .. . ... ... : ... .. . ... ... : ... .. . ... ...
ROW 10 : ... .. . ... ... ... : ... .. . ... ... ... : ... .. . ... : ... .. . ... : ... .. . ... ... : ... .. . ... ... : ... .. . ... ... : ... .. . ... ...
ROW 11 : ... .. . ... ... ... : ... .. . ... ... ... : ... .. . ... : ... .. . ... : ... .. . ... ... : ... .. . ... ... : ... .. . ... ... : ... .. . ... ...
ROW 12 : ... .. . ... ... ... : A-2 00 7 ... ... ... : ... .. . ... : ... .. . ... : ... .. . ... ... : ... .. . ... ... : ... .. . ... ... : ... .. . ... ...
ROW 13 : ... .. 1 ... ... ... : ... .. 6 ... ... ... : ... .. . ... : ... .. . ... : ... .. . ... ... : ... .. . ... ... : ... .. . ... ... : ... .. . ... ...
ROW 14 : ... .. . ... ... ... : ... .. . ... ... ... : ... .. . ... : ... .. . ... : ... .. . ... ... : ... .. . ... ... : ... .. . ... ... : ... .. . ... ...
ROW 15 : ... .. . ... ... ... : ... .. 4 ... ... ... : ... .. . ... : ... .. . ... : ... .. . ... ... : ... .. . ... ... : ... .. . ... ... : ... .. . ... ...
ROW 16 : ... .. . ... ... ... : ... .. . ... ... ... : ... .. . ... : ... .. . ... : ... .. . ... ... : ... .. . ... ... : ... .. . ... ... : ... .. . ... ...
ROW 17 : ... .. . ... ... ... : ... .. . ... ... ... : ... .. . ... : ... .. . ... : ... .. . ... ... : ... .. 1 ... ... : ... .. . ... ... : ... .. . ... ...
ROW 18 : ... .. . ... ... ... : ... .. . ... ... ... : ... .. . ... : ... .. . ... : ... .. . ... ... : ... .. . ... ... : ... .. . ... ... : ... .. . ... ...
ROW 19 : ... .. 0 ... V00 ... : ... .. . ... ... ... : ... .. . ... : ... .. . ... : ... .. . ... ... : ... .. . ... ... : ... .. . ... ... : ... .. . ... ...
ROW 1A : ... .. . ... ... ... : ... .. . ... ... ... : ... .. . ... : ... .. . ... : ... .. . ... ... : ... .. . ... ... : ... .. . ... ... : ... .. . ... ...
ROW 1B : ... .. . ... ... ... : ... .. . ... ... ... : ... .. . ... : ... .. . ... : ... .. . ... ... : ... .. . ... ... : ... .. . ... ... : ... .. . ... ...
ROW 1C : C#3 00 E P80 V01 ... : ... .. . ... ... ... : --- .. . ... : ... .. . ... : ... .. . ... ... : ... .. . ... ... : ... .. . ... ... : ... .. . ... ...
ROW 1D : ... .. D ... ... ... : ... .. 1 ... ... ... : ... .. . ... : ... .. . ... : ... .. . ... ... : ... .. . ... ... : ... .. . ... ... : ... .. . ... ...
ROW 1E : ... .. C ... ... ... : ... .. . ... ... ... : ... .. . ... : ... .. . ... : ... .. . ... ... : ... .. . ... ... : ... .. . ... ... : ... .. . ... ...
ROW 1F : ... .. 9 ... ... ... : ... .. . ... ... ... : ... .. . ... : ... .. . ... : ... .. . ... ... : ... .. . ... ... : ... .. . ... ... : ... .. . ... ...
ROW 20 : ... .. . ... ... ... : ... .. . ... ... ... : ... .. . ... : ... .. . ... : ... .. . ... ... : ... .. . ... ... : ... .. . ... ... : ... .. . ... ...
ROW 21 : ... .. . ... ... ... : ... .. . ... ... ... : ... .. . ... : ... .. . ... : ... .. . ... ... : ... .. . ... ... : ... .. . ... ... : ... .. . ... ...
ROW 22 : ... .. . ... ... ... : ... .. . ... ... ... : ... .. . ... : ... .. . ... : ... .. . ... ... : ... .. . ... ... : ... .. . ... ... : ... .. . ... ...
ROW 23 : ... .. . ... ... ... : ... .. 0 ... V00 ... : ... .. . ... : ... .. . ... : ... .. . ... ... : ... .. . ... ... : ... .. . ... ... : ... .. . ... ...
ROW 24 : ... .. . ... ... ... : ... .. . ... ... ... : ... .. . ... : ... .. . ... : ... .. . ... ... : ... .. . ... ... : ... .. . ... ... : ... .. . ... ...
ROW 25 : ... .. . ... ... ... : ... .. . ... ... ... : ... .. . ... : ... .. . ... : ... .. . ... ... : ... .. . ... ... : ... .. . ... ... : ... .. . ... ...
ROW 26 : ... .. . ... ... ... : C#3 00 7 P81 V01 ... : ... .. . ... : ... .. . ... : ... .. . ... ... : --- .. . P83 ... : ... .. . ... ... : ... .. . ... ...
ROW 27 : ... .. . ... ... ... : ... .. 6 ... ... ... : ... .. . ... : ... .. . ... : ... .. . ... ... : ... .. . ... ... : ... .. 1 ... ... : ... .. 1 ... ...
ROW 28 : ... .. . ... ... ... : ... .. . ... ... ... : ... .. . ... : ... .. . ... : ... .. . ... ... : ... .. . ... ... : ... .. . ... ... : ... .. . ... ...
ROW 29 : ... .. . ... ... ... : ... .. 4 ... ... ... : ... .. . ... : ... .. . ... : ... .. . ... ... : ... .. . ... ... : ... .. . ... ... : ... .. . ... ...
ROW 2A : ... .. . ... ... ... : ... .. . ... ... ... : ... .. . ... : ... .. . ... : ... .. . ... ... : ... .. . ... ... : ... .. . ... ... : ... .. . ... ...
ROW 2B : ... .. . ... ... ... : ... .. . ... ... ... : ... .. . ... : ... .. . ... : ... .. . ... ... : ... .. . ... ... : ... .. . ... ... : ... .. . ... ...
ROW 2C : ... .. . ... ... ... : ... .. . ... ... ... : ... .. . ... : ... .. . ... : ... .. . ... ... : ... .. . ... ... : ... .. . ... ... : ... .. . ... ...
ROW 2D : ... .. . ... ... ... : ... .. . ... ... ... : ... .. . ... : ... .. . ... : ... .. . ... ... : ... .. . ... ... : ... .. . ... ... : ... .. . ... ...
ROW 2E : ... .. . ... ... ... : ... .. . ... ... ... : ... .. . ... : ... .. . ... : ... .. . ... ... : ... .. . ... ... : ... .. . ... ... : ... .. . ... ...
ROW 2F : ... .. . ... ... ... : ... .. . ... ... ... : ... .. . ... : ... .. . ... : ... .. . ... ... : ... .. . ... ... : ... .. . ... ... : ... .. . ... ...
ROW 30 : B-2 00 E ... ... ... : ... .. . ... ... ... : B-1 00 . ... : ... .. . ... : ... .. . ... ... : B-2 01 6 P80 ... : C#3 01 5 ... ... : F#3 01 3 ... ...
ROW 31 : ... .. D ... ... ... : ... .. . ... ... ... : ... .. . ... : ... .. . ... : ... .. . ... ... : ... .. 5 ... ... : ... .. 4 ... ... : ... .. 4 ... ...
ROW 32 : ... .. C ... ... ... : ... .. . ... ... ... : ... .. . ... : ... .. . ... : ... .. . ... ... : ... .. . ... ... : ... .. . ... ... : ... .. . ... ...
ROW 33 : ... .. 9 ... ... ... : ... .. . ... ... ... : ... .. . ... : ... .. . ... : ... .. . ... ... : ... .. 4 ... ... : ... .. . ... ... : ... .. . ... ...
ROW 34 : ... .. . ... ... ... : ... .. . ... ... ... : ... .. . ... : ... .. . ... : ... .. . ... ... : ... .. . ... ... : ... .. 3 ... ... : ... .. . ... ...
ROW 35 : ... .. . ... ... ... : ... .. . ... ... ... : ... .. . ... : ... .. . ... : ... .. . ... ... : ... .. . ... ... : ... .. . ... ... : ... .. . ... ...
ROW 36 : ... .. . ... ... ... : ... .. . ... ... ... : ... .. . ... : ... .. . ... : ... .. . ... ... : ... .. 3 ... ... : ... .. . ... ... : ... .. . ... ...
ROW 37 : ... .. . ... ... ... : ... .. . ... ... ... : ... .. . ... : ... .. . ... : ... .. . ... ... : ... .. . ... ... : ... .. . ... ... : ... .. . ... ...
ROW 38 : ... .. . ... ... ... : ... .. . ... ... ... : ... .. . ... : ... .. . ... : ... .. . ... ... : ... .. . ... ... : ... .. . ... ... : ... .. . ... ...
ROW 39 : ... .. . ... ... ... : ... .. . ... ... ... : ... .. . ... : ... .. . ... : ... .. . ... ... : ... .. . ... ... : ... .. . ... ... : ... .. . ... ...
ROW 3A : ... .. . ... ... ... : B-2 00 7 ... ... ... : ... .. . ... : ... .. . ... : ... .. . ... ... : ... .. 2 ... ... : ... .. . ... ... : ... .. . ... ...
ROW 3B : ... .. . ... ... ... : ... .. 6 ... ... ... : ... .. . ... : ... .. . ... : ... .. . ... ... : ... .. . ... ... : ... .. . ... ... : ... .. . ... ...
ROW 3C : ... .. . ... ... ... : ... .. . ... ... ... : ... .. . ... : ... .. . ... : ... .. . ... ... : ... .. . ... ... : ... .. . ... ... : ... .. . ... ...
ROW 3D : ... .. . ... ... ... : ... .. 4 ... ... ... : ... .. . ... : ... .. . ... : ... .. . ... ... : ... .. . ... ... : ... .. . ... ... : ... .. . ... ...
ROW 3E : ... .. . ... ... ... : ... .. . ... ... ... : ... .. . ... : ... .. . ... : ... .. . ... ... : ... .. . ... ... : ... .. . ... ... : ... .. . ... ...
ROW 3F : ... .. . ... ... ... : ... .. . ... ... ... : ... .. . ... : ... .. . ... : ... .. . ... ... : ... .. . ... ... : ... .. . ... ... : ... .. . ... ...
ROW 40 : ... .. . ... ... ... : ... .. . ... ... ... : ... .. . ... : ... .. . ... : ... .. . ... ... : ... .. . ... ... : ... .. . ... ... : ... .. . ... ...
ROW 41 : ... .. . ... ... ... : ... .. . ... ... ... : ... .. . ... : ... .. . ... : ... .. . ... ... : ... .. . ... ... : ... .. . ... ... : ... .. . ... ...
ROW 42 : ... .. . ... ... ... : ... .. . ... ... ... : ... .. . ... : ... .. . ... : ... .. . ... ... : ... .. . ... ... : ... .. . ... ... : ... .. . ... ...
ROW 43 : ... .. . ... ... ... : ... .. . ... ... ... : ... .. . ... : ... .. . ... : ... .. . ... ... : ... .. . ... ... : ... .. . ... ... : ... .. . ... ...
ROW 44 : ... .. . ... ... ... : ... .. . ... ... ... : ... .. . ... : ... .. . ... : ... .. . ... ... : ... .. . ... ... : ... .. . ... ... : ... .. . ... ...
ROW 45 : ... .. 1 ... ... ... : ... .. . ... ... ... : ... .. . ... : ... .. . ... : ... .. . ... ... : ... .. . ... ... : ... .. . ... ... : ... .. . ... ...
ROW 46 : ... .. . ... ... ... : ... .. . ... ... ... : ... .. . ... : ... .. . ... : ... .. . ... ... : ... .. . ... ... : ... .. . ... ... : ... .. . ... ...
ROW 47 : ... .. . ... ... ... : ... .. . ... ... ... : ... .. . ... : ... .. . ... : ... .. . ... ... : ... .. . ... ... : ... .. . ... ... : ... .. . ... ...
ROW 48 : ... .. . ... ... ... : ... .. . ... ... ... : ... .. . ... : ... .. . ... : ... .. . ... ... : ... .. . ... ... : ... .. . ... ... : ... .. . ... ...
ROW 49 : ... .. . ... ... ... : ... .. . ... ... ... : ... .. . ... : ... .. . ... : ... .. . ... ... : ... .. . ... ... : ... .. . ... ... : ... .. . ... ...
ROW 4A : ... .. . ... ... ... : ... .. . ... ... ... : ... .. . ... : ... .. . ... : ... .. . ... ... : ... .. . ... ... : ... .. . ... ... : ... .. . ... ...
ROW 4B : ... .. 0 ... V00 ... : ... .. . ... ... ... : ... .. . ... : ... .. . ... : ... .. . ... ... : ... .. . ... ... : ... .. . ... ... : ... .. . ... ...
ROW 4C : ... .. . ... ... ... : ... .. . ... ... ... : ... .. . ... : ... .. . ... : ... .. . ... ... : ... .. . ... ... : ... .. . ... ... : ... .. . ... ...
ROW 4D : ... .. . ... ... ... : ... .. . ... ... ... : ... .. . ... : ... .. . ... : ... .. . ... ... : ... .. . ... ... : ... .. . ... ... : ... .. . ... ...
ROW 4E : ... .. . ... ... ... : ... .. . ... ... ... : ... .. . ... : ... .. . ... : ... .. . ... ... : ... .. 3 ... ... : ... .. . ... ... : ... .. . ... ...
ROW 4F : ... .. . ... ... ... : ... .. 1 ... ... ... : ... .. . ... : ... .. . ... : ... .. . ... ... : ... .. . ... ... : ... .. . ... ... : ... .. . ... ...
ROW 50 : ... .. . ... ... ... : ... .. . ... ... ... : ... .. . ... : ... .. . ... : ... .. . ... ... : ... .. . ... ... : ... .. . ... ... : ... .. . ... ...
ROW 51 : ... .. . ... ... ... : ... .. . ... ... ... : ... .. . ... : ... .. . ... : ... .. . ... ... : ... .. . ... ... : ... .. . ... ... : ... .. . ... ...
ROW 52 : ... .. . ... ... ... : ... .. . ... ... ... : ... .. . ... : ... .. . ... : ... .. . ... ... : ... .. . ... ... : ... .. . ... ... : ... .. . ... ...
ROW 53 : ... .. . ... ... ... : ... .. . ... ... ... : ... .. . ... : ... .. . ... : ... .. . ... ... : ... .. 4 ... ... : ... .. . ... ... : ... .. . ... ...
ROW 54 : ... .. . ... ... ... : ... .. . ... ... ... : ... .. . ... : ... .. . ... : ... .. . ... ... : ... .. . ... ... : ... .. . ... ... : ... .. . ... ...
ROW 55 : ... .. . ... ... ... : ... .. 0 ... V00 ... : ... .. . ... : ... .. . ... : ... .. . ... ... : ... .. . ... ... : ... .. . ... ... : ... .. . ... ...
ROW 56 : ... .. . ... ... ... : ... .. . ... ... ... : ... .. . ... : ... .. . ... : ... .. . ... ... : ... .. . ... ... : ... .. . ... ... : ... .. . ... ...
ROW 57 : ... .. . ... ... ... : ... .. . ... ... ... : ... .. . ... : ... .. . ... : ... .. . ... ... : ... .. . ... ... : ... .. . ... ... : ... .. . ... ...
ROW 58 : ... .. . ... ... ... : ... .. . ... ... ... : ... .. . ... : ... .. . ... : ... .. . ... ... : A-2 01 6 ... ... : B-2 01 5 ... ... : E-3 01 3 ... ...
ROW 59 : ... .. . ... ... ... : ... .. . ... ... ... : ... .. . ... : ... .. . ... : ... .. . ... ... : ... .. 5 ... ... : ... .. 4 ... ... : ... .. 4 ... ...
ROW 5A : ... .. . ... ... ... : ... .. . ... ... ... : ... .. . ... : ... .. . ... : ... .. . ... ... : ... .. . ... ... : ... .. . ... ... : ... .. . ... ...
ROW 5B : ... .. . ... ... ... : ... .. . ... ... ... : ... .. . ... : ... .. . ... : ... .. . ... ... : ... .. 4 ... ... : ... .. . ... ... : ... .. . ... ...
ROW 5C : ... .. . ... ... ... : ... .. . ... ... ... : ... .. . ... : ... .. . ... : ... .. . ... ... : ... .. . ... ... : ... .. 3 ... ... : ... .. . ... ...
ROW 5D : ... .. . ... ... ... : ... .. . ... ... ... : ... .. . ... : ... .. . ... : ... .. . ... ... : ... .. 3 ... ... : ... .. . ... ... : ... .. . ... ...
ROW 5E : ... .. . ... ... ... : ... .. . ... ... ... : ... .. . ... : ... .. . ... : ... .. . ... ... : ... .. 2 ... ... : ... .. . ... ... : ... .. . ... ...
ROW 5F : ... .. . ... ... ... : ... .. . ... ... ... : ... .. . ... : ... .. . ... : ... .. . ... ... : ... .. . ... ... : ... .. . ... ... : ... .. . ... ...
ROW 60 : ... .. . ... ... ... : ... .. . ... ... ... : ... .. . ... : ... .. . ... : ... .. . ... ... : ... .. . ... ... : ... .. . ... ... : ... .. . ... ...
ROW 61 : ... .. . ... ... ... : ... .. . ... ... ... : ... .. . ... : ... .. . ... : ... .. . ... ... : ... .. . ... ... : ... .. . ... ... : ... .. . ... ...
ROW 62 : ... .. . ... ... ... : ... .. . ... ... ... : --- .. . ... : ... .. . ... : ... .. . ... ... : ... .. . ... ... : ... .. . ... ... : ... .. . ... ...
ROW 63 : ... .. . ... ... ... : ... .. . ... ... ... : ... .. . ... : ... .. . ... : ... .. . ... ... : ... .. . ... ... : ... .. . ... ... : ... .. . ... ...
ROW 64 : ... .. . ... ... ... : ... .. . ... ... ... : ... .. . ... : ... .. . ... : ... .. . ... ... : ... .. . ... ... : ... .. . ... ... : ... .. . ... ...
ROW 65 : ... .. . ... ... ... : ... .. . ... ... ... : ... .. . ... : ... .. . ... : ... .. . ... ... : ... .. . ... ... : ... .. . ... ... : ... .. . ... ...
ROW 66 : ... .. . ... ... ... : ... .. . ... ... ... : ... .. . ... : ... .. . ... : ... .. . ... ... : ... .. . ... ... : ... .. . ... ... : ... .. . ... ...
ROW 67 : ... .. . ... ... ... : ... .. . ... ... ... : ... .. . ... : ... .. . ... : ... .. . ... ... : ... .. 1 ... ... : ... .. . ... ... : ... .. . ... ...
ROW 68 : ... .. . ... ... ... : ... .. . ... ... ... : ... .. . ... : ... .. . ... : ... .. . ... ... : ... .. . ... ... : ... .. . ... ... : ... .. . ... ...
ROW 69 : ... .. . ... ... ... : ... .. . ... ... ... : ... .. . ... : ... .. . ... : ... .. . ... ... : ... .. . ... ... : ... .. . ... ... : ... .. . ... ...
ROW 6A : ... .. . ... ... ... : ... .. . ... ... ... : ... .. . ... : ... .. . ... : ... .. . ... ... : ... .. . ... ... : ... .. . ... ... : ... .. . ... ...
ROW 6B : ... .. . ... ... ... : ... .. . ... ... ... : ... .. . ... : ... .. . ... : ... .. . ... ... : ... .. . ... ... : ... .. . ... ... : ... .. . ... ...
ROW 6C : ... .. . ... ... ... : C#3 00 8 P81 V02 ... : F#1 00 . ... : ... .. . ... : ... .. . ... ... : ... .. . ... ... : ... .. . ... ... : ... .. . ... ...
ROW 6D : ... .. . ... ... ... : ... .. 7 ... ... ... : ... .. . ... : ... .. . ... : ... .. . ... ... : ... .. . ... ... : ... .. . ... ... : ... .. . ... ...
ROW 6E : ... .. . ... ... ... : ... .. . ... ... ... : ... .. . ... : ... .. . ... : ... .. . ... ... : ... .. . ... ... : ... .. . ... ... : ... .. . ... ...
ROW 6F : ... .. . ... ... ... : ... .. 6 ... ... ... : ... .. . ... : ... .. . ... : ... .. . ... ... : ... .. . ... ... : ... .. . ... ... : ... .. . ... ...
ROW 70 : ... .. . ... ... ... : ... .. 5 ... ... ... : ... .. . ... : ... .. . ... : ... .. . ... ... : ... .. . ... ... : ... .. . ... ... : ... .. . ... ...
ROW 71 : ... .. . ... ... ... : ... .. 4 P80 ... ... : ... .. . ... : ... .. . ... : ... .. . ... ... : ... .. . ... ... : ... .. . ... ... : ... .. . ... ...
ROW 72 : ... .. . ... ... ... : ... .. . ... ... ... : ... .. . ... : ... .. . ... : ... .. . ... ... : ... .. . ... ... : ... .. . ... ... : ... .. . ... ...
ROW 73 : ... .. . ... ... ... : ... .. . ... ... ... : ... .. . ... : ... .. . ... : ... .. . ... ... : ... .. . ... ... : ... .. . ... ... : ... .. . ... ...
ROW 74 : ... .. . ... ... ... : ... .. 3 ... ... ... : ... .. . ... : ... .. . ... : ... .. . ... ... : ... .. . ... ... : ... .. . ... ... : ... .. . ... ...
ROW 75 : ... .. . ... ... ... : ... .. . ... ... ... : ... .. . ... : ... .. . ... : ... .. . ... ... : ... .. . ... ... : ... .. . ... ... : ... .. . ... ...
ROW 76 : ... .. . ... ... ... : ... .. 2 ... ... ... : ... .. . ... : ... .. . ... : ... .. . ... ... : --- .. . P82 ... : ... .. . ... ... : ... .. . ... ...
ROW 77 : ... .. . ... ... ... : ... .. . ... ... ... : ... .. . ... : ... .. . ... : ... .. . ... ... : ... .. . ... ... : ... .. . ... ... : ... .. . ... ...
ROW 78 : ... .. . ... ... ... : ... .. . ... ... ... : ... .. . ... : ... .. . ... : ... .. . ... ... : ... .. . ... ... : ... .. . ... ... : ... .. . ... ...
ROW 79 : ... .. . ... ... ... : ... .. 1 ... ... ... : ... .. . ... : ... .. . ... : ... .. . ... ... : ... .. . ... ... : ... .. . ... ... : ... .. . ... ...
ROW 7A : ... .. . ... ... ... : ... .. . ... ... ... : ... .. . ... : ... .. . ... : ... .. . ... ... : ... .. . ... ... : ... .. . ... ... : ... .. . ... ...
ROW 7B : ... .. . ... ... ... : ... .. . ... ... ... : ... .. . ... : ... .. . ... : ... .. . ... ... : ... .. . ... ... : ... .. . ... ... : ... .. . ... ...
ROW 7C : ... .. . ... ... ... : ... .. 0 ... V00 ... : ... .. . ... : ... .. . ... : ... .. . ... ... : ... .. . ... ... : ... .. . ... ... : ... .. . ... ...
ROW 7D : ... .. . ... ... ... : ... .. . ... ... ... : ... .. . ... : ... .. . ... : ... .. . ... ... : ... .. . ... ... : ... .. . ... ... : ... .. . ... ...
ROW 7E : ... .. . ... ... ... : ... .. . ... ... ... : ... .. . ... : ... .. . ... : ... .. . ... ... : ... .. . ... ... : ... .. . ... ... : ... .. . ... ...
ROW 7F : ... .. . ... ... ... : ... .. . ... ... ... : ... .. . ... : ... .. . ... : ... .. . ... ... : ... .. . ... ... : ... .. . ... ... : ... .. . ... ...
ROW 80 : ... .. . ... ... ... : D#3 00 A P80 V02 ... : B-1 00 . ... : ... .. . ... : ... .. . ... ... : B-2 01 6 P80 ... : C#3 01 1 ... ... : ... .. 1 ... ...
ROW 81 : ... .. . ... ... ... : ... .. 9 ... ... ... : ... .. . ... : ... .. . ... : ... .. . ... ... : ... .. 5 ... ... : ... .. . ... ... : ... .. . ... ...
ROW 82 : ... .. . ... ... ... : ... .. 8 ... ... ... : ... .. . ... : ... .. . ... : ... .. . ... ... : ... .. . ... ... : ... .. . ... ... : ... .. . ... ...
ROW 83 : ... .. . ... ... ... : ... .. 6 ... ... ... : ... .. . ... : ... .. . ... : ... .. . ... ... : ... .. 4 ... ... : ... .. . ... ... : ... .. . ... ...
ROW 84 : ... .. . ... ... ... : ... .. . ... ... ... : ... .. . ... : ... .. . ... : ... .. . ... ... : ... .. . ... ... : ... .. . ... ... : ... .. . ... ...
ROW 85 : ... .. . ... ... ... : ... .. . ... ... ... : ... .. . ... : ... .. . ... : ... .. . ... ... : ... .. . ... ... : ... .. . ... ... : ... .. . ... ...
ROW 86 : ... .. . ... ... ... : ... .. 1 ... ... ... : ... .. . ... : ... .. . ... : ... .. . ... ... : ... .. 3 ... ... : ... .. . ... ... : ... .. . ... ...
ROW 87 : ... .. . ... ... ... : ... .. . ... ... ... : ... .. . ... : ... .. . ... : ... .. . ... ... : ... .. . ... ... : ... .. . ... ... : ... .. . ... ...
ROW 88 : ... .. . ... ... ... : ... .. . ... ... ... : ... .. . ... : ... .. . ... : ... .. . ... ... : ... .. . ... ... : ... .. . ... ... : ... .. . ... ...
ROW 89 : ... .. . ... ... ... : ... .. . ... ... ... : ... .. . ... : ... .. . ... : ... .. . ... ... : ... .. . ... ... : ... .. . ... ... : ... .. . ... ...
ROW 8A : ... .. . ... ... ... : C#3 00 A ... ... ... : ... .. . ... : ... .. . ... : ... .. . ... ... : ... .. 2 ... ... : ... .. . ... ... : ... .. . ... ...
ROW 8B : ... .. . ... ... ... : ... .. 9 ... ... ... : ... .. . ... : ... .. . ... : ... .. . ... ... : ... .. . ... ... : ... .. . ... ... : ... .. . ... ...
ROW 8C : ... .. . ... ... ... : ... .. 8 ... ... ... : ... .. . ... : ... .. . ... : ... .. . ... ... : ... .. . ... ... : ... .. . ... ... : ... .. . ... ...
ROW 8D : ... .. . ... ... ... : ... .. 6 ... ... ... : ... .. . ... : ... .. . ... : ... .. . ... ... : ... .. . ... ... : ... .. . ... ... : ... .. . ... ...
ROW 8E : ... .. . ... ... ... : ... .. . ... ... ... : ... .. . ... : ... .. . ... : ... .. . ... ... : ... .. . ... ... : ... .. . ... ... : ... .. . ... ...
ROW 8F : ... .. . ... ... ... : ... .. . ... ... ... : ... .. . ... : ... .. . ... : ... .. . ... ... : ... .. . ... ... : ... .. . ... ... : ... .. . ... ...
ROW 90 : ... .. . ... ... ... : ... .. 1 ... ... ... : ... .. . ... : ... .. . ... : ... .. . ... ... : ... .. . ... ... : ... .. . ... ... : ... .. . ... ...
ROW 91 : ... .. . ... ... ... : ... .. . ... ... ... : ... .. . ... : ... .. . ... : ... .. . ... ... : ... .. . ... ... : ... .. . ... ... : ... .. . ... ...
ROW 92 : ... .. . ... ... ... : ... .. . ... ... ... : ... .. . ... : ... .. . ... : ... .. . ... ... : ... .. . ... ... : ... .. . ... ... : ... .. . ... ...
ROW 93 : ... .. . ... ... ... : ... .. . ... ... ... : ... .. . ... : ... .. . ... : ... .. . ... ... : ... .. . ... ... : ... .. . ... ... : ... .. . ... ...
ROW 94 : ... .. . ... ... ... : D#3 00 8 ... ... ... : --- .. . ... : ... .. . ... : ... .. . ... ... : ... .. 4 ... ... : ... .. 6 ... ... : F#2 01 8 ... ...
ROW 95 : ... .. . ... ... ... : ... .. 7 ... ... ... : ... .. . ... : ... .. . ... : ... .. . ... ... : ... .. 3 ... ... : ... .. . ... ... : ... .. 7 ... ...
ROW 96 : ... .. . ... ... ... : ... .. 6 ... ... ... : ... .. . ... : ... .. . ... : ... .. . ... ... : ... .. . ... ... : ... .. . ... ... : ... .. 6 ... ...
ROW 97 : ... .. . ... ... ... : ... .. 5 ... ... ... : ... .. . ... : ... .. . ... : ... .. . ... ... : ... .. . ... ... : ... .. 5 ... ... : ... .. 4 ... ...
ROW 98 : ... .. . ... ... ... : ... .. . ... ... ... : ... .. . ... : ... .. . ... : ... .. . ... ... : ... .. 2 ... ... : ... .. 4 ... ... : ... .. 3 ... ...
ROW 99 : ... .. . ... ... ... : ... .. 6 ... ... ... : ... .. . ... : ... .. . ... : ... .. . ... ... : ... .. 3 ... ... : ... .. 1 ... ... : ... .. 1 ... ...
ROW 9A : ... .. . ... ... ... : ... .. . ... ... ... : ... .. . ... : ... .. . ... : ... .. . ... ... : ... .. 2 ... ... : ... .. . ... ... : ... .. . ... ...
ROW 9B : ... .. . ... ... ... : ... .. . ... ... ... : ... .. . ... : ... .. . ... : ... .. . ... ... : ... .. . ... ... : ... .. . ... ... : ... .. . ... ...
ROW 9C : ... .. . ... ... ... : ... .. . ... ... ... : ... .. . ... : ... .. . ... : ... .. . ... ... : ... .. . ... ... : ... .. . ... ... : ... .. . ... ...
ROW 9D : ... .. . ... ... ... : ... .. . ... ... ... : ... .. . ... : ... .. . ... : ... .. . ... ... : ... .. . ... ... : ... .. . ... ... : ... .. . ... ...
ROW 9E : ... .. . ... ... ... : ... .. . ... ... ... : ... .. . ... : ... .. . ... : ... .. . ... ... : ... .. 3 ... ... : ... .. 4 ... ... : ... .. 8 ... ...
ROW 9F : ... .. . ... ... ... : ... .. . ... ... ... : ... .. . ... : ... .. . ... : ... .. . ... ... : ... .. . ... ... : ... .. . ... ... : ... .. 7 ... ...
ROW A0 : ... .. . ... ... ... : ... .. . ... ... ... : ... .. . ... : ... .. . ... : ... .. . ... ... : ... .. . ... ... : ... .. . ... ... : ... .. 6 ... ...
ROW A1 : ... .. . ... ... ... : ... .. . ... ... ... : ... .. . ... : ... .. . ... : ... .. . ... ... : ... .. . ... ... : ... .. . ... ... : ... .. 4 ... ...
ROW A2 : ... .. . ... ... ... : ... .. . ... ... ... : ... .. . ... : ... .. . ... : ... .. . ... ... : ... .. . ... ... : ... .. . ... ... : ... .. 3 ... ...
ROW A3 : ... .. . ... ... ... : ... .. 8 ... ... ... : ... .. . ... : ... .. . ... : ... .. . ... ... : ... .. 4 ... ... : ... .. 1 ... ... : ... .. 1 ... ...
ROW A4 : ... .. . ... ... ... : ... .. . ... ... ... : ... .. . ... : ... .. . ... : ... .. . ... ... : ... .. . ... ... : ... .. . ... ... : ... .. . ... ...
ROW A5 : ... .. . ... ... ... : ... .. . ... ... ... : ... .. . ... : ... .. . ... : ... .. . ... ... : ... .. . ... ... : ... .. . ... ... : ... .. . ... ...
ROW A6 : ... .. . ... ... ... : ... .. . ... ... ... : ... .. . ... : ... .. . ... : ... .. . ... ... : ... .. . ... ... : ... .. . ... ... : ... .. . ... ...
ROW A7 : ... .. . ... ... ... : ... .. . ... ... ... : ... .. . ... : ... .. . ... : ... .. . ... ... : ... .. . ... ... : ... .. . ... ... : ... .. . ... ...
ROW A8 : F#3 00 8 P81 V01 ... : ... .. . P84 ... ... : B-1 00 . ... : ... .. . ... : ... .. . ... ... : ... .. 5 ... ... : ... .. 2 ... ... : ... .. . ... ...
ROW A9 : ... .. 7 ... ... ... : ... .. . P86 ... ... : ... .. . ... : ... .. . ... : ... .. . ... ... : ... .. 4 ... ... : ... .. . ... ... : ... .. . ... ...
ROW AA : ... .. 6 ... ... ... : ... .. . P85 ... ... : ... .. . ... : ... .. . ... : ... .. . ... ... : ... .. . ... ... : ... .. . ... ... : ... .. . ... ...
ROW AB : ... .. 5 ... ... ... : ... .. . P82 ... ... : ... .. . ... : ... .. . ... : ... .. . ... ... : ... .. . ... ... : ... .. . ... ... : ... .. 0 ... ...
ROW AC : ... .. . ... ... ... : ... .. . P7E ... ... : ... .. . ... : ... .. . ... : ... .. . ... ... : ... .. 3 ... ... : ... .. 1 ... ... : ... .. . ... ...
ROW AD : ... .. . ... ... ... : ... .. A P7B ... ... : ... .. . ... : ... .. . ... : ... .. . ... ... : ... .. . ... ... : ... .. . ... ... : ... .. . ... ...
ROW AE : ... .. . ... ... ... : ... .. . P7A ... ... : ... .. . ... : ... .. . ... : ... .. . ... ... : ... .. 2 ... ... : ... .. . ... ... : ... .. . ... ...
ROW AF : ... .. . ... ... ... : ... .. . P7C ... ... : ... .. . ... : ... .. . ... : ... .. . ... ... : ... .. . ... ... : ... .. . ... ... : ... .. . ... ...
ROW B0 : ... .. . ... ... ... : ... .. . P80 ... ... : ... .. . ... : ... .. . ... : ... .. . ... ... : ... .. . ... ... : ... .. . ... ... : ... .. . ... ...
ROW B1 : ... .. . ... ... ... : ... .. . P83 ... ... : ... .. . ... : ... .. . ... : ... .. . ... ... : ... .. . ... ... : ... .. . ... ... : ... .. . ... ...
ROW B2 : ... .. . ... ... ... : ... .. . P86 ... ... : ... .. . ... : ... .. . ... : ... .. . ... ... : ... .. . ... ... : ... .. . ... ... : ... .. . ... ...
ROW B3 : ... .. . ... ... ... : ... .. . ... ... ... : ... .. . ... : ... .. . ... : ... .. . ... ... : ... .. . ... ... : ... .. . ... ... : ... .. . ... ...
ROW B4 : ... .. . ... ... ... : ... .. . P82 ... ... : ... .. . ... : ... .. . ... : ... .. . ... ... : ... .. . ... ... : ... .. . ... ... : ... .. . ... ...
ROW B5 : ... .. . ... ... ... : ... .. . P7F ... ... : ... .. . ... : ... .. . ... : ... .. . ... ... : ... .. . ... ... : ... .. . ... ... : ... .. . ... ...
ROW B6 : ... .. . ... ... ... : ... .. . P7B ... ... : ... .. . ... : ... .. . ... : ... .. . ... ... : ... .. . ... ... : ... .. . ... ... : ... .. . ... ...
ROW B7 : ... .. . ... ... ... : ... .. . P80 ... ... : ... .. . ... : ... .. . ... : ... .. . ... ... : ... .. 1 ... ... : ... .. . ... ... : ... .. . ... ...
ROW B8 : ... .. . ... ... ... : ... .. 2 ... ... ... : ... .. . ... : ... .. . ... : ... .. . ... ... : ... .. . ... ... : ... .. . ... ... : ... .. . ... ...
ROW B9 : ... .. . ... ... ... : ... .. . ... ... ... : ... .. . ... : ... .. . ... : ... .. . ... ... : ... .. . ... ... : ... .. . ... ... : ... .. . ... ...
ROW BA : ... .. . ... ... ... : ... .. . ... ... ... : ... .. . ... : ... .. . ... : ... .. . ... ... : ... .. . ... ... : ... .. . ... ... : ... .. . ... ...
ROW BB : ... .. . ... ... ... : ... .. 1 ... ... ... : ... .. . ... : ... .. . ... : ... .. . ... ... : ... .. . ... ... : ... .. . ... ... : ... .. . ... ...
ROW BC : E-3 00 8 ... ... ... : C#3 00 A ... ... ... : --- .. . ... : ... .. . ... : ... .. . ... ... : ... .. 2 ... ... : ... .. 6 ... ... : ... .. 8 ... ...
ROW BD : ... .. 7 ... ... ... : ... .. 9 ... ... ... : ... .. . ... : ... .. . ... : ... .. . ... ... : ... .. 1 ... ... : ... .. . ... ... : ... .. 7 ... ...
ROW BE : ... .. 6 ... ... ... : ... .. 8 ... ... ... : ... .. . ... : ... .. . ... : ... .. . ... ... : ... .. . ... ... : ... .. . ... ... : ... .. 6 ... ...
ROW BF : ... .. 5 ... ... ... : ... .. 6 ... ... ... : ... .. . ... : ... .. . ... : ... .. . ... ... : ... .. . ... ... : ... .. 5 ... ... : ... .. 4 ... ...
ROW C0 : ... .. . ... ... ... : ... .. . ... ... ... : ... .. . ... : ... .. . ... : ... .. . ... ... : ... .. . ... ... : ... .. 4 ... ... : ... .. 3 ... ...
ROW C1 : ... .. . ... ... ... : ... .. . ... ... ... : ... .. . ... : ... .. . ... : ... .. . ... ... : ... .. . ... ... : ... .. 1 ... ... : ... .. 1 ... ...
ROW C2 : ... .. 1 ... ... ... : ... .. . ... ... ... : ... .. . ... : ... .. . ... : ... .. . ... ... : ... .. . ... ... : ... .. . ... ... : ... .. . ... ...
ROW C3 : ... .. . ... ... ... : ... .. . ... ... ... : ... .. . ... : ... .. . ... : ... .. . ... ... : ... .. . ... ... : ... .. . ... ... : ... .. . ... ...
ROW C4 : ... .. . ... ... ... : ... .. . ... ... ... : ... .. . ... : ... .. . ... : ... .. . ... ... : ... .. . ... ... : ... .. . ... ... : ... .. . ... ...
ROW C5 : ... .. . ... ... ... : D#3 00 8 ... ... ... : ... .. . ... : ... .. . ... : ... .. . ... ... : ... .. . ... ... : ... .. . ... ... : ... .. . ... ...
ROW C6 : D#3 00 8 ... ... ... : ... .. 7 ... ... ... : ... .. . ... : ... .. . ... : ... .. . ... ... : --- .. . P85 ... : ... .. 4 ... ... : ... .. 8 ... ...
ROW C7 : ... .. 7 ... ... ... : ... .. 6 ... ... ... : ... .. . ... : ... .. . ... : ... .. . ... ... : ... .. . ... ... : ... .. . ... ... : ... .. 7 ... ...
ROW C8 : ... .. 6 ... ... ... : C#3 00 6 ... ... ... : ... .. . ... : ... .. . ... : ... .. . ... ... : ... .. . ... ... : ... .. . ... ... : ... .. 6 ... ...
ROW C9 : ... .. 5 ... ... ... : ... .. 5 ... ... ... : ... .. . ... : ... .. . ... : ... .. . ... ... : ... .. . ... ... : ... .. . ... ... : ... .. 4 ... ...
ROW CA : ... .. . ... ... ... : ... .. . ... ... ... : ... .. . ... : ... .. . ... : ... .. . ... ... : ... .. . ... ... : ... .. . ... ... : ... .. 3 ... ...
ROW CB : ... .. . ... ... ... : ... .. 4 ... ... ... : ... .. . ... : ... .. . ... : ... .. . ... ... : ... .. . ... ... : ... .. 1 ... ... : ... .. 1 ... ...
ROW CC : ... .. 1 ... ... ... : B-2 00 8 ... ... ... : ... .. . ... : ... .. . ... : ... .. . ... ... : ... .. . ... ... : ... .. . ... ... : ... .. . ... ...
ROW CD : ... .. . ... ... ... : ... .. 7 ... ... ... : ... .. . ... : ... .. . ... : ... .. . ... ... : ... .. . ... ... : ... .. . ... ... : ... .. . ... ...
ROW CE : ... .. . ... ... ... : ... .. 6 ... ... ... : ... .. . ... : ... .. . ... : ... .. . ... ... : ... .. . ... ... : ... .. . ... ... : ... .. . ... ...
ROW CF : ... .. . ... ... ... : ... .. 5 ... ... ... : ... .. . ... : ... .. . ... : ... .. . ... ... : ... .. . ... ... : ... .. . ... ... : ... .. . ... ...
ROW D0 : C#3 00 8 ... ... ... : A-2 00 A ... ... ... : F#2 00 . ... : ... .. . ... : ... .. . ... ... : A-2 01 6 P80 ... : ... .. . ... ... : ... .. . ... ...
ROW D1 : ... .. 7 ... ... ... : ... .. 9 ... ... ... : ... .. . ... : ... .. . ... : ... .. . ... ... : ... .. 5 ... ... : ... .. . ... ... : ... .. . ... ...
ROW D2 : ... .. 6 ... ... ... : ... .. 8 ... ... ... : ... .. . ... : ... .. . ... : ... .. . ... ... : ... .. . ... ... : ... .. . ... ... : ... .. . ... ...
ROW D3 : ... .. 5 ... ... ... : ... .. 6 ... ... ... : ... .. . ... : ... .. . ... : ... .. . ... ... : ... .. 4 ... ... : ... .. . ... ... : ... .. 0 ... ...
ROW D4 : ... .. . ... ... ... : ... .. . ... ... ... : ... .. . ... : ... .. . ... : ... .. . ... ... : ... .. . ... ... : ... .. . ... ... : ... .. . ... ...
ROW D5 : ... .. . ... ... ... : ... .. . ... ... ... : ... .. . ... : ... .. . ... : ... .. . ... ... : ... .. . ... ... : ... .. . ... ... : ... .. . ... ...
ROW D6 : ... .. . ... ... ... : ... .. 1 ... ... ... : ... .. . ... : ... .. . ... : ... .. . ... ... : ... .. 3 ... ... : ... .. . ... ... : ... .. . ... ...
ROW D7 : ... .. . ... ... ... : ... .. . ... ... ... : ... .. . ... : ... .. . ... : ... .. . ... ... : ... .. . ... ... : ... .. . ... ... : ... .. . ... ...
ROW D8 : ... .. . ... ... ... : ... .. . ... ... ... : ... .. . ... : ... .. . ... : ... .. . ... ... : ... .. . ... ... : ... .. . ... ... : ... .. . ... ...
ROW D9 : ... .. . ... ... ... : ... .. . ... ... ... : ... .. . ... : ... .. . ... : ... .. . ... ... : ... .. . ... ... : ... .. . ... ... : ... .. . ... ...
ROW DA : ... .. . ... ... ... : G#2 00 A ... ... ... : ... .. . ... : ... .. . ... : ... .. . ... ... : ... .. 2 ... ... : ... .. . ... ... : ... .. . ... ...
ROW DB : ... .. 1 ... ... ... : ... .. 9 ... ... ... : ... .. . ... : ... .. . ... : ... .. . ... ... : ... .. . ... ... : ... .. . ... ... : ... .. . ... ...
ROW DC : ... .. . ... ... ... : ... .. 8 ... ... ... : ... .. . ... : ... .. . ... : ... .. . ... ... : ... .. . ... ... : ... .. . ... ... : ... .. . ... ...
ROW DD : ... .. . ... ... ... : ... .. 6 ... ... ... : ... .. . ... : ... .. . ... : ... .. . ... ... : ... .. . ... ... : ... .. . ... ... : ... .. . ... ...
ROW DE : ... .. . ... ... ... : ... .. . ... ... ... : ... .. . ... : ... .. . ... : ... .. . ... ... : ... .. . ... ... : ... .. . ... ... : ... .. . ... ...
ROW DF : ... .. . ... ... ... : ... .. . ... ... ... : ... .. . ... : ... .. . ... : ... .. . ... ... : ... .. . ... ... : ... .. . ... ... : ... .. . ... ...
ROW E0 : ... .. . ... ... ... : ... .. 1 ... ... ... : ... .. . ... : ... .. . ... : ... .. . ... ... : ... .. . ... ... : ... .. . ... ... : ... .. . ... ...
ROW E1 : ... .. 0 ... V00 ... : ... .. . ... ... ... : ... .. . ... : ... .. . ... : ... .. . ... ... : ... .. . ... ... : ... .. . ... ... : ... .. . ... ...
ROW E2 : ... .. . ... ... ... : ... .. . ... ... ... : ... .. . ... : ... .. . ... : ... .. . ... ... : ... .. . ... ... : ... .. . ... ... : ... .. . ... ...
ROW E3 : ... .. . ... ... ... : ... .. . ... ... ... : ... .. . ... : ... .. . ... : ... .. . ... ... : ... .. . ... ... : ... .. . ... ... : ... .. . ... ...
ROW E4 : F#2 00 8 P81 V01 ... : F#2 00 A ... ... ... : --- .. . ... : ... .. . ... : ... .. . ... ... : ... .. 4 ... ... : ... .. 6 ... ... : E-2 01 8 ... ...
ROW E5 : ... .. 7 ... ... ... : ... .. 9 ... ... ... : ... .. . ... : ... .. . ... : ... .. . ... ... : ... .. 3 ... ... : ... .. . ... ... : ... .. 7 ... ...
ROW E6 : ... .. 6 ... ... ... : ... .. 8 ... ... ... : ... .. . ... : ... .. . ... : ... .. . ... ... : ... .. . ... ... : ... .. . ... ... : ... .. 6 ... ...
ROW E7 : ... .. 5 ... ... ... : ... .. 6 ... ... ... : ... .. . ... : ... .. . ... : ... .. . ... ... : ... .. . ... ... : ... .. 5 ... ... : ... .. 4 ... ...
ROW E8 : ... .. . ... ... ... : ... .. . ... ... ... : ... .. . ... : ... .. . ... : ... .. . ... ... : ... .. 2 ... ... : ... .. 4 ... ... : ... .. 3 ... ...
ROW E9 : ... .. . ... ... ... : ... .. . ... ... ... : ... .. . ... : ... .. . ... : ... .. . ... ... : ... .. 3 ... ... : ... .. 1 ... ... : ... .. 1 ... ...
ROW EA : ... .. . ... ... ... : ... .. . ... ... ... : ... .. . ... : ... .. . ... : ... .. . ... ... : ... .. 2 ... ... : ... .. . ... ... : ... .. . ... ...
ROW EB : ... .. . ... ... ... : ... .. . ... ... ... : ... .. . ... : ... .. . ... : ... .. . ... ... : ... .. . ... ... : ... .. . ... ... : ... .. . ... ...
ROW EC : ... .. . ... ... ... : ... .. . ... ... ... : ... .. . ... : ... .. . ... : ... .. . ... ... : ... .. . ... ... : ... .. . ... ... : ... .. . ... ...
ROW ED : ... .. . ... ... ... : ... .. . ... ... ... : ... .. . ... : ... .. . ... : ... .. . ... ... : ... .. . ... ... : ... .. . ... ... : ... .. . ... ...
ROW EE : ... .. . ... ... ... : ... .. . ... ... ... : ... .. . ... : ... .. . ... : ... .. . ... ... : ... .. 3 ... ... : ... .. 4 ... ... : ... .. 8 ... ...
ROW EF : ... .. . ... ... ... : ... .. . ... ... ... : ... .. . ... : ... .. . ... : ... .. . ... ... : ... .. . ... ... : ... .. . ... ... : ... .. 7 ... ...
ROW F0 : ... .. . ... ... ... : ... .. . ... ... ... : ... .. . ... : ... .. . ... : ... .. . ... ... : ... .. . ... ... : ... .. . ... ... : ... .. 6 ... ...
ROW F1 : ... .. . ... ... ... : ... .. . ... ... ... : ... .. . ... : ... .. . ... : ... .. . ... ... : ... .. . ... ... : ... .. . ... ... : ... .. 4 ... ...
ROW F2 : ... .. . ... ... ... : ... .. . ... ... ... : ... .. . ... : ... .. . ... : ... .. . ... ... : ... .. . ... ... : ... .. . ... ... : ... .. 3 ... ...
ROW F3 : ... .. . ... ... ... : ... .. . ... ... ... : ... .. . ... : ... .. . ... : ... .. . ... ... : ... .. 4 ... ... : ... .. 1 ... ... : ... .. 1 ... ...
ROW F4 : ... .. . ... ... ... : ... .. . ... ... ... : ... .. . ... : ... .. . ... : ... .. . ... ... : ... .. . ... ... : ... .. . ... ... : ... .. . ... ...
ROW F5 : ... .. . ... ... ... : ... .. . ... ... ... : ... .. . ... : ... .. . ... : ... .. . ... ... : ... .. . ... ... : ... .. . ... ... : ... .. . ... ...
ROW F6 : ... .. . ... ... ... : ... .. . ... ... ... : ... .. . ... : ... .. . ... : ... .. . ... ... : ... .. . ... ... : ... .. . ... ... : ... .. . ... ...
ROW F7 : ... .. . ... ... ... : ... .. . ... ... ... : ... .. . ... : ... .. . ... : ... .. . ... ... : ... .. . ... ... : ... .. . ... ... : ... .. . ... ...
ROW F8 : ... .. . ... ... ... : ... .. . ... ... ... : F#2 00 . ... : ... .. . ... : ... .. . ... ... : ... .. 5 ... ... : ... .. 2 ... ... : ... .. . ... ...
ROW F9 : ... .. 1 ... ... ... : ... .. 1 ... ... ... : ... .. . ... : ... .. . ... : ... .. . ... ... : ... .. 4 ... ... : ... .. . ... ... : ... .. . ... ...
ROW FA : ... .. . ... ... ... : ... .. . ... ... ... : ... .. . ... : ... .. . ... : ... .. . ... ... : ... .. . ... ... : ... .. . ... ... : ... .. . ... ...
ROW FB : ... .. . ... ... ... : ... .. . ... ... ... : ... .. . ... : ... .. . ... : ... .. . ... ... : ... .. . ... ... : ... .. . ... ... : ... .. 0 ... ...
ROW FC : ... .. . ... ... ... : ... .. . ... ... ... : ... .. . ... : ... .. . ... : ... .. . ... ... : ... .. 3 ... ... : ... .. 1 ... ... : ... .. . ... ...
ROW FD : ... .. . ... ... ... : ... .. . ... ... ... : ... .. . ... : ... .. . ... : ... .. . ... ... : ... .. . ... ... : ... .. . ... ... : ... .. . ... ...
ROW FE : ... .. . ... ... ... : ... .. . ... ... ... : ... .. . ... : ... .. . ... : ... .. . ... ... : ... .. 2 ... ... : ... .. . ... ... : ... .. . ... ...
ROW FF : ... .. 0 ... V00 ... : ... .. 0 ... V00 ... : ... .. . ... : ... .. . ... : ... .. . ... ... : ... .. . ... ... : ... .. . ... ... : ... .. . ... ...

PATTERN 0D
ROW 00 : ... .. . ... ... ... : ... .. . ... ... ... : ... .. . ... : ... .. . ... : ... .. . ... ... : ... .. . ... ... : ... .. . ... ... : ... .. . ... ...
ROW 01 : ... .. . ... ... ... : ... .. . ... ... ... : ... .. . ... : ... .. . ... : ... .. . ... ... : ... .. . ... ... : ... .. . ... ... : ... .. . ... ...
ROW 02 : ... .. . ... ... ... : ... .. . ... ... ... : ... .. . ... : ... .. . ... : ... .. . ... ... : ... .. . ... ... : ... .. . ... ... : ... .. . ... ...
ROW 03 : ... .. . ... ... ... : ... .. . ... ... ... : ... .. . ... : ... .. . ... : ... .. . ... ... : ... .. . ... ... : ... .. . ... ... : ... .. . ... ...
ROW 04 : ... .. . ... ... ... : ... .. . ... ... ... : ... .. . ... : ... .. . ... : ... .. . ... ... : ... .. . ... ... : ... .. . ... ... : ... .. . ... ...
ROW 05 : ... .. . ... ... ... : ... .. . ... ... ... : ... .. . ... : ... .. . ... : ... .. . ... ... : ... .. . ... ... : ... .. . ... ... : ... .. . ... ...
ROW 06 : ... .. . ... ... ... : ... .. . ... ... ... : ... .. . ... : ... .. . ... : ... .. . ... ... : ... .. . ... ... : ... .. . ... ... : ... .. . ... ...
ROW 07 : ... .. . ... ... ... : ... .. . ... ... ... : ... .. . ... : ... .. . ... : ... .. . ... ... : ... .. 1 ... ... : ... .. . ... ... : ... .. . ... ...
ROW 08 : ... .. . ... ... ... : ... .. . ... ... ... : ... .. . ... : ... .. . ... : ... .. . ... ... : ... .. . ... ... : ... .. . ... ... : ... .. . ... ...
ROW 09 : ... .. . ... ... ... : ... .. . ... ... ... : ... .. . ... : ... .. . ... : ... .. . ... ... : ... .. . ... ... : ... .. . ... ... : ... .. . ... ...
ROW 0A : ... .. . ... ... ... : ... .. . ... ... ... : ... .. . ... : ... .. . ... : ... .. . ... ... : ... .. . ... ... : ... .. . ... ... : ... .. . ... ...
ROW 0B : ... .. . ... ... ... : ... .. . ... ... ... : ... .. . ... : ... .. . ... : ... .. . ... ... : ... .. . ... ... : ... .. . ... ... : ... .. . ... ...
ROW 0C : ... .. . ... ... ... : F#2 00 A P80 V02 ... : --- .. . ... : ... .. . ... : ... .. . ... ... : ... .. 2 ... ... : ... .. 6 ... ... : ... .. 8 ... ...
ROW 0D : ... .. . ... ... ... : ... .. 9 ... ... ... : ... .. . ... : ... .. . ... : ... .. . ... ... : ... .. 1 ... ... : ... .. . ... ... : ... .. 7 ... ...
ROW 0E : ... .. . ... ... ... : ... .. 8 ... ... ... : ... .. . ... : ... .. . ... : ... .. . ... ... : ... .. . ... ... : ... .. . ... ... : ... .. 6 ... ...
ROW 0F : ... .. . ... ... ... : ... .. 6 ... ... ... : ... .. . ... : ... .. . ... : ... .. . ... ... : ... .. . ... ... : ... .. 5 ... ... : ... .. 4 ... ...
ROW 10 : ... .. . ... ... ... : ... .. . ... ... ... : ... .. . ... : ... .. . ... : ... .. . ... ... : ... .. . ... ... : ... .. 4 ... ... : ... .. 3 ... ...
ROW 11 : ... .. . ... ... ... : ... .. . ... ... ... : ... .. . ... : ... .. . ... : ... .. . ... ... : ... .. . ... ... : ... .. 1 ... ... : ... .. 1 ... ...
ROW 12 : ... .. . ... ... ... : ... .. . ... ... ... : ... .. . ... : ... .. . ... : ... .. . ... ... : ... .. . ... ... : ... .. . ... ... : ... .. . ... ...
ROW 13 : ... .. . ... ... ... : ... .. . ... ... ... : ... .. . ... : ... .. . ... : ... .. . ... ... : ... .. . ... ... : ... .. . ... ... : ... .. . ... ...
ROW 14 : ... .. . ... ... ... : ... .. . ... ... ... : ... .. . ... : ... .. . ... : ... .. . ... ... : ... .. . ... ... : ... .. . ... ... : ... .. . ... ...
ROW 15 : ... .. . ... ... ... : ... .. . ... ... ... : ... .. . ... : ... .. . ... : ... .. . ... ... : ... .. . ... ... : ... .. . ... ... : ... .. . ... ...
ROW 16 : ... .. . ... ... ... : ... .. . ... ... ... : ... .. . ... : ... .. . ... : ... .. . ... ... : --- .. . P82 ... : ... .. 4 ... ... : ... .. 8 ... ...
ROW 17 : ... .. . ... ... ... : ... .. 1 ... ... ... : ... .. . ... : ... .. . ... : ... .. . ... ... : ... .. . ... ... : ... .. . ... ... : ... .. 7 ... ...
ROW 18 : ... .. . ... ... ... : ... .. . ... ... ... : ... .. . ... : ... .. . ... : ... .. . ... ... : ... .. . ... ... : ... .. . ... ... : ... .. 6 ... ...
ROW 19 : ... .. . ... ... ... : ... .. . ... ... ... : ... .. . ... : ... .. . ... : ... .. . ... ... : ... .. . ... ... : ... .. . ... ... : ... .. 4 ... ...
ROW 1A : ... .. . ... ... ... : ... .. . ... ... ... : ... .. . ... : ... .. . ... : ... .. . ... ... : ... .. . ... ... : ... .. . ... ... : ... .. 3 ... ...
ROW 1B : ... .. . ... ... ... : ... .. . ... ... ... : ... .. . ... : ... .. . ... : ... .. . ... ... : ... .. . ... ... : ... .. 1 ... ... : ... .. 1 ... ...
ROW 1C : ... .. . ... ... ... : ... .. . ... ... ... : ... .. . ... : ... .. . ... : ... .. . ... ... : ... .. . ... ... : ... .. . ... ... : ... .. . ... ...
ROW 1D : ... .. . ... ... ... : ... .. 0 ... V00 ... : ... .. . ... : ... .. . ... : ... .. . ... ... : ... .. . ... ... : ... .. . ... ... : ... .. . ... ...
ROW 1E : ... .. . ... ... ... : ... .. . ... ... ... : ... .. . ... : ... .. . ... : ... .. . ... ... : ... .. . ... ... : ... .. . ... ... : ... .. . ... ...
ROW 1F : ... .. . ... ... ... : ... .. . ... ... ... : ... .. . ... : ... .. . ... : ... .. . ... ... : ... .. . ... ... : ... .. . ... ... : ... .. . ... ...
ROW 20 : ... .. . ... ... ... : C#3 00 A P80 V02 ... : F#1 00 . ... : ... .. . ... : ... .. . ... ... : B-2 01 6 P80 ... : ... .. . ... ... : ... .. . ... ...
ROW 21 : ... .. . ... ... ... : ... .. 9 ... ... ... : ... .. . ... : ... .. . ... : ... .. . ... ... : ... .. 5 ... ... : ... .. . ... ... : ... .. . ... ...
ROW 22 : ... .. . ... ... ... : ... .. 8 ... ... ... : ... .. . ... : ... .. . ... : ... .. . ... ... : ... .. . ... ... : ... .. . ... ... : ... .. . ... ...
ROW 23 : ... .. . ... ... ... : ... .. 6 ... ... ... : ... .. . ... : ... .. . ... : ... .. . ... ... : ... .. 4 ... ... : ... .. . ... ... : ... .. 0 ... ...
ROW 24 : ... .. . ... ... ... : ... .. . ... ... ... : ... .. . ... : ... .. . ... : ... .. . ... ... : ... .. . ... ... : ... .. . ... ... : ... .. . ... ...
ROW 25 : ... .. . ... ... ... : ... .. . ... ... ... : ... .. . ... : ... .. . ... : ... .. . ... ... : ... .. . ... ... : ... .. . ... ... : ... .. . ... ...
ROW 26 : ... .. . ... ... ... : ... .. 1 ... ... ... : ... .. . ... : ... .. . ... : ... .. . ... ... : ... .. 3 ... ... : ... .. . ... ... : ... .. . ... ...
ROW 27 : ... .. . ... ... ... : ... .. . ... ... ... : ... .. . ... : ... .. . ... : ... .. . ... ... : ... .. . ... ... : ... .. . ... ... : ... .. . ... ...
ROW 28 : ... .. . ... ... ... : ... .. . ... ... ... : ... .. . ... : ... .. . ... : ... .. . ... ... : ... .. . ... ... : ... .. . ... ... : ... .. . ... ...
ROW 29 : ... .. . ... ... ... : ... .. . ... ... ... : ... .. . ... : ... .. . ... : ... .. . ... ... : ... .. . ... ... : ... .. . ... ... : ... .. . ... ...
ROW 2A : ... .. . ... ... ... : B-2 00 A ... ... ... : ... .. . ... : ... .. . ... : ... .. . ... ... : ... .. 2 ... ... : ... .. . ... ... : ... .. . ... ...
ROW 2B : ... .. . ... ... ... : ... .. 9 ... ... ... : ... .. . ... : ... .. . ... : ... .. . ... ... : ... .. . ... ... : ... .. . ... ... : ... .. . ... ...
ROW 2C : ... .. . ... ... ... : ... .. 8 ... ... ... : ... .. . ... : ... .. . ... : ... .. . ... ... : ... .. . ... ... : ... .. . ... ... : ... .. . ... ...
ROW 2D : ... .. . ... ... ... : ... .. 6 ... ... ... : ... .. . ... : ... .. . ... : ... .. . ... ... : ... .. . ... ... : ... .. . ... ... : ... .. . ... ...
ROW 2E : ... .. . ... ... ... : ... .. . ... ... ... : ... .. . ... : ... .. . ... : ... .. . ... ... : ... .. . ... ... : ... .. . ... ... : ... .. . ... ...
ROW 2F : ... .. . ... ... ... : ... .. . ... ... ... : ... .. . ... : ... .. . ... : ... .. . ... ... : ... .. . ... ... : ... .. . ... ... : ... .. . ... ...
ROW 30 : ... .. . ... ... ... : ... .. 1 ... ... ... : ... .. . ... : ... .. . ... : ... .. . ... ... : ... .. . ... ... : ... .. . ... ... : ... .. . ... ...
ROW 31 : ... .. . ... ... ... : ... .. . ... ... ... : ... .. . ... : ... .. . ... : ... .. . ... ... : ... .. . ... ... : ... .. . ... ... : ... .. . ... ...
ROW 32 : ... .. . ... ... ... : ... .. . ... ... ... : ... .. . ... : ... .. . ... : ... .. . ... ... : ... .. . ... ... : ... .. . ... ... : ... .. . ... ...
ROW 33 : ... .. . ... ... ... : ... .. . ... ... ... : ... .. . ... : ... .. . ... : ... .. . ... ... : ... .. . ... ... : ... .. . ... ... : ... .. . ... ...
ROW 34 : ... .. . ... ... ... : C#3 00 8 ... ... ... : --- .. . ... : ... .. . ... : ... .. . ... ... : ... .. 4 ... ... : ... .. 6 ... ... : ... .. 8 ... ...
ROW 35 : ... .. . ... ... ... : ... .. 7 ... ... ... : ... .. . ... : ... .. . ... : ... .. . ... ... : ... .. 3 ... ... : ... .. . ... ... : ... .. 7 ... ...
ROW 36 : ... .. . ... ... ... : ... .. 6 ... ... ... : ... .. . ... : ... .. . ... : ... .. . ... ... : ... .. . ... ... : ... .. . ... ... : ... .. 6 ... ...
ROW 37 : ... .. . ... ... ... : ... .. 5 ... ... ... : ... .. . ... : ... .. . ... : ... .. . ... ... : ... .. . ... ... : ... .. 5 ... ... : ... .. 4 ... ...
ROW 38 : ... .. . ... ... ... : ... .. . ... ... ... : ... .. . ... : ... .. . ... : ... .. . ... ... : ... .. 2 ... ... : ... .. 4 ... ... : ... .. 3 ... ...
ROW 39 : ... .. . ... ... ... : ... .. 6 ... ... ... : ... .. . ... : ... .. . ... : ... .. . ... ... : ... .. 3 ... ... : ... .. 1 ... ... : ... .. 1 ... ...
ROW 3A : ... .. . ... ... ... : ... .. . ... ... ... : ... .. . ... : ... .. . ... : ... .. . ... ... : ... .. 2 ... ... : ... .. . ... ... : ... .. . ... ...
ROW 3B : ... .. . ... ... ... : ... .. . ... ... ... : ... .. . ... : ... .. . ... : ... .. . ... ... : ... .. . ... ... : ... .. . ... ... : ... .. . ... ...
ROW 3C : ... .. . ... ... ... : ... .. . ... ... ... : ... .. . ... : ... .. . ... : ... .. . ... ... : ... .. . ... ... : ... .. . ... ... : ... .. . ... ...
ROW 3D : ... .. . ... ... ... : ... .. . ... ... ... : ... .. . ... : ... .. . ... : ... .. . ... ... : ... .. . ... ... : ... .. . ... ... : ... .. . ... ...
ROW 3E : ... .. . ... ... ... : ... .. . ... ... ... : ... .. . ... : ... .. . ... : ... .. . ... ... : ... .. 3 ... ... : ... .. 4 ... ... : ... .. 8 ... ...
ROW 3F : ... .. . ... ... ... : ... .. . ... ... ... : ... .. . ... : ... .. . ... : ... .. . ... ... : ... .. . ... ... : ... .. . ... ... : ... .. 7 ... ...
ROW 40 : ... .. . ... ... ... : ... .. . ... ... ... : ... .. . ... : ... .. . ... : ... .. . ... ... : ... .. . ... ... : ... .. . ... ... : ... .. 6 ... ...
ROW 41 : ... .. . ... ... ... : ... .. . ... ... ... : ... .. . ... : ... .. . ... : ... .. . ... ... : ... .. . ... ... : ... .. . ... ... : ... .. 4 ... ...
ROW 42 : ... .. . ... ... ... : ... .. . ... ... ... : ... .. . ... : ... .. . ... : ... .. . ... ... : ... .. . ... ... : ... .. . ... ... : ... .. 3 ... ...
ROW 43 : ... .. . ... ... ... : ... .. 8 ... ... ... : ... .. . ... : ... .. . ... : ... .. . ... ... : ... .. 4 ... ... : ... .. 1 ... ... : ... .. 1 ... ...
ROW 44 : ... .. . ... ... ... : ... .. . ... ... ... : ... .. . ... : ... .. . ... : ... .. . ... ... : ... .. . ... ... : ... .. . ... ... : ... .. . ... ...
ROW 45 : ... .. . ... ... ... : ... .. . ... ... ... : ... .. . ... : ... .. . ... : ... .. . ... ... : ... .. . ... ... : ... .. . ... ... : ... .. . ... ...
ROW 46 : ... .. . ... ... ... : ... .. . ... ... ... : ... .. . ... : ... .. . ... : ... .. . ... ... : ... .. . ... ... : ... .. . ... ... : ... .. . ... ...
ROW 47 : ... .. . ... ... ... : ... .. . ... ... ... : ... .. . ... : ... .. . ... : ... .. . ... ... : ... .. . ... ... : ... .. . ... ... : ... .. . ... ...
ROW 48 : E-3 00 8 P81 V01 ... : ... .. . P84 ... ... : F#1 00 . ... : ... .. . ... : ... .. . ... ... : ... .. 5 ... ... : ... .. 2 ... ... : ... .. . ... ...
ROW 49 : ... .. 7 ... ... ... : ... .. . P86 ... ... : ... .. . ... : ... .. . ... : ... .. . ... ... : ... .. 4 ... ... : ... .. . ... ... : ... .. . ... ...
ROW 4A : ... .. 6 ... ... ... : ... .. . P85 ... ... : ... .. . ... : ... .. . ... : ... .. . ... ... : ... .. . ... ... : ... .. . ... ... : ... .. . ... ...
ROW 4B : ... .. 5 ... ... ... : ... .. . P82 ... ... : ... .. . ... : ... .. . ... : ... .. . ... ... : ... .. . ... ... : ... .. . ... ... : ... .. 0 ... ...
ROW 4C : ... .. . ... ... ... : ... .. . P7E ... ... : ... .. . ... : ... .. . ... : ... .. . ... ... : ... .. 3 ... ... : ... .. 1 ... ... : ... .. . ... ...
ROW 4D : ... .. . ... ... ... : ... .. A P7B ... ... : ... .. . ... : ... .. . ... : ... .. . ... ... : ... .. . ... ... : ... .. . ... ... : ... .. . ... ...
ROW 4E : ... .. . ... ... ... : ... .. . P7A ... ... : ... .. . ... : ... .. . ... : ... .. . ... ... : ... .. 2 ... ... : ... .. . ... ... : ... .. . ... ...
ROW 4F : ... .. . ... ... ... : ... .. . P7C ... ... : ... .. . ... : ... .. . ... : ... .. . ... ... : ... .. . ... ... : ... .. . ... ... : ... .. . ... ...
ROW 50 : ... .. . ... ... ... : ... .. . P80 ... ... : ... .. . ... : ... .. . ... : ... .. . ... ... : ... .. . ... ... : ... .. . ... ... : ... .. . ... ...
ROW 51 : ... .. . ... ... ... : ... .. . P83 ... ... : ... .. . ... : ... .. . ... : ... .. . ... ... : ... .. . ... ... : ... .. . ... ... : ... .. . ... ...
ROW 52 : ... .. . ... ... ... : ... .. . P86 ... ... : ... .. . ... : ... .. . ... : ... .. . ... ... : ... .. . ... ... : ... .. . ... ... : ... .. . ... ...
ROW 53 : ... .. . ... ... ... : ... .. . ... ... ... : ... .. . ... : ... .. . ... : ... .. . ... ... : ... .. . ... ... : ... .. . ... ... : ... .. . ... ...
ROW 54 : ... .. . ... ... ... : ... .. . P82 ... ... : ... .. . ... : ... .. . ... : ... .. . ... ... : ... .. . ... ... : ... .. . ... ... : ... .. . ... ...
ROW 55 : ... .. . ... ... ... : ... .. . P7F ... ... : ... .. . ... : ... .. . ... : ... .. . ... ... : ... .. . ... ... : ... .. . ... ... : ... .. . ... ...
ROW 56 : ... .. . ... ... ... : ... .. . P7B ... ... : ... .. . ... : ... .. . ... : ... .. . ... ... : ... .. . ... ... : ... .. . ... ... : ... .. . ... ...
ROW 57 : ... .. . ... ... ... : ... .. . P7A ... ... : ... .. . ... : ... .. . ... : ... .. . ... ... : ... .. 1 ... ... : ... .. . ... ... : ... .. . ... ...
ROW 58 : ... .. . ... ... ... : ... .. . P7C ... ... : ... .. . ... : ... .. . ... : ... .. . ... ... : ... .. . ... ... : ... .. . ... ... : ... .. . ... ...
ROW 59 : ... .. . ... ... ... : ... .. . P80 ... ... : ... .. . ... : ... .. . ... : ... .. . ... ... : ... .. . ... ... : ... .. . ... ... : ... .. . ... ...
ROW 5A : ... .. . ... ... ... : ... .. . P83 ... ... : ... .. . ... : ... .. . ... : ... .. . ... ... : ... .. . ... ... : ... .. . ... ... : ... .. . ... ...
ROW 5B : ... .. . ... ... ... : ... .. . P86 ... ... : ... .. . ... : ... .. . ... : ... .. . ... ... : ... .. . ... ... : ... .. . ... ... : ... .. . ... ...
ROW 5C : D#3 00 8 ... ... ... : A-2 00 A P80 ... ... : --- .. . ... : ... .. . ... : ... .. . ... ... : ... .. 2 ... ... : ... .. 6 ... ... : ... .. 8 ... ...
ROW 5D : ... .. 7 ... ... ... : ... .. 9 ... ... ... : ... .. . ... : ... .. . ... : ... .. . ... ... : ... .. 1 ... ... : ... .. . ... ... : ... .. 7 ... ...
ROW 5E : ... .. 6 ... ... ... : ... .. 8 ... ... ... : ... .. . ... : ... .. . ... : ... .. . ... ... : ... .. . ... ... : ... .. . ... ... : ... .. 6 ... ...
ROW 5F : ... .. 5 ... ... ... : ... .. 6 ... ... ... : ... .. . ... : ... .. . ... : ... .. . ... ... : ... .. . ... ... : ... .. 5 ... ... : ... .. 4 ... ...
ROW 60 : ... .. . ... ... ... : ... .. . ... ... ... : ... .. . ... : ... .. . ... : ... .. . ... ... : ... .. . ... ... : ... .. 4 ... ... : ... .. 3 ... ...
ROW 61 : ... .. . ... ... ... : ... .. . ... ... ... : ... .. . ... : ... .. . ... : ... .. . ... ... : ... .. . ... ... : ... .. 1 ... ... : ... .. 1 ... ...
ROW 62 : ... .. 1 ... ... ... : ... .. . ... ... ... : ... .. . ... : ... .. . ... : ... .. . ... ... : ... .. . ... ... : ... .. . ... ... : ... .. . ... ...
ROW 63 : ... .. . ... ... ... : ... .. . ... ... ... : ... .. . ... : ... .. . ... : ... .. . ... ... : ... .. . ... ... : ... .. . ... ... : ... .. . ... ...
ROW 64 : ... .. . ... ... ... : ... .. . ... ... ... : ... .. . ... : ... .. . ... : ... .. . ... ... : ... .. . ... ... : ... .. . ... ... : ... .. . ... ...
ROW 65 : ... .. . ... ... ... : ... .. . ... ... ... : ... .. . ... : ... .. . ... : ... .. . ... ... : ... .. . ... ... : ... .. . ... ... : ... .. . ... ...
ROW 66 : C#3 00 8 ... ... ... : E-3 00 A ... ... ... : ... .. . ... : ... .. . ... : ... .. . ... ... : --- .. . P85 ... : ... .. 4 ... ... : ... .. 8 ... ...
ROW 67 : ... .. 7 ... ... ... : ... .. 9 ... ... ... : ... .. . ... : ... .. . ... : ... .. . ... ... : ... .. . ... ... : ... .. . ... ... : ... .. 7 ... ...
ROW 68 : ... .. 6 ... ... ... : ... .. 8 ... ... ... : ... .. . ... : ... .. . ... : ... .. . ... ... : ... .. . ... ... : ... .. . ... ... : ... .. 6 ... ...
ROW 69 : ... .. 5 ... ... ... : ... .. 6 ... ... ... : ... .. . ... : ... .. . ... : ... .. . ... ... : ... .. . ... ... : ... .. . ... ... : ... .. 4 ... ...
ROW 6A : ... .. . ... ... ... : ... .. . ... ... ... : ... .. . ... : ... .. . ... : ... .. . ... ... : ... .. . ... ... : ... .. . ... ... : ... .. 3 ... ...
ROW 6B : ... .. . ... ... ... : ... .. . ... ... ... : ... .. . ... : ... .. . ... : ... .. . ... ... : ... .. . ... ... : ... .. 1 ... ... : ... .. 1 ... ...
ROW 6C : ... .. 1 ... ... ... : ... .. 1 ... ... ... : ... .. . ... : ... .. . ... : ... .. . ... ... : ... .. . ... ... : ... .. . ... ... : ... .. . ... ...
ROW 6D : ... .. . ... ... ... : ... .. . ... ... ... : ... .. . ... : ... .. . ... : ... .. . ... ... : ... .. . ... ... : ... .. . ... ... : ... .. . ... ...
ROW 6E : ... .. . ... ... ... : ... .. . ... ... ... : ... .. . ... : ... .. . ... : ... .. . ... ... : ... .. . ... ... : ... .. . ... ... : ... .. . ... ...
ROW 6F : ... .. . ... ... ... : ... .. . ... ... ... : ... .. . ... : ... .. . ... : ... .. . ... ... : ... .. . ... ... : ... .. . ... ... : ... .. . ... ...
ROW 70 : B-2 00 8 ... ... ... : ... .. A ... ... ... : E-1 00 . ... : ... .. . ... : ... .. . ... ... : F#2 01 6 P80 ... : B-2 01 1 ... ... : ... .. . ... ...
ROW 71 : ... .. 7 ... ... ... : ... .. 9 ... ... ... : ... .. . ... : ... .. . ... : ... .. . ... ... : ... .. 5 ... ... : ... .. . ... ... : ... .. . ... ...
ROW 72 : ... .. 6 ... ... ... : ... .. 8 ... ... ... : ... .. . ... : ... .. . ... : ... .. . ... ... : ... .. . ... ... : ... .. . ... ... : ... .. . ... ...
ROW 73 : ... .. 5 ... ... ... : ... .. 6 ... ... ... : ... .. . ... : ... .. . ... : ... .. . ... ... : ... .. 4 ... ... : ... .. . ... ... : ... .. 0 ... ...
ROW 74 : ... .. . ... ... ... : ... .. . ... ... ... : ... .. . ... : ... .. . ... : ... .. . ... ... : ... .. . ... ... : ... .. . ... ... : ... .. . ... ...
ROW 75 : ... .. . ... ... ... : ... .. . ... ... ... : ... .. . ... : ... .. . ... : ... .. . ... ... : ... .. . ... ... : ... .. . ... ... : ... .. . ... ...
ROW 76 : ... .. . ... ... ... : ... .. . ... ... ... : ... .. . ... : ... .. . ... : ... .. . ... ... : ... .. 3 ... ... : ... .. . ... ... : ... .. . ... ...
ROW 77 : ... .. . ... ... ... : ... .. . ... ... ... : ... .. . ... : ... .. . ... : ... .. . ... ... : ... .. . ... ... : ... .. . ... ... : ... .. . ... ...
ROW 78 : ... .. . ... ... ... : ... .. . ... ... ... : ... .. . ... : ... .. . ... : ... .. . ... ... : ... .. . ... ... : ... .. . ... ... : ... .. . ... ...
ROW 79 : ... .. . ... ... ... : ... .. . ... ... ... : ... .. . ... : ... .. . ... : ... .. . ... ... : ... .. . ... ... : ... .. . ... ... : ... .. . ... ...
ROW 7A : ... .. . ... ... ... : ... .. . ... ... ... : ... .. . ... : ... .. . ... : ... .. . ... ... : ... .. 2 ... ... : ... .. . ... ... : ... .. . ... ...
ROW 7B : ... .. . ... ... ... : ... .. . ... ... ... : ... .. . ... : ... .. . ... : ... .. . ... ... : ... .. . ... ... : ... .. . ... ... : ... .. . ... ...
ROW 7C : ... .. . ... ... ... : ... .. . ... ... ... : ... .. . ... : ... .. . ... : ... .. . ... ... : ... .. . ... ... : ... .. . ... ... : ... .. . ... ...
ROW 7D : ... .. . ... ... ... : ... .. . ... ... ... : ... .. . ... : ... .. . ... : ... .. . ... ... : ... .. . ... ... : ... .. . ... ... : ... .. . ... ...
ROW 7E : ... .. . ... ... ... : ... .. . ... ... ... : ... .. . ... : ... .. . ... : ... .. . ... ... : ... .. . ... ... : ... .. . ... ... : ... .. . ... ...
ROW 7F : ... .. . ... ... ... : ... .. . ... ... ... : ... .. . ... : ... .. . ... : ... .. . ... ... : ... .. . ... ... : ... .. . ... ... : ... .. . ... ...
ROW 80 : ... .. . ... ... ... : ... .. . ... ... ... : ... .. . ... : ... .. . ... : ... .. . ... ... : ... .. . ... ... : ... .. . ... ... : ... .. . ... ...
ROW 81 : ... .. . ... ... ... : ... .. . ... ... ... : ... .. . ... : ... .. . ... : ... .. . ... ... : ... .. . ... ... : ... .. . ... ... : ... .. . ... ...
ROW 82 : ... .. . ... ... ... : ... .. . ... ... ... : ... .. . ... : ... .. . ... : ... .. . ... ... : ... .. . ... ... : ... .. . ... ... : ... .. . ... ...
ROW 83 : ... .. . ... ... ... : ... .. . ... ... ... : ... .. . ... : ... .. . ... : ... .. . ... ... : ... .. . ... ... : ... .. . ... ... : ... .. . ... ...
ROW 84 : ... .. . ... ... ... : ... .. . ... ... ... : --- .. . ... : ... .. . ... : ... .. . ... ... : ... .. 4 ... ... : ... .. 6 ... ... : B-1 01 8 ... ...
ROW 85 : ... .. 1 ... ... ... : ... .. . ... ... ... : ... .. . ... : ... .. . ... : ... .. . ... ... : ... .. 3 ... ... : ... .. . ... ... : ... .. 7 ... ...
ROW 86 : ... .. . ... ... ... : ... .. . ... ... ... : ... .. . ... : ... .. . ... : ... .. . ... ... : ... .. . ... ... : ... .. . ... ... : ... .. 6 ... ...
ROW 87 : ... .. . ... ... ... : ... .. . ... ... ... : ... .. . ... : ... .. . ... : ... .. . ... ... : ... .. . ... ... : ... .. 5 ... ... : ... .. 4 ... ...
ROW 88 : ... .. . ... ... ... : ... .. . ... ... ... : ... .. . ... : ... .. . ... : ... .. . ... ... : ... .. 2 ... ... : ... .. 4 ... ... : ... .. 3 ... ...
ROW 89 : ... .. . ... ... ... : ... .. . ... ... ... : ... .. . ... : ... .. . ... : ... .. . ... ... : ... .. 3 ... ... : ... .. 1 ... ... : ... .. 1 ... ...
ROW 8A : ... .. . ... ... ... : ... .. 1 ... ... ... : ... .. . ... : ... .. . ... : ... .. . ... ... : ... .. 2 ... ... : ... .. . ... ... : ... .. . ... ...
ROW 8B : ... .. 0 ... V00 ... : ... .. . ... ... ... : ... .. . ... : ... .. . ... : ... .. . ... ... : ... .. . ... ... : ... .. . ... ... : ... .. . ... ...
ROW 8C : ... .. . ... ... ... : ... .. . ... ... ... : ... .. . ... : ... .. . ... : ... .. . ... ... : ... .. . ... ... : ... .. . ... ... : ... .. . ... ...
ROW 8D : ... .. . ... ... ... : ... .. . ... ... ... : ... .. . ... : ... .. . ... : ... .. . ... ... : ... .. . ... ... : ... .. . ... ... : ... .. . ... ...
ROW 8E : ... .. . ... ... ... : B-2 00 A ... ... ... : ... .. . ... : ... .. . ... : ... .. . ... ... : ... .. 3 ... ... : ... .. 4 ... ... : ... .. 8 ... ...
ROW 8F : ... .. . ... ... ... : ... .. 9 ... ... ... : ... .. . ... : ... .. . ... : ... .. . ... ... : ... .. . ... ... : ... .. . ... ... : ... .. 7 ... ...
ROW 90 : ... .. . ... ... ... : ... .. 8 ... ... ... : ... .. . ... : ... .. . ... : ... .. . ... ... : ... .. . ... ... : ... .. . ... ... : ... .. 6 ... ...
ROW 91 : ... .. . ... ... ... : ... .. 6 ... ... ... : ... .. . ... : ... .. . ... : ... .. . ... ... : ... .. . ... ... : ... .. . ... ... : ... .. 4 ... ...
ROW 92 : ... .. . ... ... ... : ... .. . ... ... ... : ... .. . ... : ... .. . ... : ... .. . ... ... : ... .. . ... ... : ... .. . ... ... : ... .. 3 ... ...
ROW 93 : ... .. . ... ... ... : ... .. . ... ... ... : ... .. . ... : ... .. . ... : ... .. . ... ... : ... .. 4 ... ... : ... .. 1 ... ... : ... .. 1 ... ...
ROW 94 : ... .. . ... ... ... : ... .. 1 ... ... ... : ... .. . ... : ... .. . ... : ... .. . ... ... : ... .. . ... ... : ... .. . ... ... : ... .. . ... ...
ROW 95 : ... .. . ... ... ... : ... .. . ... ... ... : ... .. . ... : ... .. . ... : ... .. . ... ... : ... .. . ... ... : ... .. . ... ... : ... .. . ... ...
ROW 96 : ... .. . ... ... ... : ... .. . ... ... ... : ... .. . ... : ... .. . ... : ... .. . ... ... : ... .. . ... ... : ... .. . ... ... : ... .. . ... ...
ROW 97 : ... .. . ... ... ... : ... .. . ... ... ... : ... .. . ... : ... .. . ... : ... .. . ... ... : ... .. . ... ... : ... .. . ... ... : ... .. . ... ...
ROW 98 : ... .. . ... ... ... : ... .. A ... ... ... : E-2 00 . ... : ... .. . ... : ... .. . ... ... : ... .. 5 ... ... : ... .. 2 ... ... : ... .. . ... ...
ROW 99 : ... .. . ... ... ... : ... .. 9 ... ... ... : ... .. . ... : ... .. . ... : ... .. . ... ... : ... .. 4 ... ... : ... .. . ... ... : ... .. . ... ...
ROW 9A : ... .. . ... ... ... : ... .. 8 ... ... ... : ... .. . ... : ... .. . ... : ... .. . ... ... : ... .. . ... ... : ... .. . ... ... : ... .. . ... ...
ROW 9B : ... .. . ... ... ... : ... .. 6 ... ... ... : ... .. . ... : ... .. . ... : ... .. . ... ... : ... .. . ... ... : ... .. . ... ... : ... .. 0 ... ...
ROW 9C : ... .. . ... ... ... : ... .. . ... ... ... : ... .. . ... : ... .. . ... : ... .. . ... ... : ... .. 3 ... ... : ... .. 1 ... ... : ... .. . ... ...
ROW 9D : ... .. . ... ... ... : ... .. . ... ... ... : ... .. . ... : ... .. . ... : ... .. . ... ... : ... .. . ... ... : ... .. . ... ... : ... .. . ... ...
ROW 9E : ... .. . ... ... ... : ... .. . ... ... ... : ... .. . ... : ... .. . ... : ... .. . ... ... : ... .. 2 ... ... : ... .. . ... ... : ... .. . ... ...
ROW 9F : ... .. . ... ... ... : ... .. . ... ... ... : ... .. . ... : ... .. . ... : ... .. . ... ... : ... .. . ... ... : ... .. . ... ... : ... .. . ... ...
ROW A0 : ... .. . ... ... ... : ... .. . ... ... ... : ... .. . ... : ... .. . ... : ... .. . ... ... : ... .. . ... ... : ... .. . ... ... : ... .. . ... ...
ROW A1 : ... .. . ... ... ... : ... .. . ... ... ... : ... .. . ... : ... .. . ... : ... .. . ... ... : ... .. . ... ... : ... .. . ... ... : ... .. . ... ...
ROW A2 : ... .. . ... ... ... : ... .. . ... ... ... : ... .. . ... : ... .. . ... : ... .. . ... ... : ... .. . ... ... : ... .. . ... ... : ... .. . ... ...
ROW A3 : ... .. . ... ... ... : ... .. . ... ... ... : ... .. . ... : ... .. . ... : ... .. . ... ... : ... .. . ... ... : ... .. . ... ... : ... .. . ... ...
ROW A4 : ... .. . ... ... ... : ... .. . ... ... ... : ... .. . ... : ... .. . ... : ... .. . ... ... : ... .. . ... ... : ... .. . ... ... : ... .. . ... ...
ROW A5 : ... .. . ... ... ... : ... .. . ... ... ... : ... .. . ... : ... .. . ... : ... .. . ... ... : ... .. . ... ... : ... .. . ... ... : ... .. . ... ...
ROW A6 : ... .. . ... ... ... : ... .. . ... ... ... : ... .. . ... : ... .. . ... : ... .. . ... ... : ... .. . ... ... : ... .. . ... ... : ... .. . ... ...
ROW A7 : ... .. . ... ... ... : ... .. . ... ... ... : ... .. . ... : ... .. . ... : ... .. . ... ... : ... .. 1 ... ... : ... .. . ... ... : ... .. . ... ...
ROW A8 : ... .. . ... ... ... : ... .. . ... ... ... : ... .. . ... : ... .. . ... : ... .. . ... ... : ... .. . ... ... : ... .. . ... ... : ... .. . ... ...
ROW A9 : ... .. . ... ... ... : ... .. . ... ... ... : ... .. . ... : ... .. . ... : ... .. . ... ... : ... .. . ... ... : ... .. . ... ... : ... .. . ... ...
ROW AA : ... .. . ... ... ... : ... .. . ... ... ... : ... .. . ... : ... .. . ... : ... .. . ... ... : ... .. . ... ... : ... .. . ... ... : ... .. . ... ...
ROW AB : ... .. . ... ... ... : ... .. . ... ... ... : ... .. . ... : ... .. . ... : ... .. . ... ... : ... .. . ... ... : ... .. . ... ... : ... .. . ... ...
ROW AC : B-2 00 8 P80 V01 ... : ... .. . ... ... ... : --- .. . ... : ... .. . ... : ... .. . ... ... : ... .. 2 ... ... : ... .. 6 ... ... : ... .. 8 ... ...
ROW AD : ... .. 7 ... ... ... : ... .. . ... ... ... : ... .. . ... : ... .. . ... : ... .. . ... ... : ... .. 1 ... ... : ... .. . ... ... : ... .. 7 ... ...
ROW AE : ... .. 6 ... ... ... : ... .. . ... ... ... : ... .. . ... : ... .. . ... : ... .. . ... ... : ... .. . ... ... : ... .. . ... ... : ... .. 6 ... ...
ROW AF : ... .. 5 ... ... ... : ... .. . ... ... ... : ... .. . ... : ... .. . ... : ... .. . ... ... : ... .. . ... ... : ... .. 5 ... ... : ... .. 4 ... ...
ROW B0 : ... .. . ... ... ... : ... .. . ... ... ... : ... .. . ... : ... .. . ... : ... .. . ... ... : ... .. . ... ... : ... .. 4 ... ... : ... .. 3 ... ...
ROW B1 : ... .. . ... ... ... : ... .. . ... ... ... : ... .. . ... : ... .. . ... : ... .. . ... ... : ... .. . ... ... : ... .. 1 ... ... : ... .. 1 ... ...
ROW B2 : ... .. 1 ... ... ... : ... .. . ... ... ... : ... .. . ... : ... .. . ... : ... .. . ... ... : ... .. . ... ... : ... .. . ... ... : ... .. . ... ...
ROW B3 : ... .. . ... ... ... : ... .. . ... ... ... : ... .. . ... : ... .. . ... : ... .. . ... ... : ... .. . ... ... : ... .. . ... ... : ... .. . ... ...
ROW B4 : ... .. . ... ... ... : ... .. . ... ... ... : ... .. . ... : ... .. . ... : ... .. . ... ... : ... .. . ... ... : ... .. . ... ... : ... .. . ... ...
ROW B5 : ... .. . ... ... ... : ... .. . ... ... ... : ... .. . ... : ... .. . ... : ... .. . ... ... : ... .. . ... ... : ... .. . ... ... : ... .. . ... ...
ROW B6 : C#3 00 8 ... ... ... : ... .. . ... ... ... : ... .. . ... : ... .. . ... : ... .. . ... ... : --- .. . P82 ... : ... .. 4 ... ... : C#2 01 8 ... ...
ROW B7 : ... .. 7 ... ... ... : ... .. 1 ... ... ... : ... .. . ... : ... .. . ... : ... .. . ... ... : ... .. . ... ... : ... .. . ... ... : ... .. 7 ... ...
ROW B8 : ... .. 6 ... ... ... : ... .. . ... ... ... : ... .. . ... : ... .. . ... : ... .. . ... ... : ... .. . ... ... : ... .. . ... ... : ... .. 6 ... ...
ROW B9 : ... .. 5 ... ... ... : ... .. . ... ... ... : ... .. . ... : ... .. . ... : ... .. . ... ... : ... .. . ... ... : ... .. . ... ... : ... .. 4 ... ...
ROW BA : ... .. . ... ... ... : ... .. . ... ... ... : ... .. . ... : ... .. . ... : ... .. . ... ... : ... .. . ... ... : ... .. . ... ... : ... .. 3 ... ...
ROW BB : ... .. . ... ... ... : ... .. . ... ... ... : ... .. . ... : ... .. . ... : ... .. . ... ... : ... .. . ... ... : ... .. 1 ... ... : ... .. 1 ... ...
ROW BC : ... .. 1 ... ... ... : ... .. . ... ... ... : ... .. . ... : ... .. . ... : ... .. . ... ... : ... .. . ... ... : ... .. . ... ... : ... .. . ... ...
ROW BD : ... .. . ... ... ... : ... .. 0 ... V00 ... : ... .. . ... : ... .. . ... : ... .. . ... ... : ... .. . ... ... : ... .. . ... ... : ... .. . ... ...
ROW BE : ... .. . ... ... ... : ... .. . ... ... ... : ... .. . ... : ... .. . ... : ... .. . ... ... : ... .. . ... ... : ... .. . ... ... : ... .. . ... ...
ROW BF : ... .. . ... ... ... : ... .. . ... ... ... : ... .. . ... : ... .. . ... : ... .. . ... ... : ... .. . ... ... : ... .. . ... ... : ... .. . ... ...
ROW C0 : D-3 00 8 ... ... ... : C#3 00 4 P81 V02 ... : E-2 00 . ... : ... .. . ... : ... .. . ... ... : B-2 01 6 P80 ... : D-3 01 5 ... ... : G-3 01 3 ... ...
ROW C1 : ... .. 7 ... ... ... : ... .. 3 ... ... ... : ... .. . ... : ... .. . ... : ... .. . ... ... : ... .. 5 ... ... : ... .. 4 ... ... : ... .. 4 ... ...
ROW C2 : ... .. 6 ... ... ... : ... .. . ... ... ... : ... .. . ... : ... .. . ... : ... .. . ... ... : ... .. . ... ... : ... .. . ... ... : ... .. . ... ...
ROW C3 : ... .. 5 ... ... ... : ... .. 2 ... ... ... : ... .. . ... : ... .. . ... : ... .. . ... ... : ... .. 4 ... ... : ... .. . ... ... : ... .. . ... ...
ROW C4 : ... .. . ... ... ... : ... .. . ... ... ... : ... .. . ... : ... .. . ... : ... .. . ... ... : ... .. . ... ... : ... .. 3 ... ... : ... .. . ... ...
ROW C5 : ... .. . ... ... ... : ... .. . ... ... ... : ... .. . ... : ... .. . ... : ... .. . ... ... : ... .. . ... ... : ... .. . ... ... : ... .. . ... ...
ROW C6 : ... .. . ... ... ... : ... .. 1 ... ... ... : ... .. . ... : ... .. . ... : ... .. . ... ... : ... .. 3 ... ... : ... .. . ... ... : ... .. . ... ...
ROW C7 : ... .. . ... ... ... : ... .. . ... ... ... : ... .. . ... : ... .. . ... : ... .. . ... ... : ... .. . ... ... : ... .. . ... ... : ... .. . ... ...
ROW C8 : ... .. . ... ... ... : ... .. . ... ... ... : ... .. . ... : ... .. . ... : ... .. . ... ... : ... .. . ... ... : ... .. . ... ... : ... .. . ... ...
ROW C9 : ... .. . ... ... ... : ... .. . ... ... ... : ... .. . ... : ... .. . ... : ... .. . ... ... : ... .. . ... ... : ... .. . ... ... : ... .. . ... ...
ROW CA : ... .. . ... ... ... : D-3 00 4 ... ... ... : ... .. . ... : ... .. . ... : ... .. . ... ... : ... .. . ... ... : ... .. 1 ... ... : ... .. 2 ... ...
ROW CB : ... .. . ... ... ... : ... .. 3 ... ... ... : ... .. . ... : ... .. . ... : ... .. . ... ... : ... .. . ... ... : ... .. . ... ... : ... .. . ... ...
ROW CC : ... .. . ... ... ... : ... .. . ... ... ... : ... .. . ... : ... .. . ... : ... .. . ... ... : ... .. . ... ... : ... .. . ... ... : ... .. . ... ...
ROW CD : ... .. . ... ... ... : ... .. 2 ... ... ... : ... .. . ... : ... .. . ... : ... .. . ... ... : ... .. . ... ... : ... .. . ... ... : ... .. . ... ...
ROW CE : ... .. . ... ... ... : ... .. . ... ... ... : ... .. . ... : ... .. . ... : ... .. . ... ... : ... .. . ... ... : ... .. . ... ... : ... .. . ... ...
ROW CF : ... .. . ... ... ... : ... .. . ... ... ... : ... .. . ... : ... .. . ... : ... .. . ... ... : ... .. . ... ... : ... .. . ... ... : ... .. . ... ...
ROW D0 : ... .. . ... ... ... : ... .. . ... ... ... : ... .. . ... : ... .. . ... : ... .. . ... ... : ... .. . ... ... : ... .. . ... ... : ... .. . ... ...
ROW D1 : ... .. . ... ... ... : ... .. . ... ... ... : ... .. . ... : ... .. . ... : ... .. . ... ... : ... .. . ... ... : ... .. . ... ... : ... .. . ... ...
ROW D2 : ... .. . ... ... ... : ... .. . ... ... ... : ... .. . ... : ... .. . ... : ... .. . ... ... : ... .. . ... ... : ... .. . ... ... : ... .. . ... ...
ROW D3 : ... .. . ... ... ... : ... .. . ... ... ... : ... .. . ... : ... .. . ... : ... .. . ... ... : ... .. . ... ... : ... .. . ... ... : ... .. . ... ...
ROW D4 : ... .. . ... ... ... : ... .. . ... ... ... : --- .. . ... : ... .. . ... : ... .. . ... ... : ... .. . ... ... : ... .. 2 ... ... : ... .. . ... ...
ROW D5 : ... .. . ... ... ... : ... .. . ... ... ... : ... .. . ... : ... .. . ... : ... .. . ... ... : ... .. . ... ... : ... .. . ... ... : ... .. . ... ...
ROW D6 : ... .. . ... ... ... : ... .. . ... ... ... : ... .. . ... : ... .. . ... : ... .. . ... ... : ... .. . ... ... : ... .. . ... ... : ... .. . ... ...
ROW D7 : ... .. . ... ... ... : ... .. . ... ... ... : ... .. . ... : ... .. . ... : ... .. . ... ... : ... .. . ... ... : ... .. . ... ... : ... .. . ... ...
ROW D8 : ... .. . ... ... ... : ... .. . ... ... ... : ... .. . ... : ... .. . ... : ... .. . ... ... : ... .. . ... ... : ... .. . ... ... : ... .. . ... ...
ROW D9 : ... .. . ... ... ... : ... .. . ... ... ... : ... .. . ... : ... .. . ... : ... .. . ... ... : ... .. . ... ... : ... .. . ... ... : ... .. 3 ... ...
ROW DA : ... .. . ... ... ... : ... .. . ... ... ... : ... .. . ... : ... .. . ... : ... .. . ... ... : ... .. . ... ... : ... .. . ... ... : ... .. . ... ...
ROW DB : ... .. . ... ... ... : ... .. . ... ... ... : ... .. . ... : ... .. . ... : ... .. . ... ... : ... .. . ... ... : ... .. . ... ... : ... .. . ... ...
ROW DC : ... .. . ... ... ... : ... .. . ... ... ... : ... .. . ... : ... .. . ... : ... .. . ... ... : ... .. . ... ... : ... .. . ... ... : ... .. . ... ...
ROW DD : ... .. . ... ... ... : ... .. . ... ... ... : ... .. . ... : ... .. . ... : ... .. . ... ... : ... .. . ... ... : ... .. . ... ... : ... .. . ... ...
ROW DE : ... .. . ... ... ... : ... .. . ... ... ... : ... .. . ... : ... .. . ... : ... .. . ... ... : ... .. . ... ... : ... .. . ... ... : ... .. . ... ...
ROW DF : ... .. 1 ... ... ... : ... .. . ... ... ... : ... .. . ... : ... .. . ... : ... .. . ... ... : ... .. 1 ... ... : ... .. 1 ... ... : ... .. 1 ... ...
ROW E0 : ... .. . ... ... ... : ... .. . ... ... ... : ... .. . ... : ... .. . ... : ... .. . ... ... : ... .. . ... ... : ... .. . ... ... : ... .. . ... ...
ROW E1 : ... .. . ... ... ... : ... .. . ... ... ... : ... .. . ... : ... .. . ... : ... .. . ... ... : ... .. . ... ... : ... .. . ... ... : ... .. . ... ...
ROW E2 : ... .. . ... ... ... : ... .. . ... ... ... : ... .. . ... : ... .. . ... : ... .. . ... ... : ... .. . ... ... : ... .. . ... ... : ... .. . ... ...
ROW E3 : ... .. . ... ... ... : ... .. . ... ... ... : ... .. . ... : ... .. . ... : ... .. . ... ... : ... .. . ... ... : ... .. . ... ... : ... .. . ... ...
ROW E4 : ... .. . ... ... ... : ... .. . ... ... ... : ... .. . ... : ... .. . ... : ... .. . ... ... : ... .. . ... ... : ... .. . ... ... : ... .. . ... ...
ROW E5 : ... .. 0 ... V00 ... : ... .. . ... ... ... : ... .. . ... : ... .. . ... : ... .. . ... ... : ... .. . ... ... : ... .. . ... ... : ... .. . ... ...
ROW E6 : ... .. . ... ... ... : ... .. . ... ... ... : ... .. . ... : ... .. . ... : ... .. . ... ... : ... .. . ... ... : ... .. . ... ... : ... .. . ... ...
ROW E7 : ... .. . ... ... ... : ... .. . ... ... ... : ... .. . ... : ... .. . ... : ... .. . ... ... : ... .. . ... ... : ... .. . ... ... : ... .. . ... ...
ROW E8 : C#3 00 8 P80 V01 ... : ... .. . ... ... ... : F#2 00 . ... : ... .. . ... : ... .. . ... ... : C#3 01 4 ... V05 : E-3 01 4 ... V05 : A-3 01 3 ... ...
ROW E9 : ... .. 7 ... ... ... : ... .. 1 ... ... ... : ... .. . ... : ... .. . ... : ... .. . ... ... : ... .. 3 ... ... : ... .. 3 ... ... : ... .. 4 ... ...
ROW EA : ... .. 6 ... ... ... : ... .. . ... ... ... : ... .. . ... : ... .. . ... : ... .. . ... ... : ... .. . ... ... : ... .. . ... ... : ... .. . ... ...
ROW EB : ... .. 5 ... ... ... : ... .. . ... ... ... : ... .. . ... : ... .. . ... : ... .. . ... ... : ... .. . ... ... : ... .. . ... ... : ... .. 3 ... ...
ROW EC : ... .. . ... ... ... : ... .. . ... ... ... : ... .. . ... : ... .. . ... : ... .. . ... ... : ... .. . ... ... : ... .. . ... ... : ... .. . ... ...
ROW ED : ... .. . ... ... ... : ... .. . ... ... ... : ... .. . ... : ... .. . ... : ... .. . ... ... : ... .. . ... ... : ... .. 2 ... ... : ... .. . ... ...
ROW EE : ... .. . ... ... ... : ... .. . ... ... ... : ... .. . ... : ... .. . ... : ... .. . ... ... : ... .. . ... ... : ... .. . ... ... : ... .. . ... ...
ROW EF : ... .. . ... ... ... : ... .. 0 ... V00 ... : ... .. . ... : ... .. . ... : ... .. . ... ... : ... .. 2 ... ... : ... .. . ... ... : ... .. . ... ...
ROW F0 : ... .. . ... ... ... : ... .. . ... ... ... : ... .. . ... : ... .. . ... : ... .. . ... ... : ... .. . ... ... : ... .. . ... ... : ... .. . ... ...
ROW F1 : ... .. . ... ... ... : ... .. . ... ... ... : ... .. . ... : ... .. . ... : ... .. . ... ... : ... .. . ... ... : ... .. . ... ... : ... .. . ... ...
ROW F2 : ... .. . ... ... ... : C#3 00 4 P81 V02 ... : ... .. . ... : ... .. . ... : ... .. . ... ... : ... .. . ... ... : ... .. 1 ... ... : ... .. 2 ... ...
ROW F3 : ... .. . ... ... ... : ... .. 3 ... ... ... : ... .. . ... : ... .. . ... : ... .. . ... ... : ... .. . ... ... : ... .. . ... ... : ... .. . ... ...
ROW F4 : ... .. . ... ... ... : ... .. . ... ... ... : ... .. . ... : ... .. . ... : ... .. . ... ... : ... .. . ... ... : ... .. . ... ... : ... .. . ... ...
ROW F5 : ... .. . ... ... ... : ... .. 2 ... ... ... : ... .. . ... : ... .. . ... : ... .. . ... ... : ... .. . ... ... : ... .. . ... ... : ... .. . ... ...
ROW F6 : ... .. . ... ... ... : ... .. . ... ... ... : ... .. . ... : ... .. . ... : ... .. . ... ... : ... .. . ... ... : ... .. . ... ... : ... .. . ... ...
ROW F7 : ... .. . ... ... ... : ... .. . ... ... ... : ... .. . ... : ... .. . ... : ... .. . ... ... : ... .. . ... ... : ... .. . ... ... : ... .. 1 ... ...
ROW F8 : ... .. . ... ... ... : ... .. . ... ... ... : ... .. . ... : ... .. . ... : ... .. . ... ... : ... .. . ... ... : ... .. . ... ... : ... .. . ... ...
ROW F9 : ... .. . ... ... ... : ... .. . ... ... ... : ... .. . ... : ... .. . ... : ... .. . ... ... : ... .. . ... ... : ... .. . ... ... : ... .. . ... ...
ROW FA : ... .. . ... ... ... : ... .. . ... ... ... : ... .. . ... : ... .. . ... : ... .. . ... ... : ... .. . ... ... : ... .. . ... ... : ... .. . ... ...
ROW FB : ... .. . ... ... ... : ... .. . ... ... ... : ... .. . ... : ... .. . ... : ... .. . ... ... : ... .. . ... ... : ... .. . ... ... : ... .. . ... ...
ROW FC : ... .. . ... ... ... : ... .. . ... ... ... : --- .. . ... : ... .. . ... : ... .. . ... ... : ... .. . ... ... : ... .. . ... ... : ... .. . ... ...
ROW FD : ... .. 1 ... ... ... : ... .. . ... ... ... : ... .. . ... : ... .. . ... : ... .. . ... ... : ... .. . ... ... : ... .. . ... ... : ... .. . ... ...
ROW FE : ... .. . ... ... ... : ... .. . ... ... ... : ... .. . ... : ... .. . ... : ... .. . ... ... : ... .. . ... ... : ... .. . ... ... : ... .. . ... ...
ROW FF : ... .. . ... ... ... : ... .. . ... ... ... : ... .. . ... : ... .. . ... : ... .. . ... ... : ... .. . ... ... : ... .. . ... ... : ... .. . ... ...

PATTERN 0E
ROW 00 : ... .. . ... ... ... : ... .. . ... ... ... : ... .. . ... : ... .. . ... : ... .. . ... ... : ... .. . ... ... : ... .. . ... ... : ... .. . ... ...
ROW 01 : ... .. . ... ... ... : ... .. . ... ... ... : ... .. . ... : ... .. . ... : ... .. . ... ... : ... .. . ... ... : --- .. . P7E ... : ... .. 0 ... ...
ROW 02 : ... .. . ... ... ... : ... .. . ... ... ... : ... .. . ... : ... .. . ... : ... .. . ... ... : ... .. . ... ... : ... .. . ... ... : ... .. . ... ...
ROW 03 : ... .. 0 ... V00 ... : ... .. . ... ... ... : ... .. . ... : ... .. . ... : ... .. . ... ... : ... .. . ... ... : ... .. . ... ... : ... .. . ... ...
ROW 04 : ... .. . ... ... ... : ... .. . ... ... ... : ... .. . ... : ... .. . ... : ... .. . ... ... : ... .. . ... ... : ... .. . ... ... : ... .. . ... ...
ROW 05 : ... .. . ... ... ... : ... .. . ... ... ... : ... .. . ... : ... .. . ... : ... .. . ... ... : ... .. . ... ... : ... .. . ... ... : ... .. . ... ...
ROW 06 : ... .. . ... ... ... : ... .. . ... ... ... : ... .. . ... : ... .. . ... : ... .. . ... ... : ... .. . ... ... : ... .. . ... ... : ... .. . ... ...
ROW 07 : ... .. . ... ... ... : ... .. 1 ... ... ... : ... .. . ... : ... .. . ... : ... .. . ... ... : ... .. . ... ... : ... .. . ... ... : ... .. . ... ...
ROW 08 : ... .. . ... ... ... : ... .. . ... ... ... : ... .. . ... : ... .. . ... : ... .. . ... ... : ... .. . ... ... : ... .. . ... ... : ... .. . ... ...
ROW 09 : ... .. . ... ... ... : ... .. . ... ... ... : ... .. . ... : ... .. . ... : ... .. . ... ... : ... .. 1 ... ... : ... .. . ... ... : ... .. . ... ...
ROW 0A : ... .. . ... ... ... : ... .. . ... ... ... : ... .. . ... : ... .. . ... : ... .. . ... ... : ... .. . ... ... : ... .. . ... ... : ... .. . ... ...
ROW 0B : ... .. . ... ... ... : ... .. . ... ... ... : ... .. . ... : ... .. . ... : ... .. . ... ... : ... .. . ... ... : ... .. . ... ... : ... .. . ... ...
ROW 0C : ... .. . ... ... ... : ... .. . ... ... ... : ... .. . ... : ... .. . ... : ... .. . ... ... : ... .. . ... ... : ... .. . ... ... : ... .. . ... ...
ROW 0D : ... .. . ... ... ... : ... .. 0 ... V00 ... : ... .. . ... : ... .. . ... : ... .. . ... ... : ... .. . ... ... : ... .. . ... ... : ... .. . ... ...
ROW 0E : ... .. . ... ... ... : ... .. . ... ... ... : ... .. . ... : ... .. . ... : ... .. . ... ... : ... .. . ... ... : ... .. . ... ... : ... .. . ... ...
ROW 0F : ... .. . ... ... ... : ... .. . ... ... ... : ... .. . ... : ... .. . ... : ... .. . ... ... : ... .. . ... ... : ... .. . ... ... : ... .. . ... ...
ROW 10 : B-2 00 8 P80 V01 ... : ... .. . ... ... ... : G-2 00 . ... : ... .. . ... : ... .. . ... ... : B-2 01 4 ... ... : D-3 01 4 P81 ... : F#3 01 3 ... ...
ROW 11 : ... .. 7 ... ... ... : ... .. . ... ... ... : ... .. . ... : ... .. . ... : ... .. . ... ... : ... .. 3 ... ... : ... .. . ... ... : ... .. 4 ... ...
ROW 12 : ... .. 6 ... ... ... : ... .. . ... ... ... : ... .. . ... : ... .. . ... : ... .. . ... ... : ... .. . ... ... : ... .. . ... ... : ... .. . ... ...
ROW 13 : ... .. 5 ... ... ... : ... .. . ... ... ... : ... .. . ... : ... .. . ... : ... .. . ... ... : ... .. . ... ... : ... .. . ... ... : ... .. . ... ...
ROW 14 : ... .. . ... ... ... : ... .. . ... ... ... : ... .. . ... : ... .. . ... : ... .. . ... ... : ... .. . ... ... : ... .. 3 ... ... : ... .. . ... ...
ROW 15 : ... .. . ... ... ... : ... .. . ... ... ... : ... .. . ... : ... .. . ... : ... .. . ... ... : ... .. . ... ... : ... .. . ... ... : ... .. . ... ...
ROW 16 : ... .. . ... ... ... : ... .. . ... ... ... : ... .. . ... : ... .. . ... : ... .. . ... ... : ... .. . ... ... : ... .. . ... ... : ... .. . ... ...
ROW 17 : ... .. . ... ... ... : ... .. . ... ... ... : ... .. . ... : ... .. . ... : ... .. . ... ... : ... .. 2 ... ... : ... .. . ... ... : ... .. . ... ...
ROW 18 : ... .. . ... ... ... : ... .. . ... ... ... : ... .. . ... : ... .. . ... : ... .. . ... ... : ... .. . ... ... : ... .. . ... ... : ... .. . ... ...
ROW 19 : ... .. . ... ... ... : ... .. . ... ... ... : ... .. . ... : ... .. . ... : ... .. . ... ... : ... .. . ... ... : ... .. . ... ... : ... .. . ... ...
ROW 1A : ... .. . ... ... ... : B-2 00 4 P81 V02 ... : ... .. . ... : ... .. . ... : ... .. . ... ... : ... .. . ... ... : ... .. 1 ... ... : ... .. 2 ... ...
ROW 1B : ... .. 1 ... ... ... : ... .. 3 ... ... ... : ... .. . ... : ... .. . ... : ... .. . ... ... : ... .. . ... ... : ... .. . ... ... : ... .. 1 ... ...
ROW 1C : ... .. . ... ... ... : ... .. . ... ... ... : ... .. . ... : ... .. . ... : ... .. . ... ... : ... .. . ... ... : ... .. . ... ... : ... .. . ... ...
ROW 1D : ... .. . ... ... ... : ... .. 2 ... ... ... : ... .. . ... : ... .. . ... : ... .. . ... ... : ... .. 1 ... ... : ... .. . ... ... : ... .. . ... ...
ROW 1E : ... .. . ... ... ... : ... .. . ... ... ... : ... .. . ... : ... .. . ... : ... .. . ... ... : ... .. . ... ... : ... .. . ... ... : ... .. . ... ...
ROW 1F : ... .. . ... ... ... : ... .. . ... ... ... : ... .. . ... : ... .. . ... : ... .. . ... ... : ... .. . ... ... : ... .. . ... ... : ... .. . ... ...
ROW 20 : ... .. . ... ... ... : ... .. . ... ... ... : ... .. . ... : ... .. . ... : ... .. . ... ... : ... .. . ... ... : ... .. . ... ... : ... .. . ... ...
ROW 21 : ... .. 0 ... V00 ... : ... .. . ... ... ... : ... .. . ... : ... .. . ... : ... .. . ... ... : ... .. . ... ... : ... .. . ... ... : ... .. . ... ...
ROW 22 : ... .. . ... ... ... : ... .. . ... ... ... : ... .. . ... : ... .. . ... : ... .. . ... ... : ... .. . ... ... : ... .. . ... ... : ... .. . ... ...
ROW 23 : ... .. . ... ... ... : ... .. . ... ... ... : ... .. . ... : ... .. . ... : ... .. . ... ... : ... .. . ... ... : ... .. . ... ... : ... .. . ... ...
ROW 24 : E-2 00 8 P80 V01 ... : ... .. . ... ... ... : D-3 00 . ... : ... .. . ... : ... .. . ... ... : ... .. 4 ... ... : ... .. 3 ... ... : G-3 01 2 ... ...
ROW 25 : ... .. 7 ... ... ... : ... .. 1 ... ... ... : ... .. . ... : ... .. . ... : ... .. . ... ... : ... .. 3 ... ... : ... .. 2 ... ... : ... .. 3 ... ...
ROW 26 : ... .. 6 ... ... ... : ... .. . ... ... ... : ... .. . ... : ... .. . ... : ... .. . ... ... : ... .. . ... ... : ... .. . ... ... : ... .. . ... ...
ROW 27 : ... .. 5 ... ... ... : ... .. . ... ... ... : ... .. . ... : ... .. . ... : ... .. . ... ... : ... .. . ... ... : ... .. . ... ... : ... .. 2 ... ...
ROW 28 : ... .. . ... ... ... : ... .. . ... ... ... : ... .. . ... : ... .. . ... : ... .. . ... ... : ... .. . ... ... : ... .. . ... ... : ... .. . ... ...
ROW 29 : ... .. . ... ... ... : ... .. . ... ... ... : ... .. . ... : ... .. . ... : ... .. . ... ... : ... .. . ... ... : ... .. . ... ... : ... .. 3 ... ...
ROW 2A : ... .. . ... ... ... : ... .. . ... ... ... : ... .. . ... : ... .. . ... : ... .. . ... ... : ... .. . ... ... : ... .. . ... ... : ... .. . ... ...
ROW 2B : ... .. . ... ... ... : ... .. 0 ... V00 ... : ... .. . ... : ... .. . ... : ... .. . ... ... : ... .. 2 ... ... : ... .. . ... ... : ... .. . ... ...
ROW 2C : ... .. . ... ... ... : ... .. . ... ... ... : ... .. . ... : ... .. . ... : ... .. . ... ... : ... .. . ... ... : ... .. . ... ... : ... .. . ... ...
ROW 2D : ... .. . ... ... ... : ... .. . ... ... ... : ... .. . ... : ... .. . ... : ... .. . ... ... : ... .. . ... ... : ... .. . ... ... : ... .. . ... ...
ROW 2E : ... .. . ... ... ... : E-2 00 4 P81 V02 ... : C#3 00 . ... : ... .. . ... : ... .. . ... ... : ... .. . ... ... : ... .. . ... ... : ... .. . ... ...
ROW 2F : ... .. 1 ... ... ... : ... .. 3 ... ... ... : ... .. . ... : ... .. . ... : ... .. . ... ... : ... .. . ... ... : ... .. . ... ... : ... .. 1 ... ...
ROW 30 : ... .. . ... ... ... : ... .. . ... ... ... : ... .. . ... : ... .. . ... : ... .. . ... ... : ... .. . ... ... : ... .. . ... ... : ... .. . ... ...
ROW 31 : ... .. . ... ... ... : ... .. 2 ... ... ... : ... .. . ... : ... .. . ... : ... .. . ... ... : ... .. 1 ... ... : ... .. 1 ... ... : ... .. . ... ...
ROW 32 : ... .. . ... ... ... : ... .. . ... ... ... : ... .. . ... : ... .. . ... : ... .. . ... ... : ... .. . ... ... : ... .. . ... ... : ... .. . ... ...
ROW 33 : ... .. . ... ... ... : ... .. . ... ... ... : ... .. . ... : ... .. . ... : ... .. . ... ... : ... .. . ... ... : ... .. . ... ... : ... .. . ... ...
ROW 34 : ... .. . ... ... ... : ... .. . ... ... ... : ... .. . ... : ... .. . ... : ... .. . ... ... : ... .. . ... ... : ... .. . ... ... : ... .. . ... ...
ROW 35 : ... .. 0 ... V00 ... : ... .. . ... ... ... : ... .. . ... : ... .. . ... : ... .. . ... ... : ... .. . ... ... : ... .. . ... ... : ... .. . ... ...
ROW 36 : ... .. . ... ... ... : ... .. . ... ... ... : ... .. . ... : ... .. . ... : ... .. . ... ... : ... .. . ... ... : ... .. . ... ... : ... .. . ... ...
ROW 37 : ... .. . ... ... ... : ... .. . ... ... ... : ... .. . ... : ... .. . ... : ... .. . ... ... : ... .. . ... ... : ... .. . ... ... : ... .. . ... ...
ROW 38 : ... .. . ... ... ... : ... .. . ... ... ... : B-2 00 . ... : ... .. . ... : ... .. . ... ... : G-2 01 6 ... V00 : G-1 01 4 ... V00 : G-0 01 3 ... ...
ROW 39 : ... .. . ... ... ... : ... .. 1 ... ... ... : ... .. . ... : ... .. . ... : ... .. . ... ... : ... .. 5 ... ... : ... .. . ... ... : ... .. 4 ... ...
ROW 3A : ... .. . ... ... ... : ... .. . ... ... ... : ... .. . ... : ... .. . ... : ... .. . ... ... : ... .. . ... ... : ... .. . ... ... : ... .. . ... ...
ROW 3B : ... .. . ... ... ... : ... .. . ... ... ... : ... .. . ... : ... .. . ... : ... .. . ... ... : ... .. 4 ... ... : ... .. 3 ... ... : ... .. 3 ... ...
ROW 3C : ... .. . ... ... ... : ... .. . ... ... ... : ... .. . ... : ... .. . ... : ... .. . ... ... : ... .. . ... ... : ... .. . ... ... : ... .. . ... ...
ROW 3D : ... .. . ... ... ... : ... .. . ... ... ... : ... .. . ... : ... .. . ... : ... .. . ... ... : ... .. 3 ... ... : ... .. 2 ... ... : ... .. . ... ...
ROW 3E : ... .. . ... ... ... : ... .. . ... ... ... : ... .. . ... : ... .. . ... : ... .. . ... ... : ... .. . ... ... : ... .. . ... ... : ... .. . ... ...
ROW 3F : ... .. . ... ... ... : ... .. 0 ... V00 ... : ... .. . ... : ... .. . ... : ... .. . ... ... : ... .. . ... ... : ... .. . ... ... : ... .. . ... ...
ROW 40 : ... .. . ... ... ... : ... .. . ... ... ... : ... .. . ... : ... .. . ... : ... .. . ... ... : ... .. . ... ... : ... .. . ... ... : ... .. . ... ...
ROW 41 : ... .. . ... ... ... : ... .. . ... ... ... : ... .. . ... : ... .. . ... : ... .. . ... ... : ... .. . ... ... : ... .. . ... ... : ... .. . ... ...
ROW 42 : ... .. . ... ... ... : ... .. . ... ... ... : A-2 00 . ... : ... .. . ... : ... .. . ... ... : ... .. 2 ... ... : ... .. 1 ... ... : ... .. 2 ... ...
ROW 43 : ... .. . ... ... ... : ... .. . ... ... ... : ... .. . ... : ... .. . ... : ... .. . ... ... : ... .. . ... ... : ... .. . ... ... : ... .. . ... ...
ROW 44 : ... .. . ... ... ... : ... .. . ... ... ... : ... .. . ... : ... .. . ... : ... .. . ... ... : ... .. . ... ... : ... .. . ... ... : ... .. . ... ...
ROW 45 : ... .. . ... ... ... : ... .. . ... ... ... : ... .. . ... : ... .. . ... : ... .. . ... ... : ... .. . ... ... : ... .. . ... ... : ... .. . ... ...
ROW 46 : ... .. . ... ... ... : ... .. . ... ... ... : ... .. . ... : ... .. . ... : ... .. . ... ... : ... .. . ... ... : ... .. . ... ... : ... .. . ... ...
ROW 47 : ... .. . ... ... ... : ... .. . ... ... ... : ... .. . ... : ... .. . ... : ... .. . ... ... : ... .. . ... ... : ... .. . ... ... : ... .. 1 ... ...
ROW 48 : ... .. . ... ... ... : ... .. . ... ... ... : ... .. . ... : ... .. . ... : ... .. . ... ... : ... .. . ... ... : ... .. . ... ... : ... .. . ... ...
ROW 49 : ... .. . ... ... ... : ... .. . ... ... ... : ... .. . ... : ... .. . ... : ... .. . ... ... : ... .. . ... ... : ... .. . ... ... : ... .. . ... ...
ROW 4A : ... .. . ... ... ... : ... .. . ... ... ... : ... .. . ... : ... .. . ... : ... .. . ... ... : ... .. . ... ... : ... .. . ... ... : ... .. . ... ...
ROW 4B : ... .. . ... ... ... : ... .. . ... ... ... : ... .. . ... : ... .. . ... : ... .. . ... ... : ... .. . ... ... : ... .. . ... ... : ... .. . ... ...
ROW 4C : B-2 00 D P80 V01 ... : ... .. . ... ... ... : G-2 00 . ... : ... .. . ... : ... .. . ... ... : D-3 01 6 ... ... : D-2 01 1 ... ... : D-1 01 1 ... ...
ROW 4D : ... .. C ... ... ... : ... .. . ... ... ... : ... .. . ... : ... .. . ... : ... .. . ... ... : ... .. 5 ... ... : ... .. . ... ... : ... .. . ... ...
ROW 4E : ... .. B ... ... ... : ... .. . ... ... ... : ... .. . ... : ... .. . ... : ... .. . ... ... : ... .. . ... ... : ... .. . ... ... : ... .. . ... ...
ROW 4F : ... .. 8 ... ... ... : ... .. . ... ... ... : ... .. . ... : ... .. . ... : ... .. . ... ... : ... .. 4 ... ... : ... .. . ... ... : ... .. . ... ...
ROW 50 : ... .. . ... ... ... : ... .. . ... ... ... : ... .. . ... : ... .. . ... : ... .. . ... ... : ... .. . ... ... : ... .. . ... ... : ... .. . ... ...
ROW 51 : ... .. . ... ... ... : ... .. . ... ... ... : ... .. . ... : ... .. . ... : ... .. . ... ... : ... .. 1 ... ... : --- .. . P85 ... : ... .. 0 ... ...
ROW 52 : ... .. . ... ... ... : ... .. . ... ... ... : ... .. . ... : ... .. . ... : ... .. . ... ... : ... .. . ... ... : ... .. . ... ... : ... .. . ... ...
ROW 53 : ... .. . ... ... ... : ... .. . ... ... ... : ... .. . ... : ... .. . ... : ... .. . ... ... : ... .. . ... ... : ... .. . ... ... : ... .. . ... ...
ROW 54 : ... .. . ... ... ... : ... .. . ... ... ... : ... .. . ... : ... .. . ... : ... .. . ... ... : ... .. . ... ... : ... .. . ... ... : ... .. . ... ...
ROW 55 : ... .. . ... ... ... : ... .. . ... ... ... : ... .. . ... : ... .. . ... : ... .. . ... ... : ... .. . ... ... : ... .. . ... ... : ... .. . ... ...
ROW 56 : ... .. . ... ... ... : B-2 00 6 P81 V02 ... : F#2 00 . ... : ... .. . ... : ... .. . ... ... : ... .. . ... ... : ... .. . ... ... : ... .. . ... ...
ROW 57 : ... .. . ... ... ... : ... .. 5 ... ... ... : ... .. . ... : ... .. . ... : ... .. . ... ... : ... .. . ... ... : ... .. . ... ... : ... .. . ... ...
ROW 58 : ... .. . ... ... ... : ... .. . ... ... ... : ... .. . ... : ... .. . ... : ... .. . ... ... : ... .. . ... ... : ... .. . ... ... : ... .. . ... ...
ROW 59 : ... .. . ... ... ... : ... .. 4 ... ... ... : ... .. . ... : ... .. . ... : ... .. . ... ... : ... .. . ... ... : ... .. . ... ... : ... .. . ... ...
ROW 5A : ... .. . ... ... ... : ... .. . ... ... ... : ... .. . ... : ... .. . ... : ... .. . ... ... : ... .. . ... ... : ... .. . ... ... : ... .. . ... ...
ROW 5B : ... .. . ... ... ... : ... .. . ... ... ... : ... .. . ... : ... .. . ... : ... .. . ... ... : ... .. . ... ... : ... .. . ... ... : ... .. . ... ...
ROW 5C : ... .. . ... ... ... : ... .. . ... ... ... : ... .. . ... : ... .. . ... : ... .. . ... ... : ... .. . ... ... : ... .. . ... ... : ... .. . ... ...
ROW 5D : ... .. . ... ... ... : ... .. . ... ... ... : ... .. . ... : ... .. . ... : ... .. . ... ... : ... .. . ... ... : ... .. . ... ... : ... .. . ... ...
ROW 5E : ... .. . ... ... ... : ... .. . ... ... ... : ... .. . ... : ... .. . ... : ... .. . ... ... : ... .. . ... ... : ... .. . ... ... : ... .. . ... ...
ROW 5F : ... .. . ... ... ... : ... .. . ... ... ... : ... .. . ... : ... .. . ... : ... .. . ... ... : ... .. . ... ... : ... .. . ... ... : ... .. . ... ...
ROW 60 : A-2 00 B ... ... ... : ... .. . ... ... ... : E-2 00 . ... : ... .. . ... : ... .. . ... ... : ... .. 4 ... V05 : E-3 01 3 P81 V05 : A-3 01 2 ... ...
ROW 61 : ... .. A ... ... ... : ... .. . ... ... ... : ... .. . ... : ... .. . ... : ... .. . ... ... : ... .. 3 ... ... : ... .. . ... ... : ... .. 3 ... ...
ROW 62 : ... .. 9 ... ... ... : ... .. . ... ... ... : ... .. . ... : ... .. . ... : ... .. . ... ... : ... .. . ... ... : ... .. . ... ... : ... .. . ... ...
ROW 63 : ... .. 7 ... ... ... : ... .. . ... ... ... : ... .. . ... : ... .. . ... : ... .. . ... ... : ... .. . ... ... : ... .. . ... ... : ... .. . ... ...
ROW 64 : ... .. . ... ... ... : ... .. . ... ... ... : ... .. . ... : ... .. . ... : ... .. . ... ... : ... .. . ... ... : ... .. 2 ... ... : ... .. . ... ...
ROW 65 : ... .. . ... ... ... : ... .. . ... ... ... : ... .. . ... : ... .. . ... : ... .. . ... ... : ... .. . ... ... : ... .. . ... ... : ... .. . ... ...
ROW 66 : ... .. . ... ... ... : ... .. . ... ... ... : ... .. . ... : ... .. . ... : ... .. . ... ... : ... .. . ... ... : ... .. . ... ... : ... .. . ... ...
ROW 67 : ... .. . ... ... ... : ... .. . ... ... ... : ... .. . ... : ... .. . ... : ... .. . ... ... : ... .. 2 ... ... : ... .. . ... ... : ... .. . ... ...
ROW 68 : ... .. . ... ... ... : ... .. . ... ... ... : ... .. . ... : ... .. . ... : ... .. . ... ... : ... .. . ... ... : ... .. . ... ... : ... .. . ... ...
ROW 69 : ... .. . ... ... ... : ... .. . ... ... ... : ... .. . ... : ... .. . ... : ... .. . ... ... : ... .. . ... ... : ... .. . ... ... : ... .. . ... ...
ROW 6A : ... .. 8 ... ... ... : A-2 00 4 ... ... ... : ... .. . ... : ... .. . ... : ... .. . ... ... : ... .. . ... ... : ... .. . ... ... : ... .. . ... ...
ROW 6B : ... .. . ... ... ... : ... .. 3 ... ... ... : ... .. . ... : ... .. . ... : ... .. . ... ... : ... .. . ... ... : ... .. . ... ... : ... .. . ... ...
ROW 6C : ... .. . ... ... ... : ... .. . ... ... ... : ... .. . ... : ... .. . ... : ... .. . ... ... : ... .. . ... ... : ... .. . ... ... : ... .. . ... ...
ROW 6D : ... .. . ... ... ... : ... .. 2 ... ... ... : ... .. . ... : ... .. . ... : ... .. . ... ... : ... .. . ... ... : ... .. . ... ... : ... .. . ... ...
ROW 6E : ... .. . ... ... ... : ... .. . ... ... ... : ... .. . ... : ... .. . ... : ... .. . ... ... : ... .. . ... ... : ... .. . ... ... : ... .. . ... ...
ROW 6F : ... .. . ... ... ... : ... .. . ... ... ... : ... .. . ... : ... .. . ... : ... .. . ... ... : ... .. . ... ... : ... .. . ... ... : ... .. . ... ...
ROW 70 : ... .. . ... ... ... : ... .. . ... ... ... : ... .. . ... : ... .. . ... : ... .. . ... ... : ... .. . ... ... : ... .. . ... ... : ... .. . ... ...
ROW 71 : ... .. . ... ... ... : ... .. . ... ... ... : ... .. . ... : ... .. . ... : ... .. . ... ... : ... .. . ... ... : ... .. . ... ... : ... .. . ... ...
ROW 72 : ... .. . ... ... ... : ... .. . ... ... ... : ... .. . ... : ... .. . ... : ... .. . ... ... : ... .. . ... ... : ... .. . ... ... : ... .. . ... ...
ROW 73 : ... .. . ... ... ... : ... .. . ... ... ... : ... .. . ... : ... .. . ... : ... .. . ... ... : ... .. . ... ... : ... .. . ... ... : ... .. . ... ...
ROW 74 : ... .. . ... ... ... : ... .. 3 ... ... ... : ... .. . ... : ... .. . ... : ... .. . ... ... : ... .. . ... ... : ... .. . ... ... : ... .. . ... ...
ROW 75 : ... .. . ... ... ... : ... .. . ... ... ... : ... .. . ... : ... .. . ... : ... .. . ... ... : ... .. . ... ... : ... .. . ... ... : ... .. . ... ...
ROW 76 : ... .. . ... ... ... : ... .. . ... ... ... : ... .. . ... : ... .. . ... : ... .. . ... ... : ... .. . ... ... : ... .. . ... ... : ... .. . ... ...
ROW 77 : ... .. . ... ... ... : ... .. . ... ... ... : ... .. . ... : ... .. . ... : ... .. . ... ... : ... .. . ... ... : ... .. . ... ... : ... .. . ... ...
ROW 78 : ... .. . ... ... ... : ... .. . ... ... ... : ... .. . ... : ... .. . ... : ... .. . ... ... : ... .. . ... ... : ... .. . ... ... : ... .. . ... ...
ROW 79 : ... .. . ... ... ... : ... .. . ... ... ... : ... .. . ... : ... .. . ... : ... .. . ... ... : ... .. . ... ... : ... .. . ... ... : ... .. . ... ...
ROW 7A : ... .. . ... ... ... : ... .. . ... ... ... : ... .. . ... : ... .. . ... : ... .. . ... ... : ... .. . ... ... : ... .. . ... ... : ... .. . ... ...
ROW 7B : ... .. . ... ... ... : ... .. . ... ... ... : ... .. . ... : ... .. . ... : ... .. . ... ... : ... .. . ... ... : ... .. . ... ... : ... .. . ... ...
ROW 7C : ... .. . ... ... ... : ... .. . ... ... ... : ... .. . ... : ... .. . ... : ... .. . ... ... : ... .. . ... ... : ... .. . ... ... : ... .. . ... ...
ROW 7D : ... .. . ... ... ... : ... .. . ... ... ... : ... .. . ... : ... .. . ... : ... .. . ... ... : ... .. . ... ... : ... .. . ... ... : ... .. . ... ...
ROW 7E : ... .. 9 ... ... ... : ... .. 4 ... ... ... : --- .. . ... : ... .. . ... : ... .. . ... ... : ... .. . ... ... : ... .. . ... ... : ... .. . ... ...
ROW 7F : ... .. . ... ... ... : ... .. . ... ... ... : ... .. . ... : ... .. . ... : ... .. . ... ... : ... .. . ... ... : ... .. . ... ... : ... .. 1 ... ...
ROW 80 : ... .. . ... ... ... : ... .. . ... ... ... : ... .. . ... : ... .. . ... : ... .. . ... ... : ... .. . ... ... : ... .. . ... ... : ... .. . ... ...
ROW 81 : ... .. . ... ... ... : ... .. . ... ... ... : ... .. . ... : ... .. . ... : ... .. . ... ... : ... .. 1 ... ... : ... .. 1 ... ... : ... .. . ... ...
ROW 82 : ... .. . ... ... ... : ... .. . ... ... ... : ... .. . ... : ... .. . ... : ... .. . ... ... : ... .. . ... ... : ... .. . ... ... : ... .. . ... ...
ROW 83 : ... .. A P82 ... ... : ... .. . ... ... ... : ... .. . ... : ... .. . ... : ... .. . ... ... : ... .. . ... ... : ... .. . ... ... : ... .. . ... ...
ROW 84 : ... .. . P83 ... ... : ... .. . ... ... ... : ... .. . ... : ... .. . ... : ... .. . ... ... : ... .. . ... ... : ... .. . ... ... : ... .. . ... ...
ROW 85 : ... .. . ... ... ... : ... .. . ... ... ... : ... .. . ... : ... .. . ... : ... .. . ... ... : ... .. . ... ... : ... .. . ... ... : ... .. . ... ...
ROW 86 : ... .. . P81 ... ... : ... .. . ... ... ... : ... .. . ... : ... .. . ... : ... .. . ... ... : ... .. . ... ... : ... .. . ... ... : ... .. . ... ...
ROW 87 : ... .. . P7F ... ... : ... .. . ... ... ... : ... .. . ... : ... .. . ... : ... .. . ... ... : ... .. . ... ... : ... .. . ... ... : ... .. . ... ...
ROW 88 : ... .. 9 P7D ... ... : ... .. . ... ... ... : F#2 00 . ... : ... .. . ... : ... .. . ... ... : B-2 01 4 ... ... : D-3 01 3 ... ... : G-3 01 2 ... ...
ROW 89 : ... .. . ... ... ... : ... .. . ... ... ... : ... .. . ... : ... .. . ... : ... .. . ... ... : ... .. 3 ... ... : ... .. . ... ... : ... .. 3 ... ...
ROW 8A : ... .. . P7E ... ... : ... .. . ... ... ... : ... .. . ... : ... .. . ... : ... .. . ... ... : ... .. . ... ... : ... .. . ... ... : ... .. . ... ...
ROW 8B : ... .. . P80 ... ... : ... .. . ... ... ... : ... .. . ... : ... .. . ... : ... .. . ... ... : ... .. . ... ... : ... .. . ... ... : ... .. . ... ...
ROW 8C : ... .. . P82 ... ... : ... .. . ... ... ... : ... .. . ... : ... .. . ... : ... .. . ... ... : ... .. . ... ... : ... .. 2 ... ... : ... .. . ... ...
ROW 8D : ... .. 8 P83 ... ... : ... .. 5 P83 ... ... : ... .. . ... : ... .. . ... : ... .. . ... ... : ... .. . ... ... : ... .. . ... ... : ... .. . ... ...
ROW 8E : ... .. . ... ... ... : ... .. . P84 ... ... : ... .. . ... : ... .. . ... : ... .. . ... ... : ... .. . ... ... : ... .. . ... ... : ... .. . ... ...
ROW 8F : ... .. . P81 ... ... : ... .. . ... ... ... : ... .. . ... : ... .. . ... : ... .. . ... ... : ... .. 2 ... ... : ... .. . ... ... : ... .. . ... ...
ROW 90 : ... .. . P80 ... ... : ... .. . P82 ... ... : ... .. . ... : ... .. . ... : ... .. . ... ... : ... .. . ... ... : ... .. . ... ... : ... .. . ... ...
ROW 91 : ... .. . P7D ... ... : ... .. . P80 ... ... : ... .. . ... : ... .. . ... : ... .. . ... ... : ... .. . ... ... : ... .. . ... ... : ... .. . ... ...
ROW 92 : ... .. . ... ... ... : ... .. 4 P7E ... ... : ... .. . ... : ... .. . ... : ... .. . ... ... : ... .. . ... ... : ... .. . ... ... : ... .. . ... ...
ROW 93 : ... .. . P7E ... ... : ... .. . ... ... ... : ... .. . ... : ... .. . ... : ... .. . ... ... : ... .. . ... ... : ... .. . ... ... : ... .. . ... ...
ROW 94 : ... .. . P80 ... ... : ... .. . P7F ... ... : ... .. . ... : ... .. . ... : ... .. . ... ... : ... .. . ... ... : ... .. . ... ... : ... .. . ... ...
ROW 95 : ... .. . P81 ... ... : ... .. . P81 ... ... : ... .. . ... : ... .. . ... : ... .. . ... ... : ... .. . ... ... : ... .. . ... ... : ... .. . ... ...
ROW 96 : ... .. . P83 ... ... : ... .. . P83 ... ... : ... .. . ... : ... .. . ... : ... .. . ... ... : ... .. . ... ... : ... .. . ... ... : ... .. . ... ...
ROW 97 : ... .. 7 ... ... ... : ... .. . P84 ... ... : ... .. . ... : ... .. . ... : ... .. . ... ... : ... .. . ... ... : ... .. . ... ... : ... .. . ... ...
ROW 98 : ... .. . P81 ... ... : ... .. . ... ... ... : ... .. . ... : ... .. . ... : ... .. . ... ... : ... .. . ... ... : ... .. . ... ... : ... .. . ... ...
ROW 99 : ... .. . P80 ... ... : ... .. . P82 ... ... : ... .. . ... : ... .. . ... : ... .. . ... ... : ... .. . ... ... : ... .. . ... ... : ... .. . ... ...
ROW 9A : ... .. . P7E ... ... : ... .. . P81 ... ... : ... .. . ... : ... .. . ... : ... .. . ... ... : ... .. . ... ... : ... .. . ... ... : ... .. . ... ...
ROW 9B : ... .. . P7D ... ... : ... .. . P7E ... ... : ... .. . ... : ... .. . ... : ... .. . ... ... : ... .. . ... ... : ... .. . ... ... : ... .. . ... ...
ROW 9C : B-2 00 A P80 ... ... : ... .. 3 ... ... ... : ... .. . ... : ... .. . ... : ... .. . ... ... : ... .. . ... ... : ... .. . ... ... : ... .. . ... ...
ROW 9D : ... .. 9 ... ... ... : ... .. . P7F ... ... : ... .. . ... : ... .. . ... : ... .. . ... ... : ... .. . ... ... : ... .. . ... ... : ... .. . ... ...
ROW 9E : ... .. 8 ... ... ... : ... .. . P81 ... ... : ... .. . ... : ... .. . ... : ... .. . ... ... : ... .. . ... ... : ... .. . ... ... : ... .. . ... ...
ROW 9F : ... .. 6 ... ... ... : ... .. . P82 ... ... : ... .. . ... : ... .. . ... : ... .. . ... ... : ... .. . ... ... : ... .. . ... ... : ... .. . ... ...
ROW A0 : ... .. . ... ... ... : ... .. . P84 ... ... : ... .. . ... : ... .. . ... : ... .. . ... ... : ... .. . ... ... : ... .. . ... ... : ... .. . ... ...
ROW A1 : ... .. . ... ... ... : ... .. 2 ... ... ... : ... .. . ... : ... .. . ... : ... .. . ... ... : ... .. . ... ... : ... .. . ... ... : ... .. . ... ...
ROW A2 : ... .. . ... ... ... : ... .. . P82 ... ... : ... .. . ... : ... .. . ... : ... .. . ... ... : ... .. . ... ... : ... .. . ... ... : ... .. . ... ...
ROW A3 : ... .. . ... ... ... : ... .. . P81 ... ... : ... .. . ... : ... .. . ... : ... .. . ... ... : ... .. . ... ... : ... .. . ... ... : ... .. . ... ...
ROW A4 : ... .. . ... ... ... : ... .. . P7F ... ... : ... .. . ... : ... .. . ... : ... .. . ... ... : ... .. . ... ... : ... .. . ... ... : ... .. . ... ...
ROW A5 : ... .. . ... ... ... : ... .. . P7E ... ... : ... .. . ... : ... .. . ... : ... .. . ... ... : ... .. . ... ... : ... .. . ... ... : ... .. . ... ...
ROW A6 : ... .. . ... ... ... : B-2 00 3 P81 ... ... : --- .. . ... : ... .. . ... : ... .. . ... ... : ... .. . ... ... : ... .. . ... ... : ... .. . ... ...
ROW A7 : ... .. 1 ... ... ... : ... .. 2 ... ... ... : ... .. . ... : ... .. . ... : ... .. . ... ... : ... .. . ... ... : ... .. . ... ... : ... .. 1 ... ...
ROW A8 : ... .. . ... ... ... : ... .. . ... ... ... : ... .. . ... : ... .. . ... : ... .. . ... ... : ... .. . ... ... : ... .. . ... ... : ... .. . ... ...
ROW A9 : ... .. . ... ... ... : ... .. . ... ... ... : ... .. . ... : ... .. . ... : ... .. . ... ... : ... .. 1 ... ... : ... .. 1 ... ... : ... .. . ... ...
ROW AA : ... .. . ... ... ... : ... .. . ... ... ... : ... .. . ... : ... .. . ... : ... .. . ... ... : ... .. . ... ... : ... .. . ... ... : ... .. . ... ...
ROW AB : ... .. . ... ... ... : ... .. . ... ... ... : ... .. . ... : ... .. . ... : ... .. . ... ... : ... .. . ... ... : ... .. . ... ... : ... .. . ... ...
ROW AC : ... .. . ... ... ... : ... .. . ... ... ... : ... .. . ... : ... .. . ... : ... .. . ... ... : ... .. . ... ... : ... .. . ... ... : ... .. . ... ...
ROW AD : ... .. 0 ... V00 ... : ... .. . ... ... ... : ... .. . ... : ... .. . ... : ... .. . ... ... : ... .. . ... ... : ... .. . ... ... : ... .. . ... ...
ROW AE : ... .. . ... ... ... : ... .. . ... ... ... : ... .. . ... : ... .. . ... : ... .. . ... ... : ... .. . ... ... : ... .. . ... ... : ... .. . ... ...
ROW AF : ... .. . ... ... ... : ... .. . ... ... ... : ... .. . ... : ... .. . ... : ... .. . ... ... : ... .. . ... ... : ... .. . ... ... : ... .. . ... ...
ROW B0 : C#3 00 8 P80 V01 ... : ... .. . ... ... ... : G#2 00 . ... : ... .. . ... : ... .. . ... ... : ... .. 4 ... ... : ... .. 3 ... ... : F#3 01 2 ... ...
ROW B1 : ... .. 7 ... ... ... : ... .. 1 ... ... ... : ... .. . ... : ... .. . ... : ... .. . ... ... : ... .. 3 ... ... : ... .. . ... ... : ... .. 3 ... ...
ROW B2 : ... .. 6 ... ... ... : ... .. . ... ... ... : ... .. . ... : ... .. . ... : ... .. . ... ... : ... .. . ... ... : ... .. . ... ... : ... .. . ... ...
ROW B3 : ... .. 5 ... ... ... : ... .. . ... ... ... : ... .. . ... : ... .. . ... : ... .. . ... ... : ... .. . ... ... : ... .. . ... ... : ... .. . ... ...
ROW B4 : ... .. . ... ... ... : ... .. . ... ... ... : ... .. . ... : ... .. . ... : ... .. . ... ... : ... .. . ... ... : ... .. 2 ... ... : ... .. . ... ...
ROW B5 : ... .. . ... ... ... : ... .. . ... ... ... : ... .. . ... : ... .. . ... : ... .. . ... ... : ... .. . ... ... : ... .. . ... ... : ... .. . ... ...
ROW B6 : ... .. . ... ... ... : ... .. . ... ... ... : ... .. . ... : ... .. . ... : ... .. . ... ... : ... .. . ... ... : ... .. . ... ... : ... .. . ... ...
ROW B7 : ... .. . ... ... ... : ... .. 0 ... V00 ... : ... .. . ... : ... .. . ... : ... .. . ... ... : ... .. 2 ... ... : ... .. . ... ... : ... .. . ... ...
ROW B8 : ... .. . ... ... ... : ... .. . ... ... ... : ... .. . ... : ... .. . ... : ... .. . ... ... : ... .. . ... ... : ... .. . ... ... : ... .. . ... ...
ROW B9 : ... .. . ... ... ... : ... .. . ... ... ... : ... .. . ... : ... .. . ... : ... .. . ... ... : ... .. . ... ... : ... .. . ... ... : ... .. . ... ...
ROW BA : ... .. 6 ... ... ... : C#3 00 1 P81 V02 ... : ... .. . ... : ... .. . ... : ... .. . ... ... : ... .. . ... ... : ... .. . ... ... : ... .. . ... ...
ROW BB : ... .. . ... ... ... : ... .. . ... ... ... : ... .. . ... : ... .. . ... : ... .. . ... ... : ... .. . ... ... : ... .. . ... ... : ... .. . ... ...
ROW BC : ... .. . ... ... ... : ... .. . ... ... ... : ... .. . ... : ... .. . ... : ... .. . ... ... : ... .. . ... ... : ... .. . ... ... : ... .. . ... ...
ROW BD : ... .. . ... ... ... : ... .. . ... ... ... : ... .. . ... : ... .. . ... : ... .. . ... ... : ... .. . ... ... : ... .. . ... ... : ... .. . ... ...
ROW BE : ... .. . ... ... ... : ... .. . ... ... ... : ... .. . ... : ... .. . ... : ... .. . ... ... : ... .. . ... ... : ... .. . ... ... : ... .. . ... ...
ROW BF : ... .. . ... ... ... : ... .. . ... ... ... : ... .. . ... : ... .. . ... : ... .. . ... ... : ... .. . ... ... : ... .. . ... ... : ... .. . ... ...
ROW C0 : ... .. . ... ... ... : ... .. . ... ... ... : ... .. . ... : ... .. . ... : ... .. . ... ... : ... .. . ... ... : ... .. . ... ... : ... .. . ... ...
ROW C1 : ... .. . ... ... ... : ... .. . ... ... ... : ... .. . ... : ... .. . ... : ... .. . ... ... : ... .. . ... ... : ... .. . ... ... : ... .. . ... ...
ROW C2 : ... .. . ... ... ... : ... .. . ... ... ... : ... .. . ... : ... .. . ... : ... .. . ... ... : ... .. . ... ... : ... .. . ... ... : ... .. . ... ...
ROW C3 : ... .. . ... ... ... : ... .. . ... ... ... : ... .. . ... : ... .. . ... : ... .. . ... ... : ... .. . ... ... : ... .. . ... ... : ... .. . ... ...
ROW C4 : ... .. . ... ... ... : ... .. . ... ... ... : ... .. . ... : ... .. . ... : ... .. . ... ... : ... .. . ... ... : ... .. . ... ... : ... .. . ... ...
ROW C5 : ... .. . ... ... ... : ... .. . ... ... ... : ... .. . ... : ... .. . ... : ... .. . ... ... : ... .. . ... ... : ... .. . ... ... : ... .. . ... ...
ROW C6 : ... .. . ... ... ... : ... .. . ... ... ... : ... .. . ... : ... .. . ... : ... .. . ... ... : ... .. . ... ... : ... .. . ... ... : ... .. . ... ...
ROW C7 : ... .. . ... ... ... : ... .. . ... ... ... : ... .. . ... : ... .. . ... : ... .. . ... ... : ... .. . ... ... : ... .. . ... ... : ... .. . ... ...
ROW C8 : ... .. . ... ... ... : ... .. . ... ... ... : ... .. . ... : ... .. . ... : ... .. . ... ... : ... .. . ... ... : ... .. . ... ... : ... .. . ... ...
ROW C9 : ... .. 7 ... ... ... : ... .. . ... ... ... : ... .. . ... : ... .. . ... : ... .. . ... ... : ... .. . ... ... : ... .. . ... ... : ... .. . ... ...
ROW CA : ... .. . ... ... ... : ... .. . ... ... ... : ... .. . ... : ... .. . ... : ... .. . ... ... : ... .. . ... ... : ... .. . ... ... : ... .. . ... ...
ROW CB : ... .. . ... ... ... : ... .. . ... ... ... : ... .. . ... : ... .. . ... : ... .. . ... ... : ... .. . ... ... : ... .. . ... ... : ... .. . ... ...
ROW CC : ... .. . ... ... ... : ... .. . ... ... ... : ... .. . ... : ... .. . ... : ... .. . ... ... : ... .. . ... ... : ... .. . ... ... : ... .. . ... ...
ROW CD : ... .. . ... ... ... : ... .. . ... ... ... : ... .. . ... : ... .. . ... : ... .. . ... ... : ... .. . ... ... : ... .. . ... ... : ... .. . ... ...
ROW CE : ... .. . ... ... ... : ... .. 2 ... ... ... : ... .. . ... : ... .. . ... : ... .. . ... ... : ... .. . ... ... : ... .. . ... ... : ... .. . ... ...
ROW CF : ... .. . ... ... ... : ... .. . ... ... ... : ... .. . ... : ... .. . ... : ... .. . ... ... : ... .. . ... ... : ... .. . ... ... : ... .. . ... ...
ROW D0 : ... .. . ... ... ... : ... .. . ... ... ... : ... .. . ... : ... .. . ... : ... .. . ... ... : ... .. . ... ... : ... .. . ... ... : ... .. . ... ...
ROW D1 : ... .. . ... ... ... : ... .. . ... ... ... : ... .. . ... : ... .. . ... : ... .. . ... ... : ... .. . ... ... : ... .. . ... ... : ... .. . ... ...
ROW D2 : ... .. . ... ... ... : ... .. . ... ... ... : ... .. . ... : ... .. . ... : ... .. . ... ... : ... .. . ... ... : ... .. . ... ... : ... .. . ... ...
ROW D3 : ... .. 8 P84 ... ... : ... .. . ... ... ... : ... .. . ... : ... .. . ... : ... .. . ... ... : ... .. . ... ... : ... .. . ... ... : ... .. . ... ...
ROW D4 : ... .. . P86 ... ... : ... .. . ... ... ... : ... .. . ... : ... .. . ... : ... .. . ... ... : ... .. . ... ... : ... .. . ... ... : ... .. . ... ...
ROW D5 : ... .. . P85 ... ... : ... .. . ... ... ... : ... .. . ... : ... .. . ... : ... .. . ... ... : ... .. . ... ... : ... .. . ... ... : ... .. . ... ...
ROW D6 : ... .. . P82 ... ... : ... .. . ... ... ... : ... .. . ... : ... .. . ... : ... .. . ... ... : ... .. 1 ... ... : ... .. . ... ... : ... .. . ... ...
ROW D7 : ... .. . P7E ... ... : ... .. . ... ... ... : ... .. . ... : ... .. . ... : ... .. . ... ... : ... .. . ... ... : ... .. . ... ... : ... .. . ... ...
ROW D8 : ... .. . P7B ... ... : ... .. . ... ... ... : C#3 00 . ... : ... .. . ... : ... .. . ... ... : ... .. 4 ... ... : C#3 01 3 ... ... : F-3 01 2 ... ...
ROW D9 : ... .. . P7A ... ... : ... .. . ... ... ... : ... .. . ... : ... .. . ... : ... .. . ... ... : ... .. 3 ... ... : ... .. . ... ... : ... .. 3 ... ...
ROW DA : ... .. . P7C ... ... : ... .. . ... ... ... : ... .. . ... : ... .. . ... : ... .. . ... ... : ... .. . ... ... : ... .. . ... ... : ... .. . ... ...
ROW DB : ... .. . P80 ... ... : ... .. . ... ... ... : ... .. . ... : ... .. . ... : ... .. . ... ... : ... .. . ... ... : ... .. . ... ... : ... .. . ... ...
ROW DC : ... .. . P83 ... ... : ... .. . ... ... ... : ... .. . ... : ... .. . ... : ... .. . ... ... : ... .. . ... ... : ... .. 2 ... ... : ... .. . ... ...
ROW DD : ... .. . P86 ... ... : ... .. 3 P85 ... ... : ... .. . ... : ... .. . ... : ... .. . ... ... : ... .. . ... ... : ... .. . ... ... : ... .. . ... ...
ROW DE : ... .. . ... ... ... : ... .. . P87 ... ... : ... .. . ... : ... .. . ... : ... .. . ... ... : ... .. . ... ... : ... .. . ... ... : ... .. . ... ...
ROW DF : ... .. . P82 ... ... : ... .. . P86 ... ... : ... .. . ... : ... .. . ... : ... .. . ... ... : ... .. 2 ... ... : ... .. . ... ... : ... .. . ... ...
ROW E0 : ... .. . P7F ... ... : ... .. . P83 ... ... : ... .. . ... : ... .. . ... : ... .. . ... ... : ... .. . ... ... : ... .. . ... ... : ... .. . ... ...
ROW E1 : ... .. . P7B ... ... : ... .. . P7F ... ... : --- .. . ... : ... .. . ... : ... .. . ... ... : ... .. . ... ... : ... .. . ... ... : ... .. . ... ...
ROW E2 : ... .. 9 P7A ... ... : ... .. 4 P7C ... ... : B-2 00 . ... : ... .. . ... : ... .. . ... ... : ... .. . ... ... : ... .. . ... ... : ... .. . ... ...
ROW E3 : ... .. . P7C ... ... : ... .. . P7B ... ... : ... .. . ... : ... .. . ... : ... .. . ... ... : ... .. . ... ... : ... .. . ... ... : ... .. . ... ...
ROW E4 : ... .. . P80 ... ... : ... .. . P7D ... ... : ... .. . ... : ... .. . ... : ... .. . ... ... : ... .. . ... ... : ... .. . ... ... : ... .. . ... ...
ROW E5 : ... .. . P83 ... ... : ... .. . P81 ... ... : ... .. . ... : ... .. . ... : ... .. . ... ... : ... .. . ... ... : ... .. . ... ... : ... .. . ... ...
ROW E6 : ... .. . P86 ... ... : ... .. . P84 ... ... : ... .. . ... : ... .. . ... : ... .. . ... ... : ... .. . ... ... : ... .. . ... ... : ... .. . ... ...
ROW E7 : ... .. A ... ... ... : ... .. . P87 ... ... : ... .. . ... : ... .. . ... : ... .. . ... ... : ... .. . ... ... : ... .. . ... ... : ... .. . ... ...
ROW E8 : ... .. . P83 ... ... : ... .. . ... ... ... : ... .. . ... : ... .. . ... : ... .. . ... ... : ... .. . ... ... : ... .. . ... ... : ... .. . ... ...
ROW E9 : ... .. . P80 ... ... : ... .. . P83 ... ... : ... .. . ... : ... .. . ... : ... .. . ... ... : ... .. . ... ... : ... .. . ... ... : ... .. . ... ...
ROW EA : ... .. . P7C ... ... : ... .. . P80 ... ... : ... .. . ... : ... .. . ... : ... .. . ... ... : ... .. . ... ... : ... .. . ... ... : ... .. . ... ...
ROW EB : ... .. . P7A ... ... : ... .. . P7C ... ... : --- .. . ... : ... .. . ... : ... .. . ... ... : ... .. . ... ... : ... .. . ... ... : ... .. . ... ...
ROW EC : ... .. . P7B ... ... : ... .. . P7B ... ... : A#2 00 . ... : ... .. . ... : ... .. . ... ... : ... .. . ... ... : ... .. . ... ... : ... .. . ... ...
ROW ED : ... .. 2 P7F ... ... : ... .. . P7D ... ... : ... .. . ... : ... .. . ... : ... .. . ... ... : ... .. . ... ... : ... .. . ... ... : ... .. 1 ... ...
ROW EE : ... .. . P82 ... ... : ... .. . P81 ... ... : ... .. . ... : ... .. . ... : ... .. . ... ... : ... .. . ... ... : ... .. . ... ... : ... .. . ... ...
ROW EF : ... .. . P86 ... ... : ... .. . P84 ... ... : ... .. . ... : ... .. . ... : ... .. . ... ... : ... .. 1 ... ... : ... .. 1 ... ... : ... .. . ... ...
ROW F0 : ... .. 1 ... ... ... : ... .. . P87 ... ... : ... .. . ... : ... .. . ... : ... .. . ... ... : ... .. . ... ... : ... .. . ... ... : ... .. . ... ...
ROW F1 : ... .. . P83 ... ... : ... .. 5 ... ... ... : ... .. . ... : ... .. . ... : ... .. . ... ... : ... .. . ... ... : ... .. . ... ... : ... .. . ... ...
ROW F2 : ... .. . P80 ... ... : ... .. . P84 ... ... : ... .. . ... : ... .. . ... : ... .. . ... ... : ... .. . ... ... : ... .. . ... ... : ... .. . ... ...
ROW F3 : ... .. 0 ... V00 ... : ... .. . P81 ... ... : ... .. . ... : ... .. . ... : ... .. . ... ... : ... .. . ... ... : ... .. . ... ... : ... .. . ... ...
ROW F4 : ... .. . ... ... ... : ... .. . P7D ... ... : ... .. . ... : ... .. . ... : ... .. . ... ... : ... .. . ... ... : ... .. . ... ... : ... .. . ... ...
ROW F5 : ... .. . ... ... ... : ... .. . P7B ... ... : --- .. . ... : ... .. . ... : ... .. . ... ... : ... .. . ... ... : ... .. . ... ... : ... .. . ... ...
ROW F6 : ... .. . ... ... ... : ... .. . P7C ... ... : G#2 00 . ... : ... .. . ... : ... .. . ... ... : ... .. . ... ... : ... .. . ... ... : ... .. . ... ...
ROW F7 : ... .. . ... ... ... : ... .. 1 P80 ... ... : ... .. . ... : ... .. . ... : ... .. . ... ... : ... .. . ... ... : ... .. . ... ... : ... .. . ... ...
ROW F8 : ... .. . ... ... ... : ... .. . P83 ... ... : ... .. . ... : ... .. . ... : ... .. . ... ... : ... .. . ... ... : ... .. . ... ... : ... .. . ... ...
ROW F9 : ... .. . ... ... ... : ... .. . P87 ... ... : ... .. . ... : ... .. . ... : ... .. . ... ... : ... .. . ... ... : ... .. . ... ... : ... .. . ... ...
ROW FA : ... .. . ... ... ... : ... .. . ... ... ... : ... .. . ... : ... .. . ... : ... .. . ... ... : ... .. . ... ... : ... .. . ... ... : ... .. . ... ...
ROW FB : ... .. . ... ... ... : ... .. . P84 ... ... : ... .. . ... : ... .. . ... : ... .. . ... ... : ... .. . ... ... : ... .. . ... ... : ... .. . ... ...
ROW FC : ... .. . ... ... ... : ... .. . P81 ... ... : ... .. . ... : ... .. . ... : ... .. . ... ... : ... .. . ... ... : ... .. . ... ... : ... .. . ... ...
ROW FD : ... .. . ... ... ... : ... .. 0 ... V00 ... : ... .. . ... : ... .. . ... : ... .. . ... ... : ... .. . ... ... : ... .. . ... ... : ... .. . ... ...
ROW FE : ... .. . ... ... ... : ... .. . ... ... ... : ... .. . ... : ... .. . ... : ... .. . ... ... : ... .. . ... ... : ... .. . ... ... : ... .. . ... ...
ROW FF : ... .. . ... ... ... : ... .. . ... ... ... : --- .. . ... : ... .. . ... : ... .. . ... ... : ... .. . ... ... : ... .. . ... ... : ... .. . ... ...

PATTERN 0F
ROW 00 : ... .. . ... ... ... : ... .. . ... ... ... : F#2 00 . ... : ... .. . ... : ... .. . ... ... : C#3 01 1 P81 V00 : F#3 01 1 P7F V00 : C#3 01 6 ... ...
ROW 01 : ... .. . ... ... ... : ... .. . ... ... ... : ... .. . ... : ... .. . ... : ... .. . ... ... : ... .. . ... ... : ... .. . ... ... : ... .. 5 ... ...
ROW 02 : ... .. . ... ... ... : ... .. . ... ... ... : ... .. . ... : ... .. . ... : ... .. . ... ... : ... .. . ... ... : ... .. . ... ... : ... .. 4 ... ...
ROW 03 : ... .. . ... ... ... : ... .. . ... ... ... : ... .. . ... : ... .. . ... : ... .. . ... ... : ... .. . ... ... : ... .. . ... ... : ... .. 3 ... ...
ROW 04 : ... .. . ... ... ... : ... .. . ... ... ... : ... .. . ... : ... .. . ... : ... .. . ... ... : ... .. . ... ... : ... .. . ... ... : ... .. 2 ... ...
ROW 05 : ... .. . ... ... ... : ... .. . ... ... ... : ... .. . ... : ... .. . ... : ... .. . ... ... : ... .. . ... ... : ... .. . ... ... : ... .. 1 ... ...
ROW 06 : ... .. . ... ... ... : ... .. . ... ... ... : ... .. . ... : ... .. . ... : ... .. . ... ... : ... .. . ... ... : ... .. . ... ... : ... .. . ... ...
ROW 07 : ... .. . ... ... ... : ... .. . ... ... ... : ... .. . ... : ... .. . ... : ... .. . ... ... : ... .. . ... ... : ... .. . ... ... : ... .. . ... ...
ROW 08 : ... .. . ... ... ... : ... .. . ... ... ... : ... .. . ... : ... .. . ... : ... .. . ... ... : ... .. . ... ... : ... .. . ... ... : ... .. . ... ...
ROW 09 : ... .. . ... ... ... : ... .. . ... ... ... : ... .. . ... : ... .. . ... : ... .. . ... ... : ... .. . ... ... : ... .. . ... ... : ... .. . ... ...
ROW 0A : ... .. . ... ... ... : ... .. . ... ... ... : ... .. . ... : ... .. . ... : ... .. . ... ... : ... .. . ... ... : ... .. . ... ... : ... .. 3 ... ...
ROW 0B : ... .. . ... ... ... : ... .. . ... ... ... : ... .. . ... : ... .. . ... : ... .. . ... ... : ... .. . ... ... : ... .. . ... ... : ... .. 2 ... ...
ROW 0C : ... .. . ... ... ... : ... .. . ... ... ... : ... .. . ... : ... .. . ... : ... .. . ... ... : ... .. . ... ... : ... .. . ... ... : ... .. . ... ...
ROW 0D : ... .. . ... ... ... : ... .. . ... ... ... : ... .. . ... : ... .. . ... : ... .. . ... ... : ... .. . ... ... : ... .. . ... ... : ... .. 1 ... ...
ROW 0E : ... .. . ... ... ... : ... .. . ... ... ... : ... .. . ... : ... .. . ... : ... .. . ... ... : ... .. . ... ... : ... .. . ... ... : ... .. . ... ...
ROW 0F : ... .. . ... ... ... : ... .. . ... ... ... : ... .. . ... : ... .. . ... : ... .. . ... ... : ... .. . ... ... : ... .. . ... ... : ... .. . ... ...
ROW 10 : ... .. . ... ... ... : ... .. . ... ... ... : ... .. . ... : ... .. . ... : ... .. . ... ... : ... .. . ... ... : ... .. . ... ... : ... .. . ... ...
ROW 11 : ... .. . ... ... ... : ... .. . ... ... ... : ... .. . ... : ... .. . ... : ... .. . ... ... : ... .. . ... ... : ... .. . ... ... : ... .. . ... ...
ROW 12 : ... .. . ... ... ... : ... .. . ... ... ... : ... .. . ... : ... .. . ... : ... .. . ... ... : ... .. . ... ... : ... .. . ... ... : ... .. . ... ...
ROW 13 : ... .. . ... ... ... : ... .. . ... ... ... : ... .. . ... : ... .. . ... : ... .. . ... ... : ... .. . ... ... : ... .. . ... ... : ... .. . ... ...
ROW 14 : A#2 00 8 P80 V02 ... : ... .. . ... ... ... : ... .. . ... : ... .. . ... : ... .. . ... ... : ... .. 4 ... ... : ... .. 4 ... ... : A#2 01 8 ... ...
ROW 15 : ... .. 7 ... ... ... : ... .. . ... ... ... : ... .. . ... : ... .. . ... : ... .. . ... ... : ... .. . ... ... : ... .. . ... ... : ... .. 7 ... ...
ROW 16 : ... .. 6 ... ... ... : ... .. . ... ... ... : ... .. . ... : ... .. . ... : ... .. . ... ... : ... .. . ... ... : ... .. . ... ... : ... .. 6 ... ...
ROW 17 : ... .. 5 ... ... ... : ... .. . ... ... ... : ... .. . ... : ... .. . ... : ... .. . ... ... : ... .. . ... ... : ... .. . ... ... : ... .. 4 ... ...
ROW 18 : ... .. . ... ... ... : ... .. . ... ... ... : ... .. . ... : ... .. . ... : ... .. . ... ... : ... .. . ... ... : ... .. . ... ... : ... .. 3 ... ...
ROW 19 : ... .. . ... ... ... : ... .. . ... ... ... : ... .. . ... : ... .. . ... : ... .. . ... ... : ... .. 1 ... ... : ... .. 1 ... ... : ... .. 2 ... ...
ROW 1A : ... .. . ... ... ... : ... .. . ... ... ... : ... .. . ... : ... .. . ... : ... .. . ... ... : ... .. . ... ... : ... .. . ... ... : ... .. . ... ...
ROW 1B : ... .. . ... ... ... : ... .. . ... ... ... : ... .. . ... : ... .. . ... : ... .. . ... ... : ... .. . ... ... : ... .. . ... ... : ... .. 1 ... ...
ROW 1C : ... .. . ... ... ... : ... .. . ... ... ... : ... .. . ... : ... .. . ... : ... .. . ... ... : ... .. . ... ... : ... .. . ... ... : ... .. . ... ...
ROW 1D : ... .. . ... ... ... : ... .. . ... ... ... : ... .. . ... : ... .. . ... : ... .. . ... ... : ... .. . ... ... : ... .. . ... ... : ... .. . ... ...
ROW 1E : C#3 00 9 ... ... ... : A#2 00 1 P87 V02 ... : ... .. . ... : ... .. . ... : ... .. . ... ... : ... .. 4 ... ... : ... .. 4 ... ... : ... .. 3 ... ...
ROW 1F : ... .. 8 ... ... ... : ... .. . P86 ... ... : ... .. . ... : ... .. . ... : ... .. . ... ... : ... .. . ... ... : ... .. . ... ... : ... .. 2 ... ...
ROW 20 : ... .. 7 ... ... ... : ... .. . P83 ... ... : ... .. . ... : ... .. . ... : ... .. . ... ... : ... .. . ... ... : ... .. . ... ... : ... .. . ... ...
ROW 21 : ... .. 6 ... ... ... : ... .. . P7F ... ... : ... .. . ... : ... .. . ... : ... .. . ... ... : ... .. . ... ... : ... .. . ... ... : ... .. 1 ... ...
ROW 22 : ... .. . ... ... ... : ... .. . P7C ... ... : ... .. . ... : ... .. . ... : ... .. . ... ... : ... .. . ... ... : ... .. . ... ... : ... .. . ... ...
ROW 23 : ... .. . ... ... ... : ... .. . P7B ... ... : ... .. . ... : ... .. . ... : ... .. . ... ... : ... .. 1 ... ... : ... .. 1 ... ... : ... .. . ... ...
ROW 24 : ... .. 1 ... ... ... : ... .. . P7D ... ... : ... .. . ... : ... .. . ... : ... .. . ... ... : ... .. . ... ... : ... .. . ... ... : ... .. . ... ...
ROW 25 : ... .. . ... ... ... : ... .. . P81 ... ... : ... .. . ... : ... .. . ... : ... .. . ... ... : ... .. . ... ... : ... .. . ... ... : ... .. . ... ...
ROW 26 : ... .. . ... ... ... : ... .. . P84 ... ... : ... .. . ... : ... .. . ... : ... .. . ... ... : ... .. . ... ... : ... .. . ... ... : ... .. . ... ...
ROW 27 : ... .. . ... ... ... : ... .. . P87 ... ... : ... .. . ... : ... .. . ... : ... .. . ... ... : ... .. . ... ... : ... .. . ... ... : ... .. . ... ...
ROW 28 : F#3 00 B ... ... ... : C#3 00 2 ... ... ... : ... .. . ... : ... .. . ... : ... .. . ... ... : ... .. . ... ... : ... .. . ... ... : C#3 01 6 ... ...
ROW 29 : ... .. A ... ... ... : ... .. 1 P83 ... ... : ... .. . ... : ... .. . ... : ... .. . ... ... : ... .. . ... ... : ... .. . ... ... : ... .. 5 ... ...
ROW 2A : ... .. 9 ... ... ... : ... .. . P80 ... ... : ... .. . ... : ... .. . ... : ... .. . ... ... : ... .. . ... ... : ... .. . ... ... : ... .. 4 ... ...
ROW 2B : ... .. 7 ... ... ... : ... .. . P7C ... ... : ... .. . ... : ... .. . ... : ... .. . ... ... : ... .. . ... ... : ... .. . ... ... : ... .. 3 ... ...
ROW 2C : ... .. . ... ... ... : ... .. . P7B ... ... : ... .. . ... : ... .. . ... : ... .. . ... ... : ... .. . ... ... : ... .. . ... ... : ... .. 2 ... ...
ROW 2D : ... .. 8 ... ... ... : ... .. 2 P7D ... ... : ... .. . ... : ... .. . ... : ... .. . ... ... : ... .. . ... ... : ... .. . ... ... : ... .. 1 ... ...
ROW 2E : ... .. . ... ... ... : ... .. 1 P81 ... ... : ... .. . ... : ... .. . ... : ... .. . ... ... : ... .. . ... ... : ... .. . ... ... : ... .. . ... ...
ROW 2F : ... .. . ... ... ... : ... .. . P84 ... ... : ... .. . ... : ... .. . ... : ... .. . ... ... : ... .. . ... ... : ... .. . ... ... : ... .. . ... ...
ROW 30 : ... .. . ... ... ... : ... .. . P87 ... ... : ... .. . ... : ... .. . ... : ... .. . ... ... : ... .. . ... ... : ... .. . ... ... : ... .. . ... ...
ROW 31 : ... .. . ... ... ... : ... .. . ... ... ... : ... .. . ... : ... .. . ... : ... .. . ... ... : ... .. . ... ... : ... .. . ... ... : ... .. . ... ...
ROW 32 : G#3 00 D ... ... ... : F#3 00 4 P84 ... ... : ... .. . ... : ... .. . ... : ... .. . ... ... : ... .. . ... ... : ... .. . ... ... : ... .. 3 ... ...
ROW 33 : ... .. C ... ... ... : ... .. 3 P81 ... ... : ... .. . ... : ... .. . ... : ... .. . ... ... : ... .. . ... ... : ... .. . ... ... : ... .. 2 ... ...
ROW 34 : ... .. B ... ... ... : ... .. . P7D ... ... : ... .. . ... : ... .. . ... : ... .. . ... ... : ... .. . ... ... : ... .. . ... ... : ... .. . ... ...
ROW 35 : ... .. 8 ... ... ... : ... .. 2 P7B ... ... : ... .. . ... : ... .. . ... : ... .. . ... ... : ... .. . ... ... : ... .. . ... ... : ... .. 1 ... ...
ROW 36 : ... .. . ... ... ... : ... .. . P7C ... ... : ... .. . ... : ... .. . ... : ... .. . ... ... : ... .. . ... ... : ... .. . ... ... : ... .. . ... ...
ROW 37 : ... .. 9 ... ... ... : ... .. 3 P80 ... ... : ... .. . ... : ... .. . ... : ... .. . ... ... : ... .. . ... ... : ... .. . ... ... : ... .. . ... ...
ROW 38 : ... .. 1 ... ... ... : ... .. . P83 ... ... : ... .. . ... : ... .. . ... : ... .. . ... ... : ... .. . ... ... : ... .. . ... ... : ... .. . ... ...
ROW 39 : ... .. . ... ... ... : ... .. . P87 ... ... : ... .. . ... : ... .. . ... : ... .. . ... ... : ... .. . ... ... : ... .. . ... ... : ... .. . ... ...
ROW 3A : ... .. . ... ... ... : ... .. . ... ... ... : ... .. . ... : ... .. . ... : ... .. . ... ... : ... .. . ... ... : ... .. . ... ... : ... .. . ... ...
ROW 3B : ... .. . ... ... ... : ... .. . P84 ... ... : ... .. . ... : ... .. . ... : ... .. . ... ... : ... .. . ... ... : ... .. . ... ... : ... .. . ... ...
ROW 3C : A#3 00 F ... ... ... : G#3 00 6 P81 ... ... : ... .. . ... : ... .. . ... : ... .. . ... ... : ... .. 6 ... ... : ... .. 6 ... ... : A#2 01 8 ... ...
ROW 3D : ... .. E ... ... ... : ... .. 5 P7D ... ... : ... .. . ... : ... .. . ... : ... .. . ... ... : ... .. . ... ... : ... .. . ... ... : ... .. 7 ... ...
ROW 3E : ... .. D ... ... ... : ... .. . P7B ... ... : ... .. . ... : ... .. . ... : ... .. . ... ... : ... .. . ... ... : ... .. . ... ... : ... .. 6 ... ...
ROW 3F : ... .. A ... ... ... : ... .. 4 P7C ... ... : ... .. . ... : ... .. . ... : ... .. . ... ... : ... .. 5 ... ... : ... .. 5 ... ... : ... .. 4 ... ...
ROW 40 : ... .. . ... ... ... : ... .. . P7F ... ... : ... .. . ... : ... .. . ... : ... .. . ... ... : ... .. 4 ... ... : ... .. 4 ... ... : ... .. 3 ... ...
ROW 41 : ... .. 9 ... ... ... : ... .. . P83 ... ... : ... .. . ... : ... .. . ... : ... .. . ... ... : ... .. 1 ... ... : ... .. 1 ... ... : ... .. 2 ... ...
ROW 42 : ... .. 1 ... ... ... : ... .. 1 P86 ... ... : ... .. . ... : ... .. . ... : ... .. . ... ... : ... .. . ... ... : ... .. . ... ... : ... .. . ... ...
ROW 43 : ... .. . ... ... ... : ... .. . P87 ... ... : ... .. . ... : ... .. . ... : ... .. . ... ... : ... .. . ... ... : ... .. . ... ... : ... .. 1 ... ...
ROW 44 : ... .. . ... ... ... : ... .. . P85 ... ... : ... .. . ... : ... .. . ... : ... .. . ... ... : ... .. . ... ... : ... .. . ... ... : ... .. . ... ...
ROW 45 : ... .. . ... ... ... : ... .. . P81 ... ... : ... .. . ... : ... .. . ... : ... .. . ... ... : ... .. . ... ... : ... .. . ... ... : ... .. . ... ...
ROW 46 : F#3 00 D ... ... ... : A#3 00 8 P7E ... ... : ... .. . ... : ... .. . ... : ... .. . ... ... : ... .. 4 ... ... : ... .. 4 ... ... : ... .. 3 ... ...
ROW 47 : ... .. C ... ... ... : ... .. 7 P7B ... ... : ... .. . ... : ... .. . ... : ... .. . ... ... : ... .. . ... ... : ... .. . ... ... : ... .. 2 ... ...
ROW 48 : ... .. B ... ... ... : ... .. 6 ... ... ... : ... .. . ... : ... .. . ... : ... .. . ... ... : ... .. . ... ... : ... .. . ... ... : ... .. . ... ...
ROW 49 : ... .. 8 ... ... ... : ... .. 5 P7F ... ... : ... .. . ... : ... .. . ... : ... .. . ... ... : ... .. . ... ... : ... .. . ... ... : ... .. 1 ... ...
ROW 4A : ... .. . ... ... ... : ... .. . P82 ... ... : ... .. . ... : ... .. . ... : ... .. . ... ... : ... .. . ... ... : ... .. . ... ... : ... .. . ... ...
ROW 4B : ... .. . ... ... ... : ... .. 4 P86 ... ... : ... .. . ... : ... .. . ... : ... .. . ... ... : ... .. 1 ... ... : ... .. 1 ... ... : ... .. . ... ...
ROW 4C : ... .. 1 ... ... ... : ... .. 1 P87 ... ... : ... .. . ... : ... .. . ... : ... .. . ... ... : ... .. . ... ... : ... .. . ... ... : ... .. . ... ...
ROW 4D : ... .. . ... ... ... : ... .. . P85 ... ... : ... .. . ... : ... .. . ... : ... .. . ... ... : ... .. . ... ... : ... .. . ... ... : ... .. . ... ...
ROW 4E : ... .. . ... ... ... : ... .. . P81 ... ... : ... .. . ... : ... .. . ... : ... .. . ... ... : ... .. . ... ... : ... .. . ... ... : ... .. . ... ...
ROW 4F : ... .. . ... ... ... : ... .. . P7E ... ... : ... .. . ... : ... .. . ... : ... .. . ... ... : ... .. . ... ... : ... .. . ... ... : ... .. . ... ...
ROW 50 : G#3 00 C ... ... ... : F#3 00 6 P7B ... ... : C#2 00 . ... : ... .. . ... : ... .. . ... ... : B-2 01 1 ... ... : E-3 01 1 ... ... : B-2 01 6 ... ...
ROW 51 : ... .. B ... ... ... : ... .. 5 ... ... ... : ... .. . ... : ... .. . ... : ... .. . ... ... : ... .. . ... ... : ... .. . ... ... : ... .. 5 ... ...
ROW 52 : ... .. A ... ... ... : ... .. . P7E ... ... : ... .. . ... : ... .. . ... : ... .. . ... ... : ... .. . ... ... : ... .. . ... ... : ... .. 4 ... ...
ROW 53 : ... .. 8 ... ... ... : ... .. 4 P81 ... ... : ... .. . ... : ... .. . ... : ... .. . ... ... : ... .. . ... ... : ... .. . ... ... : ... .. 3 ... ...
ROW 54 : ... .. . ... ... ... : ... .. . P85 ... ... : ... .. . ... : ... .. . ... : ... .. . ... ... : ... .. . ... ... : ... .. . ... ... : ... .. 2 ... ...
ROW 55 : ... .. 7 ... ... ... : ... .. . P87 ... ... : ... .. . ... : ... .. . ... : ... .. . ... ... : ... .. . ... ... : ... .. . ... ... : ... .. 1 ... ...
ROW 56 : ... .. . ... ... ... : ... .. 1 P86 ... ... : ... .. . ... : ... .. . ... : ... .. . ... ... : ... .. . ... ... : ... .. . ... ... : ... .. . ... ...
ROW 57 : ... .. . ... ... ... : ... .. . P82 ... ... : ... .. . ... : ... .. . ... : ... .. . ... ... : ... .. . ... ... : ... .. . ... ... : ... .. . ... ...
ROW 58 : ... .. . ... ... ... : ... .. . P7F ... ... : ... .. . ... : ... .. . ... : ... .. . ... ... : ... .. . ... ... : ... .. . ... ... : ... .. . ... ...
ROW 59 : ... .. . ... ... ... : ... .. . P7B ... ... : ... .. . ... : ... .. . ... : ... .. . ... ... : ... .. . ... ... : ... .. . ... ... : ... .. . ... ...
ROW 5A : F#3 00 B ... ... ... : G#3 00 5 ... ... ... : ... .. . ... : ... .. . ... : ... .. . ... ... : ... .. . ... ... : ... .. . ... ... : ... .. 3 ... ...
ROW 5B : ... .. A ... ... ... : ... .. 4 P7E ... ... : ... .. . ... : ... .. . ... : ... .. . ... ... : ... .. . ... ... : ... .. . ... ... : ... .. 2 ... ...
ROW 5C : ... .. 9 ... ... ... : ... .. . P81 ... ... : ... .. . ... : ... .. . ... : ... .. . ... ... : ... .. . ... ... : ... .. . ... ... : ... .. . ... ...
ROW 5D : ... .. 7 ... ... ... : ... .. 3 P85 ... ... : ... .. . ... : ... .. . ... : ... .. . ... ... : ... .. . ... ... : ... .. . ... ... : ... .. 1 ... ...
ROW 5E : ... .. . ... ... ... : ... .. . P87 ... ... : ... .. . ... : ... .. . ... : ... .. . ... ... : ... .. . ... ... : ... .. . ... ... : ... .. . ... ...
ROW 5F : ... .. 6 ... ... ... : ... .. 2 P86 ... ... : ... .. . ... : ... .. . ... : ... .. . ... ... : ... .. . ... ... : ... .. . ... ... : ... .. . ... ...
ROW 60 : ... .. 1 ... ... ... : ... .. . P83 ... ... : ... .. . ... : ... .. . ... : ... .. . ... ... : ... .. . ... ... : ... .. . ... ... : ... .. . ... ...
ROW 61 : ... .. . ... ... ... : ... .. . P7F ... ... : ... .. . ... : ... .. . ... : ... .. . ... ... : ... .. . ... ... : ... .. . ... ... : ... .. . ... ...
ROW 62 : ... .. . ... ... ... : ... .. . P7C ... ... : ... .. . ... : ... .. . ... : ... .. . ... ... : ... .. . ... ... : ... .. . ... ... : ... .. . ... ...
ROW 63 : ... .. . ... ... ... : ... .. . P7B ... ... : ... .. . ... : ... .. . ... : ... .. . ... ... : ... .. . ... ... : ... .. . ... ... : ... .. . ... ...
ROW 64 : E-3 00 A ... ... ... : F#3 00 4 P7D ... ... : ... .. . ... : ... .. . ... : ... .. . ... ... : ... .. 4 ... ... : ... .. 4 ... ... : G#2 01 8 ... ...
ROW 65 : ... .. 9 ... ... ... : ... .. 3 P81 ... ... : ... .. . ... : ... .. . ... : ... .. . ... ... : ... .. . ... ... : ... .. . ... ... : ... .. 7 ... ...
ROW 66 : ... .. 8 ... ... ... : ... .. . P84 ... ... : ... .. . ... : ... .. . ... : ... .. . ... ... : ... .. . ... ... : ... .. . ... ... : ... .. 6 ... ...
ROW 67 : ... .. 6 ... ... ... : ... .. 2 P87 ... ... : ... .. . ... : ... .. . ... : ... .. . ... ... : ... .. . ... ... : ... .. . ... ... : ... .. 4 ... ...
ROW 68 : ... .. . ... ... ... : ... .. . ... ... ... : ... .. . ... : ... .. . ... : ... .. . ... ... : ... .. . ... ... : ... .. . ... ... : ... .. 3 ... ...
ROW 69 : ... .. . ... ... ... : ... .. . P83 ... ... : ... .. . ... : ... .. . ... : ... .. . ... ... : ... .. 1 ... ... : ... .. 1 ... ... : ... .. 2 ... ...
ROW 6A : ... .. . ... ... ... : ... .. 1 P80 ... ... : ... .. . ... : ... .. . ... : ... .. . ... ... : ... .. . ... ... : ... .. . ... ... : ... .. . ... ...
ROW 6B : ... .. . ... ... ... : ... .. . P7C ... ... : ... .. . ... : ... .. . ... : ... .. . ... ... : ... .. . ... ... : ... .. . ... ... : ... .. 1 ... ...
ROW 6C : ... .. . ... ... ... : ... .. . P7B ... ... : ... .. . ... : ... .. . ... : ... .. . ... ... : ... .. . ... ... : ... .. . ... ... : ... .. . ... ...
ROW 6D : ... .. . ... ... ... : ... .. . P7D ... ... : ... .. . ... : ... .. . ... : ... .. . ... ... : ... .. . ... ... : ... .. . ... ... : ... .. . ... ...
ROW 6E : ... .. 7 ... ... ... : E-3 00 3 P81 ... ... : ... .. . ... : ... .. . ... : ... .. . ... ... : ... .. 4 ... ... : ... .. 4 ... ... : ... .. 3 ... ...
ROW 6F : ... .. . ... ... ... : ... .. 2 P84 ... ... : ... .. . ... : ... .. . ... : ... .. . ... ... : ... .. . ... ... : ... .. . ... ... : ... .. 2 ... ...
ROW 70 : ... .. . ... ... ... : ... .. . P87 ... ... : ... .. . ... : ... .. . ... : ... .. . ... ... : ... .. . ... ... : ... .. . ... ... : ... .. . ... ...
ROW 71 : ... .. . ... ... ... : ... .. . ... ... ... : ... .. . ... : ... .. . ... : ... .. . ... ... : ... .. . ... ... : ... .. . ... ... : ... .. 1 ... ...
ROW 72 : ... .. . ... ... ... : ... .. . P84 ... ... : ... .. . ... : ... .. . ... : ... .. . ... ... : ... .. . ... ... : ... .. . ... ... : ... .. . ... ...
ROW 73 : ... .. . ... ... ... : ... .. . P81 ... ... : ... .. . ... : ... .. . ... : ... .. . ... ... : ... .. 1 ... ... : ... .. 1 ... ... : ... .. . ... ...
ROW 74 : ... .. . ... ... ... : ... .. . P7D ... ... : ... .. . ... : ... .. . ... : ... .. . ... ... : ... .. . ... ... : ... .. . ... ... : ... .. . ... ...
ROW 75 : ... .. . ... ... ... : ... .. . P7B ... ... : ... .. . ... : ... .. . ... : ... .. . ... ... : ... .. . ... ... : ... .. . ... ... : ... .. . ... ...
ROW 76 : ... .. . ... ... ... : ... .. . P7C ... ... : ... .. . ... : ... .. . ... : ... .. . ... ... : ... .. . ... ... : ... .. . ... ... : ... .. . ... ...
ROW 77 : ... .. . ... ... ... : ... .. . P80 ... ... : ... .. . ... : ... .. . ... : ... .. . ... ... : ... .. . ... ... : ... .. . ... ... : ... .. . ... ...
ROW 78 : ... .. 8 P83 ... ... : ... .. . P83 ... ... : ... .. . ... : ... .. . ... : ... .. . ... ... : ... .. . ... ... : ... .. . ... ... : B-2 01 6 ... ...
ROW 79 : ... .. . P84 ... ... : ... .. . P87 ... ... : ... .. . ... : ... .. . ... : ... .. . ... ... : ... .. . ... ... : ... .. . ... ... : ... .. 5 ... ...
ROW 7A : ... .. . ... ... ... : ... .. . ... ... ... : ... .. . ... : ... .. . ... : ... .. . ... ... : ... .. . ... ... : ... .. . ... ... : ... .. 4 ... ...
ROW 7B : ... .. . P81 ... ... : ... .. . P84 ... ... : ... .. . ... : ... .. . ... : ... .. . ... ... : ... .. . ... ... : ... .. . ... ... : ... .. 3 ... ...
ROW 7C : ... .. . P7F ... ... : ... .. . P81 ... ... : ... .. . ... : ... .. . ... : ... .. . ... ... : ... .. . ... ... : ... .. . ... ... : ... .. 2 ... ...
ROW 7D : ... .. . P7C ... ... : ... .. . P7D ... ... : ... .. . ... : ... .. . ... : ... .. . ... ... : ... .. . ... ... : ... .. . ... ... : ... .. 1 ... ...
ROW 7E : ... .. . ... ... ... : ... .. . P7B ... ... : ... .. . ... : ... .. . ... : ... .. . ... ... : ... .. . ... ... : ... .. . ... ... : ... .. . ... ...
ROW 7F : ... .. . P7D ... ... : ... .. . P7C ... ... : ... .. . ... : ... .. . ... : ... .. . ... ... : ... .. . ... ... : ... .. . ... ... : ... .. . ... ...
ROW 80 : ... .. . P80 ... ... : ... .. . P7F ... ... : ... .. . ... : ... .. . ... : ... .. . ... ... : ... .. . ... ... : ... .. . ... ... : ... .. . ... ...
ROW 81 : ... .. . P82 ... ... : ... .. . P83 ... ... : ... .. . ... : ... .. . ... : ... .. . ... ... : ... .. . ... ... : ... .. . ... ... : ... .. . ... ...
ROW 82 : ... .. . P84 ... ... : ... .. 3 P85 ... ... : ... .. . ... : ... .. . ... : ... .. . ... ... : ... .. . ... ... : ... .. . ... ... : ... .. 3 ... ...
ROW 83 : ... .. . ... ... ... : ... .. . ... ... ... : ... .. . ... : ... .. . ... : ... .. . ... ... : ... .. . ... ... : ... .. . ... ... : ... .. 2 ... ...
ROW 84 : ... .. . P81 ... ... : ... .. . P84 ... ... : ... .. . ... : ... .. . ... : ... .. . ... ... : ... .. . ... ... : ... .. . ... ... : ... .. . ... ...
ROW 85 : ... .. . P80 ... ... : ... .. . P81 ... ... : ... .. . ... : ... .. . ... : ... .. . ... ... : ... .. . ... ... : ... .. . ... ... : ... .. 1 ... ...
ROW 86 : ... .. . P7D ... ... : ... .. . P7F ... ... : ... .. . ... : ... .. . ... : ... .. . ... ... : ... .. . ... ... : ... .. . ... ... : ... .. . ... ...
ROW 87 : ... .. 9 P7C ... ... : ... .. 4 P7D ... ... : ... .. . ... : ... .. . ... : ... .. . ... ... : ... .. . ... ... : ... .. . ... ... : ... .. . ... ...
ROW 88 : ... .. . P7D ... ... : ... .. . ... ... ... : ... .. . ... : ... .. . ... : ... .. . ... ... : ... .. . ... ... : ... .. . ... ... : ... .. . ... ...
ROW 89 : ... .. . P80 ... ... : ... .. . P80 ... ... : ... .. . ... : ... .. . ... : ... .. . ... ... : ... .. . ... ... : ... .. . ... ... : ... .. . ... ...
ROW 8A : ... .. . P82 ... ... : ... .. . P81 ... ... : ... .. . ... : ... .. . ... : ... .. . ... ... : ... .. . ... ... : ... .. . ... ... : ... .. . ... ...
ROW 8B : ... .. . P84 ... ... : ... .. . P84 ... ... : ... .. . ... : ... .. . ... : ... .. . ... ... : ... .. . ... ... : ... .. . ... ... : ... .. . ... ...
ROW 8C : ... .. A ... ... ... : ... .. . P85 ... ... : ... .. . ... : ... .. . ... : ... .. . ... ... : ... .. 4 ... ... : ... .. 4 ... ... : G#2 01 8 ... ...
ROW 8D : ... .. 2 P82 ... ... : ... .. . P84 ... ... : ... .. . ... : ... .. . ... : ... .. . ... ... : ... .. . ... ... : ... .. . ... ... : ... .. 7 ... ...
ROW 8E : ... .. . P80 ... ... : ... .. . P81 ... ... : ... .. . ... : ... .. . ... : ... .. . ... ... : ... .. . ... ... : ... .. . ... ... : ... .. 6 ... ...
ROW 8F : ... .. . P7D ... ... : ... .. . P7F ... ... : ... .. . ... : ... .. . ... : ... .. . ... ... : ... .. . ... ... : ... .. . ... ... : ... .. 4 ... ...
ROW 90 : ... .. 1 P7C ... ... : ... .. . P7D ... ... : ... .. . ... : ... .. . ... : ... .. . ... ... : ... .. . ... ... : ... .. . ... ... : ... .. 3 ... ...
ROW 91 : ... .. . P7D ... ... : ... .. . ... ... ... : ... .. . ... : ... .. . ... : ... .. . ... ... : ... .. 1 ... ... : ... .. 1 ... ... : ... .. 2 ... ...
ROW 92 : ... .. . P80 ... ... : ... .. . P7F ... ... : ... .. . ... : ... .. . ... : ... .. . ... ... : ... .. . ... ... : ... .. . ... ... : ... .. . ... ...
ROW 93 : ... .. 0 ... V00 ... : ... .. . P81 ... ... : ... .. . ... : ... .. . ... : ... .. . ... ... : ... .. . ... ... : ... .. . ... ... : ... .. 1 ... ...
ROW 94 : ... .. . ... ... ... : ... .. . P84 ... ... : ... .. . ... : ... .. . ... : ... .. . ... ... : ... .. . ... ... : ... .. . ... ... : ... .. . ... ...
ROW 95 : ... .. . ... ... ... : ... .. . P85 ... ... : ... .. . ... : ... .. . ... : ... .. . ... ... : ... .. . ... ... : ... .. . ... ... : ... .. . ... ...
ROW 96 : ... .. . ... ... ... : ... .. 5 P84 ... ... : ... .. . ... : ... .. . ... : ... .. . ... ... : ... .. 4 ... ... : ... .. 4 ... ... : ... .. 3 ... ...
ROW 97 : ... .. . ... ... ... : ... .. 1 P81 ... ... : ... .. . ... : ... .. . ... : ... .. . ... ... : ... .. . ... ... : ... .. . ... ... : ... .. 2 ... ...
ROW 98 : ... .. . ... ... ... : ... .. . P80 ... ... : ... .. . ... : ... .. . ... : ... .. . ... ... : ... .. . ... ... : ... .. . ... ... : ... .. . ... ...
ROW 99 : ... .. . ... ... ... : ... .. . P7D ... ... : ... .. . ... : ... .. . ... : ... .. . ... ... : ... .. . ... ... : ... .. . ... ... : ... .. 1 ... ...
ROW 9A : ... .. . ... ... ... : ... .. . ... ... ... : ... .. . ... : ... .. . ... : ... .. . ... ... : ... .. . ... ... : ... .. . ... ... : ... .. . ... ...
ROW 9B : ... .. . ... ... ... : ... .. . P7F ... ... : ... .. . ... : ... .. . ... : ... .. . ... ... : ... .. 1 ... ... : ... .. 1 ... ... : ... .. . ... ...
ROW 9C : ... .. . ... ... ... : ... .. . P81 ... ... : ... .. . ... : ... .. . ... : ... .. . ... ... : ... .. . ... ... : ... .. . ... ... : ... .. . ... ...
ROW 9D : ... .. . ... ... ... : ... .. 0 ... V00 ... : ... .. . ... : ... .. . ... : ... .. . ... ... : ... .. . ... ... : ... .. . ... ... : ... .. . ... ...
ROW 9E : ... .. . ... ... ... : ... .. . ... ... ... : ... .. . ... : ... .. . ... : ... .. . ... ... : ... .. . ... ... : ... .. . ... ... : ... .. . ... ...
ROW 9F : ... .. . ... ... ... : ... .. . ... ... ... : ... .. . ... : ... .. . ... : ... .. . ... ... : ... .. . ... ... : ... .. . ... ... : ... .. . ... ...
ROW A0 : ... .. . ... ... ... : ... .. . ... ... ... : F#2 00 . ... : ... .. . ... : ... .. . ... ... : C#3 01 1 ... ... : F#3 01 1 ... ... : A#2 01 6 ... ...
ROW A1 : ... .. . ... ... ... : ... .. . ... ... ... : ... .. . ... : ... .. . ... : ... .. . ... ... : ... .. . ... ... : ... .. . ... ... : ... .. 5 ... ...
ROW A2 : ... .. . ... ... ... : ... .. . ... ... ... : ... .. . ... : ... .. . ... : ... .. . ... ... : ... .. . ... ... : ... .. . ... ... : ... .. 4 ... ...
ROW A3 : ... .. . ... ... ... : ... .. . ... ... ... : ... .. . ... : ... .. . ... : ... .. . ... ... : ... .. . ... ... : ... .. . ... ... : ... .. 3 ... ...
ROW A4 : ... .. . ... ... ... : ... .. . ... ... ... : ... .. . ... : ... .. . ... : ... .. . ... ... : ... .. . ... ... : ... .. . ... ... : ... .. 2 ... ...
ROW A5 : ... .. . ... ... ... : ... .. . ... ... ... : ... .. . ... : ... .. . ... : ... .. . ... ... : ... .. . ... ... : ... .. . ... ... : ... .. 1 ... ...
ROW A6 : ... .. . ... ... ... : ... .. . ... ... ... : ... .. . ... : ... .. . ... : ... .. . ... ... : ... .. . ... ... : ... .. . ... ... : ... .. . ... ...
ROW A7 : ... .. . ... ... ... : ... .. . ... ... ... : ... .. . ... : ... .. . ... : ... .. . ... ... : ... .. . ... ... : ... .. . ... ... : ... .. . ... ...
ROW A8 : ... .. . ... ... ... : ... .. . ... ... ... : ... .. . ... : ... .. . ... : ... .. . ... ... : ... .. . ... ... : ... .. . ... ... : ... .. . ... ...
ROW A9 : ... .. . ... ... ... : ... .. . ... ... ... : ... .. . ... : ... .. . ... : ... .. . ... ... : ... .. . ... ... : ... .. . ... ... : ... .. . ... ...
ROW AA : ... .. . ... ... ... : ... .. . ... ... ... : ... .. . ... : ... .. . ... : ... .. . ... ... : ... .. . ... ... : ... .. . ... ... : ... .. 3 ... ...
ROW AB : ... .. . ... ... ... : ... .. . ... ... ... : ... .. . ... : ... .. . ... : ... .. . ... ... : ... .. . ... ... : ... .. . ... ... : ... .. 2 ... ...
ROW AC : ... .. . ... ... ... : ... .. . ... ... ... : ... .. . ... : ... .. . ... : ... .. . ... ... : ... .. . ... ... : ... .. . ... ... : ... .. . ... ...
ROW AD : ... .. . ... ... ... : ... .. . ... ... ... : ... .. . ... : ... .. . ... : ... .. . ... ... : ... .. . ... ... : ... .. . ... ... : ... .. 1 ... ...
ROW AE : ... .. . ... ... ... : ... .. . ... ... ... : ... .. . ... : ... .. . ... : ... .. . ... ... : ... .. . ... ... : ... .. . ... ... : ... .. . ... ...
ROW AF : ... .. . ... ... ... : ... .. . ... ... ... : ... .. . ... : ... .. . ... : ... .. . ... ... : ... .. . ... ... : ... .. . ... ... : ... .. . ... ...
ROW B0 : ... .. . ... ... ... : ... .. . ... ... ... : ... .. . ... : ... .. . ... : ... .. . ... ... : ... .. . ... ... : ... .. . ... ... : ... .. . ... ...
ROW B1 : ... .. . ... ... ... : ... .. . ... ... ... : ... .. . ... : ... .. . ... : ... .. . ... ... : ... .. . ... ... : ... .. . ... ... : ... .. . ... ...
ROW B2 : ... .. . ... ... ... : ... .. . ... ... ... : ... .. . ... : ... .. . ... : ... .. . ... ... : ... .. . ... ... : ... .. . ... ... : ... .. . ... ...
ROW B3 : ... .. . ... ... ... : ... .. . ... ... ... : ... .. . ... : ... .. . ... : ... .. . ... ... : ... .. . ... ... : ... .. . ... ... : ... .. . ... ...
ROW B4 : F#3 00 8 P80 V02 ... : ... .. . ... ... ... : ... .. . ... : ... .. . ... : ... .. . ... ... : ... .. 4 ... ... : ... .. 4 ... ... : F#2 01 8 ... ...
ROW B5 : ... .. 7 ... ... ... : ... .. . ... ... ... : ... .. . ... : ... .. . ... : ... .. . ... ... : ... .. . ... ... : ... .. . ... ... : ... .. 7 ... ...
ROW B6 : ... .. 6 ... ... ... : ... .. . ... ... ... : ... .. . ... : ... .. . ... : ... .. . ... ... : ... .. . ... ... : ... .. . ... ... : ... .. 6 ... ...
ROW B7 : ... .. 5 ... ... ... : ... .. . ... ... ... : ... .. . ... : ... .. . ... : ... .. . ... ... : ... .. . ... ... : ... .. . ... ... : ... .. 4 ... ...
ROW B8 : ... .. . ... ... ... : ... .. . ... ... ... : ... .. . ... : ... .. . ... : ... .. . ... ... : ... .. . ... ... : ... .. . ... ... : ... .. 3 ... ...
ROW B9 : ... .. . ... ... ... : ... .. . ... ... ... : ... .. . ... : ... .. . ... : ... .. . ... ... : ... .. 1 ... ... : ... .. 1 ... ... : ... .. 2 ... ...
ROW BA : ... .. . ... ... ... : ... .. . ... ... ... : ... .. . ... : ... .. . ... : ... .. . ... ... : ... .. . ... ... : ... .. . ... ... : ... .. . ... ...
ROW BB : ... .. . ... ... ... : ... .. . ... ... ... : ... .. . ... : ... .. . ... : ... .. . ... ... : ... .. . ... ... : ... .. . ... ... : ... .. 1 ... ...
ROW BC : ... .. . ... ... ... : ... .. . ... ... ... : ... .. . ... : ... .. . ... : ... .. . ... ... : ... .. . ... ... : ... .. . ... ... : ... .. . ... ...
ROW BD : ... .. . ... ... ... : ... .. . ... ... ... : ... .. . ... : ... .. . ... : ... .. . ... ... : ... .. . ... ... : ... .. . ... ... : ... .. . ... ...
ROW BE : G#3 00 9 ... ... ... : F#3 00 1 P81 V02 ... : ... .. . ... : ... .. . ... : ... .. . ... ... : ... .. 4 ... ... : ... .. 4 ... ... : ... .. 3 ... ...
ROW BF : ... .. 8 ... ... ... : ... .. . ... ... ... : ... .. . ... : ... .. . ... : ... .. . ... ... : ... .. . ... ... : ... .. . ... ... : ... .. 2 ... ...
ROW C0 : ... .. 7 ... ... ... : ... .. . ... ... ... : ... .. . ... : ... .. . ... : ... .. . ... ... : ... .. . ... ... : ... .. . ... ... : ... .. . ... ...
ROW C1 : ... .. 6 ... ... ... : ... .. . ... ... ... : ... .. . ... : ... .. . ... : ... .. . ... ... : ... .. . ... ... : ... .. . ... ... : ... .. 1 ... ...
ROW C2 : ... .. . ... ... ... : ... .. . ... ... ... : ... .. . ... : ... .. . ... : ... .. . ... ... : ... .. . ... ... : ... .. . ... ... : ... .. . ... ...
ROW C3 : ... .. . ... ... ... : ... .. . ... ... ... : ... .. . ... : ... .. . ... : ... .. . ... ... : ... .. 1 ... ... : ... .. 1 ... ... : ... .. . ... ...
ROW C4 : ... .. 1 ... ... ... : ... .. . ... ... ... : ... .. . ... : ... .. . ... : ... .. . ... ... : ... .. . ... ... : ... .. . ... ... : ... .. . ... ...
ROW C5 : ... .. . ... ... ... : ... .. . ... ... ... : ... .. . ... : ... .. . ... : ... .. . ... ... : ... .. . ... ... : ... .. . ... ... : ... .. . ... ...
ROW C6 : ... .. . ... ... ... : ... .. . ... ... ... : ... .. . ... : ... .. . ... : ... .. . ... ... : ... .. . ... ... : ... .. . ... ... : ... .. . ... ...
ROW C7 : ... .. . ... ... ... : ... .. . ... ... ... : ... .. . ... : ... .. . ... : ... .. . ... ... : ... .. . ... ... : ... .. . ... ... : ... .. . ... ...
ROW C8 : A#3 00 B ... ... ... : G#3 00 2 ... ... ... : ... .. . ... : ... .. . ... : ... .. . ... ... : ... .. . ... ... : ... .. . ... ... : A#2 01 6 ... ...
ROW C9 : ... .. A ... ... ... : ... .. 1 ... ... ... : ... .. . ... : ... .. . ... : ... .. . ... ... : ... .. . ... ... : ... .. . ... ... : ... .. 5 ... ...
ROW CA : ... .. 9 ... ... ... : ... .. . ... ... ... : ... .. . ... : ... .. . ... : ... .. . ... ... : ... .. . ... ... : ... .. . ... ... : ... .. 4 ... ...
ROW CB : ... .. 7 ... ... ... : ... .. . ... ... ... : ... .. . ... : ... .. . ... : ... .. . ... ... : ... .. . ... ... : ... .. . ... ... : ... .. 3 ... ...
ROW CC : ... .. . ... ... ... : ... .. . ... ... ... : ... .. . ... : ... .. . ... : ... .. . ... ... : ... .. . ... ... : ... .. . ... ... : ... .. 2 ... ...
ROW CD : ... .. 8 ... ... ... : ... .. 2 ... ... ... : ... .. . ... : ... .. . ... : ... .. . ... ... : ... .. . ... ... : ... .. . ... ... : ... .. 1 ... ...
ROW CE : ... .. . ... ... ... : ... .. 1 ... ... ... : ... .. . ... : ... .. . ... : ... .. . ... ... : ... .. . ... ... : ... .. . ... ... : ... .. . ... ...
ROW CF : ... .. . ... ... ... : ... .. . ... ... ... : ... .. . ... : ... .. . ... : ... .. . ... ... : ... .. . ... ... : ... .. . ... ... : ... .. . ... ...
ROW D0 : ... .. . ... ... ... : ... .. . ... ... ... : ... .. . ... : ... .. . ... : ... .. . ... ... : ... .. . ... ... : ... .. . ... ... : ... .. . ... ...
ROW D1 : ... .. . ... ... ... : ... .. . ... ... ... : ... .. . ... : ... .. . ... : ... .. . ... ... : ... .. . ... ... : ... .. . ... ... : ... .. . ... ...
ROW D2 : G#3 00 D ... ... ... : A#3 00 4 ... ... ... : ... .. . ... : ... .. . ... : ... .. . ... ... : ... .. . ... ... : ... .. . ... ... : ... .. 3 ... ...
ROW D3 : ... .. C ... ... ... : ... .. 3 ... ... ... : ... .. . ... : ... .. . ... : ... .. . ... ... : ... .. . ... ... : ... .. . ... ... : ... .. 2 ... ...
ROW D4 : ... .. B ... ... ... : ... .. . ... ... ... : ... .. . ... : ... .. . ... : ... .. . ... ... : ... .. . ... ... : ... .. . ... ... : ... .. . ... ...
ROW D5 : ... .. 8 ... ... ... : ... .. 2 ... ... ... : ... .. . ... : ... .. . ... : ... .. . ... ... : ... .. . ... ... : ... .. . ... ... : ... .. 1 ... ...
ROW D6 : ... .. . ... ... ... : ... .. . ... ... ... : ... .. . ... : ... .. . ... : ... .. . ... ... : ... .. . ... ... : ... .. . ... ... : ... .. . ... ...
ROW D7 : ... .. 9 ... ... ... : ... .. 3 ... ... ... : ... .. . ... : ... .. . ... : ... .. . ... ... : ... .. . ... ... : ... .. . ... ... : ... .. . ... ...
ROW D8 : ... .. 1 ... ... ... : ... .. . ... ... ... : ... .. . ... : ... .. . ... : ... .. . ... ... : ... .. . ... ... : ... .. . ... ... : ... .. . ... ...
ROW D9 : ... .. . ... ... ... : ... .. . ... ... ... : ... .. . ... : ... .. . ... : ... .. . ... ... : ... .. . ... ... : ... .. . ... ... : ... .. . ... ...
ROW DA : ... .. . ... ... ... : ... .. . ... ... ... : ... .. . ... : ... .. . ... : ... .. . ... ... : ... .. . ... ... : ... .. . ... ... : ... .. . ... ...
ROW DB : ... .. . ... ... ... : ... .. . ... ... ... : ... .. . ... : ... .. . ... : ... .. . ... ... : ... .. . ... ... : ... .. . ... ... : ... .. . ... ...
ROW DC : F#3 00 F ... ... ... : G#3 00 6 ... ... ... : ... .. . ... : ... .. . ... : ... .. . ... ... : ... .. 4 ... ... : ... .. 4 ... ... : F#2 01 8 ... ...
ROW DD : ... .. E ... ... ... : ... .. 5 ... ... ... : ... .. . ... : ... .. . ... : ... .. . ... ... : ... .. . ... ... : ... .. . ... ... : ... .. 7 ... ...
ROW DE : ... .. D ... ... ... : ... .. . ... ... ... : ... .. . ... : ... .. . ... : ... .. . ... ... : ... .. . ... ... : ... .. . ... ... : ... .. 6 ... ...
ROW DF : ... .. A ... ... ... : ... .. 4 ... ... ... : ... .. . ... : ... .. . ... : ... .. . ... ... : ... .. . ... ... : ... .. . ... ... : ... .. 4 ... ...
ROW E0 : ... .. . ... ... ... : ... .. . ... ... ... : ... .. . ... : ... .. . ... : ... .. . ... ... : ... .. . ... ... : ... .. . ... ... : ... .. 3 ... ...
ROW E1 : ... .. 9 ... ... ... : ... .. . ... ... ... : ... .. . ... : ... .. . ... : ... .. . ... ... : ... .. 1 ... ... : ... .. 1 ... ... : ... .. 2 ... ...
ROW E2 : ... .. 1 ... ... ... : ... .. 1 ... ... ... : ... .. . ... : ... .. . ... : ... .. . ... ... : ... .. . ... ... : ... .. . ... ... : ... .. . ... ...
ROW E3 : ... .. . ... ... ... : ... .. . ... ... ... : ... .. . ... : ... .. . ... : ... .. . ... ... : ... .. . ... ... : ... .. . ... ... : ... .. 1 ... ...
ROW E4 : ... .. . ... ... ... : ... .. . ... ... ... : ... .. . ... : ... .. . ... : ... .. . ... ... : ... .. . ... ... : ... .. . ... ... : ... .. . ... ...
ROW E5 : ... .. . ... ... ... : ... .. . ... ... ... : ... .. . ... : ... .. . ... : ... .. . ... ... : ... .. . ... ... : ... .. . ... ... : ... .. . ... ...
ROW E6 : A#3 00 D ... ... ... : F#3 00 8 ... ... ... : ... .. . ... : ... .. . ... : ... .. . ... ... : ... .. 4 ... ... : ... .. 4 ... ... : ... .. 3 ... ...
ROW E7 : ... .. C ... ... ... : ... .. 7 ... ... ... : ... .. . ... : ... .. . ... : ... .. . ... ... : ... .. . ... ... : ... .. . ... ... : ... .. 2 ... ...
ROW E8 : ... .. B ... ... ... : ... .. 6 ... ... ... : ... .. . ... : ... .. . ... : ... .. . ... ... : ... .. . ... ... : ... .. . ... ... : ... .. . ... ...
ROW E9 : ... .. 8 ... ... ... : ... .. 5 ... ... ... : ... .. . ... : ... .. . ... : ... .. . ... ... : ... .. . ... ... : ... .. . ... ... : ... .. 1 ... ...
ROW EA : ... .. . ... ... ... : ... .. . ... ... ... : ... .. . ... : ... .. . ... : ... .. . ... ... : ... .. . ... ... : ... .. . ... ... : ... .. . ... ...
ROW EB : ... .. . ... ... ... : ... .. 4 ... ... ... : ... .. . ... : ... .. . ... : ... .. . ... ... : ... .. 1 ... ... : ... .. 1 ... ... : ... .. . ... ...
ROW EC : ... .. 1 ... ... ... : ... .. 1 ... ... ... : ... .. . ... : ... .. . ... : ... .. . ... ... : ... .. . ... ... : ... .. . ... ... : ... .. . ... ...
ROW ED : ... .. . ... ... ... : ... .. . ... ... ... : ... .. . ... : ... .. . ... : ... .. . ... ... : ... .. . ... ... : ... .. . ... ... : ... .. . ... ...
ROW EE : ... .. . ... ... ... : ... .. . ... ... ... : ... .. . ... : ... .. . ... : ... .. . ... ... : ... .. . ... ... : ... .. . ... ... : ... .. . ... ...
ROW EF : ... .. . ... ... ... : ... .. . ... ... ... : ... .. . ... : ... .. . ... : ... .. . ... ... : ... .. . ... ... : ... .. . ... ... : ... .. . ... ...
ROW F0 : G#3 00 C ... ... ... : A#3 00 6 ... ... ... : C#2 00 . ... : ... .. . ... : ... .. . ... ... : B-2 01 1 ... ... : E-3 01 1 ... ... : G#2 01 6 ... ...
ROW F1 : ... .. B ... ... ... : ... .. 5 ... ... ... : ... .. . ... : ... .. . ... : ... .. . ... ... : ... .. . ... ... : ... .. . ... ... : ... .. 5 ... ...
ROW F2 : ... .. A ... ... ... : ... .. . ... ... ... : ... .. . ... : ... .. . ... : ... .. . ... ... : ... .. . ... ... : ... .. . ... ... : ... .. 4 ... ...
ROW F3 : ... .. 8 ... ... ... : ... .. 4 ... ... ... : ... .. . ... : ... .. . ... : ... .. . ... ... : ... .. . ... ... : ... .. . ... ... : ... .. 3 ... ...
ROW F4 : ... .. . ... ... ... : ... .. . ... ... ... : ... .. . ... : ... .. . ... : ... .. . ... ... : ... .. . ... ... : ... .. . ... ... : ... .. 2 ... ...
ROW F5 : ... .. 7 ... ... ... : ... .. . ... ... ... : ... .. . ... : ... .. . ... : ... .. . ... ... : ... .. . ... ... : ... .. . ... ... : ... .. 1 ... ...
ROW F6 : ... .. . ... ... ... : ... .. 1 ... ... ... : ... .. . ... : ... .. . ... : ... .. . ... ... : ... .. . ... ... : ... .. . ... ... : ... .. . ... ...
ROW F7 : ... .. . ... ... ... : ... .. . ... ... ... : ... .. . ... : ... .. . ... : ... .. . ... ... : ... .. . ... ... : ... .. . ... ... : ... .. . ... ...
ROW F8 : ... .. . ... ... ... : ... .. . ... ... ... : ... .. . ... : ... .. . ... : ... .. . ... ... : ... .. . ... ... : ... .. . ... ... : ... .. . ... ...
ROW F9 : ... .. . ... ... ... : ... .. . ... ... ... : ... .. . ... : ... .. . ... : ... .. . ... ... : ... .. . ... ... : ... .. . ... ... : ... .. . ... ...
ROW FA : ... .. . ... ... ... : G#3 00 5 ... ... ... : ... .. . ... : ... .. . ... : ... .. . ... ... : ... .. . ... ... : ... .. . ... ... : ... .. 3 ... ...
ROW FB : ... .. . ... ... ... : ... .. 4 ... ... ... : ... .. . ... : ... .. . ... : ... .. . ... ... : ... .. . ... ... : ... .. . ... ... : ... .. 2 ... ...
ROW FC : ... .. . ... ... ... : ... .. . ... ... ... : ... .. . ... : ... .. . ... : ... .. . ... ... : ... .. . ... ... : ... .. . ... ... : ... .. . ... ...
ROW FD : ... .. . ... ... ... : ... .. 3 ... ... ... : ... .. . ... : ... .. . ... : ... .. . ... ... : ... .. . ... ... : ... .. . ... ... : ... .. 1 ... ...
ROW FE : ... .. . ... ... ... : ... .. . ... ... ... : ... .. . ... : ... .. . ... : ... .. . ... ... : ... .. . ... ... : ... .. . ... ... : ... .. . ... ...
ROW FF : ... .. 6 ... ... ... : ... .. 2 ... ... ... : ... .. . ... : ... .. . ... : ... .. . ... ... : ... .. . ... ... : ... .. . ... ... : ... .. . ... ...

PATTERN 10
ROW 00 : ... .. . ... ... ... : ... .. . ... ... ... : ... .. . ... : ... .. . ... : ... .. . ... ... : ... .. . ... ... : ... .. . ... ... : ... .. . ... ...
ROW 01 : ... .. . ... ... ... : ... .. . ... ... ... : ... .. . ... : ... .. . ... : ... .. . ... ... : ... .. . ... ... : ... .. . ... ... : ... .. . ... ...
ROW 02 : ... .. . ... ... ... : ... .. . ... ... ... : ... .. . ... : ... .. . ... : ... .. . ... ... : ... .. . ... ... : ... .. . ... ... : ... .. . ... ...
ROW 03 : ... .. . ... ... ... : ... .. . ... ... ... : ... .. . ... : ... .. . ... : ... .. . ... ... : ... .. . ... ... : ... .. . ... ... : ... .. . ... ...
ROW 04 : ... .. . ... ... ... : ... .. . ... ... ... : ... .. . ... : ... .. . ... : ... .. . ... ... : ... .. 4 ... ... : ... .. 4 ... ... : E-2 01 8 ... ...
ROW 05 : ... .. . ... ... ... : ... .. . ... ... ... : ... .. . ... : ... .. . ... : ... .. . ... ... : ... .. . ... ... : ... .. . ... ... : ... .. 7 ... ...
ROW 06 : ... .. . ... ... ... : ... .. . ... ... ... : ... .. . ... : ... .. . ... : ... .. . ... ... : ... .. . ... ... : ... .. . ... ... : ... .. 6 ... ...
ROW 07 : ... .. . ... ... ... : ... .. . ... ... ... : ... .. . ... : ... .. . ... : ... .. . ... ... : ... .. . ... ... : ... .. . ... ... : ... .. 4 ... ...
ROW 08 : ... .. . ... ... ... : ... .. . ... ... ... : ... .. . ... : ... .. . ... : ... .. . ... ... : ... .. . ... ... : ... .. . ... ... : ... .. 3 ... ...
ROW 09 : ... .. . P83 ... ... : ... .. . ... ... ... : ... .. . ... : ... .. . ... : ... .. . ... ... : ... .. 1 ... ... : ... .. 1 ... ... : ... .. 2 ... ...
ROW 0A : ... .. . P84 ... ... : ... .. . ... ... ... : ... .. . ... : ... .. . ... : ... .. . ... ... : ... .. . ... ... : ... .. . ... ... : ... .. . ... ...
ROW 0B : ... .. . ... ... ... : ... .. . ... ... ... : ... .. . ... : ... .. . ... : ... .. . ... ... : ... .. . ... ... : ... .. . ... ... : ... .. 1 ... ...
ROW 0C : ... .. . P81 ... ... : ... .. . ... ... ... : ... .. . ... : ... .. . ... : ... .. . ... ... : ... .. . ... ... : ... .. . ... ... : ... .. . ... ...
ROW 0D : ... .. . P7F ... ... : ... .. . ... ... ... : ... .. . ... : ... .. . ... : ... .. . ... ... : ... .. . ... ... : ... .. . ... ... : ... .. . ... ...
ROW 0E : ... .. 7 P7C ... ... : ... .. . ... ... ... : ... .. . ... : ... .. . ... : ... .. . ... ... : ... .. 4 ... ... : ... .. 4 ... ... : ... .. 3 ... ...
ROW 0F : ... .. . ... ... ... : ... .. . ... ... ... : ... .. . ... : ... .. . ... : ... .. . ... ... : ... .. . ... ... : ... .. . ... ... : ... .. 2 ... ...
ROW 10 : ... .. . P7D ... ... : ... .. . ... ... ... : ... .. . ... : ... .. . ... : ... .. . ... ... : ... .. . ... ... : ... .. . ... ... : ... .. . ... ...
ROW 11 : ... .. . P80 ... ... : ... .. . ... ... ... : ... .. . ... : ... .. . ... : ... .. . ... ... : ... .. . ... ... : ... .. . ... ... : ... .. 1 ... ...
ROW 12 : ... .. . P82 ... ... : ... .. . ... ... ... : ... .. . ... : ... .. . ... : ... .. . ... ... : ... .. . ... ... : ... .. . ... ... : ... .. . ... ...
ROW 13 : ... .. . P84 ... ... : ... .. . P84 ... ... : ... .. . ... : ... .. . ... : ... .. . ... ... : ... .. 1 ... ... : ... .. 1 ... ... : ... .. . ... ...
ROW 14 : ... .. . ... ... ... : ... .. . P85 ... ... : ... .. . ... : ... .. . ... : ... .. . ... ... : ... .. . ... ... : ... .. . ... ... : ... .. . ... ...
ROW 15 : ... .. . P81 ... ... : ... .. . ... ... ... : ... .. . ... : ... .. . ... : ... .. . ... ... : ... .. . ... ... : ... .. . ... ... : ... .. . ... ...
ROW 16 : ... .. . P80 ... ... : ... .. . P82 ... ... : ... .. . ... : ... .. . ... : ... .. . ... ... : ... .. . ... ... : ... .. . ... ... : ... .. . ... ...
ROW 17 : ... .. . P7D ... ... : ... .. . P80 ... ... : ... .. . ... : ... .. . ... : ... .. . ... ... : ... .. . ... ... : ... .. . ... ... : ... .. . ... ...
ROW 18 : ... .. 8 P7C ... ... : ... .. . P7D ... ... : ... .. . ... : ... .. . ... : ... .. . ... ... : ... .. . ... ... : ... .. . ... ... : G#2 01 6 ... ...
ROW 19 : ... .. . P7D ... ... : ... .. . ... ... ... : ... .. . ... : ... .. . ... : ... .. . ... ... : ... .. . ... ... : ... .. . ... ... : ... .. 5 ... ...
ROW 1A : ... .. . P80 ... ... : ... .. . P7E ... ... : ... .. . ... : ... .. . ... : ... .. . ... ... : ... .. . ... ... : ... .. . ... ... : ... .. 4 ... ...
ROW 1B : ... .. . P82 ... ... : ... .. . P81 ... ... : ... .. . ... : ... .. . ... : ... .. . ... ... : ... .. . ... ... : ... .. . ... ... : ... .. 3 ... ...
ROW 1C : ... .. . P84 ... ... : ... .. . P83 ... ... : ... .. . ... : ... .. . ... : ... .. . ... ... : ... .. . ... ... : ... .. . ... ... : ... .. 2 ... ...
ROW 1D : ... .. . ... ... ... : ... .. . P85 ... ... : ... .. . ... : ... .. . ... : ... .. . ... ... : ... .. . ... ... : ... .. . ... ... : ... .. 1 ... ...
ROW 1E : ... .. . P82 ... ... : ... .. . ... ... ... : ... .. . ... : ... .. . ... : ... .. . ... ... : ... .. . ... ... : ... .. . ... ... : ... .. . ... ...
ROW 1F : ... .. . P80 ... ... : ... .. . P82 ... ... : ... .. . ... : ... .. . ... : ... .. . ... ... : ... .. . ... ... : ... .. . ... ... : ... .. . ... ...
ROW 20 : ... .. . P7D ... ... : ... .. . P81 ... ... : ... .. . ... : ... .. . ... : ... .. . ... ... : ... .. . ... ... : ... .. . ... ... : ... .. . ... ...
ROW 21 : ... .. . P7C ... ... : ... .. . P7E ... ... : ... .. . ... : ... .. . ... : ... .. . ... ... : ... .. . ... ... : ... .. . ... ... : ... .. . ... ...
ROW 22 : ... .. . P7D ... ... : ... .. 3 P7D ... ... : ... .. . ... : ... .. . ... : ... .. . ... ... : ... .. . ... ... : ... .. . ... ... : ... .. 3 ... ...
ROW 23 : ... .. . P80 ... ... : ... .. . P7E ... ... : ... .. . ... : ... .. . ... : ... .. . ... ... : ... .. . ... ... : ... .. . ... ... : ... .. 2 ... ...
ROW 24 : ... .. . P81 ... ... : ... .. . P81 ... ... : ... .. . ... : ... .. . ... : ... .. . ... ... : ... .. . ... ... : ... .. . ... ... : ... .. . ... ...
ROW 25 : ... .. . P84 ... ... : ... .. . P83 ... ... : ... .. . ... : ... .. . ... : ... .. . ... ... : ... .. . ... ... : ... .. . ... ... : ... .. 1 ... ...
ROW 26 : ... .. . ... ... ... : ... .. . P85 ... ... : ... .. . ... : ... .. . ... : ... .. . ... ... : ... .. . ... ... : ... .. . ... ... : ... .. . ... ...
ROW 27 : ... .. 9 P82 ... ... : ... .. 4 ... ... ... : ... .. . ... : ... .. . ... : ... .. . ... ... : ... .. . ... ... : ... .. . ... ... : ... .. . ... ...
ROW 28 : ... .. . P80 ... ... : ... .. . P83 ... ... : ... .. . ... : ... .. . ... : ... .. . ... ... : ... .. . ... ... : ... .. . ... ... : ... .. . ... ...
ROW 29 : ... .. . P7D ... ... : ... .. . P81 ... ... : ... .. . ... : ... .. . ... : ... .. . ... ... : ... .. . ... ... : ... .. . ... ... : ... .. . ... ...
ROW 2A : ... .. . P7C ... ... : ... .. . P7E ... ... : ... .. . ... : ... .. . ... : ... .. . ... ... : ... .. . ... ... : ... .. . ... ... : ... .. . ... ...
ROW 2B : ... .. . ... ... ... : ... .. . P7D ... ... : ... .. . ... : ... .. . ... : ... .. . ... ... : ... .. . ... ... : ... .. . ... ... : ... .. . ... ...
ROW 2C : ... .. A P7F ... ... : ... .. . P7E ... ... : ... .. . ... : ... .. . ... : ... .. . ... ... : ... .. 4 ... ... : ... .. 4 ... ... : B-2 01 8 ... ...
ROW 2D : ... .. 2 P81 ... ... : ... .. . P81 ... ... : ... .. . ... : ... .. . ... : ... .. . ... ... : ... .. . ... ... : ... .. . ... ... : ... .. 7 ... ...
ROW 2E : ... .. . P84 ... ... : ... .. . P82 ... ... : ... .. . ... : ... .. . ... : ... .. . ... ... : ... .. . ... ... : ... .. . ... ... : ... .. 6 ... ...
ROW 2F : ... .. . ... ... ... : ... .. . P85 ... ... : ... .. . ... : ... .. . ... : ... .. . ... ... : ... .. . ... ... : ... .. . ... ... : ... .. 4 ... ...
ROW 30 : ... .. 1 P83 ... ... : ... .. . ... ... ... : ... .. . ... : ... .. . ... : ... .. . ... ... : ... .. . ... ... : ... .. . ... ... : ... .. 3 ... ...
ROW 31 : ... .. . P80 ... ... : ... .. . P83 ... ... : ... .. . ... : ... .. . ... : ... .. . ... ... : ... .. 1 ... ... : ... .. 1 ... ... : ... .. 2 ... ...
ROW 32 : ... .. . P7E ... ... : ... .. . P81 ... ... : ... .. . ... : ... .. . ... : ... .. . ... ... : ... .. . ... ... : ... .. . ... ... : ... .. . ... ...
ROW 33 : ... .. 0 ... V00 ... : ... .. . P7E ... ... : ... .. . ... : ... .. . ... : ... .. . ... ... : ... .. . ... ... : ... .. . ... ... : ... .. 1 ... ...
ROW 34 : ... .. . ... ... ... : ... .. . P7D ... ... : ... .. . ... : ... .. . ... : ... .. . ... ... : ... .. . ... ... : ... .. . ... ... : ... .. . ... ...
ROW 35 : ... .. . ... ... ... : ... .. . ... ... ... : ... .. . ... : ... .. . ... : ... .. . ... ... : ... .. . ... ... : ... .. . ... ... : ... .. . ... ...
ROW 36 : ... .. . ... ... ... : ... .. 5 P80 ... ... : ... .. . ... : ... .. . ... : ... .. . ... ... : ... .. 4 ... ... : ... .. 4 ... ... : ... .. 3 ... ...
ROW 37 : ... .. . ... ... ... : ... .. 1 P82 ... ... : ... .. . ... : ... .. . ... : ... .. . ... ... : ... .. . ... ... : ... .. . ... ... : ... .. 2 ... ...
ROW 38 : ... .. . ... ... ... : ... .. . P85 ... ... : ... .. . ... : ... .. . ... : ... .. . ... ... : ... .. . ... ... : ... .. . ... ... : ... .. . ... ...
ROW 39 : ... .. . ... ... ... : ... .. . ... ... ... : ... .. . ... : ... .. . ... : ... .. . ... ... : ... .. . ... ... : ... .. . ... ... : ... .. 1 ... ...
ROW 3A : ... .. . ... ... ... : ... .. . P84 ... ... : ... .. . ... : ... .. . ... : ... .. . ... ... : ... .. . ... ... : ... .. . ... ... : ... .. . ... ...
ROW 3B : ... .. . ... ... ... : ... .. . P81 ... ... : ... .. . ... : ... .. . ... : ... .. . ... ... : ... .. 1 ... ... : ... .. 1 ... ... : ... .. . ... ...
ROW 3C : ... .. . ... ... ... : ... .. . P7F ... ... : ... .. . ... : ... .. . ... : ... .. . ... ... : ... .. . ... ... : ... .. . ... ... : ... .. . ... ...
ROW 3D : ... .. . ... ... ... : ... .. 0 ... V00 ... : ... .. . ... : ... .. . ... : ... .. . ... ... : ... .. . ... ... : ... .. . ... ... : ... .. . ... ...
ROW 3E : ... .. . ... ... ... : ... .. . ... ... ... : ... .. . ... : ... .. . ... : ... .. . ... ... : ... .. . ... ... : ... .. . ... ... : ... .. . ... ...
ROW 3F : ... .. . ... ... ... : ... .. . ... ... ... : ... .. . ... : ... .. . ... : ... .. . ... ... : ... .. . ... ... : ... .. . ... ... : ... .. . ... ...
ROW 40 : ... .. . ... ... ... : ... .. . ... ... ... : F#2 00 . ... : ... .. . ... : ... .. . ... ... : C#3 01 1 ... ... : F#3 01 1 ... ... : A#2 01 6 ... ...
ROW 41 : ... .. . ... ... ... : ... .. . ... ... ... : ... .. . ... : ... .. . ... : ... .. . ... ... : ... .. . ... ... : ... .. . ... ... : ... .. 5 ... ...
ROW 42 : ... .. . ... ... ... : ... .. . ... ... ... : ... .. . ... : ... .. . ... : ... .. . ... ... : ... .. . ... ... : ... .. . ... ... : ... .. 4 ... ...
ROW 43 : ... .. . ... ... ... : ... .. . ... ... ... : ... .. . ... : ... .. . ... : ... .. . ... ... : ... .. . ... ... : ... .. . ... ... : ... .. 3 ... ...
ROW 44 : ... .. . ... ... ... : ... .. . ... ... ... : ... .. . ... : ... .. . ... : ... .. . ... ... : ... .. . ... ... : ... .. . ... ... : ... .. 2 ... ...
ROW 45 : ... .. . ... ... ... : ... .. . ... ... ... : ... .. . ... : ... .. . ... : ... .. . ... ... : ... .. . ... ... : ... .. . ... ... : ... .. 1 ... ...
ROW 46 : ... .. . ... ... ... : ... .. . ... ... ... : ... .. . ... : ... .. . ... : ... .. . ... ... : ... .. . ... ... : ... .. . ... ... : ... .. . ... ...
ROW 47 : ... .. . ... ... ... : ... .. . ... ... ... : ... .. . ... : ... .. . ... : ... .. . ... ... : ... .. . ... ... : ... .. . ... ... : ... .. . ... ...
ROW 48 : ... .. . ... ... ... : ... .. . ... ... ... : ... .. . ... : ... .. . ... : ... .. . ... ... : ... .. . ... ... : ... .. . ... ... : ... .. . ... ...
ROW 49 : ... .. . ... ... ... : ... .. . ... ... ... : ... .. . ... : ... .. . ... : ... .. . ... ... : ... .. . ... ... : ... .. . ... ... : ... .. . ... ...
ROW 4A : ... .. . ... ... ... : ... .. . ... ... ... : ... .. . ... : ... .. . ... : ... .. . ... ... : ... .. . ... ... : ... .. . ... ... : ... .. 3 ... ...
ROW 4B : ... .. . ... ... ... : ... .. . ... ... ... : ... .. . ... : ... .. . ... : ... .. . ... ... : ... .. . ... ... : ... .. . ... ... : ... .. 2 ... ...
ROW 4C : ... .. . ... ... ... : ... .. . ... ... ... : ... .. . ... : ... .. . ... : ... .. . ... ... : ... .. . ... ... : ... .. . ... ... : ... .. . ... ...
ROW 4D : ... .. . ... ... ... : ... .. . ... ... ... : ... .. . ... : ... .. . ... : ... .. . ... ... : ... .. . ... ... : ... .. . ... ... : ... .. 1 ... ...
ROW 4E : ... .. . ... ... ... : ... .. . ... ... ... : ... .. . ... : ... .. . ... : ... .. . ... ... : ... .. . ... ... : ... .. . ... ... : ... .. . ... ...
ROW 4F : ... .. . ... ... ... : ... .. . ... ... ... : ... .. . ... : ... .. . ... : ... .. . ... ... : ... .. . ... ... : ... .. . ... ... : ... .. . ... ...
ROW 50 : ... .. . ... ... ... : ... .. . ... ... ... : ... .. . ... : ... .. . ... : ... .. . ... ... : ... .. . ... ... : ... .. . ... ... : ... .. . ... ...
ROW 51 : ... .. . ... ... ... : ... .. . ... ... ... : ... .. . ... : ... .. . ... : ... .. . ... ... : ... .. . ... ... : ... .. . ... ... : ... .. . ... ...
ROW 52 : ... .. . ... ... ... : ... .. . ... ... ... : ... .. . ... : ... .. . ... : ... .. . ... ... : ... .. . ... ... : ... .. . ... ... : ... .. . ... ...
ROW 53 : ... .. . ... ... ... : ... .. . ... ... ... : ... .. . ... : ... .. . ... : ... .. . ... ... : ... .. . ... ... : ... .. . ... ... : ... .. . ... ...
ROW 54 : C#4 00 8 P80 V02 ... : ... .. . ... ... ... : ... .. . ... : ... .. . ... : ... .. . ... ... : ... .. 4 ... ... : ... .. 4 ... ... : F#2 01 8 ... ...
ROW 55 : ... .. 7 ... ... ... : ... .. . ... ... ... : ... .. . ... : ... .. . ... : ... .. . ... ... : ... .. . ... ... : ... .. . ... ... : ... .. 7 ... ...
ROW 56 : ... .. 6 ... ... ... : ... .. . ... ... ... : ... .. . ... : ... .. . ... : ... .. . ... ... : ... .. . ... ... : ... .. . ... ... : ... .. 6 ... ...
ROW 57 : ... .. 5 ... ... ... : ... .. . ... ... ... : ... .. . ... : ... .. . ... : ... .. . ... ... : ... .. . ... ... : ... .. . ... ... : ... .. 4 ... ...
ROW 58 : ... .. . ... ... ... : ... .. . ... ... ... : ... .. . ... : ... .. . ... : ... .. . ... ... : ... .. . ... ... : ... .. . ... ... : ... .. 3 ... ...
ROW 59 : ... .. . ... ... ... : ... .. . ... ... ... : ... .. . ... : ... .. . ... : ... .. . ... ... : ... .. 1 ... ... : ... .. 1 ... ... : ... .. 2 ... ...
ROW 5A : ... .. . ... ... ... : ... .. . ... ... ... : ... .. . ... : ... .. . ... : ... .. . ... ... : ... .. . ... ... : ... .. . ... ... : ... .. . ... ...
ROW 5B : ... .. . ... ... ... : ... .. . ... ... ... : ... .. . ... : ... .. . ... : ... .. . ... ... : ... .. . ... ... : ... .. . ... ... : ... .. 1 ... ...
ROW 5C : ... .. . ... ... ... : ... .. . ... ... ... : ... .. . ... : ... .. . ... : ... .. . ... ... : ... .. . ... ... : ... .. . ... ... : ... .. . ... ...
ROW 5D : ... .. . ... ... ... : ... .. . ... ... ... : ... .. . ... : ... .. . ... : ... .. . ... ... : ... .. . ... ... : ... .. . ... ... : ... .. . ... ...
ROW 5E : ... .. . ... ... ... : C#4 00 1 P81 V02 ... : ... .. . ... : ... .. . ... : ... .. . ... ... : ... .. 4 ... ... : ... .. 4 ... ... : ... .. 3 ... ...
ROW 5F : ... .. 1 ... ... ... : ... .. . ... ... ... : ... .. . ... : ... .. . ... : ... .. . ... ... : ... .. . ... ... : ... .. . ... ... : ... .. 2 ... ...
ROW 60 : ... .. . ... ... ... : ... .. . ... ... ... : ... .. . ... : ... .. . ... : ... .. . ... ... : ... .. . ... ... : ... .. . ... ... : ... .. . ... ...
ROW 61 : ... .. . ... ... ... : ... .. . ... ... ... : ... .. . ... : ... .. . ... : ... .. . ... ... : ... .. . ... ... : ... .. . ... ... : ... .. 1 ... ...
ROW 62 : ... .. . ... ... ... : ... .. . ... ... ... : ... .. . ... : ... .. . ... : ... .. . ... ... : ... .. . ... ... : ... .. . ... ... : ... .. . ... ...
ROW 63 : ... .. . ... ... ... : ... .. . ... ... ... : ... .. . ... : ... .. . ... : ... .. . ... ... : ... .. 1 ... ... : ... .. 1 ... ... : ... .. . ... ...
ROW 64 : ... .. . ... ... ... : ... .. . ... ... ... : ... .. . ... : ... .. . ... : ... .. . ... ... : ... .. . ... ... : ... .. . ... ... : ... .. . ... ...
ROW 65 : ... .. 0 ... V00 ... : ... .. . ... ... ... : ... .. . ... : ... .. . ... : ... .. . ... ... : ... .. . ... ... : ... .. . ... ... : ... .. . ... ...
ROW 66 : ... .. . ... ... ... : ... .. . ... ... ... : ... .. . ... : ... .. . ... : ... .. . ... ... : ... .. . ... ... : ... .. . ... ... : ... .. . ... ...
ROW 67 : ... .. . ... ... ... : ... .. . ... ... ... : ... .. . ... : ... .. . ... : ... .. . ... ... : ... .. . ... ... : ... .. . ... ... : ... .. . ... ...
ROW 68 : C#4 00 A P80 V02 ... : ... .. . ... ... ... : ... .. . ... : ... .. . ... : ... .. . ... ... : ... .. . ... ... : ... .. . ... ... : A#2 01 6 ... ...
ROW 69 : ... .. 9 ... ... ... : ... .. . ... ... ... : ... .. . ... : ... .. . ... : ... .. . ... ... : ... .. . ... ... : ... .. . ... ... : ... .. 5 ... ...
ROW 6A : ... .. 8 ... ... ... : ... .. . ... ... ... : ... .. . ... : ... .. . ... : ... .. . ... ... : ... .. . ... ... : ... .. . ... ... : ... .. 4 ... ...
ROW 6B : ... .. 6 ... ... ... : ... .. . ... ... ... : ... .. . ... : ... .. . ... : ... .. . ... ... : ... .. . ... ... : ... .. . ... ... : ... .. 3 ... ...
ROW 6C : ... .. . ... ... ... : ... .. . ... ... ... : ... .. . ... : ... .. . ... : ... .. . ... ... : ... .. . ... ... : ... .. . ... ... : ... .. 2 ... ...
ROW 6D : ... .. . ... ... ... : ... .. . ... ... ... : ... .. . ... : ... .. . ... : ... .. . ... ... : ... .. . ... ... : ... .. . ... ... : ... .. 1 ... ...
ROW 6E : ... .. . ... ... ... : ... .. . ... ... ... : ... .. . ... : ... .. . ... : ... .. . ... ... : ... .. . ... ... : ... .. . ... ... : ... .. . ... ...
ROW 6F : ... .. . ... ... ... : ... .. 0 ... V00 ... : ... .. . ... : ... .. . ... : ... .. . ... ... : ... .. . ... ... : ... .. . ... ... : ... .. . ... ...
ROW 70 : ... .. . ... ... ... : ... .. . ... ... ... : ... .. . ... : ... .. . ... : ... .. . ... ... : ... .. . ... ... : ... .. . ... ... : ... .. . ... ...
ROW 71 : ... .. . ... ... ... : ... .. . ... ... ... : ... .. . ... : ... .. . ... : ... .. . ... ... : ... .. . ... ... : ... .. . ... ... : ... .. . ... ...
ROW 72 : ... .. . ... ... ... : C#4 00 3 P81 V02 ... : ... .. . ... : ... .. . ... : ... .. . ... ... : ... .. . ... ... : ... .. . ... ... : ... .. 3 ... ...
ROW 73 : ... .. 1 ... ... ... : ... .. 2 ... ... ... : ... .. . ... : ... .. . ... : ... .. . ... ... : ... .. . ... ... : ... .. . ... ... : ... .. 2 ... ...
ROW 74 : ... .. . ... ... ... : ... .. . ... ... ... : ... .. . ... : ... .. . ... : ... .. . ... ... : ... .. . ... ... : ... .. . ... ... : ... .. . ... ...
ROW 75 : ... .. . ... ... ... : ... .. . ... ... ... : ... .. . ... : ... .. . ... : ... .. . ... ... : ... .. . ... ... : ... .. . ... ... : ... .. 1 ... ...
ROW 76 : ... .. . ... ... ... : ... .. . ... ... ... : ... .. . ... : ... .. . ... : ... .. . ... ... : ... .. . ... ... : ... .. . ... ... : ... .. . ... ...
ROW 77 : ... .. . ... ... ... : ... .. . ... ... ... : ... .. . ... : ... .. . ... : ... .. . ... ... : ... .. . ... ... : ... .. . ... ... : ... .. . ... ...
ROW 78 : ... .. . ... ... ... : ... .. . ... ... ... : ... .. . ... : ... .. . ... : ... .. . ... ... : ... .. . ... ... : ... .. . ... ... : ... .. . ... ...
ROW 79 : ... .. 0 ... V00 ... : ... .. . ... ... ... : ... .. . ... : ... .. . ... : ... .. . ... ... : ... .. . ... ... : ... .. . ... ... : ... .. . ... ...
ROW 7A : ... .. . ... ... ... : ... .. . ... ... ... : ... .. . ... : ... .. . ... : ... .. . ... ... : ... .. . ... ... : ... .. . ... ... : ... .. . ... ...
ROW 7B : ... .. . ... ... ... : ... .. . ... ... ... : ... .. . ... : ... .. . ... : ... .. . ... ... : ... .. . ... ... : ... .. . ... ... : ... .. . ... ...
ROW 7C : B-3 00 C P80 V02 ... : ... .. . ... ... ... : ... .. . ... : ... .. . ... : ... .. . ... ... : ... .. 4 ... ... : ... .. 4 ... ... : C#3 01 8 ... ...
ROW 7D : ... .. B ... ... ... : ... .. 1 ... ... ... : ... .. . ... : ... .. . ... : ... .. . ... ... : ... .. . ... ... : ... .. . ... ... : ... .. 7 ... ...
ROW 7E : ... .. A ... ... ... : ... .. . ... ... ... : ... .. . ... : ... .. . ... : ... .. . ... ... : ... .. . ... ... : ... .. . ... ... : ... .. 6 ... ...
ROW 7F : ... .. 8 ... ... ... : ... .. . ... ... ... : ... .. . ... : ... .. . ... : ... .. . ... ... : ... .. . ... ... : ... .. . ... ... : ... .. 4 ... ...
ROW 80 : ... .. . ... ... ... : ... .. . ... ... ... : ... .. . ... : ... .. . ... : ... .. . ... ... : ... .. . ... ... : ... .. . ... ... : ... .. 3 ... ...
ROW 81 : ... .. . ... ... ... : ... .. . ... ... ... : ... .. . ... : ... .. . ... : ... .. . ... ... : ... .. 1 ... ... : ... .. 1 ... ... : ... .. 2 ... ...
ROW 82 : ... .. . ... ... ... : ... .. . ... ... ... : ... .. . ... : ... .. . ... : ... .. . ... ... : ... .. . ... ... : ... .. . ... ... : ... .. . ... ...
ROW 83 : ... .. . ... ... ... : ... .. 0 ... V00 ... : ... .. . ... : ... .. . ... : ... .. . ... ... : ... .. . ... ... : ... .. . ... ... : ... .. 1 ... ...
ROW 84 : ... .. . ... ... ... : ... .. . ... ... ... : ... .. . ... : ... .. . ... : ... .. . ... ... : ... .. . ... ... : ... .. . ... ... : ... .. . ... ...
ROW 85 : ... .. . ... ... ... : ... .. . ... ... ... : ... .. . ... : ... .. . ... : ... .. . ... ... : ... .. . ... ... : ... .. . ... ... : ... .. . ... ...
ROW 86 : ... .. . ... ... ... : B-3 00 5 P81 V02 ... : ... .. . ... : ... .. . ... : ... .. . ... ... : ... .. 4 ... ... : ... .. 4 ... ... : ... .. 3 ... ...
ROW 87 : ... .. 1 ... ... ... : ... .. 4 ... ... ... : ... .. . ... : ... .. . ... : ... .. . ... ... : ... .. . ... ... : ... .. . ... ... : ... .. 2 ... ...
ROW 88 : ... .. . ... ... ... : ... .. . ... ... ... : ... .. . ... : ... .. . ... : ... .. . ... ... : ... .. . ... ... : ... .. . ... ... : ... .. . ... ...
ROW 89 : ... .. . ... ... ... : ... .. 3 ... ... ... : ... .. . ... : ... .. . ... : ... .. . ... ... : ... .. . ... ... : ... .. . ... ... : ... .. 1 ... ...
ROW 8A : ... .. . ... ... ... : ... .. . ... ... ... : ... .. . ... : ... .. . ... : ... .. . ... ... : ... .. . ... ... : ... .. . ... ... : ... .. . ... ...
ROW 8B : ... .. . ... ... ... : ... .. . ... ... ... : ... .. . ... : ... .. . ... : ... .. . ... ... : ... .. 1 ... ... : ... .. 1 ... ... : ... .. . ... ...
ROW 8C : ... .. . ... ... ... : ... .. . ... ... ... : ... .. . ... : ... .. . ... : ... .. . ... ... : ... .. . ... ... : ... .. . ... ... : ... .. . ... ...
ROW 8D : ... .. 0 ... V00 ... : ... .. . ... ... ... : ... .. . ... : ... .. . ... : ... .. . ... ... : ... .. . ... ... : ... .. . ... ... : ... .. . ... ...
ROW 8E : ... .. . ... ... ... : ... .. . ... ... ... : ... .. . ... : ... .. . ... : ... .. . ... ... : ... .. . ... ... : ... .. . ... ... : ... .. . ... ...
ROW 8F : ... .. . ... ... ... : ... .. . ... ... ... : ... .. . ... : ... .. . ... : ... .. . ... ... : ... .. . ... ... : ... .. . ... ... : ... .. . ... ...
ROW 90 : A-3 00 F P80 V02 ... : ... .. . ... ... ... : F#1 00 . ... : ... .. . ... : ... .. . ... ... : D-3 01 1 ... ... : ... .. . ... ... : D-3 01 6 ... ...
ROW 91 : ... .. E ... ... ... : ... .. 1 ... ... ... : ... .. . ... : ... .. . ... : ... .. . ... ... : ... .. . ... ... : ... .. . ... ... : ... .. 5 ... ...
ROW 92 : ... .. D ... ... ... : ... .. . ... ... ... : ... .. . ... : ... .. . ... : ... .. . ... ... : ... .. . ... ... : ... .. . ... ... : ... .. 4 ... ...
ROW 93 : ... .. A ... ... ... : ... .. . ... ... ... : ... .. . ... : ... .. . ... : ... .. . ... ... : ... .. . ... ... : ... .. . ... ... : ... .. 3 ... ...
ROW 94 : ... .. . ... ... ... : ... .. . ... ... ... : ... .. . ... : ... .. . ... : ... .. . ... ... : ... .. . ... ... : ... .. . ... ... : ... .. 2 ... ...
ROW 95 : ... .. . ... ... ... : ... .. . ... ... ... : ... .. . ... : ... .. . ... : ... .. . ... ... : ... .. . ... ... : ... .. . ... ... : ... .. 1 ... ...
ROW 96 : ... .. . ... ... ... : ... .. . ... ... ... : ... .. . ... : ... .. . ... : ... .. . ... ... : ... .. . ... ... : ... .. . ... ... : ... .. . ... ...
ROW 97 : ... .. . ... ... ... : ... .. 0 ... V00 ... : ... .. . ... : ... .. . ... : ... .. . ... ... : ... .. . ... ... : ... .. . ... ... : ... .. . ... ...
ROW 98 : ... .. . ... ... ... : ... .. . ... ... ... : ... .. . ... : ... .. . ... : ... .. . ... ... : ... .. . ... ... : ... .. . ... ... : ... .. . ... ...
ROW 99 : ... .. . ... ... ... : ... .. . ... ... ... : ... .. . ... : ... .. . ... : ... .. . ... ... : ... .. . ... ... : ... .. . ... ... : ... .. . ... ...
ROW 9A : ... .. . ... ... ... : A-3 00 8 P81 V02 ... : ... .. . ... : ... .. . ... : ... .. . ... ... : ... .. . ... ... : ... .. . ... ... : ... .. 3 ... ...
ROW 9B : ... .. . ... ... ... : ... .. 7 ... ... ... : ... .. . ... : ... .. . ... : ... .. . ... ... : ... .. . ... ... : ... .. . ... ... : ... .. 2 ... ...
ROW 9C : ... .. . ... ... ... : ... .. 6 ... ... ... : ... .. . ... : ... .. . ... : ... .. . ... ... : ... .. . ... ... : ... .. . ... ... : ... .. . ... ...
ROW 9D : ... .. . ... ... ... : ... .. 5 ... ... ... : ... .. . ... : ... .. . ... : ... .. . ... ... : ... .. . ... ... : ... .. . ... ... : ... .. 1 ... ...
ROW 9E : ... .. . ... ... ... : ... .. . ... ... ... : ... .. . ... : ... .. . ... : ... .. . ... ... : ... .. . ... ... : ... .. . ... ... : ... .. . ... ...
ROW 9F : ... .. 5 ... ... ... : ... .. . ... ... ... : ... .. . ... : ... .. . ... : ... .. . ... ... : ... .. . ... ... : ... .. . ... ... : ... .. . ... ...
ROW A0 : ... .. . ... ... ... : ... .. . ... ... ... : ... .. . ... : ... .. . ... : ... .. . ... ... : ... .. . ... ... : ... .. . ... ... : ... .. . ... ...
ROW A1 : ... .. . ... ... ... : ... .. . ... ... ... : ... .. . ... : ... .. . ... : ... .. . ... ... : ... .. . ... ... : ... .. . ... ... : ... .. . ... ...
ROW A2 : ... .. . ... ... ... : ... .. . ... ... ... : ... .. . ... : ... .. . ... : ... .. . ... ... : ... .. . ... ... : ... .. . ... ... : ... .. . ... ...
ROW A3 : ... .. . ... ... ... : ... .. . ... ... ... : ... .. . ... : ... .. . ... : ... .. . ... ... : ... .. . ... ... : ... .. . ... ... : ... .. . ... ...
ROW A4 : ... .. . ... ... ... : ... .. . ... ... ... : ... .. . ... : ... .. . ... : ... .. . ... ... : ... .. 4 ... ... : ... .. 4 ... ... : A-2 01 8 ... ...
ROW A5 : ... .. . ... ... ... : ... .. . ... ... ... : ... .. . ... : ... .. . ... : ... .. . ... ... : ... .. . ... ... : ... .. . ... ... : ... .. 7 ... ...
ROW A6 : ... .. . ... ... ... : ... .. . ... ... ... : ... .. . ... : ... .. . ... : ... .. . ... ... : ... .. . ... ... : ... .. . ... ... : ... .. 6 ... ...
ROW A7 : ... .. . ... ... ... : ... .. . ... ... ... : ... .. . ... : ... .. . ... : ... .. . ... ... : ... .. . ... ... : ... .. . ... ... : ... .. 4 ... ...
ROW A8 : ... .. . ... ... ... : ... .. . ... ... ... : ... .. . ... : ... .. . ... : ... .. . ... ... : ... .. . ... ... : ... .. . ... ... : ... .. 3 ... ...
ROW A9 : ... .. . ... ... ... : ... .. . ... ... ... : ... .. . ... : ... .. . ... : ... .. . ... ... : ... .. 1 ... ... : ... .. 1 ... ... : ... .. 2 ... ...
ROW AA : ... .. 1 ... ... ... : ... .. . ... ... ... : ... .. . ... : ... .. . ... : ... .. . ... ... : ... .. . ... ... : ... .. . ... ... : ... .. . ... ...
ROW AB : ... .. . ... ... ... : ... .. . ... ... ... : ... .. . ... : ... .. . ... : ... .. . ... ... : ... .. . ... ... : ... .. . ... ... : ... .. 1 ... ...
ROW AC : ... .. . ... ... ... : ... .. . ... ... ... : ... .. . ... : ... .. . ... : ... .. . ... ... : ... .. . ... ... : ... .. . ... ... : ... .. . ... ...
ROW AD : ... .. . ... ... ... : ... .. . ... ... ... : ... .. . ... : ... .. . ... : ... .. . ... ... : ... .. . ... ... : ... .. . ... ... : ... .. . ... ...
ROW AE : G#3 00 A ... ... ... : ... .. . ... ... ... : ... .. . ... : ... .. . ... : ... .. . ... ... : ... .. 4 ... ... : ... .. 4 ... ... : ... .. 3 ... ...
ROW AF : ... .. 9 ... ... ... : ... .. . ... ... ... : ... .. . ... : ... .. . ... : ... .. . ... ... : ... .. . ... ... : ... .. . ... ... : ... .. 2 ... ...
ROW B0 : ... .. 8 ... ... ... : ... .. . ... ... ... : ... .. . ... : ... .. . ... : ... .. . ... ... : ... .. . ... ... : ... .. . ... ... : ... .. . ... ...
ROW B1 : ... .. 6 ... ... ... : ... .. . ... ... ... : ... .. . ... : ... .. . ... : ... .. . ... ... : ... .. . ... ... : ... .. . ... ... : ... .. 1 ... ...
ROW B2 : ... .. . ... ... ... : ... .. . ... ... ... : ... .. . ... : ... .. . ... : ... .. . ... ... : ... .. . ... ... : ... .. . ... ... : ... .. . ... ...
ROW B3 : ... .. . ... ... ... : ... .. . ... ... ... : ... .. . ... : ... .. . ... : ... .. . ... ... : ... .. 1 ... ... : ... .. 1 ... ... : ... .. . ... ...
ROW B4 : ... .. 1 ... ... ... : ... .. 1 ... ... ... : ... .. . ... : ... .. . ... : ... .. . ... ... : ... .. . ... ... : ... .. . ... ... : ... .. . ... ...
ROW B5 : ... .. . ... ... ... : ... .. . ... ... ... : ... .. . ... : ... .. . ... : ... .. . ... ... : ... .. . ... ... : ... .. . ... ... : ... .. . ... ...
ROW B6 : ... .. . ... ... ... : ... .. . ... ... ... : ... .. . ... : ... .. . ... : ... .. . ... ... : ... .. . ... ... : ... .. . ... ... : ... .. . ... ...
ROW B7 : ... .. . ... ... ... : ... .. . ... ... ... : ... .. . ... : ... .. . ... : ... .. . ... ... : ... .. . ... ... : ... .. . ... ... : ... .. . ... ...
ROW B8 : A-3 00 A ... ... ... : G#3 00 3 ... ... ... : F#2 00 . ... : ... .. . ... : ... .. . ... ... : ... .. . ... ... : ... .. . ... ... : D-3 01 6 ... ...
ROW B9 : ... .. 9 ... ... ... : ... .. 2 ... ... ... : ... .. . ... : ... .. . ... : ... .. . ... ... : ... .. . ... ... : ... .. . ... ... : ... .. 5 ... ...
ROW BA : ... .. 8 ... ... ... : ... .. . ... ... ... : ... .. . ... : ... .. . ... : ... .. . ... ... : ... .. . ... ... : ... .. . ... ... : ... .. 4 ... ...
ROW BB : ... .. 6 ... ... ... : ... .. . ... ... ... : ... .. . ... : ... .. . ... : ... .. . ... ... : ... .. . ... ... : ... .. . ... ... : ... .. 3 ... ...
ROW BC : ... .. . ... ... ... : ... .. . ... ... ... : ... .. . ... : ... .. . ... : ... .. . ... ... : ... .. . ... ... : ... .. . ... ... : ... .. 2 ... ...
ROW BD : ... .. . ... ... ... : ... .. . ... ... ... : ... .. . ... : ... .. . ... : ... .. . ... ... : ... .. . ... ... : ... .. . ... ... : ... .. 1 ... ...
ROW BE : ... .. . ... ... ... : ... .. 1 ... ... ... : ... .. . ... : ... .. . ... : ... .. . ... ... : ... .. . ... ... : ... .. . ... ... : ... .. . ... ...
ROW BF : ... .. . ... ... ... : ... .. . ... ... ... : ... .. . ... : ... .. . ... : ... .. . ... ... : ... .. . ... ... : ... .. . ... ... : ... .. . ... ...
ROW C0 : ... .. . ... ... ... : ... .. . ... ... ... : ... .. . ... : ... .. . ... : ... .. . ... ... : ... .. . ... ... : ... .. . ... ... : ... .. . ... ...
ROW C1 : ... .. . ... ... ... : ... .. . ... ... ... : ... .. . ... : ... .. . ... : ... .. . ... ... : ... .. . ... ... : ... .. . ... ... : ... .. . ... ...
ROW C2 : ... .. . ... ... ... : A-3 00 3 ... ... ... : ... .. . ... : ... .. . ... : ... .. . ... ... : ... .. . ... ... : ... .. . ... ... : ... .. 3 ... ...
ROW C3 : ... .. . ... ... ... : ... .. 2 ... ... ... : ... .. . ... : ... .. . ... : ... .. . ... ... : ... .. . ... ... : ... .. . ... ... : ... .. 2 ... ...
ROW C4 : ... .. . ... ... ... : ... .. . ... ... ... : ... .. . ... : ... .. . ... : ... .. . ... ... : ... .. . ... ... : ... .. . ... ... : ... .. . ... ...
ROW C5 : ... .. . ... ... ... : ... .. . ... ... ... : ... .. . ... : ... .. . ... : ... .. . ... ... : ... .. . ... ... : ... .. . ... ... : ... .. 1 ... ...
ROW C6 : ... .. . ... ... ... : ... .. . ... ... ... : ... .. . ... : ... .. . ... : ... .. . ... ... : ... .. . ... ... : ... .. . ... ... : ... .. . ... ...
ROW C7 : ... .. . ... ... ... : ... .. . ... ... ... : ... .. . ... : ... .. . ... : ... .. . ... ... : ... .. . ... ... : ... .. . ... ... : ... .. . ... ...
ROW C8 : ... .. . ... ... ... : ... .. . ... ... ... : ... .. . ... : ... .. . ... : ... .. . ... ... : ... .. . ... ... : ... .. . ... ... : ... .. . ... ...
ROW C9 : ... .. . ... ... ... : ... .. . ... ... ... : ... .. . ... : ... .. . ... : ... .. . ... ... : ... .. . ... ... : ... .. . ... ... : ... .. . ... ...
ROW CA : ... .. . ... ... ... : ... .. . ... ... ... : ... .. . ... : ... .. . ... : ... .. . ... ... : ... .. . ... ... : ... .. . ... ... : ... .. . ... ...
ROW CB : ... .. . ... ... ... : ... .. . ... ... ... : ... .. . ... : ... .. . ... : ... .. . ... ... : ... .. . ... ... : ... .. . ... ... : ... .. . ... ...
ROW CC : C#4 00 F ... ... ... : ... .. . ... ... ... : ... .. . ... : ... .. . ... : ... .. . ... ... : ... .. 4 ... ... : ... .. 4 ... ... : C#3 01 8 ... ...
ROW CD : ... .. E ... ... ... : ... .. . ... ... ... : ... .. . ... : ... .. . ... : ... .. . ... ... : ... .. . ... ... : ... .. . ... ... : ... .. 7 ... ...
ROW CE : ... .. D ... ... ... : ... .. . ... ... ... : ... .. . ... : ... .. . ... : ... .. . ... ... : ... .. . ... ... : ... .. . ... ... : ... .. 6 ... ...
ROW CF : ... .. A ... ... ... : ... .. . ... ... ... : ... .. . ... : ... .. . ... : ... .. . ... ... : ... .. . ... ... : ... .. . ... ... : ... .. 4 ... ...
ROW D0 : ... .. . ... ... ... : ... .. . ... ... ... : ... .. . ... : ... .. . ... : ... .. . ... ... : ... .. . ... ... : ... .. . ... ... : ... .. 3 ... ...
ROW D1 : ... .. . ... ... ... : ... .. . ... ... ... : ... .. . ... : ... .. . ... : ... .. . ... ... : ... .. 1 ... ... : ... .. 1 ... ... : ... .. 2 ... ...
ROW D2 : ... .. . ... ... ... : ... .. . ... ... ... : ... .. . ... : ... .. . ... : ... .. . ... ... : ... .. . ... ... : ... .. . ... ... : ... .. . ... ...
ROW D3 : ... .. . ... ... ... : ... .. . ... ... ... : ... .. . ... : ... .. . ... : ... .. . ... ... : ... .. . ... ... : ... .. . ... ... : ... .. 1 ... ...
ROW D4 : ... .. . ... ... ... : ... .. . ... ... ... : ... .. . ... : ... .. . ... : ... .. . ... ... : ... .. . ... ... : ... .. . ... ... : ... .. . ... ...
ROW D5 : ... .. . ... ... ... : ... .. . ... ... ... : ... .. . ... : ... .. . ... : ... .. . ... ... : ... .. . ... ... : ... .. . ... ... : ... .. . ... ...
ROW D6 : ... .. . ... ... ... : C#4 00 8 ... ... ... : ... .. . ... : ... .. . ... : ... .. . ... ... : ... .. 4 ... ... : ... .. 4 ... ... : ... .. 3 ... ...
ROW D7 : ... .. 2 ... ... ... : ... .. 7 ... ... ... : ... .. . ... : ... .. . ... : ... .. . ... ... : ... .. . ... ... : ... .. . ... ... : ... .. 2 ... ...
ROW D8 : ... .. . ... ... ... : ... .. 6 ... ... ... : ... .. . ... : ... .. . ... : ... .. . ... ... : ... .. . ... ... : ... .. . ... ... : ... .. . ... ...
ROW D9 : ... .. . ... ... ... : ... .. 5 ... ... ... : ... .. . ... : ... .. . ... : ... .. . ... ... : ... .. . ... ... : ... .. . ... ... : ... .. 1 ... ...
ROW DA : ... .. 1 ... ... ... : ... .. . ... ... ... : ... .. . ... : ... .. . ... : ... .. . ... ... : ... .. . ... ... : ... .. . ... ... : ... .. . ... ...
ROW DB : ... .. . ... ... ... : ... .. . ... ... ... : ... .. . ... : ... .. . ... : ... .. . ... ... : ... .. 1 ... ... : ... .. 1 ... ... : ... .. . ... ...
ROW DC : ... .. . ... ... ... : ... .. . ... ... ... : ... .. . ... : ... .. . ... : ... .. . ... ... : ... .. . ... ... : ... .. . ... ... : ... .. . ... ...
ROW DD : ... .. 0 ... V00 ... : ... .. . ... ... ... : ... .. . ... : ... .. . ... : ... .. . ... ... : ... .. . ... ... : ... .. . ... ... : ... .. . ... ...
ROW DE : ... .. . ... ... ... : ... .. . ... ... ... : ... .. . ... : ... .. . ... : ... .. . ... ... : ... .. . ... ... : ... .. . ... ... : ... .. . ... ...
ROW DF : ... .. . ... ... ... : ... .. . ... ... ... : ... .. . ... : ... .. . ... : ... .. . ... ... : ... .. . ... ... : ... .. . ... ... : ... .. . ... ...
ROW E0 : B-3 00 8 P80 V02 ... : ... .. . ... ... ... : G-2 00 . ... : ... .. . ... : ... .. . ... ... : ... .. . ... ... : G-3 01 1 ... ... : B-2 01 6 ... ...
ROW E1 : ... .. 7 ... ... ... : ... .. 1 ... ... ... : ... .. . ... : ... .. . ... : ... .. . ... ... : ... .. . ... ... : ... .. . ... ... : ... .. 5 ... ...
ROW E2 : ... .. 6 ... ... ... : ... .. . ... ... ... : ... .. . ... : ... .. . ... : ... .. . ... ... : ... .. . ... ... : ... .. . ... ... : ... .. 4 ... ...
ROW E3 : ... .. 5 ... ... ... : ... .. . ... ... ... : ... .. . ... : ... .. . ... : ... .. . ... ... : ... .. . ... ... : ... .. . ... ... : ... .. 3 ... ...
ROW E4 : ... .. . ... ... ... : ... .. . ... ... ... : ... .. . ... : ... .. . ... : ... .. . ... ... : ... .. . ... ... : ... .. . ... ... : ... .. 2 ... ...
ROW E5 : ... .. . ... ... ... : ... .. . ... ... ... : ... .. . ... : ... .. . ... : ... .. . ... ... : ... .. . ... ... : ... .. . ... ... : ... .. 1 ... ...
ROW E6 : ... .. . ... ... ... : ... .. . ... ... ... : ... .. . ... : ... .. . ... : ... .. . ... ... : ... .. . ... ... : ... .. . ... ... : ... .. . ... ...
ROW E7 : ... .. . ... ... ... : ... .. 0 ... V00 ... : ... .. . ... : ... .. . ... : ... .. . ... ... : ... .. . ... ... : ... .. . ... ... : ... .. . ... ...
ROW E8 : ... .. . ... ... ... : ... .. . ... ... ... : ... .. . ... : ... .. . ... : ... .. . ... ... : ... .. . ... ... : ... .. . ... ... : ... .. . ... ...
ROW E9 : ... .. . ... ... ... : ... .. . ... ... ... : ... .. . ... : ... .. . ... : ... .. . ... ... : ... .. . ... ... : ... .. . ... ... : ... .. . ... ...
ROW EA : ... .. . ... ... ... : B-3 00 1 P81 V02 ... : ... .. . ... : ... .. . ... : ... .. . ... ... : ... .. . ... ... : ... .. . ... ... : ... .. 3 ... ...
ROW EB : ... .. . ... ... ... : ... .. . ... ... ... : ... .. . ... : ... .. . ... : ... .. . ... ... : ... .. . ... ... : ... .. . ... ... : ... .. 2 ... ...
ROW EC : ... .. . ... ... ... : ... .. . ... ... ... : ... .. . ... : ... .. . ... : ... .. . ... ... : ... .. . ... ... : ... .. . ... ... : ... .. . ... ...
ROW ED : ... .. . ... ... ... : ... .. . ... ... ... : ... .. . ... : ... .. . ... : ... .. . ... ... : ... .. . ... ... : ... .. . ... ... : ... .. 1 ... ...
ROW EE : ... .. . ... ... ... : ... .. . ... ... ... : ... .. . ... : ... .. . ... : ... .. . ... ... : ... .. . ... ... : ... .. . ... ... : ... .. . ... ...
ROW EF : ... .. 6 ... ... ... : ... .. . ... ... ... : ... .. . ... : ... .. . ... : ... .. . ... ... : ... .. . ... ... : ... .. . ... ... : ... .. . ... ...
ROW F0 : ... .. . ... ... ... : ... .. . ... ... ... : ... .. . ... : ... .. . ... : ... .. . ... ... : ... .. . ... ... : ... .. . ... ... : ... .. . ... ...
ROW F1 : ... .. . ... ... ... : ... .. . ... ... ... : ... .. . ... : ... .. . ... : ... .. . ... ... : ... .. . ... ... : ... .. . ... ... : ... .. . ... ...
ROW F2 : ... .. . ... ... ... : ... .. . ... ... ... : ... .. . ... : ... .. . ... : ... .. . ... ... : ... .. . ... ... : ... .. . ... ... : ... .. . ... ...
ROW F3 : ... .. . ... ... ... : ... .. . ... ... ... : ... .. . ... : ... .. . ... : ... .. . ... ... : ... .. . ... ... : ... .. . ... ... : ... .. . ... ...
ROW F4 : ... .. . ... ... ... : ... .. . ... ... ... : ... .. . ... : ... .. . ... : ... .. . ... ... : ... .. 4 ... ... : ... .. 4 ... ... : G-2 01 8 ... ...
ROW F5 : ... .. . ... ... ... : ... .. . ... ... ... : ... .. . ... : ... .. . ... : ... .. . ... ... : ... .. . ... ... : ... .. . ... ... : ... .. 7 ... ...
ROW F6 : ... .. . ... ... ... : ... .. . ... ... ... : ... .. . ... : ... .. . ... : ... .. . ... ... : ... .. . ... ... : ... .. . ... ... : ... .. 6 ... ...
ROW F7 : ... .. . ... ... ... : ... .. . ... ... ... : ... .. . ... : ... .. . ... : ... .. . ... ... : ... .. . ... ... : ... .. . ... ... : ... .. 4 ... ...
ROW F8 : ... .. . ... ... ... : ... .. . ... ... ... : ... .. . ... : ... .. . ... : ... .. . ... ... : ... .. . ... ... : ... .. . ... ... : ... .. 3 ... ...
ROW F9 : ... .. . ... ... ... : ... .. . ... ... ... : ... .. . ... : ... .. . ... : ... .. . ... ... : ... .. 1 ... ... : ... .. 1 ... ... : ... .. 2 ... ...
ROW FA : ... .. . ... ... ... : ... .. . ... ... ... : ... .. . ... : ... .. . ... : ... .. . ... ... : ... .. . ... ... : ... .. . ... ... : ... .. . ... ...
ROW FB : ... .. . ... ... ... : ... .. . ... ... ... : ... .. . ... : ... .. . ... : ... .. . ... ... : ... .. . ... ... : ... .. . ... ... : ... .. 1 ... ...
ROW FC : ... .. . ... ... ... : ... .. . ... ... ... : ... .. . ... : ... .. . ... : ... .. . ... ... : ... .. . ... ... : ... .. . ... ... : ... .. . ... ...
ROW FD : ... .. . ... ... ... : ... .. . ... ... ... : ... .. . ... : ... .. . ... : ... .. . ... ... : ... .. . ... ... : ... .. . ... ... : ... .. . ... ...
ROW FE : ... .. . ... ... ... : ... .. . ... ... ... : ... .. . ... : ... .. . ... : ... .. . ... ... : ... .. 4 ... ... : ... .. 4 ... ... : ... .. 3 ... ...
ROW FF : ... .. . ... ... ... : ... .. . ... ... ... : ... .. . ... : ... .. . ... : ... .. . ... ... : ... .. . ... ... : ... .. . ... ... : ... .. 2 ... ...

PATTERN 11
ROW 00 : ... .. . ... ... ... : ... .. . ... ... ... : ... .. . ... : ... .. . ... : ... .. . ... ... : ... .. . ... ... : ... .. . ... ... : ... .. . ... ...
ROW 01 : ... .. . ... ... ... : ... .. . ... ... ... : ... .. . ... : ... .. . ... : ... .. . ... ... : ... .. . ... ... : ... .. . ... ... : ... .. 1 ... ...
ROW 02 : ... .. . ... ... ... : ... .. . ... ... ... : ... .. . ... : ... .. . ... : ... .. . ... ... : ... .. . ... ... : ... .. . ... ... : ... .. . ... ...
ROW 03 : ... .. . ... ... ... : ... .. . ... ... ... : ... .. . ... : ... .. . ... : ... .. . ... ... : ... .. 1 ... ... : ... .. 1 ... ... : ... .. . ... ...
ROW 04 : ... .. . ... ... ... : ... .. . ... ... ... : ... .. . ... : ... .. . ... : ... .. . ... ... : ... .. . ... ... : ... .. . ... ... : ... .. . ... ...
ROW 05 : ... .. . ... ... ... : ... .. . ... ... ... : ... .. . ... : ... .. . ... : ... .. . ... ... : ... .. . ... ... : ... .. . ... ... : ... .. . ... ...
ROW 06 : ... .. . ... ... ... : ... .. . ... ... ... : ... .. . ... : ... .. . ... : ... .. . ... ... : ... .. . ... ... : ... .. . ... ... : ... .. . ... ...
ROW 07 : ... .. . ... ... ... : ... .. . ... ... ... : ... .. . ... : ... .. . ... : ... .. . ... ... : ... .. . ... ... : ... .. . ... ... : ... .. . ... ...
ROW 08 : ... .. 7 ... ... ... : ... .. 2 ... ... ... : ... .. . ... : ... .. . ... : ... .. . ... ... : ... .. . ... ... : ... .. . ... ... : B-2 01 6 ... ...
ROW 09 : ... .. . ... ... ... : ... .. . ... ... ... : ... .. . ... : ... .. . ... : ... .. . ... ... : ... .. . ... ... : ... .. . ... ... : ... .. 5 ... ...
ROW 0A : ... .. . ... ... ... : ... .. . ... ... ... : ... .. . ... : ... .. . ... : ... .. . ... ... : ... .. . ... ... : ... .. . ... ... : ... .. 4 ... ...
ROW 0B : ... .. . ... ... ... : ... .. . ... ... ... : ... .. . ... : ... .. . ... : ... .. . ... ... : ... .. . ... ... : ... .. . ... ... : ... .. 3 ... ...
ROW 0C : ... .. . ... ... ... : ... .. . ... ... ... : ... .. . ... : ... .. . ... : ... .. . ... ... : ... .. . ... ... : ... .. . ... ... : ... .. 2 ... ...
ROW 0D : ... .. . ... ... ... : ... .. . ... ... ... : ... .. . ... : ... .. . ... : ... .. . ... ... : ... .. . ... ... : ... .. . ... ... : ... .. 1 ... ...
ROW 0E : ... .. . ... ... ... : ... .. . ... ... ... : ... .. . ... : ... .. . ... : ... .. . ... ... : ... .. . ... ... : ... .. . ... ... : ... .. . ... ...
ROW 0F : ... .. . ... ... ... : ... .. . ... ... ... : ... .. . ... : ... .. . ... : ... .. . ... ... : ... .. . ... ... : ... .. . ... ... : ... .. . ... ...
ROW 10 : ... .. . ... ... ... : ... .. . ... ... ... : ... .. . ... : ... .. . ... : ... .. . ... ... : ... .. . ... ... : ... .. . ... ... : ... .. . ... ...
ROW 11 : ... .. . ... ... ... : ... .. . ... ... ... : ... .. . ... : ... .. . ... : ... .. . ... ... : ... .. . ... ... : ... .. . ... ... : ... .. . ... ...
ROW 12 : ... .. . ... ... ... : ... .. . ... ... ... : ... .. . ... : ... .. . ... : ... .. . ... ... : ... .. . ... ... : ... .. . ... ... : ... .. 3 ... ...
ROW 13 : ... .. . ... ... ... : ... .. . ... ... ... : ... .. . ... : ... .. . ... : ... .. . ... ... : ... .. . ... ... : ... .. . ... ... : ... .. 2 ... ...
ROW 14 : ... .. . ... ... ... : ... .. . ... ... ... : ... .. . ... : ... .. . ... : ... .. . ... ... : ... .. . ... ... : ... .. . ... ... : ... .. . ... ...
ROW 15 : ... .. . ... ... ... : ... .. . ... ... ... : ... .. . ... : ... .. . ... : ... .. . ... ... : ... .. . ... ... : ... .. . ... ... : ... .. 1 ... ...
ROW 16 : ... .. . ... ... ... : ... .. . ... ... ... : ... .. . ... : ... .. . ... : ... .. . ... ... : ... .. . ... ... : ... .. . ... ... : ... .. . ... ...
ROW 17 : ... .. 8 P83 ... ... : ... .. . ... ... ... : ... .. . ... : ... .. . ... : ... .. . ... ... : ... .. . ... ... : ... .. . ... ... : ... .. . ... ...
ROW 18 : ... .. . P84 ... ... : ... .. . ... ... ... : ... .. . ... : ... .. . ... : ... .. . ... ... : ... .. . ... ... : ... .. . ... ... : ... .. . ... ...
ROW 19 : ... .. . ... ... ... : ... .. . ... ... ... : ... .. . ... : ... .. . ... : ... .. . ... ... : ... .. . ... ... : ... .. . ... ... : ... .. . ... ...
ROW 1A : ... .. . P81 ... ... : ... .. . ... ... ... : ... .. . ... : ... .. . ... : ... .. . ... ... : ... .. . ... ... : ... .. . ... ... : ... .. . ... ...
ROW 1B : ... .. . P7F ... ... : ... .. . ... ... ... : ... .. . ... : ... .. . ... : ... .. . ... ... : ... .. . ... ... : ... .. . ... ... : ... .. . ... ...
ROW 1C : ... .. . P7C ... ... : ... .. . ... ... ... : ... .. . ... : ... .. . ... : ... .. . ... ... : ... .. 4 ... ... : ... .. 4 ... ... : D-3 01 8 ... ...
ROW 1D : ... .. . ... ... ... : ... .. . ... ... ... : ... .. . ... : ... .. . ... : ... .. . ... ... : ... .. . ... ... : ... .. . ... ... : ... .. 7 ... ...
ROW 1E : ... .. . P7D ... ... : ... .. . ... ... ... : ... .. . ... : ... .. . ... : ... .. . ... ... : ... .. . ... ... : ... .. . ... ... : ... .. 6 ... ...
ROW 1F : ... .. . P80 ... ... : ... .. . ... ... ... : ... .. . ... : ... .. . ... : ... .. . ... ... : ... .. . ... ... : ... .. . ... ... : ... .. 4 ... ...
ROW 20 : ... .. . P82 ... ... : ... .. . ... ... ... : ... .. . ... : ... .. . ... : ... .. . ... ... : ... .. . ... ... : ... .. . ... ... : ... .. 3 ... ...
ROW 21 : ... .. . P84 ... ... : ... .. 3 P84 ... ... : ... .. . ... : ... .. . ... : ... .. . ... ... : ... .. 1 ... ... : ... .. 1 ... ... : ... .. 2 ... ...
ROW 22 : ... .. . ... ... ... : ... .. . P85 ... ... : ... .. . ... : ... .. . ... : ... .. . ... ... : ... .. . ... ... : ... .. . ... ... : ... .. . ... ...
ROW 23 : ... .. . P81 ... ... : ... .. . ... ... ... : ... .. . ... : ... .. . ... : ... .. . ... ... : ... .. . ... ... : ... .. . ... ... : ... .. 1 ... ...
ROW 24 : ... .. . P80 ... ... : ... .. . P82 ... ... : ... .. . ... : ... .. . ... : ... .. . ... ... : ... .. . ... ... : ... .. . ... ... : ... .. . ... ...
ROW 25 : ... .. . P7D ... ... : ... .. . P80 ... ... : ... .. . ... : ... .. . ... : ... .. . ... ... : ... .. . ... ... : ... .. . ... ... : ... .. . ... ...
ROW 26 : ... .. . P7C ... ... : ... .. . P7D ... ... : ... .. . ... : ... .. . ... : ... .. . ... ... : ... .. 4 ... ... : ... .. 4 ... ... : ... .. 3 ... ...
ROW 27 : ... .. . P7D ... ... : ... .. . ... ... ... : ... .. . ... : ... .. . ... : ... .. . ... ... : ... .. . ... ... : ... .. . ... ... : ... .. 2 ... ...
ROW 28 : ... .. . P80 ... ... : ... .. . P7E ... ... : ... .. . ... : ... .. . ... : ... .. . ... ... : ... .. . ... ... : ... .. . ... ... : ... .. . ... ...
ROW 29 : ... .. . P82 ... ... : ... .. . P81 ... ... : ... .. . ... : ... .. . ... : ... .. . ... ... : ... .. . ... ... : ... .. . ... ... : ... .. 1 ... ...
ROW 2A : ... .. . P84 ... ... : ... .. . P83 ... ... : ... .. . ... : ... .. . ... : ... .. . ... ... : ... .. . ... ... : ... .. . ... ... : ... .. . ... ...
ROW 2B : ... .. 9 ... ... ... : ... .. 4 P85 ... ... : ... .. . ... : ... .. . ... : ... .. . ... ... : ... .. 1 ... ... : ... .. 1 ... ... : ... .. . ... ...
ROW 2C : ... .. . P82 ... ... : ... .. . ... ... ... : ... .. . ... : ... .. . ... : ... .. . ... ... : ... .. . ... ... : ... .. . ... ... : ... .. . ... ...
ROW 2D : ... .. . P80 ... ... : ... .. . P82 ... ... : ... .. . ... : ... .. . ... : ... .. . ... ... : ... .. . ... ... : ... .. . ... ... : ... .. . ... ...
ROW 2E : ... .. . P7D ... ... : ... .. . P81 ... ... : ... .. . ... : ... .. . ... : ... .. . ... ... : ... .. . ... ... : ... .. . ... ... : ... .. . ... ...
ROW 2F : ... .. . P7C ... ... : ... .. . P7E ... ... : ... .. . ... : ... .. . ... : ... .. . ... ... : ... .. . ... ... : ... .. . ... ... : ... .. . ... ...
ROW 30 : ... .. . P7D ... ... : ... .. . P7D ... ... : G#2 00 . ... : ... .. . ... : ... .. . ... ... : C#3 01 1 ... ... : F#3 01 1 ... ... : C#3 01 6 ... ...
ROW 31 : ... .. . P80 ... ... : ... .. . P7E ... ... : ... .. . ... : ... .. . ... : ... .. . ... ... : ... .. . ... ... : ... .. . ... ... : ... .. 5 ... ...
ROW 32 : ... .. . P81 ... ... : ... .. . P81 ... ... : ... .. . ... : ... .. . ... : ... .. . ... ... : ... .. . ... ... : ... .. . ... ... : ... .. 4 ... ...
ROW 33 : ... .. . P84 ... ... : ... .. . P83 ... ... : ... .. . ... : ... .. . ... : ... .. . ... ... : ... .. . ... ... : ... .. . ... ... : ... .. 3 ... ...
ROW 34 : ... .. . ... ... ... : ... .. . P85 ... ... : ... .. . ... : ... .. . ... : ... .. . ... ... : ... .. . ... ... : ... .. . ... ... : ... .. 2 ... ...
ROW 35 : ... .. 8 P82 ... ... : ... .. . ... ... ... : ... .. . ... : ... .. . ... : ... .. . ... ... : ... .. . ... ... : ... .. . ... ... : ... .. 1 ... ...
ROW 36 : ... .. . P80 ... ... : ... .. . P83 ... ... : ... .. . ... : ... .. . ... : ... .. . ... ... : ... .. . ... ... : ... .. . ... ... : ... .. . ... ...
ROW 37 : ... .. . P7D ... ... : ... .. . P81 ... ... : ... .. . ... : ... .. . ... : ... .. . ... ... : ... .. . ... ... : ... .. . ... ... : ... .. . ... ...
ROW 38 : ... .. . P7C ... ... : ... .. . P7E ... ... : ... .. . ... : ... .. . ... : ... .. . ... ... : ... .. . ... ... : ... .. . ... ... : ... .. . ... ...
ROW 39 : ... .. . ... ... ... : ... .. . P7D ... ... : ... .. . ... : ... .. . ... : ... .. . ... ... : ... .. . ... ... : ... .. . ... ... : ... .. . ... ...
ROW 3A : ... .. . P7F ... ... : ... .. . P7E ... ... : ... .. . ... : ... .. . ... : ... .. . ... ... : ... .. . ... ... : ... .. . ... ... : ... .. 3 ... ...
ROW 3B : ... .. . P81 ... ... : ... .. . P81 ... ... : ... .. . ... : ... .. . ... : ... .. . ... ... : ... .. . ... ... : ... .. . ... ... : ... .. 2 ... ...
ROW 3C : ... .. . P84 ... ... : ... .. . P82 ... ... : ... .. . ... : ... .. . ... : ... .. . ... ... : ... .. . ... ... : ... .. . ... ... : ... .. . ... ...
ROW 3D : ... .. . ... ... ... : ... .. . P85 ... ... : ... .. . ... : ... .. . ... : ... .. . ... ... : ... .. . ... ... : ... .. . ... ... : ... .. 1 ... ...
ROW 3E : ... .. . P83 ... ... : ... .. . ... ... ... : ... .. . ... : ... .. . ... : ... .. . ... ... : ... .. . ... ... : ... .. . ... ... : ... .. . ... ...
ROW 3F : ... .. . P80 ... ... : ... .. . P83 ... ... : ... .. . ... : ... .. . ... : ... .. . ... ... : ... .. . ... ... : ... .. . ... ... : ... .. . ... ...
ROW 40 : ... .. . P7E ... ... : ... .. . P81 ... ... : ... .. . ... : ... .. . ... : ... .. . ... ... : ... .. . ... ... : ... .. . ... ... : ... .. . ... ...
ROW 41 : ... .. . P7C ... ... : ... .. . P7E ... ... : ... .. . ... : ... .. . ... : ... .. . ... ... : ... .. . ... ... : ... .. . ... ... : ... .. . ... ...
ROW 42 : ... .. . ... ... ... : ... .. . P7D ... ... : ... .. . ... : ... .. . ... : ... .. . ... ... : ... .. . ... ... : ... .. . ... ... : ... .. . ... ...
ROW 43 : ... .. . P7F ... ... : ... .. . ... ... ... : ... .. . ... : ... .. . ... : ... .. . ... ... : ... .. . ... ... : ... .. . ... ... : ... .. . ... ...
ROW 44 : ... .. . P80 ... ... : ... .. . P80 ... ... : ... .. . ... : ... .. . ... : ... .. . ... ... : ... .. 4 ... ... : ... .. 4 ... ... : F#3 01 8 ... ...
ROW 45 : ... .. . P83 ... ... : ... .. . P82 ... ... : ... .. . ... : ... .. . ... : ... .. . ... ... : ... .. . ... ... : ... .. . ... ... : ... .. 7 ... ...
ROW 46 : ... .. . P84 ... ... : ... .. . P85 ... ... : ... .. . ... : ... .. . ... : ... .. . ... ... : ... .. . ... ... : ... .. . ... ... : ... .. 6 ... ...
ROW 47 : ... .. . P83 ... ... : ... .. . ... ... ... : ... .. . ... : ... .. . ... : ... .. . ... ... : ... .. . ... ... : ... .. . ... ... : ... .. 4 ... ...
ROW 48 : ... .. . P80 ... ... : ... .. . P84 ... ... : ... .. . ... : ... .. . ... : ... .. . ... ... : ... .. . ... ... : ... .. . ... ... : ... .. 3 ... ...
ROW 49 : ... .. . P7E ... ... : ... .. 3 P81 ... ... : ... .. . ... : ... .. . ... : ... .. . ... ... : ... .. 1 ... ... : ... .. 1 ... ... : ... .. 2 ... ...
ROW 4A : ... .. . P7C ... ... : ... .. . P7F ... ... : ... .. . ... : ... .. . ... : ... .. . ... ... : ... .. . ... ... : ... .. . ... ... : ... .. . ... ...
ROW 4B : ... .. . ... ... ... : ... .. . P7D ... ... : ... .. . ... : ... .. . ... : ... .. . ... ... : ... .. . ... ... : ... .. . ... ... : ... .. 1 ... ...
ROW 4C : ... .. . P7E ... ... : ... .. . ... ... ... : ... .. . ... : ... .. . ... : ... .. . ... ... : ... .. . ... ... : ... .. . ... ... : ... .. . ... ...
ROW 4D : ... .. . P80 ... ... : ... .. . P80 ... ... : ... .. . ... : ... .. . ... : ... .. . ... ... : ... .. . ... ... : ... .. . ... ... : ... .. . ... ...
ROW 4E : ... .. 7 P83 ... ... : ... .. . P81 ... ... : ... .. . ... : ... .. . ... : ... .. . ... ... : ... .. 4 ... ... : ... .. 4 ... ... : ... .. 3 ... ...
ROW 4F : ... .. . P84 ... ... : ... .. . P84 ... ... : ... .. . ... : ... .. . ... : ... .. . ... ... : ... .. . ... ... : ... .. . ... ... : ... .. 2 ... ...
ROW 50 : ... .. . P83 ... ... : ... .. . P85 ... ... : ... .. . ... : ... .. . ... : ... .. . ... ... : ... .. . ... ... : ... .. . ... ... : ... .. . ... ...
ROW 51 : ... .. . P80 ... ... : ... .. . P84 ... ... : ... .. . ... : ... .. . ... : ... .. . ... ... : ... .. . ... ... : ... .. . ... ... : ... .. 1 ... ...
ROW 52 : ... .. . P7F ... ... : ... .. . P81 ... ... : ... .. . ... : ... .. . ... : ... .. . ... ... : ... .. . ... ... : ... .. . ... ... : ... .. . ... ...
ROW 53 : ... .. . P7C ... ... : ... .. . P7F ... ... : ... .. . ... : ... .. . ... : ... .. . ... ... : ... .. 1 ... ... : ... .. 1 ... ... : ... .. . ... ...
ROW 54 : ... .. . ... ... ... : ... .. . P7D ... ... : ... .. . ... : ... .. . ... : ... .. . ... ... : ... .. . ... ... : ... .. . ... ... : ... .. . ... ...
ROW 55 : ... .. . P7E ... ... : ... .. . ... ... ... : ... .. . ... : ... .. . ... : ... .. . ... ... : ... .. . ... ... : ... .. . ... ... : ... .. . ... ...
ROW 56 : ... .. . P80 ... ... : ... .. . P7F ... ... : ... .. . ... : ... .. . ... : ... .. . ... ... : ... .. . ... ... : ... .. . ... ... : ... .. . ... ...
ROW 57 : ... .. . P83 ... ... : ... .. . P81 ... ... : ... .. . ... : ... .. . ... : ... .. . ... ... : ... .. . ... ... : ... .. . ... ... : ... .. . ... ...
ROW 58 : ... .. 6 P84 ... ... : ... .. 2 P84 ... ... : C#2 00 . ... : ... .. . ... : ... .. . ... ... : F-3 01 2 ... ... : F-2 01 2 ... ... : F-3 01 6 ... ...
ROW 59 : ... .. 1 ... ... ... : ... .. . P85 ... ... : ... .. . ... : ... .. . ... : ... .. . ... ... : ... .. . ... ... : ... .. . ... ... : ... .. 5 ... ...
ROW 5A : ... .. . P81 ... ... : ... .. . P84 ... ... : ... .. . ... : ... .. . ... : ... .. . ... ... : ... .. . ... ... : ... .. . ... ... : ... .. 4 ... ...
ROW 5B : ... .. . P7F ... ... : ... .. . P81 ... ... : ... .. . ... : ... .. . ... : ... .. . ... ... : ... .. . ... ... : ... .. . ... ... : ... .. 3 ... ...
ROW 5C : ... .. . P7C ... ... : ... .. . P80 ... ... : ... .. . ... : ... .. . ... : ... .. . ... ... : ... .. 1 ... ... : ... .. 1 ... ... : ... .. 2 ... ...
ROW 5D : ... .. . ... ... ... : ... .. . P7D ... ... : ... .. . ... : ... .. . ... : ... .. . ... ... : ... .. . ... ... : ... .. . ... ... : ... .. 1 ... ...
ROW 5E : ... .. . P7D ... ... : ... .. . ... ... ... : ... .. . ... : ... .. . ... : ... .. . ... ... : ... .. . ... ... : ... .. . ... ... : ... .. . ... ...
ROW 5F : ... .. 0 ... V00 ... : ... .. . P7F ... ... : ... .. . ... : ... .. . ... : ... .. . ... ... : ... .. . ... ... : ... .. . ... ... : ... .. . ... ...
ROW 60 : ... .. . ... ... ... : ... .. . P81 ... ... : ... .. . ... : ... .. . ... : ... .. . ... ... : ... .. . ... ... : ... .. . ... ... : ... .. . ... ...
ROW 61 : ... .. . ... ... ... : ... .. . P84 ... ... : ... .. . ... : ... .. . ... : ... .. . ... ... : ... .. . ... ... : ... .. . ... ... : ... .. . ... ...
ROW 62 : ... .. . ... ... ... : ... .. . P85 ... ... : ... .. . ... : ... .. . ... : ... .. . ... ... : F#3 01 1 ... ... : F#2 01 1 ... ... : ... .. 3 ... ...
ROW 63 : ... .. . ... ... ... : ... .. 1 ... ... ... : ... .. . ... : ... .. . ... : ... .. . ... ... : ... .. . ... ... : ... .. . ... ... : ... .. 2 ... ...
ROW 64 : ... .. . ... ... ... : ... .. . P82 ... ... : ... .. . ... : ... .. . ... : ... .. . ... ... : ... .. . ... ... : ... .. . ... ... : ... .. . ... ...
ROW 65 : ... .. . ... ... ... : ... .. . P80 ... ... : ... .. . ... : ... .. . ... : ... .. . ... ... : ... .. . ... ... : ... .. . ... ... : ... .. 1 ... ...
ROW 66 : ... .. . ... ... ... : ... .. . P7D ... ... : ... .. . ... : ... .. . ... : ... .. . ... ... : ... .. . ... ... : ... .. . ... ... : ... .. . ... ...
ROW 67 : ... .. . ... ... ... : ... .. . ... ... ... : ... .. . ... : ... .. . ... : ... .. . ... ... : ... .. . ... ... : ... .. . ... ... : ... .. . ... ...
ROW 68 : ... .. . ... ... ... : ... .. . P7E ... ... : ... .. . ... : ... .. . ... : ... .. . ... ... : ... .. . ... ... : ... .. . ... ... : ... .. . ... ...
ROW 69 : ... .. . ... ... ... : ... .. 0 ... V00 ... : ... .. . ... : ... .. . ... : ... .. . ... ... : ... .. . ... ... : ... .. . ... ... : ... .. . ... ...
ROW 6A : ... .. . ... ... ... : ... .. . ... ... ... : ... .. . ... : ... .. . ... : ... .. . ... ... : ... .. . ... ... : ... .. . ... ... : ... .. . ... ...
ROW 6B : ... .. . ... ... ... : ... .. . ... ... ... : ... .. . ... : ... .. . ... : ... .. . ... ... : ... .. . ... ... : ... .. . ... ... : ... .. . ... ...
ROW 6C : ... .. . ... ... ... : ... .. . ... ... ... : ... .. . ... : ... .. . ... : ... .. . ... ... : G#3 01 6 ... ... : G#2 01 6 ... ... : C#3 01 8 ... ...
ROW 6D : ... .. . ... ... ... : ... .. . ... ... ... : ... .. . ... : ... .. . ... : ... .. . ... ... : ... .. . ... ... : ... .. . ... ... : ... .. 7 ... ...
ROW 6E : ... .. . ... ... ... : ... .. . ... ... ... : ... .. . ... : ... .. . ... : ... .. . ... ... : ... .. . ... ... : ... .. . ... ... : ... .. 6 ... ...
ROW 6F : ... .. . ... ... ... : ... .. . ... ... ... : ... .. . ... : ... .. . ... : ... .. . ... ... : ... .. 5 ... ... : ... .. 5 ... ... : ... .. 4 ... ...
ROW 70 : ... .. . ... ... ... : ... .. . ... ... ... : ... .. . ... : ... .. . ... : ... .. . ... ... : ... .. 4 ... ... : ... .. 4 ... ... : ... .. 3 ... ...
ROW 71 : ... .. . ... ... ... : ... .. . ... ... ... : ... .. . ... : ... .. . ... : ... .. . ... ... : ... .. 1 ... ... : ... .. 1 ... ... : ... .. 2 ... ...
ROW 72 : ... .. . ... ... ... : ... .. . ... ... ... : ... .. . ... : ... .. . ... : ... .. . ... ... : ... .. . ... ... : ... .. . ... ... : ... .. . ... ...
ROW 73 : ... .. . ... ... ... : ... .. . ... ... ... : ... .. . ... : ... .. . ... : ... .. . ... ... : ... .. . ... ... : ... .. . ... ... : ... .. 1 ... ...
ROW 74 : ... .. . ... ... ... : ... .. . ... ... ... : ... .. . ... : ... .. . ... : ... .. . ... ... : ... .. . ... ... : ... .. . ... ... : ... .. . ... ...
ROW 75 : ... .. . ... ... ... : ... .. . ... ... ... : ... .. . ... : ... .. . ... : ... .. . ... ... : ... .. . ... ... : ... .. . ... ... : ... .. . ... ...
ROW 76 : ... .. . ... ... ... : ... .. . ... ... ... : ... .. . ... : ... .. . ... : ... .. . ... ... : C#3 01 6 ... ... : C#2 01 6 ... ... : ... .. 3 ... ...
ROW 77 : ... .. . ... ... ... : ... .. . ... ... ... : ... .. . ... : ... .. . ... : ... .. . ... ... : ... .. . ... ... : ... .. . ... ... : ... .. 2 ... ...
ROW 78 : ... .. . ... ... ... : ... .. . ... ... ... : ... .. . ... : ... .. . ... : ... .. . ... ... : ... .. . ... ... : ... .. . ... ... : ... .. . ... ...
ROW 79 : ... .. . ... ... ... : ... .. . ... ... ... : ... .. . ... : ... .. . ... : ... .. . ... ... : ... .. 5 ... ... : ... .. 5 ... ... : ... .. 1 ... ...
ROW 7A : ... .. . ... ... ... : ... .. . ... ... ... : ... .. . ... : ... .. . ... : ... .. . ... ... : ... .. 4 ... ... : ... .. 4 ... ... : ... .. . ... ...
ROW 7B : ... .. . ... ... ... : ... .. . ... ... ... : ... .. . ... : ... .. . ... : ... .. . ... ... : ... .. 1 ... ... : ... .. 1 ... ... : ... .. . ... ...
ROW 7C : ... .. . ... ... ... : ... .. . ... ... ... : ... .. . ... : ... .. . ... : ... .. . ... ... : ... .. . ... ... : ... .. . ... ... : ... .. . ... ...
ROW 7D : ... .. . ... ... ... : ... .. . ... ... ... : ... .. . ... : ... .. . ... : ... .. . ... ... : ... .. . ... ... : ... .. . ... ... : ... .. . ... ...
ROW 7E : ... .. . ... ... ... : ... .. . ... ... ... : ... .. . ... : ... .. . ... : ... .. . ... ... : ... .. . ... ... : ... .. . ... ... : ... .. . ... ...
ROW 7F : ... .. . ... ... ... : ... .. . ... ... ... : ... .. . ... : ... .. . ... : ... .. . ... ... : ... .. . ... ... : ... .. . ... ... : ... .. . ... ...
ROW 80 : ... .. . ... ... ... : ... .. . ... ... ... : F#2 00 . ... : ... .. . ... : ... .. . ... ... : C#4 01 1 ... ... : C#3 01 1 ... ... : D-3 01 6 ... ...
ROW 81 : ... .. . ... ... ... : ... .. . ... ... ... : ... .. . ... : ... .. . ... : ... .. . ... ... : ... .. . ... ... : ... .. . ... ... : ... .. 5 ... ...
ROW 82 : ... .. . ... ... ... : ... .. . ... ... ... : ... .. . ... : ... .. . ... : ... .. . ... ... : ... .. . ... ... : ... .. . ... ... : ... .. 4 ... ...
ROW 83 : ... .. . ... ... ... : ... .. . ... ... ... : ... .. . ... : ... .. . ... : ... .. . ... ... : ... .. . ... ... : ... .. . ... ... : ... .. 3 ... ...
ROW 84 : ... .. . ... ... ... : ... .. . ... ... ... : ... .. . ... : ... .. . ... : ... .. . ... ... : ... .. . ... ... : ... .. . ... ... : ... .. 2 ... ...
ROW 85 : ... .. . ... ... ... : ... .. . ... ... ... : ... .. . ... : ... .. . ... : ... .. . ... ... : ... .. . ... ... : ... .. . ... ... : ... .. 1 ... ...
ROW 86 : ... .. . ... ... ... : ... .. . ... ... ... : ... .. . ... : ... .. . ... : ... .. . ... ... : ... .. . ... ... : ... .. . ... ... : ... .. . ... ...
ROW 87 : ... .. . ... ... ... : ... .. . ... ... ... : ... .. . ... : ... .. . ... : ... .. . ... ... : ... .. . ... ... : ... .. . ... ... : ... .. . ... ...
ROW 88 : ... .. . ... ... ... : ... .. . ... ... ... : ... .. . ... : ... .. . ... : ... .. . ... ... : ... .. . ... ... : ... .. . ... ... : ... .. . ... ...
ROW 89 : ... .. . ... ... ... : ... .. . ... ... ... : ... .. . ... : ... .. . ... : ... .. . ... ... : ... .. . ... ... : ... .. . ... ... : ... .. . ... ...
ROW 8A : ... .. . ... ... ... : ... .. . ... ... ... : ... .. . ... : ... .. . ... : ... .. . ... ... : ... .. . ... ... : ... .. . ... ... : ... .. 3 ... ...
ROW 8B : ... .. . ... ... ... : ... .. . ... ... ... : ... .. . ... : ... .. . ... : ... .. . ... ... : ... .. . ... ... : ... .. . ... ... : ... .. 2 ... ...
ROW 8C : ... .. . ... ... ... : ... .. . ... ... ... : ... .. . ... : ... .. . ... : ... .. . ... ... : ... .. . ... ... : ... .. . ... ... : ... .. . ... ...
ROW 8D : ... .. . ... ... ... : ... .. . ... ... ... : ... .. . ... : ... .. . ... : ... .. . ... ... : ... .. . ... ... : ... .. . ... ... : ... .. 1 ... ...
ROW 8E : ... .. . ... ... ... : ... .. . ... ... ... : ... .. . ... : ... .. . ... : ... .. . ... ... : ... .. . ... ... : ... .. . ... ... : ... .. . ... ...
ROW 8F : ... .. . ... ... ... : ... .. . ... ... ... : ... .. . ... : ... .. . ... : ... .. . ... ... : ... .. . ... ... : ... .. . ... ... : ... .. . ... ...
ROW 90 : ... .. . ... ... ... : ... .. . ... ... ... : ... .. . ... : ... .. . ... : ... .. . ... ... : ... .. . ... ... : ... .. . ... ... : ... .. . ... ...
ROW 91 : ... .. . ... ... ... : ... .. . ... ... ... : ... .. . ... : ... .. . ... : ... .. . ... ... : ... .. . ... ... : ... .. . ... ... : ... .. . ... ...
ROW 92 : ... .. . ... ... ... : ... .. . ... ... ... : ... .. . ... : ... .. . ... : ... .. . ... ... : ... .. . ... ... : ... .. . ... ... : ... .. . ... ...
ROW 93 : ... .. . ... ... ... : ... .. . ... ... ... : ... .. . ... : ... .. . ... : ... .. . ... ... : ... .. . ... ... : ... .. . ... ... : ... .. . ... ...
ROW 94 : A#2 00 8 P80 V02 ... : ... .. . ... ... ... : ... .. . ... : ... .. . ... : ... .. . ... ... : ... .. 4 ... ... : ... .. 4 ... ... : C#3 01 8 ... ...
ROW 95 : ... .. 7 ... ... ... : ... .. . ... ... ... : ... .. . ... : ... .. . ... : ... .. . ... ... : ... .. . ... ... : ... .. . ... ... : ... .. 7 ... ...
ROW 96 : ... .. 6 ... ... ... : ... .. . ... ... ... : ... .. . ... : ... .. . ... : ... .. . ... ... : ... .. . ... ... : ... .. . ... ... : ... .. 6 ... ...
ROW 97 : ... .. 5 ... ... ... : ... .. . ... ... ... : ... .. . ... : ... .. . ... : ... .. . ... ... : ... .. . ... ... : ... .. . ... ... : ... .. 4 ... ...
ROW 98 : ... .. . ... ... ... : ... .. . ... ... ... : ... .. . ... : ... .. . ... : ... .. . ... ... : ... .. . ... ... : ... .. . ... ... : ... .. 3 ... ...
ROW 99 : ... .. . ... ... ... : ... .. . ... ... ... : ... .. . ... : ... .. . ... : ... .. . ... ... : ... .. 1 ... ... : ... .. 1 ... ... : ... .. 2 ... ...
ROW 9A : ... .. . ... ... ... : ... .. . ... ... ... : ... .. . ... : ... .. . ... : ... .. . ... ... : ... .. . ... ... : ... .. . ... ... : ... .. . ... ...
ROW 9B : ... .. . ... ... ... : ... .. . ... ... ... : ... .. . ... : ... .. . ... : ... .. . ... ... : ... .. . ... ... : ... .. . ... ... : ... .. 1 ... ...
ROW 9C : ... .. . ... ... ... : ... .. . ... ... ... : ... .. . ... : ... .. . ... : ... .. . ... ... : ... .. . ... ... : ... .. . ... ... : ... .. . ... ...
ROW 9D : ... .. . ... ... ... : ... .. . ... ... ... : ... .. . ... : ... .. . ... : ... .. . ... ... : ... .. . ... ... : ... .. . ... ... : ... .. . ... ...
ROW 9E : C#3 00 9 ... ... ... : A#2 00 1 P81 V02 ... : ... .. . ... : ... .. . ... : ... .. . ... ... : ... .. 4 ... ... : ... .. 4 ... ... : ... .. 3 ... ...
ROW 9F : ... .. 8 ... ... ... : ... .. . ... ... ... : ... .. . ... : ... .. . ... : ... .. . ... ... : ... .. . ... ... : ... .. . ... ... : ... .. 2 ... ...
ROW A0 : ... .. 7 ... ... ... : ... .. . ... ... ... : ... .. . ... : ... .. . ... : ... .. . ... ... : ... .. . ... ... : ... .. . ... ... : ... .. . ... ...
ROW A1 : ... .. 6 ... ... ... : ... .. . ... ... ... : ... .. . ... : ... .. . ... : ... .. . ... ... : ... .. . ... ... : ... .. . ... ... : ... .. 1 ... ...
ROW A2 : ... .. . ... ... ... : ... .. . ... ... ... : ... .. . ... : ... .. . ... : ... .. . ... ... : ... .. . ... ... : ... .. . ... ... : ... .. . ... ...
ROW A3 : ... .. . ... ... ... : ... .. . ... ... ... : ... .. . ... : ... .. . ... : ... .. . ... ... : ... .. 1 ... ... : ... .. 1 ... ... : ... .. . ... ...
ROW A4 : ... .. 1 ... ... ... : ... .. . ... ... ... : ... .. . ... : ... .. . ... : ... .. . ... ... : ... .. . ... ... : ... .. . ... ... : ... .. . ... ...
ROW A5 : ... .. . ... ... ... : ... .. . ... ... ... : ... .. . ... : ... .. . ... : ... .. . ... ... : ... .. . ... ... : ... .. . ... ... : ... .. . ... ...
ROW A6 : ... .. . ... ... ... : ... .. . ... ... ... : ... .. . ... : ... .. . ... : ... .. . ... ... : ... .. . ... ... : ... .. . ... ... : ... .. . ... ...
ROW A7 : ... .. . ... ... ... : ... .. . ... ... ... : ... .. . ... : ... .. . ... : ... .. . ... ... : ... .. . ... ... : ... .. . ... ... : ... .. . ... ...
ROW A8 : F#3 00 B ... ... ... : C#3 00 2 ... ... ... : ... .. . ... : ... .. . ... : ... .. . ... ... : ... .. . ... ... : ... .. . ... ... : A#2 01 6 ... ...
ROW A9 : ... .. A ... ... ... : ... .. 1 ... ... ... : ... .. . ... : ... .. . ... : ... .. . ... ... : ... .. . ... ... : ... .. . ... ... : ... .. 5 ... ...
ROW AA : ... .. 9 ... ... ... : ... .. . ... ... ... : ... .. . ... : ... .. . ... : ... .. . ... ... : ... .. . ... ... : ... .. . ... ... : ... .. 4 ... ...
ROW AB : ... .. 7 ... ... ... : ... .. . ... ... ... : ... .. . ... : ... .. . ... : ... .. . ... ... : ... .. . ... ... : ... .. . ... ... : ... .. 3 ... ...
ROW AC : ... .. . ... ... ... : ... .. . ... ... ... : ... .. . ... : ... .. . ... : ... .. . ... ... : ... .. . ... ... : ... .. . ... ... : ... .. 2 ... ...
ROW AD : ... .. 8 ... ... ... : ... .. 2 ... ... ... : ... .. . ... : ... .. . ... : ... .. . ... ... : ... .. . ... ... : ... .. . ... ... : ... .. 1 ... ...
ROW AE : ... .. . ... ... ... : ... .. 1 ... ... ... : ... .. . ... : ... .. . ... : ... .. . ... ... : ... .. . ... ... : ... .. . ... ... : ... .. . ... ...
ROW AF : ... .. . ... ... ... : ... .. . ... ... ... : ... .. . ... : ... .. . ... : ... .. . ... ... : ... .. . ... ... : ... .. . ... ... : ... .. . ... ...
ROW B0 : ... .. . ... ... ... : ... .. . ... ... ... : ... .. . ... : ... .. . ... : ... .. . ... ... : ... .. . ... ... : ... .. . ... ... : ... .. . ... ...
ROW B1 : ... .. . ... ... ... : ... .. . ... ... ... : ... .. . ... : ... .. . ... : ... .. . ... ... : ... .. . ... ... : ... .. . ... ... : ... .. . ... ...
ROW B2 : G#3 00 D ... ... ... : F#3 00 4 ... ... ... : ... .. . ... : ... .. . ... : ... .. . ... ... : ... .. . ... ... : ... .. . ... ... : ... .. 3 ... ...
ROW B3 : ... .. C ... ... ... : ... .. 3 ... ... ... : ... .. . ... : ... .. . ... : ... .. . ... ... : ... .. . ... ... : ... .. . ... ... : ... .. 2 ... ...
ROW B4 : ... .. B ... ... ... : ... .. . ... ... ... : ... .. . ... : ... .. . ... : ... .. . ... ... : ... .. . ... ... : ... .. . ... ... : ... .. . ... ...
ROW B5 : ... .. 8 ... ... ... : ... .. 2 ... ... ... : ... .. . ... : ... .. . ... : ... .. . ... ... : ... .. . ... ... : ... .. . ... ... : ... .. 1 ... ...
ROW B6 : ... .. . ... ... ... : ... .. . ... ... ... : ... .. . ... : ... .. . ... : ... .. . ... ... : ... .. . ... ... : ... .. . ... ... : ... .. . ... ...
ROW B7 : ... .. 9 ... ... ... : ... .. 3 ... ... ... : ... .. . ... : ... .. . ... : ... .. . ... ... : ... .. . ... ... : ... .. . ... ... : ... .. . ... ...
ROW B8 : ... .. 1 ... ... ... : ... .. . ... ... ... : ... .. . ... : ... .. . ... : ... .. . ... ... : ... .. . ... ... : ... .. . ... ... : ... .. . ... ...
ROW B9 : ... .. . ... ... ... : ... .. . ... ... ... : ... .. . ... : ... .. . ... : ... .. . ... ... : ... .. . ... ... : ... .. . ... ... : ... .. . ... ...
ROW BA : ... .. . ... ... ... : ... .. . ... ... ... : ... .. . ... : ... .. . ... : ... .. . ... ... : ... .. . ... ... : ... .. . ... ... : ... .. . ... ...
ROW BB : ... .. . ... ... ... : ... .. . ... ... ... : ... .. . ... : ... .. . ... : ... .. . ... ... : ... .. . ... ... : ... .. . ... ... : ... .. . ... ...
ROW BC : A#3 00 F ... ... ... : G#3 00 6 ... ... ... : ... .. . ... : ... .. . ... : ... .. . ... ... : A#2 01 6 ... ... : F#3 01 6 ... ... : C#3 01 8 ... ...
ROW BD : ... .. E ... ... ... : ... .. 5 ... ... ... : ... .. . ... : ... .. . ... : ... .. . ... ... : ... .. . ... ... : ... .. . ... ... : ... .. 7 ... ...
ROW BE : ... .. D ... ... ... : ... .. . ... ... ... : ... .. . ... : ... .. . ... : ... .. . ... ... : ... .. . ... ... : ... .. . ... ... : ... .. 6 ... ...
ROW BF : ... .. A ... ... ... : ... .. 4 ... ... ... : ... .. . ... : ... .. . ... : ... .. . ... ... : ... .. 5 ... ... : ... .. 5 ... ... : ... .. 4 ... ...
ROW C0 : ... .. . ... ... ... : ... .. . ... ... ... : ... .. . ... : ... .. . ... : ... .. . ... ... : ... .. 4 ... ... : ... .. 4 ... ... : ... .. 3 ... ...
ROW C1 : ... .. 9 ... ... ... : ... .. . ... ... ... : ... .. . ... : ... .. . ... : ... .. . ... ... : ... .. 1 ... ... : ... .. 1 ... ... : ... .. 2 ... ...
ROW C2 : ... .. 1 ... ... ... : ... .. 1 ... ... ... : ... .. . ... : ... .. . ... : ... .. . ... ... : ... .. . ... ... : ... .. . ... ... : ... .. . ... ...
ROW C3 : ... .. . ... ... ... : ... .. . ... ... ... : ... .. . ... : ... .. . ... : ... .. . ... ... : ... .. . ... ... : ... .. . ... ... : ... .. 1 ... ...
ROW C4 : ... .. . ... ... ... : ... .. . ... ... ... : ... .. . ... : ... .. . ... : ... .. . ... ... : ... .. . ... ... : ... .. . ... ... : ... .. . ... ...
ROW C5 : ... .. . ... ... ... : ... .. . ... ... ... : ... .. . ... : ... .. . ... : ... .. . ... ... : ... .. . ... ... : ... .. . ... ... : ... .. . ... ...
ROW C6 : F#3 00 D ... ... ... : A#3 00 8 ... ... ... : ... .. . ... : ... .. . ... : ... .. . ... ... : ... .. 4 ... ... : ... .. 4 ... ... : ... .. 3 ... ...
ROW C7 : ... .. C ... ... ... : ... .. 7 ... ... ... : ... .. . ... : ... .. . ... : ... .. . ... ... : ... .. . ... ... : ... .. . ... ... : ... .. 2 ... ...
ROW C8 : ... .. B ... ... ... : ... .. 6 ... ... ... : ... .. . ... : ... .. . ... : ... .. . ... ... : ... .. . ... ... : ... .. . ... ... : ... .. . ... ...
ROW C9 : ... .. 8 ... ... ... : ... .. 5 ... ... ... : ... .. . ... : ... .. . ... : ... .. . ... ... : ... .. . ... ... : ... .. . ... ... : ... .. 1 ... ...
ROW CA : ... .. . ... ... ... : ... .. . ... ... ... : ... .. . ... : ... .. . ... : ... .. . ... ... : ... .. . ... ... : ... .. . ... ... : ... .. . ... ...
ROW CB : ... .. . ... ... ... : ... .. 4 ... ... ... : ... .. . ... : ... .. . ... : ... .. . ... ... : ... .. 1 ... ... : ... .. 1 ... ... : ... .. . ... ...
ROW CC : ... .. 1 ... ... ... : ... .. 1 ... ... ... : ... .. . ... : ... .. . ... : ... .. . ... ... : ... .. . ... ... : ... .. . ... ... : ... .. . ... ...
ROW CD : ... .. . ... ... ... : ... .. . ... ... ... : ... .. . ... : ... .. . ... : ... .. . ... ... : ... .. . ... ... : ... .. . ... ... : ... .. . ... ...
ROW CE : ... .. . ... ... ... : ... .. . ... ... ... : ... .. . ... : ... .. . ... : ... .. . ... ... : ... .. . ... ... : ... .. . ... ... : ... .. . ... ...
ROW CF : ... .. . ... ... ... : ... .. . ... ... ... : ... .. . ... : ... .. . ... : ... .. . ... ... : ... .. . ... ... : ... .. . ... ... : ... .. . ... ...
ROW D0 : G#3 00 C ... ... ... : F#3 00 6 ... ... ... : C#2 00 . ... : ... .. . ... : ... .. . ... ... : B-2 01 1 ... ... : E-3 01 1 ... ... : E-3 01 6 ... ...
ROW D1 : ... .. B ... ... ... : ... .. 5 ... ... ... : ... .. . ... : ... .. . ... : ... .. . ... ... : ... .. . ... ... : ... .. . ... ... : ... .. 5 ... ...
ROW D2 : ... .. A ... ... ... : ... .. . ... ... ... : ... .. . ... : ... .. . ... : ... .. . ... ... : ... .. . ... ... : ... .. . ... ... : ... .. 4 ... ...
ROW D3 : ... .. 8 ... ... ... : ... .. 4 ... ... ... : ... .. . ... : ... .. . ... : ... .. . ... ... : ... .. . ... ... : ... .. . ... ... : ... .. 3 ... ...
ROW D4 : ... .. . ... ... ... : ... .. . ... ... ... : ... .. . ... : ... .. . ... : ... .. . ... ... : ... .. . ... ... : ... .. . ... ... : ... .. 2 ... ...
ROW D5 : ... .. 7 ... ... ... : ... .. . ... ... ... : ... .. . ... : ... .. . ... : ... .. . ... ... : ... .. . ... ... : ... .. . ... ... : ... .. 1 ... ...
ROW D6 : ... .. . ... ... ... : ... .. 1 ... ... ... : ... .. . ... : ... .. . ... : ... .. . ... ... : ... .. . ... ... : ... .. . ... ... : ... .. . ... ...
ROW D7 : ... .. . ... ... ... : ... .. . ... ... ... : ... .. . ... : ... .. . ... : ... .. . ... ... : ... .. . ... ... : ... .. . ... ... : ... .. . ... ...
ROW D8 : ... .. . ... ... ... : ... .. . ... ... ... : ... .. . ... : ... .. . ... : ... .. . ... ... : ... .. . ... ... : ... .. . ... ... : ... .. . ... ...
ROW D9 : ... .. . ... ... ... : ... .. . ... ... ... : ... .. . ... : ... .. . ... : ... .. . ... ... : ... .. . ... ... : ... .. . ... ... : ... .. . ... ...
ROW DA : F#3 00 B ... ... ... : G#3 00 5 ... ... ... : ... .. . ... : ... .. . ... : ... .. . ... ... : ... .. . ... ... : ... .. . ... ... : ... .. 3 ... ...
ROW DB : ... .. A ... ... ... : ... .. 4 ... ... ... : ... .. . ... : ... .. . ... : ... .. . ... ... : ... .. . ... ... : ... .. . ... ... : ... .. 2 ... ...
ROW DC : ... .. 9 ... ... ... : ... .. . ... ... ... : ... .. . ... : ... .. . ... : ... .. . ... ... : ... .. . ... ... : ... .. . ... ... : ... .. . ... ...
ROW DD : ... .. 7 ... ... ... : ... .. 3 ... ... ... : ... .. . ... : ... .. . ... : ... .. . ... ... : ... .. . ... ... : ... .. . ... ... : ... .. 1 ... ...
ROW DE : ... .. . ... ... ... : ... .. . ... ... ... : ... .. . ... : ... .. . ... : ... .. . ... ... : ... .. . ... ... : ... .. . ... ... : ... .. . ... ...
ROW DF : ... .. 6 ... ... ... : ... .. 2 ... ... ... : ... .. . ... : ... .. . ... : ... .. . ... ... : ... .. . ... ... : ... .. . ... ... : ... .. . ... ...
ROW E0 : ... .. 1 ... ... ... : ... .. . ... ... ... : ... .. . ... : ... .. . ... : ... .. . ... ... : ... .. . ... ... : ... .. . ... ... : ... .. . ... ...
ROW E1 : ... .. . ... ... ... : ... .. . ... ... ... : ... .. . ... : ... .. . ... : ... .. . ... ... : ... .. . ... ... : ... .. . ... ... : ... .. . ... ...
ROW E2 : ... .. . ... ... ... : ... .. . ... ... ... : ... .. . ... : ... .. . ... : ... .. . ... ... : ... .. . ... ... : ... .. . ... ... : ... .. . ... ...
ROW E3 : ... .. . ... ... ... : ... .. . ... ... ... : ... .. . ... : ... .. . ... : ... .. . ... ... : ... .. . ... ... : ... .. . ... ... : ... .. . ... ...
ROW E4 : E-3 00 A ... ... ... : F#3 00 4 ... ... ... : ... .. . ... : ... .. . ... : ... .. . ... ... : ... .. 4 ... ... : ... .. 4 ... ... : C#3 01 8 ... ...
ROW E5 : ... .. 9 ... ... ... : ... .. 3 ... ... ... : ... .. . ... : ... .. . ... : ... .. . ... ... : ... .. . ... ... : ... .. . ... ... : ... .. 7 ... ...
ROW E6 : ... .. 8 ... ... ... : ... .. . ... ... ... : ... .. . ... : ... .. . ... : ... .. . ... ... : ... .. . ... ... : ... .. . ... ... : ... .. 6 ... ...
ROW E7 : ... .. 6 ... ... ... : ... .. 2 ... ... ... : ... .. . ... : ... .. . ... : ... .. . ... ... : ... .. . ... ... : ... .. . ... ... : ... .. 4 ... ...
ROW E8 : ... .. . ... ... ... : ... .. . ... ... ... : ... .. . ... : ... .. . ... : ... .. . ... ... : ... .. . ... ... : ... .. . ... ... : ... .. 3 ... ...
ROW E9 : ... .. . ... ... ... : ... .. . ... ... ... : ... .. . ... : ... .. . ... : ... .. . ... ... : ... .. 1 ... ... : ... .. 1 ... ... : ... .. 2 ... ...
ROW EA : ... .. . ... ... ... : ... .. 1 ... ... ... : ... .. . ... : ... .. . ... : ... .. . ... ... : ... .. . ... ... : ... .. . ... ... : ... .. . ... ...
ROW EB : ... .. . ... ... ... : ... .. . ... ... ... : ... .. . ... : ... .. . ... : ... .. . ... ... : ... .. . ... ... : ... .. . ... ... : ... .. 1 ... ...
ROW EC : ... .. . ... ... ... : ... .. . ... ... ... : ... .. . ... : ... .. . ... : ... .. . ... ... : ... .. . ... ... : ... .. . ... ... : ... .. . ... ...
ROW ED : ... .. . ... ... ... : ... .. . ... ... ... : ... .. . ... : ... .. . ... : ... .. . ... ... : ... .. . ... ... : ... .. . ... ... : ... .. . ... ...
ROW EE : ... .. 7 ... ... ... : E-3 00 3 ... ... ... : ... .. . ... : ... .. . ... : ... .. . ... ... : ... .. 4 ... ... : ... .. 4 ... ... : ... .. 3 ... ...
ROW EF : ... .. . ... ... ... : ... .. 2 ... ... ... : ... .. . ... : ... .. . ... : ... .. . ... ... : ... .. . ... ... : ... .. . ... ... : ... .. 2 ... ...
ROW F0 : ... .. . ... ... ... : ... .. . ... ... ... : ... .. . ... : ... .. . ... : ... .. . ... ... : ... .. . ... ... : ... .. . ... ... : ... .. . ... ...
ROW F1 : ... .. . ... ... ... : ... .. . ... ... ... : ... .. . ... : ... .. . ... : ... .. . ... ... : ... .. . ... ... : ... .. . ... ... : ... .. 1 ... ...
ROW F2 : ... .. . ... ... ... : ... .. . ... ... ... : ... .. . ... : ... .. . ... : ... .. . ... ... : ... .. . ... ... : ... .. . ... ... : ... .. . ... ...
ROW F3 : ... .. . ... ... ... : ... .. . ... ... ... : ... .. . ... : ... .. . ... : ... .. . ... ... : ... .. 1 ... ... : ... .. 1 ... ... : ... .. . ... ...
ROW F4 : ... .. . ... ... ... : ... .. . ... ... ... : ... .. . ... : ... .. . ... : ... .. . ... ... : ... .. . ... ... : ... .. . ... ... : ... .. . ... ...
ROW F5 : ... .. . ... ... ... : ... .. . ... ... ... : ... .. . ... : ... .. . ... : ... .. . ... ... : ... .. . ... ... : ... .. . ... ... : ... .. . ... ...
ROW F6 : ... .. . ... ... ... : ... .. . ... ... ... : ... .. . ... : ... .. . ... : ... .. . ... ... : ... .. . ... ... : ... .. . ... ... : ... .. . ... ...
ROW F7 : ... .. . ... ... ... : ... .. . ... ... ... : ... .. . ... : ... .. . ... : ... .. . ... ... : ... .. . ... ... : ... .. . ... ... : ... .. . ... ...
ROW F8 : ... .. 8 P83 ... ... : ... .. . ... ... ... : C#3 00 . ... : ... .. . ... : ... .. . ... ... : ... .. 2 ... ... : ... .. 2 ... ... : G#2 01 6 ... ...
ROW F9 : ... .. . P84 ... ... : ... .. . ... ... ... : ... .. . ... : ... .. . ... : ... .. . ... ... : ... .. . ... ... : ... .. . ... ... : ... .. 5 ... ...
ROW FA : ... .. . ... ... ... : ... .. . ... ... ... : ... .. . ... : ... .. . ... : ... .. . ... ... : ... .. . ... ... : ... .. . ... ... : ... .. 4 ... ...
ROW FB : ... .. . P81 ... ... : ... .. . ... ... ... : ... .. . ... : ... .. . ... : ... .. . ... ... : ... .. . ... ... : ... .. . ... ... : ... .. 3 ... ...
ROW FC : ... .. . P7F ... ... : ... .. . ... ... ... : ... .. . ... : ... .. . ... : ... .. . ... ... : ... .. 1 ... ... : ... .. 1 ... ... : ... .. 2 ... ...
ROW FD : ... .. . P7C ... ... : ... .. . ... ... ... : ... .. . ... : ... .. . ... : ... .. . ... ... : ... .. . ... ... : ... .. . ... ... : ... .. 1 ... ...
ROW FE : ... .. . ... ... ... : ... .. . ... ... ... : ... .. . ... : ... .. . ... : ... .. . ... ... : ... .. . ... ... : ... .. . ... ... : ... .. . ... ...
ROW FF : ... .. . P7D ... ... : ... .. . ... ... ... : ... .. . ... : ... .. . ... : ... .. . ... ... : ... .. . ... ... : ... .. . ... ... : ... .. . ... ...

PATTERN 12
ROW 00 : ... .. . P80 ... ... : ... .. . ... ... ... : ... .. . ... : ... .. . ... : ... .. . ... ... : ... .. . ... ... : ... .. . ... ... : ... .. . ... ...
ROW 01 : ... .. . P82 ... ... : ... .. . ... ... ... : ... .. . ... : ... .. . ... : ... .. . ... ... : ... .. . ... ... : ... .. . ... ... : ... .. . ... ...
ROW 02 : ... .. . P84 ... ... : ... .. 3 P84 ... ... : ... .. . ... : ... .. . ... : ... .. . ... ... : ... .. . ... ... : ... .. . ... ... : ... .. 3 ... ...
ROW 03 : ... .. . ... ... ... : ... .. . P85 ... ... : ... .. . ... : ... .. . ... : ... .. . ... ... : ... .. . ... ... : ... .. . ... ... : ... .. 2 ... ...
ROW 04 : ... .. . P81 ... ... : ... .. . ... ... ... : ... .. . ... : ... .. . ... : ... .. . ... ... : ... .. . ... ... : ... .. . ... ... : ... .. . ... ...
ROW 05 : ... .. . P80 ... ... : ... .. . P82 ... ... : ... .. . ... : ... .. . ... : ... .. . ... ... : ... .. . ... ... : ... .. . ... ... : ... .. 1 ... ...
ROW 06 : ... .. . P7D ... ... : ... .. . P80 ... ... : ... .. . ... : ... .. . ... : ... .. . ... ... : ... .. . ... ... : ... .. . ... ... : ... .. . ... ...
ROW 07 : ... .. 9 P7C ... ... : ... .. 4 P7D ... ... : ... .. . ... : ... .. . ... : ... .. . ... ... : ... .. . ... ... : ... .. . ... ... : ... .. . ... ...
ROW 08 : ... .. . P7D ... ... : ... .. . ... ... ... : ... .. . ... : ... .. . ... : ... .. . ... ... : ... .. . ... ... : ... .. . ... ... : ... .. . ... ...
ROW 09 : ... .. . P80 ... ... : ... .. . P7E ... ... : ... .. . ... : ... .. . ... : ... .. . ... ... : ... .. . ... ... : ... .. . ... ... : ... .. . ... ...
ROW 0A : ... .. . P82 ... ... : ... .. . P81 ... ... : ... .. . ... : ... .. . ... : ... .. . ... ... : ... .. . ... ... : ... .. . ... ... : ... .. . ... ...
ROW 0B : ... .. . P84 ... ... : ... .. . P83 ... ... : ... .. . ... : ... .. . ... : ... .. . ... ... : ... .. . ... ... : ... .. . ... ... : ... .. . ... ...
ROW 0C : ... .. A ... ... ... : ... .. . P85 ... ... : ... .. . ... : ... .. . ... : ... .. . ... ... : ... .. 4 ... ... : ... .. 4 ... ... : C#3 01 8 ... ...
ROW 0D : ... .. 2 P82 ... ... : ... .. . ... ... ... : ... .. . ... : ... .. . ... : ... .. . ... ... : ... .. . ... ... : ... .. . ... ... : ... .. 7 ... ...
ROW 0E : ... .. . P80 ... ... : ... .. . P82 ... ... : ... .. . ... : ... .. . ... : ... .. . ... ... : ... .. . ... ... : ... .. . ... ... : ... .. 6 ... ...
ROW 0F : ... .. . P7D ... ... : ... .. . P81 ... ... : ... .. . ... : ... .. . ... : ... .. . ... ... : ... .. . ... ... : ... .. . ... ... : ... .. 4 ... ...
ROW 10 : ... .. 1 P7C ... ... : ... .. . P7E ... ... : ... .. . ... : ... .. . ... : ... .. . ... ... : ... .. . ... ... : ... .. . ... ... : ... .. 3 ... ...
ROW 11 : ... .. . P7D ... ... : ... .. . P7D ... ... : ... .. . ... : ... .. . ... : ... .. . ... ... : ... .. 1 ... ... : ... .. 1 ... ... : ... .. 2 ... ...
ROW 12 : ... .. . P80 ... ... : ... .. . P7E ... ... : ... .. . ... : ... .. . ... : ... .. . ... ... : ... .. . ... ... : ... .. . ... ... : ... .. . ... ...
ROW 13 : ... .. 0 ... V00 ... : ... .. . P81 ... ... : ... .. . ... : ... .. . ... : ... .. . ... ... : ... .. . ... ... : ... .. . ... ... : ... .. 1 ... ...
ROW 14 : ... .. . ... ... ... : ... .. . P83 ... ... : ... .. . ... : ... .. . ... : ... .. . ... ... : ... .. . ... ... : ... .. . ... ... : ... .. . ... ...
ROW 15 : ... .. . ... ... ... : ... .. . P85 ... ... : ... .. . ... : ... .. . ... : ... .. . ... ... : ... .. . ... ... : ... .. . ... ... : ... .. . ... ...
ROW 16 : ... .. . ... ... ... : ... .. 5 ... ... ... : ... .. . ... : ... .. . ... : ... .. . ... ... : ... .. 4 ... ... : ... .. 4 ... ... : ... .. 3 ... ...
ROW 17 : ... .. . ... ... ... : ... .. 1 P83 ... ... : ... .. . ... : ... .. . ... : ... .. . ... ... : ... .. . ... ... : ... .. . ... ... : ... .. 2 ... ...
ROW 18 : ... .. . ... ... ... : ... .. . P81 ... ... : ... .. . ... : ... .. . ... : ... .. . ... ... : ... .. . ... ... : ... .. . ... ... : ... .. . ... ...
ROW 19 : ... .. . ... ... ... : ... .. . P7E ... ... : ... .. . ... : ... .. . ... : ... .. . ... ... : ... .. . ... ... : ... .. . ... ... : ... .. 1 ... ...
ROW 1A : ... .. . ... ... ... : ... .. . P7D ... ... : ... .. . ... : ... .. . ... : ... .. . ... ... : ... .. . ... ... : ... .. . ... ... : ... .. . ... ...
ROW 1B : ... .. . ... ... ... : ... .. . P7E ... ... : ... .. . ... : ... .. . ... : ... .. . ... ... : ... .. 1 ... ... : ... .. 1 ... ... : ... .. . ... ...
ROW 1C : ... .. . ... ... ... : ... .. . P81 ... ... : ... .. . ... : ... .. . ... : ... .. . ... ... : ... .. . ... ... : ... .. . ... ... : ... .. . ... ...
ROW 1D : ... .. . ... ... ... : ... .. 0 ... V00 ... : ... .. . ... : ... .. . ... : ... .. . ... ... : ... .. . ... ... : ... .. . ... ... : ... .. . ... ...
ROW 1E : ... .. . ... ... ... : ... .. . ... ... ... : ... .. . ... : ... .. . ... : ... .. . ... ... : ... .. . ... ... : ... .. . ... ... : ... .. . ... ...
ROW 1F : ... .. . ... ... ... : ... .. . ... ... ... : ... .. . ... : ... .. . ... : ... .. . ... ... : ... .. . ... ... : ... .. . ... ... : ... .. . ... ...
ROW 20 : ... .. . ... ... ... : ... .. . ... ... ... : F#2 00 . ... : ... .. . ... : ... .. . ... ... : A-2 01 1 ... ... : F#3 01 1 ... ... : F#3 01 6 ... ...
ROW 21 : ... .. . ... ... ... : ... .. . ... ... ... : ... .. . ... : ... .. . ... : ... .. . ... ... : ... .. . ... ... : ... .. . ... ... : ... .. 5 ... ...
ROW 22 : ... .. . ... ... ... : ... .. . ... ... ... : ... .. . ... : ... .. . ... : ... .. . ... ... : ... .. . ... ... : ... .. . ... ... : ... .. 4 ... ...
ROW 23 : ... .. . ... ... ... : ... .. . ... ... ... : ... .. . ... : ... .. . ... : ... .. . ... ... : ... .. . ... ... : ... .. . ... ... : ... .. 3 ... ...
ROW 24 : ... .. . ... ... ... : ... .. . ... ... ... : ... .. . ... : ... .. . ... : ... .. . ... ... : ... .. . ... ... : ... .. . ... ... : ... .. 2 ... ...
ROW 25 : ... .. . ... ... ... : ... .. . ... ... ... : ... .. . ... : ... .. . ... : ... .. . ... ... : ... .. . ... ... : ... .. . ... ... : ... .. 1 ... ...
ROW 26 : ... .. . ... ... ... : ... .. . ... ... ... : ... .. . ... : ... .. . ... : ... .. . ... ... : ... .. . ... ... : ... .. . ... ... : ... .. . ... ...
ROW 27 : ... .. . ... ... ... : ... .. . ... ... ... : ... .. . ... : ... .. . ... : ... .. . ... ... : ... .. . ... ... : ... .. . ... ... : ... .. . ... ...
ROW 28 : ... .. . ... ... ... : ... .. . ... ... ... : ... .. . ... : ... .. . ... : ... .. . ... ... : ... .. . ... ... : ... .. . ... ... : ... .. . ... ...
ROW 29 : ... .. . ... ... ... : ... .. . ... ... ... : ... .. . ... : ... .. . ... : ... .. . ... ... : ... .. . ... ... : ... .. . ... ... : ... .. . ... ...
ROW 2A : ... .. . ... ... ... : ... .. . ... ... ... : ... .. . ... : ... .. . ... : ... .. . ... ... : ... .. . ... ... : ... .. . ... ... : ... .. 3 ... ...
ROW 2B : ... .. . ... ... ... : ... .. . ... ... ... : ... .. . ... : ... .. . ... : ... .. . ... ... : ... .. . ... ... : ... .. . ... ... : ... .. 2 ... ...
ROW 2C : ... .. . ... ... ... : ... .. . ... ... ... : ... .. . ... : ... .. . ... : ... .. . ... ... : ... .. . ... ... : ... .. . ... ... : ... .. . ... ...
ROW 2D : ... .. . ... ... ... : ... .. . ... ... ... : ... .. . ... : ... .. . ... : ... .. . ... ... : ... .. . ... ... : ... .. . ... ... : ... .. 1 ... ...
ROW 2E : ... .. . ... ... ... : ... .. . ... ... ... : ... .. . ... : ... .. . ... : ... .. . ... ... : ... .. . ... ... : ... .. . ... ... : ... .. . ... ...
ROW 2F : ... .. . ... ... ... : ... .. . ... ... ... : ... .. . ... : ... .. . ... : ... .. . ... ... : ... .. . ... ... : ... .. . ... ... : ... .. . ... ...
ROW 30 : ... .. . ... ... ... : ... .. . ... ... ... : ... .. . ... : ... .. . ... : ... .. . ... ... : ... .. . ... ... : ... .. . ... ... : ... .. . ... ...
ROW 31 : ... .. . ... ... ... : ... .. . ... ... ... : ... .. . ... : ... .. . ... : ... .. . ... ... : ... .. . ... ... : ... .. . ... ... : ... .. . ... ...
ROW 32 : ... .. . ... ... ... : ... .. . ... ... ... : ... .. . ... : ... .. . ... : ... .. . ... ... : ... .. . ... ... : ... .. . ... ... : ... .. . ... ...
ROW 33 : ... .. . ... ... ... : ... .. . ... ... ... : ... .. . ... : ... .. . ... : ... .. . ... ... : ... .. . ... ... : ... .. . ... ... : ... .. . ... ...
ROW 34 : F#3 00 8 P80 V02 ... : ... .. . ... ... ... : ... .. . ... : ... .. . ... : ... .. . ... ... : ... .. 4 ... ... : ... .. 4 ... ... : D-3 01 8 ... ...
ROW 35 : ... .. 7 ... ... ... : ... .. . ... ... ... : ... .. . ... : ... .. . ... : ... .. . ... ... : ... .. . ... ... : ... .. . ... ... : ... .. 7 ... ...
ROW 36 : ... .. 6 ... ... ... : ... .. . ... ... ... : ... .. . ... : ... .. . ... : ... .. . ... ... : ... .. . ... ... : ... .. . ... ... : ... .. 6 ... ...
ROW 37 : ... .. 5 ... ... ... : ... .. . ... ... ... : ... .. . ... : ... .. . ... : ... .. . ... ... : ... .. . ... ... : ... .. . ... ... : ... .. 4 ... ...
ROW 38 : ... .. . ... ... ... : ... .. . ... ... ... : ... .. . ... : ... .. . ... : ... .. . ... ... : ... .. . ... ... : ... .. . ... ... : ... .. 3 ... ...
ROW 39 : ... .. . ... ... ... : ... .. . ... ... ... : ... .. . ... : ... .. . ... : ... .. . ... ... : ... .. 1 ... ... : ... .. 1 ... ... : ... .. 2 ... ...
ROW 3A : ... .. . ... ... ... : ... .. . ... ... ... : ... .. . ... : ... .. . ... : ... .. . ... ... : ... .. . ... ... : ... .. . ... ... : ... .. . ... ...
ROW 3B : ... .. . ... ... ... : ... .. . ... ... ... : ... .. . ... : ... .. . ... : ... .. . ... ... : ... .. . ... ... : ... .. . ... ... : ... .. 1 ... ...
ROW 3C : ... .. . ... ... ... : ... .. . ... ... ... : ... .. . ... : ... .. . ... : ... .. . ... ... : ... .. . ... ... : ... .. . ... ... : ... .. . ... ...
ROW 3D : ... .. . ... ... ... : ... .. . ... ... ... : ... .. . ... : ... .. . ... : ... .. . ... ... : ... .. . ... ... : ... .. . ... ... : ... .. . ... ...
ROW 3E : G#3 00 9 ... ... ... : F#3 00 1 P81 V02 ... : ... .. . ... : ... .. . ... : ... .. . ... ... : ... .. 4 ... ... : ... .. 4 ... ... : ... .. 3 ... ...
ROW 3F : ... .. 8 ... ... ... : ... .. . ... ... ... : ... .. . ... : ... .. . ... : ... .. . ... ... : ... .. . ... ... : ... .. . ... ... : ... .. 2 ... ...
ROW 40 : ... .. 7 ... ... ... : ... .. . ... ... ... : ... .. . ... : ... .. . ... : ... .. . ... ... : ... .. . ... ... : ... .. . ... ... : ... .. . ... ...
ROW 41 : ... .. 6 ... ... ... : ... .. . ... ... ... : ... .. . ... : ... .. . ... : ... .. . ... ... : ... .. . ... ... : ... .. . ... ... : ... .. 1 ... ...
ROW 42 : ... .. . ... ... ... : ... .. . ... ... ... : ... .. . ... : ... .. . ... : ... .. . ... ... : ... .. . ... ... : ... .. . ... ... : ... .. . ... ...
ROW 43 : ... .. . ... ... ... : ... .. . ... ... ... : ... .. . ... : ... .. . ... : ... .. . ... ... : ... .. 1 ... ... : ... .. 1 ... ... : ... .. . ... ...
ROW 44 : ... .. 1 ... ... ... : ... .. . ... ... ... : ... .. . ... : ... .. . ... : ... .. . ... ... : ... .. . ... ... : ... .. . ... ... : ... .. . ... ...
ROW 45 : ... .. . ... ... ... : ... .. . ... ... ... : ... .. . ... : ... .. . ... : ... .. . ... ... : ... .. . ... ... : ... .. . ... ... : ... .. . ... ...
ROW 46 : ... .. . ... ... ... : ... .. . ... ... ... : ... .. . ... : ... .. . ... : ... .. . ... ... : ... .. . ... ... : ... .. . ... ... : ... .. . ... ...
ROW 47 : ... .. . ... ... ... : ... .. . ... ... ... : ... .. . ... : ... .. . ... : ... .. . ... ... : ... .. . ... ... : ... .. . ... ... : ... .. . ... ...
ROW 48 : A-3 00 B ... ... ... : G#3 00 2 ... ... ... : ... .. . ... : ... .. . ... : ... .. . ... ... : ... .. . ... ... : ... .. . ... ... : A-2 01 6 ... ...
ROW 49 : ... .. A ... ... ... : ... .. 1 ... ... ... : ... .. . ... : ... .. . ... : ... .. . ... ... : ... .. . ... ... : ... .. . ... ... : ... .. 5 ... ...
ROW 4A : ... .. 9 ... ... ... : ... .. . ... ... ... : ... .. . ... : ... .. . ... : ... .. . ... ... : ... .. . ... ... : ... .. . ... ... : ... .. 4 ... ...
ROW 4B : ... .. 7 ... ... ... : ... .. . ... ... ... : ... .. . ... : ... .. . ... : ... .. . ... ... : ... .. . ... ... : ... .. . ... ... : ... .. 3 ... ...
ROW 4C : ... .. . ... ... ... : ... .. . ... ... ... : ... .. . ... : ... .. . ... : ... .. . ... ... : ... .. . ... ... : ... .. . ... ... : ... .. 2 ... ...
ROW 4D : ... .. 8 ... ... ... : ... .. 2 ... ... ... : ... .. . ... : ... .. . ... : ... .. . ... ... : ... .. . ... ... : ... .. . ... ... : ... .. 1 ... ...
ROW 4E : ... .. . ... ... ... : ... .. 1 ... ... ... : ... .. . ... : ... .. . ... : ... .. . ... ... : ... .. . ... ... : ... .. . ... ... : ... .. . ... ...
ROW 4F : ... .. . ... ... ... : ... .. . ... ... ... : ... .. . ... : ... .. . ... : ... .. . ... ... : ... .. . ... ... : ... .. . ... ... : ... .. . ... ...
ROW 50 : ... .. . ... ... ... : ... .. . ... ... ... : ... .. . ... : ... .. . ... : ... .. . ... ... : ... .. . ... ... : ... .. . ... ... : ... .. . ... ...
ROW 51 : ... .. . ... ... ... : ... .. . ... ... ... : ... .. . ... : ... .. . ... : ... .. . ... ... : ... .. . ... ... : ... .. . ... ... : ... .. . ... ...
ROW 52 : B-3 00 D ... ... ... : A-3 00 4 ... ... ... : ... .. . ... : ... .. . ... : ... .. . ... ... : ... .. . ... ... : ... .. . ... ... : ... .. 3 ... ...
ROW 53 : ... .. C ... ... ... : ... .. 3 ... ... ... : ... .. . ... : ... .. . ... : ... .. . ... ... : ... .. . ... ... : ... .. . ... ... : ... .. 2 ... ...
ROW 54 : ... .. B ... ... ... : ... .. . ... ... ... : ... .. . ... : ... .. . ... : ... .. . ... ... : ... .. . ... ... : ... .. . ... ... : ... .. . ... ...
ROW 55 : ... .. 8 ... ... ... : ... .. 2 ... ... ... : ... .. . ... : ... .. . ... : ... .. . ... ... : ... .. . ... ... : ... .. . ... ... : ... .. 1 ... ...
ROW 56 : ... .. . ... ... ... : ... .. . ... ... ... : ... .. . ... : ... .. . ... : ... .. . ... ... : ... .. . ... ... : ... .. . ... ... : ... .. . ... ...
ROW 57 : ... .. 9 ... ... ... : ... .. 3 ... ... ... : ... .. . ... : ... .. . ... : ... .. . ... ... : ... .. . ... ... : ... .. . ... ... : ... .. . ... ...
ROW 58 : ... .. 1 ... ... ... : ... .. . ... ... ... : ... .. . ... : ... .. . ... : ... .. . ... ... : ... .. . ... ... : ... .. . ... ... : ... .. . ... ...
ROW 59 : ... .. . ... ... ... : ... .. . ... ... ... : ... .. . ... : ... .. . ... : ... .. . ... ... : ... .. . ... ... : ... .. . ... ... : ... .. . ... ...
ROW 5A : ... .. . ... ... ... : ... .. . ... ... ... : ... .. . ... : ... .. . ... : ... .. . ... ... : ... .. . ... ... : ... .. . ... ... : ... .. . ... ...
ROW 5B : ... .. . ... ... ... : ... .. . ... ... ... : ... .. . ... : ... .. . ... : ... .. . ... ... : ... .. . ... ... : ... .. . ... ... : ... .. . ... ...
ROW 5C : C#4 00 F ... ... ... : B-3 00 6 ... ... ... : ... .. . ... : ... .. . ... : ... .. . ... ... : ... .. 4 ... ... : ... .. 4 ... ... : D-3 01 8 ... ...
ROW 5D : ... .. E ... ... ... : ... .. 5 ... ... ... : ... .. . ... : ... .. . ... : ... .. . ... ... : ... .. . ... ... : ... .. . ... ... : ... .. 7 ... ...
ROW 5E : ... .. D ... ... ... : ... .. . ... ... ... : ... .. . ... : ... .. . ... : ... .. . ... ... : ... .. . ... ... : ... .. . ... ... : ... .. 6 ... ...
ROW 5F : ... .. A ... ... ... : ... .. 4 ... ... ... : ... .. . ... : ... .. . ... : ... .. . ... ... : ... .. . ... ... : ... .. . ... ... : ... .. 4 ... ...
ROW 60 : ... .. . ... ... ... : ... .. . ... ... ... : ... .. . ... : ... .. . ... : ... .. . ... ... : ... .. . ... ... : ... .. . ... ... : ... .. 3 ... ...
ROW 61 : ... .. 9 ... ... ... : ... .. . ... ... ... : ... .. . ... : ... .. . ... : ... .. . ... ... : ... .. 1 ... ... : ... .. 1 ... ... : ... .. 2 ... ...
ROW 62 : ... .. 1 ... ... ... : ... .. 1 ... ... ... : ... .. . ... : ... .. . ... : ... .. . ... ... : ... .. . ... ... : ... .. . ... ... : ... .. . ... ...
ROW 63 : ... .. . ... ... ... : ... .. . ... ... ... : ... .. . ... : ... .. . ... : ... .. . ... ... : ... .. . ... ... : ... .. . ... ... : ... .. 1 ... ...
ROW 64 : ... .. . ... ... ... : ... .. . ... ... ... : ... .. . ... : ... .. . ... : ... .. . ... ... : ... .. . ... ... : ... .. . ... ... : ... .. . ... ...
ROW 65 : ... .. . ... ... ... : ... .. . ... ... ... : ... .. . ... : ... .. . ... : ... .. . ... ... : ... .. . ... ... : ... .. . ... ... : ... .. . ... ...
ROW 66 : A-3 00 D ... ... ... : C#4 00 8 ... ... ... : ... .. . ... : ... .. . ... : ... .. . ... ... : ... .. 4 ... ... : ... .. 4 ... ... : ... .. 3 ... ...
ROW 67 : ... .. C ... ... ... : ... .. 7 ... ... ... : ... .. . ... : ... .. . ... : ... .. . ... ... : ... .. . ... ... : ... .. . ... ... : ... .. 2 ... ...
ROW 68 : ... .. B ... ... ... : ... .. 6 ... ... ... : ... .. . ... : ... .. . ... : ... .. . ... ... : ... .. . ... ... : ... .. . ... ... : ... .. . ... ...
ROW 69 : ... .. 8 ... ... ... : ... .. 5 ... ... ... : ... .. . ... : ... .. . ... : ... .. . ... ... : ... .. . ... ... : ... .. . ... ... : ... .. 1 ... ...
ROW 6A : ... .. . ... ... ... : ... .. . ... ... ... : ... .. . ... : ... .. . ... : ... .. . ... ... : ... .. . ... ... : ... .. . ... ... : ... .. . ... ...
ROW 6B : ... .. . ... ... ... : ... .. 4 ... ... ... : ... .. . ... : ... .. . ... : ... .. . ... ... : ... .. 1 ... ... : ... .. 1 ... ... : ... .. . ... ...
ROW 6C : ... .. 1 ... ... ... : ... .. 1 ... ... ... : ... .. . ... : ... .. . ... : ... .. . ... ... : ... .. . ... ... : ... .. . ... ... : ... .. . ... ...
ROW 6D : ... .. . ... ... ... : ... .. . ... ... ... : ... .. . ... : ... .. . ... : ... .. . ... ... : ... .. . ... ... : ... .. . ... ... : ... .. . ... ...
ROW 6E : ... .. . ... ... ... : ... .. . ... ... ... : ... .. . ... : ... .. . ... : ... .. . ... ... : ... .. . ... ... : ... .. . ... ... : ... .. . ... ...
ROW 6F : ... .. . ... ... ... : ... .. . ... ... ... : ... .. . ... : ... .. . ... : ... .. . ... ... : ... .. . ... ... : ... .. . ... ... : ... .. . ... ...
ROW 70 : B-3 00 C ... ... ... : A-3 00 6 ... ... ... : G-2 00 . ... : ... .. . ... : ... .. . ... ... : D-3 01 1 ... ... : G-3 01 1 ... ... : G-3 01 6 ... ...
ROW 71 : ... .. B ... ... ... : ... .. 5 ... ... ... : ... .. . ... : ... .. . ... : ... .. . ... ... : ... .. . ... ... : ... .. . ... ... : ... .. 5 ... ...
ROW 72 : ... .. A ... ... ... : ... .. . ... ... ... : ... .. . ... : ... .. . ... : ... .. . ... ... : ... .. . ... ... : ... .. . ... ... : ... .. 4 ... ...
ROW 73 : ... .. 8 ... ... ... : ... .. 4 ... ... ... : ... .. . ... : ... .. . ... : ... .. . ... ... : ... .. . ... ... : ... .. . ... ... : ... .. 3 ... ...
ROW 74 : ... .. . ... ... ... : ... .. . ... ... ... : ... .. . ... : ... .. . ... : ... .. . ... ... : ... .. . ... ... : ... .. . ... ... : ... .. 2 ... ...
ROW 75 : ... .. 7 ... ... ... : ... .. . ... ... ... : ... .. . ... : ... .. . ... : ... .. . ... ... : ... .. . ... ... : ... .. . ... ... : ... .. 1 ... ...
ROW 76 : ... .. . ... ... ... : ... .. 1 ... ... ... : ... .. . ... : ... .. . ... : ... .. . ... ... : ... .. . ... ... : ... .. . ... ... : ... .. . ... ...
ROW 77 : ... .. . ... ... ... : ... .. . ... ... ... : ... .. . ... : ... .. . ... : ... .. . ... ... : ... .. . ... ... : ... .. . ... ... : ... .. . ... ...
ROW 78 : ... .. . ... ... ... : ... .. . ... ... ... : ... .. . ... : ... .. . ... : ... .. . ... ... : ... .. . ... ... : ... .. . ... ... : ... .. . ... ...
ROW 79 : ... .. . ... ... ... : ... .. . ... ... ... : ... .. . ... : ... .. . ... : ... .. . ... ... : ... .. . ... ... : ... .. . ... ... : ... .. . ... ...
ROW 7A : ... .. . ... ... ... : B-3 00 5 ... ... ... : ... .. . ... : ... .. . ... : ... .. . ... ... : ... .. . ... ... : ... .. . ... ... : ... .. 3 ... ...
ROW 7B : ... .. . ... ... ... : ... .. 4 ... ... ... : ... .. . ... : ... .. . ... : ... .. . ... ... : ... .. . ... ... : ... .. . ... ... : ... .. 2 ... ...
ROW 7C : ... .. . ... ... ... : ... .. . ... ... ... : ... .. . ... : ... .. . ... : ... .. . ... ... : ... .. . ... ... : ... .. . ... ... : ... .. . ... ...
ROW 7D : ... .. . ... ... ... : ... .. 3 ... ... ... : ... .. . ... : ... .. . ... : ... .. . ... ... : ... .. . ... ... : ... .. . ... ... : ... .. 1 ... ...
ROW 7E : ... .. . ... ... ... : ... .. . ... ... ... : ... .. . ... : ... .. . ... : ... .. . ... ... : ... .. . ... ... : ... .. . ... ... : ... .. . ... ...
ROW 7F : ... .. 6 ... ... ... : ... .. 2 ... ... ... : ... .. . ... : ... .. . ... : ... .. . ... ... : ... .. . ... ... : ... .. . ... ... : ... .. . ... ...
ROW 80 : ... .. . ... ... ... : ... .. . ... ... ... : ... .. . ... : ... .. . ... : ... .. . ... ... : ... .. . ... ... : ... .. . ... ... : ... .. . ... ...
ROW 81 : ... .. . ... ... ... : ... .. . ... ... ... : ... .. . ... : ... .. . ... : ... .. . ... ... : ... .. . ... ... : ... .. . ... ... : ... .. . ... ...
ROW 82 : ... .. . ... ... ... : ... .. . ... ... ... : ... .. . ... : ... .. . ... : ... .. . ... ... : ... .. . ... ... : ... .. . ... ... : ... .. . ... ...
ROW 83 : ... .. . ... ... ... : ... .. . ... ... ... : ... .. . ... : ... .. . ... : ... .. . ... ... : ... .. . ... ... : ... .. . ... ... : ... .. . ... ...
ROW 84 : ... .. . ... ... ... : ... .. . ... ... ... : ... .. . ... : ... .. . ... : ... .. . ... ... : ... .. 4 ... ... : ... .. 4 ... ... : D-3 01 8 ... ...
ROW 85 : ... .. . ... ... ... : ... .. . ... ... ... : ... .. . ... : ... .. . ... : ... .. . ... ... : ... .. . ... ... : ... .. . ... ... : ... .. 7 ... ...
ROW 86 : ... .. . ... ... ... : ... .. . ... ... ... : ... .. . ... : ... .. . ... : ... .. . ... ... : ... .. . ... ... : ... .. . ... ... : ... .. 6 ... ...
ROW 87 : ... .. . ... ... ... : ... .. . ... ... ... : ... .. . ... : ... .. . ... : ... .. . ... ... : ... .. . ... ... : ... .. . ... ... : ... .. 4 ... ...
ROW 88 : ... .. . ... ... ... : ... .. . ... ... ... : ... .. . ... : ... .. . ... : ... .. . ... ... : ... .. . ... ... : ... .. . ... ... : ... .. 3 ... ...
ROW 89 : ... .. . ... ... ... : ... .. . ... ... ... : ... .. . ... : ... .. . ... : ... .. . ... ... : ... .. 1 ... ... : ... .. 1 ... ... : ... .. 2 ... ...
ROW 8A : ... .. . ... ... ... : ... .. . ... ... ... : ... .. . ... : ... .. . ... : ... .. . ... ... : ... .. . ... ... : ... .. . ... ... : ... .. . ... ...
ROW 8B : ... .. . ... ... ... : ... .. . ... ... ... : ... .. . ... : ... .. . ... : ... .. . ... ... : ... .. . ... ... : ... .. . ... ... : ... .. 1 ... ...
ROW 8C : ... .. . ... ... ... : ... .. . ... ... ... : ... .. . ... : ... .. . ... : ... .. . ... ... : ... .. . ... ... : ... .. . ... ... : ... .. . ... ...
ROW 8D : ... .. . ... ... ... : ... .. . ... ... ... : ... .. . ... : ... .. . ... : ... .. . ... ... : ... .. . ... ... : ... .. . ... ... : ... .. . ... ...
ROW 8E : ... .. 7 ... ... ... : ... .. . ... ... ... : ... .. . ... : ... .. . ... : ... .. . ... ... : ... .. 4 ... ... : ... .. 4 ... ... : ... .. 3 ... ...
ROW 8F : ... .. . ... ... ... : ... .. . ... ... ... : ... .. . ... : ... .. . ... : ... .. . ... ... : ... .. . ... ... : ... .. . ... ... : ... .. 2 ... ...
ROW 90 : ... .. . ... ... ... : ... .. . ... ... ... : ... .. . ... : ... .. . ... : ... .. . ... ... : ... .. . ... ... : ... .. . ... ... : ... .. . ... ...
ROW 91 : ... .. . ... ... ... : ... .. . ... ... ... : ... .. . ... : ... .. . ... : ... .. . ... ... : ... .. . ... ... : ... .. . ... ... : ... .. 1 ... ...
ROW 92 : ... .. . ... ... ... : ... .. . ... ... ... : ... .. . ... : ... .. . ... : ... .. . ... ... : ... .. . ... ... : ... .. . ... ... : ... .. . ... ...
ROW 93 : ... .. . ... ... ... : ... .. . ... ... ... : ... .. . ... : ... .. . ... : ... .. . ... ... : ... .. 1 ... ... : ... .. 1 ... ... : ... .. . ... ...
ROW 94 : ... .. . ... ... ... : ... .. . ... ... ... : ... .. . ... : ... .. . ... : ... .. . ... ... : ... .. . ... ... : ... .. . ... ... : ... .. . ... ...
ROW 95 : ... .. . ... ... ... : ... .. . ... ... ... : ... .. . ... : ... .. . ... : ... .. . ... ... : ... .. . ... ... : ... .. . ... ... : ... .. . ... ...
ROW 96 : ... .. . ... ... ... : ... .. . ... ... ... : ... .. . ... : ... .. . ... : ... .. . ... ... : ... .. . ... ... : ... .. . ... ... : ... .. . ... ...
ROW 97 : ... .. . ... ... ... : ... .. . ... ... ... : ... .. . ... : ... .. . ... : ... .. . ... ... : ... .. . ... ... : ... .. . ... ... : ... .. . ... ...
ROW 98 : ... .. 8 ... ... ... : ... .. . ... ... ... : F#2 00 . ... : ... .. . ... : ... .. . ... ... : ... .. . ... ... : ... .. . ... ... : B-2 01 6 ... ...
ROW 99 : ... .. . ... ... ... : ... .. . ... ... ... : ... .. . ... : ... .. . ... : ... .. . ... ... : ... .. . ... ... : ... .. . ... ... : ... .. 5 ... ...
ROW 9A : ... .. . ... ... ... : ... .. . ... ... ... : ... .. . ... : ... .. . ... : ... .. . ... ... : ... .. . ... ... : ... .. . ... ... : ... .. 4 ... ...
ROW 9B : ... .. . ... ... ... : ... .. . ... ... ... : ... .. . ... : ... .. . ... : ... .. . ... ... : ... .. . ... ... : ... .. . ... ... : ... .. 3 ... ...
ROW 9C : ... .. . ... ... ... : ... .. . ... ... ... : ... .. . ... : ... .. . ... : ... .. . ... ... : ... .. . ... ... : ... .. . ... ... : ... .. 2 ... ...
ROW 9D : ... .. . ... ... ... : ... .. . ... ... ... : ... .. . ... : ... .. . ... : ... .. . ... ... : ... .. . ... ... : ... .. . ... ... : ... .. 1 ... ...
ROW 9E : ... .. . ... ... ... : ... .. . ... ... ... : ... .. . ... : ... .. . ... : ... .. . ... ... : ... .. . ... ... : ... .. . ... ... : ... .. . ... ...
ROW 9F : ... .. . ... ... ... : ... .. . ... ... ... : ... .. . ... : ... .. . ... : ... .. . ... ... : ... .. . ... ... : ... .. . ... ... : ... .. . ... ...
ROW A0 : ... .. . ... ... ... : ... .. . ... ... ... : ... .. . ... : ... .. . ... : ... .. . ... ... : ... .. . ... ... : ... .. . ... ... : ... .. . ... ...
ROW A1 : ... .. . ... ... ... : ... .. . ... ... ... : ... .. . ... : ... .. . ... : ... .. . ... ... : ... .. . ... ... : ... .. . ... ... : ... .. . ... ...
ROW A2 : ... .. . ... ... ... : ... .. 3 ... ... ... : ... .. . ... : ... .. . ... : ... .. . ... ... : ... .. . ... ... : ... .. . ... ... : ... .. 3 ... ...
ROW A3 : ... .. . ... ... ... : ... .. . ... ... ... : ... .. . ... : ... .. . ... : ... .. . ... ... : ... .. . ... ... : ... .. . ... ... : ... .. 2 ... ...
ROW A4 : ... .. . ... ... ... : ... .. . ... ... ... : ... .. . ... : ... .. . ... : ... .. . ... ... : ... .. . ... ... : ... .. . ... ... : ... .. . ... ...
ROW A5 : ... .. . ... ... ... : ... .. . ... ... ... : ... .. . ... : ... .. . ... : ... .. . ... ... : ... .. . ... ... : ... .. . ... ... : ... .. 1 ... ...
ROW A6 : ... .. . ... ... ... : ... .. . ... ... ... : ... .. . ... : ... .. . ... : ... .. . ... ... : ... .. . ... ... : ... .. . ... ... : ... .. . ... ...
ROW A7 : ... .. 9 ... ... ... : ... .. 4 ... ... ... : ... .. . ... : ... .. . ... : ... .. . ... ... : ... .. . ... ... : ... .. . ... ... : ... .. . ... ...
ROW A8 : ... .. . ... ... ... : ... .. . ... ... ... : ... .. . ... : ... .. . ... : ... .. . ... ... : ... .. . ... ... : ... .. . ... ... : ... .. . ... ...
ROW A9 : ... .. . ... ... ... : ... .. . ... ... ... : ... .. . ... : ... .. . ... : ... .. . ... ... : ... .. . ... ... : ... .. . ... ... : ... .. . ... ...
ROW AA : ... .. . ... ... ... : ... .. . ... ... ... : ... .. . ... : ... .. . ... : ... .. . ... ... : ... .. . ... ... : ... .. . ... ... : ... .. . ... ...
ROW AB : ... .. . ... ... ... : ... .. . ... ... ... : ... .. . ... : ... .. . ... : ... .. . ... ... : ... .. . ... ... : ... .. . ... ... : ... .. . ... ...
ROW AC : ... .. A ... ... ... : ... .. . ... ... ... : ... .. . ... : ... .. . ... : ... .. . ... ... : ... .. 4 ... ... : ... .. 4 ... ... : G-2 01 8 ... ...
ROW AD : ... .. . ... ... ... : ... .. . ... ... ... : ... .. . ... : ... .. . ... : ... .. . ... ... : ... .. . ... ... : ... .. . ... ... : ... .. 7 ... ...
ROW AE : ... .. . ... ... ... : ... .. . ... ... ... : ... .. . ... : ... .. . ... : ... .. . ... ... : ... .. . ... ... : ... .. . ... ... : ... .. 6 ... ...
ROW AF : ... .. . ... ... ... : ... .. . ... ... ... : ... .. . ... : ... .. . ... : ... .. . ... ... : ... .. . ... ... : ... .. . ... ... : ... .. 4 ... ...
ROW B0 : ... .. . ... ... ... : ... .. . ... ... ... : ... .. . ... : ... .. . ... : ... .. . ... ... : ... .. . ... ... : ... .. . ... ... : ... .. 3 ... ...
ROW B1 : ... .. 8 ... ... ... : ... .. . ... ... ... : ... .. . ... : ... .. . ... : ... .. . ... ... : ... .. 1 ... ... : ... .. 1 ... ... : ... .. 2 ... ...
ROW B2 : ... .. . ... ... ... : ... .. . ... ... ... : ... .. . ... : ... .. . ... : ... .. . ... ... : ... .. . ... ... : ... .. . ... ... : ... .. . ... ...
ROW B3 : ... .. . ... ... ... : ... .. . ... ... ... : ... .. . ... : ... .. . ... : ... .. . ... ... : ... .. . ... ... : ... .. . ... ... : ... .. 1 ... ...
ROW B4 : ... .. . ... ... ... : ... .. . ... ... ... : ... .. . ... : ... .. . ... : ... .. . ... ... : ... .. . ... ... : ... .. . ... ... : ... .. . ... ...
ROW B5 : ... .. . ... ... ... : ... .. . ... ... ... : ... .. . ... : ... .. . ... : ... .. . ... ... : ... .. . ... ... : ... .. . ... ... : ... .. . ... ...
ROW B6 : ... .. . ... ... ... : ... .. 5 ... ... ... : ... .. . ... : ... .. . ... : ... .. . ... ... : ... .. 4 ... ... : ... .. 4 ... ... : ... .. 3 ... ...
ROW B7 : ... .. . ... ... ... : ... .. . ... ... ... : ... .. . ... : ... .. . ... : ... .. . ... ... : ... .. . ... ... : ... .. . ... ... : ... .. 2 ... ...
ROW B8 : ... .. . ... ... ... : ... .. . ... ... ... : ... .. . ... : ... .. . ... : ... .. . ... ... : ... .. . ... ... : ... .. . ... ... : ... .. . ... ...
ROW B9 : ... .. . ... ... ... : ... .. . ... ... ... : ... .. . ... : ... .. . ... : ... .. . ... ... : ... .. . ... ... : ... .. . ... ... : ... .. 1 ... ...
ROW BA : ... .. . ... ... ... : ... .. . ... ... ... : ... .. . ... : ... .. . ... : ... .. . ... ... : ... .. . ... ... : ... .. . ... ... : ... .. . ... ...
ROW BB : ... .. . ... ... ... : ... .. 3 ... ... ... : ... .. . ... : ... .. . ... : ... .. . ... ... : ... .. 1 ... ... : ... .. 1 ... ... : ... .. . ... ...
ROW BC : ... .. . ... ... ... : ... .. . ... ... ... : ... .. . ... : ... .. . ... : ... .. . ... ... : ... .. . ... ... : ... .. . ... ... : ... .. . ... ...
ROW BD : ... .. . ... ... ... : ... .. . ... ... ... : ... .. . ... : ... .. . ... : ... .. . ... ... : ... .. . ... ... : ... .. . ... ... : ... .. . ... ...
ROW BE : ... .. . ... ... ... : ... .. . ... ... ... : ... .. . ... : ... .. . ... : ... .. . ... ... : ... .. . ... ... : ... .. . ... ... : ... .. . ... ...
ROW BF : ... .. . ... ... ... : ... .. . ... ... ... : ... .. . ... : ... .. . ... : ... .. . ... ... : ... .. . ... ... : ... .. . ... ... : ... .. . ... ...
ROW C0 : ... .. . ... ... ... : ... .. . ... ... ... : E-2 00 . ... : ... .. . ... : ... .. . ... ... : B-2 01 1 ... ... : ... .. . ... ... : E-2 01 6 ... ...
ROW C1 : ... .. . ... ... ... : ... .. . ... ... ... : ... .. . ... : ... .. . ... : ... .. . ... ... : ... .. . ... ... : ... .. . ... ... : ... .. 5 ... ...
ROW C2 : ... .. . ... ... ... : ... .. . ... ... ... : ... .. . ... : ... .. . ... : ... .. . ... ... : ... .. . ... ... : ... .. . ... ... : ... .. 4 ... ...
ROW C3 : ... .. . ... ... ... : ... .. . ... ... ... : ... .. . ... : ... .. . ... : ... .. . ... ... : ... .. . ... ... : ... .. . ... ... : ... .. 3 ... ...
ROW C4 : ... .. . ... ... ... : ... .. . ... ... ... : ... .. . ... : ... .. . ... : ... .. . ... ... : ... .. . ... ... : ... .. . ... ... : ... .. 2 ... ...
ROW C5 : ... .. . ... ... ... : ... .. 4 ... ... ... : ... .. . ... : ... .. . ... : ... .. . ... ... : ... .. . ... ... : ... .. . ... ... : ... .. 1 ... ...
ROW C6 : ... .. . ... ... ... : ... .. . ... ... ... : ... .. . ... : ... .. . ... : ... .. . ... ... : ... .. . ... ... : ... .. . ... ... : ... .. . ... ...
ROW C7 : ... .. . ... ... ... : ... .. . ... ... ... : ... .. . ... : ... .. . ... : ... .. . ... ... : ... .. . ... ... : ... .. . ... ... : ... .. . ... ...
ROW C8 : ... .. . ... ... ... : ... .. . ... ... ... : ... .. . ... : ... .. . ... : ... .. . ... ... : ... .. . ... ... : ... .. . ... ... : ... .. . ... ...
ROW C9 : ... .. . ... ... ... : ... .. . ... ... ... : ... .. . ... : ... .. . ... : ... .. . ... ... : ... .. . ... ... : ... .. . ... ... : ... .. . ... ...
ROW CA : ... .. 9 P82 ... ... : ... .. . ... ... ... : ... .. . ... : ... .. . ... : ... .. . ... ... : ... .. . ... ... : F#3 01 1 ... ... : ... .. 3 ... ...
ROW CB : ... .. . P84 ... ... : ... .. . ... ... ... : ... .. . ... : ... .. . ... : ... .. . ... ... : ... .. . ... ... : ... .. . ... ... : ... .. 2 ... ...
ROW CC : ... .. . ... ... ... : ... .. . ... ... ... : ... .. . ... : ... .. . ... : ... .. . ... ... : ... .. . ... ... : ... .. . ... ... : ... .. . ... ...
ROW CD : ... .. . P83 ... ... : ... .. . ... ... ... : ... .. . ... : ... .. . ... : ... .. . ... ... : ... .. . ... ... : ... .. . ... ... : ... .. 1 ... ...
ROW CE : ... .. . P80 ... ... : ... .. . ... ... ... : ... .. . ... : ... .. . ... : ... .. . ... ... : ... .. . ... ... : ... .. . ... ... : ... .. . ... ...
ROW CF : ... .. . P7F ... ... : ... .. . ... ... ... : ... .. . ... : ... .. . ... : ... .. . ... ... : ... .. . ... ... : ... .. . ... ... : ... .. . ... ...
ROW D0 : ... .. . P7C ... ... : ... .. . ... ... ... : ... .. . ... : ... .. . ... : ... .. . ... ... : ... .. . ... ... : ... .. . ... ... : ... .. . ... ...
ROW D1 : ... .. . ... ... ... : ... .. . ... ... ... : ... .. . ... : ... .. . ... : ... .. . ... ... : ... .. . ... ... : ... .. . ... ... : ... .. . ... ...
ROW D2 : ... .. . P7D ... ... : ... .. . ... ... ... : ... .. . ... : ... .. . ... : ... .. . ... ... : ... .. . ... ... : ... .. . ... ... : ... .. . ... ...
ROW D3 : ... .. . P7F ... ... : ... .. . ... ... ... : ... .. . ... : ... .. . ... : ... .. . ... ... : ... .. . ... ... : ... .. . ... ... : ... .. . ... ...
ROW D4 : ... .. A P80 ... ... : ... .. . P83 ... ... : ... .. . ... : ... .. . ... : ... .. . ... ... : G-2 01 6 ... ... : G-3 01 6 ... ... : ... .. 8 ... ...
ROW D5 : ... .. . P83 ... ... : ... .. . P85 ... ... : ... .. . ... : ... .. . ... : ... .. . ... ... : ... .. . ... ... : ... .. . ... ... : ... .. 7 ... ...
ROW D6 : ... .. . P84 ... ... : ... .. . ... ... ... : ... .. . ... : ... .. . ... : ... .. . ... ... : ... .. . ... ... : ... .. . ... ... : ... .. 6 ... ...
ROW D7 : ... .. . ... ... ... : ... .. . P84 ... ... : ... .. . ... : ... .. . ... : ... .. . ... ... : ... .. 5 ... ... : ... .. 5 ... ... : ... .. 4 ... ...
ROW D8 : ... .. . P82 ... ... : ... .. . P81 ... ... : ... .. . ... : ... .. . ... : ... .. . ... ... : ... .. 4 ... ... : ... .. 4 ... ... : ... .. 3 ... ...
ROW D9 : ... .. 9 P80 ... ... : ... .. . P80 ... ... : ... .. . ... : ... .. . ... : ... .. . ... ... : ... .. 1 ... ... : ... .. 1 ... ... : ... .. 2 ... ...
ROW DA : ... .. . P7E ... ... : ... .. . P7D ... ... : ... .. . ... : ... .. . ... : ... .. . ... ... : ... .. . ... ... : ... .. . ... ... : ... .. . ... ...
ROW DB : ... .. . P7C ... ... : ... .. . ... ... ... : ... .. . ... : ... .. . ... : ... .. . ... ... : ... .. . ... ... : ... .. . ... ... : ... .. 1 ... ...
ROW DC : ... .. . ... ... ... : ... .. . P7E ... ... : ... .. . ... : ... .. . ... : ... .. . ... ... : ... .. . ... ... : ... .. . ... ... : ... .. . ... ...
ROW DD : ... .. . P7D ... ... : ... .. . P80 ... ... : ... .. . ... : ... .. . ... : ... .. . ... ... : ... .. . ... ... : ... .. . ... ... : ... .. . ... ...
ROW DE : ... .. 8 P80 ... ... : ... .. 5 P81 ... ... : ... .. . ... : ... .. . ... : ... .. . ... ... : ... .. 4 ... ... : E-3 01 6 ... ... : ... .. 3 ... ...
ROW DF : ... .. . P81 ... ... : ... .. . P84 ... ... : ... .. . ... : ... .. . ... : ... .. . ... ... : ... .. . ... ... : ... .. . ... ... : ... .. 2 ... ...
ROW E0 : ... .. . P84 ... ... : ... .. . P85 ... ... : ... .. . ... : ... .. . ... : ... .. . ... ... : ... .. . ... ... : ... .. . ... ... : ... .. . ... ...
ROW E1 : ... .. . ... ... ... : ... .. . ... ... ... : ... .. . ... : ... .. . ... : ... .. . ... ... : ... .. . ... ... : ... .. 5 ... ... : ... .. 1 ... ...
ROW E2 : ... .. . P83 ... ... : ... .. . P83 ... ... : ... .. . ... : ... .. . ... : ... .. . ... ... : ... .. . ... ... : ... .. 4 ... ... : ... .. . ... ...
ROW E3 : ... .. . P81 ... ... : ... .. 4 P81 ... ... : ... .. . ... : ... .. . ... : ... .. . ... ... : ... .. 1 ... ... : ... .. 1 ... ... : ... .. . ... ...
ROW E4 : ... .. . P80 ... ... : ... .. . P7F ... ... : ... .. . ... : ... .. . ... : ... .. . ... ... : ... .. . ... ... : ... .. . ... ... : ... .. . ... ...
ROW E5 : ... .. . P7D ... ... : ... .. . P7D ... ... : ... .. . ... : ... .. . ... : ... .. . ... ... : ... .. . ... ... : ... .. . ... ... : ... .. . ... ...
ROW E6 : ... .. . P7C ... ... : ... .. . ... ... ... : ... .. . ... : ... .. . ... : ... .. . ... ... : ... .. . ... ... : ... .. . ... ... : ... .. . ... ...
ROW E7 : ... .. . ... ... ... : ... .. . P7E ... ... : ... .. . ... : ... .. . ... : ... .. . ... ... : ... .. . ... ... : ... .. . ... ... : ... .. . ... ...
ROW E8 : ... .. . P7E ... ... : ... .. . P81 ... ... : ... .. . ... : ... .. . ... : ... .. . ... ... : B-2 01 2 ... ... : G-3 01 2 ... ... : ... .. 6 ... ...
ROW E9 : ... .. . P80 ... ... : ... .. . P82 ... ... : ... .. . ... : ... .. . ... : ... .. . ... ... : ... .. . ... ... : ... .. . ... ... : ... .. 5 ... ...
ROW EA : ... .. . P82 ... ... : ... .. . P85 ... ... : ... .. . ... : ... .. . ... : ... .. . ... ... : ... .. . ... ... : ... .. . ... ... : ... .. 4 ... ...
ROW EB : ... .. . P84 ... ... : ... .. . ... ... ... : ... .. . ... : ... .. . ... : ... .. . ... ... : ... .. . ... ... : ... .. . ... ... : ... .. 3 ... ...
ROW EC : ... .. . ... ... ... : ... .. . P84 ... ... : ... .. . ... : ... .. . ... : ... .. . ... ... : ... .. 1 ... ... : ... .. 1 ... ... : ... .. 2 ... ...
ROW ED : ... .. . P83 ... ... : ... .. . P82 ... ... : ... .. . ... : ... .. . ... : ... .. . ... ... : ... .. . ... ... : ... .. . ... ... : ... .. 1 ... ...
ROW EE : ... .. . P80 ... ... : ... .. . P81 ... ... : ... .. . ... : ... .. . ... : ... .. . ... ... : ... .. . ... ... : ... .. . ... ... : ... .. . ... ...
ROW EF : ... .. . P7F ... ... : ... .. . P7E ... ... : ... .. . ... : ... .. . ... : ... .. . ... ... : ... .. . ... ... : ... .. . ... ... : ... .. . ... ...
ROW F0 : ... .. . P7C ... ... : ... .. . P7D ... ... : ... .. . ... : ... .. . ... : ... .. . ... ... : ... .. . ... ... : ... .. . ... ... : ... .. . ... ...
ROW F1 : ... .. . ... ... ... : ... .. . ... ... ... : ... .. . ... : ... .. . ... : ... .. . ... ... : ... .. . ... ... : ... .. . ... ... : ... .. . ... ...
ROW F2 : ... .. 7 P7D ... ... : ... .. 3 P7F ... ... : ... .. . ... : ... .. . ... : ... .. . ... ... : ... .. . ... ... : F#3 01 1 ... ... : ... .. 3 ... ...
ROW F3 : ... .. . P7F ... ... : ... .. . P81 ... ... : ... .. . ... : ... .. . ... : ... .. . ... ... : ... .. . ... ... : ... .. . ... ... : ... .. 2 ... ...
ROW F4 : ... .. . P80 ... ... : ... .. . P83 ... ... : ... .. . ... : ... .. . ... : ... .. . ... ... : ... .. . ... ... : ... .. . ... ... : ... .. . ... ...
ROW F5 : ... .. . P83 ... ... : ... .. . P85 ... ... : ... .. . ... : ... .. . ... : ... .. . ... ... : ... .. . ... ... : ... .. . ... ... : ... .. 1 ... ...
ROW F6 : ... .. . P84 ... ... : ... .. . ... ... ... : ... .. . ... : ... .. . ... : ... .. . ... ... : ... .. . ... ... : ... .. . ... ... : ... .. . ... ...
ROW F7 : ... .. 6 ... ... ... : ... .. . P84 ... ... : ... .. . ... : ... .. . ... : ... .. . ... ... : ... .. . ... ... : ... .. . ... ... : ... .. . ... ...
ROW F8 : ... .. . P82 ... ... : ... .. . P81 ... ... : ... .. . ... : ... .. . ... : ... .. . ... ... : ... .. . ... ... : ... .. . ... ... : ... .. . ... ...
ROW F9 : ... .. . P80 ... ... : ... .. . P80 ... ... : ... .. . ... : ... .. . ... : ... .. . ... ... : ... .. . ... ... : ... .. . ... ... : ... .. . ... ...
ROW FA : ... .. . P7E ... ... : ... .. . P7D ... ... : ... .. . ... : ... .. . ... : ... .. . ... ... : ... .. . ... ... : ... .. . ... ... : ... .. . ... ...
ROW FB : ... .. . P7C ... ... : ... .. . ... ... ... : ... .. . ... : ... .. . ... : ... .. . ... ... : ... .. . ... ... : ... .. . ... ... : ... .. . ... ...
ROW FC : ... .. . ... ... ... : ... .. 2 P7E ... ... : D-2 00 . ... : ... .. . ... : ... .. . ... ... : F#3 01 6 ... ... : G-3 01 6 ... ... : D-2 01 8 ... ...
ROW FD : ... .. . P7D ... ... : ... .. . P80 ... ... : ... .. . ... : ... .. . ... : ... .. . ... ... : ... .. . ... ... : ... .. . ... ... : ... .. 7 ... ...
ROW FE : ... .. . P80 ... ... : ... .. . P81 ... ... : ... .. . ... : ... .. . ... : ... .. . ... ... : ... .. . ... ... : ... .. . ... ... : ... .. 6 ... ...
ROW FF : ... .. . P81 ... ... : ... .. . P84 ... ... : ... .. . ... : ... .. . ... : ... .. . ... ... : ... .. 5 ... ... : ... .. 5 ... ... : ... .. 4 ... ...

PATTERN 13
ROW 00 : ... .. . P84 ... ... : ... .. . P85 ... ... : ... .. . ... : ... .. . ... : ... .. . ... ... : ... .. 4 ... ... : ... .. 4 ... ... : ... .. 3 ... ...
ROW 01 : ... .. . ... ... ... : ... .. . ... ... ... : ... .. . ... : ... .. . ... : ... .. . ... ... : ... .. 1 ... ... : ... .. 1 ... ... : ... .. 2 ... ...
ROW 02 : ... .. . P83 ... ... : ... .. . P83 ... ... : ... .. . ... : ... .. . ... : ... .. . ... ... : ... .. . ... ... : ... .. . ... ... : ... .. . ... ...
ROW 03 : ... .. . P81 ... ... : ... .. . P81 ... ... : ... .. . ... : ... .. . ... : ... .. . ... ... : ... .. . ... ... : ... .. . ... ... : ... .. 1 ... ...
ROW 04 : ... .. . P80 ... ... : ... .. . P7F ... ... : ... .. . ... : ... .. . ... : ... .. . ... ... : ... .. . ... ... : ... .. . ... ... : ... .. . ... ...
ROW 05 : ... .. . P7D ... ... : ... .. . P7D ... ... : ... .. . ... : ... .. . ... : ... .. . ... ... : ... .. . ... ... : ... .. . ... ... : ... .. . ... ...
ROW 06 : ... .. . P7C ... ... : ... .. . ... ... ... : ... .. . ... : ... .. . ... : ... .. . ... ... : ... .. 4 ... ... : E-3 01 6 ... ... : ... .. 3 ... ...
ROW 07 : ... .. . ... ... ... : ... .. . P7E ... ... : ... .. . ... : ... .. . ... : ... .. . ... ... : ... .. . ... ... : ... .. . ... ... : ... .. 2 ... ...
ROW 08 : ... .. . P7E ... ... : ... .. . P81 ... ... : ... .. . ... : ... .. . ... : ... .. . ... ... : ... .. . ... ... : ... .. . ... ... : ... .. . ... ...
ROW 09 : ... .. . P80 ... ... : ... .. . P82 ... ... : ... .. . ... : ... .. . ... : ... .. . ... ... : ... .. . ... ... : ... .. 5 ... ... : ... .. 1 ... ...
ROW 0A : ... .. . P82 ... ... : ... .. . P85 ... ... : ... .. . ... : ... .. . ... : ... .. . ... ... : ... .. . ... ... : ... .. 4 ... ... : ... .. . ... ...
ROW 0B : ... .. 5 P84 ... ... : ... .. 1 ... ... ... : ... .. . ... : ... .. . ... : ... .. . ... ... : ... .. 1 ... ... : ... .. 1 ... ... : ... .. . ... ...
ROW 0C : ... .. . ... ... ... : ... .. . P84 ... ... : ... .. . ... : ... .. . ... : ... .. . ... ... : ... .. . ... ... : ... .. . ... ... : ... .. . ... ...
ROW 0D : ... .. . P83 ... ... : ... .. . P82 ... ... : ... .. . ... : ... .. . ... : ... .. . ... ... : ... .. . ... ... : ... .. . ... ... : ... .. . ... ...
ROW 0E : ... .. . P80 ... ... : ... .. . P81 ... ... : ... .. . ... : ... .. . ... : ... .. . ... ... : ... .. . ... ... : ... .. . ... ... : ... .. . ... ...
ROW 0F : ... .. . P7F ... ... : ... .. . P7E ... ... : ... .. . ... : ... .. . ... : ... .. . ... ... : ... .. . ... ... : ... .. . ... ... : ... .. . ... ...
ROW 10 : ... .. . P7C ... ... : ... .. . P7D ... ... : C#2 00 . ... : ... .. . ... : ... .. . ... ... : B-2 01 1 ... ... : G-3 01 1 ... ... : C#2 01 6 ... ...
ROW 11 : ... .. . ... ... ... : ... .. . ... ... ... : ... .. . ... : ... .. . ... : ... .. . ... ... : ... .. . ... ... : ... .. . ... ... : ... .. 5 ... ...
ROW 12 : ... .. . P7D ... ... : ... .. . P7F ... ... : ... .. . ... : ... .. . ... : ... .. . ... ... : ... .. . ... ... : ... .. . ... ... : ... .. 4 ... ...
ROW 13 : ... .. . P7F ... ... : ... .. . P81 ... ... : ... .. . ... : ... .. . ... : ... .. . ... ... : ... .. . ... ... : ... .. . ... ... : ... .. 3 ... ...
ROW 14 : ... .. . P80 ... ... : ... .. . P83 ... ... : ... .. . ... : ... .. . ... : ... .. . ... ... : ... .. . ... ... : ... .. . ... ... : ... .. 2 ... ...
ROW 15 : ... .. . P83 ... ... : ... .. . P85 ... ... : ... .. . ... : ... .. . ... : ... .. . ... ... : ... .. . ... ... : ... .. . ... ... : ... .. 1 ... ...
ROW 16 : ... .. . P84 ... ... : ... .. . ... ... ... : ... .. . ... : ... .. . ... : ... .. . ... ... : ... .. . ... ... : ... .. . ... ... : ... .. . ... ...
ROW 17 : ... .. . ... ... ... : ... .. . P84 ... ... : ... .. . ... : ... .. . ... : ... .. . ... ... : ... .. . ... ... : ... .. . ... ... : ... .. . ... ...
ROW 18 : ... .. . P82 ... ... : ... .. . P81 ... ... : ... .. . ... : ... .. . ... : ... .. . ... ... : ... .. . ... ... : ... .. . ... ... : ... .. . ... ...
ROW 19 : ... .. . P80 ... ... : ... .. . P80 ... ... : ... .. . ... : ... .. . ... : ... .. . ... ... : ... .. . ... ... : ... .. . ... ... : ... .. . ... ...
ROW 1A : ... .. . P7E ... ... : ... .. . P7D ... ... : ... .. . ... : ... .. . ... : ... .. . ... ... : ... .. . ... ... : F#3 01 1 ... ... : ... .. 3 ... ...
ROW 1B : ... .. . P7C ... ... : ... .. . ... ... ... : ... .. . ... : ... .. . ... : ... .. . ... ... : ... .. . ... ... : ... .. . ... ... : ... .. 2 ... ...
ROW 1C : ... .. . ... ... ... : ... .. . P7E ... ... : ... .. . ... : ... .. . ... : ... .. . ... ... : ... .. . ... ... : ... .. . ... ... : ... .. . ... ...
ROW 1D : ... .. . P7D ... ... : ... .. . P80 ... ... : ... .. . ... : ... .. . ... : ... .. . ... ... : ... .. . ... ... : ... .. . ... ... : ... .. 1 ... ...
ROW 1E : ... .. . P80 ... ... : ... .. . P81 ... ... : ... .. . ... : ... .. . ... : ... .. . ... ... : ... .. . ... ... : ... .. . ... ... : ... .. . ... ...
ROW 1F : ... .. . P81 ... ... : ... .. . P84 ... ... : ... .. . ... : ... .. . ... : ... .. . ... ... : ... .. . ... ... : ... .. . ... ... : ... .. . ... ...
ROW 20 : ... .. . P84 ... ... : ... .. . P85 ... ... : ... .. . ... : ... .. . ... : ... .. . ... ... : ... .. . ... ... : ... .. . ... ... : ... .. . ... ...
ROW 21 : ... .. . ... ... ... : ... .. . ... ... ... : ... .. . ... : ... .. . ... : ... .. . ... ... : ... .. . ... ... : ... .. . ... ... : ... .. . ... ...
ROW 22 : ... .. . P83 ... ... : ... .. . P83 ... ... : ... .. . ... : ... .. . ... : ... .. . ... ... : ... .. . ... ... : ... .. . ... ... : ... .. . ... ...
ROW 23 : ... .. . P81 ... ... : ... .. . P81 ... ... : ... .. . ... : ... .. . ... : ... .. . ... ... : ... .. . ... ... : ... .. . ... ... : ... .. . ... ...
ROW 24 : ... .. . P80 ... ... : ... .. . P7F ... ... : ... .. . ... : ... .. . ... : ... .. . ... ... : G-2 01 6 ... ... : G-3 01 6 ... ... : ... .. 6 ... ...
ROW 25 : ... .. 1 P7D ... ... : ... .. . P7D ... ... : ... .. . ... : ... .. . ... : ... .. . ... ... : ... .. . ... ... : ... .. . ... ... : ... .. 5 ... ...
ROW 26 : ... .. . P7C ... ... : ... .. . ... ... ... : ... .. . ... : ... .. . ... : ... .. . ... ... : ... .. . ... ... : ... .. . ... ... : ... .. 4 ... ...
ROW 27 : ... .. . ... ... ... : ... .. . P7E ... ... : ... .. . ... : ... .. . ... : ... .. . ... ... : ... .. 5 ... ... : ... .. 5 ... ... : ... .. 3 ... ...
ROW 28 : ... .. . P7E ... ... : ... .. . P81 ... ... : ... .. . ... : ... .. . ... : ... .. . ... ... : ... .. 4 ... ... : ... .. 4 ... ... : ... .. 2 ... ...
ROW 29 : ... .. . P80 ... ... : ... .. . P82 ... ... : ... .. . ... : ... .. . ... : ... .. . ... ... : ... .. 1 ... ... : ... .. 1 ... ... : ... .. 1 ... ...
ROW 2A : ... .. . P82 ... ... : ... .. . P85 ... ... : ... .. . ... : ... .. . ... : ... .. . ... ... : ... .. . ... ... : ... .. . ... ... : ... .. . ... ...
ROW 2B : ... .. 0 ... V00 ... : ... .. . ... ... ... : ... .. . ... : ... .. . ... : ... .. . ... ... : ... .. . ... ... : ... .. . ... ... : ... .. . ... ...
ROW 2C : ... .. . ... ... ... : ... .. . P84 ... ... : ... .. . ... : ... .. . ... : ... .. . ... ... : ... .. . ... ... : ... .. . ... ... : ... .. . ... ...
ROW 2D : ... .. . ... ... ... : ... .. . P82 ... ... : ... .. . ... : ... .. . ... : ... .. . ... ... : ... .. . ... ... : ... .. . ... ... : ... .. . ... ...
ROW 2E : ... .. . ... ... ... : ... .. . P81 ... ... : ... .. . ... : ... .. . ... : ... .. . ... ... : ... .. 4 ... ... : E-3 01 6 ... ... : ... .. 8 ... ...
ROW 2F : ... .. . ... ... ... : ... .. . P7E ... ... : ... .. . ... : ... .. . ... : ... .. . ... ... : ... .. . ... ... : ... .. . ... ... : ... .. 7 ... ...
ROW 30 : ... .. . ... ... ... : ... .. . P7D ... ... : ... .. . ... : ... .. . ... : ... .. . ... ... : ... .. . ... ... : ... .. . ... ... : ... .. 6 ... ...
ROW 31 : ... .. . ... ... ... : ... .. . ... ... ... : ... .. . ... : ... .. . ... : ... .. . ... ... : ... .. . ... ... : ... .. 5 ... ... : ... .. 4 ... ...
ROW 32 : ... .. . ... ... ... : ... .. . P7F ... ... : ... .. . ... : ... .. . ... : ... .. . ... ... : ... .. . ... ... : ... .. 4 ... ... : ... .. 3 ... ...
ROW 33 : ... .. . ... ... ... : ... .. . P81 ... ... : ... .. . ... : ... .. . ... : ... .. . ... ... : ... .. 1 ... ... : ... .. 1 ... ... : ... .. 2 ... ...
ROW 34 : ... .. . ... ... ... : ... .. . P83 ... ... : ... .. . ... : ... .. . ... : ... .. . ... ... : ... .. . ... ... : ... .. . ... ... : ... .. . ... ...
ROW 35 : ... .. . ... ... ... : ... .. 0 ... V00 ... : ... .. . ... : ... .. . ... : ... .. . ... ... : ... .. . ... ... : ... .. . ... ... : ... .. 1 ... ...
ROW 36 : ... .. . ... ... ... : ... .. . ... ... ... : ... .. . ... : ... .. . ... : ... .. . ... ... : ... .. . ... ... : ... .. . ... ... : ... .. . ... ...
ROW 37 : ... .. . ... ... ... : ... .. . ... ... ... : ... .. . ... : ... .. . ... : ... .. . ... ... : ... .. . ... ... : ... .. . ... ... : ... .. . ... ...
ROW 38 : F#2 00 A P80 ... ... : ... .. . ... ... ... : F#2 00 . ... : ... .. . ... : ... .. . ... ... : E-3 01 2 ... ... : G-3 01 2 ... ... : ... .. 3 ... ...
ROW 39 : ... .. 9 ... ... ... : ... .. . ... ... ... : ... .. . ... : ... .. . ... : ... .. . ... ... : ... .. . ... ... : ... .. . ... ... : ... .. 2 ... ...
ROW 3A : ... .. 8 ... ... ... : ... .. . ... ... ... : ... .. . ... : ... .. . ... : ... .. . ... ... : ... .. . ... ... : ... .. . ... ... : ... .. . ... ...
ROW 3B : ... .. 6 ... ... ... : ... .. . ... ... ... : ... .. . ... : ... .. . ... : ... .. . ... ... : ... .. . ... ... : ... .. . ... ... : ... .. 1 ... ...
ROW 3C : ... .. . ... ... ... : ... .. . ... ... ... : ... .. . ... : ... .. . ... : ... .. . ... ... : ... .. 1 ... ... : ... .. 1 ... ... : ... .. . ... ...
ROW 3D : ... .. . ... ... ... : ... .. . ... ... ... : ... .. . ... : ... .. . ... : ... .. . ... ... : ... .. . ... ... : ... .. . ... ... : ... .. . ... ...
ROW 3E : ... .. . ... ... ... : ... .. . ... ... ... : ... .. . ... : ... .. . ... : ... .. . ... ... : ... .. . ... ... : ... .. . ... ... : ... .. . ... ...
ROW 3F : ... .. . ... ... ... : ... .. . ... ... ... : ... .. . ... : ... .. . ... : ... .. . ... ... : ... .. . ... ... : ... .. . ... ... : ... .. . ... ...
ROW 40 : ... .. . ... ... ... : ... .. . ... ... ... : ... .. . ... : ... .. . ... : ... .. . ... ... : ... .. . ... ... : ... .. . ... ... : ... .. . ... ...
ROW 41 : ... .. . ... ... ... : ... .. . ... ... ... : ... .. . ... : ... .. . ... : ... .. . ... ... : ... .. . ... ... : ... .. . ... ... : ... .. . ... ...
ROW 42 : ... .. . ... ... ... : F#2 00 3 P81 ... ... : ... .. . ... : ... .. . ... : ... .. . ... ... : ... .. . ... ... : F#3 01 1 ... ... : ... .. 6 ... ...
ROW 43 : ... .. . ... ... ... : ... .. 2 ... ... ... : ... .. . ... : ... .. . ... : ... .. . ... ... : ... .. . ... ... : ... .. . ... ... : ... .. 5 ... ...
ROW 44 : ... .. . ... ... ... : ... .. . ... ... ... : ... .. . ... : ... .. . ... : ... .. . ... ... : ... .. . ... ... : ... .. . ... ... : ... .. 4 ... ...
ROW 45 : ... .. . ... ... ... : ... .. . ... ... ... : ... .. . ... : ... .. . ... : ... .. . ... ... : ... .. . ... ... : ... .. . ... ... : ... .. 3 ... ...
ROW 46 : ... .. . ... ... ... : ... .. . ... ... ... : ... .. . ... : ... .. . ... : ... .. . ... ... : ... .. . ... ... : ... .. . ... ... : ... .. 2 ... ...
ROW 47 : ... .. . ... ... ... : ... .. . ... ... ... : ... .. . ... : ... .. . ... : ... .. . ... ... : ... .. . ... ... : ... .. . ... ... : ... .. 1 ... ...
ROW 48 : ... .. . ... ... ... : ... .. . ... ... ... : ... .. . ... : ... .. . ... : ... .. . ... ... : ... .. . ... ... : ... .. . ... ... : ... .. . ... ...
ROW 49 : ... .. . ... ... ... : ... .. . ... ... ... : ... .. . ... : ... .. . ... : ... .. . ... ... : ... .. . ... ... : ... .. . ... ... : ... .. . ... ...
ROW 4A : ... .. . ... ... ... : ... .. . ... ... ... : ... .. . ... : ... .. . ... : ... .. . ... ... : ... .. . ... ... : ... .. . ... ... : ... .. . ... ...
ROW 4B : ... .. . ... ... ... : ... .. . ... ... ... : ... .. . ... : ... .. . ... : ... .. . ... ... : ... .. . ... ... : ... .. . ... ... : ... .. . ... ...
ROW 4C : C#3 00 F ... ... ... : ... .. . ... ... ... : ... .. . ... : ... .. . ... : ... .. . ... ... : C#3 01 6 ... ... : G-3 01 6 ... ... : F#2 01 3 ... ...
ROW 4D : ... .. E ... ... ... : ... .. . ... ... ... : ... .. . ... : ... .. . ... : ... .. . ... ... : ... .. . ... ... : ... .. . ... ... : ... .. 2 ... ...
ROW 4E : ... .. D ... ... ... : ... .. . ... ... ... : ... .. . ... : ... .. . ... : ... .. . ... ... : ... .. . ... ... : ... .. . ... ... : ... .. . ... ...
ROW 4F : ... .. A ... ... ... : ... .. . ... ... ... : ... .. . ... : ... .. . ... : ... .. . ... ... : ... .. 5 ... ... : ... .. 5 ... ... : ... .. 1 ... ...
ROW 50 : ... .. . ... ... ... : ... .. . ... ... ... : ... .. . ... : ... .. . ... : ... .. . ... ... : ... .. 4 ... ... : ... .. 4 ... ... : ... .. . ... ...
ROW 51 : ... .. . ... ... ... : ... .. . ... ... ... : ... .. . ... : ... .. . ... : ... .. . ... ... : ... .. 1 ... ... : ... .. 1 ... ... : ... .. . ... ...
ROW 52 : ... .. . ... ... ... : ... .. . ... ... ... : ... .. . ... : ... .. . ... : ... .. . ... ... : ... .. . ... ... : ... .. . ... ... : ... .. . ... ...
ROW 53 : ... .. . ... ... ... : ... .. . ... ... ... : ... .. . ... : ... .. . ... : ... .. . ... ... : ... .. . ... ... : ... .. . ... ... : ... .. . ... ...
ROW 54 : ... .. . ... ... ... : ... .. . ... ... ... : ... .. . ... : ... .. . ... : ... .. . ... ... : ... .. . ... ... : ... .. . ... ... : ... .. . ... ...
ROW 55 : ... .. . ... ... ... : ... .. . ... ... ... : ... .. . ... : ... .. . ... : ... .. . ... ... : ... .. . ... ... : ... .. . ... ... : ... .. . ... ...
ROW 56 : ... .. . ... ... ... : C#3 00 8 ... ... ... : ... .. . ... : ... .. . ... : ... .. . ... ... : ... .. 4 ... ... : E-3 01 6 ... ... : ... .. 8 ... ...
ROW 57 : ... .. 2 ... ... ... : ... .. 7 ... ... ... : ... .. . ... : ... .. . ... : ... .. . ... ... : ... .. . ... ... : ... .. . ... ... : ... .. 7 ... ...
ROW 58 : ... .. . ... ... ... : ... .. 6 ... ... ... : ... .. . ... : ... .. . ... : ... .. . ... ... : ... .. . ... ... : ... .. . ... ... : ... .. 6 ... ...
ROW 59 : ... .. . ... ... ... : ... .. 5 ... ... ... : ... .. . ... : ... .. . ... : ... .. . ... ... : ... .. . ... ... : ... .. 5 ... ... : ... .. 4 ... ...
ROW 5A : ... .. 1 ... ... ... : ... .. . ... ... ... : ... .. . ... : ... .. . ... : ... .. . ... ... : ... .. . ... ... : ... .. 4 ... ... : ... .. 3 ... ...
ROW 5B : ... .. . ... ... ... : ... .. . ... ... ... : ... .. . ... : ... .. . ... : ... .. . ... ... : ... .. 1 ... ... : ... .. 1 ... ... : ... .. 2 ... ...
ROW 5C : ... .. . ... ... ... : ... .. . ... ... ... : ... .. . ... : ... .. . ... : ... .. . ... ... : ... .. . ... ... : ... .. . ... ... : ... .. . ... ...
ROW 5D : ... .. 0 ... ... ... : ... .. . ... ... ... : ... .. . ... : ... .. . ... : ... .. . ... ... : ... .. . ... ... : ... .. . ... ... : ... .. 1 ... ...
ROW 5E : ... .. . ... ... ... : ... .. . ... ... ... : ... .. . ... : ... .. . ... : ... .. . ... ... : ... .. . ... ... : ... .. . ... ... : ... .. . ... ...
ROW 5F : ... .. . ... ... ... : ... .. . ... ... ... : ... .. . ... : ... .. . ... : ... .. . ... ... : ... .. . ... ... : ... .. . ... ... : ... .. . ... ...
ROW 60 : C#3 00 F P80 ... ... : B-2 00 5 ... ... ... : B-1 00 . ... : ... .. . ... : ... .. . ... ... : F#3 01 1 ... V05 : D#4 01 1 ... V05 : D#3 01 1 P7F ...
ROW 61 : ... .. E ... ... ... : ... .. 8 ... ... ... : ... .. . ... : ... .. . ... : ... .. . ... ... : ... .. . ... ... : ... .. . ... ... : ... .. . ... ...
ROW 62 : ... .. D ... ... ... : ... .. 5 ... ... ... : ... .. . ... : ... .. . ... : ... .. . ... ... : ... .. . ... ... : ... .. . ... ... : ... .. . ... ...
ROW 63 : ... .. A ... ... ... : ... .. 0 ... ... ... : ... .. . ... : ... .. . ... : ... .. . ... ... : ... .. . ... ... : ... .. . ... ... : ... .. . ... ...
ROW 64 : ... .. . ... ... ... : B-2 00 4 P81 ... ... : ... .. . ... : ... .. . ... : ... .. . ... ... : ... .. . ... ... : ... .. . ... ... : ... .. . ... ...
ROW 65 : ... .. 8 ... ... ... : ... .. 6 ... ... ... : ... .. . ... : ... .. . ... : ... .. . ... ... : ... .. . ... ... : ... .. . ... ... : ... .. . ... ...
ROW 66 : ... .. . ... ... ... : ... .. 0 ... ... ... : ... .. . ... : ... .. . ... : ... .. . ... ... : ... .. . ... ... : ... .. . ... ... : ... .. . ... ...
ROW 67 : ... .. . ... ... ... : ... .. . ... ... ... : ... .. . ... : ... .. . ... : ... .. . ... ... : ... .. . ... ... : ... .. . ... ... : ... .. . ... ...
ROW 68 : ... .. . ... ... ... : ... .. . ... ... ... : ... .. . ... : ... .. . ... : ... .. . ... ... : ... .. . ... ... : ... .. . ... ... : ... .. . ... ...
ROW 69 : ... .. . ... ... ... : ... .. . ... ... ... : ... .. . ... : ... .. . ... : ... .. . ... ... : ... .. . ... ... : ... .. . ... ... : ... .. . ... ...
ROW 6A : ... .. . ... ... ... : F#2 00 5 P81 ... ... : ... .. . ... : ... .. . ... : ... .. . ... ... : ... .. . ... ... : ... .. . ... ... : ... .. . ... ...
ROW 6B : ... .. . ... ... ... : ... .. 8 ... ... ... : ... .. . ... : ... .. . ... : ... .. . ... ... : ... .. . ... ... : ... .. . ... ... : ... .. . ... ...
ROW 6C : ... .. . ... ... ... : ... .. 5 ... ... ... : ... .. . ... : ... .. . ... : ... .. . ... ... : ... .. . ... ... : ... .. . ... ... : ... .. . ... ...
ROW 6D : ... .. . ... ... ... : ... .. 0 ... ... ... : ... .. . ... : ... .. . ... : ... .. . ... ... : ... .. . ... ... : ... .. . ... ... : ... .. . ... ...
ROW 6E : ... .. . ... ... ... : F#2 00 4 P81 ... ... : ... .. . ... : ... .. . ... : ... .. . ... ... : ... .. . ... ... : ... .. . ... ... : ... .. . ... ...
ROW 6F : ... .. 7 ... ... ... : ... .. 6 ... ... ... : ... .. . ... : ... .. . ... : ... .. . ... ... : ... .. . ... ... : ... .. . ... ... : ... .. . ... ...
ROW 70 : ... .. . ... ... ... : ... .. 0 ... ... ... : ... .. . ... : ... .. . ... : ... .. . ... ... : ... .. . ... ... : ... .. . ... ... : ... .. . ... ...
ROW 71 : ... .. . ... ... ... : ... .. . ... ... ... : ... .. . ... : ... .. . ... : ... .. . ... ... : ... .. . ... ... : ... .. . ... ... : ... .. . ... ...
ROW 72 : ... .. . ... ... ... : ... .. . ... ... ... : ... .. . ... : ... .. . ... : ... .. . ... ... : ... .. . ... ... : ... .. . ... ... : ... .. . ... ...
ROW 73 : ... .. . ... ... ... : ... .. . ... ... ... : ... .. . ... : ... .. . ... : ... .. . ... ... : ... .. . ... ... : ... .. . ... ... : ... .. . ... ...
ROW 74 : ... .. 6 ... ... ... : B-2 00 5 P81 ... ... : ... .. . ... : ... .. . ... : ... .. . ... ... : ... .. 4 ... ... : ... .. 4 ... ... : B-2 01 4 ... ...
ROW 75 : ... .. 1 ... ... ... : ... .. 8 ... ... ... : ... .. . ... : ... .. . ... : ... .. . ... ... : ... .. . ... ... : ... .. . ... ... : ... .. 6 ... ...
ROW 76 : ... .. . ... ... ... : ... .. 5 ... ... ... : ... .. . ... : ... .. . ... : ... .. . ... ... : ... .. . ... ... : ... .. . ... ... : ... .. . ... ...
ROW 77 : ... .. . ... ... ... : ... .. 0 ... ... ... : ... .. . ... : ... .. . ... : ... .. . ... ... : ... .. . ... ... : ... .. . ... ... : ... .. 5 ... ...
ROW 78 : ... .. . ... ... ... : B-2 00 4 P81 ... ... : ... .. . ... : ... .. . ... : ... .. . ... ... : ... .. . ... ... : ... .. . ... ... : ... .. . ... ...
ROW 79 : ... .. . ... ... ... : ... .. 6 ... ... ... : ... .. . ... : ... .. . ... : ... .. . ... ... : ... .. 1 ... ... : ... .. 1 ... ... : ... .. 2 ... ...
ROW 7A : ... .. . ... ... ... : ... .. 0 ... ... ... : ... .. . ... : ... .. . ... : ... .. . ... ... : ... .. . ... ... : ... .. . ... ... : ... .. . ... ...
ROW 7B : ... .. 0 ... ... ... : ... .. . ... ... ... : ... .. . ... : ... .. . ... : ... .. . ... ... : ... .. . ... ... : ... .. . ... ... : ... .. . ... ...
ROW 7C : ... .. . ... ... ... : ... .. . ... ... ... : ... .. . ... : ... .. . ... : ... .. . ... ... : ... .. . ... ... : ... .. . ... ... : ... .. . ... ...
ROW 7D : ... .. . ... ... ... : ... .. . ... ... ... : ... .. . ... : ... .. . ... : ... .. . ... ... : ... .. . ... ... : ... .. . ... ... : ... .. . ... ...
ROW 7E : D#3 00 A P80 ... ... : F#2 00 5 P81 ... ... : ... .. . ... : ... .. . ... : ... .. . ... ... : ... .. 4 ... ... : ... .. 4 ... ... : ... .. 5 ... ...
ROW 7F : ... .. 9 ... ... ... : ... .. 8 ... ... ... : ... .. . ... : ... .. . ... : ... .. . ... ... : ... .. . ... ... : ... .. . ... ... : ... .. . ... ...
ROW 80 : ... .. 8 ... ... ... : ... .. 5 ... ... ... : ... .. . ... : ... .. . ... : ... .. . ... ... : ... .. . ... ... : ... .. . ... ... : ... .. . ... ...
ROW 81 : ... .. 6 ... ... ... : ... .. 0 ... ... ... : ... .. . ... : ... .. . ... : ... .. . ... ... : ... .. . ... ... : ... .. . ... ... : ... .. . ... ...
ROW 82 : ... .. . ... ... ... : F#2 00 4 P81 ... ... : ... .. . ... : ... .. . ... : ... .. . ... ... : ... .. . ... ... : ... .. . ... ... : ... .. . ... ...
ROW 83 : ... .. . ... ... ... : ... .. 6 ... ... ... : ... .. . ... : ... .. . ... : ... .. . ... ... : ... .. 1 ... ... : ... .. 1 ... ... : ... .. 2 ... ...
ROW 84 : ... .. 1 ... ... ... : ... .. 0 ... ... ... : ... .. . ... : ... .. . ... : ... .. . ... ... : ... .. . ... ... : ... .. . ... ... : ... .. . ... ...
ROW 85 : ... .. . ... ... ... : ... .. . ... ... ... : ... .. . ... : ... .. . ... : ... .. . ... ... : ... .. . ... ... : ... .. . ... ... : ... .. . ... ...
ROW 86 : ... .. . ... ... ... : ... .. . ... ... ... : ... .. . ... : ... .. . ... : ... .. . ... ... : ... .. . ... ... : ... .. . ... ... : ... .. . ... ...
ROW 87 : ... .. . ... ... ... : ... .. . ... ... ... : ... .. . ... : ... .. . ... : ... .. . ... ... : ... .. . ... ... : ... .. . ... ... : ... .. . ... ...
ROW 88 : ... .. 8 ... ... ... : B-2 00 5 P81 ... ... : ... .. . ... : ... .. . ... : ... .. . ... ... : ... .. 2 ... ... : ... .. 2 ... ... : F#2 01 1 ... ...
ROW 89 : ... .. 7 ... ... ... : ... .. 8 ... ... ... : ... .. . ... : ... .. . ... : ... .. . ... ... : ... .. . ... ... : ... .. . ... ... : ... .. 2 ... ...
ROW 8A : ... .. 6 ... ... ... : ... .. 5 ... ... ... : ... .. . ... : ... .. . ... : ... .. . ... ... : ... .. . ... ... : ... .. . ... ... : ... .. . ... ...
ROW 8B : ... .. 5 ... ... ... : ... .. 0 ... ... ... : ... .. . ... : ... .. . ... : ... .. . ... ... : ... .. . ... ... : ... .. . ... ... : ... .. . ... ...
ROW 8C : ... .. . ... ... ... : B-2 00 4 P81 ... ... : ... .. . ... : ... .. . ... : ... .. . ... ... : ... .. 1 ... ... : ... .. 1 ... ... : ... .. . ... ...
ROW 8D : ... .. . ... ... ... : ... .. 6 ... ... ... : ... .. . ... : ... .. . ... : ... .. . ... ... : ... .. . ... ... : ... .. . ... ... : ... .. 1 ... ...
ROW 8E : ... .. . ... ... ... : ... .. 0 ... ... ... : ... .. . ... : ... .. . ... : ... .. . ... ... : ... .. . ... ... : ... .. . ... ... : ... .. . ... ...
ROW 8F : ... .. . ... ... ... : ... .. . ... ... ... : ... .. . ... : ... .. . ... : ... .. . ... ... : ... .. . ... ... : ... .. . ... ... : ... .. . ... ...
ROW 90 : ... .. . ... ... ... : ... .. . ... ... ... : ... .. . ... : ... .. . ... : ... .. . ... ... : ... .. . ... ... : ... .. . ... ... : ... .. . ... ...
ROW 91 : ... .. . ... ... ... : ... .. . ... ... ... : ... .. . ... : ... .. . ... : ... .. . ... ... : ... .. . ... ... : ... .. . ... ... : ... .. . ... ...
ROW 92 : ... .. 6 ... ... ... : F#2 00 5 P81 ... ... : ... .. . ... : ... .. . ... : ... .. . ... ... : ... .. . ... ... : ... .. . ... ... : ... .. . ... ...
ROW 93 : ... .. . ... ... ... : ... .. 8 ... ... ... : ... .. . ... : ... .. . ... : ... .. . ... ... : ... .. . ... ... : ... .. . ... ... : ... .. . ... ...
ROW 94 : ... .. . ... ... ... : ... .. 5 ... ... ... : ... .. . ... : ... .. . ... : ... .. . ... ... : ... .. . ... ... : ... .. . ... ... : ... .. . ... ...
ROW 95 : ... .. . ... ... ... : ... .. 0 ... ... ... : ... .. . ... : ... .. . ... : ... .. . ... ... : ... .. . ... ... : ... .. . ... ... : ... .. . ... ...
ROW 96 : ... .. . ... ... ... : F#2 00 4 P81 ... ... : ... .. . ... : ... .. . ... : ... .. . ... ... : ... .. . ... ... : ... .. . ... ... : ... .. . ... ...
ROW 97 : ... .. . ... ... ... : ... .. 6 ... ... ... : ... .. . ... : ... .. . ... : ... .. . ... ... : ... .. . ... ... : ... .. . ... ... : ... .. . ... ...
ROW 98 : ... .. . ... ... ... : ... .. 0 ... ... ... : ... .. . ... : ... .. . ... : ... .. . ... ... : ... .. . ... ... : ... .. . ... ... : ... .. . ... ...
ROW 99 : ... .. . ... ... ... : ... .. . ... ... ... : ... .. . ... : ... .. . ... : ... .. . ... ... : ... .. . ... ... : ... .. . ... ... : ... .. . ... ...
ROW 9A : ... .. . ... ... ... : ... .. . ... ... ... : ... .. . ... : ... .. . ... : ... .. . ... ... : ... .. . ... ... : ... .. . ... ... : ... .. . ... ...
ROW 9B : ... .. . ... ... ... : ... .. . ... ... ... : ... .. . ... : ... .. . ... : ... .. . ... ... : ... .. . ... ... : ... .. . ... ... : ... .. . ... ...
ROW 9C : ... .. 7 P82 ... ... : B-2 00 5 P81 ... ... : F#2 00 . ... : ... .. . ... : ... .. . ... ... : ... .. 4 ... ... : ... .. 4 ... ... : B-2 01 4 ... ...
ROW 9D : ... .. . P83 ... ... : ... .. 8 ... ... ... : ... .. . ... : ... .. . ... : ... .. . ... ... : ... .. . ... ... : ... .. . ... ... : ... .. 6 ... ...
ROW 9E : ... .. . ... ... ... : ... .. 5 ... ... ... : ... .. . ... : ... .. . ... : ... .. . ... ... : ... .. . ... ... : ... .. . ... ... : ... .. . ... ...
ROW 9F : ... .. . P82 ... ... : ... .. 0 ... ... ... : ... .. . ... : ... .. . ... : ... .. . ... ... : ... .. . ... ... : ... .. . ... ... : ... .. 5 ... ...
ROW A0 : ... .. . P80 ... ... : B-2 00 4 P81 ... ... : ... .. . ... : ... .. . ... : ... .. . ... ... : ... .. . ... ... : ... .. . ... ... : ... .. . ... ...
ROW A1 : ... .. 8 P7F ... ... : ... .. 6 ... ... ... : ... .. . ... : ... .. . ... : ... .. . ... ... : ... .. 1 ... ... : ... .. 1 ... ... : ... .. 2 ... ...
ROW A2 : ... .. . P7D ... ... : ... .. 0 ... ... ... : ... .. . ... : ... .. . ... : ... .. . ... ... : ... .. . ... ... : ... .. . ... ... : ... .. . ... ...
ROW A3 : ... .. . ... ... ... : ... .. . ... ... ... : ... .. . ... : ... .. . ... : ... .. . ... ... : ... .. . ... ... : ... .. . ... ... : ... .. . ... ...
ROW A4 : ... .. . ... ... ... : ... .. . ... ... ... : ... .. . ... : ... .. . ... : ... .. . ... ... : ... .. . ... ... : ... .. . ... ... : ... .. . ... ...
ROW A5 : ... .. . P7F ... ... : ... .. . ... ... ... : ... .. . ... : ... .. . ... : ... .. . ... ... : ... .. . ... ... : ... .. . ... ... : ... .. . ... ...
ROW A6 : ... .. . P80 ... ... : F#2 00 5 P81 ... ... : ... .. . ... : ... .. . ... : ... .. . ... ... : ... .. 4 ... ... : ... .. 4 ... ... : ... .. 5 ... ...
ROW A7 : ... .. . P82 ... ... : ... .. 8 ... ... ... : ... .. . ... : ... .. . ... : ... .. . ... ... : ... .. . ... ... : ... .. . ... ... : ... .. . ... ...
ROW A8 : ... .. . P83 ... ... : ... .. 5 ... ... ... : ... .. . ... : ... .. . ... : ... .. . ... ... : ... .. . ... ... : ... .. . ... ... : ... .. . ... ...
ROW A9 : ... .. . ... ... ... : ... .. 0 ... ... ... : ... .. . ... : ... .. . ... : ... .. . ... ... : ... .. . ... ... : ... .. . ... ... : ... .. . ... ...
ROW AA : ... .. . P81 ... ... : F#2 00 4 P81 ... ... : ... .. . ... : ... .. . ... : ... .. . ... ... : ... .. . ... ... : ... .. . ... ... : ... .. . ... ...
ROW AB : ... .. 9 P80 ... ... : ... .. 6 ... ... ... : ... .. . ... : ... .. . ... : ... .. . ... ... : ... .. 1 ... ... : ... .. 1 ... ... : ... .. 2 ... ...
ROW AC : ... .. . P7E ... ... : ... .. 0 ... ... ... : ... .. . ... : ... .. . ... : ... .. . ... ... : ... .. . ... ... : ... .. . ... ... : ... .. . ... ...
ROW AD : ... .. . P7D ... ... : ... .. . ... ... ... : ... .. . ... : ... .. . ... : ... .. . ... ... : ... .. . ... ... : ... .. . ... ... : ... .. . ... ...
ROW AE : ... .. . ... ... ... : ... .. . ... ... ... : ... .. . ... : ... .. . ... : ... .. . ... ... : ... .. . ... ... : ... .. . ... ... : ... .. . ... ...
ROW AF : ... .. . P7E ... ... : ... .. . ... ... ... : ... .. . ... : ... .. . ... : ... .. . ... ... : ... .. . ... ... : ... .. . ... ... : ... .. . ... ...
ROW B0 : ... .. A P80 ... ... : A-2 00 5 P81 ... ... : B-2 00 . ... : ... .. . ... : ... .. . ... ... : E-3 01 1 ... ... : C#4 01 1 ... ... : C#3 01 1 ... ...
ROW B1 : ... .. 2 P81 ... ... : ... .. 8 ... ... ... : ... .. . ... : ... .. . ... : ... .. . ... ... : ... .. . ... ... : ... .. . ... ... : ... .. . ... ...
ROW B2 : ... .. . P83 ... ... : ... .. 5 ... ... ... : ... .. . ... : ... .. . ... : ... .. . ... ... : ... .. . ... ... : ... .. . ... ... : ... .. . ... ...
ROW B3 : ... .. . ... ... ... : ... .. 0 ... ... ... : ... .. . ... : ... .. . ... : ... .. . ... ... : ... .. . ... ... : ... .. . ... ... : ... .. . ... ...
ROW B4 : ... .. 1 ... ... ... : A-2 00 4 P81 ... ... : ... .. . ... : ... .. . ... : ... .. . ... ... : ... .. . ... ... : ... .. . ... ... : ... .. . ... ...
ROW B5 : ... .. . P81 ... ... : ... .. 6 ... ... ... : ... .. . ... : ... .. . ... : ... .. . ... ... : ... .. . ... ... : ... .. . ... ... : ... .. . ... ...
ROW B6 : ... .. . P80 ... ... : ... .. 0 ... ... ... : ... .. . ... : ... .. . ... : ... .. . ... ... : ... .. . ... ... : ... .. . ... ... : ... .. . ... ...
ROW B7 : ... .. 0 ... ... ... : ... .. . ... ... ... : ... .. . ... : ... .. . ... : ... .. . ... ... : ... .. . ... ... : ... .. . ... ... : ... .. . ... ...
ROW B8 : ... .. . ... ... ... : ... .. . ... ... ... : ... .. . ... : ... .. . ... : ... .. . ... ... : ... .. . ... ... : ... .. . ... ... : ... .. . ... ...
ROW B9 : ... .. . ... ... ... : ... .. . ... ... ... : ... .. . ... : ... .. . ... : ... .. . ... ... : ... .. . ... ... : ... .. . ... ... : ... .. . ... ...
ROW BA : ... .. . ... ... ... : F#2 00 5 P81 ... ... : ... .. . ... : ... .. . ... : ... .. . ... ... : ... .. . ... ... : ... .. . ... ... : ... .. . ... ...
ROW BB : ... .. . ... ... ... : ... .. 8 ... ... ... : ... .. . ... : ... .. . ... : ... .. . ... ... : ... .. . ... ... : ... .. . ... ... : ... .. . ... ...
ROW BC : ... .. . ... ... ... : ... .. 5 ... ... ... : ... .. . ... : ... .. . ... : ... .. . ... ... : ... .. . ... ... : ... .. . ... ... : ... .. . ... ...
ROW BD : ... .. . ... ... ... : ... .. 0 ... ... ... : ... .. . ... : ... .. . ... : ... .. . ... ... : ... .. . ... ... : ... .. . ... ... : ... .. . ... ...
ROW BE : ... .. . ... ... ... : F#2 00 4 P81 ... ... : ... .. . ... : ... .. . ... : ... .. . ... ... : ... .. . ... ... : ... .. . ... ... : ... .. . ... ...
ROW BF : ... .. . ... ... ... : ... .. 6 ... ... ... : ... .. . ... : ... .. . ... : ... .. . ... ... : ... .. . ... ... : ... .. . ... ... : ... .. . ... ...
ROW C0 : ... .. . ... ... ... : ... .. 0 ... ... ... : ... .. . ... : ... .. . ... : ... .. . ... ... : ... .. . ... ... : ... .. . ... ... : ... .. . ... ...
ROW C1 : ... .. . ... ... ... : ... .. . ... ... ... : ... .. . ... : ... .. . ... : ... .. . ... ... : ... .. . ... ... : ... .. . ... ... : ... .. . ... ...
ROW C2 : ... .. . ... ... ... : ... .. . ... ... ... : ... .. . ... : ... .. . ... : ... .. . ... ... : ... .. . ... ... : ... .. . ... ... : ... .. . ... ...
ROW C3 : ... .. . ... ... ... : ... .. . ... ... ... : ... .. . ... : ... .. . ... : ... .. . ... ... : ... .. . ... ... : ... .. . ... ... : ... .. . ... ...
ROW C4 : C#3 00 A P80 ... ... : A-2 00 5 P81 ... ... : ... .. . ... : ... .. . ... : ... .. . ... ... : ... .. 4 ... ... : ... .. 4 ... ... : A-2 01 4 ... ...
ROW C5 : ... .. 9 ... ... ... : ... .. 8 ... ... ... : ... .. . ... : ... .. . ... : ... .. . ... ... : ... .. . ... ... : ... .. . ... ... : ... .. 6 ... ...
ROW C6 : ... .. 8 ... ... ... : ... .. 5 ... ... ... : ... .. . ... : ... .. . ... : ... .. . ... ... : ... .. . ... ... : ... .. . ... ... : ... .. . ... ...
ROW C7 : ... .. 6 ... ... ... : ... .. 0 ... ... ... : ... .. . ... : ... .. . ... : ... .. . ... ... : ... .. . ... ... : ... .. . ... ... : ... .. 5 ... ...
ROW C8 : ... .. . ... ... ... : A-2 00 4 P81 ... ... : ... .. . ... : ... .. . ... : ... .. . ... ... : ... .. . ... ... : ... .. . ... ... : ... .. . ... ...
ROW C9 : ... .. 7 ... ... ... : ... .. 6 ... ... ... : ... .. . ... : ... .. . ... : ... .. . ... ... : ... .. 1 ... ... : ... .. 1 ... ... : ... .. 2 ... ...
ROW CA : ... .. . ... ... ... : ... .. 0 ... ... ... : ... .. . ... : ... .. . ... : ... .. . ... ... : ... .. . ... ... : ... .. . ... ... : ... .. . ... ...
ROW CB : ... .. . ... ... ... : ... .. . ... ... ... : ... .. . ... : ... .. . ... : ... .. . ... ... : ... .. . ... ... : ... .. . ... ... : ... .. . ... ...
ROW CC : ... .. . ... ... ... : ... .. . ... ... ... : ... .. . ... : ... .. . ... : ... .. . ... ... : ... .. . ... ... : ... .. . ... ... : ... .. . ... ...
ROW CD : ... .. . ... ... ... : ... .. . ... ... ... : ... .. . ... : ... .. . ... : ... .. . ... ... : ... .. . ... ... : ... .. . ... ... : ... .. . ... ...
ROW CE : ... .. 8 ... ... ... : F#2 00 5 P81 ... ... : ... .. . ... : ... .. . ... : ... .. . ... ... : ... .. 4 ... ... : ... .. 4 ... ... : ... .. 5 ... ...
ROW CF : ... .. . ... ... ... : ... .. 8 ... ... ... : ... .. . ... : ... .. . ... : ... .. . ... ... : ... .. . ... ... : ... .. . ... ... : ... .. . ... ...
ROW D0 : ... .. . ... ... ... : ... .. 5 ... ... ... : ... .. . ... : ... .. . ... : ... .. . ... ... : ... .. . ... ... : ... .. . ... ... : ... .. . ... ...
ROW D1 : ... .. . ... ... ... : ... .. 0 ... ... ... : ... .. . ... : ... .. . ... : ... .. . ... ... : ... .. . ... ... : ... .. . ... ... : ... .. . ... ...
ROW D2 : ... .. . ... ... ... : F#2 00 4 P81 ... ... : ... .. . ... : ... .. . ... : ... .. . ... ... : ... .. . ... ... : ... .. . ... ... : ... .. . ... ...
ROW D3 : ... .. . ... ... ... : ... .. 6 ... ... ... : ... .. . ... : ... .. . ... : ... .. . ... ... : ... .. 1 ... ... : ... .. 1 ... ... : ... .. 2 ... ...
ROW D4 : ... .. . ... ... ... : ... .. 0 ... ... ... : ... .. . ... : ... .. . ... : ... .. . ... ... : ... .. . ... ... : ... .. . ... ... : ... .. . ... ...
ROW D5 : ... .. . ... ... ... : ... .. . ... ... ... : ... .. . ... : ... .. . ... : ... .. . ... ... : ... .. . ... ... : ... .. . ... ... : ... .. . ... ...
ROW D6 : ... .. . ... ... ... : ... .. . ... ... ... : ... .. . ... : ... .. . ... : ... .. . ... ... : ... .. . ... ... : ... .. . ... ... : ... .. . ... ...
ROW D7 : ... .. . ... ... ... : ... .. . ... ... ... : ... .. . ... : ... .. . ... : ... .. . ... ... : ... .. . ... ... : ... .. . ... ... : ... .. . ... ...
ROW D8 : ... .. A ... ... ... : A-2 00 5 P81 ... ... : ... .. . ... : ... .. . ... : ... .. . ... ... : ... .. 2 ... ... : ... .. 2 ... ... : E-2 01 1 ... ...
ROW D9 : D-3 00 A P82 ... ... : ... .. 8 ... ... ... : ... .. . ... : ... .. . ... : ... .. . ... ... : ... .. . ... ... : ... .. . ... ... : ... .. 2 ... ...
ROW DA : D#3 00 A P86 ... ... : ... .. 5 ... ... ... : ... .. . ... : ... .. . ... : ... .. . ... ... : ... .. . ... ... : ... .. . ... ... : ... .. . ... ...
ROW DB : F-3 00 A P77 ... ... : ... .. 0 ... ... ... : ... .. . ... : ... .. . ... : ... .. . ... ... : ... .. . ... ... : ... .. . ... ... : ... .. . ... ...
ROW DC : F#3 00 A P7E ... ... : A-2 00 4 P81 ... ... : ... .. . ... : ... .. . ... : ... .. . ... ... : ... .. 1 ... ... : ... .. 1 ... ... : ... .. . ... ...
ROW DD : ... .. 9 P80 ... ... : ... .. 6 ... ... ... : ... .. . ... : ... .. . ... : ... .. . ... ... : ... .. . ... ... : ... .. . ... ... : ... .. 1 ... ...
ROW DE : ... .. . ... ... ... : ... .. 0 ... ... ... : ... .. . ... : ... .. . ... : ... .. . ... ... : ... .. . ... ... : ... .. . ... ... : ... .. . ... ...
ROW DF : ... .. . ... ... ... : ... .. . ... ... ... : ... .. . ... : ... .. . ... : ... .. . ... ... : ... .. . ... ... : ... .. . ... ... : ... .. . ... ...
ROW E0 : ... .. . ... ... ... : ... .. . ... ... ... : ... .. . ... : ... .. . ... : ... .. . ... ... : ... .. . ... ... : ... .. . ... ... : ... .. . ... ...
ROW E1 : ... .. . ... ... ... : ... .. . ... ... ... : ... .. . ... : ... .. . ... : ... .. . ... ... : ... .. . ... ... : ... .. . ... ... : ... .. . ... ...
ROW E2 : ... .. 8 ... ... ... : F#2 00 5 P81 ... ... : ... .. . ... : ... .. . ... : ... .. . ... ... : ... .. . ... ... : ... .. . ... ... : ... .. . ... ...
ROW E3 : ... .. . ... ... ... : ... .. 8 ... ... ... : ... .. . ... : ... .. . ... : ... .. . ... ... : ... .. . ... ... : ... .. . ... ... : ... .. . ... ...
ROW E4 : ... .. . ... ... ... : ... .. 5 ... ... ... : ... .. . ... : ... .. . ... : ... .. . ... ... : ... .. . ... ... : ... .. . ... ... : ... .. . ... ...
ROW E5 : ... .. . ... ... ... : ... .. 0 ... ... ... : ... .. . ... : ... .. . ... : ... .. . ... ... : ... .. . ... ... : ... .. . ... ... : ... .. . ... ...
ROW E6 : ... .. . ... ... ... : F#2 00 4 P81 ... ... : ... .. . ... : ... .. . ... : ... .. . ... ... : ... .. . ... ... : ... .. . ... ... : ... .. . ... ...
ROW E7 : ... .. . ... ... ... : ... .. 6 ... ... ... : ... .. . ... : ... .. . ... : ... .. . ... ... : ... .. . ... ... : ... .. . ... ... : ... .. . ... ...
ROW E8 : ... .. . ... ... ... : ... .. 0 ... ... ... : ... .. . ... : ... .. . ... : ... .. . ... ... : ... .. . ... ... : ... .. . ... ... : ... .. . ... ...
ROW E9 : ... .. . ... ... ... : ... .. . ... ... ... : ... .. . ... : ... .. . ... : ... .. . ... ... : ... .. . ... ... : ... .. . ... ... : ... .. . ... ...
ROW EA : ... .. . ... ... ... : ... .. . ... ... ... : ... .. . ... : ... .. . ... : ... .. . ... ... : ... .. . ... ... : ... .. . ... ... : ... .. . ... ...
ROW EB : ... .. . ... ... ... : ... .. . ... ... ... : ... .. . ... : ... .. . ... : ... .. . ... ... : ... .. . ... ... : ... .. . ... ... : ... .. . ... ...
ROW EC : E-3 00 B ... ... ... : A-2 00 5 P81 ... ... : ... .. . ... : ... .. . ... : ... .. . ... ... : C#3 01 6 ... ... : F#3 01 6 ... ... : A-2 01 4 ... ...
ROW ED : ... .. A ... ... ... : ... .. 8 ... ... ... : ... .. . ... : ... .. . ... : ... .. . ... ... : ... .. 5 ... ... : ... .. 5 ... ... : ... .. 6 ... ...
ROW EE : ... .. 9 ... ... ... : ... .. 5 ... ... ... : ... .. . ... : ... .. . ... : ... .. . ... ... : ... .. . ... ... : ... .. . ... ... : ... .. . ... ...
ROW EF : ... .. 7 ... ... ... : ... .. 0 ... ... ... : ... .. . ... : ... .. . ... : ... .. . ... ... : ... .. . ... ... : ... .. . ... ... : ... .. 5 ... ...
ROW F0 : ... .. . ... ... ... : A-2 00 4 P81 ... ... : ... .. . ... : ... .. . ... : ... .. . ... ... : ... .. 4 ... ... : ... .. 4 ... ... : ... .. . ... ...
ROW F1 : ... .. 6 ... ... ... : ... .. 6 ... ... ... : ... .. . ... : ... .. . ... : ... .. . ... ... : ... .. 1 ... ... : ... .. 1 ... ... : ... .. 2 ... ...
ROW F2 : ... .. . ... ... ... : ... .. 0 ... ... ... : ... .. . ... : ... .. . ... : ... .. . ... ... : ... .. . ... ... : ... .. . ... ... : ... .. . ... ...
ROW F3 : ... .. . ... ... ... : ... .. . ... ... ... : ... .. . ... : ... .. . ... : ... .. . ... ... : ... .. . ... ... : ... .. . ... ... : ... .. . ... ...
ROW F4 : ... .. . ... ... ... : ... .. . ... ... ... : ... .. . ... : ... .. . ... : ... .. . ... ... : ... .. . ... ... : ... .. . ... ... : ... .. . ... ...
ROW F5 : ... .. . ... ... ... : ... .. . ... ... ... : ... .. . ... : ... .. . ... : ... .. . ... ... : ... .. . ... ... : ... .. . ... ... : ... .. . ... ...
ROW F6 : ... .. . ... ... ... : F#2 00 5 P81 ... ... : --- .. . ... : ... .. . ... : ... .. . ... ... : ... .. 4 ... ... : ... .. 4 ... ... : ... .. 5 ... ...
ROW F7 : ... .. . ... ... ... : ... .. 8 ... ... ... : ... .. . ... : ... .. . ... : ... .. . ... ... : ... .. 3 ... ... : ... .. 3 ... ... : ... .. . ... ...
ROW F8 : ... .. . ... ... ... : ... .. 5 ... ... ... : ... .. . ... : ... .. . ... : ... .. . ... ... : ... .. . ... ... : ... .. . ... ... : ... .. . ... ...
ROW F9 : ... .. . ... ... ... : ... .. 0 ... ... ... : ... .. . ... : ... .. . ... : ... .. . ... ... : ... .. 2 ... ... : ... .. 2 ... ... : ... .. . ... ...
ROW FA : ... .. . ... ... ... : F#2 00 4 P81 ... ... : ... .. . ... : ... .. . ... : ... .. . ... ... : ... .. . ... ... : ... .. . ... ... : ... .. . ... ...
ROW FB : ... .. 5 ... ... ... : ... .. 6 ... ... ... : ... .. . ... : ... .. . ... : ... .. . ... ... : ... .. 1 ... ... : ... .. 1 ... ... : ... .. 2 ... ...
ROW FC : ... .. . ... ... ... : ... .. 0 ... ... ... : ... .. . ... : ... .. . ... : ... .. . ... ... : ... .. . ... ... : ... .. . ... ... : ... .. . ... ...
ROW FD : ... .. . ... ... ... : ... .. . ... ... ... : ... .. . ... : ... .. . ... : ... .. . ... ... : ... .. . ... ... : ... .. . ... ... : ... .. . ... ...
ROW FE : ... .. . ... ... ... : ... .. . ... ... ... : ... .. . ... : ... .. . ... : ... .. . ... ... : ... .. . ... ... : ... .. . ... ... : ... .. . ... ...
ROW FF : ... .. . ... ... ... : ... .. . ... ... ... : ... .. . ... : ... .. . ... : ... .. . ... ... : ... .. . ... ... : ... .. . ... ... : ... .. . ... ...

PATTERN 14
ROW 00 : D#3 00 8 ... ... ... : B-2 00 5 P81 ... ... : B-2 00 . ... : ... .. . ... : ... .. . ... ... : D#3 01 1 ... ... : B-3 01 1 ... ... : D#3 01 1 ... ...
ROW 01 : ... .. 7 ... ... ... : ... .. 8 ... ... ... : ... .. . ... : ... .. . ... : ... .. . ... ... : ... .. . ... ... : ... .. . ... ... : ... .. . ... ...
ROW 02 : ... .. 6 ... ... ... : ... .. 5 ... ... ... : ... .. . ... : ... .. . ... : ... .. . ... ... : ... .. . ... ... : ... .. . ... ... : ... .. . ... ...
ROW 03 : ... .. 5 ... ... ... : ... .. 0 ... ... ... : ... .. . ... : ... .. . ... : ... .. . ... ... : ... .. . ... ... : ... .. . ... ... : ... .. . ... ...
ROW 04 : ... .. . ... ... ... : B-2 00 4 P81 ... ... : ... .. . ... : ... .. . ... : ... .. . ... ... : ... .. . ... ... : ... .. . ... ... : ... .. . ... ...
ROW 05 : ... .. . ... ... ... : ... .. 6 ... ... ... : ... .. . ... : ... .. . ... : ... .. . ... ... : ... .. . ... ... : ... .. . ... ... : ... .. . ... ...
ROW 06 : ... .. . ... ... ... : ... .. 0 ... ... ... : ... .. . ... : ... .. . ... : ... .. . ... ... : ... .. . ... ... : ... .. . ... ... : ... .. . ... ...
ROW 07 : ... .. . ... ... ... : ... .. . ... ... ... : ... .. . ... : ... .. . ... : ... .. . ... ... : ... .. . ... ... : ... .. . ... ... : ... .. . ... ...
ROW 08 : ... .. . ... ... ... : ... .. . ... ... ... : ... .. . ... : ... .. . ... : ... .. . ... ... : ... .. . ... ... : ... .. . ... ... : ... .. . ... ...
ROW 09 : ... .. . ... ... ... : ... .. . ... ... ... : ... .. . ... : ... .. . ... : ... .. . ... ... : ... .. . ... ... : ... .. . ... ... : ... .. . ... ...
ROW 0A : ... .. 6 ... ... ... : F#2 00 5 P81 ... ... : ... .. . ... : ... .. . ... : ... .. . ... ... : ... .. . ... ... : ... .. . ... ... : ... .. . ... ...
ROW 0B : ... .. . ... ... ... : ... .. 8 ... ... ... : ... .. . ... : ... .. . ... : ... .. . ... ... : ... .. . ... ... : ... .. . ... ... : ... .. . ... ...
ROW 0C : ... .. . ... ... ... : ... .. 5 ... ... ... : ... .. . ... : ... .. . ... : ... .. . ... ... : ... .. . ... ... : ... .. . ... ... : ... .. . ... ...
ROW 0D : ... .. . ... ... ... : ... .. 0 ... ... ... : ... .. . ... : ... .. . ... : ... .. . ... ... : ... .. . ... ... : ... .. . ... ... : ... .. . ... ...
ROW 0E : ... .. . ... ... ... : F#2 00 4 P81 ... ... : ... .. . ... : ... .. . ... : ... .. . ... ... : ... .. . ... ... : ... .. . ... ... : ... .. . ... ...
ROW 0F : ... .. . ... ... ... : ... .. 6 ... ... ... : ... .. . ... : ... .. . ... : ... .. . ... ... : ... .. . ... ... : ... .. . ... ... : ... .. . ... ...
ROW 10 : ... .. . ... ... ... : ... .. 0 ... ... ... : ... .. . ... : ... .. . ... : ... .. . ... ... : ... .. . ... ... : ... .. . ... ... : ... .. . ... ...
ROW 11 : ... .. . ... ... ... : ... .. . ... ... ... : ... .. . ... : ... .. . ... : ... .. . ... ... : ... .. . ... ... : ... .. . ... ... : ... .. . ... ...
ROW 12 : ... .. . ... ... ... : ... .. . ... ... ... : ... .. . ... : ... .. . ... : ... .. . ... ... : ... .. . ... ... : ... .. . ... ... : ... .. . ... ...
ROW 13 : ... .. . ... ... ... : ... .. . ... ... ... : ... .. . ... : ... .. . ... : ... .. . ... ... : ... .. . ... ... : ... .. . ... ... : ... .. . ... ...
ROW 14 : ... .. 7 ... ... ... : B-2 00 5 P81 ... ... : ... .. . ... : ... .. . ... : ... .. . ... ... : ... .. 4 ... ... : ... .. 4 ... ... : B-2 01 4 ... ...
ROW 15 : ... .. . ... ... ... : ... .. 8 ... ... ... : ... .. . ... : ... .. . ... : ... .. . ... ... : ... .. . ... ... : ... .. . ... ... : ... .. 6 ... ...
ROW 16 : ... .. . ... ... ... : ... .. 5 ... ... ... : ... .. . ... : ... .. . ... : ... .. . ... ... : ... .. . ... ... : ... .. . ... ... : ... .. . ... ...
ROW 17 : ... .. . ... ... ... : ... .. 0 ... ... ... : ... .. . ... : ... .. . ... : ... .. . ... ... : ... .. . ... ... : ... .. . ... ... : ... .. 5 ... ...
ROW 18 : ... .. . ... ... ... : B-2 00 4 P81 ... ... : ... .. . ... : ... .. . ... : ... .. . ... ... : ... .. . ... ... : ... .. . ... ... : ... .. . ... ...
ROW 19 : ... .. 8 ... ... ... : ... .. 6 ... ... ... : ... .. . ... : ... .. . ... : ... .. . ... ... : ... .. 1 ... ... : ... .. 1 ... ... : ... .. 2 ... ...
ROW 1A : ... .. . ... ... ... : ... .. 0 ... ... ... : ... .. . ... : ... .. . ... : ... .. . ... ... : ... .. . ... ... : ... .. . ... ... : ... .. . ... ...
ROW 1B : ... .. . ... ... ... : ... .. . ... ... ... : ... .. . ... : ... .. . ... : ... .. . ... ... : ... .. . ... ... : ... .. . ... ... : ... .. . ... ...
ROW 1C : ... .. . ... ... ... : ... .. . ... ... ... : ... .. . ... : ... .. . ... : ... .. . ... ... : ... .. . ... ... : ... .. . ... ... : ... .. . ... ...
ROW 1D : ... .. . ... ... ... : ... .. . ... ... ... : ... .. . ... : ... .. . ... : ... .. . ... ... : ... .. . ... ... : ... .. . ... ... : ... .. . ... ...
ROW 1E : ... .. . ... ... ... : F#2 00 5 P81 ... ... : ... .. . ... : ... .. . ... : ... .. . ... ... : ... .. 4 ... ... : ... .. 4 ... ... : ... .. 5 ... ...
ROW 1F : ... .. . ... ... ... : ... .. 8 ... ... ... : ... .. . ... : ... .. . ... : ... .. . ... ... : ... .. . ... ... : ... .. . ... ... : ... .. . ... ...
ROW 20 : ... .. . ... ... ... : ... .. 5 ... ... ... : ... .. . ... : ... .. . ... : ... .. . ... ... : ... .. . ... ... : ... .. . ... ... : ... .. . ... ...
ROW 21 : ... .. . ... ... ... : ... .. 0 ... ... ... : ... .. . ... : ... .. . ... : ... .. . ... ... : ... .. . ... ... : ... .. . ... ... : ... .. . ... ...
ROW 22 : ... .. . ... ... ... : F#2 00 4 P81 ... ... : ... .. . ... : ... .. . ... : ... .. . ... ... : ... .. . ... ... : ... .. . ... ... : ... .. . ... ...
ROW 23 : ... .. 9 ... ... ... : ... .. 6 ... ... ... : ... .. . ... : ... .. . ... : ... .. . ... ... : ... .. 1 ... ... : ... .. 1 ... ... : ... .. 2 ... ...
ROW 24 : ... .. . ... ... ... : ... .. 0 ... ... ... : ... .. . ... : ... .. . ... : ... .. . ... ... : ... .. . ... ... : ... .. . ... ... : ... .. . ... ...
ROW 25 : ... .. . ... ... ... : ... .. . ... ... ... : ... .. . ... : ... .. . ... : ... .. . ... ... : ... .. . ... ... : ... .. . ... ... : ... .. . ... ...
ROW 26 : ... .. . ... ... ... : ... .. . ... ... ... : ... .. . ... : ... .. . ... : ... .. . ... ... : ... .. . ... ... : ... .. . ... ... : ... .. . ... ...
ROW 27 : ... .. . ... ... ... : ... .. . ... ... ... : ... .. . ... : ... .. . ... : ... .. . ... ... : ... .. . ... ... : ... .. . ... ... : ... .. . ... ...
ROW 28 : F#3 00 F ... ... ... : B-2 00 5 P81 ... ... : ... .. . ... : ... .. . ... : ... .. . ... ... : ... .. 2 ... ... : ... .. 2 ... ... : F#2 01 1 ... ...
ROW 29 : ... .. E ... ... ... : ... .. 8 ... ... ... : ... .. . ... : ... .. . ... : ... .. . ... ... : ... .. . ... ... : ... .. . ... ... : ... .. 2 ... ...
ROW 2A : ... .. D ... ... ... : ... .. 5 ... ... ... : ... .. . ... : ... .. . ... : ... .. . ... ... : ... .. . ... ... : ... .. . ... ... : ... .. . ... ...
ROW 2B : ... .. A ... ... ... : ... .. 0 ... ... ... : ... .. . ... : ... .. . ... : ... .. . ... ... : ... .. . ... ... : ... .. . ... ... : ... .. . ... ...
ROW 2C : ... .. . ... ... ... : B-2 00 4 P81 ... ... : ... .. . ... : ... .. . ... : ... .. . ... ... : ... .. 1 ... ... : ... .. 1 ... ... : ... .. . ... ...
ROW 2D : ... .. 9 ... ... ... : ... .. 6 ... ... ... : ... .. . ... : ... .. . ... : ... .. . ... ... : ... .. . ... ... : ... .. . ... ... : ... .. 1 ... ...
ROW 2E : ... .. . ... ... ... : ... .. 0 ... ... ... : ... .. . ... : ... .. . ... : ... .. . ... ... : ... .. . ... ... : ... .. . ... ... : ... .. . ... ...
ROW 2F : ... .. . ... ... ... : ... .. . ... ... ... : ... .. . ... : ... .. . ... : ... .. . ... ... : ... .. . ... ... : ... .. . ... ... : ... .. . ... ...
ROW 30 : ... .. . ... ... ... : ... .. . ... ... ... : ... .. . ... : ... .. . ... : ... .. . ... ... : ... .. . ... ... : ... .. . ... ... : ... .. . ... ...
ROW 31 : ... .. . ... ... ... : ... .. . ... ... ... : ... .. . ... : ... .. . ... : ... .. . ... ... : ... .. . ... ... : ... .. . ... ... : ... .. . ... ...
ROW 32 : ... .. 8 ... ... ... : F#2 00 5 P81 ... ... : ... .. . ... : ... .. . ... : ... .. . ... ... : C#3 01 1 ... ... : A-3 01 1 ... ... : ... .. . ... ...
ROW 33 : ... .. . ... ... ... : ... .. 8 ... ... ... : ... .. . ... : ... .. . ... : ... .. . ... ... : ... .. . ... ... : ... .. . ... ... : ... .. . ... ...
ROW 34 : ... .. . ... ... ... : ... .. 5 ... ... ... : ... .. . ... : ... .. . ... : ... .. . ... ... : ... .. . ... ... : ... .. . ... ... : ... .. . ... ...
ROW 35 : ... .. . ... ... ... : ... .. 0 ... ... ... : ... .. . ... : ... .. . ... : ... .. . ... ... : ... .. . ... ... : ... .. . ... ... : ... .. . ... ...
ROW 36 : ... .. . ... ... ... : F#2 00 4 P81 ... ... : ... .. . ... : ... .. . ... : ... .. . ... ... : ... .. . ... ... : ... .. . ... ... : ... .. . ... ...
ROW 37 : ... .. . ... ... ... : ... .. 6 ... ... ... : ... .. . ... : ... .. . ... : ... .. . ... ... : ... .. . ... ... : ... .. . ... ... : ... .. . ... ...
ROW 38 : ... .. . ... ... ... : ... .. 0 ... ... ... : ... .. . ... : ... .. . ... : ... .. . ... ... : ... .. . ... ... : ... .. . ... ... : ... .. . ... ...
ROW 39 : ... .. . ... ... ... : ... .. . ... ... ... : ... .. . ... : ... .. . ... : ... .. . ... ... : ... .. . ... ... : ... .. . ... ... : ... .. . ... ...
ROW 3A : ... .. . ... ... ... : ... .. . ... ... ... : ... .. . ... : ... .. . ... : ... .. . ... ... : ... .. . ... ... : ... .. . ... ... : ... .. . ... ...
ROW 3B : ... .. . ... ... ... : ... .. . ... ... ... : ... .. . ... : ... .. . ... : ... .. . ... ... : ... .. . ... ... : ... .. . ... ... : ... .. . ... ...
ROW 3C : ... .. 7 ... ... ... : B-2 00 5 P81 ... ... : F#3 00 . ... : ... .. . ... : ... .. . ... ... : B-2 01 6 ... ... : G#3 01 6 ... ... : B-2 01 4 ... ...
ROW 3D : ... .. . ... ... ... : ... .. 8 ... ... ... : ... .. . ... : ... .. . ... : ... .. . ... ... : ... .. 5 ... ... : ... .. 5 ... ... : ... .. 6 ... ...
ROW 3E : ... .. . ... ... ... : ... .. 5 ... ... ... : ... .. . ... : ... .. . ... : ... .. . ... ... : ... .. . ... ... : ... .. . ... ... : ... .. . ... ...
ROW 3F : ... .. . ... ... ... : ... .. 0 ... ... ... : ... .. . ... : ... .. . ... : ... .. . ... ... : ... .. . ... ... : ... .. . ... ... : ... .. 5 ... ...
ROW 40 : ... .. . ... ... ... : B-2 00 4 P81 ... ... : ... .. . ... : ... .. . ... : ... .. . ... ... : ... .. 4 ... ... : ... .. 4 ... ... : ... .. . ... ...
ROW 41 : ... .. 6 ... ... ... : ... .. 6 ... ... ... : ... .. . ... : ... .. . ... : ... .. . ... ... : ... .. 1 ... ... : ... .. 1 ... ... : ... .. 2 ... ...
ROW 42 : ... .. . ... ... ... : ... .. 0 ... ... ... : ... .. . ... : ... .. . ... : ... .. . ... ... : ... .. . ... ... : ... .. . ... ... : ... .. . ... ...
ROW 43 : ... .. . ... ... ... : ... .. . ... ... ... : ... .. . ... : ... .. . ... : ... .. . ... ... : ... .. . ... ... : ... .. . ... ... : ... .. . ... ...
ROW 44 : ... .. . ... ... ... : ... .. . ... ... ... : ... .. . ... : ... .. . ... : ... .. . ... ... : ... .. . ... ... : ... .. . ... ... : ... .. . ... ...
ROW 45 : ... .. . ... ... ... : ... .. . ... ... ... : ... .. . ... : ... .. . ... : ... .. . ... ... : ... .. . ... ... : ... .. . ... ... : ... .. . ... ...
ROW 46 : ... .. . ... ... ... : F#2 00 5 P81 ... ... : ... .. . ... : ... .. . ... : ... .. . ... ... : D#3 01 6 ... ... : B-3 01 6 ... ... : ... .. 5 ... ...
ROW 47 : ... .. . ... ... ... : ... .. 8 ... ... ... : ... .. . ... : ... .. . ... : ... .. . ... ... : ... .. 5 ... ... : ... .. 5 ... ... : ... .. . ... ...
ROW 48 : ... .. . ... ... ... : ... .. 5 ... ... ... : ... .. . ... : ... .. . ... : ... .. . ... ... : ... .. . ... ... : ... .. . ... ... : ... .. . ... ...
ROW 49 : ... .. . ... ... ... : ... .. 0 ... ... ... : ... .. . ... : ... .. . ... : ... .. . ... ... : ... .. . ... ... : ... .. . ... ... : ... .. . ... ...
ROW 4A : ... .. . ... ... ... : F#2 00 4 P81 ... ... : ... .. . ... : ... .. . ... : ... .. . ... ... : ... .. 4 ... ... : ... .. 4 ... ... : ... .. . ... ...
ROW 4B : ... .. 5 ... ... ... : ... .. 6 ... ... ... : --- .. . ... : ... .. . ... : ... .. . ... ... : ... .. 1 ... ... : ... .. 1 ... ... : ... .. 2 ... ...
ROW 4C : ... .. . ... ... ... : ... .. 0 ... ... ... : ... .. . ... : ... .. . ... : ... .. . ... ... : ... .. . ... ... : ... .. . ... ... : ... .. . ... ...
ROW 4D : ... .. . ... ... ... : ... .. . ... ... ... : ... .. . ... : ... .. . ... : ... .. . ... ... : ... .. . ... ... : ... .. . ... ... : ... .. . ... ...
ROW 4E : ... .. . ... ... ... : ... .. . ... ... ... : ... .. . ... : ... .. . ... : ... .. . ... ... : ... .. . ... ... : ... .. . ... ... : ... .. . ... ...
ROW 4F : ... .. . ... ... ... : ... .. . ... ... ... : ... .. . ... : ... .. . ... : ... .. . ... ... : ... .. . ... ... : ... .. . ... ... : ... .. . ... ...
ROW 50 : ... .. . ... ... ... : A-2 00 5 P81 ... ... : B-3 00 . ... : ... .. . ... : ... .. . ... ... : C#3 01 1 ... ... : A-3 01 1 ... ... : C#3 01 1 ... ...
ROW 51 : F-3 00 5 P79 ... ... : ... .. 8 ... ... ... : ... .. . ... : ... .. . ... : ... .. . ... ... : ... .. . ... ... : ... .. . ... ... : ... .. . ... ...
ROW 52 : D#3 00 5 P88 ... ... : ... .. 5 ... ... ... : ... .. . ... : ... .. . ... : ... .. . ... ... : ... .. . ... ... : ... .. . ... ... : ... .. . ... ...
ROW 53 : D-3 00 5 P84 ... ... : ... .. 0 ... ... ... : ... .. . ... : ... .. . ... : ... .. . ... ... : ... .. . ... ... : ... .. . ... ... : ... .. . ... ...
ROW 54 : C#3 00 5 P82 ... ... : A-2 00 4 P81 ... ... : ... .. . ... : ... .. . ... : ... .. . ... ... : ... .. . ... ... : ... .. . ... ... : ... .. . ... ...
ROW 55 : ... .. . P80 ... ... : ... .. 6 ... ... ... : ... .. . ... : ... .. . ... : ... .. . ... ... : ... .. . ... ... : ... .. . ... ... : ... .. . ... ...
ROW 56 : ... .. . ... ... ... : ... .. 0 ... ... ... : ... .. . ... : ... .. . ... : ... .. . ... ... : ... .. . ... ... : ... .. . ... ... : ... .. . ... ...
ROW 57 : ... .. . ... ... ... : ... .. . ... ... ... : ... .. . ... : ... .. . ... : ... .. . ... ... : ... .. . ... ... : ... .. . ... ... : ... .. . ... ...
ROW 58 : ... .. . ... ... ... : ... .. . ... ... ... : ... .. . ... : ... .. . ... : ... .. . ... ... : ... .. . ... ... : ... .. . ... ... : ... .. . ... ...
ROW 59 : ... .. . ... ... ... : ... .. . ... ... ... : ... .. . ... : ... .. . ... : ... .. . ... ... : ... .. . ... ... : ... .. . ... ... : ... .. . ... ...
ROW 5A : ... .. 6 ... ... ... : F#2 00 5 P81 ... ... : ... .. . ... : ... .. . ... : ... .. . ... ... : ... .. . ... ... : ... .. . ... ... : ... .. . ... ...
ROW 5B : ... .. . ... ... ... : ... .. 8 ... ... ... : ... .. . ... : ... .. . ... : ... .. . ... ... : ... .. . ... ... : ... .. . ... ... : ... .. . ... ...
ROW 5C : ... .. . ... ... ... : ... .. 5 ... ... ... : ... .. . ... : ... .. . ... : ... .. . ... ... : ... .. . ... ... : ... .. . ... ... : ... .. . ... ...
ROW 5D : ... .. . ... ... ... : ... .. 0 ... ... ... : ... .. . ... : ... .. . ... : ... .. . ... ... : ... .. . ... ... : ... .. . ... ... : ... .. . ... ...
ROW 5E : ... .. . ... ... ... : F#2 00 4 P81 ... ... : ... .. . ... : ... .. . ... : ... .. . ... ... : ... .. . ... ... : ... .. . ... ... : ... .. . ... ...
ROW 5F : ... .. . ... ... ... : ... .. 6 ... ... ... : ... .. . ... : ... .. . ... : ... .. . ... ... : ... .. . ... ... : ... .. . ... ... : ... .. . ... ...
ROW 60 : ... .. . ... ... ... : ... .. 0 ... ... ... : ... .. . ... : ... .. . ... : ... .. . ... ... : ... .. . ... ... : ... .. . ... ... : ... .. . ... ...
ROW 61 : ... .. . ... ... ... : ... .. . ... ... ... : ... .. . ... : ... .. . ... : ... .. . ... ... : ... .. . ... ... : ... .. . ... ... : ... .. . ... ...
ROW 62 : ... .. . ... ... ... : ... .. . ... ... ... : ... .. . ... : ... .. . ... : ... .. . ... ... : ... .. . ... ... : ... .. . ... ... : ... .. . ... ...
ROW 63 : ... .. . ... ... ... : ... .. . ... ... ... : ... .. . ... : ... .. . ... : ... .. . ... ... : ... .. . ... ... : ... .. . ... ... : ... .. . ... ...
ROW 64 : ... .. 7 ... ... ... : A-2 00 5 P81 ... ... : ... .. . ... : ... .. . ... : ... .. . ... ... : ... .. 4 ... ... : ... .. 4 ... ... : A-2 01 4 ... ...
ROW 65 : ... .. . ... ... ... : ... .. 8 ... ... ... : ... .. . ... : ... .. . ... : ... .. . ... ... : ... .. . ... ... : ... .. . ... ... : ... .. 6 ... ...
ROW 66 : ... .. . ... ... ... : ... .. 5 ... ... ... : ... .. . ... : ... .. . ... : ... .. . ... ... : ... .. . ... ... : ... .. . ... ... : ... .. . ... ...
ROW 67 : ... .. . ... ... ... : ... .. 0 ... ... ... : ... .. . ... : ... .. . ... : ... .. . ... ... : ... .. . ... ... : ... .. . ... ... : ... .. 5 ... ...
ROW 68 : ... .. . ... ... ... : A-2 00 4 P81 ... ... : ... .. . ... : ... .. . ... : ... .. . ... ... : ... .. . ... ... : ... .. . ... ... : ... .. . ... ...
ROW 69 : ... .. 8 ... ... ... : ... .. 6 ... ... ... : ... .. . ... : ... .. . ... : ... .. . ... ... : ... .. 1 ... ... : ... .. 1 ... ... : ... .. 2 ... ...
ROW 6A : ... .. . ... ... ... : ... .. 0 ... ... ... : ... .. . ... : ... .. . ... : ... .. . ... ... : ... .. . ... ... : ... .. . ... ... : ... .. . ... ...
ROW 6B : ... .. . ... ... ... : ... .. . ... ... ... : ... .. . ... : ... .. . ... : ... .. . ... ... : ... .. . ... ... : ... .. . ... ... : ... .. . ... ...
ROW 6C : ... .. . ... ... ... : ... .. . ... ... ... : ... .. . ... : ... .. . ... : ... .. . ... ... : ... .. . ... ... : ... .. . ... ... : ... .. . ... ...
ROW 6D : ... .. . ... ... ... : ... .. . ... ... ... : ... .. . ... : ... .. . ... : ... .. . ... ... : ... .. . ... ... : ... .. . ... ... : ... .. . ... ...
ROW 6E : ... .. . ... ... ... : F#2 00 5 P81 ... ... : ... .. . ... : ... .. . ... : ... .. . ... ... : ... .. 4 ... ... : ... .. 4 ... ... : ... .. 5 ... ...
ROW 6F : ... .. . ... ... ... : ... .. 8 ... ... ... : ... .. . ... : ... .. . ... : ... .. . ... ... : ... .. . ... ... : ... .. . ... ... : ... .. . ... ...
ROW 70 : ... .. . ... ... ... : ... .. 5 ... ... ... : ... .. . ... : ... .. . ... : ... .. . ... ... : ... .. . ... ... : ... .. . ... ... : ... .. . ... ...
ROW 71 : ... .. . ... ... ... : ... .. 0 ... ... ... : ... .. . ... : ... .. . ... : ... .. . ... ... : ... .. . ... ... : ... .. . ... ... : ... .. . ... ...
ROW 72 : ... .. . ... ... ... : F#2 00 4 P81 ... ... : ... .. . ... : ... .. . ... : ... .. . ... ... : ... .. . ... ... : ... .. . ... ... : ... .. . ... ...
ROW 73 : ... .. 9 ... ... ... : ... .. 6 ... ... ... : ... .. . ... : ... .. . ... : ... .. . ... ... : ... .. 1 ... ... : ... .. 1 ... ... : ... .. 2 ... ...
ROW 74 : ... .. . ... ... ... : ... .. 0 ... ... ... : ... .. . ... : ... .. . ... : ... .. . ... ... : ... .. . ... ... : ... .. . ... ... : ... .. . ... ...
ROW 75 : ... .. . ... ... ... : ... .. . ... ... ... : ... .. . ... : ... .. . ... : ... .. . ... ... : ... .. . ... ... : ... .. . ... ... : ... .. . ... ...
ROW 76 : ... .. . ... ... ... : ... .. . ... ... ... : ... .. . ... : ... .. . ... : ... .. . ... ... : ... .. . ... ... : ... .. . ... ... : ... .. . ... ...
ROW 77 : ... .. . ... ... ... : ... .. . ... ... ... : ... .. . ... : ... .. . ... : ... .. . ... ... : ... .. . ... ... : ... .. . ... ... : ... .. . ... ...
ROW 78 : ... .. A P82 ... ... : A-2 00 5 P81 ... ... : ... .. . ... : ... .. . ... : ... .. . ... ... : ... .. 2 ... ... : F#3 01 2 ... ... : F#2 01 1 ... ...
ROW 79 : ... .. . P83 ... ... : ... .. 8 ... ... ... : ... .. . ... : ... .. . ... : ... .. . ... ... : ... .. . ... ... : ... .. . ... ... : ... .. 2 ... ...
ROW 7A : ... .. . ... ... ... : ... .. 5 ... ... ... : ... .. . ... : ... .. . ... : ... .. . ... ... : ... .. . ... ... : ... .. . ... ... : ... .. . ... ...
ROW 7B : ... .. . P81 ... ... : ... .. 0 ... ... ... : ... .. . ... : ... .. . ... : ... .. . ... ... : ... .. . ... ... : ... .. . ... ... : ... .. . ... ...
ROW 7C : ... .. . P7F ... ... : A-2 00 4 P81 ... ... : ... .. . ... : ... .. . ... : ... .. . ... ... : ... .. 1 ... ... : ... .. 1 ... ... : ... .. . ... ...
ROW 7D : ... .. 9 P7D ... ... : ... .. 6 ... ... ... : ... .. . ... : ... .. . ... : ... .. . ... ... : ... .. . ... ... : ... .. . ... ... : ... .. 1 ... ...
ROW 7E : ... .. . ... ... ... : ... .. 0 ... ... ... : ... .. . ... : ... .. . ... : ... .. . ... ... : ... .. . ... ... : ... .. . ... ... : ... .. . ... ...
ROW 7F : ... .. . P7E ... ... : ... .. . ... ... ... : ... .. . ... : ... .. . ... : ... .. . ... ... : ... .. . ... ... : ... .. . ... ... : ... .. . ... ...
ROW 80 : ... .. . P80 ... ... : ... .. . ... ... ... : ... .. . ... : ... .. . ... : ... .. . ... ... : ... .. . ... ... : ... .. . ... ... : ... .. . ... ...
ROW 81 : ... .. . P82 ... ... : ... .. . ... ... ... : ... .. . ... : ... .. . ... : ... .. . ... ... : ... .. . ... ... : ... .. . ... ... : ... .. . ... ...
ROW 82 : ... .. 8 P83 ... ... : F#2 00 5 P81 ... ... : ... .. . ... : ... .. . ... : ... .. . ... ... : ... .. . ... ... : ... .. . ... ... : ... .. . ... ...
ROW 83 : ... .. . ... ... ... : ... .. 8 ... ... ... : ... .. . ... : ... .. . ... : ... .. . ... ... : ... .. . ... ... : ... .. . ... ... : ... .. . ... ...
ROW 84 : ... .. . P81 ... ... : ... .. 5 ... ... ... : ... .. . ... : ... .. . ... : ... .. . ... ... : ... .. . ... ... : ... .. . ... ... : ... .. . ... ...
ROW 85 : ... .. . P80 ... ... : ... .. 0 ... ... ... : ... .. . ... : ... .. . ... : ... .. . ... ... : ... .. . ... ... : ... .. . ... ... : ... .. . ... ...
ROW 86 : ... .. . P7D ... ... : F#2 00 4 P81 ... ... : ... .. . ... : ... .. . ... : ... .. . ... ... : ... .. . ... ... : ... .. . ... ... : ... .. . ... ...
ROW 87 : ... .. . ... ... ... : ... .. 6 ... ... ... : ... .. . ... : ... .. . ... : ... .. . ... ... : ... .. . ... ... : ... .. . ... ... : ... .. . ... ...
ROW 88 : ... .. . P7E ... ... : ... .. 0 ... ... ... : ... .. . ... : ... .. . ... : ... .. . ... ... : ... .. . ... ... : ... .. . ... ... : ... .. . ... ...
ROW 89 : ... .. . P80 ... ... : ... .. . ... ... ... : ... .. . ... : ... .. . ... : ... .. . ... ... : ... .. . ... ... : ... .. . ... ... : ... .. . ... ...
ROW 8A : ... .. . P81 ... ... : ... .. . ... ... ... : ... .. . ... : ... .. . ... : ... .. . ... ... : ... .. . ... ... : ... .. . ... ... : ... .. . ... ...
ROW 8B : ... .. . P83 ... ... : ... .. . ... ... ... : ... .. . ... : ... .. . ... : ... .. . ... ... : ... .. . ... ... : ... .. . ... ... : ... .. . ... ...
ROW 8C : ... .. 7 ... ... ... : A-2 00 5 P81 ... ... : A-3 00 . ... : ... .. . ... : ... .. . ... ... : F#3 01 6 ... ... : C#4 01 6 ... ... : A-2 01 4 ... ...
ROW 8D : ... .. . P81 ... ... : ... .. 8 ... ... ... : ... .. . ... : ... .. . ... : ... .. . ... ... : ... .. 5 ... ... : ... .. 5 ... ... : ... .. 6 ... ...
ROW 8E : ... .. . P80 ... ... : ... .. 5 ... ... ... : ... .. . ... : ... .. . ... : ... .. . ... ... : ... .. . ... ... : ... .. . ... ... : ... .. . ... ...
ROW 8F : ... .. . P7E ... ... : ... .. 0 ... ... ... : ... .. . ... : ... .. . ... : ... .. . ... ... : ... .. . ... ... : ... .. . ... ... : ... .. 5 ... ...
ROW 90 : ... .. . P7D ... ... : A-2 00 4 P81 ... ... : ... .. . ... : ... .. . ... : ... .. . ... ... : ... .. 4 ... ... : ... .. 4 ... ... : ... .. . ... ...
ROW 91 : ... .. 6 ... ... ... : ... .. 6 ... ... ... : ... .. . ... : ... .. . ... : ... .. . ... ... : ... .. 1 ... ... : ... .. 1 ... ... : ... .. 2 ... ...
ROW 92 : ... .. . P80 ... ... : ... .. 0 ... ... ... : ... .. . ... : ... .. . ... : ... .. . ... ... : ... .. . ... ... : ... .. . ... ... : ... .. . ... ...
ROW 93 : ... .. . P81 ... ... : ... .. . ... ... ... : ... .. . ... : ... .. . ... : ... .. . ... ... : ... .. . ... ... : ... .. . ... ... : ... .. . ... ...
ROW 94 : ... .. . P83 ... ... : ... .. . ... ... ... : ... .. . ... : ... .. . ... : ... .. . ... ... : ... .. . ... ... : ... .. . ... ... : ... .. . ... ...
ROW 95 : ... .. . ... ... ... : ... .. . ... ... ... : ... .. . ... : ... .. . ... : ... .. . ... ... : ... .. . ... ... : ... .. . ... ... : ... .. . ... ...
ROW 96 : ... .. . P82 ... ... : F#2 00 5 P81 ... ... : G#3 00 . ... : ... .. . ... : ... .. . ... ... : ... .. 4 ... ... : ... .. 4 ... ... : ... .. 5 ... ...
ROW 97 : ... .. . P80 ... ... : ... .. 8 ... ... ... : ... .. . ... : ... .. . ... : ... .. . ... ... : ... .. 3 ... ... : ... .. 3 ... ... : ... .. . ... ...
ROW 98 : ... .. . P7E ... ... : ... .. 5 ... ... ... : ... .. . ... : ... .. . ... : ... .. . ... ... : ... .. . ... ... : ... .. . ... ... : ... .. . ... ...
ROW 99 : ... .. . P7D ... ... : ... .. 0 ... ... ... : ... .. . ... : ... .. . ... : ... .. . ... ... : ... .. 2 ... ... : ... .. 2 ... ... : ... .. . ... ...
ROW 9A : ... .. . ... ... ... : F#2 00 4 P81 ... ... : ... .. . ... : ... .. . ... : ... .. . ... ... : ... .. . ... ... : ... .. . ... ... : ... .. . ... ...
ROW 9B : ... .. 5 P7F ... ... : ... .. 6 ... ... ... : ... .. . ... : ... .. . ... : ... .. . ... ... : ... .. 1 ... ... : ... .. 1 ... ... : ... .. 2 ... ...
ROW 9C : ... .. . P81 ... ... : ... .. 0 ... ... ... : ... .. . ... : ... .. . ... : ... .. . ... ... : ... .. . ... ... : ... .. . ... ... : ... .. . ... ...
ROW 9D : ... .. . P83 ... ... : ... .. . ... ... ... : ... .. . ... : ... .. . ... : ... .. . ... ... : ... .. . ... ... : ... .. . ... ... : ... .. . ... ...
ROW 9E : ... .. . ... ... ... : ... .. . ... ... ... : ... .. . ... : ... .. . ... : ... .. . ... ... : ... .. . ... ... : ... .. . ... ... : ... .. . ... ...
ROW 9F : ... .. . P82 ... ... : ... .. . ... ... ... : ... .. . ... : ... .. . ... : ... .. . ... ... : ... .. . ... ... : ... .. . ... ... : ... .. . ... ...
ROW A0 : ... .. F P80 ... ... : A-2 00 5 P81 ... ... : A-3 00 . ... : ... .. . ... : ... .. . ... ... : ... .. . ... ... : D-4 01 1 ... ... : D-3 01 1 ... ...
ROW A1 : ... .. E ... ... ... : ... .. 8 ... ... ... : ... .. . ... : ... .. . ... : ... .. . ... ... : ... .. . ... ... : ... .. . ... ... : ... .. . ... ...
ROW A2 : ... .. D ... ... ... : ... .. 5 ... ... ... : ... .. . ... : ... .. . ... : ... .. . ... ... : ... .. . ... ... : ... .. . ... ... : ... .. . ... ...
ROW A3 : ... .. A ... ... ... : ... .. 0 ... ... ... : ... .. . ... : ... .. . ... : ... .. . ... ... : ... .. . ... ... : ... .. . ... ... : ... .. . ... ...
ROW A4 : ... .. . ... ... ... : A-2 00 4 P81 ... ... : ... .. . ... : ... .. . ... : ... .. . ... ... : ... .. . ... ... : ... .. . ... ... : ... .. . ... ...
ROW A5 : ... .. 8 ... ... ... : ... .. 6 ... ... ... : ... .. . ... : ... .. . ... : ... .. . ... ... : ... .. . ... ... : ... .. . ... ... : ... .. . ... ...
ROW A6 : ... .. . ... ... ... : ... .. 0 ... ... ... : ... .. . ... : ... .. . ... : ... .. . ... ... : ... .. . ... ... : ... .. . ... ... : ... .. . ... ...
ROW A7 : ... .. . ... ... ... : ... .. . ... ... ... : ... .. . ... : ... .. . ... : ... .. . ... ... : ... .. . ... ... : ... .. . ... ... : ... .. . ... ...
ROW A8 : ... .. . ... ... ... : ... .. . ... ... ... : ... .. . ... : ... .. . ... : ... .. . ... ... : ... .. . ... ... : ... .. . ... ... : ... .. . ... ...
ROW A9 : ... .. . ... ... ... : ... .. . ... ... ... : ... .. . ... : ... .. . ... : ... .. . ... ... : ... .. . ... ... : ... .. . ... ... : ... .. . ... ...
ROW AA : ... .. . ... ... ... : F#2 00 5 P81 ... ... : ... .. . ... : ... .. . ... : ... .. . ... ... : ... .. . ... ... : ... .. . ... ... : ... .. . ... ...
ROW AB : ... .. . ... ... ... : ... .. 8 ... ... ... : ... .. . ... : ... .. . ... : ... .. . ... ... : ... .. . ... ... : ... .. . ... ... : ... .. . ... ...
ROW AC : ... .. . ... ... ... : ... .. 5 ... ... ... : ... .. . ... : ... .. . ... : ... .. . ... ... : ... .. . ... ... : ... .. . ... ... : ... .. . ... ...
ROW AD : ... .. . ... ... ... : ... .. 0 ... ... ... : ... .. . ... : ... .. . ... : ... .. . ... ... : ... .. . ... ... : ... .. . ... ... : ... .. . ... ...
ROW AE : ... .. . ... ... ... : F#2 00 4 P81 ... ... : ... .. . ... : ... .. . ... : ... .. . ... ... : ... .. . ... ... : ... .. . ... ... : ... .. . ... ...
ROW AF : ... .. 7 ... ... ... : ... .. 6 ... ... ... : ... .. . ... : ... .. . ... : ... .. . ... ... : ... .. . ... ... : ... .. . ... ... : ... .. . ... ...
ROW B0 : ... .. . ... ... ... : ... .. 0 ... ... ... : ... .. . ... : ... .. . ... : ... .. . ... ... : ... .. . ... ... : ... .. . ... ... : ... .. . ... ...
ROW B1 : ... .. . ... ... ... : ... .. . ... ... ... : ... .. . ... : ... .. . ... : ... .. . ... ... : ... .. . ... ... : ... .. . ... ... : ... .. . ... ...
ROW B2 : ... .. . ... ... ... : ... .. . ... ... ... : ... .. . ... : ... .. . ... : ... .. . ... ... : ... .. . ... ... : ... .. . ... ... : ... .. . ... ...
ROW B3 : ... .. . ... ... ... : ... .. . ... ... ... : ... .. . ... : ... .. . ... : ... .. . ... ... : ... .. . ... ... : ... .. . ... ... : ... .. . ... ...
ROW B4 : ... .. 6 ... ... ... : A-2 00 5 P81 ... ... : ... .. . ... : ... .. . ... : ... .. . ... ... : ... .. 4 ... ... : ... .. 4 ... ... : A-2 01 4 ... ...
ROW B5 : ... .. 1 ... ... ... : ... .. 8 ... ... ... : ... .. . ... : ... .. . ... : ... .. . ... ... : ... .. . ... ... : ... .. . ... ... : ... .. 6 ... ...
ROW B6 : ... .. . ... ... ... : ... .. 5 ... ... ... : ... .. . ... : ... .. . ... : ... .. . ... ... : ... .. . ... ... : ... .. . ... ... : ... .. . ... ...
ROW B7 : ... .. . ... ... ... : ... .. 0 ... ... ... : ... .. . ... : ... .. . ... : ... .. . ... ... : ... .. . ... ... : ... .. . ... ... : ... .. 5 ... ...
ROW B8 : ... .. . ... ... ... : A-2 00 4 P81 ... ... : ... .. . ... : ... .. . ... : ... .. . ... ... : ... .. . ... ... : ... .. . ... ... : ... .. . ... ...
ROW B9 : ... .. . ... ... ... : ... .. 6 ... ... ... : ... .. . ... : ... .. . ... : ... .. . ... ... : ... .. 1 ... ... : ... .. 1 ... ... : ... .. 2 ... ...
ROW BA : ... .. . ... ... ... : ... .. 0 ... ... ... : ... .. . ... : ... .. . ... : ... .. . ... ... : ... .. . ... ... : ... .. . ... ... : ... .. . ... ...
ROW BB : ... .. 0 ... ... ... : ... .. . ... ... ... : ... .. . ... : ... .. . ... : ... .. . ... ... : ... .. . ... ... : ... .. . ... ... : ... .. . ... ...
ROW BC : ... .. . ... ... ... : ... .. . ... ... ... : ... .. . ... : ... .. . ... : ... .. . ... ... : ... .. . ... ... : ... .. . ... ... : ... .. . ... ...
ROW BD : ... .. . ... ... ... : ... .. . ... ... ... : ... .. . ... : ... .. . ... : ... .. . ... ... : ... .. . ... ... : ... .. . ... ... : ... .. . ... ...
ROW BE : D-3 00 A P80 ... ... : F#2 00 5 P81 ... ... : ... .. . ... : ... .. . ... : ... .. . ... ... : ... .. 4 ... ... : ... .. 4 ... ... : ... .. 5 ... ...
ROW BF : ... .. 9 ... ... ... : ... .. 8 ... ... ... : ... .. . ... : ... .. . ... : ... .. . ... ... : ... .. . ... ... : ... .. . ... ... : ... .. . ... ...
ROW C0 : ... .. 8 ... ... ... : ... .. 5 ... ... ... : ... .. . ... : ... .. . ... : ... .. . ... ... : ... .. . ... ... : ... .. . ... ... : ... .. . ... ...
ROW C1 : ... .. 6 ... ... ... : ... .. 0 ... ... ... : ... .. . ... : ... .. . ... : ... .. . ... ... : ... .. . ... ... : ... .. . ... ... : ... .. . ... ...
ROW C2 : ... .. . ... ... ... : F#2 00 4 P81 ... ... : ... .. . ... : ... .. . ... : ... .. . ... ... : ... .. . ... ... : ... .. . ... ... : ... .. . ... ...
ROW C3 : ... .. . ... ... ... : ... .. 6 ... ... ... : ... .. . ... : ... .. . ... : ... .. . ... ... : ... .. 1 ... ... : ... .. 1 ... ... : ... .. 2 ... ...
ROW C4 : ... .. 1 ... ... ... : ... .. 0 ... ... ... : ... .. . ... : ... .. . ... : ... .. . ... ... : ... .. . ... ... : ... .. . ... ... : ... .. . ... ...
ROW C5 : ... .. . ... ... ... : ... .. . ... ... ... : ... .. . ... : ... .. . ... : ... .. . ... ... : ... .. . ... ... : ... .. . ... ... : ... .. . ... ...
ROW C6 : ... .. . ... ... ... : ... .. . ... ... ... : ... .. . ... : ... .. . ... : ... .. . ... ... : ... .. . ... ... : ... .. . ... ... : ... .. . ... ...
ROW C7 : ... .. . ... ... ... : ... .. . ... ... ... : ... .. . ... : ... .. . ... : ... .. . ... ... : ... .. . ... ... : ... .. . ... ... : ... .. . ... ...
ROW C8 : ... .. 8 ... ... ... : A-2 00 5 P81 ... ... : ... .. . ... : ... .. . ... : ... .. . ... ... : ... .. . ... ... : ... .. . ... ... : F#2 01 1 ... ...
ROW C9 : ... .. 7 ... ... ... : ... .. 8 ... ... ... : ... .. . ... : ... .. . ... : ... .. . ... ... : ... .. . ... ... : ... .. . ... ... : ... .. 2 ... ...
ROW CA : ... .. 6 ... ... ... : ... .. 5 ... ... ... : ... .. . ... : ... .. . ... : ... .. . ... ... : ... .. . ... ... : ... .. . ... ... : ... .. . ... ...
ROW CB : ... .. 5 ... ... ... : ... .. 0 ... ... ... : ... .. . ... : ... .. . ... : ... .. . ... ... : ... .. . ... ... : ... .. . ... ... : ... .. . ... ...
ROW CC : ... .. . ... ... ... : A-2 00 4 P81 ... ... : ... .. . ... : ... .. . ... : ... .. . ... ... : ... .. . ... ... : ... .. . ... ... : ... .. . ... ...
ROW CD : ... .. . ... ... ... : ... .. 6 ... ... ... : ... .. . ... : ... .. . ... : ... .. . ... ... : ... .. . ... ... : ... .. . ... ... : ... .. 1 ... ...
ROW CE : ... .. . ... ... ... : ... .. 0 ... ... ... : ... .. . ... : ... .. . ... : ... .. . ... ... : ... .. . ... ... : ... .. . ... ... : ... .. . ... ...
ROW CF : ... .. . ... ... ... : ... .. . ... ... ... : ... .. . ... : ... .. . ... : ... .. . ... ... : ... .. . ... ... : ... .. . ... ... : ... .. . ... ...
ROW D0 : ... .. . ... ... ... : ... .. . ... ... ... : ... .. . ... : ... .. . ... : ... .. . ... ... : ... .. . ... ... : ... .. . ... ... : ... .. . ... ...
ROW D1 : ... .. . ... ... ... : ... .. . ... ... ... : ... .. . ... : ... .. . ... : ... .. . ... ... : ... .. . ... ... : ... .. . ... ... : ... .. . ... ...
ROW D2 : ... .. 6 ... ... ... : F#2 00 5 P81 ... ... : ... .. . ... : ... .. . ... : ... .. . ... ... : ... .. . ... ... : ... .. . ... ... : ... .. . ... ...
ROW D3 : ... .. . ... ... ... : ... .. 8 ... ... ... : ... .. . ... : ... .. . ... : ... .. . ... ... : ... .. . ... ... : ... .. . ... ... : ... .. . ... ...
ROW D4 : ... .. . ... ... ... : ... .. 5 ... ... ... : ... .. . ... : ... .. . ... : ... .. . ... ... : ... .. . ... ... : ... .. . ... ... : ... .. . ... ...
ROW D5 : ... .. . ... ... ... : ... .. 0 ... ... ... : ... .. . ... : ... .. . ... : ... .. . ... ... : ... .. . ... ... : ... .. . ... ... : ... .. . ... ...
ROW D6 : ... .. . ... ... ... : F#2 00 4 P81 ... ... : ... .. . ... : ... .. . ... : ... .. . ... ... : ... .. . ... ... : ... .. . ... ... : ... .. . ... ...
ROW D7 : ... .. . ... ... ... : ... .. 6 ... ... ... : ... .. . ... : ... .. . ... : ... .. . ... ... : ... .. . ... ... : ... .. . ... ... : ... .. . ... ...
ROW D8 : ... .. . ... ... ... : ... .. 0 ... ... ... : ... .. . ... : ... .. . ... : ... .. . ... ... : ... .. . ... ... : ... .. . ... ... : ... .. . ... ...
ROW D9 : ... .. . ... ... ... : ... .. . ... ... ... : ... .. . ... : ... .. . ... : ... .. . ... ... : ... .. . ... ... : ... .. . ... ... : ... .. . ... ...
ROW DA : ... .. . ... ... ... : ... .. . ... ... ... : ... .. . ... : ... .. . ... : ... .. . ... ... : ... .. . ... ... : ... .. . ... ... : ... .. . ... ...
ROW DB : ... .. . ... ... ... : ... .. . ... ... ... : ... .. . ... : ... .. . ... : ... .. . ... ... : ... .. . ... ... : ... .. . ... ... : ... .. . ... ...
ROW DC : ... .. 7 P82 ... ... : A-2 00 5 P81 ... ... : G#3 00 . ... : ... .. . ... : ... .. . ... ... : A-3 01 6 ... ... : C#4 01 6 ... ... : A-2 01 4 ... ...
ROW DD : ... .. . P83 ... ... : ... .. 8 ... ... ... : ... .. . ... : ... .. . ... : ... .. . ... ... : ... .. 5 ... ... : ... .. 5 ... ... : ... .. 6 ... ...
ROW DE : ... .. . ... ... ... : ... .. 5 ... ... ... : ... .. . ... : ... .. . ... : ... .. . ... ... : ... .. . ... ... : ... .. . ... ... : ... .. . ... ...
ROW DF : ... .. . P82 ... ... : ... .. 0 ... ... ... : ... .. . ... : ... .. . ... : ... .. . ... ... : ... .. . ... ... : ... .. . ... ... : ... .. 5 ... ...
ROW E0 : ... .. . P80 ... ... : A-2 00 4 P81 ... ... : ... .. . ... : ... .. . ... : ... .. . ... ... : ... .. 4 ... ... : ... .. 4 ... ... : ... .. . ... ...
ROW E1 : ... .. 8 P7F ... ... : ... .. 6 ... ... ... : ... .. . ... : ... .. . ... : ... .. . ... ... : ... .. 1 ... ... : ... .. 1 ... ... : ... .. 2 ... ...
ROW E2 : ... .. . P7D ... ... : ... .. 0 ... ... ... : ... .. . ... : ... .. . ... : ... .. . ... ... : ... .. . ... ... : ... .. . ... ... : ... .. . ... ...
ROW E3 : ... .. . ... ... ... : ... .. . ... ... ... : ... .. . ... : ... .. . ... : ... .. . ... ... : ... .. . ... ... : ... .. . ... ... : ... .. . ... ...
ROW E4 : ... .. . ... ... ... : ... .. . ... ... ... : ... .. . ... : ... .. . ... : ... .. . ... ... : ... .. . ... ... : ... .. . ... ... : ... .. . ... ...
ROW E5 : ... .. . P7F ... ... : ... .. . ... ... ... : ... .. . ... : ... .. . ... : ... .. . ... ... : ... .. . ... ... : ... .. . ... ... : ... .. . ... ...
ROW E6 : ... .. . P80 ... ... : F#2 00 5 P81 ... ... : ... .. . ... : ... .. . ... : ... .. . ... ... : G#3 01 6 ... ... : B-3 01 6 ... ... : ... .. 5 ... ...
ROW E7 : ... .. . P82 ... ... : ... .. 8 ... ... ... : ... .. . ... : ... .. . ... : ... .. . ... ... : ... .. 5 ... ... : ... .. 5 ... ... : ... .. . ... ...
ROW E8 : ... .. . P83 ... ... : ... .. 5 ... ... ... : ... .. . ... : ... .. . ... : ... .. . ... ... : ... .. . ... ... : ... .. . ... ... : ... .. . ... ...
ROW E9 : ... .. . ... ... ... : ... .. 0 ... ... ... : ... .. . ... : ... .. . ... : ... .. . ... ... : ... .. . ... ... : ... .. . ... ... : ... .. . ... ...
ROW EA : ... .. . P81 ... ... : F#2 00 4 P81 ... ... : ... .. . ... : ... .. . ... : ... .. . ... ... : ... .. 4 ... ... : ... .. 4 ... ... : ... .. . ... ...
ROW EB : ... .. 9 P80 ... ... : ... .. 6 ... ... ... : ... .. . ... : ... .. . ... : ... .. . ... ... : ... .. 1 ... ... : ... .. 1 ... ... : ... .. 2 ... ...
ROW EC : ... .. . P7E ... ... : ... .. 0 ... ... ... : ... .. . ... : ... .. . ... : ... .. . ... ... : ... .. . ... ... : ... .. . ... ... : ... .. . ... ...
ROW ED : ... .. . P7D ... ... : ... .. . ... ... ... : ... .. . ... : ... .. . ... : ... .. . ... ... : ... .. . ... ... : ... .. . ... ... : ... .. . ... ...
ROW EE : ... .. . ... ... ... : ... .. . ... ... ... : ... .. . ... : ... .. . ... : ... .. . ... ... : ... .. . ... ... : ... .. . ... ... : ... .. . ... ...
ROW EF : ... .. . P7E ... ... : ... .. . ... ... ... : ... .. . ... : ... .. . ... : ... .. . ... ... : ... .. . ... ... : ... .. . ... ... : ... .. . ... ...
ROW F0 : ... .. A P80 ... ... : C#3 00 5 P81 ... ... : F#3 00 . ... : ... .. . ... : ... .. . ... ... : A-3 01 4 ... ... : C#4 01 4 ... ... : C#3 01 3 ... ...
ROW F1 : ... .. 2 P81 ... ... : ... .. 8 ... ... ... : ... .. . ... : ... .. . ... : ... .. . ... ... : ... .. . ... ... : ... .. . ... ... : ... .. 4 ... ...
ROW F2 : ... .. . P83 ... ... : ... .. 5 ... ... ... : ... .. . ... : ... .. . ... : ... .. . ... ... : ... .. . ... ... : ... .. . ... ... : ... .. . ... ...
ROW F3 : ... .. . ... ... ... : ... .. 0 ... ... ... : ... .. . ... : ... .. . ... : ... .. . ... ... : ... .. . ... ... : ... .. . ... ... : ... .. . ... ...
ROW F4 : ... .. 1 ... ... ... : C#3 00 4 P81 ... ... : ... .. . ... : ... .. . ... : ... .. . ... ... : ... .. 3 ... ... : ... .. 3 ... ... : ... .. . ... ...
ROW F5 : ... .. . P81 ... ... : ... .. 6 ... ... ... : ... .. . ... : ... .. . ... : ... .. . ... ... : ... .. . ... ... : ... .. . ... ... : ... .. . ... ...
ROW F6 : ... .. . P80 ... ... : ... .. 0 ... ... ... : ... .. . ... : ... .. . ... : ... .. . ... ... : ... .. . ... ... : ... .. . ... ... : ... .. . ... ...
ROW F7 : ... .. 0 ... ... ... : ... .. . ... ... ... : ... .. . ... : ... .. . ... : ... .. . ... ... : ... .. . ... ... : ... .. . ... ... : ... .. . ... ...
ROW F8 : ... .. . ... ... ... : ... .. . ... ... ... : ... .. . ... : ... .. . ... : ... .. . ... ... : ... .. . ... ... : ... .. . ... ... : ... .. . ... ...
ROW F9 : ... .. . ... ... ... : ... .. . ... ... ... : ... .. . ... : ... .. . ... : ... .. . ... ... : ... .. . ... ... : ... .. . ... ... : ... .. . ... ...
ROW FA : ... .. . ... ... ... : A-2 00 5 P81 ... ... : ... .. . ... : ... .. . ... : ... .. . ... ... : ... .. . ... ... : ... .. . ... ... : ... .. . ... ...
ROW FB : ... .. . ... ... ... : ... .. 8 ... ... ... : ... .. . ... : ... .. . ... : ... .. . ... ... : ... .. . ... ... : ... .. . ... ... : ... .. . ... ...
ROW FC : ... .. . ... ... ... : ... .. 5 ... ... ... : ... .. . ... : ... .. . ... : ... .. . ... ... : ... .. . ... ... : ... .. . ... ... : ... .. . ... ...
ROW FD : ... .. . ... ... ... : ... .. 0 ... ... ... : ... .. . ... : ... .. . ... : ... .. . ... ... : ... .. . ... ... : ... .. . ... ... : ... .. . ... ...
ROW FE : ... .. . ... ... ... : A-2 00 4 P81 ... ... : ... .. . ... : ... .. . ... : ... .. . ... ... : ... .. . ... ... : ... .. . ... ... : ... .. . ... ...
ROW FF : ... .. . ... ... ... : ... .. 6 ... ... ... : ... .. . ... : ... .. . ... : ... .. . ... ... : ... .. . ... ... : ... .. . ... ... : ... .. . ... ...

PATTERN 15
ROW 00 : ... .. . ... ... ... : ... .. 0 ... ... ... : ... .. . ... : ... .. . ... : ... .. . ... ... : ... .. . ... ... : ... .. . ... ... : ... .. . ... ...
ROW 01 : ... .. . ... ... ... : ... .. . ... ... ... : ... .. . ... : ... .. . ... : ... .. . ... ... : ... .. . ... ... : ... .. . ... ... : ... .. . ... ...
ROW 02 : ... .. . ... ... ... : ... .. . ... ... ... : ... .. . ... : ... .. . ... : ... .. . ... ... : ... .. . ... ... : ... .. . ... ... : ... .. . ... ...
ROW 03 : ... .. . ... ... ... : ... .. . ... ... ... : ... .. . ... : ... .. . ... : ... .. . ... ... : ... .. . ... ... : ... .. . ... ... : ... .. . ... ...
ROW 04 : C#3 00 A P80 ... ... : C#3 00 5 P81 ... ... : ... .. . ... : ... .. . ... : ... .. . ... ... : ... .. . ... ... : ... .. . ... ... : A-2 01 3 ... ...
ROW 05 : ... .. 9 ... ... ... : ... .. 8 ... ... ... : ... .. . ... : ... .. . ... : ... .. . ... ... : ... .. . ... ... : ... .. . ... ... : ... .. 4 ... ...
ROW 06 : ... .. 8 ... ... ... : ... .. 5 ... ... ... : ... .. . ... : ... .. . ... : ... .. . ... ... : ... .. . ... ... : ... .. . ... ... : ... .. . ... ...
ROW 07 : ... .. 6 ... ... ... : ... .. 0 ... ... ... : ... .. . ... : ... .. . ... : ... .. . ... ... : ... .. . ... ... : ... .. . ... ... : ... .. . ... ...
ROW 08 : ... .. . ... ... ... : C#3 00 4 P81 ... ... : ... .. . ... : ... .. . ... : ... .. . ... ... : ... .. . ... ... : ... .. . ... ... : ... .. . ... ...
ROW 09 : ... .. 7 ... ... ... : ... .. 6 ... ... ... : ... .. . ... : ... .. . ... : ... .. . ... ... : ... .. . ... ... : ... .. . ... ... : ... .. . ... ...
ROW 0A : ... .. . ... ... ... : ... .. 0 ... ... ... : ... .. . ... : ... .. . ... : ... .. . ... ... : ... .. . ... ... : ... .. . ... ... : ... .. . ... ...
ROW 0B : ... .. . ... ... ... : ... .. . ... ... ... : ... .. . ... : ... .. . ... : ... .. . ... ... : ... .. . ... ... : ... .. . ... ... : ... .. . ... ...
ROW 0C : ... .. . ... ... ... : ... .. . ... ... ... : ... .. . ... : ... .. . ... : ... .. . ... ... : ... .. . ... ... : ... .. . ... ... : ... .. . ... ...
ROW 0D : ... .. . ... ... ... : ... .. . ... ... ... : ... .. . ... : ... .. . ... : ... .. . ... ... : ... .. . ... ... : ... .. . ... ... : ... .. . ... ...
ROW 0E : ... .. 8 ... ... ... : A-2 00 5 P81 ... ... : ... .. . ... : ... .. . ... : ... .. . ... ... : ... .. . ... ... : ... .. . ... ... : ... .. . ... ...
ROW 0F : ... .. . ... ... ... : ... .. 8 ... ... ... : ... .. . ... : ... .. . ... : ... .. . ... ... : ... .. . ... ... : ... .. . ... ... : ... .. . ... ...
ROW 10 : ... .. . ... ... ... : ... .. 5 ... ... ... : ... .. . ... : ... .. . ... : ... .. . ... ... : ... .. . ... ... : ... .. . ... ... : ... .. . ... ...
ROW 11 : ... .. . ... ... ... : ... .. 0 ... ... ... : ... .. . ... : ... .. . ... : ... .. . ... ... : ... .. . ... ... : ... .. . ... ... : ... .. . ... ...
ROW 12 : ... .. . ... ... ... : A-2 00 4 P81 ... ... : ... .. . ... : ... .. . ... : ... .. . ... ... : ... .. . ... ... : ... .. . ... ... : ... .. . ... ...
ROW 13 : ... .. . ... ... ... : ... .. 6 ... ... ... : ... .. . ... : ... .. . ... : ... .. . ... ... : ... .. . ... ... : ... .. . ... ... : ... .. . ... ...
ROW 14 : ... .. . ... ... ... : ... .. 0 ... ... ... : ... .. . ... : ... .. . ... : ... .. . ... ... : ... .. . ... ... : ... .. . ... ... : ... .. . ... ...
ROW 15 : ... .. . ... ... ... : ... .. . ... ... ... : ... .. . ... : ... .. . ... : ... .. . ... ... : ... .. . ... ... : ... .. . ... ... : ... .. . ... ...
ROW 16 : ... .. . ... ... ... : ... .. . ... ... ... : ... .. . ... : ... .. . ... : ... .. . ... ... : ... .. . ... ... : ... .. . ... ... : ... .. . ... ...
ROW 17 : ... .. . ... ... ... : ... .. . ... ... ... : ... .. . ... : ... .. . ... : ... .. . ... ... : ... .. . ... ... : ... .. . ... ... : ... .. . ... ...
ROW 18 : F#2 00 8 ... ... ... : C#3 00 5 P81 ... ... : ... .. . ... : ... .. . ... : ... .. . ... ... : E-3 01 4 ... ... : ... .. 4 ... ... : F#2 01 3 ... ...
ROW 19 : ... .. 7 ... ... ... : ... .. 8 ... ... ... : ... .. . ... : ... .. . ... : ... .. . ... ... : ... .. . ... ... : ... .. . ... ... : ... .. 4 ... ...
ROW 1A : ... .. 6 ... ... ... : ... .. 5 ... ... ... : ... .. . ... : ... .. . ... : ... .. . ... ... : ... .. . ... ... : ... .. . ... ... : ... .. . ... ...
ROW 1B : ... .. 5 ... ... ... : ... .. 0 ... ... ... : ... .. . ... : ... .. . ... : ... .. . ... ... : ... .. . ... ... : ... .. . ... ... : ... .. . ... ...
ROW 1C : ... .. . ... ... ... : C#3 00 4 P81 ... ... : ... .. . ... : ... .. . ... : ... .. . ... ... : ... .. 3 ... ... : ... .. 3 ... ... : ... .. . ... ...
ROW 1D : ... .. 9 ... ... ... : ... .. 6 ... ... ... : ... .. . ... : ... .. . ... : ... .. . ... ... : ... .. . ... ... : ... .. . ... ... : ... .. . ... ...
ROW 1E : ... .. . ... ... ... : ... .. 0 ... ... ... : ... .. . ... : ... .. . ... : ... .. . ... ... : ... .. . ... ... : ... .. . ... ... : ... .. . ... ...
ROW 1F : ... .. . ... ... ... : ... .. . ... ... ... : ... .. . ... : ... .. . ... : ... .. . ... ... : ... .. . ... ... : ... .. . ... ... : ... .. . ... ...
ROW 20 : ... .. . ... ... ... : ... .. . ... ... ... : ... .. . ... : ... .. . ... : ... .. . ... ... : ... .. . ... ... : ... .. . ... ... : ... .. . ... ...
ROW 21 : ... .. . ... ... ... : ... .. . ... ... ... : ... .. . ... : ... .. . ... : ... .. . ... ... : ... .. . ... ... : ... .. . ... ... : ... .. . ... ...
ROW 22 : ... .. 8 ... ... ... : A-2 00 5 P81 ... ... : ... .. . ... : ... .. . ... : ... .. . ... ... : ... .. . ... ... : ... .. . ... ... : ... .. . ... ...
ROW 23 : ... .. . ... ... ... : ... .. 8 ... ... ... : ... .. . ... : ... .. . ... : ... .. . ... ... : ... .. 2 ... ... : ... .. 2 ... ... : ... .. . ... ...
ROW 24 : ... .. . ... ... ... : ... .. 5 ... ... ... : ... .. . ... : ... .. . ... : ... .. . ... ... : ... .. . ... ... : ... .. . ... ... : ... .. . ... ...
ROW 25 : ... .. . ... ... ... : ... .. 0 ... ... ... : ... .. . ... : ... .. . ... : ... .. . ... ... : ... .. . ... ... : ... .. . ... ... : ... .. . ... ...
ROW 26 : ... .. . ... ... ... : A-2 00 4 P81 ... ... : ... .. . ... : ... .. . ... : ... .. . ... ... : ... .. 1 ... ... : ... .. 1 ... ... : ... .. . ... ...
ROW 27 : ... .. . ... ... ... : ... .. 6 ... ... ... : ... .. . ... : ... .. . ... : ... .. . ... ... : ... .. . ... ... : ... .. . ... ... : ... .. . ... ...
ROW 28 : ... .. . ... ... ... : ... .. 0 ... ... ... : ... .. . ... : ... .. . ... : ... .. . ... ... : ... .. . ... ... : ... .. . ... ... : ... .. . ... ...
ROW 29 : ... .. . ... ... ... : ... .. . ... ... ... : ... .. . ... : ... .. . ... : ... .. . ... ... : ... .. . ... ... : ... .. . ... ... : ... .. . ... ...
ROW 2A : ... .. . ... ... ... : ... .. . ... ... ... : ... .. . ... : ... .. . ... : ... .. . ... ... : ... .. . ... ... : ... .. . ... ... : ... .. . ... ...
ROW 2B : ... .. . ... ... ... : ... .. . ... ... ... : ... .. . ... : ... .. . ... : ... .. . ... ... : ... .. . ... ... : ... .. . ... ... : ... .. . ... ...
ROW 2C : C#3 00 B ... ... ... : C#3 00 5 P81 ... ... : E-3 00 . ... : ... .. . ... : ... .. . ... ... : C#3 01 4 ... ... : F#3 01 4 ... ... : A-2 01 3 ... ...
ROW 2D : ... .. A ... ... ... : ... .. 8 ... ... ... : ... .. . ... : ... .. . ... : ... .. . ... ... : ... .. . ... ... : ... .. . ... ... : ... .. 4 ... ...
ROW 2E : ... .. 9 ... ... ... : ... .. 5 ... ... ... : ... .. . ... : ... .. . ... : ... .. . ... ... : ... .. . ... ... : ... .. . ... ... : ... .. . ... ...
ROW 2F : ... .. 7 ... ... ... : ... .. 0 ... ... ... : ... .. . ... : ... .. . ... : ... .. . ... ... : ... .. . ... ... : ... .. . ... ... : ... .. . ... ...
ROW 30 : ... .. . ... ... ... : C#3 00 4 P81 ... ... : ... .. . ... : ... .. . ... : ... .. . ... ... : ... .. 3 ... ... : ... .. 3 ... ... : ... .. . ... ...
ROW 31 : ... .. 6 ... ... ... : ... .. 6 ... ... ... : ... .. . ... : ... .. . ... : ... .. . ... ... : ... .. . ... ... : ... .. . ... ... : ... .. . ... ...
ROW 32 : ... .. . ... ... ... : ... .. 0 ... ... ... : ... .. . ... : ... .. . ... : ... .. . ... ... : ... .. . ... ... : ... .. . ... ... : ... .. . ... ...
ROW 33 : ... .. . ... ... ... : ... .. . ... ... ... : ... .. . ... : ... .. . ... : ... .. . ... ... : ... .. . ... ... : ... .. . ... ... : ... .. . ... ...
ROW 34 : ... .. . ... ... ... : ... .. . ... ... ... : ... .. . ... : ... .. . ... : ... .. . ... ... : ... .. . ... ... : ... .. . ... ... : ... .. . ... ...
ROW 35 : ... .. . ... ... ... : ... .. . ... ... ... : ... .. . ... : ... .. . ... : ... .. . ... ... : ... .. . ... ... : ... .. . ... ... : ... .. . ... ...
ROW 36 : ... .. . ... ... ... : A-2 00 5 P81 ... ... : ... .. . ... : ... .. . ... : ... .. . ... ... : ... .. . ... ... : ... .. . ... ... : ... .. . ... ...
ROW 37 : ... .. . ... ... ... : ... .. 8 ... ... ... : ... .. . ... : ... .. . ... : ... .. . ... ... : ... .. 2 ... ... : ... .. 2 ... ... : ... .. . ... ...
ROW 38 : ... .. . ... ... ... : ... .. 5 ... ... ... : ... .. . ... : ... .. . ... : ... .. . ... ... : ... .. . ... ... : ... .. . ... ... : ... .. . ... ...
ROW 39 : ... .. . ... ... ... : ... .. 0 ... ... ... : ... .. . ... : ... .. . ... : ... .. . ... ... : ... .. . ... ... : ... .. . ... ... : ... .. . ... ...
ROW 3A : ... .. . ... ... ... : A-2 00 4 P81 ... ... : ... .. . ... : ... .. . ... : ... .. . ... ... : ... .. 1 ... ... : ... .. 1 ... ... : ... .. . ... ...
ROW 3B : ... .. 5 ... ... ... : ... .. 6 ... ... ... : ... .. . ... : ... .. . ... : ... .. . ... ... : ... .. . ... ... : ... .. . ... ... : ... .. . ... ...
ROW 3C : ... .. . ... ... ... : ... .. 0 ... ... ... : ... .. . ... : ... .. . ... : ... .. . ... ... : ... .. . ... ... : ... .. . ... ... : ... .. . ... ...
ROW 3D : ... .. . ... ... ... : ... .. . ... ... ... : ... .. . ... : ... .. . ... : ... .. . ... ... : ... .. . ... ... : ... .. . ... ... : ... .. . ... ...
ROW 3E : ... .. . ... ... ... : ... .. . ... ... ... : ... .. . ... : ... .. . ... : ... .. . ... ... : ... .. . ... ... : ... .. . ... ... : ... .. . ... ...
ROW 3F : ... .. . ... ... ... : ... .. . ... ... ... : ... .. . ... : ... .. . ... : ... .. . ... ... : ... .. . ... ... : ... .. . ... ... : ... .. . ... ...
ROW 40 : F#3 00 B ... ... ... : D-3 00 5 P81 ... ... : D-3 00 . ... : ... .. . ... : ... .. . ... ... : A-3 01 4 ... ... : F#4 01 4 ... ... : D-3 01 3 ... ...
ROW 41 : ... .. A ... ... ... : ... .. 8 ... ... ... : ... .. . ... : ... .. . ... : ... .. . ... ... : ... .. . ... ... : ... .. . ... ... : ... .. 4 ... ...
ROW 42 : ... .. 9 ... ... ... : ... .. 5 ... ... ... : ... .. . ... : ... .. . ... : ... .. . ... ... : ... .. . ... ... : ... .. . ... ... : ... .. . ... ...
ROW 43 : ... .. 7 ... ... ... : ... .. 0 ... ... ... : ... .. . ... : ... .. . ... : ... .. . ... ... : ... .. . ... ... : ... .. . ... ... : ... .. . ... ...
ROW 44 : ... .. . ... ... ... : D-3 00 4 P81 ... ... : ... .. . ... : ... .. . ... : ... .. . ... ... : ... .. 3 ... ... : ... .. 3 ... ... : ... .. . ... ...
ROW 45 : ... .. 5 ... ... ... : ... .. 6 ... ... ... : ... .. . ... : ... .. . ... : ... .. . ... ... : ... .. . ... ... : ... .. . ... ... : ... .. . ... ...
ROW 46 : ... .. . ... ... ... : ... .. 0 ... ... ... : ... .. . ... : ... .. . ... : ... .. . ... ... : ... .. . ... ... : ... .. . ... ... : ... .. . ... ...
ROW 47 : ... .. . ... ... ... : ... .. . ... ... ... : ... .. . ... : ... .. . ... : ... .. . ... ... : ... .. . ... ... : ... .. . ... ... : ... .. . ... ...
ROW 48 : ... .. . ... ... ... : ... .. . ... ... ... : ... .. . ... : ... .. . ... : ... .. . ... ... : ... .. . ... ... : ... .. . ... ... : ... .. . ... ...
ROW 49 : ... .. . ... ... ... : ... .. . ... ... ... : ... .. . ... : ... .. . ... : ... .. . ... ... : ... .. . ... ... : ... .. . ... ... : ... .. . ... ...
ROW 4A : ... .. 6 ... ... ... : A-2 00 5 P81 ... ... : ... .. . ... : ... .. . ... : ... .. . ... ... : ... .. . ... ... : ... .. . ... ... : ... .. . ... ...
ROW 4B : ... .. . ... ... ... : ... .. 8 ... ... ... : ... .. . ... : ... .. . ... : ... .. . ... ... : ... .. . ... ... : ... .. . ... ... : ... .. . ... ...
ROW 4C : ... .. . ... ... ... : ... .. 5 ... ... ... : ... .. . ... : ... .. . ... : ... .. . ... ... : ... .. . ... ... : ... .. . ... ... : ... .. . ... ...
ROW 4D : ... .. . ... ... ... : ... .. 0 ... ... ... : ... .. . ... : ... .. . ... : ... .. . ... ... : ... .. . ... ... : ... .. . ... ... : ... .. . ... ...
ROW 4E : ... .. . ... ... ... : A-2 00 4 P81 ... ... : ... .. . ... : ... .. . ... : ... .. . ... ... : ... .. . ... ... : ... .. . ... ... : ... .. . ... ...
ROW 4F : ... .. . ... ... ... : ... .. 6 ... ... ... : ... .. . ... : ... .. . ... : ... .. . ... ... : ... .. . ... ... : ... .. . ... ... : ... .. . ... ...
ROW 50 : ... .. . ... ... ... : ... .. 0 ... ... ... : ... .. . ... : ... .. . ... : ... .. . ... ... : ... .. . ... ... : ... .. . ... ... : ... .. . ... ...
ROW 51 : ... .. . ... ... ... : ... .. . ... ... ... : ... .. . ... : ... .. . ... : ... .. . ... ... : ... .. . ... ... : ... .. . ... ... : ... .. . ... ...
ROW 52 : ... .. . ... ... ... : ... .. . ... ... ... : ... .. . ... : ... .. . ... : ... .. . ... ... : ... .. . ... ... : ... .. . ... ... : ... .. . ... ...
ROW 53 : ... .. . ... ... ... : ... .. . ... ... ... : ... .. . ... : ... .. . ... : ... .. . ... ... : ... .. . ... ... : ... .. . ... ... : ... .. . ... ...
ROW 54 : ... .. 7 ... ... ... : D-3 00 5 P81 ... ... : ... .. . ... : ... .. . ... : ... .. . ... ... : ... .. . ... ... : ... .. . ... ... : ... .. . ... ...
ROW 55 : ... .. . ... ... ... : ... .. 8 ... ... ... : ... .. . ... : ... .. . ... : ... .. . ... ... : ... .. 2 ... ... : ... .. 2 ... ... : ... .. . ... ...
ROW 56 : ... .. . ... ... ... : ... .. 5 ... ... ... : ... .. . ... : ... .. . ... : ... .. . ... ... : ... .. . ... ... : ... .. . ... ... : ... .. . ... ...
ROW 57 : ... .. . ... ... ... : ... .. 0 ... ... ... : ... .. . ... : ... .. . ... : ... .. . ... ... : ... .. . ... ... : ... .. . ... ... : ... .. . ... ...
ROW 58 : ... .. . ... ... ... : D-3 00 4 P81 ... ... : ... .. . ... : ... .. . ... : ... .. . ... ... : ... .. 1 ... ... : ... .. 1 ... ... : ... .. . ... ...
ROW 59 : ... .. 8 ... ... ... : ... .. 6 ... ... ... : ... .. . ... : ... .. . ... : ... .. . ... ... : ... .. . ... ... : ... .. . ... ... : ... .. . ... ...
ROW 5A : ... .. . ... ... ... : ... .. 0 ... ... ... : ... .. . ... : ... .. . ... : ... .. . ... ... : ... .. . ... ... : ... .. . ... ... : ... .. . ... ...
ROW 5B : ... .. . ... ... ... : ... .. . ... ... ... : ... .. . ... : ... .. . ... : ... .. . ... ... : ... .. . ... ... : ... .. . ... ... : ... .. . ... ...
ROW 5C : ... .. . ... ... ... : ... .. . ... ... ... : ... .. . ... : ... .. . ... : ... .. . ... ... : ... .. . ... ... : ... .. . ... ... : ... .. . ... ...
ROW 5D : ... .. . ... ... ... : ... .. . ... ... ... : ... .. . ... : ... .. . ... : ... .. . ... ... : ... .. . ... ... : ... .. . ... ... : ... .. . ... ...
ROW 5E : ... .. . ... ... ... : A-2 00 5 P81 ... ... : ... .. . ... : ... .. . ... : ... .. . ... ... : ... .. . ... ... : ... .. . ... ... : ... .. . ... ...
ROW 5F : ... .. . ... ... ... : ... .. 8 ... ... ... : ... .. . ... : ... .. . ... : ... .. . ... ... : ... .. . ... ... : ... .. . ... ... : ... .. . ... ...
ROW 60 : ... .. . ... ... ... : ... .. 5 ... ... ... : ... .. . ... : ... .. . ... : ... .. . ... ... : ... .. . ... ... : ... .. . ... ... : ... .. . ... ...
ROW 61 : ... .. . ... ... ... : ... .. 0 ... ... ... : ... .. . ... : ... .. . ... : ... .. . ... ... : ... .. . ... ... : ... .. . ... ... : ... .. . ... ...
ROW 62 : ... .. . ... ... ... : A-2 00 4 P81 ... ... : ... .. . ... : ... .. . ... : ... .. . ... ... : ... .. . ... ... : ... .. . ... ... : ... .. . ... ...
ROW 63 : ... .. 9 ... ... ... : ... .. 6 ... ... ... : ... .. . ... : ... .. . ... : ... .. . ... ... : ... .. . ... ... : ... .. . ... ... : ... .. . ... ...
ROW 64 : ... .. . ... ... ... : ... .. 0 ... ... ... : ... .. . ... : ... .. . ... : ... .. . ... ... : ... .. . ... ... : ... .. . ... ... : ... .. . ... ...
ROW 65 : ... .. . ... ... ... : ... .. . ... ... ... : ... .. . ... : ... .. . ... : ... .. . ... ... : ... .. . ... ... : ... .. . ... ... : ... .. . ... ...
ROW 66 : ... .. . ... ... ... : ... .. . ... ... ... : ... .. . ... : ... .. . ... : ... .. . ... ... : ... .. . ... ... : ... .. . ... ... : ... .. . ... ...
ROW 67 : ... .. . ... ... ... : ... .. . ... ... ... : ... .. . ... : ... .. . ... : ... .. . ... ... : ... .. . ... ... : ... .. . ... ... : ... .. . ... ...
ROW 68 : E-3 00 B ... ... ... : C#3 00 5 P81 ... ... : C#3 00 . ... : ... .. . ... : ... .. . ... ... : ... .. 4 ... ... : E-4 01 4 ... ... : C#3 01 3 ... ...
ROW 69 : ... .. A ... ... ... : ... .. 8 ... ... ... : ... .. . ... : ... .. . ... : ... .. . ... ... : ... .. . ... ... : ... .. . ... ... : ... .. 4 ... ...
ROW 6A : ... .. 9 ... ... ... : ... .. 5 ... ... ... : ... .. . ... : ... .. . ... : ... .. . ... ... : ... .. . ... ... : ... .. . ... ... : ... .. . ... ...
ROW 6B : ... .. 7 ... ... ... : ... .. 0 ... ... ... : ... .. . ... : ... .. . ... : ... .. . ... ... : ... .. . ... ... : ... .. . ... ... : ... .. . ... ...
ROW 6C : ... .. . ... ... ... : C#3 00 4 P81 ... ... : ... .. . ... : ... .. . ... : ... .. . ... ... : ... .. 3 ... ... : ... .. 3 ... ... : ... .. . ... ...
ROW 6D : ... .. 9 ... ... ... : ... .. 6 ... ... ... : ... .. . ... : ... .. . ... : ... .. . ... ... : ... .. . ... ... : ... .. . ... ... : ... .. . ... ...
ROW 6E : ... .. . ... ... ... : ... .. 0 ... ... ... : ... .. . ... : ... .. . ... : ... .. . ... ... : ... .. . ... ... : ... .. . ... ... : ... .. . ... ...
ROW 6F : ... .. . ... ... ... : ... .. . ... ... ... : ... .. . ... : ... .. . ... : ... .. . ... ... : ... .. . ... ... : ... .. . ... ... : ... .. . ... ...
ROW 70 : ... .. . ... ... ... : ... .. . ... ... ... : ... .. . ... : ... .. . ... : ... .. . ... ... : ... .. . ... ... : ... .. . ... ... : ... .. . ... ...
ROW 71 : ... .. . ... ... ... : ... .. . ... ... ... : ... .. . ... : ... .. . ... : ... .. . ... ... : ... .. . ... ... : ... .. . ... ... : ... .. . ... ...
ROW 72 : ... .. 8 ... ... ... : A-2 00 5 P81 ... ... : ... .. . ... : ... .. . ... : ... .. . ... ... : ... .. . ... ... : ... .. . ... ... : ... .. . ... ...
ROW 73 : ... .. . ... ... ... : ... .. 8 ... ... ... : ... .. . ... : ... .. . ... : ... .. . ... ... : ... .. . ... ... : ... .. . ... ... : ... .. . ... ...
ROW 74 : ... .. . ... ... ... : ... .. 5 ... ... ... : ... .. . ... : ... .. . ... : ... .. . ... ... : ... .. . ... ... : ... .. . ... ... : ... .. . ... ...
ROW 75 : ... .. . ... ... ... : ... .. 0 ... ... ... : ... .. . ... : ... .. . ... : ... .. . ... ... : ... .. . ... ... : ... .. . ... ... : ... .. . ... ...
ROW 76 : ... .. . ... ... ... : A-2 00 4 P81 ... ... : ... .. . ... : ... .. . ... : ... .. . ... ... : ... .. . ... ... : ... .. . ... ... : ... .. . ... ...
ROW 77 : ... .. . ... ... ... : ... .. 6 ... ... ... : ... .. . ... : ... .. . ... : ... .. . ... ... : ... .. . ... ... : ... .. . ... ... : ... .. . ... ...
ROW 78 : ... .. . ... ... ... : ... .. 0 ... ... ... : ... .. . ... : ... .. . ... : ... .. . ... ... : ... .. . ... ... : ... .. . ... ... : ... .. . ... ...
ROW 79 : ... .. . ... ... ... : ... .. . ... ... ... : ... .. . ... : ... .. . ... : ... .. . ... ... : ... .. . ... ... : ... .. . ... ... : ... .. . ... ...
ROW 7A : ... .. . ... ... ... : ... .. . ... ... ... : ... .. . ... : ... .. . ... : ... .. . ... ... : ... .. . ... ... : ... .. . ... ... : ... .. . ... ...
ROW 7B : ... .. . ... ... ... : ... .. . ... ... ... : ... .. . ... : ... .. . ... : ... .. . ... ... : ... .. . ... ... : ... .. . ... ... : ... .. . ... ...
ROW 7C : ... .. 7 ... ... ... : C#3 00 5 P81 ... ... : ... .. . ... : ... .. . ... : ... .. . ... ... : ... .. . ... ... : ... .. . ... ... : ... .. . ... ...
ROW 7D : ... .. . ... ... ... : ... .. 8 ... ... ... : ... .. . ... : ... .. . ... : ... .. . ... ... : ... .. 2 ... ... : ... .. 2 ... ... : ... .. . ... ...
ROW 7E : ... .. . ... ... ... : ... .. 5 ... ... ... : ... .. . ... : ... .. . ... : ... .. . ... ... : ... .. . ... ... : ... .. . ... ... : ... .. . ... ...
ROW 7F : ... .. . ... ... ... : ... .. 0 ... ... ... : ... .. . ... : ... .. . ... : ... .. . ... ... : ... .. . ... ... : ... .. . ... ... : ... .. . ... ...
ROW 80 : ... .. . ... ... ... : C#3 00 4 P81 ... ... : ... .. . ... : ... .. . ... : ... .. . ... ... : ... .. 1 ... ... : ... .. 1 ... ... : ... .. . ... ...
ROW 81 : ... .. 6 ... ... ... : ... .. 6 ... ... ... : ... .. . ... : ... .. . ... : ... .. . ... ... : ... .. . ... ... : ... .. . ... ... : ... .. . ... ...
ROW 82 : ... .. . ... ... ... : ... .. 0 ... ... ... : ... .. . ... : ... .. . ... : ... .. . ... ... : ... .. . ... ... : ... .. . ... ... : ... .. . ... ...
ROW 83 : ... .. . ... ... ... : ... .. . ... ... ... : ... .. . ... : ... .. . ... : ... .. . ... ... : ... .. . ... ... : ... .. . ... ... : ... .. . ... ...
ROW 84 : ... .. . ... ... ... : ... .. . ... ... ... : ... .. . ... : ... .. . ... : ... .. . ... ... : ... .. . ... ... : ... .. . ... ... : ... .. . ... ...
ROW 85 : ... .. . ... ... ... : ... .. . ... ... ... : ... .. . ... : ... .. . ... : ... .. . ... ... : ... .. . ... ... : ... .. . ... ... : ... .. . ... ...
ROW 86 : ... .. . ... ... ... : A-2 00 5 P81 ... ... : ... .. . ... : ... .. . ... : ... .. . ... ... : ... .. . ... ... : ... .. . ... ... : ... .. . ... ...
ROW 87 : ... .. . ... ... ... : ... .. 8 ... ... ... : ... .. . ... : ... .. . ... : ... .. . ... ... : ... .. . ... ... : ... .. . ... ... : ... .. . ... ...
ROW 88 : ... .. . ... ... ... : ... .. 5 ... ... ... : ... .. . ... : ... .. . ... : ... .. . ... ... : ... .. . ... ... : ... .. . ... ... : ... .. . ... ...
ROW 89 : ... .. . ... ... ... : ... .. 0 ... ... ... : ... .. . ... : ... .. . ... : ... .. . ... ... : ... .. . ... ... : ... .. . ... ... : ... .. . ... ...
ROW 8A : ... .. . ... ... ... : A-2 00 4 P81 ... ... : ... .. . ... : ... .. . ... : ... .. . ... ... : ... .. . ... ... : ... .. . ... ... : ... .. . ... ...
ROW 8B : ... .. 5 ... ... ... : ... .. 6 ... ... ... : ... .. . ... : ... .. . ... : ... .. . ... ... : ... .. . ... ... : ... .. . ... ... : ... .. . ... ...
ROW 8C : ... .. . ... ... ... : ... .. 0 ... ... ... : ... .. . ... : ... .. . ... : ... .. . ... ... : ... .. . ... ... : ... .. . ... ... : ... .. . ... ...
ROW 8D : ... .. . ... ... ... : ... .. . ... ... ... : ... .. . ... : ... .. . ... : ... .. . ... ... : ... .. . ... ... : ... .. . ... ... : ... .. . ... ...
ROW 8E : ... .. . ... ... ... : ... .. . ... ... ... : ... .. . ... : ... .. . ... : ... .. . ... ... : ... .. . ... ... : ... .. . ... ... : ... .. . ... ...
ROW 8F : ... .. . ... ... ... : ... .. . ... ... ... : ... .. . ... : ... .. . ... : ... .. . ... ... : ... .. . ... ... : ... .. . ... ... : ... .. . ... ...
ROW 90 : ... .. . ... ... ... : B-2 00 5 P81 ... ... : C#4 00 . ... : ... .. . ... : ... .. . ... ... : G#3 01 4 ... ... : B-3 01 4 ... ... : E-3 01 3 ... ...
ROW 91 : D#3 00 5 P7C ... ... : ... .. 8 ... ... ... : ... .. . ... : ... .. . ... : ... .. . ... ... : ... .. . ... ... : ... .. . ... ... : ... .. 4 ... ...
ROW 92 : D-3 00 5 P78 ... ... : ... .. 5 ... ... ... : ... .. . ... : ... .. . ... : ... .. . ... ... : ... .. . ... ... : ... .. . ... ... : ... .. . ... ...
ROW 93 : C#3 00 5 P76 ... ... : ... .. 0 ... ... ... : ... .. . ... : ... .. . ... : ... .. . ... ... : ... .. . ... ... : ... .. . ... ... : ... .. . ... ...
ROW 94 : C-3 00 5 P75 ... ... : B-2 00 4 P81 ... ... : ... .. . ... : ... .. . ... : ... .. . ... ... : ... .. 3 ... ... : ... .. 3 ... ... : ... .. . ... ...
ROW 95 : B-2 00 5 P80 ... ... : ... .. 6 ... ... ... : ... .. . ... : ... .. . ... : ... .. . ... ... : ... .. . ... ... : ... .. . ... ... : ... .. . ... ...
ROW 96 : ... .. . ... ... ... : ... .. 0 ... ... ... : ... .. . ... : ... .. . ... : ... .. . ... ... : ... .. . ... ... : ... .. . ... ... : ... .. . ... ...
ROW 97 : ... .. . ... ... ... : ... .. . ... ... ... : ... .. . ... : ... .. . ... : ... .. . ... ... : ... .. . ... ... : ... .. . ... ... : ... .. . ... ...
ROW 98 : ... .. . ... ... ... : ... .. . ... ... ... : ... .. . ... : ... .. . ... : ... .. . ... ... : ... .. . ... ... : ... .. . ... ... : ... .. . ... ...
ROW 99 : ... .. . ... ... ... : ... .. . ... ... ... : ... .. . ... : ... .. . ... : ... .. . ... ... : ... .. . ... ... : ... .. . ... ... : ... .. . ... ...
ROW 9A : ... .. 6 ... ... ... : G#2 00 5 P81 ... ... : ... .. . ... : ... .. . ... : ... .. . ... ... : F#3 01 4 ... ... : ... .. . ... ... : ... .. . ... ...
ROW 9B : ... .. . ... ... ... : ... .. 8 ... ... ... : ... .. . ... : ... .. . ... : ... .. . ... ... : ... .. . ... ... : ... .. . ... ... : ... .. . ... ...
ROW 9C : ... .. . ... ... ... : ... .. 5 ... ... ... : ... .. . ... : ... .. . ... : ... .. . ... ... : ... .. . ... ... : ... .. . ... ... : ... .. . ... ...
ROW 9D : ... .. . ... ... ... : ... .. 0 ... ... ... : ... .. . ... : ... .. . ... : ... .. . ... ... : ... .. . ... ... : ... .. . ... ... : ... .. . ... ...
ROW 9E : ... .. . ... ... ... : G#2 00 4 P81 ... ... : ... .. . ... : ... .. . ... : ... .. . ... ... : ... .. 3 ... ... : ... .. . ... ... : ... .. . ... ...
ROW 9F : ... .. . ... ... ... : ... .. 6 ... ... ... : ... .. . ... : ... .. . ... : ... .. . ... ... : ... .. . ... ... : ... .. . ... ... : ... .. . ... ...
ROW A0 : ... .. . ... ... ... : ... .. 0 ... ... ... : ... .. . ... : ... .. . ... : ... .. . ... ... : ... .. . ... ... : ... .. . ... ... : ... .. . ... ...
ROW A1 : ... .. . ... ... ... : ... .. . ... ... ... : ... .. . ... : ... .. . ... : ... .. . ... ... : ... .. . ... ... : ... .. . ... ... : ... .. . ... ...
ROW A2 : ... .. . ... ... ... : ... .. . ... ... ... : ... .. . ... : ... .. . ... : ... .. . ... ... : ... .. . ... ... : ... .. . ... ... : ... .. . ... ...
ROW A3 : ... .. . ... ... ... : ... .. . ... ... ... : ... .. . ... : ... .. . ... : ... .. . ... ... : ... .. . ... ... : ... .. . ... ... : ... .. . ... ...
ROW A4 : ... .. 7 ... ... ... : B-2 00 5 P81 ... ... : ... .. . ... : ... .. . ... : ... .. . ... ... : E-3 01 4 ... ... : ... .. . ... ... : ... .. . ... ...
ROW A5 : ... .. . ... ... ... : ... .. 8 ... ... ... : ... .. . ... : ... .. . ... : ... .. . ... ... : ... .. . ... ... : ... .. 2 ... ... : ... .. . ... ...
ROW A6 : ... .. . ... ... ... : ... .. 5 ... ... ... : ... .. . ... : ... .. . ... : ... .. . ... ... : ... .. . ... ... : ... .. . ... ... : ... .. . ... ...
ROW A7 : ... .. . ... ... ... : ... .. 0 ... ... ... : ... .. . ... : ... .. . ... : ... .. . ... ... : ... .. . ... ... : ... .. . ... ... : ... .. . ... ...
ROW A8 : ... .. . ... ... ... : B-2 00 4 P81 ... ... : ... .. . ... : ... .. . ... : ... .. . ... ... : ... .. 3 ... ... : ... .. 1 ... ... : ... .. . ... ...
ROW A9 : ... .. 8 ... ... ... : ... .. 6 ... ... ... : ... .. . ... : ... .. . ... : ... .. . ... ... : ... .. . ... ... : ... .. . ... ... : ... .. . ... ...
ROW AA : ... .. . ... ... ... : ... .. 0 ... ... ... : ... .. . ... : ... .. . ... : ... .. . ... ... : ... .. . ... ... : ... .. . ... ... : ... .. . ... ...
ROW AB : ... .. . ... ... ... : ... .. . ... ... ... : ... .. . ... : ... .. . ... : ... .. . ... ... : ... .. . ... ... : ... .. . ... ... : ... .. . ... ...
ROW AC : ... .. . ... ... ... : ... .. . ... ... ... : ... .. . ... : ... .. . ... : ... .. . ... ... : ... .. . ... ... : ... .. . ... ... : ... .. . ... ...
ROW AD : ... .. . ... ... ... : ... .. . ... ... ... : ... .. . ... : ... .. . ... : ... .. . ... ... : ... .. . ... ... : ... .. . ... ... : ... .. . ... ...
ROW AE : ... .. . ... ... ... : G#2 00 5 P81 ... ... : ... .. . ... : ... .. . ... : ... .. . ... ... : ... .. . ... ... : ... .. . ... ... : ... .. . ... ...
ROW AF : ... .. . ... ... ... : ... .. 8 ... ... ... : ... .. . ... : ... .. . ... : ... .. . ... ... : ... .. 2 ... ... : ... .. . ... ... : ... .. . ... ...
ROW B0 : ... .. . ... ... ... : ... .. 5 ... ... ... : ... .. . ... : ... .. . ... : ... .. . ... ... : ... .. . ... ... : ... .. . ... ... : ... .. . ... ...
ROW B1 : ... .. . ... ... ... : ... .. 0 ... ... ... : ... .. . ... : ... .. . ... : ... .. . ... ... : ... .. . ... ... : ... .. . ... ... : ... .. . ... ...
ROW B2 : ... .. . ... ... ... : G#2 00 4 P81 ... ... : ... .. . ... : ... .. . ... : ... .. . ... ... : ... .. 1 ... ... : ... .. . ... ... : ... .. . ... ...
ROW B3 : ... .. 9 ... ... ... : ... .. 6 ... ... ... : ... .. . ... : ... .. . ... : ... .. . ... ... : ... .. . ... ... : ... .. . ... ... : ... .. . ... ...
ROW B4 : ... .. . ... ... ... : ... .. 0 ... ... ... : ... .. . ... : ... .. . ... : ... .. . ... ... : ... .. . ... ... : ... .. . ... ... : ... .. . ... ...
ROW B5 : ... .. . ... ... ... : ... .. . ... ... ... : ... .. . ... : ... .. . ... : ... .. . ... ... : ... .. . ... ... : ... .. . ... ... : ... .. . ... ...
ROW B6 : ... .. . ... ... ... : ... .. . ... ... ... : ... .. . ... : ... .. . ... : ... .. . ... ... : ... .. . ... ... : ... .. . ... ... : ... .. . ... ...
ROW B7 : ... .. . ... ... ... : ... .. . ... ... ... : ... .. . ... : ... .. . ... : ... .. . ... ... : ... .. . ... ... : ... .. . ... ... : ... .. . ... ...
ROW B8 : C#3 00 B ... ... ... : B-2 00 5 P81 ... ... : F#3 00 . ... : ... .. . ... : ... .. . ... ... : ... .. 4 ... ... : C#4 01 4 ... ... : F#3 01 3 ... ...
ROW B9 : ... .. A ... ... ... : ... .. 8 ... ... ... : ... .. . ... : ... .. . ... : ... .. . ... ... : ... .. . ... ... : ... .. . ... ... : ... .. 4 ... ...
ROW BA : ... .. 9 ... ... ... : ... .. 5 ... ... ... : ... .. . ... : ... .. . ... : ... .. . ... ... : ... .. . ... ... : ... .. . ... ... : ... .. . ... ...
ROW BB : ... .. 7 ... ... ... : ... .. 0 ... ... ... : ... .. . ... : ... .. . ... : ... .. . ... ... : ... .. . ... ... : ... .. . ... ... : ... .. . ... ...
ROW BC : ... .. . ... ... ... : B-2 00 4 P81 ... ... : ... .. . ... : ... .. . ... : ... .. . ... ... : ... .. 3 ... ... : ... .. 3 ... ... : ... .. . ... ...
ROW BD : ... .. 9 ... ... ... : ... .. 6 ... ... ... : ... .. . ... : ... .. . ... : ... .. . ... ... : ... .. . ... ... : ... .. . ... ... : ... .. . ... ...
ROW BE : ... .. . ... ... ... : ... .. 0 ... ... ... : ... .. . ... : ... .. . ... : ... .. . ... ... : ... .. . ... ... : ... .. . ... ... : ... .. . ... ...
ROW BF : ... .. . ... ... ... : ... .. . ... ... ... : ... .. . ... : ... .. . ... : ... .. . ... ... : ... .. . ... ... : ... .. . ... ... : ... .. . ... ...
ROW C0 : ... .. . ... ... ... : ... .. . ... ... ... : ... .. . ... : ... .. . ... : ... .. . ... ... : ... .. . ... ... : ... .. . ... ... : ... .. . ... ...
ROW C1 : ... .. . ... ... ... : ... .. . ... ... ... : ... .. . ... : ... .. . ... : ... .. . ... ... : ... .. . ... ... : ... .. . ... ... : ... .. . ... ...
ROW C2 : ... .. 8 ... ... ... : G#2 00 5 P81 ... ... : ... .. . ... : ... .. . ... : ... .. . ... ... : ... .. . ... ... : ... .. . ... ... : ... .. . ... ...
ROW C3 : ... .. . ... ... ... : ... .. 8 ... ... ... : ... .. . ... : ... .. . ... : ... .. . ... ... : ... .. . ... ... : ... .. . ... ... : ... .. . ... ...
ROW C4 : ... .. . ... ... ... : ... .. 5 ... ... ... : ... .. . ... : ... .. . ... : ... .. . ... ... : ... .. . ... ... : ... .. . ... ... : ... .. . ... ...
ROW C5 : ... .. . ... ... ... : ... .. 0 ... ... ... : ... .. . ... : ... .. . ... : ... .. . ... ... : ... .. . ... ... : ... .. . ... ... : ... .. . ... ...
ROW C6 : ... .. . ... ... ... : G#2 00 4 P81 ... ... : ... .. . ... : ... .. . ... : ... .. . ... ... : ... .. . ... ... : ... .. . ... ... : ... .. . ... ...
ROW C7 : ... .. . ... ... ... : ... .. 6 ... ... ... : ... .. . ... : ... .. . ... : ... .. . ... ... : ... .. . ... ... : ... .. . ... ... : ... .. . ... ...
ROW C8 : ... .. . ... ... ... : ... .. 0 ... ... ... : ... .. . ... : ... .. . ... : ... .. . ... ... : ... .. . ... ... : ... .. . ... ... : ... .. . ... ...
ROW C9 : ... .. . ... ... ... : ... .. . ... ... ... : ... .. . ... : ... .. . ... : ... .. . ... ... : ... .. . ... ... : ... .. . ... ... : ... .. . ... ...
ROW CA : ... .. . ... ... ... : ... .. . ... ... ... : ... .. . ... : ... .. . ... : ... .. . ... ... : ... .. . ... ... : ... .. . ... ... : ... .. . ... ...
ROW CB : ... .. . ... ... ... : ... .. . ... ... ... : ... .. . ... : ... .. . ... : ... .. . ... ... : ... .. . ... ... : ... .. . ... ... : ... .. . ... ...
ROW CC : ... .. 7 ... ... ... : B-2 00 5 P81 ... ... : ... .. . ... : ... .. . ... : ... .. . ... ... : B-2 01 4 ... ... : ... .. . ... ... : ... .. . ... ...
ROW CD : ... .. . ... ... ... : ... .. 8 ... ... ... : ... .. . ... : ... .. . ... : ... .. . ... ... : ... .. . ... ... : ... .. . ... ... : ... .. . ... ...
ROW CE : ... .. . ... ... ... : ... .. 5 ... ... ... : ... .. . ... : ... .. . ... : ... .. . ... ... : ... .. . ... ... : ... .. . ... ... : ... .. . ... ...
ROW CF : ... .. . ... ... ... : ... .. 0 ... ... ... : ... .. . ... : ... .. . ... : ... .. . ... ... : ... .. . ... ... : ... .. . ... ... : ... .. . ... ...
ROW D0 : ... .. . ... ... ... : B-2 00 4 P81 ... ... : ... .. . ... : ... .. . ... : ... .. . ... ... : ... .. 3 ... ... : ... .. . ... ... : ... .. . ... ...
ROW D1 : ... .. 6 ... ... ... : ... .. 6 ... ... ... : ... .. . ... : ... .. . ... : ... .. . ... ... : ... .. . ... ... : ... .. . ... ... : ... .. . ... ...
ROW D2 : ... .. . ... ... ... : ... .. 0 ... ... ... : ... .. . ... : ... .. . ... : ... .. . ... ... : ... .. . ... ... : ... .. . ... ... : ... .. . ... ...
ROW D3 : ... .. . ... ... ... : ... .. . ... ... ... : ... .. . ... : ... .. . ... : ... .. . ... ... : ... .. . ... ... : ... .. . ... ... : ... .. . ... ...
ROW D4 : ... .. . ... ... ... : ... .. . ... ... ... : ... .. . ... : ... .. . ... : ... .. . ... ... : ... .. . ... ... : ... .. . ... ... : ... .. . ... ...
ROW D5 : ... .. . ... ... ... : ... .. . ... ... ... : ... .. . ... : ... .. . ... : ... .. . ... ... : ... .. . ... ... : ... .. . ... ... : ... .. . ... ...
ROW D6 : ... .. . ... ... ... : G#2 00 5 P81 ... ... : ... .. . ... : ... .. . ... : ... .. . ... ... : ... .. . ... ... : ... .. . ... ... : ... .. . ... ...
ROW D7 : ... .. . ... ... ... : ... .. 8 ... ... ... : ... .. . ... : ... .. . ... : ... .. . ... ... : ... .. . ... ... : ... .. . ... ... : ... .. . ... ...
ROW D8 : ... .. . ... ... ... : ... .. 5 ... ... ... : ... .. . ... : ... .. . ... : ... .. . ... ... : ... .. . ... ... : ... .. . ... ... : ... .. . ... ...
ROW D9 : ... .. . ... ... ... : ... .. 0 ... ... ... : ... .. . ... : ... .. . ... : ... .. . ... ... : ... .. . ... ... : ... .. . ... ... : ... .. . ... ...
ROW DA : ... .. . ... ... ... : G#2 00 4 P81 ... ... : ... .. . ... : ... .. . ... : ... .. . ... ... : ... .. . ... ... : ... .. . ... ... : ... .. . ... ...
ROW DB : ... .. . ... ... ... : ... .. 6 ... ... ... : ... .. . ... : ... .. . ... : ... .. . ... ... : ... .. . ... ... : ... .. . ... ... : ... .. . ... ...
ROW DC : ... .. . ... ... ... : ... .. 0 ... ... ... : ... .. . ... : ... .. . ... : ... .. . ... ... : ... .. . ... ... : ... .. . ... ... : ... .. . ... ...
ROW DD : ... .. . ... ... ... : ... .. . ... ... ... : ... .. . ... : ... .. . ... : ... .. . ... ... : ... .. . ... ... : ... .. . ... ... : ... .. . ... ...
ROW DE : ... .. . ... ... ... : ... .. . ... ... ... : ... .. . ... : ... .. . ... : ... .. . ... ... : ... .. . ... ... : ... .. . ... ... : ... .. . ... ...
ROW DF : ... .. . ... ... ... : ... .. . ... ... ... : ... .. . ... : ... .. . ... : ... .. . ... ... : ... .. . ... ... : ... .. . ... ... : ... .. . ... ...
ROW E0 : ... .. F ... ... ... : B-2 00 5 P81 ... ... : F#2 00 . ... : ... .. . ... : ... .. . ... ... : F#3 01 1 ... ... : D#4 01 1 ... ... : D#3 01 1 ... ...
ROW E1 : ... .. E ... ... ... : ... .. 8 ... ... ... : ... .. . ... : ... .. . ... : ... .. . ... ... : ... .. . ... ... : ... .. . ... ... : ... .. . ... ...
ROW E2 : ... .. D ... ... ... : ... .. 5 ... ... ... : ... .. . ... : ... .. . ... : ... .. . ... ... : ... .. . ... ... : ... .. . ... ... : ... .. . ... ...
ROW E3 : ... .. A ... ... ... : ... .. 0 ... ... ... : ... .. . ... : ... .. . ... : ... .. . ... ... : ... .. . ... ... : ... .. . ... ... : ... .. . ... ...
ROW E4 : ... .. . ... ... ... : B-2 00 4 P81 ... ... : ... .. . ... : ... .. . ... : ... .. . ... ... : ... .. . ... ... : ... .. . ... ... : ... .. . ... ...
ROW E5 : ... .. 8 ... ... ... : ... .. 6 ... ... ... : ... .. . ... : ... .. . ... : ... .. . ... ... : ... .. . ... ... : ... .. . ... ... : ... .. . ... ...
ROW E6 : ... .. . ... ... ... : ... .. 0 ... ... ... : ... .. . ... : ... .. . ... : ... .. . ... ... : ... .. . ... ... : ... .. . ... ... : ... .. . ... ...
ROW E7 : ... .. . ... ... ... : ... .. . ... ... ... : ... .. . ... : ... .. . ... : ... .. . ... ... : ... .. . ... ... : ... .. . ... ... : ... .. . ... ...
ROW E8 : ... .. . ... ... ... : ... .. . ... ... ... : ... .. . ... : ... .. . ... : ... .. . ... ... : ... .. . ... ... : ... .. . ... ... : ... .. . ... ...
ROW E9 : ... .. . ... ... ... : ... .. . ... ... ... : ... .. . ... : ... .. . ... : ... .. . ... ... : ... .. . ... ... : ... .. . ... ... : ... .. . ... ...
ROW EA : ... .. . ... ... ... : F#2 00 5 P81 ... ... : ... .. . ... : ... .. . ... : ... .. . ... ... : ... .. . ... ... : ... .. . ... ... : ... .. . ... ...
ROW EB : ... .. . ... ... ... : ... .. 8 ... ... ... : ... .. . ... : ... .. . ... : ... .. . ... ... : ... .. . ... ... : ... .. . ... ... : ... .. . ... ...
ROW EC : ... .. . ... ... ... : ... .. 5 ... ... ... : ... .. . ... : ... .. . ... : ... .. . ... ... : ... .. . ... ... : ... .. . ... ... : ... .. . ... ...
ROW ED : ... .. . ... ... ... : ... .. 0 ... ... ... : ... .. . ... : ... .. . ... : ... .. . ... ... : ... .. . ... ... : ... .. . ... ... : ... .. . ... ...
ROW EE : ... .. . ... ... ... : F#2 00 4 P81 ... ... : ... .. . ... : ... .. . ... : ... .. . ... ... : ... .. . ... ... : ... .. . ... ... : ... .. . ... ...
ROW EF : ... .. 7 ... ... ... : ... .. 6 ... ... ... : ... .. . ... : ... .. . ... : ... .. . ... ... : ... .. . ... ... : ... .. . ... ... : ... .. . ... ...
ROW F0 : ... .. . ... ... ... : ... .. 0 ... ... ... : ... .. . ... : ... .. . ... : ... .. . ... ... : ... .. . ... ... : ... .. . ... ... : ... .. . ... ...
ROW F1 : ... .. . ... ... ... : ... .. . ... ... ... : ... .. . ... : ... .. . ... : ... .. . ... ... : ... .. . ... ... : ... .. . ... ... : ... .. . ... ...
ROW F2 : ... .. . ... ... ... : ... .. . ... ... ... : ... .. . ... : ... .. . ... : ... .. . ... ... : ... .. . ... ... : ... .. . ... ... : ... .. . ... ...
ROW F3 : ... .. . ... ... ... : ... .. . ... ... ... : ... .. . ... : ... .. . ... : ... .. . ... ... : ... .. . ... ... : ... .. . ... ... : ... .. . ... ...
ROW F4 : ... .. 6 ... ... ... : B-2 00 5 P81 ... ... : ... .. . ... : ... .. . ... : ... .. . ... ... : ... .. 4 ... ... : ... .. 4 ... ... : F#3 01 4 ... ...
ROW F5 : ... .. 1 ... ... ... : ... .. 8 ... ... ... : ... .. . ... : ... .. . ... : ... .. . ... ... : ... .. . ... ... : ... .. . ... ... : ... .. 6 ... ...
ROW F6 : ... .. . ... ... ... : ... .. 5 ... ... ... : ... .. . ... : ... .. . ... : ... .. . ... ... : ... .. . ... ... : ... .. . ... ... : ... .. . ... ...
ROW F7 : ... .. . ... ... ... : ... .. 0 ... ... ... : ... .. . ... : ... .. . ... : ... .. . ... ... : ... .. . ... ... : ... .. . ... ... : ... .. 5 ... ...
ROW F8 : ... .. . ... ... ... : B-2 00 4 P81 ... ... : ... .. . ... : ... .. . ... : ... .. . ... ... : ... .. . ... ... : ... .. . ... ... : ... .. . ... ...
ROW F9 : ... .. . ... ... ... : ... .. 6 ... ... ... : ... .. . ... : ... .. . ... : ... .. . ... ... : ... .. 1 ... ... : ... .. 1 ... ... : ... .. 2 ... ...
ROW FA : ... .. . ... ... ... : ... .. 0 ... ... ... : ... .. . ... : ... .. . ... : ... .. . ... ... : ... .. . ... ... : ... .. . ... ... : ... .. . ... ...
ROW FB : ... .. 0 ... ... ... : ... .. . ... ... ... : ... .. . ... : ... .. . ... : ... .. . ... ... : ... .. . ... ... : ... .. . ... ... : ... .. . ... ...
ROW FC : ... .. . ... ... ... : ... .. . ... ... ... : ... .. . ... : ... .. . ... : ... .. . ... ... : ... .. . ... ... : ... .. . ... ... : ... .. . ... ...
ROW FD : ... .. . ... ... ... : ... .. . ... ... ... : ... .. . ... : ... .. . ... : ... .. . ... ... : ... .. . ... ... : ... .. . ... ... : ... .. . ... ...
ROW FE : D#3 00 A P80 ... ... : F#2 00 5 P81 ... ... : ... .. . ... : ... .. . ... : ... .. . ... ... : ... .. 4 ... ... : ... .. 4 ... ... : ... .. 5 ... ...
ROW FF : ... .. 9 ... ... ... : ... .. 8 ... ... ... : ... .. . ... : ... .. . ... : ... .. . ... ... : ... .. . ... ... : ... .. . ... ... : ... .. . ... ...

PATTERN 16
ROW 00 : ... .. 8 ... ... ... : ... .. 5 ... ... ... : ... .. . ... : ... .. . ... : ... .. . ... ... : ... .. . ... ... : ... .. . ... ... : ... .. . ... ...
ROW 01 : ... .. 6 ... ... ... : ... .. 0 ... ... ... : ... .. . ... : ... .. . ... : ... .. . ... ... : ... .. . ... ... : ... .. . ... ... : ... .. . ... ...
ROW 02 : ... .. . ... ... ... : F#2 00 4 P81 ... ... : ... .. . ... : ... .. . ... : ... .. . ... ... : ... .. . ... ... : ... .. . ... ... : ... .. . ... ...
ROW 03 : ... .. . ... ... ... : ... .. 6 ... ... ... : ... .. . ... : ... .. . ... : ... .. . ... ... : ... .. 1 ... ... : ... .. 1 ... ... : ... .. 2 ... ...
ROW 04 : ... .. 1 ... ... ... : ... .. 0 ... ... ... : ... .. . ... : ... .. . ... : ... .. . ... ... : ... .. . ... ... : ... .. . ... ... : ... .. . ... ...
ROW 05 : ... .. . ... ... ... : ... .. . ... ... ... : ... .. . ... : ... .. . ... : ... .. . ... ... : ... .. . ... ... : ... .. . ... ... : ... .. . ... ...
ROW 06 : ... .. . ... ... ... : ... .. . ... ... ... : ... .. . ... : ... .. . ... : ... .. . ... ... : ... .. . ... ... : ... .. . ... ... : ... .. . ... ...
ROW 07 : ... .. . ... ... ... : ... .. . ... ... ... : ... .. . ... : ... .. . ... : ... .. . ... ... : ... .. . ... ... : ... .. . ... ... : ... .. . ... ...
ROW 08 : ... .. 8 ... ... ... : B-2 00 5 P81 ... ... : ... .. . ... : ... .. . ... : ... .. . ... ... : ... .. 2 ... ... : ... .. 2 ... ... : B-3 01 1 ... ...
ROW 09 : ... .. 7 ... ... ... : ... .. 8 ... ... ... : ... .. . ... : ... .. . ... : ... .. . ... ... : ... .. . ... ... : ... .. . ... ... : ... .. 2 ... ...
ROW 0A : ... .. 6 ... ... ... : ... .. 5 ... ... ... : ... .. . ... : ... .. . ... : ... .. . ... ... : ... .. . ... ... : ... .. . ... ... : ... .. . ... ...
ROW 0B : ... .. 5 ... ... ... : ... .. 0 ... ... ... : ... .. . ... : ... .. . ... : ... .. . ... ... : ... .. . ... ... : ... .. . ... ... : ... .. . ... ...
ROW 0C : ... .. . ... ... ... : B-2 00 4 P81 ... ... : ... .. . ... : ... .. . ... : ... .. . ... ... : ... .. 1 ... ... : ... .. 1 ... ... : ... .. . ... ...
ROW 0D : ... .. . ... ... ... : ... .. 6 ... ... ... : ... .. . ... : ... .. . ... : ... .. . ... ... : ... .. . ... ... : ... .. . ... ... : ... .. 1 ... ...
ROW 0E : ... .. . ... ... ... : ... .. 0 ... ... ... : ... .. . ... : ... .. . ... : ... .. . ... ... : ... .. . ... ... : ... .. . ... ... : ... .. . ... ...
ROW 0F : ... .. . ... ... ... : ... .. . ... ... ... : ... .. . ... : ... .. . ... : ... .. . ... ... : ... .. . ... ... : ... .. . ... ... : ... .. . ... ...
ROW 10 : ... .. . ... ... ... : ... .. . ... ... ... : ... .. . ... : ... .. . ... : ... .. . ... ... : ... .. . ... ... : ... .. . ... ... : ... .. . ... ...
ROW 11 : ... .. . ... ... ... : ... .. . ... ... ... : ... .. . ... : ... .. . ... : ... .. . ... ... : ... .. . ... ... : ... .. . ... ... : ... .. . ... ...
ROW 12 : ... .. 6 ... ... ... : F#2 00 5 P81 ... ... : ... .. . ... : ... .. . ... : ... .. . ... ... : ... .. . ... ... : ... .. . ... ... : A-3 01 1 ... ...
ROW 13 : ... .. . ... ... ... : ... .. 8 ... ... ... : ... .. . ... : ... .. . ... : ... .. . ... ... : ... .. . ... ... : ... .. . ... ... : ... .. . ... ...
ROW 14 : ... .. . ... ... ... : ... .. 5 ... ... ... : ... .. . ... : ... .. . ... : ... .. . ... ... : ... .. . ... ... : ... .. . ... ... : ... .. . ... ...
ROW 15 : ... .. . ... ... ... : ... .. 0 ... ... ... : ... .. . ... : ... .. . ... : ... .. . ... ... : ... .. . ... ... : ... .. . ... ... : ... .. . ... ...
ROW 16 : ... .. . ... ... ... : F#2 00 4 P81 ... ... : ... .. . ... : ... .. . ... : ... .. . ... ... : ... .. . ... ... : ... .. . ... ... : ... .. . ... ...
ROW 17 : ... .. . ... ... ... : ... .. 6 ... ... ... : ... .. . ... : ... .. . ... : ... .. . ... ... : ... .. . ... ... : ... .. . ... ... : ... .. . ... ...
ROW 18 : ... .. . ... ... ... : ... .. 0 ... ... ... : ... .. . ... : ... .. . ... : ... .. . ... ... : ... .. . ... ... : ... .. . ... ... : ... .. . ... ...
ROW 19 : ... .. . ... ... ... : ... .. . ... ... ... : ... .. . ... : ... .. . ... : ... .. . ... ... : ... .. . ... ... : ... .. . ... ... : ... .. . ... ...
ROW 1A : ... .. . ... ... ... : ... .. . ... ... ... : ... .. . ... : ... .. . ... : ... .. . ... ... : ... .. . ... ... : ... .. . ... ... : ... .. . ... ...
ROW 1B : ... .. . ... ... ... : ... .. . ... ... ... : ... .. . ... : ... .. . ... : ... .. . ... ... : ... .. . ... ... : ... .. . ... ... : ... .. . ... ...
ROW 1C : ... .. 7 P82 ... ... : B-2 00 5 P81 ... ... : C#3 00 . ... : ... .. . ... : ... .. . ... ... : D#3 01 6 ... ... : C#4 01 6 ... ... : G#3 01 4 ... ...
ROW 1D : ... .. . P83 ... ... : ... .. 8 ... ... ... : ... .. . ... : ... .. . ... : ... .. . ... ... : ... .. 5 ... ... : ... .. 5 ... ... : ... .. 6 ... ...
ROW 1E : ... .. . ... ... ... : ... .. 5 ... ... ... : ... .. . ... : ... .. . ... : ... .. . ... ... : ... .. . ... ... : ... .. . ... ... : ... .. . ... ...
ROW 1F : ... .. . P82 ... ... : ... .. 0 ... ... ... : ... .. . ... : ... .. . ... : ... .. . ... ... : ... .. . ... ... : ... .. . ... ... : ... .. 5 ... ...
ROW 20 : ... .. . P80 ... ... : B-2 00 4 P81 ... ... : ... .. . ... : ... .. . ... : ... .. . ... ... : ... .. 4 ... ... : ... .. 4 ... ... : ... .. . ... ...
ROW 21 : ... .. 8 P7F ... ... : ... .. 6 ... ... ... : ... .. . ... : ... .. . ... : ... .. . ... ... : ... .. 1 ... ... : ... .. 1 ... ... : ... .. 2 ... ...
ROW 22 : ... .. . P7D ... ... : ... .. 0 ... ... ... : ... .. . ... : ... .. . ... : ... .. . ... ... : ... .. . ... ... : ... .. . ... ... : ... .. . ... ...
ROW 23 : ... .. . ... ... ... : ... .. . ... ... ... : ... .. . ... : ... .. . ... : ... .. . ... ... : ... .. . ... ... : ... .. . ... ... : ... .. . ... ...
ROW 24 : ... .. . ... ... ... : ... .. . ... ... ... : ... .. . ... : ... .. . ... : ... .. . ... ... : ... .. . ... ... : ... .. . ... ... : ... .. . ... ...
ROW 25 : ... .. . P7F ... ... : ... .. . ... ... ... : ... .. . ... : ... .. . ... : ... .. . ... ... : ... .. . ... ... : ... .. . ... ... : ... .. . ... ...
ROW 26 : ... .. . P80 ... ... : F#2 00 5 P81 ... ... : ... .. . ... : ... .. . ... : ... .. . ... ... : F#3 01 6 ... ... : B-3 01 6 ... ... : B-3 01 4 ... ...
ROW 27 : ... .. . P82 ... ... : ... .. 8 ... ... ... : ... .. . ... : ... .. . ... : ... .. . ... ... : ... .. 5 ... ... : ... .. 5 ... ... : ... .. 6 ... ...
ROW 28 : ... .. . P83 ... ... : ... .. 5 ... ... ... : ... .. . ... : ... .. . ... : ... .. . ... ... : ... .. . ... ... : ... .. . ... ... : ... .. . ... ...
ROW 29 : ... .. . ... ... ... : ... .. 0 ... ... ... : ... .. . ... : ... .. . ... : ... .. . ... ... : ... .. . ... ... : ... .. . ... ... : ... .. 5 ... ...
ROW 2A : ... .. . P81 ... ... : F#2 00 4 P81 ... ... : ... .. . ... : ... .. . ... : ... .. . ... ... : ... .. 4 ... ... : ... .. 4 ... ... : ... .. . ... ...
ROW 2B : ... .. 9 P80 ... ... : ... .. 6 ... ... ... : ... .. . ... : ... .. . ... : ... .. . ... ... : ... .. 1 ... ... : ... .. 1 ... ... : ... .. 2 ... ...
ROW 2C : ... .. . P7E ... ... : ... .. 0 ... ... ... : ... .. . ... : ... .. . ... : ... .. . ... ... : ... .. . ... ... : ... .. . ... ... : ... .. . ... ...
ROW 2D : ... .. . P7D ... ... : ... .. . ... ... ... : ... .. . ... : ... .. . ... : ... .. . ... ... : ... .. . ... ... : ... .. . ... ... : ... .. . ... ...
ROW 2E : ... .. . ... ... ... : ... .. . ... ... ... : ... .. . ... : ... .. . ... : ... .. . ... ... : ... .. . ... ... : ... .. . ... ... : ... .. . ... ...
ROW 2F : ... .. . P7E ... ... : ... .. . ... ... ... : ... .. . ... : ... .. . ... : ... .. . ... ... : ... .. . ... ... : ... .. . ... ... : ... .. . ... ...
ROW 30 : ... .. A P80 ... ... : A-2 00 5 P81 ... ... : F#3 00 . ... : ... .. . ... : ... .. . ... ... : E-3 01 1 ... ... : C#4 01 1 ... ... : A-3 01 1 ... ...
ROW 31 : ... .. 2 P81 ... ... : ... .. 8 ... ... ... : ... .. . ... : ... .. . ... : ... .. . ... ... : ... .. . ... ... : ... .. . ... ... : ... .. . ... ...
ROW 32 : ... .. . P83 ... ... : ... .. 5 ... ... ... : ... .. . ... : ... .. . ... : ... .. . ... ... : ... .. . ... ... : ... .. . ... ... : ... .. . ... ...
ROW 33 : ... .. . ... ... ... : ... .. 0 ... ... ... : ... .. . ... : ... .. . ... : ... .. . ... ... : ... .. . ... ... : ... .. . ... ... : ... .. . ... ...
ROW 34 : ... .. 1 ... ... ... : A-2 00 4 P81 ... ... : ... .. . ... : ... .. . ... : ... .. . ... ... : ... .. . ... ... : ... .. . ... ... : ... .. . ... ...
ROW 35 : ... .. . P81 ... ... : ... .. 6 ... ... ... : ... .. . ... : ... .. . ... : ... .. . ... ... : ... .. . ... ... : ... .. . ... ... : ... .. . ... ...
ROW 36 : ... .. . P80 ... ... : ... .. 0 ... ... ... : ... .. . ... : ... .. . ... : ... .. . ... ... : ... .. . ... ... : ... .. . ... ... : ... .. . ... ...
ROW 37 : ... .. 0 ... ... ... : ... .. . ... ... ... : ... .. . ... : ... .. . ... : ... .. . ... ... : ... .. . ... ... : ... .. . ... ... : ... .. . ... ...
ROW 38 : ... .. . ... ... ... : ... .. . ... ... ... : ... .. . ... : ... .. . ... : ... .. . ... ... : ... .. . ... ... : ... .. . ... ... : ... .. . ... ...
ROW 39 : ... .. . ... ... ... : ... .. . ... ... ... : ... .. . ... : ... .. . ... : ... .. . ... ... : ... .. . ... ... : ... .. . ... ... : ... .. . ... ...
ROW 3A : ... .. . ... ... ... : F#2 00 5 P81 ... ... : ... .. . ... : ... .. . ... : ... .. . ... ... : ... .. . ... ... : ... .. . ... ... : ... .. . ... ...
ROW 3B : ... .. . ... ... ... : ... .. 8 ... ... ... : ... .. . ... : ... .. . ... : ... .. . ... ... : ... .. . ... ... : ... .. . ... ... : ... .. . ... ...
ROW 3C : ... .. . ... ... ... : ... .. 5 ... ... ... : ... .. . ... : ... .. . ... : ... .. . ... ... : ... .. . ... ... : ... .. . ... ... : ... .. . ... ...
ROW 3D : ... .. . ... ... ... : ... .. 0 ... ... ... : ... .. . ... : ... .. . ... : ... .. . ... ... : ... .. . ... ... : ... .. . ... ... : ... .. . ... ...
ROW 3E : ... .. . ... ... ... : F#2 00 4 P81 ... ... : ... .. . ... : ... .. . ... : ... .. . ... ... : ... .. . ... ... : ... .. . ... ... : ... .. . ... ...
ROW 3F : ... .. . ... ... ... : ... .. 6 ... ... ... : ... .. . ... : ... .. . ... : ... .. . ... ... : ... .. . ... ... : ... .. . ... ... : ... .. . ... ...
ROW 40 : ... .. . ... ... ... : ... .. 0 ... ... ... : ... .. . ... : ... .. . ... : ... .. . ... ... : ... .. . ... ... : ... .. . ... ... : ... .. . ... ...
ROW 41 : ... .. . ... ... ... : ... .. . ... ... ... : ... .. . ... : ... .. . ... : ... .. . ... ... : ... .. . ... ... : ... .. . ... ... : ... .. . ... ...
ROW 42 : ... .. . ... ... ... : ... .. . ... ... ... : ... .. . ... : ... .. . ... : ... .. . ... ... : ... .. . ... ... : ... .. . ... ... : ... .. . ... ...
ROW 43 : ... .. . ... ... ... : ... .. . ... ... ... : ... .. . ... : ... .. . ... : ... .. . ... ... : ... .. . ... ... : ... .. . ... ... : ... .. . ... ...
ROW 44 : C#3 00 A P80 ... ... : A-2 00 5 P81 ... ... : ... .. . ... : ... .. . ... : ... .. . ... ... : ... .. 4 ... ... : ... .. 4 ... ... : F#3 01 4 ... ...
ROW 45 : ... .. 9 ... ... ... : ... .. 8 ... ... ... : ... .. . ... : ... .. . ... : ... .. . ... ... : ... .. . ... ... : ... .. . ... ... : ... .. 6 ... ...
ROW 46 : ... .. 8 ... ... ... : ... .. 5 ... ... ... : ... .. . ... : ... .. . ... : ... .. . ... ... : ... .. . ... ... : ... .. . ... ... : ... .. . ... ...
ROW 47 : ... .. 6 ... ... ... : ... .. 0 ... ... ... : ... .. . ... : ... .. . ... : ... .. . ... ... : ... .. . ... ... : ... .. . ... ... : ... .. 5 ... ...
ROW 48 : ... .. . ... ... ... : A-2 00 4 P81 ... ... : ... .. . ... : ... .. . ... : ... .. . ... ... : ... .. . ... ... : ... .. . ... ... : ... .. . ... ...
ROW 49 : ... .. 7 ... ... ... : ... .. 6 ... ... ... : ... .. . ... : ... .. . ... : ... .. . ... ... : ... .. 1 ... ... : ... .. 1 ... ... : ... .. 2 ... ...
ROW 4A : ... .. . ... ... ... : ... .. 0 ... ... ... : ... .. . ... : ... .. . ... : ... .. . ... ... : ... .. . ... ... : ... .. . ... ... : ... .. . ... ...
ROW 4B : ... .. . ... ... ... : ... .. . ... ... ... : ... .. . ... : ... .. . ... : ... .. . ... ... : ... .. . ... ... : ... .. . ... ... : ... .. . ... ...
ROW 4C : ... .. . ... ... ... : ... .. . ... ... ... : ... .. . ... : ... .. . ... : ... .. . ... ... : ... .. . ... ... : ... .. . ... ... : ... .. . ... ...
ROW 4D : ... .. . ... ... ... : ... .. . ... ... ... : ... .. . ... : ... .. . ... : ... .. . ... ... : ... .. . ... ... : ... .. . ... ... : ... .. . ... ...
ROW 4E : ... .. 8 ... ... ... : F#2 00 5 P81 ... ... : ... .. . ... : ... .. . ... : ... .. . ... ... : ... .. 4 ... ... : ... .. 4 ... ... : ... .. 5 ... ...
ROW 4F : ... .. . ... ... ... : ... .. 8 ... ... ... : ... .. . ... : ... .. . ... : ... .. . ... ... : ... .. . ... ... : ... .. . ... ... : ... .. . ... ...
ROW 50 : ... .. . ... ... ... : ... .. 5 ... ... ... : ... .. . ... : ... .. . ... : ... .. . ... ... : ... .. . ... ... : ... .. . ... ... : ... .. . ... ...
ROW 51 : ... .. . ... ... ... : ... .. 0 ... ... ... : ... .. . ... : ... .. . ... : ... .. . ... ... : ... .. . ... ... : ... .. . ... ... : ... .. . ... ...
ROW 52 : ... .. . ... ... ... : F#2 00 4 P81 ... ... : ... .. . ... : ... .. . ... : ... .. . ... ... : ... .. . ... ... : ... .. . ... ... : ... .. . ... ...
ROW 53 : ... .. . ... ... ... : ... .. 6 ... ... ... : ... .. . ... : ... .. . ... : ... .. . ... ... : ... .. 1 ... ... : ... .. 1 ... ... : ... .. 2 ... ...
ROW 54 : ... .. . ... ... ... : ... .. 0 ... ... ... : ... .. . ... : ... .. . ... : ... .. . ... ... : ... .. . ... ... : ... .. . ... ... : ... .. . ... ...
ROW 55 : ... .. . ... ... ... : ... .. . ... ... ... : ... .. . ... : ... .. . ... : ... .. . ... ... : ... .. . ... ... : ... .. . ... ... : ... .. . ... ...
ROW 56 : ... .. . ... ... ... : ... .. . ... ... ... : ... .. . ... : ... .. . ... : ... .. . ... ... : ... .. . ... ... : ... .. . ... ... : ... .. . ... ...
ROW 57 : ... .. . ... ... ... : ... .. . ... ... ... : ... .. . ... : ... .. . ... : ... .. . ... ... : ... .. . ... ... : ... .. . ... ... : ... .. . ... ...
ROW 58 : ... .. A ... ... ... : A-2 00 5 P81 ... ... : ... .. . ... : ... .. . ... : ... .. . ... ... : ... .. 2 ... ... : ... .. 2 ... ... : C#3 01 1 ... ...
ROW 59 : D-3 00 A P82 ... ... : ... .. 8 ... ... ... : ... .. . ... : ... .. . ... : ... .. . ... ... : ... .. . ... ... : ... .. . ... ... : ... .. 2 ... ...
ROW 5A : D#3 00 A P86 ... ... : ... .. 5 ... ... ... : ... .. . ... : ... .. . ... : ... .. . ... ... : ... .. . ... ... : ... .. . ... ... : ... .. . ... ...
ROW 5B : F-3 00 A P77 ... ... : ... .. 0 ... ... ... : ... .. . ... : ... .. . ... : ... .. . ... ... : ... .. . ... ... : ... .. . ... ... : ... .. . ... ...
ROW 5C : F#3 00 A P7E ... ... : A-2 00 4 P81 ... ... : ... .. . ... : ... .. . ... : ... .. . ... ... : ... .. 1 ... ... : ... .. 1 ... ... : ... .. . ... ...
ROW 5D : ... .. 9 P80 ... ... : ... .. 6 ... ... ... : ... .. . ... : ... .. . ... : ... .. . ... ... : ... .. . ... ... : ... .. . ... ... : ... .. 1 ... ...
ROW 5E : ... .. . ... ... ... : ... .. 0 ... ... ... : ... .. . ... : ... .. . ... : ... .. . ... ... : ... .. . ... ... : ... .. . ... ... : ... .. . ... ...
ROW 5F : ... .. . ... ... ... : ... .. . ... ... ... : ... .. . ... : ... .. . ... : ... .. . ... ... : ... .. . ... ... : ... .. . ... ... : ... .. . ... ...
ROW 60 : ... .. . ... ... ... : ... .. . ... ... ... : ... .. . ... : ... .. . ... : ... .. . ... ... : ... .. . ... ... : ... .. . ... ... : ... .. . ... ...
ROW 61 : ... .. . ... ... ... : ... .. . ... ... ... : ... .. . ... : ... .. . ... : ... .. . ... ... : ... .. . ... ... : ... .. . ... ... : ... .. . ... ...
ROW 62 : ... .. 8 ... ... ... : F#2 00 5 P81 ... ... : ... .. . ... : ... .. . ... : ... .. . ... ... : ... .. . ... ... : ... .. . ... ... : ... .. . ... ...
ROW 63 : ... .. . ... ... ... : ... .. 8 ... ... ... : ... .. . ... : ... .. . ... : ... .. . ... ... : ... .. . ... ... : ... .. . ... ... : ... .. . ... ...
ROW 64 : ... .. . ... ... ... : ... .. 5 ... ... ... : ... .. . ... : ... .. . ... : ... .. . ... ... : ... .. . ... ... : ... .. . ... ... : ... .. . ... ...
ROW 65 : ... .. . ... ... ... : ... .. 0 ... ... ... : ... .. . ... : ... .. . ... : ... .. . ... ... : ... .. . ... ... : ... .. . ... ... : ... .. . ... ...
ROW 66 : ... .. . ... ... ... : F#2 00 4 P81 ... ... : ... .. . ... : ... .. . ... : ... .. . ... ... : ... .. . ... ... : ... .. . ... ... : ... .. . ... ...
ROW 67 : ... .. . ... ... ... : ... .. 6 ... ... ... : ... .. . ... : ... .. . ... : ... .. . ... ... : ... .. . ... ... : ... .. . ... ... : ... .. . ... ...
ROW 68 : ... .. . ... ... ... : ... .. 0 ... ... ... : ... .. . ... : ... .. . ... : ... .. . ... ... : ... .. . ... ... : ... .. . ... ... : ... .. . ... ...
ROW 69 : ... .. . ... ... ... : ... .. . ... ... ... : ... .. . ... : ... .. . ... : ... .. . ... ... : ... .. . ... ... : ... .. . ... ... : ... .. . ... ...
ROW 6A : ... .. . ... ... ... : ... .. . ... ... ... : ... .. . ... : ... .. . ... : ... .. . ... ... : ... .. . ... ... : ... .. . ... ... : ... .. . ... ...
ROW 6B : ... .. . ... ... ... : ... .. . ... ... ... : ... .. . ... : ... .. . ... : ... .. . ... ... : ... .. . ... ... : ... .. . ... ... : ... .. . ... ...
ROW 6C : E-3 00 B ... ... ... : A-2 00 5 P81 ... ... : ... .. . ... : ... .. . ... : ... .. . ... ... : C#3 01 6 ... ... : F#3 01 6 ... ... : F#3 01 4 ... ...
ROW 6D : ... .. A ... ... ... : ... .. 8 ... ... ... : ... .. . ... : ... .. . ... : ... .. . ... ... : ... .. 5 ... ... : ... .. 5 ... ... : ... .. 6 ... ...
ROW 6E : ... .. 9 ... ... ... : ... .. 5 ... ... ... : ... .. . ... : ... .. . ... : ... .. . ... ... : ... .. . ... ... : ... .. . ... ... : ... .. . ... ...
ROW 6F : ... .. 7 ... ... ... : ... .. 0 ... ... ... : ... .. . ... : ... .. . ... : ... .. . ... ... : ... .. . ... ... : ... .. . ... ... : ... .. 5 ... ...
ROW 70 : ... .. . ... ... ... : A-2 00 4 P81 ... ... : ... .. . ... : ... .. . ... : ... .. . ... ... : ... .. 4 ... ... : ... .. 4 ... ... : ... .. . ... ...
ROW 71 : ... .. 6 ... ... ... : ... .. 6 ... ... ... : ... .. . ... : ... .. . ... : ... .. . ... ... : ... .. 1 ... ... : ... .. 1 ... ... : ... .. 2 ... ...
ROW 72 : ... .. . ... ... ... : ... .. 0 ... ... ... : ... .. . ... : ... .. . ... : ... .. . ... ... : ... .. . ... ... : ... .. . ... ... : ... .. . ... ...
ROW 73 : ... .. . ... ... ... : ... .. . ... ... ... : ... .. . ... : ... .. . ... : ... .. . ... ... : ... .. . ... ... : ... .. . ... ... : ... .. . ... ...
ROW 74 : ... .. . ... ... ... : ... .. . ... ... ... : ... .. . ... : ... .. . ... : ... .. . ... ... : ... .. . ... ... : ... .. . ... ... : ... .. . ... ...
ROW 75 : ... .. . ... ... ... : ... .. . ... ... ... : ... .. . ... : ... .. . ... : ... .. . ... ... : ... .. . ... ... : ... .. . ... ... : ... .. . ... ...
ROW 76 : ... .. . ... ... ... : F#2 00 5 P81 ... ... : ... .. . ... : ... .. . ... : ... .. . ... ... : ... .. 4 ... ... : ... .. 4 ... ... : ... .. 5 ... ...
ROW 77 : ... .. . ... ... ... : ... .. 8 ... ... ... : ... .. . ... : ... .. . ... : ... .. . ... ... : ... .. 3 ... ... : ... .. 3 ... ... : ... .. . ... ...
ROW 78 : ... .. . ... ... ... : ... .. 5 ... ... ... : ... .. . ... : ... .. . ... : ... .. . ... ... : ... .. . ... ... : ... .. . ... ... : ... .. . ... ...
ROW 79 : ... .. . ... ... ... : ... .. 0 ... ... ... : ... .. . ... : ... .. . ... : ... .. . ... ... : ... .. 2 ... ... : ... .. 2 ... ... : ... .. . ... ...
ROW 7A : ... .. . ... ... ... : F#2 00 4 P81 ... ... : ... .. . ... : ... .. . ... : ... .. . ... ... : ... .. . ... ... : ... .. . ... ... : ... .. . ... ...
ROW 7B : ... .. 5 ... ... ... : ... .. 6 ... ... ... : ... .. . ... : ... .. . ... : ... .. . ... ... : ... .. 1 ... ... : ... .. 1 ... ... : ... .. 2 ... ...
ROW 7C : ... .. . ... ... ... : ... .. 0 ... ... ... : ... .. . ... : ... .. . ... : ... .. . ... ... : ... .. . ... ... : ... .. . ... ... : ... .. . ... ...
ROW 7D : ... .. . ... ... ... : ... .. . ... ... ... : ... .. . ... : ... .. . ... : ... .. . ... ... : ... .. . ... ... : ... .. . ... ... : ... .. . ... ...
ROW 7E : ... .. . ... ... ... : ... .. . ... ... ... : ... .. . ... : ... .. . ... : ... .. . ... ... : ... .. . ... ... : ... .. . ... ... : ... .. . ... ...
ROW 7F : ... .. . ... ... ... : ... .. . ... ... ... : ... .. . ... : ... .. . ... : ... .. . ... ... : ... .. . ... ... : ... .. . ... ... : ... .. . ... ...
ROW 80 : D#3 00 8 ... ... ... : B-2 00 5 P81 ... ... : ... .. . ... : ... .. . ... : ... .. . ... ... : D#3 01 1 ... ... : B-3 01 1 ... ... : B-3 01 1 ... ...
ROW 81 : ... .. 7 ... ... ... : ... .. 8 ... ... ... : ... .. . ... : ... .. . ... : ... .. . ... ... : ... .. . ... ... : ... .. . ... ... : ... .. . ... ...
ROW 82 : ... .. 6 ... ... ... : ... .. 5 ... ... ... : ... .. . ... : ... .. . ... : ... .. . ... ... : ... .. . ... ... : ... .. . ... ... : ... .. . ... ...
ROW 83 : ... .. 5 ... ... ... : ... .. 0 ... ... ... : ... .. . ... : ... .. . ... : ... .. . ... ... : ... .. . ... ... : ... .. . ... ... : ... .. . ... ...
ROW 84 : ... .. . ... ... ... : B-2 00 4 P81 ... ... : ... .. . ... : ... .. . ... : ... .. . ... ... : ... .. . ... ... : ... .. . ... ... : ... .. . ... ...
ROW 85 : ... .. . ... ... ... : ... .. 6 ... ... ... : ... .. . ... : ... .. . ... : ... .. . ... ... : ... .. . ... ... : ... .. . ... ... : ... .. . ... ...
ROW 86 : ... .. . ... ... ... : ... .. 0 ... ... ... : ... .. . ... : ... .. . ... : ... .. . ... ... : ... .. . ... ... : ... .. . ... ... : ... .. . ... ...
ROW 87 : ... .. . ... ... ... : ... .. . ... ... ... : ... .. . ... : ... .. . ... : ... .. . ... ... : ... .. . ... ... : ... .. . ... ... : ... .. . ... ...
ROW 88 : ... .. . ... ... ... : ... .. . ... ... ... : ... .. . ... : ... .. . ... : ... .. . ... ... : ... .. . ... ... : ... .. . ... ... : ... .. . ... ...
ROW 89 : ... .. . ... ... ... : ... .. . ... ... ... : ... .. . ... : ... .. . ... : ... .. . ... ... : ... .. . ... ... : ... .. . ... ... : ... .. . ... ...
ROW 8A : ... .. 6 ... ... ... : F#2 00 5 P81 ... ... : ... .. . ... : ... .. . ... : ... .. . ... ... : ... .. . ... ... : ... .. . ... ... : ... .. . ... ...
ROW 8B : ... .. . ... ... ... : ... .. 8 ... ... ... : ... .. . ... : ... .. . ... : ... .. . ... ... : ... .. . ... ... : ... .. . ... ... : ... .. . ... ...
ROW 8C : ... .. . ... ... ... : ... .. 5 ... ... ... : ... .. . ... : ... .. . ... : ... .. . ... ... : ... .. . ... ... : ... .. . ... ... : ... .. . ... ...
ROW 8D : ... .. . ... ... ... : ... .. 0 ... ... ... : ... .. . ... : ... .. . ... : ... .. . ... ... : ... .. . ... ... : ... .. . ... ... : ... .. . ... ...
ROW 8E : ... .. . ... ... ... : F#2 00 4 P81 ... ... : ... .. . ... : ... .. . ... : ... .. . ... ... : ... .. . ... ... : ... .. . ... ... : ... .. . ... ...
ROW 8F : ... .. . ... ... ... : ... .. 6 ... ... ... : ... .. . ... : ... .. . ... : ... .. . ... ... : ... .. . ... ... : ... .. . ... ... : ... .. . ... ...
ROW 90 : ... .. . ... ... ... : ... .. 0 ... ... ... : ... .. . ... : ... .. . ... : ... .. . ... ... : ... .. . ... ... : ... .. . ... ... : ... .. . ... ...
ROW 91 : ... .. . ... ... ... : ... .. . ... ... ... : ... .. . ... : ... .. . ... : ... .. . ... ... : ... .. . ... ... : ... .. . ... ... : ... .. . ... ...
ROW 92 : ... .. . ... ... ... : ... .. . ... ... ... : ... .. . ... : ... .. . ... : ... .. . ... ... : ... .. . ... ... : ... .. . ... ... : ... .. . ... ...
ROW 93 : ... .. . ... ... ... : ... .. . ... ... ... : ... .. . ... : ... .. . ... : ... .. . ... ... : ... .. . ... ... : ... .. . ... ... : ... .. . ... ...
ROW 94 : ... .. 7 ... ... ... : B-2 00 5 P81 ... ... : B-2 00 . ... : ... .. . ... : ... .. . ... ... : ... .. 4 ... ... : ... .. 4 ... ... : F#3 01 4 ... ...
ROW 95 : ... .. . ... ... ... : ... .. 8 ... ... ... : ... .. . ... : ... .. . ... : ... .. . ... ... : ... .. . ... ... : ... .. . ... ... : ... .. 6 ... ...
ROW 96 : ... .. . ... ... ... : ... .. 5 ... ... ... : ... .. . ... : ... .. . ... : ... .. . ... ... : ... .. . ... ... : ... .. . ... ... : ... .. . ... ...
ROW 97 : ... .. . ... ... ... : ... .. 0 ... ... ... : ... .. . ... : ... .. . ... : ... .. . ... ... : ... .. . ... ... : ... .. . ... ... : ... .. 5 ... ...
ROW 98 : ... .. . ... ... ... : B-2 00 4 P81 ... ... : ... .. . ... : ... .. . ... : ... .. . ... ... : ... .. . ... ... : ... .. . ... ... : ... .. . ... ...
ROW 99 : ... .. 8 ... ... ... : ... .. 6 ... ... ... : ... .. . ... : ... .. . ... : ... .. . ... ... : ... .. 1 ... ... : ... .. 1 ... ... : ... .. 2 ... ...
ROW 9A : ... .. . ... ... ... : ... .. 0 ... ... ... : ... .. . ... : ... .. . ... : ... .. . ... ... : ... .. . ... ... : ... .. . ... ... : ... .. . ... ...
ROW 9B : ... .. . ... ... ... : ... .. . ... ... ... : ... .. . ... : ... .. . ... : ... .. . ... ... : ... .. . ... ... : ... .. . ... ... : ... .. . ... ...
ROW 9C : ... .. . ... ... ... : ... .. . ... ... ... : ... .. . ... : ... .. . ... : ... .. . ... ... : ... .. . ... ... : ... .. . ... ... : ... .. . ... ...
ROW 9D : ... .. . ... ... ... : ... .. . ... ... ... : ... .. . ... : ... .. . ... : ... .. . ... ... : ... .. . ... ... : ... .. . ... ... : ... .. . ... ...
ROW 9E : ... .. . ... ... ... : F#2 00 5 P81 ... ... : ... .. . ... : ... .. . ... : ... .. . ... ... : ... .. 4 ... ... : ... .. 4 ... ... : ... .. 5 ... ...
ROW 9F : ... .. . ... ... ... : ... .. 8 ... ... ... : ... .. . ... : ... .. . ... : ... .. . ... ... : ... .. . ... ... : ... .. . ... ... : ... .. . ... ...
ROW A0 : ... .. . ... ... ... : ... .. 5 ... ... ... : ... .. . ... : ... .. . ... : ... .. . ... ... : ... .. . ... ... : ... .. . ... ... : ... .. . ... ...
ROW A1 : ... .. . ... ... ... : ... .. 0 ... ... ... : ... .. . ... : ... .. . ... : ... .. . ... ... : ... .. . ... ... : ... .. . ... ... : ... .. . ... ...
ROW A2 : ... .. . ... ... ... : F#2 00 4 P81 ... ... : ... .. . ... : ... .. . ... : ... .. . ... ... : ... .. . ... ... : ... .. . ... ... : ... .. . ... ...
ROW A3 : ... .. 9 ... ... ... : ... .. 6 ... ... ... : ... .. . ... : ... .. . ... : ... .. . ... ... : ... .. 1 ... ... : ... .. 1 ... ... : ... .. 2 ... ...
ROW A4 : ... .. . ... ... ... : ... .. 0 ... ... ... : ... .. . ... : ... .. . ... : ... .. . ... ... : ... .. . ... ... : ... .. . ... ... : ... .. . ... ...
ROW A5 : ... .. . ... ... ... : ... .. . ... ... ... : ... .. . ... : ... .. . ... : ... .. . ... ... : ... .. . ... ... : ... .. . ... ... : ... .. . ... ...
ROW A6 : ... .. . ... ... ... : ... .. . ... ... ... : ... .. . ... : ... .. . ... : ... .. . ... ... : ... .. . ... ... : ... .. . ... ... : ... .. . ... ...
ROW A7 : ... .. . ... ... ... : ... .. . ... ... ... : ... .. . ... : ... .. . ... : ... .. . ... ... : ... .. . ... ... : ... .. . ... ... : ... .. . ... ...
ROW A8 : F#3 00 F ... ... ... : B-2 00 5 P81 ... ... : F#3 00 . ... : ... .. . ... : ... .. . ... ... : ... .. 2 ... ... : ... .. 2 ... ... : B-3 01 1 ... ...
ROW A9 : ... .. E ... ... ... : ... .. 8 ... ... ... : ... .. . ... : ... .. . ... : ... .. . ... ... : ... .. . ... ... : ... .. . ... ... : ... .. 2 ... ...
ROW AA : ... .. D ... ... ... : ... .. 5 ... ... ... : ... .. . ... : ... .. . ... : ... .. . ... ... : ... .. . ... ... : ... .. . ... ... : ... .. . ... ...
ROW AB : ... .. A ... ... ... : ... .. 0 ... ... ... : ... .. . ... : ... .. . ... : ... .. . ... ... : ... .. . ... ... : ... .. . ... ... : ... .. . ... ...
ROW AC : ... .. . ... ... ... : B-2 00 4 P81 ... ... : ... .. . ... : ... .. . ... : ... .. . ... ... : ... .. 1 ... ... : ... .. 1 ... ... : ... .. . ... ...
ROW AD : ... .. 9 ... ... ... : ... .. 6 ... ... ... : ... .. . ... : ... .. . ... : ... .. . ... ... : ... .. . ... ... : ... .. . ... ... : ... .. 1 ... ...
ROW AE : ... .. . ... ... ... : ... .. 0 ... ... ... : ... .. . ... : ... .. . ... : ... .. . ... ... : ... .. . ... ... : ... .. . ... ... : ... .. . ... ...
ROW AF : ... .. . ... ... ... : ... .. . ... ... ... : ... .. . ... : ... .. . ... : ... .. . ... ... : ... .. . ... ... : ... .. . ... ... : ... .. . ... ...
ROW B0 : ... .. . ... ... ... : ... .. . ... ... ... : ... .. . ... : ... .. . ... : ... .. . ... ... : ... .. . ... ... : ... .. . ... ... : ... .. . ... ...
ROW B1 : ... .. . ... ... ... : ... .. . ... ... ... : ... .. . ... : ... .. . ... : ... .. . ... ... : ... .. . ... ... : ... .. . ... ... : ... .. . ... ...
ROW B2 : ... .. 8 ... ... ... : F#2 00 5 P81 ... ... : ... .. . ... : ... .. . ... : ... .. . ... ... : C#3 01 1 ... ... : A-3 01 1 ... ... : C#4 01 1 ... ...
ROW B3 : ... .. . ... ... ... : ... .. 8 ... ... ... : ... .. . ... : ... .. . ... : ... .. . ... ... : ... .. . ... ... : ... .. . ... ... : ... .. . ... ...
ROW B4 : ... .. . ... ... ... : ... .. 5 ... ... ... : ... .. . ... : ... .. . ... : ... .. . ... ... : ... .. . ... ... : ... .. . ... ... : ... .. . ... ...
ROW B5 : ... .. . ... ... ... : ... .. 0 ... ... ... : ... .. . ... : ... .. . ... : ... .. . ... ... : ... .. . ... ... : ... .. . ... ... : ... .. . ... ...
ROW B6 : ... .. . ... ... ... : F#2 00 4 P81 ... ... : ... .. . ... : ... .. . ... : ... .. . ... ... : ... .. . ... ... : ... .. . ... ... : ... .. . ... ...
ROW B7 : ... .. . ... ... ... : ... .. 6 ... ... ... : ... .. . ... : ... .. . ... : ... .. . ... ... : ... .. . ... ... : ... .. . ... ... : ... .. . ... ...
ROW B8 : ... .. . ... ... ... : ... .. 0 ... ... ... : ... .. . ... : ... .. . ... : ... .. . ... ... : ... .. . ... ... : ... .. . ... ... : ... .. . ... ...
ROW B9 : ... .. . ... ... ... : ... .. . ... ... ... : ... .. . ... : ... .. . ... : ... .. . ... ... : ... .. . ... ... : ... .. . ... ... : ... .. . ... ...
ROW BA : ... .. . ... ... ... : ... .. . ... ... ... : ... .. . ... : ... .. . ... : ... .. . ... ... : ... .. . ... ... : ... .. . ... ... : ... .. . ... ...
ROW BB : ... .. . ... ... ... : ... .. . ... ... ... : ... .. . ... : ... .. . ... : ... .. . ... ... : ... .. . ... ... : ... .. . ... ... : ... .. . ... ...
ROW BC : ... .. 7 ... ... ... : B-2 00 5 P81 ... ... : B-3 00 . ... : ... .. . ... : ... .. . ... ... : B-2 01 6 ... ... : G#3 01 6 ... ... : D#4 01 4 ... ...
ROW BD : ... .. . ... ... ... : ... .. 8 ... ... ... : ... .. . ... : ... .. . ... : ... .. . ... ... : ... .. 5 ... ... : ... .. 5 ... ... : ... .. 6 ... ...
ROW BE : ... .. . ... ... ... : ... .. 5 ... ... ... : ... .. . ... : ... .. . ... : ... .. . ... ... : ... .. . ... ... : ... .. . ... ... : ... .. . ... ...
ROW BF : ... .. . ... ... ... : ... .. 0 ... ... ... : ... .. . ... : ... .. . ... : ... .. . ... ... : ... .. . ... ... : ... .. . ... ... : ... .. 5 ... ...
ROW C0 : ... .. . ... ... ... : B-2 00 4 P81 ... ... : ... .. . ... : ... .. . ... : ... .. . ... ... : ... .. 4 ... ... : ... .. 4 ... ... : ... .. . ... ...
ROW C1 : ... .. 6 ... ... ... : ... .. 6 ... ... ... : ... .. . ... : ... .. . ... : ... .. . ... ... : ... .. 1 ... ... : ... .. 1 ... ... : ... .. 2 ... ...
ROW C2 : ... .. . ... ... ... : ... .. 0 ... ... ... : ... .. . ... : ... .. . ... : ... .. . ... ... : ... .. . ... ... : ... .. . ... ... : ... .. . ... ...
ROW C3 : ... .. . ... ... ... : ... .. . ... ... ... : ... .. . ... : ... .. . ... : ... .. . ... ... : ... .. . ... ... : ... .. . ... ... : ... .. . ... ...
ROW C4 : ... .. . ... ... ... : ... .. . ... ... ... : ... .. . ... : ... .. . ... : ... .. . ... ... : ... .. . ... ... : ... .. . ... ... : ... .. . ... ...
ROW C5 : ... .. . ... ... ... : ... .. . ... ... ... : ... .. . ... : ... .. . ... : ... .. . ... ... : ... .. . ... ... : ... .. . ... ... : ... .. . ... ...
ROW C6 : ... .. . ... ... ... : F#2 00 5 P81 ... ... : ... .. . ... : ... .. . ... : ... .. . ... ... : D#3 01 6 ... ... : B-3 01 6 ... ... : B-3 01 4 ... ...
ROW C7 : ... .. . ... ... ... : ... .. 8 ... ... ... : ... .. . ... : ... .. . ... : ... .. . ... ... : ... .. 5 ... ... : ... .. 5 ... ... : ... .. 6 ... ...
ROW C8 : ... .. . ... ... ... : ... .. 5 ... ... ... : ... .. . ... : ... .. . ... : ... .. . ... ... : ... .. . ... ... : ... .. . ... ... : ... .. . ... ...
ROW C9 : ... .. . ... ... ... : ... .. 0 ... ... ... : ... .. . ... : ... .. . ... : ... .. . ... ... : ... .. . ... ... : ... .. . ... ... : ... .. 5 ... ...
ROW CA : ... .. . ... ... ... : F#2 00 4 P81 ... ... : ... .. . ... : ... .. . ... : ... .. . ... ... : ... .. 4 ... ... : ... .. 4 ... ... : ... .. . ... ...
ROW CB : ... .. 5 ... ... ... : ... .. 6 ... ... ... : ... .. . ... : ... .. . ... : ... .. . ... ... : ... .. 1 ... ... : ... .. 1 ... ... : ... .. 2 ... ...
ROW CC : ... .. . ... ... ... : ... .. 0 ... ... ... : ... .. . ... : ... .. . ... : ... .. . ... ... : ... .. . ... ... : ... .. . ... ... : ... .. . ... ...
ROW CD : ... .. . ... ... ... : ... .. . ... ... ... : ... .. . ... : ... .. . ... : ... .. . ... ... : ... .. . ... ... : ... .. . ... ... : ... .. . ... ...
ROW CE : ... .. . ... ... ... : ... .. . ... ... ... : ... .. . ... : ... .. . ... : ... .. . ... ... : ... .. . ... ... : ... .. . ... ... : ... .. . ... ...
ROW CF : ... .. . ... ... ... : ... .. . ... ... ... : ... .. . ... : ... .. . ... : ... .. . ... ... : ... .. . ... ... : ... .. . ... ... : ... .. . ... ...
ROW D0 : G#3 00 8 ... ... ... : A-2 00 5 P81 ... ... : A-3 00 . ... : ... .. . ... : ... .. . ... ... : C#3 01 1 ... ... : A-3 01 1 ... ... : C#4 01 1 ... ...
ROW D1 : ... .. 7 ... ... ... : ... .. 8 ... ... ... : ... .. . ... : ... .. . ... : ... .. . ... ... : ... .. . ... ... : ... .. . ... ... : ... .. . ... ...
ROW D2 : ... .. 6 ... ... ... : ... .. 5 ... ... ... : ... .. . ... : ... .. . ... : ... .. . ... ... : ... .. . ... ... : ... .. . ... ... : ... .. . ... ...
ROW D3 : ... .. 5 ... ... ... : ... .. 0 ... ... ... : ... .. . ... : ... .. . ... : ... .. . ... ... : ... .. . ... ... : ... .. . ... ... : ... .. . ... ...
ROW D4 : ... .. . ... ... ... : A-2 00 4 P81 ... ... : ... .. . ... : ... .. . ... : ... .. . ... ... : ... .. . ... ... : ... .. . ... ... : ... .. . ... ...
ROW D5 : ... .. . ... ... ... : ... .. 6 ... ... ... : ... .. . ... : ... .. . ... : ... .. . ... ... : ... .. . ... ... : ... .. . ... ... : ... .. . ... ...
ROW D6 : ... .. . ... ... ... : ... .. 0 ... ... ... : ... .. . ... : ... .. . ... : ... .. . ... ... : ... .. . ... ... : ... .. . ... ... : ... .. . ... ...
ROW D7 : ... .. . ... ... ... : ... .. . ... ... ... : ... .. . ... : ... .. . ... : ... .. . ... ... : ... .. . ... ... : ... .. . ... ... : ... .. . ... ...
ROW D8 : ... .. . ... ... ... : ... .. . ... ... ... : ... .. . ... : ... .. . ... : ... .. . ... ... : ... .. . ... ... : ... .. . ... ... : ... .. . ... ...
ROW D9 : ... .. . ... ... ... : ... .. . ... ... ... : ... .. . ... : ... .. . ... : ... .. . ... ... : ... .. . ... ... : ... .. . ... ... : ... .. . ... ...
ROW DA : ... .. 6 ... ... ... : F#2 00 5 P81 ... ... : G#3 00 . ... : ... .. . ... : ... .. . ... ... : ... .. . ... ... : ... .. . ... ... : ... .. . ... ...
ROW DB : A-3 00 6 ... ... ... : ... .. 8 ... ... ... : ... .. . ... : ... .. . ... : ... .. . ... ... : ... .. . ... ... : ... .. . ... ... : ... .. . ... ...
ROW DC : ... .. . ... ... ... : ... .. 5 ... ... ... : ... .. . ... : ... .. . ... : ... .. . ... ... : ... .. . ... ... : ... .. . ... ... : ... .. . ... ...
ROW DD : ... .. . ... ... ... : ... .. 0 ... ... ... : ... .. . ... : ... .. . ... : ... .. . ... ... : ... .. . ... ... : ... .. . ... ... : ... .. . ... ...
ROW DE : ... .. . ... ... ... : F#2 00 4 P81 ... ... : ... .. . ... : ... .. . ... : ... .. . ... ... : ... .. . ... ... : ... .. . ... ... : ... .. . ... ...
ROW DF : ... .. . ... ... ... : ... .. 6 ... ... ... : ... .. . ... : ... .. . ... : ... .. . ... ... : ... .. . ... ... : ... .. . ... ... : ... .. . ... ...
ROW E0 : ... .. . ... ... ... : ... .. 0 ... ... ... : ... .. . ... : ... .. . ... : ... .. . ... ... : ... .. . ... ... : ... .. . ... ... : ... .. . ... ...
ROW E1 : ... .. . ... ... ... : ... .. . ... ... ... : ... .. . ... : ... .. . ... : ... .. . ... ... : ... .. . ... ... : ... .. . ... ... : ... .. . ... ...
ROW E2 : ... .. . ... ... ... : ... .. . ... ... ... : ... .. . ... : ... .. . ... : ... .. . ... ... : ... .. . ... ... : ... .. . ... ... : ... .. . ... ...
ROW E3 : ... .. . ... ... ... : ... .. . ... ... ... : ... .. . ... : ... .. . ... : ... .. . ... ... : ... .. . ... ... : ... .. . ... ... : ... .. . ... ...
ROW E4 : ... .. 7 ... ... ... : A-2 00 5 P81 ... ... : A-3 00 . ... : ... .. . ... : ... .. . ... ... : ... .. 4 ... ... : ... .. 4 ... ... : A-3 01 4 ... ...
ROW E5 : G-3 00 7 P86 ... ... : ... .. 8 ... ... ... : ... .. . ... : ... .. . ... : ... .. . ... ... : ... .. . ... ... : ... .. . ... ... : ... .. 6 ... ...
ROW E6 : F#3 00 7 P7E ... ... : ... .. 5 ... ... ... : ... .. . ... : ... .. . ... : ... .. . ... ... : ... .. . ... ... : ... .. . ... ... : ... .. . ... ...
ROW E7 : F-3 00 7 P77 ... ... : ... .. 0 ... ... ... : ... .. . ... : ... .. . ... : ... .. . ... ... : ... .. . ... ... : ... .. . ... ... : ... .. 5 ... ...
ROW E8 : D#3 00 7 P86 ... ... : A-2 00 4 P81 ... ... : ... .. . ... : ... .. . ... : ... .. . ... ... : ... .. . ... ... : ... .. . ... ... : ... .. . ... ...
ROW E9 : D-3 00 8 P82 ... ... : ... .. 6 ... ... ... : ... .. . ... : ... .. . ... : ... .. . ... ... : ... .. 1 ... ... : ... .. 1 ... ... : ... .. 2 ... ...
ROW EA : C#3 00 8 P80 ... ... : ... .. 0 ... ... ... : ... .. . ... : ... .. . ... : ... .. . ... ... : ... .. . ... ... : ... .. . ... ... : ... .. . ... ...
ROW EB : ... .. . ... ... ... : ... .. . ... ... ... : ... .. . ... : ... .. . ... : ... .. . ... ... : ... .. . ... ... : ... .. . ... ... : ... .. . ... ...
ROW EC : ... .. . ... ... ... : ... .. . ... ... ... : ... .. . ... : ... .. . ... : ... .. . ... ... : ... .. . ... ... : ... .. . ... ... : ... .. . ... ...
ROW ED : ... .. . ... ... ... : ... .. . ... ... ... : ... .. . ... : ... .. . ... : ... .. . ... ... : ... .. . ... ... : ... .. . ... ... : ... .. . ... ...
ROW EE : ... .. . ... ... ... : F#2 00 5 P81 ... ... : ... .. . ... : ... .. . ... : ... .. . ... ... : ... .. 4 ... ... : ... .. 4 ... ... : ... .. 5 ... ...
ROW EF : ... .. . ... ... ... : ... .. 8 ... ... ... : ... .. . ... : ... .. . ... : ... .. . ... ... : ... .. . ... ... : ... .. . ... ... : ... .. . ... ...
ROW F0 : ... .. . ... ... ... : ... .. 5 ... ... ... : ... .. . ... : ... .. . ... : ... .. . ... ... : ... .. . ... ... : ... .. . ... ... : ... .. . ... ...
ROW F1 : ... .. . ... ... ... : ... .. 0 ... ... ... : ... .. . ... : ... .. . ... : ... .. . ... ... : ... .. . ... ... : ... .. . ... ... : ... .. . ... ...
ROW F2 : ... .. . ... ... ... : F#2 00 4 P81 ... ... : ... .. . ... : ... .. . ... : ... .. . ... ... : ... .. . ... ... : ... .. . ... ... : ... .. . ... ...
ROW F3 : ... .. 9 ... ... ... : ... .. 6 ... ... ... : ... .. . ... : ... .. . ... : ... .. . ... ... : ... .. 1 ... ... : ... .. 1 ... ... : ... .. 2 ... ...
ROW F4 : ... .. . ... ... ... : ... .. 0 ... ... ... : ... .. . ... : ... .. . ... : ... .. . ... ... : ... .. . ... ... : ... .. . ... ... : ... .. . ... ...
ROW F5 : ... .. . ... ... ... : ... .. . ... ... ... : ... .. . ... : ... .. . ... : ... .. . ... ... : ... .. . ... ... : ... .. . ... ... : ... .. . ... ...
ROW F6 : ... .. . ... ... ... : ... .. . ... ... ... : ... .. . ... : ... .. . ... : ... .. . ... ... : ... .. . ... ... : ... .. . ... ... : ... .. . ... ...
ROW F7 : ... .. . ... ... ... : ... .. . ... ... ... : ... .. . ... : ... .. . ... : ... .. . ... ... : ... .. . ... ... : ... .. . ... ... : ... .. . ... ...
ROW F8 : ... .. A P82 ... ... : A-2 00 5 P81 ... ... : ... .. . ... : ... .. . ... : ... .. . ... ... : ... .. 2 ... ... : F#3 01 2 ... ... : F#3 01 1 ... ...
ROW F9 : ... .. . P83 ... ... : ... .. 8 ... ... ... : ... .. . ... : ... .. . ... : ... .. . ... ... : ... .. . ... ... : ... .. . ... ... : ... .. 2 ... ...
ROW FA : ... .. . ... ... ... : ... .. 5 ... ... ... : ... .. . ... : ... .. . ... : ... .. . ... ... : ... .. . ... ... : ... .. . ... ... : ... .. . ... ...
ROW FB : ... .. . P81 ... ... : ... .. 0 ... ... ... : ... .. . ... : ... .. . ... : ... .. . ... ... : ... .. . ... ... : ... .. . ... ... : ... .. . ... ...
ROW FC : ... .. . P7F ... ... : A-2 00 4 P81 ... ... : ... .. . ... : ... .. . ... : ... .. . ... ... : ... .. 1 ... ... : ... .. 1 ... ... : ... .. . ... ...
ROW FD : ... .. 9 P7D ... ... : ... .. 6 ... ... ... : ... .. . ... : ... .. . ... : ... .. . ... ... : ... .. . ... ... : ... .. . ... ... : ... .. 1 ... ...
ROW FE : ... .. . ... ... ... : ... .. 0 ... ... ... : ... .. . ... : ... .. . ... : ... .. . ... ... : ... .. . ... ... : ... .. . ... ... : ... .. . ... ...
ROW FF : ... .. . P7E ... ... : ... .. . ... ... ... : ... .. . ... : ... .. . ... : ... .. . ... ... : ... .. . ... ... : ... .. . ... ... : ... .. . ... ...

PATTERN 17
ROW 00 : ... .. . P80 ... ... : ... .. . ... ... ... : ... .. . ... : ... .. . ... : ... .. . ... ... : ... .. . ... ... : ... .. . ... ... : ... .. . ... ...
ROW 01 : ... .. . P82 ... ... : ... .. . ... ... ... : ... .. . ... : ... .. . ... : ... .. . ... ... : ... .. . ... ... : ... .. . ... ... : ... .. . ... ...
ROW 02 : ... .. 8 P83 ... ... : F#2 00 5 P81 ... ... : ... .. . ... : ... .. . ... : ... .. . ... ... : ... .. . ... ... : ... .. . ... ... : ... .. . ... ...
ROW 03 : ... .. . ... ... ... : ... .. 8 ... ... ... : ... .. . ... : ... .. . ... : ... .. . ... ... : ... .. . ... ... : ... .. . ... ... : ... .. . ... ...
ROW 04 : ... .. . P81 ... ... : ... .. 5 ... ... ... : ... .. . ... : ... .. . ... : ... .. . ... ... : ... .. . ... ... : ... .. . ... ... : ... .. . ... ...
ROW 05 : ... .. . P80 ... ... : ... .. 0 ... ... ... : ... .. . ... : ... .. . ... : ... .. . ... ... : ... .. . ... ... : ... .. . ... ... : ... .. . ... ...
ROW 06 : ... .. . P7D ... ... : F#2 00 4 P81 ... ... : ... .. . ... : ... .. . ... : ... .. . ... ... : ... .. . ... ... : ... .. . ... ... : ... .. . ... ...
ROW 07 : ... .. . ... ... ... : ... .. 6 ... ... ... : ... .. . ... : ... .. . ... : ... .. . ... ... : ... .. . ... ... : ... .. . ... ... : ... .. . ... ...
ROW 08 : ... .. . P7E ... ... : ... .. 0 ... ... ... : ... .. . ... : ... .. . ... : ... .. . ... ... : ... .. . ... ... : ... .. . ... ... : ... .. . ... ...
ROW 09 : ... .. . P80 ... ... : ... .. . ... ... ... : ... .. . ... : ... .. . ... : ... .. . ... ... : ... .. . ... ... : ... .. . ... ... : ... .. . ... ...
ROW 0A : ... .. . P81 ... ... : ... .. . ... ... ... : ... .. . ... : ... .. . ... : ... .. . ... ... : ... .. . ... ... : ... .. . ... ... : ... .. . ... ...
ROW 0B : ... .. . P83 ... ... : ... .. . ... ... ... : ... .. . ... : ... .. . ... : ... .. . ... ... : ... .. . ... ... : ... .. . ... ... : ... .. . ... ...
ROW 0C : ... .. 7 ... ... ... : A-2 00 5 P81 ... ... : ... .. . ... : ... .. . ... : ... .. . ... ... : F#3 01 6 ... ... : C#4 01 6 ... ... : C#4 01 4 ... ...
ROW 0D : ... .. . P81 ... ... : ... .. 8 ... ... ... : ... .. . ... : ... .. . ... : ... .. . ... ... : ... .. 5 ... ... : ... .. 5 ... ... : ... .. 6 ... ...
ROW 0E : ... .. . P80 ... ... : ... .. 5 ... ... ... : ... .. . ... : ... .. . ... : ... .. . ... ... : ... .. . ... ... : ... .. . ... ... : ... .. . ... ...
ROW 0F : ... .. . P7E ... ... : ... .. 0 ... ... ... : ... .. . ... : ... .. . ... : ... .. . ... ... : ... .. . ... ... : ... .. . ... ... : ... .. 5 ... ...
ROW 10 : ... .. . P7D ... ... : A-2 00 4 P81 ... ... : ... .. . ... : ... .. . ... : ... .. . ... ... : ... .. 4 ... ... : ... .. 4 ... ... : ... .. . ... ...
ROW 11 : ... .. 6 ... ... ... : ... .. 6 ... ... ... : ... .. . ... : ... .. . ... : ... .. . ... ... : ... .. 1 ... ... : ... .. 1 ... ... : ... .. 2 ... ...
ROW 12 : ... .. . P80 ... ... : ... .. 0 ... ... ... : ... .. . ... : ... .. . ... : ... .. . ... ... : ... .. . ... ... : ... .. . ... ... : ... .. . ... ...
ROW 13 : ... .. . P81 ... ... : ... .. . ... ... ... : ... .. . ... : ... .. . ... : ... .. . ... ... : ... .. . ... ... : ... .. . ... ... : ... .. . ... ...
ROW 14 : ... .. . P83 ... ... : ... .. . ... ... ... : ... .. . ... : ... .. . ... : ... .. . ... ... : ... .. . ... ... : ... .. . ... ... : ... .. . ... ...
ROW 15 : ... .. . ... ... ... : ... .. . ... ... ... : ... .. . ... : ... .. . ... : ... .. . ... ... : ... .. . ... ... : ... .. . ... ... : ... .. . ... ...
ROW 16 : ... .. . P82 ... ... : F#2 00 5 P81 ... ... : ... .. . ... : ... .. . ... : ... .. . ... ... : ... .. 4 ... ... : ... .. 4 ... ... : ... .. 5 ... ...
ROW 17 : ... .. . P80 ... ... : ... .. 8 ... ... ... : ... .. . ... : ... .. . ... : ... .. . ... ... : ... .. 3 ... ... : ... .. 3 ... ... : ... .. . ... ...
ROW 18 : ... .. . P7E ... ... : ... .. 5 ... ... ... : ... .. . ... : ... .. . ... : ... .. . ... ... : ... .. . ... ... : ... .. . ... ... : ... .. . ... ...
ROW 19 : ... .. . P7D ... ... : ... .. 0 ... ... ... : ... .. . ... : ... .. . ... : ... .. . ... ... : ... .. 2 ... ... : ... .. 2 ... ... : ... .. . ... ...
ROW 1A : ... .. . ... ... ... : F#2 00 4 P81 ... ... : ... .. . ... : ... .. . ... : ... .. . ... ... : ... .. . ... ... : ... .. . ... ... : ... .. . ... ...
ROW 1B : ... .. 5 P7F ... ... : ... .. 6 ... ... ... : ... .. . ... : ... .. . ... : ... .. . ... ... : ... .. 1 ... ... : ... .. 1 ... ... : ... .. 2 ... ...
ROW 1C : ... .. . P81 ... ... : ... .. 0 ... ... ... : ... .. . ... : ... .. . ... : ... .. . ... ... : ... .. . ... ... : ... .. . ... ... : ... .. . ... ...
ROW 1D : ... .. . P83 ... ... : ... .. . ... ... ... : ... .. . ... : ... .. . ... : ... .. . ... ... : ... .. . ... ... : ... .. . ... ... : ... .. . ... ...
ROW 1E : ... .. . ... ... ... : ... .. . ... ... ... : ... .. . ... : ... .. . ... : ... .. . ... ... : ... .. . ... ... : ... .. . ... ... : ... .. . ... ...
ROW 1F : ... .. . P82 ... ... : ... .. . ... ... ... : ... .. . ... : ... .. . ... : ... .. . ... ... : ... .. . ... ... : ... .. . ... ... : ... .. . ... ...
ROW 20 : ... .. . P80 ... ... : D-3 00 5 P81 ... ... : ... .. . ... : ... .. . ... : ... .. . ... ... : ... .. 4 ... ... : D-4 01 4 ... ... : D-4 01 3 ... ...
ROW 21 : ... .. . P7E ... ... : ... .. 8 ... ... ... : ... .. . ... : ... .. . ... : ... .. . ... ... : ... .. . ... ... : ... .. . ... ... : ... .. 4 ... ...
ROW 22 : ... .. . P7D ... ... : ... .. 5 ... ... ... : ... .. . ... : ... .. . ... : ... .. . ... ... : ... .. . ... ... : ... .. . ... ... : ... .. . ... ...
ROW 23 : ... .. . ... ... ... : ... .. 0 ... ... ... : ... .. . ... : ... .. . ... : ... .. . ... ... : ... .. . ... ... : ... .. . ... ... : ... .. . ... ...
ROW 24 : ... .. . P7F ... ... : D-3 00 4 P81 ... ... : ... .. . ... : ... .. . ... : ... .. . ... ... : ... .. 3 ... ... : ... .. 3 ... ... : ... .. . ... ...
ROW 25 : ... .. 6 P80 ... ... : ... .. 6 ... ... ... : ... .. . ... : ... .. . ... : ... .. . ... ... : ... .. . ... ... : ... .. . ... ... : ... .. . ... ...
ROW 26 : ... .. . P83 ... ... : ... .. 0 ... ... ... : ... .. . ... : ... .. . ... : ... .. . ... ... : ... .. . ... ... : ... .. . ... ... : ... .. . ... ...
ROW 27 : ... .. . ... ... ... : ... .. . ... ... ... : ... .. . ... : ... .. . ... : ... .. . ... ... : ... .. . ... ... : ... .. . ... ... : ... .. . ... ...
ROW 28 : ... .. . P82 ... ... : ... .. . ... ... ... : ... .. . ... : ... .. . ... : ... .. . ... ... : ... .. . ... ... : ... .. . ... ... : ... .. . ... ...
ROW 29 : ... .. . P80 ... ... : ... .. . ... ... ... : ... .. . ... : ... .. . ... : ... .. . ... ... : ... .. . ... ... : ... .. . ... ... : ... .. . ... ...
ROW 2A : ... .. . P7F ... ... : A-2 00 5 P81 ... ... : ... .. . ... : ... .. . ... : ... .. . ... ... : ... .. 1 ... ... : ... .. 1 ... ... : ... .. 2 ... ...
ROW 2B : ... .. . P7D ... ... : ... .. 8 ... ... ... : ... .. . ... : ... .. . ... : ... .. . ... ... : ... .. . ... ... : ... .. . ... ... : ... .. . ... ...
ROW 2C : ... .. . ... ... ... : ... .. 5 ... ... ... : ... .. . ... : ... .. . ... : ... .. . ... ... : ... .. . ... ... : ... .. . ... ... : ... .. . ... ...
ROW 2D : ... .. . P7F ... ... : ... .. 0 ... ... ... : ... .. . ... : ... .. . ... : ... .. . ... ... : ... .. . ... ... : ... .. . ... ... : ... .. . ... ...
ROW 2E : ... .. . P80 ... ... : A-2 00 4 P81 ... ... : ... .. . ... : ... .. . ... : ... .. . ... ... : ... .. . ... ... : ... .. . ... ... : ... .. . ... ...
ROW 2F : ... .. 7 P82 ... ... : ... .. 6 ... ... ... : ... .. . ... : ... .. . ... : ... .. . ... ... : ... .. . ... ... : ... .. . ... ... : ... .. . ... ...
ROW 30 : ... .. . P83 ... ... : ... .. 0 ... ... ... : ... .. . ... : ... .. . ... : ... .. . ... ... : ... .. . ... ... : ... .. . ... ... : ... .. . ... ...
ROW 31 : ... .. . ... ... ... : ... .. . ... ... ... : ... .. . ... : ... .. . ... : ... .. . ... ... : ... .. . ... ... : ... .. . ... ... : ... .. . ... ...
ROW 32 : ... .. . P80 ... ... : ... .. . ... ... ... : ... .. . ... : ... .. . ... : ... .. . ... ... : ... .. . ... ... : ... .. . ... ... : ... .. . ... ...
ROW 33 : ... .. . P7F ... ... : ... .. . ... ... ... : ... .. . ... : ... .. . ... : ... .. . ... ... : ... .. . ... ... : ... .. . ... ... : ... .. . ... ...
ROW 34 : ... .. . P7D ... ... : D-3 00 5 P81 ... ... : ... .. . ... : ... .. . ... : ... .. . ... ... : ... .. 2 ... ... : ... .. 2 ... ... : A-3 01 2 ... ...
ROW 35 : ... .. . ... ... ... : ... .. 8 ... ... ... : ... .. . ... : ... .. . ... : ... .. . ... ... : ... .. . ... ... : ... .. . ... ... : ... .. 3 ... ...
ROW 36 : ... .. . P7E ... ... : ... .. 5 ... ... ... : ... .. . ... : ... .. . ... : ... .. . ... ... : ... .. . ... ... : ... .. . ... ... : ... .. . ... ...
ROW 37 : ... .. . P80 ... ... : ... .. 0 ... ... ... : ... .. . ... : ... .. . ... : ... .. . ... ... : ... .. . ... ... : ... .. . ... ... : ... .. 2 ... ...
ROW 38 : ... .. . P82 ... ... : D-3 00 4 P81 ... ... : ... .. . ... : ... .. . ... : ... .. . ... ... : ... .. . ... ... : ... .. . ... ... : ... .. . ... ...
ROW 39 : ... .. 8 P83 ... ... : ... .. 6 ... ... ... : ... .. . ... : ... .. . ... : ... .. . ... ... : ... .. . ... ... : ... .. . ... ... : ... .. 3 ... ...
ROW 3A : ... .. . ... ... ... : ... .. 0 ... ... ... : ... .. . ... : ... .. . ... : ... .. . ... ... : ... .. . ... ... : ... .. . ... ... : ... .. . ... ...
ROW 3B : ... .. . P81 ... ... : ... .. . ... ... ... : ... .. . ... : ... .. . ... : ... .. . ... ... : ... .. . ... ... : ... .. . ... ... : ... .. . ... ...
ROW 3C : ... .. . P7F ... ... : ... .. . ... ... ... : ... .. . ... : ... .. . ... : ... .. . ... ... : ... .. . ... ... : ... .. . ... ... : ... .. . ... ...
ROW 3D : ... .. . P7D ... ... : ... .. . ... ... ... : ... .. . ... : ... .. . ... : ... .. . ... ... : ... .. . ... ... : ... .. . ... ... : ... .. . ... ...
ROW 3E : ... .. . ... ... ... : A-2 00 5 P81 ... ... : ... .. . ... : ... .. . ... : ... .. . ... ... : ... .. . ... ... : ... .. . ... ... : ... .. . ... ...
ROW 3F : ... .. . P7E ... ... : ... .. 8 ... ... ... : ... .. . ... : ... .. . ... : ... .. . ... ... : ... .. . ... ... : ... .. . ... ... : ... .. . ... ...
ROW 40 : ... .. . P80 ... ... : ... .. 5 ... ... ... : ... .. . ... : ... .. . ... : ... .. . ... ... : ... .. . ... ... : ... .. . ... ... : ... .. . ... ...
ROW 41 : ... .. . P82 ... ... : ... .. 0 ... ... ... : ... .. . ... : ... .. . ... : ... .. . ... ... : ... .. . ... ... : ... .. . ... ... : ... .. . ... ...
ROW 42 : ... .. . P83 ... ... : A-2 00 4 P81 ... ... : ... .. . ... : ... .. . ... : ... .. . ... ... : ... .. . ... ... : ... .. . ... ... : ... .. . ... ...
ROW 43 : ... .. 9 ... ... ... : ... .. 6 ... ... ... : ... .. . ... : ... .. . ... : ... .. . ... ... : ... .. . ... ... : ... .. . ... ... : ... .. . ... ...
ROW 44 : ... .. . P81 ... ... : ... .. 0 ... ... ... : ... .. . ... : ... .. . ... : ... .. . ... ... : ... .. . ... ... : ... .. . ... ... : ... .. . ... ...
ROW 45 : ... .. . P80 ... ... : ... .. . ... ... ... : ... .. . ... : ... .. . ... : ... .. . ... ... : ... .. . ... ... : ... .. . ... ... : ... .. . ... ...
ROW 46 : ... .. . P7D ... ... : ... .. . ... ... ... : ... .. . ... : ... .. . ... : ... .. . ... ... : ... .. . ... ... : ... .. . ... ... : ... .. . ... ...
ROW 47 : ... .. . ... ... ... : ... .. . ... ... ... : ... .. . ... : ... .. . ... : ... .. . ... ... : ... .. . ... ... : ... .. . ... ... : ... .. . ... ...
ROW 48 : D-3 00 F P80 ... ... : D-3 00 5 P81 ... ... : G#1 00 . ... : ... .. . ... : ... .. . ... ... : B-3 01 4 ... ... : ... .. 4 ... ... : F#3 01 3 ... ...
ROW 49 : ... .. E ... ... ... : ... .. 8 ... ... ... : ... .. . ... : ... .. . ... : ... .. . ... ... : ... .. 3 ... ... : ... .. 3 ... ... : ... .. 4 ... ...
ROW 4A : ... .. D ... ... ... : ... .. 5 ... ... ... : ... .. . ... : ... .. . ... : ... .. . ... ... : ... .. . ... ... : ... .. . ... ... : ... .. . ... ...
ROW 4B : ... .. A ... ... ... : ... .. 0 ... ... ... : ... .. . ... : ... .. . ... : ... .. . ... ... : ... .. . ... ... : ... .. . ... ... : ... .. 3 ... ...
ROW 4C : ... .. . ... ... ... : D-3 00 4 P81 ... ... : ... .. . ... : ... .. . ... : ... .. . ... ... : ... .. . ... ... : ... .. . ... ... : ... .. . ... ...
ROW 4D : ... .. 9 ... ... ... : ... .. 6 ... ... ... : ... .. . ... : ... .. . ... : ... .. . ... ... : ... .. 2 ... ... : ... .. 2 ... ... : ... .. . ... ...
ROW 4E : ... .. . ... ... ... : ... .. 0 ... ... ... : ... .. . ... : ... .. . ... : ... .. . ... ... : ... .. . ... ... : ... .. . ... ... : ... .. . ... ...
ROW 4F : ... .. . ... ... ... : ... .. . ... ... ... : ... .. . ... : ... .. . ... : ... .. . ... ... : ... .. . ... ... : ... .. . ... ... : ... .. . ... ...
ROW 50 : ... .. . ... ... ... : ... .. . ... ... ... : ... .. . ... : ... .. . ... : ... .. . ... ... : ... .. . ... ... : ... .. . ... ... : ... .. . ... ...
ROW 51 : ... .. . ... ... ... : ... .. . ... ... ... : ... .. . ... : ... .. . ... : ... .. . ... ... : ... .. . ... ... : ... .. . ... ... : ... .. . ... ...
ROW 52 : ... .. 8 ... ... ... : A-2 00 5 P81 ... ... : ... .. . ... : ... .. . ... : ... .. . ... ... : ... .. 1 ... ... : ... .. 1 ... ... : ... .. 2 ... ...
ROW 53 : ... .. . ... ... ... : ... .. 8 ... ... ... : ... .. . ... : ... .. . ... : ... .. . ... ... : ... .. . ... ... : ... .. . ... ... : ... .. . ... ...
ROW 54 : ... .. . ... ... ... : ... .. 5 ... ... ... : ... .. . ... : ... .. . ... : ... .. . ... ... : ... .. . ... ... : ... .. . ... ... : ... .. . ... ...
ROW 55 : ... .. . ... ... ... : ... .. 0 ... ... ... : ... .. . ... : ... .. . ... : ... .. . ... ... : ... .. . ... ... : ... .. . ... ... : ... .. . ... ...
ROW 56 : ... .. . ... ... ... : A-2 00 4 P81 ... ... : ... .. . ... : ... .. . ... : ... .. . ... ... : ... .. . ... ... : ... .. . ... ... : ... .. . ... ...
ROW 57 : ... .. . ... ... ... : ... .. 6 ... ... ... : ... .. . ... : ... .. . ... : ... .. . ... ... : ... .. . ... ... : ... .. . ... ... : ... .. 1 ... ...
ROW 58 : ... .. . ... ... ... : ... .. 0 ... ... ... : ... .. . ... : ... .. . ... : ... .. . ... ... : ... .. . ... ... : ... .. . ... ... : ... .. . ... ...
ROW 59 : ... .. . ... ... ... : ... .. . ... ... ... : ... .. . ... : ... .. . ... : ... .. . ... ... : ... .. . ... ... : ... .. . ... ... : ... .. . ... ...
ROW 5A : ... .. . ... ... ... : ... .. . ... ... ... : ... .. . ... : ... .. . ... : ... .. . ... ... : ... .. . ... ... : ... .. . ... ... : ... .. . ... ...
ROW 5B : ... .. . ... ... ... : ... .. . ... ... ... : ... .. . ... : ... .. . ... : ... .. . ... ... : ... .. . ... ... : ... .. . ... ... : ... .. . ... ...
ROW 5C : ... .. 7 ... ... ... : D-3 00 5 P81 ... ... : ... .. . ... : ... .. . ... : ... .. . ... ... : A-3 01 1 ... ... : C#4 01 1 ... ... : D-3 01 1 ... ...
ROW 5D : ... .. . ... ... ... : ... .. 8 ... ... ... : ... .. . ... : ... .. . ... : ... .. . ... ... : ... .. . ... ... : ... .. . ... ... : ... .. . ... ...
ROW 5E : ... .. . ... ... ... : ... .. 5 ... ... ... : ... .. . ... : ... .. . ... : ... .. . ... ... : ... .. . ... ... : ... .. . ... ... : ... .. . ... ...
ROW 5F : ... .. . ... ... ... : ... .. 0 ... ... ... : ... .. . ... : ... .. . ... : ... .. . ... ... : ... .. . ... ... : ... .. . ... ... : ... .. . ... ...
ROW 60 : ... .. . ... ... ... : D-3 00 4 P81 ... ... : ... .. . ... : ... .. . ... : ... .. . ... ... : ... .. . ... ... : ... .. . ... ... : ... .. . ... ...
ROW 61 : ... .. 6 ... ... ... : ... .. 6 ... ... ... : ... .. . ... : ... .. . ... : ... .. . ... ... : --- .. . ... ... : --- .. . ... ... : ... .. 0 ... ...
ROW 62 : ... .. . ... ... ... : ... .. 0 ... ... ... : ... .. . ... : ... .. . ... : ... .. . ... ... : ... .. . ... ... : ... .. . ... ... : ... .. . ... ...
ROW 63 : ... .. . ... ... ... : ... .. . ... ... ... : ... .. . ... : ... .. . ... : ... .. . ... ... : ... .. . ... ... : ... .. . ... ... : ... .. . ... ...
ROW 64 : ... .. . ... ... ... : ... .. . ... ... ... : ... .. . ... : ... .. . ... : ... .. . ... ... : ... .. . ... ... : ... .. . ... ... : ... .. . ... ...
ROW 65 : ... .. . ... ... ... : ... .. . ... ... ... : ... .. . ... : ... .. . ... : ... .. . ... ... : ... .. . ... ... : ... .. . ... ... : ... .. . ... ...
ROW 66 : ... .. . ... ... ... : A-2 00 5 P81 ... ... : ... .. . ... : ... .. . ... : ... .. . ... ... : ... .. . ... ... : ... .. . ... ... : ... .. . ... ...
ROW 67 : ... .. . ... ... ... : ... .. 8 ... ... ... : ... .. . ... : ... .. . ... : ... .. . ... ... : ... .. . ... ... : ... .. . ... ... : ... .. . ... ...
ROW 68 : ... .. . ... ... ... : ... .. 5 ... ... ... : ... .. . ... : ... .. . ... : ... .. . ... ... : ... .. . ... ... : ... .. . ... ... : ... .. . ... ...
ROW 69 : ... .. . ... ... ... : ... .. 0 ... ... ... : ... .. . ... : ... .. . ... : ... .. . ... ... : ... .. . ... ... : ... .. . ... ... : ... .. . ... ...
ROW 6A : ... .. . ... ... ... : A-2 00 4 P81 ... ... : ... .. . ... : ... .. . ... : ... .. . ... ... : ... .. . ... ... : ... .. . ... ... : ... .. . ... ...
ROW 6B : ... .. 5 ... ... ... : ... .. 6 ... ... ... : ... .. . ... : ... .. . ... : ... .. . ... ... : ... .. . ... ... : ... .. . ... ... : ... .. . ... ...
ROW 6C : ... .. . ... ... ... : ... .. 0 ... ... ... : ... .. . ... : ... .. . ... : ... .. . ... ... : ... .. . ... ... : ... .. . ... ... : ... .. . ... ...
ROW 6D : ... .. . ... ... ... : ... .. . ... ... ... : ... .. . ... : ... .. . ... : ... .. . ... ... : ... .. . ... ... : ... .. . ... ... : ... .. . ... ...
ROW 6E : ... .. . ... ... ... : ... .. . ... ... ... : ... .. . ... : ... .. . ... : ... .. . ... ... : ... .. . ... ... : ... .. . ... ... : ... .. . ... ...
ROW 6F : ... .. . ... ... ... : ... .. . ... ... ... : ... .. . ... : ... .. . ... : ... .. . ... ... : ... .. . ... ... : ... .. . ... ... : ... .. . ... ...
ROW 70 : ... .. 8 ... ... ... : D#3 00 5 P81 ... ... : ... .. . ... : ... .. . ... : ... .. . ... ... : F#3 01 4 ... ... : C-4 01 4 ... ... : C-3 01 3 ... ...
ROW 71 : ... .. 7 ... ... ... : ... .. 8 ... ... ... : ... .. . ... : ... .. . ... : ... .. . ... ... : ... .. . ... ... : ... .. . ... ... : ... .. 4 ... ...
ROW 72 : ... .. 6 ... ... ... : ... .. 5 ... ... ... : ... .. . ... : ... .. . ... : ... .. . ... ... : ... .. . ... ... : ... .. . ... ... : ... .. . ... ...
ROW 73 : ... .. 5 ... ... ... : ... .. 0 ... ... ... : ... .. . ... : ... .. . ... : ... .. . ... ... : ... .. . ... ... : ... .. . ... ... : ... .. . ... ...
ROW 74 : ... .. . ... ... ... : D#3 00 4 P81 ... ... : ... .. . ... : ... .. . ... : ... .. . ... ... : ... .. 3 ... ... : ... .. 3 ... ... : ... .. . ... ...
ROW 75 : ... .. . ... ... ... : ... .. 6 ... ... ... : ... .. . ... : ... .. . ... : ... .. . ... ... : ... .. . ... ... : ... .. . ... ... : ... .. . ... ...
ROW 76 : ... .. . ... ... ... : ... .. 0 ... ... ... : ... .. . ... : ... .. . ... : ... .. . ... ... : ... .. . ... ... : ... .. . ... ... : ... .. . ... ...
ROW 77 : ... .. . ... ... ... : ... .. . ... ... ... : ... .. . ... : ... .. . ... : ... .. . ... ... : ... .. . ... ... : ... .. . ... ... : ... .. . ... ...
ROW 78 : ... .. . ... ... ... : ... .. . ... ... ... : ... .. . ... : ... .. . ... : ... .. . ... ... : ... .. . ... ... : ... .. . ... ... : ... .. . ... ...
ROW 79 : ... .. . ... ... ... : ... .. . ... ... ... : ... .. . ... : ... .. . ... : ... .. . ... ... : ... .. . ... ... : ... .. . ... ... : ... .. . ... ...
ROW 7A : ... .. . ... ... ... : G#2 00 5 P81 ... ... : ... .. . ... : ... .. . ... : ... .. . ... ... : ... .. 1 ... ... : ... .. 1 ... ... : ... .. 2 ... ...
ROW 7B : ... .. . ... ... ... : ... .. 8 ... ... ... : ... .. . ... : ... .. . ... : ... .. . ... ... : ... .. . ... ... : ... .. . ... ... : ... .. . ... ...
ROW 7C : ... .. . ... ... ... : ... .. 5 ... ... ... : ... .. . ... : ... .. . ... : ... .. . ... ... : ... .. . ... ... : ... .. . ... ... : ... .. . ... ...
ROW 7D : ... .. . ... ... ... : ... .. 0 ... ... ... : ... .. . ... : ... .. . ... : ... .. . ... ... : ... .. . ... ... : ... .. . ... ... : ... .. . ... ...
ROW 7E : ... .. . ... ... ... : G#2 00 4 P81 ... ... : ... .. . ... : ... .. . ... : ... .. . ... ... : ... .. . ... ... : ... .. . ... ... : ... .. . ... ...
ROW 7F : ... .. 6 ... ... ... : ... .. 6 ... ... ... : ... .. . ... : ... .. . ... : ... .. . ... ... : ... .. . ... ... : ... .. . ... ... : ... .. . ... ...
ROW 80 : ... .. . ... ... ... : ... .. 0 ... ... ... : ... .. . ... : ... .. . ... : ... .. . ... ... : ... .. . ... ... : ... .. . ... ... : ... .. . ... ...
ROW 81 : ... .. . ... ... ... : ... .. . ... ... ... : ... .. . ... : ... .. . ... : ... .. . ... ... : ... .. . ... ... : ... .. . ... ... : ... .. . ... ...
ROW 82 : ... .. . ... ... ... : ... .. . ... ... ... : ... .. . ... : ... .. . ... : ... .. . ... ... : ... .. . ... ... : ... .. . ... ... : ... .. . ... ...
ROW 83 : ... .. . ... ... ... : ... .. . ... ... ... : ... .. . ... : ... .. . ... : ... .. . ... ... : ... .. . ... ... : ... .. . ... ... : ... .. . ... ...
ROW 84 : ... .. . P82 ... ... : D#3 00 5 P81 ... ... : ... .. . ... : ... .. . ... : ... .. . ... ... : ... .. 2 ... ... : ... .. 2 ... ... : D#3 01 2 ... ...
ROW 85 : ... .. . P83 ... ... : ... .. 8 ... ... ... : ... .. . ... : ... .. . ... : ... .. . ... ... : ... .. . ... ... : ... .. . ... ... : ... .. 3 ... ...
ROW 86 : ... .. . ... ... ... : ... .. 5 ... ... ... : ... .. . ... : ... .. . ... : ... .. . ... ... : ... .. . ... ... : ... .. . ... ... : ... .. . ... ...
ROW 87 : ... .. . P81 ... ... : ... .. 0 ... ... ... : ... .. . ... : ... .. . ... : ... .. . ... ... : ... .. . ... ... : ... .. . ... ... : ... .. 2 ... ...
ROW 88 : ... .. . P7F ... ... : D#3 00 4 P81 ... ... : ... .. . ... : ... .. . ... : ... .. . ... ... : ... .. . ... ... : ... .. . ... ... : ... .. . ... ...
ROW 89 : ... .. . P7D ... ... : ... .. 6 ... ... ... : ... .. . ... : ... .. . ... : ... .. . ... ... : ... .. . ... ... : ... .. . ... ... : ... .. 3 ... ...
ROW 8A : ... .. . ... ... ... : ... .. 0 ... ... ... : ... .. . ... : ... .. . ... : ... .. . ... ... : ... .. . ... ... : ... .. . ... ... : ... .. . ... ...
ROW 8B : ... .. . P7E ... ... : ... .. . ... ... ... : ... .. . ... : ... .. . ... : ... .. . ... ... : ... .. . ... ... : ... .. . ... ... : ... .. . ... ...
ROW 8C : ... .. . P80 ... ... : ... .. . ... ... ... : ... .. . ... : ... .. . ... : ... .. . ... ... : ... .. . ... ... : ... .. . ... ... : ... .. . ... ...
ROW 8D : ... .. . P82 ... ... : ... .. . ... ... ... : ... .. . ... : ... .. . ... : ... .. . ... ... : ... .. . ... ... : ... .. . ... ... : ... .. . ... ...
ROW 8E : ... .. . P83 ... ... : G#2 00 5 P81 ... ... : ... .. . ... : ... .. . ... : ... .. . ... ... : ... .. . ... ... : ... .. . ... ... : ... .. . ... ...
ROW 8F : ... .. . ... ... ... : ... .. 8 ... ... ... : ... .. . ... : ... .. . ... : ... .. . ... ... : ... .. . ... ... : ... .. . ... ... : ... .. . ... ...
ROW 90 : ... .. . P81 ... ... : ... .. 5 ... ... ... : ... .. . ... : ... .. . ... : ... .. . ... ... : ... .. . ... ... : ... .. . ... ... : ... .. . ... ...
ROW 91 : ... .. . P80 ... ... : ... .. 0 ... ... ... : ... .. . ... : ... .. . ... : ... .. . ... ... : ... .. . ... ... : ... .. . ... ... : ... .. . ... ...
ROW 92 : ... .. . P7D ... ... : G#2 00 4 P81 ... ... : ... .. . ... : ... .. . ... : ... .. . ... ... : ... .. . ... ... : ... .. . ... ... : ... .. . ... ...
ROW 93 : ... .. 7 ... ... ... : ... .. 6 ... ... ... : ... .. . ... : ... .. . ... : ... .. . ... ... : ... .. . ... ... : ... .. . ... ... : ... .. . ... ...
ROW 94 : ... .. . P7E ... ... : ... .. 0 ... ... ... : ... .. . ... : ... .. . ... : ... .. . ... ... : ... .. . ... ... : ... .. . ... ... : ... .. . ... ...
ROW 95 : ... .. . P80 ... ... : ... .. . ... ... ... : ... .. . ... : ... .. . ... : ... .. . ... ... : ... .. . ... ... : ... .. . ... ... : ... .. . ... ...
ROW 96 : ... .. . P81 ... ... : ... .. . ... ... ... : ... .. . ... : ... .. . ... : ... .. . ... ... : ... .. . ... ... : ... .. . ... ... : ... .. . ... ...
ROW 97 : ... .. . P83 ... ... : ... .. . ... ... ... : ... .. . ... : ... .. . ... : ... .. . ... ... : ... .. . ... ... : ... .. . ... ... : ... .. . ... ...
ROW 98 : D#3 00 B P80 ... ... : D#3 00 5 P81 ... ... : G#2 00 . ... : ... .. . ... : ... .. . ... ... : ... .. 4 ... ... : ... .. 4 ... ... : F#3 01 3 ... ...
ROW 99 : ... .. A ... ... ... : ... .. 8 ... ... ... : ... .. . ... : ... .. . ... : ... .. . ... ... : ... .. 3 ... ... : ... .. 3 ... ... : ... .. 4 ... ...
ROW 9A : ... .. 9 ... ... ... : ... .. 5 ... ... ... : ... .. . ... : ... .. . ... : ... .. . ... ... : ... .. . ... ... : ... .. . ... ... : ... .. . ... ...
ROW 9B : ... .. 7 ... ... ... : ... .. 0 ... ... ... : ... .. . ... : ... .. . ... : ... .. . ... ... : ... .. . ... ... : ... .. . ... ... : ... .. 3 ... ...
ROW 9C : ... .. . ... ... ... : D#3 00 4 P81 ... ... : ... .. . ... : ... .. . ... : ... .. . ... ... : ... .. . ... ... : ... .. . ... ... : ... .. . ... ...
ROW 9D : ... .. 8 ... ... ... : ... .. 6 ... ... ... : ... .. . ... : ... .. . ... : ... .. . ... ... : ... .. 2 ... ... : ... .. 2 ... ... : ... .. . ... ...
ROW 9E : ... .. . ... ... ... : ... .. 0 ... ... ... : ... .. . ... : ... .. . ... : ... .. . ... ... : ... .. . ... ... : ... .. . ... ... : ... .. . ... ...
ROW 9F : ... .. . ... ... ... : ... .. . ... ... ... : ... .. . ... : ... .. . ... : ... .. . ... ... : ... .. . ... ... : ... .. . ... ... : ... .. . ... ...
ROW A0 : ... .. . ... ... ... : ... .. . ... ... ... : ... .. . ... : ... .. . ... : ... .. . ... ... : ... .. . ... ... : ... .. . ... ... : ... .. . ... ...
ROW A1 : ... .. . ... ... ... : ... .. . ... ... ... : ... .. . ... : ... .. . ... : ... .. . ... ... : ... .. . ... ... : ... .. . ... ... : ... .. . ... ...
ROW A2 : ... .. . ... ... ... : G#2 00 5 P81 ... ... : ... .. . ... : ... .. . ... : ... .. . ... ... : ... .. 1 ... ... : ... .. 1 ... ... : ... .. 2 ... ...
ROW A3 : ... .. . ... ... ... : ... .. 8 ... ... ... : ... .. . ... : ... .. . ... : ... .. . ... ... : ... .. . ... ... : ... .. . ... ... : ... .. . ... ...
ROW A4 : ... .. . ... ... ... : ... .. 5 ... ... ... : ... .. . ... : ... .. . ... : ... .. . ... ... : ... .. . ... ... : ... .. . ... ... : ... .. . ... ...
ROW A5 : ... .. . ... ... ... : ... .. 0 ... ... ... : ... .. . ... : ... .. . ... : ... .. . ... ... : ... .. . ... ... : ... .. . ... ... : ... .. . ... ...
ROW A6 : ... .. . ... ... ... : G#2 00 4 P81 ... ... : ... .. . ... : ... .. . ... : ... .. . ... ... : ... .. . ... ... : ... .. . ... ... : ... .. . ... ...
ROW A7 : ... .. . ... ... ... : ... .. 6 ... ... ... : ... .. . ... : ... .. . ... : ... .. . ... ... : ... .. . ... ... : ... .. . ... ... : ... .. 1 ... ...
ROW A8 : ... .. . ... ... ... : ... .. 0 ... ... ... : ... .. . ... : ... .. . ... : ... .. . ... ... : ... .. . ... ... : ... .. . ... ... : ... .. . ... ...
ROW A9 : ... .. . ... ... ... : ... .. . ... ... ... : ... .. . ... : ... .. . ... : ... .. . ... ... : ... .. . ... ... : ... .. . ... ... : ... .. . ... ...
ROW AA : ... .. . ... ... ... : ... .. . ... ... ... : ... .. . ... : ... .. . ... : ... .. . ... ... : ... .. . ... ... : ... .. . ... ... : ... .. . ... ...
ROW AB : ... .. . ... ... ... : ... .. . ... ... ... : ... .. . ... : ... .. . ... : ... .. . ... ... : ... .. . ... ... : ... .. . ... ... : ... .. . ... ...
ROW AC : ... .. . P83 ... ... : D#3 00 5 P81 ... ... : ... .. . ... : ... .. . ... : ... .. . ... ... : G#3 01 1 ... ... : D#4 01 1 ... ... : G#3 01 1 ... ...
ROW AD : ... .. . P84 ... ... : ... .. 8 ... ... ... : ... .. . ... : ... .. . ... : ... .. . ... ... : ... .. . ... ... : ... .. . ... ... : ... .. . ... ...
ROW AE : ... .. . ... ... ... : ... .. 5 ... ... ... : ... .. . ... : ... .. . ... : ... .. . ... ... : ... .. . ... ... : ... .. . ... ... : ... .. . ... ...
ROW AF : ... .. . P81 ... ... : ... .. 0 ... ... ... : ... .. . ... : ... .. . ... : ... .. . ... ... : ... .. . ... ... : ... .. . ... ... : ... .. . ... ...
ROW B0 : ... .. . P7F ... ... : D#3 00 4 P81 ... ... : ... .. . ... : ... .. . ... : ... .. . ... ... : ... .. . ... ... : ... .. . ... ... : ... .. . ... ...
ROW B1 : ... .. 9 P7C ... ... : ... .. 6 ... ... ... : ... .. . ... : ... .. . ... : ... .. . ... ... : --- .. . P83 ... : --- .. . ... ... : ... .. 0 ... ...
ROW B2 : ... .. . ... ... ... : ... .. 0 ... ... ... : ... .. . ... : ... .. . ... : ... .. . ... ... : ... .. . ... ... : ... .. . ... ... : ... .. . ... ...
ROW B3 : ... .. . P7D ... ... : ... .. . ... ... ... : ... .. . ... : ... .. . ... : ... .. . ... ... : ... .. . ... ... : ... .. . ... ... : ... .. . ... ...
ROW B4 : ... .. . P80 ... ... : ... .. . ... ... ... : ... .. . ... : ... .. . ... : ... .. . ... ... : ... .. . ... ... : ... .. . ... ... : ... .. . ... ...
ROW B5 : ... .. . P82 ... ... : ... .. . ... ... ... : ... .. . ... : ... .. . ... : ... .. . ... ... : ... .. . ... ... : ... .. . ... ... : ... .. . ... ...
ROW B6 : ... .. . P84 ... ... : G#2 00 5 P81 ... ... : ... .. . ... : ... .. . ... : ... .. . ... ... : ... .. . ... ... : ... .. . ... ... : ... .. . ... ...
ROW B7 : ... .. . ... ... ... : ... .. 8 ... ... ... : ... .. . ... : ... .. . ... : ... .. . ... ... : ... .. . ... ... : ... .. . ... ... : ... .. . ... ...
ROW B8 : ... .. . P81 ... ... : ... .. 5 ... ... ... : ... .. . ... : ... .. . ... : ... .. . ... ... : ... .. . ... ... : ... .. . ... ... : ... .. . ... ...
ROW B9 : ... .. . P80 ... ... : ... .. 0 ... ... ... : ... .. . ... : ... .. . ... : ... .. . ... ... : ... .. . ... ... : ... .. . ... ... : ... .. . ... ...
ROW BA : ... .. . P7D ... ... : G#2 00 4 P81 ... ... : ... .. . ... : ... .. . ... : ... .. . ... ... : ... .. . ... ... : ... .. . ... ... : ... .. . ... ...
ROW BB : ... .. A P7C ... ... : ... .. 6 ... ... ... : ... .. . ... : ... .. . ... : ... .. . ... ... : ... .. . ... ... : ... .. . ... ... : ... .. . ... ...
ROW BC : ... .. . P7D ... ... : ... .. 0 ... ... ... : ... .. . ... : ... .. . ... : ... .. . ... ... : ... .. . ... ... : ... .. . ... ... : ... .. . ... ...
ROW BD : ... .. . P80 ... ... : ... .. . ... ... ... : ... .. . ... : ... .. . ... : ... .. . ... ... : ... .. . ... ... : ... .. . ... ... : ... .. . ... ...
ROW BE : ... .. . P82 ... ... : ... .. . ... ... ... : ... .. . ... : ... .. . ... : ... .. . ... ... : ... .. . ... ... : ... .. . ... ... : ... .. . ... ...
ROW BF : ... .. . P84 ... ... : ... .. . ... ... ... : ... .. . ... : ... .. . ... : ... .. . ... ... : ... .. . ... ... : ... .. . ... ... : ... .. . ... ...
ROW C0 : ... .. F P80 ... ... : C#3 00 5 P81 ... ... : C#2 00 . ... : ... .. . ... : ... .. . ... ... : G#3 01 1 P81 ... : F-4 01 1 ... ... : ... .. 1 ... ...
ROW C1 : ... .. E ... ... ... : ... .. 8 ... ... ... : ... .. . ... : ... .. . ... : ... .. . ... ... : ... .. . ... ... : ... .. . ... ... : ... .. . ... ...
ROW C2 : ... .. D ... ... ... : ... .. 5 ... ... ... : ... .. . ... : ... .. . ... : ... .. . ... ... : ... .. . ... ... : ... .. . ... ... : ... .. . ... ...
ROW C3 : ... .. A ... ... ... : ... .. 0 ... ... ... : ... .. . ... : ... .. . ... : ... .. . ... ... : ... .. . ... ... : ... .. . ... ... : ... .. . ... ...
ROW C4 : ... .. . ... ... ... : C#3 00 4 P81 ... ... : ... .. . ... : ... .. . ... : ... .. . ... ... : ... .. . ... ... : ... .. . ... ... : ... .. . ... ...
ROW C5 : ... .. 8 ... ... ... : ... .. 6 ... ... ... : ... .. . ... : ... .. . ... : ... .. . ... ... : ... .. . ... ... : ... .. . ... ... : ... .. . ... ...
ROW C6 : ... .. . ... ... ... : ... .. 0 ... ... ... : ... .. . ... : ... .. . ... : ... .. . ... ... : ... .. . ... ... : ... .. . ... ... : ... .. . ... ...
ROW C7 : ... .. . ... ... ... : ... .. . ... ... ... : ... .. . ... : ... .. . ... : ... .. . ... ... : ... .. . ... ... : ... .. . ... ... : ... .. . ... ...
ROW C8 : ... .. . ... ... ... : ... .. . ... ... ... : ... .. . ... : ... .. . ... : ... .. . ... ... : ... .. . ... ... : ... .. . ... ... : ... .. . ... ...
ROW C9 : ... .. . ... ... ... : ... .. . ... ... ... : ... .. . ... : ... .. . ... : ... .. . ... ... : ... .. . ... ... : ... .. . ... ... : ... .. . ... ...
ROW CA : ... .. . ... ... ... : G#2 00 5 P81 ... ... : ... .. . ... : ... .. . ... : ... .. . ... ... : ... .. . ... ... : ... .. . ... ... : ... .. . ... ...
ROW CB : ... .. . ... ... ... : ... .. 8 ... ... ... : ... .. . ... : ... .. . ... : ... .. . ... ... : ... .. . ... ... : ... .. . ... ... : ... .. . ... ...
ROW CC : ... .. . ... ... ... : ... .. 5 ... ... ... : ... .. . ... : ... .. . ... : ... .. . ... ... : ... .. . ... ... : ... .. . ... ... : ... .. . ... ...
ROW CD : ... .. . ... ... ... : ... .. 0 ... ... ... : ... .. . ... : ... .. . ... : ... .. . ... ... : ... .. . ... ... : ... .. . ... ... : ... .. . ... ...
ROW CE : ... .. . ... ... ... : G#2 00 4 P81 ... ... : ... .. . ... : ... .. . ... : ... .. . ... ... : ... .. . ... ... : ... .. . ... ... : ... .. . ... ...
ROW CF : ... .. 7 ... ... ... : ... .. 6 ... ... ... : ... .. . ... : ... .. . ... : ... .. . ... ... : ... .. . ... ... : ... .. . ... ... : ... .. . ... ...
ROW D0 : ... .. . ... ... ... : ... .. 0 ... ... ... : ... .. . ... : ... .. . ... : ... .. . ... ... : ... .. . ... ... : ... .. . ... ... : ... .. . ... ...
ROW D1 : ... .. . ... ... ... : ... .. . ... ... ... : ... .. . ... : ... .. . ... : ... .. . ... ... : ... .. . ... ... : ... .. . ... ... : ... .. . ... ...
ROW D2 : ... .. . ... ... ... : ... .. . ... ... ... : ... .. . ... : ... .. . ... : ... .. . ... ... : ... .. . ... ... : ... .. . ... ... : ... .. . ... ...
ROW D3 : ... .. . ... ... ... : ... .. . ... ... ... : ... .. . ... : ... .. . ... : ... .. . ... ... : ... .. . ... ... : ... .. . ... ... : ... .. . ... ...
ROW D4 : ... .. 6 ... ... ... : C#3 00 5 P81 ... ... : ... .. . ... : ... .. . ... : ... .. . ... ... : ... .. 4 ... ... : ... .. 4 ... ... : ... .. 5 ... ...
ROW D5 : ... .. 1 ... ... ... : ... .. 8 ... ... ... : ... .. . ... : ... .. . ... : ... .. . ... ... : ... .. . ... ... : ... .. . ... ... : ... .. . ... ...
ROW D6 : ... .. . ... ... ... : ... .. 5 ... ... ... : ... .. . ... : ... .. . ... : ... .. . ... ... : ... .. . ... ... : ... .. . ... ... : ... .. . ... ...
ROW D7 : ... .. . ... ... ... : ... .. 0 ... ... ... : ... .. . ... : ... .. . ... : ... .. . ... ... : ... .. . ... ... : ... .. . ... ... : ... .. . ... ...
ROW D8 : ... .. . ... ... ... : C#3 00 4 P81 ... ... : ... .. . ... : ... .. . ... : ... .. . ... ... : ... .. . ... ... : ... .. . ... ... : ... .. . ... ...
ROW D9 : ... .. . ... ... ... : ... .. 6 ... ... ... : ... .. . ... : ... .. . ... : ... .. . ... ... : ... .. 1 ... ... : ... .. 1 ... ... : ... .. 2 ... ...
ROW DA : ... .. . ... ... ... : ... .. 0 ... ... ... : ... .. . ... : ... .. . ... : ... .. . ... ... : ... .. . ... ... : ... .. . ... ... : ... .. . ... ...
ROW DB : ... .. 0 ... ... ... : ... .. . ... ... ... : ... .. . ... : ... .. . ... : ... .. . ... ... : ... .. . ... ... : ... .. . ... ... : ... .. . ... ...
ROW DC : ... .. . ... ... ... : ... .. . ... ... ... : ... .. . ... : ... .. . ... : ... .. . ... ... : ... .. . ... ... : ... .. . ... ... : ... .. . ... ...
ROW DD : ... .. . ... ... ... : ... .. . ... ... ... : ... .. . ... : ... .. . ... : ... .. . ... ... : ... .. . ... ... : ... .. . ... ... : ... .. . ... ...
ROW DE : F-3 00 A P80 ... ... : G#2 00 5 P81 ... ... : ... .. . ... : ... .. . ... : ... .. . ... ... : ... .. 4 ... ... : ... .. 4 ... ... : ... .. 5 ... ...
ROW DF : ... .. 9 ... ... ... : ... .. 8 ... ... ... : ... .. . ... : ... .. . ... : ... .. . ... ... : ... .. . ... ... : ... .. . ... ... : ... .. . ... ...
ROW E0 : ... .. 8 ... ... ... : ... .. 5 ... ... ... : ... .. . ... : ... .. . ... : ... .. . ... ... : ... .. . ... ... : ... .. . ... ... : ... .. . ... ...
ROW E1 : ... .. 6 ... ... ... : ... .. 0 ... ... ... : ... .. . ... : ... .. . ... : ... .. . ... ... : ... .. . ... ... : ... .. . ... ... : ... .. . ... ...
ROW E2 : ... .. . ... ... ... : G#2 00 4 P81 ... ... : ... .. . ... : ... .. . ... : ... .. . ... ... : ... .. . ... ... : ... .. . ... ... : ... .. . ... ...
ROW E3 : ... .. . ... ... ... : ... .. 6 ... ... ... : ... .. . ... : ... .. . ... : ... .. . ... ... : ... .. 1 ... ... : ... .. 1 ... ... : ... .. 2 ... ...
ROW E4 : ... .. 1 ... ... ... : ... .. 0 ... ... ... : ... .. . ... : ... .. . ... : ... .. . ... ... : ... .. . ... ... : ... .. . ... ... : ... .. . ... ...
ROW E5 : ... .. . ... ... ... : ... .. . ... ... ... : ... .. . ... : ... .. . ... : ... .. . ... ... : ... .. . ... ... : ... .. . ... ... : ... .. . ... ...
ROW E6 : ... .. . ... ... ... : ... .. . ... ... ... : ... .. . ... : ... .. . ... : ... .. . ... ... : ... .. . ... ... : ... .. . ... ... : ... .. . ... ...
ROW E7 : ... .. . ... ... ... : ... .. . ... ... ... : ... .. . ... : ... .. . ... : ... .. . ... ... : ... .. . ... ... : ... .. . ... ... : ... .. . ... ...
ROW E8 : ... .. 8 ... ... ... : C#3 00 5 P81 ... ... : ... .. . ... : ... .. . ... : ... .. . ... ... : ... .. 2 ... ... : ... .. 2 ... ... : C#4 01 1 ... ...
ROW E9 : ... .. 7 ... ... ... : ... .. 8 ... ... ... : ... .. . ... : ... .. . ... : ... .. . ... ... : ... .. . ... ... : ... .. . ... ... : ... .. 2 ... ...
ROW EA : ... .. 6 ... ... ... : ... .. 5 ... ... ... : ... .. . ... : ... .. . ... : ... .. . ... ... : ... .. . ... ... : ... .. . ... ... : ... .. . ... ...
ROW EB : ... .. 5 ... ... ... : ... .. 0 ... ... ... : ... .. . ... : ... .. . ... : ... .. . ... ... : ... .. . ... ... : ... .. . ... ... : ... .. . ... ...
ROW EC : ... .. . ... ... ... : C#3 00 4 P81 ... ... : ... .. . ... : ... .. . ... : ... .. . ... ... : ... .. 1 ... ... : ... .. 1 ... ... : ... .. . ... ...
ROW ED : ... .. . ... ... ... : ... .. 6 ... ... ... : ... .. . ... : ... .. . ... : ... .. . ... ... : ... .. . ... ... : ... .. . ... ... : ... .. 1 ... ...
ROW EE : ... .. . ... ... ... : ... .. 0 ... ... ... : ... .. . ... : ... .. . ... : ... .. . ... ... : ... .. . ... ... : ... .. . ... ... : ... .. . ... ...
ROW EF : ... .. . ... ... ... : ... .. . ... ... ... : ... .. . ... : ... .. . ... : ... .. . ... ... : ... .. . ... ... : ... .. . ... ... : ... .. . ... ...
ROW F0 : ... .. . ... ... ... : ... .. . ... ... ... : ... .. . ... : ... .. . ... : ... .. . ... ... : ... .. . ... ... : ... .. . ... ... : ... .. . ... ...
ROW F1 : ... .. . ... ... ... : ... .. . ... ... ... : ... .. . ... : ... .. . ... : ... .. . ... ... : ... .. . ... ... : ... .. . ... ... : ... .. . ... ...
ROW F2 : ... .. 6 ... ... ... : G#2 00 5 P81 ... ... : ... .. . ... : ... .. . ... : ... .. . ... ... : ... .. . ... ... : ... .. . ... ... : ... .. . ... ...
ROW F3 : ... .. . ... ... ... : ... .. 8 ... ... ... : ... .. . ... : ... .. . ... : ... .. . ... ... : ... .. . ... ... : ... .. . ... ... : ... .. . ... ...
ROW F4 : ... .. . ... ... ... : ... .. 5 ... ... ... : ... .. . ... : ... .. . ... : ... .. . ... ... : ... .. . ... ... : ... .. . ... ... : ... .. . ... ...
ROW F5 : ... .. . ... ... ... : ... .. 0 ... ... ... : ... .. . ... : ... .. . ... : ... .. . ... ... : ... .. . ... ... : ... .. . ... ... : ... .. . ... ...
ROW F6 : ... .. . ... ... ... : G#2 00 4 P81 ... ... : ... .. . ... : ... .. . ... : ... .. . ... ... : ... .. . ... ... : ... .. . ... ... : ... .. . ... ...
ROW F7 : ... .. . ... ... ... : ... .. 6 ... ... ... : ... .. . ... : ... .. . ... : ... .. . ... ... : ... .. . ... ... : ... .. . ... ... : ... .. . ... ...
ROW F8 : ... .. . ... ... ... : ... .. 0 ... ... ... : ... .. . ... : ... .. . ... : ... .. . ... ... : ... .. . ... ... : ... .. . ... ... : ... .. . ... ...
ROW F9 : ... .. . ... ... ... : ... .. . ... ... ... : ... .. . ... : ... .. . ... : ... .. . ... ... : ... .. . ... ... : ... .. . ... ... : ... .. . ... ...
ROW FA : ... .. . ... ... ... : ... .. . ... ... ... : ... .. . ... : ... .. . ... : ... .. . ... ... : ... .. . ... ... : ... .. . ... ... : ... .. . ... ...
ROW FB : ... .. . ... ... ... : ... .. . ... ... ... : ... .. . ... : ... .. . ... : ... .. . ... ... : ... .. . ... ... : ... .. . ... ... : ... .. . ... ...
ROW FC : ... .. 7 P82 ... ... : C#3 00 5 P81 ... ... : G#2 00 . ... : ... .. . ... : ... .. . ... ... : F-3 01 6 ... ... : D#4 01 6 ... ... : ... .. 5 ... ...
ROW FD : ... .. . P83 ... ... : ... .. 8 ... ... ... : ... .. . ... : ... .. . ... : ... .. . ... ... : ... .. 5 ... ... : ... .. 5 ... ... : ... .. . ... ...
ROW FE : ... .. . ... ... ... : ... .. 5 ... ... ... : ... .. . ... : ... .. . ... : ... .. . ... ... : ... .. . ... ... : ... .. . ... ... : ... .. . ... ...
ROW FF : ... .. . P82 ... ... : ... .. 0 ... ... ... : ... .. . ... : ... .. . ... : ... .. . ... ... : ... .. . ... ... : ... .. . ... ... : ... .. . ... ...

PATTERN 18
ROW 00 : ... .. . P80 ... ... : C#3 00 4 P81 ... ... : ... .. . ... : ... .. . ... : ... .. . ... ... : ... .. 4 ... ... : ... .. 4 ... ... : ... .. . ... ...
ROW 01 : ... .. 8 P7F ... ... : ... .. 6 ... ... ... : ... .. . ... : ... .. . ... : ... .. . ... ... : ... .. 1 ... ... : ... .. 1 ... ... : ... .. 2 ... ...
ROW 02 : ... .. . P7D ... ... : ... .. 0 ... ... ... : ... .. . ... : ... .. . ... : ... .. . ... ... : ... .. . ... ... : ... .. . ... ... : ... .. . ... ...
ROW 03 : ... .. . ... ... ... : ... .. . ... ... ... : ... .. . ... : ... .. . ... : ... .. . ... ... : ... .. . ... ... : ... .. . ... ... : ... .. . ... ...
ROW 04 : ... .. . ... ... ... : ... .. . ... ... ... : ... .. . ... : ... .. . ... : ... .. . ... ... : ... .. . ... ... : ... .. . ... ... : ... .. . ... ...
ROW 05 : ... .. . P7F ... ... : ... .. . ... ... ... : ... .. . ... : ... .. . ... : ... .. . ... ... : ... .. . ... ... : ... .. . ... ... : ... .. . ... ...
ROW 06 : ... .. . P80 ... ... : G#2 00 5 P81 ... ... : ... .. . ... : ... .. . ... : ... .. . ... ... : G#3 01 6 ... ... : F-4 01 6 ... ... : ... .. 5 ... ...
ROW 07 : ... .. . P82 ... ... : ... .. 8 ... ... ... : ... .. . ... : ... .. . ... : ... .. . ... ... : ... .. 5 ... ... : ... .. 5 ... ... : ... .. . ... ...
ROW 08 : ... .. . P83 ... ... : ... .. 5 ... ... ... : ... .. . ... : ... .. . ... : ... .. . ... ... : ... .. . ... ... : ... .. . ... ... : ... .. . ... ...
ROW 09 : ... .. . ... ... ... : ... .. 0 ... ... ... : ... .. . ... : ... .. . ... : ... .. . ... ... : ... .. . ... ... : ... .. . ... ... : ... .. . ... ...
ROW 0A : ... .. . P81 ... ... : G#2 00 4 P81 ... ... : ... .. . ... : ... .. . ... : ... .. . ... ... : ... .. 4 ... ... : ... .. 4 ... ... : ... .. . ... ...
ROW 0B : ... .. 9 P80 ... ... : ... .. 6 ... ... ... : ... .. . ... : ... .. . ... : ... .. . ... ... : ... .. 1 ... ... : ... .. 1 ... ... : ... .. 2 ... ...
ROW 0C : ... .. . P7E ... ... : ... .. 0 ... ... ... : ... .. . ... : ... .. . ... : ... .. . ... ... : ... .. . ... ... : ... .. . ... ... : ... .. . ... ...
ROW 0D : ... .. . P7D ... ... : ... .. . ... ... ... : ... .. . ... : ... .. . ... : ... .. . ... ... : ... .. . ... ... : ... .. . ... ... : ... .. . ... ...
ROW 0E : ... .. . ... ... ... : ... .. . ... ... ... : ... .. . ... : ... .. . ... : ... .. . ... ... : ... .. . ... ... : ... .. . ... ... : ... .. . ... ...
ROW 0F : ... .. . P7E ... ... : ... .. . ... ... ... : ... .. . ... : ... .. . ... : ... .. . ... ... : ... .. . ... ... : ... .. . ... ... : ... .. . ... ...
ROW 10 : ... .. A P80 ... ... : B-2 00 5 P81 ... ... : C#3 00 . ... : ... .. . ... : ... .. . ... ... : A-3 01 1 ... ... : F#4 01 1 ... ... : B-3 01 1 ... ...
ROW 11 : ... .. 2 P81 ... ... : ... .. 8 ... ... ... : ... .. . ... : ... .. . ... : ... .. . ... ... : ... .. . ... ... : ... .. . ... ... : ... .. . ... ...
ROW 12 : ... .. . P83 ... ... : ... .. 5 ... ... ... : ... .. . ... : ... .. . ... : ... .. . ... ... : ... .. . ... ... : ... .. . ... ... : ... .. . ... ...
ROW 13 : ... .. . ... ... ... : ... .. 0 ... ... ... : ... .. . ... : ... .. . ... : ... .. . ... ... : ... .. . ... ... : ... .. . ... ... : ... .. . ... ...
ROW 14 : ... .. 1 ... ... ... : B-2 00 4 P81 ... ... : ... .. . ... : ... .. . ... : ... .. . ... ... : ... .. . ... ... : ... .. . ... ... : ... .. . ... ...
ROW 15 : ... .. . P81 ... ... : ... .. 6 ... ... ... : ... .. . ... : ... .. . ... : ... .. . ... ... : ... .. . ... ... : ... .. . ... ... : ... .. . ... ...
ROW 16 : ... .. . P80 ... ... : ... .. 0 ... ... ... : ... .. . ... : ... .. . ... : ... .. . ... ... : ... .. . ... ... : ... .. . ... ... : ... .. . ... ...
ROW 17 : ... .. 0 ... ... ... : ... .. . ... ... ... : ... .. . ... : ... .. . ... : ... .. . ... ... : ... .. . ... ... : ... .. . ... ... : ... .. . ... ...
ROW 18 : ... .. . ... ... ... : ... .. . ... ... ... : ... .. . ... : ... .. . ... : ... .. . ... ... : ... .. . ... ... : ... .. . ... ... : ... .. . ... ...
ROW 19 : ... .. . ... ... ... : ... .. . ... ... ... : ... .. . ... : ... .. . ... : ... .. . ... ... : ... .. . ... ... : ... .. . ... ... : ... .. . ... ...
ROW 1A : ... .. . ... ... ... : F#2 00 5 P81 ... ... : ... .. . ... : ... .. . ... : ... .. . ... ... : ... .. . ... ... : ... .. . ... ... : ... .. . ... ...
ROW 1B : ... .. . ... ... ... : ... .. 8 ... ... ... : ... .. . ... : ... .. . ... : ... .. . ... ... : ... .. . ... ... : ... .. . ... ... : ... .. . ... ...
ROW 1C : ... .. . ... ... ... : ... .. 5 ... ... ... : ... .. . ... : ... .. . ... : ... .. . ... ... : ... .. . ... ... : ... .. . ... ... : ... .. . ... ...
ROW 1D : ... .. . ... ... ... : ... .. 0 ... ... ... : ... .. . ... : ... .. . ... : ... .. . ... ... : ... .. . ... ... : ... .. . ... ... : ... .. . ... ...
ROW 1E : ... .. . ... ... ... : F#2 00 4 P81 ... ... : ... .. . ... : ... .. . ... : ... .. . ... ... : ... .. . ... ... : ... .. . ... ... : ... .. . ... ...
ROW 1F : ... .. . ... ... ... : ... .. 6 ... ... ... : ... .. . ... : ... .. . ... : ... .. . ... ... : ... .. . ... ... : ... .. . ... ... : ... .. . ... ...
ROW 20 : ... .. . ... ... ... : ... .. 0 ... ... ... : ... .. . ... : ... .. . ... : ... .. . ... ... : ... .. . ... ... : ... .. . ... ... : ... .. . ... ...
ROW 21 : ... .. . ... ... ... : ... .. . ... ... ... : ... .. . ... : ... .. . ... : ... .. . ... ... : ... .. . ... ... : ... .. . ... ... : ... .. . ... ...
ROW 22 : ... .. . ... ... ... : ... .. . ... ... ... : ... .. . ... : ... .. . ... : ... .. . ... ... : ... .. . ... ... : ... .. . ... ... : ... .. . ... ...
ROW 23 : ... .. . ... ... ... : ... .. . ... ... ... : ... .. . ... : ... .. . ... : ... .. . ... ... : ... .. . ... ... : ... .. . ... ... : ... .. . ... ...
ROW 24 : D#3 00 A P80 ... ... : B-2 00 5 P81 ... ... : ... .. . ... : ... .. . ... : ... .. . ... ... : ... .. 4 ... ... : ... .. 4 ... ... : C#4 01 4 ... ...
ROW 25 : ... .. 9 ... ... ... : ... .. 8 ... ... ... : ... .. . ... : ... .. . ... : ... .. . ... ... : ... .. . ... ... : ... .. . ... ... : ... .. 6 ... ...
ROW 26 : ... .. 8 ... ... ... : ... .. 5 ... ... ... : ... .. . ... : ... .. . ... : ... .. . ... ... : ... .. . ... ... : ... .. . ... ... : ... .. . ... ...
ROW 27 : ... .. 6 ... ... ... : ... .. 0 ... ... ... : ... .. . ... : ... .. . ... : ... .. . ... ... : ... .. . ... ... : ... .. . ... ... : ... .. 5 ... ...
ROW 28 : ... .. . ... ... ... : B-2 00 4 P81 ... ... : ... .. . ... : ... .. . ... : ... .. . ... ... : ... .. . ... ... : ... .. . ... ... : ... .. . ... ...
ROW 29 : ... .. 7 ... ... ... : ... .. 6 ... ... ... : ... .. . ... : ... .. . ... : ... .. . ... ... : ... .. 1 ... ... : ... .. 1 ... ... : ... .. 2 ... ...
ROW 2A : ... .. . ... ... ... : ... .. 0 ... ... ... : ... .. . ... : ... .. . ... : ... .. . ... ... : ... .. . ... ... : ... .. . ... ... : ... .. . ... ...
ROW 2B : ... .. . ... ... ... : ... .. . ... ... ... : ... .. . ... : ... .. . ... : ... .. . ... ... : ... .. . ... ... : ... .. . ... ... : ... .. . ... ...
ROW 2C : ... .. . ... ... ... : ... .. . ... ... ... : ... .. . ... : ... .. . ... : ... .. . ... ... : ... .. . ... ... : ... .. . ... ... : ... .. . ... ...
ROW 2D : ... .. . ... ... ... : ... .. . ... ... ... : ... .. . ... : ... .. . ... : ... .. . ... ... : ... .. . ... ... : ... .. . ... ... : ... .. . ... ...
ROW 2E : ... .. 8 ... ... ... : F#2 00 5 P81 ... ... : ... .. . ... : ... .. . ... : ... .. . ... ... : ... .. 4 ... ... : ... .. 4 ... ... : ... .. 5 ... ...
ROW 2F : ... .. . ... ... ... : ... .. 8 ... ... ... : ... .. . ... : ... .. . ... : ... .. . ... ... : ... .. . ... ... : ... .. . ... ... : ... .. . ... ...
ROW 30 : ... .. . ... ... ... : ... .. 5 ... ... ... : ... .. . ... : ... .. . ... : ... .. . ... ... : ... .. . ... ... : ... .. . ... ... : ... .. . ... ...
ROW 31 : ... .. . ... ... ... : ... .. 0 ... ... ... : ... .. . ... : ... .. . ... : ... .. . ... ... : ... .. . ... ... : ... .. . ... ... : ... .. . ... ...
ROW 32 : ... .. . ... ... ... : F#2 00 4 P81 ... ... : ... .. . ... : ... .. . ... : ... .. . ... ... : ... .. . ... ... : ... .. . ... ... : ... .. . ... ...
ROW 33 : ... .. . ... ... ... : ... .. 6 ... ... ... : ... .. . ... : ... .. . ... : ... .. . ... ... : ... .. 1 ... ... : ... .. 1 ... ... : ... .. 2 ... ...
ROW 34 : ... .. . ... ... ... : ... .. 0 ... ... ... : ... .. . ... : ... .. . ... : ... .. . ... ... : ... .. . ... ... : ... .. . ... ... : ... .. . ... ...
ROW 35 : ... .. . ... ... ... : ... .. . ... ... ... : ... .. . ... : ... .. . ... : ... .. . ... ... : ... .. . ... ... : ... .. . ... ... : ... .. . ... ...
ROW 36 : ... .. . ... ... ... : ... .. . ... ... ... : ... .. . ... : ... .. . ... : ... .. . ... ... : ... .. . ... ... : ... .. . ... ... : ... .. . ... ...
ROW 37 : ... .. . ... ... ... : ... .. . ... ... ... : ... .. . ... : ... .. . ... : ... .. . ... ... : ... .. . ... ... : ... .. . ... ... : ... .. . ... ...
ROW 38 : ... .. A ... ... ... : B-2 00 5 P81 ... ... : ... .. . ... : ... .. . ... : ... .. . ... ... : ... .. 2 ... ... : ... .. 2 ... ... : D#4 01 1 ... ...
ROW 39 : E-3 00 A P84 ... ... : ... .. 8 ... ... ... : ... .. . ... : ... .. . ... : ... .. . ... ... : ... .. . ... ... : ... .. . ... ... : ... .. 2 ... ...
ROW 3A : F#3 00 A P78 ... ... : ... .. 5 ... ... ... : ... .. . ... : ... .. . ... : ... .. . ... ... : ... .. . ... ... : ... .. . ... ... : ... .. . ... ...
ROW 3B : G-3 00 A P80 ... ... : ... .. 0 ... ... ... : ... .. . ... : ... .. . ... : ... .. . ... ... : ... .. . ... ... : ... .. . ... ... : ... .. . ... ...
ROW 3C : G#3 00 A ... ... ... : B-2 00 4 P81 ... ... : ... .. . ... : ... .. . ... : ... .. . ... ... : ... .. 1 ... ... : ... .. 1 ... ... : ... .. . ... ...
ROW 3D : ... .. 9 ... ... ... : ... .. 6 ... ... ... : ... .. . ... : ... .. . ... : ... .. . ... ... : ... .. . ... ... : ... .. . ... ... : ... .. 1 ... ...
ROW 3E : ... .. . ... ... ... : ... .. 0 ... ... ... : ... .. . ... : ... .. . ... : ... .. . ... ... : ... .. . ... ... : ... .. . ... ... : ... .. . ... ...
ROW 3F : ... .. . ... ... ... : ... .. . ... ... ... : ... .. . ... : ... .. . ... : ... .. . ... ... : ... .. . ... ... : ... .. . ... ... : ... .. . ... ...
ROW 40 : ... .. . ... ... ... : ... .. . ... ... ... : ... .. . ... : ... .. . ... : ... .. . ... ... : ... .. . ... ... : ... .. . ... ... : ... .. . ... ...
ROW 41 : ... .. . ... ... ... : ... .. . ... ... ... : ... .. . ... : ... .. . ... : ... .. . ... ... : ... .. . ... ... : ... .. . ... ... : ... .. . ... ...
ROW 42 : ... .. 8 ... ... ... : F#2 00 5 P81 ... ... : ... .. . ... : ... .. . ... : ... .. . ... ... : ... .. . ... ... : ... .. . ... ... : ... .. . ... ...
ROW 43 : ... .. . ... ... ... : ... .. 8 ... ... ... : ... .. . ... : ... .. . ... : ... .. . ... ... : ... .. . ... ... : ... .. . ... ... : ... .. . ... ...
ROW 44 : ... .. . ... ... ... : ... .. 5 ... ... ... : ... .. . ... : ... .. . ... : ... .. . ... ... : ... .. . ... ... : ... .. . ... ... : ... .. . ... ...
ROW 45 : ... .. . ... ... ... : ... .. 0 ... ... ... : ... .. . ... : ... .. . ... : ... .. . ... ... : ... .. . ... ... : ... .. . ... ... : ... .. . ... ...
ROW 46 : ... .. . ... ... ... : F#2 00 4 P81 ... ... : ... .. . ... : ... .. . ... : ... .. . ... ... : ... .. . ... ... : ... .. . ... ... : ... .. . ... ...
ROW 47 : ... .. . ... ... ... : ... .. 6 ... ... ... : ... .. . ... : ... .. . ... : ... .. . ... ... : ... .. . ... ... : ... .. . ... ... : ... .. . ... ...
ROW 48 : ... .. . ... ... ... : ... .. 0 ... ... ... : ... .. . ... : ... .. . ... : ... .. . ... ... : ... .. . ... ... : ... .. . ... ... : ... .. . ... ...
ROW 49 : ... .. . ... ... ... : ... .. . ... ... ... : ... .. . ... : ... .. . ... : ... .. . ... ... : ... .. . ... ... : ... .. . ... ... : ... .. . ... ...
ROW 4A : ... .. . ... ... ... : ... .. . ... ... ... : ... .. . ... : ... .. . ... : ... .. . ... ... : ... .. . ... ... : ... .. . ... ... : ... .. . ... ...
ROW 4B : ... .. . ... ... ... : ... .. . ... ... ... : ... .. . ... : ... .. . ... : ... .. . ... ... : ... .. . ... ... : ... .. . ... ... : ... .. . ... ...
ROW 4C : F#3 00 B ... ... ... : B-2 00 5 P81 ... ... : ... .. . ... : ... .. . ... : ... .. . ... ... : D#3 01 6 ... ... : G#3 01 6 ... ... : B-3 01 4 ... ...
ROW 4D : ... .. A ... ... ... : ... .. 8 ... ... ... : ... .. . ... : ... .. . ... : ... .. . ... ... : ... .. 5 ... ... : ... .. 5 ... ... : ... .. 6 ... ...
ROW 4E : ... .. 9 ... ... ... : ... .. 5 ... ... ... : ... .. . ... : ... .. . ... : ... .. . ... ... : ... .. . ... ... : ... .. . ... ... : ... .. . ... ...
ROW 4F : ... .. 7 ... ... ... : ... .. 0 ... ... ... : ... .. . ... : ... .. . ... : ... .. . ... ... : ... .. . ... ... : ... .. . ... ... : ... .. 5 ... ...
ROW 50 : ... .. . ... ... ... : B-2 00 4 P81 ... ... : ... .. . ... : ... .. . ... : ... .. . ... ... : ... .. 4 ... ... : ... .. 4 ... ... : ... .. . ... ...
ROW 51 : ... .. 6 ... ... ... : ... .. 6 ... ... ... : ... .. . ... : ... .. . ... : ... .. . ... ... : ... .. 1 ... ... : ... .. 1 ... ... : ... .. 2 ... ...
ROW 52 : ... .. . ... ... ... : ... .. 0 ... ... ... : ... .. . ... : ... .. . ... : ... .. . ... ... : ... .. . ... ... : ... .. . ... ... : ... .. . ... ...
ROW 53 : ... .. . ... ... ... : ... .. . ... ... ... : ... .. . ... : ... .. . ... : ... .. . ... ... : ... .. . ... ... : ... .. . ... ... : ... .. . ... ...
ROW 54 : ... .. . ... ... ... : ... .. . ... ... ... : ... .. . ... : ... .. . ... : ... .. . ... ... : ... .. . ... ... : ... .. . ... ... : ... .. . ... ...
ROW 55 : ... .. . ... ... ... : ... .. . ... ... ... : ... .. . ... : ... .. . ... : ... .. . ... ... : ... .. . ... ... : ... .. . ... ... : ... .. . ... ...
ROW 56 : ... .. . ... ... ... : D#3 00 5 P81 ... ... : D#3 00 . ... : ... .. . ... : ... .. . ... ... : ... .. 4 ... ... : ... .. 4 ... ... : ... .. 5 ... ...
ROW 57 : ... .. . ... ... ... : ... .. 8 ... ... ... : ... .. . ... : ... .. . ... : ... .. . ... ... : ... .. 3 ... ... : ... .. 3 ... ... : ... .. . ... ...
ROW 58 : ... .. . ... ... ... : ... .. 5 ... ... ... : ... .. . ... : ... .. . ... : ... .. . ... ... : ... .. . ... ... : ... .. . ... ... : ... .. . ... ...
ROW 59 : ... .. . ... ... ... : ... .. 0 ... ... ... : ... .. . ... : ... .. . ... : ... .. . ... ... : ... .. 2 ... ... : ... .. 2 ... ... : ... .. . ... ...
ROW 5A : ... .. . ... ... ... : D#3 00 4 P81 ... ... : ... .. . ... : ... .. . ... : ... .. . ... ... : ... .. . ... ... : ... .. . ... ... : ... .. . ... ...
ROW 5B : ... .. 5 ... ... ... : ... .. 6 ... ... ... : ... .. . ... : ... .. . ... : ... .. . ... ... : ... .. 1 ... ... : ... .. 1 ... ... : ... .. 2 ... ...
ROW 5C : ... .. . ... ... ... : ... .. 0 ... ... ... : ... .. . ... : ... .. . ... : ... .. . ... ... : ... .. . ... ... : ... .. . ... ... : ... .. . ... ...
ROW 5D : ... .. . ... ... ... : ... .. . ... ... ... : ... .. . ... : ... .. . ... : ... .. . ... ... : ... .. . ... ... : ... .. . ... ... : ... .. . ... ...
ROW 5E : ... .. . ... ... ... : ... .. . ... ... ... : ... .. . ... : ... .. . ... : ... .. . ... ... : ... .. . ... ... : ... .. . ... ... : ... .. . ... ...
ROW 5F : ... .. . ... ... ... : ... .. . ... ... ... : ... .. . ... : ... .. . ... : ... .. . ... ... : ... .. . ... ... : ... .. . ... ... : ... .. . ... ...
ROW 60 : F-3 00 8 ... ... ... : C#3 00 5 P81 ... ... : F-3 00 . ... : ... .. . ... : ... .. . ... ... : F-3 01 1 ... ... : C#4 01 1 ... ... : C#4 01 1 ... ...
ROW 61 : ... .. 7 ... ... ... : ... .. 8 ... ... ... : ... .. . ... : ... .. . ... : ... .. . ... ... : ... .. . ... ... : ... .. . ... ... : ... .. . ... ...
ROW 62 : ... .. 6 ... ... ... : ... .. 5 ... ... ... : ... .. . ... : ... .. . ... : ... .. . ... ... : ... .. . ... ... : ... .. . ... ... : ... .. . ... ...
ROW 63 : ... .. 5 ... ... ... : ... .. 0 ... ... ... : ... .. . ... : ... .. . ... : ... .. . ... ... : ... .. . ... ... : ... .. . ... ... : ... .. . ... ...
ROW 64 : ... .. . ... ... ... : C#3 00 4 P81 ... ... : ... .. . ... : ... .. . ... : ... .. . ... ... : ... .. . ... ... : ... .. . ... ... : ... .. . ... ...
ROW 65 : ... .. . ... ... ... : ... .. 6 ... ... ... : ... .. . ... : ... .. . ... : ... .. . ... ... : ... .. . ... ... : ... .. . ... ... : ... .. . ... ...
ROW 66 : ... .. . ... ... ... : ... .. 0 ... ... ... : ... .. . ... : ... .. . ... : ... .. . ... ... : ... .. . ... ... : ... .. . ... ... : ... .. . ... ...
ROW 67 : ... .. . ... ... ... : ... .. . ... ... ... : ... .. . ... : ... .. . ... : ... .. . ... ... : ... .. . ... ... : ... .. . ... ... : ... .. . ... ...
ROW 68 : ... .. . ... ... ... : ... .. . ... ... ... : ... .. . ... : ... .. . ... : ... .. . ... ... : ... .. . ... ... : ... .. . ... ... : ... .. . ... ...
ROW 69 : ... .. . ... ... ... : ... .. . ... ... ... : ... .. . ... : ... .. . ... : ... .. . ... ... : ... .. . ... ... : ... .. . ... ... : ... .. . ... ...
ROW 6A : ... .. 6 ... ... ... : G#2 00 5 P81 ... ... : F#3 00 . ... : ... .. . ... : ... .. . ... ... : ... .. . ... ... : ... .. . ... ... : ... .. . ... ...
ROW 6B : ... .. . ... ... ... : ... .. 8 ... ... ... : ... .. . ... : ... .. . ... : ... .. . ... ... : ... .. . ... ... : ... .. . ... ... : ... .. . ... ...
ROW 6C : ... .. . ... ... ... : ... .. 5 ... ... ... : ... .. . ... : ... .. . ... : ... .. . ... ... : ... .. . ... ... : ... .. . ... ... : ... .. . ... ...
ROW 6D : ... .. . ... ... ... : ... .. 0 ... ... ... : ... .. . ... : ... .. . ... : ... .. . ... ... : ... .. . ... ... : ... .. . ... ... : ... .. . ... ...
ROW 6E : ... .. . ... ... ... : G#2 00 4 P81 ... ... : ... .. . ... : ... .. . ... : ... .. . ... ... : ... .. . ... ... : ... .. . ... ... : ... .. . ... ...
ROW 6F : ... .. . ... ... ... : ... .. 6 ... ... ... : ... .. . ... : ... .. . ... : ... .. . ... ... : ... .. . ... ... : ... .. . ... ... : ... .. . ... ...
ROW 70 : ... .. . ... ... ... : ... .. 0 ... ... ... : ... .. . ... : ... .. . ... : ... .. . ... ... : ... .. . ... ... : ... .. . ... ... : ... .. . ... ...
ROW 71 : ... .. . ... ... ... : ... .. . ... ... ... : ... .. . ... : ... .. . ... : ... .. . ... ... : ... .. . ... ... : ... .. . ... ... : ... .. . ... ...
ROW 72 : ... .. . ... ... ... : ... .. . ... ... ... : ... .. . ... : ... .. . ... : ... .. . ... ... : ... .. . ... ... : ... .. . ... ... : ... .. . ... ...
ROW 73 : ... .. . ... ... ... : ... .. . ... ... ... : ... .. . ... : ... .. . ... : ... .. . ... ... : ... .. . ... ... : ... .. . ... ... : ... .. . ... ...
ROW 74 : ... .. 7 ... ... ... : C#3 00 5 P81 ... ... : G#3 00 . ... : ... .. . ... : ... .. . ... ... : ... .. 4 ... ... : ... .. 4 ... ... : ... .. 5 ... ...
ROW 75 : ... .. . ... ... ... : ... .. 8 ... ... ... : ... .. . ... : ... .. . ... : ... .. . ... ... : ... .. . ... ... : ... .. . ... ... : ... .. . ... ...
ROW 76 : ... .. . ... ... ... : ... .. 5 ... ... ... : ... .. . ... : ... .. . ... : ... .. . ... ... : ... .. . ... ... : ... .. . ... ... : ... .. . ... ...
ROW 77 : ... .. . ... ... ... : ... .. 0 ... ... ... : ... .. . ... : ... .. . ... : ... .. . ... ... : ... .. . ... ... : ... .. . ... ... : ... .. . ... ...
ROW 78 : ... .. . ... ... ... : C#3 00 4 P81 ... ... : ... .. . ... : ... .. . ... : ... .. . ... ... : ... .. . ... ... : ... .. . ... ... : ... .. . ... ...
ROW 79 : ... .. 8 ... ... ... : ... .. 6 ... ... ... : ... .. . ... : ... .. . ... : ... .. . ... ... : ... .. 1 ... ... : ... .. 1 ... ... : ... .. 2 ... ...
ROW 7A : ... .. . ... ... ... : ... .. 0 ... ... ... : ... .. . ... : ... .. . ... : ... .. . ... ... : ... .. . ... ... : ... .. . ... ... : ... .. . ... ...
ROW 7B : ... .. . ... ... ... : ... .. . ... ... ... : ... .. . ... : ... .. . ... : ... .. . ... ... : ... .. . ... ... : ... .. . ... ... : ... .. . ... ...
ROW 7C : ... .. . ... ... ... : ... .. . ... ... ... : ... .. . ... : ... .. . ... : ... .. . ... ... : ... .. . ... ... : ... .. . ... ... : ... .. . ... ...
ROW 7D : ... .. . ... ... ... : ... .. . ... ... ... : ... .. . ... : ... .. . ... : ... .. . ... ... : ... .. . ... ... : ... .. . ... ... : ... .. . ... ...
ROW 7E : ... .. . ... ... ... : G#2 00 5 P81 ... ... : ... .. . ... : ... .. . ... : ... .. . ... ... : ... .. 4 ... ... : ... .. 4 ... ... : ... .. 5 ... ...
ROW 7F : ... .. . ... ... ... : ... .. 8 ... ... ... : ... .. . ... : ... .. . ... : ... .. . ... ... : ... .. . ... ... : ... .. . ... ... : ... .. . ... ...
ROW 80 : ... .. . ... ... ... : ... .. 5 ... ... ... : ... .. . ... : ... .. . ... : ... .. . ... ... : ... .. . ... ... : ... .. . ... ... : ... .. . ... ...
ROW 81 : ... .. . ... ... ... : ... .. 0 ... ... ... : ... .. . ... : ... .. . ... : ... .. . ... ... : ... .. . ... ... : ... .. . ... ... : ... .. . ... ...
ROW 82 : ... .. . ... ... ... : G#2 00 4 P81 ... ... : ... .. . ... : ... .. . ... : ... .. . ... ... : ... .. . ... ... : ... .. . ... ... : ... .. . ... ...
ROW 83 : ... .. 9 ... ... ... : ... .. 6 ... ... ... : ... .. . ... : ... .. . ... : ... .. . ... ... : ... .. 1 ... ... : ... .. 1 ... ... : ... .. 2 ... ...
ROW 84 : ... .. . ... ... ... : ... .. 0 ... ... ... : ... .. . ... : ... .. . ... : ... .. . ... ... : ... .. . ... ... : ... .. . ... ... : ... .. . ... ...
ROW 85 : ... .. . ... ... ... : ... .. . ... ... ... : ... .. . ... : ... .. . ... : ... .. . ... ... : ... .. . ... ... : ... .. . ... ... : ... .. . ... ...
ROW 86 : ... .. . ... ... ... : ... .. . ... ... ... : ... .. . ... : ... .. . ... : ... .. . ... ... : ... .. . ... ... : ... .. . ... ... : ... .. . ... ...
ROW 87 : ... .. . ... ... ... : ... .. . ... ... ... : ... .. . ... : ... .. . ... : ... .. . ... ... : ... .. . ... ... : ... .. . ... ... : ... .. . ... ...
ROW 88 : G#3 00 F ... ... ... : C#3 00 5 P81 ... ... : ... .. . ... : ... .. . ... : ... .. . ... ... : ... .. 2 ... ... : ... .. 2 ... ... : G#3 01 1 ... ...
ROW 89 : ... .. E ... ... ... : ... .. 8 ... ... ... : ... .. . ... : ... .. . ... : ... .. . ... ... : ... .. . ... ... : ... .. . ... ... : ... .. 2 ... ...
ROW 8A : ... .. D ... ... ... : ... .. 5 ... ... ... : ... .. . ... : ... .. . ... : ... .. . ... ... : ... .. . ... ... : ... .. . ... ... : ... .. . ... ...
ROW 8B : ... .. A ... ... ... : ... .. 0 ... ... ... : ... .. . ... : ... .. . ... : ... .. . ... ... : ... .. . ... ... : ... .. . ... ... : ... .. . ... ...
ROW 8C : ... .. . ... ... ... : C#3 00 4 P81 ... ... : ... .. . ... : ... .. . ... : ... .. . ... ... : ... .. 1 ... ... : ... .. 1 ... ... : ... .. . ... ...
ROW 8D : ... .. 9 ... ... ... : ... .. 6 ... ... ... : ... .. . ... : ... .. . ... : ... .. . ... ... : ... .. . ... ... : ... .. . ... ... : ... .. 1 ... ...
ROW 8E : ... .. . ... ... ... : ... .. 0 ... ... ... : ... .. . ... : ... .. . ... : ... .. . ... ... : ... .. . ... ... : ... .. . ... ... : ... .. . ... ...
ROW 8F : ... .. . ... ... ... : ... .. . ... ... ... : ... .. . ... : ... .. . ... : ... .. . ... ... : ... .. . ... ... : ... .. . ... ... : ... .. . ... ...
ROW 90 : ... .. . ... ... ... : ... .. . ... ... ... : ... .. . ... : ... .. . ... : ... .. . ... ... : ... .. . ... ... : ... .. . ... ... : ... .. . ... ...
ROW 91 : ... .. . ... ... ... : ... .. . ... ... ... : ... .. . ... : ... .. . ... : ... .. . ... ... : ... .. . ... ... : ... .. . ... ... : ... .. . ... ...
ROW 92 : ... .. 8 ... ... ... : G#2 00 5 P81 ... ... : ... .. . ... : ... .. . ... : ... .. . ... ... : D#3 01 1 ... ... : B-3 01 1 ... ... : ... .. . ... ...
ROW 93 : ... .. . ... ... ... : ... .. 8 ... ... ... : ... .. . ... : ... .. . ... : ... .. . ... ... : ... .. . ... ... : ... .. . ... ... : ... .. . ... ...
ROW 94 : ... .. . ... ... ... : ... .. 5 ... ... ... : ... .. . ... : ... .. . ... : ... .. . ... ... : ... .. . ... ... : ... .. . ... ... : ... .. . ... ...
ROW 95 : ... .. . ... ... ... : ... .. 0 ... ... ... : ... .. . ... : ... .. . ... : ... .. . ... ... : ... .. . ... ... : ... .. . ... ... : ... .. . ... ...
ROW 96 : ... .. . ... ... ... : G#2 00 4 P81 ... ... : ... .. . ... : ... .. . ... : ... .. . ... ... : ... .. . ... ... : ... .. . ... ... : ... .. . ... ...
ROW 97 : ... .. . ... ... ... : ... .. 6 ... ... ... : ... .. . ... : ... .. . ... : ... .. . ... ... : ... .. . ... ... : ... .. . ... ... : ... .. . ... ...
ROW 98 : ... .. . ... ... ... : ... .. 0 ... ... ... : ... .. . ... : ... .. . ... : ... .. . ... ... : ... .. . ... ... : ... .. . ... ... : ... .. . ... ...
ROW 99 : ... .. . ... ... ... : ... .. . ... ... ... : ... .. . ... : ... .. . ... : ... .. . ... ... : ... .. . ... ... : ... .. . ... ... : ... .. . ... ...
ROW 9A : ... .. . ... ... ... : ... .. . ... ... ... : ... .. . ... : ... .. . ... : ... .. . ... ... : ... .. . ... ... : ... .. . ... ... : ... .. . ... ...
ROW 9B : ... .. . ... ... ... : ... .. . ... ... ... : ... .. . ... : ... .. . ... : ... .. . ... ... : ... .. . ... ... : ... .. . ... ... : ... .. . ... ...
ROW 9C : ... .. 7 ... ... ... : C#3 00 5 P81 ... ... : ... .. . ... : ... .. . ... : ... .. . ... ... : C#3 01 6 ... ... : A#3 01 6 ... ... : ... .. 5 ... ...
ROW 9D : ... .. . ... ... ... : ... .. 8 ... ... ... : ... .. . ... : ... .. . ... : ... .. . ... ... : ... .. 5 ... ... : ... .. 5 ... ... : ... .. . ... ...
ROW 9E : ... .. . ... ... ... : ... .. 5 ... ... ... : ... .. . ... : ... .. . ... : ... .. . ... ... : ... .. . ... ... : ... .. . ... ... : ... .. . ... ...
ROW 9F : ... .. . ... ... ... : ... .. 0 ... ... ... : ... .. . ... : ... .. . ... : ... .. . ... ... : ... .. . ... ... : ... .. . ... ... : ... .. . ... ...
ROW A0 : ... .. . ... ... ... : C#3 00 4 P81 ... ... : ... .. . ... : ... .. . ... : ... .. . ... ... : ... .. 4 ... ... : ... .. 4 ... ... : ... .. . ... ...
ROW A1 : ... .. 6 ... ... ... : ... .. 6 ... ... ... : ... .. . ... : ... .. . ... : ... .. . ... ... : ... .. 1 ... ... : ... .. 1 ... ... : ... .. 2 ... ...
ROW A2 : ... .. . ... ... ... : ... .. 0 ... ... ... : ... .. . ... : ... .. . ... : ... .. . ... ... : ... .. . ... ... : ... .. . ... ... : ... .. . ... ...
ROW A3 : ... .. . ... ... ... : ... .. . ... ... ... : ... .. . ... : ... .. . ... : ... .. . ... ... : ... .. . ... ... : ... .. . ... ... : ... .. . ... ...
ROW A4 : ... .. . ... ... ... : ... .. . ... ... ... : ... .. . ... : ... .. . ... : ... .. . ... ... : ... .. . ... ... : ... .. . ... ... : ... .. . ... ...
ROW A5 : ... .. . ... ... ... : ... .. . ... ... ... : ... .. . ... : ... .. . ... : ... .. . ... ... : ... .. . ... ... : ... .. . ... ... : ... .. . ... ...
ROW A6 : ... .. . ... ... ... : G#2 00 5 P81 ... ... : ... .. . ... : ... .. . ... : ... .. . ... ... : F-3 01 6 ... ... : C#4 01 6 ... ... : ... .. 5 ... ...
ROW A7 : ... .. . ... ... ... : ... .. 8 ... ... ... : ... .. . ... : ... .. . ... : ... .. . ... ... : ... .. 5 ... ... : ... .. 5 ... ... : ... .. . ... ...
ROW A8 : ... .. . ... ... ... : ... .. 5 ... ... ... : ... .. . ... : ... .. . ... : ... .. . ... ... : ... .. . ... ... : ... .. . ... ... : ... .. . ... ...
ROW A9 : ... .. . ... ... ... : ... .. 0 ... ... ... : ... .. . ... : ... .. . ... : ... .. . ... ... : ... .. . ... ... : ... .. . ... ... : ... .. . ... ...
ROW AA : ... .. . ... ... ... : G#2 00 4 P81 ... ... : ... .. . ... : ... .. . ... : ... .. . ... ... : ... .. 4 ... ... : ... .. 4 ... ... : ... .. . ... ...
ROW AB : ... .. 5 ... ... ... : ... .. 6 ... ... ... : ... .. . ... : ... .. . ... : ... .. . ... ... : ... .. 1 ... ... : ... .. 1 ... ... : ... .. 2 ... ...
ROW AC : ... .. . ... ... ... : ... .. 0 ... ... ... : ... .. . ... : ... .. . ... : ... .. . ... ... : ... .. . ... ... : ... .. . ... ... : ... .. . ... ...
ROW AD : ... .. . ... ... ... : ... .. . ... ... ... : ... .. . ... : ... .. . ... : ... .. . ... ... : ... .. . ... ... : ... .. . ... ... : ... .. . ... ...
ROW AE : ... .. . ... ... ... : ... .. . ... ... ... : ... .. . ... : ... .. . ... : ... .. . ... ... : ... .. . ... ... : ... .. . ... ... : ... .. . ... ...
ROW AF : ... .. . ... ... ... : ... .. . ... ... ... : ... .. . ... : ... .. . ... : ... .. . ... ... : ... .. . ... ... : ... .. . ... ... : ... .. . ... ...
ROW B0 : ... .. . ... ... ... : B-2 00 5 P81 ... ... : ... .. . ... : ... .. . ... : ... .. . ... ... : D#3 01 1 ... ... : B-3 01 1 ... ... : B-3 01 1 ... ...
ROW B1 : F#3 00 5 P88 ... ... : ... .. 8 ... ... ... : ... .. . ... : ... .. . ... : ... .. . ... ... : ... .. . ... ... : ... .. . ... ... : ... .. . ... ...
ROW B2 : F-3 00 5 P81 ... ... : ... .. 5 ... ... ... : ... .. . ... : ... .. . ... : ... .. . ... ... : ... .. . ... ... : ... .. . ... ... : ... .. . ... ...
ROW B3 : E-3 00 5 P7B ... ... : ... .. 0 ... ... ... : ... .. . ... : ... .. . ... : ... .. . ... ... : ... .. . ... ... : ... .. . ... ... : ... .. . ... ...
ROW B4 : D#3 00 5 P80 ... ... : B-2 00 4 P81 ... ... : ... .. . ... : ... .. . ... : ... .. . ... ... : ... .. . ... ... : ... .. . ... ... : ... .. . ... ...
ROW B5 : ... .. . ... ... ... : ... .. 6 ... ... ... : ... .. . ... : ... .. . ... : ... .. . ... ... : ... .. . ... ... : ... .. . ... ... : ... .. . ... ...
ROW B6 : ... .. . ... ... ... : ... .. 0 ... ... ... : ... .. . ... : ... .. . ... : ... .. . ... ... : ... .. . ... ... : ... .. . ... ... : ... .. . ... ...
ROW B7 : ... .. . ... ... ... : ... .. . ... ... ... : ... .. . ... : ... .. . ... : ... .. . ... ... : ... .. . ... ... : ... .. . ... ... : ... .. . ... ...
ROW B8 : ... .. . ... ... ... : ... .. . ... ... ... : ... .. . ... : ... .. . ... : ... .. . ... ... : ... .. . ... ... : ... .. . ... ... : ... .. . ... ...
ROW B9 : ... .. . ... ... ... : ... .. . ... ... ... : ... .. . ... : ... .. . ... : ... .. . ... ... : ... .. . ... ... : ... .. . ... ... : ... .. . ... ...
ROW BA : ... .. 6 ... ... ... : G#2 00 5 P81 ... ... : ... .. . ... : ... .. . ... : ... .. . ... ... : ... .. . ... ... : ... .. . ... ... : ... .. . ... ...
ROW BB : ... .. . ... ... ... : ... .. 8 ... ... ... : ... .. . ... : ... .. . ... : ... .. . ... ... : ... .. . ... ... : ... .. . ... ... : ... .. . ... ...
ROW BC : ... .. . ... ... ... : ... .. 5 ... ... ... : ... .. . ... : ... .. . ... : ... .. . ... ... : ... .. . ... ... : ... .. . ... ... : ... .. . ... ...
ROW BD : ... .. . ... ... ... : ... .. 0 ... ... ... : ... .. . ... : ... .. . ... : ... .. . ... ... : ... .. . ... ... : ... .. . ... ... : ... .. . ... ...
ROW BE : ... .. . ... ... ... : G#2 00 4 P81 ... ... : ... .. . ... : ... .. . ... : ... .. . ... ... : ... .. . ... ... : ... .. . ... ... : ... .. . ... ...
ROW BF : ... .. . ... ... ... : ... .. 6 ... ... ... : ... .. . ... : ... .. . ... : ... .. . ... ... : ... .. . ... ... : ... .. . ... ... : ... .. . ... ...
ROW C0 : ... .. . ... ... ... : ... .. 0 ... ... ... : ... .. . ... : ... .. . ... : ... .. . ... ... : ... .. . ... ... : ... .. . ... ... : ... .. . ... ...
ROW C1 : ... .. . ... ... ... : ... .. . ... ... ... : ... .. . ... : ... .. . ... : ... .. . ... ... : ... .. . ... ... : ... .. . ... ... : ... .. . ... ...
ROW C2 : ... .. . ... ... ... : ... .. . ... ... ... : ... .. . ... : ... .. . ... : ... .. . ... ... : ... .. . ... ... : ... .. . ... ... : ... .. . ... ...
ROW C3 : ... .. . ... ... ... : ... .. . ... ... ... : ... .. . ... : ... .. . ... : ... .. . ... ... : ... .. . ... ... : ... .. . ... ... : ... .. . ... ...
ROW C4 : ... .. 7 ... ... ... : B-2 00 5 P81 ... ... : ... .. . ... : ... .. . ... : ... .. . ... ... : ... .. 4 ... ... : ... .. 4 ... ... : A#3 01 4 ... ...
ROW C5 : ... .. . ... ... ... : ... .. 8 ... ... ... : ... .. . ... : ... .. . ... : ... .. . ... ... : ... .. . ... ... : ... .. . ... ... : ... .. 6 ... ...
ROW C6 : ... .. . ... ... ... : ... .. 5 ... ... ... : ... .. . ... : ... .. . ... : ... .. . ... ... : ... .. . ... ... : ... .. . ... ... : ... .. . ... ...
ROW C7 : ... .. . ... ... ... : ... .. 0 ... ... ... : ... .. . ... : ... .. . ... : ... .. . ... ... : ... .. . ... ... : ... .. . ... ... : ... .. 5 ... ...
ROW C8 : ... .. . ... ... ... : B-2 00 4 P81 ... ... : ... .. . ... : ... .. . ... : ... .. . ... ... : ... .. . ... ... : ... .. . ... ... : ... .. . ... ...
ROW C9 : ... .. 8 ... ... ... : ... .. 6 ... ... ... : ... .. . ... : ... .. . ... : ... .. . ... ... : ... .. 1 ... ... : ... .. 1 ... ... : ... .. 2 ... ...
ROW CA : ... .. . ... ... ... : ... .. 0 ... ... ... : ... .. . ... : ... .. . ... : ... .. . ... ... : ... .. . ... ... : ... .. . ... ... : ... .. . ... ...
ROW CB : ... .. . ... ... ... : ... .. . ... ... ... : ... .. . ... : ... .. . ... : ... .. . ... ... : ... .. . ... ... : ... .. . ... ... : ... .. . ... ...
ROW CC : ... .. . ... ... ... : ... .. . ... ... ... : ... .. . ... : ... .. . ... : ... .. . ... ... : ... .. . ... ... : ... .. . ... ... : ... .. . ... ...
ROW CD : ... .. . ... ... ... : ... .. . ... ... ... : ... .. . ... : ... .. . ... : ... .. . ... ... : ... .. . ... ... : ... .. . ... ... : ... .. . ... ...
ROW CE : ... .. . ... ... ... : G#2 00 5 P81 ... ... : ... .. . ... : ... .. . ... : ... .. . ... ... : ... .. 4 ... ... : ... .. 4 ... ... : ... .. 5 ... ...
ROW CF : ... .. . ... ... ... : ... .. 8 ... ... ... : ... .. . ... : ... .. . ... : ... .. . ... ... : ... .. . ... ... : ... .. . ... ... : ... .. . ... ...
ROW D0 : ... .. . ... ... ... : ... .. 5 ... ... ... : ... .. . ... : ... .. . ... : ... .. . ... ... : ... .. . ... ... : ... .. . ... ... : ... .. . ... ...
ROW D1 : ... .. . ... ... ... : ... .. 0 ... ... ... : ... .. . ... : ... .. . ... : ... .. . ... ... : ... .. . ... ... : ... .. . ... ... : ... .. . ... ...
ROW D2 : ... .. . ... ... ... : G#2 00 4 P81 ... ... : ... .. . ... : ... .. . ... : ... .. . ... ... : ... .. . ... ... : ... .. . ... ... : ... .. . ... ...
ROW D3 : ... .. 9 ... ... ... : ... .. 6 ... ... ... : ... .. . ... : ... .. . ... : ... .. . ... ... : ... .. 1 ... ... : ... .. 1 ... ... : ... .. 2 ... ...
ROW D4 : ... .. . ... ... ... : ... .. 0 ... ... ... : ... .. . ... : ... .. . ... : ... .. . ... ... : ... .. . ... ... : ... .. . ... ... : ... .. . ... ...
ROW D5 : ... .. . ... ... ... : ... .. . ... ... ... : ... .. . ... : ... .. . ... : ... .. . ... ... : ... .. . ... ... : ... .. . ... ... : ... .. . ... ...
ROW D6 : ... .. . ... ... ... : ... .. . ... ... ... : ... .. . ... : ... .. . ... : ... .. . ... ... : ... .. . ... ... : ... .. . ... ... : ... .. . ... ...
ROW D7 : ... .. . ... ... ... : ... .. . ... ... ... : ... .. . ... : ... .. . ... : ... .. . ... ... : ... .. . ... ... : ... .. . ... ... : ... .. . ... ...
ROW D8 : ... .. A P82 ... ... : B-2 00 5 P81 ... ... : F#2 00 . ... : ... .. . ... : ... .. . ... ... : ... .. 2 ... ... : G#3 01 2 ... ... : B-3 01 1 ... ...
ROW D9 : ... .. . P83 ... ... : ... .. 8 ... ... ... : ... .. . ... : ... .. . ... : ... .. . ... ... : ... .. . ... ... : ... .. . ... ... : ... .. 2 ... ...
ROW DA : ... .. . ... ... ... : ... .. 5 ... ... ... : ... .. . ... : ... .. . ... : ... .. . ... ... : ... .. . ... ... : ... .. . ... ... : ... .. . ... ...
ROW DB : ... .. . P81 ... ... : ... .. 0 ... ... ... : ... .. . ... : ... .. . ... : ... .. . ... ... : ... .. . ... ... : ... .. . ... ... : ... .. . ... ...
ROW DC : ... .. . P7F ... ... : B-2 00 4 P81 ... ... : ... .. . ... : ... .. . ... : ... .. . ... ... : ... .. 1 ... ... : ... .. 1 ... ... : ... .. . ... ...
ROW DD : ... .. 9 P7D ... ... : ... .. 6 ... ... ... : ... .. . ... : ... .. . ... : ... .. . ... ... : ... .. . ... ... : ... .. . ... ... : ... .. 1 ... ...
ROW DE : ... .. . ... ... ... : ... .. 0 ... ... ... : ... .. . ... : ... .. . ... : ... .. . ... ... : ... .. . ... ... : ... .. . ... ... : ... .. . ... ...
ROW DF : ... .. . P7E ... ... : ... .. . ... ... ... : ... .. . ... : ... .. . ... : ... .. . ... ... : ... .. . ... ... : ... .. . ... ... : ... .. . ... ...
ROW E0 : ... .. . P80 ... ... : ... .. . ... ... ... : ... .. . ... : ... .. . ... : ... .. . ... ... : ... .. . ... ... : ... .. . ... ... : ... .. . ... ...
ROW E1 : ... .. . P82 ... ... : ... .. . ... ... ... : ... .. . ... : ... .. . ... : ... .. . ... ... : ... .. . ... ... : ... .. . ... ... : ... .. . ... ...
ROW E2 : ... .. 8 P83 ... ... : G#2 00 5 P81 ... ... : ... .. . ... : ... .. . ... : ... .. . ... ... : ... .. . ... ... : ... .. . ... ... : ... .. . ... ...
ROW E3 : ... .. . ... ... ... : ... .. 8 ... ... ... : ... .. . ... : ... .. . ... : ... .. . ... ... : ... .. . ... ... : ... .. . ... ... : ... .. . ... ...
ROW E4 : ... .. . P81 ... ... : ... .. 5 ... ... ... : ... .. . ... : ... .. . ... : ... .. . ... ... : ... .. . ... ... : ... .. . ... ... : ... .. . ... ...
ROW E5 : ... .. . P80 ... ... : ... .. 0 ... ... ... : ... .. . ... : ... .. . ... : ... .. . ... ... : ... .. . ... ... : ... .. . ... ... : ... .. . ... ...
ROW E6 : ... .. . P7D ... ... : G#2 00 4 P81 ... ... : ... .. . ... : ... .. . ... : ... .. . ... ... : ... .. . ... ... : ... .. . ... ... : ... .. . ... ...
ROW E7 : ... .. . ... ... ... : ... .. 6 ... ... ... : ... .. . ... : ... .. . ... : ... .. . ... ... : ... .. . ... ... : ... .. . ... ... : ... .. . ... ...
ROW E8 : ... .. . P7E ... ... : ... .. 0 ... ... ... : ... .. . ... : ... .. . ... : ... .. . ... ... : ... .. . ... ... : ... .. . ... ... : ... .. . ... ...
ROW E9 : ... .. . P80 ... ... : ... .. . ... ... ... : ... .. . ... : ... .. . ... : ... .. . ... ... : ... .. . ... ... : ... .. . ... ... : ... .. . ... ...
ROW EA : ... .. . P81 ... ... : ... .. . ... ... ... : ... .. . ... : ... .. . ... : ... .. . ... ... : ... .. . ... ... : ... .. . ... ... : ... .. . ... ...
ROW EB : ... .. . P83 ... ... : ... .. . ... ... ... : ... .. . ... : ... .. . ... : ... .. . ... ... : ... .. . ... ... : ... .. . ... ... : ... .. . ... ...
ROW EC : ... .. 7 ... ... ... : B-2 00 5 P81 ... ... : ... .. . ... : ... .. . ... : ... .. . ... ... : G#3 01 6 ... ... : D#4 01 6 ... ... : G#3 01 4 ... ...
ROW ED : ... .. . P81 ... ... : ... .. 8 ... ... ... : ... .. . ... : ... .. . ... : ... .. . ... ... : ... .. 5 ... ... : ... .. 5 ... ... : ... .. 6 ... ...
ROW EE : ... .. . P80 ... ... : ... .. 5 ... ... ... : ... .. . ... : ... .. . ... : ... .. . ... ... : ... .. . ... ... : ... .. . ... ... : ... .. . ... ...
ROW EF : ... .. . P7E ... ... : ... .. 0 ... ... ... : ... .. . ... : ... .. . ... : ... .. . ... ... : ... .. . ... ... : ... .. . ... ... : ... .. 5 ... ...
ROW F0 : ... .. . P7D ... ... : B-2 00 4 P81 ... ... : ... .. . ... : ... .. . ... : ... .. . ... ... : ... .. 4 ... ... : ... .. 4 ... ... : ... .. . ... ...
ROW F1 : ... .. 6 ... ... ... : ... .. 6 ... ... ... : ... .. . ... : ... .. . ... : ... .. . ... ... : ... .. 1 ... ... : ... .. 1 ... ... : ... .. 2 ... ...
ROW F2 : ... .. . P80 ... ... : ... .. 0 ... ... ... : ... .. . ... : ... .. . ... : ... .. . ... ... : ... .. . ... ... : ... .. . ... ... : ... .. . ... ...
ROW F3 : ... .. . P81 ... ... : ... .. . ... ... ... : ... .. . ... : ... .. . ... : ... .. . ... ... : ... .. . ... ... : ... .. . ... ... : ... .. . ... ...
ROW F4 : ... .. . P83 ... ... : ... .. . ... ... ... : ... .. . ... : ... .. . ... : ... .. . ... ... : ... .. . ... ... : ... .. . ... ... : ... .. . ... ...
ROW F5 : ... .. . ... ... ... : ... .. . ... ... ... : ... .. . ... : ... .. . ... : ... .. . ... ... : ... .. . ... ... : ... .. . ... ... : ... .. . ... ...
ROW F6 : ... .. . P82 ... ... : G#2 00 5 P81 ... ... : ... .. . ... : ... .. . ... : ... .. . ... ... : ... .. 4 ... ... : ... .. 4 ... ... : ... .. 5 ... ...
ROW F7 : ... .. . P80 ... ... : ... .. 8 ... ... ... : ... .. . ... : ... .. . ... : ... .. . ... ... : ... .. 3 ... ... : ... .. 3 ... ... : ... .. . ... ...
ROW F8 : ... .. . P7E ... ... : ... .. 5 ... ... ... : ... .. . ... : ... .. . ... : ... .. . ... ... : ... .. . ... ... : ... .. . ... ... : ... .. . ... ...
ROW F9 : ... .. . P7D ... ... : ... .. 0 ... ... ... : ... .. . ... : ... .. . ... : ... .. . ... ... : ... .. 2 ... ... : ... .. 2 ... ... : ... .. . ... ...
ROW FA : ... .. . ... ... ... : G#2 00 4 P81 ... ... : ... .. . ... : ... .. . ... : ... .. . ... ... : ... .. . ... ... : ... .. . ... ... : ... .. . ... ...
ROW FB : ... .. 5 P7F ... ... : ... .. 6 ... ... ... : ... .. . ... : ... .. . ... : ... .. . ... ... : ... .. 1 ... ... : ... .. 1 ... ... : ... .. 2 ... ...
ROW FC : ... .. . P81 ... ... : ... .. 0 ... ... ... : ... .. . ... : ... .. . ... : ... .. . ... ... : ... .. . ... ... : ... .. . ... ... : ... .. . ... ...
ROW FD : ... .. . P83 ... ... : ... .. . ... ... ... : ... .. . ... : ... .. . ... : ... .. . ... ... : ... .. . ... ... : ... .. . ... ... : ... .. . ... ...
ROW FE : ... .. . ... ... ... : ... .. . ... ... ... : ... .. . ... : ... .. . ... : ... .. . ... ... : ... .. . ... ... : ... .. . ... ... : ... .. . ... ...
ROW FF : ... .. . P82 ... ... : ... .. . ... ... ... : ... .. . ... : ... .. . ... : ... .. . ... ... : ... .. . ... ... : ... .. . ... ... : ... .. . ... ...

PATTERN 19
ROW 00 : ... .. F P80 ... ... : B-2 00 5 P81 ... ... : E-2 00 . ... : ... .. . ... : ... .. . ... ... : ... .. . ... ... : E-4 01 1 ... ... : E-3 01 1 ... ...
ROW 01 : ... .. E ... ... ... : ... .. 8 ... ... ... : ... .. . ... : ... .. . ... : ... .. . ... ... : ... .. . ... ... : ... .. . ... ... : ... .. . ... ...
ROW 02 : ... .. D ... ... ... : ... .. 5 ... ... ... : ... .. . ... : ... .. . ... : ... .. . ... ... : ... .. . ... ... : ... .. . ... ... : ... .. . ... ...
ROW 03 : ... .. A ... ... ... : ... .. 0 ... ... ... : ... .. . ... : ... .. . ... : ... .. . ... ... : ... .. . ... ... : ... .. . ... ... : ... .. . ... ...
ROW 04 : ... .. . ... ... ... : B-2 00 4 P81 ... ... : ... .. . ... : ... .. . ... : ... .. . ... ... : ... .. . ... ... : ... .. . ... ... : ... .. . ... ...
ROW 05 : ... .. 8 ... ... ... : ... .. 6 ... ... ... : ... .. . ... : ... .. . ... : ... .. . ... ... : ... .. . ... ... : ... .. . ... ... : ... .. . ... ...
ROW 06 : ... .. . ... ... ... : ... .. 0 ... ... ... : ... .. . ... : ... .. . ... : ... .. . ... ... : ... .. . ... ... : ... .. . ... ... : ... .. . ... ...
ROW 07 : ... .. . ... ... ... : ... .. . ... ... ... : ... .. . ... : ... .. . ... : ... .. . ... ... : ... .. . ... ... : ... .. . ... ... : ... .. . ... ...
ROW 08 : ... .. . ... ... ... : ... .. . ... ... ... : ... .. . ... : ... .. . ... : ... .. . ... ... : ... .. . ... ... : ... .. . ... ... : ... .. . ... ...
ROW 09 : ... .. . ... ... ... : ... .. . ... ... ... : ... .. . ... : ... .. . ... : ... .. . ... ... : ... .. . ... ... : ... .. . ... ... : ... .. . ... ...
ROW 0A : ... .. . ... ... ... : G#2 00 5 P81 ... ... : ... .. . ... : ... .. . ... : ... .. . ... ... : ... .. . ... ... : ... .. . ... ... : ... .. . ... ...
ROW 0B : ... .. . ... ... ... : ... .. 8 ... ... ... : ... .. . ... : ... .. . ... : ... .. . ... ... : ... .. . ... ... : ... .. . ... ... : ... .. . ... ...
ROW 0C : ... .. . ... ... ... : ... .. 5 ... ... ... : ... .. . ... : ... .. . ... : ... .. . ... ... : ... .. . ... ... : ... .. . ... ... : ... .. . ... ...
ROW 0D : ... .. . ... ... ... : ... .. 0 ... ... ... : ... .. . ... : ... .. . ... : ... .. . ... ... : ... .. . ... ... : ... .. . ... ... : ... .. . ... ...
ROW 0E : ... .. . ... ... ... : G#2 00 4 P81 ... ... : ... .. . ... : ... .. . ... : ... .. . ... ... : ... .. . ... ... : ... .. . ... ... : ... .. . ... ...
ROW 0F : ... .. 7 ... ... ... : ... .. 6 ... ... ... : ... .. . ... : ... .. . ... : ... .. . ... ... : ... .. . ... ... : ... .. . ... ... : ... .. . ... ...
ROW 10 : ... .. . ... ... ... : ... .. 0 ... ... ... : ... .. . ... : ... .. . ... : ... .. . ... ... : ... .. . ... ... : ... .. . ... ... : ... .. . ... ...
ROW 11 : ... .. . ... ... ... : ... .. . ... ... ... : ... .. . ... : ... .. . ... : ... .. . ... ... : ... .. . ... ... : ... .. . ... ... : ... .. . ... ...
ROW 12 : ... .. . ... ... ... : ... .. . ... ... ... : ... .. . ... : ... .. . ... : ... .. . ... ... : ... .. . ... ... : ... .. . ... ... : ... .. . ... ...
ROW 13 : ... .. . ... ... ... : ... .. . ... ... ... : ... .. . ... : ... .. . ... : ... .. . ... ... : ... .. . ... ... : ... .. . ... ... : ... .. . ... ...
ROW 14 : ... .. 6 ... ... ... : B-2 00 5 P81 ... ... : ... .. . ... : ... .. . ... : ... .. . ... ... : ... .. 4 ... ... : ... .. 4 ... ... : ... .. 5 ... ...
ROW 15 : ... .. 1 ... ... ... : ... .. 8 ... ... ... : ... .. . ... : ... .. . ... : ... .. . ... ... : ... .. . ... ... : ... .. . ... ... : ... .. . ... ...
ROW 16 : ... .. . ... ... ... : ... .. 5 ... ... ... : ... .. . ... : ... .. . ... : ... .. . ... ... : ... .. . ... ... : ... .. . ... ... : ... .. . ... ...
ROW 17 : ... .. . ... ... ... : ... .. 0 ... ... ... : ... .. . ... : ... .. . ... : ... .. . ... ... : ... .. . ... ... : ... .. . ... ... : ... .. . ... ...
ROW 18 : ... .. . ... ... ... : B-2 00 4 P81 ... ... : ... .. . ... : ... .. . ... : ... .. . ... ... : ... .. . ... ... : ... .. . ... ... : ... .. . ... ...
ROW 19 : ... .. . ... ... ... : ... .. 6 ... ... ... : ... .. . ... : ... .. . ... : ... .. . ... ... : ... .. 1 ... ... : ... .. 1 ... ... : ... .. 2 ... ...
ROW 1A : ... .. . ... ... ... : ... .. 0 ... ... ... : ... .. . ... : ... .. . ... : ... .. . ... ... : ... .. . ... ... : ... .. . ... ... : ... .. . ... ...
ROW 1B : ... .. 0 ... ... ... : ... .. . ... ... ... : ... .. . ... : ... .. . ... : ... .. . ... ... : ... .. . ... ... : ... .. . ... ... : ... .. . ... ...
ROW 1C : ... .. . ... ... ... : ... .. . ... ... ... : ... .. . ... : ... .. . ... : ... .. . ... ... : ... .. . ... ... : ... .. . ... ... : ... .. . ... ...
ROW 1D : ... .. . ... ... ... : ... .. . ... ... ... : ... .. . ... : ... .. . ... : ... .. . ... ... : ... .. . ... ... : ... .. . ... ... : ... .. . ... ...
ROW 1E : E-3 00 A P80 ... ... : G#2 00 5 P81 ... ... : ... .. . ... : ... .. . ... : ... .. . ... ... : ... .. 4 ... ... : ... .. 4 ... ... : ... .. 5 ... ...
ROW 1F : ... .. 9 ... ... ... : ... .. 8 ... ... ... : ... .. . ... : ... .. . ... : ... .. . ... ... : ... .. . ... ... : ... .. . ... ... : ... .. . ... ...
ROW 20 : ... .. 8 ... ... ... : ... .. 5 ... ... ... : ... .. . ... : ... .. . ... : ... .. . ... ... : ... .. . ... ... : ... .. . ... ... : ... .. . ... ...
ROW 21 : ... .. 6 ... ... ... : ... .. 0 ... ... ... : ... .. . ... : ... .. . ... : ... .. . ... ... : ... .. . ... ... : ... .. . ... ... : ... .. . ... ...
ROW 22 : ... .. . ... ... ... : G#2 00 4 P81 ... ... : ... .. . ... : ... .. . ... : ... .. . ... ... : ... .. . ... ... : ... .. . ... ... : ... .. . ... ...
ROW 23 : ... .. . ... ... ... : ... .. 6 ... ... ... : ... .. . ... : ... .. . ... : ... .. . ... ... : ... .. 1 ... ... : ... .. 1 ... ... : ... .. 2 ... ...
ROW 24 : ... .. 1 ... ... ... : ... .. 0 ... ... ... : ... .. . ... : ... .. . ... : ... .. . ... ... : ... .. . ... ... : ... .. . ... ... : ... .. . ... ...
ROW 25 : ... .. . ... ... ... : ... .. . ... ... ... : ... .. . ... : ... .. . ... : ... .. . ... ... : ... .. . ... ... : ... .. . ... ... : ... .. . ... ...
ROW 26 : ... .. . ... ... ... : ... .. . ... ... ... : ... .. . ... : ... .. . ... : ... .. . ... ... : ... .. . ... ... : ... .. . ... ... : ... .. . ... ...
ROW 27 : ... .. . ... ... ... : ... .. . ... ... ... : ... .. . ... : ... .. . ... : ... .. . ... ... : ... .. . ... ... : ... .. . ... ... : ... .. . ... ...
ROW 28 : ... .. 8 ... ... ... : B-2 00 5 P81 ... ... : ... .. . ... : ... .. . ... : ... .. . ... ... : C#4 01 2 ... ... : ... .. 2 ... ... : B-3 01 1 ... ...
ROW 29 : ... .. 7 ... ... ... : ... .. 8 ... ... ... : ... .. . ... : ... .. . ... : ... .. . ... ... : ... .. . ... ... : ... .. . ... ... : ... .. 2 ... ...
ROW 2A : ... .. 6 ... ... ... : ... .. 5 ... ... ... : ... .. . ... : ... .. . ... : ... .. . ... ... : ... .. . ... ... : ... .. . ... ... : ... .. . ... ...
ROW 2B : ... .. 5 ... ... ... : ... .. 0 ... ... ... : ... .. . ... : ... .. . ... : ... .. . ... ... : ... .. . ... ... : ... .. . ... ... : ... .. . ... ...
ROW 2C : ... .. . ... ... ... : B-2 00 4 P81 ... ... : ... .. . ... : ... .. . ... : ... .. . ... ... : ... .. 1 ... ... : ... .. 1 ... ... : ... .. . ... ...
ROW 2D : ... .. . ... ... ... : ... .. 6 ... ... ... : ... .. . ... : ... .. . ... : ... .. . ... ... : ... .. . ... ... : ... .. . ... ... : ... .. 1 ... ...
ROW 2E : ... .. . ... ... ... : ... .. 0 ... ... ... : ... .. . ... : ... .. . ... : ... .. . ... ... : ... .. . ... ... : ... .. . ... ... : ... .. . ... ...
ROW 2F : ... .. . ... ... ... : ... .. . ... ... ... : ... .. . ... : ... .. . ... : ... .. . ... ... : ... .. . ... ... : ... .. . ... ... : ... .. . ... ...
ROW 30 : ... .. . ... ... ... : ... .. . ... ... ... : ... .. . ... : ... .. . ... : ... .. . ... ... : ... .. . ... ... : ... .. . ... ... : ... .. . ... ...
ROW 31 : ... .. . ... ... ... : ... .. . ... ... ... : ... .. . ... : ... .. . ... : ... .. . ... ... : ... .. . ... ... : ... .. . ... ... : ... .. . ... ...
ROW 32 : ... .. 6 ... ... ... : G#2 00 5 P81 ... ... : ... .. . ... : ... .. . ... : ... .. . ... ... : ... .. . ... ... : ... .. . ... ... : ... .. . ... ...
ROW 33 : ... .. . ... ... ... : ... .. 8 ... ... ... : ... .. . ... : ... .. . ... : ... .. . ... ... : ... .. . ... ... : ... .. . ... ... : ... .. . ... ...
ROW 34 : ... .. . ... ... ... : ... .. 5 ... ... ... : ... .. . ... : ... .. . ... : ... .. . ... ... : ... .. . ... ... : ... .. . ... ... : ... .. . ... ...
ROW 35 : ... .. . ... ... ... : ... .. 0 ... ... ... : ... .. . ... : ... .. . ... : ... .. . ... ... : ... .. . ... ... : ... .. . ... ... : ... .. . ... ...
ROW 36 : ... .. . ... ... ... : G#2 00 4 P81 ... ... : ... .. . ... : ... .. . ... : ... .. . ... ... : ... .. . ... ... : ... .. . ... ... : ... .. . ... ...
ROW 37 : ... .. . ... ... ... : ... .. 6 ... ... ... : ... .. . ... : ... .. . ... : ... .. . ... ... : ... .. . ... ... : ... .. . ... ... : ... .. . ... ...
ROW 38 : ... .. . ... ... ... : ... .. 0 ... ... ... : ... .. . ... : ... .. . ... : ... .. . ... ... : ... .. . ... ... : ... .. . ... ... : ... .. . ... ...
ROW 39 : ... .. . ... ... ... : ... .. . ... ... ... : ... .. . ... : ... .. . ... : ... .. . ... ... : ... .. . ... ... : ... .. . ... ... : ... .. . ... ...
ROW 3A : ... .. . ... ... ... : ... .. . ... ... ... : ... .. . ... : ... .. . ... : ... .. . ... ... : ... .. . ... ... : ... .. . ... ... : ... .. . ... ...
ROW 3B : ... .. . ... ... ... : ... .. . ... ... ... : ... .. . ... : ... .. . ... : ... .. . ... ... : ... .. . ... ... : ... .. . ... ... : ... .. . ... ...
ROW 3C : ... .. 7 P82 ... ... : B-2 00 5 P81 ... ... : ... .. . ... : ... .. . ... : ... .. . ... ... : G#3 01 6 ... ... : C#4 01 6 ... ... : ... .. 5 ... ...
ROW 3D : ... .. . P83 ... ... : ... .. 8 ... ... ... : ... .. . ... : ... .. . ... : ... .. . ... ... : ... .. 5 ... ... : ... .. 5 ... ... : ... .. . ... ...
ROW 3E : ... .. . ... ... ... : ... .. 5 ... ... ... : ... .. . ... : ... .. . ... : ... .. . ... ... : ... .. . ... ... : ... .. . ... ... : ... .. . ... ...
ROW 3F : ... .. . P82 ... ... : ... .. 0 ... ... ... : ... .. . ... : ... .. . ... : ... .. . ... ... : ... .. . ... ... : ... .. . ... ... : ... .. . ... ...
ROW 40 : ... .. . P80 ... ... : B-2 00 4 P81 ... ... : ... .. . ... : ... .. . ... : ... .. . ... ... : ... .. 4 ... ... : ... .. 4 ... ... : ... .. . ... ...
ROW 41 : ... .. 8 P7F ... ... : ... .. 6 ... ... ... : ... .. . ... : ... .. . ... : ... .. . ... ... : ... .. 1 ... ... : ... .. 1 ... ... : ... .. 2 ... ...
ROW 42 : ... .. . P7D ... ... : ... .. 0 ... ... ... : ... .. . ... : ... .. . ... : ... .. . ... ... : ... .. . ... ... : ... .. . ... ... : ... .. . ... ...
ROW 43 : ... .. . ... ... ... : ... .. . ... ... ... : ... .. . ... : ... .. . ... : ... .. . ... ... : ... .. . ... ... : ... .. . ... ... : ... .. . ... ...
ROW 44 : ... .. . ... ... ... : ... .. . ... ... ... : ... .. . ... : ... .. . ... : ... .. . ... ... : ... .. . ... ... : ... .. . ... ... : ... .. . ... ...
ROW 45 : ... .. . P7F ... ... : ... .. . ... ... ... : ... .. . ... : ... .. . ... : ... .. . ... ... : ... .. . ... ... : ... .. . ... ... : ... .. . ... ...
ROW 46 : ... .. . P80 ... ... : G#2 00 5 P81 ... ... : ... .. . ... : ... .. . ... : ... .. . ... ... : B-3 01 6 ... ... : D#4 01 6 ... ... : ... .. 5 ... ...
ROW 47 : ... .. . P82 ... ... : ... .. 8 ... ... ... : ... .. . ... : ... .. . ... : ... .. . ... ... : ... .. 5 ... ... : ... .. 5 ... ... : ... .. . ... ...
ROW 48 : ... .. . P83 ... ... : ... .. 5 ... ... ... : ... .. . ... : ... .. . ... : ... .. . ... ... : ... .. . ... ... : ... .. . ... ... : ... .. . ... ...
ROW 49 : ... .. . ... ... ... : ... .. 0 ... ... ... : ... .. . ... : ... .. . ... : ... .. . ... ... : ... .. . ... ... : ... .. . ... ... : ... .. . ... ...
ROW 4A : ... .. . P81 ... ... : G#2 00 4 P81 ... ... : ... .. . ... : ... .. . ... : ... .. . ... ... : ... .. 4 ... ... : ... .. 4 ... ... : ... .. . ... ...
ROW 4B : ... .. 9 P80 ... ... : ... .. 6 ... ... ... : ... .. . ... : ... .. . ... : ... .. . ... ... : ... .. 1 ... ... : ... .. 1 ... ... : ... .. 2 ... ...
ROW 4C : ... .. . P7E ... ... : ... .. 0 ... ... ... : ... .. . ... : ... .. . ... : ... .. . ... ... : ... .. . ... ... : ... .. . ... ... : ... .. . ... ...
ROW 4D : ... .. . P7D ... ... : ... .. . ... ... ... : ... .. . ... : ... .. . ... : ... .. . ... ... : ... .. . ... ... : ... .. . ... ... : ... .. . ... ...
ROW 4E : ... .. . ... ... ... : ... .. . ... ... ... : ... .. . ... : ... .. . ... : ... .. . ... ... : ... .. . ... ... : ... .. . ... ... : ... .. . ... ...
ROW 4F : ... .. . P7E ... ... : ... .. . ... ... ... : ... .. . ... : ... .. . ... : ... .. . ... ... : ... .. . ... ... : ... .. . ... ... : ... .. . ... ...
ROW 50 : ... .. A P80 ... ... : C#3 00 5 P81 ... ... : E-3 00 . ... : ... .. . ... : ... .. . ... ... : A-3 01 4 ... ... : E-4 01 4 ... ... : A-3 01 3 ... ...
ROW 51 : ... .. . P81 ... ... : ... .. 8 ... ... ... : ... .. . ... : ... .. . ... : ... .. . ... ... : ... .. . ... ... : ... .. . ... ... : ... .. 4 ... ...
ROW 52 : ... .. . P83 ... ... : ... .. 5 ... ... ... : ... .. . ... : ... .. . ... : ... .. . ... ... : ... .. . ... ... : ... .. . ... ... : ... .. . ... ...
ROW 53 : ... .. . ... ... ... : ... .. 0 ... ... ... : ... .. . ... : ... .. . ... : ... .. . ... ... : ... .. . ... ... : ... .. . ... ... : ... .. . ... ...
ROW 54 : ... .. . ... ... ... : C#3 00 4 P81 ... ... : ... .. . ... : ... .. . ... : ... .. . ... ... : ... .. 3 ... ... : ... .. 3 ... ... : ... .. . ... ...
ROW 55 : ... .. . P81 ... ... : ... .. 6 ... ... ... : ... .. . ... : ... .. . ... : ... .. . ... ... : ... .. . ... ... : ... .. . ... ... : ... .. . ... ...
ROW 56 : ... .. . P80 ... ... : ... .. 0 ... ... ... : ... .. . ... : ... .. . ... : ... .. . ... ... : ... .. . ... ... : ... .. . ... ... : ... .. . ... ...
ROW 57 : ... .. . P7E ... ... : ... .. . ... ... ... : ... .. . ... : ... .. . ... : ... .. . ... ... : ... .. . ... ... : ... .. . ... ... : ... .. . ... ...
ROW 58 : ... .. . P7D ... ... : ... .. . ... ... ... : ... .. . ... : ... .. . ... : ... .. . ... ... : ... .. . ... ... : ... .. . ... ... : ... .. . ... ...
ROW 59 : ... .. . ... ... ... : ... .. . ... ... ... : ... .. . ... : ... .. . ... : ... .. . ... ... : ... .. . ... ... : ... .. . ... ... : ... .. . ... ...
ROW 5A : ... .. . P7F ... ... : A-2 00 5 P81 ... ... : ... .. . ... : ... .. . ... : ... .. . ... ... : ... .. . ... ... : ... .. . ... ... : ... .. . ... ...
ROW 5B : ... .. . P80 ... ... : ... .. 8 ... ... ... : ... .. . ... : ... .. . ... : ... .. . ... ... : ... .. . ... ... : ... .. . ... ... : ... .. . ... ...
ROW 5C : ... .. . P82 ... ... : ... .. 5 ... ... ... : ... .. . ... : ... .. . ... : ... .. . ... ... : ... .. . ... ... : ... .. . ... ... : ... .. . ... ...
ROW 5D : ... .. . P83 ... ... : ... .. 0 ... ... ... : ... .. . ... : ... .. . ... : ... .. . ... ... : ... .. . ... ... : ... .. . ... ... : ... .. . ... ...
ROW 5E : ... .. . ... ... ... : A-2 00 4 P81 ... ... : ... .. . ... : ... .. . ... : ... .. . ... ... : ... .. . ... ... : ... .. . ... ... : ... .. . ... ...
ROW 5F : ... .. . P82 ... ... : ... .. 6 ... ... ... : ... .. . ... : ... .. . ... : ... .. . ... ... : ... .. . ... ... : ... .. . ... ... : ... .. . ... ...
ROW 60 : ... .. . P80 ... ... : ... .. 0 ... ... ... : ... .. . ... : ... .. . ... : ... .. . ... ... : ... .. . ... ... : ... .. . ... ... : ... .. . ... ...
ROW 61 : ... .. . P7F ... ... : ... .. . ... ... ... : ... .. . ... : ... .. . ... : ... .. . ... ... : ... .. . ... ... : ... .. . ... ... : ... .. . ... ...
ROW 62 : ... .. . P7D ... ... : ... .. . ... ... ... : ... .. . ... : ... .. . ... : ... .. . ... ... : ... .. . ... ... : ... .. . ... ... : ... .. . ... ...
ROW 63 : ... .. . ... ... ... : ... .. . ... ... ... : ... .. . ... : ... .. . ... : ... .. . ... ... : ... .. . ... ... : ... .. . ... ... : ... .. . ... ...
ROW 64 : ... .. 5 ... ... ... : C#3 00 5 P81 ... ... : ... .. . ... : ... .. . ... : ... .. . ... ... : ... .. . ... ... : ... .. . ... ... : G#3 01 3 ... ...
ROW 65 : ... .. . P7F ... ... : ... .. 8 ... ... ... : ... .. . ... : ... .. . ... : ... .. . ... ... : ... .. . ... ... : ... .. . ... ... : ... .. 4 ... ...
ROW 66 : ... .. . P80 ... ... : ... .. 5 ... ... ... : ... .. . ... : ... .. . ... : ... .. . ... ... : ... .. . ... ... : ... .. . ... ... : ... .. . ... ...
ROW 67 : ... .. . P82 ... ... : ... .. 0 ... ... ... : ... .. . ... : ... .. . ... : ... .. . ... ... : ... .. . ... ... : ... .. . ... ... : ... .. . ... ...
ROW 68 : ... .. . P83 ... ... : C#3 00 4 P81 ... ... : ... .. . ... : ... .. . ... : ... .. . ... ... : ... .. . ... ... : ... .. . ... ... : ... .. . ... ...
ROW 69 : ... .. 7 ... ... ... : ... .. 6 ... ... ... : ... .. . ... : ... .. . ... : ... .. . ... ... : ... .. . ... ... : ... .. . ... ... : ... .. . ... ...
ROW 6A : ... .. . P81 ... ... : ... .. 0 ... ... ... : ... .. . ... : ... .. . ... : ... .. . ... ... : ... .. . ... ... : ... .. . ... ... : ... .. . ... ...
ROW 6B : ... .. . P80 ... ... : ... .. . ... ... ... : ... .. . ... : ... .. . ... : ... .. . ... ... : ... .. . ... ... : ... .. . ... ... : ... .. . ... ...
ROW 6C : ... .. . P7E ... ... : ... .. . ... ... ... : ... .. . ... : ... .. . ... : ... .. . ... ... : ... .. . ... ... : ... .. . ... ... : ... .. . ... ...
ROW 6D : ... .. . P7D ... ... : ... .. . ... ... ... : ... .. . ... : ... .. . ... : ... .. . ... ... : ... .. . ... ... : ... .. . ... ... : ... .. . ... ...
ROW 6E : ... .. 8 ... ... ... : A-2 00 5 P81 ... ... : ... .. . ... : ... .. . ... : ... .. . ... ... : ... .. . ... ... : ... .. . ... ... : ... .. . ... ...
ROW 6F : ... .. . P7E ... ... : ... .. 8 ... ... ... : ... .. . ... : ... .. . ... : ... .. . ... ... : ... .. . ... ... : ... .. . ... ... : ... .. . ... ...
ROW 70 : ... .. . P80 ... ... : ... .. 5 ... ... ... : ... .. . ... : ... .. . ... : ... .. . ... ... : ... .. . ... ... : ... .. . ... ... : ... .. . ... ...
ROW 71 : ... .. . P81 ... ... : ... .. 0 ... ... ... : ... .. . ... : ... .. . ... : ... .. . ... ... : ... .. . ... ... : ... .. . ... ... : ... .. . ... ...
ROW 72 : ... .. . P83 ... ... : A-2 00 4 P81 ... ... : ... .. . ... : ... .. . ... : ... .. . ... ... : ... .. . ... ... : ... .. . ... ... : ... .. . ... ...
ROW 73 : ... .. . ... ... ... : ... .. 6 ... ... ... : ... .. . ... : ... .. . ... : ... .. . ... ... : ... .. . ... ... : ... .. . ... ... : ... .. . ... ...
ROW 74 : ... .. . ... ... ... : ... .. 0 ... ... ... : ... .. . ... : ... .. . ... : ... .. . ... ... : ... .. . ... ... : ... .. . ... ... : ... .. . ... ...
ROW 75 : ... .. . P81 ... ... : ... .. . ... ... ... : ... .. . ... : ... .. . ... : ... .. . ... ... : ... .. . ... ... : ... .. . ... ... : ... .. . ... ...
ROW 76 : ... .. . P80 ... ... : ... .. . ... ... ... : ... .. . ... : ... .. . ... : ... .. . ... ... : ... .. . ... ... : ... .. . ... ... : ... .. . ... ...
ROW 77 : ... .. . P7E ... ... : ... .. . ... ... ... : ... .. . ... : ... .. . ... : ... .. . ... ... : ... .. . ... ... : ... .. . ... ... : ... .. . ... ...
ROW 78 : C#3 00 F P80 ... ... : C#3 00 5 P81 ... ... : ... .. . ... : ... .. . ... : ... .. . ... ... : E-3 01 4 ... ... : C#4 01 4 ... ... : A-3 01 3 ... ...
ROW 79 : ... .. E ... ... ... : ... .. 8 ... ... ... : ... .. . ... : ... .. . ... : ... .. . ... ... : ... .. . ... ... : ... .. . ... ... : ... .. 4 ... ...
ROW 7A : ... .. D ... ... ... : ... .. 5 ... ... ... : ... .. . ... : ... .. . ... : ... .. . ... ... : ... .. . ... ... : ... .. . ... ... : ... .. . ... ...
ROW 7B : ... .. A ... ... ... : ... .. 0 ... ... ... : ... .. . ... : ... .. . ... : ... .. . ... ... : ... .. . ... ... : ... .. . ... ... : ... .. . ... ...
ROW 7C : ... .. . ... ... ... : C#3 00 4 P81 ... ... : ... .. . ... : ... .. . ... : ... .. . ... ... : ... .. 3 ... ... : ... .. 3 ... ... : ... .. . ... ...
ROW 7D : ... .. . ... ... ... : ... .. 6 ... ... ... : ... .. . ... : ... .. . ... : ... .. . ... ... : ... .. . ... ... : ... .. . ... ... : ... .. . ... ...
ROW 7E : ... .. . ... ... ... : ... .. 0 ... ... ... : ... .. . ... : ... .. . ... : ... .. . ... ... : ... .. . ... ... : ... .. . ... ... : ... .. . ... ...
ROW 7F : ... .. . ... ... ... : ... .. . ... ... ... : ... .. . ... : ... .. . ... : ... .. . ... ... : ... .. . ... ... : ... .. . ... ... : ... .. . ... ...
ROW 80 : ... .. . ... ... ... : ... .. . ... ... ... : ... .. . ... : ... .. . ... : ... .. . ... ... : ... .. . ... ... : ... .. . ... ... : ... .. . ... ...
ROW 81 : ... .. . ... ... ... : ... .. . ... ... ... : ... .. . ... : ... .. . ... : ... .. . ... ... : ... .. . ... ... : ... .. . ... ... : ... .. . ... ...
ROW 82 : ... .. . ... ... ... : A-2 00 5 P81 ... ... : ... .. . ... : ... .. . ... : ... .. . ... ... : ... .. . ... ... : ... .. . ... ... : ... .. . ... ...
ROW 83 : ... .. 2 ... ... ... : ... .. 8 ... ... ... : ... .. . ... : ... .. . ... : ... .. . ... ... : ... .. 2 ... ... : ... .. 2 ... ... : ... .. . ... ...
ROW 84 : ... .. . ... ... ... : ... .. 5 ... ... ... : ... .. . ... : ... .. . ... : ... .. . ... ... : ... .. . ... ... : ... .. . ... ... : ... .. . ... ...
ROW 85 : ... .. . ... ... ... : ... .. 0 ... ... ... : ... .. . ... : ... .. . ... : ... .. . ... ... : ... .. . ... ... : ... .. . ... ... : ... .. . ... ...
ROW 86 : ... .. 1 ... ... ... : A-2 00 4 P81 ... ... : ... .. . ... : ... .. . ... : ... .. . ... ... : ... .. 1 ... ... : ... .. 1 ... ... : ... .. . ... ...
ROW 87 : ... .. . ... ... ... : ... .. 6 ... ... ... : ... .. . ... : ... .. . ... : ... .. . ... ... : ... .. . ... ... : ... .. . ... ... : ... .. . ... ...
ROW 88 : ... .. . ... ... ... : ... .. 0 ... ... ... : ... .. . ... : ... .. . ... : ... .. . ... ... : ... .. . ... ... : ... .. . ... ... : ... .. . ... ...
ROW 89 : ... .. 0 ... ... ... : ... .. . ... ... ... : ... .. . ... : ... .. . ... : ... .. . ... ... : ... .. . ... ... : ... .. . ... ... : ... .. . ... ...
ROW 8A : ... .. . ... ... ... : ... .. . ... ... ... : ... .. . ... : ... .. . ... : ... .. . ... ... : ... .. . ... ... : ... .. . ... ... : ... .. . ... ...
ROW 8B : ... .. . ... ... ... : ... .. . ... ... ... : ... .. . ... : ... .. . ... : ... .. . ... ... : ... .. . ... ... : ... .. . ... ... : ... .. . ... ...
ROW 8C : G#3 00 8 P80 ... ... : C#3 00 5 P81 ... ... : E-4 00 . ... : ... .. . ... : ... .. . ... ... : G#3 01 4 ... ... : E-4 01 4 ... ... : C#4 01 3 ... ...
ROW 8D : ... .. 7 ... ... ... : ... .. 8 ... ... ... : ... .. . ... : ... .. . ... : ... .. . ... ... : ... .. . ... ... : ... .. . ... ... : ... .. 4 ... ...
ROW 8E : ... .. 6 ... ... ... : ... .. 5 ... ... ... : ... .. . ... : ... .. . ... : ... .. . ... ... : ... .. . ... ... : ... .. . ... ... : ... .. . ... ...
ROW 8F : ... .. 5 ... ... ... : ... .. 0 ... ... ... : ... .. . ... : ... .. . ... : ... .. . ... ... : ... .. . ... ... : ... .. . ... ... : ... .. . ... ...
ROW 90 : ... .. . ... ... ... : C#3 00 4 P81 ... ... : ... .. . ... : ... .. . ... : ... .. . ... ... : ... .. 3 ... ... : ... .. 3 ... ... : ... .. . ... ...
ROW 91 : ... .. . ... ... ... : ... .. 6 ... ... ... : ... .. . ... : ... .. . ... : ... .. . ... ... : ... .. . ... ... : ... .. . ... ... : ... .. . ... ...
ROW 92 : ... .. . ... ... ... : ... .. 0 ... ... ... : ... .. . ... : ... .. . ... : ... .. . ... ... : ... .. . ... ... : ... .. . ... ... : ... .. . ... ...
ROW 93 : ... .. . ... ... ... : ... .. . ... ... ... : ... .. . ... : ... .. . ... : ... .. . ... ... : ... .. . ... ... : ... .. . ... ... : ... .. . ... ...
ROW 94 : ... .. . ... ... ... : ... .. . ... ... ... : ... .. . ... : ... .. . ... : ... .. . ... ... : ... .. . ... ... : ... .. . ... ... : ... .. . ... ...
ROW 95 : ... .. . ... ... ... : ... .. . ... ... ... : ... .. . ... : ... .. . ... : ... .. . ... ... : ... .. . ... ... : ... .. . ... ... : ... .. . ... ...
ROW 96 : ... .. . ... ... ... : A-2 00 5 P81 ... ... : ... .. . ... : ... .. . ... : ... .. . ... ... : ... .. . ... ... : ... .. . ... ... : ... .. . ... ...
ROW 97 : ... .. 1 ... ... ... : ... .. 8 ... ... ... : ... .. . ... : ... .. . ... : ... .. . ... ... : ... .. 2 ... ... : ... .. 2 ... ... : ... .. . ... ...
ROW 98 : ... .. . ... ... ... : ... .. 5 ... ... ... : ... .. . ... : ... .. . ... : ... .. . ... ... : ... .. . ... ... : ... .. . ... ... : ... .. . ... ...
ROW 99 : ... .. . ... ... ... : ... .. 0 ... ... ... : ... .. . ... : ... .. . ... : ... .. . ... ... : ... .. . ... ... : ... .. . ... ... : ... .. . ... ...
ROW 9A : ... .. . ... ... ... : A-2 00 4 P81 ... ... : ... .. . ... : ... .. . ... : ... .. . ... ... : ... .. 1 ... ... : ... .. 1 ... ... : ... .. . ... ...
ROW 9B : ... .. . ... ... ... : ... .. 6 ... ... ... : ... .. . ... : ... .. . ... : ... .. . ... ... : ... .. . ... ... : ... .. . ... ... : ... .. . ... ...
ROW 9C : ... .. . ... ... ... : ... .. 0 ... ... ... : ... .. . ... : ... .. . ... : ... .. . ... ... : ... .. . ... ... : ... .. . ... ... : ... .. . ... ...
ROW 9D : ... .. 0 ... ... ... : ... .. . ... ... ... : ... .. . ... : ... .. . ... : ... .. . ... ... : ... .. . ... ... : ... .. . ... ... : ... .. . ... ...
ROW 9E : ... .. . ... ... ... : ... .. . ... ... ... : ... .. . ... : ... .. . ... : ... .. . ... ... : ... .. . ... ... : ... .. . ... ... : ... .. . ... ...
ROW 9F : ... .. . ... ... ... : ... .. . ... ... ... : ... .. . ... : ... .. . ... : ... .. . ... ... : ... .. . ... ... : ... .. . ... ... : ... .. . ... ...
ROW A0 : F#3 00 8 P80 ... ... : D-3 00 5 P81 ... ... : D-4 00 . ... : ... .. . ... : ... .. . ... ... : F#3 01 4 ... ... : D-4 01 4 ... ... : D-3 01 3 ... ...
ROW A1 : ... .. 7 ... ... ... : ... .. 8 ... ... ... : ... .. . ... : ... .. . ... : ... .. . ... ... : ... .. . ... ... : ... .. . ... ... : ... .. 4 ... ...
ROW A2 : ... .. 6 ... ... ... : ... .. 5 ... ... ... : ... .. . ... : ... .. . ... : ... .. . ... ... : ... .. . ... ... : ... .. . ... ... : ... .. . ... ...
ROW A3 : ... .. 5 ... ... ... : ... .. 0 ... ... ... : ... .. . ... : ... .. . ... : ... .. . ... ... : ... .. . ... ... : ... .. . ... ... : ... .. . ... ...
ROW A4 : ... .. . ... ... ... : D-3 00 4 P81 ... ... : ... .. . ... : ... .. . ... : ... .. . ... ... : ... .. 3 ... ... : ... .. 3 ... ... : ... .. . ... ...
ROW A5 : ... .. . ... ... ... : ... .. 6 ... ... ... : ... .. . ... : ... .. . ... : ... .. . ... ... : ... .. . ... ... : ... .. . ... ... : ... .. . ... ...
ROW A6 : ... .. . ... ... ... : ... .. 0 ... ... ... : ... .. . ... : ... .. . ... : ... .. . ... ... : ... .. . ... ... : ... .. . ... ... : ... .. . ... ...
ROW A7 : ... .. . ... ... ... : ... .. . ... ... ... : ... .. . ... : ... .. . ... : ... .. . ... ... : ... .. . ... ... : ... .. . ... ... : ... .. . ... ...
ROW A8 : ... .. . ... ... ... : ... .. . ... ... ... : ... .. . ... : ... .. . ... : ... .. . ... ... : ... .. . ... ... : ... .. . ... ... : ... .. . ... ...
ROW A9 : ... .. . ... ... ... : ... .. . ... ... ... : ... .. . ... : ... .. . ... : ... .. . ... ... : ... .. . ... ... : ... .. . ... ... : ... .. . ... ...
ROW AA : ... .. 6 ... ... ... : A-2 00 5 P81 ... ... : ... .. . ... : ... .. . ... : ... .. . ... ... : ... .. . ... ... : ... .. . ... ... : ... .. . ... ...
ROW AB : ... .. . ... ... ... : ... .. 8 ... ... ... : ... .. . ... : ... .. . ... : ... .. . ... ... : ... .. . ... ... : ... .. . ... ... : ... .. . ... ...
ROW AC : ... .. . ... ... ... : ... .. 5 ... ... ... : ... .. . ... : ... .. . ... : ... .. . ... ... : ... .. . ... ... : ... .. . ... ... : ... .. . ... ...
ROW AD : ... .. . ... ... ... : ... .. 0 ... ... ... : ... .. . ... : ... .. . ... : ... .. . ... ... : ... .. . ... ... : ... .. . ... ... : ... .. . ... ...
ROW AE : ... .. . ... ... ... : A-2 00 4 P81 ... ... : ... .. . ... : ... .. . ... : ... .. . ... ... : ... .. . ... ... : ... .. . ... ... : ... .. . ... ...
ROW AF : ... .. . ... ... ... : ... .. 6 ... ... ... : ... .. . ... : ... .. . ... : ... .. . ... ... : ... .. . ... ... : ... .. . ... ... : ... .. . ... ...
ROW B0 : ... .. . ... ... ... : ... .. 0 ... ... ... : ... .. . ... : ... .. . ... : ... .. . ... ... : ... .. . ... ... : ... .. . ... ... : ... .. . ... ...
ROW B1 : ... .. . ... ... ... : ... .. . ... ... ... : ... .. . ... : ... .. . ... : ... .. . ... ... : ... .. . ... ... : ... .. . ... ... : ... .. . ... ...
ROW B2 : ... .. . ... ... ... : ... .. . ... ... ... : ... .. . ... : ... .. . ... : ... .. . ... ... : ... .. . ... ... : ... .. . ... ... : ... .. . ... ...
ROW B3 : ... .. . ... ... ... : ... .. . ... ... ... : ... .. . ... : ... .. . ... : ... .. . ... ... : ... .. . ... ... : ... .. . ... ... : ... .. . ... ...
ROW B4 : ... .. 7 ... ... ... : D-3 00 5 P81 ... ... : D-3 00 . ... : ... .. . ... : ... .. . ... ... : ... .. . ... ... : ... .. . ... ... : ... .. . ... ...
ROW B5 : ... .. . ... ... ... : ... .. 8 ... ... ... : ... .. . ... : ... .. . ... : ... .. . ... ... : ... .. 2 ... ... : ... .. 2 ... ... : ... .. . ... ...
ROW B6 : ... .. . ... ... ... : ... .. 5 ... ... ... : ... .. . ... : ... .. . ... : ... .. . ... ... : ... .. . ... ... : ... .. . ... ... : ... .. . ... ...
ROW B7 : ... .. . ... ... ... : ... .. 0 ... ... ... : ... .. . ... : ... .. . ... : ... .. . ... ... : ... .. . ... ... : ... .. . ... ... : ... .. . ... ...
ROW B8 : ... .. . ... ... ... : D-3 00 4 P81 ... ... : ... .. . ... : ... .. . ... : ... .. . ... ... : ... .. 1 ... ... : ... .. 1 ... ... : ... .. . ... ...
ROW B9 : ... .. 8 ... ... ... : ... .. 6 ... ... ... : ... .. . ... : ... .. . ... : ... .. . ... ... : ... .. . ... ... : ... .. . ... ... : ... .. . ... ...
ROW BA : ... .. . ... ... ... : ... .. 0 ... ... ... : ... .. . ... : ... .. . ... : ... .. . ... ... : ... .. . ... ... : ... .. . ... ... : ... .. . ... ...
ROW BB : ... .. . ... ... ... : ... .. . ... ... ... : ... .. . ... : ... .. . ... : ... .. . ... ... : ... .. . ... ... : ... .. . ... ... : ... .. . ... ...
ROW BC : ... .. . ... ... ... : ... .. . ... ... ... : ... .. . ... : ... .. . ... : ... .. . ... ... : ... .. . ... ... : ... .. . ... ... : ... .. . ... ...
ROW BD : ... .. . ... ... ... : ... .. . ... ... ... : ... .. . ... : ... .. . ... : ... .. . ... ... : ... .. . ... ... : ... .. . ... ... : ... .. . ... ...
ROW BE : ... .. . ... ... ... : A-2 00 5 P81 ... ... : C#3 00 . ... : ... .. . ... : ... .. . ... ... : ... .. . ... ... : ... .. . ... ... : ... .. . ... ...
ROW BF : ... .. . ... ... ... : ... .. 8 ... ... ... : ... .. . ... : ... .. . ... : ... .. . ... ... : ... .. . ... ... : ... .. . ... ... : ... .. . ... ...
ROW C0 : ... .. . ... ... ... : ... .. 5 ... ... ... : ... .. . ... : ... .. . ... : ... .. . ... ... : ... .. . ... ... : ... .. . ... ... : ... .. . ... ...
ROW C1 : ... .. . ... ... ... : ... .. 0 ... ... ... : ... .. . ... : ... .. . ... : ... .. . ... ... : ... .. . ... ... : ... .. . ... ... : ... .. . ... ...
ROW C2 : ... .. . ... ... ... : A-2 00 4 P81 ... ... : ... .. . ... : ... .. . ... : ... .. . ... ... : ... .. . ... ... : ... .. . ... ... : ... .. . ... ...
ROW C3 : ... .. 9 ... ... ... : ... .. 6 ... ... ... : ... .. . ... : ... .. . ... : ... .. . ... ... : ... .. . ... ... : ... .. . ... ... : ... .. . ... ...
ROW C4 : ... .. . ... ... ... : ... .. 0 ... ... ... : ... .. . ... : ... .. . ... : ... .. . ... ... : ... .. . ... ... : ... .. . ... ... : ... .. . ... ...
ROW C5 : ... .. . ... ... ... : ... .. . ... ... ... : ... .. . ... : ... .. . ... : ... .. . ... ... : ... .. . ... ... : ... .. . ... ... : ... .. . ... ...
ROW C6 : ... .. . ... ... ... : ... .. . ... ... ... : ... .. . ... : ... .. . ... : ... .. . ... ... : ... .. . ... ... : ... .. . ... ... : ... .. . ... ...
ROW C7 : ... .. . ... ... ... : ... .. . ... ... ... : ... .. . ... : ... .. . ... : ... .. . ... ... : ... .. . ... ... : ... .. . ... ... : ... .. . ... ...
ROW C8 : ... .. 8 ... ... ... : D-3 00 5 P81 ... ... : D-3 00 . ... : ... .. . ... : ... .. . ... ... : D-3 01 4 ... ... : A-3 01 4 ... ... : C#4 01 3 ... ...
ROW C9 : ... .. . ... ... ... : ... .. 8 ... ... ... : ... .. . ... : ... .. . ... : ... .. . ... ... : ... .. . ... ... : ... .. . ... ... : ... .. 4 ... ...
ROW CA : ... .. . ... ... ... : ... .. 5 ... ... ... : ... .. . ... : ... .. . ... : ... .. . ... ... : ... .. . ... ... : ... .. . ... ... : ... .. . ... ...
ROW CB : ... .. . ... ... ... : ... .. 0 ... ... ... : ... .. . ... : ... .. . ... : ... .. . ... ... : ... .. . ... ... : ... .. . ... ... : ... .. . ... ...
ROW CC : ... .. . ... ... ... : D-3 00 4 P81 ... ... : ... .. . ... : ... .. . ... : ... .. . ... ... : ... .. 3 ... ... : ... .. 3 ... ... : ... .. . ... ...
ROW CD : ... .. . ... ... ... : ... .. 6 ... ... ... : ... .. . ... : ... .. . ... : ... .. . ... ... : ... .. . ... ... : ... .. . ... ... : ... .. . ... ...
ROW CE : ... .. . ... ... ... : ... .. 0 ... ... ... : ... .. . ... : ... .. . ... : ... .. . ... ... : ... .. . ... ... : ... .. . ... ... : ... .. . ... ...
ROW CF : ... .. . ... ... ... : ... .. . ... ... ... : ... .. . ... : ... .. . ... : ... .. . ... ... : ... .. . ... ... : ... .. . ... ... : ... .. . ... ...
ROW D0 : ... .. . ... ... ... : ... .. . ... ... ... : ... .. . ... : ... .. . ... : ... .. . ... ... : ... .. . ... ... : ... .. . ... ... : ... .. . ... ...
ROW D1 : ... .. . ... ... ... : ... .. . ... ... ... : ... .. . ... : ... .. . ... : ... .. . ... ... : ... .. . ... ... : ... .. . ... ... : ... .. . ... ...
ROW D2 : ... .. 7 ... ... ... : A-2 00 5 P81 ... ... : E-3 00 . ... : ... .. . ... : ... .. . ... ... : ... .. . ... ... : ... .. . ... ... : ... .. . ... ...
ROW D3 : ... .. . ... ... ... : ... .. 8 ... ... ... : ... .. . ... : ... .. . ... : ... .. . ... ... : ... .. . ... ... : ... .. . ... ... : ... .. . ... ...
ROW D4 : ... .. . ... ... ... : ... .. 5 ... ... ... : ... .. . ... : ... .. . ... : ... .. . ... ... : ... .. . ... ... : ... .. . ... ... : ... .. . ... ...
ROW D5 : ... .. . ... ... ... : ... .. 0 ... ... ... : ... .. . ... : ... .. . ... : ... .. . ... ... : ... .. . ... ... : ... .. . ... ... : ... .. . ... ...
ROW D6 : ... .. . ... ... ... : A-2 00 4 P81 ... ... : ... .. . ... : ... .. . ... : ... .. . ... ... : ... .. . ... ... : ... .. . ... ... : ... .. . ... ...
ROW D7 : ... .. 6 ... ... ... : ... .. 6 ... ... ... : ... .. . ... : ... .. . ... : ... .. . ... ... : ... .. . ... ... : ... .. . ... ... : ... .. . ... ...
ROW D8 : ... .. . ... ... ... : ... .. 0 ... ... ... : ... .. . ... : ... .. . ... : ... .. . ... ... : ... .. . ... ... : ... .. . ... ... : ... .. . ... ...
ROW D9 : ... .. . ... ... ... : ... .. . ... ... ... : ... .. . ... : ... .. . ... : ... .. . ... ... : ... .. . ... ... : ... .. . ... ... : ... .. . ... ...
ROW DA : ... .. . ... ... ... : ... .. . ... ... ... : ... .. . ... : ... .. . ... : ... .. . ... ... : ... .. . ... ... : ... .. . ... ... : ... .. . ... ...
ROW DB : ... .. . ... ... ... : ... .. . ... ... ... : ... .. . ... : ... .. . ... : ... .. . ... ... : ... .. . ... ... : ... .. . ... ... : ... .. . ... ...
ROW DC : ... .. . ... ... ... : D-3 00 5 P81 ... ... : F#3 00 . ... : ... .. . ... : ... .. . ... ... : ... .. . ... ... : ... .. . ... ... : ... .. . ... ...
ROW DD : ... .. . ... ... ... : ... .. 8 ... ... ... : ... .. . ... : ... .. . ... : ... .. . ... ... : ... .. 2 ... ... : ... .. 2 ... ... : ... .. . ... ...
ROW DE : ... .. . ... ... ... : ... .. 5 ... ... ... : ... .. . ... : ... .. . ... : ... .. . ... ... : ... .. . ... ... : ... .. . ... ... : ... .. . ... ...
ROW DF : ... .. . ... ... ... : ... .. 0 ... ... ... : ... .. . ... : ... .. . ... : ... .. . ... ... : ... .. . ... ... : ... .. . ... ... : ... .. . ... ...
ROW E0 : ... .. . ... ... ... : D-3 00 4 P81 ... ... : ... .. . ... : ... .. . ... : ... .. . ... ... : ... .. 1 ... ... : ... .. 1 ... ... : ... .. . ... ...
ROW E1 : ... .. 5 ... ... ... : ... .. 6 ... ... ... : ... .. . ... : ... .. . ... : ... .. . ... ... : ... .. . ... ... : ... .. . ... ... : ... .. . ... ...
ROW E2 : ... .. . ... ... ... : ... .. 0 ... ... ... : ... .. . ... : ... .. . ... : ... .. . ... ... : ... .. . ... ... : ... .. . ... ... : ... .. . ... ...
ROW E3 : ... .. . ... ... ... : ... .. . ... ... ... : ... .. . ... : ... .. . ... : ... .. . ... ... : ... .. . ... ... : ... .. . ... ... : ... .. . ... ...
ROW E4 : ... .. . ... ... ... : ... .. . ... ... ... : ... .. . ... : ... .. . ... : ... .. . ... ... : ... .. . ... ... : ... .. . ... ... : ... .. . ... ...
ROW E5 : ... .. . ... ... ... : ... .. . ... ... ... : ... .. . ... : ... .. . ... : ... .. . ... ... : ... .. . ... ... : ... .. . ... ... : ... .. . ... ...
ROW E6 : ... .. . P82 ... ... : A-2 00 5 P81 ... ... : A-3 00 . ... : ... .. . ... : ... .. . ... ... : ... .. . ... ... : ... .. . ... ... : ... .. . ... ...
ROW E7 : ... .. . P83 ... ... : ... .. 8 ... ... ... : ... .. . ... : ... .. . ... : ... .. . ... ... : ... .. . ... ... : ... .. . ... ... : ... .. . ... ...
ROW E8 : ... .. . ... ... ... : ... .. 5 ... ... ... : ... .. . ... : ... .. . ... : ... .. . ... ... : ... .. . ... ... : ... .. . ... ... : ... .. . ... ...
ROW E9 : ... .. . P82 ... ... : ... .. 0 ... ... ... : ... .. . ... : ... .. . ... : ... .. . ... ... : ... .. . ... ... : ... .. . ... ... : ... .. . ... ...
ROW EA : ... .. . P80 ... ... : A-2 00 4 P81 ... ... : ... .. . ... : ... .. . ... : ... .. . ... ... : ... .. . ... ... : ... .. . ... ... : ... .. . ... ...
ROW EB : ... .. . P7F ... ... : ... .. 6 ... ... ... : ... .. . ... : ... .. . ... : ... .. . ... ... : ... .. . ... ... : ... .. . ... ... : ... .. . ... ...
ROW EC : ... .. . P7D ... ... : ... .. 0 ... ... ... : ... .. . ... : ... .. . ... : ... .. . ... ... : ... .. . ... ... : ... .. . ... ... : ... .. . ... ...
ROW ED : ... .. . ... ... ... : ... .. . ... ... ... : ... .. . ... : ... .. . ... : ... .. . ... ... : ... .. . ... ... : ... .. . ... ... : ... .. . ... ...
ROW EE : ... .. . ... ... ... : ... .. . ... ... ... : ... .. . ... : ... .. . ... : ... .. . ... ... : ... .. . ... ... : ... .. . ... ... : ... .. . ... ...
ROW EF : ... .. . P7F ... ... : ... .. . ... ... ... : ... .. . ... : ... .. . ... : ... .. . ... ... : ... .. . ... ... : ... .. . ... ... : ... .. . ... ...
ROW F0 : ... .. . P80 ... ... : C#3 00 5 P81 ... ... : G#3 00 . ... : ... .. . ... : ... .. . ... ... : F#3 01 4 ... ... : D-4 01 4 ... ... : B-3 01 3 ... ...
ROW F1 : ... .. . P82 ... ... : ... .. 8 ... ... ... : ... .. . ... : ... .. . ... : ... .. . ... ... : ... .. . ... ... : ... .. . ... ... : ... .. 4 ... ...
ROW F2 : ... .. . P83 ... ... : ... .. 5 ... ... ... : ... .. . ... : ... .. . ... : ... .. . ... ... : ... .. . ... ... : ... .. . ... ... : ... .. . ... ...
ROW F3 : ... .. . ... ... ... : ... .. 0 ... ... ... : ... .. . ... : ... .. . ... : ... .. . ... ... : ... .. . ... ... : ... .. . ... ... : ... .. . ... ...
ROW F4 : ... .. . P81 ... ... : C#3 00 4 P81 ... ... : ... .. . ... : ... .. . ... : ... .. . ... ... : ... .. 3 ... ... : ... .. 3 ... ... : ... .. . ... ...
ROW F5 : ... .. . P80 ... ... : ... .. 6 ... ... ... : ... .. . ... : ... .. . ... : ... .. . ... ... : ... .. . ... ... : ... .. . ... ... : ... .. . ... ...
ROW F6 : ... .. . P7E ... ... : ... .. 0 ... ... ... : ... .. . ... : ... .. . ... : ... .. . ... ... : ... .. . ... ... : ... .. . ... ... : ... .. . ... ...
ROW F7 : ... .. . P7D ... ... : ... .. . ... ... ... : ... .. . ... : ... .. . ... : ... .. . ... ... : ... .. . ... ... : ... .. . ... ... : ... .. . ... ...
ROW F8 : ... .. . ... ... ... : ... .. . ... ... ... : ... .. . ... : ... .. . ... : ... .. . ... ... : ... .. . ... ... : ... .. . ... ... : ... .. . ... ...
ROW F9 : ... .. . P7E ... ... : ... .. . ... ... ... : ... .. . ... : ... .. . ... : ... .. . ... ... : ... .. . ... ... : ... .. . ... ... : ... .. . ... ...
ROW FA : ... .. . P80 ... ... : F#2 00 5 P81 ... ... : ... .. . ... : ... .. . ... : ... .. . ... ... : G#3 01 4 ... ... : E-4 01 4 ... ... : ... .. . ... ...
ROW FB : ... .. . P81 ... ... : ... .. 8 ... ... ... : ... .. . ... : ... .. . ... : ... .. . ... ... : ... .. . ... ... : ... .. . ... ... : ... .. . ... ...
ROW FC : ... .. . P83 ... ... : ... .. 5 ... ... ... : ... .. . ... : ... .. . ... : ... .. . ... ... : ... .. . ... ... : ... .. . ... ... : ... .. . ... ...
ROW FD : ... .. . ... ... ... : ... .. 0 ... ... ... : ... .. . ... : ... .. . ... : ... .. . ... ... : ... .. . ... ... : ... .. . ... ... : ... .. . ... ...
ROW FE : ... .. . ... ... ... : F#2 00 4 P81 ... ... : ... .. . ... : ... .. . ... : ... .. . ... ... : ... .. 3 ... ... : ... .. 3 ... ... : ... .. . ... ...
ROW FF : ... .. . P81 ... ... : ... .. 6 ... ... ... : ... .. . ... : ... .. . ... : ... .. . ... ... : ... .. . ... ... : ... .. . ... ... : ... .. . ... ...

PATTERN 1A
ROW 00 : ... .. . P80 ... ... : ... .. 0 ... ... ... : ... .. . ... : ... .. . ... : ... .. . ... ... : ... .. . ... ... : ... .. . ... ... : ... .. . ... ...
ROW 01 : ... .. . P7E ... ... : ... .. . ... ... ... : ... .. . ... : ... .. . ... : ... .. . ... ... : ... .. . ... ... : ... .. . ... ... : ... .. . ... ...
ROW 02 : ... .. . P7D ... ... : ... .. . ... ... ... : ... .. . ... : ... .. . ... : ... .. . ... ... : ... .. . ... ... : ... .. . ... ... : ... .. . ... ...
ROW 03 : ... .. . ... ... ... : ... .. . ... ... ... : ... .. . ... : ... .. . ... : ... .. . ... ... : ... .. . ... ... : ... .. . ... ... : ... .. . ... ...
ROW 04 : ... .. . P7F ... ... : C#3 00 5 P81 ... ... : ... .. . ... : ... .. . ... : ... .. . ... ... : A-3 01 4 ... ... : F#4 01 4 ... ... : A-3 01 3 ... ...
ROW 05 : ... .. . P80 ... ... : ... .. 8 ... ... ... : ... .. . ... : ... .. . ... : ... .. . ... ... : ... .. . ... ... : ... .. . ... ... : ... .. 4 ... ...
ROW 06 : ... .. . P82 ... ... : ... .. 5 ... ... ... : ... .. . ... : ... .. . ... : ... .. . ... ... : ... .. . ... ... : ... .. . ... ... : ... .. . ... ...
ROW 07 : ... .. . P83 ... ... : ... .. 0 ... ... ... : ... .. . ... : ... .. . ... : ... .. . ... ... : ... .. . ... ... : ... .. . ... ... : ... .. . ... ...
ROW 08 : ... .. . ... ... ... : C#3 00 4 P81 ... ... : ... .. . ... : ... .. . ... : ... .. . ... ... : ... .. 3 ... ... : ... .. 3 ... ... : ... .. . ... ...
ROW 09 : ... .. . P82 ... ... : ... .. 6 ... ... ... : ... .. . ... : ... .. . ... : ... .. . ... ... : ... .. . ... ... : ... .. . ... ... : ... .. . ... ...
ROW 0A : ... .. . P80 ... ... : ... .. 0 ... ... ... : ... .. . ... : ... .. . ... : ... .. . ... ... : ... .. . ... ... : ... .. . ... ... : ... .. . ... ...
ROW 0B : ... .. . P7F ... ... : ... .. . ... ... ... : ... .. . ... : ... .. . ... : ... .. . ... ... : ... .. . ... ... : ... .. . ... ... : ... .. . ... ...
ROW 0C : ... .. . P7D ... ... : ... .. . ... ... ... : ... .. . ... : ... .. . ... : ... .. . ... ... : ... .. . ... ... : ... .. . ... ... : ... .. . ... ...
ROW 0D : ... .. . ... ... ... : ... .. . ... ... ... : ... .. . ... : ... .. . ... : ... .. . ... ... : ... .. . ... ... : ... .. . ... ... : ... .. . ... ...
ROW 0E : ... .. 6 ... ... ... : F#2 00 5 P81 ... ... : ... .. . ... : ... .. . ... : ... .. . ... ... : ... .. . ... ... : ... .. . ... ... : ... .. . ... ...
ROW 0F : ... .. . P7F ... ... : ... .. 8 ... ... ... : ... .. . ... : ... .. . ... : ... .. . ... ... : ... .. 2 ... ... : ... .. 2 ... ... : ... .. . ... ...
ROW 10 : ... .. . P80 ... ... : ... .. 5 ... ... ... : ... .. . ... : ... .. . ... : ... .. . ... ... : ... .. . ... ... : ... .. . ... ... : ... .. . ... ...
ROW 11 : ... .. . P82 ... ... : ... .. 0 ... ... ... : ... .. . ... : ... .. . ... : ... .. . ... ... : ... .. . ... ... : ... .. . ... ... : ... .. . ... ...
ROW 12 : ... .. . P83 ... ... : F#2 00 4 P81 ... ... : ... .. . ... : ... .. . ... : ... .. . ... ... : ... .. 1 ... ... : ... .. 1 ... ... : ... .. . ... ...
ROW 13 : ... .. . ... ... ... : ... .. 6 ... ... ... : ... .. . ... : ... .. . ... : ... .. . ... ... : ... .. . ... ... : ... .. . ... ... : ... .. . ... ...
ROW 14 : ... .. . P81 ... ... : ... .. 0 ... ... ... : ... .. . ... : ... .. . ... : ... .. . ... ... : ... .. . ... ... : ... .. . ... ... : ... .. . ... ...
ROW 15 : ... .. . P80 ... ... : ... .. . ... ... ... : ... .. . ... : ... .. . ... : ... .. . ... ... : ... .. . ... ... : ... .. . ... ... : ... .. . ... ...
ROW 16 : ... .. . P7E ... ... : ... .. . ... ... ... : ... .. . ... : ... .. . ... : ... .. . ... ... : ... .. . ... ... : ... .. . ... ... : ... .. . ... ...
ROW 17 : ... .. . P7D ... ... : ... .. . ... ... ... : ... .. . ... : ... .. . ... : ... .. . ... ... : ... .. . ... ... : ... .. . ... ... : ... .. . ... ...
ROW 18 : ... .. . ... ... ... : D#3 00 5 P81 ... ... : ... .. . ... : ... .. . ... : ... .. . ... ... : F#3 01 4 ... ... : G#4 01 4 ... ... : ... .. 3 ... ...
ROW 19 : ... .. . P7E ... ... : ... .. 8 ... ... ... : ... .. . ... : ... .. . ... : ... .. . ... ... : ... .. . ... ... : ... .. . ... ... : ... .. 4 ... ...
ROW 1A : ... .. . P80 ... ... : ... .. 5 ... ... ... : ... .. . ... : ... .. . ... : ... .. . ... ... : ... .. . ... ... : ... .. . ... ... : ... .. . ... ...
ROW 1B : ... .. . P81 ... ... : ... .. 0 ... ... ... : ... .. . ... : ... .. . ... : ... .. . ... ... : ... .. . ... ... : ... .. . ... ... : ... .. . ... ...
ROW 1C : ... .. . P83 ... ... : D#3 00 4 P81 ... ... : ... .. . ... : ... .. . ... : ... .. . ... ... : ... .. 3 ... ... : ... .. 3 ... ... : ... .. . ... ...
ROW 1D : ... .. . ... ... ... : ... .. 6 ... ... ... : ... .. . ... : ... .. . ... : ... .. . ... ... : ... .. . ... ... : ... .. . ... ... : ... .. . ... ...
ROW 1E : ... .. . ... ... ... : ... .. 0 ... ... ... : ... .. . ... : ... .. . ... : ... .. . ... ... : ... .. . ... ... : ... .. . ... ... : ... .. . ... ...
ROW 1F : ... .. . P81 ... ... : ... .. . ... ... ... : ... .. . ... : ... .. . ... : ... .. . ... ... : ... .. . ... ... : ... .. . ... ... : ... .. . ... ...
ROW 20 : ... .. . P80 ... ... : ... .. . ... ... ... : ... .. . ... : ... .. . ... : ... .. . ... ... : ... .. . ... ... : ... .. . ... ... : ... .. . ... ...
ROW 21 : ... .. . P7E ... ... : ... .. . ... ... ... : ... .. . ... : ... .. . ... : ... .. . ... ... : ... .. . ... ... : ... .. . ... ... : ... .. . ... ...
ROW 22 : ... .. . P7D ... ... : F#2 00 5 P81 ... ... : ... .. . ... : ... .. . ... : ... .. . ... ... : ... .. . ... ... : ... .. . ... ... : ... .. . ... ...
ROW 23 : ... .. . ... ... ... : ... .. 8 ... ... ... : ... .. . ... : ... .. . ... : ... .. . ... ... : ... .. . ... ... : ... .. . ... ... : ... .. . ... ...
ROW 24 : ... .. . P7F ... ... : ... .. 5 ... ... ... : ... .. . ... : ... .. . ... : ... .. . ... ... : ... .. . ... ... : ... .. . ... ... : ... .. . ... ...
ROW 25 : ... .. . P80 ... ... : ... .. 0 ... ... ... : ... .. . ... : ... .. . ... : ... .. . ... ... : ... .. . ... ... : ... .. . ... ... : ... .. . ... ...
ROW 26 : ... .. . P82 ... ... : F#2 00 4 P81 ... ... : ... .. . ... : ... .. . ... : ... .. . ... ... : ... .. . ... ... : ... .. . ... ... : ... .. . ... ...
ROW 27 : ... .. . P83 ... ... : ... .. 6 ... ... ... : ... .. . ... : ... .. . ... : ... .. . ... ... : ... .. . ... ... : ... .. . ... ... : ... .. . ... ...
ROW 28 : ... .. . ... ... ... : ... .. 0 ... ... ... : ... .. . ... : ... .. . ... : ... .. . ... ... : ... .. . ... ... : ... .. . ... ... : ... .. . ... ...
ROW 29 : ... .. . P82 ... ... : ... .. . ... ... ... : ... .. . ... : ... .. . ... : ... .. . ... ... : ... .. . ... ... : ... .. . ... ... : ... .. . ... ...
ROW 2A : ... .. . P80 ... ... : ... .. . ... ... ... : ... .. . ... : ... .. . ... : ... .. . ... ... : ... .. . ... ... : ... .. . ... ... : ... .. . ... ...
ROW 2B : ... .. . P7F ... ... : ... .. . ... ... ... : ... .. . ... : ... .. . ... : ... .. . ... ... : ... .. . ... ... : ... .. . ... ... : ... .. . ... ...
ROW 2C : ... .. . P7D ... ... : D#3 00 5 P81 ... ... : G#2 00 . ... : ... .. . ... : ... .. . ... ... : ... .. 4 ... ... : D#4 01 4 ... ... : G#3 01 3 ... ...
ROW 2D : ... .. . ... ... ... : ... .. 8 ... ... ... : ... .. . ... : ... .. . ... : ... .. . ... ... : ... .. . ... ... : ... .. . ... ... : ... .. 4 ... ...
ROW 2E : ... .. . ... ... ... : ... .. 5 ... ... ... : ... .. . ... : ... .. . ... : ... .. . ... ... : ... .. . ... ... : ... .. . ... ... : ... .. . ... ...
ROW 2F : ... .. . P7F ... ... : ... .. 0 ... ... ... : ... .. . ... : ... .. . ... : ... .. . ... ... : ... .. . ... ... : ... .. . ... ... : ... .. . ... ...
ROW 30 : ... .. . P80 ... ... : D#3 00 4 P81 ... ... : ... .. . ... : ... .. . ... : ... .. . ... ... : ... .. 3 ... ... : ... .. 3 ... ... : ... .. . ... ...
ROW 31 : ... .. . P82 ... ... : ... .. 6 ... ... ... : ... .. . ... : ... .. . ... : ... .. . ... ... : ... .. . ... ... : ... .. . ... ... : ... .. . ... ...
ROW 32 : ... .. . P83 ... ... : ... .. 0 ... ... ... : ... .. . ... : ... .. . ... : ... .. . ... ... : ... .. . ... ... : ... .. . ... ... : ... .. . ... ...
ROW 33 : ... .. . ... ... ... : ... .. . ... ... ... : ... .. . ... : ... .. . ... : ... .. . ... ... : ... .. . ... ... : ... .. . ... ... : ... .. . ... ...
ROW 34 : ... .. . P81 ... ... : ... .. . ... ... ... : ... .. . ... : ... .. . ... : ... .. . ... ... : ... .. . ... ... : ... .. . ... ... : ... .. . ... ...
ROW 35 : ... .. . P80 ... ... : ... .. . ... ... ... : ... .. . ... : ... .. . ... : ... .. . ... ... : ... .. . ... ... : ... .. . ... ... : ... .. . ... ...
ROW 36 : ... .. . P7E ... ... : F#2 00 5 P81 ... ... : ... .. . ... : ... .. . ... : ... .. . ... ... : ... .. . ... ... : ... .. . ... ... : ... .. . ... ...
ROW 37 : ... .. . P7D ... ... : ... .. 8 ... ... ... : ... .. . ... : ... .. . ... : ... .. . ... ... : ... .. . ... ... : ... .. . ... ... : ... .. . ... ...
ROW 38 : ... .. . ... ... ... : ... .. 5 ... ... ... : ... .. . ... : ... .. . ... : ... .. . ... ... : ... .. . ... ... : ... .. . ... ... : ... .. . ... ...
ROW 39 : ... .. . P7E ... ... : ... .. 0 ... ... ... : ... .. . ... : ... .. . ... : ... .. . ... ... : ... .. . ... ... : ... .. . ... ... : ... .. . ... ...
ROW 3A : ... .. . P80 ... ... : F#2 00 4 P81 ... ... : ... .. . ... : ... .. . ... : ... .. . ... ... : ... .. . ... ... : ... .. . ... ... : ... .. . ... ...
ROW 3B : ... .. . P81 ... ... : ... .. 6 ... ... ... : ... .. . ... : ... .. . ... : ... .. . ... ... : ... .. . ... ... : ... .. . ... ... : ... .. . ... ...
ROW 3C : ... .. 1 P83 ... ... : ... .. 0 ... ... ... : ... .. . ... : ... .. . ... : ... .. . ... ... : ... .. . ... ... : ... .. . ... ... : ... .. . ... ...
ROW 3D : ... .. . ... ... ... : ... .. . ... ... ... : ... .. . ... : ... .. . ... : ... .. . ... ... : ... .. . ... ... : ... .. . ... ... : ... .. . ... ...
ROW 3E : ... .. . ... ... ... : ... .. . ... ... ... : ... .. . ... : ... .. . ... : ... .. . ... ... : ... .. . ... ... : ... .. . ... ... : ... .. . ... ...
ROW 3F : ... .. . P81 ... ... : ... .. . ... ... ... : ... .. . ... : ... .. . ... : ... .. . ... ... : ... .. . ... ... : ... .. . ... ... : ... .. . ... ...
ROW 40 : D#3 00 F P80 ... ... : F-3 00 5 P81 ... ... : C#3 00 . ... : ... .. . ... : ... .. . ... ... : G#3 01 1 ... ... : F-4 01 1 ... ... : D#4 01 1 ... ...
ROW 41 : ... .. E ... ... ... : ... .. 8 ... ... ... : ... .. . ... : ... .. . ... : ... .. . ... ... : ... .. . ... ... : ... .. . ... ... : ... .. . ... ...
ROW 42 : ... .. D ... ... ... : ... .. 5 ... ... ... : ... .. . ... : ... .. . ... : ... .. . ... ... : ... .. . ... ... : ... .. . ... ... : ... .. . ... ...
ROW 43 : ... .. A ... ... ... : ... .. 0 ... ... ... : ... .. . ... : ... .. . ... : ... .. . ... ... : ... .. . ... ... : ... .. . ... ... : ... .. . ... ...
ROW 44 : ... .. . ... ... ... : F-3 00 4 P81 ... ... : ... .. . ... : ... .. . ... : ... .. . ... ... : ... .. . ... ... : ... .. . ... ... : ... .. . ... ...
ROW 45 : ... .. 9 ... ... ... : ... .. 6 ... ... ... : ... .. . ... : ... .. . ... : ... .. . ... ... : ... .. . ... ... : ... .. . ... ... : ... .. . ... ...
ROW 46 : ... .. . ... ... ... : ... .. 0 ... ... ... : ... .. . ... : ... .. . ... : ... .. . ... ... : ... .. . ... ... : ... .. . ... ... : ... .. . ... ...
ROW 47 : ... .. . ... ... ... : ... .. . ... ... ... : ... .. . ... : ... .. . ... : ... .. . ... ... : ... .. . ... ... : ... .. . ... ... : ... .. . ... ...
ROW 48 : ... .. . ... ... ... : ... .. . ... ... ... : ... .. . ... : ... .. . ... : ... .. . ... ... : ... .. . ... ... : ... .. . ... ... : ... .. . ... ...
ROW 49 : ... .. . ... ... ... : ... .. . ... ... ... : ... .. . ... : ... .. . ... : ... .. . ... ... : ... .. . ... ... : ... .. . ... ... : ... .. . ... ...
ROW 4A : ... .. . ... ... ... : C#3 00 5 P81 ... ... : ... .. . ... : ... .. . ... : ... .. . ... ... : ... .. . ... ... : ... .. . ... ... : ... .. . ... ...
ROW 4B : ... .. . ... ... ... : ... .. 8 ... ... ... : ... .. . ... : ... .. . ... : ... .. . ... ... : ... .. . ... ... : ... .. . ... ... : ... .. . ... ...
ROW 4C : ... .. . ... ... ... : ... .. 5 ... ... ... : ... .. . ... : ... .. . ... : ... .. . ... ... : ... .. . ... ... : ... .. . ... ... : ... .. . ... ...
ROW 4D : ... .. . ... ... ... : ... .. 0 ... ... ... : ... .. . ... : ... .. . ... : ... .. . ... ... : ... .. . ... ... : ... .. . ... ... : ... .. . ... ...
ROW 4E : ... .. . ... ... ... : C#3 00 4 P81 ... ... : ... .. . ... : ... .. . ... : ... .. . ... ... : ... .. . ... ... : ... .. . ... ... : ... .. . ... ...
ROW 4F : ... .. . ... ... ... : ... .. 6 ... ... ... : ... .. . ... : ... .. . ... : ... .. . ... ... : ... .. . ... ... : ... .. . ... ... : ... .. . ... ...
ROW 50 : ... .. . ... ... ... : ... .. 0 ... ... ... : ... .. . ... : ... .. . ... : ... .. . ... ... : ... .. . ... ... : ... .. . ... ... : ... .. . ... ...
ROW 51 : ... .. . ... ... ... : ... .. . ... ... ... : ... .. . ... : ... .. . ... : ... .. . ... ... : ... .. . ... ... : ... .. . ... ... : ... .. . ... ...
ROW 52 : ... .. . ... ... ... : ... .. . ... ... ... : ... .. . ... : ... .. . ... : ... .. . ... ... : ... .. . ... ... : ... .. . ... ... : ... .. . ... ...
ROW 53 : ... .. . ... ... ... : ... .. . ... ... ... : ... .. . ... : ... .. . ... : ... .. . ... ... : ... .. . ... ... : ... .. . ... ... : ... .. . ... ...
ROW 54 : ... .. 8 ... ... ... : F-3 00 5 P81 ... ... : ... .. . ... : ... .. . ... : ... .. . ... ... : ... .. 4 ... ... : ... .. 4 ... ... : ... .. 5 ... ...
ROW 55 : ... .. . ... ... ... : ... .. 8 ... ... ... : ... .. . ... : ... .. . ... : ... .. . ... ... : ... .. . ... ... : ... .. . ... ... : ... .. . ... ...
ROW 56 : ... .. . ... ... ... : ... .. 5 ... ... ... : ... .. . ... : ... .. . ... : ... .. . ... ... : ... .. . ... ... : ... .. . ... ... : ... .. . ... ...
ROW 57 : ... .. . ... ... ... : ... .. 0 ... ... ... : ... .. . ... : ... .. . ... : ... .. . ... ... : ... .. . ... ... : ... .. . ... ... : ... .. . ... ...
ROW 58 : ... .. . ... ... ... : F-3 00 4 P81 ... ... : ... .. . ... : ... .. . ... : ... .. . ... ... : ... .. . ... ... : ... .. . ... ... : ... .. . ... ...
ROW 59 : ... .. . ... ... ... : ... .. 6 ... ... ... : ... .. . ... : ... .. . ... : ... .. . ... ... : ... .. 1 ... ... : ... .. 1 ... ... : ... .. 2 ... ...
ROW 5A : ... .. 1 ... ... ... : ... .. 0 ... ... ... : ... .. . ... : ... .. . ... : ... .. . ... ... : ... .. . ... ... : ... .. . ... ... : ... .. . ... ...
ROW 5B : ... .. . ... ... ... : ... .. . ... ... ... : ... .. . ... : ... .. . ... : ... .. . ... ... : ... .. . ... ... : ... .. . ... ... : ... .. . ... ...
ROW 5C : ... .. . ... ... ... : ... .. . ... ... ... : ... .. . ... : ... .. . ... : ... .. . ... ... : ... .. . ... ... : ... .. . ... ... : ... .. . ... ...
ROW 5D : ... .. . ... ... ... : ... .. . ... ... ... : ... .. . ... : ... .. . ... : ... .. . ... ... : ... .. . ... ... : ... .. . ... ... : ... .. . ... ...
ROW 5E : F-3 00 D ... ... ... : C#3 00 5 P81 ... ... : ... .. . ... : ... .. . ... : ... .. . ... ... : ... .. 4 ... ... : ... .. 4 ... ... : ... .. 5 ... ...
ROW 5F : ... .. C ... ... ... : ... .. 8 ... ... ... : ... .. . ... : ... .. . ... : ... .. . ... ... : ... .. . ... ... : ... .. . ... ... : ... .. . ... ...
ROW 60 : ... .. B ... ... ... : ... .. 5 ... ... ... : ... .. . ... : ... .. . ... : ... .. . ... ... : ... .. . ... ... : ... .. . ... ... : ... .. . ... ...
ROW 61 : ... .. 8 ... ... ... : ... .. 0 ... ... ... : ... .. . ... : ... .. . ... : ... .. . ... ... : ... .. . ... ... : ... .. . ... ... : ... .. . ... ...
ROW 62 : ... .. . ... ... ... : C#3 00 4 P81 ... ... : ... .. . ... : ... .. . ... : ... .. . ... ... : ... .. . ... ... : ... .. . ... ... : ... .. . ... ...
ROW 63 : ... .. . ... ... ... : ... .. 6 ... ... ... : ... .. . ... : ... .. . ... : ... .. . ... ... : ... .. 1 ... ... : ... .. 1 ... ... : ... .. 2 ... ...
ROW 64 : ... .. 1 ... ... ... : ... .. 0 ... ... ... : ... .. . ... : ... .. . ... : ... .. . ... ... : ... .. . ... ... : ... .. . ... ... : ... .. . ... ...
ROW 65 : ... .. . ... ... ... : ... .. . ... ... ... : ... .. . ... : ... .. . ... : ... .. . ... ... : ... .. . ... ... : ... .. . ... ... : ... .. . ... ...
ROW 66 : ... .. . ... ... ... : ... .. . ... ... ... : ... .. . ... : ... .. . ... : ... .. . ... ... : ... .. . ... ... : ... .. . ... ... : ... .. . ... ...
ROW 67 : ... .. . ... ... ... : ... .. . ... ... ... : ... .. . ... : ... .. . ... : ... .. . ... ... : ... .. . ... ... : ... .. . ... ... : ... .. . ... ...
ROW 68 : ... .. C ... ... ... : F-3 00 5 P81 ... ... : ... .. . ... : ... .. . ... : ... .. . ... ... : ... .. 2 ... ... : ... .. 2 ... ... : C#4 01 1 ... ...
ROW 69 : ... .. B ... ... ... : ... .. 8 ... ... ... : ... .. . ... : ... .. . ... : ... .. . ... ... : ... .. . ... ... : ... .. . ... ... : ... .. 2 ... ...
ROW 6A : ... .. A ... ... ... : ... .. 5 ... ... ... : ... .. . ... : ... .. . ... : ... .. . ... ... : ... .. . ... ... : ... .. . ... ... : ... .. . ... ...
ROW 6B : ... .. 8 ... ... ... : ... .. 0 ... ... ... : ... .. . ... : ... .. . ... : ... .. . ... ... : ... .. . ... ... : ... .. . ... ... : ... .. . ... ...
ROW 6C : ... .. . ... ... ... : F-3 00 4 P81 ... ... : ... .. . ... : ... .. . ... : ... .. . ... ... : ... .. 1 ... ... : ... .. 1 ... ... : ... .. . ... ...
ROW 6D : ... .. . ... ... ... : ... .. 6 ... ... ... : ... .. . ... : ... .. . ... : ... .. . ... ... : ... .. . ... ... : ... .. . ... ... : ... .. 1 ... ...
ROW 6E : ... .. . ... ... ... : ... .. 0 ... ... ... : ... .. . ... : ... .. . ... : ... .. . ... ... : ... .. . ... ... : ... .. . ... ... : ... .. . ... ...
ROW 6F : ... .. . ... ... ... : ... .. . ... ... ... : ... .. . ... : ... .. . ... : ... .. . ... ... : ... .. . ... ... : ... .. . ... ... : ... .. . ... ...
ROW 70 : ... .. . ... ... ... : ... .. . ... ... ... : ... .. . ... : ... .. . ... : ... .. . ... ... : ... .. . ... ... : ... .. . ... ... : ... .. . ... ...
ROW 71 : ... .. . ... ... ... : ... .. . ... ... ... : ... .. . ... : ... .. . ... : ... .. . ... ... : ... .. . ... ... : ... .. . ... ... : ... .. . ... ...
ROW 72 : ... .. . ... ... ... : C#3 00 5 P81 ... ... : ... .. . ... : ... .. . ... : ... .. . ... ... : ... .. . ... ... : ... .. . ... ... : ... .. . ... ...
ROW 73 : ... .. . ... ... ... : ... .. 8 ... ... ... : ... .. . ... : ... .. . ... : ... .. . ... ... : ... .. . ... ... : ... .. . ... ... : ... .. . ... ...
ROW 74 : ... .. . ... ... ... : ... .. 5 ... ... ... : ... .. . ... : ... .. . ... : ... .. . ... ... : ... .. . ... ... : ... .. . ... ... : ... .. . ... ...
ROW 75 : ... .. . ... ... ... : ... .. 0 ... ... ... : ... .. . ... : ... .. . ... : ... .. . ... ... : ... .. . ... ... : ... .. . ... ... : ... .. . ... ...
ROW 76 : ... .. . ... ... ... : C#3 00 4 P81 ... ... : ... .. . ... : ... .. . ... : ... .. . ... ... : ... .. . ... ... : ... .. . ... ... : ... .. . ... ...
ROW 77 : ... .. 7 ... ... ... : ... .. 6 ... ... ... : ... .. . ... : ... .. . ... : ... .. . ... ... : ... .. . ... ... : ... .. . ... ... : ... .. . ... ...
ROW 78 : ... .. . ... ... ... : ... .. 0 ... ... ... : ... .. . ... : ... .. . ... : ... .. . ... ... : ... .. . ... ... : ... .. . ... ... : ... .. . ... ...
ROW 79 : ... .. . ... ... ... : ... .. . ... ... ... : ... .. . ... : ... .. . ... : ... .. . ... ... : ... .. . ... ... : ... .. . ... ... : ... .. . ... ...
ROW 7A : ... .. . ... ... ... : ... .. . ... ... ... : ... .. . ... : ... .. . ... : ... .. . ... ... : ... .. . ... ... : ... .. . ... ... : ... .. . ... ...
ROW 7B : ... .. . ... ... ... : ... .. . ... ... ... : ... .. . ... : ... .. . ... : ... .. . ... ... : ... .. . ... ... : ... .. . ... ... : ... .. . ... ...
ROW 7C : ... .. . P84 ... ... : F-3 00 5 P81 ... ... : ... .. . ... : ... .. . ... : ... .. . ... ... : F-3 01 6 ... ... : D#4 01 6 ... ... : ... .. 5 ... ...
ROW 7D : ... .. . P86 ... ... : ... .. 8 ... ... ... : ... .. . ... : ... .. . ... : ... .. . ... ... : ... .. 5 ... ... : ... .. 5 ... ... : ... .. . ... ...
ROW 7E : ... .. . P85 ... ... : ... .. 5 ... ... ... : ... .. . ... : ... .. . ... : ... .. . ... ... : ... .. . ... ... : ... .. . ... ... : ... .. . ... ...
ROW 7F : ... .. . P82 ... ... : ... .. 0 ... ... ... : ... .. . ... : ... .. . ... : ... .. . ... ... : ... .. . ... ... : ... .. . ... ... : ... .. . ... ...
ROW 80 : ... .. . P7E ... ... : F-3 00 4 P81 ... ... : ... .. . ... : ... .. . ... : ... .. . ... ... : ... .. 4 ... ... : ... .. 4 ... ... : ... .. . ... ...
ROW 81 : ... .. . P7B ... ... : ... .. 6 ... ... ... : ... .. . ... : ... .. . ... : ... .. . ... ... : ... .. 1 ... ... : ... .. 1 ... ... : ... .. 2 ... ...
ROW 82 : ... .. . P7A ... ... : ... .. 0 ... ... ... : ... .. . ... : ... .. . ... : ... .. . ... ... : ... .. . ... ... : ... .. . ... ... : ... .. . ... ...
ROW 83 : ... .. . P7C ... ... : ... .. . ... ... ... : ... .. . ... : ... .. . ... : ... .. . ... ... : ... .. . ... ... : ... .. . ... ... : ... .. . ... ...
ROW 84 : ... .. . P80 ... ... : ... .. . ... ... ... : ... .. . ... : ... .. . ... : ... .. . ... ... : ... .. . ... ... : ... .. . ... ... : ... .. . ... ...
ROW 85 : ... .. . P83 ... ... : ... .. . ... ... ... : ... .. . ... : ... .. . ... : ... .. . ... ... : ... .. . ... ... : ... .. . ... ... : ... .. . ... ...
ROW 86 : ... .. 6 P86 ... ... : C#3 00 5 P81 ... ... : ... .. . ... : ... .. . ... : ... .. . ... ... : G#3 01 6 ... ... : F-4 01 6 ... ... : ... .. 5 ... ...
ROW 87 : ... .. . ... ... ... : ... .. 8 ... ... ... : ... .. . ... : ... .. . ... : ... .. . ... ... : ... .. 5 ... ... : ... .. 5 ... ... : ... .. . ... ...
ROW 88 : ... .. . P82 ... ... : ... .. 5 ... ... ... : ... .. . ... : ... .. . ... : ... .. . ... ... : ... .. . ... ... : ... .. . ... ... : ... .. . ... ...
ROW 89 : ... .. . P7F ... ... : ... .. 0 ... ... ... : ... .. . ... : ... .. . ... : ... .. . ... ... : ... .. . ... ... : ... .. . ... ... : ... .. . ... ...
ROW 8A : ... .. . P7B ... ... : C#3 00 4 P81 ... ... : ... .. . ... : ... .. . ... : ... .. . ... ... : ... .. 4 ... ... : ... .. 4 ... ... : ... .. . ... ...
ROW 8B : ... .. . P7A ... ... : ... .. 6 ... ... ... : ... .. . ... : ... .. . ... : ... .. . ... ... : ... .. 1 ... ... : ... .. 1 ... ... : ... .. 2 ... ...
ROW 8C : ... .. . P7C ... ... : ... .. 0 ... ... ... : ... .. . ... : ... .. . ... : ... .. . ... ... : ... .. . ... ... : ... .. . ... ... : ... .. . ... ...
ROW 8D : ... .. . P80 ... ... : ... .. . ... ... ... : ... .. . ... : ... .. . ... : ... .. . ... ... : ... .. . ... ... : ... .. . ... ... : ... .. . ... ...
ROW 8E : ... .. . P83 ... ... : ... .. . ... ... ... : ... .. . ... : ... .. . ... : ... .. . ... ... : ... .. . ... ... : ... .. . ... ... : ... .. . ... ...
ROW 8F : ... .. . P86 ... ... : ... .. . ... ... ... : ... .. . ... : ... .. . ... : ... .. . ... ... : ... .. . ... ... : ... .. . ... ... : ... .. . ... ...
ROW 90 : ... .. . ... ... ... : F#3 00 5 P81 ... ... : ... .. . ... : ... .. . ... : ... .. . ... ... : A-3 01 1 ... ... : F#4 01 1 ... ... : F#4 01 1 ... ...
ROW 91 : ... .. . P83 ... ... : ... .. 8 ... ... ... : ... .. . ... : ... .. . ... : ... .. . ... ... : ... .. . ... ... : ... .. . ... ... : ... .. . ... ...
ROW 92 : ... .. . P80 ... ... : ... .. 5 ... ... ... : ... .. . ... : ... .. . ... : ... .. . ... ... : ... .. . ... ... : ... .. . ... ... : ... .. . ... ...
ROW 93 : ... .. . P7C ... ... : ... .. 0 ... ... ... : ... .. . ... : ... .. . ... : ... .. . ... ... : ... .. . ... ... : ... .. . ... ... : ... .. . ... ...
ROW 94 : ... .. . P7A ... ... : F#3 00 4 P81 ... ... : ... .. . ... : ... .. . ... : ... .. . ... ... : ... .. . ... ... : ... .. . ... ... : ... .. . ... ...
ROW 95 : ... .. . P7B ... ... : ... .. 6 ... ... ... : ... .. . ... : ... .. . ... : ... .. . ... ... : ... .. . ... ... : ... .. . ... ... : ... .. . ... ...
ROW 96 : ... .. 1 P7F ... ... : ... .. 0 ... ... ... : ... .. . ... : ... .. . ... : ... .. . ... ... : ... .. . ... ... : ... .. . ... ... : ... .. . ... ...
ROW 97 : ... .. . P82 ... ... : ... .. . ... ... ... : ... .. . ... : ... .. . ... : ... .. . ... ... : ... .. . ... ... : ... .. . ... ... : ... .. . ... ...
ROW 98 : ... .. . P86 ... ... : ... .. . ... ... ... : ... .. . ... : ... .. . ... : ... .. . ... ... : ... .. . ... ... : ... .. . ... ... : ... .. . ... ...
ROW 99 : ... .. . ... ... ... : ... .. . ... ... ... : ... .. . ... : ... .. . ... : ... .. . ... ... : ... .. . ... ... : ... .. . ... ... : ... .. . ... ...
ROW 9A : ... .. . P83 ... ... : D-3 00 5 P81 ... ... : ... .. . ... : ... .. . ... : ... .. . ... ... : ... .. . ... ... : ... .. . ... ... : ... .. . ... ...
ROW 9B : ... .. . P80 ... ... : ... .. 8 ... ... ... : ... .. . ... : ... .. . ... : ... .. . ... ... : ... .. . ... ... : ... .. . ... ... : ... .. . ... ...
ROW 9C : ... .. 0 ... ... ... : ... .. 5 ... ... ... : ... .. . ... : ... .. . ... : ... .. . ... ... : ... .. . ... ... : ... .. . ... ... : ... .. . ... ...
ROW 9D : ... .. . ... ... ... : ... .. 0 ... ... ... : ... .. . ... : ... .. . ... : ... .. . ... ... : ... .. . ... ... : ... .. . ... ... : ... .. . ... ...
ROW 9E : ... .. . ... ... ... : D-3 00 4 P81 ... ... : ... .. . ... : ... .. . ... : ... .. . ... ... : ... .. . ... ... : ... .. . ... ... : ... .. . ... ...
ROW 9F : ... .. . ... ... ... : ... .. 6 ... ... ... : ... .. . ... : ... .. . ... : ... .. . ... ... : ... .. . ... ... : ... .. . ... ... : ... .. . ... ...
ROW A0 : ... .. . ... ... ... : ... .. 0 ... ... ... : ... .. . ... : ... .. . ... : ... .. . ... ... : ... .. . ... ... : ... .. . ... ... : ... .. . ... ...
ROW A1 : ... .. . ... ... ... : ... .. . ... ... ... : ... .. . ... : ... .. . ... : ... .. . ... ... : ... .. . ... ... : ... .. . ... ... : ... .. . ... ...
ROW A2 : ... .. . ... ... ... : ... .. . ... ... ... : ... .. . ... : ... .. . ... : ... .. . ... ... : ... .. . ... ... : ... .. . ... ... : ... .. . ... ...
ROW A3 : ... .. . ... ... ... : ... .. . ... ... ... : ... .. . ... : ... .. . ... : ... .. . ... ... : ... .. . ... ... : ... .. . ... ... : ... .. . ... ...
ROW A4 : F#3 00 9 P80 ... ... : F#3 00 5 P81 ... ... : ... .. . ... : ... .. . ... : ... .. . ... ... : ... .. 4 ... ... : ... .. 4 ... ... : E-4 01 4 ... ...
ROW A5 : ... .. 8 ... ... ... : ... .. 8 ... ... ... : ... .. . ... : ... .. . ... : ... .. . ... ... : ... .. . ... ... : ... .. . ... ... : ... .. 6 ... ...
ROW A6 : ... .. 7 ... ... ... : ... .. 5 ... ... ... : ... .. . ... : ... .. . ... : ... .. . ... ... : ... .. . ... ... : ... .. . ... ... : ... .. . ... ...
ROW A7 : ... .. 6 ... ... ... : ... .. 0 ... ... ... : ... .. . ... : ... .. . ... : ... .. . ... ... : ... .. . ... ... : ... .. . ... ... : ... .. 5 ... ...
ROW A8 : ... .. . ... ... ... : F#3 00 4 P81 ... ... : ... .. . ... : ... .. . ... : ... .. . ... ... : ... .. . ... ... : ... .. . ... ... : ... .. . ... ...
ROW A9 : ... .. 5 ... ... ... : ... .. 6 ... ... ... : ... .. . ... : ... .. . ... : ... .. . ... ... : ... .. 1 ... ... : ... .. 1 ... ... : ... .. 2 ... ...
ROW AA : ... .. . ... ... ... : ... .. 0 ... ... ... : ... .. . ... : ... .. . ... : ... .. . ... ... : ... .. . ... ... : ... .. . ... ... : ... .. . ... ...
ROW AB : ... .. . ... ... ... : ... .. . ... ... ... : ... .. . ... : ... .. . ... : ... .. . ... ... : ... .. . ... ... : ... .. . ... ... : ... .. . ... ...
ROW AC : ... .. . ... ... ... : ... .. . ... ... ... : ... .. . ... : ... .. . ... : ... .. . ... ... : ... .. . ... ... : ... .. . ... ... : ... .. . ... ...
ROW AD : ... .. . ... ... ... : ... .. . ... ... ... : ... .. . ... : ... .. . ... : ... .. . ... ... : ... .. . ... ... : ... .. . ... ... : ... .. . ... ...
ROW AE : ... .. . ... ... ... : D-3 00 5 P81 ... ... : ... .. . ... : ... .. . ... : ... .. . ... ... : ... .. 4 ... ... : ... .. 4 ... ... : ... .. 5 ... ...
ROW AF : ... .. . ... ... ... : ... .. 8 ... ... ... : ... .. . ... : ... .. . ... : ... .. . ... ... : ... .. . ... ... : ... .. . ... ... : ... .. . ... ...
ROW B0 : ... .. . ... ... ... : ... .. 5 ... ... ... : ... .. . ... : ... .. . ... : ... .. . ... ... : ... .. . ... ... : ... .. . ... ... : ... .. . ... ...
ROW B1 : ... .. . ... ... ... : ... .. 0 ... ... ... : ... .. . ... : ... .. . ... : ... .. . ... ... : ... .. . ... ... : ... .. . ... ... : ... .. . ... ...
ROW B2 : ... .. . ... ... ... : D-3 00 4 P81 ... ... : ... .. . ... : ... .. . ... : ... .. . ... ... : ... .. . ... ... : ... .. . ... ... : ... .. . ... ...
ROW B3 : ... .. . ... ... ... : ... .. 6 ... ... ... : ... .. . ... : ... .. . ... : ... .. . ... ... : ... .. 1 ... ... : ... .. 1 ... ... : ... .. 2 ... ...
ROW B4 : ... .. 1 ... ... ... : ... .. 0 ... ... ... : ... .. . ... : ... .. . ... : ... .. . ... ... : ... .. . ... ... : ... .. . ... ... : ... .. . ... ...
ROW B5 : ... .. . ... ... ... : ... .. . ... ... ... : ... .. . ... : ... .. . ... : ... .. . ... ... : ... .. . ... ... : ... .. . ... ... : ... .. . ... ...
ROW B6 : ... .. . ... ... ... : ... .. . ... ... ... : ... .. . ... : ... .. . ... : ... .. . ... ... : ... .. . ... ... : ... .. . ... ... : ... .. . ... ...
ROW B7 : ... .. . ... ... ... : ... .. . ... ... ... : ... .. . ... : ... .. . ... : ... .. . ... ... : ... .. . ... ... : ... .. . ... ... : ... .. . ... ...
ROW B8 : B-3 00 8 ... ... ... : F#3 00 5 P81 ... ... : ... .. . ... : ... .. . ... : ... .. . ... ... : ... .. . ... ... : ... .. . ... ... : G#3 01 1 ... ...
ROW B9 : ... .. 7 ... ... ... : ... .. 8 ... ... ... : ... .. . ... : ... .. . ... : ... .. . ... ... : ... .. . ... ... : ... .. . ... ... : ... .. 2 ... ...
ROW BA : ... .. 6 ... ... ... : ... .. 5 ... ... ... : ... .. . ... : ... .. . ... : ... .. . ... ... : ... .. . ... ... : ... .. . ... ... : ... .. . ... ...
ROW BB : ... .. 5 ... ... ... : ... .. 0 ... ... ... : ... .. . ... : ... .. . ... : ... .. . ... ... : ... .. . ... ... : ... .. . ... ... : ... .. . ... ...
ROW BC : ... .. . ... ... ... : F#3 00 4 P81 ... ... : ... .. . ... : ... .. . ... : ... .. . ... ... : ... .. . ... ... : ... .. . ... ... : ... .. . ... ...
ROW BD : ... .. . ... ... ... : ... .. 6 ... ... ... : ... .. . ... : ... .. . ... : ... .. . ... ... : ... .. . ... ... : ... .. . ... ... : ... .. 1 ... ...
ROW BE : ... .. . ... ... ... : ... .. 0 ... ... ... : ... .. . ... : ... .. . ... : ... .. . ... ... : ... .. . ... ... : ... .. . ... ... : ... .. . ... ...
ROW BF : ... .. . ... ... ... : ... .. . ... ... ... : ... .. . ... : ... .. . ... : ... .. . ... ... : ... .. . ... ... : ... .. . ... ... : ... .. . ... ...
ROW C0 : ... .. . ... ... ... : ... .. . ... ... ... : ... .. . ... : ... .. . ... : ... .. . ... ... : ... .. . ... ... : ... .. . ... ... : ... .. . ... ...
ROW C1 : ... .. . ... ... ... : ... .. . ... ... ... : ... .. . ... : ... .. . ... : ... .. . ... ... : ... .. . ... ... : ... .. . ... ... : ... .. . ... ...
ROW C2 : ... .. . ... ... ... : D-3 00 5 P81 ... ... : ... .. . ... : ... .. . ... : ... .. . ... ... : ... .. . ... ... : ... .. . ... ... : ... .. . ... ...
ROW C3 : ... .. . ... ... ... : ... .. 8 ... ... ... : ... .. . ... : ... .. . ... : ... .. . ... ... : ... .. . ... ... : ... .. . ... ... : ... .. . ... ...
ROW C4 : ... .. . ... ... ... : ... .. 5 ... ... ... : ... .. . ... : ... .. . ... : ... .. . ... ... : ... .. . ... ... : ... .. . ... ... : ... .. . ... ...
ROW C5 : ... .. . ... ... ... : ... .. 0 ... ... ... : ... .. . ... : ... .. . ... : ... .. . ... ... : ... .. . ... ... : ... .. . ... ... : ... .. . ... ...
ROW C6 : ... .. . ... ... ... : D-3 00 4 P81 ... ... : ... .. . ... : ... .. . ... : ... .. . ... ... : ... .. . ... ... : ... .. . ... ... : ... .. . ... ...
ROW C7 : ... .. . ... ... ... : ... .. 6 ... ... ... : ... .. . ... : ... .. . ... : ... .. . ... ... : ... .. . ... ... : ... .. . ... ... : ... .. . ... ...
ROW C8 : ... .. 1 ... ... ... : ... .. 0 ... ... ... : ... .. . ... : ... .. . ... : ... .. . ... ... : ... .. . ... ... : ... .. . ... ... : ... .. . ... ...
ROW C9 : ... .. . ... ... ... : ... .. . ... ... ... : ... .. . ... : ... .. . ... : ... .. . ... ... : ... .. . ... ... : ... .. . ... ... : ... .. . ... ...
ROW CA : ... .. . ... ... ... : ... .. . ... ... ... : ... .. . ... : ... .. . ... : ... .. . ... ... : ... .. . ... ... : ... .. . ... ... : ... .. . ... ...
ROW CB : ... .. . ... ... ... : ... .. . ... ... ... : ... .. . ... : ... .. . ... : ... .. . ... ... : ... .. . ... ... : ... .. . ... ... : ... .. . ... ...
ROW CC : A-3 00 8 ... ... ... : F#3 00 5 P81 ... ... : G#3 00 . ... : ... .. . ... : ... .. . ... ... : F#3 01 6 ... ... : A-3 01 6 ... ... : G#4 01 4 ... ...
ROW CD : ... .. 7 ... ... ... : ... .. 8 ... ... ... : ... .. . ... : ... .. . ... : ... .. . ... ... : ... .. 5 ... ... : ... .. 5 ... ... : ... .. 6 ... ...
ROW CE : ... .. 6 ... ... ... : ... .. 5 ... ... ... : ... .. . ... : ... .. . ... : ... .. . ... ... : ... .. . ... ... : ... .. . ... ... : ... .. . ... ...
ROW CF : ... .. 5 ... ... ... : ... .. 0 ... ... ... : ... .. . ... : ... .. . ... : ... .. . ... ... : ... .. . ... ... : ... .. . ... ... : ... .. 5 ... ...
ROW D0 : ... .. . ... ... ... : F#3 00 4 P81 ... ... : ... .. . ... : ... .. . ... : ... .. . ... ... : ... .. 4 ... ... : ... .. 4 ... ... : ... .. . ... ...
ROW D1 : ... .. . ... ... ... : ... .. 6 ... ... ... : ... .. . ... : ... .. . ... : ... .. . ... ... : ... .. 1 ... ... : ... .. 1 ... ... : ... .. 2 ... ...
ROW D2 : ... .. . ... ... ... : ... .. 0 ... ... ... : ... .. . ... : ... .. . ... : ... .. . ... ... : ... .. . ... ... : ... .. . ... ... : ... .. . ... ...
ROW D3 : ... .. . ... ... ... : ... .. . ... ... ... : ... .. . ... : ... .. . ... : ... .. . ... ... : ... .. . ... ... : ... .. . ... ... : ... .. . ... ...
ROW D4 : ... .. . ... ... ... : ... .. . ... ... ... : ... .. . ... : ... .. . ... : ... .. . ... ... : ... .. . ... ... : ... .. . ... ... : ... .. . ... ...
ROW D5 : ... .. . ... ... ... : ... .. . ... ... ... : ... .. . ... : ... .. . ... : ... .. . ... ... : ... .. . ... ... : ... .. . ... ... : ... .. . ... ...
ROW D6 : ... .. 6 ... ... ... : D-3 00 5 P81 ... ... : ... .. . ... : ... .. . ... : ... .. . ... ... : ... .. 4 ... ... : ... .. 4 ... ... : ... .. 5 ... ...
ROW D7 : ... .. . ... ... ... : ... .. 8 ... ... ... : ... .. . ... : ... .. . ... : ... .. . ... ... : ... .. 3 ... ... : ... .. 3 ... ... : ... .. . ... ...
ROW D8 : ... .. . ... ... ... : ... .. 5 ... ... ... : ... .. . ... : ... .. . ... : ... .. . ... ... : ... .. . ... ... : ... .. . ... ... : ... .. . ... ...
ROW D9 : ... .. . ... ... ... : ... .. 0 ... ... ... : ... .. . ... : ... .. . ... : ... .. . ... ... : ... .. 2 ... ... : ... .. 2 ... ... : ... .. . ... ...
ROW DA : ... .. . ... ... ... : D-3 00 4 P81 ... ... : ... .. . ... : ... .. . ... : ... .. . ... ... : ... .. . ... ... : ... .. . ... ... : ... .. . ... ...
ROW DB : ... .. . ... ... ... : ... .. 6 ... ... ... : ... .. . ... : ... .. . ... : ... .. . ... ... : ... .. 1 ... ... : ... .. 1 ... ... : ... .. 2 ... ...
ROW DC : ... .. 1 ... ... ... : ... .. 0 ... ... ... : ... .. . ... : ... .. . ... : ... .. . ... ... : ... .. . ... ... : ... .. . ... ... : ... .. . ... ...
ROW DD : ... .. . ... ... ... : ... .. . ... ... ... : ... .. . ... : ... .. . ... : ... .. . ... ... : ... .. . ... ... : ... .. . ... ... : ... .. . ... ...
ROW DE : ... .. . ... ... ... : ... .. . ... ... ... : ... .. . ... : ... .. . ... : ... .. . ... ... : ... .. . ... ... : ... .. . ... ... : ... .. . ... ...
ROW DF : ... .. . ... ... ... : ... .. . ... ... ... : ... .. . ... : ... .. . ... : ... .. . ... ... : ... .. . ... ... : ... .. . ... ... : ... .. . ... ...
ROW E0 : G#3 00 9 ... ... ... : F-3 00 5 P81 ... ... : C#4 00 . ... : ... .. . ... : ... .. . ... ... : F-3 01 1 ... ... : C#4 01 1 ... ... : F-4 01 1 ... ...
ROW E1 : ... .. 8 ... ... ... : ... .. 8 ... ... ... : ... .. . ... : ... .. . ... : ... .. . ... ... : ... .. . ... ... : ... .. . ... ... : ... .. . ... ...
ROW E2 : ... .. 7 ... ... ... : ... .. 5 ... ... ... : ... .. . ... : ... .. . ... : ... .. . ... ... : ... .. . ... ... : ... .. . ... ... : ... .. . ... ...
ROW E3 : ... .. 6 ... ... ... : ... .. 0 ... ... ... : ... .. . ... : ... .. . ... : ... .. . ... ... : ... .. . ... ... : ... .. . ... ... : ... .. . ... ...
ROW E4 : ... .. . ... ... ... : F-3 00 4 P81 ... ... : ... .. . ... : ... .. . ... : ... .. . ... ... : ... .. . ... ... : ... .. . ... ... : ... .. . ... ...
ROW E5 : ... .. . ... ... ... : ... .. 6 ... ... ... : ... .. . ... : ... .. . ... : ... .. . ... ... : ... .. . ... ... : ... .. . ... ... : ... .. . ... ...
ROW E6 : ... .. . ... ... ... : ... .. 0 ... ... ... : ... .. . ... : ... .. . ... : ... .. . ... ... : ... .. . ... ... : ... .. . ... ... : ... .. . ... ...
ROW E7 : ... .. . ... ... ... : ... .. . ... ... ... : ... .. . ... : ... .. . ... : ... .. . ... ... : ... .. . ... ... : ... .. . ... ... : ... .. . ... ...
ROW E8 : ... .. . ... ... ... : ... .. . ... ... ... : ... .. . ... : ... .. . ... : ... .. . ... ... : ... .. . ... ... : ... .. . ... ... : ... .. . ... ...
ROW E9 : ... .. . ... ... ... : ... .. . ... ... ... : ... .. . ... : ... .. . ... : ... .. . ... ... : ... .. . ... ... : ... .. . ... ... : ... .. . ... ...
ROW EA : ... .. . ... ... ... : C#3 00 5 P81 ... ... : ... .. . ... : ... .. . ... : ... .. . ... ... : ... .. . ... ... : ... .. . ... ... : ... .. . ... ...
ROW EB : ... .. . ... ... ... : ... .. 8 ... ... ... : ... .. . ... : ... .. . ... : ... .. . ... ... : ... .. . ... ... : ... .. . ... ... : ... .. . ... ...
ROW EC : ... .. . ... ... ... : ... .. 5 ... ... ... : ... .. . ... : ... .. . ... : ... .. . ... ... : ... .. . ... ... : ... .. . ... ... : ... .. . ... ...
ROW ED : ... .. . ... ... ... : ... .. 0 ... ... ... : ... .. . ... : ... .. . ... : ... .. . ... ... : ... .. . ... ... : ... .. . ... ... : ... .. . ... ...
ROW EE : ... .. . ... ... ... : C#3 00 4 P81 ... ... : ... .. . ... : ... .. . ... : ... .. . ... ... : ... .. . ... ... : ... .. . ... ... : ... .. . ... ...
ROW EF : ... .. . ... ... ... : ... .. 6 ... ... ... : ... .. . ... : ... .. . ... : ... .. . ... ... : ... .. . ... ... : ... .. . ... ... : ... .. . ... ...
ROW F0 : ... .. . ... ... ... : ... .. 0 ... ... ... : ... .. . ... : ... .. . ... : ... .. . ... ... : ... .. . ... ... : ... .. . ... ... : ... .. . ... ...
ROW F1 : ... .. . ... ... ... : ... .. . ... ... ... : ... .. . ... : ... .. . ... : ... .. . ... ... : ... .. . ... ... : ... .. . ... ... : ... .. . ... ...
ROW F2 : ... .. . ... ... ... : ... .. . ... ... ... : ... .. . ... : ... .. . ... : ... .. . ... ... : ... .. . ... ... : ... .. . ... ... : ... .. . ... ...
ROW F3 : ... .. . ... ... ... : ... .. . ... ... ... : ... .. . ... : ... .. . ... : ... .. . ... ... : ... .. . ... ... : ... .. . ... ... : ... .. . ... ...
ROW F4 : ... .. . ... ... ... : F-3 00 5 P81 ... ... : ... .. . ... : ... .. . ... : ... .. . ... ... : ... .. 4 ... ... : ... .. 4 ... ... : ... .. 5 ... ...
ROW F5 : ... .. . ... ... ... : ... .. 8 ... ... ... : ... .. . ... : ... .. . ... : ... .. . ... ... : ... .. . ... ... : ... .. . ... ... : ... .. . ... ...
ROW F6 : ... .. . ... ... ... : ... .. 5 ... ... ... : ... .. . ... : ... .. . ... : ... .. . ... ... : ... .. . ... ... : ... .. . ... ... : ... .. . ... ...
ROW F7 : ... .. . ... ... ... : ... .. 0 ... ... ... : ... .. . ... : ... .. . ... : ... .. . ... ... : ... .. . ... ... : ... .. . ... ... : ... .. . ... ...
ROW F8 : ... .. . ... ... ... : F-3 00 4 P81 ... ... : ... .. . ... : ... .. . ... : ... .. . ... ... : ... .. . ... ... : ... .. . ... ... : ... .. . ... ...
ROW F9 : ... .. . ... ... ... : ... .. 6 ... ... ... : ... .. . ... : ... .. . ... : ... .. . ... ... : ... .. 1 ... ... : ... .. 1 ... ... : ... .. 2 ... ...
ROW FA : ... .. . ... ... ... : ... .. 0 ... ... ... : ... .. . ... : ... .. . ... : ... .. . ... ... : ... .. . ... ... : ... .. . ... ... : ... .. . ... ...
ROW FB : ... .. . ... ... ... : ... .. . ... ... ... : ... .. . ... : ... .. . ... : ... .. . ... ... : ... .. . ... ... : ... .. . ... ... : ... .. . ... ...
ROW FC : ... .. . ... ... ... : ... .. . ... ... ... : ... .. . ... : ... .. . ... : ... .. . ... ... : ... .. . ... ... : ... .. . ... ... : ... .. . ... ...
ROW FD : ... .. . ... ... ... : ... .. . ... ... ... : ... .. . ... : ... .. . ... : ... .. . ... ... : ... .. . ... ... : ... .. . ... ... : ... .. . ... ...
ROW FE : ... .. . ... ... ... : C#3 00 5 P81 ... ... : ... .. . ... : ... .. . ... : ... .. . ... ... : ... .. 4 ... ... : ... .. 4 ... ... : ... .. 5 ... ...
ROW FF : ... .. . ... ... ... : ... .. 8 ... ... ... : ... .. . ... : ... .. . ... : ... .. . ... ... : ... .. . ... ... : ... .. . ... ... : ... .. . ... ...

PATTERN 1B
ROW 00 : ... .. . ... ... ... : ... .. 5 ... ... ... : ... .. . ... : ... .. . ... : ... .. . ... ... : ... .. . ... ... : ... .. . ... ... : ... .. . ... ...
ROW 01 : ... .. . ... ... ... : ... .. 0 ... ... ... : ... .. . ... : ... .. . ... : ... .. . ... ... : ... .. . ... ... : ... .. . ... ... : ... .. . ... ...
ROW 02 : ... .. . ... ... ... : C#3 00 4 P81 ... ... : ... .. . ... : ... .. . ... : ... .. . ... ... : ... .. . ... ... : ... .. . ... ... : ... .. . ... ...
ROW 03 : ... .. . ... ... ... : ... .. 6 ... ... ... : ... .. . ... : ... .. . ... : ... .. . ... ... : ... .. 1 ... ... : ... .. 1 ... ... : ... .. 2 ... ...
ROW 04 : ... .. 1 ... ... ... : ... .. 0 ... ... ... : ... .. . ... : ... .. . ... : ... .. . ... ... : ... .. . ... ... : ... .. . ... ... : ... .. . ... ...
ROW 05 : ... .. . ... ... ... : ... .. . ... ... ... : ... .. . ... : ... .. . ... : ... .. . ... ... : ... .. . ... ... : ... .. . ... ... : ... .. . ... ...
ROW 06 : ... .. . ... ... ... : ... .. . ... ... ... : ... .. . ... : ... .. . ... : ... .. . ... ... : ... .. . ... ... : ... .. . ... ... : ... .. . ... ...
ROW 07 : ... .. . ... ... ... : ... .. . ... ... ... : ... .. . ... : ... .. . ... : ... .. . ... ... : ... .. . ... ... : ... .. . ... ... : ... .. . ... ...
ROW 08 : C#3 00 A ... ... ... : F-3 00 5 P81 ... ... : ... .. . ... : ... .. . ... : ... .. . ... ... : ... .. 2 ... ... : ... .. 2 ... ... : C#4 01 1 ... ...
ROW 09 : ... .. 9 ... ... ... : ... .. 8 ... ... ... : ... .. . ... : ... .. . ... : ... .. . ... ... : ... .. . ... ... : ... .. . ... ... : ... .. 2 ... ...
ROW 0A : ... .. 8 ... ... ... : ... .. 5 ... ... ... : ... .. . ... : ... .. . ... : ... .. . ... ... : ... .. . ... ... : ... .. . ... ... : ... .. . ... ...
ROW 0B : ... .. 6 ... ... ... : ... .. 0 ... ... ... : ... .. . ... : ... .. . ... : ... .. . ... ... : ... .. . ... ... : ... .. . ... ... : ... .. . ... ...
ROW 0C : ... .. . ... ... ... : F-3 00 4 P81 ... ... : ... .. . ... : ... .. . ... : ... .. . ... ... : ... .. 1 ... ... : ... .. 1 ... ... : ... .. . ... ...
ROW 0D : ... .. 7 ... ... ... : ... .. 6 ... ... ... : ... .. . ... : ... .. . ... : ... .. . ... ... : ... .. . ... ... : ... .. . ... ... : ... .. 1 ... ...
ROW 0E : ... .. . ... ... ... : ... .. 0 ... ... ... : ... .. . ... : ... .. . ... : ... .. . ... ... : ... .. . ... ... : ... .. . ... ... : ... .. . ... ...
ROW 0F : ... .. . ... ... ... : ... .. . ... ... ... : ... .. . ... : ... .. . ... : ... .. . ... ... : ... .. . ... ... : ... .. . ... ... : ... .. . ... ...
ROW 10 : ... .. . ... ... ... : ... .. . ... ... ... : ... .. . ... : ... .. . ... : ... .. . ... ... : ... .. . ... ... : ... .. . ... ... : ... .. . ... ...
ROW 11 : ... .. . ... ... ... : ... .. . ... ... ... : ... .. . ... : ... .. . ... : ... .. . ... ... : ... .. . ... ... : ... .. . ... ... : ... .. . ... ...
ROW 12 : ... .. . ... ... ... : C#3 00 5 P81 ... ... : ... .. . ... : ... .. . ... : ... .. . ... ... : D#3 01 1 ... ... : B-3 01 1 ... ... : ... .. . ... ...
ROW 13 : ... .. . ... ... ... : ... .. 8 ... ... ... : ... .. . ... : ... .. . ... : ... .. . ... ... : ... .. . ... ... : ... .. . ... ... : ... .. . ... ...
ROW 14 : ... .. . ... ... ... : ... .. 5 ... ... ... : ... .. . ... : ... .. . ... : ... .. . ... ... : ... .. . ... ... : ... .. . ... ... : ... .. . ... ...
ROW 15 : ... .. . ... ... ... : ... .. 0 ... ... ... : ... .. . ... : ... .. . ... : ... .. . ... ... : ... .. . ... ... : ... .. . ... ... : ... .. . ... ...
ROW 16 : ... .. . ... ... ... : C#3 00 4 P81 ... ... : ... .. . ... : ... .. . ... : ... .. . ... ... : ... .. . ... ... : ... .. . ... ... : ... .. . ... ...
ROW 17 : ... .. . ... ... ... : ... .. 6 ... ... ... : ... .. . ... : ... .. . ... : ... .. . ... ... : ... .. . ... ... : ... .. . ... ... : ... .. . ... ...
ROW 18 : ... .. . ... ... ... : ... .. 0 ... ... ... : ... .. . ... : ... .. . ... : ... .. . ... ... : ... .. . ... ... : ... .. . ... ... : ... .. . ... ...
ROW 19 : ... .. . ... ... ... : ... .. . ... ... ... : ... .. . ... : ... .. . ... : ... .. . ... ... : ... .. . ... ... : ... .. . ... ... : ... .. . ... ...
ROW 1A : ... .. . ... ... ... : ... .. . ... ... ... : ... .. . ... : ... .. . ... : ... .. . ... ... : ... .. . ... ... : ... .. . ... ... : ... .. . ... ...
ROW 1B : ... .. . ... ... ... : ... .. . ... ... ... : ... .. . ... : ... .. . ... : ... .. . ... ... : ... .. . ... ... : ... .. . ... ... : ... .. . ... ...
ROW 1C : ... .. . ... ... ... : F-3 00 5 P81 ... ... : B-3 00 . ... : ... .. . ... : ... .. . ... ... : C#3 01 6 ... ... : A#3 01 6 ... ... : ... .. 5 ... ...
ROW 1D : ... .. . ... ... ... : ... .. 8 ... ... ... : ... .. . ... : ... .. . ... : ... .. . ... ... : ... .. 5 ... ... : ... .. 5 ... ... : ... .. . ... ...
ROW 1E : ... .. . ... ... ... : ... .. 5 ... ... ... : ... .. . ... : ... .. . ... : ... .. . ... ... : ... .. . ... ... : ... .. . ... ... : ... .. . ... ...
ROW 1F : ... .. . ... ... ... : ... .. 0 ... ... ... : ... .. . ... : ... .. . ... : ... .. . ... ... : ... .. . ... ... : ... .. . ... ... : ... .. . ... ...
ROW 20 : ... .. . ... ... ... : F-3 00 4 P81 ... ... : ... .. . ... : ... .. . ... : ... .. . ... ... : ... .. 4 ... ... : ... .. 4 ... ... : ... .. . ... ...
ROW 21 : ... .. . ... ... ... : ... .. 6 ... ... ... : ... .. . ... : ... .. . ... : ... .. . ... ... : ... .. 1 ... ... : ... .. 1 ... ... : ... .. 2 ... ...
ROW 22 : ... .. . ... ... ... : ... .. 0 ... ... ... : ... .. . ... : ... .. . ... : ... .. . ... ... : ... .. . ... ... : ... .. . ... ... : ... .. . ... ...
ROW 23 : ... .. . ... ... ... : ... .. . ... ... ... : ... .. . ... : ... .. . ... : ... .. . ... ... : ... .. . ... ... : ... .. . ... ... : ... .. . ... ...
ROW 24 : ... .. . ... ... ... : ... .. . ... ... ... : ... .. . ... : ... .. . ... : ... .. . ... ... : ... .. . ... ... : ... .. . ... ... : ... .. . ... ...
ROW 25 : ... .. . ... ... ... : ... .. . ... ... ... : ... .. . ... : ... .. . ... : ... .. . ... ... : ... .. . ... ... : ... .. . ... ... : ... .. . ... ...
ROW 26 : ... .. . ... ... ... : C#3 00 5 P81 ... ... : A#3 00 . ... : ... .. . ... : ... .. . ... ... : F-3 01 6 ... ... : C#4 01 6 ... ... : ... .. 5 ... ...
ROW 27 : ... .. . ... ... ... : ... .. 8 ... ... ... : ... .. . ... : ... .. . ... : ... .. . ... ... : ... .. 5 ... ... : ... .. 5 ... ... : ... .. . ... ...
ROW 28 : ... .. . ... ... ... : ... .. 5 ... ... ... : ... .. . ... : ... .. . ... : ... .. . ... ... : ... .. . ... ... : ... .. . ... ... : ... .. . ... ...
ROW 29 : ... .. . ... ... ... : ... .. 0 ... ... ... : ... .. . ... : ... .. . ... : ... .. . ... ... : ... .. . ... ... : ... .. . ... ... : ... .. . ... ...
ROW 2A : ... .. . ... ... ... : C#3 00 4 P81 ... ... : ... .. . ... : ... .. . ... : ... .. . ... ... : ... .. 4 ... ... : ... .. 4 ... ... : ... .. . ... ...
ROW 2B : ... .. 8 ... ... ... : ... .. 6 ... ... ... : ... .. . ... : ... .. . ... : ... .. . ... ... : ... .. 1 ... ... : ... .. 1 ... ... : ... .. 2 ... ...
ROW 2C : ... .. 1 ... ... ... : ... .. 0 ... ... ... : ... .. . ... : ... .. . ... : ... .. . ... ... : ... .. . ... ... : ... .. . ... ... : ... .. . ... ...
ROW 2D : ... .. . ... ... ... : ... .. . ... ... ... : ... .. . ... : ... .. . ... : ... .. . ... ... : ... .. . ... ... : ... .. . ... ... : ... .. . ... ...
ROW 2E : ... .. . ... ... ... : ... .. . ... ... ... : ... .. . ... : ... .. . ... : ... .. . ... ... : ... .. . ... ... : ... .. . ... ... : ... .. . ... ...
ROW 2F : ... .. . ... ... ... : ... .. . ... ... ... : ... .. . ... : ... .. . ... : ... .. . ... ... : ... .. . ... ... : ... .. . ... ... : ... .. . ... ...
ROW 30 : D#3 00 C ... ... ... : D#3 00 5 P81 ... ... : B-3 00 . ... : ... .. . ... : ... .. . ... ... : D#3 01 1 ... ... : B-3 01 1 ... ... : B-3 01 1 ... ...
ROW 31 : ... .. B ... ... ... : ... .. 8 ... ... ... : ... .. . ... : ... .. . ... : ... .. . ... ... : ... .. . ... ... : ... .. . ... ... : ... .. . ... ...
ROW 32 : ... .. A ... ... ... : ... .. 5 ... ... ... : ... .. . ... : ... .. . ... : ... .. . ... ... : ... .. . ... ... : ... .. . ... ... : ... .. . ... ...
ROW 33 : ... .. 8 ... ... ... : ... .. 0 ... ... ... : ... .. . ... : ... .. . ... : ... .. . ... ... : ... .. . ... ... : ... .. . ... ... : ... .. . ... ...
ROW 34 : ... .. . ... ... ... : D#3 00 4 P81 ... ... : ... .. . ... : ... .. . ... : ... .. . ... ... : ... .. . ... ... : ... .. . ... ... : ... .. . ... ...
ROW 35 : ... .. . ... ... ... : ... .. 6 ... ... ... : ... .. . ... : ... .. . ... : ... .. . ... ... : ... .. . ... ... : ... .. . ... ... : ... .. . ... ...
ROW 36 : ... .. . ... ... ... : ... .. 0 ... ... ... : ... .. . ... : ... .. . ... : ... .. . ... ... : ... .. . ... ... : ... .. . ... ... : ... .. . ... ...
ROW 37 : ... .. . ... ... ... : ... .. . ... ... ... : ... .. . ... : ... .. . ... : ... .. . ... ... : ... .. . ... ... : ... .. . ... ... : ... .. . ... ...
ROW 38 : ... .. . ... ... ... : ... .. . ... ... ... : ... .. . ... : ... .. . ... : ... .. . ... ... : ... .. . ... ... : ... .. . ... ... : ... .. . ... ...
ROW 39 : ... .. . ... ... ... : ... .. . ... ... ... : ... .. . ... : ... .. . ... : ... .. . ... ... : ... .. . ... ... : ... .. . ... ... : ... .. . ... ...
ROW 3A : ... .. . ... ... ... : B-2 00 5 P81 ... ... : ... .. . ... : ... .. . ... : ... .. . ... ... : ... .. . ... ... : ... .. . ... ... : ... .. . ... ...
ROW 3B : ... .. . ... ... ... : ... .. 8 ... ... ... : ... .. . ... : ... .. . ... : ... .. . ... ... : ... .. . ... ... : ... .. . ... ... : ... .. . ... ...
ROW 3C : ... .. . ... ... ... : ... .. 5 ... ... ... : ... .. . ... : ... .. . ... : ... .. . ... ... : ... .. . ... ... : ... .. . ... ... : ... .. . ... ...
ROW 3D : ... .. . ... ... ... : ... .. 0 ... ... ... : ... .. . ... : ... .. . ... : ... .. . ... ... : ... .. . ... ... : ... .. . ... ... : ... .. . ... ...
ROW 3E : ... .. . ... ... ... : B-2 00 4 P81 ... ... : ... .. . ... : ... .. . ... : ... .. . ... ... : ... .. . ... ... : ... .. . ... ... : ... .. . ... ...
ROW 3F : ... .. . P84 ... ... : ... .. 6 ... ... ... : ... .. . ... : ... .. . ... : ... .. . ... ... : ... .. . ... ... : ... .. . ... ... : ... .. . ... ...
ROW 40 : ... .. . P86 ... ... : ... .. 0 ... ... ... : ... .. . ... : ... .. . ... : ... .. . ... ... : ... .. . ... ... : ... .. . ... ... : ... .. . ... ...
ROW 41 : ... .. . P85 ... ... : ... .. . ... ... ... : ... .. . ... : ... .. . ... : ... .. . ... ... : ... .. . ... ... : ... .. . ... ... : ... .. . ... ...
ROW 42 : ... .. . P82 ... ... : ... .. . ... ... ... : ... .. . ... : ... .. . ... : ... .. . ... ... : ... .. . ... ... : ... .. . ... ... : ... .. . ... ...
ROW 43 : ... .. . P7E ... ... : ... .. . ... ... ... : ... .. . ... : ... .. . ... : ... .. . ... ... : ... .. . ... ... : ... .. . ... ... : ... .. . ... ...
ROW 44 : ... .. . P7B ... ... : D#3 00 5 P81 ... ... : ... .. . ... : ... .. . ... : ... .. . ... ... : ... .. 4 ... ... : ... .. 4 ... ... : A#3 01 4 ... ...
ROW 45 : ... .. . P7A ... ... : ... .. 8 ... ... ... : ... .. . ... : ... .. . ... : ... .. . ... ... : ... .. . ... ... : ... .. . ... ... : ... .. 6 ... ...
ROW 46 : ... .. . P7C ... ... : ... .. 5 ... ... ... : ... .. . ... : ... .. . ... : ... .. . ... ... : ... .. . ... ... : ... .. . ... ... : ... .. . ... ...
ROW 47 : ... .. . P80 ... ... : ... .. 0 ... ... ... : ... .. . ... : ... .. . ... : ... .. . ... ... : ... .. . ... ... : ... .. . ... ... : ... .. 5 ... ...
ROW 48 : ... .. . P83 ... ... : D#3 00 4 P81 ... ... : ... .. . ... : ... .. . ... : ... .. . ... ... : ... .. . ... ... : ... .. . ... ... : ... .. . ... ...
ROW 49 : ... .. . P86 ... ... : ... .. 6 ... ... ... : ... .. . ... : ... .. . ... : ... .. . ... ... : ... .. 1 ... ... : ... .. 1 ... ... : ... .. 2 ... ...
ROW 4A : ... .. . ... ... ... : ... .. 0 ... ... ... : ... .. . ... : ... .. . ... : ... .. . ... ... : ... .. . ... ... : ... .. . ... ... : ... .. . ... ...
ROW 4B : ... .. . P82 ... ... : ... .. . ... ... ... : ... .. . ... : ... .. . ... : ... .. . ... ... : ... .. . ... ... : ... .. . ... ... : ... .. . ... ...
ROW 4C : ... .. . P7F ... ... : ... .. . ... ... ... : ... .. . ... : ... .. . ... : ... .. . ... ... : ... .. . ... ... : ... .. . ... ... : ... .. . ... ...
ROW 4D : ... .. . P7B ... ... : ... .. . ... ... ... : ... .. . ... : ... .. . ... : ... .. . ... ... : ... .. . ... ... : ... .. . ... ... : ... .. . ... ...
ROW 4E : ... .. . P7A ... ... : B-2 00 5 P81 ... ... : ... .. . ... : ... .. . ... : ... .. . ... ... : ... .. 4 ... ... : ... .. 4 ... ... : ... .. 5 ... ...
ROW 4F : ... .. . P7C ... ... : ... .. 8 ... ... ... : ... .. . ... : ... .. . ... : ... .. . ... ... : ... .. . ... ... : ... .. . ... ... : ... .. . ... ...
ROW 50 : ... .. . P80 ... ... : ... .. 5 ... ... ... : ... .. . ... : ... .. . ... : ... .. . ... ... : ... .. . ... ... : ... .. . ... ... : ... .. . ... ...
ROW 51 : ... .. . P83 ... ... : ... .. 0 ... ... ... : ... .. . ... : ... .. . ... : ... .. . ... ... : ... .. . ... ... : ... .. . ... ... : ... .. . ... ...
ROW 52 : ... .. . P86 ... ... : B-2 00 4 P81 ... ... : ... .. . ... : ... .. . ... : ... .. . ... ... : ... .. . ... ... : ... .. . ... ... : ... .. . ... ...
ROW 53 : ... .. . ... ... ... : ... .. 6 ... ... ... : ... .. . ... : ... .. . ... : ... .. . ... ... : ... .. 1 ... ... : ... .. 1 ... ... : ... .. 2 ... ...
ROW 54 : ... .. 1 P83 ... ... : ... .. 0 ... ... ... : ... .. . ... : ... .. . ... : ... .. . ... ... : ... .. . ... ... : ... .. . ... ... : ... .. . ... ...
ROW 55 : ... .. . P80 ... ... : ... .. . ... ... ... : ... .. . ... : ... .. . ... : ... .. . ... ... : ... .. . ... ... : ... .. . ... ... : ... .. . ... ...
ROW 56 : ... .. . P7C ... ... : ... .. . ... ... ... : ... .. . ... : ... .. . ... : ... .. . ... ... : ... .. . ... ... : ... .. . ... ... : ... .. . ... ...
ROW 57 : ... .. . P7A ... ... : ... .. . ... ... ... : ... .. . ... : ... .. . ... : ... .. . ... ... : ... .. . ... ... : ... .. . ... ... : ... .. . ... ...
ROW 58 : G#2 00 D P80 ... ... : D#3 00 5 P81 ... ... : G#3 00 . ... : ... .. . ... : ... .. . ... ... : ... .. 2 ... ... : G#3 01 2 ... ... : B-3 01 1 ... ...
ROW 59 : ... .. C ... ... ... : ... .. 8 ... ... ... : ... .. . ... : ... .. . ... : ... .. . ... ... : ... .. . ... ... : ... .. . ... ... : ... .. 2 ... ...
ROW 5A : ... .. B ... ... ... : ... .. 5 ... ... ... : ... .. . ... : ... .. . ... : ... .. . ... ... : ... .. . ... ... : ... .. . ... ... : ... .. . ... ...
ROW 5B : ... .. 8 ... ... ... : ... .. 0 ... ... ... : ... .. . ... : ... .. . ... : ... .. . ... ... : ... .. . ... ... : ... .. . ... ... : ... .. . ... ...
ROW 5C : ... .. . ... ... ... : D#3 00 4 P81 ... ... : ... .. . ... : ... .. . ... : ... .. . ... ... : ... .. 1 ... ... : ... .. 1 ... ... : ... .. . ... ...
ROW 5D : ... .. . ... ... ... : ... .. 6 ... ... ... : ... .. . ... : ... .. . ... : ... .. . ... ... : ... .. . ... ... : ... .. . ... ... : ... .. 1 ... ...
ROW 5E : ... .. . ... ... ... : ... .. 0 ... ... ... : ... .. . ... : ... .. . ... : ... .. . ... ... : ... .. . ... ... : ... .. . ... ... : ... .. . ... ...
ROW 5F : ... .. . ... ... ... : ... .. . ... ... ... : ... .. . ... : ... .. . ... : ... .. . ... ... : ... .. . ... ... : ... .. . ... ... : ... .. . ... ...
ROW 60 : ... .. . ... ... ... : ... .. . ... ... ... : ... .. . ... : ... .. . ... : ... .. . ... ... : ... .. . ... ... : ... .. . ... ... : ... .. . ... ...
ROW 61 : ... .. . ... ... ... : ... .. . ... ... ... : ... .. . ... : ... .. . ... : ... .. . ... ... : ... .. . ... ... : ... .. . ... ... : ... .. . ... ...
ROW 62 : ... .. 9 ... ... ... : B-2 00 5 P81 ... ... : ... .. . ... : ... .. . ... : ... .. . ... ... : ... .. . ... ... : ... .. . ... ... : ... .. . ... ...
ROW 63 : ... .. . ... ... ... : ... .. 8 ... ... ... : ... .. . ... : ... .. . ... : ... .. . ... ... : ... .. . ... ... : ... .. . ... ... : ... .. . ... ...
ROW 64 : ... .. . ... ... ... : ... .. 5 ... ... ... : ... .. . ... : ... .. . ... : ... .. . ... ... : ... .. . ... ... : ... .. . ... ... : ... .. . ... ...
ROW 65 : ... .. . ... ... ... : ... .. 0 ... ... ... : ... .. . ... : ... .. . ... : ... .. . ... ... : ... .. . ... ... : ... .. . ... ... : ... .. . ... ...
ROW 66 : ... .. . ... ... ... : B-2 00 4 P81 ... ... : ... .. . ... : ... .. . ... : ... .. . ... ... : ... .. . ... ... : ... .. . ... ... : ... .. . ... ...
ROW 67 : ... .. . ... ... ... : ... .. 6 ... ... ... : ... .. . ... : ... .. . ... : ... .. . ... ... : ... .. . ... ... : ... .. . ... ... : ... .. . ... ...
ROW 68 : ... .. . ... ... ... : ... .. 0 ... ... ... : ... .. . ... : ... .. . ... : ... .. . ... ... : ... .. . ... ... : ... .. . ... ... : ... .. . ... ...
ROW 69 : ... .. . ... ... ... : ... .. . ... ... ... : ... .. . ... : ... .. . ... : ... .. . ... ... : ... .. . ... ... : ... .. . ... ... : ... .. . ... ...
ROW 6A : ... .. . ... ... ... : ... .. . ... ... ... : ... .. . ... : ... .. . ... : ... .. . ... ... : ... .. . ... ... : ... .. . ... ... : ... .. . ... ...
ROW 6B : ... .. . ... ... ... : ... .. . ... ... ... : ... .. . ... : ... .. . ... : ... .. . ... ... : ... .. . ... ... : ... .. . ... ... : ... .. . ... ...
ROW 6C : ... .. . ... ... ... : D#3 00 5 P81 ... ... : F#3 00 . ... : ... .. . ... : ... .. . ... ... : G#3 01 6 ... ... : D#4 01 6 ... ... : G#3 01 4 ... ...
ROW 6D : ... .. . ... ... ... : ... .. 8 ... ... ... : ... .. . ... : ... .. . ... : ... .. . ... ... : ... .. 5 ... ... : ... .. 5 ... ... : ... .. 6 ... ...
ROW 6E : ... .. . ... ... ... : ... .. 5 ... ... ... : ... .. . ... : ... .. . ... : ... .. . ... ... : ... .. . ... ... : ... .. . ... ... : ... .. . ... ...
ROW 6F : ... .. . ... ... ... : ... .. 0 ... ... ... : ... .. . ... : ... .. . ... : ... .. . ... ... : ... .. . ... ... : ... .. . ... ... : ... .. 5 ... ...
ROW 70 : ... .. . ... ... ... : D#3 00 4 P81 ... ... : ... .. . ... : ... .. . ... : ... .. . ... ... : ... .. 4 ... ... : ... .. 4 ... ... : ... .. . ... ...
ROW 71 : ... .. . ... ... ... : ... .. 6 ... ... ... : ... .. . ... : ... .. . ... : ... .. . ... ... : ... .. 1 ... ... : ... .. 1 ... ... : ... .. 2 ... ...
ROW 72 : ... .. . ... ... ... : ... .. 0 ... ... ... : ... .. . ... : ... .. . ... : ... .. . ... ... : ... .. . ... ... : ... .. . ... ... : ... .. . ... ...
ROW 73 : ... .. . ... ... ... : ... .. . ... ... ... : ... .. . ... : ... .. . ... : ... .. . ... ... : ... .. . ... ... : ... .. . ... ... : ... .. . ... ...
ROW 74 : ... .. . ... ... ... : ... .. . ... ... ... : ... .. . ... : ... .. . ... : ... .. . ... ... : ... .. . ... ... : ... .. . ... ... : ... .. . ... ...
ROW 75 : ... .. . ... ... ... : ... .. . ... ... ... : ... .. . ... : ... .. . ... : ... .. . ... ... : ... .. . ... ... : ... .. . ... ... : ... .. . ... ...
ROW 76 : ... .. E ... ... ... : B-2 00 5 P81 ... ... : ... .. . ... : ... .. . ... : ... .. . ... ... : ... .. 4 ... ... : ... .. 4 ... ... : ... .. 5 ... ...
ROW 77 : ... .. D ... ... ... : ... .. 8 ... ... ... : ... .. . ... : ... .. . ... : ... .. . ... ... : ... .. 3 ... ... : ... .. 3 ... ... : ... .. . ... ...
ROW 78 : ... .. C ... ... ... : ... .. 5 ... ... ... : ... .. . ... : ... .. . ... : ... .. . ... ... : ... .. . ... ... : ... .. . ... ... : ... .. . ... ...
ROW 79 : ... .. 9 ... ... ... : ... .. 0 ... ... ... : ... .. . ... : ... .. . ... : ... .. . ... ... : ... .. 2 ... ... : ... .. 2 ... ... : ... .. . ... ...
ROW 7A : ... .. . ... ... ... : B-2 00 4 P81 ... ... : ... .. . ... : ... .. . ... : ... .. . ... ... : ... .. . ... ... : ... .. . ... ... : ... .. . ... ...
ROW 7B : ... .. A ... ... ... : ... .. 6 ... ... ... : ... .. . ... : ... .. . ... : ... .. . ... ... : ... .. 1 ... ... : ... .. 1 ... ... : ... .. 2 ... ...
ROW 7C : ... .. 2 ... ... ... : ... .. 0 ... ... ... : ... .. . ... : ... .. . ... : ... .. . ... ... : ... .. . ... ... : ... .. . ... ... : ... .. . ... ...
ROW 7D : ... .. . ... ... ... : ... .. . ... ... ... : ... .. . ... : ... .. . ... : ... .. . ... ... : ... .. . ... ... : ... .. . ... ... : ... .. . ... ...
ROW 7E : ... .. . ... ... ... : ... .. . ... ... ... : ... .. . ... : ... .. . ... : ... .. . ... ... : ... .. . ... ... : ... .. . ... ... : ... .. . ... ...
ROW 7F : ... .. 1 ... ... ... : ... .. . ... ... ... : ... .. . ... : ... .. . ... : ... .. . ... ... : ... .. . ... ... : ... .. . ... ... : ... .. . ... ...
ROW 80 : G#3 00 F ... ... ... : E-3 00 5 P81 ... ... : E-3 00 . ... : ... .. . ... : ... .. . ... ... : ... .. . ... ... : E-4 01 1 ... ... : E-3 01 1 ... ...
ROW 81 : ... .. E ... ... ... : ... .. 8 ... ... ... : ... .. . ... : ... .. . ... : ... .. . ... ... : ... .. . ... ... : ... .. . ... ... : ... .. . ... ...
ROW 82 : ... .. D ... ... ... : ... .. 5 ... ... ... : ... .. . ... : ... .. . ... : ... .. . ... ... : ... .. . ... ... : ... .. . ... ... : ... .. . ... ...
ROW 83 : ... .. A ... ... ... : ... .. 0 ... ... ... : ... .. . ... : ... .. . ... : ... .. . ... ... : ... .. . ... ... : ... .. . ... ... : ... .. . ... ...
ROW 84 : ... .. . ... ... ... : E-3 00 4 P81 ... ... : ... .. . ... : ... .. . ... : ... .. . ... ... : ... .. . ... ... : ... .. . ... ... : ... .. . ... ...
ROW 85 : ... .. . ... ... ... : ... .. 6 ... ... ... : ... .. . ... : ... .. . ... : ... .. . ... ... : ... .. . ... ... : ... .. . ... ... : ... .. . ... ...
ROW 86 : ... .. . ... ... ... : ... .. 0 ... ... ... : ... .. . ... : ... .. . ... : ... .. . ... ... : ... .. . ... ... : ... .. . ... ... : ... .. . ... ...
ROW 87 : ... .. . ... ... ... : ... .. . ... ... ... : ... .. . ... : ... .. . ... : ... .. . ... ... : ... .. . ... ... : ... .. . ... ... : ... .. . ... ...
ROW 88 : ... .. . ... ... ... : ... .. . ... ... ... : ... .. . ... : ... .. . ... : ... .. . ... ... : ... .. . ... ... : ... .. . ... ... : ... .. . ... ...
ROW 89 : ... .. . ... ... ... : ... .. . ... ... ... : ... .. . ... : ... .. . ... : ... .. . ... ... : ... .. . ... ... : ... .. . ... ... : ... .. . ... ...
ROW 8A : ... .. . ... ... ... : B-2 00 5 P81 ... ... : ... .. . ... : ... .. . ... : ... .. . ... ... : ... .. . ... ... : ... .. . ... ... : ... .. . ... ...
ROW 8B : ... .. . ... ... ... : ... .. 8 ... ... ... : ... .. . ... : ... .. . ... : ... .. . ... ... : ... .. . ... ... : ... .. . ... ... : ... .. . ... ...
ROW 8C : ... .. . ... ... ... : ... .. 5 ... ... ... : ... .. . ... : ... .. . ... : ... .. . ... ... : ... .. . ... ... : ... .. . ... ... : ... .. . ... ...
ROW 8D : ... .. . ... ... ... : ... .. 0 ... ... ... : ... .. . ... : ... .. . ... : ... .. . ... ... : ... .. . ... ... : ... .. . ... ... : ... .. . ... ...
ROW 8E : ... .. . ... ... ... : B-2 00 4 P81 ... ... : ... .. . ... : ... .. . ... : ... .. . ... ... : ... .. . ... ... : ... .. . ... ... : ... .. . ... ...
ROW 8F : ... .. . ... ... ... : ... .. 6 ... ... ... : ... .. . ... : ... .. . ... : ... .. . ... ... : ... .. . ... ... : ... .. . ... ... : ... .. . ... ...
ROW 90 : ... .. . ... ... ... : ... .. 0 ... ... ... : ... .. . ... : ... .. . ... : ... .. . ... ... : ... .. . ... ... : ... .. . ... ... : ... .. . ... ...
ROW 91 : ... .. . ... ... ... : ... .. . ... ... ... : ... .. . ... : ... .. . ... : ... .. . ... ... : ... .. . ... ... : ... .. . ... ... : ... .. . ... ...
ROW 92 : ... .. . ... ... ... : ... .. . ... ... ... : ... .. . ... : ... .. . ... : ... .. . ... ... : ... .. . ... ... : ... .. . ... ... : ... .. . ... ...
ROW 93 : ... .. . ... ... ... : ... .. . ... ... ... : ... .. . ... : ... .. . ... : ... .. . ... ... : ... .. . ... ... : ... .. . ... ... : ... .. . ... ...
ROW 94 : ... .. . ... ... ... : E-3 00 5 P81 ... ... : ... .. . ... : ... .. . ... : ... .. . ... ... : ... .. 4 ... ... : ... .. 4 ... ... : B-2 01 A ... ...
ROW 95 : ... .. . ... ... ... : ... .. 8 ... ... ... : ... .. . ... : ... .. . ... : ... .. . ... ... : ... .. . ... ... : ... .. . ... ... : ... .. 8 ... ...
ROW 96 : ... .. . ... ... ... : ... .. 5 ... ... ... : ... .. . ... : ... .. . ... : ... .. . ... ... : ... .. . ... ... : ... .. . ... ... : ... .. 5 ... ...
ROW 97 : ... .. . ... ... ... : ... .. 0 ... ... ... : ... .. . ... : ... .. . ... : ... .. . ... ... : ... .. . ... ... : ... .. . ... ... : ... .. . ... ...
ROW 98 : ... .. . ... ... ... : E-3 00 4 P81 ... ... : ... .. . ... : ... .. . ... : ... .. . ... ... : ... .. . ... ... : ... .. . ... ... : ... .. . ... ...
ROW 99 : ... .. . ... ... ... : ... .. 6 ... ... ... : ... .. . ... : ... .. . ... : ... .. . ... ... : ... .. 1 ... ... : ... .. 1 ... ... : ... .. 2 ... ...
ROW 9A : ... .. . ... ... ... : ... .. 0 ... ... ... : ... .. . ... : ... .. . ... : ... .. . ... ... : ... .. . ... ... : ... .. . ... ... : ... .. . ... ...
ROW 9B : ... .. . ... ... ... : ... .. . ... ... ... : ... .. . ... : ... .. . ... : ... .. . ... ... : ... .. . ... ... : ... .. . ... ... : ... .. . ... ...
ROW 9C : ... .. . ... ... ... : ... .. . ... ... ... : ... .. . ... : ... .. . ... : ... .. . ... ... : ... .. . ... ... : ... .. . ... ... : ... .. . ... ...
ROW 9D : ... .. . ... ... ... : ... .. . ... ... ... : ... .. . ... : ... .. . ... : ... .. . ... ... : ... .. . ... ... : ... .. . ... ... : ... .. . ... ...
ROW 9E : ... .. . ... ... ... : B-2 00 5 P81 ... ... : ... .. . ... : ... .. . ... : ... .. . ... ... : ... .. 4 ... ... : ... .. 4 ... ... : ... .. 5 ... ...
ROW 9F : ... .. . ... ... ... : ... .. 8 ... ... ... : ... .. . ... : ... .. . ... : ... .. . ... ... : ... .. . ... ... : ... .. . ... ... : ... .. . ... ...
ROW A0 : ... .. . ... ... ... : ... .. 5 ... ... ... : ... .. . ... : ... .. . ... : ... .. . ... ... : ... .. . ... ... : ... .. . ... ... : ... .. . ... ...
ROW A1 : ... .. . ... ... ... : ... .. 0 ... ... ... : ... .. . ... : ... .. . ... : ... .. . ... ... : ... .. . ... ... : ... .. . ... ... : ... .. . ... ...
ROW A2 : ... .. . ... ... ... : B-2 00 4 P81 ... ... : ... .. . ... : ... .. . ... : ... .. . ... ... : ... .. . ... ... : ... .. . ... ... : ... .. . ... ...
ROW A3 : ... .. . ... ... ... : ... .. 6 ... ... ... : ... .. . ... : ... .. . ... : ... .. . ... ... : ... .. 1 ... ... : ... .. 1 ... ... : ... .. 2 ... ...
ROW A4 : ... .. . ... ... ... : ... .. 0 ... ... ... : ... .. . ... : ... .. . ... : ... .. . ... ... : ... .. . ... ... : ... .. . ... ... : ... .. . ... ...
ROW A5 : ... .. . ... ... ... : ... .. . ... ... ... : ... .. . ... : ... .. . ... : ... .. . ... ... : ... .. . ... ... : ... .. . ... ... : ... .. . ... ...
ROW A6 : ... .. . ... ... ... : ... .. . ... ... ... : ... .. . ... : ... .. . ... : ... .. . ... ... : ... .. . ... ... : ... .. . ... ... : ... .. . ... ...
ROW A7 : ... .. . ... ... ... : ... .. . ... ... ... : ... .. . ... : ... .. . ... : ... .. . ... ... : ... .. . ... ... : ... .. . ... ... : ... .. . ... ...
ROW A8 : ... .. . ... ... ... : E-3 00 5 P81 ... ... : ... .. . ... : ... .. . ... : ... .. . ... ... : C#4 01 2 ... ... : ... .. 2 ... ... : ... .. . ... ...
ROW A9 : ... .. . ... ... ... : ... .. 8 ... ... ... : ... .. . ... : ... .. . ... : ... .. . ... ... : ... .. . ... ... : ... .. . ... ... : ... .. . ... ...
ROW AA : ... .. . ... ... ... : ... .. 5 ... ... ... : ... .. . ... : ... .. . ... : ... .. . ... ... : ... .. . ... ... : ... .. . ... ... : ... .. . ... ...
ROW AB : ... .. . ... ... ... : ... .. 0 ... ... ... : ... .. . ... : ... .. . ... : ... .. . ... ... : ... .. . ... ... : ... .. . ... ... : ... .. . ... ...
ROW AC : ... .. . ... ... ... : E-3 00 4 P81 ... ... : ... .. . ... : ... .. . ... : ... .. . ... ... : ... .. 1 ... ... : ... .. 1 ... ... : ... .. . ... ...
ROW AD : ... .. . ... ... ... : ... .. 6 ... ... ... : ... .. . ... : ... .. . ... : ... .. . ... ... : ... .. . ... ... : ... .. . ... ... : ... .. 1 ... ...
ROW AE : ... .. . ... ... ... : ... .. 0 ... ... ... : ... .. . ... : ... .. . ... : ... .. . ... ... : ... .. . ... ... : ... .. . ... ... : ... .. . ... ...
ROW AF : ... .. . ... ... ... : ... .. . ... ... ... : ... .. . ... : ... .. . ... : ... .. . ... ... : ... .. . ... ... : ... .. . ... ... : ... .. . ... ...
ROW B0 : ... .. . ... ... ... : ... .. . ... ... ... : ... .. . ... : ... .. . ... : ... .. . ... ... : ... .. . ... ... : ... .. . ... ... : ... .. . ... ...
ROW B1 : ... .. . ... ... ... : ... .. . ... ... ... : ... .. . ... : ... .. . ... : ... .. . ... ... : ... .. . ... ... : ... .. . ... ... : ... .. . ... ...
ROW B2 : ... .. . ... ... ... : B-2 00 5 P81 ... ... : ... .. . ... : ... .. . ... : ... .. . ... ... : ... .. . ... ... : ... .. . ... ... : ... .. . ... ...
ROW B3 : ... .. . ... ... ... : ... .. 8 ... ... ... : ... .. . ... : ... .. . ... : ... .. . ... ... : ... .. . ... ... : ... .. . ... ... : ... .. . ... ...
ROW B4 : ... .. . ... ... ... : ... .. 5 ... ... ... : ... .. . ... : ... .. . ... : ... .. . ... ... : ... .. . ... ... : ... .. . ... ... : ... .. . ... ...
ROW B5 : ... .. . ... ... ... : ... .. 0 ... ... ... : ... .. . ... : ... .. . ... : ... .. . ... ... : ... .. . ... ... : ... .. . ... ... : ... .. . ... ...
ROW B6 : ... .. . ... ... ... : B-2 00 4 P81 ... ... : ... .. . ... : ... .. . ... : ... .. . ... ... : ... .. . ... ... : ... .. . ... ... : ... .. . ... ...
ROW B7 : ... .. . ... ... ... : ... .. 6 ... ... ... : --- .. . ... : ... .. . ... : ... .. . ... ... : ... .. . ... ... : ... .. . ... ... : ... .. . ... ...
ROW B8 : ... .. . ... ... ... : ... .. 0 ... ... ... : ... .. . ... : ... .. . ... : ... .. . ... ... : ... .. . ... ... : ... .. . ... ... : ... .. . ... ...
ROW B9 : ... .. . ... ... ... : ... .. . ... ... ... : ... .. . ... : ... .. . ... : ... .. . ... ... : ... .. . ... ... : ... .. . ... ... : ... .. . ... ...
ROW BA : ... .. . ... ... ... : ... .. . ... ... ... : ... .. . ... : ... .. . ... : ... .. . ... ... : ... .. . ... ... : ... .. . ... ... : ... .. . ... ...
ROW BB : ... .. . ... ... ... : ... .. . ... ... ... : ... .. . ... : ... .. . ... : ... .. . ... ... : ... .. . ... ... : ... .. . ... ... : ... .. . ... ...
ROW BC : ... .. . P82 ... ... : E-3 00 5 P81 ... ... : B-2 00 . ... : ... .. . ... : ... .. . ... ... : G#3 01 6 ... ... : C#4 01 6 ... ... : E-2 01 A ... ...
ROW BD : ... .. . P84 ... ... : ... .. 8 ... ... ... : ... .. . ... : ... .. . ... : ... .. . ... ... : ... .. 5 ... ... : ... .. 5 ... ... : ... .. 8 ... ...
ROW BE : ... .. . ... ... ... : ... .. 5 ... ... ... : ... .. . ... : ... .. . ... : ... .. . ... ... : ... .. . ... ... : ... .. . ... ... : ... .. 5 ... ...
ROW BF : ... .. . P83 ... ... : ... .. 0 ... ... ... : ... .. . ... : ... .. . ... : ... .. . ... ... : ... .. . ... ... : ... .. . ... ... : ... .. . ... ...
ROW C0 : ... .. . P80 ... ... : E-3 00 4 P81 ... ... : ... .. . ... : ... .. . ... : ... .. . ... ... : ... .. 4 ... ... : ... .. 4 ... ... : ... .. . ... ...
ROW C1 : ... .. . P7F ... ... : ... .. 6 ... ... ... : ... .. . ... : ... .. . ... : ... .. . ... ... : ... .. 1 ... ... : ... .. 1 ... ... : ... .. 2 ... ...
ROW C2 : ... .. . P7C ... ... : ... .. 0 ... ... ... : ... .. . ... : ... .. . ... : ... .. . ... ... : ... .. . ... ... : ... .. . ... ... : ... .. . ... ...
ROW C3 : ... .. . ... ... ... : ... .. . ... ... ... : ... .. . ... : ... .. . ... : ... .. . ... ... : ... .. . ... ... : ... .. . ... ... : ... .. . ... ...
ROW C4 : ... .. . P7D ... ... : ... .. . ... ... ... : ... .. . ... : ... .. . ... : ... .. . ... ... : ... .. . ... ... : ... .. . ... ... : ... .. . ... ...
ROW C5 : ... .. . P7F ... ... : ... .. . ... ... ... : ... .. . ... : ... .. . ... : ... .. . ... ... : ... .. . ... ... : ... .. . ... ... : ... .. . ... ...
ROW C6 : ... .. . P80 ... ... : B-2 00 5 P81 ... ... : ... .. . ... : ... .. . ... : ... .. . ... ... : B-3 01 6 ... ... : D#4 01 6 ... ... : ... .. 5 ... ...
ROW C7 : ... .. . P83 ... ... : ... .. 8 ... ... ... : ... .. . ... : ... .. . ... : ... .. . ... ... : ... .. 5 ... ... : ... .. 5 ... ... : ... .. . ... ...
ROW C8 : ... .. . P84 ... ... : ... .. 5 ... ... ... : ... .. . ... : ... .. . ... : ... .. . ... ... : ... .. . ... ... : ... .. . ... ... : ... .. . ... ...
ROW C9 : ... .. . ... ... ... : ... .. 0 ... ... ... : ... .. . ... : ... .. . ... : ... .. . ... ... : ... .. . ... ... : ... .. . ... ... : ... .. . ... ...
ROW CA : ... .. . P82 ... ... : B-2 00 4 P81 ... ... : ... .. . ... : ... .. . ... : ... .. . ... ... : ... .. 4 ... ... : ... .. 4 ... ... : ... .. . ... ...
ROW CB : ... .. . P80 ... ... : ... .. 6 ... ... ... : --- .. . ... : ... .. . ... : ... .. . ... ... : ... .. 1 ... ... : ... .. 1 ... ... : ... .. 2 ... ...
ROW CC : ... .. . P7E ... ... : ... .. 0 ... ... ... : ... .. . ... : ... .. . ... : ... .. . ... ... : ... .. . ... ... : ... .. . ... ... : ... .. . ... ...
ROW CD : ... .. . P7C ... ... : ... .. . ... ... ... : ... .. . ... : ... .. . ... : ... .. . ... ... : ... .. . ... ... : ... .. . ... ... : ... .. . ... ...
ROW CE : ... .. . ... ... ... : ... .. . ... ... ... : ... .. . ... : ... .. . ... : ... .. . ... ... : ... .. . ... ... : ... .. . ... ... : ... .. . ... ...
ROW CF : ... .. . P7D ... ... : ... .. . ... ... ... : ... .. . ... : ... .. . ... : ... .. . ... ... : ... .. . ... ... : ... .. . ... ... : ... .. . ... ...
ROW D0 : ... .. . P80 ... ... : E-3 00 5 P81 ... ... : E-3 00 . ... : ... .. . ... : ... .. . ... ... : G#3 01 1 ... ... : E-4 01 1 ... ... : B-2 01 1 ... ...
ROW D1 : ... .. . P81 ... ... : ... .. 8 ... ... ... : ... .. . ... : ... .. . ... : ... .. . ... ... : ... .. . ... ... : ... .. . ... ... : ... .. . ... ...
ROW D2 : ... .. . P84 ... ... : ... .. 5 ... ... ... : ... .. . ... : ... .. . ... : ... .. . ... ... : ... .. . ... ... : ... .. . ... ... : ... .. . ... ...
ROW D3 : ... .. . ... ... ... : ... .. 0 ... ... ... : ... .. . ... : ... .. . ... : ... .. . ... ... : ... .. . ... ... : ... .. . ... ... : ... .. . ... ...
ROW D4 : ... .. . P83 ... ... : E-3 00 4 P81 ... ... : ... .. . ... : ... .. . ... : ... .. . ... ... : ... .. . ... ... : ... .. . ... ... : ... .. . ... ...
ROW D5 : ... .. . P81 ... ... : ... .. 6 ... ... ... : ... .. . ... : ... .. . ... : ... .. . ... ... : ... .. . ... ... : ... .. . ... ... : ... .. . ... ...
ROW D6 : ... .. . P80 ... ... : ... .. 0 ... ... ... : ... .. . ... : ... .. . ... : ... .. . ... ... : ... .. . ... ... : ... .. . ... ... : ... .. . ... ...
ROW D7 : ... .. . P7D ... ... : ... .. . ... ... ... : ... .. . ... : ... .. . ... : ... .. . ... ... : ... .. . ... ... : ... .. . ... ... : ... .. . ... ...
ROW D8 : ... .. . P7C ... ... : ... .. . ... ... ... : ... .. . ... : ... .. . ... : ... .. . ... ... : ... .. . ... ... : ... .. . ... ... : ... .. . ... ...
ROW D9 : ... .. . ... ... ... : ... .. . ... ... ... : ... .. . ... : ... .. . ... : ... .. . ... ... : ... .. . ... ... : ... .. . ... ... : ... .. . ... ...
ROW DA : ... .. . P7E ... ... : B-2 00 5 P81 ... ... : ... .. . ... : ... .. . ... : ... .. . ... ... : ... .. . ... ... : ... .. . ... ... : ... .. . ... ...
ROW DB : ... .. . P80 ... ... : ... .. 8 ... ... ... : ... .. . ... : ... .. . ... : ... .. . ... ... : ... .. . ... ... : ... .. . ... ... : ... .. . ... ...
ROW DC : ... .. . P82 ... ... : ... .. 5 ... ... ... : ... .. . ... : ... .. . ... : ... .. . ... ... : ... .. . ... ... : ... .. . ... ... : ... .. . ... ...
ROW DD : ... .. . P84 ... ... : ... .. 0 ... ... ... : ... .. . ... : ... .. . ... : ... .. . ... ... : ... .. . ... ... : ... .. . ... ... : ... .. . ... ...
ROW DE : ... .. . ... ... ... : B-2 00 4 P81 ... ... : ... .. . ... : ... .. . ... : ... .. . ... ... : ... .. . ... ... : ... .. . ... ... : ... .. . ... ...
ROW DF : ... .. . P83 ... ... : ... .. 6 ... ... ... : ... .. . ... : ... .. . ... : ... .. . ... ... : ... .. . ... ... : ... .. . ... ... : ... .. . ... ...
ROW E0 : ... .. . P80 ... ... : ... .. 0 ... ... ... : ... .. . ... : ... .. . ... : ... .. . ... ... : ... .. . ... ... : ... .. . ... ... : ... .. . ... ...
ROW E1 : ... .. . P7F ... ... : ... .. . ... ... ... : ... .. . ... : ... .. . ... : ... .. . ... ... : ... .. . ... ... : ... .. . ... ... : ... .. . ... ...
ROW E2 : ... .. . P7C ... ... : ... .. . ... ... ... : ... .. . ... : ... .. . ... : ... .. . ... ... : ... .. . ... ... : ... .. . ... ... : ... .. . ... ...
ROW E3 : ... .. . ... ... ... : ... .. . ... ... ... : ... .. . ... : ... .. . ... : ... .. . ... ... : ... .. . ... ... : ... .. . ... ... : ... .. . ... ...
ROW E4 : ... .. . P7D ... ... : E-3 00 5 P81 ... ... : ... .. . ... : ... .. . ... : ... .. . ... ... : ... .. 4 ... ... : ... .. 4 ... ... : G#2 01 A ... ...
ROW E5 : ... .. 2 P7F ... ... : ... .. 8 ... ... ... : ... .. . ... : ... .. . ... : ... .. . ... ... : ... .. . ... ... : ... .. . ... ... : ... .. 8 ... ...
ROW E6 : ... .. . P80 ... ... : ... .. 5 ... ... ... : ... .. . ... : ... .. . ... : ... .. . ... ... : ... .. . ... ... : ... .. . ... ... : ... .. 5 ... ...
ROW E7 : ... .. . P83 ... ... : ... .. 0 ... ... ... : ... .. . ... : ... .. . ... : ... .. . ... ... : ... .. . ... ... : ... .. . ... ... : ... .. . ... ...
ROW E8 : ... .. 1 P84 ... ... : E-3 00 4 P81 ... ... : ... .. . ... : ... .. . ... : ... .. . ... ... : ... .. . ... ... : ... .. . ... ... : ... .. . ... ...
ROW E9 : ... .. . ... ... ... : ... .. 6 ... ... ... : ... .. . ... : ... .. . ... : ... .. . ... ... : ... .. 1 ... ... : ... .. 1 ... ... : ... .. 2 ... ...
ROW EA : ... .. . P82 ... ... : ... .. 0 ... ... ... : ... .. . ... : ... .. . ... : ... .. . ... ... : ... .. . ... ... : ... .. . ... ... : ... .. . ... ...
ROW EB : ... .. 0 ... ... ... : ... .. . ... ... ... : ... .. . ... : ... .. . ... : ... .. . ... ... : ... .. . ... ... : ... .. . ... ... : ... .. . ... ...
ROW EC : ... .. . ... ... ... : ... .. . ... ... ... : ... .. . ... : ... .. . ... : ... .. . ... ... : ... .. . ... ... : ... .. . ... ... : ... .. . ... ...
ROW ED : ... .. . ... ... ... : ... .. . ... ... ... : ... .. . ... : ... .. . ... : ... .. . ... ... : ... .. . ... ... : ... .. . ... ... : ... .. . ... ...
ROW EE : ... .. . ... ... ... : B-2 00 5 P81 ... ... : ... .. . ... : ... .. . ... : ... .. . ... ... : ... .. 4 ... ... : ... .. 4 ... ... : ... .. 5 ... ...
ROW EF : ... .. . ... ... ... : ... .. 8 ... ... ... : ... .. . ... : ... .. . ... : ... .. . ... ... : ... .. . ... ... : ... .. . ... ... : ... .. . ... ...
ROW F0 : ... .. . ... ... ... : ... .. 5 ... ... ... : ... .. . ... : ... .. . ... : ... .. . ... ... : ... .. . ... ... : ... .. . ... ... : ... .. . ... ...
ROW F1 : ... .. . ... ... ... : ... .. 0 ... ... ... : ... .. . ... : ... .. . ... : ... .. . ... ... : ... .. . ... ... : ... .. . ... ... : ... .. . ... ...
ROW F2 : ... .. . ... ... ... : B-2 00 4 P81 ... ... : ... .. . ... : ... .. . ... : ... .. . ... ... : ... .. . ... ... : ... .. . ... ... : ... .. . ... ...
ROW F3 : ... .. . ... ... ... : ... .. 6 ... ... ... : --- .. . ... : ... .. . ... : ... .. . ... ... : ... .. 1 ... ... : ... .. 1 ... ... : ... .. 2 ... ...
ROW F4 : ... .. . ... ... ... : ... .. 0 ... ... ... : ... .. . ... : ... .. . ... : ... .. . ... ... : ... .. . ... ... : ... .. . ... ... : ... .. . ... ...
ROW F5 : ... .. . ... ... ... : ... .. . ... ... ... : ... .. . ... : ... .. . ... : ... .. . ... ... : ... .. . ... ... : ... .. . ... ... : ... .. . ... ...
ROW F6 : ... .. . ... ... ... : ... .. . ... ... ... : ... .. . ... : ... .. . ... : ... .. . ... ... : ... .. . ... ... : ... .. . ... ... : ... .. . ... ...
ROW F7 : ... .. . ... ... ... : ... .. . ... ... ... : ... .. . ... : ... .. . ... : ... .. . ... ... : ... .. . ... ... : ... .. . ... ... : ... .. . ... ...
ROW F8 : E-3 00 A P80 ... ... : E-3 00 5 P81 ... ... : E-3 00 . ... : ... .. . ... : ... .. . ... ... : C#4 01 2 ... ... : ... .. 2 ... ... : B-2 01 4 ... ...
ROW F9 : ... .. 9 ... ... ... : ... .. 8 ... ... ... : ... .. . ... : ... .. . ... : ... .. . ... ... : ... .. . ... ... : ... .. . ... ... : ... .. 3 ... ...
ROW FA : ... .. 8 ... ... ... : ... .. 5 ... ... ... : ... .. . ... : ... .. . ... : ... .. . ... ... : ... .. . ... ... : ... .. . ... ... : ... .. 2 ... ...
ROW FB : ... .. 6 ... ... ... : ... .. 0 ... ... ... : ... .. . ... : ... .. . ... : ... .. . ... ... : ... .. . ... ... : ... .. . ... ... : ... .. . ... ...
ROW FC : ... .. . ... ... ... : E-3 00 4 P81 ... ... : ... .. . ... : ... .. . ... : ... .. . ... ... : ... .. 1 ... ... : ... .. 1 ... ... : ... .. . ... ...
ROW FD : ... .. . ... ... ... : ... .. 6 ... ... ... : ... .. . ... : ... .. . ... : ... .. . ... ... : ... .. . ... ... : ... .. . ... ... : ... .. 1 ... ...
ROW FE : ... .. . ... ... ... : ... .. 0 ... ... ... : ... .. . ... : ... .. . ... : ... .. . ... ... : ... .. . ... ... : ... .. . ... ... : ... .. . ... ...
ROW FF : ... .. . ... ... ... : ... .. . ... ... ... : ... .. . ... : ... .. . ... : ... .. . ... ... : ... .. . ... ... : ... .. . ... ... : ... .. . ... ...

PATTERN 1C
ROW 00 : ... .. . ... ... ... : ... .. . ... ... ... : ... .. . ... : ... .. . ... : ... .. . ... ... : ... .. . ... ... : ... .. . ... ... : ... .. . ... ...
ROW 01 : ... .. . ... ... ... : ... .. . ... ... ... : ... .. . ... : ... .. . ... : ... .. . ... ... : ... .. . ... ... : ... .. . ... ... : ... .. . ... ...
ROW 02 : ... .. . ... ... ... : B-2 00 5 P81 ... ... : F#3 00 . ... : ... .. . ... : ... .. . ... ... : ... .. . ... ... : ... .. . ... ... : ... .. . ... ...
ROW 03 : ... .. . ... ... ... : ... .. 8 ... ... ... : ... .. . ... : ... .. . ... : ... .. . ... ... : ... .. . ... ... : ... .. . ... ... : ... .. . ... ...
ROW 04 : ... .. . ... ... ... : ... .. 5 ... ... ... : ... .. . ... : ... .. . ... : ... .. . ... ... : ... .. . ... ... : ... .. . ... ... : ... .. . ... ...
ROW 05 : ... .. . ... ... ... : ... .. 0 ... ... ... : ... .. . ... : ... .. . ... : ... .. . ... ... : ... .. . ... ... : ... .. . ... ... : ... .. . ... ...
ROW 06 : ... .. . ... ... ... : B-2 00 4 P81 ... ... : ... .. . ... : ... .. . ... : ... .. . ... ... : ... .. . ... ... : ... .. . ... ... : ... .. . ... ...
ROW 07 : ... .. . ... ... ... : ... .. 6 ... ... ... : ... .. . ... : ... .. . ... : ... .. . ... ... : ... .. . ... ... : ... .. . ... ... : ... .. . ... ...
ROW 08 : ... .. . ... ... ... : ... .. 0 ... ... ... : ... .. . ... : ... .. . ... : ... .. . ... ... : ... .. . ... ... : ... .. . ... ... : ... .. . ... ...
ROW 09 : ... .. . ... ... ... : ... .. . ... ... ... : ... .. . ... : ... .. . ... : ... .. . ... ... : ... .. . ... ... : ... .. . ... ... : ... .. . ... ...
ROW 0A : ... .. . ... ... ... : ... .. . ... ... ... : ... .. . ... : ... .. . ... : ... .. . ... ... : ... .. . ... ... : ... .. . ... ... : ... .. . ... ...
ROW 0B : ... .. . ... ... ... : ... .. . ... ... ... : ... .. . ... : ... .. . ... : ... .. . ... ... : ... .. . ... ... : ... .. . ... ... : ... .. . ... ...
ROW 0C : ... .. . ... ... ... : E-3 00 5 P81 ... ... : G#3 00 . ... : ... .. . ... : ... .. . ... ... : G#3 01 6 ... ... : C#4 01 6 ... ... : E-3 01 A ... ...
ROW 0D : ... .. . ... ... ... : ... .. 8 ... ... ... : ... .. . ... : ... .. . ... : ... .. . ... ... : ... .. 5 ... ... : ... .. 5 ... ... : ... .. 8 ... ...
ROW 0E : ... .. . ... ... ... : ... .. 5 ... ... ... : ... .. . ... : ... .. . ... : ... .. . ... ... : ... .. . ... ... : ... .. . ... ... : ... .. 5 ... ...
ROW 0F : ... .. . ... ... ... : ... .. 0 ... ... ... : ... .. . ... : ... .. . ... : ... .. . ... ... : ... .. . ... ... : ... .. . ... ... : ... .. . ... ...
ROW 10 : ... .. . ... ... ... : E-3 00 4 P81 ... ... : ... .. . ... : ... .. . ... : ... .. . ... ... : ... .. 4 ... ... : ... .. 4 ... ... : ... .. . ... ...
ROW 11 : ... .. . ... ... ... : ... .. 6 ... ... ... : ... .. . ... : ... .. . ... : ... .. . ... ... : ... .. 1 ... ... : ... .. 1 ... ... : ... .. 2 ... ...
ROW 12 : ... .. . ... ... ... : ... .. 0 ... ... ... : ... .. . ... : ... .. . ... : ... .. . ... ... : ... .. . ... ... : ... .. . ... ... : ... .. . ... ...
ROW 13 : ... .. . ... ... ... : ... .. . ... ... ... : ... .. . ... : ... .. . ... : ... .. . ... ... : ... .. . ... ... : ... .. . ... ... : ... .. . ... ...
ROW 14 : ... .. . ... ... ... : ... .. . ... ... ... : ... .. . ... : ... .. . ... : ... .. . ... ... : ... .. . ... ... : ... .. . ... ... : ... .. . ... ...
ROW 15 : ... .. . ... ... ... : ... .. . ... ... ... : ... .. . ... : ... .. . ... : ... .. . ... ... : ... .. . ... ... : ... .. . ... ... : ... .. . ... ...
ROW 16 : ... .. . ... ... ... : B-2 00 5 P81 ... ... : E-3 00 . ... : ... .. . ... : ... .. . ... ... : B-3 01 6 ... ... : D#4 01 6 ... ... : ... .. 5 ... ...
ROW 17 : ... .. 1 ... ... ... : ... .. 8 ... ... ... : ... .. . ... : ... .. . ... : ... .. . ... ... : ... .. 5 ... ... : ... .. 5 ... ... : ... .. . ... ...
ROW 18 : ... .. . ... ... ... : ... .. 5 ... ... ... : ... .. . ... : ... .. . ... : ... .. . ... ... : ... .. . ... ... : ... .. . ... ... : ... .. . ... ...
ROW 19 : ... .. . ... ... ... : ... .. 0 ... ... ... : ... .. . ... : ... .. . ... : ... .. . ... ... : ... .. . ... ... : ... .. . ... ... : ... .. . ... ...
ROW 1A : ... .. . ... ... ... : B-2 00 4 P81 ... ... : ... .. . ... : ... .. . ... : ... .. . ... ... : ... .. 4 ... ... : ... .. 4 ... ... : ... .. . ... ...
ROW 1B : ... .. . ... ... ... : ... .. 6 ... ... ... : ... .. . ... : ... .. . ... : ... .. . ... ... : ... .. 1 ... ... : ... .. 1 ... ... : ... .. 2 ... ...
ROW 1C : ... .. . ... ... ... : ... .. 0 ... ... ... : ... .. . ... : ... .. . ... : ... .. . ... ... : ... .. . ... ... : ... .. . ... ... : ... .. . ... ...
ROW 1D : ... .. 0 ... ... ... : ... .. . ... ... ... : ... .. . ... : ... .. . ... : ... .. . ... ... : ... .. . ... ... : ... .. . ... ... : ... .. . ... ...
ROW 1E : ... .. . ... ... ... : ... .. . ... ... ... : ... .. . ... : ... .. . ... : ... .. . ... ... : ... .. . ... ... : ... .. . ... ... : ... .. . ... ...
ROW 1F : ... .. . ... ... ... : ... .. . ... ... ... : ... .. . ... : ... .. . ... : ... .. . ... ... : ... .. . ... ... : ... .. . ... ... : ... .. . ... ...
ROW 20 : ... .. . ... ... ... : ... .. . ... ... ... : ... .. . ... : ... .. . ... : ... .. . ... ... : ... .. . ... ... : ... .. . ... ... : ... .. . ... ...
ROW 21 : ... .. . ... ... ... : ... .. . ... ... ... : ... .. . ... : ... .. . ... : ... .. . ... ... : ... .. . ... ... : ... .. . ... ... : ... .. . ... ...
ROW 22 : ... .. . ... ... ... : ... .. . ... ... ... : ... .. . ... : ... .. . ... : ... .. . ... ... : ... .. . ... ... : ... .. . ... ... : ... .. . ... ...
ROW 23 : ... .. . ... ... ... : ... .. . ... ... ... : ... .. . ... : ... .. . ... : ... .. . ... ... : ... .. . ... ... : ... .. . ... ... : ... .. . ... ...
ROW 24 : ... .. . ... ... ... : ... .. . ... ... ... : ... .. . ... : ... .. . ... : ... .. . ... ... : ... .. . ... ... : ... .. . ... ... : ... .. . ... ...
ROW 25 : ... .. . ... ... ... : ... .. . ... ... ... : ... .. . ... : ... .. . ... : ... .. . ... ... : ... .. . ... ... : ... .. . ... ... : ... .. . ... ...
ROW 26 : ... .. . ... ... ... : ... .. . ... ... ... : ... .. . ... : ... .. . ... : ... .. . ... ... : ... .. . ... ... : ... .. . ... ... : ... .. . ... ...
ROW 27 : ... .. . ... ... ... : ... .. . ... ... ... : ... .. . ... : ... .. . ... : ... .. . ... ... : ... .. . ... ... : ... .. . ... ... : ... .. . ... ...
ROW 28 : ... .. . ... ... ... : ... .. . ... ... ... : ... .. . ... : ... .. . ... : ... .. . ... ... : ... .. . ... ... : ... .. . ... ... : ... .. . ... ...
ROW 29 : ... .. . ... ... ... : ... .. . ... ... ... : ... .. . ... : ... .. . ... : ... .. . ... ... : ... .. . ... ... : ... .. . ... ... : ... .. . ... ...
ROW 2A : ... .. . ... ... ... : ... .. . ... ... ... : ... .. . ... : ... .. . ... : ... .. . ... ... : ... .. . ... ... : ... .. . ... ... : ... .. . ... ...
ROW 2B : ... .. . ... ... ... : ... .. . ... ... ... : ... .. . ... : ... .. . ... : ... .. . ... ... : ... .. . ... ... : ... .. . ... ... : ... .. . ... ...
ROW 2C : ... .. . ... ... ... : ... .. . ... ... ... : ... .. . ... : ... .. . ... : ... .. . ... ... : ... .. . ... ... : ... .. . ... ... : ... .. . ... ...
ROW 2D : ... .. . ... ... ... : ... .. . ... ... ... : ... .. . ... : ... .. . ... : ... .. . ... ... : ... .. . ... ... : ... .. . ... ... : ... .. . ... ...
ROW 2E : ... .. . ... ... ... : ... .. . ... ... ... : ... .. . ... : ... .. . ... : ... .. . ... ... : ... .. . ... ... : ... .. . ... ... : ... .. . ... ...
ROW 2F : ... .. . ... ... ... : ... .. . ... ... ... : ... .. . ... : ... .. . ... : ... .. . ... ... : ... .. . ... ... : ... .. . ... ... : ... .. . ... ...
ROW 30 : ... .. . ... ... ... : ... .. . ... ... ... : ... .. . ... : ... .. . ... : ... .. . ... ... : ... .. . ... ... : ... .. . ... ... : ... .. . ... ...
ROW 31 : ... .. . ... ... ... : ... .. . ... ... ... : ... .. . ... : ... .. . ... : ... .. . ... ... : ... .. . ... ... : ... .. . ... ... : ... .. . ... ...
ROW 32 : ... .. . ... ... ... : ... .. . ... ... ... : ... .. . ... : ... .. . ... : ... .. . ... ... : ... .. . ... ... : ... .. . ... ... : ... .. . ... ...
ROW 33 : ... .. . ... ... ... : ... .. . ... ... ... : ... .. . ... : ... .. . ... : ... .. . ... ... : ... .. . ... ... : ... .. . ... ... : ... .. . ... ...
ROW 34 : ... .. . ... ... ... : ... .. . ... ... ... : ... .. . ... : ... .. . ... : ... .. . ... ... : ... .. . ... ... : ... .. . ... ... : ... .. . ... ...
ROW 35 : ... .. . ... ... ... : ... .. . ... ... ... : ... .. . ... : ... .. . ... : ... .. . ... ... : ... .. . ... ... : ... .. . ... ... : ... .. . ... ...
ROW 36 : ... .. . ... ... ... : ... .. . ... ... ... : ... .. . ... : ... .. . ... : ... .. . ... ... : ... .. . ... ... : ... .. . ... ... : ... .. . ... ...
ROW 37 : ... .. . ... ... ... : ... .. . ... ... ... : ... .. . ... : ... .. . ... : ... .. . ... ... : ... .. . ... ... : ... .. . ... ... : ... .. . ... ...
ROW 38 : ... .. . ... ... ... : ... .. . ... ... ... : ... .. . ... : ... .. . ... : ... .. . ... ... : ... .. . ... ... : ... .. . ... ... : ... .. . ... ...
ROW 39 : ... .. . ... ... ... : ... .. . ... ... ... : ... .. . ... : ... .. . ... : ... .. . ... ... : ... .. . ... ... : ... .. . ... ... : ... .. . ... ...
ROW 3A : ... .. . ... ... ... : ... .. . ... ... ... : ... .. . ... : ... .. . ... : ... .. . ... ... : ... .. . ... ... : ... .. . ... ... : ... .. . ... ...
ROW 3B : ... .. . ... ... ... : ... .. . ... ... ... : ... .. . ... : ... .. . ... : ... .. . ... ... : ... .. . ... ... : ... .. . ... ... : ... .. . ... ...
ROW 3C : ... .. . ... ... ... : ... .. . ... ... ... : ... .. . ... : ... .. . ... : ... .. . ... ... : ... .. . ... ... : ... .. . ... ... : ... .. . ... ...
ROW 3D : ... .. . ... ... ... : ... .. . ... ... ... : ... .. . ... : ... .. . ... : ... .. . ... ... : ... .. . ... ... : ... .. . ... ... : ... .. . ... ...
ROW 3E : ... .. . ... ... ... : ... .. . ... ... ... : ... .. . ... : ... .. . ... : ... .. . ... ... : ... .. . ... ... : ... .. . ... ... : ... .. . ... ...
ROW 3F : ... .. . ... ... ... : ... .. . ... ... ... : ... .. . ... : ... .. . ... : ... .. . ... ... : ... .. . ... ... : ... .. . ... ... : ... .. . ... ...
ROW 40 : ... .. . ... ... ... : ... .. . ... ... ... : ... .. . ... : ... .. . ... : ... .. . ... ... : ... .. . ... ... : ... .. . ... ... : ... .. . ... ...
ROW 41 : ... .. . ... ... ... : ... .. . ... ... ... : ... .. . ... : ... .. . ... : ... .. . ... ... : ... .. . ... ... : ... .. . ... ... : ... .. . ... ...
ROW 42 : ... .. . ... ... ... : ... .. . ... ... ... : ... .. . ... : ... .. . ... : ... .. . ... ... : ... .. . ... ... : ... .. . ... ... : ... .. . ... ...
ROW 43 : ... .. . ... ... ... : ... .. . ... ... ... : ... .. . ... : ... .. . ... : ... .. . ... ... : ... .. . ... ... : ... .. . ... ... : ... .. . ... ...
ROW 44 : ... .. . ... ... ... : ... .. . ... ... ... : ... .. . ... : ... .. . ... : ... .. . ... ... : ... .. . ... ... : ... .. . ... ... : ... .. . ... ...
ROW 45 : ... .. . ... ... ... : ... .. . ... ... ... : ... .. . ... : ... .. . ... : ... .. . ... ... : ... .. . ... ... : ... .. . ... ... : ... .. . ... ...
ROW 46 : ... .. . ... ... ... : ... .. . ... ... ... : ... .. . ... : ... .. . ... : ... .. . ... ... : ... .. . ... ... : ... .. . ... ... : ... .. . ... ...
ROW 47 : ... .. . ... ... ... : ... .. . ... ... ... : ... .. . ... : ... .. . ... : ... .. . ... ... : ... .. . ... ... : ... .. . ... ... : ... .. . ... ...
ROW 48 : ... .. . ... ... ... : ... .. . ... ... ... : ... .. . ... : ... .. . ... : ... .. . ... ... : ... .. . ... ... : ... .. . ... ... : ... .. . ... ...
ROW 49 : ... .. . ... ... ... : ... .. . ... ... ... : ... .. . ... : ... .. . ... : ... .. . ... ... : ... .. . ... ... : ... .. . ... ... : ... .. . ... ...
ROW 4A : ... .. . ... ... ... : ... .. . ... ... ... : ... .. . ... : ... .. . ... : ... .. . ... ... : ... .. . ... ... : ... .. . ... ... : ... .. . ... ...
ROW 4B : ... .. . ... ... ... : ... .. . ... ... ... : ... .. . ... : ... .. . ... : ... .. . ... ... : ... .. . ... ... : ... .. . ... ... : ... .. . ... ...
ROW 4C : ... .. . ... ... ... : ... .. . ... ... ... : ... .. . ... : ... .. . ... : ... .. . ... ... : ... .. . ... ... : ... .. . ... ... : ... .. . ... ...
ROW 4D : ... .. . ... ... ... : ... .. . ... ... ... : ... .. . ... : ... .. . ... : ... .. . ... ... : ... .. . ... ... : ... .. . ... ... : ... .. . ... ...
ROW 4E : ... .. . ... ... ... : ... .. . ... ... ... : ... .. . ... : ... .. . ... : ... .. . ... ... : ... .. . ... ... : ... .. . ... ... : ... .. . ... ...
ROW 4F : ... .. . ... ... ... : ... .. . ... ... ... : ... .. . ... : ... .. . ... : ... .. . ... ... : ... .. . ... ... : ... .. . ... ... : ... .. . ... ...
ROW 50 : ... .. . ... ... ... : ... .. . ... ... ... : ... .. . ... : ... .. . ... : ... .. . ... ... : ... .. . ... ... : ... .. . ... ... : ... .. . ... ...
ROW 51 : ... .. . ... ... ... : ... .. . ... ... ... : ... .. . ... : ... .. . ... : ... .. . ... ... : ... .. . ... ... : ... .. . ... ... : ... .. . ... ...
ROW 52 : ... .. . ... ... ... : ... .. . ... ... ... : ... .. . ... : ... .. . ... : ... .. . ... ... : ... .. . ... ... : ... .. . ... ... : ... .. . ... ...
ROW 53 : ... .. . ... ... ... : ... .. . ... ... ... : ... .. . ... : ... .. . ... : ... .. . ... ... : ... .. . ... ... : ... .. . ... ... : ... .. . ... ...
ROW 54 : ... .. . ... ... ... : ... .. . ... ... ... : ... .. . ... : ... .. . ... : ... .. . ... ... : ... .. . ... ... : ... .. . ... ... : ... .. . ... ...
ROW 55 : ... .. . ... ... ... : ... .. . ... ... ... : ... .. . ... : ... .. . ... : ... .. . ... ... : ... .. . ... ... : ... .. . ... ... : ... .. . ... ...
ROW 56 : ... .. . ... ... ... : ... .. . ... ... ... : ... .. . ... : ... .. . ... : ... .. . ... ... : ... .. . ... ... : ... .. . ... ... : ... .. . ... ...
ROW 57 : ... .. . ... ... ... : ... .. . ... ... ... : ... .. . ... : ... .. . ... : ... .. . ... ... : ... .. . ... ... : ... .. . ... ... : ... .. . ... ...
ROW 58 : ... .. . ... ... ... : ... .. . ... ... ... : ... .. . ... : ... .. . ... : ... .. . ... ... : ... .. . ... ... : ... .. . ... ... : ... .. . ... ...
ROW 59 : ... .. . ... ... ... : ... .. . ... ... ... : ... .. . ... : ... .. . ... : ... .. . ... ... : ... .. . ... ... : ... .. . ... ... : ... .. . ... ...
ROW 5A : ... .. . ... ... ... : ... .. . ... ... ... : ... .. . ... : ... .. . ... : ... .. . ... ... : ... .. . ... ... : ... .. . ... ... : ... .. . ... ...
ROW 5B : ... .. . ... ... ... : ... .. . ... ... ... : ... .. . ... : ... .. . ... : ... .. . ... ... : ... .. . ... ... : ... .. . ... ... : ... .. . ... ...
ROW 5C : ... .. . ... ... ... : ... .. . ... ... ... : ... .. . ... : ... .. . ... : ... .. . ... ... : ... .. . ... ... : ... .. . ... ... : ... .. . ... ...
ROW 5D : ... .. . ... ... ... : ... .. . ... ... ... : ... .. . ... : ... .. . ... : ... .. . ... ... : ... .. . ... ... : ... .. . ... ... : ... .. . ... ...
ROW 5E : ... .. . ... ... ... : ... .. . ... ... ... : ... .. . ... : ... .. . ... : ... .. . ... ... : ... .. . ... ... : ... .. . ... ... : ... .. . ... ...
ROW 5F : ... .. . ... ... ... : ... .. . ... ... ... : ... .. . ... : ... .. . ... : ... .. . ... ... : ... .. . ... ... : ... .. . ... ... : ... .. . ... ...
ROW 60 : ... .. . ... ... ... : ... .. . ... ... ... : ... .. . ... : ... .. . ... : ... .. . ... ... : ... .. . ... ... : ... .. . ... ... : ... .. . ... ...
ROW 61 : ... .. . ... ... ... : ... .. . ... ... ... : ... .. . ... : ... .. . ... : ... .. . ... ... : ... .. . ... ... : ... .. . ... ... : ... .. . ... ...
ROW 62 : ... .. . ... ... ... : ... .. . ... ... ... : ... .. . ... : ... .. . ... : ... .. . ... ... : ... .. . ... ... : ... .. . ... ... : ... .. . ... ...
ROW 63 : ... .. . ... ... ... : ... .. . ... ... ... : ... .. . ... : ... .. . ... : ... .. . ... ... : ... .. . ... ... : ... .. . ... ... : ... .. . ... ...
ROW 64 : ... .. . ... ... ... : ... .. . ... ... ... : ... .. . ... : ... .. . ... : ... .. . ... ... : ... .. . ... ... : ... .. . ... ... : ... .. . ... ...
ROW 65 : ... .. . ... ... ... : ... .. . ... ... ... : ... .. . ... : ... .. . ... : ... .. . ... ... : ... .. . ... ... : ... .. . ... ... : ... .. . ... ...
ROW 66 : ... .. . ... ... ... : ... .. . ... ... ... : ... .. . ... : ... .. . ... : ... .. . ... ... : ... .. . ... ... : ... .. . ... ... : ... .. . ... ...
ROW 67 : ... .. . ... ... ... : ... .. . ... ... ... : ... .. . ... : ... .. . ... : ... .. . ... ... : ... .. . ... ... : ... .. . ... ... : ... .. . ... ...
ROW 68 : ... .. . ... ... ... : ... .. . ... ... ... : ... .. . ... : ... .. . ... : ... .. . ... ... : ... .. . ... ... : ... .. . ... ... : ... .. . ... ...
ROW 69 : ... .. . ... ... ... : ... .. . ... ... ... : ... .. . ... : ... .. . ... : ... .. . ... ... : ... .. . ... ... : ... .. . ... ... : ... .. . ... ...
ROW 6A : ... .. . ... ... ... : ... .. . ... ... ... : ... .. . ... : ... .. . ... : ... .. . ... ... : ... .. . ... ... : ... .. . ... ... : ... .. . ... ...
ROW 6B : ... .. . ... ... ... : ... .. . ... ... ... : ... .. . ... : ... .. . ... : ... .. . ... ... : ... .. . ... ... : ... .. . ... ... : ... .. . ... ...
ROW 6C : ... .. . ... ... ... : ... .. . ... ... ... : ... .. . ... : ... .. . ... : ... .. . ... ... : ... .. . ... ... : ... .. . ... ... : ... .. . ... ...
ROW 6D : ... .. . ... ... ... : ... .. . ... ... ... : ... .. . ... : ... .. . ... : ... .. . ... ... : ... .. . ... ... : ... .. . ... ... : ... .. . ... ...
ROW 6E : ... .. . ... ... ... : ... .. . ... ... ... : ... .. . ... : ... .. . ... : ... .. . ... ... : ... .. . ... ... : ... .. . ... ... : ... .. . ... ...
ROW 6F : ... .. . ... ... ... : ... .. . ... ... ... : ... .. . ... : ... .. . ... : ... .. . ... ... : ... .. . ... ... : ... .. . ... ... : ... .. . ... ...
ROW 70 : ... .. . ... ... ... : ... .. . ... ... ... : ... .. . ... : ... .. . ... : ... .. . ... ... : ... .. . ... ... : ... .. . ... ... : ... .. . ... ...
ROW 71 : ... .. . ... ... ... : ... .. . ... ... ... : ... .. . ... : ... .. . ... : ... .. . ... ... : ... .. . ... ... : ... .. . ... ... : ... .. . ... ...
ROW 72 : ... .. . ... ... ... : ... .. . ... ... ... : ... .. . ... : ... .. . ... : ... .. . ... ... : ... .. . ... ... : ... .. . ... ... : ... .. . ... ...
ROW 73 : ... .. . ... ... ... : ... .. . ... ... ... : ... .. . ... : ... .. . ... : ... .. . ... ... : ... .. . ... ... : ... .. . ... ... : ... .. . ... ...
ROW 74 : ... .. . ... ... ... : ... .. . ... ... ... : ... .. . ... : ... .. . ... : ... .. . ... ... : ... .. . ... ... : ... .. . ... ... : ... .. . ... ...
ROW 75 : ... .. . ... ... ... : ... .. . ... ... ... : ... .. . ... : ... .. . ... : ... .. . ... ... : ... .. . ... ... : ... .. . ... ... : ... .. . ... ...
ROW 76 : ... .. . ... ... ... : ... .. . ... ... ... : ... .. . ... : ... .. . ... : ... .. . ... ... : ... .. . ... ... : ... .. . ... ... : ... .. . ... ...
ROW 77 : ... .. . ... ... ... : ... .. . ... ... ... : ... .. . ... : ... .. . ... : ... .. . ... ... : ... .. . ... ... : ... .. . ... ... : ... .. . ... ...
ROW 78 : ... .. . ... ... ... : ... .. . ... ... ... : ... .. . ... : ... .. . ... : ... .. . ... ... : ... .. . ... ... : ... .. . ... ... : ... .. . ... ...
ROW 79 : ... .. . ... ... ... : ... .. . ... ... ... : ... .. . ... : ... .. . ... : ... .. . ... ... : ... .. . ... ... : ... .. . ... ... : ... .. . ... ...
ROW 7A : ... .. . ... ... ... : ... .. . ... ... ... : ... .. . ... : ... .. . ... : ... .. . ... ... : ... .. . ... ... : ... .. . ... ... : ... .. . ... ...
ROW 7B : ... .. . ... ... ... : ... .. . ... ... ... : ... .. . ... : ... .. . ... : ... .. . ... ... : ... .. . ... ... : ... .. . ... ... : ... .. . ... ...
ROW 7C : ... .. . ... ... ... : ... .. . ... ... ... : ... .. . ... : ... .. . ... : ... .. . ... ... : ... .. . ... ... : ... .. . ... ... : ... .. . ... ...
ROW 7D : ... .. . ... ... ... : ... .. . ... ... ... : ... .. . ... : ... .. . ... : ... .. . ... ... : ... .. . ... ... : ... .. . ... ... : ... .. . ... ...
ROW 7E : ... .. . ... ... ... : ... .. . ... ... ... : ... .. . ... : ... .. . ... : ... .. . ... ... : ... .. . ... ... : ... .. . ... ... : ... .. . ... ...
ROW 7F : ... .. . ... ... ... : ... .. . ... ... ... : ... .. . ... : ... .. . ... : ... .. . ... ... : ... .. . ... ... : ... .. . ... ... : ... .. . ... ...
ROW 80 : ... .. . ... ... ... : ... .. . ... ... ... : ... .. . ... : ... .. . ... : ... .. . ... ... : ... .. . ... ... : ... .. . ... ... : ... .. . ... ...
ROW 81 : ... .. . ... ... ... : ... .. . ... ... ... : ... .. . ... : ... .. . ... : ... .. . ... ... : ... .. . ... ... : ... .. . ... ... : ... .. . ... ...
ROW 82 : ... .. . ... ... ... : ... .. . ... ... ... : ... .. . ... : ... .. . ... : ... .. . ... ... : ... .. . ... ... : ... .. . ... ... : ... .. . ... ...
ROW 83 : ... .. . ... ... ... : ... .. . ... ... ... : ... .. . ... : ... .. . ... : ... .. . ... ... : ... .. . ... ... : ... .. . ... ... : ... .. . ... ...
ROW 84 : ... .. . ... ... ... : ... .. . ... ... ... : ... .. . ... : ... .. . ... : ... .. . ... ... : ... .. . ... ... : ... .. . ... ... : ... .. . ... ...
ROW 85 : ... .. . ... ... ... : ... .. . ... ... ... : ... .. . ... : ... .. . ... : ... .. . ... ... : ... .. . ... ... : ... .. . ... ... : ... .. . ... ...
ROW 86 : ... .. . ... ... ... : ... .. . ... ... ... : ... .. . ... : ... .. . ... : ... .. . ... ... : ... .. . ... ... : ... .. . ... ... : ... .. . ... ...
ROW 87 : ... .. . ... ... ... : ... .. . ... ... ... : ... .. . ... : ... .. . ... : ... .. . ... ... : ... .. . ... ... : ... .. . ... ... : ... .. . ... ...
ROW 88 : ... .. . ... ... ... : ... .. . ... ... ... : ... .. . ... : ... .. . ... : ... .. . ... ... : ... .. . ... ... : ... .. . ... ... : ... .. . ... ...
ROW 89 : ... .. . ... ... ... : ... .. . ... ... ... : ... .. . ... : ... .. . ... : ... .. . ... ... : ... .. . ... ... : ... .. . ... ... : ... .. . ... ...
ROW 8A : ... .. . ... ... ... : ... .. . ... ... ... : ... .. . ... : ... .. . ... : ... .. . ... ... : ... .. . ... ... : ... .. . ... ... : ... .. . ... ...
ROW 8B : ... .. . ... ... ... : ... .. . ... ... ... : ... .. . ... : ... .. . ... : ... .. . ... ... : ... .. . ... ... : ... .. . ... ... : ... .. . ... ...
ROW 8C : ... .. . ... ... ... : ... .. . ... ... ... : ... .. . ... : ... .. . ... : ... .. . ... ... : ... .. . ... ... : ... .. . ... ... : ... .. . ... ...
ROW 8D : ... .. . ... ... ... : ... .. . ... ... ... : ... .. . ... : ... .. . ... : ... .. . ... ... : ... .. . ... ... : ... .. . ... ... : ... .. . ... ...
ROW 8E : ... .. . ... ... ... : ... .. . ... ... ... : ... .. . ... : ... .. . ... : ... .. . ... ... : ... .. . ... ... : ... .. . ... ... : ... .. . ... ...
ROW 8F : ... .. . ... ... ... : ... .. . ... ... ... : ... .. . ... : ... .. . ... : ... .. . ... ... : ... .. . ... ... : ... .. . ... ... : ... .. . ... ...
ROW 90 : ... .. . ... ... ... : ... .. . ... ... ... : ... .. . ... : ... .. . ... : ... .. . ... ... : ... .. . ... ... : ... .. . ... ... : ... .. . ... ...
ROW 91 : ... .. . ... ... ... : ... .. . ... ... ... : ... .. . ... : ... .. . ... : ... .. . ... ... : ... .. . ... ... : ... .. . ... ... : ... .. . ... ...
ROW 92 : ... .. . ... ... ... : ... .. . ... ... ... : ... .. . ... : ... .. . ... : ... .. . ... ... : ... .. . ... ... : ... .. . ... ... : ... .. . ... ...
ROW 93 : ... .. . ... ... ... : ... .. . ... ... ... : ... .. . ... : ... .. . ... : ... .. . ... ... : ... .. . ... ... : ... .. . ... ... : ... .. . ... ...
ROW 94 : ... .. . ... ... ... : ... .. . ... ... ... : ... .. . ... : ... .. . ... : ... .. . ... ... : ... .. . ... ... : ... .. . ... ... : ... .. . ... ...
ROW 95 : ... .. . ... ... ... : ... .. . ... ... ... : ... .. . ... : ... .. . ... : ... .. . ... ... : ... .. . ... ... : ... .. . ... ... : ... .. . ... ...
ROW 96 : ... .. . ... ... ... : ... .. . ... ... ... : ... .. . ... : ... .. . ... : ... .. . ... ... : ... .. . ... ... : ... .. . ... ... : ... .. . ... ...
ROW 97 : ... .. . ... ... ... : ... .. . ... ... ... : ... .. . ... : ... .. . ... : ... .. . ... ... : ... .. . ... ... : ... .. . ... ... : ... .. . ... ...
ROW 98 : ... .. . ... ... ... : ... .. . ... ... ... : ... .. . ... : ... .. . ... : ... .. . ... ... : ... .. . ... ... : ... .. . ... ... : ... .. . ... ...
ROW 99 : ... .. . ... ... ... : ... .. . ... ... ... : ... .. . ... : ... .. . ... : ... .. . ... ... : ... .. . ... ... : ... .. . ... ... : ... .. . ... ...
ROW 9A : ... .. . ... ... ... : ... .. . ... ... ... : ... .. . ... : ... .. . ... : ... .. . ... ... : ... .. . ... ... : ... .. . ... ... : ... .. . ... ...
ROW 9B : ... .. . ... ... ... : ... .. . ... ... ... : ... .. . ... : ... .. . ... : ... .. . ... ... : ... .. . ... ... : ... .. . ... ... : ... .. . ... ...
ROW 9C : ... .. . ... ... ... : ... .. . ... ... ... : ... .. . ... : ... .. . ... : ... .. . ... ... : ... .. . ... ... : ... .. . ... ... : ... .. . ... ...
ROW 9D : ... .. . ... ... ... : ... .. . ... ... ... : ... .. . ... : ... .. . ... : ... .. . ... ... : ... .. . ... ... : ... .. . ... ... : ... .. . ... ...
ROW 9E : ... .. . ... ... ... : ... .. . ... ... ... : ... .. . ... : ... .. . ... : ... .. . ... ... : ... .. . ... ... : ... .. . ... ... : ... .. . ... ...
ROW 9F : ... .. . ... ... ... : ... .. . ... ... ... : ... .. . ... : ... .. . ... : ... .. . ... ... : ... .. . ... ... : ... .. . ... ... : ... .. . ... ...
ROW A0 : ... .. . ... ... ... : ... .. . ... ... ... : ... .. . ... : ... .. . ... : ... .. . ... ... : ... .. . ... ... : ... .. . ... ... : ... .. . ... ...
ROW A1 : ... .. . ... ... ... : ... .. . ... ... ... : ... .. . ... : ... .. . ... : ... .. . ... ... : ... .. . ... ... : ... .. . ... ... : ... .. . ... ...
ROW A2 : ... .. . ... ... ... : ... .. . ... ... ... : ... .. . ... : ... .. . ... : ... .. . ... ... : ... .. . ... ... : ... .. . ... ... : ... .. . ... ...
ROW A3 : ... .. . ... ... ... : ... .. . ... ... ... : ... .. . ... : ... .. . ... : ... .. . ... ... : ... .. . ... ... : ... .. . ... ... : ... .. . ... ...
ROW A4 : ... .. . ... ... ... : ... .. . ... ... ... : ... .. . ... : ... .. . ... : ... .. . ... ... : ... .. . ... ... : ... .. . ... ... : ... .. . ... ...
ROW A5 : ... .. . ... ... ... : ... .. . ... ... ... : ... .. . ... : ... .. . ... : ... .. . ... ... : ... .. . ... ... : ... .. . ... ... : ... .. . ... ...
ROW A6 : ... .. . ... ... ... : ... .. . ... ... ... : ... .. . ... : ... .. . ... : ... .. . ... ... : ... .. . ... ... : ... .. . ... ... : ... .. . ... ...
ROW A7 : ... .. . ... ... ... : ... .. . ... ... ... : ... .. . ... : ... .. . ... : ... .. . ... ... : ... .. . ... ... : ... .. . ... ... : ... .. . ... ...
ROW A8 : ... .. . ... ... ... : ... .. . ... ... ... : ... .. . ... : ... .. . ... : ... .. . ... ... : ... .. . ... ... : ... .. . ... ... : ... .. . ... ...
ROW A9 : ... .. . ... ... ... : ... .. . ... ... ... : ... .. . ... : ... .. . ... : ... .. . ... ... : ... .. . ... ... : ... .. . ... ... : ... .. . ... ...
ROW AA : ... .. . ... ... ... : ... .. . ... ... ... : ... .. . ... : ... .. . ... : ... .. . ... ... : ... .. . ... ... : ... .. . ... ... : ... .. . ... ...
ROW AB : ... .. . ... ... ... : ... .. . ... ... ... : ... .. . ... : ... .. . ... : ... .. . ... ... : ... .. . ... ... : ... .. . ... ... : ... .. . ... ...
ROW AC : ... .. . ... ... ... : ... .. . ... ... ... : ... .. . ... : ... .. . ... : ... .. . ... ... : ... .. . ... ... : ... .. . ... ... : ... .. . ... ...
ROW AD : ... .. . ... ... ... : ... .. . ... ... ... : ... .. . ... : ... .. . ... : ... .. . ... ... : ... .. . ... ... : ... .. . ... ... : ... .. . ... ...
ROW AE : ... .. . ... ... ... : ... .. . ... ... ... : ... .. . ... : ... .. . ... : ... .. . ... ... : ... .. . ... ... : ... .. . ... ... : ... .. . ... ...
ROW AF : ... .. . ... ... ... : ... .. . ... ... ... : ... .. . ... : ... .. . ... : ... .. . ... ... : ... .. . ... ... : ... .. . ... ... : ... .. . ... ...
ROW B0 : ... .. . ... ... ... : ... .. . ... ... ... : ... .. . ... : ... .. . ... : ... .. . ... ... : ... .. . ... ... : ... .. . ... ... : ... .. . ... ...
ROW B1 : ... .. . ... ... ... : ... .. . ... ... ... : ... .. . ... : ... .. . ... : ... .. . ... ... : ... .. . ... ... : ... .. . ... ... : ... .. . ... ...
ROW B2 : ... .. . ... ... ... : ... .. . ... ... ... : ... .. . ... : ... .. . ... : ... .. . ... ... : ... .. . ... ... : ... .. . ... ... : ... .. . ... ...
ROW B3 : ... .. . ... ... ... : ... .. . ... ... ... : ... .. . ... : ... .. . ... : ... .. . ... ... : ... .. . ... ... : ... .. . ... ... : ... .. . ... ...
ROW B4 : ... .. . ... ... ... : ... .. . ... ... ... : ... .. . ... : ... .. . ... : ... .. . ... ... : ... .. . ... ... : ... .. . ... ... : ... .. . ... ...
ROW B5 : ... .. . ... ... ... : ... .. . ... ... ... : ... .. . ... : ... .. . ... : ... .. . ... ... : ... .. . ... ... : ... .. . ... ... : ... .. . ... ...
ROW B6 : ... .. . ... ... ... : ... .. . ... ... ... : ... .. . ... : ... .. . ... : ... .. . ... ... : ... .. . ... ... : ... .. . ... ... : ... .. . ... ...
ROW B7 : ... .. . ... ... ... : ... .. . ... ... ... : ... .. . ... : ... .. . ... : ... .. . ... ... : ... .. . ... ... : ... .. . ... ... : ... .. . ... ...
ROW B8 : ... .. . ... ... ... : ... .. . ... ... ... : ... .. . ... : ... .. . ... : ... .. . ... ... : ... .. . ... ... : ... .. . ... ... : ... .. . ... ...
ROW B9 : ... .. . ... ... ... : ... .. . ... ... ... : ... .. . ... : ... .. . ... : ... .. . ... ... : ... .. . ... ... : ... .. . ... ... : ... .. . ... ...
ROW BA : ... .. . ... ... ... : ... .. . ... ... ... : ... .. . ... : ... .. . ... : ... .. . ... ... : ... .. . ... ... : ... .. . ... ... : ... .. . ... ...
ROW BB : ... .. . ... ... ... : ... .. . ... ... ... : ... .. . ... : ... .. . ... : ... .. . ... ... : ... .. . ... ... : ... .. . ... ... : ... .. . ... ...
ROW BC : ... .. . ... ... ... : ... .. . ... ... ... : ... .. . ... : ... .. . ... : ... .. . ... ... : ... .. . ... ... : ... .. . ... ... : ... .. . ... ...
ROW BD : ... .. . ... ... ... : ... .. . ... ... ... : ... .. . ... : ... .. . ... : ... .. . ... ... : ... .. . ... ... : ... .. . ... ... : ... .. . ... ...
ROW BE : ... .. . ... ... ... : ... .. . ... ... ... : ... .. . ... : ... .. . ... : ... .. . ... ... : ... .. . ... ... : ... .. . ... ... : ... .. . ... ...
ROW BF : ... .. . ... ... ... : ... .. . ... ... ... : ... .. . ... : ... .. . ... : ... .. . ... ... : ... .. . ... ... : ... .. . ... ... : ... .. . ... ...
ROW C0 : ... .. . ... ... ... : ... .. . ... ... ... : ... .. . ... : ... .. . ... : ... .. . ... ... : ... .. . ... ... : ... .. . ... ... : ... .. . ... ...
ROW C1 : ... .. . ... ... ... : ... .. . ... ... ... : ... .. . ... : ... .. . ... : ... .. . ... ... : ... .. . ... ... : ... .. . ... ... : ... .. . ... ...
ROW C2 : ... .. . ... ... ... : ... .. . ... ... ... : ... .. . ... : ... .. . ... : ... .. . ... ... : ... .. . ... ... : ... .. . ... ... : ... .. . ... ...
ROW C3 : ... .. . ... ... ... : ... .. . ... ... ... : ... .. . ... : ... .. . ... : ... .. . ... ... : ... .. . ... ... : ... .. . ... ... : ... .. . ... ...
ROW C4 : ... .. . ... ... ... : ... .. . ... ... ... : ... .. . ... : ... .. . ... : ... .. . ... ... : ... .. . ... ... : ... .. . ... ... : ... .. . ... ...
ROW C5 : ... .. . ... ... ... : ... .. . ... ... ... : ... .. . ... : ... .. . ... : ... .. . ... ... : ... .. . ... ... : ... .. . ... ... : ... .. . ... ...
ROW C6 : ... .. . ... ... ... : ... .. . ... ... ... : ... .. . ... : ... .. . ... : ... .. . ... ... : ... .. . ... ... : ... .. . ... ... : ... .. . ... ...
ROW C7 : ... .. . ... ... ... : ... .. . ... ... ... : ... .. . ... : ... .. . ... : ... .. . ... ... : ... .. . ... ... : ... .. . ... ... : ... .. . ... ...
ROW C8 : ... .. . ... ... ... : ... .. . ... ... ... : ... .. . ... : ... .. . ... : ... .. . ... ... : ... .. . ... ... : ... .. . ... ... : ... .. . ... ...
ROW C9 : ... .. . ... ... ... : ... .. . ... ... ... : ... .. . ... : ... .. . ... : ... .. . ... ... : ... .. . ... ... : ... .. . ... ... : ... .. . ... ...
ROW CA : ... .. . ... ... ... : ... .. . ... ... ... : ... .. . ... : ... .. . ... : ... .. . ... ... : ... .. . ... ... : ... .. . ... ... : ... .. . ... ...
ROW CB : ... .. . ... ... ... : ... .. . ... ... ... : ... .. . ... : ... .. . ... : ... .. . ... ... : ... .. . ... ... : ... .. . ... ... : ... .. . ... ...
ROW CC : ... .. . ... ... ... : ... .. . ... ... ... : ... .. . ... : ... .. . ... : ... .. . ... ... : ... .. . ... ... : ... .. . ... ... : ... .. . ... ...
ROW CD : ... .. . ... ... ... : ... .. . ... ... ... : ... .. . ... : ... .. . ... : ... .. . ... ... : ... .. . ... ... : ... .. . ... ... : ... .. . ... ...
ROW CE : ... .. . ... ... ... : ... .. . ... ... ... : ... .. . ... : ... .. . ... : ... .. . ... ... : ... .. . ... ... : ... .. . ... ... : ... .. . ... ...
ROW CF : ... .. . ... ... ... : ... .. . ... ... ... : ... .. . ... : ... .. . ... : ... .. . ... ... : ... .. . ... ... : ... .. . ... ... : ... .. . ... ...
ROW D0 : ... .. . ... ... ... : ... .. . ... ... ... : ... .. . ... : ... .. . ... : ... .. . ... ... : ... .. . ... ... : ... .. . ... ... : ... .. . ... ...
ROW D1 : ... .. . ... ... ... : ... .. . ... ... ... : ... .. . ... : ... .. . ... : ... .. . ... ... : ... .. . ... ... : ... .. . ... ... : ... .. . ... ...
ROW D2 : ... .. . ... ... ... : ... .. . ... ... ... : ... .. . ... : ... .. . ... : ... .. . ... ... : ... .. . ... ... : ... .. . ... ... : ... .. . ... ...
ROW D3 : ... .. . ... ... ... : ... .. . ... ... ... : ... .. . ... : ... .. . ... : ... .. . ... ... : ... .. . ... ... : ... .. . ... ... : ... .. . ... ...
ROW D4 : ... .. . ... ... ... : ... .. . ... ... ... : ... .. . ... : ... .. . ... : ... .. . ... ... : ... .. . ... ... : ... .. . ... ... : ... .. . ... ...
ROW D5 : ... .. . ... ... ... : ... .. . ... ... ... : ... .. . ... : ... .. . ... : ... .. . ... ... : ... .. . ... ... : ... .. . ... ... : ... .. . ... ...
ROW D6 : ... .. . ... ... ... : ... .. . ... ... ... : ... .. . ... : ... .. . ... : ... .. . ... ... : ... .. . ... ... : ... .. . ... ... : ... .. . ... ...
ROW D7 : ... .. . ... ... ... : ... .. . ... ... ... : ... .. . ... : ... .. . ... : ... .. . ... ... : ... .. . ... ... : ... .. . ... ... : ... .. . ... ...
ROW D8 : ... .. . ... ... ... : ... .. . ... ... ... : ... .. . ... : ... .. . ... : ... .. . ... ... : ... .. . ... ... : ... .. . ... ... : ... .. . ... ...
ROW D9 : ... .. . ... ... ... : ... .. . ... ... ... : ... .. . ... : ... .. . ... : ... .. . ... ... : ... .. . ... ... : ... .. . ... ... : ... .. . ... ...
ROW DA : ... .. . ... ... ... : ... .. . ... ... ... : ... .. . ... : ... .. . ... : ... .. . ... ... : ... .. . ... ... : ... .. . ... ... : ... .. . ... ...
ROW DB : ... .. . ... ... ... : ... .. . ... ... ... : ... .. . ... : ... .. . ... : ... .. . ... ... : ... .. . ... ... : ... .. . ... ... : ... .. . ... ...
ROW DC : ... .. . ... ... ... : ... .. . ... ... ... : ... .. . ... : ... .. . ... : ... .. . ... ... : ... .. . ... ... : ... .. . ... ... : ... .. . ... ...
ROW DD : ... .. . ... ... ... : ... .. . ... ... ... : ... .. . ... : ... .. . ... : ... .. . ... ... : ... .. . ... ... : ... .. . ... ... : ... .. . ... ...
ROW DE : ... .. . ... ... ... : ... .. . ... ... ... : ... .. . ... : ... .. . ... : ... .. . ... ... : ... .. . ... ... : ... .. . ... ... : ... .. . ... ...
ROW DF : ... .. . ... ... ... : ... .. . ... ... ... : ... .. . ... : ... .. . ... : ... .. . ... ... : ... .. . ... ... : ... .. . ... ... : ... .. . ... ...
ROW E0 : ... .. . ... ... ... : ... .. . ... ... ... : ... .. . ... : ... .. . ... : ... .. . ... ... : ... .. . ... ... : ... .. . ... ... : ... .. . ... ...
ROW E1 : ... .. . ... ... ... : ... .. . ... ... ... : ... .. . ... : ... .. . ... : ... .. . ... ... : ... .. . ... ... : ... .. . ... ... : ... .. . ... ...
ROW E2 : ... .. . ... ... ... : ... .. . ... ... ... : ... .. . ... : ... .. . ... : ... .. . ... ... : ... .. . ... ... : ... .. . ... ... : ... .. . ... ...
ROW E3 : ... .. . ... ... ... : ... .. . ... ... ... : ... .. . ... : ... .. . ... : ... .. . ... ... : ... .. . ... ... : ... .. . ... ... : ... .. . ... ...
ROW E4 : ... .. . ... ... ... : ... .. . ... ... ... : ... .. . ... : ... .. . ... : ... .. . ... ... : ... .. . ... ... : ... .. . ... ... : ... .. . ... ...
ROW E5 : ... .. . ... ... ... : ... .. . ... ... ... : ... .. . ... : ... .. . ... : ... .. . ... ... : ... .. . ... ... : ... .. . ... ... : ... .. . ... ...
ROW E6 : ... .. . ... ... ... : ... .. . ... ... ... : ... .. . ... : ... .. . ... : ... .. . ... ... : ... .. . ... ... : ... .. . ... ... : ... .. . ... ...
ROW E7 : ... .. . ... ... ... : ... .. . ... ... ... : ... .. . ... : ... .. . ... : ... .. . ... ... : ... .. . ... ... : ... .. . ... ... : ... .. . ... ...
ROW E8 : ... .. . ... ... ... : ... .. . ... ... ... : ... .. . ... : ... .. . ... : ... .. . ... ... : ... .. . ... ... : ... .. . ... ... : ... .. . ... ...
ROW E9 : ... .. . ... ... ... : ... .. . ... ... ... : ... .. . ... : ... .. . ... : ... .. . ... ... : ... .. . ... ... : ... .. . ... ... : ... .. . ... ...
ROW EA : ... .. . ... ... ... : ... .. . ... ... ... : ... .. . ... : ... .. . ... : ... .. . ... ... : ... .. . ... ... : ... .. . ... ... : ... .. . ... ...
ROW EB : ... .. . ... ... ... : ... .. . ... ... ... : ... .. . ... : ... .. . ... : ... .. . ... ... : ... .. . ... ... : ... .. . ... ... : ... .. . ... ...
ROW EC : ... .. . ... ... ... : ... .. . ... ... ... : ... .. . ... : ... .. . ... : ... .. . ... ... : ... .. . ... ... : ... .. . ... ... : ... .. . ... ...
ROW ED : ... .. . ... ... ... : ... .. . ... ... ... : ... .. . ... : ... .. . ... : ... .. . ... ... : ... .. . ... ... : ... .. . ... ... : ... .. . ... ...
ROW EE : ... .. . ... ... ... : ... .. . ... ... ... : ... .. . ... : ... .. . ... : ... .. . ... ... : ... .. . ... ... : ... .. . ... ... : ... .. . ... ...
ROW EF : ... .. . ... ... ... : ... .. . ... ... ... : ... .. . ... : ... .. . ... : ... .. . ... ... : ... .. . ... ... : ... .. . ... ... : ... .. . ... ...
ROW F0 : ... .. . ... ... ... : ... .. . ... ... ... : ... .. . ... : ... .. . ... : ... .. . ... ... : ... .. . ... ... : ... .. . ... ... : ... .. . ... ...
ROW F1 : ... .. . ... ... ... : ... .. . ... ... ... : ... .. . ... : ... .. . ... : ... .. . ... ... : ... .. . ... ... : ... .. . ... ... : ... .. . ... ...
ROW F2 : ... .. . ... ... ... : ... .. . ... ... ... : ... .. . ... : ... .. . ... : ... .. . ... ... : ... .. . ... ... : ... .. . ... ... : ... .. . ... ...
ROW F3 : ... .. . ... ... ... : ... .. . ... ... ... : ... .. . ... : ... .. . ... : ... .. . ... ... : ... .. . ... ... : ... .. . ... ... : ... .. . ... ...
ROW F4 : ... .. . ... ... ... : ... .. . ... ... ... : ... .. . ... : ... .. . ... : ... .. . ... ... : ... .. . ... ... : ... .. . ... ... : ... .. . ... ...
ROW F5 : ... .. . ... ... ... : ... .. . ... ... ... : ... .. . ... : ... .. . ... : ... .. . ... ... : ... .. . ... ... : ... .. . ... ... : ... .. . ... ...
ROW F6 : ... .. . ... ... ... : ... .. . ... ... ... : ... .. . ... : ... .. . ... : ... .. . ... ... : ... .. . ... ... : ... .. . ... ... : ... .. . ... ...
ROW F7 : ... .. . ... ... ... : ... .. . ... ... ... : ... .. . ... : ... .. . ... : ... .. . ... ... : ... .. . ... ... : ... .. . ... ... : ... .. . ... ...
ROW F8 : ... .. . ... ... ... : ... .. . ... ... ... : ... .. . ... : ... .. . ... : ... .. . ... ... : ... .. . ... ... : ... .. . ... ... : ... .. . ... ...
ROW F9 : ... .. . ... ... ... : ... .. . ... ... ... : ... .. . ... : ... .. . ... : ... .. . ... ... : ... .. . ... ... : ... .. . ... ... : ... .. . ... ...
ROW FA : ... .. . ... ... ... : ... .. . ... ... ... : ... .. . ... : ... .. . ... : ... .. . ... ... : ... .. . ... ... : ... .. . ... ... : ... .. . ... ...
ROW FB : ... .. . ... ... ... : ... .. . ... ... ... : ... .. . ... : ... .. . ... : ... .. . ... ... : ... .. . ... ... : ... .. . ... ... : ... .. . ... ...
ROW FC : ... .. . ... ... ... : ... .. . ... ... ... : ... .. . ... : ... .. . ... : ... .. . ... ... : ... .. . ... ... : ... .. . ... ... : ... .. . ... ...
ROW FD : ... .. . ... ... ... : ... .. . ... ... ... : ... .. . ... : ... .. . ... : ... .. . ... ... : ... .. . ... ... : ... .. . ... ... : ... .. . ... ...
ROW FE : ... .. . ... ... ... : ... .. . ... ... ... : ... .. . ... : ... .. . ... : ... .. . ... ... : ... .. . ... ... : ... .. . ... ... : ... .. . ... ...
ROW FF : ... .. . ... ... ... : ... .. . ... ... ... : ... .. . ... : ... .. . ... : ... .. . ... ... : ... .. . ... ... : ... .. . ... ... : ... .. . ... ...

# End of export
