# FamiTracker text export 0.4.2

# Song information
TITLE           "Shovel Knight OST"
AUTHOR          "Jake Kaufman"
COPYRIGHT       ""

# Song comment
COMMENT ""

# Global settings
MACHINE         0
FRAMERATE       0
EXPANSION       1
VIBRATO         1
SPLIT           21

# Macros

# DPCM samples

# Instruments
INST2A03   0    -1  -1  -1  -1  -1 "blank"
INSTVRC6   1    -1  -1  -1  -1  -1 "blank"

# Tracks

TRACK 256   1 150 "New song"
COLUMNS : 3 3 1 1 2 2 2 2

ORDER 00 : 00 00 00 00 00 00 00 00
ORDER 01 : 01 01 01 01 01 01 01 01
ORDER 02 : 02 02 02 02 02 02 02 02
ORDER 03 : 03 03 03 03 03 03 03 03
ORDER 04 : 04 04 04 04 04 04 04 04
ORDER 05 : 05 05 05 05 05 05 05 05
ORDER 06 : 06 06 06 06 06 06 06 06
ORDER 07 : 07 07 07 07 07 07 07 07
ORDER 08 : 08 08 08 08 08 08 08 08
ORDER 09 : 09 09 09 09 09 09 09 09
ORDER 0A : 0A 0A 0A 0A 0A 0A 0A 0A
ORDER 0B : 0B 0B 0B 0B 0B 0B 0B 0B
ORDER 0C : 0C 0C 0C 0C 0C 0C 0C 0C
ORDER 0D : 0D 0D 0D 0D 0D 0D 0D 0D
ORDER 0E : 0E 0E 0E 0E 0E 0E 0E 0E
ORDER 0F : 0F 0F 0F 0F 0F 0F 0F 0F
ORDER 10 : 10 10 10 10 10 10 10 10
ORDER 11 : 11 11 11 11 11 11 11 11
ORDER 12 : 12 12 12 12 12 12 12 12
ORDER 13 : 13 13 13 13 13 13 13 13
ORDER 14 : 14 14 14 14 14 14 14 14
ORDER 15 : 15 15 15 15 15 15 15 15
ORDER 16 : 16 16 16 16 16 16 16 16
ORDER 17 : 17 17 17 17 17 17 17 17
ORDER 18 : 18 18 18 18 18 18 18 18
ORDER 19 : 19 19 19 19 19 19 19 19
ORDER 1A : 1A 1A 1A 1A 1A 1A 1A 1A
ORDER 1B : 1B 1B 1B 1B 1B 1B 1B 1B
ORDER 1C : 1C 1C 1C 1C 1C 1C 1C 1C

PATTERN 00
ROW 00 : D#4 00 1 P7F V01 ... : D#4 00 1 P81 V01 ... : --- .. . P80 : F-# 00 0 V00 : === 00 . Z00 ... : --- .. 0 P80 V00 : --- .. 0 P80 V00 : --- .. 0 P80 V00
ROW 01 : ... .. . ... V02 ... : ... .. . ... V02 ... : ... .. . ... : ... .. . ... : ... .. . ... ... : ... .. . ... ... : ... .. . ... ... : ... .. . ... ...
ROW 02 : ... .. 3 ... V01 ... : ... .. 3 ... V01 ... : ... .. . ... : ... .. . ... : ... .. . ... ... : ... .. . ... ... : ... .. . ... ... : ... .. . ... ...
ROW 03 : ... .. . ... ... ... : ... .. . ... ... ... : ... .. . ... : ... .. . ... : ... .. . ... ... : ... .. . ... ... : ... .. . ... ... : ... .. . ... ...
ROW 04 : E-4 00 1 ... ... ... : E-4 00 1 ... ... ... : ... .. . ... : ... .. . ... : ... .. . ... ... : ... .. . ... ... : ... .. . ... ... : ... .. . ... ...
ROW 05 : ... .. 2 ... V02 ... : ... .. 2 ... V02 ... : ... .. . ... : ... .. . ... : ... .. . ... ... : ... .. . ... ... : ... .. . ... ... : ... .. . ... ...
ROW 06 : ... .. 6 ... V01 ... : ... .. 6 ... V01 ... : ... .. . ... : ... .. . ... : ... .. . ... ... : ... .. . ... ... : ... .. . ... ... : ... .. . ... ...
ROW 07 : ... .. . ... ... ... : ... .. . ... ... ... : ... .. . ... : ... .. . ... : ... .. . ... ... : ... .. . ... ... : ... .. . ... ... : ... .. . ... ...
ROW 08 : F-4 00 1 ... ... ... : F-4 00 1 ... ... ... : ... .. . ... : ... .. . ... : ... .. . ... ... : ... .. . ... ... : ... .. . ... ... : ... .. . ... ...
ROW 09 : ... .. 4 ... V02 ... : ... .. 4 ... V02 ... : ... .. . ... : ... .. . ... : ... .. . ... ... : ... .. . ... ... : ... .. . ... ... : ... .. . ... ...
ROW 0A : ... .. 8 ... V01 ... : ... .. 8 ... V01 ... : ... .. . ... : ... .. . ... : ... .. . ... ... : A#3 01 9 ... V05 : ... .. . ... ... : ... .. . ... ...
ROW 0B : ... .. . ... ... ... : ... .. . ... ... ... : ... .. . ... : ... .. . ... : ... .. . ... ... : ... .. 8 ... ... : ... .. . ... ... : ... .. . ... ...
ROW 0C : F#4 00 2 ... ... ... : F#4 00 2 ... ... ... : ... .. . ... : C-# 00 B ... : ... .. . ... ... : ... .. 7 ... ... : E-3 01 9 ... V05 : ... .. . ... ...
ROW 0D : ... .. 6 ... V02 ... : ... .. 6 ... V02 ... : ... .. . ... : ... .. F ... : ... .. . ... ... : ... .. . ... ... : ... .. 8 ... ... : ... .. . ... ...
ROW 0E : ... .. A ... V01 ... : ... .. A ... V01 ... : ... .. . ... : ... .. 9 ... : ... .. . ... ... : ... .. 6 ... ... : ... .. 7 ... ... : C#3 01 F ... ...
ROW 0F : ... .. . ... ... ... : ... .. . ... ... ... : ... .. . ... : ... .. 0 ... : ... .. . ... ... : ... .. . ... ... : ... .. . ... ... : ... .. D ... ...
ROW 10 : ... .. . ... ... ... : ... .. . ... ... ... : ... .. . ... : ... .. 8 ... : ... .. . ... ... : ... .. 5 ... ... : ... .. 6 ... ... : ... .. 7 ... ...
ROW 11 : ... .. . ... ... ... : ... .. . ... ... ... : ... .. . ... : ... .. B ... : ... .. . ... ... : ... .. 4 ... ... : ... .. . ... ... : ... .. . ... ...
ROW 12 : G-4 00 2 ... ... ... : G-4 00 2 ... ... ... : ... .. . ... : ... .. 6 ... : ... .. . ... ... : ... .. . ... ... : ... .. 5 ... ... : ... .. 6 ... ...
ROW 13 : ... .. 6 ... V02 ... : ... .. 6 ... V02 ... : ... .. . ... : ... .. 0 ... : ... .. . ... ... : ... .. . ... ... : ... .. 4 ... ... : ... .. . ... ...
ROW 14 : ... .. 8 ... V01 ... : ... .. 8 ... V01 ... : ... .. . ... : ... .. 5 ... : ... .. . ... ... : ... .. . ... ... : ... .. . ... ... : ... .. . ... ...
ROW 15 : ... .. . ... ... ... : ... .. . ... ... ... : ... .. . ... : ... .. 7 ... : ... .. . ... ... : ... .. . ... ... : ... .. . ... ... : ... .. . ... ...
ROW 16 : F#4 00 1 ... ... ... : F#4 00 1 ... ... ... : ... .. . ... : ... .. 3 ... : ... .. . ... ... : ... .. . ... ... : ... .. . ... ... : ... .. . ... ...
ROW 17 : ... .. 4 ... V02 ... : ... .. 4 ... V02 ... : ... .. . ... : ... .. 0 ... : ... .. . ... ... : ... .. . ... ... : ... .. . ... ... : ... .. . ... ...
ROW 18 : ... .. 7 ... V01 ... : ... .. 7 ... V01 ... : ... .. . ... : ... .. 2 ... : ... .. . ... ... : ... .. . ... ... : ... .. . ... ... : ... .. 5 ... ...
ROW 19 : ... .. . ... ... ... : ... .. . ... ... ... : ... .. . ... : ... .. 4 ... : ... .. . ... ... : ... .. . ... ... : ... .. . ... ... : ... .. . ... ...
ROW 1A : G-4 00 1 ... ... ... : G-4 00 1 ... ... ... : ... .. . ... : ... .. 2 ... : ... .. . ... ... : ... .. 3 ... ... : ... .. . ... ... : ... .. . ... ...
ROW 1B : ... .. 4 ... V02 ... : ... .. 4 ... V02 ... : ... .. . ... : ... .. 0 ... : ... .. . ... ... : ... .. . ... ... : ... .. . ... ... : ... .. . ... ...
ROW 1C : ... .. 6 ... V01 ... : ... .. 6 ... V01 ... : ... .. . ... : ... .. 2 ... : ... .. . ... ... : ... .. . ... ... : ... .. 3 ... ... : ... .. . ... ...
ROW 1D : ... .. . ... ... ... : ... .. . ... ... ... : ... .. . ... : ... .. 4 ... : ... .. . ... ... : ... .. . ... ... : ... .. . ... ... : ... .. . ... ...
ROW 1E : F#4 00 1 ... ... ... : F#4 00 1 ... ... ... : ... .. . ... : ... .. 3 ... : ... .. . ... ... : ... .. . ... ... : ... .. . ... ... : ... .. 4 ... ...
ROW 1F : ... .. 3 ... V02 ... : ... .. 3 ... V02 ... : ... .. . ... : ... .. 0 ... : ... .. . ... ... : ... .. . ... ... : ... .. . ... ... : ... .. . ... ...
ROW 20 : ... .. 5 ... V01 ... : ... .. 5 ... V01 ... : ... .. . ... : ... .. 3 ... : ... .. . ... ... : ... .. . ... ... : ... .. . ... ... : ... .. . ... ...
ROW 21 : ... .. . ... ... ... : ... .. . ... ... ... : ... .. . ... : ... .. 5 ... : ... .. . ... ... : ... .. . ... ... : ... .. . ... ... : ... .. . ... ...
ROW 22 : G-4 00 1 ... ... ... : G-4 00 1 ... ... ... : ... .. . ... : ... .. 3 ... : ... .. . ... ... : ... .. . ... ... : ... .. . ... ... : ... .. . ... ...
ROW 23 : ... .. 3 ... V02 ... : ... .. 3 ... V02 ... : ... .. . ... : ... .. 0 ... : ... .. . ... ... : ... .. . ... ... : ... .. . ... ... : ... .. . ... ...
ROW 24 : ... .. 6 ... V01 ... : ... .. 6 ... V01 ... : ... .. . ... : ... .. 4 ... : ... .. . ... ... : ... .. . ... ... : ... .. . ... ... : ... .. . ... ...
ROW 25 : ... .. . ... ... ... : ... .. . ... ... ... : ... .. . ... : ... .. 6 ... : ... .. . ... ... : ... .. . ... ... : ... .. . ... ... : ... .. . ... ...
ROW 26 : F#4 00 1 ... ... ... : F#4 00 1 ... ... ... : ... .. . ... : ... .. 4 ... : ... .. . ... ... : ... .. 4 ... ... : ... .. . ... ... : ... .. . ... ...
ROW 27 : ... .. 4 ... V02 ... : ... .. 4 ... V02 ... : ... .. . ... : ... .. 0 ... : ... .. . ... ... : ... .. . ... ... : ... .. . ... ... : ... .. . ... ...
ROW 28 : ... .. 6 ... V01 ... : ... .. 6 ... V01 ... : ... .. . ... : ... .. 4 ... : ... .. . ... ... : ... .. . ... ... : ... .. 4 ... ... : ... .. . ... ...
ROW 29 : ... .. . ... ... ... : ... .. . ... ... ... : ... .. . ... : ... .. 6 ... : ... .. . ... ... : ... .. . ... ... : ... .. . ... ... : ... .. . ... ...
ROW 2A : G-4 00 1 ... ... ... : G-4 00 1 ... ... ... : ... .. . ... : ... .. 5 ... : ... .. . ... ... : ... .. . ... ... : ... .. . ... ... : ... .. 5 ... ...
ROW 2B : ... .. 4 ... V02 ... : ... .. 4 ... V02 ... : ... .. . ... : ... .. 0 ... : ... .. . ... ... : ... .. . ... ... : ... .. . ... ... : ... .. . ... ...
ROW 2C : ... .. 8 ... V01 ... : ... .. 8 ... V01 ... : ... .. . ... : ... .. 5 ... : ... .. . ... ... : ... .. . ... ... : ... .. . ... ... : ... .. . ... ...
ROW 2D : ... .. . ... ... ... : ... .. . ... ... ... : ... .. . ... : ... .. 7 ... : ... .. . ... ... : ... .. . ... ... : ... .. . ... ... : ... .. . ... ...
ROW 2E : F#4 00 1 ... ... ... : F#4 00 1 ... ... ... : ... .. . ... : ... .. 5 ... : ... .. . ... ... : ... .. . ... ... : ... .. . ... ... : ... .. . ... ...
ROW 2F : ... .. 4 ... V02 ... : ... .. 4 ... V02 ... : ... .. . ... : ... .. 0 ... : ... .. . ... ... : ... .. . ... ... : ... .. . ... ... : ... .. . ... ...
ROW 30 : ... .. 8 ... V01 ... : ... .. 8 ... V01 ... : ... .. . ... : ... .. 5 ... : ... .. . ... ... : ... .. 5 ... ... : ... .. . ... ... : ... .. 6 ... ...
ROW 31 : ... .. . ... ... ... : ... .. . ... ... ... : ... .. . ... : ... .. 8 ... : ... .. . ... ... : ... .. . ... ... : ... .. . ... ... : ... .. . ... ...
ROW 32 : G-4 00 1 ... ... ... : G-4 00 1 ... ... ... : ... .. . ... : ... .. 5 ... : ... .. . ... ... : ... .. . ... ... : ... .. 5 ... ... : ... .. . ... ...
ROW 33 : ... .. 5 ... V02 ... : ... .. 5 ... V02 ... : ... .. . ... : ... .. 0 ... : ... .. . ... ... : ... .. . ... ... : ... .. . ... ... : ... .. . ... ...
ROW 34 : ... .. 9 ... V01 ... : ... .. 9 ... V01 ... : ... .. . ... : ... .. 5 ... : ... .. . ... ... : ... .. . ... ... : ... .. . ... ... : ... .. . ... ...
ROW 35 : ... .. . ... ... ... : ... .. . ... ... ... : ... .. . ... : ... .. 8 ... : ... .. . ... ... : ... .. . ... ... : ... .. . ... ... : ... .. . ... ...
ROW 36 : F#4 00 2 ... ... ... : F#4 00 2 ... ... ... : ... .. . ... : ... .. 6 ... : ... .. . ... ... : ... .. 6 ... ... : ... .. . ... ... : ... .. . ... ...
ROW 37 : ... .. 6 ... V02 ... : ... .. 6 ... V02 ... : ... .. . ... : ... .. 0 ... : ... .. . ... ... : ... .. . ... ... : ... .. . ... ... : ... .. . ... ...
ROW 38 : ... .. 8 ... V01 ... : ... .. 8 ... V01 ... : ... .. . ... : ... .. 6 ... : ... .. . ... ... : ... .. . ... ... : ... .. 6 ... ... : ... .. 7 ... ...
ROW 39 : ... .. . ... ... ... : ... .. . ... ... ... : ... .. . ... : ... .. 9 ... : ... .. . ... ... : ... .. . ... ... : ... .. . ... ... : ... .. . ... ...
ROW 3A : ... .. 6 ... ... ... : ... .. 6 ... ... ... : ... .. . ... : ... .. 6 ... : ... .. . ... ... : ... .. . ... ... : ... .. . ... ... : ... .. 8 ... ...
ROW 3B : ... .. . ... ... ... : ... .. . ... ... ... : ... .. . ... : ... .. 0 ... : ... .. . ... ... : ... .. . ... ... : ... .. . ... ... : ... .. . ... ...
ROW 3C : ... .. 4 ... ... ... : ... .. 4 ... ... ... : ... .. . ... : ... .. 7 ... : ... .. . ... ... : --- .. . ... ... : --- .. . P82 ... : --- .. . ... ...
ROW 3D : ... .. . ... ... ... : ... .. . ... ... ... : ... .. . ... : ... .. A ... : ... .. . ... ... : ... .. . ... ... : ... .. . ... ... : ... .. . ... ...
ROW 3E : ... .. 2 ... ... ... : ... .. 2 ... ... ... : ... .. . ... : ... .. 7 ... : ... .. . ... ... : ... .. . ... ... : ... .. . ... ... : ... .. . ... ...
ROW 3F : ... .. . ... ... ... : ... .. . ... ... ... : ... .. . ... : ... .. 0 ... : ... .. . ... ... : ... .. . ... ... : ... .. . ... ... : ... .. . ... ...
ROW 40 : B-3 00 1 ... ... ... : B-3 00 1 ... ... ... : ... .. . ... : ... .. 7 ... : ... .. . ... ... : ... .. . ... ... : ... .. . ... ... : ... .. . ... ...
ROW 41 : ... .. 2 ... V02 ... : ... .. 2 ... V02 ... : ... .. . ... : ... .. A ... : ... .. . ... ... : ... .. . ... ... : ... .. . ... ... : ... .. . ... ...
ROW 42 : A#3 00 1 ... V01 ... : A#3 00 1 ... V01 ... : ... .. . ... : ... .. 8 ... : ... .. . ... ... : ... .. . ... ... : ... .. . ... ... : ... .. . ... ...
ROW 43 : ... .. 2 ... V02 ... : ... .. 2 ... V02 ... : ... .. . ... : ... .. 0 ... : ... .. . ... ... : ... .. . ... ... : ... .. . ... ... : ... .. . ... ...
ROW 44 : A-3 00 1 ... V01 ... : A-3 00 1 ... V01 ... : ... .. . ... : ... .. 8 ... : ... .. . ... ... : ... .. . ... ... : ... .. . ... ... : ... .. . ... ...
ROW 45 : ... .. 2 ... V02 ... : ... .. 2 ... V02 ... : ... .. . ... : ... .. B ... : ... .. . ... ... : ... .. . ... ... : ... .. . ... ... : ... .. . ... ...
ROW 46 : G-3 00 1 ... V01 ... : G-3 00 1 ... V01 ... : ... .. . ... : ... .. 8 ... : ... .. . ... ... : ... .. . ... ... : ... .. . ... ... : ... .. . ... ...
ROW 47 : ... .. 3 ... V02 ... : ... .. 3 ... V02 ... : ... .. . ... : ... .. 0 ... : ... .. . ... ... : ... .. . ... ... : ... .. . ... ... : ... .. . ... ...
ROW 48 : F#3 00 1 ... V01 ... : F#3 00 1 ... V01 ... : F-4 00 . ... : ... .. C ... : ... .. . ... ... : ... .. . ... ... : ... .. . ... ... : ... .. . ... ...
ROW 49 : ... .. 4 ... V02 ... : ... .. 4 ... V02 ... : G-3 00 . ... : ... .. . ... : ... .. . ... ... : ... .. . ... ... : ... .. . ... ... : ... .. . ... ...
ROW 4A : ... .. 6 ... V01 ... : ... .. 6 ... V01 ... : C-3 00 . ... : ... .. B ... : ... .. . ... ... : ... .. . ... ... : ... .. . ... ... : ... .. . ... ...
ROW 4B : ... .. . ... ... ... : ... .. . ... ... ... : B-2 00 . ... : ... .. . ... : ... .. . ... ... : ... .. . ... ... : ... .. . ... ... : ... .. . ... ...
ROW 4C : ... .. 5 ... ... ... : ... .. 5 ... ... ... : F#2 00 . ... : ... .. A ... : ... .. . ... ... : ... .. . ... ... : ... .. . ... ... : ... .. . ... ...
ROW 4D : ... .. . ... ... ... : ... .. . ... ... ... : ... .. . ... : ... .. . ... : ... .. . ... ... : ... .. . ... ... : ... .. . ... ... : ... .. . ... ...
ROW 4E : ... .. . ... ... ... : ... .. . ... ... ... : ... .. . ... : ... .. 9 ... : ... .. . ... ... : ... .. . ... ... : ... .. . ... ... : ... .. . ... ...
ROW 4F : ... .. . ... ... ... : ... .. . ... ... ... : ... .. . ... : ... .. . ... : ... .. . ... ... : ... .. . ... ... : ... .. . ... ... : ... .. . ... ...
ROW 50 : ... .. 4 ... ... ... : ... .. 4 ... ... ... : ... .. . ... : ... .. 8 ... : ... .. . ... ... : ... .. . ... ... : ... .. . ... ... : ... .. . ... ...
ROW 51 : ... .. . ... ... ... : ... .. . ... ... ... : ... .. . ... : ... .. . ... : ... .. . ... ... : ... .. . ... ... : ... .. . ... ... : ... .. . ... ...
ROW 52 : ... .. . ... ... ... : ... .. . ... ... ... : ... .. . ... : ... .. 7 ... : ... .. . ... ... : ... .. . ... ... : ... .. . ... ... : ... .. . ... ...
ROW 53 : ... .. . ... ... ... : ... .. . ... ... ... : ... .. . ... : ... .. . ... : ... .. . ... ... : ... .. . ... ... : ... .. . ... ... : ... .. . ... ...
ROW 54 : ... .. . ... ... ... : ... .. . ... ... ... : ... .. . ... : ... .. 6 ... : ... .. . ... ... : ... .. . ... ... : ... .. . ... ... : ... .. . ... ...
ROW 55 : ... .. . ... ... ... : ... .. . ... ... ... : ... .. . ... : ... .. . ... : ... .. . ... ... : ... .. . ... ... : ... .. . ... ... : ... .. . ... ...
ROW 56 : ... .. . ... ... ... : ... .. . ... ... ... : ... .. . ... : ... .. 5 ... : ... .. . ... ... : ... .. . ... ... : ... .. . ... ... : ... .. . ... ...
ROW 57 : ... .. . ... ... ... : ... .. . ... ... ... : ... .. . ... : ... .. . ... : ... .. . ... ... : ... .. . ... ... : ... .. . ... ... : ... .. . ... ...
ROW 58 : ... .. 6 ... ... ... : ... .. 6 ... ... ... : --- .. . ... : ... .. 4 ... : ... .. . ... ... : ... .. . ... ... : ... .. . ... ... : ... .. . ... ...
ROW 59 : ... .. . ... ... ... : ... .. . ... ... ... : ... .. . ... : ... .. . ... : ... .. . ... ... : ... .. . ... ... : ... .. . ... ... : ... .. . ... ...
ROW 5A : ... .. . ... ... ... : ... .. . ... ... ... : ... .. . ... : ... .. 3 ... : ... .. . ... ... : ... .. . ... ... : ... .. . ... ... : ... .. . ... ...
ROW 5B : ... .. 1 ... V00 ... : ... .. 1 ... V00 ... : ... .. . ... : ... .. . ... : ... .. . ... ... : ... .. . ... ... : ... .. . ... ... : ... .. . ... ...
ROW 5C : ... .. 0 ... ... ... : ... .. 0 ... ... ... : ... .. . ... : ... .. . ... : ... .. . ... ... : ... .. . ... ... : ... .. . ... ... : ... .. . ... ...
ROW 5D : ... .. . ... ... ... : ... .. . ... ... ... : ... .. . ... : ... .. . ... : ... .. . ... ... : ... .. . ... ... : ... .. . ... ... : ... .. . ... ...
ROW 5E : D-4 00 1 P81 V01 ... : D-4 00 1 P7F V01 ... : A#4 00 . ... : D-# 00 C ... : ... .. . ... ... : F#3 01 2 ... ... : B-2 01 2 P80 ... : D-3 01 A ... ...
ROW 5F : ... .. 4 ... V02 ... : ... .. 4 ... V02 ... : C-4 00 . ... : ... .. 9 ... : ... .. . ... ... : ... .. 4 ... V07 : ... .. 4 ... V07 : ... .. 8 ... ...
ROW 60 : ... .. 8 ... V01 ... : ... .. 8 ... V01 ... : F-3 00 . ... : ... .. 8 ... : ... .. . ... ... : ... .. 6 ... V06 : ... .. 6 ... V06 : ... .. 5 ... ...
ROW 61 : ... .. . ... ... ... : ... .. . ... ... ... : E-3 00 . ... : ... .. . ... : ... .. . ... ... : ... .. . ... ... : ... .. . ... ... : ... .. . ... ...
ROW 62 : ... .. . ... ... ... : ... .. . ... ... ... : B-2 00 . ... : ... .. 5 ... : ... .. . ... ... : ... .. . ... ... : ... .. . ... ... : ... .. . ... ...
ROW 63 : ... .. . ... ... ... : ... .. . ... ... ... : ... .. . ... : ... .. 4 ... : ... .. . ... ... : ... .. . ... ... : ... .. . ... ... : ... .. . ... ...
ROW 64 : ... .. . ... ... ... : ... .. . ... ... ... : ... .. . ... : ... .. 3 ... : ... .. . ... ... : ... .. . ... ... : ... .. . ... ... : ... .. . ... ...
ROW 65 : ... .. . ... ... ... : ... .. . ... ... ... : ... .. . ... : ... .. 6 ... : ... .. . ... ... : ... .. 1 ... ... : ... .. 1 ... ... : ... .. 1 ... ...
ROW 66 : ... .. 1 ... V00 ... : ... .. 1 ... V00 ... : ... .. . ... : ... .. 4 ... : ... .. . ... ... : ... .. . ... ... : ... .. . ... ... : ... .. . ... ...
ROW 67 : ... .. 0 ... ... ... : ... .. 0 ... ... ... : ... .. . ... : ... .. 2 ... : ... .. . ... ... : ... .. . ... ... : ... .. . ... ... : ... .. . ... ...
ROW 68 : ... .. . ... ... ... : ... .. . ... ... ... : ... .. . ... : ... .. 1 ... : ... .. . ... ... : ... .. . ... ... : ... .. . ... ... : ... .. . ... ...
ROW 69 : ... .. . ... ... ... : ... .. . ... ... ... : ... .. . ... : ... .. . ... : ... .. . ... ... : ... .. . ... ... : ... .. . ... ... : ... .. . ... ...
ROW 6A : ... .. . ... ... ... : ... .. . ... ... ... : ... .. . ... : ... .. 0 ... : ... .. . ... ... : ... .. . ... ... : ... .. . ... ... : ... .. . ... ...
ROW 6B : ... .. . ... ... ... : ... .. . ... ... ... : ... .. . ... : ... .. 1 ... : ... .. . ... ... : ... .. . ... ... : ... .. . ... ... : ... .. . ... ...
ROW 6C : D-4 00 1 P81 V01 ... : D-4 00 1 P7F V01 ... : --- .. . ... : ... .. 6 ... : ... .. . ... ... : ... .. 2 ... V05 : ... .. 2 ... V05 : ... .. A ... ...
ROW 6D : ... .. 4 ... V02 ... : ... .. 4 ... V02 ... : ... .. . ... : ... .. 4 ... : ... .. . ... ... : ... .. 4 ... V07 : ... .. 4 ... V07 : ... .. 8 ... ...
ROW 6E : ... .. 8 ... V01 ... : ... .. 8 ... V01 ... : ... .. . ... : ... .. 2 ... : ... .. . ... ... : ... .. 6 ... V06 : ... .. 6 ... V06 : ... .. 5 ... ...
ROW 6F : ... .. . ... ... ... : ... .. . ... ... ... : ... .. . ... : ... .. 1 ... : ... .. . ... ... : ... .. . ... ... : ... .. . ... ... : ... .. . ... ...
ROW 70 : ... .. 0 ... V00 ... : ... .. 0 ... V00 ... : ... .. . ... : ... .. . ... : ... .. . ... ... : ... .. . ... ... : ... .. . ... ... : ... .. . ... ...
ROW 71 : ... .. . ... ... ... : ... .. . ... ... ... : ... .. . ... : ... .. 0 ... : ... .. . ... ... : ... .. . ... ... : ... .. . ... ... : ... .. . ... ...
ROW 72 : ... .. . ... ... ... : ... .. . ... ... ... : ... .. . ... : ... .. 1 ... : ... .. . ... ... : ... .. 1 ... ... : ... .. 1 ... ... : ... .. 1 ... ...
ROW 73 : D-4 00 1 P81 V01 ... : D-4 00 1 P7F V01 ... : F-4 00 . ... : ... .. C ... : ... .. . ... ... : D-3 01 2 ... V05 : F#2 01 2 ... V05 : B-2 01 A ... ...
ROW 74 : ... .. 4 ... V02 ... : ... .. 4 ... V02 ... : G-3 00 . ... : ... .. 9 ... : ... .. . ... ... : ... .. 4 ... V07 : ... .. 4 ... V07 : ... .. 8 ... ...
ROW 75 : ... .. 8 ... V01 ... : ... .. 8 ... V01 ... : C-3 00 . ... : ... .. 8 ... : ... .. . ... ... : ... .. 6 ... V06 : ... .. 6 ... V06 : ... .. 5 ... ...
ROW 76 : ... .. . ... ... ... : ... .. . ... ... ... : B-2 00 . ... : ... .. . ... : ... .. . ... ... : ... .. . ... ... : ... .. . ... ... : ... .. . ... ...
ROW 77 : ... .. . ... ... ... : ... .. . ... ... ... : F#2 00 . ... : ... .. 5 ... : ... .. . ... ... : ... .. . ... ... : ... .. . ... ... : ... .. . ... ...
ROW 78 : ... .. . ... ... ... : ... .. . ... ... ... : ... .. . ... : ... .. 4 ... : ... .. . ... ... : ... .. . ... ... : ... .. . ... ... : ... .. . ... ...
ROW 79 : ... .. . ... ... ... : ... .. . ... ... ... : ... .. . ... : ... .. 3 ... : ... .. . ... ... : ... .. . ... ... : ... .. . ... ... : ... .. . ... ...
ROW 7A : ... .. . ... ... ... : ... .. . ... ... ... : ... .. . ... : ... .. . ... : ... .. . ... ... : ... .. 1 ... ... : ... .. 1 ... ... : ... .. 1 ... ...
ROW 7B : ... .. . ... ... ... : ... .. . ... ... ... : ... .. . ... : ... .. 2 ... : ... .. . ... ... : ... .. . ... ... : ... .. . ... ... : ... .. . ... ...
ROW 7C : ... .. . ... ... ... : ... .. . ... ... ... : ... .. . ... : ... .. . ... : ... .. . ... ... : ... .. . ... ... : ... .. . ... ... : ... .. . ... ...
ROW 7D : ... .. . ... ... ... : ... .. . ... ... ... : ... .. . ... : ... .. 1 ... : ... .. . ... ... : ... .. . ... ... : ... .. . ... ... : ... .. . ... ...
ROW 7E : ... .. . ... ... ... : ... .. . ... ... ... : ... .. . ... : ... .. . ... : ... .. . ... ... : ... .. . ... ... : ... .. . ... ... : ... .. . ... ...
ROW 7F : ... .. 1 ... V00 ... : ... .. 1 ... V00 ... : ... .. . ... : ... .. . ... : ... .. . ... ... : ... .. . ... ... : ... .. . ... ... : ... .. . ... ...
ROW 80 : ... .. 0 ... ... ... : ... .. 0 ... ... ... : ... .. . ... : ... .. . ... : ... .. . ... ... : ... .. . ... ... : ... .. . ... ... : ... .. . ... ...
ROW 81 : E-4 00 1 P81 V01 ... : E-4 00 1 P7F V01 ... : --- .. . ... : ... .. 6 ... : ... .. . ... ... : ... .. 2 ... V05 : ... .. 2 ... V05 : ... .. A ... ...
ROW 82 : ... .. 4 ... V02 ... : ... .. 4 ... V02 ... : ... .. . ... : ... .. 5 ... : ... .. . ... ... : ... .. 4 ... V07 : ... .. 4 ... V07 : ... .. 8 ... ...
ROW 83 : ... .. 8 ... V01 ... : ... .. 8 ... V01 ... : ... .. . ... : ... .. 4 ... : ... .. . ... ... : ... .. 6 ... V06 : ... .. 6 ... V06 : ... .. 5 ... ...
ROW 84 : ... .. . ... ... ... : ... .. . ... ... ... : ... .. . ... : ... .. 3 ... : ... .. . ... ... : ... .. . ... ... : ... .. . ... ... : ... .. . ... ...
ROW 85 : ... .. . ... ... ... : ... .. . ... ... ... : ... .. . ... : ... .. 1 ... : ... .. . ... ... : ... .. . ... ... : ... .. . ... ... : ... .. . ... ...
ROW 86 : ... .. 1 ... V00 ... : ... .. 1 ... V00 ... : ... .. . ... : ... .. . ... : ... .. . ... ... : ... .. . ... ... : ... .. . ... ... : ... .. . ... ...
ROW 87 : ... .. 0 ... ... ... : ... .. 0 ... ... ... : ... .. . ... : ... .. . ... : ... .. . ... ... : ... .. 1 ... ... : ... .. 1 ... ... : ... .. 1 ... ...
ROW 88 : D-4 00 1 P81 V01 ... : D-4 00 1 P7F V01 ... : A#4 00 . ... : ... .. C ... : ... .. . ... ... : F#3 01 2 ... V05 : B-2 01 2 ... V05 : D-3 01 A ... ...
ROW 89 : ... .. 4 ... V02 ... : ... .. 4 ... V02 ... : C-4 00 . ... : ... .. 9 ... : ... .. . ... ... : ... .. 4 ... V07 : ... .. 4 ... V07 : ... .. 8 ... ...
ROW 8A : ... .. 8 ... V01 ... : ... .. 8 ... V01 ... : F-3 00 . ... : ... .. 8 ... : ... .. . ... ... : ... .. 6 ... V06 : ... .. 6 ... V06 : ... .. 5 ... ...
ROW 8B : ... .. . ... ... ... : ... .. . ... ... ... : E-3 00 . ... : ... .. . ... : ... .. . ... ... : ... .. . ... ... : ... .. . ... ... : ... .. . ... ...
ROW 8C : ... .. . ... ... ... : ... .. . ... ... ... : B-2 00 . ... : ... .. 5 ... : ... .. . ... ... : ... .. . ... ... : ... .. . ... ... : ... .. . ... ...
ROW 8D : ... .. . ... ... ... : ... .. . ... ... ... : ... .. . ... : ... .. 4 ... : ... .. . ... ... : ... .. . ... ... : ... .. . ... ... : ... .. . ... ...
ROW 8E : ... .. . ... ... ... : ... .. . ... ... ... : ... .. . ... : ... .. 3 ... : ... .. . ... ... : ... .. . ... ... : ... .. . ... ... : ... .. . ... ...
ROW 8F : C#4 00 1 ... ... ... : C#4 00 1 ... ... ... : ... .. . ... : ... .. . ... : ... .. . ... ... : ... .. . ... ... : ... .. . ... ... : ... .. . ... ...
ROW 90 : ... .. 4 ... V02 ... : ... .. 4 ... V02 ... : ... .. . ... : ... .. 2 ... : ... .. . ... ... : ... .. . ... ... : ... .. . ... ... : ... .. . ... ...
ROW 91 : ... .. 8 ... V01 ... : ... .. 8 ... V01 ... : ... .. . ... : ... .. . ... : ... .. . ... ... : ... .. . ... ... : ... .. . ... ... : ... .. . ... ...
ROW 92 : ... .. . ... ... ... : ... .. . ... ... ... : ... .. . ... : ... .. 1 ... : ... .. . ... ... : ... .. . ... ... : ... .. . ... ... : ... .. . ... ...
ROW 93 : ... .. . ... ... ... : ... .. . ... ... ... : ... .. . ... : ... .. . ... : ... .. . ... ... : ... .. 1 ... ... : ... .. 1 ... ... : ... .. 1 ... ...
ROW 94 : ... .. 1 ... V00 ... : ... .. 1 ... V00 ... : ... .. . ... : ... .. . ... : ... .. . ... ... : ... .. . ... ... : ... .. . ... ... : ... .. . ... ...
ROW 95 : ... .. 0 ... ... ... : ... .. 0 ... ... ... : ... .. . ... : ... .. . ... : ... .. . ... ... : ... .. . ... ... : ... .. . ... ... : ... .. . ... ...
ROW 96 : B-3 00 1 P81 V01 ... : B-3 00 1 P7F V01 ... : --- .. . ... : ... .. 7 ... : ... .. . ... ... : ... .. 2 ... V05 : ... .. 2 ... V05 : ... .. A ... ...
ROW 97 : ... .. 4 ... V02 ... : ... .. 4 ... V02 ... : ... .. . ... : ... .. 5 ... : ... .. . ... ... : ... .. 4 ... V07 : ... .. 4 ... V07 : ... .. 8 ... ...
ROW 98 : ... .. 8 ... V01 ... : ... .. 8 ... V01 ... : ... .. . ... : ... .. . ... : ... .. . ... ... : ... .. 6 ... V06 : ... .. 6 ... V06 : ... .. 5 ... ...
ROW 99 : ... .. . ... ... ... : ... .. . ... ... ... : ... .. . ... : ... .. 4 ... : ... .. . ... ... : ... .. . ... ... : ... .. . ... ... : ... .. . ... ...
ROW 9A : ... .. . ... ... ... : ... .. . ... ... ... : ... .. . ... : ... .. 3 ... : ... .. . ... ... : ... .. 1 ... ... : ... .. 1 ... ... : ... .. 1 ... ...
ROW 9B : ... .. 1 ... V00 ... : ... .. 1 ... V00 ... : ... .. . ... : ... .. 2 ... : ... .. . ... ... : ... .. . ... ... : ... .. . ... ... : ... .. . ... ...
ROW 9C : ... .. 0 ... ... ... : ... .. 0 ... ... ... : ... .. . ... : ... .. 1 ... : ... .. . ... ... : ... .. . ... ... : ... .. . ... ... : ... .. . ... ...
ROW 9D : B-3 00 1 P81 V01 ... : B-3 00 1 P7F V01 ... : F-4 00 . ... : ... .. B ... : ... .. . ... ... : D-3 01 2 ... V05 : F#2 01 2 ... V05 : B-2 01 A ... ...
ROW 9E : ... .. 4 ... V02 ... : ... .. 4 ... V02 ... : G-3 00 . ... : ... .. 8 ... : ... .. . ... ... : ... .. 4 ... V07 : ... .. 4 ... V07 : ... .. 8 ... ...
ROW 9F : ... .. 8 ... V01 ... : ... .. 8 ... V01 ... : C-3 00 . ... : ... .. B ... : ... .. . ... ... : ... .. 6 ... V06 : ... .. 6 ... V06 : ... .. 5 ... ...
ROW A0 : ... .. . ... ... ... : ... .. . ... ... ... : B-2 00 . ... : ... .. 8 ... : ... .. . ... ... : ... .. . ... ... : ... .. . ... ... : ... .. . ... ...
ROW A1 : ... .. . ... ... ... : ... .. . ... ... ... : F#2 00 . ... : ... .. 6 ... : ... .. . ... ... : ... .. . ... ... : ... .. . ... ... : ... .. . ... ...
ROW A2 : ... .. . ... ... ... : ... .. . ... ... ... : ... .. . ... : ... .. 4 ... : ... .. . ... ... : ... .. . ... ... : ... .. . ... ... : ... .. . ... ...
ROW A3 : ... .. . ... ... ... : ... .. . ... ... ... : ... .. . ... : ... .. 2 ... : ... .. . ... ... : ... .. . ... ... : ... .. . ... ... : ... .. . ... ...
ROW A4 : ... .. . ... ... ... : ... .. . ... ... ... : ... .. . ... : ... .. 1 ... : ... .. . ... ... : ... .. 1 ... ... : ... .. 1 ... ... : ... .. 1 ... ...
ROW A5 : ... .. . ... ... ... : ... .. . ... ... ... : ... .. . ... : ... .. . ... : ... .. . ... ... : ... .. . ... ... : ... .. . ... ... : ... .. . ... ...
ROW A6 : ... .. . ... ... ... : ... .. . ... ... ... : ... .. . ... : ... .. 0 ... : ... .. . ... ... : ... .. . ... ... : ... .. . ... ... : ... .. . ... ...
ROW A7 : ... .. . ... ... ... : ... .. . ... ... ... : ... .. . ... : ... .. . ... : ... .. . ... ... : ... .. . ... ... : ... .. . ... ... : ... .. . ... ...
ROW A8 : ... .. . ... ... ... : ... .. . ... ... ... : ... .. . ... : ... .. . ... : ... .. . ... ... : ... .. . ... ... : ... .. . ... ... : ... .. . ... ...
ROW A9 : ... .. . ... ... ... : ... .. . ... ... ... : ... .. . ... : ... .. . ... : ... .. . ... ... : ... .. . ... ... : ... .. . ... ... : ... .. . ... ...
ROW AA : ... .. . ... ... ... : ... .. . ... ... ... : ... .. . ... : ... .. 1 ... : ... .. . ... ... : ... .. . ... ... : ... .. . ... ... : ... .. . ... ...
ROW AB : ... .. . ... ... ... : ... .. . ... ... ... : --- .. . ... : ... .. 6 ... : ... .. . ... ... : ... .. 2 ... V05 : ... .. 2 ... V05 : ... .. A ... ...
ROW AC : ... .. . ... ... ... : ... .. . ... ... ... : ... .. . ... : ... .. 4 ... : ... .. . ... ... : ... .. 4 ... V07 : ... .. 4 ... V07 : ... .. 8 ... ...
ROW AD : ... .. . ... ... ... : ... .. . ... ... ... : ... .. . ... : ... .. 2 ... : ... .. . ... ... : ... .. 6 ... V06 : ... .. 6 ... V06 : ... .. 5 ... ...
ROW AE : ... .. . ... ... ... : ... .. . ... ... ... : ... .. . ... : ... .. 1 ... : ... .. . ... ... : ... .. . ... ... : ... .. . ... ... : ... .. . ... ...
ROW AF : ... .. . ... ... ... : ... .. . ... ... ... : ... .. . ... : ... .. . ... : ... .. . ... ... : ... .. . ... ... : ... .. . ... ... : ... .. . ... ...
ROW B0 : ... .. 1 ... V00 ... : ... .. 1 ... V00 ... : ... .. . ... : ... .. 0 ... : ... .. . ... ... : ... .. . ... ... : ... .. . ... ... : ... .. . ... ...
ROW B1 : ... .. 0 ... ... ... : ... .. 0 ... ... ... : ... .. . ... : ... .. 1 ... : ... .. . ... ... : ... .. . ... ... : ... .. . ... ... : ... .. . ... ...
ROW B2 : C#4 00 1 P81 V01 ... : C#4 00 1 P7F V01 ... : C-5 00 . ... : ... .. C ... : ... .. . ... ... : E-3 01 2 ... V05 : A#2 01 2 ... V05 : C#3 01 A ... ...
ROW B3 : ... .. 4 ... V02 ... : ... .. 4 ... V02 ... : D-4 00 . ... : ... .. 9 ... : ... .. . ... ... : ... .. 4 ... V07 : ... .. 4 ... V07 : ... .. 8 ... ...
ROW B4 : ... .. 8 ... V01 ... : ... .. 8 ... V01 ... : G-3 00 . ... : ... .. 8 ... : ... .. . ... ... : ... .. 6 ... V06 : ... .. 6 ... V06 : ... .. 5 ... ...
ROW B5 : ... .. . ... ... ... : ... .. . ... ... ... : F#3 00 . ... : ... .. . ... : ... .. . ... ... : ... .. . ... ... : ... .. . ... ... : ... .. . ... ...
ROW B6 : ... .. . ... ... ... : ... .. . ... ... ... : C#3 00 . ... : ... .. 5 ... : ... .. . ... ... : ... .. . ... ... : ... .. . ... ... : ... .. . ... ...
ROW B7 : ... .. . ... ... ... : ... .. . ... ... ... : ... .. . ... : ... .. 4 ... : ... .. . ... ... : ... .. . ... ... : ... .. . ... ... : ... .. . ... ...
ROW B8 : ... .. . ... ... ... : ... .. . ... ... ... : ... .. . ... : ... .. 3 ... : ... .. . ... ... : ... .. 1 ... ... : ... .. 1 ... ... : ... .. 1 ... ...
ROW B9 : ... .. . ... ... ... : ... .. . ... ... ... : ... .. . ... : ... .. 6 ... : ... .. . ... ... : ... .. 2 ... V05 : ... .. 2 ... V05 : ... .. A ... ...
ROW BA : ... .. . ... ... ... : ... .. . ... ... ... : ... .. . ... : ... .. 4 ... : ... .. . ... ... : ... .. 4 ... V07 : ... .. 4 ... V07 : ... .. 8 ... ...
ROW BB : ... .. . ... ... ... : ... .. . ... ... ... : ... .. . ... : ... .. 2 ... : ... .. . ... ... : ... .. 6 ... V06 : ... .. 6 ... V06 : ... .. 5 ... ...
ROW BC : ... .. . ... ... ... : ... .. . ... ... ... : ... .. . ... : ... .. 1 ... : ... .. . ... ... : ... .. . ... ... : ... .. . ... ... : ... .. . ... ...
ROW BD : ... .. . ... ... ... : ... .. . ... ... ... : ... .. . ... : ... .. . ... : ... .. . ... ... : ... .. 1 ... ... : ... .. 1 ... ... : ... .. 1 ... ...
ROW BE : ... .. 1 ... V00 ... : ... .. 1 ... V00 ... : ... .. . ... : ... .. 0 ... : ... .. . ... ... : ... .. . ... ... : ... .. . ... ... : ... .. . ... ...
ROW BF : ... .. 0 ... ... ... : ... .. 0 ... ... ... : ... .. . ... : ... .. 1 ... : ... .. . ... ... : ... .. . ... ... : ... .. . ... ... : ... .. . ... ...
ROW C0 : C#4 00 1 P81 V01 ... : C#4 00 1 P7F V01 ... : --- .. . ... : ... .. 6 ... : ... .. . ... ... : ... .. 2 ... V05 : ... .. 2 ... V05 : ... .. A ... ...
ROW C1 : ... .. 4 ... V02 ... : ... .. 4 ... V02 ... : ... .. . ... : ... .. 4 ... : ... .. . ... ... : ... .. 4 ... V07 : ... .. 4 ... V07 : ... .. 8 ... ...
ROW C2 : ... .. 8 ... V01 ... : ... .. 8 ... V01 ... : ... .. . ... : ... .. 2 ... : ... .. . ... ... : ... .. 6 ... V06 : ... .. 6 ... V06 : ... .. 5 ... ...
ROW C3 : ... .. . ... ... ... : ... .. . ... ... ... : ... .. . ... : ... .. 1 ... : ... .. . ... ... : ... .. . ... ... : ... .. . ... ... : ... .. . ... ...
ROW C4 : ... .. . ... ... ... : ... .. . ... ... ... : ... .. . ... : ... .. . ... : ... .. . ... ... : ... .. 1 ... ... : ... .. 1 ... ... : ... .. 1 ... ...
ROW C5 : ... .. 1 ... V00 ... : ... .. 1 ... V00 ... : ... .. . ... : ... .. 0 ... : ... .. . ... ... : ... .. . ... ... : ... .. . ... ... : ... .. . ... ...
ROW C6 : ... .. 0 ... ... ... : ... .. 0 ... ... ... : ... .. . ... : ... .. 1 ... : ... .. . ... ... : ... .. . ... ... : ... .. . ... ... : ... .. . ... ...
ROW C7 : C#4 00 1 P81 V01 ... : C#4 00 1 P7F V01 ... : F-4 00 . ... : ... .. C ... : ... .. . ... ... : C#3 01 2 ... V05 : F#2 01 2 ... V05 : E-3 01 A ... ...
ROW C8 : ... .. 4 ... V02 ... : ... .. 4 ... V02 ... : G-3 00 . ... : ... .. 9 ... : ... .. . ... ... : ... .. 4 ... V07 : ... .. 4 ... V07 : ... .. 8 ... ...
ROW C9 : ... .. 8 ... V01 ... : ... .. 8 ... V01 ... : C-3 00 . ... : ... .. 8 ... : ... .. . ... ... : ... .. 6 ... V06 : ... .. 6 ... V06 : ... .. 5 ... ...
ROW CA : ... .. . ... ... ... : ... .. . ... ... ... : B-2 00 . ... : ... .. . ... : ... .. . ... ... : ... .. . ... ... : ... .. . ... ... : ... .. . ... ...
ROW CB : ... .. . ... ... ... : ... .. . ... ... ... : F#2 00 . ... : ... .. 5 ... : ... .. . ... ... : ... .. . ... ... : ... .. . ... ... : ... .. . ... ...
ROW CC : ... .. . ... ... ... : ... .. . ... ... ... : ... .. . ... : ... .. 4 ... : ... .. . ... ... : ... .. . ... ... : ... .. . ... ... : ... .. . ... ...
ROW CD : ... .. . ... ... ... : ... .. . ... ... ... : ... .. . ... : ... .. 3 ... : ... .. . ... ... : ... .. . ... ... : ... .. . ... ... : ... .. . ... ...
ROW CE : B-3 00 1 ... ... ... : B-3 00 1 ... ... ... : ... .. . ... : ... .. . ... : ... .. . ... ... : ... .. . ... ... : ... .. . ... ... : ... .. . ... ...
ROW CF : ... .. 4 ... V02 ... : ... .. 4 ... V02 ... : ... .. . ... : ... .. 2 ... : ... .. . ... ... : ... .. . ... ... : ... .. . ... ... : ... .. . ... ...
ROW D0 : ... .. 8 ... V01 ... : ... .. 8 ... V01 ... : ... .. . ... : ... .. . ... : ... .. . ... ... : ... .. . ... ... : ... .. . ... ... : ... .. . ... ...
ROW D1 : ... .. . ... ... ... : ... .. . ... ... ... : ... .. . ... : ... .. 1 ... : ... .. . ... ... : ... .. . ... ... : ... .. . ... ... : ... .. . ... ...
ROW D2 : ... .. . ... ... ... : ... .. . ... ... ... : ... .. . ... : ... .. . ... : ... .. . ... ... : ... .. 1 ... ... : ... .. 1 ... ... : ... .. 1 ... ...
ROW D3 : ... .. 1 ... V00 ... : ... .. 1 ... V00 ... : ... .. . ... : ... .. . ... : ... .. . ... ... : ... .. . ... ... : ... .. . ... ... : ... .. . ... ...
ROW D4 : ... .. 0 ... ... ... : ... .. 0 ... ... ... : ... .. . ... : ... .. . ... : ... .. . ... ... : ... .. . ... ... : ... .. . ... ... : ... .. . ... ...
ROW D5 : C#4 00 1 P81 V01 ... : C#4 00 1 P7F V01 ... : --- .. . ... : ... .. 6 ... : ... .. . ... ... : ... .. 2 ... V05 : ... .. 2 ... V05 : ... .. A ... ...
ROW D6 : ... .. 4 ... V02 ... : ... .. 4 ... V02 ... : ... .. . ... : ... .. 5 ... : ... .. . ... ... : ... .. 4 ... V07 : ... .. 4 ... V07 : ... .. 8 ... ...
ROW D7 : ... .. 8 ... V01 ... : ... .. 8 ... V01 ... : ... .. . ... : ... .. 4 ... : ... .. . ... ... : ... .. 6 ... V06 : ... .. 6 ... V06 : ... .. 5 ... ...
ROW D8 : ... .. . ... ... ... : ... .. . ... ... ... : ... .. . ... : ... .. 3 ... : ... .. . ... ... : ... .. . ... ... : ... .. . ... ... : ... .. . ... ...
ROW D9 : ... .. . ... ... ... : ... .. . ... ... ... : ... .. . ... : ... .. 1 ... : ... .. . ... ... : ... .. 1 ... ... : ... .. 1 ... ... : ... .. 1 ... ...
ROW DA : ... .. 1 ... V00 ... : ... .. 1 ... V00 ... : ... .. . ... : ... .. . ... : ... .. . ... ... : ... .. . ... ... : ... .. . ... ... : ... .. . ... ...
ROW DB : ... .. 0 ... ... ... : ... .. 0 ... ... ... : ... .. . ... : ... .. . ... : ... .. . ... ... : ... .. . ... ... : ... .. . ... ... : ... .. . ... ...
ROW DC : D-4 00 2 P81 V01 ... : D-4 00 2 P7F V01 ... : A#4 00 . ... : ... .. C ... : ... .. . ... ... : F#3 01 2 ... V05 : B-2 01 2 ... V05 : D-3 01 A ... ...
ROW DD : ... .. 6 ... V02 ... : ... .. 6 ... V02 ... : C-4 00 . ... : ... .. 9 ... : ... .. . ... ... : ... .. 4 ... V07 : ... .. 4 ... V07 : ... .. 8 ... ...
ROW DE : ... .. 8 ... V01 ... : ... .. 8 ... V01 ... : F-3 00 . ... : ... .. 8 ... : ... .. . ... ... : ... .. 6 ... V06 : ... .. 6 ... V06 : ... .. 5 ... ...
ROW DF : ... .. . ... ... ... : ... .. . ... ... ... : E-3 00 . ... : ... .. . ... : ... .. . ... ... : ... .. . ... ... : ... .. . ... ... : ... .. . ... ...
ROW E0 : ... .. 6 ... ... ... : ... .. 6 ... ... ... : B-2 00 . ... : ... .. 5 ... : ... .. . ... ... : ... .. . ... ... : ... .. . ... ... : ... .. . ... ...
ROW E1 : ... .. . ... ... ... : ... .. . ... ... ... : ... .. . ... : ... .. 4 ... : ... .. . ... ... : ... .. . ... ... : ... .. . ... ... : ... .. . ... ...
ROW E2 : ... .. 5 ... ... ... : ... .. 5 ... ... ... : ... .. . ... : ... .. 3 ... : ... .. . ... ... : ... .. . ... ... : ... .. . ... ... : ... .. . ... ...
ROW E3 : ... .. 4 ... ... ... : ... .. 4 ... ... ... : ... .. . ... : ... .. . ... : ... .. . ... ... : ... .. . ... ... : ... .. . ... ... : ... .. . ... ...
ROW E4 : ... .. . ... ... ... : ... .. . ... ... ... : ... .. . ... : ... .. 2 ... : ... .. . ... ... : ... .. . ... ... : ... .. . ... ... : ... .. . ... ...
ROW E5 : ... .. 2 ... ... ... : ... .. 2 ... ... ... : ... .. . ... : ... .. . ... : ... .. . ... ... : ... .. . ... ... : ... .. . ... ... : ... .. . ... ...
ROW E6 : ... .. . ... ... ... : ... .. . ... ... ... : ... .. . ... : ... .. 1 ... : ... .. . ... ... : ... .. . ... ... : ... .. . ... ... : ... .. . ... ...
ROW E7 : ... .. . ... ... ... : ... .. . ... ... ... : ... .. . ... : ... .. . ... : ... .. . ... ... : ... .. . ... ... : ... .. . ... ... : ... .. . ... ...
ROW E8 : ... .. . ... ... ... : ... .. . ... ... ... : ... .. . ... : ... .. . ... : ... .. . ... ... : ... .. . ... ... : ... .. . ... ... : ... .. . ... ...
ROW E9 : ... .. 3 ... ... ... : ... .. 3 ... ... ... : ... .. . ... : ... .. . ... : ... .. . ... ... : ... .. . ... ... : ... .. . ... ... : ... .. . ... ...
ROW EA : ... .. . ... ... ... : ... .. . ... ... ... : --- .. . ... : ... .. . ... : ... .. . ... ... : ... .. 1 ... ... : ... .. 1 ... ... : ... .. 1 ... ...
ROW EB : ... .. . ... ... ... : ... .. . ... ... ... : ... .. . ... : ... .. . ... : ... .. . ... ... : ... .. . ... ... : ... .. . ... ... : ... .. . ... ...
ROW EC : ... .. 4 ... ... ... : ... .. 4 ... ... ... : ... .. . ... : ... .. 0 ... : ... .. . ... ... : ... .. . ... ... : ... .. . ... ... : ... .. . ... ...
ROW ED : ... .. . ... ... ... : ... .. . ... ... ... : ... .. . ... : ... .. . ... : ... .. . ... ... : ... .. . ... ... : ... .. . ... ... : ... .. . ... ...
ROW EE : ... .. . ... ... ... : ... .. . ... ... ... : ... .. . ... : ... .. . ... : ... .. . ... ... : ... .. . ... ... : ... .. . ... ... : ... .. . ... ...
ROW EF : ... .. . ... ... ... : ... .. . ... ... ... : ... .. . ... : ... .. . ... : ... .. . ... ... : ... .. . ... ... : ... .. . ... ... : ... .. . ... ...
ROW F0 : ... .. . ... ... ... : ... .. . ... ... ... : ... .. . ... : ... .. . ... : ... .. . ... ... : ... .. . ... ... : ... .. . ... ... : ... .. . ... ...
ROW F1 : F#1 00 1 ... ... ... : F#1 00 1 ... ... ... : F-3 00 . ... : ... .. B ... : ... .. . ... ... : --- .. . P7F ... : --- .. . P85 ... : --- .. . P84 ...
ROW F2 : ... .. 3 ... V02 ... : ... .. 3 ... V02 ... : G-2 00 . ... : ... .. 8 ... : ... .. . ... ... : ... .. . ... ... : ... .. . ... ... : ... .. . ... ...
ROW F3 : ... .. 5 ... V01 ... : ... .. 5 ... V01 ... : C-2 00 . ... : ... .. . ... : ... .. . ... ... : ... .. . ... ... : ... .. . ... ... : ... .. . ... ...
ROW F4 : ... .. . ... ... ... : ... .. . ... ... ... : B-1 00 . ... : ... .. 6 ... : ... .. . ... ... : ... .. . ... ... : ... .. . ... ... : ... .. . ... ...
ROW F5 : ... .. 6 ... ... ... : ... .. 6 ... ... ... : F#1 00 . ... : ... .. . ... : ... .. . ... ... : ... .. . ... ... : ... .. . ... ... : ... .. . ... ...
ROW F6 : ... .. . ... ... ... : ... .. . ... ... ... : ... .. . ... : ... .. 4 ... : ... .. . ... ... : ... .. . ... ... : ... .. . ... ... : ... .. . ... ...
ROW F7 : ... .. . ... ... ... : ... .. . ... ... ... : ... .. . ... : ... .. 3 ... : ... .. . ... ... : ... .. . ... ... : ... .. . ... ... : ... .. . ... ...
ROW F8 : ... .. . ... ... ... : ... .. . ... ... ... : ... .. . ... : ... .. 5 ... : ... .. . ... ... : ... .. . ... ... : ... .. . ... ... : ... .. . ... ...
ROW F9 : ... .. . ... ... ... : ... .. . ... ... ... : ... .. . ... : ... .. 3 ... : ... .. . ... ... : ... .. . ... ... : ... .. . ... ... : ... .. . ... ...
ROW FA : ... .. . ... ... ... : ... .. . ... ... ... : ... .. . ... : ... .. 2 ... : ... .. . ... ... : ... .. . ... ... : ... .. . ... ... : ... .. . ... ...
ROW FB : ... .. . ... ... ... : ... .. . ... ... ... : ... .. . ... : ... .. . ... : ... .. . ... ... : ... .. . ... ... : ... .. . ... ... : ... .. . ... ...
ROW FC : ... .. 7 ... ... ... : ... .. 7 ... ... ... : ... .. . ... : ... .. 4 ... : ... .. . ... ... : ... .. . ... ... : ... .. . ... ... : ... .. . ... ...
ROW FD : ... .. . ... ... ... : ... .. . ... ... ... : ... .. . ... : ... .. 2 ... : ... .. . ... ... : ... .. . ... ... : ... .. . ... ... : ... .. . ... ...
ROW FE : ... .. 8 ... ... ... : ... .. 8 ... ... ... : ... .. . ... : ... .. . ... : ... .. . ... ... : ... .. . ... ... : ... .. . ... ... : ... .. . ... ...
ROW FF : ... .. . ... ... ... : ... .. . ... ... ... : ... .. . ... : ... .. 6 ... : ... .. . ... ... : ... .. . ... ... : ... .. . ... ... : ... .. . ... ...

PATTERN 01
ROW 00 : ... .. . ... ... ... : ... .. . ... ... ... : ... .. . ... : ... .. 5 ... : ... .. . ... ... : ... .. . ... ... : ... .. . ... ... : ... .. . ... ...
ROW 01 : ... .. . ... ... ... : ... .. . ... ... ... : ... .. . ... : ... .. 4 ... : ... .. . ... ... : ... .. . ... ... : ... .. . ... ... : ... .. . ... ...
ROW 02 : ... .. . ... ... ... : ... .. . ... ... ... : ... .. . ... : ... .. 3 ... : ... .. . ... ... : ... .. . ... ... : ... .. . ... ... : ... .. . ... ...
ROW 03 : ... .. . ... ... ... : ... .. . ... ... ... : ... .. . ... : ... .. 9 ... : ... .. . ... ... : ... .. . ... ... : ... .. . ... ... : ... .. . ... ...
ROW 04 : ... .. 1 ... V00 ... : ... .. 1 ... V00 ... : ... .. . ... : ... .. 7 ... : ... .. . ... ... : ... .. . ... ... : ... .. . ... ... : ... .. . ... ...
ROW 05 : ... .. 0 ... ... ... : ... .. 0 ... ... ... : ... .. . ... : ... .. 6 ... : ... .. . ... ... : ... .. . ... ... : ... .. . ... ... : ... .. . ... ...
ROW 06 : D-4 00 2 P81 V01 ... : D-4 00 2 P7F V01 ... : A#4 00 . ... : ... .. C ... : ... .. . ... ... : F#3 01 2 P80 V05 : B-2 01 2 P80 V05 : D-3 01 A P80 ...
ROW 07 : ... .. 6 ... V02 ... : ... .. 6 ... V02 ... : C-4 00 . ... : ... .. 9 ... : ... .. . ... ... : ... .. 4 ... V07 : ... .. 4 ... V07 : ... .. 8 ... ...
ROW 08 : ... .. A ... V01 ... : ... .. A ... V01 ... : F-3 00 . ... : ... .. 8 ... : ... .. . ... ... : ... .. 6 ... V06 : ... .. 6 ... V06 : ... .. 5 ... ...
ROW 09 : ... .. . ... ... ... : ... .. . ... ... ... : E-3 00 . ... : ... .. . ... : ... .. . ... ... : ... .. . ... ... : ... .. . ... ... : ... .. . ... ...
ROW 0A : ... .. . ... ... ... : ... .. . ... ... ... : B-2 00 . ... : ... .. 5 ... : ... .. . ... ... : ... .. . ... ... : ... .. . ... ... : ... .. . ... ...
ROW 0B : ... .. . ... ... ... : ... .. . ... ... ... : ... .. . ... : ... .. 4 ... : ... .. . ... ... : ... .. . ... ... : ... .. . ... ... : ... .. . ... ...
ROW 0C : ... .. . ... ... ... : ... .. . ... ... ... : ... .. . ... : ... .. 3 ... : ... .. . ... ... : ... .. 1 ... ... : ... .. 1 ... ... : ... .. 1 ... ...
ROW 0D : ... .. . ... ... ... : ... .. . ... ... ... : ... .. . ... : ... .. 6 ... : ... .. . ... ... : ... .. 2 ... V05 : ... .. 2 ... V05 : ... .. A ... ...
ROW 0E : ... .. 2 ... V00 ... : ... .. 2 ... V00 ... : ... .. . ... : ... .. 4 ... : ... .. . ... ... : ... .. 4 ... V07 : ... .. 4 ... V07 : ... .. 8 ... ...
ROW 0F : ... .. 0 ... ... ... : ... .. 0 ... ... ... : ... .. . ... : ... .. 2 ... : ... .. . ... ... : ... .. 6 ... V06 : ... .. 6 ... V06 : ... .. 5 ... ...
ROW 10 : ... .. . ... ... ... : ... .. . ... ... ... : ... .. . ... : ... .. 1 ... : ... .. . ... ... : ... .. . ... ... : ... .. . ... ... : ... .. . ... ...
ROW 11 : ... .. . ... ... ... : ... .. . ... ... ... : ... .. . ... : ... .. . ... : ... .. . ... ... : ... .. . ... ... : ... .. . ... ... : ... .. . ... ...
ROW 12 : ... .. . ... ... ... : ... .. . ... ... ... : ... .. . ... : ... .. 0 ... : ... .. . ... ... : ... .. . ... ... : ... .. . ... ... : ... .. . ... ...
ROW 13 : ... .. . ... ... ... : ... .. . ... ... ... : ... .. . ... : ... .. 1 ... : ... .. . ... ... : ... .. 1 ... ... : ... .. 1 ... ... : ... .. 1 ... ...
ROW 14 : D-4 00 2 P81 V01 ... : D-4 00 1 P7F V01 ... : --- .. . ... : ... .. 6 ... : ... .. . ... ... : ... .. 2 ... V05 : ... .. 2 ... V05 : ... .. A ... ...
ROW 15 : ... .. 6 ... V02 ... : ... .. 4 ... V02 ... : ... .. . ... : ... .. 4 ... : ... .. . ... ... : ... .. 4 ... V07 : ... .. 4 ... V07 : ... .. 8 ... ...
ROW 16 : ... .. A ... V01 ... : ... .. 8 ... V01 ... : ... .. . ... : ... .. 2 ... : ... .. . ... ... : ... .. 6 ... V06 : ... .. 6 ... V06 : ... .. 5 ... ...
ROW 17 : ... .. . ... ... ... : ... .. . ... ... ... : ... .. . ... : ... .. 1 ... : ... .. . ... ... : ... .. . ... ... : ... .. . ... ... : ... .. . ... ...
ROW 18 : ... .. . ... ... ... : ... .. . ... ... ... : ... .. . ... : ... .. . ... : ... .. . ... ... : ... .. . ... ... : ... .. . ... ... : ... .. . ... ...
ROW 19 : ... .. 2 ... V00 ... : ... .. 1 ... V00 ... : ... .. . ... : ... .. 0 ... : ... .. . ... ... : ... .. . ... ... : ... .. . ... ... : ... .. . ... ...
ROW 1A : ... .. 0 ... ... ... : ... .. 0 ... ... ... : ... .. . ... : ... .. 1 ... : ... .. . ... ... : ... .. 1 ... ... : ... .. 1 ... ... : ... .. 1 ... ...
ROW 1B : D-4 00 2 P81 V01 ... : D-4 00 1 P7F V01 ... : F-4 00 . ... : ... .. C ... : ... .. . ... ... : D-3 01 2 ... V05 : F#2 01 2 ... V05 : B-2 01 A ... ...
ROW 1C : ... .. 6 ... V02 ... : ... .. 4 ... V02 ... : G-3 00 . ... : ... .. 9 ... : ... .. . ... ... : ... .. 4 ... V07 : ... .. 4 ... V07 : ... .. 8 ... ...
ROW 1D : ... .. A ... V01 ... : ... .. 8 ... V01 ... : C-3 00 . ... : ... .. 8 ... : ... .. . ... ... : ... .. 6 ... V06 : ... .. 6 ... V06 : ... .. 5 ... ...
ROW 1E : ... .. . ... ... ... : ... .. . ... ... ... : B-2 00 . ... : ... .. . ... : ... .. . ... ... : ... .. . ... ... : ... .. . ... ... : ... .. . ... ...
ROW 1F : ... .. . ... ... ... : ... .. . ... ... ... : F#2 00 . ... : ... .. 5 ... : ... .. . ... ... : ... .. . ... ... : ... .. . ... ... : ... .. . ... ...
ROW 20 : ... .. . ... ... ... : ... .. . ... ... ... : ... .. . ... : ... .. 4 ... : ... .. . ... ... : ... .. . ... ... : ... .. . ... ... : ... .. . ... ...
ROW 21 : ... .. . ... ... ... : ... .. . ... ... ... : ... .. . ... : ... .. 3 ... : ... .. . ... ... : ... .. . ... ... : ... .. . ... ... : ... .. . ... ...
ROW 22 : ... .. . ... ... ... : ... .. . ... ... ... : ... .. . ... : ... .. 6 ... : ... .. . ... ... : ... .. 1 ... ... : ... .. 1 ... ... : ... .. 1 ... ...
ROW 23 : ... .. . ... ... ... : ... .. . ... ... ... : ... .. . ... : ... .. 5 ... : ... .. . ... ... : ... .. . ... ... : ... .. . ... ... : ... .. . ... ...
ROW 24 : ... .. . ... ... ... : ... .. . ... ... ... : ... .. . ... : ... .. 4 ... : ... .. . ... ... : ... .. . ... ... : ... .. . ... ... : ... .. . ... ...
ROW 25 : ... .. . ... ... ... : ... .. . ... ... ... : ... .. . ... : ... .. 3 ... : ... .. . ... ... : ... .. . ... ... : ... .. . ... ... : ... .. . ... ...
ROW 26 : ... .. . ... ... ... : ... .. . ... ... ... : ... .. . ... : ... .. 1 ... : ... .. . ... ... : ... .. . ... ... : ... .. . ... ... : ... .. . ... ...
ROW 27 : ... .. 2 ... V00 ... : ... .. 1 ... V00 ... : ... .. . ... : ... .. . ... : ... .. . ... ... : ... .. . ... ... : ... .. . ... ... : ... .. . ... ...
ROW 28 : ... .. 0 ... ... ... : ... .. 0 ... ... ... : ... .. . ... : ... .. . ... : ... .. . ... ... : ... .. . ... ... : ... .. . ... ... : ... .. . ... ...
ROW 29 : E-4 00 2 P81 V01 ... : E-4 00 1 P7F V01 ... : --- .. . ... : ... .. 6 ... : ... .. . ... ... : ... .. 2 ... V05 : ... .. 2 ... V05 : ... .. A ... ...
ROW 2A : ... .. 6 ... V02 ... : ... .. 4 ... V02 ... : ... .. . ... : ... .. 5 ... : ... .. . ... ... : ... .. 4 ... V07 : ... .. 4 ... V07 : ... .. 8 ... ...
ROW 2B : ... .. A ... V01 ... : ... .. 8 ... V01 ... : ... .. . ... : ... .. 4 ... : ... .. . ... ... : ... .. 6 ... V06 : ... .. 6 ... V06 : ... .. 5 ... ...
ROW 2C : ... .. . ... ... ... : ... .. . ... ... ... : ... .. . ... : ... .. 3 ... : ... .. . ... ... : ... .. . ... ... : ... .. . ... ... : ... .. . ... ...
ROW 2D : ... .. . ... ... ... : ... .. . ... ... ... : ... .. . ... : ... .. 1 ... : ... .. . ... ... : ... .. . ... ... : ... .. . ... ... : ... .. . ... ...
ROW 2E : ... .. . ... ... ... : ... .. . ... ... ... : ... .. . ... : ... .. . ... : ... .. . ... ... : ... .. . ... ... : ... .. . ... ... : ... .. . ... ...
ROW 2F : ... .. . ... ... ... : ... .. . ... ... ... : ... .. . ... : ... .. . ... : ... .. . ... ... : ... .. 1 ... ... : ... .. 1 ... ... : ... .. 1 ... ...
ROW 30 : D-4 00 2 ... ... ... : D-4 00 1 ... ... ... : A#4 00 . ... : ... .. C ... : ... .. . ... ... : F#3 01 2 ... V05 : B-2 01 2 ... V05 : D-3 01 A ... ...
ROW 31 : ... .. 6 ... V02 ... : ... .. 4 ... V02 ... : C-4 00 . ... : ... .. 9 ... : ... .. . ... ... : ... .. 4 ... V07 : ... .. 4 ... V07 : ... .. 8 ... ...
ROW 32 : ... .. A ... V01 ... : ... .. 8 ... V01 ... : F-3 00 . ... : ... .. 8 ... : ... .. . ... ... : ... .. 6 ... V06 : ... .. 6 ... V06 : ... .. 5 ... ...
ROW 33 : ... .. . ... ... ... : ... .. . ... ... ... : E-3 00 . ... : ... .. . ... : ... .. . ... ... : ... .. . ... ... : ... .. . ... ... : ... .. . ... ...
ROW 34 : ... .. . ... ... ... : ... .. . ... ... ... : B-2 00 . ... : ... .. 5 ... : ... .. . ... ... : ... .. . ... ... : ... .. . ... ... : ... .. . ... ...
ROW 35 : ... .. . ... ... ... : ... .. . ... ... ... : ... .. . ... : ... .. 4 ... : ... .. . ... ... : ... .. . ... ... : ... .. . ... ... : ... .. . ... ...
ROW 36 : ... .. . ... ... ... : ... .. . ... ... ... : ... .. . ... : ... .. 3 ... : ... .. . ... ... : ... .. . ... ... : ... .. . ... ... : ... .. . ... ...
ROW 37 : C#4 00 2 ... ... ... : C#4 00 1 ... ... ... : ... .. . ... : ... .. . ... : ... .. . ... ... : ... .. . ... ... : ... .. . ... ... : ... .. . ... ...
ROW 38 : ... .. 6 ... V02 ... : ... .. 4 ... V02 ... : ... .. . ... : ... .. 2 ... : ... .. . ... ... : ... .. . ... ... : ... .. . ... ... : ... .. . ... ...
ROW 39 : ... .. A ... V01 ... : ... .. 8 ... V01 ... : ... .. . ... : ... .. . ... : ... .. . ... ... : ... .. . ... ... : ... .. . ... ... : ... .. . ... ...
ROW 3A : ... .. . ... ... ... : ... .. . ... ... ... : ... .. . ... : ... .. 1 ... : ... .. . ... ... : ... .. . ... ... : ... .. . ... ... : ... .. . ... ...
ROW 3B : ... .. . ... ... ... : ... .. . ... ... ... : ... .. . ... : ... .. . ... : ... .. . ... ... : ... .. 1 ... ... : ... .. 1 ... ... : ... .. 1 ... ...
ROW 3C : ... .. 2 ... V00 ... : ... .. 1 ... V00 ... : ... .. . ... : ... .. . ... : ... .. . ... ... : ... .. . ... ... : ... .. . ... ... : ... .. . ... ...
ROW 3D : ... .. 0 ... ... ... : ... .. 0 ... ... ... : ... .. . ... : ... .. . ... : ... .. . ... ... : ... .. . ... ... : ... .. . ... ... : ... .. . ... ...
ROW 3E : B-3 00 2 P81 V01 ... : B-3 00 1 P7F V01 ... : --- .. . ... : ... .. 7 ... : ... .. . ... ... : ... .. 2 ... V05 : ... .. 2 ... V05 : ... .. A ... ...
ROW 3F : ... .. 6 ... V02 ... : ... .. 4 ... V02 ... : ... .. . ... : ... .. 5 ... : ... .. . ... ... : ... .. 4 ... V07 : ... .. 4 ... V07 : ... .. 8 ... ...
ROW 40 : ... .. A ... V01 ... : ... .. 8 ... V01 ... : ... .. . ... : ... .. . ... : ... .. . ... ... : ... .. 6 ... V06 : ... .. 6 ... V06 : ... .. 5 ... ...
ROW 41 : ... .. . ... ... ... : ... .. . ... ... ... : ... .. . ... : ... .. 4 ... : ... .. . ... ... : ... .. . ... ... : ... .. . ... ... : ... .. . ... ...
ROW 42 : ... .. . ... ... ... : ... .. . ... ... ... : ... .. . ... : ... .. 3 ... : ... .. . ... ... : ... .. 1 ... ... : ... .. 1 ... ... : ... .. 1 ... ...
ROW 43 : ... .. 2 ... V00 ... : ... .. 1 ... V00 ... : ... .. . ... : ... .. 2 ... : ... .. . ... ... : ... .. . ... ... : ... .. . ... ... : ... .. . ... ...
ROW 44 : ... .. 0 ... ... ... : ... .. 0 ... ... ... : ... .. . ... : ... .. 1 ... : ... .. . ... ... : ... .. . ... ... : ... .. . ... ... : ... .. . ... ...
ROW 45 : B-3 00 2 P81 V01 ... : B-3 00 1 P7F V01 ... : F-4 00 . ... : ... .. B ... : ... .. . ... ... : F-3 01 2 ... V05 : ... .. 2 ... V05 : C#3 01 A ... ...
ROW 46 : ... .. 6 ... V02 ... : ... .. 4 ... V02 ... : G-3 00 . ... : ... .. 8 ... : ... .. . ... ... : ... .. 4 ... V07 : ... .. 4 ... V07 : ... .. 8 ... ...
ROW 47 : ... .. A ... V01 ... : ... .. 8 ... V01 ... : C-3 00 . ... : ... .. B ... : ... .. . ... ... : ... .. 6 ... V06 : ... .. 6 ... V06 : ... .. 5 ... ...
ROW 48 : ... .. . ... ... ... : ... .. . ... ... ... : B-2 00 . ... : ... .. 8 ... : ... .. . ... ... : ... .. . ... ... : ... .. . ... ... : ... .. . ... ...
ROW 49 : ... .. . ... ... ... : ... .. . ... ... ... : F#2 00 . ... : ... .. 6 ... : ... .. . ... ... : ... .. . ... ... : ... .. . ... ... : ... .. . ... ...
ROW 4A : ... .. . ... ... ... : ... .. . ... ... ... : ... .. . ... : ... .. 4 ... : ... .. . ... ... : ... .. . ... ... : ... .. . ... ... : ... .. . ... ...
ROW 4B : ... .. . ... ... ... : ... .. . ... ... ... : ... .. . ... : ... .. 2 ... : ... .. . ... ... : ... .. . ... ... : ... .. . ... ... : ... .. . ... ...
ROW 4C : A#3 00 2 ... ... ... : A#3 00 1 ... ... ... : ... .. . ... : ... .. 6 ... : ... .. . ... ... : F#3 01 2 ... V05 : ... .. 2 ... V05 : D-3 01 A ... ...
ROW 4D : ... .. 6 ... V02 ... : ... .. 4 ... V02 ... : ... .. . ... : ... .. 4 ... : ... .. . ... ... : ... .. 4 ... V07 : ... .. 4 ... V07 : ... .. 8 ... ...
ROW 4E : ... .. A ... V01 ... : ... .. 8 ... V01 ... : ... .. . ... : ... .. 2 ... : ... .. . ... ... : ... .. 6 ... V06 : ... .. 6 ... V06 : ... .. 5 ... ...
ROW 4F : ... .. . ... ... ... : ... .. . ... ... ... : ... .. . ... : ... .. 1 ... : ... .. . ... ... : ... .. . ... ... : ... .. . ... ... : ... .. . ... ...
ROW 50 : ... .. . ... ... ... : ... .. . ... ... ... : ... .. . ... : ... .. . ... : ... .. . ... ... : ... .. . ... ... : ... .. . ... ... : ... .. . ... ...
ROW 51 : ... .. 2 ... V00 ... : ... .. 1 ... V00 ... : ... .. . ... : ... .. 0 ... : ... .. . ... ... : ... .. . ... ... : ... .. . ... ... : ... .. . ... ...
ROW 52 : ... .. 0 ... ... ... : ... .. 0 ... ... ... : ... .. . ... : ... .. 1 ... : ... .. . ... ... : ... .. . ... ... : ... .. . ... ... : ... .. . ... ...
ROW 53 : B-3 00 2 P81 V01 ... : B-3 00 1 P7F V01 ... : --- .. . ... : ... .. 6 ... : ... .. . ... ... : D-3 01 2 ... V05 : F#2 01 2 ... V05 : B-2 01 A ... ...
ROW 54 : ... .. 6 ... V02 ... : ... .. 4 ... V02 ... : ... .. . ... : ... .. 4 ... : ... .. . ... ... : ... .. 4 ... V07 : ... .. 4 ... V07 : ... .. 8 ... ...
ROW 55 : ... .. A ... V01 ... : ... .. 8 ... V01 ... : ... .. . ... : ... .. 2 ... : ... .. . ... ... : ... .. 6 ... V06 : ... .. 6 ... V06 : ... .. 5 ... ...
ROW 56 : ... .. . ... ... ... : ... .. . ... ... ... : ... .. . ... : ... .. 1 ... : ... .. . ... ... : ... .. . ... ... : ... .. . ... ... : ... .. . ... ...
ROW 57 : ... .. . ... ... ... : ... .. . ... ... ... : ... .. . ... : ... .. . ... : ... .. . ... ... : ... .. . ... ... : ... .. . ... ... : ... .. . ... ...
ROW 58 : ... .. 2 ... V00 ... : ... .. 1 ... V00 ... : ... .. . ... : ... .. 0 ... : ... .. . ... ... : ... .. . ... ... : ... .. . ... ... : ... .. . ... ...
ROW 59 : ... .. 0 ... ... ... : ... .. 0 ... ... ... : ... .. . ... : ... .. 1 ... : ... .. . ... ... : ... .. . ... ... : ... .. . ... ... : ... .. . ... ...
ROW 5A : C#4 00 2 P81 V01 ... : C#4 00 1 P7F V01 ... : C-4 00 . ... : ... .. C ... : ... .. . ... ... : E-3 01 2 ... V05 : A#2 01 2 ... V05 : C#3 01 A ... ...
ROW 5B : ... .. 6 ... V02 ... : ... .. 4 ... V02 ... : D-3 00 . ... : ... .. 9 ... : ... .. . ... ... : ... .. 4 ... V07 : ... .. 4 ... V07 : ... .. 8 ... ...
ROW 5C : ... .. A ... V01 ... : ... .. 8 ... V01 ... : G-2 00 . ... : ... .. 8 ... : ... .. . ... ... : ... .. 6 ... V06 : ... .. 6 ... V06 : ... .. 5 ... ...
ROW 5D : ... .. . ... ... ... : ... .. . ... ... ... : F#2 00 . ... : ... .. . ... : ... .. . ... ... : ... .. . ... ... : ... .. . ... ... : ... .. . ... ...
ROW 5E : ... .. . ... ... ... : ... .. . ... ... ... : C#2 00 . ... : ... .. 5 ... : ... .. . ... ... : ... .. . ... ... : ... .. . ... ... : ... .. . ... ...
ROW 5F : ... .. . ... ... ... : ... .. . ... ... ... : ... .. . ... : ... .. 4 ... : ... .. . ... ... : ... .. . ... ... : ... .. . ... ... : ... .. . ... ...
ROW 60 : ... .. . ... ... ... : ... .. . ... ... ... : ... .. . ... : ... .. 3 ... : ... .. . ... ... : ... .. 1 ... ... : ... .. 1 ... ... : ... .. 1 ... ...
ROW 61 : ... .. . ... ... ... : ... .. . ... ... ... : ... .. . ... : ... .. 6 ... : ... .. . ... ... : ... .. 2 ... V05 : ... .. 2 ... V05 : ... .. A ... ...
ROW 62 : ... .. . ... ... ... : ... .. . ... ... ... : ... .. . ... : ... .. 4 ... : ... .. . ... ... : ... .. 4 ... V07 : ... .. 4 ... V07 : ... .. 8 ... ...
ROW 63 : ... .. . ... ... ... : ... .. . ... ... ... : ... .. . ... : ... .. 2 ... : ... .. . ... ... : ... .. 6 ... V06 : ... .. 6 ... V06 : ... .. 5 ... ...
ROW 64 : ... .. . ... ... ... : ... .. . ... ... ... : ... .. . ... : ... .. 1 ... : ... .. . ... ... : ... .. . ... ... : ... .. . ... ... : ... .. . ... ...
ROW 65 : ... .. . ... ... ... : ... .. . ... ... ... : ... .. . ... : ... .. . ... : ... .. . ... ... : ... .. 1 ... ... : ... .. 1 ... ... : ... .. 1 ... ...
ROW 66 : ... .. 2 ... V00 ... : ... .. 1 ... V00 ... : ... .. . ... : ... .. 0 ... : ... .. . ... ... : ... .. . ... ... : ... .. . ... ... : ... .. . ... ...
ROW 67 : ... .. 0 ... ... ... : ... .. 0 ... ... ... : ... .. . ... : ... .. 1 ... : ... .. . ... ... : ... .. . ... ... : ... .. . ... ... : ... .. . ... ...
ROW 68 : E-4 00 2 P81 V01 ... : E-4 00 1 P7F V01 ... : --- .. . ... : ... .. 6 ... : ... .. . ... ... : ... .. 2 ... V05 : ... .. 2 ... V05 : ... .. A ... ...
ROW 69 : ... .. 6 ... V02 ... : ... .. 4 ... V02 ... : ... .. . ... : ... .. 4 ... : ... .. . ... ... : ... .. 4 ... V07 : ... .. 4 ... V07 : ... .. 8 ... ...
ROW 6A : ... .. A ... V01 ... : ... .. 8 ... V01 ... : ... .. . ... : ... .. 2 ... : ... .. . ... ... : ... .. 6 ... V06 : ... .. 6 ... V06 : ... .. 5 ... ...
ROW 6B : ... .. . ... ... ... : ... .. . ... ... ... : ... .. . ... : ... .. 1 ... : ... .. . ... ... : ... .. . ... ... : ... .. . ... ... : ... .. . ... ...
ROW 6C : ... .. . ... ... ... : ... .. . ... ... ... : ... .. . ... : ... .. . ... : ... .. . ... ... : ... .. 1 ... ... : ... .. 1 ... ... : ... .. 1 ... ...
ROW 6D : ... .. . ... ... ... : ... .. . ... ... ... : ... .. . ... : ... .. 0 ... : ... .. . ... ... : ... .. . ... ... : ... .. . ... ... : ... .. . ... ...
ROW 6E : ... .. . ... ... ... : ... .. . ... ... ... : ... .. . ... : ... .. 1 ... : ... .. . ... ... : ... .. . ... ... : ... .. . ... ... : ... .. . ... ...
ROW 6F : D-4 00 2 ... ... ... : D-4 00 1 ... ... ... : F-4 00 . ... : ... .. C ... : ... .. . ... ... : C#3 01 2 ... V05 : F#2 01 2 ... V05 : E-3 01 A ... ...
ROW 70 : ... .. 6 ... V02 ... : ... .. 4 ... V02 ... : G-3 00 . ... : ... .. 9 ... : ... .. . ... ... : ... .. 4 ... V07 : ... .. 4 ... V07 : ... .. 8 ... ...
ROW 71 : ... .. A ... V01 ... : ... .. 8 ... V01 ... : C-3 00 . ... : ... .. 8 ... : ... .. . ... ... : ... .. 6 ... V06 : ... .. 6 ... V06 : ... .. 5 ... ...
ROW 72 : ... .. . ... ... ... : ... .. . ... ... ... : B-2 00 . ... : ... .. . ... : ... .. . ... ... : ... .. . ... ... : ... .. . ... ... : ... .. . ... ...
ROW 73 : ... .. . ... ... ... : ... .. . ... ... ... : F#2 00 . ... : ... .. 5 ... : ... .. . ... ... : ... .. . ... ... : ... .. . ... ... : ... .. . ... ...
ROW 74 : ... .. . ... ... ... : ... .. . ... ... ... : ... .. . ... : ... .. 4 ... : ... .. . ... ... : ... .. . ... ... : ... .. . ... ... : ... .. . ... ...
ROW 75 : ... .. . ... ... ... : ... .. . ... ... ... : ... .. . ... : ... .. 3 ... : ... .. . ... ... : ... .. . ... ... : ... .. . ... ... : ... .. . ... ...
ROW 76 : ... .. . ... ... ... : ... .. . ... ... ... : ... .. . ... : ... .. . ... : ... .. . ... ... : ... .. . ... ... : ... .. . ... ... : ... .. . ... ...
ROW 77 : ... .. . ... ... ... : ... .. . ... ... ... : ... .. . ... : ... .. 2 ... : ... .. . ... ... : ... .. . ... ... : ... .. . ... ... : ... .. . ... ...
ROW 78 : ... .. . ... ... ... : ... .. . ... ... ... : ... .. . ... : ... .. . ... : ... .. . ... ... : ... .. . ... ... : ... .. . ... ... : ... .. . ... ...
ROW 79 : ... .. . ... ... ... : ... .. . ... ... ... : ... .. . ... : ... .. 1 ... : ... .. . ... ... : ... .. . ... ... : ... .. . ... ... : ... .. . ... ...
ROW 7A : ... .. . ... ... ... : ... .. . ... ... ... : ... .. . ... : ... .. . ... : ... .. . ... ... : ... .. 1 ... ... : ... .. 1 ... ... : ... .. 1 ... ...
ROW 7B : ... .. . ... ... ... : ... .. . ... ... ... : ... .. . ... : ... .. . ... : ... .. . ... ... : ... .. . ... ... : ... .. . ... ... : ... .. . ... ...
ROW 7C : ... .. . ... ... ... : ... .. . ... ... ... : ... .. . ... : ... .. . ... : ... .. . ... ... : ... .. . ... ... : ... .. . ... ... : ... .. . ... ...
ROW 7D : C#4 00 2 ... ... ... : C#4 00 1 ... ... ... : --- .. . ... : ... .. 6 ... : ... .. . ... ... : ... .. 2 ... V05 : ... .. 2 ... V05 : ... .. A ... ...
ROW 7E : ... .. 6 ... V02 ... : ... .. 4 ... V02 ... : ... .. . ... : ... .. 5 ... : ... .. . ... ... : ... .. 4 ... V07 : ... .. 4 ... V07 : ... .. 8 ... ...
ROW 7F : ... .. A ... V01 ... : ... .. 8 ... V01 ... : ... .. . ... : ... .. 4 ... : ... .. . ... ... : ... .. 6 ... V06 : ... .. 6 ... V06 : ... .. 5 ... ...
ROW 80 : ... .. . ... ... ... : ... .. . ... ... ... : ... .. . ... : ... .. 3 ... : ... .. . ... ... : ... .. . ... ... : ... .. . ... ... : ... .. . ... ...
ROW 81 : ... .. . ... ... ... : ... .. . ... ... ... : ... .. . ... : ... .. 1 ... : ... .. . ... ... : ... .. 1 ... ... : ... .. 1 ... ... : ... .. 1 ... ...
ROW 82 : ... .. 2 ... V00 ... : ... .. 1 ... V00 ... : ... .. . ... : ... .. . ... : ... .. . ... ... : ... .. . ... ... : ... .. . ... ... : ... .. . ... ...
ROW 83 : ... .. 0 ... ... ... : ... .. 0 ... ... ... : ... .. . ... : ... .. . ... : ... .. . ... ... : ... .. . ... ... : ... .. . ... ... : ... .. . ... ...
ROW 84 : B-3 00 2 P81 V01 ... : B-3 00 2 P7F V01 ... : A#3 00 . ... : ... .. C ... : ... .. . ... ... : F#2 01 2 ... V05 : B-2 01 2 ... V05 : D-3 01 A ... ...
ROW 85 : ... .. 6 ... V02 ... : ... .. 6 ... V02 ... : C-3 00 . ... : ... .. 9 ... : ... .. . ... ... : ... .. 4 ... V07 : ... .. 4 ... V07 : ... .. 8 ... ...
ROW 86 : ... .. 8 ... V01 ... : ... .. 8 ... V01 ... : F-2 00 . ... : ... .. 8 ... : ... .. . ... ... : ... .. 6 ... V06 : ... .. 6 ... V06 : ... .. 5 ... ...
ROW 87 : ... .. . ... ... ... : ... .. . ... ... ... : E-2 00 . ... : ... .. . ... : ... .. . ... ... : ... .. . ... ... : ... .. . ... ... : ... .. . ... ...
ROW 88 : ... .. 6 ... ... ... : ... .. 6 ... ... ... : B-1 00 . ... : ... .. 5 ... : ... .. . ... ... : ... .. . ... ... : ... .. . ... ... : ... .. . ... ...
ROW 89 : ... .. . ... ... ... : ... .. . ... ... ... : ... .. . ... : ... .. 4 ... : ... .. . ... ... : ... .. . ... ... : ... .. . ... ... : ... .. . ... ...
ROW 8A : ... .. 4 ... ... ... : ... .. 4 ... ... ... : ... .. . ... : ... .. 3 ... : ... .. . ... ... : ... .. . ... ... : ... .. . ... ... : ... .. . ... ...
ROW 8B : ... .. 2 ... ... ... : ... .. 2 ... ... ... : ... .. . ... : ... .. . ... : ... .. . ... ... : ... .. . ... ... : ... .. . ... ... : ... .. . ... ...
ROW 8C : ... .. . ... ... ... : ... .. . ... ... ... : ... .. . ... : ... .. 2 ... : ... .. . ... ... : ... .. . ... ... : ... .. . ... ... : ... .. . ... ...
ROW 8D : ... .. 3 ... ... ... : ... .. 3 ... ... ... : ... .. . ... : ... .. . ... : ... .. . ... ... : ... .. . ... ... : ... .. . ... ... : ... .. . ... ...
ROW 8E : ... .. . ... ... ... : ... .. . ... ... ... : ... .. . ... : ... .. 1 ... : ... .. . ... ... : ... .. . ... ... : ... .. . ... ... : ... .. . ... ...
ROW 8F : ... .. 4 ... ... ... : ... .. 4 ... ... ... : ... .. . ... : ... .. . ... : ... .. . ... ... : ... .. . ... ... : ... .. . ... ... : ... .. . ... ...
ROW 90 : ... .. . ... ... ... : ... .. . ... ... ... : ... .. . ... : ... .. . ... : ... .. . ... ... : ... .. . ... ... : ... .. . ... ... : ... .. . ... ...
ROW 91 : ... .. 5 ... ... ... : ... .. 5 ... ... ... : ... .. . ... : ... .. . ... : ... .. . ... ... : ... .. . ... ... : ... .. . ... ... : ... .. . ... ...
ROW 92 : ... .. 6 ... ... ... : ... .. 6 ... ... ... : --- .. . ... : ... .. . ... : ... .. . ... ... : ... .. 1 ... ... : ... .. 1 ... ... : ... .. 1 ... ...
ROW 93 : ... .. . ... ... ... : ... .. . ... ... ... : ... .. . ... : ... .. . ... : ... .. . ... ... : ... .. . ... ... : ... .. . ... ... : ... .. . ... ...
ROW 94 : ... .. . ... ... ... : ... .. . ... ... ... : ... .. . ... : ... .. 0 ... : ... .. . ... ... : ... .. . ... ... : ... .. . ... ... : ... .. . ... ...
ROW 95 : ... .. . ... ... ... : ... .. . ... ... ... : ... .. . ... : ... .. . ... : ... .. . ... ... : ... .. . ... ... : ... .. . ... ... : ... .. . ... ...
ROW 96 : ... .. 8 ... ... ... : ... .. 8 ... ... ... : ... .. . ... : ... .. . ... : ... .. . ... ... : ... .. . ... ... : ... .. . ... ... : ... .. . ... ...
ROW 97 : ... .. . ... ... ... : ... .. . ... ... ... : ... .. . ... : ... .. . ... : ... .. . ... ... : ... .. . ... ... : ... .. . ... ... : ... .. . ... ...
ROW 98 : ... .. . ... ... ... : ... .. . ... ... ... : ... .. . ... : ... .. . ... : ... .. . ... ... : ... .. . ... ... : ... .. . ... ... : ... .. . ... ...
ROW 99 : ... .. A ... ... ... : ... .. A ... ... ... : ... .. . ... : ... .. B ... : ... .. . ... ... : --- .. . P82 ... : --- .. . P85 ... : --- .. . P84 ...
ROW 9A : ... .. . ... ... ... : ... .. . ... ... ... : ... .. . ... : ... .. 8 ... : ... .. . ... ... : ... .. . ... ... : ... .. . ... ... : ... .. . ... ...
ROW 9B : ... .. 8 ... ... ... : ... .. 8 ... ... ... : ... .. . ... : ... .. . ... : ... .. . ... ... : ... .. . ... ... : ... .. . ... ... : ... .. . ... ...
ROW 9C : ... .. . ... ... ... : ... .. . ... ... ... : ... .. . ... : ... .. 6 ... : ... .. . ... ... : ... .. . ... ... : ... .. . ... ... : ... .. . ... ...
ROW 9D : ... .. 7 ... ... ... : ... .. 7 ... ... ... : ... .. . ... : ... .. . ... : ... .. . ... ... : ... .. . ... ... : ... .. . ... ... : ... .. . ... ...
ROW 9E : ... .. 1 ... V00 ... : ... .. 1 ... V00 ... : ... .. . ... : ... .. 4 ... : ... .. . ... ... : ... .. . ... ... : ... .. . ... ... : ... .. . ... ...
ROW 9F : ... .. 0 ... ... ... : ... .. 0 ... ... ... : ... .. . ... : ... .. 3 ... : ... .. . ... ... : ... .. . ... ... : ... .. . ... ... : ... .. . ... ...
ROW A0 : F#3 00 1 P81 V01 ... : F#3 00 1 P7F V01 ... : ... .. . ... : ... .. 5 ... : ... .. . ... ... : ... .. . ... ... : ... .. . ... ... : ... .. . ... ...
ROW A1 : ... .. 3 ... V02 ... : ... .. 3 ... V02 ... : ... .. . ... : ... .. 3 ... : ... .. . ... ... : ... .. . ... ... : ... .. . ... ... : ... .. . ... ...
ROW A2 : ... .. 6 ... V01 ... : ... .. 6 ... V01 ... : ... .. . ... : ... .. 2 ... : ... .. . ... ... : ... .. . ... ... : ... .. . ... ... : ... .. . ... ...
ROW A3 : ... .. . ... ... ... : ... .. . ... ... ... : ... .. . ... : ... .. . ... : ... .. . ... ... : ... .. . ... ... : ... .. . ... ... : ... .. . ... ...
ROW A4 : G#3 00 1 ... ... ... : G#3 00 1 ... ... ... : ... .. . ... : ... .. 4 ... : ... .. . ... ... : ... .. . ... ... : ... .. . ... ... : ... .. . ... ...
ROW A5 : ... .. 4 ... V02 ... : ... .. 4 ... V02 ... : ... .. . ... : ... .. 2 ... : ... .. . ... ... : ... .. . ... ... : ... .. . ... ... : ... .. . ... ...
ROW A6 : A#3 00 2 ... V01 ... : A#3 00 2 ... V01 ... : ... .. . ... : ... .. . ... : ... .. . ... ... : ... .. . ... ... : ... .. . ... ... : ... .. . ... ...
ROW A7 : ... .. 6 ... V02 ... : ... .. 6 ... V02 ... : ... .. . ... : ... .. 6 ... : ... .. . ... ... : ... .. . ... ... : ... .. . ... ... : ... .. . ... ...
ROW A8 : ... .. A ... V01 ... : ... .. A ... V01 ... : ... .. . ... : ... .. 5 ... : ... .. . ... ... : ... .. . ... ... : ... .. . ... ... : ... .. . ... ...
ROW A9 : B-3 00 2 ... ... ... : B-3 00 2 ... ... ... : ... .. . ... : ... .. 4 ... : ... .. . ... ... : ... .. . ... ... : ... .. . ... ... : ... .. . ... ...
ROW AA : ... .. 6 ... V02 ... : ... .. 6 ... V02 ... : ... .. . ... : ... .. 3 ... : ... .. . ... ... : ... .. . ... ... : ... .. . ... ... : ... .. . ... ...
ROW AB : C#4 00 2 ... V01 ... : C#4 00 2 ... V01 ... : ... .. . ... : ... .. 9 ... : ... .. . ... ... : ... .. . ... ... : ... .. . ... ... : ... .. . ... ...
ROW AC : ... .. 6 ... V02 ... : ... .. 6 ... V02 ... : ... .. . ... : ... .. 7 ... : ... .. . ... ... : ... .. . ... ... : ... .. . ... ... : ... .. . ... ...
ROW AD : ... .. A ... V01 ... : ... .. A ... V01 ... : ... .. . ... : ... .. 6 ... : ... .. . ... ... : ... .. . ... ... : ... .. . ... ... : ... .. . ... ...
ROW AE : D-4 00 1 P7F ... ... : D-4 00 1 P81 ... ... : A#4 00 . ... : ... .. C ... : ... .. . ... ... : B-3 01 2 P81 V05 : B-3 01 2 P7F V05 : D-3 01 A P81 ...
ROW AF : ... .. 4 ... V02 ... : ... .. 4 ... V02 ... : C-4 00 . ... : ... .. 9 ... : ... .. . ... ... : ... .. 4 ... V07 : ... .. 4 ... V07 : ... .. 8 ... ...
ROW B0 : ... .. 8 ... V01 ... : ... .. 8 ... V01 ... : F-3 00 . ... : ... .. 8 ... : ... .. . ... ... : ... .. 6 ... V06 : ... .. 6 ... V06 : ... .. 5 ... ...
ROW B1 : ... .. . ... ... ... : ... .. . ... ... ... : E-3 00 . ... : ... .. . ... : ... .. . ... ... : ... .. . ... ... : ... .. . ... ... : ... .. . ... ...
ROW B2 : ... .. . ... ... ... : ... .. . ... ... ... : B-2 00 . ... : ... .. 5 ... : ... .. . ... ... : ... .. . ... ... : ... .. . ... ... : ... .. . ... ...
ROW B3 : ... .. . ... ... ... : ... .. . ... ... ... : ... .. . ... : ... .. 4 ... : ... .. . ... ... : ... .. . ... ... : ... .. . ... ... : ... .. . ... ...
ROW B4 : ... .. . ... ... ... : ... .. . ... ... ... : ... .. . ... : ... .. 3 ... : ... .. . ... ... : ... .. . ... ... : ... .. . ... ... : ... .. . ... ...
ROW B5 : ... .. . ... ... ... : ... .. . ... ... ... : ... .. . ... : ... .. 6 ... : ... .. . ... ... : A#3 01 2 ... V05 : A#3 01 2 ... V05 : ... .. 1 ... ...
ROW B6 : ... .. 1 ... V00 ... : ... .. 1 ... V00 ... : ... .. . ... : ... .. 4 ... : ... .. . ... ... : ... .. 4 ... V07 : ... .. 4 ... V07 : ... .. . ... ...
ROW B7 : ... .. 0 ... ... ... : ... .. 0 ... ... ... : ... .. . ... : ... .. 2 ... : ... .. . ... ... : ... .. 6 ... V06 : ... .. 6 ... V06 : ... .. . ... ...
ROW B8 : ... .. . ... ... ... : ... .. . ... ... ... : ... .. . ... : ... .. 1 ... : ... .. . ... ... : ... .. . ... ... : ... .. . ... ... : ... .. . ... ...
ROW B9 : ... .. . ... ... ... : ... .. . ... ... ... : ... .. . ... : ... .. . ... : ... .. . ... ... : ... .. . ... ... : ... .. . ... ... : ... .. . ... ...
ROW BA : ... .. . ... ... ... : ... .. . ... ... ... : ... .. . ... : ... .. 0 ... : ... .. . ... ... : ... .. . ... ... : ... .. . ... ... : ... .. . ... ...
ROW BB : ... .. . ... ... ... : ... .. . ... ... ... : ... .. . ... : ... .. 1 ... : ... .. . ... ... : ... .. . ... ... : ... .. . ... ... : ... .. . ... ...
ROW BC : D-4 00 1 P7F V01 ... : D-4 00 1 P81 V01 ... : --- .. . ... : ... .. 6 ... : ... .. . ... ... : B-3 01 2 ... V05 : B-3 01 2 ... V05 : ... .. A ... ...
ROW BD : ... .. 4 ... V02 ... : ... .. 4 ... V02 ... : ... .. . ... : ... .. 4 ... : ... .. . ... ... : ... .. 4 ... V07 : ... .. 4 ... V07 : ... .. 8 ... ...
ROW BE : ... .. 8 ... V01 ... : ... .. 8 ... V01 ... : ... .. . ... : ... .. 2 ... : ... .. . ... ... : ... .. 6 ... V06 : ... .. 6 ... V06 : ... .. 5 ... ...
ROW BF : ... .. . ... ... ... : ... .. . ... ... ... : ... .. . ... : ... .. 1 ... : ... .. . ... ... : ... .. . ... ... : ... .. . ... ... : ... .. . ... ...
ROW C0 : ... .. . ... ... ... : ... .. . ... ... ... : ... .. . ... : ... .. . ... : ... .. . ... ... : ... .. . ... ... : ... .. . ... ... : ... .. . ... ...
ROW C1 : ... .. 1 ... V00 ... : ... .. 1 ... V00 ... : ... .. . ... : ... .. 0 ... : ... .. . ... ... : ... .. . ... ... : ... .. . ... ... : ... .. . ... ...
ROW C2 : ... .. 0 ... ... ... : ... .. 0 ... ... ... : ... .. . ... : ... .. 1 ... : ... .. . ... ... : ... .. 1 ... ... : ... .. 1 ... ... : ... .. 1 ... ...
ROW C3 : D-4 00 1 P7F V01 ... : D-4 00 1 P81 V01 ... : F-4 00 . ... : ... .. C ... : ... .. . ... ... : F#3 01 2 ... V05 : F#3 01 2 ... V05 : B-2 01 A ... ...
ROW C4 : ... .. 4 ... V02 ... : ... .. 4 ... V02 ... : G-3 00 . ... : ... .. 9 ... : ... .. . ... ... : ... .. 4 ... V07 : ... .. 4 ... V07 : ... .. 8 ... ...
ROW C5 : ... .. 8 ... V01 ... : ... .. 8 ... V01 ... : C-3 00 . ... : ... .. 8 ... : ... .. . ... ... : ... .. 6 ... V06 : ... .. 6 ... V06 : ... .. 5 ... ...
ROW C6 : ... .. . ... ... ... : ... .. . ... ... ... : B-2 00 . ... : ... .. . ... : ... .. . ... ... : ... .. . ... ... : ... .. . ... ... : ... .. . ... ...
ROW C7 : ... .. . ... ... ... : ... .. . ... ... ... : F#2 00 . ... : ... .. 5 ... : ... .. . ... ... : ... .. . ... ... : ... .. . ... ... : ... .. . ... ...
ROW C8 : ... .. 1 ... V00 ... : ... .. 1 ... V00 ... : ... .. . ... : ... .. 4 ... : ... .. . ... ... : ... .. . ... ... : ... .. . ... ... : ... .. . ... ...
ROW C9 : ... .. 0 ... ... ... : ... .. 0 ... ... ... : ... .. . ... : ... .. 3 ... : ... .. . ... ... : ... .. . ... ... : ... .. . ... ... : ... .. . ... ...
ROW CA : D-4 00 1 P7F V01 ... : D-4 00 1 P81 V01 ... : ... .. . ... : ... .. . ... : ... .. . ... ... : F-3 01 2 ... V05 : F-3 01 2 ... V05 : ... .. 1 ... ...
ROW CB : ... .. 4 ... V02 ... : ... .. 4 ... V02 ... : ... .. . ... : ... .. 2 ... : ... .. . ... ... : ... .. 4 ... V07 : ... .. 4 ... V07 : ... .. . ... ...
ROW CC : ... .. 8 ... V01 ... : ... .. 8 ... V01 ... : ... .. . ... : ... .. . ... : ... .. . ... ... : ... .. 6 ... V06 : ... .. 6 ... V06 : ... .. . ... ...
ROW CD : ... .. . ... ... ... : ... .. . ... ... ... : ... .. . ... : ... .. 1 ... : ... .. . ... ... : ... .. . ... ... : ... .. . ... ... : ... .. . ... ...
ROW CE : ... .. . ... ... ... : ... .. . ... ... ... : ... .. . ... : ... .. . ... : ... .. . ... ... : ... .. . ... ... : ... .. . ... ... : ... .. . ... ...
ROW CF : ... .. 1 ... V00 ... : ... .. 1 ... V00 ... : ... .. . ... : ... .. . ... : ... .. . ... ... : ... .. . ... ... : ... .. . ... ... : ... .. . ... ...
ROW D0 : ... .. 0 ... ... ... : ... .. 0 ... ... ... : ... .. . ... : ... .. . ... : ... .. . ... ... : ... .. . ... ... : ... .. . ... ... : ... .. . ... ...
ROW D1 : E-4 00 1 P7F V01 ... : E-4 00 1 P81 V01 ... : --- .. . ... : ... .. 6 ... : ... .. . ... ... : F#3 01 2 ... V05 : F#3 01 2 ... V05 : ... .. A ... ...
ROW D2 : ... .. 4 ... V02 ... : ... .. 4 ... V02 ... : ... .. . ... : ... .. 5 ... : ... .. . ... ... : ... .. 4 ... V07 : ... .. 4 ... V07 : ... .. 8 ... ...
ROW D3 : ... .. 8 ... V01 ... : ... .. 8 ... V01 ... : ... .. . ... : ... .. 4 ... : ... .. . ... ... : ... .. 6 ... V06 : ... .. 6 ... V06 : ... .. 5 ... ...
ROW D4 : ... .. . ... ... ... : ... .. . ... ... ... : ... .. . ... : ... .. 3 ... : ... .. . ... ... : ... .. . ... ... : ... .. . ... ... : ... .. . ... ...
ROW D5 : ... .. . ... ... ... : ... .. . ... ... ... : ... .. . ... : ... .. 1 ... : ... .. . ... ... : ... .. . ... ... : ... .. . ... ... : ... .. . ... ...
ROW D6 : ... .. 1 ... V00 ... : ... .. 1 ... V00 ... : ... .. . ... : ... .. . ... : ... .. . ... ... : ... .. . ... ... : ... .. . ... ... : ... .. . ... ...
ROW D7 : ... .. 0 ... ... ... : ... .. 0 ... ... ... : ... .. . ... : ... .. . ... : ... .. . ... ... : ... .. 1 ... ... : ... .. 1 ... ... : ... .. 1 ... ...
ROW D8 : D-4 00 1 P7F V01 ... : D-4 00 1 P81 V01 ... : A#4 00 . ... : ... .. C ... : ... .. . ... ... : G-3 01 2 ... V05 : G-3 01 2 ... V05 : D-3 01 A ... ...
ROW D9 : ... .. 4 ... V02 ... : ... .. 4 ... V02 ... : C-4 00 . ... : ... .. 9 ... : ... .. . ... ... : ... .. 4 ... V07 : ... .. 4 ... V07 : ... .. 8 ... ...
ROW DA : ... .. 8 ... V01 ... : ... .. 8 ... V01 ... : F-3 00 . ... : ... .. 8 ... : ... .. . ... ... : ... .. 6 ... V06 : ... .. 6 ... V06 : ... .. 5 ... ...
ROW DB : ... .. . ... ... ... : ... .. . ... ... ... : E-3 00 . ... : ... .. . ... : ... .. . ... ... : ... .. . ... ... : ... .. . ... ... : ... .. . ... ...
ROW DC : ... .. . ... ... ... : ... .. . ... ... ... : B-2 00 . ... : ... .. 5 ... : ... .. . ... ... : ... .. . ... ... : ... .. . ... ... : ... .. . ... ...
ROW DD : ... .. . ... ... ... : ... .. . ... ... ... : ... .. . ... : ... .. 4 ... : ... .. . ... ... : ... .. . ... ... : ... .. . ... ... : ... .. . ... ...
ROW DE : ... .. . ... ... ... : ... .. . ... ... ... : ... .. . ... : ... .. 3 ... : ... .. . ... ... : ... .. . ... ... : ... .. . ... ... : ... .. . ... ...
ROW DF : ... .. . ... ... ... : ... .. . ... ... ... : ... .. . ... : ... .. . ... : ... .. . ... ... : F#3 01 2 ... V05 : F#3 01 2 ... V05 : ... .. . ... ...
ROW E0 : ... .. 1 ... V00 ... : ... .. 1 ... V00 ... : ... .. . ... : ... .. 2 ... : ... .. . ... ... : ... .. 4 ... V07 : ... .. 4 ... V07 : ... .. . ... ...
ROW E1 : ... .. 0 ... ... ... : ... .. 0 ... ... ... : ... .. . ... : ... .. . ... : ... .. . ... ... : ... .. 6 ... V06 : ... .. 6 ... V06 : ... .. . ... ...
ROW E2 : ... .. . ... ... ... : ... .. . ... ... ... : ... .. . ... : ... .. 1 ... : ... .. . ... ... : ... .. . ... ... : ... .. . ... ... : ... .. . ... ...
ROW E3 : ... .. . ... ... ... : ... .. . ... ... ... : ... .. . ... : ... .. . ... : ... .. . ... ... : ... .. 1 ... ... : ... .. 1 ... ... : ... .. 1 ... ...
ROW E4 : ... .. . ... ... ... : ... .. . ... ... ... : ... .. . ... : ... .. . ... : ... .. . ... ... : ... .. . ... ... : ... .. . ... ... : ... .. . ... ...
ROW E5 : ... .. . ... ... ... : ... .. . ... ... ... : ... .. . ... : ... .. . ... : ... .. . ... ... : ... .. . ... ... : ... .. . ... ... : ... .. . ... ...
ROW E6 : C#4 00 1 P7F V01 ... : C#4 00 1 P81 V01 ... : --- .. . ... : ... .. 7 ... : ... .. . ... ... : C#3 01 2 ... V05 : C#3 01 2 ... V05 : ... .. A ... ...
ROW E7 : ... .. 4 ... V02 ... : ... .. 4 ... V02 ... : ... .. . ... : ... .. 5 ... : ... .. . ... ... : ... .. 4 ... V07 : ... .. 4 ... V07 : ... .. 8 ... ...
ROW E8 : ... .. 8 ... V01 ... : ... .. 8 ... V01 ... : ... .. . ... : ... .. . ... : ... .. . ... ... : ... .. 6 ... V06 : ... .. 6 ... V06 : ... .. 5 ... ...
ROW E9 : ... .. . ... ... ... : ... .. . ... ... ... : ... .. . ... : ... .. 4 ... : ... .. . ... ... : ... .. . ... ... : ... .. . ... ... : ... .. . ... ...
ROW EA : ... .. . ... ... ... : ... .. . ... ... ... : ... .. . ... : ... .. 3 ... : ... .. . ... ... : ... .. 1 ... ... : ... .. 1 ... ... : ... .. 1 ... ...
ROW EB : ... .. 1 ... V00 ... : ... .. 1 ... V00 ... : ... .. . ... : ... .. 2 ... : ... .. . ... ... : ... .. . ... ... : ... .. . ... ... : ... .. . ... ...
ROW EC : ... .. 0 ... ... ... : ... .. 0 ... ... ... : ... .. . ... : ... .. 1 ... : ... .. . ... ... : ... .. . ... ... : ... .. . ... ... : ... .. . ... ...
ROW ED : B-3 00 1 P7F V01 ... : B-3 00 1 P81 V01 ... : F-4 00 . ... : ... .. B ... : ... .. . ... ... : D-3 01 2 ... V05 : F#2 01 2 ... V05 : B-2 01 A ... ...
ROW EE : ... .. 4 ... V02 ... : ... .. 4 ... V02 ... : G-3 00 . ... : ... .. 8 ... : ... .. . ... ... : ... .. 4 ... V07 : ... .. 4 ... V07 : ... .. 8 ... ...
ROW EF : ... .. 8 ... V01 ... : ... .. 8 ... V01 ... : C-3 00 . ... : ... .. B ... : ... .. . ... ... : ... .. 6 ... V06 : ... .. 6 ... V06 : ... .. 5 ... ...
ROW F0 : ... .. . ... ... ... : ... .. . ... ... ... : B-2 00 . ... : ... .. 8 ... : ... .. . ... ... : ... .. . ... ... : ... .. . ... ... : ... .. . ... ...
ROW F1 : ... .. . ... ... ... : ... .. . ... ... ... : F#2 00 . ... : ... .. 6 ... : ... .. . ... ... : ... .. . ... ... : ... .. . ... ... : ... .. . ... ...
ROW F2 : ... .. . ... ... ... : ... .. . ... ... ... : ... .. . ... : ... .. 4 ... : ... .. . ... ... : ... .. . ... ... : ... .. . ... ... : ... .. . ... ...
ROW F3 : ... .. . ... ... ... : ... .. . ... ... ... : ... .. . ... : ... .. 2 ... : ... .. . ... ... : ... .. . ... ... : ... .. . ... ... : ... .. . ... ...
ROW F4 : ... .. . ... ... ... : ... .. . ... ... ... : ... .. . ... : ... .. 1 ... : ... .. . ... ... : ... .. 1 ... ... : ... .. 1 ... ... : ... .. 1 ... ...
ROW F5 : ... .. . ... ... ... : ... .. . ... ... ... : ... .. . ... : ... .. . ... : ... .. . ... ... : ... .. . ... ... : ... .. . ... ... : ... .. . ... ...
ROW F6 : ... .. . ... ... ... : ... .. . ... ... ... : ... .. . ... : ... .. 0 ... : ... .. . ... ... : ... .. . ... ... : ... .. . ... ... : ... .. . ... ...
ROW F7 : ... .. . ... ... ... : ... .. . ... ... ... : ... .. . ... : ... .. . ... : ... .. . ... ... : ... .. . ... ... : ... .. . ... ... : ... .. . ... ...
ROW F8 : ... .. . ... ... ... : ... .. . ... ... ... : ... .. . ... : ... .. . ... : ... .. . ... ... : ... .. . ... ... : ... .. . ... ... : ... .. . ... ...
ROW F9 : ... .. . ... ... ... : ... .. . ... ... ... : ... .. . ... : ... .. . ... : ... .. . ... ... : ... .. . ... ... : ... .. . ... ... : ... .. . ... ...
ROW FA : ... .. . ... ... ... : ... .. . ... ... ... : ... .. . ... : ... .. 1 ... : ... .. . ... ... : ... .. . ... ... : ... .. . ... ... : ... .. . ... ...
ROW FB : D-4 00 1 ... ... ... : D-4 00 1 ... ... ... : --- .. . ... : ... .. 6 ... : ... .. . ... ... : ... .. 2 ... V05 : ... .. 2 ... V05 : ... .. A ... ...
ROW FC : ... .. 4 ... V02 ... : ... .. 4 ... V02 ... : ... .. . ... : ... .. 4 ... : ... .. . ... ... : ... .. 4 ... V07 : ... .. 4 ... V07 : ... .. 8 ... ...
ROW FD : ... .. 8 ... V01 ... : ... .. 8 ... V01 ... : ... .. . ... : ... .. 2 ... : ... .. . ... ... : ... .. 6 ... V06 : ... .. 6 ... V06 : ... .. 5 ... ...
ROW FE : ... .. . ... ... ... : ... .. . ... ... ... : ... .. . ... : ... .. 1 ... : ... .. . ... ... : ... .. . ... ... : ... .. . ... ... : ... .. . ... ...
ROW FF : ... .. . ... ... ... : ... .. . ... ... ... : ... .. . ... : ... .. . ... : ... .. . ... ... : ... .. . ... ... : ... .. . ... ... : ... .. . ... ...

PATTERN 02
ROW 00 : ... .. 1 ... V00 ... : ... .. 1 ... V00 ... : ... .. . ... : ... .. 0 ... : ... .. . ... ... : ... .. . ... ... : ... .. . ... ... : ... .. . ... ...
ROW 01 : ... .. 0 ... ... ... : ... .. 0 ... ... ... : ... .. . ... : ... .. 1 ... : ... .. . ... ... : ... .. . ... ... : ... .. . ... ... : ... .. . ... ...
ROW 02 : C#4 00 1 P7F V01 ... : C#4 00 1 P81 V01 ... : C-5 00 . ... : ... .. C ... : ... .. . ... ... : E-3 01 2 ... V05 : A#2 01 2 ... V05 : C#3 01 A ... ...
ROW 03 : ... .. 4 ... V02 ... : ... .. 4 ... V02 ... : D-4 00 . ... : ... .. 9 ... : ... .. . ... ... : ... .. 4 ... V07 : ... .. 4 ... V07 : ... .. 8 ... ...
ROW 04 : ... .. 8 ... V01 ... : ... .. 8 ... V01 ... : G-3 00 . ... : ... .. 8 ... : ... .. . ... ... : ... .. 6 ... V06 : ... .. 6 ... V06 : ... .. 5 ... ...
ROW 05 : ... .. . ... ... ... : ... .. . ... ... ... : F#3 00 . ... : ... .. . ... : ... .. . ... ... : ... .. . ... ... : ... .. . ... ... : ... .. . ... ...
ROW 06 : ... .. . ... ... ... : ... .. . ... ... ... : C#3 00 . ... : ... .. 5 ... : ... .. . ... ... : ... .. . ... ... : ... .. . ... ... : ... .. . ... ...
ROW 07 : ... .. . ... ... ... : ... .. . ... ... ... : ... .. . ... : ... .. 4 ... : ... .. . ... ... : ... .. . ... ... : ... .. . ... ... : ... .. . ... ...
ROW 08 : ... .. . ... ... ... : ... .. . ... ... ... : ... .. . ... : ... .. 3 ... : ... .. . ... ... : ... .. 1 ... ... : ... .. 1 ... ... : ... .. 1 ... ...
ROW 09 : ... .. . ... ... ... : ... .. . ... ... ... : ... .. . ... : ... .. 6 ... : ... .. . ... ... : ... .. 2 ... V05 : ... .. 2 ... V05 : ... .. A ... ...
ROW 0A : ... .. . ... ... ... : ... .. . ... ... ... : ... .. . ... : ... .. 4 ... : ... .. . ... ... : ... .. 4 ... V07 : ... .. 4 ... V07 : ... .. 8 ... ...
ROW 0B : ... .. . ... ... ... : ... .. . ... ... ... : ... .. . ... : ... .. 2 ... : ... .. . ... ... : ... .. 6 ... V06 : ... .. 6 ... V06 : ... .. 5 ... ...
ROW 0C : ... .. . ... ... ... : ... .. . ... ... ... : ... .. . ... : ... .. 1 ... : ... .. . ... ... : ... .. . ... ... : ... .. . ... ... : ... .. . ... ...
ROW 0D : ... .. . ... ... ... : ... .. . ... ... ... : ... .. . ... : ... .. . ... : ... .. . ... ... : ... .. 1 ... ... : ... .. 1 ... ... : ... .. 1 ... ...
ROW 0E : ... .. 1 ... V00 ... : ... .. 1 ... V00 ... : ... .. . ... : ... .. 0 ... : ... .. . ... ... : ... .. . ... ... : ... .. . ... ... : ... .. . ... ...
ROW 0F : ... .. 0 ... ... ... : ... .. 0 ... ... ... : ... .. . ... : ... .. 1 ... : ... .. . ... ... : ... .. . ... ... : ... .. . ... ... : ... .. . ... ...
ROW 10 : C#4 00 1 P7F V01 ... : C#4 00 1 P81 V01 ... : --- .. . ... : ... .. 6 ... : ... .. . ... ... : ... .. 2 ... V05 : ... .. 2 ... V05 : ... .. A ... ...
ROW 11 : ... .. 4 ... V02 ... : ... .. 4 ... V02 ... : ... .. . ... : ... .. 4 ... : ... .. . ... ... : ... .. 4 ... V07 : ... .. 4 ... V07 : ... .. 8 ... ...
ROW 12 : ... .. 8 ... V01 ... : ... .. 8 ... V01 ... : ... .. . ... : ... .. 2 ... : ... .. . ... ... : ... .. 6 ... V06 : ... .. 6 ... V06 : ... .. 5 ... ...
ROW 13 : ... .. . ... ... ... : ... .. . ... ... ... : ... .. . ... : ... .. 1 ... : ... .. . ... ... : ... .. . ... ... : ... .. . ... ... : ... .. . ... ...
ROW 14 : ... .. . ... ... ... : ... .. . ... ... ... : ... .. . ... : ... .. . ... : ... .. . ... ... : ... .. 1 ... ... : ... .. 1 ... ... : ... .. 1 ... ...
ROW 15 : ... .. 1 ... V00 ... : ... .. 1 ... V00 ... : ... .. . ... : ... .. 0 ... : ... .. . ... ... : ... .. . ... ... : ... .. . ... ... : ... .. . ... ...
ROW 16 : ... .. 0 ... ... ... : ... .. 0 ... ... ... : ... .. . ... : ... .. 1 ... : ... .. . ... ... : ... .. . ... ... : ... .. . ... ... : ... .. . ... ...
ROW 17 : C#4 00 1 P7F V01 ... : C#4 00 1 P81 V01 ... : F-4 00 . ... : ... .. C ... : ... .. . ... ... : C#3 01 2 ... V05 : F#2 01 2 ... V05 : E-3 01 A ... ...
ROW 18 : ... .. 4 ... V02 ... : ... .. 4 ... V02 ... : G-3 00 . ... : ... .. 9 ... : ... .. . ... ... : ... .. 4 ... V07 : ... .. 4 ... V07 : ... .. 8 ... ...
ROW 19 : ... .. 8 ... V01 ... : ... .. 8 ... V01 ... : C-3 00 . ... : ... .. 8 ... : ... .. . ... ... : ... .. 6 ... V06 : ... .. 6 ... V06 : ... .. 5 ... ...
ROW 1A : ... .. . ... ... ... : ... .. . ... ... ... : B-2 00 . ... : ... .. . ... : ... .. . ... ... : ... .. . ... ... : ... .. . ... ... : ... .. . ... ...
ROW 1B : ... .. . ... ... ... : ... .. . ... ... ... : F#2 00 . ... : ... .. 5 ... : ... .. . ... ... : ... .. . ... ... : ... .. . ... ... : ... .. . ... ...
ROW 1C : ... .. . ... ... ... : ... .. . ... ... ... : ... .. . ... : ... .. 4 ... : ... .. . ... ... : ... .. . ... ... : ... .. . ... ... : ... .. . ... ...
ROW 1D : ... .. . ... ... ... : ... .. . ... ... ... : ... .. . ... : ... .. 3 ... : ... .. . ... ... : ... .. . ... ... : ... .. . ... ... : ... .. . ... ...
ROW 1E : B-3 00 1 ... ... ... : B-3 00 1 ... ... ... : ... .. . ... : ... .. . ... : ... .. . ... ... : ... .. . ... ... : ... .. . ... ... : ... .. . ... ...
ROW 1F : ... .. 4 ... V02 ... : ... .. 4 ... V02 ... : ... .. . ... : ... .. 2 ... : ... .. . ... ... : ... .. . ... ... : ... .. . ... ... : ... .. . ... ...
ROW 20 : ... .. 8 ... V01 ... : ... .. 8 ... V01 ... : ... .. . ... : ... .. . ... : ... .. . ... ... : ... .. . ... ... : ... .. . ... ... : ... .. . ... ...
ROW 21 : ... .. . ... ... ... : ... .. . ... ... ... : ... .. . ... : ... .. 1 ... : ... .. . ... ... : ... .. . ... ... : ... .. . ... ... : ... .. . ... ...
ROW 22 : ... .. . ... ... ... : ... .. . ... ... ... : ... .. . ... : ... .. . ... : ... .. . ... ... : ... .. 1 ... ... : ... .. 1 ... ... : ... .. 1 ... ...
ROW 23 : ... .. 1 ... V00 ... : ... .. 1 ... V00 ... : ... .. . ... : ... .. . ... : ... .. . ... ... : ... .. . ... ... : ... .. . ... ... : ... .. . ... ...
ROW 24 : ... .. 0 ... ... ... : ... .. 0 ... ... ... : ... .. . ... : ... .. . ... : ... .. . ... ... : ... .. . ... ... : ... .. . ... ... : ... .. . ... ...
ROW 25 : C#4 00 1 P7F V01 ... : C#4 00 1 P81 V01 ... : --- .. . ... : ... .. 6 ... : ... .. . ... ... : ... .. 2 ... V05 : ... .. 2 ... V05 : ... .. A ... ...
ROW 26 : ... .. 4 ... V02 ... : ... .. 4 ... V02 ... : ... .. . ... : ... .. 5 ... : ... .. . ... ... : ... .. 4 ... V07 : ... .. 4 ... V07 : ... .. 8 ... ...
ROW 27 : ... .. 8 ... V01 ... : ... .. 8 ... V01 ... : ... .. . ... : ... .. 4 ... : ... .. . ... ... : ... .. 6 ... V06 : ... .. 6 ... V06 : ... .. 5 ... ...
ROW 28 : ... .. . ... ... ... : ... .. . ... ... ... : ... .. . ... : ... .. 3 ... : ... .. . ... ... : ... .. . ... ... : ... .. . ... ... : ... .. . ... ...
ROW 29 : ... .. . ... ... ... : ... .. . ... ... ... : ... .. . ... : ... .. 1 ... : ... .. . ... ... : ... .. 1 ... ... : ... .. 1 ... ... : ... .. 1 ... ...
ROW 2A : ... .. 1 ... V00 ... : ... .. 1 ... V00 ... : ... .. . ... : ... .. . ... : ... .. . ... ... : ... .. . ... ... : ... .. . ... ... : ... .. . ... ...
ROW 2B : ... .. 0 ... ... ... : ... .. 0 ... ... ... : ... .. . ... : ... .. . ... : ... .. . ... ... : ... .. . ... ... : ... .. . ... ... : ... .. . ... ...
ROW 2C : D-4 00 2 P7F V01 ... : D-4 00 2 P81 V01 ... : A#4 00 . ... : ... .. C ... : ... .. . ... ... : F#3 01 2 ... V05 : B-2 01 2 ... V05 : D-3 01 A ... ...
ROW 2D : ... .. 6 ... V02 ... : ... .. 6 ... V02 ... : C-4 00 . ... : ... .. 9 ... : ... .. . ... ... : ... .. 4 ... V07 : ... .. 4 ... V07 : ... .. 8 ... ...
ROW 2E : ... .. 8 ... V01 ... : ... .. 8 ... V01 ... : F-3 00 . ... : ... .. 8 ... : ... .. . ... ... : ... .. 6 ... V06 : ... .. 6 ... V06 : ... .. 5 ... ...
ROW 2F : ... .. . ... ... ... : ... .. . ... ... ... : E-3 00 . ... : ... .. . ... : ... .. . ... ... : ... .. . ... ... : ... .. . ... ... : ... .. . ... ...
ROW 30 : ... .. 6 ... ... ... : ... .. 6 ... ... ... : B-2 00 . ... : ... .. 5 ... : ... .. . ... ... : ... .. . ... ... : ... .. . ... ... : ... .. . ... ...
ROW 31 : ... .. . ... ... ... : ... .. . ... ... ... : ... .. . ... : ... .. 4 ... : ... .. . ... ... : ... .. . ... ... : ... .. . ... ... : ... .. . ... ...
ROW 32 : ... .. 4 ... ... ... : ... .. 4 ... ... ... : ... .. . ... : ... .. 3 ... : ... .. . ... ... : ... .. . ... ... : ... .. . ... ... : ... .. . ... ...
ROW 33 : ... .. 2 ... ... ... : ... .. 2 ... ... ... : ... .. . ... : ... .. . ... : ... .. . ... ... : ... .. . ... ... : ... .. . ... ... : ... .. . ... ...
ROW 34 : ... .. . ... ... ... : ... .. . ... ... ... : ... .. . ... : ... .. 2 ... : ... .. . ... ... : ... .. . ... ... : ... .. . ... ... : ... .. . ... ...
ROW 35 : ... .. 3 ... ... ... : ... .. 3 ... ... ... : ... .. . ... : ... .. . ... : ... .. . ... ... : ... .. . ... ... : ... .. . ... ... : ... .. . ... ...
ROW 36 : ... .. . ... ... ... : ... .. . ... ... ... : ... .. . ... : ... .. 1 ... : ... .. . ... ... : ... .. . ... ... : ... .. . ... ... : ... .. . ... ...
ROW 37 : ... .. 4 ... ... ... : ... .. 4 ... ... ... : ... .. . ... : ... .. . ... : ... .. . ... ... : ... .. . ... ... : ... .. . ... ... : ... .. . ... ...
ROW 38 : ... .. . ... ... ... : ... .. . ... ... ... : ... .. . ... : ... .. . ... : ... .. . ... ... : ... .. . ... ... : ... .. . ... ... : ... .. . ... ...
ROW 39 : ... .. 5 ... ... ... : ... .. 5 ... ... ... : ... .. . ... : ... .. . ... : ... .. . ... ... : ... .. . ... ... : ... .. . ... ... : ... .. . ... ...
ROW 3A : ... .. 6 ... ... ... : ... .. 6 ... ... ... : --- .. . ... : ... .. . ... : ... .. . ... ... : ... .. 1 ... ... : ... .. 1 ... ... : ... .. 1 ... ...
ROW 3B : ... .. . ... ... ... : ... .. . ... ... ... : ... .. . ... : ... .. . ... : ... .. . ... ... : ... .. . ... ... : ... .. . ... ... : ... .. . ... ...
ROW 3C : ... .. . ... ... ... : ... .. . ... ... ... : ... .. . ... : ... .. 0 ... : ... .. . ... ... : ... .. . ... ... : ... .. . ... ... : ... .. . ... ...
ROW 3D : ... .. 1 ... V00 ... : ... .. 1 ... V00 ... : ... .. . ... : ... .. . ... : ... .. . ... ... : ... .. . ... ... : ... .. . ... ... : ... .. . ... ...
ROW 3E : ... .. 0 ... ... ... : ... .. 0 ... ... ... : ... .. . ... : ... .. . ... : ... .. . ... ... : ... .. . ... ... : ... .. . ... ... : ... .. . ... ...
ROW 3F : ... .. . ... ... ... : ... .. . ... ... ... : ... .. . ... : ... .. . ... : ... .. . ... ... : ... .. . ... ... : ... .. . ... ... : ... .. . ... ...
ROW 40 : ... .. . ... ... ... : ... .. . ... ... ... : ... .. . ... : ... .. . ... : ... .. . ... ... : ... .. . ... ... : ... .. . ... ... : ... .. . ... ...
ROW 41 : F#4 00 2 P7F V01 ... : F#4 00 2 P81 V01 ... : F-3 00 . ... : ... .. B ... : ... .. . ... ... : E-3 01 2 ... V05 : A#2 01 2 ... V05 : F#2 01 A ... ...
ROW 42 : ... .. 6 ... V02 ... : ... .. 6 ... V02 ... : G-2 00 . ... : ... .. 8 ... : ... .. . ... ... : ... .. 4 ... V07 : ... .. 4 ... V07 : ... .. 8 ... ...
ROW 43 : ... .. 8 ... V01 ... : ... .. 8 ... V01 ... : C-2 00 . ... : ... .. . ... : ... .. . ... ... : ... .. 6 ... V06 : ... .. 6 ... V06 : ... .. 5 ... ...
ROW 44 : ... .. . ... ... ... : ... .. . ... ... ... : B-1 00 . ... : ... .. 6 ... : ... .. . ... ... : ... .. . ... ... : ... .. . ... ... : ... .. . ... ...
ROW 45 : ... .. 7 ... ... ... : ... .. 7 ... ... ... : F#1 00 . ... : ... .. . ... : ... .. . ... ... : ... .. . ... ... : ... .. . ... ... : ... .. . ... ...
ROW 46 : ... .. . ... ... ... : ... .. . ... ... ... : ... .. . ... : ... .. 4 ... : ... .. . ... ... : ... .. . ... ... : ... .. . ... ... : ... .. . ... ...
ROW 47 : ... .. 6 ... ... ... : ... .. 6 ... ... ... : ... .. . ... : ... .. 3 ... : ... .. . ... ... : ... .. . ... ... : ... .. . ... ... : ... .. . ... ...
ROW 48 : ... .. 5 ... ... ... : ... .. 5 ... ... ... : ... .. . ... : ... .. 5 ... : ... .. . ... ... : F#3 01 2 ... V05 : B-2 01 2 ... V05 : ... .. . ... ...
ROW 49 : ... .. . ... ... ... : ... .. . ... ... ... : ... .. . ... : ... .. 3 ... : ... .. . ... ... : ... .. 4 ... V07 : ... .. 4 ... V07 : ... .. . ... ...
ROW 4A : G#4 00 1 ... ... ... : G#4 00 1 ... ... ... : ... .. . ... : ... .. 2 ... : ... .. . ... ... : ... .. 6 ... V06 : ... .. 6 ... V06 : ... .. . ... ...
ROW 4B : ... .. 4 ... V02 ... : ... .. 4 ... V02 ... : ... .. . ... : ... .. . ... : ... .. . ... ... : ... .. . ... ... : ... .. . ... ... : ... .. . ... ...
ROW 4C : ... .. 8 ... V01 ... : ... .. 8 ... V01 ... : ... .. . ... : ... .. 4 ... : ... .. . ... ... : ... .. . ... ... : ... .. . ... ... : ... .. . ... ...
ROW 4D : ... .. . ... ... ... : ... .. . ... ... ... : ... .. . ... : ... .. 2 ... : ... .. . ... ... : ... .. . ... ... : ... .. . ... ... : ... .. . ... ...
ROW 4E : A-4 00 2 ... ... ... : A-4 00 2 ... ... ... : ... .. . ... : ... .. . ... : ... .. . ... ... : ... .. . ... ... : ... .. . ... ... : ... .. . ... ...
ROW 4F : ... .. 6 ... V02 ... : ... .. 6 ... V02 ... : ... .. . ... : ... .. 6 ... : ... .. . ... ... : E-3 01 2 ... V05 : C#3 01 2 ... V05 : ... .. . ... ...
ROW 50 : ... .. A ... V01 ... : ... .. A ... V01 ... : ... .. . ... : ... .. 5 ... : ... .. . ... ... : ... .. 4 ... V07 : ... .. 4 ... V07 : ... .. . ... ...
ROW 51 : A#4 00 2 ... ... ... : A#4 00 2 ... ... ... : ... .. . ... : ... .. 4 ... : ... .. . ... ... : ... .. 6 ... V06 : ... .. 6 ... V06 : ... .. . ... ...
ROW 52 : ... .. 6 ... V02 ... : ... .. 6 ... V02 ... : ... .. . ... : ... .. 3 ... : ... .. . ... ... : ... .. . ... ... : ... .. . ... ... : ... .. . ... ...
ROW 53 : ... .. A ... V01 ... : ... .. A ... V01 ... : ... .. . ... : ... .. 9 ... : ... .. . ... ... : ... .. . ... ... : ... .. . ... ... : ... .. . ... ...
ROW 54 : ... .. . ... ... ... : ... .. . ... ... ... : ... .. . ... : ... .. 7 ... : ... .. . ... ... : ... .. . ... ... : ... .. . ... ... : ... .. . ... ...
ROW 55 : ... .. . ... ... ... : ... .. . ... ... ... : ... .. . ... : ... .. 6 ... : ... .. . ... ... : ... .. . ... ... : ... .. . ... ... : ... .. . ... ...
ROW 56 : B-4 00 1 ... ... ... : B-4 00 1 ... ... ... : A#4 00 . ... : ... .. C ... : ... .. . ... ... : F#3 01 2 ... V05 : B-2 01 2 ... V05 : D-3 01 A ... ...
ROW 57 : ... .. 4 ... V02 ... : ... .. 4 ... V02 ... : C-4 00 . ... : ... .. 9 ... : ... .. . ... ... : ... .. 4 ... V07 : ... .. 4 ... V07 : ... .. 8 ... ...
ROW 58 : ... .. 8 ... V01 ... : ... .. 8 ... V01 ... : F-3 00 . ... : ... .. 8 ... : ... .. . ... ... : ... .. 6 ... V06 : ... .. 6 ... V06 : ... .. 5 ... ...
ROW 59 : ... .. . ... ... ... : ... .. . ... ... ... : E-3 00 . ... : ... .. . ... : ... .. . ... ... : ... .. . ... ... : ... .. . ... ... : ... .. . ... ...
ROW 5A : ... .. . ... ... ... : ... .. . ... ... ... : B-2 00 . ... : ... .. 5 ... : ... .. . ... ... : ... .. . ... ... : ... .. . ... ... : ... .. . ... ...
ROW 5B : ... .. . ... ... ... : ... .. . ... ... ... : ... .. . ... : ... .. 4 ... : ... .. . ... ... : ... .. . ... ... : ... .. . ... ... : ... .. . ... ...
ROW 5C : ... .. . ... ... ... : ... .. . ... ... ... : ... .. . ... : ... .. 3 ... : ... .. . ... ... : ... .. 1 ... ... : ... .. 1 ... ... : ... .. 1 ... ...
ROW 5D : ... .. . ... ... ... : ... .. . ... ... ... : ... .. . ... : ... .. 6 ... : ... .. . ... ... : ... .. 2 ... V05 : ... .. 2 ... V05 : ... .. A ... ...
ROW 5E : ... .. 1 ... V00 ... : ... .. 1 ... V00 ... : ... .. . ... : ... .. 4 ... : ... .. . ... ... : ... .. 4 ... V07 : ... .. 4 ... V07 : ... .. 8 ... ...
ROW 5F : ... .. 0 ... ... ... : ... .. 0 ... ... ... : ... .. . ... : ... .. 2 ... : ... .. . ... ... : ... .. 6 ... V06 : ... .. 6 ... V06 : ... .. 5 ... ...
ROW 60 : ... .. . ... ... ... : ... .. . ... ... ... : ... .. . ... : ... .. 1 ... : ... .. . ... ... : ... .. . ... ... : ... .. . ... ... : ... .. . ... ...
ROW 61 : ... .. . ... ... ... : ... .. . ... ... ... : ... .. . ... : ... .. . ... : ... .. . ... ... : ... .. . ... ... : ... .. . ... ... : ... .. . ... ...
ROW 62 : ... .. . ... ... ... : ... .. . ... ... ... : ... .. . ... : ... .. 0 ... : ... .. . ... ... : ... .. . ... ... : ... .. . ... ... : ... .. . ... ...
ROW 63 : ... .. . ... ... ... : ... .. . ... ... ... : ... .. . ... : ... .. 1 ... : ... .. . ... ... : ... .. 1 ... ... : ... .. 1 ... ... : ... .. 1 ... ...
ROW 64 : B-4 00 1 P7F V01 ... : B-4 00 1 P81 V01 ... : --- .. . ... : ... .. 6 ... : ... .. . ... ... : ... .. 2 ... V05 : ... .. 2 ... V05 : ... .. A ... ...
ROW 65 : ... .. 4 ... V02 ... : ... .. 4 ... V02 ... : ... .. . ... : ... .. 4 ... : ... .. . ... ... : ... .. 4 ... V07 : ... .. 4 ... V07 : ... .. 8 ... ...
ROW 66 : ... .. 8 ... V01 ... : ... .. 8 ... V01 ... : ... .. . ... : ... .. 2 ... : ... .. . ... ... : ... .. 6 ... V06 : ... .. 6 ... V06 : ... .. 5 ... ...
ROW 67 : ... .. . ... ... ... : ... .. . ... ... ... : ... .. . ... : ... .. 1 ... : ... .. . ... ... : ... .. . ... ... : ... .. . ... ... : ... .. . ... ...
ROW 68 : ... .. . ... ... ... : ... .. . ... ... ... : ... .. . ... : ... .. . ... : ... .. . ... ... : ... .. . ... ... : ... .. . ... ... : ... .. . ... ...
ROW 69 : ... .. 1 ... V00 ... : ... .. 1 ... V00 ... : ... .. . ... : ... .. 0 ... : ... .. . ... ... : ... .. . ... ... : ... .. . ... ... : ... .. . ... ...
ROW 6A : ... .. 0 ... ... ... : ... .. 0 ... ... ... : ... .. . ... : ... .. 1 ... : ... .. . ... ... : ... .. 1 ... ... : ... .. 1 ... ... : ... .. 1 ... ...
ROW 6B : F#4 00 1 P7F V01 ... : F#4 00 1 P81 V01 ... : F-4 00 . ... : ... .. C ... : ... .. . ... ... : D-3 01 2 ... V05 : F#2 01 2 ... V05 : B-2 01 A ... ...
ROW 6C : ... .. 4 ... V02 ... : ... .. 4 ... V02 ... : G-3 00 . ... : ... .. 9 ... : ... .. . ... ... : ... .. 4 ... V07 : ... .. 4 ... V07 : ... .. 8 ... ...
ROW 6D : ... .. 8 ... V01 ... : ... .. 8 ... V01 ... : C-3 00 . ... : ... .. 8 ... : ... .. . ... ... : ... .. 6 ... V06 : ... .. 6 ... V06 : ... .. 5 ... ...
ROW 6E : ... .. . ... ... ... : ... .. . ... ... ... : B-2 00 . ... : ... .. . ... : ... .. . ... ... : ... .. . ... ... : ... .. . ... ... : ... .. . ... ...
ROW 6F : ... .. . ... ... ... : ... .. . ... ... ... : F#2 00 . ... : ... .. 5 ... : ... .. . ... ... : ... .. . ... ... : ... .. . ... ... : ... .. . ... ...
ROW 70 : ... .. . ... ... ... : ... .. . ... ... ... : ... .. . ... : ... .. 4 ... : ... .. . ... ... : ... .. . ... ... : ... .. . ... ... : ... .. . ... ...
ROW 71 : ... .. . ... ... ... : ... .. . ... ... ... : ... .. . ... : ... .. 3 ... : ... .. . ... ... : ... .. . ... ... : ... .. . ... ... : ... .. . ... ...
ROW 72 : F-4 00 1 ... ... ... : F-4 00 1 ... ... ... : ... .. . ... : ... .. 6 ... : ... .. . ... ... : ... .. 1 ... ... : ... .. 1 ... ... : ... .. 1 ... ...
ROW 73 : ... .. 4 ... V02 ... : ... .. 4 ... V02 ... : ... .. . ... : ... .. 5 ... : ... .. . ... ... : ... .. . ... ... : ... .. . ... ... : ... .. . ... ...
ROW 74 : ... .. 8 ... V01 ... : ... .. 8 ... V01 ... : ... .. . ... : ... .. 4 ... : ... .. . ... ... : ... .. . ... ... : ... .. . ... ... : ... .. . ... ...
ROW 75 : ... .. . ... ... ... : ... .. . ... ... ... : ... .. . ... : ... .. 3 ... : ... .. . ... ... : ... .. . ... ... : ... .. . ... ... : ... .. . ... ...
ROW 76 : ... .. . ... ... ... : ... .. . ... ... ... : ... .. . ... : ... .. 1 ... : ... .. . ... ... : ... .. . ... ... : ... .. . ... ... : ... .. . ... ...
ROW 77 : ... .. 1 ... V00 ... : ... .. 1 ... V00 ... : ... .. . ... : ... .. . ... : ... .. . ... ... : ... .. . ... ... : ... .. . ... ... : ... .. . ... ...
ROW 78 : ... .. 0 ... ... ... : ... .. 0 ... ... ... : ... .. . ... : ... .. . ... : ... .. . ... ... : ... .. . ... ... : ... .. . ... ... : ... .. . ... ...
ROW 79 : F#4 00 1 P7F V01 ... : F#4 00 1 P81 V01 ... : --- .. . ... : ... .. 6 ... : ... .. . ... ... : ... .. 2 ... V05 : ... .. 2 ... V05 : ... .. A ... ...
ROW 7A : ... .. 4 ... V02 ... : ... .. 4 ... V02 ... : ... .. . ... : ... .. 5 ... : ... .. . ... ... : ... .. 4 ... V07 : ... .. 4 ... V07 : ... .. 8 ... ...
ROW 7B : ... .. 8 ... V01 ... : ... .. 8 ... V01 ... : ... .. . ... : ... .. 4 ... : ... .. . ... ... : ... .. 6 ... V06 : ... .. 6 ... V06 : ... .. 5 ... ...
ROW 7C : ... .. . ... ... ... : ... .. . ... ... ... : ... .. . ... : ... .. 3 ... : ... .. . ... ... : ... .. . ... ... : ... .. . ... ... : ... .. . ... ...
ROW 7D : ... .. . ... ... ... : ... .. . ... ... ... : ... .. . ... : ... .. 1 ... : ... .. . ... ... : ... .. . ... ... : ... .. . ... ... : ... .. . ... ...
ROW 7E : ... .. 1 ... V00 ... : ... .. 1 ... V00 ... : ... .. . ... : ... .. . ... : ... .. . ... ... : ... .. . ... ... : ... .. . ... ... : ... .. . ... ...
ROW 7F : ... .. 0 ... ... ... : ... .. 0 ... ... ... : ... .. . ... : ... .. . ... : ... .. . ... ... : ... .. 1 ... ... : ... .. 1 ... ... : ... .. 1 ... ...
ROW 80 : G-4 00 1 P7F V01 ... : G-4 00 1 P81 V01 ... : A#4 00 . ... : ... .. C ... : ... .. . ... ... : F#3 01 2 ... V05 : B-2 01 2 ... V05 : D-3 01 A ... ...
ROW 81 : ... .. 4 ... V02 ... : ... .. 4 ... V02 ... : C-4 00 . ... : ... .. 9 ... : ... .. . ... ... : ... .. 4 ... V07 : ... .. 4 ... V07 : ... .. 8 ... ...
ROW 82 : ... .. 8 ... V01 ... : ... .. 8 ... V01 ... : F-3 00 . ... : ... .. 8 ... : ... .. . ... ... : ... .. 6 ... V06 : ... .. 6 ... V06 : ... .. 5 ... ...
ROW 83 : ... .. . ... ... ... : ... .. . ... ... ... : E-3 00 . ... : ... .. . ... : ... .. . ... ... : ... .. . ... ... : ... .. . ... ... : ... .. . ... ...
ROW 84 : ... .. . ... ... ... : ... .. . ... ... ... : B-2 00 . ... : ... .. 5 ... : ... .. . ... ... : ... .. . ... ... : ... .. . ... ... : ... .. . ... ...
ROW 85 : ... .. . ... ... ... : ... .. . ... ... ... : ... .. . ... : ... .. 4 ... : ... .. . ... ... : ... .. . ... ... : ... .. . ... ... : ... .. . ... ...
ROW 86 : ... .. . ... ... ... : ... .. . ... ... ... : ... .. . ... : ... .. 3 ... : ... .. . ... ... : ... .. . ... ... : ... .. . ... ... : ... .. . ... ...
ROW 87 : F#4 00 1 ... ... ... : F#4 00 1 ... ... ... : ... .. . ... : ... .. . ... : ... .. . ... ... : ... .. . ... ... : ... .. . ... ... : ... .. . ... ...
ROW 88 : ... .. 4 ... V02 ... : ... .. 4 ... V02 ... : ... .. . ... : ... .. 2 ... : ... .. . ... ... : ... .. . ... ... : ... .. . ... ... : ... .. . ... ...
ROW 89 : ... .. 8 ... V01 ... : ... .. 8 ... V01 ... : ... .. . ... : ... .. . ... : ... .. . ... ... : ... .. . ... ... : ... .. . ... ... : ... .. . ... ...
ROW 8A : ... .. . ... ... ... : ... .. . ... ... ... : ... .. . ... : ... .. 1 ... : ... .. . ... ... : ... .. . ... ... : ... .. . ... ... : ... .. . ... ...
ROW 8B : ... .. . ... ... ... : ... .. . ... ... ... : ... .. . ... : ... .. . ... : ... .. . ... ... : ... .. 1 ... ... : ... .. 1 ... ... : ... .. 1 ... ...
ROW 8C : ... .. 1 ... V00 ... : ... .. 1 ... V00 ... : ... .. . ... : ... .. . ... : ... .. . ... ... : ... .. . ... ... : ... .. . ... ... : ... .. . ... ...
ROW 8D : ... .. 0 ... ... ... : ... .. 0 ... ... ... : ... .. . ... : ... .. . ... : ... .. . ... ... : ... .. . ... ... : ... .. . ... ... : ... .. . ... ...
ROW 8E : D-4 00 1 P7F V01 ... : D-4 00 1 P81 V01 ... : --- .. . ... : ... .. 7 ... : ... .. . ... ... : ... .. 2 ... V05 : ... .. 2 ... V05 : ... .. A ... ...
ROW 8F : ... .. 4 ... V02 ... : ... .. 4 ... V02 ... : ... .. . ... : ... .. 5 ... : ... .. . ... ... : ... .. 4 ... V07 : ... .. 4 ... V07 : ... .. 8 ... ...
ROW 90 : ... .. 8 ... V01 ... : ... .. 8 ... V01 ... : ... .. . ... : ... .. . ... : ... .. . ... ... : ... .. 6 ... V06 : ... .. 6 ... V06 : ... .. 5 ... ...
ROW 91 : ... .. . ... ... ... : ... .. . ... ... ... : ... .. . ... : ... .. 4 ... : ... .. . ... ... : ... .. . ... ... : ... .. . ... ... : ... .. . ... ...
ROW 92 : ... .. . ... ... ... : ... .. . ... ... ... : ... .. . ... : ... .. 3 ... : ... .. . ... ... : ... .. 1 ... ... : ... .. 1 ... ... : ... .. 1 ... ...
ROW 93 : ... .. 1 ... V00 ... : ... .. 1 ... V00 ... : ... .. . ... : ... .. 2 ... : ... .. . ... ... : ... .. . ... ... : ... .. . ... ... : ... .. . ... ...
ROW 94 : ... .. 0 ... ... ... : ... .. 0 ... ... ... : ... .. . ... : ... .. 1 ... : ... .. . ... ... : ... .. . ... ... : ... .. . ... ... : ... .. . ... ...
ROW 95 : B-3 00 1 P7F V01 ... : B-3 00 1 P81 V01 ... : F-4 00 . ... : ... .. B ... : ... .. . ... ... : F-3 01 2 ... V05 : ... .. 2 ... V05 : C#3 01 A ... ...
ROW 96 : ... .. 4 ... V02 ... : ... .. 4 ... V02 ... : G-3 00 . ... : ... .. 8 ... : ... .. . ... ... : ... .. 4 ... V07 : ... .. 4 ... V07 : ... .. 8 ... ...
ROW 97 : ... .. 8 ... V01 ... : ... .. 8 ... V01 ... : C-3 00 . ... : ... .. B ... : ... .. . ... ... : ... .. 6 ... V06 : ... .. 6 ... V06 : ... .. 5 ... ...
ROW 98 : ... .. . ... ... ... : ... .. . ... ... ... : B-2 00 . ... : ... .. 8 ... : ... .. . ... ... : ... .. . ... ... : ... .. . ... ... : ... .. . ... ...
ROW 99 : ... .. . ... ... ... : ... .. . ... ... ... : F#2 00 . ... : ... .. 6 ... : ... .. . ... ... : ... .. . ... ... : ... .. . ... ... : ... .. . ... ...
ROW 9A : ... .. . ... ... ... : ... .. . ... ... ... : ... .. . ... : ... .. 4 ... : ... .. . ... ... : ... .. . ... ... : ... .. . ... ... : ... .. . ... ...
ROW 9B : ... .. . ... ... ... : ... .. . ... ... ... : ... .. . ... : ... .. 2 ... : ... .. . ... ... : ... .. . ... ... : ... .. . ... ... : ... .. . ... ...
ROW 9C : ... .. . ... ... ... : ... .. . ... ... ... : ... .. . ... : ... .. 6 ... : ... .. . ... ... : F#3 01 2 ... V05 : ... .. 2 ... V05 : D-3 01 A ... ...
ROW 9D : ... .. . ... ... ... : ... .. . ... ... ... : ... .. . ... : ... .. 4 ... : ... .. . ... ... : ... .. 4 ... V07 : ... .. 4 ... V07 : ... .. 8 ... ...
ROW 9E : ... .. . ... ... ... : ... .. . ... ... ... : ... .. . ... : ... .. 2 ... : ... .. . ... ... : ... .. 6 ... V06 : ... .. 6 ... V06 : ... .. 5 ... ...
ROW 9F : ... .. . ... ... ... : ... .. . ... ... ... : ... .. . ... : ... .. 1 ... : ... .. . ... ... : ... .. . ... ... : ... .. . ... ... : ... .. . ... ...
ROW A0 : ... .. . ... ... ... : ... .. . ... ... ... : ... .. . ... : ... .. . ... : ... .. . ... ... : ... .. . ... ... : ... .. . ... ... : ... .. . ... ...
ROW A1 : ... .. . ... ... ... : ... .. . ... ... ... : ... .. . ... : ... .. 0 ... : ... .. . ... ... : ... .. . ... ... : ... .. . ... ... : ... .. . ... ...
ROW A2 : ... .. . ... ... ... : ... .. . ... ... ... : ... .. . ... : ... .. 1 ... : ... .. . ... ... : ... .. . ... ... : ... .. . ... ... : ... .. . ... ...
ROW A3 : D-4 00 1 ... ... ... : D-4 00 1 ... ... ... : --- .. . ... : ... .. 6 ... : ... .. . ... ... : D-3 01 2 ... V05 : F#2 01 2 ... V05 : B-2 01 A ... ...
ROW A4 : ... .. 4 ... V02 ... : ... .. 4 ... V02 ... : ... .. . ... : ... .. 4 ... : ... .. . ... ... : ... .. 4 ... V07 : ... .. 4 ... V07 : ... .. 8 ... ...
ROW A5 : ... .. 8 ... V01 ... : ... .. 8 ... V01 ... : ... .. . ... : ... .. 2 ... : ... .. . ... ... : ... .. 6 ... V06 : ... .. 6 ... V06 : ... .. 5 ... ...
ROW A6 : ... .. . ... ... ... : ... .. . ... ... ... : ... .. . ... : ... .. 1 ... : ... .. . ... ... : ... .. . ... ... : ... .. . ... ... : ... .. . ... ...
ROW A7 : ... .. . ... ... ... : ... .. . ... ... ... : ... .. . ... : ... .. . ... : ... .. . ... ... : ... .. . ... ... : ... .. . ... ... : ... .. . ... ...
ROW A8 : ... .. 1 ... V00 ... : ... .. 1 ... V00 ... : ... .. . ... : ... .. 0 ... : ... .. . ... ... : ... .. . ... ... : ... .. . ... ... : ... .. . ... ...
ROW A9 : ... .. 0 ... ... ... : ... .. 0 ... ... ... : ... .. . ... : ... .. 1 ... : ... .. . ... ... : ... .. . ... ... : ... .. . ... ... : ... .. . ... ...
ROW AA : C#4 00 1 P7F V01 ... : C#4 00 1 P81 V01 ... : C-4 00 . ... : ... .. C ... : ... .. . ... ... : E-3 01 2 ... V05 : A#2 01 2 ... V05 : C#3 01 A ... ...
ROW AB : ... .. 4 ... V02 ... : ... .. 4 ... V02 ... : D-3 00 . ... : ... .. 9 ... : ... .. . ... ... : ... .. 4 ... V07 : ... .. 4 ... V07 : ... .. 8 ... ...
ROW AC : ... .. 8 ... V01 ... : ... .. 8 ... V01 ... : G-2 00 . ... : ... .. 8 ... : ... .. . ... ... : ... .. 6 ... V06 : ... .. 6 ... V06 : ... .. 5 ... ...
ROW AD : ... .. . ... ... ... : ... .. . ... ... ... : F#2 00 . ... : ... .. . ... : ... .. . ... ... : ... .. . ... ... : ... .. . ... ... : ... .. . ... ...
ROW AE : ... .. . ... ... ... : ... .. . ... ... ... : C#2 00 . ... : ... .. 5 ... : ... .. . ... ... : ... .. . ... ... : ... .. . ... ... : ... .. . ... ...
ROW AF : ... .. . ... ... ... : ... .. . ... ... ... : ... .. . ... : ... .. 4 ... : ... .. . ... ... : ... .. . ... ... : ... .. . ... ... : ... .. . ... ...
ROW B0 : ... .. . ... ... ... : ... .. . ... ... ... : ... .. . ... : ... .. 3 ... : ... .. . ... ... : ... .. 1 ... ... : ... .. 1 ... ... : ... .. 1 ... ...
ROW B1 : ... .. . ... ... ... : ... .. . ... ... ... : ... .. . ... : ... .. 6 ... : ... .. . ... ... : ... .. 2 ... V05 : ... .. 2 ... V05 : ... .. A ... ...
ROW B2 : ... .. . ... ... ... : ... .. . ... ... ... : ... .. . ... : ... .. 4 ... : ... .. . ... ... : ... .. 4 ... V07 : ... .. 4 ... V07 : ... .. 8 ... ...
ROW B3 : ... .. . ... ... ... : ... .. . ... ... ... : ... .. . ... : ... .. 2 ... : ... .. . ... ... : ... .. 6 ... V06 : ... .. 6 ... V06 : ... .. 5 ... ...
ROW B4 : ... .. . ... ... ... : ... .. . ... ... ... : ... .. . ... : ... .. 1 ... : ... .. . ... ... : ... .. . ... ... : ... .. . ... ... : ... .. . ... ...
ROW B5 : ... .. . ... ... ... : ... .. . ... ... ... : ... .. . ... : ... .. . ... : ... .. . ... ... : ... .. 1 ... ... : ... .. 1 ... ... : ... .. 1 ... ...
ROW B6 : ... .. 1 ... V00 ... : ... .. 1 ... V00 ... : ... .. . ... : ... .. 0 ... : ... .. . ... ... : ... .. . ... ... : ... .. . ... ... : ... .. . ... ...
ROW B7 : ... .. 0 ... ... ... : ... .. 0 ... ... ... : ... .. . ... : ... .. 1 ... : ... .. . ... ... : ... .. . ... ... : ... .. . ... ... : ... .. . ... ...
ROW B8 : E-4 00 1 P7F V01 ... : E-4 00 1 P81 V01 ... : --- .. . ... : ... .. 6 ... : ... .. . ... ... : ... .. 2 ... V05 : ... .. 2 ... V05 : ... .. A ... ...
ROW B9 : ... .. 4 ... V02 ... : ... .. 4 ... V02 ... : ... .. . ... : ... .. 4 ... : ... .. . ... ... : ... .. 4 ... V07 : ... .. 4 ... V07 : ... .. 8 ... ...
ROW BA : ... .. 8 ... V01 ... : ... .. 8 ... V01 ... : ... .. . ... : ... .. 2 ... : ... .. . ... ... : ... .. 6 ... V06 : ... .. 6 ... V06 : ... .. 5 ... ...
ROW BB : ... .. . ... ... ... : ... .. . ... ... ... : ... .. . ... : ... .. 1 ... : ... .. . ... ... : ... .. . ... ... : ... .. . ... ... : ... .. . ... ...
ROW BC : ... .. . ... ... ... : ... .. . ... ... ... : ... .. . ... : ... .. . ... : ... .. . ... ... : ... .. 1 ... ... : ... .. 1 ... ... : ... .. 1 ... ...
ROW BD : ... .. . ... ... ... : ... .. . ... ... ... : ... .. . ... : ... .. 0 ... : ... .. . ... ... : ... .. . ... ... : ... .. . ... ... : ... .. . ... ...
ROW BE : ... .. . ... ... ... : ... .. . ... ... ... : ... .. . ... : ... .. 1 ... : ... .. . ... ... : ... .. . ... ... : ... .. . ... ... : ... .. . ... ...
ROW BF : D-4 00 1 ... ... ... : D-4 00 1 ... ... ... : F-4 00 . ... : ... .. C ... : ... .. . ... ... : C#3 01 2 ... V05 : F#2 01 2 ... V05 : E-3 01 A ... ...
ROW C0 : ... .. 4 ... V02 ... : ... .. 4 ... V02 ... : G-3 00 . ... : ... .. 9 ... : ... .. . ... ... : ... .. 4 ... V07 : ... .. 4 ... V07 : ... .. 8 ... ...
ROW C1 : ... .. 8 ... V01 ... : ... .. 8 ... V01 ... : C-3 00 . ... : ... .. 8 ... : ... .. . ... ... : ... .. 6 ... V06 : ... .. 6 ... V06 : ... .. 5 ... ...
ROW C2 : ... .. . ... ... ... : ... .. . ... ... ... : B-2 00 . ... : ... .. . ... : ... .. . ... ... : ... .. . ... ... : ... .. . ... ... : ... .. . ... ...
ROW C3 : ... .. . ... ... ... : ... .. . ... ... ... : F#2 00 . ... : ... .. 5 ... : ... .. . ... ... : ... .. . ... ... : ... .. . ... ... : ... .. . ... ...
ROW C4 : ... .. . ... ... ... : ... .. . ... ... ... : ... .. . ... : ... .. 4 ... : ... .. . ... ... : ... .. . ... ... : ... .. . ... ... : ... .. . ... ...
ROW C5 : ... .. . ... ... ... : ... .. . ... ... ... : ... .. . ... : ... .. 3 ... : ... .. . ... ... : ... .. . ... ... : ... .. . ... ... : ... .. . ... ...
ROW C6 : ... .. . ... ... ... : ... .. . ... ... ... : ... .. . ... : ... .. . ... : ... .. . ... ... : ... .. . ... ... : ... .. . ... ... : ... .. . ... ...
ROW C7 : ... .. . ... ... ... : ... .. . ... ... ... : ... .. . ... : ... .. 2 ... : ... .. . ... ... : ... .. . ... ... : ... .. . ... ... : ... .. . ... ...
ROW C8 : ... .. . ... ... ... : ... .. . ... ... ... : ... .. . ... : ... .. . ... : ... .. . ... ... : ... .. . ... ... : ... .. . ... ... : ... .. . ... ...
ROW C9 : ... .. . ... ... ... : ... .. . ... ... ... : ... .. . ... : ... .. 1 ... : ... .. . ... ... : ... .. . ... ... : ... .. . ... ... : ... .. . ... ...
ROW CA : ... .. . ... ... ... : ... .. . ... ... ... : ... .. . ... : ... .. . ... : ... .. . ... ... : ... .. 1 ... ... : ... .. 1 ... ... : ... .. 1 ... ...
ROW CB : ... .. 1 ... V00 ... : ... .. 1 ... V00 ... : ... .. . ... : ... .. . ... : ... .. . ... ... : ... .. . ... ... : ... .. . ... ... : ... .. . ... ...
ROW CC : ... .. 0 ... ... ... : ... .. 0 ... ... ... : ... .. . ... : ... .. . ... : ... .. . ... ... : ... .. . ... ... : ... .. . ... ... : ... .. . ... ...
ROW CD : C#4 00 1 P7F V01 ... : C#4 00 1 P81 V01 ... : --- .. . ... : ... .. 6 ... : ... .. . ... ... : ... .. 2 ... V05 : ... .. 2 ... V05 : ... .. A ... ...
ROW CE : ... .. 4 ... V02 ... : ... .. 4 ... V02 ... : ... .. . ... : ... .. 5 ... : ... .. . ... ... : ... .. 4 ... V07 : ... .. 4 ... V07 : ... .. 8 ... ...
ROW CF : ... .. 8 ... V01 ... : ... .. 8 ... V01 ... : ... .. . ... : ... .. 4 ... : ... .. . ... ... : ... .. 6 ... V06 : ... .. 6 ... V06 : ... .. 5 ... ...
ROW D0 : ... .. . ... ... ... : ... .. . ... ... ... : ... .. . ... : ... .. 3 ... : ... .. . ... ... : ... .. . ... ... : ... .. . ... ... : ... .. . ... ...
ROW D1 : ... .. . ... ... ... : ... .. . ... ... ... : ... .. . ... : ... .. 1 ... : ... .. . ... ... : ... .. 1 ... ... : ... .. 1 ... ... : ... .. 1 ... ...
ROW D2 : ... .. 1 ... V00 ... : ... .. 1 ... V00 ... : ... .. . ... : ... .. . ... : ... .. . ... ... : ... .. . ... ... : ... .. . ... ... : ... .. . ... ...
ROW D3 : ... .. 0 ... ... ... : ... .. 0 ... ... ... : ... .. . ... : ... .. . ... : ... .. . ... ... : ... .. . ... ... : ... .. . ... ... : ... .. . ... ...
ROW D4 : B-3 00 2 P7F V01 ... : B-3 00 2 P81 V01 ... : A#3 00 . ... : ... .. C ... : ... .. . ... ... : F#2 01 2 ... V05 : B-2 01 2 ... V05 : D-3 01 A ... ...
ROW D5 : ... .. 6 ... V02 ... : ... .. 6 ... V02 ... : C-3 00 . ... : ... .. 9 ... : ... .. . ... ... : ... .. 4 ... V07 : ... .. 4 ... V07 : ... .. 8 ... ...
ROW D6 : ... .. 8 ... V01 ... : ... .. 8 ... V01 ... : F-2 00 . ... : ... .. 8 ... : ... .. . ... ... : ... .. 6 ... V06 : ... .. 6 ... V06 : ... .. 5 ... ...
ROW D7 : ... .. . ... ... ... : ... .. . ... ... ... : E-2 00 . ... : ... .. . ... : ... .. . ... ... : ... .. . ... ... : ... .. . ... ... : ... .. . ... ...
ROW D8 : ... .. 6 ... ... ... : ... .. 6 ... ... ... : B-1 00 . ... : ... .. 5 ... : ... .. . ... ... : ... .. . ... ... : ... .. . ... ... : ... .. . ... ...
ROW D9 : ... .. . ... ... ... : ... .. . ... ... ... : ... .. . ... : ... .. 4 ... : ... .. . ... ... : ... .. . ... ... : ... .. . ... ... : ... .. . ... ...
ROW DA : ... .. 4 ... ... ... : ... .. 4 ... ... ... : ... .. . ... : ... .. 3 ... : ... .. . ... ... : ... .. . ... ... : ... .. . ... ... : ... .. . ... ...
ROW DB : ... .. 2 ... ... ... : ... .. 2 ... ... ... : ... .. . ... : ... .. . ... : ... .. . ... ... : ... .. . ... ... : ... .. . ... ... : ... .. . ... ...
ROW DC : ... .. . ... ... ... : ... .. . ... ... ... : ... .. . ... : ... .. 2 ... : ... .. . ... ... : ... .. . ... ... : ... .. . ... ... : ... .. . ... ...
ROW DD : ... .. 3 ... ... ... : ... .. 3 ... ... ... : ... .. . ... : ... .. . ... : ... .. . ... ... : ... .. . ... ... : ... .. . ... ... : ... .. . ... ...
ROW DE : ... .. . ... ... ... : ... .. . ... ... ... : ... .. . ... : ... .. 1 ... : ... .. . ... ... : ... .. . ... ... : ... .. . ... ... : ... .. . ... ...
ROW DF : ... .. 4 ... ... ... : ... .. 4 ... ... ... : ... .. . ... : ... .. . ... : ... .. . ... ... : ... .. . ... ... : ... .. . ... ... : ... .. . ... ...
ROW E0 : ... .. . ... ... ... : ... .. . ... ... ... : ... .. . ... : ... .. . ... : ... .. . ... ... : ... .. . ... ... : ... .. . ... ... : ... .. . ... ...
ROW E1 : ... .. 5 ... ... ... : ... .. 5 ... ... ... : ... .. . ... : ... .. . ... : ... .. . ... ... : ... .. . ... ... : ... .. . ... ... : ... .. . ... ...
ROW E2 : ... .. 6 ... ... ... : ... .. 6 ... ... ... : --- .. . ... : B-# 00 6 ... : ... .. . ... ... : ... .. 1 ... ... : ... .. 1 ... ... : ... .. 1 ... ...
ROW E3 : ... .. . ... ... ... : ... .. . ... ... ... : ... .. . ... : ... .. 4 ... : ... .. . ... ... : ... .. . ... ... : ... .. . ... ... : ... .. . ... ...
ROW E4 : ... .. . ... ... ... : ... .. . ... ... ... : ... .. . ... : ... .. 2 ... : ... .. . ... ... : ... .. . ... ... : ... .. . ... ... : ... .. . ... ...
ROW E5 : ... .. . ... ... ... : ... .. . ... ... ... : ... .. . ... : ... .. 1 ... : ... .. . ... ... : ... .. . ... ... : ... .. . ... ... : ... .. . ... ...
ROW E6 : ... .. 8 ... ... ... : ... .. 8 ... ... ... : ... .. . ... : ... .. 6 ... : ... .. . ... ... : ... .. . ... ... : ... .. . ... ... : ... .. . ... ...
ROW E7 : ... .. 1 ... V00 ... : ... .. 1 ... V00 ... : ... .. . ... : ... .. 4 ... : ... .. . ... ... : ... .. . ... ... : ... .. . ... ... : ... .. . ... ...
ROW E8 : ... .. 0 ... ... ... : ... .. 0 ... ... ... : ... .. . ... : ... .. 2 ... : ... .. . ... ... : ... .. . ... ... : ... .. . ... ... : ... .. . ... ...
ROW E9 : B-3 00 2 P7F V01 ... : B-3 00 2 P81 V01 ... : ... .. . ... : ... .. A ... : ... .. . ... ... : --- .. . P7E ... : --- .. . P84 ... : --- .. . P85 ...
ROW EA : ... .. 6 ... V02 ... : ... .. 6 ... V02 ... : ... .. . ... : ... .. . ... : ... .. . ... ... : ... .. . ... ... : ... .. . ... ... : ... .. . ... ...
ROW EB : ... .. 8 ... V01 ... : ... .. 8 ... V01 ... : ... .. . ... : ... .. 9 ... : ... .. . ... ... : ... .. . ... ... : ... .. . ... ... : ... .. . ... ...
ROW EC : ... .. . ... ... ... : ... .. . ... ... ... : ... .. . ... : ... .. . ... : ... .. . ... ... : ... .. . ... ... : ... .. . ... ... : ... .. . ... ...
ROW ED : ... .. 7 ... ... ... : ... .. 7 ... ... ... : ... .. . ... : ... .. 8 ... : ... .. . ... ... : ... .. . ... ... : ... .. . ... ... : ... .. . ... ...
ROW EE : ... .. . ... ... ... : ... .. . ... ... ... : ... .. . ... : ... .. . ... : ... .. . ... ... : ... .. . ... ... : ... .. . ... ... : ... .. . ... ...
ROW EF : ... .. 6 ... ... ... : ... .. 6 ... ... ... : ... .. . ... : ... .. . ... : ... .. . ... ... : ... .. . ... ... : ... .. . ... ... : ... .. . ... ...
ROW F0 : ... .. 5 ... ... ... : ... .. 5 ... ... ... : ... .. . ... : ... .. 7 ... : ... .. . ... ... : ... .. . ... ... : ... .. . ... ... : ... .. . ... ...
ROW F1 : ... .. . ... ... ... : ... .. . ... ... ... : ... .. . ... : ... .. . ... : ... .. . ... ... : ... .. . ... ... : ... .. . ... ... : ... .. . ... ...
ROW F2 : ... .. 6 ... ... ... : ... .. 6 ... ... ... : ... .. . ... : ... .. 6 ... : ... .. . ... ... : ... .. . ... ... : ... .. . ... ... : ... .. . ... ...
ROW F3 : ... .. . ... ... ... : ... .. . ... ... ... : ... .. . ... : ... .. . ... : ... .. . ... ... : ... .. . ... ... : ... .. . ... ... : ... .. . ... ...
ROW F4 : ... .. 8 ... ... ... : ... .. 8 ... ... ... : ... .. . ... : ... .. . ... : ... .. . ... ... : ... .. . ... ... : ... .. . ... ... : ... .. . ... ...
ROW F5 : ... .. . ... ... ... : ... .. . ... ... ... : ... .. . ... : ... .. . ... : ... .. . ... ... : ... .. . ... ... : ... .. . ... ... : ... .. . ... ...
ROW F6 : ... .. A ... ... ... : ... .. A ... ... ... : ... .. . ... : ... .. 5 ... : ... .. . ... ... : ... .. . ... ... : ... .. . ... ... : ... .. . ... ...
ROW F7 : ... .. . ... ... ... : ... .. . ... ... ... : ... .. . ... : ... .. 4 ... : ... .. . ... ... : ... .. . ... ... : ... .. . ... ... : ... .. . ... ...
ROW F8 : ... .. . ... ... ... : ... .. . ... ... ... : ... .. . ... : ... .. . ... : ... .. . ... ... : ... .. . ... ... : ... .. . ... ... : ... .. . ... ...
ROW F9 : ... .. . ... ... ... : ... .. . ... ... ... : ... .. . ... : ... .. . ... : ... .. . ... ... : ... .. . ... ... : ... .. . ... ... : ... .. . ... ...
ROW FA : ... .. . ... ... ... : ... .. . ... ... ... : ... .. . ... : ... .. . ... : ... .. . ... ... : ... .. . ... ... : ... .. . ... ... : ... .. . ... ...
ROW FB : ... .. . ... ... ... : ... .. . ... ... ... : ... .. . ... : ... .. 3 ... : ... .. . ... ... : ... .. . ... ... : ... .. . ... ... : ... .. . ... ...
ROW FC : ... .. 2 ... V00 ... : ... .. 2 ... V00 ... : ... .. . ... : ... .. . ... : ... .. . ... ... : ... .. . ... ... : ... .. . ... ... : ... .. . ... ...
ROW FD : ... .. 0 ... ... ... : ... .. 0 ... ... ... : ... .. . ... : ... .. . ... : ... .. . ... ... : ... .. . ... ... : ... .. . ... ... : ... .. . ... ...
ROW FE : G-4 00 1 P7F V01 ... : G-4 00 1 P81 V01 ... : D#5 00 . ... : D-# 00 C ... : ... .. . ... ... : G-3 01 2 P81 V05 : E-3 01 2 P7F V05 : C#4 01 A P81 ...
ROW FF : ... .. 4 ... V02 ... : ... .. 4 ... V02 ... : F-4 00 . ... : ... .. 9 ... : ... .. . ... ... : ... .. 4 ... V07 : ... .. 4 ... V07 : ... .. 8 ... ...

PATTERN 03
ROW 00 : ... .. 8 ... V01 ... : ... .. 8 ... V01 ... : A#3 00 . ... : ... .. 8 ... : ... .. . ... ... : ... .. 6 ... V06 : ... .. 6 ... V06 : ... .. 5 ... ...
ROW 01 : ... .. . ... ... ... : ... .. . ... ... ... : A-3 00 . ... : ... .. . ... : ... .. . ... ... : ... .. . ... ... : ... .. . ... ... : ... .. . ... ...
ROW 02 : ... .. . ... ... ... : ... .. . ... ... ... : E-3 00 . ... : ... .. 5 ... : ... .. . ... ... : ... .. . ... ... : ... .. . ... ... : ... .. . ... ...
ROW 03 : ... .. . ... ... ... : ... .. . ... ... ... : ... .. . ... : ... .. 4 ... : ... .. . ... ... : ... .. . ... ... : ... .. . ... ... : ... .. . ... ...
ROW 04 : ... .. . ... ... ... : ... .. . ... ... ... : ... .. . ... : ... .. 3 ... : ... .. . ... ... : ... .. . ... ... : ... .. . ... ... : ... .. . ... ...
ROW 05 : A-4 00 1 ... ... ... : A-4 00 1 ... ... ... : ... .. . ... : ... .. 6 ... : ... .. . ... ... : ... .. 2 ... V05 : ... .. 2 ... V05 : B-3 01 A ... ...
ROW 06 : ... .. 4 ... V02 ... : ... .. 4 ... V02 ... : ... .. . ... : ... .. 4 ... : ... .. . ... ... : ... .. 4 ... V07 : ... .. 4 ... V07 : ... .. 8 ... ...
ROW 07 : ... .. 8 ... V01 ... : ... .. 8 ... V01 ... : ... .. . ... : ... .. 2 ... : ... .. . ... ... : ... .. 6 ... V06 : ... .. 6 ... V06 : ... .. 5 ... ...
ROW 08 : ... .. . ... ... ... : ... .. . ... ... ... : ... .. . ... : ... .. 1 ... : ... .. . ... ... : ... .. . ... ... : ... .. . ... ... : ... .. . ... ...
ROW 09 : ... .. . ... ... ... : ... .. . ... ... ... : ... .. . ... : ... .. . ... : ... .. . ... ... : ... .. 1 ... ... : ... .. 1 ... ... : ... .. 1 ... ...
ROW 0A : ... .. 1 ... V00 ... : ... .. 1 ... V00 ... : ... .. . ... : ... .. 0 ... : ... .. . ... ... : ... .. . ... ... : ... .. . ... ... : ... .. . ... ...
ROW 0B : ... .. 0 ... ... ... : ... .. 0 ... ... ... : ... .. . ... : ... .. 1 ... : ... .. . ... ... : ... .. . ... ... : ... .. . ... ... : ... .. . ... ...
ROW 0C : G-4 00 1 P7F V01 ... : G-4 00 1 P81 V01 ... : --- .. . ... : ... .. 6 ... : ... .. . ... ... : ... .. 2 ... V05 : ... .. 2 ... V05 : G-3 01 A ... ...
ROW 0D : ... .. 4 ... V02 ... : ... .. 4 ... V02 ... : ... .. . ... : ... .. 4 ... : ... .. . ... ... : ... .. 4 ... V07 : ... .. 4 ... V07 : ... .. 8 ... ...
ROW 0E : ... .. 8 ... V01 ... : ... .. 8 ... V01 ... : ... .. . ... : ... .. 2 ... : ... .. . ... ... : ... .. 6 ... V06 : ... .. 6 ... V06 : ... .. 5 ... ...
ROW 0F : ... .. . ... ... ... : ... .. . ... ... ... : ... .. . ... : ... .. 1 ... : ... .. . ... ... : ... .. . ... ... : ... .. . ... ... : ... .. . ... ...
ROW 10 : ... .. . ... ... ... : ... .. . ... ... ... : ... .. . ... : ... .. . ... : ... .. . ... ... : ... .. 1 ... ... : ... .. 1 ... ... : ... .. 1 ... ...
ROW 11 : ... .. 1 ... V00 ... : ... .. 1 ... V00 ... : ... .. . ... : ... .. 0 ... : ... .. . ... ... : ... .. . ... ... : ... .. . ... ... : ... .. . ... ...
ROW 12 : ... .. 0 ... ... ... : ... .. 0 ... ... ... : ... .. . ... : ... .. 1 ... : ... .. . ... ... : ... .. . ... ... : ... .. . ... ... : ... .. . ... ...
ROW 13 : F#4 00 1 P7F V01 ... : F#4 00 1 P81 V01 ... : A#4 00 . ... : ... .. C ... : ... .. . ... ... : E-3 01 2 ... V05 : C#3 01 2 ... V05 : C#4 01 A ... ...
ROW 14 : ... .. 4 ... V02 ... : ... .. 4 ... V02 ... : C-4 00 . ... : ... .. 9 ... : ... .. . ... ... : ... .. 4 ... V07 : ... .. 4 ... V07 : ... .. 8 ... ...
ROW 15 : ... .. 8 ... V01 ... : ... .. 8 ... V01 ... : F-3 00 . ... : ... .. 8 ... : ... .. . ... ... : ... .. 6 ... V06 : ... .. 6 ... V06 : ... .. 5 ... ...
ROW 16 : ... .. . ... ... ... : ... .. . ... ... ... : E-3 00 . ... : ... .. . ... : ... .. . ... ... : ... .. . ... ... : ... .. . ... ... : ... .. . ... ...
ROW 17 : ... .. . ... ... ... : ... .. . ... ... ... : B-2 00 . ... : ... .. 5 ... : ... .. . ... ... : ... .. . ... ... : ... .. . ... ... : ... .. . ... ...
ROW 18 : ... .. . ... ... ... : ... .. . ... ... ... : ... .. . ... : ... .. 4 ... : ... .. . ... ... : ... .. . ... ... : ... .. . ... ... : ... .. . ... ...
ROW 19 : ... .. . ... ... ... : ... .. . ... ... ... : ... .. . ... : ... .. 3 ... : ... .. . ... ... : ... .. . ... ... : ... .. . ... ... : ... .. . ... ...
ROW 1A : E-4 00 1 ... ... ... : E-4 00 1 ... ... ... : ... .. . ... : ... .. . ... : ... .. . ... ... : ... .. 2 ... V05 : ... .. 2 ... V05 : B-3 01 A ... ...
ROW 1B : ... .. 4 ... V02 ... : ... .. 4 ... V02 ... : ... .. . ... : ... .. 2 ... : ... .. . ... ... : ... .. 4 ... V07 : ... .. 4 ... V07 : ... .. 8 ... ...
ROW 1C : ... .. 8 ... V01 ... : ... .. 8 ... V01 ... : ... .. . ... : ... .. . ... : ... .. . ... ... : ... .. 6 ... V06 : ... .. 6 ... V06 : ... .. 5 ... ...
ROW 1D : ... .. . ... ... ... : ... .. . ... ... ... : ... .. . ... : ... .. 1 ... : ... .. . ... ... : ... .. . ... ... : ... .. . ... ... : ... .. . ... ...
ROW 1E : ... .. . ... ... ... : ... .. . ... ... ... : ... .. . ... : ... .. . ... : ... .. . ... ... : ... .. 1 ... ... : ... .. 1 ... ... : ... .. 1 ... ...
ROW 1F : ... .. 1 ... V00 ... : ... .. 1 ... V00 ... : ... .. . ... : ... .. . ... : ... .. . ... ... : ... .. . ... ... : ... .. . ... ... : ... .. . ... ...
ROW 20 : ... .. 0 ... ... ... : ... .. 0 ... ... ... : ... .. . ... : ... .. . ... : ... .. . ... ... : ... .. . ... ... : ... .. . ... ... : ... .. . ... ...
ROW 21 : F#4 00 1 P7F V01 ... : F#4 00 1 P81 V01 ... : --- .. . ... : ... .. 6 ... : ... .. . ... ... : ... .. 2 ... V05 : ... .. 2 ... V05 : G-3 01 A ... ...
ROW 22 : ... .. 4 ... V02 ... : ... .. 4 ... V02 ... : ... .. . ... : ... .. 5 ... : ... .. . ... ... : ... .. 4 ... V07 : ... .. 4 ... V07 : ... .. 8 ... ...
ROW 23 : ... .. 8 ... V01 ... : ... .. 8 ... V01 ... : ... .. . ... : ... .. 4 ... : ... .. . ... ... : ... .. 6 ... V06 : ... .. 6 ... V06 : ... .. 5 ... ...
ROW 24 : ... .. . ... ... ... : ... .. . ... ... ... : ... .. . ... : ... .. 3 ... : ... .. . ... ... : ... .. . ... ... : ... .. . ... ... : ... .. . ... ...
ROW 25 : ... .. . ... ... ... : ... .. . ... ... ... : ... .. . ... : ... .. 1 ... : ... .. . ... ... : ... .. 1 ... ... : ... .. 1 ... ... : ... .. 1 ... ...
ROW 26 : ... .. 1 ... V00 ... : ... .. 1 ... V00 ... : ... .. . ... : ... .. . ... : ... .. . ... ... : ... .. . ... ... : ... .. . ... ... : ... .. . ... ...
ROW 27 : ... .. 0 ... ... ... : ... .. 0 ... ... ... : ... .. . ... : ... .. . ... : ... .. . ... ... : ... .. . ... ... : ... .. . ... ... : ... .. . ... ...
ROW 28 : G-4 00 1 P7F V01 ... : G-4 00 1 P81 V01 ... : D#5 00 . ... : ... .. C ... : ... .. . ... ... : G-3 01 2 ... V05 : E-3 01 2 ... V05 : C#4 01 A ... ...
ROW 29 : ... .. 4 ... V02 ... : ... .. 4 ... V02 ... : F-4 00 . ... : ... .. 9 ... : ... .. . ... ... : ... .. 4 ... V07 : ... .. 4 ... V07 : ... .. 8 ... ...
ROW 2A : ... .. 8 ... V01 ... : ... .. 8 ... V01 ... : A#3 00 . ... : ... .. 8 ... : ... .. . ... ... : ... .. 6 ... V06 : ... .. 6 ... V06 : ... .. 5 ... ...
ROW 2B : ... .. . ... ... ... : ... .. . ... ... ... : A-3 00 . ... : ... .. . ... : ... .. . ... ... : ... .. . ... ... : ... .. . ... ... : ... .. . ... ...
ROW 2C : ... .. . ... ... ... : ... .. . ... ... ... : E-3 00 . ... : ... .. 5 ... : ... .. . ... ... : ... .. . ... ... : ... .. . ... ... : ... .. . ... ...
ROW 2D : ... .. . ... ... ... : ... .. . ... ... ... : ... .. . ... : ... .. 4 ... : ... .. . ... ... : ... .. . ... ... : ... .. . ... ... : ... .. . ... ...
ROW 2E : ... .. . ... ... ... : ... .. . ... ... ... : ... .. . ... : ... .. 3 ... : ... .. . ... ... : ... .. . ... ... : ... .. . ... ... : ... .. . ... ...
ROW 2F : ... .. . ... ... ... : ... .. . ... ... ... : ... .. . ... : ... .. . ... : ... .. . ... ... : ... .. 2 ... V05 : ... .. 2 ... V05 : B-3 01 A ... ...
ROW 30 : ... .. . ... ... ... : ... .. . ... ... ... : ... .. . ... : ... .. 2 ... : ... .. . ... ... : ... .. 4 ... V07 : ... .. 4 ... V07 : ... .. 8 ... ...
ROW 31 : ... .. . ... ... ... : ... .. . ... ... ... : ... .. . ... : ... .. . ... : ... .. . ... ... : ... .. 6 ... V06 : ... .. 6 ... V06 : ... .. 5 ... ...
ROW 32 : ... .. . ... ... ... : ... .. . ... ... ... : ... .. . ... : ... .. 1 ... : ... .. . ... ... : ... .. . ... ... : ... .. . ... ... : ... .. . ... ...
ROW 33 : ... .. . ... ... ... : ... .. . ... ... ... : ... .. . ... : ... .. . ... : ... .. . ... ... : ... .. 1 ... ... : ... .. 1 ... ... : ... .. 1 ... ...
ROW 34 : ... .. 1 ... V00 ... : ... .. 1 ... V00 ... : ... .. . ... : ... .. . ... : ... .. . ... ... : ... .. . ... ... : ... .. . ... ... : ... .. . ... ...
ROW 35 : ... .. 0 ... ... ... : ... .. 0 ... ... ... : ... .. . ... : ... .. . ... : ... .. . ... ... : ... .. . ... ... : ... .. . ... ... : ... .. . ... ...
ROW 36 : E-4 00 1 P7F V01 ... : E-4 00 1 P81 V01 ... : --- .. . ... : ... .. 7 ... : ... .. . ... ... : ... .. 2 ... V05 : ... .. 2 ... V05 : G-3 01 A ... ...
ROW 37 : ... .. 4 ... V02 ... : ... .. 4 ... V02 ... : ... .. . ... : ... .. 5 ... : ... .. . ... ... : ... .. 4 ... V07 : ... .. 4 ... V07 : ... .. 8 ... ...
ROW 38 : ... .. 8 ... V01 ... : ... .. 8 ... V01 ... : ... .. . ... : ... .. . ... : ... .. . ... ... : ... .. 6 ... V06 : ... .. 6 ... V06 : ... .. 5 ... ...
ROW 39 : ... .. . ... ... ... : ... .. . ... ... ... : ... .. . ... : ... .. 4 ... : ... .. . ... ... : ... .. . ... ... : ... .. . ... ... : ... .. . ... ...
ROW 3A : ... .. . ... ... ... : ... .. . ... ... ... : ... .. . ... : ... .. 3 ... : ... .. . ... ... : ... .. 1 ... ... : ... .. 1 ... ... : ... .. 1 ... ...
ROW 3B : ... .. 1 ... V00 ... : ... .. 1 ... V00 ... : ... .. . ... : ... .. 2 ... : ... .. . ... ... : ... .. . ... ... : ... .. . ... ... : ... .. . ... ...
ROW 3C : ... .. 0 ... ... ... : ... .. 0 ... ... ... : ... .. . ... : ... .. 1 ... : ... .. . ... ... : ... .. . ... ... : ... .. . ... ... : ... .. . ... ...
ROW 3D : E-4 00 1 P7F V01 ... : E-4 00 1 P81 V01 ... : C-5 00 . ... : ... .. B ... : ... .. . ... ... : E-3 01 2 ... V05 : C#3 01 2 ... V05 : C#4 01 A ... ...
ROW 3E : ... .. 4 ... V02 ... : ... .. 4 ... V02 ... : D-4 00 . ... : ... .. 8 ... : ... .. . ... ... : ... .. 4 ... V07 : ... .. 4 ... V07 : ... .. 8 ... ...
ROW 3F : ... .. 8 ... V01 ... : ... .. 8 ... V01 ... : G-3 00 . ... : ... .. B ... : ... .. . ... ... : ... .. 6 ... V06 : ... .. 6 ... V06 : ... .. 5 ... ...
ROW 40 : ... .. . ... ... ... : ... .. . ... ... ... : F#3 00 . ... : ... .. 8 ... : ... .. . ... ... : ... .. . ... ... : ... .. . ... ... : ... .. . ... ...
ROW 41 : ... .. . ... ... ... : ... .. . ... ... ... : C#3 00 . ... : ... .. 6 ... : ... .. . ... ... : ... .. . ... ... : ... .. . ... ... : ... .. . ... ...
ROW 42 : ... .. . ... ... ... : ... .. . ... ... ... : ... .. . ... : ... .. 4 ... : ... .. . ... ... : ... .. . ... ... : ... .. . ... ... : ... .. . ... ...
ROW 43 : ... .. . ... ... ... : ... .. . ... ... ... : ... .. . ... : ... .. 2 ... : ... .. . ... ... : ... .. . ... ... : ... .. . ... ... : ... .. . ... ...
ROW 44 : F#4 00 1 ... ... ... : F#4 00 1 ... ... ... : ... .. . ... : ... .. 1 ... : ... .. . ... ... : ... .. . ... ... : ... .. . ... ... : ... .. . ... ...
ROW 45 : ... .. 4 ... V02 ... : ... .. 4 ... V02 ... : ... .. . ... : ... .. . ... : ... .. . ... ... : ... .. . ... ... : ... .. . ... ... : ... .. . ... ...
ROW 46 : ... .. 8 ... V01 ... : ... .. 8 ... V01 ... : ... .. . ... : ... .. 0 ... : ... .. . ... ... : ... .. . ... ... : ... .. . ... ... : ... .. . ... ...
ROW 47 : ... .. . ... ... ... : ... .. . ... ... ... : ... .. . ... : ... .. . ... : ... .. . ... ... : ... .. . ... ... : ... .. . ... ... : ... .. . ... ...
ROW 48 : ... .. . ... ... ... : ... .. . ... ... ... : ... .. . ... : ... .. . ... : ... .. . ... ... : ... .. 1 ... ... : ... .. 1 ... ... : ... .. 1 ... ...
ROW 49 : ... .. 1 ... V00 ... : ... .. 1 ... V00 ... : ... .. . ... : ... .. . ... : ... .. . ... ... : ... .. . ... ... : ... .. . ... ... : ... .. . ... ...
ROW 4A : ... .. 0 ... ... ... : ... .. 0 ... ... ... : ... .. . ... : ... .. 1 ... : ... .. . ... ... : ... .. . ... ... : ... .. . ... ... : ... .. . ... ...
ROW 4B : G-4 00 1 P7F V01 ... : G-4 00 1 P81 V01 ... : --- .. . ... : ... .. 6 ... : ... .. . ... ... : ... .. 2 ... V05 : ... .. 2 ... V05 : ... .. A ... ...
ROW 4C : ... .. 4 ... V02 ... : ... .. 4 ... V02 ... : ... .. . ... : ... .. 4 ... : ... .. . ... ... : ... .. 4 ... V07 : ... .. 4 ... V07 : ... .. 8 ... ...
ROW 4D : ... .. 8 ... V01 ... : ... .. 8 ... V01 ... : ... .. . ... : ... .. 2 ... : ... .. . ... ... : ... .. 6 ... V06 : ... .. 6 ... V06 : ... .. 5 ... ...
ROW 4E : ... .. . ... ... ... : ... .. . ... ... ... : ... .. . ... : ... .. 1 ... : ... .. . ... ... : ... .. . ... ... : ... .. . ... ... : ... .. . ... ...
ROW 4F : ... .. . ... ... ... : ... .. . ... ... ... : ... .. . ... : ... .. . ... : ... .. . ... ... : ... .. 1 ... ... : ... .. 1 ... ... : ... .. 1 ... ...
ROW 50 : ... .. 1 ... V00 ... : ... .. 1 ... V00 ... : ... .. . ... : ... .. 0 ... : ... .. . ... ... : ... .. . ... ... : ... .. . ... ... : ... .. . ... ...
ROW 51 : ... .. 0 ... ... ... : ... .. 0 ... ... ... : ... .. . ... : ... .. 1 ... : ... .. . ... ... : ... .. . ... ... : ... .. . ... ... : ... .. . ... ...
ROW 52 : F#4 00 1 P7F V01 ... : F#4 00 1 P81 V01 ... : C#5 00 . ... : ... .. C ... : ... .. . ... ... : F#3 01 2 ... V05 : D-3 01 2 ... V05 : D-4 01 A ... ...
ROW 53 : ... .. 4 ... V02 ... : ... .. 4 ... V02 ... : D#4 00 . ... : ... .. 9 ... : ... .. . ... ... : ... .. 4 ... V07 : ... .. 4 ... V07 : ... .. 8 ... ...
ROW 54 : ... .. 8 ... V01 ... : ... .. 8 ... V01 ... : G#3 00 . ... : ... .. 8 ... : ... .. . ... ... : ... .. 6 ... V06 : ... .. 6 ... V06 : ... .. 5 ... ...
ROW 55 : ... .. . ... ... ... : ... .. . ... ... ... : G-3 00 . ... : ... .. . ... : ... .. . ... ... : ... .. . ... ... : ... .. . ... ... : ... .. . ... ...
ROW 56 : ... .. . ... ... ... : ... .. . ... ... ... : D-3 00 . ... : ... .. 5 ... : ... .. . ... ... : ... .. . ... ... : ... .. . ... ... : ... .. . ... ...
ROW 57 : ... .. . ... ... ... : ... .. . ... ... ... : ... .. . ... : ... .. 4 ... : ... .. . ... ... : ... .. . ... ... : ... .. . ... ... : ... .. . ... ...
ROW 58 : ... .. . ... ... ... : ... .. . ... ... ... : ... .. . ... : ... .. 3 ... : ... .. . ... ... : ... .. . ... ... : ... .. . ... ... : ... .. . ... ...
ROW 59 : ... .. . ... ... ... : ... .. . ... ... ... : ... .. . ... : ... .. 6 ... : ... .. . ... ... : ... .. 2 ... V05 : ... .. 2 ... V05 : B-3 01 A ... ...
ROW 5A : ... .. 1 ... V00 ... : ... .. 1 ... V00 ... : ... .. . ... : ... .. 4 ... : ... .. . ... ... : ... .. 4 ... V07 : ... .. 4 ... V07 : ... .. 8 ... ...
ROW 5B : ... .. 0 ... ... ... : ... .. 0 ... ... ... : ... .. . ... : ... .. 2 ... : ... .. . ... ... : ... .. 6 ... V06 : ... .. 6 ... V06 : ... .. 5 ... ...
ROW 5C : ... .. . ... ... ... : ... .. . ... ... ... : ... .. . ... : ... .. 1 ... : ... .. . ... ... : ... .. . ... ... : ... .. . ... ... : ... .. . ... ...
ROW 5D : ... .. . ... ... ... : ... .. . ... ... ... : ... .. . ... : ... .. . ... : ... .. . ... ... : ... .. 1 ... ... : ... .. 1 ... ... : ... .. 1 ... ...
ROW 5E : ... .. . ... ... ... : ... .. . ... ... ... : ... .. . ... : ... .. 0 ... : ... .. . ... ... : ... .. . ... ... : ... .. . ... ... : ... .. . ... ...
ROW 5F : ... .. . ... ... ... : ... .. . ... ... ... : ... .. . ... : ... .. 1 ... : ... .. . ... ... : ... .. . ... ... : ... .. . ... ... : ... .. . ... ...
ROW 60 : D-4 00 1 P7F V01 ... : D-4 00 1 P81 V01 ... : --- .. . ... : ... .. 6 ... : ... .. . ... ... : ... .. 2 ... V05 : ... .. 2 ... V05 : F#3 01 A ... ...
ROW 61 : ... .. 4 ... V02 ... : ... .. 4 ... V02 ... : ... .. . ... : ... .. 4 ... : ... .. . ... ... : ... .. 4 ... V07 : ... .. 4 ... V07 : ... .. 8 ... ...
ROW 62 : ... .. 8 ... V01 ... : ... .. 8 ... V01 ... : ... .. . ... : ... .. 2 ... : ... .. . ... ... : ... .. 6 ... V06 : ... .. 6 ... V06 : ... .. 5 ... ...
ROW 63 : ... .. . ... ... ... : ... .. . ... ... ... : ... .. . ... : ... .. 1 ... : ... .. . ... ... : ... .. . ... ... : ... .. . ... ... : ... .. . ... ...
ROW 64 : ... .. . ... ... ... : ... .. . ... ... ... : ... .. . ... : ... .. . ... : ... .. . ... ... : ... .. 1 ... ... : ... .. 1 ... ... : ... .. 1 ... ...
ROW 65 : ... .. 1 ... V00 ... : ... .. 1 ... V00 ... : ... .. . ... : ... .. 0 ... : ... .. . ... ... : ... .. . ... ... : ... .. . ... ... : ... .. . ... ...
ROW 66 : ... .. 0 ... ... ... : ... .. 0 ... ... ... : ... .. . ... : ... .. 1 ... : ... .. . ... ... : ... .. . ... ... : ... .. . ... ... : ... .. . ... ...
ROW 67 : D-4 00 1 P7F V01 ... : D-4 00 1 P81 V01 ... : A#4 00 . ... : ... .. C ... : ... .. . ... ... : D-3 01 2 ... V05 : B-2 01 2 ... V05 : D-4 01 A ... ...
ROW 68 : ... .. 4 ... V02 ... : ... .. 4 ... V02 ... : C-4 00 . ... : ... .. 9 ... : ... .. . ... ... : ... .. 4 ... V07 : ... .. 4 ... V07 : ... .. 8 ... ...
ROW 69 : ... .. 8 ... V01 ... : ... .. 8 ... V01 ... : F-3 00 . ... : ... .. 8 ... : ... .. . ... ... : ... .. 6 ... V06 : ... .. 6 ... V06 : ... .. 5 ... ...
ROW 6A : ... .. . ... ... ... : ... .. . ... ... ... : E-3 00 . ... : ... .. . ... : ... .. . ... ... : ... .. . ... ... : ... .. . ... ... : ... .. . ... ...
ROW 6B : ... .. . ... ... ... : ... .. . ... ... ... : B-2 00 . ... : ... .. 5 ... : ... .. . ... ... : ... .. . ... ... : ... .. . ... ... : ... .. . ... ...
ROW 6C : ... .. . ... ... ... : ... .. . ... ... ... : ... .. . ... : ... .. 4 ... : ... .. . ... ... : ... .. . ... ... : ... .. . ... ... : ... .. . ... ...
ROW 6D : ... .. . ... ... ... : ... .. . ... ... ... : ... .. . ... : ... .. 3 ... : ... .. . ... ... : ... .. . ... ... : ... .. . ... ... : ... .. . ... ...
ROW 6E : ... .. . ... ... ... : ... .. . ... ... ... : ... .. . ... : ... .. . ... : ... .. . ... ... : ... .. 2 ... V05 : ... .. 2 ... V05 : B-3 01 A ... ...
ROW 6F : ... .. . ... ... ... : ... .. . ... ... ... : ... .. . ... : ... .. 2 ... : ... .. . ... ... : ... .. 4 ... V07 : ... .. 4 ... V07 : ... .. 8 ... ...
ROW 70 : ... .. . ... ... ... : ... .. . ... ... ... : ... .. . ... : ... .. . ... : ... .. . ... ... : ... .. 6 ... V06 : ... .. 6 ... V06 : ... .. 5 ... ...
ROW 71 : ... .. . ... ... ... : ... .. . ... ... ... : ... .. . ... : ... .. 1 ... : ... .. . ... ... : ... .. . ... ... : ... .. . ... ... : ... .. . ... ...
ROW 72 : ... .. . ... ... ... : ... .. . ... ... ... : ... .. . ... : ... .. . ... : ... .. . ... ... : ... .. 1 ... ... : ... .. 1 ... ... : ... .. 1 ... ...
ROW 73 : ... .. . ... ... ... : ... .. . ... ... ... : ... .. . ... : ... .. . ... : ... .. . ... ... : ... .. . ... ... : ... .. . ... ... : ... .. . ... ...
ROW 74 : ... .. . ... ... ... : ... .. . ... ... ... : ... .. . ... : ... .. . ... : ... .. . ... ... : ... .. . ... ... : ... .. . ... ... : ... .. . ... ...
ROW 75 : E-4 00 1 ... ... ... : E-4 00 1 ... ... ... : --- .. . ... : ... .. 6 ... : ... .. . ... ... : ... .. 2 ... V05 : ... .. 2 ... V05 : F#3 01 A ... ...
ROW 76 : ... .. 4 ... V02 ... : ... .. 4 ... V02 ... : ... .. . ... : ... .. 5 ... : ... .. . ... ... : ... .. 4 ... V07 : ... .. 4 ... V07 : ... .. 8 ... ...
ROW 77 : ... .. 8 ... V01 ... : ... .. 8 ... V01 ... : ... .. . ... : ... .. 4 ... : ... .. . ... ... : ... .. 6 ... V06 : ... .. 6 ... V06 : ... .. 5 ... ...
ROW 78 : ... .. . ... ... ... : ... .. . ... ... ... : ... .. . ... : ... .. 3 ... : ... .. . ... ... : ... .. . ... ... : ... .. . ... ... : ... .. . ... ...
ROW 79 : ... .. . ... ... ... : ... .. . ... ... ... : ... .. . ... : ... .. 1 ... : ... .. . ... ... : ... .. 1 ... ... : ... .. 1 ... ... : ... .. 1 ... ...
ROW 7A : ... .. . ... ... ... : ... .. . ... ... ... : ... .. . ... : ... .. . ... : ... .. . ... ... : ... .. . ... ... : ... .. . ... ... : ... .. . ... ...
ROW 7B : ... .. . ... ... ... : ... .. . ... ... ... : ... .. . ... : ... .. . ... : ... .. . ... ... : ... .. . ... ... : ... .. . ... ... : ... .. . ... ...
ROW 7C : F#4 00 1 ... ... ... : F#4 00 1 ... ... ... : F-4 00 . ... : ... .. C ... : ... .. . ... ... : F#3 01 2 ... V05 : D-3 01 2 ... V05 : D-4 01 A ... ...
ROW 7D : ... .. 4 ... V02 ... : ... .. 4 ... V02 ... : G-3 00 . ... : ... .. 9 ... : ... .. . ... ... : ... .. 4 ... V07 : ... .. 4 ... V07 : ... .. 8 ... ...
ROW 7E : ... .. 8 ... V01 ... : ... .. 8 ... V01 ... : C-3 00 . ... : ... .. 8 ... : ... .. . ... ... : ... .. 6 ... V06 : ... .. 6 ... V06 : ... .. 5 ... ...
ROW 7F : ... .. . ... ... ... : ... .. . ... ... ... : B-2 00 . ... : ... .. . ... : ... .. . ... ... : ... .. . ... ... : ... .. . ... ... : ... .. . ... ...
ROW 80 : G-4 00 1 ... ... ... : G-4 00 1 ... ... ... : F#2 00 . ... : ... .. 5 ... : ... .. . ... ... : ... .. . ... ... : ... .. . ... ... : ... .. . ... ...
ROW 81 : ... .. 4 ... V02 ... : ... .. 4 ... V02 ... : ... .. . ... : ... .. 4 ... : ... .. . ... ... : ... .. . ... ... : ... .. . ... ... : ... .. . ... ...
ROW 82 : ... .. 8 ... V01 ... : ... .. 8 ... V01 ... : ... .. . ... : ... .. 3 ... : ... .. . ... ... : ... .. . ... ... : ... .. . ... ... : ... .. . ... ...
ROW 83 : F#4 00 1 ... ... ... : F#4 00 1 ... ... ... : ... .. . ... : ... .. . ... : ... .. . ... ... : ... .. 2 ... V05 : ... .. 2 ... V05 : B-3 01 A ... ...
ROW 84 : ... .. 4 ... V02 ... : ... .. 4 ... V02 ... : ... .. . ... : ... .. 2 ... : ... .. . ... ... : ... .. 4 ... V07 : ... .. 4 ... V07 : ... .. 8 ... ...
ROW 85 : ... .. 6 ... V01 ... : ... .. 6 ... V01 ... : ... .. . ... : ... .. . ... : ... .. . ... ... : ... .. 6 ... V06 : ... .. 6 ... V06 : ... .. 5 ... ...
ROW 86 : ... .. . ... ... ... : ... .. . ... ... ... : ... .. . ... : ... .. 1 ... : ... .. . ... ... : ... .. . ... ... : ... .. . ... ... : ... .. . ... ...
ROW 87 : ... .. . ... ... ... : ... .. . ... ... ... : ... .. . ... : ... .. . ... : ... .. . ... ... : ... .. 1 ... ... : ... .. 1 ... ... : ... .. 1 ... ...
ROW 88 : ... .. . ... ... ... : ... .. . ... ... ... : ... .. . ... : ... .. . ... : ... .. . ... ... : ... .. . ... ... : ... .. . ... ... : ... .. . ... ...
ROW 89 : ... .. 5 ... ... ... : ... .. 5 ... ... ... : ... .. . ... : ... .. . ... : ... .. . ... ... : ... .. . ... ... : ... .. . ... ... : ... .. . ... ...
ROW 8A : ... .. 4 ... ... ... : ... .. 4 ... ... ... : --- .. . ... : ... .. . ... : ... .. . ... ... : ... .. 2 ... V05 : ... .. 2 ... V05 : F#3 01 A ... ...
ROW 8B : ... .. . ... ... ... : ... .. . ... ... ... : ... .. . ... : ... .. . ... : ... .. . ... ... : ... .. 4 ... V07 : ... .. 4 ... V07 : ... .. 8 ... ...
ROW 8C : ... .. . ... ... ... : ... .. . ... ... ... : ... .. . ... : ... .. 0 ... : ... .. . ... ... : ... .. 6 ... V06 : ... .. 6 ... V06 : ... .. 5 ... ...
ROW 8D : ... .. . ... ... ... : ... .. . ... ... ... : ... .. . ... : ... .. . ... : ... .. . ... ... : ... .. . ... ... : ... .. . ... ... : ... .. . ... ...
ROW 8E : ... .. 3 ... ... ... : ... .. 3 ... ... ... : ... .. . ... : ... .. . ... : ... .. . ... ... : ... .. 1 ... ... : ... .. 1 ... ... : ... .. 1 ... ...
ROW 8F : ... .. . ... ... ... : ... .. . ... ... ... : ... .. . ... : ... .. . ... : ... .. . ... ... : ... .. . ... ... : ... .. . ... ... : ... .. . ... ...
ROW 90 : ... .. 2 ... ... ... : ... .. 2 ... ... ... : ... .. . ... : ... .. . ... : ... .. . ... ... : ... .. . ... ... : ... .. . ... ... : ... .. . ... ...
ROW 91 : ... .. . ... ... ... : ... .. . ... ... ... : C#4 00 . ... : ... .. B ... : ... .. . ... ... : D-3 01 2 ... V05 : B-2 01 2 ... V05 : D-4 01 A ... ...
ROW 92 : ... .. . ... ... ... : ... .. . ... ... ... : D#3 00 . ... : ... .. 8 ... : ... .. . ... ... : ... .. 4 ... V07 : ... .. 4 ... V07 : ... .. 8 ... ...
ROW 93 : ... .. 3 ... ... ... : ... .. 3 ... ... ... : G#2 00 . ... : ... .. . ... : ... .. . ... ... : ... .. 6 ... V06 : ... .. 6 ... V06 : ... .. 5 ... ...
ROW 94 : ... .. . ... ... ... : ... .. . ... ... ... : G-2 00 . ... : ... .. 6 ... : ... .. . ... ... : ... .. . ... ... : ... .. . ... ... : ... .. . ... ...
ROW 95 : ... .. . ... ... ... : ... .. . ... ... ... : D-2 00 . ... : ... .. . ... : ... .. . ... ... : ... .. . ... ... : ... .. . ... ... : ... .. . ... ...
ROW 96 : ... .. . ... ... ... : ... .. . ... ... ... : ... .. . ... : ... .. 4 ... : ... .. . ... ... : ... .. . ... ... : ... .. . ... ... : ... .. . ... ...
ROW 97 : ... .. 4 ... ... ... : ... .. 4 ... ... ... : ... .. . ... : ... .. 3 ... : ... .. . ... ... : ... .. . ... ... : ... .. . ... ... : ... .. . ... ...
ROW 98 : ... .. . ... ... ... : ... .. . ... ... ... : ... .. . ... : ... .. 5 ... : ... .. . ... ... : ... .. . ... ... : ... .. . ... ... : ... .. . ... ...
ROW 99 : ... .. . ... ... ... : ... .. . ... ... ... : ... .. . ... : ... .. 3 ... : ... .. . ... ... : ... .. . ... ... : ... .. . ... ... : ... .. . ... ...
ROW 9A : ... .. . ... ... ... : ... .. . ... ... ... : ... .. . ... : ... .. 2 ... : ... .. . ... ... : ... .. . ... ... : ... .. . ... ... : ... .. . ... ...
ROW 9B : ... .. . ... ... ... : ... .. . ... ... ... : ... .. . ... : ... .. . ... : ... .. . ... ... : ... .. . ... ... : ... .. . ... ... : ... .. . ... ...
ROW 9C : ... .. 5 ... ... ... : ... .. 5 ... ... ... : ... .. . ... : ... .. 4 ... : ... .. . ... ... : ... .. . ... ... : ... .. . ... ... : ... .. . ... ...
ROW 9D : ... .. . ... ... ... : ... .. . ... ... ... : ... .. . ... : ... .. 2 ... : ... .. . ... ... : ... .. . ... ... : ... .. . ... ... : ... .. . ... ...
ROW 9E : ... .. 6 ... ... ... : ... .. 6 ... ... ... : ... .. . ... : ... .. . ... : ... .. . ... ... : ... .. . ... ... : ... .. . ... ... : ... .. . ... ...
ROW 9F : G-4 00 1 ... ... ... : G-4 00 1 ... ... ... : --- .. . ... : ... .. 6 ... : ... .. . ... ... : ... .. . ... ... : ... .. . ... ... : ... .. . ... ...
ROW A0 : ... .. 4 ... V02 ... : ... .. 4 ... V02 ... : ... .. . ... : ... .. 5 ... : ... .. . ... ... : ... .. . ... ... : ... .. . ... ... : ... .. . ... ...
ROW A1 : ... .. 6 ... V01 ... : ... .. 6 ... V01 ... : ... .. . ... : ... .. 4 ... : ... .. . ... ... : ... .. . ... ... : ... .. . ... ... : ... .. . ... ...
ROW A2 : ... .. . ... ... ... : ... .. . ... ... ... : ... .. . ... : ... .. 3 ... : ... .. . ... ... : ... .. . ... ... : ... .. . ... ... : ... .. . ... ...
ROW A3 : F#4 00 1 ... ... ... : F#4 00 1 ... ... ... : ... .. . ... : ... .. 9 ... : ... .. . ... ... : ... .. 1 ... ... : ... .. 1 ... ... : ... .. 1 ... ...
ROW A4 : ... .. 4 ... V02 ... : ... .. 4 ... V02 ... : ... .. . ... : ... .. 7 ... : ... .. . ... ... : ... .. . ... ... : ... .. . ... ... : ... .. . ... ...
ROW A5 : ... .. 8 ... V01 ... : ... .. 8 ... V01 ... : ... .. . ... : ... .. 6 ... : ... .. . ... ... : ... .. . ... ... : ... .. . ... ... : ... .. . ... ...
ROW A6 : E-4 00 1 ... ... ... : E-4 00 1 ... ... ... : C-4 00 . ... : ... .. C ... : ... .. . ... ... : E-3 01 2 ... V05 : C#3 01 2 ... V05 : C#4 01 A ... ...
ROW A7 : ... .. 4 ... V02 ... : ... .. 4 ... V02 ... : D-3 00 . ... : ... .. 9 ... : ... .. . ... ... : ... .. 4 ... V07 : ... .. 4 ... V07 : ... .. 8 ... ...
ROW A8 : ... .. 8 ... V01 ... : ... .. 8 ... V01 ... : G-2 00 . ... : ... .. 8 ... : ... .. . ... ... : ... .. 6 ... V06 : ... .. 6 ... V06 : ... .. 5 ... ...
ROW A9 : ... .. . ... ... ... : ... .. . ... ... ... : F#2 00 . ... : ... .. . ... : ... .. . ... ... : ... .. . ... ... : ... .. . ... ... : ... .. . ... ...
ROW AA : ... .. . ... ... ... : ... .. . ... ... ... : C#2 00 . ... : ... .. 5 ... : ... .. . ... ... : ... .. . ... ... : ... .. . ... ... : ... .. . ... ...
ROW AB : ... .. . ... ... ... : ... .. . ... ... ... : ... .. . ... : ... .. 4 ... : ... .. . ... ... : ... .. . ... ... : ... .. . ... ... : ... .. . ... ...
ROW AC : ... .. . ... ... ... : ... .. . ... ... ... : ... .. . ... : ... .. 3 ... : ... .. . ... ... : ... .. . ... ... : ... .. . ... ... : ... .. . ... ...
ROW AD : F#4 00 1 ... ... ... : F#4 00 1 ... ... ... : ... .. . ... : ... .. 6 ... : ... .. . ... ... : ... .. 2 ... V05 : ... .. 2 ... V05 : A#3 01 A ... ...
ROW AE : ... .. 4 ... V02 ... : ... .. 4 ... V02 ... : ... .. . ... : ... .. 4 ... : ... .. . ... ... : ... .. 4 ... V07 : ... .. 4 ... V07 : ... .. 8 ... ...
ROW AF : ... .. 8 ... V01 ... : ... .. 8 ... V01 ... : ... .. . ... : ... .. 2 ... : ... .. . ... ... : ... .. 6 ... V06 : ... .. 6 ... V06 : ... .. 5 ... ...
ROW B0 : ... .. . ... ... ... : ... .. . ... ... ... : ... .. . ... : ... .. 1 ... : ... .. . ... ... : ... .. . ... ... : ... .. . ... ... : ... .. . ... ...
ROW B1 : ... .. . ... ... ... : ... .. . ... ... ... : ... .. . ... : ... .. . ... : ... .. . ... ... : ... .. 1 ... ... : ... .. 1 ... ... : ... .. 1 ... ...
ROW B2 : ... .. 1 ... V00 ... : ... .. 1 ... V00 ... : ... .. . ... : ... .. 0 ... : ... .. . ... ... : ... .. . ... ... : ... .. . ... ... : ... .. . ... ...
ROW B3 : ... .. 0 ... ... ... : ... .. 0 ... ... ... : ... .. . ... : ... .. 1 ... : ... .. . ... ... : ... .. . ... ... : ... .. . ... ... : ... .. . ... ...
ROW B4 : E-4 00 1 P7F V01 ... : E-4 00 1 P81 V01 ... : --- .. . ... : ... .. 6 ... : ... .. . ... ... : ... .. 2 ... V05 : ... .. 2 ... V05 : F#3 01 A ... ...
ROW B5 : ... .. 4 ... V02 ... : ... .. 4 ... V02 ... : ... .. . ... : ... .. 4 ... : ... .. . ... ... : ... .. 4 ... V07 : ... .. 4 ... V07 : ... .. 8 ... ...
ROW B6 : ... .. 8 ... V01 ... : ... .. 8 ... V01 ... : ... .. . ... : ... .. 2 ... : ... .. . ... ... : ... .. 6 ... V06 : ... .. 6 ... V06 : ... .. 5 ... ...
ROW B7 : ... .. . ... ... ... : ... .. . ... ... ... : ... .. . ... : ... .. 1 ... : ... .. . ... ... : ... .. . ... ... : ... .. . ... ... : ... .. . ... ...
ROW B8 : ... .. . ... ... ... : ... .. . ... ... ... : ... .. . ... : ... .. . ... : ... .. . ... ... : ... .. 1 ... ... : ... .. 1 ... ... : ... .. 1 ... ...
ROW B9 : ... .. 1 ... V00 ... : ... .. 1 ... V00 ... : ... .. . ... : ... .. 0 ... : ... .. . ... ... : ... .. . ... ... : ... .. . ... ... : ... .. . ... ...
ROW BA : ... .. 0 ... ... ... : ... .. 0 ... ... ... : ... .. . ... : ... .. 1 ... : ... .. . ... ... : ... .. . ... ... : ... .. . ... ... : ... .. . ... ...
ROW BB : D#4 00 1 P7F V01 ... : D#4 00 1 P81 V01 ... : F-4 00 . ... : ... .. C ... : ... .. . ... ... : C#3 01 2 ... V05 : A#2 01 2 ... V05 : C#4 01 A ... ...
ROW BC : ... .. 4 ... V02 ... : ... .. 4 ... V02 ... : G-3 00 . ... : ... .. 9 ... : ... .. . ... ... : ... .. 4 ... V07 : ... .. 4 ... V07 : ... .. 8 ... ...
ROW BD : ... .. 8 ... V01 ... : ... .. 8 ... V01 ... : C-3 00 . ... : ... .. 8 ... : ... .. . ... ... : ... .. 6 ... V06 : ... .. 6 ... V06 : ... .. 5 ... ...
ROW BE : ... .. . ... ... ... : ... .. . ... ... ... : B-2 00 . ... : ... .. . ... : ... .. . ... ... : ... .. . ... ... : ... .. . ... ... : ... .. . ... ...
ROW BF : ... .. . ... ... ... : ... .. . ... ... ... : F#2 00 . ... : ... .. 5 ... : ... .. . ... ... : ... .. . ... ... : ... .. . ... ... : ... .. . ... ...
ROW C0 : ... .. . ... ... ... : ... .. . ... ... ... : ... .. . ... : ... .. 4 ... : ... .. . ... ... : ... .. . ... ... : ... .. . ... ... : ... .. . ... ...
ROW C1 : ... .. . ... ... ... : ... .. . ... ... ... : ... .. . ... : ... .. 3 ... : ... .. . ... ... : ... .. . ... ... : ... .. . ... ... : ... .. . ... ...
ROW C2 : E-4 00 1 ... ... ... : E-4 00 1 ... ... ... : ... .. . ... : ... .. 6 ... : ... .. . ... ... : ... .. 2 ... V05 : ... .. 2 ... V05 : A#3 01 A ... ...
ROW C3 : ... .. 4 ... V02 ... : ... .. 4 ... V02 ... : ... .. . ... : ... .. 5 ... : ... .. . ... ... : ... .. 4 ... V07 : ... .. 4 ... V07 : ... .. 8 ... ...
ROW C4 : ... .. 8 ... V01 ... : ... .. 8 ... V01 ... : ... .. . ... : ... .. 4 ... : ... .. . ... ... : ... .. 6 ... V06 : ... .. 6 ... V06 : ... .. 5 ... ...
ROW C5 : ... .. . ... ... ... : ... .. . ... ... ... : ... .. . ... : ... .. 3 ... : ... .. . ... ... : ... .. . ... ... : ... .. . ... ... : ... .. . ... ...
ROW C6 : ... .. . ... ... ... : ... .. . ... ... ... : ... .. . ... : ... .. 1 ... : ... .. . ... ... : ... .. 1 ... ... : ... .. 1 ... ... : ... .. 1 ... ...
ROW C7 : ... .. 1 ... V00 ... : ... .. 1 ... V00 ... : ... .. . ... : ... .. . ... : ... .. . ... ... : ... .. . ... ... : ... .. . ... ... : ... .. . ... ...
ROW C8 : ... .. 0 ... ... ... : ... .. 0 ... ... ... : ... .. . ... : ... .. . ... : ... .. . ... ... : ... .. . ... ... : ... .. . ... ... : ... .. . ... ...
ROW C9 : F#4 00 1 P7F V01 ... : F#4 00 1 P81 V01 ... : --- .. . ... : ... .. 6 ... : ... .. . ... ... : ... .. 2 ... V05 : ... .. 2 ... V05 : F#3 01 A ... ...
ROW CA : ... .. 4 ... V02 ... : ... .. 4 ... V02 ... : ... .. . ... : ... .. 5 ... : ... .. . ... ... : ... .. 4 ... V07 : ... .. 4 ... V07 : ... .. 8 ... ...
ROW CB : ... .. 8 ... V01 ... : ... .. 8 ... V01 ... : ... .. . ... : ... .. 4 ... : ... .. . ... ... : ... .. 6 ... V06 : ... .. 6 ... V06 : ... .. 5 ... ...
ROW CC : ... .. . ... ... ... : ... .. . ... ... ... : ... .. . ... : ... .. 3 ... : ... .. . ... ... : ... .. . ... ... : ... .. . ... ... : ... .. . ... ...
ROW CD : ... .. . ... ... ... : ... .. . ... ... ... : ... .. . ... : ... .. 1 ... : ... .. . ... ... : ... .. 1 ... ... : ... .. 1 ... ... : ... .. 1 ... ...
ROW CE : ... .. 1 ... V00 ... : ... .. 1 ... V00 ... : ... .. . ... : ... .. . ... : ... .. . ... ... : ... .. . ... ... : ... .. . ... ... : ... .. . ... ...
ROW CF : ... .. 0 ... ... ... : ... .. 0 ... ... ... : ... .. . ... : ... .. . ... : ... .. . ... ... : ... .. . ... ... : ... .. . ... ... : ... .. . ... ...
ROW D0 : G-4 00 1 P7F V01 ... : G-4 00 1 P81 V01 ... : C-4 00 . ... : ... .. C ... : ... .. . ... ... : E-3 01 2 ... V05 : C#3 01 2 ... V05 : C#4 01 A ... ...
ROW D1 : ... .. 4 ... V02 ... : ... .. 4 ... V02 ... : D-3 00 . ... : ... .. 9 ... : ... .. . ... ... : ... .. 4 ... V07 : ... .. 4 ... V07 : ... .. 8 ... ...
ROW D2 : ... .. 8 ... V01 ... : ... .. 8 ... V01 ... : G-2 00 . ... : ... .. 8 ... : ... .. . ... ... : ... .. 6 ... V06 : ... .. 6 ... V06 : ... .. 5 ... ...
ROW D3 : ... .. . ... ... ... : ... .. . ... ... ... : F#2 00 . ... : ... .. . ... : ... .. . ... ... : ... .. . ... ... : ... .. . ... ... : ... .. . ... ...
ROW D4 : ... .. . ... ... ... : ... .. . ... ... ... : C#2 00 . ... : ... .. 5 ... : ... .. . ... ... : ... .. . ... ... : ... .. . ... ... : ... .. . ... ...
ROW D5 : ... .. . ... ... ... : ... .. . ... ... ... : ... .. . ... : ... .. 4 ... : ... .. . ... ... : ... .. . ... ... : ... .. . ... ... : ... .. . ... ...
ROW D6 : ... .. . ... ... ... : ... .. . ... ... ... : ... .. . ... : ... .. 3 ... : ... .. . ... ... : ... .. . ... ... : ... .. . ... ... : ... .. . ... ...
ROW D7 : ... .. . ... ... ... : ... .. . ... ... ... : ... .. . ... : ... .. . ... : ... .. . ... ... : ... .. 2 ... V05 : ... .. 2 ... V05 : A#3 01 A ... ...
ROW D8 : ... .. . ... ... ... : ... .. . ... ... ... : ... .. . ... : ... .. 2 ... : ... .. . ... ... : ... .. 4 ... V07 : ... .. 4 ... V07 : ... .. 8 ... ...
ROW D9 : ... .. . ... ... ... : ... .. . ... ... ... : ... .. . ... : ... .. . ... : ... .. . ... ... : ... .. 6 ... V06 : ... .. 6 ... V06 : ... .. 5 ... ...
ROW DA : ... .. . ... ... ... : ... .. . ... ... ... : ... .. . ... : ... .. 1 ... : ... .. . ... ... : ... .. . ... ... : ... .. . ... ... : ... .. . ... ...
ROW DB : ... .. . ... ... ... : ... .. . ... ... ... : ... .. . ... : ... .. . ... : ... .. . ... ... : ... .. 1 ... ... : ... .. 1 ... ... : ... .. 1 ... ...
ROW DC : ... .. 1 ... V00 ... : ... .. 1 ... V00 ... : ... .. . ... : ... .. . ... : ... .. . ... ... : ... .. . ... ... : ... .. . ... ... : ... .. . ... ...
ROW DD : ... .. 0 ... ... ... : ... .. 0 ... ... ... : ... .. . ... : ... .. . ... : ... .. . ... ... : ... .. . ... ... : ... .. . ... ... : ... .. . ... ...
ROW DE : E-4 00 1 P7F V01 ... : E-4 00 1 P81 V01 ... : --- .. . ... : ... .. 7 ... : ... .. . ... ... : ... .. 2 ... V05 : ... .. 2 ... V05 : F#3 01 A ... ...
ROW DF : ... .. 4 ... V02 ... : ... .. 4 ... V02 ... : ... .. . ... : ... .. 5 ... : ... .. . ... ... : ... .. 4 ... V07 : ... .. 4 ... V07 : ... .. 8 ... ...
ROW E0 : ... .. 8 ... V01 ... : ... .. 8 ... V01 ... : ... .. . ... : ... .. . ... : ... .. . ... ... : ... .. 6 ... V06 : ... .. 6 ... V06 : ... .. 5 ... ...
ROW E1 : ... .. . ... ... ... : ... .. . ... ... ... : ... .. . ... : ... .. 4 ... : ... .. . ... ... : ... .. . ... ... : ... .. . ... ... : ... .. . ... ...
ROW E2 : ... .. . ... ... ... : ... .. . ... ... ... : ... .. . ... : ... .. 3 ... : ... .. . ... ... : ... .. 1 ... ... : ... .. 1 ... ... : ... .. 1 ... ...
ROW E3 : ... .. 1 ... V00 ... : ... .. 1 ... V00 ... : ... .. . ... : ... .. 2 ... : ... .. . ... ... : ... .. . ... ... : ... .. . ... ... : ... .. . ... ...
ROW E4 : ... .. 0 ... ... ... : ... .. 0 ... ... ... : ... .. . ... : ... .. 1 ... : ... .. . ... ... : ... .. . ... ... : ... .. . ... ... : ... .. . ... ...
ROW E5 : C#4 00 1 P7F V01 ... : C#4 00 1 P81 V01 ... : F-4 00 . ... : ... .. B ... : ... .. . ... ... : C#3 01 2 ... V05 : A#2 01 2 ... V05 : C#4 01 A ... ...
ROW E6 : ... .. 4 ... V02 ... : ... .. 4 ... V02 ... : G-3 00 . ... : ... .. 8 ... : ... .. . ... ... : ... .. 4 ... V07 : ... .. 4 ... V07 : ... .. 8 ... ...
ROW E7 : ... .. 8 ... V01 ... : ... .. 8 ... V01 ... : C-3 00 . ... : ... .. B ... : ... .. . ... ... : ... .. 6 ... V06 : ... .. 6 ... V06 : ... .. 5 ... ...
ROW E8 : ... .. . ... ... ... : ... .. . ... ... ... : B-2 00 . ... : ... .. 8 ... : ... .. . ... ... : ... .. . ... ... : ... .. . ... ... : ... .. . ... ...
ROW E9 : ... .. . ... ... ... : ... .. . ... ... ... : F#2 00 . ... : ... .. 6 ... : ... .. . ... ... : ... .. . ... ... : ... .. . ... ... : ... .. . ... ...
ROW EA : ... .. . ... ... ... : ... .. . ... ... ... : ... .. . ... : ... .. 4 ... : ... .. . ... ... : ... .. . ... ... : ... .. . ... ... : ... .. . ... ...
ROW EB : ... .. . ... ... ... : ... .. . ... ... ... : ... .. . ... : ... .. 2 ... : ... .. . ... ... : ... .. . ... ... : ... .. . ... ... : ... .. . ... ...
ROW EC : D-4 00 1 ... ... ... : D-4 00 1 ... ... ... : ... .. . ... : ... .. 6 ... : ... .. . ... ... : ... .. . ... ... : ... .. . ... ... : ... .. . ... ...
ROW ED : ... .. 4 ... V02 ... : ... .. 4 ... V02 ... : ... .. . ... : ... .. 4 ... : ... .. . ... ... : ... .. . ... ... : ... .. . ... ... : ... .. . ... ...
ROW EE : ... .. 8 ... V01 ... : ... .. 8 ... V01 ... : ... .. . ... : ... .. 2 ... : ... .. . ... ... : ... .. . ... ... : ... .. . ... ... : ... .. . ... ...
ROW EF : ... .. . ... ... ... : ... .. . ... ... ... : ... .. . ... : ... .. 1 ... : ... .. . ... ... : ... .. . ... ... : ... .. . ... ... : ... .. . ... ...
ROW F0 : ... .. . ... ... ... : ... .. . ... ... ... : ... .. . ... : ... .. . ... : ... .. . ... ... : ... .. 1 ... ... : ... .. 1 ... ... : ... .. 1 ... ...
ROW F1 : ... .. 1 ... V00 ... : ... .. 1 ... V00 ... : ... .. . ... : ... .. 0 ... : ... .. . ... ... : ... .. . ... ... : ... .. . ... ... : ... .. . ... ...
ROW F2 : ... .. 0 ... ... ... : ... .. 0 ... ... ... : ... .. . ... : ... .. 1 ... : ... .. . ... ... : ... .. . ... ... : ... .. . ... ... : ... .. . ... ...
ROW F3 : E-4 00 1 P7F V01 ... : E-4 00 1 P81 V01 ... : --- .. . ... : ... .. 6 ... : ... .. . ... ... : ... .. 2 ... V05 : ... .. 2 ... V05 : A#3 01 A ... ...
ROW F4 : ... .. 4 ... V02 ... : ... .. 4 ... V02 ... : ... .. . ... : ... .. 4 ... : ... .. . ... ... : ... .. 4 ... V07 : ... .. 4 ... V07 : ... .. 8 ... ...
ROW F5 : ... .. 8 ... V01 ... : ... .. 8 ... V01 ... : ... .. . ... : ... .. 2 ... : ... .. . ... ... : ... .. 6 ... V06 : ... .. 6 ... V06 : ... .. 5 ... ...
ROW F6 : ... .. . ... ... ... : ... .. . ... ... ... : ... .. . ... : ... .. 1 ... : ... .. . ... ... : ... .. . ... ... : ... .. . ... ... : ... .. . ... ...
ROW F7 : ... .. . ... ... ... : ... .. . ... ... ... : ... .. . ... : ... .. . ... : ... .. . ... ... : ... .. 1 ... ... : ... .. 1 ... ... : ... .. 1 ... ...
ROW F8 : ... .. 1 ... V00 ... : ... .. 1 ... V00 ... : ... .. . ... : ... .. 0 ... : ... .. . ... ... : ... .. . ... ... : ... .. . ... ... : ... .. . ... ...
ROW F9 : ... .. 0 ... ... ... : ... .. 0 ... ... ... : ... .. . ... : ... .. 1 ... : ... .. . ... ... : ... .. . ... ... : ... .. . ... ... : ... .. . ... ...
ROW FA : D-4 00 2 P7F V01 ... : D-4 00 2 P81 V01 ... : A#3 00 . ... : ... .. C ... : ... .. . ... ... : D-3 01 2 ... V05 : B-2 01 2 ... V05 : B-3 01 A ... ...
ROW FB : ... .. 6 ... V02 ... : ... .. 6 ... V02 ... : C-3 00 . ... : ... .. 9 ... : ... .. . ... ... : ... .. 4 ... V07 : ... .. 4 ... V07 : ... .. 8 ... ...
ROW FC : ... .. 9 ... V01 ... : ... .. 9 ... V01 ... : F-2 00 . ... : ... .. 8 ... : ... .. . ... ... : ... .. 6 ... V06 : ... .. 6 ... V06 : ... .. 5 ... ...
ROW FD : ... .. . ... ... ... : ... .. . ... ... ... : E-2 00 . ... : ... .. . ... : ... .. . ... ... : ... .. . ... ... : ... .. . ... ... : ... .. . ... ...
ROW FE : ... .. 8 ... ... ... : ... .. 8 ... ... ... : B-1 00 . ... : ... .. 5 ... : ... .. . ... ... : ... .. . ... ... : ... .. . ... ... : ... .. . ... ...
ROW FF : ... .. . ... ... ... : ... .. . ... ... ... : ... .. . ... : ... .. 4 ... : ... .. . ... ... : ... .. . ... ... : ... .. . ... ... : ... .. . ... ...

PATTERN 04
ROW 00 : ... .. . ... ... ... : ... .. . ... ... ... : ... .. . ... : ... .. 3 ... : ... .. . ... ... : ... .. . ... ... : ... .. . ... ... : ... .. . ... ...
ROW 01 : ... .. . ... ... ... : ... .. . ... ... ... : ... .. . ... : ... .. 6 ... : ... .. . ... ... : ... .. 2 ... V05 : ... .. 2 ... V05 : F-3 01 A ... ...
ROW 02 : ... .. . ... ... ... : ... .. . ... ... ... : ... .. . ... : ... .. 4 ... : ... .. . ... ... : ... .. 4 ... V07 : ... .. 4 ... V07 : ... .. 8 ... ...
ROW 03 : ... .. . ... ... ... : ... .. . ... ... ... : ... .. . ... : ... .. 2 ... : ... .. . ... ... : ... .. 6 ... V06 : ... .. 6 ... V06 : ... .. 5 ... ...
ROW 04 : ... .. . ... ... ... : ... .. . ... ... ... : ... .. . ... : ... .. 1 ... : ... .. . ... ... : ... .. . ... ... : ... .. . ... ... : ... .. . ... ...
ROW 05 : ... .. 7 ... ... ... : ... .. 7 ... ... ... : ... .. . ... : ... .. . ... : ... .. . ... ... : ... .. 1 ... ... : ... .. 1 ... ... : ... .. 1 ... ...
ROW 06 : ... .. . ... ... ... : ... .. . ... ... ... : ... .. . ... : ... .. 0 ... : ... .. . ... ... : ... .. . ... ... : ... .. . ... ... : ... .. . ... ...
ROW 07 : ... .. 6 ... ... ... : ... .. 6 ... ... ... : ... .. . ... : ... .. 1 ... : ... .. . ... ... : ... .. . ... ... : ... .. . ... ... : ... .. . ... ...
ROW 08 : C#4 00 1 ... ... ... : C#4 00 1 ... ... ... : --- .. . ... : ... .. 6 ... : ... .. . ... ... : ... .. 2 ... V05 : ... .. 2 ... V05 : F#3 01 A ... ...
ROW 09 : ... .. 4 ... V02 ... : ... .. 4 ... V02 ... : ... .. . ... : ... .. 4 ... : ... .. . ... ... : ... .. 4 ... V07 : ... .. 4 ... V07 : ... .. 8 ... ...
ROW 0A : ... .. 6 ... V01 ... : ... .. 6 ... V01 ... : ... .. . ... : ... .. 2 ... : ... .. . ... ... : ... .. 6 ... V06 : ... .. 6 ... V06 : ... .. 5 ... ...
ROW 0B : ... .. . ... ... ... : ... .. . ... ... ... : ... .. . ... : ... .. 1 ... : ... .. . ... ... : ... .. . ... ... : ... .. . ... ... : ... .. . ... ...
ROW 0C : C-4 00 1 ... ... ... : C-4 00 1 ... ... ... : ... .. . ... : ... .. . ... : ... .. . ... ... : ... .. 1 ... ... : ... .. 1 ... ... : ... .. 1 ... ...
ROW 0D : ... .. 3 ... V02 ... : ... .. 3 ... V02 ... : ... .. . ... : ... .. 0 ... : ... .. . ... ... : ... .. . ... ... : ... .. . ... ... : ... .. . ... ...
ROW 0E : ... .. 5 ... V01 ... : ... .. 5 ... V01 ... : ... .. . ... : ... .. 1 ... : ... .. . ... ... : ... .. . ... ... : ... .. . ... ... : ... .. . ... ...
ROW 0F : B-3 00 1 ... ... ... : B-3 00 1 ... ... ... : C-4 00 . ... : ... .. C ... : ... .. . ... ... : E-3 01 2 ... V05 : C#3 01 2 ... V05 : C#4 01 A ... ...
ROW 10 : ... .. 4 ... V02 ... : ... .. 4 ... V02 ... : D-3 00 . ... : ... .. 9 ... : ... .. . ... ... : ... .. 4 ... V07 : ... .. 4 ... V07 : ... .. 8 ... ...
ROW 11 : ... .. 8 ... V01 ... : ... .. 8 ... V01 ... : G-2 00 . ... : ... .. 8 ... : ... .. . ... ... : ... .. 6 ... V06 : ... .. 6 ... V06 : ... .. 5 ... ...
ROW 12 : ... .. . ... ... ... : ... .. . ... ... ... : F#2 00 . ... : ... .. . ... : ... .. . ... ... : ... .. . ... ... : ... .. . ... ... : ... .. . ... ...
ROW 13 : ... .. 6 ... ... ... : ... .. 6 ... ... ... : C#2 00 . ... : ... .. 5 ... : ... .. . ... ... : ... .. . ... ... : ... .. . ... ... : ... .. . ... ...
ROW 14 : ... .. . ... ... ... : ... .. . ... ... ... : ... .. . ... : ... .. 4 ... : ... .. . ... ... : ... .. . ... ... : ... .. . ... ... : ... .. . ... ...
ROW 15 : ... .. . ... ... ... : ... .. . ... ... ... : ... .. . ... : ... .. 3 ... : ... .. . ... ... : ... .. . ... ... : ... .. . ... ... : ... .. . ... ...
ROW 16 : ... .. . ... ... ... : ... .. . ... ... ... : ... .. . ... : ... .. . ... : ... .. . ... ... : ... .. 2 ... V05 : ... .. 2 ... V05 : F-3 01 A ... ...
ROW 17 : ... .. . ... ... ... : ... .. . ... ... ... : ... .. . ... : ... .. 2 ... : ... .. . ... ... : ... .. 4 ... V07 : ... .. 4 ... V07 : ... .. 8 ... ...
ROW 18 : ... .. . ... ... ... : ... .. . ... ... ... : ... .. . ... : ... .. . ... : ... .. . ... ... : ... .. 6 ... V06 : ... .. 6 ... V06 : ... .. 5 ... ...
ROW 19 : ... .. . ... ... ... : ... .. . ... ... ... : ... .. . ... : ... .. 1 ... : ... .. . ... ... : ... .. . ... ... : ... .. . ... ... : ... .. . ... ...
ROW 1A : ... .. 7 ... ... ... : ... .. 7 ... ... ... : ... .. . ... : ... .. . ... : ... .. . ... ... : ... .. 1 ... ... : ... .. 1 ... ... : ... .. 1 ... ...
ROW 1B : ... .. . ... ... ... : ... .. . ... ... ... : ... .. . ... : ... .. . ... : ... .. . ... ... : ... .. . ... ... : ... .. . ... ... : ... .. . ... ...
ROW 1C : ... .. 8 ... ... ... : ... .. 8 ... ... ... : ... .. . ... : ... .. . ... : ... .. . ... ... : ... .. . ... ... : ... .. . ... ... : ... .. . ... ...
ROW 1D : C-4 00 1 ... ... ... : C-4 00 1 ... ... ... : --- .. . ... : ... .. 6 ... : ... .. . ... ... : ... .. 2 ... V05 : ... .. 2 ... V05 : F#3 01 A ... ...
ROW 1E : ... .. 4 ... V02 ... : ... .. 4 ... V02 ... : ... .. . ... : ... .. 5 ... : ... .. . ... ... : ... .. 4 ... V07 : ... .. 4 ... V07 : ... .. 8 ... ...
ROW 1F : ... .. 8 ... V01 ... : ... .. 8 ... V01 ... : ... .. . ... : ... .. 4 ... : ... .. . ... ... : ... .. 6 ... V06 : ... .. 6 ... V06 : ... .. 5 ... ...
ROW 20 : ... .. . ... ... ... : ... .. . ... ... ... : ... .. . ... : ... .. 3 ... : ... .. . ... ... : ... .. . ... ... : ... .. . ... ... : ... .. . ... ...
ROW 21 : C#4 00 1 ... ... ... : C#4 00 1 ... ... ... : ... .. . ... : ... .. 1 ... : ... .. . ... ... : ... .. 1 ... ... : ... .. 1 ... ... : ... .. 1 ... ...
ROW 22 : ... .. 5 ... V02 ... : ... .. 5 ... V02 ... : ... .. . ... : ... .. . ... : ... .. . ... ... : ... .. . ... ... : ... .. . ... ... : ... .. . ... ...
ROW 23 : ... .. 9 ... V01 ... : ... .. 9 ... V01 ... : ... .. . ... : ... .. . ... : ... .. . ... ... : ... .. . ... ... : ... .. . ... ... : ... .. . ... ...
ROW 24 : D-4 00 2 ... ... ... : D-4 00 2 ... ... ... : C#4 00 . ... : ... .. C ... : ... .. . ... ... : F#3 01 2 ... V05 : D-3 01 2 ... V05 : D-4 01 A ... ...
ROW 25 : ... .. 6 ... V02 ... : ... .. 6 ... V02 ... : D#3 00 . ... : ... .. 9 ... : ... .. . ... ... : ... .. 4 ... V07 : ... .. 4 ... V07 : ... .. 8 ... ...
ROW 26 : ... .. A ... V01 ... : ... .. A ... V01 ... : G#2 00 . ... : ... .. 8 ... : ... .. . ... ... : ... .. 6 ... V06 : ... .. 6 ... V06 : ... .. 5 ... ...
ROW 27 : ... .. . ... ... ... : ... .. . ... ... ... : G-2 00 . ... : ... .. . ... : ... .. . ... ... : ... .. . ... ... : ... .. . ... ... : ... .. . ... ...
ROW 28 : ... .. . ... ... ... : ... .. . ... ... ... : D-2 00 . ... : ... .. 5 ... : ... .. . ... ... : ... .. . ... ... : ... .. . ... ... : ... .. . ... ...
ROW 29 : ... .. . ... ... ... : ... .. . ... ... ... : ... .. . ... : ... .. 4 ... : ... .. . ... ... : ... .. . ... ... : ... .. . ... ... : ... .. . ... ...
ROW 2A : ... .. . ... ... ... : ... .. . ... ... ... : ... .. . ... : ... .. 3 ... : ... .. . ... ... : ... .. . ... ... : ... .. . ... ... : ... .. . ... ...
ROW 2B : ... .. . ... ... ... : ... .. . ... ... ... : ... .. . ... : ... .. . ... : ... .. . ... ... : ... .. . ... ... : ... .. . ... ... : ... .. . ... ...
ROW 2C : ... .. . ... ... ... : ... .. . ... ... ... : ... .. . ... : ... .. 2 ... : ... .. . ... ... : ... .. . ... ... : ... .. . ... ... : ... .. . ... ...
ROW 2D : ... .. . ... ... ... : ... .. . ... ... ... : ... .. . ... : ... .. . ... : ... .. . ... ... : ... .. . ... ... : ... .. . ... ... : ... .. . ... ...
ROW 2E : ... .. . ... ... ... : ... .. . ... ... ... : ... .. . ... : ... .. 1 ... : ... .. . ... ... : ... .. . ... ... : ... .. . ... ... : ... .. . ... ...
ROW 2F : ... .. . ... ... ... : ... .. . ... ... ... : ... .. . ... : ... .. . ... : ... .. . ... ... : ... .. . ... ... : ... .. . ... ... : ... .. . ... ...
ROW 30 : ... .. . ... ... ... : ... .. . ... ... ... : ... .. . ... : ... .. . ... : ... .. . ... ... : ... .. . ... ... : ... .. . ... ... : ... .. . ... ...
ROW 31 : ... .. . ... ... ... : ... .. . ... ... ... : ... .. . ... : ... .. . ... : ... .. . ... ... : ... .. . ... ... : ... .. . ... ... : ... .. . ... ...
ROW 32 : ... .. . ... ... ... : ... .. . ... ... ... : --- .. . ... : ... .. . ... : ... .. . ... ... : ... .. . ... ... : ... .. . ... ... : ... .. . ... ...
ROW 33 : ... .. . ... ... ... : ... .. . ... ... ... : ... .. . ... : ... .. . ... : ... .. . ... ... : ... .. . ... ... : ... .. . ... ... : ... .. . ... ...
ROW 34 : ... .. . ... ... ... : ... .. . ... ... ... : ... .. . ... : ... .. 0 ... : ... .. . ... ... : ... .. . ... ... : ... .. . ... ... : ... .. . ... ...
ROW 35 : ... .. 2 ... V00 ... : ... .. 2 ... V00 ... : ... .. . ... : ... .. . ... : ... .. . ... ... : ... .. . ... ... : ... .. . ... ... : ... .. . ... ...
ROW 36 : ... .. 0 ... ... ... : ... .. 0 ... ... ... : ... .. . ... : ... .. . ... : ... .. . ... ... : ... .. 1 ... ... : ... .. 1 ... ... : ... .. 1 ... ...
ROW 37 : ... .. . ... ... ... : ... .. . ... ... ... : ... .. . ... : ... .. . ... : ... .. . ... ... : ... .. . ... ... : ... .. . ... ... : ... .. . ... ...
ROW 38 : ... .. . ... ... ... : ... .. . ... ... ... : ... .. . ... : ... .. . ... : ... .. . ... ... : ... .. . ... ... : ... .. . ... ... : ... .. . ... ...
ROW 39 : B-3 00 2 P7F V01 ... : B-3 00 2 P81 V01 ... : D-4 00 . ... : ... .. B ... : ... .. . ... ... : A-3 01 2 ... V05 : D#3 01 2 ... V05 : B-3 01 A ... ...
ROW 3A : ... .. 6 ... V02 ... : ... .. 6 ... V02 ... : E-3 00 . ... : ... .. 8 ... : ... .. . ... ... : ... .. 4 ... V07 : ... .. 4 ... V07 : ... .. 8 ... ...
ROW 3B : ... .. A ... V01 ... : ... .. A ... V01 ... : A-2 00 . ... : ... .. . ... : ... .. . ... ... : ... .. 6 ... V06 : ... .. 6 ... V06 : ... .. 5 ... ...
ROW 3C : ... .. . ... ... ... : ... .. . ... ... ... : G#2 00 . ... : ... .. 6 ... : ... .. . ... ... : ... .. . ... ... : ... .. . ... ... : ... .. . ... ...
ROW 3D : ... .. . ... ... ... : ... .. . ... ... ... : D#2 00 . ... : ... .. . ... : ... .. . ... ... : ... .. . ... ... : ... .. . ... ... : ... .. . ... ...
ROW 3E : ... .. . ... ... ... : ... .. . ... ... ... : ... .. . ... : ... .. 4 ... : ... .. . ... ... : ... .. . ... ... : ... .. . ... ... : ... .. . ... ...
ROW 3F : ... .. . ... ... ... : ... .. . ... ... ... : ... .. . ... : ... .. 3 ... : ... .. . ... ... : ... .. . ... ... : ... .. . ... ... : ... .. . ... ...
ROW 40 : ... .. . ... ... ... : ... .. . ... ... ... : ... .. . ... : ... .. 5 ... : ... .. . ... ... : ... .. . ... ... : ... .. . ... ... : ... .. . ... ...
ROW 41 : ... .. . ... ... ... : ... .. . ... ... ... : ... .. . ... : ... .. 3 ... : ... .. . ... ... : ... .. . ... ... : ... .. . ... ... : ... .. . ... ...
ROW 42 : ... .. 4 ... ... ... : ... .. 4 ... ... ... : ... .. . ... : ... .. 2 ... : ... .. . ... ... : ... .. . ... ... : ... .. . ... ... : ... .. . ... ...
ROW 43 : ... .. . ... ... ... : ... .. . ... ... ... : ... .. . ... : ... .. . ... : ... .. . ... ... : ... .. . ... ... : ... .. . ... ... : ... .. . ... ...
ROW 44 : D#4 00 1 ... ... ... : D#4 00 1 ... ... ... : ... .. . ... : ... .. 4 ... : ... .. . ... ... : ... .. . ... ... : ... .. . ... ... : ... .. . ... ...
ROW 45 : ... .. . ... V02 ... : ... .. . ... V02 ... : ... .. . ... : ... .. 2 ... : ... .. . ... ... : ... .. . ... ... : ... .. . ... ... : ... .. . ... ...
ROW 46 : E-4 00 1 ... V01 ... : E-4 00 1 ... V01 ... : ... .. . ... : ... .. . ... : ... .. . ... ... : ... .. . ... ... : ... .. . ... ... : ... .. . ... ...
ROW 47 : ... .. 3 ... V02 ... : ... .. 3 ... V02 ... : --- .. . ... : ... .. 6 ... : ... .. . ... ... : ... .. . ... ... : ... .. . ... ... : ... .. . ... ...
ROW 48 : ... .. 5 ... V01 ... : ... .. 5 ... V01 ... : ... .. . ... : ... .. 5 ... : ... .. . ... ... : ... .. . ... ... : ... .. . ... ... : ... .. . ... ...
ROW 49 : F-4 00 1 ... ... ... : F-4 00 1 ... ... ... : ... .. . ... : ... .. 4 ... : ... .. . ... ... : ... .. . ... ... : ... .. . ... ... : ... .. . ... ...
ROW 4A : ... .. 4 ... V02 ... : ... .. 4 ... V02 ... : ... .. . ... : ... .. 3 ... : ... .. . ... ... : ... .. . ... ... : ... .. . ... ... : ... .. . ... ...
ROW 4B : F#4 00 1 ... V01 ... : F#4 00 1 ... V01 ... : ... .. . ... : ... .. 9 ... : ... .. . ... ... : ... .. . ... ... : ... .. . ... ... : ... .. . ... ...
ROW 4C : ... .. 5 ... V02 ... : ... .. 5 ... V02 ... : ... .. . ... : ... .. 7 ... : ... .. . ... ... : ... .. . ... ... : ... .. . ... ... : ... .. . ... ...
ROW 4D : ... .. A ... V01 ... : ... .. A ... V01 ... : ... .. . ... : ... .. 6 ... : ... .. . ... ... : ... .. . ... ... : ... .. . ... ... : ... .. . ... ...
ROW 4E : G-4 00 1 ... ... ... : G-4 00 1 ... ... ... : D#4 00 . ... : ... .. C ... : ... .. . ... ... : E-4 01 2 ... V05 : B-3 01 2 ... V05 : G-3 01 A ... ...
ROW 4F : ... .. 4 ... V02 ... : ... .. 4 ... V02 ... : F-3 00 . ... : ... .. 9 ... : ... .. . ... ... : ... .. 4 ... V07 : ... .. 4 ... V07 : ... .. 8 ... ...
ROW 50 : ... .. 8 ... V01 ... : ... .. 8 ... V01 ... : A#2 00 . ... : ... .. 8 ... : ... .. . ... ... : ... .. 6 ... V06 : ... .. 6 ... V06 : ... .. 5 ... ...
ROW 51 : ... .. . ... ... ... : ... .. . ... ... ... : A-2 00 . ... : ... .. . ... : ... .. . ... ... : ... .. . ... ... : ... .. . ... ... : ... .. . ... ...
ROW 52 : ... .. . ... ... ... : ... .. . ... ... ... : E-2 00 . ... : ... .. 5 ... : ... .. . ... ... : ... .. . ... ... : ... .. . ... ... : ... .. . ... ...
ROW 53 : ... .. . ... ... ... : ... .. . ... ... ... : ... .. . ... : ... .. 4 ... : ... .. . ... ... : ... .. . ... ... : ... .. . ... ... : ... .. . ... ...
ROW 54 : ... .. . ... ... ... : ... .. . ... ... ... : ... .. . ... : ... .. 3 ... : ... .. . ... ... : ... .. . ... ... : ... .. . ... ... : ... .. . ... ...
ROW 55 : A-4 00 1 ... ... ... : A-4 00 1 ... ... ... : ... .. . ... : ... .. 6 ... : ... .. . ... ... : ... .. 2 ... V05 : ... .. 2 ... V05 : ... .. A ... ...
ROW 56 : ... .. 4 ... V02 ... : ... .. 4 ... V02 ... : ... .. . ... : ... .. 4 ... : ... .. . ... ... : ... .. 4 ... V07 : ... .. 4 ... V07 : ... .. 8 ... ...
ROW 57 : ... .. 8 ... V01 ... : ... .. 8 ... V01 ... : ... .. . ... : ... .. 2 ... : ... .. . ... ... : ... .. 6 ... V06 : ... .. 6 ... V06 : ... .. 5 ... ...
ROW 58 : ... .. . ... ... ... : ... .. . ... ... ... : ... .. . ... : ... .. 1 ... : ... .. . ... ... : ... .. . ... ... : ... .. . ... ... : ... .. . ... ...
ROW 59 : ... .. . ... ... ... : ... .. . ... ... ... : ... .. . ... : ... .. . ... : ... .. . ... ... : ... .. 1 ... ... : ... .. 1 ... ... : ... .. 1 ... ...
ROW 5A : ... .. 1 ... V00 ... : ... .. 1 ... V00 ... : ... .. . ... : ... .. 0 ... : ... .. . ... ... : ... .. . ... ... : ... .. . ... ... : ... .. . ... ...
ROW 5B : ... .. 0 ... ... ... : ... .. 0 ... ... ... : ... .. . ... : ... .. 1 ... : ... .. . ... ... : ... .. . ... ... : ... .. . ... ... : ... .. . ... ...
ROW 5C : G-4 00 1 P7F V01 ... : G-4 00 1 P81 V01 ... : --- .. . ... : ... .. 6 ... : ... .. . ... ... : ... .. 2 ... V05 : ... .. 2 ... V05 : ... .. A ... ...
ROW 5D : ... .. 4 ... V02 ... : ... .. 4 ... V02 ... : ... .. . ... : ... .. 4 ... : ... .. . ... ... : ... .. 4 ... V07 : ... .. 4 ... V07 : ... .. 8 ... ...
ROW 5E : ... .. 8 ... V01 ... : ... .. 8 ... V01 ... : ... .. . ... : ... .. 2 ... : ... .. . ... ... : ... .. 6 ... V06 : ... .. 6 ... V06 : ... .. 5 ... ...
ROW 5F : ... .. . ... ... ... : ... .. . ... ... ... : ... .. . ... : ... .. 1 ... : ... .. . ... ... : ... .. . ... ... : ... .. . ... ... : ... .. . ... ...
ROW 60 : ... .. . ... ... ... : ... .. . ... ... ... : ... .. . ... : ... .. . ... : ... .. . ... ... : ... .. 1 ... ... : ... .. 1 ... ... : ... .. 1 ... ...
ROW 61 : ... .. 1 ... V00 ... : ... .. 1 ... V00 ... : ... .. . ... : ... .. 0 ... : ... .. . ... ... : ... .. . ... ... : ... .. . ... ... : ... .. . ... ...
ROW 62 : ... .. 0 ... ... ... : ... .. 0 ... ... ... : ... .. . ... : ... .. 1 ... : ... .. . ... ... : ... .. . ... ... : ... .. . ... ... : ... .. . ... ...
ROW 63 : F#4 00 1 P7F V01 ... : F#4 00 1 P81 V01 ... : F-4 00 . ... : ... .. C ... : ... .. . ... ... : B-3 01 2 ... V05 : G-3 01 2 ... V05 : E-3 01 A ... ...
ROW 64 : ... .. 4 ... V02 ... : ... .. 4 ... V02 ... : G-3 00 . ... : ... .. 9 ... : ... .. . ... ... : ... .. 4 ... V07 : ... .. 4 ... V07 : ... .. 8 ... ...
ROW 65 : ... .. 8 ... V01 ... : ... .. 8 ... V01 ... : C-3 00 . ... : ... .. 8 ... : ... .. . ... ... : ... .. 6 ... V06 : ... .. 6 ... V06 : ... .. 5 ... ...
ROW 66 : ... .. . ... ... ... : ... .. . ... ... ... : B-2 00 . ... : ... .. . ... : ... .. . ... ... : ... .. . ... ... : ... .. . ... ... : ... .. . ... ...
ROW 67 : ... .. . ... ... ... : ... .. . ... ... ... : F#2 00 . ... : ... .. 5 ... : ... .. . ... ... : ... .. . ... ... : ... .. . ... ... : ... .. . ... ...
ROW 68 : ... .. . ... ... ... : ... .. . ... ... ... : ... .. . ... : ... .. 4 ... : ... .. . ... ... : ... .. . ... ... : ... .. . ... ... : ... .. . ... ...
ROW 69 : ... .. . ... ... ... : ... .. . ... ... ... : ... .. . ... : ... .. 3 ... : ... .. . ... ... : ... .. . ... ... : ... .. . ... ... : ... .. . ... ...
ROW 6A : G-4 00 1 ... ... ... : G-4 00 1 ... ... ... : ... .. . ... : ... .. . ... : ... .. . ... ... : ... .. 2 ... V05 : ... .. 2 ... V05 : ... .. A ... ...
ROW 6B : ... .. 4 ... V02 ... : ... .. 4 ... V02 ... : ... .. . ... : ... .. 2 ... : ... .. . ... ... : ... .. 4 ... V07 : ... .. 4 ... V07 : ... .. 8 ... ...
ROW 6C : ... .. 8 ... V01 ... : ... .. 8 ... V01 ... : ... .. . ... : ... .. . ... : ... .. . ... ... : ... .. 6 ... V06 : ... .. 6 ... V06 : ... .. 5 ... ...
ROW 6D : ... .. . ... ... ... : ... .. . ... ... ... : ... .. . ... : ... .. 1 ... : ... .. . ... ... : ... .. . ... ... : ... .. . ... ... : ... .. . ... ...
ROW 6E : ... .. . ... ... ... : ... .. . ... ... ... : ... .. . ... : ... .. . ... : ... .. . ... ... : ... .. 1 ... ... : ... .. 1 ... ... : ... .. 1 ... ...
ROW 6F : ... .. 1 ... V00 ... : ... .. 1 ... V00 ... : ... .. . ... : ... .. . ... : ... .. . ... ... : ... .. . ... ... : ... .. . ... ... : ... .. . ... ...
ROW 70 : ... .. 0 ... ... ... : ... .. 0 ... ... ... : ... .. . ... : ... .. . ... : ... .. . ... ... : ... .. . ... ... : ... .. . ... ... : ... .. . ... ...
ROW 71 : A-4 00 1 P7F V01 ... : A-4 00 1 P81 V01 ... : --- .. . ... : ... .. 6 ... : ... .. . ... ... : ... .. 2 ... V05 : ... .. 2 ... V05 : ... .. A ... ...
ROW 72 : ... .. 4 ... V02 ... : ... .. 4 ... V02 ... : ... .. . ... : ... .. 5 ... : ... .. . ... ... : ... .. 4 ... V07 : ... .. 4 ... V07 : ... .. 8 ... ...
ROW 73 : ... .. 8 ... V01 ... : ... .. 8 ... V01 ... : ... .. . ... : ... .. 4 ... : ... .. . ... ... : ... .. 6 ... V06 : ... .. 6 ... V06 : ... .. 5 ... ...
ROW 74 : ... .. . ... ... ... : ... .. . ... ... ... : ... .. . ... : ... .. 3 ... : ... .. . ... ... : ... .. . ... ... : ... .. . ... ... : ... .. . ... ...
ROW 75 : ... .. . ... ... ... : ... .. . ... ... ... : ... .. . ... : ... .. 1 ... : ... .. . ... ... : ... .. 1 ... ... : ... .. 1 ... ... : ... .. 1 ... ...
ROW 76 : ... .. 1 ... V00 ... : ... .. 1 ... V00 ... : ... .. . ... : ... .. . ... : ... .. . ... ... : ... .. . ... ... : ... .. . ... ... : ... .. . ... ...
ROW 77 : ... .. 0 ... ... ... : ... .. 0 ... ... ... : ... .. . ... : ... .. . ... : ... .. . ... ... : ... .. . ... ... : ... .. . ... ... : ... .. . ... ...
ROW 78 : A#4 00 2 P7F V01 ... : A#4 00 2 P81 V01 ... : F#4 00 . ... : ... .. C ... : ... .. . ... ... : ... .. 2 ... V05 : E-3 01 2 ... V05 : C#3 01 A ... ...
ROW 79 : ... .. 6 ... V02 ... : ... .. 6 ... V02 ... : G#3 00 . ... : ... .. 9 ... : ... .. . ... ... : ... .. 4 ... V07 : ... .. 4 ... V07 : ... .. 8 ... ...
ROW 7A : ... .. 9 ... V01 ... : B-4 00 1 ... V01 ... : C#3 00 . ... : ... .. 8 ... : ... .. . ... ... : ... .. 6 ... V06 : ... .. 6 ... V06 : ... .. 5 ... ...
ROW 7B : ... .. . ... ... ... : ... .. 5 ... V02 ... : C-3 00 . ... : ... .. . ... : ... .. . ... ... : ... .. . ... ... : ... .. . ... ... : ... .. . ... ...
ROW 7C : B-4 00 2 ... ... ... : ... .. A ... V01 ... : G-2 00 . ... : ... .. 5 ... : ... .. . ... ... : ... .. . ... ... : ... .. . ... ... : ... .. . ... ...
ROW 7D : ... .. 6 ... V02 ... : ... .. . ... ... ... : ... .. . ... : ... .. 4 ... : ... .. . ... ... : ... .. . ... ... : ... .. . ... ... : ... .. . ... ...
ROW 7E : ... .. 8 ... V01 ... : ... .. 8 ... ... ... : ... .. . ... : ... .. 3 ... : ... .. . ... ... : ... .. . ... ... : ... .. . ... ... : ... .. . ... ...
ROW 7F : ... .. . ... ... ... : ... .. . ... ... ... : ... .. . ... : ... .. . ... : ... .. . ... ... : G-3 01 2 ... V05 : ... .. 2 ... V05 : ... .. A ... ...
ROW 80 : ... .. . ... ... ... : ... .. . ... ... ... : ... .. . ... : ... .. 2 ... : ... .. . ... ... : ... .. 4 ... V07 : ... .. 4 ... V07 : ... .. 8 ... ...
ROW 81 : ... .. . ... ... ... : ... .. . ... ... ... : ... .. . ... : ... .. . ... : ... .. . ... ... : ... .. 6 ... V06 : ... .. 6 ... V06 : ... .. 5 ... ...
ROW 82 : ... .. . ... ... ... : ... .. . ... ... ... : ... .. . ... : ... .. 1 ... : ... .. . ... ... : ... .. . ... ... : ... .. . ... ... : ... .. . ... ...
ROW 83 : ... .. 7 ... ... ... : ... .. 7 ... ... ... : ... .. . ... : ... .. . ... : ... .. . ... ... : ... .. 1 ... ... : ... .. 1 ... ... : ... .. 1 ... ...
ROW 84 : ... .. 1 ... V00 ... : ... .. 1 ... V00 ... : ... .. . ... : ... .. . ... : ... .. . ... ... : ... .. . ... ... : ... .. . ... ... : ... .. . ... ...
ROW 85 : ... .. 0 ... ... ... : ... .. 0 ... ... ... : ... .. . ... : ... .. . ... : ... .. . ... ... : ... .. . ... ... : ... .. . ... ... : ... .. . ... ...
ROW 86 : G-4 00 1 P7F V01 ... : G-4 00 1 P81 V01 ... : --- .. . ... : ... .. 7 ... : ... .. . ... ... : ... .. 2 ... V05 : ... .. 2 ... V05 : ... .. A ... ...
ROW 87 : ... .. 4 ... V02 ... : ... .. 4 ... V02 ... : ... .. . ... : ... .. 5 ... : ... .. . ... ... : ... .. 4 ... V07 : ... .. 4 ... V07 : ... .. 8 ... ...
ROW 88 : ... .. 6 ... V01 ... : ... .. 6 ... V01 ... : ... .. . ... : ... .. . ... : ... .. . ... ... : ... .. 6 ... V06 : ... .. 6 ... V06 : ... .. 5 ... ...
ROW 89 : ... .. . ... ... ... : ... .. . ... ... ... : ... .. . ... : ... .. 4 ... : ... .. . ... ... : ... .. . ... ... : ... .. . ... ... : ... .. . ... ...
ROW 8A : F#4 00 1 ... ... ... : F#4 00 1 ... ... ... : ... .. . ... : ... .. 3 ... : ... .. . ... ... : ... .. 1 ... ... : ... .. 1 ... ... : ... .. 1 ... ...
ROW 8B : ... .. 4 ... V02 ... : ... .. 4 ... V02 ... : ... .. . ... : ... .. 2 ... : ... .. . ... ... : ... .. . ... ... : ... .. . ... ... : ... .. . ... ...
ROW 8C : ... .. 5 ... V01 ... : ... .. 5 ... V01 ... : ... .. . ... : ... .. 1 ... : ... .. . ... ... : ... .. . ... ... : ... .. . ... ... : ... .. . ... ...
ROW 8D : E-4 00 1 ... ... ... : E-4 00 1 ... ... ... : D#4 00 . ... : ... .. B ... : ... .. . ... ... : E-3 01 2 ... V05 : C#3 01 2 ... V05 : B-2 01 A ... ...
ROW 8E : ... .. 3 ... V02 ... : ... .. 3 ... V02 ... : F-3 00 . ... : ... .. 8 ... : ... .. . ... ... : ... .. 4 ... V07 : ... .. 4 ... V07 : ... .. 8 ... ...
ROW 8F : ... .. 5 ... V01 ... : ... .. 5 ... V01 ... : A#2 00 . ... : ... .. B ... : ... .. . ... ... : ... .. 6 ... V06 : ... .. 6 ... V06 : ... .. 5 ... ...
ROW 90 : ... .. . ... ... ... : ... .. . ... ... ... : A-2 00 . ... : ... .. 8 ... : ... .. . ... ... : ... .. . ... ... : ... .. . ... ... : ... .. . ... ...
ROW 91 : ... .. 6 ... ... ... : ... .. 6 ... ... ... : E-2 00 . ... : ... .. 6 ... : ... .. . ... ... : ... .. . ... ... : ... .. . ... ... : ... .. . ... ...
ROW 92 : ... .. . ... ... ... : ... .. . ... ... ... : ... .. . ... : ... .. 4 ... : ... .. . ... ... : ... .. . ... ... : ... .. . ... ... : ... .. . ... ...
ROW 93 : ... .. . ... ... ... : ... .. . ... ... ... : ... .. . ... : ... .. 2 ... : ... .. . ... ... : ... .. . ... ... : ... .. . ... ... : ... .. . ... ...
ROW 94 : ... .. . ... ... ... : ... .. . ... ... ... : ... .. . ... : ... .. 1 ... : ... .. . ... ... : ... .. . ... ... : ... .. . ... ... : ... .. . ... ...
ROW 95 : ... .. . ... ... ... : ... .. . ... ... ... : ... .. . ... : ... .. . ... : ... .. . ... ... : ... .. . ... ... : ... .. . ... ... : ... .. . ... ...
ROW 96 : ... .. . ... ... ... : ... .. . ... ... ... : ... .. . ... : ... .. 0 ... : ... .. . ... ... : ... .. . ... ... : ... .. . ... ... : ... .. . ... ...
ROW 97 : ... .. . ... ... ... : ... .. . ... ... ... : ... .. . ... : ... .. . ... : ... .. . ... ... : ... .. . ... ... : ... .. . ... ... : ... .. . ... ...
ROW 98 : ... .. 7 ... ... ... : ... .. 7 ... ... ... : ... .. . ... : ... .. . ... : ... .. . ... ... : ... .. 1 ... ... : ... .. 1 ... ... : ... .. 1 ... ...
ROW 99 : ... .. 1 ... V00 ... : ... .. 1 ... V00 ... : ... .. . ... : ... .. . ... : ... .. . ... ... : ... .. . ... ... : ... .. . ... ... : ... .. . ... ...
ROW 9A : ... .. 0 ... ... ... : ... .. 0 ... ... ... : ... .. . ... : ... .. 1 ... : ... .. . ... ... : ... .. . ... ... : ... .. . ... ... : ... .. . ... ...
ROW 9B : G-4 00 1 P7F V01 ... : G-4 00 1 P81 V01 ... : --- .. . ... : ... .. 6 ... : ... .. . ... ... : G-3 01 2 ... V05 : ... .. 2 ... V05 : ... .. A ... ...
ROW 9C : ... .. 4 ... V02 ... : ... .. 4 ... V02 ... : ... .. . ... : ... .. 4 ... : ... .. . ... ... : ... .. 4 ... V07 : ... .. 4 ... V07 : ... .. 8 ... ...
ROW 9D : ... .. 8 ... V01 ... : ... .. 8 ... V01 ... : ... .. . ... : ... .. 2 ... : ... .. . ... ... : ... .. 6 ... V06 : ... .. 6 ... V06 : ... .. 5 ... ...
ROW 9E : ... .. . ... ... ... : ... .. . ... ... ... : ... .. . ... : ... .. 1 ... : ... .. . ... ... : ... .. . ... ... : ... .. . ... ... : ... .. . ... ...
ROW 9F : ... .. . ... ... ... : ... .. . ... ... ... : ... .. . ... : ... .. . ... : ... .. . ... ... : ... .. 1 ... ... : ... .. 1 ... ... : ... .. 1 ... ...
ROW A0 : ... .. 1 ... V00 ... : ... .. 1 ... V00 ... : ... .. . ... : ... .. 0 ... : ... .. . ... ... : ... .. . ... ... : ... .. . ... ... : ... .. . ... ...
ROW A1 : ... .. 0 ... ... ... : ... .. 0 ... ... ... : ... .. . ... : ... .. 1 ... : ... .. . ... ... : ... .. . ... ... : ... .. . ... ... : ... .. . ... ...
ROW A2 : F#4 00 2 P7F V01 ... : F#4 00 2 P81 V01 ... : F-4 00 . ... : ... .. C ... : ... .. . ... ... : F#3 01 2 ... V05 : D-3 01 2 ... V05 : F#2 01 A ... ...
ROW A3 : ... .. 6 ... V02 ... : ... .. 6 ... V02 ... : G-3 00 . ... : ... .. 9 ... : ... .. . ... ... : ... .. 4 ... V07 : ... .. 4 ... V07 : ... .. 8 ... ...
ROW A4 : ... .. A ... V01 ... : ... .. A ... V01 ... : C-3 00 . ... : ... .. 8 ... : ... .. . ... ... : ... .. 6 ... V06 : ... .. 6 ... V06 : ... .. 5 ... ...
ROW A5 : ... .. . ... ... ... : ... .. . ... ... ... : B-2 00 . ... : ... .. . ... : ... .. . ... ... : ... .. . ... ... : ... .. . ... ... : ... .. . ... ...
ROW A6 : ... .. . ... ... ... : ... .. . ... ... ... : F#2 00 . ... : ... .. 5 ... : ... .. . ... ... : ... .. . ... ... : ... .. . ... ... : ... .. . ... ...
ROW A7 : ... .. . ... ... ... : ... .. . ... ... ... : ... .. . ... : ... .. 4 ... : ... .. . ... ... : ... .. . ... ... : ... .. . ... ... : ... .. . ... ...
ROW A8 : ... .. . ... ... ... : ... .. . ... ... ... : ... .. . ... : ... .. 3 ... : ... .. . ... ... : ... .. . ... ... : ... .. . ... ... : ... .. . ... ...
ROW A9 : ... .. 8 ... ... ... : ... .. 8 ... ... ... : ... .. . ... : ... .. 6 ... : ... .. . ... ... : ... .. 2 ... V05 : ... .. 2 ... V05 : ... .. A ... ...
ROW AA : ... .. 1 ... V00 ... : ... .. 1 ... V00 ... : ... .. . ... : ... .. 4 ... : ... .. . ... ... : ... .. 4 ... V07 : ... .. 4 ... V07 : ... .. 8 ... ...
ROW AB : ... .. 0 ... ... ... : ... .. 0 ... ... ... : ... .. . ... : ... .. 2 ... : ... .. . ... ... : ... .. 6 ... V06 : ... .. 6 ... V06 : ... .. 5 ... ...
ROW AC : ... .. . ... ... ... : ... .. . ... ... ... : ... .. . ... : ... .. 1 ... : ... .. . ... ... : ... .. . ... ... : ... .. . ... ... : ... .. . ... ...
ROW AD : ... .. . ... ... ... : ... .. . ... ... ... : ... .. . ... : ... .. . ... : ... .. . ... ... : ... .. 1 ... ... : ... .. 1 ... ... : ... .. 1 ... ...
ROW AE : ... .. . ... ... ... : ... .. . ... ... ... : ... .. . ... : ... .. 0 ... : ... .. . ... ... : ... .. . ... ... : ... .. . ... ... : ... .. . ... ...
ROW AF : ... .. . ... ... ... : ... .. . ... ... ... : ... .. . ... : ... .. 1 ... : ... .. . ... ... : ... .. . ... ... : ... .. . ... ... : ... .. . ... ...
ROW B0 : F-4 00 1 P7F V01 ... : F-4 00 1 P81 V01 ... : --- .. . ... : ... .. 6 ... : ... .. . ... ... : ... .. 2 ... V05 : ... .. 2 ... V05 : ... .. A ... ...
ROW B1 : ... .. 4 ... V02 ... : ... .. 4 ... V02 ... : ... .. . ... : ... .. 4 ... : ... .. . ... ... : ... .. 4 ... V07 : ... .. 4 ... V07 : ... .. 8 ... ...
ROW B2 : ... .. 8 ... V01 ... : ... .. 8 ... V01 ... : ... .. . ... : ... .. 2 ... : ... .. . ... ... : ... .. 6 ... V06 : ... .. 6 ... V06 : ... .. 5 ... ...
ROW B3 : ... .. . ... ... ... : ... .. . ... ... ... : ... .. . ... : ... .. 1 ... : ... .. . ... ... : ... .. . ... ... : ... .. . ... ... : ... .. . ... ...
ROW B4 : ... .. . ... ... ... : ... .. . ... ... ... : ... .. . ... : ... .. . ... : ... .. . ... ... : ... .. 1 ... ... : ... .. 1 ... ... : ... .. 1 ... ...
ROW B5 : ... .. 1 ... V00 ... : ... .. 1 ... V00 ... : ... .. . ... : ... .. 0 ... : ... .. . ... ... : ... .. . ... ... : ... .. . ... ... : ... .. . ... ...
ROW B6 : ... .. 0 ... ... ... : ... .. 0 ... ... ... : ... .. . ... : ... .. 1 ... : ... .. . ... ... : ... .. . ... ... : ... .. . ... ... : ... .. . ... ...
ROW B7 : F#4 00 1 P7F V01 ... : F#4 00 1 P81 V01 ... : A#4 00 . ... : ... .. C ... : ... .. . ... ... : B-3 01 2 ... V05 : F#3 01 2 ... V05 : B-2 01 A ... ...
ROW B8 : ... .. 4 ... V02 ... : ... .. 4 ... V02 ... : C-4 00 . ... : ... .. 9 ... : ... .. . ... ... : ... .. 4 ... V07 : ... .. 4 ... V07 : ... .. 8 ... ...
ROW B9 : ... .. 8 ... V01 ... : ... .. 8 ... V01 ... : F-3 00 . ... : ... .. 8 ... : ... .. . ... ... : ... .. 6 ... V06 : ... .. 6 ... V06 : ... .. 5 ... ...
ROW BA : ... .. . ... ... ... : ... .. . ... ... ... : E-3 00 . ... : ... .. . ... : ... .. . ... ... : ... .. . ... ... : ... .. . ... ... : ... .. . ... ...
ROW BB : ... .. . ... ... ... : ... .. . ... ... ... : B-2 00 . ... : ... .. 5 ... : ... .. . ... ... : ... .. . ... ... : ... .. . ... ... : ... .. . ... ...
ROW BC : ... .. . ... ... ... : ... .. . ... ... ... : ... .. . ... : ... .. 4 ... : ... .. . ... ... : ... .. . ... ... : ... .. . ... ... : ... .. . ... ...
ROW BD : ... .. . ... ... ... : ... .. . ... ... ... : ... .. . ... : ... .. 3 ... : ... .. . ... ... : ... .. . ... ... : ... .. . ... ... : ... .. . ... ...
ROW BE : ... .. . ... ... ... : ... .. . ... ... ... : ... .. . ... : ... .. . ... : ... .. . ... ... : ... .. 2 ... V05 : ... .. 2 ... V05 : ... .. A ... ...
ROW BF : ... .. . ... ... ... : ... .. . ... ... ... : ... .. . ... : ... .. 2 ... : ... .. . ... ... : ... .. 4 ... V07 : ... .. 4 ... V07 : ... .. 8 ... ...
ROW C0 : ... .. . ... ... ... : ... .. . ... ... ... : ... .. . ... : ... .. . ... : ... .. . ... ... : ... .. 6 ... V06 : ... .. 6 ... V06 : ... .. 5 ... ...
ROW C1 : ... .. . ... ... ... : ... .. . ... ... ... : ... .. . ... : ... .. 1 ... : ... .. . ... ... : ... .. . ... ... : ... .. . ... ... : ... .. . ... ...
ROW C2 : ... .. . ... ... ... : ... .. . ... ... ... : ... .. . ... : ... .. . ... : ... .. . ... ... : ... .. 1 ... ... : ... .. 1 ... ... : ... .. 1 ... ...
ROW C3 : ... .. 1 ... V00 ... : ... .. 1 ... V00 ... : ... .. . ... : ... .. . ... : ... .. . ... ... : ... .. . ... ... : ... .. . ... ... : ... .. . ... ...
ROW C4 : ... .. 0 ... ... ... : ... .. 0 ... ... ... : ... .. . ... : ... .. . ... : ... .. . ... ... : ... .. . ... ... : ... .. . ... ... : ... .. . ... ...
ROW C5 : F-4 00 1 P7F V01 ... : F-4 00 1 P81 V01 ... : --- .. . ... : ... .. 6 ... : ... .. . ... ... : ... .. 2 ... V05 : ... .. 2 ... V05 : ... .. A ... ...
ROW C6 : ... .. 4 ... V02 ... : ... .. 4 ... V02 ... : ... .. . ... : ... .. 5 ... : ... .. . ... ... : ... .. 4 ... V07 : ... .. 4 ... V07 : ... .. 8 ... ...
ROW C7 : ... .. 8 ... V01 ... : ... .. 8 ... V01 ... : ... .. . ... : ... .. 4 ... : ... .. . ... ... : ... .. 6 ... V06 : ... .. 6 ... V06 : ... .. 5 ... ...
ROW C8 : ... .. . ... ... ... : ... .. . ... ... ... : ... .. . ... : ... .. 3 ... : ... .. . ... ... : ... .. . ... ... : ... .. . ... ... : ... .. . ... ...
ROW C9 : ... .. . ... ... ... : ... .. . ... ... ... : ... .. . ... : ... .. 1 ... : ... .. . ... ... : ... .. 1 ... ... : ... .. 1 ... ... : ... .. 1 ... ...
ROW CA : ... .. 1 ... V00 ... : ... .. 1 ... V00 ... : ... .. . ... : ... .. . ... : ... .. . ... ... : ... .. . ... ... : ... .. . ... ... : ... .. . ... ...
ROW CB : ... .. 0 ... ... ... : ... .. 0 ... ... ... : ... .. . ... : ... .. . ... : ... .. . ... ... : ... .. . ... ... : ... .. . ... ... : ... .. . ... ...
ROW CC : F#4 00 1 P7F V01 ... : F#4 00 1 P81 V01 ... : C#5 00 . ... : ... .. C ... : ... .. . ... ... : D-4 01 2 ... V05 : B-3 01 2 ... V05 : D-3 01 A ... ...
ROW CD : ... .. 4 ... V02 ... : ... .. 4 ... V02 ... : D#4 00 . ... : ... .. 9 ... : ... .. . ... ... : ... .. 4 ... V07 : ... .. 4 ... V07 : ... .. 8 ... ...
ROW CE : ... .. 7 ... V01 ... : ... .. 7 ... V01 ... : G#3 00 . ... : ... .. 8 ... : ... .. . ... ... : ... .. 6 ... V06 : ... .. 6 ... V06 : ... .. 5 ... ...
ROW CF : ... .. . ... ... ... : ... .. . ... ... ... : G-3 00 . ... : ... .. . ... : ... .. . ... ... : ... .. . ... ... : ... .. . ... ... : ... .. . ... ...
ROW D0 : ... .. 6 ... ... ... : ... .. 6 ... ... ... : D-3 00 . ... : ... .. 5 ... : ... .. . ... ... : ... .. . ... ... : ... .. . ... ... : ... .. . ... ...
ROW D1 : ... .. . ... ... ... : ... .. . ... ... ... : ... .. . ... : ... .. 4 ... : ... .. . ... ... : ... .. . ... ... : ... .. . ... ... : ... .. . ... ...
ROW D2 : ... .. . ... ... ... : ... .. . ... ... ... : ... .. . ... : ... .. 3 ... : ... .. . ... ... : ... .. . ... ... : ... .. . ... ... : ... .. . ... ...
ROW D3 : ... .. . ... ... ... : ... .. . ... ... ... : ... .. . ... : ... .. . ... : ... .. . ... ... : ... .. 2 ... V05 : ... .. 2 ... V05 : ... .. A ... ...
ROW D4 : ... .. . ... ... ... : ... .. . ... ... ... : ... .. . ... : ... .. 2 ... : ... .. . ... ... : ... .. 4 ... V07 : ... .. 4 ... V07 : ... .. 8 ... ...
ROW D5 : ... .. 5 ... ... ... : ... .. 5 ... ... ... : ... .. . ... : ... .. . ... : ... .. . ... ... : ... .. 6 ... V06 : ... .. 6 ... V06 : ... .. 5 ... ...
ROW D6 : ... .. . ... ... ... : ... .. . ... ... ... : ... .. . ... : ... .. 1 ... : ... .. . ... ... : ... .. . ... ... : ... .. . ... ... : ... .. . ... ...
ROW D7 : ... .. 4 ... ... ... : ... .. 4 ... ... ... : ... .. . ... : ... .. . ... : ... .. . ... ... : ... .. 1 ... ... : ... .. 1 ... ... : ... .. 1 ... ...
ROW D8 : ... .. . ... ... ... : ... .. . ... ... ... : ... .. . ... : ... .. . ... : ... .. . ... ... : ... .. . ... ... : ... .. . ... ... : ... .. . ... ...
ROW D9 : ... .. . ... ... ... : ... .. . ... ... ... : ... .. . ... : ... .. . ... : ... .. . ... ... : ... .. . ... ... : ... .. . ... ... : ... .. . ... ...
ROW DA : ... .. . ... ... ... : ... .. . ... ... ... : --- .. . ... : ... .. . ... : ... .. . ... ... : ... .. 2 ... V05 : ... .. 2 ... V05 : ... .. A ... ...
ROW DB : ... .. . ... ... ... : ... .. . ... ... ... : ... .. . ... : ... .. . ... : ... .. . ... ... : ... .. 4 ... V07 : ... .. 4 ... V07 : ... .. 8 ... ...
ROW DC : ... .. 3 ... ... ... : ... .. 3 ... ... ... : ... .. . ... : ... .. 0 ... : ... .. . ... ... : ... .. 6 ... V06 : ... .. 6 ... V06 : ... .. 5 ... ...
ROW DD : ... .. . ... ... ... : ... .. . ... ... ... : ... .. . ... : ... .. . ... : ... .. . ... ... : ... .. . ... ... : ... .. . ... ... : ... .. . ... ...
ROW DE : ... .. . ... ... ... : ... .. . ... ... ... : ... .. . ... : ... .. . ... : ... .. . ... ... : ... .. 1 ... ... : ... .. 1 ... ... : ... .. 1 ... ...
ROW DF : ... .. . ... ... ... : ... .. . ... ... ... : ... .. . ... : ... .. . ... : ... .. . ... ... : ... .. . ... ... : ... .. . ... ... : ... .. . ... ...
ROW E0 : ... .. 2 ... ... ... : ... .. 2 ... ... ... : ... .. . ... : ... .. . ... : ... .. . ... ... : ... .. . ... ... : ... .. . ... ... : ... .. . ... ...
ROW E1 : D-4 00 1 ... ... ... : D-4 00 1 ... ... ... : F-5 00 . ... : ... .. B ... : ... .. . ... ... : F#4 01 2 ... V05 : D-4 01 2 ... V05 : F#3 01 A ... ...
ROW E2 : ... .. . ... V02 ... : ... .. . ... V02 ... : G-4 00 . ... : ... .. 8 ... : ... .. . ... ... : ... .. 4 ... V07 : ... .. 4 ... V07 : ... .. 8 ... ...
ROW E3 : ... .. 2 ... V01 ... : ... .. 2 ... V01 ... : C-4 00 . ... : ... .. . ... : ... .. . ... ... : ... .. 6 ... V06 : ... .. 6 ... V06 : ... .. 5 ... ...
ROW E4 : ... .. . ... ... ... : ... .. . ... ... ... : B-3 00 . ... : ... .. 6 ... : ... .. . ... ... : ... .. . ... ... : ... .. . ... ... : ... .. . ... ...
ROW E5 : ... .. 3 ... ... ... : ... .. 3 ... ... ... : F#3 00 . ... : ... .. . ... : ... .. . ... ... : ... .. . ... ... : ... .. . ... ... : ... .. . ... ...
ROW E6 : ... .. . ... ... ... : ... .. . ... ... ... : ... .. . ... : ... .. 4 ... : ... .. . ... ... : ... .. . ... ... : ... .. . ... ... : ... .. . ... ...
ROW E7 : ... .. 4 ... ... ... : ... .. 4 ... ... ... : ... .. . ... : ... .. 3 ... : ... .. . ... ... : ... .. . ... ... : ... .. . ... ... : ... .. . ... ...
ROW E8 : ... .. . ... ... ... : ... .. . ... ... ... : ... .. . ... : ... .. 5 ... : ... .. . ... ... : ... .. . ... ... : ... .. . ... ... : ... .. . ... ...
ROW E9 : ... .. . ... ... ... : ... .. . ... ... ... : ... .. . ... : ... .. 3 ... : ... .. . ... ... : ... .. . ... ... : ... .. . ... ... : ... .. . ... ...
ROW EA : ... .. 5 ... ... ... : ... .. 5 ... ... ... : ... .. . ... : ... .. 2 ... : ... .. . ... ... : ... .. . ... ... : ... .. . ... ... : ... .. . ... ...
ROW EB : ... .. . ... ... ... : ... .. . ... ... ... : ... .. . ... : ... .. . ... : ... .. . ... ... : ... .. . ... ... : ... .. . ... ... : ... .. . ... ...
ROW EC : E-4 00 1 ... ... ... : E-4 00 1 ... ... ... : ... .. . ... : ... .. 4 ... : ... .. . ... ... : ... .. . ... ... : ... .. . ... ... : ... .. . ... ...
ROW ED : ... .. 3 ... V02 ... : ... .. 3 ... V02 ... : ... .. . ... : ... .. 2 ... : ... .. . ... ... : ... .. . ... ... : ... .. . ... ... : ... .. . ... ...
ROW EE : ... .. 6 ... V01 ... : ... .. 6 ... V01 ... : ... .. . ... : ... .. . ... : ... .. . ... ... : ... .. . ... ... : ... .. . ... ... : ... .. . ... ...
ROW EF : D-4 00 1 ... ... ... : D-4 00 1 ... ... ... : --- .. . ... : ... .. 6 ... : ... .. . ... ... : ... .. . ... ... : ... .. . ... ... : ... .. . ... ...
ROW F0 : ... .. 4 ... V02 ... : ... .. 4 ... V02 ... : ... .. . ... : ... .. 5 ... : ... .. . ... ... : ... .. . ... ... : ... .. . ... ... : ... .. . ... ...
ROW F1 : ... .. 8 ... V01 ... : ... .. 8 ... V01 ... : ... .. . ... : ... .. 4 ... : ... .. . ... ... : ... .. . ... ... : ... .. . ... ... : ... .. . ... ...
ROW F2 : ... .. . ... ... ... : ... .. . ... ... ... : ... .. . ... : ... .. 3 ... : ... .. . ... ... : ... .. . ... ... : ... .. . ... ... : ... .. . ... ...
ROW F3 : ... .. . ... ... ... : ... .. . ... ... ... : ... .. . ... : ... .. 9 ... : ... .. . ... ... : ... .. 1 ... ... : ... .. 1 ... ... : ... .. 1 ... ...
ROW F4 : ... .. . ... ... ... : ... .. . ... ... ... : ... .. . ... : ... .. 7 ... : ... .. . ... ... : ... .. . ... ... : ... .. . ... ... : ... .. . ... ...
ROW F5 : ... .. 9 ... ... ... : ... .. 9 ... ... ... : ... .. . ... : ... .. 6 ... : ... .. . ... ... : ... .. . ... ... : ... .. . ... ... : ... .. . ... ...
ROW F6 : C#4 00 2 ... ... ... : C#4 00 2 ... ... ... : C-5 00 . ... : ... .. C ... : ... .. . ... ... : E-3 01 2 ... V05 : C#3 01 2 ... V05 : C#4 01 A ... ...
ROW F7 : ... .. 6 ... V02 ... : ... .. 6 ... V02 ... : D-4 00 . ... : ... .. 9 ... : ... .. . ... ... : ... .. 4 ... V07 : ... .. 4 ... V07 : ... .. 8 ... ...
ROW F8 : ... .. A ... V01 ... : ... .. A ... V01 ... : G-3 00 . ... : ... .. 8 ... : ... .. . ... ... : ... .. 6 ... V06 : ... .. 6 ... V06 : ... .. 5 ... ...
ROW F9 : ... .. . ... ... ... : ... .. . ... ... ... : F#3 00 . ... : ... .. . ... : ... .. . ... ... : ... .. . ... ... : ... .. . ... ... : ... .. . ... ...
ROW FA : ... .. . ... ... ... : ... .. . ... ... ... : C#3 00 . ... : ... .. 5 ... : ... .. . ... ... : ... .. . ... ... : ... .. . ... ... : ... .. . ... ...
ROW FB : ... .. . ... ... ... : ... .. . ... ... ... : ... .. . ... : ... .. 4 ... : ... .. . ... ... : ... .. . ... ... : ... .. . ... ... : ... .. . ... ...
ROW FC : ... .. . ... ... ... : ... .. . ... ... ... : ... .. . ... : ... .. 3 ... : ... .. . ... ... : ... .. . ... ... : ... .. . ... ... : ... .. . ... ...
ROW FD : C-4 00 1 ... ... ... : C-4 00 2 ... ... ... : ... .. . ... : ... .. 6 ... : ... .. . ... ... : ... .. 2 ... V05 : ... .. 2 ... V05 : A#3 01 A ... ...
ROW FE : ... .. 4 ... V02 ... : ... .. 6 ... V02 ... : ... .. . ... : ... .. 4 ... : ... .. . ... ... : ... .. 4 ... V07 : ... .. 4 ... V07 : ... .. 8 ... ...
ROW FF : ... .. 8 ... V01 ... : ... .. A ... V01 ... : ... .. . ... : ... .. 2 ... : ... .. . ... ... : ... .. 6 ... V06 : ... .. 6 ... V06 : ... .. 5 ... ...

PATTERN 05
ROW 00 : ... .. . ... ... ... : ... .. . ... ... ... : ... .. . ... : ... .. 1 ... : ... .. . ... ... : ... .. . ... ... : ... .. . ... ... : ... .. . ... ...
ROW 01 : ... .. . ... ... ... : ... .. . ... ... ... : ... .. . ... : ... .. . ... : ... .. . ... ... : ... .. 1 ... ... : ... .. 1 ... ... : ... .. 1 ... ...
ROW 02 : ... .. 1 ... V00 ... : ... .. 2 ... V00 ... : ... .. . ... : ... .. 0 ... : ... .. . ... ... : ... .. . ... ... : ... .. . ... ... : ... .. . ... ...
ROW 03 : ... .. 0 ... ... ... : ... .. 0 ... ... ... : ... .. . ... : ... .. 1 ... : ... .. . ... ... : ... .. . ... ... : ... .. . ... ... : ... .. . ... ...
ROW 04 : C#4 00 1 P7F V01 ... : C#4 00 2 P81 V01 ... : --- .. . ... : ... .. 6 ... : ... .. . ... ... : ... .. 2 ... V05 : ... .. 2 ... V05 : F#3 01 A ... ...
ROW 05 : ... .. 4 ... V02 ... : ... .. 6 ... V02 ... : ... .. . ... : ... .. 4 ... : ... .. . ... ... : ... .. 4 ... V07 : ... .. 4 ... V07 : ... .. 8 ... ...
ROW 06 : ... .. 8 ... V01 ... : ... .. A ... V01 ... : ... .. . ... : ... .. 2 ... : ... .. . ... ... : ... .. 6 ... V06 : ... .. 6 ... V06 : ... .. 5 ... ...
ROW 07 : ... .. . ... ... ... : ... .. . ... ... ... : ... .. . ... : ... .. 1 ... : ... .. . ... ... : ... .. . ... ... : ... .. . ... ... : ... .. . ... ...
ROW 08 : ... .. . ... ... ... : ... .. . ... ... ... : ... .. . ... : ... .. . ... : ... .. . ... ... : ... .. 1 ... ... : ... .. 1 ... ... : ... .. 1 ... ...
ROW 09 : ... .. 1 ... V00 ... : ... .. 2 ... V00 ... : ... .. . ... : ... .. 0 ... : ... .. . ... ... : ... .. . ... ... : ... .. . ... ... : ... .. . ... ...
ROW 0A : ... .. 0 ... ... ... : ... .. 0 ... ... ... : ... .. . ... : ... .. 1 ... : ... .. . ... ... : ... .. . ... ... : ... .. . ... ... : ... .. . ... ...
ROW 0B : D-4 00 1 P7F V01 ... : D-4 00 2 P81 V01 ... : F-4 00 . ... : ... .. C ... : ... .. . ... ... : C#3 01 2 ... V05 : A#2 01 2 ... V05 : C#4 01 A ... ...
ROW 0C : ... .. 4 ... V02 ... : ... .. 6 ... V02 ... : G-3 00 . ... : ... .. 9 ... : ... .. . ... ... : ... .. 4 ... V07 : ... .. 4 ... V07 : ... .. 8 ... ...
ROW 0D : ... .. 8 ... V01 ... : ... .. A ... V01 ... : C-3 00 . ... : ... .. 8 ... : ... .. . ... ... : ... .. 6 ... V06 : ... .. 6 ... V06 : ... .. 5 ... ...
ROW 0E : ... .. . ... ... ... : ... .. . ... ... ... : B-2 00 . ... : ... .. . ... : ... .. . ... ... : ... .. . ... ... : ... .. . ... ... : ... .. . ... ...
ROW 0F : ... .. . ... ... ... : ... .. . ... ... ... : F#2 00 . ... : ... .. 5 ... : ... .. . ... ... : ... .. . ... ... : ... .. . ... ... : ... .. . ... ...
ROW 10 : ... .. . ... ... ... : ... .. . ... ... ... : ... .. . ... : ... .. 4 ... : ... .. . ... ... : ... .. . ... ... : ... .. . ... ... : ... .. . ... ...
ROW 11 : ... .. . ... ... ... : ... .. . ... ... ... : ... .. . ... : ... .. 3 ... : ... .. . ... ... : ... .. . ... ... : ... .. . ... ... : ... .. . ... ...
ROW 12 : E-4 00 1 ... ... ... : E-4 00 2 ... ... ... : ... .. . ... : ... .. 6 ... : ... .. . ... ... : ... .. 2 ... V05 : ... .. 2 ... V05 : A#3 01 A ... ...
ROW 13 : ... .. 4 ... V02 ... : ... .. 6 ... V02 ... : ... .. . ... : ... .. 5 ... : ... .. . ... ... : ... .. 4 ... V07 : ... .. 4 ... V07 : ... .. 8 ... ...
ROW 14 : ... .. 8 ... V01 ... : ... .. A ... V01 ... : ... .. . ... : ... .. 4 ... : ... .. . ... ... : ... .. 6 ... V06 : ... .. 6 ... V06 : ... .. 5 ... ...
ROW 15 : ... .. . ... ... ... : ... .. . ... ... ... : ... .. . ... : ... .. 3 ... : ... .. . ... ... : ... .. . ... ... : ... .. . ... ... : ... .. . ... ...
ROW 16 : ... .. . ... ... ... : ... .. . ... ... ... : ... .. . ... : ... .. 1 ... : ... .. . ... ... : ... .. 1 ... ... : ... .. 1 ... ... : ... .. 1 ... ...
ROW 17 : ... .. 1 ... V00 ... : ... .. 2 ... V00 ... : ... .. . ... : ... .. . ... : ... .. . ... ... : ... .. . ... ... : ... .. . ... ... : ... .. . ... ...
ROW 18 : ... .. 0 ... ... ... : ... .. 0 ... ... ... : ... .. . ... : ... .. . ... : ... .. . ... ... : ... .. . ... ... : ... .. . ... ... : ... .. . ... ...
ROW 19 : F-4 00 1 P7F V01 ... : F-4 00 2 P81 V01 ... : --- .. . ... : ... .. 6 ... : ... .. . ... ... : ... .. 2 ... V05 : ... .. 2 ... V05 : F#3 01 A ... ...
ROW 1A : ... .. 4 ... V02 ... : ... .. 6 ... V02 ... : ... .. . ... : ... .. 5 ... : ... .. . ... ... : ... .. 4 ... V07 : ... .. 4 ... V07 : ... .. 8 ... ...
ROW 1B : ... .. 8 ... V01 ... : ... .. A ... V01 ... : ... .. . ... : ... .. 4 ... : ... .. . ... ... : ... .. 6 ... V06 : ... .. 6 ... V06 : ... .. 5 ... ...
ROW 1C : ... .. . ... ... ... : ... .. . ... ... ... : ... .. . ... : ... .. 3 ... : ... .. . ... ... : ... .. . ... ... : ... .. . ... ... : ... .. . ... ...
ROW 1D : ... .. . ... ... ... : ... .. . ... ... ... : ... .. . ... : ... .. 1 ... : ... .. . ... ... : ... .. 1 ... ... : ... .. 1 ... ... : ... .. 1 ... ...
ROW 1E : ... .. 1 ... V00 ... : ... .. 2 ... V00 ... : ... .. . ... : ... .. . ... : ... .. . ... ... : ... .. . ... ... : ... .. . ... ... : ... .. . ... ...
ROW 1F : ... .. 0 ... ... ... : ... .. 0 ... ... ... : ... .. . ... : ... .. . ... : ... .. . ... ... : ... .. . ... ... : ... .. . ... ... : ... .. . ... ...
ROW 20 : F#4 00 2 P7F V01 ... : F#4 00 2 P81 V01 ... : C-5 00 . ... : ... .. C ... : ... .. . ... ... : E-3 01 2 ... V05 : C#3 01 2 ... V05 : C#4 01 A ... ...
ROW 21 : ... .. 6 ... V02 ... : ... .. 6 ... V02 ... : D-4 00 . ... : ... .. 9 ... : ... .. . ... ... : ... .. 4 ... V07 : ... .. 4 ... V07 : ... .. 8 ... ...
ROW 22 : ... .. 9 ... V01 ... : ... .. 9 ... V01 ... : G-3 00 . ... : ... .. 8 ... : ... .. . ... ... : ... .. 6 ... V06 : ... .. 6 ... V06 : ... .. 5 ... ...
ROW 23 : ... .. . ... ... ... : ... .. . ... ... ... : F#3 00 . ... : ... .. . ... : ... .. . ... ... : ... .. . ... ... : ... .. . ... ... : ... .. . ... ...
ROW 24 : ... .. 8 ... ... ... : ... .. 8 ... ... ... : C#3 00 . ... : ... .. 5 ... : ... .. . ... ... : ... .. . ... ... : ... .. . ... ... : ... .. . ... ...
ROW 25 : ... .. . ... ... ... : ... .. . ... ... ... : ... .. . ... : ... .. 4 ... : ... .. . ... ... : ... .. . ... ... : ... .. . ... ... : ... .. . ... ...
ROW 26 : ... .. . ... ... ... : ... .. . ... ... ... : ... .. . ... : ... .. 3 ... : ... .. . ... ... : ... .. . ... ... : ... .. . ... ... : ... .. . ... ...
ROW 27 : F-4 00 1 ... ... ... : F-4 00 1 ... ... ... : ... .. . ... : ... .. . ... : ... .. . ... ... : ... .. 2 ... V05 : ... .. 2 ... V05 : A#3 01 A ... ...
ROW 28 : ... .. 4 ... V02 ... : ... .. 4 ... V02 ... : ... .. . ... : ... .. 2 ... : ... .. . ... ... : ... .. 4 ... V07 : ... .. 4 ... V07 : ... .. 8 ... ...
ROW 29 : ... .. 8 ... V01 ... : ... .. 8 ... V01 ... : ... .. . ... : ... .. . ... : ... .. . ... ... : ... .. 6 ... V06 : ... .. 6 ... V06 : ... .. 5 ... ...
ROW 2A : ... .. 1 ... V00 ... : ... .. 1 ... V00 ... : ... .. . ... : ... .. 1 ... : ... .. . ... ... : ... .. . ... ... : ... .. . ... ... : ... .. . ... ...
ROW 2B : E-4 00 1 ... V01 ... : E-4 00 1 ... V01 ... : ... .. . ... : ... .. . ... : ... .. . ... ... : ... .. 1 ... ... : ... .. 1 ... ... : ... .. 1 ... ...
ROW 2C : ... .. 4 ... V02 ... : ... .. 4 ... V02 ... : ... .. . ... : ... .. . ... : ... .. . ... ... : ... .. . ... ... : ... .. . ... ... : ... .. . ... ...
ROW 2D : ... .. 6 ... V01 ... : ... .. 6 ... V01 ... : ... .. . ... : ... .. . ... : ... .. . ... ... : ... .. . ... ... : ... .. . ... ... : ... .. . ... ...
ROW 2E : D#4 00 1 ... ... ... : D#4 00 1 ... ... ... : --- .. . ... : ... .. 7 ... : ... .. . ... ... : ... .. 2 ... V05 : ... .. 2 ... V05 : F#3 01 A ... ...
ROW 2F : ... .. 4 ... V02 ... : ... .. 4 ... V02 ... : ... .. . ... : ... .. 5 ... : ... .. . ... ... : ... .. 4 ... V07 : ... .. 4 ... V07 : ... .. 8 ... ...
ROW 30 : ... .. 6 ... V01 ... : ... .. 6 ... V01 ... : ... .. . ... : ... .. . ... : ... .. . ... ... : ... .. 6 ... V06 : ... .. 6 ... V06 : ... .. 5 ... ...
ROW 31 : ... .. 1 ... V00 ... : ... .. 1 ... V00 ... : ... .. . ... : ... .. 4 ... : ... .. . ... ... : ... .. . ... ... : ... .. . ... ... : ... .. . ... ...
ROW 32 : D-4 00 1 ... V01 ... : D-4 00 1 ... V01 ... : ... .. . ... : ... .. 3 ... : ... .. . ... ... : ... .. 1 ... ... : ... .. 1 ... ... : ... .. 1 ... ...
ROW 33 : ... .. 3 ... V02 ... : ... .. 3 ... V02 ... : ... .. . ... : ... .. 2 ... : ... .. . ... ... : ... .. . ... ... : ... .. . ... ... : ... .. . ... ...
ROW 34 : ... .. 5 ... V01 ... : ... .. 5 ... V01 ... : ... .. . ... : ... .. 1 ... : ... .. . ... ... : ... .. . ... ... : ... .. . ... ... : ... .. . ... ...
ROW 35 : C#4 00 1 ... ... ... : C#4 00 1 ... ... ... : F-4 00 . ... : ... .. B ... : ... .. . ... ... : C#3 01 2 ... V05 : A#2 01 2 ... V05 : C#4 01 A ... ...
ROW 36 : ... .. 4 ... V02 ... : ... .. 4 ... V02 ... : G-3 00 . ... : ... .. 8 ... : ... .. . ... ... : ... .. 4 ... V07 : ... .. 4 ... V07 : ... .. 8 ... ...
ROW 37 : ... .. 8 ... V01 ... : ... .. 8 ... V01 ... : C-3 00 . ... : ... .. B ... : ... .. . ... ... : ... .. 6 ... V06 : ... .. 6 ... V06 : ... .. 5 ... ...
ROW 38 : ... .. . ... ... ... : ... .. . ... ... ... : B-2 00 . ... : ... .. 8 ... : ... .. . ... ... : ... .. . ... ... : ... .. . ... ... : ... .. . ... ...
ROW 39 : ... .. 6 ... ... ... : ... .. 6 ... ... ... : F#2 00 . ... : ... .. 6 ... : ... .. . ... ... : ... .. . ... ... : ... .. . ... ... : ... .. . ... ...
ROW 3A : ... .. . ... ... ... : ... .. . ... ... ... : ... .. . ... : ... .. 4 ... : ... .. . ... ... : ... .. . ... ... : ... .. . ... ... : ... .. . ... ...
ROW 3B : ... .. . ... ... ... : ... .. . ... ... ... : ... .. . ... : ... .. 2 ... : ... .. . ... ... : ... .. . ... ... : ... .. . ... ... : ... .. . ... ...
ROW 3C : ... .. . ... ... ... : ... .. . ... ... ... : ... .. . ... : ... .. 6 ... : ... .. . ... ... : ... .. . ... ... : ... .. . ... ... : ... .. . ... ...
ROW 3D : ... .. . ... ... ... : ... .. . ... ... ... : ... .. . ... : ... .. 4 ... : ... .. . ... ... : ... .. . ... ... : ... .. . ... ... : ... .. . ... ...
ROW 3E : ... .. . ... ... ... : ... .. . ... ... ... : ... .. . ... : ... .. 2 ... : ... .. . ... ... : ... .. . ... ... : ... .. . ... ... : ... .. . ... ...
ROW 3F : ... .. . ... ... ... : ... .. . ... ... ... : ... .. . ... : ... .. 1 ... : ... .. . ... ... : ... .. . ... ... : ... .. . ... ... : ... .. . ... ...
ROW 40 : ... .. 7 ... ... ... : ... .. 7 ... ... ... : ... .. . ... : ... .. . ... : ... .. . ... ... : ... .. 1 ... ... : ... .. 1 ... ... : ... .. 1 ... ...
ROW 41 : ... .. 1 ... V00 ... : ... .. 1 ... V00 ... : ... .. . ... : ... .. 0 ... : ... .. . ... ... : ... .. . ... ... : ... .. . ... ... : ... .. . ... ...
ROW 42 : ... .. 0 ... ... ... : ... .. 0 ... ... ... : ... .. . ... : ... .. 1 ... : ... .. . ... ... : ... .. . ... ... : ... .. . ... ... : ... .. . ... ...
ROW 43 : B-3 00 1 P7F V01 ... : C#4 00 1 P81 V01 ... : --- .. . ... : ... .. 6 ... : ... .. . ... ... : ... .. 2 ... V05 : ... .. 2 ... V05 : A#3 01 A ... ...
ROW 44 : ... .. 4 ... V02 ... : ... .. 4 ... V02 ... : ... .. . ... : ... .. 4 ... : ... .. . ... ... : ... .. 4 ... V07 : ... .. 4 ... V07 : ... .. 8 ... ...
ROW 45 : ... .. 8 ... V01 ... : ... .. 8 ... V01 ... : ... .. . ... : ... .. 2 ... : ... .. . ... ... : ... .. 6 ... V06 : ... .. 6 ... V06 : ... .. 5 ... ...
ROW 46 : ... .. . ... ... ... : ... .. . ... ... ... : ... .. . ... : ... .. 1 ... : ... .. . ... ... : ... .. . ... ... : ... .. . ... ... : ... .. . ... ...
ROW 47 : C#4 00 1 ... ... ... : ... .. . ... ... ... : ... .. . ... : ... .. . ... : ... .. . ... ... : ... .. 1 ... ... : ... .. 1 ... ... : ... .. 1 ... ...
ROW 48 : ... .. 5 ... V02 ... : ... .. 1 ... V00 ... : ... .. . ... : ... .. 0 ... : ... .. . ... ... : ... .. . ... ... : ... .. . ... ... : ... .. . ... ...
ROW 49 : ... .. 9 ... V01 ... : ... .. 0 ... ... ... : ... .. . ... : ... .. 1 ... : ... .. . ... ... : ... .. . ... ... : ... .. . ... ... : ... .. . ... ...
ROW 4A : D-4 00 2 ... ... ... : D-4 00 2 P81 V01 ... : A#4 00 . ... : ... .. C ... : ... .. . ... ... : D-4 01 2 ... V05 : F#3 01 2 ... V05 : B-3 01 A ... ...
ROW 4B : ... .. 6 ... V02 ... : ... .. 6 ... V02 ... : C-4 00 . ... : ... .. 9 ... : ... .. . ... ... : ... .. 4 ... V07 : ... .. 4 ... V07 : ... .. 8 ... ...
ROW 4C : ... .. A ... V01 ... : ... .. A ... V01 ... : F-3 00 . ... : ... .. 8 ... : ... .. . ... ... : ... .. 6 ... V06 : ... .. 6 ... V06 : ... .. 5 ... ...
ROW 4D : ... .. . ... ... ... : ... .. . ... ... ... : E-3 00 . ... : ... .. . ... : ... .. . ... ... : ... .. . ... ... : ... .. . ... ... : ... .. . ... ...
ROW 4E : ... .. . ... ... ... : ... .. . ... ... ... : B-2 00 . ... : ... .. 5 ... : ... .. . ... ... : ... .. . ... ... : ... .. . ... ... : ... .. . ... ...
ROW 4F : ... .. . ... ... ... : ... .. . ... ... ... : ... .. . ... : ... .. 4 ... : ... .. . ... ... : ... .. . ... ... : ... .. . ... ... : ... .. . ... ...
ROW 50 : ... .. . ... ... ... : ... .. . ... ... ... : ... .. . ... : ... .. 3 ... : ... .. . ... ... : ... .. . ... ... : ... .. . ... ... : ... .. . ... ...
ROW 51 : C#4 00 1 ... ... ... : C#4 00 1 ... ... ... : ... .. . ... : ... .. 6 ... : ... .. . ... ... : ... .. 2 ... V05 : ... .. 2 ... V05 : C#4 01 A ... ...
ROW 52 : ... .. 4 ... V02 ... : ... .. 4 ... V02 ... : ... .. . ... : ... .. 4 ... : ... .. . ... ... : ... .. 4 ... V07 : ... .. 4 ... V07 : ... .. 8 ... ...
ROW 53 : ... .. 8 ... V01 ... : ... .. 8 ... V01 ... : ... .. . ... : ... .. 2 ... : ... .. . ... ... : ... .. 6 ... V06 : ... .. 6 ... V06 : ... .. 5 ... ...
ROW 54 : ... .. . ... ... ... : ... .. . ... ... ... : ... .. . ... : ... .. 1 ... : ... .. . ... ... : ... .. . ... ... : ... .. . ... ... : ... .. . ... ...
ROW 55 : ... .. . ... ... ... : ... .. . ... ... ... : ... .. . ... : ... .. . ... : ... .. . ... ... : ... .. 1 ... ... : ... .. 1 ... ... : ... .. 1 ... ...
ROW 56 : ... .. . ... ... ... : ... .. . ... ... ... : ... .. . ... : ... .. 0 ... : ... .. . ... ... : ... .. . ... ... : ... .. . ... ... : ... .. . ... ...
ROW 57 : ... .. . ... ... ... : ... .. . ... ... ... : ... .. . ... : ... .. 1 ... : ... .. . ... ... : ... .. . ... ... : ... .. . ... ... : ... .. . ... ...
ROW 58 : B-3 00 1 ... ... ... : B-3 00 1 ... ... ... : --- .. . ... : ... .. 6 ... : ... .. . ... ... : ... .. 2 ... V05 : ... .. 2 ... V05 : B-3 01 A ... ...
ROW 59 : ... .. 4 ... V02 ... : ... .. 4 ... V02 ... : ... .. . ... : ... .. 4 ... : ... .. . ... ... : ... .. 4 ... V07 : ... .. 4 ... V07 : ... .. 8 ... ...
ROW 5A : ... .. 8 ... V01 ... : ... .. 8 ... V01 ... : ... .. . ... : ... .. 2 ... : ... .. . ... ... : ... .. 6 ... V06 : ... .. 6 ... V06 : ... .. 5 ... ...
ROW 5B : ... .. . ... ... ... : ... .. . ... ... ... : ... .. . ... : ... .. 1 ... : ... .. . ... ... : ... .. . ... ... : ... .. . ... ... : ... .. . ... ...
ROW 5C : ... .. . ... ... ... : ... .. . ... ... ... : ... .. . ... : ... .. . ... : ... .. . ... ... : ... .. 1 ... ... : ... .. 1 ... ... : ... .. 1 ... ...
ROW 5D : ... .. 1 ... V00 ... : ... .. 1 ... V00 ... : ... .. . ... : ... .. 0 ... : ... .. . ... ... : ... .. . ... ... : ... .. . ... ... : ... .. . ... ...
ROW 5E : ... .. 0 ... ... ... : ... .. 0 ... ... ... : ... .. . ... : ... .. 1 ... : ... .. . ... ... : ... .. . ... ... : ... .. . ... ... : ... .. . ... ...
ROW 5F : A#3 00 1 P7F V01 ... : A#3 00 1 P81 V01 ... : F-4 00 . ... : ... .. C ... : ... .. . ... ... : C#4 01 2 ... V05 : E-3 01 2 ... V05 : A#3 01 A ... ...
ROW 60 : ... .. 4 ... V02 ... : ... .. 4 ... V02 ... : G-3 00 . ... : ... .. 9 ... : ... .. . ... ... : ... .. 4 ... V07 : ... .. 4 ... V07 : ... .. 8 ... ...
ROW 61 : ... .. 8 ... V01 ... : ... .. 8 ... V01 ... : C-3 00 . ... : ... .. 8 ... : ... .. . ... ... : ... .. 6 ... V06 : ... .. 6 ... V06 : ... .. 5 ... ...
ROW 62 : ... .. . ... ... ... : ... .. . ... ... ... : B-2 00 . ... : ... .. . ... : ... .. . ... ... : ... .. . ... ... : ... .. . ... ... : ... .. . ... ...
ROW 63 : ... .. . ... ... ... : ... .. . ... ... ... : F#2 00 . ... : ... .. 5 ... : ... .. . ... ... : ... .. . ... ... : ... .. . ... ... : ... .. . ... ...
ROW 64 : ... .. . ... ... ... : ... .. . ... ... ... : ... .. . ... : ... .. 4 ... : ... .. . ... ... : ... .. . ... ... : ... .. . ... ... : ... .. . ... ...
ROW 65 : ... .. . ... ... ... : ... .. . ... ... ... : ... .. . ... : ... .. 3 ... : ... .. . ... ... : ... .. . ... ... : ... .. . ... ... : ... .. . ... ...
ROW 66 : B-3 00 1 ... ... ... : B-3 00 1 ... ... ... : ... .. . ... : ... .. . ... : ... .. . ... ... : B-3 01 2 ... V05 : ... .. 2 ... V05 : B-3 01 A ... ...
ROW 67 : ... .. 4 ... V02 ... : ... .. 4 ... V02 ... : ... .. . ... : ... .. 2 ... : ... .. . ... ... : ... .. 4 ... V07 : ... .. 4 ... V07 : ... .. 8 ... ...
ROW 68 : ... .. 8 ... V01 ... : ... .. 8 ... V01 ... : ... .. . ... : ... .. . ... : ... .. . ... ... : ... .. 6 ... V06 : ... .. 6 ... V06 : ... .. 5 ... ...
ROW 69 : ... .. . ... ... ... : ... .. . ... ... ... : ... .. . ... : ... .. 1 ... : ... .. . ... ... : ... .. . ... ... : ... .. . ... ... : ... .. . ... ...
ROW 6A : ... .. . ... ... ... : ... .. . ... ... ... : ... .. . ... : ... .. . ... : ... .. . ... ... : ... .. 1 ... ... : ... .. 1 ... ... : ... .. 1 ... ...
ROW 6B : ... .. 1 ... V00 ... : ... .. 1 ... V00 ... : ... .. . ... : ... .. . ... : ... .. . ... ... : ... .. . ... ... : ... .. . ... ... : ... .. . ... ...
ROW 6C : ... .. 0 ... ... ... : ... .. 0 ... ... ... : ... .. . ... : ... .. . ... : ... .. . ... ... : ... .. . ... ... : ... .. . ... ... : ... .. . ... ...
ROW 6D : C#4 00 1 P7F V01 ... : C#4 00 1 P81 V01 ... : --- .. . ... : ... .. 6 ... : ... .. . ... ... : A#3 01 2 ... V05 : ... .. 2 ... V05 : C#4 01 A ... ...
ROW 6E : ... .. 4 ... V02 ... : ... .. 4 ... V02 ... : ... .. . ... : ... .. 5 ... : ... .. . ... ... : ... .. 4 ... V07 : ... .. 4 ... V07 : ... .. 8 ... ...
ROW 6F : ... .. 8 ... V01 ... : ... .. 8 ... V01 ... : ... .. . ... : ... .. 4 ... : ... .. . ... ... : ... .. 6 ... V06 : ... .. 6 ... V06 : ... .. 5 ... ...
ROW 70 : ... .. . ... ... ... : ... .. . ... ... ... : ... .. . ... : ... .. 3 ... : ... .. . ... ... : ... .. . ... ... : ... .. . ... ... : ... .. . ... ...
ROW 71 : ... .. . ... ... ... : ... .. . ... ... ... : ... .. . ... : ... .. 1 ... : ... .. . ... ... : ... .. 1 ... ... : ... .. 1 ... ... : ... .. 1 ... ...
ROW 72 : ... .. 1 ... V00 ... : ... .. 1 ... V00 ... : ... .. . ... : ... .. . ... : ... .. . ... ... : ... .. . ... ... : ... .. . ... ... : ... .. . ... ...
ROW 73 : ... .. 0 ... ... ... : ... .. 0 ... ... ... : ... .. . ... : ... .. . ... : ... .. . ... ... : ... .. . ... ... : ... .. . ... ... : ... .. . ... ...
ROW 74 : B-3 00 1 P7F V01 ... : B-3 00 1 P81 V01 ... : A#3 00 . ... : ... .. C ... : ... .. . ... ... : D-3 01 2 ... V05 : F#3 01 2 ... V05 : B-3 01 A ... ...
ROW 75 : ... .. 4 ... V02 ... : ... .. 4 ... V02 ... : C-3 00 . ... : ... .. 9 ... : ... .. . ... ... : ... .. 4 ... V07 : ... .. 4 ... V07 : ... .. 8 ... ...
ROW 76 : ... .. 8 ... V01 ... : ... .. 8 ... V01 ... : F-2 00 . ... : ... .. 8 ... : ... .. . ... ... : ... .. 6 ... V06 : ... .. 6 ... V06 : ... .. 5 ... ...
ROW 77 : ... .. . ... ... ... : ... .. . ... ... ... : E-2 00 . ... : ... .. . ... : ... .. . ... ... : ... .. . ... ... : ... .. . ... ... : ... .. . ... ...
ROW 78 : ... .. . ... ... ... : ... .. . ... ... ... : B-1 00 . ... : ... .. 5 ... : ... .. . ... ... : ... .. . ... ... : ... .. . ... ... : ... .. . ... ...
ROW 79 : ... .. . ... ... ... : ... .. . ... ... ... : ... .. . ... : ... .. 4 ... : ... .. . ... ... : ... .. . ... ... : ... .. . ... ... : ... .. . ... ...
ROW 7A : ... .. . ... ... ... : ... .. . ... ... ... : ... .. . ... : ... .. 3 ... : ... .. . ... ... : ... .. . ... ... : ... .. . ... ... : ... .. . ... ...
ROW 7B : ... .. . ... ... ... : ... .. . ... ... ... : ... .. . ... : ... .. . ... : ... .. . ... ... : ... .. . ... ... : ... .. . ... ... : ... .. . ... ...
ROW 7C : ... .. . ... ... ... : ... .. . ... ... ... : ... .. . ... : ... .. 2 ... : ... .. . ... ... : ... .. . ... ... : ... .. . ... ... : ... .. . ... ...
ROW 7D : ... .. . ... ... ... : ... .. . ... ... ... : ... .. . ... : ... .. . ... : ... .. . ... ... : ... .. . ... ... : ... .. . ... ... : ... .. . ... ...
ROW 7E : ... .. . ... ... ... : ... .. . ... ... ... : ... .. . ... : ... .. 1 ... : ... .. . ... ... : ... .. . ... ... : ... .. . ... ... : ... .. . ... ...
ROW 7F : ... .. . ... ... ... : ... .. . ... ... ... : ... .. . ... : ... .. . ... : ... .. . ... ... : ... .. . ... ... : ... .. . ... ... : ... .. . ... ...
ROW 80 : ... .. . ... ... ... : ... .. . ... ... ... : ... .. . ... : ... .. . ... : ... .. . ... ... : ... .. . ... ... : ... .. . ... ... : ... .. . ... ...
ROW 81 : F#4 00 2 ... ... ... : F#4 00 2 ... ... ... : ... .. . ... : ... .. . ... : ... .. . ... ... : ... .. . ... ... : ... .. . ... ... : ... .. . ... ...
ROW 82 : G-4 00 1 ... ... ... : G-4 00 1 ... ... ... : ... .. . ... : ... .. . ... : ... .. . ... ... : ... .. . ... ... : ... .. . ... ... : ... .. . ... ...
ROW 83 : ... .. 3 ... V02 ... : ... .. 3 ... V02 ... : ... .. . ... : ... .. . ... : ... .. . ... ... : ... .. . ... ... : ... .. . ... ... : ... .. . ... ...
ROW 84 : G#4 00 1 ... V01 ... : G#4 00 1 ... V01 ... : ... .. . ... : ... .. 0 ... : ... .. . ... ... : ... .. . ... ... : ... .. . ... ... : ... .. . ... ...
ROW 85 : ... .. 4 ... V02 ... : ... .. 4 ... V02 ... : ... .. . ... : ... .. . ... : ... .. . ... ... : ... .. . ... ... : ... .. . ... ... : ... .. . ... ...
ROW 86 : A-4 00 1 ... V01 ... : A-4 00 1 ... V01 ... : ... .. . ... : ... .. . ... : ... .. . ... ... : ... .. 1 ... ... : ... .. 1 ... ... : ... .. 1 ... ...
ROW 87 : ... .. 4 ... V02 ... : ... .. 4 ... V02 ... : ... .. . ... : ... .. . ... : ... .. . ... ... : ... .. . ... ... : ... .. . ... ... : ... .. . ... ...
ROW 88 : A#4 00 2 ... V01 ... : A#4 00 2 ... V01 ... : ... .. . ... : ... .. . ... : ... .. . ... ... : ... .. . ... ... : ... .. . ... ... : ... .. . ... ...
ROW 89 : B-4 00 2 ... ... ... : B-4 00 2 ... ... ... : ... .. . ... : B-# 00 A ... : ... .. . ... ... : ... .. . ... ... : ... .. . ... ... : ... .. . ... ...
ROW 8A : ... .. 6 ... V02 ... : ... .. 6 ... V02 ... : ... .. . ... : ... .. . ... : ... .. . ... ... : ... .. . ... ... : ... .. . ... ... : ... .. . ... ...
ROW 8B : ... .. A ... V01 ... : ... .. A ... V01 ... : ... .. . ... : ... .. 9 ... : ... .. . ... ... : ... .. . ... ... : ... .. . ... ... : ... .. . ... ...
ROW 8C : ... .. . ... ... ... : ... .. . ... ... ... : ... .. . ... : ... .. . ... : ... .. . ... ... : ... .. . ... ... : ... .. . ... ... : ... .. . ... ...
ROW 8D : ... .. . ... ... ... : ... .. . ... ... ... : ... .. . ... : ... .. 8 ... : ... .. . ... ... : ... .. . ... ... : ... .. . ... ... : ... .. . ... ...
ROW 8E : ... .. . ... ... ... : ... .. . ... ... ... : ... .. . ... : ... .. . ... : ... .. . ... ... : ... .. . ... ... : ... .. . ... ... : ... .. . ... ...
ROW 8F : ... .. . ... ... ... : ... .. . ... ... ... : ... .. . ... : ... .. . ... : ... .. . ... ... : ... .. . ... ... : ... .. . ... ... : ... .. . ... ...
ROW 90 : ... .. . ... ... ... : ... .. . ... ... ... : --- .. . ... : ... .. 7 ... : ... .. . ... ... : --- .. . P83 ... : --- .. . P81 ... : --- .. . P8F ...
ROW 91 : ... .. . ... ... ... : ... .. . ... ... ... : ... .. . ... : ... .. . ... : ... .. . ... ... : ... .. . ... ... : ... .. . ... ... : ... .. . ... ...
ROW 92 : ... .. . ... ... ... : ... .. . ... ... ... : ... .. . ... : ... .. 6 ... : ... .. . ... ... : ... .. . ... ... : ... .. . ... ... : ... .. . ... ...
ROW 93 : ... .. . ... ... ... : ... .. . ... ... ... : ... .. . ... : ... .. . ... : ... .. . ... ... : ... .. . ... ... : ... .. . ... ... : ... .. . ... ...
ROW 94 : ... .. . ... ... ... : ... .. . ... ... ... : ... .. . ... : ... .. . ... : ... .. . ... ... : ... .. . ... ... : ... .. . ... ... : ... .. . ... ...
ROW 95 : ... .. . ... ... ... : ... .. . ... ... ... : ... .. . ... : ... .. . ... : ... .. . ... ... : ... .. . ... ... : ... .. . ... ... : ... .. . ... ...
ROW 96 : ... .. . ... ... ... : ... .. . ... ... ... : ... .. . ... : ... .. 5 ... : ... .. . ... ... : ... .. . ... ... : ... .. . ... ... : ... .. . ... ...
ROW 97 : ... .. . ... ... ... : ... .. . ... ... ... : ... .. . ... : ... .. 4 ... : ... .. . ... ... : ... .. . ... ... : ... .. . ... ... : ... .. . ... ...
ROW 98 : ... .. 2 ... V00 ... : ... .. 2 ... V00 ... : ... .. . ... : ... .. . ... : ... .. . ... ... : ... .. . ... ... : ... .. . ... ... : ... .. . ... ...
ROW 99 : ... .. 0 ... ... ... : ... .. 0 ... ... ... : ... .. . ... : ... .. . ... : ... .. . ... ... : ... .. . ... ... : ... .. . ... ... : ... .. . ... ...
ROW 9A : ... .. . ... ... ... : ... .. . ... ... ... : ... .. . ... : ... .. . ... : ... .. . ... ... : ... .. . ... ... : ... .. . ... ... : ... .. . ... ...
ROW 9B : ... .. . ... ... ... : ... .. . ... ... ... : ... .. . ... : ... .. 3 ... : ... .. . ... ... : ... .. . ... ... : ... .. . ... ... : ... .. . ... ...
ROW 9C : ... .. . ... ... ... : ... .. . ... ... ... : ... .. . ... : ... .. . ... : ... .. . ... ... : ... .. . ... ... : ... .. . ... ... : ... .. . ... ...
ROW 9D : ... .. . ... ... ... : ... .. . ... ... ... : ... .. . ... : ... .. 0 ... : === 00 . ... ... : ... .. . ... ... : ... .. . ... ... : ... .. . ... ...
ROW 9E : ... .. . ... ... ... : ... .. . ... ... ... : ... .. . ... : ... .. . ... : ... .. . ... ... : ... .. . ... ... : ... .. . ... ... : ... .. . ... ...
ROW 9F : ... .. . ... ... ... : ... .. . ... ... ... : ... .. . ... : ... .. . ... : ... .. . ... ... : ... .. . ... ... : ... .. . ... ... : ... .. . ... ...
ROW A0 : ... .. . ... ... ... : ... .. . ... ... ... : ... .. . ... : ... .. . ... : ... .. . ... ... : ... .. . ... ... : ... .. . ... ... : ... .. . ... ...
ROW A1 : ... .. . ... ... ... : ... .. . ... ... ... : ... .. . ... : ... .. . ... : ... .. . ... ... : ... .. . ... ... : ... .. . ... ... : ... .. . ... ...
ROW A2 : ... .. . ... ... ... : ... .. . ... ... ... : ... .. . ... : ... .. . ... : ... .. . ... ... : ... .. . ... ... : ... .. . ... ... : ... .. . ... ...
ROW A3 : ... .. . ... ... ... : ... .. . ... ... ... : ... .. . ... : ... .. . ... : ... .. . ... ... : ... .. . ... ... : ... .. . ... ... : ... .. . ... ...
ROW A4 : ... .. . ... ... ... : ... .. . ... ... ... : ... .. . ... : ... .. . ... : ... .. . ... ... : ... .. . ... ... : ... .. . ... ... : ... .. . ... ...
ROW A5 : ... .. . ... ... ... : ... .. . ... ... ... : ... .. . ... : ... .. . ... : ... .. . ... ... : ... .. . ... ... : ... .. . ... ... : ... .. . ... ...
ROW A6 : ... .. . ... ... ... : ... .. . ... ... ... : ... .. . ... : ... .. . ... : ... .. . ... ... : ... .. . ... ... : ... .. . ... ... : ... .. . ... ...
ROW A7 : ... .. . ... ... ... : ... .. . ... ... ... : ... .. . ... : ... .. . ... : ... .. . ... ... : ... .. . ... ... : ... .. . ... ... : ... .. . ... ...
ROW A8 : ... .. . ... ... ... : ... .. . ... ... ... : ... .. . ... : ... .. . ... : ... .. . ... ... : ... .. . ... ... : ... .. . ... ... : ... .. . ... ...
ROW A9 : ... .. . ... ... ... : ... .. . ... ... ... : ... .. . ... : ... .. . ... : ... .. . ... ... : ... .. . ... ... : ... .. . ... ... : ... .. . ... ...
ROW AA : ... .. . ... ... ... : ... .. . ... ... ... : ... .. . ... : ... .. . ... : ... .. . ... ... : ... .. . ... ... : ... .. . ... ... : ... .. . ... ...
ROW AB : ... .. . ... ... ... : ... .. . ... ... ... : ... .. . ... : ... .. . ... : ... .. . ... ... : ... .. . ... ... : ... .. . ... ... : ... .. . ... ...
ROW AC : ... .. . ... ... ... : ... .. . ... ... ... : ... .. . ... : ... .. . ... : ... .. . ... ... : ... .. . ... ... : ... .. . ... ... : ... .. . ... ...
ROW AD : ... .. . ... ... ... : ... .. . ... ... ... : ... .. . ... : ... .. . ... : ... .. . ... ... : ... .. . ... ... : ... .. . ... ... : ... .. . ... ...
ROW AE : ... .. . ... ... ... : ... .. . ... ... ... : ... .. . ... : ... .. . ... : ... .. . ... ... : ... .. . ... ... : ... .. . ... ... : ... .. . ... ...
ROW AF : ... .. . ... ... ... : ... .. . ... ... ... : ... .. . ... : ... .. . ... : ... .. . ... ... : ... .. . ... ... : ... .. . ... ... : ... .. . ... ...
ROW B0 : ... .. . ... ... ... : ... .. . ... ... ... : ... .. . ... : ... .. . ... : ... .. . ... ... : ... .. . ... ... : ... .. . ... ... : ... .. . ... ...
ROW B1 : ... .. . ... ... ... : ... .. . ... ... ... : ... .. . ... : ... .. . ... : ... .. . ... ... : ... .. . ... ... : ... .. . ... ... : ... .. . ... ...
ROW B2 : ... .. . ... ... ... : ... .. . ... ... ... : ... .. . ... : ... .. . ... : ... .. . ... ... : ... .. . ... ... : ... .. . ... ... : ... .. . ... ...
ROW B3 : ... .. . ... ... ... : ... .. . ... ... ... : ... .. . ... : ... .. . ... : ... .. . ... ... : ... .. . ... ... : ... .. . ... ... : ... .. . ... ...
ROW B4 : ... .. . ... ... ... : ... .. . ... ... ... : ... .. . ... : ... .. . ... : ... .. . ... ... : ... .. . ... ... : ... .. . ... ... : ... .. . ... ...
ROW B5 : ... .. . ... ... ... : ... .. . ... ... ... : ... .. . ... : ... .. . ... : ... .. . ... ... : ... .. . ... ... : ... .. . ... ... : ... .. . ... ...
ROW B6 : ... .. . ... ... ... : ... .. . ... ... ... : ... .. . ... : ... .. . ... : ... .. . ... ... : ... .. . ... ... : ... .. . ... ... : ... .. . ... ...
ROW B7 : ... .. . ... ... ... : ... .. . ... ... ... : ... .. . ... : ... .. . ... : ... .. . ... ... : ... .. . ... ... : ... .. . ... ... : ... .. . ... ...
ROW B8 : ... .. . ... ... ... : ... .. . ... ... ... : ... .. . ... : ... .. . ... : ... .. . ... ... : ... .. . ... ... : ... .. . ... ... : ... .. . ... ...
ROW B9 : ... .. . ... ... ... : ... .. . ... ... ... : ... .. . ... : ... .. . ... : ... .. . ... ... : ... .. . ... ... : ... .. . ... ... : ... .. . ... ...
ROW BA : ... .. . ... ... ... : ... .. . ... ... ... : ... .. . ... : ... .. . ... : ... .. . ... ... : ... .. . ... ... : ... .. . ... ... : ... .. . ... ...
ROW BB : ... .. . ... ... ... : ... .. . ... ... ... : ... .. . ... : ... .. . ... : ... .. . ... ... : ... .. . ... ... : ... .. . ... ... : ... .. . ... ...
ROW BC : ... .. . ... ... ... : ... .. . ... ... ... : ... .. . ... : ... .. . ... : ... .. . ... ... : ... .. . ... ... : ... .. . ... ... : ... .. . ... ...
ROW BD : ... .. . ... ... ... : ... .. . ... ... ... : ... .. . ... : ... .. . ... : ... .. . ... ... : ... .. . ... ... : ... .. . ... ... : ... .. . ... ...
ROW BE : ... .. . ... ... ... : ... .. . ... ... ... : ... .. . ... : ... .. . ... : ... .. . ... ... : ... .. . ... ... : ... .. . ... ... : ... .. . ... ...
ROW BF : ... .. . ... ... ... : ... .. . ... ... ... : ... .. . ... : ... .. . ... : ... .. . ... ... : ... .. . ... ... : ... .. . ... ... : ... .. . ... ...
ROW C0 : ... .. . ... ... ... : ... .. . ... ... ... : ... .. . ... : ... .. . ... : ... .. . ... ... : ... .. . ... ... : ... .. . ... ... : ... .. . ... ...
ROW C1 : ... .. . ... ... ... : ... .. . ... ... ... : ... .. . ... : ... .. . ... : ... .. . ... ... : ... .. . ... ... : ... .. . ... ... : ... .. . ... ...
ROW C2 : ... .. . ... ... ... : ... .. . ... ... ... : ... .. . ... : ... .. . ... : ... .. . ... ... : ... .. . ... ... : ... .. . ... ... : ... .. . ... ...
ROW C3 : ... .. . ... ... ... : ... .. . ... ... ... : ... .. . ... : ... .. . ... : ... .. . ... ... : ... .. . ... ... : ... .. . ... ... : ... .. . ... ...
ROW C4 : ... .. . ... ... ... : ... .. . ... ... ... : ... .. . ... : ... .. . ... : ... .. . ... ... : ... .. . ... ... : ... .. . ... ... : ... .. . ... ...
ROW C5 : ... .. . ... ... ... : ... .. . ... ... ... : ... .. . ... : ... .. . ... : ... .. . ... ... : ... .. . ... ... : ... .. . ... ... : ... .. . ... ...
ROW C6 : ... .. . ... ... ... : ... .. . ... ... ... : ... .. . ... : ... .. . ... : ... .. . ... ... : ... .. . ... ... : ... .. . ... ... : ... .. . ... ...
ROW C7 : ... .. . ... ... ... : ... .. . ... ... ... : ... .. . ... : ... .. . ... : ... .. . ... ... : ... .. . ... ... : ... .. . ... ... : ... .. . ... ...
ROW C8 : ... .. . ... ... ... : ... .. . ... ... ... : ... .. . ... : ... .. . ... : ... .. . ... ... : ... .. . ... ... : ... .. . ... ... : ... .. . ... ...
ROW C9 : ... .. . ... ... ... : ... .. . ... ... ... : ... .. . ... : ... .. . ... : ... .. . ... ... : ... .. . ... ... : ... .. . ... ... : ... .. . ... ...
ROW CA : ... .. . ... ... ... : ... .. . ... ... ... : ... .. . ... : ... .. . ... : ... .. . ... ... : ... .. . ... ... : ... .. . ... ... : ... .. . ... ...
ROW CB : ... .. . ... ... ... : ... .. . ... ... ... : ... .. . ... : ... .. . ... : ... .. . ... ... : ... .. . ... ... : ... .. . ... ... : ... .. . ... ...
ROW CC : ... .. . ... ... ... : ... .. . ... ... ... : ... .. . ... : ... .. . ... : ... .. . ... ... : ... .. . ... ... : ... .. . ... ... : ... .. . ... ...
ROW CD : ... .. . ... ... ... : ... .. . ... ... ... : ... .. . ... : ... .. . ... : ... .. . ... ... : ... .. . ... ... : ... .. . ... ... : ... .. . ... ...
ROW CE : ... .. . ... ... ... : ... .. . ... ... ... : ... .. . ... : ... .. . ... : ... .. . ... ... : ... .. . ... ... : ... .. . ... ... : ... .. . ... ...
ROW CF : ... .. . ... ... ... : ... .. . ... ... ... : ... .. . ... : ... .. . ... : ... .. . ... ... : ... .. . ... ... : ... .. . ... ... : ... .. . ... ...
ROW D0 : ... .. . ... ... ... : ... .. . ... ... ... : ... .. . ... : ... .. . ... : ... .. . ... ... : ... .. . ... ... : ... .. . ... ... : ... .. . ... ...
ROW D1 : ... .. . ... ... ... : ... .. . ... ... ... : ... .. . ... : ... .. . ... : ... .. . ... ... : ... .. . ... ... : ... .. . ... ... : ... .. . ... ...
ROW D2 : ... .. . ... ... ... : ... .. . ... ... ... : ... .. . ... : ... .. . ... : ... .. . ... ... : ... .. . ... ... : ... .. . ... ... : ... .. . ... ...
ROW D3 : ... .. . ... ... ... : ... .. . ... ... ... : ... .. . ... : ... .. . ... : ... .. . ... ... : ... .. . ... ... : ... .. . ... ... : ... .. . ... ...
ROW D4 : ... .. . ... ... ... : ... .. . ... ... ... : ... .. . ... : ... .. . ... : ... .. . ... ... : ... .. . ... ... : ... .. . ... ... : ... .. . ... ...
ROW D5 : ... .. . ... ... ... : ... .. . ... ... ... : ... .. . ... : ... .. . ... : ... .. . ... ... : ... .. . ... ... : ... .. . ... ... : ... .. . ... ...
ROW D6 : ... .. . ... ... ... : ... .. . ... ... ... : ... .. . ... : ... .. . ... : ... .. . ... ... : ... .. . ... ... : ... .. . ... ... : ... .. . ... ...
ROW D7 : ... .. . ... ... ... : ... .. . ... ... ... : ... .. . ... : ... .. . ... : ... .. . ... ... : ... .. . ... ... : ... .. . ... ... : ... .. . ... ...
ROW D8 : ... .. . ... ... ... : ... .. . ... ... ... : ... .. . ... : ... .. . ... : ... .. . ... ... : ... .. . ... ... : ... .. . ... ... : ... .. . ... ...
ROW D9 : ... .. . ... ... ... : ... .. . ... ... ... : ... .. . ... : ... .. . ... : ... .. . ... ... : ... .. . ... ... : ... .. . ... ... : ... .. . ... ...
ROW DA : ... .. . ... ... ... : ... .. . ... ... ... : ... .. . ... : ... .. . ... : ... .. . ... ... : ... .. . ... ... : ... .. . ... ... : ... .. . ... ...
ROW DB : ... .. . ... ... ... : ... .. . ... ... ... : ... .. . ... : ... .. . ... : ... .. . ... ... : ... .. . ... ... : ... .. . ... ... : ... .. . ... ...
ROW DC : ... .. . ... ... ... : ... .. . ... ... ... : ... .. . ... : ... .. . ... : ... .. . ... ... : ... .. . ... ... : ... .. . ... ... : ... .. . ... ...
ROW DD : ... .. . ... ... ... : ... .. . ... ... ... : ... .. . ... : ... .. . ... : ... .. . ... ... : ... .. . ... ... : ... .. . ... ... : ... .. . ... ...
ROW DE : ... .. . ... ... ... : ... .. . ... ... ... : ... .. . ... : ... .. . ... : ... .. . ... ... : ... .. . ... ... : ... .. . ... ... : ... .. . ... ...
ROW DF : ... .. . ... ... ... : ... .. . ... ... ... : ... .. . ... : ... .. . ... : ... .. . ... ... : ... .. . ... ... : ... .. . ... ... : ... .. . ... ...
ROW E0 : ... .. . ... ... ... : ... .. . ... ... ... : ... .. . ... : ... .. . ... : ... .. . ... ... : ... .. . ... ... : ... .. . ... ... : ... .. . ... ...
ROW E1 : ... .. . ... ... ... : ... .. . ... ... ... : ... .. . ... : ... .. . ... : ... .. . ... ... : ... .. . ... ... : ... .. . ... ... : ... .. . ... ...
ROW E2 : ... .. . ... ... ... : ... .. . ... ... ... : ... .. . ... : ... .. . ... : ... .. . ... ... : ... .. . ... ... : ... .. . ... ... : ... .. . ... ...
ROW E3 : ... .. . ... ... ... : ... .. . ... ... ... : ... .. . ... : ... .. . ... : ... .. . ... ... : ... .. . ... ... : ... .. . ... ... : ... .. . ... ...
ROW E4 : ... .. . ... ... ... : ... .. . ... ... ... : ... .. . ... : ... .. . ... : ... .. . ... ... : ... .. . ... ... : ... .. . ... ... : ... .. . ... ...
ROW E5 : ... .. . ... ... ... : ... .. . ... ... ... : ... .. . ... : ... .. . ... : ... .. . ... ... : ... .. . ... ... : ... .. . ... ... : ... .. . ... ...
ROW E6 : ... .. . ... ... ... : ... .. . ... ... ... : ... .. . ... : ... .. . ... : ... .. . ... ... : ... .. . ... ... : ... .. . ... ... : ... .. . ... ...
ROW E7 : ... .. . ... ... ... : ... .. . ... ... ... : ... .. . ... : ... .. . ... : ... .. . ... ... : ... .. . ... ... : ... .. . ... ... : ... .. . ... ...
ROW E8 : ... .. . ... ... ... : ... .. . ... ... ... : ... .. . ... : ... .. . ... : ... .. . ... ... : ... .. . ... ... : ... .. . ... ... : ... .. . ... ...
ROW E9 : ... .. . ... ... ... : ... .. . ... ... ... : ... .. . ... : ... .. . ... : ... .. . ... ... : ... .. . ... ... : ... .. . ... ... : ... .. . ... ...
ROW EA : ... .. . ... ... ... : ... .. . ... ... ... : ... .. . ... : ... .. . ... : ... .. . ... ... : ... .. . ... ... : ... .. . ... ... : ... .. . ... ...
ROW EB : ... .. . ... ... ... : ... .. . ... ... ... : ... .. . ... : ... .. . ... : ... .. . ... ... : ... .. . ... ... : ... .. . ... ... : ... .. . ... ...
ROW EC : ... .. . ... ... ... : ... .. . ... ... ... : ... .. . ... : ... .. . ... : ... .. . ... ... : ... .. . ... ... : ... .. . ... ... : ... .. . ... ...
ROW ED : ... .. . ... ... ... : ... .. . ... ... ... : ... .. . ... : ... .. . ... : ... .. . ... ... : ... .. . ... ... : ... .. . ... ... : ... .. . ... ...
ROW EE : ... .. . ... ... ... : ... .. . ... ... ... : ... .. . ... : ... .. . ... : ... .. . ... ... : ... .. . ... ... : ... .. . ... ... : ... .. . ... ...
ROW EF : ... .. . ... ... ... : ... .. . ... ... ... : ... .. . ... : ... .. . ... : ... .. . ... ... : ... .. . ... ... : ... .. . ... ... : ... .. . ... ...
ROW F0 : ... .. . ... ... ... : ... .. . ... ... ... : ... .. . ... : ... .. . ... : ... .. . ... ... : ... .. . ... ... : ... .. . ... ... : ... .. . ... ...
ROW F1 : ... .. . ... ... ... : ... .. . ... ... ... : ... .. . ... : ... .. . ... : ... .. . ... ... : ... .. . ... ... : ... .. . ... ... : ... .. . ... ...
ROW F2 : ... .. . ... ... ... : ... .. . ... ... ... : ... .. . ... : ... .. . ... : ... .. . ... ... : ... .. . ... ... : ... .. . ... ... : ... .. . ... ...
ROW F3 : ... .. . ... ... ... : ... .. . ... ... ... : ... .. . ... : ... .. . ... : ... .. . ... ... : ... .. . ... ... : ... .. . ... ... : ... .. . ... ...
ROW F4 : ... .. . ... ... ... : ... .. . ... ... ... : ... .. . ... : ... .. . ... : ... .. . ... ... : ... .. . ... ... : ... .. . ... ... : ... .. . ... ...
ROW F5 : ... .. . ... ... ... : ... .. . ... ... ... : ... .. . ... : ... .. . ... : ... .. . ... ... : ... .. . ... ... : ... .. . ... ... : ... .. . ... ...
ROW F6 : ... .. . ... ... ... : ... .. . ... ... ... : ... .. . ... : ... .. . ... : ... .. . ... ... : ... .. . ... ... : ... .. . ... ... : ... .. . ... ...
ROW F7 : ... .. . ... ... ... : ... .. . ... ... ... : ... .. . ... : ... .. . ... : ... .. . ... ... : ... .. . ... ... : ... .. . ... ... : ... .. . ... ...
ROW F8 : ... .. . ... ... ... : ... .. . ... ... ... : ... .. . ... : ... .. . ... : ... .. . ... ... : ... .. . ... ... : ... .. . ... ... : ... .. . ... ...
ROW F9 : ... .. . ... ... ... : ... .. . ... ... ... : ... .. . ... : ... .. . ... : ... .. . ... ... : ... .. . ... ... : ... .. . ... ... : ... .. . ... ...
ROW FA : ... .. . ... ... ... : ... .. . ... ... ... : ... .. . ... : ... .. . ... : ... .. . ... ... : ... .. . ... ... : ... .. . ... ... : ... .. . ... ...
ROW FB : ... .. . ... ... ... : ... .. . ... ... ... : ... .. . ... : ... .. . ... : ... .. . ... ... : ... .. . ... ... : ... .. . ... ... : ... .. . ... ...
ROW FC : ... .. . ... ... ... : ... .. . ... ... ... : ... .. . ... : ... .. . ... : ... .. . ... ... : ... .. . ... ... : ... .. . ... ... : ... .. . ... ...
ROW FD : ... .. . ... ... ... : ... .. . ... ... ... : ... .. . ... : ... .. . ... : ... .. . ... ... : ... .. . ... ... : ... .. . ... ... : ... .. . ... ...
ROW FE : ... .. . ... ... ... : ... .. . ... ... ... : ... .. . ... : ... .. . ... : ... .. . ... ... : ... .. . ... ... : ... .. . ... ... : ... .. . ... ...
ROW FF : ... .. . ... ... ... : ... .. . ... ... ... : ... .. . ... : ... .. . ... : ... .. . ... ... : ... .. . ... ... : ... .. . ... ... : ... .. . ... ...

# End of export
