# FamiTracker text export 0.4.2

# Song information
TITLE           "Shovel Knight OST"
AUTHOR          "Jake Kaufman"
COPYRIGHT       ""

# Song comment
COMMENT ""

# Global settings
MACHINE         0
FRAMERATE       0
EXPANSION       1
VIBRATO         1
SPLIT           21

# Macros

# DPCM samples

# Instruments
INST2A03   0    -1  -1  -1  -1  -1 "blank"
INSTVRC6   1    -1  -1  -1  -1  -1 "blank"

# Tracks

TRACK 256   1 150 "New song"
COLUMNS : 3 3 1 1 2 2 2 2

ORDER 00 : 00 00 00 00 00 00 00 00
ORDER 01 : 01 01 01 01 01 01 01 01
ORDER 02 : 02 02 02 02 02 02 02 02
ORDER 03 : 03 03 03 03 03 03 03 03
ORDER 04 : 04 04 04 04 04 04 04 04
ORDER 05 : 05 05 05 05 05 05 05 05
ORDER 06 : 06 06 06 06 06 06 06 06
ORDER 07 : 07 07 07 07 07 07 07 07
ORDER 08 : 08 08 08 08 08 08 08 08
ORDER 09 : 09 09 09 09 09 09 09 09
ORDER 0A : 0A 0A 0A 0A 0A 0A 0A 0A
ORDER 0B : 0B 0B 0B 0B 0B 0B 0B 0B
ORDER 0C : 0C 0C 0C 0C 0C 0C 0C 0C
ORDER 0D : 0D 0D 0D 0D 0D 0D 0D 0D
ORDER 0E : 0E 0E 0E 0E 0E 0E 0E 0E
ORDER 0F : 0F 0F 0F 0F 0F 0F 0F 0F
ORDER 10 : 10 10 10 10 10 10 10 10
ORDER 11 : 11 11 11 11 11 11 11 11
ORDER 12 : 12 12 12 12 12 12 12 12
ORDER 13 : 13 13 13 13 13 13 13 13
ORDER 14 : 14 14 14 14 14 14 14 14
ORDER 15 : 15 15 15 15 15 15 15 15
ORDER 16 : 16 16 16 16 16 16 16 16
ORDER 17 : 17 17 17 17 17 17 17 17
ORDER 18 : 18 18 18 18 18 18 18 18
ORDER 19 : 19 19 19 19 19 19 19 19
ORDER 1A : 1A 1A 1A 1A 1A 1A 1A 1A
ORDER 1B : 1B 1B 1B 1B 1B 1B 1B 1B
ORDER 1C : 1C 1C 1C 1C 1C 1C 1C 1C

PATTERN 00
ROW 00 : D-4 00 F P80 V00 ... : F#2 00 8 P80 V00 ... : C#4 00 . P80 : B-# 00 F V00 : === 00 . Z00 ... : --- .. 0 P80 V00 : --- .. 0 P80 V00 : --- .. 0 P80 V00
ROW 01 : ... .. . ... ... ... : ... .. . ... ... ... : D#3 00 . ... : ... .. C ... : ... .. . ... ... : ... .. . ... ... : ... .. . ... ... : ... .. . ... ...
ROW 02 : ... .. . ... ... ... : ... .. . ... ... ... : G#2 00 . ... : ... .. 6 ... : ... .. . ... ... : ... .. . ... ... : ... .. . ... ... : ... .. . ... ...
ROW 03 : ... .. . ... ... ... : ... .. . ... ... ... : G-2 00 . ... : ... .. 3 ... : ... .. . ... ... : ... .. . ... ... : ... .. . ... ... : ... .. . ... ...
ROW 04 : ... .. . ... ... ... : ... .. . ... ... ... : D-2 00 . ... : ... .. 2 ... : ... .. . ... ... : ... .. . ... ... : ... .. . ... ... : ... .. . ... ...
ROW 05 : ... .. . ... ... ... : ... .. . ... ... ... : ... .. . ... : ... .. 0 ... : ... .. . ... ... : ... .. . ... ... : ... .. . ... ... : ... .. . ... ...
ROW 06 : C#4 00 F ... ... ... : F-2 00 8 ... ... ... : C#2 00 . ... : ... .. . ... : ... .. . ... ... : ... .. . ... ... : ... .. . ... ... : ... .. . ... ...
ROW 07 : ... .. . ... ... ... : ... .. . ... ... ... : ... .. . ... : ... .. . ... : ... .. . ... ... : ... .. . ... ... : ... .. . ... ... : ... .. . ... ...
ROW 08 : ... .. . ... ... ... : ... .. . ... ... ... : ... .. . ... : ... .. . ... : ... .. . ... ... : ... .. . ... ... : ... .. . ... ... : ... .. . ... ...
ROW 09 : ... .. 0 ... ... ... : ... .. 0 ... ... ... : ... .. . ... : ... .. . ... : ... .. . ... ... : ... .. . ... ... : ... .. . ... ... : ... .. . ... ...
ROW 0A : ... .. . ... ... ... : ... .. . ... ... ... : ... .. . ... : ... .. . ... : ... .. . ... ... : ... .. . ... ... : ... .. . ... ... : ... .. . ... ...
ROW 0B : ... .. . ... ... ... : ... .. . ... ... ... : --- .. . ... : ... .. . ... : ... .. . ... ... : ... .. . ... ... : ... .. . ... ... : ... .. . ... ...
ROW 0C : D-4 00 F P80 ... ... : F#2 00 8 P80 ... ... : D-2 00 . ... : ... .. F ... : ... .. . ... ... : ... .. . ... ... : ... .. . ... ... : ... .. . ... ...
ROW 0D : ... .. . ... ... ... : ... .. . ... ... ... : ... .. . ... : ... .. C ... : ... .. . ... ... : ... .. . ... ... : ... .. . ... ... : ... .. . ... ...
ROW 0E : ... .. . ... ... ... : ... .. . ... ... ... : ... .. . ... : ... .. 6 ... : ... .. . ... ... : ... .. . ... ... : ... .. . ... ... : ... .. . ... ...
ROW 0F : ... .. 0 ... ... ... : ... .. 0 ... ... ... : ... .. . ... : ... .. 3 ... : ... .. . ... ... : ... .. . ... ... : ... .. . ... ... : ... .. . ... ...
ROW 10 : ... .. . ... ... ... : ... .. . ... ... ... : ... .. . ... : ... .. F ... : ... .. . ... ... : ... .. . ... ... : ... .. . ... ... : ... .. . ... ...
ROW 11 : ... .. . ... ... ... : ... .. . ... ... ... : --- .. . ... : ... .. C ... : ... .. . ... ... : ... .. . ... ... : ... .. . ... ... : ... .. . ... ...
ROW 12 : D#4 00 F P80 ... ... : G-2 00 8 P80 ... ... : D#2 00 . ... : ... .. 6 ... : ... .. . ... ... : ... .. . ... ... : ... .. . ... ... : ... .. . ... ...
ROW 13 : ... .. . ... ... ... : ... .. . ... ... ... : ... .. . ... : ... .. 3 ... : ... .. . ... ... : ... .. . ... ... : ... .. . ... ... : ... .. . ... ...
ROW 14 : ... .. . ... ... ... : ... .. . ... ... ... : ... .. . ... : ... .. F ... : ... .. . ... ... : ... .. . ... ... : ... .. . ... ... : ... .. . ... ...
ROW 15 : ... .. 0 ... ... ... : ... .. 0 ... ... ... : ... .. . ... : ... .. C ... : ... .. . ... ... : ... .. . ... ... : ... .. . ... ... : ... .. . ... ...
ROW 16 : ... .. . ... ... ... : ... .. . ... ... ... : ... .. . ... : ... .. 6 ... : ... .. . ... ... : ... .. . ... ... : ... .. . ... ... : ... .. . ... ...
ROW 17 : ... .. . ... ... ... : ... .. . ... ... ... : --- .. . ... : ... .. 3 ... : ... .. . ... ... : ... .. . ... ... : ... .. . ... ... : ... .. . ... ...
ROW 18 : D-4 00 F P80 ... ... : F#2 00 8 P80 ... ... : C#4 00 . ... : ... .. F ... : ... .. . ... ... : ... .. . ... ... : ... .. . ... ... : ... .. . ... ...
ROW 19 : ... .. . ... ... ... : ... .. . ... ... ... : D#3 00 . ... : ... .. C ... : ... .. . ... ... : ... .. . ... ... : ... .. . ... ... : ... .. . ... ...
ROW 1A : ... .. . ... ... ... : ... .. . ... ... ... : G#2 00 . ... : ... .. 6 ... : ... .. . ... ... : ... .. . ... ... : ... .. . ... ... : ... .. . ... ...
ROW 1B : ... .. . ... ... ... : ... .. . ... ... ... : G-2 00 . ... : ... .. 3 ... : ... .. . ... ... : ... .. . ... ... : ... .. . ... ... : ... .. . ... ...
ROW 1C : ... .. . ... ... ... : ... .. . ... ... ... : D-2 00 . ... : ... .. 2 ... : ... .. . ... ... : ... .. . ... ... : ... .. . ... ... : ... .. . ... ...
ROW 1D : ... .. . ... ... ... : ... .. . ... ... ... : ... .. . ... : ... .. 0 ... : ... .. . ... ... : ... .. . ... ... : ... .. . ... ... : ... .. . ... ...
ROW 1E : ... .. . ... ... ... : ... .. . ... ... ... : ... .. . ... : ... .. . ... : ... .. . ... ... : ... .. . ... ... : ... .. . ... ... : ... .. . ... ...
ROW 1F : ... .. . ... ... ... : ... .. . ... ... ... : ... .. . ... : ... .. . ... : ... .. . ... ... : ... .. . ... ... : ... .. . ... ... : ... .. . ... ...
ROW 20 : ... .. . ... ... ... : ... .. . ... ... ... : ... .. . ... : ... .. . ... : ... .. . ... ... : ... .. . ... ... : ... .. . ... ... : ... .. . ... ...
ROW 21 : ... .. 0 ... ... ... : ... .. 0 ... ... ... : ... .. . ... : ... .. . ... : ... .. . ... ... : ... .. . ... ... : ... .. . ... ... : ... .. . ... ...
ROW 22 : ... .. . ... ... ... : ... .. . ... ... ... : ... .. . ... : ... .. . ... : ... .. . ... ... : ... .. . ... ... : ... .. . ... ... : ... .. . ... ...
ROW 23 : ... .. . ... ... ... : ... .. . ... ... ... : --- .. . ... : ... .. . ... : ... .. . ... ... : ... .. . ... ... : ... .. . ... ... : ... .. . ... ...
ROW 24 : D-3 00 F P80 ... ... : C-2 00 8 P80 ... ... : C#3 00 . ... : ... .. D ... : ... .. . ... ... : ... .. . ... ... : ... .. . ... ... : ... .. . ... ...
ROW 25 : ... .. . ... ... ... : ... .. . ... ... ... : D#2 00 . ... : ... .. B ... : ... .. . ... ... : ... .. . ... ... : ... .. . ... ... : ... .. . ... ...
ROW 26 : ... .. . ... ... ... : ... .. . ... ... ... : G#1 00 . ... : ... .. . ... : ... .. . ... ... : ... .. . ... ... : ... .. . ... ... : ... .. . ... ...
ROW 27 : ... .. . ... ... ... : ... .. . ... ... ... : G-1 00 . ... : ... .. A ... : ... .. . ... ... : ... .. . ... ... : ... .. . ... ... : ... .. . ... ...
ROW 28 : ... .. . ... ... ... : ... .. . ... ... ... : D-1 00 . ... : ... .. 8 ... : ... .. . ... ... : ... .. . ... ... : ... .. . ... ... : ... .. . ... ...
ROW 29 : ... .. . ... ... ... : ... .. . ... ... ... : ... .. . ... : ... .. 7 ... : ... .. . ... ... : ... .. . ... ... : ... .. . ... ... : ... .. . ... ...
ROW 2A : ... .. . ... ... ... : ... .. . ... ... ... : ... .. . ... : ... .. 6 ... : ... .. . ... ... : ... .. . ... ... : ... .. . ... ... : ... .. . ... ...
ROW 2B : ... .. . ... ... ... : ... .. . ... ... ... : ... .. . ... : ... .. . ... : ... .. . ... ... : ... .. . ... ... : ... .. . ... ... : ... .. . ... ...
ROW 2C : ... .. . ... ... ... : ... .. . ... ... ... : ... .. . ... : ... .. 5 ... : ... .. . ... ... : ... .. . ... ... : ... .. . ... ... : ... .. . ... ...
ROW 2D : ... .. 0 ... ... ... : ... .. 0 ... ... ... : ... .. . ... : ... .. . ... : ... .. . ... ... : ... .. . ... ... : ... .. . ... ... : ... .. . ... ...
ROW 2E : ... .. . ... ... ... : ... .. . ... ... ... : ... .. . ... : ... .. 4 ... : ... .. . ... ... : ... .. . ... ... : ... .. . ... ... : ... .. . ... ...
ROW 2F : ... .. . ... ... ... : ... .. . ... ... ... : --- .. . ... : ... .. . ... : ... .. . ... ... : ... .. . ... ... : ... .. . ... ... : ... .. . ... ...
ROW 30 : D-2 00 F P80 ... ... : F#2 00 8 P80 ... ... : C#5 00 . ... : ... .. F ... : ... .. . ... ... : D-4 01 9 ... V05 : D-3 01 9 ... V05 : ... .. . ... ...
ROW 31 : ... .. . ... ... ... : ... .. . ... ... ... : D#4 00 . ... : ... .. C ... : ... .. . ... ... : ... .. 8 ... ... : ... .. 8 ... ... : ... .. . ... ...
ROW 32 : ... .. . ... ... ... : ... .. . ... ... ... : G#3 00 . ... : ... .. 6 ... : ... .. . ... ... : ... .. . ... ... : ... .. . ... ... : ... .. . ... ...
ROW 33 : ... .. 0 ... ... ... : ... .. 0 ... ... ... : G-3 00 . ... : ... .. 3 ... : ... .. . ... ... : ... .. . ... ... : ... .. . ... ... : ... .. . ... ...
ROW 34 : ... .. . ... ... ... : ... .. . ... ... ... : D-3 00 . ... : ... .. 2 ... : ... .. . ... ... : ... .. 7 ... ... : ... .. 7 ... ... : ... .. . ... ...
ROW 35 : ... .. . ... ... ... : ... .. . ... ... ... : ... .. . ... : ... .. 0 ... : ... .. . ... ... : ... .. . ... ... : ... .. . ... ... : ... .. . ... ...
ROW 36 : C#2 00 F P80 ... ... : F-2 00 8 P80 ... ... : ... .. . ... : ... .. . ... : ... .. . ... ... : --- .. . ... ... : --- .. . P82 ... : ... .. . ... ...
ROW 37 : ... .. . ... ... ... : ... .. . ... ... ... : ... .. . ... : ... .. . ... : ... .. . ... ... : ... .. . ... ... : ... .. . ... ... : ... .. . ... ...
ROW 38 : ... .. . ... ... ... : ... .. . ... ... ... : ... .. . ... : ... .. . ... : ... .. . ... ... : ... .. . ... ... : ... .. . ... ... : ... .. . ... ...
ROW 39 : ... .. 0 ... ... ... : ... .. 0 ... ... ... : ... .. . ... : ... .. . ... : ... .. . ... ... : ... .. . ... ... : ... .. . ... ... : ... .. . ... ...
ROW 3A : ... .. . ... ... ... : ... .. . ... ... ... : ... .. . ... : ... .. . ... : ... .. . ... ... : ... .. . ... ... : ... .. . ... ... : ... .. . ... ...
ROW 3B : ... .. . ... ... ... : ... .. . ... ... ... : ... .. . ... : ... .. . ... : ... .. . ... ... : ... .. . ... ... : ... .. . ... ... : ... .. . ... ...
ROW 3C : D-2 00 F P80 ... ... : F#2 00 8 P80 ... ... : C#3 00 . P77 : ... .. F ... : ... .. . ... ... : C-4 01 9 ... ... : C-3 01 9 P80 ... : ... .. . ... ...
ROW 3D : ... .. . ... ... ... : ... .. . ... ... ... : B-2 00 . P88 : ... .. C ... : ... .. . ... ... : ... .. 8 ... ... : ... .. 8 ... ... : ... .. . ... ...
ROW 3E : ... .. . ... ... ... : ... .. . ... ... ... : A#2 00 . P83 : ... .. 6 ... : ... .. . ... ... : ... .. . ... ... : ... .. . ... ... : ... .. . ... ...
ROW 3F : ... .. 0 ... ... ... : ... .. 0 ... ... ... : A-2 00 . P7F : ... .. 3 ... : ... .. . ... ... : ... .. . ... ... : ... .. . ... ... : ... .. . ... ...
ROW 40 : ... .. . ... ... ... : ... .. . ... ... ... : G#2 00 . P7E : ... .. F ... : ... .. . ... ... : ... .. 7 ... ... : ... .. 7 ... ... : ... .. . ... ...
ROW 41 : ... .. . ... ... ... : ... .. . ... ... ... : G-2 00 . ... : ... .. C ... : ... .. . ... ... : ... .. . ... ... : ... .. . ... ... : ... .. . ... ...
ROW 42 : D#2 00 F P80 ... ... : G-2 00 8 P80 ... ... : F#2 00 . P80 : ... .. 6 ... : ... .. . ... ... : --- .. . ... ... : --- .. . P7E ... : ... .. . ... ...
ROW 43 : ... .. . ... ... ... : ... .. . ... ... ... : F-2 00 . P84 : ... .. 3 ... : ... .. . ... ... : ... .. . ... ... : ... .. . ... ... : ... .. . ... ...
ROW 44 : ... .. . ... ... ... : ... .. . ... ... ... : E-2 00 . P8A : ... .. F ... : ... .. . ... ... : ... .. . ... ... : ... .. . ... ... : ... .. . ... ...
ROW 45 : ... .. 0 ... ... ... : ... .. 0 ... ... ... : D#2 00 . P92 : ... .. C ... : ... .. . ... ... : ... .. . ... ... : ... .. . ... ... : ... .. . ... ...
ROW 46 : ... .. . ... ... ... : ... .. . ... ... ... : ... .. . P72 : ... .. 6 ... : ... .. . ... ... : ... .. . ... ... : ... .. . ... ... : ... .. . ... ...
ROW 47 : ... .. . ... ... ... : ... .. . ... ... ... : D-2 00 . P7D : ... .. 3 ... : ... .. . ... ... : ... .. . ... ... : ... .. . ... ... : ... .. . ... ...
ROW 48 : D-2 00 F P80 ... ... : F#2 00 8 P80 ... ... : C#2 00 . P8A : 9-# 00 D ... : ... .. . ... ... : A#3 01 9 ... ... : A#2 01 9 P80 ... : ... .. . ... ...
ROW 49 : ... .. . ... ... ... : ... .. . ... ... ... : ... .. . P6A : ... .. B ... : ... .. . ... ... : ... .. 8 ... ... : ... .. 8 ... ... : ... .. . ... ...
ROW 4A : ... .. . ... ... ... : ... .. . ... ... ... : C-2 00 . P7A : ... .. . ... : ... .. . ... ... : ... .. . ... ... : ... .. . ... ... : ... .. . ... ...
ROW 4B : ... .. . ... ... ... : ... .. . ... ... ... : B-1 00 . P8D : ... .. A ... : ... .. . ... ... : ... .. . ... ... : ... .. . ... ... : ... .. . ... ...
ROW 4C : ... .. . ... ... ... : ... .. . ... ... ... : ... .. . P6D : ... .. 8 ... : ... .. . ... ... : ... .. 7 ... ... : ... .. 7 ... ... : ... .. . ... ...
ROW 4D : ... .. . ... ... ... : ... .. . ... ... ... : A#1 00 . P83 : ... .. 7 ... : ... .. . ... ... : ... .. . ... ... : ... .. . ... ... : ... .. . ... ...
ROW 4E : ... .. . ... ... ... : ... .. . ... ... ... : A-1 00 . P9C : ... .. 6 ... : ... .. . ... ... : --- .. . ... ... : --- .. . P82 ... : ... .. . ... ...
ROW 4F : ... .. . ... ... ... : ... .. . ... ... ... : ... .. . P7C : ... .. . ... : ... .. . ... ... : ... .. . ... ... : ... .. . ... ... : ... .. . ... ...
ROW 50 : ... .. . ... ... ... : ... .. . ... ... ... : G#1 00 . P98 : ... .. 5 ... : ... .. . ... ... : ... .. . ... ... : ... .. . ... ... : ... .. . ... ...
ROW 51 : ... .. 0 ... ... ... : ... .. 0 ... ... ... : ... .. . P78 : ... .. . ... : ... .. . ... ... : ... .. . ... ... : ... .. . ... ... : ... .. . ... ...
ROW 52 : ... .. . ... ... ... : ... .. . ... ... ... : G-1 00 . P98 : ... .. 4 ... : ... .. . ... ... : ... .. . ... ... : ... .. . ... ... : ... .. . ... ...
ROW 53 : ... .. . ... ... ... : ... .. . ... ... ... : ... .. . P78 : ... .. . ... : ... .. . ... ... : ... .. . ... ... : ... .. . ... ... : ... .. . ... ...
ROW 54 : D-1 00 8 P80 ... ... : ... .. . ... ... ... : F#1 00 . P9C : ... .. 3 ... : ... .. . ... ... : A-3 01 9 ... ... : A-2 01 9 P80 ... : ... .. . ... ...
ROW 55 : ... .. . ... ... ... : ... .. . ... ... ... : ... .. . P7C : ... .. 2 ... : ... .. . ... ... : ... .. 8 ... ... : ... .. 8 ... ... : ... .. . ... ...
ROW 56 : ... .. . ... ... ... : ... .. . ... ... ... : F-1 00 . PA4 : ... .. . ... : ... .. . ... ... : ... .. . ... ... : ... .. . ... ... : ... .. . ... ...
ROW 57 : D#1 00 A ... ... ... : ... .. . ... ... ... : ... .. . P84 : ... .. 1 ... : ... .. . ... ... : ... .. . ... ... : ... .. . ... ... : ... .. . ... ...
ROW 58 : ... .. . ... ... ... : ... .. . ... ... ... : ... .. . P64 : ... .. 0 ... : ... .. . ... ... : ... .. 7 ... ... : ... .. 7 ... ... : ... .. . ... ...
ROW 59 : ... .. . ... ... ... : ... .. . ... ... ... : E-1 00 . P90 : ... .. . ... : ... .. . ... ... : ... .. . ... ... : ... .. . ... ... : ... .. . ... ...
ROW 5A : E-1 00 C ... ... ... : ... .. . ... ... ... : ... .. . P70 : ... .. . ... : ... .. . ... ... : --- .. . ... ... : --- .. . P82 ... : ... .. . ... ...
ROW 5B : ... .. . ... ... ... : ... .. . ... ... ... : D#1 00 . PA1 : ... .. . ... : ... .. . ... ... : ... .. . ... ... : ... .. . ... ... : ... .. . ... ...
ROW 5C : ... .. . ... ... ... : ... .. . ... ... ... : ... .. . P81 : ... .. . ... : ... .. . ... ... : ... .. . ... ... : ... .. . ... ... : ... .. . ... ...
ROW 5D : F#1 00 F ... ... ... : ... .. . ... ... ... : ... .. . P61 : ... .. . ... : ... .. . ... ... : ... .. . ... ... : ... .. . ... ... : ... .. . ... ...
ROW 5E : ... .. . ... ... ... : ... .. . ... ... ... : D-1 00 . P97 : ... .. . ... : ... .. . ... ... : ... .. . ... ... : ... .. . ... ... : ... .. . ... ...
ROW 5F : ... .. . ... ... ... : ... .. . ... ... ... : ... .. . P77 : ... .. . ... : ... .. . ... ... : ... .. . ... ... : ... .. . ... ... : ... .. . ... ...
ROW 60 : G-1 00 D ... ... ... : D-5 00 6 P80 ... ... : F#4 00 . P80 : C-# 00 4 ... : ... .. . ... ... : ... .. . ... ... : ... .. . ... ... : ... .. . ... ...
ROW 61 : ... .. B ... ... ... : ... .. 4 ... ... ... : G#3 00 . ... : ... .. 3 ... : ... .. . ... ... : ... .. . ... ... : ... .. . ... ... : ... .. . ... ...
ROW 62 : ... .. . ... ... ... : ... .. 2 ... ... ... : C#3 00 . ... : ... .. 1 ... : ... .. . ... ... : ... .. . ... ... : ... .. . ... ... : ... .. . ... ...
ROW 63 : ... .. A ... ... ... : ... .. 1 ... ... ... : C-3 00 . ... : ... .. . ... : ... .. . ... ... : ... .. . ... ... : ... .. . ... ... : ... .. . ... ...
ROW 64 : ... .. 8 ... ... ... : ... .. . ... ... ... : G-2 00 . ... : ... .. . ... : ... .. . ... ... : ... .. . ... ... : ... .. . ... ... : ... .. . ... ...
ROW 65 : ... .. 7 ... ... ... : ... .. 0 ... ... ... : ... .. . ... : ... .. 0 ... : ... .. . ... ... : ... .. . ... ... : ... .. . ... ... : ... .. . ... ...
ROW 66 : ... .. 6 ... ... ... : D#5 00 6 P80 ... ... : ... .. . ... : ... .. 8 ... : ... .. . ... ... : ... .. . ... ... : ... .. . ... ... : ... .. . ... ...
ROW 67 : ... .. . ... ... ... : ... .. 4 ... ... ... : ... .. . ... : ... .. 6 ... : ... .. . ... ... : ... .. . ... ... : ... .. . ... ... : ... .. . ... ...
ROW 68 : ... .. 5 ... ... ... : ... .. 2 ... ... ... : ... .. . ... : ... .. 3 ... : ... .. . ... ... : ... .. . ... ... : ... .. . ... ... : ... .. . ... ...
ROW 69 : ... .. . ... ... ... : ... .. 1 ... ... ... : ... .. . ... : ... .. 1 ... : ... .. . ... ... : ... .. . ... ... : ... .. . ... ... : ... .. . ... ...
ROW 6A : ... .. 4 ... ... ... : ... .. . ... ... ... : ... .. . ... : ... .. . ... : ... .. . ... ... : ... .. . ... ... : ... .. . ... ... : ... .. . ... ...
ROW 6B : ... .. . ... ... ... : ... .. 0 ... ... ... : ... .. . ... : ... .. 0 ... : ... .. . ... ... : ... .. . ... ... : ... .. . ... ... : ... .. . ... ...
ROW 6C : D-2 00 D ... ... ... : D-5 00 6 P80 ... ... : ... .. . ... : ... .. F ... : ... .. . ... ... : D-3 01 9 ... ... : A#3 01 9 P80 ... : D-3 01 F P87 ...
ROW 6D : ... .. B ... ... ... : ... .. 4 ... ... ... : ... .. . ... : ... .. C ... : ... .. . ... ... : ... .. 8 ... ... : ... .. 8 ... ... : ... .. D P89 ...
ROW 6E : ... .. . ... ... ... : ... .. 2 ... ... ... : ... .. . ... : ... .. 6 ... : ... .. . ... ... : ... .. . ... ... : ... .. . ... ... : ... .. 8 P83 ...
ROW 6F : ... .. 0 ... ... ... : ... .. 1 ... ... ... : ... .. . ... : ... .. 3 ... : ... .. . ... ... : ... .. . ... ... : ... .. . ... ... : ... .. . P7D ...
ROW 70 : ... .. . ... ... ... : ... .. . ... ... ... : ... .. . ... : ... .. 2 ... : ... .. . ... ... : ... .. 7 ... ... : ... .. 7 ... ... : ... .. . P77 ...
ROW 71 : ... .. . ... ... ... : ... .. 0 ... ... ... : ... .. . ... : ... .. 0 ... : ... .. . ... ... : ... .. . ... ... : ... .. . ... ... : ... .. . P79 ...
ROW 72 : D-2 00 D P80 ... ... : D#5 00 6 P80 ... ... : --- .. . ... : ... .. 4 ... : ... .. . ... ... : --- .. . P82 ... : --- .. . ... ... : --- .. . P7D ...
ROW 73 : ... .. B ... ... ... : ... .. 4 ... ... ... : ... .. . ... : ... .. 3 ... : ... .. . ... ... : ... .. . ... ... : ... .. . ... ... : ... .. . ... ...
ROW 74 : ... .. . ... ... ... : ... .. 2 ... ... ... : ... .. . ... : ... .. 1 ... : ... .. . ... ... : ... .. . ... ... : ... .. . ... ... : ... .. . ... ...
ROW 75 : ... .. 0 ... ... ... : ... .. 1 ... ... ... : ... .. . ... : ... .. . ... : ... .. . ... ... : ... .. . ... ... : ... .. . ... ... : ... .. . ... ...
ROW 76 : ... .. . ... ... ... : ... .. . ... ... ... : ... .. . ... : ... .. . ... : ... .. . ... ... : ... .. . ... ... : ... .. . ... ... : ... .. . ... ...
ROW 77 : ... .. . ... ... ... : ... .. 0 ... ... ... : ... .. . ... : ... .. 0 ... : ... .. . ... ... : ... .. . ... ... : ... .. . ... ... : ... .. . ... ...
ROW 78 : C#2 00 D P80 ... ... : D-5 00 6 P80 ... ... : C#4 00 . ... : ... .. 2 ... : ... .. . ... ... : ... .. . ... ... : ... .. . ... ... : C#3 01 F P78 ...
ROW 79 : ... .. B ... ... ... : ... .. 4 ... ... ... : D#3 00 . ... : ... .. 1 ... : ... .. . ... ... : ... .. . ... ... : ... .. . ... ... : ... .. D P80 ...
ROW 7A : ... .. . ... ... ... : ... .. 2 ... ... ... : G#2 00 . ... : ... .. . ... : ... .. . ... ... : ... .. . ... ... : ... .. . ... ... : ... .. 8 P86 ...
ROW 7B : ... .. A ... ... ... : ... .. 1 ... ... ... : G-2 00 . ... : ... .. . ... : ... .. . ... ... : ... .. . ... ... : ... .. . ... ... : ... .. . P89 ...
ROW 7C : ... .. 8 ... ... ... : ... .. . ... ... ... : D-2 00 . ... : ... .. . ... : ... .. . ... ... : ... .. . ... ... : ... .. . ... ... : ... .. . P85 ...
ROW 7D : ... .. 7 ... ... ... : ... .. 0 ... ... ... : ... .. . ... : ... .. 0 ... : ... .. . ... ... : ... .. . ... ... : ... .. . ... ... : ... .. . P7F ...
ROW 7E : ... .. D ... ... ... : D#5 00 6 P80 ... ... : ... .. . ... : ... .. 4 ... : ... .. . ... ... : ... .. . ... ... : ... .. . ... ... : ... .. . P78 ...
ROW 7F : ... .. B ... ... ... : ... .. 4 ... ... ... : ... .. . ... : ... .. 3 ... : ... .. . ... ... : ... .. . ... ... : ... .. . ... ... : ... .. . ... ...
ROW 80 : ... .. . ... ... ... : ... .. 2 ... ... ... : ... .. . ... : ... .. 1 ... : ... .. . ... ... : ... .. . ... ... : ... .. . ... ... : ... .. . P7F ...
ROW 81 : ... .. A ... ... ... : ... .. 1 ... ... ... : ... .. . ... : ... .. . ... : ... .. . ... ... : ... .. . ... ... : ... .. . ... ... : ... .. . P85 ...
ROW 82 : ... .. 8 ... ... ... : ... .. . ... ... ... : ... .. . ... : ... .. . ... : ... .. . ... ... : ... .. . ... ... : ... .. . ... ... : ... .. . P89 ...
ROW 83 : ... .. 7 ... ... ... : ... .. 0 ... ... ... : ... .. . ... : ... .. 0 ... : ... .. . ... ... : ... .. . ... ... : ... .. . ... ... : ... .. . P86 ...
ROW 84 : D-2 00 D ... ... ... : D-5 00 6 P80 ... ... : ... .. . ... : ... .. F ... : ... .. . ... ... : C#3 01 9 P80 ... : A#3 01 9 ... ... : D-3 01 F P80 ...
ROW 85 : ... .. B ... ... ... : ... .. 4 ... ... ... : ... .. . ... : ... .. C ... : ... .. . ... ... : ... .. 8 ... ... : ... .. 8 ... ... : ... .. D P78 ...
ROW 86 : ... .. . ... ... ... : ... .. 2 ... ... ... : ... .. . ... : ... .. 6 ... : ... .. . ... ... : ... .. . ... ... : ... .. . ... ... : ... .. 8 P77 ...
ROW 87 : ... .. 0 ... ... ... : ... .. 1 ... ... ... : ... .. . ... : ... .. 3 ... : ... .. . ... ... : ... .. . ... ... : ... .. . ... ... : ... .. . P7E ...
ROW 88 : ... .. . ... ... ... : ... .. . ... ... ... : ... .. . ... : ... .. 2 ... : ... .. . ... ... : ... .. 7 ... ... : ... .. 7 ... ... : ... .. . P84 ...
ROW 89 : ... .. . ... ... ... : ... .. 0 ... ... ... : ... .. . ... : ... .. 0 ... : ... .. . ... ... : ... .. . ... ... : ... .. . ... ... : ... .. . P89 ...
ROW 8A : D-2 00 D P80 ... ... : D#5 00 6 P80 ... ... : --- .. . ... : ... .. F ... : ... .. . ... ... : --- .. . P83 ... : --- .. . ... ... : --- .. . P83 ...
ROW 8B : ... .. B ... ... ... : ... .. 4 ... ... ... : ... .. . ... : ... .. C ... : ... .. . ... ... : ... .. . ... ... : ... .. . ... ... : ... .. . ... ...
ROW 8C : ... .. . ... ... ... : ... .. 2 ... ... ... : ... .. . ... : ... .. 6 ... : ... .. . ... ... : ... .. . ... ... : ... .. . ... ... : ... .. . ... ...
ROW 8D : ... .. 0 ... ... ... : ... .. 1 ... ... ... : ... .. . ... : ... .. 3 ... : ... .. . ... ... : ... .. . ... ... : ... .. . ... ... : ... .. . ... ...
ROW 8E : ... .. . ... ... ... : ... .. . ... ... ... : ... .. . ... : ... .. 2 ... : ... .. . ... ... : ... .. . ... ... : ... .. . ... ... : ... .. . ... ...
ROW 8F : ... .. . ... ... ... : ... .. 0 ... ... ... : ... .. . ... : ... .. 0 ... : ... .. . ... ... : ... .. . ... ... : ... .. . ... ... : ... .. . ... ...
ROW 90 : A#1 00 D P80 ... ... : D-5 00 6 P80 ... ... : A-4 00 . ... : ... .. 2 ... : ... .. . ... ... : ... .. . ... ... : ... .. . ... ... : D#3 01 F P89 ...
ROW 91 : ... .. B ... ... ... : ... .. 4 ... ... ... : B-3 00 . ... : ... .. 1 ... : ... .. . ... ... : ... .. . ... ... : ... .. . ... ... : ... .. D P87 ...
ROW 92 : ... .. . ... ... ... : ... .. 2 ... ... ... : E-3 00 . ... : ... .. . ... : ... .. . ... ... : ... .. . ... ... : ... .. . ... ... : ... .. 8 P80 ...
ROW 93 : ... .. A ... ... ... : ... .. 1 ... ... ... : D#3 00 . ... : ... .. . ... : ... .. . ... ... : ... .. . ... ... : ... .. . ... ... : ... .. . P79 ...
ROW 94 : ... .. 8 ... ... ... : ... .. . ... ... ... : A#2 00 . ... : ... .. . ... : ... .. . ... ... : ... .. . ... ... : ... .. . ... ... : ... .. . P77 ...
ROW 95 : ... .. 7 ... ... ... : ... .. 0 ... ... ... : ... .. . ... : ... .. 0 ... : ... .. . ... ... : ... .. . ... ... : ... .. . ... ... : ... .. . P7C ...
ROW 96 : ... .. D ... ... ... : D#5 00 6 P80 ... ... : ... .. . ... : ... .. 4 ... : ... .. . ... ... : ... .. . ... ... : ... .. . ... ... : ... .. . P82 ...
ROW 97 : ... .. B ... ... ... : ... .. 4 ... ... ... : ... .. . ... : ... .. 3 ... : ... .. . ... ... : ... .. . ... ... : ... .. . ... ... : ... .. . P89 ...
ROW 98 : ... .. . ... ... ... : ... .. 2 ... ... ... : ... .. . ... : ... .. 1 ... : ... .. . ... ... : ... .. . ... ... : ... .. . ... ... : ... .. . P88 ...
ROW 99 : ... .. A ... ... ... : ... .. 1 ... ... ... : ... .. . ... : ... .. . ... : ... .. . ... ... : ... .. . ... ... : ... .. . ... ... : ... .. . P80 ...
ROW 9A : ... .. 8 ... ... ... : ... .. . ... ... ... : ... .. . ... : ... .. . ... : ... .. . ... ... : ... .. . ... ... : ... .. . ... ... : ... .. . P7A ...
ROW 9B : ... .. 7 ... ... ... : ... .. 0 ... ... ... : ... .. . ... : ... .. 0 ... : ... .. . ... ... : ... .. . ... ... : ... .. . ... ... : ... .. . P77 ...
ROW 9C : C#2 00 D ... ... ... : E-5 00 6 P80 ... ... : ... .. . ... : ... .. F ... : ... .. . ... ... : D-3 01 9 P80 ... : A#3 01 9 ... ... : D-3 01 F P7B ...
ROW 9D : ... .. B ... ... ... : ... .. 4 ... ... ... : ... .. . ... : ... .. C ... : ... .. . ... ... : ... .. 8 ... ... : ... .. 8 ... ... : ... .. D P81 ...
ROW 9E : ... .. . ... ... ... : ... .. 2 ... ... ... : ... .. . ... : ... .. 6 ... : ... .. . ... ... : ... .. . ... ... : ... .. . ... ... : ... .. 8 P88 ...
ROW 9F : ... .. 0 ... ... ... : ... .. 1 ... ... ... : ... .. . ... : ... .. 3 ... : ... .. . ... ... : ... .. . ... ... : ... .. . ... ... : ... .. . ... ...
ROW A0 : ... .. . ... ... ... : ... .. . ... ... ... : ... .. . ... : ... .. 2 ... : ... .. . ... ... : ... .. 7 ... ... : ... .. 7 ... ... : ... .. . P81 ...
ROW A1 : ... .. . ... ... ... : ... .. 0 ... ... ... : ... .. . ... : ... .. 0 ... : ... .. . ... ... : ... .. . ... ... : ... .. . ... ... : ... .. . P7B ...
ROW A2 : C#2 00 D P80 ... ... : F-5 00 6 P80 ... ... : --- .. . ... : ... .. F ... : ... .. . ... ... : --- .. . P82 ... : --- .. . ... ... : --- .. . P7F ...
ROW A3 : ... .. B ... ... ... : ... .. 4 ... ... ... : ... .. . ... : ... .. C ... : ... .. . ... ... : ... .. . ... ... : ... .. . ... ... : ... .. . ... ...
ROW A4 : ... .. . ... ... ... : ... .. 2 ... ... ... : ... .. . ... : ... .. 6 ... : ... .. . ... ... : ... .. . ... ... : ... .. . ... ... : ... .. . ... ...
ROW A5 : ... .. 0 ... ... ... : ... .. 1 ... ... ... : ... .. . ... : ... .. 3 ... : ... .. . ... ... : ... .. . ... ... : ... .. . ... ... : ... .. . ... ...
ROW A6 : ... .. . ... ... ... : ... .. . ... ... ... : ... .. . ... : ... .. 2 ... : ... .. . ... ... : ... .. . ... ... : ... .. . ... ... : ... .. . ... ...
ROW A7 : ... .. . ... ... ... : ... .. 0 ... ... ... : ... .. . ... : ... .. 0 ... : ... .. . ... ... : ... .. . ... ... : ... .. . ... ... : ... .. . ... ...
ROW A8 : A-1 00 D P80 ... ... : F#5 00 6 P80 ... ... : G#4 00 . ... : ... .. 4 ... : ... .. . ... ... : ... .. . ... ... : ... .. . ... ... : C#3 01 F P7C ...
ROW A9 : ... .. B ... ... ... : ... .. 4 ... ... ... : A#3 00 . ... : ... .. 3 ... : ... .. . ... ... : ... .. . ... ... : ... .. . ... ... : ... .. D P77 ...
ROW AA : ... .. . ... ... ... : ... .. 2 ... ... ... : D#3 00 . ... : ... .. 1 ... : ... .. . ... ... : ... .. . ... ... : ... .. . ... ... : ... .. 8 P79 ...
ROW AB : ... .. A ... ... ... : ... .. 1 ... ... ... : D-3 00 . ... : ... .. . ... : ... .. . ... ... : ... .. . ... ... : ... .. . ... ... : ... .. . P80 ...
ROW AC : ... .. 8 ... ... ... : ... .. . ... ... ... : A-2 00 . ... : ... .. . ... : ... .. . ... ... : ... .. . ... ... : ... .. . ... ... : ... .. . P87 ...
ROW AD : ... .. 7 ... ... ... : ... .. 0 ... ... ... : ... .. . ... : ... .. 0 ... : ... .. . ... ... : ... .. . ... ... : ... .. . ... ... : ... .. . P89 ...
ROW AE : ... .. D ... ... ... : F-5 00 6 P80 ... ... : ... .. . ... : ... .. 8 ... : ... .. . ... ... : ... .. . ... ... : ... .. . ... ... : ... .. . P83 ...
ROW AF : ... .. B ... ... ... : ... .. 4 ... ... ... : ... .. . ... : ... .. 6 ... : ... .. . ... ... : ... .. . ... ... : ... .. . ... ... : ... .. . P7D ...
ROW B0 : ... .. . ... ... ... : ... .. 2 ... ... ... : ... .. . ... : ... .. 3 ... : ... .. . ... ... : ... .. . ... ... : ... .. . ... ... : ... .. . P77 ...
ROW B1 : ... .. A ... ... ... : ... .. 1 ... ... ... : ... .. . ... : ... .. 1 ... : ... .. . ... ... : ... .. . ... ... : ... .. . ... ... : ... .. . P79 ...
ROW B2 : ... .. 8 ... ... ... : ... .. . ... ... ... : ... .. . ... : ... .. . ... : ... .. . ... ... : ... .. . ... ... : ... .. . ... ... : ... .. . P80 ...
ROW B3 : ... .. 7 ... ... ... : ... .. 0 ... ... ... : ... .. . ... : ... .. 0 ... : ... .. . ... ... : ... .. . ... ... : ... .. . ... ... : ... .. . P87 ...
ROW B4 : C#2 00 D ... ... ... : E-5 00 6 P80 ... ... : ... .. . ... : ... .. F ... : ... .. . ... ... : C#3 01 9 P80 ... : A-3 01 9 ... ... : D-3 01 F P89 ...
ROW B5 : ... .. B ... ... ... : ... .. 4 ... ... ... : ... .. . ... : ... .. C ... : ... .. . ... ... : ... .. 8 ... ... : ... .. 8 ... ... : ... .. D P84 ...
ROW B6 : ... .. . ... ... ... : ... .. 2 ... ... ... : ... .. . ... : ... .. 6 ... : ... .. . ... ... : ... .. . ... ... : ... .. . ... ... : ... .. 8 P7E ...
ROW B7 : ... .. 0 ... ... ... : ... .. 1 ... ... ... : ... .. . ... : ... .. 3 ... : ... .. . ... ... : ... .. . ... ... : ... .. . ... ... : ... .. . P77 ...
ROW B8 : ... .. . ... ... ... : ... .. . ... ... ... : ... .. . ... : ... .. 2 ... : ... .. . ... ... : ... .. 7 ... ... : ... .. 7 ... ... : ... .. . P78 ...
ROW B9 : ... .. . ... ... ... : ... .. 0 ... ... ... : ... .. . ... : ... .. 0 ... : ... .. . ... ... : ... .. . ... ... : ... .. . ... ... : ... .. . P80 ...
ROW BA : D-2 00 D P80 ... ... : D#5 00 6 P80 ... ... : --- .. . ... : ... .. 2 ... : ... .. . ... ... : --- .. . P83 ... : --- .. . ... ... : ... .. . P86 ...
ROW BB : ... .. B ... ... ... : ... .. 4 ... ... ... : ... .. . ... : ... .. 1 ... : ... .. . ... ... : ... .. . ... ... : ... .. . ... ... : ... .. . P89 ...
ROW BC : ... .. . ... ... ... : ... .. 2 ... ... ... : ... .. . ... : ... .. . ... : ... .. . ... ... : ... .. . ... ... : ... .. . ... ... : ... .. . P85 ...
ROW BD : ... .. 0 ... ... ... : ... .. 1 ... ... ... : ... .. . ... : ... .. . ... : ... .. . ... ... : ... .. . ... ... : ... .. . ... ... : ... .. . P7F ...
ROW BE : ... .. . ... ... ... : ... .. . ... ... ... : ... .. . ... : ... .. . ... : ... .. . ... ... : ... .. . ... ... : ... .. . ... ... : ... .. . P78 ...
ROW BF : ... .. . ... ... ... : ... .. 0 ... ... ... : ... .. . ... : ... .. 0 ... : ... .. . ... ... : ... .. . ... ... : ... .. . ... ... : ... .. . ... ...
ROW C0 : G-1 00 F P80 ... ... : D-5 00 6 P80 ... ... : F#4 00 . ... : ... .. 4 ... : ... .. . ... ... : G-2 01 9 P80 ... : ... .. . ... ... : --- .. . P7C ...
ROW C1 : ... .. E ... ... ... : ... .. 4 ... ... ... : G#3 00 . ... : ... .. 3 ... : ... .. . ... ... : ... .. 8 ... ... : ... .. . ... ... : ... .. . ... ...
ROW C2 : ... .. D ... ... ... : ... .. 2 ... ... ... : C#3 00 . ... : ... .. 1 ... : ... .. . ... ... : ... .. . ... ... : ... .. . ... ... : ... .. . ... ...
ROW C3 : ... .. A ... ... ... : ... .. 1 ... ... ... : --- .. . ... : ... .. . ... : ... .. . ... ... : ... .. . ... ... : ... .. . ... ... : ... .. . ... ...
ROW C4 : ... .. . ... ... ... : ... .. . ... ... ... : ... .. . ... : ... .. . ... : ... .. . ... ... : ... .. 7 ... ... : ... .. . ... ... : ... .. . ... ...
ROW C5 : ... .. . ... ... ... : ... .. 0 ... ... ... : ... .. . ... : ... .. 0 ... : ... .. . ... ... : ... .. . ... ... : ... .. . ... ... : ... .. . ... ...
ROW C6 : F#1 00 F ... ... ... : D#5 00 6 P80 ... ... : F#2 00 . ... : ... .. 8 ... : ... .. . ... ... : F#2 01 9 ... ... : ... .. . ... ... : ... .. . ... ...
ROW C7 : ... .. E ... ... ... : ... .. 4 ... ... ... : ... .. . ... : ... .. 6 ... : ... .. . ... ... : ... .. 8 ... ... : ... .. . ... ... : ... .. . ... ...
ROW C8 : ... .. D ... ... ... : ... .. 2 ... ... ... : ... .. . ... : ... .. 3 ... : ... .. . ... ... : ... .. . ... ... : ... .. . ... ... : ... .. . ... ...
ROW C9 : ... .. A ... ... ... : ... .. 1 ... ... ... : --- .. . ... : ... .. 1 ... : ... .. . ... ... : ... .. . ... ... : ... .. . ... ... : ... .. . ... ...
ROW CA : ... .. . ... ... ... : ... .. . ... ... ... : ... .. . ... : ... .. . ... : ... .. . ... ... : ... .. 7 ... ... : ... .. . ... ... : ... .. . ... ...
ROW CB : ... .. . ... ... ... : ... .. 0 ... ... ... : ... .. . ... : ... .. 0 ... : ... .. . ... ... : ... .. . ... ... : ... .. . ... ... : ... .. . ... ...
ROW CC : G-1 00 F ... ... ... : D-5 00 6 P80 ... ... : G-2 00 . ... : ... .. F ... : ... .. . ... ... : G-2 01 9 ... ... : G-3 01 9 ... ... : G-1 01 F P7E ...
ROW CD : ... .. E ... ... ... : ... .. 4 ... ... ... : ... .. . ... : ... .. C ... : ... .. . ... ... : ... .. 8 ... ... : ... .. 8 ... ... : ... .. D P7C ...
ROW CE : ... .. D ... ... ... : ... .. 2 ... ... ... : ... .. . ... : ... .. 6 ... : ... .. . ... ... : ... .. . ... ... : ... .. . ... ... : ... .. 8 P82 ...
ROW CF : ... .. A ... ... ... : ... .. 1 ... ... ... : --- .. . ... : ... .. 3 ... : ... .. . ... ... : ... .. . ... ... : ... .. . ... ... : ... .. . P88 ...
ROW D0 : ... .. . ... ... ... : ... .. . ... ... ... : ... .. . ... : ... .. 2 ... : ... .. . ... ... : ... .. 7 ... ... : ... .. 7 ... ... : ... .. . P8E ...
ROW D1 : ... .. . ... ... ... : ... .. 0 ... ... ... : ... .. . ... : ... .. 0 ... : ... .. . ... ... : ... .. . ... ... : ... .. . ... ... : ... .. . P8C ...
ROW D2 : A-1 00 F ... ... ... : D#5 00 6 P80 ... ... : A-2 00 . ... : ... .. 4 ... : ... .. . ... ... : A-2 01 9 ... ... : --- .. . P81 ... : ... .. . P85 ...
ROW D3 : ... .. E ... ... ... : ... .. 4 ... ... ... : ... .. . ... : ... .. 3 ... : ... .. . ... ... : ... .. 8 ... ... : ... .. . ... ... : ... .. 4 P7E ...
ROW D4 : ... .. D ... ... ... : ... .. 2 ... ... ... : ... .. . ... : ... .. 1 ... : ... .. . ... ... : ... .. . ... ... : ... .. . ... ... : ... .. . P7C ...
ROW D5 : ... .. A ... ... ... : ... .. 1 ... ... ... : --- .. . ... : ... .. . ... : ... .. . ... ... : ... .. . ... ... : ... .. . ... ... : ... .. 1 P81 ...
ROW D6 : ... .. . ... ... ... : ... .. . ... ... ... : ... .. . ... : ... .. . ... : ... .. . ... ... : ... .. 7 ... ... : ... .. . ... ... : ... .. . P87 ...
ROW D7 : ... .. . ... ... ... : ... .. 0 ... ... ... : ... .. . ... : ... .. 0 ... : ... .. . ... ... : ... .. . ... ... : ... .. . ... ... : ... .. . P8E ...
ROW D8 : A#1 00 F ... ... ... : D-5 00 6 P80 ... ... : A-4 00 . ... : ... .. 2 ... : ... .. . ... ... : A#2 01 9 ... ... : A#3 01 9 P80 ... : A#1 01 F P8D ...
ROW D9 : ... .. E ... ... ... : ... .. 4 ... ... ... : B-3 00 . ... : ... .. 1 ... : ... .. . ... ... : ... .. 8 ... ... : ... .. 8 ... ... : ... .. D P85 ...
ROW DA : ... .. D ... ... ... : ... .. 2 ... ... ... : E-3 00 . ... : ... .. . ... : ... .. . ... ... : ... .. . ... ... : ... .. . ... ... : ... .. 8 P7F ...
ROW DB : ... .. A ... ... ... : ... .. 1 ... ... ... : D#3 00 . ... : ... .. . ... : ... .. . ... ... : ... .. . ... ... : ... .. . ... ... : ... .. . P7C ...
ROW DC : ... .. . ... ... ... : ... .. . ... ... ... : A#2 00 . ... : ... .. . ... : ... .. . ... ... : ... .. 7 ... ... : ... .. 7 ... ... : ... .. . P80 ...
ROW DD : ... .. . ... ... ... : ... .. 0 ... ... ... : ... .. . ... : ... .. 0 ... : ... .. . ... ... : ... .. . ... ... : ... .. . ... ... : ... .. . P86 ...
ROW DE : ... .. 0 ... ... ... : D#5 00 6 P80 ... ... : ... .. . ... : ... .. 4 ... : ... .. . ... ... : --- .. . P82 ... : ... .. . ... ... : ... .. . P8D ...
ROW DF : ... .. . ... ... ... : ... .. 4 ... ... ... : ... .. . ... : ... .. 3 ... : ... .. . ... ... : ... .. . ... ... : ... .. 6 ... ... : ... .. 4 ... ...
ROW E0 : ... .. . ... ... ... : ... .. 2 ... ... ... : ... .. . ... : ... .. 1 ... : ... .. . ... ... : ... .. . ... ... : ... .. . ... ... : ... .. . P86 ...
ROW E1 : ... .. . ... ... ... : ... .. 1 ... ... ... : --- .. . ... : ... .. . ... : ... .. . ... ... : ... .. . ... ... : ... .. . ... ... : ... .. 1 P80 ...
ROW E2 : ... .. . ... ... ... : ... .. . ... ... ... : ... .. . ... : ... .. . ... : ... .. . ... ... : ... .. . ... ... : ... .. . ... ... : ... .. . P7C ...
ROW E3 : ... .. . ... ... ... : ... .. 0 ... ... ... : ... .. . ... : ... .. 0 ... : ... .. . ... ... : ... .. . ... ... : ... .. . ... ... : ... .. . P7F ...
ROW E4 : D-1 00 F P80 ... ... : D-5 00 6 P80 ... ... : C#4 00 . ... : ... .. F ... : ... .. . ... ... : D-2 01 9 P80 ... : D-3 01 9 ... ... : D-1 01 F P85 ...
ROW E5 : ... .. E ... ... ... : ... .. 4 ... ... ... : D#3 00 . ... : ... .. C ... : ... .. . ... ... : ... .. 8 ... ... : ... .. 8 ... ... : ... .. D P8D ...
ROW E6 : ... .. D ... ... ... : ... .. 2 ... ... ... : G#2 00 . ... : ... .. 6 ... : ... .. . ... ... : ... .. . ... ... : ... .. . ... ... : ... .. 8 P8E ...
ROW E7 : ... .. A ... ... ... : ... .. 1 ... ... ... : G-2 00 . ... : ... .. 3 ... : ... .. . ... ... : ... .. . ... ... : ... .. . ... ... : ... .. . P87 ...
ROW E8 : ... .. . ... ... ... : ... .. . ... ... ... : D-2 00 . ... : ... .. 2 ... : ... .. . ... ... : ... .. 7 ... ... : ... .. 7 ... ... : ... .. . P81 ...
ROW E9 : ... .. . ... ... ... : ... .. 0 ... ... ... : ... .. . ... : ... .. 0 ... : ... .. . ... ... : ... .. . ... ... : ... .. . ... ... : ... .. . P7C ...
ROW EA : ... .. 0 ... ... ... : D#5 00 6 P80 ... ... : ... .. . ... : ... .. F ... : ... .. . ... ... : --- .. . P84 ... : --- .. . P82 ... : ... .. . P7E ...
ROW EB : ... .. . ... ... ... : ... .. 4 ... ... ... : ... .. . ... : ... .. C ... : ... .. . ... ... : ... .. . ... ... : ... .. . ... ... : ... .. . P85 ...
ROW EC : ... .. . ... ... ... : ... .. 2 ... ... ... : ... .. . ... : ... .. 6 ... : ... .. . ... ... : ... .. . ... ... : ... .. . ... ... : ... .. . P8C ...
ROW ED : ... .. . ... ... ... : ... .. 1 ... ... ... : --- .. . ... : ... .. 3 ... : ... .. . ... ... : ... .. . ... ... : ... .. . ... ... : ... .. . P8E ...
ROW EE : ... .. . ... ... ... : ... .. . ... ... ... : ... .. . ... : ... .. 2 ... : ... .. . ... ... : ... .. . ... ... : ... .. . ... ... : ... .. . P88 ...
ROW EF : ... .. . ... ... ... : ... .. 0 ... ... ... : ... .. . ... : ... .. 0 ... : ... .. . ... ... : ... .. . ... ... : ... .. . ... ... : ... .. . P82 ...
ROW F0 : A#1 00 F P80 ... ... : D-5 00 6 P80 ... ... : F#4 00 . ... : ... .. 2 ... : ... .. . ... ... : A#2 01 9 P80 ... : ... .. . ... ... : ... .. . P7C ...
ROW F1 : ... .. E ... ... ... : ... .. 4 ... ... ... : G#3 00 . ... : ... .. 1 ... : ... .. . ... ... : ... .. 8 ... ... : ... .. . ... ... : ... .. 4 P7E ...
ROW F2 : ... .. D ... ... ... : ... .. 2 ... ... ... : C#3 00 . ... : ... .. . ... : ... .. . ... ... : ... .. . ... ... : ... .. . ... ... : ... .. . P85 ...
ROW F3 : ... .. A ... ... ... : ... .. 1 ... ... ... : --- .. . ... : ... .. . ... : ... .. . ... ... : ... .. . ... ... : ... .. . ... ... : ... .. 1 P8C ...
ROW F4 : ... .. . ... ... ... : ... .. . ... ... ... : ... .. . ... : ... .. . ... : ... .. . ... ... : ... .. 7 ... ... : ... .. . ... ... : ... .. . P8E ...
ROW F5 : ... .. . ... ... ... : ... .. 0 ... ... ... : ... .. . ... : ... .. 0 ... : ... .. . ... ... : ... .. . ... ... : ... .. . ... ... : ... .. . P89 ...
ROW F6 : A-1 00 F ... ... ... : C#5 00 6 P80 ... ... : F#2 00 . ... : ... .. 4 ... : ... .. . ... ... : A-2 01 9 ... ... : ... .. . ... ... : ... .. . P83 ...
ROW F7 : ... .. E ... ... ... : ... .. 4 ... ... ... : ... .. . ... : ... .. 3 ... : ... .. . ... ... : ... .. 8 ... ... : ... .. . ... ... : ... .. . P7C ...
ROW F8 : ... .. D ... ... ... : ... .. 2 ... ... ... : ... .. . ... : ... .. 1 ... : ... .. . ... ... : ... .. . ... ... : ... .. . ... ... : ... .. . P7D ...
ROW F9 : ... .. A ... ... ... : ... .. 1 ... ... ... : --- .. . ... : ... .. . ... : ... .. . ... ... : ... .. . ... ... : ... .. . ... ... : ... .. . P85 ...
ROW FA : ... .. . ... ... ... : ... .. . ... ... ... : ... .. . ... : ... .. . ... : ... .. . ... ... : ... .. 7 ... ... : ... .. . ... ... : ... .. 0 P8B ...
ROW FB : ... .. . ... ... ... : ... .. 0 ... ... ... : ... .. . ... : ... .. 0 ... : ... .. . ... ... : ... .. . ... ... : ... .. . ... ... : ... .. . P8E ...
ROW FC : G-1 00 F ... ... ... : C-5 00 6 P80 ... ... : G-2 00 . ... : ... .. F ... : ... .. . ... ... : G-2 01 9 ... ... : G-3 01 9 P80 ... : G-1 01 F P8A ...
ROW FD : ... .. E ... ... ... : ... .. 4 ... ... ... : ... .. . ... : ... .. C ... : ... .. . ... ... : ... .. 8 ... ... : ... .. 8 ... ... : ... .. D P84 ...
ROW FE : ... .. D ... ... ... : ... .. 2 ... ... ... : ... .. . ... : ... .. 6 ... : ... .. . ... ... : ... .. . ... ... : ... .. . ... ... : ... .. 8 P7D ...
ROW FF : ... .. A ... ... ... : ... .. 1 ... ... ... : --- .. . ... : ... .. 3 ... : ... .. . ... ... : ... .. . ... ... : ... .. . ... ... : ... .. . ... ...

PATTERN 01
ROW 00 : ... .. . ... ... ... : ... .. . ... ... ... : ... .. . ... : ... .. 2 ... : ... .. . ... ... : ... .. 7 ... ... : ... .. 7 ... ... : ... .. . P84 ...
ROW 01 : ... .. . ... ... ... : ... .. 0 ... ... ... : ... .. . ... : ... .. 0 ... : ... .. . ... ... : ... .. . ... ... : ... .. . ... ... : ... .. . P8A ...
ROW 02 : A-1 00 F ... ... ... : B-4 00 6 P80 ... ... : A-2 00 . ... : ... .. F ... : ... .. . ... ... : A-2 01 9 ... ... : --- .. . P81 ... : ... .. . P8E ...
ROW 03 : ... .. E ... ... ... : ... .. 4 ... ... ... : ... .. . ... : ... .. C ... : ... .. . ... ... : ... .. 8 ... ... : ... .. . ... ... : ... .. 4 P8B ...
ROW 04 : ... .. D ... ... ... : ... .. 2 ... ... ... : ... .. . ... : ... .. 6 ... : ... .. . ... ... : ... .. . ... ... : ... .. . ... ... : ... .. . P85 ...
ROW 05 : ... .. A ... ... ... : ... .. 1 ... ... ... : --- .. . ... : ... .. 3 ... : ... .. . ... ... : ... .. . ... ... : ... .. . ... ... : ... .. 1 P7D ...
ROW 06 : ... .. . ... ... ... : ... .. . ... ... ... : ... .. . ... : ... .. 2 ... : ... .. . ... ... : ... .. 7 ... ... : ... .. . ... ... : ... .. . P7C ...
ROW 07 : ... .. . ... ... ... : ... .. 0 ... ... ... : ... .. . ... : ... .. 0 ... : ... .. . ... ... : ... .. . ... ... : ... .. . ... ... : ... .. . P83 ...
ROW 08 : A#1 00 F ... ... ... : A#4 00 6 P80 ... ... : A-4 00 . ... : ... .. 4 ... : ... .. . ... ... : A#2 01 9 ... ... : A#3 01 9 P80 ... : A#1 01 F P89 ...
ROW 09 : ... .. E ... ... ... : ... .. 4 ... ... ... : B-3 00 . ... : ... .. 3 ... : ... .. . ... ... : ... .. 8 ... ... : ... .. 8 ... ... : ... .. D P8E ...
ROW 0A : ... .. D ... ... ... : ... .. 2 ... ... ... : E-3 00 . ... : ... .. 1 ... : ... .. . ... ... : ... .. . ... ... : ... .. . ... ... : ... .. 8 P8C ...
ROW 0B : ... .. A ... ... ... : ... .. 1 ... ... ... : D#3 00 . ... : ... .. . ... : ... .. . ... ... : ... .. . ... ... : ... .. . ... ... : ... .. . P85 ...
ROW 0C : ... .. . ... ... ... : ... .. . ... ... ... : A#2 00 . ... : ... .. . ... : ... .. . ... ... : ... .. 7 ... ... : ... .. 7 ... ... : ... .. . P7E ...
ROW 0D : ... .. . ... ... ... : ... .. 0 ... ... ... : ... .. . ... : ... .. 0 ... : ... .. . ... ... : ... .. . ... ... : ... .. . ... ... : ... .. . P7C ...
ROW 0E : ... .. 0 ... ... ... : B-4 00 6 P80 ... ... : ... .. . ... : ... .. 8 ... : ... .. . ... ... : --- .. . P82 ... : ... .. . ... ... : ... .. . P82 ...
ROW 0F : ... .. . ... ... ... : ... .. 4 ... ... ... : ... .. . ... : ... .. 6 ... : ... .. . ... ... : ... .. . ... ... : ... .. 6 ... ... : ... .. 4 P88 ...
ROW 10 : ... .. . ... ... ... : ... .. 2 ... ... ... : ... .. . ... : ... .. 3 ... : ... .. . ... ... : ... .. . ... ... : ... .. . ... ... : ... .. . P8E ...
ROW 11 : ... .. . ... ... ... : ... .. 1 ... ... ... : --- .. . ... : ... .. 1 ... : ... .. . ... ... : ... .. . ... ... : ... .. . ... ... : ... .. 1 P8C ...
ROW 12 : ... .. . ... ... ... : ... .. . ... ... ... : ... .. . ... : ... .. . ... : ... .. . ... ... : ... .. . ... ... : ... .. . ... ... : ... .. . P85 ...
ROW 13 : ... .. . ... ... ... : ... .. 0 ... ... ... : ... .. . ... : ... .. 0 ... : ... .. . ... ... : ... .. . ... ... : ... .. . ... ... : ... .. . P7E ...
ROW 14 : D-1 00 F P80 ... ... : C-5 00 6 P80 ... ... : C#4 00 . ... : ... .. F ... : ... .. . ... ... : D-2 01 9 P80 ... : D-3 01 9 ... ... : D-1 01 F P7C ...
ROW 15 : ... .. E ... ... ... : ... .. 4 ... ... ... : D#3 00 . ... : ... .. C ... : ... .. . ... ... : ... .. 8 ... ... : ... .. 8 ... ... : ... .. D P81 ...
ROW 16 : ... .. D ... ... ... : ... .. 2 ... ... ... : G#2 00 . ... : ... .. 6 ... : ... .. . ... ... : ... .. . ... ... : ... .. . ... ... : ... .. 8 P87 ...
ROW 17 : ... .. A ... ... ... : ... .. 1 ... ... ... : G-2 00 . ... : ... .. 3 ... : ... .. . ... ... : ... .. . ... ... : ... .. . ... ... : ... .. . P8E ...
ROW 18 : ... .. . ... ... ... : ... .. . ... ... ... : D-2 00 . ... : ... .. 2 ... : ... .. . ... ... : ... .. 7 ... ... : ... .. 7 ... ... : ... .. . P8D ...
ROW 19 : ... .. . ... ... ... : ... .. 0 ... ... ... : ... .. . ... : ... .. 0 ... : ... .. . ... ... : ... .. . ... ... : ... .. . ... ... : ... .. . P85 ...
ROW 1A : ... .. . ... ... ... : C#5 00 6 P80 ... ... : ... .. . ... : ... .. 2 ... : ... .. . ... ... : --- .. . P84 ... : --- .. . P82 ... : ... .. . P7F ...
ROW 1B : ... .. . ... ... ... : ... .. 4 ... ... ... : ... .. . ... : ... .. 1 ... : ... .. . ... ... : ... .. . ... ... : ... .. . ... ... : ... .. . P7C ...
ROW 1C : ... .. . ... ... ... : ... .. 2 ... ... ... : ... .. . ... : ... .. . ... : ... .. . ... ... : ... .. . ... ... : ... .. . ... ... : ... .. . P80 ...
ROW 1D : ... .. 0 ... ... ... : ... .. 1 ... ... ... : --- .. . ... : ... .. . ... : ... .. . ... ... : ... .. . ... ... : ... .. . ... ... : ... .. . P86 ...
ROW 1E : ... .. . ... ... ... : ... .. . ... ... ... : ... .. . ... : ... .. . ... : ... .. . ... ... : ... .. . ... ... : ... .. . ... ... : ... .. . P8D ...
ROW 1F : ... .. . ... ... ... : ... .. 0 ... ... ... : ... .. . ... : ... .. 0 ... : ... .. . ... ... : ... .. . ... ... : ... .. . ... ... : ... .. . ... ...
ROW 20 : G-1 00 D P80 ... ... : D-5 00 6 P80 ... ... : F#4 00 . ... : ... .. 4 ... : ... .. . ... ... : ... .. . ... ... : ... .. . ... ... : ... .. . P81 ...
ROW 21 : ... .. B ... ... ... : ... .. 4 ... ... ... : G#3 00 . ... : ... .. 3 ... : ... .. . ... ... : ... .. . ... ... : ... .. . ... ... : ... .. 4 P7B ...
ROW 22 : ... .. . ... ... ... : ... .. 2 ... ... ... : C#3 00 . ... : ... .. 1 ... : ... .. . ... ... : ... .. . ... ... : ... .. . ... ... : ... .. . P77 ...
ROW 23 : ... .. A ... ... ... : ... .. 1 ... ... ... : C-3 00 . ... : ... .. . ... : ... .. . ... ... : ... .. . ... ... : ... .. . ... ... : ... .. 1 P7A ...
ROW 24 : ... .. 8 ... ... ... : ... .. . ... ... ... : G-2 00 . ... : ... .. . ... : ... .. . ... ... : ... .. . ... ... : ... .. . ... ... : ... .. . P80 ...
ROW 25 : ... .. 7 ... ... ... : ... .. 0 ... ... ... : ... .. . ... : ... .. 0 ... : ... .. . ... ... : ... .. . ... ... : ... .. . ... ... : ... .. . P88 ...
ROW 26 : ... .. 6 ... ... ... : D#5 00 6 P80 ... ... : ... .. . ... : ... .. 8 ... : ... .. . ... ... : ... .. . ... ... : ... .. . ... ... : ... .. . P89 ...
ROW 27 : ... .. . ... ... ... : ... .. 4 ... ... ... : ... .. . ... : ... .. 6 ... : ... .. . ... ... : ... .. . ... ... : ... .. . ... ... : ... .. . P82 ...
ROW 28 : ... .. 5 ... ... ... : ... .. 2 ... ... ... : ... .. . ... : ... .. 3 ... : ... .. . ... ... : ... .. . ... ... : ... .. . ... ... : ... .. . P7C ...
ROW 29 : ... .. . ... ... ... : ... .. 1 ... ... ... : ... .. . ... : ... .. 1 ... : ... .. . ... ... : ... .. . ... ... : ... .. . ... ... : ... .. . P77 ...
ROW 2A : ... .. 4 ... ... ... : ... .. . ... ... ... : ... .. . ... : ... .. . ... : ... .. . ... ... : ... .. . ... ... : ... .. . ... ... : ... .. 0 P79 ...
ROW 2B : ... .. . ... ... ... : ... .. 0 ... ... ... : ... .. . ... : ... .. 0 ... : ... .. . ... ... : ... .. . ... ... : ... .. . ... ... : ... .. . P80 ...
ROW 2C : D-2 00 D ... ... ... : D-5 00 6 P80 ... ... : ... .. . ... : ... .. F ... : ... .. . ... ... : G-3 01 9 P80 ... : A#3 01 9 P80 ... : D-3 01 F P87 ...
ROW 2D : ... .. B ... ... ... : ... .. 4 ... ... ... : ... .. . ... : ... .. C ... : ... .. . ... ... : ... .. 8 ... ... : ... .. 8 ... ... : ... .. D P89 ...
ROW 2E : ... .. . ... ... ... : ... .. 2 ... ... ... : ... .. . ... : ... .. 6 ... : ... .. . ... ... : ... .. . ... ... : ... .. . ... ... : ... .. 8 P83 ...
ROW 2F : ... .. 0 ... ... ... : ... .. 1 ... ... ... : --- .. . ... : ... .. 3 ... : ... .. . ... ... : ... .. . ... ... : ... .. . ... ... : ... .. . P7D ...
ROW 30 : ... .. . ... ... ... : ... .. . ... ... ... : ... .. . ... : ... .. 2 ... : ... .. . ... ... : ... .. 7 ... ... : ... .. 7 ... ... : ... .. . P77 ...
ROW 31 : ... .. . ... ... ... : ... .. 0 ... ... ... : ... .. . ... : ... .. 0 ... : ... .. . ... ... : ... .. . ... ... : ... .. . ... ... : ... .. . P79 ...
ROW 32 : D-2 00 D P80 ... ... : D#5 00 6 P80 ... ... : ... .. . ... : ... .. 4 ... : ... .. . ... ... : --- .. . P81 ... : --- .. . ... ... : --- .. . P7D ...
ROW 33 : ... .. B ... ... ... : ... .. 4 ... ... ... : ... .. . ... : ... .. 3 ... : ... .. . ... ... : ... .. . ... ... : ... .. . ... ... : ... .. . ... ...
ROW 34 : ... .. . ... ... ... : ... .. 2 ... ... ... : ... .. . ... : ... .. 1 ... : ... .. . ... ... : ... .. . ... ... : ... .. . ... ... : ... .. . ... ...
ROW 35 : ... .. 0 ... ... ... : ... .. 1 ... ... ... : ... .. . ... : ... .. . ... : ... .. . ... ... : ... .. . ... ... : ... .. . ... ... : ... .. . ... ...
ROW 36 : ... .. . ... ... ... : ... .. . ... ... ... : ... .. . ... : ... .. . ... : ... .. . ... ... : ... .. . ... ... : ... .. . ... ... : ... .. . ... ...
ROW 37 : ... .. . ... ... ... : ... .. 0 ... ... ... : ... .. . ... : ... .. 0 ... : ... .. . ... ... : ... .. . ... ... : ... .. . ... ... : ... .. . ... ...
ROW 38 : C#2 00 D P80 ... ... : D-5 00 6 P80 ... ... : C#4 00 . ... : ... .. 2 ... : ... .. . ... ... : ... .. . ... ... : ... .. . ... ... : C#3 01 F P78 ...
ROW 39 : ... .. B ... ... ... : ... .. 4 ... ... ... : D#3 00 . ... : ... .. 1 ... : ... .. . ... ... : ... .. . ... ... : ... .. . ... ... : ... .. D P80 ...
ROW 3A : ... .. . ... ... ... : ... .. 2 ... ... ... : G#2 00 . ... : ... .. . ... : ... .. . ... ... : ... .. . ... ... : ... .. . ... ... : ... .. 8 P86 ...
ROW 3B : ... .. A ... ... ... : ... .. 1 ... ... ... : G-2 00 . ... : ... .. . ... : ... .. . ... ... : ... .. . ... ... : ... .. . ... ... : ... .. . P89 ...
ROW 3C : ... .. 8 ... ... ... : ... .. . ... ... ... : D-2 00 . ... : ... .. . ... : ... .. . ... ... : ... .. . ... ... : ... .. . ... ... : ... .. . P85 ...
ROW 3D : ... .. 7 ... ... ... : ... .. 0 ... ... ... : ... .. . ... : ... .. 0 ... : ... .. . ... ... : ... .. . ... ... : ... .. . ... ... : ... .. . P7F ...
ROW 3E : ... .. D ... ... ... : D#5 00 6 P80 ... ... : ... .. . ... : ... .. 4 ... : ... .. . ... ... : ... .. . ... ... : ... .. . ... ... : ... .. . P78 ...
ROW 3F : ... .. B ... ... ... : ... .. 4 ... ... ... : ... .. . ... : ... .. 3 ... : ... .. . ... ... : ... .. . ... ... : ... .. . ... ... : ... .. . ... ...
ROW 40 : ... .. . ... ... ... : ... .. 2 ... ... ... : ... .. . ... : ... .. 1 ... : ... .. . ... ... : ... .. . ... ... : ... .. . ... ... : ... .. . P7F ...
ROW 41 : ... .. A ... ... ... : ... .. 1 ... ... ... : ... .. . ... : ... .. . ... : ... .. . ... ... : ... .. . ... ... : ... .. . ... ... : ... .. . P85 ...
ROW 42 : ... .. 8 ... ... ... : ... .. . ... ... ... : ... .. . ... : ... .. . ... : ... .. . ... ... : ... .. . ... ... : ... .. . ... ... : ... .. . P89 ...
ROW 43 : ... .. 7 ... ... ... : ... .. 0 ... ... ... : ... .. . ... : ... .. 0 ... : ... .. . ... ... : ... .. . ... ... : ... .. . ... ... : ... .. . P86 ...
ROW 44 : D-2 00 D ... ... ... : D-5 00 6 P80 ... ... : ... .. . ... : ... .. F ... : ... .. . ... ... : F#3 01 9 P80 ... : A#3 01 9 ... ... : D-3 01 F P80 ...
ROW 45 : ... .. B ... ... ... : ... .. 4 ... ... ... : ... .. . ... : ... .. C ... : ... .. . ... ... : ... .. 8 ... ... : ... .. 8 ... ... : ... .. D P78 ...
ROW 46 : ... .. . ... ... ... : ... .. 2 ... ... ... : ... .. . ... : ... .. 6 ... : ... .. . ... ... : ... .. . ... ... : ... .. . ... ... : ... .. 8 P77 ...
ROW 47 : ... .. 0 ... ... ... : ... .. 1 ... ... ... : --- .. . ... : ... .. 3 ... : ... .. . ... ... : ... .. . ... ... : ... .. . ... ... : ... .. . P7E ...
ROW 48 : ... .. . ... ... ... : ... .. . ... ... ... : ... .. . ... : ... .. 2 ... : ... .. . ... ... : ... .. 7 ... ... : ... .. 7 ... ... : ... .. . P84 ...
ROW 49 : ... .. . ... ... ... : ... .. 0 ... ... ... : ... .. . ... : ... .. 0 ... : ... .. . ... ... : ... .. . ... ... : ... .. . ... ... : ... .. . P89 ...
ROW 4A : D-2 00 D P80 ... ... : D#5 00 6 P80 ... ... : ... .. . ... : ... .. F ... : ... .. . ... ... : --- .. . P7F ... : --- .. . ... ... : --- .. . P83 ...
ROW 4B : ... .. B ... ... ... : ... .. 4 ... ... ... : ... .. . ... : ... .. C ... : ... .. . ... ... : ... .. . ... ... : ... .. . ... ... : ... .. . ... ...
ROW 4C : ... .. . ... ... ... : ... .. 2 ... ... ... : ... .. . ... : ... .. 6 ... : ... .. . ... ... : ... .. . ... ... : ... .. . ... ... : ... .. . ... ...
ROW 4D : ... .. 0 ... ... ... : ... .. 1 ... ... ... : ... .. . ... : ... .. 3 ... : ... .. . ... ... : ... .. . ... ... : ... .. . ... ... : ... .. . ... ...
ROW 4E : ... .. . ... ... ... : ... .. . ... ... ... : ... .. . ... : ... .. 2 ... : ... .. . ... ... : ... .. . ... ... : ... .. . ... ... : ... .. . ... ...
ROW 4F : ... .. . ... ... ... : ... .. 0 ... ... ... : ... .. . ... : ... .. 0 ... : ... .. . ... ... : ... .. . ... ... : ... .. . ... ... : ... .. . ... ...
ROW 50 : A#1 00 D P80 ... ... : D-5 00 6 P80 ... ... : A-4 00 . ... : ... .. 2 ... : ... .. . ... ... : ... .. . ... ... : ... .. . ... ... : D#3 01 F P89 ...
ROW 51 : ... .. B ... ... ... : ... .. 4 ... ... ... : B-3 00 . ... : ... .. 1 ... : ... .. . ... ... : ... .. . ... ... : ... .. . ... ... : ... .. D P87 ...
ROW 52 : ... .. . ... ... ... : ... .. 2 ... ... ... : E-3 00 . ... : ... .. . ... : ... .. . ... ... : ... .. . ... ... : ... .. . ... ... : ... .. 8 P80 ...
ROW 53 : ... .. A ... ... ... : ... .. 1 ... ... ... : D#3 00 . ... : ... .. . ... : ... .. . ... ... : ... .. . ... ... : ... .. . ... ... : ... .. . P79 ...
ROW 54 : ... .. 8 ... ... ... : ... .. . ... ... ... : A#2 00 . ... : ... .. . ... : ... .. . ... ... : ... .. . ... ... : ... .. . ... ... : ... .. . P77 ...
ROW 55 : ... .. 7 ... ... ... : ... .. 0 ... ... ... : ... .. . ... : ... .. 0 ... : ... .. . ... ... : ... .. . ... ... : ... .. . ... ... : ... .. . P7C ...
ROW 56 : ... .. D ... ... ... : D#5 00 6 P80 ... ... : ... .. . ... : ... .. 4 ... : ... .. . ... ... : ... .. . ... ... : ... .. . ... ... : ... .. . P82 ...
ROW 57 : ... .. B ... ... ... : ... .. 4 ... ... ... : ... .. . ... : ... .. 3 ... : ... .. . ... ... : ... .. . ... ... : ... .. . ... ... : ... .. . P89 ...
ROW 58 : ... .. . ... ... ... : ... .. 2 ... ... ... : ... .. . ... : ... .. 1 ... : ... .. . ... ... : ... .. . ... ... : ... .. . ... ... : ... .. . P88 ...
ROW 59 : ... .. A ... ... ... : ... .. 1 ... ... ... : ... .. . ... : ... .. . ... : ... .. . ... ... : ... .. . ... ... : ... .. . ... ... : ... .. . P80 ...
ROW 5A : ... .. 8 ... ... ... : ... .. . ... ... ... : ... .. . ... : ... .. . ... : ... .. . ... ... : ... .. . ... ... : ... .. . ... ... : ... .. . P7A ...
ROW 5B : ... .. 7 ... ... ... : ... .. 0 ... ... ... : ... .. . ... : ... .. 0 ... : ... .. . ... ... : ... .. . ... ... : ... .. . ... ... : ... .. . P77 ...
ROW 5C : D-2 00 D ... ... ... : E-5 00 6 P80 ... ... : ... .. . ... : ... .. F ... : ... .. . ... ... : F-3 01 9 P80 ... : A#3 01 9 ... ... : D-3 01 F P7B ...
ROW 5D : ... .. B ... ... ... : ... .. 4 ... ... ... : ... .. . ... : ... .. C ... : ... .. . ... ... : ... .. 8 ... ... : ... .. 8 ... ... : ... .. D P81 ...
ROW 5E : ... .. . ... ... ... : ... .. 2 ... ... ... : ... .. . ... : ... .. 6 ... : ... .. . ... ... : ... .. . ... ... : ... .. . ... ... : ... .. 8 P88 ...
ROW 5F : ... .. 0 ... ... ... : ... .. 1 ... ... ... : --- .. . ... : ... .. 3 ... : ... .. . ... ... : ... .. . ... ... : ... .. . ... ... : ... .. . ... ...
ROW 60 : ... .. . ... ... ... : ... .. . ... ... ... : ... .. . ... : ... .. 2 ... : ... .. . ... ... : ... .. 7 ... ... : ... .. 7 ... ... : ... .. . P81 ...
ROW 61 : ... .. . ... ... ... : ... .. 0 ... ... ... : ... .. . ... : ... .. 0 ... : ... .. . ... ... : ... .. . ... ... : ... .. . ... ... : ... .. . P7B ...
ROW 62 : D-2 00 D P80 ... ... : F-5 00 6 P80 ... ... : ... .. . ... : ... .. F ... : ... .. . ... ... : --- .. . ... ... : --- .. . ... ... : --- .. . P7F ...
ROW 63 : ... .. B ... ... ... : ... .. 4 ... ... ... : ... .. . ... : ... .. C ... : ... .. . ... ... : ... .. . ... ... : ... .. . ... ... : ... .. . ... ...
ROW 64 : ... .. . ... ... ... : ... .. 2 ... ... ... : ... .. . ... : ... .. 6 ... : ... .. . ... ... : ... .. . ... ... : ... .. . ... ... : ... .. . ... ...
ROW 65 : ... .. 0 ... ... ... : ... .. 1 ... ... ... : ... .. . ... : ... .. 3 ... : ... .. . ... ... : ... .. . ... ... : ... .. . ... ... : ... .. . ... ...
ROW 66 : ... .. . ... ... ... : ... .. . ... ... ... : ... .. . ... : ... .. 2 ... : ... .. . ... ... : ... .. . ... ... : ... .. . ... ... : ... .. . ... ...
ROW 67 : ... .. . ... ... ... : ... .. 0 ... ... ... : ... .. . ... : ... .. 0 ... : ... .. . ... ... : ... .. . ... ... : ... .. . ... ... : ... .. . ... ...
ROW 68 : D#2 00 D P80 ... ... : F#5 00 6 P80 ... ... : G#4 00 . ... : ... .. 4 ... : ... .. . ... ... : ... .. . ... ... : ... .. . ... ... : C#3 01 F P7C ...
ROW 69 : ... .. B ... ... ... : ... .. 4 ... ... ... : A#3 00 . ... : ... .. 3 ... : ... .. . ... ... : ... .. . ... ... : ... .. . ... ... : ... .. D P77 ...
ROW 6A : ... .. . ... ... ... : ... .. 2 ... ... ... : D#3 00 . ... : ... .. 1 ... : ... .. . ... ... : ... .. . ... ... : ... .. . ... ... : ... .. 8 P79 ...
ROW 6B : ... .. A ... ... ... : ... .. 1 ... ... ... : D-3 00 . ... : ... .. . ... : ... .. . ... ... : ... .. . ... ... : ... .. . ... ... : ... .. . P80 ...
ROW 6C : ... .. 8 ... ... ... : ... .. . ... ... ... : A-2 00 . ... : ... .. . ... : ... .. . ... ... : ... .. . ... ... : ... .. . ... ... : ... .. . P87 ...
ROW 6D : ... .. 7 ... ... ... : ... .. 0 ... ... ... : ... .. . ... : ... .. 0 ... : ... .. . ... ... : ... .. . ... ... : ... .. . ... ... : ... .. . P89 ...
ROW 6E : D-2 00 D ... ... ... : F-5 00 6 P80 ... ... : ... .. . ... : ... .. 8 ... : ... .. . ... ... : ... .. . ... ... : ... .. . ... ... : ... .. . P83 ...
ROW 6F : ... .. B ... ... ... : ... .. 4 ... ... ... : ... .. . ... : ... .. 6 ... : ... .. . ... ... : ... .. . ... ... : ... .. . ... ... : ... .. . P7D ...
ROW 70 : ... .. . ... ... ... : ... .. 2 ... ... ... : ... .. . ... : ... .. 3 ... : ... .. . ... ... : ... .. . ... ... : ... .. . ... ... : ... .. . P77 ...
ROW 71 : ... .. A ... ... ... : ... .. 1 ... ... ... : ... .. . ... : ... .. 1 ... : ... .. . ... ... : ... .. . ... ... : ... .. . ... ... : ... .. . P79 ...
ROW 72 : ... .. 8 ... ... ... : ... .. . ... ... ... : ... .. . ... : ... .. . ... : ... .. . ... ... : ... .. . ... ... : ... .. . ... ... : ... .. . P80 ...
ROW 73 : ... .. 7 ... ... ... : ... .. 0 ... ... ... : ... .. . ... : ... .. 0 ... : ... .. . ... ... : ... .. . ... ... : ... .. . ... ... : ... .. . P87 ...
ROW 74 : A#1 00 D ... ... ... : E-5 00 6 P80 ... ... : ... .. . ... : ... .. F ... : ... .. . ... ... : E-3 01 9 ... ... : A#3 01 9 ... ... : D-3 01 F P89 ...
ROW 75 : ... .. B ... ... ... : ... .. 4 ... ... ... : ... .. . ... : ... .. C ... : ... .. . ... ... : ... .. 8 ... ... : ... .. 8 ... ... : ... .. D P84 ...
ROW 76 : ... .. . ... ... ... : ... .. 2 ... ... ... : ... .. . ... : ... .. 6 ... : ... .. . ... ... : ... .. . ... ... : ... .. . ... ... : ... .. 8 P7E ...
ROW 77 : ... .. 0 ... ... ... : ... .. 1 ... ... ... : --- .. . ... : ... .. 3 ... : ... .. . ... ... : ... .. . ... ... : ... .. . ... ... : ... .. . P77 ...
ROW 78 : ... .. . ... ... ... : ... .. . ... ... ... : ... .. . ... : ... .. 2 ... : ... .. . ... ... : ... .. 7 ... ... : ... .. 7 ... ... : ... .. . P78 ...
ROW 79 : ... .. . ... ... ... : ... .. 0 ... ... ... : ... .. . ... : ... .. 0 ... : ... .. . ... ... : ... .. . ... ... : ... .. . ... ... : ... .. . P80 ...
ROW 7A : A-1 00 D P80 ... ... : D#5 00 6 P80 ... ... : ... .. . ... : ... .. 2 ... : ... .. . ... ... : --- .. . P82 ... : --- .. . ... ... : ... .. . P86 ...
ROW 7B : ... .. B ... ... ... : ... .. 4 ... ... ... : ... .. . ... : ... .. 1 ... : ... .. . ... ... : ... .. . ... ... : ... .. . ... ... : ... .. . P89 ...
ROW 7C : ... .. . ... ... ... : ... .. 2 ... ... ... : ... .. . ... : ... .. . ... : ... .. . ... ... : ... .. . ... ... : ... .. . ... ... : ... .. . P85 ...
ROW 7D : ... .. 0 ... ... ... : ... .. 1 ... ... ... : ... .. . ... : ... .. . ... : ... .. . ... ... : ... .. . ... ... : ... .. . ... ... : ... .. . P7F ...
ROW 7E : ... .. . ... ... ... : ... .. . ... ... ... : ... .. . ... : ... .. . ... : ... .. . ... ... : ... .. . ... ... : ... .. . ... ... : ... .. . P78 ...
ROW 7F : ... .. . ... ... ... : ... .. 0 ... ... ... : ... .. . ... : ... .. 0 ... : ... .. . ... ... : ... .. . ... ... : ... .. . ... ... : ... .. . ... ...
ROW 80 : G-1 00 D P80 ... ... : D-5 00 6 P80 ... ... : F#3 00 . ... : B-# 00 D ... : ... .. . ... ... : D#3 01 9 P80 ... : ... .. . ... ... : A-3 01 F P7F ...
ROW 81 : ... .. B ... ... ... : ... .. 4 ... ... ... : G#2 00 . ... : ... .. B ... : ... .. . ... ... : ... .. 8 ... ... : ... .. . ... ... : ... .. D P85 ...
ROW 82 : ... .. . ... ... ... : ... .. 2 ... ... ... : C#2 00 . ... : ... .. . ... : ... .. . ... ... : ... .. . ... ... : ... .. . ... ... : A#3 01 8 P78 ...
ROW 83 : ... .. A ... ... ... : ... .. 1 ... ... ... : C-2 00 . ... : ... .. A ... : ... .. . ... ... : ... .. . ... ... : ... .. . ... ... : A-3 01 8 P86 ...
ROW 84 : ... .. 8 ... ... ... : ... .. . ... ... ... : G-1 00 . ... : ... .. 8 ... : ... .. . ... ... : ... .. 7 ... ... : ... .. . ... ... : ... .. . P80 ...
ROW 85 : ... .. 7 ... ... ... : ... .. 0 ... ... ... : ... .. . ... : ... .. 7 ... : ... .. . ... ... : ... .. . ... ... : ... .. . ... ... : ... .. . P78 ...
ROW 86 : ... .. 6 ... ... ... : D#5 00 6 P80 ... ... : ... .. . ... : ... .. 6 ... : ... .. . ... ... : D-3 01 9 ... ... : ... .. . ... ... : G#3 01 8 P88 ...
ROW 87 : ... .. . ... ... ... : ... .. 4 ... ... ... : ... .. . ... : ... .. . ... : ... .. . ... ... : ... .. 8 ... ... : ... .. . ... ... : A-3 01 8 P7E ...
ROW 88 : ... .. 5 ... ... ... : ... .. 2 ... ... ... : ... .. . ... : ... .. 5 ... : ... .. . ... ... : ... .. . ... ... : ... .. . ... ... : ... .. . P84 ...
ROW 89 : ... .. . ... ... ... : ... .. 1 ... ... ... : ... .. . ... : ... .. . ... : ... .. . ... ... : ... .. . ... ... : ... .. . ... ... : A#3 01 8 P78 ...
ROW 8A : ... .. 4 ... ... ... : ... .. . ... ... ... : ... .. . ... : ... .. 4 ... : ... .. . ... ... : ... .. 7 ... ... : ... .. . ... ... : A-3 01 8 P87 ...
ROW 8B : ... .. . ... ... ... : ... .. 0 ... ... ... : ... .. . ... : ... .. . ... : ... .. . ... ... : ... .. . ... ... : ... .. . ... ... : ... .. . P80 ...
ROW 8C : F#2 00 D ... ... ... : D-5 00 6 P80 ... ... : A#3 00 . ... : C-# 00 3 ... : ... .. . ... ... : C#3 01 9 ... ... : ... .. . ... ... : ... .. . P79 ...
ROW 8D : ... .. B ... ... ... : ... .. 4 ... ... ... : ... .. . ... : ... .. 2 ... : ... .. . ... ... : ... .. 8 ... ... : ... .. . ... ... : G#3 01 8 P88 ...
ROW 8E : ... .. . ... ... ... : ... .. 2 ... ... ... : ... .. . ... : ... .. . ... : ... .. . ... ... : ... .. . ... ... : ... .. . ... ... : A-3 01 8 P7D ...
ROW 8F : ... .. A ... ... ... : ... .. 1 ... ... ... : ... .. . ... : ... .. . ... : ... .. . ... ... : ... .. . ... ... : ... .. . ... ... : ... .. . P83 ...
ROW 90 : ... .. 8 ... ... ... : ... .. . ... ... ... : ... .. . ... : ... .. . ... : ... .. . ... ... : ... .. 7 ... ... : ... .. . ... ... : A#3 01 8 P78 ...
ROW 91 : ... .. 7 ... ... ... : ... .. 0 ... ... ... : ... .. . ... : ... .. 1 ... : ... .. . ... ... : ... .. . ... ... : ... .. . ... ... : A-3 01 8 P87 ...
ROW 92 : G-2 00 D ... ... ... : D#5 00 6 P80 ... ... : ... .. . ... : ... .. . ... : ... .. . ... ... : D#3 01 9 ... ... : ... .. . ... ... : G-3 01 F P80 ...
ROW 93 : ... .. B ... ... ... : ... .. 4 ... ... ... : ... .. . ... : ... .. . ... : ... .. . ... ... : ... .. 8 ... ... : ... .. . ... ... : ... .. D P79 ...
ROW 94 : ... .. . ... ... ... : ... .. 2 ... ... ... : ... .. . ... : ... .. . ... : ... .. . ... ... : ... .. . ... ... : ... .. . ... ... : ... .. 8 P77 ...
ROW 95 : ... .. 0 ... ... ... : ... .. 1 ... ... ... : ... .. . ... : ... .. . ... : ... .. . ... ... : ... .. . ... ... : ... .. . ... ... : --- .. . P7E ...
ROW 96 : ... .. . ... ... ... : ... .. . ... ... ... : ... .. . ... : ... .. . ... : ... .. . ... ... : ... .. 7 ... ... : ... .. . ... ... : ... .. . ... ...
ROW 97 : ... .. . ... ... ... : ... .. 0 ... ... ... : ... .. . ... : ... .. . ... : ... .. . ... ... : ... .. . ... ... : ... .. . ... ... : ... .. . ... ...
ROW 98 : G-2 00 D P80 ... ... : D-5 00 6 P80 ... ... : F#3 00 . ... : B-# 00 D ... : ... .. . ... ... : D-3 01 9 ... ... : ... .. . ... ... : F#3 01 F P88 ...
ROW 99 : ... .. B ... ... ... : ... .. 4 ... ... ... : G#2 00 . ... : ... .. B ... : ... .. . ... ... : ... .. 8 ... ... : ... .. . ... ... : ... .. D P80 ...
ROW 9A : ... .. . ... ... ... : ... .. 2 ... ... ... : C#2 00 . ... : ... .. . ... : ... .. . ... ... : ... .. . ... ... : ... .. . ... ... : ... .. 8 P7A ...
ROW 9B : ... .. A ... ... ... : ... .. 1 ... ... ... : C-2 00 . ... : ... .. A ... : ... .. . ... ... : ... .. . ... ... : ... .. . ... ... : ... .. . P77 ...
ROW 9C : ... .. 8 ... ... ... : ... .. . ... ... ... : G-1 00 . ... : ... .. 8 ... : ... .. . ... ... : ... .. 7 ... ... : ... .. . ... ... : ... .. . P7B ...
ROW 9D : ... .. 7 ... ... ... : ... .. 0 ... ... ... : ... .. . ... : ... .. 7 ... : ... .. . ... ... : ... .. . ... ... : ... .. . ... ... : ... .. . P81 ...
ROW 9E : ... .. D ... ... ... : D#5 00 6 P80 ... ... : ... .. . ... : ... .. 6 ... : ... .. . ... ... : ... .. . ... ... : ... .. . ... ... : ... .. . P88 ...
ROW 9F : ... .. B ... ... ... : ... .. 4 ... ... ... : ... .. . ... : ... .. . ... : ... .. . ... ... : ... .. 6 ... ... : ... .. . ... ... : ... .. . ... ...
ROW A0 : ... .. . ... ... ... : ... .. 2 ... ... ... : ... .. . ... : ... .. 5 ... : ... .. . ... ... : ... .. . ... ... : ... .. . ... ... : ... .. . P81 ...
ROW A1 : ... .. 0 ... ... ... : ... .. 1 ... ... ... : ... .. . ... : ... .. . ... : ... .. . ... ... : ... .. . ... ... : ... .. . ... ... : ... .. . P7B ...
ROW A2 : ... .. . ... ... ... : ... .. . ... ... ... : ... .. . ... : ... .. 4 ... : ... .. . ... ... : ... .. . ... ... : ... .. . ... ... : ... .. . P77 ...
ROW A3 : ... .. . ... ... ... : ... .. 0 ... ... ... : ... .. . ... : ... .. . ... : ... .. . ... ... : ... .. . ... ... : ... .. . ... ... : ... .. . P7A ...
ROW A4 : G-2 00 D P80 ... ... : D-5 00 6 P80 ... ... : A#3 00 . ... : C-# 00 3 ... : ... .. . ... ... : A#2 01 9 ... ... : ... .. . ... ... : G-3 01 F P80 ...
ROW A5 : ... .. B ... ... ... : ... .. 4 ... ... ... : ... .. . ... : ... .. 2 ... : ... .. . ... ... : ... .. 8 ... ... : ... .. . ... ... : ... .. D P88 ...
ROW A6 : ... .. . ... ... ... : ... .. 2 ... ... ... : ... .. . ... : ... .. . ... : ... .. . ... ... : ... .. . ... ... : ... .. . ... ... : ... .. 8 P89 ...
ROW A7 : ... .. 0 ... ... ... : ... .. 1 ... ... ... : ... .. . ... : ... .. . ... : ... .. . ... ... : ... .. . ... ... : ... .. . ... ... : ... .. . P82 ...
ROW A8 : ... .. . ... ... ... : ... .. . ... ... ... : ... .. . ... : ... .. . ... : ... .. . ... ... : ... .. 7 ... ... : ... .. . ... ... : ... .. . P7C ...
ROW A9 : ... .. . ... ... ... : ... .. 0 ... ... ... : ... .. . ... : ... .. 1 ... : ... .. . ... ... : ... .. . ... ... : ... .. . ... ... : ... .. . P77 ...
ROW AA : G-2 00 D P80 ... ... : D#5 00 6 P80 ... ... : ... .. . ... : ... .. . ... : ... .. . ... ... : ... .. . ... ... : ... .. . ... ... : --- .. . P7E ...
ROW AB : ... .. B ... ... ... : ... .. 4 ... ... ... : ... .. . ... : ... .. . ... : ... .. . ... ... : ... .. 6 ... ... : ... .. . ... ... : ... .. . ... ...
ROW AC : ... .. . ... ... ... : ... .. 2 ... ... ... : ... .. . ... : ... .. . ... : ... .. . ... ... : ... .. . ... ... : ... .. . ... ... : ... .. . ... ...
ROW AD : ... .. 0 ... ... ... : ... .. 1 ... ... ... : ... .. . ... : ... .. . ... : ... .. . ... ... : ... .. . ... ... : ... .. . ... ... : ... .. . ... ...
ROW AE : ... .. . ... ... ... : ... .. . ... ... ... : ... .. . ... : ... .. . ... : ... .. . ... ... : ... .. . ... ... : ... .. . ... ... : ... .. . ... ...
ROW AF : ... .. . ... ... ... : ... .. 0 ... ... ... : ... .. . ... : ... .. . ... : ... .. . ... ... : ... .. . ... ... : ... .. . ... ... : ... .. . ... ...
ROW B0 : G#2 00 D P80 ... ... : D-5 00 6 P80 ... ... : F#3 00 . ... : B-# 00 D ... : ... .. . ... ... : G#3 01 9 ... ... : ... .. . ... ... : D#3 01 F P77 ...
ROW B1 : ... .. B ... ... ... : ... .. 4 ... ... ... : G#2 00 . ... : ... .. B ... : ... .. . ... ... : ... .. 8 ... ... : ... .. . ... ... : ... .. D P79 ...
ROW B2 : ... .. . ... ... ... : ... .. 2 ... ... ... : C#2 00 . ... : ... .. . ... : ... .. . ... ... : ... .. . ... ... : ... .. . ... ... : ... .. 8 P80 ...
ROW B3 : ... .. A ... ... ... : ... .. 1 ... ... ... : C-2 00 . ... : ... .. A ... : ... .. . ... ... : ... .. . ... ... : ... .. . ... ... : ... .. . P87 ...
ROW B4 : ... .. 8 ... ... ... : ... .. . ... ... ... : G-1 00 . ... : ... .. 8 ... : ... .. . ... ... : ... .. 7 ... ... : ... .. . ... ... : ... .. . P89 ...
ROW B5 : ... .. 7 ... ... ... : ... .. 0 ... ... ... : ... .. . ... : ... .. 7 ... : ... .. . ... ... : ... .. . ... ... : ... .. . ... ... : ... .. . P84 ...
ROW B6 : G-2 00 D ... ... ... : C#5 00 6 P80 ... ... : ... .. . ... : ... .. 6 ... : ... .. . ... ... : G-3 01 9 ... ... : ... .. . ... ... : ... .. . P7E ...
ROW B7 : ... .. B ... ... ... : ... .. 4 ... ... ... : ... .. . ... : ... .. . ... : ... .. . ... ... : ... .. 8 ... ... : ... .. . ... ... : ... .. . P77 ...
ROW B8 : ... .. . ... ... ... : ... .. 2 ... ... ... : ... .. . ... : ... .. 5 ... : ... .. . ... ... : ... .. . ... ... : ... .. . ... ... : ... .. . P78 ...
ROW B9 : ... .. 0 ... ... ... : ... .. 1 ... ... ... : ... .. . ... : ... .. . ... : ... .. . ... ... : --- .. . P81 ... : ... .. . ... ... : ... .. . P80 ...
ROW BA : ... .. . ... ... ... : ... .. . ... ... ... : ... .. . ... : ... .. 4 ... : ... .. . ... ... : ... .. . ... ... : ... .. . ... ... : ... .. . P86 ...
ROW BB : ... .. . ... ... ... : ... .. 0 ... ... ... : ... .. . ... : ... .. . ... : ... .. . ... ... : ... .. . ... ... : ... .. . ... ... : ... .. . P89 ...
ROW BC : G-2 00 D P80 ... ... : C-5 00 6 P80 ... ... : D-4 00 . ... : C-# 00 3 ... : ... .. . ... ... : G-3 01 9 P80 ... : ... .. . ... ... : D-3 01 F P85 ...
ROW BD : ... .. B ... ... ... : ... .. 4 ... ... ... : ... .. . ... : ... .. 2 ... : ... .. . ... ... : ... .. 8 ... ... : ... .. . ... ... : ... .. D P7F ...
ROW BE : ... .. . ... ... ... : ... .. 2 ... ... ... : ... .. . ... : ... .. . ... : ... .. . ... ... : ... .. . ... ... : ... .. . ... ... : ... .. 8 P78 ...
ROW BF : ... .. 0 ... ... ... : ... .. 1 ... ... ... : ... .. . ... : ... .. . ... : ... .. . ... ... : --- .. . P81 ... : ... .. . ... ... : ... .. . ... ...
ROW C0 : ... .. . ... ... ... : ... .. . ... ... ... : ... .. . ... : ... .. . ... : ... .. . ... ... : ... .. . ... ... : ... .. . ... ... : ... .. . P7F ...
ROW C1 : ... .. . ... ... ... : ... .. 0 ... ... ... : ... .. . ... : ... .. 1 ... : ... .. . ... ... : ... .. . ... ... : ... .. . ... ... : ... .. . P85 ...
ROW C2 : G-2 00 D P80 ... ... : B-4 00 6 P80 ... ... : ... .. . ... : ... .. 3 ... : ... .. . ... ... : G-3 01 9 P80 ... : ... .. . ... ... : --- .. . P7F ...
ROW C3 : ... .. B ... ... ... : ... .. 4 ... ... ... : ... .. . ... : ... .. 2 ... : ... .. . ... ... : ... .. 8 ... ... : ... .. . ... ... : ... .. . ... ...
ROW C4 : ... .. . ... ... ... : ... .. 2 ... ... ... : ... .. . ... : ... .. . ... : ... .. . ... ... : ... .. . ... ... : ... .. . ... ... : ... .. . ... ...
ROW C5 : ... .. 0 ... ... ... : ... .. 1 ... ... ... : ... .. . ... : ... .. . ... : ... .. . ... ... : --- .. . P81 ... : ... .. . ... ... : ... .. . ... ...
ROW C6 : ... .. . ... ... ... : ... .. . ... ... ... : ... .. . ... : ... .. . ... : ... .. . ... ... : ... .. . ... ... : ... .. . ... ... : ... .. . ... ...
ROW C7 : ... .. . ... ... ... : ... .. 0 ... ... ... : ... .. . ... : ... .. 1 ... : ... .. . ... ... : ... .. . ... ... : ... .. . ... ... : ... .. . ... ...
ROW C8 : F#2 00 D P80 ... ... : A#4 00 6 P80 ... ... : F#3 00 . ... : B-# 00 D ... : ... .. . ... ... : F#3 01 9 P80 ... : ... .. . ... ... : A#2 01 F P84 ...
ROW C9 : ... .. B ... ... ... : ... .. 4 ... ... ... : G#2 00 . ... : ... .. B ... : ... .. . ... ... : ... .. 8 ... ... : ... .. . ... ... : ... .. D P89 ...
ROW CA : ... .. . ... ... ... : ... .. 2 ... ... ... : C#2 00 . ... : ... .. . ... : ... .. . ... ... : ... .. . ... ... : ... .. . ... ... : ... .. 8 P87 ...
ROW CB : ... .. A ... ... ... : ... .. 1 ... ... ... : C-2 00 . ... : ... .. A ... : ... .. . ... ... : ... .. . ... ... : ... .. . ... ... : ... .. . P80 ...
ROW CC : ... .. 8 ... ... ... : ... .. . ... ... ... : G-1 00 . ... : ... .. 8 ... : ... .. . ... ... : ... .. 7 ... ... : ... .. . ... ... : ... .. . P79 ...
ROW CD : ... .. 7 ... ... ... : ... .. 0 ... ... ... : ... .. . ... : ... .. 7 ... : ... .. . ... ... : ... .. . ... ... : ... .. . ... ... : ... .. . P77 ...
ROW CE : G-2 00 D ... ... ... : A-4 00 6 P80 ... ... : ... .. . ... : ... .. 6 ... : ... .. . ... ... : G-3 01 9 ... ... : ... .. . ... ... : ... .. . P7D ...
ROW CF : ... .. B ... ... ... : ... .. 4 ... ... ... : ... .. . ... : ... .. . ... : ... .. . ... ... : ... .. 8 ... ... : ... .. . ... ... : ... .. . P83 ...
ROW D0 : ... .. . ... ... ... : ... .. 2 ... ... ... : ... .. . ... : ... .. 5 ... : ... .. . ... ... : ... .. . ... ... : ... .. . ... ... : ... .. . P89 ...
ROW D1 : ... .. 0 ... ... ... : ... .. 1 ... ... ... : ... .. . ... : ... .. . ... : ... .. . ... ... : --- .. . P81 ... : ... .. . ... ... : ... .. . P8D ...
ROW D2 : ... .. . ... ... ... : ... .. . ... ... ... : ... .. . ... : ... .. 4 ... : ... .. . ... ... : ... .. . ... ... : ... .. . ... ... : ... .. . P80 ...
ROW D3 : ... .. . ... ... ... : ... .. 0 ... ... ... : ... .. . ... : ... .. . ... : ... .. . ... ... : ... .. . ... ... : ... .. . ... ... : ... .. . P74 ...
ROW D4 : G-2 00 D P80 ... ... : G#4 00 6 P80 ... ... : D-4 00 . ... : 3-# 00 D ... : ... .. . ... ... : G-3 01 9 P80 ... : ... .. . ... ... : ... .. . P70 ...
ROW D5 : ... .. B ... ... ... : ... .. 4 ... ... ... : ... .. . ... : ... .. B ... : ... .. . ... ... : ... .. 8 ... ... : ... .. . ... ... : ... .. . P78 ...
ROW D6 : ... .. . ... ... ... : ... .. 2 ... ... ... : ... .. . ... : ... .. . ... : ... .. . ... ... : ... .. . ... ... : ... .. . ... ... : ... .. . P84 ...
ROW D7 : ... .. 0 ... ... ... : ... .. 1 ... ... ... : ... .. . ... : ... .. A ... : ... .. . ... ... : --- .. . P81 ... : ... .. . ... ... : ... .. . P8F ...
ROW D8 : ... .. . ... ... ... : ... .. . ... ... ... : ... .. . ... : ... .. 8 ... : ... .. . ... ... : ... .. . ... ... : ... .. . ... ... : ... .. . P8E ...
ROW D9 : ... .. . ... ... ... : ... .. 0 ... ... ... : ... .. . ... : ... .. 7 ... : ... .. . ... ... : ... .. . ... ... : ... .. . ... ... : ... .. . P81 ...
ROW DA : G-2 00 D P80 ... ... : G-4 00 6 P80 ... ... : ... .. . ... : ... .. 6 ... : ... .. . ... ... : G-3 01 9 P80 ... : ... .. . ... ... : ... .. . P76 ...
ROW DB : ... .. B ... ... ... : ... .. 4 ... ... ... : ... .. . ... : ... .. . ... : ... .. . ... ... : ... .. 8 ... ... : ... .. . ... ... : ... .. . P70 ...
ROW DC : ... .. . ... ... ... : ... .. 2 ... ... ... : ... .. . ... : ... .. 5 ... : ... .. . ... ... : ... .. . ... ... : ... .. . ... ... : ... .. . P77 ...
ROW DD : ... .. 0 ... ... ... : ... .. 1 ... ... ... : ... .. . ... : ... .. . ... : ... .. . ... ... : ... .. . ... ... : ... .. . ... ... : ... .. . P80 ...
ROW DE : ... .. . ... ... ... : ... .. . ... ... ... : ... .. . ... : ... .. 4 ... : ... .. . ... ... : ... .. 7 ... ... : ... .. . ... ... : ... .. . ... ...
ROW DF : ... .. . ... ... ... : ... .. 0 ... ... ... : ... .. . ... : ... .. . ... : ... .. . ... ... : ... .. . ... ... : ... .. . ... ... : ... .. . ... ...
ROW E0 : A#1 00 D P80 ... ... : F-5 00 6 P80 ... ... : A-4 00 . ... : C-# 00 4 ... : ... .. . ... ... : --- .. . P81 ... : ... .. . ... ... : --- .. . ... ...
ROW E1 : ... .. B ... ... ... : ... .. 4 ... ... ... : B-3 00 . ... : ... .. 3 ... : ... .. . ... ... : ... .. . ... ... : ... .. . ... ... : ... .. . ... ...
ROW E2 : ... .. . ... ... ... : ... .. 2 ... ... ... : E-3 00 . ... : ... .. 1 ... : ... .. . ... ... : ... .. . ... ... : ... .. . ... ... : ... .. . ... ...
ROW E3 : ... .. A ... ... ... : ... .. 1 ... ... ... : D#3 00 . ... : ... .. . ... : ... .. . ... ... : ... .. . ... ... : ... .. . ... ... : ... .. . ... ...
ROW E4 : ... .. 8 ... ... ... : ... .. . ... ... ... : A#2 00 . ... : ... .. . ... : ... .. . ... ... : ... .. . ... ... : ... .. . ... ... : ... .. . ... ...
ROW E5 : ... .. 7 ... ... ... : ... .. 0 ... ... ... : ... .. . ... : ... .. 0 ... : ... .. . ... ... : ... .. . ... ... : ... .. . ... ... : ... .. . ... ...
ROW E6 : ... .. 6 ... ... ... : F#5 00 6 P80 ... ... : ... .. . ... : ... .. 8 ... : ... .. . ... ... : ... .. . ... ... : ... .. . ... ... : ... .. . ... ...
ROW E7 : ... .. . ... ... ... : ... .. 4 ... ... ... : ... .. . ... : ... .. 6 ... : ... .. . ... ... : ... .. . ... ... : ... .. . ... ... : ... .. . ... ...
ROW E8 : ... .. 5 ... ... ... : ... .. 2 ... ... ... : ... .. . ... : ... .. 3 ... : ... .. . ... ... : ... .. . ... ... : ... .. . ... ... : ... .. . ... ...
ROW E9 : ... .. . ... ... ... : ... .. 1 ... ... ... : ... .. . ... : ... .. 1 ... : ... .. . ... ... : ... .. . ... ... : ... .. . ... ... : ... .. . ... ...
ROW EA : ... .. 4 ... ... ... : ... .. . ... ... ... : ... .. . ... : ... .. . ... : ... .. . ... ... : ... .. . ... ... : ... .. . ... ... : ... .. . ... ...
ROW EB : ... .. . ... ... ... : ... .. 0 ... ... ... : ... .. . ... : ... .. 0 ... : ... .. . ... ... : ... .. . ... ... : ... .. . ... ... : ... .. . ... ...
ROW EC : F-2 00 D ... ... ... : F-5 00 6 P80 ... ... : ... .. . ... : ... .. F ... : ... .. . ... ... : F-3 01 9 P80 ... : C#4 01 9 ... ... : F-3 01 F P87 ...
ROW ED : ... .. B ... ... ... : ... .. 4 ... ... ... : ... .. . ... : ... .. C ... : ... .. . ... ... : ... .. 8 ... ... : ... .. 8 ... ... : ... .. D P89 ...
ROW EE : ... .. . ... ... ... : ... .. 2 ... ... ... : ... .. . ... : ... .. 6 ... : ... .. . ... ... : ... .. . ... ... : ... .. . ... ... : ... .. 8 P83 ...
ROW EF : ... .. 0 ... ... ... : ... .. 1 ... ... ... : ... .. . ... : ... .. 3 ... : ... .. . ... ... : ... .. . ... ... : ... .. . ... ... : ... .. . P7D ...
ROW F0 : ... .. . ... ... ... : ... .. . ... ... ... : ... .. . ... : ... .. 2 ... : ... .. . ... ... : ... .. 7 ... ... : ... .. 7 ... ... : ... .. . P77 ...
ROW F1 : ... .. . ... ... ... : ... .. 0 ... ... ... : ... .. . ... : ... .. 0 ... : ... .. . ... ... : ... .. . ... ... : ... .. . ... ... : ... .. . P79 ...
ROW F2 : F-2 00 D P80 ... ... : F#5 00 6 P80 ... ... : --- .. . ... : ... .. 4 ... : ... .. . ... ... : --- .. . ... ... : --- .. . ... ... : --- .. . P7E ...
ROW F3 : ... .. B ... ... ... : ... .. 4 ... ... ... : ... .. . ... : ... .. 3 ... : ... .. . ... ... : ... .. . ... ... : ... .. . ... ... : ... .. . ... ...
ROW F4 : ... .. . ... ... ... : ... .. 2 ... ... ... : ... .. . ... : ... .. 1 ... : ... .. . ... ... : ... .. . ... ... : ... .. . ... ... : ... .. . ... ...
ROW F5 : ... .. 0 ... ... ... : ... .. 1 ... ... ... : ... .. . ... : ... .. . ... : ... .. . ... ... : ... .. . ... ... : ... .. . ... ... : ... .. . ... ...
ROW F6 : ... .. . ... ... ... : ... .. . ... ... ... : ... .. . ... : ... .. . ... : ... .. . ... ... : ... .. . ... ... : ... .. . ... ... : ... .. . ... ...
ROW F7 : ... .. . ... ... ... : ... .. 0 ... ... ... : ... .. . ... : ... .. 0 ... : ... .. . ... ... : ... .. . ... ... : ... .. . ... ... : ... .. . ... ...
ROW F8 : E-2 00 D P80 ... ... : F-5 00 6 P80 ... ... : E-4 00 . ... : ... .. 2 ... : ... .. . ... ... : ... .. . ... ... : ... .. . ... ... : E-3 01 F P78 ...
ROW F9 : ... .. B ... ... ... : ... .. 4 ... ... ... : F#3 00 . ... : ... .. 1 ... : ... .. . ... ... : ... .. . ... ... : ... .. . ... ... : ... .. D P80 ...
ROW FA : ... .. . ... ... ... : ... .. 2 ... ... ... : B-2 00 . ... : ... .. . ... : ... .. . ... ... : ... .. . ... ... : ... .. . ... ... : ... .. 8 P86 ...
ROW FB : ... .. A ... ... ... : ... .. 1 ... ... ... : A#2 00 . ... : ... .. . ... : ... .. . ... ... : ... .. . ... ... : ... .. . ... ... : ... .. . P89 ...
ROW FC : ... .. 8 ... ... ... : ... .. . ... ... ... : F-2 00 . ... : ... .. . ... : ... .. . ... ... : ... .. . ... ... : ... .. . ... ... : ... .. . P85 ...
ROW FD : ... .. 7 ... ... ... : ... .. 0 ... ... ... : ... .. . ... : ... .. 0 ... : ... .. . ... ... : ... .. . ... ... : ... .. . ... ... : ... .. . P7F ...
ROW FE : ... .. D ... ... ... : F#5 00 6 P80 ... ... : ... .. . ... : ... .. 4 ... : ... .. . ... ... : ... .. . ... ... : ... .. . ... ... : ... .. . P78 ...
ROW FF : ... .. B ... ... ... : ... .. 4 ... ... ... : ... .. . ... : ... .. 3 ... : ... .. . ... ... : ... .. . ... ... : ... .. . ... ... : ... .. . ... ...

PATTERN 02
ROW 00 : ... .. . ... ... ... : ... .. 2 ... ... ... : ... .. . ... : ... .. 1 ... : ... .. . ... ... : ... .. . ... ... : ... .. . ... ... : ... .. . P7F ...
ROW 01 : ... .. A ... ... ... : ... .. 1 ... ... ... : ... .. . ... : ... .. . ... : ... .. . ... ... : ... .. . ... ... : ... .. . ... ... : ... .. . P85 ...
ROW 02 : ... .. 8 ... ... ... : ... .. . ... ... ... : ... .. . ... : ... .. . ... : ... .. . ... ... : ... .. . ... ... : ... .. . ... ... : ... .. . P89 ...
ROW 03 : ... .. 7 ... ... ... : ... .. 0 ... ... ... : ... .. . ... : ... .. 0 ... : ... .. . ... ... : ... .. . ... ... : ... .. . ... ... : ... .. . P86 ...
ROW 04 : F-2 00 D ... ... ... : F-5 00 6 P80 ... ... : ... .. . ... : ... .. F ... : ... .. . ... ... : E-3 01 9 ... ... : C#4 01 9 ... ... : F-3 01 F P80 ...
ROW 05 : ... .. B ... ... ... : ... .. 4 ... ... ... : ... .. . ... : ... .. C ... : ... .. . ... ... : ... .. 8 ... ... : ... .. 8 ... ... : ... .. D P78 ...
ROW 06 : ... .. . ... ... ... : ... .. 2 ... ... ... : ... .. . ... : ... .. 6 ... : ... .. . ... ... : ... .. . ... ... : ... .. . ... ... : ... .. 8 P77 ...
ROW 07 : ... .. 0 ... ... ... : ... .. 1 ... ... ... : ... .. . ... : ... .. 3 ... : ... .. . ... ... : ... .. . ... ... : ... .. . ... ... : ... .. . P7E ...
ROW 08 : ... .. . ... ... ... : ... .. . ... ... ... : ... .. . ... : ... .. 2 ... : ... .. . ... ... : ... .. 7 ... ... : ... .. 7 ... ... : ... .. . P84 ...
ROW 09 : ... .. . ... ... ... : ... .. 0 ... ... ... : ... .. . ... : ... .. 0 ... : ... .. . ... ... : ... .. . ... ... : ... .. . ... ... : ... .. . P89 ...
ROW 0A : F-2 00 D P80 ... ... : F#5 00 6 P80 ... ... : --- .. . ... : ... .. F ... : ... .. . ... ... : --- .. . P82 ... : --- .. . ... ... : --- .. . P82 ...
ROW 0B : ... .. B ... ... ... : ... .. 4 ... ... ... : ... .. . ... : ... .. C ... : ... .. . ... ... : ... .. . ... ... : ... .. . ... ... : ... .. . ... ...
ROW 0C : ... .. . ... ... ... : ... .. 2 ... ... ... : ... .. . ... : ... .. 6 ... : ... .. . ... ... : ... .. . ... ... : ... .. . ... ... : ... .. . ... ...
ROW 0D : ... .. 0 ... ... ... : ... .. 1 ... ... ... : ... .. . ... : ... .. 3 ... : ... .. . ... ... : ... .. . ... ... : ... .. . ... ... : ... .. . ... ...
ROW 0E : ... .. . ... ... ... : ... .. . ... ... ... : ... .. . ... : ... .. 2 ... : ... .. . ... ... : ... .. . ... ... : ... .. . ... ... : ... .. . ... ...
ROW 0F : ... .. . ... ... ... : ... .. 0 ... ... ... : ... .. . ... : ... .. 0 ... : ... .. . ... ... : ... .. . ... ... : ... .. . ... ... : ... .. . ... ...
ROW 10 : C#2 00 D P80 ... ... : F-5 00 6 P80 ... ... : C-5 00 . ... : ... .. 2 ... : ... .. . ... ... : ... .. . ... ... : ... .. . ... ... : F#3 01 F P89 ...
ROW 11 : ... .. B ... ... ... : ... .. 4 ... ... ... : D-4 00 . ... : ... .. 1 ... : ... .. . ... ... : ... .. . ... ... : ... .. . ... ... : ... .. D P87 ...
ROW 12 : ... .. . ... ... ... : ... .. 2 ... ... ... : G-3 00 . ... : ... .. . ... : ... .. . ... ... : ... .. . ... ... : ... .. . ... ... : ... .. 8 P80 ...
ROW 13 : ... .. A ... ... ... : ... .. 1 ... ... ... : F#3 00 . ... : ... .. . ... : ... .. . ... ... : ... .. . ... ... : ... .. . ... ... : ... .. . P79 ...
ROW 14 : ... .. 8 ... ... ... : ... .. . ... ... ... : C#3 00 . ... : ... .. . ... : ... .. . ... ... : ... .. . ... ... : ... .. . ... ... : ... .. . P77 ...
ROW 15 : ... .. 7 ... ... ... : ... .. 0 ... ... ... : ... .. . ... : ... .. 0 ... : ... .. . ... ... : ... .. . ... ... : ... .. . ... ... : ... .. . P7C ...
ROW 16 : ... .. D ... ... ... : F#5 00 6 P80 ... ... : ... .. . ... : ... .. 4 ... : ... .. . ... ... : ... .. . ... ... : ... .. . ... ... : ... .. . P82 ...
ROW 17 : ... .. B ... ... ... : ... .. 4 ... ... ... : ... .. . ... : ... .. 3 ... : ... .. . ... ... : ... .. . ... ... : ... .. . ... ... : ... .. . P89 ...
ROW 18 : ... .. . ... ... ... : ... .. 2 ... ... ... : ... .. . ... : ... .. 1 ... : ... .. . ... ... : ... .. . ... ... : ... .. . ... ... : ... .. . P88 ...
ROW 19 : ... .. A ... ... ... : ... .. 1 ... ... ... : ... .. . ... : ... .. . ... : ... .. . ... ... : ... .. . ... ... : ... .. . ... ... : ... .. . P80 ...
ROW 1A : ... .. 8 ... ... ... : ... .. . ... ... ... : ... .. . ... : ... .. . ... : ... .. . ... ... : ... .. . ... ... : ... .. . ... ... : ... .. . P7A ...
ROW 1B : ... .. 7 ... ... ... : ... .. 0 ... ... ... : ... .. . ... : ... .. 0 ... : ... .. . ... ... : ... .. . ... ... : ... .. . ... ... : ... .. . P77 ...
ROW 1C : E-2 00 D ... ... ... : G-5 00 6 P80 ... ... : ... .. . ... : ... .. F ... : ... .. . ... ... : F-3 01 9 P80 ... : C#4 01 9 ... ... : F-3 01 F P7B ...
ROW 1D : ... .. B ... ... ... : ... .. 4 ... ... ... : ... .. . ... : ... .. C ... : ... .. . ... ... : ... .. 8 ... ... : ... .. 8 ... ... : ... .. D P81 ...
ROW 1E : ... .. . ... ... ... : ... .. 2 ... ... ... : ... .. . ... : ... .. 6 ... : ... .. . ... ... : ... .. . ... ... : ... .. . ... ... : ... .. 8 P88 ...
ROW 1F : ... .. 0 ... ... ... : ... .. 1 ... ... ... : ... .. . ... : ... .. 3 ... : ... .. . ... ... : ... .. . ... ... : ... .. . ... ... : ... .. . ... ...
ROW 20 : ... .. . ... ... ... : ... .. . ... ... ... : ... .. . ... : ... .. 2 ... : ... .. . ... ... : ... .. 7 ... ... : ... .. 7 ... ... : ... .. . P81 ...
ROW 21 : ... .. . ... ... ... : ... .. 0 ... ... ... : ... .. . ... : ... .. 0 ... : ... .. . ... ... : ... .. . ... ... : ... .. . ... ... : ... .. . P7B ...
ROW 22 : E-2 00 D P80 ... ... : G#5 00 6 P80 ... ... : --- .. . ... : ... .. F ... : ... .. . ... ... : --- .. . ... ... : --- .. . ... ... : --- .. . P80 ...
ROW 23 : ... .. B ... ... ... : ... .. 4 ... ... ... : ... .. . ... : ... .. C ... : ... .. . ... ... : ... .. . ... ... : ... .. . ... ... : ... .. . ... ...
ROW 24 : ... .. . ... ... ... : ... .. 2 ... ... ... : ... .. . ... : ... .. 6 ... : ... .. . ... ... : ... .. . ... ... : ... .. . ... ... : ... .. . ... ...
ROW 25 : ... .. 0 ... ... ... : ... .. 1 ... ... ... : ... .. . ... : ... .. 3 ... : ... .. . ... ... : ... .. . ... ... : ... .. . ... ... : ... .. . ... ...
ROW 26 : ... .. . ... ... ... : ... .. . ... ... ... : ... .. . ... : ... .. 2 ... : ... .. . ... ... : ... .. . ... ... : ... .. . ... ... : ... .. . ... ...
ROW 27 : ... .. . ... ... ... : ... .. 0 ... ... ... : ... .. . ... : ... .. 0 ... : ... .. . ... ... : ... .. . ... ... : ... .. . ... ... : ... .. . ... ...
ROW 28 : C-2 00 D P80 ... ... : A-5 00 6 P80 ... ... : B-4 00 . ... : ... .. 4 ... : ... .. . ... ... : ... .. . ... ... : ... .. . ... ... : E-3 01 F P7C ...
ROW 29 : ... .. B ... ... ... : ... .. 4 ... ... ... : C#4 00 . ... : ... .. 3 ... : ... .. . ... ... : ... .. . ... ... : ... .. . ... ... : ... .. D P77 ...
ROW 2A : ... .. . ... ... ... : ... .. 2 ... ... ... : F#3 00 . ... : ... .. 1 ... : ... .. . ... ... : ... .. . ... ... : ... .. . ... ... : ... .. 8 P79 ...
ROW 2B : ... .. A ... ... ... : ... .. 1 ... ... ... : F-3 00 . ... : ... .. . ... : ... .. . ... ... : ... .. . ... ... : ... .. . ... ... : ... .. . P80 ...
ROW 2C : ... .. 8 ... ... ... : ... .. . ... ... ... : C-3 00 . ... : ... .. . ... : ... .. . ... ... : ... .. . ... ... : ... .. . ... ... : ... .. . P87 ...
ROW 2D : ... .. 7 ... ... ... : ... .. 0 ... ... ... : ... .. . ... : ... .. 0 ... : ... .. . ... ... : ... .. . ... ... : ... .. . ... ... : ... .. . P89 ...
ROW 2E : ... .. D ... ... ... : G#5 00 6 P80 ... ... : ... .. . ... : ... .. 8 ... : ... .. . ... ... : ... .. . ... ... : ... .. . ... ... : ... .. . P83 ...
ROW 2F : ... .. B ... ... ... : ... .. 4 ... ... ... : ... .. . ... : ... .. 6 ... : ... .. . ... ... : ... .. . ... ... : ... .. . ... ... : ... .. . P7D ...
ROW 30 : ... .. . ... ... ... : ... .. 2 ... ... ... : ... .. . ... : ... .. 3 ... : ... .. . ... ... : ... .. . ... ... : ... .. . ... ... : ... .. . P77 ...
ROW 31 : ... .. A ... ... ... : ... .. 1 ... ... ... : ... .. . ... : ... .. 1 ... : ... .. . ... ... : ... .. . ... ... : ... .. . ... ... : ... .. . P79 ...
ROW 32 : ... .. 8 ... ... ... : ... .. . ... ... ... : ... .. . ... : ... .. . ... : ... .. . ... ... : ... .. . ... ... : ... .. . ... ... : ... .. . P80 ...
ROW 33 : ... .. 7 ... ... ... : ... .. 0 ... ... ... : ... .. . ... : ... .. 0 ... : ... .. . ... ... : ... .. . ... ... : ... .. . ... ... : ... .. . P87 ...
ROW 34 : E-2 00 D ... ... ... : G-5 00 6 P80 ... ... : ... .. . ... : ... .. F ... : ... .. . ... ... : E-3 01 9 ... ... : C-4 01 9 ... ... : F-3 01 F P89 ...
ROW 35 : ... .. B ... ... ... : ... .. 4 ... ... ... : ... .. . ... : ... .. C ... : ... .. . ... ... : ... .. 8 ... ... : ... .. 8 ... ... : ... .. D P84 ...
ROW 36 : ... .. . ... ... ... : ... .. 2 ... ... ... : ... .. . ... : ... .. 6 ... : ... .. . ... ... : ... .. . ... ... : ... .. . ... ... : ... .. 8 P7E ...
ROW 37 : ... .. 0 ... ... ... : ... .. 1 ... ... ... : ... .. . ... : ... .. 3 ... : ... .. . ... ... : ... .. . ... ... : ... .. . ... ... : ... .. . P77 ...
ROW 38 : ... .. . ... ... ... : ... .. . ... ... ... : ... .. . ... : ... .. 2 ... : ... .. . ... ... : ... .. 7 ... ... : ... .. 7 ... ... : ... .. . P78 ...
ROW 39 : ... .. . ... ... ... : ... .. 0 ... ... ... : ... .. . ... : ... .. 0 ... : ... .. . ... ... : ... .. . ... ... : ... .. . ... ... : ... .. . P80 ...
ROW 3A : F-2 00 D P80 ... ... : F#5 00 6 P80 ... ... : --- .. . ... : ... .. 2 ... : ... .. . ... ... : --- .. . P82 ... : --- .. . ... ... : ... .. . P86 ...
ROW 3B : ... .. B ... ... ... : ... .. 4 ... ... ... : ... .. . ... : ... .. 1 ... : ... .. . ... ... : ... .. . ... ... : ... .. . ... ... : ... .. . P89 ...
ROW 3C : ... .. . ... ... ... : ... .. 2 ... ... ... : ... .. . ... : ... .. . ... : ... .. . ... ... : ... .. . ... ... : ... .. . ... ... : ... .. . P85 ...
ROW 3D : ... .. 0 ... ... ... : ... .. 1 ... ... ... : ... .. . ... : ... .. . ... : ... .. . ... ... : ... .. . ... ... : ... .. . ... ... : ... .. . P7F ...
ROW 3E : ... .. . ... ... ... : ... .. . ... ... ... : ... .. . ... : ... .. . ... : ... .. . ... ... : ... .. . ... ... : ... .. . ... ... : ... .. . P78 ...
ROW 3F : ... .. . ... ... ... : ... .. 0 ... ... ... : ... .. . ... : ... .. 0 ... : ... .. . ... ... : ... .. . ... ... : ... .. . ... ... : ... .. . ... ...
ROW 40 : A#1 00 F P80 ... ... : F-5 00 6 P80 ... ... : A-4 00 . ... : ... .. 4 ... : ... .. . ... ... : A#2 01 9 P80 ... : ... .. . ... ... : --- .. . P7D ...
ROW 41 : ... .. E ... ... ... : ... .. 4 ... ... ... : B-3 00 . ... : ... .. 3 ... : ... .. . ... ... : ... .. 8 ... ... : ... .. . ... ... : ... .. . ... ...
ROW 42 : ... .. D ... ... ... : ... .. 2 ... ... ... : E-3 00 . ... : ... .. 1 ... : ... .. . ... ... : ... .. . ... ... : ... .. . ... ... : ... .. . ... ...
ROW 43 : ... .. A ... ... ... : ... .. 1 ... ... ... : --- .. . ... : ... .. . ... : ... .. . ... ... : ... .. . ... ... : ... .. . ... ... : ... .. . ... ...
ROW 44 : ... .. . ... ... ... : ... .. . ... ... ... : ... .. . ... : ... .. . ... : ... .. . ... ... : ... .. 7 ... ... : ... .. . ... ... : ... .. . ... ...
ROW 45 : ... .. . ... ... ... : ... .. 0 ... ... ... : ... .. . ... : ... .. 0 ... : ... .. . ... ... : ... .. . ... ... : ... .. . ... ... : ... .. . ... ...
ROW 46 : A-1 00 F ... ... ... : F#5 00 6 P80 ... ... : A-2 00 . ... : ... .. 8 ... : ... .. . ... ... : A-2 01 9 ... ... : ... .. . ... ... : ... .. . ... ...
ROW 47 : ... .. E ... ... ... : ... .. 4 ... ... ... : ... .. . ... : ... .. 6 ... : ... .. . ... ... : ... .. 8 ... ... : ... .. . ... ... : ... .. . ... ...
ROW 48 : ... .. D ... ... ... : ... .. 2 ... ... ... : ... .. . ... : ... .. 3 ... : ... .. . ... ... : ... .. . ... ... : ... .. . ... ... : ... .. . ... ...
ROW 49 : ... .. A ... ... ... : ... .. 1 ... ... ... : --- .. . ... : ... .. 1 ... : ... .. . ... ... : ... .. . ... ... : ... .. . ... ... : ... .. . ... ...
ROW 4A : ... .. . ... ... ... : ... .. . ... ... ... : ... .. . ... : ... .. . ... : ... .. . ... ... : ... .. 7 ... ... : ... .. . ... ... : ... .. . ... ...
ROW 4B : ... .. . ... ... ... : ... .. 0 ... ... ... : ... .. . ... : ... .. 0 ... : ... .. . ... ... : ... .. . ... ... : ... .. . ... ... : ... .. . ... ...
ROW 4C : A#1 00 F ... ... ... : F-5 00 6 P80 ... ... : A#2 00 . ... : ... .. F ... : ... .. . ... ... : A#2 01 9 ... ... : A#3 01 9 ... ... : A#1 01 F P7E ...
ROW 4D : ... .. E ... ... ... : ... .. 4 ... ... ... : ... .. . ... : ... .. C ... : ... .. . ... ... : ... .. 8 ... ... : ... .. 8 ... ... : ... .. D P7C ...
ROW 4E : ... .. D ... ... ... : ... .. 2 ... ... ... : ... .. . ... : ... .. 6 ... : ... .. . ... ... : ... .. . ... ... : ... .. . ... ... : ... .. 8 P82 ...
ROW 4F : ... .. A ... ... ... : ... .. 1 ... ... ... : --- .. . ... : ... .. 3 ... : ... .. . ... ... : ... .. . ... ... : ... .. . ... ... : ... .. . P88 ...
ROW 50 : ... .. . ... ... ... : ... .. . ... ... ... : ... .. . ... : ... .. 2 ... : ... .. . ... ... : ... .. 7 ... ... : ... .. 7 ... ... : ... .. . P8E ...
ROW 51 : ... .. . ... ... ... : ... .. 0 ... ... ... : ... .. . ... : ... .. 0 ... : ... .. . ... ... : ... .. . ... ... : ... .. . ... ... : ... .. . P8C ...
ROW 52 : C-2 00 F ... ... ... : F#5 00 6 P80 ... ... : C-3 00 . ... : ... .. 4 ... : ... .. . ... ... : C-3 01 9 ... ... : --- .. . ... ... : ... .. . P85 ...
ROW 53 : ... .. E ... ... ... : ... .. 4 ... ... ... : ... .. . ... : ... .. 3 ... : ... .. . ... ... : ... .. 8 ... ... : ... .. . ... ... : ... .. 4 P7E ...
ROW 54 : ... .. D ... ... ... : ... .. 2 ... ... ... : ... .. . ... : ... .. 1 ... : ... .. . ... ... : ... .. . ... ... : ... .. . ... ... : ... .. . P7C ...
ROW 55 : ... .. A ... ... ... : ... .. 1 ... ... ... : --- .. . ... : ... .. . ... : ... .. . ... ... : ... .. . ... ... : ... .. . ... ... : ... .. 1 P81 ...
ROW 56 : ... .. . ... ... ... : ... .. . ... ... ... : ... .. . ... : ... .. . ... : ... .. . ... ... : ... .. 7 ... ... : ... .. . ... ... : ... .. . P87 ...
ROW 57 : ... .. . ... ... ... : ... .. 0 ... ... ... : ... .. . ... : ... .. 0 ... : ... .. . ... ... : ... .. . ... ... : ... .. . ... ... : ... .. . P8E ...
ROW 58 : C#2 00 F ... ... ... : F-5 00 6 P80 ... ... : C-5 00 . ... : ... .. 2 ... : ... .. . ... ... : C#3 01 9 ... ... : C#4 01 9 ... ... : C#2 01 F P8D ...
ROW 59 : ... .. E ... ... ... : ... .. 4 ... ... ... : D-4 00 . ... : ... .. 1 ... : ... .. . ... ... : ... .. 8 ... ... : ... .. 8 ... ... : ... .. D P85 ...
ROW 5A : ... .. D ... ... ... : ... .. 2 ... ... ... : G-3 00 . ... : ... .. . ... : ... .. . ... ... : ... .. . ... ... : ... .. . ... ... : ... .. 8 P7F ...
ROW 5B : ... .. A ... ... ... : ... .. 1 ... ... ... : F#3 00 . ... : ... .. . ... : ... .. . ... ... : ... .. . ... ... : ... .. . ... ... : ... .. . P7C ...
ROW 5C : ... .. . ... ... ... : ... .. . ... ... ... : C#3 00 . ... : ... .. . ... : ... .. . ... ... : ... .. 7 ... ... : ... .. 7 ... ... : ... .. . P80 ...
ROW 5D : ... .. . ... ... ... : ... .. 0 ... ... ... : ... .. . ... : ... .. 0 ... : ... .. . ... ... : ... .. . ... ... : ... .. . ... ... : ... .. . P86 ...
ROW 5E : ... .. 0 ... ... ... : F#5 00 6 P80 ... ... : ... .. . ... : ... .. 4 ... : ... .. . ... ... : --- .. . P83 ... : ... .. . ... ... : ... .. . P8D ...
ROW 5F : ... .. . ... ... ... : ... .. 4 ... ... ... : ... .. . ... : ... .. 3 ... : ... .. . ... ... : ... .. . ... ... : ... .. 6 ... ... : ... .. 4 ... ...
ROW 60 : ... .. . ... ... ... : ... .. 2 ... ... ... : ... .. . ... : ... .. 1 ... : ... .. . ... ... : ... .. . ... ... : ... .. . ... ... : ... .. . P86 ...
ROW 61 : ... .. . ... ... ... : ... .. 1 ... ... ... : --- .. . ... : ... .. . ... : ... .. . ... ... : ... .. . ... ... : ... .. . ... ... : ... .. 1 P80 ...
ROW 62 : ... .. . ... ... ... : ... .. . ... ... ... : ... .. . ... : ... .. . ... : ... .. . ... ... : ... .. . ... ... : ... .. . ... ... : ... .. . P7C ...
ROW 63 : ... .. . ... ... ... : ... .. 0 ... ... ... : ... .. . ... : ... .. 0 ... : ... .. . ... ... : ... .. . ... ... : ... .. . ... ... : ... .. . P7F ...
ROW 64 : F-1 00 F P80 ... ... : F-5 00 6 P80 ... ... : E-4 00 . ... : ... .. F ... : ... .. . ... ... : F-2 01 9 P80 ... : F-3 01 9 ... ... : F-1 01 F P85 ...
ROW 65 : ... .. E ... ... ... : ... .. 4 ... ... ... : F#3 00 . ... : ... .. C ... : ... .. . ... ... : ... .. 8 ... ... : ... .. 8 ... ... : ... .. D P8D ...
ROW 66 : ... .. D ... ... ... : ... .. 2 ... ... ... : B-2 00 . ... : ... .. 6 ... : ... .. . ... ... : ... .. . ... ... : ... .. . ... ... : ... .. 8 P8E ...
ROW 67 : ... .. A ... ... ... : ... .. 1 ... ... ... : A#2 00 . ... : ... .. 3 ... : ... .. . ... ... : ... .. . ... ... : ... .. . ... ... : ... .. . P87 ...
ROW 68 : ... .. . ... ... ... : ... .. . ... ... ... : F-2 00 . ... : ... .. 2 ... : ... .. . ... ... : ... .. 7 ... ... : ... .. 7 ... ... : ... .. . P81 ...
ROW 69 : ... .. . ... ... ... : ... .. 0 ... ... ... : ... .. . ... : ... .. 0 ... : ... .. . ... ... : ... .. . ... ... : ... .. . ... ... : ... .. . P7C ...
ROW 6A : ... .. 0 ... ... ... : F#5 00 6 P80 ... ... : ... .. . ... : ... .. F ... : ... .. . ... ... : --- .. . P7E ... : --- .. . ... ... : ... .. . P7E ...
ROW 6B : ... .. . ... ... ... : ... .. 4 ... ... ... : ... .. . ... : ... .. C ... : ... .. . ... ... : ... .. . ... ... : ... .. . ... ... : ... .. . P85 ...
ROW 6C : ... .. . ... ... ... : ... .. 2 ... ... ... : ... .. . ... : ... .. 6 ... : ... .. . ... ... : ... .. . ... ... : ... .. . ... ... : ... .. . P8C ...
ROW 6D : ... .. . ... ... ... : ... .. 1 ... ... ... : --- .. . ... : ... .. 3 ... : ... .. . ... ... : ... .. . ... ... : ... .. . ... ... : ... .. . P8E ...
ROW 6E : ... .. . ... ... ... : ... .. . ... ... ... : ... .. . ... : ... .. 2 ... : ... .. . ... ... : ... .. . ... ... : ... .. . ... ... : ... .. . P88 ...
ROW 6F : ... .. . ... ... ... : ... .. 0 ... ... ... : ... .. . ... : ... .. 0 ... : ... .. . ... ... : ... .. . ... ... : ... .. . ... ... : ... .. . P82 ...
ROW 70 : C#2 00 F P80 ... ... : F-5 00 6 P80 ... ... : A-4 00 . ... : ... .. 2 ... : ... .. . ... ... : C#3 01 9 P80 ... : ... .. . ... ... : ... .. . P7C ...
ROW 71 : ... .. E ... ... ... : ... .. 4 ... ... ... : B-3 00 . ... : ... .. 1 ... : ... .. . ... ... : ... .. 8 ... ... : ... .. . ... ... : ... .. 4 P7E ...
ROW 72 : ... .. D ... ... ... : ... .. 2 ... ... ... : E-3 00 . ... : ... .. . ... : ... .. . ... ... : ... .. . ... ... : ... .. . ... ... : ... .. . P85 ...
ROW 73 : ... .. A ... ... ... : ... .. 1 ... ... ... : --- .. . ... : ... .. . ... : ... .. . ... ... : ... .. . ... ... : ... .. . ... ... : ... .. 1 P8C ...
ROW 74 : ... .. . ... ... ... : ... .. . ... ... ... : ... .. . ... : ... .. . ... : ... .. . ... ... : ... .. 7 ... ... : ... .. . ... ... : ... .. . P8E ...
ROW 75 : ... .. . ... ... ... : ... .. 0 ... ... ... : ... .. . ... : ... .. 0 ... : ... .. . ... ... : ... .. . ... ... : ... .. . ... ... : ... .. . P89 ...
ROW 76 : C-2 00 F ... ... ... : E-5 00 6 P80 ... ... : A-2 00 . ... : ... .. 4 ... : ... .. . ... ... : C-3 01 9 ... ... : ... .. . ... ... : ... .. . P83 ...
ROW 77 : ... .. E ... ... ... : ... .. 4 ... ... ... : ... .. . ... : ... .. 3 ... : ... .. . ... ... : ... .. 8 ... ... : ... .. . ... ... : ... .. . P7C ...
ROW 78 : ... .. D ... ... ... : ... .. 2 ... ... ... : ... .. . ... : ... .. 1 ... : ... .. . ... ... : ... .. . ... ... : ... .. . ... ... : ... .. . P7D ...
ROW 79 : ... .. A ... ... ... : ... .. 1 ... ... ... : --- .. . ... : ... .. . ... : ... .. . ... ... : ... .. . ... ... : ... .. . ... ... : ... .. . P85 ...
ROW 7A : ... .. . ... ... ... : ... .. . ... ... ... : ... .. . ... : ... .. . ... : ... .. . ... ... : ... .. 7 ... ... : ... .. . ... ... : ... .. 0 P8B ...
ROW 7B : ... .. . ... ... ... : ... .. 0 ... ... ... : ... .. . ... : ... .. 0 ... : ... .. . ... ... : ... .. . ... ... : ... .. . ... ... : ... .. . P8E ...
ROW 7C : A#1 00 F ... ... ... : D#5 00 6 P80 ... ... : A#2 00 . ... : ... .. F ... : ... .. . ... ... : A#2 01 9 ... ... : A#3 01 9 ... ... : A#1 01 F P8A ...
ROW 7D : ... .. E ... ... ... : ... .. 4 ... ... ... : ... .. . ... : ... .. C ... : ... .. . ... ... : ... .. 8 ... ... : ... .. 8 ... ... : ... .. D P84 ...
ROW 7E : ... .. D ... ... ... : ... .. 2 ... ... ... : ... .. . ... : ... .. 6 ... : ... .. . ... ... : ... .. . ... ... : ... .. . ... ... : ... .. 8 P7D ...
ROW 7F : ... .. A ... ... ... : ... .. 1 ... ... ... : --- .. . ... : ... .. 3 ... : ... .. . ... ... : ... .. . ... ... : ... .. . ... ... : ... .. . ... ...
ROW 80 : ... .. . ... ... ... : ... .. . ... ... ... : ... .. . ... : ... .. 2 ... : ... .. . ... ... : ... .. 7 ... ... : ... .. 7 ... ... : ... .. . P84 ...
ROW 81 : ... .. . ... ... ... : ... .. 0 ... ... ... : ... .. . ... : ... .. 0 ... : ... .. . ... ... : ... .. . ... ... : ... .. . ... ... : ... .. . P8A ...
ROW 82 : C-2 00 F ... ... ... : D-5 00 6 P80 ... ... : C-3 00 . ... : ... .. F ... : ... .. . ... ... : C-3 01 9 ... ... : --- .. . ... ... : ... .. . P8E ...
ROW 83 : ... .. E ... ... ... : ... .. 4 ... ... ... : ... .. . ... : ... .. C ... : ... .. . ... ... : ... .. 8 ... ... : ... .. . ... ... : ... .. 4 P8B ...
ROW 84 : ... .. D ... ... ... : ... .. 2 ... ... ... : ... .. . ... : ... .. 6 ... : ... .. . ... ... : ... .. . ... ... : ... .. . ... ... : ... .. . P85 ...
ROW 85 : ... .. A ... ... ... : ... .. 1 ... ... ... : --- .. . ... : ... .. 3 ... : ... .. . ... ... : ... .. . ... ... : ... .. . ... ... : ... .. 1 P7D ...
ROW 86 : ... .. . ... ... ... : ... .. . ... ... ... : ... .. . ... : ... .. 2 ... : ... .. . ... ... : ... .. 7 ... ... : ... .. . ... ... : ... .. . P7C ...
ROW 87 : ... .. . ... ... ... : ... .. 0 ... ... ... : ... .. . ... : ... .. 0 ... : ... .. . ... ... : ... .. . ... ... : ... .. . ... ... : ... .. . P83 ...
ROW 88 : C#2 00 F ... ... ... : C#5 00 6 P80 ... ... : C-5 00 . ... : ... .. 4 ... : ... .. . ... ... : C#3 01 9 ... ... : C#4 01 9 ... ... : C#2 01 F P89 ...
ROW 89 : ... .. E ... ... ... : ... .. 4 ... ... ... : D-4 00 . ... : ... .. 3 ... : ... .. . ... ... : ... .. 8 ... ... : ... .. 8 ... ... : ... .. D P8E ...
ROW 8A : ... .. D ... ... ... : ... .. 2 ... ... ... : G-3 00 . ... : ... .. 1 ... : ... .. . ... ... : ... .. . ... ... : ... .. . ... ... : ... .. 8 P8C ...
ROW 8B : ... .. A ... ... ... : ... .. 1 ... ... ... : F#3 00 . ... : ... .. . ... : ... .. . ... ... : ... .. . ... ... : ... .. . ... ... : ... .. . P85 ...
ROW 8C : ... .. . ... ... ... : ... .. . ... ... ... : C#3 00 . ... : ... .. . ... : ... .. . ... ... : ... .. 7 ... ... : ... .. 7 ... ... : ... .. . P7E ...
ROW 8D : ... .. . ... ... ... : ... .. 0 ... ... ... : ... .. . ... : ... .. 0 ... : ... .. . ... ... : ... .. . ... ... : ... .. . ... ... : ... .. . P7C ...
ROW 8E : ... .. 0 ... ... ... : D-5 00 6 P80 ... ... : ... .. . ... : ... .. 8 ... : ... .. . ... ... : --- .. . P83 ... : ... .. . ... ... : ... .. . P82 ...
ROW 8F : ... .. . ... ... ... : ... .. 4 ... ... ... : ... .. . ... : ... .. 6 ... : ... .. . ... ... : ... .. . ... ... : ... .. 6 ... ... : ... .. 4 P88 ...
ROW 90 : ... .. . ... ... ... : ... .. 2 ... ... ... : ... .. . ... : ... .. 3 ... : ... .. . ... ... : ... .. . ... ... : ... .. . ... ... : ... .. . P8E ...
ROW 91 : ... .. . ... ... ... : ... .. 1 ... ... ... : --- .. . ... : ... .. 1 ... : ... .. . ... ... : ... .. . ... ... : ... .. . ... ... : ... .. 1 P8C ...
ROW 92 : ... .. . ... ... ... : ... .. . ... ... ... : ... .. . ... : ... .. . ... : ... .. . ... ... : ... .. . ... ... : ... .. . ... ... : ... .. . P85 ...
ROW 93 : ... .. . ... ... ... : ... .. 0 ... ... ... : ... .. . ... : ... .. 0 ... : ... .. . ... ... : ... .. . ... ... : ... .. . ... ... : ... .. . P7E ...
ROW 94 : F-1 00 F P80 ... ... : D#5 00 6 P80 ... ... : E-4 00 . ... : ... .. F ... : ... .. . ... ... : F-2 01 9 P80 ... : F-3 01 9 ... ... : F-1 01 F P7C ...
ROW 95 : ... .. E ... ... ... : ... .. 4 ... ... ... : F#3 00 . ... : ... .. C ... : ... .. . ... ... : ... .. 8 ... ... : ... .. 8 ... ... : ... .. D P81 ...
ROW 96 : ... .. D ... ... ... : ... .. 2 ... ... ... : B-2 00 . ... : ... .. 6 ... : ... .. . ... ... : ... .. . ... ... : ... .. . ... ... : ... .. 8 P87 ...
ROW 97 : ... .. A ... ... ... : ... .. 1 ... ... ... : A#2 00 . ... : ... .. 3 ... : ... .. . ... ... : ... .. . ... ... : ... .. . ... ... : ... .. . P8E ...
ROW 98 : ... .. . ... ... ... : ... .. . ... ... ... : F-2 00 . ... : ... .. 2 ... : ... .. . ... ... : ... .. 7 ... ... : ... .. 7 ... ... : ... .. . P8D ...
ROW 99 : ... .. . ... ... ... : ... .. 0 ... ... ... : ... .. . ... : ... .. 0 ... : ... .. . ... ... : ... .. . ... ... : ... .. . ... ... : ... .. . P85 ...
ROW 9A : ... .. . ... ... ... : E-5 00 6 P80 ... ... : ... .. . ... : ... .. 2 ... : ... .. . ... ... : --- .. . P7E ... : --- .. . ... ... : ... .. . P7F ...
ROW 9B : ... .. . ... ... ... : ... .. 4 ... ... ... : ... .. . ... : ... .. 1 ... : ... .. . ... ... : ... .. . ... ... : ... .. . ... ... : ... .. . P7C ...
ROW 9C : ... .. . ... ... ... : ... .. 2 ... ... ... : ... .. . ... : ... .. . ... : ... .. . ... ... : ... .. . ... ... : ... .. . ... ... : ... .. . P80 ...
ROW 9D : ... .. 0 ... ... ... : ... .. 1 ... ... ... : --- .. . ... : ... .. . ... : ... .. . ... ... : ... .. . ... ... : ... .. . ... ... : ... .. . P86 ...
ROW 9E : ... .. . ... ... ... : ... .. . ... ... ... : ... .. . ... : ... .. . ... : ... .. . ... ... : ... .. . ... ... : ... .. . ... ... : ... .. . P8D ...
ROW 9F : ... .. . ... ... ... : ... .. 0 ... ... ... : ... .. . ... : ... .. 0 ... : ... .. . ... ... : ... .. . ... ... : ... .. . ... ... : ... .. . ... ...
ROW A0 : A#1 00 D P80 ... ... : F-5 00 6 P80 ... ... : A-4 00 . ... : ... .. 4 ... : ... .. . ... ... : ... .. . ... ... : ... .. . ... ... : ... .. . P81 ...
ROW A1 : ... .. B ... ... ... : ... .. 4 ... ... ... : B-3 00 . ... : ... .. 3 ... : ... .. . ... ... : ... .. . ... ... : ... .. . ... ... : ... .. 4 P7B ...
ROW A2 : ... .. . ... ... ... : ... .. 2 ... ... ... : E-3 00 . ... : ... .. 1 ... : ... .. . ... ... : ... .. . ... ... : ... .. . ... ... : ... .. . P77 ...
ROW A3 : ... .. A ... ... ... : ... .. 1 ... ... ... : D#3 00 . ... : ... .. . ... : ... .. . ... ... : ... .. . ... ... : ... .. . ... ... : ... .. 1 P7A ...
ROW A4 : ... .. 8 ... ... ... : ... .. . ... ... ... : A#2 00 . ... : ... .. . ... : ... .. . ... ... : ... .. . ... ... : ... .. . ... ... : ... .. . P80 ...
ROW A5 : ... .. 7 ... ... ... : ... .. 0 ... ... ... : ... .. . ... : ... .. 0 ... : ... .. . ... ... : ... .. . ... ... : ... .. . ... ... : ... .. . P88 ...
ROW A6 : ... .. 6 ... ... ... : F#5 00 6 P80 ... ... : ... .. . ... : ... .. 8 ... : ... .. . ... ... : ... .. . ... ... : ... .. . ... ... : ... .. . P89 ...
ROW A7 : ... .. . ... ... ... : ... .. 4 ... ... ... : ... .. . ... : ... .. 6 ... : ... .. . ... ... : ... .. . ... ... : ... .. . ... ... : ... .. . P82 ...
ROW A8 : ... .. 5 ... ... ... : ... .. 2 ... ... ... : ... .. . ... : ... .. 3 ... : ... .. . ... ... : ... .. . ... ... : ... .. . ... ... : ... .. . P7C ...
ROW A9 : ... .. . ... ... ... : ... .. 1 ... ... ... : ... .. . ... : ... .. 1 ... : ... .. . ... ... : ... .. . ... ... : ... .. . ... ... : ... .. . P77 ...
ROW AA : ... .. 4 ... ... ... : ... .. . ... ... ... : ... .. . ... : ... .. . ... : ... .. . ... ... : ... .. . ... ... : ... .. . ... ... : ... .. 0 P79 ...
ROW AB : ... .. . ... ... ... : ... .. 0 ... ... ... : ... .. . ... : ... .. 0 ... : ... .. . ... ... : ... .. . ... ... : ... .. . ... ... : ... .. . P80 ...
ROW AC : F-2 00 D ... ... ... : F-5 00 6 P80 ... ... : ... .. . ... : ... .. F ... : ... .. . ... ... : A#3 01 9 P80 ... : C#4 01 9 ... ... : F-3 01 F P87 ...
ROW AD : ... .. B ... ... ... : ... .. 4 ... ... ... : ... .. . ... : ... .. C ... : ... .. . ... ... : ... .. 8 ... ... : ... .. 8 ... ... : ... .. D P89 ...
ROW AE : ... .. . ... ... ... : ... .. 2 ... ... ... : ... .. . ... : ... .. 6 ... : ... .. . ... ... : ... .. . ... ... : ... .. . ... ... : ... .. 8 P83 ...
ROW AF : ... .. 0 ... ... ... : ... .. 1 ... ... ... : --- .. . ... : ... .. 3 ... : ... .. . ... ... : ... .. . ... ... : ... .. . ... ... : ... .. . P7D ...
ROW B0 : ... .. . ... ... ... : ... .. . ... ... ... : ... .. . ... : ... .. 2 ... : ... .. . ... ... : ... .. 7 ... ... : ... .. 7 ... ... : ... .. . P77 ...
ROW B1 : ... .. . ... ... ... : ... .. 0 ... ... ... : ... .. . ... : ... .. 0 ... : ... .. . ... ... : ... .. . ... ... : ... .. . ... ... : ... .. . P79 ...
ROW B2 : F-2 00 D P80 ... ... : F#5 00 6 P80 ... ... : ... .. . ... : ... .. 4 ... : ... .. . ... ... : --- .. . ... ... : --- .. . ... ... : --- .. . P7E ...
ROW B3 : ... .. B ... ... ... : ... .. 4 ... ... ... : ... .. . ... : ... .. 3 ... : ... .. . ... ... : ... .. . ... ... : ... .. . ... ... : ... .. . ... ...
ROW B4 : ... .. . ... ... ... : ... .. 2 ... ... ... : ... .. . ... : ... .. 1 ... : ... .. . ... ... : ... .. . ... ... : ... .. . ... ... : ... .. . ... ...
ROW B5 : ... .. 0 ... ... ... : ... .. 1 ... ... ... : ... .. . ... : ... .. . ... : ... .. . ... ... : ... .. . ... ... : ... .. . ... ... : ... .. . ... ...
ROW B6 : ... .. . ... ... ... : ... .. . ... ... ... : ... .. . ... : ... .. . ... : ... .. . ... ... : ... .. . ... ... : ... .. . ... ... : ... .. . ... ...
ROW B7 : ... .. . ... ... ... : ... .. 0 ... ... ... : ... .. . ... : ... .. 0 ... : ... .. . ... ... : ... .. . ... ... : ... .. . ... ... : ... .. . ... ...
ROW B8 : E-2 00 D P80 ... ... : F-5 00 6 P80 ... ... : E-4 00 . ... : ... .. 2 ... : ... .. . ... ... : ... .. . ... ... : ... .. . ... ... : E-3 01 F P78 ...
ROW B9 : ... .. B ... ... ... : ... .. 4 ... ... ... : F#3 00 . ... : ... .. 1 ... : ... .. . ... ... : ... .. . ... ... : ... .. . ... ... : ... .. D P80 ...
ROW BA : ... .. . ... ... ... : ... .. 2 ... ... ... : B-2 00 . ... : ... .. . ... : ... .. . ... ... : ... .. . ... ... : ... .. . ... ... : ... .. 8 P86 ...
ROW BB : ... .. A ... ... ... : ... .. 1 ... ... ... : A#2 00 . ... : ... .. . ... : ... .. . ... ... : ... .. . ... ... : ... .. . ... ... : ... .. . P89 ...
ROW BC : ... .. 8 ... ... ... : ... .. . ... ... ... : F-2 00 . ... : ... .. . ... : ... .. . ... ... : ... .. . ... ... : ... .. . ... ... : ... .. . P85 ...
ROW BD : ... .. 7 ... ... ... : ... .. 0 ... ... ... : ... .. . ... : ... .. 0 ... : ... .. . ... ... : ... .. . ... ... : ... .. . ... ... : ... .. . P7F ...
ROW BE : ... .. D ... ... ... : F#5 00 6 P80 ... ... : ... .. . ... : ... .. 4 ... : ... .. . ... ... : ... .. . ... ... : ... .. . ... ... : ... .. . P78 ...
ROW BF : ... .. B ... ... ... : ... .. 4 ... ... ... : ... .. . ... : ... .. 3 ... : ... .. . ... ... : ... .. . ... ... : ... .. . ... ... : ... .. . ... ...
ROW C0 : ... .. . ... ... ... : ... .. 2 ... ... ... : ... .. . ... : ... .. 1 ... : ... .. . ... ... : ... .. . ... ... : ... .. . ... ... : ... .. . P7F ...
ROW C1 : ... .. A ... ... ... : ... .. 1 ... ... ... : ... .. . ... : ... .. . ... : ... .. . ... ... : ... .. . ... ... : ... .. . ... ... : ... .. . P85 ...
ROW C2 : ... .. 8 ... ... ... : ... .. . ... ... ... : ... .. . ... : ... .. . ... : ... .. . ... ... : ... .. . ... ... : ... .. . ... ... : ... .. . P89 ...
ROW C3 : ... .. 7 ... ... ... : ... .. 0 ... ... ... : ... .. . ... : ... .. 0 ... : ... .. . ... ... : ... .. . ... ... : ... .. . ... ... : ... .. . P86 ...
ROW C4 : F-2 00 D ... ... ... : F-5 00 6 P80 ... ... : ... .. . ... : ... .. F ... : ... .. . ... ... : A-3 01 9 ... ... : C#4 01 9 ... ... : F-3 01 F P80 ...
ROW C5 : ... .. B ... ... ... : ... .. 4 ... ... ... : ... .. . ... : ... .. C ... : ... .. . ... ... : ... .. 8 ... ... : ... .. 8 ... ... : ... .. D P78 ...
ROW C6 : ... .. . ... ... ... : ... .. 2 ... ... ... : ... .. . ... : ... .. 6 ... : ... .. . ... ... : ... .. . ... ... : ... .. . ... ... : ... .. 8 P77 ...
ROW C7 : ... .. 0 ... ... ... : ... .. 1 ... ... ... : --- .. . ... : ... .. 3 ... : ... .. . ... ... : ... .. . ... ... : ... .. . ... ... : ... .. . P7E ...
ROW C8 : ... .. . ... ... ... : ... .. . ... ... ... : ... .. . ... : ... .. 2 ... : ... .. . ... ... : ... .. 7 ... ... : ... .. 7 ... ... : ... .. . P84 ...
ROW C9 : ... .. . ... ... ... : ... .. 0 ... ... ... : ... .. . ... : ... .. 0 ... : ... .. . ... ... : ... .. . ... ... : ... .. . ... ... : ... .. . P89 ...
ROW CA : F-2 00 D P80 ... ... : F#5 00 6 P80 ... ... : ... .. . ... : ... .. F ... : ... .. . ... ... : --- .. . ... ... : --- .. . ... ... : --- .. . P82 ...
ROW CB : ... .. B ... ... ... : ... .. 4 ... ... ... : ... .. . ... : ... .. C ... : ... .. . ... ... : ... .. . ... ... : ... .. . ... ... : ... .. . ... ...
ROW CC : ... .. . ... ... ... : ... .. 2 ... ... ... : ... .. . ... : ... .. 6 ... : ... .. . ... ... : ... .. . ... ... : ... .. . ... ... : ... .. . ... ...
ROW CD : ... .. 0 ... ... ... : ... .. 1 ... ... ... : ... .. . ... : ... .. 3 ... : ... .. . ... ... : ... .. . ... ... : ... .. . ... ... : ... .. . ... ...
ROW CE : ... .. . ... ... ... : ... .. . ... ... ... : ... .. . ... : ... .. 2 ... : ... .. . ... ... : ... .. . ... ... : ... .. . ... ... : ... .. . ... ...
ROW CF : ... .. . ... ... ... : ... .. 0 ... ... ... : ... .. . ... : ... .. 0 ... : ... .. . ... ... : ... .. . ... ... : ... .. . ... ... : ... .. . ... ...
ROW D0 : C#2 00 D P80 ... ... : F-5 00 6 P80 ... ... : C-5 00 . ... : ... .. 2 ... : ... .. . ... ... : ... .. . ... ... : ... .. . ... ... : F#3 01 F P89 ...
ROW D1 : ... .. B ... ... ... : ... .. 4 ... ... ... : D-4 00 . ... : ... .. 1 ... : ... .. . ... ... : ... .. . ... ... : ... .. . ... ... : ... .. D P87 ...
ROW D2 : ... .. . ... ... ... : ... .. 2 ... ... ... : G-3 00 . ... : ... .. . ... : ... .. . ... ... : ... .. . ... ... : ... .. . ... ... : ... .. 8 P80 ...
ROW D3 : ... .. A ... ... ... : ... .. 1 ... ... ... : F#3 00 . ... : ... .. . ... : ... .. . ... ... : ... .. . ... ... : ... .. . ... ... : ... .. . P79 ...
ROW D4 : ... .. 8 ... ... ... : ... .. . ... ... ... : C#3 00 . ... : ... .. . ... : ... .. . ... ... : ... .. . ... ... : ... .. . ... ... : ... .. . P77 ...
ROW D5 : ... .. 7 ... ... ... : ... .. 0 ... ... ... : ... .. . ... : ... .. 0 ... : ... .. . ... ... : ... .. . ... ... : ... .. . ... ... : ... .. . P7C ...
ROW D6 : ... .. D ... ... ... : F#5 00 6 P80 ... ... : ... .. . ... : ... .. 4 ... : ... .. . ... ... : ... .. . ... ... : ... .. . ... ... : ... .. . P82 ...
ROW D7 : ... .. B ... ... ... : ... .. 4 ... ... ... : ... .. . ... : ... .. 3 ... : ... .. . ... ... : ... .. . ... ... : ... .. . ... ... : ... .. . P89 ...
ROW D8 : ... .. . ... ... ... : ... .. 2 ... ... ... : ... .. . ... : ... .. 1 ... : ... .. . ... ... : ... .. . ... ... : ... .. . ... ... : ... .. . P88 ...
ROW D9 : ... .. A ... ... ... : ... .. 1 ... ... ... : ... .. . ... : ... .. . ... : ... .. . ... ... : ... .. . ... ... : ... .. . ... ... : ... .. . P80 ...
ROW DA : ... .. 8 ... ... ... : ... .. . ... ... ... : ... .. . ... : ... .. . ... : ... .. . ... ... : ... .. . ... ... : ... .. . ... ... : ... .. . P7A ...
ROW DB : ... .. 7 ... ... ... : ... .. 0 ... ... ... : ... .. . ... : ... .. 0 ... : ... .. . ... ... : ... .. . ... ... : ... .. . ... ... : ... .. . P77 ...
ROW DC : F-2 00 D ... ... ... : G-5 00 6 P80 ... ... : ... .. . ... : ... .. F ... : ... .. . ... ... : G#3 01 9 ... ... : C#4 01 9 ... ... : F-3 01 F P7B ...
ROW DD : ... .. B ... ... ... : ... .. 4 ... ... ... : ... .. . ... : ... .. C ... : ... .. . ... ... : ... .. 8 ... ... : ... .. 8 ... ... : ... .. D P81 ...
ROW DE : ... .. . ... ... ... : ... .. 2 ... ... ... : ... .. . ... : ... .. 6 ... : ... .. . ... ... : ... .. . ... ... : ... .. . ... ... : ... .. 8 P88 ...
ROW DF : ... .. 0 ... ... ... : ... .. 1 ... ... ... : --- .. . ... : ... .. 3 ... : ... .. . ... ... : ... .. . ... ... : ... .. . ... ... : ... .. . ... ...
ROW E0 : ... .. . ... ... ... : ... .. . ... ... ... : ... .. . ... : ... .. 2 ... : ... .. . ... ... : ... .. 7 ... ... : ... .. 7 ... ... : ... .. . P81 ...
ROW E1 : ... .. . ... ... ... : ... .. 0 ... ... ... : ... .. . ... : ... .. 0 ... : ... .. . ... ... : ... .. . ... ... : ... .. . ... ... : ... .. . P7B ...
ROW E2 : F-2 00 D P80 ... ... : G#5 00 6 P80 ... ... : ... .. . ... : ... .. F ... : ... .. . ... ... : --- .. . P82 ... : --- .. . ... ... : --- .. . P80 ...
ROW E3 : ... .. B ... ... ... : ... .. 4 ... ... ... : ... .. . ... : ... .. C ... : ... .. . ... ... : ... .. . ... ... : ... .. . ... ... : ... .. . ... ...
ROW E4 : ... .. . ... ... ... : ... .. 2 ... ... ... : ... .. . ... : ... .. 6 ... : ... .. . ... ... : ... .. . ... ... : ... .. . ... ... : ... .. . ... ...
ROW E5 : ... .. 0 ... ... ... : ... .. 1 ... ... ... : ... .. . ... : ... .. 3 ... : ... .. . ... ... : ... .. . ... ... : ... .. . ... ... : ... .. . ... ...
ROW E6 : ... .. . ... ... ... : ... .. . ... ... ... : ... .. . ... : ... .. 2 ... : ... .. . ... ... : ... .. . ... ... : ... .. . ... ... : ... .. . ... ...
ROW E7 : ... .. . ... ... ... : ... .. 0 ... ... ... : ... .. . ... : ... .. 0 ... : ... .. . ... ... : ... .. . ... ... : ... .. . ... ... : ... .. . ... ...
ROW E8 : F#2 00 D P80 ... ... : A-5 00 6 P80 ... ... : B-4 00 . ... : ... .. 4 ... : ... .. . ... ... : ... .. . ... ... : ... .. . ... ... : E-3 01 F P7C ...
ROW E9 : ... .. B ... ... ... : ... .. 4 ... ... ... : C#4 00 . ... : ... .. 3 ... : ... .. . ... ... : ... .. . ... ... : ... .. . ... ... : ... .. D P77 ...
ROW EA : ... .. . ... ... ... : ... .. 2 ... ... ... : F#3 00 . ... : ... .. 1 ... : ... .. . ... ... : ... .. . ... ... : ... .. . ... ... : ... .. 8 P79 ...
ROW EB : ... .. A ... ... ... : ... .. 1 ... ... ... : F-3 00 . ... : ... .. . ... : ... .. . ... ... : ... .. . ... ... : ... .. . ... ... : ... .. . P80 ...
ROW EC : ... .. 8 ... ... ... : ... .. . ... ... ... : C-3 00 . ... : ... .. . ... : ... .. . ... ... : ... .. . ... ... : ... .. . ... ... : ... .. . P87 ...
ROW ED : ... .. 7 ... ... ... : ... .. 0 ... ... ... : ... .. . ... : ... .. 0 ... : ... .. . ... ... : ... .. . ... ... : ... .. . ... ... : ... .. . P89 ...
ROW EE : F-2 00 D ... ... ... : G#5 00 6 P80 ... ... : ... .. . ... : ... .. 8 ... : ... .. . ... ... : ... .. . ... ... : ... .. . ... ... : ... .. . P83 ...
ROW EF : ... .. B ... ... ... : ... .. 4 ... ... ... : ... .. . ... : ... .. 6 ... : ... .. . ... ... : ... .. . ... ... : ... .. . ... ... : ... .. . P7D ...
ROW F0 : ... .. . ... ... ... : ... .. 2 ... ... ... : ... .. . ... : ... .. 3 ... : ... .. . ... ... : ... .. . ... ... : ... .. . ... ... : ... .. . P77 ...
ROW F1 : ... .. A ... ... ... : ... .. 1 ... ... ... : ... .. . ... : ... .. 1 ... : ... .. . ... ... : ... .. . ... ... : ... .. . ... ... : ... .. . P79 ...
ROW F2 : ... .. 8 ... ... ... : ... .. . ... ... ... : ... .. . ... : ... .. . ... : ... .. . ... ... : ... .. . ... ... : ... .. . ... ... : ... .. . P80 ...
ROW F3 : ... .. 7 ... ... ... : ... .. 0 ... ... ... : ... .. . ... : ... .. 0 ... : ... .. . ... ... : ... .. . ... ... : ... .. . ... ... : ... .. . P87 ...
ROW F4 : C#2 00 D ... ... ... : G-5 00 6 P80 ... ... : ... .. . ... : ... .. F ... : ... .. . ... ... : G-3 01 9 P80 ... : C#4 01 9 ... ... : F-3 01 F P89 ...
ROW F5 : ... .. B ... ... ... : ... .. 4 ... ... ... : ... .. . ... : ... .. C ... : ... .. . ... ... : ... .. 8 ... ... : ... .. 8 ... ... : ... .. D P84 ...
ROW F6 : ... .. . ... ... ... : ... .. 2 ... ... ... : ... .. . ... : ... .. 6 ... : ... .. . ... ... : ... .. . ... ... : ... .. . ... ... : ... .. 8 P7E ...
ROW F7 : ... .. 0 ... ... ... : ... .. 1 ... ... ... : --- .. . ... : ... .. 3 ... : ... .. . ... ... : ... .. . ... ... : ... .. . ... ... : ... .. . P77 ...
ROW F8 : ... .. . ... ... ... : ... .. . ... ... ... : ... .. . ... : ... .. 2 ... : ... .. . ... ... : ... .. 7 ... ... : ... .. 7 ... ... : ... .. . P78 ...
ROW F9 : ... .. . ... ... ... : ... .. 0 ... ... ... : ... .. . ... : ... .. 0 ... : ... .. . ... ... : ... .. . ... ... : ... .. . ... ... : ... .. . P80 ...
ROW FA : C-2 00 D P80 ... ... : F#5 00 6 P80 ... ... : ... .. . ... : ... .. 2 ... : ... .. . ... ... : --- .. . P81 ... : --- .. . ... ... : ... .. . P86 ...
ROW FB : ... .. B ... ... ... : ... .. 4 ... ... ... : ... .. . ... : ... .. 1 ... : ... .. . ... ... : ... .. . ... ... : ... .. . ... ... : ... .. . P89 ...
ROW FC : ... .. . ... ... ... : ... .. 2 ... ... ... : ... .. . ... : ... .. . ... : ... .. . ... ... : ... .. . ... ... : ... .. . ... ... : ... .. . P85 ...
ROW FD : ... .. 0 ... ... ... : ... .. 1 ... ... ... : ... .. . ... : ... .. . ... : ... .. . ... ... : ... .. . ... ... : ... .. . ... ... : ... .. . P7F ...
ROW FE : ... .. . ... ... ... : ... .. . ... ... ... : ... .. . ... : ... .. . ... : ... .. . ... ... : ... .. . ... ... : ... .. . ... ... : ... .. . P78 ...
ROW FF : ... .. . ... ... ... : ... .. 0 ... ... ... : ... .. . ... : ... .. 0 ... : ... .. . ... ... : ... .. . ... ... : ... .. . ... ... : ... .. . ... ...

PATTERN 03
ROW 00 : A#1 00 D P80 ... ... : F-5 00 6 P80 ... ... : A-3 00 . ... : ... .. F ... : ... .. . ... ... : F#3 01 9 P80 ... : ... .. . ... ... : C-4 01 F P7F ...
ROW 01 : ... .. B ... ... ... : ... .. 4 ... ... ... : B-2 00 . ... : ... .. C ... : ... .. . ... ... : ... .. 8 ... ... : ... .. . ... ... : ... .. D P85 ...
ROW 02 : ... .. . ... ... ... : ... .. 2 ... ... ... : E-2 00 . ... : ... .. 6 ... : ... .. . ... ... : ... .. . ... ... : ... .. . ... ... : C#4 01 8 P7C ...
ROW 03 : ... .. A ... ... ... : ... .. 1 ... ... ... : D#2 00 . ... : ... .. 3 ... : ... .. . ... ... : ... .. . ... ... : ... .. . ... ... : C-4 01 8 P86 ...
ROW 04 : ... .. 8 ... ... ... : ... .. . ... ... ... : A#1 00 . ... : ... .. 2 ... : ... .. . ... ... : ... .. 7 ... ... : ... .. . ... ... : ... .. . P80 ...
ROW 05 : ... .. 7 ... ... ... : ... .. 0 ... ... ... : ... .. . ... : ... .. 0 ... : ... .. . ... ... : ... .. . ... ... : ... .. . ... ... : B-3 01 8 P87 ...
ROW 06 : ... .. 6 ... ... ... : F#5 00 6 P80 ... ... : ... .. . ... : ... .. . ... : ... .. . ... ... : F-3 01 9 ... ... : ... .. . ... ... : ... .. . P86 ...
ROW 07 : ... .. . ... ... ... : ... .. 4 ... ... ... : ... .. . ... : ... .. . ... : ... .. . ... ... : ... .. 8 ... ... : ... .. . ... ... : C-4 01 8 P7E ...
ROW 08 : ... .. 5 ... ... ... : ... .. 2 ... ... ... : ... .. . ... : ... .. . ... : ... .. . ... ... : ... .. . ... ... : ... .. . ... ... : ... .. . P84 ...
ROW 09 : ... .. . ... ... ... : ... .. 1 ... ... ... : ... .. . ... : ... .. . ... : ... .. . ... ... : ... .. . ... ... : ... .. . ... ... : C#4 01 8 P7C ...
ROW 0A : ... .. 4 ... ... ... : ... .. . ... ... ... : ... .. . ... : ... .. . ... : ... .. . ... ... : ... .. 7 ... ... : ... .. . ... ... : ... .. . P7A ...
ROW 0B : ... .. . ... ... ... : ... .. 0 ... ... ... : ... .. . ... : ... .. . ... : ... .. . ... ... : ... .. . ... ... : ... .. . ... ... : C-4 01 8 P80 ...
ROW 0C : A-2 00 D ... ... ... : F-5 00 6 P80 ... ... : C#4 00 . ... : ... .. 3 ... : ... .. . ... ... : E-3 01 9 ... ... : ... .. . ... ... : ... .. . P79 ...
ROW 0D : ... .. B ... ... ... : ... .. 4 ... ... ... : ... .. . ... : ... .. 2 ... : ... .. . ... ... : ... .. 8 ... ... : ... .. . ... ... : B-3 01 8 P86 ...
ROW 0E : ... .. . ... ... ... : ... .. 2 ... ... ... : ... .. . ... : ... .. . ... : ... .. . ... ... : ... .. . ... ... : ... .. . ... ... : C-4 01 8 P7D ...
ROW 0F : ... .. A ... ... ... : ... .. 1 ... ... ... : ... .. . ... : ... .. . ... : ... .. . ... ... : ... .. . ... ... : ... .. . ... ... : ... .. . P83 ...
ROW 10 : ... .. 8 ... ... ... : ... .. . ... ... ... : ... .. . ... : ... .. . ... : ... .. . ... ... : ... .. 7 ... ... : ... .. . ... ... : C#4 01 8 P7C ...
ROW 11 : ... .. 7 ... ... ... : ... .. 0 ... ... ... : ... .. . ... : ... .. 1 ... : ... .. . ... ... : ... .. . ... ... : ... .. . ... ... : ... .. . P7A ...
ROW 12 : A#2 00 D ... ... ... : F#5 00 6 P80 ... ... : ... .. . ... : ... .. . ... : ... .. . ... ... : F#3 01 9 ... ... : ... .. . ... ... : A#3 01 F P80 ...
ROW 13 : ... .. B ... ... ... : ... .. 4 ... ... ... : ... .. . ... : ... .. . ... : ... .. . ... ... : ... .. 8 ... ... : ... .. . ... ... : ... .. D P79 ...
ROW 14 : ... .. . ... ... ... : ... .. 2 ... ... ... : ... .. . ... : ... .. . ... : ... .. . ... ... : ... .. . ... ... : ... .. . ... ... : A-3 01 8 P88 ...
ROW 15 : ... .. 0 ... ... ... : ... .. 1 ... ... ... : ... .. . ... : ... .. . ... : ... .. . ... ... : ... .. . ... ... : ... .. . ... ... : --- .. . P80 ...
ROW 16 : ... .. . ... ... ... : ... .. . ... ... ... : ... .. . ... : ... .. . ... : ... .. . ... ... : ... .. 7 ... ... : ... .. . ... ... : ... .. . ... ...
ROW 17 : ... .. . ... ... ... : ... .. 0 ... ... ... : ... .. . ... : ... .. . ... : ... .. . ... ... : ... .. . ... ... : ... .. . ... ... : ... .. . ... ...
ROW 18 : A#2 00 D P80 ... ... : F-5 00 6 P80 ... ... : A-3 00 . ... : ... .. F ... : ... .. . ... ... : F-3 01 9 ... ... : ... .. . ... ... : A-3 01 F P88 ...
ROW 19 : ... .. B ... ... ... : ... .. 4 ... ... ... : B-2 00 . ... : ... .. C ... : ... .. . ... ... : ... .. 8 ... ... : ... .. . ... ... : ... .. D P80 ...
ROW 1A : ... .. . ... ... ... : ... .. 2 ... ... ... : E-2 00 . ... : ... .. 6 ... : ... .. . ... ... : ... .. . ... ... : ... .. . ... ... : ... .. 8 P7A ...
ROW 1B : ... .. A ... ... ... : ... .. 1 ... ... ... : D#2 00 . ... : ... .. 3 ... : ... .. . ... ... : ... .. . ... ... : ... .. . ... ... : G#3 01 8 P88 ...
ROW 1C : ... .. 8 ... ... ... : ... .. . ... ... ... : A#1 00 . ... : ... .. 2 ... : ... .. . ... ... : ... .. 7 ... ... : ... .. . ... ... : A-3 01 8 P7B ...
ROW 1D : ... .. 7 ... ... ... : ... .. 0 ... ... ... : ... .. . ... : ... .. 0 ... : ... .. . ... ... : ... .. . ... ... : ... .. . ... ... : ... .. . P81 ...
ROW 1E : ... .. D ... ... ... : F#5 00 6 P80 ... ... : ... .. . ... : ... .. . ... : ... .. . ... ... : ... .. . ... ... : ... .. . ... ... : ... .. . P88 ...
ROW 1F : ... .. B ... ... ... : ... .. 4 ... ... ... : ... .. . ... : ... .. . ... : ... .. . ... ... : ... .. 6 ... ... : ... .. . ... ... : ... .. . ... ...
ROW 20 : ... .. . ... ... ... : ... .. 2 ... ... ... : ... .. . ... : ... .. . ... : ... .. . ... ... : ... .. . ... ... : ... .. . ... ... : ... .. . P81 ...
ROW 21 : ... .. 0 ... ... ... : ... .. 1 ... ... ... : ... .. . ... : ... .. . ... : ... .. . ... ... : ... .. . ... ... : ... .. . ... ... : ... .. . P7B ...
ROW 22 : ... .. . ... ... ... : ... .. . ... ... ... : ... .. . ... : ... .. . ... : ... .. . ... ... : ... .. . ... ... : ... .. . ... ... : G#3 01 8 P88 ...
ROW 23 : ... .. . ... ... ... : ... .. 0 ... ... ... : ... .. . ... : ... .. . ... : ... .. . ... ... : ... .. . ... ... : ... .. . ... ... : A-3 01 8 P7A ...
ROW 24 : A#2 00 D P80 ... ... : F-5 00 6 P80 ... ... : C#4 00 . ... : ... .. 3 ... : ... .. . ... ... : C#3 01 9 ... ... : ... .. . ... ... : A#3 01 F P80 ...
ROW 25 : ... .. B ... ... ... : ... .. 4 ... ... ... : ... .. . ... : ... .. 2 ... : ... .. . ... ... : ... .. 8 ... ... : ... .. . ... ... : B-3 01 D P79 ...
ROW 26 : ... .. . ... ... ... : ... .. 2 ... ... ... : ... .. . ... : ... .. . ... : ... .. . ... ... : ... .. . ... ... : ... .. . ... ... : ... .. 8 P7A ...
ROW 27 : ... .. 0 ... ... ... : ... .. 1 ... ... ... : ... .. . ... : ... .. . ... : ... .. . ... ... : ... .. . ... ... : ... .. . ... ... : A#3 01 8 P82 ...
ROW 28 : ... .. . ... ... ... : ... .. . ... ... ... : ... .. . ... : ... .. . ... : ... .. . ... ... : ... .. 7 ... ... : ... .. . ... ... : ... .. . P7C ...
ROW 29 : ... .. . ... ... ... : ... .. 0 ... ... ... : ... .. . ... : ... .. 1 ... : ... .. . ... ... : ... .. . ... ... : ... .. . ... ... : A-3 01 8 P88 ...
ROW 2A : A#2 00 D P80 ... ... : F#5 00 6 P80 ... ... : ... .. . ... : ... .. . ... : ... .. . ... ... : ... .. . ... ... : ... .. . ... ... : --- .. . P80 ...
ROW 2B : ... .. B ... ... ... : ... .. 4 ... ... ... : ... .. . ... : ... .. . ... : ... .. . ... ... : ... .. 6 ... ... : ... .. . ... ... : ... .. . ... ...
ROW 2C : ... .. . ... ... ... : ... .. 2 ... ... ... : ... .. . ... : ... .. . ... : ... .. . ... ... : ... .. . ... ... : ... .. . ... ... : ... .. . ... ...
ROW 2D : ... .. 0 ... ... ... : ... .. 1 ... ... ... : ... .. . ... : ... .. . ... : ... .. . ... ... : ... .. . ... ... : ... .. . ... ... : ... .. . ... ...
ROW 2E : ... .. . ... ... ... : ... .. . ... ... ... : ... .. . ... : ... .. . ... : ... .. . ... ... : ... .. . ... ... : ... .. . ... ... : ... .. . ... ...
ROW 2F : ... .. . ... ... ... : ... .. 0 ... ... ... : ... .. . ... : ... .. . ... : ... .. . ... ... : ... .. . ... ... : ... .. . ... ... : ... .. . ... ...
ROW 30 : B-2 00 D P80 ... ... : F-5 00 6 P80 ... ... : A-3 00 . ... : B-# 00 F ... : ... .. . ... ... : B-3 01 9 ... ... : ... .. . ... ... : D-4 01 F P84 ...
ROW 31 : ... .. B ... ... ... : ... .. 4 ... ... ... : B-2 00 . ... : ... .. C ... : ... .. . ... ... : ... .. 8 ... ... : ... .. . ... ... : ... .. D P86 ...
ROW 32 : ... .. . ... ... ... : ... .. 2 ... ... ... : E-2 00 . ... : ... .. 6 ... : ... .. . ... ... : ... .. . ... ... : ... .. . ... ... : D#4 01 8 P80 ...
ROW 33 : ... .. A ... ... ... : ... .. 1 ... ... ... : D#2 00 . ... : ... .. 3 ... : ... .. . ... ... : ... .. . ... ... : ... .. . ... ... : E-4 01 8 P7C ...
ROW 34 : ... .. 8 ... ... ... : ... .. . ... ... ... : A#1 00 . ... : ... .. 2 ... : ... .. . ... ... : ... .. 7 ... ... : ... .. . ... ... : ... .. . P83 ...
ROW 35 : ... .. 7 ... ... ... : ... .. 0 ... ... ... : ... .. . ... : ... .. 0 ... : ... .. . ... ... : ... .. . ... ... : ... .. . ... ... : ... .. . ... ...
ROW 36 : A#2 00 D ... ... ... : E-5 00 6 P80 ... ... : ... .. . ... : ... .. F ... : ... .. . ... ... : A#3 01 9 ... ... : ... .. . ... ... : ... .. . P82 ...
ROW 37 : ... .. B ... ... ... : ... .. 4 ... ... ... : ... .. . ... : ... .. C ... : ... .. . ... ... : ... .. 8 ... ... : ... .. . ... ... : ... .. . P80 ...
ROW 38 : ... .. . ... ... ... : ... .. 2 ... ... ... : ... .. . ... : ... .. 6 ... : ... .. . ... ... : ... .. . ... ... : ... .. . ... ... : ... .. . P83 ...
ROW 39 : ... .. 0 ... ... ... : ... .. 1 ... ... ... : ... .. . ... : ... .. 3 ... : ... .. . ... ... : --- .. . ... ... : ... .. . ... ... : F-4 01 8 P80 ...
ROW 3A : ... .. . ... ... ... : ... .. . ... ... ... : ... .. . ... : ... .. 2 ... : ... .. . ... ... : ... .. . ... ... : ... .. . ... ... : F#4 01 8 P7C ...
ROW 3B : ... .. . ... ... ... : ... .. 0 ... ... ... : ... .. . ... : ... .. 0 ... : ... .. . ... ... : ... .. . ... ... : ... .. . ... ... : ... .. . P7F ...
ROW 3C : A#2 00 D P80 ... ... : D#5 00 6 P80 ... ... : F-4 00 . ... : 8-# 00 F ... : ... .. . ... ... : A#3 01 9 ... ... : ... .. . ... ... : F-4 01 8 P85 ...
ROW 3D : ... .. B ... ... ... : ... .. 4 ... ... ... : ... .. . ... : ... .. C ... : ... .. . ... ... : ... .. 8 ... ... : ... .. . ... ... : ... .. . P7F ...
ROW 3E : ... .. . ... ... ... : ... .. 2 ... ... ... : ... .. . ... : ... .. 6 ... : ... .. . ... ... : ... .. . ... ... : ... .. . ... ... : E-4 01 8 P83 ...
ROW 3F : ... .. 0 ... ... ... : ... .. 1 ... ... ... : ... .. . ... : ... .. 3 ... : ... .. . ... ... : --- .. . ... ... : ... .. . ... ... : ... .. . ... ...
ROW 40 : ... .. . ... ... ... : ... .. . ... ... ... : ... .. . ... : ... .. 2 ... : ... .. . ... ... : ... .. . ... ... : ... .. . ... ... : F-4 01 8 P7F ...
ROW 41 : ... .. . ... ... ... : ... .. 0 ... ... ... : ... .. . ... : ... .. 0 ... : ... .. . ... ... : ... .. . ... ... : ... .. . ... ... : ... .. . P85 ...
ROW 42 : A#2 00 D P80 ... ... : D-5 00 6 P80 ... ... : ... .. . ... : ... .. F ... : ... .. . ... ... : A#3 01 9 ... ... : ... .. . ... ... : F#4 01 8 P7F ...
ROW 43 : ... .. B ... ... ... : ... .. 4 ... ... ... : ... .. . ... : ... .. C ... : ... .. . ... ... : ... .. 8 ... ... : ... .. . ... ... : ... .. . P7C ...
ROW 44 : ... .. . ... ... ... : ... .. 2 ... ... ... : ... .. . ... : ... .. 6 ... : ... .. . ... ... : ... .. . ... ... : ... .. . ... ... : F-4 01 8 P80 ...
ROW 45 : ... .. 0 ... ... ... : ... .. 1 ... ... ... : ... .. . ... : ... .. 3 ... : ... .. . ... ... : --- .. . ... ... : ... .. . ... ... : E-4 01 8 P83 ...
ROW 46 : ... .. . ... ... ... : ... .. . ... ... ... : ... .. . ... : ... .. 2 ... : ... .. . ... ... : ... .. . ... ... : ... .. . ... ... : ... .. . P82 ...
ROW 47 : ... .. . ... ... ... : ... .. 0 ... ... ... : ... .. . ... : ... .. 0 ... : ... .. . ... ... : ... .. . ... ... : ... .. . ... ... : F-4 01 8 P7E ...
ROW 48 : A-2 00 D P80 ... ... : C#5 00 6 P80 ... ... : A-3 00 . ... : 6-# 00 F ... : ... .. . ... ... : A-3 01 9 ... ... : ... .. . ... ... : F#4 01 8 ... ...
ROW 49 : ... .. B ... ... ... : ... .. 4 ... ... ... : B-2 00 . ... : ... .. C ... : ... .. . ... ... : ... .. 8 ... ... : ... .. . ... ... : G-4 01 8 P7C ...
ROW 4A : ... .. . ... ... ... : ... .. 2 ... ... ... : E-2 00 . ... : ... .. 6 ... : ... .. . ... ... : ... .. . ... ... : ... .. . ... ... : F#4 01 8 P82 ...
ROW 4B : ... .. A ... ... ... : ... .. 1 ... ... ... : D#2 00 . ... : ... .. 3 ... : ... .. . ... ... : ... .. . ... ... : ... .. . ... ... : F-4 01 8 P80 ...
ROW 4C : ... .. 8 ... ... ... : ... .. . ... ... ... : A#1 00 . ... : ... .. 2 ... : ... .. . ... ... : ... .. 7 ... ... : ... .. . ... ... : E-4 01 8 P7E ...
ROW 4D : ... .. 7 ... ... ... : ... .. 0 ... ... ... : ... .. . ... : ... .. 0 ... : ... .. . ... ... : ... .. . ... ... : ... .. . ... ... : ... .. . P7B ...
ROW 4E : A#2 00 D ... ... ... : C-5 00 6 P80 ... ... : ... .. . ... : ... .. F ... : ... .. . ... ... : A#3 01 9 ... ... : ... .. . ... ... : ... .. . P85 ...
ROW 4F : ... .. B ... ... ... : ... .. 4 ... ... ... : ... .. . ... : ... .. C ... : ... .. . ... ... : ... .. 8 ... ... : ... .. . ... ... : F#4 01 8 P7C ...
ROW 50 : ... .. . ... ... ... : ... .. 2 ... ... ... : ... .. . ... : ... .. 6 ... : ... .. . ... ... : ... .. . ... ... : ... .. . ... ... : G-4 01 8 ... ...
ROW 51 : ... .. 0 ... ... ... : ... .. 1 ... ... ... : ... .. . ... : ... .. 3 ... : ... .. . ... ... : --- .. . ... ... : ... .. . ... ... : F#4 01 8 P83 ...
ROW 52 : ... .. . ... ... ... : ... .. . ... ... ... : ... .. . ... : ... .. 2 ... : ... .. . ... ... : ... .. . ... ... : ... .. . ... ... : F-4 01 8 P80 ...
ROW 53 : ... .. . ... ... ... : ... .. 0 ... ... ... : ... .. . ... : ... .. 0 ... : ... .. . ... ... : ... .. . ... ... : ... .. . ... ... : E-4 01 8 P7F ...
ROW 54 : A#2 00 D P80 ... ... : B-4 00 6 P80 ... ... : F-4 00 . ... : 4-# 00 F ... : ... .. . ... ... : A#3 01 9 ... ... : ... .. . ... ... : ... .. . P7B ...
ROW 55 : ... .. B ... ... ... : ... .. 4 ... ... ... : ... .. . ... : ... .. C ... : ... .. . ... ... : ... .. 8 ... ... : ... .. . ... ... : ... .. . P83 ...
ROW 56 : ... .. . ... ... ... : ... .. 2 ... ... ... : ... .. . ... : ... .. 6 ... : ... .. . ... ... : ... .. . ... ... : ... .. . ... ... : F-4 01 8 P84 ...
ROW 57 : ... .. 0 ... ... ... : ... .. 1 ... ... ... : ... .. . ... : ... .. 3 ... : ... .. . ... ... : --- .. . ... ... : ... .. . ... ... : --- .. . ... ...
ROW 58 : ... .. . ... ... ... : ... .. . ... ... ... : ... .. . ... : ... .. 2 ... : ... .. . ... ... : ... .. . ... ... : ... .. . ... ... : ... .. . ... ...
ROW 59 : ... .. . ... ... ... : ... .. 0 ... ... ... : ... .. . ... : ... .. 0 ... : ... .. . ... ... : ... .. . ... ... : ... .. . ... ... : ... .. . ... ...
ROW 5A : A#2 00 D P80 ... ... : A#4 00 6 P80 ... ... : ... .. . ... : ... .. F ... : ... .. . ... ... : A#3 01 9 ... ... : ... .. . ... ... : ... .. . ... ...
ROW 5B : ... .. B ... ... ... : ... .. 4 ... ... ... : ... .. . ... : ... .. C ... : ... .. . ... ... : ... .. 8 ... ... : ... .. . ... ... : ... .. . ... ...
ROW 5C : ... .. . ... ... ... : ... .. 2 ... ... ... : ... .. . ... : ... .. 6 ... : ... .. . ... ... : ... .. . ... ... : ... .. . ... ... : ... .. . ... ...
ROW 5D : ... .. 0 ... ... ... : ... .. 1 ... ... ... : ... .. . ... : ... .. 3 ... : ... .. . ... ... : --- .. . ... ... : ... .. . ... ... : ... .. . ... ...
ROW 5E : ... .. . ... ... ... : ... .. . ... ... ... : ... .. . ... : ... .. 2 ... : ... .. . ... ... : ... .. . ... ... : ... .. . ... ... : ... .. . ... ...
ROW 5F : ... .. . ... ... ... : ... .. 0 ... ... ... : ... .. . ... : ... .. 0 ... : ... .. . ... ... : ... .. . ... ... : ... .. . ... ... : ... .. . ... ...
ROW 60 : D-2 00 F P81 ... ... : D-5 00 8 P80 ... ... : C#4 00 . ... : B-# 00 D ... : ... .. . ... ... : ... .. . ... ... : ... .. . ... ... : D-3 01 F P80 ...
ROW 61 : ... .. E ... ... ... : ... .. 6 ... ... ... : D#3 00 . ... : ... .. B ... : ... .. . ... ... : ... .. . ... ... : ... .. . ... ... : ... .. D P7F ...
ROW 62 : ... .. D ... ... ... : ... .. 3 ... ... ... : G#2 00 . ... : ... .. . ... : ... .. . ... ... : ... .. . ... ... : ... .. . ... ... : ... .. 8 P7E ...
ROW 63 : ... .. A ... ... ... : ... .. 1 ... ... ... : G-2 00 . ... : ... .. A ... : ... .. . ... ... : ... .. . ... ... : ... .. . ... ... : ... .. . P7F ...
ROW 64 : ... .. . ... ... ... : ... .. . ... ... ... : D-2 00 . ... : ... .. 8 ... : ... .. . ... ... : ... .. . ... ... : ... .. . ... ... : ... .. . P80 ...
ROW 65 : ... .. . ... ... ... : ... .. 0 ... ... ... : ... .. . ... : ... .. 7 ... : ... .. . ... ... : ... .. . ... ... : ... .. . ... ... : ... .. . P82 ...
ROW 66 : ... .. . ... ... ... : D#5 00 8 P80 ... ... : ... .. . ... : ... .. 6 ... : ... .. . ... ... : ... .. . ... ... : ... .. . ... ... : ... .. . ... ...
ROW 67 : ... .. . ... ... ... : ... .. 6 ... ... ... : ... .. . ... : ... .. . ... : ... .. . ... ... : ... .. . ... ... : ... .. . ... ... : ... .. . P80 ...
ROW 68 : ... .. . ... ... ... : ... .. 3 ... ... ... : ... .. . ... : ... .. 5 ... : ... .. . ... ... : ... .. . ... ... : ... .. . ... ... : ... .. . P7F ...
ROW 69 : ... .. . ... ... ... : ... .. 1 ... ... ... : ... .. . ... : ... .. . ... : ... .. . ... ... : ... .. . ... ... : ... .. . ... ... : ... .. . P7E ...
ROW 6A : ... .. . ... ... ... : ... .. . ... ... ... : ... .. . ... : ... .. 4 ... : ... .. . ... ... : ... .. . ... ... : ... .. . ... ... : ... .. . P7F ...
ROW 6B : ... .. . ... ... ... : ... .. 0 ... ... ... : --- .. . ... : ... .. . ... : ... .. . ... ... : ... .. . ... ... : ... .. . ... ... : ... .. . P80 ...
ROW 6C : ... .. . ... ... ... : D-5 00 8 P80 ... ... : C-4 00 . ... : D-# 00 F ... : ... .. . ... ... : A-3 01 9 ... ... : C-3 01 9 ... ... : ... .. . P81 ...
ROW 6D : ... .. . ... ... ... : ... .. 6 ... ... ... : ... .. . ... : ... .. C ... : ... .. . ... ... : ... .. 8 ... ... : ... .. 8 ... ... : ... .. . P82 ...
ROW 6E : ... .. . ... ... ... : ... .. 3 ... ... ... : ... .. . ... : ... .. 6 ... : ... .. . ... ... : ... .. . ... ... : ... .. . ... ... : ... .. . P80 ...
ROW 6F : ... .. . ... ... ... : ... .. 1 ... ... ... : ... .. . ... : ... .. 3 ... : ... .. . ... ... : --- .. . ... ... : --- .. . P7E ... : ... .. . ... ...
ROW 70 : ... .. . ... ... ... : ... .. . ... ... ... : ... .. . ... : ... .. 2 ... : ... .. . ... ... : ... .. . ... ... : ... .. . ... ... : ... .. . P7E ...
ROW 71 : ... .. . ... ... ... : ... .. 0 ... ... ... : --- .. . ... : ... .. 0 ... : ... .. . ... ... : ... .. . ... ... : ... .. . ... ... : ... .. . P7F ...
ROW 72 : E-2 00 F ... ... ... : D#5 00 8 P80 ... ... : C-4 00 . ... : ... .. F ... : ... .. . ... ... : A-3 01 9 ... ... : C-3 01 9 P80 ... : E-3 01 F P80 ...
ROW 73 : ... .. E ... ... ... : ... .. 6 ... ... ... : ... .. . ... : ... .. C ... : ... .. . ... ... : ... .. 8 ... ... : ... .. 8 ... ... : ... .. D P81 ...
ROW 74 : ... .. D ... ... ... : ... .. 3 ... ... ... : ... .. . ... : ... .. 6 ... : ... .. . ... ... : ... .. . ... ... : ... .. . ... ... : ... .. 8 P82 ...
ROW 75 : ... .. 0 ... ... ... : ... .. 1 ... ... ... : ... .. . ... : ... .. 3 ... : ... .. . ... ... : ... .. . ... ... : ... .. . ... ... : --- .. . P7F ...
ROW 76 : ... .. . ... ... ... : ... .. . ... ... ... : ... .. . ... : ... .. 2 ... : ... .. . ... ... : ... .. 7 ... ... : ... .. 7 ... ... : ... .. . ... ...
ROW 77 : ... .. . ... ... ... : ... .. 0 ... ... ... : --- .. . ... : ... .. 0 ... : ... .. . ... ... : ... .. . ... ... : ... .. . ... ... : ... .. . ... ...
ROW 78 : F#2 00 F P81 ... ... : D-5 00 8 P80 ... ... : C#4 00 . ... : B-# 00 D ... : ... .. . ... ... : ... .. . ... ... : ... .. . ... ... : F#3 01 F P7E ...
ROW 79 : ... .. E ... ... ... : ... .. 6 ... ... ... : D#3 00 . ... : ... .. B ... : ... .. . ... ... : ... .. 6 ... ... : ... .. 6 ... ... : ... .. D P80 ...
ROW 7A : ... .. D ... ... ... : ... .. 3 ... ... ... : G#2 00 . ... : ... .. . ... : ... .. . ... ... : ... .. . ... ... : ... .. . ... ... : ... .. 8 P81 ...
ROW 7B : ... .. A ... ... ... : ... .. 1 ... ... ... : G-2 00 . ... : ... .. A ... : ... .. . ... ... : --- .. . ... ... : --- .. . P7E ... : ... .. . P82 ...
ROW 7C : ... .. . ... ... ... : ... .. . ... ... ... : D-2 00 . ... : ... .. 8 ... : ... .. . ... ... : ... .. . ... ... : ... .. . ... ... : ... .. . P81 ...
ROW 7D : ... .. . ... ... ... : ... .. 0 ... ... ... : ... .. . ... : ... .. 7 ... : ... .. . ... ... : ... .. . ... ... : ... .. . ... ... : ... .. . P80 ...
ROW 7E : ... .. . ... ... ... : D#5 00 8 P80 ... ... : ... .. . ... : ... .. 6 ... : ... .. . ... ... : ... .. . ... ... : ... .. . ... ... : ... .. . P7E ...
ROW 7F : ... .. 2 ... ... ... : ... .. 6 ... ... ... : ... .. . ... : ... .. . ... : ... .. . ... ... : ... .. . ... ... : ... .. . ... ... : ... .. 4 ... ...
ROW 80 : ... .. . ... ... ... : ... .. 3 ... ... ... : ... .. . ... : ... .. 5 ... : ... .. . ... ... : ... .. . ... ... : ... .. . ... ... : ... .. . P80 ...
ROW 81 : ... .. . ... ... ... : ... .. 1 ... ... ... : ... .. . ... : ... .. . ... : ... .. . ... ... : ... .. . ... ... : ... .. . ... ... : ... .. 1 P81 ...
ROW 82 : ... .. 1 ... ... ... : ... .. . ... ... ... : ... .. . ... : ... .. 4 ... : ... .. . ... ... : ... .. . ... ... : ... .. . ... ... : ... .. . P82 ...
ROW 83 : ... .. . ... ... ... : ... .. 0 ... ... ... : --- .. . ... : ... .. . ... : ... .. . ... ... : ... .. . ... ... : ... .. . ... ... : ... .. . P81 ...
ROW 84 : D-2 00 F ... ... ... : D-5 00 8 P80 ... ... : C-4 00 . ... : D-# 00 F ... : ... .. . ... ... : A-3 01 9 ... ... : C-3 01 9 P80 ... : D-3 01 F P80 ...
ROW 85 : ... .. E ... ... ... : ... .. 6 ... ... ... : ... .. . ... : ... .. C ... : ... .. . ... ... : ... .. 8 ... ... : ... .. 8 ... ... : ... .. D P7E ...
ROW 86 : ... .. D ... ... ... : ... .. 3 ... ... ... : ... .. . ... : ... .. 6 ... : ... .. . ... ... : ... .. . ... ... : ... .. . ... ... : ... .. 8 ... ...
ROW 87 : ... .. A ... ... ... : ... .. 1 ... ... ... : ... .. . ... : ... .. 3 ... : ... .. . ... ... : --- .. . ... ... : --- .. . P7E ... : ... .. . P80 ...
ROW 88 : ... .. . ... ... ... : ... .. . ... ... ... : ... .. . ... : ... .. 2 ... : ... .. . ... ... : ... .. . ... ... : ... .. . ... ... : ... .. . P81 ...
ROW 89 : ... .. . ... ... ... : ... .. 0 ... ... ... : --- .. . ... : ... .. 0 ... : ... .. . ... ... : ... .. . ... ... : ... .. . ... ... : ... .. . P82 ...
ROW 8A : ... .. 0 ... ... ... : C-5 00 8 P80 ... ... : C-4 00 . ... : ... .. F ... : ... .. . ... ... : A-3 01 9 ... ... : C-3 01 9 P80 ... : --- .. . P7C ...
ROW 8B : ... .. . ... ... ... : ... .. 6 ... ... ... : ... .. . ... : ... .. C ... : ... .. . ... ... : ... .. 8 ... ... : ... .. 8 ... ... : ... .. . ... ...
ROW 8C : ... .. . ... ... ... : ... .. 3 ... ... ... : ... .. . ... : ... .. 6 ... : ... .. . ... ... : ... .. . ... ... : ... .. . ... ... : ... .. . ... ...
ROW 8D : ... .. . ... ... ... : ... .. 1 ... ... ... : ... .. . ... : ... .. 3 ... : ... .. . ... ... : ... .. . ... ... : ... .. . ... ... : ... .. . ... ...
ROW 8E : ... .. . ... ... ... : ... .. . ... ... ... : ... .. . ... : ... .. 2 ... : ... .. . ... ... : ... .. 7 ... ... : ... .. 7 ... ... : ... .. . ... ...
ROW 8F : ... .. . ... ... ... : ... .. 0 ... ... ... : --- .. . ... : ... .. 0 ... : ... .. . ... ... : ... .. . ... ... : ... .. . ... ... : ... .. . ... ...
ROW 90 : G-2 00 F P81 ... ... : A#4 00 8 P80 ... ... : F#4 00 . ... : B-# 00 D ... : ... .. . ... ... : ... .. . ... ... : ... .. . ... ... : G-3 01 F P82 ...
ROW 91 : ... .. E ... ... ... : ... .. 6 ... ... ... : G#3 00 . ... : ... .. B ... : ... .. . ... ... : ... .. 6 ... ... : ... .. 6 ... ... : ... .. D P81 ...
ROW 92 : ... .. D ... ... ... : ... .. 3 ... ... ... : C#3 00 . ... : ... .. . ... : ... .. . ... ... : ... .. . ... ... : ... .. . ... ... : ... .. 8 P80 ...
ROW 93 : ... .. A ... ... ... : ... .. 1 ... ... ... : C-3 00 . ... : ... .. A ... : ... .. . ... ... : --- .. . ... ... : --- .. . P7E ... : ... .. . P7F ...
ROW 94 : ... .. . ... ... ... : ... .. . ... ... ... : G-2 00 . ... : ... .. 8 ... : ... .. . ... ... : ... .. . ... ... : ... .. . ... ... : ... .. . P7E ...
ROW 95 : ... .. . ... ... ... : ... .. 0 ... ... ... : ... .. . ... : ... .. 7 ... : ... .. . ... ... : ... .. . ... ... : ... .. . ... ... : ... .. . P7F ...
ROW 96 : F#2 00 F ... ... ... : C-5 00 8 P80 ... ... : ... .. . ... : ... .. 6 ... : ... .. . ... ... : ... .. . ... ... : ... .. . ... ... : F#3 01 F P80 ...
ROW 97 : ... .. E ... ... ... : ... .. 6 ... ... ... : ... .. . ... : ... .. . ... : ... .. . ... ... : ... .. . ... ... : ... .. . ... ... : ... .. D P82 ...
ROW 98 : ... .. D ... ... ... : ... .. 3 ... ... ... : ... .. . ... : ... .. 5 ... : ... .. . ... ... : ... .. . ... ... : ... .. . ... ... : ... .. 8 ... ...
ROW 99 : ... .. 0 ... ... ... : ... .. 1 ... ... ... : ... .. . ... : ... .. . ... : ... .. . ... ... : ... .. . ... ... : ... .. . ... ... : --- .. . P7E ...
ROW 9A : ... .. . ... ... ... : ... .. . ... ... ... : ... .. . ... : ... .. 4 ... : ... .. . ... ... : ... .. . ... ... : ... .. . ... ... : ... .. . ... ...
ROW 9B : ... .. . ... ... ... : ... .. 0 ... ... ... : --- .. . ... : ... .. . ... : ... .. . ... ... : ... .. . ... ... : ... .. . ... ... : ... .. . ... ...
ROW 9C : G-2 00 F P81 ... ... : A#4 00 8 P80 ... ... : A#3 00 . ... : ... .. D ... : ... .. . ... ... : G-3 01 9 ... ... : A#2 01 9 P80 ... : G-3 01 F P7F ...
ROW 9D : ... .. E ... ... ... : ... .. 6 ... ... ... : ... .. . ... : ... .. B ... : ... .. . ... ... : ... .. 8 ... ... : ... .. 8 ... ... : ... .. D P80 ...
ROW 9E : ... .. D ... ... ... : ... .. 3 ... ... ... : ... .. . ... : ... .. . ... : ... .. . ... ... : ... .. . ... ... : ... .. . ... ... : ... .. 8 P82 ...
ROW 9F : ... .. 0 ... ... ... : ... .. 1 ... ... ... : ... .. . ... : ... .. A ... : ... .. . ... ... : --- .. . P81 ... : --- .. . P82 ... : --- .. . P81 ...
ROW A0 : ... .. . ... ... ... : ... .. . ... ... ... : ... .. . ... : ... .. 8 ... : ... .. . ... ... : ... .. . ... ... : ... .. . ... ... : ... .. . ... ...
ROW A1 : ... .. . ... ... ... : ... .. 0 ... ... ... : --- .. . ... : ... .. 7 ... : ... .. . ... ... : ... .. . ... ... : ... .. . ... ... : ... .. . ... ...
ROW A2 : A-2 00 F P81 ... ... : C-5 00 8 P80 ... ... : A#3 00 . ... : ... .. 6 ... : ... .. . ... ... : G-3 01 9 P80 ... : A#2 01 9 P80 ... : A-3 01 F P7E ...
ROW A3 : ... .. E ... ... ... : ... .. 6 ... ... ... : ... .. . ... : ... .. . ... : ... .. . ... ... : ... .. 8 ... ... : ... .. 8 ... ... : ... .. D P7F ...
ROW A4 : ... .. D ... ... ... : ... .. 3 ... ... ... : ... .. . ... : ... .. 5 ... : ... .. . ... ... : ... .. . ... ... : ... .. . ... ... : ... .. 8 P80 ...
ROW A5 : ... .. 0 ... ... ... : ... .. 1 ... ... ... : ... .. . ... : ... .. . ... : ... .. . ... ... : ... .. . ... ... : ... .. . ... ... : --- .. . P81 ...
ROW A6 : ... .. . ... ... ... : ... .. . ... ... ... : ... .. . ... : ... .. 4 ... : ... .. . ... ... : ... .. 7 ... ... : ... .. 7 ... ... : ... .. . ... ...
ROW A7 : ... .. . ... ... ... : ... .. 0 ... ... ... : --- .. . ... : ... .. . ... : ... .. . ... ... : ... .. . ... ... : ... .. . ... ... : ... .. . ... ...
ROW A8 : A#2 00 F P81 ... ... : A#4 00 8 P80 ... ... : F#4 00 . ... : ... .. D ... : ... .. . ... ... : ... .. . ... ... : ... .. . ... ... : A#3 01 F P7F ...
ROW A9 : ... .. E ... ... ... : ... .. 6 ... ... ... : G#3 00 . ... : ... .. B ... : ... .. . ... ... : ... .. 6 ... ... : ... .. 6 ... ... : ... .. D P7E ...
ROW AA : ... .. D ... ... ... : ... .. 3 ... ... ... : C#3 00 . ... : ... .. . ... : ... .. . ... ... : ... .. . ... ... : ... .. . ... ... : ... .. 8 P7F ...
ROW AB : ... .. A ... ... ... : ... .. 1 ... ... ... : C-3 00 . ... : ... .. A ... : ... .. . ... ... : --- .. . P81 ... : --- .. . P82 ... : ... .. . P80 ...
ROW AC : ... .. . ... ... ... : ... .. . ... ... ... : G-2 00 . ... : ... .. 8 ... : ... .. . ... ... : ... .. . ... ... : ... .. . ... ... : ... .. . P81 ...
ROW AD : ... .. . ... ... ... : ... .. 0 ... ... ... : ... .. . ... : ... .. 7 ... : ... .. . ... ... : ... .. . ... ... : ... .. . ... ... : ... .. . P82 ...
ROW AE : ... .. . ... ... ... : A-4 00 8 P80 ... ... : ... .. . ... : ... .. 6 ... : ... .. . ... ... : ... .. . ... ... : ... .. . ... ... : ... .. . P80 ...
ROW AF : ... .. . ... ... ... : ... .. 6 ... ... ... : ... .. . ... : ... .. . ... : ... .. . ... ... : ... .. . ... ... : ... .. . ... ... : ... .. . ... ...
ROW B0 : ... .. . ... ... ... : ... .. 3 ... ... ... : ... .. . ... : ... .. 5 ... : ... .. . ... ... : ... .. . ... ... : ... .. . ... ... : ... .. . P7E ...
ROW B1 : ... .. 0 ... ... ... : ... .. 1 ... ... ... : ... .. . ... : ... .. . ... : ... .. . ... ... : ... .. . ... ... : ... .. . ... ... : --- .. . P80 ...
ROW B2 : ... .. . ... ... ... : ... .. . ... ... ... : ... .. . ... : ... .. 4 ... : ... .. . ... ... : ... .. . ... ... : ... .. . ... ... : ... .. . ... ...
ROW B3 : ... .. . ... ... ... : ... .. 0 ... ... ... : --- .. . ... : ... .. . ... : ... .. . ... ... : ... .. . ... ... : ... .. . ... ... : ... .. . ... ...
ROW B4 : G-2 00 F P81 ... ... : A#4 00 8 P80 ... ... : A#3 00 . ... : D-# 00 F ... : ... .. . ... ... : G-3 01 9 P80 ... : A#2 01 9 P80 ... : G-3 01 F P82 ...
ROW B5 : ... .. E ... ... ... : ... .. 6 ... ... ... : ... .. . ... : ... .. C ... : ... .. . ... ... : ... .. 8 ... ... : ... .. 8 ... ... : ... .. D P81 ...
ROW B6 : ... .. D ... ... ... : ... .. 3 ... ... ... : ... .. . ... : ... .. 6 ... : ... .. . ... ... : ... .. . ... ... : ... .. . ... ... : ... .. 8 P80 ...
ROW B7 : ... .. A ... ... ... : ... .. 1 ... ... ... : ... .. . ... : ... .. 3 ... : ... .. . ... ... : --- .. . P81 ... : --- .. . P82 ... : ... .. . P7E ...
ROW B8 : ... .. . ... ... ... : ... .. . ... ... ... : ... .. . ... : ... .. 2 ... : ... .. . ... ... : ... .. . ... ... : ... .. . ... ... : ... .. . ... ...
ROW B9 : ... .. . ... ... ... : ... .. 0 ... ... ... : --- .. . ... : ... .. 0 ... : ... .. . ... ... : ... .. . ... ... : ... .. . ... ... : ... .. . P80 ...
ROW BA : ... .. . ... ... ... : C-5 00 8 P80 ... ... : A#3 00 . ... : ... .. F ... : ... .. . ... ... : G-3 01 9 P80 ... : A#2 01 9 P80 ... : ... .. . P81 ...
ROW BB : ... .. . ... ... ... : ... .. 6 ... ... ... : ... .. . ... : ... .. C ... : ... .. . ... ... : ... .. 8 ... ... : ... .. 8 ... ... : ... .. . P82 ...
ROW BC : ... .. . ... ... ... : ... .. 3 ... ... ... : ... .. . ... : ... .. 6 ... : ... .. . ... ... : ... .. . ... ... : ... .. . ... ... : ... .. . P81 ...
ROW BD : ... .. 0 ... ... ... : ... .. 1 ... ... ... : ... .. . ... : ... .. 3 ... : ... .. . ... ... : ... .. . ... ... : ... .. . ... ... : --- .. . P80 ...
ROW BE : ... .. . ... ... ... : ... .. . ... ... ... : ... .. . ... : ... .. 2 ... : ... .. . ... ... : ... .. 7 ... ... : ... .. 7 ... ... : ... .. . ... ...
ROW BF : ... .. . ... ... ... : ... .. 0 ... ... ... : --- .. . ... : ... .. 0 ... : ... .. . ... ... : ... .. . ... ... : ... .. . ... ... : ... .. . ... ...
ROW C0 : D-2 00 F P81 ... ... : D-5 00 8 P80 ... ... : C#4 00 . ... : B-# 00 D ... : ... .. . ... ... : ... .. . ... ... : ... .. . ... ... : D-3 01 F ... ...
ROW C1 : ... .. E ... ... ... : ... .. 6 ... ... ... : D#3 00 . ... : ... .. B ... : ... .. . ... ... : ... .. 6 ... ... : ... .. 6 ... ... : ... .. D P81 ...
ROW C2 : ... .. D ... ... ... : ... .. 3 ... ... ... : G#2 00 . ... : ... .. . ... : ... .. . ... ... : ... .. . ... ... : ... .. . ... ... : ... .. 8 P82 ...
ROW C3 : ... .. A ... ... ... : ... .. 1 ... ... ... : G-2 00 . ... : ... .. A ... : ... .. . ... ... : --- .. . P81 ... : --- .. . P82 ... : ... .. . P81 ...
ROW C4 : ... .. . ... ... ... : ... .. . ... ... ... : D-2 00 . ... : ... .. 8 ... : ... .. . ... ... : ... .. . ... ... : ... .. . ... ... : ... .. . P80 ...
ROW C5 : ... .. . ... ... ... : ... .. 0 ... ... ... : ... .. . ... : ... .. 7 ... : ... .. . ... ... : ... .. . ... ... : ... .. . ... ... : ... .. . P7E ...
ROW C6 : ... .. . ... ... ... : D#5 00 8 P80 ... ... : ... .. . ... : ... .. 6 ... : ... .. . ... ... : ... .. . ... ... : ... .. . ... ... : ... .. . ... ...
ROW C7 : ... .. . ... ... ... : ... .. 6 ... ... ... : ... .. . ... : ... .. . ... : ... .. . ... ... : ... .. . ... ... : ... .. . ... ... : ... .. . P80 ...
ROW C8 : ... .. . ... ... ... : ... .. 3 ... ... ... : ... .. . ... : ... .. 5 ... : ... .. . ... ... : ... .. . ... ... : ... .. . ... ... : ... .. . P81 ...
ROW C9 : ... .. . ... ... ... : ... .. 1 ... ... ... : ... .. . ... : ... .. . ... : ... .. . ... ... : ... .. . ... ... : ... .. . ... ... : ... .. . P82 ...
ROW CA : ... .. . ... ... ... : ... .. . ... ... ... : ... .. . ... : ... .. 4 ... : ... .. . ... ... : ... .. . ... ... : ... .. . ... ... : ... .. . P81 ...
ROW CB : ... .. . ... ... ... : ... .. 0 ... ... ... : --- .. . ... : ... .. . ... : ... .. . ... ... : ... .. . ... ... : ... .. . ... ... : ... .. . P80 ...
ROW CC : ... .. . ... ... ... : D-5 00 8 P80 ... ... : C-4 00 . ... : D-# 00 F ... : ... .. . ... ... : F#3 01 9 P80 ... : C-3 01 9 P80 ... : ... .. . P7F ...
ROW CD : ... .. . ... ... ... : ... .. 6 ... ... ... : ... .. . ... : ... .. C ... : ... .. . ... ... : ... .. 8 ... ... : ... .. 8 ... ... : ... .. . P7E ...
ROW CE : ... .. . ... ... ... : ... .. 3 ... ... ... : ... .. . ... : ... .. 6 ... : ... .. . ... ... : ... .. . ... ... : ... .. . ... ... : ... .. . P80 ...
ROW CF : ... .. 0 ... ... ... : ... .. 1 ... ... ... : ... .. . ... : ... .. 3 ... : ... .. . ... ... : --- .. . P7F ... : --- .. . P7E ... : --- .. . P84 ...
ROW D0 : ... .. . ... ... ... : ... .. . ... ... ... : ... .. . ... : ... .. 2 ... : ... .. . ... ... : ... .. . ... ... : ... .. . ... ... : ... .. . ... ...
ROW D1 : ... .. . ... ... ... : ... .. 0 ... ... ... : --- .. . ... : ... .. 0 ... : ... .. . ... ... : ... .. . ... ... : ... .. . ... ... : ... .. . ... ...
ROW D2 : E-2 00 F P81 ... ... : D#5 00 8 P80 ... ... : C-4 00 . ... : ... .. F ... : ... .. . ... ... : F#3 01 9 P80 ... : C-3 01 9 P80 ... : E-3 01 F P80 ...
ROW D3 : ... .. E ... ... ... : ... .. 6 ... ... ... : ... .. . ... : ... .. C ... : ... .. . ... ... : ... .. 8 ... ... : ... .. 8 ... ... : ... .. D P7F ...
ROW D4 : ... .. D ... ... ... : ... .. 3 ... ... ... : ... .. . ... : ... .. 6 ... : ... .. . ... ... : ... .. . ... ... : ... .. . ... ... : ... .. 8 P7E ...
ROW D5 : ... .. 0 ... ... ... : ... .. 1 ... ... ... : ... .. . ... : ... .. 3 ... : ... .. . ... ... : ... .. . ... ... : ... .. . ... ... : --- .. . P83 ...
ROW D6 : ... .. . ... ... ... : ... .. . ... ... ... : ... .. . ... : ... .. 2 ... : ... .. . ... ... : ... .. 7 ... ... : ... .. 7 ... ... : ... .. . ... ...
ROW D7 : ... .. . ... ... ... : ... .. 0 ... ... ... : --- .. . ... : ... .. 0 ... : ... .. . ... ... : ... .. . ... ... : ... .. . ... ... : ... .. . ... ...
ROW D8 : F#2 00 F P81 ... ... : D-5 00 8 P80 ... ... : C#4 00 . ... : B-# 00 D ... : ... .. . ... ... : ... .. . ... ... : ... .. . ... ... : F#3 01 F P82 ...
ROW D9 : ... .. E ... ... ... : ... .. 6 ... ... ... : D#3 00 . ... : ... .. B ... : ... .. . ... ... : ... .. 6 ... ... : ... .. 6 ... ... : ... .. D P80 ...
ROW DA : ... .. D ... ... ... : ... .. 3 ... ... ... : G#2 00 . ... : ... .. . ... : ... .. . ... ... : ... .. . ... ... : ... .. . ... ... : ... .. 8 P7F ...
ROW DB : ... .. A ... ... ... : ... .. 1 ... ... ... : G-2 00 . ... : ... .. A ... : ... .. . ... ... : --- .. . P7F ... : --- .. . P7E ... : ... .. . P7E ...
ROW DC : ... .. . ... ... ... : ... .. . ... ... ... : D-2 00 . ... : ... .. 8 ... : ... .. . ... ... : ... .. . ... ... : ... .. . ... ... : ... .. . P7F ...
ROW DD : ... .. . ... ... ... : ... .. 0 ... ... ... : ... .. . ... : ... .. 7 ... : ... .. . ... ... : ... .. . ... ... : ... .. . ... ... : ... .. . P80 ...
ROW DE : ... .. . ... ... ... : D#5 00 8 P80 ... ... : ... .. . ... : ... .. 6 ... : ... .. . ... ... : ... .. . ... ... : ... .. . ... ... : ... .. . P82 ...
ROW DF : ... .. . ... ... ... : ... .. 6 ... ... ... : ... .. . ... : ... .. . ... : ... .. . ... ... : ... .. . ... ... : ... .. . ... ... : ... .. . ... ...
ROW E0 : ... .. . ... ... ... : ... .. 3 ... ... ... : ... .. . ... : ... .. 5 ... : ... .. . ... ... : ... .. . ... ... : ... .. . ... ... : ... .. . P80 ...
ROW E1 : ... .. . ... ... ... : ... .. 1 ... ... ... : ... .. . ... : ... .. . ... : ... .. . ... ... : ... .. . ... ... : ... .. . ... ... : ... .. . P7F ...
ROW E2 : ... .. . ... ... ... : ... .. . ... ... ... : ... .. . ... : ... .. 4 ... : ... .. . ... ... : ... .. . ... ... : ... .. . ... ... : ... .. . P7E ...
ROW E3 : ... .. . ... ... ... : ... .. 0 ... ... ... : --- .. . ... : ... .. . ... : ... .. . ... ... : ... .. . ... ... : ... .. . ... ... : ... .. . P7F ...
ROW E4 : A-2 00 F ... ... ... : D-5 00 8 P80 ... ... : C-4 00 . ... : D-# 00 F ... : ... .. . ... ... : F#3 01 9 P80 ... : C-3 01 9 P80 ... : A-3 01 F P80 ...
ROW E5 : ... .. E ... ... ... : ... .. 6 ... ... ... : ... .. . ... : ... .. C ... : ... .. . ... ... : ... .. 8 ... ... : ... .. 8 ... ... : ... .. D P82 ...
ROW E6 : ... .. D ... ... ... : ... .. 3 ... ... ... : ... .. . ... : ... .. 6 ... : ... .. . ... ... : ... .. . ... ... : ... .. . ... ... : ... .. 8 ... ...
ROW E7 : ... .. A ... ... ... : ... .. 1 ... ... ... : ... .. . ... : ... .. 3 ... : ... .. . ... ... : --- .. . P7F ... : --- .. . P7E ... : ... .. . P80 ...
ROW E8 : ... .. . ... ... ... : ... .. . ... ... ... : ... .. . ... : ... .. 2 ... : ... .. . ... ... : ... .. . ... ... : ... .. . ... ... : ... .. . P7F ...
ROW E9 : ... .. . ... ... ... : ... .. 0 ... ... ... : --- .. . ... : ... .. 0 ... : ... .. . ... ... : ... .. . ... ... : ... .. . ... ... : ... .. . P7E ...
ROW EA : ... .. . ... ... ... : C-5 00 8 P80 ... ... : C-4 00 . ... : ... .. F ... : ... .. . ... ... : F#3 01 9 P80 ... : C-3 01 9 P80 ... : ... .. . P7F ...
ROW EB : ... .. . ... ... ... : ... .. 6 ... ... ... : ... .. . ... : ... .. C ... : ... .. . ... ... : ... .. 8 ... ... : ... .. 8 ... ... : ... .. . P80 ...
ROW EC : ... .. . ... ... ... : ... .. 3 ... ... ... : ... .. . ... : ... .. 6 ... : ... .. . ... ... : ... .. . ... ... : ... .. . ... ... : ... .. . P81 ...
ROW ED : ... .. 0 ... ... ... : ... .. 1 ... ... ... : ... .. . ... : ... .. 3 ... : ... .. . ... ... : --- .. . P7F ... : ... .. . ... ... : --- .. . P80 ...
ROW EE : ... .. . ... ... ... : ... .. . ... ... ... : ... .. . ... : ... .. 2 ... : ... .. . ... ... : ... .. . ... ... : ... .. 7 ... ... : ... .. . ... ...
ROW EF : ... .. . ... ... ... : ... .. 0 ... ... ... : --- .. . ... : ... .. 0 ... : ... .. . ... ... : ... .. . ... ... : ... .. . ... ... : ... .. . ... ...
ROW F0 : A#2 00 F P81 ... ... : A#4 00 8 P80 ... ... : F#5 00 . ... : B-# 00 D ... : ... .. . ... ... : G#4 01 9 P80 ... : C#4 01 9 ... ... : A#3 01 F P7E ...
ROW F1 : ... .. E ... ... ... : ... .. 6 ... ... ... : G#4 00 . ... : ... .. B ... : ... .. . ... ... : ... .. 8 ... ... : ... .. 8 ... ... : ... .. D P7F ...
ROW F2 : ... .. D ... ... ... : ... .. 3 ... ... ... : C#4 00 . ... : ... .. . ... : ... .. . ... ... : ... .. . ... ... : ... .. . ... ... : ... .. 8 P80 ...
ROW F3 : ... .. A ... ... ... : ... .. 1 ... ... ... : C-4 00 . ... : ... .. A ... : ... .. . ... ... : ... .. . ... ... : ... .. . ... ... : ... .. . P81 ...
ROW F4 : ... .. . ... ... ... : ... .. . ... ... ... : G-3 00 . ... : ... .. 8 ... : ... .. . ... ... : A-4 01 7 P7D ... : ... .. 7 P85 ... : ... .. . P82 ...
ROW F5 : ... .. . ... ... ... : ... .. 0 ... ... ... : ... .. . ... : ... .. 7 ... : ... .. . ... ... : ... .. . P80 ... : D-4 01 7 P7E ... : ... .. . P81 ...
ROW F6 : ... .. . ... ... ... : A-4 00 8 P80 ... ... : ... .. . ... : ... .. 6 ... : ... .. . ... ... : ... .. . ... ... : ... .. . P80 ... : ... .. . P80 ...
ROW F7 : ... .. . ... ... ... : ... .. 6 ... ... ... : ... .. . ... : ... .. . ... : ... .. . ... ... : ... .. 6 ... ... : ... .. 6 ... ... : ... .. . P7E ...
ROW F8 : ... .. . ... ... ... : ... .. 3 ... ... ... : ... .. . ... : ... .. 5 ... : ... .. . ... ... : ... .. . ... ... : ... .. . ... ... : ... .. . ... ...
ROW F9 : ... .. . ... ... ... : ... .. 1 ... ... ... : ... .. . ... : ... .. . ... : ... .. . ... ... : ... .. . ... ... : ... .. . ... ... : ... .. . P80 ...
ROW FA : ... .. . ... ... ... : ... .. . ... ... ... : ... .. . ... : ... .. 4 ... : ... .. . ... ... : ... .. . ... ... : ... .. . ... ... : ... .. . P81 ...
ROW FB : ... .. . ... ... ... : ... .. 0 ... ... ... : ... .. . ... : ... .. . ... : ... .. . ... ... : ... .. . ... ... : ... .. . ... ... : ... .. . P82 ...
ROW FC : ... .. . ... ... ... : A#4 00 8 P80 ... ... : E-5 00 . ... : ... .. D ... : ... .. . ... ... : ... .. 9 ... ... : ... .. 9 ... ... : ... .. . P81 ...
ROW FD : ... .. . ... ... ... : ... .. 6 ... ... ... : F#4 00 . ... : ... .. B ... : ... .. . ... ... : ... .. 8 ... ... : ... .. 8 ... ... : ... .. . P80 ...
ROW FE : ... .. . ... ... ... : ... .. 3 ... ... ... : B-3 00 . ... : ... .. . ... : ... .. . ... ... : ... .. . ... ... : ... .. . ... ... : ... .. . P7E ...
ROW FF : ... .. . ... ... ... : ... .. 1 ... ... ... : A#3 00 . ... : ... .. A ... : ... .. . ... ... : ... .. . ... ... : ... .. . ... ... : ... .. . ... ...

PATTERN 04
ROW 00 : ... .. . ... ... ... : ... .. . ... ... ... : F-3 00 . ... : ... .. 8 ... : ... .. . ... ... : ... .. 7 ... ... : ... .. 7 ... ... : ... .. . P80 ...
ROW 01 : ... .. . ... ... ... : ... .. 0 ... ... ... : ... .. . ... : ... .. 7 ... : ... .. . ... ... : ... .. . ... ... : ... .. . ... ... : ... .. . P81 ...
ROW 02 : ... .. . ... ... ... : A-4 00 8 P80 ... ... : ... .. . ... : ... .. 6 ... : ... .. . ... ... : ... .. . ... ... : ... .. . ... ... : ... .. . P82 ...
ROW 03 : ... .. . ... ... ... : ... .. 6 ... ... ... : ... .. . ... : ... .. . ... : ... .. . ... ... : ... .. 6 ... ... : ... .. 6 ... ... : ... .. . P81 ...
ROW 04 : ... .. . ... ... ... : ... .. 3 ... ... ... : ... .. . ... : ... .. 5 ... : ... .. . ... ... : ... .. . ... ... : ... .. . ... ... : ... .. . P80 ...
ROW 05 : ... .. . ... ... ... : ... .. 1 ... ... ... : ... .. . ... : ... .. . ... : ... .. . ... ... : ... .. . ... ... : ... .. . ... ... : ... .. . P7E ...
ROW 06 : ... .. . ... ... ... : ... .. . ... ... ... : ... .. . ... : ... .. 4 ... : ... .. . ... ... : ... .. 5 ... ... : ... .. 5 ... ... : ... .. . ... ...
ROW 07 : ... .. . ... ... ... : ... .. 0 ... ... ... : ... .. . ... : ... .. . ... : ... .. . ... ... : ... .. . ... ... : ... .. . ... ... : ... .. . P80 ...
ROW 08 : G-2 00 F ... ... ... : A#4 00 8 P80 ... ... : D#5 00 . ... : ... .. D ... : ... .. . ... ... : D-4 01 9 ... ... : G-3 01 9 ... ... : G-3 01 F P81 ...
ROW 09 : ... .. E ... ... ... : ... .. 6 ... ... ... : F-4 00 . ... : ... .. B ... : ... .. . ... ... : ... .. 8 ... ... : ... .. 8 ... ... : ... .. D P82 ...
ROW 0A : ... .. D ... ... ... : ... .. 3 ... ... ... : A#3 00 . ... : ... .. . ... : ... .. . ... ... : ... .. . ... ... : ... .. . ... ... : ... .. 8 P81 ...
ROW 0B : ... .. A ... ... ... : ... .. 1 ... ... ... : A-3 00 . ... : ... .. A ... : ... .. . ... ... : ... .. . ... ... : ... .. . ... ... : ... .. . P80 ...
ROW 0C : ... .. . ... ... ... : ... .. . ... ... ... : E-3 00 . ... : ... .. 8 ... : ... .. . ... ... : ... .. 7 ... ... : ... .. 7 ... ... : ... .. . P7F ...
ROW 0D : ... .. . ... ... ... : ... .. 0 ... ... ... : ... .. . ... : ... .. 7 ... : ... .. . ... ... : ... .. . ... ... : ... .. . ... ... : ... .. . P7E ...
ROW 0E : ... .. . ... ... ... : A-4 00 8 P80 ... ... : ... .. . ... : ... .. 6 ... : ... .. . ... ... : ... .. . ... ... : ... .. . ... ... : ... .. . P80 ...
ROW 0F : F#2 00 F ... ... ... : ... .. 6 ... ... ... : ... .. . ... : ... .. . ... : ... .. . ... ... : ... .. 6 ... ... : ... .. 6 ... ... : F#3 01 F ... ...
ROW 10 : ... .. E ... ... ... : ... .. 3 ... ... ... : ... .. . ... : ... .. 5 ... : ... .. . ... ... : ... .. . ... ... : ... .. . ... ... : ... .. D P82 ...
ROW 11 : ... .. D ... ... ... : ... .. 1 ... ... ... : ... .. . ... : ... .. . ... : ... .. . ... ... : ... .. . ... ... : ... .. . ... ... : ... .. 8 P81 ...
ROW 12 : ... .. A ... ... ... : ... .. . ... ... ... : ... .. . ... : ... .. 4 ... : ... .. . ... ... : ... .. . ... ... : ... .. . ... ... : ... .. . P80 ...
ROW 13 : F-2 00 F ... ... ... : ... .. 0 ... ... ... : ... .. . ... : ... .. . ... : ... .. . ... ... : ... .. . ... ... : ... .. . ... ... : F-3 01 F P7F ...
ROW 14 : ... .. E ... ... ... : G-4 00 8 P80 ... ... : D-5 00 . ... : D-# 00 F ... : ... .. . ... ... : ... .. 9 ... ... : ... .. 9 ... ... : ... .. D P7E ...
ROW 15 : ... .. D ... ... ... : ... .. 6 ... ... ... : E-4 00 . ... : ... .. C ... : ... .. . ... ... : ... .. 8 ... ... : ... .. 8 ... ... : ... .. 8 P7F ...
ROW 16 : ... .. A ... ... ... : ... .. 3 ... ... ... : A-3 00 . ... : ... .. 6 ... : ... .. . ... ... : ... .. . ... ... : ... .. . ... ... : ... .. . P80 ...
ROW 17 : ... .. . ... ... ... : ... .. 1 ... ... ... : G#3 00 . ... : ... .. 3 ... : ... .. . ... ... : ... .. . ... ... : ... .. . ... ... : ... .. . P82 ...
ROW 18 : E-2 00 F ... ... ... : ... .. . ... ... ... : D#3 00 . ... : ... .. 2 ... : ... .. . ... ... : ... .. 7 ... ... : ... .. 7 ... ... : E-3 01 F ... ...
ROW 19 : ... .. E ... ... ... : ... .. 0 ... ... ... : ... .. . ... : ... .. 0 ... : ... .. . ... ... : ... .. . ... ... : ... .. . ... ... : ... .. D P80 ...
ROW 1A : ... .. D ... ... ... : ... .. . ... ... ... : ... .. . ... : ... .. F ... : ... .. . ... ... : ... .. . ... ... : ... .. . ... ... : ... .. 8 P7F ...
ROW 1B : ... .. A ... ... ... : ... .. . ... ... ... : ... .. . ... : ... .. C ... : ... .. . ... ... : ... .. 6 ... ... : ... .. 6 ... ... : ... .. . P7E ...
ROW 1C : D#2 00 F ... ... ... : ... .. . ... ... ... : ... .. . ... : ... .. 6 ... : ... .. . ... ... : ... .. . ... ... : ... .. . ... ... : D#3 01 F P7F ...
ROW 1D : ... .. E ... ... ... : ... .. . ... ... ... : ... .. . ... : ... .. 3 ... : ... .. . ... ... : --- .. . ... ... : --- .. . P81 ... : ... .. D P80 ...
ROW 1E : ... .. D ... ... ... : ... .. . ... ... ... : ... .. . ... : ... .. 2 ... : ... .. . ... ... : ... .. . ... ... : ... .. . ... ... : ... .. 8 P82 ...
ROW 1F : ... .. A ... ... ... : ... .. . ... ... ... : ... .. . ... : ... .. 0 ... : ... .. . ... ... : ... .. . ... ... : ... .. . ... ... : ... .. . ... ...
ROW 20 : D-2 00 F ... ... ... : D-5 00 8 P80 ... ... : C#5 00 . ... : B-# 00 D ... : ... .. . ... ... : ... .. . ... ... : ... .. . ... ... : D-3 01 F P80 ...
ROW 21 : ... .. E ... ... ... : ... .. 6 ... ... ... : D#4 00 . ... : ... .. B ... : ... .. . ... ... : ... .. . ... ... : ... .. . ... ... : ... .. D P7F ...
ROW 22 : ... .. D ... ... ... : ... .. 3 ... ... ... : G#3 00 . ... : ... .. . ... : ... .. . ... ... : ... .. . ... ... : ... .. . ... ... : ... .. 8 P7E ...
ROW 23 : ... .. A ... ... ... : ... .. 1 ... ... ... : G-3 00 . ... : ... .. A ... : ... .. . ... ... : ... .. . ... ... : ... .. . ... ... : ... .. . P7F ...
ROW 24 : ... .. . ... ... ... : ... .. . ... ... ... : D-3 00 . ... : ... .. 8 ... : ... .. . ... ... : ... .. . ... ... : ... .. . ... ... : ... .. . P80 ...
ROW 25 : ... .. . ... ... ... : ... .. 0 ... ... ... : ... .. . ... : ... .. 7 ... : ... .. . ... ... : ... .. . ... ... : ... .. . ... ... : ... .. . P82 ...
ROW 26 : ... .. . ... ... ... : D#5 00 8 P80 ... ... : ... .. . ... : ... .. 6 ... : ... .. . ... ... : ... .. . ... ... : ... .. . ... ... : ... .. . ... ...
ROW 27 : ... .. . ... ... ... : ... .. 6 ... ... ... : ... .. . ... : ... .. . ... : ... .. . ... ... : ... .. . ... ... : ... .. . ... ... : ... .. . P80 ...
ROW 28 : ... .. . ... ... ... : ... .. 3 ... ... ... : ... .. . ... : ... .. 5 ... : ... .. . ... ... : ... .. . ... ... : ... .. . ... ... : ... .. . P7F ...
ROW 29 : ... .. . ... ... ... : ... .. 1 ... ... ... : ... .. . ... : ... .. . ... : ... .. . ... ... : ... .. . ... ... : ... .. . ... ... : ... .. . P7E ...
ROW 2A : ... .. . ... ... ... : ... .. . ... ... ... : ... .. . ... : ... .. 4 ... : ... .. . ... ... : ... .. . ... ... : ... .. . ... ... : ... .. . P7F ...
ROW 2B : ... .. . ... ... ... : ... .. 0 ... ... ... : --- .. . ... : ... .. . ... : ... .. . ... ... : ... .. . ... ... : ... .. . ... ... : ... .. . P80 ...
ROW 2C : ... .. . ... ... ... : D-5 00 8 P80 ... ... : B-4 00 . ... : D-# 00 F ... : ... .. . ... ... : A-3 01 9 ... ... : C-3 01 9 P80 ... : ... .. . P81 ...
ROW 2D : ... .. . ... ... ... : ... .. 6 ... ... ... : C#4 00 . ... : ... .. C ... : ... .. . ... ... : ... .. 8 ... ... : ... .. 8 ... ... : ... .. . P82 ...
ROW 2E : ... .. . ... ... ... : ... .. 3 ... ... ... : F#3 00 . ... : ... .. 6 ... : ... .. . ... ... : ... .. . ... ... : ... .. . ... ... : ... .. . P80 ...
ROW 2F : ... .. . ... ... ... : ... .. 1 ... ... ... : F-3 00 . ... : ... .. 3 ... : ... .. . ... ... : --- .. . ... ... : --- .. . P7E ... : ... .. . ... ...
ROW 30 : ... .. . ... ... ... : ... .. . ... ... ... : C-3 00 . ... : ... .. 2 ... : ... .. . ... ... : ... .. . ... ... : ... .. . ... ... : ... .. . P7E ...
ROW 31 : ... .. . ... ... ... : ... .. 0 ... ... ... : ... .. . ... : ... .. 0 ... : ... .. . ... ... : ... .. . ... ... : ... .. . ... ... : ... .. . P7F ...
ROW 32 : E-2 00 F ... ... ... : D#5 00 8 P80 ... ... : ... .. . ... : ... .. F ... : ... .. . ... ... : A-3 01 9 ... ... : C-3 01 9 P80 ... : E-3 01 F P80 ...
ROW 33 : ... .. E ... ... ... : ... .. 6 ... ... ... : ... .. . ... : ... .. C ... : ... .. . ... ... : ... .. 8 ... ... : ... .. 8 ... ... : ... .. D P81 ...
ROW 34 : ... .. D ... ... ... : ... .. 3 ... ... ... : ... .. . ... : ... .. 6 ... : ... .. . ... ... : ... .. . ... ... : ... .. . ... ... : ... .. 8 P82 ...
ROW 35 : ... .. 0 ... ... ... : ... .. 1 ... ... ... : ... .. . ... : ... .. 3 ... : ... .. . ... ... : ... .. . ... ... : ... .. . ... ... : --- .. . P7F ...
ROW 36 : ... .. . ... ... ... : ... .. . ... ... ... : ... .. . ... : ... .. 2 ... : ... .. . ... ... : ... .. 7 ... ... : ... .. 7 ... ... : ... .. . ... ...
ROW 37 : ... .. . ... ... ... : ... .. 0 ... ... ... : --- .. . ... : ... .. 0 ... : ... .. . ... ... : ... .. . ... ... : ... .. . ... ... : ... .. . ... ...
ROW 38 : F#2 00 F P81 ... ... : D-5 00 8 P80 ... ... : A-4 00 . ... : B-# 00 D ... : ... .. . ... ... : ... .. . ... ... : ... .. . ... ... : F#3 01 F P7E ...
ROW 39 : ... .. E ... ... ... : ... .. 6 ... ... ... : B-3 00 . ... : ... .. B ... : ... .. . ... ... : ... .. 6 ... ... : ... .. 6 ... ... : ... .. D P80 ...
ROW 3A : ... .. D ... ... ... : ... .. 3 ... ... ... : E-3 00 . ... : ... .. . ... : ... .. . ... ... : ... .. . ... ... : ... .. . ... ... : ... .. 8 P81 ...
ROW 3B : ... .. A ... ... ... : ... .. 1 ... ... ... : D#3 00 . ... : ... .. A ... : ... .. . ... ... : --- .. . ... ... : --- .. . P7E ... : ... .. . P82 ...
ROW 3C : ... .. . ... ... ... : ... .. . ... ... ... : A#2 00 . ... : ... .. 8 ... : ... .. . ... ... : ... .. . ... ... : ... .. . ... ... : ... .. . P81 ...
ROW 3D : ... .. . ... ... ... : ... .. 0 ... ... ... : ... .. . ... : ... .. 7 ... : ... .. . ... ... : ... .. . ... ... : ... .. . ... ... : ... .. . P80 ...
ROW 3E : ... .. . ... ... ... : D#5 00 8 P80 ... ... : ... .. . ... : ... .. 6 ... : ... .. . ... ... : ... .. . ... ... : ... .. . ... ... : ... .. . P7E ...
ROW 3F : ... .. 2 ... ... ... : ... .. 6 ... ... ... : ... .. . ... : ... .. . ... : ... .. . ... ... : ... .. . ... ... : ... .. . ... ... : ... .. 4 ... ...
ROW 40 : ... .. . ... ... ... : ... .. 3 ... ... ... : ... .. . ... : ... .. 5 ... : ... .. . ... ... : ... .. . ... ... : ... .. . ... ... : ... .. . P80 ...
ROW 41 : ... .. . ... ... ... : ... .. 1 ... ... ... : ... .. . ... : ... .. . ... : ... .. . ... ... : ... .. . ... ... : ... .. . ... ... : ... .. 1 P81 ...
ROW 42 : ... .. 1 ... ... ... : ... .. . ... ... ... : ... .. . ... : ... .. 4 ... : ... .. . ... ... : ... .. . ... ... : ... .. . ... ... : ... .. . P82 ...
ROW 43 : ... .. . ... ... ... : ... .. 0 ... ... ... : --- .. . ... : ... .. . ... : ... .. . ... ... : ... .. . ... ... : ... .. . ... ... : ... .. . P81 ...
ROW 44 : D-2 00 F ... ... ... : D-5 00 8 P80 ... ... : G#4 00 . ... : D-# 00 F ... : ... .. . ... ... : A-3 01 9 ... ... : C-3 01 9 P80 ... : D-3 01 F P80 ...
ROW 45 : ... .. E ... ... ... : ... .. 6 ... ... ... : A#3 00 . ... : ... .. C ... : ... .. . ... ... : ... .. 8 ... ... : ... .. 8 ... ... : ... .. D P7E ...
ROW 46 : ... .. D ... ... ... : ... .. 3 ... ... ... : D#3 00 . ... : ... .. 6 ... : ... .. . ... ... : ... .. . ... ... : ... .. . ... ... : ... .. 8 ... ...
ROW 47 : ... .. A ... ... ... : ... .. 1 ... ... ... : D-3 00 . ... : ... .. 3 ... : ... .. . ... ... : --- .. . ... ... : --- .. . P7E ... : ... .. . P80 ...
ROW 48 : ... .. . ... ... ... : ... .. . ... ... ... : A-2 00 . ... : ... .. 2 ... : ... .. . ... ... : ... .. . ... ... : ... .. . ... ... : ... .. . P81 ...
ROW 49 : ... .. . ... ... ... : ... .. 0 ... ... ... : ... .. . ... : ... .. 0 ... : ... .. . ... ... : ... .. . ... ... : ... .. . ... ... : ... .. . P82 ...
ROW 4A : ... .. 0 ... ... ... : C-5 00 8 P80 ... ... : ... .. . ... : ... .. F ... : ... .. . ... ... : A-3 01 9 ... ... : C-3 01 9 P80 ... : --- .. . P7C ...
ROW 4B : ... .. . ... ... ... : ... .. 6 ... ... ... : ... .. . ... : ... .. C ... : ... .. . ... ... : ... .. 8 ... ... : ... .. 8 ... ... : ... .. . ... ...
ROW 4C : ... .. . ... ... ... : ... .. 3 ... ... ... : ... .. . ... : ... .. 6 ... : ... .. . ... ... : ... .. . ... ... : ... .. . ... ... : ... .. . ... ...
ROW 4D : ... .. . ... ... ... : ... .. 1 ... ... ... : ... .. . ... : ... .. 3 ... : ... .. . ... ... : ... .. . ... ... : ... .. . ... ... : ... .. . ... ...
ROW 4E : ... .. . ... ... ... : ... .. . ... ... ... : ... .. . ... : ... .. 2 ... : ... .. . ... ... : ... .. 7 ... ... : ... .. 7 ... ... : ... .. . ... ...
ROW 4F : ... .. . ... ... ... : ... .. 0 ... ... ... : --- .. . ... : ... .. 0 ... : ... .. . ... ... : ... .. . ... ... : ... .. . ... ... : ... .. . ... ...
ROW 50 : G-2 00 F P81 ... ... : A#4 00 8 P80 ... ... : F#4 00 . ... : B-# 00 D ... : ... .. . ... ... : ... .. . ... ... : ... .. . ... ... : G-3 01 F P82 ...
ROW 51 : ... .. E ... ... ... : ... .. 6 ... ... ... : G#3 00 . ... : ... .. B ... : ... .. . ... ... : ... .. 6 ... ... : ... .. 6 ... ... : ... .. D P81 ...
ROW 52 : ... .. D ... ... ... : ... .. 3 ... ... ... : C#3 00 . ... : ... .. . ... : ... .. . ... ... : ... .. . ... ... : ... .. . ... ... : ... .. 8 P80 ...
ROW 53 : ... .. A ... ... ... : ... .. 1 ... ... ... : C-3 00 . ... : ... .. A ... : ... .. . ... ... : --- .. . ... ... : --- .. . P7E ... : ... .. . P7F ...
ROW 54 : ... .. . ... ... ... : ... .. . ... ... ... : G-2 00 . ... : ... .. 8 ... : ... .. . ... ... : ... .. . ... ... : ... .. . ... ... : ... .. . P7E ...
ROW 55 : ... .. . ... ... ... : ... .. 0 ... ... ... : --- .. . ... : ... .. 7 ... : ... .. . ... ... : ... .. . ... ... : ... .. . ... ... : ... .. . P7F ...
ROW 56 : A-2 00 F ... ... ... : A-4 00 8 P80 ... ... : F#2 00 . ... : ... .. 6 ... : ... .. . ... ... : ... .. . ... ... : ... .. . ... ... : A-3 01 F P80 ...
ROW 57 : ... .. E ... ... ... : ... .. 6 ... ... ... : ... .. . ... : ... .. . ... : ... .. . ... ... : ... .. . ... ... : ... .. . ... ... : ... .. D P82 ...
ROW 58 : ... .. D ... ... ... : ... .. 3 ... ... ... : ... .. . ... : ... .. 5 ... : ... .. . ... ... : ... .. . ... ... : ... .. . ... ... : ... .. 8 ... ...
ROW 59 : ... .. 0 ... ... ... : ... .. 1 ... ... ... : ... .. . ... : ... .. . ... : ... .. . ... ... : ... .. . ... ... : ... .. . ... ... : --- .. . P81 ...
ROW 5A : ... .. . ... ... ... : ... .. . ... ... ... : ... .. . ... : ... .. 4 ... : ... .. . ... ... : ... .. . ... ... : ... .. . ... ... : ... .. . ... ...
ROW 5B : ... .. . ... ... ... : ... .. 0 ... ... ... : --- .. . ... : ... .. . ... : ... .. . ... ... : ... .. . ... ... : ... .. . ... ... : ... .. . ... ...
ROW 5C : A#2 00 F P81 ... ... : A#4 00 8 P80 ... ... : G-2 00 . ... : ... .. D ... : ... .. . ... ... : G-3 01 9 ... ... : A#2 01 9 P80 ... : A#3 01 F P7F ...
ROW 5D : ... .. E ... ... ... : ... .. 6 ... ... ... : ... .. . ... : ... .. B ... : ... .. . ... ... : ... .. 8 ... ... : ... .. 8 ... ... : ... .. D P80 ...
ROW 5E : ... .. D ... ... ... : ... .. 3 ... ... ... : ... .. . ... : ... .. . ... : ... .. . ... ... : ... .. . ... ... : ... .. . ... ... : ... .. 8 P82 ...
ROW 5F : ... .. 0 ... ... ... : ... .. 1 ... ... ... : ... .. . ... : ... .. A ... : ... .. . ... ... : --- .. . P81 ... : --- .. . P82 ... : --- .. . P81 ...
ROW 60 : ... .. . ... ... ... : ... .. . ... ... ... : ... .. . ... : ... .. 8 ... : ... .. . ... ... : ... .. . ... ... : ... .. . ... ... : ... .. . ... ...
ROW 61 : ... .. . ... ... ... : ... .. 0 ... ... ... : --- .. . ... : ... .. 7 ... : ... .. . ... ... : ... .. . ... ... : ... .. . ... ... : ... .. . ... ...
ROW 62 : C-3 00 F P81 ... ... : A-4 00 8 P80 ... ... : A-2 00 . ... : ... .. 6 ... : ... .. . ... ... : G-3 01 9 P80 ... : A#2 01 9 P80 ... : C-4 01 F P7E ...
ROW 63 : ... .. E ... ... ... : ... .. 6 ... ... ... : ... .. . ... : ... .. . ... : ... .. . ... ... : ... .. 8 ... ... : ... .. 8 ... ... : ... .. D P7F ...
ROW 64 : ... .. D ... ... ... : ... .. 3 ... ... ... : ... .. . ... : ... .. 5 ... : ... .. . ... ... : ... .. . ... ... : ... .. . ... ... : ... .. 8 P80 ...
ROW 65 : ... .. 0 ... ... ... : ... .. 1 ... ... ... : ... .. . ... : ... .. . ... : ... .. . ... ... : ... .. . ... ... : ... .. . ... ... : --- .. . ... ...
ROW 66 : ... .. . ... ... ... : ... .. . ... ... ... : ... .. . ... : ... .. 4 ... : ... .. . ... ... : ... .. 7 ... ... : ... .. 7 ... ... : ... .. . ... ...
ROW 67 : ... .. . ... ... ... : ... .. 0 ... ... ... : --- .. . ... : ... .. . ... : ... .. . ... ... : ... .. . ... ... : ... .. . ... ... : ... .. . ... ...
ROW 68 : D-3 00 F P81 ... ... : A#4 00 8 P80 ... ... : A-4 00 . ... : ... .. D ... : ... .. . ... ... : ... .. . ... ... : ... .. . ... ... : D-4 01 F P7F ...
ROW 69 : ... .. E ... ... ... : ... .. 6 ... ... ... : B-3 00 . ... : ... .. B ... : ... .. . ... ... : ... .. 6 ... ... : ... .. 6 ... ... : ... .. D P7E ...
ROW 6A : ... .. D ... ... ... : ... .. 3 ... ... ... : E-3 00 . ... : ... .. . ... : ... .. . ... ... : ... .. . ... ... : ... .. . ... ... : ... .. 8 P7F ...
ROW 6B : ... .. A ... ... ... : ... .. 1 ... ... ... : D#3 00 . ... : ... .. A ... : ... .. . ... ... : --- .. . P81 ... : --- .. . P82 ... : ... .. . P80 ...
ROW 6C : ... .. . ... ... ... : ... .. . ... ... ... : A#2 00 . ... : ... .. 8 ... : ... .. . ... ... : ... .. . ... ... : ... .. . ... ... : ... .. . P81 ...
ROW 6D : ... .. . ... ... ... : ... .. 0 ... ... ... : ... .. . ... : ... .. 7 ... : ... .. . ... ... : ... .. . ... ... : ... .. . ... ... : ... .. . P82 ...
ROW 6E : ... .. . ... ... ... : A-4 00 8 P80 ... ... : ... .. . ... : ... .. 6 ... : ... .. . ... ... : ... .. . ... ... : ... .. . ... ... : ... .. . P80 ...
ROW 6F : ... .. . ... ... ... : ... .. 6 ... ... ... : ... .. . ... : ... .. . ... : ... .. . ... ... : ... .. . ... ... : ... .. . ... ... : ... .. . ... ...
ROW 70 : ... .. . ... ... ... : ... .. 3 ... ... ... : ... .. . ... : ... .. 5 ... : ... .. . ... ... : ... .. . ... ... : ... .. . ... ... : ... .. . P7E ...
ROW 71 : ... .. 0 ... ... ... : ... .. 1 ... ... ... : ... .. . ... : ... .. . ... : ... .. . ... ... : ... .. . ... ... : ... .. . ... ... : --- .. . ... ...
ROW 72 : ... .. . ... ... ... : ... .. . ... ... ... : ... .. . ... : ... .. 4 ... : ... .. . ... ... : ... .. . ... ... : ... .. . ... ... : ... .. . ... ...
ROW 73 : ... .. . ... ... ... : ... .. 0 ... ... ... : --- .. . ... : ... .. . ... : ... .. . ... ... : ... .. . ... ... : ... .. . ... ... : ... .. . ... ...
ROW 74 : A#2 00 F P81 ... ... : A#4 00 8 P80 ... ... : F#4 00 . ... : D-# 00 F ... : ... .. . ... ... : G-3 01 9 P80 ... : A#2 01 9 P80 ... : A#3 01 F P82 ...
ROW 75 : ... .. E ... ... ... : ... .. 6 ... ... ... : G#3 00 . ... : ... .. C ... : ... .. . ... ... : ... .. 8 ... ... : ... .. 8 ... ... : ... .. D P81 ...
ROW 76 : ... .. D ... ... ... : ... .. 3 ... ... ... : C#3 00 . ... : ... .. 6 ... : ... .. . ... ... : ... .. . ... ... : ... .. . ... ... : ... .. 8 P80 ...
ROW 77 : ... .. A ... ... ... : ... .. 1 ... ... ... : C-3 00 . ... : ... .. 3 ... : ... .. . ... ... : --- .. . P81 ... : --- .. . P82 ... : ... .. . P7E ...
ROW 78 : ... .. . ... ... ... : ... .. . ... ... ... : G-2 00 . ... : ... .. 2 ... : ... .. . ... ... : ... .. . ... ... : ... .. . ... ... : ... .. . ... ...
ROW 79 : ... .. . ... ... ... : ... .. 0 ... ... ... : ... .. . ... : ... .. 0 ... : ... .. . ... ... : ... .. . ... ... : ... .. . ... ... : ... .. . P80 ...
ROW 7A : ... .. . ... ... ... : D-5 00 8 P80 ... ... : ... .. . ... : ... .. F ... : ... .. . ... ... : G-3 01 9 P80 ... : A#2 01 9 P80 ... : ... .. . P81 ...
ROW 7B : ... .. . ... ... ... : ... .. 6 ... ... ... : ... .. . ... : ... .. C ... : ... .. . ... ... : ... .. 8 ... ... : ... .. 8 ... ... : ... .. . P82 ...
ROW 7C : ... .. . ... ... ... : ... .. 3 ... ... ... : ... .. . ... : ... .. 6 ... : ... .. . ... ... : ... .. . ... ... : ... .. . ... ... : ... .. . P81 ...
ROW 7D : ... .. 0 ... ... ... : ... .. 1 ... ... ... : ... .. . ... : ... .. 3 ... : ... .. . ... ... : ... .. . ... ... : ... .. . ... ... : --- .. . P80 ...
ROW 7E : ... .. . ... ... ... : ... .. . ... ... ... : ... .. . ... : ... .. 2 ... : ... .. . ... ... : ... .. 7 ... ... : ... .. 7 ... ... : ... .. . ... ...
ROW 7F : ... .. . ... ... ... : ... .. 0 ... ... ... : --- .. . ... : ... .. 0 ... : ... .. . ... ... : ... .. . ... ... : ... .. . ... ... : ... .. . ... ...
ROW 80 : C#3 00 F P81 ... ... : C#5 00 8 P80 ... ... : G#4 00 . ... : B-# 00 D ... : ... .. . ... ... : A-2 01 9 ... ... : A-3 01 9 ... ... : C#4 01 F ... ...
ROW 81 : ... .. E ... ... ... : ... .. 6 ... ... ... : A#3 00 . ... : ... .. B ... : ... .. . ... ... : ... .. 8 ... ... : ... .. 8 ... ... : ... .. D P81 ...
ROW 82 : ... .. D ... ... ... : ... .. 3 ... ... ... : D#3 00 . ... : ... .. . ... : ... .. . ... ... : ... .. . ... ... : ... .. . ... ... : ... .. 8 P82 ...
ROW 83 : ... .. A ... ... ... : ... .. 1 ... ... ... : D-3 00 . ... : ... .. A ... : ... .. . ... ... : ... .. . ... ... : ... .. . ... ... : ... .. . P81 ...
ROW 84 : ... .. . ... ... ... : ... .. . ... ... ... : A-2 00 . ... : ... .. 8 ... : ... .. . ... ... : ... .. 7 ... ... : ... .. 7 ... ... : ... .. . P80 ...
ROW 85 : ... .. . ... ... ... : ... .. 0 ... ... ... : ... .. . ... : ... .. 7 ... : ... .. . ... ... : ... .. . ... ... : ... .. . ... ... : ... .. . P7E ...
ROW 86 : C-3 00 F ... ... ... : B-4 00 8 P80 ... ... : ... .. . ... : ... .. 6 ... : ... .. . ... ... : A#2 01 9 ... ... : A#3 01 9 ... ... : C-4 01 F ... ...
ROW 87 : ... .. E ... ... ... : ... .. 6 ... ... ... : ... .. . ... : ... .. . ... : ... .. . ... ... : ... .. 8 ... ... : ... .. 8 ... ... : ... .. D P80 ...
ROW 88 : ... .. D ... ... ... : ... .. 3 ... ... ... : ... .. . ... : ... .. 5 ... : ... .. . ... ... : ... .. . ... ... : ... .. . ... ... : ... .. 8 P81 ...
ROW 89 : ... .. A ... ... ... : ... .. 1 ... ... ... : ... .. . ... : ... .. . ... : ... .. . ... ... : ... .. . ... ... : ... .. . ... ... : ... .. . P82 ...
ROW 8A : ... .. . ... ... ... : ... .. . ... ... ... : ... .. . ... : ... .. 4 ... : ... .. . ... ... : ... .. 7 ... ... : ... .. 7 ... ... : ... .. . P81 ...
ROW 8B : ... .. . ... ... ... : ... .. 0 ... ... ... : --- .. . ... : ... .. . ... : ... .. . ... ... : ... .. . ... ... : ... .. . ... ... : ... .. . P80 ...
ROW 8C : C#3 00 F ... ... ... : C#5 00 8 P80 ... ... : G-3 00 . ... : D-# 00 F ... : ... .. . ... ... : A-2 01 9 ... ... : A-3 01 9 ... ... : C#4 01 F P7F ...
ROW 8D : ... .. E ... ... ... : ... .. 6 ... ... ... : ... .. . ... : ... .. C ... : ... .. . ... ... : ... .. 8 ... ... : ... .. 8 ... ... : ... .. D P7E ...
ROW 8E : ... .. D ... ... ... : ... .. 3 ... ... ... : ... .. . ... : ... .. 6 ... : ... .. . ... ... : ... .. . ... ... : ... .. . ... ... : ... .. 8 P80 ...
ROW 8F : ... .. 0 ... ... ... : ... .. 1 ... ... ... : ... .. . ... : ... .. 3 ... : ... .. . ... ... : ... .. . ... ... : ... .. . ... ... : --- .. . ... ...
ROW 90 : ... .. . ... ... ... : ... .. . ... ... ... : ... .. . ... : ... .. 2 ... : ... .. . ... ... : ... .. 7 ... ... : ... .. 7 ... ... : ... .. . ... ...
ROW 91 : ... .. . ... ... ... : ... .. 0 ... ... ... : --- .. . ... : ... .. 0 ... : ... .. . ... ... : ... .. . ... ... : ... .. . ... ... : ... .. . ... ...
ROW 92 : D-3 00 F P81 ... ... : D-5 00 8 P80 ... ... : G-3 00 . ... : ... .. F ... : ... .. . ... ... : G-2 01 9 ... ... : G-3 01 9 ... ... : D-4 01 F ... ...
ROW 93 : ... .. E ... ... ... : ... .. 6 ... ... ... : ... .. . ... : ... .. C ... : ... .. . ... ... : ... .. 8 ... ... : ... .. 8 ... ... : ... .. D P7F ...
ROW 94 : ... .. D ... ... ... : ... .. 3 ... ... ... : ... .. . ... : ... .. 6 ... : ... .. . ... ... : ... .. . ... ... : ... .. . ... ... : ... .. 8 P7E ...
ROW 95 : ... .. 0 ... ... ... : ... .. 1 ... ... ... : ... .. . ... : ... .. 3 ... : ... .. . ... ... : ... .. . ... ... : ... .. . ... ... : --- .. . ... ...
ROW 96 : ... .. . ... ... ... : ... .. . ... ... ... : ... .. . ... : ... .. 2 ... : ... .. . ... ... : ... .. 7 ... ... : ... .. 7 ... ... : ... .. . ... ...
ROW 97 : ... .. . ... ... ... : ... .. 0 ... ... ... : --- .. . ... : ... .. 0 ... : ... .. . ... ... : ... .. . ... ... : ... .. . ... ... : ... .. . ... ...
ROW 98 : E-3 00 F P81 ... ... : E-5 00 8 P80 ... ... : G#4 00 . ... : B-# 00 D ... : ... .. . ... ... : F#2 01 9 ... ... : F#3 01 9 ... ... : E-4 01 F P82 ...
ROW 99 : ... .. E ... ... ... : ... .. 6 ... ... ... : A#3 00 . ... : ... .. B ... : ... .. . ... ... : ... .. 8 ... ... : ... .. 8 ... ... : ... .. D P80 ...
ROW 9A : ... .. D ... ... ... : ... .. 3 ... ... ... : D#3 00 . ... : ... .. . ... : ... .. . ... ... : ... .. . ... ... : ... .. . ... ... : ... .. 8 P7F ...
ROW 9B : ... .. A ... ... ... : ... .. 1 ... ... ... : D-3 00 . ... : ... .. A ... : ... .. . ... ... : ... .. . ... ... : ... .. . ... ... : ... .. . P7E ...
ROW 9C : ... .. . ... ... ... : ... .. . ... ... ... : A-2 00 . ... : ... .. 8 ... : ... .. . ... ... : ... .. 7 ... ... : ... .. 7 ... ... : ... .. . P7F ...
ROW 9D : ... .. . ... ... ... : ... .. 0 ... ... ... : ... .. . ... : ... .. 7 ... : ... .. . ... ... : ... .. . ... ... : ... .. . ... ... : ... .. . P80 ...
ROW 9E : ... .. . ... ... ... : D-5 00 8 P80 ... ... : ... .. . ... : ... .. 6 ... : ... .. . ... ... : G-2 01 9 ... ... : G-3 01 9 ... ... : ... .. . P82 ...
ROW 9F : ... .. . ... ... ... : ... .. 6 ... ... ... : ... .. . ... : ... .. . ... : ... .. . ... ... : ... .. 8 ... ... : ... .. 8 ... ... : ... .. . ... ...
ROW A0 : ... .. . ... ... ... : ... .. 3 ... ... ... : ... .. . ... : ... .. 5 ... : ... .. . ... ... : ... .. . ... ... : ... .. . ... ... : ... .. . P80 ...
ROW A1 : ... .. . ... ... ... : ... .. 1 ... ... ... : ... .. . ... : ... .. . ... : ... .. . ... ... : ... .. . ... ... : ... .. . ... ... : ... .. . P7F ...
ROW A2 : ... .. . ... ... ... : ... .. . ... ... ... : ... .. . ... : ... .. 4 ... : ... .. . ... ... : ... .. 7 ... ... : ... .. 7 ... ... : ... .. . P7E ...
ROW A3 : ... .. . ... ... ... : ... .. 0 ... ... ... : --- .. . ... : ... .. . ... : ... .. . ... ... : ... .. . ... ... : ... .. . ... ... : ... .. . P7F ...
ROW A4 : A-3 00 F ... ... ... : E-5 00 8 P80 ... ... : G-3 00 . ... : D-# 00 F ... : ... .. . ... ... : F#2 01 9 ... ... : F#3 01 9 ... ... : A-4 01 F P80 ...
ROW A5 : ... .. E ... ... ... : ... .. 6 ... ... ... : ... .. . ... : ... .. C ... : ... .. . ... ... : ... .. 8 ... ... : ... .. 8 ... ... : ... .. D P82 ...
ROW A6 : ... .. D ... ... ... : ... .. 3 ... ... ... : ... .. . ... : ... .. 6 ... : ... .. . ... ... : ... .. . ... ... : ... .. . ... ... : ... .. 8 ... ...
ROW A7 : ... .. A ... ... ... : ... .. 1 ... ... ... : ... .. . ... : ... .. 3 ... : ... .. . ... ... : ... .. . ... ... : ... .. . ... ... : ... .. . P80 ...
ROW A8 : ... .. . ... ... ... : ... .. . ... ... ... : ... .. . ... : ... .. 2 ... : ... .. . ... ... : ... .. 7 ... ... : ... .. 7 ... ... : ... .. . P7F ...
ROW A9 : ... .. . ... ... ... : ... .. 0 ... ... ... : --- .. . ... : ... .. 0 ... : ... .. . ... ... : ... .. . ... ... : ... .. . ... ... : ... .. . P7E ...
ROW AA : ... .. . ... ... ... : G-5 00 8 P80 ... ... : G-3 00 . ... : ... .. F ... : ... .. . ... ... : E-2 01 9 ... ... : E-3 01 9 ... ... : ... .. . P7F ...
ROW AB : ... .. . ... ... ... : ... .. 6 ... ... ... : ... .. . ... : ... .. C ... : ... .. . ... ... : ... .. 8 ... ... : ... .. 8 ... ... : ... .. . P80 ...
ROW AC : ... .. . ... ... ... : ... .. 3 ... ... ... : ... .. . ... : ... .. 6 ... : ... .. . ... ... : ... .. . ... ... : ... .. . ... ... : ... .. . P81 ...
ROW AD : ... .. 0 ... ... ... : ... .. 1 ... ... ... : ... .. . ... : ... .. 3 ... : ... .. . ... ... : ... .. . ... ... : ... .. . ... ... : --- .. . ... ...
ROW AE : ... .. . ... ... ... : ... .. . ... ... ... : ... .. . ... : ... .. 2 ... : ... .. . ... ... : ... .. 7 ... ... : ... .. 7 ... ... : ... .. . ... ...
ROW AF : ... .. . ... ... ... : ... .. 0 ... ... ... : --- .. . ... : ... .. 0 ... : ... .. . ... ... : ... .. . ... ... : ... .. . ... ... : ... .. . ... ...
ROW B0 : D-3 00 F P81 ... ... : F#5 00 8 P80 ... ... : C#4 00 . ... : B-# 00 D ... : ... .. . ... ... : D-4 01 9 ... ... : D-3 01 9 ... ... : D-4 01 F P7E ...
ROW B1 : ... .. E ... ... ... : ... .. 6 ... ... ... : D#3 00 . ... : ... .. B ... : ... .. . ... ... : ... .. 8 ... ... : ... .. 8 ... ... : ... .. D P7F ...
ROW B2 : ... .. D ... ... ... : ... .. 3 ... ... ... : G#2 00 . ... : ... .. . ... : ... .. . ... ... : ... .. . ... ... : ... .. . ... ... : ... .. 8 P80 ...
ROW B3 : ... .. A ... ... ... : ... .. 1 ... ... ... : G-2 00 . ... : ... .. A ... : ... .. . ... ... : E-4 01 9 ... ... : E-3 01 9 ... ... : ... .. . P81 ...
ROW B4 : ... .. . ... ... ... : ... .. . ... ... ... : D-2 00 . ... : ... .. 8 ... : ... .. . ... ... : ... .. 8 ... ... : ... .. 8 ... ... : ... .. . P82 ...
ROW B5 : ... .. . ... ... ... : ... .. 0 ... ... ... : ... .. . ... : ... .. 7 ... : ... .. . ... ... : ... .. . ... ... : ... .. . ... ... : ... .. . P81 ...
ROW B6 : ... .. . ... ... ... : F-5 00 8 P80 ... ... : ... .. . ... : ... .. 6 ... : ... .. . ... ... : F#4 01 9 ... ... : F#3 01 9 ... ... : ... .. . P80 ...
ROW B7 : ... .. . ... ... ... : ... .. 6 ... ... ... : ... .. . ... : ... .. . ... : ... .. . ... ... : ... .. 8 ... ... : ... .. 8 ... ... : ... .. . P7E ...
ROW B8 : ... .. . ... ... ... : ... .. 3 ... ... ... : ... .. . ... : ... .. 5 ... : ... .. . ... ... : ... .. . ... ... : ... .. . ... ... : ... .. . ... ...
ROW B9 : ... .. . ... ... ... : ... .. 1 ... ... ... : ... .. . ... : ... .. . ... : ... .. . ... ... : G-4 01 9 ... ... : G-3 01 9 ... ... : ... .. . P80 ...
ROW BA : ... .. . ... ... ... : ... .. . ... ... ... : ... .. . ... : ... .. 4 ... : ... .. . ... ... : ... .. 8 ... ... : ... .. 8 ... ... : ... .. . P81 ...
ROW BB : ... .. . ... ... ... : ... .. 0 ... ... ... : --- .. . ... : ... .. . ... : ... .. . ... ... : ... .. . ... ... : ... .. . ... ... : ... .. . P82 ...
ROW BC : ... .. . ... ... ... : E-5 00 8 P80 ... ... : F#3 00 . ... : ... .. 3 ... : ... .. . ... ... : A-4 01 9 ... ... : A-3 01 9 ... ... : ... .. . P81 ...
ROW BD : ... .. . ... ... ... : ... .. 6 ... ... ... : ... .. . ... : ... .. 2 ... : ... .. . ... ... : ... .. 8 ... ... : ... .. 8 ... ... : ... .. . P80 ...
ROW BE : ... .. . ... ... ... : ... .. 3 ... ... ... : ... .. . ... : ... .. . ... : ... .. . ... ... : ... .. . ... ... : ... .. . ... ... : ... .. . P7E ...
ROW BF : ... .. . ... ... ... : ... .. 1 ... ... ... : ... .. . ... : D-# 00 5 ... : ... .. . ... ... : B-4 01 9 ... ... : B-3 01 9 ... ... : ... .. . ... ...
ROW C0 : ... .. . ... ... ... : ... .. . ... ... ... : ... .. . ... : ... .. 4 ... : ... .. . ... ... : ... .. 8 ... ... : ... .. 8 ... ... : ... .. . P80 ...
ROW C1 : ... .. . ... ... ... : ... .. 0 ... ... ... : --- .. . ... : ... .. . ... : ... .. . ... ... : ... .. . ... ... : ... .. . ... ... : ... .. . P81 ...
ROW C2 : ... .. 0 ... ... ... : D#5 00 8 P80 ... ... : A-3 00 . ... : ... .. 6 ... : ... .. . ... ... : C-5 01 9 ... ... : C-4 01 9 ... ... : --- .. . ... ...
ROW C3 : ... .. . ... ... ... : ... .. 6 ... ... ... : ... .. . ... : ... .. 5 ... : ... .. . ... ... : ... .. 8 ... ... : ... .. 8 ... ... : ... .. . ... ...
ROW C4 : ... .. . ... ... ... : ... .. 3 ... ... ... : ... .. . ... : ... .. . ... : ... .. . ... ... : ... .. . ... ... : ... .. . ... ... : ... .. . ... ...
ROW C5 : ... .. . ... ... ... : ... .. 1 ... ... ... : ... .. . ... : ... .. 8 ... : ... .. . ... ... : C#5 01 9 ... ... : C#4 01 9 ... ... : ... .. . ... ...
ROW C6 : ... .. . ... ... ... : ... .. . ... ... ... : ... .. . ... : ... .. 7 ... : ... .. . ... ... : ... .. 8 ... ... : ... .. 8 ... ... : ... .. . ... ...
ROW C7 : ... .. . ... ... ... : ... .. 0 ... ... ... : --- .. . ... : ... .. . ... : ... .. . ... ... : ... .. . ... ... : ... .. . ... ... : ... .. . ... ...
ROW C8 : G-2 00 F P81 ... ... : D-5 00 8 P80 ... ... : D-4 00 . ... : B-# 00 D ... : ... .. . ... ... : D-5 01 9 ... ... : D-4 01 9 ... ... : G-3 01 F ... ...
ROW C9 : ... .. E ... ... ... : ... .. 6 ... ... ... : ... .. . ... : ... .. B ... : ... .. . ... ... : ... .. 8 ... ... : ... .. 8 ... ... : ... .. D P82 ...
ROW CA : ... .. D ... ... ... : ... .. 3 ... ... ... : ... .. . ... : ... .. . ... : ... .. . ... ... : ... .. . ... ... : ... .. . ... ... : ... .. 8 P81 ...
ROW CB : ... .. A ... ... ... : ... .. 1 ... ... ... : ... .. . ... : ... .. A ... : ... .. . ... ... : ... .. . ... ... : ... .. . ... ... : ... .. . P80 ...
ROW CC : ... .. . ... ... ... : ... .. . ... ... ... : ... .. . ... : ... .. 8 ... : ... .. . ... ... : ... .. 7 ... ... : ... .. 7 ... ... : ... .. . P7F ...
ROW CD : ... .. . ... ... ... : ... .. 0 ... ... ... : --- .. . ... : ... .. 7 ... : ... .. . ... ... : ... .. . ... ... : ... .. . ... ... : ... .. . P7E ...
ROW CE : ... .. . ... ... ... : D#5 00 8 P80 ... ... : C-4 00 . ... : ... .. 6 ... : ... .. . ... ... : ... .. . ... ... : ... .. . ... ... : ... .. . P80 ...
ROW CF : F#2 00 F ... ... ... : ... .. 6 ... ... ... : ... .. . ... : ... .. . ... : ... .. . ... ... : ... .. 6 ... ... : ... .. 6 ... ... : F#3 01 F ... ...
ROW D0 : ... .. E ... ... ... : ... .. 3 ... ... ... : ... .. . ... : ... .. 5 ... : ... .. . ... ... : ... .. . ... ... : ... .. . ... ... : ... .. D P82 ...
ROW D1 : ... .. D ... ... ... : ... .. 1 ... ... ... : ... .. . ... : ... .. . ... : ... .. . ... ... : ... .. . ... ... : ... .. . ... ... : ... .. 8 P81 ...
ROW D2 : ... .. A ... ... ... : ... .. . ... ... ... : ... .. . ... : ... .. 4 ... : ... .. . ... ... : ... .. . ... ... : ... .. . ... ... : ... .. . P80 ...
ROW D3 : F-2 00 F ... ... ... : ... .. 0 ... ... ... : --- .. . ... : ... .. . ... : ... .. . ... ... : ... .. . ... ... : ... .. . ... ... : F-3 01 F P7F ...
ROW D4 : ... .. E ... ... ... : E-5 00 8 P80 ... ... : A#3 00 . ... : ... .. 3 ... : ... .. . ... ... : ... .. . ... ... : ... .. . ... ... : ... .. D P7E ...
ROW D5 : ... .. D ... ... ... : ... .. 6 ... ... ... : ... .. . ... : ... .. 2 ... : ... .. . ... ... : ... .. 5 ... ... : ... .. 5 ... ... : ... .. 8 P7F ...
ROW D6 : ... .. A ... ... ... : ... .. 3 ... ... ... : ... .. . ... : ... .. . ... : ... .. . ... ... : ... .. . ... ... : ... .. . ... ... : ... .. . P80 ...
ROW D7 : ... .. . ... ... ... : ... .. 1 ... ... ... : ... .. . ... : ... .. 1 ... : ... .. . ... ... : ... .. 4 ... ... : ... .. 4 ... ... : ... .. . P82 ...
ROW D8 : E-2 00 F ... ... ... : ... .. . ... ... ... : ... .. . ... : ... .. 0 ... : ... .. . ... ... : ... .. 3 ... ... : ... .. 3 ... ... : E-3 01 F ... ...
ROW D9 : ... .. E ... ... ... : ... .. 0 ... ... ... : --- .. . ... : ... .. . ... : ... .. . ... ... : ... .. . ... ... : ... .. . ... ... : ... .. D P80 ...
ROW DA : ... .. D ... ... ... : F-5 00 8 P80 ... ... : A-3 00 . ... : ... .. . ... : ... .. . ... ... : ... .. . ... ... : ... .. . ... ... : ... .. 8 P7F ...
ROW DB : ... .. A ... ... ... : ... .. 6 ... ... ... : ... .. . ... : ... .. . ... : ... .. . ... ... : ... .. . ... ... : ... .. . ... ... : ... .. . P7E ...
ROW DC : D#2 00 F ... ... ... : ... .. 3 ... ... ... : ... .. . ... : ... .. . ... : ... .. . ... ... : ... .. . ... ... : ... .. . ... ... : D#3 01 F P7F ...
ROW DD : ... .. E ... ... ... : ... .. 1 ... ... ... : ... .. . ... : ... .. . ... : ... .. . ... ... : ... .. . ... ... : ... .. . ... ... : ... .. D P80 ...
ROW DE : ... .. D ... ... ... : ... .. . ... ... ... : ... .. . ... : ... .. . ... : ... .. . ... ... : ... .. . ... ... : ... .. . ... ... : ... .. 8 P82 ...
ROW DF : ... .. A ... ... ... : ... .. 0 ... ... ... : --- .. . ... : ... .. . ... : ... .. . ... ... : ... .. . ... ... : ... .. . ... ... : ... .. . ... ...
ROW E0 : D-2 00 F ... ... ... : F#5 00 8 P80 ... ... : C#4 00 . ... : ... .. D ... : ... .. . ... ... : ... .. . ... ... : ... .. . ... ... : D-3 01 F P80 ...
ROW E1 : ... .. E ... ... ... : ... .. 6 ... ... ... : D#3 00 . ... : ... .. B ... : ... .. . ... ... : ... .. . ... ... : ... .. . ... ... : ... .. D P7F ...
ROW E2 : ... .. D ... ... ... : ... .. 3 ... ... ... : G#2 00 . ... : ... .. . ... : ... .. . ... ... : ... .. . ... ... : ... .. . ... ... : ... .. 8 P7E ...
ROW E3 : ... .. A ... ... ... : ... .. 1 ... ... ... : G-2 00 . ... : ... .. A ... : ... .. . ... ... : ... .. 1 ... ... : ... .. 1 ... ... : ... .. . P7F ...
ROW E4 : ... .. . ... ... ... : ... .. . ... ... ... : D-2 00 . ... : ... .. 8 ... : ... .. . ... ... : ... .. . ... ... : ... .. . ... ... : ... .. . P80 ...
ROW E5 : ... .. . ... ... ... : ... .. 0 ... ... ... : ... .. . ... : ... .. 7 ... : ... .. . ... ... : ... .. . ... ... : ... .. . ... ... : ... .. . P82 ...
ROW E6 : ... .. . ... ... ... : A-5 00 8 P80 ... ... : ... .. . ... : ... .. 6 ... : ... .. . ... ... : ... .. . ... ... : ... .. . ... ... : ... .. . ... ...
ROW E7 : ... .. . ... ... ... : ... .. 6 ... ... ... : ... .. . ... : ... .. . ... : ... .. . ... ... : ... .. . ... ... : ... .. . ... ... : ... .. . P80 ...
ROW E8 : ... .. . ... ... ... : ... .. 3 ... ... ... : ... .. . ... : ... .. 5 ... : ... .. . ... ... : ... .. . ... ... : ... .. . ... ... : ... .. . P7F ...
ROW E9 : ... .. . ... ... ... : ... .. 1 ... ... ... : ... .. . ... : ... .. . ... : ... .. . ... ... : ... .. . ... ... : ... .. . ... ... : ... .. . P7E ...
ROW EA : ... .. . ... ... ... : ... .. . ... ... ... : ... .. . ... : ... .. 4 ... : ... .. . ... ... : ... .. . ... ... : ... .. . ... ... : ... .. . P7F ...
ROW EB : ... .. . ... ... ... : ... .. 0 ... ... ... : --- .. . ... : ... .. . ... : ... .. . ... ... : ... .. . ... ... : ... .. . ... ... : ... .. . P80 ...
ROW EC : ... .. . ... ... ... : F#5 00 8 P80 ... ... : C-4 00 . ... : D-# 00 F ... : ... .. . ... ... : A-4 01 9 ... ... : C-4 01 9 ... ... : ... .. . P81 ...
ROW ED : ... .. . ... ... ... : ... .. 6 ... ... ... : ... .. . ... : ... .. C ... : ... .. . ... ... : ... .. 8 ... ... : ... .. 8 ... ... : ... .. . P82 ...
ROW EE : ... .. . ... ... ... : ... .. 3 ... ... ... : ... .. . ... : ... .. 6 ... : ... .. . ... ... : ... .. . ... ... : ... .. . ... ... : ... .. . P80 ...
ROW EF : ... .. . ... ... ... : ... .. 1 ... ... ... : ... .. . ... : ... .. 3 ... : ... .. . ... ... : --- .. . ... ... : --- .. . ... ... : ... .. . ... ...
ROW F0 : ... .. . ... ... ... : ... .. . ... ... ... : ... .. . ... : ... .. 2 ... : ... .. . ... ... : ... .. . ... ... : ... .. . ... ... : ... .. . P7E ...
ROW F1 : ... .. . ... ... ... : ... .. 0 ... ... ... : --- .. . ... : ... .. 0 ... : ... .. . ... ... : ... .. . ... ... : ... .. . ... ... : ... .. . P7F ...
ROW F2 : E-2 00 F ... ... ... : A-5 00 8 P80 ... ... : C-4 00 . ... : ... .. F ... : ... .. . ... ... : A-4 01 9 ... ... : C-4 01 9 ... ... : E-3 01 F P80 ...
ROW F3 : ... .. E ... ... ... : ... .. 6 ... ... ... : ... .. . ... : ... .. C ... : ... .. . ... ... : ... .. 8 ... ... : ... .. 8 ... ... : ... .. D P81 ...
ROW F4 : ... .. D ... ... ... : ... .. 3 ... ... ... : ... .. . ... : ... .. 6 ... : ... .. . ... ... : ... .. . ... ... : ... .. . ... ... : ... .. 8 P82 ...
ROW F5 : ... .. 0 ... ... ... : ... .. 1 ... ... ... : ... .. . ... : ... .. 3 ... : ... .. . ... ... : ... .. . ... ... : ... .. . ... ... : --- .. . P7F ...
ROW F6 : ... .. . ... ... ... : ... .. . ... ... ... : ... .. . ... : ... .. 2 ... : ... .. . ... ... : ... .. 7 ... ... : ... .. 7 ... ... : ... .. . ... ...
ROW F7 : ... .. . ... ... ... : ... .. 0 ... ... ... : --- .. . ... : ... .. 0 ... : ... .. . ... ... : ... .. . ... ... : ... .. . ... ... : ... .. . ... ...
ROW F8 : F#2 00 F P81 ... ... : F#5 00 8 P80 ... ... : C#4 00 . ... : B-# 00 D ... : ... .. . ... ... : ... .. . ... ... : ... .. . ... ... : F#3 01 F P7E ...
ROW F9 : ... .. E ... ... ... : ... .. 6 ... ... ... : D#3 00 . ... : ... .. B ... : ... .. . ... ... : ... .. 6 ... ... : ... .. 6 ... ... : ... .. D P80 ...
ROW FA : ... .. D ... ... ... : ... .. 3 ... ... ... : G#2 00 . ... : ... .. . ... : ... .. . ... ... : ... .. . ... ... : ... .. . ... ... : ... .. 8 P81 ...
ROW FB : ... .. A ... ... ... : ... .. 1 ... ... ... : G-2 00 . ... : ... .. A ... : ... .. . ... ... : --- .. . ... ... : --- .. . ... ... : ... .. . P82 ...
ROW FC : ... .. . ... ... ... : ... .. . ... ... ... : D-2 00 . ... : ... .. 8 ... : ... .. . ... ... : ... .. . ... ... : ... .. . ... ... : ... .. . P81 ...
ROW FD : ... .. . ... ... ... : ... .. 0 ... ... ... : ... .. . ... : ... .. 7 ... : ... .. . ... ... : ... .. . ... ... : ... .. . ... ... : ... .. . P80 ...
ROW FE : ... .. . ... ... ... : A-5 00 8 P80 ... ... : ... .. . ... : ... .. 6 ... : ... .. . ... ... : ... .. . ... ... : ... .. . ... ... : ... .. . P7E ...
ROW FF : ... .. 2 ... ... ... : ... .. 6 ... ... ... : ... .. . ... : ... .. . ... : ... .. . ... ... : ... .. . ... ... : ... .. . ... ... : ... .. 4 ... ...

PATTERN 05
ROW 00 : ... .. . ... ... ... : ... .. 3 ... ... ... : ... .. . ... : ... .. 5 ... : ... .. . ... ... : ... .. . ... ... : ... .. . ... ... : ... .. . P80 ...
ROW 01 : ... .. . ... ... ... : ... .. 1 ... ... ... : ... .. . ... : ... .. . ... : ... .. . ... ... : ... .. . ... ... : ... .. . ... ... : ... .. 1 P81 ...
ROW 02 : ... .. 1 ... ... ... : ... .. . ... ... ... : ... .. . ... : ... .. 4 ... : ... .. . ... ... : ... .. . ... ... : ... .. . ... ... : ... .. . P82 ...
ROW 03 : ... .. . ... ... ... : ... .. 0 ... ... ... : --- .. . ... : ... .. . ... : ... .. . ... ... : ... .. . ... ... : ... .. . ... ... : ... .. . P81 ...
ROW 04 : D-2 00 F ... ... ... : F#5 00 8 P80 ... ... : C-4 00 . ... : D-# 00 F ... : ... .. . ... ... : A-4 01 9 ... ... : C-4 01 9 ... ... : D-3 01 F P80 ...
ROW 05 : ... .. E ... ... ... : ... .. 6 ... ... ... : ... .. . ... : ... .. C ... : ... .. . ... ... : ... .. 8 ... ... : ... .. 8 ... ... : ... .. D P7E ...
ROW 06 : ... .. D ... ... ... : ... .. 3 ... ... ... : ... .. . ... : ... .. 6 ... : ... .. . ... ... : ... .. . ... ... : ... .. . ... ... : ... .. 8 ... ...
ROW 07 : ... .. A ... ... ... : ... .. 1 ... ... ... : ... .. . ... : ... .. 3 ... : ... .. . ... ... : --- .. . ... ... : --- .. . ... ... : ... .. . P80 ...
ROW 08 : ... .. . ... ... ... : ... .. . ... ... ... : ... .. . ... : ... .. 2 ... : ... .. . ... ... : ... .. . ... ... : ... .. . ... ... : ... .. . P81 ...
ROW 09 : ... .. . ... ... ... : ... .. 0 ... ... ... : --- .. . ... : ... .. 0 ... : ... .. . ... ... : ... .. . ... ... : ... .. . ... ... : ... .. . P82 ...
ROW 0A : ... .. 0 ... ... ... : A-5 00 8 P80 ... ... : C-4 00 . ... : ... .. F ... : ... .. . ... ... : A-4 01 9 ... ... : C-4 01 9 ... ... : --- .. . P7C ...
ROW 0B : ... .. . ... ... ... : ... .. 6 ... ... ... : ... .. . ... : ... .. C ... : ... .. . ... ... : ... .. 8 ... ... : ... .. 8 ... ... : ... .. . ... ...
ROW 0C : ... .. . ... ... ... : ... .. 3 ... ... ... : ... .. . ... : ... .. 6 ... : ... .. . ... ... : ... .. . ... ... : ... .. . ... ... : ... .. . ... ...
ROW 0D : ... .. . ... ... ... : ... .. 1 ... ... ... : ... .. . ... : ... .. 3 ... : ... .. . ... ... : ... .. . ... ... : ... .. . ... ... : ... .. . ... ...
ROW 0E : ... .. . ... ... ... : ... .. . ... ... ... : ... .. . ... : ... .. 2 ... : ... .. . ... ... : ... .. 7 ... ... : ... .. 7 ... ... : ... .. . ... ...
ROW 0F : ... .. . ... ... ... : ... .. 0 ... ... ... : --- .. . ... : ... .. 0 ... : ... .. . ... ... : ... .. . ... ... : ... .. . ... ... : ... .. . ... ...
ROW 10 : G-2 00 F P81 ... ... : G-5 00 8 P80 ... ... : F#4 00 . ... : B-# 00 D ... : ... .. . ... ... : ... .. . ... ... : ... .. . ... ... : G-3 01 F P82 ...
ROW 11 : ... .. E ... ... ... : ... .. 6 ... ... ... : G#3 00 . ... : ... .. B ... : ... .. . ... ... : ... .. 6 ... ... : ... .. 6 ... ... : ... .. D P81 ...
ROW 12 : ... .. D ... ... ... : ... .. 3 ... ... ... : C#3 00 . ... : ... .. . ... : ... .. . ... ... : ... .. . ... ... : ... .. . ... ... : ... .. 8 P80 ...
ROW 13 : ... .. A ... ... ... : ... .. 1 ... ... ... : C-3 00 . ... : ... .. A ... : ... .. . ... ... : --- .. . ... ... : --- .. . ... ... : ... .. . P7F ...
ROW 14 : ... .. . ... ... ... : ... .. . ... ... ... : G-2 00 . ... : ... .. 8 ... : ... .. . ... ... : ... .. . ... ... : ... .. . ... ... : ... .. . P7E ...
ROW 15 : ... .. . ... ... ... : ... .. 0 ... ... ... : ... .. . ... : ... .. 7 ... : ... .. . ... ... : ... .. . ... ... : ... .. . ... ... : ... .. . P7F ...
ROW 16 : F#2 00 F ... ... ... : A#5 00 8 P80 ... ... : ... .. . ... : ... .. 6 ... : ... .. . ... ... : ... .. . ... ... : ... .. . ... ... : F#3 01 F P80 ...
ROW 17 : ... .. E ... ... ... : ... .. 6 ... ... ... : ... .. . ... : ... .. . ... : ... .. . ... ... : ... .. . ... ... : ... .. . ... ... : ... .. D P82 ...
ROW 18 : ... .. D ... ... ... : ... .. 3 ... ... ... : ... .. . ... : ... .. 5 ... : ... .. . ... ... : ... .. . ... ... : ... .. . ... ... : ... .. 8 ... ...
ROW 19 : ... .. 0 ... ... ... : ... .. 1 ... ... ... : ... .. . ... : ... .. . ... : ... .. . ... ... : ... .. . ... ... : ... .. . ... ... : --- .. . P7E ...
ROW 1A : ... .. . ... ... ... : ... .. . ... ... ... : ... .. . ... : ... .. 4 ... : ... .. . ... ... : ... .. . ... ... : ... .. . ... ... : ... .. . ... ...
ROW 1B : ... .. . ... ... ... : ... .. 0 ... ... ... : --- .. . ... : ... .. . ... : ... .. . ... ... : ... .. . ... ... : ... .. . ... ... : ... .. . ... ...
ROW 1C : G-2 00 F P81 ... ... : G-5 00 8 P80 ... ... : A#3 00 . ... : ... .. D ... : ... .. . ... ... : G-4 01 9 ... ... : A#3 01 9 ... ... : G-3 01 F P7F ...
ROW 1D : ... .. E ... ... ... : ... .. 6 ... ... ... : ... .. . ... : ... .. B ... : ... .. . ... ... : ... .. 8 ... ... : ... .. 8 ... ... : ... .. D P80 ...
ROW 1E : ... .. D ... ... ... : ... .. 3 ... ... ... : ... .. . ... : ... .. . ... : ... .. . ... ... : ... .. . ... ... : ... .. . ... ... : ... .. 8 P82 ...
ROW 1F : ... .. 0 ... ... ... : ... .. 1 ... ... ... : ... .. . ... : ... .. A ... : ... .. . ... ... : --- .. . ... ... : --- .. . ... ... : --- .. . P81 ...
ROW 20 : ... .. . ... ... ... : ... .. . ... ... ... : ... .. . ... : ... .. 8 ... : ... .. . ... ... : ... .. . ... ... : ... .. . ... ... : ... .. . ... ...
ROW 21 : ... .. . ... ... ... : ... .. 0 ... ... ... : --- .. . ... : ... .. 7 ... : ... .. . ... ... : ... .. . ... ... : ... .. . ... ... : ... .. . ... ...
ROW 22 : A-2 00 F P81 ... ... : A#5 00 8 P80 ... ... : A#3 00 . ... : ... .. 6 ... : ... .. . ... ... : G-4 01 9 ... ... : A#3 01 9 ... ... : A-3 01 F P7E ...
ROW 23 : ... .. E ... ... ... : ... .. 6 ... ... ... : ... .. . ... : ... .. . ... : ... .. . ... ... : ... .. 8 ... ... : ... .. 8 ... ... : ... .. D P7F ...
ROW 24 : ... .. D ... ... ... : ... .. 3 ... ... ... : ... .. . ... : ... .. 5 ... : ... .. . ... ... : ... .. . ... ... : ... .. . ... ... : ... .. 8 P80 ...
ROW 25 : ... .. 0 ... ... ... : ... .. 1 ... ... ... : ... .. . ... : ... .. . ... : ... .. . ... ... : ... .. . ... ... : ... .. . ... ... : --- .. . P81 ...
ROW 26 : ... .. . ... ... ... : ... .. . ... ... ... : ... .. . ... : ... .. 4 ... : ... .. . ... ... : ... .. 7 ... ... : ... .. 7 ... ... : ... .. . ... ...
ROW 27 : ... .. . ... ... ... : ... .. 0 ... ... ... : --- .. . ... : ... .. . ... : ... .. . ... ... : ... .. . ... ... : ... .. . ... ... : ... .. . ... ...
ROW 28 : A#2 00 F P81 ... ... : G-5 00 8 P80 ... ... : F#4 00 . ... : ... .. D ... : ... .. . ... ... : ... .. . ... ... : ... .. . ... ... : A#3 01 F P7F ...
ROW 29 : ... .. E ... ... ... : ... .. 6 ... ... ... : G#3 00 . ... : ... .. B ... : ... .. . ... ... : ... .. 6 ... ... : ... .. 6 ... ... : ... .. D P7E ...
ROW 2A : ... .. D ... ... ... : ... .. 3 ... ... ... : C#3 00 . ... : ... .. . ... : ... .. . ... ... : ... .. . ... ... : ... .. . ... ... : ... .. 8 P7F ...
ROW 2B : ... .. A ... ... ... : ... .. 1 ... ... ... : C-3 00 . ... : ... .. A ... : ... .. . ... ... : --- .. . ... ... : --- .. . ... ... : ... .. . P80 ...
ROW 2C : ... .. . ... ... ... : ... .. . ... ... ... : G-2 00 . ... : ... .. 8 ... : ... .. . ... ... : ... .. . ... ... : ... .. . ... ... : ... .. . P81 ...
ROW 2D : ... .. . ... ... ... : ... .. 0 ... ... ... : ... .. . ... : ... .. 7 ... : ... .. . ... ... : ... .. . ... ... : ... .. . ... ... : ... .. . P82 ...
ROW 2E : ... .. . ... ... ... : A#5 00 8 P80 ... ... : ... .. . ... : ... .. 6 ... : ... .. . ... ... : ... .. . ... ... : ... .. . ... ... : ... .. . P80 ...
ROW 2F : ... .. . ... ... ... : ... .. 6 ... ... ... : ... .. . ... : ... .. . ... : ... .. . ... ... : ... .. . ... ... : ... .. . ... ... : ... .. . ... ...
ROW 30 : ... .. . ... ... ... : ... .. 3 ... ... ... : ... .. . ... : ... .. 5 ... : ... .. . ... ... : ... .. . ... ... : ... .. . ... ... : ... .. . P7E ...
ROW 31 : ... .. 0 ... ... ... : ... .. 1 ... ... ... : ... .. . ... : ... .. . ... : ... .. . ... ... : ... .. . ... ... : ... .. . ... ... : --- .. . P80 ...
ROW 32 : ... .. . ... ... ... : ... .. . ... ... ... : ... .. . ... : ... .. 4 ... : ... .. . ... ... : ... .. . ... ... : ... .. . ... ... : ... .. . ... ...
ROW 33 : ... .. . ... ... ... : ... .. 0 ... ... ... : --- .. . ... : ... .. . ... : ... .. . ... ... : ... .. . ... ... : ... .. . ... ... : ... .. . ... ...
ROW 34 : G-2 00 F P81 ... ... : G-5 00 8 P80 ... ... : A#3 00 . ... : D-# 00 F ... : ... .. . ... ... : G-4 01 9 ... ... : A#3 01 9 ... ... : G-3 01 F P82 ...
ROW 35 : ... .. E ... ... ... : ... .. 6 ... ... ... : ... .. . ... : ... .. C ... : ... .. . ... ... : ... .. 8 ... ... : ... .. 8 ... ... : ... .. D P81 ...
ROW 36 : ... .. D ... ... ... : ... .. 3 ... ... ... : ... .. . ... : ... .. 6 ... : ... .. . ... ... : ... .. . ... ... : ... .. . ... ... : ... .. 8 P80 ...
ROW 37 : ... .. A ... ... ... : ... .. 1 ... ... ... : ... .. . ... : ... .. 3 ... : ... .. . ... ... : --- .. . ... ... : --- .. . ... ... : ... .. . P7E ...
ROW 38 : ... .. . ... ... ... : ... .. . ... ... ... : ... .. . ... : ... .. 2 ... : ... .. . ... ... : ... .. . ... ... : ... .. . ... ... : ... .. . ... ...
ROW 39 : ... .. . ... ... ... : ... .. 0 ... ... ... : --- .. . ... : ... .. 0 ... : ... .. . ... ... : ... .. . ... ... : ... .. . ... ... : ... .. . P80 ...
ROW 3A : ... .. . ... ... ... : A#5 00 8 P80 ... ... : A#3 00 . ... : ... .. F ... : ... .. . ... ... : G-4 01 9 ... ... : A#3 01 9 ... ... : ... .. . P81 ...
ROW 3B : ... .. . ... ... ... : ... .. 6 ... ... ... : ... .. . ... : ... .. C ... : ... .. . ... ... : ... .. 8 ... ... : ... .. 8 ... ... : ... .. . P82 ...
ROW 3C : ... .. . ... ... ... : ... .. 3 ... ... ... : ... .. . ... : ... .. 6 ... : ... .. . ... ... : ... .. . ... ... : ... .. . ... ... : ... .. . P81 ...
ROW 3D : ... .. 0 ... ... ... : ... .. 1 ... ... ... : ... .. . ... : ... .. 3 ... : ... .. . ... ... : ... .. . ... ... : ... .. . ... ... : --- .. . P80 ...
ROW 3E : ... .. . ... ... ... : ... .. . ... ... ... : ... .. . ... : ... .. 2 ... : ... .. . ... ... : ... .. 7 ... ... : ... .. 7 ... ... : ... .. . ... ...
ROW 3F : ... .. . ... ... ... : ... .. 0 ... ... ... : --- .. . ... : ... .. 0 ... : ... .. . ... ... : ... .. . ... ... : ... .. . ... ... : ... .. . ... ...
ROW 40 : D-2 00 F P81 ... ... : F#5 00 8 P80 ... ... : C#4 00 . ... : B-# 00 D ... : ... .. . ... ... : ... .. . ... ... : ... .. . ... ... : D-3 01 F ... ...
ROW 41 : ... .. E ... ... ... : ... .. 6 ... ... ... : D#3 00 . ... : ... .. B ... : ... .. . ... ... : ... .. 6 ... ... : ... .. 6 ... ... : ... .. D P81 ...
ROW 42 : ... .. D ... ... ... : ... .. 3 ... ... ... : G#2 00 . ... : ... .. . ... : ... .. . ... ... : ... .. . ... ... : ... .. . ... ... : ... .. 8 P82 ...
ROW 43 : ... .. A ... ... ... : ... .. 1 ... ... ... : G-2 00 . ... : ... .. A ... : ... .. . ... ... : --- .. . ... ... : --- .. . ... ... : ... .. . P81 ...
ROW 44 : ... .. . ... ... ... : ... .. . ... ... ... : D-2 00 . ... : ... .. 8 ... : ... .. . ... ... : ... .. . ... ... : ... .. . ... ... : ... .. . P80 ...
ROW 45 : ... .. . ... ... ... : ... .. 0 ... ... ... : ... .. . ... : ... .. 7 ... : ... .. . ... ... : ... .. . ... ... : ... .. . ... ... : ... .. . P7E ...
ROW 46 : ... .. . ... ... ... : A-5 00 8 P80 ... ... : ... .. . ... : ... .. 6 ... : ... .. . ... ... : ... .. . ... ... : ... .. . ... ... : ... .. . ... ...
ROW 47 : ... .. . ... ... ... : ... .. 6 ... ... ... : ... .. . ... : ... .. . ... : ... .. . ... ... : ... .. . ... ... : ... .. . ... ... : ... .. . P80 ...
ROW 48 : ... .. . ... ... ... : ... .. 3 ... ... ... : ... .. . ... : ... .. 5 ... : ... .. . ... ... : ... .. . ... ... : ... .. . ... ... : ... .. . P81 ...
ROW 49 : ... .. . ... ... ... : ... .. 1 ... ... ... : ... .. . ... : ... .. . ... : ... .. . ... ... : ... .. . ... ... : ... .. . ... ... : ... .. . P82 ...
ROW 4A : ... .. . ... ... ... : ... .. . ... ... ... : ... .. . ... : ... .. 4 ... : ... .. . ... ... : ... .. . ... ... : ... .. . ... ... : ... .. . P81 ...
ROW 4B : ... .. . ... ... ... : ... .. 0 ... ... ... : --- .. . ... : ... .. . ... : ... .. . ... ... : ... .. . ... ... : ... .. . ... ... : ... .. . P80 ...
ROW 4C : ... .. . ... ... ... : F#5 00 8 P80 ... ... : C-4 00 . ... : D-# 00 F ... : ... .. . ... ... : F#4 01 9 ... ... : C-4 01 9 ... ... : ... .. . P7F ...
ROW 4D : ... .. . ... ... ... : ... .. 6 ... ... ... : ... .. . ... : ... .. C ... : ... .. . ... ... : ... .. 8 ... ... : ... .. 8 ... ... : ... .. . P7E ...
ROW 4E : ... .. . ... ... ... : ... .. 3 ... ... ... : ... .. . ... : ... .. 6 ... : ... .. . ... ... : ... .. . ... ... : ... .. . ... ... : ... .. . P80 ...
ROW 4F : ... .. 0 ... ... ... : ... .. 1 ... ... ... : ... .. . ... : ... .. 3 ... : ... .. . ... ... : --- .. . ... ... : --- .. . ... ... : --- .. . P84 ...
ROW 50 : ... .. . ... ... ... : ... .. . ... ... ... : ... .. . ... : ... .. 2 ... : ... .. . ... ... : ... .. . ... ... : ... .. . ... ... : ... .. . ... ...
ROW 51 : ... .. . ... ... ... : ... .. 0 ... ... ... : --- .. . ... : ... .. 0 ... : ... .. . ... ... : ... .. . ... ... : ... .. . ... ... : ... .. . ... ...
ROW 52 : E-2 00 F P81 ... ... : A-5 00 8 P80 ... ... : C-4 00 . ... : ... .. F ... : ... .. . ... ... : F#4 01 9 ... ... : C-4 01 9 ... ... : E-3 01 F P80 ...
ROW 53 : ... .. E ... ... ... : ... .. 6 ... ... ... : ... .. . ... : ... .. C ... : ... .. . ... ... : ... .. 8 ... ... : ... .. 8 ... ... : ... .. D P7F ...
ROW 54 : ... .. D ... ... ... : ... .. 3 ... ... ... : ... .. . ... : ... .. 6 ... : ... .. . ... ... : ... .. . ... ... : ... .. . ... ... : ... .. 8 P7E ...
ROW 55 : ... .. 0 ... ... ... : ... .. 1 ... ... ... : ... .. . ... : ... .. 3 ... : ... .. . ... ... : ... .. . ... ... : ... .. . ... ... : --- .. . P83 ...
ROW 56 : ... .. . ... ... ... : ... .. . ... ... ... : ... .. . ... : ... .. 2 ... : ... .. . ... ... : ... .. 7 ... ... : ... .. 7 ... ... : ... .. . ... ...
ROW 57 : ... .. . ... ... ... : ... .. 0 ... ... ... : --- .. . ... : ... .. 0 ... : ... .. . ... ... : ... .. . ... ... : ... .. . ... ... : ... .. . ... ...
ROW 58 : F#2 00 F P81 ... ... : F#5 00 8 P80 ... ... : C#4 00 . ... : B-# 00 D ... : ... .. . ... ... : ... .. . ... ... : ... .. . ... ... : F#3 01 F P82 ...
ROW 59 : ... .. E ... ... ... : ... .. 6 ... ... ... : D#3 00 . ... : ... .. B ... : ... .. . ... ... : ... .. 6 ... ... : ... .. 6 ... ... : ... .. D P80 ...
ROW 5A : ... .. D ... ... ... : ... .. 3 ... ... ... : G#2 00 . ... : ... .. . ... : ... .. . ... ... : ... .. . ... ... : ... .. . ... ... : ... .. 8 P7F ...
ROW 5B : ... .. A ... ... ... : ... .. 1 ... ... ... : G-2 00 . ... : ... .. A ... : ... .. . ... ... : --- .. . ... ... : --- .. . ... ... : ... .. . P7E ...
ROW 5C : ... .. . ... ... ... : ... .. . ... ... ... : D-2 00 . ... : ... .. 8 ... : ... .. . ... ... : ... .. . ... ... : ... .. . ... ... : ... .. . P7F ...
ROW 5D : ... .. . ... ... ... : ... .. 0 ... ... ... : ... .. . ... : ... .. 7 ... : ... .. . ... ... : ... .. . ... ... : ... .. . ... ... : ... .. . P80 ...
ROW 5E : ... .. . ... ... ... : A-5 00 8 P80 ... ... : ... .. . ... : ... .. 6 ... : ... .. . ... ... : ... .. . ... ... : ... .. . ... ... : ... .. . P82 ...
ROW 5F : ... .. . ... ... ... : ... .. 6 ... ... ... : ... .. . ... : ... .. . ... : ... .. . ... ... : ... .. . ... ... : ... .. . ... ... : ... .. . ... ...
ROW 60 : ... .. . ... ... ... : ... .. 3 ... ... ... : ... .. . ... : ... .. 5 ... : ... .. . ... ... : ... .. . ... ... : ... .. . ... ... : ... .. . P80 ...
ROW 61 : ... .. . ... ... ... : ... .. 1 ... ... ... : ... .. . ... : ... .. . ... : ... .. . ... ... : ... .. . ... ... : ... .. . ... ... : ... .. . P7F ...
ROW 62 : ... .. . ... ... ... : ... .. . ... ... ... : ... .. . ... : ... .. 4 ... : ... .. . ... ... : ... .. . ... ... : ... .. . ... ... : ... .. . P7E ...
ROW 63 : ... .. . ... ... ... : ... .. 0 ... ... ... : --- .. . ... : ... .. . ... : ... .. . ... ... : ... .. . ... ... : ... .. . ... ... : ... .. . P7F ...
ROW 64 : A-2 00 F ... ... ... : F#5 00 8 P80 ... ... : C-4 00 . ... : D-# 00 F ... : ... .. . ... ... : F#4 01 9 ... ... : C-4 01 9 ... ... : A-3 01 F P80 ...
ROW 65 : ... .. E ... ... ... : ... .. 6 ... ... ... : ... .. . ... : ... .. C ... : ... .. . ... ... : ... .. 8 ... ... : ... .. 8 ... ... : ... .. D P82 ...
ROW 66 : ... .. D ... ... ... : ... .. 3 ... ... ... : ... .. . ... : ... .. 6 ... : ... .. . ... ... : ... .. . ... ... : ... .. . ... ... : ... .. 8 ... ...
ROW 67 : ... .. A ... ... ... : ... .. 1 ... ... ... : ... .. . ... : ... .. 3 ... : ... .. . ... ... : --- .. . ... ... : --- .. . ... ... : ... .. . P80 ...
ROW 68 : ... .. . ... ... ... : ... .. . ... ... ... : ... .. . ... : ... .. 2 ... : ... .. . ... ... : ... .. . ... ... : ... .. . ... ... : ... .. . P7F ...
ROW 69 : ... .. . ... ... ... : ... .. 0 ... ... ... : --- .. . ... : ... .. 0 ... : ... .. . ... ... : ... .. . ... ... : ... .. . ... ... : ... .. . P7E ...
ROW 6A : ... .. . ... ... ... : A-5 00 8 P80 ... ... : C-4 00 . ... : ... .. F ... : ... .. . ... ... : F#4 01 9 ... ... : C-4 01 9 ... ... : ... .. . P7F ...
ROW 6B : ... .. . ... ... ... : ... .. 6 ... ... ... : ... .. . ... : ... .. C ... : ... .. . ... ... : ... .. 8 ... ... : ... .. 8 ... ... : ... .. . P80 ...
ROW 6C : ... .. . ... ... ... : ... .. 3 ... ... ... : ... .. . ... : ... .. 6 ... : ... .. . ... ... : ... .. . ... ... : ... .. . ... ... : ... .. . P81 ...
ROW 6D : ... .. 0 ... ... ... : ... .. 1 ... ... ... : ... .. . ... : ... .. 3 ... : ... .. . ... ... : --- .. . ... ... : ... .. . ... ... : --- .. . P80 ...
ROW 6E : ... .. . ... ... ... : ... .. . ... ... ... : ... .. . ... : ... .. 2 ... : ... .. . ... ... : ... .. . ... ... : ... .. 7 ... ... : ... .. . ... ...
ROW 6F : ... .. . ... ... ... : ... .. 0 ... ... ... : --- .. . ... : ... .. 0 ... : ... .. . ... ... : ... .. . ... ... : ... .. . ... ... : ... .. . ... ...
ROW 70 : A#2 00 F P81 ... ... : G-5 00 8 P80 ... ... : F#5 00 . ... : B-# 00 D ... : ... .. . ... ... : F#4 01 9 ... ... : A#3 01 9 ... ... : A#3 01 F P7E ...
ROW 71 : ... .. E ... ... ... : ... .. 6 ... ... ... : G#4 00 . ... : ... .. B ... : ... .. . ... ... : ... .. 8 ... ... : ... .. 8 ... ... : ... .. D P7F ...
ROW 72 : ... .. D ... ... ... : ... .. 3 ... ... ... : C#4 00 . ... : ... .. . ... : ... .. . ... ... : ... .. . ... ... : ... .. . ... ... : ... .. 8 P80 ...
ROW 73 : ... .. A ... ... ... : ... .. 1 ... ... ... : C-4 00 . ... : ... .. A ... : ... .. . ... ... : ... .. . ... ... : ... .. . ... ... : ... .. . P81 ...
ROW 74 : ... .. . ... ... ... : ... .. . ... ... ... : G-3 00 . ... : ... .. 8 ... : ... .. . ... ... : ... .. 7 ... ... : ... .. 7 ... ... : ... .. . P82 ...
ROW 75 : ... .. . ... ... ... : ... .. 0 ... ... ... : ... .. . ... : ... .. 7 ... : ... .. . ... ... : ... .. . ... ... : ... .. . ... ... : ... .. . P81 ...
ROW 76 : ... .. . ... ... ... : A#5 00 8 P80 ... ... : ... .. . ... : ... .. 6 ... : ... .. . ... ... : ... .. . ... ... : ... .. . ... ... : ... .. . P80 ...
ROW 77 : ... .. . ... ... ... : ... .. 6 ... ... ... : ... .. . ... : ... .. . ... : ... .. . ... ... : ... .. 6 ... ... : ... .. 6 ... ... : ... .. . P7E ...
ROW 78 : ... .. . ... ... ... : ... .. 3 ... ... ... : ... .. . ... : ... .. 5 ... : ... .. . ... ... : ... .. . ... ... : ... .. . ... ... : ... .. . ... ...
ROW 79 : ... .. . ... ... ... : ... .. 1 ... ... ... : ... .. . ... : ... .. . ... : ... .. . ... ... : ... .. . ... ... : ... .. . ... ... : ... .. . P80 ...
ROW 7A : ... .. . ... ... ... : ... .. . ... ... ... : ... .. . ... : ... .. 4 ... : ... .. . ... ... : ... .. . ... ... : ... .. . ... ... : ... .. . P81 ...
ROW 7B : ... .. . ... ... ... : ... .. 0 ... ... ... : ... .. . ... : ... .. . ... : ... .. . ... ... : ... .. . ... ... : ... .. . ... ... : ... .. . P82 ...
ROW 7C : A-2 00 F ... ... ... : F#5 00 8 P80 ... ... : F-5 00 . ... : ... .. D ... : ... .. . ... ... : F-4 01 9 ... ... : A-3 01 9 ... ... : A-3 01 F P81 ...
ROW 7D : ... .. E ... ... ... : ... .. 6 ... ... ... : G-4 00 . ... : ... .. B ... : ... .. . ... ... : ... .. 8 ... ... : ... .. 8 ... ... : ... .. D P80 ...
ROW 7E : ... .. D ... ... ... : ... .. 3 ... ... ... : C-4 00 . ... : ... .. . ... : ... .. . ... ... : ... .. . ... ... : ... .. . ... ... : ... .. 8 P7E ...
ROW 7F : ... .. A ... ... ... : ... .. 1 ... ... ... : B-3 00 . ... : ... .. A ... : ... .. . ... ... : ... .. . ... ... : ... .. . ... ... : ... .. . ... ...
ROW 80 : ... .. . ... ... ... : ... .. . ... ... ... : F#3 00 . ... : ... .. 8 ... : ... .. . ... ... : ... .. 7 ... ... : ... .. 7 ... ... : ... .. . P80 ...
ROW 81 : ... .. . ... ... ... : ... .. 0 ... ... ... : ... .. . ... : ... .. 7 ... : ... .. . ... ... : ... .. . ... ... : ... .. . ... ... : ... .. . P81 ...
ROW 82 : ... .. . ... ... ... : A-5 00 8 P80 ... ... : ... .. . ... : ... .. 6 ... : ... .. . ... ... : ... .. . ... ... : ... .. . ... ... : ... .. . P82 ...
ROW 83 : ... .. . ... ... ... : ... .. 6 ... ... ... : ... .. . ... : ... .. . ... : ... .. . ... ... : ... .. 6 ... ... : ... .. 6 ... ... : ... .. . P81 ...
ROW 84 : ... .. . ... ... ... : ... .. 3 ... ... ... : ... .. . ... : ... .. 5 ... : ... .. . ... ... : ... .. . ... ... : ... .. . ... ... : ... .. . P80 ...
ROW 85 : ... .. . ... ... ... : ... .. 1 ... ... ... : ... .. . ... : ... .. . ... : ... .. . ... ... : ... .. . ... ... : ... .. . ... ... : ... .. . P7E ...
ROW 86 : ... .. . ... ... ... : ... .. . ... ... ... : ... .. . ... : ... .. 4 ... : ... .. . ... ... : ... .. . ... ... : ... .. . ... ... : ... .. . ... ...
ROW 87 : ... .. . ... ... ... : ... .. 0 ... ... ... : ... .. . ... : ... .. . ... : ... .. . ... ... : ... .. . ... ... : ... .. . ... ... : ... .. . P80 ...
ROW 88 : G#2 00 F ... ... ... : F-5 00 8 P80 ... ... : E-5 00 . ... : ... .. D ... : ... .. . ... ... : E-4 01 9 ... ... : G#3 01 9 ... ... : G#3 01 F P81 ...
ROW 89 : ... .. E ... ... ... : ... .. 6 ... ... ... : F#4 00 . ... : ... .. B ... : ... .. . ... ... : ... .. 8 ... ... : ... .. 8 ... ... : ... .. D P82 ...
ROW 8A : ... .. D ... ... ... : ... .. 3 ... ... ... : B-3 00 . ... : ... .. . ... : ... .. . ... ... : ... .. . ... ... : ... .. . ... ... : ... .. 8 P81 ...
ROW 8B : ... .. A ... ... ... : ... .. 1 ... ... ... : A#3 00 . ... : ... .. A ... : ... .. . ... ... : ... .. . ... ... : ... .. . ... ... : ... .. . P80 ...
ROW 8C : ... .. . ... ... ... : ... .. . ... ... ... : F-3 00 . ... : ... .. 8 ... : ... .. . ... ... : ... .. 7 ... ... : ... .. 7 ... ... : ... .. . P7F ...
ROW 8D : ... .. . ... ... ... : ... .. 0 ... ... ... : ... .. . ... : ... .. 7 ... : ... .. . ... ... : ... .. . ... ... : ... .. . ... ... : ... .. . P7E ...
ROW 8E : ... .. . ... ... ... : G#5 00 8 P80 ... ... : ... .. . ... : ... .. 6 ... : ... .. . ... ... : ... .. . ... ... : ... .. . ... ... : ... .. . P80 ...
ROW 8F : ... .. . ... ... ... : ... .. 6 ... ... ... : ... .. . ... : ... .. . ... : ... .. . ... ... : ... .. 6 ... ... : ... .. 6 ... ... : ... .. . ... ...
ROW 90 : ... .. . ... ... ... : ... .. 3 ... ... ... : ... .. . ... : ... .. 5 ... : ... .. . ... ... : ... .. . ... ... : ... .. . ... ... : ... .. . P82 ...
ROW 91 : ... .. . ... ... ... : ... .. 1 ... ... ... : ... .. . ... : ... .. . ... : ... .. . ... ... : ... .. . ... ... : ... .. . ... ... : ... .. . P81 ...
ROW 92 : ... .. . ... ... ... : ... .. . ... ... ... : ... .. . ... : ... .. 4 ... : ... .. . ... ... : ... .. . ... ... : ... .. . ... ... : ... .. . P80 ...
ROW 93 : ... .. . ... ... ... : ... .. 0 ... ... ... : ... .. . ... : ... .. . ... : ... .. . ... ... : ... .. . ... ... : ... .. . ... ... : ... .. . P7F ...
ROW 94 : G-2 00 F ... ... ... : E-5 00 8 P80 ... ... : D#5 00 . ... : D-# 00 F ... : ... .. . ... ... : D#4 01 9 ... ... : G-3 01 9 ... ... : G-3 01 F P7E ...
ROW 95 : ... .. E ... ... ... : ... .. 6 ... ... ... : F-4 00 . ... : ... .. C ... : ... .. . ... ... : ... .. 8 ... ... : ... .. 8 ... ... : ... .. D P7F ...
ROW 96 : ... .. D ... ... ... : ... .. 3 ... ... ... : A#3 00 . ... : ... .. 6 ... : ... .. . ... ... : ... .. . ... ... : ... .. . ... ... : ... .. 8 P80 ...
ROW 97 : ... .. A ... ... ... : ... .. 1 ... ... ... : A-3 00 . ... : ... .. 3 ... : ... .. . ... ... : ... .. . ... ... : ... .. . ... ... : ... .. . P82 ...
ROW 98 : ... .. . ... ... ... : ... .. . ... ... ... : E-3 00 . ... : ... .. 2 ... : ... .. . ... ... : ... .. 7 ... ... : ... .. 7 ... ... : ... .. . ... ...
ROW 99 : ... .. . ... ... ... : ... .. 0 ... ... ... : ... .. . ... : ... .. 0 ... : ... .. . ... ... : ... .. . ... ... : ... .. . ... ... : ... .. . P80 ...
ROW 9A : ... .. . ... ... ... : G-5 00 8 P80 ... ... : ... .. . ... : ... .. F ... : ... .. . ... ... : ... .. . ... ... : ... .. . ... ... : ... .. . P7F ...
ROW 9B : ... .. . ... ... ... : ... .. 6 ... ... ... : ... .. . ... : ... .. C ... : ... .. . ... ... : ... .. 6 ... ... : ... .. 6 ... ... : ... .. . P7E ...
ROW 9C : ... .. . ... ... ... : ... .. 3 ... ... ... : ... .. . ... : ... .. 6 ... : ... .. . ... ... : ... .. . ... ... : ... .. . ... ... : ... .. . P7F ...
ROW 9D : ... .. . ... ... ... : ... .. 1 ... ... ... : ... .. . ... : ... .. 3 ... : ... .. . ... ... : ... .. . ... ... : ... .. . ... ... : ... .. . P80 ...
ROW 9E : ... .. . ... ... ... : ... .. . ... ... ... : ... .. . ... : ... .. 2 ... : ... .. . ... ... : ... .. . ... ... : ... .. . ... ... : ... .. . P82 ...
ROW 9F : ... .. . ... ... ... : ... .. 0 ... ... ... : ... .. . ... : ... .. 0 ... : ... .. . ... ... : ... .. . ... ... : ... .. . ... ... : ... .. . ... ...
ROW A0 : F#2 00 F ... ... ... : D-5 00 8 P80 ... ... : D-5 00 . ... : B-# 00 D ... : ... .. . ... ... : D-4 01 9 ... ... : F#3 01 9 ... ... : F#3 01 F P80 ...
ROW A1 : ... .. E ... ... ... : ... .. 6 ... ... ... : E-4 00 . ... : ... .. B ... : ... .. . ... ... : ... .. 8 ... ... : ... .. 8 ... ... : ... .. D P7F ...
ROW A2 : ... .. D ... ... ... : ... .. 3 ... ... ... : A-3 00 . ... : ... .. . ... : ... .. . ... ... : ... .. . ... ... : ... .. . ... ... : ... .. 8 P7E ...
ROW A3 : ... .. A ... ... ... : ... .. 1 ... ... ... : G#3 00 . ... : ... .. A ... : ... .. . ... ... : ... .. 7 ... ... : ... .. 7 ... ... : ... .. . P7F ...
ROW A4 : ... .. . ... ... ... : ... .. . ... ... ... : D#3 00 . ... : ... .. 8 ... : ... .. . ... ... : ... .. 6 ... ... : ... .. 6 ... ... : ... .. . P80 ...
ROW A5 : ... .. . ... ... ... : ... .. 0 ... ... ... : ... .. . ... : ... .. 7 ... : ... .. . ... ... : ... .. . ... ... : ... .. . ... ... : ... .. . P82 ...
ROW A6 : ... .. . ... ... ... : C-5 00 8 P80 ... ... : ... .. . ... : ... .. 6 ... : ... .. . ... ... : A#3 01 8 ... ... : G#3 01 8 ... ... : ... .. . ... ...
ROW A7 : ... .. . ... ... ... : ... .. 6 ... ... ... : ... .. . ... : ... .. . ... : ... .. . ... ... : ... .. 7 ... ... : ... .. 7 ... ... : ... .. . P80 ...
ROW A8 : ... .. . ... ... ... : ... .. 3 ... ... ... : ... .. . ... : ... .. 5 ... : ... .. . ... ... : ... .. . ... ... : ... .. . ... ... : ... .. . P7F ...
ROW A9 : ... .. . ... ... ... : ... .. 1 ... ... ... : ... .. . ... : ... .. . ... : ... .. . ... ... : --- .. . ... ... : --- .. . P82 ... : ... .. . P7E ...
ROW AA : ... .. . ... ... ... : ... .. . ... ... ... : ... .. . ... : ... .. 4 ... : ... .. . ... ... : ... .. . ... ... : ... .. . ... ... : ... .. . P7F ...
ROW AB : ... .. . ... ... ... : ... .. 0 ... ... ... : ... .. . ... : ... .. . ... : ... .. . ... ... : ... .. . ... ... : ... .. . ... ... : ... .. . P80 ...
ROW AC : ... .. . ... ... ... : G#4 00 8 P80 ... ... : ... .. . ... : D-# 00 F ... : ... .. . ... ... : C-4 01 8 ... ... : F#3 01 8 P80 ... : ... .. . P81 ...
ROW AD : ... .. . ... ... ... : ... .. 6 ... ... ... : ... .. . ... : ... .. C ... : ... .. . ... ... : ... .. 7 ... ... : ... .. 7 ... ... : ... .. . P82 ...
ROW AE : ... .. . ... ... ... : ... .. 3 ... ... ... : ... .. . ... : ... .. 6 ... : ... .. . ... ... : ... .. . ... ... : ... .. . ... ... : ... .. . P80 ...
ROW AF : ... .. 0 ... ... ... : ... .. 1 ... ... ... : ... .. . ... : ... .. 3 ... : ... .. . ... ... : --- .. . ... ... : --- .. . P7F ... : --- .. . P82 ...
ROW B0 : ... .. . ... ... ... : ... .. . ... ... ... : ... .. . ... : ... .. 2 ... : ... .. . ... ... : ... .. . ... ... : ... .. . ... ... : ... .. . ... ...
ROW B1 : ... .. . ... ... ... : ... .. 0 ... ... ... : ... .. . ... : ... .. 0 ... : ... .. . ... ... : ... .. . ... ... : ... .. . ... ... : ... .. . ... ...
ROW B2 : F-2 00 F P81 ... ... : F#4 00 8 P80 ... ... : ... .. . ... : ... .. F ... : ... .. . ... ... : D-4 01 7 ... ... : G#3 01 7 P80 ... : F-3 01 F P80 ...
ROW B3 : ... .. E ... ... ... : ... .. 6 ... ... ... : ... .. . ... : ... .. C ... : ... .. . ... ... : ... .. 6 ... ... : ... .. 6 ... ... : ... .. D P81 ...
ROW B4 : ... .. D ... ... ... : ... .. 3 ... ... ... : ... .. . ... : ... .. 6 ... : ... .. . ... ... : ... .. . ... ... : ... .. . ... ... : ... .. 8 P82 ...
ROW B5 : ... .. 0 ... ... ... : ... .. 1 ... ... ... : ... .. . ... : ... .. 3 ... : ... .. . ... ... : --- .. . ... ... : --- .. . P82 ... : --- .. . P81 ...
ROW B6 : ... .. . ... ... ... : ... .. . ... ... ... : ... .. . ... : ... .. 2 ... : ... .. . ... ... : ... .. . ... ... : ... .. . ... ... : ... .. . ... ...
ROW B7 : ... .. . ... ... ... : ... .. 0 ... ... ... : ... .. . ... : ... .. 0 ... : ... .. . ... ... : ... .. . ... ... : ... .. . ... ... : ... .. . ... ...
ROW B8 : F#2 00 F P81 ... ... : D-4 00 8 P80 ... ... : C#5 00 . ... : B-# 00 D ... : ... .. . ... ... : E-4 01 7 ... ... : A#3 01 7 P80 ... : F#3 01 F P7E ...
ROW B9 : ... .. E ... ... ... : ... .. 6 ... ... ... : D#4 00 . ... : ... .. B ... : ... .. . ... ... : ... .. 6 ... ... : ... .. 6 ... ... : ... .. D P80 ...
ROW BA : ... .. D ... ... ... : ... .. 3 ... ... ... : G#3 00 . ... : ... .. . ... : ... .. . ... ... : ... .. . ... ... : ... .. . ... ... : ... .. 8 P81 ...
ROW BB : ... .. A ... ... ... : ... .. 1 ... ... ... : G-3 00 . ... : ... .. A ... : ... .. . ... ... : ... .. . ... ... : ... .. . ... ... : ... .. . P82 ...
ROW BC : ... .. . ... ... ... : ... .. . ... ... ... : D-3 00 . ... : ... .. 8 ... : ... .. . ... ... : ... .. . ... ... : ... .. . ... ... : ... .. . P81 ...
ROW BD : ... .. . ... ... ... : ... .. 0 ... ... ... : ... .. . ... : ... .. 7 ... : ... .. . ... ... : ... .. . ... ... : ... .. . ... ... : ... .. . P80 ...
ROW BE : ... .. . ... ... ... : C-4 00 8 P80 ... ... : ... .. . ... : ... .. 6 ... : ... .. . ... ... : A#3 01 7 ... ... : C-4 01 7 ... ... : ... .. . P7E ...
ROW BF : ... .. . ... ... ... : ... .. 6 ... ... ... : ... .. . ... : ... .. . ... : ... .. . ... ... : ... .. 6 ... ... : ... .. 6 ... ... : ... .. . ... ...
ROW C0 : ... .. . ... ... ... : ... .. 3 ... ... ... : ... .. . ... : ... .. 5 ... : ... .. . ... ... : ... .. . ... ... : ... .. . ... ... : ... .. . P80 ...
ROW C1 : ... .. 0 ... ... ... : ... .. 1 ... ... ... : ... .. . ... : ... .. . ... : ... .. . ... ... : --- .. . ... ... : --- .. . ... ... : --- .. . P82 ...
ROW C2 : ... .. . ... ... ... : ... .. . ... ... ... : ... .. . ... : ... .. 4 ... : ... .. . ... ... : ... .. . ... ... : ... .. . ... ... : ... .. . ... ...
ROW C3 : ... .. . ... ... ... : ... .. 0 ... ... ... : ... .. . ... : ... .. . ... : ... .. . ... ... : ... .. . ... ... : ... .. . ... ... : ... .. . ... ...
ROW C4 : A#2 00 F P81 ... ... : D-4 00 8 P80 ... ... : ... .. . ... : D-# 00 F ... : ... .. . ... ... : C-4 01 7 ... ... : D-4 01 7 ... ... : A#3 01 F P80 ...
ROW C5 : ... .. E ... ... ... : ... .. 6 ... ... ... : ... .. . ... : ... .. C ... : ... .. . ... ... : ... .. 6 ... ... : ... .. 6 ... ... : ... .. D P7E ...
ROW C6 : ... .. D ... ... ... : ... .. 3 ... ... ... : ... .. . ... : ... .. 6 ... : ... .. . ... ... : ... .. . ... ... : ... .. . ... ... : ... .. 8 ... ...
ROW C7 : ... .. A ... ... ... : ... .. 1 ... ... ... : ... .. . ... : ... .. 3 ... : ... .. . ... ... : --- .. . ... ... : --- .. . ... ... : ... .. . P80 ...
ROW C8 : ... .. . ... ... ... : ... .. . ... ... ... : ... .. . ... : ... .. 2 ... : ... .. . ... ... : ... .. . ... ... : ... .. . ... ... : ... .. . P81 ...
ROW C9 : ... .. . ... ... ... : ... .. 0 ... ... ... : ... .. . ... : ... .. 0 ... : ... .. . ... ... : ... .. . ... ... : ... .. . ... ... : ... .. . P82 ...
ROW CA : ... .. . ... ... ... : F#4 00 8 P80 ... ... : ... .. . ... : ... .. F ... : ... .. . ... ... : D-4 01 6 ... ... : C-4 01 6 ... ... : ... .. . P81 ...
ROW CB : ... .. . ... ... ... : ... .. 6 ... ... ... : ... .. . ... : ... .. C ... : ... .. . ... ... : ... .. 5 ... ... : ... .. 5 ... ... : ... .. . P80 ...
ROW CC : ... .. . ... ... ... : ... .. 3 ... ... ... : ... .. . ... : ... .. 6 ... : ... .. . ... ... : ... .. . ... ... : ... .. . ... ... : ... .. . P7F ...
ROW CD : ... .. . ... ... ... : ... .. 1 ... ... ... : ... .. . ... : ... .. 3 ... : ... .. . ... ... : --- .. . ... ... : --- .. . ... ... : ... .. . P7E ...
ROW CE : ... .. . ... ... ... : ... .. . ... ... ... : ... .. . ... : ... .. 2 ... : ... .. . ... ... : ... .. . ... ... : ... .. . ... ... : ... .. . P80 ...
ROW CF : ... .. . ... ... ... : ... .. 0 ... ... ... : ... .. . ... : ... .. 0 ... : ... .. . ... ... : ... .. . ... ... : ... .. . ... ... : ... .. . ... ...
ROW D0 : C-3 00 F ... ... ... : G#4 00 8 P80 ... ... : C-5 00 . ... : B-# 00 D ... : ... .. . ... ... : E-4 01 6 ... ... : D-4 01 6 ... ... : C-4 01 F P82 ...
ROW D1 : ... .. E ... ... ... : ... .. 6 ... ... ... : D-4 00 . ... : ... .. B ... : ... .. . ... ... : ... .. 5 ... ... : ... .. 5 ... ... : ... .. D P81 ...
ROW D2 : ... .. D ... ... ... : ... .. 3 ... ... ... : G-3 00 . ... : ... .. . ... : ... .. . ... ... : ... .. . ... ... : ... .. . ... ... : ... .. 8 P80 ...
ROW D3 : ... .. A ... ... ... : ... .. 1 ... ... ... : F#3 00 . ... : ... .. A ... : ... .. . ... ... : ... .. . ... ... : ... .. . ... ... : ... .. . P7F ...
ROW D4 : ... .. . ... ... ... : ... .. . ... ... ... : C#3 00 . ... : ... .. 8 ... : ... .. . ... ... : ... .. . ... ... : ... .. . ... ... : ... .. . P7E ...
ROW D5 : ... .. . ... ... ... : ... .. 0 ... ... ... : ... .. . ... : ... .. 7 ... : ... .. . ... ... : ... .. . ... ... : ... .. . ... ... : ... .. . P7F ...
ROW D6 : A#2 00 F ... ... ... : E-4 00 8 P80 ... ... : ... .. . ... : ... .. 6 ... : ... .. . ... ... : C-4 01 6 ... ... : E-4 01 6 ... ... : A#3 01 F P80 ...
ROW D7 : ... .. E ... ... ... : ... .. 6 ... ... ... : ... .. . ... : ... .. . ... : ... .. . ... ... : ... .. 5 ... ... : ... .. 5 ... ... : ... .. D P82 ...
ROW D8 : ... .. D ... ... ... : ... .. 3 ... ... ... : ... .. . ... : ... .. 5 ... : ... .. . ... ... : ... .. . ... ... : ... .. . ... ... : ... .. 8 ... ...
ROW D9 : ... .. 0 ... ... ... : ... .. 1 ... ... ... : ... .. . ... : ... .. . ... : ... .. . ... ... : --- .. . ... ... : --- .. . ... ... : --- .. . P81 ...
ROW DA : ... .. . ... ... ... : ... .. . ... ... ... : ... .. . ... : ... .. 4 ... : ... .. . ... ... : ... .. . ... ... : ... .. . ... ... : ... .. . ... ...
ROW DB : ... .. . ... ... ... : ... .. 0 ... ... ... : ... .. . ... : ... .. . ... : ... .. . ... ... : ... .. . ... ... : ... .. . ... ... : ... .. . ... ...
ROW DC : C-3 00 F P81 ... ... : C-4 00 8 P80 ... ... : ... .. . ... : ... .. D ... : ... .. . ... ... : D-4 01 6 ... ... : F#4 01 6 ... ... : C-4 01 F P7F ...
ROW DD : ... .. E ... ... ... : ... .. 6 ... ... ... : ... .. . ... : ... .. B ... : ... .. . ... ... : ... .. 5 ... ... : ... .. 5 ... ... : ... .. D P80 ...
ROW DE : ... .. D ... ... ... : ... .. 3 ... ... ... : ... .. . ... : ... .. . ... : ... .. . ... ... : ... .. . ... ... : ... .. . ... ... : ... .. 8 P82 ...
ROW DF : ... .. 0 ... ... ... : ... .. 1 ... ... ... : ... .. . ... : ... .. A ... : ... .. . ... ... : --- .. . ... ... : --- .. . ... ... : --- .. . ... ...
ROW E0 : ... .. . ... ... ... : ... .. . ... ... ... : ... .. . ... : ... .. 8 ... : ... .. . ... ... : ... .. . ... ... : ... .. . ... ... : ... .. . ... ...
ROW E1 : ... .. . ... ... ... : ... .. 0 ... ... ... : ... .. . ... : ... .. 7 ... : ... .. . ... ... : ... .. . ... ... : ... .. . ... ... : ... .. . ... ...
ROW E2 : D-3 00 F P81 ... ... : G#3 00 8 P80 ... ... : ... .. . ... : ... .. 6 ... : ... .. . ... ... : E-4 01 6 ... ... : E-4 01 6 ... ... : D-4 01 F P7E ...
ROW E3 : ... .. E ... ... ... : ... .. 6 ... ... ... : ... .. . ... : ... .. . ... : ... .. . ... ... : ... .. 5 ... ... : ... .. 5 ... ... : ... .. D P7F ...
ROW E4 : ... .. D ... ... ... : ... .. 3 ... ... ... : ... .. . ... : ... .. 5 ... : ... .. . ... ... : ... .. . ... ... : ... .. . ... ... : ... .. 8 P80 ...
ROW E5 : ... .. 0 ... ... ... : ... .. 1 ... ... ... : ... .. . ... : ... .. . ... : ... .. . ... ... : --- .. . ... ... : --- .. . ... ... : --- .. . ... ...
ROW E6 : ... .. . ... ... ... : ... .. . ... ... ... : ... .. . ... : ... .. 4 ... : ... .. . ... ... : ... .. . ... ... : ... .. . ... ... : ... .. . ... ...
ROW E7 : ... .. . ... ... ... : ... .. 0 ... ... ... : ... .. . ... : ... .. . ... : ... .. . ... ... : ... .. . ... ... : ... .. . ... ... : ... .. . ... ...
ROW E8 : E-3 00 F P81 ... ... : C-4 00 8 P80 ... ... : B-4 00 . ... : ... .. D ... : ... .. . ... ... : F#4 01 5 ... ... : F#4 01 5 ... ... : E-4 01 F P7F ...
ROW E9 : ... .. E ... ... ... : ... .. 6 ... ... ... : C#4 00 . ... : ... .. B ... : ... .. . ... ... : ... .. 4 ... ... : ... .. 4 ... ... : ... .. D P7E ...
ROW EA : ... .. D ... ... ... : ... .. 3 ... ... ... : F#3 00 . ... : ... .. . ... : ... .. . ... ... : ... .. . ... ... : ... .. . ... ... : ... .. 8 P7F ...
ROW EB : ... .. A ... ... ... : ... .. 1 ... ... ... : F-3 00 . ... : ... .. A ... : ... .. . ... ... : ... .. . ... ... : ... .. . ... ... : ... .. . P80 ...
ROW EC : ... .. . ... ... ... : ... .. . ... ... ... : C-3 00 . ... : ... .. 8 ... : ... .. . ... ... : ... .. . ... ... : ... .. . ... ... : ... .. . P81 ...
ROW ED : ... .. . ... ... ... : ... .. 0 ... ... ... : ... .. . ... : ... .. 7 ... : ... .. . ... ... : ... .. . ... ... : ... .. . ... ... : ... .. . P82 ...
ROW EE : ... .. . ... ... ... : E-4 00 8 P80 ... ... : ... .. . ... : ... .. 6 ... : ... .. . ... ... : D-4 01 5 ... ... : G#4 01 5 ... ... : ... .. . P80 ...
ROW EF : ... .. . ... ... ... : ... .. 6 ... ... ... : ... .. . ... : ... .. . ... : ... .. . ... ... : ... .. 4 ... ... : ... .. 4 ... ... : ... .. . ... ...
ROW F0 : ... .. . ... ... ... : ... .. 3 ... ... ... : ... .. . ... : ... .. 5 ... : ... .. . ... ... : ... .. . ... ... : ... .. . ... ... : ... .. . P7E ...
ROW F1 : ... .. 0 ... ... ... : ... .. 1 ... ... ... : ... .. . ... : ... .. . ... : ... .. . ... ... : --- .. . ... ... : --- .. . ... ... : --- .. . ... ...
ROW F2 : ... .. . ... ... ... : ... .. . ... ... ... : ... .. . ... : ... .. 4 ... : ... .. . ... ... : ... .. . ... ... : ... .. . ... ... : ... .. . ... ...
ROW F3 : ... .. . ... ... ... : ... .. 0 ... ... ... : ... .. . ... : ... .. . ... : ... .. . ... ... : ... .. . ... ... : ... .. . ... ... : ... .. . ... ...
ROW F4 : A#2 00 F P81 ... ... : G#4 00 8 P80 ... ... : ... .. . ... : D-# 00 F ... : ... .. . ... ... : E-4 01 4 ... ... : A#4 01 4 ... ... : A#3 01 F P82 ...
ROW F5 : ... .. E ... ... ... : ... .. 6 ... ... ... : ... .. . ... : ... .. C ... : ... .. . ... ... : ... .. . ... ... : ... .. . ... ... : ... .. D P81 ...
ROW F6 : ... .. D ... ... ... : ... .. 3 ... ... ... : ... .. . ... : ... .. 6 ... : ... .. . ... ... : ... .. . ... ... : ... .. . ... ... : ... .. 8 P80 ...
ROW F7 : ... .. A ... ... ... : ... .. 1 ... ... ... : ... .. . ... : ... .. 3 ... : ... .. . ... ... : --- .. . ... ... : --- .. . ... ... : ... .. . P7E ...
ROW F8 : ... .. . ... ... ... : ... .. . ... ... ... : ... .. . ... : ... .. 2 ... : ... .. . ... ... : ... .. . ... ... : ... .. . ... ... : ... .. . ... ...
ROW F9 : ... .. . ... ... ... : ... .. 0 ... ... ... : ... .. . ... : ... .. 0 ... : ... .. . ... ... : ... .. . ... ... : ... .. . ... ... : ... .. . P80 ...
ROW FA : ... .. . ... ... ... : C-5 00 8 P80 ... ... : ... .. . ... : ... .. F ... : ... .. . ... ... : F#4 01 4 ... ... : G#4 01 4 ... ... : ... .. . P81 ...
ROW FB : ... .. . ... ... ... : ... .. 6 ... ... ... : ... .. . ... : ... .. C ... : ... .. . ... ... : ... .. . ... ... : ... .. . ... ... : ... .. . P82 ...
ROW FC : ... .. . ... ... ... : ... .. 3 ... ... ... : ... .. . ... : ... .. 6 ... : ... .. . ... ... : ... .. . ... ... : ... .. . ... ... : ... .. . P81 ...
ROW FD : ... .. 0 ... ... ... : ... .. 1 ... ... ... : ... .. . ... : ... .. 3 ... : ... .. . ... ... : --- .. . ... ... : --- .. . ... ... : --- .. . P80 ...
ROW FE : ... .. . ... ... ... : ... .. . ... ... ... : ... .. . ... : ... .. 2 ... : ... .. . ... ... : ... .. . ... ... : ... .. . ... ... : ... .. . ... ...
ROW FF : ... .. . ... ... ... : ... .. 0 ... ... ... : ... .. . ... : ... .. 0 ... : ... .. . ... ... : ... .. . ... ... : ... .. . ... ... : ... .. . ... ...

PATTERN 06
ROW 00 : E-3 00 F P81 ... ... : D-5 00 8 P80 ... ... : A#4 00 . ... : B-# 00 D ... : ... .. . ... ... : G#4 01 4 ... ... : A#4 01 4 ... ... : E-4 01 F ... ...
ROW 01 : ... .. E ... ... ... : ... .. 6 ... ... ... : C-4 00 . ... : ... .. B ... : ... .. . ... ... : ... .. . ... ... : ... .. . ... ... : ... .. D P81 ...
ROW 02 : ... .. D ... ... ... : ... .. 3 ... ... ... : F-3 00 . ... : ... .. . ... : ... .. . ... ... : ... .. . ... ... : ... .. . ... ... : ... .. 8 P82 ...
ROW 03 : ... .. A ... ... ... : ... .. 1 ... ... ... : E-3 00 . ... : ... .. A ... : ... .. . ... ... : ... .. . ... ... : ... .. . ... ... : ... .. . P81 ...
ROW 04 : ... .. . ... ... ... : ... .. . ... ... ... : B-2 00 . ... : ... .. 8 ... : ... .. . ... ... : ... .. 3 ... ... : ... .. 3 ... ... : ... .. . P80 ...
ROW 05 : ... .. . ... ... ... : ... .. 0 ... ... ... : ... .. . ... : ... .. 7 ... : ... .. . ... ... : ... .. . ... ... : ... .. . ... ... : ... .. . P7E ...
ROW 06 : D-3 00 F ... ... ... : A#4 00 8 P80 ... ... : ... .. . ... : ... .. 6 ... : ... .. . ... ... : E-4 01 4 ... ... : C-5 01 4 ... ... : D-4 01 F ... ...
ROW 07 : ... .. E ... ... ... : ... .. 6 ... ... ... : ... .. . ... : ... .. . ... : ... .. . ... ... : ... .. . ... ... : ... .. . ... ... : ... .. D P80 ...
ROW 08 : ... .. D ... ... ... : ... .. 3 ... ... ... : ... .. . ... : ... .. 5 ... : ... .. . ... ... : ... .. . ... ... : ... .. . ... ... : ... .. 8 P81 ...
ROW 09 : ... .. 0 ... ... ... : ... .. 1 ... ... ... : ... .. . ... : ... .. . ... : ... .. . ... ... : --- .. . ... ... : --- .. . ... ... : --- .. . ... ...
ROW 0A : ... .. . ... ... ... : ... .. . ... ... ... : ... .. . ... : ... .. 4 ... : ... .. . ... ... : ... .. . ... ... : ... .. . ... ... : ... .. . ... ...
ROW 0B : ... .. . ... ... ... : ... .. 0 ... ... ... : ... .. . ... : ... .. . ... : ... .. . ... ... : ... .. . ... ... : ... .. . ... ... : ... .. . ... ...
ROW 0C : E-3 00 F P81 ... ... : F#4 00 8 P80 ... ... : ... .. . ... : D-# 00 F ... : ... .. . ... ... : F#4 01 5 ... ... : D-5 01 5 ... ... : E-4 01 F P7F ...
ROW 0D : ... .. E ... ... ... : ... .. 6 ... ... ... : ... .. . ... : ... .. C ... : ... .. . ... ... : ... .. 4 ... ... : ... .. 4 ... ... : ... .. D P7E ...
ROW 0E : ... .. D ... ... ... : ... .. 3 ... ... ... : ... .. . ... : ... .. 6 ... : ... .. . ... ... : ... .. . ... ... : ... .. . ... ... : ... .. 8 P80 ...
ROW 0F : ... .. 0 ... ... ... : ... .. 1 ... ... ... : ... .. . ... : ... .. 3 ... : ... .. . ... ... : --- .. . ... ... : --- .. . ... ... : --- .. . ... ...
ROW 10 : ... .. . ... ... ... : ... .. . ... ... ... : ... .. . ... : ... .. 2 ... : ... .. . ... ... : ... .. . ... ... : ... .. . ... ... : ... .. . ... ...
ROW 11 : ... .. . ... ... ... : ... .. 0 ... ... ... : ... .. . ... : ... .. 0 ... : ... .. . ... ... : ... .. . ... ... : ... .. . ... ... : ... .. . ... ...
ROW 12 : F#3 00 F P81 ... ... : D-4 00 8 P80 ... ... : ... .. . ... : ... .. F ... : ... .. . ... ... : G#4 01 5 ... ... : C-5 01 5 ... ... : F#4 01 F ... ...
ROW 13 : ... .. E ... ... ... : ... .. 6 ... ... ... : ... .. . ... : ... .. C ... : ... .. . ... ... : ... .. 4 ... ... : ... .. 4 ... ... : ... .. D P7F ...
ROW 14 : ... .. D ... ... ... : ... .. 3 ... ... ... : ... .. . ... : ... .. 6 ... : ... .. . ... ... : ... .. . ... ... : ... .. . ... ... : ... .. 8 P7E ...
ROW 15 : ... .. 0 ... ... ... : ... .. 1 ... ... ... : ... .. . ... : ... .. 3 ... : ... .. . ... ... : --- .. . ... ... : --- .. . ... ... : --- .. . ... ...
ROW 16 : ... .. . ... ... ... : ... .. . ... ... ... : ... .. . ... : ... .. 2 ... : ... .. . ... ... : ... .. . ... ... : ... .. . ... ... : ... .. . ... ...
ROW 17 : ... .. . ... ... ... : ... .. 0 ... ... ... : ... .. . ... : ... .. 0 ... : ... .. . ... ... : ... .. . ... ... : ... .. . ... ... : ... .. . ... ...
ROW 18 : G#3 00 F P81 ... ... : F#4 00 8 P80 ... ... : A-4 00 . ... : B-# 00 D ... : ... .. . ... ... : A#4 01 6 ... ... : D-5 01 6 ... ... : G#4 01 F P82 ...
ROW 19 : ... .. E ... ... ... : ... .. 6 ... ... ... : B-3 00 . ... : ... .. B ... : ... .. . ... ... : ... .. 5 ... ... : ... .. 5 ... ... : ... .. D P80 ...
ROW 1A : ... .. D ... ... ... : ... .. 3 ... ... ... : E-3 00 . ... : ... .. . ... : ... .. . ... ... : ... .. . ... ... : ... .. . ... ... : ... .. 8 P7F ...
ROW 1B : ... .. A ... ... ... : ... .. 1 ... ... ... : D#3 00 . ... : ... .. A ... : ... .. . ... ... : ... .. . ... ... : ... .. . ... ... : ... .. . P7E ...
ROW 1C : ... .. . ... ... ... : ... .. . ... ... ... : A#2 00 . ... : ... .. 8 ... : ... .. . ... ... : ... .. 4 ... ... : ... .. 4 ... ... : ... .. . P7F ...
ROW 1D : ... .. . ... ... ... : ... .. 0 ... ... ... : ... .. . ... : ... .. 7 ... : ... .. . ... ... : ... .. . ... ... : ... .. . ... ... : ... .. . P80 ...
ROW 1E : ... .. . ... ... ... : A#4 00 8 P80 ... ... : ... .. . ... : ... .. 6 ... : ... .. . ... ... : F#4 01 6 ... ... : E-5 01 6 ... ... : ... .. . P82 ...
ROW 1F : ... .. . ... ... ... : ... .. 6 ... ... ... : ... .. . ... : ... .. . ... : ... .. . ... ... : ... .. 5 ... ... : ... .. 5 ... ... : ... .. . ... ...
ROW 20 : ... .. . ... ... ... : ... .. 3 ... ... ... : ... .. . ... : ... .. 5 ... : ... .. . ... ... : ... .. . ... ... : ... .. . ... ... : ... .. . P80 ...
ROW 21 : ... .. 0 ... ... ... : ... .. 1 ... ... ... : ... .. . ... : ... .. . ... : ... .. . ... ... : --- .. . ... ... : --- .. . ... ... : --- .. . ... ...
ROW 22 : ... .. . ... ... ... : ... .. . ... ... ... : ... .. . ... : ... .. 4 ... : ... .. . ... ... : ... .. . ... ... : ... .. . ... ... : ... .. . ... ...
ROW 23 : ... .. . ... ... ... : ... .. 0 ... ... ... : ... .. . ... : ... .. . ... : ... .. . ... ... : ... .. . ... ... : ... .. . ... ... : ... .. . ... ...
ROW 24 : C-3 00 F P81 ... ... : D-5 00 8 P80 ... ... : ... .. . ... : D-# 00 F ... : ... .. . ... ... : G#4 01 6 ... ... : F#5 01 6 ... ... : C-4 01 F ... ...
ROW 25 : ... .. E ... ... ... : ... .. 6 ... ... ... : ... .. . ... : ... .. C ... : ... .. . ... ... : ... .. 5 ... ... : ... .. 5 ... ... : ... .. D P82 ...
ROW 26 : ... .. D ... ... ... : ... .. 3 ... ... ... : ... .. . ... : ... .. 6 ... : ... .. . ... ... : ... .. . ... ... : ... .. . ... ... : ... .. 8 ... ...
ROW 27 : ... .. A ... ... ... : ... .. 1 ... ... ... : ... .. . ... : ... .. 3 ... : ... .. . ... ... : --- .. . ... ... : --- .. . ... ... : ... .. . P80 ...
ROW 28 : ... .. . ... ... ... : ... .. . ... ... ... : ... .. . ... : ... .. 2 ... : ... .. . ... ... : ... .. . ... ... : ... .. . ... ... : ... .. . P7F ...
ROW 29 : ... .. . ... ... ... : ... .. 0 ... ... ... : ... .. . ... : ... .. 0 ... : ... .. . ... ... : ... .. . ... ... : ... .. . ... ... : ... .. . P7E ...
ROW 2A : ... .. . ... ... ... : F#5 00 8 P80 ... ... : ... .. . ... : ... .. F ... : ... .. . ... ... : A#4 01 7 ... ... : E-5 01 7 ... ... : ... .. . P7F ...
ROW 2B : ... .. . ... ... ... : ... .. 6 ... ... ... : ... .. . ... : ... .. C ... : ... .. . ... ... : ... .. 6 ... ... : ... .. 6 ... ... : ... .. . P80 ...
ROW 2C : ... .. . ... ... ... : ... .. 3 ... ... ... : ... .. . ... : ... .. 6 ... : ... .. . ... ... : ... .. . ... ... : ... .. . ... ... : ... .. . P81 ...
ROW 2D : ... .. 0 ... ... ... : ... .. 1 ... ... ... : ... .. . ... : ... .. 3 ... : ... .. . ... ... : --- .. . ... ... : --- .. . ... ... : --- .. . ... ...
ROW 2E : ... .. . ... ... ... : ... .. . ... ... ... : ... .. . ... : ... .. 2 ... : ... .. . ... ... : ... .. . ... ... : ... .. . ... ... : ... .. . ... ...
ROW 2F : ... .. . ... ... ... : ... .. 0 ... ... ... : ... .. . ... : ... .. 0 ... : ... .. . ... ... : ... .. . ... ... : ... .. . ... ... : ... .. . ... ...
ROW 30 : A#3 00 F P81 ... ... : G#5 00 8 P80 ... ... : G#4 00 . ... : B-# 00 D ... : ... .. . ... ... : C-5 01 7 ... ... : F#5 01 7 ... ... : A#4 01 F P7E ...
ROW 31 : ... .. E ... ... ... : ... .. 6 ... ... ... : A#3 00 . ... : ... .. B ... : ... .. . ... ... : ... .. 6 ... ... : ... .. 6 ... ... : ... .. D P7F ...
ROW 32 : ... .. D ... ... ... : ... .. 3 ... ... ... : D#3 00 . ... : ... .. . ... : ... .. . ... ... : ... .. . ... ... : ... .. . ... ... : ... .. 8 P80 ...
ROW 33 : ... .. A ... ... ... : ... .. 1 ... ... ... : D-3 00 . ... : ... .. A ... : ... .. . ... ... : ... .. . ... ... : ... .. . ... ... : ... .. . P81 ...
ROW 34 : ... .. . ... ... ... : ... .. . ... ... ... : A-2 00 . ... : ... .. 8 ... : ... .. . ... ... : ... .. 5 ... ... : ... .. 5 ... ... : ... .. . P82 ...
ROW 35 : ... .. . ... ... ... : ... .. 0 ... ... ... : ... .. . ... : ... .. 7 ... : ... .. . ... ... : ... .. . ... ... : ... .. . ... ... : ... .. . P81 ...
ROW 36 : G#3 00 F ... ... ... : E-5 00 8 P80 ... ... : ... .. . ... : ... .. 6 ... : ... .. . ... ... : G#4 01 7 ... ... : F-5 01 7 ... ... : G#4 01 F P80 ...
ROW 37 : ... .. E ... ... ... : ... .. 6 ... ... ... : ... .. . ... : ... .. . ... : ... .. . ... ... : ... .. 6 ... ... : ... .. 6 ... ... : ... .. D P7E ...
ROW 38 : ... .. D ... ... ... : ... .. 3 ... ... ... : ... .. . ... : ... .. 5 ... : ... .. . ... ... : ... .. . ... ... : ... .. . ... ... : ... .. 8 ... ...
ROW 39 : ... .. 0 ... ... ... : ... .. 1 ... ... ... : ... .. . ... : ... .. . ... : ... .. . ... ... : --- .. . ... ... : --- .. . ... ... : --- .. . ... ...
ROW 3A : ... .. . ... ... ... : ... .. . ... ... ... : ... .. . ... : ... .. 4 ... : ... .. . ... ... : ... .. . ... ... : ... .. . ... ... : ... .. . ... ...
ROW 3B : ... .. . ... ... ... : ... .. 0 ... ... ... : ... .. . ... : ... .. . ... : ... .. . ... ... : ... .. . ... ... : ... .. . ... ... : ... .. . ... ...
ROW 3C : A#3 00 F P81 ... ... : G#5 00 8 P80 ... ... : ... .. . ... : ... .. 3 ... : ... .. . ... ... : A#4 01 7 ... ... : F#5 01 7 ... ... : A#4 01 F P81 ...
ROW 3D : ... .. E ... ... ... : ... .. 6 ... ... ... : ... .. . ... : ... .. 2 ... : ... .. . ... ... : ... .. 6 ... ... : ... .. 6 ... ... : ... .. D P80 ...
ROW 3E : ... .. D ... ... ... : ... .. 3 ... ... ... : ... .. . ... : ... .. . ... : ... .. . ... ... : ... .. . ... ... : ... .. . ... ... : ... .. 8 P7E ...
ROW 3F : ... .. 0 ... ... ... : ... .. 1 ... ... ... : ... .. . ... : D-# 00 5 ... : ... .. . ... ... : --- .. . ... ... : --- .. . ... ... : --- .. . ... ...
ROW 40 : ... .. . ... ... ... : ... .. . ... ... ... : ... .. . ... : ... .. 4 ... : ... .. . ... ... : ... .. . ... ... : ... .. . ... ... : ... .. . ... ...
ROW 41 : ... .. . ... ... ... : ... .. 0 ... ... ... : ... .. . ... : ... .. . ... : ... .. . ... ... : ... .. . ... ... : ... .. . ... ... : ... .. . ... ...
ROW 42 : C-4 00 F P81 ... ... : B-5 00 8 P80 ... ... : ... .. . ... : ... .. 6 ... : ... .. . ... ... : C-5 01 8 ... ... : G#5 01 8 ... ... : C-5 01 F P82 ...
ROW 43 : ... .. E ... ... ... : ... .. 6 ... ... ... : ... .. . ... : ... .. 5 ... : ... .. . ... ... : ... .. 7 ... ... : ... .. 7 ... ... : ... .. D P81 ...
ROW 44 : ... .. D ... ... ... : ... .. 3 ... ... ... : ... .. . ... : ... .. . ... : ... .. . ... ... : ... .. . ... ... : ... .. . ... ... : ... .. 8 P80 ...
ROW 45 : ... .. 0 ... ... ... : ... .. 1 ... ... ... : ... .. . ... : ... .. 8 ... : ... .. . ... ... : --- .. . ... ... : --- .. . ... ... : --- .. . ... ...
ROW 46 : ... .. . ... ... ... : ... .. . ... ... ... : ... .. . ... : ... .. 7 ... : ... .. . ... ... : ... .. . ... ... : ... .. . ... ... : ... .. . ... ...
ROW 47 : ... .. . ... ... ... : ... .. 0 ... ... ... : ... .. . ... : ... .. . ... : ... .. . ... ... : ... .. . ... ... : ... .. . ... ... : ... .. . ... ...
ROW 48 : D-4 00 F P81 ... ... : C#6 00 8 P80 ... ... : G-4 00 . ... : B-# 00 D ... : ... .. . ... ... : D-5 01 9 ... ... : A-5 01 9 ... ... : D-5 01 F P81 ...
ROW 49 : ... .. E ... ... ... : ... .. 6 ... ... ... : A-3 00 . ... : ... .. B ... : ... .. . ... ... : ... .. 8 ... ... : ... .. 8 ... ... : ... .. D P82 ...
ROW 4A : ... .. D ... ... ... : ... .. 3 ... ... ... : D-3 00 . ... : ... .. . ... : ... .. . ... ... : ... .. . ... ... : ... .. . ... ... : ... .. 8 P81 ...
ROW 4B : ... .. A ... ... ... : ... .. 1 ... ... ... : C#3 00 . ... : ... .. A ... : ... .. . ... ... : ... .. . ... ... : ... .. . ... ... : ... .. . P80 ...
ROW 4C : ... .. . ... ... ... : ... .. . ... ... ... : G#2 00 . ... : ... .. 8 ... : ... .. . ... ... : ... .. 7 ... ... : ... .. 7 ... ... : ... .. . P7F ...
ROW 4D : ... .. . ... ... ... : ... .. 0 ... ... ... : ... .. . ... : ... .. 7 ... : ... .. . ... ... : ... .. . ... ... : ... .. . ... ... : ... .. . P7E ...
ROW 4E : ... .. . ... ... ... : ... .. . ... ... ... : ... .. . ... : ... .. 6 ... : ... .. . ... ... : --- .. . ... ... : --- .. . ... ... : ... .. . P80 ...
ROW 4F : ... .. . ... ... ... : ... .. . ... ... ... : ... .. . ... : ... .. . ... : ... .. . ... ... : ... .. . ... ... : ... .. . ... ... : ... .. . ... ...
ROW 50 : ... .. . ... ... ... : ... .. . ... ... ... : ... .. . ... : ... .. 5 ... : ... .. . ... ... : ... .. . ... ... : ... .. . ... ... : ... .. . P82 ...
ROW 51 : ... .. . ... ... ... : ... .. . ... ... ... : ... .. . ... : ... .. . ... : ... .. . ... ... : ... .. . ... ... : ... .. . ... ... : ... .. . P81 ...
ROW 52 : ... .. . ... ... ... : ... .. . ... ... ... : ... .. . ... : ... .. 4 ... : ... .. . ... ... : ... .. . ... ... : ... .. . ... ... : ... .. . P80 ...
ROW 53 : ... .. . ... ... ... : ... .. . ... ... ... : ... .. . ... : ... .. . ... : ... .. . ... ... : ... .. . ... ... : ... .. . ... ... : ... .. . P7F ...
ROW 54 : D-2 00 F ... ... ... : ... .. . ... ... ... : ... .. . ... : ... .. 3 ... : ... .. . ... ... : D-5 01 9 ... ... : F#4 01 9 ... ... : D-3 01 F P7E ...
ROW 55 : ... .. E ... ... ... : ... .. . ... ... ... : ... .. . ... : ... .. 2 ... : ... .. . ... ... : ... .. 8 ... ... : ... .. 8 ... ... : ... .. D P7F ...
ROW 56 : ... .. D ... ... ... : ... .. . ... ... ... : ... .. . ... : ... .. . ... : ... .. . ... ... : ... .. . ... ... : ... .. . ... ... : ... .. 8 P80 ...
ROW 57 : ... .. A ... ... ... : ... .. . ... ... ... : ... .. . ... : ... .. 1 ... : ... .. . ... ... : ... .. . ... ... : ... .. . ... ... : ... .. . P82 ...
ROW 58 : ... .. . ... ... ... : ... .. . ... ... ... : ... .. . ... : ... .. 0 ... : ... .. . ... ... : ... .. 7 ... ... : ... .. 7 ... ... : ... .. . ... ...
ROW 59 : ... .. . ... ... ... : ... .. . ... ... ... : ... .. . ... : ... .. . ... : ... .. . ... ... : ... .. . ... ... : ... .. . ... ... : ... .. . P80 ...
ROW 5A : ... .. . ... ... ... : ... .. . ... ... ... : ... .. . ... : ... .. . ... : ... .. . ... ... : ... .. . ... ... : ... .. . ... ... : ... .. . P7F ...
ROW 5B : ... .. . ... ... ... : ... .. . ... ... ... : ... .. . ... : ... .. . ... : ... .. . ... ... : ... .. 6 ... ... : ... .. 6 ... ... : ... .. . P7E ...
ROW 5C : ... .. . ... ... ... : ... .. . ... ... ... : ... .. . ... : ... .. . ... : ... .. . ... ... : ... .. . ... ... : ... .. . ... ... : ... .. . P7F ...
ROW 5D : ... .. 0 ... ... ... : ... .. . ... ... ... : ... .. . ... : ... .. . ... : ... .. . ... ... : --- .. . ... ... : --- .. . ... ... : --- .. . P83 ...
ROW 5E : ... .. . ... ... ... : ... .. . ... ... ... : ... .. . ... : ... .. . ... : ... .. . ... ... : ... .. . ... ... : ... .. . ... ... : ... .. . ... ...
ROW 5F : ... .. . ... ... ... : ... .. . ... ... ... : ... .. . ... : ... .. . ... : ... .. . ... ... : ... .. . ... ... : ... .. . ... ... : ... .. . ... ...
ROW 60 : G-1 00 D P81 ... ... : D-5 00 6 P80 ... ... : F#4 00 . ... : C-# 00 4 ... : ... .. . ... ... : ... .. . ... ... : ... .. . ... ... : ... .. . ... ...
ROW 61 : ... .. B ... ... ... : ... .. 4 ... ... ... : G#3 00 . ... : ... .. 3 ... : ... .. . ... ... : ... .. . ... ... : ... .. . ... ... : ... .. . ... ...
ROW 62 : ... .. . ... ... ... : ... .. 2 ... ... ... : C#3 00 . ... : ... .. 1 ... : ... .. . ... ... : ... .. . ... ... : ... .. . ... ... : ... .. . ... ...
ROW 63 : ... .. A ... ... ... : ... .. 1 ... ... ... : C-3 00 . ... : ... .. . ... : ... .. . ... ... : ... .. . ... ... : ... .. . ... ... : ... .. . ... ...
ROW 64 : ... .. 8 ... ... ... : ... .. . ... ... ... : G-2 00 . ... : ... .. . ... : ... .. . ... ... : ... .. . ... ... : ... .. . ... ... : ... .. . ... ...
ROW 65 : ... .. 7 ... ... ... : ... .. 0 ... ... ... : ... .. . ... : ... .. 0 ... : ... .. . ... ... : ... .. . ... ... : ... .. . ... ... : ... .. . ... ...
ROW 66 : ... .. 6 ... ... ... : D#5 00 6 P80 ... ... : ... .. . ... : ... .. 8 ... : ... .. . ... ... : ... .. . ... ... : ... .. . ... ... : ... .. . ... ...
ROW 67 : ... .. . ... ... ... : ... .. 4 ... ... ... : ... .. . ... : ... .. 6 ... : ... .. . ... ... : ... .. . ... ... : ... .. . ... ... : ... .. . ... ...
ROW 68 : ... .. 5 ... ... ... : ... .. 2 ... ... ... : ... .. . ... : ... .. 3 ... : ... .. . ... ... : ... .. . ... ... : ... .. . ... ... : ... .. . ... ...
ROW 69 : ... .. . ... ... ... : ... .. 1 ... ... ... : ... .. . ... : ... .. 1 ... : ... .. . ... ... : ... .. . ... ... : ... .. . ... ... : ... .. . ... ...
ROW 6A : ... .. 4 ... ... ... : ... .. . ... ... ... : ... .. . ... : ... .. . ... : ... .. . ... ... : ... .. . ... ... : ... .. . ... ... : ... .. . ... ...
ROW 6B : ... .. . ... ... ... : ... .. 0 ... ... ... : ... .. . ... : ... .. 0 ... : ... .. . ... ... : ... .. . ... ... : ... .. . ... ... : ... .. . ... ...
ROW 6C : D-2 00 D ... ... ... : D-5 00 6 P80 ... ... : ... .. . ... : ... .. F ... : ... .. . ... ... : D-3 01 9 ... ... : A#3 01 9 ... ... : D-4 01 F ... ...
ROW 6D : ... .. B ... ... ... : ... .. 4 ... ... ... : ... .. . ... : ... .. C ... : ... .. . ... ... : ... .. 8 ... ... : ... .. 8 ... ... : ... .. D P82 ...
ROW 6E : ... .. . ... ... ... : ... .. 2 ... ... ... : ... .. . ... : ... .. 6 ... : ... .. . ... ... : ... .. . ... ... : ... .. . ... ... : ... .. 8 P80 ...
ROW 6F : ... .. 0 ... ... ... : ... .. 1 ... ... ... : ... .. . ... : ... .. 3 ... : ... .. . ... ... : ... .. . ... ... : ... .. . ... ... : ... .. . P7D ...
ROW 70 : ... .. . ... ... ... : ... .. . ... ... ... : ... .. . ... : ... .. 2 ... : ... .. . ... ... : ... .. 7 ... ... : ... .. 7 ... ... : ... .. . ... ...
ROW 71 : ... .. . ... ... ... : ... .. 0 ... ... ... : ... .. . ... : ... .. 0 ... : ... .. . ... ... : ... .. . ... ... : ... .. . ... ... : ... .. . P80 ...
ROW 72 : D-2 00 D P81 ... ... : D#5 00 6 P80 ... ... : --- .. . ... : ... .. 4 ... : ... .. . ... ... : --- .. . P82 ... : --- .. . ... ... : --- .. . ... ...
ROW 73 : ... .. B ... ... ... : ... .. 4 ... ... ... : ... .. . ... : ... .. 3 ... : ... .. . ... ... : ... .. . ... ... : ... .. . ... ... : ... .. . ... ...
ROW 74 : ... .. . ... ... ... : ... .. 2 ... ... ... : ... .. . ... : ... .. 1 ... : ... .. . ... ... : ... .. . ... ... : ... .. . ... ... : ... .. . ... ...
ROW 75 : ... .. 0 ... ... ... : ... .. 1 ... ... ... : ... .. . ... : ... .. . ... : ... .. . ... ... : ... .. . ... ... : ... .. . ... ... : ... .. . ... ...
ROW 76 : ... .. . ... ... ... : ... .. . ... ... ... : ... .. . ... : ... .. . ... : ... .. . ... ... : ... .. . ... ... : ... .. . ... ... : ... .. . ... ...
ROW 77 : ... .. . ... ... ... : ... .. 0 ... ... ... : ... .. . ... : ... .. 0 ... : ... .. . ... ... : ... .. . ... ... : ... .. . ... ... : ... .. . ... ...
ROW 78 : C#2 00 D P81 ... ... : D-5 00 6 P80 ... ... : C#4 00 . ... : ... .. 2 ... : ... .. . ... ... : ... .. . ... ... : ... .. . ... ... : C#4 01 F P81 ...
ROW 79 : ... .. B ... ... ... : ... .. 4 ... ... ... : D#3 00 . ... : ... .. 1 ... : ... .. . ... ... : ... .. . ... ... : ... .. . ... ... : ... .. D P83 ...
ROW 7A : ... .. . ... ... ... : ... .. 2 ... ... ... : G#2 00 . ... : ... .. . ... : ... .. . ... ... : ... .. . ... ... : ... .. . ... ... : ... .. 8 P82 ...
ROW 7B : ... .. A ... ... ... : ... .. 1 ... ... ... : G-2 00 . ... : ... .. . ... : ... .. . ... ... : ... .. . ... ... : ... .. . ... ... : ... .. . P7F ...
ROW 7C : ... .. 8 ... ... ... : ... .. . ... ... ... : D-2 00 . ... : ... .. . ... : ... .. . ... ... : ... .. . ... ... : ... .. . ... ... : ... .. . P7D ...
ROW 7D : ... .. 7 ... ... ... : ... .. 0 ... ... ... : ... .. . ... : ... .. 0 ... : ... .. . ... ... : ... .. . ... ... : ... .. . ... ... : ... .. . P7E ...
ROW 7E : ... .. D ... ... ... : D#5 00 6 P80 ... ... : ... .. . ... : ... .. 4 ... : ... .. . ... ... : ... .. . ... ... : ... .. . ... ... : ... .. . P80 ...
ROW 7F : ... .. B ... ... ... : ... .. 4 ... ... ... : ... .. . ... : ... .. 3 ... : ... .. . ... ... : ... .. . ... ... : ... .. . ... ... : ... .. . P83 ...
ROW 80 : ... .. . ... ... ... : ... .. 2 ... ... ... : ... .. . ... : ... .. 1 ... : ... .. . ... ... : ... .. . ... ... : ... .. . ... ... : ... .. . ... ...
ROW 81 : ... .. A ... ... ... : ... .. 1 ... ... ... : ... .. . ... : ... .. . ... : ... .. . ... ... : ... .. . ... ... : ... .. . ... ... : ... .. . P80 ...
ROW 82 : ... .. 8 ... ... ... : ... .. . ... ... ... : ... .. . ... : ... .. . ... : ... .. . ... ... : ... .. . ... ... : ... .. . ... ... : ... .. . P7D ...
ROW 83 : ... .. 7 ... ... ... : ... .. 0 ... ... ... : ... .. . ... : ... .. 0 ... : ... .. . ... ... : ... .. . ... ... : ... .. . ... ... : ... .. . ... ...
ROW 84 : D-2 00 D ... ... ... : D-5 00 6 P80 ... ... : ... .. . ... : ... .. F ... : ... .. . ... ... : C#3 01 9 P80 ... : A#3 01 9 ... ... : D-4 01 F P80 ...
ROW 85 : ... .. B ... ... ... : ... .. 4 ... ... ... : ... .. . ... : ... .. C ... : ... .. . ... ... : ... .. 8 ... ... : ... .. 8 ... ... : ... .. D P82 ...
ROW 86 : ... .. . ... ... ... : ... .. 2 ... ... ... : ... .. . ... : ... .. 6 ... : ... .. . ... ... : ... .. . ... ... : ... .. . ... ... : ... .. 8 P83 ...
ROW 87 : ... .. 0 ... ... ... : ... .. 1 ... ... ... : ... .. . ... : ... .. 3 ... : ... .. . ... ... : ... .. . ... ... : ... .. . ... ... : ... .. . P81 ...
ROW 88 : ... .. . ... ... ... : ... .. . ... ... ... : ... .. . ... : ... .. 2 ... : ... .. . ... ... : ... .. 7 ... ... : ... .. 7 ... ... : ... .. . P7F ...
ROW 89 : ... .. . ... ... ... : ... .. 0 ... ... ... : ... .. . ... : ... .. 0 ... : ... .. . ... ... : ... .. . ... ... : ... .. . ... ... : ... .. . P7D ...
ROW 8A : D-2 00 D P81 ... ... : D#5 00 6 P80 ... ... : --- .. . ... : ... .. F ... : ... .. . ... ... : --- .. . P83 ... : --- .. . ... ... : --- .. . ... ...
ROW 8B : ... .. B ... ... ... : ... .. 4 ... ... ... : ... .. . ... : ... .. C ... : ... .. . ... ... : ... .. . ... ... : ... .. . ... ... : ... .. . ... ...
ROW 8C : ... .. . ... ... ... : ... .. 2 ... ... ... : ... .. . ... : ... .. 6 ... : ... .. . ... ... : ... .. . ... ... : ... .. . ... ... : ... .. . ... ...
ROW 8D : ... .. 0 ... ... ... : ... .. 1 ... ... ... : ... .. . ... : ... .. 3 ... : ... .. . ... ... : ... .. . ... ... : ... .. . ... ... : ... .. . ... ...
ROW 8E : ... .. . ... ... ... : ... .. . ... ... ... : ... .. . ... : ... .. 2 ... : ... .. . ... ... : ... .. . ... ... : ... .. . ... ... : ... .. . ... ...
ROW 8F : ... .. . ... ... ... : ... .. 0 ... ... ... : ... .. . ... : ... .. 0 ... : ... .. . ... ... : ... .. . ... ... : ... .. . ... ... : ... .. . ... ...
ROW 90 : A#1 00 D P81 ... ... : D-5 00 6 P80 ... ... : A-4 00 . ... : ... .. 2 ... : ... .. . ... ... : ... .. . ... ... : ... .. . ... ... : D#4 01 F ... ...
ROW 91 : ... .. B ... ... ... : ... .. 4 ... ... ... : B-3 00 . ... : ... .. 1 ... : ... .. . ... ... : ... .. . ... ... : ... .. . ... ... : ... .. D P80 ...
ROW 92 : ... .. . ... ... ... : ... .. 2 ... ... ... : E-3 00 . ... : ... .. . ... : ... .. . ... ... : ... .. . ... ... : ... .. . ... ... : ... .. 8 P83 ...
ROW 93 : ... .. A ... ... ... : ... .. 1 ... ... ... : D#3 00 . ... : ... .. . ... : ... .. . ... ... : ... .. . ... ... : ... .. . ... ... : ... .. . ... ...
ROW 94 : ... .. 8 ... ... ... : ... .. . ... ... ... : A#2 00 . ... : ... .. . ... : ... .. . ... ... : ... .. . ... ... : ... .. . ... ... : ... .. . P80 ...
ROW 95 : ... .. 7 ... ... ... : ... .. 0 ... ... ... : ... .. . ... : ... .. 0 ... : ... .. . ... ... : ... .. . ... ... : ... .. . ... ... : ... .. . P7E ...
ROW 96 : ... .. D ... ... ... : D#5 00 6 P80 ... ... : ... .. . ... : ... .. 4 ... : ... .. . ... ... : ... .. . ... ... : ... .. . ... ... : ... .. . P7D ...
ROW 97 : ... .. B ... ... ... : ... .. 4 ... ... ... : ... .. . ... : ... .. 3 ... : ... .. . ... ... : ... .. . ... ... : ... .. . ... ... : ... .. . P7F ...
ROW 98 : ... .. . ... ... ... : ... .. 2 ... ... ... : ... .. . ... : ... .. 1 ... : ... .. . ... ... : ... .. . ... ... : ... .. . ... ... : ... .. . P81 ...
ROW 99 : ... .. A ... ... ... : ... .. 1 ... ... ... : ... .. . ... : ... .. . ... : ... .. . ... ... : ... .. . ... ... : ... .. . ... ... : ... .. . P83 ...
ROW 9A : ... .. 8 ... ... ... : ... .. . ... ... ... : ... .. . ... : ... .. . ... : ... .. . ... ... : ... .. . ... ... : ... .. . ... ... : ... .. . P82 ...
ROW 9B : ... .. 7 ... ... ... : ... .. 0 ... ... ... : ... .. . ... : ... .. 0 ... : ... .. . ... ... : ... .. . ... ... : ... .. . ... ... : ... .. . P7F ...
ROW 9C : C#2 00 D ... ... ... : E-5 00 6 P80 ... ... : ... .. . ... : ... .. F ... : ... .. . ... ... : D-3 01 9 P80 ... : A#3 01 9 ... ... : D-4 01 F P7D ...
ROW 9D : ... .. B ... ... ... : ... .. 4 ... ... ... : ... .. . ... : ... .. C ... : ... .. . ... ... : ... .. 8 ... ... : ... .. 8 ... ... : ... .. D P7E ...
ROW 9E : ... .. . ... ... ... : ... .. 2 ... ... ... : ... .. . ... : ... .. 6 ... : ... .. . ... ... : ... .. . ... ... : ... .. . ... ... : ... .. 8 P80 ...
ROW 9F : ... .. 0 ... ... ... : ... .. 1 ... ... ... : ... .. . ... : ... .. 3 ... : ... .. . ... ... : ... .. . ... ... : ... .. . ... ... : ... .. . P83 ...
ROW A0 : ... .. . ... ... ... : ... .. . ... ... ... : ... .. . ... : ... .. 2 ... : ... .. . ... ... : ... .. 7 ... ... : ... .. 7 ... ... : ... .. . ... ...
ROW A1 : ... .. . ... ... ... : ... .. 0 ... ... ... : ... .. . ... : ... .. 0 ... : ... .. . ... ... : ... .. . ... ... : ... .. . ... ... : ... .. . P80 ...
ROW A2 : C#2 00 D P81 ... ... : F-5 00 6 P80 ... ... : --- .. . ... : ... .. F ... : ... .. . ... ... : --- .. . P82 ... : --- .. . ... ... : --- .. . ... ...
ROW A3 : ... .. B ... ... ... : ... .. 4 ... ... ... : ... .. . ... : ... .. C ... : ... .. . ... ... : ... .. . ... ... : ... .. . ... ... : ... .. . ... ...
ROW A4 : ... .. . ... ... ... : ... .. 2 ... ... ... : ... .. . ... : ... .. 6 ... : ... .. . ... ... : ... .. . ... ... : ... .. . ... ... : ... .. . ... ...
ROW A5 : ... .. 0 ... ... ... : ... .. 1 ... ... ... : ... .. . ... : ... .. 3 ... : ... .. . ... ... : ... .. . ... ... : ... .. . ... ... : ... .. . ... ...
ROW A6 : ... .. . ... ... ... : ... .. . ... ... ... : ... .. . ... : ... .. 2 ... : ... .. . ... ... : ... .. . ... ... : ... .. . ... ... : ... .. . ... ...
ROW A7 : ... .. . ... ... ... : ... .. 0 ... ... ... : ... .. . ... : ... .. 0 ... : ... .. . ... ... : ... .. . ... ... : ... .. . ... ... : ... .. . ... ...
ROW A8 : A-1 00 D P81 ... ... : F#5 00 6 P80 ... ... : G#4 00 . ... : ... .. 4 ... : ... .. . ... ... : ... .. . ... ... : ... .. . ... ... : C#4 01 F P7F ...
ROW A9 : ... .. B ... ... ... : ... .. 4 ... ... ... : A#3 00 . ... : ... .. 3 ... : ... .. . ... ... : ... .. . ... ... : ... .. . ... ... : ... .. D P7D ...
ROW AA : ... .. . ... ... ... : ... .. 2 ... ... ... : D#3 00 . ... : ... .. 1 ... : ... .. . ... ... : ... .. . ... ... : ... .. . ... ... : ... .. 8 P7E ...
ROW AB : ... .. A ... ... ... : ... .. 1 ... ... ... : D-3 00 . ... : ... .. . ... : ... .. . ... ... : ... .. . ... ... : ... .. . ... ... : ... .. . P81 ...
ROW AC : ... .. 8 ... ... ... : ... .. . ... ... ... : A-2 00 . ... : ... .. . ... : ... .. . ... ... : ... .. . ... ... : ... .. . ... ... : ... .. . P83 ...
ROW AD : ... .. 7 ... ... ... : ... .. 0 ... ... ... : ... .. . ... : ... .. 0 ... : ... .. . ... ... : ... .. . ... ... : ... .. . ... ... : ... .. . P82 ...
ROW AE : ... .. D ... ... ... : F-5 00 6 P80 ... ... : ... .. . ... : ... .. 8 ... : ... .. . ... ... : ... .. . ... ... : ... .. . ... ... : ... .. . P80 ...
ROW AF : ... .. B ... ... ... : ... .. 4 ... ... ... : ... .. . ... : ... .. 6 ... : ... .. . ... ... : ... .. . ... ... : ... .. . ... ... : ... .. . P7D ...
ROW B0 : ... .. . ... ... ... : ... .. 2 ... ... ... : ... .. . ... : ... .. 3 ... : ... .. . ... ... : ... .. . ... ... : ... .. . ... ... : ... .. . ... ...
ROW B1 : ... .. A ... ... ... : ... .. 1 ... ... ... : ... .. . ... : ... .. 1 ... : ... .. . ... ... : ... .. . ... ... : ... .. . ... ... : ... .. . P80 ...
ROW B2 : ... .. 8 ... ... ... : ... .. . ... ... ... : ... .. . ... : ... .. . ... : ... .. . ... ... : ... .. . ... ... : ... .. . ... ... : ... .. . P83 ...
ROW B3 : ... .. 7 ... ... ... : ... .. 0 ... ... ... : ... .. . ... : ... .. 0 ... : ... .. . ... ... : ... .. . ... ... : ... .. . ... ... : ... .. . ... ...
ROW B4 : C#2 00 D ... ... ... : E-5 00 6 P80 ... ... : ... .. . ... : ... .. F ... : ... .. . ... ... : C#3 01 9 P80 ... : A-3 01 9 ... ... : D-4 01 F P80 ...
ROW B5 : ... .. B ... ... ... : ... .. 4 ... ... ... : ... .. . ... : ... .. C ... : ... .. . ... ... : ... .. 8 ... ... : ... .. 8 ... ... : ... .. D P7E ...
ROW B6 : ... .. . ... ... ... : ... .. 2 ... ... ... : ... .. . ... : ... .. 6 ... : ... .. . ... ... : ... .. . ... ... : ... .. . ... ... : ... .. 8 P7D ...
ROW B7 : ... .. 0 ... ... ... : ... .. 1 ... ... ... : ... .. . ... : ... .. 3 ... : ... .. . ... ... : ... .. . ... ... : ... .. . ... ... : ... .. . P7F ...
ROW B8 : ... .. . ... ... ... : ... .. . ... ... ... : ... .. . ... : ... .. 2 ... : ... .. . ... ... : ... .. 7 ... ... : ... .. 7 ... ... : ... .. . P81 ...
ROW B9 : ... .. . ... ... ... : ... .. 0 ... ... ... : ... .. . ... : ... .. 0 ... : ... .. . ... ... : ... .. . ... ... : ... .. . ... ... : ... .. . P83 ...
ROW BA : D-2 00 D P81 ... ... : D#5 00 6 P80 ... ... : --- .. . ... : ... .. 2 ... : ... .. . ... ... : --- .. . P83 ... : --- .. . ... ... : ... .. . P82 ...
ROW BB : ... .. B ... ... ... : ... .. 4 ... ... ... : ... .. . ... : ... .. 1 ... : ... .. . ... ... : ... .. . ... ... : ... .. . ... ... : ... .. . P7F ...
ROW BC : ... .. . ... ... ... : ... .. 2 ... ... ... : ... .. . ... : ... .. . ... : ... .. . ... ... : ... .. . ... ... : ... .. . ... ... : ... .. . P7D ...
ROW BD : ... .. 0 ... ... ... : ... .. 1 ... ... ... : ... .. . ... : ... .. . ... : ... .. . ... ... : ... .. . ... ... : ... .. . ... ... : ... .. . P7E ...
ROW BE : ... .. . ... ... ... : ... .. . ... ... ... : ... .. . ... : ... .. . ... : ... .. . ... ... : ... .. . ... ... : ... .. . ... ... : ... .. . P80 ...
ROW BF : ... .. . ... ... ... : ... .. 0 ... ... ... : ... .. . ... : ... .. 0 ... : ... .. . ... ... : ... .. . ... ... : ... .. . ... ... : ... .. . P83 ...
ROW C0 : G-1 00 F P81 ... ... : D-5 00 6 P80 ... ... : F#4 00 . ... : ... .. 4 ... : ... .. . ... ... : G-2 01 9 P80 ... : ... .. . ... ... : --- .. . ... ...
ROW C1 : ... .. E ... ... ... : ... .. 4 ... ... ... : G#3 00 . ... : ... .. 3 ... : ... .. . ... ... : ... .. 8 ... ... : ... .. . ... ... : ... .. . ... ...
ROW C2 : ... .. D ... ... ... : ... .. 2 ... ... ... : C#3 00 . ... : ... .. 1 ... : ... .. . ... ... : ... .. . ... ... : ... .. . ... ... : ... .. . ... ...
ROW C3 : ... .. A ... ... ... : ... .. 1 ... ... ... : --- .. . ... : ... .. . ... : ... .. . ... ... : ... .. . ... ... : ... .. . ... ... : ... .. . ... ...
ROW C4 : ... .. . ... ... ... : ... .. . ... ... ... : ... .. . ... : ... .. . ... : ... .. . ... ... : ... .. 7 ... ... : ... .. . ... ... : ... .. . ... ...
ROW C5 : ... .. . ... ... ... : ... .. 0 ... ... ... : ... .. . ... : ... .. 0 ... : ... .. . ... ... : ... .. . ... ... : ... .. . ... ... : ... .. . ... ...
ROW C6 : F#1 00 F ... ... ... : D#5 00 6 P80 ... ... : F#2 00 . ... : ... .. 8 ... : ... .. . ... ... : F#2 01 9 ... ... : ... .. . ... ... : ... .. . ... ...
ROW C7 : ... .. E ... ... ... : ... .. 4 ... ... ... : ... .. . ... : ... .. 6 ... : ... .. . ... ... : ... .. 8 ... ... : ... .. . ... ... : ... .. . ... ...
ROW C8 : ... .. D ... ... ... : ... .. 2 ... ... ... : ... .. . ... : ... .. 3 ... : ... .. . ... ... : ... .. . ... ... : ... .. . ... ... : ... .. . ... ...
ROW C9 : ... .. A ... ... ... : ... .. 1 ... ... ... : --- .. . ... : ... .. 1 ... : ... .. . ... ... : ... .. . ... ... : ... .. . ... ... : ... .. . ... ...
ROW CA : ... .. . ... ... ... : ... .. . ... ... ... : ... .. . ... : ... .. . ... : ... .. . ... ... : ... .. 7 ... ... : ... .. . ... ... : ... .. . ... ...
ROW CB : ... .. . ... ... ... : ... .. 0 ... ... ... : ... .. . ... : ... .. 0 ... : ... .. . ... ... : ... .. . ... ... : ... .. . ... ... : ... .. . ... ...
ROW CC : G-1 00 F ... ... ... : D-5 00 6 P80 ... ... : G-2 00 . ... : ... .. F ... : ... .. . ... ... : G-2 01 9 ... ... : G-3 01 9 ... ... : G-2 01 F P88 ...
ROW CD : ... .. E ... ... ... : ... .. 4 ... ... ... : ... .. . ... : ... .. C ... : ... .. . ... ... : ... .. 8 ... ... : ... .. 8 ... ... : ... .. D P87 ...
ROW CE : ... .. D ... ... ... : ... .. 2 ... ... ... : ... .. . ... : ... .. 6 ... : ... .. . ... ... : ... .. . ... ... : ... .. . ... ... : ... .. 8 P85 ...
ROW CF : ... .. A ... ... ... : ... .. 1 ... ... ... : --- .. . ... : ... .. 3 ... : ... .. . ... ... : ... .. . ... ... : ... .. . ... ... : ... .. . P82 ...
ROW D0 : ... .. . ... ... ... : ... .. . ... ... ... : ... .. . ... : ... .. 2 ... : ... .. . ... ... : ... .. 7 ... ... : ... .. 7 ... ... : ... .. . ... ...
ROW D1 : ... .. . ... ... ... : ... .. 0 ... ... ... : ... .. . ... : ... .. 0 ... : ... .. . ... ... : ... .. . ... ... : ... .. . ... ... : ... .. . P85 ...
ROW D2 : A-1 00 F ... ... ... : D#5 00 6 P80 ... ... : A-2 00 . ... : ... .. 4 ... : ... .. . ... ... : A-2 01 9 ... ... : --- .. . P81 ... : ... .. . P88 ...
ROW D3 : ... .. E ... ... ... : ... .. 4 ... ... ... : ... .. . ... : ... .. 3 ... : ... .. . ... ... : ... .. 8 ... ... : ... .. . ... ... : ... .. 4 ... ...
ROW D4 : ... .. D ... ... ... : ... .. 2 ... ... ... : ... .. . ... : ... .. 1 ... : ... .. . ... ... : ... .. . ... ... : ... .. . ... ... : ... .. . P85 ...
ROW D5 : ... .. A ... ... ... : ... .. 1 ... ... ... : --- .. . ... : ... .. . ... : ... .. . ... ... : ... .. . ... ... : ... .. . ... ... : ... .. 1 P83 ...
ROW D6 : ... .. . ... ... ... : ... .. . ... ... ... : ... .. . ... : ... .. . ... : ... .. . ... ... : ... .. 7 ... ... : ... .. . ... ... : ... .. . P82 ...
ROW D7 : ... .. . ... ... ... : ... .. 0 ... ... ... : ... .. . ... : ... .. 0 ... : ... .. . ... ... : ... .. . ... ... : ... .. . ... ... : ... .. . P84 ...
ROW D8 : A#1 00 F ... ... ... : D-5 00 6 P80 ... ... : A-4 00 . ... : ... .. 2 ... : ... .. . ... ... : A#2 01 9 ... ... : A#3 01 9 P80 ... : A#2 01 F P86 ...
ROW D9 : ... .. E ... ... ... : ... .. 4 ... ... ... : B-3 00 . ... : ... .. 1 ... : ... .. . ... ... : ... .. 8 ... ... : ... .. 8 ... ... : ... .. D P88 ...
ROW DA : ... .. D ... ... ... : ... .. 2 ... ... ... : E-3 00 . ... : ... .. . ... : ... .. . ... ... : ... .. . ... ... : ... .. . ... ... : ... .. 8 P87 ...
ROW DB : ... .. A ... ... ... : ... .. 1 ... ... ... : D#3 00 . ... : ... .. . ... : ... .. . ... ... : ... .. . ... ... : ... .. . ... ... : ... .. . P84 ...
ROW DC : ... .. . ... ... ... : ... .. . ... ... ... : A#2 00 . ... : ... .. . ... : ... .. . ... ... : ... .. 7 ... ... : ... .. 7 ... ... : ... .. . P82 ...
ROW DD : ... .. . ... ... ... : ... .. 0 ... ... ... : ... .. . ... : ... .. 0 ... : ... .. . ... ... : ... .. . ... ... : ... .. . ... ... : ... .. . P83 ...
ROW DE : ... .. 0 ... ... ... : D#5 00 6 P80 ... ... : ... .. . ... : ... .. 4 ... : ... .. . ... ... : --- .. . P82 ... : ... .. . ... ... : ... .. . P85 ...
ROW DF : ... .. . ... ... ... : ... .. 4 ... ... ... : ... .. . ... : ... .. 3 ... : ... .. . ... ... : ... .. . ... ... : ... .. 6 ... ... : ... .. 4 P88 ...
ROW E0 : ... .. . ... ... ... : ... .. 2 ... ... ... : ... .. . ... : ... .. 1 ... : ... .. . ... ... : ... .. . ... ... : ... .. . ... ... : ... .. . ... ...
ROW E1 : ... .. . ... ... ... : ... .. 1 ... ... ... : --- .. . ... : ... .. . ... : ... .. . ... ... : ... .. . ... ... : ... .. . ... ... : ... .. 1 P85 ...
ROW E2 : ... .. . ... ... ... : ... .. . ... ... ... : ... .. . ... : ... .. . ... : ... .. . ... ... : ... .. . ... ... : ... .. . ... ... : ... .. . P82 ...
ROW E3 : ... .. . ... ... ... : ... .. 0 ... ... ... : ... .. . ... : ... .. 0 ... : ... .. . ... ... : ... .. . ... ... : ... .. . ... ... : ... .. . ... ...
ROW E4 : D-1 00 F P81 ... ... : D-5 00 6 P80 ... ... : C#4 00 . ... : ... .. F ... : ... .. . ... ... : D-2 01 9 P80 ... : D-3 01 9 ... ... : D-2 01 F P85 ...
ROW E5 : ... .. E ... ... ... : ... .. 4 ... ... ... : D#3 00 . ... : ... .. C ... : ... .. . ... ... : ... .. 8 ... ... : ... .. 8 ... ... : ... .. D P87 ...
ROW E6 : ... .. D ... ... ... : ... .. 2 ... ... ... : G#2 00 . ... : ... .. 6 ... : ... .. . ... ... : ... .. . ... ... : ... .. . ... ... : ... .. 8 P88 ...
ROW E7 : ... .. A ... ... ... : ... .. 1 ... ... ... : G-2 00 . ... : ... .. 3 ... : ... .. . ... ... : ... .. . ... ... : ... .. . ... ... : ... .. . P86 ...
ROW E8 : ... .. . ... ... ... : ... .. . ... ... ... : D-2 00 . ... : ... .. 2 ... : ... .. . ... ... : ... .. 7 ... ... : ... .. 7 ... ... : ... .. . P84 ...
ROW E9 : ... .. . ... ... ... : ... .. 0 ... ... ... : ... .. . ... : ... .. 0 ... : ... .. . ... ... : ... .. . ... ... : ... .. . ... ... : ... .. . P82 ...
ROW EA : ... .. 0 ... ... ... : D#5 00 6 P80 ... ... : ... .. . ... : ... .. F ... : ... .. . ... ... : --- .. . P84 ... : --- .. . P82 ... : ... .. . P83 ...
ROW EB : ... .. . ... ... ... : ... .. 4 ... ... ... : ... .. . ... : ... .. C ... : ... .. . ... ... : ... .. . ... ... : ... .. . ... ... : ... .. . P86 ...
ROW EC : ... .. . ... ... ... : ... .. 2 ... ... ... : ... .. . ... : ... .. 6 ... : ... .. . ... ... : ... .. . ... ... : ... .. . ... ... : ... .. . P88 ...
ROW ED : ... .. . ... ... ... : ... .. 1 ... ... ... : --- .. . ... : ... .. 3 ... : ... .. . ... ... : ... .. . ... ... : ... .. . ... ... : ... .. . P87 ...
ROW EE : ... .. . ... ... ... : ... .. . ... ... ... : ... .. . ... : ... .. 2 ... : ... .. . ... ... : ... .. . ... ... : ... .. . ... ... : ... .. . P85 ...
ROW EF : ... .. . ... ... ... : ... .. 0 ... ... ... : ... .. . ... : ... .. 0 ... : ... .. . ... ... : ... .. . ... ... : ... .. . ... ... : ... .. . P82 ...
ROW F0 : A#1 00 F P81 ... ... : D-5 00 6 P80 ... ... : F#4 00 . ... : ... .. 2 ... : ... .. . ... ... : A#2 01 9 P80 ... : ... .. . ... ... : ... .. . ... ...
ROW F1 : ... .. E ... ... ... : ... .. 4 ... ... ... : G#3 00 . ... : ... .. 1 ... : ... .. . ... ... : ... .. 8 ... ... : ... .. . ... ... : ... .. 4 P85 ...
ROW F2 : ... .. D ... ... ... : ... .. 2 ... ... ... : C#3 00 . ... : ... .. . ... : ... .. . ... ... : ... .. . ... ... : ... .. . ... ... : ... .. . P88 ...
ROW F3 : ... .. A ... ... ... : ... .. 1 ... ... ... : --- .. . ... : ... .. . ... : ... .. . ... ... : ... .. . ... ... : ... .. . ... ... : ... .. 1 ... ...
ROW F4 : ... .. . ... ... ... : ... .. . ... ... ... : ... .. . ... : ... .. . ... : ... .. . ... ... : ... .. 7 ... ... : ... .. . ... ... : ... .. . P85 ...
ROW F5 : ... .. . ... ... ... : ... .. 0 ... ... ... : ... .. . ... : ... .. 0 ... : ... .. . ... ... : ... .. . ... ... : ... .. . ... ... : ... .. . P83 ...
ROW F6 : A-1 00 F ... ... ... : C#5 00 6 P80 ... ... : F#2 00 . ... : ... .. 4 ... : ... .. . ... ... : A-2 01 9 ... ... : ... .. . ... ... : ... .. . P82 ...
ROW F7 : ... .. E ... ... ... : ... .. 4 ... ... ... : ... .. . ... : ... .. 3 ... : ... .. . ... ... : ... .. 8 ... ... : ... .. . ... ... : ... .. . P84 ...
ROW F8 : ... .. D ... ... ... : ... .. 2 ... ... ... : ... .. . ... : ... .. 1 ... : ... .. . ... ... : ... .. . ... ... : ... .. . ... ... : ... .. . P86 ...
ROW F9 : ... .. A ... ... ... : ... .. 1 ... ... ... : --- .. . ... : ... .. . ... : ... .. . ... ... : ... .. . ... ... : ... .. . ... ... : ... .. . P88 ...
ROW FA : ... .. . ... ... ... : ... .. . ... ... ... : ... .. . ... : ... .. . ... : ... .. . ... ... : ... .. 7 ... ... : ... .. . ... ... : ... .. 0 P87 ...
ROW FB : ... .. . ... ... ... : ... .. 0 ... ... ... : ... .. . ... : ... .. 0 ... : ... .. . ... ... : ... .. . ... ... : ... .. . ... ... : ... .. . P84 ...
ROW FC : G-1 00 F ... ... ... : C-5 00 6 P80 ... ... : G-2 00 . ... : ... .. F ... : ... .. . ... ... : G-2 01 9 ... ... : G-3 01 9 P80 ... : G-2 01 F P82 ...
ROW FD : ... .. E ... ... ... : ... .. 4 ... ... ... : ... .. . ... : ... .. C ... : ... .. . ... ... : ... .. 8 ... ... : ... .. 8 ... ... : ... .. D P83 ...
ROW FE : ... .. D ... ... ... : ... .. 2 ... ... ... : ... .. . ... : ... .. 6 ... : ... .. . ... ... : ... .. . ... ... : ... .. . ... ... : ... .. 8 P85 ...
ROW FF : ... .. A ... ... ... : ... .. 1 ... ... ... : --- .. . ... : ... .. 3 ... : ... .. . ... ... : ... .. . ... ... : ... .. . ... ... : ... .. . P88 ...

PATTERN 07
ROW 00 : ... .. . ... ... ... : ... .. . ... ... ... : ... .. . ... : ... .. 2 ... : ... .. . ... ... : ... .. 7 ... ... : ... .. 7 ... ... : ... .. . ... ...
ROW 01 : ... .. . ... ... ... : ... .. 0 ... ... ... : ... .. . ... : ... .. 0 ... : ... .. . ... ... : ... .. . ... ... : ... .. . ... ... : ... .. . P85 ...
ROW 02 : A-1 00 F ... ... ... : B-4 00 6 P80 ... ... : A-2 00 . ... : ... .. F ... : ... .. . ... ... : A-2 01 9 ... ... : --- .. . P81 ... : ... .. . P82 ...
ROW 03 : ... .. E ... ... ... : ... .. 4 ... ... ... : ... .. . ... : ... .. C ... : ... .. . ... ... : ... .. 8 ... ... : ... .. . ... ... : ... .. 4 ... ...
ROW 04 : ... .. D ... ... ... : ... .. 2 ... ... ... : ... .. . ... : ... .. 6 ... : ... .. . ... ... : ... .. . ... ... : ... .. . ... ... : ... .. . P85 ...
ROW 05 : ... .. A ... ... ... : ... .. 1 ... ... ... : --- .. . ... : ... .. 3 ... : ... .. . ... ... : ... .. . ... ... : ... .. . ... ... : ... .. 1 P87 ...
ROW 06 : ... .. . ... ... ... : ... .. . ... ... ... : ... .. . ... : ... .. 2 ... : ... .. . ... ... : ... .. 7 ... ... : ... .. . ... ... : ... .. . P88 ...
ROW 07 : ... .. . ... ... ... : ... .. 0 ... ... ... : ... .. . ... : ... .. 0 ... : ... .. . ... ... : ... .. . ... ... : ... .. . ... ... : ... .. . P86 ...
ROW 08 : A#1 00 F ... ... ... : A#4 00 6 P80 ... ... : A-4 00 . ... : ... .. 4 ... : ... .. . ... ... : A#2 01 9 ... ... : A#3 01 9 P80 ... : A#2 01 F P84 ...
ROW 09 : ... .. E ... ... ... : ... .. 4 ... ... ... : B-3 00 . ... : ... .. 3 ... : ... .. . ... ... : ... .. 8 ... ... : ... .. 8 ... ... : ... .. D P82 ...
ROW 0A : ... .. D ... ... ... : ... .. 2 ... ... ... : E-3 00 . ... : ... .. 1 ... : ... .. . ... ... : ... .. . ... ... : ... .. . ... ... : ... .. 8 P83 ...
ROW 0B : ... .. A ... ... ... : ... .. 1 ... ... ... : D#3 00 . ... : ... .. . ... : ... .. . ... ... : ... .. . ... ... : ... .. . ... ... : ... .. . P86 ...
ROW 0C : ... .. . ... ... ... : ... .. . ... ... ... : A#2 00 . ... : ... .. . ... : ... .. . ... ... : ... .. 7 ... ... : ... .. 7 ... ... : ... .. . P88 ...
ROW 0D : ... .. . ... ... ... : ... .. 0 ... ... ... : ... .. . ... : ... .. 0 ... : ... .. . ... ... : ... .. . ... ... : ... .. . ... ... : ... .. . P87 ...
ROW 0E : ... .. 0 ... ... ... : B-4 00 6 P80 ... ... : ... .. . ... : ... .. 8 ... : ... .. . ... ... : --- .. . P82 ... : ... .. . ... ... : ... .. . P85 ...
ROW 0F : ... .. . ... ... ... : ... .. 4 ... ... ... : ... .. . ... : ... .. 6 ... : ... .. . ... ... : ... .. . ... ... : ... .. 6 ... ... : ... .. 4 P82 ...
ROW 10 : ... .. . ... ... ... : ... .. 2 ... ... ... : ... .. . ... : ... .. 3 ... : ... .. . ... ... : ... .. . ... ... : ... .. . ... ... : ... .. . ... ...
ROW 11 : ... .. . ... ... ... : ... .. 1 ... ... ... : --- .. . ... : ... .. 1 ... : ... .. . ... ... : ... .. . ... ... : ... .. . ... ... : ... .. 1 P85 ...
ROW 12 : ... .. . ... ... ... : ... .. . ... ... ... : ... .. . ... : ... .. . ... : ... .. . ... ... : ... .. . ... ... : ... .. . ... ... : ... .. . P88 ...
ROW 13 : ... .. . ... ... ... : ... .. 0 ... ... ... : ... .. . ... : ... .. 0 ... : ... .. . ... ... : ... .. . ... ... : ... .. . ... ... : ... .. . ... ...
ROW 14 : D-1 00 F P81 ... ... : C-5 00 6 P80 ... ... : C#4 00 . ... : ... .. F ... : ... .. . ... ... : D-2 01 9 P80 ... : D-3 01 9 ... ... : D-2 01 F P85 ...
ROW 15 : ... .. E ... ... ... : ... .. 4 ... ... ... : D#3 00 . ... : ... .. C ... : ... .. . ... ... : ... .. 8 ... ... : ... .. 8 ... ... : ... .. D P83 ...
ROW 16 : ... .. D ... ... ... : ... .. 2 ... ... ... : G#2 00 . ... : ... .. 6 ... : ... .. . ... ... : ... .. . ... ... : ... .. . ... ... : ... .. 8 P82 ...
ROW 17 : ... .. A ... ... ... : ... .. 1 ... ... ... : G-2 00 . ... : ... .. 3 ... : ... .. . ... ... : ... .. . ... ... : ... .. . ... ... : ... .. . P84 ...
ROW 18 : ... .. . ... ... ... : ... .. . ... ... ... : D-2 00 . ... : ... .. 2 ... : ... .. . ... ... : ... .. 7 ... ... : ... .. 7 ... ... : ... .. . P86 ...
ROW 19 : ... .. . ... ... ... : ... .. 0 ... ... ... : ... .. . ... : ... .. 0 ... : ... .. . ... ... : ... .. . ... ... : ... .. . ... ... : ... .. . P88 ...
ROW 1A : ... .. . ... ... ... : C#5 00 6 P80 ... ... : ... .. . ... : ... .. 2 ... : ... .. . ... ... : --- .. . P84 ... : --- .. . P82 ... : ... .. . P87 ...
ROW 1B : ... .. . ... ... ... : ... .. 4 ... ... ... : ... .. . ... : ... .. 1 ... : ... .. . ... ... : ... .. . ... ... : ... .. . ... ... : ... .. . P84 ...
ROW 1C : ... .. . ... ... ... : ... .. 2 ... ... ... : ... .. . ... : ... .. . ... : ... .. . ... ... : ... .. . ... ... : ... .. . ... ... : ... .. . P82 ...
ROW 1D : ... .. 0 ... ... ... : ... .. 1 ... ... ... : --- .. . ... : ... .. . ... : ... .. . ... ... : ... .. . ... ... : ... .. . ... ... : ... .. . P83 ...
ROW 1E : ... .. . ... ... ... : ... .. . ... ... ... : ... .. . ... : ... .. . ... : ... .. . ... ... : ... .. . ... ... : ... .. . ... ... : ... .. . P85 ...
ROW 1F : ... .. . ... ... ... : ... .. 0 ... ... ... : ... .. . ... : ... .. 0 ... : ... .. . ... ... : ... .. . ... ... : ... .. . ... ... : ... .. . P88 ...
ROW 20 : G-1 00 D P81 ... ... : D-5 00 6 P80 ... ... : F#4 00 . ... : ... .. 4 ... : ... .. . ... ... : ... .. . ... ... : ... .. . ... ... : ... .. . P83 ...
ROW 21 : ... .. B ... ... ... : ... .. 4 ... ... ... : G#3 00 . ... : ... .. 3 ... : ... .. . ... ... : ... .. . ... ... : ... .. . ... ... : ... .. 4 P80 ...
ROW 22 : ... .. . ... ... ... : ... .. 2 ... ... ... : C#3 00 . ... : ... .. 1 ... : ... .. . ... ... : ... .. . ... ... : ... .. . ... ... : ... .. . P7D ...
ROW 23 : ... .. A ... ... ... : ... .. 1 ... ... ... : C-3 00 . ... : ... .. . ... : ... .. . ... ... : ... .. . ... ... : ... .. . ... ... : ... .. 1 ... ...
ROW 24 : ... .. 8 ... ... ... : ... .. . ... ... ... : G-2 00 . ... : ... .. . ... : ... .. . ... ... : ... .. . ... ... : ... .. . ... ... : ... .. . P80 ...
ROW 25 : ... .. 7 ... ... ... : ... .. 0 ... ... ... : ... .. . ... : ... .. 0 ... : ... .. . ... ... : ... .. . ... ... : ... .. . ... ... : ... .. . P82 ...
ROW 26 : ... .. 6 ... ... ... : D#5 00 6 P80 ... ... : ... .. . ... : ... .. 8 ... : ... .. . ... ... : ... .. . ... ... : ... .. . ... ... : ... .. . P83 ...
ROW 27 : ... .. . ... ... ... : ... .. 4 ... ... ... : ... .. . ... : ... .. 6 ... : ... .. . ... ... : ... .. . ... ... : ... .. . ... ... : ... .. . P81 ...
ROW 28 : ... .. 5 ... ... ... : ... .. 2 ... ... ... : ... .. . ... : ... .. 3 ... : ... .. . ... ... : ... .. . ... ... : ... .. . ... ... : ... .. . P7F ...
ROW 29 : ... .. . ... ... ... : ... .. 1 ... ... ... : ... .. . ... : ... .. 1 ... : ... .. . ... ... : ... .. . ... ... : ... .. . ... ... : ... .. . P7D ...
ROW 2A : ... .. 4 ... ... ... : ... .. . ... ... ... : ... .. . ... : ... .. . ... : ... .. . ... ... : ... .. . ... ... : ... .. . ... ... : ... .. 0 P7E ...
ROW 2B : ... .. . ... ... ... : ... .. 0 ... ... ... : ... .. . ... : ... .. 0 ... : ... .. . ... ... : ... .. . ... ... : ... .. . ... ... : ... .. . P81 ...
ROW 2C : D-2 00 D ... ... ... : D-5 00 6 P80 ... ... : ... .. . ... : ... .. F ... : ... .. . ... ... : G-3 01 9 P80 ... : A#3 01 9 P80 ... : D-4 01 F P83 ...
ROW 2D : ... .. B ... ... ... : ... .. 4 ... ... ... : ... .. . ... : ... .. C ... : ... .. . ... ... : ... .. 8 ... ... : ... .. 8 ... ... : ... .. D P82 ...
ROW 2E : ... .. . ... ... ... : ... .. 2 ... ... ... : ... .. . ... : ... .. 6 ... : ... .. . ... ... : ... .. . ... ... : ... .. . ... ... : ... .. 8 P80 ...
ROW 2F : ... .. 0 ... ... ... : ... .. 1 ... ... ... : --- .. . ... : ... .. 3 ... : ... .. . ... ... : ... .. . ... ... : ... .. . ... ... : ... .. . P7D ...
ROW 30 : ... .. . ... ... ... : ... .. . ... ... ... : ... .. . ... : ... .. 2 ... : ... .. . ... ... : ... .. 7 ... ... : ... .. 7 ... ... : ... .. . ... ...
ROW 31 : ... .. . ... ... ... : ... .. 0 ... ... ... : ... .. . ... : ... .. 0 ... : ... .. . ... ... : ... .. . ... ... : ... .. . ... ... : ... .. . P80 ...
ROW 32 : D-2 00 D P81 ... ... : D#5 00 6 P80 ... ... : ... .. . ... : ... .. 4 ... : ... .. . ... ... : --- .. . P81 ... : --- .. . ... ... : --- .. . ... ...
ROW 33 : ... .. B ... ... ... : ... .. 4 ... ... ... : ... .. . ... : ... .. 3 ... : ... .. . ... ... : ... .. . ... ... : ... .. . ... ... : ... .. . ... ...
ROW 34 : ... .. . ... ... ... : ... .. 2 ... ... ... : ... .. . ... : ... .. 1 ... : ... .. . ... ... : ... .. . ... ... : ... .. . ... ... : ... .. . ... ...
ROW 35 : ... .. 0 ... ... ... : ... .. 1 ... ... ... : ... .. . ... : ... .. . ... : ... .. . ... ... : ... .. . ... ... : ... .. . ... ... : ... .. . ... ...
ROW 36 : ... .. . ... ... ... : ... .. . ... ... ... : ... .. . ... : ... .. . ... : ... .. . ... ... : ... .. . ... ... : ... .. . ... ... : ... .. . ... ...
ROW 37 : ... .. . ... ... ... : ... .. 0 ... ... ... : ... .. . ... : ... .. 0 ... : ... .. . ... ... : ... .. . ... ... : ... .. . ... ... : ... .. . ... ...
ROW 38 : C#2 00 D P81 ... ... : D-5 00 6 P80 ... ... : C#4 00 . ... : ... .. 2 ... : ... .. . ... ... : ... .. . ... ... : ... .. . ... ... : C#4 01 F P81 ...
ROW 39 : ... .. B ... ... ... : ... .. 4 ... ... ... : D#3 00 . ... : ... .. 1 ... : ... .. . ... ... : ... .. . ... ... : ... .. . ... ... : ... .. D P83 ...
ROW 3A : ... .. . ... ... ... : ... .. 2 ... ... ... : G#2 00 . ... : ... .. . ... : ... .. . ... ... : ... .. . ... ... : ... .. . ... ... : ... .. 8 P82 ...
ROW 3B : ... .. A ... ... ... : ... .. 1 ... ... ... : G-2 00 . ... : ... .. . ... : ... .. . ... ... : ... .. . ... ... : ... .. . ... ... : ... .. . P7F ...
ROW 3C : ... .. 8 ... ... ... : ... .. . ... ... ... : D-2 00 . ... : ... .. . ... : ... .. . ... ... : ... .. . ... ... : ... .. . ... ... : ... .. . P7D ...
ROW 3D : ... .. 7 ... ... ... : ... .. 0 ... ... ... : ... .. . ... : ... .. 0 ... : ... .. . ... ... : ... .. . ... ... : ... .. . ... ... : ... .. . P7E ...
ROW 3E : ... .. D ... ... ... : D#5 00 6 P80 ... ... : ... .. . ... : ... .. 4 ... : ... .. . ... ... : ... .. . ... ... : ... .. . ... ... : ... .. . P80 ...
ROW 3F : ... .. B ... ... ... : ... .. 4 ... ... ... : ... .. . ... : ... .. 3 ... : ... .. . ... ... : ... .. . ... ... : ... .. . ... ... : ... .. . P83 ...
ROW 40 : ... .. . ... ... ... : ... .. 2 ... ... ... : ... .. . ... : ... .. 1 ... : ... .. . ... ... : ... .. . ... ... : ... .. . ... ... : ... .. . ... ...
ROW 41 : ... .. A ... ... ... : ... .. 1 ... ... ... : ... .. . ... : ... .. . ... : ... .. . ... ... : ... .. . ... ... : ... .. . ... ... : ... .. . P80 ...
ROW 42 : ... .. 8 ... ... ... : ... .. . ... ... ... : ... .. . ... : ... .. . ... : ... .. . ... ... : ... .. . ... ... : ... .. . ... ... : ... .. . P7D ...
ROW 43 : ... .. 7 ... ... ... : ... .. 0 ... ... ... : ... .. . ... : ... .. 0 ... : ... .. . ... ... : ... .. . ... ... : ... .. . ... ... : ... .. . ... ...
ROW 44 : D-2 00 D ... ... ... : D-5 00 6 P80 ... ... : ... .. . ... : ... .. F ... : ... .. . ... ... : F#3 01 9 P80 ... : A#3 01 9 ... ... : D-4 01 F P80 ...
ROW 45 : ... .. B ... ... ... : ... .. 4 ... ... ... : ... .. . ... : ... .. C ... : ... .. . ... ... : ... .. 8 ... ... : ... .. 8 ... ... : ... .. D P82 ...
ROW 46 : ... .. . ... ... ... : ... .. 2 ... ... ... : ... .. . ... : ... .. 6 ... : ... .. . ... ... : ... .. . ... ... : ... .. . ... ... : ... .. 8 P83 ...
ROW 47 : ... .. 0 ... ... ... : ... .. 1 ... ... ... : --- .. . ... : ... .. 3 ... : ... .. . ... ... : ... .. . ... ... : ... .. . ... ... : ... .. . P81 ...
ROW 48 : ... .. . ... ... ... : ... .. . ... ... ... : ... .. . ... : ... .. 2 ... : ... .. . ... ... : ... .. 7 ... ... : ... .. 7 ... ... : ... .. . P7F ...
ROW 49 : ... .. . ... ... ... : ... .. 0 ... ... ... : ... .. . ... : ... .. 0 ... : ... .. . ... ... : ... .. . ... ... : ... .. . ... ... : ... .. . P7D ...
ROW 4A : D-2 00 D P81 ... ... : D#5 00 6 P80 ... ... : ... .. . ... : ... .. F ... : ... .. . ... ... : --- .. . P7F ... : --- .. . ... ... : --- .. . ... ...
ROW 4B : ... .. B ... ... ... : ... .. 4 ... ... ... : ... .. . ... : ... .. C ... : ... .. . ... ... : ... .. . ... ... : ... .. . ... ... : ... .. . ... ...
ROW 4C : ... .. . ... ... ... : ... .. 2 ... ... ... : ... .. . ... : ... .. 6 ... : ... .. . ... ... : ... .. . ... ... : ... .. . ... ... : ... .. . ... ...
ROW 4D : ... .. 0 ... ... ... : ... .. 1 ... ... ... : ... .. . ... : ... .. 3 ... : ... .. . ... ... : ... .. . ... ... : ... .. . ... ... : ... .. . ... ...
ROW 4E : ... .. . ... ... ... : ... .. . ... ... ... : ... .. . ... : ... .. 2 ... : ... .. . ... ... : ... .. . ... ... : ... .. . ... ... : ... .. . ... ...
ROW 4F : ... .. . ... ... ... : ... .. 0 ... ... ... : ... .. . ... : ... .. 0 ... : ... .. . ... ... : ... .. . ... ... : ... .. . ... ... : ... .. . ... ...
ROW 50 : A#1 00 D P81 ... ... : D-5 00 6 P80 ... ... : A-4 00 . ... : ... .. 2 ... : ... .. . ... ... : ... .. . ... ... : ... .. . ... ... : D#4 01 F ... ...
ROW 51 : ... .. B ... ... ... : ... .. 4 ... ... ... : B-3 00 . ... : ... .. 1 ... : ... .. . ... ... : ... .. . ... ... : ... .. . ... ... : ... .. D P80 ...
ROW 52 : ... .. . ... ... ... : ... .. 2 ... ... ... : E-3 00 . ... : ... .. . ... : ... .. . ... ... : ... .. . ... ... : ... .. . ... ... : ... .. 8 P83 ...
ROW 53 : ... .. A ... ... ... : ... .. 1 ... ... ... : D#3 00 . ... : ... .. . ... : ... .. . ... ... : ... .. . ... ... : ... .. . ... ... : ... .. . ... ...
ROW 54 : ... .. 8 ... ... ... : ... .. . ... ... ... : A#2 00 . ... : ... .. . ... : ... .. . ... ... : ... .. . ... ... : ... .. . ... ... : ... .. . P80 ...
ROW 55 : ... .. 7 ... ... ... : ... .. 0 ... ... ... : ... .. . ... : ... .. 0 ... : ... .. . ... ... : ... .. . ... ... : ... .. . ... ... : ... .. . P7E ...
ROW 56 : ... .. D ... ... ... : D#5 00 6 P80 ... ... : ... .. . ... : ... .. 4 ... : ... .. . ... ... : ... .. . ... ... : ... .. . ... ... : ... .. . P7D ...
ROW 57 : ... .. B ... ... ... : ... .. 4 ... ... ... : ... .. . ... : ... .. 3 ... : ... .. . ... ... : ... .. . ... ... : ... .. . ... ... : ... .. . P7F ...
ROW 58 : ... .. . ... ... ... : ... .. 2 ... ... ... : ... .. . ... : ... .. 1 ... : ... .. . ... ... : ... .. . ... ... : ... .. . ... ... : ... .. . P81 ...
ROW 59 : ... .. A ... ... ... : ... .. 1 ... ... ... : ... .. . ... : ... .. . ... : ... .. . ... ... : ... .. . ... ... : ... .. . ... ... : ... .. . P83 ...
ROW 5A : ... .. 8 ... ... ... : ... .. . ... ... ... : ... .. . ... : ... .. . ... : ... .. . ... ... : ... .. . ... ... : ... .. . ... ... : ... .. . P82 ...
ROW 5B : ... .. 7 ... ... ... : ... .. 0 ... ... ... : ... .. . ... : ... .. 0 ... : ... .. . ... ... : ... .. . ... ... : ... .. . ... ... : ... .. . P7F ...
ROW 5C : D-2 00 D ... ... ... : E-5 00 6 P80 ... ... : ... .. . ... : ... .. F ... : ... .. . ... ... : F-3 01 9 P80 ... : A#3 01 9 ... ... : D-4 01 F P7D ...
ROW 5D : ... .. B ... ... ... : ... .. 4 ... ... ... : ... .. . ... : ... .. C ... : ... .. . ... ... : ... .. 8 ... ... : ... .. 8 ... ... : ... .. D P7E ...
ROW 5E : ... .. . ... ... ... : ... .. 2 ... ... ... : ... .. . ... : ... .. 6 ... : ... .. . ... ... : ... .. . ... ... : ... .. . ... ... : ... .. 8 P80 ...
ROW 5F : ... .. 0 ... ... ... : ... .. 1 ... ... ... : --- .. . ... : ... .. 3 ... : ... .. . ... ... : ... .. . ... ... : ... .. . ... ... : ... .. . P83 ...
ROW 60 : ... .. . ... ... ... : ... .. . ... ... ... : ... .. . ... : ... .. 2 ... : ... .. . ... ... : ... .. 7 ... ... : ... .. 7 ... ... : ... .. . ... ...
ROW 61 : ... .. . ... ... ... : ... .. 0 ... ... ... : ... .. . ... : ... .. 0 ... : ... .. . ... ... : ... .. . ... ... : ... .. . ... ... : ... .. . P80 ...
ROW 62 : D-2 00 D P81 ... ... : F-5 00 6 P80 ... ... : ... .. . ... : ... .. F ... : ... .. . ... ... : --- .. . ... ... : --- .. . ... ... : --- .. . ... ...
ROW 63 : ... .. B ... ... ... : ... .. 4 ... ... ... : ... .. . ... : ... .. C ... : ... .. . ... ... : ... .. . ... ... : ... .. . ... ... : ... .. . ... ...
ROW 64 : ... .. . ... ... ... : ... .. 2 ... ... ... : ... .. . ... : ... .. 6 ... : ... .. . ... ... : ... .. . ... ... : ... .. . ... ... : ... .. . ... ...
ROW 65 : ... .. 0 ... ... ... : ... .. 1 ... ... ... : ... .. . ... : ... .. 3 ... : ... .. . ... ... : ... .. . ... ... : ... .. . ... ... : ... .. . ... ...
ROW 66 : ... .. . ... ... ... : ... .. . ... ... ... : ... .. . ... : ... .. 2 ... : ... .. . ... ... : ... .. . ... ... : ... .. . ... ... : ... .. . ... ...
ROW 67 : ... .. . ... ... ... : ... .. 0 ... ... ... : ... .. . ... : ... .. 0 ... : ... .. . ... ... : ... .. . ... ... : ... .. . ... ... : ... .. . ... ...
ROW 68 : D#2 00 D P81 ... ... : F#5 00 6 P80 ... ... : G#4 00 . ... : ... .. 4 ... : ... .. . ... ... : ... .. . ... ... : ... .. . ... ... : C#4 01 F P7F ...
ROW 69 : ... .. B ... ... ... : ... .. 4 ... ... ... : A#3 00 . ... : ... .. 3 ... : ... .. . ... ... : ... .. . ... ... : ... .. . ... ... : ... .. D P7D ...
ROW 6A : ... .. . ... ... ... : ... .. 2 ... ... ... : D#3 00 . ... : ... .. 1 ... : ... .. . ... ... : ... .. . ... ... : ... .. . ... ... : ... .. 8 P7E ...
ROW 6B : ... .. A ... ... ... : ... .. 1 ... ... ... : D-3 00 . ... : ... .. . ... : ... .. . ... ... : ... .. . ... ... : ... .. . ... ... : ... .. . P81 ...
ROW 6C : ... .. 8 ... ... ... : ... .. . ... ... ... : A-2 00 . ... : ... .. . ... : ... .. . ... ... : ... .. . ... ... : ... .. . ... ... : ... .. . P83 ...
ROW 6D : ... .. 7 ... ... ... : ... .. 0 ... ... ... : ... .. . ... : ... .. 0 ... : ... .. . ... ... : ... .. . ... ... : ... .. . ... ... : ... .. . P82 ...
ROW 6E : D-2 00 D ... ... ... : F-5 00 6 P80 ... ... : ... .. . ... : ... .. 8 ... : ... .. . ... ... : ... .. . ... ... : ... .. . ... ... : ... .. . P80 ...
ROW 6F : ... .. B ... ... ... : ... .. 4 ... ... ... : ... .. . ... : ... .. 6 ... : ... .. . ... ... : ... .. . ... ... : ... .. . ... ... : ... .. . P7D ...
ROW 70 : ... .. . ... ... ... : ... .. 2 ... ... ... : ... .. . ... : ... .. 3 ... : ... .. . ... ... : ... .. . ... ... : ... .. . ... ... : ... .. . ... ...
ROW 71 : ... .. A ... ... ... : ... .. 1 ... ... ... : ... .. . ... : ... .. 1 ... : ... .. . ... ... : ... .. . ... ... : ... .. . ... ... : ... .. . P80 ...
ROW 72 : ... .. 8 ... ... ... : ... .. . ... ... ... : ... .. . ... : ... .. . ... : ... .. . ... ... : ... .. . ... ... : ... .. . ... ... : ... .. . P83 ...
ROW 73 : ... .. 7 ... ... ... : ... .. 0 ... ... ... : ... .. . ... : ... .. 0 ... : ... .. . ... ... : ... .. . ... ... : ... .. . ... ... : ... .. . ... ...
ROW 74 : A#1 00 D ... ... ... : E-5 00 6 P80 ... ... : ... .. . ... : ... .. F ... : ... .. . ... ... : E-3 01 9 ... ... : A#3 01 9 ... ... : D-4 01 F P80 ...
ROW 75 : ... .. B ... ... ... : ... .. 4 ... ... ... : ... .. . ... : ... .. C ... : ... .. . ... ... : ... .. 8 ... ... : ... .. 8 ... ... : ... .. D P7E ...
ROW 76 : ... .. . ... ... ... : ... .. 2 ... ... ... : ... .. . ... : ... .. 6 ... : ... .. . ... ... : ... .. . ... ... : ... .. . ... ... : ... .. 8 P7D ...
ROW 77 : ... .. 0 ... ... ... : ... .. 1 ... ... ... : --- .. . ... : ... .. 3 ... : ... .. . ... ... : ... .. . ... ... : ... .. . ... ... : ... .. . P7F ...
ROW 78 : ... .. . ... ... ... : ... .. . ... ... ... : ... .. . ... : ... .. 2 ... : ... .. . ... ... : ... .. 7 ... ... : ... .. 7 ... ... : ... .. . P81 ...
ROW 79 : ... .. . ... ... ... : ... .. 0 ... ... ... : ... .. . ... : ... .. 0 ... : ... .. . ... ... : ... .. . ... ... : ... .. . ... ... : ... .. . P83 ...
ROW 7A : A-1 00 D P81 ... ... : D#5 00 6 P80 ... ... : ... .. . ... : ... .. 2 ... : ... .. . ... ... : --- .. . P82 ... : --- .. . ... ... : ... .. . P82 ...
ROW 7B : ... .. B ... ... ... : ... .. 4 ... ... ... : ... .. . ... : ... .. 1 ... : ... .. . ... ... : ... .. . ... ... : ... .. . ... ... : ... .. . P7F ...
ROW 7C : ... .. . ... ... ... : ... .. 2 ... ... ... : ... .. . ... : ... .. . ... : ... .. . ... ... : ... .. . ... ... : ... .. . ... ... : ... .. . P7D ...
ROW 7D : ... .. 0 ... ... ... : ... .. 1 ... ... ... : ... .. . ... : ... .. . ... : ... .. . ... ... : ... .. . ... ... : ... .. . ... ... : ... .. . P7E ...
ROW 7E : ... .. . ... ... ... : ... .. . ... ... ... : ... .. . ... : ... .. . ... : ... .. . ... ... : ... .. . ... ... : ... .. . ... ... : ... .. . P80 ...
ROW 7F : ... .. . ... ... ... : ... .. 0 ... ... ... : ... .. . ... : ... .. 0 ... : ... .. . ... ... : ... .. . ... ... : ... .. . ... ... : ... .. . P83 ...
ROW 80 : G-1 00 D P81 ... ... : D-5 00 6 P80 ... ... : F#3 00 . ... : B-# 00 D ... : ... .. . ... ... : D#3 01 9 P80 ... : ... .. . ... ... : A-4 01 F ... ...
ROW 81 : ... .. B ... ... ... : ... .. 4 ... ... ... : G#2 00 . ... : ... .. B ... : ... .. . ... ... : ... .. 8 ... ... : ... .. . ... ... : ... .. D P80 ...
ROW 82 : ... .. . ... ... ... : ... .. 2 ... ... ... : C#2 00 . ... : ... .. . ... : ... .. . ... ... : ... .. . ... ... : ... .. . ... ... : ... .. 8 P7D ...
ROW 83 : ... .. A ... ... ... : ... .. 1 ... ... ... : C-2 00 . ... : ... .. A ... : ... .. . ... ... : ... .. . ... ... : ... .. . ... ... : ... .. . ... ...
ROW 84 : ... .. 8 ... ... ... : ... .. . ... ... ... : G-1 00 . ... : ... .. 8 ... : ... .. . ... ... : ... .. 7 ... ... : ... .. . ... ... : ... .. . P80 ...
ROW 85 : ... .. 7 ... ... ... : ... .. 0 ... ... ... : ... .. . ... : ... .. 7 ... : ... .. . ... ... : ... .. . ... ... : ... .. . ... ... : ... .. . P82 ...
ROW 86 : ... .. 6 ... ... ... : D#5 00 6 P80 ... ... : ... .. . ... : ... .. 6 ... : ... .. . ... ... : D-3 01 9 ... ... : ... .. . ... ... : ... .. . P83 ...
ROW 87 : ... .. . ... ... ... : ... .. 4 ... ... ... : ... .. . ... : ... .. . ... : ... .. . ... ... : ... .. 8 ... ... : ... .. . ... ... : ... .. . P81 ...
ROW 88 : ... .. 5 ... ... ... : ... .. 2 ... ... ... : ... .. . ... : ... .. 5 ... : ... .. . ... ... : ... .. . ... ... : ... .. . ... ... : ... .. . P7F ...
ROW 89 : ... .. . ... ... ... : ... .. 1 ... ... ... : ... .. . ... : ... .. . ... : ... .. . ... ... : ... .. . ... ... : ... .. . ... ... : ... .. . P7D ...
ROW 8A : ... .. 4 ... ... ... : ... .. . ... ... ... : ... .. . ... : ... .. 4 ... : ... .. . ... ... : ... .. 7 ... ... : ... .. . ... ... : ... .. . P7E ...
ROW 8B : ... .. . ... ... ... : ... .. 0 ... ... ... : ... .. . ... : ... .. . ... : ... .. . ... ... : ... .. . ... ... : ... .. . ... ... : ... .. . P81 ...
ROW 8C : F#2 00 D ... ... ... : D-5 00 6 P80 ... ... : A#3 00 . ... : C-# 00 3 ... : ... .. . ... ... : C#3 01 9 ... ... : ... .. . ... ... : ... .. . P83 ...
ROW 8D : ... .. B ... ... ... : ... .. 4 ... ... ... : ... .. . ... : ... .. 2 ... : ... .. . ... ... : ... .. 8 ... ... : ... .. . ... ... : ... .. . P82 ...
ROW 8E : ... .. . ... ... ... : ... .. 2 ... ... ... : ... .. . ... : ... .. . ... : ... .. . ... ... : ... .. . ... ... : ... .. . ... ... : ... .. . P80 ...
ROW 8F : ... .. A ... ... ... : ... .. 1 ... ... ... : ... .. . ... : ... .. . ... : ... .. . ... ... : ... .. . ... ... : ... .. . ... ... : ... .. . P7D ...
ROW 90 : ... .. 8 ... ... ... : ... .. . ... ... ... : ... .. . ... : ... .. . ... : ... .. . ... ... : ... .. 7 ... ... : ... .. . ... ... : ... .. . ... ...
ROW 91 : ... .. 7 ... ... ... : ... .. 0 ... ... ... : ... .. . ... : ... .. 1 ... : ... .. . ... ... : ... .. . ... ... : ... .. . ... ... : ... .. . P80 ...
ROW 92 : G-2 00 D ... ... ... : D#5 00 6 P80 ... ... : ... .. . ... : ... .. . ... : ... .. . ... ... : D#3 01 9 ... ... : ... .. . ... ... : G-4 01 F P83 ...
ROW 93 : ... .. B ... ... ... : ... .. 4 ... ... ... : ... .. . ... : ... .. . ... : ... .. . ... ... : ... .. 8 ... ... : ... .. . ... ... : ... .. D ... ...
ROW 94 : ... .. . ... ... ... : ... .. 2 ... ... ... : ... .. . ... : ... .. . ... : ... .. . ... ... : ... .. . ... ... : ... .. . ... ... : ... .. 8 P80 ...
ROW 95 : ... .. 0 ... ... ... : ... .. 1 ... ... ... : ... .. . ... : ... .. . ... : ... .. . ... ... : ... .. . ... ... : ... .. . ... ... : --- .. . ... ...
ROW 96 : ... .. . ... ... ... : ... .. . ... ... ... : ... .. . ... : ... .. . ... : ... .. . ... ... : ... .. 7 ... ... : ... .. . ... ... : ... .. . ... ...
ROW 97 : ... .. . ... ... ... : ... .. 0 ... ... ... : ... .. . ... : ... .. . ... : ... .. . ... ... : ... .. . ... ... : ... .. . ... ... : ... .. . ... ...
ROW 98 : G-2 00 D P81 ... ... : D-5 00 6 P80 ... ... : F#3 00 . ... : B-# 00 D ... : ... .. . ... ... : D-3 01 9 ... ... : ... .. . ... ... : F#4 01 F P81 ...
ROW 99 : ... .. B ... ... ... : ... .. 4 ... ... ... : G#2 00 . ... : ... .. B ... : ... .. . ... ... : ... .. 8 ... ... : ... .. . ... ... : ... .. D P83 ...
ROW 9A : ... .. . ... ... ... : ... .. 2 ... ... ... : C#2 00 . ... : ... .. . ... : ... .. . ... ... : ... .. . ... ... : ... .. . ... ... : ... .. 8 P82 ...
ROW 9B : ... .. A ... ... ... : ... .. 1 ... ... ... : C-2 00 . ... : ... .. A ... : ... .. . ... ... : ... .. . ... ... : ... .. . ... ... : ... .. . P7F ...
ROW 9C : ... .. 8 ... ... ... : ... .. . ... ... ... : G-1 00 . ... : ... .. 8 ... : ... .. . ... ... : ... .. 7 ... ... : ... .. . ... ... : ... .. . P7D ...
ROW 9D : ... .. 7 ... ... ... : ... .. 0 ... ... ... : ... .. . ... : ... .. 7 ... : ... .. . ... ... : ... .. . ... ... : ... .. . ... ... : ... .. . P7E ...
ROW 9E : ... .. D ... ... ... : D#5 00 6 P80 ... ... : ... .. . ... : ... .. 6 ... : ... .. . ... ... : ... .. . ... ... : ... .. . ... ... : ... .. . P80 ...
ROW 9F : ... .. B ... ... ... : ... .. 4 ... ... ... : ... .. . ... : ... .. . ... : ... .. . ... ... : ... .. 6 ... ... : ... .. . ... ... : ... .. . P83 ...
ROW A0 : ... .. . ... ... ... : ... .. 2 ... ... ... : ... .. . ... : ... .. 5 ... : ... .. . ... ... : ... .. . ... ... : ... .. . ... ... : ... .. . ... ...
ROW A1 : ... .. 0 ... ... ... : ... .. 1 ... ... ... : ... .. . ... : ... .. . ... : ... .. . ... ... : ... .. . ... ... : ... .. . ... ... : ... .. . P80 ...
ROW A2 : ... .. . ... ... ... : ... .. . ... ... ... : ... .. . ... : ... .. 4 ... : ... .. . ... ... : ... .. . ... ... : ... .. . ... ... : ... .. . P7D ...
ROW A3 : ... .. . ... ... ... : ... .. 0 ... ... ... : ... .. . ... : ... .. . ... : ... .. . ... ... : ... .. . ... ... : ... .. . ... ... : ... .. . ... ...
ROW A4 : G-2 00 D P81 ... ... : D-5 00 6 P80 ... ... : A#3 00 . ... : C-# 00 3 ... : ... .. . ... ... : A#2 01 9 ... ... : ... .. . ... ... : G-4 01 F P80 ...
ROW A5 : ... .. B ... ... ... : ... .. 4 ... ... ... : ... .. . ... : ... .. 2 ... : ... .. . ... ... : ... .. 8 ... ... : ... .. . ... ... : ... .. D P82 ...
ROW A6 : ... .. . ... ... ... : ... .. 2 ... ... ... : ... .. . ... : ... .. . ... : ... .. . ... ... : ... .. . ... ... : ... .. . ... ... : ... .. 8 P83 ...
ROW A7 : ... .. 0 ... ... ... : ... .. 1 ... ... ... : ... .. . ... : ... .. . ... : ... .. . ... ... : ... .. . ... ... : ... .. . ... ... : ... .. . P81 ...
ROW A8 : ... .. . ... ... ... : ... .. . ... ... ... : ... .. . ... : ... .. . ... : ... .. . ... ... : ... .. 7 ... ... : ... .. . ... ... : ... .. . P7F ...
ROW A9 : ... .. . ... ... ... : ... .. 0 ... ... ... : ... .. . ... : ... .. 1 ... : ... .. . ... ... : ... .. . ... ... : ... .. . ... ... : ... .. . P7D ...
ROW AA : G-2 00 D P81 ... ... : D#5 00 6 P80 ... ... : ... .. . ... : ... .. . ... : ... .. . ... ... : ... .. . ... ... : ... .. . ... ... : --- .. . ... ...
ROW AB : ... .. B ... ... ... : ... .. 4 ... ... ... : ... .. . ... : ... .. . ... : ... .. . ... ... : ... .. 6 ... ... : ... .. . ... ... : ... .. . ... ...
ROW AC : ... .. . ... ... ... : ... .. 2 ... ... ... : ... .. . ... : ... .. . ... : ... .. . ... ... : ... .. . ... ... : ... .. . ... ... : ... .. . ... ...
ROW AD : ... .. 0 ... ... ... : ... .. 1 ... ... ... : ... .. . ... : ... .. . ... : ... .. . ... ... : ... .. . ... ... : ... .. . ... ... : ... .. . ... ...
ROW AE : ... .. . ... ... ... : ... .. . ... ... ... : ... .. . ... : ... .. . ... : ... .. . ... ... : ... .. . ... ... : ... .. . ... ... : ... .. . ... ...
ROW AF : ... .. . ... ... ... : ... .. 0 ... ... ... : ... .. . ... : ... .. . ... : ... .. . ... ... : ... .. . ... ... : ... .. . ... ... : ... .. . ... ...
ROW B0 : G#2 00 D P81 ... ... : D-5 00 6 P80 ... ... : F#3 00 . ... : B-# 00 D ... : ... .. . ... ... : G#3 01 9 ... ... : ... .. . ... ... : D#4 01 F ... ...
ROW B1 : ... .. B ... ... ... : ... .. 4 ... ... ... : G#2 00 . ... : ... .. B ... : ... .. . ... ... : ... .. 8 ... ... : ... .. . ... ... : ... .. D P80 ...
ROW B2 : ... .. . ... ... ... : ... .. 2 ... ... ... : C#2 00 . ... : ... .. . ... : ... .. . ... ... : ... .. . ... ... : ... .. . ... ... : ... .. 8 P83 ...
ROW B3 : ... .. A ... ... ... : ... .. 1 ... ... ... : C-2 00 . ... : ... .. A ... : ... .. . ... ... : ... .. . ... ... : ... .. . ... ... : ... .. . ... ...
ROW B4 : ... .. 8 ... ... ... : ... .. . ... ... ... : G-1 00 . ... : ... .. 8 ... : ... .. . ... ... : ... .. 7 ... ... : ... .. . ... ... : ... .. . P80 ...
ROW B5 : ... .. 7 ... ... ... : ... .. 0 ... ... ... : ... .. . ... : ... .. 7 ... : ... .. . ... ... : ... .. . ... ... : ... .. . ... ... : ... .. . P7E ...
ROW B6 : G-2 00 D ... ... ... : C#5 00 6 P80 ... ... : ... .. . ... : ... .. 6 ... : ... .. . ... ... : G-3 01 9 ... ... : ... .. . ... ... : ... .. . P7D ...
ROW B7 : ... .. B ... ... ... : ... .. 4 ... ... ... : ... .. . ... : ... .. . ... : ... .. . ... ... : ... .. 8 ... ... : ... .. . ... ... : ... .. . P7F ...
ROW B8 : ... .. . ... ... ... : ... .. 2 ... ... ... : ... .. . ... : ... .. 5 ... : ... .. . ... ... : ... .. . ... ... : ... .. . ... ... : ... .. . P81 ...
ROW B9 : ... .. 0 ... ... ... : ... .. 1 ... ... ... : ... .. . ... : ... .. . ... : ... .. . ... ... : --- .. . P81 ... : ... .. . ... ... : ... .. . P83 ...
ROW BA : ... .. . ... ... ... : ... .. . ... ... ... : ... .. . ... : ... .. 4 ... : ... .. . ... ... : ... .. . ... ... : ... .. . ... ... : ... .. . P82 ...
ROW BB : ... .. . ... ... ... : ... .. 0 ... ... ... : ... .. . ... : ... .. . ... : ... .. . ... ... : ... .. . ... ... : ... .. . ... ... : ... .. . P7F ...
ROW BC : G-2 00 D P81 ... ... : C-5 00 6 P80 ... ... : D-4 00 . ... : C-# 00 3 ... : ... .. . ... ... : G-3 01 9 P80 ... : ... .. . ... ... : D-4 01 F P7D ...
ROW BD : ... .. B ... ... ... : ... .. 4 ... ... ... : ... .. . ... : ... .. 2 ... : ... .. . ... ... : ... .. 8 ... ... : ... .. . ... ... : ... .. D P7E ...
ROW BE : ... .. . ... ... ... : ... .. 2 ... ... ... : ... .. . ... : ... .. . ... : ... .. . ... ... : ... .. . ... ... : ... .. . ... ... : ... .. 8 P80 ...
ROW BF : ... .. 0 ... ... ... : ... .. 1 ... ... ... : ... .. . ... : ... .. . ... : ... .. . ... ... : --- .. . P81 ... : ... .. . ... ... : ... .. . P83 ...
ROW C0 : ... .. . ... ... ... : ... .. . ... ... ... : ... .. . ... : ... .. . ... : ... .. . ... ... : ... .. . ... ... : ... .. . ... ... : ... .. . ... ...
ROW C1 : ... .. . ... ... ... : ... .. 0 ... ... ... : ... .. . ... : ... .. 1 ... : ... .. . ... ... : ... .. . ... ... : ... .. . ... ... : ... .. . P80 ...
ROW C2 : G-2 00 D P81 ... ... : B-4 00 6 P80 ... ... : ... .. . ... : ... .. 3 ... : ... .. . ... ... : G-3 01 9 P80 ... : ... .. . ... ... : --- .. . ... ...
ROW C3 : ... .. B ... ... ... : ... .. 4 ... ... ... : ... .. . ... : ... .. 2 ... : ... .. . ... ... : ... .. 8 ... ... : ... .. . ... ... : ... .. . ... ...
ROW C4 : ... .. . ... ... ... : ... .. 2 ... ... ... : ... .. . ... : ... .. . ... : ... .. . ... ... : ... .. . ... ... : ... .. . ... ... : ... .. . ... ...
ROW C5 : ... .. 0 ... ... ... : ... .. 1 ... ... ... : ... .. . ... : ... .. . ... : ... .. . ... ... : --- .. . P81 ... : ... .. . ... ... : ... .. . ... ...
ROW C6 : ... .. . ... ... ... : ... .. . ... ... ... : ... .. . ... : ... .. . ... : ... .. . ... ... : ... .. . ... ... : ... .. . ... ... : ... .. . ... ...
ROW C7 : ... .. . ... ... ... : ... .. 0 ... ... ... : ... .. . ... : ... .. 1 ... : ... .. . ... ... : ... .. . ... ... : ... .. . ... ... : ... .. . ... ...
ROW C8 : F#2 00 D P81 ... ... : A#4 00 6 P80 ... ... : F#3 00 . ... : B-# 00 D ... : ... .. . ... ... : F#3 01 9 P80 ... : ... .. . ... ... : A#3 01 F P7F ...
ROW C9 : ... .. B ... ... ... : ... .. 4 ... ... ... : G#2 00 . ... : ... .. B ... : ... .. . ... ... : ... .. 8 ... ... : ... .. . ... ... : ... .. D P7D ...
ROW CA : ... .. . ... ... ... : ... .. 2 ... ... ... : C#2 00 . ... : ... .. . ... : ... .. . ... ... : ... .. . ... ... : ... .. . ... ... : ... .. 8 P7E ...
ROW CB : ... .. A ... ... ... : ... .. 1 ... ... ... : C-2 00 . ... : ... .. A ... : ... .. . ... ... : ... .. . ... ... : ... .. . ... ... : ... .. . P81 ...
ROW CC : ... .. 8 ... ... ... : ... .. . ... ... ... : G-1 00 . ... : ... .. 8 ... : ... .. . ... ... : ... .. 7 ... ... : ... .. . ... ... : ... .. . P83 ...
ROW CD : ... .. 7 ... ... ... : ... .. 0 ... ... ... : ... .. . ... : ... .. 7 ... : ... .. . ... ... : ... .. . ... ... : ... .. . ... ... : ... .. . P82 ...
ROW CE : G-2 00 D ... ... ... : A-4 00 6 P80 ... ... : ... .. . ... : ... .. 6 ... : ... .. . ... ... : G-3 01 9 ... ... : ... .. . ... ... : ... .. . P80 ...
ROW CF : ... .. B ... ... ... : ... .. 4 ... ... ... : ... .. . ... : ... .. . ... : ... .. . ... ... : ... .. 8 ... ... : ... .. . ... ... : ... .. . P7D ...
ROW D0 : ... .. . ... ... ... : ... .. 2 ... ... ... : ... .. . ... : ... .. 5 ... : ... .. . ... ... : ... .. . ... ... : ... .. . ... ... : ... .. . ... ...
ROW D1 : ... .. 0 ... ... ... : ... .. 1 ... ... ... : ... .. . ... : ... .. . ... : ... .. . ... ... : --- .. . P81 ... : ... .. . ... ... : ... .. . P7F ...
ROW D2 : ... .. . ... ... ... : ... .. . ... ... ... : ... .. . ... : ... .. 4 ... : ... .. . ... ... : ... .. . ... ... : ... .. . ... ... : B-3 01 8 P7B ...
ROW D3 : ... .. . ... ... ... : ... .. 0 ... ... ... : ... .. . ... : ... .. . ... : ... .. . ... ... : ... .. . ... ... : ... .. . ... ... : ... .. . P81 ...
ROW D4 : G-2 00 D P81 ... ... : G#4 00 6 P80 ... ... : D-4 00 . ... : 3-# 00 D ... : ... .. . ... ... : G-3 01 9 P80 ... : ... .. . ... ... : ... .. . P7A ...
ROW D5 : ... .. B ... ... ... : ... .. 4 ... ... ... : ... .. . ... : ... .. B ... : ... .. . ... ... : ... .. 8 ... ... : ... .. . ... ... : A#3 01 8 P7D ...
ROW D6 : ... .. . ... ... ... : ... .. 2 ... ... ... : ... .. . ... : ... .. . ... : ... .. . ... ... : ... .. . ... ... : ... .. . ... ... : A-3 01 8 P83 ...
ROW D7 : ... .. 0 ... ... ... : ... .. 1 ... ... ... : ... .. . ... : ... .. A ... : ... .. . ... ... : --- .. . P81 ... : ... .. . ... ... : ... .. . ... ...
ROW D8 : ... .. . ... ... ... : ... .. . ... ... ... : ... .. . ... : ... .. 8 ... : ... .. . ... ... : ... .. . ... ... : ... .. . ... ... : A#3 01 8 P7D ...
ROW D9 : ... .. . ... ... ... : ... .. 0 ... ... ... : ... .. . ... : ... .. 7 ... : ... .. . ... ... : ... .. . ... ... : ... .. . ... ... : B-3 01 8 P7A ...
ROW DA : G-2 00 D P81 ... ... : G-4 00 6 P80 ... ... : ... .. . ... : ... .. 6 ... : ... .. . ... ... : G-3 01 9 P80 ... : ... .. . ... ... : ... .. . P81 ...
ROW DB : ... .. B ... ... ... : ... .. 4 ... ... ... : ... .. . ... : ... .. . ... : ... .. . ... ... : ... .. 8 ... ... : ... .. . ... ... : ... .. . P7B ...
ROW DC : ... .. . ... ... ... : ... .. 2 ... ... ... : ... .. . ... : ... .. 5 ... : ... .. . ... ... : ... .. . ... ... : ... .. . ... ... : A#3 01 8 P7F ...
ROW DD : ... .. 0 ... ... ... : ... .. 1 ... ... ... : ... .. . ... : ... .. . ... : ... .. . ... ... : ... .. . ... ... : ... .. . ... ... : ... .. . P80 ...
ROW DE : ... .. . ... ... ... : ... .. . ... ... ... : ... .. . ... : ... .. 4 ... : ... .. . ... ... : ... .. 7 ... ... : ... .. . ... ... : ... .. . ... ...
ROW DF : ... .. . ... ... ... : ... .. 0 ... ... ... : ... .. . ... : ... .. . ... : ... .. . ... ... : ... .. . ... ... : ... .. . ... ... : ... .. . ... ...
ROW E0 : A#1 00 D P81 ... ... : F-5 00 6 P80 ... ... : A-4 00 . ... : C-# 00 4 ... : ... .. . ... ... : --- .. . P81 ... : ... .. . ... ... : --- .. . ... ...
ROW E1 : ... .. B ... ... ... : ... .. 4 ... ... ... : B-3 00 . ... : ... .. 3 ... : ... .. . ... ... : ... .. . ... ... : ... .. . ... ... : ... .. . ... ...
ROW E2 : ... .. . ... ... ... : ... .. 2 ... ... ... : E-3 00 . ... : ... .. 1 ... : ... .. . ... ... : ... .. . ... ... : ... .. . ... ... : ... .. . ... ...
ROW E3 : ... .. A ... ... ... : ... .. 1 ... ... ... : D#3 00 . ... : ... .. . ... : ... .. . ... ... : ... .. . ... ... : ... .. . ... ... : ... .. . ... ...
ROW E4 : ... .. 8 ... ... ... : ... .. . ... ... ... : A#2 00 . ... : ... .. . ... : ... .. . ... ... : ... .. . ... ... : ... .. . ... ... : ... .. . ... ...
ROW E5 : ... .. 7 ... ... ... : ... .. 0 ... ... ... : ... .. . ... : ... .. 0 ... : ... .. . ... ... : ... .. . ... ... : ... .. . ... ... : ... .. . ... ...
ROW E6 : ... .. 6 ... ... ... : F#5 00 6 P80 ... ... : ... .. . ... : ... .. 8 ... : ... .. . ... ... : ... .. . ... ... : ... .. . ... ... : ... .. . ... ...
ROW E7 : ... .. . ... ... ... : ... .. 4 ... ... ... : ... .. . ... : ... .. 6 ... : ... .. . ... ... : ... .. . ... ... : ... .. . ... ... : ... .. . ... ...
ROW E8 : ... .. 5 ... ... ... : ... .. 2 ... ... ... : ... .. . ... : ... .. 3 ... : ... .. . ... ... : ... .. . ... ... : ... .. . ... ... : ... .. . ... ...
ROW E9 : ... .. . ... ... ... : ... .. 1 ... ... ... : ... .. . ... : ... .. 1 ... : ... .. . ... ... : ... .. . ... ... : ... .. . ... ... : ... .. . ... ...
ROW EA : ... .. 4 ... ... ... : ... .. . ... ... ... : ... .. . ... : ... .. . ... : ... .. . ... ... : ... .. . ... ... : ... .. . ... ... : ... .. . ... ...
ROW EB : ... .. . ... ... ... : ... .. 0 ... ... ... : ... .. . ... : ... .. 0 ... : ... .. . ... ... : ... .. . ... ... : ... .. . ... ... : ... .. . ... ...
ROW EC : F-2 00 D ... ... ... : F-5 00 6 P80 ... ... : ... .. . ... : ... .. F ... : ... .. . ... ... : F-3 01 9 P80 ... : C#4 01 9 ... ... : F-4 01 F P83 ...
ROW ED : ... .. B ... ... ... : ... .. 4 ... ... ... : ... .. . ... : ... .. C ... : ... .. . ... ... : ... .. 8 ... ... : ... .. 8 ... ... : ... .. D ... ...
ROW EE : ... .. . ... ... ... : ... .. 2 ... ... ... : ... .. . ... : ... .. 6 ... : ... .. . ... ... : ... .. . ... ... : ... .. . ... ... : ... .. 8 P80 ...
ROW EF : ... .. 0 ... ... ... : ... .. 1 ... ... ... : ... .. . ... : ... .. 3 ... : ... .. . ... ... : ... .. . ... ... : ... .. . ... ... : ... .. . P7E ...
ROW F0 : ... .. . ... ... ... : ... .. . ... ... ... : ... .. . ... : ... .. 2 ... : ... .. . ... ... : ... .. 7 ... ... : ... .. 7 ... ... : ... .. . P7D ...
ROW F1 : ... .. . ... ... ... : ... .. 0 ... ... ... : ... .. . ... : ... .. 0 ... : ... .. . ... ... : ... .. . ... ... : ... .. . ... ... : ... .. . P7F ...
ROW F2 : F-2 00 D P81 ... ... : F#5 00 6 P80 ... ... : --- .. . ... : ... .. 4 ... : ... .. . ... ... : --- .. . ... ... : --- .. . ... ... : --- .. . ... ...
ROW F3 : ... .. B ... ... ... : ... .. 4 ... ... ... : ... .. . ... : ... .. 3 ... : ... .. . ... ... : ... .. . ... ... : ... .. . ... ... : ... .. . ... ...
ROW F4 : ... .. . ... ... ... : ... .. 2 ... ... ... : ... .. . ... : ... .. 1 ... : ... .. . ... ... : ... .. . ... ... : ... .. . ... ... : ... .. . ... ...
ROW F5 : ... .. 0 ... ... ... : ... .. 1 ... ... ... : ... .. . ... : ... .. . ... : ... .. . ... ... : ... .. . ... ... : ... .. . ... ... : ... .. . ... ...
ROW F6 : ... .. . ... ... ... : ... .. . ... ... ... : ... .. . ... : ... .. . ... : ... .. . ... ... : ... .. . ... ... : ... .. . ... ... : ... .. . ... ...
ROW F7 : ... .. . ... ... ... : ... .. 0 ... ... ... : ... .. . ... : ... .. 0 ... : ... .. . ... ... : ... .. . ... ... : ... .. . ... ... : ... .. . ... ...
ROW F8 : E-2 00 D P81 ... ... : F-5 00 6 P80 ... ... : E-4 00 . ... : ... .. 2 ... : ... .. . ... ... : ... .. . ... ... : ... .. . ... ... : E-4 01 F P80 ...
ROW F9 : ... .. B ... ... ... : ... .. 4 ... ... ... : F#3 00 . ... : ... .. 1 ... : ... .. . ... ... : ... .. . ... ... : ... .. . ... ... : ... .. D P83 ...
ROW FA : ... .. . ... ... ... : ... .. 2 ... ... ... : B-2 00 . ... : ... .. . ... : ... .. . ... ... : ... .. . ... ... : ... .. . ... ... : ... .. 8 ... ...
ROW FB : ... .. A ... ... ... : ... .. 1 ... ... ... : A#2 00 . ... : ... .. . ... : ... .. . ... ... : ... .. . ... ... : ... .. . ... ... : ... .. . P80 ...
ROW FC : ... .. 8 ... ... ... : ... .. . ... ... ... : F-2 00 . ... : ... .. . ... : ... .. . ... ... : ... .. . ... ... : ... .. . ... ... : ... .. . P7D ...
ROW FD : ... .. 7 ... ... ... : ... .. 0 ... ... ... : ... .. . ... : ... .. 0 ... : ... .. . ... ... : ... .. . ... ... : ... .. . ... ... : ... .. . ... ...
ROW FE : ... .. D ... ... ... : F#5 00 6 P80 ... ... : ... .. . ... : ... .. 4 ... : ... .. . ... ... : ... .. . ... ... : ... .. . ... ... : ... .. . P80 ...
ROW FF : ... .. B ... ... ... : ... .. 4 ... ... ... : ... .. . ... : ... .. 3 ... : ... .. . ... ... : ... .. . ... ... : ... .. . ... ... : ... .. . P82 ...

PATTERN 08
ROW 00 : ... .. . ... ... ... : ... .. 2 ... ... ... : ... .. . ... : ... .. 1 ... : ... .. . ... ... : ... .. . ... ... : ... .. . ... ... : ... .. . P83 ...
ROW 01 : ... .. A ... ... ... : ... .. 1 ... ... ... : ... .. . ... : ... .. . ... : ... .. . ... ... : ... .. . ... ... : ... .. . ... ... : ... .. . P81 ...
ROW 02 : ... .. 8 ... ... ... : ... .. . ... ... ... : ... .. . ... : ... .. . ... : ... .. . ... ... : ... .. . ... ... : ... .. . ... ... : ... .. . P7E ...
ROW 03 : ... .. 7 ... ... ... : ... .. 0 ... ... ... : ... .. . ... : ... .. 0 ... : ... .. . ... ... : ... .. . ... ... : ... .. . ... ... : ... .. . P7D ...
ROW 04 : F-2 00 D ... ... ... : F-5 00 6 P80 ... ... : ... .. . ... : ... .. F ... : ... .. . ... ... : E-3 01 9 ... ... : C#4 01 9 ... ... : F-4 01 F P7F ...
ROW 05 : ... .. B ... ... ... : ... .. 4 ... ... ... : ... .. . ... : ... .. C ... : ... .. . ... ... : ... .. 8 ... ... : ... .. 8 ... ... : ... .. D P81 ...
ROW 06 : ... .. . ... ... ... : ... .. 2 ... ... ... : ... .. . ... : ... .. 6 ... : ... .. . ... ... : ... .. . ... ... : ... .. . ... ... : ... .. 8 P83 ...
ROW 07 : ... .. 0 ... ... ... : ... .. 1 ... ... ... : ... .. . ... : ... .. 3 ... : ... .. . ... ... : ... .. . ... ... : ... .. . ... ... : ... .. . P82 ...
ROW 08 : ... .. . ... ... ... : ... .. . ... ... ... : ... .. . ... : ... .. 2 ... : ... .. . ... ... : ... .. 7 ... ... : ... .. 7 ... ... : ... .. . P80 ...
ROW 09 : ... .. . ... ... ... : ... .. 0 ... ... ... : ... .. . ... : ... .. 0 ... : ... .. . ... ... : ... .. . ... ... : ... .. . ... ... : ... .. . P7D ...
ROW 0A : F-2 00 D P81 ... ... : F#5 00 6 P80 ... ... : --- .. . ... : ... .. F ... : ... .. . ... ... : --- .. . P82 ... : --- .. . ... ... : --- .. . ... ...
ROW 0B : ... .. B ... ... ... : ... .. 4 ... ... ... : ... .. . ... : ... .. C ... : ... .. . ... ... : ... .. . ... ... : ... .. . ... ... : ... .. . ... ...
ROW 0C : ... .. . ... ... ... : ... .. 2 ... ... ... : ... .. . ... : ... .. 6 ... : ... .. . ... ... : ... .. . ... ... : ... .. . ... ... : ... .. . ... ...
ROW 0D : ... .. 0 ... ... ... : ... .. 1 ... ... ... : ... .. . ... : ... .. 3 ... : ... .. . ... ... : ... .. . ... ... : ... .. . ... ... : ... .. . ... ...
ROW 0E : ... .. . ... ... ... : ... .. . ... ... ... : ... .. . ... : ... .. 2 ... : ... .. . ... ... : ... .. . ... ... : ... .. . ... ... : ... .. . ... ...
ROW 0F : ... .. . ... ... ... : ... .. 0 ... ... ... : ... .. . ... : ... .. 0 ... : ... .. . ... ... : ... .. . ... ... : ... .. . ... ... : ... .. . ... ...
ROW 10 : C#2 00 D P81 ... ... : F-5 00 6 P80 ... ... : C-5 00 . ... : ... .. 2 ... : ... .. . ... ... : ... .. . ... ... : ... .. . ... ... : F#4 01 F ... ...
ROW 11 : ... .. B ... ... ... : ... .. 4 ... ... ... : D-4 00 . ... : ... .. 1 ... : ... .. . ... ... : ... .. . ... ... : ... .. . ... ... : ... .. D P7F ...
ROW 12 : ... .. . ... ... ... : ... .. 2 ... ... ... : G-3 00 . ... : ... .. . ... : ... .. . ... ... : ... .. . ... ... : ... .. . ... ... : ... .. 8 P82 ...
ROW 13 : ... .. A ... ... ... : ... .. 1 ... ... ... : F#3 00 . ... : ... .. . ... : ... .. . ... ... : ... .. . ... ... : ... .. . ... ... : ... .. . P83 ...
ROW 14 : ... .. 8 ... ... ... : ... .. . ... ... ... : C#3 00 . ... : ... .. . ... : ... .. . ... ... : ... .. . ... ... : ... .. . ... ... : ... .. . P81 ...
ROW 15 : ... .. 7 ... ... ... : ... .. 0 ... ... ... : ... .. . ... : ... .. 0 ... : ... .. . ... ... : ... .. . ... ... : ... .. . ... ... : ... .. . P7F ...
ROW 16 : ... .. D ... ... ... : F#5 00 6 P80 ... ... : ... .. . ... : ... .. 4 ... : ... .. . ... ... : ... .. . ... ... : ... .. . ... ... : ... .. . P7D ...
ROW 17 : ... .. B ... ... ... : ... .. 4 ... ... ... : ... .. . ... : ... .. 3 ... : ... .. . ... ... : ... .. . ... ... : ... .. . ... ... : ... .. . P7E ...
ROW 18 : ... .. . ... ... ... : ... .. 2 ... ... ... : ... .. . ... : ... .. 1 ... : ... .. . ... ... : ... .. . ... ... : ... .. . ... ... : ... .. . P80 ...
ROW 19 : ... .. A ... ... ... : ... .. 1 ... ... ... : ... .. . ... : ... .. . ... : ... .. . ... ... : ... .. . ... ... : ... .. . ... ... : ... .. . P83 ...
ROW 1A : ... .. 8 ... ... ... : ... .. . ... ... ... : ... .. . ... : ... .. . ... : ... .. . ... ... : ... .. . ... ... : ... .. . ... ... : ... .. . ... ...
ROW 1B : ... .. 7 ... ... ... : ... .. 0 ... ... ... : ... .. . ... : ... .. 0 ... : ... .. . ... ... : ... .. . ... ... : ... .. . ... ... : ... .. . P80 ...
ROW 1C : E-2 00 D ... ... ... : G-5 00 6 P80 ... ... : ... .. . ... : ... .. F ... : ... .. . ... ... : F-3 01 9 P80 ... : C#4 01 9 ... ... : F-4 01 F P7D ...
ROW 1D : ... .. B ... ... ... : ... .. 4 ... ... ... : ... .. . ... : ... .. C ... : ... .. . ... ... : ... .. 8 ... ... : ... .. 8 ... ... : ... .. D ... ...
ROW 1E : ... .. . ... ... ... : ... .. 2 ... ... ... : ... .. . ... : ... .. 6 ... : ... .. . ... ... : ... .. . ... ... : ... .. . ... ... : ... .. 8 P80 ...
ROW 1F : ... .. 0 ... ... ... : ... .. 1 ... ... ... : ... .. . ... : ... .. 3 ... : ... .. . ... ... : ... .. . ... ... : ... .. . ... ... : ... .. . P82 ...
ROW 20 : ... .. . ... ... ... : ... .. . ... ... ... : ... .. . ... : ... .. 2 ... : ... .. . ... ... : ... .. 7 ... ... : ... .. 7 ... ... : ... .. . P83 ...
ROW 21 : ... .. . ... ... ... : ... .. 0 ... ... ... : ... .. . ... : ... .. 0 ... : ... .. . ... ... : ... .. . ... ... : ... .. . ... ... : ... .. . P81 ...
ROW 22 : E-2 00 D P81 ... ... : G#5 00 6 P80 ... ... : --- .. . ... : ... .. F ... : ... .. . ... ... : --- .. . ... ... : --- .. . ... ... : --- .. . ... ...
ROW 23 : ... .. B ... ... ... : ... .. 4 ... ... ... : ... .. . ... : ... .. C ... : ... .. . ... ... : ... .. . ... ... : ... .. . ... ... : ... .. . ... ...
ROW 24 : ... .. . ... ... ... : ... .. 2 ... ... ... : ... .. . ... : ... .. 6 ... : ... .. . ... ... : ... .. . ... ... : ... .. . ... ... : ... .. . ... ...
ROW 25 : ... .. 0 ... ... ... : ... .. 1 ... ... ... : ... .. . ... : ... .. 3 ... : ... .. . ... ... : ... .. . ... ... : ... .. . ... ... : ... .. . ... ...
ROW 26 : ... .. . ... ... ... : ... .. . ... ... ... : ... .. . ... : ... .. 2 ... : ... .. . ... ... : ... .. . ... ... : ... .. . ... ... : ... .. . ... ...
ROW 27 : ... .. . ... ... ... : ... .. 0 ... ... ... : ... .. . ... : ... .. 0 ... : ... .. . ... ... : ... .. . ... ... : ... .. . ... ... : ... .. . ... ...
ROW 28 : C-2 00 D P81 ... ... : A-5 00 6 P80 ... ... : B-4 00 . ... : ... .. 4 ... : ... .. . ... ... : ... .. . ... ... : ... .. . ... ... : E-4 01 F P80 ...
ROW 29 : ... .. B ... ... ... : ... .. 4 ... ... ... : C#4 00 . ... : ... .. 3 ... : ... .. . ... ... : ... .. . ... ... : ... .. . ... ... : ... .. D P7D ...
ROW 2A : ... .. . ... ... ... : ... .. 2 ... ... ... : F#3 00 . ... : ... .. 1 ... : ... .. . ... ... : ... .. . ... ... : ... .. . ... ... : ... .. 8 ... ...
ROW 2B : ... .. A ... ... ... : ... .. 1 ... ... ... : F-3 00 . ... : ... .. . ... : ... .. . ... ... : ... .. . ... ... : ... .. . ... ... : ... .. . P80 ...
ROW 2C : ... .. 8 ... ... ... : ... .. . ... ... ... : C-3 00 . ... : ... .. . ... : ... .. . ... ... : ... .. . ... ... : ... .. . ... ... : ... .. . P83 ...
ROW 2D : ... .. 7 ... ... ... : ... .. 0 ... ... ... : ... .. . ... : ... .. 0 ... : ... .. . ... ... : ... .. . ... ... : ... .. . ... ... : ... .. . ... ...
ROW 2E : ... .. D ... ... ... : G#5 00 6 P80 ... ... : ... .. . ... : ... .. 8 ... : ... .. . ... ... : ... .. . ... ... : ... .. . ... ... : ... .. . P80 ...
ROW 2F : ... .. B ... ... ... : ... .. 4 ... ... ... : ... .. . ... : ... .. 6 ... : ... .. . ... ... : ... .. . ... ... : ... .. . ... ... : ... .. . P7E ...
ROW 30 : ... .. . ... ... ... : ... .. 2 ... ... ... : ... .. . ... : ... .. 3 ... : ... .. . ... ... : ... .. . ... ... : ... .. . ... ... : ... .. . P7D ...
ROW 31 : ... .. A ... ... ... : ... .. 1 ... ... ... : ... .. . ... : ... .. 1 ... : ... .. . ... ... : ... .. . ... ... : ... .. . ... ... : ... .. . P7F ...
ROW 32 : ... .. 8 ... ... ... : ... .. . ... ... ... : ... .. . ... : ... .. . ... : ... .. . ... ... : ... .. . ... ... : ... .. . ... ... : ... .. . P82 ...
ROW 33 : ... .. 7 ... ... ... : ... .. 0 ... ... ... : ... .. . ... : ... .. 0 ... : ... .. . ... ... : ... .. . ... ... : ... .. . ... ... : ... .. . P83 ...
ROW 34 : E-2 00 D ... ... ... : G-5 00 6 P80 ... ... : ... .. . ... : ... .. F ... : ... .. . ... ... : E-3 01 9 ... ... : C-4 01 9 ... ... : F-4 01 F P81 ...
ROW 35 : ... .. B ... ... ... : ... .. 4 ... ... ... : ... .. . ... : ... .. C ... : ... .. . ... ... : ... .. 8 ... ... : ... .. 8 ... ... : ... .. D P7F ...
ROW 36 : ... .. . ... ... ... : ... .. 2 ... ... ... : ... .. . ... : ... .. 6 ... : ... .. . ... ... : ... .. . ... ... : ... .. . ... ... : ... .. 8 P7D ...
ROW 37 : ... .. 0 ... ... ... : ... .. 1 ... ... ... : ... .. . ... : ... .. 3 ... : ... .. . ... ... : ... .. . ... ... : ... .. . ... ... : ... .. . P7E ...
ROW 38 : ... .. . ... ... ... : ... .. . ... ... ... : ... .. . ... : ... .. 2 ... : ... .. . ... ... : ... .. 7 ... ... : ... .. 7 ... ... : ... .. . P80 ...
ROW 39 : ... .. . ... ... ... : ... .. 0 ... ... ... : ... .. . ... : ... .. 0 ... : ... .. . ... ... : ... .. . ... ... : ... .. . ... ... : ... .. . P83 ...
ROW 3A : F-2 00 D P81 ... ... : F#5 00 6 P80 ... ... : --- .. . ... : ... .. 2 ... : ... .. . ... ... : --- .. . P82 ... : --- .. . ... ... : ... .. . ... ...
ROW 3B : ... .. B ... ... ... : ... .. 4 ... ... ... : ... .. . ... : ... .. 1 ... : ... .. . ... ... : ... .. . ... ... : ... .. . ... ... : ... .. . P80 ...
ROW 3C : ... .. . ... ... ... : ... .. 2 ... ... ... : ... .. . ... : ... .. . ... : ... .. . ... ... : ... .. . ... ... : ... .. . ... ... : ... .. . P7D ...
ROW 3D : ... .. 0 ... ... ... : ... .. 1 ... ... ... : ... .. . ... : ... .. . ... : ... .. . ... ... : ... .. . ... ... : ... .. . ... ... : ... .. . ... ...
ROW 3E : ... .. . ... ... ... : ... .. . ... ... ... : ... .. . ... : ... .. . ... : ... .. . ... ... : ... .. . ... ... : ... .. . ... ... : ... .. . P80 ...
ROW 3F : ... .. . ... ... ... : ... .. 0 ... ... ... : ... .. . ... : ... .. 0 ... : ... .. . ... ... : ... .. . ... ... : ... .. . ... ... : ... .. . P82 ...
ROW 40 : A#1 00 F P81 ... ... : F-5 00 6 P80 ... ... : A-4 00 . ... : ... .. 4 ... : ... .. . ... ... : A#2 01 9 P80 ... : ... .. . ... ... : --- .. . ... ...
ROW 41 : ... .. E ... ... ... : ... .. 4 ... ... ... : B-3 00 . ... : ... .. 3 ... : ... .. . ... ... : ... .. 8 ... ... : ... .. . ... ... : ... .. . ... ...
ROW 42 : ... .. D ... ... ... : ... .. 2 ... ... ... : E-3 00 . ... : ... .. 1 ... : ... .. . ... ... : ... .. . ... ... : ... .. . ... ... : ... .. . ... ...
ROW 43 : ... .. A ... ... ... : ... .. 1 ... ... ... : --- .. . ... : ... .. . ... : ... .. . ... ... : ... .. . ... ... : ... .. . ... ... : ... .. . ... ...
ROW 44 : ... .. . ... ... ... : ... .. . ... ... ... : ... .. . ... : ... .. . ... : ... .. . ... ... : ... .. 7 ... ... : ... .. . ... ... : ... .. . ... ...
ROW 45 : ... .. . ... ... ... : ... .. 0 ... ... ... : ... .. . ... : ... .. 0 ... : ... .. . ... ... : ... .. . ... ... : ... .. . ... ... : ... .. . ... ...
ROW 46 : A-1 00 F ... ... ... : F#5 00 6 P80 ... ... : A-2 00 . ... : ... .. 8 ... : ... .. . ... ... : A-2 01 9 ... ... : ... .. . ... ... : ... .. . ... ...
ROW 47 : ... .. E ... ... ... : ... .. 4 ... ... ... : ... .. . ... : ... .. 6 ... : ... .. . ... ... : ... .. 8 ... ... : ... .. . ... ... : ... .. . ... ...
ROW 48 : ... .. D ... ... ... : ... .. 2 ... ... ... : ... .. . ... : ... .. 3 ... : ... .. . ... ... : ... .. . ... ... : ... .. . ... ... : ... .. . ... ...
ROW 49 : ... .. A ... ... ... : ... .. 1 ... ... ... : --- .. . ... : ... .. 1 ... : ... .. . ... ... : ... .. . ... ... : ... .. . ... ... : ... .. . ... ...
ROW 4A : ... .. . ... ... ... : ... .. . ... ... ... : ... .. . ... : ... .. . ... : ... .. . ... ... : ... .. 7 ... ... : ... .. . ... ... : ... .. . ... ...
ROW 4B : ... .. . ... ... ... : ... .. 0 ... ... ... : ... .. . ... : ... .. 0 ... : ... .. . ... ... : ... .. . ... ... : ... .. . ... ... : ... .. . ... ...
ROW 4C : A#1 00 F ... ... ... : F-5 00 6 P80 ... ... : A#2 00 . ... : ... .. F ... : ... .. . ... ... : A#2 01 9 ... ... : A#3 01 9 ... ... : A#2 01 F P88 ...
ROW 4D : ... .. E ... ... ... : ... .. 4 ... ... ... : ... .. . ... : ... .. C ... : ... .. . ... ... : ... .. 8 ... ... : ... .. 8 ... ... : ... .. D ... ...
ROW 4E : ... .. D ... ... ... : ... .. 2 ... ... ... : ... .. . ... : ... .. 6 ... : ... .. . ... ... : ... .. . ... ... : ... .. . ... ... : ... .. 8 P85 ...
ROW 4F : ... .. A ... ... ... : ... .. 1 ... ... ... : --- .. . ... : ... .. 3 ... : ... .. . ... ... : ... .. . ... ... : ... .. . ... ... : ... .. . P83 ...
ROW 50 : ... .. . ... ... ... : ... .. . ... ... ... : ... .. . ... : ... .. 2 ... : ... .. . ... ... : ... .. 7 ... ... : ... .. 7 ... ... : ... .. . P82 ...
ROW 51 : ... .. . ... ... ... : ... .. 0 ... ... ... : ... .. . ... : ... .. 0 ... : ... .. . ... ... : ... .. . ... ... : ... .. . ... ... : ... .. . P84 ...
ROW 52 : C-2 00 F ... ... ... : F#5 00 6 P80 ... ... : C-3 00 . ... : ... .. 4 ... : ... .. . ... ... : C-3 01 9 ... ... : --- .. . ... ... : ... .. . P87 ...
ROW 53 : ... .. E ... ... ... : ... .. 4 ... ... ... : ... .. . ... : ... .. 3 ... : ... .. . ... ... : ... .. 8 ... ... : ... .. . ... ... : ... .. 4 P88 ...
ROW 54 : ... .. D ... ... ... : ... .. 2 ... ... ... : ... .. . ... : ... .. 1 ... : ... .. . ... ... : ... .. . ... ... : ... .. . ... ... : ... .. . P86 ...
ROW 55 : ... .. A ... ... ... : ... .. 1 ... ... ... : --- .. . ... : ... .. . ... : ... .. . ... ... : ... .. . ... ... : ... .. . ... ... : ... .. 1 P84 ...
ROW 56 : ... .. . ... ... ... : ... .. . ... ... ... : ... .. . ... : ... .. . ... : ... .. . ... ... : ... .. 7 ... ... : ... .. . ... ... : ... .. . P82 ...
ROW 57 : ... .. . ... ... ... : ... .. 0 ... ... ... : ... .. . ... : ... .. 0 ... : ... .. . ... ... : ... .. . ... ... : ... .. . ... ... : ... .. . P83 ...
ROW 58 : C#2 00 F ... ... ... : F-5 00 6 P80 ... ... : C-5 00 . ... : ... .. 2 ... : ... .. . ... ... : C#3 01 9 ... ... : C#4 01 9 ... ... : C#3 01 F P85 ...
ROW 59 : ... .. E ... ... ... : ... .. 4 ... ... ... : D-4 00 . ... : ... .. 1 ... : ... .. . ... ... : ... .. 8 ... ... : ... .. 8 ... ... : ... .. D P88 ...
ROW 5A : ... .. D ... ... ... : ... .. 2 ... ... ... : G-3 00 . ... : ... .. . ... : ... .. . ... ... : ... .. . ... ... : ... .. . ... ... : ... .. 8 ... ...
ROW 5B : ... .. A ... ... ... : ... .. 1 ... ... ... : F#3 00 . ... : ... .. . ... : ... .. . ... ... : ... .. . ... ... : ... .. . ... ... : ... .. . P85 ...
ROW 5C : ... .. . ... ... ... : ... .. . ... ... ... : C#3 00 . ... : ... .. . ... : ... .. . ... ... : ... .. 7 ... ... : ... .. 7 ... ... : ... .. . P82 ...
ROW 5D : ... .. . ... ... ... : ... .. 0 ... ... ... : ... .. . ... : ... .. 0 ... : ... .. . ... ... : ... .. . ... ... : ... .. . ... ... : ... .. . ... ...
ROW 5E : ... .. 0 ... ... ... : F#5 00 6 P80 ... ... : ... .. . ... : ... .. 4 ... : ... .. . ... ... : --- .. . P83 ... : ... .. . ... ... : ... .. . P85 ...
ROW 5F : ... .. . ... ... ... : ... .. 4 ... ... ... : ... .. . ... : ... .. 3 ... : ... .. . ... ... : ... .. . ... ... : ... .. 6 ... ... : ... .. 4 P87 ...
ROW 60 : ... .. . ... ... ... : ... .. 2 ... ... ... : ... .. . ... : ... .. 1 ... : ... .. . ... ... : ... .. . ... ... : ... .. . ... ... : ... .. . P88 ...
ROW 61 : ... .. . ... ... ... : ... .. 1 ... ... ... : --- .. . ... : ... .. . ... : ... .. . ... ... : ... .. . ... ... : ... .. . ... ... : ... .. 1 P86 ...
ROW 62 : ... .. . ... ... ... : ... .. . ... ... ... : ... .. . ... : ... .. . ... : ... .. . ... ... : ... .. . ... ... : ... .. . ... ... : ... .. . P83 ...
ROW 63 : ... .. . ... ... ... : ... .. 0 ... ... ... : ... .. . ... : ... .. 0 ... : ... .. . ... ... : ... .. . ... ... : ... .. . ... ... : ... .. . P82 ...
ROW 64 : F-1 00 F P81 ... ... : F-5 00 6 P80 ... ... : E-4 00 . ... : ... .. F ... : ... .. . ... ... : F-2 01 9 P80 ... : F-3 01 9 ... ... : F-2 01 F P84 ...
ROW 65 : ... .. E ... ... ... : ... .. 4 ... ... ... : F#3 00 . ... : ... .. C ... : ... .. . ... ... : ... .. 8 ... ... : ... .. 8 ... ... : ... .. D P86 ...
ROW 66 : ... .. D ... ... ... : ... .. 2 ... ... ... : B-2 00 . ... : ... .. 6 ... : ... .. . ... ... : ... .. . ... ... : ... .. . ... ... : ... .. 8 P88 ...
ROW 67 : ... .. A ... ... ... : ... .. 1 ... ... ... : A#2 00 . ... : ... .. 3 ... : ... .. . ... ... : ... .. . ... ... : ... .. . ... ... : ... .. . P87 ...
ROW 68 : ... .. . ... ... ... : ... .. . ... ... ... : F-2 00 . ... : ... .. 2 ... : ... .. . ... ... : ... .. 7 ... ... : ... .. 7 ... ... : ... .. . P85 ...
ROW 69 : ... .. . ... ... ... : ... .. 0 ... ... ... : ... .. . ... : ... .. 0 ... : ... .. . ... ... : ... .. . ... ... : ... .. . ... ... : ... .. . P82 ...
ROW 6A : ... .. 0 ... ... ... : F#5 00 6 P80 ... ... : ... .. . ... : ... .. F ... : ... .. . ... ... : --- .. . P7E ... : --- .. . ... ... : ... .. . ... ...
ROW 6B : ... .. . ... ... ... : ... .. 4 ... ... ... : ... .. . ... : ... .. C ... : ... .. . ... ... : ... .. . ... ... : ... .. . ... ... : ... .. . P85 ...
ROW 6C : ... .. . ... ... ... : ... .. 2 ... ... ... : ... .. . ... : ... .. 6 ... : ... .. . ... ... : ... .. . ... ... : ... .. . ... ... : ... .. . P88 ...
ROW 6D : ... .. . ... ... ... : ... .. 1 ... ... ... : --- .. . ... : ... .. 3 ... : ... .. . ... ... : ... .. . ... ... : ... .. . ... ... : ... .. . ... ...
ROW 6E : ... .. . ... ... ... : ... .. . ... ... ... : ... .. . ... : ... .. 2 ... : ... .. . ... ... : ... .. . ... ... : ... .. . ... ... : ... .. . P85 ...
ROW 6F : ... .. . ... ... ... : ... .. 0 ... ... ... : ... .. . ... : ... .. 0 ... : ... .. . ... ... : ... .. . ... ... : ... .. . ... ... : ... .. . P83 ...
ROW 70 : C#2 00 F P81 ... ... : F-5 00 6 P80 ... ... : A-4 00 . ... : ... .. 2 ... : ... .. . ... ... : C#3 01 9 P80 ... : ... .. . ... ... : ... .. . P82 ...
ROW 71 : ... .. E ... ... ... : ... .. 4 ... ... ... : B-3 00 . ... : ... .. 1 ... : ... .. . ... ... : ... .. 8 ... ... : ... .. . ... ... : ... .. 4 P84 ...
ROW 72 : ... .. D ... ... ... : ... .. 2 ... ... ... : E-3 00 . ... : ... .. . ... : ... .. . ... ... : ... .. . ... ... : ... .. . ... ... : ... .. . P87 ...
ROW 73 : ... .. A ... ... ... : ... .. 1 ... ... ... : --- .. . ... : ... .. . ... : ... .. . ... ... : ... .. . ... ... : ... .. . ... ... : ... .. 1 P88 ...
ROW 74 : ... .. . ... ... ... : ... .. . ... ... ... : ... .. . ... : ... .. . ... : ... .. . ... ... : ... .. 7 ... ... : ... .. . ... ... : ... .. . P86 ...
ROW 75 : ... .. . ... ... ... : ... .. 0 ... ... ... : ... .. . ... : ... .. 0 ... : ... .. . ... ... : ... .. . ... ... : ... .. . ... ... : ... .. . P84 ...
ROW 76 : C-2 00 F ... ... ... : E-5 00 6 P80 ... ... : A-2 00 . ... : ... .. 4 ... : ... .. . ... ... : C-3 01 9 ... ... : ... .. . ... ... : ... .. . P82 ...
ROW 77 : ... .. E ... ... ... : ... .. 4 ... ... ... : ... .. . ... : ... .. 3 ... : ... .. . ... ... : ... .. 8 ... ... : ... .. . ... ... : ... .. . P83 ...
ROW 78 : ... .. D ... ... ... : ... .. 2 ... ... ... : ... .. . ... : ... .. 1 ... : ... .. . ... ... : ... .. . ... ... : ... .. . ... ... : ... .. . P85 ...
ROW 79 : ... .. A ... ... ... : ... .. 1 ... ... ... : --- .. . ... : ... .. . ... : ... .. . ... ... : ... .. . ... ... : ... .. . ... ... : ... .. . P88 ...
ROW 7A : ... .. . ... ... ... : ... .. . ... ... ... : ... .. . ... : ... .. . ... : ... .. . ... ... : ... .. 7 ... ... : ... .. . ... ... : ... .. 0 ... ...
ROW 7B : ... .. . ... ... ... : ... .. 0 ... ... ... : ... .. . ... : ... .. 0 ... : ... .. . ... ... : ... .. . ... ... : ... .. . ... ... : ... .. . P85 ...
ROW 7C : A#1 00 F ... ... ... : D#5 00 6 P80 ... ... : A#2 00 . ... : ... .. F ... : ... .. . ... ... : A#2 01 9 ... ... : A#3 01 9 ... ... : A#2 01 F P82 ...
ROW 7D : ... .. E ... ... ... : ... .. 4 ... ... ... : ... .. . ... : ... .. C ... : ... .. . ... ... : ... .. 8 ... ... : ... .. 8 ... ... : ... .. D ... ...
ROW 7E : ... .. D ... ... ... : ... .. 2 ... ... ... : ... .. . ... : ... .. 6 ... : ... .. . ... ... : ... .. . ... ... : ... .. . ... ... : ... .. 8 P85 ...
ROW 7F : ... .. A ... ... ... : ... .. 1 ... ... ... : --- .. . ... : ... .. 3 ... : ... .. . ... ... : ... .. . ... ... : ... .. . ... ... : ... .. . P87 ...
ROW 80 : ... .. . ... ... ... : ... .. . ... ... ... : ... .. . ... : ... .. 2 ... : ... .. . ... ... : ... .. 7 ... ... : ... .. 7 ... ... : ... .. . P88 ...
ROW 81 : ... .. . ... ... ... : ... .. 0 ... ... ... : ... .. . ... : ... .. 0 ... : ... .. . ... ... : ... .. . ... ... : ... .. . ... ... : ... .. . P86 ...
ROW 82 : C-2 00 F ... ... ... : D-5 00 6 P80 ... ... : C-3 00 . ... : ... .. F ... : ... .. . ... ... : C-3 01 9 ... ... : --- .. . ... ... : ... .. . P83 ...
ROW 83 : ... .. E ... ... ... : ... .. 4 ... ... ... : ... .. . ... : ... .. C ... : ... .. . ... ... : ... .. 8 ... ... : ... .. . ... ... : ... .. 4 P82 ...
ROW 84 : ... .. D ... ... ... : ... .. 2 ... ... ... : ... .. . ... : ... .. 6 ... : ... .. . ... ... : ... .. . ... ... : ... .. . ... ... : ... .. . P84 ...
ROW 85 : ... .. A ... ... ... : ... .. 1 ... ... ... : --- .. . ... : ... .. 3 ... : ... .. . ... ... : ... .. . ... ... : ... .. . ... ... : ... .. 1 P86 ...
ROW 86 : ... .. . ... ... ... : ... .. . ... ... ... : ... .. . ... : ... .. 2 ... : ... .. . ... ... : ... .. 7 ... ... : ... .. . ... ... : ... .. . P88 ...
ROW 87 : ... .. . ... ... ... : ... .. 0 ... ... ... : ... .. . ... : ... .. 0 ... : ... .. . ... ... : ... .. . ... ... : ... .. . ... ... : ... .. . P87 ...
ROW 88 : C#2 00 F ... ... ... : C#5 00 6 P80 ... ... : C-5 00 . ... : ... .. 4 ... : ... .. . ... ... : C#3 01 9 ... ... : C#4 01 9 ... ... : C#3 01 F P85 ...
ROW 89 : ... .. E ... ... ... : ... .. 4 ... ... ... : D-4 00 . ... : ... .. 3 ... : ... .. . ... ... : ... .. 8 ... ... : ... .. 8 ... ... : ... .. D P82 ...
ROW 8A : ... .. D ... ... ... : ... .. 2 ... ... ... : G-3 00 . ... : ... .. 1 ... : ... .. . ... ... : ... .. . ... ... : ... .. . ... ... : ... .. 8 ... ...
ROW 8B : ... .. A ... ... ... : ... .. 1 ... ... ... : F#3 00 . ... : ... .. . ... : ... .. . ... ... : ... .. . ... ... : ... .. . ... ... : ... .. . P85 ...
ROW 8C : ... .. . ... ... ... : ... .. . ... ... ... : C#3 00 . ... : ... .. . ... : ... .. . ... ... : ... .. 7 ... ... : ... .. 7 ... ... : ... .. . P88 ...
ROW 8D : ... .. . ... ... ... : ... .. 0 ... ... ... : ... .. . ... : ... .. 0 ... : ... .. . ... ... : ... .. . ... ... : ... .. . ... ... : ... .. . ... ...
ROW 8E : ... .. 0 ... ... ... : D-5 00 6 P80 ... ... : ... .. . ... : ... .. 8 ... : ... .. . ... ... : --- .. . P83 ... : ... .. . ... ... : ... .. . P85 ...
ROW 8F : ... .. . ... ... ... : ... .. 4 ... ... ... : ... .. . ... : ... .. 6 ... : ... .. . ... ... : ... .. . ... ... : ... .. 6 ... ... : ... .. 4 P83 ...
ROW 90 : ... .. . ... ... ... : ... .. 2 ... ... ... : ... .. . ... : ... .. 3 ... : ... .. . ... ... : ... .. . ... ... : ... .. . ... ... : ... .. . P82 ...
ROW 91 : ... .. . ... ... ... : ... .. 1 ... ... ... : --- .. . ... : ... .. 1 ... : ... .. . ... ... : ... .. . ... ... : ... .. . ... ... : ... .. 1 P84 ...
ROW 92 : ... .. . ... ... ... : ... .. . ... ... ... : ... .. . ... : ... .. . ... : ... .. . ... ... : ... .. . ... ... : ... .. . ... ... : ... .. . P87 ...
ROW 93 : ... .. . ... ... ... : ... .. 0 ... ... ... : ... .. . ... : ... .. 0 ... : ... .. . ... ... : ... .. . ... ... : ... .. . ... ... : ... .. . P88 ...
ROW 94 : F-1 00 F P81 ... ... : D#5 00 6 P80 ... ... : E-4 00 . ... : ... .. F ... : ... .. . ... ... : F-2 01 9 P80 ... : F-3 01 9 ... ... : F-2 01 F P86 ...
ROW 95 : ... .. E ... ... ... : ... .. 4 ... ... ... : F#3 00 . ... : ... .. C ... : ... .. . ... ... : ... .. 8 ... ... : ... .. 8 ... ... : ... .. D P84 ...
ROW 96 : ... .. D ... ... ... : ... .. 2 ... ... ... : B-2 00 . ... : ... .. 6 ... : ... .. . ... ... : ... .. . ... ... : ... .. . ... ... : ... .. 8 P82 ...
ROW 97 : ... .. A ... ... ... : ... .. 1 ... ... ... : A#2 00 . ... : ... .. 3 ... : ... .. . ... ... : ... .. . ... ... : ... .. . ... ... : ... .. . P83 ...
ROW 98 : ... .. . ... ... ... : ... .. . ... ... ... : F-2 00 . ... : ... .. 2 ... : ... .. . ... ... : ... .. 7 ... ... : ... .. 7 ... ... : ... .. . P85 ...
ROW 99 : ... .. . ... ... ... : ... .. 0 ... ... ... : ... .. . ... : ... .. 0 ... : ... .. . ... ... : ... .. . ... ... : ... .. . ... ... : ... .. . P88 ...
ROW 9A : ... .. . ... ... ... : E-5 00 6 P80 ... ... : ... .. . ... : ... .. 2 ... : ... .. . ... ... : --- .. . P7E ... : --- .. . ... ... : ... .. . ... ...
ROW 9B : ... .. . ... ... ... : ... .. 4 ... ... ... : ... .. . ... : ... .. 1 ... : ... .. . ... ... : ... .. . ... ... : ... .. . ... ... : ... .. . P85 ...
ROW 9C : ... .. . ... ... ... : ... .. 2 ... ... ... : ... .. . ... : ... .. . ... : ... .. . ... ... : ... .. . ... ... : ... .. . ... ... : ... .. . P82 ...
ROW 9D : ... .. 0 ... ... ... : ... .. 1 ... ... ... : --- .. . ... : ... .. . ... : ... .. . ... ... : ... .. . ... ... : ... .. . ... ... : ... .. . ... ...
ROW 9E : ... .. . ... ... ... : ... .. . ... ... ... : ... .. . ... : ... .. . ... : ... .. . ... ... : ... .. . ... ... : ... .. . ... ... : ... .. . P85 ...
ROW 9F : ... .. . ... ... ... : ... .. 0 ... ... ... : ... .. . ... : ... .. 0 ... : ... .. . ... ... : ... .. . ... ... : ... .. . ... ... : ... .. . P87 ...
ROW A0 : A#1 00 D P81 ... ... : F-5 00 6 P80 ... ... : A-4 00 . ... : ... .. 4 ... : ... .. . ... ... : ... .. . ... ... : ... .. . ... ... : ... .. . P83 ...
ROW A1 : ... .. B ... ... ... : ... .. 4 ... ... ... : B-3 00 . ... : ... .. 3 ... : ... .. . ... ... : ... .. . ... ... : ... .. . ... ... : ... .. 4 P81 ...
ROW A2 : ... .. . ... ... ... : ... .. 2 ... ... ... : E-3 00 . ... : ... .. 1 ... : ... .. . ... ... : ... .. . ... ... : ... .. . ... ... : ... .. . P7E ...
ROW A3 : ... .. A ... ... ... : ... .. 1 ... ... ... : D#3 00 . ... : ... .. . ... : ... .. . ... ... : ... .. . ... ... : ... .. . ... ... : ... .. 1 P7D ...
ROW A4 : ... .. 8 ... ... ... : ... .. . ... ... ... : A#2 00 . ... : ... .. . ... : ... .. . ... ... : ... .. . ... ... : ... .. . ... ... : ... .. . P7F ...
ROW A5 : ... .. 7 ... ... ... : ... .. 0 ... ... ... : ... .. . ... : ... .. 0 ... : ... .. . ... ... : ... .. . ... ... : ... .. . ... ... : ... .. . P81 ...
ROW A6 : ... .. 6 ... ... ... : F#5 00 6 P80 ... ... : ... .. . ... : ... .. 8 ... : ... .. . ... ... : ... .. . ... ... : ... .. . ... ... : ... .. . P83 ...
ROW A7 : ... .. . ... ... ... : ... .. 4 ... ... ... : ... .. . ... : ... .. 6 ... : ... .. . ... ... : ... .. . ... ... : ... .. . ... ... : ... .. . P82 ...
ROW A8 : ... .. 5 ... ... ... : ... .. 2 ... ... ... : ... .. . ... : ... .. 3 ... : ... .. . ... ... : ... .. . ... ... : ... .. . ... ... : ... .. . P80 ...
ROW A9 : ... .. . ... ... ... : ... .. 1 ... ... ... : ... .. . ... : ... .. 1 ... : ... .. . ... ... : ... .. . ... ... : ... .. . ... ... : ... .. . P7D ...
ROW AA : ... .. 4 ... ... ... : ... .. . ... ... ... : ... .. . ... : ... .. . ... : ... .. . ... ... : ... .. . ... ... : ... .. . ... ... : ... .. 0 ... ...
ROW AB : ... .. . ... ... ... : ... .. 0 ... ... ... : ... .. . ... : ... .. 0 ... : ... .. . ... ... : ... .. . ... ... : ... .. . ... ... : ... .. . P80 ...
ROW AC : F-2 00 D ... ... ... : F-5 00 6 P80 ... ... : ... .. . ... : ... .. F ... : ... .. . ... ... : A#3 01 9 P80 ... : C#4 01 9 ... ... : F-4 01 F P83 ...
ROW AD : ... .. B ... ... ... : ... .. 4 ... ... ... : ... .. . ... : ... .. C ... : ... .. . ... ... : ... .. 8 ... ... : ... .. 8 ... ... : ... .. D ... ...
ROW AE : ... .. . ... ... ... : ... .. 2 ... ... ... : ... .. . ... : ... .. 6 ... : ... .. . ... ... : ... .. . ... ... : ... .. . ... ... : ... .. 8 P80 ...
ROW AF : ... .. 0 ... ... ... : ... .. 1 ... ... ... : --- .. . ... : ... .. 3 ... : ... .. . ... ... : ... .. . ... ... : ... .. . ... ... : ... .. . P7E ...
ROW B0 : ... .. . ... ... ... : ... .. . ... ... ... : ... .. . ... : ... .. 2 ... : ... .. . ... ... : ... .. 7 ... ... : ... .. 7 ... ... : ... .. . P7D ...
ROW B1 : ... .. . ... ... ... : ... .. 0 ... ... ... : ... .. . ... : ... .. 0 ... : ... .. . ... ... : ... .. . ... ... : ... .. . ... ... : ... .. . P7F ...
ROW B2 : F-2 00 D P81 ... ... : F#5 00 6 P80 ... ... : ... .. . ... : ... .. 4 ... : ... .. . ... ... : --- .. . ... ... : --- .. . ... ... : --- .. . ... ...
ROW B3 : ... .. B ... ... ... : ... .. 4 ... ... ... : ... .. . ... : ... .. 3 ... : ... .. . ... ... : ... .. . ... ... : ... .. . ... ... : ... .. . ... ...
ROW B4 : ... .. . ... ... ... : ... .. 2 ... ... ... : ... .. . ... : ... .. 1 ... : ... .. . ... ... : ... .. . ... ... : ... .. . ... ... : ... .. . ... ...
ROW B5 : ... .. 0 ... ... ... : ... .. 1 ... ... ... : ... .. . ... : ... .. . ... : ... .. . ... ... : ... .. . ... ... : ... .. . ... ... : ... .. . ... ...
ROW B6 : ... .. . ... ... ... : ... .. . ... ... ... : ... .. . ... : ... .. . ... : ... .. . ... ... : ... .. . ... ... : ... .. . ... ... : ... .. . ... ...
ROW B7 : ... .. . ... ... ... : ... .. 0 ... ... ... : ... .. . ... : ... .. 0 ... : ... .. . ... ... : ... .. . ... ... : ... .. . ... ... : ... .. . ... ...
ROW B8 : E-2 00 D P81 ... ... : F-5 00 6 P80 ... ... : E-4 00 . ... : ... .. 2 ... : ... .. . ... ... : ... .. . ... ... : ... .. . ... ... : E-4 01 F P80 ...
ROW B9 : ... .. B ... ... ... : ... .. 4 ... ... ... : F#3 00 . ... : ... .. 1 ... : ... .. . ... ... : ... .. . ... ... : ... .. . ... ... : ... .. D P83 ...
ROW BA : ... .. . ... ... ... : ... .. 2 ... ... ... : B-2 00 . ... : ... .. . ... : ... .. . ... ... : ... .. . ... ... : ... .. . ... ... : ... .. 8 ... ...
ROW BB : ... .. A ... ... ... : ... .. 1 ... ... ... : A#2 00 . ... : ... .. . ... : ... .. . ... ... : ... .. . ... ... : ... .. . ... ... : ... .. . P80 ...
ROW BC : ... .. 8 ... ... ... : ... .. . ... ... ... : F-2 00 . ... : ... .. . ... : ... .. . ... ... : ... .. . ... ... : ... .. . ... ... : ... .. . P7D ...
ROW BD : ... .. 7 ... ... ... : ... .. 0 ... ... ... : ... .. . ... : ... .. 0 ... : ... .. . ... ... : ... .. . ... ... : ... .. . ... ... : ... .. . ... ...
ROW BE : ... .. D ... ... ... : F#5 00 6 P80 ... ... : ... .. . ... : ... .. 4 ... : ... .. . ... ... : ... .. . ... ... : ... .. . ... ... : ... .. . P80 ...
ROW BF : ... .. B ... ... ... : ... .. 4 ... ... ... : ... .. . ... : ... .. 3 ... : ... .. . ... ... : ... .. . ... ... : ... .. . ... ... : ... .. . P82 ...
ROW C0 : ... .. . ... ... ... : ... .. 2 ... ... ... : ... .. . ... : ... .. 1 ... : ... .. . ... ... : ... .. . ... ... : ... .. . ... ... : ... .. . P83 ...
ROW C1 : ... .. A ... ... ... : ... .. 1 ... ... ... : ... .. . ... : ... .. . ... : ... .. . ... ... : ... .. . ... ... : ... .. . ... ... : ... .. . P81 ...
ROW C2 : ... .. 8 ... ... ... : ... .. . ... ... ... : ... .. . ... : ... .. . ... : ... .. . ... ... : ... .. . ... ... : ... .. . ... ... : ... .. . P7E ...
ROW C3 : ... .. 7 ... ... ... : ... .. 0 ... ... ... : ... .. . ... : ... .. 0 ... : ... .. . ... ... : ... .. . ... ... : ... .. . ... ... : ... .. . P7D ...
ROW C4 : F-2 00 D ... ... ... : F-5 00 6 P80 ... ... : ... .. . ... : ... .. F ... : ... .. . ... ... : A-3 01 9 ... ... : C#4 01 9 ... ... : F-4 01 F P7F ...
ROW C5 : ... .. B ... ... ... : ... .. 4 ... ... ... : ... .. . ... : ... .. C ... : ... .. . ... ... : ... .. 8 ... ... : ... .. 8 ... ... : ... .. D P81 ...
ROW C6 : ... .. . ... ... ... : ... .. 2 ... ... ... : ... .. . ... : ... .. 6 ... : ... .. . ... ... : ... .. . ... ... : ... .. . ... ... : ... .. 8 P83 ...
ROW C7 : ... .. 0 ... ... ... : ... .. 1 ... ... ... : --- .. . ... : ... .. 3 ... : ... .. . ... ... : ... .. . ... ... : ... .. . ... ... : ... .. . P82 ...
ROW C8 : ... .. . ... ... ... : ... .. . ... ... ... : ... .. . ... : ... .. 2 ... : ... .. . ... ... : ... .. 7 ... ... : ... .. 7 ... ... : ... .. . P80 ...
ROW C9 : ... .. . ... ... ... : ... .. 0 ... ... ... : ... .. . ... : ... .. 0 ... : ... .. . ... ... : ... .. . ... ... : ... .. . ... ... : ... .. . P7D ...
ROW CA : F-2 00 D P81 ... ... : F#5 00 6 P80 ... ... : ... .. . ... : ... .. F ... : ... .. . ... ... : --- .. . ... ... : --- .. . ... ... : --- .. . ... ...
ROW CB : ... .. B ... ... ... : ... .. 4 ... ... ... : ... .. . ... : ... .. C ... : ... .. . ... ... : ... .. . ... ... : ... .. . ... ... : ... .. . ... ...
ROW CC : ... .. . ... ... ... : ... .. 2 ... ... ... : ... .. . ... : ... .. 6 ... : ... .. . ... ... : ... .. . ... ... : ... .. . ... ... : ... .. . ... ...
ROW CD : ... .. 0 ... ... ... : ... .. 1 ... ... ... : ... .. . ... : ... .. 3 ... : ... .. . ... ... : ... .. . ... ... : ... .. . ... ... : ... .. . ... ...
ROW CE : ... .. . ... ... ... : ... .. . ... ... ... : ... .. . ... : ... .. 2 ... : ... .. . ... ... : ... .. . ... ... : ... .. . ... ... : ... .. . ... ...
ROW CF : ... .. . ... ... ... : ... .. 0 ... ... ... : ... .. . ... : ... .. 0 ... : ... .. . ... ... : ... .. . ... ... : ... .. . ... ... : ... .. . ... ...
ROW D0 : C#2 00 D P81 ... ... : F-5 00 6 P80 ... ... : C-5 00 . ... : ... .. 2 ... : ... .. . ... ... : ... .. . ... ... : ... .. . ... ... : F#4 01 F ... ...
ROW D1 : ... .. B ... ... ... : ... .. 4 ... ... ... : D-4 00 . ... : ... .. 1 ... : ... .. . ... ... : ... .. . ... ... : ... .. . ... ... : ... .. D P7F ...
ROW D2 : ... .. . ... ... ... : ... .. 2 ... ... ... : G-3 00 . ... : ... .. . ... : ... .. . ... ... : ... .. . ... ... : ... .. . ... ... : ... .. 8 P82 ...
ROW D3 : ... .. A ... ... ... : ... .. 1 ... ... ... : F#3 00 . ... : ... .. . ... : ... .. . ... ... : ... .. . ... ... : ... .. . ... ... : ... .. . P83 ...
ROW D4 : ... .. 8 ... ... ... : ... .. . ... ... ... : C#3 00 . ... : ... .. . ... : ... .. . ... ... : ... .. . ... ... : ... .. . ... ... : ... .. . P81 ...
ROW D5 : ... .. 7 ... ... ... : ... .. 0 ... ... ... : ... .. . ... : ... .. 0 ... : ... .. . ... ... : ... .. . ... ... : ... .. . ... ... : ... .. . P7F ...
ROW D6 : ... .. D ... ... ... : F#5 00 6 P80 ... ... : ... .. . ... : ... .. 4 ... : ... .. . ... ... : ... .. . ... ... : ... .. . ... ... : ... .. . P7D ...
ROW D7 : ... .. B ... ... ... : ... .. 4 ... ... ... : ... .. . ... : ... .. 3 ... : ... .. . ... ... : ... .. . ... ... : ... .. . ... ... : ... .. . P7E ...
ROW D8 : ... .. . ... ... ... : ... .. 2 ... ... ... : ... .. . ... : ... .. 1 ... : ... .. . ... ... : ... .. . ... ... : ... .. . ... ... : ... .. . P80 ...
ROW D9 : ... .. A ... ... ... : ... .. 1 ... ... ... : ... .. . ... : ... .. . ... : ... .. . ... ... : ... .. . ... ... : ... .. . ... ... : ... .. . P83 ...
ROW DA : ... .. 8 ... ... ... : ... .. . ... ... ... : ... .. . ... : ... .. . ... : ... .. . ... ... : ... .. . ... ... : ... .. . ... ... : ... .. . ... ...
ROW DB : ... .. 7 ... ... ... : ... .. 0 ... ... ... : ... .. . ... : ... .. 0 ... : ... .. . ... ... : ... .. . ... ... : ... .. . ... ... : ... .. . P80 ...
ROW DC : F-2 00 D ... ... ... : G-5 00 6 P80 ... ... : ... .. . ... : ... .. F ... : ... .. . ... ... : G#3 01 9 ... ... : C#4 01 9 ... ... : F-4 01 F P7D ...
ROW DD : ... .. B ... ... ... : ... .. 4 ... ... ... : ... .. . ... : ... .. C ... : ... .. . ... ... : ... .. 8 ... ... : ... .. 8 ... ... : ... .. D ... ...
ROW DE : ... .. . ... ... ... : ... .. 2 ... ... ... : ... .. . ... : ... .. 6 ... : ... .. . ... ... : ... .. . ... ... : ... .. . ... ... : ... .. 8 P80 ...
ROW DF : ... .. 0 ... ... ... : ... .. 1 ... ... ... : --- .. . ... : ... .. 3 ... : ... .. . ... ... : ... .. . ... ... : ... .. . ... ... : ... .. . P82 ...
ROW E0 : ... .. . ... ... ... : ... .. . ... ... ... : ... .. . ... : ... .. 2 ... : ... .. . ... ... : ... .. 7 ... ... : ... .. 7 ... ... : ... .. . P83 ...
ROW E1 : ... .. . ... ... ... : ... .. 0 ... ... ... : ... .. . ... : ... .. 0 ... : ... .. . ... ... : ... .. . ... ... : ... .. . ... ... : ... .. . P81 ...
ROW E2 : F-2 00 D P81 ... ... : G#5 00 6 P80 ... ... : ... .. . ... : ... .. F ... : ... .. . ... ... : --- .. . P82 ... : --- .. . ... ... : --- .. . ... ...
ROW E3 : ... .. B ... ... ... : ... .. 4 ... ... ... : ... .. . ... : ... .. C ... : ... .. . ... ... : ... .. . ... ... : ... .. . ... ... : ... .. . ... ...
ROW E4 : ... .. . ... ... ... : ... .. 2 ... ... ... : ... .. . ... : ... .. 6 ... : ... .. . ... ... : ... .. . ... ... : ... .. . ... ... : ... .. . ... ...
ROW E5 : ... .. 0 ... ... ... : ... .. 1 ... ... ... : ... .. . ... : ... .. 3 ... : ... .. . ... ... : ... .. . ... ... : ... .. . ... ... : ... .. . ... ...
ROW E6 : ... .. . ... ... ... : ... .. . ... ... ... : ... .. . ... : ... .. 2 ... : ... .. . ... ... : ... .. . ... ... : ... .. . ... ... : ... .. . ... ...
ROW E7 : ... .. . ... ... ... : ... .. 0 ... ... ... : ... .. . ... : ... .. 0 ... : ... .. . ... ... : ... .. . ... ... : ... .. . ... ... : ... .. . ... ...
ROW E8 : F#2 00 D P81 ... ... : A-5 00 6 P80 ... ... : B-4 00 . ... : ... .. 4 ... : ... .. . ... ... : ... .. . ... ... : ... .. . ... ... : E-4 01 F P80 ...
ROW E9 : ... .. B ... ... ... : ... .. 4 ... ... ... : C#4 00 . ... : ... .. 3 ... : ... .. . ... ... : ... .. . ... ... : ... .. . ... ... : ... .. D P7D ...
ROW EA : ... .. . ... ... ... : ... .. 2 ... ... ... : F#3 00 . ... : ... .. 1 ... : ... .. . ... ... : ... .. . ... ... : ... .. . ... ... : ... .. 8 ... ...
ROW EB : ... .. A ... ... ... : ... .. 1 ... ... ... : F-3 00 . ... : ... .. . ... : ... .. . ... ... : ... .. . ... ... : ... .. . ... ... : ... .. . P80 ...
ROW EC : ... .. 8 ... ... ... : ... .. . ... ... ... : C-3 00 . ... : ... .. . ... : ... .. . ... ... : ... .. . ... ... : ... .. . ... ... : ... .. . P83 ...
ROW ED : ... .. 7 ... ... ... : ... .. 0 ... ... ... : ... .. . ... : ... .. 0 ... : ... .. . ... ... : ... .. . ... ... : ... .. . ... ... : ... .. . ... ...
ROW EE : F-2 00 D ... ... ... : G#5 00 6 P80 ... ... : ... .. . ... : ... .. 8 ... : ... .. . ... ... : ... .. . ... ... : ... .. . ... ... : ... .. . P80 ...
ROW EF : ... .. B ... ... ... : ... .. 4 ... ... ... : ... .. . ... : ... .. 6 ... : ... .. . ... ... : ... .. . ... ... : ... .. . ... ... : ... .. . P7E ...
ROW F0 : ... .. . ... ... ... : ... .. 2 ... ... ... : ... .. . ... : ... .. 3 ... : ... .. . ... ... : ... .. . ... ... : ... .. . ... ... : ... .. . P7D ...
ROW F1 : ... .. A ... ... ... : ... .. 1 ... ... ... : ... .. . ... : ... .. 1 ... : ... .. . ... ... : ... .. . ... ... : ... .. . ... ... : ... .. . P7F ...
ROW F2 : ... .. 8 ... ... ... : ... .. . ... ... ... : ... .. . ... : ... .. . ... : ... .. . ... ... : ... .. . ... ... : ... .. . ... ... : ... .. . P82 ...
ROW F3 : ... .. 7 ... ... ... : ... .. 0 ... ... ... : ... .. . ... : ... .. 0 ... : ... .. . ... ... : ... .. . ... ... : ... .. . ... ... : ... .. . P83 ...
ROW F4 : C#2 00 D ... ... ... : G-5 00 6 P80 ... ... : ... .. . ... : ... .. F ... : ... .. . ... ... : G-3 01 9 P80 ... : C#4 01 9 ... ... : F-4 01 F P81 ...
ROW F5 : ... .. B ... ... ... : ... .. 4 ... ... ... : ... .. . ... : ... .. C ... : ... .. . ... ... : ... .. 8 ... ... : ... .. 8 ... ... : ... .. D P7F ...
ROW F6 : ... .. . ... ... ... : ... .. 2 ... ... ... : ... .. . ... : ... .. 6 ... : ... .. . ... ... : ... .. . ... ... : ... .. . ... ... : ... .. 8 P7D ...
ROW F7 : ... .. 0 ... ... ... : ... .. 1 ... ... ... : --- .. . ... : ... .. 3 ... : ... .. . ... ... : ... .. . ... ... : ... .. . ... ... : ... .. . P7E ...
ROW F8 : ... .. . ... ... ... : ... .. . ... ... ... : ... .. . ... : ... .. 2 ... : ... .. . ... ... : ... .. 7 ... ... : ... .. 7 ... ... : ... .. . P80 ...
ROW F9 : ... .. . ... ... ... : ... .. 0 ... ... ... : ... .. . ... : ... .. 0 ... : ... .. . ... ... : ... .. . ... ... : ... .. . ... ... : ... .. . P83 ...
ROW FA : C-2 00 D P81 ... ... : F#5 00 6 P80 ... ... : ... .. . ... : ... .. 2 ... : ... .. . ... ... : --- .. . P81 ... : --- .. . ... ... : ... .. . ... ...
ROW FB : ... .. B ... ... ... : ... .. 4 ... ... ... : ... .. . ... : ... .. 1 ... : ... .. . ... ... : ... .. . ... ... : ... .. . ... ... : ... .. . P80 ...
ROW FC : ... .. . ... ... ... : ... .. 2 ... ... ... : ... .. . ... : ... .. . ... : ... .. . ... ... : ... .. . ... ... : ... .. . ... ... : ... .. . P7D ...
ROW FD : ... .. 0 ... ... ... : ... .. 1 ... ... ... : ... .. . ... : ... .. . ... : ... .. . ... ... : ... .. . ... ... : ... .. . ... ... : ... .. . ... ...
ROW FE : ... .. . ... ... ... : ... .. . ... ... ... : ... .. . ... : ... .. . ... : ... .. . ... ... : ... .. . ... ... : ... .. . ... ... : ... .. . P80 ...
ROW FF : ... .. . ... ... ... : ... .. 0 ... ... ... : ... .. . ... : ... .. 0 ... : ... .. . ... ... : ... .. . ... ... : ... .. . ... ... : ... .. . P82 ...

PATTERN 09
ROW 00 : A#1 00 D P81 ... ... : F-5 00 6 P80 ... ... : A-3 00 . ... : ... .. F ... : ... .. . ... ... : F#3 01 9 P80 ... : ... .. . ... ... : C-5 01 F P83 ...
ROW 01 : ... .. B ... ... ... : ... .. 4 ... ... ... : B-2 00 . ... : ... .. C ... : ... .. . ... ... : ... .. 8 ... ... : ... .. . ... ... : ... .. D P81 ...
ROW 02 : ... .. . ... ... ... : ... .. 2 ... ... ... : E-2 00 . ... : ... .. 6 ... : ... .. . ... ... : ... .. . ... ... : ... .. . ... ... : ... .. 8 P7E ...
ROW 03 : ... .. A ... ... ... : ... .. 1 ... ... ... : D#2 00 . ... : ... .. 3 ... : ... .. . ... ... : ... .. . ... ... : ... .. . ... ... : ... .. . P7D ...
ROW 04 : ... .. 8 ... ... ... : ... .. . ... ... ... : A#1 00 . ... : ... .. 2 ... : ... .. . ... ... : ... .. 7 ... ... : ... .. . ... ... : ... .. . P7F ...
ROW 05 : ... .. 7 ... ... ... : ... .. 0 ... ... ... : ... .. . ... : ... .. 0 ... : ... .. . ... ... : ... .. . ... ... : ... .. . ... ... : ... .. . P81 ...
ROW 06 : ... .. 6 ... ... ... : F#5 00 6 P80 ... ... : ... .. . ... : ... .. . ... : ... .. . ... ... : F-3 01 9 ... ... : ... .. . ... ... : ... .. . P83 ...
ROW 07 : ... .. . ... ... ... : ... .. 4 ... ... ... : ... .. . ... : ... .. . ... : ... .. . ... ... : ... .. 8 ... ... : ... .. . ... ... : ... .. . P82 ...
ROW 08 : ... .. 5 ... ... ... : ... .. 2 ... ... ... : ... .. . ... : ... .. . ... : ... .. . ... ... : ... .. . ... ... : ... .. . ... ... : ... .. . P80 ...
ROW 09 : ... .. . ... ... ... : ... .. 1 ... ... ... : ... .. . ... : ... .. . ... : ... .. . ... ... : ... .. . ... ... : ... .. . ... ... : ... .. . P7D ...
ROW 0A : ... .. 4 ... ... ... : ... .. . ... ... ... : ... .. . ... : ... .. . ... : ... .. . ... ... : ... .. 7 ... ... : ... .. . ... ... : ... .. . ... ...
ROW 0B : ... .. . ... ... ... : ... .. 0 ... ... ... : ... .. . ... : ... .. . ... : ... .. . ... ... : ... .. . ... ... : ... .. . ... ... : ... .. . P80 ...
ROW 0C : A-2 00 D ... ... ... : F-5 00 6 P80 ... ... : C#4 00 . ... : ... .. 3 ... : ... .. . ... ... : E-3 01 9 ... ... : ... .. . ... ... : ... .. . P83 ...
ROW 0D : ... .. B ... ... ... : ... .. 4 ... ... ... : ... .. . ... : ... .. 2 ... : ... .. . ... ... : ... .. 8 ... ... : ... .. . ... ... : ... .. . ... ...
ROW 0E : ... .. . ... ... ... : ... .. 2 ... ... ... : ... .. . ... : ... .. . ... : ... .. . ... ... : ... .. . ... ... : ... .. . ... ... : ... .. . P80 ...
ROW 0F : ... .. A ... ... ... : ... .. 1 ... ... ... : ... .. . ... : ... .. . ... : ... .. . ... ... : ... .. . ... ... : ... .. . ... ... : ... .. . P7E ...
ROW 10 : ... .. 8 ... ... ... : ... .. . ... ... ... : ... .. . ... : ... .. . ... : ... .. . ... ... : ... .. 7 ... ... : ... .. . ... ... : ... .. . P7D ...
ROW 11 : ... .. 7 ... ... ... : ... .. 0 ... ... ... : ... .. . ... : ... .. 1 ... : ... .. . ... ... : ... .. . ... ... : ... .. . ... ... : ... .. . P7F ...
ROW 12 : A#2 00 D ... ... ... : F#5 00 6 P80 ... ... : ... .. . ... : ... .. . ... : ... .. . ... ... : F#3 01 9 ... ... : ... .. . ... ... : A#4 01 F P82 ...
ROW 13 : ... .. B ... ... ... : ... .. 4 ... ... ... : ... .. . ... : ... .. . ... : ... .. . ... ... : ... .. 8 ... ... : ... .. . ... ... : ... .. D P83 ...
ROW 14 : ... .. . ... ... ... : ... .. 2 ... ... ... : ... .. . ... : ... .. . ... : ... .. . ... ... : ... .. . ... ... : ... .. . ... ... : ... .. 8 P81 ...
ROW 15 : ... .. 0 ... ... ... : ... .. 1 ... ... ... : ... .. . ... : ... .. . ... : ... .. . ... ... : ... .. . ... ... : ... .. . ... ... : --- .. . ... ...
ROW 16 : ... .. . ... ... ... : ... .. . ... ... ... : ... .. . ... : ... .. . ... : ... .. . ... ... : ... .. 7 ... ... : ... .. . ... ... : ... .. . ... ...
ROW 17 : ... .. . ... ... ... : ... .. 0 ... ... ... : ... .. . ... : ... .. . ... : ... .. . ... ... : ... .. . ... ... : ... .. . ... ... : ... .. . ... ...
ROW 18 : A#2 00 D P81 ... ... : F-5 00 6 P80 ... ... : A-3 00 . ... : ... .. F ... : ... .. . ... ... : F-3 01 9 ... ... : ... .. . ... ... : A-4 01 F P80 ...
ROW 19 : ... .. B ... ... ... : ... .. 4 ... ... ... : B-2 00 . ... : ... .. C ... : ... .. . ... ... : ... .. 8 ... ... : ... .. . ... ... : ... .. D P83 ...
ROW 1A : ... .. . ... ... ... : ... .. 2 ... ... ... : E-2 00 . ... : ... .. 6 ... : ... .. . ... ... : ... .. . ... ... : ... .. . ... ... : ... .. 8 ... ...
ROW 1B : ... .. A ... ... ... : ... .. 1 ... ... ... : D#2 00 . ... : ... .. 3 ... : ... .. . ... ... : ... .. . ... ... : ... .. . ... ... : ... .. . P80 ...
ROW 1C : ... .. 8 ... ... ... : ... .. . ... ... ... : A#1 00 . ... : ... .. 2 ... : ... .. . ... ... : ... .. 7 ... ... : ... .. . ... ... : ... .. . P7D ...
ROW 1D : ... .. 7 ... ... ... : ... .. 0 ... ... ... : ... .. . ... : ... .. 0 ... : ... .. . ... ... : ... .. . ... ... : ... .. . ... ... : ... .. . ... ...
ROW 1E : ... .. D ... ... ... : F#5 00 6 P80 ... ... : ... .. . ... : ... .. . ... : ... .. . ... ... : ... .. . ... ... : ... .. . ... ... : ... .. . P80 ...
ROW 1F : ... .. B ... ... ... : ... .. 4 ... ... ... : ... .. . ... : ... .. . ... : ... .. . ... ... : ... .. 6 ... ... : ... .. . ... ... : ... .. . P82 ...
ROW 20 : ... .. . ... ... ... : ... .. 2 ... ... ... : ... .. . ... : ... .. . ... : ... .. . ... ... : ... .. . ... ... : ... .. . ... ... : ... .. . P83 ...
ROW 21 : ... .. 0 ... ... ... : ... .. 1 ... ... ... : ... .. . ... : ... .. . ... : ... .. . ... ... : ... .. . ... ... : ... .. . ... ... : ... .. . P81 ...
ROW 22 : ... .. . ... ... ... : ... .. . ... ... ... : ... .. . ... : ... .. . ... : ... .. . ... ... : ... .. . ... ... : ... .. . ... ... : ... .. . P7E ...
ROW 23 : ... .. . ... ... ... : ... .. 0 ... ... ... : ... .. . ... : ... .. . ... : ... .. . ... ... : ... .. . ... ... : ... .. . ... ... : ... .. . P7D ...
ROW 24 : A#2 00 D P81 ... ... : F-5 00 6 P80 ... ... : C#4 00 . ... : ... .. 3 ... : ... .. . ... ... : C#3 01 9 ... ... : ... .. . ... ... : A#4 01 F P7F ...
ROW 25 : ... .. B ... ... ... : ... .. 4 ... ... ... : ... .. . ... : ... .. 2 ... : ... .. . ... ... : ... .. 8 ... ... : ... .. . ... ... : ... .. D P81 ...
ROW 26 : ... .. . ... ... ... : ... .. 2 ... ... ... : ... .. . ... : ... .. . ... : ... .. . ... ... : ... .. . ... ... : ... .. . ... ... : ... .. 8 P83 ...
ROW 27 : ... .. 0 ... ... ... : ... .. 1 ... ... ... : ... .. . ... : ... .. . ... : ... .. . ... ... : ... .. . ... ... : ... .. . ... ... : ... .. . P82 ...
ROW 28 : ... .. . ... ... ... : ... .. . ... ... ... : ... .. . ... : ... .. . ... : ... .. . ... ... : ... .. 7 ... ... : ... .. . ... ... : ... .. . P80 ...
ROW 29 : ... .. . ... ... ... : ... .. 0 ... ... ... : ... .. . ... : ... .. 1 ... : ... .. . ... ... : ... .. . ... ... : ... .. . ... ... : ... .. . P7D ...
ROW 2A : A#2 00 D P81 ... ... : F#5 00 6 P80 ... ... : ... .. . ... : ... .. . ... : ... .. . ... ... : ... .. . ... ... : ... .. . ... ... : --- .. . ... ...
ROW 2B : ... .. B ... ... ... : ... .. 4 ... ... ... : ... .. . ... : ... .. . ... : ... .. . ... ... : ... .. 6 ... ... : ... .. . ... ... : ... .. . ... ...
ROW 2C : ... .. . ... ... ... : ... .. 2 ... ... ... : ... .. . ... : ... .. . ... : ... .. . ... ... : ... .. . ... ... : ... .. . ... ... : ... .. . ... ...
ROW 2D : ... .. 0 ... ... ... : ... .. 1 ... ... ... : ... .. . ... : ... .. . ... : ... .. . ... ... : ... .. . ... ... : ... .. . ... ... : ... .. . ... ...
ROW 2E : ... .. . ... ... ... : ... .. . ... ... ... : ... .. . ... : ... .. . ... : ... .. . ... ... : ... .. . ... ... : ... .. . ... ... : ... .. . ... ...
ROW 2F : ... .. . ... ... ... : ... .. 0 ... ... ... : ... .. . ... : ... .. . ... : ... .. . ... ... : ... .. . ... ... : ... .. . ... ... : ... .. . ... ...
ROW 30 : B-2 00 D P81 ... ... : F-5 00 6 P80 ... ... : A-3 00 . ... : B-# 00 F ... : ... .. . ... ... : B-3 01 9 ... ... : ... .. . ... ... : D-5 01 F P83 ...
ROW 31 : ... .. B ... ... ... : ... .. 4 ... ... ... : B-2 00 . ... : ... .. C ... : ... .. . ... ... : ... .. 8 ... ... : ... .. . ... ... : D#5 01 D P7F ...
ROW 32 : ... .. . ... ... ... : ... .. 2 ... ... ... : E-2 00 . ... : ... .. 6 ... : ... .. . ... ... : ... .. . ... ... : ... .. . ... ... : ... .. 8 P82 ...
ROW 33 : ... .. A ... ... ... : ... .. 1 ... ... ... : D#2 00 . ... : ... .. 3 ... : ... .. . ... ... : ... .. . ... ... : ... .. . ... ... : ... .. . P83 ...
ROW 34 : ... .. 8 ... ... ... : ... .. . ... ... ... : A#1 00 . ... : ... .. 2 ... : ... .. . ... ... : ... .. 7 ... ... : ... .. . ... ... : E-5 01 8 P80 ...
ROW 35 : ... .. 7 ... ... ... : ... .. 0 ... ... ... : ... .. . ... : ... .. 0 ... : ... .. . ... ... : ... .. . ... ... : ... .. . ... ... : F-5 01 8 P7E ...
ROW 36 : A#2 00 D ... ... ... : E-5 00 6 P80 ... ... : ... .. . ... : ... .. F ... : ... .. . ... ... : A#3 01 9 ... ... : ... .. . ... ... : E-5 01 8 P82 ...
ROW 37 : ... .. B ... ... ... : ... .. 4 ... ... ... : ... .. . ... : ... .. C ... : ... .. . ... ... : ... .. 8 ... ... : ... .. . ... ... : F-5 01 8 P7E ...
ROW 38 : ... .. . ... ... ... : ... .. 2 ... ... ... : ... .. . ... : ... .. 6 ... : ... .. . ... ... : ... .. . ... ... : ... .. . ... ... : ... .. . P80 ...
ROW 39 : ... .. 0 ... ... ... : ... .. 1 ... ... ... : ... .. . ... : ... .. 3 ... : ... .. . ... ... : --- .. . ... ... : ... .. . ... ... : ... .. . P83 ...
ROW 3A : ... .. . ... ... ... : ... .. . ... ... ... : ... .. . ... : ... .. 2 ... : ... .. . ... ... : ... .. . ... ... : ... .. . ... ... : ... .. . ... ...
ROW 3B : ... .. . ... ... ... : ... .. 0 ... ... ... : ... .. . ... : ... .. 0 ... : ... .. . ... ... : ... .. . ... ... : ... .. . ... ... : ... .. . P80 ...
ROW 3C : A#2 00 D P81 ... ... : D#5 00 6 P80 ... ... : F-4 00 . ... : 8-# 00 F ... : ... .. . ... ... : A#3 01 9 ... ... : ... .. . ... ... : E-5 01 8 P82 ...
ROW 3D : ... .. B ... ... ... : ... .. 4 ... ... ... : ... .. . ... : ... .. C ... : ... .. . ... ... : ... .. 8 ... ... : ... .. . ... ... : ... .. . ... ...
ROW 3E : ... .. . ... ... ... : ... .. 2 ... ... ... : ... .. . ... : ... .. 6 ... : ... .. . ... ... : ... .. . ... ... : ... .. . ... ... : F-5 01 8 P80 ...
ROW 3F : ... .. 0 ... ... ... : ... .. 1 ... ... ... : ... .. . ... : ... .. 3 ... : ... .. . ... ... : --- .. . ... ... : ... .. . ... ... : ... .. . P82 ...
ROW 40 : ... .. . ... ... ... : ... .. . ... ... ... : ... .. . ... : ... .. 2 ... : ... .. . ... ... : ... .. . ... ... : ... .. . ... ... : ... .. . P83 ...
ROW 41 : ... .. . ... ... ... : ... .. 0 ... ... ... : ... .. . ... : ... .. 0 ... : ... .. . ... ... : ... .. . ... ... : ... .. . ... ... : ... .. . P81 ...
ROW 42 : A#2 00 D P81 ... ... : D-5 00 6 P80 ... ... : ... .. . ... : ... .. F ... : ... .. . ... ... : A#3 01 9 ... ... : ... .. . ... ... : ... .. . P7E ...
ROW 43 : ... .. B ... ... ... : ... .. 4 ... ... ... : ... .. . ... : ... .. C ... : ... .. . ... ... : ... .. 8 ... ... : ... .. . ... ... : E-5 01 8 P82 ...
ROW 44 : ... .. . ... ... ... : ... .. 2 ... ... ... : ... .. . ... : ... .. 6 ... : ... .. . ... ... : ... .. . ... ... : ... .. . ... ... : F-5 01 8 P7F ...
ROW 45 : ... .. 0 ... ... ... : ... .. 1 ... ... ... : ... .. . ... : ... .. 3 ... : ... .. . ... ... : --- .. . ... ... : ... .. . ... ... : ... .. . P81 ...
ROW 46 : ... .. . ... ... ... : ... .. . ... ... ... : ... .. . ... : ... .. 2 ... : ... .. . ... ... : ... .. . ... ... : ... .. . ... ... : ... .. . P83 ...
ROW 47 : ... .. . ... ... ... : ... .. 0 ... ... ... : ... .. . ... : ... .. 0 ... : ... .. . ... ... : ... .. . ... ... : ... .. . ... ... : ... .. . P82 ...
ROW 48 : A-2 00 D P81 ... ... : C#5 00 6 P80 ... ... : A-3 00 . ... : 6-# 00 F ... : ... .. . ... ... : A-3 01 9 ... ... : ... .. . ... ... : ... .. . P80 ...
ROW 49 : ... .. B ... ... ... : ... .. 4 ... ... ... : B-2 00 . ... : ... .. C ... : ... .. . ... ... : ... .. 8 ... ... : ... .. . ... ... : ... .. . P7E ...
ROW 4A : ... .. . ... ... ... : ... .. 2 ... ... ... : E-2 00 . ... : ... .. 6 ... : ... .. . ... ... : ... .. . ... ... : ... .. . ... ... : ... .. . ... ...
ROW 4B : ... .. A ... ... ... : ... .. 1 ... ... ... : D#2 00 . ... : ... .. 3 ... : ... .. . ... ... : ... .. . ... ... : ... .. . ... ... : ... .. . P80 ...
ROW 4C : ... .. 8 ... ... ... : ... .. . ... ... ... : A#1 00 . ... : ... .. 2 ... : ... .. . ... ... : ... .. 7 ... ... : ... .. . ... ... : ... .. . P81 ...
ROW 4D : ... .. 7 ... ... ... : ... .. 0 ... ... ... : ... .. . ... : ... .. 0 ... : ... .. . ... ... : ... .. . ... ... : ... .. . ... ... : ... .. . P82 ...
ROW 4E : A#2 00 D ... ... ... : C-5 00 6 P80 ... ... : ... .. . ... : ... .. F ... : ... .. . ... ... : A#3 01 9 ... ... : ... .. . ... ... : ... .. . P81 ...
ROW 4F : ... .. B ... ... ... : ... .. 4 ... ... ... : ... .. . ... : ... .. C ... : ... .. . ... ... : ... .. 8 ... ... : ... .. . ... ... : ... .. . P80 ...
ROW 50 : ... .. . ... ... ... : ... .. 2 ... ... ... : ... .. . ... : ... .. 6 ... : ... .. . ... ... : ... .. . ... ... : ... .. . ... ... : ... .. . P7F ...
ROW 51 : ... .. 0 ... ... ... : ... .. 1 ... ... ... : ... .. . ... : ... .. 3 ... : ... .. . ... ... : --- .. . ... ... : ... .. . ... ... : ... .. . P7E ...
ROW 52 : ... .. . ... ... ... : ... .. . ... ... ... : ... .. . ... : ... .. 2 ... : ... .. . ... ... : ... .. . ... ... : ... .. . ... ... : ... .. . P80 ...
ROW 53 : ... .. . ... ... ... : ... .. 0 ... ... ... : ... .. . ... : ... .. 0 ... : ... .. . ... ... : ... .. . ... ... : ... .. . ... ... : ... .. . ... ...
ROW 54 : A#2 00 D P81 ... ... : B-4 00 6 P80 ... ... : F-4 00 . ... : 4-# 00 F ... : ... .. . ... ... : A#3 01 9 ... ... : ... .. . ... ... : ... .. . P82 ...
ROW 55 : ... .. B ... ... ... : ... .. 4 ... ... ... : ... .. . ... : ... .. C ... : ... .. . ... ... : ... .. 8 ... ... : ... .. . ... ... : ... .. . P81 ...
ROW 56 : ... .. . ... ... ... : ... .. 2 ... ... ... : ... .. . ... : ... .. 6 ... : ... .. . ... ... : ... .. . ... ... : ... .. . ... ... : ... .. . P80 ...
ROW 57 : ... .. 0 ... ... ... : ... .. 1 ... ... ... : ... .. . ... : ... .. 3 ... : ... .. . ... ... : --- .. . ... ... : ... .. . ... ... : --- .. . ... ...
ROW 58 : ... .. . ... ... ... : ... .. . ... ... ... : ... .. . ... : ... .. 2 ... : ... .. . ... ... : ... .. . ... ... : ... .. . ... ... : ... .. . ... ...
ROW 59 : ... .. . ... ... ... : ... .. 0 ... ... ... : ... .. . ... : ... .. 0 ... : ... .. . ... ... : ... .. . ... ... : ... .. . ... ... : ... .. . ... ...
ROW 5A : A#2 00 D P81 ... ... : A#4 00 6 P80 ... ... : ... .. . ... : ... .. F ... : ... .. . ... ... : A#3 01 9 ... ... : ... .. . ... ... : ... .. . ... ...
ROW 5B : ... .. B ... ... ... : ... .. 4 ... ... ... : ... .. . ... : ... .. C ... : ... .. . ... ... : ... .. 8 ... ... : ... .. . ... ... : ... .. . ... ...
ROW 5C : ... .. . ... ... ... : ... .. 2 ... ... ... : ... .. . ... : ... .. 6 ... : ... .. . ... ... : ... .. . ... ... : ... .. . ... ... : ... .. . ... ...
ROW 5D : ... .. 0 ... ... ... : ... .. 1 ... ... ... : ... .. . ... : ... .. 3 ... : ... .. . ... ... : --- .. . ... ... : ... .. . ... ... : ... .. . ... ...
ROW 5E : ... .. . ... ... ... : ... .. . ... ... ... : ... .. . ... : ... .. 2 ... : ... .. . ... ... : ... .. . ... ... : ... .. . ... ... : ... .. . ... ...
ROW 5F : ... .. . ... ... ... : ... .. 0 ... ... ... : ... .. . ... : ... .. 0 ... : ... .. . ... ... : ... .. . ... ... : ... .. . ... ... : ... .. . ... ...
ROW 60 : D-3 00 F P81 ... ... : D-5 00 8 P80 ... ... : C#4 00 . ... : B-# 00 D ... : ... .. . ... ... : ... .. . ... ... : ... .. . ... ... : D-4 01 F P7F ...
ROW 61 : ... .. E ... ... ... : ... .. 6 ... ... ... : D#3 00 . ... : ... .. B ... : ... .. . ... ... : ... .. . ... ... : ... .. . ... ... : ... .. D P80 ...
ROW 62 : ... .. D ... ... ... : ... .. 3 ... ... ... : G#2 00 . ... : ... .. . ... : ... .. . ... ... : ... .. . ... ... : ... .. . ... ... : ... .. 8 P82 ...
ROW 63 : ... .. A ... ... ... : ... .. 1 ... ... ... : G-2 00 . ... : ... .. A ... : ... .. . ... ... : ... .. . ... ... : ... .. . ... ... : ... .. . ... ...
ROW 64 : ... .. . ... ... ... : ... .. . ... ... ... : D-2 00 . ... : ... .. 8 ... : ... .. . ... ... : ... .. . ... ... : ... .. . ... ... : ... .. . P80 ...
ROW 65 : ... .. . ... ... ... : ... .. 0 ... ... ... : ... .. . ... : ... .. 7 ... : ... .. . ... ... : ... .. . ... ... : ... .. . ... ... : ... .. . P7F ...
ROW 66 : ... .. . ... ... ... : D#5 00 8 P80 ... ... : ... .. . ... : ... .. 6 ... : ... .. . ... ... : ... .. . ... ... : ... .. . ... ... : ... .. . P7E ...
ROW 67 : ... .. . ... ... ... : ... .. 6 ... ... ... : ... .. . ... : ... .. . ... : ... .. . ... ... : ... .. . ... ... : ... .. . ... ... : ... .. . P7F ...
ROW 68 : ... .. . ... ... ... : ... .. 3 ... ... ... : ... .. . ... : ... .. 5 ... : ... .. . ... ... : ... .. . ... ... : ... .. . ... ... : ... .. . P80 ...
ROW 69 : ... .. . ... ... ... : ... .. 1 ... ... ... : ... .. . ... : ... .. . ... : ... .. . ... ... : ... .. . ... ... : ... .. . ... ... : ... .. . P82 ...
ROW 6A : ... .. . ... ... ... : ... .. . ... ... ... : ... .. . ... : ... .. 4 ... : ... .. . ... ... : ... .. . ... ... : ... .. . ... ... : ... .. . ... ...
ROW 6B : ... .. . ... ... ... : ... .. 0 ... ... ... : --- .. . ... : ... .. . ... : ... .. . ... ... : ... .. . ... ... : ... .. . ... ... : ... .. . P80 ...
ROW 6C : ... .. . ... ... ... : D-5 00 8 P80 ... ... : C-4 00 . ... : D-# 00 F ... : ... .. . ... ... : A-3 01 9 ... ... : C-3 01 9 ... ... : ... .. . P7F ...
ROW 6D : ... .. . ... ... ... : ... .. 6 ... ... ... : ... .. . ... : ... .. C ... : ... .. . ... ... : ... .. 8 ... ... : ... .. 8 ... ... : ... .. . P7E ...
ROW 6E : ... .. . ... ... ... : ... .. 3 ... ... ... : ... .. . ... : ... .. 6 ... : ... .. . ... ... : ... .. . ... ... : ... .. . ... ... : ... .. . P7F ...
ROW 6F : ... .. . ... ... ... : ... .. 1 ... ... ... : ... .. . ... : ... .. 3 ... : ... .. . ... ... : --- .. . ... ... : --- .. . P7E ... : ... .. . P80 ...
ROW 70 : ... .. . ... ... ... : ... .. . ... ... ... : ... .. . ... : ... .. 2 ... : ... .. . ... ... : ... .. . ... ... : ... .. . ... ... : ... .. . P81 ...
ROW 71 : ... .. . ... ... ... : ... .. 0 ... ... ... : --- .. . ... : ... .. 0 ... : ... .. . ... ... : ... .. . ... ... : ... .. . ... ... : ... .. . P82 ...
ROW 72 : E-3 00 F ... ... ... : D#5 00 8 P80 ... ... : C-4 00 . ... : ... .. F ... : ... .. . ... ... : A-3 01 9 ... ... : C-3 01 9 P80 ... : E-4 01 F P80 ...
ROW 73 : ... .. E ... ... ... : ... .. 6 ... ... ... : ... .. . ... : ... .. C ... : ... .. . ... ... : ... .. 8 ... ... : ... .. 8 ... ... : ... .. D ... ...
ROW 74 : ... .. D ... ... ... : ... .. 3 ... ... ... : ... .. . ... : ... .. 6 ... : ... .. . ... ... : ... .. . ... ... : ... .. . ... ... : ... .. 8 P7E ...
ROW 75 : ... .. 0 ... ... ... : ... .. 1 ... ... ... : ... .. . ... : ... .. 3 ... : ... .. . ... ... : ... .. . ... ... : ... .. . ... ... : --- .. . ... ...
ROW 76 : ... .. . ... ... ... : ... .. . ... ... ... : ... .. . ... : ... .. 2 ... : ... .. . ... ... : ... .. 7 ... ... : ... .. 7 ... ... : ... .. . ... ...
ROW 77 : ... .. . ... ... ... : ... .. 0 ... ... ... : --- .. . ... : ... .. 0 ... : ... .. . ... ... : ... .. . ... ... : ... .. . ... ... : ... .. . ... ...
ROW 78 : F#3 00 F P81 ... ... : D-5 00 8 P80 ... ... : C#4 00 . ... : B-# 00 D ... : ... .. . ... ... : ... .. . ... ... : ... .. . ... ... : F#4 01 F P82 ...
ROW 79 : ... .. E ... ... ... : ... .. 6 ... ... ... : D#3 00 . ... : ... .. B ... : ... .. . ... ... : ... .. 6 ... ... : ... .. 6 ... ... : ... .. D P81 ...
ROW 7A : ... .. D ... ... ... : ... .. 3 ... ... ... : G#2 00 . ... : ... .. . ... : ... .. . ... ... : ... .. . ... ... : ... .. . ... ... : ... .. 8 P80 ...
ROW 7B : ... .. A ... ... ... : ... .. 1 ... ... ... : G-2 00 . ... : ... .. A ... : ... .. . ... ... : --- .. . ... ... : --- .. . P7E ... : ... .. . P7E ...
ROW 7C : ... .. . ... ... ... : ... .. . ... ... ... : D-2 00 . ... : ... .. 8 ... : ... .. . ... ... : ... .. . ... ... : ... .. . ... ... : ... .. . ... ...
ROW 7D : ... .. . ... ... ... : ... .. 0 ... ... ... : ... .. . ... : ... .. 7 ... : ... .. . ... ... : ... .. . ... ... : ... .. . ... ... : ... .. . P80 ...
ROW 7E : ... .. . ... ... ... : D#5 00 8 P80 ... ... : ... .. . ... : ... .. 6 ... : ... .. . ... ... : ... .. . ... ... : ... .. . ... ... : ... .. . P81 ...
ROW 7F : ... .. 2 ... ... ... : ... .. 6 ... ... ... : ... .. . ... : ... .. . ... : ... .. . ... ... : ... .. . ... ... : ... .. . ... ... : ... .. 4 P82 ...
ROW 80 : ... .. . ... ... ... : ... .. 3 ... ... ... : ... .. . ... : ... .. 5 ... : ... .. . ... ... : ... .. . ... ... : ... .. . ... ... : ... .. . P81 ...
ROW 81 : ... .. . ... ... ... : ... .. 1 ... ... ... : ... .. . ... : ... .. . ... : ... .. . ... ... : ... .. . ... ... : ... .. . ... ... : ... .. 1 P80 ...
ROW 82 : ... .. 1 ... ... ... : ... .. . ... ... ... : ... .. . ... : ... .. 4 ... : ... .. . ... ... : ... .. . ... ... : ... .. . ... ... : ... .. . P7E ...
ROW 83 : ... .. . ... ... ... : ... .. 0 ... ... ... : --- .. . ... : ... .. . ... : ... .. . ... ... : ... .. . ... ... : ... .. . ... ... : ... .. . ... ...
ROW 84 : D-3 00 F ... ... ... : D-5 00 8 P80 ... ... : C-4 00 . ... : D-# 00 F ... : ... .. . ... ... : A-3 01 9 ... ... : C-3 01 9 P80 ... : D-4 01 F P80 ...
ROW 85 : ... .. E ... ... ... : ... .. 6 ... ... ... : ... .. . ... : ... .. C ... : ... .. . ... ... : ... .. 8 ... ... : ... .. 8 ... ... : ... .. D P81 ...
ROW 86 : ... .. D ... ... ... : ... .. 3 ... ... ... : ... .. . ... : ... .. 6 ... : ... .. . ... ... : ... .. . ... ... : ... .. . ... ... : ... .. 8 P82 ...
ROW 87 : ... .. A ... ... ... : ... .. 1 ... ... ... : ... .. . ... : ... .. 3 ... : ... .. . ... ... : --- .. . ... ... : --- .. . P7E ... : ... .. . P81 ...
ROW 88 : ... .. . ... ... ... : ... .. . ... ... ... : ... .. . ... : ... .. 2 ... : ... .. . ... ... : ... .. . ... ... : ... .. . ... ... : ... .. . P80 ...
ROW 89 : ... .. . ... ... ... : ... .. 0 ... ... ... : --- .. . ... : ... .. 0 ... : ... .. . ... ... : ... .. . ... ... : ... .. . ... ... : ... .. . P7E ...
ROW 8A : ... .. 0 ... ... ... : C-5 00 8 P80 ... ... : C-4 00 . ... : ... .. F ... : ... .. . ... ... : A-3 01 9 ... ... : C-3 01 9 P80 ... : --- .. . ... ...
ROW 8B : ... .. . ... ... ... : ... .. 6 ... ... ... : ... .. . ... : ... .. C ... : ... .. . ... ... : ... .. 8 ... ... : ... .. 8 ... ... : ... .. . ... ...
ROW 8C : ... .. . ... ... ... : ... .. 3 ... ... ... : ... .. . ... : ... .. 6 ... : ... .. . ... ... : ... .. . ... ... : ... .. . ... ... : ... .. . ... ...
ROW 8D : ... .. . ... ... ... : ... .. 1 ... ... ... : ... .. . ... : ... .. 3 ... : ... .. . ... ... : ... .. . ... ... : ... .. . ... ... : ... .. . ... ...
ROW 8E : ... .. . ... ... ... : ... .. . ... ... ... : ... .. . ... : ... .. 2 ... : ... .. . ... ... : ... .. 7 ... ... : ... .. 7 ... ... : ... .. . ... ...
ROW 8F : ... .. . ... ... ... : ... .. 0 ... ... ... : --- .. . ... : ... .. 0 ... : ... .. . ... ... : ... .. . ... ... : ... .. . ... ... : ... .. . ... ...
ROW 90 : G-3 00 F P81 ... ... : A#4 00 8 P80 ... ... : F#4 00 . ... : B-# 00 D ... : ... .. . ... ... : ... .. . ... ... : ... .. . ... ... : G-4 01 F P7F ...
ROW 91 : ... .. E ... ... ... : ... .. 6 ... ... ... : G#3 00 . ... : ... .. B ... : ... .. . ... ... : ... .. 6 ... ... : ... .. 6 ... ... : ... .. D P7E ...
ROW 92 : ... .. D ... ... ... : ... .. 3 ... ... ... : C#3 00 . ... : ... .. . ... : ... .. . ... ... : ... .. . ... ... : ... .. . ... ... : ... .. 8 P80 ...
ROW 93 : ... .. A ... ... ... : ... .. 1 ... ... ... : C-3 00 . ... : ... .. A ... : ... .. . ... ... : --- .. . ... ... : --- .. . P7E ... : ... .. . ... ...
ROW 94 : ... .. . ... ... ... : ... .. . ... ... ... : G-2 00 . ... : ... .. 8 ... : ... .. . ... ... : ... .. . ... ... : ... .. . ... ... : ... .. . P82 ...
ROW 95 : ... .. . ... ... ... : ... .. 0 ... ... ... : ... .. . ... : ... .. 7 ... : ... .. . ... ... : ... .. . ... ... : ... .. . ... ... : ... .. . P81 ...
ROW 96 : F#3 00 F ... ... ... : C-5 00 8 P80 ... ... : ... .. . ... : ... .. 6 ... : ... .. . ... ... : ... .. . ... ... : ... .. . ... ... : F#4 01 F P80 ...
ROW 97 : ... .. E ... ... ... : ... .. 6 ... ... ... : ... .. . ... : ... .. . ... : ... .. . ... ... : ... .. . ... ... : ... .. . ... ... : ... .. D P7F ...
ROW 98 : ... .. D ... ... ... : ... .. 3 ... ... ... : ... .. . ... : ... .. 5 ... : ... .. . ... ... : ... .. . ... ... : ... .. . ... ... : ... .. 8 P7E ...
ROW 99 : ... .. 0 ... ... ... : ... .. 1 ... ... ... : ... .. . ... : ... .. . ... : ... .. . ... ... : ... .. . ... ... : ... .. . ... ... : --- .. . ... ...
ROW 9A : ... .. . ... ... ... : ... .. . ... ... ... : ... .. . ... : ... .. 4 ... : ... .. . ... ... : ... .. . ... ... : ... .. . ... ... : ... .. . ... ...
ROW 9B : ... .. . ... ... ... : ... .. 0 ... ... ... : --- .. . ... : ... .. . ... : ... .. . ... ... : ... .. . ... ... : ... .. . ... ... : ... .. . ... ...
ROW 9C : G-3 00 F P81 ... ... : A#4 00 8 P80 ... ... : A#3 00 . ... : ... .. D ... : ... .. . ... ... : G-3 01 9 ... ... : A#2 01 9 P80 ... : G-4 01 F P82 ...
ROW 9D : ... .. E ... ... ... : ... .. 6 ... ... ... : ... .. . ... : ... .. B ... : ... .. . ... ... : ... .. 8 ... ... : ... .. 8 ... ... : ... .. D P80 ...
ROW 9E : ... .. D ... ... ... : ... .. 3 ... ... ... : ... .. . ... : ... .. . ... : ... .. . ... ... : ... .. . ... ... : ... .. . ... ... : ... .. 8 P7F ...
ROW 9F : ... .. 0 ... ... ... : ... .. 1 ... ... ... : ... .. . ... : ... .. A ... : ... .. . ... ... : --- .. . P81 ... : --- .. . P82 ... : --- .. . ... ...
ROW A0 : ... .. . ... ... ... : ... .. . ... ... ... : ... .. . ... : ... .. 8 ... : ... .. . ... ... : ... .. . ... ... : ... .. . ... ... : ... .. . ... ...
ROW A1 : ... .. . ... ... ... : ... .. 0 ... ... ... : --- .. . ... : ... .. 7 ... : ... .. . ... ... : ... .. . ... ... : ... .. . ... ... : ... .. . ... ...
ROW A2 : A-3 00 F P81 ... ... : C-5 00 8 P80 ... ... : A#3 00 . ... : ... .. 6 ... : ... .. . ... ... : G-3 01 9 P80 ... : A#2 01 9 P80 ... : A-4 01 F P82 ...
ROW A3 : ... .. E ... ... ... : ... .. 6 ... ... ... : ... .. . ... : ... .. . ... : ... .. . ... ... : ... .. 8 ... ... : ... .. 8 ... ... : ... .. D ... ...
ROW A4 : ... .. D ... ... ... : ... .. 3 ... ... ... : ... .. . ... : ... .. 5 ... : ... .. . ... ... : ... .. . ... ... : ... .. . ... ... : ... .. 8 P80 ...
ROW A5 : ... .. 0 ... ... ... : ... .. 1 ... ... ... : ... .. . ... : ... .. . ... : ... .. . ... ... : ... .. . ... ... : ... .. . ... ... : --- .. . ... ...
ROW A6 : ... .. . ... ... ... : ... .. . ... ... ... : ... .. . ... : ... .. 4 ... : ... .. . ... ... : ... .. 7 ... ... : ... .. 7 ... ... : ... .. . ... ...
ROW A7 : ... .. . ... ... ... : ... .. 0 ... ... ... : --- .. . ... : ... .. . ... : ... .. . ... ... : ... .. . ... ... : ... .. . ... ... : ... .. . ... ...
ROW A8 : A#3 00 F P81 ... ... : A#4 00 8 P80 ... ... : F#4 00 . ... : ... .. D ... : ... .. . ... ... : ... .. . ... ... : ... .. . ... ... : A#4 01 F ... ...
ROW A9 : ... .. E ... ... ... : ... .. 6 ... ... ... : G#3 00 . ... : ... .. B ... : ... .. . ... ... : ... .. 6 ... ... : ... .. 6 ... ... : ... .. D P82 ...
ROW AA : ... .. D ... ... ... : ... .. 3 ... ... ... : C#3 00 . ... : ... .. . ... : ... .. . ... ... : ... .. . ... ... : ... .. . ... ... : ... .. 8 ... ...
ROW AB : ... .. A ... ... ... : ... .. 1 ... ... ... : C-3 00 . ... : ... .. A ... : ... .. . ... ... : --- .. . P81 ... : --- .. . P82 ... : ... .. . P80 ...
ROW AC : ... .. . ... ... ... : ... .. . ... ... ... : G-2 00 . ... : ... .. 8 ... : ... .. . ... ... : ... .. . ... ... : ... .. . ... ... : ... .. . P7F ...
ROW AD : ... .. . ... ... ... : ... .. 0 ... ... ... : ... .. . ... : ... .. 7 ... : ... .. . ... ... : ... .. . ... ... : ... .. . ... ... : ... .. . P7E ...
ROW AE : ... .. . ... ... ... : A-4 00 8 P80 ... ... : ... .. . ... : ... .. 6 ... : ... .. . ... ... : ... .. . ... ... : ... .. . ... ... : ... .. . P7F ...
ROW AF : ... .. . ... ... ... : ... .. 6 ... ... ... : ... .. . ... : ... .. . ... : ... .. . ... ... : ... .. . ... ... : ... .. . ... ... : ... .. . P80 ...
ROW B0 : ... .. . ... ... ... : ... .. 3 ... ... ... : ... .. . ... : ... .. 5 ... : ... .. . ... ... : ... .. . ... ... : ... .. . ... ... : ... .. . P81 ...
ROW B1 : ... .. 0 ... ... ... : ... .. 1 ... ... ... : ... .. . ... : ... .. . ... : ... .. . ... ... : ... .. . ... ... : ... .. . ... ... : --- .. . ... ...
ROW B2 : ... .. . ... ... ... : ... .. . ... ... ... : ... .. . ... : ... .. 4 ... : ... .. . ... ... : ... .. . ... ... : ... .. . ... ... : ... .. . ... ...
ROW B3 : ... .. . ... ... ... : ... .. 0 ... ... ... : --- .. . ... : ... .. . ... : ... .. . ... ... : ... .. . ... ... : ... .. . ... ... : ... .. . ... ...
ROW B4 : G-3 00 F P81 ... ... : A#4 00 8 P80 ... ... : A#3 00 . ... : D-# 00 F ... : ... .. . ... ... : G-3 01 9 P80 ... : A#2 01 9 P80 ... : G-4 01 F P7E ...
ROW B5 : ... .. E ... ... ... : ... .. 6 ... ... ... : ... .. . ... : ... .. C ... : ... .. . ... ... : ... .. 8 ... ... : ... .. 8 ... ... : ... .. D P7F ...
ROW B6 : ... .. D ... ... ... : ... .. 3 ... ... ... : ... .. . ... : ... .. 6 ... : ... .. . ... ... : ... .. . ... ... : ... .. . ... ... : ... .. 8 P80 ...
ROW B7 : ... .. A ... ... ... : ... .. 1 ... ... ... : ... .. . ... : ... .. 3 ... : ... .. . ... ... : --- .. . P81 ... : --- .. . P82 ... : ... .. . P81 ...
ROW B8 : ... .. . ... ... ... : ... .. . ... ... ... : ... .. . ... : ... .. 2 ... : ... .. . ... ... : ... .. . ... ... : ... .. . ... ... : ... .. . P82 ...
ROW B9 : ... .. . ... ... ... : ... .. 0 ... ... ... : --- .. . ... : ... .. 0 ... : ... .. . ... ... : ... .. . ... ... : ... .. . ... ... : ... .. . P81 ...
ROW BA : ... .. . ... ... ... : C-5 00 8 P80 ... ... : A#3 00 . ... : ... .. F ... : ... .. . ... ... : G-3 01 9 P80 ... : A#2 01 9 P80 ... : ... .. . P80 ...
ROW BB : ... .. . ... ... ... : ... .. 6 ... ... ... : ... .. . ... : ... .. C ... : ... .. . ... ... : ... .. 8 ... ... : ... .. 8 ... ... : ... .. . P7E ...
ROW BC : ... .. . ... ... ... : ... .. 3 ... ... ... : ... .. . ... : ... .. 6 ... : ... .. . ... ... : ... .. . ... ... : ... .. . ... ... : ... .. . ... ...
ROW BD : ... .. 0 ... ... ... : ... .. 1 ... ... ... : ... .. . ... : ... .. 3 ... : ... .. . ... ... : ... .. . ... ... : ... .. . ... ... : --- .. . ... ...
ROW BE : ... .. . ... ... ... : ... .. . ... ... ... : ... .. . ... : ... .. 2 ... : ... .. . ... ... : ... .. 7 ... ... : ... .. 7 ... ... : ... .. . ... ...
ROW BF : ... .. . ... ... ... : ... .. 0 ... ... ... : --- .. . ... : ... .. 0 ... : ... .. . ... ... : ... .. . ... ... : ... .. . ... ... : ... .. . ... ...
ROW C0 : D-3 00 F P81 ... ... : D-5 00 8 P80 ... ... : C#4 00 . ... : B-# 00 D ... : ... .. . ... ... : ... .. . ... ... : ... .. . ... ... : D-4 01 F P81 ...
ROW C1 : ... .. E ... ... ... : ... .. 6 ... ... ... : D#3 00 . ... : ... .. B ... : ... .. . ... ... : ... .. 6 ... ... : ... .. 6 ... ... : ... .. D P80 ...
ROW C2 : ... .. D ... ... ... : ... .. 3 ... ... ... : G#2 00 . ... : ... .. . ... : ... .. . ... ... : ... .. . ... ... : ... .. . ... ... : ... .. 8 P7E ...
ROW C3 : ... .. A ... ... ... : ... .. 1 ... ... ... : G-2 00 . ... : ... .. A ... : ... .. . ... ... : --- .. . P81 ... : --- .. . P82 ... : ... .. . ... ...
ROW C4 : ... .. . ... ... ... : ... .. . ... ... ... : D-2 00 . ... : ... .. 8 ... : ... .. . ... ... : ... .. . ... ... : ... .. . ... ... : ... .. . P80 ...
ROW C5 : ... .. . ... ... ... : ... .. 0 ... ... ... : ... .. . ... : ... .. 7 ... : ... .. . ... ... : ... .. . ... ... : ... .. . ... ... : ... .. . P81 ...
ROW C6 : ... .. . ... ... ... : D#5 00 8 P80 ... ... : ... .. . ... : ... .. 6 ... : ... .. . ... ... : ... .. . ... ... : ... .. . ... ... : ... .. . P82 ...
ROW C7 : ... .. . ... ... ... : ... .. 6 ... ... ... : ... .. . ... : ... .. . ... : ... .. . ... ... : ... .. . ... ... : ... .. . ... ... : ... .. . P81 ...
ROW C8 : ... .. . ... ... ... : ... .. 3 ... ... ... : ... .. . ... : ... .. 5 ... : ... .. . ... ... : ... .. . ... ... : ... .. . ... ... : ... .. . P80 ...
ROW C9 : ... .. . ... ... ... : ... .. 1 ... ... ... : ... .. . ... : ... .. . ... : ... .. . ... ... : ... .. . ... ... : ... .. . ... ... : ... .. . P7E ...
ROW CA : ... .. . ... ... ... : ... .. . ... ... ... : ... .. . ... : ... .. 4 ... : ... .. . ... ... : ... .. . ... ... : ... .. . ... ... : ... .. . ... ...
ROW CB : ... .. . ... ... ... : ... .. 0 ... ... ... : --- .. . ... : ... .. . ... : ... .. . ... ... : ... .. . ... ... : ... .. . ... ... : ... .. . P80 ...
ROW CC : ... .. . ... ... ... : D-5 00 8 P80 ... ... : C-4 00 . ... : D-# 00 F ... : ... .. . ... ... : F#3 01 9 P80 ... : C-3 01 9 P80 ... : ... .. . P81 ...
ROW CD : ... .. . ... ... ... : ... .. 6 ... ... ... : ... .. . ... : ... .. C ... : ... .. . ... ... : ... .. 8 ... ... : ... .. 8 ... ... : ... .. . P82 ...
ROW CE : ... .. . ... ... ... : ... .. 3 ... ... ... : ... .. . ... : ... .. 6 ... : ... .. . ... ... : ... .. . ... ... : ... .. . ... ... : ... .. . P81 ...
ROW CF : ... .. 0 ... ... ... : ... .. 1 ... ... ... : ... .. . ... : ... .. 3 ... : ... .. . ... ... : --- .. . P7F ... : --- .. . P7E ... : --- .. . ... ...
ROW D0 : ... .. . ... ... ... : ... .. . ... ... ... : ... .. . ... : ... .. 2 ... : ... .. . ... ... : ... .. . ... ... : ... .. . ... ... : ... .. . ... ...
ROW D1 : ... .. . ... ... ... : ... .. 0 ... ... ... : --- .. . ... : ... .. 0 ... : ... .. . ... ... : ... .. . ... ... : ... .. . ... ... : ... .. . ... ...
ROW D2 : E-3 00 F P81 ... ... : D#5 00 8 P80 ... ... : C-4 00 . ... : ... .. F ... : ... .. . ... ... : F#3 01 9 P80 ... : C-3 01 9 P80 ... : E-4 01 F P80 ...
ROW D3 : ... .. E ... ... ... : ... .. 6 ... ... ... : ... .. . ... : ... .. C ... : ... .. . ... ... : ... .. 8 ... ... : ... .. 8 ... ... : ... .. D ... ...
ROW D4 : ... .. D ... ... ... : ... .. 3 ... ... ... : ... .. . ... : ... .. 6 ... : ... .. . ... ... : ... .. . ... ... : ... .. . ... ... : ... .. 8 P82 ...
ROW D5 : ... .. 0 ... ... ... : ... .. 1 ... ... ... : ... .. . ... : ... .. 3 ... : ... .. . ... ... : ... .. . ... ... : ... .. . ... ... : --- .. . ... ...
ROW D6 : ... .. . ... ... ... : ... .. . ... ... ... : ... .. . ... : ... .. 2 ... : ... .. . ... ... : ... .. 7 ... ... : ... .. 7 ... ... : ... .. . ... ...
ROW D7 : ... .. . ... ... ... : ... .. 0 ... ... ... : --- .. . ... : ... .. 0 ... : ... .. . ... ... : ... .. . ... ... : ... .. . ... ... : ... .. . ... ...
ROW D8 : F#3 00 F P81 ... ... : D-5 00 8 P80 ... ... : C#4 00 . ... : B-# 00 D ... : ... .. . ... ... : ... .. . ... ... : ... .. . ... ... : F#4 01 F P7E ...
ROW D9 : ... .. E ... ... ... : ... .. 6 ... ... ... : D#3 00 . ... : ... .. B ... : ... .. . ... ... : ... .. 6 ... ... : ... .. 6 ... ... : ... .. D P7F ...
ROW DA : ... .. D ... ... ... : ... .. 3 ... ... ... : G#2 00 . ... : ... .. . ... : ... .. . ... ... : ... .. . ... ... : ... .. . ... ... : ... .. 8 P80 ...
ROW DB : ... .. A ... ... ... : ... .. 1 ... ... ... : G-2 00 . ... : ... .. A ... : ... .. . ... ... : --- .. . P7F ... : --- .. . P7E ... : ... .. . P82 ...
ROW DC : ... .. . ... ... ... : ... .. . ... ... ... : D-2 00 . ... : ... .. 8 ... : ... .. . ... ... : ... .. . ... ... : ... .. . ... ... : ... .. . ... ...
ROW DD : ... .. . ... ... ... : ... .. 0 ... ... ... : ... .. . ... : ... .. 7 ... : ... .. . ... ... : ... .. . ... ... : ... .. . ... ... : ... .. . P80 ...
ROW DE : ... .. . ... ... ... : D#5 00 8 P80 ... ... : ... .. . ... : ... .. 6 ... : ... .. . ... ... : ... .. . ... ... : ... .. . ... ... : ... .. . P7F ...
ROW DF : ... .. . ... ... ... : ... .. 6 ... ... ... : ... .. . ... : ... .. . ... : ... .. . ... ... : ... .. . ... ... : ... .. . ... ... : ... .. . P7E ...
ROW E0 : ... .. . ... ... ... : ... .. 3 ... ... ... : ... .. . ... : ... .. 5 ... : ... .. . ... ... : ... .. . ... ... : ... .. . ... ... : ... .. . P7F ...
ROW E1 : ... .. . ... ... ... : ... .. 1 ... ... ... : ... .. . ... : ... .. . ... : ... .. . ... ... : ... .. . ... ... : ... .. . ... ... : ... .. . P80 ...
ROW E2 : ... .. . ... ... ... : ... .. . ... ... ... : ... .. . ... : ... .. 4 ... : ... .. . ... ... : ... .. . ... ... : ... .. . ... ... : ... .. . P82 ...
ROW E3 : ... .. . ... ... ... : ... .. 0 ... ... ... : --- .. . ... : ... .. . ... : ... .. . ... ... : ... .. . ... ... : ... .. . ... ... : ... .. . ... ...
ROW E4 : A-3 00 F ... ... ... : D-5 00 8 P80 ... ... : C-4 00 . ... : D-# 00 F ... : ... .. . ... ... : F#3 01 9 P80 ... : C-3 01 9 P80 ... : A-4 01 F P80 ...
ROW E5 : ... .. E ... ... ... : ... .. 6 ... ... ... : ... .. . ... : ... .. C ... : ... .. . ... ... : ... .. 8 ... ... : ... .. 8 ... ... : ... .. D P7F ...
ROW E6 : ... .. D ... ... ... : ... .. 3 ... ... ... : ... .. . ... : ... .. 6 ... : ... .. . ... ... : ... .. . ... ... : ... .. . ... ... : ... .. 8 P7E ...
ROW E7 : ... .. A ... ... ... : ... .. 1 ... ... ... : ... .. . ... : ... .. 3 ... : ... .. . ... ... : --- .. . P7F ... : --- .. . P7E ... : ... .. . P7F ...
ROW E8 : ... .. . ... ... ... : ... .. . ... ... ... : ... .. . ... : ... .. 2 ... : ... .. . ... ... : ... .. . ... ... : ... .. . ... ... : ... .. . P80 ...
ROW E9 : ... .. . ... ... ... : ... .. 0 ... ... ... : --- .. . ... : ... .. 0 ... : ... .. . ... ... : ... .. . ... ... : ... .. . ... ... : ... .. . P82 ...
ROW EA : ... .. . ... ... ... : C-5 00 8 P80 ... ... : C-4 00 . ... : ... .. F ... : ... .. . ... ... : F#3 01 9 P80 ... : C-3 01 9 P80 ... : ... .. . ... ...
ROW EB : ... .. . ... ... ... : ... .. 6 ... ... ... : ... .. . ... : ... .. C ... : ... .. . ... ... : ... .. 8 ... ... : ... .. 8 ... ... : ... .. . P80 ...
ROW EC : ... .. . ... ... ... : ... .. 3 ... ... ... : ... .. . ... : ... .. 6 ... : ... .. . ... ... : ... .. . ... ... : ... .. . ... ... : ... .. . P7F ...
ROW ED : ... .. 0 ... ... ... : ... .. 1 ... ... ... : ... .. . ... : ... .. 3 ... : ... .. . ... ... : --- .. . P7F ... : ... .. . ... ... : --- .. . ... ...
ROW EE : ... .. . ... ... ... : ... .. . ... ... ... : ... .. . ... : ... .. 2 ... : ... .. . ... ... : ... .. . ... ... : ... .. 7 ... ... : ... .. . ... ...
ROW EF : ... .. . ... ... ... : ... .. 0 ... ... ... : --- .. . ... : ... .. 0 ... : ... .. . ... ... : ... .. . ... ... : ... .. . ... ... : ... .. . ... ...
ROW F0 : A#3 00 F P81 ... ... : A#4 00 8 P80 ... ... : F#5 00 . ... : B-# 00 D ... : ... .. . ... ... : G#4 01 9 P80 ... : C#4 01 9 ... ... : A#4 01 F P81 ...
ROW F1 : ... .. E ... ... ... : ... .. 6 ... ... ... : G#4 00 . ... : ... .. B ... : ... .. . ... ... : ... .. 8 ... ... : ... .. 8 ... ... : ... .. D P82 ...
ROW F2 : ... .. D ... ... ... : ... .. 3 ... ... ... : C#4 00 . ... : ... .. . ... : ... .. . ... ... : ... .. . ... ... : ... .. . ... ... : ... .. 8 P80 ...
ROW F3 : ... .. A ... ... ... : ... .. 1 ... ... ... : C-4 00 . ... : ... .. A ... : ... .. . ... ... : ... .. . ... ... : ... .. . ... ... : ... .. . ... ...
ROW F4 : ... .. . ... ... ... : ... .. . ... ... ... : G-3 00 . ... : ... .. 8 ... : ... .. . ... ... : A-4 01 7 P7D ... : ... .. 7 P85 ... : ... .. . P7E ...
ROW F5 : ... .. . ... ... ... : ... .. 0 ... ... ... : ... .. . ... : ... .. 7 ... : ... .. . ... ... : ... .. . P80 ... : D-4 01 7 P7E ... : ... .. . P7F ...
ROW F6 : ... .. . ... ... ... : A-4 00 8 P80 ... ... : ... .. . ... : ... .. 6 ... : ... .. . ... ... : ... .. . ... ... : ... .. . P80 ... : ... .. . P80 ...
ROW F7 : ... .. . ... ... ... : ... .. 6 ... ... ... : ... .. . ... : ... .. . ... : ... .. . ... ... : ... .. 6 ... ... : ... .. 6 ... ... : ... .. . P81 ...
ROW F8 : ... .. . ... ... ... : ... .. 3 ... ... ... : ... .. . ... : ... .. 5 ... : ... .. . ... ... : ... .. . ... ... : ... .. . ... ... : ... .. . P82 ...
ROW F9 : ... .. . ... ... ... : ... .. 1 ... ... ... : ... .. . ... : ... .. . ... : ... .. . ... ... : ... .. . ... ... : ... .. . ... ... : ... .. . P81 ...
ROW FA : ... .. . ... ... ... : ... .. . ... ... ... : ... .. . ... : ... .. 4 ... : ... .. . ... ... : ... .. . ... ... : ... .. . ... ... : ... .. . P80 ...
ROW FB : ... .. . ... ... ... : ... .. 0 ... ... ... : ... .. . ... : ... .. . ... : ... .. . ... ... : ... .. . ... ... : ... .. . ... ... : ... .. . P7E ...
ROW FC : ... .. . ... ... ... : A#4 00 8 P80 ... ... : E-5 00 . ... : ... .. D ... : ... .. . ... ... : ... .. 9 ... ... : ... .. 9 ... ... : ... .. . ... ...
ROW FD : ... .. . ... ... ... : ... .. 6 ... ... ... : F#4 00 . ... : ... .. B ... : ... .. . ... ... : ... .. 8 ... ... : ... .. 8 ... ... : ... .. . P80 ...
ROW FE : ... .. . ... ... ... : ... .. 3 ... ... ... : B-3 00 . ... : ... .. . ... : ... .. . ... ... : ... .. . ... ... : ... .. . ... ... : ... .. . P81 ...
ROW FF : ... .. . ... ... ... : ... .. 1 ... ... ... : A#3 00 . ... : ... .. A ... : ... .. . ... ... : ... .. . ... ... : ... .. . ... ... : ... .. . P82 ...

PATTERN 0A
ROW 00 : ... .. . ... ... ... : ... .. . ... ... ... : F-3 00 . ... : ... .. 8 ... : ... .. . ... ... : ... .. 7 ... ... : ... .. 7 ... ... : ... .. . P81 ...
ROW 01 : ... .. . ... ... ... : ... .. 0 ... ... ... : ... .. . ... : ... .. 7 ... : ... .. . ... ... : ... .. . ... ... : ... .. . ... ... : ... .. . P80 ...
ROW 02 : ... .. . ... ... ... : A-4 00 8 P80 ... ... : ... .. . ... : ... .. 6 ... : ... .. . ... ... : ... .. . ... ... : ... .. . ... ... : ... .. . P7E ...
ROW 03 : ... .. . ... ... ... : ... .. 6 ... ... ... : ... .. . ... : ... .. . ... : ... .. . ... ... : ... .. 6 ... ... : ... .. 6 ... ... : ... .. . ... ...
ROW 04 : ... .. . ... ... ... : ... .. 3 ... ... ... : ... .. . ... : ... .. 5 ... : ... .. . ... ... : ... .. . ... ... : ... .. . ... ... : ... .. . P80 ...
ROW 05 : ... .. . ... ... ... : ... .. 1 ... ... ... : ... .. . ... : ... .. . ... : ... .. . ... ... : ... .. . ... ... : ... .. . ... ... : ... .. . P81 ...
ROW 06 : ... .. . ... ... ... : ... .. . ... ... ... : ... .. . ... : ... .. 4 ... : ... .. . ... ... : ... .. 5 ... ... : ... .. 5 ... ... : ... .. . P82 ...
ROW 07 : ... .. . ... ... ... : ... .. 0 ... ... ... : ... .. . ... : ... .. . ... : ... .. . ... ... : ... .. . ... ... : ... .. . ... ... : ... .. . P81 ...
ROW 08 : G-3 00 F ... ... ... : A#4 00 8 P80 ... ... : D#5 00 . ... : ... .. D ... : ... .. . ... ... : D-4 01 9 ... ... : G-3 01 9 ... ... : G-4 01 F P80 ...
ROW 09 : ... .. E ... ... ... : ... .. 6 ... ... ... : F-4 00 . ... : ... .. B ... : ... .. . ... ... : ... .. 8 ... ... : ... .. 8 ... ... : ... .. D P7E ...
ROW 0A : ... .. D ... ... ... : ... .. 3 ... ... ... : A#3 00 . ... : ... .. . ... : ... .. . ... ... : ... .. . ... ... : ... .. . ... ... : ... .. 8 ... ...
ROW 0B : ... .. A ... ... ... : ... .. 1 ... ... ... : A-3 00 . ... : ... .. A ... : ... .. . ... ... : ... .. . ... ... : ... .. . ... ... : ... .. . P80 ...
ROW 0C : ... .. . ... ... ... : ... .. . ... ... ... : E-3 00 . ... : ... .. 8 ... : ... .. . ... ... : ... .. 7 ... ... : ... .. 7 ... ... : ... .. . P81 ...
ROW 0D : ... .. . ... ... ... : ... .. 0 ... ... ... : ... .. . ... : ... .. 7 ... : ... .. . ... ... : ... .. . ... ... : ... .. . ... ... : ... .. . P82 ...
ROW 0E : ... .. . ... ... ... : A-4 00 8 P80 ... ... : ... .. . ... : ... .. 6 ... : ... .. . ... ... : ... .. . ... ... : ... .. . ... ... : ... .. . P81 ...
ROW 0F : F#3 00 F ... ... ... : ... .. 6 ... ... ... : ... .. . ... : ... .. . ... : ... .. . ... ... : ... .. 6 ... ... : ... .. 6 ... ... : F#4 01 F P80 ...
ROW 10 : ... .. E ... ... ... : ... .. 3 ... ... ... : ... .. . ... : ... .. 5 ... : ... .. . ... ... : ... .. . ... ... : ... .. . ... ... : ... .. D P7F ...
ROW 11 : ... .. D ... ... ... : ... .. 1 ... ... ... : ... .. . ... : ... .. . ... : ... .. . ... ... : ... .. . ... ... : ... .. . ... ... : ... .. 8 P7E ...
ROW 12 : ... .. A ... ... ... : ... .. . ... ... ... : ... .. . ... : ... .. 4 ... : ... .. . ... ... : ... .. . ... ... : ... .. . ... ... : ... .. . P80 ...
ROW 13 : F-3 00 F ... ... ... : ... .. 0 ... ... ... : ... .. . ... : ... .. . ... : ... .. . ... ... : ... .. . ... ... : ... .. . ... ... : F-4 01 F ... ...
ROW 14 : ... .. E ... ... ... : G-4 00 8 P80 ... ... : D-5 00 . ... : D-# 00 F ... : ... .. . ... ... : ... .. 9 ... ... : ... .. 9 ... ... : ... .. D P82 ...
ROW 15 : ... .. D ... ... ... : ... .. 6 ... ... ... : E-4 00 . ... : ... .. C ... : ... .. . ... ... : ... .. 8 ... ... : ... .. 8 ... ... : ... .. 8 P81 ...
ROW 16 : ... .. A ... ... ... : ... .. 3 ... ... ... : A-3 00 . ... : ... .. 6 ... : ... .. . ... ... : ... .. . ... ... : ... .. . ... ... : ... .. . P80 ...
ROW 17 : ... .. . ... ... ... : ... .. 1 ... ... ... : G#3 00 . ... : ... .. 3 ... : ... .. . ... ... : ... .. . ... ... : ... .. . ... ... : ... .. . P7F ...
ROW 18 : E-3 00 F ... ... ... : ... .. . ... ... ... : D#3 00 . ... : ... .. 2 ... : ... .. . ... ... : ... .. 7 ... ... : ... .. 7 ... ... : E-4 01 F P7E ...
ROW 19 : ... .. E ... ... ... : ... .. 0 ... ... ... : ... .. . ... : ... .. 0 ... : ... .. . ... ... : ... .. . ... ... : ... .. . ... ... : ... .. D P7F ...
ROW 1A : ... .. D ... ... ... : ... .. . ... ... ... : ... .. . ... : ... .. F ... : ... .. . ... ... : ... .. . ... ... : ... .. . ... ... : ... .. 8 P80 ...
ROW 1B : ... .. A ... ... ... : ... .. . ... ... ... : ... .. . ... : ... .. C ... : ... .. . ... ... : ... .. 6 ... ... : ... .. 6 ... ... : ... .. . P82 ...
ROW 1C : D#3 00 F ... ... ... : ... .. . ... ... ... : ... .. . ... : ... .. 6 ... : ... .. . ... ... : ... .. . ... ... : ... .. . ... ... : D#4 01 F ... ...
ROW 1D : ... .. E ... ... ... : ... .. . ... ... ... : ... .. . ... : ... .. 3 ... : ... .. . ... ... : --- .. . ... ... : --- .. . P81 ... : ... .. D P80 ...
ROW 1E : ... .. D ... ... ... : ... .. . ... ... ... : ... .. . ... : ... .. 2 ... : ... .. . ... ... : ... .. . ... ... : ... .. . ... ... : ... .. 8 P7F ...
ROW 1F : ... .. A ... ... ... : ... .. . ... ... ... : ... .. . ... : ... .. 0 ... : ... .. . ... ... : ... .. . ... ... : ... .. . ... ... : ... .. . P7E ...
ROW 20 : D-3 00 F ... ... ... : D-5 00 8 P80 ... ... : C#5 00 . ... : B-# 00 D ... : ... .. . ... ... : ... .. . ... ... : ... .. . ... ... : D-4 01 F P7F ...
ROW 21 : ... .. E ... ... ... : ... .. 6 ... ... ... : D#4 00 . ... : ... .. B ... : ... .. . ... ... : ... .. . ... ... : ... .. . ... ... : ... .. D P80 ...
ROW 22 : ... .. D ... ... ... : ... .. 3 ... ... ... : G#3 00 . ... : ... .. . ... : ... .. . ... ... : ... .. . ... ... : ... .. . ... ... : ... .. 8 P82 ...
ROW 23 : ... .. A ... ... ... : ... .. 1 ... ... ... : G-3 00 . ... : ... .. A ... : ... .. . ... ... : ... .. . ... ... : ... .. . ... ... : ... .. . ... ...
ROW 24 : ... .. . ... ... ... : ... .. . ... ... ... : D-3 00 . ... : ... .. 8 ... : ... .. . ... ... : ... .. . ... ... : ... .. . ... ... : ... .. . P80 ...
ROW 25 : ... .. . ... ... ... : ... .. 0 ... ... ... : ... .. . ... : ... .. 7 ... : ... .. . ... ... : ... .. . ... ... : ... .. . ... ... : ... .. . P7F ...
ROW 26 : ... .. . ... ... ... : D#5 00 8 P80 ... ... : ... .. . ... : ... .. 6 ... : ... .. . ... ... : ... .. . ... ... : ... .. . ... ... : ... .. . P7E ...
ROW 27 : ... .. . ... ... ... : ... .. 6 ... ... ... : ... .. . ... : ... .. . ... : ... .. . ... ... : ... .. . ... ... : ... .. . ... ... : ... .. . P7F ...
ROW 28 : ... .. . ... ... ... : ... .. 3 ... ... ... : ... .. . ... : ... .. 5 ... : ... .. . ... ... : ... .. . ... ... : ... .. . ... ... : ... .. . P80 ...
ROW 29 : ... .. . ... ... ... : ... .. 1 ... ... ... : ... .. . ... : ... .. . ... : ... .. . ... ... : ... .. . ... ... : ... .. . ... ... : ... .. . P82 ...
ROW 2A : ... .. . ... ... ... : ... .. . ... ... ... : ... .. . ... : ... .. 4 ... : ... .. . ... ... : ... .. . ... ... : ... .. . ... ... : ... .. . ... ...
ROW 2B : ... .. . ... ... ... : ... .. 0 ... ... ... : --- .. . ... : ... .. . ... : ... .. . ... ... : ... .. . ... ... : ... .. . ... ... : ... .. . P80 ...
ROW 2C : ... .. . ... ... ... : D-5 00 8 P80 ... ... : B-4 00 . ... : D-# 00 F ... : ... .. . ... ... : A-3 01 9 ... ... : C-3 01 9 P80 ... : ... .. . P7F ...
ROW 2D : ... .. . ... ... ... : ... .. 6 ... ... ... : C#4 00 . ... : ... .. C ... : ... .. . ... ... : ... .. 8 ... ... : ... .. 8 ... ... : ... .. . P7E ...
ROW 2E : ... .. . ... ... ... : ... .. 3 ... ... ... : F#3 00 . ... : ... .. 6 ... : ... .. . ... ... : ... .. . ... ... : ... .. . ... ... : ... .. . P7F ...
ROW 2F : ... .. . ... ... ... : ... .. 1 ... ... ... : F-3 00 . ... : ... .. 3 ... : ... .. . ... ... : --- .. . ... ... : --- .. . P7E ... : ... .. . P80 ...
ROW 30 : ... .. . ... ... ... : ... .. . ... ... ... : C-3 00 . ... : ... .. 2 ... : ... .. . ... ... : ... .. . ... ... : ... .. . ... ... : ... .. . P81 ...
ROW 31 : ... .. . ... ... ... : ... .. 0 ... ... ... : ... .. . ... : ... .. 0 ... : ... .. . ... ... : ... .. . ... ... : ... .. . ... ... : ... .. . P82 ...
ROW 32 : E-3 00 F ... ... ... : D#5 00 8 P80 ... ... : ... .. . ... : ... .. F ... : ... .. . ... ... : A-3 01 9 ... ... : C-3 01 9 P80 ... : E-4 01 F P80 ...
ROW 33 : ... .. E ... ... ... : ... .. 6 ... ... ... : ... .. . ... : ... .. C ... : ... .. . ... ... : ... .. 8 ... ... : ... .. 8 ... ... : ... .. D ... ...
ROW 34 : ... .. D ... ... ... : ... .. 3 ... ... ... : ... .. . ... : ... .. 6 ... : ... .. . ... ... : ... .. . ... ... : ... .. . ... ... : ... .. 8 P7E ...
ROW 35 : ... .. 0 ... ... ... : ... .. 1 ... ... ... : ... .. . ... : ... .. 3 ... : ... .. . ... ... : ... .. . ... ... : ... .. . ... ... : --- .. . ... ...
ROW 36 : ... .. . ... ... ... : ... .. . ... ... ... : ... .. . ... : ... .. 2 ... : ... .. . ... ... : ... .. 7 ... ... : ... .. 7 ... ... : ... .. . ... ...
ROW 37 : ... .. . ... ... ... : ... .. 0 ... ... ... : --- .. . ... : ... .. 0 ... : ... .. . ... ... : ... .. . ... ... : ... .. . ... ... : ... .. . ... ...
ROW 38 : F#3 00 F P81 ... ... : D-5 00 8 P80 ... ... : A-4 00 . ... : B-# 00 D ... : ... .. . ... ... : ... .. . ... ... : ... .. . ... ... : F#4 01 F P82 ...
ROW 39 : ... .. E ... ... ... : ... .. 6 ... ... ... : B-3 00 . ... : ... .. B ... : ... .. . ... ... : ... .. 6 ... ... : ... .. 6 ... ... : ... .. D P81 ...
ROW 3A : ... .. D ... ... ... : ... .. 3 ... ... ... : E-3 00 . ... : ... .. . ... : ... .. . ... ... : ... .. . ... ... : ... .. . ... ... : ... .. 8 P80 ...
ROW 3B : ... .. A ... ... ... : ... .. 1 ... ... ... : D#3 00 . ... : ... .. A ... : ... .. . ... ... : --- .. . ... ... : --- .. . P7E ... : ... .. . P7E ...
ROW 3C : ... .. . ... ... ... : ... .. . ... ... ... : A#2 00 . ... : ... .. 8 ... : ... .. . ... ... : ... .. . ... ... : ... .. . ... ... : ... .. . ... ...
ROW 3D : ... .. . ... ... ... : ... .. 0 ... ... ... : ... .. . ... : ... .. 7 ... : ... .. . ... ... : ... .. . ... ... : ... .. . ... ... : ... .. . P80 ...
ROW 3E : ... .. . ... ... ... : D#5 00 8 P80 ... ... : ... .. . ... : ... .. 6 ... : ... .. . ... ... : ... .. . ... ... : ... .. . ... ... : ... .. . P81 ...
ROW 3F : ... .. 2 ... ... ... : ... .. 6 ... ... ... : ... .. . ... : ... .. . ... : ... .. . ... ... : ... .. . ... ... : ... .. . ... ... : ... .. 4 P82 ...
ROW 40 : ... .. . ... ... ... : ... .. 3 ... ... ... : ... .. . ... : ... .. 5 ... : ... .. . ... ... : ... .. . ... ... : ... .. . ... ... : ... .. . P81 ...
ROW 41 : ... .. . ... ... ... : ... .. 1 ... ... ... : ... .. . ... : ... .. . ... : ... .. . ... ... : ... .. . ... ... : ... .. . ... ... : ... .. 1 P80 ...
ROW 42 : ... .. 1 ... ... ... : ... .. . ... ... ... : ... .. . ... : ... .. 4 ... : ... .. . ... ... : ... .. . ... ... : ... .. . ... ... : ... .. . P7E ...
ROW 43 : ... .. . ... ... ... : ... .. 0 ... ... ... : --- .. . ... : ... .. . ... : ... .. . ... ... : ... .. . ... ... : ... .. . ... ... : ... .. . ... ...
ROW 44 : D-3 00 F ... ... ... : D-5 00 8 P80 ... ... : G#4 00 . ... : D-# 00 F ... : ... .. . ... ... : A-3 01 9 ... ... : C-3 01 9 P80 ... : D-4 01 F P80 ...
ROW 45 : ... .. E ... ... ... : ... .. 6 ... ... ... : A#3 00 . ... : ... .. C ... : ... .. . ... ... : ... .. 8 ... ... : ... .. 8 ... ... : ... .. D P81 ...
ROW 46 : ... .. D ... ... ... : ... .. 3 ... ... ... : D#3 00 . ... : ... .. 6 ... : ... .. . ... ... : ... .. . ... ... : ... .. . ... ... : ... .. 8 P82 ...
ROW 47 : ... .. A ... ... ... : ... .. 1 ... ... ... : D-3 00 . ... : ... .. 3 ... : ... .. . ... ... : --- .. . ... ... : --- .. . P7E ... : ... .. . P81 ...
ROW 48 : ... .. . ... ... ... : ... .. . ... ... ... : A-2 00 . ... : ... .. 2 ... : ... .. . ... ... : ... .. . ... ... : ... .. . ... ... : ... .. . P80 ...
ROW 49 : ... .. . ... ... ... : ... .. 0 ... ... ... : ... .. . ... : ... .. 0 ... : ... .. . ... ... : ... .. . ... ... : ... .. . ... ... : ... .. . P7E ...
ROW 4A : ... .. 0 ... ... ... : C-5 00 8 P80 ... ... : ... .. . ... : ... .. F ... : ... .. . ... ... : A-3 01 9 ... ... : C-3 01 9 P80 ... : --- .. . ... ...
ROW 4B : ... .. . ... ... ... : ... .. 6 ... ... ... : ... .. . ... : ... .. C ... : ... .. . ... ... : ... .. 8 ... ... : ... .. 8 ... ... : ... .. . ... ...
ROW 4C : ... .. . ... ... ... : ... .. 3 ... ... ... : ... .. . ... : ... .. 6 ... : ... .. . ... ... : ... .. . ... ... : ... .. . ... ... : ... .. . ... ...
ROW 4D : ... .. . ... ... ... : ... .. 1 ... ... ... : ... .. . ... : ... .. 3 ... : ... .. . ... ... : ... .. . ... ... : ... .. . ... ... : ... .. . ... ...
ROW 4E : ... .. . ... ... ... : ... .. . ... ... ... : ... .. . ... : ... .. 2 ... : ... .. . ... ... : ... .. 7 ... ... : ... .. 7 ... ... : ... .. . ... ...
ROW 4F : ... .. . ... ... ... : ... .. 0 ... ... ... : --- .. . ... : ... .. 0 ... : ... .. . ... ... : ... .. . ... ... : ... .. . ... ... : ... .. . ... ...
ROW 50 : G-3 00 F P81 ... ... : A#4 00 8 P80 ... ... : F#4 00 . ... : B-# 00 D ... : ... .. . ... ... : ... .. . ... ... : ... .. . ... ... : G-4 01 F P7F ...
ROW 51 : ... .. E ... ... ... : ... .. 6 ... ... ... : G#3 00 . ... : ... .. B ... : ... .. . ... ... : ... .. 6 ... ... : ... .. 6 ... ... : ... .. D P7E ...
ROW 52 : ... .. D ... ... ... : ... .. 3 ... ... ... : C#3 00 . ... : ... .. . ... : ... .. . ... ... : ... .. . ... ... : ... .. . ... ... : ... .. 8 P80 ...
ROW 53 : ... .. A ... ... ... : ... .. 1 ... ... ... : C-3 00 . ... : ... .. A ... : ... .. . ... ... : --- .. . ... ... : --- .. . P7E ... : ... .. . ... ...
ROW 54 : ... .. . ... ... ... : ... .. . ... ... ... : G-2 00 . ... : ... .. 8 ... : ... .. . ... ... : ... .. . ... ... : ... .. . ... ... : ... .. . P82 ...
ROW 55 : ... .. . ... ... ... : ... .. 0 ... ... ... : --- .. . ... : ... .. 7 ... : ... .. . ... ... : ... .. . ... ... : ... .. . ... ... : ... .. . P81 ...
ROW 56 : A-3 00 F ... ... ... : A-4 00 8 P80 ... ... : F#2 00 . ... : ... .. 6 ... : ... .. . ... ... : ... .. . ... ... : ... .. . ... ... : A-4 01 F P80 ...
ROW 57 : ... .. E ... ... ... : ... .. 6 ... ... ... : ... .. . ... : ... .. . ... : ... .. . ... ... : ... .. . ... ... : ... .. . ... ... : ... .. D P7F ...
ROW 58 : ... .. D ... ... ... : ... .. 3 ... ... ... : ... .. . ... : ... .. 5 ... : ... .. . ... ... : ... .. . ... ... : ... .. . ... ... : ... .. 8 P7E ...
ROW 59 : ... .. 0 ... ... ... : ... .. 1 ... ... ... : ... .. . ... : ... .. . ... : ... .. . ... ... : ... .. . ... ... : ... .. . ... ... : --- .. . ... ...
ROW 5A : ... .. . ... ... ... : ... .. . ... ... ... : ... .. . ... : ... .. 4 ... : ... .. . ... ... : ... .. . ... ... : ... .. . ... ... : ... .. . ... ...
ROW 5B : ... .. . ... ... ... : ... .. 0 ... ... ... : --- .. . ... : ... .. . ... : ... .. . ... ... : ... .. . ... ... : ... .. . ... ... : ... .. . ... ...
ROW 5C : A#3 00 F P81 ... ... : A#4 00 8 P80 ... ... : G-2 00 . ... : ... .. D ... : ... .. . ... ... : G-3 01 9 ... ... : A#2 01 9 P80 ... : A#4 01 F P82 ...
ROW 5D : ... .. E ... ... ... : ... .. 6 ... ... ... : ... .. . ... : ... .. B ... : ... .. . ... ... : ... .. 8 ... ... : ... .. 8 ... ... : ... .. D P80 ...
ROW 5E : ... .. D ... ... ... : ... .. 3 ... ... ... : ... .. . ... : ... .. . ... : ... .. . ... ... : ... .. . ... ... : ... .. . ... ... : ... .. 8 P7F ...
ROW 5F : ... .. 0 ... ... ... : ... .. 1 ... ... ... : ... .. . ... : ... .. A ... : ... .. . ... ... : --- .. . P81 ... : --- .. . P82 ... : --- .. . ... ...
ROW 60 : ... .. . ... ... ... : ... .. . ... ... ... : ... .. . ... : ... .. 8 ... : ... .. . ... ... : ... .. . ... ... : ... .. . ... ... : ... .. . ... ...
ROW 61 : ... .. . ... ... ... : ... .. 0 ... ... ... : --- .. . ... : ... .. 7 ... : ... .. . ... ... : ... .. . ... ... : ... .. . ... ... : ... .. . ... ...
ROW 62 : C-4 00 F P81 ... ... : A-4 00 8 P80 ... ... : A-2 00 . ... : ... .. 6 ... : ... .. . ... ... : G-3 01 9 P80 ... : A#2 01 9 P80 ... : C-5 01 F P82 ...
ROW 63 : ... .. E ... ... ... : ... .. 6 ... ... ... : ... .. . ... : ... .. . ... : ... .. . ... ... : ... .. 8 ... ... : ... .. 8 ... ... : ... .. D ... ...
ROW 64 : ... .. D ... ... ... : ... .. 3 ... ... ... : ... .. . ... : ... .. 5 ... : ... .. . ... ... : ... .. . ... ... : ... .. . ... ... : ... .. 8 P80 ...
ROW 65 : ... .. 0 ... ... ... : ... .. 1 ... ... ... : ... .. . ... : ... .. . ... : ... .. . ... ... : ... .. . ... ... : ... .. . ... ... : --- .. . ... ...
ROW 66 : ... .. . ... ... ... : ... .. . ... ... ... : ... .. . ... : ... .. 4 ... : ... .. . ... ... : ... .. 7 ... ... : ... .. 7 ... ... : ... .. . ... ...
ROW 67 : ... .. . ... ... ... : ... .. 0 ... ... ... : --- .. . ... : ... .. . ... : ... .. . ... ... : ... .. . ... ... : ... .. . ... ... : ... .. . ... ...
ROW 68 : D-4 00 F P81 ... ... : A#4 00 8 P80 ... ... : A-4 00 . ... : ... .. D ... : ... .. . ... ... : ... .. . ... ... : ... .. . ... ... : D-5 01 F ... ...
ROW 69 : ... .. E ... ... ... : ... .. 6 ... ... ... : B-3 00 . ... : ... .. B ... : ... .. . ... ... : ... .. 6 ... ... : ... .. 6 ... ... : ... .. D P82 ...
ROW 6A : ... .. D ... ... ... : ... .. 3 ... ... ... : E-3 00 . ... : ... .. . ... : ... .. . ... ... : ... .. . ... ... : ... .. . ... ... : ... .. 8 ... ...
ROW 6B : ... .. A ... ... ... : ... .. 1 ... ... ... : D#3 00 . ... : ... .. A ... : ... .. . ... ... : --- .. . P81 ... : --- .. . P82 ... : ... .. . P80 ...
ROW 6C : ... .. . ... ... ... : ... .. . ... ... ... : A#2 00 . ... : ... .. 8 ... : ... .. . ... ... : ... .. . ... ... : ... .. . ... ... : ... .. . P7F ...
ROW 6D : ... .. . ... ... ... : ... .. 0 ... ... ... : ... .. . ... : ... .. 7 ... : ... .. . ... ... : ... .. . ... ... : ... .. . ... ... : ... .. . P7E ...
ROW 6E : ... .. . ... ... ... : A-4 00 8 P80 ... ... : ... .. . ... : ... .. 6 ... : ... .. . ... ... : ... .. . ... ... : ... .. . ... ... : ... .. . P7F ...
ROW 6F : ... .. . ... ... ... : ... .. 6 ... ... ... : ... .. . ... : ... .. . ... : ... .. . ... ... : ... .. . ... ... : ... .. . ... ... : ... .. . P80 ...
ROW 70 : ... .. . ... ... ... : ... .. 3 ... ... ... : ... .. . ... : ... .. 5 ... : ... .. . ... ... : ... .. . ... ... : ... .. . ... ... : ... .. . P81 ...
ROW 71 : ... .. 0 ... ... ... : ... .. 1 ... ... ... : ... .. . ... : ... .. . ... : ... .. . ... ... : ... .. . ... ... : ... .. . ... ... : --- .. . ... ...
ROW 72 : ... .. . ... ... ... : ... .. . ... ... ... : ... .. . ... : ... .. 4 ... : ... .. . ... ... : ... .. . ... ... : ... .. . ... ... : ... .. . ... ...
ROW 73 : ... .. . ... ... ... : ... .. 0 ... ... ... : --- .. . ... : ... .. . ... : ... .. . ... ... : ... .. . ... ... : ... .. . ... ... : ... .. . ... ...
ROW 74 : A#3 00 F P81 ... ... : A#4 00 8 P80 ... ... : F#4 00 . ... : D-# 00 F ... : ... .. . ... ... : G-3 01 9 P80 ... : A#2 01 9 P80 ... : A#4 01 F P7E ...
ROW 75 : ... .. E ... ... ... : ... .. 6 ... ... ... : G#3 00 . ... : ... .. C ... : ... .. . ... ... : ... .. 8 ... ... : ... .. 8 ... ... : ... .. D P7F ...
ROW 76 : ... .. D ... ... ... : ... .. 3 ... ... ... : C#3 00 . ... : ... .. 6 ... : ... .. . ... ... : ... .. . ... ... : ... .. . ... ... : ... .. 8 P80 ...
ROW 77 : ... .. A ... ... ... : ... .. 1 ... ... ... : C-3 00 . ... : ... .. 3 ... : ... .. . ... ... : --- .. . P81 ... : --- .. . P82 ... : ... .. . P81 ...
ROW 78 : ... .. . ... ... ... : ... .. . ... ... ... : G-2 00 . ... : ... .. 2 ... : ... .. . ... ... : ... .. . ... ... : ... .. . ... ... : ... .. . P82 ...
ROW 79 : ... .. . ... ... ... : ... .. 0 ... ... ... : ... .. . ... : ... .. 0 ... : ... .. . ... ... : ... .. . ... ... : ... .. . ... ... : ... .. . P81 ...
ROW 7A : ... .. . ... ... ... : D-5 00 8 P80 ... ... : ... .. . ... : ... .. F ... : ... .. . ... ... : G-3 01 9 P80 ... : A#2 01 9 P80 ... : ... .. . P80 ...
ROW 7B : ... .. . ... ... ... : ... .. 6 ... ... ... : ... .. . ... : ... .. C ... : ... .. . ... ... : ... .. 8 ... ... : ... .. 8 ... ... : ... .. . P7E ...
ROW 7C : ... .. . ... ... ... : ... .. 3 ... ... ... : ... .. . ... : ... .. 6 ... : ... .. . ... ... : ... .. . ... ... : ... .. . ... ... : ... .. . ... ...
ROW 7D : ... .. 0 ... ... ... : ... .. 1 ... ... ... : ... .. . ... : ... .. 3 ... : ... .. . ... ... : ... .. . ... ... : ... .. . ... ... : --- .. . ... ...
ROW 7E : ... .. . ... ... ... : ... .. . ... ... ... : ... .. . ... : ... .. 2 ... : ... .. . ... ... : ... .. 7 ... ... : ... .. 7 ... ... : ... .. . ... ...
ROW 7F : ... .. . ... ... ... : ... .. 0 ... ... ... : --- .. . ... : ... .. 0 ... : ... .. . ... ... : ... .. . ... ... : ... .. . ... ... : ... .. . ... ...
ROW 80 : C#4 00 F P81 ... ... : C#5 00 8 P80 ... ... : G#4 00 . ... : B-# 00 D ... : ... .. . ... ... : A-2 01 9 ... ... : A-3 01 9 ... ... : C#5 01 F P81 ...
ROW 81 : ... .. E ... ... ... : ... .. 6 ... ... ... : A#3 00 . ... : ... .. B ... : ... .. . ... ... : ... .. 8 ... ... : ... .. 8 ... ... : ... .. D P80 ...
ROW 82 : ... .. D ... ... ... : ... .. 3 ... ... ... : D#3 00 . ... : ... .. . ... : ... .. . ... ... : ... .. . ... ... : ... .. . ... ... : ... .. 8 P7E ...
ROW 83 : ... .. A ... ... ... : ... .. 1 ... ... ... : D-3 00 . ... : ... .. A ... : ... .. . ... ... : ... .. . ... ... : ... .. . ... ... : ... .. . ... ...
ROW 84 : ... .. . ... ... ... : ... .. . ... ... ... : A-2 00 . ... : ... .. 8 ... : ... .. . ... ... : ... .. 7 ... ... : ... .. 7 ... ... : ... .. . P80 ...
ROW 85 : ... .. . ... ... ... : ... .. 0 ... ... ... : ... .. . ... : ... .. 7 ... : ... .. . ... ... : ... .. . ... ... : ... .. . ... ... : ... .. . P81 ...
ROW 86 : C-4 00 F ... ... ... : B-4 00 8 P80 ... ... : ... .. . ... : ... .. 6 ... : ... .. . ... ... : A#2 01 9 ... ... : A#3 01 9 ... ... : C-5 01 F P82 ...
ROW 87 : ... .. E ... ... ... : ... .. 6 ... ... ... : ... .. . ... : ... .. . ... : ... .. . ... ... : ... .. 8 ... ... : ... .. 8 ... ... : ... .. D P81 ...
ROW 88 : ... .. D ... ... ... : ... .. 3 ... ... ... : ... .. . ... : ... .. 5 ... : ... .. . ... ... : ... .. . ... ... : ... .. . ... ... : ... .. 8 P80 ...
ROW 89 : ... .. A ... ... ... : ... .. 1 ... ... ... : ... .. . ... : ... .. . ... : ... .. . ... ... : ... .. . ... ... : ... .. . ... ... : ... .. . P7E ...
ROW 8A : ... .. . ... ... ... : ... .. . ... ... ... : ... .. . ... : ... .. 4 ... : ... .. . ... ... : ... .. 7 ... ... : ... .. 7 ... ... : ... .. . ... ...
ROW 8B : ... .. . ... ... ... : ... .. 0 ... ... ... : --- .. . ... : ... .. . ... : ... .. . ... ... : ... .. . ... ... : ... .. . ... ... : ... .. . P80 ...
ROW 8C : C#4 00 F ... ... ... : C#5 00 8 P80 ... ... : G-3 00 . ... : D-# 00 F ... : ... .. . ... ... : A-2 01 9 ... ... : A-3 01 9 ... ... : C#5 01 F P81 ...
ROW 8D : ... .. E ... ... ... : ... .. 6 ... ... ... : ... .. . ... : ... .. C ... : ... .. . ... ... : ... .. 8 ... ... : ... .. 8 ... ... : ... .. D P82 ...
ROW 8E : ... .. D ... ... ... : ... .. 3 ... ... ... : ... .. . ... : ... .. 6 ... : ... .. . ... ... : ... .. . ... ... : ... .. . ... ... : ... .. 8 P81 ...
ROW 8F : ... .. 0 ... ... ... : ... .. 1 ... ... ... : ... .. . ... : ... .. 3 ... : ... .. . ... ... : ... .. . ... ... : ... .. . ... ... : --- .. . ... ...
ROW 90 : ... .. . ... ... ... : ... .. . ... ... ... : ... .. . ... : ... .. 2 ... : ... .. . ... ... : ... .. 7 ... ... : ... .. 7 ... ... : ... .. . ... ...
ROW 91 : ... .. . ... ... ... : ... .. 0 ... ... ... : --- .. . ... : ... .. 0 ... : ... .. . ... ... : ... .. . ... ... : ... .. . ... ... : ... .. . ... ...
ROW 92 : D-4 00 F P81 ... ... : D-5 00 8 P80 ... ... : G-3 00 . ... : ... .. F ... : ... .. . ... ... : G-2 01 9 ... ... : G-3 01 9 ... ... : D-5 01 F P80 ...
ROW 93 : ... .. E ... ... ... : ... .. 6 ... ... ... : ... .. . ... : ... .. C ... : ... .. . ... ... : ... .. 8 ... ... : ... .. 8 ... ... : ... .. D ... ...
ROW 94 : ... .. D ... ... ... : ... .. 3 ... ... ... : ... .. . ... : ... .. 6 ... : ... .. . ... ... : ... .. . ... ... : ... .. . ... ... : ... .. 8 P82 ...
ROW 95 : ... .. 0 ... ... ... : ... .. 1 ... ... ... : ... .. . ... : ... .. 3 ... : ... .. . ... ... : ... .. . ... ... : ... .. . ... ... : --- .. . ... ...
ROW 96 : ... .. . ... ... ... : ... .. . ... ... ... : ... .. . ... : ... .. 2 ... : ... .. . ... ... : ... .. 7 ... ... : ... .. 7 ... ... : ... .. . ... ...
ROW 97 : ... .. . ... ... ... : ... .. 0 ... ... ... : --- .. . ... : ... .. 0 ... : ... .. . ... ... : ... .. . ... ... : ... .. . ... ... : ... .. . ... ...
ROW 98 : E-4 00 F P81 ... ... : E-5 00 8 P80 ... ... : G#4 00 . ... : B-# 00 D ... : ... .. . ... ... : F#2 01 9 ... ... : F#3 01 9 ... ... : E-5 01 F P7E ...
ROW 99 : ... .. E ... ... ... : ... .. 6 ... ... ... : A#3 00 . ... : ... .. B ... : ... .. . ... ... : ... .. 8 ... ... : ... .. 8 ... ... : ... .. D P7F ...
ROW 9A : ... .. D ... ... ... : ... .. 3 ... ... ... : D#3 00 . ... : ... .. . ... : ... .. . ... ... : ... .. . ... ... : ... .. . ... ... : ... .. 8 P80 ...
ROW 9B : ... .. A ... ... ... : ... .. 1 ... ... ... : D-3 00 . ... : ... .. A ... : ... .. . ... ... : ... .. . ... ... : ... .. . ... ... : ... .. . P82 ...
ROW 9C : ... .. . ... ... ... : ... .. . ... ... ... : A-2 00 . ... : ... .. 8 ... : ... .. . ... ... : ... .. 7 ... ... : ... .. 7 ... ... : ... .. . ... ...
ROW 9D : ... .. . ... ... ... : ... .. 0 ... ... ... : ... .. . ... : ... .. 7 ... : ... .. . ... ... : ... .. . ... ... : ... .. . ... ... : ... .. . P80 ...
ROW 9E : ... .. . ... ... ... : D-5 00 8 P80 ... ... : ... .. . ... : ... .. 6 ... : ... .. . ... ... : G-2 01 9 ... ... : G-3 01 9 ... ... : ... .. . P7F ...
ROW 9F : ... .. . ... ... ... : ... .. 6 ... ... ... : ... .. . ... : ... .. . ... : ... .. . ... ... : ... .. 8 ... ... : ... .. 8 ... ... : ... .. . P7E ...
ROW A0 : ... .. . ... ... ... : ... .. 3 ... ... ... : ... .. . ... : ... .. 5 ... : ... .. . ... ... : ... .. . ... ... : ... .. . ... ... : ... .. . P7F ...
ROW A1 : ... .. . ... ... ... : ... .. 1 ... ... ... : ... .. . ... : ... .. . ... : ... .. . ... ... : ... .. . ... ... : ... .. . ... ... : ... .. . P80 ...
ROW A2 : ... .. . ... ... ... : ... .. . ... ... ... : ... .. . ... : ... .. 4 ... : ... .. . ... ... : ... .. 7 ... ... : ... .. 7 ... ... : ... .. . P82 ...
ROW A3 : ... .. . ... ... ... : ... .. 0 ... ... ... : --- .. . ... : ... .. . ... : ... .. . ... ... : ... .. . ... ... : ... .. . ... ... : ... .. . ... ...
ROW A4 : A-4 00 F ... ... ... : E-5 00 8 P80 ... ... : G-3 00 . ... : D-# 00 F ... : ... .. . ... ... : F#2 01 9 ... ... : F#3 01 9 ... ... : A-5 01 F P80 ...
ROW A5 : ... .. E ... ... ... : ... .. 6 ... ... ... : ... .. . ... : ... .. C ... : ... .. . ... ... : ... .. 8 ... ... : ... .. 8 ... ... : ... .. D P7F ...
ROW A6 : ... .. D ... ... ... : ... .. 3 ... ... ... : ... .. . ... : ... .. 6 ... : ... .. . ... ... : ... .. . ... ... : ... .. . ... ... : G#5 01 8 P82 ...
ROW A7 : ... .. A ... ... ... : ... .. 1 ... ... ... : ... .. . ... : ... .. 3 ... : ... .. . ... ... : ... .. . ... ... : ... .. . ... ... : A-5 01 8 P7F ...
ROW A8 : ... .. . ... ... ... : ... .. . ... ... ... : ... .. . ... : ... .. 2 ... : ... .. . ... ... : ... .. 7 ... ... : ... .. 7 ... ... : ... .. . P80 ...
ROW A9 : ... .. . ... ... ... : ... .. 0 ... ... ... : --- .. . ... : ... .. 0 ... : ... .. . ... ... : ... .. . ... ... : ... .. . ... ... : ... .. . P82 ...
ROW AA : ... .. . ... ... ... : G-5 00 8 P80 ... ... : G-3 00 . ... : ... .. F ... : ... .. . ... ... : E-2 01 9 ... ... : E-3 01 9 ... ... : ... .. . ... ...
ROW AB : ... .. . ... ... ... : ... .. 6 ... ... ... : ... .. . ... : ... .. C ... : ... .. . ... ... : ... .. 8 ... ... : ... .. 8 ... ... : ... .. . P80 ...
ROW AC : ... .. . ... ... ... : ... .. 3 ... ... ... : ... .. . ... : ... .. 6 ... : ... .. . ... ... : ... .. . ... ... : ... .. . ... ... : ... .. . P7F ...
ROW AD : ... .. 0 ... ... ... : ... .. 1 ... ... ... : ... .. . ... : ... .. 3 ... : ... .. . ... ... : ... .. . ... ... : ... .. . ... ... : --- .. . ... ...
ROW AE : ... .. . ... ... ... : ... .. . ... ... ... : ... .. . ... : ... .. 2 ... : ... .. . ... ... : ... .. 7 ... ... : ... .. 7 ... ... : ... .. . ... ...
ROW AF : ... .. . ... ... ... : ... .. 0 ... ... ... : --- .. . ... : ... .. 0 ... : ... .. . ... ... : ... .. . ... ... : ... .. . ... ... : ... .. . ... ...
ROW B0 : D-4 00 F P81 ... ... : F#5 00 8 P80 ... ... : C#4 00 . ... : B-# 00 D ... : ... .. . ... ... : D-4 01 9 ... ... : D-3 01 9 ... ... : D-5 01 F P81 ...
ROW B1 : ... .. E ... ... ... : ... .. 6 ... ... ... : D#3 00 . ... : ... .. B ... : ... .. . ... ... : ... .. 8 ... ... : ... .. 8 ... ... : ... .. D P82 ...
ROW B2 : ... .. D ... ... ... : ... .. 3 ... ... ... : G#2 00 . ... : ... .. . ... : ... .. . ... ... : ... .. . ... ... : ... .. . ... ... : ... .. 8 P80 ...
ROW B3 : ... .. A ... ... ... : ... .. 1 ... ... ... : G-2 00 . ... : ... .. A ... : ... .. . ... ... : E-4 01 9 ... ... : E-3 01 9 ... ... : ... .. . ... ...
ROW B4 : ... .. . ... ... ... : ... .. . ... ... ... : D-2 00 . ... : ... .. 8 ... : ... .. . ... ... : ... .. 8 ... ... : ... .. 8 ... ... : ... .. . P7E ...
ROW B5 : ... .. . ... ... ... : ... .. 0 ... ... ... : ... .. . ... : ... .. 7 ... : ... .. . ... ... : ... .. . ... ... : ... .. . ... ... : ... .. . P7F ...
ROW B6 : ... .. . ... ... ... : F-5 00 8 P80 ... ... : ... .. . ... : ... .. 6 ... : ... .. . ... ... : F#4 01 9 ... ... : F#3 01 9 ... ... : ... .. . P80 ...
ROW B7 : ... .. . ... ... ... : ... .. 6 ... ... ... : ... .. . ... : ... .. . ... : ... .. . ... ... : ... .. 8 ... ... : ... .. 8 ... ... : ... .. . P81 ...
ROW B8 : ... .. . ... ... ... : ... .. 3 ... ... ... : ... .. . ... : ... .. 5 ... : ... .. . ... ... : ... .. . ... ... : ... .. . ... ... : ... .. . P82 ...
ROW B9 : ... .. . ... ... ... : ... .. 1 ... ... ... : ... .. . ... : ... .. . ... : ... .. . ... ... : G-4 01 9 ... ... : G-3 01 9 ... ... : ... .. . P81 ...
ROW BA : ... .. . ... ... ... : ... .. . ... ... ... : ... .. . ... : ... .. 4 ... : ... .. . ... ... : ... .. 8 ... ... : ... .. 8 ... ... : ... .. . P80 ...
ROW BB : ... .. . ... ... ... : ... .. 0 ... ... ... : --- .. . ... : ... .. . ... : ... .. . ... ... : ... .. . ... ... : ... .. . ... ... : ... .. . P7E ...
ROW BC : ... .. . ... ... ... : E-5 00 8 P80 ... ... : F#3 00 . ... : ... .. 3 ... : ... .. . ... ... : A-4 01 9 ... ... : A-3 01 9 ... ... : ... .. . ... ...
ROW BD : ... .. . ... ... ... : ... .. 6 ... ... ... : ... .. . ... : ... .. 2 ... : ... .. . ... ... : ... .. 8 ... ... : ... .. 8 ... ... : ... .. . P80 ...
ROW BE : ... .. . ... ... ... : ... .. 3 ... ... ... : ... .. . ... : ... .. . ... : ... .. . ... ... : ... .. . ... ... : ... .. . ... ... : ... .. . P81 ...
ROW BF : ... .. . ... ... ... : ... .. 1 ... ... ... : ... .. . ... : D-# 00 5 ... : ... .. . ... ... : B-4 01 9 ... ... : B-3 01 9 ... ... : ... .. . P82 ...
ROW C0 : ... .. . ... ... ... : ... .. . ... ... ... : ... .. . ... : ... .. 4 ... : ... .. . ... ... : ... .. 8 ... ... : ... .. 8 ... ... : ... .. . P81 ...
ROW C1 : ... .. . ... ... ... : ... .. 0 ... ... ... : --- .. . ... : ... .. . ... : ... .. . ... ... : ... .. . ... ... : ... .. . ... ... : ... .. . P80 ...
ROW C2 : ... .. 0 ... ... ... : D#5 00 8 P80 ... ... : A-3 00 . ... : ... .. 6 ... : ... .. . ... ... : C-5 01 9 ... ... : C-4 01 9 ... ... : --- .. . ... ...
ROW C3 : ... .. . ... ... ... : ... .. 6 ... ... ... : ... .. . ... : ... .. 5 ... : ... .. . ... ... : ... .. 8 ... ... : ... .. 8 ... ... : ... .. . ... ...
ROW C4 : ... .. . ... ... ... : ... .. 3 ... ... ... : ... .. . ... : ... .. . ... : ... .. . ... ... : ... .. . ... ... : ... .. . ... ... : ... .. . ... ...
ROW C5 : ... .. . ... ... ... : ... .. 1 ... ... ... : ... .. . ... : ... .. 8 ... : ... .. . ... ... : C#5 01 9 ... ... : C#4 01 9 ... ... : ... .. . ... ...
ROW C6 : ... .. . ... ... ... : ... .. . ... ... ... : ... .. . ... : ... .. 7 ... : ... .. . ... ... : ... .. 8 ... ... : ... .. 8 ... ... : ... .. . ... ...
ROW C7 : ... .. . ... ... ... : ... .. 0 ... ... ... : --- .. . ... : ... .. . ... : ... .. . ... ... : ... .. . ... ... : ... .. . ... ... : ... .. . ... ...
ROW C8 : G-3 00 F P81 ... ... : D-5 00 8 P80 ... ... : D-4 00 . ... : B-# 00 D ... : ... .. . ... ... : D-5 01 9 ... ... : D-4 01 9 ... ... : G-4 01 F ... ...
ROW C9 : ... .. E ... ... ... : ... .. 6 ... ... ... : ... .. . ... : ... .. B ... : ... .. . ... ... : ... .. 8 ... ... : ... .. 8 ... ... : ... .. D P7E ...
ROW CA : ... .. D ... ... ... : ... .. 3 ... ... ... : ... .. . ... : ... .. . ... : ... .. . ... ... : ... .. . ... ... : ... .. . ... ... : ... .. 8 ... ...
ROW CB : ... .. A ... ... ... : ... .. 1 ... ... ... : ... .. . ... : ... .. A ... : ... .. . ... ... : ... .. . ... ... : ... .. . ... ... : ... .. . P80 ...
ROW CC : ... .. . ... ... ... : ... .. . ... ... ... : ... .. . ... : ... .. 8 ... : ... .. . ... ... : ... .. 7 ... ... : ... .. 7 ... ... : ... .. . P81 ...
ROW CD : ... .. . ... ... ... : ... .. 0 ... ... ... : --- .. . ... : ... .. 7 ... : ... .. . ... ... : ... .. . ... ... : ... .. . ... ... : ... .. . P82 ...
ROW CE : ... .. . ... ... ... : D#5 00 8 P80 ... ... : C-4 00 . ... : ... .. 6 ... : ... .. . ... ... : ... .. . ... ... : ... .. . ... ... : ... .. . P81 ...
ROW CF : F#3 00 F ... ... ... : ... .. 6 ... ... ... : ... .. . ... : ... .. . ... : ... .. . ... ... : ... .. 6 ... ... : ... .. 6 ... ... : F#4 01 F P80 ...
ROW D0 : ... .. E ... ... ... : ... .. 3 ... ... ... : ... .. . ... : ... .. 5 ... : ... .. . ... ... : ... .. . ... ... : ... .. . ... ... : ... .. D P7F ...
ROW D1 : ... .. D ... ... ... : ... .. 1 ... ... ... : ... .. . ... : ... .. . ... : ... .. . ... ... : ... .. . ... ... : ... .. . ... ... : ... .. 8 P7E ...
ROW D2 : ... .. A ... ... ... : ... .. . ... ... ... : ... .. . ... : ... .. 4 ... : ... .. . ... ... : ... .. . ... ... : ... .. . ... ... : ... .. . P80 ...
ROW D3 : F-3 00 F ... ... ... : ... .. 0 ... ... ... : --- .. . ... : ... .. . ... : ... .. . ... ... : ... .. . ... ... : ... .. . ... ... : F-4 01 F ... ...
ROW D4 : ... .. E ... ... ... : E-5 00 8 P80 ... ... : A#3 00 . ... : ... .. 3 ... : ... .. . ... ... : ... .. . ... ... : ... .. . ... ... : ... .. D P82 ...
ROW D5 : ... .. D ... ... ... : ... .. 6 ... ... ... : ... .. . ... : ... .. 2 ... : ... .. . ... ... : ... .. 5 ... ... : ... .. 5 ... ... : ... .. 8 P81 ...
ROW D6 : ... .. A ... ... ... : ... .. 3 ... ... ... : ... .. . ... : ... .. . ... : ... .. . ... ... : ... .. . ... ... : ... .. . ... ... : ... .. . P80 ...
ROW D7 : ... .. . ... ... ... : ... .. 1 ... ... ... : ... .. . ... : ... .. 1 ... : ... .. . ... ... : ... .. 4 ... ... : ... .. 4 ... ... : ... .. . P7F ...
ROW D8 : E-3 00 F ... ... ... : ... .. . ... ... ... : ... .. . ... : ... .. 0 ... : ... .. . ... ... : ... .. 3 ... ... : ... .. 3 ... ... : E-4 01 F P7E ...
ROW D9 : ... .. E ... ... ... : ... .. 0 ... ... ... : --- .. . ... : ... .. . ... : ... .. . ... ... : ... .. . ... ... : ... .. . ... ... : ... .. D P7F ...
ROW DA : ... .. D ... ... ... : F-5 00 8 P80 ... ... : A-3 00 . ... : ... .. . ... : ... .. . ... ... : ... .. . ... ... : ... .. . ... ... : ... .. 8 P80 ...
ROW DB : ... .. A ... ... ... : ... .. 6 ... ... ... : ... .. . ... : ... .. . ... : ... .. . ... ... : ... .. . ... ... : ... .. . ... ... : ... .. . P82 ...
ROW DC : D#3 00 F ... ... ... : ... .. 3 ... ... ... : ... .. . ... : ... .. . ... : ... .. . ... ... : ... .. . ... ... : ... .. . ... ... : D#4 01 F ... ...
ROW DD : ... .. E ... ... ... : ... .. 1 ... ... ... : ... .. . ... : ... .. . ... : ... .. . ... ... : ... .. . ... ... : ... .. . ... ... : ... .. D P80 ...
ROW DE : ... .. D ... ... ... : ... .. . ... ... ... : ... .. . ... : ... .. . ... : ... .. . ... ... : ... .. . ... ... : ... .. . ... ... : ... .. 8 P7F ...
ROW DF : ... .. A ... ... ... : ... .. 0 ... ... ... : --- .. . ... : ... .. . ... : ... .. . ... ... : ... .. . ... ... : ... .. . ... ... : ... .. . P7E ...
ROW E0 : D-3 00 F ... ... ... : F#5 00 8 P80 ... ... : C#4 00 . ... : ... .. D ... : ... .. . ... ... : ... .. . ... ... : ... .. . ... ... : D-4 01 F P7F ...
ROW E1 : ... .. E ... ... ... : ... .. 6 ... ... ... : D#3 00 . ... : ... .. B ... : ... .. . ... ... : ... .. . ... ... : ... .. . ... ... : ... .. D P80 ...
ROW E2 : ... .. D ... ... ... : ... .. 3 ... ... ... : G#2 00 . ... : ... .. . ... : ... .. . ... ... : ... .. . ... ... : ... .. . ... ... : ... .. 8 P82 ...
ROW E3 : ... .. A ... ... ... : ... .. 1 ... ... ... : G-2 00 . ... : ... .. A ... : ... .. . ... ... : ... .. 1 ... ... : ... .. 1 ... ... : ... .. . ... ...
ROW E4 : ... .. . ... ... ... : ... .. . ... ... ... : D-2 00 . ... : ... .. 8 ... : ... .. . ... ... : ... .. . ... ... : ... .. . ... ... : ... .. . P80 ...
ROW E5 : ... .. . ... ... ... : ... .. 0 ... ... ... : ... .. . ... : ... .. 7 ... : ... .. . ... ... : ... .. . ... ... : ... .. . ... ... : ... .. . P7F ...
ROW E6 : ... .. . ... ... ... : A-5 00 8 P80 ... ... : ... .. . ... : ... .. 6 ... : ... .. . ... ... : ... .. . ... ... : ... .. . ... ... : ... .. . P7E ...
ROW E7 : ... .. . ... ... ... : ... .. 6 ... ... ... : ... .. . ... : ... .. . ... : ... .. . ... ... : ... .. . ... ... : ... .. . ... ... : ... .. . P7F ...
ROW E8 : ... .. . ... ... ... : ... .. 3 ... ... ... : ... .. . ... : ... .. 5 ... : ... .. . ... ... : ... .. . ... ... : ... .. . ... ... : ... .. . P80 ...
ROW E9 : ... .. . ... ... ... : ... .. 1 ... ... ... : ... .. . ... : ... .. . ... : ... .. . ... ... : ... .. . ... ... : ... .. . ... ... : ... .. . P82 ...
ROW EA : ... .. . ... ... ... : ... .. . ... ... ... : ... .. . ... : ... .. 4 ... : ... .. . ... ... : ... .. . ... ... : ... .. . ... ... : ... .. . ... ...
ROW EB : ... .. . ... ... ... : ... .. 0 ... ... ... : --- .. . ... : ... .. . ... : ... .. . ... ... : ... .. . ... ... : ... .. . ... ... : ... .. . P80 ...
ROW EC : ... .. . ... ... ... : F#5 00 8 P80 ... ... : C-4 00 . ... : D-# 00 F ... : ... .. . ... ... : A-4 01 9 ... ... : C-4 01 9 ... ... : ... .. . P7F ...
ROW ED : ... .. . ... ... ... : ... .. 6 ... ... ... : ... .. . ... : ... .. C ... : ... .. . ... ... : ... .. 8 ... ... : ... .. 8 ... ... : ... .. . P7E ...
ROW EE : ... .. . ... ... ... : ... .. 3 ... ... ... : ... .. . ... : ... .. 6 ... : ... .. . ... ... : ... .. . ... ... : ... .. . ... ... : ... .. . P7F ...
ROW EF : ... .. . ... ... ... : ... .. 1 ... ... ... : ... .. . ... : ... .. 3 ... : ... .. . ... ... : --- .. . ... ... : --- .. . ... ... : ... .. . P80 ...
ROW F0 : ... .. . ... ... ... : ... .. . ... ... ... : ... .. . ... : ... .. 2 ... : ... .. . ... ... : ... .. . ... ... : ... .. . ... ... : ... .. . P81 ...
ROW F1 : ... .. . ... ... ... : ... .. 0 ... ... ... : --- .. . ... : ... .. 0 ... : ... .. . ... ... : ... .. . ... ... : ... .. . ... ... : ... .. . P82 ...
ROW F2 : E-3 00 F ... ... ... : A-5 00 8 P80 ... ... : C-4 00 . ... : ... .. F ... : ... .. . ... ... : A-4 01 9 ... ... : C-4 01 9 ... ... : E-4 01 F P80 ...
ROW F3 : ... .. E ... ... ... : ... .. 6 ... ... ... : ... .. . ... : ... .. C ... : ... .. . ... ... : ... .. 8 ... ... : ... .. 8 ... ... : ... .. D ... ...
ROW F4 : ... .. D ... ... ... : ... .. 3 ... ... ... : ... .. . ... : ... .. 6 ... : ... .. . ... ... : ... .. . ... ... : ... .. . ... ... : ... .. 8 P7E ...
ROW F5 : ... .. 0 ... ... ... : ... .. 1 ... ... ... : ... .. . ... : ... .. 3 ... : ... .. . ... ... : ... .. . ... ... : ... .. . ... ... : --- .. . ... ...
ROW F6 : ... .. . ... ... ... : ... .. . ... ... ... : ... .. . ... : ... .. 2 ... : ... .. . ... ... : ... .. 7 ... ... : ... .. 7 ... ... : ... .. . ... ...
ROW F7 : ... .. . ... ... ... : ... .. 0 ... ... ... : --- .. . ... : ... .. 0 ... : ... .. . ... ... : ... .. . ... ... : ... .. . ... ... : ... .. . ... ...
ROW F8 : F#3 00 F P81 ... ... : F#5 00 8 P80 ... ... : C#4 00 . ... : B-# 00 D ... : ... .. . ... ... : ... .. . ... ... : ... .. . ... ... : F#4 01 F P82 ...
ROW F9 : ... .. E ... ... ... : ... .. 6 ... ... ... : D#3 00 . ... : ... .. B ... : ... .. . ... ... : ... .. 6 ... ... : ... .. 6 ... ... : ... .. D P81 ...
ROW FA : ... .. D ... ... ... : ... .. 3 ... ... ... : G#2 00 . ... : ... .. . ... : ... .. . ... ... : ... .. . ... ... : ... .. . ... ... : ... .. 8 P80 ...
ROW FB : ... .. A ... ... ... : ... .. 1 ... ... ... : G-2 00 . ... : ... .. A ... : ... .. . ... ... : --- .. . ... ... : --- .. . ... ... : ... .. . P7E ...
ROW FC : ... .. . ... ... ... : ... .. . ... ... ... : D-2 00 . ... : ... .. 8 ... : ... .. . ... ... : ... .. . ... ... : ... .. . ... ... : ... .. . ... ...
ROW FD : ... .. . ... ... ... : ... .. 0 ... ... ... : ... .. . ... : ... .. 7 ... : ... .. . ... ... : ... .. . ... ... : ... .. . ... ... : ... .. . P80 ...
ROW FE : ... .. . ... ... ... : A-5 00 8 P80 ... ... : ... .. . ... : ... .. 6 ... : ... .. . ... ... : ... .. . ... ... : ... .. . ... ... : ... .. . P81 ...
ROW FF : ... .. 2 ... ... ... : ... .. 6 ... ... ... : ... .. . ... : ... .. . ... : ... .. . ... ... : ... .. . ... ... : ... .. . ... ... : ... .. 4 P82 ...

PATTERN 0B
ROW 00 : ... .. . ... ... ... : ... .. 3 ... ... ... : ... .. . ... : ... .. 5 ... : ... .. . ... ... : ... .. . ... ... : ... .. . ... ... : ... .. . P81 ...
ROW 01 : ... .. . ... ... ... : ... .. 1 ... ... ... : ... .. . ... : ... .. . ... : ... .. . ... ... : ... .. . ... ... : ... .. . ... ... : ... .. 1 P80 ...
ROW 02 : ... .. 1 ... ... ... : ... .. . ... ... ... : ... .. . ... : ... .. 4 ... : ... .. . ... ... : ... .. . ... ... : ... .. . ... ... : ... .. . P7E ...
ROW 03 : ... .. . ... ... ... : ... .. 0 ... ... ... : --- .. . ... : ... .. . ... : ... .. . ... ... : ... .. . ... ... : ... .. . ... ... : ... .. . ... ...
ROW 04 : D-3 00 F ... ... ... : F#5 00 8 P80 ... ... : C-4 00 . ... : D-# 00 F ... : ... .. . ... ... : A-4 01 9 ... ... : C-4 01 9 ... ... : D-4 01 F P80 ...
ROW 05 : ... .. E ... ... ... : ... .. 6 ... ... ... : ... .. . ... : ... .. C ... : ... .. . ... ... : ... .. 8 ... ... : ... .. 8 ... ... : ... .. D P81 ...
ROW 06 : ... .. D ... ... ... : ... .. 3 ... ... ... : ... .. . ... : ... .. 6 ... : ... .. . ... ... : ... .. . ... ... : ... .. . ... ... : ... .. 8 P82 ...
ROW 07 : ... .. A ... ... ... : ... .. 1 ... ... ... : ... .. . ... : ... .. 3 ... : ... .. . ... ... : --- .. . ... ... : --- .. . ... ... : ... .. . P81 ...
ROW 08 : ... .. . ... ... ... : ... .. . ... ... ... : ... .. . ... : ... .. 2 ... : ... .. . ... ... : ... .. . ... ... : ... .. . ... ... : ... .. . P80 ...
ROW 09 : ... .. . ... ... ... : ... .. 0 ... ... ... : --- .. . ... : ... .. 0 ... : ... .. . ... ... : ... .. . ... ... : ... .. . ... ... : ... .. . P7E ...
ROW 0A : ... .. 0 ... ... ... : A-5 00 8 P80 ... ... : C-4 00 . ... : ... .. F ... : ... .. . ... ... : A-4 01 9 ... ... : C-4 01 9 ... ... : --- .. . ... ...
ROW 0B : ... .. . ... ... ... : ... .. 6 ... ... ... : ... .. . ... : ... .. C ... : ... .. . ... ... : ... .. 8 ... ... : ... .. 8 ... ... : ... .. . ... ...
ROW 0C : ... .. . ... ... ... : ... .. 3 ... ... ... : ... .. . ... : ... .. 6 ... : ... .. . ... ... : ... .. . ... ... : ... .. . ... ... : ... .. . ... ...
ROW 0D : ... .. . ... ... ... : ... .. 1 ... ... ... : ... .. . ... : ... .. 3 ... : ... .. . ... ... : ... .. . ... ... : ... .. . ... ... : ... .. . ... ...
ROW 0E : ... .. . ... ... ... : ... .. . ... ... ... : ... .. . ... : ... .. 2 ... : ... .. . ... ... : ... .. 7 ... ... : ... .. 7 ... ... : ... .. . ... ...
ROW 0F : ... .. . ... ... ... : ... .. 0 ... ... ... : --- .. . ... : ... .. 0 ... : ... .. . ... ... : ... .. . ... ... : ... .. . ... ... : ... .. . ... ...
ROW 10 : G-3 00 F P81 ... ... : G-5 00 8 P80 ... ... : F#4 00 . ... : B-# 00 D ... : ... .. . ... ... : ... .. . ... ... : ... .. . ... ... : G-4 01 F P7F ...
ROW 11 : ... .. E ... ... ... : ... .. 6 ... ... ... : G#3 00 . ... : ... .. B ... : ... .. . ... ... : ... .. 6 ... ... : ... .. 6 ... ... : ... .. D P7E ...
ROW 12 : ... .. D ... ... ... : ... .. 3 ... ... ... : C#3 00 . ... : ... .. . ... : ... .. . ... ... : ... .. . ... ... : ... .. . ... ... : ... .. 8 P80 ...
ROW 13 : ... .. A ... ... ... : ... .. 1 ... ... ... : C-3 00 . ... : ... .. A ... : ... .. . ... ... : --- .. . ... ... : --- .. . ... ... : ... .. . ... ...
ROW 14 : ... .. . ... ... ... : ... .. . ... ... ... : G-2 00 . ... : ... .. 8 ... : ... .. . ... ... : ... .. . ... ... : ... .. . ... ... : ... .. . P82 ...
ROW 15 : ... .. . ... ... ... : ... .. 0 ... ... ... : ... .. . ... : ... .. 7 ... : ... .. . ... ... : ... .. . ... ... : ... .. . ... ... : ... .. . P81 ...
ROW 16 : F#3 00 F ... ... ... : A#5 00 8 P80 ... ... : ... .. . ... : ... .. 6 ... : ... .. . ... ... : ... .. . ... ... : ... .. . ... ... : F#4 01 F P80 ...
ROW 17 : ... .. E ... ... ... : ... .. 6 ... ... ... : ... .. . ... : ... .. . ... : ... .. . ... ... : ... .. . ... ... : ... .. . ... ... : ... .. D P7F ...
ROW 18 : ... .. D ... ... ... : ... .. 3 ... ... ... : ... .. . ... : ... .. 5 ... : ... .. . ... ... : ... .. . ... ... : ... .. . ... ... : ... .. 8 P7E ...
ROW 19 : ... .. 0 ... ... ... : ... .. 1 ... ... ... : ... .. . ... : ... .. . ... : ... .. . ... ... : ... .. . ... ... : ... .. . ... ... : --- .. . ... ...
ROW 1A : ... .. . ... ... ... : ... .. . ... ... ... : ... .. . ... : ... .. 4 ... : ... .. . ... ... : ... .. . ... ... : ... .. . ... ... : ... .. . ... ...
ROW 1B : ... .. . ... ... ... : ... .. 0 ... ... ... : --- .. . ... : ... .. . ... : ... .. . ... ... : ... .. . ... ... : ... .. . ... ... : ... .. . ... ...
ROW 1C : G-3 00 F P81 ... ... : G-5 00 8 P80 ... ... : A#3 00 . ... : ... .. D ... : ... .. . ... ... : G-4 01 9 ... ... : A#3 01 9 ... ... : G-4 01 F P82 ...
ROW 1D : ... .. E ... ... ... : ... .. 6 ... ... ... : ... .. . ... : ... .. B ... : ... .. . ... ... : ... .. 8 ... ... : ... .. 8 ... ... : ... .. D P80 ...
ROW 1E : ... .. D ... ... ... : ... .. 3 ... ... ... : ... .. . ... : ... .. . ... : ... .. . ... ... : ... .. . ... ... : ... .. . ... ... : ... .. 8 P7F ...
ROW 1F : ... .. 0 ... ... ... : ... .. 1 ... ... ... : ... .. . ... : ... .. A ... : ... .. . ... ... : --- .. . ... ... : --- .. . ... ... : --- .. . ... ...
ROW 20 : ... .. . ... ... ... : ... .. . ... ... ... : ... .. . ... : ... .. 8 ... : ... .. . ... ... : ... .. . ... ... : ... .. . ... ... : ... .. . ... ...
ROW 21 : ... .. . ... ... ... : ... .. 0 ... ... ... : --- .. . ... : ... .. 7 ... : ... .. . ... ... : ... .. . ... ... : ... .. . ... ... : ... .. . ... ...
ROW 22 : A-3 00 F P81 ... ... : A#5 00 8 P80 ... ... : A#3 00 . ... : ... .. 6 ... : ... .. . ... ... : G-4 01 9 ... ... : A#3 01 9 ... ... : A-4 01 F P82 ...
ROW 23 : ... .. E ... ... ... : ... .. 6 ... ... ... : ... .. . ... : ... .. . ... : ... .. . ... ... : ... .. 8 ... ... : ... .. 8 ... ... : ... .. D ... ...
ROW 24 : ... .. D ... ... ... : ... .. 3 ... ... ... : ... .. . ... : ... .. 5 ... : ... .. . ... ... : ... .. . ... ... : ... .. . ... ... : ... .. 8 P80 ...
ROW 25 : ... .. 0 ... ... ... : ... .. 1 ... ... ... : ... .. . ... : ... .. . ... : ... .. . ... ... : ... .. . ... ... : ... .. . ... ... : --- .. . ... ...
ROW 26 : ... .. . ... ... ... : ... .. . ... ... ... : ... .. . ... : ... .. 4 ... : ... .. . ... ... : ... .. 7 ... ... : ... .. 7 ... ... : ... .. . ... ...
ROW 27 : ... .. . ... ... ... : ... .. 0 ... ... ... : --- .. . ... : ... .. . ... : ... .. . ... ... : ... .. . ... ... : ... .. . ... ... : ... .. . ... ...
ROW 28 : A#3 00 F P81 ... ... : G-5 00 8 P80 ... ... : F#4 00 . ... : ... .. D ... : ... .. . ... ... : ... .. . ... ... : ... .. . ... ... : A#4 01 F ... ...
ROW 29 : ... .. E ... ... ... : ... .. 6 ... ... ... : G#3 00 . ... : ... .. B ... : ... .. . ... ... : ... .. 6 ... ... : ... .. 6 ... ... : ... .. D P82 ...
ROW 2A : ... .. D ... ... ... : ... .. 3 ... ... ... : C#3 00 . ... : ... .. . ... : ... .. . ... ... : ... .. . ... ... : ... .. . ... ... : ... .. 8 ... ...
ROW 2B : ... .. A ... ... ... : ... .. 1 ... ... ... : C-3 00 . ... : ... .. A ... : ... .. . ... ... : --- .. . ... ... : --- .. . ... ... : ... .. . P80 ...
ROW 2C : ... .. . ... ... ... : ... .. . ... ... ... : G-2 00 . ... : ... .. 8 ... : ... .. . ... ... : ... .. . ... ... : ... .. . ... ... : ... .. . P7F ...
ROW 2D : ... .. . ... ... ... : ... .. 0 ... ... ... : ... .. . ... : ... .. 7 ... : ... .. . ... ... : ... .. . ... ... : ... .. . ... ... : ... .. . P7E ...
ROW 2E : ... .. . ... ... ... : A#5 00 8 P80 ... ... : ... .. . ... : ... .. 6 ... : ... .. . ... ... : ... .. . ... ... : ... .. . ... ... : ... .. . P7F ...
ROW 2F : ... .. . ... ... ... : ... .. 6 ... ... ... : ... .. . ... : ... .. . ... : ... .. . ... ... : ... .. . ... ... : ... .. . ... ... : ... .. . P80 ...
ROW 30 : ... .. . ... ... ... : ... .. 3 ... ... ... : ... .. . ... : ... .. 5 ... : ... .. . ... ... : ... .. . ... ... : ... .. . ... ... : ... .. . P81 ...
ROW 31 : ... .. 0 ... ... ... : ... .. 1 ... ... ... : ... .. . ... : ... .. . ... : ... .. . ... ... : ... .. . ... ... : ... .. . ... ... : --- .. . ... ...
ROW 32 : ... .. . ... ... ... : ... .. . ... ... ... : ... .. . ... : ... .. 4 ... : ... .. . ... ... : ... .. . ... ... : ... .. . ... ... : ... .. . ... ...
ROW 33 : ... .. . ... ... ... : ... .. 0 ... ... ... : --- .. . ... : ... .. . ... : ... .. . ... ... : ... .. . ... ... : ... .. . ... ... : ... .. . ... ...
ROW 34 : G-3 00 F P81 ... ... : G-5 00 8 P80 ... ... : A#3 00 . ... : D-# 00 F ... : ... .. . ... ... : G-4 01 9 ... ... : A#3 01 9 ... ... : G-4 01 F P7E ...
ROW 35 : ... .. E ... ... ... : ... .. 6 ... ... ... : ... .. . ... : ... .. C ... : ... .. . ... ... : ... .. 8 ... ... : ... .. 8 ... ... : ... .. D P7F ...
ROW 36 : ... .. D ... ... ... : ... .. 3 ... ... ... : ... .. . ... : ... .. 6 ... : ... .. . ... ... : ... .. . ... ... : ... .. . ... ... : ... .. 8 P80 ...
ROW 37 : ... .. A ... ... ... : ... .. 1 ... ... ... : ... .. . ... : ... .. 3 ... : ... .. . ... ... : --- .. . ... ... : --- .. . ... ... : ... .. . P81 ...
ROW 38 : ... .. . ... ... ... : ... .. . ... ... ... : ... .. . ... : ... .. 2 ... : ... .. . ... ... : ... .. . ... ... : ... .. . ... ... : ... .. . P82 ...
ROW 39 : ... .. . ... ... ... : ... .. 0 ... ... ... : --- .. . ... : ... .. 0 ... : ... .. . ... ... : ... .. . ... ... : ... .. . ... ... : ... .. . P81 ...
ROW 3A : ... .. . ... ... ... : A#5 00 8 P80 ... ... : A#3 00 . ... : ... .. F ... : ... .. . ... ... : G-4 01 9 ... ... : A#3 01 9 ... ... : ... .. . P80 ...
ROW 3B : ... .. . ... ... ... : ... .. 6 ... ... ... : ... .. . ... : ... .. C ... : ... .. . ... ... : ... .. 8 ... ... : ... .. 8 ... ... : ... .. . P7E ...
ROW 3C : ... .. . ... ... ... : ... .. 3 ... ... ... : ... .. . ... : ... .. 6 ... : ... .. . ... ... : ... .. . ... ... : ... .. . ... ... : ... .. . ... ...
ROW 3D : ... .. 0 ... ... ... : ... .. 1 ... ... ... : ... .. . ... : ... .. 3 ... : ... .. . ... ... : ... .. . ... ... : ... .. . ... ... : --- .. . ... ...
ROW 3E : ... .. . ... ... ... : ... .. . ... ... ... : ... .. . ... : ... .. 2 ... : ... .. . ... ... : ... .. 7 ... ... : ... .. 7 ... ... : ... .. . ... ...
ROW 3F : ... .. . ... ... ... : ... .. 0 ... ... ... : --- .. . ... : ... .. 0 ... : ... .. . ... ... : ... .. . ... ... : ... .. . ... ... : ... .. . ... ...
ROW 40 : D-3 00 F P81 ... ... : F#5 00 8 P80 ... ... : C#4 00 . ... : B-# 00 D ... : ... .. . ... ... : ... .. . ... ... : ... .. . ... ... : D-4 01 F P81 ...
ROW 41 : ... .. E ... ... ... : ... .. 6 ... ... ... : D#3 00 . ... : ... .. B ... : ... .. . ... ... : ... .. 6 ... ... : ... .. 6 ... ... : ... .. D P80 ...
ROW 42 : ... .. D ... ... ... : ... .. 3 ... ... ... : G#2 00 . ... : ... .. . ... : ... .. . ... ... : ... .. . ... ... : ... .. . ... ... : ... .. 8 P7E ...
ROW 43 : ... .. A ... ... ... : ... .. 1 ... ... ... : G-2 00 . ... : ... .. A ... : ... .. . ... ... : --- .. . ... ... : --- .. . ... ... : ... .. . ... ...
ROW 44 : ... .. . ... ... ... : ... .. . ... ... ... : D-2 00 . ... : ... .. 8 ... : ... .. . ... ... : ... .. . ... ... : ... .. . ... ... : ... .. . P80 ...
ROW 45 : ... .. . ... ... ... : ... .. 0 ... ... ... : ... .. . ... : ... .. 7 ... : ... .. . ... ... : ... .. . ... ... : ... .. . ... ... : ... .. . P81 ...
ROW 46 : ... .. . ... ... ... : A-5 00 8 P80 ... ... : ... .. . ... : ... .. 6 ... : ... .. . ... ... : ... .. . ... ... : ... .. . ... ... : ... .. . P82 ...
ROW 47 : ... .. . ... ... ... : ... .. 6 ... ... ... : ... .. . ... : ... .. . ... : ... .. . ... ... : ... .. . ... ... : ... .. . ... ... : ... .. . P81 ...
ROW 48 : ... .. . ... ... ... : ... .. 3 ... ... ... : ... .. . ... : ... .. 5 ... : ... .. . ... ... : ... .. . ... ... : ... .. . ... ... : ... .. . P80 ...
ROW 49 : ... .. . ... ... ... : ... .. 1 ... ... ... : ... .. . ... : ... .. . ... : ... .. . ... ... : ... .. . ... ... : ... .. . ... ... : ... .. . P7E ...
ROW 4A : ... .. . ... ... ... : ... .. . ... ... ... : ... .. . ... : ... .. 4 ... : ... .. . ... ... : ... .. . ... ... : ... .. . ... ... : ... .. . ... ...
ROW 4B : ... .. . ... ... ... : ... .. 0 ... ... ... : --- .. . ... : ... .. . ... : ... .. . ... ... : ... .. . ... ... : ... .. . ... ... : ... .. . P80 ...
ROW 4C : ... .. . ... ... ... : F#5 00 8 P80 ... ... : C-4 00 . ... : D-# 00 F ... : ... .. . ... ... : F#4 01 9 ... ... : C-4 01 9 ... ... : ... .. . P81 ...
ROW 4D : ... .. . ... ... ... : ... .. 6 ... ... ... : ... .. . ... : ... .. C ... : ... .. . ... ... : ... .. 8 ... ... : ... .. 8 ... ... : ... .. . P82 ...
ROW 4E : ... .. . ... ... ... : ... .. 3 ... ... ... : ... .. . ... : ... .. 6 ... : ... .. . ... ... : ... .. . ... ... : ... .. . ... ... : ... .. . P81 ...
ROW 4F : ... .. 0 ... ... ... : ... .. 1 ... ... ... : ... .. . ... : ... .. 3 ... : ... .. . ... ... : --- .. . ... ... : --- .. . ... ... : --- .. . ... ...
ROW 50 : ... .. . ... ... ... : ... .. . ... ... ... : ... .. . ... : ... .. 2 ... : ... .. . ... ... : ... .. . ... ... : ... .. . ... ... : ... .. . ... ...
ROW 51 : ... .. . ... ... ... : ... .. 0 ... ... ... : --- .. . ... : ... .. 0 ... : ... .. . ... ... : ... .. . ... ... : ... .. . ... ... : ... .. . ... ...
ROW 52 : E-3 00 F P81 ... ... : A-5 00 8 P80 ... ... : C-4 00 . ... : ... .. F ... : ... .. . ... ... : F#4 01 9 ... ... : C-4 01 9 ... ... : E-4 01 F P80 ...
ROW 53 : ... .. E ... ... ... : ... .. 6 ... ... ... : ... .. . ... : ... .. C ... : ... .. . ... ... : ... .. 8 ... ... : ... .. 8 ... ... : ... .. D ... ...
ROW 54 : ... .. D ... ... ... : ... .. 3 ... ... ... : ... .. . ... : ... .. 6 ... : ... .. . ... ... : ... .. . ... ... : ... .. . ... ... : ... .. 8 P82 ...
ROW 55 : ... .. 0 ... ... ... : ... .. 1 ... ... ... : ... .. . ... : ... .. 3 ... : ... .. . ... ... : ... .. . ... ... : ... .. . ... ... : --- .. . ... ...
ROW 56 : ... .. . ... ... ... : ... .. . ... ... ... : ... .. . ... : ... .. 2 ... : ... .. . ... ... : ... .. 7 ... ... : ... .. 7 ... ... : ... .. . ... ...
ROW 57 : ... .. . ... ... ... : ... .. 0 ... ... ... : --- .. . ... : ... .. 0 ... : ... .. . ... ... : ... .. . ... ... : ... .. . ... ... : ... .. . ... ...
ROW 58 : F#3 00 F P81 ... ... : F#5 00 8 P80 ... ... : C#4 00 . ... : B-# 00 D ... : ... .. . ... ... : ... .. . ... ... : ... .. . ... ... : F#4 01 F P7E ...
ROW 59 : ... .. E ... ... ... : ... .. 6 ... ... ... : D#3 00 . ... : ... .. B ... : ... .. . ... ... : ... .. 6 ... ... : ... .. 6 ... ... : ... .. D P7F ...
ROW 5A : ... .. D ... ... ... : ... .. 3 ... ... ... : G#2 00 . ... : ... .. . ... : ... .. . ... ... : ... .. . ... ... : ... .. . ... ... : ... .. 8 P80 ...
ROW 5B : ... .. A ... ... ... : ... .. 1 ... ... ... : G-2 00 . ... : ... .. A ... : ... .. . ... ... : --- .. . ... ... : --- .. . ... ... : ... .. . P82 ...
ROW 5C : ... .. . ... ... ... : ... .. . ... ... ... : D-2 00 . ... : ... .. 8 ... : ... .. . ... ... : ... .. . ... ... : ... .. . ... ... : ... .. . ... ...
ROW 5D : ... .. . ... ... ... : ... .. 0 ... ... ... : ... .. . ... : ... .. 7 ... : ... .. . ... ... : ... .. . ... ... : ... .. . ... ... : ... .. . P80 ...
ROW 5E : ... .. . ... ... ... : A-5 00 8 P80 ... ... : ... .. . ... : ... .. 6 ... : ... .. . ... ... : ... .. . ... ... : ... .. . ... ... : ... .. . P7F ...
ROW 5F : ... .. . ... ... ... : ... .. 6 ... ... ... : ... .. . ... : ... .. . ... : ... .. . ... ... : ... .. . ... ... : ... .. . ... ... : ... .. . P7E ...
ROW 60 : ... .. . ... ... ... : ... .. 3 ... ... ... : ... .. . ... : ... .. 5 ... : ... .. . ... ... : ... .. . ... ... : ... .. . ... ... : ... .. . P7F ...
ROW 61 : ... .. . ... ... ... : ... .. 1 ... ... ... : ... .. . ... : ... .. . ... : ... .. . ... ... : ... .. . ... ... : ... .. . ... ... : ... .. . P80 ...
ROW 62 : ... .. . ... ... ... : ... .. . ... ... ... : ... .. . ... : ... .. 4 ... : ... .. . ... ... : ... .. . ... ... : ... .. . ... ... : ... .. . P82 ...
ROW 63 : ... .. . ... ... ... : ... .. 0 ... ... ... : --- .. . ... : ... .. . ... : ... .. . ... ... : ... .. . ... ... : ... .. . ... ... : ... .. . ... ...
ROW 64 : A-3 00 F ... ... ... : F#5 00 8 P80 ... ... : C-4 00 . ... : D-# 00 F ... : ... .. . ... ... : F#4 01 9 ... ... : C-4 01 9 ... ... : A-4 01 F P80 ...
ROW 65 : ... .. E ... ... ... : ... .. 6 ... ... ... : ... .. . ... : ... .. C ... : ... .. . ... ... : ... .. 8 ... ... : ... .. 8 ... ... : ... .. D P7F ...
ROW 66 : ... .. D ... ... ... : ... .. 3 ... ... ... : ... .. . ... : ... .. 6 ... : ... .. . ... ... : ... .. . ... ... : ... .. . ... ... : ... .. 8 P7E ...
ROW 67 : ... .. A ... ... ... : ... .. 1 ... ... ... : ... .. . ... : ... .. 3 ... : ... .. . ... ... : --- .. . ... ... : --- .. . ... ... : ... .. . P7F ...
ROW 68 : ... .. . ... ... ... : ... .. . ... ... ... : ... .. . ... : ... .. 2 ... : ... .. . ... ... : ... .. . ... ... : ... .. . ... ... : ... .. . P80 ...
ROW 69 : ... .. . ... ... ... : ... .. 0 ... ... ... : --- .. . ... : ... .. 0 ... : ... .. . ... ... : ... .. . ... ... : ... .. . ... ... : ... .. . P82 ...
ROW 6A : ... .. . ... ... ... : A-5 00 8 P80 ... ... : C-4 00 . ... : ... .. F ... : ... .. . ... ... : F#4 01 9 ... ... : C-4 01 9 ... ... : ... .. . ... ...
ROW 6B : ... .. . ... ... ... : ... .. 6 ... ... ... : ... .. . ... : ... .. C ... : ... .. . ... ... : ... .. 8 ... ... : ... .. 8 ... ... : ... .. . P80 ...
ROW 6C : ... .. . ... ... ... : ... .. 3 ... ... ... : ... .. . ... : ... .. 6 ... : ... .. . ... ... : ... .. . ... ... : ... .. . ... ... : ... .. . P7F ...
ROW 6D : ... .. 0 ... ... ... : ... .. 1 ... ... ... : ... .. . ... : ... .. 3 ... : ... .. . ... ... : --- .. . ... ... : ... .. . ... ... : --- .. . ... ...
ROW 6E : ... .. . ... ... ... : ... .. . ... ... ... : ... .. . ... : ... .. 2 ... : ... .. . ... ... : ... .. . ... ... : ... .. 7 ... ... : ... .. . ... ...
ROW 6F : ... .. . ... ... ... : ... .. 0 ... ... ... : --- .. . ... : ... .. 0 ... : ... .. . ... ... : ... .. . ... ... : ... .. . ... ... : ... .. . ... ...
ROW 70 : A#3 00 F P81 ... ... : G-5 00 8 P80 ... ... : F#5 00 . ... : B-# 00 D ... : ... .. . ... ... : F#4 01 9 ... ... : A#3 01 9 ... ... : A#4 01 F P81 ...
ROW 71 : ... .. E ... ... ... : ... .. 6 ... ... ... : G#4 00 . ... : ... .. B ... : ... .. . ... ... : ... .. 8 ... ... : ... .. 8 ... ... : ... .. D P82 ...
ROW 72 : ... .. D ... ... ... : ... .. 3 ... ... ... : C#4 00 . ... : ... .. . ... : ... .. . ... ... : ... .. . ... ... : ... .. . ... ... : ... .. 8 P80 ...
ROW 73 : ... .. A ... ... ... : ... .. 1 ... ... ... : C-4 00 . ... : ... .. A ... : ... .. . ... ... : ... .. . ... ... : ... .. . ... ... : ... .. . ... ...
ROW 74 : ... .. . ... ... ... : ... .. . ... ... ... : G-3 00 . ... : ... .. 8 ... : ... .. . ... ... : ... .. 7 ... ... : ... .. 7 ... ... : ... .. . P7E ...
ROW 75 : ... .. . ... ... ... : ... .. 0 ... ... ... : ... .. . ... : ... .. 7 ... : ... .. . ... ... : ... .. . ... ... : ... .. . ... ... : ... .. . P7F ...
ROW 76 : ... .. . ... ... ... : A#5 00 8 P80 ... ... : ... .. . ... : ... .. 6 ... : ... .. . ... ... : ... .. . ... ... : ... .. . ... ... : ... .. . P80 ...
ROW 77 : ... .. . ... ... ... : ... .. 6 ... ... ... : ... .. . ... : ... .. . ... : ... .. . ... ... : ... .. 6 ... ... : ... .. 6 ... ... : ... .. . P81 ...
ROW 78 : ... .. . ... ... ... : ... .. 3 ... ... ... : ... .. . ... : ... .. 5 ... : ... .. . ... ... : ... .. . ... ... : ... .. . ... ... : ... .. . P82 ...
ROW 79 : ... .. . ... ... ... : ... .. 1 ... ... ... : ... .. . ... : ... .. . ... : ... .. . ... ... : ... .. . ... ... : ... .. . ... ... : ... .. . P81 ...
ROW 7A : ... .. . ... ... ... : ... .. . ... ... ... : ... .. . ... : ... .. 4 ... : ... .. . ... ... : ... .. . ... ... : ... .. . ... ... : ... .. . P80 ...
ROW 7B : ... .. . ... ... ... : ... .. 0 ... ... ... : ... .. . ... : ... .. . ... : ... .. . ... ... : ... .. . ... ... : ... .. . ... ... : ... .. . P7E ...
ROW 7C : A-3 00 F ... ... ... : F#5 00 8 P80 ... ... : F-5 00 . ... : ... .. D ... : ... .. . ... ... : F-4 01 9 ... ... : A-3 01 9 ... ... : A-4 01 F ... ...
ROW 7D : ... .. E ... ... ... : ... .. 6 ... ... ... : G-4 00 . ... : ... .. B ... : ... .. . ... ... : ... .. 8 ... ... : ... .. 8 ... ... : ... .. D P80 ...
ROW 7E : ... .. D ... ... ... : ... .. 3 ... ... ... : C-4 00 . ... : ... .. . ... : ... .. . ... ... : ... .. . ... ... : ... .. . ... ... : ... .. 8 P81 ...
ROW 7F : ... .. A ... ... ... : ... .. 1 ... ... ... : B-3 00 . ... : ... .. A ... : ... .. . ... ... : ... .. . ... ... : ... .. . ... ... : ... .. . P82 ...
ROW 80 : ... .. . ... ... ... : ... .. . ... ... ... : F#3 00 . ... : ... .. 8 ... : ... .. . ... ... : ... .. 7 ... ... : ... .. 7 ... ... : ... .. . P81 ...
ROW 81 : ... .. . ... ... ... : ... .. 0 ... ... ... : ... .. . ... : ... .. 7 ... : ... .. . ... ... : ... .. . ... ... : ... .. . ... ... : ... .. . P80 ...
ROW 82 : ... .. . ... ... ... : A-5 00 8 P80 ... ... : ... .. . ... : ... .. 6 ... : ... .. . ... ... : ... .. . ... ... : ... .. . ... ... : ... .. . P7E ...
ROW 83 : ... .. . ... ... ... : ... .. 6 ... ... ... : ... .. . ... : ... .. . ... : ... .. . ... ... : ... .. 6 ... ... : ... .. 6 ... ... : ... .. . ... ...
ROW 84 : ... .. . ... ... ... : ... .. 3 ... ... ... : ... .. . ... : ... .. 5 ... : ... .. . ... ... : ... .. . ... ... : ... .. . ... ... : ... .. . P80 ...
ROW 85 : ... .. . ... ... ... : ... .. 1 ... ... ... : ... .. . ... : ... .. . ... : ... .. . ... ... : ... .. . ... ... : ... .. . ... ... : ... .. . P81 ...
ROW 86 : ... .. . ... ... ... : ... .. . ... ... ... : ... .. . ... : ... .. 4 ... : ... .. . ... ... : ... .. . ... ... : ... .. . ... ... : ... .. . P82 ...
ROW 87 : ... .. . ... ... ... : ... .. 0 ... ... ... : ... .. . ... : ... .. . ... : ... .. . ... ... : ... .. . ... ... : ... .. . ... ... : ... .. . P81 ...
ROW 88 : G#3 00 F ... ... ... : F-5 00 8 P80 ... ... : E-5 00 . ... : ... .. D ... : ... .. . ... ... : E-4 01 9 ... ... : G#3 01 9 ... ... : G#4 01 F P80 ...
ROW 89 : ... .. E ... ... ... : ... .. 6 ... ... ... : F#4 00 . ... : ... .. B ... : ... .. . ... ... : ... .. 8 ... ... : ... .. 8 ... ... : ... .. D P7E ...
ROW 8A : ... .. D ... ... ... : ... .. 3 ... ... ... : B-3 00 . ... : ... .. . ... : ... .. . ... ... : ... .. . ... ... : ... .. . ... ... : ... .. 8 ... ...
ROW 8B : ... .. A ... ... ... : ... .. 1 ... ... ... : A#3 00 . ... : ... .. A ... : ... .. . ... ... : ... .. . ... ... : ... .. . ... ... : ... .. . P80 ...
ROW 8C : ... .. . ... ... ... : ... .. . ... ... ... : F-3 00 . ... : ... .. 8 ... : ... .. . ... ... : ... .. 7 ... ... : ... .. 7 ... ... : ... .. . P81 ...
ROW 8D : ... .. . ... ... ... : ... .. 0 ... ... ... : ... .. . ... : ... .. 7 ... : ... .. . ... ... : ... .. . ... ... : ... .. . ... ... : ... .. . P82 ...
ROW 8E : ... .. . ... ... ... : G#5 00 8 P80 ... ... : ... .. . ... : ... .. 6 ... : ... .. . ... ... : ... .. . ... ... : ... .. . ... ... : ... .. . P81 ...
ROW 8F : ... .. . ... ... ... : ... .. 6 ... ... ... : ... .. . ... : ... .. . ... : ... .. . ... ... : ... .. 6 ... ... : ... .. 6 ... ... : ... .. . P80 ...
ROW 90 : ... .. . ... ... ... : ... .. 3 ... ... ... : ... .. . ... : ... .. 5 ... : ... .. . ... ... : ... .. . ... ... : ... .. . ... ... : ... .. . P7F ...
ROW 91 : ... .. . ... ... ... : ... .. 1 ... ... ... : ... .. . ... : ... .. . ... : ... .. . ... ... : ... .. . ... ... : ... .. . ... ... : ... .. . P7E ...
ROW 92 : ... .. . ... ... ... : ... .. . ... ... ... : ... .. . ... : ... .. 4 ... : ... .. . ... ... : ... .. . ... ... : ... .. . ... ... : ... .. . P80 ...
ROW 93 : ... .. . ... ... ... : ... .. 0 ... ... ... : ... .. . ... : ... .. . ... : ... .. . ... ... : ... .. . ... ... : ... .. . ... ... : ... .. . ... ...
ROW 94 : G-3 00 F ... ... ... : E-5 00 8 P80 ... ... : D#5 00 . ... : D-# 00 F ... : ... .. . ... ... : D#4 01 9 ... ... : G-3 01 9 ... ... : G-4 01 F P82 ...
ROW 95 : ... .. E ... ... ... : ... .. 6 ... ... ... : F-4 00 . ... : ... .. C ... : ... .. . ... ... : ... .. 8 ... ... : ... .. 8 ... ... : ... .. D P81 ...
ROW 96 : ... .. D ... ... ... : ... .. 3 ... ... ... : A#3 00 . ... : ... .. 6 ... : ... .. . ... ... : ... .. . ... ... : ... .. . ... ... : ... .. 8 P80 ...
ROW 97 : ... .. A ... ... ... : ... .. 1 ... ... ... : A-3 00 . ... : ... .. 3 ... : ... .. . ... ... : ... .. . ... ... : ... .. . ... ... : ... .. . P7F ...
ROW 98 : ... .. . ... ... ... : ... .. . ... ... ... : E-3 00 . ... : ... .. 2 ... : ... .. . ... ... : ... .. 7 ... ... : ... .. 7 ... ... : ... .. . P7E ...
ROW 99 : ... .. . ... ... ... : ... .. 0 ... ... ... : ... .. . ... : ... .. 0 ... : ... .. . ... ... : ... .. . ... ... : ... .. . ... ... : ... .. . P7F ...
ROW 9A : ... .. . ... ... ... : G-5 00 8 P80 ... ... : ... .. . ... : ... .. F ... : ... .. . ... ... : ... .. . ... ... : ... .. . ... ... : ... .. . P80 ...
ROW 9B : ... .. . ... ... ... : ... .. 6 ... ... ... : ... .. . ... : ... .. C ... : ... .. . ... ... : ... .. 6 ... ... : ... .. 6 ... ... : ... .. . P82 ...
ROW 9C : ... .. . ... ... ... : ... .. 3 ... ... ... : ... .. . ... : ... .. 6 ... : ... .. . ... ... : ... .. . ... ... : ... .. . ... ... : ... .. . ... ...
ROW 9D : ... .. . ... ... ... : ... .. 1 ... ... ... : ... .. . ... : ... .. 3 ... : ... .. . ... ... : ... .. . ... ... : ... .. . ... ... : ... .. . P80 ...
ROW 9E : ... .. . ... ... ... : ... .. . ... ... ... : ... .. . ... : ... .. 2 ... : ... .. . ... ... : ... .. . ... ... : ... .. . ... ... : ... .. . P7F ...
ROW 9F : ... .. . ... ... ... : ... .. 0 ... ... ... : ... .. . ... : ... .. 0 ... : ... .. . ... ... : ... .. . ... ... : ... .. . ... ... : ... .. . P7E ...
ROW A0 : F#3 00 F ... ... ... : D-5 00 8 P80 ... ... : D-5 00 . ... : B-# 00 D ... : ... .. . ... ... : D-4 01 9 ... ... : F#3 01 9 ... ... : F#4 01 F P7F ...
ROW A1 : ... .. E ... ... ... : ... .. 6 ... ... ... : E-4 00 . ... : ... .. B ... : ... .. . ... ... : ... .. 8 ... ... : ... .. 8 ... ... : ... .. D P80 ...
ROW A2 : ... .. D ... ... ... : ... .. 3 ... ... ... : A-3 00 . ... : ... .. . ... : ... .. . ... ... : ... .. . ... ... : ... .. . ... ... : ... .. 8 P82 ...
ROW A3 : ... .. A ... ... ... : ... .. 1 ... ... ... : G#3 00 . ... : ... .. A ... : ... .. . ... ... : ... .. 7 ... ... : ... .. 7 ... ... : ... .. . ... ...
ROW A4 : ... .. . ... ... ... : ... .. . ... ... ... : D#3 00 . ... : ... .. 8 ... : ... .. . ... ... : ... .. 6 ... ... : ... .. 6 ... ... : ... .. . P80 ...
ROW A5 : ... .. . ... ... ... : ... .. 0 ... ... ... : ... .. . ... : ... .. 7 ... : ... .. . ... ... : ... .. . ... ... : ... .. . ... ... : ... .. . P7F ...
ROW A6 : ... .. . ... ... ... : C-5 00 8 P80 ... ... : ... .. . ... : ... .. 6 ... : ... .. . ... ... : A#3 01 8 ... ... : G#3 01 8 ... ... : ... .. . P7E ...
ROW A7 : ... .. . ... ... ... : ... .. 6 ... ... ... : ... .. . ... : ... .. . ... : ... .. . ... ... : ... .. 7 ... ... : ... .. 7 ... ... : ... .. . P7F ...
ROW A8 : ... .. . ... ... ... : ... .. 3 ... ... ... : ... .. . ... : ... .. 5 ... : ... .. . ... ... : ... .. . ... ... : ... .. . ... ... : ... .. . P80 ...
ROW A9 : ... .. . ... ... ... : ... .. 1 ... ... ... : ... .. . ... : ... .. . ... : ... .. . ... ... : --- .. . ... ... : --- .. . P82 ... : ... .. . P82 ...
ROW AA : ... .. . ... ... ... : ... .. . ... ... ... : ... .. . ... : ... .. 4 ... : ... .. . ... ... : ... .. . ... ... : ... .. . ... ... : ... .. . ... ...
ROW AB : ... .. . ... ... ... : ... .. 0 ... ... ... : ... .. . ... : ... .. . ... : ... .. . ... ... : ... .. . ... ... : ... .. . ... ... : ... .. . P80 ...
ROW AC : ... .. . ... ... ... : G#4 00 8 P80 ... ... : ... .. . ... : D-# 00 F ... : ... .. . ... ... : C-4 01 8 ... ... : F#3 01 8 P80 ... : ... .. . P7F ...
ROW AD : ... .. . ... ... ... : ... .. 6 ... ... ... : ... .. . ... : ... .. C ... : ... .. . ... ... : ... .. 7 ... ... : ... .. 7 ... ... : ... .. . P7E ...
ROW AE : ... .. . ... ... ... : ... .. 3 ... ... ... : ... .. . ... : ... .. 6 ... : ... .. . ... ... : ... .. . ... ... : ... .. . ... ... : ... .. . P7F ...
ROW AF : ... .. 0 ... ... ... : ... .. 1 ... ... ... : ... .. . ... : ... .. 3 ... : ... .. . ... ... : --- .. . ... ... : --- .. . P7F ... : --- .. . ... ...
ROW B0 : ... .. . ... ... ... : ... .. . ... ... ... : ... .. . ... : ... .. 2 ... : ... .. . ... ... : ... .. . ... ... : ... .. . ... ... : ... .. . ... ...
ROW B1 : ... .. . ... ... ... : ... .. 0 ... ... ... : ... .. . ... : ... .. 0 ... : ... .. . ... ... : ... .. . ... ... : ... .. . ... ... : ... .. . ... ...
ROW B2 : F-3 00 F P81 ... ... : F#4 00 8 P80 ... ... : ... .. . ... : ... .. F ... : ... .. . ... ... : D-4 01 7 ... ... : G#3 01 7 P80 ... : F-4 01 F P80 ...
ROW B3 : ... .. E ... ... ... : ... .. 6 ... ... ... : ... .. . ... : ... .. C ... : ... .. . ... ... : ... .. 6 ... ... : ... .. 6 ... ... : ... .. D ... ...
ROW B4 : ... .. D ... ... ... : ... .. 3 ... ... ... : ... .. . ... : ... .. 6 ... : ... .. . ... ... : ... .. . ... ... : ... .. . ... ... : ... .. 8 P7E ...
ROW B5 : ... .. 0 ... ... ... : ... .. 1 ... ... ... : ... .. . ... : ... .. 3 ... : ... .. . ... ... : --- .. . ... ... : --- .. . P82 ... : --- .. . ... ...
ROW B6 : ... .. . ... ... ... : ... .. . ... ... ... : ... .. . ... : ... .. 2 ... : ... .. . ... ... : ... .. . ... ... : ... .. . ... ... : ... .. . ... ...
ROW B7 : ... .. . ... ... ... : ... .. 0 ... ... ... : ... .. . ... : ... .. 0 ... : ... .. . ... ... : ... .. . ... ... : ... .. . ... ... : ... .. . ... ...
ROW B8 : F#3 00 F P81 ... ... : D-4 00 8 P80 ... ... : C#5 00 . ... : B-# 00 D ... : ... .. . ... ... : E-4 01 7 ... ... : A#3 01 7 P80 ... : F#4 01 F P82 ...
ROW B9 : ... .. E ... ... ... : ... .. 6 ... ... ... : D#4 00 . ... : ... .. B ... : ... .. . ... ... : ... .. 6 ... ... : ... .. 6 ... ... : ... .. D P81 ...
ROW BA : ... .. D ... ... ... : ... .. 3 ... ... ... : G#3 00 . ... : ... .. . ... : ... .. . ... ... : ... .. . ... ... : ... .. . ... ... : ... .. 8 P80 ...
ROW BB : ... .. A ... ... ... : ... .. 1 ... ... ... : G-3 00 . ... : ... .. A ... : ... .. . ... ... : ... .. . ... ... : ... .. . ... ... : ... .. . P7E ...
ROW BC : ... .. . ... ... ... : ... .. . ... ... ... : D-3 00 . ... : ... .. 8 ... : ... .. . ... ... : ... .. . ... ... : ... .. . ... ... : ... .. . ... ...
ROW BD : ... .. . ... ... ... : ... .. 0 ... ... ... : ... .. . ... : ... .. 7 ... : ... .. . ... ... : ... .. . ... ... : ... .. . ... ... : ... .. . P80 ...
ROW BE : ... .. . ... ... ... : C-4 00 8 P80 ... ... : ... .. . ... : ... .. 6 ... : ... .. . ... ... : A#3 01 7 ... ... : C-4 01 7 ... ... : ... .. . P81 ...
ROW BF : ... .. . ... ... ... : ... .. 6 ... ... ... : ... .. . ... : ... .. . ... : ... .. . ... ... : ... .. 6 ... ... : ... .. 6 ... ... : ... .. . P82 ...
ROW C0 : ... .. . ... ... ... : ... .. 3 ... ... ... : ... .. . ... : ... .. 5 ... : ... .. . ... ... : ... .. . ... ... : ... .. . ... ... : ... .. . P81 ...
ROW C1 : ... .. 0 ... ... ... : ... .. 1 ... ... ... : ... .. . ... : ... .. . ... : ... .. . ... ... : --- .. . ... ... : --- .. . ... ... : --- .. . ... ...
ROW C2 : ... .. . ... ... ... : ... .. . ... ... ... : ... .. . ... : ... .. 4 ... : ... .. . ... ... : ... .. . ... ... : ... .. . ... ... : ... .. . ... ...
ROW C3 : ... .. . ... ... ... : ... .. 0 ... ... ... : ... .. . ... : ... .. . ... : ... .. . ... ... : ... .. . ... ... : ... .. . ... ... : ... .. . ... ...
ROW C4 : A#3 00 F P81 ... ... : D-4 00 8 P80 ... ... : ... .. . ... : D-# 00 F ... : ... .. . ... ... : C-4 01 7 ... ... : D-4 01 7 ... ... : A#4 01 F P80 ...
ROW C5 : ... .. E ... ... ... : ... .. 6 ... ... ... : ... .. . ... : ... .. C ... : ... .. . ... ... : ... .. 6 ... ... : ... .. 6 ... ... : ... .. D P81 ...
ROW C6 : ... .. D ... ... ... : ... .. 3 ... ... ... : ... .. . ... : ... .. 6 ... : ... .. . ... ... : ... .. . ... ... : ... .. . ... ... : ... .. 8 P82 ...
ROW C7 : ... .. A ... ... ... : ... .. 1 ... ... ... : ... .. . ... : ... .. 3 ... : ... .. . ... ... : --- .. . ... ... : --- .. . ... ... : ... .. . P81 ...
ROW C8 : ... .. . ... ... ... : ... .. . ... ... ... : ... .. . ... : ... .. 2 ... : ... .. . ... ... : ... .. . ... ... : ... .. . ... ... : ... .. . P80 ...
ROW C9 : ... .. . ... ... ... : ... .. 0 ... ... ... : ... .. . ... : ... .. 0 ... : ... .. . ... ... : ... .. . ... ... : ... .. . ... ... : ... .. . P7E ...
ROW CA : ... .. . ... ... ... : F#4 00 8 P80 ... ... : ... .. . ... : ... .. F ... : ... .. . ... ... : D-4 01 6 ... ... : C-4 01 6 ... ... : ... .. . ... ...
ROW CB : ... .. . ... ... ... : ... .. 6 ... ... ... : ... .. . ... : ... .. C ... : ... .. . ... ... : ... .. 5 ... ... : ... .. 5 ... ... : ... .. . P80 ...
ROW CC : ... .. . ... ... ... : ... .. 3 ... ... ... : ... .. . ... : ... .. 6 ... : ... .. . ... ... : ... .. . ... ... : ... .. . ... ... : ... .. . P81 ...
ROW CD : ... .. . ... ... ... : ... .. 1 ... ... ... : ... .. . ... : ... .. 3 ... : ... .. . ... ... : --- .. . ... ... : --- .. . ... ... : ... .. . P82 ...
ROW CE : ... .. . ... ... ... : ... .. . ... ... ... : ... .. . ... : ... .. 2 ... : ... .. . ... ... : ... .. . ... ... : ... .. . ... ... : ... .. . P81 ...
ROW CF : ... .. . ... ... ... : ... .. 0 ... ... ... : ... .. . ... : ... .. 0 ... : ... .. . ... ... : ... .. . ... ... : ... .. . ... ... : ... .. . P80 ...
ROW D0 : C-4 00 F ... ... ... : G#4 00 8 P80 ... ... : C-5 00 . ... : B-# 00 D ... : ... .. . ... ... : E-4 01 6 ... ... : D-4 01 6 ... ... : C-5 01 F P7F ...
ROW D1 : ... .. E ... ... ... : ... .. 6 ... ... ... : D-4 00 . ... : ... .. B ... : ... .. . ... ... : ... .. 5 ... ... : ... .. 5 ... ... : ... .. D P7E ...
ROW D2 : ... .. D ... ... ... : ... .. 3 ... ... ... : G-3 00 . ... : ... .. . ... : ... .. . ... ... : ... .. . ... ... : ... .. . ... ... : ... .. 8 P80 ...
ROW D3 : ... .. A ... ... ... : ... .. 1 ... ... ... : F#3 00 . ... : ... .. A ... : ... .. . ... ... : ... .. . ... ... : ... .. . ... ... : ... .. . ... ...
ROW D4 : ... .. . ... ... ... : ... .. . ... ... ... : C#3 00 . ... : ... .. 8 ... : ... .. . ... ... : ... .. . ... ... : ... .. . ... ... : ... .. . P82 ...
ROW D5 : ... .. . ... ... ... : ... .. 0 ... ... ... : ... .. . ... : ... .. 7 ... : ... .. . ... ... : ... .. . ... ... : ... .. . ... ... : ... .. . P81 ...
ROW D6 : A#3 00 F ... ... ... : E-4 00 8 P80 ... ... : ... .. . ... : ... .. 6 ... : ... .. . ... ... : C-4 01 6 ... ... : E-4 01 6 ... ... : A#4 01 F P80 ...
ROW D7 : ... .. E ... ... ... : ... .. 6 ... ... ... : ... .. . ... : ... .. . ... : ... .. . ... ... : ... .. 5 ... ... : ... .. 5 ... ... : ... .. D P7F ...
ROW D8 : ... .. D ... ... ... : ... .. 3 ... ... ... : ... .. . ... : ... .. 5 ... : ... .. . ... ... : ... .. . ... ... : ... .. . ... ... : ... .. 8 P7E ...
ROW D9 : ... .. 0 ... ... ... : ... .. 1 ... ... ... : ... .. . ... : ... .. . ... : ... .. . ... ... : --- .. . ... ... : --- .. . ... ... : --- .. . ... ...
ROW DA : ... .. . ... ... ... : ... .. . ... ... ... : ... .. . ... : ... .. 4 ... : ... .. . ... ... : ... .. . ... ... : ... .. . ... ... : ... .. . ... ...
ROW DB : ... .. . ... ... ... : ... .. 0 ... ... ... : ... .. . ... : ... .. . ... : ... .. . ... ... : ... .. . ... ... : ... .. . ... ... : ... .. . ... ...
ROW DC : C-4 00 F P81 ... ... : C-4 00 8 P80 ... ... : ... .. . ... : ... .. D ... : ... .. . ... ... : D-4 01 6 ... ... : F#4 01 6 ... ... : C-5 01 F P82 ...
ROW DD : ... .. E ... ... ... : ... .. 6 ... ... ... : ... .. . ... : ... .. B ... : ... .. . ... ... : ... .. 5 ... ... : ... .. 5 ... ... : ... .. D P80 ...
ROW DE : ... .. D ... ... ... : ... .. 3 ... ... ... : ... .. . ... : ... .. . ... : ... .. . ... ... : ... .. . ... ... : ... .. . ... ... : ... .. 8 P7F ...
ROW DF : ... .. 0 ... ... ... : ... .. 1 ... ... ... : ... .. . ... : ... .. A ... : ... .. . ... ... : --- .. . ... ... : --- .. . ... ... : --- .. . ... ...
ROW E0 : ... .. . ... ... ... : ... .. . ... ... ... : ... .. . ... : ... .. 8 ... : ... .. . ... ... : ... .. . ... ... : ... .. . ... ... : ... .. . ... ...
ROW E1 : ... .. . ... ... ... : ... .. 0 ... ... ... : ... .. . ... : ... .. 7 ... : ... .. . ... ... : ... .. . ... ... : ... .. . ... ... : ... .. . ... ...
ROW E2 : D-4 00 F P81 ... ... : G#3 00 8 P80 ... ... : ... .. . ... : ... .. 6 ... : ... .. . ... ... : E-4 01 6 ... ... : E-4 01 6 ... ... : D-5 01 F P82 ...
ROW E3 : ... .. E ... ... ... : ... .. 6 ... ... ... : ... .. . ... : ... .. . ... : ... .. . ... ... : ... .. 5 ... ... : ... .. 5 ... ... : ... .. D ... ...
ROW E4 : ... .. D ... ... ... : ... .. 3 ... ... ... : ... .. . ... : ... .. 5 ... : ... .. . ... ... : ... .. . ... ... : ... .. . ... ... : ... .. 8 P80 ...
ROW E5 : ... .. 0 ... ... ... : ... .. 1 ... ... ... : ... .. . ... : ... .. . ... : ... .. . ... ... : --- .. . ... ... : --- .. . ... ... : --- .. . ... ...
ROW E6 : ... .. . ... ... ... : ... .. . ... ... ... : ... .. . ... : ... .. 4 ... : ... .. . ... ... : ... .. . ... ... : ... .. . ... ... : ... .. . ... ...
ROW E7 : ... .. . ... ... ... : ... .. 0 ... ... ... : ... .. . ... : ... .. . ... : ... .. . ... ... : ... .. . ... ... : ... .. . ... ... : ... .. . ... ...
ROW E8 : E-4 00 F P81 ... ... : C-4 00 8 P80 ... ... : B-4 00 . ... : ... .. D ... : ... .. . ... ... : F#4 01 5 ... ... : F#4 01 5 ... ... : E-5 01 F ... ...
ROW E9 : ... .. E ... ... ... : ... .. 6 ... ... ... : C#4 00 . ... : ... .. B ... : ... .. . ... ... : ... .. 4 ... ... : ... .. 4 ... ... : ... .. D P82 ...
ROW EA : ... .. D ... ... ... : ... .. 3 ... ... ... : F#3 00 . ... : ... .. . ... : ... .. . ... ... : ... .. . ... ... : ... .. . ... ... : ... .. 8 ... ...
ROW EB : ... .. A ... ... ... : ... .. 1 ... ... ... : F-3 00 . ... : ... .. A ... : ... .. . ... ... : ... .. . ... ... : ... .. . ... ... : ... .. . P80 ...
ROW EC : ... .. . ... ... ... : ... .. . ... ... ... : C-3 00 . ... : ... .. 8 ... : ... .. . ... ... : ... .. . ... ... : ... .. . ... ... : ... .. . P7F ...
ROW ED : ... .. . ... ... ... : ... .. 0 ... ... ... : ... .. . ... : ... .. 7 ... : ... .. . ... ... : ... .. . ... ... : ... .. . ... ... : ... .. . P7E ...
ROW EE : ... .. . ... ... ... : E-4 00 8 P80 ... ... : ... .. . ... : ... .. 6 ... : ... .. . ... ... : D-4 01 5 ... ... : G#4 01 5 ... ... : ... .. . P7F ...
ROW EF : ... .. . ... ... ... : ... .. 6 ... ... ... : ... .. . ... : ... .. . ... : ... .. . ... ... : ... .. 4 ... ... : ... .. 4 ... ... : ... .. . P80 ...
ROW F0 : ... .. . ... ... ... : ... .. 3 ... ... ... : ... .. . ... : ... .. 5 ... : ... .. . ... ... : ... .. . ... ... : ... .. . ... ... : ... .. . P81 ...
ROW F1 : ... .. 0 ... ... ... : ... .. 1 ... ... ... : ... .. . ... : ... .. . ... : ... .. . ... ... : --- .. . ... ... : --- .. . ... ... : --- .. . ... ...
ROW F2 : ... .. . ... ... ... : ... .. . ... ... ... : ... .. . ... : ... .. 4 ... : ... .. . ... ... : ... .. . ... ... : ... .. . ... ... : ... .. . ... ...
ROW F3 : ... .. . ... ... ... : ... .. 0 ... ... ... : ... .. . ... : ... .. . ... : ... .. . ... ... : ... .. . ... ... : ... .. . ... ... : ... .. . ... ...
ROW F4 : A#3 00 F P81 ... ... : G#4 00 8 P80 ... ... : ... .. . ... : D-# 00 F ... : ... .. . ... ... : E-4 01 4 ... ... : A#4 01 4 ... ... : A#4 01 F P7E ...
ROW F5 : ... .. E ... ... ... : ... .. 6 ... ... ... : ... .. . ... : ... .. C ... : ... .. . ... ... : ... .. . ... ... : ... .. . ... ... : ... .. D P7F ...
ROW F6 : ... .. D ... ... ... : ... .. 3 ... ... ... : ... .. . ... : ... .. 6 ... : ... .. . ... ... : ... .. . ... ... : ... .. . ... ... : ... .. 8 P80 ...
ROW F7 : ... .. A ... ... ... : ... .. 1 ... ... ... : ... .. . ... : ... .. 3 ... : ... .. . ... ... : --- .. . ... ... : --- .. . ... ... : ... .. . P81 ...
ROW F8 : ... .. . ... ... ... : ... .. . ... ... ... : ... .. . ... : ... .. 2 ... : ... .. . ... ... : ... .. . ... ... : ... .. . ... ... : ... .. . P82 ...
ROW F9 : ... .. . ... ... ... : ... .. 0 ... ... ... : ... .. . ... : ... .. 0 ... : ... .. . ... ... : ... .. . ... ... : ... .. . ... ... : ... .. . P81 ...
ROW FA : ... .. . ... ... ... : C-5 00 8 P80 ... ... : ... .. . ... : ... .. F ... : ... .. . ... ... : F#4 01 4 ... ... : G#4 01 4 ... ... : ... .. . P80 ...
ROW FB : ... .. . ... ... ... : ... .. 6 ... ... ... : ... .. . ... : ... .. C ... : ... .. . ... ... : ... .. . ... ... : ... .. . ... ... : ... .. . P7E ...
ROW FC : ... .. . ... ... ... : ... .. 3 ... ... ... : ... .. . ... : ... .. 6 ... : ... .. . ... ... : ... .. . ... ... : ... .. . ... ... : ... .. . ... ...
ROW FD : ... .. 0 ... ... ... : ... .. 1 ... ... ... : ... .. . ... : ... .. 3 ... : ... .. . ... ... : --- .. . ... ... : --- .. . ... ... : --- .. . ... ...
ROW FE : ... .. . ... ... ... : ... .. . ... ... ... : ... .. . ... : ... .. 2 ... : ... .. . ... ... : ... .. . ... ... : ... .. . ... ... : ... .. . ... ...
ROW FF : ... .. . ... ... ... : ... .. 0 ... ... ... : ... .. . ... : ... .. 0 ... : ... .. . ... ... : ... .. . ... ... : ... .. . ... ... : ... .. . ... ...

PATTERN 0C
ROW 00 : E-4 00 F P81 ... ... : D-5 00 8 P80 ... ... : A#4 00 . ... : B-# 00 D ... : ... .. . ... ... : G#4 01 4 ... ... : A#4 01 4 ... ... : E-5 01 F P81 ...
ROW 01 : ... .. E ... ... ... : ... .. 6 ... ... ... : C-4 00 . ... : ... .. B ... : ... .. . ... ... : ... .. . ... ... : ... .. . ... ... : ... .. D P80 ...
ROW 02 : ... .. D ... ... ... : ... .. 3 ... ... ... : F-3 00 . ... : ... .. . ... : ... .. . ... ... : ... .. . ... ... : ... .. . ... ... : ... .. 8 P7E ...
ROW 03 : ... .. A ... ... ... : ... .. 1 ... ... ... : E-3 00 . ... : ... .. A ... : ... .. . ... ... : ... .. . ... ... : ... .. . ... ... : ... .. . ... ...
ROW 04 : ... .. . ... ... ... : ... .. . ... ... ... : B-2 00 . ... : ... .. 8 ... : ... .. . ... ... : ... .. 3 ... ... : ... .. 3 ... ... : ... .. . P80 ...
ROW 05 : ... .. . ... ... ... : ... .. 0 ... ... ... : ... .. . ... : ... .. 7 ... : ... .. . ... ... : ... .. . ... ... : ... .. . ... ... : ... .. . P81 ...
ROW 06 : D-4 00 F ... ... ... : A#4 00 8 P80 ... ... : ... .. . ... : ... .. 6 ... : ... .. . ... ... : E-4 01 4 ... ... : C-5 01 4 ... ... : D-5 01 F P82 ...
ROW 07 : ... .. E ... ... ... : ... .. 6 ... ... ... : ... .. . ... : ... .. . ... : ... .. . ... ... : ... .. . ... ... : ... .. . ... ... : ... .. D P81 ...
ROW 08 : ... .. D ... ... ... : ... .. 3 ... ... ... : ... .. . ... : ... .. 5 ... : ... .. . ... ... : ... .. . ... ... : ... .. . ... ... : ... .. 8 P80 ...
ROW 09 : ... .. 0 ... ... ... : ... .. 1 ... ... ... : ... .. . ... : ... .. . ... : ... .. . ... ... : --- .. . ... ... : --- .. . ... ... : --- .. . ... ...
ROW 0A : ... .. . ... ... ... : ... .. . ... ... ... : ... .. . ... : ... .. 4 ... : ... .. . ... ... : ... .. . ... ... : ... .. . ... ... : ... .. . ... ...
ROW 0B : ... .. . ... ... ... : ... .. 0 ... ... ... : ... .. . ... : ... .. . ... : ... .. . ... ... : ... .. . ... ... : ... .. . ... ... : ... .. . ... ...
ROW 0C : E-4 00 F P81 ... ... : F#4 00 8 P80 ... ... : ... .. . ... : D-# 00 F ... : ... .. . ... ... : F#4 01 5 ... ... : D-5 01 5 ... ... : E-5 01 F P81 ...
ROW 0D : ... .. E ... ... ... : ... .. 6 ... ... ... : ... .. . ... : ... .. C ... : ... .. . ... ... : ... .. 4 ... ... : ... .. 4 ... ... : ... .. D P82 ...
ROW 0E : ... .. D ... ... ... : ... .. 3 ... ... ... : ... .. . ... : ... .. 6 ... : ... .. . ... ... : ... .. . ... ... : ... .. . ... ... : ... .. 8 P81 ...
ROW 0F : ... .. 0 ... ... ... : ... .. 1 ... ... ... : ... .. . ... : ... .. 3 ... : ... .. . ... ... : --- .. . ... ... : --- .. . ... ... : --- .. . ... ...
ROW 10 : ... .. . ... ... ... : ... .. . ... ... ... : ... .. . ... : ... .. 2 ... : ... .. . ... ... : ... .. . ... ... : ... .. . ... ... : ... .. . ... ...
ROW 11 : ... .. . ... ... ... : ... .. 0 ... ... ... : ... .. . ... : ... .. 0 ... : ... .. . ... ... : ... .. . ... ... : ... .. . ... ... : ... .. . ... ...
ROW 12 : F#4 00 F P81 ... ... : D-4 00 8 P80 ... ... : ... .. . ... : ... .. F ... : ... .. . ... ... : G#4 01 5 ... ... : C-5 01 5 ... ... : F#5 01 F P80 ...
ROW 13 : ... .. E ... ... ... : ... .. 6 ... ... ... : ... .. . ... : ... .. C ... : ... .. . ... ... : ... .. 4 ... ... : ... .. 4 ... ... : ... .. D ... ...
ROW 14 : ... .. D ... ... ... : ... .. 3 ... ... ... : ... .. . ... : ... .. 6 ... : ... .. . ... ... : ... .. . ... ... : ... .. . ... ... : ... .. 8 P82 ...
ROW 15 : ... .. 0 ... ... ... : ... .. 1 ... ... ... : ... .. . ... : ... .. 3 ... : ... .. . ... ... : --- .. . ... ... : --- .. . ... ... : --- .. . ... ...
ROW 16 : ... .. . ... ... ... : ... .. . ... ... ... : ... .. . ... : ... .. 2 ... : ... .. . ... ... : ... .. . ... ... : ... .. . ... ... : ... .. . ... ...
ROW 17 : ... .. . ... ... ... : ... .. 0 ... ... ... : ... .. . ... : ... .. 0 ... : ... .. . ... ... : ... .. . ... ... : ... .. . ... ... : ... .. . ... ...
ROW 18 : G#4 00 F P81 ... ... : F#4 00 8 P80 ... ... : A-4 00 . ... : B-# 00 D ... : ... .. . ... ... : A#4 01 6 ... ... : D-5 01 6 ... ... : G#5 01 F P7E ...
ROW 19 : ... .. E ... ... ... : ... .. 6 ... ... ... : B-3 00 . ... : ... .. B ... : ... .. . ... ... : ... .. 5 ... ... : ... .. 5 ... ... : ... .. D P7F ...
ROW 1A : ... .. D ... ... ... : ... .. 3 ... ... ... : E-3 00 . ... : ... .. . ... : ... .. . ... ... : ... .. . ... ... : ... .. . ... ... : ... .. 8 P80 ...
ROW 1B : ... .. A ... ... ... : ... .. 1 ... ... ... : D#3 00 . ... : ... .. A ... : ... .. . ... ... : ... .. . ... ... : ... .. . ... ... : ... .. . P82 ...
ROW 1C : ... .. . ... ... ... : ... .. . ... ... ... : A#2 00 . ... : ... .. 8 ... : ... .. . ... ... : ... .. 4 ... ... : ... .. 4 ... ... : ... .. . ... ...
ROW 1D : ... .. . ... ... ... : ... .. 0 ... ... ... : ... .. . ... : ... .. 7 ... : ... .. . ... ... : ... .. . ... ... : ... .. . ... ... : ... .. . P80 ...
ROW 1E : ... .. . ... ... ... : A#4 00 8 P80 ... ... : ... .. . ... : ... .. 6 ... : ... .. . ... ... : F#4 01 6 ... ... : E-5 01 6 ... ... : ... .. . P7F ...
ROW 1F : ... .. . ... ... ... : ... .. 6 ... ... ... : ... .. . ... : ... .. . ... : ... .. . ... ... : ... .. 5 ... ... : ... .. 5 ... ... : ... .. . P7E ...
ROW 20 : ... .. . ... ... ... : ... .. 3 ... ... ... : ... .. . ... : ... .. 5 ... : ... .. . ... ... : ... .. . ... ... : ... .. . ... ... : ... .. . P7F ...
ROW 21 : ... .. 0 ... ... ... : ... .. 1 ... ... ... : ... .. . ... : ... .. . ... : ... .. . ... ... : --- .. . ... ... : --- .. . ... ... : --- .. . ... ...
ROW 22 : ... .. . ... ... ... : ... .. . ... ... ... : ... .. . ... : ... .. 4 ... : ... .. . ... ... : ... .. . ... ... : ... .. . ... ... : ... .. . ... ...
ROW 23 : ... .. . ... ... ... : ... .. 0 ... ... ... : ... .. . ... : ... .. . ... : ... .. . ... ... : ... .. . ... ... : ... .. . ... ... : ... .. . ... ...
ROW 24 : C-4 00 F P81 ... ... : D-5 00 8 P80 ... ... : ... .. . ... : D-# 00 F ... : ... .. . ... ... : G#4 01 6 ... ... : F#5 01 6 ... ... : C-5 01 F P80 ...
ROW 25 : ... .. E ... ... ... : ... .. 6 ... ... ... : ... .. . ... : ... .. C ... : ... .. . ... ... : ... .. 5 ... ... : ... .. 5 ... ... : ... .. D P7F ...
ROW 26 : ... .. D ... ... ... : ... .. 3 ... ... ... : ... .. . ... : ... .. 6 ... : ... .. . ... ... : ... .. . ... ... : ... .. . ... ... : ... .. 8 P7E ...
ROW 27 : ... .. A ... ... ... : ... .. 1 ... ... ... : ... .. . ... : ... .. 3 ... : ... .. . ... ... : --- .. . ... ... : --- .. . ... ... : ... .. . P7F ...
ROW 28 : ... .. . ... ... ... : ... .. . ... ... ... : ... .. . ... : ... .. 2 ... : ... .. . ... ... : ... .. . ... ... : ... .. . ... ... : ... .. . P80 ...
ROW 29 : ... .. . ... ... ... : ... .. 0 ... ... ... : ... .. . ... : ... .. 0 ... : ... .. . ... ... : ... .. . ... ... : ... .. . ... ... : ... .. . P82 ...
ROW 2A : ... .. . ... ... ... : F#5 00 8 P80 ... ... : ... .. . ... : ... .. F ... : ... .. . ... ... : A#4 01 7 ... ... : E-5 01 7 ... ... : ... .. . ... ...
ROW 2B : ... .. . ... ... ... : ... .. 6 ... ... ... : ... .. . ... : ... .. C ... : ... .. . ... ... : ... .. 6 ... ... : ... .. 6 ... ... : ... .. . P80 ...
ROW 2C : ... .. . ... ... ... : ... .. 3 ... ... ... : ... .. . ... : ... .. 6 ... : ... .. . ... ... : ... .. . ... ... : ... .. . ... ... : ... .. . P7F ...
ROW 2D : ... .. 0 ... ... ... : ... .. 1 ... ... ... : ... .. . ... : ... .. 3 ... : ... .. . ... ... : --- .. . ... ... : --- .. . ... ... : --- .. . ... ...
ROW 2E : ... .. . ... ... ... : ... .. . ... ... ... : ... .. . ... : ... .. 2 ... : ... .. . ... ... : ... .. . ... ... : ... .. . ... ... : ... .. . ... ...
ROW 2F : ... .. . ... ... ... : ... .. 0 ... ... ... : ... .. . ... : ... .. 0 ... : ... .. . ... ... : ... .. . ... ... : ... .. . ... ... : ... .. . ... ...
ROW 30 : A#4 00 F P81 ... ... : G#5 00 8 P80 ... ... : G#4 00 . ... : B-# 00 D ... : ... .. . ... ... : C-5 01 7 ... ... : F#5 01 7 ... ... : A#5 01 F P81 ...
ROW 31 : ... .. E ... ... ... : ... .. 6 ... ... ... : A#3 00 . ... : ... .. B ... : ... .. . ... ... : ... .. 6 ... ... : ... .. 6 ... ... : ... .. D P82 ...
ROW 32 : ... .. D ... ... ... : ... .. 3 ... ... ... : D#3 00 . ... : ... .. . ... : ... .. . ... ... : ... .. . ... ... : ... .. . ... ... : ... .. 8 P80 ...
ROW 33 : ... .. A ... ... ... : ... .. 1 ... ... ... : D-3 00 . ... : ... .. A ... : ... .. . ... ... : ... .. . ... ... : ... .. . ... ... : ... .. . ... ...
ROW 34 : ... .. . ... ... ... : ... .. . ... ... ... : A-2 00 . ... : ... .. 8 ... : ... .. . ... ... : ... .. 5 ... ... : ... .. 5 ... ... : A-5 01 8 P82 ...
ROW 35 : ... .. . ... ... ... : ... .. 0 ... ... ... : ... .. . ... : ... .. 7 ... : ... .. . ... ... : ... .. . ... ... : ... .. . ... ... : A#5 01 8 P7F ...
ROW 36 : G#4 00 F ... ... ... : E-5 00 8 P80 ... ... : ... .. . ... : ... .. 6 ... : ... .. . ... ... : G#4 01 7 ... ... : F-5 01 7 ... ... : G#5 01 F P80 ...
ROW 37 : ... .. E ... ... ... : ... .. 6 ... ... ... : ... .. . ... : ... .. . ... : ... .. . ... ... : ... .. 6 ... ... : ... .. 6 ... ... : ... .. D P81 ...
ROW 38 : ... .. D ... ... ... : ... .. 3 ... ... ... : ... .. . ... : ... .. 5 ... : ... .. . ... ... : ... .. . ... ... : ... .. . ... ... : ... .. 8 P82 ...
ROW 39 : ... .. 0 ... ... ... : ... .. 1 ... ... ... : ... .. . ... : ... .. . ... : ... .. . ... ... : --- .. . ... ... : --- .. . ... ... : --- .. . ... ...
ROW 3A : ... .. . ... ... ... : ... .. . ... ... ... : ... .. . ... : ... .. 4 ... : ... .. . ... ... : ... .. . ... ... : ... .. . ... ... : ... .. . ... ...
ROW 3B : ... .. . ... ... ... : ... .. 0 ... ... ... : ... .. . ... : ... .. . ... : ... .. . ... ... : ... .. . ... ... : ... .. . ... ... : ... .. . ... ...
ROW 3C : A#4 00 F P81 ... ... : G#5 00 8 P80 ... ... : ... .. . ... : ... .. 3 ... : ... .. . ... ... : A#4 01 7 ... ... : F#5 01 7 ... ... : A-5 01 F ... ...
ROW 3D : ... .. E ... ... ... : ... .. 6 ... ... ... : ... .. . ... : ... .. 2 ... : ... .. . ... ... : ... .. 6 ... ... : ... .. 6 ... ... : A#5 01 D P80 ...
ROW 3E : ... .. D ... ... ... : ... .. 3 ... ... ... : ... .. . ... : ... .. . ... : ... .. . ... ... : ... .. . ... ... : ... .. . ... ... : ... .. 8 P81 ...
ROW 3F : ... .. 0 ... ... ... : ... .. 1 ... ... ... : ... .. . ... : D-# 00 5 ... : ... .. . ... ... : --- .. . ... ... : --- .. . ... ... : --- .. . ... ...
ROW 40 : ... .. . ... ... ... : ... .. . ... ... ... : ... .. . ... : ... .. 4 ... : ... .. . ... ... : ... .. . ... ... : ... .. . ... ... : ... .. . ... ...
ROW 41 : ... .. . ... ... ... : ... .. 0 ... ... ... : ... .. . ... : ... .. . ... : ... .. . ... ... : ... .. . ... ... : ... .. . ... ... : ... .. . ... ...
ROW 42 : C-5 00 F P81 ... ... : B-5 00 8 P80 ... ... : ... .. . ... : ... .. 6 ... : ... .. . ... ... : C-5 01 8 ... ... : G#5 01 8 ... ... : B-5 01 F P82 ...
ROW 43 : ... .. E ... ... ... : ... .. 6 ... ... ... : ... .. . ... : ... .. 5 ... : ... .. . ... ... : ... .. 7 ... ... : ... .. 7 ... ... : ... .. D ... ...
ROW 44 : ... .. D ... ... ... : ... .. 3 ... ... ... : ... .. . ... : ... .. . ... : ... .. . ... ... : ... .. . ... ... : ... .. . ... ... : C-6 01 8 P80 ...
ROW 45 : ... .. 0 ... ... ... : ... .. 1 ... ... ... : ... .. . ... : ... .. 8 ... : ... .. . ... ... : --- .. . ... ... : --- .. . ... ... : --- .. . ... ...
ROW 46 : ... .. . ... ... ... : ... .. . ... ... ... : ... .. . ... : ... .. 7 ... : ... .. . ... ... : ... .. . ... ... : ... .. . ... ... : ... .. . ... ...
ROW 47 : ... .. . ... ... ... : ... .. 0 ... ... ... : ... .. . ... : ... .. . ... : ... .. . ... ... : ... .. . ... ... : ... .. . ... ... : ... .. . ... ...
ROW 48 : D-5 00 F P81 ... ... : C#6 00 8 P80 ... ... : G-4 00 . ... : B-# 00 D ... : ... .. . ... ... : D-5 01 9 ... ... : A-5 01 9 ... ... : D-6 01 F ... ...
ROW 49 : ... .. E ... ... ... : ... .. 6 ... ... ... : A-3 00 . ... : ... .. B ... : ... .. . ... ... : ... .. 8 ... ... : ... .. 8 ... ... : C#6 01 D P82 ...
ROW 4A : ... .. D ... ... ... : ... .. 3 ... ... ... : D-3 00 . ... : ... .. . ... : ... .. . ... ... : ... .. . ... ... : ... .. . ... ... : ... .. 8 ... ...
ROW 4B : ... .. A ... ... ... : ... .. 1 ... ... ... : C#3 00 . ... : ... .. A ... : ... .. . ... ... : ... .. . ... ... : ... .. . ... ... : D-6 01 8 P80 ...
ROW 4C : ... .. . ... ... ... : ... .. . ... ... ... : G#2 00 . ... : ... .. 8 ... : ... .. . ... ... : ... .. 7 ... ... : ... .. 7 ... ... : ... .. . P81 ...
ROW 4D : ... .. . ... ... ... : ... .. 0 ... ... ... : ... .. . ... : ... .. 7 ... : ... .. . ... ... : ... .. . ... ... : ... .. . ... ... : D#6 01 8 P7F ...
ROW 4E : ... .. . ... ... ... : ... .. . ... ... ... : ... .. . ... : ... .. 6 ... : ... .. . ... ... : ... .. . ... ... : ... .. . ... ... : D-6 01 8 P81 ...
ROW 4F : ... .. . ... ... ... : ... .. . ... ... ... : ... .. . ... : ... .. . ... : ... .. . ... ... : ... .. 6 ... ... : ... .. 6 ... ... : ... .. . P80 ...
ROW 50 : ... .. . ... ... ... : ... .. . ... ... ... : ... .. . ... : ... .. 5 ... : ... .. . ... ... : ... .. . ... ... : ... .. . ... ... : ... .. . P7F ...
ROW 51 : ... .. . ... ... ... : ... .. . ... ... ... : ... .. . ... : ... .. . ... : ... .. . ... ... : ... .. . ... ... : ... .. . ... ... : C#6 01 8 P82 ...
ROW 52 : ... .. . ... ... ... : ... .. . ... ... ... : ... .. . ... : ... .. 4 ... : ... .. . ... ... : ... .. . ... ... : ... .. . ... ... : D-6 01 8 P80 ...
ROW 53 : ... .. . ... ... ... : ... .. . ... ... ... : ... .. . ... : ... .. . ... : ... .. . ... ... : ... .. . ... ... : ... .. . ... ... : ... .. . ... ...
ROW 54 : E-5 00 A ... ... ... : ... .. . ... ... ... : ... .. . ... : ... .. 3 ... : ... .. . ... ... : ... .. . ... ... : ... .. . ... ... : D#6 01 8 P7F ...
ROW 55 : F-5 00 A P82 ... ... : ... .. . ... ... ... : ... .. . ... : ... .. 2 ... : ... .. . ... ... : ... .. 5 ... ... : ... .. 5 ... ... : D-6 01 4 P81 ...
ROW 56 : ... .. . P80 ... ... : ... .. . ... ... ... : ... .. . ... : ... .. . ... : ... .. . ... ... : ... .. . ... ... : ... .. . ... ... : ... .. . P80 ...
ROW 57 : D#5 00 A ... ... ... : ... .. . ... ... ... : ... .. . ... : ... .. 1 ... : ... .. . ... ... : ... .. 4 ... ... : ... .. 4 ... ... : ... .. 1 P7F ...
ROW 58 : C#5 00 A P83 ... ... : ... .. . ... ... ... : ... .. . ... : ... .. 0 ... : ... .. . ... ... : ... .. 3 ... ... : ... .. 3 ... ... : C#6 01 1 P82 ...
ROW 59 : C-5 00 A P7F ... ... : ... .. . ... ... ... : ... .. . ... : ... .. . ... : ... .. . ... ... : ... .. . ... ... : ... .. . ... ... : D-6 01 1 P7F ...
ROW 5A : B-4 00 A P83 ... ... : ... .. . ... ... ... : ... .. . ... : ... .. . ... : ... .. . ... ... : ... .. . ... ... : ... .. . ... ... : ... .. . P80 ...
ROW 5B : C-5 00 A ... ... ... : ... .. . ... ... ... : ... .. . ... : ... .. . ... : ... .. . ... ... : ... .. . ... ... : ... .. . ... ... : D#6 01 1 P7F ...
ROW 5C : D-5 00 A P81 ... ... : ... .. . ... ... ... : ... .. . ... : ... .. . ... : ... .. . ... ... : ... .. . ... ... : ... .. . ... ... : ... .. . ... ...
ROW 5D : E-5 00 A P80 ... ... : ... .. . ... ... ... : ... .. . ... : ... .. . ... : ... .. . ... ... : ... .. . ... ... : ... .. . ... ... : D-6 01 1 P80 ...
ROW 5E : F-5 00 2 P82 ... ... : ... .. . ... ... ... : ... .. . ... : ... .. . ... : ... .. . ... ... : ... .. . ... ... : ... .. . ... ... : ... .. 0 P7F ...
ROW 5F : ... .. . P80 ... ... : ... .. . ... ... ... : ... .. . ... : ... .. . ... : ... .. . ... ... : ... .. . ... ... : ... .. . ... ... : C#6 01 0 P82 ...
ROW 60 : G-1 00 D P81 ... ... : D-5 00 6 P80 ... ... : F#4 00 . ... : C-# 00 4 ... : ... .. . ... ... : --- .. . ... ... : --- .. . ... ... : D-6 01 0 P7F ...
ROW 61 : ... .. B ... ... ... : ... .. 4 ... ... ... : G#3 00 . ... : ... .. 3 ... : ... .. . ... ... : ... .. . ... ... : ... .. . ... ... : ... .. . P80 ...
ROW 62 : ... .. . ... ... ... : ... .. 2 ... ... ... : C#3 00 . ... : ... .. 1 ... : ... .. . ... ... : ... .. . ... ... : ... .. . ... ... : D#6 01 0 P7F ...
ROW 63 : ... .. A ... ... ... : ... .. 1 ... ... ... : C-3 00 . ... : ... .. . ... : ... .. . ... ... : ... .. . ... ... : ... .. . ... ... : ... .. . ... ...
ROW 64 : ... .. 8 ... ... ... : ... .. . ... ... ... : G-2 00 . ... : ... .. . ... : ... .. . ... ... : ... .. . ... ... : ... .. . ... ... : D-6 01 0 P80 ...
ROW 65 : ... .. 7 ... ... ... : ... .. 0 ... ... ... : ... .. . ... : ... .. 0 ... : ... .. . ... ... : ... .. . ... ... : ... .. . ... ... : ... .. . P7F ...
ROW 66 : ... .. 6 ... ... ... : D#5 00 6 P80 ... ... : ... .. . ... : ... .. 8 ... : ... .. . ... ... : ... .. . ... ... : ... .. . ... ... : C#6 01 0 P82 ...
ROW 67 : ... .. . ... ... ... : ... .. 4 ... ... ... : ... .. . ... : ... .. 6 ... : ... .. . ... ... : ... .. . ... ... : ... .. . ... ... : D-6 01 0 P7F ...
ROW 68 : ... .. 5 ... ... ... : ... .. 2 ... ... ... : ... .. . ... : ... .. 3 ... : ... .. . ... ... : ... .. . ... ... : ... .. . ... ... : ... .. . P80 ...
ROW 69 : ... .. . ... ... ... : ... .. 1 ... ... ... : ... .. . ... : ... .. 1 ... : ... .. . ... ... : ... .. . ... ... : ... .. . ... ... : D#6 01 0 P7F ...
ROW 6A : ... .. 4 ... ... ... : ... .. . ... ... ... : ... .. . ... : ... .. . ... : ... .. . ... ... : ... .. . ... ... : ... .. . ... ... : ... .. . ... ...
ROW 6B : ... .. . ... ... ... : ... .. 0 ... ... ... : ... .. . ... : ... .. 0 ... : ... .. . ... ... : ... .. . ... ... : ... .. . ... ... : D-6 01 0 P80 ...
ROW 6C : D-2 00 D ... ... ... : D-5 00 6 P80 ... ... : ... .. . ... : ... .. F ... : ... .. . ... ... : D-3 01 9 ... ... : A#3 01 9 ... ... : D-3 01 F P7C ...
ROW 6D : ... .. B ... ... ... : ... .. 4 ... ... ... : ... .. . ... : ... .. C ... : ... .. . ... ... : ... .. 8 ... ... : ... .. 8 ... ... : ... .. D P77 ...
ROW 6E : ... .. . ... ... ... : ... .. 2 ... ... ... : ... .. . ... : ... .. 6 ... : ... .. . ... ... : ... .. . ... ... : ... .. . ... ... : ... .. 8 P79 ...
ROW 6F : ... .. 0 ... ... ... : ... .. 1 ... ... ... : ... .. . ... : ... .. 3 ... : ... .. . ... ... : ... .. . ... ... : ... .. . ... ... : ... .. . P80 ...
ROW 70 : ... .. . ... ... ... : ... .. . ... ... ... : ... .. . ... : ... .. 2 ... : ... .. . ... ... : ... .. 7 ... ... : ... .. 7 ... ... : ... .. . P87 ...
ROW 71 : ... .. . ... ... ... : ... .. 0 ... ... ... : ... .. . ... : ... .. 0 ... : ... .. . ... ... : ... .. . ... ... : ... .. . ... ... : ... .. . P89 ...
ROW 72 : D-2 00 D P81 ... ... : D#5 00 6 P80 ... ... : --- .. . ... : ... .. 4 ... : ... .. . ... ... : --- .. . P82 ... : --- .. . ... ... : --- .. . P83 ...
ROW 73 : ... .. B ... ... ... : ... .. 4 ... ... ... : ... .. . ... : ... .. 3 ... : ... .. . ... ... : ... .. . ... ... : ... .. . ... ... : ... .. . ... ...
ROW 74 : ... .. . ... ... ... : ... .. 2 ... ... ... : ... .. . ... : ... .. 1 ... : ... .. . ... ... : ... .. . ... ... : ... .. . ... ... : ... .. . ... ...
ROW 75 : ... .. 0 ... ... ... : ... .. 1 ... ... ... : ... .. . ... : ... .. . ... : ... .. . ... ... : ... .. . ... ... : ... .. . ... ... : ... .. . ... ...
ROW 76 : ... .. . ... ... ... : ... .. . ... ... ... : ... .. . ... : ... .. . ... : ... .. . ... ... : ... .. . ... ... : ... .. . ... ... : ... .. . ... ...
ROW 77 : ... .. . ... ... ... : ... .. 0 ... ... ... : ... .. . ... : ... .. 0 ... : ... .. . ... ... : ... .. . ... ... : ... .. . ... ... : ... .. . ... ...
ROW 78 : C#2 00 D P81 ... ... : D-5 00 6 P80 ... ... : C#4 00 . ... : ... .. 2 ... : ... .. . ... ... : ... .. . ... ... : ... .. . ... ... : C#3 01 F P89 ...
ROW 79 : ... .. B ... ... ... : ... .. 4 ... ... ... : D#3 00 . ... : ... .. 1 ... : ... .. . ... ... : ... .. . ... ... : ... .. . ... ... : ... .. D P84 ...
ROW 7A : ... .. . ... ... ... : ... .. 2 ... ... ... : G#2 00 . ... : ... .. . ... : ... .. . ... ... : ... .. . ... ... : ... .. . ... ... : ... .. 8 P7E ...
ROW 7B : ... .. A ... ... ... : ... .. 1 ... ... ... : G-2 00 . ... : ... .. . ... : ... .. . ... ... : ... .. . ... ... : ... .. . ... ... : ... .. . P77 ...
ROW 7C : ... .. 8 ... ... ... : ... .. . ... ... ... : D-2 00 . ... : ... .. . ... : ... .. . ... ... : ... .. . ... ... : ... .. . ... ... : ... .. . P78 ...
ROW 7D : ... .. 7 ... ... ... : ... .. 0 ... ... ... : ... .. . ... : ... .. 0 ... : ... .. . ... ... : ... .. . ... ... : ... .. . ... ... : ... .. . P80 ...
ROW 7E : ... .. D ... ... ... : D#5 00 6 P80 ... ... : ... .. . ... : ... .. 4 ... : ... .. . ... ... : ... .. . ... ... : ... .. . ... ... : ... .. . P86 ...
ROW 7F : ... .. B ... ... ... : ... .. 4 ... ... ... : ... .. . ... : ... .. 3 ... : ... .. . ... ... : ... .. . ... ... : ... .. . ... ... : ... .. . P89 ...
ROW 80 : ... .. . ... ... ... : ... .. 2 ... ... ... : ... .. . ... : ... .. 1 ... : ... .. . ... ... : ... .. . ... ... : ... .. . ... ... : ... .. . P85 ...
ROW 81 : ... .. A ... ... ... : ... .. 1 ... ... ... : ... .. . ... : ... .. . ... : ... .. . ... ... : ... .. . ... ... : ... .. . ... ... : ... .. . P7F ...
ROW 82 : ... .. 8 ... ... ... : ... .. . ... ... ... : ... .. . ... : ... .. . ... : ... .. . ... ... : ... .. . ... ... : ... .. . ... ... : ... .. . P78 ...
ROW 83 : ... .. 7 ... ... ... : ... .. 0 ... ... ... : ... .. . ... : ... .. 0 ... : ... .. . ... ... : ... .. . ... ... : ... .. . ... ... : ... .. . ... ...
ROW 84 : D-2 00 D ... ... ... : D-5 00 6 P80 ... ... : ... .. . ... : ... .. F ... : ... .. . ... ... : C#3 01 9 P80 ... : A#3 01 9 ... ... : D-3 01 F P7F ...
ROW 85 : ... .. B ... ... ... : ... .. 4 ... ... ... : ... .. . ... : ... .. C ... : ... .. . ... ... : ... .. 8 ... ... : ... .. 8 ... ... : ... .. D P85 ...
ROW 86 : ... .. . ... ... ... : ... .. 2 ... ... ... : ... .. . ... : ... .. 6 ... : ... .. . ... ... : ... .. . ... ... : ... .. . ... ... : ... .. 8 P89 ...
ROW 87 : ... .. 0 ... ... ... : ... .. 1 ... ... ... : ... .. . ... : ... .. 3 ... : ... .. . ... ... : ... .. . ... ... : ... .. . ... ... : ... .. . P86 ...
ROW 88 : ... .. . ... ... ... : ... .. . ... ... ... : ... .. . ... : ... .. 2 ... : ... .. . ... ... : ... .. 7 ... ... : ... .. 7 ... ... : ... .. . P80 ...
ROW 89 : ... .. . ... ... ... : ... .. 0 ... ... ... : ... .. . ... : ... .. 0 ... : ... .. . ... ... : ... .. . ... ... : ... .. . ... ... : ... .. . P78 ...
ROW 8A : D-2 00 D P81 ... ... : D#5 00 6 P80 ... ... : --- .. . ... : ... .. F ... : ... .. . ... ... : --- .. . P83 ... : --- .. . ... ... : --- .. . P7C ...
ROW 8B : ... .. B ... ... ... : ... .. 4 ... ... ... : ... .. . ... : ... .. C ... : ... .. . ... ... : ... .. . ... ... : ... .. . ... ... : ... .. . ... ...
ROW 8C : ... .. . ... ... ... : ... .. 2 ... ... ... : ... .. . ... : ... .. 6 ... : ... .. . ... ... : ... .. . ... ... : ... .. . ... ... : ... .. . ... ...
ROW 8D : ... .. 0 ... ... ... : ... .. 1 ... ... ... : ... .. . ... : ... .. 3 ... : ... .. . ... ... : ... .. . ... ... : ... .. . ... ... : ... .. . ... ...
ROW 8E : ... .. . ... ... ... : ... .. . ... ... ... : ... .. . ... : ... .. 2 ... : ... .. . ... ... : ... .. . ... ... : ... .. . ... ... : ... .. . ... ...
ROW 8F : ... .. . ... ... ... : ... .. 0 ... ... ... : ... .. . ... : ... .. 0 ... : ... .. . ... ... : ... .. . ... ... : ... .. . ... ... : ... .. . ... ...
ROW 90 : A#1 00 D P81 ... ... : D-5 00 6 P80 ... ... : A-4 00 . ... : ... .. 2 ... : ... .. . ... ... : ... .. . ... ... : ... .. . ... ... : D#3 01 F P79 ...
ROW 91 : ... .. B ... ... ... : ... .. 4 ... ... ... : B-3 00 . ... : ... .. 1 ... : ... .. . ... ... : ... .. . ... ... : ... .. . ... ... : ... .. D P77 ...
ROW 92 : ... .. . ... ... ... : ... .. 2 ... ... ... : E-3 00 . ... : ... .. . ... : ... .. . ... ... : ... .. . ... ... : ... .. . ... ... : ... .. 8 P7D ...
ROW 93 : ... .. A ... ... ... : ... .. 1 ... ... ... : D#3 00 . ... : ... .. . ... : ... .. . ... ... : ... .. . ... ... : ... .. . ... ... : ... .. . P83 ...
ROW 94 : ... .. 8 ... ... ... : ... .. . ... ... ... : A#2 00 . ... : ... .. . ... : ... .. . ... ... : ... .. . ... ... : ... .. . ... ... : ... .. . P89 ...
ROW 95 : ... .. 7 ... ... ... : ... .. 0 ... ... ... : ... .. . ... : ... .. 0 ... : ... .. . ... ... : ... .. . ... ... : ... .. . ... ... : ... .. . P87 ...
ROW 96 : ... .. D ... ... ... : D#5 00 6 P80 ... ... : ... .. . ... : ... .. 4 ... : ... .. . ... ... : ... .. . ... ... : ... .. . ... ... : ... .. . P80 ...
ROW 97 : ... .. B ... ... ... : ... .. 4 ... ... ... : ... .. . ... : ... .. 3 ... : ... .. . ... ... : ... .. . ... ... : ... .. . ... ... : ... .. . P79 ...
ROW 98 : ... .. . ... ... ... : ... .. 2 ... ... ... : ... .. . ... : ... .. 1 ... : ... .. . ... ... : ... .. . ... ... : ... .. . ... ... : ... .. . P77 ...
ROW 99 : ... .. A ... ... ... : ... .. 1 ... ... ... : ... .. . ... : ... .. . ... : ... .. . ... ... : ... .. . ... ... : ... .. . ... ... : ... .. . P7C ...
ROW 9A : ... .. 8 ... ... ... : ... .. . ... ... ... : ... .. . ... : ... .. . ... : ... .. . ... ... : ... .. . ... ... : ... .. . ... ... : ... .. . P82 ...
ROW 9B : ... .. 7 ... ... ... : ... .. 0 ... ... ... : ... .. . ... : ... .. 0 ... : ... .. . ... ... : ... .. . ... ... : ... .. . ... ... : ... .. . P89 ...
ROW 9C : C#2 00 D ... ... ... : E-5 00 6 P80 ... ... : ... .. . ... : ... .. F ... : ... .. . ... ... : D-3 01 9 P80 ... : A#3 01 9 ... ... : D-3 01 F P88 ...
ROW 9D : ... .. B ... ... ... : ... .. 4 ... ... ... : ... .. . ... : ... .. C ... : ... .. . ... ... : ... .. 8 ... ... : ... .. 8 ... ... : ... .. D P80 ...
ROW 9E : ... .. . ... ... ... : ... .. 2 ... ... ... : ... .. . ... : ... .. 6 ... : ... .. . ... ... : ... .. . ... ... : ... .. . ... ... : ... .. 8 P7A ...
ROW 9F : ... .. 0 ... ... ... : ... .. 1 ... ... ... : ... .. . ... : ... .. 3 ... : ... .. . ... ... : ... .. . ... ... : ... .. . ... ... : ... .. . P77 ...
ROW A0 : ... .. . ... ... ... : ... .. . ... ... ... : ... .. . ... : ... .. 2 ... : ... .. . ... ... : ... .. 7 ... ... : ... .. 7 ... ... : ... .. . P7B ...
ROW A1 : ... .. . ... ... ... : ... .. 0 ... ... ... : ... .. . ... : ... .. 0 ... : ... .. . ... ... : ... .. . ... ... : ... .. . ... ... : ... .. . P81 ...
ROW A2 : C#2 00 D P81 ... ... : F-5 00 6 P80 ... ... : --- .. . ... : ... .. F ... : ... .. . ... ... : --- .. . P82 ... : --- .. . ... ... : --- .. . P85 ...
ROW A3 : ... .. B ... ... ... : ... .. 4 ... ... ... : ... .. . ... : ... .. C ... : ... .. . ... ... : ... .. . ... ... : ... .. . ... ... : ... .. . ... ...
ROW A4 : ... .. . ... ... ... : ... .. 2 ... ... ... : ... .. . ... : ... .. 6 ... : ... .. . ... ... : ... .. . ... ... : ... .. . ... ... : ... .. . ... ...
ROW A5 : ... .. 0 ... ... ... : ... .. 1 ... ... ... : ... .. . ... : ... .. 3 ... : ... .. . ... ... : ... .. . ... ... : ... .. . ... ... : ... .. . ... ...
ROW A6 : ... .. . ... ... ... : ... .. . ... ... ... : ... .. . ... : ... .. 2 ... : ... .. . ... ... : ... .. . ... ... : ... .. . ... ... : ... .. . ... ...
ROW A7 : ... .. . ... ... ... : ... .. 0 ... ... ... : ... .. . ... : ... .. 0 ... : ... .. . ... ... : ... .. . ... ... : ... .. . ... ... : ... .. . ... ...
ROW A8 : A-1 00 D P81 ... ... : F#5 00 6 P80 ... ... : G#4 00 . ... : ... .. 4 ... : ... .. . ... ... : ... .. . ... ... : ... .. . ... ... : C#3 01 F P80 ...
ROW A9 : ... .. B ... ... ... : ... .. 4 ... ... ... : A#3 00 . ... : ... .. 3 ... : ... .. . ... ... : ... .. . ... ... : ... .. . ... ... : ... .. D P88 ...
ROW AA : ... .. . ... ... ... : ... .. 2 ... ... ... : D#3 00 . ... : ... .. 1 ... : ... .. . ... ... : ... .. . ... ... : ... .. . ... ... : ... .. 8 P89 ...
ROW AB : ... .. A ... ... ... : ... .. 1 ... ... ... : D-3 00 . ... : ... .. . ... : ... .. . ... ... : ... .. . ... ... : ... .. . ... ... : ... .. . P82 ...
ROW AC : ... .. 8 ... ... ... : ... .. . ... ... ... : A-2 00 . ... : ... .. . ... : ... .. . ... ... : ... .. . ... ... : ... .. . ... ... : ... .. . P7C ...
ROW AD : ... .. 7 ... ... ... : ... .. 0 ... ... ... : ... .. . ... : ... .. 0 ... : ... .. . ... ... : ... .. . ... ... : ... .. . ... ... : ... .. . P77 ...
ROW AE : ... .. D ... ... ... : F-5 00 6 P80 ... ... : ... .. . ... : ... .. 8 ... : ... .. . ... ... : ... .. . ... ... : ... .. . ... ... : ... .. . P79 ...
ROW AF : ... .. B ... ... ... : ... .. 4 ... ... ... : ... .. . ... : ... .. 6 ... : ... .. . ... ... : ... .. . ... ... : ... .. . ... ... : ... .. . P80 ...
ROW B0 : ... .. . ... ... ... : ... .. 2 ... ... ... : ... .. . ... : ... .. 3 ... : ... .. . ... ... : ... .. . ... ... : ... .. . ... ... : ... .. . P87 ...
ROW B1 : ... .. A ... ... ... : ... .. 1 ... ... ... : ... .. . ... : ... .. 1 ... : ... .. . ... ... : ... .. . ... ... : ... .. . ... ... : ... .. . P89 ...
ROW B2 : ... .. 8 ... ... ... : ... .. . ... ... ... : ... .. . ... : ... .. . ... : ... .. . ... ... : ... .. . ... ... : ... .. . ... ... : ... .. . P83 ...
ROW B3 : ... .. 7 ... ... ... : ... .. 0 ... ... ... : ... .. . ... : ... .. 0 ... : ... .. . ... ... : ... .. . ... ... : ... .. . ... ... : ... .. . P7D ...
ROW B4 : C#2 00 D ... ... ... : E-5 00 6 P80 ... ... : ... .. . ... : ... .. F ... : ... .. . ... ... : C#3 01 9 P80 ... : A-3 01 9 ... ... : D-3 01 F P77 ...
ROW B5 : ... .. B ... ... ... : ... .. 4 ... ... ... : ... .. . ... : ... .. C ... : ... .. . ... ... : ... .. 8 ... ... : ... .. 8 ... ... : ... .. D P79 ...
ROW B6 : ... .. . ... ... ... : ... .. 2 ... ... ... : ... .. . ... : ... .. 6 ... : ... .. . ... ... : ... .. . ... ... : ... .. . ... ... : ... .. 8 P80 ...
ROW B7 : ... .. 0 ... ... ... : ... .. 1 ... ... ... : ... .. . ... : ... .. 3 ... : ... .. . ... ... : ... .. . ... ... : ... .. . ... ... : ... .. . P87 ...
ROW B8 : ... .. . ... ... ... : ... .. . ... ... ... : ... .. . ... : ... .. 2 ... : ... .. . ... ... : ... .. 7 ... ... : ... .. 7 ... ... : ... .. . P89 ...
ROW B9 : ... .. . ... ... ... : ... .. 0 ... ... ... : ... .. . ... : ... .. 0 ... : ... .. . ... ... : ... .. . ... ... : ... .. . ... ... : ... .. . P84 ...
ROW BA : D-2 00 D P81 ... ... : D#5 00 6 P80 ... ... : --- .. . ... : ... .. 2 ... : ... .. . ... ... : --- .. . P83 ... : --- .. . ... ... : ... .. . P7E ...
ROW BB : ... .. B ... ... ... : ... .. 4 ... ... ... : ... .. . ... : ... .. 1 ... : ... .. . ... ... : ... .. . ... ... : ... .. . ... ... : ... .. . P77 ...
ROW BC : ... .. . ... ... ... : ... .. 2 ... ... ... : ... .. . ... : ... .. . ... : ... .. . ... ... : ... .. . ... ... : ... .. . ... ... : ... .. . P78 ...
ROW BD : ... .. 0 ... ... ... : ... .. 1 ... ... ... : ... .. . ... : ... .. . ... : ... .. . ... ... : ... .. . ... ... : ... .. . ... ... : ... .. . P80 ...
ROW BE : ... .. . ... ... ... : ... .. . ... ... ... : ... .. . ... : ... .. . ... : ... .. . ... ... : ... .. . ... ... : ... .. . ... ... : ... .. . P86 ...
ROW BF : ... .. . ... ... ... : ... .. 0 ... ... ... : ... .. . ... : ... .. 0 ... : ... .. . ... ... : ... .. . ... ... : ... .. . ... ... : ... .. . P89 ...
ROW C0 : G-1 00 F P81 ... ... : D-5 00 6 P80 ... ... : F#4 00 . ... : ... .. 4 ... : ... .. . ... ... : G-2 01 9 P80 ... : ... .. . ... ... : --- .. . P83 ...
ROW C1 : ... .. E ... ... ... : ... .. 4 ... ... ... : G#3 00 . ... : ... .. 3 ... : ... .. . ... ... : ... .. 8 ... ... : ... .. . ... ... : ... .. . ... ...
ROW C2 : ... .. D ... ... ... : ... .. 2 ... ... ... : C#3 00 . ... : ... .. 1 ... : ... .. . ... ... : ... .. . ... ... : ... .. . ... ... : ... .. . ... ...
ROW C3 : ... .. A ... ... ... : ... .. 1 ... ... ... : --- .. . ... : ... .. . ... : ... .. . ... ... : ... .. . ... ... : ... .. . ... ... : ... .. . ... ...
ROW C4 : ... .. . ... ... ... : ... .. . ... ... ... : ... .. . ... : ... .. . ... : ... .. . ... ... : ... .. 7 ... ... : ... .. . ... ... : ... .. . ... ...
ROW C5 : ... .. . ... ... ... : ... .. 0 ... ... ... : ... .. . ... : ... .. 0 ... : ... .. . ... ... : ... .. . ... ... : ... .. . ... ... : ... .. . ... ...
ROW C6 : F#1 00 F ... ... ... : D#5 00 6 P80 ... ... : F#2 00 . ... : ... .. 8 ... : ... .. . ... ... : F#2 01 9 ... ... : ... .. . ... ... : ... .. . ... ...
ROW C7 : ... .. E ... ... ... : ... .. 4 ... ... ... : ... .. . ... : ... .. 6 ... : ... .. . ... ... : ... .. 8 ... ... : ... .. . ... ... : ... .. . ... ...
ROW C8 : ... .. D ... ... ... : ... .. 2 ... ... ... : ... .. . ... : ... .. 3 ... : ... .. . ... ... : ... .. . ... ... : ... .. . ... ... : ... .. . ... ...
ROW C9 : ... .. A ... ... ... : ... .. 1 ... ... ... : --- .. . ... : ... .. 1 ... : ... .. . ... ... : ... .. . ... ... : ... .. . ... ... : ... .. . ... ...
ROW CA : ... .. . ... ... ... : ... .. . ... ... ... : ... .. . ... : ... .. . ... : ... .. . ... ... : ... .. 7 ... ... : ... .. . ... ... : ... .. . ... ...
ROW CB : ... .. . ... ... ... : ... .. 0 ... ... ... : ... .. . ... : ... .. 0 ... : ... .. . ... ... : ... .. . ... ... : ... .. . ... ... : ... .. . ... ...
ROW CC : G-1 00 F ... ... ... : D-5 00 6 P80 ... ... : G-2 00 . ... : ... .. F ... : ... .. . ... ... : G-2 01 9 ... ... : G-3 01 9 ... ... : G-1 01 F P89 ...
ROW CD : ... .. E ... ... ... : ... .. 4 ... ... ... : ... .. . ... : ... .. C ... : ... .. . ... ... : ... .. 8 ... ... : ... .. 8 ... ... : ... .. D P8E ...
ROW CE : ... .. D ... ... ... : ... .. 2 ... ... ... : ... .. . ... : ... .. 6 ... : ... .. . ... ... : ... .. . ... ... : ... .. . ... ... : ... .. 8 P8C ...
ROW CF : ... .. A ... ... ... : ... .. 1 ... ... ... : --- .. . ... : ... .. 3 ... : ... .. . ... ... : ... .. . ... ... : ... .. . ... ... : ... .. . P85 ...
ROW D0 : ... .. . ... ... ... : ... .. . ... ... ... : ... .. . ... : ... .. 2 ... : ... .. . ... ... : ... .. 7 ... ... : ... .. 7 ... ... : ... .. . P7E ...
ROW D1 : ... .. . ... ... ... : ... .. 0 ... ... ... : ... .. . ... : ... .. 0 ... : ... .. . ... ... : ... .. . ... ... : ... .. . ... ... : ... .. . P7C ...
ROW D2 : A-1 00 F ... ... ... : D#5 00 6 P80 ... ... : A-2 00 . ... : ... .. 4 ... : ... .. . ... ... : A-2 01 9 ... ... : --- .. . P81 ... : ... .. . P82 ...
ROW D3 : ... .. E ... ... ... : ... .. 4 ... ... ... : ... .. . ... : ... .. 3 ... : ... .. . ... ... : ... .. 8 ... ... : ... .. . ... ... : ... .. 4 P88 ...
ROW D4 : ... .. D ... ... ... : ... .. 2 ... ... ... : ... .. . ... : ... .. 1 ... : ... .. . ... ... : ... .. . ... ... : ... .. . ... ... : ... .. . P8E ...
ROW D5 : ... .. A ... ... ... : ... .. 1 ... ... ... : --- .. . ... : ... .. . ... : ... .. . ... ... : ... .. . ... ... : ... .. . ... ... : ... .. 1 P8C ...
ROW D6 : ... .. . ... ... ... : ... .. . ... ... ... : ... .. . ... : ... .. . ... : ... .. . ... ... : ... .. 7 ... ... : ... .. . ... ... : ... .. . P85 ...
ROW D7 : ... .. . ... ... ... : ... .. 0 ... ... ... : ... .. . ... : ... .. 0 ... : ... .. . ... ... : ... .. . ... ... : ... .. . ... ... : ... .. . P7E ...
ROW D8 : A#1 00 F ... ... ... : D-5 00 6 P80 ... ... : A-4 00 . ... : ... .. 2 ... : ... .. . ... ... : A#2 01 9 ... ... : A#3 01 9 P80 ... : A#1 01 F P7C ...
ROW D9 : ... .. E ... ... ... : ... .. 4 ... ... ... : B-3 00 . ... : ... .. 1 ... : ... .. . ... ... : ... .. 8 ... ... : ... .. 8 ... ... : ... .. D P81 ...
ROW DA : ... .. D ... ... ... : ... .. 2 ... ... ... : E-3 00 . ... : ... .. . ... : ... .. . ... ... : ... .. . ... ... : ... .. . ... ... : ... .. 8 P87 ...
ROW DB : ... .. A ... ... ... : ... .. 1 ... ... ... : D#3 00 . ... : ... .. . ... : ... .. . ... ... : ... .. . ... ... : ... .. . ... ... : ... .. . P8E ...
ROW DC : ... .. . ... ... ... : ... .. . ... ... ... : A#2 00 . ... : ... .. . ... : ... .. . ... ... : ... .. 7 ... ... : ... .. 7 ... ... : ... .. . P8D ...
ROW DD : ... .. . ... ... ... : ... .. 0 ... ... ... : ... .. . ... : ... .. 0 ... : ... .. . ... ... : ... .. . ... ... : ... .. . ... ... : ... .. . P85 ...
ROW DE : ... .. 0 ... ... ... : D#5 00 6 P80 ... ... : ... .. . ... : ... .. 4 ... : ... .. . ... ... : --- .. . P82 ... : ... .. . ... ... : ... .. . P7F ...
ROW DF : ... .. . ... ... ... : ... .. 4 ... ... ... : ... .. . ... : ... .. 3 ... : ... .. . ... ... : ... .. . ... ... : ... .. 6 ... ... : ... .. 4 P7C ...
ROW E0 : ... .. . ... ... ... : ... .. 2 ... ... ... : ... .. . ... : ... .. 1 ... : ... .. . ... ... : ... .. . ... ... : ... .. . ... ... : ... .. . P80 ...
ROW E1 : ... .. . ... ... ... : ... .. 1 ... ... ... : --- .. . ... : ... .. . ... : ... .. . ... ... : ... .. . ... ... : ... .. . ... ... : ... .. 1 P86 ...
ROW E2 : ... .. . ... ... ... : ... .. . ... ... ... : ... .. . ... : ... .. . ... : ... .. . ... ... : ... .. . ... ... : ... .. . ... ... : ... .. . P8D ...
ROW E3 : ... .. . ... ... ... : ... .. 0 ... ... ... : ... .. . ... : ... .. 0 ... : ... .. . ... ... : ... .. . ... ... : ... .. . ... ... : ... .. . ... ...
ROW E4 : D-1 00 F P81 ... ... : D-5 00 6 P80 ... ... : C#4 00 . ... : ... .. F ... : ... .. . ... ... : D-2 01 9 P80 ... : D-3 01 9 ... ... : D-1 01 F P86 ...
ROW E5 : ... .. E ... ... ... : ... .. 4 ... ... ... : D#3 00 . ... : ... .. C ... : ... .. . ... ... : ... .. 8 ... ... : ... .. 8 ... ... : ... .. D P80 ...
ROW E6 : ... .. D ... ... ... : ... .. 2 ... ... ... : G#2 00 . ... : ... .. 6 ... : ... .. . ... ... : ... .. . ... ... : ... .. . ... ... : ... .. 8 P7C ...
ROW E7 : ... .. A ... ... ... : ... .. 1 ... ... ... : G-2 00 . ... : ... .. 3 ... : ... .. . ... ... : ... .. . ... ... : ... .. . ... ... : ... .. . P7F ...
ROW E8 : ... .. . ... ... ... : ... .. . ... ... ... : D-2 00 . ... : ... .. 2 ... : ... .. . ... ... : ... .. 7 ... ... : ... .. 7 ... ... : ... .. . P85 ...
ROW E9 : ... .. . ... ... ... : ... .. 0 ... ... ... : ... .. . ... : ... .. 0 ... : ... .. . ... ... : ... .. . ... ... : ... .. . ... ... : ... .. . P8D ...
ROW EA : ... .. 0 ... ... ... : D#5 00 6 P80 ... ... : ... .. . ... : ... .. F ... : ... .. . ... ... : --- .. . P84 ... : --- .. . P82 ... : ... .. . P8E ...
ROW EB : ... .. . ... ... ... : ... .. 4 ... ... ... : ... .. . ... : ... .. C ... : ... .. . ... ... : ... .. . ... ... : ... .. . ... ... : ... .. . P87 ...
ROW EC : ... .. . ... ... ... : ... .. 2 ... ... ... : ... .. . ... : ... .. 6 ... : ... .. . ... ... : ... .. . ... ... : ... .. . ... ... : ... .. . P81 ...
ROW ED : ... .. . ... ... ... : ... .. 1 ... ... ... : --- .. . ... : ... .. 3 ... : ... .. . ... ... : ... .. . ... ... : ... .. . ... ... : ... .. . P7C ...
ROW EE : ... .. . ... ... ... : ... .. . ... ... ... : ... .. . ... : ... .. 2 ... : ... .. . ... ... : ... .. . ... ... : ... .. . ... ... : ... .. . P7E ...
ROW EF : ... .. . ... ... ... : ... .. 0 ... ... ... : ... .. . ... : ... .. 0 ... : ... .. . ... ... : ... .. . ... ... : ... .. . ... ... : ... .. . P85 ...
ROW F0 : A#1 00 F P81 ... ... : D-5 00 6 P80 ... ... : F#4 00 . ... : ... .. 2 ... : ... .. . ... ... : A#2 01 9 P80 ... : ... .. . ... ... : ... .. . P8C ...
ROW F1 : ... .. E ... ... ... : ... .. 4 ... ... ... : G#3 00 . ... : ... .. 1 ... : ... .. . ... ... : ... .. 8 ... ... : ... .. . ... ... : ... .. 4 P8E ...
ROW F2 : ... .. D ... ... ... : ... .. 2 ... ... ... : C#3 00 . ... : ... .. . ... : ... .. . ... ... : ... .. . ... ... : ... .. . ... ... : ... .. . P88 ...
ROW F3 : ... .. A ... ... ... : ... .. 1 ... ... ... : --- .. . ... : ... .. . ... : ... .. . ... ... : ... .. . ... ... : ... .. . ... ... : ... .. 1 P82 ...
ROW F4 : ... .. . ... ... ... : ... .. . ... ... ... : ... .. . ... : ... .. . ... : ... .. . ... ... : ... .. 7 ... ... : ... .. . ... ... : ... .. . P7C ...
ROW F5 : ... .. . ... ... ... : ... .. 0 ... ... ... : ... .. . ... : ... .. 0 ... : ... .. . ... ... : ... .. . ... ... : ... .. . ... ... : ... .. . P7E ...
ROW F6 : A-1 00 F ... ... ... : C#5 00 6 P80 ... ... : F#2 00 . ... : ... .. 4 ... : ... .. . ... ... : A-2 01 9 ... ... : ... .. . ... ... : ... .. . P85 ...
ROW F7 : ... .. E ... ... ... : ... .. 4 ... ... ... : ... .. . ... : ... .. 3 ... : ... .. . ... ... : ... .. 8 ... ... : ... .. . ... ... : ... .. . P8C ...
ROW F8 : ... .. D ... ... ... : ... .. 2 ... ... ... : ... .. . ... : ... .. 1 ... : ... .. . ... ... : ... .. . ... ... : ... .. . ... ... : ... .. . P8E ...
ROW F9 : ... .. A ... ... ... : ... .. 1 ... ... ... : --- .. . ... : ... .. . ... : ... .. . ... ... : ... .. . ... ... : ... .. . ... ... : ... .. . P89 ...
ROW FA : ... .. . ... ... ... : ... .. . ... ... ... : ... .. . ... : ... .. . ... : ... .. . ... ... : ... .. 7 ... ... : ... .. . ... ... : ... .. 0 P83 ...
ROW FB : ... .. . ... ... ... : ... .. 0 ... ... ... : ... .. . ... : ... .. 0 ... : ... .. . ... ... : ... .. . ... ... : ... .. . ... ... : ... .. . P7C ...
ROW FC : G-1 00 F ... ... ... : C-5 00 6 P80 ... ... : G-2 00 . ... : ... .. F ... : ... .. . ... ... : G-2 01 9 ... ... : G-3 01 9 P80 ... : G-1 01 F P7D ...
ROW FD : ... .. E ... ... ... : ... .. 4 ... ... ... : ... .. . ... : ... .. C ... : ... .. . ... ... : ... .. 8 ... ... : ... .. 8 ... ... : ... .. D P85 ...
ROW FE : ... .. D ... ... ... : ... .. 2 ... ... ... : ... .. . ... : ... .. 6 ... : ... .. . ... ... : ... .. . ... ... : ... .. . ... ... : ... .. 8 P8B ...
ROW FF : ... .. A ... ... ... : ... .. 1 ... ... ... : --- .. . ... : ... .. 3 ... : ... .. . ... ... : ... .. . ... ... : ... .. . ... ... : ... .. . P8E ...

PATTERN 0D
ROW 00 : ... .. . ... ... ... : ... .. . ... ... ... : ... .. . ... : ... .. 2 ... : ... .. . ... ... : ... .. 7 ... ... : ... .. 7 ... ... : ... .. . P8A ...
ROW 01 : ... .. . ... ... ... : ... .. 0 ... ... ... : ... .. . ... : ... .. 0 ... : ... .. . ... ... : ... .. . ... ... : ... .. . ... ... : ... .. . P84 ...
ROW 02 : A-1 00 F ... ... ... : B-4 00 6 P80 ... ... : A-2 00 . ... : ... .. F ... : ... .. . ... ... : A-2 01 9 ... ... : --- .. . P81 ... : ... .. . P7D ...
ROW 03 : ... .. E ... ... ... : ... .. 4 ... ... ... : ... .. . ... : ... .. C ... : ... .. . ... ... : ... .. 8 ... ... : ... .. . ... ... : ... .. 4 ... ...
ROW 04 : ... .. D ... ... ... : ... .. 2 ... ... ... : ... .. . ... : ... .. 6 ... : ... .. . ... ... : ... .. . ... ... : ... .. . ... ... : ... .. . P84 ...
ROW 05 : ... .. A ... ... ... : ... .. 1 ... ... ... : --- .. . ... : ... .. 3 ... : ... .. . ... ... : ... .. . ... ... : ... .. . ... ... : ... .. 1 P8A ...
ROW 06 : ... .. . ... ... ... : ... .. . ... ... ... : ... .. . ... : ... .. 2 ... : ... .. . ... ... : ... .. 7 ... ... : ... .. . ... ... : ... .. . P8E ...
ROW 07 : ... .. . ... ... ... : ... .. 0 ... ... ... : ... .. . ... : ... .. 0 ... : ... .. . ... ... : ... .. . ... ... : ... .. . ... ... : ... .. . P8B ...
ROW 08 : A#1 00 F ... ... ... : A#4 00 6 P80 ... ... : A-4 00 . ... : ... .. 4 ... : ... .. . ... ... : A#2 01 9 ... ... : A#3 01 9 P80 ... : A#1 01 F P85 ...
ROW 09 : ... .. E ... ... ... : ... .. 4 ... ... ... : B-3 00 . ... : ... .. 3 ... : ... .. . ... ... : ... .. 8 ... ... : ... .. 8 ... ... : ... .. D P7D ...
ROW 0A : ... .. D ... ... ... : ... .. 2 ... ... ... : E-3 00 . ... : ... .. 1 ... : ... .. . ... ... : ... .. . ... ... : ... .. . ... ... : ... .. 8 P7C ...
ROW 0B : ... .. A ... ... ... : ... .. 1 ... ... ... : D#3 00 . ... : ... .. . ... : ... .. . ... ... : ... .. . ... ... : ... .. . ... ... : ... .. . P83 ...
ROW 0C : ... .. . ... ... ... : ... .. . ... ... ... : A#2 00 . ... : ... .. . ... : ... .. . ... ... : ... .. 7 ... ... : ... .. 7 ... ... : ... .. . P89 ...
ROW 0D : ... .. . ... ... ... : ... .. 0 ... ... ... : ... .. . ... : ... .. 0 ... : ... .. . ... ... : ... .. . ... ... : ... .. . ... ... : ... .. . P8E ...
ROW 0E : ... .. 0 ... ... ... : B-4 00 6 P80 ... ... : ... .. . ... : ... .. 8 ... : ... .. . ... ... : --- .. . P82 ... : ... .. . ... ... : ... .. . P8C ...
ROW 0F : ... .. . ... ... ... : ... .. 4 ... ... ... : ... .. . ... : ... .. 6 ... : ... .. . ... ... : ... .. . ... ... : ... .. 6 ... ... : ... .. 4 P85 ...
ROW 10 : ... .. . ... ... ... : ... .. 2 ... ... ... : ... .. . ... : ... .. 3 ... : ... .. . ... ... : ... .. . ... ... : ... .. . ... ... : ... .. . P7E ...
ROW 11 : ... .. . ... ... ... : ... .. 1 ... ... ... : --- .. . ... : ... .. 1 ... : ... .. . ... ... : ... .. . ... ... : ... .. . ... ... : ... .. 1 P7C ...
ROW 12 : ... .. . ... ... ... : ... .. . ... ... ... : ... .. . ... : ... .. . ... : ... .. . ... ... : ... .. . ... ... : ... .. . ... ... : ... .. . P82 ...
ROW 13 : ... .. . ... ... ... : ... .. 0 ... ... ... : ... .. . ... : ... .. 0 ... : ... .. . ... ... : ... .. . ... ... : ... .. . ... ... : ... .. . P88 ...
ROW 14 : D-1 00 F P81 ... ... : C-5 00 6 P80 ... ... : C#4 00 . ... : ... .. F ... : ... .. . ... ... : D-2 01 9 P80 ... : D-3 01 9 ... ... : D-1 01 F P8E ...
ROW 15 : ... .. E ... ... ... : ... .. 4 ... ... ... : D#3 00 . ... : ... .. C ... : ... .. . ... ... : ... .. 8 ... ... : ... .. 8 ... ... : ... .. D P8C ...
ROW 16 : ... .. D ... ... ... : ... .. 2 ... ... ... : G#2 00 . ... : ... .. 6 ... : ... .. . ... ... : ... .. . ... ... : ... .. . ... ... : ... .. 8 P85 ...
ROW 17 : ... .. A ... ... ... : ... .. 1 ... ... ... : G-2 00 . ... : ... .. 3 ... : ... .. . ... ... : ... .. . ... ... : ... .. . ... ... : ... .. . P7E ...
ROW 18 : ... .. . ... ... ... : ... .. . ... ... ... : D-2 00 . ... : ... .. 2 ... : ... .. . ... ... : ... .. 7 ... ... : ... .. 7 ... ... : ... .. . P7C ...
ROW 19 : ... .. . ... ... ... : ... .. 0 ... ... ... : ... .. . ... : ... .. 0 ... : ... .. . ... ... : ... .. . ... ... : ... .. . ... ... : ... .. . P81 ...
ROW 1A : ... .. . ... ... ... : C#5 00 6 P80 ... ... : ... .. . ... : ... .. 2 ... : ... .. . ... ... : --- .. . P84 ... : --- .. . P82 ... : ... .. . P87 ...
ROW 1B : ... .. . ... ... ... : ... .. 4 ... ... ... : ... .. . ... : ... .. 1 ... : ... .. . ... ... : ... .. . ... ... : ... .. . ... ... : ... .. . P8E ...
ROW 1C : ... .. . ... ... ... : ... .. 2 ... ... ... : ... .. . ... : ... .. . ... : ... .. . ... ... : ... .. . ... ... : ... .. . ... ... : ... .. . P8D ...
ROW 1D : ... .. 0 ... ... ... : ... .. 1 ... ... ... : --- .. . ... : ... .. . ... : ... .. . ... ... : ... .. . ... ... : ... .. . ... ... : ... .. . P85 ...
ROW 1E : ... .. . ... ... ... : ... .. . ... ... ... : ... .. . ... : ... .. . ... : ... .. . ... ... : ... .. . ... ... : ... .. . ... ... : ... .. . P7F ...
ROW 1F : ... .. . ... ... ... : ... .. 0 ... ... ... : ... .. . ... : ... .. 0 ... : ... .. . ... ... : ... .. . ... ... : ... .. . ... ... : ... .. . P7C ...
ROW 20 : G-1 00 D P81 ... ... : D-5 00 6 P80 ... ... : F#4 00 . ... : ... .. 4 ... : ... .. . ... ... : ... .. . ... ... : ... .. . ... ... : ... .. . P7B ...
ROW 21 : ... .. B ... ... ... : ... .. 4 ... ... ... : G#3 00 . ... : ... .. 3 ... : ... .. . ... ... : ... .. . ... ... : ... .. . ... ... : ... .. 4 P81 ...
ROW 22 : ... .. . ... ... ... : ... .. 2 ... ... ... : C#3 00 . ... : ... .. 1 ... : ... .. . ... ... : ... .. . ... ... : ... .. . ... ... : ... .. . P88 ...
ROW 23 : ... .. A ... ... ... : ... .. 1 ... ... ... : C-3 00 . ... : ... .. . ... : ... .. . ... ... : ... .. . ... ... : ... .. . ... ... : ... .. 1 ... ...
ROW 24 : ... .. 8 ... ... ... : ... .. . ... ... ... : G-2 00 . ... : ... .. . ... : ... .. . ... ... : ... .. . ... ... : ... .. . ... ... : ... .. . P81 ...
ROW 25 : ... .. 7 ... ... ... : ... .. 0 ... ... ... : ... .. . ... : ... .. 0 ... : ... .. . ... ... : ... .. . ... ... : ... .. . ... ... : ... .. . P7B ...
ROW 26 : ... .. 6 ... ... ... : D#5 00 6 P80 ... ... : ... .. . ... : ... .. 8 ... : ... .. . ... ... : ... .. . ... ... : ... .. . ... ... : ... .. . P77 ...
ROW 27 : ... .. . ... ... ... : ... .. 4 ... ... ... : ... .. . ... : ... .. 6 ... : ... .. . ... ... : ... .. . ... ... : ... .. . ... ... : ... .. . P7A ...
ROW 28 : ... .. 5 ... ... ... : ... .. 2 ... ... ... : ... .. . ... : ... .. 3 ... : ... .. . ... ... : ... .. . ... ... : ... .. . ... ... : ... .. . P80 ...
ROW 29 : ... .. . ... ... ... : ... .. 1 ... ... ... : ... .. . ... : ... .. 1 ... : ... .. . ... ... : ... .. . ... ... : ... .. . ... ... : ... .. . P88 ...
ROW 2A : ... .. 4 ... ... ... : ... .. . ... ... ... : ... .. . ... : ... .. . ... : ... .. . ... ... : ... .. . ... ... : ... .. . ... ... : ... .. 0 P89 ...
ROW 2B : ... .. . ... ... ... : ... .. 0 ... ... ... : ... .. . ... : ... .. 0 ... : ... .. . ... ... : ... .. . ... ... : ... .. . ... ... : ... .. . P82 ...
ROW 2C : D-2 00 D ... ... ... : D-5 00 6 P80 ... ... : ... .. . ... : ... .. F ... : ... .. . ... ... : G-3 01 9 P80 ... : A#3 01 9 P80 ... : D-3 01 F P7C ...
ROW 2D : ... .. B ... ... ... : ... .. 4 ... ... ... : ... .. . ... : ... .. C ... : ... .. . ... ... : ... .. 8 ... ... : ... .. 8 ... ... : ... .. D P77 ...
ROW 2E : ... .. . ... ... ... : ... .. 2 ... ... ... : ... .. . ... : ... .. 6 ... : ... .. . ... ... : ... .. . ... ... : ... .. . ... ... : ... .. 8 P79 ...
ROW 2F : ... .. 0 ... ... ... : ... .. 1 ... ... ... : --- .. . ... : ... .. 3 ... : ... .. . ... ... : ... .. . ... ... : ... .. . ... ... : ... .. . P80 ...
ROW 30 : ... .. . ... ... ... : ... .. . ... ... ... : ... .. . ... : ... .. 2 ... : ... .. . ... ... : ... .. 7 ... ... : ... .. 7 ... ... : ... .. . P87 ...
ROW 31 : ... .. . ... ... ... : ... .. 0 ... ... ... : ... .. . ... : ... .. 0 ... : ... .. . ... ... : ... .. . ... ... : ... .. . ... ... : ... .. . P89 ...
ROW 32 : D-2 00 D P81 ... ... : D#5 00 6 P80 ... ... : ... .. . ... : ... .. 4 ... : ... .. . ... ... : --- .. . P81 ... : --- .. . ... ... : --- .. . P83 ...
ROW 33 : ... .. B ... ... ... : ... .. 4 ... ... ... : ... .. . ... : ... .. 3 ... : ... .. . ... ... : ... .. . ... ... : ... .. . ... ... : ... .. . ... ...
ROW 34 : ... .. . ... ... ... : ... .. 2 ... ... ... : ... .. . ... : ... .. 1 ... : ... .. . ... ... : ... .. . ... ... : ... .. . ... ... : ... .. . ... ...
ROW 35 : ... .. 0 ... ... ... : ... .. 1 ... ... ... : ... .. . ... : ... .. . ... : ... .. . ... ... : ... .. . ... ... : ... .. . ... ... : ... .. . ... ...
ROW 36 : ... .. . ... ... ... : ... .. . ... ... ... : ... .. . ... : ... .. . ... : ... .. . ... ... : ... .. . ... ... : ... .. . ... ... : ... .. . ... ...
ROW 37 : ... .. . ... ... ... : ... .. 0 ... ... ... : ... .. . ... : ... .. 0 ... : ... .. . ... ... : ... .. . ... ... : ... .. . ... ... : ... .. . ... ...
ROW 38 : C#2 00 D P81 ... ... : D-5 00 6 P80 ... ... : C#4 00 . ... : ... .. 2 ... : ... .. . ... ... : ... .. . ... ... : ... .. . ... ... : C#3 01 F P89 ...
ROW 39 : ... .. B ... ... ... : ... .. 4 ... ... ... : D#3 00 . ... : ... .. 1 ... : ... .. . ... ... : ... .. . ... ... : ... .. . ... ... : ... .. D P84 ...
ROW 3A : ... .. . ... ... ... : ... .. 2 ... ... ... : G#2 00 . ... : ... .. . ... : ... .. . ... ... : ... .. . ... ... : ... .. . ... ... : ... .. 8 P7E ...
ROW 3B : ... .. A ... ... ... : ... .. 1 ... ... ... : G-2 00 . ... : ... .. . ... : ... .. . ... ... : ... .. . ... ... : ... .. . ... ... : ... .. . P77 ...
ROW 3C : ... .. 8 ... ... ... : ... .. . ... ... ... : D-2 00 . ... : ... .. . ... : ... .. . ... ... : ... .. . ... ... : ... .. . ... ... : ... .. . P78 ...
ROW 3D : ... .. 7 ... ... ... : ... .. 0 ... ... ... : ... .. . ... : ... .. 0 ... : ... .. . ... ... : ... .. . ... ... : ... .. . ... ... : ... .. . P80 ...
ROW 3E : ... .. D ... ... ... : D#5 00 6 P80 ... ... : ... .. . ... : ... .. 4 ... : ... .. . ... ... : ... .. . ... ... : ... .. . ... ... : ... .. . P86 ...
ROW 3F : ... .. B ... ... ... : ... .. 4 ... ... ... : ... .. . ... : ... .. 3 ... : ... .. . ... ... : ... .. . ... ... : ... .. . ... ... : ... .. . P89 ...
ROW 40 : ... .. . ... ... ... : ... .. 2 ... ... ... : ... .. . ... : ... .. 1 ... : ... .. . ... ... : ... .. . ... ... : ... .. . ... ... : ... .. . P85 ...
ROW 41 : ... .. A ... ... ... : ... .. 1 ... ... ... : ... .. . ... : ... .. . ... : ... .. . ... ... : ... .. . ... ... : ... .. . ... ... : ... .. . P7F ...
ROW 42 : ... .. 8 ... ... ... : ... .. . ... ... ... : ... .. . ... : ... .. . ... : ... .. . ... ... : ... .. . ... ... : ... .. . ... ... : ... .. . P78 ...
ROW 43 : ... .. 7 ... ... ... : ... .. 0 ... ... ... : ... .. . ... : ... .. 0 ... : ... .. . ... ... : ... .. . ... ... : ... .. . ... ... : ... .. . ... ...
ROW 44 : D-2 00 D ... ... ... : D-5 00 6 P80 ... ... : ... .. . ... : ... .. F ... : ... .. . ... ... : F#3 01 9 P80 ... : A#3 01 9 ... ... : D-3 01 F P7F ...
ROW 45 : ... .. B ... ... ... : ... .. 4 ... ... ... : ... .. . ... : ... .. C ... : ... .. . ... ... : ... .. 8 ... ... : ... .. 8 ... ... : ... .. D P85 ...
ROW 46 : ... .. . ... ... ... : ... .. 2 ... ... ... : ... .. . ... : ... .. 6 ... : ... .. . ... ... : ... .. . ... ... : ... .. . ... ... : ... .. 8 P89 ...
ROW 47 : ... .. 0 ... ... ... : ... .. 1 ... ... ... : --- .. . ... : ... .. 3 ... : ... .. . ... ... : ... .. . ... ... : ... .. . ... ... : ... .. . P86 ...
ROW 48 : ... .. . ... ... ... : ... .. . ... ... ... : ... .. . ... : ... .. 2 ... : ... .. . ... ... : ... .. 7 ... ... : ... .. 7 ... ... : ... .. . P80 ...
ROW 49 : ... .. . ... ... ... : ... .. 0 ... ... ... : ... .. . ... : ... .. 0 ... : ... .. . ... ... : ... .. . ... ... : ... .. . ... ... : ... .. . P78 ...
ROW 4A : D-2 00 D P81 ... ... : D#5 00 6 P80 ... ... : ... .. . ... : ... .. F ... : ... .. . ... ... : --- .. . P7F ... : --- .. . ... ... : --- .. . P7C ...
ROW 4B : ... .. B ... ... ... : ... .. 4 ... ... ... : ... .. . ... : ... .. C ... : ... .. . ... ... : ... .. . ... ... : ... .. . ... ... : ... .. . ... ...
ROW 4C : ... .. . ... ... ... : ... .. 2 ... ... ... : ... .. . ... : ... .. 6 ... : ... .. . ... ... : ... .. . ... ... : ... .. . ... ... : ... .. . ... ...
ROW 4D : ... .. 0 ... ... ... : ... .. 1 ... ... ... : ... .. . ... : ... .. 3 ... : ... .. . ... ... : ... .. . ... ... : ... .. . ... ... : ... .. . ... ...
ROW 4E : ... .. . ... ... ... : ... .. . ... ... ... : ... .. . ... : ... .. 2 ... : ... .. . ... ... : ... .. . ... ... : ... .. . ... ... : ... .. . ... ...
ROW 4F : ... .. . ... ... ... : ... .. 0 ... ... ... : ... .. . ... : ... .. 0 ... : ... .. . ... ... : ... .. . ... ... : ... .. . ... ... : ... .. . ... ...
ROW 50 : A#1 00 D P81 ... ... : D-5 00 6 P80 ... ... : A-4 00 . ... : ... .. 2 ... : ... .. . ... ... : ... .. . ... ... : ... .. . ... ... : D#3 01 F P79 ...
ROW 51 : ... .. B ... ... ... : ... .. 4 ... ... ... : B-3 00 . ... : ... .. 1 ... : ... .. . ... ... : ... .. . ... ... : ... .. . ... ... : ... .. D P77 ...
ROW 52 : ... .. . ... ... ... : ... .. 2 ... ... ... : E-3 00 . ... : ... .. . ... : ... .. . ... ... : ... .. . ... ... : ... .. . ... ... : ... .. 8 P7D ...
ROW 53 : ... .. A ... ... ... : ... .. 1 ... ... ... : D#3 00 . ... : ... .. . ... : ... .. . ... ... : ... .. . ... ... : ... .. . ... ... : ... .. . P83 ...
ROW 54 : ... .. 8 ... ... ... : ... .. . ... ... ... : A#2 00 . ... : ... .. . ... : ... .. . ... ... : ... .. . ... ... : ... .. . ... ... : ... .. . P89 ...
ROW 55 : ... .. 7 ... ... ... : ... .. 0 ... ... ... : ... .. . ... : ... .. 0 ... : ... .. . ... ... : ... .. . ... ... : ... .. . ... ... : ... .. . P87 ...
ROW 56 : ... .. D ... ... ... : D#5 00 6 P80 ... ... : ... .. . ... : ... .. 4 ... : ... .. . ... ... : ... .. . ... ... : ... .. . ... ... : ... .. . P80 ...
ROW 57 : ... .. B ... ... ... : ... .. 4 ... ... ... : ... .. . ... : ... .. 3 ... : ... .. . ... ... : ... .. . ... ... : ... .. . ... ... : ... .. . P79 ...
ROW 58 : ... .. . ... ... ... : ... .. 2 ... ... ... : ... .. . ... : ... .. 1 ... : ... .. . ... ... : ... .. . ... ... : ... .. . ... ... : ... .. . P77 ...
ROW 59 : ... .. A ... ... ... : ... .. 1 ... ... ... : ... .. . ... : ... .. . ... : ... .. . ... ... : ... .. . ... ... : ... .. . ... ... : ... .. . P7C ...
ROW 5A : ... .. 8 ... ... ... : ... .. . ... ... ... : ... .. . ... : ... .. . ... : ... .. . ... ... : ... .. . ... ... : ... .. . ... ... : ... .. . P82 ...
ROW 5B : ... .. 7 ... ... ... : ... .. 0 ... ... ... : ... .. . ... : ... .. 0 ... : ... .. . ... ... : ... .. . ... ... : ... .. . ... ... : ... .. . P89 ...
ROW 5C : D-2 00 D ... ... ... : E-5 00 6 P80 ... ... : ... .. . ... : ... .. F ... : ... .. . ... ... : F-3 01 9 P80 ... : A#3 01 9 ... ... : D-3 01 F P88 ...
ROW 5D : ... .. B ... ... ... : ... .. 4 ... ... ... : ... .. . ... : ... .. C ... : ... .. . ... ... : ... .. 8 ... ... : ... .. 8 ... ... : ... .. D P80 ...
ROW 5E : ... .. . ... ... ... : ... .. 2 ... ... ... : ... .. . ... : ... .. 6 ... : ... .. . ... ... : ... .. . ... ... : ... .. . ... ... : ... .. 8 P7A ...
ROW 5F : ... .. 0 ... ... ... : ... .. 1 ... ... ... : --- .. . ... : ... .. 3 ... : ... .. . ... ... : ... .. . ... ... : ... .. . ... ... : ... .. . P77 ...
ROW 60 : ... .. . ... ... ... : ... .. . ... ... ... : ... .. . ... : ... .. 2 ... : ... .. . ... ... : ... .. 7 ... ... : ... .. 7 ... ... : ... .. . P7B ...
ROW 61 : ... .. . ... ... ... : ... .. 0 ... ... ... : ... .. . ... : ... .. 0 ... : ... .. . ... ... : ... .. . ... ... : ... .. . ... ... : ... .. . P81 ...
ROW 62 : D-2 00 D P81 ... ... : F-5 00 6 P80 ... ... : ... .. . ... : ... .. F ... : ... .. . ... ... : --- .. . ... ... : --- .. . ... ... : --- .. . P85 ...
ROW 63 : ... .. B ... ... ... : ... .. 4 ... ... ... : ... .. . ... : ... .. C ... : ... .. . ... ... : ... .. . ... ... : ... .. . ... ... : ... .. . ... ...
ROW 64 : ... .. . ... ... ... : ... .. 2 ... ... ... : ... .. . ... : ... .. 6 ... : ... .. . ... ... : ... .. . ... ... : ... .. . ... ... : ... .. . ... ...
ROW 65 : ... .. 0 ... ... ... : ... .. 1 ... ... ... : ... .. . ... : ... .. 3 ... : ... .. . ... ... : ... .. . ... ... : ... .. . ... ... : ... .. . ... ...
ROW 66 : ... .. . ... ... ... : ... .. . ... ... ... : ... .. . ... : ... .. 2 ... : ... .. . ... ... : ... .. . ... ... : ... .. . ... ... : ... .. . ... ...
ROW 67 : ... .. . ... ... ... : ... .. 0 ... ... ... : ... .. . ... : ... .. 0 ... : ... .. . ... ... : ... .. . ... ... : ... .. . ... ... : ... .. . ... ...
ROW 68 : D#2 00 D P81 ... ... : F#5 00 6 P80 ... ... : G#4 00 . ... : ... .. 4 ... : ... .. . ... ... : ... .. . ... ... : ... .. . ... ... : C#3 01 F P80 ...
ROW 69 : ... .. B ... ... ... : ... .. 4 ... ... ... : A#3 00 . ... : ... .. 3 ... : ... .. . ... ... : ... .. . ... ... : ... .. . ... ... : ... .. D P88 ...
ROW 6A : ... .. . ... ... ... : ... .. 2 ... ... ... : D#3 00 . ... : ... .. 1 ... : ... .. . ... ... : ... .. . ... ... : ... .. . ... ... : ... .. 8 P89 ...
ROW 6B : ... .. A ... ... ... : ... .. 1 ... ... ... : D-3 00 . ... : ... .. . ... : ... .. . ... ... : ... .. . ... ... : ... .. . ... ... : ... .. . P82 ...
ROW 6C : ... .. 8 ... ... ... : ... .. . ... ... ... : A-2 00 . ... : ... .. . ... : ... .. . ... ... : ... .. . ... ... : ... .. . ... ... : ... .. . P7C ...
ROW 6D : ... .. 7 ... ... ... : ... .. 0 ... ... ... : ... .. . ... : ... .. 0 ... : ... .. . ... ... : ... .. . ... ... : ... .. . ... ... : ... .. . P77 ...
ROW 6E : D-2 00 D ... ... ... : F-5 00 6 P80 ... ... : ... .. . ... : ... .. 8 ... : ... .. . ... ... : ... .. . ... ... : ... .. . ... ... : ... .. . P79 ...
ROW 6F : ... .. B ... ... ... : ... .. 4 ... ... ... : ... .. . ... : ... .. 6 ... : ... .. . ... ... : ... .. . ... ... : ... .. . ... ... : ... .. . P80 ...
ROW 70 : ... .. . ... ... ... : ... .. 2 ... ... ... : ... .. . ... : ... .. 3 ... : ... .. . ... ... : ... .. . ... ... : ... .. . ... ... : ... .. . P87 ...
ROW 71 : ... .. A ... ... ... : ... .. 1 ... ... ... : ... .. . ... : ... .. 1 ... : ... .. . ... ... : ... .. . ... ... : ... .. . ... ... : ... .. . P89 ...
ROW 72 : ... .. 8 ... ... ... : ... .. . ... ... ... : ... .. . ... : ... .. . ... : ... .. . ... ... : ... .. . ... ... : ... .. . ... ... : ... .. . P83 ...
ROW 73 : ... .. 7 ... ... ... : ... .. 0 ... ... ... : ... .. . ... : ... .. 0 ... : ... .. . ... ... : ... .. . ... ... : ... .. . ... ... : ... .. . P7D ...
ROW 74 : A#1 00 D ... ... ... : E-5 00 6 P80 ... ... : ... .. . ... : ... .. F ... : ... .. . ... ... : E-3 01 9 ... ... : A#3 01 9 ... ... : D-3 01 F P77 ...
ROW 75 : ... .. B ... ... ... : ... .. 4 ... ... ... : ... .. . ... : ... .. C ... : ... .. . ... ... : ... .. 8 ... ... : ... .. 8 ... ... : ... .. D P79 ...
ROW 76 : ... .. . ... ... ... : ... .. 2 ... ... ... : ... .. . ... : ... .. 6 ... : ... .. . ... ... : ... .. . ... ... : ... .. . ... ... : ... .. 8 P80 ...
ROW 77 : ... .. 0 ... ... ... : ... .. 1 ... ... ... : --- .. . ... : ... .. 3 ... : ... .. . ... ... : ... .. . ... ... : ... .. . ... ... : ... .. . P87 ...
ROW 78 : ... .. . ... ... ... : ... .. . ... ... ... : ... .. . ... : ... .. 2 ... : ... .. . ... ... : ... .. 7 ... ... : ... .. 7 ... ... : ... .. . P89 ...
ROW 79 : ... .. . ... ... ... : ... .. 0 ... ... ... : ... .. . ... : ... .. 0 ... : ... .. . ... ... : ... .. . ... ... : ... .. . ... ... : ... .. . P84 ...
ROW 7A : A-1 00 D P81 ... ... : D#5 00 6 P80 ... ... : ... .. . ... : ... .. 2 ... : ... .. . ... ... : --- .. . P82 ... : --- .. . ... ... : ... .. . P7E ...
ROW 7B : ... .. B ... ... ... : ... .. 4 ... ... ... : ... .. . ... : ... .. 1 ... : ... .. . ... ... : ... .. . ... ... : ... .. . ... ... : ... .. . P77 ...
ROW 7C : ... .. . ... ... ... : ... .. 2 ... ... ... : ... .. . ... : ... .. . ... : ... .. . ... ... : ... .. . ... ... : ... .. . ... ... : ... .. . P78 ...
ROW 7D : ... .. 0 ... ... ... : ... .. 1 ... ... ... : ... .. . ... : ... .. . ... : ... .. . ... ... : ... .. . ... ... : ... .. . ... ... : ... .. . P80 ...
ROW 7E : ... .. . ... ... ... : ... .. . ... ... ... : ... .. . ... : ... .. . ... : ... .. . ... ... : ... .. . ... ... : ... .. . ... ... : ... .. . P86 ...
ROW 7F : ... .. . ... ... ... : ... .. 0 ... ... ... : ... .. . ... : ... .. 0 ... : ... .. . ... ... : ... .. . ... ... : ... .. . ... ... : ... .. . P89 ...
ROW 80 : G-1 00 D P81 ... ... : D-5 00 6 P80 ... ... : F#3 00 . ... : B-# 00 D ... : ... .. . ... ... : D#3 01 9 P80 ... : ... .. . ... ... : A-3 01 F P85 ...
ROW 81 : ... .. B ... ... ... : ... .. 4 ... ... ... : G#2 00 . ... : ... .. B ... : ... .. . ... ... : ... .. 8 ... ... : ... .. . ... ... : ... .. D P7F ...
ROW 82 : ... .. . ... ... ... : ... .. 2 ... ... ... : C#2 00 . ... : ... .. . ... : ... .. . ... ... : ... .. . ... ... : ... .. . ... ... : ... .. 8 P78 ...
ROW 83 : ... .. A ... ... ... : ... .. 1 ... ... ... : C-2 00 . ... : ... .. A ... : ... .. . ... ... : ... .. . ... ... : ... .. . ... ... : ... .. . ... ...
ROW 84 : ... .. 8 ... ... ... : ... .. . ... ... ... : G-1 00 . ... : ... .. 8 ... : ... .. . ... ... : ... .. 7 ... ... : ... .. . ... ... : ... .. . P7F ...
ROW 85 : ... .. 7 ... ... ... : ... .. 0 ... ... ... : ... .. . ... : ... .. 7 ... : ... .. . ... ... : ... .. . ... ... : ... .. . ... ... : ... .. . P85 ...
ROW 86 : ... .. 6 ... ... ... : D#5 00 6 P80 ... ... : ... .. . ... : ... .. 6 ... : ... .. . ... ... : D-3 01 9 ... ... : ... .. . ... ... : A#3 01 8 P78 ...
ROW 87 : ... .. . ... ... ... : ... .. 4 ... ... ... : ... .. . ... : ... .. . ... : ... .. . ... ... : ... .. 8 ... ... : ... .. . ... ... : A-3 01 8 P86 ...
ROW 88 : ... .. 5 ... ... ... : ... .. 2 ... ... ... : ... .. . ... : ... .. 5 ... : ... .. . ... ... : ... .. . ... ... : ... .. . ... ... : ... .. . P80 ...
ROW 89 : ... .. . ... ... ... : ... .. 1 ... ... ... : ... .. . ... : ... .. . ... : ... .. . ... ... : ... .. . ... ... : ... .. . ... ... : ... .. . P78 ...
ROW 8A : ... .. 4 ... ... ... : ... .. . ... ... ... : ... .. . ... : ... .. 4 ... : ... .. . ... ... : ... .. 7 ... ... : ... .. . ... ... : G#3 01 8 P88 ...
ROW 8B : ... .. . ... ... ... : ... .. 0 ... ... ... : ... .. . ... : ... .. . ... : ... .. . ... ... : ... .. . ... ... : ... .. . ... ... : A-3 01 8 P7E ...
ROW 8C : F#2 00 D ... ... ... : D-5 00 6 P80 ... ... : A#3 00 . ... : C-# 00 3 ... : ... .. . ... ... : C#3 01 9 ... ... : ... .. . ... ... : ... .. . P84 ...
ROW 8D : ... .. B ... ... ... : ... .. 4 ... ... ... : ... .. . ... : ... .. 2 ... : ... .. . ... ... : ... .. 8 ... ... : ... .. . ... ... : A#3 01 8 P78 ...
ROW 8E : ... .. . ... ... ... : ... .. 2 ... ... ... : ... .. . ... : ... .. . ... : ... .. . ... ... : ... .. . ... ... : ... .. . ... ... : A-3 01 8 P87 ...
ROW 8F : ... .. A ... ... ... : ... .. 1 ... ... ... : ... .. . ... : ... .. . ... : ... .. . ... ... : ... .. . ... ... : ... .. . ... ... : ... .. . P80 ...
ROW 90 : ... .. 8 ... ... ... : ... .. . ... ... ... : ... .. . ... : ... .. . ... : ... .. . ... ... : ... .. 7 ... ... : ... .. . ... ... : ... .. . P79 ...
ROW 91 : ... .. 7 ... ... ... : ... .. 0 ... ... ... : ... .. . ... : ... .. 1 ... : ... .. . ... ... : ... .. . ... ... : ... .. . ... ... : G#3 01 8 P88 ...
ROW 92 : G-2 00 D ... ... ... : D#5 00 6 P80 ... ... : ... .. . ... : ... .. . ... : ... .. . ... ... : D#3 01 9 ... ... : ... .. . ... ... : G-3 01 F P7D ...
ROW 93 : ... .. B ... ... ... : ... .. 4 ... ... ... : ... .. . ... : ... .. . ... : ... .. . ... ... : ... .. 8 ... ... : ... .. . ... ... : ... .. D P83 ...
ROW 94 : ... .. . ... ... ... : ... .. 2 ... ... ... : ... .. . ... : ... .. . ... : ... .. . ... ... : ... .. . ... ... : ... .. . ... ... : ... .. 8 P89 ...
ROW 95 : ... .. 0 ... ... ... : ... .. 1 ... ... ... : ... .. . ... : ... .. . ... : ... .. . ... ... : ... .. . ... ... : ... .. . ... ... : --- .. . P80 ...
ROW 96 : ... .. . ... ... ... : ... .. . ... ... ... : ... .. . ... : ... .. . ... : ... .. . ... ... : ... .. 7 ... ... : ... .. . ... ... : ... .. . ... ...
ROW 97 : ... .. . ... ... ... : ... .. 0 ... ... ... : ... .. . ... : ... .. . ... : ... .. . ... ... : ... .. . ... ... : ... .. . ... ... : ... .. . ... ...
ROW 98 : G-2 00 D P81 ... ... : D-5 00 6 P80 ... ... : F#3 00 . ... : B-# 00 D ... : ... .. . ... ... : D-3 01 9 ... ... : ... .. . ... ... : F#3 01 F P77 ...
ROW 99 : ... .. B ... ... ... : ... .. 4 ... ... ... : G#2 00 . ... : ... .. B ... : ... .. . ... ... : ... .. 8 ... ... : ... .. . ... ... : ... .. D P7C ...
ROW 9A : ... .. . ... ... ... : ... .. 2 ... ... ... : C#2 00 . ... : ... .. . ... : ... .. . ... ... : ... .. . ... ... : ... .. . ... ... : ... .. 8 P82 ...
ROW 9B : ... .. A ... ... ... : ... .. 1 ... ... ... : C-2 00 . ... : ... .. A ... : ... .. . ... ... : ... .. . ... ... : ... .. . ... ... : ... .. . P89 ...
ROW 9C : ... .. 8 ... ... ... : ... .. . ... ... ... : G-1 00 . ... : ... .. 8 ... : ... .. . ... ... : ... .. 7 ... ... : ... .. . ... ... : ... .. . P88 ...
ROW 9D : ... .. 7 ... ... ... : ... .. 0 ... ... ... : ... .. . ... : ... .. 7 ... : ... .. . ... ... : ... .. . ... ... : ... .. . ... ... : ... .. . P80 ...
ROW 9E : ... .. D ... ... ... : D#5 00 6 P80 ... ... : ... .. . ... : ... .. 6 ... : ... .. . ... ... : ... .. . ... ... : ... .. . ... ... : ... .. . P7A ...
ROW 9F : ... .. B ... ... ... : ... .. 4 ... ... ... : ... .. . ... : ... .. . ... : ... .. . ... ... : ... .. 6 ... ... : ... .. . ... ... : ... .. . P77 ...
ROW A0 : ... .. . ... ... ... : ... .. 2 ... ... ... : ... .. . ... : ... .. 5 ... : ... .. . ... ... : ... .. . ... ... : ... .. . ... ... : ... .. . P7B ...
ROW A1 : ... .. 0 ... ... ... : ... .. 1 ... ... ... : ... .. . ... : ... .. . ... : ... .. . ... ... : ... .. . ... ... : ... .. . ... ... : ... .. . P81 ...
ROW A2 : ... .. . ... ... ... : ... .. . ... ... ... : ... .. . ... : ... .. 4 ... : ... .. . ... ... : ... .. . ... ... : ... .. . ... ... : ... .. . P88 ...
ROW A3 : ... .. . ... ... ... : ... .. 0 ... ... ... : ... .. . ... : ... .. . ... : ... .. . ... ... : ... .. . ... ... : ... .. . ... ... : ... .. . ... ...
ROW A4 : G-2 00 D P81 ... ... : D-5 00 6 P80 ... ... : A#3 00 . ... : C-# 00 3 ... : ... .. . ... ... : A#2 01 9 ... ... : ... .. . ... ... : G-3 01 F P81 ...
ROW A5 : ... .. B ... ... ... : ... .. 4 ... ... ... : ... .. . ... : ... .. 2 ... : ... .. . ... ... : ... .. 8 ... ... : ... .. . ... ... : ... .. D P7B ...
ROW A6 : ... .. . ... ... ... : ... .. 2 ... ... ... : ... .. . ... : ... .. . ... : ... .. . ... ... : ... .. . ... ... : ... .. . ... ... : ... .. 8 P77 ...
ROW A7 : ... .. 0 ... ... ... : ... .. 1 ... ... ... : ... .. . ... : ... .. . ... : ... .. . ... ... : ... .. . ... ... : ... .. . ... ... : ... .. . P7A ...
ROW A8 : ... .. . ... ... ... : ... .. . ... ... ... : ... .. . ... : ... .. . ... : ... .. . ... ... : ... .. 7 ... ... : ... .. . ... ... : ... .. . P80 ...
ROW A9 : ... .. . ... ... ... : ... .. 0 ... ... ... : ... .. . ... : ... .. 1 ... : ... .. . ... ... : ... .. . ... ... : ... .. . ... ... : ... .. . P88 ...
ROW AA : G-2 00 D P81 ... ... : D#5 00 6 P80 ... ... : ... .. . ... : ... .. . ... : ... .. . ... ... : ... .. . ... ... : ... .. . ... ... : --- .. . P7F ...
ROW AB : ... .. B ... ... ... : ... .. 4 ... ... ... : ... .. . ... : ... .. . ... : ... .. . ... ... : ... .. 6 ... ... : ... .. . ... ... : ... .. . ... ...
ROW AC : ... .. . ... ... ... : ... .. 2 ... ... ... : ... .. . ... : ... .. . ... : ... .. . ... ... : ... .. . ... ... : ... .. . ... ... : ... .. . ... ...
ROW AD : ... .. 0 ... ... ... : ... .. 1 ... ... ... : ... .. . ... : ... .. . ... : ... .. . ... ... : ... .. . ... ... : ... .. . ... ... : ... .. . ... ...
ROW AE : ... .. . ... ... ... : ... .. . ... ... ... : ... .. . ... : ... .. . ... : ... .. . ... ... : ... .. . ... ... : ... .. . ... ... : ... .. . ... ...
ROW AF : ... .. . ... ... ... : ... .. 0 ... ... ... : ... .. . ... : ... .. . ... : ... .. . ... ... : ... .. . ... ... : ... .. . ... ... : ... .. . ... ...
ROW B0 : G#2 00 D P81 ... ... : D-5 00 6 P80 ... ... : F#3 00 . ... : B-# 00 D ... : ... .. . ... ... : G#3 01 9 ... ... : ... .. . ... ... : D#3 01 F P87 ...
ROW B1 : ... .. B ... ... ... : ... .. 4 ... ... ... : G#2 00 . ... : ... .. B ... : ... .. . ... ... : ... .. 8 ... ... : ... .. . ... ... : ... .. D P89 ...
ROW B2 : ... .. . ... ... ... : ... .. 2 ... ... ... : C#2 00 . ... : ... .. . ... : ... .. . ... ... : ... .. . ... ... : ... .. . ... ... : ... .. 8 P83 ...
ROW B3 : ... .. A ... ... ... : ... .. 1 ... ... ... : C-2 00 . ... : ... .. A ... : ... .. . ... ... : ... .. . ... ... : ... .. . ... ... : ... .. . P7D ...
ROW B4 : ... .. 8 ... ... ... : ... .. . ... ... ... : G-1 00 . ... : ... .. 8 ... : ... .. . ... ... : ... .. 7 ... ... : ... .. . ... ... : ... .. . P77 ...
ROW B5 : ... .. 7 ... ... ... : ... .. 0 ... ... ... : ... .. . ... : ... .. 7 ... : ... .. . ... ... : ... .. . ... ... : ... .. . ... ... : ... .. . P79 ...
ROW B6 : G-2 00 D ... ... ... : C#5 00 6 P80 ... ... : ... .. . ... : ... .. 6 ... : ... .. . ... ... : G-3 01 9 ... ... : ... .. . ... ... : ... .. . P80 ...
ROW B7 : ... .. B ... ... ... : ... .. 4 ... ... ... : ... .. . ... : ... .. . ... : ... .. . ... ... : ... .. 8 ... ... : ... .. . ... ... : ... .. . P87 ...
ROW B8 : ... .. . ... ... ... : ... .. 2 ... ... ... : ... .. . ... : ... .. 5 ... : ... .. . ... ... : ... .. . ... ... : ... .. . ... ... : ... .. . P89 ...
ROW B9 : ... .. 0 ... ... ... : ... .. 1 ... ... ... : ... .. . ... : ... .. . ... : ... .. . ... ... : --- .. . P81 ... : ... .. . ... ... : ... .. . P84 ...
ROW BA : ... .. . ... ... ... : ... .. . ... ... ... : ... .. . ... : ... .. 4 ... : ... .. . ... ... : ... .. . ... ... : ... .. . ... ... : ... .. . P7E ...
ROW BB : ... .. . ... ... ... : ... .. 0 ... ... ... : ... .. . ... : ... .. . ... : ... .. . ... ... : ... .. . ... ... : ... .. . ... ... : ... .. . P77 ...
ROW BC : G-2 00 D P81 ... ... : C-5 00 6 P80 ... ... : D-4 00 . ... : C-# 00 3 ... : ... .. . ... ... : G-3 01 9 P80 ... : ... .. . ... ... : D-3 01 F P78 ...
ROW BD : ... .. B ... ... ... : ... .. 4 ... ... ... : ... .. . ... : ... .. 2 ... : ... .. . ... ... : ... .. 8 ... ... : ... .. . ... ... : ... .. D P80 ...
ROW BE : ... .. . ... ... ... : ... .. 2 ... ... ... : ... .. . ... : ... .. . ... : ... .. . ... ... : ... .. . ... ... : ... .. . ... ... : ... .. 8 P86 ...
ROW BF : ... .. 0 ... ... ... : ... .. 1 ... ... ... : ... .. . ... : ... .. . ... : ... .. . ... ... : --- .. . P81 ... : ... .. . ... ... : ... .. . P89 ...
ROW C0 : ... .. . ... ... ... : ... .. . ... ... ... : ... .. . ... : ... .. . ... : ... .. . ... ... : ... .. . ... ... : ... .. . ... ... : ... .. . P85 ...
ROW C1 : ... .. . ... ... ... : ... .. 0 ... ... ... : ... .. . ... : ... .. 1 ... : ... .. . ... ... : ... .. . ... ... : ... .. . ... ... : ... .. . P7F ...
ROW C2 : G-2 00 D P81 ... ... : B-4 00 6 P80 ... ... : ... .. . ... : ... .. 3 ... : ... .. . ... ... : G-3 01 9 P80 ... : ... .. . ... ... : --- .. . P83 ...
ROW C3 : ... .. B ... ... ... : ... .. 4 ... ... ... : ... .. . ... : ... .. 2 ... : ... .. . ... ... : ... .. 8 ... ... : ... .. . ... ... : ... .. . ... ...
ROW C4 : ... .. . ... ... ... : ... .. 2 ... ... ... : ... .. . ... : ... .. . ... : ... .. . ... ... : ... .. . ... ... : ... .. . ... ... : ... .. . ... ...
ROW C5 : ... .. 0 ... ... ... : ... .. 1 ... ... ... : ... .. . ... : ... .. . ... : ... .. . ... ... : --- .. . P81 ... : ... .. . ... ... : ... .. . ... ...
ROW C6 : ... .. . ... ... ... : ... .. . ... ... ... : ... .. . ... : ... .. . ... : ... .. . ... ... : ... .. . ... ... : ... .. . ... ... : ... .. . ... ...
ROW C7 : ... .. . ... ... ... : ... .. 0 ... ... ... : ... .. . ... : ... .. 1 ... : ... .. . ... ... : ... .. . ... ... : ... .. . ... ... : ... .. . ... ...
ROW C8 : F#2 00 D P81 ... ... : A#4 00 6 P80 ... ... : F#3 00 . ... : B-# 00 D ... : ... .. . ... ... : F#3 01 9 P80 ... : ... .. . ... ... : A#2 01 F P80 ...
ROW C9 : ... .. B ... ... ... : ... .. 4 ... ... ... : G#2 00 . ... : ... .. B ... : ... .. . ... ... : ... .. 8 ... ... : ... .. . ... ... : ... .. D P78 ...
ROW CA : ... .. . ... ... ... : ... .. 2 ... ... ... : C#2 00 . ... : ... .. . ... : ... .. . ... ... : ... .. . ... ... : ... .. . ... ... : ... .. 8 P77 ...
ROW CB : ... .. A ... ... ... : ... .. 1 ... ... ... : C-2 00 . ... : ... .. A ... : ... .. . ... ... : ... .. . ... ... : ... .. . ... ... : ... .. . P7E ...
ROW CC : ... .. 8 ... ... ... : ... .. . ... ... ... : G-1 00 . ... : ... .. 8 ... : ... .. . ... ... : ... .. 7 ... ... : ... .. . ... ... : ... .. . P84 ...
ROW CD : ... .. 7 ... ... ... : ... .. 0 ... ... ... : ... .. . ... : ... .. 7 ... : ... .. . ... ... : ... .. . ... ... : ... .. . ... ... : ... .. . P89 ...
ROW CE : G-2 00 D ... ... ... : A-4 00 6 P80 ... ... : ... .. . ... : ... .. 6 ... : ... .. . ... ... : G-3 01 9 ... ... : ... .. . ... ... : ... .. . P87 ...
ROW CF : ... .. B ... ... ... : ... .. 4 ... ... ... : ... .. . ... : ... .. . ... : ... .. . ... ... : ... .. 8 ... ... : ... .. . ... ... : ... .. . P80 ...
ROW D0 : ... .. . ... ... ... : ... .. 2 ... ... ... : ... .. . ... : ... .. 5 ... : ... .. . ... ... : ... .. . ... ... : ... .. . ... ... : ... .. . P79 ...
ROW D1 : ... .. 0 ... ... ... : ... .. 1 ... ... ... : ... .. . ... : ... .. . ... : ... .. . ... ... : --- .. . P81 ... : ... .. . ... ... : ... .. . P70 ...
ROW D2 : ... .. . ... ... ... : ... .. . ... ... ... : ... .. . ... : ... .. 4 ... : ... .. . ... ... : ... .. . ... ... : ... .. . ... ... : ... .. . P7A ...
ROW D3 : ... .. . ... ... ... : ... .. 0 ... ... ... : ... .. . ... : ... .. . ... : ... .. . ... ... : ... .. . ... ... : ... .. . ... ... : ... .. . P86 ...
ROW D4 : G-2 00 D P81 ... ... : G#4 00 6 P80 ... ... : D-4 00 . ... : 3-# 00 D ... : ... .. . ... ... : G-3 01 9 P80 ... : ... .. . ... ... : B-2 01 8 P72 ...
ROW D5 : ... .. B ... ... ... : ... .. 4 ... ... ... : ... .. . ... : ... .. B ... : ... .. . ... ... : ... .. 8 ... ... : ... .. . ... ... : A#2 01 8 P8D ...
ROW D6 : ... .. . ... ... ... : ... .. 2 ... ... ... : ... .. . ... : ... .. . ... : ... .. . ... ... : ... .. . ... ... : ... .. . ... ... : ... .. . P80 ...
ROW D7 : ... .. 0 ... ... ... : ... .. 1 ... ... ... : ... .. . ... : ... .. A ... : ... .. . ... ... : --- .. . P81 ... : ... .. . ... ... : ... .. . P74 ...
ROW D8 : ... .. . ... ... ... : ... .. . ... ... ... : ... .. . ... : ... .. 8 ... : ... .. . ... ... : ... .. . ... ... : ... .. . ... ... : ... .. . P70 ...
ROW D9 : ... .. . ... ... ... : ... .. 0 ... ... ... : ... .. . ... : ... .. 7 ... : ... .. . ... ... : ... .. . ... ... : ... .. . ... ... : ... .. . P78 ...
ROW DA : G-2 00 D P81 ... ... : G-4 00 6 P80 ... ... : ... .. . ... : ... .. 6 ... : ... .. . ... ... : G-3 01 9 P80 ... : ... .. . ... ... : ... .. . P84 ...
ROW DB : ... .. B ... ... ... : ... .. 4 ... ... ... : ... .. . ... : ... .. . ... : ... .. . ... ... : ... .. 8 ... ... : ... .. . ... ... : ... .. . P8F ...
ROW DC : ... .. . ... ... ... : ... .. 2 ... ... ... : ... .. . ... : ... .. 5 ... : ... .. . ... ... : ... .. . ... ... : ... .. . ... ... : ... .. . P8E ...
ROW DD : ... .. 0 ... ... ... : ... .. 1 ... ... ... : ... .. . ... : ... .. . ... : ... .. . ... ... : ... .. . ... ... : ... .. . ... ... : ... .. . P80 ...
ROW DE : ... .. . ... ... ... : ... .. . ... ... ... : ... .. . ... : ... .. 4 ... : ... .. . ... ... : ... .. 7 ... ... : ... .. . ... ... : ... .. . ... ...
ROW DF : ... .. . ... ... ... : ... .. 0 ... ... ... : ... .. . ... : ... .. . ... : ... .. . ... ... : ... .. . ... ... : ... .. . ... ... : ... .. . ... ...
ROW E0 : A#1 00 D P81 ... ... : F-5 00 6 P80 ... ... : A-4 00 . ... : C-# 00 4 ... : ... .. . ... ... : --- .. . P81 ... : ... .. . ... ... : --- .. . ... ...
ROW E1 : ... .. B ... ... ... : ... .. 4 ... ... ... : B-3 00 . ... : ... .. 3 ... : ... .. . ... ... : ... .. . ... ... : ... .. . ... ... : ... .. . ... ...
ROW E2 : ... .. . ... ... ... : ... .. 2 ... ... ... : E-3 00 . ... : ... .. 1 ... : ... .. . ... ... : ... .. . ... ... : ... .. . ... ... : ... .. . ... ...
ROW E3 : ... .. A ... ... ... : ... .. 1 ... ... ... : D#3 00 . ... : ... .. . ... : ... .. . ... ... : ... .. . ... ... : ... .. . ... ... : ... .. . ... ...
ROW E4 : ... .. 8 ... ... ... : ... .. . ... ... ... : A#2 00 . ... : ... .. . ... : ... .. . ... ... : ... .. . ... ... : ... .. . ... ... : ... .. . ... ...
ROW E5 : ... .. 7 ... ... ... : ... .. 0 ... ... ... : ... .. . ... : ... .. 0 ... : ... .. . ... ... : ... .. . ... ... : ... .. . ... ... : ... .. . ... ...
ROW E6 : ... .. 6 ... ... ... : F#5 00 6 P80 ... ... : ... .. . ... : ... .. 8 ... : ... .. . ... ... : ... .. . ... ... : ... .. . ... ... : ... .. . ... ...
ROW E7 : ... .. . ... ... ... : ... .. 4 ... ... ... : ... .. . ... : ... .. 6 ... : ... .. . ... ... : ... .. . ... ... : ... .. . ... ... : ... .. . ... ...
ROW E8 : ... .. 5 ... ... ... : ... .. 2 ... ... ... : ... .. . ... : ... .. 3 ... : ... .. . ... ... : ... .. . ... ... : ... .. . ... ... : ... .. . ... ...
ROW E9 : ... .. . ... ... ... : ... .. 1 ... ... ... : ... .. . ... : ... .. 1 ... : ... .. . ... ... : ... .. . ... ... : ... .. . ... ... : ... .. . ... ...
ROW EA : ... .. 4 ... ... ... : ... .. . ... ... ... : ... .. . ... : ... .. . ... : ... .. . ... ... : ... .. . ... ... : ... .. . ... ... : ... .. . ... ...
ROW EB : ... .. . ... ... ... : ... .. 0 ... ... ... : ... .. . ... : ... .. 0 ... : ... .. . ... ... : ... .. . ... ... : ... .. . ... ... : ... .. . ... ...
ROW EC : F-2 00 D ... ... ... : F-5 00 6 P80 ... ... : ... .. . ... : ... .. F ... : ... .. . ... ... : F-3 01 9 P80 ... : C#4 01 9 ... ... : F-3 01 F P87 ...
ROW ED : ... .. B ... ... ... : ... .. 4 ... ... ... : ... .. . ... : ... .. C ... : ... .. . ... ... : ... .. 8 ... ... : ... .. 8 ... ... : ... .. D P89 ...
ROW EE : ... .. . ... ... ... : ... .. 2 ... ... ... : ... .. . ... : ... .. 6 ... : ... .. . ... ... : ... .. . ... ... : ... .. . ... ... : ... .. 8 P83 ...
ROW EF : ... .. 0 ... ... ... : ... .. 1 ... ... ... : ... .. . ... : ... .. 3 ... : ... .. . ... ... : ... .. . ... ... : ... .. . ... ... : ... .. . P7D ...
ROW F0 : ... .. . ... ... ... : ... .. . ... ... ... : ... .. . ... : ... .. 2 ... : ... .. . ... ... : ... .. 7 ... ... : ... .. 7 ... ... : ... .. . P77 ...
ROW F1 : ... .. . ... ... ... : ... .. 0 ... ... ... : ... .. . ... : ... .. 0 ... : ... .. . ... ... : ... .. . ... ... : ... .. . ... ... : ... .. . P79 ...
ROW F2 : F-2 00 D P81 ... ... : F#5 00 6 P80 ... ... : --- .. . ... : ... .. 4 ... : ... .. . ... ... : --- .. . ... ... : --- .. . ... ... : --- .. . P7E ...
ROW F3 : ... .. B ... ... ... : ... .. 4 ... ... ... : ... .. . ... : ... .. 3 ... : ... .. . ... ... : ... .. . ... ... : ... .. . ... ... : ... .. . ... ...
ROW F4 : ... .. . ... ... ... : ... .. 2 ... ... ... : ... .. . ... : ... .. 1 ... : ... .. . ... ... : ... .. . ... ... : ... .. . ... ... : ... .. . ... ...
ROW F5 : ... .. 0 ... ... ... : ... .. 1 ... ... ... : ... .. . ... : ... .. . ... : ... .. . ... ... : ... .. . ... ... : ... .. . ... ... : ... .. . ... ...
ROW F6 : ... .. . ... ... ... : ... .. . ... ... ... : ... .. . ... : ... .. . ... : ... .. . ... ... : ... .. . ... ... : ... .. . ... ... : ... .. . ... ...
ROW F7 : ... .. . ... ... ... : ... .. 0 ... ... ... : ... .. . ... : ... .. 0 ... : ... .. . ... ... : ... .. . ... ... : ... .. . ... ... : ... .. . ... ...
ROW F8 : E-2 00 D P81 ... ... : F-5 00 6 P80 ... ... : E-4 00 . ... : ... .. 2 ... : ... .. . ... ... : ... .. . ... ... : ... .. . ... ... : E-3 01 F P78 ...
ROW F9 : ... .. B ... ... ... : ... .. 4 ... ... ... : F#3 00 . ... : ... .. 1 ... : ... .. . ... ... : ... .. . ... ... : ... .. . ... ... : ... .. D P80 ...
ROW FA : ... .. . ... ... ... : ... .. 2 ... ... ... : B-2 00 . ... : ... .. . ... : ... .. . ... ... : ... .. . ... ... : ... .. . ... ... : ... .. 8 P86 ...
ROW FB : ... .. A ... ... ... : ... .. 1 ... ... ... : A#2 00 . ... : ... .. . ... : ... .. . ... ... : ... .. . ... ... : ... .. . ... ... : ... .. . P89 ...
ROW FC : ... .. 8 ... ... ... : ... .. . ... ... ... : F-2 00 . ... : ... .. . ... : ... .. . ... ... : ... .. . ... ... : ... .. . ... ... : ... .. . P85 ...
ROW FD : ... .. 7 ... ... ... : ... .. 0 ... ... ... : ... .. . ... : ... .. 0 ... : ... .. . ... ... : ... .. . ... ... : ... .. . ... ... : ... .. . P7F ...
ROW FE : ... .. D ... ... ... : F#5 00 6 P80 ... ... : ... .. . ... : ... .. 4 ... : ... .. . ... ... : ... .. . ... ... : ... .. . ... ... : ... .. . P78 ...
ROW FF : ... .. B ... ... ... : ... .. 4 ... ... ... : ... .. . ... : ... .. 3 ... : ... .. . ... ... : ... .. . ... ... : ... .. . ... ... : ... .. . ... ...

PATTERN 0E
ROW 00 : ... .. . ... ... ... : ... .. 2 ... ... ... : ... .. . ... : ... .. 1 ... : ... .. . ... ... : ... .. . ... ... : ... .. . ... ... : ... .. . P7F ...
ROW 01 : ... .. A ... ... ... : ... .. 1 ... ... ... : ... .. . ... : ... .. . ... : ... .. . ... ... : ... .. . ... ... : ... .. . ... ... : ... .. . P85 ...
ROW 02 : ... .. 8 ... ... ... : ... .. . ... ... ... : ... .. . ... : ... .. . ... : ... .. . ... ... : ... .. . ... ... : ... .. . ... ... : ... .. . P89 ...
ROW 03 : ... .. 7 ... ... ... : ... .. 0 ... ... ... : ... .. . ... : ... .. 0 ... : ... .. . ... ... : ... .. . ... ... : ... .. . ... ... : ... .. . P86 ...
ROW 04 : F-2 00 D ... ... ... : F-5 00 6 P80 ... ... : ... .. . ... : ... .. F ... : ... .. . ... ... : E-3 01 9 ... ... : C#4 01 9 ... ... : F-3 01 F P80 ...
ROW 05 : ... .. B ... ... ... : ... .. 4 ... ... ... : ... .. . ... : ... .. C ... : ... .. . ... ... : ... .. 8 ... ... : ... .. 8 ... ... : ... .. D P78 ...
ROW 06 : ... .. . ... ... ... : ... .. 2 ... ... ... : ... .. . ... : ... .. 6 ... : ... .. . ... ... : ... .. . ... ... : ... .. . ... ... : ... .. 8 P77 ...
ROW 07 : ... .. 0 ... ... ... : ... .. 1 ... ... ... : ... .. . ... : ... .. 3 ... : ... .. . ... ... : ... .. . ... ... : ... .. . ... ... : ... .. . P7E ...
ROW 08 : ... .. . ... ... ... : ... .. . ... ... ... : ... .. . ... : ... .. 2 ... : ... .. . ... ... : ... .. 7 ... ... : ... .. 7 ... ... : ... .. . P84 ...
ROW 09 : ... .. . ... ... ... : ... .. 0 ... ... ... : ... .. . ... : ... .. 0 ... : ... .. . ... ... : ... .. . ... ... : ... .. . ... ... : ... .. . P89 ...
ROW 0A : F-2 00 D P81 ... ... : F#5 00 6 P80 ... ... : --- .. . ... : ... .. F ... : ... .. . ... ... : --- .. . P82 ... : --- .. . ... ... : --- .. . P82 ...
ROW 0B : ... .. B ... ... ... : ... .. 4 ... ... ... : ... .. . ... : ... .. C ... : ... .. . ... ... : ... .. . ... ... : ... .. . ... ... : ... .. . ... ...
ROW 0C : ... .. . ... ... ... : ... .. 2 ... ... ... : ... .. . ... : ... .. 6 ... : ... .. . ... ... : ... .. . ... ... : ... .. . ... ... : ... .. . ... ...
ROW 0D : ... .. 0 ... ... ... : ... .. 1 ... ... ... : ... .. . ... : ... .. 3 ... : ... .. . ... ... : ... .. . ... ... : ... .. . ... ... : ... .. . ... ...
ROW 0E : ... .. . ... ... ... : ... .. . ... ... ... : ... .. . ... : ... .. 2 ... : ... .. . ... ... : ... .. . ... ... : ... .. . ... ... : ... .. . ... ...
ROW 0F : ... .. . ... ... ... : ... .. 0 ... ... ... : ... .. . ... : ... .. 0 ... : ... .. . ... ... : ... .. . ... ... : ... .. . ... ... : ... .. . ... ...
ROW 10 : C#2 00 D P81 ... ... : F-5 00 6 P80 ... ... : C-5 00 . ... : ... .. 2 ... : ... .. . ... ... : ... .. . ... ... : ... .. . ... ... : F#3 01 F P89 ...
ROW 11 : ... .. B ... ... ... : ... .. 4 ... ... ... : D-4 00 . ... : ... .. 1 ... : ... .. . ... ... : ... .. . ... ... : ... .. . ... ... : ... .. D P87 ...
ROW 12 : ... .. . ... ... ... : ... .. 2 ... ... ... : G-3 00 . ... : ... .. . ... : ... .. . ... ... : ... .. . ... ... : ... .. . ... ... : ... .. 8 P80 ...
ROW 13 : ... .. A ... ... ... : ... .. 1 ... ... ... : F#3 00 . ... : ... .. . ... : ... .. . ... ... : ... .. . ... ... : ... .. . ... ... : ... .. . P79 ...
ROW 14 : ... .. 8 ... ... ... : ... .. . ... ... ... : C#3 00 . ... : ... .. . ... : ... .. . ... ... : ... .. . ... ... : ... .. . ... ... : ... .. . P77 ...
ROW 15 : ... .. 7 ... ... ... : ... .. 0 ... ... ... : ... .. . ... : ... .. 0 ... : ... .. . ... ... : ... .. . ... ... : ... .. . ... ... : ... .. . P7C ...
ROW 16 : ... .. D ... ... ... : F#5 00 6 P80 ... ... : ... .. . ... : ... .. 4 ... : ... .. . ... ... : ... .. . ... ... : ... .. . ... ... : ... .. . P82 ...
ROW 17 : ... .. B ... ... ... : ... .. 4 ... ... ... : ... .. . ... : ... .. 3 ... : ... .. . ... ... : ... .. . ... ... : ... .. . ... ... : ... .. . P89 ...
ROW 18 : ... .. . ... ... ... : ... .. 2 ... ... ... : ... .. . ... : ... .. 1 ... : ... .. . ... ... : ... .. . ... ... : ... .. . ... ... : ... .. . P88 ...
ROW 19 : ... .. A ... ... ... : ... .. 1 ... ... ... : ... .. . ... : ... .. . ... : ... .. . ... ... : ... .. . ... ... : ... .. . ... ... : ... .. . P80 ...
ROW 1A : ... .. 8 ... ... ... : ... .. . ... ... ... : ... .. . ... : ... .. . ... : ... .. . ... ... : ... .. . ... ... : ... .. . ... ... : ... .. . P7A ...
ROW 1B : ... .. 7 ... ... ... : ... .. 0 ... ... ... : ... .. . ... : ... .. 0 ... : ... .. . ... ... : ... .. . ... ... : ... .. . ... ... : ... .. . P77 ...
ROW 1C : E-2 00 D ... ... ... : G-5 00 6 P80 ... ... : ... .. . ... : ... .. F ... : ... .. . ... ... : F-3 01 9 P80 ... : C#4 01 9 ... ... : F-3 01 F P7B ...
ROW 1D : ... .. B ... ... ... : ... .. 4 ... ... ... : ... .. . ... : ... .. C ... : ... .. . ... ... : ... .. 8 ... ... : ... .. 8 ... ... : ... .. D P81 ...
ROW 1E : ... .. . ... ... ... : ... .. 2 ... ... ... : ... .. . ... : ... .. 6 ... : ... .. . ... ... : ... .. . ... ... : ... .. . ... ... : ... .. 8 P88 ...
ROW 1F : ... .. 0 ... ... ... : ... .. 1 ... ... ... : ... .. . ... : ... .. 3 ... : ... .. . ... ... : ... .. . ... ... : ... .. . ... ... : ... .. . ... ...
ROW 20 : ... .. . ... ... ... : ... .. . ... ... ... : ... .. . ... : ... .. 2 ... : ... .. . ... ... : ... .. 7 ... ... : ... .. 7 ... ... : ... .. . P81 ...
ROW 21 : ... .. . ... ... ... : ... .. 0 ... ... ... : ... .. . ... : ... .. 0 ... : ... .. . ... ... : ... .. . ... ... : ... .. . ... ... : ... .. . P7B ...
ROW 22 : E-2 00 D P81 ... ... : G#5 00 6 P80 ... ... : --- .. . ... : ... .. F ... : ... .. . ... ... : --- .. . ... ... : --- .. . ... ... : --- .. . P80 ...
ROW 23 : ... .. B ... ... ... : ... .. 4 ... ... ... : ... .. . ... : ... .. C ... : ... .. . ... ... : ... .. . ... ... : ... .. . ... ... : ... .. . ... ...
ROW 24 : ... .. . ... ... ... : ... .. 2 ... ... ... : ... .. . ... : ... .. 6 ... : ... .. . ... ... : ... .. . ... ... : ... .. . ... ... : ... .. . ... ...
ROW 25 : ... .. 0 ... ... ... : ... .. 1 ... ... ... : ... .. . ... : ... .. 3 ... : ... .. . ... ... : ... .. . ... ... : ... .. . ... ... : ... .. . ... ...
ROW 26 : ... .. . ... ... ... : ... .. . ... ... ... : ... .. . ... : ... .. 2 ... : ... .. . ... ... : ... .. . ... ... : ... .. . ... ... : ... .. . ... ...
ROW 27 : ... .. . ... ... ... : ... .. 0 ... ... ... : ... .. . ... : ... .. 0 ... : ... .. . ... ... : ... .. . ... ... : ... .. . ... ... : ... .. . ... ...
ROW 28 : C-2 00 D P81 ... ... : A-5 00 6 P80 ... ... : B-4 00 . ... : ... .. 4 ... : ... .. . ... ... : ... .. . ... ... : ... .. . ... ... : E-3 01 F P7C ...
ROW 29 : ... .. B ... ... ... : ... .. 4 ... ... ... : C#4 00 . ... : ... .. 3 ... : ... .. . ... ... : ... .. . ... ... : ... .. . ... ... : ... .. D P77 ...
ROW 2A : ... .. . ... ... ... : ... .. 2 ... ... ... : F#3 00 . ... : ... .. 1 ... : ... .. . ... ... : ... .. . ... ... : ... .. . ... ... : ... .. 8 P79 ...
ROW 2B : ... .. A ... ... ... : ... .. 1 ... ... ... : F-3 00 . ... : ... .. . ... : ... .. . ... ... : ... .. . ... ... : ... .. . ... ... : ... .. . P80 ...
ROW 2C : ... .. 8 ... ... ... : ... .. . ... ... ... : C-3 00 . ... : ... .. . ... : ... .. . ... ... : ... .. . ... ... : ... .. . ... ... : ... .. . P87 ...
ROW 2D : ... .. 7 ... ... ... : ... .. 0 ... ... ... : ... .. . ... : ... .. 0 ... : ... .. . ... ... : ... .. . ... ... : ... .. . ... ... : ... .. . P89 ...
ROW 2E : ... .. D ... ... ... : G#5 00 6 P80 ... ... : ... .. . ... : ... .. 8 ... : ... .. . ... ... : ... .. . ... ... : ... .. . ... ... : ... .. . P83 ...
ROW 2F : ... .. B ... ... ... : ... .. 4 ... ... ... : ... .. . ... : ... .. 6 ... : ... .. . ... ... : ... .. . ... ... : ... .. . ... ... : ... .. . P7D ...
ROW 30 : ... .. . ... ... ... : ... .. 2 ... ... ... : ... .. . ... : ... .. 3 ... : ... .. . ... ... : ... .. . ... ... : ... .. . ... ... : ... .. . P77 ...
ROW 31 : ... .. A ... ... ... : ... .. 1 ... ... ... : ... .. . ... : ... .. 1 ... : ... .. . ... ... : ... .. . ... ... : ... .. . ... ... : ... .. . P79 ...
ROW 32 : ... .. 8 ... ... ... : ... .. . ... ... ... : ... .. . ... : ... .. . ... : ... .. . ... ... : ... .. . ... ... : ... .. . ... ... : ... .. . P80 ...
ROW 33 : ... .. 7 ... ... ... : ... .. 0 ... ... ... : ... .. . ... : ... .. 0 ... : ... .. . ... ... : ... .. . ... ... : ... .. . ... ... : ... .. . P87 ...
ROW 34 : E-2 00 D ... ... ... : G-5 00 6 P80 ... ... : ... .. . ... : ... .. F ... : ... .. . ... ... : E-3 01 9 ... ... : C-4 01 9 ... ... : F-3 01 F P89 ...
ROW 35 : ... .. B ... ... ... : ... .. 4 ... ... ... : ... .. . ... : ... .. C ... : ... .. . ... ... : ... .. 8 ... ... : ... .. 8 ... ... : ... .. D P84 ...
ROW 36 : ... .. . ... ... ... : ... .. 2 ... ... ... : ... .. . ... : ... .. 6 ... : ... .. . ... ... : ... .. . ... ... : ... .. . ... ... : ... .. 8 P7E ...
ROW 37 : ... .. 0 ... ... ... : ... .. 1 ... ... ... : ... .. . ... : ... .. 3 ... : ... .. . ... ... : ... .. . ... ... : ... .. . ... ... : ... .. . P77 ...
ROW 38 : ... .. . ... ... ... : ... .. . ... ... ... : ... .. . ... : ... .. 2 ... : ... .. . ... ... : ... .. 7 ... ... : ... .. 7 ... ... : ... .. . P78 ...
ROW 39 : ... .. . ... ... ... : ... .. 0 ... ... ... : ... .. . ... : ... .. 0 ... : ... .. . ... ... : ... .. . ... ... : ... .. . ... ... : ... .. . P80 ...
ROW 3A : F-2 00 D P81 ... ... : F#5 00 6 P80 ... ... : --- .. . ... : ... .. 2 ... : ... .. . ... ... : --- .. . P82 ... : --- .. . ... ... : ... .. . P86 ...
ROW 3B : ... .. B ... ... ... : ... .. 4 ... ... ... : ... .. . ... : ... .. 1 ... : ... .. . ... ... : ... .. . ... ... : ... .. . ... ... : ... .. . P89 ...
ROW 3C : ... .. . ... ... ... : ... .. 2 ... ... ... : ... .. . ... : ... .. . ... : ... .. . ... ... : ... .. . ... ... : ... .. . ... ... : ... .. . P85 ...
ROW 3D : ... .. 0 ... ... ... : ... .. 1 ... ... ... : ... .. . ... : ... .. . ... : ... .. . ... ... : ... .. . ... ... : ... .. . ... ... : ... .. . P7F ...
ROW 3E : ... .. . ... ... ... : ... .. . ... ... ... : ... .. . ... : ... .. . ... : ... .. . ... ... : ... .. . ... ... : ... .. . ... ... : ... .. . P78 ...
ROW 3F : ... .. . ... ... ... : ... .. 0 ... ... ... : ... .. . ... : ... .. 0 ... : ... .. . ... ... : ... .. . ... ... : ... .. . ... ... : ... .. . ... ...
ROW 40 : A#1 00 F P81 ... ... : F-5 00 6 P80 ... ... : A-4 00 . ... : ... .. 4 ... : ... .. . ... ... : A#2 01 9 P80 ... : ... .. . ... ... : --- .. . P7D ...
ROW 41 : ... .. E ... ... ... : ... .. 4 ... ... ... : B-3 00 . ... : ... .. 3 ... : ... .. . ... ... : ... .. 8 ... ... : ... .. . ... ... : ... .. . ... ...
ROW 42 : ... .. D ... ... ... : ... .. 2 ... ... ... : E-3 00 . ... : ... .. 1 ... : ... .. . ... ... : ... .. . ... ... : ... .. . ... ... : ... .. . ... ...
ROW 43 : ... .. A ... ... ... : ... .. 1 ... ... ... : --- .. . ... : ... .. . ... : ... .. . ... ... : ... .. . ... ... : ... .. . ... ... : ... .. . ... ...
ROW 44 : ... .. . ... ... ... : ... .. . ... ... ... : ... .. . ... : ... .. . ... : ... .. . ... ... : ... .. 7 ... ... : ... .. . ... ... : ... .. . ... ...
ROW 45 : ... .. . ... ... ... : ... .. 0 ... ... ... : ... .. . ... : ... .. 0 ... : ... .. . ... ... : ... .. . ... ... : ... .. . ... ... : ... .. . ... ...
ROW 46 : A-1 00 F ... ... ... : F#5 00 6 P80 ... ... : A-2 00 . ... : ... .. 8 ... : ... .. . ... ... : A-2 01 9 ... ... : ... .. . ... ... : ... .. . ... ...
ROW 47 : ... .. E ... ... ... : ... .. 4 ... ... ... : ... .. . ... : ... .. 6 ... : ... .. . ... ... : ... .. 8 ... ... : ... .. . ... ... : ... .. . ... ...
ROW 48 : ... .. D ... ... ... : ... .. 2 ... ... ... : ... .. . ... : ... .. 3 ... : ... .. . ... ... : ... .. . ... ... : ... .. . ... ... : ... .. . ... ...
ROW 49 : ... .. A ... ... ... : ... .. 1 ... ... ... : --- .. . ... : ... .. 1 ... : ... .. . ... ... : ... .. . ... ... : ... .. . ... ... : ... .. . ... ...
ROW 4A : ... .. . ... ... ... : ... .. . ... ... ... : ... .. . ... : ... .. . ... : ... .. . ... ... : ... .. 7 ... ... : ... .. . ... ... : ... .. . ... ...
ROW 4B : ... .. . ... ... ... : ... .. 0 ... ... ... : ... .. . ... : ... .. 0 ... : ... .. . ... ... : ... .. . ... ... : ... .. . ... ... : ... .. . ... ...
ROW 4C : A#1 00 F ... ... ... : F-5 00 6 P80 ... ... : A#2 00 . ... : ... .. F ... : ... .. . ... ... : A#2 01 9 ... ... : A#3 01 9 ... ... : A#1 01 F P7E ...
ROW 4D : ... .. E ... ... ... : ... .. 4 ... ... ... : ... .. . ... : ... .. C ... : ... .. . ... ... : ... .. 8 ... ... : ... .. 8 ... ... : ... .. D P7C ...
ROW 4E : ... .. D ... ... ... : ... .. 2 ... ... ... : ... .. . ... : ... .. 6 ... : ... .. . ... ... : ... .. . ... ... : ... .. . ... ... : ... .. 8 P82 ...
ROW 4F : ... .. A ... ... ... : ... .. 1 ... ... ... : --- .. . ... : ... .. 3 ... : ... .. . ... ... : ... .. . ... ... : ... .. . ... ... : ... .. . P88 ...
ROW 50 : ... .. . ... ... ... : ... .. . ... ... ... : ... .. . ... : ... .. 2 ... : ... .. . ... ... : ... .. 7 ... ... : ... .. 7 ... ... : ... .. . P8E ...
ROW 51 : ... .. . ... ... ... : ... .. 0 ... ... ... : ... .. . ... : ... .. 0 ... : ... .. . ... ... : ... .. . ... ... : ... .. . ... ... : ... .. . P8C ...
ROW 52 : C-2 00 F ... ... ... : F#5 00 6 P80 ... ... : C-3 00 . ... : ... .. 4 ... : ... .. . ... ... : C-3 01 9 ... ... : --- .. . ... ... : ... .. . P85 ...
ROW 53 : ... .. E ... ... ... : ... .. 4 ... ... ... : ... .. . ... : ... .. 3 ... : ... .. . ... ... : ... .. 8 ... ... : ... .. . ... ... : ... .. 4 P7E ...
ROW 54 : ... .. D ... ... ... : ... .. 2 ... ... ... : ... .. . ... : ... .. 1 ... : ... .. . ... ... : ... .. . ... ... : ... .. . ... ... : ... .. . P7C ...
ROW 55 : ... .. A ... ... ... : ... .. 1 ... ... ... : --- .. . ... : ... .. . ... : ... .. . ... ... : ... .. . ... ... : ... .. . ... ... : ... .. 1 P81 ...
ROW 56 : ... .. . ... ... ... : ... .. . ... ... ... : ... .. . ... : ... .. . ... : ... .. . ... ... : ... .. 7 ... ... : ... .. . ... ... : ... .. . P87 ...
ROW 57 : ... .. . ... ... ... : ... .. 0 ... ... ... : ... .. . ... : ... .. 0 ... : ... .. . ... ... : ... .. . ... ... : ... .. . ... ... : ... .. . P8E ...
ROW 58 : C#2 00 F ... ... ... : F-5 00 6 P80 ... ... : C-5 00 . ... : ... .. 2 ... : ... .. . ... ... : C#3 01 9 ... ... : C#4 01 9 ... ... : C#2 01 F P8D ...
ROW 59 : ... .. E ... ... ... : ... .. 4 ... ... ... : D-4 00 . ... : ... .. 1 ... : ... .. . ... ... : ... .. 8 ... ... : ... .. 8 ... ... : ... .. D P85 ...
ROW 5A : ... .. D ... ... ... : ... .. 2 ... ... ... : G-3 00 . ... : ... .. . ... : ... .. . ... ... : ... .. . ... ... : ... .. . ... ... : ... .. 8 P7F ...
ROW 5B : ... .. A ... ... ... : ... .. 1 ... ... ... : F#3 00 . ... : ... .. . ... : ... .. . ... ... : ... .. . ... ... : ... .. . ... ... : ... .. . P7C ...
ROW 5C : ... .. . ... ... ... : ... .. . ... ... ... : C#3 00 . ... : ... .. . ... : ... .. . ... ... : ... .. 7 ... ... : ... .. 7 ... ... : ... .. . P80 ...
ROW 5D : ... .. . ... ... ... : ... .. 0 ... ... ... : ... .. . ... : ... .. 0 ... : ... .. . ... ... : ... .. . ... ... : ... .. . ... ... : ... .. . P86 ...
ROW 5E : ... .. 0 ... ... ... : F#5 00 6 P80 ... ... : ... .. . ... : ... .. 4 ... : ... .. . ... ... : --- .. . P83 ... : ... .. . ... ... : ... .. . P8D ...
ROW 5F : ... .. . ... ... ... : ... .. 4 ... ... ... : ... .. . ... : ... .. 3 ... : ... .. . ... ... : ... .. . ... ... : ... .. 6 ... ... : ... .. 4 ... ...
ROW 60 : ... .. . ... ... ... : ... .. 2 ... ... ... : ... .. . ... : ... .. 1 ... : ... .. . ... ... : ... .. . ... ... : ... .. . ... ... : ... .. . P86 ...
ROW 61 : ... .. . ... ... ... : ... .. 1 ... ... ... : --- .. . ... : ... .. . ... : ... .. . ... ... : ... .. . ... ... : ... .. . ... ... : ... .. 1 P80 ...
ROW 62 : ... .. . ... ... ... : ... .. . ... ... ... : ... .. . ... : ... .. . ... : ... .. . ... ... : ... .. . ... ... : ... .. . ... ... : ... .. . P7C ...
ROW 63 : ... .. . ... ... ... : ... .. 0 ... ... ... : ... .. . ... : ... .. 0 ... : ... .. . ... ... : ... .. . ... ... : ... .. . ... ... : ... .. . P7F ...
ROW 64 : F-1 00 F P81 ... ... : F-5 00 6 P80 ... ... : E-4 00 . ... : ... .. F ... : ... .. . ... ... : F-2 01 9 P80 ... : F-3 01 9 ... ... : F-1 01 F P85 ...
ROW 65 : ... .. E ... ... ... : ... .. 4 ... ... ... : F#3 00 . ... : ... .. C ... : ... .. . ... ... : ... .. 8 ... ... : ... .. 8 ... ... : ... .. D P8D ...
ROW 66 : ... .. D ... ... ... : ... .. 2 ... ... ... : B-2 00 . ... : ... .. 6 ... : ... .. . ... ... : ... .. . ... ... : ... .. . ... ... : ... .. 8 P8E ...
ROW 67 : ... .. A ... ... ... : ... .. 1 ... ... ... : A#2 00 . ... : ... .. 3 ... : ... .. . ... ... : ... .. . ... ... : ... .. . ... ... : ... .. . P87 ...
ROW 68 : ... .. . ... ... ... : ... .. . ... ... ... : F-2 00 . ... : ... .. 2 ... : ... .. . ... ... : ... .. 7 ... ... : ... .. 7 ... ... : ... .. . P81 ...
ROW 69 : ... .. . ... ... ... : ... .. 0 ... ... ... : ... .. . ... : ... .. 0 ... : ... .. . ... ... : ... .. . ... ... : ... .. . ... ... : ... .. . P7C ...
ROW 6A : ... .. 0 ... ... ... : F#5 00 6 P80 ... ... : ... .. . ... : ... .. F ... : ... .. . ... ... : --- .. . P7E ... : --- .. . ... ... : ... .. . P7E ...
ROW 6B : ... .. . ... ... ... : ... .. 4 ... ... ... : ... .. . ... : ... .. C ... : ... .. . ... ... : ... .. . ... ... : ... .. . ... ... : ... .. . P85 ...
ROW 6C : ... .. . ... ... ... : ... .. 2 ... ... ... : ... .. . ... : ... .. 6 ... : ... .. . ... ... : ... .. . ... ... : ... .. . ... ... : ... .. . P8C ...
ROW 6D : ... .. . ... ... ... : ... .. 1 ... ... ... : --- .. . ... : ... .. 3 ... : ... .. . ... ... : ... .. . ... ... : ... .. . ... ... : ... .. . P8E ...
ROW 6E : ... .. . ... ... ... : ... .. . ... ... ... : ... .. . ... : ... .. 2 ... : ... .. . ... ... : ... .. . ... ... : ... .. . ... ... : ... .. . P88 ...
ROW 6F : ... .. . ... ... ... : ... .. 0 ... ... ... : ... .. . ... : ... .. 0 ... : ... .. . ... ... : ... .. . ... ... : ... .. . ... ... : ... .. . P82 ...
ROW 70 : C#2 00 F P81 ... ... : F-5 00 6 P80 ... ... : A-4 00 . ... : ... .. 2 ... : ... .. . ... ... : C#3 01 9 P80 ... : ... .. . ... ... : ... .. . P7C ...
ROW 71 : ... .. E ... ... ... : ... .. 4 ... ... ... : B-3 00 . ... : ... .. 1 ... : ... .. . ... ... : ... .. 8 ... ... : ... .. . ... ... : ... .. 4 P7E ...
ROW 72 : ... .. D ... ... ... : ... .. 2 ... ... ... : E-3 00 . ... : ... .. . ... : ... .. . ... ... : ... .. . ... ... : ... .. . ... ... : ... .. . P85 ...
ROW 73 : ... .. A ... ... ... : ... .. 1 ... ... ... : --- .. . ... : ... .. . ... : ... .. . ... ... : ... .. . ... ... : ... .. . ... ... : ... .. 1 P8C ...
ROW 74 : ... .. . ... ... ... : ... .. . ... ... ... : ... .. . ... : ... .. . ... : ... .. . ... ... : ... .. 7 ... ... : ... .. . ... ... : ... .. . P8E ...
ROW 75 : ... .. . ... ... ... : ... .. 0 ... ... ... : ... .. . ... : ... .. 0 ... : ... .. . ... ... : ... .. . ... ... : ... .. . ... ... : ... .. . P89 ...
ROW 76 : C-2 00 F ... ... ... : E-5 00 6 P80 ... ... : A-2 00 . ... : ... .. 4 ... : ... .. . ... ... : C-3 01 9 ... ... : ... .. . ... ... : ... .. . P83 ...
ROW 77 : ... .. E ... ... ... : ... .. 4 ... ... ... : ... .. . ... : ... .. 3 ... : ... .. . ... ... : ... .. 8 ... ... : ... .. . ... ... : ... .. . P7C ...
ROW 78 : ... .. D ... ... ... : ... .. 2 ... ... ... : ... .. . ... : ... .. 1 ... : ... .. . ... ... : ... .. . ... ... : ... .. . ... ... : ... .. . P7D ...
ROW 79 : ... .. A ... ... ... : ... .. 1 ... ... ... : --- .. . ... : ... .. . ... : ... .. . ... ... : ... .. . ... ... : ... .. . ... ... : ... .. . P85 ...
ROW 7A : ... .. . ... ... ... : ... .. . ... ... ... : ... .. . ... : ... .. . ... : ... .. . ... ... : ... .. 7 ... ... : ... .. . ... ... : ... .. 0 P8B ...
ROW 7B : ... .. . ... ... ... : ... .. 0 ... ... ... : ... .. . ... : ... .. 0 ... : ... .. . ... ... : ... .. . ... ... : ... .. . ... ... : ... .. . P8E ...
ROW 7C : A#1 00 F ... ... ... : D#5 00 6 P80 ... ... : A#2 00 . ... : ... .. F ... : ... .. . ... ... : A#2 01 9 ... ... : A#3 01 9 ... ... : A#1 01 F P8A ...
ROW 7D : ... .. E ... ... ... : ... .. 4 ... ... ... : ... .. . ... : ... .. C ... : ... .. . ... ... : ... .. 8 ... ... : ... .. 8 ... ... : ... .. D P84 ...
ROW 7E : ... .. D ... ... ... : ... .. 2 ... ... ... : ... .. . ... : ... .. 6 ... : ... .. . ... ... : ... .. . ... ... : ... .. . ... ... : ... .. 8 P7D ...
ROW 7F : ... .. A ... ... ... : ... .. 1 ... ... ... : --- .. . ... : ... .. 3 ... : ... .. . ... ... : ... .. . ... ... : ... .. . ... ... : ... .. . ... ...
ROW 80 : ... .. . ... ... ... : ... .. . ... ... ... : ... .. . ... : ... .. 2 ... : ... .. . ... ... : ... .. 7 ... ... : ... .. 7 ... ... : ... .. . P84 ...
ROW 81 : ... .. . ... ... ... : ... .. 0 ... ... ... : ... .. . ... : ... .. 0 ... : ... .. . ... ... : ... .. . ... ... : ... .. . ... ... : ... .. . P8A ...
ROW 82 : C-2 00 F ... ... ... : D-5 00 6 P80 ... ... : C-3 00 . ... : ... .. F ... : ... .. . ... ... : C-3 01 9 ... ... : --- .. . ... ... : ... .. . P8E ...
ROW 83 : ... .. E ... ... ... : ... .. 4 ... ... ... : ... .. . ... : ... .. C ... : ... .. . ... ... : ... .. 8 ... ... : ... .. . ... ... : ... .. 4 P8B ...
ROW 84 : ... .. D ... ... ... : ... .. 2 ... ... ... : ... .. . ... : ... .. 6 ... : ... .. . ... ... : ... .. . ... ... : ... .. . ... ... : ... .. . P85 ...
ROW 85 : ... .. A ... ... ... : ... .. 1 ... ... ... : --- .. . ... : ... .. 3 ... : ... .. . ... ... : ... .. . ... ... : ... .. . ... ... : ... .. 1 P7D ...
ROW 86 : ... .. . ... ... ... : ... .. . ... ... ... : ... .. . ... : ... .. 2 ... : ... .. . ... ... : ... .. 7 ... ... : ... .. . ... ... : ... .. . P7C ...
ROW 87 : ... .. . ... ... ... : ... .. 0 ... ... ... : ... .. . ... : ... .. 0 ... : ... .. . ... ... : ... .. . ... ... : ... .. . ... ... : ... .. . P83 ...
ROW 88 : C#2 00 F ... ... ... : C#5 00 6 P80 ... ... : C-5 00 . ... : ... .. 4 ... : ... .. . ... ... : C#3 01 9 ... ... : C#4 01 9 ... ... : C#2 01 F P89 ...
ROW 89 : ... .. E ... ... ... : ... .. 4 ... ... ... : D-4 00 . ... : ... .. 3 ... : ... .. . ... ... : ... .. 8 ... ... : ... .. 8 ... ... : ... .. D P8E ...
ROW 8A : ... .. D ... ... ... : ... .. 2 ... ... ... : G-3 00 . ... : ... .. 1 ... : ... .. . ... ... : ... .. . ... ... : ... .. . ... ... : ... .. 8 P8C ...
ROW 8B : ... .. A ... ... ... : ... .. 1 ... ... ... : F#3 00 . ... : ... .. . ... : ... .. . ... ... : ... .. . ... ... : ... .. . ... ... : ... .. . P85 ...
ROW 8C : ... .. . ... ... ... : ... .. . ... ... ... : C#3 00 . ... : ... .. . ... : ... .. . ... ... : ... .. 7 ... ... : ... .. 7 ... ... : ... .. . P7E ...
ROW 8D : ... .. . ... ... ... : ... .. 0 ... ... ... : ... .. . ... : ... .. 0 ... : ... .. . ... ... : ... .. . ... ... : ... .. . ... ... : ... .. . P7C ...
ROW 8E : ... .. 0 ... ... ... : D-5 00 6 P80 ... ... : ... .. . ... : ... .. 8 ... : ... .. . ... ... : --- .. . P83 ... : ... .. . ... ... : ... .. . P82 ...
ROW 8F : ... .. . ... ... ... : ... .. 4 ... ... ... : ... .. . ... : ... .. 6 ... : ... .. . ... ... : ... .. . ... ... : ... .. 6 ... ... : ... .. 4 P88 ...
ROW 90 : ... .. . ... ... ... : ... .. 2 ... ... ... : ... .. . ... : ... .. 3 ... : ... .. . ... ... : ... .. . ... ... : ... .. . ... ... : ... .. . P8E ...
ROW 91 : ... .. . ... ... ... : ... .. 1 ... ... ... : --- .. . ... : ... .. 1 ... : ... .. . ... ... : ... .. . ... ... : ... .. . ... ... : ... .. 1 P8C ...
ROW 92 : ... .. . ... ... ... : ... .. . ... ... ... : ... .. . ... : ... .. . ... : ... .. . ... ... : ... .. . ... ... : ... .. . ... ... : ... .. . P85 ...
ROW 93 : ... .. . ... ... ... : ... .. 0 ... ... ... : ... .. . ... : ... .. 0 ... : ... .. . ... ... : ... .. . ... ... : ... .. . ... ... : ... .. . P7E ...
ROW 94 : F-1 00 F P81 ... ... : D#5 00 6 P80 ... ... : E-4 00 . ... : ... .. F ... : ... .. . ... ... : F-2 01 9 P80 ... : F-3 01 9 ... ... : F-1 01 F P7C ...
ROW 95 : ... .. E ... ... ... : ... .. 4 ... ... ... : F#3 00 . ... : ... .. C ... : ... .. . ... ... : ... .. 8 ... ... : ... .. 8 ... ... : ... .. D P81 ...
ROW 96 : ... .. D ... ... ... : ... .. 2 ... ... ... : B-2 00 . ... : ... .. 6 ... : ... .. . ... ... : ... .. . ... ... : ... .. . ... ... : ... .. 8 P87 ...
ROW 97 : ... .. A ... ... ... : ... .. 1 ... ... ... : A#2 00 . ... : ... .. 3 ... : ... .. . ... ... : ... .. . ... ... : ... .. . ... ... : ... .. . P8E ...
ROW 98 : ... .. . ... ... ... : ... .. . ... ... ... : F-2 00 . ... : ... .. 2 ... : ... .. . ... ... : ... .. 7 ... ... : ... .. 7 ... ... : ... .. . P8D ...
ROW 99 : ... .. . ... ... ... : ... .. 0 ... ... ... : ... .. . ... : ... .. 0 ... : ... .. . ... ... : ... .. . ... ... : ... .. . ... ... : ... .. . P85 ...
ROW 9A : ... .. . ... ... ... : E-5 00 6 P80 ... ... : ... .. . ... : ... .. 2 ... : ... .. . ... ... : --- .. . P7E ... : --- .. . ... ... : ... .. . P7F ...
ROW 9B : ... .. . ... ... ... : ... .. 4 ... ... ... : ... .. . ... : ... .. 1 ... : ... .. . ... ... : ... .. . ... ... : ... .. . ... ... : ... .. . P7C ...
ROW 9C : ... .. . ... ... ... : ... .. 2 ... ... ... : ... .. . ... : ... .. . ... : ... .. . ... ... : ... .. . ... ... : ... .. . ... ... : ... .. . P80 ...
ROW 9D : ... .. 0 ... ... ... : ... .. 1 ... ... ... : --- .. . ... : ... .. . ... : ... .. . ... ... : ... .. . ... ... : ... .. . ... ... : ... .. . P86 ...
ROW 9E : ... .. . ... ... ... : ... .. . ... ... ... : ... .. . ... : ... .. . ... : ... .. . ... ... : ... .. . ... ... : ... .. . ... ... : ... .. . P8D ...
ROW 9F : ... .. . ... ... ... : ... .. 0 ... ... ... : ... .. . ... : ... .. 0 ... : ... .. . ... ... : ... .. . ... ... : ... .. . ... ... : ... .. . ... ...
ROW A0 : A#1 00 D P81 ... ... : F-5 00 6 P80 ... ... : A-4 00 . ... : ... .. 4 ... : ... .. . ... ... : ... .. . ... ... : ... .. . ... ... : ... .. . P81 ...
ROW A1 : ... .. B ... ... ... : ... .. 4 ... ... ... : B-3 00 . ... : ... .. 3 ... : ... .. . ... ... : ... .. . ... ... : ... .. . ... ... : ... .. 4 P7B ...
ROW A2 : ... .. . ... ... ... : ... .. 2 ... ... ... : E-3 00 . ... : ... .. 1 ... : ... .. . ... ... : ... .. . ... ... : ... .. . ... ... : ... .. . P77 ...
ROW A3 : ... .. A ... ... ... : ... .. 1 ... ... ... : D#3 00 . ... : ... .. . ... : ... .. . ... ... : ... .. . ... ... : ... .. . ... ... : ... .. 1 P7A ...
ROW A4 : ... .. 8 ... ... ... : ... .. . ... ... ... : A#2 00 . ... : ... .. . ... : ... .. . ... ... : ... .. . ... ... : ... .. . ... ... : ... .. . P80 ...
ROW A5 : ... .. 7 ... ... ... : ... .. 0 ... ... ... : ... .. . ... : ... .. 0 ... : ... .. . ... ... : ... .. . ... ... : ... .. . ... ... : ... .. . P88 ...
ROW A6 : ... .. 6 ... ... ... : F#5 00 6 P80 ... ... : ... .. . ... : ... .. 8 ... : ... .. . ... ... : ... .. . ... ... : ... .. . ... ... : ... .. . P89 ...
ROW A7 : ... .. . ... ... ... : ... .. 4 ... ... ... : ... .. . ... : ... .. 6 ... : ... .. . ... ... : ... .. . ... ... : ... .. . ... ... : ... .. . P82 ...
ROW A8 : ... .. 5 ... ... ... : ... .. 2 ... ... ... : ... .. . ... : ... .. 3 ... : ... .. . ... ... : ... .. . ... ... : ... .. . ... ... : ... .. . P7C ...
ROW A9 : ... .. . ... ... ... : ... .. 1 ... ... ... : ... .. . ... : ... .. 1 ... : ... .. . ... ... : ... .. . ... ... : ... .. . ... ... : ... .. . P77 ...
ROW AA : ... .. 4 ... ... ... : ... .. . ... ... ... : ... .. . ... : ... .. . ... : ... .. . ... ... : ... .. . ... ... : ... .. . ... ... : ... .. 0 P79 ...
ROW AB : ... .. . ... ... ... : ... .. 0 ... ... ... : ... .. . ... : ... .. 0 ... : ... .. . ... ... : ... .. . ... ... : ... .. . ... ... : ... .. . P80 ...
ROW AC : F-2 00 D ... ... ... : F-5 00 6 P80 ... ... : ... .. . ... : ... .. F ... : ... .. . ... ... : A#3 01 9 P80 ... : C#4 01 9 ... ... : F-3 01 F P87 ...
ROW AD : ... .. B ... ... ... : ... .. 4 ... ... ... : ... .. . ... : ... .. C ... : ... .. . ... ... : ... .. 8 ... ... : ... .. 8 ... ... : ... .. D P89 ...
ROW AE : ... .. . ... ... ... : ... .. 2 ... ... ... : ... .. . ... : ... .. 6 ... : ... .. . ... ... : ... .. . ... ... : ... .. . ... ... : ... .. 8 P83 ...
ROW AF : ... .. 0 ... ... ... : ... .. 1 ... ... ... : --- .. . ... : ... .. 3 ... : ... .. . ... ... : ... .. . ... ... : ... .. . ... ... : ... .. . P7D ...
ROW B0 : ... .. . ... ... ... : ... .. . ... ... ... : ... .. . ... : ... .. 2 ... : ... .. . ... ... : ... .. 7 ... ... : ... .. 7 ... ... : ... .. . P77 ...
ROW B1 : ... .. . ... ... ... : ... .. 0 ... ... ... : ... .. . ... : ... .. 0 ... : ... .. . ... ... : ... .. . ... ... : ... .. . ... ... : ... .. . P79 ...
ROW B2 : F-2 00 D P81 ... ... : F#5 00 6 P80 ... ... : ... .. . ... : ... .. 4 ... : ... .. . ... ... : --- .. . ... ... : --- .. . ... ... : --- .. . P7E ...
ROW B3 : ... .. B ... ... ... : ... .. 4 ... ... ... : ... .. . ... : ... .. 3 ... : ... .. . ... ... : ... .. . ... ... : ... .. . ... ... : ... .. . ... ...
ROW B4 : ... .. . ... ... ... : ... .. 2 ... ... ... : ... .. . ... : ... .. 1 ... : ... .. . ... ... : ... .. . ... ... : ... .. . ... ... : ... .. . ... ...
ROW B5 : ... .. 0 ... ... ... : ... .. 1 ... ... ... : ... .. . ... : ... .. . ... : ... .. . ... ... : ... .. . ... ... : ... .. . ... ... : ... .. . ... ...
ROW B6 : ... .. . ... ... ... : ... .. . ... ... ... : ... .. . ... : ... .. . ... : ... .. . ... ... : ... .. . ... ... : ... .. . ... ... : ... .. . ... ...
ROW B7 : ... .. . ... ... ... : ... .. 0 ... ... ... : ... .. . ... : ... .. 0 ... : ... .. . ... ... : ... .. . ... ... : ... .. . ... ... : ... .. . ... ...
ROW B8 : E-2 00 D P81 ... ... : F-5 00 6 P80 ... ... : E-4 00 . ... : ... .. 2 ... : ... .. . ... ... : ... .. . ... ... : ... .. . ... ... : E-3 01 F P78 ...
ROW B9 : ... .. B ... ... ... : ... .. 4 ... ... ... : F#3 00 . ... : ... .. 1 ... : ... .. . ... ... : ... .. . ... ... : ... .. . ... ... : ... .. D P80 ...
ROW BA : ... .. . ... ... ... : ... .. 2 ... ... ... : B-2 00 . ... : ... .. . ... : ... .. . ... ... : ... .. . ... ... : ... .. . ... ... : ... .. 8 P86 ...
ROW BB : ... .. A ... ... ... : ... .. 1 ... ... ... : A#2 00 . ... : ... .. . ... : ... .. . ... ... : ... .. . ... ... : ... .. . ... ... : ... .. . P89 ...
ROW BC : ... .. 8 ... ... ... : ... .. . ... ... ... : F-2 00 . ... : ... .. . ... : ... .. . ... ... : ... .. . ... ... : ... .. . ... ... : ... .. . P85 ...
ROW BD : ... .. 7 ... ... ... : ... .. 0 ... ... ... : ... .. . ... : ... .. 0 ... : ... .. . ... ... : ... .. . ... ... : ... .. . ... ... : ... .. . P7F ...
ROW BE : ... .. D ... ... ... : F#5 00 6 P80 ... ... : ... .. . ... : ... .. 4 ... : ... .. . ... ... : ... .. . ... ... : ... .. . ... ... : ... .. . P78 ...
ROW BF : ... .. B ... ... ... : ... .. 4 ... ... ... : ... .. . ... : ... .. 3 ... : ... .. . ... ... : ... .. . ... ... : ... .. . ... ... : ... .. . ... ...
ROW C0 : ... .. . ... ... ... : ... .. 2 ... ... ... : ... .. . ... : ... .. 1 ... : ... .. . ... ... : ... .. . ... ... : ... .. . ... ... : ... .. . P7F ...
ROW C1 : ... .. A ... ... ... : ... .. 1 ... ... ... : ... .. . ... : ... .. . ... : ... .. . ... ... : ... .. . ... ... : ... .. . ... ... : ... .. . P85 ...
ROW C2 : ... .. 8 ... ... ... : ... .. . ... ... ... : ... .. . ... : ... .. . ... : ... .. . ... ... : ... .. . ... ... : ... .. . ... ... : ... .. . P89 ...
ROW C3 : ... .. 7 ... ... ... : ... .. 0 ... ... ... : ... .. . ... : ... .. 0 ... : ... .. . ... ... : ... .. . ... ... : ... .. . ... ... : ... .. . P86 ...
ROW C4 : F-2 00 D ... ... ... : F-5 00 6 P80 ... ... : ... .. . ... : ... .. F ... : ... .. . ... ... : A-3 01 9 ... ... : C#4 01 9 ... ... : F-3 01 F P80 ...
ROW C5 : ... .. B ... ... ... : ... .. 4 ... ... ... : ... .. . ... : ... .. C ... : ... .. . ... ... : ... .. 8 ... ... : ... .. 8 ... ... : ... .. D P78 ...
ROW C6 : ... .. . ... ... ... : ... .. 2 ... ... ... : ... .. . ... : ... .. 6 ... : ... .. . ... ... : ... .. . ... ... : ... .. . ... ... : ... .. 8 P77 ...
ROW C7 : ... .. 0 ... ... ... : ... .. 1 ... ... ... : --- .. . ... : ... .. 3 ... : ... .. . ... ... : ... .. . ... ... : ... .. . ... ... : ... .. . P7E ...
ROW C8 : ... .. . ... ... ... : ... .. . ... ... ... : ... .. . ... : ... .. 2 ... : ... .. . ... ... : ... .. 7 ... ... : ... .. 7 ... ... : ... .. . P84 ...
ROW C9 : ... .. . ... ... ... : ... .. 0 ... ... ... : ... .. . ... : ... .. 0 ... : ... .. . ... ... : ... .. . ... ... : ... .. . ... ... : ... .. . P89 ...
ROW CA : F-2 00 D P81 ... ... : F#5 00 6 P80 ... ... : ... .. . ... : ... .. F ... : ... .. . ... ... : --- .. . ... ... : --- .. . ... ... : --- .. . P82 ...
ROW CB : ... .. B ... ... ... : ... .. 4 ... ... ... : ... .. . ... : ... .. C ... : ... .. . ... ... : ... .. . ... ... : ... .. . ... ... : ... .. . ... ...
ROW CC : ... .. . ... ... ... : ... .. 2 ... ... ... : ... .. . ... : ... .. 6 ... : ... .. . ... ... : ... .. . ... ... : ... .. . ... ... : ... .. . ... ...
ROW CD : ... .. 0 ... ... ... : ... .. 1 ... ... ... : ... .. . ... : ... .. 3 ... : ... .. . ... ... : ... .. . ... ... : ... .. . ... ... : ... .. . ... ...
ROW CE : ... .. . ... ... ... : ... .. . ... ... ... : ... .. . ... : ... .. 2 ... : ... .. . ... ... : ... .. . ... ... : ... .. . ... ... : ... .. . ... ...
ROW CF : ... .. . ... ... ... : ... .. 0 ... ... ... : ... .. . ... : ... .. 0 ... : ... .. . ... ... : ... .. . ... ... : ... .. . ... ... : ... .. . ... ...
ROW D0 : C#2 00 D P81 ... ... : F-5 00 6 P80 ... ... : C-5 00 . ... : ... .. 2 ... : ... .. . ... ... : ... .. . ... ... : ... .. . ... ... : F#3 01 F P89 ...
ROW D1 : ... .. B ... ... ... : ... .. 4 ... ... ... : D-4 00 . ... : ... .. 1 ... : ... .. . ... ... : ... .. . ... ... : ... .. . ... ... : ... .. D P87 ...
ROW D2 : ... .. . ... ... ... : ... .. 2 ... ... ... : G-3 00 . ... : ... .. . ... : ... .. . ... ... : ... .. . ... ... : ... .. . ... ... : ... .. 8 P80 ...
ROW D3 : ... .. A ... ... ... : ... .. 1 ... ... ... : F#3 00 . ... : ... .. . ... : ... .. . ... ... : ... .. . ... ... : ... .. . ... ... : ... .. . P79 ...
ROW D4 : ... .. 8 ... ... ... : ... .. . ... ... ... : C#3 00 . ... : ... .. . ... : ... .. . ... ... : ... .. . ... ... : ... .. . ... ... : ... .. . P77 ...
ROW D5 : ... .. 7 ... ... ... : ... .. 0 ... ... ... : ... .. . ... : ... .. 0 ... : ... .. . ... ... : ... .. . ... ... : ... .. . ... ... : ... .. . P7C ...
ROW D6 : ... .. D ... ... ... : F#5 00 6 P80 ... ... : ... .. . ... : ... .. 4 ... : ... .. . ... ... : ... .. . ... ... : ... .. . ... ... : ... .. . P82 ...
ROW D7 : ... .. B ... ... ... : ... .. 4 ... ... ... : ... .. . ... : ... .. 3 ... : ... .. . ... ... : ... .. . ... ... : ... .. . ... ... : ... .. . P89 ...
ROW D8 : ... .. . ... ... ... : ... .. 2 ... ... ... : ... .. . ... : ... .. 1 ... : ... .. . ... ... : ... .. . ... ... : ... .. . ... ... : ... .. . P88 ...
ROW D9 : ... .. A ... ... ... : ... .. 1 ... ... ... : ... .. . ... : ... .. . ... : ... .. . ... ... : ... .. . ... ... : ... .. . ... ... : ... .. . P80 ...
ROW DA : ... .. 8 ... ... ... : ... .. . ... ... ... : ... .. . ... : ... .. . ... : ... .. . ... ... : ... .. . ... ... : ... .. . ... ... : ... .. . P7A ...
ROW DB : ... .. 7 ... ... ... : ... .. 0 ... ... ... : ... .. . ... : ... .. 0 ... : ... .. . ... ... : ... .. . ... ... : ... .. . ... ... : ... .. . P77 ...
ROW DC : F-2 00 D ... ... ... : G-5 00 6 P80 ... ... : ... .. . ... : ... .. F ... : ... .. . ... ... : G#3 01 9 ... ... : C#4 01 9 ... ... : F-3 01 F P7B ...
ROW DD : ... .. B ... ... ... : ... .. 4 ... ... ... : ... .. . ... : ... .. C ... : ... .. . ... ... : ... .. 8 ... ... : ... .. 8 ... ... : ... .. D P81 ...
ROW DE : ... .. . ... ... ... : ... .. 2 ... ... ... : ... .. . ... : ... .. 6 ... : ... .. . ... ... : ... .. . ... ... : ... .. . ... ... : ... .. 8 P88 ...
ROW DF : ... .. 0 ... ... ... : ... .. 1 ... ... ... : --- .. . ... : ... .. 3 ... : ... .. . ... ... : ... .. . ... ... : ... .. . ... ... : ... .. . ... ...
ROW E0 : ... .. . ... ... ... : ... .. . ... ... ... : ... .. . ... : ... .. 2 ... : ... .. . ... ... : ... .. 7 ... ... : ... .. 7 ... ... : ... .. . P81 ...
ROW E1 : ... .. . ... ... ... : ... .. 0 ... ... ... : ... .. . ... : ... .. 0 ... : ... .. . ... ... : ... .. . ... ... : ... .. . ... ... : ... .. . P7B ...
ROW E2 : F-2 00 D P81 ... ... : G#5 00 6 P80 ... ... : ... .. . ... : ... .. F ... : ... .. . ... ... : --- .. . P82 ... : --- .. . ... ... : --- .. . P80 ...
ROW E3 : ... .. B ... ... ... : ... .. 4 ... ... ... : ... .. . ... : ... .. C ... : ... .. . ... ... : ... .. . ... ... : ... .. . ... ... : ... .. . ... ...
ROW E4 : ... .. . ... ... ... : ... .. 2 ... ... ... : ... .. . ... : ... .. 6 ... : ... .. . ... ... : ... .. . ... ... : ... .. . ... ... : ... .. . ... ...
ROW E5 : ... .. 0 ... ... ... : ... .. 1 ... ... ... : ... .. . ... : ... .. 3 ... : ... .. . ... ... : ... .. . ... ... : ... .. . ... ... : ... .. . ... ...
ROW E6 : ... .. . ... ... ... : ... .. . ... ... ... : ... .. . ... : ... .. 2 ... : ... .. . ... ... : ... .. . ... ... : ... .. . ... ... : ... .. . ... ...
ROW E7 : ... .. . ... ... ... : ... .. 0 ... ... ... : ... .. . ... : ... .. 0 ... : ... .. . ... ... : ... .. . ... ... : ... .. . ... ... : ... .. . ... ...
ROW E8 : F#2 00 D P81 ... ... : A-5 00 6 P80 ... ... : B-4 00 . ... : ... .. 4 ... : ... .. . ... ... : ... .. . ... ... : ... .. . ... ... : E-3 01 F P7C ...
ROW E9 : ... .. B ... ... ... : ... .. 4 ... ... ... : C#4 00 . ... : ... .. 3 ... : ... .. . ... ... : ... .. . ... ... : ... .. . ... ... : ... .. D P77 ...
ROW EA : ... .. . ... ... ... : ... .. 2 ... ... ... : F#3 00 . ... : ... .. 1 ... : ... .. . ... ... : ... .. . ... ... : ... .. . ... ... : ... .. 8 P79 ...
ROW EB : ... .. A ... ... ... : ... .. 1 ... ... ... : F-3 00 . ... : ... .. . ... : ... .. . ... ... : ... .. . ... ... : ... .. . ... ... : ... .. . P80 ...
ROW EC : ... .. 8 ... ... ... : ... .. . ... ... ... : C-3 00 . ... : ... .. . ... : ... .. . ... ... : ... .. . ... ... : ... .. . ... ... : ... .. . P87 ...
ROW ED : ... .. 7 ... ... ... : ... .. 0 ... ... ... : ... .. . ... : ... .. 0 ... : ... .. . ... ... : ... .. . ... ... : ... .. . ... ... : ... .. . P89 ...
ROW EE : F-2 00 D ... ... ... : G#5 00 6 P80 ... ... : ... .. . ... : ... .. 8 ... : ... .. . ... ... : ... .. . ... ... : ... .. . ... ... : ... .. . P83 ...
ROW EF : ... .. B ... ... ... : ... .. 4 ... ... ... : ... .. . ... : ... .. 6 ... : ... .. . ... ... : ... .. . ... ... : ... .. . ... ... : ... .. . P7D ...
ROW F0 : ... .. . ... ... ... : ... .. 2 ... ... ... : ... .. . ... : ... .. 3 ... : ... .. . ... ... : ... .. . ... ... : ... .. . ... ... : ... .. . P77 ...
ROW F1 : ... .. A ... ... ... : ... .. 1 ... ... ... : ... .. . ... : ... .. 1 ... : ... .. . ... ... : ... .. . ... ... : ... .. . ... ... : ... .. . P79 ...
ROW F2 : ... .. 8 ... ... ... : ... .. . ... ... ... : ... .. . ... : ... .. . ... : ... .. . ... ... : ... .. . ... ... : ... .. . ... ... : ... .. . P80 ...
ROW F3 : ... .. 7 ... ... ... : ... .. 0 ... ... ... : ... .. . ... : ... .. 0 ... : ... .. . ... ... : ... .. . ... ... : ... .. . ... ... : ... .. . P87 ...
ROW F4 : C#2 00 D ... ... ... : G-5 00 6 P80 ... ... : ... .. . ... : ... .. F ... : ... .. . ... ... : G-3 01 9 P80 ... : C#4 01 9 ... ... : F-3 01 F P89 ...
ROW F5 : ... .. B ... ... ... : ... .. 4 ... ... ... : ... .. . ... : ... .. C ... : ... .. . ... ... : ... .. 8 ... ... : ... .. 8 ... ... : ... .. D P84 ...
ROW F6 : ... .. . ... ... ... : ... .. 2 ... ... ... : ... .. . ... : ... .. 6 ... : ... .. . ... ... : ... .. . ... ... : ... .. . ... ... : ... .. 8 P7E ...
ROW F7 : ... .. 0 ... ... ... : ... .. 1 ... ... ... : --- .. . ... : ... .. 3 ... : ... .. . ... ... : ... .. . ... ... : ... .. . ... ... : ... .. . P77 ...
ROW F8 : ... .. . ... ... ... : ... .. . ... ... ... : ... .. . ... : ... .. 2 ... : ... .. . ... ... : ... .. 7 ... ... : ... .. 7 ... ... : ... .. . P78 ...
ROW F9 : ... .. . ... ... ... : ... .. 0 ... ... ... : ... .. . ... : ... .. 0 ... : ... .. . ... ... : ... .. . ... ... : ... .. . ... ... : ... .. . P80 ...
ROW FA : C-2 00 D P81 ... ... : F#5 00 6 P80 ... ... : ... .. . ... : ... .. 2 ... : ... .. . ... ... : --- .. . P81 ... : --- .. . ... ... : ... .. . P86 ...
ROW FB : ... .. B ... ... ... : ... .. 4 ... ... ... : ... .. . ... : ... .. 1 ... : ... .. . ... ... : ... .. . ... ... : ... .. . ... ... : ... .. . P89 ...
ROW FC : ... .. . ... ... ... : ... .. 2 ... ... ... : ... .. . ... : ... .. . ... : ... .. . ... ... : ... .. . ... ... : ... .. . ... ... : ... .. . P85 ...
ROW FD : ... .. 0 ... ... ... : ... .. 1 ... ... ... : ... .. . ... : ... .. . ... : ... .. . ... ... : ... .. . ... ... : ... .. . ... ... : ... .. . P7F ...
ROW FE : ... .. . ... ... ... : ... .. . ... ... ... : ... .. . ... : ... .. . ... : ... .. . ... ... : ... .. . ... ... : ... .. . ... ... : ... .. . P78 ...
ROW FF : ... .. . ... ... ... : ... .. 0 ... ... ... : ... .. . ... : ... .. 0 ... : ... .. . ... ... : ... .. . ... ... : ... .. . ... ... : ... .. . ... ...

PATTERN 0F
ROW 00 : A#1 00 D P81 ... ... : F-5 00 6 P80 ... ... : A-3 00 . ... : ... .. F ... : ... .. . ... ... : F#3 01 9 P80 ... : ... .. . ... ... : C-4 01 F P7F ...
ROW 01 : ... .. B ... ... ... : ... .. 4 ... ... ... : B-2 00 . ... : ... .. C ... : ... .. . ... ... : ... .. 8 ... ... : ... .. . ... ... : ... .. D P85 ...
ROW 02 : ... .. . ... ... ... : ... .. 2 ... ... ... : E-2 00 . ... : ... .. 6 ... : ... .. . ... ... : ... .. . ... ... : ... .. . ... ... : C#4 01 8 P7C ...
ROW 03 : ... .. A ... ... ... : ... .. 1 ... ... ... : D#2 00 . ... : ... .. 3 ... : ... .. . ... ... : ... .. . ... ... : ... .. . ... ... : C-4 01 8 P86 ...
ROW 04 : ... .. 8 ... ... ... : ... .. . ... ... ... : A#1 00 . ... : ... .. 2 ... : ... .. . ... ... : ... .. 7 ... ... : ... .. . ... ... : ... .. . P80 ...
ROW 05 : ... .. 7 ... ... ... : ... .. 0 ... ... ... : ... .. . ... : ... .. 0 ... : ... .. . ... ... : ... .. . ... ... : ... .. . ... ... : B-3 01 8 P87 ...
ROW 06 : ... .. 6 ... ... ... : F#5 00 6 P80 ... ... : ... .. . ... : ... .. . ... : ... .. . ... ... : F-3 01 9 ... ... : ... .. . ... ... : ... .. . P86 ...
ROW 07 : ... .. . ... ... ... : ... .. 4 ... ... ... : ... .. . ... : ... .. . ... : ... .. . ... ... : ... .. 8 ... ... : ... .. . ... ... : C-4 01 8 P7E ...
ROW 08 : ... .. 5 ... ... ... : ... .. 2 ... ... ... : ... .. . ... : ... .. . ... : ... .. . ... ... : ... .. . ... ... : ... .. . ... ... : ... .. . P84 ...
ROW 09 : ... .. . ... ... ... : ... .. 1 ... ... ... : ... .. . ... : ... .. . ... : ... .. . ... ... : ... .. . ... ... : ... .. . ... ... : C#4 01 8 P7C ...
ROW 0A : ... .. 4 ... ... ... : ... .. . ... ... ... : ... .. . ... : ... .. . ... : ... .. . ... ... : ... .. 7 ... ... : ... .. . ... ... : ... .. . P7A ...
ROW 0B : ... .. . ... ... ... : ... .. 0 ... ... ... : ... .. . ... : ... .. . ... : ... .. . ... ... : ... .. . ... ... : ... .. . ... ... : C-4 01 8 P80 ...
ROW 0C : A-2 00 D ... ... ... : F-5 00 6 P80 ... ... : C#4 00 . ... : ... .. 3 ... : ... .. . ... ... : E-3 01 9 ... ... : ... .. . ... ... : ... .. . P79 ...
ROW 0D : ... .. B ... ... ... : ... .. 4 ... ... ... : ... .. . ... : ... .. 2 ... : ... .. . ... ... : ... .. 8 ... ... : ... .. . ... ... : B-3 01 8 P86 ...
ROW 0E : ... .. . ... ... ... : ... .. 2 ... ... ... : ... .. . ... : ... .. . ... : ... .. . ... ... : ... .. . ... ... : ... .. . ... ... : C-4 01 8 P7D ...
ROW 0F : ... .. A ... ... ... : ... .. 1 ... ... ... : ... .. . ... : ... .. . ... : ... .. . ... ... : ... .. . ... ... : ... .. . ... ... : ... .. . P83 ...
ROW 10 : ... .. 8 ... ... ... : ... .. . ... ... ... : ... .. . ... : ... .. . ... : ... .. . ... ... : ... .. 7 ... ... : ... .. . ... ... : C#4 01 8 P7C ...
ROW 11 : ... .. 7 ... ... ... : ... .. 0 ... ... ... : ... .. . ... : ... .. 1 ... : ... .. . ... ... : ... .. . ... ... : ... .. . ... ... : ... .. . P7A ...
ROW 12 : A#2 00 D ... ... ... : F#5 00 6 P80 ... ... : ... .. . ... : ... .. . ... : ... .. . ... ... : F#3 01 9 ... ... : ... .. . ... ... : A#3 01 F P80 ...
ROW 13 : ... .. B ... ... ... : ... .. 4 ... ... ... : ... .. . ... : ... .. . ... : ... .. . ... ... : ... .. 8 ... ... : ... .. . ... ... : ... .. D P79 ...
ROW 14 : ... .. . ... ... ... : ... .. 2 ... ... ... : ... .. . ... : ... .. . ... : ... .. . ... ... : ... .. . ... ... : ... .. . ... ... : A-3 01 8 P88 ...
ROW 15 : ... .. 0 ... ... ... : ... .. 1 ... ... ... : ... .. . ... : ... .. . ... : ... .. . ... ... : ... .. . ... ... : ... .. . ... ... : --- .. . P80 ...
ROW 16 : ... .. . ... ... ... : ... .. . ... ... ... : ... .. . ... : ... .. . ... : ... .. . ... ... : ... .. 7 ... ... : ... .. . ... ... : ... .. . ... ...
ROW 17 : ... .. . ... ... ... : ... .. 0 ... ... ... : ... .. . ... : ... .. . ... : ... .. . ... ... : ... .. . ... ... : ... .. . ... ... : ... .. . ... ...
ROW 18 : A#2 00 D P81 ... ... : F-5 00 6 P80 ... ... : A-3 00 . ... : ... .. F ... : ... .. . ... ... : F-3 01 9 ... ... : ... .. . ... ... : A-3 01 F P88 ...
ROW 19 : ... .. B ... ... ... : ... .. 4 ... ... ... : B-2 00 . ... : ... .. C ... : ... .. . ... ... : ... .. 8 ... ... : ... .. . ... ... : ... .. D P80 ...
ROW 1A : ... .. . ... ... ... : ... .. 2 ... ... ... : E-2 00 . ... : ... .. 6 ... : ... .. . ... ... : ... .. . ... ... : ... .. . ... ... : ... .. 8 P7A ...
ROW 1B : ... .. A ... ... ... : ... .. 1 ... ... ... : D#2 00 . ... : ... .. 3 ... : ... .. . ... ... : ... .. . ... ... : ... .. . ... ... : G#3 01 8 P88 ...
ROW 1C : ... .. 8 ... ... ... : ... .. . ... ... ... : A#1 00 . ... : ... .. 2 ... : ... .. . ... ... : ... .. 7 ... ... : ... .. . ... ... : A-3 01 8 P7B ...
ROW 1D : ... .. 7 ... ... ... : ... .. 0 ... ... ... : ... .. . ... : ... .. 0 ... : ... .. . ... ... : ... .. . ... ... : ... .. . ... ... : ... .. . P81 ...
ROW 1E : ... .. D ... ... ... : F#5 00 6 P80 ... ... : ... .. . ... : ... .. . ... : ... .. . ... ... : ... .. . ... ... : ... .. . ... ... : ... .. . P88 ...
ROW 1F : ... .. B ... ... ... : ... .. 4 ... ... ... : ... .. . ... : ... .. . ... : ... .. . ... ... : ... .. 6 ... ... : ... .. . ... ... : ... .. . ... ...
ROW 20 : ... .. . ... ... ... : ... .. 2 ... ... ... : ... .. . ... : ... .. . ... : ... .. . ... ... : ... .. . ... ... : ... .. . ... ... : ... .. . P81 ...
ROW 21 : ... .. 0 ... ... ... : ... .. 1 ... ... ... : ... .. . ... : ... .. . ... : ... .. . ... ... : ... .. . ... ... : ... .. . ... ... : ... .. . P7B ...
ROW 22 : ... .. . ... ... ... : ... .. . ... ... ... : ... .. . ... : ... .. . ... : ... .. . ... ... : ... .. . ... ... : ... .. . ... ... : G#3 01 8 P88 ...
ROW 23 : ... .. . ... ... ... : ... .. 0 ... ... ... : ... .. . ... : ... .. . ... : ... .. . ... ... : ... .. . ... ... : ... .. . ... ... : A-3 01 8 P7A ...
ROW 24 : A#2 00 D P81 ... ... : F-5 00 6 P80 ... ... : C#4 00 . ... : ... .. 3 ... : ... .. . ... ... : C#3 01 9 ... ... : ... .. . ... ... : A#3 01 F P80 ...
ROW 25 : ... .. B ... ... ... : ... .. 4 ... ... ... : ... .. . ... : ... .. 2 ... : ... .. . ... ... : ... .. 8 ... ... : ... .. . ... ... : B-3 01 D P79 ...
ROW 26 : ... .. . ... ... ... : ... .. 2 ... ... ... : ... .. . ... : ... .. . ... : ... .. . ... ... : ... .. . ... ... : ... .. . ... ... : ... .. 8 P7A ...
ROW 27 : ... .. 0 ... ... ... : ... .. 1 ... ... ... : ... .. . ... : ... .. . ... : ... .. . ... ... : ... .. . ... ... : ... .. . ... ... : A#3 01 8 P82 ...
ROW 28 : ... .. . ... ... ... : ... .. . ... ... ... : ... .. . ... : ... .. . ... : ... .. . ... ... : ... .. 7 ... ... : ... .. . ... ... : ... .. . P7C ...
ROW 29 : ... .. . ... ... ... : ... .. 0 ... ... ... : ... .. . ... : ... .. 1 ... : ... .. . ... ... : ... .. . ... ... : ... .. . ... ... : A-3 01 8 P88 ...
ROW 2A : A#2 00 D P81 ... ... : F#5 00 6 P80 ... ... : ... .. . ... : ... .. . ... : ... .. . ... ... : ... .. . ... ... : ... .. . ... ... : --- .. . P80 ...
ROW 2B : ... .. B ... ... ... : ... .. 4 ... ... ... : ... .. . ... : ... .. . ... : ... .. . ... ... : ... .. 6 ... ... : ... .. . ... ... : ... .. . ... ...
ROW 2C : ... .. . ... ... ... : ... .. 2 ... ... ... : ... .. . ... : ... .. . ... : ... .. . ... ... : ... .. . ... ... : ... .. . ... ... : ... .. . ... ...
ROW 2D : ... .. 0 ... ... ... : ... .. 1 ... ... ... : ... .. . ... : ... .. . ... : ... .. . ... ... : ... .. . ... ... : ... .. . ... ... : ... .. . ... ...
ROW 2E : ... .. . ... ... ... : ... .. . ... ... ... : ... .. . ... : ... .. . ... : ... .. . ... ... : ... .. . ... ... : ... .. . ... ... : ... .. . ... ...
ROW 2F : ... .. . ... ... ... : ... .. 0 ... ... ... : ... .. . ... : ... .. . ... : ... .. . ... ... : ... .. . ... ... : ... .. . ... ... : ... .. . ... ...
ROW 30 : B-2 00 D P81 ... ... : F-5 00 6 P80 ... ... : A-3 00 . ... : B-# 00 F ... : ... .. . ... ... : B-3 01 9 ... ... : ... .. . ... ... : D-4 01 F P84 ...
ROW 31 : ... .. B ... ... ... : ... .. 4 ... ... ... : B-2 00 . ... : ... .. C ... : ... .. . ... ... : ... .. 8 ... ... : ... .. . ... ... : ... .. D P86 ...
ROW 32 : ... .. . ... ... ... : ... .. 2 ... ... ... : E-2 00 . ... : ... .. 6 ... : ... .. . ... ... : ... .. . ... ... : ... .. . ... ... : D#4 01 8 P80 ...
ROW 33 : ... .. A ... ... ... : ... .. 1 ... ... ... : D#2 00 . ... : ... .. 3 ... : ... .. . ... ... : ... .. . ... ... : ... .. . ... ... : E-4 01 8 P7C ...
ROW 34 : ... .. 8 ... ... ... : ... .. . ... ... ... : A#1 00 . ... : ... .. 2 ... : ... .. . ... ... : ... .. 7 ... ... : ... .. . ... ... : ... .. . P83 ...
ROW 35 : ... .. 7 ... ... ... : ... .. 0 ... ... ... : ... .. . ... : ... .. 0 ... : ... .. . ... ... : ... .. . ... ... : ... .. . ... ... : ... .. . ... ...
ROW 36 : A#2 00 D ... ... ... : E-5 00 6 P80 ... ... : ... .. . ... : ... .. F ... : ... .. . ... ... : A#3 01 9 ... ... : ... .. . ... ... : ... .. . P82 ...
ROW 37 : ... .. B ... ... ... : ... .. 4 ... ... ... : ... .. . ... : ... .. C ... : ... .. . ... ... : ... .. 8 ... ... : ... .. . ... ... : ... .. . P80 ...
ROW 38 : ... .. . ... ... ... : ... .. 2 ... ... ... : ... .. . ... : ... .. 6 ... : ... .. . ... ... : ... .. . ... ... : ... .. . ... ... : ... .. . P83 ...
ROW 39 : ... .. 0 ... ... ... : ... .. 1 ... ... ... : ... .. . ... : ... .. 3 ... : ... .. . ... ... : --- .. . ... ... : ... .. . ... ... : F-4 01 8 P80 ...
ROW 3A : ... .. . ... ... ... : ... .. . ... ... ... : ... .. . ... : ... .. 2 ... : ... .. . ... ... : ... .. . ... ... : ... .. . ... ... : F#4 01 8 P7C ...
ROW 3B : ... .. . ... ... ... : ... .. 0 ... ... ... : ... .. . ... : ... .. 0 ... : ... .. . ... ... : ... .. . ... ... : ... .. . ... ... : ... .. . P7F ...
ROW 3C : A#2 00 D P81 ... ... : D#5 00 6 P80 ... ... : F-4 00 . ... : 8-# 00 F ... : ... .. . ... ... : A#3 01 9 ... ... : ... .. . ... ... : F-4 01 8 P85 ...
ROW 3D : ... .. B ... ... ... : ... .. 4 ... ... ... : ... .. . ... : ... .. C ... : ... .. . ... ... : ... .. 8 ... ... : ... .. . ... ... : ... .. . P7F ...
ROW 3E : ... .. . ... ... ... : ... .. 2 ... ... ... : ... .. . ... : ... .. 6 ... : ... .. . ... ... : ... .. . ... ... : ... .. . ... ... : E-4 01 8 P83 ...
ROW 3F : ... .. 0 ... ... ... : ... .. 1 ... ... ... : ... .. . ... : ... .. 3 ... : ... .. . ... ... : --- .. . ... ... : ... .. . ... ... : ... .. . ... ...
ROW 40 : ... .. . ... ... ... : ... .. . ... ... ... : ... .. . ... : ... .. 2 ... : ... .. . ... ... : ... .. . ... ... : ... .. . ... ... : F-4 01 8 P7F ...
ROW 41 : ... .. . ... ... ... : ... .. 0 ... ... ... : ... .. . ... : ... .. 0 ... : ... .. . ... ... : ... .. . ... ... : ... .. . ... ... : ... .. . P85 ...
ROW 42 : A#2 00 D P81 ... ... : D-5 00 6 P80 ... ... : ... .. . ... : ... .. F ... : ... .. . ... ... : A#3 01 9 ... ... : ... .. . ... ... : F#4 01 8 P7F ...
ROW 43 : ... .. B ... ... ... : ... .. 4 ... ... ... : ... .. . ... : ... .. C ... : ... .. . ... ... : ... .. 8 ... ... : ... .. . ... ... : ... .. . P7C ...
ROW 44 : ... .. . ... ... ... : ... .. 2 ... ... ... : ... .. . ... : ... .. 6 ... : ... .. . ... ... : ... .. . ... ... : ... .. . ... ... : F-4 01 8 P80 ...
ROW 45 : ... .. 0 ... ... ... : ... .. 1 ... ... ... : ... .. . ... : ... .. 3 ... : ... .. . ... ... : --- .. . ... ... : ... .. . ... ... : E-4 01 8 P83 ...
ROW 46 : ... .. . ... ... ... : ... .. . ... ... ... : ... .. . ... : ... .. 2 ... : ... .. . ... ... : ... .. . ... ... : ... .. . ... ... : ... .. . P82 ...
ROW 47 : ... .. . ... ... ... : ... .. 0 ... ... ... : ... .. . ... : ... .. 0 ... : ... .. . ... ... : ... .. . ... ... : ... .. . ... ... : F-4 01 8 P7E ...
ROW 48 : A-2 00 D P81 ... ... : C#5 00 6 P80 ... ... : A-3 00 . ... : 6-# 00 F ... : ... .. . ... ... : A-3 01 9 ... ... : ... .. . ... ... : F#4 01 8 ... ...
ROW 49 : ... .. B ... ... ... : ... .. 4 ... ... ... : B-2 00 . ... : ... .. C ... : ... .. . ... ... : ... .. 8 ... ... : ... .. . ... ... : G-4 01 8 P7C ...
ROW 4A : ... .. . ... ... ... : ... .. 2 ... ... ... : E-2 00 . ... : ... .. 6 ... : ... .. . ... ... : ... .. . ... ... : ... .. . ... ... : F#4 01 8 P82 ...
ROW 4B : ... .. A ... ... ... : ... .. 1 ... ... ... : D#2 00 . ... : ... .. 3 ... : ... .. . ... ... : ... .. . ... ... : ... .. . ... ... : F-4 01 8 P80 ...
ROW 4C : ... .. 8 ... ... ... : ... .. . ... ... ... : A#1 00 . ... : ... .. 2 ... : ... .. . ... ... : ... .. 7 ... ... : ... .. . ... ... : E-4 01 8 P7E ...
ROW 4D : ... .. 7 ... ... ... : ... .. 0 ... ... ... : ... .. . ... : ... .. 0 ... : ... .. . ... ... : ... .. . ... ... : ... .. . ... ... : ... .. . P7B ...
ROW 4E : A#2 00 D ... ... ... : C-5 00 6 P80 ... ... : ... .. . ... : ... .. F ... : ... .. . ... ... : A#3 01 9 ... ... : ... .. . ... ... : ... .. . P85 ...
ROW 4F : ... .. B ... ... ... : ... .. 4 ... ... ... : ... .. . ... : ... .. C ... : ... .. . ... ... : ... .. 8 ... ... : ... .. . ... ... : F#4 01 8 P7C ...
ROW 50 : ... .. . ... ... ... : ... .. 2 ... ... ... : ... .. . ... : ... .. 6 ... : ... .. . ... ... : ... .. . ... ... : ... .. . ... ... : G-4 01 8 ... ...
ROW 51 : ... .. 0 ... ... ... : ... .. 1 ... ... ... : ... .. . ... : ... .. 3 ... : ... .. . ... ... : --- .. . ... ... : ... .. . ... ... : F#4 01 8 P83 ...
ROW 52 : ... .. . ... ... ... : ... .. . ... ... ... : ... .. . ... : ... .. 2 ... : ... .. . ... ... : ... .. . ... ... : ... .. . ... ... : F-4 01 8 P80 ...
ROW 53 : ... .. . ... ... ... : ... .. 0 ... ... ... : ... .. . ... : ... .. 0 ... : ... .. . ... ... : ... .. . ... ... : ... .. . ... ... : E-4 01 8 P7F ...
ROW 54 : A#2 00 D P81 ... ... : B-4 00 6 P80 ... ... : F-4 00 . ... : 4-# 00 F ... : ... .. . ... ... : A#3 01 9 ... ... : ... .. . ... ... : ... .. . P7B ...
ROW 55 : ... .. B ... ... ... : ... .. 4 ... ... ... : ... .. . ... : ... .. C ... : ... .. . ... ... : ... .. 8 ... ... : ... .. . ... ... : ... .. . P83 ...
ROW 56 : ... .. . ... ... ... : ... .. 2 ... ... ... : ... .. . ... : ... .. 6 ... : ... .. . ... ... : ... .. . ... ... : ... .. . ... ... : F-4 01 8 P84 ...
ROW 57 : ... .. 0 ... ... ... : ... .. 1 ... ... ... : ... .. . ... : ... .. 3 ... : ... .. . ... ... : --- .. . ... ... : ... .. . ... ... : --- .. . ... ...
ROW 58 : ... .. . ... ... ... : ... .. . ... ... ... : ... .. . ... : ... .. 2 ... : ... .. . ... ... : ... .. . ... ... : ... .. . ... ... : ... .. . ... ...
ROW 59 : ... .. . ... ... ... : ... .. 0 ... ... ... : ... .. . ... : ... .. 0 ... : ... .. . ... ... : ... .. . ... ... : ... .. . ... ... : ... .. . ... ...
ROW 5A : A#2 00 D P81 ... ... : A#4 00 6 P80 ... ... : ... .. . ... : ... .. F ... : ... .. . ... ... : A#3 01 9 ... ... : ... .. . ... ... : ... .. . ... ...
ROW 5B : ... .. B ... ... ... : ... .. 4 ... ... ... : ... .. . ... : ... .. C ... : ... .. . ... ... : ... .. 8 ... ... : ... .. . ... ... : ... .. . ... ...
ROW 5C : ... .. . ... ... ... : ... .. 2 ... ... ... : ... .. . ... : ... .. 6 ... : ... .. . ... ... : ... .. . ... ... : ... .. . ... ... : ... .. . ... ...
ROW 5D : ... .. 0 ... ... ... : ... .. 1 ... ... ... : ... .. . ... : ... .. 3 ... : ... .. . ... ... : --- .. . ... ... : ... .. . ... ... : ... .. . ... ...
ROW 5E : ... .. . ... ... ... : ... .. . ... ... ... : ... .. . ... : ... .. 2 ... : ... .. . ... ... : ... .. . ... ... : ... .. . ... ... : ... .. . ... ...
ROW 5F : ... .. . ... ... ... : ... .. 0 ... ... ... : ... .. . ... : ... .. 0 ... : ... .. . ... ... : ... .. . ... ... : ... .. . ... ... : ... .. . ... ...
ROW 60 : D-2 00 F P81 ... ... : D-5 00 8 P80 ... ... : C#4 00 . ... : B-# 00 D ... : ... .. . ... ... : ... .. . ... ... : ... .. . ... ... : D-3 01 F P80 ...
ROW 61 : ... .. E ... ... ... : ... .. 6 ... ... ... : D#3 00 . ... : ... .. B ... : ... .. . ... ... : ... .. . ... ... : ... .. . ... ... : ... .. D P7F ...
ROW 62 : ... .. D ... ... ... : ... .. 3 ... ... ... : G#2 00 . ... : ... .. . ... : ... .. . ... ... : ... .. . ... ... : ... .. . ... ... : ... .. 8 P7E ...
ROW 63 : ... .. A ... ... ... : ... .. 1 ... ... ... : G-2 00 . ... : ... .. A ... : ... .. . ... ... : ... .. . ... ... : ... .. . ... ... : ... .. . P7F ...
ROW 64 : ... .. . ... ... ... : ... .. . ... ... ... : D-2 00 . ... : ... .. 8 ... : ... .. . ... ... : ... .. . ... ... : ... .. . ... ... : ... .. . P80 ...
ROW 65 : ... .. . ... ... ... : ... .. 0 ... ... ... : ... .. . ... : ... .. 7 ... : ... .. . ... ... : ... .. . ... ... : ... .. . ... ... : ... .. . P82 ...
ROW 66 : ... .. . ... ... ... : D#5 00 8 P80 ... ... : ... .. . ... : ... .. 6 ... : ... .. . ... ... : ... .. . ... ... : ... .. . ... ... : ... .. . ... ...
ROW 67 : ... .. . ... ... ... : ... .. 6 ... ... ... : ... .. . ... : ... .. . ... : ... .. . ... ... : ... .. . ... ... : ... .. . ... ... : ... .. . P80 ...
ROW 68 : ... .. . ... ... ... : ... .. 3 ... ... ... : ... .. . ... : ... .. 5 ... : ... .. . ... ... : ... .. . ... ... : ... .. . ... ... : ... .. . P7F ...
ROW 69 : ... .. . ... ... ... : ... .. 1 ... ... ... : ... .. . ... : ... .. . ... : ... .. . ... ... : ... .. . ... ... : ... .. . ... ... : ... .. . P7E ...
ROW 6A : ... .. . ... ... ... : ... .. . ... ... ... : ... .. . ... : ... .. 4 ... : ... .. . ... ... : ... .. . ... ... : ... .. . ... ... : ... .. . P7F ...
ROW 6B : ... .. . ... ... ... : ... .. 0 ... ... ... : --- .. . ... : ... .. . ... : ... .. . ... ... : ... .. . ... ... : ... .. . ... ... : ... .. . P80 ...
ROW 6C : ... .. . ... ... ... : D-5 00 8 P80 ... ... : C-4 00 . ... : D-# 00 F ... : ... .. . ... ... : A-3 01 9 ... ... : C-3 01 9 ... ... : ... .. . P81 ...
ROW 6D : ... .. . ... ... ... : ... .. 6 ... ... ... : ... .. . ... : ... .. C ... : ... .. . ... ... : ... .. 8 ... ... : ... .. 8 ... ... : ... .. . P82 ...
ROW 6E : ... .. . ... ... ... : ... .. 3 ... ... ... : ... .. . ... : ... .. 6 ... : ... .. . ... ... : ... .. . ... ... : ... .. . ... ... : ... .. . P80 ...
ROW 6F : ... .. . ... ... ... : ... .. 1 ... ... ... : ... .. . ... : ... .. 3 ... : ... .. . ... ... : --- .. . ... ... : --- .. . P7E ... : ... .. . ... ...
ROW 70 : ... .. . ... ... ... : ... .. . ... ... ... : ... .. . ... : ... .. 2 ... : ... .. . ... ... : ... .. . ... ... : ... .. . ... ... : ... .. . P7E ...
ROW 71 : ... .. . ... ... ... : ... .. 0 ... ... ... : --- .. . ... : ... .. 0 ... : ... .. . ... ... : ... .. . ... ... : ... .. . ... ... : ... .. . P7F ...
ROW 72 : E-2 00 F ... ... ... : D#5 00 8 P80 ... ... : C-4 00 . ... : ... .. F ... : ... .. . ... ... : A-3 01 9 ... ... : C-3 01 9 P80 ... : E-3 01 F P80 ...
ROW 73 : ... .. E ... ... ... : ... .. 6 ... ... ... : ... .. . ... : ... .. C ... : ... .. . ... ... : ... .. 8 ... ... : ... .. 8 ... ... : ... .. D P81 ...
ROW 74 : ... .. D ... ... ... : ... .. 3 ... ... ... : ... .. . ... : ... .. 6 ... : ... .. . ... ... : ... .. . ... ... : ... .. . ... ... : ... .. 8 P82 ...
ROW 75 : ... .. 0 ... ... ... : ... .. 1 ... ... ... : ... .. . ... : ... .. 3 ... : ... .. . ... ... : ... .. . ... ... : ... .. . ... ... : --- .. . P7F ...
ROW 76 : ... .. . ... ... ... : ... .. . ... ... ... : ... .. . ... : ... .. 2 ... : ... .. . ... ... : ... .. 7 ... ... : ... .. 7 ... ... : ... .. . ... ...
ROW 77 : ... .. . ... ... ... : ... .. 0 ... ... ... : --- .. . ... : ... .. 0 ... : ... .. . ... ... : ... .. . ... ... : ... .. . ... ... : ... .. . ... ...
ROW 78 : F#2 00 F P81 ... ... : D-5 00 8 P80 ... ... : C#4 00 . ... : B-# 00 D ... : ... .. . ... ... : ... .. . ... ... : ... .. . ... ... : F#3 01 F P7E ...
ROW 79 : ... .. E ... ... ... : ... .. 6 ... ... ... : D#3 00 . ... : ... .. B ... : ... .. . ... ... : ... .. 6 ... ... : ... .. 6 ... ... : ... .. D P80 ...
ROW 7A : ... .. D ... ... ... : ... .. 3 ... ... ... : G#2 00 . ... : ... .. . ... : ... .. . ... ... : ... .. . ... ... : ... .. . ... ... : ... .. 8 P81 ...
ROW 7B : ... .. A ... ... ... : ... .. 1 ... ... ... : G-2 00 . ... : ... .. A ... : ... .. . ... ... : --- .. . ... ... : --- .. . P7E ... : ... .. . P82 ...
ROW 7C : ... .. . ... ... ... : ... .. . ... ... ... : D-2 00 . ... : ... .. 8 ... : ... .. . ... ... : ... .. . ... ... : ... .. . ... ... : ... .. . P81 ...
ROW 7D : ... .. . ... ... ... : ... .. 0 ... ... ... : ... .. . ... : ... .. 7 ... : ... .. . ... ... : ... .. . ... ... : ... .. . ... ... : ... .. . P80 ...
ROW 7E : ... .. . ... ... ... : D#5 00 8 P80 ... ... : ... .. . ... : ... .. 6 ... : ... .. . ... ... : ... .. . ... ... : ... .. . ... ... : ... .. . P7E ...
ROW 7F : ... .. 2 ... ... ... : ... .. 6 ... ... ... : ... .. . ... : ... .. . ... : ... .. . ... ... : ... .. . ... ... : ... .. . ... ... : ... .. 4 ... ...
ROW 80 : ... .. . ... ... ... : ... .. 3 ... ... ... : ... .. . ... : ... .. 5 ... : ... .. . ... ... : ... .. . ... ... : ... .. . ... ... : ... .. . P80 ...
ROW 81 : ... .. . ... ... ... : ... .. 1 ... ... ... : ... .. . ... : ... .. . ... : ... .. . ... ... : ... .. . ... ... : ... .. . ... ... : ... .. 1 P81 ...
ROW 82 : ... .. 1 ... ... ... : ... .. . ... ... ... : ... .. . ... : ... .. 4 ... : ... .. . ... ... : ... .. . ... ... : ... .. . ... ... : ... .. . P82 ...
ROW 83 : ... .. . ... ... ... : ... .. 0 ... ... ... : --- .. . ... : ... .. . ... : ... .. . ... ... : ... .. . ... ... : ... .. . ... ... : ... .. . P81 ...
ROW 84 : D-2 00 F ... ... ... : D-5 00 8 P80 ... ... : C-4 00 . ... : D-# 00 F ... : ... .. . ... ... : A-3 01 9 ... ... : C-3 01 9 P80 ... : D-3 01 F P80 ...
ROW 85 : ... .. E ... ... ... : ... .. 6 ... ... ... : ... .. . ... : ... .. C ... : ... .. . ... ... : ... .. 8 ... ... : ... .. 8 ... ... : ... .. D P7E ...
ROW 86 : ... .. D ... ... ... : ... .. 3 ... ... ... : ... .. . ... : ... .. 6 ... : ... .. . ... ... : ... .. . ... ... : ... .. . ... ... : ... .. 8 ... ...
ROW 87 : ... .. A ... ... ... : ... .. 1 ... ... ... : ... .. . ... : ... .. 3 ... : ... .. . ... ... : --- .. . ... ... : --- .. . P7E ... : ... .. . P80 ...
ROW 88 : ... .. . ... ... ... : ... .. . ... ... ... : ... .. . ... : ... .. 2 ... : ... .. . ... ... : ... .. . ... ... : ... .. . ... ... : ... .. . P81 ...
ROW 89 : ... .. . ... ... ... : ... .. 0 ... ... ... : --- .. . ... : ... .. 0 ... : ... .. . ... ... : ... .. . ... ... : ... .. . ... ... : ... .. . P82 ...
ROW 8A : ... .. 0 ... ... ... : C-5 00 8 P80 ... ... : C-4 00 . ... : ... .. F ... : ... .. . ... ... : A-3 01 9 ... ... : C-3 01 9 P80 ... : --- .. . P7C ...
ROW 8B : ... .. . ... ... ... : ... .. 6 ... ... ... : ... .. . ... : ... .. C ... : ... .. . ... ... : ... .. 8 ... ... : ... .. 8 ... ... : ... .. . ... ...
ROW 8C : ... .. . ... ... ... : ... .. 3 ... ... ... : ... .. . ... : ... .. 6 ... : ... .. . ... ... : ... .. . ... ... : ... .. . ... ... : ... .. . ... ...
ROW 8D : ... .. . ... ... ... : ... .. 1 ... ... ... : ... .. . ... : ... .. 3 ... : ... .. . ... ... : ... .. . ... ... : ... .. . ... ... : ... .. . ... ...
ROW 8E : ... .. . ... ... ... : ... .. . ... ... ... : ... .. . ... : ... .. 2 ... : ... .. . ... ... : ... .. 7 ... ... : ... .. 7 ... ... : ... .. . ... ...
ROW 8F : ... .. . ... ... ... : ... .. 0 ... ... ... : --- .. . ... : ... .. 0 ... : ... .. . ... ... : ... .. . ... ... : ... .. . ... ... : ... .. . ... ...
ROW 90 : G-2 00 F P81 ... ... : A#4 00 8 P80 ... ... : F#4 00 . ... : B-# 00 D ... : ... .. . ... ... : ... .. . ... ... : ... .. . ... ... : G-3 01 F P82 ...
ROW 91 : ... .. E ... ... ... : ... .. 6 ... ... ... : G#3 00 . ... : ... .. B ... : ... .. . ... ... : ... .. 6 ... ... : ... .. 6 ... ... : ... .. D P81 ...
ROW 92 : ... .. D ... ... ... : ... .. 3 ... ... ... : C#3 00 . ... : ... .. . ... : ... .. . ... ... : ... .. . ... ... : ... .. . ... ... : ... .. 8 P80 ...
ROW 93 : ... .. A ... ... ... : ... .. 1 ... ... ... : C-3 00 . ... : ... .. A ... : ... .. . ... ... : --- .. . ... ... : --- .. . P7E ... : ... .. . P7F ...
ROW 94 : ... .. . ... ... ... : ... .. . ... ... ... : G-2 00 . ... : ... .. 8 ... : ... .. . ... ... : ... .. . ... ... : ... .. . ... ... : ... .. . P7E ...
ROW 95 : ... .. . ... ... ... : ... .. 0 ... ... ... : ... .. . ... : ... .. 7 ... : ... .. . ... ... : ... .. . ... ... : ... .. . ... ... : ... .. . P7F ...
ROW 96 : F#2 00 F ... ... ... : C-5 00 8 P80 ... ... : ... .. . ... : ... .. 6 ... : ... .. . ... ... : ... .. . ... ... : ... .. . ... ... : F#3 01 F P80 ...
ROW 97 : ... .. E ... ... ... : ... .. 6 ... ... ... : ... .. . ... : ... .. . ... : ... .. . ... ... : ... .. . ... ... : ... .. . ... ... : ... .. D P82 ...
ROW 98 : ... .. D ... ... ... : ... .. 3 ... ... ... : ... .. . ... : ... .. 5 ... : ... .. . ... ... : ... .. . ... ... : ... .. . ... ... : ... .. 8 ... ...
ROW 99 : ... .. 0 ... ... ... : ... .. 1 ... ... ... : ... .. . ... : ... .. . ... : ... .. . ... ... : ... .. . ... ... : ... .. . ... ... : --- .. . P7E ...
ROW 9A : ... .. . ... ... ... : ... .. . ... ... ... : ... .. . ... : ... .. 4 ... : ... .. . ... ... : ... .. . ... ... : ... .. . ... ... : ... .. . ... ...
ROW 9B : ... .. . ... ... ... : ... .. 0 ... ... ... : --- .. . ... : ... .. . ... : ... .. . ... ... : ... .. . ... ... : ... .. . ... ... : ... .. . ... ...
ROW 9C : G-2 00 F P81 ... ... : A#4 00 8 P80 ... ... : A#3 00 . ... : ... .. D ... : ... .. . ... ... : G-3 01 9 ... ... : A#2 01 9 P80 ... : G-3 01 F P7F ...
ROW 9D : ... .. E ... ... ... : ... .. 6 ... ... ... : ... .. . ... : ... .. B ... : ... .. . ... ... : ... .. 8 ... ... : ... .. 8 ... ... : ... .. D P80 ...
ROW 9E : ... .. D ... ... ... : ... .. 3 ... ... ... : ... .. . ... : ... .. . ... : ... .. . ... ... : ... .. . ... ... : ... .. . ... ... : ... .. 8 P82 ...
ROW 9F : ... .. 0 ... ... ... : ... .. 1 ... ... ... : ... .. . ... : ... .. A ... : ... .. . ... ... : --- .. . P81 ... : --- .. . P82 ... : --- .. . P81 ...
ROW A0 : ... .. . ... ... ... : ... .. . ... ... ... : ... .. . ... : ... .. 8 ... : ... .. . ... ... : ... .. . ... ... : ... .. . ... ... : ... .. . ... ...
ROW A1 : ... .. . ... ... ... : ... .. 0 ... ... ... : --- .. . ... : ... .. 7 ... : ... .. . ... ... : ... .. . ... ... : ... .. . ... ... : ... .. . ... ...
ROW A2 : A-2 00 F P81 ... ... : C-5 00 8 P80 ... ... : A#3 00 . ... : ... .. 6 ... : ... .. . ... ... : G-3 01 9 P80 ... : A#2 01 9 P80 ... : A-3 01 F P7E ...
ROW A3 : ... .. E ... ... ... : ... .. 6 ... ... ... : ... .. . ... : ... .. . ... : ... .. . ... ... : ... .. 8 ... ... : ... .. 8 ... ... : ... .. D P7F ...
ROW A4 : ... .. D ... ... ... : ... .. 3 ... ... ... : ... .. . ... : ... .. 5 ... : ... .. . ... ... : ... .. . ... ... : ... .. . ... ... : ... .. 8 P80 ...
ROW A5 : ... .. 0 ... ... ... : ... .. 1 ... ... ... : ... .. . ... : ... .. . ... : ... .. . ... ... : ... .. . ... ... : ... .. . ... ... : --- .. . P81 ...
ROW A6 : ... .. . ... ... ... : ... .. . ... ... ... : ... .. . ... : ... .. 4 ... : ... .. . ... ... : ... .. 7 ... ... : ... .. 7 ... ... : ... .. . ... ...
ROW A7 : ... .. . ... ... ... : ... .. 0 ... ... ... : --- .. . ... : ... .. . ... : ... .. . ... ... : ... .. . ... ... : ... .. . ... ... : ... .. . ... ...
ROW A8 : A#2 00 F P81 ... ... : A#4 00 8 P80 ... ... : F#4 00 . ... : ... .. D ... : ... .. . ... ... : ... .. . ... ... : ... .. . ... ... : A#3 01 F P7F ...
ROW A9 : ... .. E ... ... ... : ... .. 6 ... ... ... : G#3 00 . ... : ... .. B ... : ... .. . ... ... : ... .. 6 ... ... : ... .. 6 ... ... : ... .. D P7E ...
ROW AA : ... .. D ... ... ... : ... .. 3 ... ... ... : C#3 00 . ... : ... .. . ... : ... .. . ... ... : ... .. . ... ... : ... .. . ... ... : ... .. 8 P7F ...
ROW AB : ... .. A ... ... ... : ... .. 1 ... ... ... : C-3 00 . ... : ... .. A ... : ... .. . ... ... : --- .. . P81 ... : --- .. . P82 ... : ... .. . P80 ...
ROW AC : ... .. . ... ... ... : ... .. . ... ... ... : G-2 00 . ... : ... .. 8 ... : ... .. . ... ... : ... .. . ... ... : ... .. . ... ... : ... .. . P81 ...
ROW AD : ... .. . ... ... ... : ... .. 0 ... ... ... : ... .. . ... : ... .. 7 ... : ... .. . ... ... : ... .. . ... ... : ... .. . ... ... : ... .. . P82 ...
ROW AE : ... .. . ... ... ... : A-4 00 8 P80 ... ... : ... .. . ... : ... .. 6 ... : ... .. . ... ... : ... .. . ... ... : ... .. . ... ... : ... .. . P80 ...
ROW AF : ... .. . ... ... ... : ... .. 6 ... ... ... : ... .. . ... : ... .. . ... : ... .. . ... ... : ... .. . ... ... : ... .. . ... ... : ... .. . ... ...
ROW B0 : ... .. . ... ... ... : ... .. 3 ... ... ... : ... .. . ... : ... .. 5 ... : ... .. . ... ... : ... .. . ... ... : ... .. . ... ... : ... .. . P7E ...
ROW B1 : ... .. 0 ... ... ... : ... .. 1 ... ... ... : ... .. . ... : ... .. . ... : ... .. . ... ... : ... .. . ... ... : ... .. . ... ... : --- .. . P80 ...
ROW B2 : ... .. . ... ... ... : ... .. . ... ... ... : ... .. . ... : ... .. 4 ... : ... .. . ... ... : ... .. . ... ... : ... .. . ... ... : ... .. . ... ...
ROW B3 : ... .. . ... ... ... : ... .. 0 ... ... ... : --- .. . ... : ... .. . ... : ... .. . ... ... : ... .. . ... ... : ... .. . ... ... : ... .. . ... ...
ROW B4 : G-2 00 F P81 ... ... : A#4 00 8 P80 ... ... : A#3 00 . ... : D-# 00 F ... : ... .. . ... ... : G-3 01 9 P80 ... : A#2 01 9 P80 ... : G-3 01 F P82 ...
ROW B5 : ... .. E ... ... ... : ... .. 6 ... ... ... : ... .. . ... : ... .. C ... : ... .. . ... ... : ... .. 8 ... ... : ... .. 8 ... ... : ... .. D P81 ...
ROW B6 : ... .. D ... ... ... : ... .. 3 ... ... ... : ... .. . ... : ... .. 6 ... : ... .. . ... ... : ... .. . ... ... : ... .. . ... ... : ... .. 8 P80 ...
ROW B7 : ... .. A ... ... ... : ... .. 1 ... ... ... : ... .. . ... : ... .. 3 ... : ... .. . ... ... : --- .. . P81 ... : --- .. . P82 ... : ... .. . P7E ...
ROW B8 : ... .. . ... ... ... : ... .. . ... ... ... : ... .. . ... : ... .. 2 ... : ... .. . ... ... : ... .. . ... ... : ... .. . ... ... : ... .. . ... ...
ROW B9 : ... .. . ... ... ... : ... .. 0 ... ... ... : --- .. . ... : ... .. 0 ... : ... .. . ... ... : ... .. . ... ... : ... .. . ... ... : ... .. . P80 ...
ROW BA : ... .. . ... ... ... : C-5 00 8 P80 ... ... : A#3 00 . ... : ... .. F ... : ... .. . ... ... : G-3 01 9 P80 ... : A#2 01 9 P80 ... : ... .. . P81 ...
ROW BB : ... .. . ... ... ... : ... .. 6 ... ... ... : ... .. . ... : ... .. C ... : ... .. . ... ... : ... .. 8 ... ... : ... .. 8 ... ... : ... .. . P82 ...
ROW BC : ... .. . ... ... ... : ... .. 3 ... ... ... : ... .. . ... : ... .. 6 ... : ... .. . ... ... : ... .. . ... ... : ... .. . ... ... : ... .. . P81 ...
ROW BD : ... .. 0 ... ... ... : ... .. 1 ... ... ... : ... .. . ... : ... .. 3 ... : ... .. . ... ... : ... .. . ... ... : ... .. . ... ... : --- .. . P80 ...
ROW BE : ... .. . ... ... ... : ... .. . ... ... ... : ... .. . ... : ... .. 2 ... : ... .. . ... ... : ... .. 7 ... ... : ... .. 7 ... ... : ... .. . ... ...
ROW BF : ... .. . ... ... ... : ... .. 0 ... ... ... : --- .. . ... : ... .. 0 ... : ... .. . ... ... : ... .. . ... ... : ... .. . ... ... : ... .. . ... ...
ROW C0 : D-2 00 F P81 ... ... : D-5 00 8 P80 ... ... : C#4 00 . ... : B-# 00 D ... : ... .. . ... ... : ... .. . ... ... : ... .. . ... ... : D-3 01 F ... ...
ROW C1 : ... .. E ... ... ... : ... .. 6 ... ... ... : D#3 00 . ... : ... .. B ... : ... .. . ... ... : ... .. 6 ... ... : ... .. 6 ... ... : ... .. D P81 ...
ROW C2 : ... .. D ... ... ... : ... .. 3 ... ... ... : G#2 00 . ... : ... .. . ... : ... .. . ... ... : ... .. . ... ... : ... .. . ... ... : ... .. 8 P82 ...
ROW C3 : ... .. A ... ... ... : ... .. 1 ... ... ... : G-2 00 . ... : ... .. A ... : ... .. . ... ... : --- .. . P81 ... : --- .. . P82 ... : ... .. . P81 ...
ROW C4 : ... .. . ... ... ... : ... .. . ... ... ... : D-2 00 . ... : ... .. 8 ... : ... .. . ... ... : ... .. . ... ... : ... .. . ... ... : ... .. . P80 ...
ROW C5 : ... .. . ... ... ... : ... .. 0 ... ... ... : ... .. . ... : ... .. 7 ... : ... .. . ... ... : ... .. . ... ... : ... .. . ... ... : ... .. . P7E ...
ROW C6 : ... .. . ... ... ... : D#5 00 8 P80 ... ... : ... .. . ... : ... .. 6 ... : ... .. . ... ... : ... .. . ... ... : ... .. . ... ... : ... .. . ... ...
ROW C7 : ... .. . ... ... ... : ... .. 6 ... ... ... : ... .. . ... : ... .. . ... : ... .. . ... ... : ... .. . ... ... : ... .. . ... ... : ... .. . P80 ...
ROW C8 : ... .. . ... ... ... : ... .. 3 ... ... ... : ... .. . ... : ... .. 5 ... : ... .. . ... ... : ... .. . ... ... : ... .. . ... ... : ... .. . P81 ...
ROW C9 : ... .. . ... ... ... : ... .. 1 ... ... ... : ... .. . ... : ... .. . ... : ... .. . ... ... : ... .. . ... ... : ... .. . ... ... : ... .. . P82 ...
ROW CA : ... .. . ... ... ... : ... .. . ... ... ... : ... .. . ... : ... .. 4 ... : ... .. . ... ... : ... .. . ... ... : ... .. . ... ... : ... .. . P81 ...
ROW CB : ... .. . ... ... ... : ... .. 0 ... ... ... : --- .. . ... : ... .. . ... : ... .. . ... ... : ... .. . ... ... : ... .. . ... ... : ... .. . P80 ...
ROW CC : ... .. . ... ... ... : D-5 00 8 P80 ... ... : C-4 00 . ... : D-# 00 F ... : ... .. . ... ... : F#3 01 9 P80 ... : C-3 01 9 P80 ... : ... .. . P7F ...
ROW CD : ... .. . ... ... ... : ... .. 6 ... ... ... : ... .. . ... : ... .. C ... : ... .. . ... ... : ... .. 8 ... ... : ... .. 8 ... ... : ... .. . P7E ...
ROW CE : ... .. . ... ... ... : ... .. 3 ... ... ... : ... .. . ... : ... .. 6 ... : ... .. . ... ... : ... .. . ... ... : ... .. . ... ... : ... .. . P80 ...
ROW CF : ... .. 0 ... ... ... : ... .. 1 ... ... ... : ... .. . ... : ... .. 3 ... : ... .. . ... ... : --- .. . P7F ... : --- .. . P7E ... : --- .. . P84 ...
ROW D0 : ... .. . ... ... ... : ... .. . ... ... ... : ... .. . ... : ... .. 2 ... : ... .. . ... ... : ... .. . ... ... : ... .. . ... ... : ... .. . ... ...
ROW D1 : ... .. . ... ... ... : ... .. 0 ... ... ... : --- .. . ... : ... .. 0 ... : ... .. . ... ... : ... .. . ... ... : ... .. . ... ... : ... .. . ... ...
ROW D2 : E-2 00 F P81 ... ... : D#5 00 8 P80 ... ... : C-4 00 . ... : ... .. F ... : ... .. . ... ... : F#3 01 9 P80 ... : C-3 01 9 P80 ... : E-3 01 F P80 ...
ROW D3 : ... .. E ... ... ... : ... .. 6 ... ... ... : ... .. . ... : ... .. C ... : ... .. . ... ... : ... .. 8 ... ... : ... .. 8 ... ... : ... .. D P7F ...
ROW D4 : ... .. D ... ... ... : ... .. 3 ... ... ... : ... .. . ... : ... .. 6 ... : ... .. . ... ... : ... .. . ... ... : ... .. . ... ... : ... .. 8 P7E ...
ROW D5 : ... .. 0 ... ... ... : ... .. 1 ... ... ... : ... .. . ... : ... .. 3 ... : ... .. . ... ... : ... .. . ... ... : ... .. . ... ... : --- .. . P83 ...
ROW D6 : ... .. . ... ... ... : ... .. . ... ... ... : ... .. . ... : ... .. 2 ... : ... .. . ... ... : ... .. 7 ... ... : ... .. 7 ... ... : ... .. . ... ...
ROW D7 : ... .. . ... ... ... : ... .. 0 ... ... ... : --- .. . ... : ... .. 0 ... : ... .. . ... ... : ... .. . ... ... : ... .. . ... ... : ... .. . ... ...
ROW D8 : F#2 00 F P81 ... ... : D-5 00 8 P80 ... ... : C#4 00 . ... : B-# 00 D ... : ... .. . ... ... : ... .. . ... ... : ... .. . ... ... : F#3 01 F P82 ...
ROW D9 : ... .. E ... ... ... : ... .. 6 ... ... ... : D#3 00 . ... : ... .. B ... : ... .. . ... ... : ... .. 6 ... ... : ... .. 6 ... ... : ... .. D P80 ...
ROW DA : ... .. D ... ... ... : ... .. 3 ... ... ... : G#2 00 . ... : ... .. . ... : ... .. . ... ... : ... .. . ... ... : ... .. . ... ... : ... .. 8 P7F ...
ROW DB : ... .. A ... ... ... : ... .. 1 ... ... ... : G-2 00 . ... : ... .. A ... : ... .. . ... ... : --- .. . P7F ... : --- .. . P7E ... : ... .. . P7E ...
ROW DC : ... .. . ... ... ... : ... .. . ... ... ... : D-2 00 . ... : ... .. 8 ... : ... .. . ... ... : ... .. . ... ... : ... .. . ... ... : ... .. . P7F ...
ROW DD : ... .. . ... ... ... : ... .. 0 ... ... ... : ... .. . ... : ... .. 7 ... : ... .. . ... ... : ... .. . ... ... : ... .. . ... ... : ... .. . P80 ...
ROW DE : ... .. . ... ... ... : D#5 00 8 P80 ... ... : ... .. . ... : ... .. 6 ... : ... .. . ... ... : ... .. . ... ... : ... .. . ... ... : ... .. . P82 ...
ROW DF : ... .. . ... ... ... : ... .. 6 ... ... ... : ... .. . ... : ... .. . ... : ... .. . ... ... : ... .. . ... ... : ... .. . ... ... : ... .. . ... ...
ROW E0 : ... .. . ... ... ... : ... .. 3 ... ... ... : ... .. . ... : ... .. 5 ... : ... .. . ... ... : ... .. . ... ... : ... .. . ... ... : ... .. . P80 ...
ROW E1 : ... .. . ... ... ... : ... .. 1 ... ... ... : ... .. . ... : ... .. . ... : ... .. . ... ... : ... .. . ... ... : ... .. . ... ... : ... .. . P7F ...
ROW E2 : ... .. . ... ... ... : ... .. . ... ... ... : ... .. . ... : ... .. 4 ... : ... .. . ... ... : ... .. . ... ... : ... .. . ... ... : ... .. . P7E ...
ROW E3 : ... .. . ... ... ... : ... .. 0 ... ... ... : --- .. . ... : ... .. . ... : ... .. . ... ... : ... .. . ... ... : ... .. . ... ... : ... .. . P7F ...
ROW E4 : A-2 00 F ... ... ... : D-5 00 8 P80 ... ... : C-4 00 . ... : D-# 00 F ... : ... .. . ... ... : F#3 01 9 P80 ... : C-3 01 9 P80 ... : A-3 01 F P80 ...
ROW E5 : ... .. E ... ... ... : ... .. 6 ... ... ... : ... .. . ... : ... .. C ... : ... .. . ... ... : ... .. 8 ... ... : ... .. 8 ... ... : ... .. D P82 ...
ROW E6 : ... .. D ... ... ... : ... .. 3 ... ... ... : ... .. . ... : ... .. 6 ... : ... .. . ... ... : ... .. . ... ... : ... .. . ... ... : ... .. 8 ... ...
ROW E7 : ... .. A ... ... ... : ... .. 1 ... ... ... : ... .. . ... : ... .. 3 ... : ... .. . ... ... : --- .. . P7F ... : --- .. . P7E ... : ... .. . P80 ...
ROW E8 : ... .. . ... ... ... : ... .. . ... ... ... : ... .. . ... : ... .. 2 ... : ... .. . ... ... : ... .. . ... ... : ... .. . ... ... : ... .. . P7F ...
ROW E9 : ... .. . ... ... ... : ... .. 0 ... ... ... : --- .. . ... : ... .. 0 ... : ... .. . ... ... : ... .. . ... ... : ... .. . ... ... : ... .. . P7E ...
ROW EA : ... .. . ... ... ... : C-5 00 8 P80 ... ... : C-4 00 . ... : ... .. F ... : ... .. . ... ... : F#3 01 9 P80 ... : C-3 01 9 P80 ... : ... .. . P7F ...
ROW EB : ... .. . ... ... ... : ... .. 6 ... ... ... : ... .. . ... : ... .. C ... : ... .. . ... ... : ... .. 8 ... ... : ... .. 8 ... ... : ... .. . P80 ...
ROW EC : ... .. . ... ... ... : ... .. 3 ... ... ... : ... .. . ... : ... .. 6 ... : ... .. . ... ... : ... .. . ... ... : ... .. . ... ... : ... .. . P81 ...
ROW ED : ... .. 0 ... ... ... : ... .. 1 ... ... ... : ... .. . ... : ... .. 3 ... : ... .. . ... ... : --- .. . P7F ... : ... .. . ... ... : --- .. . P80 ...
ROW EE : ... .. . ... ... ... : ... .. . ... ... ... : ... .. . ... : ... .. 2 ... : ... .. . ... ... : ... .. . ... ... : ... .. 7 ... ... : ... .. . ... ...
ROW EF : ... .. . ... ... ... : ... .. 0 ... ... ... : --- .. . ... : ... .. 0 ... : ... .. . ... ... : ... .. . ... ... : ... .. . ... ... : ... .. . ... ...
ROW F0 : A#2 00 F P81 ... ... : A#4 00 8 P80 ... ... : F#5 00 . ... : B-# 00 D ... : ... .. . ... ... : G#4 01 9 P80 ... : C#4 01 9 ... ... : A#3 01 F P7E ...
ROW F1 : ... .. E ... ... ... : ... .. 6 ... ... ... : G#4 00 . ... : ... .. B ... : ... .. . ... ... : ... .. 8 ... ... : ... .. 8 ... ... : ... .. D P7F ...
ROW F2 : ... .. D ... ... ... : ... .. 3 ... ... ... : C#4 00 . ... : ... .. . ... : ... .. . ... ... : ... .. . ... ... : ... .. . ... ... : ... .. 8 P80 ...
ROW F3 : ... .. A ... ... ... : ... .. 1 ... ... ... : C-4 00 . ... : ... .. A ... : ... .. . ... ... : ... .. . ... ... : ... .. . ... ... : ... .. . P81 ...
ROW F4 : ... .. . ... ... ... : ... .. . ... ... ... : G-3 00 . ... : ... .. 8 ... : ... .. . ... ... : A-4 01 7 P7D ... : ... .. 7 P85 ... : ... .. . P82 ...
ROW F5 : ... .. . ... ... ... : ... .. 0 ... ... ... : ... .. . ... : ... .. 7 ... : ... .. . ... ... : ... .. . P80 ... : D-4 01 7 P7E ... : ... .. . P81 ...
ROW F6 : ... .. . ... ... ... : A-4 00 8 P80 ... ... : ... .. . ... : ... .. 6 ... : ... .. . ... ... : ... .. . ... ... : ... .. . P80 ... : ... .. . P80 ...
ROW F7 : ... .. . ... ... ... : ... .. 6 ... ... ... : ... .. . ... : ... .. . ... : ... .. . ... ... : ... .. 6 ... ... : ... .. 6 ... ... : ... .. . P7E ...
ROW F8 : ... .. . ... ... ... : ... .. 3 ... ... ... : ... .. . ... : ... .. 5 ... : ... .. . ... ... : ... .. . ... ... : ... .. . ... ... : ... .. . ... ...
ROW F9 : ... .. . ... ... ... : ... .. 1 ... ... ... : ... .. . ... : ... .. . ... : ... .. . ... ... : ... .. . ... ... : ... .. . ... ... : ... .. . P80 ...
ROW FA : ... .. . ... ... ... : ... .. . ... ... ... : ... .. . ... : ... .. 4 ... : ... .. . ... ... : ... .. . ... ... : ... .. . ... ... : ... .. . P81 ...
ROW FB : ... .. . ... ... ... : ... .. 0 ... ... ... : ... .. . ... : ... .. . ... : ... .. . ... ... : ... .. . ... ... : ... .. . ... ... : ... .. . P82 ...
ROW FC : ... .. . ... ... ... : A#4 00 8 P80 ... ... : E-5 00 . ... : ... .. D ... : ... .. . ... ... : ... .. 9 ... ... : ... .. 9 ... ... : ... .. . P81 ...
ROW FD : ... .. . ... ... ... : ... .. 6 ... ... ... : F#4 00 . ... : ... .. B ... : ... .. . ... ... : ... .. 8 ... ... : ... .. 8 ... ... : ... .. . P80 ...
ROW FE : ... .. . ... ... ... : ... .. 3 ... ... ... : B-3 00 . ... : ... .. . ... : ... .. . ... ... : ... .. . ... ... : ... .. . ... ... : ... .. . P7E ...
ROW FF : ... .. . ... ... ... : ... .. 1 ... ... ... : A#3 00 . ... : ... .. A ... : ... .. . ... ... : ... .. . ... ... : ... .. . ... ... : ... .. . ... ...

PATTERN 10
ROW 00 : ... .. . ... ... ... : ... .. . ... ... ... : F-3 00 . ... : ... .. 8 ... : ... .. . ... ... : ... .. 7 ... ... : ... .. 7 ... ... : ... .. . P80 ...
ROW 01 : ... .. . ... ... ... : ... .. 0 ... ... ... : ... .. . ... : ... .. 7 ... : ... .. . ... ... : ... .. . ... ... : ... .. . ... ... : ... .. . P81 ...
ROW 02 : ... .. . ... ... ... : A-4 00 8 P80 ... ... : ... .. . ... : ... .. 6 ... : ... .. . ... ... : ... .. . ... ... : ... .. . ... ... : ... .. . P82 ...
ROW 03 : ... .. . ... ... ... : ... .. 6 ... ... ... : ... .. . ... : ... .. . ... : ... .. . ... ... : ... .. 6 ... ... : ... .. 6 ... ... : ... .. . P81 ...
ROW 04 : ... .. . ... ... ... : ... .. 3 ... ... ... : ... .. . ... : ... .. 5 ... : ... .. . ... ... : ... .. . ... ... : ... .. . ... ... : ... .. . P80 ...
ROW 05 : ... .. . ... ... ... : ... .. 1 ... ... ... : ... .. . ... : ... .. . ... : ... .. . ... ... : ... .. . ... ... : ... .. . ... ... : ... .. . P7E ...
ROW 06 : ... .. . ... ... ... : ... .. . ... ... ... : ... .. . ... : ... .. 4 ... : ... .. . ... ... : ... .. 5 ... ... : ... .. 5 ... ... : ... .. . ... ...
ROW 07 : ... .. . ... ... ... : ... .. 0 ... ... ... : ... .. . ... : ... .. . ... : ... .. . ... ... : ... .. . ... ... : ... .. . ... ... : ... .. . P80 ...
ROW 08 : G-2 00 F ... ... ... : A#4 00 8 P80 ... ... : D#5 00 . ... : ... .. D ... : ... .. . ... ... : D-4 01 9 ... ... : G-3 01 9 ... ... : G-3 01 F P81 ...
ROW 09 : ... .. E ... ... ... : ... .. 6 ... ... ... : F-4 00 . ... : ... .. B ... : ... .. . ... ... : ... .. 8 ... ... : ... .. 8 ... ... : ... .. D P82 ...
ROW 0A : ... .. D ... ... ... : ... .. 3 ... ... ... : A#3 00 . ... : ... .. . ... : ... .. . ... ... : ... .. . ... ... : ... .. . ... ... : ... .. 8 P81 ...
ROW 0B : ... .. A ... ... ... : ... .. 1 ... ... ... : A-3 00 . ... : ... .. A ... : ... .. . ... ... : ... .. . ... ... : ... .. . ... ... : ... .. . P80 ...
ROW 0C : ... .. . ... ... ... : ... .. . ... ... ... : E-3 00 . ... : ... .. 8 ... : ... .. . ... ... : ... .. 7 ... ... : ... .. 7 ... ... : ... .. . P7F ...
ROW 0D : ... .. . ... ... ... : ... .. 0 ... ... ... : ... .. . ... : ... .. 7 ... : ... .. . ... ... : ... .. . ... ... : ... .. . ... ... : ... .. . P7E ...
ROW 0E : ... .. . ... ... ... : A-4 00 8 P80 ... ... : ... .. . ... : ... .. 6 ... : ... .. . ... ... : ... .. . ... ... : ... .. . ... ... : ... .. . P80 ...
ROW 0F : F#2 00 F ... ... ... : ... .. 6 ... ... ... : ... .. . ... : ... .. . ... : ... .. . ... ... : ... .. 6 ... ... : ... .. 6 ... ... : F#3 01 F ... ...
ROW 10 : ... .. E ... ... ... : ... .. 3 ... ... ... : ... .. . ... : ... .. 5 ... : ... .. . ... ... : ... .. . ... ... : ... .. . ... ... : ... .. D P82 ...
ROW 11 : ... .. D ... ... ... : ... .. 1 ... ... ... : ... .. . ... : ... .. . ... : ... .. . ... ... : ... .. . ... ... : ... .. . ... ... : ... .. 8 P81 ...
ROW 12 : ... .. A ... ... ... : ... .. . ... ... ... : ... .. . ... : ... .. 4 ... : ... .. . ... ... : ... .. . ... ... : ... .. . ... ... : ... .. . P80 ...
ROW 13 : F-2 00 F ... ... ... : ... .. 0 ... ... ... : ... .. . ... : ... .. . ... : ... .. . ... ... : ... .. . ... ... : ... .. . ... ... : F-3 01 F P7F ...
ROW 14 : ... .. E ... ... ... : G-4 00 8 P80 ... ... : D-5 00 . ... : D-# 00 F ... : ... .. . ... ... : ... .. 9 ... ... : ... .. 9 ... ... : ... .. D P7E ...
ROW 15 : ... .. D ... ... ... : ... .. 6 ... ... ... : E-4 00 . ... : ... .. C ... : ... .. . ... ... : ... .. 8 ... ... : ... .. 8 ... ... : ... .. 8 P7F ...
ROW 16 : ... .. A ... ... ... : ... .. 3 ... ... ... : A-3 00 . ... : ... .. 6 ... : ... .. . ... ... : ... .. . ... ... : ... .. . ... ... : ... .. . P80 ...
ROW 17 : ... .. . ... ... ... : ... .. 1 ... ... ... : G#3 00 . ... : ... .. 3 ... : ... .. . ... ... : ... .. . ... ... : ... .. . ... ... : ... .. . P82 ...
ROW 18 : E-2 00 F ... ... ... : ... .. . ... ... ... : D#3 00 . ... : ... .. 2 ... : ... .. . ... ... : ... .. 7 ... ... : ... .. 7 ... ... : E-3 01 F ... ...
ROW 19 : ... .. E ... ... ... : ... .. 0 ... ... ... : ... .. . ... : ... .. 0 ... : ... .. . ... ... : ... .. . ... ... : ... .. . ... ... : ... .. D P80 ...
ROW 1A : ... .. D ... ... ... : ... .. . ... ... ... : ... .. . ... : ... .. F ... : ... .. . ... ... : ... .. . ... ... : ... .. . ... ... : ... .. 8 P7F ...
ROW 1B : ... .. A ... ... ... : ... .. . ... ... ... : ... .. . ... : ... .. C ... : ... .. . ... ... : ... .. 6 ... ... : ... .. 6 ... ... : ... .. . P7E ...
ROW 1C : D#2 00 F ... ... ... : ... .. . ... ... ... : ... .. . ... : ... .. 6 ... : ... .. . ... ... : ... .. . ... ... : ... .. . ... ... : D#3 01 F P7F ...
ROW 1D : ... .. E ... ... ... : ... .. . ... ... ... : ... .. . ... : ... .. 3 ... : ... .. . ... ... : --- .. . ... ... : --- .. . P81 ... : ... .. D P80 ...
ROW 1E : ... .. D ... ... ... : ... .. . ... ... ... : ... .. . ... : ... .. 2 ... : ... .. . ... ... : ... .. . ... ... : ... .. . ... ... : ... .. 8 P82 ...
ROW 1F : ... .. A ... ... ... : ... .. . ... ... ... : ... .. . ... : ... .. 0 ... : ... .. . ... ... : ... .. . ... ... : ... .. . ... ... : ... .. . ... ...
ROW 20 : D-2 00 F ... ... ... : D-5 00 8 P80 ... ... : C#5 00 . ... : B-# 00 D ... : ... .. . ... ... : ... .. . ... ... : ... .. . ... ... : D-3 01 F P80 ...
ROW 21 : ... .. E ... ... ... : ... .. 6 ... ... ... : D#4 00 . ... : ... .. B ... : ... .. . ... ... : ... .. . ... ... : ... .. . ... ... : ... .. D P7F ...
ROW 22 : ... .. D ... ... ... : ... .. 3 ... ... ... : G#3 00 . ... : ... .. . ... : ... .. . ... ... : ... .. . ... ... : ... .. . ... ... : ... .. 8 P7E ...
ROW 23 : ... .. A ... ... ... : ... .. 1 ... ... ... : G-3 00 . ... : ... .. A ... : ... .. . ... ... : ... .. . ... ... : ... .. . ... ... : ... .. . P7F ...
ROW 24 : ... .. . ... ... ... : ... .. . ... ... ... : D-3 00 . ... : ... .. 8 ... : ... .. . ... ... : ... .. . ... ... : ... .. . ... ... : ... .. . P80 ...
ROW 25 : ... .. . ... ... ... : ... .. 0 ... ... ... : ... .. . ... : ... .. 7 ... : ... .. . ... ... : ... .. . ... ... : ... .. . ... ... : ... .. . P82 ...
ROW 26 : ... .. . ... ... ... : D#5 00 8 P80 ... ... : ... .. . ... : ... .. 6 ... : ... .. . ... ... : ... .. . ... ... : ... .. . ... ... : ... .. . ... ...
ROW 27 : ... .. . ... ... ... : ... .. 6 ... ... ... : ... .. . ... : ... .. . ... : ... .. . ... ... : ... .. . ... ... : ... .. . ... ... : ... .. . P80 ...
ROW 28 : ... .. . ... ... ... : ... .. 3 ... ... ... : ... .. . ... : ... .. 5 ... : ... .. . ... ... : ... .. . ... ... : ... .. . ... ... : ... .. . P7F ...
ROW 29 : ... .. . ... ... ... : ... .. 1 ... ... ... : ... .. . ... : ... .. . ... : ... .. . ... ... : ... .. . ... ... : ... .. . ... ... : ... .. . P7E ...
ROW 2A : ... .. . ... ... ... : ... .. . ... ... ... : ... .. . ... : ... .. 4 ... : ... .. . ... ... : ... .. . ... ... : ... .. . ... ... : ... .. . P7F ...
ROW 2B : ... .. . ... ... ... : ... .. 0 ... ... ... : --- .. . ... : ... .. . ... : ... .. . ... ... : ... .. . ... ... : ... .. . ... ... : ... .. . P80 ...
ROW 2C : ... .. . ... ... ... : D-5 00 8 P80 ... ... : B-4 00 . ... : D-# 00 F ... : ... .. . ... ... : A-3 01 9 ... ... : C-3 01 9 P80 ... : ... .. . P81 ...
ROW 2D : ... .. . ... ... ... : ... .. 6 ... ... ... : C#4 00 . ... : ... .. C ... : ... .. . ... ... : ... .. 8 ... ... : ... .. 8 ... ... : ... .. . P82 ...
ROW 2E : ... .. . ... ... ... : ... .. 3 ... ... ... : F#3 00 . ... : ... .. 6 ... : ... .. . ... ... : ... .. . ... ... : ... .. . ... ... : ... .. . P80 ...
ROW 2F : ... .. . ... ... ... : ... .. 1 ... ... ... : F-3 00 . ... : ... .. 3 ... : ... .. . ... ... : --- .. . ... ... : --- .. . P7E ... : ... .. . ... ...
ROW 30 : ... .. . ... ... ... : ... .. . ... ... ... : C-3 00 . ... : ... .. 2 ... : ... .. . ... ... : ... .. . ... ... : ... .. . ... ... : ... .. . P7E ...
ROW 31 : ... .. . ... ... ... : ... .. 0 ... ... ... : ... .. . ... : ... .. 0 ... : ... .. . ... ... : ... .. . ... ... : ... .. . ... ... : ... .. . P7F ...
ROW 32 : E-2 00 F ... ... ... : D#5 00 8 P80 ... ... : ... .. . ... : ... .. F ... : ... .. . ... ... : A-3 01 9 ... ... : C-3 01 9 P80 ... : E-3 01 F P80 ...
ROW 33 : ... .. E ... ... ... : ... .. 6 ... ... ... : ... .. . ... : ... .. C ... : ... .. . ... ... : ... .. 8 ... ... : ... .. 8 ... ... : ... .. D P81 ...
ROW 34 : ... .. D ... ... ... : ... .. 3 ... ... ... : ... .. . ... : ... .. 6 ... : ... .. . ... ... : ... .. . ... ... : ... .. . ... ... : ... .. 8 P82 ...
ROW 35 : ... .. 0 ... ... ... : ... .. 1 ... ... ... : ... .. . ... : ... .. 3 ... : ... .. . ... ... : ... .. . ... ... : ... .. . ... ... : --- .. . P7F ...
ROW 36 : ... .. . ... ... ... : ... .. . ... ... ... : ... .. . ... : ... .. 2 ... : ... .. . ... ... : ... .. 7 ... ... : ... .. 7 ... ... : ... .. . ... ...
ROW 37 : ... .. . ... ... ... : ... .. 0 ... ... ... : --- .. . ... : ... .. 0 ... : ... .. . ... ... : ... .. . ... ... : ... .. . ... ... : ... .. . ... ...
ROW 38 : F#2 00 F P81 ... ... : D-5 00 8 P80 ... ... : A-4 00 . ... : B-# 00 D ... : ... .. . ... ... : ... .. . ... ... : ... .. . ... ... : F#3 01 F P7E ...
ROW 39 : ... .. E ... ... ... : ... .. 6 ... ... ... : B-3 00 . ... : ... .. B ... : ... .. . ... ... : ... .. 6 ... ... : ... .. 6 ... ... : ... .. D P80 ...
ROW 3A : ... .. D ... ... ... : ... .. 3 ... ... ... : E-3 00 . ... : ... .. . ... : ... .. . ... ... : ... .. . ... ... : ... .. . ... ... : ... .. 8 P81 ...
ROW 3B : ... .. A ... ... ... : ... .. 1 ... ... ... : D#3 00 . ... : ... .. A ... : ... .. . ... ... : --- .. . ... ... : --- .. . P7E ... : ... .. . P82 ...
ROW 3C : ... .. . ... ... ... : ... .. . ... ... ... : A#2 00 . ... : ... .. 8 ... : ... .. . ... ... : ... .. . ... ... : ... .. . ... ... : ... .. . P81 ...
ROW 3D : ... .. . ... ... ... : ... .. 0 ... ... ... : ... .. . ... : ... .. 7 ... : ... .. . ... ... : ... .. . ... ... : ... .. . ... ... : ... .. . P80 ...
ROW 3E : ... .. . ... ... ... : D#5 00 8 P80 ... ... : ... .. . ... : ... .. 6 ... : ... .. . ... ... : ... .. . ... ... : ... .. . ... ... : ... .. . P7E ...
ROW 3F : ... .. 2 ... ... ... : ... .. 6 ... ... ... : ... .. . ... : ... .. . ... : ... .. . ... ... : ... .. . ... ... : ... .. . ... ... : ... .. 4 ... ...
ROW 40 : ... .. . ... ... ... : ... .. 3 ... ... ... : ... .. . ... : ... .. 5 ... : ... .. . ... ... : ... .. . ... ... : ... .. . ... ... : ... .. . P80 ...
ROW 41 : ... .. . ... ... ... : ... .. 1 ... ... ... : ... .. . ... : ... .. . ... : ... .. . ... ... : ... .. . ... ... : ... .. . ... ... : ... .. 1 P81 ...
ROW 42 : ... .. 1 ... ... ... : ... .. . ... ... ... : ... .. . ... : ... .. 4 ... : ... .. . ... ... : ... .. . ... ... : ... .. . ... ... : ... .. . P82 ...
ROW 43 : ... .. . ... ... ... : ... .. 0 ... ... ... : --- .. . ... : ... .. . ... : ... .. . ... ... : ... .. . ... ... : ... .. . ... ... : ... .. . P81 ...
ROW 44 : D-2 00 F ... ... ... : D-5 00 8 P80 ... ... : G#4 00 . ... : D-# 00 F ... : ... .. . ... ... : A-3 01 9 ... ... : C-3 01 9 P80 ... : D-3 01 F P80 ...
ROW 45 : ... .. E ... ... ... : ... .. 6 ... ... ... : A#3 00 . ... : ... .. C ... : ... .. . ... ... : ... .. 8 ... ... : ... .. 8 ... ... : ... .. D P7E ...
ROW 46 : ... .. D ... ... ... : ... .. 3 ... ... ... : D#3 00 . ... : ... .. 6 ... : ... .. . ... ... : ... .. . ... ... : ... .. . ... ... : ... .. 8 ... ...
ROW 47 : ... .. A ... ... ... : ... .. 1 ... ... ... : D-3 00 . ... : ... .. 3 ... : ... .. . ... ... : --- .. . ... ... : --- .. . P7E ... : ... .. . P80 ...
ROW 48 : ... .. . ... ... ... : ... .. . ... ... ... : A-2 00 . ... : ... .. 2 ... : ... .. . ... ... : ... .. . ... ... : ... .. . ... ... : ... .. . P81 ...
ROW 49 : ... .. . ... ... ... : ... .. 0 ... ... ... : ... .. . ... : ... .. 0 ... : ... .. . ... ... : ... .. . ... ... : ... .. . ... ... : ... .. . P82 ...
ROW 4A : ... .. 0 ... ... ... : C-5 00 8 P80 ... ... : ... .. . ... : ... .. F ... : ... .. . ... ... : A-3 01 9 ... ... : C-3 01 9 P80 ... : --- .. . P7C ...
ROW 4B : ... .. . ... ... ... : ... .. 6 ... ... ... : ... .. . ... : ... .. C ... : ... .. . ... ... : ... .. 8 ... ... : ... .. 8 ... ... : ... .. . ... ...
ROW 4C : ... .. . ... ... ... : ... .. 3 ... ... ... : ... .. . ... : ... .. 6 ... : ... .. . ... ... : ... .. . ... ... : ... .. . ... ... : ... .. . ... ...
ROW 4D : ... .. . ... ... ... : ... .. 1 ... ... ... : ... .. . ... : ... .. 3 ... : ... .. . ... ... : ... .. . ... ... : ... .. . ... ... : ... .. . ... ...
ROW 4E : ... .. . ... ... ... : ... .. . ... ... ... : ... .. . ... : ... .. 2 ... : ... .. . ... ... : ... .. 7 ... ... : ... .. 7 ... ... : ... .. . ... ...
ROW 4F : ... .. . ... ... ... : ... .. 0 ... ... ... : --- .. . ... : ... .. 0 ... : ... .. . ... ... : ... .. . ... ... : ... .. . ... ... : ... .. . ... ...
ROW 50 : G-2 00 F P81 ... ... : A#4 00 8 P80 ... ... : F#4 00 . ... : B-# 00 D ... : ... .. . ... ... : ... .. . ... ... : ... .. . ... ... : G-3 01 F P82 ...
ROW 51 : ... .. E ... ... ... : ... .. 6 ... ... ... : G#3 00 . ... : ... .. B ... : ... .. . ... ... : ... .. 6 ... ... : ... .. 6 ... ... : ... .. D P81 ...
ROW 52 : ... .. D ... ... ... : ... .. 3 ... ... ... : C#3 00 . ... : ... .. . ... : ... .. . ... ... : ... .. . ... ... : ... .. . ... ... : ... .. 8 P80 ...
ROW 53 : ... .. A ... ... ... : ... .. 1 ... ... ... : C-3 00 . ... : ... .. A ... : ... .. . ... ... : --- .. . ... ... : --- .. . P7E ... : ... .. . P7F ...
ROW 54 : ... .. . ... ... ... : ... .. . ... ... ... : G-2 00 . ... : ... .. 8 ... : ... .. . ... ... : ... .. . ... ... : ... .. . ... ... : ... .. . P7E ...
ROW 55 : ... .. . ... ... ... : ... .. 0 ... ... ... : --- .. . ... : ... .. 7 ... : ... .. . ... ... : ... .. . ... ... : ... .. . ... ... : ... .. . P7F ...
ROW 56 : A-2 00 F ... ... ... : A-4 00 8 P80 ... ... : F#2 00 . ... : ... .. 6 ... : ... .. . ... ... : ... .. . ... ... : ... .. . ... ... : A-3 01 F P80 ...
ROW 57 : ... .. E ... ... ... : ... .. 6 ... ... ... : ... .. . ... : ... .. . ... : ... .. . ... ... : ... .. . ... ... : ... .. . ... ... : ... .. D P82 ...
ROW 58 : ... .. D ... ... ... : ... .. 3 ... ... ... : ... .. . ... : ... .. 5 ... : ... .. . ... ... : ... .. . ... ... : ... .. . ... ... : ... .. 8 ... ...
ROW 59 : ... .. 0 ... ... ... : ... .. 1 ... ... ... : ... .. . ... : ... .. . ... : ... .. . ... ... : ... .. . ... ... : ... .. . ... ... : --- .. . P81 ...
ROW 5A : ... .. . ... ... ... : ... .. . ... ... ... : ... .. . ... : ... .. 4 ... : ... .. . ... ... : ... .. . ... ... : ... .. . ... ... : ... .. . ... ...
ROW 5B : ... .. . ... ... ... : ... .. 0 ... ... ... : --- .. . ... : ... .. . ... : ... .. . ... ... : ... .. . ... ... : ... .. . ... ... : ... .. . ... ...
ROW 5C : A#2 00 F P81 ... ... : A#4 00 8 P80 ... ... : G-2 00 . ... : ... .. D ... : ... .. . ... ... : G-3 01 9 ... ... : A#2 01 9 P80 ... : A#3 01 F P7F ...
ROW 5D : ... .. E ... ... ... : ... .. 6 ... ... ... : ... .. . ... : ... .. B ... : ... .. . ... ... : ... .. 8 ... ... : ... .. 8 ... ... : ... .. D P80 ...
ROW 5E : ... .. D ... ... ... : ... .. 3 ... ... ... : ... .. . ... : ... .. . ... : ... .. . ... ... : ... .. . ... ... : ... .. . ... ... : ... .. 8 P82 ...
ROW 5F : ... .. 0 ... ... ... : ... .. 1 ... ... ... : ... .. . ... : ... .. A ... : ... .. . ... ... : --- .. . P81 ... : --- .. . P82 ... : --- .. . P81 ...
ROW 60 : ... .. . ... ... ... : ... .. . ... ... ... : ... .. . ... : ... .. 8 ... : ... .. . ... ... : ... .. . ... ... : ... .. . ... ... : ... .. . ... ...
ROW 61 : ... .. . ... ... ... : ... .. 0 ... ... ... : --- .. . ... : ... .. 7 ... : ... .. . ... ... : ... .. . ... ... : ... .. . ... ... : ... .. . ... ...
ROW 62 : C-3 00 F P81 ... ... : A-4 00 8 P80 ... ... : A-2 00 . ... : ... .. 6 ... : ... .. . ... ... : G-3 01 9 P80 ... : A#2 01 9 P80 ... : C-4 01 F P7E ...
ROW 63 : ... .. E ... ... ... : ... .. 6 ... ... ... : ... .. . ... : ... .. . ... : ... .. . ... ... : ... .. 8 ... ... : ... .. 8 ... ... : ... .. D P7F ...
ROW 64 : ... .. D ... ... ... : ... .. 3 ... ... ... : ... .. . ... : ... .. 5 ... : ... .. . ... ... : ... .. . ... ... : ... .. . ... ... : ... .. 8 P80 ...
ROW 65 : ... .. 0 ... ... ... : ... .. 1 ... ... ... : ... .. . ... : ... .. . ... : ... .. . ... ... : ... .. . ... ... : ... .. . ... ... : --- .. . ... ...
ROW 66 : ... .. . ... ... ... : ... .. . ... ... ... : ... .. . ... : ... .. 4 ... : ... .. . ... ... : ... .. 7 ... ... : ... .. 7 ... ... : ... .. . ... ...
ROW 67 : ... .. . ... ... ... : ... .. 0 ... ... ... : --- .. . ... : ... .. . ... : ... .. . ... ... : ... .. . ... ... : ... .. . ... ... : ... .. . ... ...
ROW 68 : D-3 00 F P81 ... ... : A#4 00 8 P80 ... ... : A-4 00 . ... : ... .. D ... : ... .. . ... ... : ... .. . ... ... : ... .. . ... ... : D-4 01 F P7F ...
ROW 69 : ... .. E ... ... ... : ... .. 6 ... ... ... : B-3 00 . ... : ... .. B ... : ... .. . ... ... : ... .. 6 ... ... : ... .. 6 ... ... : ... .. D P7E ...
ROW 6A : ... .. D ... ... ... : ... .. 3 ... ... ... : E-3 00 . ... : ... .. . ... : ... .. . ... ... : ... .. . ... ... : ... .. . ... ... : ... .. 8 P7F ...
ROW 6B : ... .. A ... ... ... : ... .. 1 ... ... ... : D#3 00 . ... : ... .. A ... : ... .. . ... ... : --- .. . P81 ... : --- .. . P82 ... : ... .. . P80 ...
ROW 6C : ... .. . ... ... ... : ... .. . ... ... ... : A#2 00 . ... : ... .. 8 ... : ... .. . ... ... : ... .. . ... ... : ... .. . ... ... : ... .. . P81 ...
ROW 6D : ... .. . ... ... ... : ... .. 0 ... ... ... : ... .. . ... : ... .. 7 ... : ... .. . ... ... : ... .. . ... ... : ... .. . ... ... : ... .. . P82 ...
ROW 6E : ... .. . ... ... ... : A-4 00 8 P80 ... ... : ... .. . ... : ... .. 6 ... : ... .. . ... ... : ... .. . ... ... : ... .. . ... ... : ... .. . P80 ...
ROW 6F : ... .. . ... ... ... : ... .. 6 ... ... ... : ... .. . ... : ... .. . ... : ... .. . ... ... : ... .. . ... ... : ... .. . ... ... : ... .. . ... ...
ROW 70 : ... .. . ... ... ... : ... .. 3 ... ... ... : ... .. . ... : ... .. 5 ... : ... .. . ... ... : ... .. . ... ... : ... .. . ... ... : ... .. . P7E ...
ROW 71 : ... .. 0 ... ... ... : ... .. 1 ... ... ... : ... .. . ... : ... .. . ... : ... .. . ... ... : ... .. . ... ... : ... .. . ... ... : --- .. . ... ...
ROW 72 : ... .. . ... ... ... : ... .. . ... ... ... : ... .. . ... : ... .. 4 ... : ... .. . ... ... : ... .. . ... ... : ... .. . ... ... : ... .. . ... ...
ROW 73 : ... .. . ... ... ... : ... .. 0 ... ... ... : --- .. . ... : ... .. . ... : ... .. . ... ... : ... .. . ... ... : ... .. . ... ... : ... .. . ... ...
ROW 74 : A#2 00 F P81 ... ... : A#4 00 8 P80 ... ... : F#4 00 . ... : D-# 00 F ... : ... .. . ... ... : G-3 01 9 P80 ... : A#2 01 9 P80 ... : A#3 01 F P82 ...
ROW 75 : ... .. E ... ... ... : ... .. 6 ... ... ... : G#3 00 . ... : ... .. C ... : ... .. . ... ... : ... .. 8 ... ... : ... .. 8 ... ... : ... .. D P81 ...
ROW 76 : ... .. D ... ... ... : ... .. 3 ... ... ... : C#3 00 . ... : ... .. 6 ... : ... .. . ... ... : ... .. . ... ... : ... .. . ... ... : ... .. 8 P80 ...
ROW 77 : ... .. A ... ... ... : ... .. 1 ... ... ... : C-3 00 . ... : ... .. 3 ... : ... .. . ... ... : --- .. . P81 ... : --- .. . P82 ... : ... .. . P7E ...
ROW 78 : ... .. . ... ... ... : ... .. . ... ... ... : G-2 00 . ... : ... .. 2 ... : ... .. . ... ... : ... .. . ... ... : ... .. . ... ... : ... .. . ... ...
ROW 79 : ... .. . ... ... ... : ... .. 0 ... ... ... : ... .. . ... : ... .. 0 ... : ... .. . ... ... : ... .. . ... ... : ... .. . ... ... : ... .. . P80 ...
ROW 7A : ... .. . ... ... ... : D-5 00 8 P80 ... ... : ... .. . ... : ... .. F ... : ... .. . ... ... : G-3 01 9 P80 ... : A#2 01 9 P80 ... : ... .. . P81 ...
ROW 7B : ... .. . ... ... ... : ... .. 6 ... ... ... : ... .. . ... : ... .. C ... : ... .. . ... ... : ... .. 8 ... ... : ... .. 8 ... ... : ... .. . P82 ...
ROW 7C : ... .. . ... ... ... : ... .. 3 ... ... ... : ... .. . ... : ... .. 6 ... : ... .. . ... ... : ... .. . ... ... : ... .. . ... ... : ... .. . P81 ...
ROW 7D : ... .. 0 ... ... ... : ... .. 1 ... ... ... : ... .. . ... : ... .. 3 ... : ... .. . ... ... : ... .. . ... ... : ... .. . ... ... : --- .. . P80 ...
ROW 7E : ... .. . ... ... ... : ... .. . ... ... ... : ... .. . ... : ... .. 2 ... : ... .. . ... ... : ... .. 7 ... ... : ... .. 7 ... ... : ... .. . ... ...
ROW 7F : ... .. . ... ... ... : ... .. 0 ... ... ... : --- .. . ... : ... .. 0 ... : ... .. . ... ... : ... .. . ... ... : ... .. . ... ... : ... .. . ... ...
ROW 80 : C#3 00 F P81 ... ... : C#5 00 8 P80 ... ... : G#4 00 . ... : B-# 00 D ... : ... .. . ... ... : A-2 01 9 ... ... : A-3 01 9 ... ... : C#4 01 F ... ...
ROW 81 : ... .. E ... ... ... : ... .. 6 ... ... ... : A#3 00 . ... : ... .. B ... : ... .. . ... ... : ... .. 8 ... ... : ... .. 8 ... ... : ... .. D P81 ...
ROW 82 : ... .. D ... ... ... : ... .. 3 ... ... ... : D#3 00 . ... : ... .. . ... : ... .. . ... ... : ... .. . ... ... : ... .. . ... ... : ... .. 8 P82 ...
ROW 83 : ... .. A ... ... ... : ... .. 1 ... ... ... : D-3 00 . ... : ... .. A ... : ... .. . ... ... : ... .. . ... ... : ... .. . ... ... : ... .. . P81 ...
ROW 84 : ... .. . ... ... ... : ... .. . ... ... ... : A-2 00 . ... : ... .. 8 ... : ... .. . ... ... : ... .. 7 ... ... : ... .. 7 ... ... : ... .. . P80 ...
ROW 85 : ... .. . ... ... ... : ... .. 0 ... ... ... : ... .. . ... : ... .. 7 ... : ... .. . ... ... : ... .. . ... ... : ... .. . ... ... : ... .. . P7E ...
ROW 86 : C-3 00 F ... ... ... : B-4 00 8 P80 ... ... : ... .. . ... : ... .. 6 ... : ... .. . ... ... : A#2 01 9 ... ... : A#3 01 9 ... ... : C-4 01 F ... ...
ROW 87 : ... .. E ... ... ... : ... .. 6 ... ... ... : ... .. . ... : ... .. . ... : ... .. . ... ... : ... .. 8 ... ... : ... .. 8 ... ... : ... .. D P80 ...
ROW 88 : ... .. D ... ... ... : ... .. 3 ... ... ... : ... .. . ... : ... .. 5 ... : ... .. . ... ... : ... .. . ... ... : ... .. . ... ... : ... .. 8 P81 ...
ROW 89 : ... .. A ... ... ... : ... .. 1 ... ... ... : ... .. . ... : ... .. . ... : ... .. . ... ... : ... .. . ... ... : ... .. . ... ... : ... .. . P82 ...
ROW 8A : ... .. . ... ... ... : ... .. . ... ... ... : ... .. . ... : ... .. 4 ... : ... .. . ... ... : ... .. 7 ... ... : ... .. 7 ... ... : ... .. . P81 ...
ROW 8B : ... .. . ... ... ... : ... .. 0 ... ... ... : --- .. . ... : ... .. . ... : ... .. . ... ... : ... .. . ... ... : ... .. . ... ... : ... .. . P80 ...
ROW 8C : C#3 00 F ... ... ... : C#5 00 8 P80 ... ... : G-3 00 . ... : D-# 00 F ... : ... .. . ... ... : A-2 01 9 ... ... : A-3 01 9 ... ... : C#4 01 F P7F ...
ROW 8D : ... .. E ... ... ... : ... .. 6 ... ... ... : ... .. . ... : ... .. C ... : ... .. . ... ... : ... .. 8 ... ... : ... .. 8 ... ... : ... .. D P7E ...
ROW 8E : ... .. D ... ... ... : ... .. 3 ... ... ... : ... .. . ... : ... .. 6 ... : ... .. . ... ... : ... .. . ... ... : ... .. . ... ... : ... .. 8 P80 ...
ROW 8F : ... .. 0 ... ... ... : ... .. 1 ... ... ... : ... .. . ... : ... .. 3 ... : ... .. . ... ... : ... .. . ... ... : ... .. . ... ... : --- .. . ... ...
ROW 90 : ... .. . ... ... ... : ... .. . ... ... ... : ... .. . ... : ... .. 2 ... : ... .. . ... ... : ... .. 7 ... ... : ... .. 7 ... ... : ... .. . ... ...
ROW 91 : ... .. . ... ... ... : ... .. 0 ... ... ... : --- .. . ... : ... .. 0 ... : ... .. . ... ... : ... .. . ... ... : ... .. . ... ... : ... .. . ... ...
ROW 92 : D-3 00 F P81 ... ... : D-5 00 8 P80 ... ... : G-3 00 . ... : ... .. F ... : ... .. . ... ... : G-2 01 9 ... ... : G-3 01 9 ... ... : D-4 01 F ... ...
ROW 93 : ... .. E ... ... ... : ... .. 6 ... ... ... : ... .. . ... : ... .. C ... : ... .. . ... ... : ... .. 8 ... ... : ... .. 8 ... ... : ... .. D P7F ...
ROW 94 : ... .. D ... ... ... : ... .. 3 ... ... ... : ... .. . ... : ... .. 6 ... : ... .. . ... ... : ... .. . ... ... : ... .. . ... ... : ... .. 8 P7E ...
ROW 95 : ... .. 0 ... ... ... : ... .. 1 ... ... ... : ... .. . ... : ... .. 3 ... : ... .. . ... ... : ... .. . ... ... : ... .. . ... ... : --- .. . ... ...
ROW 96 : ... .. . ... ... ... : ... .. . ... ... ... : ... .. . ... : ... .. 2 ... : ... .. . ... ... : ... .. 7 ... ... : ... .. 7 ... ... : ... .. . ... ...
ROW 97 : ... .. . ... ... ... : ... .. 0 ... ... ... : --- .. . ... : ... .. 0 ... : ... .. . ... ... : ... .. . ... ... : ... .. . ... ... : ... .. . ... ...
ROW 98 : E-3 00 F P81 ... ... : E-5 00 8 P80 ... ... : G#4 00 . ... : B-# 00 D ... : ... .. . ... ... : F#2 01 9 ... ... : F#3 01 9 ... ... : E-4 01 F P82 ...
ROW 99 : ... .. E ... ... ... : ... .. 6 ... ... ... : A#3 00 . ... : ... .. B ... : ... .. . ... ... : ... .. 8 ... ... : ... .. 8 ... ... : ... .. D P80 ...
ROW 9A : ... .. D ... ... ... : ... .. 3 ... ... ... : D#3 00 . ... : ... .. . ... : ... .. . ... ... : ... .. . ... ... : ... .. . ... ... : ... .. 8 P7F ...
ROW 9B : ... .. A ... ... ... : ... .. 1 ... ... ... : D-3 00 . ... : ... .. A ... : ... .. . ... ... : ... .. . ... ... : ... .. . ... ... : ... .. . P7E ...
ROW 9C : ... .. . ... ... ... : ... .. . ... ... ... : A-2 00 . ... : ... .. 8 ... : ... .. . ... ... : ... .. 7 ... ... : ... .. 7 ... ... : ... .. . P7F ...
ROW 9D : ... .. . ... ... ... : ... .. 0 ... ... ... : ... .. . ... : ... .. 7 ... : ... .. . ... ... : ... .. . ... ... : ... .. . ... ... : ... .. . P80 ...
ROW 9E : ... .. . ... ... ... : D-5 00 8 P80 ... ... : ... .. . ... : ... .. 6 ... : ... .. . ... ... : G-2 01 9 ... ... : G-3 01 9 ... ... : ... .. . P82 ...
ROW 9F : ... .. . ... ... ... : ... .. 6 ... ... ... : ... .. . ... : ... .. . ... : ... .. . ... ... : ... .. 8 ... ... : ... .. 8 ... ... : ... .. . ... ...
ROW A0 : ... .. . ... ... ... : ... .. 3 ... ... ... : ... .. . ... : ... .. 5 ... : ... .. . ... ... : ... .. . ... ... : ... .. . ... ... : ... .. . P80 ...
ROW A1 : ... .. . ... ... ... : ... .. 1 ... ... ... : ... .. . ... : ... .. . ... : ... .. . ... ... : ... .. . ... ... : ... .. . ... ... : ... .. . P7F ...
ROW A2 : ... .. . ... ... ... : ... .. . ... ... ... : ... .. . ... : ... .. 4 ... : ... .. . ... ... : ... .. 7 ... ... : ... .. 7 ... ... : ... .. . P7E ...
ROW A3 : ... .. . ... ... ... : ... .. 0 ... ... ... : --- .. . ... : ... .. . ... : ... .. . ... ... : ... .. . ... ... : ... .. . ... ... : ... .. . P7F ...
ROW A4 : A-3 00 F ... ... ... : E-5 00 8 P80 ... ... : G-3 00 . ... : D-# 00 F ... : ... .. . ... ... : F#2 01 9 ... ... : F#3 01 9 ... ... : A-4 01 F P80 ...
ROW A5 : ... .. E ... ... ... : ... .. 6 ... ... ... : ... .. . ... : ... .. C ... : ... .. . ... ... : ... .. 8 ... ... : ... .. 8 ... ... : ... .. D P82 ...
ROW A6 : ... .. D ... ... ... : ... .. 3 ... ... ... : ... .. . ... : ... .. 6 ... : ... .. . ... ... : ... .. . ... ... : ... .. . ... ... : ... .. 8 ... ...
ROW A7 : ... .. A ... ... ... : ... .. 1 ... ... ... : ... .. . ... : ... .. 3 ... : ... .. . ... ... : ... .. . ... ... : ... .. . ... ... : ... .. . P80 ...
ROW A8 : ... .. . ... ... ... : ... .. . ... ... ... : ... .. . ... : ... .. 2 ... : ... .. . ... ... : ... .. 7 ... ... : ... .. 7 ... ... : ... .. . P7F ...
ROW A9 : ... .. . ... ... ... : ... .. 0 ... ... ... : --- .. . ... : ... .. 0 ... : ... .. . ... ... : ... .. . ... ... : ... .. . ... ... : ... .. . P7E ...
ROW AA : ... .. . ... ... ... : G-5 00 8 P80 ... ... : G-3 00 . ... : ... .. F ... : ... .. . ... ... : E-2 01 9 ... ... : E-3 01 9 ... ... : ... .. . P7F ...
ROW AB : ... .. . ... ... ... : ... .. 6 ... ... ... : ... .. . ... : ... .. C ... : ... .. . ... ... : ... .. 8 ... ... : ... .. 8 ... ... : ... .. . P80 ...
ROW AC : ... .. . ... ... ... : ... .. 3 ... ... ... : ... .. . ... : ... .. 6 ... : ... .. . ... ... : ... .. . ... ... : ... .. . ... ... : ... .. . P81 ...
ROW AD : ... .. 0 ... ... ... : ... .. 1 ... ... ... : ... .. . ... : ... .. 3 ... : ... .. . ... ... : ... .. . ... ... : ... .. . ... ... : --- .. . ... ...
ROW AE : ... .. . ... ... ... : ... .. . ... ... ... : ... .. . ... : ... .. 2 ... : ... .. . ... ... : ... .. 7 ... ... : ... .. 7 ... ... : ... .. . ... ...
ROW AF : ... .. . ... ... ... : ... .. 0 ... ... ... : --- .. . ... : ... .. 0 ... : ... .. . ... ... : ... .. . ... ... : ... .. . ... ... : ... .. . ... ...
ROW B0 : D-3 00 F P81 ... ... : F#5 00 8 P80 ... ... : C#4 00 . ... : B-# 00 D ... : ... .. . ... ... : D-4 01 9 ... ... : D-3 01 9 ... ... : D-4 01 F P7E ...
ROW B1 : ... .. E ... ... ... : ... .. 6 ... ... ... : D#3 00 . ... : ... .. B ... : ... .. . ... ... : ... .. 8 ... ... : ... .. 8 ... ... : ... .. D P7F ...
ROW B2 : ... .. D ... ... ... : ... .. 3 ... ... ... : G#2 00 . ... : ... .. . ... : ... .. . ... ... : ... .. . ... ... : ... .. . ... ... : ... .. 8 P80 ...
ROW B3 : ... .. A ... ... ... : ... .. 1 ... ... ... : G-2 00 . ... : ... .. A ... : ... .. . ... ... : E-4 01 9 ... ... : E-3 01 9 ... ... : ... .. . P81 ...
ROW B4 : ... .. . ... ... ... : ... .. . ... ... ... : D-2 00 . ... : ... .. 8 ... : ... .. . ... ... : ... .. 8 ... ... : ... .. 8 ... ... : ... .. . P82 ...
ROW B5 : ... .. . ... ... ... : ... .. 0 ... ... ... : ... .. . ... : ... .. 7 ... : ... .. . ... ... : ... .. . ... ... : ... .. . ... ... : ... .. . P81 ...
ROW B6 : ... .. . ... ... ... : F-5 00 8 P80 ... ... : ... .. . ... : ... .. 6 ... : ... .. . ... ... : F#4 01 9 ... ... : F#3 01 9 ... ... : ... .. . P80 ...
ROW B7 : ... .. . ... ... ... : ... .. 6 ... ... ... : ... .. . ... : ... .. . ... : ... .. . ... ... : ... .. 8 ... ... : ... .. 8 ... ... : ... .. . P7E ...
ROW B8 : ... .. . ... ... ... : ... .. 3 ... ... ... : ... .. . ... : ... .. 5 ... : ... .. . ... ... : ... .. . ... ... : ... .. . ... ... : ... .. . ... ...
ROW B9 : ... .. . ... ... ... : ... .. 1 ... ... ... : ... .. . ... : ... .. . ... : ... .. . ... ... : G-4 01 9 ... ... : G-3 01 9 ... ... : ... .. . P80 ...
ROW BA : ... .. . ... ... ... : ... .. . ... ... ... : ... .. . ... : ... .. 4 ... : ... .. . ... ... : ... .. 8 ... ... : ... .. 8 ... ... : ... .. . P81 ...
ROW BB : ... .. . ... ... ... : ... .. 0 ... ... ... : --- .. . ... : ... .. . ... : ... .. . ... ... : ... .. . ... ... : ... .. . ... ... : ... .. . P82 ...
ROW BC : ... .. . ... ... ... : E-5 00 8 P80 ... ... : F#3 00 . ... : ... .. 3 ... : ... .. . ... ... : A-4 01 9 ... ... : A-3 01 9 ... ... : ... .. . P81 ...
ROW BD : ... .. . ... ... ... : ... .. 6 ... ... ... : ... .. . ... : ... .. 2 ... : ... .. . ... ... : ... .. 8 ... ... : ... .. 8 ... ... : ... .. . P80 ...
ROW BE : ... .. . ... ... ... : ... .. 3 ... ... ... : ... .. . ... : ... .. . ... : ... .. . ... ... : ... .. . ... ... : ... .. . ... ... : ... .. . P7E ...
ROW BF : ... .. . ... ... ... : ... .. 1 ... ... ... : ... .. . ... : D-# 00 5 ... : ... .. . ... ... : B-4 01 9 ... ... : B-3 01 9 ... ... : ... .. . ... ...
ROW C0 : ... .. . ... ... ... : ... .. . ... ... ... : ... .. . ... : ... .. 4 ... : ... .. . ... ... : ... .. 8 ... ... : ... .. 8 ... ... : ... .. . P80 ...
ROW C1 : ... .. . ... ... ... : ... .. 0 ... ... ... : --- .. . ... : ... .. . ... : ... .. . ... ... : ... .. . ... ... : ... .. . ... ... : ... .. . P81 ...
ROW C2 : ... .. 0 ... ... ... : D#5 00 8 P80 ... ... : A-3 00 . ... : ... .. 6 ... : ... .. . ... ... : C-5 01 9 ... ... : C-4 01 9 ... ... : --- .. . ... ...
ROW C3 : ... .. . ... ... ... : ... .. 6 ... ... ... : ... .. . ... : ... .. 5 ... : ... .. . ... ... : ... .. 8 ... ... : ... .. 8 ... ... : ... .. . ... ...
ROW C4 : ... .. . ... ... ... : ... .. 3 ... ... ... : ... .. . ... : ... .. . ... : ... .. . ... ... : ... .. . ... ... : ... .. . ... ... : ... .. . ... ...
ROW C5 : ... .. . ... ... ... : ... .. 1 ... ... ... : ... .. . ... : ... .. 8 ... : ... .. . ... ... : C#5 01 9 ... ... : C#4 01 9 ... ... : ... .. . ... ...
ROW C6 : ... .. . ... ... ... : ... .. . ... ... ... : ... .. . ... : ... .. 7 ... : ... .. . ... ... : ... .. 8 ... ... : ... .. 8 ... ... : ... .. . ... ...
ROW C7 : ... .. . ... ... ... : ... .. 0 ... ... ... : --- .. . ... : ... .. . ... : ... .. . ... ... : ... .. . ... ... : ... .. . ... ... : ... .. . ... ...
ROW C8 : G-2 00 F P81 ... ... : D-5 00 8 P80 ... ... : D-4 00 . ... : B-# 00 D ... : ... .. . ... ... : D-5 01 9 ... ... : D-4 01 9 ... ... : G-3 01 F ... ...
ROW C9 : ... .. E ... ... ... : ... .. 6 ... ... ... : ... .. . ... : ... .. B ... : ... .. . ... ... : ... .. 8 ... ... : ... .. 8 ... ... : ... .. D P82 ...
ROW CA : ... .. D ... ... ... : ... .. 3 ... ... ... : ... .. . ... : ... .. . ... : ... .. . ... ... : ... .. . ... ... : ... .. . ... ... : ... .. 8 P81 ...
ROW CB : ... .. A ... ... ... : ... .. 1 ... ... ... : ... .. . ... : ... .. A ... : ... .. . ... ... : ... .. . ... ... : ... .. . ... ... : ... .. . P80 ...
ROW CC : ... .. . ... ... ... : ... .. . ... ... ... : ... .. . ... : ... .. 8 ... : ... .. . ... ... : ... .. 7 ... ... : ... .. 7 ... ... : ... .. . P7F ...
ROW CD : ... .. . ... ... ... : ... .. 0 ... ... ... : --- .. . ... : ... .. 7 ... : ... .. . ... ... : ... .. . ... ... : ... .. . ... ... : ... .. . P7E ...
ROW CE : ... .. . ... ... ... : D#5 00 8 P80 ... ... : C-4 00 . ... : ... .. 6 ... : ... .. . ... ... : ... .. . ... ... : ... .. . ... ... : ... .. . P80 ...
ROW CF : F#2 00 F ... ... ... : ... .. 6 ... ... ... : ... .. . ... : ... .. . ... : ... .. . ... ... : ... .. 6 ... ... : ... .. 6 ... ... : F#3 01 F ... ...
ROW D0 : ... .. E ... ... ... : ... .. 3 ... ... ... : ... .. . ... : ... .. 5 ... : ... .. . ... ... : ... .. . ... ... : ... .. . ... ... : ... .. D P82 ...
ROW D1 : ... .. D ... ... ... : ... .. 1 ... ... ... : ... .. . ... : ... .. . ... : ... .. . ... ... : ... .. . ... ... : ... .. . ... ... : ... .. 8 P81 ...
ROW D2 : ... .. A ... ... ... : ... .. . ... ... ... : ... .. . ... : ... .. 4 ... : ... .. . ... ... : ... .. . ... ... : ... .. . ... ... : ... .. . P80 ...
ROW D3 : F-2 00 F ... ... ... : ... .. 0 ... ... ... : --- .. . ... : ... .. . ... : ... .. . ... ... : ... .. . ... ... : ... .. . ... ... : F-3 01 F P7F ...
ROW D4 : ... .. E ... ... ... : E-5 00 8 P80 ... ... : A#3 00 . ... : ... .. 3 ... : ... .. . ... ... : ... .. . ... ... : ... .. . ... ... : ... .. D P7E ...
ROW D5 : ... .. D ... ... ... : ... .. 6 ... ... ... : ... .. . ... : ... .. 2 ... : ... .. . ... ... : ... .. 5 ... ... : ... .. 5 ... ... : ... .. 8 P7F ...
ROW D6 : ... .. A ... ... ... : ... .. 3 ... ... ... : ... .. . ... : ... .. . ... : ... .. . ... ... : ... .. . ... ... : ... .. . ... ... : ... .. . P80 ...
ROW D7 : ... .. . ... ... ... : ... .. 1 ... ... ... : ... .. . ... : ... .. 1 ... : ... .. . ... ... : ... .. 4 ... ... : ... .. 4 ... ... : ... .. . P82 ...
ROW D8 : E-2 00 F ... ... ... : ... .. . ... ... ... : ... .. . ... : ... .. 0 ... : ... .. . ... ... : ... .. 3 ... ... : ... .. 3 ... ... : E-3 01 F ... ...
ROW D9 : ... .. E ... ... ... : ... .. 0 ... ... ... : --- .. . ... : ... .. . ... : ... .. . ... ... : ... .. . ... ... : ... .. . ... ... : ... .. D P80 ...
ROW DA : ... .. D ... ... ... : F-5 00 8 P80 ... ... : A-3 00 . ... : ... .. . ... : ... .. . ... ... : ... .. . ... ... : ... .. . ... ... : ... .. 8 P7F ...
ROW DB : ... .. A ... ... ... : ... .. 6 ... ... ... : ... .. . ... : ... .. . ... : ... .. . ... ... : ... .. . ... ... : ... .. . ... ... : ... .. . P7E ...
ROW DC : D#2 00 F ... ... ... : ... .. 3 ... ... ... : ... .. . ... : ... .. . ... : ... .. . ... ... : ... .. . ... ... : ... .. . ... ... : D#3 01 F P7F ...
ROW DD : ... .. E ... ... ... : ... .. 1 ... ... ... : ... .. . ... : ... .. . ... : ... .. . ... ... : ... .. . ... ... : ... .. . ... ... : ... .. D P80 ...
ROW DE : ... .. D ... ... ... : ... .. . ... ... ... : ... .. . ... : ... .. . ... : ... .. . ... ... : ... .. . ... ... : ... .. . ... ... : ... .. 8 P82 ...
ROW DF : ... .. A ... ... ... : ... .. 0 ... ... ... : --- .. . ... : ... .. . ... : ... .. . ... ... : ... .. . ... ... : ... .. . ... ... : ... .. . ... ...
ROW E0 : D-2 00 F ... ... ... : F#5 00 8 P80 ... ... : C#4 00 . ... : ... .. D ... : ... .. . ... ... : ... .. . ... ... : ... .. . ... ... : D-3 01 F P80 ...
ROW E1 : ... .. E ... ... ... : ... .. 6 ... ... ... : D#3 00 . ... : ... .. B ... : ... .. . ... ... : ... .. . ... ... : ... .. . ... ... : ... .. D P7F ...
ROW E2 : ... .. D ... ... ... : ... .. 3 ... ... ... : G#2 00 . ... : ... .. . ... : ... .. . ... ... : ... .. . ... ... : ... .. . ... ... : ... .. 8 P7E ...
ROW E3 : ... .. A ... ... ... : ... .. 1 ... ... ... : G-2 00 . ... : ... .. A ... : ... .. . ... ... : ... .. 1 ... ... : ... .. 1 ... ... : ... .. . P7F ...
ROW E4 : ... .. . ... ... ... : ... .. . ... ... ... : D-2 00 . ... : ... .. 8 ... : ... .. . ... ... : ... .. . ... ... : ... .. . ... ... : ... .. . P80 ...
ROW E5 : ... .. . ... ... ... : ... .. 0 ... ... ... : ... .. . ... : ... .. 7 ... : ... .. . ... ... : ... .. . ... ... : ... .. . ... ... : ... .. . P82 ...
ROW E6 : ... .. . ... ... ... : A-5 00 8 P80 ... ... : ... .. . ... : ... .. 6 ... : ... .. . ... ... : ... .. . ... ... : ... .. . ... ... : ... .. . ... ...
ROW E7 : ... .. . ... ... ... : ... .. 6 ... ... ... : ... .. . ... : ... .. . ... : ... .. . ... ... : ... .. . ... ... : ... .. . ... ... : ... .. . P80 ...
ROW E8 : ... .. . ... ... ... : ... .. 3 ... ... ... : ... .. . ... : ... .. 5 ... : ... .. . ... ... : ... .. . ... ... : ... .. . ... ... : ... .. . P7F ...
ROW E9 : ... .. . ... ... ... : ... .. 1 ... ... ... : ... .. . ... : ... .. . ... : ... .. . ... ... : ... .. . ... ... : ... .. . ... ... : ... .. . P7E ...
ROW EA : ... .. . ... ... ... : ... .. . ... ... ... : ... .. . ... : ... .. 4 ... : ... .. . ... ... : ... .. . ... ... : ... .. . ... ... : ... .. . P7F ...
ROW EB : ... .. . ... ... ... : ... .. 0 ... ... ... : --- .. . ... : ... .. . ... : ... .. . ... ... : ... .. . ... ... : ... .. . ... ... : ... .. . P80 ...
ROW EC : ... .. . ... ... ... : F#5 00 8 P80 ... ... : C-4 00 . ... : D-# 00 F ... : ... .. . ... ... : A-4 01 9 ... ... : C-4 01 9 ... ... : ... .. . P81 ...
ROW ED : ... .. . ... ... ... : ... .. 6 ... ... ... : ... .. . ... : ... .. C ... : ... .. . ... ... : ... .. 8 ... ... : ... .. 8 ... ... : ... .. . P82 ...
ROW EE : ... .. . ... ... ... : ... .. 3 ... ... ... : ... .. . ... : ... .. 6 ... : ... .. . ... ... : ... .. . ... ... : ... .. . ... ... : ... .. . P80 ...
ROW EF : ... .. . ... ... ... : ... .. 1 ... ... ... : ... .. . ... : ... .. 3 ... : ... .. . ... ... : --- .. . ... ... : --- .. . ... ... : ... .. . ... ...
ROW F0 : ... .. . ... ... ... : ... .. . ... ... ... : ... .. . ... : ... .. 2 ... : ... .. . ... ... : ... .. . ... ... : ... .. . ... ... : ... .. . P7E ...
ROW F1 : ... .. . ... ... ... : ... .. 0 ... ... ... : --- .. . ... : ... .. 0 ... : ... .. . ... ... : ... .. . ... ... : ... .. . ... ... : ... .. . P7F ...
ROW F2 : E-2 00 F ... ... ... : A-5 00 8 P80 ... ... : C-4 00 . ... : ... .. F ... : ... .. . ... ... : A-4 01 9 ... ... : C-4 01 9 ... ... : E-3 01 F P80 ...
ROW F3 : ... .. E ... ... ... : ... .. 6 ... ... ... : ... .. . ... : ... .. C ... : ... .. . ... ... : ... .. 8 ... ... : ... .. 8 ... ... : ... .. D P81 ...
ROW F4 : ... .. D ... ... ... : ... .. 3 ... ... ... : ... .. . ... : ... .. 6 ... : ... .. . ... ... : ... .. . ... ... : ... .. . ... ... : ... .. 8 P82 ...
ROW F5 : ... .. 0 ... ... ... : ... .. 1 ... ... ... : ... .. . ... : ... .. 3 ... : ... .. . ... ... : ... .. . ... ... : ... .. . ... ... : --- .. . P7F ...
ROW F6 : ... .. . ... ... ... : ... .. . ... ... ... : ... .. . ... : ... .. 2 ... : ... .. . ... ... : ... .. 7 ... ... : ... .. 7 ... ... : ... .. . ... ...
ROW F7 : ... .. . ... ... ... : ... .. 0 ... ... ... : --- .. . ... : ... .. 0 ... : ... .. . ... ... : ... .. . ... ... : ... .. . ... ... : ... .. . ... ...
ROW F8 : F#2 00 F P81 ... ... : F#5 00 8 P80 ... ... : C#4 00 . ... : B-# 00 D ... : ... .. . ... ... : ... .. . ... ... : ... .. . ... ... : F#3 01 F P7E ...
ROW F9 : ... .. E ... ... ... : ... .. 6 ... ... ... : D#3 00 . ... : ... .. B ... : ... .. . ... ... : ... .. 6 ... ... : ... .. 6 ... ... : ... .. D P80 ...
ROW FA : ... .. D ... ... ... : ... .. 3 ... ... ... : G#2 00 . ... : ... .. . ... : ... .. . ... ... : ... .. . ... ... : ... .. . ... ... : ... .. 8 P81 ...
ROW FB : ... .. A ... ... ... : ... .. 1 ... ... ... : G-2 00 . ... : ... .. A ... : ... .. . ... ... : --- .. . ... ... : --- .. . ... ... : ... .. . P82 ...
ROW FC : ... .. . ... ... ... : ... .. . ... ... ... : D-2 00 . ... : ... .. 8 ... : ... .. . ... ... : ... .. . ... ... : ... .. . ... ... : ... .. . P81 ...
ROW FD : ... .. . ... ... ... : ... .. 0 ... ... ... : ... .. . ... : ... .. 7 ... : ... .. . ... ... : ... .. . ... ... : ... .. . ... ... : ... .. . P80 ...
ROW FE : ... .. . ... ... ... : A-5 00 8 P80 ... ... : ... .. . ... : ... .. 6 ... : ... .. . ... ... : ... .. . ... ... : ... .. . ... ... : ... .. . P7E ...
ROW FF : ... .. 2 ... ... ... : ... .. 6 ... ... ... : ... .. . ... : ... .. . ... : ... .. . ... ... : ... .. . ... ... : ... .. . ... ... : ... .. 4 ... ...

PATTERN 11
ROW 00 : ... .. . ... ... ... : ... .. 3 ... ... ... : ... .. . ... : ... .. 5 ... : ... .. . ... ... : ... .. . ... ... : ... .. . ... ... : ... .. . P80 ...
ROW 01 : ... .. . ... ... ... : ... .. 1 ... ... ... : ... .. . ... : ... .. . ... : ... .. . ... ... : ... .. . ... ... : ... .. . ... ... : ... .. 1 P81 ...
ROW 02 : ... .. 1 ... ... ... : ... .. . ... ... ... : ... .. . ... : ... .. 4 ... : ... .. . ... ... : ... .. . ... ... : ... .. . ... ... : ... .. . P82 ...
ROW 03 : ... .. . ... ... ... : ... .. 0 ... ... ... : --- .. . ... : ... .. . ... : ... .. . ... ... : ... .. . ... ... : ... .. . ... ... : ... .. . P81 ...
ROW 04 : D-2 00 F ... ... ... : F#5 00 8 P80 ... ... : C-4 00 . ... : D-# 00 F ... : ... .. . ... ... : A-4 01 9 ... ... : C-4 01 9 ... ... : D-3 01 F P80 ...
ROW 05 : ... .. E ... ... ... : ... .. 6 ... ... ... : ... .. . ... : ... .. C ... : ... .. . ... ... : ... .. 8 ... ... : ... .. 8 ... ... : ... .. D P7E ...
ROW 06 : ... .. D ... ... ... : ... .. 3 ... ... ... : ... .. . ... : ... .. 6 ... : ... .. . ... ... : ... .. . ... ... : ... .. . ... ... : ... .. 8 ... ...
ROW 07 : ... .. A ... ... ... : ... .. 1 ... ... ... : ... .. . ... : ... .. 3 ... : ... .. . ... ... : --- .. . ... ... : --- .. . ... ... : ... .. . P80 ...
ROW 08 : ... .. . ... ... ... : ... .. . ... ... ... : ... .. . ... : ... .. 2 ... : ... .. . ... ... : ... .. . ... ... : ... .. . ... ... : ... .. . P81 ...
ROW 09 : ... .. . ... ... ... : ... .. 0 ... ... ... : --- .. . ... : ... .. 0 ... : ... .. . ... ... : ... .. . ... ... : ... .. . ... ... : ... .. . P82 ...
ROW 0A : ... .. 0 ... ... ... : A-5 00 8 P80 ... ... : C-4 00 . ... : ... .. F ... : ... .. . ... ... : A-4 01 9 ... ... : C-4 01 9 ... ... : --- .. . P7C ...
ROW 0B : ... .. . ... ... ... : ... .. 6 ... ... ... : ... .. . ... : ... .. C ... : ... .. . ... ... : ... .. 8 ... ... : ... .. 8 ... ... : ... .. . ... ...
ROW 0C : ... .. . ... ... ... : ... .. 3 ... ... ... : ... .. . ... : ... .. 6 ... : ... .. . ... ... : ... .. . ... ... : ... .. . ... ... : ... .. . ... ...
ROW 0D : ... .. . ... ... ... : ... .. 1 ... ... ... : ... .. . ... : ... .. 3 ... : ... .. . ... ... : ... .. . ... ... : ... .. . ... ... : ... .. . ... ...
ROW 0E : ... .. . ... ... ... : ... .. . ... ... ... : ... .. . ... : ... .. 2 ... : ... .. . ... ... : ... .. 7 ... ... : ... .. 7 ... ... : ... .. . ... ...
ROW 0F : ... .. . ... ... ... : ... .. 0 ... ... ... : --- .. . ... : ... .. 0 ... : ... .. . ... ... : ... .. . ... ... : ... .. . ... ... : ... .. . ... ...
ROW 10 : G-2 00 F P81 ... ... : G-5 00 8 P80 ... ... : F#4 00 . ... : B-# 00 D ... : ... .. . ... ... : ... .. . ... ... : ... .. . ... ... : G-3 01 F P82 ...
ROW 11 : ... .. E ... ... ... : ... .. 6 ... ... ... : G#3 00 . ... : ... .. B ... : ... .. . ... ... : ... .. 6 ... ... : ... .. 6 ... ... : ... .. D P81 ...
ROW 12 : ... .. D ... ... ... : ... .. 3 ... ... ... : C#3 00 . ... : ... .. . ... : ... .. . ... ... : ... .. . ... ... : ... .. . ... ... : ... .. 8 P80 ...
ROW 13 : ... .. A ... ... ... : ... .. 1 ... ... ... : C-3 00 . ... : ... .. A ... : ... .. . ... ... : --- .. . ... ... : --- .. . ... ... : ... .. . P7F ...
ROW 14 : ... .. . ... ... ... : ... .. . ... ... ... : G-2 00 . ... : ... .. 8 ... : ... .. . ... ... : ... .. . ... ... : ... .. . ... ... : ... .. . P7E ...
ROW 15 : ... .. . ... ... ... : ... .. 0 ... ... ... : ... .. . ... : ... .. 7 ... : ... .. . ... ... : ... .. . ... ... : ... .. . ... ... : ... .. . P7F ...
ROW 16 : F#2 00 F ... ... ... : A#5 00 8 P80 ... ... : ... .. . ... : ... .. 6 ... : ... .. . ... ... : ... .. . ... ... : ... .. . ... ... : F#3 01 F P80 ...
ROW 17 : ... .. E ... ... ... : ... .. 6 ... ... ... : ... .. . ... : ... .. . ... : ... .. . ... ... : ... .. . ... ... : ... .. . ... ... : ... .. D P82 ...
ROW 18 : ... .. D ... ... ... : ... .. 3 ... ... ... : ... .. . ... : ... .. 5 ... : ... .. . ... ... : ... .. . ... ... : ... .. . ... ... : ... .. 8 ... ...
ROW 19 : ... .. 0 ... ... ... : ... .. 1 ... ... ... : ... .. . ... : ... .. . ... : ... .. . ... ... : ... .. . ... ... : ... .. . ... ... : --- .. . P7E ...
ROW 1A : ... .. . ... ... ... : ... .. . ... ... ... : ... .. . ... : ... .. 4 ... : ... .. . ... ... : ... .. . ... ... : ... .. . ... ... : ... .. . ... ...
ROW 1B : ... .. . ... ... ... : ... .. 0 ... ... ... : --- .. . ... : ... .. . ... : ... .. . ... ... : ... .. . ... ... : ... .. . ... ... : ... .. . ... ...
ROW 1C : G-2 00 F P81 ... ... : G-5 00 8 P80 ... ... : A#3 00 . ... : ... .. D ... : ... .. . ... ... : G-4 01 9 ... ... : A#3 01 9 ... ... : G-3 01 F P7F ...
ROW 1D : ... .. E ... ... ... : ... .. 6 ... ... ... : ... .. . ... : ... .. B ... : ... .. . ... ... : ... .. 8 ... ... : ... .. 8 ... ... : ... .. D P80 ...
ROW 1E : ... .. D ... ... ... : ... .. 3 ... ... ... : ... .. . ... : ... .. . ... : ... .. . ... ... : ... .. . ... ... : ... .. . ... ... : ... .. 8 P82 ...
ROW 1F : ... .. 0 ... ... ... : ... .. 1 ... ... ... : ... .. . ... : ... .. A ... : ... .. . ... ... : --- .. . ... ... : --- .. . ... ... : --- .. . P81 ...
ROW 20 : ... .. . ... ... ... : ... .. . ... ... ... : ... .. . ... : ... .. 8 ... : ... .. . ... ... : ... .. . ... ... : ... .. . ... ... : ... .. . ... ...
ROW 21 : ... .. . ... ... ... : ... .. 0 ... ... ... : --- .. . ... : ... .. 7 ... : ... .. . ... ... : ... .. . ... ... : ... .. . ... ... : ... .. . ... ...
ROW 22 : A-2 00 F P81 ... ... : A#5 00 8 P80 ... ... : A#3 00 . ... : ... .. 6 ... : ... .. . ... ... : G-4 01 9 ... ... : A#3 01 9 ... ... : A-3 01 F P7E ...
ROW 23 : ... .. E ... ... ... : ... .. 6 ... ... ... : ... .. . ... : ... .. . ... : ... .. . ... ... : ... .. 8 ... ... : ... .. 8 ... ... : ... .. D P7F ...
ROW 24 : ... .. D ... ... ... : ... .. 3 ... ... ... : ... .. . ... : ... .. 5 ... : ... .. . ... ... : ... .. . ... ... : ... .. . ... ... : ... .. 8 P80 ...
ROW 25 : ... .. 0 ... ... ... : ... .. 1 ... ... ... : ... .. . ... : ... .. . ... : ... .. . ... ... : ... .. . ... ... : ... .. . ... ... : --- .. . P81 ...
ROW 26 : ... .. . ... ... ... : ... .. . ... ... ... : ... .. . ... : ... .. 4 ... : ... .. . ... ... : ... .. 7 ... ... : ... .. 7 ... ... : ... .. . ... ...
ROW 27 : ... .. . ... ... ... : ... .. 0 ... ... ... : --- .. . ... : ... .. . ... : ... .. . ... ... : ... .. . ... ... : ... .. . ... ... : ... .. . ... ...
ROW 28 : A#2 00 F P81 ... ... : G-5 00 8 P80 ... ... : F#4 00 . ... : ... .. D ... : ... .. . ... ... : ... .. . ... ... : ... .. . ... ... : A#3 01 F P7F ...
ROW 29 : ... .. E ... ... ... : ... .. 6 ... ... ... : G#3 00 . ... : ... .. B ... : ... .. . ... ... : ... .. 6 ... ... : ... .. 6 ... ... : ... .. D P7E ...
ROW 2A : ... .. D ... ... ... : ... .. 3 ... ... ... : C#3 00 . ... : ... .. . ... : ... .. . ... ... : ... .. . ... ... : ... .. . ... ... : ... .. 8 P7F ...
ROW 2B : ... .. A ... ... ... : ... .. 1 ... ... ... : C-3 00 . ... : ... .. A ... : ... .. . ... ... : --- .. . ... ... : --- .. . ... ... : ... .. . P80 ...
ROW 2C : ... .. . ... ... ... : ... .. . ... ... ... : G-2 00 . ... : ... .. 8 ... : ... .. . ... ... : ... .. . ... ... : ... .. . ... ... : ... .. . P81 ...
ROW 2D : ... .. . ... ... ... : ... .. 0 ... ... ... : ... .. . ... : ... .. 7 ... : ... .. . ... ... : ... .. . ... ... : ... .. . ... ... : ... .. . P82 ...
ROW 2E : ... .. . ... ... ... : A#5 00 8 P80 ... ... : ... .. . ... : ... .. 6 ... : ... .. . ... ... : ... .. . ... ... : ... .. . ... ... : ... .. . P80 ...
ROW 2F : ... .. . ... ... ... : ... .. 6 ... ... ... : ... .. . ... : ... .. . ... : ... .. . ... ... : ... .. . ... ... : ... .. . ... ... : ... .. . ... ...
ROW 30 : ... .. . ... ... ... : ... .. 3 ... ... ... : ... .. . ... : ... .. 5 ... : ... .. . ... ... : ... .. . ... ... : ... .. . ... ... : ... .. . P7E ...
ROW 31 : ... .. 0 ... ... ... : ... .. 1 ... ... ... : ... .. . ... : ... .. . ... : ... .. . ... ... : ... .. . ... ... : ... .. . ... ... : --- .. . P80 ...
ROW 32 : ... .. . ... ... ... : ... .. . ... ... ... : ... .. . ... : ... .. 4 ... : ... .. . ... ... : ... .. . ... ... : ... .. . ... ... : ... .. . ... ...
ROW 33 : ... .. . ... ... ... : ... .. 0 ... ... ... : --- .. . ... : ... .. . ... : ... .. . ... ... : ... .. . ... ... : ... .. . ... ... : ... .. . ... ...
ROW 34 : G-2 00 F P81 ... ... : G-5 00 8 P80 ... ... : A#3 00 . ... : D-# 00 F ... : ... .. . ... ... : G-4 01 9 ... ... : A#3 01 9 ... ... : G-3 01 F P82 ...
ROW 35 : ... .. E ... ... ... : ... .. 6 ... ... ... : ... .. . ... : ... .. C ... : ... .. . ... ... : ... .. 8 ... ... : ... .. 8 ... ... : ... .. D P81 ...
ROW 36 : ... .. D ... ... ... : ... .. 3 ... ... ... : ... .. . ... : ... .. 6 ... : ... .. . ... ... : ... .. . ... ... : ... .. . ... ... : ... .. 8 P80 ...
ROW 37 : ... .. A ... ... ... : ... .. 1 ... ... ... : ... .. . ... : ... .. 3 ... : ... .. . ... ... : --- .. . ... ... : --- .. . ... ... : ... .. . P7E ...
ROW 38 : ... .. . ... ... ... : ... .. . ... ... ... : ... .. . ... : ... .. 2 ... : ... .. . ... ... : ... .. . ... ... : ... .. . ... ... : ... .. . ... ...
ROW 39 : ... .. . ... ... ... : ... .. 0 ... ... ... : --- .. . ... : ... .. 0 ... : ... .. . ... ... : ... .. . ... ... : ... .. . ... ... : ... .. . P80 ...
ROW 3A : ... .. . ... ... ... : A#5 00 8 P80 ... ... : A#3 00 . ... : ... .. F ... : ... .. . ... ... : G-4 01 9 ... ... : A#3 01 9 ... ... : ... .. . P81 ...
ROW 3B : ... .. . ... ... ... : ... .. 6 ... ... ... : ... .. . ... : ... .. C ... : ... .. . ... ... : ... .. 8 ... ... : ... .. 8 ... ... : ... .. . P82 ...
ROW 3C : ... .. . ... ... ... : ... .. 3 ... ... ... : ... .. . ... : ... .. 6 ... : ... .. . ... ... : ... .. . ... ... : ... .. . ... ... : ... .. . P81 ...
ROW 3D : ... .. 0 ... ... ... : ... .. 1 ... ... ... : ... .. . ... : ... .. 3 ... : ... .. . ... ... : ... .. . ... ... : ... .. . ... ... : --- .. . P80 ...
ROW 3E : ... .. . ... ... ... : ... .. . ... ... ... : ... .. . ... : ... .. 2 ... : ... .. . ... ... : ... .. 7 ... ... : ... .. 7 ... ... : ... .. . ... ...
ROW 3F : ... .. . ... ... ... : ... .. 0 ... ... ... : --- .. . ... : ... .. 0 ... : ... .. . ... ... : ... .. . ... ... : ... .. . ... ... : ... .. . ... ...
ROW 40 : D-2 00 F P81 ... ... : F#5 00 8 P80 ... ... : C#4 00 . ... : B-# 00 D ... : ... .. . ... ... : ... .. . ... ... : ... .. . ... ... : D-3 01 F ... ...
ROW 41 : ... .. E ... ... ... : ... .. 6 ... ... ... : D#3 00 . ... : ... .. B ... : ... .. . ... ... : ... .. 6 ... ... : ... .. 6 ... ... : ... .. D P81 ...
ROW 42 : ... .. D ... ... ... : ... .. 3 ... ... ... : G#2 00 . ... : ... .. . ... : ... .. . ... ... : ... .. . ... ... : ... .. . ... ... : ... .. 8 P82 ...
ROW 43 : ... .. A ... ... ... : ... .. 1 ... ... ... : G-2 00 . ... : ... .. A ... : ... .. . ... ... : --- .. . ... ... : --- .. . ... ... : ... .. . P81 ...
ROW 44 : ... .. . ... ... ... : ... .. . ... ... ... : D-2 00 . ... : ... .. 8 ... : ... .. . ... ... : ... .. . ... ... : ... .. . ... ... : ... .. . P80 ...
ROW 45 : ... .. . ... ... ... : ... .. 0 ... ... ... : ... .. . ... : ... .. 7 ... : ... .. . ... ... : ... .. . ... ... : ... .. . ... ... : ... .. . P7E ...
ROW 46 : ... .. . ... ... ... : A-5 00 8 P80 ... ... : ... .. . ... : ... .. 6 ... : ... .. . ... ... : ... .. . ... ... : ... .. . ... ... : ... .. . ... ...
ROW 47 : ... .. . ... ... ... : ... .. 6 ... ... ... : ... .. . ... : ... .. . ... : ... .. . ... ... : ... .. . ... ... : ... .. . ... ... : ... .. . P80 ...
ROW 48 : ... .. . ... ... ... : ... .. 3 ... ... ... : ... .. . ... : ... .. 5 ... : ... .. . ... ... : ... .. . ... ... : ... .. . ... ... : ... .. . P81 ...
ROW 49 : ... .. . ... ... ... : ... .. 1 ... ... ... : ... .. . ... : ... .. . ... : ... .. . ... ... : ... .. . ... ... : ... .. . ... ... : ... .. . P82 ...
ROW 4A : ... .. . ... ... ... : ... .. . ... ... ... : ... .. . ... : ... .. 4 ... : ... .. . ... ... : ... .. . ... ... : ... .. . ... ... : ... .. . P81 ...
ROW 4B : ... .. . ... ... ... : ... .. 0 ... ... ... : --- .. . ... : ... .. . ... : ... .. . ... ... : ... .. . ... ... : ... .. . ... ... : ... .. . P80 ...
ROW 4C : ... .. . ... ... ... : F#5 00 8 P80 ... ... : C-4 00 . ... : D-# 00 F ... : ... .. . ... ... : F#4 01 9 ... ... : C-4 01 9 ... ... : ... .. . P7F ...
ROW 4D : ... .. . ... ... ... : ... .. 6 ... ... ... : ... .. . ... : ... .. C ... : ... .. . ... ... : ... .. 8 ... ... : ... .. 8 ... ... : ... .. . P7E ...
ROW 4E : ... .. . ... ... ... : ... .. 3 ... ... ... : ... .. . ... : ... .. 6 ... : ... .. . ... ... : ... .. . ... ... : ... .. . ... ... : ... .. . P80 ...
ROW 4F : ... .. 0 ... ... ... : ... .. 1 ... ... ... : ... .. . ... : ... .. 3 ... : ... .. . ... ... : --- .. . ... ... : --- .. . ... ... : --- .. . P84 ...
ROW 50 : ... .. . ... ... ... : ... .. . ... ... ... : ... .. . ... : ... .. 2 ... : ... .. . ... ... : ... .. . ... ... : ... .. . ... ... : ... .. . ... ...
ROW 51 : ... .. . ... ... ... : ... .. 0 ... ... ... : --- .. . ... : ... .. 0 ... : ... .. . ... ... : ... .. . ... ... : ... .. . ... ... : ... .. . ... ...
ROW 52 : E-2 00 F P81 ... ... : A-5 00 8 P80 ... ... : C-4 00 . ... : ... .. F ... : ... .. . ... ... : F#4 01 9 ... ... : C-4 01 9 ... ... : E-3 01 F P80 ...
ROW 53 : ... .. E ... ... ... : ... .. 6 ... ... ... : ... .. . ... : ... .. C ... : ... .. . ... ... : ... .. 8 ... ... : ... .. 8 ... ... : ... .. D P7F ...
ROW 54 : ... .. D ... ... ... : ... .. 3 ... ... ... : ... .. . ... : ... .. 6 ... : ... .. . ... ... : ... .. . ... ... : ... .. . ... ... : ... .. 8 P7E ...
ROW 55 : ... .. 0 ... ... ... : ... .. 1 ... ... ... : ... .. . ... : ... .. 3 ... : ... .. . ... ... : ... .. . ... ... : ... .. . ... ... : --- .. . P83 ...
ROW 56 : ... .. . ... ... ... : ... .. . ... ... ... : ... .. . ... : ... .. 2 ... : ... .. . ... ... : ... .. 7 ... ... : ... .. 7 ... ... : ... .. . ... ...
ROW 57 : ... .. . ... ... ... : ... .. 0 ... ... ... : --- .. . ... : ... .. 0 ... : ... .. . ... ... : ... .. . ... ... : ... .. . ... ... : ... .. . ... ...
ROW 58 : F#2 00 F P81 ... ... : F#5 00 8 P80 ... ... : C#4 00 . ... : B-# 00 D ... : ... .. . ... ... : ... .. . ... ... : ... .. . ... ... : F#3 01 F P82 ...
ROW 59 : ... .. E ... ... ... : ... .. 6 ... ... ... : D#3 00 . ... : ... .. B ... : ... .. . ... ... : ... .. 6 ... ... : ... .. 6 ... ... : ... .. D P80 ...
ROW 5A : ... .. D ... ... ... : ... .. 3 ... ... ... : G#2 00 . ... : ... .. . ... : ... .. . ... ... : ... .. . ... ... : ... .. . ... ... : ... .. 8 P7F ...
ROW 5B : ... .. A ... ... ... : ... .. 1 ... ... ... : G-2 00 . ... : ... .. A ... : ... .. . ... ... : --- .. . ... ... : --- .. . ... ... : ... .. . P7E ...
ROW 5C : ... .. . ... ... ... : ... .. . ... ... ... : D-2 00 . ... : ... .. 8 ... : ... .. . ... ... : ... .. . ... ... : ... .. . ... ... : ... .. . P7F ...
ROW 5D : ... .. . ... ... ... : ... .. 0 ... ... ... : ... .. . ... : ... .. 7 ... : ... .. . ... ... : ... .. . ... ... : ... .. . ... ... : ... .. . P80 ...
ROW 5E : ... .. . ... ... ... : A-5 00 8 P80 ... ... : ... .. . ... : ... .. 6 ... : ... .. . ... ... : ... .. . ... ... : ... .. . ... ... : ... .. . P82 ...
ROW 5F : ... .. . ... ... ... : ... .. 6 ... ... ... : ... .. . ... : ... .. . ... : ... .. . ... ... : ... .. . ... ... : ... .. . ... ... : ... .. . ... ...
ROW 60 : ... .. . ... ... ... : ... .. 3 ... ... ... : ... .. . ... : ... .. 5 ... : ... .. . ... ... : ... .. . ... ... : ... .. . ... ... : ... .. . P80 ...
ROW 61 : ... .. . ... ... ... : ... .. 1 ... ... ... : ... .. . ... : ... .. . ... : ... .. . ... ... : ... .. . ... ... : ... .. . ... ... : ... .. . P7F ...
ROW 62 : ... .. . ... ... ... : ... .. . ... ... ... : ... .. . ... : ... .. 4 ... : ... .. . ... ... : ... .. . ... ... : ... .. . ... ... : ... .. . P7E ...
ROW 63 : ... .. . ... ... ... : ... .. 0 ... ... ... : --- .. . ... : ... .. . ... : ... .. . ... ... : ... .. . ... ... : ... .. . ... ... : ... .. . P7F ...
ROW 64 : A-2 00 F ... ... ... : F#5 00 8 P80 ... ... : C-4 00 . ... : D-# 00 F ... : ... .. . ... ... : F#4 01 9 ... ... : C-4 01 9 ... ... : A-3 01 F P80 ...
ROW 65 : ... .. E ... ... ... : ... .. 6 ... ... ... : ... .. . ... : ... .. C ... : ... .. . ... ... : ... .. 8 ... ... : ... .. 8 ... ... : ... .. D P82 ...
ROW 66 : ... .. D ... ... ... : ... .. 3 ... ... ... : ... .. . ... : ... .. 6 ... : ... .. . ... ... : ... .. . ... ... : ... .. . ... ... : ... .. 8 ... ...
ROW 67 : ... .. A ... ... ... : ... .. 1 ... ... ... : ... .. . ... : ... .. 3 ... : ... .. . ... ... : --- .. . ... ... : --- .. . ... ... : ... .. . P80 ...
ROW 68 : ... .. . ... ... ... : ... .. . ... ... ... : ... .. . ... : ... .. 2 ... : ... .. . ... ... : ... .. . ... ... : ... .. . ... ... : ... .. . P7F ...
ROW 69 : ... .. . ... ... ... : ... .. 0 ... ... ... : --- .. . ... : ... .. 0 ... : ... .. . ... ... : ... .. . ... ... : ... .. . ... ... : ... .. . P7E ...
ROW 6A : ... .. . ... ... ... : A-5 00 8 P80 ... ... : C-4 00 . ... : ... .. F ... : ... .. . ... ... : F#4 01 9 ... ... : C-4 01 9 ... ... : ... .. . P7F ...
ROW 6B : ... .. . ... ... ... : ... .. 6 ... ... ... : ... .. . ... : ... .. C ... : ... .. . ... ... : ... .. 8 ... ... : ... .. 8 ... ... : ... .. . P80 ...
ROW 6C : ... .. . ... ... ... : ... .. 3 ... ... ... : ... .. . ... : ... .. 6 ... : ... .. . ... ... : ... .. . ... ... : ... .. . ... ... : ... .. . P81 ...
ROW 6D : ... .. 0 ... ... ... : ... .. 1 ... ... ... : ... .. . ... : ... .. 3 ... : ... .. . ... ... : --- .. . ... ... : ... .. . ... ... : --- .. . P80 ...
ROW 6E : ... .. . ... ... ... : ... .. . ... ... ... : ... .. . ... : ... .. 2 ... : ... .. . ... ... : ... .. . ... ... : ... .. 7 ... ... : ... .. . ... ...
ROW 6F : ... .. . ... ... ... : ... .. 0 ... ... ... : --- .. . ... : ... .. 0 ... : ... .. . ... ... : ... .. . ... ... : ... .. . ... ... : ... .. . ... ...
ROW 70 : A#2 00 F P81 ... ... : G-5 00 8 P80 ... ... : F#5 00 . ... : B-# 00 D ... : ... .. . ... ... : F#4 01 9 ... ... : A#3 01 9 ... ... : A#3 01 F P7E ...
ROW 71 : ... .. E ... ... ... : ... .. 6 ... ... ... : G#4 00 . ... : ... .. B ... : ... .. . ... ... : ... .. 8 ... ... : ... .. 8 ... ... : ... .. D P7F ...
ROW 72 : ... .. D ... ... ... : ... .. 3 ... ... ... : C#4 00 . ... : ... .. . ... : ... .. . ... ... : ... .. . ... ... : ... .. . ... ... : ... .. 8 P80 ...
ROW 73 : ... .. A ... ... ... : ... .. 1 ... ... ... : C-4 00 . ... : ... .. A ... : ... .. . ... ... : ... .. . ... ... : ... .. . ... ... : ... .. . P81 ...
ROW 74 : ... .. . ... ... ... : ... .. . ... ... ... : G-3 00 . ... : ... .. 8 ... : ... .. . ... ... : ... .. 7 ... ... : ... .. 7 ... ... : ... .. . P82 ...
ROW 75 : ... .. . ... ... ... : ... .. 0 ... ... ... : ... .. . ... : ... .. 7 ... : ... .. . ... ... : ... .. . ... ... : ... .. . ... ... : ... .. . P81 ...
ROW 76 : ... .. . ... ... ... : A#5 00 8 P80 ... ... : ... .. . ... : ... .. 6 ... : ... .. . ... ... : ... .. . ... ... : ... .. . ... ... : ... .. . P80 ...
ROW 77 : ... .. . ... ... ... : ... .. 6 ... ... ... : ... .. . ... : ... .. . ... : ... .. . ... ... : ... .. 6 ... ... : ... .. 6 ... ... : ... .. . P7E ...
ROW 78 : ... .. . ... ... ... : ... .. 3 ... ... ... : ... .. . ... : ... .. 5 ... : ... .. . ... ... : ... .. . ... ... : ... .. . ... ... : ... .. . ... ...
ROW 79 : ... .. . ... ... ... : ... .. 1 ... ... ... : ... .. . ... : ... .. . ... : ... .. . ... ... : ... .. . ... ... : ... .. . ... ... : ... .. . P80 ...
ROW 7A : ... .. . ... ... ... : ... .. . ... ... ... : ... .. . ... : ... .. 4 ... : ... .. . ... ... : ... .. . ... ... : ... .. . ... ... : ... .. . P81 ...
ROW 7B : ... .. . ... ... ... : ... .. 0 ... ... ... : ... .. . ... : ... .. . ... : ... .. . ... ... : ... .. . ... ... : ... .. . ... ... : ... .. . P82 ...
ROW 7C : A-2 00 F ... ... ... : F#5 00 8 P80 ... ... : F-5 00 . ... : ... .. D ... : ... .. . ... ... : F-4 01 9 ... ... : A-3 01 9 ... ... : A-3 01 F P81 ...
ROW 7D : ... .. E ... ... ... : ... .. 6 ... ... ... : G-4 00 . ... : ... .. B ... : ... .. . ... ... : ... .. 8 ... ... : ... .. 8 ... ... : ... .. D P80 ...
ROW 7E : ... .. D ... ... ... : ... .. 3 ... ... ... : C-4 00 . ... : ... .. . ... : ... .. . ... ... : ... .. . ... ... : ... .. . ... ... : ... .. 8 P7E ...
ROW 7F : ... .. A ... ... ... : ... .. 1 ... ... ... : B-3 00 . ... : ... .. A ... : ... .. . ... ... : ... .. . ... ... : ... .. . ... ... : ... .. . ... ...
ROW 80 : ... .. . ... ... ... : ... .. . ... ... ... : F#3 00 . ... : ... .. 8 ... : ... .. . ... ... : ... .. 7 ... ... : ... .. 7 ... ... : ... .. . P80 ...
ROW 81 : ... .. . ... ... ... : ... .. 0 ... ... ... : ... .. . ... : ... .. 7 ... : ... .. . ... ... : ... .. . ... ... : ... .. . ... ... : ... .. . P81 ...
ROW 82 : ... .. . ... ... ... : A-5 00 8 P80 ... ... : ... .. . ... : ... .. 6 ... : ... .. . ... ... : ... .. . ... ... : ... .. . ... ... : ... .. . P82 ...
ROW 83 : ... .. . ... ... ... : ... .. 6 ... ... ... : ... .. . ... : ... .. . ... : ... .. . ... ... : ... .. 6 ... ... : ... .. 6 ... ... : ... .. . P81 ...
ROW 84 : ... .. . ... ... ... : ... .. 3 ... ... ... : ... .. . ... : ... .. 5 ... : ... .. . ... ... : ... .. . ... ... : ... .. . ... ... : ... .. . P80 ...
ROW 85 : ... .. . ... ... ... : ... .. 1 ... ... ... : ... .. . ... : ... .. . ... : ... .. . ... ... : ... .. . ... ... : ... .. . ... ... : ... .. . P7E ...
ROW 86 : ... .. . ... ... ... : ... .. . ... ... ... : ... .. . ... : ... .. 4 ... : ... .. . ... ... : ... .. . ... ... : ... .. . ... ... : ... .. . ... ...
ROW 87 : ... .. . ... ... ... : ... .. 0 ... ... ... : ... .. . ... : ... .. . ... : ... .. . ... ... : ... .. . ... ... : ... .. . ... ... : ... .. . P80 ...
ROW 88 : G#2 00 F ... ... ... : F-5 00 8 P80 ... ... : E-5 00 . ... : ... .. D ... : ... .. . ... ... : E-4 01 9 ... ... : G#3 01 9 ... ... : G#3 01 F P81 ...
ROW 89 : ... .. E ... ... ... : ... .. 6 ... ... ... : F#4 00 . ... : ... .. B ... : ... .. . ... ... : ... .. 8 ... ... : ... .. 8 ... ... : ... .. D P82 ...
ROW 8A : ... .. D ... ... ... : ... .. 3 ... ... ... : B-3 00 . ... : ... .. . ... : ... .. . ... ... : ... .. . ... ... : ... .. . ... ... : ... .. 8 P81 ...
ROW 8B : ... .. A ... ... ... : ... .. 1 ... ... ... : A#3 00 . ... : ... .. A ... : ... .. . ... ... : ... .. . ... ... : ... .. . ... ... : ... .. . P80 ...
ROW 8C : ... .. . ... ... ... : ... .. . ... ... ... : F-3 00 . ... : ... .. 8 ... : ... .. . ... ... : ... .. 7 ... ... : ... .. 7 ... ... : ... .. . P7F ...
ROW 8D : ... .. . ... ... ... : ... .. 0 ... ... ... : ... .. . ... : ... .. 7 ... : ... .. . ... ... : ... .. . ... ... : ... .. . ... ... : ... .. . P7E ...
ROW 8E : ... .. . ... ... ... : G#5 00 8 P80 ... ... : ... .. . ... : ... .. 6 ... : ... .. . ... ... : ... .. . ... ... : ... .. . ... ... : ... .. . P80 ...
ROW 8F : ... .. . ... ... ... : ... .. 6 ... ... ... : ... .. . ... : ... .. . ... : ... .. . ... ... : ... .. 6 ... ... : ... .. 6 ... ... : ... .. . ... ...
ROW 90 : ... .. . ... ... ... : ... .. 3 ... ... ... : ... .. . ... : ... .. 5 ... : ... .. . ... ... : ... .. . ... ... : ... .. . ... ... : ... .. . P82 ...
ROW 91 : ... .. . ... ... ... : ... .. 1 ... ... ... : ... .. . ... : ... .. . ... : ... .. . ... ... : ... .. . ... ... : ... .. . ... ... : ... .. . P81 ...
ROW 92 : ... .. . ... ... ... : ... .. . ... ... ... : ... .. . ... : ... .. 4 ... : ... .. . ... ... : ... .. . ... ... : ... .. . ... ... : ... .. . P80 ...
ROW 93 : ... .. . ... ... ... : ... .. 0 ... ... ... : ... .. . ... : ... .. . ... : ... .. . ... ... : ... .. . ... ... : ... .. . ... ... : ... .. . P7F ...
ROW 94 : G-2 00 F ... ... ... : E-5 00 8 P80 ... ... : D#5 00 . ... : D-# 00 F ... : ... .. . ... ... : D#4 01 9 ... ... : G-3 01 9 ... ... : G-3 01 F P7E ...
ROW 95 : ... .. E ... ... ... : ... .. 6 ... ... ... : F-4 00 . ... : ... .. C ... : ... .. . ... ... : ... .. 8 ... ... : ... .. 8 ... ... : ... .. D P7F ...
ROW 96 : ... .. D ... ... ... : ... .. 3 ... ... ... : A#3 00 . ... : ... .. 6 ... : ... .. . ... ... : ... .. . ... ... : ... .. . ... ... : ... .. 8 P80 ...
ROW 97 : ... .. A ... ... ... : ... .. 1 ... ... ... : A-3 00 . ... : ... .. 3 ... : ... .. . ... ... : ... .. . ... ... : ... .. . ... ... : ... .. . P82 ...
ROW 98 : ... .. . ... ... ... : ... .. . ... ... ... : E-3 00 . ... : ... .. 2 ... : ... .. . ... ... : ... .. 7 ... ... : ... .. 7 ... ... : ... .. . ... ...
ROW 99 : ... .. . ... ... ... : ... .. 0 ... ... ... : ... .. . ... : ... .. 0 ... : ... .. . ... ... : ... .. . ... ... : ... .. . ... ... : ... .. . P80 ...
ROW 9A : ... .. . ... ... ... : G-5 00 8 P80 ... ... : ... .. . ... : ... .. F ... : ... .. . ... ... : ... .. . ... ... : ... .. . ... ... : ... .. . P7F ...
ROW 9B : ... .. . ... ... ... : ... .. 6 ... ... ... : ... .. . ... : ... .. C ... : ... .. . ... ... : ... .. 6 ... ... : ... .. 6 ... ... : ... .. . P7E ...
ROW 9C : ... .. . ... ... ... : ... .. 3 ... ... ... : ... .. . ... : ... .. 6 ... : ... .. . ... ... : ... .. . ... ... : ... .. . ... ... : ... .. . P7F ...
ROW 9D : ... .. . ... ... ... : ... .. 1 ... ... ... : ... .. . ... : ... .. 3 ... : ... .. . ... ... : ... .. . ... ... : ... .. . ... ... : ... .. . P80 ...
ROW 9E : ... .. . ... ... ... : ... .. . ... ... ... : ... .. . ... : ... .. 2 ... : ... .. . ... ... : ... .. . ... ... : ... .. . ... ... : ... .. . P82 ...
ROW 9F : ... .. . ... ... ... : ... .. 0 ... ... ... : ... .. . ... : ... .. 0 ... : ... .. . ... ... : ... .. . ... ... : ... .. . ... ... : ... .. . ... ...
ROW A0 : F#2 00 F ... ... ... : D-5 00 8 P80 ... ... : D-5 00 . ... : B-# 00 D ... : ... .. . ... ... : D-4 01 9 ... ... : F#3 01 9 ... ... : F#3 01 F P80 ...
ROW A1 : ... .. E ... ... ... : ... .. 6 ... ... ... : E-4 00 . ... : ... .. B ... : ... .. . ... ... : ... .. 8 ... ... : ... .. 8 ... ... : ... .. D P7F ...
ROW A2 : ... .. D ... ... ... : ... .. 3 ... ... ... : A-3 00 . ... : ... .. . ... : ... .. . ... ... : ... .. . ... ... : ... .. . ... ... : ... .. 8 P7E ...
ROW A3 : ... .. A ... ... ... : ... .. 1 ... ... ... : G#3 00 . ... : ... .. A ... : ... .. . ... ... : ... .. 7 ... ... : ... .. 7 ... ... : ... .. . P7F ...
ROW A4 : ... .. . ... ... ... : ... .. . ... ... ... : D#3 00 . ... : ... .. 8 ... : ... .. . ... ... : ... .. 6 ... ... : ... .. 6 ... ... : ... .. . P80 ...
ROW A5 : ... .. . ... ... ... : ... .. 0 ... ... ... : ... .. . ... : ... .. 7 ... : ... .. . ... ... : ... .. . ... ... : ... .. . ... ... : ... .. . P82 ...
ROW A6 : ... .. . ... ... ... : C-5 00 8 P80 ... ... : ... .. . ... : ... .. 6 ... : ... .. . ... ... : A#3 01 8 ... ... : G#3 01 8 ... ... : ... .. . ... ...
ROW A7 : ... .. . ... ... ... : ... .. 6 ... ... ... : ... .. . ... : ... .. . ... : ... .. . ... ... : ... .. 7 ... ... : ... .. 7 ... ... : ... .. . P80 ...
ROW A8 : ... .. . ... ... ... : ... .. 3 ... ... ... : ... .. . ... : ... .. 5 ... : ... .. . ... ... : ... .. . ... ... : ... .. . ... ... : ... .. . P7F ...
ROW A9 : ... .. . ... ... ... : ... .. 1 ... ... ... : ... .. . ... : ... .. . ... : ... .. . ... ... : --- .. . ... ... : --- .. . P82 ... : ... .. . P7E ...
ROW AA : ... .. . ... ... ... : ... .. . ... ... ... : ... .. . ... : ... .. 4 ... : ... .. . ... ... : ... .. . ... ... : ... .. . ... ... : ... .. . P7F ...
ROW AB : ... .. . ... ... ... : ... .. 0 ... ... ... : ... .. . ... : ... .. . ... : ... .. . ... ... : ... .. . ... ... : ... .. . ... ... : ... .. . P80 ...
ROW AC : ... .. . ... ... ... : G#4 00 8 P80 ... ... : ... .. . ... : D-# 00 F ... : ... .. . ... ... : C-4 01 8 ... ... : F#3 01 8 P80 ... : ... .. . P81 ...
ROW AD : ... .. . ... ... ... : ... .. 6 ... ... ... : ... .. . ... : ... .. C ... : ... .. . ... ... : ... .. 7 ... ... : ... .. 7 ... ... : ... .. . P82 ...
ROW AE : ... .. . ... ... ... : ... .. 3 ... ... ... : ... .. . ... : ... .. 6 ... : ... .. . ... ... : ... .. . ... ... : ... .. . ... ... : ... .. . P80 ...
ROW AF : ... .. 0 ... ... ... : ... .. 1 ... ... ... : ... .. . ... : ... .. 3 ... : ... .. . ... ... : --- .. . ... ... : --- .. . P7F ... : --- .. . P82 ...
ROW B0 : ... .. . ... ... ... : ... .. . ... ... ... : ... .. . ... : ... .. 2 ... : ... .. . ... ... : ... .. . ... ... : ... .. . ... ... : ... .. . ... ...
ROW B1 : ... .. . ... ... ... : ... .. 0 ... ... ... : ... .. . ... : ... .. 0 ... : ... .. . ... ... : ... .. . ... ... : ... .. . ... ... : ... .. . ... ...
ROW B2 : F-2 00 F P81 ... ... : F#4 00 8 P80 ... ... : ... .. . ... : ... .. F ... : ... .. . ... ... : D-4 01 7 ... ... : G#3 01 7 P80 ... : F-3 01 F P80 ...
ROW B3 : ... .. E ... ... ... : ... .. 6 ... ... ... : ... .. . ... : ... .. C ... : ... .. . ... ... : ... .. 6 ... ... : ... .. 6 ... ... : ... .. D P81 ...
ROW B4 : ... .. D ... ... ... : ... .. 3 ... ... ... : ... .. . ... : ... .. 6 ... : ... .. . ... ... : ... .. . ... ... : ... .. . ... ... : ... .. 8 P82 ...
ROW B5 : ... .. 0 ... ... ... : ... .. 1 ... ... ... : ... .. . ... : ... .. 3 ... : ... .. . ... ... : --- .. . ... ... : --- .. . P82 ... : --- .. . P81 ...
ROW B6 : ... .. . ... ... ... : ... .. . ... ... ... : ... .. . ... : ... .. 2 ... : ... .. . ... ... : ... .. . ... ... : ... .. . ... ... : ... .. . ... ...
ROW B7 : ... .. . ... ... ... : ... .. 0 ... ... ... : ... .. . ... : ... .. 0 ... : ... .. . ... ... : ... .. . ... ... : ... .. . ... ... : ... .. . ... ...
ROW B8 : F#2 00 F P81 ... ... : D-4 00 8 P80 ... ... : C#5 00 . ... : B-# 00 D ... : ... .. . ... ... : E-4 01 7 ... ... : A#3 01 7 P80 ... : F#3 01 F P7E ...
ROW B9 : ... .. E ... ... ... : ... .. 6 ... ... ... : D#4 00 . ... : ... .. B ... : ... .. . ... ... : ... .. 6 ... ... : ... .. 6 ... ... : ... .. D P80 ...
ROW BA : ... .. D ... ... ... : ... .. 3 ... ... ... : G#3 00 . ... : ... .. . ... : ... .. . ... ... : ... .. . ... ... : ... .. . ... ... : ... .. 8 P81 ...
ROW BB : ... .. A ... ... ... : ... .. 1 ... ... ... : G-3 00 . ... : ... .. A ... : ... .. . ... ... : ... .. . ... ... : ... .. . ... ... : ... .. . P82 ...
ROW BC : ... .. . ... ... ... : ... .. . ... ... ... : D-3 00 . ... : ... .. 8 ... : ... .. . ... ... : ... .. . ... ... : ... .. . ... ... : ... .. . P81 ...
ROW BD : ... .. . ... ... ... : ... .. 0 ... ... ... : ... .. . ... : ... .. 7 ... : ... .. . ... ... : ... .. . ... ... : ... .. . ... ... : ... .. . P80 ...
ROW BE : ... .. . ... ... ... : C-4 00 8 P80 ... ... : ... .. . ... : ... .. 6 ... : ... .. . ... ... : A#3 01 7 ... ... : C-4 01 7 ... ... : ... .. . P7E ...
ROW BF : ... .. . ... ... ... : ... .. 6 ... ... ... : ... .. . ... : ... .. . ... : ... .. . ... ... : ... .. 6 ... ... : ... .. 6 ... ... : ... .. . ... ...
ROW C0 : ... .. . ... ... ... : ... .. 3 ... ... ... : ... .. . ... : ... .. 5 ... : ... .. . ... ... : ... .. . ... ... : ... .. . ... ... : ... .. . P80 ...
ROW C1 : ... .. 0 ... ... ... : ... .. 1 ... ... ... : ... .. . ... : ... .. . ... : ... .. . ... ... : --- .. . ... ... : --- .. . ... ... : --- .. . P82 ...
ROW C2 : ... .. . ... ... ... : ... .. . ... ... ... : ... .. . ... : ... .. 4 ... : ... .. . ... ... : ... .. . ... ... : ... .. . ... ... : ... .. . ... ...
ROW C3 : ... .. . ... ... ... : ... .. 0 ... ... ... : ... .. . ... : ... .. . ... : ... .. . ... ... : ... .. . ... ... : ... .. . ... ... : ... .. . ... ...
ROW C4 : A#2 00 F P81 ... ... : D-4 00 8 P80 ... ... : ... .. . ... : D-# 00 F ... : ... .. . ... ... : C-4 01 7 ... ... : D-4 01 7 ... ... : A#3 01 F P80 ...
ROW C5 : ... .. E ... ... ... : ... .. 6 ... ... ... : ... .. . ... : ... .. C ... : ... .. . ... ... : ... .. 6 ... ... : ... .. 6 ... ... : ... .. D P7E ...
ROW C6 : ... .. D ... ... ... : ... .. 3 ... ... ... : ... .. . ... : ... .. 6 ... : ... .. . ... ... : ... .. . ... ... : ... .. . ... ... : ... .. 8 ... ...
ROW C7 : ... .. A ... ... ... : ... .. 1 ... ... ... : ... .. . ... : ... .. 3 ... : ... .. . ... ... : --- .. . ... ... : --- .. . ... ... : ... .. . P80 ...
ROW C8 : ... .. . ... ... ... : ... .. . ... ... ... : ... .. . ... : ... .. 2 ... : ... .. . ... ... : ... .. . ... ... : ... .. . ... ... : ... .. . P81 ...
ROW C9 : ... .. . ... ... ... : ... .. 0 ... ... ... : ... .. . ... : ... .. 0 ... : ... .. . ... ... : ... .. . ... ... : ... .. . ... ... : ... .. . P82 ...
ROW CA : ... .. . ... ... ... : F#4 00 8 P80 ... ... : ... .. . ... : ... .. F ... : ... .. . ... ... : D-4 01 6 ... ... : C-4 01 6 ... ... : ... .. . P81 ...
ROW CB : ... .. . ... ... ... : ... .. 6 ... ... ... : ... .. . ... : ... .. C ... : ... .. . ... ... : ... .. 5 ... ... : ... .. 5 ... ... : ... .. . P80 ...
ROW CC : ... .. . ... ... ... : ... .. 3 ... ... ... : ... .. . ... : ... .. 6 ... : ... .. . ... ... : ... .. . ... ... : ... .. . ... ... : ... .. . P7F ...
ROW CD : ... .. . ... ... ... : ... .. 1 ... ... ... : ... .. . ... : ... .. 3 ... : ... .. . ... ... : --- .. . ... ... : --- .. . ... ... : ... .. . P7E ...
ROW CE : ... .. . ... ... ... : ... .. . ... ... ... : ... .. . ... : ... .. 2 ... : ... .. . ... ... : ... .. . ... ... : ... .. . ... ... : ... .. . P80 ...
ROW CF : ... .. . ... ... ... : ... .. 0 ... ... ... : ... .. . ... : ... .. 0 ... : ... .. . ... ... : ... .. . ... ... : ... .. . ... ... : ... .. . ... ...
ROW D0 : C-3 00 F ... ... ... : G#4 00 8 P80 ... ... : C-5 00 . ... : B-# 00 D ... : ... .. . ... ... : E-4 01 6 ... ... : D-4 01 6 ... ... : C-4 01 F P82 ...
ROW D1 : ... .. E ... ... ... : ... .. 6 ... ... ... : D-4 00 . ... : ... .. B ... : ... .. . ... ... : ... .. 5 ... ... : ... .. 5 ... ... : ... .. D P81 ...
ROW D2 : ... .. D ... ... ... : ... .. 3 ... ... ... : G-3 00 . ... : ... .. . ... : ... .. . ... ... : ... .. . ... ... : ... .. . ... ... : ... .. 8 P80 ...
ROW D3 : ... .. A ... ... ... : ... .. 1 ... ... ... : F#3 00 . ... : ... .. A ... : ... .. . ... ... : ... .. . ... ... : ... .. . ... ... : ... .. . P7F ...
ROW D4 : ... .. . ... ... ... : ... .. . ... ... ... : C#3 00 . ... : ... .. 8 ... : ... .. . ... ... : ... .. . ... ... : ... .. . ... ... : ... .. . P7E ...
ROW D5 : ... .. . ... ... ... : ... .. 0 ... ... ... : ... .. . ... : ... .. 7 ... : ... .. . ... ... : ... .. . ... ... : ... .. . ... ... : ... .. . P7F ...
ROW D6 : A#2 00 F ... ... ... : E-4 00 8 P80 ... ... : ... .. . ... : ... .. 6 ... : ... .. . ... ... : C-4 01 6 ... ... : E-4 01 6 ... ... : A#3 01 F P80 ...
ROW D7 : ... .. E ... ... ... : ... .. 6 ... ... ... : ... .. . ... : ... .. . ... : ... .. . ... ... : ... .. 5 ... ... : ... .. 5 ... ... : ... .. D P82 ...
ROW D8 : ... .. D ... ... ... : ... .. 3 ... ... ... : ... .. . ... : ... .. 5 ... : ... .. . ... ... : ... .. . ... ... : ... .. . ... ... : ... .. 8 ... ...
ROW D9 : ... .. 0 ... ... ... : ... .. 1 ... ... ... : ... .. . ... : ... .. . ... : ... .. . ... ... : --- .. . ... ... : --- .. . ... ... : --- .. . P81 ...
ROW DA : ... .. . ... ... ... : ... .. . ... ... ... : ... .. . ... : ... .. 4 ... : ... .. . ... ... : ... .. . ... ... : ... .. . ... ... : ... .. . ... ...
ROW DB : ... .. . ... ... ... : ... .. 0 ... ... ... : ... .. . ... : ... .. . ... : ... .. . ... ... : ... .. . ... ... : ... .. . ... ... : ... .. . ... ...
ROW DC : C-3 00 F P81 ... ... : C-4 00 8 P80 ... ... : ... .. . ... : ... .. D ... : ... .. . ... ... : D-4 01 6 ... ... : F#4 01 6 ... ... : C-4 01 F P7F ...
ROW DD : ... .. E ... ... ... : ... .. 6 ... ... ... : ... .. . ... : ... .. B ... : ... .. . ... ... : ... .. 5 ... ... : ... .. 5 ... ... : ... .. D P80 ...
ROW DE : ... .. D ... ... ... : ... .. 3 ... ... ... : ... .. . ... : ... .. . ... : ... .. . ... ... : ... .. . ... ... : ... .. . ... ... : ... .. 8 P82 ...
ROW DF : ... .. 0 ... ... ... : ... .. 1 ... ... ... : ... .. . ... : ... .. A ... : ... .. . ... ... : --- .. . ... ... : --- .. . ... ... : --- .. . ... ...
ROW E0 : ... .. . ... ... ... : ... .. . ... ... ... : ... .. . ... : ... .. 8 ... : ... .. . ... ... : ... .. . ... ... : ... .. . ... ... : ... .. . ... ...
ROW E1 : ... .. . ... ... ... : ... .. 0 ... ... ... : ... .. . ... : ... .. 7 ... : ... .. . ... ... : ... .. . ... ... : ... .. . ... ... : ... .. . ... ...
ROW E2 : D-3 00 F P81 ... ... : G#3 00 8 P80 ... ... : ... .. . ... : ... .. 6 ... : ... .. . ... ... : E-4 01 6 ... ... : E-4 01 6 ... ... : D-4 01 F P7E ...
ROW E3 : ... .. E ... ... ... : ... .. 6 ... ... ... : ... .. . ... : ... .. . ... : ... .. . ... ... : ... .. 5 ... ... : ... .. 5 ... ... : ... .. D P7F ...
ROW E4 : ... .. D ... ... ... : ... .. 3 ... ... ... : ... .. . ... : ... .. 5 ... : ... .. . ... ... : ... .. . ... ... : ... .. . ... ... : ... .. 8 P80 ...
ROW E5 : ... .. 0 ... ... ... : ... .. 1 ... ... ... : ... .. . ... : ... .. . ... : ... .. . ... ... : --- .. . ... ... : --- .. . ... ... : --- .. . ... ...
ROW E6 : ... .. . ... ... ... : ... .. . ... ... ... : ... .. . ... : ... .. 4 ... : ... .. . ... ... : ... .. . ... ... : ... .. . ... ... : ... .. . ... ...
ROW E7 : ... .. . ... ... ... : ... .. 0 ... ... ... : ... .. . ... : ... .. . ... : ... .. . ... ... : ... .. . ... ... : ... .. . ... ... : ... .. . ... ...
ROW E8 : E-3 00 F P81 ... ... : C-4 00 8 P80 ... ... : B-4 00 . ... : ... .. D ... : ... .. . ... ... : F#4 01 5 ... ... : F#4 01 5 ... ... : E-4 01 F P7F ...
ROW E9 : ... .. E ... ... ... : ... .. 6 ... ... ... : C#4 00 . ... : ... .. B ... : ... .. . ... ... : ... .. 4 ... ... : ... .. 4 ... ... : ... .. D P7E ...
ROW EA : ... .. D ... ... ... : ... .. 3 ... ... ... : F#3 00 . ... : ... .. . ... : ... .. . ... ... : ... .. . ... ... : ... .. . ... ... : ... .. 8 P7F ...
ROW EB : ... .. A ... ... ... : ... .. 1 ... ... ... : F-3 00 . ... : ... .. A ... : ... .. . ... ... : ... .. . ... ... : ... .. . ... ... : ... .. . P80 ...
ROW EC : ... .. . ... ... ... : ... .. . ... ... ... : C-3 00 . ... : ... .. 8 ... : ... .. . ... ... : ... .. . ... ... : ... .. . ... ... : ... .. . P81 ...
ROW ED : ... .. . ... ... ... : ... .. 0 ... ... ... : ... .. . ... : ... .. 7 ... : ... .. . ... ... : ... .. . ... ... : ... .. . ... ... : ... .. . P82 ...
ROW EE : ... .. . ... ... ... : E-4 00 8 P80 ... ... : ... .. . ... : ... .. 6 ... : ... .. . ... ... : D-4 01 5 ... ... : G#4 01 5 ... ... : ... .. . P80 ...
ROW EF : ... .. . ... ... ... : ... .. 6 ... ... ... : ... .. . ... : ... .. . ... : ... .. . ... ... : ... .. 4 ... ... : ... .. 4 ... ... : ... .. . ... ...
ROW F0 : ... .. . ... ... ... : ... .. 3 ... ... ... : ... .. . ... : ... .. 5 ... : ... .. . ... ... : ... .. . ... ... : ... .. . ... ... : ... .. . P7E ...
ROW F1 : ... .. 0 ... ... ... : ... .. 1 ... ... ... : ... .. . ... : ... .. . ... : ... .. . ... ... : --- .. . ... ... : --- .. . ... ... : --- .. . ... ...
ROW F2 : ... .. . ... ... ... : ... .. . ... ... ... : ... .. . ... : ... .. 4 ... : ... .. . ... ... : ... .. . ... ... : ... .. . ... ... : ... .. . ... ...
ROW F3 : ... .. . ... ... ... : ... .. 0 ... ... ... : ... .. . ... : ... .. . ... : ... .. . ... ... : ... .. . ... ... : ... .. . ... ... : ... .. . ... ...
ROW F4 : A#2 00 F P81 ... ... : G#4 00 8 P80 ... ... : ... .. . ... : D-# 00 F ... : ... .. . ... ... : E-4 01 4 ... ... : A#4 01 4 ... ... : A#3 01 F P82 ...
ROW F5 : ... .. E ... ... ... : ... .. 6 ... ... ... : ... .. . ... : ... .. C ... : ... .. . ... ... : ... .. . ... ... : ... .. . ... ... : ... .. D P81 ...
ROW F6 : ... .. D ... ... ... : ... .. 3 ... ... ... : ... .. . ... : ... .. 6 ... : ... .. . ... ... : ... .. . ... ... : ... .. . ... ... : ... .. 8 P80 ...
ROW F7 : ... .. A ... ... ... : ... .. 1 ... ... ... : ... .. . ... : ... .. 3 ... : ... .. . ... ... : --- .. . ... ... : --- .. . ... ... : ... .. . P7E ...
ROW F8 : ... .. . ... ... ... : ... .. . ... ... ... : ... .. . ... : ... .. 2 ... : ... .. . ... ... : ... .. . ... ... : ... .. . ... ... : ... .. . ... ...
ROW F9 : ... .. . ... ... ... : ... .. 0 ... ... ... : ... .. . ... : ... .. 0 ... : ... .. . ... ... : ... .. . ... ... : ... .. . ... ... : ... .. . P80 ...
ROW FA : ... .. . ... ... ... : C-5 00 8 P80 ... ... : ... .. . ... : ... .. F ... : ... .. . ... ... : F#4 01 4 ... ... : G#4 01 4 ... ... : ... .. . P81 ...
ROW FB : ... .. . ... ... ... : ... .. 6 ... ... ... : ... .. . ... : ... .. C ... : ... .. . ... ... : ... .. . ... ... : ... .. . ... ... : ... .. . P82 ...
ROW FC : ... .. . ... ... ... : ... .. 3 ... ... ... : ... .. . ... : ... .. 6 ... : ... .. . ... ... : ... .. . ... ... : ... .. . ... ... : ... .. . P81 ...
ROW FD : ... .. 0 ... ... ... : ... .. 1 ... ... ... : ... .. . ... : ... .. 3 ... : ... .. . ... ... : --- .. . ... ... : --- .. . ... ... : --- .. . P80 ...
ROW FE : ... .. . ... ... ... : ... .. . ... ... ... : ... .. . ... : ... .. 2 ... : ... .. . ... ... : ... .. . ... ... : ... .. . ... ... : ... .. . ... ...
ROW FF : ... .. . ... ... ... : ... .. 0 ... ... ... : ... .. . ... : ... .. 0 ... : ... .. . ... ... : ... .. . ... ... : ... .. . ... ... : ... .. . ... ...

PATTERN 12
ROW 00 : E-3 00 F P81 ... ... : D-5 00 8 P80 ... ... : A#4 00 . ... : B-# 00 D ... : ... .. . ... ... : G#4 01 4 ... ... : A#4 01 4 ... ... : E-4 01 F ... ...
ROW 01 : ... .. E ... ... ... : ... .. 6 ... ... ... : C-4 00 . ... : ... .. B ... : ... .. . ... ... : ... .. . ... ... : ... .. . ... ... : ... .. D P81 ...
ROW 02 : ... .. D ... ... ... : ... .. 3 ... ... ... : F-3 00 . ... : ... .. . ... : ... .. . ... ... : ... .. . ... ... : ... .. . ... ... : ... .. 8 P82 ...
ROW 03 : ... .. A ... ... ... : ... .. 1 ... ... ... : E-3 00 . ... : ... .. A ... : ... .. . ... ... : ... .. . ... ... : ... .. . ... ... : ... .. . P81 ...
ROW 04 : ... .. . ... ... ... : ... .. . ... ... ... : B-2 00 . ... : ... .. 8 ... : ... .. . ... ... : ... .. 3 ... ... : ... .. 3 ... ... : ... .. . P80 ...
ROW 05 : ... .. . ... ... ... : ... .. 0 ... ... ... : ... .. . ... : ... .. 7 ... : ... .. . ... ... : ... .. . ... ... : ... .. . ... ... : ... .. . P7E ...
ROW 06 : D-3 00 F ... ... ... : A#4 00 8 P80 ... ... : ... .. . ... : ... .. 6 ... : ... .. . ... ... : E-4 01 4 ... ... : C-5 01 4 ... ... : D-4 01 F ... ...
ROW 07 : ... .. E ... ... ... : ... .. 6 ... ... ... : ... .. . ... : ... .. . ... : ... .. . ... ... : ... .. . ... ... : ... .. . ... ... : ... .. D P80 ...
ROW 08 : ... .. D ... ... ... : ... .. 3 ... ... ... : ... .. . ... : ... .. 5 ... : ... .. . ... ... : ... .. . ... ... : ... .. . ... ... : ... .. 8 P81 ...
ROW 09 : ... .. 0 ... ... ... : ... .. 1 ... ... ... : ... .. . ... : ... .. . ... : ... .. . ... ... : --- .. . ... ... : --- .. . ... ... : --- .. . ... ...
ROW 0A : ... .. . ... ... ... : ... .. . ... ... ... : ... .. . ... : ... .. 4 ... : ... .. . ... ... : ... .. . ... ... : ... .. . ... ... : ... .. . ... ...
ROW 0B : ... .. . ... ... ... : ... .. 0 ... ... ... : ... .. . ... : ... .. . ... : ... .. . ... ... : ... .. . ... ... : ... .. . ... ... : ... .. . ... ...
ROW 0C : E-3 00 F P81 ... ... : F#4 00 8 P80 ... ... : ... .. . ... : D-# 00 F ... : ... .. . ... ... : F#4 01 5 ... ... : D-5 01 5 ... ... : E-4 01 F P7F ...
ROW 0D : ... .. E ... ... ... : ... .. 6 ... ... ... : ... .. . ... : ... .. C ... : ... .. . ... ... : ... .. 4 ... ... : ... .. 4 ... ... : ... .. D P7E ...
ROW 0E : ... .. D ... ... ... : ... .. 3 ... ... ... : ... .. . ... : ... .. 6 ... : ... .. . ... ... : ... .. . ... ... : ... .. . ... ... : ... .. 8 P80 ...
ROW 0F : ... .. 0 ... ... ... : ... .. 1 ... ... ... : ... .. . ... : ... .. 3 ... : ... .. . ... ... : --- .. . ... ... : --- .. . ... ... : --- .. . ... ...
ROW 10 : ... .. . ... ... ... : ... .. . ... ... ... : ... .. . ... : ... .. 2 ... : ... .. . ... ... : ... .. . ... ... : ... .. . ... ... : ... .. . ... ...
ROW 11 : ... .. . ... ... ... : ... .. 0 ... ... ... : ... .. . ... : ... .. 0 ... : ... .. . ... ... : ... .. . ... ... : ... .. . ... ... : ... .. . ... ...
ROW 12 : F#3 00 F P81 ... ... : D-4 00 8 P80 ... ... : ... .. . ... : ... .. F ... : ... .. . ... ... : G#4 01 5 ... ... : C-5 01 5 ... ... : F#4 01 F ... ...
ROW 13 : ... .. E ... ... ... : ... .. 6 ... ... ... : ... .. . ... : ... .. C ... : ... .. . ... ... : ... .. 4 ... ... : ... .. 4 ... ... : ... .. D P7F ...
ROW 14 : ... .. D ... ... ... : ... .. 3 ... ... ... : ... .. . ... : ... .. 6 ... : ... .. . ... ... : ... .. . ... ... : ... .. . ... ... : ... .. 8 P7E ...
ROW 15 : ... .. 0 ... ... ... : ... .. 1 ... ... ... : ... .. . ... : ... .. 3 ... : ... .. . ... ... : --- .. . ... ... : --- .. . ... ... : --- .. . ... ...
ROW 16 : ... .. . ... ... ... : ... .. . ... ... ... : ... .. . ... : ... .. 2 ... : ... .. . ... ... : ... .. . ... ... : ... .. . ... ... : ... .. . ... ...
ROW 17 : ... .. . ... ... ... : ... .. 0 ... ... ... : ... .. . ... : ... .. 0 ... : ... .. . ... ... : ... .. . ... ... : ... .. . ... ... : ... .. . ... ...
ROW 18 : G#3 00 F P81 ... ... : F#4 00 8 P80 ... ... : A-4 00 . ... : B-# 00 D ... : ... .. . ... ... : A#4 01 6 ... ... : D-5 01 6 ... ... : G#4 01 F P82 ...
ROW 19 : ... .. E ... ... ... : ... .. 6 ... ... ... : B-3 00 . ... : ... .. B ... : ... .. . ... ... : ... .. 5 ... ... : ... .. 5 ... ... : ... .. D P80 ...
ROW 1A : ... .. D ... ... ... : ... .. 3 ... ... ... : E-3 00 . ... : ... .. . ... : ... .. . ... ... : ... .. . ... ... : ... .. . ... ... : ... .. 8 P7F ...
ROW 1B : ... .. A ... ... ... : ... .. 1 ... ... ... : D#3 00 . ... : ... .. A ... : ... .. . ... ... : ... .. . ... ... : ... .. . ... ... : ... .. . P7E ...
ROW 1C : ... .. . ... ... ... : ... .. . ... ... ... : A#2 00 . ... : ... .. 8 ... : ... .. . ... ... : ... .. 4 ... ... : ... .. 4 ... ... : ... .. . P7F ...
ROW 1D : ... .. . ... ... ... : ... .. 0 ... ... ... : ... .. . ... : ... .. 7 ... : ... .. . ... ... : ... .. . ... ... : ... .. . ... ... : ... .. . P80 ...
ROW 1E : ... .. . ... ... ... : A#4 00 8 P80 ... ... : ... .. . ... : ... .. 6 ... : ... .. . ... ... : F#4 01 6 ... ... : E-5 01 6 ... ... : ... .. . P82 ...
ROW 1F : ... .. . ... ... ... : ... .. 6 ... ... ... : ... .. . ... : ... .. . ... : ... .. . ... ... : ... .. 5 ... ... : ... .. 5 ... ... : ... .. . ... ...
ROW 20 : ... .. . ... ... ... : ... .. 3 ... ... ... : ... .. . ... : ... .. 5 ... : ... .. . ... ... : ... .. . ... ... : ... .. . ... ... : ... .. . P80 ...
ROW 21 : ... .. 0 ... ... ... : ... .. 1 ... ... ... : ... .. . ... : ... .. . ... : ... .. . ... ... : --- .. . ... ... : --- .. . ... ... : --- .. . ... ...
ROW 22 : ... .. . ... ... ... : ... .. . ... ... ... : ... .. . ... : ... .. 4 ... : ... .. . ... ... : ... .. . ... ... : ... .. . ... ... : ... .. . ... ...
ROW 23 : ... .. . ... ... ... : ... .. 0 ... ... ... : ... .. . ... : ... .. . ... : ... .. . ... ... : ... .. . ... ... : ... .. . ... ... : ... .. . ... ...
ROW 24 : C-3 00 F P81 ... ... : D-5 00 8 P80 ... ... : ... .. . ... : D-# 00 F ... : ... .. . ... ... : G#4 01 6 ... ... : F#5 01 6 ... ... : C-4 01 F ... ...
ROW 25 : ... .. E ... ... ... : ... .. 6 ... ... ... : ... .. . ... : ... .. C ... : ... .. . ... ... : ... .. 5 ... ... : ... .. 5 ... ... : ... .. D P82 ...
ROW 26 : ... .. D ... ... ... : ... .. 3 ... ... ... : ... .. . ... : ... .. 6 ... : ... .. . ... ... : ... .. . ... ... : ... .. . ... ... : ... .. 8 ... ...
ROW 27 : ... .. A ... ... ... : ... .. 1 ... ... ... : ... .. . ... : ... .. 3 ... : ... .. . ... ... : --- .. . ... ... : --- .. . ... ... : ... .. . P80 ...
ROW 28 : ... .. . ... ... ... : ... .. . ... ... ... : ... .. . ... : ... .. 2 ... : ... .. . ... ... : ... .. . ... ... : ... .. . ... ... : ... .. . P7F ...
ROW 29 : ... .. . ... ... ... : ... .. 0 ... ... ... : ... .. . ... : ... .. 0 ... : ... .. . ... ... : ... .. . ... ... : ... .. . ... ... : ... .. . P7E ...
ROW 2A : ... .. . ... ... ... : F#5 00 8 P80 ... ... : ... .. . ... : ... .. F ... : ... .. . ... ... : A#4 01 7 ... ... : E-5 01 7 ... ... : ... .. . P7F ...
ROW 2B : ... .. . ... ... ... : ... .. 6 ... ... ... : ... .. . ... : ... .. C ... : ... .. . ... ... : ... .. 6 ... ... : ... .. 6 ... ... : ... .. . P80 ...
ROW 2C : ... .. . ... ... ... : ... .. 3 ... ... ... : ... .. . ... : ... .. 6 ... : ... .. . ... ... : ... .. . ... ... : ... .. . ... ... : ... .. . P81 ...
ROW 2D : ... .. 0 ... ... ... : ... .. 1 ... ... ... : ... .. . ... : ... .. 3 ... : ... .. . ... ... : --- .. . ... ... : --- .. . ... ... : --- .. . ... ...
ROW 2E : ... .. . ... ... ... : ... .. . ... ... ... : ... .. . ... : ... .. 2 ... : ... .. . ... ... : ... .. . ... ... : ... .. . ... ... : ... .. . ... ...
ROW 2F : ... .. . ... ... ... : ... .. 0 ... ... ... : ... .. . ... : ... .. 0 ... : ... .. . ... ... : ... .. . ... ... : ... .. . ... ... : ... .. . ... ...
ROW 30 : A#3 00 F P81 ... ... : G#5 00 8 P80 ... ... : G#4 00 . ... : B-# 00 D ... : ... .. . ... ... : C-5 01 7 ... ... : F#5 01 7 ... ... : A#4 01 F P7E ...
ROW 31 : ... .. E ... ... ... : ... .. 6 ... ... ... : A#3 00 . ... : ... .. B ... : ... .. . ... ... : ... .. 6 ... ... : ... .. 6 ... ... : ... .. D P7F ...
ROW 32 : ... .. D ... ... ... : ... .. 3 ... ... ... : D#3 00 . ... : ... .. . ... : ... .. . ... ... : ... .. . ... ... : ... .. . ... ... : ... .. 8 P80 ...
ROW 33 : ... .. A ... ... ... : ... .. 1 ... ... ... : D-3 00 . ... : ... .. A ... : ... .. . ... ... : ... .. . ... ... : ... .. . ... ... : ... .. . P81 ...
ROW 34 : ... .. . ... ... ... : ... .. . ... ... ... : A-2 00 . ... : ... .. 8 ... : ... .. . ... ... : ... .. 5 ... ... : ... .. 5 ... ... : ... .. . P82 ...
ROW 35 : ... .. . ... ... ... : ... .. 0 ... ... ... : ... .. . ... : ... .. 7 ... : ... .. . ... ... : ... .. . ... ... : ... .. . ... ... : ... .. . P81 ...
ROW 36 : G#3 00 F ... ... ... : E-5 00 8 P80 ... ... : ... .. . ... : ... .. 6 ... : ... .. . ... ... : G#4 01 7 ... ... : F-5 01 7 ... ... : G#4 01 F P80 ...
ROW 37 : ... .. E ... ... ... : ... .. 6 ... ... ... : ... .. . ... : ... .. . ... : ... .. . ... ... : ... .. 6 ... ... : ... .. 6 ... ... : ... .. D P7E ...
ROW 38 : ... .. D ... ... ... : ... .. 3 ... ... ... : ... .. . ... : ... .. 5 ... : ... .. . ... ... : ... .. . ... ... : ... .. . ... ... : ... .. 8 ... ...
ROW 39 : ... .. 0 ... ... ... : ... .. 1 ... ... ... : ... .. . ... : ... .. . ... : ... .. . ... ... : --- .. . ... ... : --- .. . ... ... : --- .. . ... ...
ROW 3A : ... .. . ... ... ... : ... .. . ... ... ... : ... .. . ... : ... .. 4 ... : ... .. . ... ... : ... .. . ... ... : ... .. . ... ... : ... .. . ... ...
ROW 3B : ... .. . ... ... ... : ... .. 0 ... ... ... : ... .. . ... : ... .. . ... : ... .. . ... ... : ... .. . ... ... : ... .. . ... ... : ... .. . ... ...
ROW 3C : A#3 00 F P81 ... ... : G#5 00 8 P80 ... ... : ... .. . ... : ... .. 3 ... : ... .. . ... ... : A#4 01 7 ... ... : F#5 01 7 ... ... : A#4 01 F P81 ...
ROW 3D : ... .. E ... ... ... : ... .. 6 ... ... ... : ... .. . ... : ... .. 2 ... : ... .. . ... ... : ... .. 6 ... ... : ... .. 6 ... ... : ... .. D P80 ...
ROW 3E : ... .. D ... ... ... : ... .. 3 ... ... ... : ... .. . ... : ... .. . ... : ... .. . ... ... : ... .. . ... ... : ... .. . ... ... : ... .. 8 P7E ...
ROW 3F : ... .. 0 ... ... ... : ... .. 1 ... ... ... : ... .. . ... : D-# 00 5 ... : ... .. . ... ... : --- .. . ... ... : --- .. . ... ... : --- .. . ... ...
ROW 40 : ... .. . ... ... ... : ... .. . ... ... ... : ... .. . ... : ... .. 4 ... : ... .. . ... ... : ... .. . ... ... : ... .. . ... ... : ... .. . ... ...
ROW 41 : ... .. . ... ... ... : ... .. 0 ... ... ... : ... .. . ... : ... .. . ... : ... .. . ... ... : ... .. . ... ... : ... .. . ... ... : ... .. . ... ...
ROW 42 : C-4 00 F P81 ... ... : B-5 00 8 P80 ... ... : ... .. . ... : ... .. 6 ... : ... .. . ... ... : C-5 01 8 ... ... : G#5 01 8 ... ... : C-5 01 F P82 ...
ROW 43 : ... .. E ... ... ... : ... .. 6 ... ... ... : ... .. . ... : ... .. 5 ... : ... .. . ... ... : ... .. 7 ... ... : ... .. 7 ... ... : ... .. D P81 ...
ROW 44 : ... .. D ... ... ... : ... .. 3 ... ... ... : ... .. . ... : ... .. . ... : ... .. . ... ... : ... .. . ... ... : ... .. . ... ... : ... .. 8 P80 ...
ROW 45 : ... .. 0 ... ... ... : ... .. 1 ... ... ... : ... .. . ... : ... .. 8 ... : ... .. . ... ... : --- .. . ... ... : --- .. . ... ... : --- .. . ... ...
ROW 46 : ... .. . ... ... ... : ... .. . ... ... ... : ... .. . ... : ... .. 7 ... : ... .. . ... ... : ... .. . ... ... : ... .. . ... ... : ... .. . ... ...
ROW 47 : ... .. . ... ... ... : ... .. 0 ... ... ... : ... .. . ... : ... .. . ... : ... .. . ... ... : ... .. . ... ... : ... .. . ... ... : ... .. . ... ...
ROW 48 : D-4 00 F P81 ... ... : C#6 00 8 P80 ... ... : G-4 00 . ... : B-# 00 D ... : ... .. . ... ... : D-5 01 9 ... ... : A-5 01 9 ... ... : D-5 01 F P81 ...
ROW 49 : ... .. E ... ... ... : ... .. 6 ... ... ... : A-3 00 . ... : ... .. B ... : ... .. . ... ... : ... .. 8 ... ... : ... .. 8 ... ... : ... .. D P82 ...
ROW 4A : ... .. D ... ... ... : ... .. 3 ... ... ... : D-3 00 . ... : ... .. . ... : ... .. . ... ... : ... .. . ... ... : ... .. . ... ... : ... .. 8 P81 ...
ROW 4B : ... .. A ... ... ... : ... .. 1 ... ... ... : C#3 00 . ... : ... .. A ... : ... .. . ... ... : ... .. . ... ... : ... .. . ... ... : ... .. . P80 ...
ROW 4C : ... .. . ... ... ... : ... .. . ... ... ... : G#2 00 . ... : ... .. 8 ... : ... .. . ... ... : ... .. 7 ... ... : ... .. 7 ... ... : ... .. . P7F ...
ROW 4D : ... .. . ... ... ... : ... .. 0 ... ... ... : ... .. . ... : ... .. 7 ... : ... .. . ... ... : ... .. . ... ... : ... .. . ... ... : ... .. . P7E ...
ROW 4E : ... .. . ... ... ... : ... .. . ... ... ... : ... .. . ... : ... .. 6 ... : ... .. . ... ... : --- .. . ... ... : --- .. . ... ... : ... .. . P80 ...
ROW 4F : ... .. . ... ... ... : ... .. . ... ... ... : ... .. . ... : ... .. . ... : ... .. . ... ... : ... .. . ... ... : ... .. . ... ... : ... .. . ... ...
ROW 50 : ... .. . ... ... ... : ... .. . ... ... ... : ... .. . ... : ... .. 5 ... : ... .. . ... ... : ... .. . ... ... : ... .. . ... ... : ... .. . P82 ...
ROW 51 : ... .. . ... ... ... : ... .. . ... ... ... : ... .. . ... : ... .. . ... : ... .. . ... ... : ... .. . ... ... : ... .. . ... ... : ... .. . P81 ...
ROW 52 : ... .. . ... ... ... : ... .. . ... ... ... : ... .. . ... : ... .. 4 ... : ... .. . ... ... : ... .. . ... ... : ... .. . ... ... : ... .. . P80 ...
ROW 53 : ... .. . ... ... ... : ... .. . ... ... ... : ... .. . ... : ... .. . ... : ... .. . ... ... : ... .. . ... ... : ... .. . ... ... : ... .. . P7F ...
ROW 54 : D-2 00 F ... ... ... : ... .. . ... ... ... : ... .. . ... : ... .. 3 ... : ... .. . ... ... : D-5 01 9 ... ... : F#4 01 9 ... ... : D-3 01 F P7E ...
ROW 55 : ... .. E ... ... ... : ... .. . ... ... ... : ... .. . ... : ... .. 2 ... : ... .. . ... ... : ... .. 8 ... ... : ... .. 8 ... ... : ... .. D P7F ...
ROW 56 : ... .. D ... ... ... : ... .. . ... ... ... : ... .. . ... : ... .. . ... : ... .. . ... ... : ... .. . ... ... : ... .. . ... ... : ... .. 8 P80 ...
ROW 57 : ... .. A ... ... ... : ... .. . ... ... ... : ... .. . ... : ... .. 1 ... : ... .. . ... ... : ... .. . ... ... : ... .. . ... ... : ... .. . P82 ...
ROW 58 : ... .. . ... ... ... : ... .. . ... ... ... : ... .. . ... : ... .. 0 ... : ... .. . ... ... : ... .. 7 ... ... : ... .. 7 ... ... : ... .. . ... ...
ROW 59 : ... .. . ... ... ... : ... .. . ... ... ... : ... .. . ... : ... .. . ... : ... .. . ... ... : ... .. . ... ... : ... .. . ... ... : ... .. . P80 ...
ROW 5A : ... .. . ... ... ... : ... .. . ... ... ... : ... .. . ... : ... .. . ... : ... .. . ... ... : ... .. . ... ... : ... .. . ... ... : ... .. . P7F ...
ROW 5B : ... .. . ... ... ... : ... .. . ... ... ... : ... .. . ... : ... .. . ... : ... .. . ... ... : ... .. 6 ... ... : ... .. 6 ... ... : ... .. . P7E ...
ROW 5C : ... .. . ... ... ... : ... .. . ... ... ... : ... .. . ... : ... .. . ... : ... .. . ... ... : ... .. . ... ... : ... .. . ... ... : ... .. . P7F ...
ROW 5D : ... .. 0 ... ... ... : ... .. . ... ... ... : ... .. . ... : ... .. . ... : ... .. . ... ... : --- .. . ... ... : --- .. . ... ... : --- .. . P83 ...
ROW 5E : ... .. . ... ... ... : ... .. . ... ... ... : ... .. . ... : ... .. . ... : ... .. . ... ... : ... .. . ... ... : ... .. . ... ... : ... .. . ... ...
ROW 5F : ... .. . ... ... ... : ... .. . ... ... ... : ... .. . ... : ... .. . ... : ... .. . ... ... : ... .. . ... ... : ... .. . ... ... : ... .. . ... ...
ROW 60 : G-1 00 D P81 ... ... : D-5 00 6 P80 ... ... : F#4 00 . ... : C-# 00 4 ... : ... .. . ... ... : ... .. . ... ... : ... .. . ... ... : ... .. . ... ...
ROW 61 : ... .. B ... ... ... : ... .. 4 ... ... ... : G#3 00 . ... : ... .. 3 ... : ... .. . ... ... : ... .. . ... ... : ... .. . ... ... : ... .. . ... ...
ROW 62 : ... .. . ... ... ... : ... .. 2 ... ... ... : C#3 00 . ... : ... .. 1 ... : ... .. . ... ... : ... .. . ... ... : ... .. . ... ... : ... .. . ... ...
ROW 63 : ... .. A ... ... ... : ... .. 1 ... ... ... : C-3 00 . ... : ... .. . ... : ... .. . ... ... : ... .. . ... ... : ... .. . ... ... : ... .. . ... ...
ROW 64 : ... .. 8 ... ... ... : ... .. . ... ... ... : G-2 00 . ... : ... .. . ... : ... .. . ... ... : ... .. . ... ... : ... .. . ... ... : ... .. . ... ...
ROW 65 : ... .. 7 ... ... ... : ... .. 0 ... ... ... : ... .. . ... : ... .. 0 ... : ... .. . ... ... : ... .. . ... ... : ... .. . ... ... : ... .. . ... ...
ROW 66 : ... .. 6 ... ... ... : D#5 00 6 P80 ... ... : ... .. . ... : ... .. 8 ... : ... .. . ... ... : ... .. . ... ... : ... .. . ... ... : ... .. . ... ...
ROW 67 : ... .. . ... ... ... : ... .. 4 ... ... ... : ... .. . ... : ... .. 6 ... : ... .. . ... ... : ... .. . ... ... : ... .. . ... ... : ... .. . ... ...
ROW 68 : ... .. 5 ... ... ... : ... .. 2 ... ... ... : ... .. . ... : ... .. 3 ... : ... .. . ... ... : ... .. . ... ... : ... .. . ... ... : ... .. . ... ...
ROW 69 : ... .. . ... ... ... : ... .. 1 ... ... ... : ... .. . ... : ... .. 1 ... : ... .. . ... ... : ... .. . ... ... : ... .. . ... ... : ... .. . ... ...
ROW 6A : ... .. 4 ... ... ... : ... .. . ... ... ... : ... .. . ... : ... .. . ... : ... .. . ... ... : ... .. . ... ... : ... .. . ... ... : ... .. . ... ...
ROW 6B : ... .. . ... ... ... : ... .. 0 ... ... ... : ... .. . ... : ... .. 0 ... : ... .. . ... ... : ... .. . ... ... : ... .. . ... ... : ... .. . ... ...
ROW 6C : D-2 00 D ... ... ... : D-5 00 6 P80 ... ... : ... .. . ... : ... .. F ... : ... .. . ... ... : D-3 01 9 ... ... : A#3 01 9 ... ... : D-4 01 F ... ...
ROW 6D : ... .. B ... ... ... : ... .. 4 ... ... ... : ... .. . ... : ... .. C ... : ... .. . ... ... : ... .. 8 ... ... : ... .. 8 ... ... : ... .. D P82 ...
ROW 6E : ... .. . ... ... ... : ... .. 2 ... ... ... : ... .. . ... : ... .. 6 ... : ... .. . ... ... : ... .. . ... ... : ... .. . ... ... : ... .. 8 P80 ...
ROW 6F : ... .. 0 ... ... ... : ... .. 1 ... ... ... : ... .. . ... : ... .. 3 ... : ... .. . ... ... : ... .. . ... ... : ... .. . ... ... : ... .. . P7D ...
ROW 70 : ... .. . ... ... ... : ... .. . ... ... ... : ... .. . ... : ... .. 2 ... : ... .. . ... ... : ... .. 7 ... ... : ... .. 7 ... ... : ... .. . ... ...
ROW 71 : ... .. . ... ... ... : ... .. 0 ... ... ... : ... .. . ... : ... .. 0 ... : ... .. . ... ... : ... .. . ... ... : ... .. . ... ... : ... .. . P80 ...
ROW 72 : D-2 00 D P81 ... ... : D#5 00 6 P80 ... ... : --- .. . ... : ... .. 4 ... : ... .. . ... ... : --- .. . P82 ... : --- .. . ... ... : --- .. . ... ...
ROW 73 : ... .. B ... ... ... : ... .. 4 ... ... ... : ... .. . ... : ... .. 3 ... : ... .. . ... ... : ... .. . ... ... : ... .. . ... ... : ... .. . ... ...
ROW 74 : ... .. . ... ... ... : ... .. 2 ... ... ... : ... .. . ... : ... .. 1 ... : ... .. . ... ... : ... .. . ... ... : ... .. . ... ... : ... .. . ... ...
ROW 75 : ... .. 0 ... ... ... : ... .. 1 ... ... ... : ... .. . ... : ... .. . ... : ... .. . ... ... : ... .. . ... ... : ... .. . ... ... : ... .. . ... ...
ROW 76 : ... .. . ... ... ... : ... .. . ... ... ... : ... .. . ... : ... .. . ... : ... .. . ... ... : ... .. . ... ... : ... .. . ... ... : ... .. . ... ...
ROW 77 : ... .. . ... ... ... : ... .. 0 ... ... ... : ... .. . ... : ... .. 0 ... : ... .. . ... ... : ... .. . ... ... : ... .. . ... ... : ... .. . ... ...
ROW 78 : C#2 00 D P81 ... ... : D-5 00 6 P80 ... ... : C#4 00 . ... : ... .. 2 ... : ... .. . ... ... : ... .. . ... ... : ... .. . ... ... : C#4 01 F P81 ...
ROW 79 : ... .. B ... ... ... : ... .. 4 ... ... ... : D#3 00 . ... : ... .. 1 ... : ... .. . ... ... : ... .. . ... ... : ... .. . ... ... : ... .. D P83 ...
ROW 7A : ... .. . ... ... ... : ... .. 2 ... ... ... : G#2 00 . ... : ... .. . ... : ... .. . ... ... : ... .. . ... ... : ... .. . ... ... : ... .. 8 P82 ...
ROW 7B : ... .. A ... ... ... : ... .. 1 ... ... ... : G-2 00 . ... : ... .. . ... : ... .. . ... ... : ... .. . ... ... : ... .. . ... ... : ... .. . P7F ...
ROW 7C : ... .. 8 ... ... ... : ... .. . ... ... ... : D-2 00 . ... : ... .. . ... : ... .. . ... ... : ... .. . ... ... : ... .. . ... ... : ... .. . P7D ...
ROW 7D : ... .. 7 ... ... ... : ... .. 0 ... ... ... : ... .. . ... : ... .. 0 ... : ... .. . ... ... : ... .. . ... ... : ... .. . ... ... : ... .. . P7E ...
ROW 7E : ... .. D ... ... ... : D#5 00 6 P80 ... ... : ... .. . ... : ... .. 4 ... : ... .. . ... ... : ... .. . ... ... : ... .. . ... ... : ... .. . P80 ...
ROW 7F : ... .. B ... ... ... : ... .. 4 ... ... ... : ... .. . ... : ... .. 3 ... : ... .. . ... ... : ... .. . ... ... : ... .. . ... ... : ... .. . P83 ...
ROW 80 : ... .. . ... ... ... : ... .. 2 ... ... ... : ... .. . ... : ... .. 1 ... : ... .. . ... ... : ... .. . ... ... : ... .. . ... ... : ... .. . ... ...
ROW 81 : ... .. A ... ... ... : ... .. 1 ... ... ... : ... .. . ... : ... .. . ... : ... .. . ... ... : ... .. . ... ... : ... .. . ... ... : ... .. . P80 ...
ROW 82 : ... .. 8 ... ... ... : ... .. . ... ... ... : ... .. . ... : ... .. . ... : ... .. . ... ... : ... .. . ... ... : ... .. . ... ... : ... .. . P7D ...
ROW 83 : ... .. 7 ... ... ... : ... .. 0 ... ... ... : ... .. . ... : ... .. 0 ... : ... .. . ... ... : ... .. . ... ... : ... .. . ... ... : ... .. . ... ...
ROW 84 : D-2 00 D ... ... ... : D-5 00 6 P80 ... ... : ... .. . ... : ... .. F ... : ... .. . ... ... : C#3 01 9 P80 ... : A#3 01 9 ... ... : D-4 01 F P80 ...
ROW 85 : ... .. B ... ... ... : ... .. 4 ... ... ... : ... .. . ... : ... .. C ... : ... .. . ... ... : ... .. 8 ... ... : ... .. 8 ... ... : ... .. D P82 ...
ROW 86 : ... .. . ... ... ... : ... .. 2 ... ... ... : ... .. . ... : ... .. 6 ... : ... .. . ... ... : ... .. . ... ... : ... .. . ... ... : ... .. 8 P83 ...
ROW 87 : ... .. 0 ... ... ... : ... .. 1 ... ... ... : ... .. . ... : ... .. 3 ... : ... .. . ... ... : ... .. . ... ... : ... .. . ... ... : ... .. . P81 ...
ROW 88 : ... .. . ... ... ... : ... .. . ... ... ... : ... .. . ... : ... .. 2 ... : ... .. . ... ... : ... .. 7 ... ... : ... .. 7 ... ... : ... .. . P7F ...
ROW 89 : ... .. . ... ... ... : ... .. 0 ... ... ... : ... .. . ... : ... .. 0 ... : ... .. . ... ... : ... .. . ... ... : ... .. . ... ... : ... .. . P7D ...
ROW 8A : D-2 00 D P81 ... ... : D#5 00 6 P80 ... ... : --- .. . ... : ... .. F ... : ... .. . ... ... : --- .. . P83 ... : --- .. . ... ... : --- .. . ... ...
ROW 8B : ... .. B ... ... ... : ... .. 4 ... ... ... : ... .. . ... : ... .. C ... : ... .. . ... ... : ... .. . ... ... : ... .. . ... ... : ... .. . ... ...
ROW 8C : ... .. . ... ... ... : ... .. 2 ... ... ... : ... .. . ... : ... .. 6 ... : ... .. . ... ... : ... .. . ... ... : ... .. . ... ... : ... .. . ... ...
ROW 8D : ... .. 0 ... ... ... : ... .. 1 ... ... ... : ... .. . ... : ... .. 3 ... : ... .. . ... ... : ... .. . ... ... : ... .. . ... ... : ... .. . ... ...
ROW 8E : ... .. . ... ... ... : ... .. . ... ... ... : ... .. . ... : ... .. 2 ... : ... .. . ... ... : ... .. . ... ... : ... .. . ... ... : ... .. . ... ...
ROW 8F : ... .. . ... ... ... : ... .. 0 ... ... ... : ... .. . ... : ... .. 0 ... : ... .. . ... ... : ... .. . ... ... : ... .. . ... ... : ... .. . ... ...
ROW 90 : A#1 00 D P81 ... ... : D-5 00 6 P80 ... ... : A-4 00 . ... : ... .. 2 ... : ... .. . ... ... : ... .. . ... ... : ... .. . ... ... : D#4 01 F ... ...
ROW 91 : ... .. B ... ... ... : ... .. 4 ... ... ... : B-3 00 . ... : ... .. 1 ... : ... .. . ... ... : ... .. . ... ... : ... .. . ... ... : ... .. D P80 ...
ROW 92 : ... .. . ... ... ... : ... .. 2 ... ... ... : E-3 00 . ... : ... .. . ... : ... .. . ... ... : ... .. . ... ... : ... .. . ... ... : ... .. 8 P83 ...
ROW 93 : ... .. A ... ... ... : ... .. 1 ... ... ... : D#3 00 . ... : ... .. . ... : ... .. . ... ... : ... .. . ... ... : ... .. . ... ... : ... .. . ... ...
ROW 94 : ... .. 8 ... ... ... : ... .. . ... ... ... : A#2 00 . ... : ... .. . ... : ... .. . ... ... : ... .. . ... ... : ... .. . ... ... : ... .. . P80 ...
ROW 95 : ... .. 7 ... ... ... : ... .. 0 ... ... ... : ... .. . ... : ... .. 0 ... : ... .. . ... ... : ... .. . ... ... : ... .. . ... ... : ... .. . P7E ...
ROW 96 : ... .. D ... ... ... : D#5 00 6 P80 ... ... : ... .. . ... : ... .. 4 ... : ... .. . ... ... : ... .. . ... ... : ... .. . ... ... : ... .. . P7D ...
ROW 97 : ... .. B ... ... ... : ... .. 4 ... ... ... : ... .. . ... : ... .. 3 ... : ... .. . ... ... : ... .. . ... ... : ... .. . ... ... : ... .. . P7F ...
ROW 98 : ... .. . ... ... ... : ... .. 2 ... ... ... : ... .. . ... : ... .. 1 ... : ... .. . ... ... : ... .. . ... ... : ... .. . ... ... : ... .. . P81 ...
ROW 99 : ... .. A ... ... ... : ... .. 1 ... ... ... : ... .. . ... : ... .. . ... : ... .. . ... ... : ... .. . ... ... : ... .. . ... ... : ... .. . P83 ...
ROW 9A : ... .. 8 ... ... ... : ... .. . ... ... ... : ... .. . ... : ... .. . ... : ... .. . ... ... : ... .. . ... ... : ... .. . ... ... : ... .. . P82 ...
ROW 9B : ... .. 7 ... ... ... : ... .. 0 ... ... ... : ... .. . ... : ... .. 0 ... : ... .. . ... ... : ... .. . ... ... : ... .. . ... ... : ... .. . P7F ...
ROW 9C : C#2 00 D ... ... ... : E-5 00 6 P80 ... ... : ... .. . ... : ... .. F ... : ... .. . ... ... : D-3 01 9 P80 ... : A#3 01 9 ... ... : D-4 01 F P7D ...
ROW 9D : ... .. B ... ... ... : ... .. 4 ... ... ... : ... .. . ... : ... .. C ... : ... .. . ... ... : ... .. 8 ... ... : ... .. 8 ... ... : ... .. D P7E ...
ROW 9E : ... .. . ... ... ... : ... .. 2 ... ... ... : ... .. . ... : ... .. 6 ... : ... .. . ... ... : ... .. . ... ... : ... .. . ... ... : ... .. 8 P80 ...
ROW 9F : ... .. 0 ... ... ... : ... .. 1 ... ... ... : ... .. . ... : ... .. 3 ... : ... .. . ... ... : ... .. . ... ... : ... .. . ... ... : ... .. . P83 ...
ROW A0 : ... .. . ... ... ... : ... .. . ... ... ... : ... .. . ... : ... .. 2 ... : ... .. . ... ... : ... .. 7 ... ... : ... .. 7 ... ... : ... .. . ... ...
ROW A1 : ... .. . ... ... ... : ... .. 0 ... ... ... : ... .. . ... : ... .. 0 ... : ... .. . ... ... : ... .. . ... ... : ... .. . ... ... : ... .. . P80 ...
ROW A2 : C#2 00 D P81 ... ... : F-5 00 6 P80 ... ... : --- .. . ... : ... .. F ... : ... .. . ... ... : --- .. . P82 ... : --- .. . ... ... : --- .. . ... ...
ROW A3 : ... .. B ... ... ... : ... .. 4 ... ... ... : ... .. . ... : ... .. C ... : ... .. . ... ... : ... .. . ... ... : ... .. . ... ... : ... .. . ... ...
ROW A4 : ... .. . ... ... ... : ... .. 2 ... ... ... : ... .. . ... : ... .. 6 ... : ... .. . ... ... : ... .. . ... ... : ... .. . ... ... : ... .. . ... ...
ROW A5 : ... .. 0 ... ... ... : ... .. 1 ... ... ... : ... .. . ... : ... .. 3 ... : ... .. . ... ... : ... .. . ... ... : ... .. . ... ... : ... .. . ... ...
ROW A6 : ... .. . ... ... ... : ... .. . ... ... ... : ... .. . ... : ... .. 2 ... : ... .. . ... ... : ... .. . ... ... : ... .. . ... ... : ... .. . ... ...
ROW A7 : ... .. . ... ... ... : ... .. 0 ... ... ... : ... .. . ... : ... .. 0 ... : ... .. . ... ... : ... .. . ... ... : ... .. . ... ... : ... .. . ... ...
ROW A8 : A-1 00 D P81 ... ... : F#5 00 6 P80 ... ... : G#4 00 . ... : ... .. 4 ... : ... .. . ... ... : ... .. . ... ... : ... .. . ... ... : C#4 01 F P7F ...
ROW A9 : ... .. B ... ... ... : ... .. 4 ... ... ... : A#3 00 . ... : ... .. 3 ... : ... .. . ... ... : ... .. . ... ... : ... .. . ... ... : ... .. D P7D ...
ROW AA : ... .. . ... ... ... : ... .. 2 ... ... ... : D#3 00 . ... : ... .. 1 ... : ... .. . ... ... : ... .. . ... ... : ... .. . ... ... : ... .. 8 P7E ...
ROW AB : ... .. A ... ... ... : ... .. 1 ... ... ... : D-3 00 . ... : ... .. . ... : ... .. . ... ... : ... .. . ... ... : ... .. . ... ... : ... .. . P81 ...
ROW AC : ... .. 8 ... ... ... : ... .. . ... ... ... : A-2 00 . ... : ... .. . ... : ... .. . ... ... : ... .. . ... ... : ... .. . ... ... : ... .. . P83 ...
ROW AD : ... .. 7 ... ... ... : ... .. 0 ... ... ... : ... .. . ... : ... .. 0 ... : ... .. . ... ... : ... .. . ... ... : ... .. . ... ... : ... .. . P82 ...
ROW AE : ... .. D ... ... ... : F-5 00 6 P80 ... ... : ... .. . ... : ... .. 8 ... : ... .. . ... ... : ... .. . ... ... : ... .. . ... ... : ... .. . P80 ...
ROW AF : ... .. B ... ... ... : ... .. 4 ... ... ... : ... .. . ... : ... .. 6 ... : ... .. . ... ... : ... .. . ... ... : ... .. . ... ... : ... .. . P7D ...
ROW B0 : ... .. . ... ... ... : ... .. 2 ... ... ... : ... .. . ... : ... .. 3 ... : ... .. . ... ... : ... .. . ... ... : ... .. . ... ... : ... .. . ... ...
ROW B1 : ... .. A ... ... ... : ... .. 1 ... ... ... : ... .. . ... : ... .. 1 ... : ... .. . ... ... : ... .. . ... ... : ... .. . ... ... : ... .. . P80 ...
ROW B2 : ... .. 8 ... ... ... : ... .. . ... ... ... : ... .. . ... : ... .. . ... : ... .. . ... ... : ... .. . ... ... : ... .. . ... ... : ... .. . P83 ...
ROW B3 : ... .. 7 ... ... ... : ... .. 0 ... ... ... : ... .. . ... : ... .. 0 ... : ... .. . ... ... : ... .. . ... ... : ... .. . ... ... : ... .. . ... ...
ROW B4 : C#2 00 D ... ... ... : E-5 00 6 P80 ... ... : ... .. . ... : ... .. F ... : ... .. . ... ... : C#3 01 9 P80 ... : A-3 01 9 ... ... : D-4 01 F P80 ...
ROW B5 : ... .. B ... ... ... : ... .. 4 ... ... ... : ... .. . ... : ... .. C ... : ... .. . ... ... : ... .. 8 ... ... : ... .. 8 ... ... : ... .. D P7E ...
ROW B6 : ... .. . ... ... ... : ... .. 2 ... ... ... : ... .. . ... : ... .. 6 ... : ... .. . ... ... : ... .. . ... ... : ... .. . ... ... : ... .. 8 P7D ...
ROW B7 : ... .. 0 ... ... ... : ... .. 1 ... ... ... : ... .. . ... : ... .. 3 ... : ... .. . ... ... : ... .. . ... ... : ... .. . ... ... : ... .. . P7F ...
ROW B8 : ... .. . ... ... ... : ... .. . ... ... ... : ... .. . ... : ... .. 2 ... : ... .. . ... ... : ... .. 7 ... ... : ... .. 7 ... ... : ... .. . P81 ...
ROW B9 : ... .. . ... ... ... : ... .. 0 ... ... ... : ... .. . ... : ... .. 0 ... : ... .. . ... ... : ... .. . ... ... : ... .. . ... ... : ... .. . P83 ...
ROW BA : D-2 00 D P81 ... ... : D#5 00 6 P80 ... ... : --- .. . ... : ... .. 2 ... : ... .. . ... ... : --- .. . P83 ... : --- .. . ... ... : ... .. . P82 ...
ROW BB : ... .. B ... ... ... : ... .. 4 ... ... ... : ... .. . ... : ... .. 1 ... : ... .. . ... ... : ... .. . ... ... : ... .. . ... ... : ... .. . P7F ...
ROW BC : ... .. . ... ... ... : ... .. 2 ... ... ... : ... .. . ... : ... .. . ... : ... .. . ... ... : ... .. . ... ... : ... .. . ... ... : ... .. . P7D ...
ROW BD : ... .. 0 ... ... ... : ... .. 1 ... ... ... : ... .. . ... : ... .. . ... : ... .. . ... ... : ... .. . ... ... : ... .. . ... ... : ... .. . P7E ...
ROW BE : ... .. . ... ... ... : ... .. . ... ... ... : ... .. . ... : ... .. . ... : ... .. . ... ... : ... .. . ... ... : ... .. . ... ... : ... .. . P80 ...
ROW BF : ... .. . ... ... ... : ... .. 0 ... ... ... : ... .. . ... : ... .. 0 ... : ... .. . ... ... : ... .. . ... ... : ... .. . ... ... : ... .. . P83 ...
ROW C0 : G-1 00 F P81 ... ... : D-5 00 6 P80 ... ... : F#4 00 . ... : ... .. 4 ... : ... .. . ... ... : G-2 01 9 P80 ... : ... .. . ... ... : --- .. . ... ...
ROW C1 : ... .. E ... ... ... : ... .. 4 ... ... ... : G#3 00 . ... : ... .. 3 ... : ... .. . ... ... : ... .. 8 ... ... : ... .. . ... ... : ... .. . ... ...
ROW C2 : ... .. D ... ... ... : ... .. 2 ... ... ... : C#3 00 . ... : ... .. 1 ... : ... .. . ... ... : ... .. . ... ... : ... .. . ... ... : ... .. . ... ...
ROW C3 : ... .. A ... ... ... : ... .. 1 ... ... ... : --- .. . ... : ... .. . ... : ... .. . ... ... : ... .. . ... ... : ... .. . ... ... : ... .. . ... ...
ROW C4 : ... .. . ... ... ... : ... .. . ... ... ... : ... .. . ... : ... .. . ... : ... .. . ... ... : ... .. 7 ... ... : ... .. . ... ... : ... .. . ... ...
ROW C5 : ... .. . ... ... ... : ... .. 0 ... ... ... : ... .. . ... : ... .. 0 ... : ... .. . ... ... : ... .. . ... ... : ... .. . ... ... : ... .. . ... ...
ROW C6 : F#1 00 F ... ... ... : D#5 00 6 P80 ... ... : F#2 00 . ... : ... .. 8 ... : ... .. . ... ... : F#2 01 9 ... ... : ... .. . ... ... : ... .. . ... ...
ROW C7 : ... .. E ... ... ... : ... .. 4 ... ... ... : ... .. . ... : ... .. 6 ... : ... .. . ... ... : ... .. 8 ... ... : ... .. . ... ... : ... .. . ... ...
ROW C8 : ... .. D ... ... ... : ... .. 2 ... ... ... : ... .. . ... : ... .. 3 ... : ... .. . ... ... : ... .. . ... ... : ... .. . ... ... : ... .. . ... ...
ROW C9 : ... .. A ... ... ... : ... .. 1 ... ... ... : --- .. . ... : ... .. 1 ... : ... .. . ... ... : ... .. . ... ... : ... .. . ... ... : ... .. . ... ...
ROW CA : ... .. . ... ... ... : ... .. . ... ... ... : ... .. . ... : ... .. . ... : ... .. . ... ... : ... .. 7 ... ... : ... .. . ... ... : ... .. . ... ...
ROW CB : ... .. . ... ... ... : ... .. 0 ... ... ... : ... .. . ... : ... .. 0 ... : ... .. . ... ... : ... .. . ... ... : ... .. . ... ... : ... .. . ... ...
ROW CC : G-1 00 F ... ... ... : D-5 00 6 P80 ... ... : G-2 00 . ... : ... .. F ... : ... .. . ... ... : G-2 01 9 ... ... : G-3 01 9 ... ... : G-2 01 F P88 ...
ROW CD : ... .. E ... ... ... : ... .. 4 ... ... ... : ... .. . ... : ... .. C ... : ... .. . ... ... : ... .. 8 ... ... : ... .. 8 ... ... : ... .. D P87 ...
ROW CE : ... .. D ... ... ... : ... .. 2 ... ... ... : ... .. . ... : ... .. 6 ... : ... .. . ... ... : ... .. . ... ... : ... .. . ... ... : ... .. 8 P85 ...
ROW CF : ... .. A ... ... ... : ... .. 1 ... ... ... : --- .. . ... : ... .. 3 ... : ... .. . ... ... : ... .. . ... ... : ... .. . ... ... : ... .. . P82 ...
ROW D0 : ... .. . ... ... ... : ... .. . ... ... ... : ... .. . ... : ... .. 2 ... : ... .. . ... ... : ... .. 7 ... ... : ... .. 7 ... ... : ... .. . ... ...
ROW D1 : ... .. . ... ... ... : ... .. 0 ... ... ... : ... .. . ... : ... .. 0 ... : ... .. . ... ... : ... .. . ... ... : ... .. . ... ... : ... .. . P85 ...
ROW D2 : A-1 00 F ... ... ... : D#5 00 6 P80 ... ... : A-2 00 . ... : ... .. 4 ... : ... .. . ... ... : A-2 01 9 ... ... : --- .. . P81 ... : ... .. . P88 ...
ROW D3 : ... .. E ... ... ... : ... .. 4 ... ... ... : ... .. . ... : ... .. 3 ... : ... .. . ... ... : ... .. 8 ... ... : ... .. . ... ... : ... .. 4 ... ...
ROW D4 : ... .. D ... ... ... : ... .. 2 ... ... ... : ... .. . ... : ... .. 1 ... : ... .. . ... ... : ... .. . ... ... : ... .. . ... ... : ... .. . P85 ...
ROW D5 : ... .. A ... ... ... : ... .. 1 ... ... ... : --- .. . ... : ... .. . ... : ... .. . ... ... : ... .. . ... ... : ... .. . ... ... : ... .. 1 P83 ...
ROW D6 : ... .. . ... ... ... : ... .. . ... ... ... : ... .. . ... : ... .. . ... : ... .. . ... ... : ... .. 7 ... ... : ... .. . ... ... : ... .. . P82 ...
ROW D7 : ... .. . ... ... ... : ... .. 0 ... ... ... : ... .. . ... : ... .. 0 ... : ... .. . ... ... : ... .. . ... ... : ... .. . ... ... : ... .. . P84 ...
ROW D8 : A#1 00 F ... ... ... : D-5 00 6 P80 ... ... : A-4 00 . ... : ... .. 2 ... : ... .. . ... ... : A#2 01 9 ... ... : A#3 01 9 P80 ... : A#2 01 F P86 ...
ROW D9 : ... .. E ... ... ... : ... .. 4 ... ... ... : B-3 00 . ... : ... .. 1 ... : ... .. . ... ... : ... .. 8 ... ... : ... .. 8 ... ... : ... .. D P88 ...
ROW DA : ... .. D ... ... ... : ... .. 2 ... ... ... : E-3 00 . ... : ... .. . ... : ... .. . ... ... : ... .. . ... ... : ... .. . ... ... : ... .. 8 P87 ...
ROW DB : ... .. A ... ... ... : ... .. 1 ... ... ... : D#3 00 . ... : ... .. . ... : ... .. . ... ... : ... .. . ... ... : ... .. . ... ... : ... .. . P84 ...
ROW DC : ... .. . ... ... ... : ... .. . ... ... ... : A#2 00 . ... : ... .. . ... : ... .. . ... ... : ... .. 7 ... ... : ... .. 7 ... ... : ... .. . P82 ...
ROW DD : ... .. . ... ... ... : ... .. 0 ... ... ... : ... .. . ... : ... .. 0 ... : ... .. . ... ... : ... .. . ... ... : ... .. . ... ... : ... .. . P83 ...
ROW DE : ... .. 0 ... ... ... : D#5 00 6 P80 ... ... : ... .. . ... : ... .. 4 ... : ... .. . ... ... : --- .. . P82 ... : ... .. . ... ... : ... .. . P85 ...
ROW DF : ... .. . ... ... ... : ... .. 4 ... ... ... : ... .. . ... : ... .. 3 ... : ... .. . ... ... : ... .. . ... ... : ... .. 6 ... ... : ... .. 4 P88 ...
ROW E0 : ... .. . ... ... ... : ... .. 2 ... ... ... : ... .. . ... : ... .. 1 ... : ... .. . ... ... : ... .. . ... ... : ... .. . ... ... : ... .. . ... ...
ROW E1 : ... .. . ... ... ... : ... .. 1 ... ... ... : --- .. . ... : ... .. . ... : ... .. . ... ... : ... .. . ... ... : ... .. . ... ... : ... .. 1 P85 ...
ROW E2 : ... .. . ... ... ... : ... .. . ... ... ... : ... .. . ... : ... .. . ... : ... .. . ... ... : ... .. . ... ... : ... .. . ... ... : ... .. . P82 ...
ROW E3 : ... .. . ... ... ... : ... .. 0 ... ... ... : ... .. . ... : ... .. 0 ... : ... .. . ... ... : ... .. . ... ... : ... .. . ... ... : ... .. . ... ...
ROW E4 : D-1 00 F P81 ... ... : D-5 00 6 P80 ... ... : C#4 00 . ... : ... .. F ... : ... .. . ... ... : D-2 01 9 P80 ... : D-3 01 9 ... ... : D-2 01 F P85 ...
ROW E5 : ... .. E ... ... ... : ... .. 4 ... ... ... : D#3 00 . ... : ... .. C ... : ... .. . ... ... : ... .. 8 ... ... : ... .. 8 ... ... : ... .. D P87 ...
ROW E6 : ... .. D ... ... ... : ... .. 2 ... ... ... : G#2 00 . ... : ... .. 6 ... : ... .. . ... ... : ... .. . ... ... : ... .. . ... ... : ... .. 8 P88 ...
ROW E7 : ... .. A ... ... ... : ... .. 1 ... ... ... : G-2 00 . ... : ... .. 3 ... : ... .. . ... ... : ... .. . ... ... : ... .. . ... ... : ... .. . P86 ...
ROW E8 : ... .. . ... ... ... : ... .. . ... ... ... : D-2 00 . ... : ... .. 2 ... : ... .. . ... ... : ... .. 7 ... ... : ... .. 7 ... ... : ... .. . P84 ...
ROW E9 : ... .. . ... ... ... : ... .. 0 ... ... ... : ... .. . ... : ... .. 0 ... : ... .. . ... ... : ... .. . ... ... : ... .. . ... ... : ... .. . P82 ...
ROW EA : ... .. 0 ... ... ... : D#5 00 6 P80 ... ... : ... .. . ... : ... .. F ... : ... .. . ... ... : --- .. . P84 ... : --- .. . P82 ... : ... .. . P83 ...
ROW EB : ... .. . ... ... ... : ... .. 4 ... ... ... : ... .. . ... : ... .. C ... : ... .. . ... ... : ... .. . ... ... : ... .. . ... ... : ... .. . P86 ...
ROW EC : ... .. . ... ... ... : ... .. 2 ... ... ... : ... .. . ... : ... .. 6 ... : ... .. . ... ... : ... .. . ... ... : ... .. . ... ... : ... .. . P88 ...
ROW ED : ... .. . ... ... ... : ... .. 1 ... ... ... : --- .. . ... : ... .. 3 ... : ... .. . ... ... : ... .. . ... ... : ... .. . ... ... : ... .. . P87 ...
ROW EE : ... .. . ... ... ... : ... .. . ... ... ... : ... .. . ... : ... .. 2 ... : ... .. . ... ... : ... .. . ... ... : ... .. . ... ... : ... .. . P85 ...
ROW EF : ... .. . ... ... ... : ... .. 0 ... ... ... : ... .. . ... : ... .. 0 ... : ... .. . ... ... : ... .. . ... ... : ... .. . ... ... : ... .. . P82 ...
ROW F0 : A#1 00 F P81 ... ... : D-5 00 6 P80 ... ... : F#4 00 . ... : ... .. 2 ... : ... .. . ... ... : A#2 01 9 P80 ... : ... .. . ... ... : ... .. . ... ...
ROW F1 : ... .. E ... ... ... : ... .. 4 ... ... ... : G#3 00 . ... : ... .. 1 ... : ... .. . ... ... : ... .. 8 ... ... : ... .. . ... ... : ... .. 4 P85 ...
ROW F2 : ... .. D ... ... ... : ... .. 2 ... ... ... : C#3 00 . ... : ... .. . ... : ... .. . ... ... : ... .. . ... ... : ... .. . ... ... : ... .. . P88 ...
ROW F3 : ... .. A ... ... ... : ... .. 1 ... ... ... : --- .. . ... : ... .. . ... : ... .. . ... ... : ... .. . ... ... : ... .. . ... ... : ... .. 1 ... ...
ROW F4 : ... .. . ... ... ... : ... .. . ... ... ... : ... .. . ... : ... .. . ... : ... .. . ... ... : ... .. 7 ... ... : ... .. . ... ... : ... .. . P85 ...
ROW F5 : ... .. . ... ... ... : ... .. 0 ... ... ... : ... .. . ... : ... .. 0 ... : ... .. . ... ... : ... .. . ... ... : ... .. . ... ... : ... .. . P83 ...
ROW F6 : A-1 00 F ... ... ... : C#5 00 6 P80 ... ... : F#2 00 . ... : ... .. 4 ... : ... .. . ... ... : A-2 01 9 ... ... : ... .. . ... ... : ... .. . P82 ...
ROW F7 : ... .. E ... ... ... : ... .. 4 ... ... ... : ... .. . ... : ... .. 3 ... : ... .. . ... ... : ... .. 8 ... ... : ... .. . ... ... : ... .. . P84 ...
ROW F8 : ... .. D ... ... ... : ... .. 2 ... ... ... : ... .. . ... : ... .. 1 ... : ... .. . ... ... : ... .. . ... ... : ... .. . ... ... : ... .. . P86 ...
ROW F9 : ... .. A ... ... ... : ... .. 1 ... ... ... : --- .. . ... : ... .. . ... : ... .. . ... ... : ... .. . ... ... : ... .. . ... ... : ... .. . P88 ...
ROW FA : ... .. . ... ... ... : ... .. . ... ... ... : ... .. . ... : ... .. . ... : ... .. . ... ... : ... .. 7 ... ... : ... .. . ... ... : ... .. 0 P87 ...
ROW FB : ... .. . ... ... ... : ... .. 0 ... ... ... : ... .. . ... : ... .. 0 ... : ... .. . ... ... : ... .. . ... ... : ... .. . ... ... : ... .. . P84 ...
ROW FC : G-1 00 F ... ... ... : C-5 00 6 P80 ... ... : G-2 00 . ... : ... .. F ... : ... .. . ... ... : G-2 01 9 ... ... : G-3 01 9 P80 ... : G-2 01 F P82 ...
ROW FD : ... .. E ... ... ... : ... .. 4 ... ... ... : ... .. . ... : ... .. C ... : ... .. . ... ... : ... .. 8 ... ... : ... .. 8 ... ... : ... .. D P83 ...
ROW FE : ... .. D ... ... ... : ... .. 2 ... ... ... : ... .. . ... : ... .. 6 ... : ... .. . ... ... : ... .. . ... ... : ... .. . ... ... : ... .. 8 P85 ...
ROW FF : ... .. A ... ... ... : ... .. 1 ... ... ... : --- .. . ... : ... .. 3 ... : ... .. . ... ... : ... .. . ... ... : ... .. . ... ... : ... .. . P88 ...

PATTERN 13
ROW 00 : ... .. . ... ... ... : ... .. . ... ... ... : ... .. . ... : ... .. 2 ... : ... .. . ... ... : ... .. 7 ... ... : ... .. 7 ... ... : ... .. . ... ...
ROW 01 : ... .. . ... ... ... : ... .. 0 ... ... ... : ... .. . ... : ... .. 0 ... : ... .. . ... ... : ... .. . ... ... : ... .. . ... ... : ... .. . P85 ...
ROW 02 : A-1 00 F ... ... ... : B-4 00 6 P80 ... ... : A-2 00 . ... : ... .. F ... : ... .. . ... ... : A-2 01 9 ... ... : --- .. . P81 ... : ... .. . P82 ...
ROW 03 : ... .. E ... ... ... : ... .. 4 ... ... ... : ... .. . ... : ... .. C ... : ... .. . ... ... : ... .. 8 ... ... : ... .. . ... ... : ... .. 4 ... ...
ROW 04 : ... .. D ... ... ... : ... .. 2 ... ... ... : ... .. . ... : ... .. 6 ... : ... .. . ... ... : ... .. . ... ... : ... .. . ... ... : ... .. . P85 ...
ROW 05 : ... .. A ... ... ... : ... .. 1 ... ... ... : --- .. . ... : ... .. 3 ... : ... .. . ... ... : ... .. . ... ... : ... .. . ... ... : ... .. 1 P87 ...
ROW 06 : ... .. . ... ... ... : ... .. . ... ... ... : ... .. . ... : ... .. 2 ... : ... .. . ... ... : ... .. 7 ... ... : ... .. . ... ... : ... .. . P88 ...
ROW 07 : ... .. . ... ... ... : ... .. 0 ... ... ... : ... .. . ... : ... .. 0 ... : ... .. . ... ... : ... .. . ... ... : ... .. . ... ... : ... .. . P86 ...
ROW 08 : A#1 00 F ... ... ... : A#4 00 6 P80 ... ... : A-4 00 . ... : ... .. 4 ... : ... .. . ... ... : A#2 01 9 ... ... : A#3 01 9 P80 ... : A#2 01 F P84 ...
ROW 09 : ... .. E ... ... ... : ... .. 4 ... ... ... : B-3 00 . ... : ... .. 3 ... : ... .. . ... ... : ... .. 8 ... ... : ... .. 8 ... ... : ... .. D P82 ...
ROW 0A : ... .. D ... ... ... : ... .. 2 ... ... ... : E-3 00 . ... : ... .. 1 ... : ... .. . ... ... : ... .. . ... ... : ... .. . ... ... : ... .. 8 P83 ...
ROW 0B : ... .. A ... ... ... : ... .. 1 ... ... ... : D#3 00 . ... : ... .. . ... : ... .. . ... ... : ... .. . ... ... : ... .. . ... ... : ... .. . P86 ...
ROW 0C : ... .. . ... ... ... : ... .. . ... ... ... : A#2 00 . ... : ... .. . ... : ... .. . ... ... : ... .. 7 ... ... : ... .. 7 ... ... : ... .. . P88 ...
ROW 0D : ... .. . ... ... ... : ... .. 0 ... ... ... : ... .. . ... : ... .. 0 ... : ... .. . ... ... : ... .. . ... ... : ... .. . ... ... : ... .. . P87 ...
ROW 0E : ... .. 0 ... ... ... : B-4 00 6 P80 ... ... : ... .. . ... : ... .. 8 ... : ... .. . ... ... : --- .. . P82 ... : ... .. . ... ... : ... .. . P85 ...
ROW 0F : ... .. . ... ... ... : ... .. 4 ... ... ... : ... .. . ... : ... .. 6 ... : ... .. . ... ... : ... .. . ... ... : ... .. 6 ... ... : ... .. 4 P82 ...
ROW 10 : ... .. . ... ... ... : ... .. 2 ... ... ... : ... .. . ... : ... .. 3 ... : ... .. . ... ... : ... .. . ... ... : ... .. . ... ... : ... .. . ... ...
ROW 11 : ... .. . ... ... ... : ... .. 1 ... ... ... : --- .. . ... : ... .. 1 ... : ... .. . ... ... : ... .. . ... ... : ... .. . ... ... : ... .. 1 P85 ...
ROW 12 : ... .. . ... ... ... : ... .. . ... ... ... : ... .. . ... : ... .. . ... : ... .. . ... ... : ... .. . ... ... : ... .. . ... ... : ... .. . P88 ...
ROW 13 : ... .. . ... ... ... : ... .. 0 ... ... ... : ... .. . ... : ... .. 0 ... : ... .. . ... ... : ... .. . ... ... : ... .. . ... ... : ... .. . ... ...
ROW 14 : D-1 00 F P81 ... ... : C-5 00 6 P80 ... ... : C#4 00 . ... : ... .. F ... : ... .. . ... ... : D-2 01 9 P80 ... : D-3 01 9 ... ... : D-2 01 F P85 ...
ROW 15 : ... .. E ... ... ... : ... .. 4 ... ... ... : D#3 00 . ... : ... .. C ... : ... .. . ... ... : ... .. 8 ... ... : ... .. 8 ... ... : ... .. D P83 ...
ROW 16 : ... .. D ... ... ... : ... .. 2 ... ... ... : G#2 00 . ... : ... .. 6 ... : ... .. . ... ... : ... .. . ... ... : ... .. . ... ... : ... .. 8 P82 ...
ROW 17 : ... .. A ... ... ... : ... .. 1 ... ... ... : G-2 00 . ... : ... .. 3 ... : ... .. . ... ... : ... .. . ... ... : ... .. . ... ... : ... .. . P84 ...
ROW 18 : ... .. . ... ... ... : ... .. . ... ... ... : D-2 00 . ... : ... .. 2 ... : ... .. . ... ... : ... .. 7 ... ... : ... .. 7 ... ... : ... .. . P86 ...
ROW 19 : ... .. . ... ... ... : ... .. 0 ... ... ... : ... .. . ... : ... .. 0 ... : ... .. . ... ... : ... .. . ... ... : ... .. . ... ... : ... .. . P88 ...
ROW 1A : ... .. . ... ... ... : C#5 00 6 P80 ... ... : ... .. . ... : ... .. 2 ... : ... .. . ... ... : --- .. . P84 ... : --- .. . P82 ... : ... .. . P87 ...
ROW 1B : ... .. . ... ... ... : ... .. 4 ... ... ... : ... .. . ... : ... .. 1 ... : ... .. . ... ... : ... .. . ... ... : ... .. . ... ... : ... .. . P84 ...
ROW 1C : ... .. . ... ... ... : ... .. 2 ... ... ... : ... .. . ... : ... .. . ... : ... .. . ... ... : ... .. . ... ... : ... .. . ... ... : ... .. . P82 ...
ROW 1D : ... .. 0 ... ... ... : ... .. 1 ... ... ... : --- .. . ... : ... .. . ... : ... .. . ... ... : ... .. . ... ... : ... .. . ... ... : ... .. . P83 ...
ROW 1E : ... .. . ... ... ... : ... .. . ... ... ... : ... .. . ... : ... .. . ... : ... .. . ... ... : ... .. . ... ... : ... .. . ... ... : ... .. . P85 ...
ROW 1F : ... .. . ... ... ... : ... .. 0 ... ... ... : ... .. . ... : ... .. 0 ... : ... .. . ... ... : ... .. . ... ... : ... .. . ... ... : ... .. . P88 ...
ROW 20 : G-1 00 D P81 ... ... : D-5 00 6 P80 ... ... : F#4 00 . ... : ... .. 4 ... : ... .. . ... ... : ... .. . ... ... : ... .. . ... ... : ... .. . P83 ...
ROW 21 : ... .. B ... ... ... : ... .. 4 ... ... ... : G#3 00 . ... : ... .. 3 ... : ... .. . ... ... : ... .. . ... ... : ... .. . ... ... : ... .. 4 P80 ...
ROW 22 : ... .. . ... ... ... : ... .. 2 ... ... ... : C#3 00 . ... : ... .. 1 ... : ... .. . ... ... : ... .. . ... ... : ... .. . ... ... : ... .. . P7D ...
ROW 23 : ... .. A ... ... ... : ... .. 1 ... ... ... : C-3 00 . ... : ... .. . ... : ... .. . ... ... : ... .. . ... ... : ... .. . ... ... : ... .. 1 ... ...
ROW 24 : ... .. 8 ... ... ... : ... .. . ... ... ... : G-2 00 . ... : ... .. . ... : ... .. . ... ... : ... .. . ... ... : ... .. . ... ... : ... .. . P80 ...
ROW 25 : ... .. 7 ... ... ... : ... .. 0 ... ... ... : ... .. . ... : ... .. 0 ... : ... .. . ... ... : ... .. . ... ... : ... .. . ... ... : ... .. . P82 ...
ROW 26 : ... .. 6 ... ... ... : D#5 00 6 P80 ... ... : ... .. . ... : ... .. 8 ... : ... .. . ... ... : ... .. . ... ... : ... .. . ... ... : ... .. . P83 ...
ROW 27 : ... .. . ... ... ... : ... .. 4 ... ... ... : ... .. . ... : ... .. 6 ... : ... .. . ... ... : ... .. . ... ... : ... .. . ... ... : ... .. . P81 ...
ROW 28 : ... .. 5 ... ... ... : ... .. 2 ... ... ... : ... .. . ... : ... .. 3 ... : ... .. . ... ... : ... .. . ... ... : ... .. . ... ... : ... .. . P7F ...
ROW 29 : ... .. . ... ... ... : ... .. 1 ... ... ... : ... .. . ... : ... .. 1 ... : ... .. . ... ... : ... .. . ... ... : ... .. . ... ... : ... .. . P7D ...
ROW 2A : ... .. 4 ... ... ... : ... .. . ... ... ... : ... .. . ... : ... .. . ... : ... .. . ... ... : ... .. . ... ... : ... .. . ... ... : ... .. 0 P7E ...
ROW 2B : ... .. . ... ... ... : ... .. 0 ... ... ... : ... .. . ... : ... .. 0 ... : ... .. . ... ... : ... .. . ... ... : ... .. . ... ... : ... .. . P81 ...
ROW 2C : D-2 00 D ... ... ... : D-5 00 6 P80 ... ... : ... .. . ... : ... .. F ... : ... .. . ... ... : G-3 01 9 P80 ... : A#3 01 9 P80 ... : D-4 01 F P83 ...
ROW 2D : ... .. B ... ... ... : ... .. 4 ... ... ... : ... .. . ... : ... .. C ... : ... .. . ... ... : ... .. 8 ... ... : ... .. 8 ... ... : ... .. D P82 ...
ROW 2E : ... .. . ... ... ... : ... .. 2 ... ... ... : ... .. . ... : ... .. 6 ... : ... .. . ... ... : ... .. . ... ... : ... .. . ... ... : ... .. 8 P80 ...
ROW 2F : ... .. 0 ... ... ... : ... .. 1 ... ... ... : --- .. . ... : ... .. 3 ... : ... .. . ... ... : ... .. . ... ... : ... .. . ... ... : ... .. . P7D ...
ROW 30 : ... .. . ... ... ... : ... .. . ... ... ... : ... .. . ... : ... .. 2 ... : ... .. . ... ... : ... .. 7 ... ... : ... .. 7 ... ... : ... .. . ... ...
ROW 31 : ... .. . ... ... ... : ... .. 0 ... ... ... : ... .. . ... : ... .. 0 ... : ... .. . ... ... : ... .. . ... ... : ... .. . ... ... : ... .. . P80 ...
ROW 32 : D-2 00 D P81 ... ... : D#5 00 6 P80 ... ... : ... .. . ... : ... .. 4 ... : ... .. . ... ... : --- .. . P81 ... : --- .. . ... ... : --- .. . ... ...
ROW 33 : ... .. B ... ... ... : ... .. 4 ... ... ... : ... .. . ... : ... .. 3 ... : ... .. . ... ... : ... .. . ... ... : ... .. . ... ... : ... .. . ... ...
ROW 34 : ... .. . ... ... ... : ... .. 2 ... ... ... : ... .. . ... : ... .. 1 ... : ... .. . ... ... : ... .. . ... ... : ... .. . ... ... : ... .. . ... ...
ROW 35 : ... .. 0 ... ... ... : ... .. 1 ... ... ... : ... .. . ... : ... .. . ... : ... .. . ... ... : ... .. . ... ... : ... .. . ... ... : ... .. . ... ...
ROW 36 : ... .. . ... ... ... : ... .. . ... ... ... : ... .. . ... : ... .. . ... : ... .. . ... ... : ... .. . ... ... : ... .. . ... ... : ... .. . ... ...
ROW 37 : ... .. . ... ... ... : ... .. 0 ... ... ... : ... .. . ... : ... .. 0 ... : ... .. . ... ... : ... .. . ... ... : ... .. . ... ... : ... .. . ... ...
ROW 38 : C#2 00 D P81 ... ... : D-5 00 6 P80 ... ... : C#4 00 . ... : ... .. 2 ... : ... .. . ... ... : ... .. . ... ... : ... .. . ... ... : C#4 01 F P81 ...
ROW 39 : ... .. B ... ... ... : ... .. 4 ... ... ... : D#3 00 . ... : ... .. 1 ... : ... .. . ... ... : ... .. . ... ... : ... .. . ... ... : ... .. D P83 ...
ROW 3A : ... .. . ... ... ... : ... .. 2 ... ... ... : G#2 00 . ... : ... .. . ... : ... .. . ... ... : ... .. . ... ... : ... .. . ... ... : ... .. 8 P82 ...
ROW 3B : ... .. A ... ... ... : ... .. 1 ... ... ... : G-2 00 . ... : ... .. . ... : ... .. . ... ... : ... .. . ... ... : ... .. . ... ... : ... .. . P7F ...
ROW 3C : ... .. 8 ... ... ... : ... .. . ... ... ... : D-2 00 . ... : ... .. . ... : ... .. . ... ... : ... .. . ... ... : ... .. . ... ... : ... .. . P7D ...
ROW 3D : ... .. 7 ... ... ... : ... .. 0 ... ... ... : ... .. . ... : ... .. 0 ... : ... .. . ... ... : ... .. . ... ... : ... .. . ... ... : ... .. . P7E ...
ROW 3E : ... .. D ... ... ... : D#5 00 6 P80 ... ... : ... .. . ... : ... .. 4 ... : ... .. . ... ... : ... .. . ... ... : ... .. . ... ... : ... .. . P80 ...
ROW 3F : ... .. B ... ... ... : ... .. 4 ... ... ... : ... .. . ... : ... .. 3 ... : ... .. . ... ... : ... .. . ... ... : ... .. . ... ... : ... .. . P83 ...
ROW 40 : ... .. . ... ... ... : ... .. 2 ... ... ... : ... .. . ... : ... .. 1 ... : ... .. . ... ... : ... .. . ... ... : ... .. . ... ... : ... .. . ... ...
ROW 41 : ... .. A ... ... ... : ... .. 1 ... ... ... : ... .. . ... : ... .. . ... : ... .. . ... ... : ... .. . ... ... : ... .. . ... ... : ... .. . P80 ...
ROW 42 : ... .. 8 ... ... ... : ... .. . ... ... ... : ... .. . ... : ... .. . ... : ... .. . ... ... : ... .. . ... ... : ... .. . ... ... : ... .. . P7D ...
ROW 43 : ... .. 7 ... ... ... : ... .. 0 ... ... ... : ... .. . ... : ... .. 0 ... : ... .. . ... ... : ... .. . ... ... : ... .. . ... ... : ... .. . ... ...
ROW 44 : D-2 00 D ... ... ... : D-5 00 6 P80 ... ... : ... .. . ... : ... .. F ... : ... .. . ... ... : F#3 01 9 P80 ... : A#3 01 9 ... ... : D-4 01 F P80 ...
ROW 45 : ... .. B ... ... ... : ... .. 4 ... ... ... : ... .. . ... : ... .. C ... : ... .. . ... ... : ... .. 8 ... ... : ... .. 8 ... ... : ... .. D P82 ...
ROW 46 : ... .. . ... ... ... : ... .. 2 ... ... ... : ... .. . ... : ... .. 6 ... : ... .. . ... ... : ... .. . ... ... : ... .. . ... ... : ... .. 8 P83 ...
ROW 47 : ... .. 0 ... ... ... : ... .. 1 ... ... ... : --- .. . ... : ... .. 3 ... : ... .. . ... ... : ... .. . ... ... : ... .. . ... ... : ... .. . P81 ...
ROW 48 : ... .. . ... ... ... : ... .. . ... ... ... : ... .. . ... : ... .. 2 ... : ... .. . ... ... : ... .. 7 ... ... : ... .. 7 ... ... : ... .. . P7F ...
ROW 49 : ... .. . ... ... ... : ... .. 0 ... ... ... : ... .. . ... : ... .. 0 ... : ... .. . ... ... : ... .. . ... ... : ... .. . ... ... : ... .. . P7D ...
ROW 4A : D-2 00 D P81 ... ... : D#5 00 6 P80 ... ... : ... .. . ... : ... .. F ... : ... .. . ... ... : --- .. . P7F ... : --- .. . ... ... : --- .. . ... ...
ROW 4B : ... .. B ... ... ... : ... .. 4 ... ... ... : ... .. . ... : ... .. C ... : ... .. . ... ... : ... .. . ... ... : ... .. . ... ... : ... .. . ... ...
ROW 4C : ... .. . ... ... ... : ... .. 2 ... ... ... : ... .. . ... : ... .. 6 ... : ... .. . ... ... : ... .. . ... ... : ... .. . ... ... : ... .. . ... ...
ROW 4D : ... .. 0 ... ... ... : ... .. 1 ... ... ... : ... .. . ... : ... .. 3 ... : ... .. . ... ... : ... .. . ... ... : ... .. . ... ... : ... .. . ... ...
ROW 4E : ... .. . ... ... ... : ... .. . ... ... ... : ... .. . ... : ... .. 2 ... : ... .. . ... ... : ... .. . ... ... : ... .. . ... ... : ... .. . ... ...
ROW 4F : ... .. . ... ... ... : ... .. 0 ... ... ... : ... .. . ... : ... .. 0 ... : ... .. . ... ... : ... .. . ... ... : ... .. . ... ... : ... .. . ... ...
ROW 50 : A#1 00 D P81 ... ... : D-5 00 6 P80 ... ... : A-4 00 . ... : ... .. 2 ... : ... .. . ... ... : ... .. . ... ... : ... .. . ... ... : D#4 01 F ... ...
ROW 51 : ... .. B ... ... ... : ... .. 4 ... ... ... : B-3 00 . ... : ... .. 1 ... : ... .. . ... ... : ... .. . ... ... : ... .. . ... ... : ... .. D P80 ...
ROW 52 : ... .. . ... ... ... : ... .. 2 ... ... ... : E-3 00 . ... : ... .. . ... : ... .. . ... ... : ... .. . ... ... : ... .. . ... ... : ... .. 8 P83 ...
ROW 53 : ... .. A ... ... ... : ... .. 1 ... ... ... : D#3 00 . ... : ... .. . ... : ... .. . ... ... : ... .. . ... ... : ... .. . ... ... : ... .. . ... ...
ROW 54 : ... .. 8 ... ... ... : ... .. . ... ... ... : A#2 00 . ... : ... .. . ... : ... .. . ... ... : ... .. . ... ... : ... .. . ... ... : ... .. . P80 ...
ROW 55 : ... .. 7 ... ... ... : ... .. 0 ... ... ... : ... .. . ... : ... .. 0 ... : ... .. . ... ... : ... .. . ... ... : ... .. . ... ... : ... .. . P7E ...
ROW 56 : ... .. D ... ... ... : D#5 00 6 P80 ... ... : ... .. . ... : ... .. 4 ... : ... .. . ... ... : ... .. . ... ... : ... .. . ... ... : ... .. . P7D ...
ROW 57 : ... .. B ... ... ... : ... .. 4 ... ... ... : ... .. . ... : ... .. 3 ... : ... .. . ... ... : ... .. . ... ... : ... .. . ... ... : ... .. . P7F ...
ROW 58 : ... .. . ... ... ... : ... .. 2 ... ... ... : ... .. . ... : ... .. 1 ... : ... .. . ... ... : ... .. . ... ... : ... .. . ... ... : ... .. . P81 ...
ROW 59 : ... .. A ... ... ... : ... .. 1 ... ... ... : ... .. . ... : ... .. . ... : ... .. . ... ... : ... .. . ... ... : ... .. . ... ... : ... .. . P83 ...
ROW 5A : ... .. 8 ... ... ... : ... .. . ... ... ... : ... .. . ... : ... .. . ... : ... .. . ... ... : ... .. . ... ... : ... .. . ... ... : ... .. . P82 ...
ROW 5B : ... .. 7 ... ... ... : ... .. 0 ... ... ... : ... .. . ... : ... .. 0 ... : ... .. . ... ... : ... .. . ... ... : ... .. . ... ... : ... .. . P7F ...
ROW 5C : D-2 00 D ... ... ... : E-5 00 6 P80 ... ... : ... .. . ... : ... .. F ... : ... .. . ... ... : F-3 01 9 P80 ... : A#3 01 9 ... ... : D-4 01 F P7D ...
ROW 5D : ... .. B ... ... ... : ... .. 4 ... ... ... : ... .. . ... : ... .. C ... : ... .. . ... ... : ... .. 8 ... ... : ... .. 8 ... ... : ... .. D P7E ...
ROW 5E : ... .. . ... ... ... : ... .. 2 ... ... ... : ... .. . ... : ... .. 6 ... : ... .. . ... ... : ... .. . ... ... : ... .. . ... ... : ... .. 8 P80 ...
ROW 5F : ... .. 0 ... ... ... : ... .. 1 ... ... ... : --- .. . ... : ... .. 3 ... : ... .. . ... ... : ... .. . ... ... : ... .. . ... ... : ... .. . P83 ...
ROW 60 : ... .. . ... ... ... : ... .. . ... ... ... : ... .. . ... : ... .. 2 ... : ... .. . ... ... : ... .. 7 ... ... : ... .. 7 ... ... : ... .. . ... ...
ROW 61 : ... .. . ... ... ... : ... .. 0 ... ... ... : ... .. . ... : ... .. 0 ... : ... .. . ... ... : ... .. . ... ... : ... .. . ... ... : ... .. . P80 ...
ROW 62 : D-2 00 D P81 ... ... : F-5 00 6 P80 ... ... : ... .. . ... : ... .. F ... : ... .. . ... ... : --- .. . ... ... : --- .. . ... ... : --- .. . ... ...
ROW 63 : ... .. B ... ... ... : ... .. 4 ... ... ... : ... .. . ... : ... .. C ... : ... .. . ... ... : ... .. . ... ... : ... .. . ... ... : ... .. . ... ...
ROW 64 : ... .. . ... ... ... : ... .. 2 ... ... ... : ... .. . ... : ... .. 6 ... : ... .. . ... ... : ... .. . ... ... : ... .. . ... ... : ... .. . ... ...
ROW 65 : ... .. 0 ... ... ... : ... .. 1 ... ... ... : ... .. . ... : ... .. 3 ... : ... .. . ... ... : ... .. . ... ... : ... .. . ... ... : ... .. . ... ...
ROW 66 : ... .. . ... ... ... : ... .. . ... ... ... : ... .. . ... : ... .. 2 ... : ... .. . ... ... : ... .. . ... ... : ... .. . ... ... : ... .. . ... ...
ROW 67 : ... .. . ... ... ... : ... .. 0 ... ... ... : ... .. . ... : ... .. 0 ... : ... .. . ... ... : ... .. . ... ... : ... .. . ... ... : ... .. . ... ...
ROW 68 : D#2 00 D P81 ... ... : F#5 00 6 P80 ... ... : G#4 00 . ... : ... .. 4 ... : ... .. . ... ... : ... .. . ... ... : ... .. . ... ... : C#4 01 F P7F ...
ROW 69 : ... .. B ... ... ... : ... .. 4 ... ... ... : A#3 00 . ... : ... .. 3 ... : ... .. . ... ... : ... .. . ... ... : ... .. . ... ... : ... .. D P7D ...
ROW 6A : ... .. . ... ... ... : ... .. 2 ... ... ... : D#3 00 . ... : ... .. 1 ... : ... .. . ... ... : ... .. . ... ... : ... .. . ... ... : ... .. 8 P7E ...
ROW 6B : ... .. A ... ... ... : ... .. 1 ... ... ... : D-3 00 . ... : ... .. . ... : ... .. . ... ... : ... .. . ... ... : ... .. . ... ... : ... .. . P81 ...
ROW 6C : ... .. 8 ... ... ... : ... .. . ... ... ... : A-2 00 . ... : ... .. . ... : ... .. . ... ... : ... .. . ... ... : ... .. . ... ... : ... .. . P83 ...
ROW 6D : ... .. 7 ... ... ... : ... .. 0 ... ... ... : ... .. . ... : ... .. 0 ... : ... .. . ... ... : ... .. . ... ... : ... .. . ... ... : ... .. . P82 ...
ROW 6E : D-2 00 D ... ... ... : F-5 00 6 P80 ... ... : ... .. . ... : ... .. 8 ... : ... .. . ... ... : ... .. . ... ... : ... .. . ... ... : ... .. . P80 ...
ROW 6F : ... .. B ... ... ... : ... .. 4 ... ... ... : ... .. . ... : ... .. 6 ... : ... .. . ... ... : ... .. . ... ... : ... .. . ... ... : ... .. . P7D ...
ROW 70 : ... .. . ... ... ... : ... .. 2 ... ... ... : ... .. . ... : ... .. 3 ... : ... .. . ... ... : ... .. . ... ... : ... .. . ... ... : ... .. . ... ...
ROW 71 : ... .. A ... ... ... : ... .. 1 ... ... ... : ... .. . ... : ... .. 1 ... : ... .. . ... ... : ... .. . ... ... : ... .. . ... ... : ... .. . P80 ...
ROW 72 : ... .. 8 ... ... ... : ... .. . ... ... ... : ... .. . ... : ... .. . ... : ... .. . ... ... : ... .. . ... ... : ... .. . ... ... : ... .. . P83 ...
ROW 73 : ... .. 7 ... ... ... : ... .. 0 ... ... ... : ... .. . ... : ... .. 0 ... : ... .. . ... ... : ... .. . ... ... : ... .. . ... ... : ... .. . ... ...
ROW 74 : A#1 00 D ... ... ... : E-5 00 6 P80 ... ... : ... .. . ... : ... .. F ... : ... .. . ... ... : E-3 01 9 ... ... : A#3 01 9 ... ... : D-4 01 F P80 ...
ROW 75 : ... .. B ... ... ... : ... .. 4 ... ... ... : ... .. . ... : ... .. C ... : ... .. . ... ... : ... .. 8 ... ... : ... .. 8 ... ... : ... .. D P7E ...
ROW 76 : ... .. . ... ... ... : ... .. 2 ... ... ... : ... .. . ... : ... .. 6 ... : ... .. . ... ... : ... .. . ... ... : ... .. . ... ... : ... .. 8 P7D ...
ROW 77 : ... .. 0 ... ... ... : ... .. 1 ... ... ... : --- .. . ... : ... .. 3 ... : ... .. . ... ... : ... .. . ... ... : ... .. . ... ... : ... .. . P7F ...
ROW 78 : ... .. . ... ... ... : ... .. . ... ... ... : ... .. . ... : ... .. 2 ... : ... .. . ... ... : ... .. 7 ... ... : ... .. 7 ... ... : ... .. . P81 ...
ROW 79 : ... .. . ... ... ... : ... .. 0 ... ... ... : ... .. . ... : ... .. 0 ... : ... .. . ... ... : ... .. . ... ... : ... .. . ... ... : ... .. . P83 ...
ROW 7A : A-1 00 D P81 ... ... : D#5 00 6 P80 ... ... : ... .. . ... : ... .. 2 ... : ... .. . ... ... : --- .. . P82 ... : --- .. . ... ... : ... .. . P82 ...
ROW 7B : ... .. B ... ... ... : ... .. 4 ... ... ... : ... .. . ... : ... .. 1 ... : ... .. . ... ... : ... .. . ... ... : ... .. . ... ... : ... .. . P7F ...
ROW 7C : ... .. . ... ... ... : ... .. 2 ... ... ... : ... .. . ... : ... .. . ... : ... .. . ... ... : ... .. . ... ... : ... .. . ... ... : ... .. . P7D ...
ROW 7D : ... .. 0 ... ... ... : ... .. 1 ... ... ... : ... .. . ... : ... .. . ... : ... .. . ... ... : ... .. . ... ... : ... .. . ... ... : ... .. . P7E ...
ROW 7E : ... .. . ... ... ... : ... .. . ... ... ... : ... .. . ... : ... .. . ... : ... .. . ... ... : ... .. . ... ... : ... .. . ... ... : ... .. . P80 ...
ROW 7F : ... .. . ... ... ... : ... .. 0 ... ... ... : ... .. . ... : ... .. 0 ... : ... .. . ... ... : ... .. . ... ... : ... .. . ... ... : ... .. . P83 ...
ROW 80 : G-1 00 D P81 ... ... : D-5 00 6 P80 ... ... : F#3 00 . ... : B-# 00 D ... : ... .. . ... ... : D#3 01 9 P80 ... : ... .. . ... ... : A-4 01 F ... ...
ROW 81 : ... .. B ... ... ... : ... .. 4 ... ... ... : G#2 00 . ... : ... .. B ... : ... .. . ... ... : ... .. 8 ... ... : ... .. . ... ... : ... .. D P80 ...
ROW 82 : ... .. . ... ... ... : ... .. 2 ... ... ... : C#2 00 . ... : ... .. . ... : ... .. . ... ... : ... .. . ... ... : ... .. . ... ... : ... .. 8 P7D ...
ROW 83 : ... .. A ... ... ... : ... .. 1 ... ... ... : C-2 00 . ... : ... .. A ... : ... .. . ... ... : ... .. . ... ... : ... .. . ... ... : ... .. . ... ...
ROW 84 : ... .. 8 ... ... ... : ... .. . ... ... ... : G-1 00 . ... : ... .. 8 ... : ... .. . ... ... : ... .. 7 ... ... : ... .. . ... ... : ... .. . P80 ...
ROW 85 : ... .. 7 ... ... ... : ... .. 0 ... ... ... : ... .. . ... : ... .. 7 ... : ... .. . ... ... : ... .. . ... ... : ... .. . ... ... : ... .. . P82 ...
ROW 86 : ... .. 6 ... ... ... : D#5 00 6 P80 ... ... : ... .. . ... : ... .. 6 ... : ... .. . ... ... : D-3 01 9 ... ... : ... .. . ... ... : ... .. . P83 ...
ROW 87 : ... .. . ... ... ... : ... .. 4 ... ... ... : ... .. . ... : ... .. . ... : ... .. . ... ... : ... .. 8 ... ... : ... .. . ... ... : ... .. . P81 ...
ROW 88 : ... .. 5 ... ... ... : ... .. 2 ... ... ... : ... .. . ... : ... .. 5 ... : ... .. . ... ... : ... .. . ... ... : ... .. . ... ... : ... .. . P7F ...
ROW 89 : ... .. . ... ... ... : ... .. 1 ... ... ... : ... .. . ... : ... .. . ... : ... .. . ... ... : ... .. . ... ... : ... .. . ... ... : ... .. . P7D ...
ROW 8A : ... .. 4 ... ... ... : ... .. . ... ... ... : ... .. . ... : ... .. 4 ... : ... .. . ... ... : ... .. 7 ... ... : ... .. . ... ... : ... .. . P7E ...
ROW 8B : ... .. . ... ... ... : ... .. 0 ... ... ... : ... .. . ... : ... .. . ... : ... .. . ... ... : ... .. . ... ... : ... .. . ... ... : ... .. . P81 ...
ROW 8C : F#2 00 D ... ... ... : D-5 00 6 P80 ... ... : A#3 00 . ... : C-# 00 3 ... : ... .. . ... ... : C#3 01 9 ... ... : ... .. . ... ... : ... .. . P83 ...
ROW 8D : ... .. B ... ... ... : ... .. 4 ... ... ... : ... .. . ... : ... .. 2 ... : ... .. . ... ... : ... .. 8 ... ... : ... .. . ... ... : ... .. . P82 ...
ROW 8E : ... .. . ... ... ... : ... .. 2 ... ... ... : ... .. . ... : ... .. . ... : ... .. . ... ... : ... .. . ... ... : ... .. . ... ... : ... .. . P80 ...
ROW 8F : ... .. A ... ... ... : ... .. 1 ... ... ... : ... .. . ... : ... .. . ... : ... .. . ... ... : ... .. . ... ... : ... .. . ... ... : ... .. . P7D ...
ROW 90 : ... .. 8 ... ... ... : ... .. . ... ... ... : ... .. . ... : ... .. . ... : ... .. . ... ... : ... .. 7 ... ... : ... .. . ... ... : ... .. . ... ...
ROW 91 : ... .. 7 ... ... ... : ... .. 0 ... ... ... : ... .. . ... : ... .. 1 ... : ... .. . ... ... : ... .. . ... ... : ... .. . ... ... : ... .. . P80 ...
ROW 92 : G-2 00 D ... ... ... : D#5 00 6 P80 ... ... : ... .. . ... : ... .. . ... : ... .. . ... ... : D#3 01 9 ... ... : ... .. . ... ... : G-4 01 F P83 ...
ROW 93 : ... .. B ... ... ... : ... .. 4 ... ... ... : ... .. . ... : ... .. . ... : ... .. . ... ... : ... .. 8 ... ... : ... .. . ... ... : ... .. D ... ...
ROW 94 : ... .. . ... ... ... : ... .. 2 ... ... ... : ... .. . ... : ... .. . ... : ... .. . ... ... : ... .. . ... ... : ... .. . ... ... : ... .. 8 P80 ...
ROW 95 : ... .. 0 ... ... ... : ... .. 1 ... ... ... : ... .. . ... : ... .. . ... : ... .. . ... ... : ... .. . ... ... : ... .. . ... ... : --- .. . ... ...
ROW 96 : ... .. . ... ... ... : ... .. . ... ... ... : ... .. . ... : ... .. . ... : ... .. . ... ... : ... .. 7 ... ... : ... .. . ... ... : ... .. . ... ...
ROW 97 : ... .. . ... ... ... : ... .. 0 ... ... ... : ... .. . ... : ... .. . ... : ... .. . ... ... : ... .. . ... ... : ... .. . ... ... : ... .. . ... ...
ROW 98 : G-2 00 D P81 ... ... : D-5 00 6 P80 ... ... : F#3 00 . ... : B-# 00 D ... : ... .. . ... ... : D-3 01 9 ... ... : ... .. . ... ... : F#4 01 F P81 ...
ROW 99 : ... .. B ... ... ... : ... .. 4 ... ... ... : G#2 00 . ... : ... .. B ... : ... .. . ... ... : ... .. 8 ... ... : ... .. . ... ... : ... .. D P83 ...
ROW 9A : ... .. . ... ... ... : ... .. 2 ... ... ... : C#2 00 . ... : ... .. . ... : ... .. . ... ... : ... .. . ... ... : ... .. . ... ... : ... .. 8 P82 ...
ROW 9B : ... .. A ... ... ... : ... .. 1 ... ... ... : C-2 00 . ... : ... .. A ... : ... .. . ... ... : ... .. . ... ... : ... .. . ... ... : ... .. . P7F ...
ROW 9C : ... .. 8 ... ... ... : ... .. . ... ... ... : G-1 00 . ... : ... .. 8 ... : ... .. . ... ... : ... .. 7 ... ... : ... .. . ... ... : ... .. . P7D ...
ROW 9D : ... .. 7 ... ... ... : ... .. 0 ... ... ... : ... .. . ... : ... .. 7 ... : ... .. . ... ... : ... .. . ... ... : ... .. . ... ... : ... .. . P7E ...
ROW 9E : ... .. D ... ... ... : D#5 00 6 P80 ... ... : ... .. . ... : ... .. 6 ... : ... .. . ... ... : ... .. . ... ... : ... .. . ... ... : ... .. . P80 ...
ROW 9F : ... .. B ... ... ... : ... .. 4 ... ... ... : ... .. . ... : ... .. . ... : ... .. . ... ... : ... .. 6 ... ... : ... .. . ... ... : ... .. . P83 ...
ROW A0 : ... .. . ... ... ... : ... .. 2 ... ... ... : ... .. . ... : ... .. 5 ... : ... .. . ... ... : ... .. . ... ... : ... .. . ... ... : ... .. . ... ...
ROW A1 : ... .. 0 ... ... ... : ... .. 1 ... ... ... : ... .. . ... : ... .. . ... : ... .. . ... ... : ... .. . ... ... : ... .. . ... ... : ... .. . P80 ...
ROW A2 : ... .. . ... ... ... : ... .. . ... ... ... : ... .. . ... : ... .. 4 ... : ... .. . ... ... : ... .. . ... ... : ... .. . ... ... : ... .. . P7D ...
ROW A3 : ... .. . ... ... ... : ... .. 0 ... ... ... : ... .. . ... : ... .. . ... : ... .. . ... ... : ... .. . ... ... : ... .. . ... ... : ... .. . ... ...
ROW A4 : G-2 00 D P81 ... ... : D-5 00 6 P80 ... ... : A#3 00 . ... : C-# 00 3 ... : ... .. . ... ... : A#2 01 9 ... ... : ... .. . ... ... : G-4 01 F P80 ...
ROW A5 : ... .. B ... ... ... : ... .. 4 ... ... ... : ... .. . ... : ... .. 2 ... : ... .. . ... ... : ... .. 8 ... ... : ... .. . ... ... : ... .. D P82 ...
ROW A6 : ... .. . ... ... ... : ... .. 2 ... ... ... : ... .. . ... : ... .. . ... : ... .. . ... ... : ... .. . ... ... : ... .. . ... ... : ... .. 8 P83 ...
ROW A7 : ... .. 0 ... ... ... : ... .. 1 ... ... ... : ... .. . ... : ... .. . ... : ... .. . ... ... : ... .. . ... ... : ... .. . ... ... : ... .. . P81 ...
ROW A8 : ... .. . ... ... ... : ... .. . ... ... ... : ... .. . ... : ... .. . ... : ... .. . ... ... : ... .. 7 ... ... : ... .. . ... ... : ... .. . P7F ...
ROW A9 : ... .. . ... ... ... : ... .. 0 ... ... ... : ... .. . ... : ... .. 1 ... : ... .. . ... ... : ... .. . ... ... : ... .. . ... ... : ... .. . P7D ...
ROW AA : G-2 00 D P81 ... ... : D#5 00 6 P80 ... ... : ... .. . ... : ... .. . ... : ... .. . ... ... : ... .. . ... ... : ... .. . ... ... : --- .. . ... ...
ROW AB : ... .. B ... ... ... : ... .. 4 ... ... ... : ... .. . ... : ... .. . ... : ... .. . ... ... : ... .. 6 ... ... : ... .. . ... ... : ... .. . ... ...
ROW AC : ... .. . ... ... ... : ... .. 2 ... ... ... : ... .. . ... : ... .. . ... : ... .. . ... ... : ... .. . ... ... : ... .. . ... ... : ... .. . ... ...
ROW AD : ... .. 0 ... ... ... : ... .. 1 ... ... ... : ... .. . ... : ... .. . ... : ... .. . ... ... : ... .. . ... ... : ... .. . ... ... : ... .. . ... ...
ROW AE : ... .. . ... ... ... : ... .. . ... ... ... : ... .. . ... : ... .. . ... : ... .. . ... ... : ... .. . ... ... : ... .. . ... ... : ... .. . ... ...
ROW AF : ... .. . ... ... ... : ... .. 0 ... ... ... : ... .. . ... : ... .. . ... : ... .. . ... ... : ... .. . ... ... : ... .. . ... ... : ... .. . ... ...
ROW B0 : G#2 00 D P81 ... ... : D-5 00 6 P80 ... ... : F#3 00 . ... : B-# 00 D ... : ... .. . ... ... : G#3 01 9 ... ... : ... .. . ... ... : D#4 01 F ... ...
ROW B1 : ... .. B ... ... ... : ... .. 4 ... ... ... : G#2 00 . ... : ... .. B ... : ... .. . ... ... : ... .. 8 ... ... : ... .. . ... ... : ... .. D P80 ...
ROW B2 : ... .. . ... ... ... : ... .. 2 ... ... ... : C#2 00 . ... : ... .. . ... : ... .. . ... ... : ... .. . ... ... : ... .. . ... ... : ... .. 8 P83 ...
ROW B3 : ... .. A ... ... ... : ... .. 1 ... ... ... : C-2 00 . ... : ... .. A ... : ... .. . ... ... : ... .. . ... ... : ... .. . ... ... : ... .. . ... ...
ROW B4 : ... .. 8 ... ... ... : ... .. . ... ... ... : G-1 00 . ... : ... .. 8 ... : ... .. . ... ... : ... .. 7 ... ... : ... .. . ... ... : ... .. . P80 ...
ROW B5 : ... .. 7 ... ... ... : ... .. 0 ... ... ... : ... .. . ... : ... .. 7 ... : ... .. . ... ... : ... .. . ... ... : ... .. . ... ... : ... .. . P7E ...
ROW B6 : G-2 00 D ... ... ... : C#5 00 6 P80 ... ... : ... .. . ... : ... .. 6 ... : ... .. . ... ... : G-3 01 9 ... ... : ... .. . ... ... : ... .. . P7D ...
ROW B7 : ... .. B ... ... ... : ... .. 4 ... ... ... : ... .. . ... : ... .. . ... : ... .. . ... ... : ... .. 8 ... ... : ... .. . ... ... : ... .. . P7F ...
ROW B8 : ... .. . ... ... ... : ... .. 2 ... ... ... : ... .. . ... : ... .. 5 ... : ... .. . ... ... : ... .. . ... ... : ... .. . ... ... : ... .. . P81 ...
ROW B9 : ... .. 0 ... ... ... : ... .. 1 ... ... ... : ... .. . ... : ... .. . ... : ... .. . ... ... : --- .. . P81 ... : ... .. . ... ... : ... .. . P83 ...
ROW BA : ... .. . ... ... ... : ... .. . ... ... ... : ... .. . ... : ... .. 4 ... : ... .. . ... ... : ... .. . ... ... : ... .. . ... ... : ... .. . P82 ...
ROW BB : ... .. . ... ... ... : ... .. 0 ... ... ... : ... .. . ... : ... .. . ... : ... .. . ... ... : ... .. . ... ... : ... .. . ... ... : ... .. . P7F ...
ROW BC : G-2 00 D P81 ... ... : C-5 00 6 P80 ... ... : D-4 00 . ... : C-# 00 3 ... : ... .. . ... ... : G-3 01 9 P80 ... : ... .. . ... ... : D-4 01 F P7D ...
ROW BD : ... .. B ... ... ... : ... .. 4 ... ... ... : ... .. . ... : ... .. 2 ... : ... .. . ... ... : ... .. 8 ... ... : ... .. . ... ... : ... .. D P7E ...
ROW BE : ... .. . ... ... ... : ... .. 2 ... ... ... : ... .. . ... : ... .. . ... : ... .. . ... ... : ... .. . ... ... : ... .. . ... ... : ... .. 8 P80 ...
ROW BF : ... .. 0 ... ... ... : ... .. 1 ... ... ... : ... .. . ... : ... .. . ... : ... .. . ... ... : --- .. . P81 ... : ... .. . ... ... : ... .. . P83 ...
ROW C0 : ... .. . ... ... ... : ... .. . ... ... ... : ... .. . ... : ... .. . ... : ... .. . ... ... : ... .. . ... ... : ... .. . ... ... : ... .. . ... ...
ROW C1 : ... .. . ... ... ... : ... .. 0 ... ... ... : ... .. . ... : ... .. 1 ... : ... .. . ... ... : ... .. . ... ... : ... .. . ... ... : ... .. . P80 ...
ROW C2 : G-2 00 D P81 ... ... : B-4 00 6 P80 ... ... : ... .. . ... : ... .. 3 ... : ... .. . ... ... : G-3 01 9 P80 ... : ... .. . ... ... : --- .. . ... ...
ROW C3 : ... .. B ... ... ... : ... .. 4 ... ... ... : ... .. . ... : ... .. 2 ... : ... .. . ... ... : ... .. 8 ... ... : ... .. . ... ... : ... .. . ... ...
ROW C4 : ... .. . ... ... ... : ... .. 2 ... ... ... : ... .. . ... : ... .. . ... : ... .. . ... ... : ... .. . ... ... : ... .. . ... ... : ... .. . ... ...
ROW C5 : ... .. 0 ... ... ... : ... .. 1 ... ... ... : ... .. . ... : ... .. . ... : ... .. . ... ... : --- .. . P81 ... : ... .. . ... ... : ... .. . ... ...
ROW C6 : ... .. . ... ... ... : ... .. . ... ... ... : ... .. . ... : ... .. . ... : ... .. . ... ... : ... .. . ... ... : ... .. . ... ... : ... .. . ... ...
ROW C7 : ... .. . ... ... ... : ... .. 0 ... ... ... : ... .. . ... : ... .. 1 ... : ... .. . ... ... : ... .. . ... ... : ... .. . ... ... : ... .. . ... ...
ROW C8 : F#2 00 D P81 ... ... : A#4 00 6 P80 ... ... : F#3 00 . ... : B-# 00 D ... : ... .. . ... ... : F#3 01 9 P80 ... : ... .. . ... ... : A#3 01 F P7F ...
ROW C9 : ... .. B ... ... ... : ... .. 4 ... ... ... : G#2 00 . ... : ... .. B ... : ... .. . ... ... : ... .. 8 ... ... : ... .. . ... ... : ... .. D P7D ...
ROW CA : ... .. . ... ... ... : ... .. 2 ... ... ... : C#2 00 . ... : ... .. . ... : ... .. . ... ... : ... .. . ... ... : ... .. . ... ... : ... .. 8 P7E ...
ROW CB : ... .. A ... ... ... : ... .. 1 ... ... ... : C-2 00 . ... : ... .. A ... : ... .. . ... ... : ... .. . ... ... : ... .. . ... ... : ... .. . P81 ...
ROW CC : ... .. 8 ... ... ... : ... .. . ... ... ... : G-1 00 . ... : ... .. 8 ... : ... .. . ... ... : ... .. 7 ... ... : ... .. . ... ... : ... .. . P83 ...
ROW CD : ... .. 7 ... ... ... : ... .. 0 ... ... ... : ... .. . ... : ... .. 7 ... : ... .. . ... ... : ... .. . ... ... : ... .. . ... ... : ... .. . P82 ...
ROW CE : G-2 00 D ... ... ... : A-4 00 6 P80 ... ... : ... .. . ... : ... .. 6 ... : ... .. . ... ... : G-3 01 9 ... ... : ... .. . ... ... : ... .. . P80 ...
ROW CF : ... .. B ... ... ... : ... .. 4 ... ... ... : ... .. . ... : ... .. . ... : ... .. . ... ... : ... .. 8 ... ... : ... .. . ... ... : ... .. . P7D ...
ROW D0 : ... .. . ... ... ... : ... .. 2 ... ... ... : ... .. . ... : ... .. 5 ... : ... .. . ... ... : ... .. . ... ... : ... .. . ... ... : ... .. . ... ...
ROW D1 : ... .. 0 ... ... ... : ... .. 1 ... ... ... : ... .. . ... : ... .. . ... : ... .. . ... ... : --- .. . P81 ... : ... .. . ... ... : ... .. . P7F ...
ROW D2 : ... .. . ... ... ... : ... .. . ... ... ... : ... .. . ... : ... .. 4 ... : ... .. . ... ... : ... .. . ... ... : ... .. . ... ... : B-3 01 8 P7B ...
ROW D3 : ... .. . ... ... ... : ... .. 0 ... ... ... : ... .. . ... : ... .. . ... : ... .. . ... ... : ... .. . ... ... : ... .. . ... ... : ... .. . P81 ...
ROW D4 : G-2 00 D P81 ... ... : G#4 00 6 P80 ... ... : D-4 00 . ... : 3-# 00 D ... : ... .. . ... ... : G-3 01 9 P80 ... : ... .. . ... ... : ... .. . P7A ...
ROW D5 : ... .. B ... ... ... : ... .. 4 ... ... ... : ... .. . ... : ... .. B ... : ... .. . ... ... : ... .. 8 ... ... : ... .. . ... ... : A#3 01 8 P7D ...
ROW D6 : ... .. . ... ... ... : ... .. 2 ... ... ... : ... .. . ... : ... .. . ... : ... .. . ... ... : ... .. . ... ... : ... .. . ... ... : A-3 01 8 P83 ...
ROW D7 : ... .. 0 ... ... ... : ... .. 1 ... ... ... : ... .. . ... : ... .. A ... : ... .. . ... ... : --- .. . P81 ... : ... .. . ... ... : ... .. . ... ...
ROW D8 : ... .. . ... ... ... : ... .. . ... ... ... : ... .. . ... : ... .. 8 ... : ... .. . ... ... : ... .. . ... ... : ... .. . ... ... : A#3 01 8 P7D ...
ROW D9 : ... .. . ... ... ... : ... .. 0 ... ... ... : ... .. . ... : ... .. 7 ... : ... .. . ... ... : ... .. . ... ... : ... .. . ... ... : B-3 01 8 P7A ...
ROW DA : G-2 00 D P81 ... ... : G-4 00 6 P80 ... ... : ... .. . ... : ... .. 6 ... : ... .. . ... ... : G-3 01 9 P80 ... : ... .. . ... ... : ... .. . P81 ...
ROW DB : ... .. B ... ... ... : ... .. 4 ... ... ... : ... .. . ... : ... .. . ... : ... .. . ... ... : ... .. 8 ... ... : ... .. . ... ... : ... .. . P7B ...
ROW DC : ... .. . ... ... ... : ... .. 2 ... ... ... : ... .. . ... : ... .. 5 ... : ... .. . ... ... : ... .. . ... ... : ... .. . ... ... : A#3 01 8 P7F ...
ROW DD : ... .. 0 ... ... ... : ... .. 1 ... ... ... : ... .. . ... : ... .. . ... : ... .. . ... ... : ... .. . ... ... : ... .. . ... ... : ... .. . P80 ...
ROW DE : ... .. . ... ... ... : ... .. . ... ... ... : ... .. . ... : ... .. 4 ... : ... .. . ... ... : ... .. 7 ... ... : ... .. . ... ... : ... .. . ... ...
ROW DF : ... .. . ... ... ... : ... .. 0 ... ... ... : ... .. . ... : ... .. . ... : ... .. . ... ... : ... .. . ... ... : ... .. . ... ... : ... .. . ... ...
ROW E0 : A#1 00 D P81 ... ... : F-5 00 6 P80 ... ... : A-4 00 . ... : C-# 00 4 ... : ... .. . ... ... : --- .. . P81 ... : ... .. . ... ... : --- .. . ... ...
ROW E1 : ... .. B ... ... ... : ... .. 4 ... ... ... : B-3 00 . ... : ... .. 3 ... : ... .. . ... ... : ... .. . ... ... : ... .. . ... ... : ... .. . ... ...
ROW E2 : ... .. . ... ... ... : ... .. 2 ... ... ... : E-3 00 . ... : ... .. 1 ... : ... .. . ... ... : ... .. . ... ... : ... .. . ... ... : ... .. . ... ...
ROW E3 : ... .. A ... ... ... : ... .. 1 ... ... ... : D#3 00 . ... : ... .. . ... : ... .. . ... ... : ... .. . ... ... : ... .. . ... ... : ... .. . ... ...
ROW E4 : ... .. 8 ... ... ... : ... .. . ... ... ... : A#2 00 . ... : ... .. . ... : ... .. . ... ... : ... .. . ... ... : ... .. . ... ... : ... .. . ... ...
ROW E5 : ... .. 7 ... ... ... : ... .. 0 ... ... ... : ... .. . ... : ... .. 0 ... : ... .. . ... ... : ... .. . ... ... : ... .. . ... ... : ... .. . ... ...
ROW E6 : ... .. 6 ... ... ... : F#5 00 6 P80 ... ... : ... .. . ... : ... .. 8 ... : ... .. . ... ... : ... .. . ... ... : ... .. . ... ... : ... .. . ... ...
ROW E7 : ... .. . ... ... ... : ... .. 4 ... ... ... : ... .. . ... : ... .. 6 ... : ... .. . ... ... : ... .. . ... ... : ... .. . ... ... : ... .. . ... ...
ROW E8 : ... .. 5 ... ... ... : ... .. 2 ... ... ... : ... .. . ... : ... .. 3 ... : ... .. . ... ... : ... .. . ... ... : ... .. . ... ... : ... .. . ... ...
ROW E9 : ... .. . ... ... ... : ... .. 1 ... ... ... : ... .. . ... : ... .. 1 ... : ... .. . ... ... : ... .. . ... ... : ... .. . ... ... : ... .. . ... ...
ROW EA : ... .. 4 ... ... ... : ... .. . ... ... ... : ... .. . ... : ... .. . ... : ... .. . ... ... : ... .. . ... ... : ... .. . ... ... : ... .. . ... ...
ROW EB : ... .. . ... ... ... : ... .. 0 ... ... ... : ... .. . ... : ... .. 0 ... : ... .. . ... ... : ... .. . ... ... : ... .. . ... ... : ... .. . ... ...
ROW EC : F-2 00 D ... ... ... : F-5 00 6 P80 ... ... : ... .. . ... : ... .. F ... : ... .. . ... ... : F-3 01 9 P80 ... : C#4 01 9 ... ... : F-4 01 F P83 ...
ROW ED : ... .. B ... ... ... : ... .. 4 ... ... ... : ... .. . ... : ... .. C ... : ... .. . ... ... : ... .. 8 ... ... : ... .. 8 ... ... : ... .. D ... ...
ROW EE : ... .. . ... ... ... : ... .. 2 ... ... ... : ... .. . ... : ... .. 6 ... : ... .. . ... ... : ... .. . ... ... : ... .. . ... ... : ... .. 8 P80 ...
ROW EF : ... .. 0 ... ... ... : ... .. 1 ... ... ... : ... .. . ... : ... .. 3 ... : ... .. . ... ... : ... .. . ... ... : ... .. . ... ... : ... .. . P7E ...
ROW F0 : ... .. . ... ... ... : ... .. . ... ... ... : ... .. . ... : ... .. 2 ... : ... .. . ... ... : ... .. 7 ... ... : ... .. 7 ... ... : ... .. . P7D ...
ROW F1 : ... .. . ... ... ... : ... .. 0 ... ... ... : ... .. . ... : ... .. 0 ... : ... .. . ... ... : ... .. . ... ... : ... .. . ... ... : ... .. . P7F ...
ROW F2 : F-2 00 D P81 ... ... : F#5 00 6 P80 ... ... : --- .. . ... : ... .. 4 ... : ... .. . ... ... : --- .. . ... ... : --- .. . ... ... : --- .. . ... ...
ROW F3 : ... .. B ... ... ... : ... .. 4 ... ... ... : ... .. . ... : ... .. 3 ... : ... .. . ... ... : ... .. . ... ... : ... .. . ... ... : ... .. . ... ...
ROW F4 : ... .. . ... ... ... : ... .. 2 ... ... ... : ... .. . ... : ... .. 1 ... : ... .. . ... ... : ... .. . ... ... : ... .. . ... ... : ... .. . ... ...
ROW F5 : ... .. 0 ... ... ... : ... .. 1 ... ... ... : ... .. . ... : ... .. . ... : ... .. . ... ... : ... .. . ... ... : ... .. . ... ... : ... .. . ... ...
ROW F6 : ... .. . ... ... ... : ... .. . ... ... ... : ... .. . ... : ... .. . ... : ... .. . ... ... : ... .. . ... ... : ... .. . ... ... : ... .. . ... ...
ROW F7 : ... .. . ... ... ... : ... .. 0 ... ... ... : ... .. . ... : ... .. 0 ... : ... .. . ... ... : ... .. . ... ... : ... .. . ... ... : ... .. . ... ...
ROW F8 : E-2 00 D P81 ... ... : F-5 00 6 P80 ... ... : E-4 00 . ... : ... .. 2 ... : ... .. . ... ... : ... .. . ... ... : ... .. . ... ... : E-4 01 F P80 ...
ROW F9 : ... .. B ... ... ... : ... .. 4 ... ... ... : F#3 00 . ... : ... .. 1 ... : ... .. . ... ... : ... .. . ... ... : ... .. . ... ... : ... .. D P83 ...
ROW FA : ... .. . ... ... ... : ... .. 2 ... ... ... : B-2 00 . ... : ... .. . ... : ... .. . ... ... : ... .. . ... ... : ... .. . ... ... : ... .. 8 ... ...
ROW FB : ... .. A ... ... ... : ... .. 1 ... ... ... : A#2 00 . ... : ... .. . ... : ... .. . ... ... : ... .. . ... ... : ... .. . ... ... : ... .. . P80 ...
ROW FC : ... .. 8 ... ... ... : ... .. . ... ... ... : F-2 00 . ... : ... .. . ... : ... .. . ... ... : ... .. . ... ... : ... .. . ... ... : ... .. . P7D ...
ROW FD : ... .. 7 ... ... ... : ... .. 0 ... ... ... : ... .. . ... : ... .. 0 ... : ... .. . ... ... : ... .. . ... ... : ... .. . ... ... : ... .. . ... ...
ROW FE : ... .. D ... ... ... : F#5 00 6 P80 ... ... : ... .. . ... : ... .. 4 ... : ... .. . ... ... : ... .. . ... ... : ... .. . ... ... : ... .. . P80 ...
ROW FF : ... .. B ... ... ... : ... .. 4 ... ... ... : ... .. . ... : ... .. 3 ... : ... .. . ... ... : ... .. . ... ... : ... .. . ... ... : ... .. . P82 ...

PATTERN 14
ROW 00 : ... .. . ... ... ... : ... .. 2 ... ... ... : ... .. . ... : ... .. 1 ... : ... .. . ... ... : ... .. . ... ... : ... .. . ... ... : ... .. . P83 ...
ROW 01 : ... .. A ... ... ... : ... .. 1 ... ... ... : ... .. . ... : ... .. . ... : ... .. . ... ... : ... .. . ... ... : ... .. . ... ... : ... .. . P81 ...
ROW 02 : ... .. 8 ... ... ... : ... .. . ... ... ... : ... .. . ... : ... .. . ... : ... .. . ... ... : ... .. . ... ... : ... .. . ... ... : ... .. . P7E ...
ROW 03 : ... .. 7 ... ... ... : ... .. 0 ... ... ... : ... .. . ... : ... .. 0 ... : ... .. . ... ... : ... .. . ... ... : ... .. . ... ... : ... .. . P7D ...
ROW 04 : F-2 00 D ... ... ... : F-5 00 6 P80 ... ... : ... .. . ... : ... .. F ... : ... .. . ... ... : E-3 01 9 ... ... : C#4 01 9 ... ... : F-4 01 F P7F ...
ROW 05 : ... .. B ... ... ... : ... .. 4 ... ... ... : ... .. . ... : ... .. C ... : ... .. . ... ... : ... .. 8 ... ... : ... .. 8 ... ... : ... .. D P81 ...
ROW 06 : ... .. . ... ... ... : ... .. 2 ... ... ... : ... .. . ... : ... .. 6 ... : ... .. . ... ... : ... .. . ... ... : ... .. . ... ... : ... .. 8 P83 ...
ROW 07 : ... .. 0 ... ... ... : ... .. 1 ... ... ... : ... .. . ... : ... .. 3 ... : ... .. . ... ... : ... .. . ... ... : ... .. . ... ... : ... .. . P82 ...
ROW 08 : ... .. . ... ... ... : ... .. . ... ... ... : ... .. . ... : ... .. 2 ... : ... .. . ... ... : ... .. 7 ... ... : ... .. 7 ... ... : ... .. . P80 ...
ROW 09 : ... .. . ... ... ... : ... .. 0 ... ... ... : ... .. . ... : ... .. 0 ... : ... .. . ... ... : ... .. . ... ... : ... .. . ... ... : ... .. . P7D ...
ROW 0A : F-2 00 D P81 ... ... : F#5 00 6 P80 ... ... : --- .. . ... : ... .. F ... : ... .. . ... ... : --- .. . P82 ... : --- .. . ... ... : --- .. . ... ...
ROW 0B : ... .. B ... ... ... : ... .. 4 ... ... ... : ... .. . ... : ... .. C ... : ... .. . ... ... : ... .. . ... ... : ... .. . ... ... : ... .. . ... ...
ROW 0C : ... .. . ... ... ... : ... .. 2 ... ... ... : ... .. . ... : ... .. 6 ... : ... .. . ... ... : ... .. . ... ... : ... .. . ... ... : ... .. . ... ...
ROW 0D : ... .. 0 ... ... ... : ... .. 1 ... ... ... : ... .. . ... : ... .. 3 ... : ... .. . ... ... : ... .. . ... ... : ... .. . ... ... : ... .. . ... ...
ROW 0E : ... .. . ... ... ... : ... .. . ... ... ... : ... .. . ... : ... .. 2 ... : ... .. . ... ... : ... .. . ... ... : ... .. . ... ... : ... .. . ... ...
ROW 0F : ... .. . ... ... ... : ... .. 0 ... ... ... : ... .. . ... : ... .. 0 ... : ... .. . ... ... : ... .. . ... ... : ... .. . ... ... : ... .. . ... ...
ROW 10 : C#2 00 D P81 ... ... : F-5 00 6 P80 ... ... : C-5 00 . ... : ... .. 2 ... : ... .. . ... ... : ... .. . ... ... : ... .. . ... ... : F#4 01 F ... ...
ROW 11 : ... .. B ... ... ... : ... .. 4 ... ... ... : D-4 00 . ... : ... .. 1 ... : ... .. . ... ... : ... .. . ... ... : ... .. . ... ... : ... .. D P7F ...
ROW 12 : ... .. . ... ... ... : ... .. 2 ... ... ... : G-3 00 . ... : ... .. . ... : ... .. . ... ... : ... .. . ... ... : ... .. . ... ... : ... .. 8 P82 ...
ROW 13 : ... .. A ... ... ... : ... .. 1 ... ... ... : F#3 00 . ... : ... .. . ... : ... .. . ... ... : ... .. . ... ... : ... .. . ... ... : ... .. . P83 ...
ROW 14 : ... .. 8 ... ... ... : ... .. . ... ... ... : C#3 00 . ... : ... .. . ... : ... .. . ... ... : ... .. . ... ... : ... .. . ... ... : ... .. . P81 ...
ROW 15 : ... .. 7 ... ... ... : ... .. 0 ... ... ... : ... .. . ... : ... .. 0 ... : ... .. . ... ... : ... .. . ... ... : ... .. . ... ... : ... .. . P7F ...
ROW 16 : ... .. D ... ... ... : F#5 00 6 P80 ... ... : ... .. . ... : ... .. 4 ... : ... .. . ... ... : ... .. . ... ... : ... .. . ... ... : ... .. . P7D ...
ROW 17 : ... .. B ... ... ... : ... .. 4 ... ... ... : ... .. . ... : ... .. 3 ... : ... .. . ... ... : ... .. . ... ... : ... .. . ... ... : ... .. . P7E ...
ROW 18 : ... .. . ... ... ... : ... .. 2 ... ... ... : ... .. . ... : ... .. 1 ... : ... .. . ... ... : ... .. . ... ... : ... .. . ... ... : ... .. . P80 ...
ROW 19 : ... .. A ... ... ... : ... .. 1 ... ... ... : ... .. . ... : ... .. . ... : ... .. . ... ... : ... .. . ... ... : ... .. . ... ... : ... .. . P83 ...
ROW 1A : ... .. 8 ... ... ... : ... .. . ... ... ... : ... .. . ... : ... .. . ... : ... .. . ... ... : ... .. . ... ... : ... .. . ... ... : ... .. . ... ...
ROW 1B : ... .. 7 ... ... ... : ... .. 0 ... ... ... : ... .. . ... : ... .. 0 ... : ... .. . ... ... : ... .. . ... ... : ... .. . ... ... : ... .. . P80 ...
ROW 1C : E-2 00 D ... ... ... : G-5 00 6 P80 ... ... : ... .. . ... : ... .. F ... : ... .. . ... ... : F-3 01 9 P80 ... : C#4 01 9 ... ... : F-4 01 F P7D ...
ROW 1D : ... .. B ... ... ... : ... .. 4 ... ... ... : ... .. . ... : ... .. C ... : ... .. . ... ... : ... .. 8 ... ... : ... .. 8 ... ... : ... .. D ... ...
ROW 1E : ... .. . ... ... ... : ... .. 2 ... ... ... : ... .. . ... : ... .. 6 ... : ... .. . ... ... : ... .. . ... ... : ... .. . ... ... : ... .. 8 P80 ...
ROW 1F : ... .. 0 ... ... ... : ... .. 1 ... ... ... : ... .. . ... : ... .. 3 ... : ... .. . ... ... : ... .. . ... ... : ... .. . ... ... : ... .. . P82 ...
ROW 20 : ... .. . ... ... ... : ... .. . ... ... ... : ... .. . ... : ... .. 2 ... : ... .. . ... ... : ... .. 7 ... ... : ... .. 7 ... ... : ... .. . P83 ...
ROW 21 : ... .. . ... ... ... : ... .. 0 ... ... ... : ... .. . ... : ... .. 0 ... : ... .. . ... ... : ... .. . ... ... : ... .. . ... ... : ... .. . P81 ...
ROW 22 : E-2 00 D P81 ... ... : G#5 00 6 P80 ... ... : --- .. . ... : ... .. F ... : ... .. . ... ... : --- .. . ... ... : --- .. . ... ... : --- .. . ... ...
ROW 23 : ... .. B ... ... ... : ... .. 4 ... ... ... : ... .. . ... : ... .. C ... : ... .. . ... ... : ... .. . ... ... : ... .. . ... ... : ... .. . ... ...
ROW 24 : ... .. . ... ... ... : ... .. 2 ... ... ... : ... .. . ... : ... .. 6 ... : ... .. . ... ... : ... .. . ... ... : ... .. . ... ... : ... .. . ... ...
ROW 25 : ... .. 0 ... ... ... : ... .. 1 ... ... ... : ... .. . ... : ... .. 3 ... : ... .. . ... ... : ... .. . ... ... : ... .. . ... ... : ... .. . ... ...
ROW 26 : ... .. . ... ... ... : ... .. . ... ... ... : ... .. . ... : ... .. 2 ... : ... .. . ... ... : ... .. . ... ... : ... .. . ... ... : ... .. . ... ...
ROW 27 : ... .. . ... ... ... : ... .. 0 ... ... ... : ... .. . ... : ... .. 0 ... : ... .. . ... ... : ... .. . ... ... : ... .. . ... ... : ... .. . ... ...
ROW 28 : C-2 00 D P81 ... ... : A-5 00 6 P80 ... ... : B-4 00 . ... : ... .. 4 ... : ... .. . ... ... : ... .. . ... ... : ... .. . ... ... : E-4 01 F P80 ...
ROW 29 : ... .. B ... ... ... : ... .. 4 ... ... ... : C#4 00 . ... : ... .. 3 ... : ... .. . ... ... : ... .. . ... ... : ... .. . ... ... : ... .. D P7D ...
ROW 2A : ... .. . ... ... ... : ... .. 2 ... ... ... : F#3 00 . ... : ... .. 1 ... : ... .. . ... ... : ... .. . ... ... : ... .. . ... ... : ... .. 8 ... ...
ROW 2B : ... .. A ... ... ... : ... .. 1 ... ... ... : F-3 00 . ... : ... .. . ... : ... .. . ... ... : ... .. . ... ... : ... .. . ... ... : ... .. . P80 ...
ROW 2C : ... .. 8 ... ... ... : ... .. . ... ... ... : C-3 00 . ... : ... .. . ... : ... .. . ... ... : ... .. . ... ... : ... .. . ... ... : ... .. . P83 ...
ROW 2D : ... .. 7 ... ... ... : ... .. 0 ... ... ... : ... .. . ... : ... .. 0 ... : ... .. . ... ... : ... .. . ... ... : ... .. . ... ... : ... .. . ... ...
ROW 2E : ... .. D ... ... ... : G#5 00 6 P80 ... ... : ... .. . ... : ... .. 8 ... : ... .. . ... ... : ... .. . ... ... : ... .. . ... ... : ... .. . P80 ...
ROW 2F : ... .. B ... ... ... : ... .. 4 ... ... ... : ... .. . ... : ... .. 6 ... : ... .. . ... ... : ... .. . ... ... : ... .. . ... ... : ... .. . P7E ...
ROW 30 : ... .. . ... ... ... : ... .. 2 ... ... ... : ... .. . ... : ... .. 3 ... : ... .. . ... ... : ... .. . ... ... : ... .. . ... ... : ... .. . P7D ...
ROW 31 : ... .. A ... ... ... : ... .. 1 ... ... ... : ... .. . ... : ... .. 1 ... : ... .. . ... ... : ... .. . ... ... : ... .. . ... ... : ... .. . P7F ...
ROW 32 : ... .. 8 ... ... ... : ... .. . ... ... ... : ... .. . ... : ... .. . ... : ... .. . ... ... : ... .. . ... ... : ... .. . ... ... : ... .. . P82 ...
ROW 33 : ... .. 7 ... ... ... : ... .. 0 ... ... ... : ... .. . ... : ... .. 0 ... : ... .. . ... ... : ... .. . ... ... : ... .. . ... ... : ... .. . P83 ...
ROW 34 : E-2 00 D ... ... ... : G-5 00 6 P80 ... ... : ... .. . ... : ... .. F ... : ... .. . ... ... : E-3 01 9 ... ... : C-4 01 9 ... ... : F-4 01 F P81 ...
ROW 35 : ... .. B ... ... ... : ... .. 4 ... ... ... : ... .. . ... : ... .. C ... : ... .. . ... ... : ... .. 8 ... ... : ... .. 8 ... ... : ... .. D P7F ...
ROW 36 : ... .. . ... ... ... : ... .. 2 ... ... ... : ... .. . ... : ... .. 6 ... : ... .. . ... ... : ... .. . ... ... : ... .. . ... ... : ... .. 8 P7D ...
ROW 37 : ... .. 0 ... ... ... : ... .. 1 ... ... ... : ... .. . ... : ... .. 3 ... : ... .. . ... ... : ... .. . ... ... : ... .. . ... ... : ... .. . P7E ...
ROW 38 : ... .. . ... ... ... : ... .. . ... ... ... : ... .. . ... : ... .. 2 ... : ... .. . ... ... : ... .. 7 ... ... : ... .. 7 ... ... : ... .. . P80 ...
ROW 39 : ... .. . ... ... ... : ... .. 0 ... ... ... : ... .. . ... : ... .. 0 ... : ... .. . ... ... : ... .. . ... ... : ... .. . ... ... : ... .. . P83 ...
ROW 3A : F-2 00 D P81 ... ... : F#5 00 6 P80 ... ... : --- .. . ... : ... .. 2 ... : ... .. . ... ... : --- .. . P82 ... : --- .. . ... ... : ... .. . ... ...
ROW 3B : ... .. B ... ... ... : ... .. 4 ... ... ... : ... .. . ... : ... .. 1 ... : ... .. . ... ... : ... .. . ... ... : ... .. . ... ... : ... .. . P80 ...
ROW 3C : ... .. . ... ... ... : ... .. 2 ... ... ... : ... .. . ... : ... .. . ... : ... .. . ... ... : ... .. . ... ... : ... .. . ... ... : ... .. . P7D ...
ROW 3D : ... .. 0 ... ... ... : ... .. 1 ... ... ... : ... .. . ... : ... .. . ... : ... .. . ... ... : ... .. . ... ... : ... .. . ... ... : ... .. . ... ...
ROW 3E : ... .. . ... ... ... : ... .. . ... ... ... : ... .. . ... : ... .. . ... : ... .. . ... ... : ... .. . ... ... : ... .. . ... ... : ... .. . P80 ...
ROW 3F : ... .. . ... ... ... : ... .. 0 ... ... ... : ... .. . ... : ... .. 0 ... : ... .. . ... ... : ... .. . ... ... : ... .. . ... ... : ... .. . P82 ...
ROW 40 : A#1 00 F P81 ... ... : F-5 00 6 P80 ... ... : A-4 00 . ... : ... .. 4 ... : ... .. . ... ... : A#2 01 9 P80 ... : ... .. . ... ... : --- .. . ... ...
ROW 41 : ... .. E ... ... ... : ... .. 4 ... ... ... : B-3 00 . ... : ... .. 3 ... : ... .. . ... ... : ... .. 8 ... ... : ... .. . ... ... : ... .. . ... ...
ROW 42 : ... .. D ... ... ... : ... .. 2 ... ... ... : E-3 00 . ... : ... .. 1 ... : ... .. . ... ... : ... .. . ... ... : ... .. . ... ... : ... .. . ... ...
ROW 43 : ... .. A ... ... ... : ... .. 1 ... ... ... : --- .. . ... : ... .. . ... : ... .. . ... ... : ... .. . ... ... : ... .. . ... ... : ... .. . ... ...
ROW 44 : ... .. . ... ... ... : ... .. . ... ... ... : ... .. . ... : ... .. . ... : ... .. . ... ... : ... .. 7 ... ... : ... .. . ... ... : ... .. . ... ...
ROW 45 : ... .. . ... ... ... : ... .. 0 ... ... ... : ... .. . ... : ... .. 0 ... : ... .. . ... ... : ... .. . ... ... : ... .. . ... ... : ... .. . ... ...
ROW 46 : A-1 00 F ... ... ... : F#5 00 6 P80 ... ... : A-2 00 . ... : ... .. 8 ... : ... .. . ... ... : A-2 01 9 ... ... : ... .. . ... ... : ... .. . ... ...
ROW 47 : ... .. E ... ... ... : ... .. 4 ... ... ... : ... .. . ... : ... .. 6 ... : ... .. . ... ... : ... .. 8 ... ... : ... .. . ... ... : ... .. . ... ...
ROW 48 : ... .. D ... ... ... : ... .. 2 ... ... ... : ... .. . ... : ... .. 3 ... : ... .. . ... ... : ... .. . ... ... : ... .. . ... ... : ... .. . ... ...
ROW 49 : ... .. A ... ... ... : ... .. 1 ... ... ... : --- .. . ... : ... .. 1 ... : ... .. . ... ... : ... .. . ... ... : ... .. . ... ... : ... .. . ... ...
ROW 4A : ... .. . ... ... ... : ... .. . ... ... ... : ... .. . ... : ... .. . ... : ... .. . ... ... : ... .. 7 ... ... : ... .. . ... ... : ... .. . ... ...
ROW 4B : ... .. . ... ... ... : ... .. 0 ... ... ... : ... .. . ... : ... .. 0 ... : ... .. . ... ... : ... .. . ... ... : ... .. . ... ... : ... .. . ... ...
ROW 4C : A#1 00 F ... ... ... : F-5 00 6 P80 ... ... : A#2 00 . ... : ... .. F ... : ... .. . ... ... : A#2 01 9 ... ... : A#3 01 9 ... ... : A#2 01 F P88 ...
ROW 4D : ... .. E ... ... ... : ... .. 4 ... ... ... : ... .. . ... : ... .. C ... : ... .. . ... ... : ... .. 8 ... ... : ... .. 8 ... ... : ... .. D ... ...
ROW 4E : ... .. D ... ... ... : ... .. 2 ... ... ... : ... .. . ... : ... .. 6 ... : ... .. . ... ... : ... .. . ... ... : ... .. . ... ... : ... .. 8 P85 ...
ROW 4F : ... .. A ... ... ... : ... .. 1 ... ... ... : --- .. . ... : ... .. 3 ... : ... .. . ... ... : ... .. . ... ... : ... .. . ... ... : ... .. . P83 ...
ROW 50 : ... .. . ... ... ... : ... .. . ... ... ... : ... .. . ... : ... .. 2 ... : ... .. . ... ... : ... .. 7 ... ... : ... .. 7 ... ... : ... .. . P82 ...
ROW 51 : ... .. . ... ... ... : ... .. 0 ... ... ... : ... .. . ... : ... .. 0 ... : ... .. . ... ... : ... .. . ... ... : ... .. . ... ... : ... .. . P84 ...
ROW 52 : C-2 00 F ... ... ... : F#5 00 6 P80 ... ... : C-3 00 . ... : ... .. 4 ... : ... .. . ... ... : C-3 01 9 ... ... : --- .. . ... ... : ... .. . P87 ...
ROW 53 : ... .. E ... ... ... : ... .. 4 ... ... ... : ... .. . ... : ... .. 3 ... : ... .. . ... ... : ... .. 8 ... ... : ... .. . ... ... : ... .. 4 P88 ...
ROW 54 : ... .. D ... ... ... : ... .. 2 ... ... ... : ... .. . ... : ... .. 1 ... : ... .. . ... ... : ... .. . ... ... : ... .. . ... ... : ... .. . P86 ...
ROW 55 : ... .. A ... ... ... : ... .. 1 ... ... ... : --- .. . ... : ... .. . ... : ... .. . ... ... : ... .. . ... ... : ... .. . ... ... : ... .. 1 P84 ...
ROW 56 : ... .. . ... ... ... : ... .. . ... ... ... : ... .. . ... : ... .. . ... : ... .. . ... ... : ... .. 7 ... ... : ... .. . ... ... : ... .. . P82 ...
ROW 57 : ... .. . ... ... ... : ... .. 0 ... ... ... : ... .. . ... : ... .. 0 ... : ... .. . ... ... : ... .. . ... ... : ... .. . ... ... : ... .. . P83 ...
ROW 58 : C#2 00 F ... ... ... : F-5 00 6 P80 ... ... : C-5 00 . ... : ... .. 2 ... : ... .. . ... ... : C#3 01 9 ... ... : C#4 01 9 ... ... : C#3 01 F P85 ...
ROW 59 : ... .. E ... ... ... : ... .. 4 ... ... ... : D-4 00 . ... : ... .. 1 ... : ... .. . ... ... : ... .. 8 ... ... : ... .. 8 ... ... : ... .. D P88 ...
ROW 5A : ... .. D ... ... ... : ... .. 2 ... ... ... : G-3 00 . ... : ... .. . ... : ... .. . ... ... : ... .. . ... ... : ... .. . ... ... : ... .. 8 ... ...
ROW 5B : ... .. A ... ... ... : ... .. 1 ... ... ... : F#3 00 . ... : ... .. . ... : ... .. . ... ... : ... .. . ... ... : ... .. . ... ... : ... .. . P85 ...
ROW 5C : ... .. . ... ... ... : ... .. . ... ... ... : C#3 00 . ... : ... .. . ... : ... .. . ... ... : ... .. 7 ... ... : ... .. 7 ... ... : ... .. . P82 ...
ROW 5D : ... .. . ... ... ... : ... .. 0 ... ... ... : ... .. . ... : ... .. 0 ... : ... .. . ... ... : ... .. . ... ... : ... .. . ... ... : ... .. . ... ...
ROW 5E : ... .. 0 ... ... ... : F#5 00 6 P80 ... ... : ... .. . ... : ... .. 4 ... : ... .. . ... ... : --- .. . P83 ... : ... .. . ... ... : ... .. . P85 ...
ROW 5F : ... .. . ... ... ... : ... .. 4 ... ... ... : ... .. . ... : ... .. 3 ... : ... .. . ... ... : ... .. . ... ... : ... .. 6 ... ... : ... .. 4 P87 ...
ROW 60 : ... .. . ... ... ... : ... .. 2 ... ... ... : ... .. . ... : ... .. 1 ... : ... .. . ... ... : ... .. . ... ... : ... .. . ... ... : ... .. . P88 ...
ROW 61 : ... .. . ... ... ... : ... .. 1 ... ... ... : --- .. . ... : ... .. . ... : ... .. . ... ... : ... .. . ... ... : ... .. . ... ... : ... .. 1 P86 ...
ROW 62 : ... .. . ... ... ... : ... .. . ... ... ... : ... .. . ... : ... .. . ... : ... .. . ... ... : ... .. . ... ... : ... .. . ... ... : ... .. . P83 ...
ROW 63 : ... .. . ... ... ... : ... .. 0 ... ... ... : ... .. . ... : ... .. 0 ... : ... .. . ... ... : ... .. . ... ... : ... .. . ... ... : ... .. . P82 ...
ROW 64 : F-1 00 F P81 ... ... : F-5 00 6 P80 ... ... : E-4 00 . ... : ... .. F ... : ... .. . ... ... : F-2 01 9 P80 ... : F-3 01 9 ... ... : F-2 01 F P84 ...
ROW 65 : ... .. E ... ... ... : ... .. 4 ... ... ... : F#3 00 . ... : ... .. C ... : ... .. . ... ... : ... .. 8 ... ... : ... .. 8 ... ... : ... .. D P86 ...
ROW 66 : ... .. D ... ... ... : ... .. 2 ... ... ... : B-2 00 . ... : ... .. 6 ... : ... .. . ... ... : ... .. . ... ... : ... .. . ... ... : ... .. 8 P88 ...
ROW 67 : ... .. A ... ... ... : ... .. 1 ... ... ... : A#2 00 . ... : ... .. 3 ... : ... .. . ... ... : ... .. . ... ... : ... .. . ... ... : ... .. . P87 ...
ROW 68 : ... .. . ... ... ... : ... .. . ... ... ... : F-2 00 . ... : ... .. 2 ... : ... .. . ... ... : ... .. 7 ... ... : ... .. 7 ... ... : ... .. . P85 ...
ROW 69 : ... .. . ... ... ... : ... .. 0 ... ... ... : ... .. . ... : ... .. 0 ... : ... .. . ... ... : ... .. . ... ... : ... .. . ... ... : ... .. . P82 ...
ROW 6A : ... .. 0 ... ... ... : F#5 00 6 P80 ... ... : ... .. . ... : ... .. F ... : ... .. . ... ... : --- .. . P7E ... : --- .. . ... ... : ... .. . ... ...
ROW 6B : ... .. . ... ... ... : ... .. 4 ... ... ... : ... .. . ... : ... .. C ... : ... .. . ... ... : ... .. . ... ... : ... .. . ... ... : ... .. . P85 ...
ROW 6C : ... .. . ... ... ... : ... .. 2 ... ... ... : ... .. . ... : ... .. 6 ... : ... .. . ... ... : ... .. . ... ... : ... .. . ... ... : ... .. . P88 ...
ROW 6D : ... .. . ... ... ... : ... .. 1 ... ... ... : --- .. . ... : ... .. 3 ... : ... .. . ... ... : ... .. . ... ... : ... .. . ... ... : ... .. . ... ...
ROW 6E : ... .. . ... ... ... : ... .. . ... ... ... : ... .. . ... : ... .. 2 ... : ... .. . ... ... : ... .. . ... ... : ... .. . ... ... : ... .. . P85 ...
ROW 6F : ... .. . ... ... ... : ... .. 0 ... ... ... : ... .. . ... : ... .. 0 ... : ... .. . ... ... : ... .. . ... ... : ... .. . ... ... : ... .. . P83 ...
ROW 70 : C#2 00 F P81 ... ... : F-5 00 6 P80 ... ... : A-4 00 . ... : ... .. 2 ... : ... .. . ... ... : C#3 01 9 P80 ... : ... .. . ... ... : ... .. . P82 ...
ROW 71 : ... .. E ... ... ... : ... .. 4 ... ... ... : B-3 00 . ... : ... .. 1 ... : ... .. . ... ... : ... .. 8 ... ... : ... .. . ... ... : ... .. 4 P84 ...
ROW 72 : ... .. D ... ... ... : ... .. 2 ... ... ... : E-3 00 . ... : ... .. . ... : ... .. . ... ... : ... .. . ... ... : ... .. . ... ... : ... .. . P87 ...
ROW 73 : ... .. A ... ... ... : ... .. 1 ... ... ... : --- .. . ... : ... .. . ... : ... .. . ... ... : ... .. . ... ... : ... .. . ... ... : ... .. 1 P88 ...
ROW 74 : ... .. . ... ... ... : ... .. . ... ... ... : ... .. . ... : ... .. . ... : ... .. . ... ... : ... .. 7 ... ... : ... .. . ... ... : ... .. . P86 ...
ROW 75 : ... .. . ... ... ... : ... .. 0 ... ... ... : ... .. . ... : ... .. 0 ... : ... .. . ... ... : ... .. . ... ... : ... .. . ... ... : ... .. . P84 ...
ROW 76 : C-2 00 F ... ... ... : E-5 00 6 P80 ... ... : A-2 00 . ... : ... .. 4 ... : ... .. . ... ... : C-3 01 9 ... ... : ... .. . ... ... : ... .. . P82 ...
ROW 77 : ... .. E ... ... ... : ... .. 4 ... ... ... : ... .. . ... : ... .. 3 ... : ... .. . ... ... : ... .. 8 ... ... : ... .. . ... ... : ... .. . P83 ...
ROW 78 : ... .. D ... ... ... : ... .. 2 ... ... ... : ... .. . ... : ... .. 1 ... : ... .. . ... ... : ... .. . ... ... : ... .. . ... ... : ... .. . P85 ...
ROW 79 : ... .. A ... ... ... : ... .. 1 ... ... ... : --- .. . ... : ... .. . ... : ... .. . ... ... : ... .. . ... ... : ... .. . ... ... : ... .. . P88 ...
ROW 7A : ... .. . ... ... ... : ... .. . ... ... ... : ... .. . ... : ... .. . ... : ... .. . ... ... : ... .. 7 ... ... : ... .. . ... ... : ... .. 0 ... ...
ROW 7B : ... .. . ... ... ... : ... .. 0 ... ... ... : ... .. . ... : ... .. 0 ... : ... .. . ... ... : ... .. . ... ... : ... .. . ... ... : ... .. . P85 ...
ROW 7C : A#1 00 F ... ... ... : D#5 00 6 P80 ... ... : A#2 00 . ... : ... .. F ... : ... .. . ... ... : A#2 01 9 ... ... : A#3 01 9 ... ... : A#2 01 F P82 ...
ROW 7D : ... .. E ... ... ... : ... .. 4 ... ... ... : ... .. . ... : ... .. C ... : ... .. . ... ... : ... .. 8 ... ... : ... .. 8 ... ... : ... .. D ... ...
ROW 7E : ... .. D ... ... ... : ... .. 2 ... ... ... : ... .. . ... : ... .. 6 ... : ... .. . ... ... : ... .. . ... ... : ... .. . ... ... : ... .. 8 P85 ...
ROW 7F : ... .. A ... ... ... : ... .. 1 ... ... ... : --- .. . ... : ... .. 3 ... : ... .. . ... ... : ... .. . ... ... : ... .. . ... ... : ... .. . P87 ...
ROW 80 : ... .. . ... ... ... : ... .. . ... ... ... : ... .. . ... : ... .. 2 ... : ... .. . ... ... : ... .. 7 ... ... : ... .. 7 ... ... : ... .. . P88 ...
ROW 81 : ... .. . ... ... ... : ... .. 0 ... ... ... : ... .. . ... : ... .. 0 ... : ... .. . ... ... : ... .. . ... ... : ... .. . ... ... : ... .. . P86 ...
ROW 82 : C-2 00 F ... ... ... : D-5 00 6 P80 ... ... : C-3 00 . ... : ... .. F ... : ... .. . ... ... : C-3 01 9 ... ... : --- .. . ... ... : ... .. . P83 ...
ROW 83 : ... .. E ... ... ... : ... .. 4 ... ... ... : ... .. . ... : ... .. C ... : ... .. . ... ... : ... .. 8 ... ... : ... .. . ... ... : ... .. 4 P82 ...
ROW 84 : ... .. D ... ... ... : ... .. 2 ... ... ... : ... .. . ... : ... .. 6 ... : ... .. . ... ... : ... .. . ... ... : ... .. . ... ... : ... .. . P84 ...
ROW 85 : ... .. A ... ... ... : ... .. 1 ... ... ... : --- .. . ... : ... .. 3 ... : ... .. . ... ... : ... .. . ... ... : ... .. . ... ... : ... .. 1 P86 ...
ROW 86 : ... .. . ... ... ... : ... .. . ... ... ... : ... .. . ... : ... .. 2 ... : ... .. . ... ... : ... .. 7 ... ... : ... .. . ... ... : ... .. . P88 ...
ROW 87 : ... .. . ... ... ... : ... .. 0 ... ... ... : ... .. . ... : ... .. 0 ... : ... .. . ... ... : ... .. . ... ... : ... .. . ... ... : ... .. . P87 ...
ROW 88 : C#2 00 F ... ... ... : C#5 00 6 P80 ... ... : C-5 00 . ... : ... .. 4 ... : ... .. . ... ... : C#3 01 9 ... ... : C#4 01 9 ... ... : C#3 01 F P85 ...
ROW 89 : ... .. E ... ... ... : ... .. 4 ... ... ... : D-4 00 . ... : ... .. 3 ... : ... .. . ... ... : ... .. 8 ... ... : ... .. 8 ... ... : ... .. D P82 ...
ROW 8A : ... .. D ... ... ... : ... .. 2 ... ... ... : G-3 00 . ... : ... .. 1 ... : ... .. . ... ... : ... .. . ... ... : ... .. . ... ... : ... .. 8 ... ...
ROW 8B : ... .. A ... ... ... : ... .. 1 ... ... ... : F#3 00 . ... : ... .. . ... : ... .. . ... ... : ... .. . ... ... : ... .. . ... ... : ... .. . P85 ...
ROW 8C : ... .. . ... ... ... : ... .. . ... ... ... : C#3 00 . ... : ... .. . ... : ... .. . ... ... : ... .. 7 ... ... : ... .. 7 ... ... : ... .. . P88 ...
ROW 8D : ... .. . ... ... ... : ... .. 0 ... ... ... : ... .. . ... : ... .. 0 ... : ... .. . ... ... : ... .. . ... ... : ... .. . ... ... : ... .. . ... ...
ROW 8E : ... .. 0 ... ... ... : D-5 00 6 P80 ... ... : ... .. . ... : ... .. 8 ... : ... .. . ... ... : --- .. . P83 ... : ... .. . ... ... : ... .. . P85 ...
ROW 8F : ... .. . ... ... ... : ... .. 4 ... ... ... : ... .. . ... : ... .. 6 ... : ... .. . ... ... : ... .. . ... ... : ... .. 6 ... ... : ... .. 4 P83 ...
ROW 90 : ... .. . ... ... ... : ... .. 2 ... ... ... : ... .. . ... : ... .. 3 ... : ... .. . ... ... : ... .. . ... ... : ... .. . ... ... : ... .. . P82 ...
ROW 91 : ... .. . ... ... ... : ... .. 1 ... ... ... : --- .. . ... : ... .. 1 ... : ... .. . ... ... : ... .. . ... ... : ... .. . ... ... : ... .. 1 P84 ...
ROW 92 : ... .. . ... ... ... : ... .. . ... ... ... : ... .. . ... : ... .. . ... : ... .. . ... ... : ... .. . ... ... : ... .. . ... ... : ... .. . P87 ...
ROW 93 : ... .. . ... ... ... : ... .. 0 ... ... ... : ... .. . ... : ... .. 0 ... : ... .. . ... ... : ... .. . ... ... : ... .. . ... ... : ... .. . P88 ...
ROW 94 : F-1 00 F P81 ... ... : D#5 00 6 P80 ... ... : E-4 00 . ... : ... .. F ... : ... .. . ... ... : F-2 01 9 P80 ... : F-3 01 9 ... ... : F-2 01 F P86 ...
ROW 95 : ... .. E ... ... ... : ... .. 4 ... ... ... : F#3 00 . ... : ... .. C ... : ... .. . ... ... : ... .. 8 ... ... : ... .. 8 ... ... : ... .. D P84 ...
ROW 96 : ... .. D ... ... ... : ... .. 2 ... ... ... : B-2 00 . ... : ... .. 6 ... : ... .. . ... ... : ... .. . ... ... : ... .. . ... ... : ... .. 8 P82 ...
ROW 97 : ... .. A ... ... ... : ... .. 1 ... ... ... : A#2 00 . ... : ... .. 3 ... : ... .. . ... ... : ... .. . ... ... : ... .. . ... ... : ... .. . P83 ...
ROW 98 : ... .. . ... ... ... : ... .. . ... ... ... : F-2 00 . ... : ... .. 2 ... : ... .. . ... ... : ... .. 7 ... ... : ... .. 7 ... ... : ... .. . P85 ...
ROW 99 : ... .. . ... ... ... : ... .. 0 ... ... ... : ... .. . ... : ... .. 0 ... : ... .. . ... ... : ... .. . ... ... : ... .. . ... ... : ... .. . P88 ...
ROW 9A : ... .. . ... ... ... : E-5 00 6 P80 ... ... : ... .. . ... : ... .. 2 ... : ... .. . ... ... : --- .. . P7E ... : --- .. . ... ... : ... .. . ... ...
ROW 9B : ... .. . ... ... ... : ... .. 4 ... ... ... : ... .. . ... : ... .. 1 ... : ... .. . ... ... : ... .. . ... ... : ... .. . ... ... : ... .. . P85 ...
ROW 9C : ... .. . ... ... ... : ... .. 2 ... ... ... : ... .. . ... : ... .. . ... : ... .. . ... ... : ... .. . ... ... : ... .. . ... ... : ... .. . P82 ...
ROW 9D : ... .. 0 ... ... ... : ... .. 1 ... ... ... : --- .. . ... : ... .. . ... : ... .. . ... ... : ... .. . ... ... : ... .. . ... ... : ... .. . ... ...
ROW 9E : ... .. . ... ... ... : ... .. . ... ... ... : ... .. . ... : ... .. . ... : ... .. . ... ... : ... .. . ... ... : ... .. . ... ... : ... .. . P85 ...
ROW 9F : ... .. . ... ... ... : ... .. 0 ... ... ... : ... .. . ... : ... .. 0 ... : ... .. . ... ... : ... .. . ... ... : ... .. . ... ... : ... .. . P87 ...
ROW A0 : A#1 00 D P81 ... ... : F-5 00 6 P80 ... ... : A-4 00 . ... : ... .. 4 ... : ... .. . ... ... : ... .. . ... ... : ... .. . ... ... : ... .. . P83 ...
ROW A1 : ... .. B ... ... ... : ... .. 4 ... ... ... : B-3 00 . ... : ... .. 3 ... : ... .. . ... ... : ... .. . ... ... : ... .. . ... ... : ... .. 4 P81 ...
ROW A2 : ... .. . ... ... ... : ... .. 2 ... ... ... : E-3 00 . ... : ... .. 1 ... : ... .. . ... ... : ... .. . ... ... : ... .. . ... ... : ... .. . P7E ...
ROW A3 : ... .. A ... ... ... : ... .. 1 ... ... ... : D#3 00 . ... : ... .. . ... : ... .. . ... ... : ... .. . ... ... : ... .. . ... ... : ... .. 1 P7D ...
ROW A4 : ... .. 8 ... ... ... : ... .. . ... ... ... : A#2 00 . ... : ... .. . ... : ... .. . ... ... : ... .. . ... ... : ... .. . ... ... : ... .. . P7F ...
ROW A5 : ... .. 7 ... ... ... : ... .. 0 ... ... ... : ... .. . ... : ... .. 0 ... : ... .. . ... ... : ... .. . ... ... : ... .. . ... ... : ... .. . P81 ...
ROW A6 : ... .. 6 ... ... ... : F#5 00 6 P80 ... ... : ... .. . ... : ... .. 8 ... : ... .. . ... ... : ... .. . ... ... : ... .. . ... ... : ... .. . P83 ...
ROW A7 : ... .. . ... ... ... : ... .. 4 ... ... ... : ... .. . ... : ... .. 6 ... : ... .. . ... ... : ... .. . ... ... : ... .. . ... ... : ... .. . P82 ...
ROW A8 : ... .. 5 ... ... ... : ... .. 2 ... ... ... : ... .. . ... : ... .. 3 ... : ... .. . ... ... : ... .. . ... ... : ... .. . ... ... : ... .. . P80 ...
ROW A9 : ... .. . ... ... ... : ... .. 1 ... ... ... : ... .. . ... : ... .. 1 ... : ... .. . ... ... : ... .. . ... ... : ... .. . ... ... : ... .. . P7D ...
ROW AA : ... .. 4 ... ... ... : ... .. . ... ... ... : ... .. . ... : ... .. . ... : ... .. . ... ... : ... .. . ... ... : ... .. . ... ... : ... .. 0 ... ...
ROW AB : ... .. . ... ... ... : ... .. 0 ... ... ... : ... .. . ... : ... .. 0 ... : ... .. . ... ... : ... .. . ... ... : ... .. . ... ... : ... .. . P80 ...
ROW AC : F-2 00 D ... ... ... : F-5 00 6 P80 ... ... : ... .. . ... : ... .. F ... : ... .. . ... ... : A#3 01 9 P80 ... : C#4 01 9 ... ... : F-4 01 F P83 ...
ROW AD : ... .. B ... ... ... : ... .. 4 ... ... ... : ... .. . ... : ... .. C ... : ... .. . ... ... : ... .. 8 ... ... : ... .. 8 ... ... : ... .. D ... ...
ROW AE : ... .. . ... ... ... : ... .. 2 ... ... ... : ... .. . ... : ... .. 6 ... : ... .. . ... ... : ... .. . ... ... : ... .. . ... ... : ... .. 8 P80 ...
ROW AF : ... .. 0 ... ... ... : ... .. 1 ... ... ... : --- .. . ... : ... .. 3 ... : ... .. . ... ... : ... .. . ... ... : ... .. . ... ... : ... .. . P7E ...
ROW B0 : ... .. . ... ... ... : ... .. . ... ... ... : ... .. . ... : ... .. 2 ... : ... .. . ... ... : ... .. 7 ... ... : ... .. 7 ... ... : ... .. . P7D ...
ROW B1 : ... .. . ... ... ... : ... .. 0 ... ... ... : ... .. . ... : ... .. 0 ... : ... .. . ... ... : ... .. . ... ... : ... .. . ... ... : ... .. . P7F ...
ROW B2 : F-2 00 D P81 ... ... : F#5 00 6 P80 ... ... : ... .. . ... : ... .. 4 ... : ... .. . ... ... : --- .. . ... ... : --- .. . ... ... : --- .. . ... ...
ROW B3 : ... .. B ... ... ... : ... .. 4 ... ... ... : ... .. . ... : ... .. 3 ... : ... .. . ... ... : ... .. . ... ... : ... .. . ... ... : ... .. . ... ...
ROW B4 : ... .. . ... ... ... : ... .. 2 ... ... ... : ... .. . ... : ... .. 1 ... : ... .. . ... ... : ... .. . ... ... : ... .. . ... ... : ... .. . ... ...
ROW B5 : ... .. 0 ... ... ... : ... .. 1 ... ... ... : ... .. . ... : ... .. . ... : ... .. . ... ... : ... .. . ... ... : ... .. . ... ... : ... .. . ... ...
ROW B6 : ... .. . ... ... ... : ... .. . ... ... ... : ... .. . ... : ... .. . ... : ... .. . ... ... : ... .. . ... ... : ... .. . ... ... : ... .. . ... ...
ROW B7 : ... .. . ... ... ... : ... .. 0 ... ... ... : ... .. . ... : ... .. 0 ... : ... .. . ... ... : ... .. . ... ... : ... .. . ... ... : ... .. . ... ...
ROW B8 : E-2 00 D P81 ... ... : F-5 00 6 P80 ... ... : E-4 00 . ... : ... .. 2 ... : ... .. . ... ... : ... .. . ... ... : ... .. . ... ... : E-4 01 F P80 ...
ROW B9 : ... .. B ... ... ... : ... .. 4 ... ... ... : F#3 00 . ... : ... .. 1 ... : ... .. . ... ... : ... .. . ... ... : ... .. . ... ... : ... .. D P83 ...
ROW BA : ... .. . ... ... ... : ... .. 2 ... ... ... : B-2 00 . ... : ... .. . ... : ... .. . ... ... : ... .. . ... ... : ... .. . ... ... : ... .. 8 ... ...
ROW BB : ... .. A ... ... ... : ... .. 1 ... ... ... : A#2 00 . ... : ... .. . ... : ... .. . ... ... : ... .. . ... ... : ... .. . ... ... : ... .. . P80 ...
ROW BC : ... .. 8 ... ... ... : ... .. . ... ... ... : F-2 00 . ... : ... .. . ... : ... .. . ... ... : ... .. . ... ... : ... .. . ... ... : ... .. . P7D ...
ROW BD : ... .. 7 ... ... ... : ... .. 0 ... ... ... : ... .. . ... : ... .. 0 ... : ... .. . ... ... : ... .. . ... ... : ... .. . ... ... : ... .. . ... ...
ROW BE : ... .. D ... ... ... : F#5 00 6 P80 ... ... : ... .. . ... : ... .. 4 ... : ... .. . ... ... : ... .. . ... ... : ... .. . ... ... : ... .. . P80 ...
ROW BF : ... .. B ... ... ... : ... .. 4 ... ... ... : ... .. . ... : ... .. 3 ... : ... .. . ... ... : ... .. . ... ... : ... .. . ... ... : ... .. . P82 ...
ROW C0 : ... .. . ... ... ... : ... .. 2 ... ... ... : ... .. . ... : ... .. 1 ... : ... .. . ... ... : ... .. . ... ... : ... .. . ... ... : ... .. . P83 ...
ROW C1 : ... .. A ... ... ... : ... .. 1 ... ... ... : ... .. . ... : ... .. . ... : ... .. . ... ... : ... .. . ... ... : ... .. . ... ... : ... .. . P81 ...
ROW C2 : ... .. 8 ... ... ... : ... .. . ... ... ... : ... .. . ... : ... .. . ... : ... .. . ... ... : ... .. . ... ... : ... .. . ... ... : ... .. . P7E ...
ROW C3 : ... .. 7 ... ... ... : ... .. 0 ... ... ... : ... .. . ... : ... .. 0 ... : ... .. . ... ... : ... .. . ... ... : ... .. . ... ... : ... .. . P7D ...
ROW C4 : F-2 00 D ... ... ... : F-5 00 6 P80 ... ... : ... .. . ... : ... .. F ... : ... .. . ... ... : A-3 01 9 ... ... : C#4 01 9 ... ... : F-4 01 F P7F ...
ROW C5 : ... .. B ... ... ... : ... .. 4 ... ... ... : ... .. . ... : ... .. C ... : ... .. . ... ... : ... .. 8 ... ... : ... .. 8 ... ... : ... .. D P81 ...
ROW C6 : ... .. . ... ... ... : ... .. 2 ... ... ... : ... .. . ... : ... .. 6 ... : ... .. . ... ... : ... .. . ... ... : ... .. . ... ... : ... .. 8 P83 ...
ROW C7 : ... .. 0 ... ... ... : ... .. 1 ... ... ... : --- .. . ... : ... .. 3 ... : ... .. . ... ... : ... .. . ... ... : ... .. . ... ... : ... .. . P82 ...
ROW C8 : ... .. . ... ... ... : ... .. . ... ... ... : ... .. . ... : ... .. 2 ... : ... .. . ... ... : ... .. 7 ... ... : ... .. 7 ... ... : ... .. . P80 ...
ROW C9 : ... .. . ... ... ... : ... .. 0 ... ... ... : ... .. . ... : ... .. 0 ... : ... .. . ... ... : ... .. . ... ... : ... .. . ... ... : ... .. . P7D ...
ROW CA : F-2 00 D P81 ... ... : F#5 00 6 P80 ... ... : ... .. . ... : ... .. F ... : ... .. . ... ... : --- .. . ... ... : --- .. . ... ... : --- .. . ... ...
ROW CB : ... .. B ... ... ... : ... .. 4 ... ... ... : ... .. . ... : ... .. C ... : ... .. . ... ... : ... .. . ... ... : ... .. . ... ... : ... .. . ... ...
ROW CC : ... .. . ... ... ... : ... .. 2 ... ... ... : ... .. . ... : ... .. 6 ... : ... .. . ... ... : ... .. . ... ... : ... .. . ... ... : ... .. . ... ...
ROW CD : ... .. 0 ... ... ... : ... .. 1 ... ... ... : ... .. . ... : ... .. 3 ... : ... .. . ... ... : ... .. . ... ... : ... .. . ... ... : ... .. . ... ...
ROW CE : ... .. . ... ... ... : ... .. . ... ... ... : ... .. . ... : ... .. 2 ... : ... .. . ... ... : ... .. . ... ... : ... .. . ... ... : ... .. . ... ...
ROW CF : ... .. . ... ... ... : ... .. 0 ... ... ... : ... .. . ... : ... .. 0 ... : ... .. . ... ... : ... .. . ... ... : ... .. . ... ... : ... .. . ... ...
ROW D0 : C#2 00 D P81 ... ... : F-5 00 6 P80 ... ... : C-5 00 . ... : ... .. 2 ... : ... .. . ... ... : ... .. . ... ... : ... .. . ... ... : F#4 01 F ... ...
ROW D1 : ... .. B ... ... ... : ... .. 4 ... ... ... : D-4 00 . ... : ... .. 1 ... : ... .. . ... ... : ... .. . ... ... : ... .. . ... ... : ... .. D P7F ...
ROW D2 : ... .. . ... ... ... : ... .. 2 ... ... ... : G-3 00 . ... : ... .. . ... : ... .. . ... ... : ... .. . ... ... : ... .. . ... ... : ... .. 8 P82 ...
ROW D3 : ... .. A ... ... ... : ... .. 1 ... ... ... : F#3 00 . ... : ... .. . ... : ... .. . ... ... : ... .. . ... ... : ... .. . ... ... : ... .. . P83 ...
ROW D4 : ... .. 8 ... ... ... : ... .. . ... ... ... : C#3 00 . ... : ... .. . ... : ... .. . ... ... : ... .. . ... ... : ... .. . ... ... : ... .. . P81 ...
ROW D5 : ... .. 7 ... ... ... : ... .. 0 ... ... ... : ... .. . ... : ... .. 0 ... : ... .. . ... ... : ... .. . ... ... : ... .. . ... ... : ... .. . P7F ...
ROW D6 : ... .. D ... ... ... : F#5 00 6 P80 ... ... : ... .. . ... : ... .. 4 ... : ... .. . ... ... : ... .. . ... ... : ... .. . ... ... : ... .. . P7D ...
ROW D7 : ... .. B ... ... ... : ... .. 4 ... ... ... : ... .. . ... : ... .. 3 ... : ... .. . ... ... : ... .. . ... ... : ... .. . ... ... : ... .. . P7E ...
ROW D8 : ... .. . ... ... ... : ... .. 2 ... ... ... : ... .. . ... : ... .. 1 ... : ... .. . ... ... : ... .. . ... ... : ... .. . ... ... : ... .. . P80 ...
ROW D9 : ... .. A ... ... ... : ... .. 1 ... ... ... : ... .. . ... : ... .. . ... : ... .. . ... ... : ... .. . ... ... : ... .. . ... ... : ... .. . P83 ...
ROW DA : ... .. 8 ... ... ... : ... .. . ... ... ... : ... .. . ... : ... .. . ... : ... .. . ... ... : ... .. . ... ... : ... .. . ... ... : ... .. . ... ...
ROW DB : ... .. 7 ... ... ... : ... .. 0 ... ... ... : ... .. . ... : ... .. 0 ... : ... .. . ... ... : ... .. . ... ... : ... .. . ... ... : ... .. . P80 ...
ROW DC : F-2 00 D ... ... ... : G-5 00 6 P80 ... ... : ... .. . ... : ... .. F ... : ... .. . ... ... : G#3 01 9 ... ... : C#4 01 9 ... ... : F-4 01 F P7D ...
ROW DD : ... .. B ... ... ... : ... .. 4 ... ... ... : ... .. . ... : ... .. C ... : ... .. . ... ... : ... .. 8 ... ... : ... .. 8 ... ... : ... .. D ... ...
ROW DE : ... .. . ... ... ... : ... .. 2 ... ... ... : ... .. . ... : ... .. 6 ... : ... .. . ... ... : ... .. . ... ... : ... .. . ... ... : ... .. 8 P80 ...
ROW DF : ... .. 0 ... ... ... : ... .. 1 ... ... ... : --- .. . ... : ... .. 3 ... : ... .. . ... ... : ... .. . ... ... : ... .. . ... ... : ... .. . P82 ...
ROW E0 : ... .. . ... ... ... : ... .. . ... ... ... : ... .. . ... : ... .. 2 ... : ... .. . ... ... : ... .. 7 ... ... : ... .. 7 ... ... : ... .. . P83 ...
ROW E1 : ... .. . ... ... ... : ... .. 0 ... ... ... : ... .. . ... : ... .. 0 ... : ... .. . ... ... : ... .. . ... ... : ... .. . ... ... : ... .. . P81 ...
ROW E2 : F-2 00 D P81 ... ... : G#5 00 6 P80 ... ... : ... .. . ... : ... .. F ... : ... .. . ... ... : --- .. . P82 ... : --- .. . ... ... : --- .. . ... ...
ROW E3 : ... .. B ... ... ... : ... .. 4 ... ... ... : ... .. . ... : ... .. C ... : ... .. . ... ... : ... .. . ... ... : ... .. . ... ... : ... .. . ... ...
ROW E4 : ... .. . ... ... ... : ... .. 2 ... ... ... : ... .. . ... : ... .. 6 ... : ... .. . ... ... : ... .. . ... ... : ... .. . ... ... : ... .. . ... ...
ROW E5 : ... .. 0 ... ... ... : ... .. 1 ... ... ... : ... .. . ... : ... .. 3 ... : ... .. . ... ... : ... .. . ... ... : ... .. . ... ... : ... .. . ... ...
ROW E6 : ... .. . ... ... ... : ... .. . ... ... ... : ... .. . ... : ... .. 2 ... : ... .. . ... ... : ... .. . ... ... : ... .. . ... ... : ... .. . ... ...
ROW E7 : ... .. . ... ... ... : ... .. 0 ... ... ... : ... .. . ... : ... .. 0 ... : ... .. . ... ... : ... .. . ... ... : ... .. . ... ... : ... .. . ... ...
ROW E8 : F#2 00 D P81 ... ... : A-5 00 6 P80 ... ... : B-4 00 . ... : ... .. 4 ... : ... .. . ... ... : ... .. . ... ... : ... .. . ... ... : E-4 01 F P80 ...
ROW E9 : ... .. B ... ... ... : ... .. 4 ... ... ... : C#4 00 . ... : ... .. 3 ... : ... .. . ... ... : ... .. . ... ... : ... .. . ... ... : ... .. D P7D ...
ROW EA : ... .. . ... ... ... : ... .. 2 ... ... ... : F#3 00 . ... : ... .. 1 ... : ... .. . ... ... : ... .. . ... ... : ... .. . ... ... : ... .. 8 ... ...
ROW EB : ... .. A ... ... ... : ... .. 1 ... ... ... : F-3 00 . ... : ... .. . ... : ... .. . ... ... : ... .. . ... ... : ... .. . ... ... : ... .. . P80 ...
ROW EC : ... .. 8 ... ... ... : ... .. . ... ... ... : C-3 00 . ... : ... .. . ... : ... .. . ... ... : ... .. . ... ... : ... .. . ... ... : ... .. . P83 ...
ROW ED : ... .. 7 ... ... ... : ... .. 0 ... ... ... : ... .. . ... : ... .. 0 ... : ... .. . ... ... : ... .. . ... ... : ... .. . ... ... : ... .. . ... ...
ROW EE : F-2 00 D ... ... ... : G#5 00 6 P80 ... ... : ... .. . ... : ... .. 8 ... : ... .. . ... ... : ... .. . ... ... : ... .. . ... ... : ... .. . P80 ...
ROW EF : ... .. B ... ... ... : ... .. 4 ... ... ... : ... .. . ... : ... .. 6 ... : ... .. . ... ... : ... .. . ... ... : ... .. . ... ... : ... .. . P7E ...
ROW F0 : ... .. . ... ... ... : ... .. 2 ... ... ... : ... .. . ... : ... .. 3 ... : ... .. . ... ... : ... .. . ... ... : ... .. . ... ... : ... .. . P7D ...
ROW F1 : ... .. A ... ... ... : ... .. 1 ... ... ... : ... .. . ... : ... .. 1 ... : ... .. . ... ... : ... .. . ... ... : ... .. . ... ... : ... .. . P7F ...
ROW F2 : ... .. 8 ... ... ... : ... .. . ... ... ... : ... .. . ... : ... .. . ... : ... .. . ... ... : ... .. . ... ... : ... .. . ... ... : ... .. . P82 ...
ROW F3 : ... .. 7 ... ... ... : ... .. 0 ... ... ... : ... .. . ... : ... .. 0 ... : ... .. . ... ... : ... .. . ... ... : ... .. . ... ... : ... .. . P83 ...
ROW F4 : C#2 00 D ... ... ... : G-5 00 6 P80 ... ... : ... .. . ... : ... .. F ... : ... .. . ... ... : G-3 01 9 P80 ... : C#4 01 9 ... ... : F-4 01 F P81 ...
ROW F5 : ... .. B ... ... ... : ... .. 4 ... ... ... : ... .. . ... : ... .. C ... : ... .. . ... ... : ... .. 8 ... ... : ... .. 8 ... ... : ... .. D P7F ...
ROW F6 : ... .. . ... ... ... : ... .. 2 ... ... ... : ... .. . ... : ... .. 6 ... : ... .. . ... ... : ... .. . ... ... : ... .. . ... ... : ... .. 8 P7D ...
ROW F7 : ... .. 0 ... ... ... : ... .. 1 ... ... ... : --- .. . ... : ... .. 3 ... : ... .. . ... ... : ... .. . ... ... : ... .. . ... ... : ... .. . P7E ...
ROW F8 : ... .. . ... ... ... : ... .. . ... ... ... : ... .. . ... : ... .. 2 ... : ... .. . ... ... : ... .. 7 ... ... : ... .. 7 ... ... : ... .. . P80 ...
ROW F9 : ... .. . ... ... ... : ... .. 0 ... ... ... : ... .. . ... : ... .. 0 ... : ... .. . ... ... : ... .. . ... ... : ... .. . ... ... : ... .. . P83 ...
ROW FA : C-2 00 D P81 ... ... : F#5 00 6 P80 ... ... : ... .. . ... : ... .. 2 ... : ... .. . ... ... : --- .. . P81 ... : --- .. . ... ... : ... .. . ... ...
ROW FB : ... .. B ... ... ... : ... .. 4 ... ... ... : ... .. . ... : ... .. 1 ... : ... .. . ... ... : ... .. . ... ... : ... .. . ... ... : ... .. . P80 ...
ROW FC : ... .. . ... ... ... : ... .. 2 ... ... ... : ... .. . ... : ... .. . ... : ... .. . ... ... : ... .. . ... ... : ... .. . ... ... : ... .. . P7D ...
ROW FD : ... .. 0 ... ... ... : ... .. 1 ... ... ... : ... .. . ... : ... .. . ... : ... .. . ... ... : ... .. . ... ... : ... .. . ... ... : ... .. . ... ...
ROW FE : ... .. . ... ... ... : ... .. . ... ... ... : ... .. . ... : ... .. . ... : ... .. . ... ... : ... .. . ... ... : ... .. . ... ... : ... .. . P80 ...
ROW FF : ... .. . ... ... ... : ... .. 0 ... ... ... : ... .. . ... : ... .. 0 ... : ... .. . ... ... : ... .. . ... ... : ... .. . ... ... : ... .. . P82 ...

PATTERN 15
ROW 00 : A#1 00 D P81 ... ... : F-5 00 6 P80 ... ... : A-3 00 . ... : ... .. F ... : ... .. . ... ... : F#3 01 9 P80 ... : ... .. . ... ... : C-5 01 F P83 ...
ROW 01 : ... .. B ... ... ... : ... .. 4 ... ... ... : B-2 00 . ... : ... .. C ... : ... .. . ... ... : ... .. 8 ... ... : ... .. . ... ... : ... .. D P81 ...
ROW 02 : ... .. . ... ... ... : ... .. 2 ... ... ... : E-2 00 . ... : ... .. 6 ... : ... .. . ... ... : ... .. . ... ... : ... .. . ... ... : ... .. 8 P7E ...
ROW 03 : ... .. A ... ... ... : ... .. 1 ... ... ... : D#2 00 . ... : ... .. 3 ... : ... .. . ... ... : ... .. . ... ... : ... .. . ... ... : ... .. . P7D ...
ROW 04 : ... .. 8 ... ... ... : ... .. . ... ... ... : A#1 00 . ... : ... .. 2 ... : ... .. . ... ... : ... .. 7 ... ... : ... .. . ... ... : ... .. . P7F ...
ROW 05 : ... .. 7 ... ... ... : ... .. 0 ... ... ... : ... .. . ... : ... .. 0 ... : ... .. . ... ... : ... .. . ... ... : ... .. . ... ... : ... .. . P81 ...
ROW 06 : ... .. 6 ... ... ... : F#5 00 6 P80 ... ... : ... .. . ... : ... .. . ... : ... .. . ... ... : F-3 01 9 ... ... : ... .. . ... ... : ... .. . P83 ...
ROW 07 : ... .. . ... ... ... : ... .. 4 ... ... ... : ... .. . ... : ... .. . ... : ... .. . ... ... : ... .. 8 ... ... : ... .. . ... ... : ... .. . P82 ...
ROW 08 : ... .. 5 ... ... ... : ... .. 2 ... ... ... : ... .. . ... : ... .. . ... : ... .. . ... ... : ... .. . ... ... : ... .. . ... ... : ... .. . P80 ...
ROW 09 : ... .. . ... ... ... : ... .. 1 ... ... ... : ... .. . ... : ... .. . ... : ... .. . ... ... : ... .. . ... ... : ... .. . ... ... : ... .. . P7D ...
ROW 0A : ... .. 4 ... ... ... : ... .. . ... ... ... : ... .. . ... : ... .. . ... : ... .. . ... ... : ... .. 7 ... ... : ... .. . ... ... : ... .. . ... ...
ROW 0B : ... .. . ... ... ... : ... .. 0 ... ... ... : ... .. . ... : ... .. . ... : ... .. . ... ... : ... .. . ... ... : ... .. . ... ... : ... .. . P80 ...
ROW 0C : A-2 00 D ... ... ... : F-5 00 6 P80 ... ... : C#4 00 . ... : ... .. 3 ... : ... .. . ... ... : E-3 01 9 ... ... : ... .. . ... ... : ... .. . P83 ...
ROW 0D : ... .. B ... ... ... : ... .. 4 ... ... ... : ... .. . ... : ... .. 2 ... : ... .. . ... ... : ... .. 8 ... ... : ... .. . ... ... : ... .. . ... ...
ROW 0E : ... .. . ... ... ... : ... .. 2 ... ... ... : ... .. . ... : ... .. . ... : ... .. . ... ... : ... .. . ... ... : ... .. . ... ... : ... .. . P80 ...
ROW 0F : ... .. A ... ... ... : ... .. 1 ... ... ... : ... .. . ... : ... .. . ... : ... .. . ... ... : ... .. . ... ... : ... .. . ... ... : ... .. . P7E ...
ROW 10 : ... .. 8 ... ... ... : ... .. . ... ... ... : ... .. . ... : ... .. . ... : ... .. . ... ... : ... .. 7 ... ... : ... .. . ... ... : ... .. . P7D ...
ROW 11 : ... .. 7 ... ... ... : ... .. 0 ... ... ... : ... .. . ... : ... .. 1 ... : ... .. . ... ... : ... .. . ... ... : ... .. . ... ... : ... .. . P7F ...
ROW 12 : A#2 00 D ... ... ... : F#5 00 6 P80 ... ... : ... .. . ... : ... .. . ... : ... .. . ... ... : F#3 01 9 ... ... : ... .. . ... ... : A#4 01 F P82 ...
ROW 13 : ... .. B ... ... ... : ... .. 4 ... ... ... : ... .. . ... : ... .. . ... : ... .. . ... ... : ... .. 8 ... ... : ... .. . ... ... : ... .. D P83 ...
ROW 14 : ... .. . ... ... ... : ... .. 2 ... ... ... : ... .. . ... : ... .. . ... : ... .. . ... ... : ... .. . ... ... : ... .. . ... ... : ... .. 8 P81 ...
ROW 15 : ... .. 0 ... ... ... : ... .. 1 ... ... ... : ... .. . ... : ... .. . ... : ... .. . ... ... : ... .. . ... ... : ... .. . ... ... : --- .. . ... ...
ROW 16 : ... .. . ... ... ... : ... .. . ... ... ... : ... .. . ... : ... .. . ... : ... .. . ... ... : ... .. 7 ... ... : ... .. . ... ... : ... .. . ... ...
ROW 17 : ... .. . ... ... ... : ... .. 0 ... ... ... : ... .. . ... : ... .. . ... : ... .. . ... ... : ... .. . ... ... : ... .. . ... ... : ... .. . ... ...
ROW 18 : A#2 00 D P81 ... ... : F-5 00 6 P80 ... ... : A-3 00 . ... : ... .. F ... : ... .. . ... ... : F-3 01 9 ... ... : ... .. . ... ... : A-4 01 F P80 ...
ROW 19 : ... .. B ... ... ... : ... .. 4 ... ... ... : B-2 00 . ... : ... .. C ... : ... .. . ... ... : ... .. 8 ... ... : ... .. . ... ... : ... .. D P83 ...
ROW 1A : ... .. . ... ... ... : ... .. 2 ... ... ... : E-2 00 . ... : ... .. 6 ... : ... .. . ... ... : ... .. . ... ... : ... .. . ... ... : ... .. 8 ... ...
ROW 1B : ... .. A ... ... ... : ... .. 1 ... ... ... : D#2 00 . ... : ... .. 3 ... : ... .. . ... ... : ... .. . ... ... : ... .. . ... ... : ... .. . P80 ...
ROW 1C : ... .. 8 ... ... ... : ... .. . ... ... ... : A#1 00 . ... : ... .. 2 ... : ... .. . ... ... : ... .. 7 ... ... : ... .. . ... ... : ... .. . P7D ...
ROW 1D : ... .. 7 ... ... ... : ... .. 0 ... ... ... : ... .. . ... : ... .. 0 ... : ... .. . ... ... : ... .. . ... ... : ... .. . ... ... : ... .. . ... ...
ROW 1E : ... .. D ... ... ... : F#5 00 6 P80 ... ... : ... .. . ... : ... .. . ... : ... .. . ... ... : ... .. . ... ... : ... .. . ... ... : ... .. . P80 ...
ROW 1F : ... .. B ... ... ... : ... .. 4 ... ... ... : ... .. . ... : ... .. . ... : ... .. . ... ... : ... .. 6 ... ... : ... .. . ... ... : ... .. . P82 ...
ROW 20 : ... .. . ... ... ... : ... .. 2 ... ... ... : ... .. . ... : ... .. . ... : ... .. . ... ... : ... .. . ... ... : ... .. . ... ... : ... .. . P83 ...
ROW 21 : ... .. 0 ... ... ... : ... .. 1 ... ... ... : ... .. . ... : ... .. . ... : ... .. . ... ... : ... .. . ... ... : ... .. . ... ... : ... .. . P81 ...
ROW 22 : ... .. . ... ... ... : ... .. . ... ... ... : ... .. . ... : ... .. . ... : ... .. . ... ... : ... .. . ... ... : ... .. . ... ... : ... .. . P7E ...
ROW 23 : ... .. . ... ... ... : ... .. 0 ... ... ... : ... .. . ... : ... .. . ... : ... .. . ... ... : ... .. . ... ... : ... .. . ... ... : ... .. . P7D ...
ROW 24 : A#2 00 D P81 ... ... : F-5 00 6 P80 ... ... : C#4 00 . ... : ... .. 3 ... : ... .. . ... ... : C#3 01 9 ... ... : ... .. . ... ... : A#4 01 F P7F ...
ROW 25 : ... .. B ... ... ... : ... .. 4 ... ... ... : ... .. . ... : ... .. 2 ... : ... .. . ... ... : ... .. 8 ... ... : ... .. . ... ... : ... .. D P81 ...
ROW 26 : ... .. . ... ... ... : ... .. 2 ... ... ... : ... .. . ... : ... .. . ... : ... .. . ... ... : ... .. . ... ... : ... .. . ... ... : ... .. 8 P83 ...
ROW 27 : ... .. 0 ... ... ... : ... .. 1 ... ... ... : ... .. . ... : ... .. . ... : ... .. . ... ... : ... .. . ... ... : ... .. . ... ... : ... .. . P82 ...
ROW 28 : ... .. . ... ... ... : ... .. . ... ... ... : ... .. . ... : ... .. . ... : ... .. . ... ... : ... .. 7 ... ... : ... .. . ... ... : ... .. . P80 ...
ROW 29 : ... .. . ... ... ... : ... .. 0 ... ... ... : ... .. . ... : ... .. 1 ... : ... .. . ... ... : ... .. . ... ... : ... .. . ... ... : ... .. . P7D ...
ROW 2A : A#2 00 D P81 ... ... : F#5 00 6 P80 ... ... : ... .. . ... : ... .. . ... : ... .. . ... ... : ... .. . ... ... : ... .. . ... ... : --- .. . ... ...
ROW 2B : ... .. B ... ... ... : ... .. 4 ... ... ... : ... .. . ... : ... .. . ... : ... .. . ... ... : ... .. 6 ... ... : ... .. . ... ... : ... .. . ... ...
ROW 2C : ... .. . ... ... ... : ... .. 2 ... ... ... : ... .. . ... : ... .. . ... : ... .. . ... ... : ... .. . ... ... : ... .. . ... ... : ... .. . ... ...
ROW 2D : ... .. 0 ... ... ... : ... .. 1 ... ... ... : ... .. . ... : ... .. . ... : ... .. . ... ... : ... .. . ... ... : ... .. . ... ... : ... .. . ... ...
ROW 2E : ... .. . ... ... ... : ... .. . ... ... ... : ... .. . ... : ... .. . ... : ... .. . ... ... : ... .. . ... ... : ... .. . ... ... : ... .. . ... ...
ROW 2F : ... .. . ... ... ... : ... .. 0 ... ... ... : ... .. . ... : ... .. . ... : ... .. . ... ... : ... .. . ... ... : ... .. . ... ... : ... .. . ... ...
ROW 30 : B-2 00 D P81 ... ... : F-5 00 6 P80 ... ... : A-3 00 . ... : B-# 00 F ... : ... .. . ... ... : B-3 01 9 ... ... : ... .. . ... ... : D-5 01 F P83 ...
ROW 31 : ... .. B ... ... ... : ... .. 4 ... ... ... : B-2 00 . ... : ... .. C ... : ... .. . ... ... : ... .. 8 ... ... : ... .. . ... ... : D#5 01 D P7F ...
ROW 32 : ... .. . ... ... ... : ... .. 2 ... ... ... : E-2 00 . ... : ... .. 6 ... : ... .. . ... ... : ... .. . ... ... : ... .. . ... ... : ... .. 8 P82 ...
ROW 33 : ... .. A ... ... ... : ... .. 1 ... ... ... : D#2 00 . ... : ... .. 3 ... : ... .. . ... ... : ... .. . ... ... : ... .. . ... ... : ... .. . P83 ...
ROW 34 : ... .. 8 ... ... ... : ... .. . ... ... ... : A#1 00 . ... : ... .. 2 ... : ... .. . ... ... : ... .. 7 ... ... : ... .. . ... ... : E-5 01 8 P80 ...
ROW 35 : ... .. 7 ... ... ... : ... .. 0 ... ... ... : ... .. . ... : ... .. 0 ... : ... .. . ... ... : ... .. . ... ... : ... .. . ... ... : F-5 01 8 P7E ...
ROW 36 : A#2 00 D ... ... ... : E-5 00 6 P80 ... ... : ... .. . ... : ... .. F ... : ... .. . ... ... : A#3 01 9 ... ... : ... .. . ... ... : E-5 01 8 P82 ...
ROW 37 : ... .. B ... ... ... : ... .. 4 ... ... ... : ... .. . ... : ... .. C ... : ... .. . ... ... : ... .. 8 ... ... : ... .. . ... ... : F-5 01 8 P7E ...
ROW 38 : ... .. . ... ... ... : ... .. 2 ... ... ... : ... .. . ... : ... .. 6 ... : ... .. . ... ... : ... .. . ... ... : ... .. . ... ... : ... .. . P80 ...
ROW 39 : ... .. 0 ... ... ... : ... .. 1 ... ... ... : ... .. . ... : ... .. 3 ... : ... .. . ... ... : --- .. . ... ... : ... .. . ... ... : ... .. . P83 ...
ROW 3A : ... .. . ... ... ... : ... .. . ... ... ... : ... .. . ... : ... .. 2 ... : ... .. . ... ... : ... .. . ... ... : ... .. . ... ... : ... .. . ... ...
ROW 3B : ... .. . ... ... ... : ... .. 0 ... ... ... : ... .. . ... : ... .. 0 ... : ... .. . ... ... : ... .. . ... ... : ... .. . ... ... : ... .. . P80 ...
ROW 3C : A#2 00 D P81 ... ... : D#5 00 6 P80 ... ... : F-4 00 . ... : 8-# 00 F ... : ... .. . ... ... : A#3 01 9 ... ... : ... .. . ... ... : E-5 01 8 P82 ...
ROW 3D : ... .. B ... ... ... : ... .. 4 ... ... ... : ... .. . ... : ... .. C ... : ... .. . ... ... : ... .. 8 ... ... : ... .. . ... ... : ... .. . ... ...
ROW 3E : ... .. . ... ... ... : ... .. 2 ... ... ... : ... .. . ... : ... .. 6 ... : ... .. . ... ... : ... .. . ... ... : ... .. . ... ... : F-5 01 8 P80 ...
ROW 3F : ... .. 0 ... ... ... : ... .. 1 ... ... ... : ... .. . ... : ... .. 3 ... : ... .. . ... ... : --- .. . ... ... : ... .. . ... ... : ... .. . P82 ...
ROW 40 : ... .. . ... ... ... : ... .. . ... ... ... : ... .. . ... : ... .. 2 ... : ... .. . ... ... : ... .. . ... ... : ... .. . ... ... : ... .. . P83 ...
ROW 41 : ... .. . ... ... ... : ... .. 0 ... ... ... : ... .. . ... : ... .. 0 ... : ... .. . ... ... : ... .. . ... ... : ... .. . ... ... : ... .. . P81 ...
ROW 42 : A#2 00 D P81 ... ... : D-5 00 6 P80 ... ... : ... .. . ... : ... .. F ... : ... .. . ... ... : A#3 01 9 ... ... : ... .. . ... ... : ... .. . P7E ...
ROW 43 : ... .. B ... ... ... : ... .. 4 ... ... ... : ... .. . ... : ... .. C ... : ... .. . ... ... : ... .. 8 ... ... : ... .. . ... ... : E-5 01 8 P82 ...
ROW 44 : ... .. . ... ... ... : ... .. 2 ... ... ... : ... .. . ... : ... .. 6 ... : ... .. . ... ... : ... .. . ... ... : ... .. . ... ... : F-5 01 8 P7F ...
ROW 45 : ... .. 0 ... ... ... : ... .. 1 ... ... ... : ... .. . ... : ... .. 3 ... : ... .. . ... ... : --- .. . ... ... : ... .. . ... ... : ... .. . P81 ...
ROW 46 : ... .. . ... ... ... : ... .. . ... ... ... : ... .. . ... : ... .. 2 ... : ... .. . ... ... : ... .. . ... ... : ... .. . ... ... : ... .. . P83 ...
ROW 47 : ... .. . ... ... ... : ... .. 0 ... ... ... : ... .. . ... : ... .. 0 ... : ... .. . ... ... : ... .. . ... ... : ... .. . ... ... : ... .. . P82 ...
ROW 48 : A-2 00 D P81 ... ... : C#5 00 6 P80 ... ... : A-3 00 . ... : 6-# 00 F ... : ... .. . ... ... : A-3 01 9 ... ... : ... .. . ... ... : ... .. . P80 ...
ROW 49 : ... .. B ... ... ... : ... .. 4 ... ... ... : B-2 00 . ... : ... .. C ... : ... .. . ... ... : ... .. 8 ... ... : ... .. . ... ... : ... .. . P7E ...
ROW 4A : ... .. . ... ... ... : ... .. 2 ... ... ... : E-2 00 . ... : ... .. 6 ... : ... .. . ... ... : ... .. . ... ... : ... .. . ... ... : ... .. . ... ...
ROW 4B : ... .. A ... ... ... : ... .. 1 ... ... ... : D#2 00 . ... : ... .. 3 ... : ... .. . ... ... : ... .. . ... ... : ... .. . ... ... : ... .. . P80 ...
ROW 4C : ... .. 8 ... ... ... : ... .. . ... ... ... : A#1 00 . ... : ... .. 2 ... : ... .. . ... ... : ... .. 7 ... ... : ... .. . ... ... : ... .. . P81 ...
ROW 4D : ... .. 7 ... ... ... : ... .. 0 ... ... ... : ... .. . ... : ... .. 0 ... : ... .. . ... ... : ... .. . ... ... : ... .. . ... ... : ... .. . P82 ...
ROW 4E : A#2 00 D ... ... ... : C-5 00 6 P80 ... ... : ... .. . ... : ... .. F ... : ... .. . ... ... : A#3 01 9 ... ... : ... .. . ... ... : ... .. . P81 ...
ROW 4F : ... .. B ... ... ... : ... .. 4 ... ... ... : ... .. . ... : ... .. C ... : ... .. . ... ... : ... .. 8 ... ... : ... .. . ... ... : ... .. . P80 ...
ROW 50 : ... .. . ... ... ... : ... .. 2 ... ... ... : ... .. . ... : ... .. 6 ... : ... .. . ... ... : ... .. . ... ... : ... .. . ... ... : ... .. . P7F ...
ROW 51 : ... .. 0 ... ... ... : ... .. 1 ... ... ... : ... .. . ... : ... .. 3 ... : ... .. . ... ... : --- .. . ... ... : ... .. . ... ... : ... .. . P7E ...
ROW 52 : ... .. . ... ... ... : ... .. . ... ... ... : ... .. . ... : ... .. 2 ... : ... .. . ... ... : ... .. . ... ... : ... .. . ... ... : ... .. . P80 ...
ROW 53 : ... .. . ... ... ... : ... .. 0 ... ... ... : ... .. . ... : ... .. 0 ... : ... .. . ... ... : ... .. . ... ... : ... .. . ... ... : ... .. . ... ...
ROW 54 : A#2 00 D P81 ... ... : B-4 00 6 P80 ... ... : F-4 00 . ... : 4-# 00 F ... : ... .. . ... ... : A#3 01 9 ... ... : ... .. . ... ... : ... .. . P82 ...
ROW 55 : ... .. B ... ... ... : ... .. 4 ... ... ... : ... .. . ... : ... .. C ... : ... .. . ... ... : ... .. 8 ... ... : ... .. . ... ... : ... .. . P81 ...
ROW 56 : ... .. . ... ... ... : ... .. 2 ... ... ... : ... .. . ... : ... .. 6 ... : ... .. . ... ... : ... .. . ... ... : ... .. . ... ... : ... .. . P80 ...
ROW 57 : ... .. 0 ... ... ... : ... .. 1 ... ... ... : ... .. . ... : ... .. 3 ... : ... .. . ... ... : --- .. . ... ... : ... .. . ... ... : --- .. . ... ...
ROW 58 : ... .. . ... ... ... : ... .. . ... ... ... : ... .. . ... : ... .. 2 ... : ... .. . ... ... : ... .. . ... ... : ... .. . ... ... : ... .. . ... ...
ROW 59 : ... .. . ... ... ... : ... .. 0 ... ... ... : ... .. . ... : ... .. 0 ... : ... .. . ... ... : ... .. . ... ... : ... .. . ... ... : ... .. . ... ...
ROW 5A : A#2 00 D P81 ... ... : A#4 00 6 P80 ... ... : ... .. . ... : ... .. F ... : ... .. . ... ... : A#3 01 9 ... ... : ... .. . ... ... : ... .. . ... ...
ROW 5B : ... .. B ... ... ... : ... .. 4 ... ... ... : ... .. . ... : ... .. C ... : ... .. . ... ... : ... .. 8 ... ... : ... .. . ... ... : ... .. . ... ...
ROW 5C : ... .. . ... ... ... : ... .. 2 ... ... ... : ... .. . ... : ... .. 6 ... : ... .. . ... ... : ... .. . ... ... : ... .. . ... ... : ... .. . ... ...
ROW 5D : ... .. 0 ... ... ... : ... .. 1 ... ... ... : ... .. . ... : ... .. 3 ... : ... .. . ... ... : --- .. . ... ... : ... .. . ... ... : ... .. . ... ...
ROW 5E : ... .. . ... ... ... : ... .. . ... ... ... : ... .. . ... : ... .. 2 ... : ... .. . ... ... : ... .. . ... ... : ... .. . ... ... : ... .. . ... ...
ROW 5F : ... .. . ... ... ... : ... .. 0 ... ... ... : ... .. . ... : ... .. 0 ... : ... .. . ... ... : ... .. . ... ... : ... .. . ... ... : ... .. . ... ...
ROW 60 : D-3 00 F P81 ... ... : D-5 00 8 P80 ... ... : C#4 00 . ... : B-# 00 D ... : ... .. . ... ... : ... .. . ... ... : ... .. . ... ... : D-4 01 F P7F ...
ROW 61 : ... .. E ... ... ... : ... .. 6 ... ... ... : D#3 00 . ... : ... .. B ... : ... .. . ... ... : ... .. . ... ... : ... .. . ... ... : ... .. D P80 ...
ROW 62 : ... .. D ... ... ... : ... .. 3 ... ... ... : G#2 00 . ... : ... .. . ... : ... .. . ... ... : ... .. . ... ... : ... .. . ... ... : ... .. 8 P82 ...
ROW 63 : ... .. A ... ... ... : ... .. 1 ... ... ... : G-2 00 . ... : ... .. A ... : ... .. . ... ... : ... .. . ... ... : ... .. . ... ... : ... .. . ... ...
ROW 64 : ... .. . ... ... ... : ... .. . ... ... ... : D-2 00 . ... : ... .. 8 ... : ... .. . ... ... : ... .. . ... ... : ... .. . ... ... : ... .. . P80 ...
ROW 65 : ... .. . ... ... ... : ... .. 0 ... ... ... : ... .. . ... : ... .. 7 ... : ... .. . ... ... : ... .. . ... ... : ... .. . ... ... : ... .. . P7F ...
ROW 66 : ... .. . ... ... ... : D#5 00 8 P80 ... ... : ... .. . ... : ... .. 6 ... : ... .. . ... ... : ... .. . ... ... : ... .. . ... ... : ... .. . P7E ...
ROW 67 : ... .. . ... ... ... : ... .. 6 ... ... ... : ... .. . ... : ... .. . ... : ... .. . ... ... : ... .. . ... ... : ... .. . ... ... : ... .. . P7F ...
ROW 68 : ... .. . ... ... ... : ... .. 3 ... ... ... : ... .. . ... : ... .. 5 ... : ... .. . ... ... : ... .. . ... ... : ... .. . ... ... : ... .. . P80 ...
ROW 69 : ... .. . ... ... ... : ... .. 1 ... ... ... : ... .. . ... : ... .. . ... : ... .. . ... ... : ... .. . ... ... : ... .. . ... ... : ... .. . P82 ...
ROW 6A : ... .. . ... ... ... : ... .. . ... ... ... : ... .. . ... : ... .. 4 ... : ... .. . ... ... : ... .. . ... ... : ... .. . ... ... : ... .. . ... ...
ROW 6B : ... .. . ... ... ... : ... .. 0 ... ... ... : --- .. . ... : ... .. . ... : ... .. . ... ... : ... .. . ... ... : ... .. . ... ... : ... .. . P80 ...
ROW 6C : ... .. . ... ... ... : D-5 00 8 P80 ... ... : C-4 00 . ... : D-# 00 F ... : ... .. . ... ... : A-3 01 9 ... ... : C-3 01 9 ... ... : ... .. . P7F ...
ROW 6D : ... .. . ... ... ... : ... .. 6 ... ... ... : ... .. . ... : ... .. C ... : ... .. . ... ... : ... .. 8 ... ... : ... .. 8 ... ... : ... .. . P7E ...
ROW 6E : ... .. . ... ... ... : ... .. 3 ... ... ... : ... .. . ... : ... .. 6 ... : ... .. . ... ... : ... .. . ... ... : ... .. . ... ... : ... .. . P7F ...
ROW 6F : ... .. . ... ... ... : ... .. 1 ... ... ... : ... .. . ... : ... .. 3 ... : ... .. . ... ... : --- .. . ... ... : --- .. . P7E ... : ... .. . P80 ...
ROW 70 : ... .. . ... ... ... : ... .. . ... ... ... : ... .. . ... : ... .. 2 ... : ... .. . ... ... : ... .. . ... ... : ... .. . ... ... : ... .. . P81 ...
ROW 71 : ... .. . ... ... ... : ... .. 0 ... ... ... : --- .. . ... : ... .. 0 ... : ... .. . ... ... : ... .. . ... ... : ... .. . ... ... : ... .. . P82 ...
ROW 72 : E-3 00 F ... ... ... : D#5 00 8 P80 ... ... : C-4 00 . ... : ... .. F ... : ... .. . ... ... : A-3 01 9 ... ... : C-3 01 9 P80 ... : E-4 01 F P80 ...
ROW 73 : ... .. E ... ... ... : ... .. 6 ... ... ... : ... .. . ... : ... .. C ... : ... .. . ... ... : ... .. 8 ... ... : ... .. 8 ... ... : ... .. D ... ...
ROW 74 : ... .. D ... ... ... : ... .. 3 ... ... ... : ... .. . ... : ... .. 6 ... : ... .. . ... ... : ... .. . ... ... : ... .. . ... ... : ... .. 8 P7E ...
ROW 75 : ... .. 0 ... ... ... : ... .. 1 ... ... ... : ... .. . ... : ... .. 3 ... : ... .. . ... ... : ... .. . ... ... : ... .. . ... ... : --- .. . ... ...
ROW 76 : ... .. . ... ... ... : ... .. . ... ... ... : ... .. . ... : ... .. 2 ... : ... .. . ... ... : ... .. 7 ... ... : ... .. 7 ... ... : ... .. . ... ...
ROW 77 : ... .. . ... ... ... : ... .. 0 ... ... ... : --- .. . ... : ... .. 0 ... : ... .. . ... ... : ... .. . ... ... : ... .. . ... ... : ... .. . ... ...
ROW 78 : F#3 00 F P81 ... ... : D-5 00 8 P80 ... ... : C#4 00 . ... : B-# 00 D ... : ... .. . ... ... : ... .. . ... ... : ... .. . ... ... : F#4 01 F P82 ...
ROW 79 : ... .. E ... ... ... : ... .. 6 ... ... ... : D#3 00 . ... : ... .. B ... : ... .. . ... ... : ... .. 6 ... ... : ... .. 6 ... ... : ... .. D P81 ...
ROW 7A : ... .. D ... ... ... : ... .. 3 ... ... ... : G#2 00 . ... : ... .. . ... : ... .. . ... ... : ... .. . ... ... : ... .. . ... ... : ... .. 8 P80 ...
ROW 7B : ... .. A ... ... ... : ... .. 1 ... ... ... : G-2 00 . ... : ... .. A ... : ... .. . ... ... : --- .. . ... ... : --- .. . P7E ... : ... .. . P7E ...
ROW 7C : ... .. . ... ... ... : ... .. . ... ... ... : D-2 00 . ... : ... .. 8 ... : ... .. . ... ... : ... .. . ... ... : ... .. . ... ... : ... .. . ... ...
ROW 7D : ... .. . ... ... ... : ... .. 0 ... ... ... : ... .. . ... : ... .. 7 ... : ... .. . ... ... : ... .. . ... ... : ... .. . ... ... : ... .. . P80 ...
ROW 7E : ... .. . ... ... ... : D#5 00 8 P80 ... ... : ... .. . ... : ... .. 6 ... : ... .. . ... ... : ... .. . ... ... : ... .. . ... ... : ... .. . P81 ...
ROW 7F : ... .. 2 ... ... ... : ... .. 6 ... ... ... : ... .. . ... : ... .. . ... : ... .. . ... ... : ... .. . ... ... : ... .. . ... ... : ... .. 4 P82 ...
ROW 80 : ... .. . ... ... ... : ... .. 3 ... ... ... : ... .. . ... : ... .. 5 ... : ... .. . ... ... : ... .. . ... ... : ... .. . ... ... : ... .. . P81 ...
ROW 81 : ... .. . ... ... ... : ... .. 1 ... ... ... : ... .. . ... : ... .. . ... : ... .. . ... ... : ... .. . ... ... : ... .. . ... ... : ... .. 1 P80 ...
ROW 82 : ... .. 1 ... ... ... : ... .. . ... ... ... : ... .. . ... : ... .. 4 ... : ... .. . ... ... : ... .. . ... ... : ... .. . ... ... : ... .. . P7E ...
ROW 83 : ... .. . ... ... ... : ... .. 0 ... ... ... : --- .. . ... : ... .. . ... : ... .. . ... ... : ... .. . ... ... : ... .. . ... ... : ... .. . ... ...
ROW 84 : D-3 00 F ... ... ... : D-5 00 8 P80 ... ... : C-4 00 . ... : D-# 00 F ... : ... .. . ... ... : A-3 01 9 ... ... : C-3 01 9 P80 ... : D-4 01 F P80 ...
ROW 85 : ... .. E ... ... ... : ... .. 6 ... ... ... : ... .. . ... : ... .. C ... : ... .. . ... ... : ... .. 8 ... ... : ... .. 8 ... ... : ... .. D P81 ...
ROW 86 : ... .. D ... ... ... : ... .. 3 ... ... ... : ... .. . ... : ... .. 6 ... : ... .. . ... ... : ... .. . ... ... : ... .. . ... ... : ... .. 8 P82 ...
ROW 87 : ... .. A ... ... ... : ... .. 1 ... ... ... : ... .. . ... : ... .. 3 ... : ... .. . ... ... : --- .. . ... ... : --- .. . P7E ... : ... .. . P81 ...
ROW 88 : ... .. . ... ... ... : ... .. . ... ... ... : ... .. . ... : ... .. 2 ... : ... .. . ... ... : ... .. . ... ... : ... .. . ... ... : ... .. . P80 ...
ROW 89 : ... .. . ... ... ... : ... .. 0 ... ... ... : --- .. . ... : ... .. 0 ... : ... .. . ... ... : ... .. . ... ... : ... .. . ... ... : ... .. . P7E ...
ROW 8A : ... .. 0 ... ... ... : C-5 00 8 P80 ... ... : C-4 00 . ... : ... .. F ... : ... .. . ... ... : A-3 01 9 ... ... : C-3 01 9 P80 ... : --- .. . ... ...
ROW 8B : ... .. . ... ... ... : ... .. 6 ... ... ... : ... .. . ... : ... .. C ... : ... .. . ... ... : ... .. 8 ... ... : ... .. 8 ... ... : ... .. . ... ...
ROW 8C : ... .. . ... ... ... : ... .. 3 ... ... ... : ... .. . ... : ... .. 6 ... : ... .. . ... ... : ... .. . ... ... : ... .. . ... ... : ... .. . ... ...
ROW 8D : ... .. . ... ... ... : ... .. 1 ... ... ... : ... .. . ... : ... .. 3 ... : ... .. . ... ... : ... .. . ... ... : ... .. . ... ... : ... .. . ... ...
ROW 8E : ... .. . ... ... ... : ... .. . ... ... ... : ... .. . ... : ... .. 2 ... : ... .. . ... ... : ... .. 7 ... ... : ... .. 7 ... ... : ... .. . ... ...
ROW 8F : ... .. . ... ... ... : ... .. 0 ... ... ... : --- .. . ... : ... .. 0 ... : ... .. . ... ... : ... .. . ... ... : ... .. . ... ... : ... .. . ... ...
ROW 90 : G-3 00 F P81 ... ... : A#4 00 8 P80 ... ... : F#4 00 . ... : B-# 00 D ... : ... .. . ... ... : ... .. . ... ... : ... .. . ... ... : G-4 01 F P7F ...
ROW 91 : ... .. E ... ... ... : ... .. 6 ... ... ... : G#3 00 . ... : ... .. B ... : ... .. . ... ... : ... .. 6 ... ... : ... .. 6 ... ... : ... .. D P7E ...
ROW 92 : ... .. D ... ... ... : ... .. 3 ... ... ... : C#3 00 . ... : ... .. . ... : ... .. . ... ... : ... .. . ... ... : ... .. . ... ... : ... .. 8 P80 ...
ROW 93 : ... .. A ... ... ... : ... .. 1 ... ... ... : C-3 00 . ... : ... .. A ... : ... .. . ... ... : --- .. . ... ... : --- .. . P7E ... : ... .. . ... ...
ROW 94 : ... .. . ... ... ... : ... .. . ... ... ... : G-2 00 . ... : ... .. 8 ... : ... .. . ... ... : ... .. . ... ... : ... .. . ... ... : ... .. . P82 ...
ROW 95 : ... .. . ... ... ... : ... .. 0 ... ... ... : ... .. . ... : ... .. 7 ... : ... .. . ... ... : ... .. . ... ... : ... .. . ... ... : ... .. . P81 ...
ROW 96 : F#3 00 F ... ... ... : C-5 00 8 P80 ... ... : ... .. . ... : ... .. 6 ... : ... .. . ... ... : ... .. . ... ... : ... .. . ... ... : F#4 01 F P80 ...
ROW 97 : ... .. E ... ... ... : ... .. 6 ... ... ... : ... .. . ... : ... .. . ... : ... .. . ... ... : ... .. . ... ... : ... .. . ... ... : ... .. D P7F ...
ROW 98 : ... .. D ... ... ... : ... .. 3 ... ... ... : ... .. . ... : ... .. 5 ... : ... .. . ... ... : ... .. . ... ... : ... .. . ... ... : ... .. 8 P7E ...
ROW 99 : ... .. 0 ... ... ... : ... .. 1 ... ... ... : ... .. . ... : ... .. . ... : ... .. . ... ... : ... .. . ... ... : ... .. . ... ... : --- .. . ... ...
ROW 9A : ... .. . ... ... ... : ... .. . ... ... ... : ... .. . ... : ... .. 4 ... : ... .. . ... ... : ... .. . ... ... : ... .. . ... ... : ... .. . ... ...
ROW 9B : ... .. . ... ... ... : ... .. 0 ... ... ... : --- .. . ... : ... .. . ... : ... .. . ... ... : ... .. . ... ... : ... .. . ... ... : ... .. . ... ...
ROW 9C : G-3 00 F P81 ... ... : A#4 00 8 P80 ... ... : A#3 00 . ... : ... .. D ... : ... .. . ... ... : G-3 01 9 ... ... : A#2 01 9 P80 ... : G-4 01 F P82 ...
ROW 9D : ... .. E ... ... ... : ... .. 6 ... ... ... : ... .. . ... : ... .. B ... : ... .. . ... ... : ... .. 8 ... ... : ... .. 8 ... ... : ... .. D P80 ...
ROW 9E : ... .. D ... ... ... : ... .. 3 ... ... ... : ... .. . ... : ... .. . ... : ... .. . ... ... : ... .. . ... ... : ... .. . ... ... : ... .. 8 P7F ...
ROW 9F : ... .. 0 ... ... ... : ... .. 1 ... ... ... : ... .. . ... : ... .. A ... : ... .. . ... ... : --- .. . P81 ... : --- .. . P82 ... : --- .. . ... ...
ROW A0 : ... .. . ... ... ... : ... .. . ... ... ... : ... .. . ... : ... .. 8 ... : ... .. . ... ... : ... .. . ... ... : ... .. . ... ... : ... .. . ... ...
ROW A1 : ... .. . ... ... ... : ... .. 0 ... ... ... : --- .. . ... : ... .. 7 ... : ... .. . ... ... : ... .. . ... ... : ... .. . ... ... : ... .. . ... ...
ROW A2 : A-3 00 F P81 ... ... : C-5 00 8 P80 ... ... : A#3 00 . ... : ... .. 6 ... : ... .. . ... ... : G-3 01 9 P80 ... : A#2 01 9 P80 ... : A-4 01 F P82 ...
ROW A3 : ... .. E ... ... ... : ... .. 6 ... ... ... : ... .. . ... : ... .. . ... : ... .. . ... ... : ... .. 8 ... ... : ... .. 8 ... ... : ... .. D ... ...
ROW A4 : ... .. D ... ... ... : ... .. 3 ... ... ... : ... .. . ... : ... .. 5 ... : ... .. . ... ... : ... .. . ... ... : ... .. . ... ... : ... .. 8 P80 ...
ROW A5 : ... .. 0 ... ... ... : ... .. 1 ... ... ... : ... .. . ... : ... .. . ... : ... .. . ... ... : ... .. . ... ... : ... .. . ... ... : --- .. . ... ...
ROW A6 : ... .. . ... ... ... : ... .. . ... ... ... : ... .. . ... : ... .. 4 ... : ... .. . ... ... : ... .. 7 ... ... : ... .. 7 ... ... : ... .. . ... ...
ROW A7 : ... .. . ... ... ... : ... .. 0 ... ... ... : --- .. . ... : ... .. . ... : ... .. . ... ... : ... .. . ... ... : ... .. . ... ... : ... .. . ... ...
ROW A8 : A#3 00 F P81 ... ... : A#4 00 8 P80 ... ... : F#4 00 . ... : ... .. D ... : ... .. . ... ... : ... .. . ... ... : ... .. . ... ... : A#4 01 F ... ...
ROW A9 : ... .. E ... ... ... : ... .. 6 ... ... ... : G#3 00 . ... : ... .. B ... : ... .. . ... ... : ... .. 6 ... ... : ... .. 6 ... ... : ... .. D P82 ...
ROW AA : ... .. D ... ... ... : ... .. 3 ... ... ... : C#3 00 . ... : ... .. . ... : ... .. . ... ... : ... .. . ... ... : ... .. . ... ... : ... .. 8 ... ...
ROW AB : ... .. A ... ... ... : ... .. 1 ... ... ... : C-3 00 . ... : ... .. A ... : ... .. . ... ... : --- .. . P81 ... : --- .. . P82 ... : ... .. . P80 ...
ROW AC : ... .. . ... ... ... : ... .. . ... ... ... : G-2 00 . ... : ... .. 8 ... : ... .. . ... ... : ... .. . ... ... : ... .. . ... ... : ... .. . P7F ...
ROW AD : ... .. . ... ... ... : ... .. 0 ... ... ... : ... .. . ... : ... .. 7 ... : ... .. . ... ... : ... .. . ... ... : ... .. . ... ... : ... .. . P7E ...
ROW AE : ... .. . ... ... ... : A-4 00 8 P80 ... ... : ... .. . ... : ... .. 6 ... : ... .. . ... ... : ... .. . ... ... : ... .. . ... ... : ... .. . P7F ...
ROW AF : ... .. . ... ... ... : ... .. 6 ... ... ... : ... .. . ... : ... .. . ... : ... .. . ... ... : ... .. . ... ... : ... .. . ... ... : ... .. . P80 ...
ROW B0 : ... .. . ... ... ... : ... .. 3 ... ... ... : ... .. . ... : ... .. 5 ... : ... .. . ... ... : ... .. . ... ... : ... .. . ... ... : ... .. . P81 ...
ROW B1 : ... .. 0 ... ... ... : ... .. 1 ... ... ... : ... .. . ... : ... .. . ... : ... .. . ... ... : ... .. . ... ... : ... .. . ... ... : --- .. . ... ...
ROW B2 : ... .. . ... ... ... : ... .. . ... ... ... : ... .. . ... : ... .. 4 ... : ... .. . ... ... : ... .. . ... ... : ... .. . ... ... : ... .. . ... ...
ROW B3 : ... .. . ... ... ... : ... .. 0 ... ... ... : --- .. . ... : ... .. . ... : ... .. . ... ... : ... .. . ... ... : ... .. . ... ... : ... .. . ... ...
ROW B4 : G-3 00 F P81 ... ... : A#4 00 8 P80 ... ... : A#3 00 . ... : D-# 00 F ... : ... .. . ... ... : G-3 01 9 P80 ... : A#2 01 9 P80 ... : G-4 01 F P7E ...
ROW B5 : ... .. E ... ... ... : ... .. 6 ... ... ... : ... .. . ... : ... .. C ... : ... .. . ... ... : ... .. 8 ... ... : ... .. 8 ... ... : ... .. D P7F ...
ROW B6 : ... .. D ... ... ... : ... .. 3 ... ... ... : ... .. . ... : ... .. 6 ... : ... .. . ... ... : ... .. . ... ... : ... .. . ... ... : ... .. 8 P80 ...
ROW B7 : ... .. A ... ... ... : ... .. 1 ... ... ... : ... .. . ... : ... .. 3 ... : ... .. . ... ... : --- .. . P81 ... : --- .. . P82 ... : ... .. . P81 ...
ROW B8 : ... .. . ... ... ... : ... .. . ... ... ... : ... .. . ... : ... .. 2 ... : ... .. . ... ... : ... .. . ... ... : ... .. . ... ... : ... .. . P82 ...
ROW B9 : ... .. . ... ... ... : ... .. 0 ... ... ... : --- .. . ... : ... .. 0 ... : ... .. . ... ... : ... .. . ... ... : ... .. . ... ... : ... .. . P81 ...
ROW BA : ... .. . ... ... ... : C-5 00 8 P80 ... ... : A#3 00 . ... : ... .. F ... : ... .. . ... ... : G-3 01 9 P80 ... : A#2 01 9 P80 ... : ... .. . P80 ...
ROW BB : ... .. . ... ... ... : ... .. 6 ... ... ... : ... .. . ... : ... .. C ... : ... .. . ... ... : ... .. 8 ... ... : ... .. 8 ... ... : ... .. . P7E ...
ROW BC : ... .. . ... ... ... : ... .. 3 ... ... ... : ... .. . ... : ... .. 6 ... : ... .. . ... ... : ... .. . ... ... : ... .. . ... ... : ... .. . ... ...
ROW BD : ... .. 0 ... ... ... : ... .. 1 ... ... ... : ... .. . ... : ... .. 3 ... : ... .. . ... ... : ... .. . ... ... : ... .. . ... ... : --- .. . ... ...
ROW BE : ... .. . ... ... ... : ... .. . ... ... ... : ... .. . ... : ... .. 2 ... : ... .. . ... ... : ... .. 7 ... ... : ... .. 7 ... ... : ... .. . ... ...
ROW BF : ... .. . ... ... ... : ... .. 0 ... ... ... : --- .. . ... : ... .. 0 ... : ... .. . ... ... : ... .. . ... ... : ... .. . ... ... : ... .. . ... ...
ROW C0 : D-3 00 F P81 ... ... : D-5 00 8 P80 ... ... : C#4 00 . ... : B-# 00 D ... : ... .. . ... ... : ... .. . ... ... : ... .. . ... ... : D-4 01 F P81 ...
ROW C1 : ... .. E ... ... ... : ... .. 6 ... ... ... : D#3 00 . ... : ... .. B ... : ... .. . ... ... : ... .. 6 ... ... : ... .. 6 ... ... : ... .. D P80 ...
ROW C2 : ... .. D ... ... ... : ... .. 3 ... ... ... : G#2 00 . ... : ... .. . ... : ... .. . ... ... : ... .. . ... ... : ... .. . ... ... : ... .. 8 P7E ...
ROW C3 : ... .. A ... ... ... : ... .. 1 ... ... ... : G-2 00 . ... : ... .. A ... : ... .. . ... ... : --- .. . P81 ... : --- .. . P82 ... : ... .. . ... ...
ROW C4 : ... .. . ... ... ... : ... .. . ... ... ... : D-2 00 . ... : ... .. 8 ... : ... .. . ... ... : ... .. . ... ... : ... .. . ... ... : ... .. . P80 ...
ROW C5 : ... .. . ... ... ... : ... .. 0 ... ... ... : ... .. . ... : ... .. 7 ... : ... .. . ... ... : ... .. . ... ... : ... .. . ... ... : ... .. . P81 ...
ROW C6 : ... .. . ... ... ... : D#5 00 8 P80 ... ... : ... .. . ... : ... .. 6 ... : ... .. . ... ... : ... .. . ... ... : ... .. . ... ... : ... .. . P82 ...
ROW C7 : ... .. . ... ... ... : ... .. 6 ... ... ... : ... .. . ... : ... .. . ... : ... .. . ... ... : ... .. . ... ... : ... .. . ... ... : ... .. . P81 ...
ROW C8 : ... .. . ... ... ... : ... .. 3 ... ... ... : ... .. . ... : ... .. 5 ... : ... .. . ... ... : ... .. . ... ... : ... .. . ... ... : ... .. . P80 ...
ROW C9 : ... .. . ... ... ... : ... .. 1 ... ... ... : ... .. . ... : ... .. . ... : ... .. . ... ... : ... .. . ... ... : ... .. . ... ... : ... .. . P7E ...
ROW CA : ... .. . ... ... ... : ... .. . ... ... ... : ... .. . ... : ... .. 4 ... : ... .. . ... ... : ... .. . ... ... : ... .. . ... ... : ... .. . ... ...
ROW CB : ... .. . ... ... ... : ... .. 0 ... ... ... : --- .. . ... : ... .. . ... : ... .. . ... ... : ... .. . ... ... : ... .. . ... ... : ... .. . P80 ...
ROW CC : ... .. . ... ... ... : D-5 00 8 P80 ... ... : C-4 00 . ... : D-# 00 F ... : ... .. . ... ... : F#3 01 9 P80 ... : C-3 01 9 P80 ... : ... .. . P81 ...
ROW CD : ... .. . ... ... ... : ... .. 6 ... ... ... : ... .. . ... : ... .. C ... : ... .. . ... ... : ... .. 8 ... ... : ... .. 8 ... ... : ... .. . P82 ...
ROW CE : ... .. . ... ... ... : ... .. 3 ... ... ... : ... .. . ... : ... .. 6 ... : ... .. . ... ... : ... .. . ... ... : ... .. . ... ... : ... .. . P81 ...
ROW CF : ... .. 0 ... ... ... : ... .. 1 ... ... ... : ... .. . ... : ... .. 3 ... : ... .. . ... ... : --- .. . P7F ... : --- .. . P7E ... : --- .. . ... ...
ROW D0 : ... .. . ... ... ... : ... .. . ... ... ... : ... .. . ... : ... .. 2 ... : ... .. . ... ... : ... .. . ... ... : ... .. . ... ... : ... .. . ... ...
ROW D1 : ... .. . ... ... ... : ... .. 0 ... ... ... : --- .. . ... : ... .. 0 ... : ... .. . ... ... : ... .. . ... ... : ... .. . ... ... : ... .. . ... ...
ROW D2 : E-3 00 F P81 ... ... : D#5 00 8 P80 ... ... : C-4 00 . ... : ... .. F ... : ... .. . ... ... : F#3 01 9 P80 ... : C-3 01 9 P80 ... : E-4 01 F P80 ...
ROW D3 : ... .. E ... ... ... : ... .. 6 ... ... ... : ... .. . ... : ... .. C ... : ... .. . ... ... : ... .. 8 ... ... : ... .. 8 ... ... : ... .. D ... ...
ROW D4 : ... .. D ... ... ... : ... .. 3 ... ... ... : ... .. . ... : ... .. 6 ... : ... .. . ... ... : ... .. . ... ... : ... .. . ... ... : ... .. 8 P82 ...
ROW D5 : ... .. 0 ... ... ... : ... .. 1 ... ... ... : ... .. . ... : ... .. 3 ... : ... .. . ... ... : ... .. . ... ... : ... .. . ... ... : --- .. . ... ...
ROW D6 : ... .. . ... ... ... : ... .. . ... ... ... : ... .. . ... : ... .. 2 ... : ... .. . ... ... : ... .. 7 ... ... : ... .. 7 ... ... : ... .. . ... ...
ROW D7 : ... .. . ... ... ... : ... .. 0 ... ... ... : --- .. . ... : ... .. 0 ... : ... .. . ... ... : ... .. . ... ... : ... .. . ... ... : ... .. . ... ...
ROW D8 : F#3 00 F P81 ... ... : D-5 00 8 P80 ... ... : C#4 00 . ... : B-# 00 D ... : ... .. . ... ... : ... .. . ... ... : ... .. . ... ... : F#4 01 F P7E ...
ROW D9 : ... .. E ... ... ... : ... .. 6 ... ... ... : D#3 00 . ... : ... .. B ... : ... .. . ... ... : ... .. 6 ... ... : ... .. 6 ... ... : ... .. D P7F ...
ROW DA : ... .. D ... ... ... : ... .. 3 ... ... ... : G#2 00 . ... : ... .. . ... : ... .. . ... ... : ... .. . ... ... : ... .. . ... ... : ... .. 8 P80 ...
ROW DB : ... .. A ... ... ... : ... .. 1 ... ... ... : G-2 00 . ... : ... .. A ... : ... .. . ... ... : --- .. . P7F ... : --- .. . P7E ... : ... .. . P82 ...
ROW DC : ... .. . ... ... ... : ... .. . ... ... ... : D-2 00 . ... : ... .. 8 ... : ... .. . ... ... : ... .. . ... ... : ... .. . ... ... : ... .. . ... ...
ROW DD : ... .. . ... ... ... : ... .. 0 ... ... ... : ... .. . ... : ... .. 7 ... : ... .. . ... ... : ... .. . ... ... : ... .. . ... ... : ... .. . P80 ...
ROW DE : ... .. . ... ... ... : D#5 00 8 P80 ... ... : ... .. . ... : ... .. 6 ... : ... .. . ... ... : ... .. . ... ... : ... .. . ... ... : ... .. . P7F ...
ROW DF : ... .. . ... ... ... : ... .. 6 ... ... ... : ... .. . ... : ... .. . ... : ... .. . ... ... : ... .. . ... ... : ... .. . ... ... : ... .. . P7E ...
ROW E0 : ... .. . ... ... ... : ... .. 3 ... ... ... : ... .. . ... : ... .. 5 ... : ... .. . ... ... : ... .. . ... ... : ... .. . ... ... : ... .. . P7F ...
ROW E1 : ... .. . ... ... ... : ... .. 1 ... ... ... : ... .. . ... : ... .. . ... : ... .. . ... ... : ... .. . ... ... : ... .. . ... ... : ... .. . P80 ...
ROW E2 : ... .. . ... ... ... : ... .. . ... ... ... : ... .. . ... : ... .. 4 ... : ... .. . ... ... : ... .. . ... ... : ... .. . ... ... : ... .. . P82 ...
ROW E3 : ... .. . ... ... ... : ... .. 0 ... ... ... : --- .. . ... : ... .. . ... : ... .. . ... ... : ... .. . ... ... : ... .. . ... ... : ... .. . ... ...
ROW E4 : A-3 00 F ... ... ... : D-5 00 8 P80 ... ... : C-4 00 . ... : D-# 00 F ... : ... .. . ... ... : F#3 01 9 P80 ... : C-3 01 9 P80 ... : A-4 01 F P80 ...
ROW E5 : ... .. E ... ... ... : ... .. 6 ... ... ... : ... .. . ... : ... .. C ... : ... .. . ... ... : ... .. 8 ... ... : ... .. 8 ... ... : ... .. D P7F ...
ROW E6 : ... .. D ... ... ... : ... .. 3 ... ... ... : ... .. . ... : ... .. 6 ... : ... .. . ... ... : ... .. . ... ... : ... .. . ... ... : ... .. 8 P7E ...
ROW E7 : ... .. A ... ... ... : ... .. 1 ... ... ... : ... .. . ... : ... .. 3 ... : ... .. . ... ... : --- .. . P7F ... : --- .. . P7E ... : ... .. . P7F ...
ROW E8 : ... .. . ... ... ... : ... .. . ... ... ... : ... .. . ... : ... .. 2 ... : ... .. . ... ... : ... .. . ... ... : ... .. . ... ... : ... .. . P80 ...
ROW E9 : ... .. . ... ... ... : ... .. 0 ... ... ... : --- .. . ... : ... .. 0 ... : ... .. . ... ... : ... .. . ... ... : ... .. . ... ... : ... .. . P82 ...
ROW EA : ... .. . ... ... ... : C-5 00 8 P80 ... ... : C-4 00 . ... : ... .. F ... : ... .. . ... ... : F#3 01 9 P80 ... : C-3 01 9 P80 ... : ... .. . ... ...
ROW EB : ... .. . ... ... ... : ... .. 6 ... ... ... : ... .. . ... : ... .. C ... : ... .. . ... ... : ... .. 8 ... ... : ... .. 8 ... ... : ... .. . P80 ...
ROW EC : ... .. . ... ... ... : ... .. 3 ... ... ... : ... .. . ... : ... .. 6 ... : ... .. . ... ... : ... .. . ... ... : ... .. . ... ... : ... .. . P7F ...
ROW ED : ... .. 0 ... ... ... : ... .. 1 ... ... ... : ... .. . ... : ... .. 3 ... : ... .. . ... ... : --- .. . P7F ... : ... .. . ... ... : --- .. . ... ...
ROW EE : ... .. . ... ... ... : ... .. . ... ... ... : ... .. . ... : ... .. 2 ... : ... .. . ... ... : ... .. . ... ... : ... .. 7 ... ... : ... .. . ... ...
ROW EF : ... .. . ... ... ... : ... .. 0 ... ... ... : --- .. . ... : ... .. 0 ... : ... .. . ... ... : ... .. . ... ... : ... .. . ... ... : ... .. . ... ...
ROW F0 : A#3 00 F P81 ... ... : A#4 00 8 P80 ... ... : F#5 00 . ... : B-# 00 D ... : ... .. . ... ... : G#4 01 9 P80 ... : C#4 01 9 ... ... : A#4 01 F P81 ...
ROW F1 : ... .. E ... ... ... : ... .. 6 ... ... ... : G#4 00 . ... : ... .. B ... : ... .. . ... ... : ... .. 8 ... ... : ... .. 8 ... ... : ... .. D P82 ...
ROW F2 : ... .. D ... ... ... : ... .. 3 ... ... ... : C#4 00 . ... : ... .. . ... : ... .. . ... ... : ... .. . ... ... : ... .. . ... ... : ... .. 8 P80 ...
ROW F3 : ... .. A ... ... ... : ... .. 1 ... ... ... : C-4 00 . ... : ... .. A ... : ... .. . ... ... : ... .. . ... ... : ... .. . ... ... : ... .. . ... ...
ROW F4 : ... .. . ... ... ... : ... .. . ... ... ... : G-3 00 . ... : ... .. 8 ... : ... .. . ... ... : A-4 01 7 P7D ... : ... .. 7 P85 ... : ... .. . P7E ...
ROW F5 : ... .. . ... ... ... : ... .. 0 ... ... ... : ... .. . ... : ... .. 7 ... : ... .. . ... ... : ... .. . P80 ... : D-4 01 7 P7E ... : ... .. . P7F ...
ROW F6 : ... .. . ... ... ... : A-4 00 8 P80 ... ... : ... .. . ... : ... .. 6 ... : ... .. . ... ... : ... .. . ... ... : ... .. . P80 ... : ... .. . P80 ...
ROW F7 : ... .. . ... ... ... : ... .. 6 ... ... ... : ... .. . ... : ... .. . ... : ... .. . ... ... : ... .. 6 ... ... : ... .. 6 ... ... : ... .. . P81 ...
ROW F8 : ... .. . ... ... ... : ... .. 3 ... ... ... : ... .. . ... : ... .. 5 ... : ... .. . ... ... : ... .. . ... ... : ... .. . ... ... : ... .. . P82 ...
ROW F9 : ... .. . ... ... ... : ... .. 1 ... ... ... : ... .. . ... : ... .. . ... : ... .. . ... ... : ... .. . ... ... : ... .. . ... ... : ... .. . P81 ...
ROW FA : ... .. . ... ... ... : ... .. . ... ... ... : ... .. . ... : ... .. 4 ... : ... .. . ... ... : ... .. . ... ... : ... .. . ... ... : ... .. . P80 ...
ROW FB : ... .. . ... ... ... : ... .. 0 ... ... ... : ... .. . ... : ... .. . ... : ... .. . ... ... : ... .. . ... ... : ... .. . ... ... : ... .. . P7E ...
ROW FC : ... .. . ... ... ... : A#4 00 8 P80 ... ... : E-5 00 . ... : ... .. D ... : ... .. . ... ... : ... .. 9 ... ... : ... .. 9 ... ... : ... .. . ... ...
ROW FD : ... .. . ... ... ... : ... .. 6 ... ... ... : F#4 00 . ... : ... .. B ... : ... .. . ... ... : ... .. 8 ... ... : ... .. 8 ... ... : ... .. . P80 ...
ROW FE : ... .. . ... ... ... : ... .. 3 ... ... ... : B-3 00 . ... : ... .. . ... : ... .. . ... ... : ... .. . ... ... : ... .. . ... ... : ... .. . P81 ...
ROW FF : ... .. . ... ... ... : ... .. 1 ... ... ... : A#3 00 . ... : ... .. A ... : ... .. . ... ... : ... .. . ... ... : ... .. . ... ... : ... .. . P82 ...

PATTERN 16
ROW 00 : ... .. . ... ... ... : ... .. . ... ... ... : F-3 00 . ... : ... .. 8 ... : ... .. . ... ... : ... .. 7 ... ... : ... .. 7 ... ... : ... .. . P81 ...
ROW 01 : ... .. . ... ... ... : ... .. 0 ... ... ... : ... .. . ... : ... .. 7 ... : ... .. . ... ... : ... .. . ... ... : ... .. . ... ... : ... .. . P80 ...
ROW 02 : ... .. . ... ... ... : A-4 00 8 P80 ... ... : ... .. . ... : ... .. 6 ... : ... .. . ... ... : ... .. . ... ... : ... .. . ... ... : ... .. . P7E ...
ROW 03 : ... .. . ... ... ... : ... .. 6 ... ... ... : ... .. . ... : ... .. . ... : ... .. . ... ... : ... .. 6 ... ... : ... .. 6 ... ... : ... .. . ... ...
ROW 04 : ... .. . ... ... ... : ... .. 3 ... ... ... : ... .. . ... : ... .. 5 ... : ... .. . ... ... : ... .. . ... ... : ... .. . ... ... : ... .. . P80 ...
ROW 05 : ... .. . ... ... ... : ... .. 1 ... ... ... : ... .. . ... : ... .. . ... : ... .. . ... ... : ... .. . ... ... : ... .. . ... ... : ... .. . P81 ...
ROW 06 : ... .. . ... ... ... : ... .. . ... ... ... : ... .. . ... : ... .. 4 ... : ... .. . ... ... : ... .. 5 ... ... : ... .. 5 ... ... : ... .. . P82 ...
ROW 07 : ... .. . ... ... ... : ... .. 0 ... ... ... : ... .. . ... : ... .. . ... : ... .. . ... ... : ... .. . ... ... : ... .. . ... ... : ... .. . P81 ...
ROW 08 : G-3 00 F ... ... ... : A#4 00 8 P80 ... ... : D#5 00 . ... : ... .. D ... : ... .. . ... ... : D-4 01 9 ... ... : G-3 01 9 ... ... : G-4 01 F P80 ...
ROW 09 : ... .. E ... ... ... : ... .. 6 ... ... ... : F-4 00 . ... : ... .. B ... : ... .. . ... ... : ... .. 8 ... ... : ... .. 8 ... ... : ... .. D P7E ...
ROW 0A : ... .. D ... ... ... : ... .. 3 ... ... ... : A#3 00 . ... : ... .. . ... : ... .. . ... ... : ... .. . ... ... : ... .. . ... ... : ... .. 8 ... ...
ROW 0B : ... .. A ... ... ... : ... .. 1 ... ... ... : A-3 00 . ... : ... .. A ... : ... .. . ... ... : ... .. . ... ... : ... .. . ... ... : ... .. . P80 ...
ROW 0C : ... .. . ... ... ... : ... .. . ... ... ... : E-3 00 . ... : ... .. 8 ... : ... .. . ... ... : ... .. 7 ... ... : ... .. 7 ... ... : ... .. . P81 ...
ROW 0D : ... .. . ... ... ... : ... .. 0 ... ... ... : ... .. . ... : ... .. 7 ... : ... .. . ... ... : ... .. . ... ... : ... .. . ... ... : ... .. . P82 ...
ROW 0E : ... .. . ... ... ... : A-4 00 8 P80 ... ... : ... .. . ... : ... .. 6 ... : ... .. . ... ... : ... .. . ... ... : ... .. . ... ... : ... .. . P81 ...
ROW 0F : F#3 00 F ... ... ... : ... .. 6 ... ... ... : ... .. . ... : ... .. . ... : ... .. . ... ... : ... .. 6 ... ... : ... .. 6 ... ... : F#4 01 F P80 ...
ROW 10 : ... .. E ... ... ... : ... .. 3 ... ... ... : ... .. . ... : ... .. 5 ... : ... .. . ... ... : ... .. . ... ... : ... .. . ... ... : ... .. D P7F ...
ROW 11 : ... .. D ... ... ... : ... .. 1 ... ... ... : ... .. . ... : ... .. . ... : ... .. . ... ... : ... .. . ... ... : ... .. . ... ... : ... .. 8 P7E ...
ROW 12 : ... .. A ... ... ... : ... .. . ... ... ... : ... .. . ... : ... .. 4 ... : ... .. . ... ... : ... .. . ... ... : ... .. . ... ... : ... .. . P80 ...
ROW 13 : F-3 00 F ... ... ... : ... .. 0 ... ... ... : ... .. . ... : ... .. . ... : ... .. . ... ... : ... .. . ... ... : ... .. . ... ... : F-4 01 F ... ...
ROW 14 : ... .. E ... ... ... : G-4 00 8 P80 ... ... : D-5 00 . ... : D-# 00 F ... : ... .. . ... ... : ... .. 9 ... ... : ... .. 9 ... ... : ... .. D P82 ...
ROW 15 : ... .. D ... ... ... : ... .. 6 ... ... ... : E-4 00 . ... : ... .. C ... : ... .. . ... ... : ... .. 8 ... ... : ... .. 8 ... ... : ... .. 8 P81 ...
ROW 16 : ... .. A ... ... ... : ... .. 3 ... ... ... : A-3 00 . ... : ... .. 6 ... : ... .. . ... ... : ... .. . ... ... : ... .. . ... ... : ... .. . P80 ...
ROW 17 : ... .. . ... ... ... : ... .. 1 ... ... ... : G#3 00 . ... : ... .. 3 ... : ... .. . ... ... : ... .. . ... ... : ... .. . ... ... : ... .. . P7F ...
ROW 18 : E-3 00 F ... ... ... : ... .. . ... ... ... : D#3 00 . ... : ... .. 2 ... : ... .. . ... ... : ... .. 7 ... ... : ... .. 7 ... ... : E-4 01 F P7E ...
ROW 19 : ... .. E ... ... ... : ... .. 0 ... ... ... : ... .. . ... : ... .. 0 ... : ... .. . ... ... : ... .. . ... ... : ... .. . ... ... : ... .. D P7F ...
ROW 1A : ... .. D ... ... ... : ... .. . ... ... ... : ... .. . ... : ... .. F ... : ... .. . ... ... : ... .. . ... ... : ... .. . ... ... : ... .. 8 P80 ...
ROW 1B : ... .. A ... ... ... : ... .. . ... ... ... : ... .. . ... : ... .. C ... : ... .. . ... ... : ... .. 6 ... ... : ... .. 6 ... ... : ... .. . P82 ...
ROW 1C : D#3 00 F ... ... ... : ... .. . ... ... ... : ... .. . ... : ... .. 6 ... : ... .. . ... ... : ... .. . ... ... : ... .. . ... ... : D#4 01 F ... ...
ROW 1D : ... .. E ... ... ... : ... .. . ... ... ... : ... .. . ... : ... .. 3 ... : ... .. . ... ... : --- .. . ... ... : --- .. . P81 ... : ... .. D P80 ...
ROW 1E : ... .. D ... ... ... : ... .. . ... ... ... : ... .. . ... : ... .. 2 ... : ... .. . ... ... : ... .. . ... ... : ... .. . ... ... : ... .. 8 P7F ...
ROW 1F : ... .. A ... ... ... : ... .. . ... ... ... : ... .. . ... : ... .. 0 ... : ... .. . ... ... : ... .. . ... ... : ... .. . ... ... : ... .. . P7E ...
ROW 20 : D-3 00 F ... ... ... : D-5 00 8 P80 ... ... : C#5 00 . ... : B-# 00 D ... : ... .. . ... ... : ... .. . ... ... : ... .. . ... ... : D-4 01 F P7F ...
ROW 21 : ... .. E ... ... ... : ... .. 6 ... ... ... : D#4 00 . ... : ... .. B ... : ... .. . ... ... : ... .. . ... ... : ... .. . ... ... : ... .. D P80 ...
ROW 22 : ... .. D ... ... ... : ... .. 3 ... ... ... : G#3 00 . ... : ... .. . ... : ... .. . ... ... : ... .. . ... ... : ... .. . ... ... : ... .. 8 P82 ...
ROW 23 : ... .. A ... ... ... : ... .. 1 ... ... ... : G-3 00 . ... : ... .. A ... : ... .. . ... ... : ... .. . ... ... : ... .. . ... ... : ... .. . ... ...
ROW 24 : ... .. . ... ... ... : ... .. . ... ... ... : D-3 00 . ... : ... .. 8 ... : ... .. . ... ... : ... .. . ... ... : ... .. . ... ... : ... .. . P80 ...
ROW 25 : ... .. . ... ... ... : ... .. 0 ... ... ... : ... .. . ... : ... .. 7 ... : ... .. . ... ... : ... .. . ... ... : ... .. . ... ... : ... .. . P7F ...
ROW 26 : ... .. . ... ... ... : D#5 00 8 P80 ... ... : ... .. . ... : ... .. 6 ... : ... .. . ... ... : ... .. . ... ... : ... .. . ... ... : ... .. . P7E ...
ROW 27 : ... .. . ... ... ... : ... .. 6 ... ... ... : ... .. . ... : ... .. . ... : ... .. . ... ... : ... .. . ... ... : ... .. . ... ... : ... .. . P7F ...
ROW 28 : ... .. . ... ... ... : ... .. 3 ... ... ... : ... .. . ... : ... .. 5 ... : ... .. . ... ... : ... .. . ... ... : ... .. . ... ... : ... .. . P80 ...
ROW 29 : ... .. . ... ... ... : ... .. 1 ... ... ... : ... .. . ... : ... .. . ... : ... .. . ... ... : ... .. . ... ... : ... .. . ... ... : ... .. . P82 ...
ROW 2A : ... .. . ... ... ... : ... .. . ... ... ... : ... .. . ... : ... .. 4 ... : ... .. . ... ... : ... .. . ... ... : ... .. . ... ... : ... .. . ... ...
ROW 2B : ... .. . ... ... ... : ... .. 0 ... ... ... : --- .. . ... : ... .. . ... : ... .. . ... ... : ... .. . ... ... : ... .. . ... ... : ... .. . P80 ...
ROW 2C : ... .. . ... ... ... : D-5 00 8 P80 ... ... : B-4 00 . ... : D-# 00 F ... : ... .. . ... ... : A-3 01 9 ... ... : C-3 01 9 P80 ... : ... .. . P7F ...
ROW 2D : ... .. . ... ... ... : ... .. 6 ... ... ... : C#4 00 . ... : ... .. C ... : ... .. . ... ... : ... .. 8 ... ... : ... .. 8 ... ... : ... .. . P7E ...
ROW 2E : ... .. . ... ... ... : ... .. 3 ... ... ... : F#3 00 . ... : ... .. 6 ... : ... .. . ... ... : ... .. . ... ... : ... .. . ... ... : ... .. . P7F ...
ROW 2F : ... .. . ... ... ... : ... .. 1 ... ... ... : F-3 00 . ... : ... .. 3 ... : ... .. . ... ... : --- .. . ... ... : --- .. . P7E ... : ... .. . P80 ...
ROW 30 : ... .. . ... ... ... : ... .. . ... ... ... : C-3 00 . ... : ... .. 2 ... : ... .. . ... ... : ... .. . ... ... : ... .. . ... ... : ... .. . P81 ...
ROW 31 : ... .. . ... ... ... : ... .. 0 ... ... ... : ... .. . ... : ... .. 0 ... : ... .. . ... ... : ... .. . ... ... : ... .. . ... ... : ... .. . P82 ...
ROW 32 : E-3 00 F ... ... ... : D#5 00 8 P80 ... ... : ... .. . ... : ... .. F ... : ... .. . ... ... : A-3 01 9 ... ... : C-3 01 9 P80 ... : E-4 01 F P80 ...
ROW 33 : ... .. E ... ... ... : ... .. 6 ... ... ... : ... .. . ... : ... .. C ... : ... .. . ... ... : ... .. 8 ... ... : ... .. 8 ... ... : ... .. D ... ...
ROW 34 : ... .. D ... ... ... : ... .. 3 ... ... ... : ... .. . ... : ... .. 6 ... : ... .. . ... ... : ... .. . ... ... : ... .. . ... ... : ... .. 8 P7E ...
ROW 35 : ... .. 0 ... ... ... : ... .. 1 ... ... ... : ... .. . ... : ... .. 3 ... : ... .. . ... ... : ... .. . ... ... : ... .. . ... ... : --- .. . ... ...
ROW 36 : ... .. . ... ... ... : ... .. . ... ... ... : ... .. . ... : ... .. 2 ... : ... .. . ... ... : ... .. 7 ... ... : ... .. 7 ... ... : ... .. . ... ...
ROW 37 : ... .. . ... ... ... : ... .. 0 ... ... ... : --- .. . ... : ... .. 0 ... : ... .. . ... ... : ... .. . ... ... : ... .. . ... ... : ... .. . ... ...
ROW 38 : F#3 00 F P81 ... ... : D-5 00 8 P80 ... ... : A-4 00 . ... : B-# 00 D ... : ... .. . ... ... : ... .. . ... ... : ... .. . ... ... : F#4 01 F P82 ...
ROW 39 : ... .. E ... ... ... : ... .. 6 ... ... ... : B-3 00 . ... : ... .. B ... : ... .. . ... ... : ... .. 6 ... ... : ... .. 6 ... ... : ... .. D P81 ...
ROW 3A : ... .. D ... ... ... : ... .. 3 ... ... ... : E-3 00 . ... : ... .. . ... : ... .. . ... ... : ... .. . ... ... : ... .. . ... ... : ... .. 8 P80 ...
ROW 3B : ... .. A ... ... ... : ... .. 1 ... ... ... : D#3 00 . ... : ... .. A ... : ... .. . ... ... : --- .. . ... ... : --- .. . P7E ... : ... .. . P7E ...
ROW 3C : ... .. . ... ... ... : ... .. . ... ... ... : A#2 00 . ... : ... .. 8 ... : ... .. . ... ... : ... .. . ... ... : ... .. . ... ... : ... .. . ... ...
ROW 3D : ... .. . ... ... ... : ... .. 0 ... ... ... : ... .. . ... : ... .. 7 ... : ... .. . ... ... : ... .. . ... ... : ... .. . ... ... : ... .. . P80 ...
ROW 3E : ... .. . ... ... ... : D#5 00 8 P80 ... ... : ... .. . ... : ... .. 6 ... : ... .. . ... ... : ... .. . ... ... : ... .. . ... ... : ... .. . P81 ...
ROW 3F : ... .. 2 ... ... ... : ... .. 6 ... ... ... : ... .. . ... : ... .. . ... : ... .. . ... ... : ... .. . ... ... : ... .. . ... ... : ... .. 4 P82 ...
ROW 40 : ... .. . ... ... ... : ... .. 3 ... ... ... : ... .. . ... : ... .. 5 ... : ... .. . ... ... : ... .. . ... ... : ... .. . ... ... : ... .. . P81 ...
ROW 41 : ... .. . ... ... ... : ... .. 1 ... ... ... : ... .. . ... : ... .. . ... : ... .. . ... ... : ... .. . ... ... : ... .. . ... ... : ... .. 1 P80 ...
ROW 42 : ... .. 1 ... ... ... : ... .. . ... ... ... : ... .. . ... : ... .. 4 ... : ... .. . ... ... : ... .. . ... ... : ... .. . ... ... : ... .. . P7E ...
ROW 43 : ... .. . ... ... ... : ... .. 0 ... ... ... : --- .. . ... : ... .. . ... : ... .. . ... ... : ... .. . ... ... : ... .. . ... ... : ... .. . ... ...
ROW 44 : D-3 00 F ... ... ... : D-5 00 8 P80 ... ... : G#4 00 . ... : D-# 00 F ... : ... .. . ... ... : A-3 01 9 ... ... : C-3 01 9 P80 ... : D-4 01 F P80 ...
ROW 45 : ... .. E ... ... ... : ... .. 6 ... ... ... : A#3 00 . ... : ... .. C ... : ... .. . ... ... : ... .. 8 ... ... : ... .. 8 ... ... : ... .. D P81 ...
ROW 46 : ... .. D ... ... ... : ... .. 3 ... ... ... : D#3 00 . ... : ... .. 6 ... : ... .. . ... ... : ... .. . ... ... : ... .. . ... ... : ... .. 8 P82 ...
ROW 47 : ... .. A ... ... ... : ... .. 1 ... ... ... : D-3 00 . ... : ... .. 3 ... : ... .. . ... ... : --- .. . ... ... : --- .. . P7E ... : ... .. . P81 ...
ROW 48 : ... .. . ... ... ... : ... .. . ... ... ... : A-2 00 . ... : ... .. 2 ... : ... .. . ... ... : ... .. . ... ... : ... .. . ... ... : ... .. . P80 ...
ROW 49 : ... .. . ... ... ... : ... .. 0 ... ... ... : ... .. . ... : ... .. 0 ... : ... .. . ... ... : ... .. . ... ... : ... .. . ... ... : ... .. . P7E ...
ROW 4A : ... .. 0 ... ... ... : C-5 00 8 P80 ... ... : ... .. . ... : ... .. F ... : ... .. . ... ... : A-3 01 9 ... ... : C-3 01 9 P80 ... : --- .. . ... ...
ROW 4B : ... .. . ... ... ... : ... .. 6 ... ... ... : ... .. . ... : ... .. C ... : ... .. . ... ... : ... .. 8 ... ... : ... .. 8 ... ... : ... .. . ... ...
ROW 4C : ... .. . ... ... ... : ... .. 3 ... ... ... : ... .. . ... : ... .. 6 ... : ... .. . ... ... : ... .. . ... ... : ... .. . ... ... : ... .. . ... ...
ROW 4D : ... .. . ... ... ... : ... .. 1 ... ... ... : ... .. . ... : ... .. 3 ... : ... .. . ... ... : ... .. . ... ... : ... .. . ... ... : ... .. . ... ...
ROW 4E : ... .. . ... ... ... : ... .. . ... ... ... : ... .. . ... : ... .. 2 ... : ... .. . ... ... : ... .. 7 ... ... : ... .. 7 ... ... : ... .. . ... ...
ROW 4F : ... .. . ... ... ... : ... .. 0 ... ... ... : --- .. . ... : ... .. 0 ... : ... .. . ... ... : ... .. . ... ... : ... .. . ... ... : ... .. . ... ...
ROW 50 : G-3 00 F P81 ... ... : A#4 00 8 P80 ... ... : F#4 00 . ... : B-# 00 D ... : ... .. . ... ... : ... .. . ... ... : ... .. . ... ... : G-4 01 F P7F ...
ROW 51 : ... .. E ... ... ... : ... .. 6 ... ... ... : G#3 00 . ... : ... .. B ... : ... .. . ... ... : ... .. 6 ... ... : ... .. 6 ... ... : ... .. D P7E ...
ROW 52 : ... .. D ... ... ... : ... .. 3 ... ... ... : C#3 00 . ... : ... .. . ... : ... .. . ... ... : ... .. . ... ... : ... .. . ... ... : ... .. 8 P80 ...
ROW 53 : ... .. A ... ... ... : ... .. 1 ... ... ... : C-3 00 . ... : ... .. A ... : ... .. . ... ... : --- .. . ... ... : --- .. . P7E ... : ... .. . ... ...
ROW 54 : ... .. . ... ... ... : ... .. . ... ... ... : G-2 00 . ... : ... .. 8 ... : ... .. . ... ... : ... .. . ... ... : ... .. . ... ... : ... .. . P82 ...
ROW 55 : ... .. . ... ... ... : ... .. 0 ... ... ... : --- .. . ... : ... .. 7 ... : ... .. . ... ... : ... .. . ... ... : ... .. . ... ... : ... .. . P81 ...
ROW 56 : A-3 00 F ... ... ... : A-4 00 8 P80 ... ... : F#2 00 . ... : ... .. 6 ... : ... .. . ... ... : ... .. . ... ... : ... .. . ... ... : A-4 01 F P80 ...
ROW 57 : ... .. E ... ... ... : ... .. 6 ... ... ... : ... .. . ... : ... .. . ... : ... .. . ... ... : ... .. . ... ... : ... .. . ... ... : ... .. D P7F ...
ROW 58 : ... .. D ... ... ... : ... .. 3 ... ... ... : ... .. . ... : ... .. 5 ... : ... .. . ... ... : ... .. . ... ... : ... .. . ... ... : ... .. 8 P7E ...
ROW 59 : ... .. 0 ... ... ... : ... .. 1 ... ... ... : ... .. . ... : ... .. . ... : ... .. . ... ... : ... .. . ... ... : ... .. . ... ... : --- .. . ... ...
ROW 5A : ... .. . ... ... ... : ... .. . ... ... ... : ... .. . ... : ... .. 4 ... : ... .. . ... ... : ... .. . ... ... : ... .. . ... ... : ... .. . ... ...
ROW 5B : ... .. . ... ... ... : ... .. 0 ... ... ... : --- .. . ... : ... .. . ... : ... .. . ... ... : ... .. . ... ... : ... .. . ... ... : ... .. . ... ...
ROW 5C : A#3 00 F P81 ... ... : A#4 00 8 P80 ... ... : G-2 00 . ... : ... .. D ... : ... .. . ... ... : G-3 01 9 ... ... : A#2 01 9 P80 ... : A#4 01 F P82 ...
ROW 5D : ... .. E ... ... ... : ... .. 6 ... ... ... : ... .. . ... : ... .. B ... : ... .. . ... ... : ... .. 8 ... ... : ... .. 8 ... ... : ... .. D P80 ...
ROW 5E : ... .. D ... ... ... : ... .. 3 ... ... ... : ... .. . ... : ... .. . ... : ... .. . ... ... : ... .. . ... ... : ... .. . ... ... : ... .. 8 P7F ...
ROW 5F : ... .. 0 ... ... ... : ... .. 1 ... ... ... : ... .. . ... : ... .. A ... : ... .. . ... ... : --- .. . P81 ... : --- .. . P82 ... : --- .. . ... ...
ROW 60 : ... .. . ... ... ... : ... .. . ... ... ... : ... .. . ... : ... .. 8 ... : ... .. . ... ... : ... .. . ... ... : ... .. . ... ... : ... .. . ... ...
ROW 61 : ... .. . ... ... ... : ... .. 0 ... ... ... : --- .. . ... : ... .. 7 ... : ... .. . ... ... : ... .. . ... ... : ... .. . ... ... : ... .. . ... ...
ROW 62 : C-4 00 F P81 ... ... : A-4 00 8 P80 ... ... : A-2 00 . ... : ... .. 6 ... : ... .. . ... ... : G-3 01 9 P80 ... : A#2 01 9 P80 ... : C-5 01 F P82 ...
ROW 63 : ... .. E ... ... ... : ... .. 6 ... ... ... : ... .. . ... : ... .. . ... : ... .. . ... ... : ... .. 8 ... ... : ... .. 8 ... ... : ... .. D ... ...
ROW 64 : ... .. D ... ... ... : ... .. 3 ... ... ... : ... .. . ... : ... .. 5 ... : ... .. . ... ... : ... .. . ... ... : ... .. . ... ... : ... .. 8 P80 ...
ROW 65 : ... .. 0 ... ... ... : ... .. 1 ... ... ... : ... .. . ... : ... .. . ... : ... .. . ... ... : ... .. . ... ... : ... .. . ... ... : --- .. . ... ...
ROW 66 : ... .. . ... ... ... : ... .. . ... ... ... : ... .. . ... : ... .. 4 ... : ... .. . ... ... : ... .. 7 ... ... : ... .. 7 ... ... : ... .. . ... ...
ROW 67 : ... .. . ... ... ... : ... .. 0 ... ... ... : --- .. . ... : ... .. . ... : ... .. . ... ... : ... .. . ... ... : ... .. . ... ... : ... .. . ... ...
ROW 68 : D-4 00 F P81 ... ... : A#4 00 8 P80 ... ... : A-4 00 . ... : ... .. D ... : ... .. . ... ... : ... .. . ... ... : ... .. . ... ... : D-5 01 F ... ...
ROW 69 : ... .. E ... ... ... : ... .. 6 ... ... ... : B-3 00 . ... : ... .. B ... : ... .. . ... ... : ... .. 6 ... ... : ... .. 6 ... ... : ... .. D P82 ...
ROW 6A : ... .. D ... ... ... : ... .. 3 ... ... ... : E-3 00 . ... : ... .. . ... : ... .. . ... ... : ... .. . ... ... : ... .. . ... ... : ... .. 8 ... ...
ROW 6B : ... .. A ... ... ... : ... .. 1 ... ... ... : D#3 00 . ... : ... .. A ... : ... .. . ... ... : --- .. . P81 ... : --- .. . P82 ... : ... .. . P80 ...
ROW 6C : ... .. . ... ... ... : ... .. . ... ... ... : A#2 00 . ... : ... .. 8 ... : ... .. . ... ... : ... .. . ... ... : ... .. . ... ... : ... .. . P7F ...
ROW 6D : ... .. . ... ... ... : ... .. 0 ... ... ... : ... .. . ... : ... .. 7 ... : ... .. . ... ... : ... .. . ... ... : ... .. . ... ... : ... .. . P7E ...
ROW 6E : ... .. . ... ... ... : A-4 00 8 P80 ... ... : ... .. . ... : ... .. 6 ... : ... .. . ... ... : ... .. . ... ... : ... .. . ... ... : ... .. . P7F ...
ROW 6F : ... .. . ... ... ... : ... .. 6 ... ... ... : ... .. . ... : ... .. . ... : ... .. . ... ... : ... .. . ... ... : ... .. . ... ... : ... .. . P80 ...
ROW 70 : ... .. . ... ... ... : ... .. 3 ... ... ... : ... .. . ... : ... .. 5 ... : ... .. . ... ... : ... .. . ... ... : ... .. . ... ... : ... .. . P81 ...
ROW 71 : ... .. 0 ... ... ... : ... .. 1 ... ... ... : ... .. . ... : ... .. . ... : ... .. . ... ... : ... .. . ... ... : ... .. . ... ... : --- .. . ... ...
ROW 72 : ... .. . ... ... ... : ... .. . ... ... ... : ... .. . ... : ... .. 4 ... : ... .. . ... ... : ... .. . ... ... : ... .. . ... ... : ... .. . ... ...
ROW 73 : ... .. . ... ... ... : ... .. 0 ... ... ... : --- .. . ... : ... .. . ... : ... .. . ... ... : ... .. . ... ... : ... .. . ... ... : ... .. . ... ...
ROW 74 : A#3 00 F P81 ... ... : A#4 00 8 P80 ... ... : F#4 00 . ... : D-# 00 F ... : ... .. . ... ... : G-3 01 9 P80 ... : A#2 01 9 P80 ... : A#4 01 F P7E ...
ROW 75 : ... .. E ... ... ... : ... .. 6 ... ... ... : G#3 00 . ... : ... .. C ... : ... .. . ... ... : ... .. 8 ... ... : ... .. 8 ... ... : ... .. D P7F ...
ROW 76 : ... .. D ... ... ... : ... .. 3 ... ... ... : C#3 00 . ... : ... .. 6 ... : ... .. . ... ... : ... .. . ... ... : ... .. . ... ... : ... .. 8 P80 ...
ROW 77 : ... .. A ... ... ... : ... .. 1 ... ... ... : C-3 00 . ... : ... .. 3 ... : ... .. . ... ... : --- .. . P81 ... : --- .. . P82 ... : ... .. . P81 ...
ROW 78 : ... .. . ... ... ... : ... .. . ... ... ... : G-2 00 . ... : ... .. 2 ... : ... .. . ... ... : ... .. . ... ... : ... .. . ... ... : ... .. . P82 ...
ROW 79 : ... .. . ... ... ... : ... .. 0 ... ... ... : ... .. . ... : ... .. 0 ... : ... .. . ... ... : ... .. . ... ... : ... .. . ... ... : ... .. . P81 ...
ROW 7A : ... .. . ... ... ... : D-5 00 8 P80 ... ... : ... .. . ... : ... .. F ... : ... .. . ... ... : G-3 01 9 P80 ... : A#2 01 9 P80 ... : ... .. . P80 ...
ROW 7B : ... .. . ... ... ... : ... .. 6 ... ... ... : ... .. . ... : ... .. C ... : ... .. . ... ... : ... .. 8 ... ... : ... .. 8 ... ... : ... .. . P7E ...
ROW 7C : ... .. . ... ... ... : ... .. 3 ... ... ... : ... .. . ... : ... .. 6 ... : ... .. . ... ... : ... .. . ... ... : ... .. . ... ... : ... .. . ... ...
ROW 7D : ... .. 0 ... ... ... : ... .. 1 ... ... ... : ... .. . ... : ... .. 3 ... : ... .. . ... ... : ... .. . ... ... : ... .. . ... ... : --- .. . ... ...
ROW 7E : ... .. . ... ... ... : ... .. . ... ... ... : ... .. . ... : ... .. 2 ... : ... .. . ... ... : ... .. 7 ... ... : ... .. 7 ... ... : ... .. . ... ...
ROW 7F : ... .. . ... ... ... : ... .. 0 ... ... ... : --- .. . ... : ... .. 0 ... : ... .. . ... ... : ... .. . ... ... : ... .. . ... ... : ... .. . ... ...
ROW 80 : C#4 00 F P81 ... ... : C#5 00 8 P80 ... ... : G#4 00 . ... : B-# 00 D ... : ... .. . ... ... : A-2 01 9 ... ... : A-3 01 9 ... ... : C#5 01 F P81 ...
ROW 81 : ... .. E ... ... ... : ... .. 6 ... ... ... : A#3 00 . ... : ... .. B ... : ... .. . ... ... : ... .. 8 ... ... : ... .. 8 ... ... : ... .. D P80 ...
ROW 82 : ... .. D ... ... ... : ... .. 3 ... ... ... : D#3 00 . ... : ... .. . ... : ... .. . ... ... : ... .. . ... ... : ... .. . ... ... : ... .. 8 P7E ...
ROW 83 : ... .. A ... ... ... : ... .. 1 ... ... ... : D-3 00 . ... : ... .. A ... : ... .. . ... ... : ... .. . ... ... : ... .. . ... ... : ... .. . ... ...
ROW 84 : ... .. . ... ... ... : ... .. . ... ... ... : A-2 00 . ... : ... .. 8 ... : ... .. . ... ... : ... .. 7 ... ... : ... .. 7 ... ... : ... .. . P80 ...
ROW 85 : ... .. . ... ... ... : ... .. 0 ... ... ... : ... .. . ... : ... .. 7 ... : ... .. . ... ... : ... .. . ... ... : ... .. . ... ... : ... .. . P81 ...
ROW 86 : C-4 00 F ... ... ... : B-4 00 8 P80 ... ... : ... .. . ... : ... .. 6 ... : ... .. . ... ... : A#2 01 9 ... ... : A#3 01 9 ... ... : C-5 01 F P82 ...
ROW 87 : ... .. E ... ... ... : ... .. 6 ... ... ... : ... .. . ... : ... .. . ... : ... .. . ... ... : ... .. 8 ... ... : ... .. 8 ... ... : ... .. D P81 ...
ROW 88 : ... .. D ... ... ... : ... .. 3 ... ... ... : ... .. . ... : ... .. 5 ... : ... .. . ... ... : ... .. . ... ... : ... .. . ... ... : ... .. 8 P80 ...
ROW 89 : ... .. A ... ... ... : ... .. 1 ... ... ... : ... .. . ... : ... .. . ... : ... .. . ... ... : ... .. . ... ... : ... .. . ... ... : ... .. . P7E ...
ROW 8A : ... .. . ... ... ... : ... .. . ... ... ... : ... .. . ... : ... .. 4 ... : ... .. . ... ... : ... .. 7 ... ... : ... .. 7 ... ... : ... .. . ... ...
ROW 8B : ... .. . ... ... ... : ... .. 0 ... ... ... : --- .. . ... : ... .. . ... : ... .. . ... ... : ... .. . ... ... : ... .. . ... ... : ... .. . P80 ...
ROW 8C : C#4 00 F ... ... ... : C#5 00 8 P80 ... ... : G-3 00 . ... : D-# 00 F ... : ... .. . ... ... : A-2 01 9 ... ... : A-3 01 9 ... ... : C#5 01 F P81 ...
ROW 8D : ... .. E ... ... ... : ... .. 6 ... ... ... : ... .. . ... : ... .. C ... : ... .. . ... ... : ... .. 8 ... ... : ... .. 8 ... ... : ... .. D P82 ...
ROW 8E : ... .. D ... ... ... : ... .. 3 ... ... ... : ... .. . ... : ... .. 6 ... : ... .. . ... ... : ... .. . ... ... : ... .. . ... ... : ... .. 8 P81 ...
ROW 8F : ... .. 0 ... ... ... : ... .. 1 ... ... ... : ... .. . ... : ... .. 3 ... : ... .. . ... ... : ... .. . ... ... : ... .. . ... ... : --- .. . ... ...
ROW 90 : ... .. . ... ... ... : ... .. . ... ... ... : ... .. . ... : ... .. 2 ... : ... .. . ... ... : ... .. 7 ... ... : ... .. 7 ... ... : ... .. . ... ...
ROW 91 : ... .. . ... ... ... : ... .. 0 ... ... ... : --- .. . ... : ... .. 0 ... : ... .. . ... ... : ... .. . ... ... : ... .. . ... ... : ... .. . ... ...
ROW 92 : D-4 00 F P81 ... ... : D-5 00 8 P80 ... ... : G-3 00 . ... : ... .. F ... : ... .. . ... ... : G-2 01 9 ... ... : G-3 01 9 ... ... : D-5 01 F P80 ...
ROW 93 : ... .. E ... ... ... : ... .. 6 ... ... ... : ... .. . ... : ... .. C ... : ... .. . ... ... : ... .. 8 ... ... : ... .. 8 ... ... : ... .. D ... ...
ROW 94 : ... .. D ... ... ... : ... .. 3 ... ... ... : ... .. . ... : ... .. 6 ... : ... .. . ... ... : ... .. . ... ... : ... .. . ... ... : ... .. 8 P82 ...
ROW 95 : ... .. 0 ... ... ... : ... .. 1 ... ... ... : ... .. . ... : ... .. 3 ... : ... .. . ... ... : ... .. . ... ... : ... .. . ... ... : --- .. . ... ...
ROW 96 : ... .. . ... ... ... : ... .. . ... ... ... : ... .. . ... : ... .. 2 ... : ... .. . ... ... : ... .. 7 ... ... : ... .. 7 ... ... : ... .. . ... ...
ROW 97 : ... .. . ... ... ... : ... .. 0 ... ... ... : --- .. . ... : ... .. 0 ... : ... .. . ... ... : ... .. . ... ... : ... .. . ... ... : ... .. . ... ...
ROW 98 : E-4 00 F P81 ... ... : E-5 00 8 P80 ... ... : G#4 00 . ... : B-# 00 D ... : ... .. . ... ... : F#2 01 9 ... ... : F#3 01 9 ... ... : E-5 01 F P7E ...
ROW 99 : ... .. E ... ... ... : ... .. 6 ... ... ... : A#3 00 . ... : ... .. B ... : ... .. . ... ... : ... .. 8 ... ... : ... .. 8 ... ... : ... .. D P7F ...
ROW 9A : ... .. D ... ... ... : ... .. 3 ... ... ... : D#3 00 . ... : ... .. . ... : ... .. . ... ... : ... .. . ... ... : ... .. . ... ... : ... .. 8 P80 ...
ROW 9B : ... .. A ... ... ... : ... .. 1 ... ... ... : D-3 00 . ... : ... .. A ... : ... .. . ... ... : ... .. . ... ... : ... .. . ... ... : ... .. . P82 ...
ROW 9C : ... .. . ... ... ... : ... .. . ... ... ... : A-2 00 . ... : ... .. 8 ... : ... .. . ... ... : ... .. 7 ... ... : ... .. 7 ... ... : ... .. . ... ...
ROW 9D : ... .. . ... ... ... : ... .. 0 ... ... ... : ... .. . ... : ... .. 7 ... : ... .. . ... ... : ... .. . ... ... : ... .. . ... ... : ... .. . P80 ...
ROW 9E : ... .. . ... ... ... : D-5 00 8 P80 ... ... : ... .. . ... : ... .. 6 ... : ... .. . ... ... : G-2 01 9 ... ... : G-3 01 9 ... ... : ... .. . P7F ...
ROW 9F : ... .. . ... ... ... : ... .. 6 ... ... ... : ... .. . ... : ... .. . ... : ... .. . ... ... : ... .. 8 ... ... : ... .. 8 ... ... : ... .. . P7E ...
ROW A0 : ... .. . ... ... ... : ... .. 3 ... ... ... : ... .. . ... : ... .. 5 ... : ... .. . ... ... : ... .. . ... ... : ... .. . ... ... : ... .. . P7F ...
ROW A1 : ... .. . ... ... ... : ... .. 1 ... ... ... : ... .. . ... : ... .. . ... : ... .. . ... ... : ... .. . ... ... : ... .. . ... ... : ... .. . P80 ...
ROW A2 : ... .. . ... ... ... : ... .. . ... ... ... : ... .. . ... : ... .. 4 ... : ... .. . ... ... : ... .. 7 ... ... : ... .. 7 ... ... : ... .. . P82 ...
ROW A3 : ... .. . ... ... ... : ... .. 0 ... ... ... : --- .. . ... : ... .. . ... : ... .. . ... ... : ... .. . ... ... : ... .. . ... ... : ... .. . ... ...
ROW A4 : A-4 00 F ... ... ... : E-5 00 8 P80 ... ... : G-3 00 . ... : D-# 00 F ... : ... .. . ... ... : F#2 01 9 ... ... : F#3 01 9 ... ... : A-5 01 F P80 ...
ROW A5 : ... .. E ... ... ... : ... .. 6 ... ... ... : ... .. . ... : ... .. C ... : ... .. . ... ... : ... .. 8 ... ... : ... .. 8 ... ... : ... .. D P7F ...
ROW A6 : ... .. D ... ... ... : ... .. 3 ... ... ... : ... .. . ... : ... .. 6 ... : ... .. . ... ... : ... .. . ... ... : ... .. . ... ... : G#5 01 8 P82 ...
ROW A7 : ... .. A ... ... ... : ... .. 1 ... ... ... : ... .. . ... : ... .. 3 ... : ... .. . ... ... : ... .. . ... ... : ... .. . ... ... : A-5 01 8 P7F ...
ROW A8 : ... .. . ... ... ... : ... .. . ... ... ... : ... .. . ... : ... .. 2 ... : ... .. . ... ... : ... .. 7 ... ... : ... .. 7 ... ... : ... .. . P80 ...
ROW A9 : ... .. . ... ... ... : ... .. 0 ... ... ... : --- .. . ... : ... .. 0 ... : ... .. . ... ... : ... .. . ... ... : ... .. . ... ... : ... .. . P82 ...
ROW AA : ... .. . ... ... ... : G-5 00 8 P80 ... ... : G-3 00 . ... : ... .. F ... : ... .. . ... ... : E-2 01 9 ... ... : E-3 01 9 ... ... : ... .. . ... ...
ROW AB : ... .. . ... ... ... : ... .. 6 ... ... ... : ... .. . ... : ... .. C ... : ... .. . ... ... : ... .. 8 ... ... : ... .. 8 ... ... : ... .. . P80 ...
ROW AC : ... .. . ... ... ... : ... .. 3 ... ... ... : ... .. . ... : ... .. 6 ... : ... .. . ... ... : ... .. . ... ... : ... .. . ... ... : ... .. . P7F ...
ROW AD : ... .. 0 ... ... ... : ... .. 1 ... ... ... : ... .. . ... : ... .. 3 ... : ... .. . ... ... : ... .. . ... ... : ... .. . ... ... : --- .. . ... ...
ROW AE : ... .. . ... ... ... : ... .. . ... ... ... : ... .. . ... : ... .. 2 ... : ... .. . ... ... : ... .. 7 ... ... : ... .. 7 ... ... : ... .. . ... ...
ROW AF : ... .. . ... ... ... : ... .. 0 ... ... ... : --- .. . ... : ... .. 0 ... : ... .. . ... ... : ... .. . ... ... : ... .. . ... ... : ... .. . ... ...
ROW B0 : D-4 00 F P81 ... ... : F#5 00 8 P80 ... ... : C#4 00 . ... : B-# 00 D ... : ... .. . ... ... : D-4 01 9 ... ... : D-3 01 9 ... ... : D-5 01 F P81 ...
ROW B1 : ... .. E ... ... ... : ... .. 6 ... ... ... : D#3 00 . ... : ... .. B ... : ... .. . ... ... : ... .. 8 ... ... : ... .. 8 ... ... : ... .. D P82 ...
ROW B2 : ... .. D ... ... ... : ... .. 3 ... ... ... : G#2 00 . ... : ... .. . ... : ... .. . ... ... : ... .. . ... ... : ... .. . ... ... : ... .. 8 P80 ...
ROW B3 : ... .. A ... ... ... : ... .. 1 ... ... ... : G-2 00 . ... : ... .. A ... : ... .. . ... ... : E-4 01 9 ... ... : E-3 01 9 ... ... : ... .. . ... ...
ROW B4 : ... .. . ... ... ... : ... .. . ... ... ... : D-2 00 . ... : ... .. 8 ... : ... .. . ... ... : ... .. 8 ... ... : ... .. 8 ... ... : ... .. . P7E ...
ROW B5 : ... .. . ... ... ... : ... .. 0 ... ... ... : ... .. . ... : ... .. 7 ... : ... .. . ... ... : ... .. . ... ... : ... .. . ... ... : ... .. . P7F ...
ROW B6 : ... .. . ... ... ... : F-5 00 8 P80 ... ... : ... .. . ... : ... .. 6 ... : ... .. . ... ... : F#4 01 9 ... ... : F#3 01 9 ... ... : ... .. . P80 ...
ROW B7 : ... .. . ... ... ... : ... .. 6 ... ... ... : ... .. . ... : ... .. . ... : ... .. . ... ... : ... .. 8 ... ... : ... .. 8 ... ... : ... .. . P81 ...
ROW B8 : ... .. . ... ... ... : ... .. 3 ... ... ... : ... .. . ... : ... .. 5 ... : ... .. . ... ... : ... .. . ... ... : ... .. . ... ... : ... .. . P82 ...
ROW B9 : ... .. . ... ... ... : ... .. 1 ... ... ... : ... .. . ... : ... .. . ... : ... .. . ... ... : G-4 01 9 ... ... : G-3 01 9 ... ... : ... .. . P81 ...
ROW BA : ... .. . ... ... ... : ... .. . ... ... ... : ... .. . ... : ... .. 4 ... : ... .. . ... ... : ... .. 8 ... ... : ... .. 8 ... ... : ... .. . P80 ...
ROW BB : ... .. . ... ... ... : ... .. 0 ... ... ... : --- .. . ... : ... .. . ... : ... .. . ... ... : ... .. . ... ... : ... .. . ... ... : ... .. . P7E ...
ROW BC : ... .. . ... ... ... : E-5 00 8 P80 ... ... : F#3 00 . ... : ... .. 3 ... : ... .. . ... ... : A-4 01 9 ... ... : A-3 01 9 ... ... : ... .. . ... ...
ROW BD : ... .. . ... ... ... : ... .. 6 ... ... ... : ... .. . ... : ... .. 2 ... : ... .. . ... ... : ... .. 8 ... ... : ... .. 8 ... ... : ... .. . P80 ...
ROW BE : ... .. . ... ... ... : ... .. 3 ... ... ... : ... .. . ... : ... .. . ... : ... .. . ... ... : ... .. . ... ... : ... .. . ... ... : ... .. . P81 ...
ROW BF : ... .. . ... ... ... : ... .. 1 ... ... ... : ... .. . ... : D-# 00 5 ... : ... .. . ... ... : B-4 01 9 ... ... : B-3 01 9 ... ... : ... .. . P82 ...
ROW C0 : ... .. . ... ... ... : ... .. . ... ... ... : ... .. . ... : ... .. 4 ... : ... .. . ... ... : ... .. 8 ... ... : ... .. 8 ... ... : ... .. . P81 ...
ROW C1 : ... .. . ... ... ... : ... .. 0 ... ... ... : --- .. . ... : ... .. . ... : ... .. . ... ... : ... .. . ... ... : ... .. . ... ... : ... .. . P80 ...
ROW C2 : ... .. 0 ... ... ... : D#5 00 8 P80 ... ... : A-3 00 . ... : ... .. 6 ... : ... .. . ... ... : C-5 01 9 ... ... : C-4 01 9 ... ... : --- .. . ... ...
ROW C3 : ... .. . ... ... ... : ... .. 6 ... ... ... : ... .. . ... : ... .. 5 ... : ... .. . ... ... : ... .. 8 ... ... : ... .. 8 ... ... : ... .. . ... ...
ROW C4 : ... .. . ... ... ... : ... .. 3 ... ... ... : ... .. . ... : ... .. . ... : ... .. . ... ... : ... .. . ... ... : ... .. . ... ... : ... .. . ... ...
ROW C5 : ... .. . ... ... ... : ... .. 1 ... ... ... : ... .. . ... : ... .. 8 ... : ... .. . ... ... : C#5 01 9 ... ... : C#4 01 9 ... ... : ... .. . ... ...
ROW C6 : ... .. . ... ... ... : ... .. . ... ... ... : ... .. . ... : ... .. 7 ... : ... .. . ... ... : ... .. 8 ... ... : ... .. 8 ... ... : ... .. . ... ...
ROW C7 : ... .. . ... ... ... : ... .. 0 ... ... ... : --- .. . ... : ... .. . ... : ... .. . ... ... : ... .. . ... ... : ... .. . ... ... : ... .. . ... ...
ROW C8 : G-3 00 F P81 ... ... : D-5 00 8 P80 ... ... : D-4 00 . ... : B-# 00 D ... : ... .. . ... ... : D-5 01 9 ... ... : D-4 01 9 ... ... : G-4 01 F ... ...
ROW C9 : ... .. E ... ... ... : ... .. 6 ... ... ... : ... .. . ... : ... .. B ... : ... .. . ... ... : ... .. 8 ... ... : ... .. 8 ... ... : ... .. D P7E ...
ROW CA : ... .. D ... ... ... : ... .. 3 ... ... ... : ... .. . ... : ... .. . ... : ... .. . ... ... : ... .. . ... ... : ... .. . ... ... : ... .. 8 ... ...
ROW CB : ... .. A ... ... ... : ... .. 1 ... ... ... : ... .. . ... : ... .. A ... : ... .. . ... ... : ... .. . ... ... : ... .. . ... ... : ... .. . P80 ...
ROW CC : ... .. . ... ... ... : ... .. . ... ... ... : ... .. . ... : ... .. 8 ... : ... .. . ... ... : ... .. 7 ... ... : ... .. 7 ... ... : ... .. . P81 ...
ROW CD : ... .. . ... ... ... : ... .. 0 ... ... ... : --- .. . ... : ... .. 7 ... : ... .. . ... ... : ... .. . ... ... : ... .. . ... ... : ... .. . P82 ...
ROW CE : ... .. . ... ... ... : D#5 00 8 P80 ... ... : C-4 00 . ... : ... .. 6 ... : ... .. . ... ... : ... .. . ... ... : ... .. . ... ... : ... .. . P81 ...
ROW CF : F#3 00 F ... ... ... : ... .. 6 ... ... ... : ... .. . ... : ... .. . ... : ... .. . ... ... : ... .. 6 ... ... : ... .. 6 ... ... : F#4 01 F P80 ...
ROW D0 : ... .. E ... ... ... : ... .. 3 ... ... ... : ... .. . ... : ... .. 5 ... : ... .. . ... ... : ... .. . ... ... : ... .. . ... ... : ... .. D P7F ...
ROW D1 : ... .. D ... ... ... : ... .. 1 ... ... ... : ... .. . ... : ... .. . ... : ... .. . ... ... : ... .. . ... ... : ... .. . ... ... : ... .. 8 P7E ...
ROW D2 : ... .. A ... ... ... : ... .. . ... ... ... : ... .. . ... : ... .. 4 ... : ... .. . ... ... : ... .. . ... ... : ... .. . ... ... : ... .. . P80 ...
ROW D3 : F-3 00 F ... ... ... : ... .. 0 ... ... ... : --- .. . ... : ... .. . ... : ... .. . ... ... : ... .. . ... ... : ... .. . ... ... : F-4 01 F ... ...
ROW D4 : ... .. E ... ... ... : E-5 00 8 P80 ... ... : A#3 00 . ... : ... .. 3 ... : ... .. . ... ... : ... .. . ... ... : ... .. . ... ... : ... .. D P82 ...
ROW D5 : ... .. D ... ... ... : ... .. 6 ... ... ... : ... .. . ... : ... .. 2 ... : ... .. . ... ... : ... .. 5 ... ... : ... .. 5 ... ... : ... .. 8 P81 ...
ROW D6 : ... .. A ... ... ... : ... .. 3 ... ... ... : ... .. . ... : ... .. . ... : ... .. . ... ... : ... .. . ... ... : ... .. . ... ... : ... .. . P80 ...
ROW D7 : ... .. . ... ... ... : ... .. 1 ... ... ... : ... .. . ... : ... .. 1 ... : ... .. . ... ... : ... .. 4 ... ... : ... .. 4 ... ... : ... .. . P7F ...
ROW D8 : E-3 00 F ... ... ... : ... .. . ... ... ... : ... .. . ... : ... .. 0 ... : ... .. . ... ... : ... .. 3 ... ... : ... .. 3 ... ... : E-4 01 F P7E ...
ROW D9 : ... .. E ... ... ... : ... .. 0 ... ... ... : --- .. . ... : ... .. . ... : ... .. . ... ... : ... .. . ... ... : ... .. . ... ... : ... .. D P7F ...
ROW DA : ... .. D ... ... ... : F-5 00 8 P80 ... ... : A-3 00 . ... : ... .. . ... : ... .. . ... ... : ... .. . ... ... : ... .. . ... ... : ... .. 8 P80 ...
ROW DB : ... .. A ... ... ... : ... .. 6 ... ... ... : ... .. . ... : ... .. . ... : ... .. . ... ... : ... .. . ... ... : ... .. . ... ... : ... .. . P82 ...
ROW DC : D#3 00 F ... ... ... : ... .. 3 ... ... ... : ... .. . ... : ... .. . ... : ... .. . ... ... : ... .. . ... ... : ... .. . ... ... : D#4 01 F ... ...
ROW DD : ... .. E ... ... ... : ... .. 1 ... ... ... : ... .. . ... : ... .. . ... : ... .. . ... ... : ... .. . ... ... : ... .. . ... ... : ... .. D P80 ...
ROW DE : ... .. D ... ... ... : ... .. . ... ... ... : ... .. . ... : ... .. . ... : ... .. . ... ... : ... .. . ... ... : ... .. . ... ... : ... .. 8 P7F ...
ROW DF : ... .. A ... ... ... : ... .. 0 ... ... ... : --- .. . ... : ... .. . ... : ... .. . ... ... : ... .. . ... ... : ... .. . ... ... : ... .. . P7E ...
ROW E0 : D-3 00 F ... ... ... : F#5 00 8 P80 ... ... : C#4 00 . ... : ... .. D ... : ... .. . ... ... : ... .. . ... ... : ... .. . ... ... : D-4 01 F P7F ...
ROW E1 : ... .. E ... ... ... : ... .. 6 ... ... ... : D#3 00 . ... : ... .. B ... : ... .. . ... ... : ... .. . ... ... : ... .. . ... ... : ... .. D P80 ...
ROW E2 : ... .. D ... ... ... : ... .. 3 ... ... ... : G#2 00 . ... : ... .. . ... : ... .. . ... ... : ... .. . ... ... : ... .. . ... ... : ... .. 8 P82 ...
ROW E3 : ... .. A ... ... ... : ... .. 1 ... ... ... : G-2 00 . ... : ... .. A ... : ... .. . ... ... : ... .. 1 ... ... : ... .. 1 ... ... : ... .. . ... ...
ROW E4 : ... .. . ... ... ... : ... .. . ... ... ... : D-2 00 . ... : ... .. 8 ... : ... .. . ... ... : ... .. . ... ... : ... .. . ... ... : ... .. . P80 ...
ROW E5 : ... .. . ... ... ... : ... .. 0 ... ... ... : ... .. . ... : ... .. 7 ... : ... .. . ... ... : ... .. . ... ... : ... .. . ... ... : ... .. . P7F ...
ROW E6 : ... .. . ... ... ... : A-5 00 8 P80 ... ... : ... .. . ... : ... .. 6 ... : ... .. . ... ... : ... .. . ... ... : ... .. . ... ... : ... .. . P7E ...
ROW E7 : ... .. . ... ... ... : ... .. 6 ... ... ... : ... .. . ... : ... .. . ... : ... .. . ... ... : ... .. . ... ... : ... .. . ... ... : ... .. . P7F ...
ROW E8 : ... .. . ... ... ... : ... .. 3 ... ... ... : ... .. . ... : ... .. 5 ... : ... .. . ... ... : ... .. . ... ... : ... .. . ... ... : ... .. . P80 ...
ROW E9 : ... .. . ... ... ... : ... .. 1 ... ... ... : ... .. . ... : ... .. . ... : ... .. . ... ... : ... .. . ... ... : ... .. . ... ... : ... .. . P82 ...
ROW EA : ... .. . ... ... ... : ... .. . ... ... ... : ... .. . ... : ... .. 4 ... : ... .. . ... ... : ... .. . ... ... : ... .. . ... ... : ... .. . ... ...
ROW EB : ... .. . ... ... ... : ... .. 0 ... ... ... : --- .. . ... : ... .. . ... : ... .. . ... ... : ... .. . ... ... : ... .. . ... ... : ... .. . P80 ...
ROW EC : ... .. . ... ... ... : F#5 00 8 P80 ... ... : C-4 00 . ... : D-# 00 F ... : ... .. . ... ... : A-4 01 9 ... ... : C-4 01 9 ... ... : ... .. . P7F ...
ROW ED : ... .. . ... ... ... : ... .. 6 ... ... ... : ... .. . ... : ... .. C ... : ... .. . ... ... : ... .. 8 ... ... : ... .. 8 ... ... : ... .. . P7E ...
ROW EE : ... .. . ... ... ... : ... .. 3 ... ... ... : ... .. . ... : ... .. 6 ... : ... .. . ... ... : ... .. . ... ... : ... .. . ... ... : ... .. . P7F ...
ROW EF : ... .. . ... ... ... : ... .. 1 ... ... ... : ... .. . ... : ... .. 3 ... : ... .. . ... ... : --- .. . ... ... : --- .. . ... ... : ... .. . P80 ...
ROW F0 : ... .. . ... ... ... : ... .. . ... ... ... : ... .. . ... : ... .. 2 ... : ... .. . ... ... : ... .. . ... ... : ... .. . ... ... : ... .. . P81 ...
ROW F1 : ... .. . ... ... ... : ... .. 0 ... ... ... : --- .. . ... : ... .. 0 ... : ... .. . ... ... : ... .. . ... ... : ... .. . ... ... : ... .. . P82 ...
ROW F2 : E-3 00 F ... ... ... : A-5 00 8 P80 ... ... : C-4 00 . ... : ... .. F ... : ... .. . ... ... : A-4 01 9 ... ... : C-4 01 9 ... ... : E-4 01 F P80 ...
ROW F3 : ... .. E ... ... ... : ... .. 6 ... ... ... : ... .. . ... : ... .. C ... : ... .. . ... ... : ... .. 8 ... ... : ... .. 8 ... ... : ... .. D ... ...
ROW F4 : ... .. D ... ... ... : ... .. 3 ... ... ... : ... .. . ... : ... .. 6 ... : ... .. . ... ... : ... .. . ... ... : ... .. . ... ... : ... .. 8 P7E ...
ROW F5 : ... .. 0 ... ... ... : ... .. 1 ... ... ... : ... .. . ... : ... .. 3 ... : ... .. . ... ... : ... .. . ... ... : ... .. . ... ... : --- .. . ... ...
ROW F6 : ... .. . ... ... ... : ... .. . ... ... ... : ... .. . ... : ... .. 2 ... : ... .. . ... ... : ... .. 7 ... ... : ... .. 7 ... ... : ... .. . ... ...
ROW F7 : ... .. . ... ... ... : ... .. 0 ... ... ... : --- .. . ... : ... .. 0 ... : ... .. . ... ... : ... .. . ... ... : ... .. . ... ... : ... .. . ... ...
ROW F8 : F#3 00 F P81 ... ... : F#5 00 8 P80 ... ... : C#4 00 . ... : B-# 00 D ... : ... .. . ... ... : ... .. . ... ... : ... .. . ... ... : F#4 01 F P82 ...
ROW F9 : ... .. E ... ... ... : ... .. 6 ... ... ... : D#3 00 . ... : ... .. B ... : ... .. . ... ... : ... .. 6 ... ... : ... .. 6 ... ... : ... .. D P81 ...
ROW FA : ... .. D ... ... ... : ... .. 3 ... ... ... : G#2 00 . ... : ... .. . ... : ... .. . ... ... : ... .. . ... ... : ... .. . ... ... : ... .. 8 P80 ...
ROW FB : ... .. A ... ... ... : ... .. 1 ... ... ... : G-2 00 . ... : ... .. A ... : ... .. . ... ... : --- .. . ... ... : --- .. . ... ... : ... .. . P7E ...
ROW FC : ... .. . ... ... ... : ... .. . ... ... ... : D-2 00 . ... : ... .. 8 ... : ... .. . ... ... : ... .. . ... ... : ... .. . ... ... : ... .. . ... ...
ROW FD : ... .. . ... ... ... : ... .. 0 ... ... ... : ... .. . ... : ... .. 7 ... : ... .. . ... ... : ... .. . ... ... : ... .. . ... ... : ... .. . P80 ...
ROW FE : ... .. . ... ... ... : A-5 00 8 P80 ... ... : ... .. . ... : ... .. 6 ... : ... .. . ... ... : ... .. . ... ... : ... .. . ... ... : ... .. . P81 ...
ROW FF : ... .. 2 ... ... ... : ... .. 6 ... ... ... : ... .. . ... : ... .. . ... : ... .. . ... ... : ... .. . ... ... : ... .. . ... ... : ... .. 4 P82 ...

PATTERN 17
ROW 00 : ... .. . ... ... ... : ... .. 3 ... ... ... : ... .. . ... : ... .. 5 ... : ... .. . ... ... : ... .. . ... ... : ... .. . ... ... : ... .. . P81 ...
ROW 01 : ... .. . ... ... ... : ... .. 1 ... ... ... : ... .. . ... : ... .. . ... : ... .. . ... ... : ... .. . ... ... : ... .. . ... ... : ... .. 1 P80 ...
ROW 02 : ... .. 1 ... ... ... : ... .. . ... ... ... : ... .. . ... : ... .. 4 ... : ... .. . ... ... : ... .. . ... ... : ... .. . ... ... : ... .. . P7E ...
ROW 03 : ... .. . ... ... ... : ... .. 0 ... ... ... : --- .. . ... : ... .. . ... : ... .. . ... ... : ... .. . ... ... : ... .. . ... ... : ... .. . ... ...
ROW 04 : D-3 00 F ... ... ... : F#5 00 8 P80 ... ... : C-4 00 . ... : D-# 00 F ... : ... .. . ... ... : A-4 01 9 ... ... : C-4 01 9 ... ... : D-4 01 F P80 ...
ROW 05 : ... .. E ... ... ... : ... .. 6 ... ... ... : ... .. . ... : ... .. C ... : ... .. . ... ... : ... .. 8 ... ... : ... .. 8 ... ... : ... .. D P81 ...
ROW 06 : ... .. D ... ... ... : ... .. 3 ... ... ... : ... .. . ... : ... .. 6 ... : ... .. . ... ... : ... .. . ... ... : ... .. . ... ... : ... .. 8 P82 ...
ROW 07 : ... .. A ... ... ... : ... .. 1 ... ... ... : ... .. . ... : ... .. 3 ... : ... .. . ... ... : --- .. . ... ... : --- .. . ... ... : ... .. . P81 ...
ROW 08 : ... .. . ... ... ... : ... .. . ... ... ... : ... .. . ... : ... .. 2 ... : ... .. . ... ... : ... .. . ... ... : ... .. . ... ... : ... .. . P80 ...
ROW 09 : ... .. . ... ... ... : ... .. 0 ... ... ... : --- .. . ... : ... .. 0 ... : ... .. . ... ... : ... .. . ... ... : ... .. . ... ... : ... .. . P7E ...
ROW 0A : ... .. 0 ... ... ... : A-5 00 8 P80 ... ... : C-4 00 . ... : ... .. F ... : ... .. . ... ... : A-4 01 9 ... ... : C-4 01 9 ... ... : --- .. . ... ...
ROW 0B : ... .. . ... ... ... : ... .. 6 ... ... ... : ... .. . ... : ... .. C ... : ... .. . ... ... : ... .. 8 ... ... : ... .. 8 ... ... : ... .. . ... ...
ROW 0C : ... .. . ... ... ... : ... .. 3 ... ... ... : ... .. . ... : ... .. 6 ... : ... .. . ... ... : ... .. . ... ... : ... .. . ... ... : ... .. . ... ...
ROW 0D : ... .. . ... ... ... : ... .. 1 ... ... ... : ... .. . ... : ... .. 3 ... : ... .. . ... ... : ... .. . ... ... : ... .. . ... ... : ... .. . ... ...
ROW 0E : ... .. . ... ... ... : ... .. . ... ... ... : ... .. . ... : ... .. 2 ... : ... .. . ... ... : ... .. 7 ... ... : ... .. 7 ... ... : ... .. . ... ...
ROW 0F : ... .. . ... ... ... : ... .. 0 ... ... ... : --- .. . ... : ... .. 0 ... : ... .. . ... ... : ... .. . ... ... : ... .. . ... ... : ... .. . ... ...
ROW 10 : G-3 00 F P81 ... ... : G-5 00 8 P80 ... ... : F#4 00 . ... : B-# 00 D ... : ... .. . ... ... : ... .. . ... ... : ... .. . ... ... : G-4 01 F P7F ...
ROW 11 : ... .. E ... ... ... : ... .. 6 ... ... ... : G#3 00 . ... : ... .. B ... : ... .. . ... ... : ... .. 6 ... ... : ... .. 6 ... ... : ... .. D P7E ...
ROW 12 : ... .. D ... ... ... : ... .. 3 ... ... ... : C#3 00 . ... : ... .. . ... : ... .. . ... ... : ... .. . ... ... : ... .. . ... ... : ... .. 8 P80 ...
ROW 13 : ... .. A ... ... ... : ... .. 1 ... ... ... : C-3 00 . ... : ... .. A ... : ... .. . ... ... : --- .. . ... ... : --- .. . ... ... : ... .. . ... ...
ROW 14 : ... .. . ... ... ... : ... .. . ... ... ... : G-2 00 . ... : ... .. 8 ... : ... .. . ... ... : ... .. . ... ... : ... .. . ... ... : ... .. . P82 ...
ROW 15 : ... .. . ... ... ... : ... .. 0 ... ... ... : ... .. . ... : ... .. 7 ... : ... .. . ... ... : ... .. . ... ... : ... .. . ... ... : ... .. . P81 ...
ROW 16 : F#3 00 F ... ... ... : A#5 00 8 P80 ... ... : ... .. . ... : ... .. 6 ... : ... .. . ... ... : ... .. . ... ... : ... .. . ... ... : F#4 01 F P80 ...
ROW 17 : ... .. E ... ... ... : ... .. 6 ... ... ... : ... .. . ... : ... .. . ... : ... .. . ... ... : ... .. . ... ... : ... .. . ... ... : ... .. D P7F ...
ROW 18 : ... .. D ... ... ... : ... .. 3 ... ... ... : ... .. . ... : ... .. 5 ... : ... .. . ... ... : ... .. . ... ... : ... .. . ... ... : ... .. 8 P7E ...
ROW 19 : ... .. 0 ... ... ... : ... .. 1 ... ... ... : ... .. . ... : ... .. . ... : ... .. . ... ... : ... .. . ... ... : ... .. . ... ... : --- .. . ... ...
ROW 1A : ... .. . ... ... ... : ... .. . ... ... ... : ... .. . ... : ... .. 4 ... : ... .. . ... ... : ... .. . ... ... : ... .. . ... ... : ... .. . ... ...
ROW 1B : ... .. . ... ... ... : ... .. 0 ... ... ... : --- .. . ... : ... .. . ... : ... .. . ... ... : ... .. . ... ... : ... .. . ... ... : ... .. . ... ...
ROW 1C : G-3 00 F P81 ... ... : G-5 00 8 P80 ... ... : A#3 00 . ... : ... .. D ... : ... .. . ... ... : G-4 01 9 ... ... : A#3 01 9 ... ... : G-4 01 F P82 ...
ROW 1D : ... .. E ... ... ... : ... .. 6 ... ... ... : ... .. . ... : ... .. B ... : ... .. . ... ... : ... .. 8 ... ... : ... .. 8 ... ... : ... .. D P80 ...
ROW 1E : ... .. D ... ... ... : ... .. 3 ... ... ... : ... .. . ... : ... .. . ... : ... .. . ... ... : ... .. . ... ... : ... .. . ... ... : ... .. 8 P7F ...
ROW 1F : ... .. 0 ... ... ... : ... .. 1 ... ... ... : ... .. . ... : ... .. A ... : ... .. . ... ... : --- .. . ... ... : --- .. . ... ... : --- .. . ... ...
ROW 20 : ... .. . ... ... ... : ... .. . ... ... ... : ... .. . ... : ... .. 8 ... : ... .. . ... ... : ... .. . ... ... : ... .. . ... ... : ... .. . ... ...
ROW 21 : ... .. . ... ... ... : ... .. 0 ... ... ... : --- .. . ... : ... .. 7 ... : ... .. . ... ... : ... .. . ... ... : ... .. . ... ... : ... .. . ... ...
ROW 22 : A-3 00 F P81 ... ... : A#5 00 8 P80 ... ... : A#3 00 . ... : ... .. 6 ... : ... .. . ... ... : G-4 01 9 ... ... : A#3 01 9 ... ... : A-4 01 F P82 ...
ROW 23 : ... .. E ... ... ... : ... .. 6 ... ... ... : ... .. . ... : ... .. . ... : ... .. . ... ... : ... .. 8 ... ... : ... .. 8 ... ... : ... .. D ... ...
ROW 24 : ... .. D ... ... ... : ... .. 3 ... ... ... : ... .. . ... : ... .. 5 ... : ... .. . ... ... : ... .. . ... ... : ... .. . ... ... : ... .. 8 P80 ...
ROW 25 : ... .. 0 ... ... ... : ... .. 1 ... ... ... : ... .. . ... : ... .. . ... : ... .. . ... ... : ... .. . ... ... : ... .. . ... ... : --- .. . ... ...
ROW 26 : ... .. . ... ... ... : ... .. . ... ... ... : ... .. . ... : ... .. 4 ... : ... .. . ... ... : ... .. 7 ... ... : ... .. 7 ... ... : ... .. . ... ...
ROW 27 : ... .. . ... ... ... : ... .. 0 ... ... ... : --- .. . ... : ... .. . ... : ... .. . ... ... : ... .. . ... ... : ... .. . ... ... : ... .. . ... ...
ROW 28 : A#3 00 F P81 ... ... : G-5 00 8 P80 ... ... : F#4 00 . ... : ... .. D ... : ... .. . ... ... : ... .. . ... ... : ... .. . ... ... : A#4 01 F ... ...
ROW 29 : ... .. E ... ... ... : ... .. 6 ... ... ... : G#3 00 . ... : ... .. B ... : ... .. . ... ... : ... .. 6 ... ... : ... .. 6 ... ... : ... .. D P82 ...
ROW 2A : ... .. D ... ... ... : ... .. 3 ... ... ... : C#3 00 . ... : ... .. . ... : ... .. . ... ... : ... .. . ... ... : ... .. . ... ... : ... .. 8 ... ...
ROW 2B : ... .. A ... ... ... : ... .. 1 ... ... ... : C-3 00 . ... : ... .. A ... : ... .. . ... ... : --- .. . ... ... : --- .. . ... ... : ... .. . P80 ...
ROW 2C : ... .. . ... ... ... : ... .. . ... ... ... : G-2 00 . ... : ... .. 8 ... : ... .. . ... ... : ... .. . ... ... : ... .. . ... ... : ... .. . P7F ...
ROW 2D : ... .. . ... ... ... : ... .. 0 ... ... ... : ... .. . ... : ... .. 7 ... : ... .. . ... ... : ... .. . ... ... : ... .. . ... ... : ... .. . P7E ...
ROW 2E : ... .. . ... ... ... : A#5 00 8 P80 ... ... : ... .. . ... : ... .. 6 ... : ... .. . ... ... : ... .. . ... ... : ... .. . ... ... : ... .. . P7F ...
ROW 2F : ... .. . ... ... ... : ... .. 6 ... ... ... : ... .. . ... : ... .. . ... : ... .. . ... ... : ... .. . ... ... : ... .. . ... ... : ... .. . P80 ...
ROW 30 : ... .. . ... ... ... : ... .. 3 ... ... ... : ... .. . ... : ... .. 5 ... : ... .. . ... ... : ... .. . ... ... : ... .. . ... ... : ... .. . P81 ...
ROW 31 : ... .. 0 ... ... ... : ... .. 1 ... ... ... : ... .. . ... : ... .. . ... : ... .. . ... ... : ... .. . ... ... : ... .. . ... ... : --- .. . ... ...
ROW 32 : ... .. . ... ... ... : ... .. . ... ... ... : ... .. . ... : ... .. 4 ... : ... .. . ... ... : ... .. . ... ... : ... .. . ... ... : ... .. . ... ...
ROW 33 : ... .. . ... ... ... : ... .. 0 ... ... ... : --- .. . ... : ... .. . ... : ... .. . ... ... : ... .. . ... ... : ... .. . ... ... : ... .. . ... ...
ROW 34 : G-3 00 F P81 ... ... : G-5 00 8 P80 ... ... : A#3 00 . ... : D-# 00 F ... : ... .. . ... ... : G-4 01 9 ... ... : A#3 01 9 ... ... : G-4 01 F P7E ...
ROW 35 : ... .. E ... ... ... : ... .. 6 ... ... ... : ... .. . ... : ... .. C ... : ... .. . ... ... : ... .. 8 ... ... : ... .. 8 ... ... : ... .. D P7F ...
ROW 36 : ... .. D ... ... ... : ... .. 3 ... ... ... : ... .. . ... : ... .. 6 ... : ... .. . ... ... : ... .. . ... ... : ... .. . ... ... : ... .. 8 P80 ...
ROW 37 : ... .. A ... ... ... : ... .. 1 ... ... ... : ... .. . ... : ... .. 3 ... : ... .. . ... ... : --- .. . ... ... : --- .. . ... ... : ... .. . P81 ...
ROW 38 : ... .. . ... ... ... : ... .. . ... ... ... : ... .. . ... : ... .. 2 ... : ... .. . ... ... : ... .. . ... ... : ... .. . ... ... : ... .. . P82 ...
ROW 39 : ... .. . ... ... ... : ... .. 0 ... ... ... : --- .. . ... : ... .. 0 ... : ... .. . ... ... : ... .. . ... ... : ... .. . ... ... : ... .. . P81 ...
ROW 3A : ... .. . ... ... ... : A#5 00 8 P80 ... ... : A#3 00 . ... : ... .. F ... : ... .. . ... ... : G-4 01 9 ... ... : A#3 01 9 ... ... : ... .. . P80 ...
ROW 3B : ... .. . ... ... ... : ... .. 6 ... ... ... : ... .. . ... : ... .. C ... : ... .. . ... ... : ... .. 8 ... ... : ... .. 8 ... ... : ... .. . P7E ...
ROW 3C : ... .. . ... ... ... : ... .. 3 ... ... ... : ... .. . ... : ... .. 6 ... : ... .. . ... ... : ... .. . ... ... : ... .. . ... ... : ... .. . ... ...
ROW 3D : ... .. 0 ... ... ... : ... .. 1 ... ... ... : ... .. . ... : ... .. 3 ... : ... .. . ... ... : ... .. . ... ... : ... .. . ... ... : --- .. . ... ...
ROW 3E : ... .. . ... ... ... : ... .. . ... ... ... : ... .. . ... : ... .. 2 ... : ... .. . ... ... : ... .. 7 ... ... : ... .. 7 ... ... : ... .. . ... ...
ROW 3F : ... .. . ... ... ... : ... .. 0 ... ... ... : --- .. . ... : ... .. 0 ... : ... .. . ... ... : ... .. . ... ... : ... .. . ... ... : ... .. . ... ...
ROW 40 : D-3 00 F P81 ... ... : F#5 00 8 P80 ... ... : C#4 00 . ... : B-# 00 D ... : ... .. . ... ... : ... .. . ... ... : ... .. . ... ... : D-4 01 F P81 ...
ROW 41 : ... .. E ... ... ... : ... .. 6 ... ... ... : D#3 00 . ... : ... .. B ... : ... .. . ... ... : ... .. 6 ... ... : ... .. 6 ... ... : ... .. D P80 ...
ROW 42 : ... .. D ... ... ... : ... .. 3 ... ... ... : G#2 00 . ... : ... .. . ... : ... .. . ... ... : ... .. . ... ... : ... .. . ... ... : ... .. 8 P7E ...
ROW 43 : ... .. A ... ... ... : ... .. 1 ... ... ... : G-2 00 . ... : ... .. A ... : ... .. . ... ... : --- .. . ... ... : --- .. . ... ... : ... .. . ... ...
ROW 44 : ... .. . ... ... ... : ... .. . ... ... ... : D-2 00 . ... : ... .. 8 ... : ... .. . ... ... : ... .. . ... ... : ... .. . ... ... : ... .. . P80 ...
ROW 45 : ... .. . ... ... ... : ... .. 0 ... ... ... : ... .. . ... : ... .. 7 ... : ... .. . ... ... : ... .. . ... ... : ... .. . ... ... : ... .. . P81 ...
ROW 46 : ... .. . ... ... ... : A-5 00 8 P80 ... ... : ... .. . ... : ... .. 6 ... : ... .. . ... ... : ... .. . ... ... : ... .. . ... ... : ... .. . P82 ...
ROW 47 : ... .. . ... ... ... : ... .. 6 ... ... ... : ... .. . ... : ... .. . ... : ... .. . ... ... : ... .. . ... ... : ... .. . ... ... : ... .. . P81 ...
ROW 48 : ... .. . ... ... ... : ... .. 3 ... ... ... : ... .. . ... : ... .. 5 ... : ... .. . ... ... : ... .. . ... ... : ... .. . ... ... : ... .. . P80 ...
ROW 49 : ... .. . ... ... ... : ... .. 1 ... ... ... : ... .. . ... : ... .. . ... : ... .. . ... ... : ... .. . ... ... : ... .. . ... ... : ... .. . P7E ...
ROW 4A : ... .. . ... ... ... : ... .. . ... ... ... : ... .. . ... : ... .. 4 ... : ... .. . ... ... : ... .. . ... ... : ... .. . ... ... : ... .. . ... ...
ROW 4B : ... .. . ... ... ... : ... .. 0 ... ... ... : --- .. . ... : ... .. . ... : ... .. . ... ... : ... .. . ... ... : ... .. . ... ... : ... .. . P80 ...
ROW 4C : ... .. . ... ... ... : F#5 00 8 P80 ... ... : C-4 00 . ... : D-# 00 F ... : ... .. . ... ... : F#4 01 9 ... ... : C-4 01 9 ... ... : ... .. . P81 ...
ROW 4D : ... .. . ... ... ... : ... .. 6 ... ... ... : ... .. . ... : ... .. C ... : ... .. . ... ... : ... .. 8 ... ... : ... .. 8 ... ... : ... .. . P82 ...
ROW 4E : ... .. . ... ... ... : ... .. 3 ... ... ... : ... .. . ... : ... .. 6 ... : ... .. . ... ... : ... .. . ... ... : ... .. . ... ... : ... .. . P81 ...
ROW 4F : ... .. 0 ... ... ... : ... .. 1 ... ... ... : ... .. . ... : ... .. 3 ... : ... .. . ... ... : --- .. . ... ... : --- .. . ... ... : --- .. . ... ...
ROW 50 : ... .. . ... ... ... : ... .. . ... ... ... : ... .. . ... : ... .. 2 ... : ... .. . ... ... : ... .. . ... ... : ... .. . ... ... : ... .. . ... ...
ROW 51 : ... .. . ... ... ... : ... .. 0 ... ... ... : --- .. . ... : ... .. 0 ... : ... .. . ... ... : ... .. . ... ... : ... .. . ... ... : ... .. . ... ...
ROW 52 : E-3 00 F P81 ... ... : A-5 00 8 P80 ... ... : C-4 00 . ... : ... .. F ... : ... .. . ... ... : F#4 01 9 ... ... : C-4 01 9 ... ... : E-4 01 F P80 ...
ROW 53 : ... .. E ... ... ... : ... .. 6 ... ... ... : ... .. . ... : ... .. C ... : ... .. . ... ... : ... .. 8 ... ... : ... .. 8 ... ... : ... .. D ... ...
ROW 54 : ... .. D ... ... ... : ... .. 3 ... ... ... : ... .. . ... : ... .. 6 ... : ... .. . ... ... : ... .. . ... ... : ... .. . ... ... : ... .. 8 P82 ...
ROW 55 : ... .. 0 ... ... ... : ... .. 1 ... ... ... : ... .. . ... : ... .. 3 ... : ... .. . ... ... : ... .. . ... ... : ... .. . ... ... : --- .. . ... ...
ROW 56 : ... .. . ... ... ... : ... .. . ... ... ... : ... .. . ... : ... .. 2 ... : ... .. . ... ... : ... .. 7 ... ... : ... .. 7 ... ... : ... .. . ... ...
ROW 57 : ... .. . ... ... ... : ... .. 0 ... ... ... : --- .. . ... : ... .. 0 ... : ... .. . ... ... : ... .. . ... ... : ... .. . ... ... : ... .. . ... ...
ROW 58 : F#3 00 F P81 ... ... : F#5 00 8 P80 ... ... : C#4 00 . ... : B-# 00 D ... : ... .. . ... ... : ... .. . ... ... : ... .. . ... ... : F#4 01 F P7E ...
ROW 59 : ... .. E ... ... ... : ... .. 6 ... ... ... : D#3 00 . ... : ... .. B ... : ... .. . ... ... : ... .. 6 ... ... : ... .. 6 ... ... : ... .. D P7F ...
ROW 5A : ... .. D ... ... ... : ... .. 3 ... ... ... : G#2 00 . ... : ... .. . ... : ... .. . ... ... : ... .. . ... ... : ... .. . ... ... : ... .. 8 P80 ...
ROW 5B : ... .. A ... ... ... : ... .. 1 ... ... ... : G-2 00 . ... : ... .. A ... : ... .. . ... ... : --- .. . ... ... : --- .. . ... ... : ... .. . P82 ...
ROW 5C : ... .. . ... ... ... : ... .. . ... ... ... : D-2 00 . ... : ... .. 8 ... : ... .. . ... ... : ... .. . ... ... : ... .. . ... ... : ... .. . ... ...
ROW 5D : ... .. . ... ... ... : ... .. 0 ... ... ... : ... .. . ... : ... .. 7 ... : ... .. . ... ... : ... .. . ... ... : ... .. . ... ... : ... .. . P80 ...
ROW 5E : ... .. . ... ... ... : A-5 00 8 P80 ... ... : ... .. . ... : ... .. 6 ... : ... .. . ... ... : ... .. . ... ... : ... .. . ... ... : ... .. . P7F ...
ROW 5F : ... .. . ... ... ... : ... .. 6 ... ... ... : ... .. . ... : ... .. . ... : ... .. . ... ... : ... .. . ... ... : ... .. . ... ... : ... .. . P7E ...
ROW 60 : ... .. . ... ... ... : ... .. 3 ... ... ... : ... .. . ... : ... .. 5 ... : ... .. . ... ... : ... .. . ... ... : ... .. . ... ... : ... .. . P7F ...
ROW 61 : ... .. . ... ... ... : ... .. 1 ... ... ... : ... .. . ... : ... .. . ... : ... .. . ... ... : ... .. . ... ... : ... .. . ... ... : ... .. . P80 ...
ROW 62 : ... .. . ... ... ... : ... .. . ... ... ... : ... .. . ... : ... .. 4 ... : ... .. . ... ... : ... .. . ... ... : ... .. . ... ... : ... .. . P82 ...
ROW 63 : ... .. . ... ... ... : ... .. 0 ... ... ... : --- .. . ... : ... .. . ... : ... .. . ... ... : ... .. . ... ... : ... .. . ... ... : ... .. . ... ...
ROW 64 : A-3 00 F ... ... ... : F#5 00 8 P80 ... ... : C-4 00 . ... : D-# 00 F ... : ... .. . ... ... : F#4 01 9 ... ... : C-4 01 9 ... ... : A-4 01 F P80 ...
ROW 65 : ... .. E ... ... ... : ... .. 6 ... ... ... : ... .. . ... : ... .. C ... : ... .. . ... ... : ... .. 8 ... ... : ... .. 8 ... ... : ... .. D P7F ...
ROW 66 : ... .. D ... ... ... : ... .. 3 ... ... ... : ... .. . ... : ... .. 6 ... : ... .. . ... ... : ... .. . ... ... : ... .. . ... ... : ... .. 8 P7E ...
ROW 67 : ... .. A ... ... ... : ... .. 1 ... ... ... : ... .. . ... : ... .. 3 ... : ... .. . ... ... : --- .. . ... ... : --- .. . ... ... : ... .. . P7F ...
ROW 68 : ... .. . ... ... ... : ... .. . ... ... ... : ... .. . ... : ... .. 2 ... : ... .. . ... ... : ... .. . ... ... : ... .. . ... ... : ... .. . P80 ...
ROW 69 : ... .. . ... ... ... : ... .. 0 ... ... ... : --- .. . ... : ... .. 0 ... : ... .. . ... ... : ... .. . ... ... : ... .. . ... ... : ... .. . P82 ...
ROW 6A : ... .. . ... ... ... : A-5 00 8 P80 ... ... : C-4 00 . ... : ... .. F ... : ... .. . ... ... : F#4 01 9 ... ... : C-4 01 9 ... ... : ... .. . ... ...
ROW 6B : ... .. . ... ... ... : ... .. 6 ... ... ... : ... .. . ... : ... .. C ... : ... .. . ... ... : ... .. 8 ... ... : ... .. 8 ... ... : ... .. . P80 ...
ROW 6C : ... .. . ... ... ... : ... .. 3 ... ... ... : ... .. . ... : ... .. 6 ... : ... .. . ... ... : ... .. . ... ... : ... .. . ... ... : ... .. . P7F ...
ROW 6D : ... .. 0 ... ... ... : ... .. 1 ... ... ... : ... .. . ... : ... .. 3 ... : ... .. . ... ... : --- .. . ... ... : ... .. . ... ... : --- .. . ... ...
ROW 6E : ... .. . ... ... ... : ... .. . ... ... ... : ... .. . ... : ... .. 2 ... : ... .. . ... ... : ... .. . ... ... : ... .. 7 ... ... : ... .. . ... ...
ROW 6F : ... .. . ... ... ... : ... .. 0 ... ... ... : --- .. . ... : ... .. 0 ... : ... .. . ... ... : ... .. . ... ... : ... .. . ... ... : ... .. . ... ...
ROW 70 : A#3 00 F P81 ... ... : G-5 00 8 P80 ... ... : F#5 00 . ... : B-# 00 D ... : ... .. . ... ... : F#4 01 9 ... ... : A#3 01 9 ... ... : A#4 01 F P81 ...
ROW 71 : ... .. E ... ... ... : ... .. 6 ... ... ... : G#4 00 . ... : ... .. B ... : ... .. . ... ... : ... .. 8 ... ... : ... .. 8 ... ... : ... .. D P82 ...
ROW 72 : ... .. D ... ... ... : ... .. 3 ... ... ... : C#4 00 . ... : ... .. . ... : ... .. . ... ... : ... .. . ... ... : ... .. . ... ... : ... .. 8 P80 ...
ROW 73 : ... .. A ... ... ... : ... .. 1 ... ... ... : C-4 00 . ... : ... .. A ... : ... .. . ... ... : ... .. . ... ... : ... .. . ... ... : ... .. . ... ...
ROW 74 : ... .. . ... ... ... : ... .. . ... ... ... : G-3 00 . ... : ... .. 8 ... : ... .. . ... ... : ... .. 7 ... ... : ... .. 7 ... ... : ... .. . P7E ...
ROW 75 : ... .. . ... ... ... : ... .. 0 ... ... ... : ... .. . ... : ... .. 7 ... : ... .. . ... ... : ... .. . ... ... : ... .. . ... ... : ... .. . P7F ...
ROW 76 : ... .. . ... ... ... : A#5 00 8 P80 ... ... : ... .. . ... : ... .. 6 ... : ... .. . ... ... : ... .. . ... ... : ... .. . ... ... : ... .. . P80 ...
ROW 77 : ... .. . ... ... ... : ... .. 6 ... ... ... : ... .. . ... : ... .. . ... : ... .. . ... ... : ... .. 6 ... ... : ... .. 6 ... ... : ... .. . P81 ...
ROW 78 : ... .. . ... ... ... : ... .. 3 ... ... ... : ... .. . ... : ... .. 5 ... : ... .. . ... ... : ... .. . ... ... : ... .. . ... ... : ... .. . P82 ...
ROW 79 : ... .. . ... ... ... : ... .. 1 ... ... ... : ... .. . ... : ... .. . ... : ... .. . ... ... : ... .. . ... ... : ... .. . ... ... : ... .. . P81 ...
ROW 7A : ... .. . ... ... ... : ... .. . ... ... ... : ... .. . ... : ... .. 4 ... : ... .. . ... ... : ... .. . ... ... : ... .. . ... ... : ... .. . P80 ...
ROW 7B : ... .. . ... ... ... : ... .. 0 ... ... ... : ... .. . ... : ... .. . ... : ... .. . ... ... : ... .. . ... ... : ... .. . ... ... : ... .. . P7E ...
ROW 7C : A-3 00 F ... ... ... : F#5 00 8 P80 ... ... : F-5 00 . ... : ... .. D ... : ... .. . ... ... : F-4 01 9 ... ... : A-3 01 9 ... ... : A-4 01 F ... ...
ROW 7D : ... .. E ... ... ... : ... .. 6 ... ... ... : G-4 00 . ... : ... .. B ... : ... .. . ... ... : ... .. 8 ... ... : ... .. 8 ... ... : ... .. D P80 ...
ROW 7E : ... .. D ... ... ... : ... .. 3 ... ... ... : C-4 00 . ... : ... .. . ... : ... .. . ... ... : ... .. . ... ... : ... .. . ... ... : ... .. 8 P81 ...
ROW 7F : ... .. A ... ... ... : ... .. 1 ... ... ... : B-3 00 . ... : ... .. A ... : ... .. . ... ... : ... .. . ... ... : ... .. . ... ... : ... .. . P82 ...
ROW 80 : ... .. . ... ... ... : ... .. . ... ... ... : F#3 00 . ... : ... .. 8 ... : ... .. . ... ... : ... .. 7 ... ... : ... .. 7 ... ... : ... .. . P81 ...
ROW 81 : ... .. . ... ... ... : ... .. 0 ... ... ... : ... .. . ... : ... .. 7 ... : ... .. . ... ... : ... .. . ... ... : ... .. . ... ... : ... .. . P80 ...
ROW 82 : ... .. . ... ... ... : A-5 00 8 P80 ... ... : ... .. . ... : ... .. 6 ... : ... .. . ... ... : ... .. . ... ... : ... .. . ... ... : ... .. . P7E ...
ROW 83 : ... .. . ... ... ... : ... .. 6 ... ... ... : ... .. . ... : ... .. . ... : ... .. . ... ... : ... .. 6 ... ... : ... .. 6 ... ... : ... .. . ... ...
ROW 84 : ... .. . ... ... ... : ... .. 3 ... ... ... : ... .. . ... : ... .. 5 ... : ... .. . ... ... : ... .. . ... ... : ... .. . ... ... : ... .. . P80 ...
ROW 85 : ... .. . ... ... ... : ... .. 1 ... ... ... : ... .. . ... : ... .. . ... : ... .. . ... ... : ... .. . ... ... : ... .. . ... ... : ... .. . P81 ...
ROW 86 : ... .. . ... ... ... : ... .. . ... ... ... : ... .. . ... : ... .. 4 ... : ... .. . ... ... : ... .. . ... ... : ... .. . ... ... : ... .. . P82 ...
ROW 87 : ... .. . ... ... ... : ... .. 0 ... ... ... : ... .. . ... : ... .. . ... : ... .. . ... ... : ... .. . ... ... : ... .. . ... ... : ... .. . P81 ...
ROW 88 : G#3 00 F ... ... ... : F-5 00 8 P80 ... ... : E-5 00 . ... : ... .. D ... : ... .. . ... ... : E-4 01 9 ... ... : G#3 01 9 ... ... : G#4 01 F P80 ...
ROW 89 : ... .. E ... ... ... : ... .. 6 ... ... ... : F#4 00 . ... : ... .. B ... : ... .. . ... ... : ... .. 8 ... ... : ... .. 8 ... ... : ... .. D P7E ...
ROW 8A : ... .. D ... ... ... : ... .. 3 ... ... ... : B-3 00 . ... : ... .. . ... : ... .. . ... ... : ... .. . ... ... : ... .. . ... ... : ... .. 8 ... ...
ROW 8B : ... .. A ... ... ... : ... .. 1 ... ... ... : A#3 00 . ... : ... .. A ... : ... .. . ... ... : ... .. . ... ... : ... .. . ... ... : ... .. . P80 ...
ROW 8C : ... .. . ... ... ... : ... .. . ... ... ... : F-3 00 . ... : ... .. 8 ... : ... .. . ... ... : ... .. 7 ... ... : ... .. 7 ... ... : ... .. . P81 ...
ROW 8D : ... .. . ... ... ... : ... .. 0 ... ... ... : ... .. . ... : ... .. 7 ... : ... .. . ... ... : ... .. . ... ... : ... .. . ... ... : ... .. . P82 ...
ROW 8E : ... .. . ... ... ... : G#5 00 8 P80 ... ... : ... .. . ... : ... .. 6 ... : ... .. . ... ... : ... .. . ... ... : ... .. . ... ... : ... .. . P81 ...
ROW 8F : ... .. . ... ... ... : ... .. 6 ... ... ... : ... .. . ... : ... .. . ... : ... .. . ... ... : ... .. 6 ... ... : ... .. 6 ... ... : ... .. . P80 ...
ROW 90 : ... .. . ... ... ... : ... .. 3 ... ... ... : ... .. . ... : ... .. 5 ... : ... .. . ... ... : ... .. . ... ... : ... .. . ... ... : ... .. . P7F ...
ROW 91 : ... .. . ... ... ... : ... .. 1 ... ... ... : ... .. . ... : ... .. . ... : ... .. . ... ... : ... .. . ... ... : ... .. . ... ... : ... .. . P7E ...
ROW 92 : ... .. . ... ... ... : ... .. . ... ... ... : ... .. . ... : ... .. 4 ... : ... .. . ... ... : ... .. . ... ... : ... .. . ... ... : ... .. . P80 ...
ROW 93 : ... .. . ... ... ... : ... .. 0 ... ... ... : ... .. . ... : ... .. . ... : ... .. . ... ... : ... .. . ... ... : ... .. . ... ... : ... .. . ... ...
ROW 94 : G-3 00 F ... ... ... : E-5 00 8 P80 ... ... : D#5 00 . ... : D-# 00 F ... : ... .. . ... ... : D#4 01 9 ... ... : G-3 01 9 ... ... : G-4 01 F P82 ...
ROW 95 : ... .. E ... ... ... : ... .. 6 ... ... ... : F-4 00 . ... : ... .. C ... : ... .. . ... ... : ... .. 8 ... ... : ... .. 8 ... ... : ... .. D P81 ...
ROW 96 : ... .. D ... ... ... : ... .. 3 ... ... ... : A#3 00 . ... : ... .. 6 ... : ... .. . ... ... : ... .. . ... ... : ... .. . ... ... : ... .. 8 P80 ...
ROW 97 : ... .. A ... ... ... : ... .. 1 ... ... ... : A-3 00 . ... : ... .. 3 ... : ... .. . ... ... : ... .. . ... ... : ... .. . ... ... : ... .. . P7F ...
ROW 98 : ... .. . ... ... ... : ... .. . ... ... ... : E-3 00 . ... : ... .. 2 ... : ... .. . ... ... : ... .. 7 ... ... : ... .. 7 ... ... : ... .. . P7E ...
ROW 99 : ... .. . ... ... ... : ... .. 0 ... ... ... : ... .. . ... : ... .. 0 ... : ... .. . ... ... : ... .. . ... ... : ... .. . ... ... : ... .. . P7F ...
ROW 9A : ... .. . ... ... ... : G-5 00 8 P80 ... ... : ... .. . ... : ... .. F ... : ... .. . ... ... : ... .. . ... ... : ... .. . ... ... : ... .. . P80 ...
ROW 9B : ... .. . ... ... ... : ... .. 6 ... ... ... : ... .. . ... : ... .. C ... : ... .. . ... ... : ... .. 6 ... ... : ... .. 6 ... ... : ... .. . P82 ...
ROW 9C : ... .. . ... ... ... : ... .. 3 ... ... ... : ... .. . ... : ... .. 6 ... : ... .. . ... ... : ... .. . ... ... : ... .. . ... ... : ... .. . ... ...
ROW 9D : ... .. . ... ... ... : ... .. 1 ... ... ... : ... .. . ... : ... .. 3 ... : ... .. . ... ... : ... .. . ... ... : ... .. . ... ... : ... .. . P80 ...
ROW 9E : ... .. . ... ... ... : ... .. . ... ... ... : ... .. . ... : ... .. 2 ... : ... .. . ... ... : ... .. . ... ... : ... .. . ... ... : ... .. . P7F ...
ROW 9F : ... .. . ... ... ... : ... .. 0 ... ... ... : ... .. . ... : ... .. 0 ... : ... .. . ... ... : ... .. . ... ... : ... .. . ... ... : ... .. . P7E ...
ROW A0 : F#3 00 F ... ... ... : D-5 00 8 P80 ... ... : D-5 00 . ... : B-# 00 D ... : ... .. . ... ... : D-4 01 9 ... ... : F#3 01 9 ... ... : F#4 01 F P7F ...
ROW A1 : ... .. E ... ... ... : ... .. 6 ... ... ... : E-4 00 . ... : ... .. B ... : ... .. . ... ... : ... .. 8 ... ... : ... .. 8 ... ... : ... .. D P80 ...
ROW A2 : ... .. D ... ... ... : ... .. 3 ... ... ... : A-3 00 . ... : ... .. . ... : ... .. . ... ... : ... .. . ... ... : ... .. . ... ... : ... .. 8 P82 ...
ROW A3 : ... .. A ... ... ... : ... .. 1 ... ... ... : G#3 00 . ... : ... .. A ... : ... .. . ... ... : ... .. 7 ... ... : ... .. 7 ... ... : ... .. . ... ...
ROW A4 : ... .. . ... ... ... : ... .. . ... ... ... : D#3 00 . ... : ... .. 8 ... : ... .. . ... ... : ... .. 6 ... ... : ... .. 6 ... ... : ... .. . P80 ...
ROW A5 : ... .. . ... ... ... : ... .. 0 ... ... ... : ... .. . ... : ... .. 7 ... : ... .. . ... ... : ... .. . ... ... : ... .. . ... ... : ... .. . P7F ...
ROW A6 : ... .. . ... ... ... : C-5 00 8 P80 ... ... : ... .. . ... : ... .. 6 ... : ... .. . ... ... : A#3 01 8 ... ... : G#3 01 8 ... ... : ... .. . P7E ...
ROW A7 : ... .. . ... ... ... : ... .. 6 ... ... ... : ... .. . ... : ... .. . ... : ... .. . ... ... : ... .. 7 ... ... : ... .. 7 ... ... : ... .. . P7F ...
ROW A8 : ... .. . ... ... ... : ... .. 3 ... ... ... : ... .. . ... : ... .. 5 ... : ... .. . ... ... : ... .. . ... ... : ... .. . ... ... : ... .. . P80 ...
ROW A9 : ... .. . ... ... ... : ... .. 1 ... ... ... : ... .. . ... : ... .. . ... : ... .. . ... ... : --- .. . ... ... : --- .. . P82 ... : ... .. . P82 ...
ROW AA : ... .. . ... ... ... : ... .. . ... ... ... : ... .. . ... : ... .. 4 ... : ... .. . ... ... : ... .. . ... ... : ... .. . ... ... : ... .. . ... ...
ROW AB : ... .. . ... ... ... : ... .. 0 ... ... ... : ... .. . ... : ... .. . ... : ... .. . ... ... : ... .. . ... ... : ... .. . ... ... : ... .. . P80 ...
ROW AC : ... .. . ... ... ... : G#4 00 8 P80 ... ... : ... .. . ... : D-# 00 F ... : ... .. . ... ... : C-4 01 8 ... ... : F#3 01 8 P80 ... : ... .. . P7F ...
ROW AD : ... .. . ... ... ... : ... .. 6 ... ... ... : ... .. . ... : ... .. C ... : ... .. . ... ... : ... .. 7 ... ... : ... .. 7 ... ... : ... .. . P7E ...
ROW AE : ... .. . ... ... ... : ... .. 3 ... ... ... : ... .. . ... : ... .. 6 ... : ... .. . ... ... : ... .. . ... ... : ... .. . ... ... : ... .. . P7F ...
ROW AF : ... .. 0 ... ... ... : ... .. 1 ... ... ... : ... .. . ... : ... .. 3 ... : ... .. . ... ... : --- .. . ... ... : --- .. . P7F ... : --- .. . ... ...
ROW B0 : ... .. . ... ... ... : ... .. . ... ... ... : ... .. . ... : ... .. 2 ... : ... .. . ... ... : ... .. . ... ... : ... .. . ... ... : ... .. . ... ...
ROW B1 : ... .. . ... ... ... : ... .. 0 ... ... ... : ... .. . ... : ... .. 0 ... : ... .. . ... ... : ... .. . ... ... : ... .. . ... ... : ... .. . ... ...
ROW B2 : F-3 00 F P81 ... ... : F#4 00 8 P80 ... ... : ... .. . ... : ... .. F ... : ... .. . ... ... : D-4 01 7 ... ... : G#3 01 7 P80 ... : F-4 01 F P80 ...
ROW B3 : ... .. E ... ... ... : ... .. 6 ... ... ... : ... .. . ... : ... .. C ... : ... .. . ... ... : ... .. 6 ... ... : ... .. 6 ... ... : ... .. D ... ...
ROW B4 : ... .. D ... ... ... : ... .. 3 ... ... ... : ... .. . ... : ... .. 6 ... : ... .. . ... ... : ... .. . ... ... : ... .. . ... ... : ... .. 8 P7E ...
ROW B5 : ... .. 0 ... ... ... : ... .. 1 ... ... ... : ... .. . ... : ... .. 3 ... : ... .. . ... ... : --- .. . ... ... : --- .. . P82 ... : --- .. . ... ...
ROW B6 : ... .. . ... ... ... : ... .. . ... ... ... : ... .. . ... : ... .. 2 ... : ... .. . ... ... : ... .. . ... ... : ... .. . ... ... : ... .. . ... ...
ROW B7 : ... .. . ... ... ... : ... .. 0 ... ... ... : ... .. . ... : ... .. 0 ... : ... .. . ... ... : ... .. . ... ... : ... .. . ... ... : ... .. . ... ...
ROW B8 : F#3 00 F P81 ... ... : D-4 00 8 P80 ... ... : C#5 00 . ... : B-# 00 D ... : ... .. . ... ... : E-4 01 7 ... ... : A#3 01 7 P80 ... : F#4 01 F P82 ...
ROW B9 : ... .. E ... ... ... : ... .. 6 ... ... ... : D#4 00 . ... : ... .. B ... : ... .. . ... ... : ... .. 6 ... ... : ... .. 6 ... ... : ... .. D P81 ...
ROW BA : ... .. D ... ... ... : ... .. 3 ... ... ... : G#3 00 . ... : ... .. . ... : ... .. . ... ... : ... .. . ... ... : ... .. . ... ... : ... .. 8 P80 ...
ROW BB : ... .. A ... ... ... : ... .. 1 ... ... ... : G-3 00 . ... : ... .. A ... : ... .. . ... ... : ... .. . ... ... : ... .. . ... ... : ... .. . P7E ...
ROW BC : ... .. . ... ... ... : ... .. . ... ... ... : D-3 00 . ... : ... .. 8 ... : ... .. . ... ... : ... .. . ... ... : ... .. . ... ... : ... .. . ... ...
ROW BD : ... .. . ... ... ... : ... .. 0 ... ... ... : ... .. . ... : ... .. 7 ... : ... .. . ... ... : ... .. . ... ... : ... .. . ... ... : ... .. . P80 ...
ROW BE : ... .. . ... ... ... : C-4 00 8 P80 ... ... : ... .. . ... : ... .. 6 ... : ... .. . ... ... : A#3 01 7 ... ... : C-4 01 7 ... ... : ... .. . P81 ...
ROW BF : ... .. . ... ... ... : ... .. 6 ... ... ... : ... .. . ... : ... .. . ... : ... .. . ... ... : ... .. 6 ... ... : ... .. 6 ... ... : ... .. . P82 ...
ROW C0 : ... .. . ... ... ... : ... .. 3 ... ... ... : ... .. . ... : ... .. 5 ... : ... .. . ... ... : ... .. . ... ... : ... .. . ... ... : ... .. . P81 ...
ROW C1 : ... .. 0 ... ... ... : ... .. 1 ... ... ... : ... .. . ... : ... .. . ... : ... .. . ... ... : --- .. . ... ... : --- .. . ... ... : --- .. . ... ...
ROW C2 : ... .. . ... ... ... : ... .. . ... ... ... : ... .. . ... : ... .. 4 ... : ... .. . ... ... : ... .. . ... ... : ... .. . ... ... : ... .. . ... ...
ROW C3 : ... .. . ... ... ... : ... .. 0 ... ... ... : ... .. . ... : ... .. . ... : ... .. . ... ... : ... .. . ... ... : ... .. . ... ... : ... .. . ... ...
ROW C4 : A#3 00 F P81 ... ... : D-4 00 8 P80 ... ... : ... .. . ... : D-# 00 F ... : ... .. . ... ... : C-4 01 7 ... ... : D-4 01 7 ... ... : A#4 01 F P80 ...
ROW C5 : ... .. E ... ... ... : ... .. 6 ... ... ... : ... .. . ... : ... .. C ... : ... .. . ... ... : ... .. 6 ... ... : ... .. 6 ... ... : ... .. D P81 ...
ROW C6 : ... .. D ... ... ... : ... .. 3 ... ... ... : ... .. . ... : ... .. 6 ... : ... .. . ... ... : ... .. . ... ... : ... .. . ... ... : ... .. 8 P82 ...
ROW C7 : ... .. A ... ... ... : ... .. 1 ... ... ... : ... .. . ... : ... .. 3 ... : ... .. . ... ... : --- .. . ... ... : --- .. . ... ... : ... .. . P81 ...
ROW C8 : ... .. . ... ... ... : ... .. . ... ... ... : ... .. . ... : ... .. 2 ... : ... .. . ... ... : ... .. . ... ... : ... .. . ... ... : ... .. . P80 ...
ROW C9 : ... .. . ... ... ... : ... .. 0 ... ... ... : ... .. . ... : ... .. 0 ... : ... .. . ... ... : ... .. . ... ... : ... .. . ... ... : ... .. . P7E ...
ROW CA : ... .. . ... ... ... : F#4 00 8 P80 ... ... : ... .. . ... : ... .. F ... : ... .. . ... ... : D-4 01 6 ... ... : C-4 01 6 ... ... : ... .. . ... ...
ROW CB : ... .. . ... ... ... : ... .. 6 ... ... ... : ... .. . ... : ... .. C ... : ... .. . ... ... : ... .. 5 ... ... : ... .. 5 ... ... : ... .. . P80 ...
ROW CC : ... .. . ... ... ... : ... .. 3 ... ... ... : ... .. . ... : ... .. 6 ... : ... .. . ... ... : ... .. . ... ... : ... .. . ... ... : ... .. . P81 ...
ROW CD : ... .. . ... ... ... : ... .. 1 ... ... ... : ... .. . ... : ... .. 3 ... : ... .. . ... ... : --- .. . ... ... : --- .. . ... ... : ... .. . P82 ...
ROW CE : ... .. . ... ... ... : ... .. . ... ... ... : ... .. . ... : ... .. 2 ... : ... .. . ... ... : ... .. . ... ... : ... .. . ... ... : ... .. . P81 ...
ROW CF : ... .. . ... ... ... : ... .. 0 ... ... ... : ... .. . ... : ... .. 0 ... : ... .. . ... ... : ... .. . ... ... : ... .. . ... ... : ... .. . P80 ...
ROW D0 : C-4 00 F ... ... ... : G#4 00 8 P80 ... ... : C-5 00 . ... : B-# 00 D ... : ... .. . ... ... : E-4 01 6 ... ... : D-4 01 6 ... ... : C-5 01 F P7F ...
ROW D1 : ... .. E ... ... ... : ... .. 6 ... ... ... : D-4 00 . ... : ... .. B ... : ... .. . ... ... : ... .. 5 ... ... : ... .. 5 ... ... : ... .. D P7E ...
ROW D2 : ... .. D ... ... ... : ... .. 3 ... ... ... : G-3 00 . ... : ... .. . ... : ... .. . ... ... : ... .. . ... ... : ... .. . ... ... : ... .. 8 P80 ...
ROW D3 : ... .. A ... ... ... : ... .. 1 ... ... ... : F#3 00 . ... : ... .. A ... : ... .. . ... ... : ... .. . ... ... : ... .. . ... ... : ... .. . ... ...
ROW D4 : ... .. . ... ... ... : ... .. . ... ... ... : C#3 00 . ... : ... .. 8 ... : ... .. . ... ... : ... .. . ... ... : ... .. . ... ... : ... .. . P82 ...
ROW D5 : ... .. . ... ... ... : ... .. 0 ... ... ... : ... .. . ... : ... .. 7 ... : ... .. . ... ... : ... .. . ... ... : ... .. . ... ... : ... .. . P81 ...
ROW D6 : A#3 00 F ... ... ... : E-4 00 8 P80 ... ... : ... .. . ... : ... .. 6 ... : ... .. . ... ... : C-4 01 6 ... ... : E-4 01 6 ... ... : A#4 01 F P80 ...
ROW D7 : ... .. E ... ... ... : ... .. 6 ... ... ... : ... .. . ... : ... .. . ... : ... .. . ... ... : ... .. 5 ... ... : ... .. 5 ... ... : ... .. D P7F ...
ROW D8 : ... .. D ... ... ... : ... .. 3 ... ... ... : ... .. . ... : ... .. 5 ... : ... .. . ... ... : ... .. . ... ... : ... .. . ... ... : ... .. 8 P7E ...
ROW D9 : ... .. 0 ... ... ... : ... .. 1 ... ... ... : ... .. . ... : ... .. . ... : ... .. . ... ... : --- .. . ... ... : --- .. . ... ... : --- .. . ... ...
ROW DA : ... .. . ... ... ... : ... .. . ... ... ... : ... .. . ... : ... .. 4 ... : ... .. . ... ... : ... .. . ... ... : ... .. . ... ... : ... .. . ... ...
ROW DB : ... .. . ... ... ... : ... .. 0 ... ... ... : ... .. . ... : ... .. . ... : ... .. . ... ... : ... .. . ... ... : ... .. . ... ... : ... .. . ... ...
ROW DC : C-4 00 F P81 ... ... : C-4 00 8 P80 ... ... : ... .. . ... : ... .. D ... : ... .. . ... ... : D-4 01 6 ... ... : F#4 01 6 ... ... : C-5 01 F P82 ...
ROW DD : ... .. E ... ... ... : ... .. 6 ... ... ... : ... .. . ... : ... .. B ... : ... .. . ... ... : ... .. 5 ... ... : ... .. 5 ... ... : ... .. D P80 ...
ROW DE : ... .. D ... ... ... : ... .. 3 ... ... ... : ... .. . ... : ... .. . ... : ... .. . ... ... : ... .. . ... ... : ... .. . ... ... : ... .. 8 P7F ...
ROW DF : ... .. 0 ... ... ... : ... .. 1 ... ... ... : ... .. . ... : ... .. A ... : ... .. . ... ... : --- .. . ... ... : --- .. . ... ... : --- .. . ... ...
ROW E0 : ... .. . ... ... ... : ... .. . ... ... ... : ... .. . ... : ... .. 8 ... : ... .. . ... ... : ... .. . ... ... : ... .. . ... ... : ... .. . ... ...
ROW E1 : ... .. . ... ... ... : ... .. 0 ... ... ... : ... .. . ... : ... .. 7 ... : ... .. . ... ... : ... .. . ... ... : ... .. . ... ... : ... .. . ... ...
ROW E2 : D-4 00 F P81 ... ... : G#3 00 8 P80 ... ... : ... .. . ... : ... .. 6 ... : ... .. . ... ... : E-4 01 6 ... ... : E-4 01 6 ... ... : D-5 01 F P82 ...
ROW E3 : ... .. E ... ... ... : ... .. 6 ... ... ... : ... .. . ... : ... .. . ... : ... .. . ... ... : ... .. 5 ... ... : ... .. 5 ... ... : ... .. D ... ...
ROW E4 : ... .. D ... ... ... : ... .. 3 ... ... ... : ... .. . ... : ... .. 5 ... : ... .. . ... ... : ... .. . ... ... : ... .. . ... ... : ... .. 8 P80 ...
ROW E5 : ... .. 0 ... ... ... : ... .. 1 ... ... ... : ... .. . ... : ... .. . ... : ... .. . ... ... : --- .. . ... ... : --- .. . ... ... : --- .. . ... ...
ROW E6 : ... .. . ... ... ... : ... .. . ... ... ... : ... .. . ... : ... .. 4 ... : ... .. . ... ... : ... .. . ... ... : ... .. . ... ... : ... .. . ... ...
ROW E7 : ... .. . ... ... ... : ... .. 0 ... ... ... : ... .. . ... : ... .. . ... : ... .. . ... ... : ... .. . ... ... : ... .. . ... ... : ... .. . ... ...
ROW E8 : E-4 00 F P81 ... ... : C-4 00 8 P80 ... ... : B-4 00 . ... : ... .. D ... : ... .. . ... ... : F#4 01 5 ... ... : F#4 01 5 ... ... : E-5 01 F ... ...
ROW E9 : ... .. E ... ... ... : ... .. 6 ... ... ... : C#4 00 . ... : ... .. B ... : ... .. . ... ... : ... .. 4 ... ... : ... .. 4 ... ... : ... .. D P82 ...
ROW EA : ... .. D ... ... ... : ... .. 3 ... ... ... : F#3 00 . ... : ... .. . ... : ... .. . ... ... : ... .. . ... ... : ... .. . ... ... : ... .. 8 ... ...
ROW EB : ... .. A ... ... ... : ... .. 1 ... ... ... : F-3 00 . ... : ... .. A ... : ... .. . ... ... : ... .. . ... ... : ... .. . ... ... : ... .. . P80 ...
ROW EC : ... .. . ... ... ... : ... .. . ... ... ... : C-3 00 . ... : ... .. 8 ... : ... .. . ... ... : ... .. . ... ... : ... .. . ... ... : ... .. . P7F ...
ROW ED : ... .. . ... ... ... : ... .. 0 ... ... ... : ... .. . ... : ... .. 7 ... : ... .. . ... ... : ... .. . ... ... : ... .. . ... ... : ... .. . P7E ...
ROW EE : ... .. . ... ... ... : E-4 00 8 P80 ... ... : ... .. . ... : ... .. 6 ... : ... .. . ... ... : D-4 01 5 ... ... : G#4 01 5 ... ... : ... .. . P7F ...
ROW EF : ... .. . ... ... ... : ... .. 6 ... ... ... : ... .. . ... : ... .. . ... : ... .. . ... ... : ... .. 4 ... ... : ... .. 4 ... ... : ... .. . P80 ...
ROW F0 : ... .. . ... ... ... : ... .. 3 ... ... ... : ... .. . ... : ... .. 5 ... : ... .. . ... ... : ... .. . ... ... : ... .. . ... ... : ... .. . P81 ...
ROW F1 : ... .. 0 ... ... ... : ... .. 1 ... ... ... : ... .. . ... : ... .. . ... : ... .. . ... ... : --- .. . ... ... : --- .. . ... ... : --- .. . ... ...
ROW F2 : ... .. . ... ... ... : ... .. . ... ... ... : ... .. . ... : ... .. 4 ... : ... .. . ... ... : ... .. . ... ... : ... .. . ... ... : ... .. . ... ...
ROW F3 : ... .. . ... ... ... : ... .. 0 ... ... ... : ... .. . ... : ... .. . ... : ... .. . ... ... : ... .. . ... ... : ... .. . ... ... : ... .. . ... ...
ROW F4 : A#3 00 F P81 ... ... : G#4 00 8 P80 ... ... : ... .. . ... : D-# 00 F ... : ... .. . ... ... : E-4 01 4 ... ... : A#4 01 4 ... ... : A#4 01 F P7E ...
ROW F5 : ... .. E ... ... ... : ... .. 6 ... ... ... : ... .. . ... : ... .. C ... : ... .. . ... ... : ... .. . ... ... : ... .. . ... ... : ... .. D P7F ...
ROW F6 : ... .. D ... ... ... : ... .. 3 ... ... ... : ... .. . ... : ... .. 6 ... : ... .. . ... ... : ... .. . ... ... : ... .. . ... ... : ... .. 8 P80 ...
ROW F7 : ... .. A ... ... ... : ... .. 1 ... ... ... : ... .. . ... : ... .. 3 ... : ... .. . ... ... : --- .. . ... ... : --- .. . ... ... : ... .. . P81 ...
ROW F8 : ... .. . ... ... ... : ... .. . ... ... ... : ... .. . ... : ... .. 2 ... : ... .. . ... ... : ... .. . ... ... : ... .. . ... ... : ... .. . P82 ...
ROW F9 : ... .. . ... ... ... : ... .. 0 ... ... ... : ... .. . ... : ... .. 0 ... : ... .. . ... ... : ... .. . ... ... : ... .. . ... ... : ... .. . P81 ...
ROW FA : ... .. . ... ... ... : C-5 00 8 P80 ... ... : ... .. . ... : ... .. F ... : ... .. . ... ... : F#4 01 4 ... ... : G#4 01 4 ... ... : ... .. . P80 ...
ROW FB : ... .. . ... ... ... : ... .. 6 ... ... ... : ... .. . ... : ... .. C ... : ... .. . ... ... : ... .. . ... ... : ... .. . ... ... : ... .. . P7E ...
ROW FC : ... .. . ... ... ... : ... .. 3 ... ... ... : ... .. . ... : ... .. 6 ... : ... .. . ... ... : ... .. . ... ... : ... .. . ... ... : ... .. . ... ...
ROW FD : ... .. 0 ... ... ... : ... .. 1 ... ... ... : ... .. . ... : ... .. 3 ... : ... .. . ... ... : --- .. . ... ... : --- .. . ... ... : --- .. . ... ...
ROW FE : ... .. . ... ... ... : ... .. . ... ... ... : ... .. . ... : ... .. 2 ... : ... .. . ... ... : ... .. . ... ... : ... .. . ... ... : ... .. . ... ...
ROW FF : ... .. . ... ... ... : ... .. 0 ... ... ... : ... .. . ... : ... .. 0 ... : ... .. . ... ... : ... .. . ... ... : ... .. . ... ... : ... .. . ... ...

PATTERN 18
ROW 00 : E-4 00 F P81 ... ... : D-5 00 8 P80 ... ... : A#4 00 . ... : B-# 00 D ... : ... .. . ... ... : G#4 01 4 ... ... : A#4 01 4 ... ... : E-5 01 F P81 ...
ROW 01 : ... .. E ... ... ... : ... .. 6 ... ... ... : C-4 00 . ... : ... .. B ... : ... .. . ... ... : ... .. . ... ... : ... .. . ... ... : ... .. D P80 ...
ROW 02 : ... .. D ... ... ... : ... .. 3 ... ... ... : F-3 00 . ... : ... .. . ... : ... .. . ... ... : ... .. . ... ... : ... .. . ... ... : ... .. 8 P7E ...
ROW 03 : ... .. A ... ... ... : ... .. 1 ... ... ... : E-3 00 . ... : ... .. A ... : ... .. . ... ... : ... .. . ... ... : ... .. . ... ... : ... .. . ... ...
ROW 04 : ... .. . ... ... ... : ... .. . ... ... ... : B-2 00 . ... : ... .. 8 ... : ... .. . ... ... : ... .. 3 ... ... : ... .. 3 ... ... : ... .. . P80 ...
ROW 05 : ... .. . ... ... ... : ... .. 0 ... ... ... : ... .. . ... : ... .. 7 ... : ... .. . ... ... : ... .. . ... ... : ... .. . ... ... : ... .. . P81 ...
ROW 06 : D-4 00 F ... ... ... : A#4 00 8 P80 ... ... : ... .. . ... : ... .. 6 ... : ... .. . ... ... : E-4 01 4 ... ... : C-5 01 4 ... ... : D-5 01 F P82 ...
ROW 07 : ... .. E ... ... ... : ... .. 6 ... ... ... : ... .. . ... : ... .. . ... : ... .. . ... ... : ... .. . ... ... : ... .. . ... ... : ... .. D P81 ...
ROW 08 : ... .. D ... ... ... : ... .. 3 ... ... ... : ... .. . ... : ... .. 5 ... : ... .. . ... ... : ... .. . ... ... : ... .. . ... ... : ... .. 8 P80 ...
ROW 09 : ... .. 0 ... ... ... : ... .. 1 ... ... ... : ... .. . ... : ... .. . ... : ... .. . ... ... : --- .. . ... ... : --- .. . ... ... : --- .. . ... ...
ROW 0A : ... .. . ... ... ... : ... .. . ... ... ... : ... .. . ... : ... .. 4 ... : ... .. . ... ... : ... .. . ... ... : ... .. . ... ... : ... .. . ... ...
ROW 0B : ... .. . ... ... ... : ... .. 0 ... ... ... : ... .. . ... : ... .. . ... : ... .. . ... ... : ... .. . ... ... : ... .. . ... ... : ... .. . ... ...
ROW 0C : E-4 00 F P81 ... ... : F#4 00 8 P80 ... ... : ... .. . ... : D-# 00 F ... : ... .. . ... ... : F#4 01 5 ... ... : D-5 01 5 ... ... : E-5 01 F P81 ...
ROW 0D : ... .. E ... ... ... : ... .. 6 ... ... ... : ... .. . ... : ... .. C ... : ... .. . ... ... : ... .. 4 ... ... : ... .. 4 ... ... : ... .. D P82 ...
ROW 0E : ... .. D ... ... ... : ... .. 3 ... ... ... : ... .. . ... : ... .. 6 ... : ... .. . ... ... : ... .. . ... ... : ... .. . ... ... : ... .. 8 P81 ...
ROW 0F : ... .. 0 ... ... ... : ... .. 1 ... ... ... : ... .. . ... : ... .. 3 ... : ... .. . ... ... : --- .. . ... ... : --- .. . ... ... : --- .. . ... ...
ROW 10 : ... .. . ... ... ... : ... .. . ... ... ... : ... .. . ... : ... .. 2 ... : ... .. . ... ... : ... .. . ... ... : ... .. . ... ... : ... .. . ... ...
ROW 11 : ... .. . ... ... ... : ... .. 0 ... ... ... : ... .. . ... : ... .. 0 ... : ... .. . ... ... : ... .. . ... ... : ... .. . ... ... : ... .. . ... ...
ROW 12 : F#4 00 F P81 ... ... : D-4 00 8 P80 ... ... : ... .. . ... : ... .. F ... : ... .. . ... ... : G#4 01 5 ... ... : C-5 01 5 ... ... : F#5 01 F P80 ...
ROW 13 : ... .. E ... ... ... : ... .. 6 ... ... ... : ... .. . ... : ... .. C ... : ... .. . ... ... : ... .. 4 ... ... : ... .. 4 ... ... : ... .. D ... ...
ROW 14 : ... .. D ... ... ... : ... .. 3 ... ... ... : ... .. . ... : ... .. 6 ... : ... .. . ... ... : ... .. . ... ... : ... .. . ... ... : ... .. 8 P82 ...
ROW 15 : ... .. 0 ... ... ... : ... .. 1 ... ... ... : ... .. . ... : ... .. 3 ... : ... .. . ... ... : --- .. . ... ... : --- .. . ... ... : --- .. . ... ...
ROW 16 : ... .. . ... ... ... : ... .. . ... ... ... : ... .. . ... : ... .. 2 ... : ... .. . ... ... : ... .. . ... ... : ... .. . ... ... : ... .. . ... ...
ROW 17 : ... .. . ... ... ... : ... .. 0 ... ... ... : ... .. . ... : ... .. 0 ... : ... .. . ... ... : ... .. . ... ... : ... .. . ... ... : ... .. . ... ...
ROW 18 : G#4 00 F P81 ... ... : F#4 00 8 P80 ... ... : A-4 00 . ... : B-# 00 D ... : ... .. . ... ... : A#4 01 6 ... ... : D-5 01 6 ... ... : G#5 01 F P7E ...
ROW 19 : ... .. E ... ... ... : ... .. 6 ... ... ... : B-3 00 . ... : ... .. B ... : ... .. . ... ... : ... .. 5 ... ... : ... .. 5 ... ... : ... .. D P7F ...
ROW 1A : ... .. D ... ... ... : ... .. 3 ... ... ... : E-3 00 . ... : ... .. . ... : ... .. . ... ... : ... .. . ... ... : ... .. . ... ... : ... .. 8 P80 ...
ROW 1B : ... .. A ... ... ... : ... .. 1 ... ... ... : D#3 00 . ... : ... .. A ... : ... .. . ... ... : ... .. . ... ... : ... .. . ... ... : ... .. . P82 ...
ROW 1C : ... .. . ... ... ... : ... .. . ... ... ... : A#2 00 . ... : ... .. 8 ... : ... .. . ... ... : ... .. 4 ... ... : ... .. 4 ... ... : ... .. . ... ...
ROW 1D : ... .. . ... ... ... : ... .. 0 ... ... ... : ... .. . ... : ... .. 7 ... : ... .. . ... ... : ... .. . ... ... : ... .. . ... ... : ... .. . P80 ...
ROW 1E : ... .. . ... ... ... : A#4 00 8 P80 ... ... : ... .. . ... : ... .. 6 ... : ... .. . ... ... : F#4 01 6 ... ... : E-5 01 6 ... ... : ... .. . P7F ...
ROW 1F : ... .. . ... ... ... : ... .. 6 ... ... ... : ... .. . ... : ... .. . ... : ... .. . ... ... : ... .. 5 ... ... : ... .. 5 ... ... : ... .. . P7E ...
ROW 20 : ... .. . ... ... ... : ... .. 3 ... ... ... : ... .. . ... : ... .. 5 ... : ... .. . ... ... : ... .. . ... ... : ... .. . ... ... : ... .. . P7F ...
ROW 21 : ... .. 0 ... ... ... : ... .. 1 ... ... ... : ... .. . ... : ... .. . ... : ... .. . ... ... : --- .. . ... ... : --- .. . ... ... : --- .. . ... ...
ROW 22 : ... .. . ... ... ... : ... .. . ... ... ... : ... .. . ... : ... .. 4 ... : ... .. . ... ... : ... .. . ... ... : ... .. . ... ... : ... .. . ... ...
ROW 23 : ... .. . ... ... ... : ... .. 0 ... ... ... : ... .. . ... : ... .. . ... : ... .. . ... ... : ... .. . ... ... : ... .. . ... ... : ... .. . ... ...
ROW 24 : C-4 00 F P81 ... ... : D-5 00 8 P80 ... ... : ... .. . ... : D-# 00 F ... : ... .. . ... ... : G#4 01 6 ... ... : F#5 01 6 ... ... : C-5 01 F P80 ...
ROW 25 : ... .. E ... ... ... : ... .. 6 ... ... ... : ... .. . ... : ... .. C ... : ... .. . ... ... : ... .. 5 ... ... : ... .. 5 ... ... : ... .. D P7F ...
ROW 26 : ... .. D ... ... ... : ... .. 3 ... ... ... : ... .. . ... : ... .. 6 ... : ... .. . ... ... : ... .. . ... ... : ... .. . ... ... : ... .. 8 P7E ...
ROW 27 : ... .. A ... ... ... : ... .. 1 ... ... ... : ... .. . ... : ... .. 3 ... : ... .. . ... ... : --- .. . ... ... : --- .. . ... ... : ... .. . P7F ...
ROW 28 : ... .. . ... ... ... : ... .. . ... ... ... : ... .. . ... : ... .. 2 ... : ... .. . ... ... : ... .. . ... ... : ... .. . ... ... : ... .. . P80 ...
ROW 29 : ... .. . ... ... ... : ... .. 0 ... ... ... : ... .. . ... : ... .. 0 ... : ... .. . ... ... : ... .. . ... ... : ... .. . ... ... : ... .. . P82 ...
ROW 2A : ... .. . ... ... ... : F#5 00 8 P80 ... ... : ... .. . ... : ... .. F ... : ... .. . ... ... : A#4 01 7 ... ... : E-5 01 7 ... ... : ... .. . ... ...
ROW 2B : ... .. . ... ... ... : ... .. 6 ... ... ... : ... .. . ... : ... .. C ... : ... .. . ... ... : ... .. 6 ... ... : ... .. 6 ... ... : ... .. . P80 ...
ROW 2C : ... .. . ... ... ... : ... .. 3 ... ... ... : ... .. . ... : ... .. 6 ... : ... .. . ... ... : ... .. . ... ... : ... .. . ... ... : ... .. . P7F ...
ROW 2D : ... .. 0 ... ... ... : ... .. 1 ... ... ... : ... .. . ... : ... .. 3 ... : ... .. . ... ... : --- .. . ... ... : --- .. . ... ... : --- .. . ... ...
ROW 2E : ... .. . ... ... ... : ... .. . ... ... ... : ... .. . ... : ... .. 2 ... : ... .. . ... ... : ... .. . ... ... : ... .. . ... ... : ... .. . ... ...
ROW 2F : ... .. . ... ... ... : ... .. 0 ... ... ... : ... .. . ... : ... .. 0 ... : ... .. . ... ... : ... .. . ... ... : ... .. . ... ... : ... .. . ... ...
ROW 30 : A#4 00 F P81 ... ... : G#5 00 8 P80 ... ... : G#4 00 . ... : B-# 00 D ... : ... .. . ... ... : C-5 01 7 ... ... : F#5 01 7 ... ... : A#5 01 F P81 ...
ROW 31 : ... .. E ... ... ... : ... .. 6 ... ... ... : A#3 00 . ... : ... .. B ... : ... .. . ... ... : ... .. 6 ... ... : ... .. 6 ... ... : ... .. D P82 ...
ROW 32 : ... .. D ... ... ... : ... .. 3 ... ... ... : D#3 00 . ... : ... .. . ... : ... .. . ... ... : ... .. . ... ... : ... .. . ... ... : ... .. 8 P80 ...
ROW 33 : ... .. A ... ... ... : ... .. 1 ... ... ... : D-3 00 . ... : ... .. A ... : ... .. . ... ... : ... .. . ... ... : ... .. . ... ... : ... .. . ... ...
ROW 34 : ... .. . ... ... ... : ... .. . ... ... ... : A-2 00 . ... : ... .. 8 ... : ... .. . ... ... : ... .. 5 ... ... : ... .. 5 ... ... : A-5 01 8 P82 ...
ROW 35 : ... .. . ... ... ... : ... .. 0 ... ... ... : ... .. . ... : ... .. 7 ... : ... .. . ... ... : ... .. . ... ... : ... .. . ... ... : A#5 01 8 P7F ...
ROW 36 : G#4 00 F ... ... ... : E-5 00 8 P80 ... ... : ... .. . ... : ... .. 6 ... : ... .. . ... ... : G#4 01 7 ... ... : F-5 01 7 ... ... : G#5 01 F P80 ...
ROW 37 : ... .. E ... ... ... : ... .. 6 ... ... ... : ... .. . ... : ... .. . ... : ... .. . ... ... : ... .. 6 ... ... : ... .. 6 ... ... : ... .. D P81 ...
ROW 38 : ... .. D ... ... ... : ... .. 3 ... ... ... : ... .. . ... : ... .. 5 ... : ... .. . ... ... : ... .. . ... ... : ... .. . ... ... : ... .. 8 P82 ...
ROW 39 : ... .. 0 ... ... ... : ... .. 1 ... ... ... : ... .. . ... : ... .. . ... : ... .. . ... ... : --- .. . ... ... : --- .. . ... ... : --- .. . ... ...
ROW 3A : ... .. . ... ... ... : ... .. . ... ... ... : ... .. . ... : ... .. 4 ... : ... .. . ... ... : ... .. . ... ... : ... .. . ... ... : ... .. . ... ...
ROW 3B : ... .. . ... ... ... : ... .. 0 ... ... ... : ... .. . ... : ... .. . ... : ... .. . ... ... : ... .. . ... ... : ... .. . ... ... : ... .. . ... ...
ROW 3C : A#4 00 F P81 ... ... : G#5 00 8 P80 ... ... : ... .. . ... : ... .. 3 ... : ... .. . ... ... : A#4 01 7 ... ... : F#5 01 7 ... ... : A-5 01 F ... ...
ROW 3D : ... .. E ... ... ... : ... .. 6 ... ... ... : ... .. . ... : ... .. 2 ... : ... .. . ... ... : ... .. 6 ... ... : ... .. 6 ... ... : A#5 01 D P80 ...
ROW 3E : ... .. D ... ... ... : ... .. 3 ... ... ... : ... .. . ... : ... .. . ... : ... .. . ... ... : ... .. . ... ... : ... .. . ... ... : ... .. 8 P81 ...
ROW 3F : ... .. 0 ... ... ... : ... .. 1 ... ... ... : ... .. . ... : D-# 00 5 ... : ... .. . ... ... : --- .. . ... ... : --- .. . ... ... : --- .. . ... ...
ROW 40 : ... .. . ... ... ... : ... .. . ... ... ... : ... .. . ... : ... .. 4 ... : ... .. . ... ... : ... .. . ... ... : ... .. . ... ... : ... .. . ... ...
ROW 41 : ... .. . ... ... ... : ... .. 0 ... ... ... : ... .. . ... : ... .. . ... : ... .. . ... ... : ... .. . ... ... : ... .. . ... ... : ... .. . ... ...
ROW 42 : C-5 00 F P81 ... ... : B-5 00 8 P80 ... ... : ... .. . ... : ... .. 6 ... : ... .. . ... ... : C-5 01 8 ... ... : G#5 01 8 ... ... : B-5 01 F P82 ...
ROW 43 : ... .. E ... ... ... : ... .. 6 ... ... ... : ... .. . ... : ... .. 5 ... : ... .. . ... ... : ... .. 7 ... ... : ... .. 7 ... ... : ... .. D ... ...
ROW 44 : ... .. D ... ... ... : ... .. 3 ... ... ... : ... .. . ... : ... .. . ... : ... .. . ... ... : ... .. . ... ... : ... .. . ... ... : C-6 01 8 P80 ...
ROW 45 : ... .. 0 ... ... ... : ... .. 1 ... ... ... : ... .. . ... : ... .. 8 ... : ... .. . ... ... : --- .. . ... ... : --- .. . ... ... : --- .. . ... ...
ROW 46 : ... .. . ... ... ... : ... .. . ... ... ... : ... .. . ... : ... .. 7 ... : ... .. . ... ... : ... .. . ... ... : ... .. . ... ... : ... .. . ... ...
ROW 47 : ... .. . ... ... ... : ... .. 0 ... ... ... : ... .. . ... : ... .. . ... : ... .. . ... ... : ... .. . ... ... : ... .. . ... ... : ... .. . ... ...
ROW 48 : D-5 00 F P81 ... ... : C#6 00 8 P80 ... ... : G-4 00 . ... : B-# 00 D ... : ... .. . ... ... : D-5 01 9 ... ... : A-5 01 9 ... ... : D-6 01 F ... ...
ROW 49 : ... .. E ... ... ... : ... .. 6 ... ... ... : A-3 00 . ... : ... .. B ... : ... .. . ... ... : ... .. 8 ... ... : ... .. 8 ... ... : C#6 01 D P82 ...
ROW 4A : ... .. D ... ... ... : ... .. 3 ... ... ... : D-3 00 . ... : ... .. . ... : ... .. . ... ... : ... .. . ... ... : ... .. . ... ... : ... .. 8 ... ...
ROW 4B : ... .. A ... ... ... : ... .. 1 ... ... ... : C#3 00 . ... : ... .. A ... : ... .. . ... ... : ... .. . ... ... : ... .. . ... ... : D-6 01 8 P80 ...
ROW 4C : ... .. . ... ... ... : ... .. . ... ... ... : G#2 00 . ... : ... .. 8 ... : ... .. . ... ... : ... .. 7 ... ... : ... .. 7 ... ... : ... .. . P81 ...
ROW 4D : ... .. . ... ... ... : ... .. 0 ... ... ... : ... .. . ... : ... .. 7 ... : ... .. . ... ... : ... .. . ... ... : ... .. . ... ... : D#6 01 8 P7F ...
ROW 4E : ... .. . ... ... ... : ... .. . ... ... ... : ... .. . ... : ... .. 6 ... : ... .. . ... ... : ... .. . ... ... : ... .. . ... ... : D-6 01 8 P81 ...
ROW 4F : ... .. . ... ... ... : ... .. . ... ... ... : ... .. . ... : ... .. . ... : ... .. . ... ... : ... .. 6 ... ... : ... .. 6 ... ... : ... .. . P80 ...
ROW 50 : ... .. . ... ... ... : ... .. . ... ... ... : ... .. . ... : ... .. 5 ... : ... .. . ... ... : ... .. . ... ... : ... .. . ... ... : ... .. . P7F ...
ROW 51 : ... .. . ... ... ... : ... .. . ... ... ... : ... .. . ... : ... .. . ... : ... .. . ... ... : ... .. . ... ... : ... .. . ... ... : C#6 01 8 P82 ...
ROW 52 : ... .. . ... ... ... : ... .. . ... ... ... : ... .. . ... : ... .. 4 ... : ... .. . ... ... : ... .. . ... ... : ... .. . ... ... : D-6 01 8 P80 ...
ROW 53 : ... .. . ... ... ... : ... .. . ... ... ... : ... .. . ... : ... .. . ... : ... .. . ... ... : ... .. . ... ... : ... .. . ... ... : ... .. . ... ...
ROW 54 : E-5 00 A ... ... ... : ... .. . ... ... ... : ... .. . ... : ... .. 3 ... : ... .. . ... ... : ... .. . ... ... : ... .. . ... ... : D#6 01 8 P7F ...
ROW 55 : F-5 00 A P82 ... ... : ... .. . ... ... ... : ... .. . ... : ... .. 2 ... : ... .. . ... ... : ... .. 5 ... ... : ... .. 5 ... ... : D-6 01 4 P81 ...
ROW 56 : ... .. . P80 ... ... : ... .. . ... ... ... : ... .. . ... : ... .. . ... : ... .. . ... ... : ... .. . ... ... : ... .. . ... ... : ... .. . P80 ...
ROW 57 : D#5 00 A ... ... ... : ... .. . ... ... ... : ... .. . ... : ... .. 1 ... : ... .. . ... ... : ... .. 4 ... ... : ... .. 4 ... ... : ... .. 1 P7F ...
ROW 58 : C#5 00 A P83 ... ... : ... .. . ... ... ... : ... .. . ... : ... .. 0 ... : ... .. . ... ... : ... .. 3 ... ... : ... .. 3 ... ... : C#6 01 1 P82 ...
ROW 59 : C-5 00 A P7F ... ... : ... .. . ... ... ... : ... .. . ... : ... .. . ... : ... .. . ... ... : ... .. . ... ... : ... .. . ... ... : D-6 01 1 P7F ...
ROW 5A : B-4 00 A P83 ... ... : ... .. . ... ... ... : ... .. . ... : ... .. . ... : ... .. . ... ... : ... .. . ... ... : ... .. . ... ... : ... .. . P80 ...
ROW 5B : C-5 00 A ... ... ... : ... .. . ... ... ... : ... .. . ... : ... .. . ... : ... .. . ... ... : ... .. . ... ... : ... .. . ... ... : D#6 01 1 P7F ...
ROW 5C : D-5 00 A P81 ... ... : ... .. . ... ... ... : ... .. . ... : ... .. . ... : ... .. . ... ... : ... .. . ... ... : ... .. . ... ... : ... .. . ... ...
ROW 5D : E-5 00 A P80 ... ... : ... .. . ... ... ... : ... .. . ... : ... .. . ... : ... .. . ... ... : ... .. . ... ... : ... .. . ... ... : D-6 01 1 P80 ...
ROW 5E : F-5 00 2 P82 ... ... : ... .. . ... ... ... : ... .. . ... : ... .. . ... : ... .. . ... ... : ... .. . ... ... : ... .. . ... ... : ... .. 0 P7F ...
ROW 5F : ... .. . P80 ... ... : ... .. . ... ... ... : ... .. . ... : ... .. . ... : ... .. . ... ... : ... .. . ... ... : ... .. . ... ... : C#6 01 0 P82 ...
ROW 60 : G-1 00 D P81 ... ... : D-5 00 6 P80 ... ... : F#4 00 . ... : C-# 00 4 ... : ... .. . ... ... : --- .. . ... ... : --- .. . ... ... : D-6 01 0 P7F ...
ROW 61 : ... .. B ... ... ... : ... .. 4 ... ... ... : G#3 00 . ... : ... .. 3 ... : ... .. . ... ... : ... .. . ... ... : ... .. . ... ... : ... .. . P80 ...
ROW 62 : ... .. . ... ... ... : ... .. 2 ... ... ... : C#3 00 . ... : ... .. 1 ... : ... .. . ... ... : ... .. . ... ... : ... .. . ... ... : D#6 01 0 P7F ...
ROW 63 : ... .. A ... ... ... : ... .. 1 ... ... ... : C-3 00 . ... : ... .. . ... : ... .. . ... ... : ... .. . ... ... : ... .. . ... ... : ... .. . ... ...
ROW 64 : ... .. 8 ... ... ... : ... .. . ... ... ... : G-2 00 . ... : ... .. . ... : ... .. . ... ... : ... .. . ... ... : ... .. . ... ... : D-6 01 0 P80 ...
ROW 65 : ... .. 7 ... ... ... : ... .. 0 ... ... ... : ... .. . ... : ... .. 0 ... : ... .. . ... ... : ... .. . ... ... : ... .. . ... ... : ... .. . P7F ...
ROW 66 : ... .. 6 ... ... ... : D#5 00 6 P80 ... ... : ... .. . ... : ... .. 8 ... : ... .. . ... ... : ... .. . ... ... : ... .. . ... ... : C#6 01 0 P82 ...
ROW 67 : ... .. . ... ... ... : ... .. 4 ... ... ... : ... .. . ... : ... .. 6 ... : ... .. . ... ... : ... .. . ... ... : ... .. . ... ... : D-6 01 0 P7F ...
ROW 68 : ... .. 5 ... ... ... : ... .. 2 ... ... ... : ... .. . ... : ... .. 3 ... : ... .. . ... ... : ... .. . ... ... : ... .. . ... ... : ... .. . P80 ...
ROW 69 : ... .. . ... ... ... : ... .. 1 ... ... ... : ... .. . ... : ... .. 1 ... : ... .. . ... ... : ... .. . ... ... : ... .. . ... ... : D#6 01 0 P7F ...
ROW 6A : ... .. 4 ... ... ... : ... .. . ... ... ... : ... .. . ... : ... .. . ... : ... .. . ... ... : ... .. . ... ... : ... .. . ... ... : ... .. . ... ...
ROW 6B : ... .. . ... ... ... : ... .. 0 ... ... ... : ... .. . ... : ... .. 0 ... : ... .. . ... ... : ... .. . ... ... : ... .. . ... ... : D-6 01 0 P80 ...
ROW 6C : D-2 00 D ... ... ... : D-5 00 6 P80 ... ... : ... .. . ... : ... .. F ... : ... .. . ... ... : D-3 01 9 ... ... : A#3 01 9 ... ... : D-3 01 F P7C ...
ROW 6D : ... .. B ... ... ... : ... .. 4 ... ... ... : ... .. . ... : ... .. C ... : ... .. . ... ... : ... .. 8 ... ... : ... .. 8 ... ... : ... .. D P77 ...
ROW 6E : ... .. . ... ... ... : ... .. 2 ... ... ... : ... .. . ... : ... .. 6 ... : ... .. . ... ... : ... .. . ... ... : ... .. . ... ... : ... .. 8 P79 ...
ROW 6F : ... .. 0 ... ... ... : ... .. 1 ... ... ... : ... .. . ... : ... .. 3 ... : ... .. . ... ... : ... .. . ... ... : ... .. . ... ... : ... .. . P80 ...
ROW 70 : ... .. . ... ... ... : ... .. . ... ... ... : ... .. . ... : ... .. 2 ... : ... .. . ... ... : ... .. 7 ... ... : ... .. 7 ... ... : ... .. . P87 ...
ROW 71 : ... .. . ... ... ... : ... .. 0 ... ... ... : ... .. . ... : ... .. 0 ... : ... .. . ... ... : ... .. . ... ... : ... .. . ... ... : ... .. . P89 ...
ROW 72 : D-2 00 D P81 ... ... : D#5 00 6 P80 ... ... : --- .. . ... : ... .. 4 ... : ... .. . ... ... : --- .. . P82 ... : --- .. . ... ... : --- .. . P83 ...
ROW 73 : ... .. B ... ... ... : ... .. 4 ... ... ... : ... .. . ... : ... .. 3 ... : ... .. . ... ... : ... .. . ... ... : ... .. . ... ... : ... .. . ... ...
ROW 74 : ... .. . ... ... ... : ... .. 2 ... ... ... : ... .. . ... : ... .. 1 ... : ... .. . ... ... : ... .. . ... ... : ... .. . ... ... : ... .. . ... ...
ROW 75 : ... .. 0 ... ... ... : ... .. 1 ... ... ... : ... .. . ... : ... .. . ... : ... .. . ... ... : ... .. . ... ... : ... .. . ... ... : ... .. . ... ...
ROW 76 : ... .. . ... ... ... : ... .. . ... ... ... : ... .. . ... : ... .. . ... : ... .. . ... ... : ... .. . ... ... : ... .. . ... ... : ... .. . ... ...
ROW 77 : ... .. . ... ... ... : ... .. 0 ... ... ... : ... .. . ... : ... .. 0 ... : ... .. . ... ... : ... .. . ... ... : ... .. . ... ... : ... .. . ... ...
ROW 78 : C#2 00 D P81 ... ... : D-5 00 6 P80 ... ... : C#4 00 . ... : ... .. 2 ... : ... .. . ... ... : ... .. . ... ... : ... .. . ... ... : C#3 01 F P89 ...
ROW 79 : ... .. B ... ... ... : ... .. 4 ... ... ... : D#3 00 . ... : ... .. 1 ... : ... .. . ... ... : ... .. . ... ... : ... .. . ... ... : ... .. D P84 ...
ROW 7A : ... .. . ... ... ... : ... .. 2 ... ... ... : G#2 00 . ... : ... .. . ... : ... .. . ... ... : ... .. . ... ... : ... .. . ... ... : ... .. 8 P7E ...
ROW 7B : ... .. A ... ... ... : ... .. 1 ... ... ... : G-2 00 . ... : ... .. . ... : ... .. . ... ... : ... .. . ... ... : ... .. . ... ... : ... .. . P77 ...
ROW 7C : ... .. 8 ... ... ... : ... .. . ... ... ... : D-2 00 . ... : ... .. . ... : ... .. . ... ... : ... .. . ... ... : ... .. . ... ... : ... .. . P78 ...
ROW 7D : ... .. 7 ... ... ... : ... .. 0 ... ... ... : ... .. . ... : ... .. 0 ... : ... .. . ... ... : ... .. . ... ... : ... .. . ... ... : ... .. . P80 ...
ROW 7E : ... .. D ... ... ... : D#5 00 6 P80 ... ... : ... .. . ... : ... .. 4 ... : ... .. . ... ... : ... .. . ... ... : ... .. . ... ... : ... .. . P86 ...
ROW 7F : ... .. B ... ... ... : ... .. 4 ... ... ... : ... .. . ... : ... .. 3 ... : ... .. . ... ... : ... .. . ... ... : ... .. . ... ... : ... .. . P89 ...
ROW 80 : ... .. . ... ... ... : ... .. 2 ... ... ... : ... .. . ... : ... .. 1 ... : ... .. . ... ... : ... .. . ... ... : ... .. . ... ... : ... .. . P85 ...
ROW 81 : ... .. A ... ... ... : ... .. 1 ... ... ... : ... .. . ... : ... .. . ... : ... .. . ... ... : ... .. . ... ... : ... .. . ... ... : ... .. . P7F ...
ROW 82 : ... .. 8 ... ... ... : ... .. . ... ... ... : ... .. . ... : ... .. . ... : ... .. . ... ... : ... .. . ... ... : ... .. . ... ... : ... .. . P78 ...
ROW 83 : ... .. 7 ... ... ... : ... .. 0 ... ... ... : ... .. . ... : ... .. 0 ... : ... .. . ... ... : ... .. . ... ... : ... .. . ... ... : ... .. . ... ...
ROW 84 : D-2 00 D ... ... ... : D-5 00 6 P80 ... ... : ... .. . ... : ... .. F ... : ... .. . ... ... : C#3 01 9 P80 ... : A#3 01 9 ... ... : D-3 01 F P7F ...
ROW 85 : ... .. B ... ... ... : ... .. 4 ... ... ... : ... .. . ... : ... .. C ... : ... .. . ... ... : ... .. 8 ... ... : ... .. 8 ... ... : ... .. D P85 ...
ROW 86 : ... .. . ... ... ... : ... .. 2 ... ... ... : ... .. . ... : ... .. 6 ... : ... .. . ... ... : ... .. . ... ... : ... .. . ... ... : ... .. 8 P89 ...
ROW 87 : ... .. 0 ... ... ... : ... .. 1 ... ... ... : ... .. . ... : ... .. 3 ... : ... .. . ... ... : ... .. . ... ... : ... .. . ... ... : ... .. . P86 ...
ROW 88 : ... .. . ... ... ... : ... .. . ... ... ... : ... .. . ... : ... .. 2 ... : ... .. . ... ... : ... .. 7 ... ... : ... .. 7 ... ... : ... .. . P80 ...
ROW 89 : ... .. . ... ... ... : ... .. 0 ... ... ... : ... .. . ... : ... .. 0 ... : ... .. . ... ... : ... .. . ... ... : ... .. . ... ... : ... .. . P78 ...
ROW 8A : D-2 00 D P81 ... ... : D#5 00 6 P80 ... ... : --- .. . ... : ... .. F ... : ... .. . ... ... : --- .. . P83 ... : --- .. . ... ... : --- .. . P7C ...
ROW 8B : ... .. B ... ... ... : ... .. 4 ... ... ... : ... .. . ... : ... .. C ... : ... .. . ... ... : ... .. . ... ... : ... .. . ... ... : ... .. . ... ...
ROW 8C : ... .. . ... ... ... : ... .. 2 ... ... ... : ... .. . ... : ... .. 6 ... : ... .. . ... ... : ... .. . ... ... : ... .. . ... ... : ... .. . ... ...
ROW 8D : ... .. 0 ... ... ... : ... .. 1 ... ... ... : ... .. . ... : ... .. 3 ... : ... .. . ... ... : ... .. . ... ... : ... .. . ... ... : ... .. . ... ...
ROW 8E : ... .. . ... ... ... : ... .. . ... ... ... : ... .. . ... : ... .. 2 ... : ... .. . ... ... : ... .. . ... ... : ... .. . ... ... : ... .. . ... ...
ROW 8F : ... .. . ... ... ... : ... .. 0 ... ... ... : ... .. . ... : ... .. 0 ... : ... .. . ... ... : ... .. . ... ... : ... .. . ... ... : ... .. . ... ...
ROW 90 : A#1 00 D P81 ... ... : D-5 00 6 P80 ... ... : A-4 00 . ... : ... .. 2 ... : ... .. . ... ... : ... .. . ... ... : ... .. . ... ... : D#3 01 F P79 ...
ROW 91 : ... .. B ... ... ... : ... .. 4 ... ... ... : B-3 00 . ... : ... .. 1 ... : ... .. . ... ... : ... .. . ... ... : ... .. . ... ... : ... .. D P77 ...
ROW 92 : ... .. . ... ... ... : ... .. 2 ... ... ... : E-3 00 . ... : ... .. . ... : ... .. . ... ... : ... .. . ... ... : ... .. . ... ... : ... .. 8 P7D ...
ROW 93 : ... .. A ... ... ... : ... .. 1 ... ... ... : D#3 00 . ... : ... .. . ... : ... .. . ... ... : ... .. . ... ... : ... .. . ... ... : ... .. . P83 ...
ROW 94 : ... .. 8 ... ... ... : ... .. . ... ... ... : A#2 00 . ... : ... .. . ... : ... .. . ... ... : ... .. . ... ... : ... .. . ... ... : ... .. . P89 ...
ROW 95 : ... .. 7 ... ... ... : ... .. 0 ... ... ... : ... .. . ... : ... .. 0 ... : ... .. . ... ... : ... .. . ... ... : ... .. . ... ... : ... .. . P87 ...
ROW 96 : ... .. D ... ... ... : D#5 00 6 P80 ... ... : ... .. . ... : ... .. 4 ... : ... .. . ... ... : ... .. . ... ... : ... .. . ... ... : ... .. . P80 ...
ROW 97 : ... .. B ... ... ... : ... .. 4 ... ... ... : ... .. . ... : ... .. 3 ... : ... .. . ... ... : ... .. . ... ... : ... .. . ... ... : ... .. . P79 ...
ROW 98 : ... .. . ... ... ... : ... .. 2 ... ... ... : ... .. . ... : ... .. 1 ... : ... .. . ... ... : ... .. . ... ... : ... .. . ... ... : ... .. . P77 ...
ROW 99 : ... .. A ... ... ... : ... .. 1 ... ... ... : ... .. . ... : ... .. . ... : ... .. . ... ... : ... .. . ... ... : ... .. . ... ... : ... .. . P7C ...
ROW 9A : ... .. 8 ... ... ... : ... .. . ... ... ... : ... .. . ... : ... .. . ... : ... .. . ... ... : ... .. . ... ... : ... .. . ... ... : ... .. . P82 ...
ROW 9B : ... .. 7 ... ... ... : ... .. 0 ... ... ... : ... .. . ... : ... .. 0 ... : ... .. . ... ... : ... .. . ... ... : ... .. . ... ... : ... .. . P89 ...
ROW 9C : C#2 00 D ... ... ... : E-5 00 6 P80 ... ... : ... .. . ... : ... .. F ... : ... .. . ... ... : D-3 01 9 P80 ... : A#3 01 9 ... ... : D-3 01 F P88 ...
ROW 9D : ... .. B ... ... ... : ... .. 4 ... ... ... : ... .. . ... : ... .. C ... : ... .. . ... ... : ... .. 8 ... ... : ... .. 8 ... ... : ... .. D P80 ...
ROW 9E : ... .. . ... ... ... : ... .. 2 ... ... ... : ... .. . ... : ... .. 6 ... : ... .. . ... ... : ... .. . ... ... : ... .. . ... ... : ... .. 8 P7A ...
ROW 9F : ... .. 0 ... ... ... : ... .. 1 ... ... ... : ... .. . ... : ... .. 3 ... : ... .. . ... ... : ... .. . ... ... : ... .. . ... ... : ... .. . P77 ...
ROW A0 : ... .. . ... ... ... : ... .. . ... ... ... : ... .. . ... : ... .. 2 ... : ... .. . ... ... : ... .. 7 ... ... : ... .. 7 ... ... : ... .. . P7B ...
ROW A1 : ... .. . ... ... ... : ... .. 0 ... ... ... : ... .. . ... : ... .. 0 ... : ... .. . ... ... : ... .. . ... ... : ... .. . ... ... : ... .. . P81 ...
ROW A2 : C#2 00 D P81 ... ... : F-5 00 6 P80 ... ... : --- .. . ... : ... .. F ... : ... .. . ... ... : --- .. . P82 ... : --- .. . ... ... : --- .. . P85 ...
ROW A3 : ... .. B ... ... ... : ... .. 4 ... ... ... : ... .. . ... : ... .. C ... : ... .. . ... ... : ... .. . ... ... : ... .. . ... ... : ... .. . ... ...
ROW A4 : ... .. . ... ... ... : ... .. 2 ... ... ... : ... .. . ... : ... .. 6 ... : ... .. . ... ... : ... .. . ... ... : ... .. . ... ... : ... .. . ... ...
ROW A5 : ... .. 0 ... ... ... : ... .. 1 ... ... ... : ... .. . ... : ... .. 3 ... : ... .. . ... ... : ... .. . ... ... : ... .. . ... ... : ... .. . ... ...
ROW A6 : ... .. . ... ... ... : ... .. . ... ... ... : ... .. . ... : ... .. 2 ... : ... .. . ... ... : ... .. . ... ... : ... .. . ... ... : ... .. . ... ...
ROW A7 : ... .. . ... ... ... : ... .. 0 ... ... ... : ... .. . ... : ... .. 0 ... : ... .. . ... ... : ... .. . ... ... : ... .. . ... ... : ... .. . ... ...
ROW A8 : A-1 00 D P81 ... ... : F#5 00 6 P80 ... ... : G#4 00 . ... : ... .. 4 ... : ... .. . ... ... : ... .. . ... ... : ... .. . ... ... : C#3 01 F P80 ...
ROW A9 : ... .. B ... ... ... : ... .. 4 ... ... ... : A#3 00 . ... : ... .. 3 ... : ... .. . ... ... : ... .. . ... ... : ... .. . ... ... : ... .. D P88 ...
ROW AA : ... .. . ... ... ... : ... .. 2 ... ... ... : D#3 00 . ... : ... .. 1 ... : ... .. . ... ... : ... .. . ... ... : ... .. . ... ... : ... .. 8 P89 ...
ROW AB : ... .. A ... ... ... : ... .. 1 ... ... ... : D-3 00 . ... : ... .. . ... : ... .. . ... ... : ... .. . ... ... : ... .. . ... ... : ... .. . P82 ...
ROW AC : ... .. 8 ... ... ... : ... .. . ... ... ... : A-2 00 . ... : ... .. . ... : ... .. . ... ... : ... .. . ... ... : ... .. . ... ... : ... .. . P7C ...
ROW AD : ... .. 7 ... ... ... : ... .. 0 ... ... ... : ... .. . ... : ... .. 0 ... : ... .. . ... ... : ... .. . ... ... : ... .. . ... ... : ... .. . P77 ...
ROW AE : ... .. D ... ... ... : F-5 00 6 P80 ... ... : ... .. . ... : ... .. 8 ... : ... .. . ... ... : ... .. . ... ... : ... .. . ... ... : ... .. . P79 ...
ROW AF : ... .. B ... ... ... : ... .. 4 ... ... ... : ... .. . ... : ... .. 6 ... : ... .. . ... ... : ... .. . ... ... : ... .. . ... ... : ... .. . P80 ...
ROW B0 : ... .. . ... ... ... : ... .. 2 ... ... ... : ... .. . ... : ... .. 3 ... : ... .. . ... ... : ... .. . ... ... : ... .. . ... ... : ... .. . P87 ...
ROW B1 : ... .. A ... ... ... : ... .. 1 ... ... ... : ... .. . ... : ... .. 1 ... : ... .. . ... ... : ... .. . ... ... : ... .. . ... ... : ... .. . P89 ...
ROW B2 : ... .. 8 ... ... ... : ... .. . ... ... ... : ... .. . ... : ... .. . ... : ... .. . ... ... : ... .. . ... ... : ... .. . ... ... : ... .. . P83 ...
ROW B3 : ... .. 7 ... ... ... : ... .. 0 ... ... ... : ... .. . ... : ... .. 0 ... : ... .. . ... ... : ... .. . ... ... : ... .. . ... ... : ... .. . P7D ...
ROW B4 : C#2 00 D ... ... ... : E-5 00 6 P80 ... ... : ... .. . ... : ... .. F ... : ... .. . ... ... : C#3 01 9 P80 ... : A-3 01 9 ... ... : D-3 01 F P77 ...
ROW B5 : ... .. B ... ... ... : ... .. 4 ... ... ... : ... .. . ... : ... .. C ... : ... .. . ... ... : ... .. 8 ... ... : ... .. 8 ... ... : ... .. D P79 ...
ROW B6 : ... .. . ... ... ... : ... .. 2 ... ... ... : ... .. . ... : ... .. 6 ... : ... .. . ... ... : ... .. . ... ... : ... .. . ... ... : ... .. 8 P80 ...
ROW B7 : ... .. 0 ... ... ... : ... .. 1 ... ... ... : ... .. . ... : ... .. 3 ... : ... .. . ... ... : ... .. . ... ... : ... .. . ... ... : ... .. . P87 ...
ROW B8 : ... .. . ... ... ... : ... .. . ... ... ... : ... .. . ... : ... .. 2 ... : ... .. . ... ... : ... .. 7 ... ... : ... .. 7 ... ... : ... .. . P89 ...
ROW B9 : ... .. . ... ... ... : ... .. 0 ... ... ... : ... .. . ... : ... .. 0 ... : ... .. . ... ... : ... .. . ... ... : ... .. . ... ... : ... .. . P84 ...
ROW BA : D-2 00 D P81 ... ... : D#5 00 6 P80 ... ... : --- .. . ... : ... .. 2 ... : ... .. . ... ... : --- .. . P83 ... : --- .. . ... ... : ... .. . P7E ...
ROW BB : ... .. B ... ... ... : ... .. 4 ... ... ... : ... .. . ... : ... .. 1 ... : ... .. . ... ... : ... .. . ... ... : ... .. . ... ... : ... .. . P77 ...
ROW BC : ... .. . ... ... ... : ... .. 2 ... ... ... : ... .. . ... : ... .. . ... : ... .. . ... ... : ... .. . ... ... : ... .. . ... ... : ... .. . P78 ...
ROW BD : ... .. 0 ... ... ... : ... .. 1 ... ... ... : ... .. . ... : ... .. . ... : ... .. . ... ... : ... .. . ... ... : ... .. . ... ... : ... .. . P80 ...
ROW BE : ... .. . ... ... ... : ... .. . ... ... ... : ... .. . ... : ... .. . ... : ... .. . ... ... : ... .. . ... ... : ... .. . ... ... : ... .. . P86 ...
ROW BF : ... .. . ... ... ... : ... .. 0 ... ... ... : ... .. . ... : ... .. 0 ... : ... .. . ... ... : ... .. . ... ... : ... .. . ... ... : ... .. . P89 ...
ROW C0 : G-1 00 F P81 ... ... : D-5 00 6 P80 ... ... : F#4 00 . ... : ... .. 4 ... : ... .. . ... ... : G-2 01 9 P80 ... : ... .. . ... ... : --- .. . P83 ...
ROW C1 : ... .. E ... ... ... : ... .. 4 ... ... ... : G#3 00 . ... : ... .. 3 ... : ... .. . ... ... : ... .. 8 ... ... : ... .. . ... ... : ... .. . ... ...
ROW C2 : ... .. D ... ... ... : ... .. 2 ... ... ... : C#3 00 . ... : ... .. 1 ... : ... .. . ... ... : ... .. . ... ... : ... .. . ... ... : ... .. . ... ...
ROW C3 : ... .. A ... ... ... : ... .. 1 ... ... ... : --- .. . ... : ... .. . ... : ... .. . ... ... : ... .. . ... ... : ... .. . ... ... : ... .. . ... ...
ROW C4 : ... .. . ... ... ... : ... .. . ... ... ... : ... .. . ... : ... .. . ... : ... .. . ... ... : ... .. 7 ... ... : ... .. . ... ... : ... .. . ... ...
ROW C5 : ... .. . ... ... ... : ... .. 0 ... ... ... : ... .. . ... : ... .. 0 ... : ... .. . ... ... : ... .. . ... ... : ... .. . ... ... : ... .. . ... ...
ROW C6 : F#1 00 F ... ... ... : D#5 00 6 P80 ... ... : F#2 00 . ... : ... .. 8 ... : ... .. . ... ... : F#2 01 9 ... ... : ... .. . ... ... : ... .. . ... ...
ROW C7 : ... .. E ... ... ... : ... .. 4 ... ... ... : ... .. . ... : ... .. 6 ... : ... .. . ... ... : ... .. 8 ... ... : ... .. . ... ... : ... .. . ... ...
ROW C8 : ... .. D ... ... ... : ... .. 2 ... ... ... : ... .. . ... : ... .. 3 ... : ... .. . ... ... : ... .. . ... ... : ... .. . ... ... : ... .. . ... ...
ROW C9 : ... .. A ... ... ... : ... .. 1 ... ... ... : --- .. . ... : ... .. 1 ... : ... .. . ... ... : ... .. . ... ... : ... .. . ... ... : ... .. . ... ...
ROW CA : ... .. . ... ... ... : ... .. . ... ... ... : ... .. . ... : ... .. . ... : ... .. . ... ... : ... .. 7 ... ... : ... .. . ... ... : ... .. . ... ...
ROW CB : ... .. . ... ... ... : ... .. 0 ... ... ... : ... .. . ... : ... .. 0 ... : ... .. . ... ... : ... .. . ... ... : ... .. . ... ... : ... .. . ... ...
ROW CC : G-1 00 F ... ... ... : D-5 00 6 P80 ... ... : G-2 00 . ... : ... .. F ... : ... .. . ... ... : G-2 01 9 ... ... : G-3 01 9 ... ... : G-1 01 F P89 ...
ROW CD : ... .. E ... ... ... : ... .. 4 ... ... ... : ... .. . ... : ... .. C ... : ... .. . ... ... : ... .. 8 ... ... : ... .. 8 ... ... : ... .. D P8E ...
ROW CE : ... .. D ... ... ... : ... .. 2 ... ... ... : ... .. . ... : ... .. 6 ... : ... .. . ... ... : ... .. . ... ... : ... .. . ... ... : ... .. 8 P8C ...
ROW CF : ... .. A ... ... ... : ... .. 1 ... ... ... : --- .. . ... : ... .. 3 ... : ... .. . ... ... : ... .. . ... ... : ... .. . ... ... : ... .. . P85 ...
ROW D0 : ... .. . ... ... ... : ... .. . ... ... ... : ... .. . ... : ... .. 2 ... : ... .. . ... ... : ... .. 7 ... ... : ... .. 7 ... ... : ... .. . P7E ...
ROW D1 : ... .. . ... ... ... : ... .. 0 ... ... ... : ... .. . ... : ... .. 0 ... : ... .. . ... ... : ... .. . ... ... : ... .. . ... ... : ... .. . P7C ...
ROW D2 : A-1 00 F ... ... ... : D#5 00 6 P80 ... ... : A-2 00 . ... : ... .. 4 ... : ... .. . ... ... : A-2 01 9 ... ... : --- .. . P81 ... : ... .. . P82 ...
ROW D3 : ... .. E ... ... ... : ... .. 4 ... ... ... : ... .. . ... : ... .. 3 ... : ... .. . ... ... : ... .. 8 ... ... : ... .. . ... ... : ... .. 4 P88 ...
ROW D4 : ... .. D ... ... ... : ... .. 2 ... ... ... : ... .. . ... : ... .. 1 ... : ... .. . ... ... : ... .. . ... ... : ... .. . ... ... : ... .. . P8E ...
ROW D5 : ... .. A ... ... ... : ... .. 1 ... ... ... : --- .. . ... : ... .. . ... : ... .. . ... ... : ... .. . ... ... : ... .. . ... ... : ... .. 1 P8C ...
ROW D6 : ... .. . ... ... ... : ... .. . ... ... ... : ... .. . ... : ... .. . ... : ... .. . ... ... : ... .. 7 ... ... : ... .. . ... ... : ... .. . P85 ...
ROW D7 : ... .. . ... ... ... : ... .. 0 ... ... ... : ... .. . ... : ... .. 0 ... : ... .. . ... ... : ... .. . ... ... : ... .. . ... ... : ... .. . P7E ...
ROW D8 : A#1 00 F ... ... ... : D-5 00 6 P80 ... ... : A-4 00 . ... : ... .. 2 ... : ... .. . ... ... : A#2 01 9 ... ... : A#3 01 9 P80 ... : A#1 01 F P7C ...
ROW D9 : ... .. E ... ... ... : ... .. 4 ... ... ... : B-3 00 . ... : ... .. 1 ... : ... .. . ... ... : ... .. 8 ... ... : ... .. 8 ... ... : ... .. D P81 ...
ROW DA : ... .. D ... ... ... : ... .. 2 ... ... ... : E-3 00 . ... : ... .. . ... : ... .. . ... ... : ... .. . ... ... : ... .. . ... ... : ... .. 8 P87 ...
ROW DB : ... .. A ... ... ... : ... .. 1 ... ... ... : D#3 00 . ... : ... .. . ... : ... .. . ... ... : ... .. . ... ... : ... .. . ... ... : ... .. . P8E ...
ROW DC : ... .. . ... ... ... : ... .. . ... ... ... : A#2 00 . ... : ... .. . ... : ... .. . ... ... : ... .. 7 ... ... : ... .. 7 ... ... : ... .. . P8D ...
ROW DD : ... .. . ... ... ... : ... .. 0 ... ... ... : ... .. . ... : ... .. 0 ... : ... .. . ... ... : ... .. . ... ... : ... .. . ... ... : ... .. . P85 ...
ROW DE : ... .. 0 ... ... ... : D#5 00 6 P80 ... ... : ... .. . ... : ... .. 4 ... : ... .. . ... ... : --- .. . P82 ... : ... .. . ... ... : ... .. . P7F ...
ROW DF : ... .. . ... ... ... : ... .. 4 ... ... ... : ... .. . ... : ... .. 3 ... : ... .. . ... ... : ... .. . ... ... : ... .. 6 ... ... : ... .. 4 P7C ...
ROW E0 : ... .. . ... ... ... : ... .. 2 ... ... ... : ... .. . ... : ... .. 1 ... : ... .. . ... ... : ... .. . ... ... : ... .. . ... ... : ... .. . P80 ...
ROW E1 : ... .. . ... ... ... : ... .. 1 ... ... ... : --- .. . ... : ... .. . ... : ... .. . ... ... : ... .. . ... ... : ... .. . ... ... : ... .. 1 P86 ...
ROW E2 : ... .. . ... ... ... : ... .. . ... ... ... : ... .. . ... : ... .. . ... : ... .. . ... ... : ... .. . ... ... : ... .. . ... ... : ... .. . P8D ...
ROW E3 : ... .. . ... ... ... : ... .. 0 ... ... ... : ... .. . ... : ... .. 0 ... : ... .. . ... ... : ... .. . ... ... : ... .. . ... ... : ... .. . ... ...
ROW E4 : D-1 00 F P81 ... ... : D-5 00 6 P80 ... ... : C#4 00 . ... : ... .. F ... : ... .. . ... ... : D-2 01 9 P80 ... : D-3 01 9 ... ... : D-1 01 F P86 ...
ROW E5 : ... .. E ... ... ... : ... .. 4 ... ... ... : D#3 00 . ... : ... .. C ... : ... .. . ... ... : ... .. 8 ... ... : ... .. 8 ... ... : ... .. D P80 ...
ROW E6 : ... .. D ... ... ... : ... .. 2 ... ... ... : G#2 00 . ... : ... .. 6 ... : ... .. . ... ... : ... .. . ... ... : ... .. . ... ... : ... .. 8 P7C ...
ROW E7 : ... .. A ... ... ... : ... .. 1 ... ... ... : G-2 00 . ... : ... .. 3 ... : ... .. . ... ... : ... .. . ... ... : ... .. . ... ... : ... .. . P7F ...
ROW E8 : ... .. . ... ... ... : ... .. . ... ... ... : D-2 00 . ... : ... .. 2 ... : ... .. . ... ... : ... .. 7 ... ... : ... .. 7 ... ... : ... .. . P85 ...
ROW E9 : ... .. . ... ... ... : ... .. 0 ... ... ... : ... .. . ... : ... .. 0 ... : ... .. . ... ... : ... .. . ... ... : ... .. . ... ... : ... .. . P8D ...
ROW EA : ... .. 0 ... ... ... : D#5 00 6 P80 ... ... : ... .. . ... : ... .. F ... : ... .. . ... ... : --- .. . P84 ... : --- .. . P82 ... : ... .. . P8E ...
ROW EB : ... .. . ... ... ... : ... .. 4 ... ... ... : ... .. . ... : ... .. C ... : ... .. . ... ... : ... .. . ... ... : ... .. . ... ... : ... .. . P87 ...
ROW EC : ... .. . ... ... ... : ... .. 2 ... ... ... : ... .. . ... : ... .. 6 ... : ... .. . ... ... : ... .. . ... ... : ... .. . ... ... : ... .. . P81 ...
ROW ED : ... .. . ... ... ... : ... .. 1 ... ... ... : --- .. . ... : ... .. 3 ... : ... .. . ... ... : ... .. . ... ... : ... .. . ... ... : ... .. . P7C ...
ROW EE : ... .. . ... ... ... : ... .. . ... ... ... : ... .. . ... : ... .. 2 ... : ... .. . ... ... : ... .. . ... ... : ... .. . ... ... : ... .. . P7E ...
ROW EF : ... .. . ... ... ... : ... .. 0 ... ... ... : ... .. . ... : ... .. 0 ... : ... .. . ... ... : ... .. . ... ... : ... .. . ... ... : ... .. . P85 ...
ROW F0 : A#1 00 F P81 ... ... : D-5 00 6 P80 ... ... : F#4 00 . ... : ... .. 2 ... : ... .. . ... ... : A#2 01 9 P80 ... : ... .. . ... ... : ... .. . P8C ...
ROW F1 : ... .. E ... ... ... : ... .. 4 ... ... ... : G#3 00 . ... : ... .. 1 ... : ... .. . ... ... : ... .. 8 ... ... : ... .. . ... ... : ... .. 4 P8E ...
ROW F2 : ... .. D ... ... ... : ... .. 2 ... ... ... : C#3 00 . ... : ... .. . ... : ... .. . ... ... : ... .. . ... ... : ... .. . ... ... : ... .. . P88 ...
ROW F3 : ... .. A ... ... ... : ... .. 1 ... ... ... : --- .. . ... : ... .. . ... : ... .. . ... ... : ... .. . ... ... : ... .. . ... ... : ... .. 1 P82 ...
ROW F4 : ... .. . ... ... ... : ... .. . ... ... ... : ... .. . ... : ... .. . ... : ... .. . ... ... : ... .. 7 ... ... : ... .. . ... ... : ... .. . P7C ...
ROW F5 : ... .. . ... ... ... : ... .. 0 ... ... ... : ... .. . ... : ... .. 0 ... : ... .. . ... ... : ... .. . ... ... : ... .. . ... ... : ... .. . P7E ...
ROW F6 : A-1 00 F ... ... ... : C#5 00 6 P80 ... ... : F#2 00 . ... : ... .. 4 ... : ... .. . ... ... : A-2 01 9 ... ... : ... .. . ... ... : ... .. . P85 ...
ROW F7 : ... .. E ... ... ... : ... .. 4 ... ... ... : ... .. . ... : ... .. 3 ... : ... .. . ... ... : ... .. 8 ... ... : ... .. . ... ... : ... .. . P8C ...
ROW F8 : ... .. D ... ... ... : ... .. 2 ... ... ... : ... .. . ... : ... .. 1 ... : ... .. . ... ... : ... .. . ... ... : ... .. . ... ... : ... .. . P8E ...
ROW F9 : ... .. A ... ... ... : ... .. 1 ... ... ... : --- .. . ... : ... .. . ... : ... .. . ... ... : ... .. . ... ... : ... .. . ... ... : ... .. . P89 ...
ROW FA : ... .. . ... ... ... : ... .. . ... ... ... : ... .. . ... : ... .. . ... : ... .. . ... ... : ... .. 7 ... ... : ... .. . ... ... : ... .. 0 P83 ...
ROW FB : ... .. . ... ... ... : ... .. 0 ... ... ... : ... .. . ... : ... .. 0 ... : ... .. . ... ... : ... .. . ... ... : ... .. . ... ... : ... .. . P7C ...
ROW FC : G-1 00 F ... ... ... : C-5 00 6 P80 ... ... : G-2 00 . ... : ... .. F ... : ... .. . ... ... : G-2 01 9 ... ... : G-3 01 9 P80 ... : G-1 01 F P7D ...
ROW FD : ... .. E ... ... ... : ... .. 4 ... ... ... : ... .. . ... : ... .. C ... : ... .. . ... ... : ... .. 8 ... ... : ... .. 8 ... ... : ... .. D P85 ...
ROW FE : ... .. D ... ... ... : ... .. 2 ... ... ... : ... .. . ... : ... .. 6 ... : ... .. . ... ... : ... .. . ... ... : ... .. . ... ... : ... .. 8 P8B ...
ROW FF : ... .. A ... ... ... : ... .. 1 ... ... ... : --- .. . ... : ... .. 3 ... : ... .. . ... ... : ... .. . ... ... : ... .. . ... ... : ... .. . P8E ...

PATTERN 19
ROW 00 : ... .. . ... ... ... : ... .. . ... ... ... : ... .. . ... : ... .. 2 ... : ... .. . ... ... : ... .. 7 ... ... : ... .. 7 ... ... : ... .. . P8A ...
ROW 01 : ... .. . ... ... ... : ... .. 0 ... ... ... : ... .. . ... : ... .. 0 ... : ... .. . ... ... : ... .. . ... ... : ... .. . ... ... : ... .. . P84 ...
ROW 02 : A-1 00 F ... ... ... : B-4 00 6 P80 ... ... : A-2 00 . ... : ... .. F ... : ... .. . ... ... : A-2 01 9 ... ... : --- .. . P81 ... : ... .. . P7D ...
ROW 03 : ... .. E ... ... ... : ... .. 4 ... ... ... : ... .. . ... : ... .. C ... : ... .. . ... ... : ... .. 8 ... ... : ... .. . ... ... : ... .. 4 ... ...
ROW 04 : ... .. D ... ... ... : ... .. 2 ... ... ... : ... .. . ... : ... .. 6 ... : ... .. . ... ... : ... .. . ... ... : ... .. . ... ... : ... .. . P84 ...
ROW 05 : ... .. A ... ... ... : ... .. 1 ... ... ... : --- .. . ... : ... .. 3 ... : ... .. . ... ... : ... .. . ... ... : ... .. . ... ... : ... .. 1 P8A ...
ROW 06 : ... .. . ... ... ... : ... .. . ... ... ... : ... .. . ... : ... .. 2 ... : ... .. . ... ... : ... .. 7 ... ... : ... .. . ... ... : ... .. . P8E ...
ROW 07 : ... .. . ... ... ... : ... .. 0 ... ... ... : ... .. . ... : ... .. 0 ... : ... .. . ... ... : ... .. . ... ... : ... .. . ... ... : ... .. . P8B ...
ROW 08 : A#1 00 F ... ... ... : A#4 00 6 P80 ... ... : A-4 00 . ... : ... .. 4 ... : ... .. . ... ... : A#2 01 9 ... ... : A#3 01 9 P80 ... : A#1 01 F P85 ...
ROW 09 : ... .. E ... ... ... : ... .. 4 ... ... ... : B-3 00 . ... : ... .. 3 ... : ... .. . ... ... : ... .. 8 ... ... : ... .. 8 ... ... : ... .. D P7D ...
ROW 0A : ... .. D ... ... ... : ... .. 2 ... ... ... : E-3 00 . ... : ... .. 1 ... : ... .. . ... ... : ... .. . ... ... : ... .. . ... ... : ... .. 8 P7C ...
ROW 0B : ... .. A ... ... ... : ... .. 1 ... ... ... : D#3 00 . ... : ... .. . ... : ... .. . ... ... : ... .. . ... ... : ... .. . ... ... : ... .. . P83 ...
ROW 0C : ... .. . ... ... ... : ... .. . ... ... ... : A#2 00 . ... : ... .. . ... : ... .. . ... ... : ... .. 7 ... ... : ... .. 7 ... ... : ... .. . P89 ...
ROW 0D : ... .. . ... ... ... : ... .. 0 ... ... ... : ... .. . ... : ... .. 0 ... : ... .. . ... ... : ... .. . ... ... : ... .. . ... ... : ... .. . P8E ...
ROW 0E : ... .. 0 ... ... ... : B-4 00 6 P80 ... ... : ... .. . ... : ... .. 8 ... : ... .. . ... ... : --- .. . P82 ... : ... .. . ... ... : ... .. . P8C ...
ROW 0F : ... .. . ... ... ... : ... .. 4 ... ... ... : ... .. . ... : ... .. 6 ... : ... .. . ... ... : ... .. . ... ... : ... .. 6 ... ... : ... .. 4 P85 ...
ROW 10 : ... .. . ... ... ... : ... .. 2 ... ... ... : ... .. . ... : ... .. 3 ... : ... .. . ... ... : ... .. . ... ... : ... .. . ... ... : ... .. . P7E ...
ROW 11 : ... .. . ... ... ... : ... .. 1 ... ... ... : --- .. . ... : ... .. 1 ... : ... .. . ... ... : ... .. . ... ... : ... .. . ... ... : ... .. 1 P7C ...
ROW 12 : ... .. . ... ... ... : ... .. . ... ... ... : ... .. . ... : ... .. . ... : ... .. . ... ... : ... .. . ... ... : ... .. . ... ... : ... .. . P82 ...
ROW 13 : ... .. . ... ... ... : ... .. 0 ... ... ... : ... .. . ... : ... .. 0 ... : ... .. . ... ... : ... .. . ... ... : ... .. . ... ... : ... .. . P88 ...
ROW 14 : D-1 00 F P81 ... ... : C-5 00 6 P80 ... ... : C#4 00 . ... : ... .. F ... : ... .. . ... ... : D-2 01 9 P80 ... : D-3 01 9 ... ... : D-1 01 F P8E ...
ROW 15 : ... .. E ... ... ... : ... .. 4 ... ... ... : D#3 00 . ... : ... .. C ... : ... .. . ... ... : ... .. 8 ... ... : ... .. 8 ... ... : ... .. D P8C ...
ROW 16 : ... .. D ... ... ... : ... .. 2 ... ... ... : G#2 00 . ... : ... .. 6 ... : ... .. . ... ... : ... .. . ... ... : ... .. . ... ... : ... .. 8 P85 ...
ROW 17 : ... .. A ... ... ... : ... .. 1 ... ... ... : G-2 00 . ... : ... .. 3 ... : ... .. . ... ... : ... .. . ... ... : ... .. . ... ... : ... .. . P7E ...
ROW 18 : ... .. . ... ... ... : ... .. . ... ... ... : D-2 00 . ... : ... .. 2 ... : ... .. . ... ... : ... .. 7 ... ... : ... .. 7 ... ... : ... .. . P7C ...
ROW 19 : ... .. . ... ... ... : ... .. 0 ... ... ... : ... .. . ... : ... .. 0 ... : ... .. . ... ... : ... .. . ... ... : ... .. . ... ... : ... .. . P81 ...
ROW 1A : ... .. . ... ... ... : C#5 00 6 P80 ... ... : ... .. . ... : ... .. 2 ... : ... .. . ... ... : --- .. . P84 ... : --- .. . P82 ... : ... .. . P87 ...
ROW 1B : ... .. . ... ... ... : ... .. 4 ... ... ... : ... .. . ... : ... .. 1 ... : ... .. . ... ... : ... .. . ... ... : ... .. . ... ... : ... .. . P8E ...
ROW 1C : ... .. . ... ... ... : ... .. 2 ... ... ... : ... .. . ... : ... .. . ... : ... .. . ... ... : ... .. . ... ... : ... .. . ... ... : ... .. . P8D ...
ROW 1D : ... .. 0 ... ... ... : ... .. 1 ... ... ... : --- .. . ... : ... .. . ... : ... .. . ... ... : ... .. . ... ... : ... .. . ... ... : ... .. . P85 ...
ROW 1E : ... .. . ... ... ... : ... .. . ... ... ... : ... .. . ... : ... .. . ... : ... .. . ... ... : ... .. . ... ... : ... .. . ... ... : ... .. . P7F ...
ROW 1F : ... .. . ... ... ... : ... .. 0 ... ... ... : ... .. . ... : ... .. 0 ... : ... .. . ... ... : ... .. . ... ... : ... .. . ... ... : ... .. . P7C ...
ROW 20 : G-1 00 D P81 ... ... : D-5 00 6 P80 ... ... : F#4 00 . ... : ... .. 4 ... : ... .. . ... ... : ... .. . ... ... : ... .. . ... ... : ... .. . P7B ...
ROW 21 : ... .. B ... ... ... : ... .. 4 ... ... ... : G#3 00 . ... : ... .. 3 ... : ... .. . ... ... : ... .. . ... ... : ... .. . ... ... : ... .. 4 P81 ...
ROW 22 : ... .. . ... ... ... : ... .. 2 ... ... ... : C#3 00 . ... : ... .. 1 ... : ... .. . ... ... : ... .. . ... ... : ... .. . ... ... : ... .. . P88 ...
ROW 23 : ... .. A ... ... ... : ... .. 1 ... ... ... : C-3 00 . ... : ... .. . ... : ... .. . ... ... : ... .. . ... ... : ... .. . ... ... : ... .. 1 ... ...
ROW 24 : ... .. 8 ... ... ... : ... .. . ... ... ... : G-2 00 . ... : ... .. . ... : ... .. . ... ... : ... .. . ... ... : ... .. . ... ... : ... .. . P81 ...
ROW 25 : ... .. 7 ... ... ... : ... .. 0 ... ... ... : ... .. . ... : ... .. 0 ... : ... .. . ... ... : ... .. . ... ... : ... .. . ... ... : ... .. . P7B ...
ROW 26 : ... .. 6 ... ... ... : D#5 00 6 P80 ... ... : ... .. . ... : ... .. 8 ... : ... .. . ... ... : ... .. . ... ... : ... .. . ... ... : ... .. . P77 ...
ROW 27 : ... .. . ... ... ... : ... .. 4 ... ... ... : ... .. . ... : ... .. 6 ... : ... .. . ... ... : ... .. . ... ... : ... .. . ... ... : ... .. . P7A ...
ROW 28 : ... .. 5 ... ... ... : ... .. 2 ... ... ... : ... .. . ... : ... .. 3 ... : ... .. . ... ... : ... .. . ... ... : ... .. . ... ... : ... .. . P80 ...
ROW 29 : ... .. . ... ... ... : ... .. 1 ... ... ... : ... .. . ... : ... .. 1 ... : ... .. . ... ... : ... .. . ... ... : ... .. . ... ... : ... .. . P88 ...
ROW 2A : ... .. 4 ... ... ... : ... .. . ... ... ... : ... .. . ... : ... .. . ... : ... .. . ... ... : ... .. . ... ... : ... .. . ... ... : ... .. 0 P89 ...
ROW 2B : ... .. . ... ... ... : ... .. 0 ... ... ... : ... .. . ... : ... .. 0 ... : ... .. . ... ... : ... .. . ... ... : ... .. . ... ... : ... .. . P82 ...
ROW 2C : D-2 00 D ... ... ... : D-5 00 6 P80 ... ... : ... .. . ... : ... .. F ... : ... .. . ... ... : G-3 01 9 P80 ... : A#3 01 9 P80 ... : D-3 01 F P7C ...
ROW 2D : ... .. B ... ... ... : ... .. 4 ... ... ... : ... .. . ... : ... .. C ... : ... .. . ... ... : ... .. 8 ... ... : ... .. 8 ... ... : ... .. D P77 ...
ROW 2E : ... .. . ... ... ... : ... .. 2 ... ... ... : ... .. . ... : ... .. 6 ... : ... .. . ... ... : ... .. . ... ... : ... .. . ... ... : ... .. 8 P79 ...
ROW 2F : ... .. 0 ... ... ... : ... .. 1 ... ... ... : --- .. . ... : ... .. 3 ... : ... .. . ... ... : ... .. . ... ... : ... .. . ... ... : ... .. . P80 ...
ROW 30 : ... .. . ... ... ... : ... .. . ... ... ... : ... .. . ... : ... .. 2 ... : ... .. . ... ... : ... .. 7 ... ... : ... .. 7 ... ... : ... .. . P87 ...
ROW 31 : ... .. . ... ... ... : ... .. 0 ... ... ... : ... .. . ... : ... .. 0 ... : ... .. . ... ... : ... .. . ... ... : ... .. . ... ... : ... .. . P89 ...
ROW 32 : D-2 00 D P81 ... ... : D#5 00 6 P80 ... ... : ... .. . ... : ... .. 4 ... : ... .. . ... ... : --- .. . P81 ... : --- .. . ... ... : --- .. . P83 ...
ROW 33 : ... .. B ... ... ... : ... .. 4 ... ... ... : ... .. . ... : ... .. 3 ... : ... .. . ... ... : ... .. . ... ... : ... .. . ... ... : ... .. . ... ...
ROW 34 : ... .. . ... ... ... : ... .. 2 ... ... ... : ... .. . ... : ... .. 1 ... : ... .. . ... ... : ... .. . ... ... : ... .. . ... ... : ... .. . ... ...
ROW 35 : ... .. 0 ... ... ... : ... .. 1 ... ... ... : ... .. . ... : ... .. . ... : ... .. . ... ... : ... .. . ... ... : ... .. . ... ... : ... .. . ... ...
ROW 36 : ... .. . ... ... ... : ... .. . ... ... ... : ... .. . ... : ... .. . ... : ... .. . ... ... : ... .. . ... ... : ... .. . ... ... : ... .. . ... ...
ROW 37 : ... .. . ... ... ... : ... .. 0 ... ... ... : ... .. . ... : ... .. 0 ... : ... .. . ... ... : ... .. . ... ... : ... .. . ... ... : ... .. . ... ...
ROW 38 : C#2 00 D P81 ... ... : D-5 00 6 P80 ... ... : C#4 00 . ... : ... .. 2 ... : ... .. . ... ... : ... .. . ... ... : ... .. . ... ... : C#3 01 F P89 ...
ROW 39 : ... .. B ... ... ... : ... .. 4 ... ... ... : D#3 00 . ... : ... .. 1 ... : ... .. . ... ... : ... .. . ... ... : ... .. . ... ... : ... .. D P84 ...
ROW 3A : ... .. . ... ... ... : ... .. 2 ... ... ... : G#2 00 . ... : ... .. . ... : ... .. . ... ... : ... .. . ... ... : ... .. . ... ... : ... .. 8 P7E ...
ROW 3B : ... .. A ... ... ... : ... .. 1 ... ... ... : G-2 00 . ... : ... .. . ... : ... .. . ... ... : ... .. . ... ... : ... .. . ... ... : ... .. . P77 ...
ROW 3C : ... .. 8 ... ... ... : ... .. . ... ... ... : D-2 00 . ... : ... .. . ... : ... .. . ... ... : ... .. . ... ... : ... .. . ... ... : ... .. . P78 ...
ROW 3D : ... .. 7 ... ... ... : ... .. 0 ... ... ... : ... .. . ... : ... .. 0 ... : ... .. . ... ... : ... .. . ... ... : ... .. . ... ... : ... .. . P80 ...
ROW 3E : ... .. D ... ... ... : D#5 00 6 P80 ... ... : ... .. . ... : ... .. 4 ... : ... .. . ... ... : ... .. . ... ... : ... .. . ... ... : ... .. . P86 ...
ROW 3F : ... .. B ... ... ... : ... .. 4 ... ... ... : ... .. . ... : ... .. 3 ... : ... .. . ... ... : ... .. . ... ... : ... .. . ... ... : ... .. . P89 ...
ROW 40 : ... .. . ... ... ... : ... .. 2 ... ... ... : ... .. . ... : ... .. 1 ... : ... .. . ... ... : ... .. . ... ... : ... .. . ... ... : ... .. . P85 ...
ROW 41 : ... .. A ... ... ... : ... .. 1 ... ... ... : ... .. . ... : ... .. . ... : ... .. . ... ... : ... .. . ... ... : ... .. . ... ... : ... .. . P7F ...
ROW 42 : ... .. 8 ... ... ... : ... .. . ... ... ... : ... .. . ... : ... .. . ... : ... .. . ... ... : ... .. . ... ... : ... .. . ... ... : ... .. . P78 ...
ROW 43 : ... .. 7 ... ... ... : ... .. 0 ... ... ... : ... .. . ... : ... .. 0 ... : ... .. . ... ... : ... .. . ... ... : ... .. . ... ... : ... .. . ... ...
ROW 44 : D-2 00 D ... ... ... : D-5 00 6 P80 ... ... : ... .. . ... : ... .. F ... : ... .. . ... ... : F#3 01 9 P80 ... : A#3 01 9 ... ... : D-3 01 F P7F ...
ROW 45 : ... .. B ... ... ... : ... .. 4 ... ... ... : ... .. . ... : ... .. C ... : ... .. . ... ... : ... .. 8 ... ... : ... .. 8 ... ... : ... .. D P85 ...
ROW 46 : ... .. . ... ... ... : ... .. 2 ... ... ... : ... .. . ... : ... .. 6 ... : ... .. . ... ... : ... .. . ... ... : ... .. . ... ... : ... .. 8 P89 ...
ROW 47 : ... .. 0 ... ... ... : ... .. 1 ... ... ... : --- .. . ... : ... .. 3 ... : ... .. . ... ... : ... .. . ... ... : ... .. . ... ... : ... .. . P86 ...
ROW 48 : ... .. . ... ... ... : ... .. . ... ... ... : ... .. . ... : ... .. 2 ... : ... .. . ... ... : ... .. 7 ... ... : ... .. 7 ... ... : ... .. . P80 ...
ROW 49 : ... .. . ... ... ... : ... .. 0 ... ... ... : ... .. . ... : ... .. 0 ... : ... .. . ... ... : ... .. . ... ... : ... .. . ... ... : ... .. . P78 ...
ROW 4A : D-2 00 D P81 ... ... : D#5 00 6 P80 ... ... : ... .. . ... : ... .. F ... : ... .. . ... ... : --- .. . P7F ... : --- .. . ... ... : --- .. . P7C ...
ROW 4B : ... .. B ... ... ... : ... .. 4 ... ... ... : ... .. . ... : ... .. C ... : ... .. . ... ... : ... .. . ... ... : ... .. . ... ... : ... .. . ... ...
ROW 4C : ... .. . ... ... ... : ... .. 2 ... ... ... : ... .. . ... : ... .. 6 ... : ... .. . ... ... : ... .. . ... ... : ... .. . ... ... : ... .. . ... ...
ROW 4D : ... .. 0 ... ... ... : ... .. 1 ... ... ... : ... .. . ... : ... .. 3 ... : ... .. . ... ... : ... .. . ... ... : ... .. . ... ... : ... .. . ... ...
ROW 4E : ... .. . ... ... ... : ... .. . ... ... ... : ... .. . ... : ... .. 2 ... : ... .. . ... ... : ... .. . ... ... : ... .. . ... ... : ... .. . ... ...
ROW 4F : ... .. . ... ... ... : ... .. 0 ... ... ... : ... .. . ... : ... .. 0 ... : ... .. . ... ... : ... .. . ... ... : ... .. . ... ... : ... .. . ... ...
ROW 50 : A#1 00 D P81 ... ... : D-5 00 6 P80 ... ... : A-4 00 . ... : ... .. 2 ... : ... .. . ... ... : ... .. . ... ... : ... .. . ... ... : D#3 01 F P79 ...
ROW 51 : ... .. B ... ... ... : ... .. 4 ... ... ... : B-3 00 . ... : ... .. 1 ... : ... .. . ... ... : ... .. . ... ... : ... .. . ... ... : ... .. D P77 ...
ROW 52 : ... .. . ... ... ... : ... .. 2 ... ... ... : E-3 00 . ... : ... .. . ... : ... .. . ... ... : ... .. . ... ... : ... .. . ... ... : ... .. 8 P7D ...
ROW 53 : ... .. A ... ... ... : ... .. 1 ... ... ... : D#3 00 . ... : ... .. . ... : ... .. . ... ... : ... .. . ... ... : ... .. . ... ... : ... .. . P83 ...
ROW 54 : ... .. 8 ... ... ... : ... .. . ... ... ... : A#2 00 . ... : ... .. . ... : ... .. . ... ... : ... .. . ... ... : ... .. . ... ... : ... .. . P89 ...
ROW 55 : ... .. 7 ... ... ... : ... .. 0 ... ... ... : ... .. . ... : ... .. 0 ... : ... .. . ... ... : ... .. . ... ... : ... .. . ... ... : ... .. . P87 ...
ROW 56 : ... .. D ... ... ... : D#5 00 6 P80 ... ... : ... .. . ... : ... .. 4 ... : ... .. . ... ... : ... .. . ... ... : ... .. . ... ... : ... .. . P80 ...
ROW 57 : ... .. B ... ... ... : ... .. 4 ... ... ... : ... .. . ... : ... .. 3 ... : ... .. . ... ... : ... .. . ... ... : ... .. . ... ... : ... .. . P79 ...
ROW 58 : ... .. . ... ... ... : ... .. 2 ... ... ... : ... .. . ... : ... .. 1 ... : ... .. . ... ... : ... .. . ... ... : ... .. . ... ... : ... .. . P77 ...
ROW 59 : ... .. A ... ... ... : ... .. 1 ... ... ... : ... .. . ... : ... .. . ... : ... .. . ... ... : ... .. . ... ... : ... .. . ... ... : ... .. . P7C ...
ROW 5A : ... .. 8 ... ... ... : ... .. . ... ... ... : ... .. . ... : ... .. . ... : ... .. . ... ... : ... .. . ... ... : ... .. . ... ... : ... .. . P82 ...
ROW 5B : ... .. 7 ... ... ... : ... .. 0 ... ... ... : ... .. . ... : ... .. 0 ... : ... .. . ... ... : ... .. . ... ... : ... .. . ... ... : ... .. . P89 ...
ROW 5C : D-2 00 D ... ... ... : E-5 00 6 P80 ... ... : ... .. . ... : ... .. F ... : ... .. . ... ... : F-3 01 9 P80 ... : A#3 01 9 ... ... : D-3 01 F P88 ...
ROW 5D : ... .. B ... ... ... : ... .. 4 ... ... ... : ... .. . ... : ... .. C ... : ... .. . ... ... : ... .. 8 ... ... : ... .. 8 ... ... : ... .. D P80 ...
ROW 5E : ... .. . ... ... ... : ... .. 2 ... ... ... : ... .. . ... : ... .. 6 ... : ... .. . ... ... : ... .. . ... ... : ... .. . ... ... : ... .. 8 P7A ...
ROW 5F : ... .. 0 ... ... ... : ... .. 1 ... ... ... : --- .. . ... : ... .. 3 ... : ... .. . ... ... : ... .. . ... ... : ... .. . ... ... : ... .. . P77 ...
ROW 60 : ... .. . ... ... ... : ... .. . ... ... ... : ... .. . ... : ... .. 2 ... : ... .. . ... ... : ... .. 7 ... ... : ... .. 7 ... ... : ... .. . P7B ...
ROW 61 : ... .. . ... ... ... : ... .. 0 ... ... ... : ... .. . ... : ... .. 0 ... : ... .. . ... ... : ... .. . ... ... : ... .. . ... ... : ... .. . P81 ...
ROW 62 : D-2 00 D P81 ... ... : F-5 00 6 P80 ... ... : ... .. . ... : ... .. F ... : ... .. . ... ... : --- .. . ... ... : --- .. . ... ... : --- .. . P85 ...
ROW 63 : ... .. B ... ... ... : ... .. 4 ... ... ... : ... .. . ... : ... .. C ... : ... .. . ... ... : ... .. . ... ... : ... .. . ... ... : ... .. . ... ...
ROW 64 : ... .. . ... ... ... : ... .. 2 ... ... ... : ... .. . ... : ... .. 6 ... : ... .. . ... ... : ... .. . ... ... : ... .. . ... ... : ... .. . ... ...
ROW 65 : ... .. 0 ... ... ... : ... .. 1 ... ... ... : ... .. . ... : ... .. 3 ... : ... .. . ... ... : ... .. . ... ... : ... .. . ... ... : ... .. . ... ...
ROW 66 : ... .. . ... ... ... : ... .. . ... ... ... : ... .. . ... : ... .. 2 ... : ... .. . ... ... : ... .. . ... ... : ... .. . ... ... : ... .. . ... ...
ROW 67 : ... .. . ... ... ... : ... .. 0 ... ... ... : ... .. . ... : ... .. 0 ... : ... .. . ... ... : ... .. . ... ... : ... .. . ... ... : ... .. . ... ...
ROW 68 : D#2 00 D P81 ... ... : F#5 00 6 P80 ... ... : G#4 00 . ... : ... .. 4 ... : ... .. . ... ... : ... .. . ... ... : ... .. . ... ... : C#3 01 F P80 ...
ROW 69 : ... .. B ... ... ... : ... .. 4 ... ... ... : A#3 00 . ... : ... .. 3 ... : ... .. . ... ... : ... .. . ... ... : ... .. . ... ... : ... .. D P88 ...
ROW 6A : ... .. . ... ... ... : ... .. 2 ... ... ... : D#3 00 . ... : ... .. 1 ... : ... .. . ... ... : ... .. . ... ... : ... .. . ... ... : ... .. 8 P89 ...
ROW 6B : ... .. A ... ... ... : ... .. 1 ... ... ... : D-3 00 . ... : ... .. . ... : ... .. . ... ... : ... .. . ... ... : ... .. . ... ... : ... .. . P82 ...
ROW 6C : ... .. 8 ... ... ... : ... .. . ... ... ... : A-2 00 . ... : ... .. . ... : ... .. . ... ... : ... .. . ... ... : ... .. . ... ... : ... .. . P7C ...
ROW 6D : ... .. 7 ... ... ... : ... .. 0 ... ... ... : ... .. . ... : ... .. 0 ... : ... .. . ... ... : ... .. . ... ... : ... .. . ... ... : ... .. . P77 ...
ROW 6E : D-2 00 D ... ... ... : F-5 00 6 P80 ... ... : ... .. . ... : ... .. 8 ... : ... .. . ... ... : ... .. . ... ... : ... .. . ... ... : ... .. . P79 ...
ROW 6F : ... .. B ... ... ... : ... .. 4 ... ... ... : ... .. . ... : ... .. 6 ... : ... .. . ... ... : ... .. . ... ... : ... .. . ... ... : ... .. . P80 ...
ROW 70 : ... .. . ... ... ... : ... .. 2 ... ... ... : ... .. . ... : ... .. 3 ... : ... .. . ... ... : ... .. . ... ... : ... .. . ... ... : ... .. . P87 ...
ROW 71 : ... .. A ... ... ... : ... .. 1 ... ... ... : ... .. . ... : ... .. 1 ... : ... .. . ... ... : ... .. . ... ... : ... .. . ... ... : ... .. . P89 ...
ROW 72 : ... .. 8 ... ... ... : ... .. . ... ... ... : ... .. . ... : ... .. . ... : ... .. . ... ... : ... .. . ... ... : ... .. . ... ... : ... .. . P83 ...
ROW 73 : ... .. 7 ... ... ... : ... .. 0 ... ... ... : ... .. . ... : ... .. 0 ... : ... .. . ... ... : ... .. . ... ... : ... .. . ... ... : ... .. . P7D ...
ROW 74 : A#1 00 D ... ... ... : E-5 00 6 P80 ... ... : ... .. . ... : ... .. F ... : ... .. . ... ... : E-3 01 9 ... ... : A#3 01 9 ... ... : D-3 01 F P77 ...
ROW 75 : ... .. B ... ... ... : ... .. 4 ... ... ... : ... .. . ... : ... .. C ... : ... .. . ... ... : ... .. 8 ... ... : ... .. 8 ... ... : ... .. D P79 ...
ROW 76 : ... .. . ... ... ... : ... .. 2 ... ... ... : ... .. . ... : ... .. 6 ... : ... .. . ... ... : ... .. . ... ... : ... .. . ... ... : ... .. 8 P80 ...
ROW 77 : ... .. 0 ... ... ... : ... .. 1 ... ... ... : --- .. . ... : ... .. 3 ... : ... .. . ... ... : ... .. . ... ... : ... .. . ... ... : ... .. . P87 ...
ROW 78 : ... .. . ... ... ... : ... .. . ... ... ... : ... .. . ... : ... .. 2 ... : ... .. . ... ... : ... .. 7 ... ... : ... .. 7 ... ... : ... .. . P89 ...
ROW 79 : ... .. . ... ... ... : ... .. 0 ... ... ... : ... .. . ... : ... .. 0 ... : ... .. . ... ... : ... .. . ... ... : ... .. . ... ... : ... .. . P84 ...
ROW 7A : A-1 00 D P81 ... ... : D#5 00 6 P80 ... ... : ... .. . ... : ... .. 2 ... : ... .. . ... ... : --- .. . P82 ... : --- .. . ... ... : ... .. . P7E ...
ROW 7B : ... .. B ... ... ... : ... .. 4 ... ... ... : ... .. . ... : ... .. 1 ... : ... .. . ... ... : ... .. . ... ... : ... .. . ... ... : ... .. . P77 ...
ROW 7C : ... .. . ... ... ... : ... .. 2 ... ... ... : ... .. . ... : ... .. . ... : ... .. . ... ... : ... .. . ... ... : ... .. . ... ... : ... .. . P78 ...
ROW 7D : ... .. 0 ... ... ... : ... .. 1 ... ... ... : ... .. . ... : ... .. . ... : ... .. . ... ... : ... .. . ... ... : ... .. . ... ... : ... .. . P80 ...
ROW 7E : ... .. . ... ... ... : ... .. . ... ... ... : ... .. . ... : ... .. . ... : ... .. . ... ... : ... .. . ... ... : ... .. . ... ... : ... .. . P86 ...
ROW 7F : ... .. . ... ... ... : ... .. 0 ... ... ... : ... .. . ... : ... .. 0 ... : ... .. . ... ... : ... .. . ... ... : ... .. . ... ... : ... .. . P89 ...
ROW 80 : G-1 00 D P81 ... ... : D-5 00 6 P80 ... ... : F#3 00 . ... : B-# 00 D ... : ... .. . ... ... : D#3 01 9 P80 ... : ... .. . ... ... : A-3 01 F P85 ...
ROW 81 : ... .. B ... ... ... : ... .. 4 ... ... ... : G#2 00 . ... : ... .. B ... : ... .. . ... ... : ... .. 8 ... ... : ... .. . ... ... : ... .. D P7F ...
ROW 82 : ... .. . ... ... ... : ... .. 2 ... ... ... : C#2 00 . ... : ... .. . ... : ... .. . ... ... : ... .. . ... ... : ... .. . ... ... : ... .. 8 P78 ...
ROW 83 : ... .. A ... ... ... : ... .. 1 ... ... ... : C-2 00 . ... : ... .. A ... : ... .. . ... ... : ... .. . ... ... : ... .. . ... ... : ... .. . ... ...
ROW 84 : ... .. 8 ... ... ... : ... .. . ... ... ... : G-1 00 . ... : ... .. 8 ... : ... .. . ... ... : ... .. 7 ... ... : ... .. . ... ... : ... .. . P7F ...
ROW 85 : ... .. 7 ... ... ... : ... .. 0 ... ... ... : ... .. . ... : ... .. 7 ... : ... .. . ... ... : ... .. . ... ... : ... .. . ... ... : ... .. . P85 ...
ROW 86 : ... .. 6 ... ... ... : D#5 00 6 P80 ... ... : ... .. . ... : ... .. 6 ... : ... .. . ... ... : D-3 01 9 ... ... : ... .. . ... ... : A#3 01 8 P78 ...
ROW 87 : ... .. . ... ... ... : ... .. 4 ... ... ... : ... .. . ... : ... .. . ... : ... .. . ... ... : ... .. 8 ... ... : ... .. . ... ... : A-3 01 8 P86 ...
ROW 88 : ... .. 5 ... ... ... : ... .. 2 ... ... ... : ... .. . ... : ... .. 5 ... : ... .. . ... ... : ... .. . ... ... : ... .. . ... ... : ... .. . P80 ...
ROW 89 : ... .. . ... ... ... : ... .. 1 ... ... ... : ... .. . ... : ... .. . ... : ... .. . ... ... : ... .. . ... ... : ... .. . ... ... : ... .. . P78 ...
ROW 8A : ... .. 4 ... ... ... : ... .. . ... ... ... : ... .. . ... : ... .. 4 ... : ... .. . ... ... : ... .. 7 ... ... : ... .. . ... ... : G#3 01 8 P88 ...
ROW 8B : ... .. . ... ... ... : ... .. 0 ... ... ... : ... .. . ... : ... .. . ... : ... .. . ... ... : ... .. . ... ... : ... .. . ... ... : A-3 01 8 P7E ...
ROW 8C : F#2 00 D ... ... ... : D-5 00 6 P80 ... ... : A#3 00 . ... : C-# 00 3 ... : ... .. . ... ... : C#3 01 9 ... ... : ... .. . ... ... : ... .. . P84 ...
ROW 8D : ... .. B ... ... ... : ... .. 4 ... ... ... : ... .. . ... : ... .. 2 ... : ... .. . ... ... : ... .. 8 ... ... : ... .. . ... ... : A#3 01 8 P78 ...
ROW 8E : ... .. . ... ... ... : ... .. 2 ... ... ... : ... .. . ... : ... .. . ... : ... .. . ... ... : ... .. . ... ... : ... .. . ... ... : A-3 01 8 P87 ...
ROW 8F : ... .. A ... ... ... : ... .. 1 ... ... ... : ... .. . ... : ... .. . ... : ... .. . ... ... : ... .. . ... ... : ... .. . ... ... : ... .. . P80 ...
ROW 90 : ... .. 8 ... ... ... : ... .. . ... ... ... : ... .. . ... : ... .. . ... : ... .. . ... ... : ... .. 7 ... ... : ... .. . ... ... : ... .. . P79 ...
ROW 91 : ... .. 7 ... ... ... : ... .. 0 ... ... ... : ... .. . ... : ... .. 1 ... : ... .. . ... ... : ... .. . ... ... : ... .. . ... ... : G#3 01 8 P88 ...
ROW 92 : G-2 00 D ... ... ... : D#5 00 6 P80 ... ... : ... .. . ... : ... .. . ... : ... .. . ... ... : D#3 01 9 ... ... : ... .. . ... ... : G-3 01 F P7D ...
ROW 93 : ... .. B ... ... ... : ... .. 4 ... ... ... : ... .. . ... : ... .. . ... : ... .. . ... ... : ... .. 8 ... ... : ... .. . ... ... : ... .. D P83 ...
ROW 94 : ... .. . ... ... ... : ... .. 2 ... ... ... : ... .. . ... : ... .. . ... : ... .. . ... ... : ... .. . ... ... : ... .. . ... ... : ... .. 8 P89 ...
ROW 95 : ... .. 0 ... ... ... : ... .. 1 ... ... ... : ... .. . ... : ... .. . ... : ... .. . ... ... : ... .. . ... ... : ... .. . ... ... : --- .. . P80 ...
ROW 96 : ... .. . ... ... ... : ... .. . ... ... ... : ... .. . ... : ... .. . ... : ... .. . ... ... : ... .. 7 ... ... : ... .. . ... ... : ... .. . ... ...
ROW 97 : ... .. . ... ... ... : ... .. 0 ... ... ... : ... .. . ... : ... .. . ... : ... .. . ... ... : ... .. . ... ... : ... .. . ... ... : ... .. . ... ...
ROW 98 : G-2 00 D P81 ... ... : D-5 00 6 P80 ... ... : F#3 00 . ... : B-# 00 D ... : ... .. . ... ... : D-3 01 9 ... ... : ... .. . ... ... : F#3 01 F P77 ...
ROW 99 : ... .. B ... ... ... : ... .. 4 ... ... ... : G#2 00 . ... : ... .. B ... : ... .. . ... ... : ... .. 8 ... ... : ... .. . ... ... : ... .. D P7C ...
ROW 9A : ... .. . ... ... ... : ... .. 2 ... ... ... : C#2 00 . ... : ... .. . ... : ... .. . ... ... : ... .. . ... ... : ... .. . ... ... : ... .. 8 P82 ...
ROW 9B : ... .. A ... ... ... : ... .. 1 ... ... ... : C-2 00 . ... : ... .. A ... : ... .. . ... ... : ... .. . ... ... : ... .. . ... ... : ... .. . P89 ...
ROW 9C : ... .. 8 ... ... ... : ... .. . ... ... ... : G-1 00 . ... : ... .. 8 ... : ... .. . ... ... : ... .. 7 ... ... : ... .. . ... ... : ... .. . P88 ...
ROW 9D : ... .. 7 ... ... ... : ... .. 0 ... ... ... : ... .. . ... : ... .. 7 ... : ... .. . ... ... : ... .. . ... ... : ... .. . ... ... : ... .. . P80 ...
ROW 9E : ... .. D ... ... ... : D#5 00 6 P80 ... ... : ... .. . ... : ... .. 6 ... : ... .. . ... ... : ... .. . ... ... : ... .. . ... ... : ... .. . P7A ...
ROW 9F : ... .. B ... ... ... : ... .. 4 ... ... ... : ... .. . ... : ... .. . ... : ... .. . ... ... : ... .. 6 ... ... : ... .. . ... ... : ... .. . P77 ...
ROW A0 : ... .. . ... ... ... : ... .. 2 ... ... ... : ... .. . ... : ... .. 5 ... : ... .. . ... ... : ... .. . ... ... : ... .. . ... ... : ... .. . P7B ...
ROW A1 : ... .. 0 ... ... ... : ... .. 1 ... ... ... : ... .. . ... : ... .. . ... : ... .. . ... ... : ... .. . ... ... : ... .. . ... ... : ... .. . P81 ...
ROW A2 : ... .. . ... ... ... : ... .. . ... ... ... : ... .. . ... : ... .. 4 ... : ... .. . ... ... : ... .. . ... ... : ... .. . ... ... : ... .. . P88 ...
ROW A3 : ... .. . ... ... ... : ... .. 0 ... ... ... : ... .. . ... : ... .. . ... : ... .. . ... ... : ... .. . ... ... : ... .. . ... ... : ... .. . ... ...
ROW A4 : G-2 00 D P81 ... ... : D-5 00 6 P80 ... ... : A#3 00 . ... : C-# 00 3 ... : ... .. . ... ... : A#2 01 9 ... ... : ... .. . ... ... : G-3 01 F P81 ...
ROW A5 : ... .. B ... ... ... : ... .. 4 ... ... ... : ... .. . ... : ... .. 2 ... : ... .. . ... ... : ... .. 8 ... ... : ... .. . ... ... : ... .. D P7B ...
ROW A6 : ... .. . ... ... ... : ... .. 2 ... ... ... : ... .. . ... : ... .. . ... : ... .. . ... ... : ... .. . ... ... : ... .. . ... ... : ... .. 8 P77 ...
ROW A7 : ... .. 0 ... ... ... : ... .. 1 ... ... ... : ... .. . ... : ... .. . ... : ... .. . ... ... : ... .. . ... ... : ... .. . ... ... : ... .. . P7A ...
ROW A8 : ... .. . ... ... ... : ... .. . ... ... ... : ... .. . ... : ... .. . ... : ... .. . ... ... : ... .. 7 ... ... : ... .. . ... ... : ... .. . P80 ...
ROW A9 : ... .. . ... ... ... : ... .. 0 ... ... ... : ... .. . ... : ... .. 1 ... : ... .. . ... ... : ... .. . ... ... : ... .. . ... ... : ... .. . P88 ...
ROW AA : G-2 00 D P81 ... ... : D#5 00 6 P80 ... ... : ... .. . ... : ... .. . ... : ... .. . ... ... : ... .. . ... ... : ... .. . ... ... : --- .. . P7F ...
ROW AB : ... .. B ... ... ... : ... .. 4 ... ... ... : ... .. . ... : ... .. . ... : ... .. . ... ... : ... .. 6 ... ... : ... .. . ... ... : ... .. . ... ...
ROW AC : ... .. . ... ... ... : ... .. 2 ... ... ... : ... .. . ... : ... .. . ... : ... .. . ... ... : ... .. . ... ... : ... .. . ... ... : ... .. . ... ...
ROW AD : ... .. 0 ... ... ... : ... .. 1 ... ... ... : ... .. . ... : ... .. . ... : ... .. . ... ... : ... .. . ... ... : ... .. . ... ... : ... .. . ... ...
ROW AE : ... .. . ... ... ... : ... .. . ... ... ... : ... .. . ... : ... .. . ... : ... .. . ... ... : ... .. . ... ... : ... .. . ... ... : ... .. . ... ...
ROW AF : ... .. . ... ... ... : ... .. 0 ... ... ... : ... .. . ... : ... .. . ... : ... .. . ... ... : ... .. . ... ... : ... .. . ... ... : ... .. . ... ...
ROW B0 : G#2 00 D P81 ... ... : D-5 00 6 P80 ... ... : F#3 00 . ... : B-# 00 D ... : ... .. . ... ... : G#3 01 9 ... ... : ... .. . ... ... : D#3 01 F P87 ...
ROW B1 : ... .. B ... ... ... : ... .. 4 ... ... ... : G#2 00 . ... : ... .. B ... : ... .. . ... ... : ... .. 8 ... ... : ... .. . ... ... : ... .. D P89 ...
ROW B2 : ... .. . ... ... ... : ... .. 2 ... ... ... : C#2 00 . ... : ... .. . ... : ... .. . ... ... : ... .. . ... ... : ... .. . ... ... : ... .. 8 P83 ...
ROW B3 : ... .. A ... ... ... : ... .. 1 ... ... ... : C-2 00 . ... : ... .. A ... : ... .. . ... ... : ... .. . ... ... : ... .. . ... ... : ... .. . P7D ...
ROW B4 : ... .. 8 ... ... ... : ... .. . ... ... ... : G-1 00 . ... : ... .. 8 ... : ... .. . ... ... : ... .. 7 ... ... : ... .. . ... ... : ... .. . P77 ...
ROW B5 : ... .. 7 ... ... ... : ... .. 0 ... ... ... : ... .. . ... : ... .. 7 ... : ... .. . ... ... : ... .. . ... ... : ... .. . ... ... : ... .. . P79 ...
ROW B6 : G-2 00 D ... ... ... : C#5 00 6 P80 ... ... : ... .. . ... : ... .. 6 ... : ... .. . ... ... : G-3 01 9 ... ... : ... .. . ... ... : ... .. . P80 ...
ROW B7 : ... .. B ... ... ... : ... .. 4 ... ... ... : ... .. . ... : ... .. . ... : ... .. . ... ... : ... .. 8 ... ... : ... .. . ... ... : ... .. . P87 ...
ROW B8 : ... .. . ... ... ... : ... .. 2 ... ... ... : ... .. . ... : ... .. 5 ... : ... .. . ... ... : ... .. . ... ... : ... .. . ... ... : ... .. . P89 ...
ROW B9 : ... .. 0 ... ... ... : ... .. 1 ... ... ... : ... .. . ... : ... .. . ... : ... .. . ... ... : --- .. . P81 ... : ... .. . ... ... : ... .. . P84 ...
ROW BA : ... .. . ... ... ... : ... .. . ... ... ... : ... .. . ... : ... .. 4 ... : ... .. . ... ... : ... .. . ... ... : ... .. . ... ... : ... .. . P7E ...
ROW BB : ... .. . ... ... ... : ... .. 0 ... ... ... : ... .. . ... : ... .. . ... : ... .. . ... ... : ... .. . ... ... : ... .. . ... ... : ... .. . P77 ...
ROW BC : G-2 00 D P81 ... ... : C-5 00 6 P80 ... ... : D-4 00 . ... : C-# 00 3 ... : ... .. . ... ... : G-3 01 9 P80 ... : ... .. . ... ... : D-3 01 F P78 ...
ROW BD : ... .. B ... ... ... : ... .. 4 ... ... ... : ... .. . ... : ... .. 2 ... : ... .. . ... ... : ... .. 8 ... ... : ... .. . ... ... : ... .. D P80 ...
ROW BE : ... .. . ... ... ... : ... .. 2 ... ... ... : ... .. . ... : ... .. . ... : ... .. . ... ... : ... .. . ... ... : ... .. . ... ... : ... .. 8 P86 ...
ROW BF : ... .. 0 ... ... ... : ... .. 1 ... ... ... : ... .. . ... : ... .. . ... : ... .. . ... ... : --- .. . P81 ... : ... .. . ... ... : ... .. . P89 ...
ROW C0 : ... .. . ... ... ... : ... .. . ... ... ... : ... .. . ... : ... .. . ... : ... .. . ... ... : ... .. . ... ... : ... .. . ... ... : ... .. . P85 ...
ROW C1 : ... .. . ... ... ... : ... .. 0 ... ... ... : ... .. . ... : ... .. 1 ... : ... .. . ... ... : ... .. . ... ... : ... .. . ... ... : ... .. . P7F ...
ROW C2 : G-2 00 D P81 ... ... : B-4 00 6 P80 ... ... : ... .. . ... : ... .. 3 ... : ... .. . ... ... : G-3 01 9 P80 ... : ... .. . ... ... : --- .. . P83 ...
ROW C3 : ... .. B ... ... ... : ... .. 4 ... ... ... : ... .. . ... : ... .. 2 ... : ... .. . ... ... : ... .. 8 ... ... : ... .. . ... ... : ... .. . ... ...
ROW C4 : ... .. . ... ... ... : ... .. 2 ... ... ... : ... .. . ... : ... .. . ... : ... .. . ... ... : ... .. . ... ... : ... .. . ... ... : ... .. . ... ...
ROW C5 : ... .. 0 ... ... ... : ... .. 1 ... ... ... : ... .. . ... : ... .. . ... : ... .. . ... ... : --- .. . P81 ... : ... .. . ... ... : ... .. . ... ...
ROW C6 : ... .. . ... ... ... : ... .. . ... ... ... : ... .. . ... : ... .. . ... : ... .. . ... ... : ... .. . ... ... : ... .. . ... ... : ... .. . ... ...
ROW C7 : ... .. . ... ... ... : ... .. 0 ... ... ... : ... .. . ... : ... .. 1 ... : ... .. . ... ... : ... .. . ... ... : ... .. . ... ... : ... .. . ... ...
ROW C8 : F#2 00 D P81 ... ... : A#4 00 6 P80 ... ... : F#3 00 . ... : B-# 00 D ... : ... .. . ... ... : F#3 01 9 P80 ... : ... .. . ... ... : A#2 01 F P80 ...
ROW C9 : ... .. B ... ... ... : ... .. 4 ... ... ... : G#2 00 . ... : ... .. B ... : ... .. . ... ... : ... .. 8 ... ... : ... .. . ... ... : ... .. D P78 ...
ROW CA : ... .. . ... ... ... : ... .. 2 ... ... ... : C#2 00 . ... : ... .. . ... : ... .. . ... ... : ... .. . ... ... : ... .. . ... ... : ... .. 8 P77 ...
ROW CB : ... .. A ... ... ... : ... .. 1 ... ... ... : C-2 00 . ... : ... .. A ... : ... .. . ... ... : ... .. . ... ... : ... .. . ... ... : ... .. . P7E ...
ROW CC : ... .. 8 ... ... ... : ... .. . ... ... ... : G-1 00 . ... : ... .. 8 ... : ... .. . ... ... : ... .. 7 ... ... : ... .. . ... ... : ... .. . P84 ...
ROW CD : ... .. 7 ... ... ... : ... .. 0 ... ... ... : ... .. . ... : ... .. 7 ... : ... .. . ... ... : ... .. . ... ... : ... .. . ... ... : ... .. . P89 ...
ROW CE : G-2 00 D ... ... ... : A-4 00 6 P80 ... ... : ... .. . ... : ... .. 6 ... : ... .. . ... ... : G-3 01 9 ... ... : ... .. . ... ... : ... .. . P87 ...
ROW CF : ... .. B ... ... ... : ... .. 4 ... ... ... : ... .. . ... : ... .. . ... : ... .. . ... ... : ... .. 8 ... ... : ... .. . ... ... : ... .. . P80 ...
ROW D0 : ... .. . ... ... ... : ... .. 2 ... ... ... : ... .. . ... : ... .. 5 ... : ... .. . ... ... : ... .. . ... ... : ... .. . ... ... : ... .. . P79 ...
ROW D1 : ... .. 0 ... ... ... : ... .. 1 ... ... ... : ... .. . ... : ... .. . ... : ... .. . ... ... : --- .. . P81 ... : ... .. . ... ... : ... .. . P70 ...
ROW D2 : ... .. . ... ... ... : ... .. . ... ... ... : ... .. . ... : ... .. 4 ... : ... .. . ... ... : ... .. . ... ... : ... .. . ... ... : ... .. . P7A ...
ROW D3 : ... .. . ... ... ... : ... .. 0 ... ... ... : ... .. . ... : ... .. . ... : ... .. . ... ... : ... .. . ... ... : ... .. . ... ... : ... .. . P86 ...
ROW D4 : G-2 00 D P81 ... ... : G#4 00 6 P80 ... ... : D-4 00 . ... : 3-# 00 D ... : ... .. . ... ... : G-3 01 9 P80 ... : ... .. . ... ... : B-2 01 8 P72 ...
ROW D5 : ... .. B ... ... ... : ... .. 4 ... ... ... : ... .. . ... : ... .. B ... : ... .. . ... ... : ... .. 8 ... ... : ... .. . ... ... : A#2 01 8 P8D ...
ROW D6 : ... .. . ... ... ... : ... .. 2 ... ... ... : ... .. . ... : ... .. . ... : ... .. . ... ... : ... .. . ... ... : ... .. . ... ... : ... .. . P80 ...
ROW D7 : ... .. 0 ... ... ... : ... .. 1 ... ... ... : ... .. . ... : ... .. A ... : ... .. . ... ... : --- .. . P81 ... : ... .. . ... ... : ... .. . P74 ...
ROW D8 : ... .. . ... ... ... : ... .. . ... ... ... : ... .. . ... : ... .. 8 ... : ... .. . ... ... : ... .. . ... ... : ... .. . ... ... : ... .. . P70 ...
ROW D9 : ... .. . ... ... ... : ... .. 0 ... ... ... : ... .. . ... : ... .. 7 ... : ... .. . ... ... : ... .. . ... ... : ... .. . ... ... : ... .. . P78 ...
ROW DA : G-2 00 D P81 ... ... : G-4 00 6 P80 ... ... : ... .. . ... : ... .. 6 ... : ... .. . ... ... : G-3 01 9 P80 ... : ... .. . ... ... : ... .. . P84 ...
ROW DB : ... .. B ... ... ... : ... .. 4 ... ... ... : ... .. . ... : ... .. . ... : ... .. . ... ... : ... .. 8 ... ... : ... .. . ... ... : ... .. . P8F ...
ROW DC : ... .. . ... ... ... : ... .. 2 ... ... ... : ... .. . ... : ... .. 5 ... : ... .. . ... ... : ... .. . ... ... : ... .. . ... ... : ... .. . P8E ...
ROW DD : ... .. 0 ... ... ... : ... .. 1 ... ... ... : ... .. . ... : ... .. . ... : ... .. . ... ... : ... .. . ... ... : ... .. . ... ... : ... .. . P80 ...
ROW DE : ... .. . ... ... ... : ... .. . ... ... ... : ... .. . ... : ... .. 4 ... : ... .. . ... ... : ... .. 7 ... ... : ... .. . ... ... : ... .. . ... ...
ROW DF : ... .. . ... ... ... : ... .. 0 ... ... ... : ... .. . ... : ... .. . ... : ... .. . ... ... : ... .. . ... ... : ... .. . ... ... : ... .. . ... ...
ROW E0 : A#1 00 D P81 ... ... : F-5 00 6 P80 ... ... : A-4 00 . ... : C-# 00 4 ... : ... .. . ... ... : --- .. . P81 ... : ... .. . ... ... : --- .. . ... ...
ROW E1 : ... .. B ... ... ... : ... .. 4 ... ... ... : B-3 00 . ... : ... .. 3 ... : ... .. . ... ... : ... .. . ... ... : ... .. . ... ... : ... .. . ... ...
ROW E2 : ... .. . ... ... ... : ... .. 2 ... ... ... : E-3 00 . ... : ... .. 1 ... : ... .. . ... ... : ... .. . ... ... : ... .. . ... ... : ... .. . ... ...
ROW E3 : ... .. A ... ... ... : ... .. 1 ... ... ... : D#3 00 . ... : ... .. . ... : ... .. . ... ... : ... .. . ... ... : ... .. . ... ... : ... .. . ... ...
ROW E4 : ... .. 8 ... ... ... : ... .. . ... ... ... : A#2 00 . ... : ... .. . ... : ... .. . ... ... : ... .. . ... ... : ... .. . ... ... : ... .. . ... ...
ROW E5 : ... .. 7 ... ... ... : ... .. 0 ... ... ... : ... .. . ... : ... .. 0 ... : ... .. . ... ... : ... .. . ... ... : ... .. . ... ... : ... .. . ... ...
ROW E6 : ... .. 6 ... ... ... : F#5 00 6 P80 ... ... : ... .. . ... : ... .. 8 ... : ... .. . ... ... : ... .. . ... ... : ... .. . ... ... : ... .. . ... ...
ROW E7 : ... .. . ... ... ... : ... .. 4 ... ... ... : ... .. . ... : ... .. 6 ... : ... .. . ... ... : ... .. . ... ... : ... .. . ... ... : ... .. . ... ...
ROW E8 : ... .. 5 ... ... ... : ... .. 2 ... ... ... : ... .. . ... : ... .. 3 ... : ... .. . ... ... : ... .. . ... ... : ... .. . ... ... : ... .. . ... ...
ROW E9 : ... .. . ... ... ... : ... .. 1 ... ... ... : ... .. . ... : ... .. 1 ... : ... .. . ... ... : ... .. . ... ... : ... .. . ... ... : ... .. . ... ...
ROW EA : ... .. 4 ... ... ... : ... .. . ... ... ... : ... .. . ... : ... .. . ... : ... .. . ... ... : ... .. . ... ... : ... .. . ... ... : ... .. . ... ...
ROW EB : ... .. . ... ... ... : ... .. 0 ... ... ... : ... .. . ... : ... .. 0 ... : ... .. . ... ... : ... .. . ... ... : ... .. . ... ... : ... .. . ... ...
ROW EC : F-2 00 D ... ... ... : F-5 00 6 P80 ... ... : ... .. . ... : ... .. F ... : ... .. . ... ... : F-3 01 9 P80 ... : C#4 01 9 ... ... : F-3 01 F P87 ...
ROW ED : ... .. B ... ... ... : ... .. 4 ... ... ... : ... .. . ... : ... .. C ... : ... .. . ... ... : ... .. 8 ... ... : ... .. 8 ... ... : ... .. D P89 ...
ROW EE : ... .. . ... ... ... : ... .. 2 ... ... ... : ... .. . ... : ... .. 6 ... : ... .. . ... ... : ... .. . ... ... : ... .. . ... ... : ... .. 8 P83 ...
ROW EF : ... .. 0 ... ... ... : ... .. 1 ... ... ... : ... .. . ... : ... .. 3 ... : ... .. . ... ... : ... .. . ... ... : ... .. . ... ... : ... .. . P7D ...
ROW F0 : ... .. . ... ... ... : ... .. . ... ... ... : ... .. . ... : ... .. 2 ... : ... .. . ... ... : ... .. 7 ... ... : ... .. 7 ... ... : ... .. . P77 ...
ROW F1 : ... .. . ... ... ... : ... .. 0 ... ... ... : ... .. . ... : ... .. 0 ... : ... .. . ... ... : ... .. . ... ... : ... .. . ... ... : ... .. . P79 ...
ROW F2 : F-2 00 D P81 ... ... : F#5 00 6 P80 ... ... : --- .. . ... : ... .. 4 ... : ... .. . ... ... : --- .. . ... ... : --- .. . ... ... : --- .. . P7E ...
ROW F3 : ... .. B ... ... ... : ... .. 4 ... ... ... : ... .. . ... : ... .. 3 ... : ... .. . ... ... : ... .. . ... ... : ... .. . ... ... : ... .. . ... ...
ROW F4 : ... .. . ... ... ... : ... .. 2 ... ... ... : ... .. . ... : ... .. 1 ... : ... .. . ... ... : ... .. . ... ... : ... .. . ... ... : ... .. . ... ...
ROW F5 : ... .. 0 ... ... ... : ... .. 1 ... ... ... : ... .. . ... : ... .. . ... : ... .. . ... ... : ... .. . ... ... : ... .. . ... ... : ... .. . ... ...
ROW F6 : ... .. . ... ... ... : ... .. . ... ... ... : ... .. . ... : ... .. . ... : ... .. . ... ... : ... .. . ... ... : ... .. . ... ... : ... .. . ... ...
ROW F7 : ... .. . ... ... ... : ... .. 0 ... ... ... : ... .. . ... : ... .. 0 ... : ... .. . ... ... : ... .. . ... ... : ... .. . ... ... : ... .. . ... ...
ROW F8 : E-2 00 D P81 ... ... : F-5 00 6 P80 ... ... : E-4 00 . ... : ... .. 2 ... : ... .. . ... ... : ... .. . ... ... : ... .. . ... ... : E-3 01 F P78 ...
ROW F9 : ... .. B ... ... ... : ... .. 4 ... ... ... : F#3 00 . ... : ... .. 1 ... : ... .. . ... ... : ... .. . ... ... : ... .. . ... ... : ... .. D P80 ...
ROW FA : ... .. . ... ... ... : ... .. 2 ... ... ... : B-2 00 . ... : ... .. . ... : ... .. . ... ... : ... .. . ... ... : ... .. . ... ... : ... .. 8 P86 ...
ROW FB : ... .. A ... ... ... : ... .. 1 ... ... ... : A#2 00 . ... : ... .. . ... : ... .. . ... ... : ... .. . ... ... : ... .. . ... ... : ... .. . P89 ...
ROW FC : ... .. 8 ... ... ... : ... .. . ... ... ... : F-2 00 . ... : ... .. . ... : ... .. . ... ... : ... .. . ... ... : ... .. . ... ... : ... .. . P85 ...
ROW FD : ... .. 7 ... ... ... : ... .. 0 ... ... ... : ... .. . ... : ... .. 0 ... : ... .. . ... ... : ... .. . ... ... : ... .. . ... ... : ... .. . P7F ...
ROW FE : ... .. D ... ... ... : F#5 00 6 P80 ... ... : ... .. . ... : ... .. 4 ... : ... .. . ... ... : ... .. . ... ... : ... .. . ... ... : ... .. . P78 ...
ROW FF : ... .. B ... ... ... : ... .. 4 ... ... ... : ... .. . ... : ... .. 3 ... : ... .. . ... ... : ... .. . ... ... : ... .. . ... ... : ... .. . ... ...

PATTERN 1A
ROW 00 : ... .. . ... ... ... : ... .. 2 ... ... ... : ... .. . ... : ... .. 1 ... : ... .. . ... ... : ... .. . ... ... : ... .. . ... ... : ... .. . P7F ...
ROW 01 : ... .. A ... ... ... : ... .. 1 ... ... ... : ... .. . ... : ... .. . ... : ... .. . ... ... : ... .. . ... ... : ... .. . ... ... : ... .. . P85 ...
ROW 02 : ... .. 8 ... ... ... : ... .. . ... ... ... : ... .. . ... : ... .. . ... : ... .. . ... ... : ... .. . ... ... : ... .. . ... ... : ... .. . P89 ...
ROW 03 : ... .. 7 ... ... ... : ... .. 0 ... ... ... : ... .. . ... : ... .. 0 ... : ... .. . ... ... : ... .. . ... ... : ... .. . ... ... : ... .. . P86 ...
ROW 04 : F-2 00 D ... ... ... : F-5 00 6 P80 ... ... : ... .. . ... : ... .. F ... : ... .. . ... ... : E-3 01 9 ... ... : C#4 01 9 ... ... : F-3 01 F P80 ...
ROW 05 : ... .. B ... ... ... : ... .. 4 ... ... ... : ... .. . ... : ... .. C ... : ... .. . ... ... : ... .. 8 ... ... : ... .. 8 ... ... : ... .. D P78 ...
ROW 06 : ... .. . ... ... ... : ... .. 2 ... ... ... : ... .. . ... : ... .. 6 ... : ... .. . ... ... : ... .. . ... ... : ... .. . ... ... : ... .. 8 P77 ...
ROW 07 : ... .. 0 ... ... ... : ... .. 1 ... ... ... : ... .. . ... : ... .. 3 ... : ... .. . ... ... : ... .. . ... ... : ... .. . ... ... : ... .. . P7E ...
ROW 08 : ... .. . ... ... ... : ... .. . ... ... ... : ... .. . ... : ... .. 2 ... : ... .. . ... ... : ... .. 7 ... ... : ... .. 7 ... ... : ... .. . P84 ...
ROW 09 : ... .. . ... ... ... : ... .. 0 ... ... ... : ... .. . ... : ... .. 0 ... : ... .. . ... ... : ... .. . ... ... : ... .. . ... ... : ... .. . P89 ...
ROW 0A : F-2 00 D P81 ... ... : F#5 00 6 P80 ... ... : --- .. . ... : ... .. F ... : ... .. . ... ... : --- .. . P82 ... : --- .. . ... ... : --- .. . P82 ...
ROW 0B : ... .. B ... ... ... : ... .. 4 ... ... ... : ... .. . ... : ... .. C ... : ... .. . ... ... : ... .. . ... ... : ... .. . ... ... : ... .. . ... ...
ROW 0C : ... .. . ... ... ... : ... .. 2 ... ... ... : ... .. . ... : ... .. 6 ... : ... .. . ... ... : ... .. . ... ... : ... .. . ... ... : ... .. . ... ...
ROW 0D : ... .. 0 ... ... ... : ... .. 1 ... ... ... : ... .. . ... : ... .. 3 ... : ... .. . ... ... : ... .. . ... ... : ... .. . ... ... : ... .. . ... ...
ROW 0E : ... .. . ... ... ... : ... .. . ... ... ... : ... .. . ... : ... .. 2 ... : ... .. . ... ... : ... .. . ... ... : ... .. . ... ... : ... .. . ... ...
ROW 0F : ... .. . ... ... ... : ... .. 0 ... ... ... : ... .. . ... : ... .. 0 ... : ... .. . ... ... : ... .. . ... ... : ... .. . ... ... : ... .. . ... ...
ROW 10 : C#2 00 D P81 ... ... : F-5 00 6 P80 ... ... : C-5 00 . ... : ... .. 2 ... : ... .. . ... ... : ... .. . ... ... : ... .. . ... ... : F#3 01 F P89 ...
ROW 11 : ... .. B ... ... ... : ... .. 4 ... ... ... : D-4 00 . ... : ... .. 1 ... : ... .. . ... ... : ... .. . ... ... : ... .. . ... ... : ... .. D P87 ...
ROW 12 : ... .. . ... ... ... : ... .. 2 ... ... ... : G-3 00 . ... : ... .. . ... : ... .. . ... ... : ... .. . ... ... : ... .. . ... ... : ... .. 8 P80 ...
ROW 13 : ... .. A ... ... ... : ... .. 1 ... ... ... : F#3 00 . ... : ... .. . ... : ... .. . ... ... : ... .. . ... ... : ... .. . ... ... : ... .. . P79 ...
ROW 14 : ... .. 8 ... ... ... : ... .. . ... ... ... : C#3 00 . ... : ... .. . ... : ... .. . ... ... : ... .. . ... ... : ... .. . ... ... : ... .. . P77 ...
ROW 15 : ... .. 7 ... ... ... : ... .. 0 ... ... ... : ... .. . ... : ... .. 0 ... : ... .. . ... ... : ... .. . ... ... : ... .. . ... ... : ... .. . P7C ...
ROW 16 : ... .. D ... ... ... : F#5 00 6 P80 ... ... : ... .. . ... : ... .. 4 ... : ... .. . ... ... : ... .. . ... ... : ... .. . ... ... : ... .. . P82 ...
ROW 17 : ... .. B ... ... ... : ... .. 4 ... ... ... : ... .. . ... : ... .. 3 ... : ... .. . ... ... : ... .. . ... ... : ... .. . ... ... : ... .. . P89 ...
ROW 18 : ... .. . ... ... ... : ... .. 2 ... ... ... : ... .. . ... : ... .. 1 ... : ... .. . ... ... : ... .. . ... ... : ... .. . ... ... : ... .. . P88 ...
ROW 19 : ... .. A ... ... ... : ... .. 1 ... ... ... : ... .. . ... : ... .. . ... : ... .. . ... ... : ... .. . ... ... : ... .. . ... ... : ... .. . P80 ...
ROW 1A : ... .. 8 ... ... ... : ... .. . ... ... ... : ... .. . ... : ... .. . ... : ... .. . ... ... : ... .. . ... ... : ... .. . ... ... : ... .. . P7A ...
ROW 1B : ... .. 7 ... ... ... : ... .. 0 ... ... ... : ... .. . ... : ... .. 0 ... : ... .. . ... ... : ... .. . ... ... : ... .. . ... ... : ... .. . P77 ...
ROW 1C : E-2 00 D ... ... ... : G-5 00 6 P80 ... ... : ... .. . ... : ... .. F ... : ... .. . ... ... : F-3 01 9 P80 ... : C#4 01 9 ... ... : F-3 01 F P7B ...
ROW 1D : ... .. B ... ... ... : ... .. 4 ... ... ... : ... .. . ... : ... .. C ... : ... .. . ... ... : ... .. 8 ... ... : ... .. 8 ... ... : ... .. D P81 ...
ROW 1E : ... .. . ... ... ... : ... .. 2 ... ... ... : ... .. . ... : ... .. 6 ... : ... .. . ... ... : ... .. . ... ... : ... .. . ... ... : ... .. 8 P88 ...
ROW 1F : ... .. 0 ... ... ... : ... .. 1 ... ... ... : ... .. . ... : ... .. 3 ... : ... .. . ... ... : ... .. . ... ... : ... .. . ... ... : ... .. . ... ...
ROW 20 : ... .. . ... ... ... : ... .. . ... ... ... : ... .. . ... : ... .. 2 ... : ... .. . ... ... : ... .. 7 ... ... : ... .. 7 ... ... : ... .. . P81 ...
ROW 21 : ... .. . ... ... ... : ... .. 0 ... ... ... : ... .. . ... : ... .. 0 ... : ... .. . ... ... : ... .. . ... ... : ... .. . ... ... : ... .. . P7B ...
ROW 22 : E-2 00 D P81 ... ... : G#5 00 6 P80 ... ... : --- .. . ... : ... .. F ... : ... .. . ... ... : --- .. . ... ... : --- .. . ... ... : --- .. . P80 ...
ROW 23 : ... .. B ... ... ... : ... .. 4 ... ... ... : ... .. . ... : ... .. C ... : ... .. . ... ... : ... .. . ... ... : ... .. . ... ... : ... .. . ... ...
ROW 24 : ... .. . ... ... ... : ... .. 2 ... ... ... : ... .. . ... : ... .. 6 ... : ... .. . ... ... : ... .. . ... ... : ... .. . ... ... : ... .. . ... ...
ROW 25 : ... .. 0 ... ... ... : ... .. 1 ... ... ... : ... .. . ... : ... .. 3 ... : ... .. . ... ... : ... .. . ... ... : ... .. . ... ... : ... .. . ... ...
ROW 26 : ... .. . ... ... ... : ... .. . ... ... ... : ... .. . ... : ... .. 2 ... : ... .. . ... ... : ... .. . ... ... : ... .. . ... ... : ... .. . ... ...
ROW 27 : ... .. . ... ... ... : ... .. 0 ... ... ... : ... .. . ... : ... .. 0 ... : ... .. . ... ... : ... .. . ... ... : ... .. . ... ... : ... .. . ... ...
ROW 28 : C-2 00 D P81 ... ... : A-5 00 6 P80 ... ... : B-4 00 . ... : ... .. 4 ... : ... .. . ... ... : ... .. . ... ... : ... .. . ... ... : E-3 01 F P7C ...
ROW 29 : ... .. B ... ... ... : ... .. 4 ... ... ... : C#4 00 . ... : ... .. 3 ... : ... .. . ... ... : ... .. . ... ... : ... .. . ... ... : ... .. D P77 ...
ROW 2A : ... .. . ... ... ... : ... .. 2 ... ... ... : F#3 00 . ... : ... .. 1 ... : ... .. . ... ... : ... .. . ... ... : ... .. . ... ... : ... .. 8 P79 ...
ROW 2B : ... .. A ... ... ... : ... .. 1 ... ... ... : F-3 00 . ... : ... .. . ... : ... .. . ... ... : ... .. . ... ... : ... .. . ... ... : ... .. . P80 ...
ROW 2C : ... .. 8 ... ... ... : ... .. . ... ... ... : C-3 00 . ... : ... .. . ... : ... .. . ... ... : ... .. . ... ... : ... .. . ... ... : ... .. . P87 ...
ROW 2D : ... .. 7 ... ... ... : ... .. 0 ... ... ... : ... .. . ... : ... .. 0 ... : ... .. . ... ... : ... .. . ... ... : ... .. . ... ... : ... .. . P89 ...
ROW 2E : ... .. D ... ... ... : G#5 00 6 P80 ... ... : ... .. . ... : ... .. 8 ... : ... .. . ... ... : ... .. . ... ... : ... .. . ... ... : ... .. . P83 ...
ROW 2F : ... .. B ... ... ... : ... .. 4 ... ... ... : ... .. . ... : ... .. 6 ... : ... .. . ... ... : ... .. . ... ... : ... .. . ... ... : ... .. . P7D ...
ROW 30 : ... .. . ... ... ... : ... .. 2 ... ... ... : ... .. . ... : ... .. 3 ... : ... .. . ... ... : ... .. . ... ... : ... .. . ... ... : ... .. . P77 ...
ROW 31 : ... .. A ... ... ... : ... .. 1 ... ... ... : ... .. . ... : ... .. 1 ... : ... .. . ... ... : ... .. . ... ... : ... .. . ... ... : ... .. . P79 ...
ROW 32 : ... .. 8 ... ... ... : ... .. . ... ... ... : ... .. . ... : ... .. . ... : ... .. . ... ... : ... .. . ... ... : ... .. . ... ... : ... .. . P80 ...
ROW 33 : ... .. 7 ... ... ... : ... .. 0 ... ... ... : ... .. . ... : ... .. 0 ... : ... .. . ... ... : ... .. . ... ... : ... .. . ... ... : ... .. . P87 ...
ROW 34 : E-2 00 D ... ... ... : G-5 00 6 P80 ... ... : ... .. . ... : ... .. F ... : ... .. . ... ... : E-3 01 9 ... ... : C-4 01 9 ... ... : F-3 01 F P89 ...
ROW 35 : ... .. B ... ... ... : ... .. 4 ... ... ... : ... .. . ... : ... .. C ... : ... .. . ... ... : ... .. 8 ... ... : ... .. 8 ... ... : ... .. D P84 ...
ROW 36 : ... .. . ... ... ... : ... .. 2 ... ... ... : ... .. . ... : ... .. 6 ... : ... .. . ... ... : ... .. . ... ... : ... .. . ... ... : ... .. 8 P7E ...
ROW 37 : ... .. 0 ... ... ... : ... .. 1 ... ... ... : ... .. . ... : ... .. 3 ... : ... .. . ... ... : ... .. . ... ... : ... .. . ... ... : ... .. . P77 ...
ROW 38 : ... .. . ... ... ... : ... .. . ... ... ... : ... .. . ... : ... .. 2 ... : ... .. . ... ... : ... .. 7 ... ... : ... .. 7 ... ... : ... .. . P78 ...
ROW 39 : ... .. . ... ... ... : ... .. 0 ... ... ... : ... .. . ... : ... .. 0 ... : ... .. . ... ... : ... .. . ... ... : ... .. . ... ... : ... .. . P80 ...
ROW 3A : F-2 00 D P81 ... ... : F#5 00 6 P80 ... ... : --- .. . ... : ... .. 2 ... : ... .. . ... ... : --- .. . P82 ... : --- .. . ... ... : ... .. . P86 ...
ROW 3B : ... .. B ... ... ... : ... .. 4 ... ... ... : ... .. . ... : ... .. 1 ... : ... .. . ... ... : ... .. . ... ... : ... .. . ... ... : ... .. . P89 ...
ROW 3C : ... .. . ... ... ... : ... .. 2 ... ... ... : ... .. . ... : ... .. . ... : ... .. . ... ... : ... .. . ... ... : ... .. . ... ... : ... .. . P85 ...
ROW 3D : ... .. 0 ... ... ... : ... .. 1 ... ... ... : ... .. . ... : ... .. . ... : ... .. . ... ... : ... .. . ... ... : ... .. . ... ... : ... .. . P7F ...
ROW 3E : ... .. . ... ... ... : ... .. . ... ... ... : ... .. . ... : ... .. . ... : ... .. . ... ... : ... .. . ... ... : ... .. . ... ... : ... .. . P78 ...
ROW 3F : ... .. . ... ... ... : ... .. 0 ... ... ... : ... .. . ... : ... .. 0 ... : ... .. . ... ... : ... .. . ... ... : ... .. . ... ... : ... .. . ... ...
ROW 40 : A#1 00 F P81 ... ... : F-5 00 6 P80 ... ... : A-4 00 . ... : ... .. 4 ... : ... .. . ... ... : A#2 01 9 P80 ... : ... .. . ... ... : --- .. . P7D ...
ROW 41 : ... .. E ... ... ... : ... .. 4 ... ... ... : B-3 00 . ... : ... .. 3 ... : ... .. . ... ... : ... .. 8 ... ... : ... .. . ... ... : ... .. . ... ...
ROW 42 : ... .. D ... ... ... : ... .. 2 ... ... ... : E-3 00 . ... : ... .. 1 ... : ... .. . ... ... : ... .. . ... ... : ... .. . ... ... : ... .. . ... ...
ROW 43 : ... .. A ... ... ... : ... .. 1 ... ... ... : --- .. . ... : ... .. . ... : ... .. . ... ... : ... .. . ... ... : ... .. . ... ... : ... .. . ... ...
ROW 44 : ... .. . ... ... ... : ... .. . ... ... ... : ... .. . ... : ... .. . ... : ... .. . ... ... : ... .. 7 ... ... : ... .. . ... ... : ... .. . ... ...
ROW 45 : ... .. . ... ... ... : ... .. 0 ... ... ... : ... .. . ... : ... .. 0 ... : ... .. . ... ... : ... .. . ... ... : ... .. . ... ... : ... .. . ... ...
ROW 46 : A-1 00 F ... ... ... : F#5 00 6 P80 ... ... : A-2 00 . ... : ... .. 8 ... : ... .. . ... ... : A-2 01 9 ... ... : ... .. . ... ... : ... .. . ... ...
ROW 47 : ... .. E ... ... ... : ... .. 4 ... ... ... : ... .. . ... : ... .. 6 ... : ... .. . ... ... : ... .. 8 ... ... : ... .. . ... ... : ... .. . ... ...
ROW 48 : ... .. D ... ... ... : ... .. 2 ... ... ... : ... .. . ... : ... .. 3 ... : ... .. . ... ... : ... .. . ... ... : ... .. . ... ... : ... .. . ... ...
ROW 49 : ... .. A ... ... ... : ... .. 1 ... ... ... : --- .. . ... : ... .. 1 ... : ... .. . ... ... : ... .. . ... ... : ... .. . ... ... : ... .. . ... ...
ROW 4A : ... .. . ... ... ... : ... .. . ... ... ... : ... .. . ... : ... .. . ... : ... .. . ... ... : ... .. 7 ... ... : ... .. . ... ... : ... .. . ... ...
ROW 4B : ... .. . ... ... ... : ... .. 0 ... ... ... : ... .. . ... : ... .. 0 ... : ... .. . ... ... : ... .. . ... ... : ... .. . ... ... : ... .. . ... ...
ROW 4C : A#1 00 F ... ... ... : F-5 00 6 P80 ... ... : A#2 00 . ... : ... .. F ... : ... .. . ... ... : A#2 01 9 ... ... : A#3 01 9 ... ... : A#1 01 F P7E ...
ROW 4D : ... .. E ... ... ... : ... .. 4 ... ... ... : ... .. . ... : ... .. C ... : ... .. . ... ... : ... .. 8 ... ... : ... .. 8 ... ... : ... .. D P7C ...
ROW 4E : ... .. D ... ... ... : ... .. 2 ... ... ... : ... .. . ... : ... .. 6 ... : ... .. . ... ... : ... .. . ... ... : ... .. . ... ... : ... .. 8 P82 ...
ROW 4F : ... .. A ... ... ... : ... .. 1 ... ... ... : --- .. . ... : ... .. 3 ... : ... .. . ... ... : ... .. . ... ... : ... .. . ... ... : ... .. . P88 ...
ROW 50 : ... .. . ... ... ... : ... .. . ... ... ... : ... .. . ... : ... .. 2 ... : ... .. . ... ... : ... .. 7 ... ... : ... .. 7 ... ... : ... .. . P8E ...
ROW 51 : ... .. . ... ... ... : ... .. 0 ... ... ... : ... .. . ... : ... .. 0 ... : ... .. . ... ... : ... .. . ... ... : ... .. . ... ... : ... .. . P8C ...
ROW 52 : C-2 00 F ... ... ... : F#5 00 6 P80 ... ... : C-3 00 . ... : ... .. 4 ... : ... .. . ... ... : C-3 01 9 ... ... : --- .. . ... ... : ... .. . P85 ...
ROW 53 : ... .. E ... ... ... : ... .. 4 ... ... ... : ... .. . ... : ... .. 3 ... : ... .. . ... ... : ... .. 8 ... ... : ... .. . ... ... : ... .. 4 P7E ...
ROW 54 : ... .. D ... ... ... : ... .. 2 ... ... ... : ... .. . ... : ... .. 1 ... : ... .. . ... ... : ... .. . ... ... : ... .. . ... ... : ... .. . P7C ...
ROW 55 : ... .. A ... ... ... : ... .. 1 ... ... ... : --- .. . ... : ... .. . ... : ... .. . ... ... : ... .. . ... ... : ... .. . ... ... : ... .. 1 P81 ...
ROW 56 : ... .. . ... ... ... : ... .. . ... ... ... : ... .. . ... : ... .. . ... : ... .. . ... ... : ... .. 7 ... ... : ... .. . ... ... : ... .. . P87 ...
ROW 57 : ... .. . ... ... ... : ... .. 0 ... ... ... : ... .. . ... : ... .. 0 ... : ... .. . ... ... : ... .. . ... ... : ... .. . ... ... : ... .. . P8E ...
ROW 58 : C#2 00 F ... ... ... : F-5 00 6 P80 ... ... : C-5 00 . ... : ... .. 2 ... : ... .. . ... ... : C#3 01 9 ... ... : C#4 01 9 ... ... : C#2 01 F P8D ...
ROW 59 : ... .. E ... ... ... : ... .. 4 ... ... ... : D-4 00 . ... : ... .. 1 ... : ... .. . ... ... : ... .. 8 ... ... : ... .. 8 ... ... : ... .. D P85 ...
ROW 5A : ... .. D ... ... ... : ... .. 2 ... ... ... : G-3 00 . ... : ... .. . ... : ... .. . ... ... : ... .. . ... ... : ... .. . ... ... : ... .. 8 P7F ...
ROW 5B : ... .. A ... ... ... : ... .. 1 ... ... ... : F#3 00 . ... : ... .. . ... : ... .. . ... ... : ... .. . ... ... : ... .. . ... ... : ... .. . P7C ...
ROW 5C : ... .. . ... ... ... : ... .. . ... ... ... : C#3 00 . ... : ... .. . ... : ... .. . ... ... : ... .. 7 ... ... : ... .. 7 ... ... : ... .. . P80 ...
ROW 5D : ... .. . ... ... ... : ... .. 0 ... ... ... : ... .. . ... : ... .. 0 ... : ... .. . ... ... : ... .. . ... ... : ... .. . ... ... : ... .. . P86 ...
ROW 5E : ... .. 0 ... ... ... : F#5 00 6 P80 ... ... : ... .. . ... : ... .. 4 ... : ... .. . ... ... : --- .. . P83 ... : ... .. . ... ... : ... .. . P8D ...
ROW 5F : ... .. . ... ... ... : ... .. 4 ... ... ... : ... .. . ... : ... .. 3 ... : ... .. . ... ... : ... .. . ... ... : ... .. 6 ... ... : ... .. 4 ... ...
ROW 60 : ... .. . ... ... ... : ... .. 2 ... ... ... : ... .. . ... : ... .. 1 ... : ... .. . ... ... : ... .. . ... ... : ... .. . ... ... : ... .. . P86 ...
ROW 61 : ... .. . ... ... ... : ... .. 1 ... ... ... : --- .. . ... : ... .. . ... : ... .. . ... ... : ... .. . ... ... : ... .. . ... ... : ... .. 1 P80 ...
ROW 62 : ... .. . ... ... ... : ... .. . ... ... ... : ... .. . ... : ... .. . ... : ... .. . ... ... : ... .. . ... ... : ... .. . ... ... : ... .. . P7C ...
ROW 63 : ... .. . ... ... ... : ... .. 0 ... ... ... : ... .. . ... : ... .. 0 ... : ... .. . ... ... : ... .. . ... ... : ... .. . ... ... : ... .. . P7F ...
ROW 64 : F-1 00 F P81 ... ... : F-5 00 6 P80 ... ... : E-4 00 . ... : ... .. F ... : ... .. . ... ... : F-2 01 9 P80 ... : F-3 01 9 ... ... : F-1 01 F P85 ...
ROW 65 : ... .. E ... ... ... : ... .. 4 ... ... ... : F#3 00 . ... : ... .. C ... : ... .. . ... ... : ... .. 8 ... ... : ... .. 8 ... ... : ... .. D P8D ...
ROW 66 : ... .. D ... ... ... : ... .. 2 ... ... ... : B-2 00 . ... : ... .. 6 ... : ... .. . ... ... : ... .. . ... ... : ... .. . ... ... : ... .. 8 P8E ...
ROW 67 : ... .. A ... ... ... : ... .. 1 ... ... ... : A#2 00 . ... : ... .. 3 ... : ... .. . ... ... : ... .. . ... ... : ... .. . ... ... : ... .. . P87 ...
ROW 68 : ... .. . ... ... ... : ... .. . ... ... ... : F-2 00 . ... : ... .. 2 ... : ... .. . ... ... : ... .. 7 ... ... : ... .. 7 ... ... : ... .. . P81 ...
ROW 69 : ... .. . ... ... ... : ... .. 0 ... ... ... : ... .. . ... : ... .. 0 ... : ... .. . ... ... : ... .. . ... ... : ... .. . ... ... : ... .. . P7C ...
ROW 6A : ... .. 0 ... ... ... : F#5 00 6 P80 ... ... : ... .. . ... : ... .. F ... : ... .. . ... ... : --- .. . P7E ... : --- .. . ... ... : ... .. . P7E ...
ROW 6B : ... .. . ... ... ... : ... .. 4 ... ... ... : ... .. . ... : ... .. C ... : ... .. . ... ... : ... .. . ... ... : ... .. . ... ... : ... .. . P85 ...
ROW 6C : ... .. . ... ... ... : ... .. 2 ... ... ... : ... .. . ... : ... .. 6 ... : ... .. . ... ... : ... .. . ... ... : ... .. . ... ... : ... .. . P8C ...
ROW 6D : ... .. . ... ... ... : ... .. 1 ... ... ... : --- .. . ... : ... .. 3 ... : ... .. . ... ... : ... .. . ... ... : ... .. . ... ... : ... .. . P8E ...
ROW 6E : ... .. . ... ... ... : ... .. . ... ... ... : ... .. . ... : ... .. 2 ... : ... .. . ... ... : ... .. . ... ... : ... .. . ... ... : ... .. . P88 ...
ROW 6F : ... .. . ... ... ... : ... .. 0 ... ... ... : ... .. . ... : ... .. 0 ... : ... .. . ... ... : ... .. . ... ... : ... .. . ... ... : ... .. . P82 ...
ROW 70 : C#2 00 F P81 ... ... : F-5 00 6 P80 ... ... : A-4 00 . ... : ... .. 2 ... : ... .. . ... ... : C#3 01 9 P80 ... : ... .. . ... ... : ... .. . P7C ...
ROW 71 : ... .. E ... ... ... : ... .. 4 ... ... ... : B-3 00 . ... : ... .. 1 ... : ... .. . ... ... : ... .. 8 ... ... : ... .. . ... ... : ... .. 4 P7E ...
ROW 72 : ... .. D ... ... ... : ... .. 2 ... ... ... : E-3 00 . ... : ... .. . ... : ... .. . ... ... : ... .. . ... ... : ... .. . ... ... : ... .. . P85 ...
ROW 73 : ... .. A ... ... ... : ... .. 1 ... ... ... : --- .. . ... : ... .. . ... : ... .. . ... ... : ... .. . ... ... : ... .. . ... ... : ... .. 1 P8C ...
ROW 74 : ... .. . ... ... ... : ... .. . ... ... ... : ... .. . ... : ... .. . ... : ... .. . ... ... : ... .. 7 ... ... : ... .. . ... ... : ... .. . P8E ...
ROW 75 : ... .. . ... ... ... : ... .. 0 ... ... ... : ... .. . ... : ... .. 0 ... : ... .. . ... ... : ... .. . ... ... : ... .. . ... ... : ... .. . P89 ...
ROW 76 : C-2 00 F ... ... ... : E-5 00 6 P80 ... ... : A-2 00 . ... : ... .. 4 ... : ... .. . ... ... : C-3 01 9 ... ... : ... .. . ... ... : ... .. . P83 ...
ROW 77 : ... .. E ... ... ... : ... .. 4 ... ... ... : ... .. . ... : ... .. 3 ... : ... .. . ... ... : ... .. 8 ... ... : ... .. . ... ... : ... .. . P7C ...
ROW 78 : ... .. D ... ... ... : ... .. 2 ... ... ... : ... .. . ... : ... .. 1 ... : ... .. . ... ... : ... .. . ... ... : ... .. . ... ... : ... .. . P7D ...
ROW 79 : ... .. A ... ... ... : ... .. 1 ... ... ... : --- .. . ... : ... .. . ... : ... .. . ... ... : ... .. . ... ... : ... .. . ... ... : ... .. . P85 ...
ROW 7A : ... .. . ... ... ... : ... .. . ... ... ... : ... .. . ... : ... .. . ... : ... .. . ... ... : ... .. 7 ... ... : ... .. . ... ... : ... .. 0 P8B ...
ROW 7B : ... .. . ... ... ... : ... .. 0 ... ... ... : ... .. . ... : ... .. 0 ... : ... .. . ... ... : ... .. . ... ... : ... .. . ... ... : ... .. . P8E ...
ROW 7C : A#1 00 F ... ... ... : D#5 00 6 P80 ... ... : A#2 00 . ... : ... .. F ... : ... .. . ... ... : A#2 01 9 ... ... : A#3 01 9 ... ... : A#1 01 F P8A ...
ROW 7D : ... .. E ... ... ... : ... .. 4 ... ... ... : ... .. . ... : ... .. C ... : ... .. . ... ... : ... .. 8 ... ... : ... .. 8 ... ... : ... .. D P84 ...
ROW 7E : ... .. D ... ... ... : ... .. 2 ... ... ... : ... .. . ... : ... .. 6 ... : ... .. . ... ... : ... .. . ... ... : ... .. . ... ... : ... .. 8 P7D ...
ROW 7F : ... .. A ... ... ... : ... .. 1 ... ... ... : --- .. . ... : ... .. 3 ... : ... .. . ... ... : ... .. . ... ... : ... .. . ... ... : ... .. . ... ...
ROW 80 : ... .. . ... ... ... : ... .. . ... ... ... : ... .. . ... : ... .. 2 ... : ... .. . ... ... : ... .. 7 ... ... : ... .. 7 ... ... : ... .. . P84 ...
ROW 81 : ... .. . ... ... ... : ... .. 0 ... ... ... : ... .. . ... : ... .. 0 ... : ... .. . ... ... : ... .. . ... ... : ... .. . ... ... : ... .. . P8A ...
ROW 82 : C-2 00 F ... ... ... : D-5 00 6 P80 ... ... : C-3 00 . ... : ... .. F ... : ... .. . ... ... : C-3 01 9 ... ... : --- .. . ... ... : ... .. . P8E ...
ROW 83 : ... .. E ... ... ... : ... .. 4 ... ... ... : ... .. . ... : ... .. C ... : ... .. . ... ... : ... .. 8 ... ... : ... .. . ... ... : ... .. 4 P8B ...
ROW 84 : ... .. D ... ... ... : ... .. 2 ... ... ... : ... .. . ... : ... .. 6 ... : ... .. . ... ... : ... .. . ... ... : ... .. . ... ... : ... .. . P85 ...
ROW 85 : ... .. A ... ... ... : ... .. 1 ... ... ... : --- .. . ... : ... .. 3 ... : ... .. . ... ... : ... .. . ... ... : ... .. . ... ... : ... .. 1 P7D ...
ROW 86 : ... .. . ... ... ... : ... .. . ... ... ... : ... .. . ... : ... .. 2 ... : ... .. . ... ... : ... .. 7 ... ... : ... .. . ... ... : ... .. . P7C ...
ROW 87 : ... .. . ... ... ... : ... .. 0 ... ... ... : ... .. . ... : ... .. 0 ... : ... .. . ... ... : ... .. . ... ... : ... .. . ... ... : ... .. . P83 ...
ROW 88 : C#2 00 F ... ... ... : C#5 00 6 P80 ... ... : C-5 00 . ... : ... .. 4 ... : ... .. . ... ... : C#3 01 9 ... ... : C#4 01 9 ... ... : C#2 01 F P89 ...
ROW 89 : ... .. E ... ... ... : ... .. 4 ... ... ... : D-4 00 . ... : ... .. 3 ... : ... .. . ... ... : ... .. 8 ... ... : ... .. 8 ... ... : ... .. D P8E ...
ROW 8A : ... .. D ... ... ... : ... .. 2 ... ... ... : G-3 00 . ... : ... .. 1 ... : ... .. . ... ... : ... .. . ... ... : ... .. . ... ... : ... .. 8 P8C ...
ROW 8B : ... .. A ... ... ... : ... .. 1 ... ... ... : F#3 00 . ... : ... .. . ... : ... .. . ... ... : ... .. . ... ... : ... .. . ... ... : ... .. . P85 ...
ROW 8C : ... .. . ... ... ... : ... .. . ... ... ... : C#3 00 . ... : ... .. . ... : ... .. . ... ... : ... .. 7 ... ... : ... .. 7 ... ... : ... .. . P7E ...
ROW 8D : ... .. . ... ... ... : ... .. 0 ... ... ... : ... .. . ... : ... .. 0 ... : ... .. . ... ... : ... .. . ... ... : ... .. . ... ... : ... .. . P7C ...
ROW 8E : ... .. 0 ... ... ... : D-5 00 6 P80 ... ... : ... .. . ... : ... .. 8 ... : ... .. . ... ... : --- .. . P83 ... : ... .. . ... ... : ... .. . P82 ...
ROW 8F : ... .. . ... ... ... : ... .. 4 ... ... ... : ... .. . ... : ... .. 6 ... : ... .. . ... ... : ... .. . ... ... : ... .. 6 ... ... : ... .. 4 P88 ...
ROW 90 : ... .. . ... ... ... : ... .. 2 ... ... ... : ... .. . ... : ... .. 3 ... : ... .. . ... ... : ... .. . ... ... : ... .. . ... ... : ... .. . P8E ...
ROW 91 : ... .. . ... ... ... : ... .. 1 ... ... ... : --- .. . ... : ... .. 1 ... : ... .. . ... ... : ... .. . ... ... : ... .. . ... ... : ... .. 1 P8C ...
ROW 92 : ... .. . ... ... ... : ... .. . ... ... ... : ... .. . ... : ... .. . ... : ... .. . ... ... : ... .. . ... ... : ... .. . ... ... : ... .. . P85 ...
ROW 93 : ... .. . ... ... ... : ... .. 0 ... ... ... : ... .. . ... : ... .. 0 ... : ... .. . ... ... : ... .. . ... ... : ... .. . ... ... : ... .. . P7E ...
ROW 94 : F-1 00 F P81 ... ... : D#5 00 6 P80 ... ... : E-4 00 . ... : ... .. F ... : ... .. . ... ... : F-2 01 9 P80 ... : F-3 01 9 ... ... : F-1 01 F P7C ...
ROW 95 : ... .. E ... ... ... : ... .. 4 ... ... ... : F#3 00 . ... : ... .. C ... : ... .. . ... ... : ... .. 8 ... ... : ... .. 8 ... ... : ... .. D P81 ...
ROW 96 : ... .. D ... ... ... : ... .. 2 ... ... ... : B-2 00 . ... : ... .. 6 ... : ... .. . ... ... : ... .. . ... ... : ... .. . ... ... : ... .. 8 P87 ...
ROW 97 : ... .. A ... ... ... : ... .. 1 ... ... ... : A#2 00 . ... : ... .. 3 ... : ... .. . ... ... : ... .. . ... ... : ... .. . ... ... : ... .. . P8E ...
ROW 98 : ... .. . ... ... ... : ... .. . ... ... ... : F-2 00 . ... : ... .. 2 ... : ... .. . ... ... : ... .. 7 ... ... : ... .. 7 ... ... : ... .. . P8D ...
ROW 99 : ... .. . ... ... ... : ... .. 0 ... ... ... : ... .. . ... : ... .. 0 ... : ... .. . ... ... : ... .. . ... ... : ... .. . ... ... : ... .. . P85 ...
ROW 9A : ... .. . ... ... ... : E-5 00 6 P80 ... ... : ... .. . ... : ... .. 2 ... : ... .. . ... ... : --- .. . P7E ... : --- .. . ... ... : ... .. . P7F ...
ROW 9B : ... .. . ... ... ... : ... .. 4 ... ... ... : ... .. . ... : ... .. 1 ... : ... .. . ... ... : ... .. . ... ... : ... .. . ... ... : ... .. . P7C ...
ROW 9C : ... .. . ... ... ... : ... .. 2 ... ... ... : ... .. . ... : ... .. . ... : ... .. . ... ... : ... .. . ... ... : ... .. . ... ... : ... .. . P80 ...
ROW 9D : ... .. 0 ... ... ... : ... .. 1 ... ... ... : --- .. . ... : ... .. . ... : ... .. . ... ... : ... .. . ... ... : ... .. . ... ... : ... .. . P86 ...
ROW 9E : ... .. . ... ... ... : ... .. . ... ... ... : ... .. . ... : ... .. . ... : ... .. . ... ... : ... .. . ... ... : ... .. . ... ... : ... .. . P8D ...
ROW 9F : ... .. . ... ... ... : ... .. 0 ... ... ... : ... .. . ... : ... .. 0 ... : ... .. . ... ... : ... .. . ... ... : ... .. . ... ... : ... .. . ... ...
ROW A0 : A#1 00 D P81 ... ... : F-5 00 6 P80 ... ... : A-4 00 . ... : ... .. 4 ... : ... .. . ... ... : ... .. . ... ... : ... .. . ... ... : ... .. . P81 ...
ROW A1 : ... .. B ... ... ... : ... .. 4 ... ... ... : B-3 00 . ... : ... .. 3 ... : ... .. . ... ... : ... .. . ... ... : ... .. . ... ... : ... .. 4 P7B ...
ROW A2 : ... .. . ... ... ... : ... .. 2 ... ... ... : E-3 00 . ... : ... .. 1 ... : ... .. . ... ... : ... .. . ... ... : ... .. . ... ... : ... .. . P77 ...
ROW A3 : ... .. A ... ... ... : ... .. 1 ... ... ... : D#3 00 . ... : ... .. . ... : ... .. . ... ... : ... .. . ... ... : ... .. . ... ... : ... .. 1 P7A ...
ROW A4 : ... .. 8 ... ... ... : ... .. . ... ... ... : A#2 00 . ... : ... .. . ... : ... .. . ... ... : ... .. . ... ... : ... .. . ... ... : ... .. . P80 ...
ROW A5 : ... .. 7 ... ... ... : ... .. 0 ... ... ... : ... .. . ... : ... .. 0 ... : ... .. . ... ... : ... .. . ... ... : ... .. . ... ... : ... .. . P88 ...
ROW A6 : ... .. 6 ... ... ... : F#5 00 6 P80 ... ... : ... .. . ... : ... .. 8 ... : ... .. . ... ... : ... .. . ... ... : ... .. . ... ... : ... .. . P89 ...
ROW A7 : ... .. . ... ... ... : ... .. 4 ... ... ... : ... .. . ... : ... .. 6 ... : ... .. . ... ... : ... .. . ... ... : ... .. . ... ... : ... .. . P82 ...
ROW A8 : ... .. 5 ... ... ... : ... .. 2 ... ... ... : ... .. . ... : ... .. 3 ... : ... .. . ... ... : ... .. . ... ... : ... .. . ... ... : ... .. . P7C ...
ROW A9 : ... .. . ... ... ... : ... .. 1 ... ... ... : ... .. . ... : ... .. 1 ... : ... .. . ... ... : ... .. . ... ... : ... .. . ... ... : ... .. . P77 ...
ROW AA : ... .. 4 ... ... ... : ... .. . ... ... ... : ... .. . ... : ... .. . ... : ... .. . ... ... : ... .. . ... ... : ... .. . ... ... : ... .. 0 P79 ...
ROW AB : ... .. . ... ... ... : ... .. 0 ... ... ... : ... .. . ... : ... .. 0 ... : ... .. . ... ... : ... .. . ... ... : ... .. . ... ... : ... .. . P80 ...
ROW AC : F-2 00 D ... ... ... : F-5 00 6 P80 ... ... : ... .. . ... : ... .. F ... : ... .. . ... ... : A#3 01 9 P80 ... : C#4 01 9 ... ... : F-3 01 F P87 ...
ROW AD : ... .. B ... ... ... : ... .. 4 ... ... ... : ... .. . ... : ... .. C ... : ... .. . ... ... : ... .. 8 ... ... : ... .. 8 ... ... : ... .. D P89 ...
ROW AE : ... .. . ... ... ... : ... .. 2 ... ... ... : ... .. . ... : ... .. 6 ... : ... .. . ... ... : ... .. . ... ... : ... .. . ... ... : ... .. 8 P83 ...
ROW AF : ... .. 0 ... ... ... : ... .. 1 ... ... ... : --- .. . ... : ... .. 3 ... : ... .. . ... ... : ... .. . ... ... : ... .. . ... ... : ... .. . P7D ...
ROW B0 : ... .. . ... ... ... : ... .. . ... ... ... : ... .. . ... : ... .. 2 ... : ... .. . ... ... : ... .. 7 ... ... : ... .. 7 ... ... : ... .. . P77 ...
ROW B1 : ... .. . ... ... ... : ... .. 0 ... ... ... : ... .. . ... : ... .. 0 ... : ... .. . ... ... : ... .. . ... ... : ... .. . ... ... : ... .. . P79 ...
ROW B2 : F-2 00 D P81 ... ... : F#5 00 6 P80 ... ... : ... .. . ... : ... .. 4 ... : ... .. . ... ... : --- .. . ... ... : --- .. . ... ... : --- .. . P7E ...
ROW B3 : ... .. B ... ... ... : ... .. 4 ... ... ... : ... .. . ... : ... .. 3 ... : ... .. . ... ... : ... .. . ... ... : ... .. . ... ... : ... .. . ... ...
ROW B4 : ... .. . ... ... ... : ... .. 2 ... ... ... : ... .. . ... : ... .. 1 ... : ... .. . ... ... : ... .. . ... ... : ... .. . ... ... : ... .. . ... ...
ROW B5 : ... .. 0 ... ... ... : ... .. 1 ... ... ... : ... .. . ... : ... .. . ... : ... .. . ... ... : ... .. . ... ... : ... .. . ... ... : ... .. . ... ...
ROW B6 : ... .. . ... ... ... : ... .. . ... ... ... : ... .. . ... : ... .. . ... : ... .. . ... ... : ... .. . ... ... : ... .. . ... ... : ... .. . ... ...
ROW B7 : ... .. . ... ... ... : ... .. 0 ... ... ... : ... .. . ... : ... .. 0 ... : ... .. . ... ... : ... .. . ... ... : ... .. . ... ... : ... .. . ... ...
ROW B8 : E-2 00 D P81 ... ... : F-5 00 6 P80 ... ... : E-4 00 . ... : ... .. 2 ... : ... .. . ... ... : ... .. . ... ... : ... .. . ... ... : E-3 01 F P78 ...
ROW B9 : ... .. B ... ... ... : ... .. 4 ... ... ... : F#3 00 . ... : ... .. 1 ... : ... .. . ... ... : ... .. . ... ... : ... .. . ... ... : ... .. D P80 ...
ROW BA : ... .. . ... ... ... : ... .. 2 ... ... ... : B-2 00 . ... : ... .. . ... : ... .. . ... ... : ... .. . ... ... : ... .. . ... ... : ... .. 8 P86 ...
ROW BB : ... .. A ... ... ... : ... .. 1 ... ... ... : A#2 00 . ... : ... .. . ... : ... .. . ... ... : ... .. . ... ... : ... .. . ... ... : ... .. . P89 ...
ROW BC : ... .. 8 ... ... ... : ... .. . ... ... ... : F-2 00 . ... : ... .. . ... : ... .. . ... ... : ... .. . ... ... : ... .. . ... ... : ... .. . P85 ...
ROW BD : ... .. 7 ... ... ... : ... .. 0 ... ... ... : ... .. . ... : ... .. 0 ... : ... .. . ... ... : ... .. . ... ... : ... .. . ... ... : ... .. . P7F ...
ROW BE : ... .. D ... ... ... : F#5 00 6 P80 ... ... : ... .. . ... : ... .. 4 ... : ... .. . ... ... : ... .. . ... ... : ... .. . ... ... : ... .. . P78 ...
ROW BF : ... .. B ... ... ... : ... .. 4 ... ... ... : ... .. . ... : ... .. 3 ... : ... .. . ... ... : ... .. . ... ... : ... .. . ... ... : ... .. . ... ...
ROW C0 : ... .. . ... ... ... : ... .. 2 ... ... ... : ... .. . ... : ... .. 1 ... : ... .. . ... ... : ... .. . ... ... : ... .. . ... ... : ... .. . P7F ...
ROW C1 : ... .. A ... ... ... : ... .. 1 ... ... ... : ... .. . ... : ... .. . ... : ... .. . ... ... : ... .. . ... ... : ... .. . ... ... : ... .. . P85 ...
ROW C2 : ... .. 8 ... ... ... : ... .. . ... ... ... : ... .. . ... : ... .. . ... : ... .. . ... ... : ... .. . ... ... : ... .. . ... ... : ... .. . P89 ...
ROW C3 : ... .. 7 ... ... ... : ... .. 0 ... ... ... : ... .. . ... : ... .. 0 ... : ... .. . ... ... : ... .. . ... ... : ... .. . ... ... : ... .. . P86 ...
ROW C4 : F-2 00 D ... ... ... : F-5 00 6 P80 ... ... : ... .. . ... : ... .. F ... : ... .. . ... ... : A-3 01 9 ... ... : C#4 01 9 ... ... : F-3 01 F P80 ...
ROW C5 : ... .. B ... ... ... : ... .. 4 ... ... ... : ... .. . ... : ... .. C ... : ... .. . ... ... : ... .. 8 ... ... : ... .. 8 ... ... : ... .. D P78 ...
ROW C6 : ... .. . ... ... ... : ... .. 2 ... ... ... : ... .. . ... : ... .. 6 ... : ... .. . ... ... : ... .. . ... ... : ... .. . ... ... : ... .. 8 P77 ...
ROW C7 : ... .. 0 ... ... ... : ... .. 1 ... ... ... : --- .. . ... : ... .. 3 ... : ... .. . ... ... : ... .. . ... ... : ... .. . ... ... : ... .. . P7E ...
ROW C8 : ... .. . ... ... ... : ... .. . ... ... ... : ... .. . ... : ... .. 2 ... : ... .. . ... ... : ... .. 7 ... ... : ... .. 7 ... ... : ... .. . P84 ...
ROW C9 : ... .. . ... ... ... : ... .. 0 ... ... ... : ... .. . ... : ... .. 0 ... : ... .. . ... ... : ... .. . ... ... : ... .. . ... ... : ... .. . P89 ...
ROW CA : F-2 00 D P81 ... ... : F#5 00 6 P80 ... ... : ... .. . ... : ... .. F ... : ... .. . ... ... : --- .. . ... ... : --- .. . ... ... : --- .. . P82 ...
ROW CB : ... .. B ... ... ... : ... .. 4 ... ... ... : ... .. . ... : ... .. C ... : ... .. . ... ... : ... .. . ... ... : ... .. . ... ... : ... .. . ... ...
ROW CC : ... .. . ... ... ... : ... .. 2 ... ... ... : ... .. . ... : ... .. 6 ... : ... .. . ... ... : ... .. . ... ... : ... .. . ... ... : ... .. . ... ...
ROW CD : ... .. 0 ... ... ... : ... .. 1 ... ... ... : ... .. . ... : ... .. 3 ... : ... .. . ... ... : ... .. . ... ... : ... .. . ... ... : ... .. . ... ...
ROW CE : ... .. . ... ... ... : ... .. . ... ... ... : ... .. . ... : ... .. 2 ... : ... .. . ... ... : ... .. . ... ... : ... .. . ... ... : ... .. . ... ...
ROW CF : ... .. . ... ... ... : ... .. 0 ... ... ... : ... .. . ... : ... .. 0 ... : ... .. . ... ... : ... .. . ... ... : ... .. . ... ... : ... .. . ... ...
ROW D0 : C#2 00 D P81 ... ... : F-5 00 6 P80 ... ... : C-5 00 . ... : ... .. 2 ... : ... .. . ... ... : ... .. . ... ... : ... .. . ... ... : F#3 01 F P89 ...
ROW D1 : ... .. B ... ... ... : ... .. 4 ... ... ... : D-4 00 . ... : ... .. 1 ... : ... .. . ... ... : ... .. . ... ... : ... .. . ... ... : ... .. D P87 ...
ROW D2 : ... .. . ... ... ... : ... .. 2 ... ... ... : G-3 00 . ... : ... .. . ... : ... .. . ... ... : ... .. . ... ... : ... .. . ... ... : ... .. 8 P80 ...
ROW D3 : ... .. A ... ... ... : ... .. 1 ... ... ... : F#3 00 . ... : ... .. . ... : ... .. . ... ... : ... .. . ... ... : ... .. . ... ... : ... .. . P79 ...
ROW D4 : ... .. 8 ... ... ... : ... .. . ... ... ... : C#3 00 . ... : ... .. . ... : ... .. . ... ... : ... .. . ... ... : ... .. . ... ... : ... .. . P77 ...
ROW D5 : ... .. 7 ... ... ... : ... .. 0 ... ... ... : ... .. . ... : ... .. 0 ... : ... .. . ... ... : ... .. . ... ... : ... .. . ... ... : ... .. . P7C ...
ROW D6 : ... .. D ... ... ... : F#5 00 6 P80 ... ... : ... .. . ... : ... .. 4 ... : ... .. . ... ... : ... .. . ... ... : ... .. . ... ... : ... .. . P82 ...
ROW D7 : ... .. B ... ... ... : ... .. 4 ... ... ... : ... .. . ... : ... .. 3 ... : ... .. . ... ... : ... .. . ... ... : ... .. . ... ... : ... .. . P89 ...
ROW D8 : ... .. . ... ... ... : ... .. 2 ... ... ... : ... .. . ... : ... .. 1 ... : ... .. . ... ... : ... .. . ... ... : ... .. . ... ... : ... .. . P88 ...
ROW D9 : ... .. A ... ... ... : ... .. 1 ... ... ... : ... .. . ... : ... .. . ... : ... .. . ... ... : ... .. . ... ... : ... .. . ... ... : ... .. . P80 ...
ROW DA : ... .. 8 ... ... ... : ... .. . ... ... ... : ... .. . ... : ... .. . ... : ... .. . ... ... : ... .. . ... ... : ... .. . ... ... : ... .. . P7A ...
ROW DB : ... .. 7 ... ... ... : ... .. 0 ... ... ... : ... .. . ... : ... .. 0 ... : ... .. . ... ... : ... .. . ... ... : ... .. . ... ... : ... .. . P77 ...
ROW DC : F-2 00 D ... ... ... : G-5 00 6 P80 ... ... : ... .. . ... : ... .. F ... : ... .. . ... ... : G#3 01 9 ... ... : C#4 01 9 ... ... : F-3 01 F P7B ...
ROW DD : ... .. B ... ... ... : ... .. 4 ... ... ... : ... .. . ... : ... .. C ... : ... .. . ... ... : ... .. 8 ... ... : ... .. 8 ... ... : ... .. D P81 ...
ROW DE : ... .. . ... ... ... : ... .. 2 ... ... ... : ... .. . ... : ... .. 6 ... : ... .. . ... ... : ... .. . ... ... : ... .. . ... ... : ... .. 8 P88 ...
ROW DF : ... .. 0 ... ... ... : ... .. 1 ... ... ... : --- .. . ... : ... .. 3 ... : ... .. . ... ... : ... .. . ... ... : ... .. . ... ... : ... .. . ... ...
ROW E0 : ... .. . ... ... ... : ... .. . ... ... ... : ... .. . ... : ... .. 2 ... : ... .. . ... ... : ... .. 7 ... ... : ... .. 7 ... ... : ... .. . P81 ...
ROW E1 : ... .. . ... ... ... : ... .. 0 ... ... ... : ... .. . ... : ... .. 0 ... : ... .. . ... ... : ... .. . ... ... : ... .. . ... ... : ... .. . P7B ...
ROW E2 : F-2 00 D P81 ... ... : G#5 00 6 P80 ... ... : ... .. . ... : ... .. F ... : ... .. . ... ... : --- .. . P82 ... : --- .. . ... ... : --- .. . P80 ...
ROW E3 : ... .. B ... ... ... : ... .. 4 ... ... ... : ... .. . ... : ... .. C ... : ... .. . ... ... : ... .. . ... ... : ... .. . ... ... : ... .. . ... ...
ROW E4 : ... .. . ... ... ... : ... .. 2 ... ... ... : ... .. . ... : ... .. 6 ... : ... .. . ... ... : ... .. . ... ... : ... .. . ... ... : ... .. . ... ...
ROW E5 : ... .. 0 ... ... ... : ... .. 1 ... ... ... : ... .. . ... : ... .. 3 ... : ... .. . ... ... : ... .. . ... ... : ... .. . ... ... : ... .. . ... ...
ROW E6 : ... .. . ... ... ... : ... .. . ... ... ... : ... .. . ... : ... .. 2 ... : ... .. . ... ... : ... .. . ... ... : ... .. . ... ... : ... .. . ... ...
ROW E7 : ... .. . ... ... ... : ... .. 0 ... ... ... : ... .. . ... : ... .. 0 ... : ... .. . ... ... : ... .. . ... ... : ... .. . ... ... : ... .. . ... ...
ROW E8 : F#2 00 D P81 ... ... : A-5 00 6 P80 ... ... : B-4 00 . ... : ... .. 4 ... : ... .. . ... ... : ... .. . ... ... : ... .. . ... ... : E-3 01 F P7C ...
ROW E9 : ... .. B ... ... ... : ... .. 4 ... ... ... : C#4 00 . ... : ... .. 3 ... : ... .. . ... ... : ... .. . ... ... : ... .. . ... ... : ... .. D P77 ...
ROW EA : ... .. . ... ... ... : ... .. 2 ... ... ... : F#3 00 . ... : ... .. 1 ... : ... .. . ... ... : ... .. . ... ... : ... .. . ... ... : ... .. 8 P79 ...
ROW EB : ... .. A ... ... ... : ... .. 1 ... ... ... : F-3 00 . ... : ... .. . ... : ... .. . ... ... : ... .. . ... ... : ... .. . ... ... : ... .. . P80 ...
ROW EC : ... .. 8 ... ... ... : ... .. . ... ... ... : C-3 00 . ... : ... .. . ... : ... .. . ... ... : ... .. . ... ... : ... .. . ... ... : ... .. . P87 ...
ROW ED : ... .. 7 ... ... ... : ... .. 0 ... ... ... : ... .. . ... : ... .. 0 ... : ... .. . ... ... : ... .. . ... ... : ... .. . ... ... : ... .. . P89 ...
ROW EE : F-2 00 D ... ... ... : G#5 00 6 P80 ... ... : ... .. . ... : ... .. 8 ... : ... .. . ... ... : ... .. . ... ... : ... .. . ... ... : ... .. . P83 ...
ROW EF : ... .. B ... ... ... : ... .. 4 ... ... ... : ... .. . ... : ... .. 6 ... : ... .. . ... ... : ... .. . ... ... : ... .. . ... ... : ... .. . P7D ...
ROW F0 : ... .. . ... ... ... : ... .. 2 ... ... ... : ... .. . ... : ... .. 3 ... : ... .. . ... ... : ... .. . ... ... : ... .. . ... ... : ... .. . P77 ...
ROW F1 : ... .. A ... ... ... : ... .. 1 ... ... ... : ... .. . ... : ... .. 1 ... : ... .. . ... ... : ... .. . ... ... : ... .. . ... ... : ... .. . P79 ...
ROW F2 : ... .. 8 ... ... ... : ... .. . ... ... ... : ... .. . ... : ... .. . ... : ... .. . ... ... : ... .. . ... ... : ... .. . ... ... : ... .. . P80 ...
ROW F3 : ... .. 7 ... ... ... : ... .. 0 ... ... ... : ... .. . ... : ... .. 0 ... : ... .. . ... ... : ... .. . ... ... : ... .. . ... ... : ... .. . P87 ...
ROW F4 : C#2 00 D ... ... ... : G-5 00 6 P80 ... ... : ... .. . ... : ... .. F ... : ... .. . ... ... : G-3 01 9 P80 ... : C#4 01 9 ... ... : F-3 01 F P89 ...
ROW F5 : ... .. B ... ... ... : ... .. 4 ... ... ... : ... .. . ... : ... .. C ... : ... .. . ... ... : ... .. 8 ... ... : ... .. 8 ... ... : ... .. D P84 ...
ROW F6 : ... .. . ... ... ... : ... .. 2 ... ... ... : ... .. . ... : ... .. 6 ... : ... .. . ... ... : ... .. . ... ... : ... .. . ... ... : ... .. 8 P7E ...
ROW F7 : ... .. 0 ... ... ... : ... .. 1 ... ... ... : --- .. . ... : ... .. 3 ... : ... .. . ... ... : ... .. . ... ... : ... .. . ... ... : ... .. . P77 ...
ROW F8 : ... .. . ... ... ... : ... .. . ... ... ... : ... .. . ... : ... .. 2 ... : ... .. . ... ... : ... .. 7 ... ... : ... .. 7 ... ... : ... .. . P78 ...
ROW F9 : ... .. . ... ... ... : ... .. 0 ... ... ... : ... .. . ... : ... .. 0 ... : ... .. . ... ... : ... .. . ... ... : ... .. . ... ... : ... .. . P80 ...
ROW FA : C-2 00 D P81 ... ... : F#5 00 6 P80 ... ... : ... .. . ... : ... .. 2 ... : ... .. . ... ... : --- .. . P81 ... : --- .. . ... ... : ... .. . P86 ...
ROW FB : ... .. B ... ... ... : ... .. 4 ... ... ... : ... .. . ... : ... .. 1 ... : ... .. . ... ... : ... .. . ... ... : ... .. . ... ... : ... .. . P89 ...
ROW FC : ... .. . ... ... ... : ... .. 2 ... ... ... : ... .. . ... : ... .. . ... : ... .. . ... ... : ... .. . ... ... : ... .. . ... ... : ... .. . P85 ...
ROW FD : ... .. 0 ... ... ... : ... .. 1 ... ... ... : ... .. . ... : ... .. . ... : ... .. . ... ... : ... .. . ... ... : ... .. . ... ... : ... .. . P7F ...
ROW FE : ... .. . ... ... ... : ... .. . ... ... ... : ... .. . ... : ... .. . ... : ... .. . ... ... : ... .. . ... ... : ... .. . ... ... : ... .. . P78 ...
ROW FF : ... .. . ... ... ... : ... .. 0 ... ... ... : ... .. . ... : ... .. 0 ... : ... .. . ... ... : ... .. . ... ... : ... .. . ... ... : ... .. . ... ...

PATTERN 1B
ROW 00 : A#1 00 D P81 ... ... : F-5 00 6 P80 ... ... : A-3 00 . ... : ... .. F ... : ... .. . ... ... : F#3 01 9 P80 ... : ... .. . ... ... : C-4 01 F P7F ...
ROW 01 : ... .. B ... ... ... : ... .. 4 ... ... ... : B-2 00 . ... : ... .. C ... : ... .. . ... ... : ... .. 8 ... ... : ... .. . ... ... : ... .. D P85 ...
ROW 02 : ... .. . ... ... ... : ... .. 2 ... ... ... : E-2 00 . ... : ... .. 6 ... : ... .. . ... ... : ... .. . ... ... : ... .. . ... ... : C#4 01 8 P7C ...
ROW 03 : ... .. A ... ... ... : ... .. 1 ... ... ... : D#2 00 . ... : ... .. 3 ... : ... .. . ... ... : ... .. . ... ... : ... .. . ... ... : C-4 01 8 P86 ...
ROW 04 : ... .. 8 ... ... ... : ... .. . ... ... ... : A#1 00 . ... : ... .. 2 ... : ... .. . ... ... : ... .. 7 ... ... : ... .. . ... ... : ... .. . P80 ...
ROW 05 : ... .. 7 ... ... ... : ... .. 0 ... ... ... : ... .. . ... : ... .. 0 ... : ... .. . ... ... : ... .. . ... ... : ... .. . ... ... : B-3 01 8 P87 ...
ROW 06 : ... .. 6 ... ... ... : F#5 00 6 P80 ... ... : ... .. . ... : ... .. . ... : ... .. . ... ... : F-3 01 9 ... ... : ... .. . ... ... : ... .. . P86 ...
ROW 07 : ... .. . ... ... ... : ... .. 4 ... ... ... : ... .. . ... : ... .. . ... : ... .. . ... ... : ... .. 8 ... ... : ... .. . ... ... : C-4 01 8 P7E ...
ROW 08 : ... .. 5 ... ... ... : ... .. 2 ... ... ... : ... .. . ... : ... .. . ... : ... .. . ... ... : ... .. . ... ... : ... .. . ... ... : ... .. . P84 ...
ROW 09 : ... .. . ... ... ... : ... .. 1 ... ... ... : ... .. . ... : ... .. . ... : ... .. . ... ... : ... .. . ... ... : ... .. . ... ... : C#4 01 8 P7C ...
ROW 0A : ... .. 4 ... ... ... : ... .. . ... ... ... : ... .. . ... : ... .. . ... : ... .. . ... ... : ... .. 7 ... ... : ... .. . ... ... : ... .. . P7A ...
ROW 0B : ... .. . ... ... ... : ... .. 0 ... ... ... : ... .. . ... : ... .. . ... : ... .. . ... ... : ... .. . ... ... : ... .. . ... ... : C-4 01 8 P80 ...
ROW 0C : A-2 00 D ... ... ... : F-5 00 6 P80 ... ... : C#4 00 . ... : ... .. 3 ... : ... .. . ... ... : E-3 01 9 ... ... : ... .. . ... ... : ... .. . P79 ...
ROW 0D : ... .. B ... ... ... : ... .. 4 ... ... ... : ... .. . ... : ... .. 2 ... : ... .. . ... ... : ... .. 8 ... ... : ... .. . ... ... : B-3 01 8 P86 ...
ROW 0E : ... .. . ... ... ... : ... .. 2 ... ... ... : ... .. . ... : ... .. . ... : ... .. . ... ... : ... .. . ... ... : ... .. . ... ... : C-4 01 8 P7D ...
ROW 0F : ... .. A ... ... ... : ... .. 1 ... ... ... : ... .. . ... : ... .. . ... : ... .. . ... ... : ... .. . ... ... : ... .. . ... ... : ... .. . P83 ...
ROW 10 : ... .. 8 ... ... ... : ... .. . ... ... ... : ... .. . ... : ... .. . ... : ... .. . ... ... : ... .. 7 ... ... : ... .. . ... ... : C#4 01 8 P7C ...
ROW 11 : ... .. 7 ... ... ... : ... .. 0 ... ... ... : ... .. . ... : ... .. 1 ... : ... .. . ... ... : ... .. . ... ... : ... .. . ... ... : ... .. . P7A ...
ROW 12 : A#2 00 D ... ... ... : F#5 00 6 P80 ... ... : ... .. . ... : ... .. . ... : ... .. . ... ... : F#3 01 9 ... ... : ... .. . ... ... : A#3 01 F P80 ...
ROW 13 : ... .. B ... ... ... : ... .. 4 ... ... ... : ... .. . ... : ... .. . ... : ... .. . ... ... : ... .. 8 ... ... : ... .. . ... ... : ... .. D P79 ...
ROW 14 : ... .. . ... ... ... : ... .. 2 ... ... ... : ... .. . ... : ... .. . ... : ... .. . ... ... : ... .. . ... ... : ... .. . ... ... : A-3 01 8 P88 ...
ROW 15 : ... .. 0 ... ... ... : ... .. 1 ... ... ... : ... .. . ... : ... .. . ... : ... .. . ... ... : ... .. . ... ... : ... .. . ... ... : --- .. . P80 ...
ROW 16 : ... .. . ... ... ... : ... .. . ... ... ... : ... .. . ... : ... .. . ... : ... .. . ... ... : ... .. 7 ... ... : ... .. . ... ... : ... .. . ... ...
ROW 17 : ... .. . ... ... ... : ... .. 0 ... ... ... : ... .. . ... : ... .. . ... : ... .. . ... ... : ... .. . ... ... : ... .. . ... ... : ... .. . ... ...
ROW 18 : A#2 00 D P81 ... ... : F-5 00 6 P80 ... ... : A-3 00 . ... : ... .. F ... : ... .. . ... ... : F-3 01 9 ... ... : ... .. . ... ... : A-3 01 F P88 ...
ROW 19 : ... .. B ... ... ... : ... .. 4 ... ... ... : B-2 00 . ... : ... .. C ... : ... .. . ... ... : ... .. 8 ... ... : ... .. . ... ... : ... .. D P80 ...
ROW 1A : ... .. . ... ... ... : ... .. 2 ... ... ... : E-2 00 . ... : ... .. 6 ... : ... .. . ... ... : ... .. . ... ... : ... .. . ... ... : ... .. 8 P7A ...
ROW 1B : ... .. A ... ... ... : ... .. 1 ... ... ... : D#2 00 . ... : ... .. 3 ... : ... .. . ... ... : ... .. . ... ... : ... .. . ... ... : G#3 01 8 P88 ...
ROW 1C : ... .. 8 ... ... ... : ... .. . ... ... ... : A#1 00 . ... : ... .. 2 ... : ... .. . ... ... : ... .. 7 ... ... : ... .. . ... ... : A-3 01 8 P7B ...
ROW 1D : ... .. 7 ... ... ... : ... .. 0 ... ... ... : ... .. . ... : ... .. 0 ... : ... .. . ... ... : ... .. . ... ... : ... .. . ... ... : ... .. . P81 ...
ROW 1E : ... .. D ... ... ... : F#5 00 6 P80 ... ... : ... .. . ... : ... .. . ... : ... .. . ... ... : ... .. . ... ... : ... .. . ... ... : ... .. . P88 ...
ROW 1F : ... .. B ... ... ... : ... .. 4 ... ... ... : ... .. . ... : ... .. . ... : ... .. . ... ... : ... .. 6 ... ... : ... .. . ... ... : ... .. . ... ...
ROW 20 : ... .. . ... ... ... : ... .. 2 ... ... ... : ... .. . ... : ... .. . ... : ... .. . ... ... : ... .. . ... ... : ... .. . ... ... : ... .. . P81 ...
ROW 21 : ... .. 0 ... ... ... : ... .. 1 ... ... ... : ... .. . ... : ... .. . ... : ... .. . ... ... : ... .. . ... ... : ... .. . ... ... : ... .. . P7B ...
ROW 22 : ... .. . ... ... ... : ... .. . ... ... ... : ... .. . ... : ... .. . ... : ... .. . ... ... : ... .. . ... ... : ... .. . ... ... : G#3 01 8 P88 ...
ROW 23 : ... .. . ... ... ... : ... .. 0 ... ... ... : ... .. . ... : ... .. . ... : ... .. . ... ... : ... .. . ... ... : ... .. . ... ... : A-3 01 8 P7A ...
ROW 24 : A#2 00 D P81 ... ... : F-5 00 6 P80 ... ... : C#4 00 . ... : ... .. 3 ... : ... .. . ... ... : C#3 01 9 ... ... : ... .. . ... ... : A#3 01 F P80 ...
ROW 25 : ... .. B ... ... ... : ... .. 4 ... ... ... : ... .. . ... : ... .. 2 ... : ... .. . ... ... : ... .. 8 ... ... : ... .. . ... ... : B-3 01 D P79 ...
ROW 26 : ... .. . ... ... ... : ... .. 2 ... ... ... : ... .. . ... : ... .. . ... : ... .. . ... ... : ... .. . ... ... : ... .. . ... ... : ... .. 8 P7A ...
ROW 27 : ... .. 0 ... ... ... : ... .. 1 ... ... ... : ... .. . ... : ... .. . ... : ... .. . ... ... : ... .. . ... ... : ... .. . ... ... : A#3 01 8 P82 ...
ROW 28 : ... .. . ... ... ... : ... .. . ... ... ... : ... .. . ... : ... .. . ... : ... .. . ... ... : ... .. 7 ... ... : ... .. . ... ... : ... .. . P7C ...
ROW 29 : ... .. . ... ... ... : ... .. 0 ... ... ... : ... .. . ... : ... .. 1 ... : ... .. . ... ... : ... .. . ... ... : ... .. . ... ... : A-3 01 8 P88 ...
ROW 2A : A#2 00 D P81 ... ... : F#5 00 6 P80 ... ... : ... .. . ... : ... .. . ... : ... .. . ... ... : ... .. . ... ... : ... .. . ... ... : --- .. . P80 ...
ROW 2B : ... .. B ... ... ... : ... .. 4 ... ... ... : ... .. . ... : ... .. . ... : ... .. . ... ... : ... .. 6 ... ... : ... .. . ... ... : ... .. . ... ...
ROW 2C : ... .. . ... ... ... : ... .. 2 ... ... ... : ... .. . ... : ... .. . ... : ... .. . ... ... : ... .. . ... ... : ... .. . ... ... : ... .. . ... ...
ROW 2D : ... .. 0 ... ... ... : ... .. 1 ... ... ... : ... .. . ... : ... .. . ... : ... .. . ... ... : ... .. . ... ... : ... .. . ... ... : ... .. . ... ...
ROW 2E : ... .. . ... ... ... : ... .. . ... ... ... : ... .. . ... : ... .. . ... : ... .. . ... ... : ... .. . ... ... : ... .. . ... ... : ... .. . ... ...
ROW 2F : ... .. . ... ... ... : ... .. 0 ... ... ... : ... .. . ... : ... .. . ... : ... .. . ... ... : ... .. . ... ... : ... .. . ... ... : ... .. . ... ...
ROW 30 : B-2 00 D P81 ... ... : F-5 00 6 P80 ... ... : A-3 00 . ... : B-# 00 F ... : ... .. . ... ... : B-3 01 9 ... ... : ... .. . ... ... : D-4 01 F P84 ...
ROW 31 : ... .. B ... ... ... : ... .. 4 ... ... ... : B-2 00 . ... : ... .. C ... : ... .. . ... ... : ... .. 8 ... ... : ... .. . ... ... : ... .. D P86 ...
ROW 32 : ... .. . ... ... ... : ... .. 2 ... ... ... : E-2 00 . ... : ... .. 6 ... : ... .. . ... ... : ... .. . ... ... : ... .. . ... ... : D#4 01 8 P80 ...
ROW 33 : ... .. A ... ... ... : ... .. 1 ... ... ... : D#2 00 . ... : ... .. 3 ... : ... .. . ... ... : ... .. . ... ... : ... .. . ... ... : E-4 01 8 P7C ...
ROW 34 : ... .. 8 ... ... ... : ... .. . ... ... ... : A#1 00 . ... : ... .. 2 ... : ... .. . ... ... : ... .. 7 ... ... : ... .. . ... ... : ... .. . P83 ...
ROW 35 : ... .. 7 ... ... ... : ... .. 0 ... ... ... : ... .. . ... : ... .. 0 ... : ... .. . ... ... : ... .. . ... ... : ... .. . ... ... : ... .. . ... ...
ROW 36 : A#2 00 D ... ... ... : E-5 00 6 P80 ... ... : ... .. . ... : ... .. F ... : ... .. . ... ... : A#3 01 9 ... ... : ... .. . ... ... : ... .. . P82 ...
ROW 37 : ... .. B ... ... ... : ... .. 4 ... ... ... : ... .. . ... : ... .. C ... : ... .. . ... ... : ... .. 8 ... ... : ... .. . ... ... : ... .. . P80 ...
ROW 38 : ... .. . ... ... ... : ... .. 2 ... ... ... : ... .. . ... : ... .. 6 ... : ... .. . ... ... : ... .. . ... ... : ... .. . ... ... : ... .. . P83 ...
ROW 39 : ... .. 0 ... ... ... : ... .. 1 ... ... ... : ... .. . ... : ... .. 3 ... : ... .. . ... ... : --- .. . ... ... : ... .. . ... ... : F-4 01 8 P80 ...
ROW 3A : ... .. . ... ... ... : ... .. . ... ... ... : ... .. . ... : ... .. 2 ... : ... .. . ... ... : ... .. . ... ... : ... .. . ... ... : F#4 01 8 P7C ...
ROW 3B : ... .. . ... ... ... : ... .. 0 ... ... ... : ... .. . ... : ... .. 0 ... : ... .. . ... ... : ... .. . ... ... : ... .. . ... ... : ... .. . P7F ...
ROW 3C : A#2 00 D P81 ... ... : D#5 00 6 P80 ... ... : F-4 00 . ... : 8-# 00 F ... : ... .. . ... ... : A#3 01 9 ... ... : ... .. . ... ... : F-4 01 8 P85 ...
ROW 3D : ... .. B ... ... ... : ... .. 4 ... ... ... : ... .. . ... : ... .. C ... : ... .. . ... ... : ... .. 8 ... ... : ... .. . ... ... : ... .. . P7F ...
ROW 3E : ... .. . ... ... ... : ... .. 2 ... ... ... : ... .. . ... : ... .. 6 ... : ... .. . ... ... : ... .. . ... ... : ... .. . ... ... : E-4 01 8 P83 ...
ROW 3F : ... .. 0 ... ... ... : ... .. 1 ... ... ... : ... .. . ... : ... .. 3 ... : ... .. . ... ... : --- .. . ... ... : ... .. . ... ... : ... .. . ... ...
ROW 40 : ... .. . ... ... ... : ... .. . ... ... ... : ... .. . ... : ... .. 2 ... : ... .. . ... ... : ... .. . ... ... : ... .. . ... ... : F-4 01 8 P7F ...
ROW 41 : ... .. . ... ... ... : ... .. 0 ... ... ... : ... .. . ... : ... .. 0 ... : ... .. . ... ... : ... .. . ... ... : ... .. . ... ... : ... .. . P85 ...
ROW 42 : A#2 00 D P81 ... ... : D-5 00 6 P80 ... ... : ... .. . ... : ... .. F ... : ... .. . ... ... : A#3 01 9 ... ... : ... .. . ... ... : F#4 01 8 P7F ...
ROW 43 : ... .. B ... ... ... : ... .. 4 ... ... ... : ... .. . ... : ... .. C ... : ... .. . ... ... : ... .. 8 ... ... : ... .. . ... ... : ... .. . P7C ...
ROW 44 : ... .. . ... ... ... : ... .. 2 ... ... ... : ... .. . ... : ... .. 6 ... : ... .. . ... ... : ... .. . ... ... : ... .. . ... ... : F-4 01 8 P80 ...
ROW 45 : ... .. 0 ... ... ... : ... .. 1 ... ... ... : ... .. . ... : ... .. 3 ... : ... .. . ... ... : --- .. . ... ... : ... .. . ... ... : E-4 01 8 P83 ...
ROW 46 : ... .. . ... ... ... : ... .. . ... ... ... : ... .. . ... : ... .. 2 ... : ... .. . ... ... : ... .. . ... ... : ... .. . ... ... : ... .. . P82 ...
ROW 47 : ... .. . ... ... ... : ... .. 0 ... ... ... : ... .. . ... : ... .. 0 ... : ... .. . ... ... : ... .. . ... ... : ... .. . ... ... : F-4 01 8 P7E ...
ROW 48 : A-2 00 D P81 ... ... : C#5 00 6 P80 ... ... : A-3 00 . ... : 6-# 00 F ... : ... .. . ... ... : A-3 01 9 ... ... : ... .. . ... ... : F#4 01 8 ... ...
ROW 49 : ... .. B ... ... ... : ... .. 4 ... ... ... : B-2 00 . ... : ... .. C ... : ... .. . ... ... : ... .. 8 ... ... : ... .. . ... ... : G-4 01 8 P7C ...
ROW 4A : ... .. . ... ... ... : ... .. 2 ... ... ... : E-2 00 . ... : ... .. 6 ... : ... .. . ... ... : ... .. . ... ... : ... .. . ... ... : F#4 01 8 P82 ...
ROW 4B : ... .. A ... ... ... : ... .. 1 ... ... ... : D#2 00 . ... : ... .. 3 ... : ... .. . ... ... : ... .. . ... ... : ... .. . ... ... : F-4 01 8 P80 ...
ROW 4C : ... .. 8 ... ... ... : ... .. . ... ... ... : A#1 00 . ... : ... .. 2 ... : ... .. . ... ... : ... .. 7 ... ... : ... .. . ... ... : E-4 01 8 P7E ...
ROW 4D : ... .. 7 ... ... ... : ... .. 0 ... ... ... : ... .. . ... : ... .. 0 ... : ... .. . ... ... : ... .. . ... ... : ... .. . ... ... : ... .. . P7B ...
ROW 4E : A#2 00 D ... ... ... : C-5 00 6 P80 ... ... : ... .. . ... : ... .. F ... : ... .. . ... ... : A#3 01 9 ... ... : ... .. . ... ... : ... .. . P85 ...
ROW 4F : ... .. B ... ... ... : ... .. 4 ... ... ... : ... .. . ... : ... .. C ... : ... .. . ... ... : ... .. 8 ... ... : ... .. . ... ... : F#4 01 8 P7C ...
ROW 50 : ... .. . ... ... ... : ... .. 2 ... ... ... : ... .. . ... : ... .. 6 ... : ... .. . ... ... : ... .. . ... ... : ... .. . ... ... : G-4 01 8 ... ...
ROW 51 : ... .. 0 ... ... ... : ... .. 1 ... ... ... : ... .. . ... : ... .. 3 ... : ... .. . ... ... : --- .. . ... ... : ... .. . ... ... : F#4 01 8 P83 ...
ROW 52 : ... .. . ... ... ... : ... .. . ... ... ... : ... .. . ... : ... .. 2 ... : ... .. . ... ... : ... .. . ... ... : ... .. . ... ... : F-4 01 8 P80 ...
ROW 53 : ... .. . ... ... ... : ... .. 0 ... ... ... : ... .. . ... : ... .. 0 ... : ... .. . ... ... : ... .. . ... ... : ... .. . ... ... : E-4 01 8 P7F ...
ROW 54 : A#2 00 D P81 ... ... : B-4 00 6 P80 ... ... : F-4 00 . ... : 4-# 00 F ... : ... .. . ... ... : A#3 01 9 ... ... : ... .. . ... ... : ... .. . P7B ...
ROW 55 : ... .. B ... ... ... : ... .. 4 ... ... ... : ... .. . ... : ... .. C ... : ... .. . ... ... : ... .. 8 ... ... : ... .. . ... ... : ... .. . P83 ...
ROW 56 : ... .. . ... ... ... : ... .. 2 ... ... ... : ... .. . ... : ... .. 6 ... : ... .. . ... ... : ... .. . ... ... : ... .. . ... ... : F-4 01 8 P84 ...
ROW 57 : ... .. 0 ... ... ... : ... .. 1 ... ... ... : ... .. . ... : ... .. 3 ... : ... .. . ... ... : --- .. . ... ... : ... .. . ... ... : --- .. . ... ...
ROW 58 : ... .. . ... ... ... : ... .. . ... ... ... : ... .. . ... : ... .. 2 ... : ... .. . ... ... : ... .. . ... ... : ... .. . ... ... : ... .. . ... ...
ROW 59 : ... .. . ... ... ... : ... .. 0 ... ... ... : ... .. . ... : ... .. 0 ... : ... .. . ... ... : ... .. . ... ... : ... .. . ... ... : ... .. . ... ...
ROW 5A : A#2 00 D P81 ... ... : A#4 00 6 P80 ... ... : ... .. . ... : ... .. F ... : ... .. . ... ... : A#3 01 9 ... ... : ... .. . ... ... : ... .. . ... ...
ROW 5B : ... .. B ... ... ... : ... .. 4 ... ... ... : ... .. . ... : ... .. C ... : ... .. . ... ... : ... .. 8 ... ... : ... .. . ... ... : ... .. . ... ...
ROW 5C : ... .. . ... ... ... : ... .. 2 ... ... ... : ... .. . ... : ... .. 6 ... : ... .. . ... ... : ... .. . ... ... : ... .. . ... ... : ... .. . ... ...
ROW 5D : ... .. 0 ... ... ... : ... .. 1 ... ... ... : ... .. . ... : ... .. 3 ... : ... .. . ... ... : --- .. . ... ... : ... .. . ... ... : ... .. . ... ...
ROW 5E : ... .. . ... ... ... : ... .. . ... ... ... : ... .. . ... : ... .. 2 ... : ... .. . ... ... : ... .. . ... ... : ... .. . ... ... : ... .. . ... ...
ROW 5F : ... .. . ... ... ... : ... .. 0 ... ... ... : ... .. . ... : ... .. 0 ... : ... .. . ... ... : ... .. . ... ... : ... .. . ... ... : ... .. . ... ...
ROW 60 : D-2 00 F P81 ... ... : D-5 00 8 P80 ... ... : C#4 00 . ... : B-# 00 D ... : ... .. . ... ... : ... .. . ... ... : ... .. . ... ... : D-3 01 F P80 ...
ROW 61 : ... .. E ... ... ... : ... .. 6 ... ... ... : D#3 00 . ... : ... .. B ... : ... .. . ... ... : ... .. . ... ... : ... .. . ... ... : ... .. D P7F ...
ROW 62 : ... .. D ... ... ... : ... .. 3 ... ... ... : G#2 00 . ... : ... .. . ... : ... .. . ... ... : ... .. . ... ... : ... .. . ... ... : ... .. 8 P7E ...
ROW 63 : ... .. A ... ... ... : ... .. 1 ... ... ... : G-2 00 . ... : ... .. A ... : ... .. . ... ... : ... .. . ... ... : ... .. . ... ... : ... .. . P7F ...
ROW 64 : ... .. . ... ... ... : ... .. . ... ... ... : D-2 00 . ... : ... .. 8 ... : ... .. . ... ... : ... .. . ... ... : ... .. . ... ... : ... .. . P80 ...
ROW 65 : ... .. . ... ... ... : ... .. 0 ... ... ... : ... .. . ... : ... .. 7 ... : ... .. . ... ... : ... .. . ... ... : ... .. . ... ... : ... .. . P82 ...
ROW 66 : ... .. . ... ... ... : D#5 00 8 P80 ... ... : ... .. . ... : ... .. 6 ... : ... .. . ... ... : ... .. . ... ... : ... .. . ... ... : ... .. . ... ...
ROW 67 : ... .. . ... ... ... : ... .. 6 ... ... ... : ... .. . ... : ... .. . ... : ... .. . ... ... : ... .. . ... ... : ... .. . ... ... : ... .. . P80 ...
ROW 68 : ... .. . ... ... ... : ... .. 3 ... ... ... : ... .. . ... : ... .. 5 ... : ... .. . ... ... : ... .. . ... ... : ... .. . ... ... : ... .. . P7F ...
ROW 69 : ... .. . ... ... ... : ... .. 1 ... ... ... : ... .. . ... : ... .. . ... : ... .. . ... ... : ... .. . ... ... : ... .. . ... ... : ... .. . P7E ...
ROW 6A : ... .. . ... ... ... : ... .. . ... ... ... : ... .. . ... : ... .. 4 ... : ... .. . ... ... : ... .. . ... ... : ... .. . ... ... : ... .. . P7F ...
ROW 6B : ... .. . ... ... ... : ... .. 0 ... ... ... : --- .. . ... : ... .. . ... : ... .. . ... ... : ... .. . ... ... : ... .. . ... ... : ... .. . P80 ...
ROW 6C : ... .. . ... ... ... : D-5 00 8 P80 ... ... : C-4 00 . ... : D-# 00 F ... : ... .. . ... ... : A-3 01 9 ... ... : C-3 01 9 ... ... : ... .. . P81 ...
ROW 6D : ... .. . ... ... ... : ... .. 6 ... ... ... : ... .. . ... : ... .. C ... : ... .. . ... ... : ... .. 8 ... ... : ... .. 8 ... ... : ... .. . P82 ...
ROW 6E : ... .. . ... ... ... : ... .. 3 ... ... ... : ... .. . ... : ... .. 6 ... : ... .. . ... ... : ... .. . ... ... : ... .. . ... ... : ... .. . P80 ...
ROW 6F : ... .. . ... ... ... : ... .. 1 ... ... ... : ... .. . ... : ... .. 3 ... : ... .. . ... ... : --- .. . ... ... : --- .. . P7E ... : ... .. . ... ...
ROW 70 : ... .. . ... ... ... : ... .. . ... ... ... : ... .. . ... : ... .. 2 ... : ... .. . ... ... : ... .. . ... ... : ... .. . ... ... : ... .. . P7E ...
ROW 71 : ... .. . ... ... ... : ... .. 0 ... ... ... : --- .. . ... : ... .. 0 ... : ... .. . ... ... : ... .. . ... ... : ... .. . ... ... : ... .. . P7F ...
ROW 72 : E-2 00 F ... ... ... : D#5 00 8 P80 ... ... : C-4 00 . ... : ... .. F ... : ... .. . ... ... : A-3 01 9 ... ... : C-3 01 9 P80 ... : E-3 01 F P80 ...
ROW 73 : ... .. E ... ... ... : ... .. 6 ... ... ... : ... .. . ... : ... .. C ... : ... .. . ... ... : ... .. 8 ... ... : ... .. 8 ... ... : ... .. D P81 ...
ROW 74 : ... .. D ... ... ... : ... .. 3 ... ... ... : ... .. . ... : ... .. 6 ... : ... .. . ... ... : ... .. . ... ... : ... .. . ... ... : ... .. 8 P82 ...
ROW 75 : ... .. 0 ... ... ... : ... .. 1 ... ... ... : ... .. . ... : ... .. 3 ... : ... .. . ... ... : ... .. . ... ... : ... .. . ... ... : --- .. . P7F ...
ROW 76 : ... .. . ... ... ... : ... .. . ... ... ... : ... .. . ... : ... .. 2 ... : ... .. . ... ... : ... .. 7 ... ... : ... .. 7 ... ... : ... .. . ... ...
ROW 77 : ... .. . ... ... ... : ... .. 0 ... ... ... : --- .. . ... : ... .. 0 ... : ... .. . ... ... : ... .. . ... ... : ... .. . ... ... : ... .. . ... ...
ROW 78 : F#2 00 F P81 ... ... : D-5 00 8 P80 ... ... : C#4 00 . ... : B-# 00 D ... : ... .. . ... ... : ... .. . ... ... : ... .. . ... ... : F#3 01 F P7E ...
ROW 79 : ... .. E ... ... ... : ... .. 6 ... ... ... : D#3 00 . ... : ... .. B ... : ... .. . ... ... : ... .. 6 ... ... : ... .. 6 ... ... : ... .. D P80 ...
ROW 7A : ... .. D ... ... ... : ... .. 3 ... ... ... : G#2 00 . ... : ... .. . ... : ... .. . ... ... : ... .. . ... ... : ... .. . ... ... : ... .. 8 P81 ...
ROW 7B : ... .. A ... ... ... : ... .. 1 ... ... ... : G-2 00 . ... : ... .. A ... : ... .. . ... ... : --- .. . ... ... : --- .. . P7E ... : ... .. . P82 ...
ROW 7C : ... .. . ... ... ... : ... .. . ... ... ... : D-2 00 . ... : ... .. 8 ... : ... .. . ... ... : ... .. . ... ... : ... .. . ... ... : ... .. . P81 ...
ROW 7D : ... .. . ... ... ... : ... .. 0 ... ... ... : ... .. . ... : ... .. 7 ... : ... .. . ... ... : ... .. . ... ... : ... .. . ... ... : ... .. . P80 ...
ROW 7E : ... .. . ... ... ... : D#5 00 8 P80 ... ... : ... .. . ... : ... .. 6 ... : ... .. . ... ... : ... .. . ... ... : ... .. . ... ... : ... .. . P7E ...
ROW 7F : ... .. 2 ... ... ... : ... .. 6 ... ... ... : ... .. . ... : ... .. . ... : ... .. . ... ... : ... .. . ... ... : ... .. . ... ... : ... .. 4 ... ...
ROW 80 : ... .. . ... ... ... : ... .. 3 ... ... ... : ... .. . ... : ... .. 5 ... : ... .. . ... ... : ... .. . ... ... : ... .. . ... ... : ... .. . P80 ...
ROW 81 : ... .. . ... ... ... : ... .. 1 ... ... ... : ... .. . ... : ... .. . ... : ... .. . ... ... : ... .. . ... ... : ... .. . ... ... : ... .. 1 P81 ...
ROW 82 : ... .. 1 ... ... ... : ... .. . ... ... ... : ... .. . ... : ... .. 4 ... : ... .. . ... ... : ... .. . ... ... : ... .. . ... ... : ... .. . P82 ...
ROW 83 : ... .. . ... ... ... : ... .. 0 ... ... ... : --- .. . ... : ... .. . ... : ... .. . ... ... : ... .. . ... ... : ... .. . ... ... : ... .. . P81 ...
ROW 84 : D-2 00 F ... ... ... : D-5 00 8 P80 ... ... : C-4 00 . ... : D-# 00 F ... : ... .. . ... ... : A-3 01 9 ... ... : C-3 01 9 P80 ... : D-3 01 F P80 ...
ROW 85 : ... .. E ... ... ... : ... .. 6 ... ... ... : ... .. . ... : ... .. C ... : ... .. . ... ... : ... .. 8 ... ... : ... .. 8 ... ... : ... .. D P7E ...
ROW 86 : ... .. D ... ... ... : ... .. 3 ... ... ... : ... .. . ... : ... .. 6 ... : ... .. . ... ... : ... .. . ... ... : ... .. . ... ... : ... .. 8 ... ...
ROW 87 : ... .. A ... ... ... : ... .. 1 ... ... ... : ... .. . ... : ... .. 3 ... : ... .. . ... ... : --- .. . ... ... : --- .. . P7E ... : ... .. . P80 ...
ROW 88 : ... .. . ... ... ... : ... .. . ... ... ... : ... .. . ... : ... .. 2 ... : ... .. . ... ... : ... .. . ... ... : ... .. . ... ... : ... .. . P81 ...
ROW 89 : ... .. . ... ... ... : ... .. 0 ... ... ... : --- .. . ... : ... .. 0 ... : ... .. . ... ... : ... .. . ... ... : ... .. . ... ... : ... .. . P82 ...
ROW 8A : ... .. 0 ... ... ... : C-5 00 8 P80 ... ... : C-4 00 . ... : ... .. F ... : ... .. . ... ... : A-3 01 9 ... ... : C-3 01 9 P80 ... : --- .. . P7C ...
ROW 8B : ... .. . ... ... ... : ... .. 6 ... ... ... : ... .. . ... : ... .. C ... : ... .. . ... ... : ... .. 8 ... ... : ... .. 8 ... ... : ... .. . ... ...
ROW 8C : ... .. . ... ... ... : ... .. 3 ... ... ... : ... .. . ... : ... .. 6 ... : ... .. . ... ... : ... .. . ... ... : ... .. . ... ... : ... .. . ... ...
ROW 8D : ... .. . ... ... ... : ... .. 1 ... ... ... : ... .. . ... : ... .. 3 ... : ... .. . ... ... : ... .. . ... ... : ... .. . ... ... : ... .. . ... ...
ROW 8E : ... .. . ... ... ... : ... .. . ... ... ... : ... .. . ... : ... .. 2 ... : ... .. . ... ... : ... .. 7 ... ... : ... .. 7 ... ... : ... .. . ... ...
ROW 8F : ... .. . ... ... ... : ... .. 0 ... ... ... : --- .. . ... : ... .. 0 ... : ... .. . ... ... : ... .. . ... ... : ... .. . ... ... : ... .. . ... ...
ROW 90 : G-2 00 F P81 ... ... : A#4 00 8 P80 ... ... : F#4 00 . ... : B-# 00 D ... : ... .. . ... ... : ... .. . ... ... : ... .. . ... ... : G-3 01 F P82 ...
ROW 91 : ... .. E ... ... ... : ... .. 6 ... ... ... : G#3 00 . ... : ... .. B ... : ... .. . ... ... : ... .. 6 ... ... : ... .. 6 ... ... : ... .. D P81 ...
ROW 92 : ... .. D ... ... ... : ... .. 3 ... ... ... : C#3 00 . ... : ... .. . ... : ... .. . ... ... : ... .. . ... ... : ... .. . ... ... : ... .. 8 P80 ...
ROW 93 : ... .. A ... ... ... : ... .. 1 ... ... ... : C-3 00 . ... : ... .. A ... : ... .. . ... ... : --- .. . ... ... : --- .. . P7E ... : ... .. . P7F ...
ROW 94 : ... .. . ... ... ... : ... .. . ... ... ... : G-2 00 . ... : ... .. 8 ... : ... .. . ... ... : ... .. . ... ... : ... .. . ... ... : ... .. . P7E ...
ROW 95 : ... .. . ... ... ... : ... .. 0 ... ... ... : ... .. . ... : ... .. 7 ... : ... .. . ... ... : ... .. . ... ... : ... .. . ... ... : ... .. . P7F ...
ROW 96 : F#2 00 F ... ... ... : C-5 00 8 P80 ... ... : ... .. . ... : ... .. 6 ... : ... .. . ... ... : ... .. . ... ... : ... .. . ... ... : F#3 01 F P80 ...
ROW 97 : ... .. E ... ... ... : ... .. 6 ... ... ... : ... .. . ... : ... .. . ... : ... .. . ... ... : ... .. . ... ... : ... .. . ... ... : ... .. D P82 ...
ROW 98 : ... .. D ... ... ... : ... .. 3 ... ... ... : ... .. . ... : ... .. 5 ... : ... .. . ... ... : ... .. . ... ... : ... .. . ... ... : ... .. 8 ... ...
ROW 99 : ... .. 0 ... ... ... : ... .. 1 ... ... ... : ... .. . ... : ... .. . ... : ... .. . ... ... : ... .. . ... ... : ... .. . ... ... : --- .. . P7E ...
ROW 9A : ... .. . ... ... ... : ... .. . ... ... ... : ... .. . ... : ... .. 4 ... : ... .. . ... ... : ... .. . ... ... : ... .. . ... ... : ... .. . ... ...
ROW 9B : ... .. . ... ... ... : ... .. 0 ... ... ... : --- .. . ... : ... .. . ... : ... .. . ... ... : ... .. . ... ... : ... .. . ... ... : ... .. . ... ...
ROW 9C : G-2 00 F P81 ... ... : A#4 00 8 P80 ... ... : A#3 00 . ... : ... .. D ... : ... .. . ... ... : G-3 01 9 ... ... : A#2 01 9 P80 ... : G-3 01 F P7F ...
ROW 9D : ... .. E ... ... ... : ... .. 6 ... ... ... : ... .. . ... : ... .. B ... : ... .. . ... ... : ... .. 8 ... ... : ... .. 8 ... ... : ... .. D P80 ...
ROW 9E : ... .. D ... ... ... : ... .. 3 ... ... ... : ... .. . ... : ... .. . ... : ... .. . ... ... : ... .. . ... ... : ... .. . ... ... : ... .. 8 P82 ...
ROW 9F : ... .. 0 ... ... ... : ... .. 1 ... ... ... : ... .. . ... : ... .. A ... : ... .. . ... ... : --- .. . P81 ... : --- .. . P82 ... : --- .. . P81 ...
ROW A0 : ... .. . ... ... ... : ... .. . ... ... ... : ... .. . ... : ... .. 8 ... : ... .. . ... ... : ... .. . ... ... : ... .. . ... ... : ... .. . ... ...
ROW A1 : ... .. . ... ... ... : ... .. 0 ... ... ... : --- .. . ... : ... .. 7 ... : ... .. . ... ... : ... .. . ... ... : ... .. . ... ... : ... .. . ... ...
ROW A2 : A-2 00 F P81 ... ... : C-5 00 8 P80 ... ... : A#3 00 . ... : ... .. 6 ... : ... .. . ... ... : G-3 01 9 P80 ... : A#2 01 9 P80 ... : A-3 01 F P7E ...
ROW A3 : ... .. E ... ... ... : ... .. 6 ... ... ... : ... .. . ... : ... .. . ... : ... .. . ... ... : ... .. 8 ... ... : ... .. 8 ... ... : ... .. D P7F ...
ROW A4 : ... .. D ... ... ... : ... .. 3 ... ... ... : ... .. . ... : ... .. 5 ... : ... .. . ... ... : ... .. . ... ... : ... .. . ... ... : ... .. 8 P80 ...
ROW A5 : ... .. 0 ... ... ... : ... .. 1 ... ... ... : ... .. . ... : ... .. . ... : ... .. . ... ... : ... .. . ... ... : ... .. . ... ... : --- .. . P81 ...
ROW A6 : ... .. . ... ... ... : ... .. . ... ... ... : ... .. . ... : ... .. 4 ... : ... .. . ... ... : ... .. 7 ... ... : ... .. 7 ... ... : ... .. . ... ...
ROW A7 : ... .. . ... ... ... : ... .. 0 ... ... ... : --- .. . ... : ... .. . ... : ... .. . ... ... : ... .. . ... ... : ... .. . ... ... : ... .. . ... ...
ROW A8 : A#2 00 F P81 ... ... : A#4 00 8 P80 ... ... : F#4 00 . ... : ... .. D ... : ... .. . ... ... : ... .. . ... ... : ... .. . ... ... : A#3 01 F P7F ...
ROW A9 : ... .. E ... ... ... : ... .. 6 ... ... ... : G#3 00 . ... : ... .. B ... : ... .. . ... ... : ... .. 6 ... ... : ... .. 6 ... ... : ... .. D P7E ...
ROW AA : ... .. D ... ... ... : ... .. 3 ... ... ... : C#3 00 . ... : ... .. . ... : ... .. . ... ... : ... .. . ... ... : ... .. . ... ... : ... .. 8 P7F ...
ROW AB : ... .. A ... ... ... : ... .. 1 ... ... ... : C-3 00 . ... : ... .. A ... : ... .. . ... ... : --- .. . P81 ... : --- .. . P82 ... : ... .. . P80 ...
ROW AC : ... .. . ... ... ... : ... .. . ... ... ... : G-2 00 . ... : ... .. 8 ... : ... .. . ... ... : ... .. . ... ... : ... .. . ... ... : ... .. . P81 ...
ROW AD : ... .. . ... ... ... : ... .. 0 ... ... ... : ... .. . ... : ... .. 7 ... : ... .. . ... ... : ... .. . ... ... : ... .. . ... ... : ... .. . P82 ...
ROW AE : ... .. . ... ... ... : A-4 00 8 P80 ... ... : ... .. . ... : ... .. 6 ... : ... .. . ... ... : ... .. . ... ... : ... .. . ... ... : ... .. . P80 ...
ROW AF : ... .. . ... ... ... : ... .. 6 ... ... ... : ... .. . ... : ... .. . ... : ... .. . ... ... : ... .. . ... ... : ... .. . ... ... : ... .. . ... ...
ROW B0 : ... .. . ... ... ... : ... .. 3 ... ... ... : ... .. . ... : ... .. 5 ... : ... .. . ... ... : ... .. . ... ... : ... .. . ... ... : ... .. . P7E ...
ROW B1 : ... .. 0 ... ... ... : ... .. 1 ... ... ... : ... .. . ... : ... .. . ... : ... .. . ... ... : ... .. . ... ... : ... .. . ... ... : --- .. . P80 ...
ROW B2 : ... .. . ... ... ... : ... .. . ... ... ... : ... .. . ... : ... .. 4 ... : ... .. . ... ... : ... .. . ... ... : ... .. . ... ... : ... .. . ... ...
ROW B3 : ... .. . ... ... ... : ... .. 0 ... ... ... : --- .. . ... : ... .. . ... : ... .. . ... ... : ... .. . ... ... : ... .. . ... ... : ... .. . ... ...
ROW B4 : G-2 00 F P81 ... ... : A#4 00 8 P80 ... ... : A#3 00 . ... : D-# 00 F ... : ... .. . ... ... : G-3 01 9 P80 ... : A#2 01 9 P80 ... : G-3 01 F P82 ...
ROW B5 : ... .. E ... ... ... : ... .. 6 ... ... ... : ... .. . ... : ... .. C ... : ... .. . ... ... : ... .. 8 ... ... : ... .. 8 ... ... : ... .. D P81 ...
ROW B6 : ... .. D ... ... ... : ... .. 3 ... ... ... : ... .. . ... : ... .. 6 ... : ... .. . ... ... : ... .. . ... ... : ... .. . ... ... : ... .. 8 P80 ...
ROW B7 : ... .. A ... ... ... : ... .. 1 ... ... ... : ... .. . ... : ... .. 3 ... : ... .. . ... ... : --- .. . P81 ... : --- .. . P82 ... : ... .. . P7E ...
ROW B8 : ... .. . ... ... ... : ... .. . ... ... ... : ... .. . ... : ... .. 2 ... : ... .. . ... ... : ... .. . ... ... : ... .. . ... ... : ... .. . ... ...
ROW B9 : ... .. . ... ... ... : ... .. 0 ... ... ... : --- .. . ... : ... .. 0 ... : ... .. . ... ... : ... .. . ... ... : ... .. . ... ... : ... .. . P80 ...
ROW BA : ... .. . ... ... ... : C-5 00 8 P80 ... ... : A#3 00 . ... : ... .. F ... : ... .. . ... ... : G-3 01 9 P80 ... : A#2 01 9 P80 ... : ... .. . P81 ...
ROW BB : ... .. . ... ... ... : ... .. 6 ... ... ... : ... .. . ... : ... .. C ... : ... .. . ... ... : ... .. 8 ... ... : ... .. 8 ... ... : ... .. . P82 ...
ROW BC : ... .. . ... ... ... : ... .. 3 ... ... ... : ... .. . ... : ... .. 6 ... : ... .. . ... ... : ... .. . ... ... : ... .. . ... ... : ... .. . P81 ...
ROW BD : ... .. 0 ... ... ... : ... .. 1 ... ... ... : ... .. . ... : ... .. 3 ... : ... .. . ... ... : ... .. . ... ... : ... .. . ... ... : --- .. . P80 ...
ROW BE : ... .. . ... ... ... : ... .. . ... ... ... : ... .. . ... : ... .. 2 ... : ... .. . ... ... : ... .. 7 ... ... : ... .. 7 ... ... : ... .. . ... ...
ROW BF : ... .. . ... ... ... : ... .. 0 ... ... ... : --- .. . ... : ... .. 0 ... : ... .. . ... ... : ... .. . ... ... : ... .. . ... ... : ... .. . ... ...
ROW C0 : D-2 00 F P81 ... ... : D-5 00 8 P80 ... ... : C#4 00 . ... : B-# 00 D ... : ... .. . ... ... : ... .. . ... ... : ... .. . ... ... : D-3 01 F ... ...
ROW C1 : ... .. E ... ... ... : ... .. 6 ... ... ... : D#3 00 . ... : ... .. B ... : ... .. . ... ... : ... .. 6 ... ... : ... .. 6 ... ... : ... .. D P81 ...
ROW C2 : ... .. D ... ... ... : ... .. 3 ... ... ... : G#2 00 . ... : ... .. . ... : ... .. . ... ... : ... .. . ... ... : ... .. . ... ... : ... .. 8 P82 ...
ROW C3 : ... .. A ... ... ... : ... .. 1 ... ... ... : G-2 00 . ... : ... .. A ... : ... .. . ... ... : --- .. . P81 ... : --- .. . P82 ... : ... .. . P81 ...
ROW C4 : ... .. . ... ... ... : ... .. . ... ... ... : D-2 00 . ... : ... .. 8 ... : ... .. . ... ... : ... .. . ... ... : ... .. . ... ... : ... .. . P80 ...
ROW C5 : ... .. . ... ... ... : ... .. 0 ... ... ... : ... .. . ... : ... .. 7 ... : ... .. . ... ... : ... .. . ... ... : ... .. . ... ... : ... .. . P7E ...
ROW C6 : ... .. . ... ... ... : D#5 00 8 P80 ... ... : ... .. . ... : ... .. 6 ... : ... .. . ... ... : ... .. . ... ... : ... .. . ... ... : ... .. . ... ...
ROW C7 : ... .. . ... ... ... : ... .. 6 ... ... ... : ... .. . ... : ... .. . ... : ... .. . ... ... : ... .. . ... ... : ... .. . ... ... : ... .. . P80 ...
ROW C8 : ... .. . ... ... ... : ... .. 3 ... ... ... : ... .. . ... : ... .. 5 ... : ... .. . ... ... : ... .. . ... ... : ... .. . ... ... : ... .. . P81 ...
ROW C9 : ... .. . ... ... ... : ... .. 1 ... ... ... : ... .. . ... : ... .. . ... : ... .. . ... ... : ... .. . ... ... : ... .. . ... ... : ... .. . P82 ...
ROW CA : ... .. . ... ... ... : ... .. . ... ... ... : ... .. . ... : ... .. 4 ... : ... .. . ... ... : ... .. . ... ... : ... .. . ... ... : ... .. . P81 ...
ROW CB : ... .. . ... ... ... : ... .. 0 ... ... ... : --- .. . ... : ... .. . ... : ... .. . ... ... : ... .. . ... ... : ... .. . ... ... : ... .. . P80 ...
ROW CC : ... .. . ... ... ... : D-5 00 8 P80 ... ... : C-4 00 . ... : D-# 00 F ... : ... .. . ... ... : F#3 01 9 P80 ... : C-3 01 9 P80 ... : ... .. . P7F ...
ROW CD : ... .. . ... ... ... : ... .. 6 ... ... ... : ... .. . ... : ... .. C ... : ... .. . ... ... : ... .. 8 ... ... : ... .. 8 ... ... : ... .. . P7E ...
ROW CE : ... .. . ... ... ... : ... .. 3 ... ... ... : ... .. . ... : ... .. 6 ... : ... .. . ... ... : ... .. . ... ... : ... .. . ... ... : ... .. . P80 ...
ROW CF : ... .. 0 ... ... ... : ... .. 1 ... ... ... : ... .. . ... : ... .. 3 ... : ... .. . ... ... : --- .. . P7F ... : --- .. . P7E ... : --- .. . P84 ...
ROW D0 : ... .. . ... ... ... : ... .. . ... ... ... : ... .. . ... : ... .. 2 ... : ... .. . ... ... : ... .. . ... ... : ... .. . ... ... : ... .. . ... ...
ROW D1 : ... .. . ... ... ... : ... .. 0 ... ... ... : --- .. . ... : ... .. 0 ... : ... .. . ... ... : ... .. . ... ... : ... .. . ... ... : ... .. . ... ...
ROW D2 : E-2 00 F P81 ... ... : D#5 00 8 P80 ... ... : C-4 00 . ... : ... .. F ... : ... .. . ... ... : F#3 01 9 P80 ... : C-3 01 9 P80 ... : E-3 01 F P80 ...
ROW D3 : ... .. E ... ... ... : ... .. 6 ... ... ... : ... .. . ... : ... .. C ... : ... .. . ... ... : ... .. 8 ... ... : ... .. 8 ... ... : ... .. D P7F ...
ROW D4 : ... .. D ... ... ... : ... .. 3 ... ... ... : ... .. . ... : ... .. 6 ... : ... .. . ... ... : ... .. . ... ... : ... .. . ... ... : ... .. 8 P7E ...
ROW D5 : ... .. 0 ... ... ... : ... .. 1 ... ... ... : ... .. . ... : ... .. 3 ... : ... .. . ... ... : ... .. . ... ... : ... .. . ... ... : --- .. . P83 ...
ROW D6 : ... .. . ... ... ... : ... .. . ... ... ... : ... .. . ... : ... .. 2 ... : ... .. . ... ... : ... .. 7 ... ... : ... .. 7 ... ... : ... .. . ... ...
ROW D7 : ... .. . ... ... ... : ... .. 0 ... ... ... : --- .. . ... : ... .. 0 ... : ... .. . ... ... : ... .. . ... ... : ... .. . ... ... : ... .. . ... ...
ROW D8 : F#2 00 F P81 ... ... : D-5 00 8 P80 ... ... : C#4 00 . ... : B-# 00 D ... : ... .. . ... ... : ... .. . ... ... : ... .. . ... ... : F#3 01 F P82 ...
ROW D9 : ... .. E ... ... ... : ... .. 6 ... ... ... : D#3 00 . ... : ... .. B ... : ... .. . ... ... : ... .. 6 ... ... : ... .. 6 ... ... : ... .. D P80 ...
ROW DA : ... .. D ... ... ... : ... .. 3 ... ... ... : G#2 00 . ... : ... .. . ... : ... .. . ... ... : ... .. . ... ... : ... .. . ... ... : ... .. 8 P7F ...
ROW DB : ... .. A ... ... ... : ... .. 1 ... ... ... : G-2 00 . ... : ... .. A ... : ... .. . ... ... : --- .. . P7F ... : --- .. . P7E ... : ... .. . P7E ...
ROW DC : ... .. . ... ... ... : ... .. . ... ... ... : D-2 00 . ... : ... .. 8 ... : ... .. . ... ... : ... .. . ... ... : ... .. . ... ... : ... .. . P7F ...
ROW DD : ... .. . ... ... ... : ... .. 0 ... ... ... : ... .. . ... : ... .. 7 ... : ... .. . ... ... : ... .. . ... ... : ... .. . ... ... : ... .. . P80 ...
ROW DE : ... .. . ... ... ... : D#5 00 8 P80 ... ... : ... .. . ... : ... .. 6 ... : ... .. . ... ... : ... .. . ... ... : ... .. . ... ... : ... .. . P82 ...
ROW DF : ... .. . ... ... ... : ... .. 6 ... ... ... : ... .. . ... : ... .. . ... : ... .. . ... ... : ... .. . ... ... : ... .. . ... ... : ... .. . ... ...
ROW E0 : ... .. . ... ... ... : ... .. 3 ... ... ... : ... .. . ... : ... .. 5 ... : ... .. . ... ... : ... .. . ... ... : ... .. . ... ... : ... .. . P80 ...
ROW E1 : ... .. . ... ... ... : ... .. 1 ... ... ... : ... .. . ... : ... .. . ... : ... .. . ... ... : ... .. . ... ... : ... .. . ... ... : ... .. . P7F ...
ROW E2 : ... .. . ... ... ... : ... .. . ... ... ... : ... .. . ... : ... .. 4 ... : ... .. . ... ... : ... .. . ... ... : ... .. . ... ... : ... .. . P7E ...
ROW E3 : ... .. . ... ... ... : ... .. 0 ... ... ... : --- .. . ... : ... .. . ... : ... .. . ... ... : ... .. . ... ... : ... .. . ... ... : ... .. . P7F ...
ROW E4 : A-2 00 F ... ... ... : D-5 00 8 P80 ... ... : C-4 00 . ... : D-# 00 F ... : ... .. . ... ... : F#3 01 9 P80 ... : C-3 01 9 P80 ... : A-3 01 F P80 ...
ROW E5 : ... .. E ... ... ... : ... .. 6 ... ... ... : ... .. . ... : ... .. C ... : ... .. . ... ... : ... .. 8 ... ... : ... .. 8 ... ... : ... .. D P82 ...
ROW E6 : ... .. D ... ... ... : ... .. 3 ... ... ... : ... .. . ... : ... .. 6 ... : ... .. . ... ... : ... .. . ... ... : ... .. . ... ... : ... .. 8 ... ...
ROW E7 : ... .. A ... ... ... : ... .. 1 ... ... ... : ... .. . ... : ... .. 3 ... : ... .. . ... ... : --- .. . P7F ... : --- .. . P7E ... : ... .. . P80 ...
ROW E8 : ... .. . ... ... ... : ... .. . ... ... ... : ... .. . ... : ... .. 2 ... : ... .. . ... ... : ... .. . ... ... : ... .. . ... ... : ... .. . P7F ...
ROW E9 : ... .. . ... ... ... : ... .. 0 ... ... ... : --- .. . ... : ... .. 0 ... : ... .. . ... ... : ... .. . ... ... : ... .. . ... ... : ... .. . P7E ...
ROW EA : ... .. . ... ... ... : C-5 00 8 P80 ... ... : C-4 00 . ... : ... .. F ... : ... .. . ... ... : F#3 01 9 P80 ... : C-3 01 9 P80 ... : ... .. . P7F ...
ROW EB : ... .. . ... ... ... : ... .. 6 ... ... ... : ... .. . ... : ... .. C ... : ... .. . ... ... : ... .. 8 ... ... : ... .. 8 ... ... : ... .. . P80 ...
ROW EC : ... .. . ... ... ... : ... .. 3 ... ... ... : ... .. . ... : ... .. 6 ... : ... .. . ... ... : ... .. . ... ... : ... .. . ... ... : ... .. . P81 ...
ROW ED : ... .. 0 ... ... ... : ... .. 1 ... ... ... : ... .. . ... : ... .. 3 ... : ... .. . ... ... : --- .. . P7F ... : ... .. . ... ... : --- .. . P80 ...
ROW EE : ... .. . ... ... ... : ... .. . ... ... ... : ... .. . ... : ... .. 2 ... : ... .. . ... ... : ... .. . ... ... : ... .. 7 ... ... : ... .. . ... ...
ROW EF : ... .. . ... ... ... : ... .. 0 ... ... ... : --- .. . ... : ... .. 0 ... : ... .. . ... ... : ... .. . ... ... : ... .. . ... ... : ... .. . ... ...
ROW F0 : A#2 00 F P81 ... ... : A#4 00 8 P80 ... ... : F#5 00 . ... : B-# 00 D ... : ... .. . ... ... : G#4 01 9 P80 ... : C#4 01 9 ... ... : A#3 01 F P7E ...
ROW F1 : ... .. E ... ... ... : ... .. 6 ... ... ... : G#4 00 . ... : ... .. B ... : ... .. . ... ... : ... .. 8 ... ... : ... .. 8 ... ... : ... .. D P7F ...
ROW F2 : ... .. D ... ... ... : ... .. 3 ... ... ... : C#4 00 . ... : ... .. . ... : ... .. . ... ... : ... .. . ... ... : ... .. . ... ... : ... .. 8 P80 ...
ROW F3 : ... .. A ... ... ... : ... .. 1 ... ... ... : C-4 00 . ... : ... .. A ... : ... .. . ... ... : ... .. . ... ... : ... .. . ... ... : ... .. . P81 ...
ROW F4 : ... .. . ... ... ... : ... .. . ... ... ... : G-3 00 . ... : ... .. 8 ... : ... .. . ... ... : A-4 01 7 P7D ... : ... .. 7 P85 ... : ... .. . P82 ...
ROW F5 : ... .. . ... ... ... : ... .. 0 ... ... ... : ... .. . ... : ... .. 7 ... : ... .. . ... ... : ... .. . P80 ... : D-4 01 7 P7E ... : ... .. . P81 ...
ROW F6 : ... .. . ... ... ... : A-4 00 8 P80 ... ... : ... .. . ... : ... .. 6 ... : ... .. . ... ... : ... .. . ... ... : ... .. . P80 ... : ... .. . P80 ...
ROW F7 : ... .. . ... ... ... : ... .. 6 ... ... ... : ... .. . ... : ... .. . ... : ... .. . ... ... : ... .. 6 ... ... : ... .. 6 ... ... : ... .. . P7E ...
ROW F8 : ... .. . ... ... ... : ... .. 3 ... ... ... : ... .. . ... : ... .. 5 ... : ... .. . ... ... : ... .. . ... ... : ... .. . ... ... : ... .. . ... ...
ROW F9 : ... .. . ... ... ... : ... .. 1 ... ... ... : ... .. . ... : ... .. . ... : ... .. . ... ... : ... .. . ... ... : ... .. . ... ... : ... .. . P80 ...
ROW FA : ... .. . ... ... ... : ... .. . ... ... ... : ... .. . ... : ... .. 4 ... : ... .. . ... ... : ... .. . ... ... : ... .. . ... ... : ... .. . P81 ...
ROW FB : ... .. . ... ... ... : ... .. 0 ... ... ... : ... .. . ... : ... .. . ... : ... .. . ... ... : ... .. . ... ... : ... .. . ... ... : ... .. . P82 ...
ROW FC : ... .. . ... ... ... : A#4 00 8 P80 ... ... : E-5 00 . ... : ... .. D ... : ... .. . ... ... : ... .. 9 ... ... : ... .. 9 ... ... : ... .. . P81 ...
ROW FD : ... .. . ... ... ... : ... .. 6 ... ... ... : F#4 00 . ... : ... .. B ... : ... .. . ... ... : ... .. 8 ... ... : ... .. 8 ... ... : ... .. . P80 ...
ROW FE : ... .. . ... ... ... : ... .. 3 ... ... ... : B-3 00 . ... : ... .. . ... : ... .. . ... ... : ... .. . ... ... : ... .. . ... ... : ... .. . P7E ...
ROW FF : ... .. . ... ... ... : ... .. 1 ... ... ... : A#3 00 . ... : ... .. A ... : ... .. . ... ... : ... .. . ... ... : ... .. . ... ... : ... .. . ... ...

PATTERN 1C
ROW 00 : ... .. . ... ... ... : ... .. . ... ... ... : F-3 00 . ... : ... .. 8 ... : ... .. . ... ... : ... .. 7 ... ... : ... .. 7 ... ... : ... .. . P80 ...
ROW 01 : ... .. . ... ... ... : ... .. 0 ... ... ... : ... .. . ... : ... .. 7 ... : ... .. . ... ... : ... .. . ... ... : ... .. . ... ... : ... .. . P81 ...
ROW 02 : ... .. . ... ... ... : A-4 00 8 P80 ... ... : ... .. . ... : ... .. 6 ... : ... .. . ... ... : ... .. . ... ... : ... .. . ... ... : ... .. . P82 ...
ROW 03 : ... .. . ... ... ... : ... .. 6 ... ... ... : ... .. . ... : ... .. . ... : ... .. . ... ... : ... .. 6 ... ... : ... .. 6 ... ... : ... .. . P81 ...
ROW 04 : ... .. . ... ... ... : ... .. 3 ... ... ... : ... .. . ... : ... .. 5 ... : ... .. . ... ... : ... .. . ... ... : ... .. . ... ... : ... .. . P80 ...
ROW 05 : ... .. . ... ... ... : ... .. 1 ... ... ... : ... .. . ... : ... .. . ... : ... .. . ... ... : ... .. . ... ... : ... .. . ... ... : ... .. . P7E ...
ROW 06 : ... .. . ... ... ... : ... .. . ... ... ... : ... .. . ... : ... .. 4 ... : ... .. . ... ... : ... .. 5 ... ... : ... .. 5 ... ... : ... .. . ... ...
ROW 07 : ... .. . ... ... ... : ... .. 0 ... ... ... : ... .. . ... : ... .. . ... : ... .. . ... ... : ... .. . ... ... : ... .. . ... ... : ... .. . P80 ...
ROW 08 : G-2 00 F ... ... ... : A#4 00 8 P80 ... ... : D#5 00 . ... : ... .. D ... : ... .. . ... ... : D-4 01 9 ... ... : G-3 01 9 ... ... : G-3 01 F P81 ...
ROW 09 : ... .. E ... ... ... : ... .. 6 ... ... ... : F-4 00 . ... : ... .. B ... : ... .. . ... ... : ... .. 8 ... ... : ... .. 8 ... ... : ... .. D P82 ...
ROW 0A : ... .. D ... ... ... : ... .. 3 ... ... ... : A#3 00 . ... : ... .. . ... : ... .. . ... ... : ... .. . ... ... : ... .. . ... ... : ... .. 8 P81 ...
ROW 0B : ... .. A ... ... ... : ... .. 1 ... ... ... : A-3 00 . ... : ... .. A ... : ... .. . ... ... : ... .. . ... ... : ... .. . ... ... : ... .. . P80 ...
ROW 0C : ... .. . ... ... ... : ... .. . ... ... ... : E-3 00 . ... : ... .. 8 ... : ... .. . ... ... : ... .. 7 ... ... : ... .. 7 ... ... : ... .. . P7F ...
ROW 0D : ... .. . ... ... ... : ... .. 0 ... ... ... : ... .. . ... : ... .. 7 ... : ... .. . ... ... : ... .. . ... ... : ... .. . ... ... : ... .. . P7E ...
ROW 0E : ... .. . ... ... ... : A-4 00 8 P80 ... ... : ... .. . ... : ... .. 6 ... : ... .. . ... ... : ... .. . ... ... : ... .. . ... ... : ... .. . P80 ...
ROW 0F : F#2 00 F ... ... ... : ... .. 6 ... ... ... : ... .. . ... : ... .. . ... : ... .. . ... ... : ... .. 6 ... ... : ... .. 6 ... ... : F#3 01 F ... ...
ROW 10 : ... .. E ... ... ... : ... .. 3 ... ... ... : ... .. . ... : ... .. 5 ... : ... .. . ... ... : ... .. . ... ... : ... .. . ... ... : ... .. D P82 ...
ROW 11 : ... .. D ... ... ... : ... .. 1 ... ... ... : ... .. . ... : ... .. . ... : ... .. . ... ... : ... .. . ... ... : ... .. . ... ... : ... .. 8 P81 ...
ROW 12 : ... .. A ... ... ... : ... .. . ... ... ... : ... .. . ... : ... .. 4 ... : ... .. . ... ... : ... .. . ... ... : ... .. . ... ... : ... .. . P80 ...
ROW 13 : F-2 00 F ... ... ... : ... .. 0 ... ... ... : ... .. . ... : ... .. . ... : ... .. . ... ... : ... .. . ... ... : ... .. . ... ... : F-3 01 F P7F ...
ROW 14 : ... .. E ... ... ... : G-4 00 8 P80 ... ... : D-5 00 . ... : D-# 00 F ... : ... .. . ... ... : ... .. 9 ... ... : ... .. 9 ... ... : ... .. D P7E ...
ROW 15 : ... .. D ... ... ... : ... .. 6 ... ... ... : E-4 00 . ... : ... .. C ... : ... .. . ... ... : ... .. 8 ... ... : ... .. 8 ... ... : ... .. 8 P7F ...
ROW 16 : ... .. A ... ... ... : ... .. 3 ... ... ... : A-3 00 . ... : ... .. 6 ... : ... .. . ... ... : ... .. . ... ... : ... .. . ... ... : ... .. . P80 ...
ROW 17 : ... .. . ... ... ... : ... .. 1 ... ... ... : G#3 00 . ... : ... .. 3 ... : ... .. . ... ... : ... .. . ... ... : ... .. . ... ... : ... .. . P82 ...
ROW 18 : E-2 00 F ... ... ... : ... .. . ... ... ... : D#3 00 . ... : ... .. 2 ... : ... .. . ... ... : ... .. 7 ... ... : ... .. 7 ... ... : E-3 01 F ... ...
ROW 19 : ... .. E ... ... ... : ... .. 0 ... ... ... : ... .. . ... : ... .. 0 ... : ... .. . ... ... : ... .. . ... ... : ... .. . ... ... : ... .. D P80 ...
ROW 1A : ... .. D ... ... ... : ... .. . ... ... ... : ... .. . ... : ... .. F ... : ... .. . ... ... : ... .. . ... ... : ... .. . ... ... : ... .. 8 P7F ...
ROW 1B : ... .. A ... ... ... : ... .. . ... ... ... : ... .. . ... : ... .. C ... : ... .. . ... ... : ... .. 6 ... ... : ... .. 6 ... ... : ... .. . P7E ...
ROW 1C : D#2 00 F ... ... ... : ... .. . ... ... ... : ... .. . ... : ... .. 6 ... : ... .. . ... ... : ... .. . ... ... : ... .. . ... ... : D#3 01 F P7F ...
ROW 1D : ... .. E ... ... ... : ... .. . ... ... ... : ... .. . ... : ... .. 3 ... : ... .. . ... ... : --- .. . ... ... : --- .. . P81 ... : ... .. D P80 ...
ROW 1E : ... .. D ... ... ... : ... .. . ... ... ... : ... .. . ... : ... .. 2 ... : ... .. . ... ... : ... .. . ... ... : ... .. . ... ... : ... .. 8 P82 ...
ROW 1F : ... .. . ... ... ... : ... .. . ... ... ... : ... .. . ... : ... .. . ... : ... .. . ... ... : ... .. . ... ... : ... .. . ... ... : ... .. . ... ...
ROW 20 : ... .. . ... ... ... : ... .. . ... ... ... : ... .. . ... : ... .. . ... : ... .. . ... ... : ... .. . ... ... : ... .. . ... ... : ... .. . ... ...
ROW 21 : ... .. . ... ... ... : ... .. . ... ... ... : ... .. . ... : ... .. . ... : ... .. . ... ... : ... .. . ... ... : ... .. . ... ... : ... .. . ... ...
ROW 22 : ... .. . ... ... ... : ... .. . ... ... ... : ... .. . ... : ... .. . ... : ... .. . ... ... : ... .. . ... ... : ... .. . ... ... : ... .. . ... ...
ROW 23 : ... .. . ... ... ... : ... .. . ... ... ... : ... .. . ... : ... .. . ... : ... .. . ... ... : ... .. . ... ... : ... .. . ... ... : ... .. . ... ...
ROW 24 : ... .. . ... ... ... : ... .. . ... ... ... : ... .. . ... : ... .. . ... : ... .. . ... ... : ... .. . ... ... : ... .. . ... ... : ... .. . ... ...
ROW 25 : ... .. . ... ... ... : ... .. . ... ... ... : ... .. . ... : ... .. . ... : ... .. . ... ... : ... .. . ... ... : ... .. . ... ... : ... .. . ... ...
ROW 26 : ... .. . ... ... ... : ... .. . ... ... ... : ... .. . ... : ... .. . ... : ... .. . ... ... : ... .. . ... ... : ... .. . ... ... : ... .. . ... ...
ROW 27 : ... .. . ... ... ... : ... .. . ... ... ... : ... .. . ... : ... .. . ... : ... .. . ... ... : ... .. . ... ... : ... .. . ... ... : ... .. . ... ...
ROW 28 : ... .. . ... ... ... : ... .. . ... ... ... : ... .. . ... : ... .. . ... : ... .. . ... ... : ... .. . ... ... : ... .. . ... ... : ... .. . ... ...
ROW 29 : ... .. . ... ... ... : ... .. . ... ... ... : ... .. . ... : ... .. . ... : ... .. . ... ... : ... .. . ... ... : ... .. . ... ... : ... .. . ... ...
ROW 2A : ... .. . ... ... ... : ... .. . ... ... ... : ... .. . ... : ... .. . ... : ... .. . ... ... : ... .. . ... ... : ... .. . ... ... : ... .. . ... ...
ROW 2B : ... .. . ... ... ... : ... .. . ... ... ... : ... .. . ... : ... .. . ... : ... .. . ... ... : ... .. . ... ... : ... .. . ... ... : ... .. . ... ...
ROW 2C : ... .. . ... ... ... : ... .. . ... ... ... : ... .. . ... : ... .. . ... : ... .. . ... ... : ... .. . ... ... : ... .. . ... ... : ... .. . ... ...
ROW 2D : ... .. . ... ... ... : ... .. . ... ... ... : ... .. . ... : ... .. . ... : ... .. . ... ... : ... .. . ... ... : ... .. . ... ... : ... .. . ... ...
ROW 2E : ... .. . ... ... ... : ... .. . ... ... ... : ... .. . ... : ... .. . ... : ... .. . ... ... : ... .. . ... ... : ... .. . ... ... : ... .. . ... ...
ROW 2F : ... .. . ... ... ... : ... .. . ... ... ... : ... .. . ... : ... .. . ... : ... .. . ... ... : ... .. . ... ... : ... .. . ... ... : ... .. . ... ...
ROW 30 : ... .. . ... ... ... : ... .. . ... ... ... : ... .. . ... : ... .. . ... : ... .. . ... ... : ... .. . ... ... : ... .. . ... ... : ... .. . ... ...
ROW 31 : ... .. . ... ... ... : ... .. . ... ... ... : ... .. . ... : ... .. . ... : ... .. . ... ... : ... .. . ... ... : ... .. . ... ... : ... .. . ... ...
ROW 32 : ... .. . ... ... ... : ... .. . ... ... ... : ... .. . ... : ... .. . ... : ... .. . ... ... : ... .. . ... ... : ... .. . ... ... : ... .. . ... ...
ROW 33 : ... .. . ... ... ... : ... .. . ... ... ... : ... .. . ... : ... .. . ... : ... .. . ... ... : ... .. . ... ... : ... .. . ... ... : ... .. . ... ...
ROW 34 : ... .. . ... ... ... : ... .. . ... ... ... : ... .. . ... : ... .. . ... : ... .. . ... ... : ... .. . ... ... : ... .. . ... ... : ... .. . ... ...
ROW 35 : ... .. . ... ... ... : ... .. . ... ... ... : ... .. . ... : ... .. . ... : ... .. . ... ... : ... .. . ... ... : ... .. . ... ... : ... .. . ... ...
ROW 36 : ... .. . ... ... ... : ... .. . ... ... ... : ... .. . ... : ... .. . ... : ... .. . ... ... : ... .. . ... ... : ... .. . ... ... : ... .. . ... ...
ROW 37 : ... .. . ... ... ... : ... .. . ... ... ... : ... .. . ... : ... .. . ... : ... .. . ... ... : ... .. . ... ... : ... .. . ... ... : ... .. . ... ...
ROW 38 : ... .. . ... ... ... : ... .. . ... ... ... : ... .. . ... : ... .. . ... : ... .. . ... ... : ... .. . ... ... : ... .. . ... ... : ... .. . ... ...
ROW 39 : ... .. . ... ... ... : ... .. . ... ... ... : ... .. . ... : ... .. . ... : ... .. . ... ... : ... .. . ... ... : ... .. . ... ... : ... .. . ... ...
ROW 3A : ... .. . ... ... ... : ... .. . ... ... ... : ... .. . ... : ... .. . ... : ... .. . ... ... : ... .. . ... ... : ... .. . ... ... : ... .. . ... ...
ROW 3B : ... .. . ... ... ... : ... .. . ... ... ... : ... .. . ... : ... .. . ... : ... .. . ... ... : ... .. . ... ... : ... .. . ... ... : ... .. . ... ...
ROW 3C : ... .. . ... ... ... : ... .. . ... ... ... : ... .. . ... : ... .. . ... : ... .. . ... ... : ... .. . ... ... : ... .. . ... ... : ... .. . ... ...
ROW 3D : ... .. . ... ... ... : ... .. . ... ... ... : ... .. . ... : ... .. . ... : ... .. . ... ... : ... .. . ... ... : ... .. . ... ... : ... .. . ... ...
ROW 3E : ... .. . ... ... ... : ... .. . ... ... ... : ... .. . ... : ... .. . ... : ... .. . ... ... : ... .. . ... ... : ... .. . ... ... : ... .. . ... ...
ROW 3F : ... .. . ... ... ... : ... .. . ... ... ... : ... .. . ... : ... .. . ... : ... .. . ... ... : ... .. . ... ... : ... .. . ... ... : ... .. . ... ...
ROW 40 : ... .. . ... ... ... : ... .. . ... ... ... : ... .. . ... : ... .. . ... : ... .. . ... ... : ... .. . ... ... : ... .. . ... ... : ... .. . ... ...
ROW 41 : ... .. . ... ... ... : ... .. . ... ... ... : ... .. . ... : ... .. . ... : ... .. . ... ... : ... .. . ... ... : ... .. . ... ... : ... .. . ... ...
ROW 42 : ... .. . ... ... ... : ... .. . ... ... ... : ... .. . ... : ... .. . ... : ... .. . ... ... : ... .. . ... ... : ... .. . ... ... : ... .. . ... ...
ROW 43 : ... .. . ... ... ... : ... .. . ... ... ... : ... .. . ... : ... .. . ... : ... .. . ... ... : ... .. . ... ... : ... .. . ... ... : ... .. . ... ...
ROW 44 : ... .. . ... ... ... : ... .. . ... ... ... : ... .. . ... : ... .. . ... : ... .. . ... ... : ... .. . ... ... : ... .. . ... ... : ... .. . ... ...
ROW 45 : ... .. . ... ... ... : ... .. . ... ... ... : ... .. . ... : ... .. . ... : ... .. . ... ... : ... .. . ... ... : ... .. . ... ... : ... .. . ... ...
ROW 46 : ... .. . ... ... ... : ... .. . ... ... ... : ... .. . ... : ... .. . ... : ... .. . ... ... : ... .. . ... ... : ... .. . ... ... : ... .. . ... ...
ROW 47 : ... .. . ... ... ... : ... .. . ... ... ... : ... .. . ... : ... .. . ... : ... .. . ... ... : ... .. . ... ... : ... .. . ... ... : ... .. . ... ...
ROW 48 : ... .. . ... ... ... : ... .. . ... ... ... : ... .. . ... : ... .. . ... : ... .. . ... ... : ... .. . ... ... : ... .. . ... ... : ... .. . ... ...
ROW 49 : ... .. . ... ... ... : ... .. . ... ... ... : ... .. . ... : ... .. . ... : ... .. . ... ... : ... .. . ... ... : ... .. . ... ... : ... .. . ... ...
ROW 4A : ... .. . ... ... ... : ... .. . ... ... ... : ... .. . ... : ... .. . ... : ... .. . ... ... : ... .. . ... ... : ... .. . ... ... : ... .. . ... ...
ROW 4B : ... .. . ... ... ... : ... .. . ... ... ... : ... .. . ... : ... .. . ... : ... .. . ... ... : ... .. . ... ... : ... .. . ... ... : ... .. . ... ...
ROW 4C : ... .. . ... ... ... : ... .. . ... ... ... : ... .. . ... : ... .. . ... : ... .. . ... ... : ... .. . ... ... : ... .. . ... ... : ... .. . ... ...
ROW 4D : ... .. . ... ... ... : ... .. . ... ... ... : ... .. . ... : ... .. . ... : ... .. . ... ... : ... .. . ... ... : ... .. . ... ... : ... .. . ... ...
ROW 4E : ... .. . ... ... ... : ... .. . ... ... ... : ... .. . ... : ... .. . ... : ... .. . ... ... : ... .. . ... ... : ... .. . ... ... : ... .. . ... ...
ROW 4F : ... .. . ... ... ... : ... .. . ... ... ... : ... .. . ... : ... .. . ... : ... .. . ... ... : ... .. . ... ... : ... .. . ... ... : ... .. . ... ...
ROW 50 : ... .. . ... ... ... : ... .. . ... ... ... : ... .. . ... : ... .. . ... : ... .. . ... ... : ... .. . ... ... : ... .. . ... ... : ... .. . ... ...
ROW 51 : ... .. . ... ... ... : ... .. . ... ... ... : ... .. . ... : ... .. . ... : ... .. . ... ... : ... .. . ... ... : ... .. . ... ... : ... .. . ... ...
ROW 52 : ... .. . ... ... ... : ... .. . ... ... ... : ... .. . ... : ... .. . ... : ... .. . ... ... : ... .. . ... ... : ... .. . ... ... : ... .. . ... ...
ROW 53 : ... .. . ... ... ... : ... .. . ... ... ... : ... .. . ... : ... .. . ... : ... .. . ... ... : ... .. . ... ... : ... .. . ... ... : ... .. . ... ...
ROW 54 : ... .. . ... ... ... : ... .. . ... ... ... : ... .. . ... : ... .. . ... : ... .. . ... ... : ... .. . ... ... : ... .. . ... ... : ... .. . ... ...
ROW 55 : ... .. . ... ... ... : ... .. . ... ... ... : ... .. . ... : ... .. . ... : ... .. . ... ... : ... .. . ... ... : ... .. . ... ... : ... .. . ... ...
ROW 56 : ... .. . ... ... ... : ... .. . ... ... ... : ... .. . ... : ... .. . ... : ... .. . ... ... : ... .. . ... ... : ... .. . ... ... : ... .. . ... ...
ROW 57 : ... .. . ... ... ... : ... .. . ... ... ... : ... .. . ... : ... .. . ... : ... .. . ... ... : ... .. . ... ... : ... .. . ... ... : ... .. . ... ...
ROW 58 : ... .. . ... ... ... : ... .. . ... ... ... : ... .. . ... : ... .. . ... : ... .. . ... ... : ... .. . ... ... : ... .. . ... ... : ... .. . ... ...
ROW 59 : ... .. . ... ... ... : ... .. . ... ... ... : ... .. . ... : ... .. . ... : ... .. . ... ... : ... .. . ... ... : ... .. . ... ... : ... .. . ... ...
ROW 5A : ... .. . ... ... ... : ... .. . ... ... ... : ... .. . ... : ... .. . ... : ... .. . ... ... : ... .. . ... ... : ... .. . ... ... : ... .. . ... ...
ROW 5B : ... .. . ... ... ... : ... .. . ... ... ... : ... .. . ... : ... .. . ... : ... .. . ... ... : ... .. . ... ... : ... .. . ... ... : ... .. . ... ...
ROW 5C : ... .. . ... ... ... : ... .. . ... ... ... : ... .. . ... : ... .. . ... : ... .. . ... ... : ... .. . ... ... : ... .. . ... ... : ... .. . ... ...
ROW 5D : ... .. . ... ... ... : ... .. . ... ... ... : ... .. . ... : ... .. . ... : ... .. . ... ... : ... .. . ... ... : ... .. . ... ... : ... .. . ... ...
ROW 5E : ... .. . ... ... ... : ... .. . ... ... ... : ... .. . ... : ... .. . ... : ... .. . ... ... : ... .. . ... ... : ... .. . ... ... : ... .. . ... ...
ROW 5F : ... .. . ... ... ... : ... .. . ... ... ... : ... .. . ... : ... .. . ... : ... .. . ... ... : ... .. . ... ... : ... .. . ... ... : ... .. . ... ...
ROW 60 : ... .. . ... ... ... : ... .. . ... ... ... : ... .. . ... : ... .. . ... : ... .. . ... ... : ... .. . ... ... : ... .. . ... ... : ... .. . ... ...
ROW 61 : ... .. . ... ... ... : ... .. . ... ... ... : ... .. . ... : ... .. . ... : ... .. . ... ... : ... .. . ... ... : ... .. . ... ... : ... .. . ... ...
ROW 62 : ... .. . ... ... ... : ... .. . ... ... ... : ... .. . ... : ... .. . ... : ... .. . ... ... : ... .. . ... ... : ... .. . ... ... : ... .. . ... ...
ROW 63 : ... .. . ... ... ... : ... .. . ... ... ... : ... .. . ... : ... .. . ... : ... .. . ... ... : ... .. . ... ... : ... .. . ... ... : ... .. . ... ...
ROW 64 : ... .. . ... ... ... : ... .. . ... ... ... : ... .. . ... : ... .. . ... : ... .. . ... ... : ... .. . ... ... : ... .. . ... ... : ... .. . ... ...
ROW 65 : ... .. . ... ... ... : ... .. . ... ... ... : ... .. . ... : ... .. . ... : ... .. . ... ... : ... .. . ... ... : ... .. . ... ... : ... .. . ... ...
ROW 66 : ... .. . ... ... ... : ... .. . ... ... ... : ... .. . ... : ... .. . ... : ... .. . ... ... : ... .. . ... ... : ... .. . ... ... : ... .. . ... ...
ROW 67 : ... .. . ... ... ... : ... .. . ... ... ... : ... .. . ... : ... .. . ... : ... .. . ... ... : ... .. . ... ... : ... .. . ... ... : ... .. . ... ...
ROW 68 : ... .. . ... ... ... : ... .. . ... ... ... : ... .. . ... : ... .. . ... : ... .. . ... ... : ... .. . ... ... : ... .. . ... ... : ... .. . ... ...
ROW 69 : ... .. . ... ... ... : ... .. . ... ... ... : ... .. . ... : ... .. . ... : ... .. . ... ... : ... .. . ... ... : ... .. . ... ... : ... .. . ... ...
ROW 6A : ... .. . ... ... ... : ... .. . ... ... ... : ... .. . ... : ... .. . ... : ... .. . ... ... : ... .. . ... ... : ... .. . ... ... : ... .. . ... ...
ROW 6B : ... .. . ... ... ... : ... .. . ... ... ... : ... .. . ... : ... .. . ... : ... .. . ... ... : ... .. . ... ... : ... .. . ... ... : ... .. . ... ...
ROW 6C : ... .. . ... ... ... : ... .. . ... ... ... : ... .. . ... : ... .. . ... : ... .. . ... ... : ... .. . ... ... : ... .. . ... ... : ... .. . ... ...
ROW 6D : ... .. . ... ... ... : ... .. . ... ... ... : ... .. . ... : ... .. . ... : ... .. . ... ... : ... .. . ... ... : ... .. . ... ... : ... .. . ... ...
ROW 6E : ... .. . ... ... ... : ... .. . ... ... ... : ... .. . ... : ... .. . ... : ... .. . ... ... : ... .. . ... ... : ... .. . ... ... : ... .. . ... ...
ROW 6F : ... .. . ... ... ... : ... .. . ... ... ... : ... .. . ... : ... .. . ... : ... .. . ... ... : ... .. . ... ... : ... .. . ... ... : ... .. . ... ...
ROW 70 : ... .. . ... ... ... : ... .. . ... ... ... : ... .. . ... : ... .. . ... : ... .. . ... ... : ... .. . ... ... : ... .. . ... ... : ... .. . ... ...
ROW 71 : ... .. . ... ... ... : ... .. . ... ... ... : ... .. . ... : ... .. . ... : ... .. . ... ... : ... .. . ... ... : ... .. . ... ... : ... .. . ... ...
ROW 72 : ... .. . ... ... ... : ... .. . ... ... ... : ... .. . ... : ... .. . ... : ... .. . ... ... : ... .. . ... ... : ... .. . ... ... : ... .. . ... ...
ROW 73 : ... .. . ... ... ... : ... .. . ... ... ... : ... .. . ... : ... .. . ... : ... .. . ... ... : ... .. . ... ... : ... .. . ... ... : ... .. . ... ...
ROW 74 : ... .. . ... ... ... : ... .. . ... ... ... : ... .. . ... : ... .. . ... : ... .. . ... ... : ... .. . ... ... : ... .. . ... ... : ... .. . ... ...
ROW 75 : ... .. . ... ... ... : ... .. . ... ... ... : ... .. . ... : ... .. . ... : ... .. . ... ... : ... .. . ... ... : ... .. . ... ... : ... .. . ... ...
ROW 76 : ... .. . ... ... ... : ... .. . ... ... ... : ... .. . ... : ... .. . ... : ... .. . ... ... : ... .. . ... ... : ... .. . ... ... : ... .. . ... ...
ROW 77 : ... .. . ... ... ... : ... .. . ... ... ... : ... .. . ... : ... .. . ... : ... .. . ... ... : ... .. . ... ... : ... .. . ... ... : ... .. . ... ...
ROW 78 : ... .. . ... ... ... : ... .. . ... ... ... : ... .. . ... : ... .. . ... : ... .. . ... ... : ... .. . ... ... : ... .. . ... ... : ... .. . ... ...
ROW 79 : ... .. . ... ... ... : ... .. . ... ... ... : ... .. . ... : ... .. . ... : ... .. . ... ... : ... .. . ... ... : ... .. . ... ... : ... .. . ... ...
ROW 7A : ... .. . ... ... ... : ... .. . ... ... ... : ... .. . ... : ... .. . ... : ... .. . ... ... : ... .. . ... ... : ... .. . ... ... : ... .. . ... ...
ROW 7B : ... .. . ... ... ... : ... .. . ... ... ... : ... .. . ... : ... .. . ... : ... .. . ... ... : ... .. . ... ... : ... .. . ... ... : ... .. . ... ...
ROW 7C : ... .. . ... ... ... : ... .. . ... ... ... : ... .. . ... : ... .. . ... : ... .. . ... ... : ... .. . ... ... : ... .. . ... ... : ... .. . ... ...
ROW 7D : ... .. . ... ... ... : ... .. . ... ... ... : ... .. . ... : ... .. . ... : ... .. . ... ... : ... .. . ... ... : ... .. . ... ... : ... .. . ... ...
ROW 7E : ... .. . ... ... ... : ... .. . ... ... ... : ... .. . ... : ... .. . ... : ... .. . ... ... : ... .. . ... ... : ... .. . ... ... : ... .. . ... ...
ROW 7F : ... .. . ... ... ... : ... .. . ... ... ... : ... .. . ... : ... .. . ... : ... .. . ... ... : ... .. . ... ... : ... .. . ... ... : ... .. . ... ...
ROW 80 : ... .. . ... ... ... : ... .. . ... ... ... : ... .. . ... : ... .. . ... : ... .. . ... ... : ... .. . ... ... : ... .. . ... ... : ... .. . ... ...
ROW 81 : ... .. . ... ... ... : ... .. . ... ... ... : ... .. . ... : ... .. . ... : ... .. . ... ... : ... .. . ... ... : ... .. . ... ... : ... .. . ... ...
ROW 82 : ... .. . ... ... ... : ... .. . ... ... ... : ... .. . ... : ... .. . ... : ... .. . ... ... : ... .. . ... ... : ... .. . ... ... : ... .. . ... ...
ROW 83 : ... .. . ... ... ... : ... .. . ... ... ... : ... .. . ... : ... .. . ... : ... .. . ... ... : ... .. . ... ... : ... .. . ... ... : ... .. . ... ...
ROW 84 : ... .. . ... ... ... : ... .. . ... ... ... : ... .. . ... : ... .. . ... : ... .. . ... ... : ... .. . ... ... : ... .. . ... ... : ... .. . ... ...
ROW 85 : ... .. . ... ... ... : ... .. . ... ... ... : ... .. . ... : ... .. . ... : ... .. . ... ... : ... .. . ... ... : ... .. . ... ... : ... .. . ... ...
ROW 86 : ... .. . ... ... ... : ... .. . ... ... ... : ... .. . ... : ... .. . ... : ... .. . ... ... : ... .. . ... ... : ... .. . ... ... : ... .. . ... ...
ROW 87 : ... .. . ... ... ... : ... .. . ... ... ... : ... .. . ... : ... .. . ... : ... .. . ... ... : ... .. . ... ... : ... .. . ... ... : ... .. . ... ...
ROW 88 : ... .. . ... ... ... : ... .. . ... ... ... : ... .. . ... : ... .. . ... : ... .. . ... ... : ... .. . ... ... : ... .. . ... ... : ... .. . ... ...
ROW 89 : ... .. . ... ... ... : ... .. . ... ... ... : ... .. . ... : ... .. . ... : ... .. . ... ... : ... .. . ... ... : ... .. . ... ... : ... .. . ... ...
ROW 8A : ... .. . ... ... ... : ... .. . ... ... ... : ... .. . ... : ... .. . ... : ... .. . ... ... : ... .. . ... ... : ... .. . ... ... : ... .. . ... ...
ROW 8B : ... .. . ... ... ... : ... .. . ... ... ... : ... .. . ... : ... .. . ... : ... .. . ... ... : ... .. . ... ... : ... .. . ... ... : ... .. . ... ...
ROW 8C : ... .. . ... ... ... : ... .. . ... ... ... : ... .. . ... : ... .. . ... : ... .. . ... ... : ... .. . ... ... : ... .. . ... ... : ... .. . ... ...
ROW 8D : ... .. . ... ... ... : ... .. . ... ... ... : ... .. . ... : ... .. . ... : ... .. . ... ... : ... .. . ... ... : ... .. . ... ... : ... .. . ... ...
ROW 8E : ... .. . ... ... ... : ... .. . ... ... ... : ... .. . ... : ... .. . ... : ... .. . ... ... : ... .. . ... ... : ... .. . ... ... : ... .. . ... ...
ROW 8F : ... .. . ... ... ... : ... .. . ... ... ... : ... .. . ... : ... .. . ... : ... .. . ... ... : ... .. . ... ... : ... .. . ... ... : ... .. . ... ...
ROW 90 : ... .. . ... ... ... : ... .. . ... ... ... : ... .. . ... : ... .. . ... : ... .. . ... ... : ... .. . ... ... : ... .. . ... ... : ... .. . ... ...
ROW 91 : ... .. . ... ... ... : ... .. . ... ... ... : ... .. . ... : ... .. . ... : ... .. . ... ... : ... .. . ... ... : ... .. . ... ... : ... .. . ... ...
ROW 92 : ... .. . ... ... ... : ... .. . ... ... ... : ... .. . ... : ... .. . ... : ... .. . ... ... : ... .. . ... ... : ... .. . ... ... : ... .. . ... ...
ROW 93 : ... .. . ... ... ... : ... .. . ... ... ... : ... .. . ... : ... .. . ... : ... .. . ... ... : ... .. . ... ... : ... .. . ... ... : ... .. . ... ...
ROW 94 : ... .. . ... ... ... : ... .. . ... ... ... : ... .. . ... : ... .. . ... : ... .. . ... ... : ... .. . ... ... : ... .. . ... ... : ... .. . ... ...
ROW 95 : ... .. . ... ... ... : ... .. . ... ... ... : ... .. . ... : ... .. . ... : ... .. . ... ... : ... .. . ... ... : ... .. . ... ... : ... .. . ... ...
ROW 96 : ... .. . ... ... ... : ... .. . ... ... ... : ... .. . ... : ... .. . ... : ... .. . ... ... : ... .. . ... ... : ... .. . ... ... : ... .. . ... ...
ROW 97 : ... .. . ... ... ... : ... .. . ... ... ... : ... .. . ... : ... .. . ... : ... .. . ... ... : ... .. . ... ... : ... .. . ... ... : ... .. . ... ...
ROW 98 : ... .. . ... ... ... : ... .. . ... ... ... : ... .. . ... : ... .. . ... : ... .. . ... ... : ... .. . ... ... : ... .. . ... ... : ... .. . ... ...
ROW 99 : ... .. . ... ... ... : ... .. . ... ... ... : ... .. . ... : ... .. . ... : ... .. . ... ... : ... .. . ... ... : ... .. . ... ... : ... .. . ... ...
ROW 9A : ... .. . ... ... ... : ... .. . ... ... ... : ... .. . ... : ... .. . ... : ... .. . ... ... : ... .. . ... ... : ... .. . ... ... : ... .. . ... ...
ROW 9B : ... .. . ... ... ... : ... .. . ... ... ... : ... .. . ... : ... .. . ... : ... .. . ... ... : ... .. . ... ... : ... .. . ... ... : ... .. . ... ...
ROW 9C : ... .. . ... ... ... : ... .. . ... ... ... : ... .. . ... : ... .. . ... : ... .. . ... ... : ... .. . ... ... : ... .. . ... ... : ... .. . ... ...
ROW 9D : ... .. . ... ... ... : ... .. . ... ... ... : ... .. . ... : ... .. . ... : ... .. . ... ... : ... .. . ... ... : ... .. . ... ... : ... .. . ... ...
ROW 9E : ... .. . ... ... ... : ... .. . ... ... ... : ... .. . ... : ... .. . ... : ... .. . ... ... : ... .. . ... ... : ... .. . ... ... : ... .. . ... ...
ROW 9F : ... .. . ... ... ... : ... .. . ... ... ... : ... .. . ... : ... .. . ... : ... .. . ... ... : ... .. . ... ... : ... .. . ... ... : ... .. . ... ...
ROW A0 : ... .. . ... ... ... : ... .. . ... ... ... : ... .. . ... : ... .. . ... : ... .. . ... ... : ... .. . ... ... : ... .. . ... ... : ... .. . ... ...
ROW A1 : ... .. . ... ... ... : ... .. . ... ... ... : ... .. . ... : ... .. . ... : ... .. . ... ... : ... .. . ... ... : ... .. . ... ... : ... .. . ... ...
ROW A2 : ... .. . ... ... ... : ... .. . ... ... ... : ... .. . ... : ... .. . ... : ... .. . ... ... : ... .. . ... ... : ... .. . ... ... : ... .. . ... ...
ROW A3 : ... .. . ... ... ... : ... .. . ... ... ... : ... .. . ... : ... .. . ... : ... .. . ... ... : ... .. . ... ... : ... .. . ... ... : ... .. . ... ...
ROW A4 : ... .. . ... ... ... : ... .. . ... ... ... : ... .. . ... : ... .. . ... : ... .. . ... ... : ... .. . ... ... : ... .. . ... ... : ... .. . ... ...
ROW A5 : ... .. . ... ... ... : ... .. . ... ... ... : ... .. . ... : ... .. . ... : ... .. . ... ... : ... .. . ... ... : ... .. . ... ... : ... .. . ... ...
ROW A6 : ... .. . ... ... ... : ... .. . ... ... ... : ... .. . ... : ... .. . ... : ... .. . ... ... : ... .. . ... ... : ... .. . ... ... : ... .. . ... ...
ROW A7 : ... .. . ... ... ... : ... .. . ... ... ... : ... .. . ... : ... .. . ... : ... .. . ... ... : ... .. . ... ... : ... .. . ... ... : ... .. . ... ...
ROW A8 : ... .. . ... ... ... : ... .. . ... ... ... : ... .. . ... : ... .. . ... : ... .. . ... ... : ... .. . ... ... : ... .. . ... ... : ... .. . ... ...
ROW A9 : ... .. . ... ... ... : ... .. . ... ... ... : ... .. . ... : ... .. . ... : ... .. . ... ... : ... .. . ... ... : ... .. . ... ... : ... .. . ... ...
ROW AA : ... .. . ... ... ... : ... .. . ... ... ... : ... .. . ... : ... .. . ... : ... .. . ... ... : ... .. . ... ... : ... .. . ... ... : ... .. . ... ...
ROW AB : ... .. . ... ... ... : ... .. . ... ... ... : ... .. . ... : ... .. . ... : ... .. . ... ... : ... .. . ... ... : ... .. . ... ... : ... .. . ... ...
ROW AC : ... .. . ... ... ... : ... .. . ... ... ... : ... .. . ... : ... .. . ... : ... .. . ... ... : ... .. . ... ... : ... .. . ... ... : ... .. . ... ...
ROW AD : ... .. . ... ... ... : ... .. . ... ... ... : ... .. . ... : ... .. . ... : ... .. . ... ... : ... .. . ... ... : ... .. . ... ... : ... .. . ... ...
ROW AE : ... .. . ... ... ... : ... .. . ... ... ... : ... .. . ... : ... .. . ... : ... .. . ... ... : ... .. . ... ... : ... .. . ... ... : ... .. . ... ...
ROW AF : ... .. . ... ... ... : ... .. . ... ... ... : ... .. . ... : ... .. . ... : ... .. . ... ... : ... .. . ... ... : ... .. . ... ... : ... .. . ... ...
ROW B0 : ... .. . ... ... ... : ... .. . ... ... ... : ... .. . ... : ... .. . ... : ... .. . ... ... : ... .. . ... ... : ... .. . ... ... : ... .. . ... ...
ROW B1 : ... .. . ... ... ... : ... .. . ... ... ... : ... .. . ... : ... .. . ... : ... .. . ... ... : ... .. . ... ... : ... .. . ... ... : ... .. . ... ...
ROW B2 : ... .. . ... ... ... : ... .. . ... ... ... : ... .. . ... : ... .. . ... : ... .. . ... ... : ... .. . ... ... : ... .. . ... ... : ... .. . ... ...
ROW B3 : ... .. . ... ... ... : ... .. . ... ... ... : ... .. . ... : ... .. . ... : ... .. . ... ... : ... .. . ... ... : ... .. . ... ... : ... .. . ... ...
ROW B4 : ... .. . ... ... ... : ... .. . ... ... ... : ... .. . ... : ... .. . ... : ... .. . ... ... : ... .. . ... ... : ... .. . ... ... : ... .. . ... ...
ROW B5 : ... .. . ... ... ... : ... .. . ... ... ... : ... .. . ... : ... .. . ... : ... .. . ... ... : ... .. . ... ... : ... .. . ... ... : ... .. . ... ...
ROW B6 : ... .. . ... ... ... : ... .. . ... ... ... : ... .. . ... : ... .. . ... : ... .. . ... ... : ... .. . ... ... : ... .. . ... ... : ... .. . ... ...
ROW B7 : ... .. . ... ... ... : ... .. . ... ... ... : ... .. . ... : ... .. . ... : ... .. . ... ... : ... .. . ... ... : ... .. . ... ... : ... .. . ... ...
ROW B8 : ... .. . ... ... ... : ... .. . ... ... ... : ... .. . ... : ... .. . ... : ... .. . ... ... : ... .. . ... ... : ... .. . ... ... : ... .. . ... ...
ROW B9 : ... .. . ... ... ... : ... .. . ... ... ... : ... .. . ... : ... .. . ... : ... .. . ... ... : ... .. . ... ... : ... .. . ... ... : ... .. . ... ...
ROW BA : ... .. . ... ... ... : ... .. . ... ... ... : ... .. . ... : ... .. . ... : ... .. . ... ... : ... .. . ... ... : ... .. . ... ... : ... .. . ... ...
ROW BB : ... .. . ... ... ... : ... .. . ... ... ... : ... .. . ... : ... .. . ... : ... .. . ... ... : ... .. . ... ... : ... .. . ... ... : ... .. . ... ...
ROW BC : ... .. . ... ... ... : ... .. . ... ... ... : ... .. . ... : ... .. . ... : ... .. . ... ... : ... .. . ... ... : ... .. . ... ... : ... .. . ... ...
ROW BD : ... .. . ... ... ... : ... .. . ... ... ... : ... .. . ... : ... .. . ... : ... .. . ... ... : ... .. . ... ... : ... .. . ... ... : ... .. . ... ...
ROW BE : ... .. . ... ... ... : ... .. . ... ... ... : ... .. . ... : ... .. . ... : ... .. . ... ... : ... .. . ... ... : ... .. . ... ... : ... .. . ... ...
ROW BF : ... .. . ... ... ... : ... .. . ... ... ... : ... .. . ... : ... .. . ... : ... .. . ... ... : ... .. . ... ... : ... .. . ... ... : ... .. . ... ...
ROW C0 : ... .. . ... ... ... : ... .. . ... ... ... : ... .. . ... : ... .. . ... : ... .. . ... ... : ... .. . ... ... : ... .. . ... ... : ... .. . ... ...
ROW C1 : ... .. . ... ... ... : ... .. . ... ... ... : ... .. . ... : ... .. . ... : ... .. . ... ... : ... .. . ... ... : ... .. . ... ... : ... .. . ... ...
ROW C2 : ... .. . ... ... ... : ... .. . ... ... ... : ... .. . ... : ... .. . ... : ... .. . ... ... : ... .. . ... ... : ... .. . ... ... : ... .. . ... ...
ROW C3 : ... .. . ... ... ... : ... .. . ... ... ... : ... .. . ... : ... .. . ... : ... .. . ... ... : ... .. . ... ... : ... .. . ... ... : ... .. . ... ...
ROW C4 : ... .. . ... ... ... : ... .. . ... ... ... : ... .. . ... : ... .. . ... : ... .. . ... ... : ... .. . ... ... : ... .. . ... ... : ... .. . ... ...
ROW C5 : ... .. . ... ... ... : ... .. . ... ... ... : ... .. . ... : ... .. . ... : ... .. . ... ... : ... .. . ... ... : ... .. . ... ... : ... .. . ... ...
ROW C6 : ... .. . ... ... ... : ... .. . ... ... ... : ... .. . ... : ... .. . ... : ... .. . ... ... : ... .. . ... ... : ... .. . ... ... : ... .. . ... ...
ROW C7 : ... .. . ... ... ... : ... .. . ... ... ... : ... .. . ... : ... .. . ... : ... .. . ... ... : ... .. . ... ... : ... .. . ... ... : ... .. . ... ...
ROW C8 : ... .. . ... ... ... : ... .. . ... ... ... : ... .. . ... : ... .. . ... : ... .. . ... ... : ... .. . ... ... : ... .. . ... ... : ... .. . ... ...
ROW C9 : ... .. . ... ... ... : ... .. . ... ... ... : ... .. . ... : ... .. . ... : ... .. . ... ... : ... .. . ... ... : ... .. . ... ... : ... .. . ... ...
ROW CA : ... .. . ... ... ... : ... .. . ... ... ... : ... .. . ... : ... .. . ... : ... .. . ... ... : ... .. . ... ... : ... .. . ... ... : ... .. . ... ...
ROW CB : ... .. . ... ... ... : ... .. . ... ... ... : ... .. . ... : ... .. . ... : ... .. . ... ... : ... .. . ... ... : ... .. . ... ... : ... .. . ... ...
ROW CC : ... .. . ... ... ... : ... .. . ... ... ... : ... .. . ... : ... .. . ... : ... .. . ... ... : ... .. . ... ... : ... .. . ... ... : ... .. . ... ...
ROW CD : ... .. . ... ... ... : ... .. . ... ... ... : ... .. . ... : ... .. . ... : ... .. . ... ... : ... .. . ... ... : ... .. . ... ... : ... .. . ... ...
ROW CE : ... .. . ... ... ... : ... .. . ... ... ... : ... .. . ... : ... .. . ... : ... .. . ... ... : ... .. . ... ... : ... .. . ... ... : ... .. . ... ...
ROW CF : ... .. . ... ... ... : ... .. . ... ... ... : ... .. . ... : ... .. . ... : ... .. . ... ... : ... .. . ... ... : ... .. . ... ... : ... .. . ... ...
ROW D0 : ... .. . ... ... ... : ... .. . ... ... ... : ... .. . ... : ... .. . ... : ... .. . ... ... : ... .. . ... ... : ... .. . ... ... : ... .. . ... ...
ROW D1 : ... .. . ... ... ... : ... .. . ... ... ... : ... .. . ... : ... .. . ... : ... .. . ... ... : ... .. . ... ... : ... .. . ... ... : ... .. . ... ...
ROW D2 : ... .. . ... ... ... : ... .. . ... ... ... : ... .. . ... : ... .. . ... : ... .. . ... ... : ... .. . ... ... : ... .. . ... ... : ... .. . ... ...
ROW D3 : ... .. . ... ... ... : ... .. . ... ... ... : ... .. . ... : ... .. . ... : ... .. . ... ... : ... .. . ... ... : ... .. . ... ... : ... .. . ... ...
ROW D4 : ... .. . ... ... ... : ... .. . ... ... ... : ... .. . ... : ... .. . ... : ... .. . ... ... : ... .. . ... ... : ... .. . ... ... : ... .. . ... ...
ROW D5 : ... .. . ... ... ... : ... .. . ... ... ... : ... .. . ... : ... .. . ... : ... .. . ... ... : ... .. . ... ... : ... .. . ... ... : ... .. . ... ...
ROW D6 : ... .. . ... ... ... : ... .. . ... ... ... : ... .. . ... : ... .. . ... : ... .. . ... ... : ... .. . ... ... : ... .. . ... ... : ... .. . ... ...
ROW D7 : ... .. . ... ... ... : ... .. . ... ... ... : ... .. . ... : ... .. . ... : ... .. . ... ... : ... .. . ... ... : ... .. . ... ... : ... .. . ... ...
ROW D8 : ... .. . ... ... ... : ... .. . ... ... ... : ... .. . ... : ... .. . ... : ... .. . ... ... : ... .. . ... ... : ... .. . ... ... : ... .. . ... ...
ROW D9 : ... .. . ... ... ... : ... .. . ... ... ... : ... .. . ... : ... .. . ... : ... .. . ... ... : ... .. . ... ... : ... .. . ... ... : ... .. . ... ...
ROW DA : ... .. . ... ... ... : ... .. . ... ... ... : ... .. . ... : ... .. . ... : ... .. . ... ... : ... .. . ... ... : ... .. . ... ... : ... .. . ... ...
ROW DB : ... .. . ... ... ... : ... .. . ... ... ... : ... .. . ... : ... .. . ... : ... .. . ... ... : ... .. . ... ... : ... .. . ... ... : ... .. . ... ...
ROW DC : ... .. . ... ... ... : ... .. . ... ... ... : ... .. . ... : ... .. . ... : ... .. . ... ... : ... .. . ... ... : ... .. . ... ... : ... .. . ... ...
ROW DD : ... .. . ... ... ... : ... .. . ... ... ... : ... .. . ... : ... .. . ... : ... .. . ... ... : ... .. . ... ... : ... .. . ... ... : ... .. . ... ...
ROW DE : ... .. . ... ... ... : ... .. . ... ... ... : ... .. . ... : ... .. . ... : ... .. . ... ... : ... .. . ... ... : ... .. . ... ... : ... .. . ... ...
ROW DF : ... .. . ... ... ... : ... .. . ... ... ... : ... .. . ... : ... .. . ... : ... .. . ... ... : ... .. . ... ... : ... .. . ... ... : ... .. . ... ...
ROW E0 : ... .. . ... ... ... : ... .. . ... ... ... : ... .. . ... : ... .. . ... : ... .. . ... ... : ... .. . ... ... : ... .. . ... ... : ... .. . ... ...
ROW E1 : ... .. . ... ... ... : ... .. . ... ... ... : ... .. . ... : ... .. . ... : ... .. . ... ... : ... .. . ... ... : ... .. . ... ... : ... .. . ... ...
ROW E2 : ... .. . ... ... ... : ... .. . ... ... ... : ... .. . ... : ... .. . ... : ... .. . ... ... : ... .. . ... ... : ... .. . ... ... : ... .. . ... ...
ROW E3 : ... .. . ... ... ... : ... .. . ... ... ... : ... .. . ... : ... .. . ... : ... .. . ... ... : ... .. . ... ... : ... .. . ... ... : ... .. . ... ...
ROW E4 : ... .. . ... ... ... : ... .. . ... ... ... : ... .. . ... : ... .. . ... : ... .. . ... ... : ... .. . ... ... : ... .. . ... ... : ... .. . ... ...
ROW E5 : ... .. . ... ... ... : ... .. . ... ... ... : ... .. . ... : ... .. . ... : ... .. . ... ... : ... .. . ... ... : ... .. . ... ... : ... .. . ... ...
ROW E6 : ... .. . ... ... ... : ... .. . ... ... ... : ... .. . ... : ... .. . ... : ... .. . ... ... : ... .. . ... ... : ... .. . ... ... : ... .. . ... ...
ROW E7 : ... .. . ... ... ... : ... .. . ... ... ... : ... .. . ... : ... .. . ... : ... .. . ... ... : ... .. . ... ... : ... .. . ... ... : ... .. . ... ...
ROW E8 : ... .. . ... ... ... : ... .. . ... ... ... : ... .. . ... : ... .. . ... : ... .. . ... ... : ... .. . ... ... : ... .. . ... ... : ... .. . ... ...
ROW E9 : ... .. . ... ... ... : ... .. . ... ... ... : ... .. . ... : ... .. . ... : ... .. . ... ... : ... .. . ... ... : ... .. . ... ... : ... .. . ... ...
ROW EA : ... .. . ... ... ... : ... .. . ... ... ... : ... .. . ... : ... .. . ... : ... .. . ... ... : ... .. . ... ... : ... .. . ... ... : ... .. . ... ...
ROW EB : ... .. . ... ... ... : ... .. . ... ... ... : ... .. . ... : ... .. . ... : ... .. . ... ... : ... .. . ... ... : ... .. . ... ... : ... .. . ... ...
ROW EC : ... .. . ... ... ... : ... .. . ... ... ... : ... .. . ... : ... .. . ... : ... .. . ... ... : ... .. . ... ... : ... .. . ... ... : ... .. . ... ...
ROW ED : ... .. . ... ... ... : ... .. . ... ... ... : ... .. . ... : ... .. . ... : ... .. . ... ... : ... .. . ... ... : ... .. . ... ... : ... .. . ... ...
ROW EE : ... .. . ... ... ... : ... .. . ... ... ... : ... .. . ... : ... .. . ... : ... .. . ... ... : ... .. . ... ... : ... .. . ... ... : ... .. . ... ...
ROW EF : ... .. . ... ... ... : ... .. . ... ... ... : ... .. . ... : ... .. . ... : ... .. . ... ... : ... .. . ... ... : ... .. . ... ... : ... .. . ... ...
ROW F0 : ... .. . ... ... ... : ... .. . ... ... ... : ... .. . ... : ... .. . ... : ... .. . ... ... : ... .. . ... ... : ... .. . ... ... : ... .. . ... ...
ROW F1 : ... .. . ... ... ... : ... .. . ... ... ... : ... .. . ... : ... .. . ... : ... .. . ... ... : ... .. . ... ... : ... .. . ... ... : ... .. . ... ...
ROW F2 : ... .. . ... ... ... : ... .. . ... ... ... : ... .. . ... : ... .. . ... : ... .. . ... ... : ... .. . ... ... : ... .. . ... ... : ... .. . ... ...
ROW F3 : ... .. . ... ... ... : ... .. . ... ... ... : ... .. . ... : ... .. . ... : ... .. . ... ... : ... .. . ... ... : ... .. . ... ... : ... .. . ... ...
ROW F4 : ... .. . ... ... ... : ... .. . ... ... ... : ... .. . ... : ... .. . ... : ... .. . ... ... : ... .. . ... ... : ... .. . ... ... : ... .. . ... ...
ROW F5 : ... .. . ... ... ... : ... .. . ... ... ... : ... .. . ... : ... .. . ... : ... .. . ... ... : ... .. . ... ... : ... .. . ... ... : ... .. . ... ...
ROW F6 : ... .. . ... ... ... : ... .. . ... ... ... : ... .. . ... : ... .. . ... : ... .. . ... ... : ... .. . ... ... : ... .. . ... ... : ... .. . ... ...
ROW F7 : ... .. . ... ... ... : ... .. . ... ... ... : ... .. . ... : ... .. . ... : ... .. . ... ... : ... .. . ... ... : ... .. . ... ... : ... .. . ... ...
ROW F8 : ... .. . ... ... ... : ... .. . ... ... ... : ... .. . ... : ... .. . ... : ... .. . ... ... : ... .. . ... ... : ... .. . ... ... : ... .. . ... ...
ROW F9 : ... .. . ... ... ... : ... .. . ... ... ... : ... .. . ... : ... .. . ... : ... .. . ... ... : ... .. . ... ... : ... .. . ... ... : ... .. . ... ...
ROW FA : ... .. . ... ... ... : ... .. . ... ... ... : ... .. . ... : ... .. . ... : ... .. . ... ... : ... .. . ... ... : ... .. . ... ... : ... .. . ... ...
ROW FB : ... .. . ... ... ... : ... .. . ... ... ... : ... .. . ... : ... .. . ... : ... .. . ... ... : ... .. . ... ... : ... .. . ... ... : ... .. . ... ...
ROW FC : ... .. . ... ... ... : ... .. . ... ... ... : ... .. . ... : ... .. . ... : ... .. . ... ... : ... .. . ... ... : ... .. . ... ... : ... .. . ... ...
ROW FD : ... .. . ... ... ... : ... .. . ... ... ... : ... .. . ... : ... .. . ... : ... .. . ... ... : ... .. . ... ... : ... .. . ... ... : ... .. . ... ...
ROW FE : ... .. . ... ... ... : ... .. . ... ... ... : ... .. . ... : ... .. . ... : ... .. . ... ... : ... .. . ... ... : ... .. . ... ... : ... .. . ... ...
ROW FF : ... .. . ... ... ... : ... .. . ... ... ... : ... .. . ... : ... .. . ... : ... .. . ... ... : ... .. . ... ... : ... .. . ... ... : ... .. . ... ...

# End of export
