# FamiTracker text export 0.4.2

# Song information
TITLE           "Shovel Knight OST"
AUTHOR          "Jake Kaufman"
COPYRIGHT       ""

# Song comment
COMMENT ""

# Global settings
MACHINE         0
FRAMERATE       0
EXPANSION       1
VIBRATO         1
SPLIT           21

# Macros

# DPCM samples

# Instruments
INST2A03   0    -1  -1  -1  -1  -1 "blank"
INSTVRC6   1    -1  -1  -1  -1  -1 "blank"

# Tracks

TRACK 256   1 150 "New song"
COLUMNS : 3 3 1 1 2 2 2 2

ORDER 00 : 00 00 00 00 00 00 00 00
ORDER 01 : 01 01 01 01 01 01 01 01
ORDER 02 : 02 02 02 02 02 02 02 02
ORDER 03 : 03 03 03 03 03 03 03 03
ORDER 04 : 04 04 04 04 04 04 04 04
ORDER 05 : 05 05 05 05 05 05 05 05
ORDER 06 : 06 06 06 06 06 06 06 06
ORDER 07 : 07 07 07 07 07 07 07 07
ORDER 08 : 08 08 08 08 08 08 08 08
ORDER 09 : 09 09 09 09 09 09 09 09
ORDER 0A : 0A 0A 0A 0A 0A 0A 0A 0A
ORDER 0B : 0B 0B 0B 0B 0B 0B 0B 0B
ORDER 0C : 0C 0C 0C 0C 0C 0C 0C 0C
ORDER 0D : 0D 0D 0D 0D 0D 0D 0D 0D
ORDER 0E : 0E 0E 0E 0E 0E 0E 0E 0E
ORDER 0F : 0F 0F 0F 0F 0F 0F 0F 0F
ORDER 10 : 10 10 10 10 10 10 10 10
ORDER 11 : 11 11 11 11 11 11 11 11
ORDER 12 : 12 12 12 12 12 12 12 12
ORDER 13 : 13 13 13 13 13 13 13 13
ORDER 14 : 14 14 14 14 14 14 14 14
ORDER 15 : 15 15 15 15 15 15 15 15
ORDER 16 : 16 16 16 16 16 16 16 16
ORDER 17 : 17 17 17 17 17 17 17 17
ORDER 18 : 18 18 18 18 18 18 18 18
ORDER 19 : 19 19 19 19 19 19 19 19
ORDER 1A : 1A 1A 1A 1A 1A 1A 1A 1A
ORDER 1B : 1B 1B 1B 1B 1B 1B 1B 1B
ORDER 1C : 1C 1C 1C 1C 1C 1C 1C 1C

PATTERN 00
ROW 00 : C-4 00 F P80 V00 ... : --- .. 0 P80 V00 ... : C-3 00 . P80 : B-# 00 2 V01 : === 00 . Z00 ... : E-3 01 A P80 V00 : A#2 01 A P80 V00 : --- .. 0 P80 V00
ROW 01 : ... .. E ... ... ... : ... .. . ... ... ... : ... .. . ... : ... .. . ... : ... .. . ... ... : ... .. 9 ... ... : ... .. 9 ... ... : ... .. . ... ...
ROW 02 : ... .. D ... ... ... : ... .. . ... ... ... : ... .. . ... : ... .. . ... : ... .. . ... ... : ... .. . ... ... : ... .. . ... ... : ... .. . ... ...
ROW 03 : ... .. 9 ... ... ... : ... .. . ... ... ... : ... .. . ... : ... .. . ... : ... .. . ... ... : ... .. 8 ... ... : ... .. 8 ... ... : ... .. . ... ...
ROW 04 : ... .. . ... ... ... : ... .. . ... ... ... : ... .. . ... : ... .. . ... : ... .. . ... ... : ... .. 7 ... ... : ... .. 7 ... ... : ... .. . ... ...
ROW 05 : C#4 00 D ... ... ... : ... .. . ... ... ... : --- .. . ... : ... .. 0 ... : ... .. . ... ... : ... .. . ... ... : ... .. . ... ... : ... .. . ... ...
ROW 06 : ... .. C ... ... ... : ... .. . ... ... ... : ... .. . ... : ... .. . ... : ... .. . ... ... : ... .. 6 ... ... : ... .. 6 ... ... : ... .. . ... ...
ROW 07 : ... .. B ... ... ... : ... .. . ... ... ... : ... .. . ... : ... .. . ... : ... .. . ... ... : ... .. . ... ... : ... .. . ... ... : ... .. . ... ...
ROW 08 : ... .. 8 ... ... ... : ... .. . ... ... ... : ... .. . ... : ... .. . ... : ... .. . ... ... : ... .. . ... ... : ... .. . ... ... : ... .. . ... ...
ROW 09 : ... .. . ... ... ... : ... .. . ... ... ... : ... .. . ... : ... .. . ... : ... .. . ... ... : ... .. . ... ... : ... .. . ... ... : ... .. . ... ...
ROW 0A : C-4 00 C ... ... ... : ... .. . ... ... ... : C-4 00 . ... : 2-# 00 3 ... : ... .. . ... ... : ... .. . ... ... : ... .. . ... ... : ... .. . ... ...
ROW 0B : ... .. B ... ... ... : ... .. . ... ... ... : ... .. . ... : ... .. . ... : ... .. . ... ... : ... .. . ... ... : ... .. . ... ... : ... .. . ... ...
ROW 0C : ... .. A ... ... ... : ... .. . ... ... ... : ... .. . ... : ... .. . ... : ... .. . ... ... : ... .. . ... ... : ... .. . ... ... : ... .. . ... ...
ROW 0D : ... .. 8 ... ... ... : ... .. . ... ... ... : ... .. . ... : ... .. 0 ... : ... .. . ... ... : ... .. . ... ... : ... .. . ... ... : ... .. . ... ...
ROW 0E : ... .. . ... ... ... : ... .. . ... ... ... : ... .. . ... : ... .. . ... : ... .. . ... ... : ... .. . ... ... : ... .. . ... ... : ... .. . ... ...
ROW 0F : C#4 00 B ... ... ... : ... .. . ... ... ... : --- .. . ... : ... .. 3 ... : ... .. . ... ... : ... .. . ... ... : ... .. . ... ... : ... .. . ... ...
ROW 10 : ... .. A ... ... ... : ... .. . ... ... ... : ... .. . ... : ... .. . ... : ... .. . ... ... : ... .. . ... ... : ... .. . ... ... : ... .. . ... ...
ROW 11 : ... .. 9 ... ... ... : ... .. . ... ... ... : ... .. . ... : ... .. . ... : ... .. . ... ... : ... .. . ... ... : ... .. . ... ... : ... .. . ... ...
ROW 12 : ... .. 7 ... ... ... : ... .. . ... ... ... : ... .. . ... : ... .. 0 ... : ... .. . ... ... : ... .. . ... ... : ... .. . ... ... : ... .. . ... ...
ROW 13 : ... .. . ... ... ... : ... .. . ... ... ... : ... .. . ... : ... .. . ... : ... .. . ... ... : ... .. . ... ... : ... .. . ... ... : ... .. . ... ...
ROW 14 : C-4 00 A ... ... ... : ... .. . ... ... ... : A#2 00 . ... : 8-# 00 4 V00 : ... .. . ... ... : F-3 01 A ... ... : G#2 01 A ... ... : ... .. . ... ...
ROW 15 : ... .. 9 ... ... ... : ... .. . ... ... ... : ... .. . ... : ... .. . ... : ... .. . ... ... : ... .. 9 ... ... : ... .. 9 ... ... : ... .. . ... ...
ROW 16 : ... .. 8 ... ... ... : ... .. . ... ... ... : ... .. . ... : ... .. . ... : ... .. . ... ... : ... .. . ... ... : ... .. . ... ... : ... .. . ... ...
ROW 17 : ... .. 6 ... ... ... : ... .. . ... ... ... : ... .. . ... : ... .. . ... : ... .. . ... ... : ... .. 8 ... ... : ... .. 8 ... ... : ... .. . ... ...
ROW 18 : ... .. . ... ... ... : ... .. . ... ... ... : ... .. . ... : ... .. . ... : ... .. . ... ... : ... .. 7 ... ... : ... .. 7 ... ... : ... .. . ... ...
ROW 19 : C#4 00 9 ... ... ... : ... .. . ... ... ... : --- .. . ... : ... .. . ... : ... .. . ... ... : ... .. . ... ... : ... .. . ... ... : ... .. . ... ...
ROW 1A : ... .. 8 ... ... ... : ... .. . ... ... ... : ... .. . ... : ... .. . ... : ... .. . ... ... : ... .. 6 ... ... : ... .. 6 ... ... : ... .. . ... ...
ROW 1B : ... .. 7 ... ... ... : ... .. . ... ... ... : ... .. . ... : ... .. . ... : ... .. . ... ... : ... .. . ... ... : ... .. . ... ... : ... .. . ... ...
ROW 1C : ... .. 5 ... ... ... : ... .. . ... ... ... : ... .. . ... : ... .. 0 ... : ... .. . ... ... : ... .. . ... ... : ... .. . ... ... : ... .. . ... ...
ROW 1D : ... .. . ... ... ... : ... .. . ... ... ... : ... .. . ... : ... .. . ... : ... .. . ... ... : ... .. . ... ... : ... .. . ... ... : ... .. . ... ...
ROW 1E : C-4 00 8 ... ... ... : ... .. . ... ... ... : A#3 00 . ... : 4-# 00 5 ... : ... .. . ... ... : ... .. . ... ... : ... .. . ... ... : ... .. . ... ...
ROW 1F : ... .. 7 ... ... ... : ... .. . ... ... ... : ... .. . ... : ... .. . ... : ... .. . ... ... : ... .. . ... ... : ... .. . ... ... : ... .. . ... ...
ROW 20 : ... .. 6 ... ... ... : ... .. . ... ... ... : ... .. . ... : ... .. . ... : ... .. . ... ... : ... .. . ... ... : ... .. . ... ... : ... .. . ... ...
ROW 21 : ... .. 4 ... ... ... : ... .. . ... ... ... : ... .. . ... : ... .. . ... : ... .. . ... ... : ... .. . ... ... : ... .. . ... ... : ... .. . ... ...
ROW 22 : ... .. . ... ... ... : ... .. . ... ... ... : ... .. . ... : ... .. . ... : ... .. . ... ... : ... .. . ... ... : ... .. . ... ... : ... .. . ... ...
ROW 23 : C#4 00 7 ... ... ... : ... .. . ... ... ... : --- .. . ... : ... .. . ... : ... .. . ... ... : ... .. . ... ... : ... .. . ... ... : ... .. . ... ...
ROW 24 : ... .. 6 ... ... ... : ... .. . ... ... ... : ... .. . ... : ... .. . ... : ... .. . ... ... : ... .. . ... ... : ... .. . ... ... : ... .. . ... ...
ROW 25 : ... .. . ... ... ... : ... .. . ... ... ... : ... .. . ... : ... .. . ... : ... .. . ... ... : ... .. . ... ... : ... .. . ... ... : ... .. . ... ...
ROW 26 : ... .. 4 ... ... ... : ... .. . ... ... ... : ... .. . ... : ... .. 0 ... : ... .. . ... ... : ... .. . ... ... : ... .. . ... ... : ... .. . ... ...
ROW 27 : ... .. . ... ... ... : ... .. . ... ... ... : ... .. . ... : ... .. . ... : ... .. . ... ... : ... .. . ... ... : ... .. . ... ... : ... .. . ... ...
ROW 28 : C-4 00 6 ... ... ... : ... .. . ... ... ... : G#2 00 . ... : A-# 00 6 V01 : ... .. . ... ... : F#3 01 A ... ... : G-2 01 A ... ... : ... .. . ... ...
ROW 29 : ... .. 5 ... ... ... : ... .. . ... ... ... : ... .. . ... : ... .. . ... : ... .. . ... ... : ... .. 9 ... ... : ... .. 9 ... ... : ... .. . ... ...
ROW 2A : ... .. . ... ... ... : ... .. . ... ... ... : ... .. . ... : ... .. . ... : ... .. . ... ... : ... .. . ... ... : ... .. . ... ... : ... .. . ... ...
ROW 2B : ... .. 4 ... ... ... : ... .. . ... ... ... : ... .. . ... : ... .. . ... : ... .. . ... ... : ... .. 8 ... ... : ... .. 8 ... ... : ... .. . ... ...
ROW 2C : ... .. . ... ... ... : ... .. . ... ... ... : ... .. . ... : ... .. . ... : ... .. . ... ... : ... .. 7 ... ... : ... .. 7 ... ... : ... .. . ... ...
ROW 2D : C#4 00 6 ... ... ... : ... .. . ... ... ... : --- .. . ... : ... .. . ... : ... .. . ... ... : ... .. . ... ... : ... .. . ... ... : ... .. . ... ...
ROW 2E : ... .. 5 ... ... ... : ... .. . ... ... ... : ... .. . ... : ... .. . ... : ... .. . ... ... : ... .. 6 ... ... : ... .. 6 ... ... : ... .. . ... ...
ROW 2F : ... .. . ... ... ... : ... .. . ... ... ... : ... .. . ... : ... .. . ... : ... .. . ... ... : ... .. . ... ... : ... .. . ... ... : ... .. . ... ...
ROW 30 : ... .. 4 ... ... ... : ... .. . ... ... ... : ... .. . ... : ... .. 0 ... : ... .. . ... ... : ... .. . ... ... : ... .. . ... ... : ... .. . ... ...
ROW 31 : ... .. . ... ... ... : ... .. . ... ... ... : ... .. . ... : ... .. . ... : ... .. . ... ... : ... .. . ... ... : ... .. . ... ... : ... .. . ... ...
ROW 32 : D-4 00 7 ... ... ... : ... .. . ... ... ... : G#3 00 . ... : 2-# 00 7 ... : ... .. . ... ... : ... .. . ... ... : ... .. . ... ... : ... .. . ... ...
ROW 33 : ... .. 6 ... ... ... : ... .. . ... ... ... : ... .. . ... : ... .. . ... : ... .. . ... ... : ... .. . ... ... : ... .. . ... ... : ... .. . ... ...
ROW 34 : ... .. . ... ... ... : ... .. . ... ... ... : ... .. . ... : ... .. . ... : ... .. . ... ... : ... .. . ... ... : ... .. . ... ... : ... .. . ... ...
ROW 35 : ... .. 4 ... ... ... : ... .. . ... ... ... : ... .. . ... : ... .. 0 ... : ... .. . ... ... : ... .. . ... ... : ... .. . ... ... : ... .. . ... ...
ROW 36 : ... .. . ... ... ... : ... .. . ... ... ... : ... .. . ... : ... .. . ... : ... .. . ... ... : ... .. . ... ... : ... .. . ... ... : ... .. . ... ...
ROW 37 : D#4 00 7 ... ... ... : ... .. . ... ... ... : --- .. . ... : ... .. 7 ... : ... .. . ... ... : ... .. . ... ... : ... .. . ... ... : ... .. . ... ...
ROW 38 : ... .. 6 ... ... ... : ... .. . ... ... ... : ... .. . ... : ... .. . ... : ... .. . ... ... : ... .. . ... ... : ... .. . ... ... : ... .. . ... ...
ROW 39 : ... .. . ... ... ... : ... .. . ... ... ... : ... .. . ... : ... .. . ... : ... .. . ... ... : ... .. . ... ... : ... .. . ... ... : ... .. . ... ...
ROW 3A : ... .. 4 ... ... ... : ... .. . ... ... ... : ... .. . ... : ... .. 0 ... : ... .. . ... ... : ... .. . ... ... : ... .. . ... ... : ... .. . ... ...
ROW 3B : ... .. . ... ... ... : ... .. . ... ... ... : ... .. . ... : ... .. . ... : ... .. . ... ... : ... .. . ... ... : ... .. . ... ... : ... .. . ... ...
ROW 3C : E-4 00 8 ... ... ... : ... .. . ... ... ... : G-2 00 . ... : 6-# 00 8 ... : ... .. . ... ... : G-3 01 A ... ... : F-2 01 A ... ... : ... .. . ... ...
ROW 3D : ... .. 7 ... ... ... : ... .. . ... ... ... : ... .. . ... : ... .. . ... : ... .. . ... ... : ... .. 9 ... ... : ... .. 9 ... ... : ... .. . ... ...
ROW 3E : ... .. 6 ... ... ... : ... .. . ... ... ... : ... .. . ... : ... .. . ... : ... .. . ... ... : ... .. . ... ... : ... .. . ... ... : ... .. . ... ...
ROW 3F : ... .. 5 ... ... ... : ... .. . ... ... ... : ... .. . ... : ... .. . ... : ... .. . ... ... : ... .. 8 ... ... : ... .. 8 ... ... : ... .. . ... ...
ROW 40 : ... .. . ... ... ... : ... .. . ... ... ... : ... .. . ... : ... .. . ... : ... .. . ... ... : ... .. 7 ... ... : ... .. 7 ... ... : ... .. . ... ...
ROW 41 : F-4 00 8 ... ... ... : ... .. . ... ... ... : --- .. . ... : ... .. . ... : ... .. . ... ... : ... .. . ... ... : ... .. . ... ... : ... .. . ... ...
ROW 42 : ... .. 7 ... ... ... : ... .. . ... ... ... : ... .. . ... : ... .. . ... : ... .. . ... ... : ... .. 6 ... ... : ... .. 6 ... ... : ... .. . ... ...
ROW 43 : ... .. 6 ... ... ... : ... .. . ... ... ... : ... .. . ... : ... .. . ... : ... .. . ... ... : ... .. . ... ... : ... .. . ... ... : ... .. . ... ...
ROW 44 : ... .. . ... ... ... : ... .. . ... ... ... : ... .. . ... : ... .. 0 ... : ... .. . ... ... : ... .. . ... ... : ... .. . ... ... : ... .. . ... ...
ROW 45 : ... .. . ... ... ... : ... .. . ... ... ... : ... .. . ... : ... .. . ... : ... .. . ... ... : ... .. . ... ... : ... .. . ... ... : ... .. . ... ...
ROW 46 : F#4 00 9 ... ... ... : ... .. . ... ... ... : G-3 00 . ... : 0-# 00 9 ... : ... .. . ... ... : ... .. . ... ... : ... .. . ... ... : ... .. . ... ...
ROW 47 : ... .. 8 ... ... ... : ... .. . ... ... ... : ... .. . ... : ... .. . ... : ... .. . ... ... : ... .. . ... ... : ... .. . ... ... : ... .. . ... ...
ROW 48 : ... .. 7 ... ... ... : ... .. . ... ... ... : ... .. . ... : ... .. . ... : ... .. . ... ... : ... .. . ... ... : ... .. . ... ... : ... .. . ... ...
ROW 49 : ... .. 6 ... ... ... : ... .. . ... ... ... : ... .. . ... : ... .. . ... : ... .. . ... ... : ... .. . ... ... : ... .. . ... ... : ... .. . ... ...
ROW 4A : ... .. . ... ... ... : ... .. . ... ... ... : ... .. . ... : ... .. . ... : ... .. . ... ... : ... .. . ... ... : ... .. . ... ... : ... .. . ... ...
ROW 4B : G-4 00 9 ... ... ... : ... .. . ... ... ... : --- .. . ... : ... .. . ... : ... .. . ... ... : ... .. . ... ... : ... .. . ... ... : ... .. . ... ...
ROW 4C : ... .. 8 ... ... ... : ... .. . ... ... ... : ... .. . ... : ... .. . ... : ... .. . ... ... : ... .. . ... ... : ... .. . ... ... : ... .. . ... ...
ROW 4D : ... .. 7 ... ... ... : ... .. . ... ... ... : ... .. . ... : ... .. . ... : ... .. . ... ... : ... .. . ... ... : ... .. . ... ... : ... .. . ... ...
ROW 4E : ... .. 6 ... ... ... : ... .. . ... ... ... : ... .. . ... : ... .. 0 ... : ... .. . ... ... : ... .. . ... ... : ... .. . ... ... : ... .. . ... ...
ROW 4F : ... .. . ... ... ... : ... .. . ... ... ... : ... .. . ... : ... .. . ... : ... .. . ... ... : ... .. . ... ... : ... .. . ... ... : ... .. . ... ...
ROW 50 : G#4 00 A ... ... ... : ... .. . ... ... ... : E-4 00 . ... : B-# 00 A ... : ... .. . ... ... : G#3 01 A ... ... : E-2 01 A ... ... : ... .. . ... ...
ROW 51 : ... .. 9 ... ... ... : ... .. . ... ... ... : F#3 00 . ... : ... .. . ... : ... .. . ... ... : ... .. 9 ... ... : ... .. 9 ... ... : ... .. . ... ...
ROW 52 : ... .. 8 ... ... ... : ... .. . ... ... ... : B-2 00 . ... : ... .. . ... : ... .. . ... ... : ... .. . ... ... : ... .. . ... ... : ... .. . ... ...
ROW 53 : ... .. 6 ... ... ... : ... .. . ... ... ... : A#2 00 . ... : ... .. 0 ... : ... .. . ... ... : ... .. 8 ... ... : ... .. 8 ... ... : ... .. . ... ...
ROW 54 : ... .. . ... ... ... : ... .. . ... ... ... : F-2 00 . ... : ... .. . ... : ... .. . ... ... : ... .. 7 ... ... : ... .. 7 ... ... : ... .. . ... ...
ROW 55 : G-4 00 B ... ... ... : ... .. . ... ... ... : ... .. . ... : A-# 00 B ... : ... .. . ... ... : ... .. . ... ... : ... .. . ... ... : ... .. . ... ...
ROW 56 : ... .. A ... ... ... : ... .. . ... ... ... : ... .. . ... : ... .. . ... : ... .. . ... ... : ... .. 6 ... ... : ... .. 6 ... ... : ... .. . ... ...
ROW 57 : ... .. 9 ... ... ... : ... .. . ... ... ... : ... .. . ... : ... .. . ... : ... .. . ... ... : ... .. . ... ... : ... .. . ... ... : ... .. . ... ...
ROW 58 : ... .. 7 ... ... ... : ... .. . ... ... ... : ... .. . ... : ... .. 0 ... : ... .. . ... ... : ... .. . ... ... : ... .. . ... ... : ... .. . ... ...
ROW 59 : ... .. . ... ... ... : ... .. . ... ... ... : ... .. . ... : ... .. . ... : ... .. . ... ... : ... .. . ... ... : ... .. . ... ... : ... .. . ... ...
ROW 5A : G#4 00 B ... ... ... : ... .. . ... ... ... : D-4 00 . ... : 9-# 00 B ... : ... .. . ... ... : A-3 01 A ... ... : D#2 01 A ... ... : ... .. . ... ...
ROW 5B : ... .. A ... ... ... : ... .. . ... ... ... : E-3 00 . ... : ... .. . ... : ... .. . ... ... : ... .. 9 ... ... : ... .. 9 ... ... : ... .. . ... ...
ROW 5C : ... .. 9 ... ... ... : ... .. . ... ... ... : A-2 00 . ... : ... .. . ... : ... .. . ... ... : ... .. . ... ... : ... .. . ... ... : ... .. . ... ...
ROW 5D : ... .. 7 ... ... ... : ... .. . ... ... ... : G#2 00 . ... : ... .. 0 ... : ... .. . ... ... : ... .. 8 ... ... : ... .. 8 ... ... : ... .. . ... ...
ROW 5E : ... .. . ... ... ... : ... .. . ... ... ... : D#2 00 . ... : ... .. . ... : ... .. . ... ... : ... .. 7 ... ... : ... .. 7 ... ... : ... .. . ... ...
ROW 5F : A-4 00 C ... ... ... : ... .. . ... ... ... : ... .. . ... : 8-# 00 C ... : ... .. . ... ... : ... .. . ... ... : ... .. . ... ... : ... .. . ... ...
ROW 60 : ... .. B ... ... ... : ... .. . ... ... ... : ... .. . ... : ... .. . ... : ... .. . ... ... : ... .. 6 ... ... : ... .. 6 ... ... : ... .. . ... ...
ROW 61 : ... .. A ... ... ... : ... .. . ... ... ... : ... .. . ... : ... .. . ... : ... .. . ... ... : ... .. . ... ... : ... .. . ... ... : ... .. . ... ...
ROW 62 : ... .. 8 ... ... ... : ... .. . ... ... ... : ... .. . ... : ... .. 0 ... : ... .. . ... ... : ... .. . ... ... : ... .. . ... ... : ... .. . ... ...
ROW 63 : ... .. . ... ... ... : ... .. . ... ... ... : ... .. . ... : ... .. . ... : ... .. . ... ... : ... .. . ... ... : ... .. . ... ... : ... .. . ... ...
ROW 64 : A#4 00 C ... ... ... : ... .. . ... ... ... : C#4 00 . ... : 7-# 00 C ... : ... .. . ... ... : A#3 01 A ... ... : D-2 01 A ... ... : ... .. . ... ...
ROW 65 : ... .. B ... ... ... : ... .. . ... ... ... : D#3 00 . ... : ... .. . ... : ... .. . ... ... : ... .. 9 ... ... : ... .. 9 ... ... : ... .. . ... ...
ROW 66 : ... .. A ... ... ... : ... .. . ... ... ... : G#2 00 . ... : ... .. . ... : ... .. . ... ... : ... .. . ... ... : ... .. . ... ... : ... .. . ... ...
ROW 67 : ... .. 8 ... ... ... : ... .. . ... ... ... : G-2 00 . ... : ... .. 0 ... : ... .. . ... ... : ... .. 8 ... ... : ... .. 8 ... ... : ... .. . ... ...
ROW 68 : ... .. . ... ... ... : ... .. . ... ... ... : D-2 00 . ... : ... .. . ... : ... .. . ... ... : ... .. 7 ... ... : ... .. 7 ... ... : ... .. . ... ...
ROW 69 : A-4 00 D ... ... ... : ... .. . ... ... ... : ... .. . ... : 6-# 00 D ... : ... .. . ... ... : ... .. . ... ... : ... .. . ... ... : ... .. . ... ...
ROW 6A : ... .. C ... ... ... : ... .. . ... ... ... : ... .. . ... : ... .. . ... : ... .. . ... ... : ... .. 6 ... ... : ... .. 6 ... ... : ... .. . ... ...
ROW 6B : ... .. B ... ... ... : ... .. . ... ... ... : ... .. . ... : ... .. . ... : ... .. . ... ... : ... .. . ... ... : ... .. . ... ... : ... .. . ... ...
ROW 6C : ... .. 8 ... ... ... : ... .. . ... ... ... : ... .. . ... : ... .. 0 ... : ... .. . ... ... : ... .. . ... ... : ... .. . ... ... : ... .. . ... ...
ROW 6D : ... .. . ... ... ... : ... .. . ... ... ... : ... .. . ... : ... .. . ... : ... .. . ... ... : ... .. . ... ... : ... .. . ... ... : ... .. . ... ...
ROW 6E : A#4 00 D ... ... ... : ... .. . ... ... ... : C-4 00 . ... : 5-# 00 D ... : ... .. . ... ... : B-3 01 A ... ... : C#2 01 A ... ... : ... .. . ... ...
ROW 6F : ... .. C ... ... ... : ... .. . ... ... ... : D-3 00 . ... : ... .. . ... : ... .. . ... ... : ... .. 9 ... ... : ... .. 9 ... ... : ... .. . ... ...
ROW 70 : ... .. B ... ... ... : ... .. . ... ... ... : G-2 00 . ... : ... .. . ... : ... .. . ... ... : ... .. . ... ... : ... .. . ... ... : ... .. . ... ...
ROW 71 : ... .. 9 ... ... ... : ... .. . ... ... ... : F#2 00 . ... : ... .. 0 ... : ... .. . ... ... : ... .. 8 ... ... : ... .. 8 ... ... : ... .. . ... ...
ROW 72 : ... .. . ... ... ... : ... .. . ... ... ... : C#2 00 . ... : ... .. . ... : ... .. . ... ... : ... .. 7 ... ... : ... .. 7 ... ... : ... .. . ... ...
ROW 73 : B-4 00 E ... ... ... : ... .. . ... ... ... : ... .. . ... : 4-# 00 E ... : ... .. . ... ... : ... .. . ... ... : ... .. . ... ... : ... .. . ... ...
ROW 74 : ... .. D ... ... ... : ... .. . ... ... ... : ... .. . ... : ... .. . ... : ... .. . ... ... : ... .. 6 ... ... : ... .. 6 ... ... : ... .. . ... ...
ROW 75 : ... .. C ... ... ... : ... .. . ... ... ... : ... .. . ... : ... .. . ... : ... .. . ... ... : ... .. . ... ... : ... .. . ... ... : ... .. . ... ...
ROW 76 : ... .. 9 ... ... ... : ... .. . ... ... ... : ... .. . ... : ... .. 0 ... : ... .. . ... ... : ... .. . ... ... : ... .. . ... ... : ... .. . ... ...
ROW 77 : ... .. . ... ... ... : ... .. . ... ... ... : ... .. . ... : ... .. . ... : ... .. . ... ... : ... .. . ... ... : ... .. . ... ... : ... .. . ... ...
ROW 78 : C-5 00 F ... ... ... : ... .. . ... ... ... : B-3 00 . ... : 3-# 00 E ... : ... .. . ... ... : C-4 01 A ... ... : C-2 01 A ... ... : ... .. . ... ...
ROW 79 : ... .. E ... ... ... : ... .. . ... ... ... : C#3 00 . ... : ... .. . ... : ... .. . ... ... : ... .. 9 ... ... : ... .. 9 ... ... : ... .. . ... ...
ROW 7A : ... .. D ... ... ... : ... .. . ... ... ... : F#2 00 . ... : ... .. . ... : ... .. . ... ... : ... .. . ... ... : ... .. . ... ... : ... .. . ... ...
ROW 7B : ... .. A ... ... ... : ... .. . ... ... ... : F-2 00 . ... : ... .. F ... : ... .. . ... ... : ... .. 8 ... ... : ... .. 8 ... ... : ... .. . ... ...
ROW 7C : ... .. . ... ... ... : ... .. . ... ... ... : C-2 00 . ... : ... .. . ... : ... .. . ... ... : ... .. 7 ... ... : ... .. 7 ... ... : ... .. . ... ...
ROW 7D : ... .. 0 ... ... ... : ... .. . ... ... ... : ... .. . ... : ... .. 0 ... : ... .. . ... ... : --- .. . ... ... : --- .. . P7E ... : ... .. . ... ...
ROW 7E : ... .. . ... ... ... : ... .. . ... ... ... : ... .. . ... : ... .. . ... : ... .. . ... ... : ... .. . ... ... : ... .. . ... ... : ... .. . ... ...
ROW 7F : ... .. . ... ... ... : ... .. . ... ... ... : ... .. . ... : ... .. . ... : ... .. . ... ... : ... .. . ... ... : ... .. . ... ... : ... .. . ... ...
ROW 80 : ... .. . ... ... ... : ... .. . ... ... ... : ... .. . ... : ... .. . ... : ... .. . ... ... : ... .. . ... ... : ... .. . ... ... : ... .. . ... ...
ROW 81 : ... .. . ... ... ... : ... .. . ... ... ... : ... .. . ... : ... .. . ... : ... .. . ... ... : ... .. . ... ... : ... .. . ... ... : ... .. . ... ...
ROW 82 : C-5 00 6 P80 ... ... : ... .. . ... ... ... : --- .. . ... : ... .. . ... : ... .. . ... ... : ... .. . ... ... : ... .. . ... ... : ... .. . ... ...
ROW 83 : ... .. 5 ... ... ... : ... .. . ... ... ... : ... .. . ... : ... .. . ... : ... .. . ... ... : ... .. . ... ... : ... .. . ... ... : ... .. . ... ...
ROW 84 : ... .. . ... ... ... : ... .. . ... ... ... : ... .. . ... : ... .. . ... : ... .. . ... ... : ... .. . ... ... : ... .. . ... ... : ... .. . ... ...
ROW 85 : ... .. 4 ... ... ... : ... .. . ... ... ... : ... .. . ... : ... .. . ... : ... .. . ... ... : ... .. . ... ... : ... .. . ... ... : ... .. . ... ...
ROW 86 : ... .. . ... ... ... : ... .. . ... ... ... : ... .. . ... : ... .. . ... : ... .. . ... ... : ... .. . ... ... : ... .. . ... ... : ... .. . ... ...
ROW 87 : ... .. 0 ... ... ... : ... .. . ... ... ... : ... .. . ... : ... .. . ... : ... .. . ... ... : ... .. . ... ... : ... .. . ... ... : ... .. . ... ...
ROW 88 : ... .. . ... ... ... : ... .. . ... ... ... : ... .. . ... : ... .. . ... : ... .. . ... ... : ... .. . ... ... : ... .. . ... ... : ... .. . ... ...
ROW 89 : ... .. . ... ... ... : ... .. . ... ... ... : ... .. . ... : ... .. . ... : ... .. . ... ... : ... .. . ... ... : ... .. . ... ... : ... .. . ... ...
ROW 8A : ... .. . ... ... ... : ... .. . ... ... ... : ... .. . ... : ... .. . ... : ... .. . ... ... : ... .. . ... ... : ... .. . ... ... : ... .. . ... ...
ROW 8B : ... .. . ... ... ... : ... .. . ... ... ... : ... .. . ... : ... .. . ... : ... .. . ... ... : ... .. . ... ... : ... .. . ... ... : ... .. . ... ...
ROW 8C : C-5 00 4 P80 ... ... : ... .. . ... ... ... : B-5 00 . ... : ... .. . ... : ... .. . ... ... : ... .. . ... ... : ... .. . ... ... : ... .. . ... ...
ROW 8D : ... .. 3 ... ... ... : ... .. . ... ... ... : C#5 00 . ... : ... .. . ... : ... .. . ... ... : ... .. . ... ... : ... .. . ... ... : ... .. . ... ...
ROW 8E : ... .. . ... ... ... : ... .. . ... ... ... : F#4 00 . ... : ... .. . ... : ... .. . ... ... : ... .. . ... ... : ... .. . ... ... : ... .. . ... ...
ROW 8F : ... .. 2 ... ... ... : ... .. . ... ... ... : F-4 00 . ... : ... .. . ... : ... .. . ... ... : ... .. . ... ... : ... .. . ... ... : ... .. . ... ...
ROW 90 : ... .. . ... ... ... : ... .. . ... ... ... : C-4 00 . ... : ... .. . ... : ... .. . ... ... : ... .. . ... ... : ... .. . ... ... : ... .. . ... ...
ROW 91 : ... .. 0 ... ... ... : ... .. . ... ... ... : ... .. . ... : ... .. . ... : ... .. . ... ... : ... .. . ... ... : ... .. . ... ... : ... .. . ... ...
ROW 92 : ... .. . ... ... ... : ... .. . ... ... ... : ... .. . ... : ... .. . ... : ... .. . ... ... : ... .. . ... ... : ... .. . ... ... : ... .. . ... ...
ROW 93 : ... .. . ... ... ... : ... .. . ... ... ... : ... .. . ... : ... .. . ... : ... .. . ... ... : ... .. . ... ... : ... .. . ... ... : ... .. . ... ...
ROW 94 : ... .. . ... ... ... : ... .. . ... ... ... : ... .. . ... : ... .. . ... : ... .. . ... ... : ... .. . ... ... : ... .. . ... ... : ... .. . ... ...
ROW 95 : ... .. . ... ... ... : ... .. . ... ... ... : ... .. . ... : ... .. . ... : ... .. . ... ... : ... .. . ... ... : ... .. . ... ... : ... .. . ... ...
ROW 96 : C-5 00 2 P80 ... ... : ... .. . ... ... ... : A#3 00 . P7A : ... .. . ... : ... .. . ... ... : ... .. . ... ... : ... .. . ... ... : ... .. . ... ...
ROW 97 : ... .. 1 ... ... ... : ... .. . ... ... ... : G-3 00 . P87 : ... .. . ... : ... .. . ... ... : ... .. . ... ... : ... .. . ... ... : ... .. . ... ...
ROW 98 : ... .. . ... ... ... : ... .. . ... ... ... : F#3 00 . P78 : ... .. . ... : ... .. . ... ... : ... .. . ... ... : ... .. . ... ... : ... .. . ... ...
ROW 99 : ... .. . ... ... ... : ... .. . ... ... ... : E-3 00 . P7D : ... .. . ... : ... .. . ... ... : ... .. . ... ... : ... .. . ... ... : ... .. . ... ...
ROW 9A : ... .. . ... ... ... : ... .. . ... ... ... : D-3 00 . P87 : ... .. . ... : ... .. . ... ... : ... .. . ... ... : ... .. . ... ... : ... .. . ... ...
ROW 9B : ... .. 0 ... ... ... : ... .. . ... ... ... : C#3 00 . P7E : ... .. . ... : ... .. . ... ... : ... .. . ... ... : ... .. . ... ... : ... .. . ... ...
ROW 9C : ... .. . ... ... ... : ... .. . ... ... ... : C-3 00 . P76 : ... .. . ... : ... .. . ... ... : ... .. . ... ... : ... .. . ... ... : ... .. . ... ...
ROW 9D : ... .. . ... ... ... : ... .. . ... ... ... : A#2 00 . P8A : ... .. . ... : ... .. . ... ... : ... .. . ... ... : ... .. . ... ... : ... .. . ... ...
ROW 9E : ... .. . ... ... ... : ... .. . ... ... ... : A-2 00 . P86 : ... .. . ... : ... .. . ... ... : ... .. . ... ... : ... .. . ... ... : ... .. . ... ...
ROW 9F : ... .. . ... ... ... : ... .. . ... ... ... : G#2 00 . P85 : ... .. . ... : ... .. . ... ... : ... .. . ... ... : ... .. . ... ... : ... .. . ... ...
ROW A0 : C-5 00 F P80 V02 ... : ... .. . ... ... ... : F-3 00 . P80 : ... .. F ... : ... .. . ... ... : ... .. . ... ... : ... .. . ... ... : ... .. . ... ...
ROW A1 : ... .. E ... ... ... : ... .. . ... ... ... : ... .. . ... : ... .. C ... : ... .. . ... ... : ... .. . ... ... : ... .. . ... ... : ... .. . ... ...
ROW A2 : ... .. D ... ... ... : ... .. . ... ... ... : ... .. . ... : ... .. 6 ... : ... .. . ... ... : ... .. . ... ... : ... .. . ... ... : ... .. . ... ...
ROW A3 : ... .. A ... ... ... : ... .. . ... ... ... : ... .. . ... : ... .. 3 ... : ... .. . ... ... : ... .. . ... ... : ... .. . ... ... : ... .. . ... ...
ROW A4 : ... .. . ... ... ... : ... .. . ... ... ... : ... .. . ... : ... .. 2 ... : ... .. . ... ... : ... .. . ... ... : ... .. . ... ... : ... .. . ... ...
ROW A5 : ... .. . ... ... ... : ... .. . ... ... ... : --- .. . ... : ... .. 0 ... : ... .. . ... ... : ... .. . ... ... : ... .. . ... ... : ... .. . ... ...
ROW A6 : ... .. . ... ... ... : ... .. . ... ... ... : ... .. . ... : ... .. . ... : ... .. . ... ... : ... .. . ... ... : ... .. . ... ... : ... .. . ... ...
ROW A7 : ... .. . ... ... ... : ... .. . ... ... ... : ... .. . ... : ... .. . ... : ... .. . ... ... : ... .. . ... ... : ... .. . ... ... : ... .. . ... ...
ROW A8 : ... .. . ... ... ... : ... .. . ... ... ... : ... .. . ... : ... .. . ... : ... .. . ... ... : ... .. . ... ... : ... .. . ... ... : ... .. . ... ...
ROW A9 : ... .. . ... ... ... : ... .. . ... ... ... : ... .. . ... : ... .. . ... : ... .. . ... ... : ... .. . ... ... : ... .. . ... ... : ... .. . ... ...
ROW AA : ... .. 0 ... V00 ... : ... .. . ... ... ... : G#4 00 . ... : D-# 00 F ... : ... .. . ... ... : F-3 01 A ... ... : G#3 01 A P81 ... : ... .. . ... ...
ROW AB : ... .. . ... ... ... : ... .. . ... ... ... : ... .. . ... : ... .. C ... : ... .. . ... ... : ... .. 9 ... ... : ... .. 9 ... ... : ... .. . ... ...
ROW AC : ... .. . ... ... ... : ... .. . ... ... ... : ... .. . ... : ... .. 6 ... : ... .. . ... ... : ... .. . ... ... : ... .. . ... ... : ... .. . ... ...
ROW AD : ... .. . ... ... ... : ... .. . ... ... ... : ... .. . ... : ... .. 3 ... : ... .. . ... ... : ... .. 8 ... ... : ... .. 8 ... ... : ... .. . ... ...
ROW AE : ... .. . ... ... ... : ... .. . ... ... ... : ... .. . ... : ... .. 2 ... : ... .. . ... ... : ... .. 7 ... ... : ... .. 7 ... ... : ... .. . ... ...
ROW AF : ... .. . ... ... ... : ... .. . ... ... ... : --- .. . ... : ... .. F ... : ... .. . ... ... : --- .. . ... ... : --- .. . P83 ... : ... .. . ... ...
ROW B0 : ... .. . ... ... ... : ... .. . ... ... ... : ... .. . ... : ... .. C ... : ... .. . ... ... : ... .. . ... ... : ... .. . ... ... : ... .. . ... ...
ROW B1 : ... .. . ... ... ... : ... .. . ... ... ... : ... .. . ... : ... .. 6 ... : ... .. . ... ... : ... .. . ... ... : ... .. . ... ... : ... .. . ... ...
ROW B2 : ... .. . ... ... ... : ... .. . ... ... ... : ... .. . ... : ... .. 3 ... : ... .. . ... ... : ... .. . ... ... : ... .. . ... ... : ... .. . ... ...
ROW B3 : ... .. . ... ... ... : ... .. . ... ... ... : ... .. . ... : ... .. 2 ... : ... .. . ... ... : ... .. . ... ... : ... .. . ... ... : ... .. . ... ...
ROW B4 : F-4 00 F P80 V02 ... : ... .. . ... ... ... : F-3 00 . ... : 6-# 00 F ... : ... .. . ... ... : ... .. . ... ... : ... .. . ... ... : ... .. . ... ...
ROW B5 : ... .. E ... ... ... : ... .. . ... ... ... : ... .. . ... : ... .. C ... : ... .. . ... ... : ... .. . ... ... : ... .. . ... ... : ... .. . ... ...
ROW B6 : ... .. D ... ... ... : ... .. . ... ... ... : ... .. . ... : ... .. 6 ... : ... .. . ... ... : ... .. . ... ... : ... .. . ... ... : ... .. . ... ...
ROW B7 : ... .. A ... ... ... : ... .. . ... ... ... : ... .. . ... : ... .. 3 ... : ... .. . ... ... : ... .. . ... ... : ... .. . ... ... : ... .. . ... ...
ROW B8 : ... .. . ... ... ... : ... .. . ... ... ... : ... .. . ... : ... .. 2 ... : ... .. . ... ... : ... .. . ... ... : ... .. . ... ... : ... .. . ... ...
ROW B9 : ... .. 0 ... V00 ... : ... .. . ... ... ... : --- .. . ... : ... .. 0 ... : ... .. . ... ... : ... .. . ... ... : ... .. . ... ... : ... .. . ... ...
ROW BA : ... .. . ... ... ... : ... .. . ... ... ... : ... .. . ... : ... .. . ... : ... .. . ... ... : ... .. . ... ... : ... .. . ... ... : ... .. . ... ...
ROW BB : ... .. . ... ... ... : ... .. . ... ... ... : ... .. . ... : ... .. . ... : ... .. . ... ... : ... .. . ... ... : ... .. . ... ... : ... .. . ... ...
ROW BC : ... .. . ... ... ... : ... .. . ... ... ... : ... .. . ... : ... .. . ... : ... .. . ... ... : ... .. . ... ... : ... .. . ... ... : ... .. . ... ...
ROW BD : ... .. . ... ... ... : ... .. . ... ... ... : ... .. . ... : ... .. . ... : ... .. . ... ... : ... .. . ... ... : ... .. . ... ... : ... .. . ... ...
ROW BE : C-5 00 F P80 V02 ... : ... .. . ... ... ... : G#4 00 . ... : D-# 00 F ... : ... .. . ... ... : F-3 01 A ... ... : G#3 01 A P81 ... : ... .. . ... ...
ROW BF : ... .. E ... ... ... : ... .. . ... ... ... : ... .. . ... : ... .. C ... : ... .. . ... ... : ... .. 9 ... ... : ... .. 9 ... ... : ... .. . ... ...
ROW C0 : ... .. D ... ... ... : ... .. . ... ... ... : ... .. . ... : ... .. 6 ... : ... .. . ... ... : ... .. . ... ... : ... .. . ... ... : ... .. . ... ...
ROW C1 : ... .. A ... ... ... : ... .. . ... ... ... : ... .. . ... : ... .. 3 ... : ... .. . ... ... : ... .. 8 ... ... : ... .. 8 ... ... : ... .. . ... ...
ROW C2 : ... .. . ... ... ... : ... .. . ... ... ... : ... .. . ... : ... .. 2 ... : ... .. . ... ... : ... .. 7 ... ... : ... .. 7 ... ... : ... .. . ... ...
ROW C3 : ... .. 0 ... V00 ... : ... .. . ... ... ... : --- .. . ... : ... .. F ... : ... .. . ... ... : --- .. . ... ... : --- .. . P83 ... : ... .. . ... ...
ROW C4 : ... .. . ... ... ... : ... .. . ... ... ... : ... .. . ... : ... .. C ... : ... .. . ... ... : ... .. . ... ... : ... .. . ... ... : ... .. . ... ...
ROW C5 : ... .. . ... ... ... : ... .. . ... ... ... : ... .. . ... : ... .. 6 ... : ... .. . ... ... : ... .. . ... ... : ... .. . ... ... : ... .. . ... ...
ROW C6 : ... .. . ... ... ... : ... .. . ... ... ... : ... .. . ... : ... .. 3 ... : ... .. . ... ... : ... .. . ... ... : ... .. . ... ... : ... .. . ... ...
ROW C7 : ... .. . ... ... ... : ... .. . ... ... ... : ... .. . ... : ... .. 2 ... : ... .. . ... ... : ... .. . ... ... : ... .. . ... ... : ... .. . ... ...
ROW C8 : C-5 00 F P80 V02 ... : ... .. . ... ... ... : F#3 00 . ... : 3-# 00 F ... : ... .. . ... ... : ... .. . ... ... : ... .. . ... ... : ... .. . ... ...
ROW C9 : ... .. E ... ... ... : ... .. . ... ... ... : ... .. . ... : ... .. C ... : ... .. . ... ... : ... .. . ... ... : ... .. . ... ... : ... .. . ... ...
ROW CA : ... .. D ... ... ... : ... .. . ... ... ... : ... .. . ... : ... .. 6 ... : ... .. . ... ... : ... .. . ... ... : ... .. . ... ... : ... .. . ... ...
ROW CB : ... .. A ... ... ... : ... .. . ... ... ... : ... .. . ... : ... .. 3 ... : ... .. . ... ... : ... .. . ... ... : ... .. . ... ... : ... .. . ... ...
ROW CC : ... .. . ... ... ... : ... .. . ... ... ... : ... .. . ... : ... .. 2 ... : ... .. . ... ... : ... .. . ... ... : ... .. . ... ... : ... .. . ... ...
ROW CD : ... .. . ... ... ... : ... .. . ... ... ... : --- .. . ... : ... .. 0 ... : ... .. . ... ... : ... .. . ... ... : ... .. . ... ... : ... .. . ... ...
ROW CE : ... .. . ... ... ... : ... .. . ... ... ... : ... .. . ... : ... .. . ... : ... .. . ... ... : ... .. . ... ... : ... .. . ... ... : ... .. . ... ...
ROW CF : ... .. . ... ... ... : ... .. . ... ... ... : ... .. . ... : ... .. . ... : ... .. . ... ... : ... .. . ... ... : ... .. . ... ... : ... .. . ... ...
ROW D0 : ... .. . ... ... ... : ... .. . ... ... ... : ... .. . ... : ... .. . ... : ... .. . ... ... : ... .. . ... ... : ... .. . ... ... : ... .. . ... ...
ROW D1 : ... .. . ... ... ... : ... .. . ... ... ... : ... .. . ... : ... .. . ... : ... .. . ... ... : ... .. . ... ... : ... .. . ... ... : ... .. . ... ...
ROW D2 : C#5 00 F ... ... ... : ... .. . ... ... ... : A#4 00 . ... : D-# 00 F ... : ... .. . ... ... : F#3 01 A ... ... : A#3 01 A P81 ... : ... .. . ... ...
ROW D3 : ... .. E ... ... ... : ... .. . ... ... ... : ... .. . ... : ... .. C ... : ... .. . ... ... : ... .. 9 ... ... : ... .. 9 ... ... : ... .. . ... ...
ROW D4 : ... .. D ... ... ... : ... .. . ... ... ... : ... .. . ... : ... .. 6 ... : ... .. . ... ... : ... .. . ... ... : ... .. . ... ... : ... .. . ... ...
ROW D5 : ... .. 0 ... V00 ... : ... .. . ... ... ... : ... .. . ... : ... .. 3 ... : ... .. . ... ... : ... .. 8 ... ... : ... .. 8 ... ... : ... .. . ... ...
ROW D6 : ... .. . ... ... ... : ... .. . ... ... ... : ... .. . ... : ... .. 2 ... : ... .. . ... ... : ... .. 7 ... ... : ... .. 7 ... ... : ... .. . ... ...
ROW D7 : C-5 00 F P80 V02 ... : ... .. . ... ... ... : --- .. . ... : ... .. F ... : ... .. . ... ... : --- .. . P7F ... : --- .. . ... ... : ... .. . ... ...
ROW D8 : ... .. E ... ... ... : ... .. . ... ... ... : ... .. . ... : ... .. C ... : ... .. . ... ... : ... .. . ... ... : ... .. . ... ... : ... .. . ... ...
ROW D9 : ... .. D ... ... ... : ... .. . ... ... ... : ... .. . ... : ... .. 6 ... : ... .. . ... ... : ... .. . ... ... : ... .. . ... ... : ... .. . ... ...
ROW DA : ... .. 0 ... V00 ... : ... .. . ... ... ... : ... .. . ... : ... .. 3 ... : ... .. . ... ... : ... .. . ... ... : ... .. . ... ... : ... .. . ... ...
ROW DB : ... .. . ... ... ... : ... .. . ... ... ... : ... .. . ... : ... .. 2 ... : ... .. . ... ... : ... .. . ... ... : ... .. . ... ... : ... .. . ... ...
ROW DC : A#4 00 F P80 V02 ... : ... .. . ... ... ... : E-3 00 . ... : 6-# 00 F ... : ... .. . ... ... : ... .. . ... ... : ... .. . ... ... : ... .. . ... ...
ROW DD : ... .. E ... ... ... : ... .. . ... ... ... : ... .. . ... : ... .. C ... : ... .. . ... ... : ... .. . ... ... : ... .. . ... ... : ... .. . ... ...
ROW DE : ... .. D ... ... ... : ... .. . ... ... ... : ... .. . ... : ... .. 6 ... : ... .. . ... ... : ... .. . ... ... : ... .. . ... ... : ... .. . ... ...
ROW DF : ... .. A ... ... ... : ... .. . ... ... ... : ... .. . ... : ... .. 3 ... : ... .. . ... ... : ... .. . ... ... : ... .. . ... ... : ... .. . ... ...
ROW E0 : ... .. . ... ... ... : ... .. . ... ... ... : ... .. . ... : ... .. 2 ... : ... .. . ... ... : ... .. . ... ... : ... .. . ... ... : ... .. . ... ...
ROW E1 : ... .. 0 ... V00 ... : ... .. . ... ... ... : --- .. . ... : ... .. 0 ... : ... .. . ... ... : ... .. . ... ... : ... .. . ... ... : ... .. . ... ...
ROW E2 : ... .. . ... ... ... : ... .. . ... ... ... : ... .. . ... : ... .. . ... : ... .. . ... ... : ... .. . ... ... : ... .. . ... ... : ... .. . ... ...
ROW E3 : ... .. . ... ... ... : ... .. . ... ... ... : ... .. . ... : ... .. . ... : ... .. . ... ... : ... .. . ... ... : ... .. . ... ... : ... .. . ... ...
ROW E4 : ... .. . ... ... ... : ... .. . ... ... ... : ... .. . ... : ... .. . ... : ... .. . ... ... : ... .. . ... ... : ... .. . ... ... : ... .. . ... ...
ROW E5 : ... .. . ... ... ... : ... .. . ... ... ... : ... .. . ... : ... .. . ... : ... .. . ... ... : ... .. . ... ... : ... .. . ... ... : ... .. . ... ...
ROW E6 : C-5 00 F P80 V02 ... : ... .. . ... ... ... : G-4 00 . ... : D-# 00 F ... : ... .. . ... ... : G-3 01 A P80 ... : A#3 01 A ... ... : ... .. . ... ...
ROW E7 : ... .. E ... ... ... : ... .. . ... ... ... : ... .. . ... : ... .. C ... : ... .. . ... ... : ... .. 9 ... ... : ... .. 9 ... ... : ... .. . ... ...
ROW E8 : ... .. D ... ... ... : ... .. . ... ... ... : ... .. . ... : ... .. 6 ... : ... .. . ... ... : ... .. . ... ... : ... .. . ... ... : ... .. . ... ...
ROW E9 : ... .. A ... ... ... : ... .. . ... ... ... : ... .. . ... : ... .. 3 ... : ... .. . ... ... : ... .. 8 ... ... : ... .. 8 ... ... : ... .. . ... ...
ROW EA : ... .. . ... ... ... : ... .. . ... ... ... : ... .. . ... : ... .. 2 ... : ... .. . ... ... : ... .. 7 ... ... : ... .. 7 ... ... : ... .. . ... ...
ROW EB : ... .. 0 ... V00 ... : ... .. . ... ... ... : --- .. . ... : ... .. 0 ... : ... .. . ... ... : --- .. . P81 ... : --- .. . ... ... : ... .. . ... ...
ROW EC : ... .. . ... ... ... : ... .. . ... ... ... : ... .. . ... : ... .. . ... : ... .. . ... ... : ... .. . ... ... : ... .. . ... ... : ... .. . ... ...
ROW ED : ... .. . ... ... ... : ... .. . ... ... ... : ... .. . ... : ... .. . ... : ... .. . ... ... : ... .. . ... ... : ... .. . ... ... : ... .. . ... ...
ROW EE : ... .. . ... ... ... : ... .. . ... ... ... : ... .. . ... : ... .. . ... : ... .. . ... ... : ... .. . ... ... : ... .. . ... ... : ... .. . ... ...
ROW EF : ... .. . ... ... ... : ... .. . ... ... ... : ... .. . ... : ... .. . ... : ... .. . ... ... : ... .. . ... ... : ... .. . ... ... : ... .. . ... ...
ROW F0 : A#4 00 F P80 V02 ... : ... .. . ... ... ... : F-3 00 . ... : 3-# 00 F ... : ... .. . ... ... : ... .. . ... ... : ... .. . ... ... : ... .. . ... ...
ROW F1 : ... .. E ... ... ... : ... .. . ... ... ... : ... .. . ... : ... .. C ... : ... .. . ... ... : ... .. . ... ... : ... .. . ... ... : ... .. . ... ...
ROW F2 : ... .. D ... ... ... : ... .. . ... ... ... : ... .. . ... : ... .. 6 ... : ... .. . ... ... : ... .. . ... ... : ... .. . ... ... : ... .. . ... ...
ROW F3 : ... .. A ... ... ... : ... .. . ... ... ... : ... .. . ... : ... .. 3 ... : ... .. . ... ... : ... .. . ... ... : ... .. . ... ... : ... .. . ... ...
ROW F4 : ... .. . ... ... ... : ... .. . ... ... ... : ... .. . ... : ... .. 2 ... : ... .. . ... ... : ... .. . ... ... : ... .. . ... ... : ... .. . ... ...
ROW F5 : ... .. . ... ... ... : ... .. . ... ... ... : --- .. . ... : ... .. 0 ... : ... .. . ... ... : ... .. . ... ... : ... .. . ... ... : ... .. . ... ...
ROW F6 : ... .. . ... ... ... : ... .. . ... ... ... : ... .. . ... : ... .. . ... : ... .. . ... ... : ... .. . ... ... : ... .. . ... ... : ... .. . ... ...
ROW F7 : ... .. . ... ... ... : ... .. . ... ... ... : ... .. . ... : ... .. . ... : ... .. . ... ... : ... .. . ... ... : ... .. . ... ... : ... .. . ... ...
ROW F8 : ... .. . ... ... ... : ... .. . ... ... ... : ... .. . ... : ... .. . ... : ... .. . ... ... : ... .. . ... ... : ... .. . ... ... : ... .. . ... ...
ROW F9 : ... .. . ... ... ... : ... .. . ... ... ... : ... .. . ... : ... .. . ... : ... .. . ... ... : ... .. . ... ... : ... .. . ... ... : ... .. . ... ...
ROW FA : C-5 00 F ... ... ... : ... .. . ... ... ... : G#4 00 . ... : D-# 00 F ... : ... .. . ... ... : F-3 01 A P80 ... : G#3 01 A ... ... : ... .. . ... ...
ROW FB : ... .. E ... ... ... : ... .. . ... ... ... : ... .. . ... : ... .. C ... : ... .. . ... ... : ... .. 9 ... ... : ... .. 9 ... ... : ... .. . ... ...
ROW FC : ... .. D ... ... ... : ... .. . ... ... ... : ... .. . ... : ... .. 6 ... : ... .. . ... ... : ... .. . ... ... : ... .. . ... ... : ... .. . ... ...
ROW FD : ... .. 0 ... V00 ... : ... .. . ... ... ... : ... .. . ... : ... .. 3 ... : ... .. . ... ... : ... .. 8 ... ... : ... .. 8 ... ... : ... .. . ... ...
ROW FE : ... .. . ... ... ... : ... .. . ... ... ... : ... .. . ... : ... .. 2 ... : ... .. . ... ... : ... .. 7 ... ... : ... .. 7 ... ... : ... .. . ... ...
ROW FF : A#4 00 F P80 V02 ... : ... .. . ... ... ... : --- .. . ... : ... .. F ... : ... .. . ... ... : --- .. . ... ... : --- .. . P83 ... : ... .. . ... ...

PATTERN 01
ROW 00 : ... .. E ... ... ... : ... .. . ... ... ... : ... .. . ... : ... .. C ... : ... .. . ... ... : ... .. . ... ... : ... .. . ... ... : ... .. . ... ...
ROW 01 : ... .. D ... ... ... : ... .. . ... ... ... : ... .. . ... : ... .. 6 ... : ... .. . ... ... : ... .. . ... ... : ... .. . ... ... : ... .. . ... ...
ROW 02 : ... .. 0 ... V00 ... : ... .. . ... ... ... : ... .. . ... : ... .. 3 ... : ... .. . ... ... : ... .. . ... ... : ... .. . ... ... : ... .. . ... ...
ROW 03 : ... .. . ... ... ... : ... .. . ... ... ... : ... .. . ... : ... .. 2 ... : ... .. . ... ... : ... .. . ... ... : ... .. . ... ... : ... .. . ... ...
ROW 04 : G#4 00 F P80 V02 ... : ... .. . ... ... ... : C-3 00 . ... : 6-# 00 F ... : ... .. . ... ... : ... .. . ... ... : ... .. . ... ... : ... .. . ... ...
ROW 05 : ... .. E ... ... ... : ... .. . ... ... ... : ... .. . ... : ... .. C ... : ... .. . ... ... : ... .. . ... ... : ... .. . ... ... : ... .. . ... ...
ROW 06 : ... .. D ... ... ... : ... .. . ... ... ... : ... .. . ... : ... .. 6 ... : ... .. . ... ... : ... .. . ... ... : ... .. . ... ... : ... .. . ... ...
ROW 07 : ... .. A ... ... ... : ... .. . ... ... ... : ... .. . ... : ... .. 3 ... : ... .. . ... ... : ... .. . ... ... : ... .. . ... ... : ... .. . ... ...
ROW 08 : ... .. . ... ... ... : ... .. . ... ... ... : ... .. . ... : ... .. 2 ... : ... .. . ... ... : ... .. . ... ... : ... .. . ... ... : ... .. . ... ...
ROW 09 : ... .. 0 ... V00 ... : ... .. . ... ... ... : --- .. . ... : ... .. 0 ... : ... .. . ... ... : ... .. . ... ... : ... .. . ... ... : ... .. . ... ...
ROW 0A : ... .. . ... ... ... : ... .. . ... ... ... : ... .. . ... : ... .. . ... : ... .. . ... ... : ... .. . ... ... : ... .. . ... ... : ... .. . ... ...
ROW 0B : ... .. . ... ... ... : ... .. . ... ... ... : ... .. . ... : ... .. . ... : ... .. . ... ... : ... .. . ... ... : ... .. . ... ... : ... .. . ... ...
ROW 0C : ... .. . ... ... ... : ... .. . ... ... ... : ... .. . ... : ... .. . ... : ... .. . ... ... : ... .. . ... ... : ... .. . ... ... : ... .. . ... ...
ROW 0D : ... .. . ... ... ... : ... .. . ... ... ... : ... .. . ... : ... .. . ... : ... .. . ... ... : ... .. . ... ... : ... .. . ... ... : ... .. . ... ...
ROW 0E : G-4 00 F P80 V02 ... : ... .. . ... ... ... : E-4 00 . ... : D-# 00 F ... : ... .. . ... ... : E-3 01 A ... ... : G-3 01 A P81 ... : ... .. . ... ...
ROW 0F : ... .. E ... ... ... : ... .. . ... ... ... : ... .. . ... : ... .. C ... : ... .. . ... ... : ... .. 9 ... ... : ... .. 9 ... ... : ... .. . ... ...
ROW 10 : ... .. D ... ... ... : ... .. . ... ... ... : ... .. . ... : ... .. 6 ... : ... .. . ... ... : ... .. . ... ... : ... .. . ... ... : ... .. . ... ...
ROW 11 : ... .. A ... ... ... : ... .. . ... ... ... : ... .. . ... : ... .. 3 ... : ... .. . ... ... : ... .. 8 ... ... : ... .. 8 ... ... : ... .. . ... ...
ROW 12 : ... .. . ... ... ... : ... .. . ... ... ... : ... .. . ... : ... .. 2 ... : ... .. . ... ... : ... .. 7 ... ... : ... .. 7 ... ... : ... .. . ... ...
ROW 13 : ... .. 0 ... V00 ... : ... .. . ... ... ... : --- .. . ... : ... .. 0 ... : ... .. . ... ... : --- .. . P82 ... : --- .. . P80 ... : ... .. . ... ...
ROW 14 : ... .. . ... ... ... : ... .. . ... ... ... : ... .. . ... : ... .. . ... : ... .. . ... ... : ... .. . ... ... : ... .. . ... ... : ... .. . ... ...
ROW 15 : ... .. . ... ... ... : ... .. . ... ... ... : ... .. . ... : ... .. . ... : ... .. . ... ... : ... .. . ... ... : ... .. . ... ... : ... .. . ... ...
ROW 16 : ... .. . ... ... ... : ... .. . ... ... ... : ... .. . ... : ... .. . ... : ... .. . ... ... : ... .. . ... ... : ... .. . ... ... : ... .. . ... ...
ROW 17 : ... .. . ... ... ... : ... .. . ... ... ... : ... .. . ... : ... .. . ... : ... .. . ... ... : ... .. . ... ... : ... .. . ... ... : ... .. . ... ...
ROW 18 : G#4 00 F P80 V02 ... : ... .. . ... ... ... : F-4 00 . ... : 3-# 00 F ... : ... .. . ... ... : F-3 01 A P80 ... : G#3 01 A P81 ... : ... .. . ... ...
ROW 19 : ... .. E ... ... ... : ... .. . ... ... ... : ... .. . ... : ... .. C ... : ... .. . ... ... : ... .. 9 ... ... : ... .. 9 ... ... : ... .. . ... ...
ROW 1A : ... .. D ... ... ... : ... .. . ... ... ... : ... .. . ... : ... .. 6 ... : ... .. . ... ... : ... .. . ... ... : ... .. . ... ... : ... .. . ... ...
ROW 1B : ... .. A ... ... ... : ... .. . ... ... ... : ... .. . ... : ... .. 3 ... : ... .. . ... ... : ... .. 8 ... ... : ... .. 8 ... ... : ... .. . ... ...
ROW 1C : ... .. . ... ... ... : ... .. . ... ... ... : ... .. . ... : ... .. 2 ... : ... .. . ... ... : ... .. 7 ... ... : ... .. 7 ... ... : ... .. . ... ...
ROW 1D : ... .. 0 ... V00 ... : ... .. . ... ... ... : D-4 00 . P7E : ... .. 0 ... : ... .. . ... ... : ... .. . ... ... : ... .. . ... ... : ... .. . ... ...
ROW 1E : ... .. . ... ... ... : ... .. . ... ... ... : B-3 00 . P82 : ... .. . ... : ... .. . ... ... : ... .. 6 ... ... : ... .. 6 ... ... : ... .. . ... ...
ROW 1F : ... .. . ... ... ... : ... .. . ... ... ... : A-3 00 . P7E : ... .. . ... : ... .. . ... ... : ... .. . ... ... : ... .. . ... ... : ... .. . ... ...
ROW 20 : ... .. . ... ... ... : ... .. . ... ... ... : G-3 00 . P7D : ... .. . ... : ... .. . ... ... : ... .. . ... ... : ... .. . ... ... : ... .. . ... ...
ROW 21 : ... .. . ... ... ... : ... .. . ... ... ... : F-3 00 . P80 : ... .. . ... : ... .. . ... ... : ... .. . ... ... : ... .. . ... ... : ... .. . ... ...
ROW 22 : ... .. . ... ... ... : ... .. . ... ... ... : D#3 00 . P88 : ... .. . ... : ... .. . ... ... : --- .. . ... ... : --- .. . P83 ... : ... .. . ... ...
ROW 23 : ... .. . ... ... ... : ... .. . ... ... ... : D-3 00 . P7D : ... .. . ... : ... .. . ... ... : ... .. . ... ... : ... .. . ... ... : ... .. . ... ...
ROW 24 : ... .. . ... ... ... : ... .. . ... ... ... : C-3 00 . P8C : ... .. . ... : ... .. . ... ... : ... .. . ... ... : ... .. . ... ... : ... .. . ... ...
ROW 25 : ... .. . ... ... ... : ... .. . ... ... ... : B-2 00 . P85 : ... .. . ... : ... .. . ... ... : ... .. . ... ... : ... .. . ... ... : ... .. . ... ...
ROW 26 : ... .. . ... ... ... : ... .. . ... ... ... : A#2 00 . P80 : ... .. . ... : ... .. . ... ... : ... .. . ... ... : ... .. . ... ... : ... .. . ... ...
ROW 27 : ... .. . ... ... ... : ... .. . ... ... ... : A-2 00 . P7C : ... .. . ... : ... .. . ... ... : ... .. . ... ... : ... .. . ... ... : ... .. . ... ...
ROW 28 : ... .. . ... ... ... : ... .. . ... ... ... : G#2 00 . P7B : ... .. . ... : ... .. . ... ... : ... .. . ... ... : ... .. . ... ... : ... .. . ... ...
ROW 29 : ... .. . ... ... ... : ... .. . ... ... ... : G-2 00 . ... : ... .. . ... : ... .. . ... ... : ... .. . ... ... : ... .. . ... ... : ... .. . ... ...
ROW 2A : ... .. . ... ... ... : ... .. . ... ... ... : F#2 00 . P7D : ... .. . ... : ... .. . ... ... : ... .. . ... ... : ... .. . ... ... : ... .. . ... ...
ROW 2B : ... .. . ... ... ... : ... .. . ... ... ... : F-2 00 . P81 : ... .. . ... : ... .. . ... ... : ... .. . ... ... : ... .. . ... ... : ... .. . ... ...
ROW 2C : C-4 00 F P80 V02 ... : ... .. . ... ... ... : B-3 00 . P80 : ... .. . ... : ... .. . ... ... : ... .. . ... ... : ... .. . ... ... : ... .. . ... ...
ROW 2D : ... .. E ... ... ... : ... .. . ... ... ... : C#3 00 . ... : ... .. . ... : ... .. . ... ... : ... .. . ... ... : ... .. . ... ... : ... .. . ... ...
ROW 2E : ... .. D ... ... ... : ... .. . ... ... ... : F#2 00 . ... : ... .. . ... : ... .. . ... ... : ... .. . ... ... : ... .. . ... ... : ... .. . ... ...
ROW 2F : C#4 00 B ... ... ... : ... .. . ... ... ... : F-2 00 . ... : ... .. . ... : ... .. . ... ... : ... .. . ... ... : ... .. . ... ... : ... .. . ... ...
ROW 30 : ... .. A ... ... ... : ... .. . ... ... ... : C-2 00 . ... : ... .. . ... : ... .. . ... ... : ... .. . ... ... : ... .. . ... ... : ... .. . ... ...
ROW 31 : C-4 00 7 ... ... ... : ... .. . ... ... ... : ... .. . ... : ... .. . ... : ... .. . ... ... : ... .. . ... ... : ... .. . ... ... : ... .. . ... ...
ROW 32 : ... .. 6 ... ... ... : ... .. . ... ... ... : ... .. . ... : ... .. . ... : ... .. . ... ... : ... .. . ... ... : ... .. . ... ... : ... .. . ... ...
ROW 33 : ... .. . ... ... ... : ... .. . ... ... ... : ... .. . ... : ... .. . ... : ... .. . ... ... : ... .. . ... ... : ... .. . ... ... : ... .. . ... ...
ROW 34 : C#4 00 4 ... ... ... : ... .. . ... ... ... : ... .. . ... : ... .. . ... : ... .. . ... ... : ... .. . ... ... : ... .. . ... ... : ... .. . ... ...
ROW 35 : ... .. 3 ... ... ... : ... .. . ... ... ... : ... .. . ... : ... .. . ... : ... .. . ... ... : ... .. . ... ... : ... .. . ... ... : ... .. . ... ...
ROW 36 : C-4 00 6 ... ... ... : ... .. . ... ... ... : ... .. . ... : ... .. . ... : ... .. . ... ... : ... .. . ... ... : ... .. . ... ... : ... .. . ... ...
ROW 37 : ... .. 5 ... ... ... : ... .. . ... ... ... : ... .. . ... : ... .. . ... : ... .. . ... ... : ... .. . ... ... : ... .. . ... ... : ... .. . ... ...
ROW 38 : ... .. . ... ... ... : ... .. . ... ... ... : ... .. . ... : ... .. . ... : ... .. . ... ... : ... .. . ... ... : ... .. . ... ... : ... .. . ... ...
ROW 39 : C#4 00 8 ... ... ... : ... .. . ... ... ... : ... .. . ... : ... .. . ... : ... .. . ... ... : ... .. . ... ... : ... .. . ... ... : ... .. . ... ...
ROW 3A : ... .. 7 ... ... ... : ... .. . ... ... ... : ... .. . ... : ... .. . ... : ... .. . ... ... : ... .. . ... ... : ... .. . ... ... : ... .. . ... ...
ROW 3B : C-4 00 A ... ... ... : ... .. . ... ... ... : ... .. . ... : ... .. . ... : ... .. . ... ... : ... .. . ... ... : ... .. . ... ... : ... .. . ... ...
ROW 3C : ... .. 9 ... ... ... : ... .. . ... ... ... : ... .. . ... : ... .. . ... : ... .. . ... ... : ... .. . ... ... : ... .. . ... ... : ... .. . ... ...
ROW 3D : ... .. 8 ... ... ... : ... .. . ... ... ... : ... .. . ... : ... .. . ... : ... .. . ... ... : ... .. . ... ... : ... .. . ... ... : ... .. . ... ...
ROW 3E : C#4 00 C ... ... ... : ... .. . ... ... ... : ... .. . ... : ... .. . ... : ... .. . ... ... : ... .. . ... ... : ... .. . ... ... : ... .. . ... ...
ROW 3F : ... .. B ... ... ... : ... .. . ... ... ... : ... .. . ... : ... .. . ... : ... .. . ... ... : ... .. . ... ... : ... .. . ... ... : ... .. . ... ...
ROW 40 : C-4 00 F ... ... ... : ... .. . ... ... ... : F-2 00 . ... : ... .. F ... : ... .. . ... ... : ... .. . ... ... : ... .. . ... ... : ... .. . ... ...
ROW 41 : ... .. E ... ... ... : ... .. . ... ... ... : ... .. . ... : ... .. C ... : ... .. . ... ... : ... .. . ... ... : ... .. . ... ... : ... .. . ... ...
ROW 42 : ... .. D ... ... ... : ... .. . ... ... ... : ... .. . ... : ... .. 6 ... : ... .. . ... ... : ... .. . ... ... : ... .. . ... ... : ... .. . ... ...
ROW 43 : ... .. A ... ... ... : ... .. . ... ... ... : ... .. . ... : ... .. 3 ... : ... .. . ... ... : ... .. . ... ... : ... .. . ... ... : ... .. . ... ...
ROW 44 : ... .. . ... ... ... : ... .. . ... ... ... : ... .. . ... : ... .. 2 ... : ... .. . ... ... : ... .. . ... ... : ... .. . ... ... : ... .. . ... ...
ROW 45 : ... .. 0 ... V00 ... : ... .. . ... ... ... : ... .. . ... : ... .. 0 ... : ... .. . ... ... : ... .. . ... ... : ... .. . ... ... : ... .. . ... ...
ROW 46 : ... .. . ... ... ... : ... .. . ... ... ... : ... .. . ... : ... .. . ... : ... .. . ... ... : ... .. . ... ... : ... .. . ... ... : ... .. . ... ...
ROW 47 : ... .. . ... ... ... : ... .. . ... ... ... : ... .. . ... : ... .. . ... : ... .. . ... ... : ... .. . ... ... : ... .. . ... ... : ... .. . ... ...
ROW 48 : ... .. . ... ... ... : ... .. . ... ... ... : --- .. . ... : ... .. . ... : ... .. . ... ... : ... .. . ... ... : ... .. . ... ... : ... .. . ... ...
ROW 49 : ... .. . ... ... ... : ... .. . ... ... ... : ... .. . ... : ... .. . ... : ... .. . ... ... : ... .. . ... ... : ... .. . ... ... : ... .. . ... ...
ROW 4A : C-5 00 F P80 V02 ... : ... .. . ... ... ... : G#3 00 . ... : D-# 00 F ... : ... .. . ... ... : F-3 01 A ... ... : G#3 01 A P81 ... : ... .. . ... ...
ROW 4B : ... .. E ... ... ... : ... .. . ... ... ... : ... .. . ... : ... .. C ... : ... .. . ... ... : ... .. 9 ... ... : ... .. 9 ... ... : ... .. . ... ...
ROW 4C : ... .. D ... ... ... : ... .. . ... ... ... : ... .. . ... : ... .. 6 ... : ... .. . ... ... : ... .. . ... ... : ... .. . ... ... : ... .. . ... ...
ROW 4D : ... .. A ... ... ... : ... .. . ... ... ... : --- .. . ... : ... .. 3 ... : ... .. . ... ... : ... .. 8 ... ... : ... .. 8 ... ... : ... .. . ... ...
ROW 4E : ... .. . ... ... ... : ... .. . ... ... ... : ... .. . ... : ... .. 2 ... : ... .. . ... ... : ... .. 7 ... ... : ... .. 7 ... ... : ... .. . ... ...
ROW 4F : ... .. 0 ... V00 ... : ... .. . ... ... ... : G#3 00 . ... : ... .. F ... : ... .. . ... ... : --- .. . ... ... : --- .. . P83 ... : ... .. . ... ...
ROW 50 : ... .. . ... ... ... : ... .. . ... ... ... : ... .. . ... : ... .. C ... : ... .. . ... ... : ... .. . ... ... : ... .. . ... ... : ... .. . ... ...
ROW 51 : ... .. . ... ... ... : ... .. . ... ... ... : ... .. . ... : ... .. 6 ... : ... .. . ... ... : ... .. . ... ... : ... .. . ... ... : ... .. . ... ...
ROW 52 : ... .. . ... ... ... : ... .. . ... ... ... : --- .. . ... : ... .. 3 ... : ... .. . ... ... : ... .. . ... ... : ... .. . ... ... : ... .. . ... ...
ROW 53 : ... .. . ... ... ... : ... .. . ... ... ... : ... .. . ... : ... .. 2 ... : ... .. . ... ... : ... .. . ... ... : ... .. . ... ... : ... .. . ... ...
ROW 54 : G#4 00 F P80 V02 ... : ... .. . ... ... ... : F-2 00 . ... : 6-# 00 F ... : ... .. . ... ... : ... .. . ... ... : ... .. . ... ... : ... .. . ... ...
ROW 55 : ... .. E ... ... ... : ... .. . ... ... ... : ... .. . ... : ... .. C ... : ... .. . ... ... : ... .. . ... ... : ... .. . ... ... : ... .. . ... ...
ROW 56 : ... .. D ... ... ... : ... .. . ... ... ... : ... .. . ... : ... .. 6 ... : ... .. . ... ... : ... .. . ... ... : ... .. . ... ... : ... .. . ... ...
ROW 57 : ... .. A ... ... ... : ... .. . ... ... ... : ... .. . ... : ... .. 3 ... : ... .. . ... ... : ... .. . ... ... : ... .. . ... ... : ... .. . ... ...
ROW 58 : ... .. . ... ... ... : ... .. . ... ... ... : ... .. . ... : ... .. 2 ... : ... .. . ... ... : ... .. . ... ... : ... .. . ... ... : ... .. . ... ...
ROW 59 : ... .. 0 ... V00 ... : ... .. . ... ... ... : --- .. . ... : ... .. 0 ... : ... .. . ... ... : ... .. . ... ... : ... .. . ... ... : ... .. . ... ...
ROW 5A : ... .. . ... ... ... : ... .. . ... ... ... : ... .. . ... : ... .. . ... : ... .. . ... ... : ... .. . ... ... : ... .. . ... ... : ... .. . ... ...
ROW 5B : ... .. . ... ... ... : ... .. . ... ... ... : ... .. . ... : ... .. . ... : ... .. . ... ... : ... .. . ... ... : ... .. . ... ... : ... .. . ... ...
ROW 5C : ... .. . ... ... ... : ... .. . ... ... ... : ... .. . ... : ... .. . ... : ... .. . ... ... : ... .. . ... ... : ... .. . ... ... : ... .. . ... ...
ROW 5D : ... .. . ... ... ... : ... .. . ... ... ... : ... .. . ... : ... .. . ... : ... .. . ... ... : ... .. . ... ... : ... .. . ... ... : ... .. . ... ...
ROW 5E : F-4 00 F P80 V02 ... : ... .. . ... ... ... : C-4 00 . ... : D-# 00 F ... : ... .. . ... ... : F-3 01 A ... ... : G#3 01 A P81 ... : ... .. . ... ...
ROW 5F : ... .. E ... ... ... : ... .. . ... ... ... : ... .. . ... : ... .. C ... : ... .. . ... ... : ... .. 9 ... ... : ... .. 9 ... ... : ... .. . ... ...
ROW 60 : ... .. D ... ... ... : ... .. . ... ... ... : ... .. . ... : ... .. 6 ... : ... .. . ... ... : ... .. . ... ... : ... .. . ... ... : ... .. . ... ...
ROW 61 : ... .. A ... ... ... : ... .. . ... ... ... : --- .. . ... : ... .. 3 ... : ... .. . ... ... : ... .. 8 ... ... : ... .. 8 ... ... : ... .. . ... ...
ROW 62 : ... .. . ... ... ... : ... .. . ... ... ... : ... .. . ... : ... .. 2 ... : ... .. . ... ... : ... .. 7 ... ... : ... .. 7 ... ... : ... .. . ... ...
ROW 63 : ... .. . ... ... ... : ... .. . ... ... ... : C-4 00 . ... : ... .. F ... : ... .. . ... ... : --- .. . ... ... : --- .. . P83 ... : ... .. . ... ...
ROW 64 : ... .. . ... ... ... : ... .. . ... ... ... : ... .. . ... : ... .. C ... : ... .. . ... ... : ... .. . ... ... : ... .. . ... ... : ... .. . ... ...
ROW 65 : ... .. . ... ... ... : ... .. . ... ... ... : ... .. . ... : ... .. 6 ... : ... .. . ... ... : ... .. . ... ... : ... .. . ... ... : ... .. . ... ...
ROW 66 : ... .. 0 ... V00 ... : ... .. . ... ... ... : --- .. . ... : ... .. 3 ... : ... .. . ... ... : ... .. . ... ... : ... .. . ... ... : ... .. . ... ...
ROW 67 : ... .. . ... ... ... : ... .. . ... ... ... : ... .. . ... : ... .. 2 ... : ... .. . ... ... : ... .. . ... ... : ... .. . ... ... : ... .. . ... ...
ROW 68 : C-4 00 F P80 V02 ... : ... .. . ... ... ... : F#2 00 . ... : 3-# 00 F ... : ... .. . ... ... : ... .. . ... ... : ... .. . ... ... : ... .. . ... ...
ROW 69 : ... .. E ... ... ... : ... .. . ... ... ... : ... .. . ... : ... .. C ... : ... .. . ... ... : ... .. . ... ... : ... .. . ... ... : ... .. . ... ...
ROW 6A : ... .. D ... ... ... : ... .. . ... ... ... : ... .. . ... : ... .. 6 ... : ... .. . ... ... : ... .. . ... ... : ... .. . ... ... : ... .. . ... ...
ROW 6B : ... .. A ... ... ... : ... .. . ... ... ... : ... .. . ... : ... .. 3 ... : ... .. . ... ... : ... .. . ... ... : ... .. . ... ... : ... .. . ... ...
ROW 6C : ... .. . ... ... ... : ... .. . ... ... ... : ... .. . ... : ... .. 2 ... : ... .. . ... ... : ... .. . ... ... : ... .. . ... ... : ... .. . ... ...
ROW 6D : ... .. . ... ... ... : ... .. . ... ... ... : --- .. . ... : ... .. 0 ... : ... .. . ... ... : ... .. . ... ... : ... .. . ... ... : ... .. . ... ...
ROW 6E : ... .. . ... ... ... : ... .. . ... ... ... : ... .. . ... : ... .. . ... : ... .. . ... ... : ... .. . ... ... : ... .. . ... ... : ... .. . ... ...
ROW 6F : ... .. . ... ... ... : ... .. . ... ... ... : ... .. . ... : ... .. . ... : ... .. . ... ... : ... .. . ... ... : ... .. . ... ... : ... .. . ... ...
ROW 70 : ... .. . ... ... ... : ... .. . ... ... ... : ... .. . ... : ... .. . ... : ... .. . ... ... : ... .. . ... ... : ... .. . ... ... : ... .. . ... ...
ROW 71 : ... .. . ... ... ... : ... .. . ... ... ... : ... .. . ... : ... .. . ... : ... .. . ... ... : ... .. . ... ... : ... .. . ... ... : ... .. . ... ...
ROW 72 : C#4 00 F ... ... ... : ... .. . ... ... ... : A#3 00 . ... : D-# 00 F ... : ... .. . ... ... : F#3 01 A ... ... : A#3 01 A P81 ... : ... .. . ... ...
ROW 73 : ... .. E ... ... ... : ... .. . ... ... ... : ... .. . ... : ... .. C ... : ... .. . ... ... : ... .. 9 ... ... : ... .. 9 ... ... : ... .. . ... ...
ROW 74 : ... .. D ... ... ... : ... .. . ... ... ... : ... .. . ... : ... .. 6 ... : ... .. . ... ... : ... .. . ... ... : ... .. . ... ... : ... .. . ... ...
ROW 75 : ... .. 0 ... V00 ... : ... .. . ... ... ... : --- .. . ... : ... .. 3 ... : ... .. . ... ... : ... .. 8 ... ... : ... .. 8 ... ... : ... .. . ... ...
ROW 76 : ... .. . ... ... ... : ... .. . ... ... ... : ... .. . ... : ... .. 2 ... : ... .. . ... ... : ... .. 7 ... ... : ... .. 7 ... ... : ... .. . ... ...
ROW 77 : C-4 00 F P80 V02 ... : ... .. . ... ... ... : A#3 00 . ... : ... .. F ... : ... .. . ... ... : --- .. . P7F ... : --- .. . ... ... : ... .. . ... ...
ROW 78 : ... .. E ... ... ... : ... .. . ... ... ... : ... .. . ... : ... .. C ... : ... .. . ... ... : ... .. . ... ... : ... .. . ... ... : ... .. . ... ...
ROW 79 : ... .. D ... ... ... : ... .. . ... ... ... : ... .. . ... : ... .. 6 ... : ... .. . ... ... : ... .. . ... ... : ... .. . ... ... : ... .. . ... ...
ROW 7A : ... .. 0 ... V00 ... : ... .. . ... ... ... : --- .. . ... : ... .. 3 ... : ... .. . ... ... : ... .. . ... ... : ... .. . ... ... : ... .. . ... ...
ROW 7B : ... .. . ... ... ... : ... .. . ... ... ... : ... .. . ... : ... .. 2 ... : ... .. . ... ... : ... .. . ... ... : ... .. . ... ... : ... .. . ... ...
ROW 7C : A#3 00 F P80 V02 ... : ... .. . ... ... ... : E-3 00 . ... : 6-# 00 F ... : ... .. . ... ... : ... .. . ... ... : ... .. . ... ... : ... .. . ... ...
ROW 7D : ... .. E ... ... ... : ... .. . ... ... ... : ... .. . ... : ... .. C ... : ... .. . ... ... : ... .. . ... ... : ... .. . ... ... : ... .. . ... ...
ROW 7E : ... .. D ... ... ... : ... .. . ... ... ... : ... .. . ... : ... .. 6 ... : ... .. . ... ... : ... .. . ... ... : ... .. . ... ... : ... .. . ... ...
ROW 7F : ... .. A ... ... ... : ... .. . ... ... ... : ... .. . ... : ... .. 3 ... : ... .. . ... ... : ... .. . ... ... : ... .. . ... ... : ... .. . ... ...
ROW 80 : ... .. . ... ... ... : ... .. . ... ... ... : ... .. . ... : ... .. 2 ... : ... .. . ... ... : ... .. . ... ... : ... .. . ... ... : ... .. . ... ...
ROW 81 : ... .. 0 ... V00 ... : ... .. . ... ... ... : --- .. . ... : ... .. 0 ... : ... .. . ... ... : ... .. . ... ... : ... .. . ... ... : ... .. . ... ...
ROW 82 : ... .. . ... ... ... : ... .. . ... ... ... : ... .. . ... : ... .. . ... : ... .. . ... ... : ... .. . ... ... : ... .. . ... ... : ... .. . ... ...
ROW 83 : ... .. . ... ... ... : ... .. . ... ... ... : ... .. . ... : ... .. . ... : ... .. . ... ... : ... .. . ... ... : ... .. . ... ... : ... .. . ... ...
ROW 84 : ... .. . ... ... ... : ... .. . ... ... ... : ... .. . ... : ... .. . ... : ... .. . ... ... : ... .. . ... ... : ... .. . ... ... : ... .. . ... ...
ROW 85 : ... .. . ... ... ... : ... .. . ... ... ... : ... .. . ... : ... .. . ... : ... .. . ... ... : ... .. . ... ... : ... .. . ... ... : ... .. . ... ...
ROW 86 : A#4 00 F P80 V02 ... : ... .. . ... ... ... : C-4 00 . ... : D-# 00 F ... : ... .. . ... ... : G-3 01 A P80 ... : A#3 01 A ... ... : ... .. . ... ...
ROW 87 : ... .. E ... ... ... : ... .. . ... ... ... : ... .. . ... : ... .. C ... : ... .. . ... ... : ... .. 9 ... ... : ... .. 9 ... ... : ... .. . ... ...
ROW 88 : ... .. D ... ... ... : ... .. . ... ... ... : ... .. . ... : ... .. 6 ... : ... .. . ... ... : ... .. . ... ... : ... .. . ... ... : ... .. . ... ...
ROW 89 : ... .. A ... ... ... : ... .. . ... ... ... : --- .. . ... : ... .. 3 ... : ... .. . ... ... : ... .. 8 ... ... : ... .. 8 ... ... : ... .. . ... ...
ROW 8A : ... .. . ... ... ... : ... .. . ... ... ... : ... .. . ... : ... .. 2 ... : ... .. . ... ... : ... .. 7 ... ... : ... .. 7 ... ... : ... .. . ... ...
ROW 8B : ... .. 0 ... V00 ... : ... .. . ... ... ... : C-4 00 . ... : ... .. 0 ... : ... .. . ... ... : --- .. . P81 ... : --- .. . ... ... : ... .. . ... ...
ROW 8C : ... .. . ... ... ... : ... .. . ... ... ... : ... .. . ... : ... .. . ... : ... .. . ... ... : ... .. . ... ... : ... .. . ... ... : ... .. . ... ...
ROW 8D : ... .. . ... ... ... : ... .. . ... ... ... : ... .. . ... : ... .. . ... : ... .. . ... ... : ... .. . ... ... : ... .. . ... ... : ... .. . ... ...
ROW 8E : ... .. . ... ... ... : ... .. . ... ... ... : --- .. . ... : ... .. . ... : ... .. . ... ... : ... .. . ... ... : ... .. . ... ... : ... .. . ... ...
ROW 8F : ... .. . ... ... ... : ... .. . ... ... ... : ... .. . ... : ... .. . ... : ... .. . ... ... : ... .. . ... ... : ... .. . ... ... : ... .. . ... ...
ROW 90 : A#3 00 F P80 V02 ... : ... .. . ... ... ... : F-3 00 . ... : 3-# 00 F ... : ... .. . ... ... : ... .. . ... ... : ... .. . ... ... : ... .. . ... ...
ROW 91 : ... .. E ... ... ... : ... .. . ... ... ... : ... .. . ... : ... .. C ... : ... .. . ... ... : ... .. . ... ... : ... .. . ... ... : ... .. . ... ...
ROW 92 : ... .. D ... ... ... : ... .. . ... ... ... : ... .. . ... : ... .. 6 ... : ... .. . ... ... : ... .. . ... ... : ... .. . ... ... : ... .. . ... ...
ROW 93 : ... .. A ... ... ... : ... .. . ... ... ... : ... .. . ... : ... .. 3 ... : ... .. . ... ... : ... .. . ... ... : ... .. . ... ... : ... .. . ... ...
ROW 94 : ... .. . ... ... ... : ... .. . ... ... ... : ... .. . ... : ... .. 2 ... : ... .. . ... ... : ... .. . ... ... : ... .. . ... ... : ... .. . ... ...
ROW 95 : ... .. . ... ... ... : ... .. . ... ... ... : --- .. . ... : ... .. 0 ... : ... .. . ... ... : ... .. . ... ... : ... .. . ... ... : ... .. . ... ...
ROW 96 : ... .. . ... ... ... : ... .. . ... ... ... : ... .. . ... : ... .. . ... : ... .. . ... ... : ... .. . ... ... : ... .. . ... ... : ... .. . ... ...
ROW 97 : ... .. . ... ... ... : ... .. . ... ... ... : ... .. . ... : ... .. . ... : ... .. . ... ... : ... .. . ... ... : ... .. . ... ... : ... .. . ... ...
ROW 98 : ... .. . ... ... ... : ... .. . ... ... ... : ... .. . ... : ... .. . ... : ... .. . ... ... : ... .. . ... ... : ... .. . ... ... : ... .. . ... ...
ROW 99 : ... .. . ... ... ... : ... .. . ... ... ... : ... .. . ... : ... .. . ... : ... .. . ... ... : ... .. . ... ... : ... .. . ... ... : ... .. . ... ...
ROW 9A : C-4 00 F ... ... ... : ... .. . ... ... ... : G#3 00 . ... : D-# 00 F ... : ... .. . ... ... : F-3 01 A P80 ... : G#3 01 A ... ... : ... .. . ... ...
ROW 9B : ... .. E ... ... ... : ... .. . ... ... ... : ... .. . ... : ... .. C ... : ... .. . ... ... : ... .. 9 ... ... : ... .. 9 ... ... : ... .. . ... ...
ROW 9C : ... .. D ... ... ... : ... .. . ... ... ... : ... .. . ... : ... .. 6 ... : ... .. . ... ... : ... .. . ... ... : ... .. . ... ... : ... .. . ... ...
ROW 9D : ... .. 0 ... V00 ... : ... .. . ... ... ... : ... .. . ... : ... .. 3 ... : ... .. . ... ... : ... .. 8 ... ... : ... .. 8 ... ... : ... .. . ... ...
ROW 9E : ... .. . ... ... ... : ... .. . ... ... ... : ... .. . ... : ... .. 2 ... : ... .. . ... ... : ... .. 7 ... ... : ... .. 7 ... ... : ... .. . ... ...
ROW 9F : A#3 00 F P80 V02 ... : ... .. . ... ... ... : --- .. . ... : ... .. F ... : ... .. . ... ... : --- .. . ... ... : --- .. . P83 ... : ... .. . ... ...
ROW A0 : ... .. E ... ... ... : ... .. . ... ... ... : ... .. . ... : ... .. C ... : ... .. . ... ... : ... .. . ... ... : ... .. . ... ... : ... .. . ... ...
ROW A1 : ... .. D ... ... ... : ... .. . ... ... ... : ... .. . ... : ... .. 6 ... : ... .. . ... ... : ... .. . ... ... : ... .. . ... ... : ... .. . ... ...
ROW A2 : ... .. 0 ... V00 ... : ... .. . ... ... ... : ... .. . ... : ... .. 3 ... : ... .. . ... ... : ... .. . ... ... : ... .. . ... ... : ... .. . ... ...
ROW A3 : ... .. . ... ... ... : ... .. . ... ... ... : ... .. . ... : ... .. 2 ... : ... .. . ... ... : ... .. . ... ... : ... .. . ... ... : ... .. . ... ...
ROW A4 : G#3 00 F P80 V02 ... : ... .. . ... ... ... : C-3 00 . ... : 6-# 00 F ... : ... .. . ... ... : ... .. . ... ... : ... .. . ... ... : ... .. . ... ...
ROW A5 : ... .. E ... ... ... : ... .. . ... ... ... : ... .. . ... : ... .. C ... : ... .. . ... ... : ... .. . ... ... : ... .. . ... ... : ... .. . ... ...
ROW A6 : ... .. D ... ... ... : ... .. . ... ... ... : ... .. . ... : ... .. 6 ... : ... .. . ... ... : ... .. . ... ... : ... .. . ... ... : ... .. . ... ...
ROW A7 : ... .. A ... ... ... : ... .. . ... ... ... : ... .. . ... : ... .. 3 ... : ... .. . ... ... : ... .. . ... ... : ... .. . ... ... : ... .. . ... ...
ROW A8 : ... .. . ... ... ... : ... .. . ... ... ... : ... .. . ... : ... .. 2 ... : ... .. . ... ... : ... .. . ... ... : ... .. . ... ... : ... .. . ... ...
ROW A9 : G-3 00 F ... ... ... : ... .. . ... ... ... : --- .. . ... : ... .. 0 ... : ... .. . ... ... : ... .. . ... ... : ... .. . ... ... : ... .. . ... ...
ROW AA : ... .. E ... ... ... : ... .. . ... ... ... : ... .. . ... : ... .. . ... : ... .. . ... ... : ... .. . ... ... : ... .. . ... ... : ... .. . ... ...
ROW AB : ... .. D ... ... ... : ... .. . ... ... ... : ... .. . ... : ... .. . ... : ... .. . ... ... : ... .. . ... ... : ... .. . ... ... : ... .. . ... ...
ROW AC : ... .. 0 ... V00 ... : ... .. . ... ... ... : ... .. . ... : ... .. . ... : ... .. . ... ... : ... .. . ... ... : ... .. . ... ... : ... .. . ... ...
ROW AD : ... .. . ... ... ... : ... .. . ... ... ... : ... .. . ... : ... .. . ... : ... .. . ... ... : ... .. . ... ... : ... .. . ... ... : ... .. . ... ...
ROW AE : F-3 00 F P80 V02 ... : ... .. . ... ... ... : G-3 00 . ... : D-# 00 F ... : ... .. . ... ... : E-3 01 A ... ... : G-3 01 A P81 ... : ... .. . ... ...
ROW AF : ... .. E ... ... ... : ... .. . ... ... ... : ... .. . ... : ... .. C ... : ... .. . ... ... : ... .. 9 ... ... : ... .. 9 ... ... : ... .. . ... ...
ROW B0 : ... .. D ... ... ... : ... .. . ... ... ... : ... .. . ... : ... .. 6 ... : ... .. . ... ... : ... .. . ... ... : ... .. . ... ... : ... .. . ... ...
ROW B1 : ... .. 0 ... V00 ... : ... .. . ... ... ... : ... .. . ... : ... .. 3 ... : ... .. . ... ... : ... .. 8 ... ... : ... .. 8 ... ... : ... .. . ... ...
ROW B2 : ... .. . ... ... ... : ... .. . ... ... ... : ... .. . ... : ... .. 2 ... : ... .. . ... ... : ... .. 7 ... ... : ... .. 7 ... ... : ... .. . ... ...
ROW B3 : E-3 00 F P80 V02 ... : ... .. . ... ... ... : --- .. . ... : ... .. 0 ... : ... .. . ... ... : --- .. . P82 ... : --- .. . P80 ... : ... .. . ... ...
ROW B4 : ... .. E ... ... ... : ... .. . ... ... ... : ... .. . ... : ... .. . ... : ... .. . ... ... : ... .. . ... ... : ... .. . ... ... : ... .. . ... ...
ROW B5 : ... .. D ... ... ... : ... .. . ... ... ... : ... .. . ... : ... .. . ... : ... .. . ... ... : ... .. . ... ... : ... .. . ... ... : ... .. . ... ...
ROW B6 : ... .. 0 ... V00 ... : ... .. . ... ... ... : ... .. . ... : ... .. . ... : ... .. . ... ... : ... .. . ... ... : ... .. . ... ... : ... .. . ... ...
ROW B7 : ... .. . ... ... ... : ... .. . ... ... ... : ... .. . ... : ... .. . ... : ... .. . ... ... : ... .. . ... ... : ... .. . ... ... : ... .. . ... ...
ROW B8 : F-3 00 F P80 V02 ... : ... .. . ... ... ... : F-3 00 . ... : 3-# 00 F ... : ... .. . ... ... : F-3 01 A P80 ... : G#3 01 A P81 ... : ... .. . ... ...
ROW B9 : ... .. E ... ... ... : ... .. . ... ... ... : ... .. . ... : ... .. C ... : ... .. . ... ... : ... .. 9 ... ... : ... .. 9 ... ... : ... .. . ... ...
ROW BA : ... .. D ... ... ... : ... .. . ... ... ... : ... .. . ... : ... .. 6 ... : ... .. . ... ... : ... .. . ... ... : ... .. . ... ... : ... .. . ... ...
ROW BB : ... .. A ... ... ... : ... .. . ... ... ... : ... .. . ... : ... .. 3 ... : ... .. . ... ... : ... .. 8 ... ... : ... .. 8 ... ... : ... .. . ... ...
ROW BC : ... .. . ... ... ... : ... .. . ... ... ... : ... .. . ... : ... .. 2 ... : ... .. . ... ... : ... .. 7 ... ... : ... .. 7 ... ... : ... .. . ... ...
ROW BD : ... .. 0 ... V00 ... : ... .. . ... ... ... : --- .. . ... : ... .. 0 ... : ... .. . ... ... : ... .. . ... ... : ... .. . ... ... : ... .. . ... ...
ROW BE : ... .. . ... ... ... : ... .. . ... ... ... : ... .. . ... : ... .. . ... : ... .. . ... ... : ... .. 6 ... ... : ... .. 6 ... ... : ... .. . ... ...
ROW BF : ... .. . ... ... ... : ... .. . ... ... ... : ... .. . ... : ... .. . ... : ... .. . ... ... : ... .. . ... ... : ... .. . ... ... : ... .. . ... ...
ROW C0 : ... .. . ... ... ... : ... .. . ... ... ... : ... .. . ... : ... .. . ... : ... .. . ... ... : ... .. . ... ... : ... .. . ... ... : ... .. . ... ...
ROW C1 : ... .. . ... ... ... : ... .. . ... ... ... : ... .. . ... : ... .. . ... : ... .. . ... ... : ... .. . ... ... : ... .. . ... ... : ... .. . ... ...
ROW C2 : ... .. . ... ... ... : ... .. . ... ... ... : G#5 00 . ... : ... .. . ... : ... .. . ... ... : --- .. . ... ... : --- .. . P83 ... : ... .. . ... ...
ROW C3 : ... .. . ... ... ... : ... .. . ... ... ... : ... .. . ... : ... .. . ... : ... .. . ... ... : ... .. . ... ... : ... .. . ... ... : ... .. . ... ...
ROW C4 : ... .. . ... ... ... : ... .. . ... ... ... : ... .. . ... : ... .. . ... : ... .. . ... ... : ... .. . ... ... : ... .. . ... ... : ... .. . ... ...
ROW C5 : ... .. . ... ... ... : ... .. . ... ... ... : ... .. . ... : ... .. . ... : ... .. . ... ... : ... .. . ... ... : ... .. . ... ... : ... .. . ... ...
ROW C6 : ... .. . ... ... ... : ... .. . ... ... ... : ... .. . ... : ... .. . ... : ... .. . ... ... : ... .. . ... ... : ... .. . ... ... : ... .. . ... ...
ROW C7 : ... .. . ... ... ... : ... .. . ... ... ... : --- .. . ... : ... .. . ... : ... .. . ... ... : ... .. . ... ... : ... .. . ... ... : ... .. . ... ...
ROW C8 : ... .. . ... ... ... : ... .. . ... ... ... : ... .. . ... : ... .. . ... : ... .. . ... ... : ... .. . ... ... : ... .. . ... ... : ... .. . ... ...
ROW C9 : ... .. . ... ... ... : ... .. . ... ... ... : ... .. . ... : ... .. . ... : ... .. . ... ... : ... .. . ... ... : ... .. . ... ... : ... .. . ... ...
ROW CA : ... .. . ... ... ... : ... .. . ... ... ... : ... .. . ... : ... .. . ... : ... .. . ... ... : ... .. . ... ... : ... .. . ... ... : ... .. . ... ...
ROW CB : ... .. . ... ... ... : ... .. . ... ... ... : ... .. . ... : ... .. . ... : ... .. . ... ... : ... .. . ... ... : ... .. . ... ... : ... .. . ... ...
ROW CC : ... .. . ... ... ... : ... .. . ... ... ... : E-4 00 . ... : ... .. . ... : ... .. . ... ... : ... .. . ... ... : ... .. . ... ... : ... .. . ... ...
ROW CD : ... .. . ... ... ... : ... .. . ... ... ... : F#3 00 . ... : ... .. . ... : ... .. . ... ... : ... .. . ... ... : ... .. . ... ... : ... .. . ... ...
ROW CE : ... .. . ... ... ... : ... .. . ... ... ... : B-2 00 . ... : ... .. . ... : ... .. . ... ... : ... .. . ... ... : ... .. . ... ... : ... .. . ... ...
ROW CF : ... .. . ... ... ... : ... .. . ... ... ... : A#2 00 . ... : ... .. . ... : ... .. . ... ... : ... .. . ... ... : ... .. . ... ... : ... .. . ... ...
ROW D0 : ... .. . ... ... ... : ... .. . ... ... ... : F-2 00 . ... : ... .. . ... : ... .. . ... ... : ... .. . ... ... : ... .. . ... ... : ... .. . ... ...
ROW D1 : ... .. . ... ... ... : ... .. . ... ... ... : ... .. . ... : ... .. . ... : ... .. . ... ... : ... .. . ... ... : ... .. . ... ... : ... .. . ... ...
ROW D2 : ... .. . ... ... ... : ... .. . ... ... ... : ... .. . ... : ... .. . ... : ... .. . ... ... : ... .. . ... ... : ... .. . ... ... : ... .. . ... ...
ROW D3 : ... .. . ... ... ... : ... .. . ... ... ... : ... .. . ... : ... .. . ... : ... .. . ... ... : ... .. . ... ... : ... .. . ... ... : ... .. . ... ...
ROW D4 : ... .. . ... ... ... : ... .. . ... ... ... : ... .. . ... : ... .. . ... : ... .. . ... ... : ... .. . ... ... : ... .. . ... ... : ... .. . ... ...
ROW D5 : ... .. . ... ... ... : ... .. . ... ... ... : ... .. . ... : ... .. . ... : ... .. . ... ... : ... .. . ... ... : ... .. . ... ... : ... .. . ... ...
ROW D6 : F-4 00 F P80 V02 ... : ... .. . ... ... ... : --- .. . ... : ... .. . ... : ... .. . ... ... : ... .. . ... ... : ... .. . ... ... : ... .. . ... ...
ROW D7 : ... .. E ... ... ... : ... .. . ... ... ... : ... .. . ... : ... .. . ... : ... .. . ... ... : ... .. . ... ... : ... .. . ... ... : ... .. . ... ...
ROW D8 : ... .. D ... ... ... : ... .. . ... ... ... : ... .. . ... : ... .. . ... : ... .. . ... ... : ... .. . ... ... : ... .. . ... ... : ... .. . ... ...
ROW D9 : ... .. A ... ... ... : ... .. . ... ... ... : ... .. . ... : ... .. . ... : ... .. . ... ... : ... .. . ... ... : ... .. . ... ... : ... .. . ... ...
ROW DA : ... .. . ... ... ... : ... .. . ... ... ... : ... .. . ... : ... .. . ... : ... .. . ... ... : ... .. . ... ... : ... .. . ... ... : ... .. . ... ...
ROW DB : G-4 00 F ... ... ... : ... .. . ... ... ... : ... .. . ... : ... .. . ... : ... .. . ... ... : ... .. . ... ... : ... .. . ... ... : ... .. . ... ...
ROW DC : ... .. E ... ... ... : ... .. . ... ... ... : ... .. . ... : ... .. . ... : ... .. . ... ... : ... .. . ... ... : ... .. . ... ... : ... .. . ... ...
ROW DD : ... .. D ... ... ... : ... .. . ... ... ... : ... .. . ... : ... .. . ... : ... .. . ... ... : ... .. . ... ... : ... .. . ... ... : ... .. . ... ...
ROW DE : F-4 00 F ... ... ... : ... .. . ... ... ... : ... .. . ... : ... .. . ... : ... .. . ... ... : ... .. . ... ... : ... .. . ... ... : ... .. . ... ...
ROW DF : ... .. E ... ... ... : ... .. . ... ... ... : ... .. . ... : ... .. . ... : ... .. . ... ... : ... .. . ... ... : ... .. . ... ... : ... .. . ... ...
ROW E0 : E-4 00 F ... ... ... : ... .. . ... ... ... : B-3 00 . ... : ... .. F ... : ... .. . ... ... : C-3 01 A ... ... : G-3 01 A P81 ... : ... .. . ... ...
ROW E1 : ... .. E ... ... ... : ... .. . ... ... ... : C#3 00 . ... : ... .. C ... : ... .. . ... ... : ... .. 9 ... ... : ... .. 9 ... ... : ... .. . ... ...
ROW E2 : ... .. D ... ... ... : ... .. . ... ... ... : F#2 00 . ... : ... .. 6 ... : ... .. . ... ... : ... .. . ... ... : ... .. . ... ... : ... .. . ... ...
ROW E3 : ... .. A ... ... ... : ... .. . ... ... ... : F-2 00 . ... : ... .. 3 ... : ... .. . ... ... : ... .. 8 ... ... : ... .. 8 ... ... : ... .. . ... ...
ROW E4 : ... .. . ... ... ... : ... .. . ... ... ... : C-2 00 . ... : ... .. 2 ... : ... .. . ... ... : ... .. 7 ... ... : ... .. 7 ... ... : ... .. . ... ...
ROW E5 : ... .. 0 ... V00 ... : ... .. . ... ... ... : ... .. . ... : ... .. 0 ... : ... .. . ... ... : A#2 01 A ... ... : E-3 01 A ... ... : ... .. . ... ...
ROW E6 : ... .. . ... ... ... : ... .. . ... ... ... : ... .. . ... : ... .. . ... : ... .. . ... ... : ... .. 9 ... ... : ... .. 9 ... ... : ... .. . ... ...
ROW E7 : ... .. . ... ... ... : ... .. . ... ... ... : ... .. . ... : ... .. . ... : ... .. . ... ... : ... .. . ... ... : ... .. . ... ... : ... .. . ... ...
ROW E8 : ... .. . ... ... ... : ... .. . ... ... ... : ... .. . ... : ... .. . ... : ... .. . ... ... : ... .. 8 ... ... : ... .. 8 ... ... : ... .. . ... ...
ROW E9 : ... .. . ... ... ... : ... .. . ... ... ... : ... .. . ... : ... .. . ... : ... .. . ... ... : ... .. 7 ... ... : ... .. 7 ... ... : ... .. . ... ...
ROW EA : E-4 00 F P80 V02 ... : ... .. . ... ... ... : ... .. . ... : D-# 00 F ... : ... .. . ... ... : C-3 01 A ... ... : G-3 01 A ... ... : ... .. . ... ...
ROW EB : ... .. E ... ... ... : ... .. . ... ... ... : ... .. . ... : ... .. C ... : ... .. . ... ... : ... .. 9 ... ... : ... .. 9 ... ... : ... .. . ... ...
ROW EC : ... .. D ... ... ... : ... .. . ... ... ... : ... .. . ... : ... .. 6 ... : ... .. . ... ... : ... .. . ... ... : ... .. . ... ... : ... .. . ... ...
ROW ED : ... .. 0 ... V00 ... : ... .. . ... ... ... : ... .. . ... : ... .. 3 ... : ... .. . ... ... : ... .. 8 ... ... : ... .. 8 ... ... : ... .. . ... ...
ROW EE : ... .. . ... ... ... : ... .. . ... ... ... : ... .. . ... : ... .. 2 ... : ... .. . ... ... : ... .. 7 ... ... : ... .. 7 ... ... : ... .. . ... ...
ROW EF : F-4 00 F P80 V02 ... : ... .. . ... ... ... : ... .. . ... : ... .. F ... : ... .. . ... ... : A#2 01 A ... ... : E-3 01 A ... ... : ... .. . ... ...
ROW F0 : ... .. E ... ... ... : ... .. . ... ... ... : ... .. . ... : ... .. C ... : ... .. . ... ... : ... .. 9 ... ... : ... .. 9 ... ... : ... .. . ... ...
ROW F1 : ... .. D ... ... ... : ... .. . ... ... ... : ... .. . ... : ... .. 6 ... : ... .. . ... ... : ... .. . ... ... : ... .. . ... ... : ... .. . ... ...
ROW F2 : ... .. 0 ... V00 ... : ... .. . ... ... ... : ... .. . ... : ... .. 3 ... : ... .. . ... ... : ... .. 8 ... ... : ... .. 8 ... ... : ... .. . ... ...
ROW F3 : ... .. . ... ... ... : ... .. . ... ... ... : ... .. . ... : ... .. 2 ... : ... .. . ... ... : ... .. 7 ... ... : ... .. 7 ... ... : ... .. . ... ...
ROW F4 : G-4 00 F P80 V02 ... : ... .. . ... ... ... : ... .. . ... : 6-# 00 F ... : ... .. . ... ... : C-3 01 A ... ... : G-3 01 A ... ... : ... .. . ... ...
ROW F5 : ... .. E ... ... ... : ... .. . ... ... ... : ... .. . ... : ... .. C ... : ... .. . ... ... : ... .. 9 ... ... : ... .. 9 ... ... : ... .. . ... ...
ROW F6 : ... .. D ... ... ... : ... .. . ... ... ... : ... .. . ... : ... .. 6 ... : ... .. . ... ... : ... .. . ... ... : ... .. . ... ... : ... .. . ... ...
ROW F7 : ... .. A ... ... ... : ... .. . ... ... ... : ... .. . ... : ... .. 3 ... : ... .. . ... ... : ... .. 8 ... ... : ... .. 8 ... ... : ... .. . ... ...
ROW F8 : ... .. . ... ... ... : ... .. . ... ... ... : ... .. . ... : ... .. 2 ... : ... .. . ... ... : ... .. 7 ... ... : ... .. 7 ... ... : ... .. . ... ...
ROW F9 : ... .. 0 ... V00 ... : ... .. . ... ... ... : ... .. . ... : ... .. 0 ... : ... .. . ... ... : A#2 01 A ... ... : E-3 01 A ... ... : ... .. . ... ...
ROW FA : ... .. . ... ... ... : ... .. . ... ... ... : ... .. . ... : ... .. . ... : ... .. . ... ... : ... .. 9 ... ... : ... .. 9 ... ... : ... .. . ... ...
ROW FB : ... .. . ... ... ... : ... .. . ... ... ... : ... .. . ... : ... .. . ... : ... .. . ... ... : ... .. . ... ... : ... .. . ... ... : ... .. . ... ...
ROW FC : ... .. . ... ... ... : ... .. . ... ... ... : ... .. . ... : ... .. . ... : ... .. . ... ... : ... .. 8 ... ... : ... .. 8 ... ... : ... .. . ... ...
ROW FD : ... .. . ... ... ... : ... .. . ... ... ... : ... .. . ... : ... .. . ... : ... .. . ... ... : ... .. 7 ... ... : ... .. 7 ... ... : ... .. . ... ...
ROW FE : E-4 00 F P80 V02 ... : ... .. . ... ... ... : ... .. . ... : D-# 00 F ... : ... .. . ... ... : C-3 01 A ... ... : G-3 01 A ... ... : ... .. . ... ...
ROW FF : ... .. E ... ... ... : ... .. . ... ... ... : ... .. . ... : ... .. C ... : ... .. . ... ... : ... .. 9 ... ... : ... .. 9 ... ... : ... .. . ... ...

PATTERN 02
ROW 00 : ... .. D ... ... ... : ... .. . ... ... ... : ... .. . ... : ... .. 6 ... : ... .. . ... ... : ... .. . ... ... : ... .. . ... ... : ... .. . ... ...
ROW 01 : ... .. A ... ... ... : ... .. . ... ... ... : ... .. . ... : ... .. 3 ... : ... .. . ... ... : ... .. 8 ... ... : ... .. 8 ... ... : ... .. . ... ...
ROW 02 : ... .. . ... ... ... : ... .. . ... ... ... : ... .. . ... : ... .. 2 ... : ... .. . ... ... : ... .. 7 ... ... : ... .. 7 ... ... : ... .. . ... ...
ROW 03 : ... .. 0 ... V00 ... : ... .. . ... ... ... : ... .. . ... : ... .. F ... : ... .. . ... ... : A#2 01 A ... ... : E-3 01 A ... ... : ... .. . ... ...
ROW 04 : ... .. . ... ... ... : ... .. . ... ... ... : ... .. . ... : ... .. C ... : ... .. . ... ... : ... .. 9 ... ... : ... .. 9 ... ... : ... .. . ... ...
ROW 05 : ... .. . ... ... ... : ... .. . ... ... ... : ... .. . ... : ... .. 6 ... : ... .. . ... ... : ... .. . ... ... : ... .. . ... ... : ... .. . ... ...
ROW 06 : ... .. . ... ... ... : ... .. . ... ... ... : ... .. . ... : ... .. 3 ... : ... .. . ... ... : ... .. 8 ... ... : ... .. 8 ... ... : ... .. . ... ...
ROW 07 : ... .. . ... ... ... : ... .. . ... ... ... : ... .. . ... : ... .. 2 ... : ... .. . ... ... : ... .. 7 ... ... : ... .. 7 ... ... : ... .. . ... ...
ROW 08 : F-4 00 F P80 V02 ... : ... .. . ... ... ... : B-4 00 . ... : 3-# 00 F ... : ... .. . ... ... : C-3 01 A ... ... : G#3 01 A ... ... : ... .. . ... ...
ROW 09 : ... .. E ... ... ... : ... .. . ... ... ... : C#4 00 . ... : ... .. C ... : ... .. . ... ... : ... .. 9 ... ... : ... .. 9 ... ... : ... .. . ... ...
ROW 0A : ... .. D ... ... ... : ... .. . ... ... ... : F#3 00 . ... : ... .. 6 ... : ... .. . ... ... : ... .. . ... ... : ... .. . ... ... : ... .. . ... ...
ROW 0B : ... .. A ... ... ... : ... .. . ... ... ... : F-3 00 . ... : ... .. 3 ... : ... .. . ... ... : ... .. 8 ... ... : ... .. 8 ... ... : ... .. . ... ...
ROW 0C : ... .. . ... ... ... : ... .. . ... ... ... : C-3 00 . ... : ... .. 2 ... : ... .. . ... ... : ... .. 7 ... ... : ... .. 7 ... ... : ... .. . ... ...
ROW 0D : ... .. 0 ... V00 ... : ... .. . ... ... ... : ... .. . ... : ... .. 0 ... : ... .. . ... ... : G#2 01 A ... ... : F-3 01 A ... ... : ... .. . ... ...
ROW 0E : ... .. . ... ... ... : ... .. . ... ... ... : ... .. . ... : ... .. . ... : ... .. . ... ... : ... .. 9 ... ... : ... .. 9 ... ... : ... .. . ... ...
ROW 0F : ... .. . ... ... ... : ... .. . ... ... ... : ... .. . ... : ... .. . ... : ... .. . ... ... : ... .. . ... ... : ... .. . ... ... : ... .. . ... ...
ROW 10 : ... .. . ... ... ... : ... .. . ... ... ... : ... .. . ... : ... .. . ... : ... .. . ... ... : ... .. 8 ... ... : ... .. 8 ... ... : ... .. . ... ...
ROW 11 : ... .. . ... ... ... : ... .. . ... ... ... : ... .. . ... : ... .. . ... : ... .. . ... ... : ... .. 7 ... ... : ... .. 7 ... ... : ... .. . ... ...
ROW 12 : F-4 00 F P80 V02 ... : ... .. . ... ... ... : ... .. . ... : D-# 00 F ... : ... .. . ... ... : C-3 01 A ... ... : G#3 01 A ... ... : ... .. . ... ...
ROW 13 : ... .. E ... ... ... : ... .. . ... ... ... : ... .. . ... : ... .. C ... : ... .. . ... ... : ... .. 9 ... ... : ... .. 9 ... ... : ... .. . ... ...
ROW 14 : ... .. D ... ... ... : ... .. . ... ... ... : ... .. . ... : ... .. 6 ... : ... .. . ... ... : ... .. . ... ... : ... .. . ... ... : ... .. . ... ...
ROW 15 : ... .. 0 ... V00 ... : ... .. . ... ... ... : ... .. . ... : ... .. 3 ... : ... .. . ... ... : ... .. 8 ... ... : ... .. 8 ... ... : ... .. . ... ...
ROW 16 : ... .. . ... ... ... : ... .. . ... ... ... : ... .. . ... : ... .. 2 ... : ... .. . ... ... : ... .. 7 ... ... : ... .. 7 ... ... : ... .. . ... ...
ROW 17 : G-4 00 F P80 V02 ... : ... .. . ... ... ... : ... .. . ... : ... .. F ... : ... .. . ... ... : G#2 01 A ... ... : F-3 01 A ... ... : ... .. . ... ...
ROW 18 : ... .. E ... ... ... : ... .. . ... ... ... : ... .. . ... : ... .. C ... : ... .. . ... ... : ... .. 9 ... ... : ... .. 9 ... ... : ... .. . ... ...
ROW 19 : ... .. D ... ... ... : ... .. . ... ... ... : ... .. . ... : ... .. 6 ... : ... .. . ... ... : ... .. . ... ... : ... .. . ... ... : ... .. . ... ...
ROW 1A : ... .. 0 ... V00 ... : ... .. . ... ... ... : ... .. . ... : ... .. 3 ... : ... .. . ... ... : ... .. 8 ... ... : ... .. 8 ... ... : ... .. . ... ...
ROW 1B : ... .. . ... ... ... : ... .. . ... ... ... : ... .. . ... : ... .. 2 ... : ... .. . ... ... : ... .. 7 ... ... : ... .. 7 ... ... : ... .. . ... ...
ROW 1C : G#4 00 F P80 V02 ... : ... .. . ... ... ... : ... .. . ... : 6-# 00 F ... : ... .. . ... ... : C-3 01 A ... ... : G#3 01 A ... ... : ... .. . ... ...
ROW 1D : ... .. E ... ... ... : ... .. . ... ... ... : ... .. . ... : ... .. C ... : ... .. . ... ... : ... .. 9 ... ... : ... .. 9 ... ... : ... .. . ... ...
ROW 1E : ... .. D ... ... ... : ... .. . ... ... ... : ... .. . ... : ... .. 6 ... : ... .. . ... ... : ... .. . ... ... : ... .. . ... ... : ... .. . ... ...
ROW 1F : ... .. A ... ... ... : ... .. . ... ... ... : ... .. . ... : ... .. 3 ... : ... .. . ... ... : ... .. 8 ... ... : ... .. 8 ... ... : ... .. . ... ...
ROW 20 : ... .. . ... ... ... : ... .. . ... ... ... : ... .. . ... : ... .. 2 ... : ... .. . ... ... : ... .. 7 ... ... : ... .. 7 ... ... : ... .. . ... ...
ROW 21 : ... .. 0 ... V00 ... : ... .. . ... ... ... : ... .. . ... : ... .. 0 ... : ... .. . ... ... : G#2 01 A ... ... : F-3 01 A ... ... : ... .. . ... ...
ROW 22 : ... .. . ... ... ... : ... .. . ... ... ... : ... .. . ... : ... .. . ... : ... .. . ... ... : ... .. 9 ... ... : ... .. 9 ... ... : ... .. . ... ...
ROW 23 : ... .. . ... ... ... : ... .. . ... ... ... : ... .. . ... : ... .. . ... : ... .. . ... ... : ... .. . ... ... : ... .. . ... ... : ... .. . ... ...
ROW 24 : ... .. . ... ... ... : ... .. . ... ... ... : ... .. . ... : ... .. . ... : ... .. . ... ... : ... .. 8 ... ... : ... .. 8 ... ... : ... .. . ... ...
ROW 25 : ... .. . ... ... ... : ... .. . ... ... ... : ... .. . ... : ... .. . ... : ... .. . ... ... : ... .. 7 ... ... : ... .. 7 ... ... : ... .. . ... ...
ROW 26 : F-4 00 F P80 V02 ... : ... .. . ... ... ... : ... .. . ... : D-# 00 F ... : ... .. . ... ... : C-3 01 A ... ... : G#3 01 A ... ... : ... .. . ... ...
ROW 27 : ... .. E ... ... ... : ... .. . ... ... ... : ... .. . ... : ... .. C ... : ... .. . ... ... : ... .. 9 ... ... : ... .. 9 ... ... : ... .. . ... ...
ROW 28 : ... .. D ... ... ... : ... .. . ... ... ... : ... .. . ... : ... .. 6 ... : ... .. . ... ... : ... .. . ... ... : ... .. . ... ... : ... .. . ... ...
ROW 29 : ... .. A ... ... ... : ... .. . ... ... ... : ... .. . ... : ... .. 3 ... : ... .. . ... ... : ... .. 8 ... ... : ... .. 8 ... ... : ... .. . ... ...
ROW 2A : ... .. . ... ... ... : ... .. . ... ... ... : ... .. . ... : ... .. 2 ... : ... .. . ... ... : ... .. 7 ... ... : ... .. 7 ... ... : ... .. . ... ...
ROW 2B : ... .. 0 ... V00 ... : ... .. . ... ... ... : ... .. . ... : ... .. 0 ... : ... .. . ... ... : G#2 01 A ... ... : F-3 01 A ... ... : ... .. . ... ...
ROW 2C : ... .. . ... ... ... : ... .. . ... ... ... : ... .. . ... : ... .. . ... : ... .. . ... ... : ... .. 9 ... ... : ... .. 9 ... ... : ... .. . ... ...
ROW 2D : ... .. . ... ... ... : ... .. . ... ... ... : ... .. . ... : ... .. . ... : ... .. . ... ... : ... .. . ... ... : ... .. . ... ... : ... .. . ... ...
ROW 2E : ... .. . ... ... ... : ... .. . ... ... ... : ... .. . ... : ... .. . ... : ... .. . ... ... : ... .. 8 ... ... : ... .. 8 ... ... : ... .. . ... ...
ROW 2F : ... .. . ... ... ... : ... .. . ... ... ... : ... .. . ... : ... .. . ... : ... .. . ... ... : ... .. 7 ... ... : ... .. 7 ... ... : ... .. . ... ...
ROW 30 : G-4 00 F P80 V02 ... : ... .. . ... ... ... : A-5 00 . ... : 3-# 00 F ... : ... .. . ... ... : D#3 01 A ... ... : A#3 01 A ... ... : ... .. . ... ...
ROW 31 : ... .. E ... ... ... : ... .. . ... ... ... : B-4 00 . ... : ... .. C ... : ... .. . ... ... : ... .. 9 ... ... : ... .. 9 ... ... : ... .. . ... ...
ROW 32 : ... .. D ... ... ... : ... .. . ... ... ... : E-4 00 . ... : ... .. 6 ... : ... .. . ... ... : ... .. . ... ... : ... .. . ... ... : ... .. . ... ...
ROW 33 : ... .. A ... ... ... : ... .. . ... ... ... : D#4 00 . ... : ... .. 3 ... : ... .. . ... ... : ... .. 8 ... ... : ... .. 8 ... ... : ... .. . ... ...
ROW 34 : ... .. . ... ... ... : ... .. . ... ... ... : A#3 00 . ... : ... .. 2 ... : ... .. . ... ... : ... .. 7 ... ... : ... .. 7 ... ... : ... .. . ... ...
ROW 35 : ... .. . ... ... ... : ... .. . ... ... ... : ... .. . ... : ... .. 0 ... : ... .. . ... ... : A#2 01 A ... ... : G-3 01 A ... ... : ... .. . ... ...
ROW 36 : ... .. . ... ... ... : ... .. . ... ... ... : ... .. . ... : ... .. . ... : ... .. . ... ... : ... .. 9 ... ... : ... .. 9 ... ... : ... .. . ... ...
ROW 37 : ... .. . ... ... ... : ... .. . ... ... ... : ... .. . ... : ... .. . ... : ... .. . ... ... : ... .. . ... ... : ... .. . ... ... : ... .. . ... ...
ROW 38 : ... .. . ... ... ... : ... .. . ... ... ... : ... .. . ... : ... .. . ... : ... .. . ... ... : ... .. 8 ... ... : ... .. 8 ... ... : ... .. . ... ...
ROW 39 : ... .. . ... ... ... : ... .. . ... ... ... : ... .. . ... : ... .. . ... : ... .. . ... ... : ... .. 7 ... ... : ... .. 7 ... ... : ... .. . ... ...
ROW 3A : ... .. F ... ... ... : ... .. . ... ... ... : ... .. . ... : D-# 00 F ... : ... .. . ... ... : D#3 01 A ... ... : A#3 01 A ... ... : ... .. . ... ...
ROW 3B : ... .. E ... ... ... : ... .. . ... ... ... : ... .. . ... : ... .. C ... : ... .. . ... ... : ... .. 9 ... ... : ... .. 9 ... ... : ... .. . ... ...
ROW 3C : ... .. D ... ... ... : ... .. . ... ... ... : ... .. . ... : ... .. 6 ... : ... .. . ... ... : ... .. . ... ... : ... .. . ... ... : ... .. . ... ...
ROW 3D : ... .. 0 ... V00 ... : ... .. . ... ... ... : ... .. . ... : ... .. 3 ... : ... .. . ... ... : ... .. 8 ... ... : ... .. 8 ... ... : ... .. . ... ...
ROW 3E : ... .. . ... ... ... : ... .. . ... ... ... : ... .. . ... : ... .. 2 ... : ... .. . ... ... : ... .. 7 ... ... : ... .. 7 ... ... : ... .. . ... ...
ROW 3F : G#4 00 F P80 V02 ... : ... .. . ... ... ... : ... .. . ... : ... .. F ... : ... .. . ... ... : A#2 01 A ... ... : G-3 01 A ... ... : ... .. . ... ...
ROW 40 : ... .. E ... ... ... : ... .. . ... ... ... : ... .. . ... : ... .. C ... : ... .. . ... ... : ... .. 9 ... ... : ... .. 9 ... ... : ... .. . ... ...
ROW 41 : ... .. D ... ... ... : ... .. . ... ... ... : ... .. . ... : ... .. 6 ... : ... .. . ... ... : ... .. . ... ... : ... .. . ... ... : ... .. . ... ...
ROW 42 : ... .. 0 ... V00 ... : ... .. . ... ... ... : ... .. . ... : ... .. 3 ... : ... .. . ... ... : ... .. 8 ... ... : ... .. 8 ... ... : ... .. . ... ...
ROW 43 : ... .. . ... ... ... : ... .. . ... ... ... : ... .. . ... : ... .. 2 ... : ... .. . ... ... : ... .. 7 ... ... : ... .. 7 ... ... : ... .. . ... ...
ROW 44 : A#4 00 F P80 V02 ... : ... .. . ... ... ... : D#4 00 . ... : 6-# 00 F ... : ... .. . ... ... : D#3 01 A ... ... : A#3 01 A ... ... : ... .. . ... ...
ROW 45 : ... .. E ... ... ... : ... .. . ... ... ... : ... .. . ... : ... .. C ... : ... .. . ... ... : ... .. 9 ... ... : ... .. 9 ... ... : ... .. . ... ...
ROW 46 : ... .. D ... ... ... : ... .. . ... ... ... : ... .. . ... : ... .. 6 ... : ... .. . ... ... : ... .. . ... ... : ... .. . ... ... : ... .. . ... ...
ROW 47 : ... .. A ... ... ... : ... .. . ... ... ... : --- .. . ... : ... .. 3 ... : ... .. . ... ... : ... .. 8 ... ... : ... .. 8 ... ... : ... .. . ... ...
ROW 48 : ... .. . ... ... ... : ... .. . ... ... ... : ... .. . ... : ... .. 2 ... : ... .. . ... ... : ... .. 7 ... ... : ... .. 7 ... ... : ... .. . ... ...
ROW 49 : ... .. 0 ... V00 ... : ... .. . ... ... ... : C#4 00 . ... : ... .. 0 ... : ... .. . ... ... : A#2 01 A ... ... : G-3 01 A ... ... : ... .. . ... ...
ROW 4A : ... .. . ... ... ... : ... .. . ... ... ... : ... .. . ... : ... .. . ... : ... .. . ... ... : ... .. 9 ... ... : ... .. 9 ... ... : ... .. . ... ...
ROW 4B : ... .. . ... ... ... : ... .. . ... ... ... : ... .. . ... : ... .. . ... : ... .. . ... ... : ... .. . ... ... : ... .. . ... ... : ... .. . ... ...
ROW 4C : ... .. . ... ... ... : ... .. . ... ... ... : --- .. . ... : ... .. . ... : ... .. . ... ... : ... .. 8 ... ... : ... .. 8 ... ... : ... .. . ... ...
ROW 4D : ... .. . ... ... ... : ... .. . ... ... ... : ... .. . ... : ... .. . ... : ... .. . ... ... : ... .. 7 ... ... : ... .. 7 ... ... : ... .. . ... ...
ROW 4E : D#4 00 F P80 V02 ... : ... .. . ... ... ... : C-4 00 . ... : D-# 00 F ... : ... .. . ... ... : D#3 01 A ... ... : A#3 01 A ... ... : ... .. . ... ...
ROW 4F : ... .. E ... ... ... : ... .. . ... ... ... : ... .. . ... : ... .. C ... : ... .. . ... ... : ... .. 9 ... ... : ... .. 9 ... ... : ... .. . ... ...
ROW 50 : ... .. D ... ... ... : ... .. . ... ... ... : ... .. . ... : ... .. 6 ... : ... .. . ... ... : ... .. . ... ... : ... .. . ... ... : ... .. . ... ...
ROW 51 : ... .. A ... ... ... : ... .. . ... ... ... : --- .. . ... : ... .. 3 ... : ... .. . ... ... : ... .. 8 ... ... : ... .. 8 ... ... : ... .. . ... ...
ROW 52 : ... .. . ... ... ... : ... .. . ... ... ... : ... .. . ... : ... .. 2 ... : ... .. . ... ... : ... .. 7 ... ... : ... .. 7 ... ... : ... .. . ... ...
ROW 53 : ... .. 0 ... V00 ... : ... .. . ... ... ... : A#3 00 . ... : ... .. 0 ... : ... .. . ... ... : A#2 01 A ... ... : G-3 01 A ... ... : ... .. . ... ...
ROW 54 : ... .. . ... ... ... : ... .. . ... ... ... : ... .. . ... : ... .. . ... : ... .. . ... ... : ... .. 9 ... ... : ... .. 9 ... ... : ... .. . ... ...
ROW 55 : ... .. . ... ... ... : ... .. . ... ... ... : ... .. . ... : ... .. . ... : ... .. . ... ... : ... .. . ... ... : ... .. . ... ... : ... .. . ... ...
ROW 56 : ... .. . ... ... ... : ... .. . ... ... ... : --- .. . ... : ... .. . ... : ... .. . ... ... : ... .. 8 ... ... : ... .. 8 ... ... : ... .. . ... ...
ROW 57 : ... .. . ... ... ... : ... .. . ... ... ... : ... .. . ... : ... .. . ... : ... .. . ... ... : ... .. 7 ... ... : ... .. 7 ... ... : ... .. . ... ...
ROW 58 : D#5 00 F P80 V02 ... : ... .. . ... ... ... : G#3 00 . ... : 3-# 00 F ... : ... .. . ... ... : D#3 01 A ... ... : C-4 01 A ... ... : ... .. . ... ...
ROW 59 : ... .. E ... ... ... : ... .. . ... ... ... : ... .. . ... : ... .. C ... : ... .. . ... ... : ... .. 9 ... ... : ... .. 9 ... ... : ... .. . ... ...
ROW 5A : ... .. D ... ... ... : ... .. . ... ... ... : ... .. . ... : ... .. 6 ... : ... .. . ... ... : ... .. . ... ... : ... .. . ... ... : ... .. . ... ...
ROW 5B : ... .. A ... ... ... : ... .. . ... ... ... : ... .. . ... : ... .. 3 ... : ... .. . ... ... : ... .. 8 ... ... : ... .. 8 ... ... : ... .. . ... ...
ROW 5C : ... .. . ... ... ... : ... .. . ... ... ... : ... .. . ... : ... .. 2 ... : ... .. . ... ... : --- .. . P83 ... : ... .. 7 ... ... : ... .. . ... ...
ROW 5D : ... .. . ... ... ... : ... .. . ... ... ... : --- .. . ... : ... .. 0 ... : ... .. . ... ... : G#3 01 A P80 ... : ... .. . ... ... : ... .. . ... ...
ROW 5E : ... .. . ... ... ... : ... .. . ... ... ... : ... .. . ... : ... .. . ... : ... .. . ... ... : ... .. 9 ... ... : ... .. 6 ... ... : ... .. . ... ...
ROW 5F : ... .. . ... ... ... : ... .. . ... ... ... : ... .. . ... : ... .. . ... : ... .. . ... ... : ... .. . ... ... : ... .. . ... ... : ... .. . ... ...
ROW 60 : ... .. . ... ... ... : ... .. . ... ... ... : ... .. . ... : ... .. . ... : ... .. . ... ... : ... .. 8 ... ... : ... .. . ... ... : ... .. . ... ...
ROW 61 : ... .. . ... ... ... : ... .. . ... ... ... : ... .. . ... : ... .. . ... : ... .. . ... ... : --- .. . P82 ... : ... .. . ... ... : ... .. . ... ...
ROW 62 : D#4 00 F ... ... ... : ... .. . ... ... ... : C-5 00 . ... : D-# 00 F ... : ... .. . ... ... : D#3 01 A P80 ... : D#4 01 A ... ... : ... .. . ... ...
ROW 63 : ... .. E ... ... ... : ... .. . ... ... ... : ... .. . ... : ... .. C ... : ... .. . ... ... : ... .. 9 ... ... : ... .. 9 ... ... : ... .. . ... ...
ROW 64 : ... .. D ... ... ... : ... .. . ... ... ... : ... .. . ... : ... .. 6 ... : ... .. . ... ... : ... .. . ... ... : ... .. . ... ... : ... .. . ... ...
ROW 65 : ... .. A ... ... ... : ... .. . ... ... ... : ... .. . ... : ... .. 3 ... : ... .. . ... ... : ... .. 8 ... ... : ... .. 8 ... ... : ... .. . ... ...
ROW 66 : ... .. . ... ... ... : ... .. . ... ... ... : ... .. . ... : ... .. 2 ... : ... .. . ... ... : --- .. . P83 ... : ... .. 7 ... ... : ... .. . ... ...
ROW 67 : ... .. 0 ... V00 ... : ... .. . ... ... ... : --- .. . ... : ... .. F ... : ... .. . ... ... : G#3 01 A P80 ... : C-4 01 A ... ... : ... .. . ... ...
ROW 68 : ... .. . ... ... ... : ... .. . ... ... ... : ... .. . ... : ... .. C ... : ... .. . ... ... : ... .. 9 ... ... : ... .. 9 ... ... : ... .. . ... ...
ROW 69 : ... .. . ... ... ... : ... .. . ... ... ... : ... .. . ... : ... .. 6 ... : ... .. . ... ... : ... .. . ... ... : ... .. . ... ... : ... .. . ... ...
ROW 6A : ... .. . ... ... ... : ... .. . ... ... ... : ... .. . ... : ... .. 3 ... : ... .. . ... ... : ... .. 8 ... ... : ... .. 8 ... ... : ... .. . ... ...
ROW 6B : ... .. . ... ... ... : ... .. . ... ... ... : ... .. . ... : ... .. 2 ... : ... .. . ... ... : --- .. . P82 ... : ... .. 7 ... ... : ... .. . ... ...
ROW 6C : D-5 00 F P80 V02 ... : ... .. . ... ... ... : G-3 00 . ... : 6-# 00 F ... : ... .. . ... ... : D-3 01 A P80 ... : B-3 01 A ... ... : ... .. . ... ...
ROW 6D : ... .. E ... ... ... : ... .. . ... ... ... : ... .. . ... : ... .. C ... : ... .. . ... ... : ... .. 9 ... ... : ... .. 9 ... ... : ... .. . ... ...
ROW 6E : ... .. D ... ... ... : ... .. . ... ... ... : ... .. . ... : ... .. 6 ... : ... .. . ... ... : ... .. . ... ... : ... .. . ... ... : ... .. . ... ...
ROW 6F : ... .. A ... ... ... : ... .. . ... ... ... : ... .. . ... : ... .. 3 ... : ... .. . ... ... : ... .. 8 ... ... : ... .. 8 ... ... : ... .. . ... ...
ROW 70 : ... .. . ... ... ... : ... .. . ... ... ... : ... .. . ... : ... .. 2 ... : ... .. . ... ... : --- .. . P82 ... : ... .. 7 ... ... : ... .. . ... ...
ROW 71 : ... .. . ... ... ... : ... .. . ... ... ... : --- .. . ... : ... .. 0 ... : ... .. . ... ... : G-3 01 A P80 ... : ... .. . ... ... : ... .. . ... ...
ROW 72 : ... .. . ... ... ... : ... .. . ... ... ... : ... .. . ... : ... .. . ... : ... .. . ... ... : ... .. 9 ... ... : ... .. 6 ... ... : ... .. . ... ...
ROW 73 : ... .. . ... ... ... : ... .. . ... ... ... : ... .. . ... : ... .. . ... : ... .. . ... ... : ... .. . ... ... : ... .. . ... ... : ... .. . ... ...
ROW 74 : ... .. . ... ... ... : ... .. . ... ... ... : ... .. . ... : ... .. . ... : ... .. . ... ... : ... .. 8 ... ... : ... .. . ... ... : ... .. . ... ...
ROW 75 : ... .. . ... ... ... : ... .. . ... ... ... : ... .. . ... : ... .. . ... : ... .. . ... ... : --- .. . P81 ... : ... .. . ... ... : ... .. . ... ...
ROW 76 : D-4 00 F ... ... ... : ... .. . ... ... ... : B-4 00 . ... : D-# 00 F ... : ... .. . ... ... : D-3 01 A P80 ... : D-4 01 A ... ... : ... .. . ... ...
ROW 77 : ... .. E ... ... ... : ... .. . ... ... ... : ... .. . ... : ... .. C ... : ... .. . ... ... : ... .. 9 ... ... : ... .. 9 ... ... : ... .. . ... ...
ROW 78 : ... .. D ... ... ... : ... .. . ... ... ... : ... .. . ... : ... .. 6 ... : ... .. . ... ... : ... .. . ... ... : ... .. . ... ... : ... .. . ... ...
ROW 79 : ... .. A ... ... ... : ... .. . ... ... ... : ... .. . ... : ... .. 3 ... : ... .. . ... ... : ... .. 8 ... ... : ... .. 8 ... ... : ... .. . ... ...
ROW 7A : ... .. . ... ... ... : ... .. . ... ... ... : ... .. . ... : ... .. 2 ... : ... .. . ... ... : --- .. . P82 ... : ... .. 7 ... ... : ... .. . ... ...
ROW 7B : ... .. 0 ... V00 ... : ... .. . ... ... ... : --- .. . ... : ... .. F ... : ... .. . ... ... : G-3 01 A P80 ... : B-3 01 A ... ... : ... .. . ... ...
ROW 7C : ... .. . ... ... ... : ... .. . ... ... ... : ... .. . ... : ... .. C ... : ... .. . ... ... : ... .. 9 ... ... : ... .. 9 ... ... : ... .. . ... ...
ROW 7D : ... .. . ... ... ... : ... .. . ... ... ... : ... .. . ... : ... .. 6 ... : ... .. . ... ... : ... .. . ... ... : ... .. . ... ... : ... .. . ... ...
ROW 7E : ... .. . ... ... ... : ... .. . ... ... ... : ... .. . ... : ... .. 3 ... : ... .. . ... ... : ... .. 8 ... ... : ... .. 8 ... ... : ... .. . ... ...
ROW 7F : ... .. . ... ... ... : ... .. . ... ... ... : ... .. . ... : ... .. 2 ... : ... .. . ... ... : --- .. . P81 ... : ... .. 7 ... ... : ... .. . ... ...
ROW 80 : C#5 00 F P80 V02 ... : ... .. . ... ... ... : F#3 00 . ... : 3-# 00 F ... : ... .. . ... ... : C#3 01 A P80 ... : A#3 01 A ... ... : ... .. . ... ...
ROW 81 : ... .. E ... ... ... : ... .. . ... ... ... : ... .. . ... : ... .. C ... : ... .. . ... ... : ... .. 9 ... ... : ... .. 9 ... ... : ... .. . ... ...
ROW 82 : ... .. D ... ... ... : ... .. . ... ... ... : ... .. . ... : ... .. 6 ... : ... .. . ... ... : ... .. . ... ... : ... .. . ... ... : ... .. . ... ...
ROW 83 : ... .. A ... ... ... : ... .. . ... ... ... : ... .. . ... : ... .. 3 ... : ... .. . ... ... : ... .. 8 ... ... : ... .. 8 ... ... : ... .. . ... ...
ROW 84 : ... .. . ... ... ... : ... .. . ... ... ... : ... .. . ... : ... .. 2 ... : ... .. . ... ... : --- .. . P83 ... : ... .. 7 ... ... : ... .. . ... ...
ROW 85 : ... .. 0 ... V00 ... : ... .. . ... ... ... : --- .. . ... : ... .. 0 ... : ... .. . ... ... : F#3 01 A P80 ... : ... .. . ... ... : ... .. . ... ...
ROW 86 : ... .. . ... ... ... : ... .. . ... ... ... : ... .. . ... : ... .. . ... : ... .. . ... ... : ... .. 9 ... ... : ... .. 6 ... ... : ... .. . ... ...
ROW 87 : ... .. . ... ... ... : ... .. . ... ... ... : ... .. . ... : ... .. . ... : ... .. . ... ... : ... .. . ... ... : ... .. . ... ... : ... .. . ... ...
ROW 88 : ... .. . ... ... ... : ... .. . ... ... ... : ... .. . ... : ... .. . ... : ... .. . ... ... : ... .. 8 ... ... : ... .. . ... ... : ... .. . ... ...
ROW 89 : ... .. . ... ... ... : ... .. . ... ... ... : ... .. . ... : ... .. . ... : ... .. . ... ... : --- .. . P7F ... : ... .. . ... ... : ... .. . ... ...
ROW 8A : C#4 00 F P80 V02 ... : ... .. . ... ... ... : E-4 00 . ... : D-# 00 F ... : ... .. . ... ... : C#3 01 A P80 ... : C#4 01 A ... ... : ... .. . ... ...
ROW 8B : ... .. E ... ... ... : ... .. . ... ... ... : ... .. . ... : ... .. C ... : ... .. . ... ... : ... .. 9 ... ... : ... .. 9 ... ... : ... .. . ... ...
ROW 8C : ... .. D ... ... ... : ... .. . ... ... ... : ... .. . ... : ... .. 6 ... : ... .. . ... ... : ... .. . ... ... : ... .. . ... ... : ... .. . ... ...
ROW 8D : ... .. A ... ... ... : ... .. . ... ... ... : ... .. . ... : ... .. 3 ... : ... .. . ... ... : ... .. 8 ... ... : ... .. 8 ... ... : ... .. . ... ...
ROW 8E : ... .. . ... ... ... : ... .. . ... ... ... : ... .. . ... : ... .. 2 ... : ... .. . ... ... : --- .. . P83 ... : ... .. 7 ... ... : ... .. . ... ...
ROW 8F : ... .. 0 ... V00 ... : ... .. . ... ... ... : --- .. . ... : ... .. F ... : ... .. . ... ... : F#3 01 A P80 ... : A#3 01 A ... ... : ... .. . ... ...
ROW 90 : ... .. . ... ... ... : ... .. . ... ... ... : ... .. . ... : ... .. C ... : ... .. . ... ... : ... .. 9 ... ... : ... .. 9 ... ... : ... .. . ... ...
ROW 91 : ... .. . ... ... ... : ... .. . ... ... ... : ... .. . ... : ... .. 6 ... : ... .. . ... ... : ... .. . ... ... : ... .. . ... ... : ... .. . ... ...
ROW 92 : ... .. . ... ... ... : ... .. . ... ... ... : ... .. . ... : ... .. 3 ... : ... .. . ... ... : ... .. 8 ... ... : ... .. 8 ... ... : ... .. . ... ...
ROW 93 : ... .. . ... ... ... : ... .. . ... ... ... : ... .. . ... : ... .. 2 ... : ... .. . ... ... : --- .. . P7F ... : ... .. 7 ... ... : ... .. . ... ...
ROW 94 : C-5 00 F P80 V02 ... : ... .. . ... ... ... : F-3 00 . ... : 6-# 00 F ... : ... .. . ... ... : C-3 01 A P80 ... : G#3 01 A ... ... : ... .. . ... ...
ROW 95 : ... .. E ... ... ... : ... .. . ... ... ... : ... .. . ... : ... .. C ... : ... .. . ... ... : ... .. 9 ... ... : ... .. 9 ... ... : ... .. . ... ...
ROW 96 : ... .. D ... ... ... : ... .. . ... ... ... : ... .. . ... : ... .. 6 ... : ... .. . ... ... : ... .. . ... ... : ... .. . ... ... : ... .. . ... ...
ROW 97 : ... .. A ... ... ... : ... .. . ... ... ... : ... .. . ... : ... .. 3 ... : ... .. . ... ... : ... .. 8 ... ... : ... .. 8 ... ... : ... .. . ... ...
ROW 98 : ... .. . ... ... ... : ... .. . ... ... ... : ... .. . ... : ... .. 2 ... : ... .. . ... ... : --- .. . P7E ... : ... .. 7 ... ... : ... .. . ... ...
ROW 99 : ... .. 0 ... V00 ... : ... .. . ... ... ... : --- .. . ... : ... .. 0 ... : ... .. . ... ... : F-3 01 A P80 ... : ... .. . ... ... : ... .. . ... ...
ROW 9A : ... .. . ... ... ... : ... .. . ... ... ... : ... .. . ... : ... .. . ... : ... .. . ... ... : ... .. 9 ... ... : ... .. 6 ... ... : ... .. . ... ...
ROW 9B : ... .. . ... ... ... : ... .. . ... ... ... : ... .. . ... : ... .. . ... : ... .. . ... ... : ... .. . ... ... : ... .. . ... ... : ... .. . ... ...
ROW 9C : ... .. . ... ... ... : ... .. . ... ... ... : ... .. . ... : ... .. . ... : ... .. . ... ... : ... .. 8 ... ... : ... .. . ... ... : ... .. . ... ...
ROW 9D : ... .. . ... ... ... : ... .. . ... ... ... : ... .. . ... : ... .. . ... : ... .. . ... ... : --- .. . ... ... : ... .. . ... ... : ... .. . ... ...
ROW 9E : C-4 00 F P80 V02 ... : ... .. . ... ... ... : G#4 00 . ... : D-# 00 F ... : ... .. . ... ... : C-3 01 A ... ... : C-4 01 A ... ... : ... .. . ... ...
ROW 9F : ... .. E ... ... ... : ... .. . ... ... ... : ... .. . ... : ... .. C ... : ... .. . ... ... : ... .. 9 ... ... : ... .. 9 ... ... : ... .. . ... ...
ROW A0 : ... .. D ... ... ... : ... .. . ... ... ... : ... .. . ... : ... .. 6 ... : ... .. . ... ... : ... .. . ... ... : ... .. . ... ... : ... .. . ... ...
ROW A1 : ... .. A ... ... ... : ... .. . ... ... ... : ... .. . ... : ... .. 3 ... : ... .. . ... ... : ... .. 8 ... ... : ... .. 8 ... ... : ... .. . ... ...
ROW A2 : ... .. . ... ... ... : ... .. . ... ... ... : ... .. . ... : ... .. 2 ... : ... .. . ... ... : --- .. . P7E ... : ... .. 7 ... ... : ... .. . ... ...
ROW A3 : ... .. 0 ... V00 ... : ... .. . ... ... ... : --- .. . ... : ... .. 0 ... : ... .. . ... ... : F-3 01 A P80 ... : G#3 01 A ... ... : ... .. . ... ...
ROW A4 : ... .. . ... ... ... : ... .. . ... ... ... : ... .. . ... : ... .. . ... : ... .. . ... ... : ... .. 9 ... ... : ... .. 9 ... ... : ... .. . ... ...
ROW A5 : ... .. . ... ... ... : ... .. . ... ... ... : ... .. . ... : ... .. . ... : ... .. . ... ... : ... .. . ... ... : ... .. . ... ... : ... .. . ... ...
ROW A6 : ... .. . ... ... ... : ... .. . ... ... ... : ... .. . ... : ... .. . ... : ... .. . ... ... : ... .. 8 ... ... : ... .. 8 ... ... : ... .. . ... ...
ROW A7 : ... .. . ... ... ... : ... .. . ... ... ... : ... .. . ... : ... .. . ... : ... .. . ... ... : --- .. . ... ... : ... .. 7 ... ... : ... .. . ... ...
ROW A8 : B-4 00 F P80 V02 ... : ... .. . ... ... ... : C#3 00 . ... : 3-# 00 F ... : ... .. . ... ... : B-2 01 A ... ... : G-3 01 A ... ... : ... .. . ... ...
ROW A9 : ... .. E ... ... ... : ... .. . ... ... ... : ... .. . ... : ... .. C ... : ... .. . ... ... : ... .. 9 ... ... : ... .. 9 ... ... : ... .. . ... ...
ROW AA : ... .. D ... ... ... : ... .. . ... ... ... : ... .. . ... : ... .. 6 ... : ... .. . ... ... : ... .. . ... ... : ... .. . ... ... : ... .. . ... ...
ROW AB : ... .. A ... ... ... : ... .. . ... ... ... : ... .. . ... : ... .. 3 ... : ... .. . ... ... : ... .. 8 ... ... : ... .. 8 ... ... : ... .. . ... ...
ROW AC : ... .. . ... ... ... : ... .. . ... ... ... : ... .. . ... : ... .. 2 ... : ... .. . ... ... : --- .. . P85 ... : ... .. 7 ... ... : ... .. . ... ...
ROW AD : ... .. 0 ... V00 ... : ... .. . ... ... ... : --- .. . ... : ... .. 0 ... : ... .. . ... ... : F-3 01 A P80 ... : ... .. . ... ... : ... .. . ... ...
ROW AE : ... .. . ... ... ... : ... .. . ... ... ... : ... .. . ... : ... .. . ... : ... .. . ... ... : ... .. 9 ... ... : ... .. 6 ... ... : ... .. . ... ...
ROW AF : ... .. . ... ... ... : ... .. . ... ... ... : ... .. . ... : ... .. . ... : ... .. . ... ... : ... .. . ... ... : ... .. . ... ... : ... .. . ... ...
ROW B0 : ... .. . ... ... ... : ... .. . ... ... ... : ... .. . ... : ... .. . ... : ... .. . ... ... : ... .. 8 ... ... : ... .. . ... ... : ... .. . ... ...
ROW B1 : ... .. . ... ... ... : ... .. . ... ... ... : ... .. . ... : ... .. . ... : ... .. . ... ... : --- .. . ... ... : ... .. . ... ... : ... .. . ... ...
ROW B2 : B-3 00 F P80 V02 ... : ... .. . ... ... ... : F-4 00 . ... : D-# 00 F ... : ... .. . ... ... : B-2 01 A ... ... : ... .. . ... ... : ... .. . ... ...
ROW B3 : ... .. E ... ... ... : ... .. . ... ... ... : ... .. . ... : ... .. C ... : ... .. . ... ... : ... .. 9 ... ... : ... .. . ... ... : ... .. . ... ...
ROW B4 : ... .. D ... ... ... : ... .. . ... ... ... : ... .. . ... : ... .. 6 ... : ... .. . ... ... : ... .. . ... ... : ... .. . ... ... : ... .. . ... ...
ROW B5 : ... .. A ... ... ... : ... .. . ... ... ... : ... .. . ... : ... .. 3 ... : ... .. . ... ... : ... .. 8 ... ... : ... .. . ... ... : ... .. . ... ...
ROW B6 : ... .. . ... ... ... : ... .. . ... ... ... : ... .. . ... : ... .. 2 ... : ... .. . ... ... : --- .. . P85 ... : ... .. . ... ... : ... .. . ... ...
ROW B7 : ... .. 0 ... V00 ... : ... .. . ... ... ... : --- .. . ... : ... .. F ... : ... .. . ... ... : F-3 01 A P80 ... : ... .. . ... ... : ... .. . ... ...
ROW B8 : ... .. . ... ... ... : ... .. . ... ... ... : ... .. . ... : ... .. C ... : ... .. . ... ... : ... .. 9 ... ... : ... .. . ... ... : ... .. . ... ...
ROW B9 : ... .. . ... ... ... : ... .. . ... ... ... : ... .. . ... : ... .. 6 ... : ... .. . ... ... : ... .. . ... ... : ... .. . ... ... : ... .. . ... ...
ROW BA : ... .. . ... ... ... : ... .. . ... ... ... : ... .. . ... : ... .. 3 ... : ... .. . ... ... : ... .. 8 ... ... : ... .. . ... ... : ... .. . ... ...
ROW BB : ... .. . ... ... ... : ... .. . ... ... ... : ... .. . ... : ... .. 2 ... : ... .. . ... ... : --- .. . ... ... : ... .. . ... ... : ... .. . ... ...
ROW BC : A#4 00 F P80 V02 ... : ... .. . ... ... ... : C-3 00 . ... : 6-# 00 F ... : ... .. . ... ... : A#2 01 A ... ... : ... .. . ... ... : ... .. . ... ...
ROW BD : ... .. E ... ... ... : ... .. . ... ... ... : ... .. . ... : ... .. C ... : ... .. . ... ... : ... .. 9 ... ... : ... .. . ... ... : ... .. . ... ...
ROW BE : ... .. D ... ... ... : ... .. . ... ... ... : ... .. . ... : ... .. 6 ... : ... .. . ... ... : ... .. . ... ... : ... .. . ... ... : ... .. . ... ...
ROW BF : ... .. A ... ... ... : ... .. . ... ... ... : ... .. . ... : ... .. 3 ... : ... .. . ... ... : ... .. 8 ... ... : ... .. . ... ... : ... .. . ... ...
ROW C0 : ... .. . ... ... ... : ... .. . ... ... ... : ... .. . ... : ... .. 2 ... : ... .. . ... ... : --- .. . P82 ... : ... .. . ... ... : ... .. . ... ...
ROW C1 : ... .. 0 ... V00 ... : ... .. . ... ... ... : --- .. . ... : ... .. 0 ... : ... .. . ... ... : E-3 01 A P80 ... : ... .. . ... ... : ... .. . ... ...
ROW C2 : ... .. . ... ... ... : ... .. . ... ... ... : ... .. . ... : ... .. . ... : ... .. . ... ... : ... .. 9 ... ... : ... .. . ... ... : ... .. . ... ...
ROW C3 : ... .. . ... ... ... : ... .. . ... ... ... : ... .. . ... : ... .. . ... : ... .. . ... ... : ... .. . ... ... : ... .. . ... ... : ... .. . ... ...
ROW C4 : ... .. . ... ... ... : ... .. . ... ... ... : ... .. . ... : ... .. . ... : ... .. . ... ... : ... .. 8 ... ... : ... .. . ... ... : ... .. . ... ...
ROW C5 : ... .. . ... ... ... : ... .. . ... ... ... : ... .. . ... : ... .. . ... : ... .. . ... ... : --- .. . P82 ... : ... .. . ... ... : ... .. . ... ...
ROW C6 : A#3 00 F P80 V02 ... : ... .. . ... ... ... : E-4 00 . ... : D-# 00 F ... : ... .. . ... ... : A#2 01 A P80 ... : A#3 01 A ... ... : ... .. . ... ...
ROW C7 : ... .. E ... ... ... : ... .. . ... ... ... : ... .. . ... : ... .. C ... : ... .. . ... ... : ... .. 9 ... ... : ... .. 9 ... ... : ... .. . ... ...
ROW C8 : ... .. D ... ... ... : ... .. . ... ... ... : ... .. . ... : ... .. 6 ... : ... .. . ... ... : ... .. . ... ... : ... .. . ... ... : ... .. . ... ...
ROW C9 : ... .. A ... ... ... : ... .. . ... ... ... : ... .. . ... : ... .. 3 ... : ... .. . ... ... : ... .. 8 ... ... : ... .. 8 ... ... : ... .. . ... ...
ROW CA : ... .. . ... ... ... : ... .. . ... ... ... : ... .. . ... : ... .. 2 ... : ... .. . ... ... : --- .. . P82 ... : ... .. 7 ... ... : ... .. . ... ...
ROW CB : ... .. 0 ... V00 ... : ... .. . ... ... ... : --- .. . ... : ... .. 0 ... : ... .. . ... ... : E-3 01 A P80 ... : G-3 01 A ... ... : ... .. . ... ...
ROW CC : ... .. . ... ... ... : ... .. . ... ... ... : ... .. . ... : ... .. . ... : ... .. . ... ... : ... .. 9 ... ... : ... .. 9 ... ... : ... .. . ... ...
ROW CD : ... .. . ... ... ... : ... .. . ... ... ... : ... .. . ... : ... .. . ... : ... .. . ... ... : ... .. . ... ... : ... .. . ... ... : ... .. . ... ...
ROW CE : ... .. . ... ... ... : ... .. . ... ... ... : ... .. . ... : ... .. . ... : ... .. . ... ... : ... .. 8 ... ... : ... .. 8 ... ... : ... .. . ... ...
ROW CF : ... .. . ... ... ... : ... .. . ... ... ... : ... .. . ... : ... .. . ... : ... .. . ... ... : --- .. . P82 ... : ... .. 7 ... ... : ... .. . ... ...
ROW D0 : G#4 00 F P80 V02 ... : ... .. . ... ... ... : E-6 00 . ... : 3-# 00 F ... : ... .. . ... ... : F-3 01 A P80 ... : F-3 01 A ... ... : ... .. . ... ...
ROW D1 : ... .. E ... ... ... : ... .. . ... ... ... : F#5 00 . ... : ... .. C ... : ... .. . ... ... : ... .. 9 ... ... : ... .. 9 ... ... : ... .. . ... ...
ROW D2 : ... .. D ... ... ... : ... .. . ... ... ... : B-4 00 . ... : ... .. 6 ... : ... .. . ... ... : ... .. . ... ... : ... .. . ... ... : ... .. . ... ...
ROW D3 : ... .. 0 ... V00 ... : ... .. . ... ... ... : A#4 00 . ... : ... .. 3 ... : ... .. . ... ... : ... .. 8 ... ... : ... .. 8 ... ... : ... .. . ... ...
ROW D4 : ... .. . ... ... ... : ... .. . ... ... ... : F-4 00 . ... : ... .. 2 ... : ... .. . ... ... : --- .. . ... ... : ... .. 7 ... ... : ... .. . ... ...
ROW D5 : G-4 00 F P80 V02 ... : ... .. . ... ... ... : ... .. . ... : ... .. 0 ... : ... .. . ... ... : C-3 01 A ... ... : E-3 01 A ... ... : ... .. . ... ...
ROW D6 : ... .. E ... ... ... : ... .. . ... ... ... : ... .. . ... : ... .. . ... : ... .. . ... ... : ... .. 9 ... ... : ... .. 9 ... ... : ... .. . ... ...
ROW D7 : ... .. D ... ... ... : ... .. . ... ... ... : ... .. . ... : ... .. . ... : ... .. . ... ... : ... .. . ... ... : ... .. . ... ... : ... .. . ... ...
ROW D8 : ... .. 0 ... V00 ... : ... .. . ... ... ... : ... .. . ... : ... .. . ... : ... .. . ... ... : ... .. 8 ... ... : ... .. 8 ... ... : ... .. . ... ...
ROW D9 : ... .. . ... ... ... : ... .. . ... ... ... : ... .. . ... : ... .. . ... : ... .. . ... ... : --- .. . P7E ... : ... .. 7 ... ... : ... .. . ... ...
ROW DA : F-4 00 F P80 V02 ... : ... .. . ... ... ... : ... .. . ... : D-# 00 F ... : ... .. . ... ... : G#2 01 A P80 ... : F-3 01 A ... ... : ... .. . ... ...
ROW DB : ... .. E ... ... ... : ... .. . ... ... ... : ... .. . ... : ... .. C ... : ... .. . ... ... : ... .. 9 ... ... : ... .. 9 ... ... : ... .. . ... ...
ROW DC : ... .. D ... ... ... : ... .. . ... ... ... : ... .. . ... : ... .. 6 ... : ... .. . ... ... : ... .. . ... ... : ... .. . ... ... : ... .. . ... ...
ROW DD : ... .. A ... ... ... : ... .. . ... ... ... : ... .. . ... : ... .. 3 ... : ... .. . ... ... : ... .. 8 ... ... : ... .. 8 ... ... : ... .. . ... ...
ROW DE : ... .. . ... ... ... : ... .. . ... ... ... : ... .. . ... : ... .. 2 ... : ... .. . ... ... : --- .. . ... ... : ... .. 7 ... ... : ... .. . ... ...
ROW DF : ... .. 0 ... V00 ... : ... .. . ... ... ... : --- .. . ... : ... .. F ... : ... .. . ... ... : C-3 01 A ... ... : G#3 01 A ... ... : ... .. . ... ...
ROW E0 : ... .. . ... ... ... : ... .. . ... ... ... : ... .. . ... : ... .. C ... : ... .. . ... ... : ... .. 9 ... ... : ... .. 9 ... ... : ... .. . ... ...
ROW E1 : ... .. . ... ... ... : ... .. . ... ... ... : ... .. . ... : ... .. 6 ... : ... .. . ... ... : ... .. . ... ... : ... .. . ... ... : ... .. . ... ...
ROW E2 : ... .. . ... ... ... : ... .. . ... ... ... : ... .. . ... : ... .. 3 ... : ... .. . ... ... : ... .. 8 ... ... : ... .. 8 ... ... : ... .. . ... ...
ROW E3 : ... .. . ... ... ... : ... .. . ... ... ... : ... .. . ... : ... .. 2 ... : ... .. . ... ... : --- .. . P7E ... : ... .. 7 ... ... : ... .. . ... ...
ROW E4 : G-4 00 F P80 V02 ... : ... .. . ... ... ... : C-3 00 . ... : 6-# 00 F ... : ... .. . ... ... : G-2 01 A P80 ... : G-3 01 A ... ... : ... .. . ... ...
ROW E5 : ... .. E ... ... ... : ... .. . ... ... ... : ... .. . ... : ... .. C ... : ... .. . ... ... : ... .. 9 ... ... : ... .. 9 ... ... : ... .. . ... ...
ROW E6 : ... .. D ... ... ... : ... .. . ... ... ... : ... .. . ... : ... .. 6 ... : ... .. . ... ... : ... .. . ... ... : ... .. . ... ... : ... .. . ... ...
ROW E7 : ... .. 0 ... V00 ... : ... .. . ... ... ... : --- .. . ... : ... .. 3 ... : ... .. . ... ... : ... .. 8 ... ... : ... .. 8 ... ... : ... .. . ... ...
ROW E8 : ... .. . ... ... ... : ... .. . ... ... ... : ... .. . ... : ... .. 2 ... : ... .. . ... ... : --- .. . P81 ... : ... .. 7 ... ... : ... .. . ... ...
ROW E9 : F-4 00 F P80 V02 ... : ... .. . ... ... ... : A#2 00 . ... : ... .. 0 ... : ... .. . ... ... : A#2 01 A P80 ... : F-3 01 A ... ... : ... .. . ... ...
ROW EA : ... .. E ... ... ... : ... .. . ... ... ... : ... .. . ... : ... .. . ... : ... .. . ... ... : ... .. 9 ... ... : ... .. 9 ... ... : ... .. . ... ...
ROW EB : ... .. D ... ... ... : ... .. . ... ... ... : ... .. . ... : ... .. . ... : ... .. . ... ... : ... .. . ... ... : ... .. . ... ... : ... .. . ... ...
ROW EC : ... .. 0 ... V00 ... : ... .. . ... ... ... : --- .. . ... : ... .. . ... : ... .. . ... ... : ... .. 8 ... ... : ... .. 8 ... ... : ... .. . ... ...
ROW ED : ... .. . ... ... ... : ... .. . ... ... ... : ... .. . ... : ... .. . ... : ... .. . ... ... : --- .. . P82 ... : ... .. 7 ... ... : ... .. . ... ...
ROW EE : E-4 00 F P80 V02 ... : ... .. . ... ... ... : G#2 00 . ... : D-# 00 F ... : ... .. . ... ... : E-2 01 A P80 ... : E-3 01 A ... ... : ... .. . ... ...
ROW EF : ... .. E ... ... ... : ... .. . ... ... ... : ... .. . ... : ... .. C ... : ... .. . ... ... : ... .. 9 ... ... : ... .. 9 ... ... : ... .. . ... ...
ROW F0 : ... .. D ... ... ... : ... .. . ... ... ... : ... .. . ... : ... .. 6 ... : ... .. . ... ... : ... .. . ... ... : ... .. . ... ... : ... .. . ... ...
ROW F1 : ... .. A ... ... ... : ... .. . ... ... ... : --- .. . ... : ... .. 3 ... : ... .. . ... ... : ... .. 8 ... ... : ... .. 8 ... ... : ... .. . ... ...
ROW F2 : ... .. . ... ... ... : ... .. . ... ... ... : ... .. . ... : ... .. 2 ... : ... .. . ... ... : --- .. . P83 ... : ... .. 7 ... ... : ... .. . ... ...
ROW F3 : ... .. 0 ... V00 ... : ... .. . ... ... ... : G-2 00 . ... : ... .. F ... : ... .. . ... ... : A#2 01 A P80 ... : G-3 01 A ... ... : ... .. . ... ...
ROW F4 : ... .. . ... ... ... : ... .. . ... ... ... : ... .. . ... : ... .. C ... : ... .. . ... ... : ... .. 9 ... ... : ... .. 9 ... ... : ... .. . ... ...
ROW F5 : ... .. . ... ... ... : ... .. . ... ... ... : ... .. . ... : ... .. 6 ... : ... .. . ... ... : ... .. . ... ... : ... .. . ... ... : ... .. . ... ...
ROW F6 : ... .. . ... ... ... : ... .. . ... ... ... : --- .. . ... : ... .. 3 ... : ... .. . ... ... : ... .. 8 ... ... : ... .. 8 ... ... : ... .. . ... ...
ROW F7 : ... .. . ... ... ... : ... .. . ... ... ... : ... .. . ... : ... .. 2 ... : ... .. . ... ... : --- .. . P82 ... : ... .. 7 ... ... : ... .. . ... ...
ROW F8 : F-4 00 F P80 V02 ... : ... .. . ... ... ... : E-4 00 . ... : 3-# 00 F ... : ... .. . ... ... : G#2 01 A P80 ... : F-3 01 A ... ... : ... .. . ... ...
ROW F9 : ... .. E ... ... ... : ... .. . ... ... ... : F#3 00 . ... : ... .. C ... : ... .. . ... ... : ... .. 9 ... ... : ... .. 9 ... ... : ... .. . ... ...
ROW FA : ... .. D ... ... ... : ... .. . ... ... ... : B-2 00 . ... : ... .. 6 ... : ... .. . ... ... : ... .. . ... ... : ... .. . ... ... : ... .. . ... ...
ROW FB : ... .. A ... ... ... : ... .. . ... ... ... : A#2 00 . ... : ... .. 3 ... : ... .. . ... ... : ... .. 8 ... ... : ... .. 8 ... ... : ... .. . ... ...
ROW FC : ... .. . ... ... ... : ... .. . ... ... ... : F-2 00 . ... : ... .. 2 ... : ... .. . ... ... : ... .. 7 ... ... : ... .. 7 ... ... : ... .. . ... ...
ROW FD : ... .. . ... ... ... : ... .. . ... ... ... : ... .. . ... : ... .. 0 ... : ... .. . ... ... : ... .. . ... ... : ... .. . ... ... : ... .. . ... ...
ROW FE : ... .. . ... ... ... : ... .. . ... ... ... : ... .. . ... : ... .. . ... : ... .. . ... ... : ... .. 6 ... ... : ... .. 6 ... ... : ... .. . ... ...
ROW FF : ... .. . ... ... ... : ... .. . ... ... ... : ... .. . ... : ... .. . ... : ... .. . ... ... : ... .. . ... ... : ... .. . ... ... : ... .. . ... ...

PATTERN 03
ROW 00 : ... .. 0 ... V00 ... : ... .. . ... ... ... : ... .. . ... : ... .. . ... : ... .. . ... ... : ... .. . ... ... : ... .. . ... ... : ... .. . ... ...
ROW 01 : ... .. . ... ... ... : ... .. . ... ... ... : ... .. . ... : ... .. . ... : ... .. . ... ... : ... .. . ... ... : ... .. . ... ... : ... .. . ... ...
ROW 02 : ... .. . ... ... ... : ... .. . ... ... ... : E-2 00 . P86 : ... .. . ... : ... .. . ... ... : C-2 01 A ... ... : C-1 01 A ... ... : ... .. . ... ...
ROW 03 : ... .. . ... ... ... : ... .. . ... ... ... : D#2 00 . P8E : ... .. . ... : ... .. . ... ... : ... .. 9 ... ... : ... .. 9 ... ... : ... .. . ... ...
ROW 04 : ... .. . ... ... ... : ... .. . ... ... ... : ... .. . P6E : ... .. . ... : ... .. . ... ... : ... .. . ... ... : ... .. . ... ... : ... .. . ... ...
ROW 05 : D-5 00 6 P80 V02 ... : ... .. . ... ... ... : D-2 00 . P79 : ... .. . ... : ... .. . ... ... : ... .. 8 ... ... : ... .. 8 ... ... : ... .. . ... ...
ROW 06 : ... .. 5 ... ... ... : ... .. . ... ... ... : C#2 00 . P86 : ... .. . ... : ... .. . ... ... : ... .. 7 ... ... : ... .. 7 ... ... : ... .. . ... ...
ROW 07 : D#5 00 8 ... ... ... : ... .. . ... ... ... : C-2 00 . P96 : ... .. . ... : ... .. . ... ... : --- .. . P7E ... : --- .. . P7D ... : ... .. . ... ...
ROW 08 : ... .. 7 ... ... ... : ... .. . ... ... ... : ... .. . P76 : ... .. . ... : ... .. . ... ... : ... .. . ... ... : ... .. . ... ... : ... .. . ... ...
ROW 09 : ... .. 6 ... ... ... : ... .. . ... ... ... : B-1 00 . P89 : ... .. . ... : ... .. . ... ... : ... .. . ... ... : ... .. . ... ... : ... .. . ... ...
ROW 0A : E-5 00 A ... ... ... : ... .. . ... ... ... : ... .. . P69 : ... .. . ... : ... .. . ... ... : ... .. . ... ... : ... .. . ... ... : ... .. . ... ...
ROW 0B : ... .. 9 ... ... ... : ... .. . ... ... ... : A#1 00 . P7F : ... .. . ... : ... .. . ... ... : ... .. . ... ... : ... .. . ... ... : ... .. . ... ...
ROW 0C : F-5 00 F ... ... ... : ... .. . ... ... ... : E-3 00 . P80 : 6-# 00 F ... : ... .. . ... ... : F-1 01 A P80 ... : F-0 01 A P81 ... : ... .. . ... ...
ROW 0D : ... .. E ... ... ... : ... .. . ... ... ... : F#2 00 . ... : ... .. C ... : ... .. . ... ... : ... .. 9 ... ... : ... .. 9 ... ... : ... .. . ... ...
ROW 0E : ... .. D ... ... ... : ... .. . ... ... ... : B-1 00 . ... : ... .. 6 ... : ... .. . ... ... : ... .. . ... ... : ... .. . ... ... : ... .. . ... ...
ROW 0F : ... .. A ... ... ... : ... .. . ... ... ... : A#1 00 . ... : ... .. 3 ... : ... .. . ... ... : ... .. 8 ... ... : ... .. 8 ... ... : ... .. . ... ...
ROW 10 : ... .. . ... ... ... : ... .. . ... ... ... : F-1 00 . ... : ... .. 2 ... : ... .. . ... ... : ... .. 7 ... ... : ... .. 7 ... ... : ... .. . ... ...
ROW 11 : ... .. . ... ... ... : ... .. . ... ... ... : ... .. . ... : ... .. 0 ... : ... .. . ... ... : ... .. . ... ... : ... .. . ... ... : ... .. . ... ...
ROW 12 : ... .. . ... ... ... : ... .. . ... ... ... : ... .. . ... : ... .. . ... : ... .. . ... ... : ... .. 6 ... ... : ... .. 6 ... ... : ... .. . ... ...
ROW 13 : ... .. . ... ... ... : ... .. . ... ... ... : ... .. . ... : ... .. . ... : ... .. . ... ... : ... .. . ... ... : ... .. . ... ... : ... .. . ... ...
ROW 14 : ... .. . ... ... ... : ... .. . ... ... ... : ... .. . ... : ... .. . ... : ... .. . ... ... : ... .. . ... ... : ... .. . ... ... : ... .. . ... ...
ROW 15 : ... .. . ... ... ... : ... .. . ... ... ... : ... .. . ... : ... .. . ... : ... .. . ... ... : ... .. . ... ... : ... .. . ... ... : ... .. . ... ...
ROW 16 : ... .. 0 ... V00 ... : ... .. . ... ... ... : --- .. . ... : B-# 00 8 ... : ... .. . ... ... : --- .. . ... ... : --- .. . P80 ... : ... .. . ... ...
ROW 17 : ... .. . ... ... ... : ... .. . ... ... ... : ... .. . ... : ... .. 6 ... : ... .. . ... ... : ... .. . ... ... : ... .. . ... ... : ... .. . ... ...
ROW 18 : ... .. . ... ... ... : ... .. . ... ... ... : ... .. . ... : ... .. 3 ... : ... .. . ... ... : ... .. . ... ... : ... .. . ... ... : ... .. . ... ...
ROW 19 : ... .. . ... ... ... : ... .. . ... ... ... : ... .. . ... : ... .. 1 ... : ... .. . ... ... : ... .. . ... ... : ... .. . ... ... : ... .. . ... ...
ROW 1A : ... .. . ... ... ... : ... .. . ... ... ... : ... .. . ... : ... .. 8 ... : ... .. . ... ... : ... .. . ... ... : ... .. . ... ... : ... .. . ... ...
ROW 1B : ... .. . ... ... ... : ... .. . ... ... ... : ... .. . ... : ... .. 6 ... : ... .. . ... ... : ... .. . ... ... : ... .. . ... ... : ... .. . ... ...
ROW 1C : ... .. . ... ... ... : ... .. . ... ... ... : ... .. . ... : ... .. 3 ... : ... .. . ... ... : ... .. . ... ... : ... .. . ... ... : ... .. . ... ...
ROW 1D : ... .. . ... ... ... : ... .. . ... ... ... : ... .. . ... : ... .. 8 ... : ... .. . ... ... : ... .. . ... ... : ... .. . ... ... : ... .. . ... ...
ROW 1E : ... .. . ... ... ... : ... .. . ... ... ... : ... .. . ... : ... .. 6 ... : ... .. . ... ... : ... .. . ... ... : ... .. . ... ... : ... .. . ... ...
ROW 1F : ... .. . ... ... ... : ... .. . ... ... ... : ... .. . ... : ... .. 3 ... : ... .. . ... ... : ... .. . ... ... : ... .. . ... ... : ... .. . ... ...
ROW 20 : F-2 00 F P80 V01 ... : C-3 00 F P80 ... ... : F-3 00 . ... : 3-# 00 F ... : ... .. . ... ... : F-4 01 A ... ... : F-5 01 A P81 ... : ... .. . ... ...
ROW 21 : ... .. E ... ... ... : ... .. E ... ... ... : ... .. . ... : ... .. C ... : ... .. . ... ... : ... .. 9 ... ... : ... .. 9 ... ... : ... .. . ... ...
ROW 22 : ... .. D ... ... ... : ... .. D ... ... ... : ... .. . ... : ... .. 6 ... : ... .. . ... ... : ... .. . ... ... : ... .. . ... ... : ... .. . ... ...
ROW 23 : ... .. 0 ... V00 ... : ... .. 0 ... ... ... : ... .. . ... : ... .. 3 ... : ... .. . ... ... : --- .. . ... ... : --- .. . ... ... : ... .. . ... ...
ROW 24 : ... .. . ... ... ... : ... .. . ... ... ... : ... .. . ... : ... .. 2 ... : ... .. . ... ... : ... .. . ... ... : ... .. . ... ... : ... .. . ... ...
ROW 25 : F-2 00 F P80 V01 ... : C-3 00 F P80 ... ... : --- .. . ... : ... .. 0 ... : ... .. . ... ... : G#3 01 A ... ... : G#4 01 A ... ... : ... .. . ... ...
ROW 26 : ... .. E ... ... ... : ... .. E ... ... ... : ... .. . ... : ... .. . ... : ... .. . ... ... : ... .. 9 ... ... : ... .. 9 ... ... : ... .. . ... ...
ROW 27 : ... .. D ... ... ... : ... .. D ... ... ... : ... .. . ... : ... .. . ... : ... .. . ... ... : ... .. . ... ... : ... .. . ... ... : ... .. . ... ...
ROW 28 : ... .. 0 ... V00 ... : ... .. 0 ... ... ... : ... .. . ... : ... .. . ... : ... .. . ... ... : --- .. . P82 ... : --- .. . ... ... : ... .. . ... ...
ROW 29 : ... .. . ... ... ... : ... .. . ... ... ... : ... .. . ... : ... .. . ... : ... .. . ... ... : ... .. . ... ... : ... .. . ... ... : ... .. . ... ...
ROW 2A : B-2 00 F P80 V01 ... : F#3 00 F P80 ... ... : F-3 00 . ... : D-# 00 F ... : ... .. . ... ... : F-4 01 A P80 ... : F-5 01 A ... ... : ... .. . ... ...
ROW 2B : ... .. E ... ... ... : ... .. E ... ... ... : ... .. . ... : ... .. C ... : ... .. . ... ... : ... .. 9 ... ... : ... .. 9 ... ... : ... .. . ... ...
ROW 2C : ... .. D ... ... ... : ... .. D ... ... ... : ... .. . ... : ... .. 6 ... : ... .. . ... ... : ... .. . ... ... : ... .. . ... ... : ... .. . ... ...
ROW 2D : ... .. A ... ... ... : ... .. A ... ... ... : --- .. . ... : ... .. 3 ... : ... .. . ... ... : --- .. . ... ... : --- .. . ... ... : ... .. . ... ...
ROW 2E : ... .. . ... ... ... : ... .. . ... ... ... : ... .. . ... : ... .. 2 ... : ... .. . ... ... : ... .. . ... ... : ... .. . ... ... : ... .. . ... ...
ROW 2F : ... .. . ... ... ... : ... .. . ... ... ... : F-3 00 . ... : ... .. F ... : ... .. . ... ... : G#3 01 A ... ... : G#4 01 A ... ... : ... .. . ... ...
ROW 30 : ... .. . ... ... ... : ... .. . ... ... ... : ... .. . ... : ... .. C ... : ... .. . ... ... : ... .. 9 ... ... : ... .. 9 ... ... : ... .. . ... ...
ROW 31 : ... .. . ... ... ... : ... .. . ... ... ... : ... .. . ... : ... .. 6 ... : ... .. . ... ... : ... .. . ... ... : ... .. . ... ... : ... .. . ... ...
ROW 32 : ... .. 0 ... V00 ... : ... .. 0 ... ... ... : --- .. . ... : ... .. 3 ... : ... .. . ... ... : --- .. . P82 ... : --- .. . ... ... : ... .. . ... ...
ROW 33 : ... .. . ... ... ... : ... .. . ... ... ... : ... .. . ... : ... .. 2 ... : ... .. . ... ... : ... .. . ... ... : ... .. . ... ... : ... .. . ... ...
ROW 34 : A#2 00 F P80 V01 ... : F-3 00 F P80 ... ... : F-3 00 . ... : 6-# 00 F ... : ... .. . ... ... : F-4 01 A P80 ... : F-5 01 A ... ... : ... .. . ... ...
ROW 35 : ... .. E ... ... ... : ... .. E ... ... ... : ... .. . ... : ... .. C ... : ... .. . ... ... : ... .. 9 ... ... : ... .. 9 ... ... : ... .. . ... ...
ROW 36 : ... .. D ... ... ... : ... .. D ... ... ... : ... .. . ... : ... .. 6 ... : ... .. . ... ... : ... .. . ... ... : ... .. . ... ... : ... .. . ... ...
ROW 37 : ... .. A ... ... ... : ... .. A ... ... ... : ... .. . ... : ... .. 3 ... : ... .. . ... ... : --- .. . ... ... : --- .. . ... ... : ... .. . ... ...
ROW 38 : ... .. . ... ... ... : ... .. . ... ... ... : ... .. . ... : ... .. 2 ... : ... .. . ... ... : ... .. . ... ... : ... .. . ... ... : ... .. . ... ...
ROW 39 : ... .. . ... ... ... : ... .. . ... ... ... : --- .. . ... : ... .. 0 ... : ... .. . ... ... : G#3 01 A ... ... : G#4 01 A ... ... : ... .. . ... ...
ROW 3A : ... .. . ... ... ... : ... .. . ... ... ... : ... .. . ... : ... .. . ... : ... .. . ... ... : ... .. 9 ... ... : ... .. 9 ... ... : ... .. . ... ...
ROW 3B : ... .. . ... ... ... : ... .. . ... ... ... : ... .. . ... : ... .. . ... : ... .. . ... ... : ... .. . ... ... : ... .. . ... ... : ... .. . ... ...
ROW 3C : ... .. 0 ... V00 ... : ... .. 0 ... ... ... : ... .. . ... : ... .. . ... : ... .. . ... ... : --- .. . P82 ... : --- .. . ... ... : ... .. . ... ...
ROW 3D : ... .. . ... ... ... : ... .. . ... ... ... : ... .. . ... : ... .. . ... : ... .. . ... ... : ... .. . ... ... : ... .. . ... ... : ... .. . ... ...
ROW 3E : G#2 00 F P80 V01 ... : D#3 00 F P80 ... ... : F-3 00 . ... : D-# 00 F ... : ... .. . ... ... : F-4 01 A P80 ... : F-5 01 A ... ... : ... .. . ... ...
ROW 3F : ... .. E ... ... ... : ... .. E ... ... ... : ... .. . ... : ... .. C ... : ... .. . ... ... : ... .. 9 ... ... : ... .. 9 ... ... : ... .. . ... ...
ROW 40 : ... .. D ... ... ... : ... .. D ... ... ... : ... .. . ... : ... .. 6 ... : ... .. . ... ... : ... .. . ... ... : ... .. . ... ... : ... .. . ... ...
ROW 41 : ... .. 0 ... V00 ... : ... .. 0 ... ... ... : --- .. . ... : ... .. 3 ... : ... .. . ... ... : --- .. . ... ... : --- .. . ... ... : ... .. . ... ...
ROW 42 : ... .. . ... ... ... : ... .. . ... ... ... : ... .. . ... : ... .. 2 ... : ... .. . ... ... : ... .. . ... ... : ... .. . ... ... : ... .. . ... ...
ROW 43 : F-2 00 F P80 V01 ... : C-3 00 F P80 ... ... : F-3 00 . ... : ... .. F ... : ... .. . ... ... : G#3 01 A ... ... : G#4 01 A ... ... : ... .. . ... ...
ROW 44 : ... .. E ... ... ... : ... .. E ... ... ... : ... .. . ... : ... .. C ... : ... .. . ... ... : ... .. 9 ... ... : ... .. 9 ... ... : ... .. . ... ...
ROW 45 : ... .. D ... ... ... : ... .. D ... ... ... : ... .. . ... : ... .. 6 ... : ... .. . ... ... : ... .. . ... ... : ... .. . ... ... : ... .. . ... ...
ROW 46 : ... .. A ... ... ... : ... .. A ... ... ... : --- .. . ... : ... .. 3 ... : ... .. . ... ... : --- .. . P82 ... : --- .. . ... ... : ... .. . ... ...
ROW 47 : ... .. . ... ... ... : ... .. . ... ... ... : ... .. . ... : ... .. 2 ... : ... .. . ... ... : ... .. . ... ... : ... .. . ... ... : ... .. . ... ...
ROW 48 : ... .. . ... ... ... : ... .. . ... ... ... : F-3 00 . ... : 3-# 00 F ... : ... .. . ... ... : E-4 01 A P80 ... : E-5 01 A ... ... : ... .. . ... ...
ROW 49 : ... .. . ... ... ... : ... .. . ... ... ... : ... .. . ... : ... .. C ... : ... .. . ... ... : ... .. 9 ... ... : ... .. 9 ... ... : ... .. . ... ...
ROW 4A : ... .. . ... ... ... : ... .. . ... ... ... : ... .. . ... : ... .. 6 ... : ... .. . ... ... : ... .. . ... ... : ... .. . ... ... : ... .. . ... ...
ROW 4B : ... .. 0 ... V00 ... : ... .. 0 ... ... ... : ... .. . ... : ... .. 3 ... : ... .. . ... ... : --- .. . ... ... : --- .. . ... ... : ... .. . ... ...
ROW 4C : ... .. . ... ... ... : ... .. . ... ... ... : ... .. . ... : ... .. 2 ... : ... .. . ... ... : ... .. . ... ... : ... .. . ... ... : ... .. . ... ...
ROW 4D : F-2 00 F P80 V01 ... : C-3 00 F P80 ... ... : --- .. . ... : ... .. 0 ... : ... .. . ... ... : G-3 01 A ... ... : G-4 01 A ... ... : ... .. . ... ...
ROW 4E : ... .. E ... ... ... : ... .. E ... ... ... : ... .. . ... : ... .. . ... : ... .. . ... ... : ... .. 9 ... ... : ... .. 9 ... ... : ... .. . ... ...
ROW 4F : ... .. D ... ... ... : ... .. D ... ... ... : ... .. . ... : ... .. . ... : ... .. . ... ... : ... .. . ... ... : ... .. . ... ... : ... .. . ... ...
ROW 50 : ... .. 0 ... V00 ... : ... .. 0 ... ... ... : ... .. . ... : ... .. . ... : ... .. . ... ... : --- .. . P81 ... : --- .. . ... ... : ... .. . ... ...
ROW 51 : ... .. . ... ... ... : ... .. . ... ... ... : ... .. . ... : ... .. . ... : ... .. . ... ... : ... .. . ... ... : ... .. . ... ... : ... .. . ... ...
ROW 52 : B-2 00 F P80 V01 ... : F#3 00 F P80 ... ... : F-3 00 . ... : D-# 00 F ... : ... .. . ... ... : E-4 01 A P80 ... : E-5 01 A ... ... : ... .. . ... ...
ROW 53 : ... .. E ... ... ... : ... .. E ... ... ... : ... .. . ... : ... .. C ... : ... .. . ... ... : ... .. 9 ... ... : ... .. 9 ... ... : ... .. . ... ...
ROW 54 : ... .. D ... ... ... : ... .. D ... ... ... : ... .. . ... : ... .. 6 ... : ... .. . ... ... : ... .. . ... ... : ... .. . ... ... : ... .. . ... ...
ROW 55 : ... .. A ... ... ... : ... .. A ... ... ... : --- .. . ... : ... .. 3 ... : ... .. . ... ... : --- .. . ... ... : --- .. . ... ... : ... .. . ... ...
ROW 56 : ... .. . ... ... ... : ... .. . ... ... ... : ... .. . ... : ... .. 2 ... : ... .. . ... ... : ... .. . ... ... : ... .. . ... ... : ... .. . ... ...
ROW 57 : ... .. . ... ... ... : ... .. . ... ... ... : F-3 00 . ... : ... .. F ... : ... .. . ... ... : G-3 01 A ... ... : G-4 01 A ... ... : ... .. . ... ...
ROW 58 : ... .. . ... ... ... : ... .. . ... ... ... : ... .. . ... : ... .. C ... : ... .. . ... ... : ... .. 9 ... ... : ... .. 9 ... ... : ... .. . ... ...
ROW 59 : ... .. . ... ... ... : ... .. . ... ... ... : ... .. . ... : ... .. 6 ... : ... .. . ... ... : ... .. . ... ... : ... .. . ... ... : ... .. . ... ...
ROW 5A : ... .. 0 ... V00 ... : ... .. 0 ... ... ... : --- .. . ... : ... .. 3 ... : ... .. . ... ... : --- .. . P81 ... : --- .. . ... ... : ... .. . ... ...
ROW 5B : ... .. . ... ... ... : ... .. . ... ... ... : ... .. . ... : ... .. 2 ... : ... .. . ... ... : ... .. . ... ... : ... .. . ... ... : ... .. . ... ...
ROW 5C : A#2 00 F P80 V01 ... : F-3 00 F P80 ... ... : F-3 00 . ... : 6-# 00 F ... : ... .. . ... ... : E-4 01 A P80 ... : E-5 01 A ... ... : ... .. . ... ...
ROW 5D : ... .. E ... ... ... : ... .. E ... ... ... : ... .. . ... : ... .. C ... : ... .. . ... ... : ... .. 9 ... ... : ... .. 9 ... ... : ... .. . ... ...
ROW 5E : ... .. D ... ... ... : ... .. D ... ... ... : ... .. . ... : ... .. 6 ... : ... .. . ... ... : ... .. . ... ... : ... .. . ... ... : ... .. . ... ...
ROW 5F : ... .. A ... ... ... : ... .. A ... ... ... : --- .. . ... : ... .. 3 ... : ... .. . ... ... : --- .. . ... ... : --- .. . ... ... : ... .. . ... ...
ROW 60 : ... .. . ... ... ... : ... .. . ... ... ... : ... .. . ... : ... .. 2 ... : ... .. . ... ... : ... .. . ... ... : ... .. . ... ... : ... .. . ... ...
ROW 61 : ... .. . ... ... ... : ... .. . ... ... ... : F-3 00 . ... : ... .. 0 ... : ... .. . ... ... : G-3 01 A ... ... : G-4 01 A ... ... : ... .. . ... ...
ROW 62 : ... .. . ... ... ... : ... .. . ... ... ... : ... .. . ... : ... .. . ... : ... .. . ... ... : ... .. 9 ... ... : ... .. 9 ... ... : ... .. . ... ...
ROW 63 : ... .. . ... ... ... : ... .. . ... ... ... : ... .. . ... : ... .. . ... : ... .. . ... ... : ... .. . ... ... : ... .. . ... ... : ... .. . ... ...
ROW 64 : ... .. 0 ... V00 ... : ... .. 0 ... ... ... : --- .. . ... : ... .. . ... : ... .. . ... ... : --- .. . P81 ... : --- .. . ... ... : ... .. . ... ...
ROW 65 : ... .. . ... ... ... : ... .. . ... ... ... : ... .. . ... : ... .. . ... : ... .. . ... ... : ... .. . ... ... : ... .. . ... ... : ... .. . ... ...
ROW 66 : G#2 00 F P80 V01 ... : D#3 00 F P80 ... ... : F-3 00 . ... : D-# 00 F ... : ... .. . ... ... : E-4 01 A P80 ... : E-5 01 A ... ... : ... .. . ... ...
ROW 67 : ... .. E ... ... ... : ... .. E ... ... ... : ... .. . ... : ... .. C ... : ... .. . ... ... : ... .. 9 ... ... : ... .. 9 ... ... : ... .. . ... ...
ROW 68 : ... .. D ... ... ... : ... .. D ... ... ... : ... .. . ... : ... .. 6 ... : ... .. . ... ... : ... .. . ... ... : ... .. . ... ... : ... .. . ... ...
ROW 69 : ... .. A ... ... ... : ... .. A ... ... ... : --- .. . ... : ... .. 3 ... : ... .. . ... ... : --- .. . ... ... : --- .. . ... ... : ... .. . ... ...
ROW 6A : ... .. . ... ... ... : ... .. . ... ... ... : ... .. . ... : ... .. 2 ... : ... .. . ... ... : ... .. . ... ... : ... .. . ... ... : ... .. . ... ...
ROW 6B : ... .. . ... ... ... : ... .. . ... ... ... : F-3 00 . ... : ... .. 0 ... : ... .. . ... ... : G-3 01 A ... ... : G-4 01 A ... ... : ... .. . ... ...
ROW 6C : ... .. . ... ... ... : ... .. . ... ... ... : ... .. . ... : ... .. . ... : ... .. . ... ... : ... .. 9 ... ... : ... .. 9 ... ... : ... .. . ... ...
ROW 6D : ... .. . ... ... ... : ... .. . ... ... ... : ... .. . ... : ... .. . ... : ... .. . ... ... : ... .. . ... ... : ... .. . ... ... : ... .. . ... ...
ROW 6E : ... .. 0 ... V00 ... : ... .. 0 ... ... ... : --- .. . ... : ... .. . ... : ... .. . ... ... : --- .. . P81 ... : --- .. . ... ... : ... .. . ... ...
ROW 6F : ... .. . ... ... ... : ... .. . ... ... ... : ... .. . ... : ... .. . ... : ... .. . ... ... : ... .. . ... ... : ... .. . ... ... : ... .. . ... ...
ROW 70 : F-2 00 F P80 V01 ... : C-3 00 F P80 ... ... : F-3 00 . ... : 3-# 00 F ... : ... .. . ... ... : D#4 01 A P80 ... : D#5 01 A ... ... : ... .. . ... ...
ROW 71 : ... .. E ... ... ... : ... .. E ... ... ... : ... .. . ... : ... .. C ... : ... .. . ... ... : ... .. 9 ... ... : ... .. 9 ... ... : ... .. . ... ...
ROW 72 : ... .. D ... ... ... : ... .. D ... ... ... : ... .. . ... : ... .. 6 ... : ... .. . ... ... : ... .. . ... ... : ... .. . ... ... : ... .. . ... ...
ROW 73 : ... .. 0 ... V00 ... : ... .. 0 ... ... ... : ... .. . ... : ... .. 3 ... : ... .. . ... ... : --- .. . ... ... : --- .. . ... ... : ... .. . ... ...
ROW 74 : ... .. . ... ... ... : ... .. . ... ... ... : ... .. . ... : ... .. 2 ... : ... .. . ... ... : ... .. . ... ... : ... .. . ... ... : ... .. . ... ...
ROW 75 : F-2 00 F P80 V01 ... : C-3 00 F P80 ... ... : --- .. . ... : ... .. 0 ... : ... .. . ... ... : F#3 01 A ... ... : F#4 01 A ... ... : ... .. . ... ...
ROW 76 : ... .. E ... ... ... : ... .. E ... ... ... : ... .. . ... : ... .. . ... : ... .. . ... ... : ... .. 9 ... ... : ... .. 9 ... ... : ... .. . ... ...
ROW 77 : ... .. D ... ... ... : ... .. D ... ... ... : ... .. . ... : ... .. . ... : ... .. . ... ... : ... .. . ... ... : ... .. . ... ... : ... .. . ... ...
ROW 78 : ... .. 0 ... V00 ... : ... .. 0 ... ... ... : ... .. . ... : ... .. . ... : ... .. . ... ... : --- .. . P7F ... : --- .. . ... ... : ... .. . ... ...
ROW 79 : ... .. . ... ... ... : ... .. . ... ... ... : ... .. . ... : ... .. . ... : ... .. . ... ... : ... .. . ... ... : ... .. . ... ... : ... .. . ... ...
ROW 7A : B-2 00 F P80 V01 ... : F#3 00 F P80 ... ... : F-3 00 . ... : D-# 00 F ... : ... .. . ... ... : D#4 01 A P80 ... : D#5 01 A ... ... : ... .. . ... ...
ROW 7B : ... .. E ... ... ... : ... .. E ... ... ... : ... .. . ... : ... .. C ... : ... .. . ... ... : ... .. 9 ... ... : ... .. 9 ... ... : ... .. . ... ...
ROW 7C : ... .. D ... ... ... : ... .. D ... ... ... : ... .. . ... : ... .. 6 ... : ... .. . ... ... : ... .. . ... ... : ... .. . ... ... : ... .. . ... ...
ROW 7D : ... .. A ... ... ... : ... .. A ... ... ... : --- .. . ... : ... .. 3 ... : ... .. . ... ... : --- .. . ... ... : --- .. . ... ... : ... .. . ... ...
ROW 7E : ... .. . ... ... ... : ... .. . ... ... ... : ... .. . ... : ... .. 2 ... : ... .. . ... ... : ... .. . ... ... : ... .. . ... ... : ... .. . ... ...
ROW 7F : ... .. . ... ... ... : ... .. . ... ... ... : F-3 00 . ... : ... .. F ... : ... .. . ... ... : F#3 01 A ... ... : F#4 01 A ... ... : ... .. . ... ...
ROW 80 : ... .. . ... ... ... : ... .. . ... ... ... : ... .. . ... : ... .. C ... : ... .. . ... ... : ... .. 9 ... ... : ... .. 9 ... ... : ... .. . ... ...
ROW 81 : ... .. . ... ... ... : ... .. . ... ... ... : ... .. . ... : ... .. 6 ... : ... .. . ... ... : ... .. . ... ... : ... .. . ... ... : ... .. . ... ...
ROW 82 : ... .. 0 ... V00 ... : ... .. 0 ... ... ... : --- .. . ... : ... .. 3 ... : ... .. . ... ... : --- .. . P7F ... : --- .. . ... ... : ... .. . ... ...
ROW 83 : ... .. . ... ... ... : ... .. . ... ... ... : ... .. . ... : ... .. 2 ... : ... .. . ... ... : ... .. . ... ... : ... .. . ... ... : ... .. . ... ...
ROW 84 : A#2 00 F P80 V01 ... : F-3 00 F P80 ... ... : F-3 00 . ... : 6-# 00 F ... : ... .. . ... ... : D#4 01 A P80 ... : D#5 01 A ... ... : ... .. . ... ...
ROW 85 : ... .. E ... ... ... : ... .. E ... ... ... : ... .. . ... : ... .. C ... : ... .. . ... ... : ... .. 9 ... ... : ... .. 9 ... ... : ... .. . ... ...
ROW 86 : ... .. D ... ... ... : ... .. D ... ... ... : ... .. . ... : ... .. 6 ... : ... .. . ... ... : ... .. . ... ... : ... .. . ... ... : ... .. . ... ...
ROW 87 : ... .. A ... ... ... : ... .. A ... ... ... : ... .. . ... : ... .. 3 ... : ... .. . ... ... : --- .. . ... ... : --- .. . ... ... : ... .. . ... ...
ROW 88 : ... .. . ... ... ... : ... .. . ... ... ... : ... .. . ... : ... .. 2 ... : ... .. . ... ... : ... .. . ... ... : ... .. . ... ... : ... .. . ... ...
ROW 89 : ... .. . ... ... ... : ... .. . ... ... ... : --- .. . ... : ... .. 0 ... : ... .. . ... ... : F#3 01 A ... ... : F#4 01 A ... ... : ... .. . ... ...
ROW 8A : ... .. . ... ... ... : ... .. . ... ... ... : ... .. . ... : ... .. . ... : ... .. . ... ... : ... .. 9 ... ... : ... .. 9 ... ... : ... .. . ... ...
ROW 8B : ... .. . ... ... ... : ... .. . ... ... ... : ... .. . ... : ... .. . ... : ... .. . ... ... : ... .. . ... ... : ... .. . ... ... : ... .. . ... ...
ROW 8C : ... .. 0 ... V00 ... : ... .. 0 ... ... ... : ... .. . ... : ... .. . ... : ... .. . ... ... : --- .. . P7F ... : --- .. . ... ... : ... .. . ... ...
ROW 8D : ... .. . ... ... ... : ... .. . ... ... ... : ... .. . ... : ... .. . ... : ... .. . ... ... : ... .. . ... ... : ... .. . ... ... : ... .. . ... ...
ROW 8E : G#2 00 F P80 V01 ... : D#3 00 F P80 ... ... : F-3 00 . ... : D-# 00 F ... : ... .. . ... ... : D#4 01 A P80 ... : D#5 01 A ... ... : ... .. . ... ...
ROW 8F : ... .. E ... ... ... : ... .. E ... ... ... : ... .. . ... : ... .. C ... : ... .. . ... ... : ... .. 9 ... ... : ... .. 9 ... ... : ... .. . ... ...
ROW 90 : ... .. D ... ... ... : ... .. D ... ... ... : ... .. . ... : ... .. 6 ... : ... .. . ... ... : ... .. . ... ... : ... .. . ... ... : ... .. . ... ...
ROW 91 : ... .. 0 ... V00 ... : ... .. 0 ... ... ... : --- .. . ... : ... .. 3 ... : ... .. . ... ... : --- .. . ... ... : --- .. . ... ... : ... .. . ... ...
ROW 92 : ... .. . ... ... ... : ... .. . ... ... ... : ... .. . ... : ... .. 2 ... : ... .. . ... ... : ... .. . ... ... : ... .. . ... ... : ... .. . ... ...
ROW 93 : F-2 00 F P80 V01 ... : C-3 00 F P80 ... ... : F-3 00 . ... : ... .. 0 ... : ... .. . ... ... : F#3 01 A ... ... : F#4 01 A ... ... : ... .. . ... ...
ROW 94 : ... .. E ... ... ... : ... .. E ... ... ... : ... .. . ... : ... .. . ... : ... .. . ... ... : ... .. 9 ... ... : ... .. 9 ... ... : ... .. . ... ...
ROW 95 : ... .. D ... ... ... : ... .. D ... ... ... : ... .. . ... : ... .. . ... : ... .. . ... ... : ... .. . ... ... : ... .. . ... ... : ... .. . ... ...
ROW 96 : ... .. A ... ... ... : ... .. A ... ... ... : --- .. . ... : ... .. . ... : ... .. . ... ... : --- .. . P7F ... : --- .. . ... ... : ... .. . ... ...
ROW 97 : ... .. . ... ... ... : ... .. . ... ... ... : ... .. . ... : ... .. . ... : ... .. . ... ... : ... .. . ... ... : ... .. . ... ... : ... .. . ... ...
ROW 98 : ... .. . ... ... ... : ... .. . ... ... ... : F-3 00 . ... : 3-# 00 F ... : ... .. . ... ... : D-4 01 A P80 ... : D-5 01 A ... ... : ... .. . ... ...
ROW 99 : ... .. . ... ... ... : ... .. . ... ... ... : ... .. . ... : ... .. C ... : ... .. . ... ... : ... .. 9 ... ... : ... .. 9 ... ... : ... .. . ... ...
ROW 9A : ... .. . ... ... ... : ... .. . ... ... ... : ... .. . ... : ... .. 6 ... : ... .. . ... ... : ... .. . ... ... : ... .. . ... ... : ... .. . ... ...
ROW 9B : ... .. 0 ... V00 ... : ... .. 0 ... ... ... : ... .. . ... : ... .. 3 ... : ... .. . ... ... : --- .. . ... ... : --- .. . ... ... : ... .. . ... ...
ROW 9C : ... .. . ... ... ... : ... .. . ... ... ... : ... .. . ... : ... .. 2 ... : ... .. . ... ... : ... .. . ... ... : ... .. . ... ... : ... .. . ... ...
ROW 9D : F-4 00 F P80 V01 ... : C-5 00 F P80 ... ... : ... .. . ... : ... .. 0 ... : ... .. . ... ... : F-3 01 A ... ... : F-4 01 A ... ... : ... .. . ... ...
ROW 9E : ... .. E ... ... ... : ... .. E ... ... ... : ... .. . ... : ... .. . ... : ... .. . ... ... : ... .. 9 ... ... : ... .. 9 ... ... : ... .. . ... ...
ROW 9F : ... .. D ... ... ... : ... .. D ... ... ... : ... .. . ... : ... .. . ... : ... .. . ... ... : ... .. . ... ... : ... .. . ... ... : ... .. . ... ...
ROW A0 : ... .. 0 ... V00 ... : ... .. 0 ... ... ... : ... .. . ... : ... .. . ... : ... .. . ... ... : --- .. . ... ... : --- .. . ... ... : ... .. . ... ...
ROW A1 : ... .. . ... ... ... : ... .. . ... ... ... : ... .. . ... : ... .. . ... : ... .. . ... ... : ... .. . ... ... : ... .. . ... ... : ... .. . ... ...
ROW A2 : E-4 00 F P80 V01 ... : B-4 00 F P80 ... ... : C-4 00 . ... : ... .. . ... : ... .. . ... ... : D-4 01 A ... ... : D-5 01 A ... ... : ... .. . ... ...
ROW A3 : ... .. E ... ... ... : ... .. E ... ... ... : C#4 00 . P83 : ... .. . ... : ... .. . ... ... : ... .. 9 ... ... : ... .. 9 ... ... : ... .. . ... ...
ROW A4 : ... .. D ... ... ... : ... .. D ... ... ... : D#4 00 . P7C : ... .. . ... : ... .. . ... ... : ... .. . ... ... : ... .. . ... ... : ... .. . ... ...
ROW A5 : ... .. 0 ... V00 ... : ... .. 0 ... ... ... : E-4 00 . P81 : ... .. . ... : ... .. . ... ... : --- .. . ... ... : --- .. . ... ... : ... .. . ... ...
ROW A6 : ... .. . ... ... ... : ... .. . ... ... ... : F#4 00 . P7D : ... .. . ... : ... .. . ... ... : ... .. . ... ... : ... .. . ... ... : ... .. . ... ...
ROW A7 : D#4 00 F P80 V01 ... : A#4 00 F P80 ... ... : G-4 00 . P84 : ... .. . ... : ... .. . ... ... : F-3 01 A ... ... : F-4 01 A ... ... : ... .. . ... ...
ROW A8 : ... .. E ... ... ... : ... .. E ... ... ... : G#4 00 . P80 : ... .. . ... : ... .. . ... ... : ... .. 9 ... ... : ... .. 9 ... ... : ... .. . ... ...
ROW A9 : ... .. D ... ... ... : ... .. D ... ... ... : ... .. . ... : ... .. . ... : ... .. . ... ... : ... .. . ... ... : ... .. . ... ... : ... .. . ... ...
ROW AA : ... .. 0 ... V00 ... : ... .. 0 ... ... ... : ... .. . ... : ... .. . ... : ... .. . ... ... : --- .. . ... ... : --- .. . ... ... : ... .. . ... ...
ROW AB : ... .. . ... ... ... : ... .. . ... ... ... : ... .. . ... : ... .. . ... : ... .. . ... ... : ... .. . ... ... : ... .. . ... ... : ... .. . ... ...
ROW AC : D-4 00 F P80 V01 ... : A-4 00 F P80 ... ... : B-1 00 . ... : ... .. . ... : ... .. . ... ... : D-4 01 A ... ... : D-5 01 A ... ... : ... .. . ... ...
ROW AD : ... .. E ... ... ... : ... .. E ... ... ... : ... .. . ... : ... .. . ... : ... .. . ... ... : ... .. 9 ... ... : ... .. 9 ... ... : ... .. . ... ...
ROW AE : ... .. D ... ... ... : ... .. D ... ... ... : ... .. . ... : ... .. . ... : ... .. . ... ... : ... .. . ... ... : ... .. . ... ... : ... .. . ... ...
ROW AF : ... .. 0 ... V00 ... : ... .. 0 ... ... ... : ... .. . ... : ... .. . ... : ... .. . ... ... : --- .. . ... ... : --- .. . ... ... : ... .. . ... ...
ROW B0 : ... .. . ... ... ... : ... .. . ... ... ... : ... .. . ... : ... .. . ... : ... .. . ... ... : ... .. . ... ... : ... .. . ... ... : ... .. . ... ...
ROW B1 : C#4 00 F P80 V01 ... : G#4 00 F P80 ... ... : ... .. . ... : ... .. . ... : ... .. . ... ... : F-3 01 A ... ... : F-4 01 A ... ... : ... .. . ... ...
ROW B2 : ... .. E ... ... ... : ... .. E ... ... ... : ... .. . P8F : ... .. . ... : ... .. . ... ... : ... .. 9 ... ... : ... .. 9 ... ... : ... .. . ... ...
ROW B3 : ... .. D ... ... ... : ... .. D ... ... ... : C-2 00 . P6B : ... .. . ... : ... .. . ... ... : ... .. . ... ... : ... .. . ... ... : ... .. . ... ...
ROW B4 : ... .. 0 ... V00 ... : ... .. 0 ... ... ... : ... .. . P7A : ... .. . ... : ... .. . ... ... : --- .. . ... ... : --- .. . ... ... : ... .. . ... ...
ROW B5 : ... .. . ... ... ... : ... .. . ... ... ... : ... .. . P89 : ... .. . ... : ... .. . ... ... : ... .. . ... ... : ... .. . ... ... : ... .. . ... ...
ROW B6 : C-4 00 F P80 V01 ... : G-4 00 F P80 ... ... : ... .. . P98 : ... .. . ... : ... .. . ... ... : D-4 01 A ... ... : D-5 01 A ... ... : ... .. . ... ...
ROW B7 : ... .. E ... ... ... : ... .. E ... ... ... : C#2 00 . P77 : ... .. . ... : ... .. . ... ... : ... .. 9 ... ... : ... .. 9 ... ... : ... .. . ... ...
ROW B8 : ... .. D ... ... ... : ... .. D ... ... ... : ... .. . P86 : ... .. . ... : ... .. . ... ... : ... .. . ... ... : ... .. . ... ... : ... .. . ... ...
ROW B9 : ... .. 0 ... V00 ... : ... .. 0 ... ... ... : ... .. . P95 : ... .. . ... : ... .. . ... ... : --- .. . ... ... : --- .. . ... ... : ... .. . ... ...
ROW BA : ... .. . ... ... ... : ... .. . ... ... ... : D-2 00 . P77 : ... .. . ... : ... .. . ... ... : ... .. . ... ... : ... .. . ... ... : ... .. . ... ...
ROW BB : B-3 00 F P80 V01 ... : F#4 00 F P80 ... ... : ... .. . P86 : ... .. . ... : ... .. . ... ... : F-3 01 A ... ... : F-4 01 A ... ... : ... .. . ... ...
ROW BC : ... .. E ... ... ... : ... .. E ... ... ... : ... .. . P95 : ... .. . ... : ... .. . ... ... : ... .. 9 ... ... : ... .. 9 ... ... : ... .. . ... ...
ROW BD : ... .. D ... ... ... : ... .. D ... ... ... : D#2 00 . P79 : ... .. . ... : ... .. . ... ... : ... .. . ... ... : ... .. . ... ... : ... .. . ... ...
ROW BE : ... .. 0 ... V00 ... : ... .. 0 ... ... ... : ... .. . P88 : ... .. . ... : ... .. . ... ... : --- .. . ... ... : --- .. . ... ... : ... .. . ... ...
ROW BF : ... .. . ... ... ... : ... .. . ... ... ... : E-2 00 . P6F : ... .. . ... : ... .. . ... ... : ... .. . ... ... : ... .. . ... ... : ... .. . ... ...
ROW C0 : F-2 00 F P80 V01 ... : C-3 00 F P80 ... ... : F-2 00 . P80 : ... .. F ... : ... .. . ... ... : F-4 01 A ... ... : F-5 01 A ... ... : ... .. . ... ...
ROW C1 : ... .. E ... ... ... : ... .. E ... ... ... : ... .. . ... : ... .. C ... : ... .. . ... ... : ... .. 9 ... ... : ... .. 9 ... ... : ... .. . ... ...
ROW C2 : ... .. D ... ... ... : ... .. D ... ... ... : ... .. . ... : ... .. 6 ... : ... .. . ... ... : ... .. . ... ... : ... .. . ... ... : ... .. . ... ...
ROW C3 : ... .. 0 ... V00 ... : ... .. 0 ... ... ... : ... .. . ... : ... .. 3 ... : ... .. . ... ... : --- .. . ... ... : --- .. . ... ... : ... .. . ... ...
ROW C4 : ... .. . ... ... ... : ... .. . ... ... ... : ... .. . ... : ... .. 2 ... : ... .. . ... ... : ... .. . ... ... : ... .. . ... ... : ... .. . ... ...
ROW C5 : F-2 00 F P80 V01 ... : C-3 00 F P80 ... ... : --- .. . ... : ... .. 0 ... : ... .. . ... ... : G#3 01 A ... ... : G#4 01 A ... ... : ... .. . ... ...
ROW C6 : ... .. E ... ... ... : ... .. E ... ... ... : ... .. . ... : ... .. . ... : ... .. . ... ... : ... .. 9 ... ... : ... .. 9 ... ... : ... .. . ... ...
ROW C7 : ... .. D ... ... ... : ... .. D ... ... ... : ... .. . ... : ... .. . ... : ... .. . ... ... : ... .. . ... ... : ... .. . ... ... : ... .. . ... ...
ROW C8 : ... .. 0 ... V00 ... : ... .. 0 ... ... ... : ... .. . ... : ... .. . ... : ... .. . ... ... : --- .. . P82 ... : --- .. . ... ... : ... .. . ... ...
ROW C9 : ... .. . ... ... ... : ... .. . ... ... ... : ... .. . ... : ... .. . ... : ... .. . ... ... : ... .. . ... ... : ... .. . ... ... : ... .. . ... ...
ROW CA : B-2 00 F P80 V01 ... : F#3 00 F P80 ... ... : F-2 00 . ... : D-# 00 F ... : ... .. . ... ... : F-4 01 A P80 ... : F-5 01 A ... ... : ... .. . ... ...
ROW CB : ... .. E ... ... ... : ... .. E ... ... ... : ... .. . ... : ... .. C ... : ... .. . ... ... : ... .. 9 ... ... : ... .. 9 ... ... : ... .. . ... ...
ROW CC : ... .. D ... ... ... : ... .. D ... ... ... : ... .. . ... : ... .. 6 ... : ... .. . ... ... : ... .. . ... ... : ... .. . ... ... : ... .. . ... ...
ROW CD : ... .. A ... ... ... : ... .. A ... ... ... : --- .. . ... : ... .. 3 ... : ... .. . ... ... : --- .. . ... ... : --- .. . ... ... : ... .. . ... ...
ROW CE : ... .. . ... ... ... : ... .. . ... ... ... : ... .. . ... : ... .. 2 ... : ... .. . ... ... : ... .. . ... ... : ... .. . ... ... : ... .. . ... ...
ROW CF : ... .. . ... ... ... : ... .. . ... ... ... : F-2 00 . ... : ... .. F ... : ... .. . ... ... : G#3 01 A ... ... : G#4 01 A ... ... : ... .. . ... ...
ROW D0 : ... .. . ... ... ... : ... .. . ... ... ... : ... .. . ... : ... .. C ... : ... .. . ... ... : ... .. 9 ... ... : ... .. 9 ... ... : ... .. . ... ...
ROW D1 : ... .. . ... ... ... : ... .. . ... ... ... : ... .. . ... : ... .. 6 ... : ... .. . ... ... : ... .. . ... ... : ... .. . ... ... : ... .. . ... ...
ROW D2 : ... .. 0 ... V00 ... : ... .. 0 ... ... ... : --- .. . ... : ... .. 3 ... : ... .. . ... ... : --- .. . P82 ... : --- .. . ... ... : ... .. . ... ...
ROW D3 : ... .. . ... ... ... : ... .. . ... ... ... : ... .. . ... : ... .. 2 ... : ... .. . ... ... : ... .. . ... ... : ... .. . ... ... : ... .. . ... ...
ROW D4 : A#2 00 F P80 V01 ... : F-3 00 F P80 ... ... : F-2 00 . ... : 6-# 00 F ... : ... .. . ... ... : F-4 01 A P80 ... : F-5 01 A ... ... : ... .. . ... ...
ROW D5 : ... .. E ... ... ... : ... .. E ... ... ... : ... .. . ... : ... .. C ... : ... .. . ... ... : ... .. 9 ... ... : ... .. 9 ... ... : ... .. . ... ...
ROW D6 : ... .. D ... ... ... : ... .. D ... ... ... : ... .. . ... : ... .. 6 ... : ... .. . ... ... : ... .. . ... ... : ... .. . ... ... : ... .. . ... ...
ROW D7 : ... .. A ... ... ... : ... .. A ... ... ... : ... .. . ... : ... .. 3 ... : ... .. . ... ... : --- .. . ... ... : --- .. . ... ... : ... .. . ... ...
ROW D8 : ... .. . ... ... ... : ... .. . ... ... ... : ... .. . ... : ... .. 2 ... : ... .. . ... ... : ... .. . ... ... : ... .. . ... ... : ... .. . ... ...
ROW D9 : ... .. . ... ... ... : ... .. . ... ... ... : --- .. . ... : ... .. 0 ... : ... .. . ... ... : G#3 01 A ... ... : G#4 01 A ... ... : ... .. . ... ...
ROW DA : ... .. . ... ... ... : ... .. . ... ... ... : ... .. . ... : ... .. . ... : ... .. . ... ... : ... .. 9 ... ... : ... .. 9 ... ... : ... .. . ... ...
ROW DB : ... .. . ... ... ... : ... .. . ... ... ... : ... .. . ... : ... .. . ... : ... .. . ... ... : ... .. . ... ... : ... .. . ... ... : ... .. . ... ...
ROW DC : ... .. 0 ... V00 ... : ... .. 0 ... ... ... : ... .. . ... : ... .. . ... : ... .. . ... ... : --- .. . P82 ... : --- .. . ... ... : ... .. . ... ...
ROW DD : ... .. . ... ... ... : ... .. . ... ... ... : ... .. . ... : ... .. . ... : ... .. . ... ... : ... .. . ... ... : ... .. . ... ... : ... .. . ... ...
ROW DE : G#2 00 F P80 V01 ... : D#3 00 F P80 ... ... : F-2 00 . ... : D-# 00 F ... : ... .. . ... ... : F-4 01 A P80 ... : F-5 01 A ... ... : ... .. . ... ...
ROW DF : ... .. E ... ... ... : ... .. E ... ... ... : ... .. . ... : ... .. C ... : ... .. . ... ... : ... .. 9 ... ... : ... .. 9 ... ... : ... .. . ... ...
ROW E0 : ... .. D ... ... ... : ... .. D ... ... ... : ... .. . ... : ... .. 6 ... : ... .. . ... ... : ... .. . ... ... : ... .. . ... ... : ... .. . ... ...
ROW E1 : ... .. 0 ... V00 ... : ... .. 0 ... ... ... : --- .. . ... : ... .. 3 ... : ... .. . ... ... : --- .. . ... ... : --- .. . ... ... : ... .. . ... ...
ROW E2 : ... .. . ... ... ... : ... .. . ... ... ... : ... .. . ... : ... .. 2 ... : ... .. . ... ... : ... .. . ... ... : ... .. . ... ... : ... .. . ... ...
ROW E3 : F-2 00 F P80 V01 ... : C-3 00 F P80 ... ... : F-2 00 . ... : ... .. F ... : ... .. . ... ... : G#3 01 A ... ... : G#4 01 A ... ... : ... .. . ... ...
ROW E4 : ... .. E ... ... ... : ... .. E ... ... ... : ... .. . ... : ... .. C ... : ... .. . ... ... : ... .. 9 ... ... : ... .. 9 ... ... : ... .. . ... ...
ROW E5 : ... .. D ... ... ... : ... .. D ... ... ... : ... .. . ... : ... .. 6 ... : ... .. . ... ... : ... .. . ... ... : ... .. . ... ... : ... .. . ... ...
ROW E6 : ... .. A ... ... ... : ... .. A ... ... ... : --- .. . ... : ... .. 3 ... : ... .. . ... ... : --- .. . P82 ... : --- .. . ... ... : ... .. . ... ...
ROW E7 : ... .. . ... ... ... : ... .. . ... ... ... : ... .. . ... : ... .. 2 ... : ... .. . ... ... : ... .. . ... ... : ... .. . ... ... : ... .. . ... ...
ROW E8 : ... .. . ... ... ... : ... .. . ... ... ... : F-2 00 . ... : 3-# 00 F ... : ... .. . ... ... : E-4 01 A P80 ... : E-5 01 A ... ... : ... .. . ... ...
ROW E9 : ... .. . ... ... ... : ... .. . ... ... ... : ... .. . ... : ... .. C ... : ... .. . ... ... : ... .. 9 ... ... : ... .. 9 ... ... : ... .. . ... ...
ROW EA : ... .. . ... ... ... : ... .. . ... ... ... : ... .. . ... : ... .. 6 ... : ... .. . ... ... : ... .. . ... ... : ... .. . ... ... : ... .. . ... ...
ROW EB : ... .. 0 ... V00 ... : ... .. 0 ... ... ... : ... .. . ... : ... .. 3 ... : ... .. . ... ... : --- .. . ... ... : --- .. . ... ... : ... .. . ... ...
ROW EC : ... .. . ... ... ... : ... .. . ... ... ... : ... .. . ... : ... .. 2 ... : ... .. . ... ... : ... .. . ... ... : ... .. . ... ... : ... .. . ... ...
ROW ED : F-2 00 F P80 V01 ... : C-3 00 F P80 ... ... : --- .. . ... : ... .. 0 ... : ... .. . ... ... : G-3 01 A ... ... : G-4 01 A ... ... : ... .. . ... ...
ROW EE : ... .. E ... ... ... : ... .. E ... ... ... : ... .. . ... : ... .. . ... : ... .. . ... ... : ... .. 9 ... ... : ... .. 9 ... ... : ... .. . ... ...
ROW EF : ... .. D ... ... ... : ... .. D ... ... ... : ... .. . ... : ... .. . ... : ... .. . ... ... : ... .. . ... ... : ... .. . ... ... : ... .. . ... ...
ROW F0 : ... .. 0 ... V00 ... : ... .. 0 ... ... ... : ... .. . ... : ... .. . ... : ... .. . ... ... : --- .. . P81 ... : --- .. . ... ... : ... .. . ... ...
ROW F1 : ... .. . ... ... ... : ... .. . ... ... ... : ... .. . ... : ... .. . ... : ... .. . ... ... : ... .. . ... ... : ... .. . ... ... : ... .. . ... ...
ROW F2 : B-2 00 F P80 V01 ... : F#3 00 F P80 ... ... : F-2 00 . ... : D-# 00 F ... : ... .. . ... ... : E-4 01 A P80 ... : E-5 01 A ... ... : ... .. . ... ...
ROW F3 : ... .. E ... ... ... : ... .. E ... ... ... : ... .. . ... : ... .. C ... : ... .. . ... ... : ... .. 9 ... ... : ... .. 9 ... ... : ... .. . ... ...
ROW F4 : ... .. D ... ... ... : ... .. D ... ... ... : ... .. . ... : ... .. 6 ... : ... .. . ... ... : ... .. . ... ... : ... .. . ... ... : ... .. . ... ...
ROW F5 : ... .. A ... ... ... : ... .. A ... ... ... : --- .. . ... : ... .. 3 ... : ... .. . ... ... : --- .. . ... ... : --- .. . ... ... : ... .. . ... ...
ROW F6 : ... .. . ... ... ... : ... .. . ... ... ... : ... .. . ... : ... .. 2 ... : ... .. . ... ... : ... .. . ... ... : ... .. . ... ... : ... .. . ... ...
ROW F7 : ... .. . ... ... ... : ... .. . ... ... ... : F-2 00 . ... : ... .. F ... : ... .. . ... ... : G-3 01 A ... ... : G-4 01 A ... ... : ... .. . ... ...
ROW F8 : ... .. . ... ... ... : ... .. . ... ... ... : ... .. . ... : ... .. C ... : ... .. . ... ... : ... .. 9 ... ... : ... .. 9 ... ... : ... .. . ... ...
ROW F9 : ... .. . ... ... ... : ... .. . ... ... ... : ... .. . ... : ... .. 6 ... : ... .. . ... ... : ... .. . ... ... : ... .. . ... ... : ... .. . ... ...
ROW FA : ... .. 0 ... V00 ... : ... .. 0 ... ... ... : --- .. . ... : ... .. 3 ... : ... .. . ... ... : --- .. . P81 ... : --- .. . ... ... : ... .. . ... ...
ROW FB : ... .. . ... ... ... : ... .. . ... ... ... : ... .. . ... : ... .. 2 ... : ... .. . ... ... : ... .. . ... ... : ... .. . ... ... : ... .. . ... ...
ROW FC : A#2 00 F P80 V01 ... : F-3 00 F P80 ... ... : F-2 00 . ... : 6-# 00 F ... : ... .. . ... ... : E-4 01 A P80 ... : E-5 01 A ... ... : ... .. . ... ...
ROW FD : ... .. E ... ... ... : ... .. E ... ... ... : ... .. . ... : ... .. C ... : ... .. . ... ... : ... .. 9 ... ... : ... .. 9 ... ... : ... .. . ... ...
ROW FE : ... .. D ... ... ... : ... .. D ... ... ... : ... .. . ... : ... .. 6 ... : ... .. . ... ... : ... .. . ... ... : ... .. . ... ... : ... .. . ... ...
ROW FF : ... .. A ... ... ... : ... .. A ... ... ... : --- .. . ... : ... .. 3 ... : ... .. . ... ... : --- .. . ... ... : --- .. . ... ... : ... .. . ... ...

PATTERN 04
ROW 00 : ... .. . ... ... ... : ... .. . ... ... ... : ... .. . ... : ... .. 2 ... : ... .. . ... ... : ... .. . ... ... : ... .. . ... ... : ... .. . ... ...
ROW 01 : ... .. . ... ... ... : ... .. . ... ... ... : F-2 00 . ... : ... .. 0 ... : ... .. . ... ... : G-3 01 A ... ... : G-4 01 A ... ... : ... .. . ... ...
ROW 02 : ... .. . ... ... ... : ... .. . ... ... ... : ... .. . ... : ... .. . ... : ... .. . ... ... : ... .. 9 ... ... : ... .. 9 ... ... : ... .. . ... ...
ROW 03 : ... .. . ... ... ... : ... .. . ... ... ... : ... .. . ... : ... .. . ... : ... .. . ... ... : ... .. . ... ... : ... .. . ... ... : ... .. . ... ...
ROW 04 : ... .. 0 ... V00 ... : ... .. 0 ... ... ... : --- .. . ... : ... .. . ... : ... .. . ... ... : --- .. . P81 ... : --- .. . ... ... : ... .. . ... ...
ROW 05 : ... .. . ... ... ... : ... .. . ... ... ... : ... .. . ... : ... .. . ... : ... .. . ... ... : ... .. . ... ... : ... .. . ... ... : ... .. . ... ...
ROW 06 : G#2 00 F P80 V01 ... : D#3 00 F P80 ... ... : F-2 00 . ... : D-# 00 F ... : ... .. . ... ... : E-4 01 A P80 ... : E-5 01 A ... ... : ... .. . ... ...
ROW 07 : ... .. E ... ... ... : ... .. E ... ... ... : ... .. . ... : ... .. C ... : ... .. . ... ... : ... .. 9 ... ... : ... .. 9 ... ... : ... .. . ... ...
ROW 08 : ... .. D ... ... ... : ... .. D ... ... ... : ... .. . ... : ... .. 6 ... : ... .. . ... ... : ... .. . ... ... : ... .. . ... ... : ... .. . ... ...
ROW 09 : ... .. A ... ... ... : ... .. A ... ... ... : --- .. . ... : ... .. 3 ... : ... .. . ... ... : --- .. . ... ... : --- .. . ... ... : ... .. . ... ...
ROW 0A : ... .. . ... ... ... : ... .. . ... ... ... : ... .. . ... : ... .. 2 ... : ... .. . ... ... : ... .. . ... ... : ... .. . ... ... : ... .. . ... ...
ROW 0B : ... .. . ... ... ... : ... .. . ... ... ... : F-2 00 . ... : ... .. 0 ... : ... .. . ... ... : G-3 01 A ... ... : G-4 01 A ... ... : ... .. . ... ...
ROW 0C : ... .. . ... ... ... : ... .. . ... ... ... : ... .. . ... : ... .. . ... : ... .. . ... ... : ... .. 9 ... ... : ... .. 9 ... ... : ... .. . ... ...
ROW 0D : ... .. . ... ... ... : ... .. . ... ... ... : ... .. . ... : ... .. . ... : ... .. . ... ... : ... .. . ... ... : ... .. . ... ... : ... .. . ... ...
ROW 0E : ... .. 0 ... V00 ... : ... .. 0 ... ... ... : --- .. . ... : ... .. . ... : ... .. . ... ... : --- .. . P81 ... : --- .. . ... ... : ... .. . ... ...
ROW 0F : ... .. . ... ... ... : ... .. . ... ... ... : ... .. . ... : ... .. . ... : ... .. . ... ... : ... .. . ... ... : ... .. . ... ... : ... .. . ... ...
ROW 10 : F-2 00 F P80 V01 ... : C-3 00 F P80 ... ... : F-2 00 . ... : 3-# 00 F ... : ... .. . ... ... : D#4 01 A P80 ... : D#5 01 A ... ... : ... .. . ... ...
ROW 11 : ... .. E ... ... ... : ... .. E ... ... ... : ... .. . ... : ... .. C ... : ... .. . ... ... : ... .. 9 ... ... : ... .. 9 ... ... : ... .. . ... ...
ROW 12 : ... .. D ... ... ... : ... .. D ... ... ... : ... .. . ... : ... .. 6 ... : ... .. . ... ... : ... .. . ... ... : ... .. . ... ... : ... .. . ... ...
ROW 13 : ... .. 0 ... V00 ... : ... .. 0 ... ... ... : ... .. . ... : ... .. 3 ... : ... .. . ... ... : --- .. . ... ... : --- .. . ... ... : ... .. . ... ...
ROW 14 : ... .. . ... ... ... : ... .. . ... ... ... : ... .. . ... : ... .. 2 ... : ... .. . ... ... : ... .. . ... ... : ... .. . ... ... : ... .. . ... ...
ROW 15 : F-2 00 F P80 V01 ... : C-3 00 F P80 ... ... : ... .. . ... : ... .. 0 ... : ... .. . ... ... : F#3 01 A ... ... : F#4 01 A ... ... : ... .. . ... ...
ROW 16 : ... .. E ... ... ... : ... .. E ... ... ... : ... .. . ... : ... .. . ... : ... .. . ... ... : ... .. 9 ... ... : ... .. 9 ... ... : ... .. . ... ...
ROW 17 : ... .. D ... ... ... : ... .. D ... ... ... : ... .. . ... : ... .. . ... : ... .. . ... ... : ... .. . ... ... : ... .. . ... ... : ... .. . ... ...
ROW 18 : ... .. 0 ... V00 ... : ... .. 0 ... ... ... : ... .. . ... : ... .. . ... : ... .. . ... ... : --- .. . P7F ... : --- .. . ... ... : ... .. . ... ...
ROW 19 : ... .. . ... ... ... : ... .. . ... ... ... : ... .. . ... : ... .. . ... : ... .. . ... ... : ... .. . ... ... : ... .. . ... ... : ... .. . ... ...
ROW 1A : A#2 00 F P80 V01 ... : F-3 00 F P80 ... ... : A#2 00 . ... : D-# 00 F ... : ... .. . ... ... : A#3 01 A P80 ... : A#4 01 A ... ... : ... .. . ... ...
ROW 1B : ... .. E ... ... ... : ... .. E ... ... ... : ... .. . ... : ... .. C ... : ... .. . ... ... : ... .. 9 ... ... : ... .. 9 ... ... : ... .. . ... ...
ROW 1C : ... .. D ... ... ... : ... .. D ... ... ... : ... .. . ... : ... .. 6 ... : ... .. . ... ... : ... .. . ... ... : ... .. . ... ... : ... .. . ... ...
ROW 1D : ... .. 0 ... V00 ... : ... .. 0 ... ... ... : --- .. . ... : ... .. 3 ... : ... .. . ... ... : --- .. . ... ... : --- .. . ... ... : ... .. . ... ...
ROW 1E : ... .. . ... ... ... : ... .. . ... ... ... : ... .. . ... : ... .. 2 ... : ... .. . ... ... : ... .. . ... ... : ... .. . ... ... : ... .. . ... ...
ROW 1F : B-2 00 F P80 V01 ... : F#3 00 F P80 ... ... : B-2 00 . ... : ... .. F ... : ... .. . ... ... : B-3 01 A ... ... : B-4 01 A ... ... : ... .. . ... ...
ROW 20 : ... .. E ... ... ... : ... .. E ... ... ... : ... .. . ... : ... .. C ... : ... .. . ... ... : ... .. 9 ... ... : ... .. 9 ... ... : ... .. . ... ...
ROW 21 : ... .. D ... ... ... : ... .. D ... ... ... : ... .. . ... : ... .. 6 ... : ... .. . ... ... : ... .. . ... ... : ... .. . ... ... : ... .. . ... ...
ROW 22 : ... .. 0 ... V00 ... : ... .. 0 ... ... ... : --- .. . ... : ... .. 3 ... : ... .. . ... ... : --- .. . ... ... : --- .. . ... ... : ... .. . ... ...
ROW 23 : ... .. . ... ... ... : ... .. . ... ... ... : ... .. . ... : ... .. 2 ... : ... .. . ... ... : ... .. . ... ... : ... .. . ... ... : ... .. . ... ...
ROW 24 : C-3 00 F P80 V01 ... : G-3 00 F P80 ... ... : C-3 00 . ... : 6-# 00 F ... : ... .. . ... ... : C-4 01 A ... ... : C-5 01 A ... ... : ... .. . ... ...
ROW 25 : ... .. E ... ... ... : ... .. E ... ... ... : ... .. . ... : ... .. C ... : ... .. . ... ... : ... .. 9 ... ... : ... .. 9 ... ... : ... .. . ... ...
ROW 26 : ... .. D ... ... ... : ... .. D ... ... ... : ... .. . ... : ... .. 6 ... : ... .. . ... ... : ... .. . ... ... : ... .. . ... ... : ... .. . ... ...
ROW 27 : ... .. A ... ... ... : ... .. A ... ... ... : ... .. . ... : ... .. 3 ... : ... .. . ... ... : --- .. . ... ... : --- .. . ... ... : ... .. . ... ...
ROW 28 : ... .. . ... ... ... : ... .. . ... ... ... : ... .. . ... : ... .. 2 ... : ... .. . ... ... : ... .. . ... ... : ... .. . ... ... : ... .. . ... ...
ROW 29 : D#3 00 F ... ... ... : A#3 00 F ... ... ... : D#3 00 . ... : ... .. 0 ... : ... .. . ... ... : D#4 01 A ... ... : D#5 01 A ... ... : ... .. . ... ...
ROW 2A : ... .. E ... ... ... : ... .. E ... ... ... : ... .. . ... : ... .. . ... : ... .. . ... ... : ... .. 9 ... ... : ... .. 9 ... ... : ... .. . ... ...
ROW 2B : ... .. D ... ... ... : ... .. D ... ... ... : ... .. . ... : ... .. . ... : ... .. . ... ... : ... .. . ... ... : ... .. . ... ... : ... .. . ... ...
ROW 2C : ... .. 0 ... V00 ... : ... .. 0 ... ... ... : ... .. . ... : ... .. . ... : ... .. . ... ... : --- .. . ... ... : --- .. . ... ... : ... .. . ... ...
ROW 2D : ... .. . ... ... ... : ... .. . ... ... ... : ... .. . ... : ... .. . ... : ... .. . ... ... : ... .. . ... ... : ... .. . ... ... : ... .. . ... ...
ROW 2E : C-3 00 F P80 V01 ... : G-3 00 F P80 ... ... : C-3 00 . ... : D-# 00 F ... : ... .. . ... ... : C-4 01 A ... ... : C-5 01 A ... ... : ... .. . ... ...
ROW 2F : ... .. E ... ... ... : ... .. E ... ... ... : ... .. . ... : ... .. C ... : ... .. . ... ... : ... .. 9 ... ... : ... .. 9 ... ... : ... .. . ... ...
ROW 30 : ... .. D ... ... ... : ... .. D ... ... ... : ... .. . ... : ... .. 6 ... : ... .. . ... ... : ... .. . ... ... : ... .. . ... ... : ... .. . ... ...
ROW 31 : ... .. 0 ... V00 ... : ... .. 0 ... ... ... : --- .. . ... : ... .. 3 ... : ... .. . ... ... : --- .. . ... ... : --- .. . ... ... : ... .. . ... ...
ROW 32 : ... .. . ... ... ... : ... .. . ... ... ... : ... .. . ... : ... .. 2 ... : ... .. . ... ... : ... .. . ... ... : ... .. . ... ... : ... .. . ... ...
ROW 33 : F-3 00 F P80 V01 ... : C-4 00 F P80 ... ... : F-3 00 . ... : ... .. 0 ... : ... .. . ... ... : F-4 01 A ... ... : F-5 01 A ... ... : ... .. . ... ...
ROW 34 : ... .. E ... ... ... : ... .. E ... ... ... : ... .. . ... : ... .. . ... : ... .. . ... ... : ... .. 9 ... ... : ... .. 9 ... ... : ... .. . ... ...
ROW 35 : ... .. D ... ... ... : ... .. D ... ... ... : ... .. . ... : ... .. . ... : ... .. . ... ... : ... .. . ... ... : ... .. . ... ... : ... .. . ... ...
ROW 36 : ... .. A ... ... ... : ... .. A ... ... ... : ... .. . ... : ... .. . ... : ... .. . ... ... : --- .. . ... ... : --- .. . ... ... : ... .. . ... ...
ROW 37 : ... .. . ... ... ... : ... .. . ... ... ... : ... .. . ... : ... .. . ... : ... .. . ... ... : ... .. . ... ... : ... .. . ... ... : ... .. . ... ...
ROW 38 : C-3 00 4 ... ... ... : G-3 00 4 ... ... ... : ... .. . ... : 3-# 00 F ... : ... .. . ... ... : G#4 01 A ... ... : G#5 01 A ... ... : ... .. . ... ...
ROW 39 : G-3 00 3 ... ... ... : D-4 00 3 ... ... ... : ... .. . ... : ... .. C ... : ... .. . ... ... : ... .. 9 ... ... : ... .. 9 ... ... : ... .. . ... ...
ROW 3A : A-3 00 3 ... ... ... : E-4 00 3 ... ... ... : ... .. . ... : ... .. 6 ... : ... .. . ... ... : ... .. . ... ... : ... .. . ... ... : ... .. . ... ...
ROW 3B : ... .. 0 ... V00 ... : ... .. 0 ... ... ... : ... .. . ... : ... .. 3 ... : ... .. . ... ... : --- .. . ... ... : --- .. . ... ... : ... .. . ... ...
ROW 3C : ... .. . ... ... ... : ... .. . ... ... ... : ... .. . ... : ... .. 2 ... : ... .. . ... ... : ... .. . ... ... : ... .. . ... ... : ... .. . ... ...
ROW 3D : A#3 00 4 P80 V01 ... : F-4 00 4 P80 ... ... : ... .. . ... : ... .. 0 ... : ... .. . ... ... : G-4 01 A ... ... : G-5 01 A ... ... : ... .. . ... ...
ROW 3E : C#3 00 3 ... ... ... : G#3 00 3 ... ... ... : ... .. . ... : ... .. . ... : ... .. . ... ... : ... .. 9 ... ... : ... .. 9 ... ... : ... .. . ... ...
ROW 3F : G#3 00 3 ... ... ... : D#4 00 3 ... ... ... : ... .. . ... : ... .. . ... : ... .. . ... ... : ... .. . ... ... : ... .. . ... ... : ... .. . ... ...
ROW 40 : ... .. 0 ... V00 ... : ... .. 0 ... ... ... : ... .. . ... : ... .. . ... : ... .. . ... ... : --- .. . ... ... : --- .. . ... ... : ... .. . ... ...
ROW 41 : ... .. . ... ... ... : ... .. . ... ... ... : ... .. . ... : ... .. . ... : ... .. . ... ... : ... .. . ... ... : ... .. . ... ... : ... .. . ... ...
ROW 42 : A-3 00 5 P80 V01 ... : E-4 00 5 P80 ... ... : E-3 00 . P83 : ... .. . ... : ... .. . ... ... : F#4 01 A ... ... : F#5 01 A ... ... : ... .. . ... ...
ROW 43 : B-3 00 4 ... ... ... : F#4 00 4 ... ... ... : D#3 00 . P88 : ... .. . ... : ... .. . ... ... : ... .. 9 ... ... : ... .. 9 ... ... : ... .. . ... ...
ROW 44 : D-3 00 4 ... ... ... : A-3 00 4 ... ... ... : ... .. . P78 : ... .. . ... : ... .. . ... ... : ... .. . ... ... : ... .. . ... ... : ... .. . ... ...
ROW 45 : ... .. 0 ... V00 ... : ... .. 0 ... ... ... : D-3 00 . P7D : ... .. . ... : ... .. . ... ... : --- .. . ... ... : --- .. . ... ... : ... .. . ... ...
ROW 46 : ... .. . ... ... ... : ... .. . ... ... ... : C#3 00 . P84 : ... .. . ... : ... .. . ... ... : ... .. . ... ... : ... .. . ... ... : ... .. . ... ...
ROW 47 : D#3 00 6 P80 V01 ... : A#3 00 6 P80 ... ... : C-3 00 . P8C : ... .. . ... : ... .. . ... ... : F-4 01 A ... ... : F-5 01 A ... ... : ... .. . ... ...
ROW 48 : A#3 00 5 ... ... ... : F-4 00 5 ... ... ... : ... .. . P7C : ... .. . ... : ... .. . ... ... : ... .. 9 ... ... : ... .. 9 ... ... : ... .. . ... ...
ROW 49 : C-4 00 5 ... ... ... : G-4 00 5 ... ... ... : B-2 00 . P85 : ... .. . ... : ... .. . ... ... : ... .. . ... ... : ... .. . ... ... : ... .. . ... ...
ROW 4A : ... .. 0 ... V00 ... : ... .. 0 ... ... ... : ... .. . P75 : ... .. . ... : ... .. . ... ... : --- .. . ... ... : --- .. . ... ... : ... .. . ... ...
ROW 4B : ... .. . ... ... ... : ... .. . ... ... ... : A#2 00 . P80 : ... .. . ... : ... .. . ... ... : ... .. . ... ... : ... .. . ... ... : ... .. . ... ...
ROW 4C : C#4 00 7 P80 V01 ... : G#4 00 7 P80 ... ... : A-2 00 . P8C : ... .. . ... : ... .. . ... ... : E-4 01 A ... ... : E-5 01 A ... ... : ... .. . ... ...
ROW 4D : E-3 00 6 ... ... ... : B-3 00 6 ... ... ... : ... .. . P7C : ... .. . ... : ... .. . ... ... : ... .. 9 ... ... : ... .. 9 ... ... : ... .. . ... ...
ROW 4E : B-3 00 6 ... ... ... : F#4 00 6 ... ... ... : G#2 00 . P8B : ... .. . ... : ... .. . ... ... : ... .. . ... ... : ... .. . ... ... : ... .. . ... ...
ROW 4F : ... .. 0 ... V00 ... : ... .. 0 ... ... ... : ... .. . P7B : ... .. . ... : ... .. . ... ... : --- .. . ... ... : --- .. . ... ... : ... .. . ... ...
ROW 50 : ... .. . ... ... ... : ... .. . ... ... ... : G-2 00 . P8B : ... .. . ... : ... .. . ... ... : ... .. . ... ... : ... .. . ... ... : ... .. . ... ...
ROW 51 : C-4 00 8 P80 V01 ... : G-4 00 8 P80 ... ... : ... .. . P7B : ... .. . ... : ... .. . ... ... : D#4 01 A ... ... : D#5 01 A ... ... : ... .. . ... ...
ROW 52 : D-4 00 7 ... ... ... : A-4 00 7 ... ... ... : F#2 00 . P8D : ... .. . ... : ... .. . ... ... : ... .. 9 ... ... : ... .. 9 ... ... : ... .. . ... ...
ROW 53 : F-3 00 6 ... ... ... : C-4 00 6 ... ... ... : ... .. . P7D : ... .. . ... : ... .. . ... ... : ... .. . ... ... : ... .. . ... ... : ... .. . ... ...
ROW 54 : ... .. 0 ... V00 ... : ... .. 0 ... ... ... : F-2 00 . P91 : ... .. . ... : ... .. . ... ... : --- .. . ... ... : --- .. . ... ... : ... .. . ... ...
ROW 55 : ... .. . ... ... ... : ... .. . ... ... ... : ... .. . P81 : ... .. . ... : ... .. . ... ... : ... .. . ... ... : ... .. . ... ... : ... .. . ... ...
ROW 56 : F#3 00 9 P80 V01 ... : C#4 00 9 P80 ... ... : ... .. . P71 : ... .. . ... : ... .. . ... ... : D-4 01 A ... ... : D-5 01 A ... ... : ... .. . ... ...
ROW 57 : C#4 00 8 ... ... ... : G#4 00 8 ... ... ... : E-2 00 . P87 : ... .. . ... : ... .. . ... ... : ... .. 9 ... ... : ... .. 9 ... ... : ... .. . ... ...
ROW 58 : D#4 00 7 ... ... ... : A#4 00 7 ... ... ... : ... .. . P77 : ... .. . ... : ... .. . ... ... : ... .. . ... ... : ... .. . ... ... : ... .. . ... ...
ROW 59 : ... .. 0 ... V00 ... : ... .. 0 ... ... ... : D#2 00 . P8F : ... .. . ... : ... .. . ... ... : --- .. . ... ... : --- .. . ... ... : ... .. . ... ...
ROW 5A : ... .. . ... ... ... : ... .. . ... ... ... : ... .. . P7F : ... .. . ... : ... .. . ... ... : ... .. . ... ... : ... .. . ... ... : ... .. . ... ...
ROW 5B : E-4 00 A P80 V01 ... : B-4 00 A P80 ... ... : --- .. . ... : ... .. . ... : ... .. . ... ... : C#4 01 A ... ... : C#5 01 A ... ... : ... .. . ... ...
ROW 5C : G-3 00 9 ... ... ... : D-4 00 9 ... ... ... : ... .. . ... : ... .. . ... : ... .. . ... ... : ... .. 9 ... ... : ... .. 9 ... ... : ... .. . ... ...
ROW 5D : D-4 00 8 ... ... ... : A-4 00 8 ... ... ... : ... .. . ... : ... .. . ... : ... .. . ... ... : ... .. . ... ... : ... .. . ... ... : ... .. . ... ...
ROW 5E : ... .. 0 ... V00 ... : ... .. 0 ... ... ... : ... .. . ... : ... .. . ... : ... .. . ... ... : --- .. . ... ... : --- .. . ... ... : ... .. . ... ...
ROW 5F : ... .. . ... ... ... : ... .. . ... ... ... : ... .. . ... : ... .. . ... : ... .. . ... ... : ... .. . ... ... : ... .. . ... ... : ... .. . ... ...
ROW 60 : F-2 00 F P80 V01 ... : C-3 00 F P80 ... ... : F-3 00 . P80 : ... .. F ... : ... .. . ... ... : F-3 01 A ... ... : F-4 01 A ... ... : ... .. . ... ...
ROW 61 : ... .. E ... ... ... : ... .. E ... ... ... : ... .. . ... : ... .. C ... : ... .. . ... ... : ... .. 9 ... ... : ... .. 9 ... ... : ... .. . ... ...
ROW 62 : ... .. D ... ... ... : ... .. D ... ... ... : ... .. . ... : ... .. 6 ... : ... .. . ... ... : ... .. . ... ... : ... .. . ... ... : ... .. . ... ...
ROW 63 : ... .. 0 ... V00 ... : ... .. 0 ... ... ... : ... .. . ... : ... .. 3 ... : ... .. . ... ... : --- .. . ... ... : --- .. . ... ... : ... .. . ... ...
ROW 64 : ... .. . ... ... ... : ... .. . ... ... ... : ... .. . ... : ... .. 2 ... : ... .. . ... ... : ... .. . ... ... : ... .. . ... ... : ... .. . ... ...
ROW 65 : F-2 00 F P80 V01 ... : C-3 00 F P80 ... ... : --- .. . ... : ... .. 0 ... : ... .. . ... ... : G#2 01 A ... ... : G#3 01 A ... ... : ... .. . ... ...
ROW 66 : ... .. E ... ... ... : ... .. E ... ... ... : ... .. . ... : ... .. . ... : ... .. . ... ... : ... .. 9 ... ... : ... .. 9 ... ... : ... .. . ... ...
ROW 67 : ... .. D ... ... ... : ... .. D ... ... ... : ... .. . ... : ... .. . ... : ... .. . ... ... : ... .. . ... ... : ... .. . ... ... : ... .. . ... ...
ROW 68 : ... .. 0 ... V00 ... : ... .. 0 ... ... ... : ... .. . ... : ... .. . ... : ... .. . ... ... : --- .. . ... ... : --- .. . P83 ... : ... .. . ... ...
ROW 69 : ... .. . ... ... ... : ... .. . ... ... ... : ... .. . ... : ... .. . ... : ... .. . ... ... : ... .. . ... ... : ... .. . ... ... : ... .. . ... ...
ROW 6A : B-2 00 F P80 V01 ... : F#3 00 F P80 ... ... : F-3 00 . ... : D-# 00 F ... : ... .. . ... ... : F-3 01 A ... ... : F-4 01 A P81 ... : ... .. . ... ...
ROW 6B : ... .. E ... ... ... : ... .. E ... ... ... : ... .. . ... : ... .. C ... : ... .. . ... ... : ... .. 9 ... ... : ... .. 9 ... ... : ... .. . ... ...
ROW 6C : ... .. D ... ... ... : ... .. D ... ... ... : ... .. . ... : ... .. 6 ... : ... .. . ... ... : ... .. . ... ... : ... .. . ... ... : ... .. . ... ...
ROW 6D : ... .. A ... ... ... : ... .. A ... ... ... : --- .. . ... : ... .. 3 ... : ... .. . ... ... : --- .. . ... ... : --- .. . ... ... : ... .. . ... ...
ROW 6E : ... .. . ... ... ... : ... .. . ... ... ... : ... .. . ... : ... .. 2 ... : ... .. . ... ... : ... .. . ... ... : ... .. . ... ... : ... .. . ... ...
ROW 6F : ... .. . ... ... ... : ... .. . ... ... ... : G-3 00 . ... : ... .. F ... : ... .. . ... ... : G#2 01 A ... ... : G#3 01 A ... ... : ... .. . ... ...
ROW 70 : ... .. . ... ... ... : ... .. . ... ... ... : ... .. . ... : ... .. C ... : ... .. . ... ... : ... .. 9 ... ... : ... .. 9 ... ... : ... .. . ... ...
ROW 71 : ... .. . ... ... ... : ... .. . ... ... ... : ... .. . ... : ... .. 6 ... : ... .. . ... ... : ... .. . ... ... : ... .. . ... ... : ... .. . ... ...
ROW 72 : ... .. 0 ... V00 ... : ... .. 0 ... ... ... : --- .. . ... : ... .. 3 ... : ... .. . ... ... : --- .. . ... ... : --- .. . P83 ... : ... .. . ... ...
ROW 73 : ... .. . ... ... ... : ... .. . ... ... ... : ... .. . ... : ... .. 2 ... : ... .. . ... ... : ... .. . ... ... : ... .. . ... ... : ... .. . ... ...
ROW 74 : A#2 00 F P80 V01 ... : F-3 00 F P80 ... ... : G#3 00 . ... : 6-# 00 F ... : ... .. . ... ... : F-3 01 A ... ... : F-4 01 A P81 ... : ... .. . ... ...
ROW 75 : ... .. E ... ... ... : ... .. E ... ... ... : ... .. . ... : ... .. C ... : ... .. . ... ... : ... .. 9 ... ... : ... .. 9 ... ... : ... .. . ... ...
ROW 76 : ... .. D ... ... ... : ... .. D ... ... ... : ... .. . ... : ... .. 6 ... : ... .. . ... ... : ... .. . ... ... : ... .. . ... ... : ... .. . ... ...
ROW 77 : ... .. A ... ... ... : ... .. A ... ... ... : ... .. . ... : ... .. 3 ... : ... .. . ... ... : --- .. . ... ... : --- .. . ... ... : ... .. . ... ...
ROW 78 : ... .. . ... ... ... : ... .. . ... ... ... : ... .. . ... : ... .. 2 ... : ... .. . ... ... : ... .. . ... ... : ... .. . ... ... : ... .. . ... ...
ROW 79 : ... .. . ... ... ... : ... .. . ... ... ... : --- .. . ... : ... .. 0 ... : ... .. . ... ... : G#2 01 A ... ... : G#3 01 A ... ... : ... .. . ... ...
ROW 7A : ... .. . ... ... ... : ... .. . ... ... ... : ... .. . ... : ... .. . ... : ... .. . ... ... : ... .. 9 ... ... : ... .. 9 ... ... : ... .. . ... ...
ROW 7B : ... .. . ... ... ... : ... .. . ... ... ... : ... .. . ... : ... .. . ... : ... .. . ... ... : ... .. . ... ... : ... .. . ... ... : ... .. . ... ...
ROW 7C : ... .. 0 ... V00 ... : ... .. 0 ... ... ... : ... .. . ... : ... .. . ... : ... .. . ... ... : --- .. . ... ... : --- .. . P83 ... : ... .. . ... ...
ROW 7D : ... .. . ... ... ... : ... .. . ... ... ... : ... .. . ... : ... .. . ... : ... .. . ... ... : ... .. . ... ... : ... .. . ... ... : ... .. . ... ...
ROW 7E : G#2 00 F P80 V01 ... : D#3 00 F P80 ... ... : G-3 00 . ... : D-# 00 F ... : ... .. . ... ... : F-3 01 A ... ... : F-4 01 A P81 ... : ... .. . ... ...
ROW 7F : ... .. E ... ... ... : ... .. E ... ... ... : ... .. . ... : ... .. C ... : ... .. . ... ... : ... .. 9 ... ... : ... .. 9 ... ... : ... .. . ... ...
ROW 80 : ... .. D ... ... ... : ... .. D ... ... ... : ... .. . ... : ... .. 6 ... : ... .. . ... ... : ... .. . ... ... : ... .. . ... ... : ... .. . ... ...
ROW 81 : ... .. 0 ... V00 ... : ... .. 0 ... ... ... : --- .. . ... : ... .. 3 ... : ... .. . ... ... : --- .. . ... ... : --- .. . ... ... : ... .. . ... ...
ROW 82 : ... .. . ... ... ... : ... .. . ... ... ... : ... .. . ... : ... .. 2 ... : ... .. . ... ... : ... .. . ... ... : ... .. . ... ... : ... .. . ... ...
ROW 83 : F-2 00 F P80 V01 ... : C-3 00 F P80 ... ... : G#3 00 . ... : ... .. F ... : ... .. . ... ... : G#2 01 A ... ... : G#3 01 A ... ... : ... .. . ... ...
ROW 84 : ... .. E ... ... ... : ... .. E ... ... ... : ... .. . ... : ... .. C ... : ... .. . ... ... : ... .. 9 ... ... : ... .. 9 ... ... : ... .. . ... ...
ROW 85 : ... .. D ... ... ... : ... .. D ... ... ... : ... .. . ... : ... .. 6 ... : ... .. . ... ... : ... .. . ... ... : ... .. . ... ... : ... .. . ... ...
ROW 86 : ... .. A ... ... ... : ... .. A ... ... ... : --- .. . ... : ... .. 3 ... : ... .. . ... ... : --- .. . ... ... : --- .. . P83 ... : ... .. . ... ...
ROW 87 : ... .. . ... ... ... : ... .. . ... ... ... : ... .. . ... : ... .. 2 ... : ... .. . ... ... : ... .. . ... ... : ... .. . ... ... : ... .. . ... ...
ROW 88 : ... .. . ... ... ... : ... .. . ... ... ... : B-3 00 . ... : 3-# 00 F ... : ... .. . ... ... : E-3 01 A ... ... : E-4 01 A P81 ... : ... .. . ... ...
ROW 89 : ... .. . ... ... ... : ... .. . ... ... ... : ... .. . ... : ... .. C ... : ... .. . ... ... : ... .. 9 ... ... : ... .. 9 ... ... : ... .. . ... ...
ROW 8A : ... .. . ... ... ... : ... .. . ... ... ... : ... .. . ... : ... .. 6 ... : ... .. . ... ... : ... .. . ... ... : ... .. . ... ... : ... .. . ... ...
ROW 8B : ... .. 0 ... V00 ... : ... .. 0 ... ... ... : ... .. . ... : ... .. 3 ... : ... .. . ... ... : --- .. . P82 ... : --- .. . ... ... : ... .. . ... ...
ROW 8C : ... .. . ... ... ... : ... .. . ... ... ... : ... .. . ... : ... .. 2 ... : ... .. . ... ... : ... .. . ... ... : ... .. . ... ... : ... .. . ... ...
ROW 8D : F-2 00 F P80 V01 ... : C-3 00 F P80 ... ... : --- .. . ... : ... .. 0 ... : ... .. . ... ... : G-2 01 A P80 ... : G-3 01 A ... ... : ... .. . ... ...
ROW 8E : ... .. E ... ... ... : ... .. E ... ... ... : ... .. . ... : ... .. . ... : ... .. . ... ... : ... .. 9 ... ... : ... .. 9 ... ... : ... .. . ... ...
ROW 8F : ... .. D ... ... ... : ... .. D ... ... ... : ... .. . ... : ... .. . ... : ... .. . ... ... : ... .. . ... ... : ... .. . ... ... : ... .. . ... ...
ROW 90 : ... .. 0 ... V00 ... : ... .. 0 ... ... ... : ... .. . ... : ... .. . ... : ... .. . ... ... : --- .. . P81 ... : --- .. . P80 ... : ... .. . ... ...
ROW 91 : ... .. . ... ... ... : ... .. . ... ... ... : ... .. . ... : ... .. . ... : ... .. . ... ... : ... .. . ... ... : ... .. . ... ... : ... .. . ... ...
ROW 92 : B-2 00 F P80 V01 ... : F#3 00 F P80 ... ... : B-3 00 . ... : D-# 00 F ... : ... .. . ... ... : E-3 01 A P80 ... : E-4 01 A P81 ... : ... .. . ... ...
ROW 93 : ... .. E ... ... ... : ... .. E ... ... ... : ... .. . ... : ... .. C ... : ... .. . ... ... : ... .. 9 ... ... : ... .. 9 ... ... : ... .. . ... ...
ROW 94 : ... .. D ... ... ... : ... .. D ... ... ... : ... .. . ... : ... .. 6 ... : ... .. . ... ... : ... .. . ... ... : ... .. . ... ... : ... .. . ... ...
ROW 95 : ... .. A ... ... ... : ... .. A ... ... ... : --- .. . ... : ... .. 3 ... : ... .. . ... ... : --- .. . P82 ... : --- .. . ... ... : ... .. . ... ...
ROW 96 : ... .. . ... ... ... : ... .. . ... ... ... : ... .. . ... : ... .. 2 ... : ... .. . ... ... : ... .. . ... ... : ... .. . ... ... : ... .. . ... ...
ROW 97 : ... .. . ... ... ... : ... .. . ... ... ... : A#3 00 . ... : ... .. F ... : ... .. . ... ... : G-2 01 A P80 ... : G-3 01 A ... ... : ... .. . ... ...
ROW 98 : ... .. . ... ... ... : ... .. . ... ... ... : ... .. . ... : ... .. C ... : ... .. . ... ... : ... .. 9 ... ... : ... .. 9 ... ... : ... .. . ... ...
ROW 99 : ... .. . ... ... ... : ... .. . ... ... ... : ... .. . ... : ... .. 6 ... : ... .. . ... ... : ... .. . ... ... : ... .. . ... ... : ... .. . ... ...
ROW 9A : ... .. 0 ... V00 ... : ... .. 0 ... ... ... : --- .. . ... : ... .. 3 ... : ... .. . ... ... : --- .. . P81 ... : --- .. . P80 ... : ... .. . ... ...
ROW 9B : ... .. . ... ... ... : ... .. . ... ... ... : ... .. . ... : ... .. 2 ... : ... .. . ... ... : ... .. . ... ... : ... .. . ... ... : ... .. . ... ...
ROW 9C : A#2 00 F P80 V01 ... : F-3 00 F P80 ... ... : G#3 00 . ... : 6-# 00 F ... : ... .. . ... ... : E-3 01 A P80 ... : E-4 01 A P81 ... : ... .. . ... ...
ROW 9D : ... .. E ... ... ... : ... .. E ... ... ... : ... .. . ... : ... .. C ... : ... .. . ... ... : ... .. 9 ... ... : ... .. 9 ... ... : ... .. . ... ...
ROW 9E : ... .. D ... ... ... : ... .. D ... ... ... : ... .. . ... : ... .. 6 ... : ... .. . ... ... : ... .. . ... ... : ... .. . ... ... : ... .. . ... ...
ROW 9F : ... .. A ... ... ... : ... .. A ... ... ... : --- .. . ... : ... .. 3 ... : ... .. . ... ... : --- .. . P82 ... : --- .. . ... ... : ... .. . ... ...
ROW A0 : ... .. . ... ... ... : ... .. . ... ... ... : ... .. . ... : ... .. 2 ... : ... .. . ... ... : ... .. . ... ... : ... .. . ... ... : ... .. . ... ...
ROW A1 : ... .. . ... ... ... : ... .. . ... ... ... : G-3 00 . ... : ... .. 0 ... : ... .. . ... ... : G-2 01 A P80 ... : G-3 01 A ... ... : ... .. . ... ...
ROW A2 : ... .. . ... ... ... : ... .. . ... ... ... : ... .. . ... : ... .. . ... : ... .. . ... ... : ... .. 9 ... ... : ... .. 9 ... ... : ... .. . ... ...
ROW A3 : ... .. . ... ... ... : ... .. . ... ... ... : ... .. . ... : ... .. . ... : ... .. . ... ... : ... .. . ... ... : ... .. . ... ... : ... .. . ... ...
ROW A4 : ... .. 0 ... V00 ... : ... .. 0 ... ... ... : --- .. . ... : ... .. . ... : ... .. . ... ... : --- .. . P81 ... : --- .. . P80 ... : ... .. . ... ...
ROW A5 : ... .. . ... ... ... : ... .. . ... ... ... : ... .. . ... : ... .. . ... : ... .. . ... ... : ... .. . ... ... : ... .. . ... ... : ... .. . ... ...
ROW A6 : G#2 00 F P80 V01 ... : D#3 00 F P80 ... ... : G#3 00 . ... : D-# 00 F ... : ... .. . ... ... : E-3 01 A P80 ... : E-4 01 A P81 ... : ... .. . ... ...
ROW A7 : ... .. E ... ... ... : ... .. E ... ... ... : ... .. . ... : ... .. C ... : ... .. . ... ... : ... .. 9 ... ... : ... .. 9 ... ... : ... .. . ... ...
ROW A8 : ... .. D ... ... ... : ... .. D ... ... ... : ... .. . ... : ... .. 6 ... : ... .. . ... ... : ... .. . ... ... : ... .. . ... ... : ... .. . ... ...
ROW A9 : ... .. A ... ... ... : ... .. A ... ... ... : --- .. . ... : ... .. 3 ... : ... .. . ... ... : --- .. . P82 ... : --- .. . ... ... : ... .. . ... ...
ROW AA : ... .. . ... ... ... : ... .. . ... ... ... : ... .. . ... : ... .. 2 ... : ... .. . ... ... : ... .. . ... ... : ... .. . ... ... : ... .. . ... ...
ROW AB : ... .. . ... ... ... : ... .. . ... ... ... : G-3 00 . ... : ... .. 0 ... : ... .. . ... ... : G-2 01 A P80 ... : G-3 01 A ... ... : ... .. . ... ...
ROW AC : ... .. . ... ... ... : ... .. . ... ... ... : ... .. . ... : ... .. . ... : ... .. . ... ... : ... .. 9 ... ... : ... .. 9 ... ... : ... .. . ... ...
ROW AD : ... .. . ... ... ... : ... .. . ... ... ... : ... .. . ... : ... .. . ... : ... .. . ... ... : ... .. . ... ... : ... .. . ... ... : ... .. . ... ...
ROW AE : ... .. 0 ... V00 ... : ... .. 0 ... ... ... : --- .. . ... : ... .. . ... : ... .. . ... ... : --- .. . P81 ... : --- .. . P80 ... : ... .. . ... ...
ROW AF : ... .. . ... ... ... : ... .. . ... ... ... : ... .. . ... : ... .. . ... : ... .. . ... ... : ... .. . ... ... : ... .. . ... ... : ... .. . ... ...
ROW B0 : F-2 00 F P80 V01 ... : C-3 00 F P80 ... ... : F-3 00 . ... : 3-# 00 F ... : ... .. . ... ... : D#3 01 A P80 ... : D#4 01 A P81 ... : ... .. . ... ...
ROW B1 : ... .. E ... ... ... : ... .. E ... ... ... : ... .. . ... : ... .. C ... : ... .. . ... ... : ... .. 9 ... ... : ... .. 9 ... ... : ... .. . ... ...
ROW B2 : ... .. D ... ... ... : ... .. D ... ... ... : ... .. . ... : ... .. 6 ... : ... .. . ... ... : ... .. . ... ... : ... .. . ... ... : ... .. . ... ...
ROW B3 : ... .. 0 ... V00 ... : ... .. 0 ... ... ... : ... .. . ... : ... .. 3 ... : ... .. . ... ... : --- .. . P83 ... : --- .. . ... ... : ... .. . ... ...
ROW B4 : ... .. . ... ... ... : ... .. . ... ... ... : ... .. . ... : ... .. 2 ... : ... .. . ... ... : ... .. . ... ... : ... .. . ... ... : ... .. . ... ...
ROW B5 : F-2 00 F P80 V01 ... : C-3 00 F P80 ... ... : --- .. . ... : ... .. 0 ... : ... .. . ... ... : F#2 01 A P80 ... : F#3 01 A ... ... : ... .. . ... ...
ROW B6 : ... .. E ... ... ... : ... .. E ... ... ... : ... .. . ... : ... .. . ... : ... .. . ... ... : ... .. 9 ... ... : ... .. 9 ... ... : ... .. . ... ...
ROW B7 : ... .. D ... ... ... : ... .. D ... ... ... : ... .. . ... : ... .. . ... : ... .. . ... ... : ... .. . ... ... : ... .. . ... ... : ... .. . ... ...
ROW B8 : ... .. 0 ... V00 ... : ... .. 0 ... ... ... : ... .. . ... : ... .. . ... : ... .. . ... ... : --- .. . P82 ... : --- .. . P80 ... : ... .. . ... ...
ROW B9 : ... .. . ... ... ... : ... .. . ... ... ... : ... .. . ... : ... .. . ... : ... .. . ... ... : ... .. . ... ... : ... .. . ... ... : ... .. . ... ...
ROW BA : B-2 00 F P80 V01 ... : F#3 00 F P80 ... ... : F-3 00 . ... : D-# 00 F ... : ... .. . ... ... : D#3 01 A P80 ... : D#4 01 A P81 ... : ... .. . ... ...
ROW BB : ... .. E ... ... ... : ... .. E ... ... ... : ... .. . ... : ... .. C ... : ... .. . ... ... : ... .. 9 ... ... : ... .. 9 ... ... : ... .. . ... ...
ROW BC : ... .. D ... ... ... : ... .. D ... ... ... : ... .. . ... : ... .. 6 ... : ... .. . ... ... : ... .. . ... ... : ... .. . ... ... : ... .. . ... ...
ROW BD : ... .. A ... ... ... : ... .. A ... ... ... : --- .. . ... : ... .. 3 ... : ... .. . ... ... : --- .. . P83 ... : --- .. . ... ... : ... .. . ... ...
ROW BE : ... .. . ... ... ... : ... .. . ... ... ... : ... .. . ... : ... .. 2 ... : ... .. . ... ... : ... .. . ... ... : ... .. . ... ... : ... .. . ... ...
ROW BF : ... .. . ... ... ... : ... .. . ... ... ... : G-3 00 . ... : ... .. F ... : ... .. . ... ... : F#2 01 A P80 ... : F#3 01 A ... ... : ... .. . ... ...
ROW C0 : ... .. . ... ... ... : ... .. . ... ... ... : ... .. . ... : ... .. C ... : ... .. . ... ... : ... .. 9 ... ... : ... .. 9 ... ... : ... .. . ... ...
ROW C1 : ... .. . ... ... ... : ... .. . ... ... ... : ... .. . ... : ... .. 6 ... : ... .. . ... ... : ... .. . ... ... : ... .. . ... ... : ... .. . ... ...
ROW C2 : ... .. 0 ... V00 ... : ... .. 0 ... ... ... : --- .. . ... : ... .. 3 ... : ... .. . ... ... : --- .. . P82 ... : --- .. . P80 ... : ... .. . ... ...
ROW C3 : ... .. . ... ... ... : ... .. . ... ... ... : ... .. . ... : ... .. 2 ... : ... .. . ... ... : ... .. . ... ... : ... .. . ... ... : ... .. . ... ...
ROW C4 : A#2 00 F P80 V01 ... : F-3 00 F P80 ... ... : G#3 00 . ... : 6-# 00 F ... : ... .. . ... ... : D#3 01 A P80 ... : D#4 01 A P81 ... : ... .. . ... ...
ROW C5 : ... .. E ... ... ... : ... .. E ... ... ... : ... .. . ... : ... .. C ... : ... .. . ... ... : ... .. 9 ... ... : ... .. 9 ... ... : ... .. . ... ...
ROW C6 : ... .. D ... ... ... : ... .. D ... ... ... : ... .. . ... : ... .. 6 ... : ... .. . ... ... : ... .. . ... ... : ... .. . ... ... : ... .. . ... ...
ROW C7 : ... .. A ... ... ... : ... .. A ... ... ... : ... .. . ... : ... .. 3 ... : ... .. . ... ... : --- .. . P83 ... : --- .. . ... ... : ... .. . ... ...
ROW C8 : ... .. . ... ... ... : ... .. . ... ... ... : ... .. . ... : ... .. 2 ... : ... .. . ... ... : ... .. . ... ... : ... .. . ... ... : ... .. . ... ...
ROW C9 : ... .. . ... ... ... : ... .. . ... ... ... : --- .. . ... : ... .. 0 ... : ... .. . ... ... : F#2 01 A P80 ... : F#3 01 A ... ... : ... .. . ... ...
ROW CA : ... .. . ... ... ... : ... .. . ... ... ... : ... .. . ... : ... .. . ... : ... .. . ... ... : ... .. 9 ... ... : ... .. 9 ... ... : ... .. . ... ...
ROW CB : ... .. . ... ... ... : ... .. . ... ... ... : ... .. . ... : ... .. . ... : ... .. . ... ... : ... .. . ... ... : ... .. . ... ... : ... .. . ... ...
ROW CC : ... .. 0 ... V00 ... : ... .. 0 ... ... ... : ... .. . ... : ... .. . ... : ... .. . ... ... : --- .. . P82 ... : --- .. . P80 ... : ... .. . ... ...
ROW CD : ... .. . ... ... ... : ... .. . ... ... ... : ... .. . ... : ... .. . ... : ... .. . ... ... : ... .. . ... ... : ... .. . ... ... : ... .. . ... ...
ROW CE : G#2 00 F P80 V01 ... : D#3 00 F P80 ... ... : G-3 00 . ... : D-# 00 F ... : ... .. . ... ... : D#3 01 A P80 ... : D#4 01 A P81 ... : ... .. . ... ...
ROW CF : ... .. E ... ... ... : ... .. E ... ... ... : ... .. . ... : ... .. C ... : ... .. . ... ... : ... .. 9 ... ... : ... .. 9 ... ... : ... .. . ... ...
ROW D0 : ... .. D ... ... ... : ... .. D ... ... ... : ... .. . ... : ... .. 6 ... : ... .. . ... ... : ... .. . ... ... : ... .. . ... ... : ... .. . ... ...
ROW D1 : ... .. 0 ... V00 ... : ... .. 0 ... ... ... : --- .. . ... : ... .. 3 ... : ... .. . ... ... : --- .. . P83 ... : --- .. . ... ... : ... .. . ... ...
ROW D2 : ... .. . ... ... ... : ... .. . ... ... ... : ... .. . ... : ... .. 2 ... : ... .. . ... ... : ... .. . ... ... : ... .. . ... ... : ... .. . ... ...
ROW D3 : F-2 00 F P80 V01 ... : C-3 00 F P80 ... ... : G#3 00 . ... : ... .. 0 ... : ... .. . ... ... : F#2 01 A P80 ... : F#3 01 A ... ... : ... .. . ... ...
ROW D4 : ... .. E ... ... ... : ... .. E ... ... ... : ... .. . ... : ... .. . ... : ... .. . ... ... : ... .. 9 ... ... : ... .. 9 ... ... : ... .. . ... ...
ROW D5 : ... .. D ... ... ... : ... .. D ... ... ... : ... .. . ... : ... .. . ... : ... .. . ... ... : ... .. . ... ... : ... .. . ... ... : ... .. . ... ...
ROW D6 : ... .. A ... ... ... : ... .. A ... ... ... : --- .. . ... : ... .. . ... : ... .. . ... ... : --- .. . P82 ... : --- .. . P80 ... : ... .. . ... ...
ROW D7 : ... .. . ... ... ... : ... .. . ... ... ... : ... .. . ... : ... .. . ... : ... .. . ... ... : ... .. . ... ... : ... .. . ... ... : ... .. . ... ...
ROW D8 : ... .. . ... ... ... : ... .. . ... ... ... : B-3 00 . ... : 3-# 00 F ... : ... .. . ... ... : D-3 01 A P80 ... : D-4 01 A P81 ... : ... .. . ... ...
ROW D9 : ... .. . ... ... ... : ... .. . ... ... ... : ... .. . ... : ... .. C ... : ... .. . ... ... : ... .. 9 ... ... : ... .. 9 ... ... : ... .. . ... ...
ROW DA : ... .. . ... ... ... : ... .. . ... ... ... : ... .. . ... : ... .. 6 ... : ... .. . ... ... : ... .. . ... ... : ... .. . ... ... : ... .. . ... ...
ROW DB : ... .. 0 ... V00 ... : ... .. 0 ... ... ... : ... .. . ... : ... .. 3 ... : ... .. . ... ... : --- .. . P82 ... : --- .. . ... ... : ... .. . ... ...
ROW DC : ... .. . ... ... ... : ... .. . ... ... ... : ... .. . ... : ... .. 2 ... : ... .. . ... ... : ... .. . ... ... : ... .. . ... ... : ... .. . ... ...
ROW DD : F-4 00 F P80 V01 ... : C-5 00 F P80 ... ... : ... .. . ... : ... .. 0 ... : ... .. . ... ... : F-2 01 A P80 ... : F-3 01 A ... ... : ... .. . ... ...
ROW DE : ... .. E ... ... ... : ... .. E ... ... ... : ... .. . ... : ... .. . ... : ... .. . ... ... : ... .. 9 ... ... : ... .. 9 ... ... : ... .. . ... ...
ROW DF : ... .. D ... ... ... : ... .. D ... ... ... : ... .. . ... : ... .. . ... : ... .. . ... ... : ... .. . ... ... : ... .. . ... ... : ... .. . ... ...
ROW E0 : ... .. 0 ... V00 ... : ... .. 0 ... ... ... : ... .. . ... : ... .. . ... : ... .. . ... ... : --- .. . P7E ... : --- .. . ... ... : ... .. . ... ...
ROW E1 : ... .. . ... ... ... : ... .. . ... ... ... : ... .. . ... : ... .. . ... : ... .. . ... ... : ... .. . ... ... : ... .. . ... ... : ... .. . ... ...
ROW E2 : E-4 00 F P80 V01 ... : B-4 00 F P80 ... ... : G-4 00 . ... : D-# 00 F ... : ... .. . ... ... : D-3 01 A P80 ... : D-4 01 A ... ... : ... .. . ... ...
ROW E3 : ... .. E ... ... ... : ... .. E ... ... ... : A-4 00 . P7F : ... .. C ... : ... .. . ... ... : ... .. 9 ... ... : ... .. 9 ... ... : ... .. . ... ...
ROW E4 : ... .. D ... ... ... : ... .. D ... ... ... : B-4 00 . P80 : ... .. 6 ... : ... .. . ... ... : ... .. . ... ... : ... .. . ... ... : ... .. . ... ...
ROW E5 : ... .. 0 ... V00 ... : ... .. 0 ... ... ... : C#5 00 . P83 : ... .. 3 ... : ... .. . ... ... : --- .. . P82 ... : --- .. . ... ... : ... .. . ... ...
ROW E6 : ... .. . ... ... ... : ... .. . ... ... ... : D#5 00 . P80 : ... .. 2 ... : ... .. . ... ... : ... .. . ... ... : ... .. . ... ... : ... .. . ... ...
ROW E7 : D#4 00 F P80 V01 ... : A#4 00 F P80 ... ... : ... .. . ... : ... .. F ... : ... .. . ... ... : F-2 01 A P80 ... : F-3 01 A ... ... : ... .. . ... ...
ROW E8 : ... .. E ... ... ... : ... .. E ... ... ... : ... .. . ... : ... .. C ... : ... .. . ... ... : ... .. 9 ... ... : ... .. 9 ... ... : ... .. . ... ...
ROW E9 : ... .. D ... ... ... : ... .. D ... ... ... : ... .. . ... : ... .. 6 ... : ... .. . ... ... : ... .. . ... ... : ... .. . ... ... : ... .. . ... ...
ROW EA : ... .. 0 ... V00 ... : ... .. 0 ... ... ... : ... .. . ... : ... .. 3 ... : ... .. . ... ... : --- .. . P7E ... : --- .. . ... ... : ... .. . ... ...
ROW EB : ... .. . ... ... ... : ... .. . ... ... ... : ... .. . ... : ... .. 2 ... : ... .. . ... ... : ... .. . ... ... : ... .. . ... ... : ... .. . ... ...
ROW EC : D-4 00 F P80 V01 ... : A-4 00 F P80 ... ... : G#3 00 . ... : 6-# 00 F ... : ... .. . ... ... : D-3 01 A P80 ... : D-4 01 A ... ... : ... .. . ... ...
ROW ED : ... .. E ... ... ... : ... .. E ... ... ... : ... .. . ... : ... .. C ... : ... .. . ... ... : ... .. 9 ... ... : ... .. 9 ... ... : ... .. . ... ...
ROW EE : ... .. D ... ... ... : ... .. D ... ... ... : ... .. . ... : ... .. 6 ... : ... .. . ... ... : ... .. . ... ... : ... .. . ... ... : ... .. . ... ...
ROW EF : ... .. 0 ... V00 ... : ... .. 0 ... ... ... : ... .. . ... : ... .. 3 ... : ... .. . ... ... : --- .. . P82 ... : --- .. . ... ... : ... .. . ... ...
ROW F0 : ... .. . ... ... ... : ... .. . ... ... ... : ... .. . ... : ... .. 2 ... : ... .. . ... ... : ... .. . ... ... : ... .. . ... ... : ... .. . ... ...
ROW F1 : C#4 00 F P80 V01 ... : G#4 00 F P80 ... ... : F#3 00 . P81 : ... .. 0 ... : ... .. . ... ... : F-2 01 A P80 ... : F-3 01 A ... ... : ... .. . ... ...
ROW F2 : ... .. E ... ... ... : ... .. E ... ... ... : E-3 00 . P86 : ... .. . ... : ... .. . ... ... : ... .. 9 ... ... : ... .. 9 ... ... : ... .. . ... ...
ROW F3 : ... .. D ... ... ... : ... .. D ... ... ... : D#3 00 . P7B : ... .. . ... : ... .. . ... ... : ... .. . ... ... : ... .. . ... ... : ... .. . ... ...
ROW F4 : ... .. 0 ... V00 ... : ... .. 0 ... ... ... : C#3 00 . P87 : ... .. . ... : ... .. . ... ... : --- .. . P7E ... : --- .. . ... ... : ... .. . ... ...
ROW F5 : ... .. . ... ... ... : ... .. . ... ... ... : C-3 00 . P7F : ... .. . ... : ... .. . ... ... : ... .. . ... ... : ... .. . ... ... : ... .. . ... ...
ROW F6 : C-4 00 F P80 V01 ... : G-4 00 F P80 ... ... : B-2 00 . P78 : D-# 00 F ... : ... .. . ... ... : D-3 01 A P80 ... : D-4 01 A ... ... : ... .. . ... ...
ROW F7 : ... .. E ... ... ... : ... .. E ... ... ... : A#2 00 . P73 : ... .. C ... : ... .. . ... ... : ... .. 9 ... ... : ... .. 9 ... ... : ... .. . ... ...
ROW F8 : ... .. D ... ... ... : ... .. D ... ... ... : G#2 00 . P8E : ... .. 6 ... : ... .. . ... ... : ... .. . ... ... : ... .. . ... ... : ... .. . ... ...
ROW F9 : ... .. 0 ... V00 ... : ... .. 0 ... ... ... : G-2 00 . ... : ... .. 3 ... : ... .. . ... ... : --- .. . P82 ... : --- .. . ... ... : ... .. . ... ...
ROW FA : ... .. . ... ... ... : ... .. . ... ... ... : F#2 00 . P90 : ... .. 2 ... : ... .. . ... ... : ... .. . ... ... : ... .. . ... ... : ... .. . ... ...
ROW FB : B-3 00 F P80 V01 ... : F#4 00 F P80 ... ... : ... .. . P70 : ... .. F ... : ... .. . ... ... : F-2 01 A P80 ... : F-3 01 A ... ... : ... .. . ... ...
ROW FC : ... .. E ... ... ... : ... .. E ... ... ... : F-2 00 . P74 : ... .. C ... : ... .. . ... ... : ... .. 9 ... ... : ... .. 9 ... ... : ... .. . ... ...
ROW FD : ... .. D ... ... ... : ... .. D ... ... ... : E-2 00 . P7A : ... .. 6 ... : ... .. . ... ... : ... .. . ... ... : ... .. . ... ... : ... .. . ... ...
ROW FE : ... .. 0 ... V00 ... : ... .. 0 ... ... ... : D#2 00 . P82 : ... .. 3 ... : ... .. . ... ... : --- .. . P7E ... : --- .. . ... ... : ... .. . ... ...
ROW FF : ... .. . ... ... ... : ... .. . ... ... ... : D-2 00 . P8D : ... .. 2 ... : ... .. . ... ... : ... .. . ... ... : ... .. . ... ... : ... .. . ... ...

PATTERN 05
ROW 00 : F-2 00 F P80 V01 ... : C-3 00 F P80 ... ... : F-2 00 . P80 : 3-# 00 F ... : ... .. . ... ... : F-3 01 A P80 ... : F-4 01 A ... ... : ... .. . ... ...
ROW 01 : ... .. E ... ... ... : ... .. E ... ... ... : ... .. . ... : ... .. C ... : ... .. . ... ... : ... .. 9 ... ... : ... .. 9 ... ... : ... .. . ... ...
ROW 02 : ... .. D ... ... ... : ... .. D ... ... ... : ... .. . ... : ... .. 6 ... : ... .. . ... ... : ... .. . ... ... : ... .. . ... ... : ... .. . ... ...
ROW 03 : ... .. 0 ... V00 ... : ... .. 0 ... ... ... : --- .. . ... : ... .. 3 ... : ... .. . ... ... : --- .. . ... ... : --- .. . ... ... : ... .. . ... ...
ROW 04 : ... .. . ... ... ... : ... .. . ... ... ... : ... .. . ... : ... .. 2 ... : ... .. . ... ... : ... .. . ... ... : ... .. . ... ... : ... .. . ... ...
ROW 05 : F-2 00 F P80 V01 ... : C-3 00 F P80 ... ... : F-2 00 . ... : ... .. 0 ... : ... .. . ... ... : G#2 01 A ... ... : G#3 01 A ... ... : ... .. . ... ...
ROW 06 : ... .. E ... ... ... : ... .. E ... ... ... : ... .. . ... : ... .. . ... : ... .. . ... ... : ... .. 9 ... ... : ... .. 9 ... ... : ... .. . ... ...
ROW 07 : ... .. D ... ... ... : ... .. D ... ... ... : ... .. . ... : ... .. . ... : ... .. . ... ... : ... .. . ... ... : ... .. . ... ... : ... .. . ... ...
ROW 08 : ... .. 0 ... V00 ... : ... .. 0 ... ... ... : --- .. . ... : ... .. . ... : ... .. . ... ... : --- .. . ... ... : --- .. . P83 ... : ... .. . ... ...
ROW 09 : ... .. . ... ... ... : ... .. . ... ... ... : ... .. . ... : ... .. . ... : ... .. . ... ... : ... .. . ... ... : ... .. . ... ... : ... .. . ... ...
ROW 0A : B-2 00 F P80 V01 ... : F#3 00 F P80 ... ... : B-2 00 . ... : D-# 00 F ... : ... .. . ... ... : F-3 01 A ... ... : F-4 01 A P81 ... : ... .. . ... ...
ROW 0B : ... .. E ... ... ... : ... .. E ... ... ... : ... .. . ... : ... .. C ... : ... .. . ... ... : ... .. 9 ... ... : ... .. 9 ... ... : ... .. . ... ...
ROW 0C : ... .. D ... ... ... : ... .. D ... ... ... : ... .. . ... : ... .. 6 ... : ... .. . ... ... : ... .. . ... ... : ... .. . ... ... : ... .. . ... ...
ROW 0D : ... .. A ... ... ... : ... .. A ... ... ... : ... .. . ... : ... .. 3 ... : ... .. . ... ... : --- .. . ... ... : --- .. . ... ... : ... .. . ... ...
ROW 0E : ... .. . ... ... ... : ... .. . ... ... ... : ... .. . ... : ... .. 2 ... : ... .. . ... ... : ... .. . ... ... : ... .. . ... ... : ... .. . ... ...
ROW 0F : ... .. . ... ... ... : ... .. . ... ... ... : ... .. . ... : ... .. F ... : ... .. . ... ... : G#2 01 A ... ... : G#3 01 A ... ... : ... .. . ... ...
ROW 10 : ... .. . ... ... ... : ... .. . ... ... ... : ... .. . ... : ... .. C ... : ... .. . ... ... : ... .. 9 ... ... : ... .. 9 ... ... : ... .. . ... ...
ROW 11 : ... .. . ... ... ... : ... .. . ... ... ... : ... .. . ... : ... .. 6 ... : ... .. . ... ... : ... .. . ... ... : ... .. . ... ... : ... .. . ... ...
ROW 12 : ... .. 0 ... V00 ... : ... .. 0 ... ... ... : --- .. . ... : ... .. 3 ... : ... .. . ... ... : --- .. . ... ... : --- .. . P83 ... : ... .. . ... ...
ROW 13 : ... .. . ... ... ... : ... .. . ... ... ... : ... .. . ... : ... .. 2 ... : ... .. . ... ... : ... .. . ... ... : ... .. . ... ... : ... .. . ... ...
ROW 14 : A#2 00 F P80 V01 ... : F-3 00 F P80 ... ... : A#2 00 . ... : 6-# 00 F ... : ... .. . ... ... : F-3 01 A ... ... : F-4 01 A P81 ... : ... .. . ... ...
ROW 15 : ... .. E ... ... ... : ... .. E ... ... ... : ... .. . ... : ... .. C ... : ... .. . ... ... : ... .. 9 ... ... : ... .. 9 ... ... : ... .. . ... ...
ROW 16 : ... .. D ... ... ... : ... .. D ... ... ... : ... .. . ... : ... .. 6 ... : ... .. . ... ... : ... .. . ... ... : ... .. . ... ... : ... .. . ... ...
ROW 17 : ... .. A ... ... ... : ... .. A ... ... ... : ... .. . ... : ... .. 3 ... : ... .. . ... ... : --- .. . ... ... : --- .. . ... ... : ... .. . ... ...
ROW 18 : ... .. . ... ... ... : ... .. . ... ... ... : ... .. . ... : ... .. 2 ... : ... .. . ... ... : ... .. . ... ... : ... .. . ... ... : ... .. . ... ...
ROW 19 : ... .. . ... ... ... : ... .. . ... ... ... : ... .. . ... : ... .. 0 ... : ... .. . ... ... : G#2 01 A ... ... : G#3 01 A ... ... : ... .. . ... ...
ROW 1A : ... .. . ... ... ... : ... .. . ... ... ... : ... .. . ... : ... .. . ... : ... .. . ... ... : ... .. 9 ... ... : ... .. 9 ... ... : ... .. . ... ...
ROW 1B : ... .. . ... ... ... : ... .. . ... ... ... : ... .. . ... : ... .. . ... : ... .. . ... ... : ... .. . ... ... : ... .. . ... ... : ... .. . ... ...
ROW 1C : ... .. 0 ... V00 ... : ... .. 0 ... ... ... : --- .. . ... : ... .. . ... : ... .. . ... ... : --- .. . ... ... : --- .. . P83 ... : ... .. . ... ...
ROW 1D : ... .. . ... ... ... : ... .. . ... ... ... : ... .. . ... : ... .. . ... : ... .. . ... ... : ... .. . ... ... : ... .. . ... ... : ... .. . ... ...
ROW 1E : G#2 00 F P80 V01 ... : D#3 00 F P80 ... ... : G#2 00 . ... : D-# 00 F ... : ... .. . ... ... : F-3 01 A ... ... : F-4 01 A P81 ... : ... .. . ... ...
ROW 1F : ... .. E ... ... ... : ... .. E ... ... ... : ... .. . ... : ... .. C ... : ... .. . ... ... : ... .. 9 ... ... : ... .. 9 ... ... : ... .. . ... ...
ROW 20 : ... .. D ... ... ... : ... .. D ... ... ... : ... .. . ... : ... .. 6 ... : ... .. . ... ... : ... .. . ... ... : ... .. . ... ... : ... .. . ... ...
ROW 21 : ... .. 0 ... V00 ... : ... .. 0 ... ... ... : --- .. . ... : ... .. 3 ... : ... .. . ... ... : --- .. . ... ... : --- .. . ... ... : ... .. . ... ...
ROW 22 : ... .. . ... ... ... : ... .. . ... ... ... : ... .. . ... : ... .. 2 ... : ... .. . ... ... : ... .. . ... ... : ... .. . ... ... : ... .. . ... ...
ROW 23 : F-2 00 F P80 V01 ... : C-3 00 F P80 ... ... : F-2 00 . ... : ... .. 0 ... : ... .. . ... ... : G#2 01 A ... ... : G#3 01 A ... ... : ... .. . ... ...
ROW 24 : ... .. E ... ... ... : ... .. E ... ... ... : ... .. . ... : ... .. . ... : ... .. . ... ... : ... .. 9 ... ... : ... .. 9 ... ... : ... .. . ... ...
ROW 25 : ... .. D ... ... ... : ... .. D ... ... ... : ... .. . ... : ... .. . ... : ... .. . ... ... : ... .. . ... ... : ... .. . ... ... : ... .. . ... ...
ROW 26 : ... .. A ... ... ... : ... .. A ... ... ... : ... .. . ... : ... .. . ... : ... .. . ... ... : --- .. . ... ... : --- .. . P83 ... : ... .. . ... ...
ROW 27 : ... .. . ... ... ... : ... .. . ... ... ... : ... .. . ... : ... .. . ... : ... .. . ... ... : ... .. . ... ... : ... .. . ... ... : ... .. . ... ...
ROW 28 : ... .. . ... ... ... : ... .. . ... ... ... : ... .. . ... : 3-# 00 F ... : ... .. . ... ... : E-3 01 A ... ... : E-4 01 A P81 ... : ... .. . ... ...
ROW 29 : ... .. . ... ... ... : ... .. . ... ... ... : ... .. . ... : ... .. C ... : ... .. . ... ... : ... .. 9 ... ... : ... .. 9 ... ... : ... .. . ... ...
ROW 2A : ... .. . ... ... ... : ... .. . ... ... ... : ... .. . ... : ... .. 6 ... : ... .. . ... ... : ... .. . ... ... : ... .. . ... ... : ... .. . ... ...
ROW 2B : ... .. 0 ... V00 ... : ... .. 0 ... ... ... : --- .. . ... : ... .. 3 ... : ... .. . ... ... : --- .. . P82 ... : --- .. . ... ... : ... .. . ... ...
ROW 2C : ... .. . ... ... ... : ... .. . ... ... ... : ... .. . ... : ... .. 2 ... : ... .. . ... ... : ... .. . ... ... : ... .. . ... ... : ... .. . ... ...
ROW 2D : F-2 00 F P80 V01 ... : C-3 00 F P80 ... ... : F-2 00 . ... : ... .. 0 ... : ... .. . ... ... : G-2 01 A P80 ... : G-3 01 A ... ... : ... .. . ... ...
ROW 2E : ... .. E ... ... ... : ... .. E ... ... ... : ... .. . ... : ... .. . ... : ... .. . ... ... : ... .. 9 ... ... : ... .. 9 ... ... : ... .. . ... ...
ROW 2F : ... .. D ... ... ... : ... .. D ... ... ... : ... .. . ... : ... .. . ... : ... .. . ... ... : ... .. . ... ... : ... .. . ... ... : ... .. . ... ...
ROW 30 : ... .. 0 ... V00 ... : ... .. 0 ... ... ... : --- .. . ... : ... .. . ... : ... .. . ... ... : --- .. . P81 ... : --- .. . P80 ... : ... .. . ... ...
ROW 31 : ... .. . ... ... ... : ... .. . ... ... ... : ... .. . ... : ... .. . ... : ... .. . ... ... : ... .. . ... ... : ... .. . ... ... : ... .. . ... ...
ROW 32 : B-2 00 F P80 V01 ... : F#3 00 F P80 ... ... : B-2 00 . ... : D-# 00 F ... : ... .. . ... ... : E-3 01 A P80 ... : E-4 01 A P81 ... : ... .. . ... ...
ROW 33 : ... .. E ... ... ... : ... .. E ... ... ... : ... .. . ... : ... .. C ... : ... .. . ... ... : ... .. 9 ... ... : ... .. 9 ... ... : ... .. . ... ...
ROW 34 : ... .. D ... ... ... : ... .. D ... ... ... : ... .. . ... : ... .. 6 ... : ... .. . ... ... : ... .. . ... ... : ... .. . ... ... : ... .. . ... ...
ROW 35 : ... .. A ... ... ... : ... .. A ... ... ... : ... .. . ... : ... .. 3 ... : ... .. . ... ... : --- .. . P82 ... : --- .. . ... ... : ... .. . ... ...
ROW 36 : ... .. . ... ... ... : ... .. . ... ... ... : ... .. . ... : ... .. 2 ... : ... .. . ... ... : ... .. . ... ... : ... .. . ... ... : ... .. . ... ...
ROW 37 : ... .. . ... ... ... : ... .. . ... ... ... : ... .. . ... : ... .. F ... : ... .. . ... ... : G-2 01 A P80 ... : G-3 01 A ... ... : ... .. . ... ...
ROW 38 : ... .. . ... ... ... : ... .. . ... ... ... : ... .. . ... : ... .. C ... : ... .. . ... ... : ... .. 9 ... ... : ... .. 9 ... ... : ... .. . ... ...
ROW 39 : ... .. . ... ... ... : ... .. . ... ... ... : ... .. . ... : ... .. 6 ... : ... .. . ... ... : ... .. . ... ... : ... .. . ... ... : ... .. . ... ...
ROW 3A : ... .. 0 ... V00 ... : ... .. 0 ... ... ... : --- .. . ... : ... .. 3 ... : ... .. . ... ... : --- .. . P81 ... : --- .. . P80 ... : ... .. . ... ...
ROW 3B : ... .. . ... ... ... : ... .. . ... ... ... : ... .. . ... : ... .. 2 ... : ... .. . ... ... : ... .. . ... ... : ... .. . ... ... : ... .. . ... ...
ROW 3C : A#2 00 F P80 V01 ... : F-3 00 F P80 ... ... : A#2 00 . ... : 6-# 00 F ... : ... .. . ... ... : E-3 01 A P80 ... : E-4 01 A P81 ... : ... .. . ... ...
ROW 3D : ... .. E ... ... ... : ... .. E ... ... ... : ... .. . ... : ... .. C ... : ... .. . ... ... : ... .. 9 ... ... : ... .. 9 ... ... : ... .. . ... ...
ROW 3E : ... .. D ... ... ... : ... .. D ... ... ... : ... .. . ... : ... .. 6 ... : ... .. . ... ... : ... .. . ... ... : ... .. . ... ... : ... .. . ... ...
ROW 3F : ... .. A ... ... ... : ... .. A ... ... ... : ... .. . ... : ... .. 3 ... : ... .. . ... ... : --- .. . P82 ... : --- .. . ... ... : ... .. . ... ...
ROW 40 : ... .. . ... ... ... : ... .. . ... ... ... : ... .. . ... : ... .. 2 ... : ... .. . ... ... : ... .. . ... ... : ... .. . ... ... : ... .. . ... ...
ROW 41 : ... .. . ... ... ... : ... .. . ... ... ... : ... .. . ... : ... .. 0 ... : ... .. . ... ... : G-2 01 A P80 ... : G-3 01 A ... ... : ... .. . ... ...
ROW 42 : ... .. . ... ... ... : ... .. . ... ... ... : ... .. . ... : ... .. . ... : ... .. . ... ... : ... .. 9 ... ... : ... .. 9 ... ... : ... .. . ... ...
ROW 43 : ... .. . ... ... ... : ... .. . ... ... ... : ... .. . ... : ... .. . ... : ... .. . ... ... : ... .. . ... ... : ... .. . ... ... : ... .. . ... ...
ROW 44 : ... .. 0 ... V00 ... : ... .. 0 ... ... ... : --- .. . ... : ... .. . ... : ... .. . ... ... : --- .. . P81 ... : --- .. . P80 ... : ... .. . ... ...
ROW 45 : ... .. . ... ... ... : ... .. . ... ... ... : ... .. . ... : ... .. . ... : ... .. . ... ... : ... .. . ... ... : ... .. . ... ... : ... .. . ... ...
ROW 46 : G#2 00 F P80 V01 ... : D#3 00 F P80 ... ... : G#2 00 . ... : D-# 00 F ... : ... .. . ... ... : E-3 01 A P80 ... : E-4 01 A P81 ... : ... .. . ... ...
ROW 47 : ... .. E ... ... ... : ... .. E ... ... ... : ... .. . ... : ... .. C ... : ... .. . ... ... : ... .. 9 ... ... : ... .. 9 ... ... : ... .. . ... ...
ROW 48 : ... .. D ... ... ... : ... .. D ... ... ... : ... .. . ... : ... .. 6 ... : ... .. . ... ... : ... .. . ... ... : ... .. . ... ... : ... .. . ... ...
ROW 49 : ... .. A ... ... ... : ... .. A ... ... ... : ... .. . ... : ... .. 3 ... : ... .. . ... ... : --- .. . P82 ... : --- .. . ... ... : ... .. . ... ...
ROW 4A : ... .. . ... ... ... : ... .. . ... ... ... : ... .. . ... : ... .. 2 ... : ... .. . ... ... : ... .. . ... ... : ... .. . ... ... : ... .. . ... ...
ROW 4B : ... .. . ... ... ... : ... .. . ... ... ... : ... .. . ... : ... .. 0 ... : ... .. . ... ... : G-2 01 A P80 ... : G-3 01 A ... ... : ... .. . ... ...
ROW 4C : ... .. . ... ... ... : ... .. . ... ... ... : ... .. . ... : ... .. . ... : ... .. . ... ... : ... .. 9 ... ... : ... .. 9 ... ... : ... .. . ... ...
ROW 4D : ... .. . ... ... ... : ... .. . ... ... ... : ... .. . ... : ... .. . ... : ... .. . ... ... : ... .. . ... ... : ... .. . ... ... : ... .. . ... ...
ROW 4E : ... .. 0 ... V00 ... : ... .. 0 ... ... ... : --- .. . ... : ... .. . ... : ... .. . ... ... : --- .. . P81 ... : --- .. . P80 ... : ... .. . ... ...
ROW 4F : ... .. . ... ... ... : ... .. . ... ... ... : ... .. . ... : ... .. . ... : ... .. . ... ... : ... .. . ... ... : ... .. . ... ... : ... .. . ... ...
ROW 50 : F-2 00 F P80 V01 ... : C-3 00 F P80 ... ... : F-3 00 . ... : 3-# 00 F ... : ... .. . ... ... : D#3 01 A P80 ... : D#4 01 A P81 ... : ... .. . ... ...
ROW 51 : ... .. E ... ... ... : ... .. E ... ... ... : ... .. . ... : ... .. C ... : ... .. . ... ... : ... .. 9 ... ... : ... .. 9 ... ... : ... .. . ... ...
ROW 52 : ... .. D ... ... ... : ... .. D ... ... ... : ... .. . ... : ... .. 6 ... : ... .. . ... ... : ... .. . ... ... : ... .. . ... ... : ... .. . ... ...
ROW 53 : ... .. 0 ... V00 ... : ... .. 0 ... ... ... : ... .. . ... : ... .. 3 ... : ... .. . ... ... : --- .. . P83 ... : --- .. . ... ... : ... .. . ... ...
ROW 54 : ... .. . ... ... ... : ... .. . ... ... ... : ... .. . ... : ... .. 2 ... : ... .. . ... ... : ... .. . ... ... : ... .. . ... ... : ... .. . ... ...
ROW 55 : F-2 00 F P80 V01 ... : C-3 00 F P80 ... ... : ... .. . ... : ... .. 0 ... : ... .. . ... ... : F#2 01 A P80 ... : F#3 01 A ... ... : ... .. . ... ...
ROW 56 : ... .. E ... ... ... : ... .. E ... ... ... : ... .. . ... : ... .. . ... : ... .. . ... ... : ... .. 9 ... ... : ... .. 9 ... ... : ... .. . ... ...
ROW 57 : ... .. D ... ... ... : ... .. D ... ... ... : ... .. . ... : ... .. . ... : ... .. . ... ... : ... .. . ... ... : ... .. . ... ... : ... .. . ... ...
ROW 58 : ... .. 0 ... V00 ... : ... .. 0 ... ... ... : --- .. . ... : ... .. . ... : ... .. . ... ... : --- .. . P82 ... : --- .. . P80 ... : ... .. . ... ...
ROW 59 : ... .. . ... ... ... : ... .. . ... ... ... : ... .. . ... : ... .. . ... : ... .. . ... ... : ... .. . ... ... : ... .. . ... ... : ... .. . ... ...
ROW 5A : A#2 00 F P80 V01 ... : F-3 00 F P80 ... ... : E-3 00 . ... : D-# 00 F ... : ... .. . ... ... : A#2 01 A P80 ... : A#3 01 A P81 ... : ... .. . ... ...
ROW 5B : ... .. E ... ... ... : ... .. E ... ... ... : ... .. . ... : ... .. C ... : ... .. . ... ... : ... .. 9 ... ... : ... .. 9 ... ... : ... .. . ... ...
ROW 5C : ... .. D ... ... ... : ... .. D ... ... ... : ... .. . ... : ... .. 6 ... : ... .. . ... ... : ... .. . ... ... : ... .. . ... ... : ... .. . ... ...
ROW 5D : ... .. 0 ... V00 ... : ... .. 0 ... ... ... : --- .. . ... : ... .. 3 ... : ... .. . ... ... : --- .. . P82 ... : --- .. . ... ... : ... .. . ... ...
ROW 5E : ... .. . ... ... ... : ... .. . ... ... ... : ... .. . ... : ... .. 2 ... : ... .. . ... ... : ... .. . ... ... : ... .. . ... ... : ... .. . ... ...
ROW 5F : B-2 00 F P80 V01 ... : F#3 00 F P80 ... ... : D#3 00 . ... : ... .. F ... : ... .. . ... ... : B-2 01 A P80 ... : B-3 01 A ... ... : ... .. . ... ...
ROW 60 : ... .. E ... ... ... : ... .. E ... ... ... : ... .. . ... : ... .. C ... : ... .. . ... ... : ... .. 9 ... ... : ... .. 9 ... ... : ... .. . ... ...
ROW 61 : ... .. D ... ... ... : ... .. D ... ... ... : ... .. . ... : ... .. 6 ... : ... .. . ... ... : ... .. . ... ... : ... .. . ... ... : ... .. . ... ...
ROW 62 : ... .. 0 ... V00 ... : ... .. 0 ... ... ... : --- .. . ... : ... .. 3 ... : ... .. . ... ... : --- .. . P85 ... : --- .. . ... ... : ... .. . ... ...
ROW 63 : ... .. . ... ... ... : ... .. . ... ... ... : ... .. . ... : ... .. 2 ... : ... .. . ... ... : ... .. . ... ... : ... .. . ... ... : ... .. . ... ...
ROW 64 : C-3 00 F P80 V01 ... : G-3 00 F P80 ... ... : D-3 00 . ... : 6-# 00 F ... : ... .. . ... ... : C-3 01 A P80 ... : C-4 01 A ... ... : ... .. . ... ...
ROW 65 : ... .. E ... ... ... : ... .. E ... ... ... : ... .. . ... : ... .. C ... : ... .. . ... ... : ... .. 9 ... ... : ... .. 9 ... ... : ... .. . ... ...
ROW 66 : ... .. D ... ... ... : ... .. D ... ... ... : ... .. . ... : ... .. 6 ... : ... .. . ... ... : ... .. . ... ... : ... .. . ... ... : ... .. . ... ...
ROW 67 : ... .. A ... ... ... : ... .. A ... ... ... : --- .. . ... : ... .. 3 ... : ... .. . ... ... : --- .. . P7E ... : --- .. . ... ... : ... .. . ... ...
ROW 68 : ... .. . ... ... ... : ... .. . ... ... ... : ... .. . ... : ... .. 2 ... : ... .. . ... ... : ... .. . ... ... : ... .. . ... ... : ... .. . ... ...
ROW 69 : D#3 00 F ... ... ... : A#3 00 F ... ... ... : C#3 00 . ... : ... .. 0 ... : ... .. . ... ... : D#3 01 A P80 ... : D#4 01 A ... ... : ... .. . ... ...
ROW 6A : ... .. E ... ... ... : ... .. E ... ... ... : ... .. . ... : ... .. . ... : ... .. . ... ... : ... .. 9 ... ... : ... .. 9 ... ... : ... .. . ... ...
ROW 6B : ... .. D ... ... ... : ... .. D ... ... ... : ... .. . ... : ... .. . ... : ... .. . ... ... : ... .. . ... ... : ... .. . ... ... : ... .. . ... ...
ROW 6C : ... .. 0 ... V00 ... : ... .. 0 ... ... ... : --- .. . ... : ... .. . ... : ... .. . ... ... : --- .. . P83 ... : --- .. . ... ... : ... .. . ... ...
ROW 6D : ... .. . ... ... ... : ... .. . ... ... ... : ... .. . ... : ... .. . ... : ... .. . ... ... : ... .. . ... ... : ... .. . ... ... : ... .. . ... ...
ROW 6E : C-3 00 F P80 V01 ... : G-3 00 F P80 ... ... : C-3 00 . ... : D-# 00 F ... : ... .. . ... ... : C-3 01 A P80 ... : C-4 01 A ... ... : ... .. . ... ...
ROW 6F : ... .. E ... ... ... : ... .. E ... ... ... : ... .. . ... : ... .. C ... : ... .. . ... ... : ... .. 9 ... ... : ... .. 9 ... ... : ... .. . ... ...
ROW 70 : ... .. D ... ... ... : ... .. D ... ... ... : ... .. . ... : ... .. 6 ... : ... .. . ... ... : ... .. . ... ... : ... .. . ... ... : ... .. . ... ...
ROW 71 : ... .. 0 ... V00 ... : ... .. 0 ... ... ... : --- .. . ... : ... .. 3 ... : ... .. . ... ... : --- .. . P7E ... : --- .. . ... ... : ... .. . ... ...
ROW 72 : ... .. . ... ... ... : ... .. . ... ... ... : ... .. . ... : ... .. 2 ... : ... .. . ... ... : ... .. . ... ... : ... .. . ... ... : ... .. . ... ...
ROW 73 : F-3 00 F P80 V01 ... : C-4 00 F P80 ... ... : F-2 00 . ... : ... .. F ... : ... .. . ... ... : F-3 01 A P80 ... : F-4 01 A ... ... : ... .. . ... ...
ROW 74 : ... .. E ... ... ... : ... .. E ... ... ... : ... .. . ... : ... .. C ... : ... .. . ... ... : ... .. 9 ... ... : ... .. 9 ... ... : ... .. . ... ...
ROW 75 : ... .. D ... ... ... : ... .. D ... ... ... : ... .. . ... : ... .. 6 ... : ... .. . ... ... : ... .. . ... ... : ... .. . ... ... : ... .. . ... ...
ROW 76 : ... .. A ... ... ... : ... .. A ... ... ... : ... .. . ... : ... .. 3 ... : ... .. . ... ... : --- .. . ... ... : --- .. . ... ... : ... .. . ... ...
ROW 77 : ... .. . ... ... ... : ... .. . ... ... ... : ... .. . ... : ... .. 2 ... : ... .. . ... ... : ... .. . ... ... : ... .. . ... ... : ... .. . ... ...
ROW 78 : ... .. 0 ... V00 ... : ... .. 0 ... ... ... : ... .. . ... : 3-# 00 F ... : ... .. . ... ... : G#3 01 A ... ... : G#4 01 A ... ... : ... .. . ... ...
ROW 79 : ... .. . ... ... ... : ... .. . ... ... ... : ... .. . ... : ... .. C ... : ... .. . ... ... : ... .. 9 ... ... : ... .. 9 ... ... : ... .. . ... ...
ROW 7A : ... .. . ... ... ... : ... .. . ... ... ... : ... .. . ... : ... .. 6 ... : ... .. . ... ... : ... .. . ... ... : ... .. . ... ... : ... .. . ... ...
ROW 7B : ... .. . ... ... ... : ... .. . ... ... ... : ... .. . ... : ... .. 3 ... : ... .. . ... ... : --- .. . P82 ... : --- .. . ... ... : ... .. . ... ...
ROW 7C : ... .. . ... ... ... : ... .. . ... ... ... : ... .. . ... : ... .. 2 ... : ... .. . ... ... : ... .. . ... ... : ... .. . ... ... : ... .. . ... ...
ROW 7D : ... .. . ... ... ... : ... .. . ... ... ... : ... .. . ... : ... .. 0 ... : ... .. . ... ... : ... .. . ... ... : ... .. . ... ... : ... .. . ... ...
ROW 7E : ... .. . ... ... ... : ... .. . ... ... ... : ... .. . ... : ... .. . ... : ... .. . ... ... : ... .. . ... ... : ... .. . ... ... : ... .. . ... ...
ROW 7F : ... .. . ... ... ... : ... .. . ... ... ... : ... .. . ... : ... .. . ... : ... .. . ... ... : ... .. . ... ... : ... .. . ... ... : ... .. . ... ...
ROW 80 : ... .. . ... ... ... : ... .. . ... ... ... : ... .. . ... : ... .. . ... : ... .. . ... ... : ... .. . ... ... : ... .. . ... ... : ... .. . ... ...
ROW 81 : ... .. . ... ... ... : ... .. . ... ... ... : ... .. . ... : ... .. . ... : ... .. . ... ... : ... .. . ... ... : ... .. . ... ... : ... .. . ... ...
ROW 82 : D-4 00 F P80 V02 ... : ... .. . ... ... ... : ... .. . ... : ... .. . ... : ... .. . ... ... : ... .. . ... ... : ... .. . ... ... : ... .. . ... ...
ROW 83 : ... .. E ... ... ... : ... .. . ... ... ... : ... .. . ... : ... .. . ... : ... .. . ... ... : ... .. . ... ... : ... .. . ... ... : ... .. . ... ...
ROW 84 : ... .. D ... ... ... : ... .. . ... ... ... : ... .. . ... : ... .. . ... : ... .. . ... ... : ... .. . ... ... : ... .. . ... ... : ... .. . ... ...
ROW 85 : ... .. 0 ... V00 ... : ... .. . ... ... ... : ... .. . ... : ... .. . ... : ... .. . ... ... : ... .. . ... ... : ... .. . ... ... : ... .. . ... ...
ROW 86 : ... .. . ... ... ... : ... .. . ... ... ... : ... .. . ... : ... .. . ... : ... .. . ... ... : ... .. . ... ... : ... .. . ... ... : ... .. . ... ...
ROW 87 : E-4 00 F P80 V02 ... : ... .. . ... ... ... : ... .. . ... : ... .. . ... : ... .. . ... ... : ... .. . ... ... : ... .. . ... ... : ... .. . ... ...
ROW 88 : ... .. E ... ... ... : ... .. . ... ... ... : ... .. . ... : ... .. . ... : ... .. . ... ... : ... .. . ... ... : ... .. . ... ... : ... .. . ... ...
ROW 89 : ... .. D ... ... ... : ... .. . ... ... ... : ... .. . ... : ... .. . ... : ... .. . ... ... : ... .. . ... ... : ... .. . ... ... : ... .. . ... ...
ROW 8A : ... .. 0 ... V00 ... : ... .. . ... ... ... : ... .. . ... : ... .. . ... : ... .. . ... ... : ... .. . ... ... : ... .. . ... ... : ... .. . ... ...
ROW 8B : ... .. . ... ... ... : ... .. . ... ... ... : ... .. . ... : ... .. . ... : ... .. . ... ... : ... .. . ... ... : ... .. . ... ... : ... .. . ... ...
ROW 8C : F-4 00 F P80 V02 ... : ... .. . ... ... ... : C-3 00 . ... : 6-# 00 F ... : ... .. . ... ... : ... .. . ... ... : ... .. . ... ... : ... .. . ... ...
ROW 8D : ... .. E ... ... ... : ... .. . ... ... ... : ... .. . ... : ... .. C ... : ... .. . ... ... : ... .. . ... ... : ... .. . ... ... : ... .. . ... ...
ROW 8E : ... .. D ... ... ... : ... .. . ... ... ... : ... .. . ... : ... .. 6 ... : ... .. . ... ... : ... .. . ... ... : ... .. . ... ... : ... .. . ... ...
ROW 8F : ... .. 0 ... V00 ... : ... .. . ... ... ... : ... .. . ... : ... .. 3 ... : ... .. . ... ... : ... .. . ... ... : ... .. . ... ... : ... .. . ... ...
ROW 90 : ... .. . ... ... ... : ... .. . ... ... ... : ... .. . ... : ... .. 2 ... : ... .. . ... ... : ... .. . ... ... : ... .. . ... ... : ... .. . ... ...
ROW 91 : G-4 00 F P80 V02 ... : ... .. . ... ... ... : ... .. . ... : ... .. 0 ... : ... .. . ... ... : ... .. . ... ... : ... .. . ... ... : ... .. . ... ...
ROW 92 : ... .. E ... ... ... : ... .. . ... ... ... : ... .. . ... : ... .. . ... : ... .. . ... ... : ... .. . ... ... : ... .. . ... ... : ... .. . ... ...
ROW 93 : ... .. D ... ... ... : ... .. . ... ... ... : ... .. . ... : ... .. . ... : ... .. . ... ... : ... .. . ... ... : ... .. . ... ... : ... .. . ... ...
ROW 94 : ... .. 0 ... V00 ... : ... .. . ... ... ... : ... .. . ... : ... .. . ... : ... .. . ... ... : ... .. . ... ... : ... .. . ... ... : ... .. . ... ...
ROW 95 : ... .. . ... ... ... : ... .. . ... ... ... : ... .. . ... : ... .. . ... : ... .. . ... ... : ... .. . ... ... : ... .. . ... ... : ... .. . ... ...
ROW 96 : G#4 00 F P80 V02 ... : ... .. . ... ... ... : ... .. . ... : B-# 00 8 ... : ... .. . ... ... : ... .. . ... ... : ... .. . ... ... : ... .. . ... ...
ROW 97 : ... .. E ... ... ... : ... .. . ... ... ... : ... .. . P89 : ... .. 6 ... : ... .. . ... ... : ... .. . ... ... : ... .. . ... ... : ... .. . ... ...
ROW 98 : ... .. D ... ... ... : ... .. . ... ... ... : C#3 00 . P7A : ... .. 3 ... : ... .. . ... ... : ... .. . ... ... : ... .. . ... ... : ... .. . ... ...
ROW 99 : ... .. 0 ... V00 ... : ... .. . ... ... ... : ... .. . P83 : ... .. 1 ... : ... .. . ... ... : ... .. . ... ... : ... .. . ... ... : ... .. . ... ...
ROW 9A : ... .. . ... ... ... : ... .. . ... ... ... : D-3 00 . P75 : ... .. 8 ... : ... .. . ... ... : ... .. . ... ... : ... .. . ... ... : ... .. . ... ...
ROW 9B : A#4 00 F P80 V02 ... : ... .. . ... ... ... : ... .. . P7E : ... .. 6 ... : ... .. . ... ... : ... .. . ... ... : ... .. . ... ... : ... .. . ... ...
ROW 9C : ... .. E ... ... ... : ... .. . ... ... ... : ... .. . P87 : ... .. 3 ... : ... .. . ... ... : ... .. . ... ... : ... .. . ... ... : ... .. . ... ...
ROW 9D : ... .. D ... ... ... : ... .. . ... ... ... : D#3 00 . P7B : ... .. 8 ... : ... .. . ... ... : ... .. . ... ... : ... .. . ... ... : ... .. . ... ...
ROW 9E : ... .. 0 ... V00 ... : ... .. . ... ... ... : ... .. . P84 : ... .. 6 ... : ... .. . ... ... : ... .. . ... ... : ... .. . ... ... : ... .. . ... ...
ROW 9F : ... .. . ... ... ... : ... .. . ... ... ... : E-3 00 . P78 : ... .. 3 ... : ... .. . ... ... : ... .. . ... ... : ... .. . ... ... : ... .. . ... ...
ROW A0 : C-5 00 F P80 V02 ... : ... .. . ... ... ... : F-3 00 . P80 : 3-# 00 F ... : ... .. . ... ... : ... .. . ... ... : ... .. . ... ... : ... .. . ... ...
ROW A1 : ... .. E ... ... ... : ... .. . ... ... ... : ... .. . ... : ... .. C ... : ... .. . ... ... : ... .. . ... ... : ... .. . ... ... : ... .. . ... ...
ROW A2 : ... .. D ... ... ... : ... .. . ... ... ... : ... .. . ... : ... .. 6 ... : ... .. . ... ... : ... .. . ... ... : ... .. . ... ... : ... .. . ... ...
ROW A3 : ... .. A ... ... ... : ... .. . ... ... ... : ... .. . ... : ... .. 3 ... : ... .. . ... ... : ... .. . ... ... : ... .. . ... ... : ... .. . ... ...
ROW A4 : ... .. . ... ... ... : ... .. . ... ... ... : ... .. . ... : ... .. 2 ... : ... .. . ... ... : ... .. . ... ... : ... .. . ... ... : ... .. . ... ...
ROW A5 : ... .. . ... ... ... : ... .. . ... ... ... : --- .. . ... : ... .. 0 ... : ... .. . ... ... : ... .. . ... ... : ... .. . ... ... : ... .. . ... ...
ROW A6 : ... .. . ... ... ... : ... .. . ... ... ... : ... .. . ... : ... .. . ... : ... .. . ... ... : ... .. . ... ... : ... .. . ... ... : ... .. . ... ...
ROW A7 : ... .. . ... ... ... : ... .. . ... ... ... : ... .. . ... : ... .. . ... : ... .. . ... ... : ... .. . ... ... : ... .. . ... ... : ... .. . ... ...
ROW A8 : ... .. . ... ... ... : ... .. . ... ... ... : ... .. . ... : ... .. . ... : ... .. . ... ... : ... .. . ... ... : ... .. . ... ... : ... .. . ... ...
ROW A9 : ... .. . ... ... ... : ... .. . ... ... ... : ... .. . ... : ... .. . ... : ... .. . ... ... : ... .. . ... ... : ... .. . ... ... : ... .. . ... ...
ROW AA : ... .. 0 ... V00 ... : ... .. . ... ... ... : G#4 00 . ... : D-# 00 F ... : ... .. . ... ... : F-3 01 A P80 ... : G#3 01 A ... ... : ... .. . ... ...
ROW AB : ... .. . ... ... ... : ... .. . ... ... ... : ... .. . ... : ... .. C ... : ... .. . ... ... : ... .. 9 ... ... : ... .. 9 ... ... : ... .. . ... ...
ROW AC : ... .. . ... ... ... : ... .. . ... ... ... : ... .. . ... : ... .. 6 ... : ... .. . ... ... : ... .. . ... ... : ... .. . ... ... : ... .. . ... ...
ROW AD : ... .. . ... ... ... : ... .. . ... ... ... : ... .. . ... : ... .. 3 ... : ... .. . ... ... : ... .. 8 ... ... : ... .. 8 ... ... : ... .. . ... ...
ROW AE : ... .. . ... ... ... : ... .. . ... ... ... : ... .. . ... : ... .. 2 ... : ... .. . ... ... : ... .. 7 ... ... : ... .. 7 ... ... : ... .. . ... ...
ROW AF : ... .. . ... ... ... : ... .. . ... ... ... : --- .. . ... : ... .. F ... : ... .. . ... ... : --- .. . ... ... : --- .. . P83 ... : ... .. . ... ...
ROW B0 : ... .. . ... ... ... : ... .. . ... ... ... : ... .. . ... : ... .. C ... : ... .. . ... ... : ... .. . ... ... : ... .. . ... ... : ... .. . ... ...
ROW B1 : ... .. . ... ... ... : ... .. . ... ... ... : ... .. . ... : ... .. 6 ... : ... .. . ... ... : ... .. . ... ... : ... .. . ... ... : ... .. . ... ...
ROW B2 : ... .. . ... ... ... : ... .. . ... ... ... : ... .. . ... : ... .. 3 ... : ... .. . ... ... : ... .. . ... ... : ... .. . ... ... : ... .. . ... ...
ROW B3 : ... .. . ... ... ... : ... .. . ... ... ... : ... .. . ... : ... .. 2 ... : ... .. . ... ... : ... .. . ... ... : ... .. . ... ... : ... .. . ... ...
ROW B4 : F-4 00 F P80 V02 ... : ... .. . ... ... ... : F-3 00 . ... : 6-# 00 F ... : ... .. . ... ... : ... .. . ... ... : ... .. . ... ... : ... .. . ... ...
ROW B5 : ... .. E ... ... ... : ... .. . ... ... ... : ... .. . ... : ... .. C ... : ... .. . ... ... : ... .. . ... ... : ... .. . ... ... : ... .. . ... ...
ROW B6 : ... .. D ... ... ... : ... .. . ... ... ... : ... .. . ... : ... .. 6 ... : ... .. . ... ... : ... .. . ... ... : ... .. . ... ... : ... .. . ... ...
ROW B7 : ... .. A ... ... ... : ... .. . ... ... ... : ... .. . ... : ... .. 3 ... : ... .. . ... ... : ... .. . ... ... : ... .. . ... ... : ... .. . ... ...
ROW B8 : ... .. . ... ... ... : ... .. . ... ... ... : ... .. . ... : ... .. 2 ... : ... .. . ... ... : ... .. . ... ... : ... .. . ... ... : ... .. . ... ...
ROW B9 : ... .. 0 ... V00 ... : ... .. . ... ... ... : --- .. . ... : ... .. 0 ... : ... .. . ... ... : ... .. . ... ... : ... .. . ... ... : ... .. . ... ...
ROW BA : ... .. . ... ... ... : ... .. . ... ... ... : ... .. . ... : ... .. . ... : ... .. . ... ... : ... .. . ... ... : ... .. . ... ... : ... .. . ... ...
ROW BB : ... .. . ... ... ... : ... .. . ... ... ... : ... .. . ... : ... .. . ... : ... .. . ... ... : ... .. . ... ... : ... .. . ... ... : ... .. . ... ...
ROW BC : ... .. . ... ... ... : ... .. . ... ... ... : ... .. . ... : ... .. . ... : ... .. . ... ... : ... .. . ... ... : ... .. . ... ... : ... .. . ... ...
ROW BD : ... .. . ... ... ... : ... .. . ... ... ... : ... .. . ... : ... .. . ... : ... .. . ... ... : ... .. . ... ... : ... .. . ... ... : ... .. . ... ...
ROW BE : C-5 00 F P80 V02 ... : ... .. . ... ... ... : G#4 00 . ... : D-# 00 F ... : ... .. . ... ... : F-3 01 A ... ... : G#3 01 A P81 ... : ... .. . ... ...
ROW BF : ... .. E ... ... ... : ... .. . ... ... ... : ... .. . ... : ... .. C ... : ... .. . ... ... : ... .. 9 ... ... : ... .. 9 ... ... : ... .. . ... ...
ROW C0 : ... .. D ... ... ... : ... .. . ... ... ... : ... .. . ... : ... .. 6 ... : ... .. . ... ... : ... .. . ... ... : ... .. . ... ... : ... .. . ... ...
ROW C1 : ... .. A ... ... ... : ... .. . ... ... ... : ... .. . ... : ... .. 3 ... : ... .. . ... ... : ... .. 8 ... ... : ... .. 8 ... ... : ... .. . ... ...
ROW C2 : ... .. . ... ... ... : ... .. . ... ... ... : ... .. . ... : ... .. 2 ... : ... .. . ... ... : ... .. 7 ... ... : ... .. 7 ... ... : ... .. . ... ...
ROW C3 : ... .. 0 ... V00 ... : ... .. . ... ... ... : --- .. . ... : ... .. F ... : ... .. . ... ... : --- .. . ... ... : --- .. . P83 ... : ... .. . ... ...
ROW C4 : ... .. . ... ... ... : ... .. . ... ... ... : ... .. . ... : ... .. C ... : ... .. . ... ... : ... .. . ... ... : ... .. . ... ... : ... .. . ... ...
ROW C5 : ... .. . ... ... ... : ... .. . ... ... ... : ... .. . ... : ... .. 6 ... : ... .. . ... ... : ... .. . ... ... : ... .. . ... ... : ... .. . ... ...
ROW C6 : ... .. . ... ... ... : ... .. . ... ... ... : ... .. . ... : ... .. 3 ... : ... .. . ... ... : ... .. . ... ... : ... .. . ... ... : ... .. . ... ...
ROW C7 : ... .. . ... ... ... : ... .. . ... ... ... : ... .. . ... : ... .. 2 ... : ... .. . ... ... : ... .. . ... ... : ... .. . ... ... : ... .. . ... ...
ROW C8 : C-5 00 F P80 V02 ... : ... .. . ... ... ... : F#3 00 . ... : 3-# 00 F ... : ... .. . ... ... : ... .. . ... ... : ... .. . ... ... : ... .. . ... ...
ROW C9 : ... .. E ... ... ... : ... .. . ... ... ... : ... .. . ... : ... .. C ... : ... .. . ... ... : ... .. . ... ... : ... .. . ... ... : ... .. . ... ...
ROW CA : ... .. D ... ... ... : ... .. . ... ... ... : ... .. . ... : ... .. 6 ... : ... .. . ... ... : ... .. . ... ... : ... .. . ... ... : ... .. . ... ...
ROW CB : ... .. A ... ... ... : ... .. . ... ... ... : ... .. . ... : ... .. 3 ... : ... .. . ... ... : ... .. . ... ... : ... .. . ... ... : ... .. . ... ...
ROW CC : ... .. . ... ... ... : ... .. . ... ... ... : ... .. . ... : ... .. 2 ... : ... .. . ... ... : ... .. . ... ... : ... .. . ... ... : ... .. . ... ...
ROW CD : ... .. . ... ... ... : ... .. . ... ... ... : --- .. . ... : ... .. 0 ... : ... .. . ... ... : ... .. . ... ... : ... .. . ... ... : ... .. . ... ...
ROW CE : ... .. . ... ... ... : ... .. . ... ... ... : ... .. . ... : ... .. . ... : ... .. . ... ... : ... .. . ... ... : ... .. . ... ... : ... .. . ... ...
ROW CF : ... .. . ... ... ... : ... .. . ... ... ... : ... .. . ... : ... .. . ... : ... .. . ... ... : ... .. . ... ... : ... .. . ... ... : ... .. . ... ...
ROW D0 : ... .. . ... ... ... : ... .. . ... ... ... : ... .. . ... : ... .. . ... : ... .. . ... ... : ... .. . ... ... : ... .. . ... ... : ... .. . ... ...
ROW D1 : ... .. . ... ... ... : ... .. . ... ... ... : ... .. . ... : ... .. . ... : ... .. . ... ... : ... .. . ... ... : ... .. . ... ... : ... .. . ... ...
ROW D2 : C#5 00 F ... ... ... : ... .. . ... ... ... : A#4 00 . ... : D-# 00 F ... : ... .. . ... ... : F#3 01 A ... ... : A#3 01 A P81 ... : ... .. . ... ...
ROW D3 : ... .. E ... ... ... : ... .. . ... ... ... : ... .. . ... : ... .. C ... : ... .. . ... ... : ... .. 9 ... ... : ... .. 9 ... ... : ... .. . ... ...
ROW D4 : ... .. D ... ... ... : ... .. . ... ... ... : ... .. . ... : ... .. 6 ... : ... .. . ... ... : ... .. . ... ... : ... .. . ... ... : ... .. . ... ...
ROW D5 : ... .. 0 ... V00 ... : ... .. . ... ... ... : ... .. . ... : ... .. 3 ... : ... .. . ... ... : ... .. 8 ... ... : ... .. 8 ... ... : ... .. . ... ...
ROW D6 : ... .. . ... ... ... : ... .. . ... ... ... : ... .. . ... : ... .. 2 ... : ... .. . ... ... : ... .. 7 ... ... : ... .. 7 ... ... : ... .. . ... ...
ROW D7 : C-5 00 F P80 V02 ... : ... .. . ... ... ... : --- .. . ... : ... .. F ... : ... .. . ... ... : --- .. . P7F ... : --- .. . ... ... : ... .. . ... ...
ROW D8 : ... .. E ... ... ... : ... .. . ... ... ... : ... .. . ... : ... .. C ... : ... .. . ... ... : ... .. . ... ... : ... .. . ... ... : ... .. . ... ...
ROW D9 : ... .. D ... ... ... : ... .. . ... ... ... : ... .. . ... : ... .. 6 ... : ... .. . ... ... : ... .. . ... ... : ... .. . ... ... : ... .. . ... ...
ROW DA : ... .. 0 ... V00 ... : ... .. . ... ... ... : ... .. . ... : ... .. 3 ... : ... .. . ... ... : ... .. . ... ... : ... .. . ... ... : ... .. . ... ...
ROW DB : ... .. . ... ... ... : ... .. . ... ... ... : ... .. . ... : ... .. 2 ... : ... .. . ... ... : ... .. . ... ... : ... .. . ... ... : ... .. . ... ...
ROW DC : A#4 00 F P80 V02 ... : ... .. . ... ... ... : E-3 00 . ... : 6-# 00 F ... : ... .. . ... ... : ... .. . ... ... : ... .. . ... ... : ... .. . ... ...
ROW DD : ... .. E ... ... ... : ... .. . ... ... ... : ... .. . ... : ... .. C ... : ... .. . ... ... : ... .. . ... ... : ... .. . ... ... : ... .. . ... ...
ROW DE : ... .. D ... ... ... : ... .. . ... ... ... : ... .. . ... : ... .. 6 ... : ... .. . ... ... : ... .. . ... ... : ... .. . ... ... : ... .. . ... ...
ROW DF : ... .. A ... ... ... : ... .. . ... ... ... : ... .. . ... : ... .. 3 ... : ... .. . ... ... : ... .. . ... ... : ... .. . ... ... : ... .. . ... ...
ROW E0 : ... .. . ... ... ... : ... .. . ... ... ... : ... .. . ... : ... .. 2 ... : ... .. . ... ... : ... .. . ... ... : ... .. . ... ... : ... .. . ... ...
ROW E1 : ... .. 0 ... V00 ... : ... .. . ... ... ... : --- .. . ... : ... .. 0 ... : ... .. . ... ... : ... .. . ... ... : ... .. . ... ... : ... .. . ... ...
ROW E2 : ... .. . ... ... ... : ... .. . ... ... ... : ... .. . ... : ... .. . ... : ... .. . ... ... : ... .. . ... ... : ... .. . ... ... : ... .. . ... ...
ROW E3 : ... .. . ... ... ... : ... .. . ... ... ... : ... .. . ... : ... .. . ... : ... .. . ... ... : ... .. . ... ... : ... .. . ... ... : ... .. . ... ...
ROW E4 : ... .. . ... ... ... : ... .. . ... ... ... : ... .. . ... : ... .. . ... : ... .. . ... ... : ... .. . ... ... : ... .. . ... ... : ... .. . ... ...
ROW E5 : ... .. . ... ... ... : ... .. . ... ... ... : ... .. . ... : ... .. . ... : ... .. . ... ... : ... .. . ... ... : ... .. . ... ... : ... .. . ... ...
ROW E6 : C-5 00 F P80 V02 ... : ... .. . ... ... ... : G-4 00 . ... : D-# 00 F ... : ... .. . ... ... : G-3 01 A P80 ... : A#3 01 A ... ... : ... .. . ... ...
ROW E7 : ... .. E ... ... ... : ... .. . ... ... ... : ... .. . ... : ... .. C ... : ... .. . ... ... : ... .. 9 ... ... : ... .. 9 ... ... : ... .. . ... ...
ROW E8 : ... .. D ... ... ... : ... .. . ... ... ... : ... .. . ... : ... .. 6 ... : ... .. . ... ... : ... .. . ... ... : ... .. . ... ... : ... .. . ... ...
ROW E9 : ... .. A ... ... ... : ... .. . ... ... ... : ... .. . ... : ... .. 3 ... : ... .. . ... ... : ... .. 8 ... ... : ... .. 8 ... ... : ... .. . ... ...
ROW EA : ... .. . ... ... ... : ... .. . ... ... ... : ... .. . ... : ... .. 2 ... : ... .. . ... ... : ... .. 7 ... ... : ... .. 7 ... ... : ... .. . ... ...
ROW EB : ... .. 0 ... V00 ... : ... .. . ... ... ... : --- .. . ... : ... .. 0 ... : ... .. . ... ... : --- .. . P81 ... : --- .. . ... ... : ... .. . ... ...
ROW EC : ... .. . ... ... ... : ... .. . ... ... ... : ... .. . ... : ... .. . ... : ... .. . ... ... : ... .. . ... ... : ... .. . ... ... : ... .. . ... ...
ROW ED : ... .. . ... ... ... : ... .. . ... ... ... : ... .. . ... : ... .. . ... : ... .. . ... ... : ... .. . ... ... : ... .. . ... ... : ... .. . ... ...
ROW EE : ... .. . ... ... ... : ... .. . ... ... ... : ... .. . ... : ... .. . ... : ... .. . ... ... : ... .. . ... ... : ... .. . ... ... : ... .. . ... ...
ROW EF : ... .. . ... ... ... : ... .. . ... ... ... : ... .. . ... : ... .. . ... : ... .. . ... ... : ... .. . ... ... : ... .. . ... ... : ... .. . ... ...
ROW F0 : A#4 00 F P80 V02 ... : ... .. . ... ... ... : F-3 00 . ... : 3-# 00 F ... : ... .. . ... ... : ... .. . ... ... : ... .. . ... ... : ... .. . ... ...
ROW F1 : ... .. E ... ... ... : ... .. . ... ... ... : ... .. . ... : ... .. C ... : ... .. . ... ... : ... .. . ... ... : ... .. . ... ... : ... .. . ... ...
ROW F2 : ... .. D ... ... ... : ... .. . ... ... ... : ... .. . ... : ... .. 6 ... : ... .. . ... ... : ... .. . ... ... : ... .. . ... ... : ... .. . ... ...
ROW F3 : ... .. A ... ... ... : ... .. . ... ... ... : ... .. . ... : ... .. 3 ... : ... .. . ... ... : ... .. . ... ... : ... .. . ... ... : ... .. . ... ...
ROW F4 : ... .. . ... ... ... : ... .. . ... ... ... : ... .. . ... : ... .. 2 ... : ... .. . ... ... : ... .. . ... ... : ... .. . ... ... : ... .. . ... ...
ROW F5 : ... .. . ... ... ... : ... .. . ... ... ... : --- .. . ... : ... .. 0 ... : ... .. . ... ... : ... .. . ... ... : ... .. . ... ... : ... .. . ... ...
ROW F6 : ... .. . ... ... ... : ... .. . ... ... ... : ... .. . ... : ... .. . ... : ... .. . ... ... : ... .. . ... ... : ... .. . ... ... : ... .. . ... ...
ROW F7 : ... .. . ... ... ... : ... .. . ... ... ... : ... .. . ... : ... .. . ... : ... .. . ... ... : ... .. . ... ... : ... .. . ... ... : ... .. . ... ...
ROW F8 : ... .. . ... ... ... : ... .. . ... ... ... : ... .. . ... : ... .. . ... : ... .. . ... ... : ... .. . ... ... : ... .. . ... ... : ... .. . ... ...
ROW F9 : ... .. . ... ... ... : ... .. . ... ... ... : ... .. . ... : ... .. . ... : ... .. . ... ... : ... .. . ... ... : ... .. . ... ... : ... .. . ... ...
ROW FA : C-5 00 F ... ... ... : ... .. . ... ... ... : G#4 00 . ... : D-# 00 F ... : ... .. . ... ... : F-3 01 A P80 ... : G#3 01 A ... ... : ... .. . ... ...
ROW FB : ... .. E ... ... ... : ... .. . ... ... ... : ... .. . ... : ... .. C ... : ... .. . ... ... : ... .. 9 ... ... : ... .. 9 ... ... : ... .. . ... ...
ROW FC : ... .. D ... ... ... : ... .. . ... ... ... : ... .. . ... : ... .. 6 ... : ... .. . ... ... : ... .. . ... ... : ... .. . ... ... : ... .. . ... ...
ROW FD : ... .. 0 ... V00 ... : ... .. . ... ... ... : ... .. . ... : ... .. 3 ... : ... .. . ... ... : ... .. 8 ... ... : ... .. 8 ... ... : ... .. . ... ...
ROW FE : ... .. . ... ... ... : ... .. . ... ... ... : ... .. . ... : ... .. 2 ... : ... .. . ... ... : ... .. 7 ... ... : ... .. 7 ... ... : ... .. . ... ...
ROW FF : A#4 00 F P80 V02 ... : ... .. . ... ... ... : --- .. . ... : ... .. F ... : ... .. . ... ... : --- .. . ... ... : --- .. . P83 ... : ... .. . ... ...

PATTERN 06
ROW 00 : ... .. E ... ... ... : ... .. . ... ... ... : ... .. . ... : ... .. C ... : ... .. . ... ... : ... .. . ... ... : ... .. . ... ... : ... .. . ... ...
ROW 01 : ... .. D ... ... ... : ... .. . ... ... ... : ... .. . ... : ... .. 6 ... : ... .. . ... ... : ... .. . ... ... : ... .. . ... ... : ... .. . ... ...
ROW 02 : ... .. 0 ... V00 ... : ... .. . ... ... ... : ... .. . ... : ... .. 3 ... : ... .. . ... ... : ... .. . ... ... : ... .. . ... ... : ... .. . ... ...
ROW 03 : ... .. . ... ... ... : ... .. . ... ... ... : ... .. . ... : ... .. 2 ... : ... .. . ... ... : ... .. . ... ... : ... .. . ... ... : ... .. . ... ...
ROW 04 : G#4 00 F P80 V02 ... : ... .. . ... ... ... : C-3 00 . ... : 6-# 00 F ... : ... .. . ... ... : ... .. . ... ... : ... .. . ... ... : ... .. . ... ...
ROW 05 : ... .. E ... ... ... : ... .. . ... ... ... : ... .. . ... : ... .. C ... : ... .. . ... ... : ... .. . ... ... : ... .. . ... ... : ... .. . ... ...
ROW 06 : ... .. D ... ... ... : ... .. . ... ... ... : ... .. . ... : ... .. 6 ... : ... .. . ... ... : ... .. . ... ... : ... .. . ... ... : ... .. . ... ...
ROW 07 : ... .. A ... ... ... : ... .. . ... ... ... : ... .. . ... : ... .. 3 ... : ... .. . ... ... : ... .. . ... ... : ... .. . ... ... : ... .. . ... ...
ROW 08 : ... .. . ... ... ... : ... .. . ... ... ... : ... .. . ... : ... .. 2 ... : ... .. . ... ... : ... .. . ... ... : ... .. . ... ... : ... .. . ... ...
ROW 09 : ... .. 0 ... V00 ... : ... .. . ... ... ... : --- .. . ... : ... .. 0 ... : ... .. . ... ... : ... .. . ... ... : ... .. . ... ... : ... .. . ... ...
ROW 0A : ... .. . ... ... ... : ... .. . ... ... ... : ... .. . ... : ... .. . ... : ... .. . ... ... : ... .. . ... ... : ... .. . ... ... : ... .. . ... ...
ROW 0B : ... .. . ... ... ... : ... .. . ... ... ... : ... .. . ... : ... .. . ... : ... .. . ... ... : ... .. . ... ... : ... .. . ... ... : ... .. . ... ...
ROW 0C : ... .. . ... ... ... : ... .. . ... ... ... : ... .. . ... : ... .. . ... : ... .. . ... ... : ... .. . ... ... : ... .. . ... ... : ... .. . ... ...
ROW 0D : ... .. . ... ... ... : ... .. . ... ... ... : ... .. . ... : ... .. . ... : ... .. . ... ... : ... .. . ... ... : ... .. . ... ... : ... .. . ... ...
ROW 0E : G-4 00 F P80 V02 ... : ... .. . ... ... ... : E-4 00 . ... : D-# 00 F ... : ... .. . ... ... : E-3 01 A ... ... : G-3 01 A P81 ... : ... .. . ... ...
ROW 0F : ... .. E ... ... ... : ... .. . ... ... ... : ... .. . ... : ... .. C ... : ... .. . ... ... : ... .. 9 ... ... : ... .. 9 ... ... : ... .. . ... ...
ROW 10 : ... .. D ... ... ... : ... .. . ... ... ... : ... .. . ... : ... .. 6 ... : ... .. . ... ... : ... .. . ... ... : ... .. . ... ... : ... .. . ... ...
ROW 11 : ... .. A ... ... ... : ... .. . ... ... ... : ... .. . ... : ... .. 3 ... : ... .. . ... ... : ... .. 8 ... ... : ... .. 8 ... ... : ... .. . ... ...
ROW 12 : ... .. . ... ... ... : ... .. . ... ... ... : ... .. . ... : ... .. 2 ... : ... .. . ... ... : ... .. 7 ... ... : ... .. 7 ... ... : ... .. . ... ...
ROW 13 : ... .. 0 ... V00 ... : ... .. . ... ... ... : --- .. . ... : ... .. 0 ... : ... .. . ... ... : --- .. . P82 ... : --- .. . P80 ... : ... .. . ... ...
ROW 14 : ... .. . ... ... ... : ... .. . ... ... ... : ... .. . ... : ... .. . ... : ... .. . ... ... : ... .. . ... ... : ... .. . ... ... : ... .. . ... ...
ROW 15 : ... .. . ... ... ... : ... .. . ... ... ... : ... .. . ... : ... .. . ... : ... .. . ... ... : ... .. . ... ... : ... .. . ... ... : ... .. . ... ...
ROW 16 : ... .. . ... ... ... : ... .. . ... ... ... : ... .. . ... : ... .. . ... : ... .. . ... ... : ... .. . ... ... : ... .. . ... ... : ... .. . ... ...
ROW 17 : ... .. . ... ... ... : ... .. . ... ... ... : ... .. . ... : ... .. . ... : ... .. . ... ... : ... .. . ... ... : ... .. . ... ... : ... .. . ... ...
ROW 18 : G#4 00 F P80 V02 ... : ... .. . ... ... ... : F-4 00 . ... : 3-# 00 F ... : ... .. . ... ... : F-3 01 A P80 ... : G#3 01 A P81 ... : ... .. . ... ...
ROW 19 : ... .. E ... ... ... : ... .. . ... ... ... : ... .. . ... : ... .. C ... : ... .. . ... ... : ... .. 9 ... ... : ... .. 9 ... ... : ... .. . ... ...
ROW 1A : ... .. D ... ... ... : ... .. . ... ... ... : ... .. . ... : ... .. 6 ... : ... .. . ... ... : ... .. . ... ... : ... .. . ... ... : ... .. . ... ...
ROW 1B : ... .. A ... ... ... : ... .. . ... ... ... : ... .. . ... : ... .. 3 ... : ... .. . ... ... : ... .. 8 ... ... : ... .. 8 ... ... : ... .. . ... ...
ROW 1C : ... .. . ... ... ... : ... .. . ... ... ... : ... .. . ... : ... .. 2 ... : ... .. . ... ... : ... .. 7 ... ... : ... .. 7 ... ... : ... .. . ... ...
ROW 1D : ... .. 0 ... V00 ... : ... .. . ... ... ... : D-4 00 . P7E : ... .. 0 ... : ... .. . ... ... : ... .. . ... ... : ... .. . ... ... : ... .. . ... ...
ROW 1E : ... .. . ... ... ... : ... .. . ... ... ... : B-3 00 . P82 : ... .. . ... : ... .. . ... ... : ... .. 6 ... ... : ... .. 6 ... ... : ... .. . ... ...
ROW 1F : ... .. . ... ... ... : ... .. . ... ... ... : A-3 00 . P7E : ... .. . ... : ... .. . ... ... : ... .. . ... ... : ... .. . ... ... : ... .. . ... ...
ROW 20 : ... .. . ... ... ... : ... .. . ... ... ... : G-3 00 . P7D : ... .. . ... : ... .. . ... ... : ... .. . ... ... : ... .. . ... ... : ... .. . ... ...
ROW 21 : ... .. . ... ... ... : ... .. . ... ... ... : F-3 00 . P80 : ... .. . ... : ... .. . ... ... : ... .. . ... ... : ... .. . ... ... : ... .. . ... ...
ROW 22 : ... .. . ... ... ... : ... .. . ... ... ... : D#3 00 . P88 : ... .. . ... : ... .. . ... ... : --- .. . ... ... : --- .. . P83 ... : ... .. . ... ...
ROW 23 : ... .. . ... ... ... : ... .. . ... ... ... : D-3 00 . P7D : ... .. . ... : ... .. . ... ... : ... .. . ... ... : ... .. . ... ... : ... .. . ... ...
ROW 24 : ... .. . ... ... ... : ... .. . ... ... ... : C-3 00 . P8C : ... .. . ... : ... .. . ... ... : ... .. . ... ... : ... .. . ... ... : ... .. . ... ...
ROW 25 : ... .. . ... ... ... : ... .. . ... ... ... : B-2 00 . P85 : ... .. . ... : ... .. . ... ... : ... .. . ... ... : ... .. . ... ... : ... .. . ... ...
ROW 26 : ... .. . ... ... ... : ... .. . ... ... ... : A#2 00 . P80 : ... .. . ... : ... .. . ... ... : ... .. . ... ... : ... .. . ... ... : ... .. . ... ...
ROW 27 : ... .. . ... ... ... : ... .. . ... ... ... : A-2 00 . P7C : ... .. . ... : ... .. . ... ... : ... .. . ... ... : ... .. . ... ... : ... .. . ... ...
ROW 28 : ... .. . ... ... ... : ... .. . ... ... ... : G#2 00 . P7B : ... .. . ... : ... .. . ... ... : ... .. . ... ... : ... .. . ... ... : ... .. . ... ...
ROW 29 : ... .. . ... ... ... : ... .. . ... ... ... : G-2 00 . ... : ... .. . ... : ... .. . ... ... : ... .. . ... ... : ... .. . ... ... : ... .. . ... ...
ROW 2A : ... .. . ... ... ... : ... .. . ... ... ... : F#2 00 . P7D : ... .. . ... : ... .. . ... ... : ... .. . ... ... : ... .. . ... ... : ... .. . ... ...
ROW 2B : ... .. . ... ... ... : ... .. . ... ... ... : F-2 00 . P81 : ... .. . ... : ... .. . ... ... : ... .. . ... ... : ... .. . ... ... : ... .. . ... ...
ROW 2C : C-4 00 F P80 V02 ... : ... .. . ... ... ... : B-3 00 . P80 : ... .. . ... : ... .. . ... ... : ... .. . ... ... : ... .. . ... ... : ... .. . ... ...
ROW 2D : ... .. E ... ... ... : ... .. . ... ... ... : C#3 00 . ... : ... .. . ... : ... .. . ... ... : ... .. . ... ... : ... .. . ... ... : ... .. . ... ...
ROW 2E : ... .. D ... ... ... : ... .. . ... ... ... : F#2 00 . ... : ... .. . ... : ... .. . ... ... : ... .. . ... ... : ... .. . ... ... : ... .. . ... ...
ROW 2F : C#4 00 B ... ... ... : ... .. . ... ... ... : F-2 00 . ... : ... .. . ... : ... .. . ... ... : ... .. . ... ... : ... .. . ... ... : ... .. . ... ...
ROW 30 : ... .. A ... ... ... : ... .. . ... ... ... : C-2 00 . ... : ... .. . ... : ... .. . ... ... : ... .. . ... ... : ... .. . ... ... : ... .. . ... ...
ROW 31 : C-4 00 7 ... ... ... : ... .. . ... ... ... : ... .. . ... : ... .. . ... : ... .. . ... ... : ... .. . ... ... : ... .. . ... ... : ... .. . ... ...
ROW 32 : ... .. 6 ... ... ... : ... .. . ... ... ... : ... .. . ... : ... .. . ... : ... .. . ... ... : ... .. . ... ... : ... .. . ... ... : ... .. . ... ...
ROW 33 : ... .. . ... ... ... : ... .. . ... ... ... : ... .. . ... : ... .. . ... : ... .. . ... ... : ... .. . ... ... : ... .. . ... ... : ... .. . ... ...
ROW 34 : C#4 00 4 ... ... ... : ... .. . ... ... ... : ... .. . ... : ... .. . ... : ... .. . ... ... : ... .. . ... ... : ... .. . ... ... : ... .. . ... ...
ROW 35 : ... .. 3 ... ... ... : ... .. . ... ... ... : ... .. . ... : ... .. . ... : ... .. . ... ... : ... .. . ... ... : ... .. . ... ... : ... .. . ... ...
ROW 36 : C-4 00 6 ... ... ... : ... .. . ... ... ... : ... .. . ... : ... .. . ... : ... .. . ... ... : ... .. . ... ... : ... .. . ... ... : ... .. . ... ...
ROW 37 : ... .. 5 ... ... ... : ... .. . ... ... ... : ... .. . ... : ... .. . ... : ... .. . ... ... : ... .. . ... ... : ... .. . ... ... : ... .. . ... ...
ROW 38 : ... .. . ... ... ... : ... .. . ... ... ... : ... .. . ... : ... .. . ... : ... .. . ... ... : ... .. . ... ... : ... .. . ... ... : ... .. . ... ...
ROW 39 : C#4 00 8 ... ... ... : ... .. . ... ... ... : ... .. . ... : ... .. . ... : ... .. . ... ... : ... .. . ... ... : ... .. . ... ... : ... .. . ... ...
ROW 3A : ... .. 7 ... ... ... : ... .. . ... ... ... : ... .. . ... : ... .. . ... : ... .. . ... ... : ... .. . ... ... : ... .. . ... ... : ... .. . ... ...
ROW 3B : C-4 00 A ... ... ... : ... .. . ... ... ... : ... .. . ... : ... .. . ... : ... .. . ... ... : ... .. . ... ... : ... .. . ... ... : ... .. . ... ...
ROW 3C : ... .. 9 ... ... ... : ... .. . ... ... ... : ... .. . ... : ... .. . ... : ... .. . ... ... : ... .. . ... ... : ... .. . ... ... : ... .. . ... ...
ROW 3D : ... .. 8 ... ... ... : ... .. . ... ... ... : ... .. . ... : ... .. . ... : ... .. . ... ... : ... .. . ... ... : ... .. . ... ... : ... .. . ... ...
ROW 3E : C#4 00 C ... ... ... : ... .. . ... ... ... : ... .. . ... : ... .. . ... : ... .. . ... ... : ... .. . ... ... : ... .. . ... ... : ... .. . ... ...
ROW 3F : ... .. B ... ... ... : ... .. . ... ... ... : ... .. . ... : ... .. . ... : ... .. . ... ... : ... .. . ... ... : ... .. . ... ... : ... .. . ... ...
ROW 40 : C-4 00 F ... ... ... : ... .. . ... ... ... : F-2 00 . ... : ... .. F ... : ... .. . ... ... : ... .. . ... ... : ... .. . ... ... : ... .. . ... ...
ROW 41 : ... .. E ... ... ... : ... .. . ... ... ... : ... .. . ... : ... .. C ... : ... .. . ... ... : ... .. . ... ... : ... .. . ... ... : ... .. . ... ...
ROW 42 : ... .. D ... ... ... : ... .. . ... ... ... : ... .. . ... : ... .. 6 ... : ... .. . ... ... : ... .. . ... ... : ... .. . ... ... : ... .. . ... ...
ROW 43 : ... .. A ... ... ... : ... .. . ... ... ... : ... .. . ... : ... .. 3 ... : ... .. . ... ... : ... .. . ... ... : ... .. . ... ... : ... .. . ... ...
ROW 44 : ... .. . ... ... ... : ... .. . ... ... ... : ... .. . ... : ... .. 2 ... : ... .. . ... ... : ... .. . ... ... : ... .. . ... ... : ... .. . ... ...
ROW 45 : ... .. 0 ... V00 ... : ... .. . ... ... ... : ... .. . ... : ... .. 0 ... : ... .. . ... ... : ... .. . ... ... : ... .. . ... ... : ... .. . ... ...
ROW 46 : ... .. . ... ... ... : ... .. . ... ... ... : ... .. . ... : ... .. . ... : ... .. . ... ... : ... .. . ... ... : ... .. . ... ... : ... .. . ... ...
ROW 47 : ... .. . ... ... ... : ... .. . ... ... ... : ... .. . ... : ... .. . ... : ... .. . ... ... : ... .. . ... ... : ... .. . ... ... : ... .. . ... ...
ROW 48 : ... .. . ... ... ... : ... .. . ... ... ... : --- .. . ... : ... .. . ... : ... .. . ... ... : ... .. . ... ... : ... .. . ... ... : ... .. . ... ...
ROW 49 : ... .. . ... ... ... : ... .. . ... ... ... : ... .. . ... : ... .. . ... : ... .. . ... ... : ... .. . ... ... : ... .. . ... ... : ... .. . ... ...
ROW 4A : C-5 00 F P80 V02 ... : ... .. . ... ... ... : G#3 00 . ... : D-# 00 F ... : ... .. . ... ... : F-3 01 A ... ... : G#3 01 A P81 ... : ... .. . ... ...
ROW 4B : ... .. E ... ... ... : ... .. . ... ... ... : ... .. . ... : ... .. C ... : ... .. . ... ... : ... .. 9 ... ... : ... .. 9 ... ... : ... .. . ... ...
ROW 4C : ... .. D ... ... ... : ... .. . ... ... ... : ... .. . ... : ... .. 6 ... : ... .. . ... ... : ... .. . ... ... : ... .. . ... ... : ... .. . ... ...
ROW 4D : ... .. A ... ... ... : ... .. . ... ... ... : --- .. . ... : ... .. 3 ... : ... .. . ... ... : ... .. 8 ... ... : ... .. 8 ... ... : ... .. . ... ...
ROW 4E : ... .. . ... ... ... : ... .. . ... ... ... : ... .. . ... : ... .. 2 ... : ... .. . ... ... : ... .. 7 ... ... : ... .. 7 ... ... : ... .. . ... ...
ROW 4F : ... .. 0 ... V00 ... : ... .. . ... ... ... : G#3 00 . ... : ... .. F ... : ... .. . ... ... : --- .. . ... ... : --- .. . P83 ... : ... .. . ... ...
ROW 50 : ... .. . ... ... ... : ... .. . ... ... ... : ... .. . ... : ... .. C ... : ... .. . ... ... : ... .. . ... ... : ... .. . ... ... : ... .. . ... ...
ROW 51 : ... .. . ... ... ... : ... .. . ... ... ... : ... .. . ... : ... .. 6 ... : ... .. . ... ... : ... .. . ... ... : ... .. . ... ... : ... .. . ... ...
ROW 52 : ... .. . ... ... ... : ... .. . ... ... ... : --- .. . ... : ... .. 3 ... : ... .. . ... ... : ... .. . ... ... : ... .. . ... ... : ... .. . ... ...
ROW 53 : ... .. . ... ... ... : ... .. . ... ... ... : ... .. . ... : ... .. 2 ... : ... .. . ... ... : ... .. . ... ... : ... .. . ... ... : ... .. . ... ...
ROW 54 : G#4 00 F P80 V02 ... : ... .. . ... ... ... : F-2 00 . ... : 6-# 00 F ... : ... .. . ... ... : ... .. . ... ... : ... .. . ... ... : ... .. . ... ...
ROW 55 : ... .. E ... ... ... : ... .. . ... ... ... : ... .. . ... : ... .. C ... : ... .. . ... ... : ... .. . ... ... : ... .. . ... ... : ... .. . ... ...
ROW 56 : ... .. D ... ... ... : ... .. . ... ... ... : ... .. . ... : ... .. 6 ... : ... .. . ... ... : ... .. . ... ... : ... .. . ... ... : ... .. . ... ...
ROW 57 : ... .. A ... ... ... : ... .. . ... ... ... : ... .. . ... : ... .. 3 ... : ... .. . ... ... : ... .. . ... ... : ... .. . ... ... : ... .. . ... ...
ROW 58 : ... .. . ... ... ... : ... .. . ... ... ... : ... .. . ... : ... .. 2 ... : ... .. . ... ... : ... .. . ... ... : ... .. . ... ... : ... .. . ... ...
ROW 59 : ... .. 0 ... V00 ... : ... .. . ... ... ... : --- .. . ... : ... .. 0 ... : ... .. . ... ... : ... .. . ... ... : ... .. . ... ... : ... .. . ... ...
ROW 5A : ... .. . ... ... ... : ... .. . ... ... ... : ... .. . ... : ... .. . ... : ... .. . ... ... : ... .. . ... ... : ... .. . ... ... : ... .. . ... ...
ROW 5B : ... .. . ... ... ... : ... .. . ... ... ... : ... .. . ... : ... .. . ... : ... .. . ... ... : ... .. . ... ... : ... .. . ... ... : ... .. . ... ...
ROW 5C : ... .. . ... ... ... : ... .. . ... ... ... : ... .. . ... : ... .. . ... : ... .. . ... ... : ... .. . ... ... : ... .. . ... ... : ... .. . ... ...
ROW 5D : ... .. . ... ... ... : ... .. . ... ... ... : ... .. . ... : ... .. . ... : ... .. . ... ... : ... .. . ... ... : ... .. . ... ... : ... .. . ... ...
ROW 5E : F-4 00 F P80 V02 ... : ... .. . ... ... ... : C-4 00 . ... : D-# 00 F ... : ... .. . ... ... : F-3 01 A ... ... : G#3 01 A P81 ... : ... .. . ... ...
ROW 5F : ... .. E ... ... ... : ... .. . ... ... ... : ... .. . ... : ... .. C ... : ... .. . ... ... : ... .. 9 ... ... : ... .. 9 ... ... : ... .. . ... ...
ROW 60 : ... .. D ... ... ... : ... .. . ... ... ... : ... .. . ... : ... .. 6 ... : ... .. . ... ... : ... .. . ... ... : ... .. . ... ... : ... .. . ... ...
ROW 61 : ... .. A ... ... ... : ... .. . ... ... ... : --- .. . ... : ... .. 3 ... : ... .. . ... ... : ... .. 8 ... ... : ... .. 8 ... ... : ... .. . ... ...
ROW 62 : ... .. . ... ... ... : ... .. . ... ... ... : ... .. . ... : ... .. 2 ... : ... .. . ... ... : ... .. 7 ... ... : ... .. 7 ... ... : ... .. . ... ...
ROW 63 : ... .. . ... ... ... : ... .. . ... ... ... : C-4 00 . ... : ... .. F ... : ... .. . ... ... : --- .. . ... ... : --- .. . P83 ... : ... .. . ... ...
ROW 64 : ... .. . ... ... ... : ... .. . ... ... ... : ... .. . ... : ... .. C ... : ... .. . ... ... : ... .. . ... ... : ... .. . ... ... : ... .. . ... ...
ROW 65 : ... .. . ... ... ... : ... .. . ... ... ... : ... .. . ... : ... .. 6 ... : ... .. . ... ... : ... .. . ... ... : ... .. . ... ... : ... .. . ... ...
ROW 66 : ... .. 0 ... V00 ... : ... .. . ... ... ... : --- .. . ... : ... .. 3 ... : ... .. . ... ... : ... .. . ... ... : ... .. . ... ... : ... .. . ... ...
ROW 67 : ... .. . ... ... ... : ... .. . ... ... ... : ... .. . ... : ... .. 2 ... : ... .. . ... ... : ... .. . ... ... : ... .. . ... ... : ... .. . ... ...
ROW 68 : C-4 00 F P80 V02 ... : ... .. . ... ... ... : F#2 00 . ... : 3-# 00 F ... : ... .. . ... ... : ... .. . ... ... : ... .. . ... ... : ... .. . ... ...
ROW 69 : ... .. E ... ... ... : ... .. . ... ... ... : ... .. . ... : ... .. C ... : ... .. . ... ... : ... .. . ... ... : ... .. . ... ... : ... .. . ... ...
ROW 6A : ... .. D ... ... ... : ... .. . ... ... ... : ... .. . ... : ... .. 6 ... : ... .. . ... ... : ... .. . ... ... : ... .. . ... ... : ... .. . ... ...
ROW 6B : ... .. A ... ... ... : ... .. . ... ... ... : ... .. . ... : ... .. 3 ... : ... .. . ... ... : ... .. . ... ... : ... .. . ... ... : ... .. . ... ...
ROW 6C : ... .. . ... ... ... : ... .. . ... ... ... : ... .. . ... : ... .. 2 ... : ... .. . ... ... : ... .. . ... ... : ... .. . ... ... : ... .. . ... ...
ROW 6D : ... .. . ... ... ... : ... .. . ... ... ... : --- .. . ... : ... .. 0 ... : ... .. . ... ... : ... .. . ... ... : ... .. . ... ... : ... .. . ... ...
ROW 6E : ... .. . ... ... ... : ... .. . ... ... ... : ... .. . ... : ... .. . ... : ... .. . ... ... : ... .. . ... ... : ... .. . ... ... : ... .. . ... ...
ROW 6F : ... .. . ... ... ... : ... .. . ... ... ... : ... .. . ... : ... .. . ... : ... .. . ... ... : ... .. . ... ... : ... .. . ... ... : ... .. . ... ...
ROW 70 : ... .. . ... ... ... : ... .. . ... ... ... : ... .. . ... : ... .. . ... : ... .. . ... ... : ... .. . ... ... : ... .. . ... ... : ... .. . ... ...
ROW 71 : ... .. . ... ... ... : ... .. . ... ... ... : ... .. . ... : ... .. . ... : ... .. . ... ... : ... .. . ... ... : ... .. . ... ... : ... .. . ... ...
ROW 72 : C#4 00 F ... ... ... : ... .. . ... ... ... : A#3 00 . ... : D-# 00 F ... : ... .. . ... ... : F#3 01 A ... ... : A#3 01 A P81 ... : ... .. . ... ...
ROW 73 : ... .. E ... ... ... : ... .. . ... ... ... : ... .. . ... : ... .. C ... : ... .. . ... ... : ... .. 9 ... ... : ... .. 9 ... ... : ... .. . ... ...
ROW 74 : ... .. D ... ... ... : ... .. . ... ... ... : ... .. . ... : ... .. 6 ... : ... .. . ... ... : ... .. . ... ... : ... .. . ... ... : ... .. . ... ...
ROW 75 : ... .. 0 ... V00 ... : ... .. . ... ... ... : --- .. . ... : ... .. 3 ... : ... .. . ... ... : ... .. 8 ... ... : ... .. 8 ... ... : ... .. . ... ...
ROW 76 : ... .. . ... ... ... : ... .. . ... ... ... : ... .. . ... : ... .. 2 ... : ... .. . ... ... : ... .. 7 ... ... : ... .. 7 ... ... : ... .. . ... ...
ROW 77 : C-4 00 F P80 V02 ... : ... .. . ... ... ... : A#3 00 . ... : ... .. F ... : ... .. . ... ... : --- .. . P7F ... : --- .. . ... ... : ... .. . ... ...
ROW 78 : ... .. E ... ... ... : ... .. . ... ... ... : ... .. . ... : ... .. C ... : ... .. . ... ... : ... .. . ... ... : ... .. . ... ... : ... .. . ... ...
ROW 79 : ... .. D ... ... ... : ... .. . ... ... ... : ... .. . ... : ... .. 6 ... : ... .. . ... ... : ... .. . ... ... : ... .. . ... ... : ... .. . ... ...
ROW 7A : ... .. 0 ... V00 ... : ... .. . ... ... ... : --- .. . ... : ... .. 3 ... : ... .. . ... ... : ... .. . ... ... : ... .. . ... ... : ... .. . ... ...
ROW 7B : ... .. . ... ... ... : ... .. . ... ... ... : ... .. . ... : ... .. 2 ... : ... .. . ... ... : ... .. . ... ... : ... .. . ... ... : ... .. . ... ...
ROW 7C : A#3 00 F P80 V02 ... : ... .. . ... ... ... : E-3 00 . ... : 6-# 00 F ... : ... .. . ... ... : ... .. . ... ... : ... .. . ... ... : ... .. . ... ...
ROW 7D : ... .. E ... ... ... : ... .. . ... ... ... : ... .. . ... : ... .. C ... : ... .. . ... ... : ... .. . ... ... : ... .. . ... ... : ... .. . ... ...
ROW 7E : ... .. D ... ... ... : ... .. . ... ... ... : ... .. . ... : ... .. 6 ... : ... .. . ... ... : ... .. . ... ... : ... .. . ... ... : ... .. . ... ...
ROW 7F : ... .. A ... ... ... : ... .. . ... ... ... : ... .. . ... : ... .. 3 ... : ... .. . ... ... : ... .. . ... ... : ... .. . ... ... : ... .. . ... ...
ROW 80 : ... .. . ... ... ... : ... .. . ... ... ... : ... .. . ... : ... .. 2 ... : ... .. . ... ... : ... .. . ... ... : ... .. . ... ... : ... .. . ... ...
ROW 81 : ... .. 0 ... V00 ... : ... .. . ... ... ... : --- .. . ... : ... .. 0 ... : ... .. . ... ... : ... .. . ... ... : ... .. . ... ... : ... .. . ... ...
ROW 82 : ... .. . ... ... ... : ... .. . ... ... ... : ... .. . ... : ... .. . ... : ... .. . ... ... : ... .. . ... ... : ... .. . ... ... : ... .. . ... ...
ROW 83 : ... .. . ... ... ... : ... .. . ... ... ... : ... .. . ... : ... .. . ... : ... .. . ... ... : ... .. . ... ... : ... .. . ... ... : ... .. . ... ...
ROW 84 : ... .. . ... ... ... : ... .. . ... ... ... : ... .. . ... : ... .. . ... : ... .. . ... ... : ... .. . ... ... : ... .. . ... ... : ... .. . ... ...
ROW 85 : ... .. . ... ... ... : ... .. . ... ... ... : ... .. . ... : ... .. . ... : ... .. . ... ... : ... .. . ... ... : ... .. . ... ... : ... .. . ... ...
ROW 86 : A#4 00 F P80 V02 ... : ... .. . ... ... ... : C-4 00 . ... : D-# 00 F ... : ... .. . ... ... : G-3 01 A P80 ... : A#3 01 A ... ... : ... .. . ... ...
ROW 87 : ... .. E ... ... ... : ... .. . ... ... ... : ... .. . ... : ... .. C ... : ... .. . ... ... : ... .. 9 ... ... : ... .. 9 ... ... : ... .. . ... ...
ROW 88 : ... .. D ... ... ... : ... .. . ... ... ... : ... .. . ... : ... .. 6 ... : ... .. . ... ... : ... .. . ... ... : ... .. . ... ... : ... .. . ... ...
ROW 89 : ... .. A ... ... ... : ... .. . ... ... ... : --- .. . ... : ... .. 3 ... : ... .. . ... ... : ... .. 8 ... ... : ... .. 8 ... ... : ... .. . ... ...
ROW 8A : ... .. . ... ... ... : ... .. . ... ... ... : ... .. . ... : ... .. 2 ... : ... .. . ... ... : ... .. 7 ... ... : ... .. 7 ... ... : ... .. . ... ...
ROW 8B : ... .. 0 ... V00 ... : ... .. . ... ... ... : C-4 00 . ... : ... .. 0 ... : ... .. . ... ... : --- .. . P81 ... : --- .. . ... ... : ... .. . ... ...
ROW 8C : ... .. . ... ... ... : ... .. . ... ... ... : ... .. . ... : ... .. . ... : ... .. . ... ... : ... .. . ... ... : ... .. . ... ... : ... .. . ... ...
ROW 8D : ... .. . ... ... ... : ... .. . ... ... ... : ... .. . ... : ... .. . ... : ... .. . ... ... : ... .. . ... ... : ... .. . ... ... : ... .. . ... ...
ROW 8E : ... .. . ... ... ... : ... .. . ... ... ... : --- .. . ... : ... .. . ... : ... .. . ... ... : ... .. . ... ... : ... .. . ... ... : ... .. . ... ...
ROW 8F : ... .. . ... ... ... : ... .. . ... ... ... : ... .. . ... : ... .. . ... : ... .. . ... ... : ... .. . ... ... : ... .. . ... ... : ... .. . ... ...
ROW 90 : A#3 00 F P80 V02 ... : ... .. . ... ... ... : F-3 00 . ... : 3-# 00 F ... : ... .. . ... ... : ... .. . ... ... : ... .. . ... ... : ... .. . ... ...
ROW 91 : ... .. E ... ... ... : ... .. . ... ... ... : ... .. . ... : ... .. C ... : ... .. . ... ... : ... .. . ... ... : ... .. . ... ... : ... .. . ... ...
ROW 92 : ... .. D ... ... ... : ... .. . ... ... ... : ... .. . ... : ... .. 6 ... : ... .. . ... ... : ... .. . ... ... : ... .. . ... ... : ... .. . ... ...
ROW 93 : ... .. A ... ... ... : ... .. . ... ... ... : ... .. . ... : ... .. 3 ... : ... .. . ... ... : ... .. . ... ... : ... .. . ... ... : ... .. . ... ...
ROW 94 : ... .. . ... ... ... : ... .. . ... ... ... : ... .. . ... : ... .. 2 ... : ... .. . ... ... : ... .. . ... ... : ... .. . ... ... : ... .. . ... ...
ROW 95 : ... .. . ... ... ... : ... .. . ... ... ... : --- .. . ... : ... .. 0 ... : ... .. . ... ... : ... .. . ... ... : ... .. . ... ... : ... .. . ... ...
ROW 96 : ... .. . ... ... ... : ... .. . ... ... ... : ... .. . ... : ... .. . ... : ... .. . ... ... : ... .. . ... ... : ... .. . ... ... : ... .. . ... ...
ROW 97 : ... .. . ... ... ... : ... .. . ... ... ... : ... .. . ... : ... .. . ... : ... .. . ... ... : ... .. . ... ... : ... .. . ... ... : ... .. . ... ...
ROW 98 : ... .. . ... ... ... : ... .. . ... ... ... : ... .. . ... : ... .. . ... : ... .. . ... ... : ... .. . ... ... : ... .. . ... ... : ... .. . ... ...
ROW 99 : ... .. . ... ... ... : ... .. . ... ... ... : ... .. . ... : ... .. . ... : ... .. . ... ... : ... .. . ... ... : ... .. . ... ... : ... .. . ... ...
ROW 9A : C-4 00 F ... ... ... : ... .. . ... ... ... : G#3 00 . ... : D-# 00 F ... : ... .. . ... ... : F-3 01 A P80 ... : G#3 01 A ... ... : ... .. . ... ...
ROW 9B : ... .. E ... ... ... : ... .. . ... ... ... : ... .. . ... : ... .. C ... : ... .. . ... ... : ... .. 9 ... ... : ... .. 9 ... ... : ... .. . ... ...
ROW 9C : ... .. D ... ... ... : ... .. . ... ... ... : ... .. . ... : ... .. 6 ... : ... .. . ... ... : ... .. . ... ... : ... .. . ... ... : ... .. . ... ...
ROW 9D : ... .. 0 ... V00 ... : ... .. . ... ... ... : ... .. . ... : ... .. 3 ... : ... .. . ... ... : ... .. 8 ... ... : ... .. 8 ... ... : ... .. . ... ...
ROW 9E : ... .. . ... ... ... : ... .. . ... ... ... : ... .. . ... : ... .. 2 ... : ... .. . ... ... : ... .. 7 ... ... : ... .. 7 ... ... : ... .. . ... ...
ROW 9F : A#3 00 F P80 V02 ... : ... .. . ... ... ... : --- .. . ... : ... .. F ... : ... .. . ... ... : --- .. . ... ... : --- .. . P83 ... : ... .. . ... ...
ROW A0 : ... .. E ... ... ... : ... .. . ... ... ... : ... .. . ... : ... .. C ... : ... .. . ... ... : ... .. . ... ... : ... .. . ... ... : ... .. . ... ...
ROW A1 : ... .. D ... ... ... : ... .. . ... ... ... : ... .. . ... : ... .. 6 ... : ... .. . ... ... : ... .. . ... ... : ... .. . ... ... : ... .. . ... ...
ROW A2 : ... .. 0 ... V00 ... : ... .. . ... ... ... : ... .. . ... : ... .. 3 ... : ... .. . ... ... : ... .. . ... ... : ... .. . ... ... : ... .. . ... ...
ROW A3 : ... .. . ... ... ... : ... .. . ... ... ... : ... .. . ... : ... .. 2 ... : ... .. . ... ... : ... .. . ... ... : ... .. . ... ... : ... .. . ... ...
ROW A4 : G#3 00 F P80 V02 ... : ... .. . ... ... ... : C-3 00 . ... : 6-# 00 F ... : ... .. . ... ... : ... .. . ... ... : ... .. . ... ... : ... .. . ... ...
ROW A5 : ... .. E ... ... ... : ... .. . ... ... ... : ... .. . ... : ... .. C ... : ... .. . ... ... : ... .. . ... ... : ... .. . ... ... : ... .. . ... ...
ROW A6 : ... .. D ... ... ... : ... .. . ... ... ... : ... .. . ... : ... .. 6 ... : ... .. . ... ... : ... .. . ... ... : ... .. . ... ... : ... .. . ... ...
ROW A7 : ... .. A ... ... ... : ... .. . ... ... ... : ... .. . ... : ... .. 3 ... : ... .. . ... ... : ... .. . ... ... : ... .. . ... ... : ... .. . ... ...
ROW A8 : ... .. . ... ... ... : ... .. . ... ... ... : ... .. . ... : ... .. 2 ... : ... .. . ... ... : ... .. . ... ... : ... .. . ... ... : ... .. . ... ...
ROW A9 : G-3 00 F ... ... ... : ... .. . ... ... ... : --- .. . ... : ... .. 0 ... : ... .. . ... ... : ... .. . ... ... : ... .. . ... ... : ... .. . ... ...
ROW AA : ... .. E ... ... ... : ... .. . ... ... ... : ... .. . ... : ... .. . ... : ... .. . ... ... : ... .. . ... ... : ... .. . ... ... : ... .. . ... ...
ROW AB : ... .. D ... ... ... : ... .. . ... ... ... : ... .. . ... : ... .. . ... : ... .. . ... ... : ... .. . ... ... : ... .. . ... ... : ... .. . ... ...
ROW AC : ... .. 0 ... V00 ... : ... .. . ... ... ... : ... .. . ... : ... .. . ... : ... .. . ... ... : ... .. . ... ... : ... .. . ... ... : ... .. . ... ...
ROW AD : ... .. . ... ... ... : ... .. . ... ... ... : ... .. . ... : ... .. . ... : ... .. . ... ... : ... .. . ... ... : ... .. . ... ... : ... .. . ... ...
ROW AE : F-3 00 F P80 V02 ... : ... .. . ... ... ... : G-3 00 . ... : D-# 00 F ... : ... .. . ... ... : E-3 01 A ... ... : G-3 01 A P81 ... : ... .. . ... ...
ROW AF : ... .. E ... ... ... : ... .. . ... ... ... : ... .. . ... : ... .. C ... : ... .. . ... ... : ... .. 9 ... ... : ... .. 9 ... ... : ... .. . ... ...
ROW B0 : ... .. D ... ... ... : ... .. . ... ... ... : ... .. . ... : ... .. 6 ... : ... .. . ... ... : ... .. . ... ... : ... .. . ... ... : ... .. . ... ...
ROW B1 : ... .. 0 ... V00 ... : ... .. . ... ... ... : ... .. . ... : ... .. 3 ... : ... .. . ... ... : ... .. 8 ... ... : ... .. 8 ... ... : ... .. . ... ...
ROW B2 : ... .. . ... ... ... : ... .. . ... ... ... : ... .. . ... : ... .. 2 ... : ... .. . ... ... : ... .. 7 ... ... : ... .. 7 ... ... : ... .. . ... ...
ROW B3 : E-3 00 F P80 V02 ... : ... .. . ... ... ... : --- .. . ... : ... .. 0 ... : ... .. . ... ... : --- .. . P82 ... : --- .. . P80 ... : ... .. . ... ...
ROW B4 : ... .. E ... ... ... : ... .. . ... ... ... : ... .. . ... : ... .. . ... : ... .. . ... ... : ... .. . ... ... : ... .. . ... ... : ... .. . ... ...
ROW B5 : ... .. D ... ... ... : ... .. . ... ... ... : ... .. . ... : ... .. . ... : ... .. . ... ... : ... .. . ... ... : ... .. . ... ... : ... .. . ... ...
ROW B6 : ... .. 0 ... V00 ... : ... .. . ... ... ... : ... .. . ... : ... .. . ... : ... .. . ... ... : ... .. . ... ... : ... .. . ... ... : ... .. . ... ...
ROW B7 : ... .. . ... ... ... : ... .. . ... ... ... : ... .. . ... : ... .. . ... : ... .. . ... ... : ... .. . ... ... : ... .. . ... ... : ... .. . ... ...
ROW B8 : F-3 00 F P80 V02 ... : ... .. . ... ... ... : F-3 00 . ... : 3-# 00 F ... : ... .. . ... ... : F-3 01 A P80 ... : G#3 01 A P81 ... : ... .. . ... ...
ROW B9 : ... .. E ... ... ... : ... .. . ... ... ... : ... .. . ... : ... .. C ... : ... .. . ... ... : ... .. 9 ... ... : ... .. 9 ... ... : ... .. . ... ...
ROW BA : ... .. D ... ... ... : ... .. . ... ... ... : ... .. . ... : ... .. 6 ... : ... .. . ... ... : ... .. . ... ... : ... .. . ... ... : ... .. . ... ...
ROW BB : ... .. A ... ... ... : ... .. . ... ... ... : ... .. . ... : ... .. 3 ... : ... .. . ... ... : ... .. 8 ... ... : ... .. 8 ... ... : ... .. . ... ...
ROW BC : ... .. . ... ... ... : ... .. . ... ... ... : ... .. . ... : ... .. 2 ... : ... .. . ... ... : ... .. 7 ... ... : ... .. 7 ... ... : ... .. . ... ...
ROW BD : ... .. 0 ... V00 ... : ... .. . ... ... ... : --- .. . ... : ... .. 0 ... : ... .. . ... ... : ... .. . ... ... : ... .. . ... ... : ... .. . ... ...
ROW BE : ... .. . ... ... ... : ... .. . ... ... ... : ... .. . ... : ... .. . ... : ... .. . ... ... : ... .. 6 ... ... : ... .. 6 ... ... : ... .. . ... ...
ROW BF : ... .. . ... ... ... : ... .. . ... ... ... : ... .. . ... : ... .. . ... : ... .. . ... ... : ... .. . ... ... : ... .. . ... ... : ... .. . ... ...
ROW C0 : ... .. . ... ... ... : ... .. . ... ... ... : ... .. . ... : ... .. . ... : ... .. . ... ... : ... .. . ... ... : ... .. . ... ... : ... .. . ... ...
ROW C1 : ... .. . ... ... ... : ... .. . ... ... ... : ... .. . ... : ... .. . ... : ... .. . ... ... : ... .. . ... ... : ... .. . ... ... : ... .. . ... ...
ROW C2 : ... .. . ... ... ... : ... .. . ... ... ... : G#5 00 . ... : ... .. . ... : ... .. . ... ... : --- .. . ... ... : --- .. . P83 ... : ... .. . ... ...
ROW C3 : ... .. . ... ... ... : ... .. . ... ... ... : ... .. . ... : ... .. . ... : ... .. . ... ... : ... .. . ... ... : ... .. . ... ... : ... .. . ... ...
ROW C4 : ... .. . ... ... ... : ... .. . ... ... ... : ... .. . ... : ... .. . ... : ... .. . ... ... : ... .. . ... ... : ... .. . ... ... : ... .. . ... ...
ROW C5 : ... .. . ... ... ... : ... .. . ... ... ... : ... .. . ... : ... .. . ... : ... .. . ... ... : ... .. . ... ... : ... .. . ... ... : ... .. . ... ...
ROW C6 : ... .. . ... ... ... : ... .. . ... ... ... : ... .. . ... : ... .. . ... : ... .. . ... ... : ... .. . ... ... : ... .. . ... ... : ... .. . ... ...
ROW C7 : ... .. . ... ... ... : ... .. . ... ... ... : --- .. . ... : ... .. . ... : ... .. . ... ... : ... .. . ... ... : ... .. . ... ... : ... .. . ... ...
ROW C8 : ... .. . ... ... ... : ... .. . ... ... ... : ... .. . ... : ... .. . ... : ... .. . ... ... : ... .. . ... ... : ... .. . ... ... : ... .. . ... ...
ROW C9 : ... .. . ... ... ... : ... .. . ... ... ... : ... .. . ... : ... .. . ... : ... .. . ... ... : ... .. . ... ... : ... .. . ... ... : ... .. . ... ...
ROW CA : ... .. . ... ... ... : ... .. . ... ... ... : ... .. . ... : ... .. . ... : ... .. . ... ... : ... .. . ... ... : ... .. . ... ... : ... .. . ... ...
ROW CB : ... .. . ... ... ... : ... .. . ... ... ... : ... .. . ... : ... .. . ... : ... .. . ... ... : ... .. . ... ... : ... .. . ... ... : ... .. . ... ...
ROW CC : ... .. . ... ... ... : ... .. . ... ... ... : E-4 00 . ... : ... .. . ... : ... .. . ... ... : ... .. . ... ... : ... .. . ... ... : ... .. . ... ...
ROW CD : ... .. . ... ... ... : ... .. . ... ... ... : F#3 00 . ... : ... .. . ... : ... .. . ... ... : ... .. . ... ... : ... .. . ... ... : ... .. . ... ...
ROW CE : ... .. . ... ... ... : ... .. . ... ... ... : B-2 00 . ... : ... .. . ... : ... .. . ... ... : ... .. . ... ... : ... .. . ... ... : ... .. . ... ...
ROW CF : ... .. . ... ... ... : ... .. . ... ... ... : A#2 00 . ... : ... .. . ... : ... .. . ... ... : ... .. . ... ... : ... .. . ... ... : ... .. . ... ...
ROW D0 : ... .. . ... ... ... : ... .. . ... ... ... : F-2 00 . ... : ... .. . ... : ... .. . ... ... : ... .. . ... ... : ... .. . ... ... : ... .. . ... ...
ROW D1 : ... .. . ... ... ... : ... .. . ... ... ... : ... .. . ... : ... .. . ... : ... .. . ... ... : ... .. . ... ... : ... .. . ... ... : ... .. . ... ...
ROW D2 : ... .. . ... ... ... : ... .. . ... ... ... : ... .. . ... : ... .. . ... : ... .. . ... ... : ... .. . ... ... : ... .. . ... ... : ... .. . ... ...
ROW D3 : ... .. . ... ... ... : ... .. . ... ... ... : ... .. . ... : ... .. . ... : ... .. . ... ... : ... .. . ... ... : ... .. . ... ... : ... .. . ... ...
ROW D4 : ... .. . ... ... ... : ... .. . ... ... ... : ... .. . ... : ... .. . ... : ... .. . ... ... : ... .. . ... ... : ... .. . ... ... : ... .. . ... ...
ROW D5 : ... .. . ... ... ... : ... .. . ... ... ... : ... .. . ... : ... .. . ... : ... .. . ... ... : ... .. . ... ... : ... .. . ... ... : ... .. . ... ...
ROW D6 : F-4 00 F P80 V02 ... : ... .. . ... ... ... : --- .. . ... : ... .. . ... : ... .. . ... ... : ... .. . ... ... : ... .. . ... ... : ... .. . ... ...
ROW D7 : ... .. E ... ... ... : ... .. . ... ... ... : ... .. . ... : ... .. . ... : ... .. . ... ... : ... .. . ... ... : ... .. . ... ... : ... .. . ... ...
ROW D8 : ... .. D ... ... ... : ... .. . ... ... ... : ... .. . ... : ... .. . ... : ... .. . ... ... : ... .. . ... ... : ... .. . ... ... : ... .. . ... ...
ROW D9 : ... .. A ... ... ... : ... .. . ... ... ... : ... .. . ... : ... .. . ... : ... .. . ... ... : ... .. . ... ... : ... .. . ... ... : ... .. . ... ...
ROW DA : ... .. . ... ... ... : ... .. . ... ... ... : ... .. . ... : ... .. . ... : ... .. . ... ... : ... .. . ... ... : ... .. . ... ... : ... .. . ... ...
ROW DB : G-4 00 F ... ... ... : ... .. . ... ... ... : ... .. . ... : ... .. . ... : ... .. . ... ... : ... .. . ... ... : ... .. . ... ... : ... .. . ... ...
ROW DC : ... .. E ... ... ... : ... .. . ... ... ... : ... .. . ... : ... .. . ... : ... .. . ... ... : ... .. . ... ... : ... .. . ... ... : ... .. . ... ...
ROW DD : ... .. D ... ... ... : ... .. . ... ... ... : ... .. . ... : ... .. . ... : ... .. . ... ... : ... .. . ... ... : ... .. . ... ... : ... .. . ... ...
ROW DE : F-4 00 F ... ... ... : ... .. . ... ... ... : ... .. . ... : ... .. . ... : ... .. . ... ... : ... .. . ... ... : ... .. . ... ... : ... .. . ... ...
ROW DF : ... .. E ... ... ... : ... .. . ... ... ... : ... .. . ... : ... .. . ... : ... .. . ... ... : ... .. . ... ... : ... .. . ... ... : ... .. . ... ...
ROW E0 : E-4 00 F ... ... ... : ... .. . ... ... ... : B-3 00 . ... : ... .. F ... : ... .. . ... ... : C-3 01 A ... ... : G-3 01 A P81 ... : ... .. . ... ...
ROW E1 : ... .. E ... ... ... : ... .. . ... ... ... : C#3 00 . ... : ... .. C ... : ... .. . ... ... : ... .. 9 ... ... : ... .. 9 ... ... : ... .. . ... ...
ROW E2 : ... .. D ... ... ... : ... .. . ... ... ... : F#2 00 . ... : ... .. 6 ... : ... .. . ... ... : ... .. . ... ... : ... .. . ... ... : ... .. . ... ...
ROW E3 : ... .. A ... ... ... : ... .. . ... ... ... : F-2 00 . ... : ... .. 3 ... : ... .. . ... ... : ... .. 8 ... ... : ... .. 8 ... ... : ... .. . ... ...
ROW E4 : ... .. . ... ... ... : ... .. . ... ... ... : C-2 00 . ... : ... .. 2 ... : ... .. . ... ... : ... .. 7 ... ... : ... .. 7 ... ... : ... .. . ... ...
ROW E5 : ... .. 0 ... V00 ... : ... .. . ... ... ... : ... .. . ... : ... .. 0 ... : ... .. . ... ... : A#2 01 A ... ... : E-3 01 A ... ... : ... .. . ... ...
ROW E6 : ... .. . ... ... ... : ... .. . ... ... ... : ... .. . ... : ... .. . ... : ... .. . ... ... : ... .. 9 ... ... : ... .. 9 ... ... : ... .. . ... ...
ROW E7 : ... .. . ... ... ... : ... .. . ... ... ... : ... .. . ... : ... .. . ... : ... .. . ... ... : ... .. . ... ... : ... .. . ... ... : ... .. . ... ...
ROW E8 : ... .. . ... ... ... : ... .. . ... ... ... : ... .. . ... : ... .. . ... : ... .. . ... ... : ... .. 8 ... ... : ... .. 8 ... ... : ... .. . ... ...
ROW E9 : ... .. . ... ... ... : ... .. . ... ... ... : ... .. . ... : ... .. . ... : ... .. . ... ... : ... .. 7 ... ... : ... .. 7 ... ... : ... .. . ... ...
ROW EA : E-4 00 F P80 V02 ... : ... .. . ... ... ... : ... .. . ... : D-# 00 F ... : ... .. . ... ... : C-3 01 A ... ... : G-3 01 A ... ... : ... .. . ... ...
ROW EB : ... .. E ... ... ... : ... .. . ... ... ... : ... .. . ... : ... .. C ... : ... .. . ... ... : ... .. 9 ... ... : ... .. 9 ... ... : ... .. . ... ...
ROW EC : ... .. D ... ... ... : ... .. . ... ... ... : ... .. . ... : ... .. 6 ... : ... .. . ... ... : ... .. . ... ... : ... .. . ... ... : ... .. . ... ...
ROW ED : ... .. 0 ... V00 ... : ... .. . ... ... ... : ... .. . ... : ... .. 3 ... : ... .. . ... ... : ... .. 8 ... ... : ... .. 8 ... ... : ... .. . ... ...
ROW EE : ... .. . ... ... ... : ... .. . ... ... ... : ... .. . ... : ... .. 2 ... : ... .. . ... ... : ... .. 7 ... ... : ... .. 7 ... ... : ... .. . ... ...
ROW EF : F-4 00 F P80 V02 ... : ... .. . ... ... ... : ... .. . ... : ... .. F ... : ... .. . ... ... : A#2 01 A ... ... : E-3 01 A ... ... : ... .. . ... ...
ROW F0 : ... .. E ... ... ... : ... .. . ... ... ... : ... .. . ... : ... .. C ... : ... .. . ... ... : ... .. 9 ... ... : ... .. 9 ... ... : ... .. . ... ...
ROW F1 : ... .. D ... ... ... : ... .. . ... ... ... : ... .. . ... : ... .. 6 ... : ... .. . ... ... : ... .. . ... ... : ... .. . ... ... : ... .. . ... ...
ROW F2 : ... .. 0 ... V00 ... : ... .. . ... ... ... : ... .. . ... : ... .. 3 ... : ... .. . ... ... : ... .. 8 ... ... : ... .. 8 ... ... : ... .. . ... ...
ROW F3 : ... .. . ... ... ... : ... .. . ... ... ... : ... .. . ... : ... .. 2 ... : ... .. . ... ... : ... .. 7 ... ... : ... .. 7 ... ... : ... .. . ... ...
ROW F4 : G-4 00 F P80 V02 ... : ... .. . ... ... ... : ... .. . ... : 6-# 00 F ... : ... .. . ... ... : C-3 01 A ... ... : G-3 01 A ... ... : ... .. . ... ...
ROW F5 : ... .. E ... ... ... : ... .. . ... ... ... : ... .. . ... : ... .. C ... : ... .. . ... ... : ... .. 9 ... ... : ... .. 9 ... ... : ... .. . ... ...
ROW F6 : ... .. D ... ... ... : ... .. . ... ... ... : ... .. . ... : ... .. 6 ... : ... .. . ... ... : ... .. . ... ... : ... .. . ... ... : ... .. . ... ...
ROW F7 : ... .. A ... ... ... : ... .. . ... ... ... : ... .. . ... : ... .. 3 ... : ... .. . ... ... : ... .. 8 ... ... : ... .. 8 ... ... : ... .. . ... ...
ROW F8 : ... .. . ... ... ... : ... .. . ... ... ... : ... .. . ... : ... .. 2 ... : ... .. . ... ... : ... .. 7 ... ... : ... .. 7 ... ... : ... .. . ... ...
ROW F9 : ... .. 0 ... V00 ... : ... .. . ... ... ... : ... .. . ... : ... .. 0 ... : ... .. . ... ... : A#2 01 A ... ... : E-3 01 A ... ... : ... .. . ... ...
ROW FA : ... .. . ... ... ... : ... .. . ... ... ... : ... .. . ... : ... .. . ... : ... .. . ... ... : ... .. 9 ... ... : ... .. 9 ... ... : ... .. . ... ...
ROW FB : ... .. . ... ... ... : ... .. . ... ... ... : ... .. . ... : ... .. . ... : ... .. . ... ... : ... .. . ... ... : ... .. . ... ... : ... .. . ... ...
ROW FC : ... .. . ... ... ... : ... .. . ... ... ... : ... .. . ... : ... .. . ... : ... .. . ... ... : ... .. 8 ... ... : ... .. 8 ... ... : ... .. . ... ...
ROW FD : ... .. . ... ... ... : ... .. . ... ... ... : ... .. . ... : ... .. . ... : ... .. . ... ... : ... .. 7 ... ... : ... .. 7 ... ... : ... .. . ... ...
ROW FE : E-4 00 F P80 V02 ... : ... .. . ... ... ... : ... .. . ... : D-# 00 F ... : ... .. . ... ... : C-3 01 A ... ... : G-3 01 A ... ... : ... .. . ... ...
ROW FF : ... .. E ... ... ... : ... .. . ... ... ... : ... .. . ... : ... .. C ... : ... .. . ... ... : ... .. 9 ... ... : ... .. 9 ... ... : ... .. . ... ...

PATTERN 07
ROW 00 : ... .. D ... ... ... : ... .. . ... ... ... : ... .. . ... : ... .. 6 ... : ... .. . ... ... : ... .. . ... ... : ... .. . ... ... : ... .. . ... ...
ROW 01 : ... .. A ... ... ... : ... .. . ... ... ... : ... .. . ... : ... .. 3 ... : ... .. . ... ... : ... .. 8 ... ... : ... .. 8 ... ... : ... .. . ... ...
ROW 02 : ... .. . ... ... ... : ... .. . ... ... ... : ... .. . ... : ... .. 2 ... : ... .. . ... ... : ... .. 7 ... ... : ... .. 7 ... ... : ... .. . ... ...
ROW 03 : ... .. 0 ... V00 ... : ... .. . ... ... ... : ... .. . ... : ... .. F ... : ... .. . ... ... : A#2 01 A ... ... : E-3 01 A ... ... : ... .. . ... ...
ROW 04 : ... .. . ... ... ... : ... .. . ... ... ... : ... .. . ... : ... .. C ... : ... .. . ... ... : ... .. 9 ... ... : ... .. 9 ... ... : ... .. . ... ...
ROW 05 : ... .. . ... ... ... : ... .. . ... ... ... : ... .. . ... : ... .. 6 ... : ... .. . ... ... : ... .. . ... ... : ... .. . ... ... : ... .. . ... ...
ROW 06 : ... .. . ... ... ... : ... .. . ... ... ... : ... .. . ... : ... .. 3 ... : ... .. . ... ... : ... .. 8 ... ... : ... .. 8 ... ... : ... .. . ... ...
ROW 07 : ... .. . ... ... ... : ... .. . ... ... ... : ... .. . ... : ... .. 2 ... : ... .. . ... ... : ... .. 7 ... ... : ... .. 7 ... ... : ... .. . ... ...
ROW 08 : F-4 00 F P80 V02 ... : ... .. . ... ... ... : B-4 00 . ... : 3-# 00 F ... : ... .. . ... ... : C-3 01 A ... ... : G#3 01 A ... ... : ... .. . ... ...
ROW 09 : ... .. E ... ... ... : ... .. . ... ... ... : C#4 00 . ... : ... .. C ... : ... .. . ... ... : ... .. 9 ... ... : ... .. 9 ... ... : ... .. . ... ...
ROW 0A : ... .. D ... ... ... : ... .. . ... ... ... : F#3 00 . ... : ... .. 6 ... : ... .. . ... ... : ... .. . ... ... : ... .. . ... ... : ... .. . ... ...
ROW 0B : ... .. A ... ... ... : ... .. . ... ... ... : F-3 00 . ... : ... .. 3 ... : ... .. . ... ... : ... .. 8 ... ... : ... .. 8 ... ... : ... .. . ... ...
ROW 0C : ... .. . ... ... ... : ... .. . ... ... ... : C-3 00 . ... : ... .. 2 ... : ... .. . ... ... : ... .. 7 ... ... : ... .. 7 ... ... : ... .. . ... ...
ROW 0D : ... .. 0 ... V00 ... : ... .. . ... ... ... : ... .. . ... : ... .. 0 ... : ... .. . ... ... : G#2 01 A ... ... : F-3 01 A ... ... : ... .. . ... ...
ROW 0E : ... .. . ... ... ... : ... .. . ... ... ... : ... .. . ... : ... .. . ... : ... .. . ... ... : ... .. 9 ... ... : ... .. 9 ... ... : ... .. . ... ...
ROW 0F : ... .. . ... ... ... : ... .. . ... ... ... : ... .. . ... : ... .. . ... : ... .. . ... ... : ... .. . ... ... : ... .. . ... ... : ... .. . ... ...
ROW 10 : ... .. . ... ... ... : ... .. . ... ... ... : ... .. . ... : ... .. . ... : ... .. . ... ... : ... .. 8 ... ... : ... .. 8 ... ... : ... .. . ... ...
ROW 11 : ... .. . ... ... ... : ... .. . ... ... ... : ... .. . ... : ... .. . ... : ... .. . ... ... : ... .. 7 ... ... : ... .. 7 ... ... : ... .. . ... ...
ROW 12 : F-4 00 F P80 V02 ... : ... .. . ... ... ... : ... .. . ... : D-# 00 F ... : ... .. . ... ... : C-3 01 A ... ... : G#3 01 A ... ... : ... .. . ... ...
ROW 13 : ... .. E ... ... ... : ... .. . ... ... ... : ... .. . ... : ... .. C ... : ... .. . ... ... : ... .. 9 ... ... : ... .. 9 ... ... : ... .. . ... ...
ROW 14 : ... .. D ... ... ... : ... .. . ... ... ... : ... .. . ... : ... .. 6 ... : ... .. . ... ... : ... .. . ... ... : ... .. . ... ... : ... .. . ... ...
ROW 15 : ... .. 0 ... V00 ... : ... .. . ... ... ... : ... .. . ... : ... .. 3 ... : ... .. . ... ... : ... .. 8 ... ... : ... .. 8 ... ... : ... .. . ... ...
ROW 16 : ... .. . ... ... ... : ... .. . ... ... ... : ... .. . ... : ... .. 2 ... : ... .. . ... ... : ... .. 7 ... ... : ... .. 7 ... ... : ... .. . ... ...
ROW 17 : G-4 00 F P80 V02 ... : ... .. . ... ... ... : ... .. . ... : ... .. F ... : ... .. . ... ... : G#2 01 A ... ... : F-3 01 A ... ... : ... .. . ... ...
ROW 18 : ... .. E ... ... ... : ... .. . ... ... ... : ... .. . ... : ... .. C ... : ... .. . ... ... : ... .. 9 ... ... : ... .. 9 ... ... : ... .. . ... ...
ROW 19 : ... .. D ... ... ... : ... .. . ... ... ... : ... .. . ... : ... .. 6 ... : ... .. . ... ... : ... .. . ... ... : ... .. . ... ... : ... .. . ... ...
ROW 1A : ... .. 0 ... V00 ... : ... .. . ... ... ... : ... .. . ... : ... .. 3 ... : ... .. . ... ... : ... .. 8 ... ... : ... .. 8 ... ... : ... .. . ... ...
ROW 1B : ... .. . ... ... ... : ... .. . ... ... ... : ... .. . ... : ... .. 2 ... : ... .. . ... ... : ... .. 7 ... ... : ... .. 7 ... ... : ... .. . ... ...
ROW 1C : G#4 00 F P80 V02 ... : ... .. . ... ... ... : ... .. . ... : 6-# 00 F ... : ... .. . ... ... : C-3 01 A ... ... : G#3 01 A ... ... : ... .. . ... ...
ROW 1D : ... .. E ... ... ... : ... .. . ... ... ... : ... .. . ... : ... .. C ... : ... .. . ... ... : ... .. 9 ... ... : ... .. 9 ... ... : ... .. . ... ...
ROW 1E : ... .. D ... ... ... : ... .. . ... ... ... : ... .. . ... : ... .. 6 ... : ... .. . ... ... : ... .. . ... ... : ... .. . ... ... : ... .. . ... ...
ROW 1F : ... .. A ... ... ... : ... .. . ... ... ... : ... .. . ... : ... .. 3 ... : ... .. . ... ... : ... .. 8 ... ... : ... .. 8 ... ... : ... .. . ... ...
ROW 20 : ... .. . ... ... ... : ... .. . ... ... ... : ... .. . ... : ... .. 2 ... : ... .. . ... ... : ... .. 7 ... ... : ... .. 7 ... ... : ... .. . ... ...
ROW 21 : ... .. 0 ... V00 ... : ... .. . ... ... ... : ... .. . ... : ... .. 0 ... : ... .. . ... ... : G#2 01 A ... ... : F-3 01 A ... ... : ... .. . ... ...
ROW 22 : ... .. . ... ... ... : ... .. . ... ... ... : ... .. . ... : ... .. . ... : ... .. . ... ... : ... .. 9 ... ... : ... .. 9 ... ... : ... .. . ... ...
ROW 23 : ... .. . ... ... ... : ... .. . ... ... ... : ... .. . ... : ... .. . ... : ... .. . ... ... : ... .. . ... ... : ... .. . ... ... : ... .. . ... ...
ROW 24 : ... .. . ... ... ... : ... .. . ... ... ... : ... .. . ... : ... .. . ... : ... .. . ... ... : ... .. 8 ... ... : ... .. 8 ... ... : ... .. . ... ...
ROW 25 : ... .. . ... ... ... : ... .. . ... ... ... : ... .. . ... : ... .. . ... : ... .. . ... ... : ... .. 7 ... ... : ... .. 7 ... ... : ... .. . ... ...
ROW 26 : F-4 00 F P80 V02 ... : ... .. . ... ... ... : ... .. . ... : D-# 00 F ... : ... .. . ... ... : C-3 01 A ... ... : G#3 01 A ... ... : ... .. . ... ...
ROW 27 : ... .. E ... ... ... : ... .. . ... ... ... : ... .. . ... : ... .. C ... : ... .. . ... ... : ... .. 9 ... ... : ... .. 9 ... ... : ... .. . ... ...
ROW 28 : ... .. D ... ... ... : ... .. . ... ... ... : ... .. . ... : ... .. 6 ... : ... .. . ... ... : ... .. . ... ... : ... .. . ... ... : ... .. . ... ...
ROW 29 : ... .. A ... ... ... : ... .. . ... ... ... : ... .. . ... : ... .. 3 ... : ... .. . ... ... : ... .. 8 ... ... : ... .. 8 ... ... : ... .. . ... ...
ROW 2A : ... .. . ... ... ... : ... .. . ... ... ... : ... .. . ... : ... .. 2 ... : ... .. . ... ... : ... .. 7 ... ... : ... .. 7 ... ... : ... .. . ... ...
ROW 2B : ... .. 0 ... V00 ... : ... .. . ... ... ... : ... .. . ... : ... .. 0 ... : ... .. . ... ... : G#2 01 A ... ... : F-3 01 A ... ... : ... .. . ... ...
ROW 2C : ... .. . ... ... ... : ... .. . ... ... ... : ... .. . ... : ... .. . ... : ... .. . ... ... : ... .. 9 ... ... : ... .. 9 ... ... : ... .. . ... ...
ROW 2D : ... .. . ... ... ... : ... .. . ... ... ... : ... .. . ... : ... .. . ... : ... .. . ... ... : ... .. . ... ... : ... .. . ... ... : ... .. . ... ...
ROW 2E : ... .. . ... ... ... : ... .. . ... ... ... : ... .. . ... : ... .. . ... : ... .. . ... ... : ... .. 8 ... ... : ... .. 8 ... ... : ... .. . ... ...
ROW 2F : ... .. . ... ... ... : ... .. . ... ... ... : ... .. . ... : ... .. . ... : ... .. . ... ... : ... .. 7 ... ... : ... .. 7 ... ... : ... .. . ... ...
ROW 30 : G-4 00 F P80 V02 ... : ... .. . ... ... ... : A-5 00 . ... : 3-# 00 F ... : ... .. . ... ... : D#3 01 A ... ... : A#3 01 A ... ... : ... .. . ... ...
ROW 31 : ... .. E ... ... ... : ... .. . ... ... ... : B-4 00 . ... : ... .. C ... : ... .. . ... ... : ... .. 9 ... ... : ... .. 9 ... ... : ... .. . ... ...
ROW 32 : ... .. D ... ... ... : ... .. . ... ... ... : E-4 00 . ... : ... .. 6 ... : ... .. . ... ... : ... .. . ... ... : ... .. . ... ... : ... .. . ... ...
ROW 33 : ... .. A ... ... ... : ... .. . ... ... ... : D#4 00 . ... : ... .. 3 ... : ... .. . ... ... : ... .. 8 ... ... : ... .. 8 ... ... : ... .. . ... ...
ROW 34 : ... .. . ... ... ... : ... .. . ... ... ... : A#3 00 . ... : ... .. 2 ... : ... .. . ... ... : ... .. 7 ... ... : ... .. 7 ... ... : ... .. . ... ...
ROW 35 : ... .. . ... ... ... : ... .. . ... ... ... : ... .. . ... : ... .. 0 ... : ... .. . ... ... : A#2 01 A ... ... : G-3 01 A ... ... : ... .. . ... ...
ROW 36 : ... .. . ... ... ... : ... .. . ... ... ... : ... .. . ... : ... .. . ... : ... .. . ... ... : ... .. 9 ... ... : ... .. 9 ... ... : ... .. . ... ...
ROW 37 : ... .. . ... ... ... : ... .. . ... ... ... : ... .. . ... : ... .. . ... : ... .. . ... ... : ... .. . ... ... : ... .. . ... ... : ... .. . ... ...
ROW 38 : ... .. . ... ... ... : ... .. . ... ... ... : ... .. . ... : ... .. . ... : ... .. . ... ... : ... .. 8 ... ... : ... .. 8 ... ... : ... .. . ... ...
ROW 39 : ... .. . ... ... ... : ... .. . ... ... ... : ... .. . ... : ... .. . ... : ... .. . ... ... : ... .. 7 ... ... : ... .. 7 ... ... : ... .. . ... ...
ROW 3A : ... .. F ... ... ... : ... .. . ... ... ... : ... .. . ... : D-# 00 F ... : ... .. . ... ... : D#3 01 A ... ... : A#3 01 A ... ... : ... .. . ... ...
ROW 3B : ... .. E ... ... ... : ... .. . ... ... ... : ... .. . ... : ... .. C ... : ... .. . ... ... : ... .. 9 ... ... : ... .. 9 ... ... : ... .. . ... ...
ROW 3C : ... .. D ... ... ... : ... .. . ... ... ... : ... .. . ... : ... .. 6 ... : ... .. . ... ... : ... .. . ... ... : ... .. . ... ... : ... .. . ... ...
ROW 3D : ... .. 0 ... V00 ... : ... .. . ... ... ... : ... .. . ... : ... .. 3 ... : ... .. . ... ... : ... .. 8 ... ... : ... .. 8 ... ... : ... .. . ... ...
ROW 3E : ... .. . ... ... ... : ... .. . ... ... ... : ... .. . ... : ... .. 2 ... : ... .. . ... ... : ... .. 7 ... ... : ... .. 7 ... ... : ... .. . ... ...
ROW 3F : G#4 00 F P80 V02 ... : ... .. . ... ... ... : ... .. . ... : ... .. F ... : ... .. . ... ... : A#2 01 A ... ... : G-3 01 A ... ... : ... .. . ... ...
ROW 40 : ... .. E ... ... ... : ... .. . ... ... ... : ... .. . ... : ... .. C ... : ... .. . ... ... : ... .. 9 ... ... : ... .. 9 ... ... : ... .. . ... ...
ROW 41 : ... .. D ... ... ... : ... .. . ... ... ... : ... .. . ... : ... .. 6 ... : ... .. . ... ... : ... .. . ... ... : ... .. . ... ... : ... .. . ... ...
ROW 42 : ... .. 0 ... V00 ... : ... .. . ... ... ... : ... .. . ... : ... .. 3 ... : ... .. . ... ... : ... .. 8 ... ... : ... .. 8 ... ... : ... .. . ... ...
ROW 43 : ... .. . ... ... ... : ... .. . ... ... ... : ... .. . ... : ... .. 2 ... : ... .. . ... ... : ... .. 7 ... ... : ... .. 7 ... ... : ... .. . ... ...
ROW 44 : A#4 00 F P80 V02 ... : ... .. . ... ... ... : D#4 00 . ... : 6-# 00 F ... : ... .. . ... ... : D#3 01 A ... ... : A#3 01 A ... ... : ... .. . ... ...
ROW 45 : ... .. E ... ... ... : ... .. . ... ... ... : ... .. . ... : ... .. C ... : ... .. . ... ... : ... .. 9 ... ... : ... .. 9 ... ... : ... .. . ... ...
ROW 46 : ... .. D ... ... ... : ... .. . ... ... ... : ... .. . ... : ... .. 6 ... : ... .. . ... ... : ... .. . ... ... : ... .. . ... ... : ... .. . ... ...
ROW 47 : ... .. A ... ... ... : ... .. . ... ... ... : --- .. . ... : ... .. 3 ... : ... .. . ... ... : ... .. 8 ... ... : ... .. 8 ... ... : ... .. . ... ...
ROW 48 : ... .. . ... ... ... : ... .. . ... ... ... : ... .. . ... : ... .. 2 ... : ... .. . ... ... : ... .. 7 ... ... : ... .. 7 ... ... : ... .. . ... ...
ROW 49 : ... .. 0 ... V00 ... : ... .. . ... ... ... : C#4 00 . ... : ... .. 0 ... : ... .. . ... ... : A#2 01 A ... ... : G-3 01 A ... ... : ... .. . ... ...
ROW 4A : ... .. . ... ... ... : ... .. . ... ... ... : ... .. . ... : ... .. . ... : ... .. . ... ... : ... .. 9 ... ... : ... .. 9 ... ... : ... .. . ... ...
ROW 4B : ... .. . ... ... ... : ... .. . ... ... ... : ... .. . ... : ... .. . ... : ... .. . ... ... : ... .. . ... ... : ... .. . ... ... : ... .. . ... ...
ROW 4C : ... .. . ... ... ... : ... .. . ... ... ... : --- .. . ... : ... .. . ... : ... .. . ... ... : ... .. 8 ... ... : ... .. 8 ... ... : ... .. . ... ...
ROW 4D : ... .. . ... ... ... : ... .. . ... ... ... : ... .. . ... : ... .. . ... : ... .. . ... ... : ... .. 7 ... ... : ... .. 7 ... ... : ... .. . ... ...
ROW 4E : D#4 00 F P80 V02 ... : ... .. . ... ... ... : C-4 00 . ... : D-# 00 F ... : ... .. . ... ... : D#3 01 A ... ... : A#3 01 A ... ... : ... .. . ... ...
ROW 4F : ... .. E ... ... ... : ... .. . ... ... ... : ... .. . ... : ... .. C ... : ... .. . ... ... : ... .. 9 ... ... : ... .. 9 ... ... : ... .. . ... ...
ROW 50 : ... .. D ... ... ... : ... .. . ... ... ... : ... .. . ... : ... .. 6 ... : ... .. . ... ... : ... .. . ... ... : ... .. . ... ... : ... .. . ... ...
ROW 51 : ... .. A ... ... ... : ... .. . ... ... ... : --- .. . ... : ... .. 3 ... : ... .. . ... ... : ... .. 8 ... ... : ... .. 8 ... ... : ... .. . ... ...
ROW 52 : ... .. . ... ... ... : ... .. . ... ... ... : ... .. . ... : ... .. 2 ... : ... .. . ... ... : ... .. 7 ... ... : ... .. 7 ... ... : ... .. . ... ...
ROW 53 : ... .. 0 ... V00 ... : ... .. . ... ... ... : A#3 00 . ... : ... .. 0 ... : ... .. . ... ... : A#2 01 A ... ... : G-3 01 A ... ... : ... .. . ... ...
ROW 54 : ... .. . ... ... ... : ... .. . ... ... ... : ... .. . ... : ... .. . ... : ... .. . ... ... : ... .. 9 ... ... : ... .. 9 ... ... : ... .. . ... ...
ROW 55 : ... .. . ... ... ... : ... .. . ... ... ... : ... .. . ... : ... .. . ... : ... .. . ... ... : ... .. . ... ... : ... .. . ... ... : ... .. . ... ...
ROW 56 : ... .. . ... ... ... : ... .. . ... ... ... : --- .. . ... : ... .. . ... : ... .. . ... ... : ... .. 8 ... ... : ... .. 8 ... ... : ... .. . ... ...
ROW 57 : ... .. . ... ... ... : ... .. . ... ... ... : ... .. . ... : ... .. . ... : ... .. . ... ... : ... .. 7 ... ... : ... .. 7 ... ... : ... .. . ... ...
ROW 58 : D#5 00 F P80 V02 ... : ... .. . ... ... ... : G#3 00 . ... : 3-# 00 F ... : ... .. . ... ... : D#3 01 A ... ... : C-4 01 A ... ... : ... .. . ... ...
ROW 59 : ... .. E ... ... ... : ... .. . ... ... ... : ... .. . ... : ... .. C ... : ... .. . ... ... : ... .. 9 ... ... : ... .. 9 ... ... : ... .. . ... ...
ROW 5A : ... .. D ... ... ... : ... .. . ... ... ... : ... .. . ... : ... .. 6 ... : ... .. . ... ... : ... .. . ... ... : ... .. . ... ... : ... .. . ... ...
ROW 5B : ... .. A ... ... ... : ... .. . ... ... ... : ... .. . ... : ... .. 3 ... : ... .. . ... ... : ... .. 8 ... ... : ... .. 8 ... ... : ... .. . ... ...
ROW 5C : ... .. . ... ... ... : ... .. . ... ... ... : ... .. . ... : ... .. 2 ... : ... .. . ... ... : --- .. . P83 ... : ... .. 7 ... ... : ... .. . ... ...
ROW 5D : ... .. . ... ... ... : ... .. . ... ... ... : --- .. . ... : ... .. 0 ... : ... .. . ... ... : G#3 01 A P80 ... : ... .. . ... ... : ... .. . ... ...
ROW 5E : ... .. . ... ... ... : ... .. . ... ... ... : ... .. . ... : ... .. . ... : ... .. . ... ... : ... .. 9 ... ... : ... .. 6 ... ... : ... .. . ... ...
ROW 5F : ... .. . ... ... ... : ... .. . ... ... ... : ... .. . ... : ... .. . ... : ... .. . ... ... : ... .. . ... ... : ... .. . ... ... : ... .. . ... ...
ROW 60 : ... .. . ... ... ... : ... .. . ... ... ... : ... .. . ... : ... .. . ... : ... .. . ... ... : ... .. 8 ... ... : ... .. . ... ... : ... .. . ... ...
ROW 61 : ... .. . ... ... ... : ... .. . ... ... ... : ... .. . ... : ... .. . ... : ... .. . ... ... : --- .. . P82 ... : ... .. . ... ... : ... .. . ... ...
ROW 62 : D#4 00 F ... ... ... : ... .. . ... ... ... : C-5 00 . ... : D-# 00 F ... : ... .. . ... ... : D#3 01 A P80 ... : D#4 01 A ... ... : ... .. . ... ...
ROW 63 : ... .. E ... ... ... : ... .. . ... ... ... : ... .. . ... : ... .. C ... : ... .. . ... ... : ... .. 9 ... ... : ... .. 9 ... ... : ... .. . ... ...
ROW 64 : ... .. D ... ... ... : ... .. . ... ... ... : ... .. . ... : ... .. 6 ... : ... .. . ... ... : ... .. . ... ... : ... .. . ... ... : ... .. . ... ...
ROW 65 : ... .. A ... ... ... : ... .. . ... ... ... : ... .. . ... : ... .. 3 ... : ... .. . ... ... : ... .. 8 ... ... : ... .. 8 ... ... : ... .. . ... ...
ROW 66 : ... .. . ... ... ... : ... .. . ... ... ... : ... .. . ... : ... .. 2 ... : ... .. . ... ... : --- .. . P83 ... : ... .. 7 ... ... : ... .. . ... ...
ROW 67 : ... .. 0 ... V00 ... : ... .. . ... ... ... : --- .. . ... : ... .. F ... : ... .. . ... ... : G#3 01 A P80 ... : C-4 01 A ... ... : ... .. . ... ...
ROW 68 : ... .. . ... ... ... : ... .. . ... ... ... : ... .. . ... : ... .. C ... : ... .. . ... ... : ... .. 9 ... ... : ... .. 9 ... ... : ... .. . ... ...
ROW 69 : ... .. . ... ... ... : ... .. . ... ... ... : ... .. . ... : ... .. 6 ... : ... .. . ... ... : ... .. . ... ... : ... .. . ... ... : ... .. . ... ...
ROW 6A : ... .. . ... ... ... : ... .. . ... ... ... : ... .. . ... : ... .. 3 ... : ... .. . ... ... : ... .. 8 ... ... : ... .. 8 ... ... : ... .. . ... ...
ROW 6B : ... .. . ... ... ... : ... .. . ... ... ... : ... .. . ... : ... .. 2 ... : ... .. . ... ... : --- .. . P82 ... : ... .. 7 ... ... : ... .. . ... ...
ROW 6C : D-5 00 F P80 V02 ... : ... .. . ... ... ... : G-3 00 . ... : 6-# 00 F ... : ... .. . ... ... : D-3 01 A P80 ... : B-3 01 A ... ... : ... .. . ... ...
ROW 6D : ... .. E ... ... ... : ... .. . ... ... ... : ... .. . ... : ... .. C ... : ... .. . ... ... : ... .. 9 ... ... : ... .. 9 ... ... : ... .. . ... ...
ROW 6E : ... .. D ... ... ... : ... .. . ... ... ... : ... .. . ... : ... .. 6 ... : ... .. . ... ... : ... .. . ... ... : ... .. . ... ... : ... .. . ... ...
ROW 6F : ... .. A ... ... ... : ... .. . ... ... ... : ... .. . ... : ... .. 3 ... : ... .. . ... ... : ... .. 8 ... ... : ... .. 8 ... ... : ... .. . ... ...
ROW 70 : ... .. . ... ... ... : ... .. . ... ... ... : ... .. . ... : ... .. 2 ... : ... .. . ... ... : --- .. . P82 ... : ... .. 7 ... ... : ... .. . ... ...
ROW 71 : ... .. . ... ... ... : ... .. . ... ... ... : --- .. . ... : ... .. 0 ... : ... .. . ... ... : G-3 01 A P80 ... : ... .. . ... ... : ... .. . ... ...
ROW 72 : ... .. . ... ... ... : ... .. . ... ... ... : ... .. . ... : ... .. . ... : ... .. . ... ... : ... .. 9 ... ... : ... .. 6 ... ... : ... .. . ... ...
ROW 73 : ... .. . ... ... ... : ... .. . ... ... ... : ... .. . ... : ... .. . ... : ... .. . ... ... : ... .. . ... ... : ... .. . ... ... : ... .. . ... ...
ROW 74 : ... .. . ... ... ... : ... .. . ... ... ... : ... .. . ... : ... .. . ... : ... .. . ... ... : ... .. 8 ... ... : ... .. . ... ... : ... .. . ... ...
ROW 75 : ... .. . ... ... ... : ... .. . ... ... ... : ... .. . ... : ... .. . ... : ... .. . ... ... : --- .. . P81 ... : ... .. . ... ... : ... .. . ... ...
ROW 76 : D-4 00 F ... ... ... : ... .. . ... ... ... : B-4 00 . ... : D-# 00 F ... : ... .. . ... ... : D-3 01 A P80 ... : D-4 01 A ... ... : ... .. . ... ...
ROW 77 : ... .. E ... ... ... : ... .. . ... ... ... : ... .. . ... : ... .. C ... : ... .. . ... ... : ... .. 9 ... ... : ... .. 9 ... ... : ... .. . ... ...
ROW 78 : ... .. D ... ... ... : ... .. . ... ... ... : ... .. . ... : ... .. 6 ... : ... .. . ... ... : ... .. . ... ... : ... .. . ... ... : ... .. . ... ...
ROW 79 : ... .. A ... ... ... : ... .. . ... ... ... : ... .. . ... : ... .. 3 ... : ... .. . ... ... : ... .. 8 ... ... : ... .. 8 ... ... : ... .. . ... ...
ROW 7A : ... .. . ... ... ... : ... .. . ... ... ... : ... .. . ... : ... .. 2 ... : ... .. . ... ... : --- .. . P82 ... : ... .. 7 ... ... : ... .. . ... ...
ROW 7B : ... .. 0 ... V00 ... : ... .. . ... ... ... : --- .. . ... : ... .. F ... : ... .. . ... ... : G-3 01 A P80 ... : B-3 01 A ... ... : ... .. . ... ...
ROW 7C : ... .. . ... ... ... : ... .. . ... ... ... : ... .. . ... : ... .. C ... : ... .. . ... ... : ... .. 9 ... ... : ... .. 9 ... ... : ... .. . ... ...
ROW 7D : ... .. . ... ... ... : ... .. . ... ... ... : ... .. . ... : ... .. 6 ... : ... .. . ... ... : ... .. . ... ... : ... .. . ... ... : ... .. . ... ...
ROW 7E : ... .. . ... ... ... : ... .. . ... ... ... : ... .. . ... : ... .. 3 ... : ... .. . ... ... : ... .. 8 ... ... : ... .. 8 ... ... : ... .. . ... ...
ROW 7F : ... .. . ... ... ... : ... .. . ... ... ... : ... .. . ... : ... .. 2 ... : ... .. . ... ... : --- .. . P81 ... : ... .. 7 ... ... : ... .. . ... ...
ROW 80 : C#5 00 F P80 V02 ... : ... .. . ... ... ... : F#3 00 . ... : 3-# 00 F ... : ... .. . ... ... : C#3 01 A P80 ... : A#3 01 A ... ... : ... .. . ... ...
ROW 81 : ... .. E ... ... ... : ... .. . ... ... ... : ... .. . ... : ... .. C ... : ... .. . ... ... : ... .. 9 ... ... : ... .. 9 ... ... : ... .. . ... ...
ROW 82 : ... .. D ... ... ... : ... .. . ... ... ... : ... .. . ... : ... .. 6 ... : ... .. . ... ... : ... .. . ... ... : ... .. . ... ... : ... .. . ... ...
ROW 83 : ... .. A ... ... ... : ... .. . ... ... ... : ... .. . ... : ... .. 3 ... : ... .. . ... ... : ... .. 8 ... ... : ... .. 8 ... ... : ... .. . ... ...
ROW 84 : ... .. . ... ... ... : ... .. . ... ... ... : ... .. . ... : ... .. 2 ... : ... .. . ... ... : --- .. . P83 ... : ... .. 7 ... ... : ... .. . ... ...
ROW 85 : ... .. 0 ... V00 ... : ... .. . ... ... ... : --- .. . ... : ... .. 0 ... : ... .. . ... ... : F#3 01 A P80 ... : ... .. . ... ... : ... .. . ... ...
ROW 86 : ... .. . ... ... ... : ... .. . ... ... ... : ... .. . ... : ... .. . ... : ... .. . ... ... : ... .. 9 ... ... : ... .. 6 ... ... : ... .. . ... ...
ROW 87 : ... .. . ... ... ... : ... .. . ... ... ... : ... .. . ... : ... .. . ... : ... .. . ... ... : ... .. . ... ... : ... .. . ... ... : ... .. . ... ...
ROW 88 : ... .. . ... ... ... : ... .. . ... ... ... : ... .. . ... : ... .. . ... : ... .. . ... ... : ... .. 8 ... ... : ... .. . ... ... : ... .. . ... ...
ROW 89 : ... .. . ... ... ... : ... .. . ... ... ... : ... .. . ... : ... .. . ... : ... .. . ... ... : --- .. . P7F ... : ... .. . ... ... : ... .. . ... ...
ROW 8A : C#4 00 F P80 V02 ... : ... .. . ... ... ... : E-4 00 . ... : D-# 00 F ... : ... .. . ... ... : C#3 01 A P80 ... : C#4 01 A ... ... : ... .. . ... ...
ROW 8B : ... .. E ... ... ... : ... .. . ... ... ... : ... .. . ... : ... .. C ... : ... .. . ... ... : ... .. 9 ... ... : ... .. 9 ... ... : ... .. . ... ...
ROW 8C : ... .. D ... ... ... : ... .. . ... ... ... : ... .. . ... : ... .. 6 ... : ... .. . ... ... : ... .. . ... ... : ... .. . ... ... : ... .. . ... ...
ROW 8D : ... .. A ... ... ... : ... .. . ... ... ... : ... .. . ... : ... .. 3 ... : ... .. . ... ... : ... .. 8 ... ... : ... .. 8 ... ... : ... .. . ... ...
ROW 8E : ... .. . ... ... ... : ... .. . ... ... ... : ... .. . ... : ... .. 2 ... : ... .. . ... ... : --- .. . P83 ... : ... .. 7 ... ... : ... .. . ... ...
ROW 8F : ... .. 0 ... V00 ... : ... .. . ... ... ... : --- .. . ... : ... .. F ... : ... .. . ... ... : F#3 01 A P80 ... : A#3 01 A ... ... : ... .. . ... ...
ROW 90 : ... .. . ... ... ... : ... .. . ... ... ... : ... .. . ... : ... .. C ... : ... .. . ... ... : ... .. 9 ... ... : ... .. 9 ... ... : ... .. . ... ...
ROW 91 : ... .. . ... ... ... : ... .. . ... ... ... : ... .. . ... : ... .. 6 ... : ... .. . ... ... : ... .. . ... ... : ... .. . ... ... : ... .. . ... ...
ROW 92 : ... .. . ... ... ... : ... .. . ... ... ... : ... .. . ... : ... .. 3 ... : ... .. . ... ... : ... .. 8 ... ... : ... .. 8 ... ... : ... .. . ... ...
ROW 93 : ... .. . ... ... ... : ... .. . ... ... ... : ... .. . ... : ... .. 2 ... : ... .. . ... ... : --- .. . P7F ... : ... .. 7 ... ... : ... .. . ... ...
ROW 94 : C-5 00 F P80 V02 ... : ... .. . ... ... ... : F-3 00 . ... : 6-# 00 F ... : ... .. . ... ... : C-3 01 A P80 ... : G#3 01 A ... ... : ... .. . ... ...
ROW 95 : ... .. E ... ... ... : ... .. . ... ... ... : ... .. . ... : ... .. C ... : ... .. . ... ... : ... .. 9 ... ... : ... .. 9 ... ... : ... .. . ... ...
ROW 96 : ... .. D ... ... ... : ... .. . ... ... ... : ... .. . ... : ... .. 6 ... : ... .. . ... ... : ... .. . ... ... : ... .. . ... ... : ... .. . ... ...
ROW 97 : ... .. A ... ... ... : ... .. . ... ... ... : ... .. . ... : ... .. 3 ... : ... .. . ... ... : ... .. 8 ... ... : ... .. 8 ... ... : ... .. . ... ...
ROW 98 : ... .. . ... ... ... : ... .. . ... ... ... : ... .. . ... : ... .. 2 ... : ... .. . ... ... : --- .. . P7E ... : ... .. 7 ... ... : ... .. . ... ...
ROW 99 : ... .. 0 ... V00 ... : ... .. . ... ... ... : --- .. . ... : ... .. 0 ... : ... .. . ... ... : F-3 01 A P80 ... : ... .. . ... ... : ... .. . ... ...
ROW 9A : ... .. . ... ... ... : ... .. . ... ... ... : ... .. . ... : ... .. . ... : ... .. . ... ... : ... .. 9 ... ... : ... .. 6 ... ... : ... .. . ... ...
ROW 9B : ... .. . ... ... ... : ... .. . ... ... ... : ... .. . ... : ... .. . ... : ... .. . ... ... : ... .. . ... ... : ... .. . ... ... : ... .. . ... ...
ROW 9C : ... .. . ... ... ... : ... .. . ... ... ... : ... .. . ... : ... .. . ... : ... .. . ... ... : ... .. 8 ... ... : ... .. . ... ... : ... .. . ... ...
ROW 9D : ... .. . ... ... ... : ... .. . ... ... ... : ... .. . ... : ... .. . ... : ... .. . ... ... : --- .. . ... ... : ... .. . ... ... : ... .. . ... ...
ROW 9E : C-4 00 F P80 V02 ... : ... .. . ... ... ... : G#4 00 . ... : D-# 00 F ... : ... .. . ... ... : C-3 01 A ... ... : C-4 01 A ... ... : ... .. . ... ...
ROW 9F : ... .. E ... ... ... : ... .. . ... ... ... : ... .. . ... : ... .. C ... : ... .. . ... ... : ... .. 9 ... ... : ... .. 9 ... ... : ... .. . ... ...
ROW A0 : ... .. D ... ... ... : ... .. . ... ... ... : ... .. . ... : ... .. 6 ... : ... .. . ... ... : ... .. . ... ... : ... .. . ... ... : ... .. . ... ...
ROW A1 : ... .. A ... ... ... : ... .. . ... ... ... : ... .. . ... : ... .. 3 ... : ... .. . ... ... : ... .. 8 ... ... : ... .. 8 ... ... : ... .. . ... ...
ROW A2 : ... .. . ... ... ... : ... .. . ... ... ... : ... .. . ... : ... .. 2 ... : ... .. . ... ... : --- .. . P7E ... : ... .. 7 ... ... : ... .. . ... ...
ROW A3 : ... .. 0 ... V00 ... : ... .. . ... ... ... : --- .. . ... : ... .. 0 ... : ... .. . ... ... : F-3 01 A P80 ... : G#3 01 A ... ... : ... .. . ... ...
ROW A4 : ... .. . ... ... ... : ... .. . ... ... ... : ... .. . ... : ... .. . ... : ... .. . ... ... : ... .. 9 ... ... : ... .. 9 ... ... : ... .. . ... ...
ROW A5 : ... .. . ... ... ... : ... .. . ... ... ... : ... .. . ... : ... .. . ... : ... .. . ... ... : ... .. . ... ... : ... .. . ... ... : ... .. . ... ...
ROW A6 : ... .. . ... ... ... : ... .. . ... ... ... : ... .. . ... : ... .. . ... : ... .. . ... ... : ... .. 8 ... ... : ... .. 8 ... ... : ... .. . ... ...
ROW A7 : ... .. . ... ... ... : ... .. . ... ... ... : ... .. . ... : ... .. . ... : ... .. . ... ... : --- .. . ... ... : ... .. 7 ... ... : ... .. . ... ...
ROW A8 : B-4 00 F P80 V02 ... : ... .. . ... ... ... : C#3 00 . ... : 3-# 00 F ... : ... .. . ... ... : B-2 01 A ... ... : G-3 01 A ... ... : ... .. . ... ...
ROW A9 : ... .. E ... ... ... : ... .. . ... ... ... : ... .. . ... : ... .. C ... : ... .. . ... ... : ... .. 9 ... ... : ... .. 9 ... ... : ... .. . ... ...
ROW AA : ... .. D ... ... ... : ... .. . ... ... ... : ... .. . ... : ... .. 6 ... : ... .. . ... ... : ... .. . ... ... : ... .. . ... ... : ... .. . ... ...
ROW AB : ... .. A ... ... ... : ... .. . ... ... ... : ... .. . ... : ... .. 3 ... : ... .. . ... ... : ... .. 8 ... ... : ... .. 8 ... ... : ... .. . ... ...
ROW AC : ... .. . ... ... ... : ... .. . ... ... ... : ... .. . ... : ... .. 2 ... : ... .. . ... ... : --- .. . P85 ... : ... .. 7 ... ... : ... .. . ... ...
ROW AD : ... .. 0 ... V00 ... : ... .. . ... ... ... : --- .. . ... : ... .. 0 ... : ... .. . ... ... : F-3 01 A P80 ... : ... .. . ... ... : ... .. . ... ...
ROW AE : ... .. . ... ... ... : ... .. . ... ... ... : ... .. . ... : ... .. . ... : ... .. . ... ... : ... .. 9 ... ... : ... .. 6 ... ... : ... .. . ... ...
ROW AF : ... .. . ... ... ... : ... .. . ... ... ... : ... .. . ... : ... .. . ... : ... .. . ... ... : ... .. . ... ... : ... .. . ... ... : ... .. . ... ...
ROW B0 : ... .. . ... ... ... : ... .. . ... ... ... : ... .. . ... : ... .. . ... : ... .. . ... ... : ... .. 8 ... ... : ... .. . ... ... : ... .. . ... ...
ROW B1 : ... .. . ... ... ... : ... .. . ... ... ... : ... .. . ... : ... .. . ... : ... .. . ... ... : --- .. . ... ... : ... .. . ... ... : ... .. . ... ...
ROW B2 : B-3 00 F P80 V02 ... : ... .. . ... ... ... : F-4 00 . ... : D-# 00 F ... : ... .. . ... ... : B-2 01 A ... ... : ... .. . ... ... : ... .. . ... ...
ROW B3 : ... .. E ... ... ... : ... .. . ... ... ... : ... .. . ... : ... .. C ... : ... .. . ... ... : ... .. 9 ... ... : ... .. . ... ... : ... .. . ... ...
ROW B4 : ... .. D ... ... ... : ... .. . ... ... ... : ... .. . ... : ... .. 6 ... : ... .. . ... ... : ... .. . ... ... : ... .. . ... ... : ... .. . ... ...
ROW B5 : ... .. A ... ... ... : ... .. . ... ... ... : ... .. . ... : ... .. 3 ... : ... .. . ... ... : ... .. 8 ... ... : ... .. . ... ... : ... .. . ... ...
ROW B6 : ... .. . ... ... ... : ... .. . ... ... ... : ... .. . ... : ... .. 2 ... : ... .. . ... ... : --- .. . P85 ... : ... .. . ... ... : ... .. . ... ...
ROW B7 : ... .. 0 ... V00 ... : ... .. . ... ... ... : --- .. . ... : ... .. F ... : ... .. . ... ... : F-3 01 A P80 ... : ... .. . ... ... : ... .. . ... ...
ROW B8 : ... .. . ... ... ... : ... .. . ... ... ... : ... .. . ... : ... .. C ... : ... .. . ... ... : ... .. 9 ... ... : ... .. . ... ... : ... .. . ... ...
ROW B9 : ... .. . ... ... ... : ... .. . ... ... ... : ... .. . ... : ... .. 6 ... : ... .. . ... ... : ... .. . ... ... : ... .. . ... ... : ... .. . ... ...
ROW BA : ... .. . ... ... ... : ... .. . ... ... ... : ... .. . ... : ... .. 3 ... : ... .. . ... ... : ... .. 8 ... ... : ... .. . ... ... : ... .. . ... ...
ROW BB : ... .. . ... ... ... : ... .. . ... ... ... : ... .. . ... : ... .. 2 ... : ... .. . ... ... : --- .. . ... ... : ... .. . ... ... : ... .. . ... ...
ROW BC : A#4 00 F P80 V02 ... : ... .. . ... ... ... : C-3 00 . ... : 6-# 00 F ... : ... .. . ... ... : A#2 01 A ... ... : ... .. . ... ... : ... .. . ... ...
ROW BD : ... .. E ... ... ... : ... .. . ... ... ... : ... .. . ... : ... .. C ... : ... .. . ... ... : ... .. 9 ... ... : ... .. . ... ... : ... .. . ... ...
ROW BE : ... .. D ... ... ... : ... .. . ... ... ... : ... .. . ... : ... .. 6 ... : ... .. . ... ... : ... .. . ... ... : ... .. . ... ... : ... .. . ... ...
ROW BF : ... .. A ... ... ... : ... .. . ... ... ... : ... .. . ... : ... .. 3 ... : ... .. . ... ... : ... .. 8 ... ... : ... .. . ... ... : ... .. . ... ...
ROW C0 : ... .. . ... ... ... : ... .. . ... ... ... : ... .. . ... : ... .. 2 ... : ... .. . ... ... : --- .. . P82 ... : ... .. . ... ... : ... .. . ... ...
ROW C1 : ... .. 0 ... V00 ... : ... .. . ... ... ... : --- .. . ... : ... .. 0 ... : ... .. . ... ... : E-3 01 A P80 ... : ... .. . ... ... : ... .. . ... ...
ROW C2 : ... .. . ... ... ... : ... .. . ... ... ... : ... .. . ... : ... .. . ... : ... .. . ... ... : ... .. 9 ... ... : ... .. . ... ... : ... .. . ... ...
ROW C3 : ... .. . ... ... ... : ... .. . ... ... ... : ... .. . ... : ... .. . ... : ... .. . ... ... : ... .. . ... ... : ... .. . ... ... : ... .. . ... ...
ROW C4 : ... .. . ... ... ... : ... .. . ... ... ... : ... .. . ... : ... .. . ... : ... .. . ... ... : ... .. 8 ... ... : ... .. . ... ... : ... .. . ... ...
ROW C5 : ... .. . ... ... ... : ... .. . ... ... ... : ... .. . ... : ... .. . ... : ... .. . ... ... : --- .. . P82 ... : ... .. . ... ... : ... .. . ... ...
ROW C6 : A#3 00 F P80 V02 ... : ... .. . ... ... ... : E-4 00 . ... : D-# 00 F ... : ... .. . ... ... : A#2 01 A P80 ... : A#3 01 A ... ... : ... .. . ... ...
ROW C7 : ... .. E ... ... ... : ... .. . ... ... ... : ... .. . ... : ... .. C ... : ... .. . ... ... : ... .. 9 ... ... : ... .. 9 ... ... : ... .. . ... ...
ROW C8 : ... .. D ... ... ... : ... .. . ... ... ... : ... .. . ... : ... .. 6 ... : ... .. . ... ... : ... .. . ... ... : ... .. . ... ... : ... .. . ... ...
ROW C9 : ... .. A ... ... ... : ... .. . ... ... ... : ... .. . ... : ... .. 3 ... : ... .. . ... ... : ... .. 8 ... ... : ... .. 8 ... ... : ... .. . ... ...
ROW CA : ... .. . ... ... ... : ... .. . ... ... ... : ... .. . ... : ... .. 2 ... : ... .. . ... ... : --- .. . P82 ... : ... .. 7 ... ... : ... .. . ... ...
ROW CB : ... .. 0 ... V00 ... : ... .. . ... ... ... : --- .. . ... : ... .. 0 ... : ... .. . ... ... : E-3 01 A P80 ... : G-3 01 A ... ... : ... .. . ... ...
ROW CC : ... .. . ... ... ... : ... .. . ... ... ... : ... .. . ... : ... .. . ... : ... .. . ... ... : ... .. 9 ... ... : ... .. 9 ... ... : ... .. . ... ...
ROW CD : ... .. . ... ... ... : ... .. . ... ... ... : ... .. . ... : ... .. . ... : ... .. . ... ... : ... .. . ... ... : ... .. . ... ... : ... .. . ... ...
ROW CE : ... .. . ... ... ... : ... .. . ... ... ... : ... .. . ... : ... .. . ... : ... .. . ... ... : ... .. 8 ... ... : ... .. 8 ... ... : ... .. . ... ...
ROW CF : ... .. . ... ... ... : ... .. . ... ... ... : ... .. . ... : ... .. . ... : ... .. . ... ... : --- .. . P82 ... : ... .. 7 ... ... : ... .. . ... ...
ROW D0 : G#4 00 F P80 V02 ... : ... .. . ... ... ... : E-6 00 . ... : 3-# 00 F ... : ... .. . ... ... : F-3 01 A P80 ... : F-3 01 A ... ... : ... .. . ... ...
ROW D1 : ... .. E ... ... ... : ... .. . ... ... ... : F#5 00 . ... : ... .. C ... : ... .. . ... ... : ... .. 9 ... ... : ... .. 9 ... ... : ... .. . ... ...
ROW D2 : ... .. D ... ... ... : ... .. . ... ... ... : B-4 00 . ... : ... .. 6 ... : ... .. . ... ... : ... .. . ... ... : ... .. . ... ... : ... .. . ... ...
ROW D3 : ... .. 0 ... V00 ... : ... .. . ... ... ... : A#4 00 . ... : ... .. 3 ... : ... .. . ... ... : ... .. 8 ... ... : ... .. 8 ... ... : ... .. . ... ...
ROW D4 : ... .. . ... ... ... : ... .. . ... ... ... : F-4 00 . ... : ... .. 2 ... : ... .. . ... ... : --- .. . ... ... : ... .. 7 ... ... : ... .. . ... ...
ROW D5 : G-4 00 F P80 V02 ... : ... .. . ... ... ... : ... .. . ... : ... .. 0 ... : ... .. . ... ... : C-3 01 A ... ... : E-3 01 A ... ... : ... .. . ... ...
ROW D6 : ... .. E ... ... ... : ... .. . ... ... ... : ... .. . ... : ... .. . ... : ... .. . ... ... : ... .. 9 ... ... : ... .. 9 ... ... : ... .. . ... ...
ROW D7 : ... .. D ... ... ... : ... .. . ... ... ... : ... .. . ... : ... .. . ... : ... .. . ... ... : ... .. . ... ... : ... .. . ... ... : ... .. . ... ...
ROW D8 : ... .. 0 ... V00 ... : ... .. . ... ... ... : ... .. . ... : ... .. . ... : ... .. . ... ... : ... .. 8 ... ... : ... .. 8 ... ... : ... .. . ... ...
ROW D9 : ... .. . ... ... ... : ... .. . ... ... ... : ... .. . ... : ... .. . ... : ... .. . ... ... : --- .. . P7E ... : ... .. 7 ... ... : ... .. . ... ...
ROW DA : F-4 00 F P80 V02 ... : ... .. . ... ... ... : ... .. . ... : D-# 00 F ... : ... .. . ... ... : G#2 01 A P80 ... : F-3 01 A ... ... : ... .. . ... ...
ROW DB : ... .. E ... ... ... : ... .. . ... ... ... : ... .. . ... : ... .. C ... : ... .. . ... ... : ... .. 9 ... ... : ... .. 9 ... ... : ... .. . ... ...
ROW DC : ... .. D ... ... ... : ... .. . ... ... ... : ... .. . ... : ... .. 6 ... : ... .. . ... ... : ... .. . ... ... : ... .. . ... ... : ... .. . ... ...
ROW DD : ... .. A ... ... ... : ... .. . ... ... ... : ... .. . ... : ... .. 3 ... : ... .. . ... ... : ... .. 8 ... ... : ... .. 8 ... ... : ... .. . ... ...
ROW DE : ... .. . ... ... ... : ... .. . ... ... ... : ... .. . ... : ... .. 2 ... : ... .. . ... ... : --- .. . ... ... : ... .. 7 ... ... : ... .. . ... ...
ROW DF : ... .. 0 ... V00 ... : ... .. . ... ... ... : --- .. . ... : ... .. F ... : ... .. . ... ... : C-3 01 A ... ... : G#3 01 A ... ... : ... .. . ... ...
ROW E0 : ... .. . ... ... ... : ... .. . ... ... ... : ... .. . ... : ... .. C ... : ... .. . ... ... : ... .. 9 ... ... : ... .. 9 ... ... : ... .. . ... ...
ROW E1 : ... .. . ... ... ... : ... .. . ... ... ... : ... .. . ... : ... .. 6 ... : ... .. . ... ... : ... .. . ... ... : ... .. . ... ... : ... .. . ... ...
ROW E2 : ... .. . ... ... ... : ... .. . ... ... ... : ... .. . ... : ... .. 3 ... : ... .. . ... ... : ... .. 8 ... ... : ... .. 8 ... ... : ... .. . ... ...
ROW E3 : ... .. . ... ... ... : ... .. . ... ... ... : ... .. . ... : ... .. 2 ... : ... .. . ... ... : --- .. . P7E ... : ... .. 7 ... ... : ... .. . ... ...
ROW E4 : G-4 00 F P80 V02 ... : ... .. . ... ... ... : C-3 00 . ... : 6-# 00 F ... : ... .. . ... ... : G-2 01 A P80 ... : G-3 01 A ... ... : ... .. . ... ...
ROW E5 : ... .. E ... ... ... : ... .. . ... ... ... : ... .. . ... : ... .. C ... : ... .. . ... ... : ... .. 9 ... ... : ... .. 9 ... ... : ... .. . ... ...
ROW E6 : ... .. D ... ... ... : ... .. . ... ... ... : ... .. . ... : ... .. 6 ... : ... .. . ... ... : ... .. . ... ... : ... .. . ... ... : ... .. . ... ...
ROW E7 : ... .. 0 ... V00 ... : ... .. . ... ... ... : --- .. . ... : ... .. 3 ... : ... .. . ... ... : ... .. 8 ... ... : ... .. 8 ... ... : ... .. . ... ...
ROW E8 : ... .. . ... ... ... : ... .. . ... ... ... : ... .. . ... : ... .. 2 ... : ... .. . ... ... : --- .. . P81 ... : ... .. 7 ... ... : ... .. . ... ...
ROW E9 : F-4 00 F P80 V02 ... : ... .. . ... ... ... : A#2 00 . ... : ... .. 0 ... : ... .. . ... ... : A#2 01 A P80 ... : F-3 01 A ... ... : ... .. . ... ...
ROW EA : ... .. E ... ... ... : ... .. . ... ... ... : ... .. . ... : ... .. . ... : ... .. . ... ... : ... .. 9 ... ... : ... .. 9 ... ... : ... .. . ... ...
ROW EB : ... .. D ... ... ... : ... .. . ... ... ... : ... .. . ... : ... .. . ... : ... .. . ... ... : ... .. . ... ... : ... .. . ... ... : ... .. . ... ...
ROW EC : ... .. 0 ... V00 ... : ... .. . ... ... ... : --- .. . ... : ... .. . ... : ... .. . ... ... : ... .. 8 ... ... : ... .. 8 ... ... : ... .. . ... ...
ROW ED : ... .. . ... ... ... : ... .. . ... ... ... : ... .. . ... : ... .. . ... : ... .. . ... ... : --- .. . P82 ... : ... .. 7 ... ... : ... .. . ... ...
ROW EE : E-4 00 F P80 V02 ... : ... .. . ... ... ... : G#2 00 . ... : D-# 00 F ... : ... .. . ... ... : E-2 01 A P80 ... : E-3 01 A ... ... : ... .. . ... ...
ROW EF : ... .. E ... ... ... : ... .. . ... ... ... : ... .. . ... : ... .. C ... : ... .. . ... ... : ... .. 9 ... ... : ... .. 9 ... ... : ... .. . ... ...
ROW F0 : ... .. D ... ... ... : ... .. . ... ... ... : ... .. . ... : ... .. 6 ... : ... .. . ... ... : ... .. . ... ... : ... .. . ... ... : ... .. . ... ...
ROW F1 : ... .. A ... ... ... : ... .. . ... ... ... : --- .. . ... : ... .. 3 ... : ... .. . ... ... : ... .. 8 ... ... : ... .. 8 ... ... : ... .. . ... ...
ROW F2 : ... .. . ... ... ... : ... .. . ... ... ... : ... .. . ... : ... .. 2 ... : ... .. . ... ... : --- .. . P83 ... : ... .. 7 ... ... : ... .. . ... ...
ROW F3 : ... .. 0 ... V00 ... : ... .. . ... ... ... : G-2 00 . ... : ... .. F ... : ... .. . ... ... : A#2 01 A P80 ... : G-3 01 A ... ... : ... .. . ... ...
ROW F4 : ... .. . ... ... ... : ... .. . ... ... ... : ... .. . ... : ... .. C ... : ... .. . ... ... : ... .. 9 ... ... : ... .. 9 ... ... : ... .. . ... ...
ROW F5 : ... .. . ... ... ... : ... .. . ... ... ... : ... .. . ... : ... .. 6 ... : ... .. . ... ... : ... .. . ... ... : ... .. . ... ... : ... .. . ... ...
ROW F6 : ... .. . ... ... ... : ... .. . ... ... ... : --- .. . ... : ... .. 3 ... : ... .. . ... ... : ... .. 8 ... ... : ... .. 8 ... ... : ... .. . ... ...
ROW F7 : ... .. . ... ... ... : ... .. . ... ... ... : ... .. . ... : ... .. 2 ... : ... .. . ... ... : --- .. . P82 ... : ... .. 7 ... ... : ... .. . ... ...
ROW F8 : F-4 00 F P80 V02 ... : ... .. . ... ... ... : E-4 00 . ... : 3-# 00 F ... : ... .. . ... ... : G#2 01 A P80 ... : F-3 01 A ... ... : ... .. . ... ...
ROW F9 : ... .. E ... ... ... : ... .. . ... ... ... : F#3 00 . ... : ... .. C ... : ... .. . ... ... : ... .. 9 ... ... : ... .. 9 ... ... : ... .. . ... ...
ROW FA : ... .. D ... ... ... : ... .. . ... ... ... : B-2 00 . ... : ... .. 6 ... : ... .. . ... ... : ... .. . ... ... : ... .. . ... ... : ... .. . ... ...
ROW FB : ... .. A ... ... ... : ... .. . ... ... ... : A#2 00 . ... : ... .. 3 ... : ... .. . ... ... : ... .. 8 ... ... : ... .. 8 ... ... : ... .. . ... ...
ROW FC : ... .. . ... ... ... : ... .. . ... ... ... : F-2 00 . ... : ... .. 2 ... : ... .. . ... ... : ... .. 7 ... ... : ... .. 7 ... ... : ... .. . ... ...
ROW FD : ... .. . ... ... ... : ... .. . ... ... ... : ... .. . ... : ... .. 0 ... : ... .. . ... ... : ... .. . ... ... : ... .. . ... ... : ... .. . ... ...
ROW FE : ... .. . ... ... ... : ... .. . ... ... ... : ... .. . ... : ... .. . ... : ... .. . ... ... : ... .. 6 ... ... : ... .. 6 ... ... : ... .. . ... ...
ROW FF : ... .. . ... ... ... : ... .. . ... ... ... : ... .. . ... : ... .. . ... : ... .. . ... ... : ... .. . ... ... : ... .. . ... ... : ... .. . ... ...

PATTERN 08
ROW 00 : ... .. 0 ... V00 ... : ... .. . ... ... ... : ... .. . ... : ... .. . ... : ... .. . ... ... : ... .. . ... ... : ... .. . ... ... : ... .. . ... ...
ROW 01 : ... .. . ... ... ... : ... .. . ... ... ... : ... .. . ... : ... .. . ... : ... .. . ... ... : ... .. . ... ... : ... .. . ... ... : ... .. . ... ...
ROW 02 : ... .. . ... ... ... : ... .. . ... ... ... : E-2 00 . P86 : ... .. . ... : ... .. . ... ... : C-2 01 A ... ... : C-1 01 A ... ... : ... .. . ... ...
ROW 03 : ... .. . ... ... ... : ... .. . ... ... ... : D#2 00 . P8E : ... .. . ... : ... .. . ... ... : ... .. 9 ... ... : ... .. 9 ... ... : ... .. . ... ...
ROW 04 : ... .. . ... ... ... : ... .. . ... ... ... : ... .. . P6E : ... .. . ... : ... .. . ... ... : ... .. . ... ... : ... .. . ... ... : ... .. . ... ...
ROW 05 : D-5 00 6 P80 V02 ... : ... .. . ... ... ... : D-2 00 . P79 : ... .. . ... : ... .. . ... ... : ... .. 8 ... ... : ... .. 8 ... ... : ... .. . ... ...
ROW 06 : ... .. 5 ... ... ... : ... .. . ... ... ... : C#2 00 . P86 : ... .. . ... : ... .. . ... ... : ... .. 7 ... ... : ... .. 7 ... ... : ... .. . ... ...
ROW 07 : D#5 00 8 ... ... ... : ... .. . ... ... ... : C-2 00 . P96 : ... .. . ... : ... .. . ... ... : --- .. . P7E ... : --- .. . P7D ... : ... .. . ... ...
ROW 08 : ... .. 7 ... ... ... : ... .. . ... ... ... : ... .. . P76 : ... .. . ... : ... .. . ... ... : ... .. . ... ... : ... .. . ... ... : ... .. . ... ...
ROW 09 : ... .. 6 ... ... ... : ... .. . ... ... ... : B-1 00 . P89 : ... .. . ... : ... .. . ... ... : ... .. . ... ... : ... .. . ... ... : ... .. . ... ...
ROW 0A : E-5 00 A ... ... ... : ... .. . ... ... ... : ... .. . P69 : ... .. . ... : ... .. . ... ... : ... .. . ... ... : ... .. . ... ... : ... .. . ... ...
ROW 0B : ... .. 9 ... ... ... : ... .. . ... ... ... : A#1 00 . P7F : ... .. . ... : ... .. . ... ... : ... .. . ... ... : ... .. . ... ... : ... .. . ... ...
ROW 0C : F-5 00 F ... ... ... : ... .. . ... ... ... : E-3 00 . P80 : 6-# 00 F ... : ... .. . ... ... : F-1 01 A P80 ... : F-0 01 A P81 ... : ... .. . ... ...
ROW 0D : ... .. E ... ... ... : ... .. . ... ... ... : F#2 00 . ... : ... .. C ... : ... .. . ... ... : ... .. 9 ... ... : ... .. 9 ... ... : ... .. . ... ...
ROW 0E : ... .. D ... ... ... : ... .. . ... ... ... : B-1 00 . ... : ... .. 6 ... : ... .. . ... ... : ... .. . ... ... : ... .. . ... ... : ... .. . ... ...
ROW 0F : ... .. A ... ... ... : ... .. . ... ... ... : A#1 00 . ... : ... .. 3 ... : ... .. . ... ... : ... .. 8 ... ... : ... .. 8 ... ... : ... .. . ... ...
ROW 10 : ... .. . ... ... ... : ... .. . ... ... ... : F-1 00 . ... : ... .. 2 ... : ... .. . ... ... : ... .. 7 ... ... : ... .. 7 ... ... : ... .. . ... ...
ROW 11 : ... .. . ... ... ... : ... .. . ... ... ... : ... .. . ... : ... .. 0 ... : ... .. . ... ... : ... .. . ... ... : ... .. . ... ... : ... .. . ... ...
ROW 12 : ... .. . ... ... ... : ... .. . ... ... ... : ... .. . ... : ... .. . ... : ... .. . ... ... : ... .. 6 ... ... : ... .. 6 ... ... : ... .. . ... ...
ROW 13 : ... .. . ... ... ... : ... .. . ... ... ... : ... .. . ... : ... .. . ... : ... .. . ... ... : ... .. . ... ... : ... .. . ... ... : ... .. . ... ...
ROW 14 : ... .. . ... ... ... : ... .. . ... ... ... : ... .. . ... : ... .. . ... : ... .. . ... ... : ... .. . ... ... : ... .. . ... ... : ... .. . ... ...
ROW 15 : ... .. . ... ... ... : ... .. . ... ... ... : ... .. . ... : ... .. . ... : ... .. . ... ... : ... .. . ... ... : ... .. . ... ... : ... .. . ... ...
ROW 16 : ... .. 0 ... V00 ... : ... .. . ... ... ... : --- .. . ... : B-# 00 8 ... : ... .. . ... ... : --- .. . ... ... : --- .. . P80 ... : ... .. . ... ...
ROW 17 : ... .. . ... ... ... : ... .. . ... ... ... : ... .. . ... : ... .. 6 ... : ... .. . ... ... : ... .. . ... ... : ... .. . ... ... : ... .. . ... ...
ROW 18 : ... .. . ... ... ... : ... .. . ... ... ... : ... .. . ... : ... .. 3 ... : ... .. . ... ... : ... .. . ... ... : ... .. . ... ... : ... .. . ... ...
ROW 19 : ... .. . ... ... ... : ... .. . ... ... ... : ... .. . ... : ... .. 1 ... : ... .. . ... ... : ... .. . ... ... : ... .. . ... ... : ... .. . ... ...
ROW 1A : ... .. . ... ... ... : ... .. . ... ... ... : ... .. . ... : ... .. 8 ... : ... .. . ... ... : ... .. . ... ... : ... .. . ... ... : ... .. . ... ...
ROW 1B : ... .. . ... ... ... : ... .. . ... ... ... : ... .. . ... : ... .. 6 ... : ... .. . ... ... : ... .. . ... ... : ... .. . ... ... : ... .. . ... ...
ROW 1C : ... .. . ... ... ... : ... .. . ... ... ... : ... .. . ... : ... .. 3 ... : ... .. . ... ... : ... .. . ... ... : ... .. . ... ... : ... .. . ... ...
ROW 1D : ... .. . ... ... ... : ... .. . ... ... ... : ... .. . ... : ... .. 8 ... : ... .. . ... ... : ... .. . ... ... : ... .. . ... ... : ... .. . ... ...
ROW 1E : ... .. . ... ... ... : ... .. . ... ... ... : ... .. . ... : ... .. 6 ... : ... .. . ... ... : ... .. . ... ... : ... .. . ... ... : ... .. . ... ...
ROW 1F : ... .. . ... ... ... : ... .. . ... ... ... : ... .. . ... : ... .. 3 ... : ... .. . ... ... : ... .. . ... ... : ... .. . ... ... : ... .. . ... ...
ROW 20 : F-2 00 F P80 V01 ... : C-3 00 F P80 ... ... : F-3 00 . ... : 3-# 00 F ... : ... .. . ... ... : F-4 01 A ... ... : F-5 01 A P81 ... : ... .. . ... ...
ROW 21 : ... .. E ... ... ... : ... .. E ... ... ... : ... .. . ... : ... .. C ... : ... .. . ... ... : ... .. 9 ... ... : ... .. 9 ... ... : ... .. . ... ...
ROW 22 : ... .. D ... ... ... : ... .. D ... ... ... : ... .. . ... : ... .. 6 ... : ... .. . ... ... : ... .. . ... ... : ... .. . ... ... : ... .. . ... ...
ROW 23 : ... .. 0 ... V00 ... : ... .. 0 ... ... ... : ... .. . ... : ... .. 3 ... : ... .. . ... ... : --- .. . ... ... : --- .. . ... ... : ... .. . ... ...
ROW 24 : ... .. . ... ... ... : ... .. . ... ... ... : ... .. . ... : ... .. 2 ... : ... .. . ... ... : ... .. . ... ... : ... .. . ... ... : ... .. . ... ...
ROW 25 : F-2 00 F P80 V01 ... : C-3 00 F P80 ... ... : --- .. . ... : ... .. 0 ... : ... .. . ... ... : G#3 01 A ... ... : G#4 01 A ... ... : ... .. . ... ...
ROW 26 : ... .. E ... ... ... : ... .. E ... ... ... : ... .. . ... : ... .. . ... : ... .. . ... ... : ... .. 9 ... ... : ... .. 9 ... ... : ... .. . ... ...
ROW 27 : ... .. D ... ... ... : ... .. D ... ... ... : ... .. . ... : ... .. . ... : ... .. . ... ... : ... .. . ... ... : ... .. . ... ... : ... .. . ... ...
ROW 28 : ... .. 0 ... V00 ... : ... .. 0 ... ... ... : ... .. . ... : ... .. . ... : ... .. . ... ... : --- .. . P82 ... : --- .. . ... ... : ... .. . ... ...
ROW 29 : ... .. . ... ... ... : ... .. . ... ... ... : ... .. . ... : ... .. . ... : ... .. . ... ... : ... .. . ... ... : ... .. . ... ... : ... .. . ... ...
ROW 2A : B-2 00 F P80 V01 ... : F#3 00 F P80 ... ... : F-3 00 . ... : D-# 00 F ... : ... .. . ... ... : F-4 01 A P80 ... : F-5 01 A ... ... : ... .. . ... ...
ROW 2B : ... .. E ... ... ... : ... .. E ... ... ... : ... .. . ... : ... .. C ... : ... .. . ... ... : ... .. 9 ... ... : ... .. 9 ... ... : ... .. . ... ...
ROW 2C : ... .. D ... ... ... : ... .. D ... ... ... : ... .. . ... : ... .. 6 ... : ... .. . ... ... : ... .. . ... ... : ... .. . ... ... : ... .. . ... ...
ROW 2D : ... .. A ... ... ... : ... .. A ... ... ... : --- .. . ... : ... .. 3 ... : ... .. . ... ... : --- .. . ... ... : --- .. . ... ... : ... .. . ... ...
ROW 2E : ... .. . ... ... ... : ... .. . ... ... ... : ... .. . ... : ... .. 2 ... : ... .. . ... ... : ... .. . ... ... : ... .. . ... ... : ... .. . ... ...
ROW 2F : ... .. . ... ... ... : ... .. . ... ... ... : F-3 00 . ... : ... .. F ... : ... .. . ... ... : G#3 01 A ... ... : G#4 01 A ... ... : ... .. . ... ...
ROW 30 : ... .. . ... ... ... : ... .. . ... ... ... : ... .. . ... : ... .. C ... : ... .. . ... ... : ... .. 9 ... ... : ... .. 9 ... ... : ... .. . ... ...
ROW 31 : ... .. . ... ... ... : ... .. . ... ... ... : ... .. . ... : ... .. 6 ... : ... .. . ... ... : ... .. . ... ... : ... .. . ... ... : ... .. . ... ...
ROW 32 : ... .. 0 ... V00 ... : ... .. 0 ... ... ... : --- .. . ... : ... .. 3 ... : ... .. . ... ... : --- .. . P82 ... : --- .. . ... ... : ... .. . ... ...
ROW 33 : ... .. . ... ... ... : ... .. . ... ... ... : ... .. . ... : ... .. 2 ... : ... .. . ... ... : ... .. . ... ... : ... .. . ... ... : ... .. . ... ...
ROW 34 : A#2 00 F P80 V01 ... : F-3 00 F P80 ... ... : F-3 00 . ... : 6-# 00 F ... : ... .. . ... ... : F-4 01 A P80 ... : F-5 01 A ... ... : ... .. . ... ...
ROW 35 : ... .. E ... ... ... : ... .. E ... ... ... : ... .. . ... : ... .. C ... : ... .. . ... ... : ... .. 9 ... ... : ... .. 9 ... ... : ... .. . ... ...
ROW 36 : ... .. D ... ... ... : ... .. D ... ... ... : ... .. . ... : ... .. 6 ... : ... .. . ... ... : ... .. . ... ... : ... .. . ... ... : ... .. . ... ...
ROW 37 : ... .. A ... ... ... : ... .. A ... ... ... : ... .. . ... : ... .. 3 ... : ... .. . ... ... : --- .. . ... ... : --- .. . ... ... : ... .. . ... ...
ROW 38 : ... .. . ... ... ... : ... .. . ... ... ... : ... .. . ... : ... .. 2 ... : ... .. . ... ... : ... .. . ... ... : ... .. . ... ... : ... .. . ... ...
ROW 39 : ... .. . ... ... ... : ... .. . ... ... ... : --- .. . ... : ... .. 0 ... : ... .. . ... ... : G#3 01 A ... ... : G#4 01 A ... ... : ... .. . ... ...
ROW 3A : ... .. . ... ... ... : ... .. . ... ... ... : ... .. . ... : ... .. . ... : ... .. . ... ... : ... .. 9 ... ... : ... .. 9 ... ... : ... .. . ... ...
ROW 3B : ... .. . ... ... ... : ... .. . ... ... ... : ... .. . ... : ... .. . ... : ... .. . ... ... : ... .. . ... ... : ... .. . ... ... : ... .. . ... ...
ROW 3C : ... .. 0 ... V00 ... : ... .. 0 ... ... ... : ... .. . ... : ... .. . ... : ... .. . ... ... : --- .. . P82 ... : --- .. . ... ... : ... .. . ... ...
ROW 3D : ... .. . ... ... ... : ... .. . ... ... ... : ... .. . ... : ... .. . ... : ... .. . ... ... : ... .. . ... ... : ... .. . ... ... : ... .. . ... ...
ROW 3E : G#2 00 F P80 V01 ... : D#3 00 F P80 ... ... : F-3 00 . ... : D-# 00 F ... : ... .. . ... ... : F-4 01 A P80 ... : F-5 01 A ... ... : ... .. . ... ...
ROW 3F : ... .. E ... ... ... : ... .. E ... ... ... : ... .. . ... : ... .. C ... : ... .. . ... ... : ... .. 9 ... ... : ... .. 9 ... ... : ... .. . ... ...
ROW 40 : ... .. D ... ... ... : ... .. D ... ... ... : ... .. . ... : ... .. 6 ... : ... .. . ... ... : ... .. . ... ... : ... .. . ... ... : ... .. . ... ...
ROW 41 : ... .. 0 ... V00 ... : ... .. 0 ... ... ... : --- .. . ... : ... .. 3 ... : ... .. . ... ... : --- .. . ... ... : --- .. . ... ... : ... .. . ... ...
ROW 42 : ... .. . ... ... ... : ... .. . ... ... ... : ... .. . ... : ... .. 2 ... : ... .. . ... ... : ... .. . ... ... : ... .. . ... ... : ... .. . ... ...
ROW 43 : F-2 00 F P80 V01 ... : C-3 00 F P80 ... ... : F-3 00 . ... : ... .. F ... : ... .. . ... ... : G#3 01 A ... ... : G#4 01 A ... ... : ... .. . ... ...
ROW 44 : ... .. E ... ... ... : ... .. E ... ... ... : ... .. . ... : ... .. C ... : ... .. . ... ... : ... .. 9 ... ... : ... .. 9 ... ... : ... .. . ... ...
ROW 45 : ... .. D ... ... ... : ... .. D ... ... ... : ... .. . ... : ... .. 6 ... : ... .. . ... ... : ... .. . ... ... : ... .. . ... ... : ... .. . ... ...
ROW 46 : ... .. A ... ... ... : ... .. A ... ... ... : --- .. . ... : ... .. 3 ... : ... .. . ... ... : --- .. . P82 ... : --- .. . ... ... : ... .. . ... ...
ROW 47 : ... .. . ... ... ... : ... .. . ... ... ... : ... .. . ... : ... .. 2 ... : ... .. . ... ... : ... .. . ... ... : ... .. . ... ... : ... .. . ... ...
ROW 48 : ... .. . ... ... ... : ... .. . ... ... ... : F-3 00 . ... : 3-# 00 F ... : ... .. . ... ... : E-4 01 A P80 ... : E-5 01 A ... ... : ... .. . ... ...
ROW 49 : ... .. . ... ... ... : ... .. . ... ... ... : ... .. . ... : ... .. C ... : ... .. . ... ... : ... .. 9 ... ... : ... .. 9 ... ... : ... .. . ... ...
ROW 4A : ... .. . ... ... ... : ... .. . ... ... ... : ... .. . ... : ... .. 6 ... : ... .. . ... ... : ... .. . ... ... : ... .. . ... ... : ... .. . ... ...
ROW 4B : ... .. 0 ... V00 ... : ... .. 0 ... ... ... : ... .. . ... : ... .. 3 ... : ... .. . ... ... : --- .. . ... ... : --- .. . ... ... : ... .. . ... ...
ROW 4C : ... .. . ... ... ... : ... .. . ... ... ... : ... .. . ... : ... .. 2 ... : ... .. . ... ... : ... .. . ... ... : ... .. . ... ... : ... .. . ... ...
ROW 4D : F-2 00 F P80 V01 ... : C-3 00 F P80 ... ... : --- .. . ... : ... .. 0 ... : ... .. . ... ... : G-3 01 A ... ... : G-4 01 A ... ... : ... .. . ... ...
ROW 4E : ... .. E ... ... ... : ... .. E ... ... ... : ... .. . ... : ... .. . ... : ... .. . ... ... : ... .. 9 ... ... : ... .. 9 ... ... : ... .. . ... ...
ROW 4F : ... .. D ... ... ... : ... .. D ... ... ... : ... .. . ... : ... .. . ... : ... .. . ... ... : ... .. . ... ... : ... .. . ... ... : ... .. . ... ...
ROW 50 : ... .. 0 ... V00 ... : ... .. 0 ... ... ... : ... .. . ... : ... .. . ... : ... .. . ... ... : --- .. . P81 ... : --- .. . ... ... : ... .. . ... ...
ROW 51 : ... .. . ... ... ... : ... .. . ... ... ... : ... .. . ... : ... .. . ... : ... .. . ... ... : ... .. . ... ... : ... .. . ... ... : ... .. . ... ...
ROW 52 : B-2 00 F P80 V01 ... : F#3 00 F P80 ... ... : F-3 00 . ... : D-# 00 F ... : ... .. . ... ... : E-4 01 A P80 ... : E-5 01 A ... ... : ... .. . ... ...
ROW 53 : ... .. E ... ... ... : ... .. E ... ... ... : ... .. . ... : ... .. C ... : ... .. . ... ... : ... .. 9 ... ... : ... .. 9 ... ... : ... .. . ... ...
ROW 54 : ... .. D ... ... ... : ... .. D ... ... ... : ... .. . ... : ... .. 6 ... : ... .. . ... ... : ... .. . ... ... : ... .. . ... ... : ... .. . ... ...
ROW 55 : ... .. A ... ... ... : ... .. A ... ... ... : --- .. . ... : ... .. 3 ... : ... .. . ... ... : --- .. . ... ... : --- .. . ... ... : ... .. . ... ...
ROW 56 : ... .. . ... ... ... : ... .. . ... ... ... : ... .. . ... : ... .. 2 ... : ... .. . ... ... : ... .. . ... ... : ... .. . ... ... : ... .. . ... ...
ROW 57 : ... .. . ... ... ... : ... .. . ... ... ... : F-3 00 . ... : ... .. F ... : ... .. . ... ... : G-3 01 A ... ... : G-4 01 A ... ... : ... .. . ... ...
ROW 58 : ... .. . ... ... ... : ... .. . ... ... ... : ... .. . ... : ... .. C ... : ... .. . ... ... : ... .. 9 ... ... : ... .. 9 ... ... : ... .. . ... ...
ROW 59 : ... .. . ... ... ... : ... .. . ... ... ... : ... .. . ... : ... .. 6 ... : ... .. . ... ... : ... .. . ... ... : ... .. . ... ... : ... .. . ... ...
ROW 5A : ... .. 0 ... V00 ... : ... .. 0 ... ... ... : --- .. . ... : ... .. 3 ... : ... .. . ... ... : --- .. . P81 ... : --- .. . ... ... : ... .. . ... ...
ROW 5B : ... .. . ... ... ... : ... .. . ... ... ... : ... .. . ... : ... .. 2 ... : ... .. . ... ... : ... .. . ... ... : ... .. . ... ... : ... .. . ... ...
ROW 5C : A#2 00 F P80 V01 ... : F-3 00 F P80 ... ... : F-3 00 . ... : 6-# 00 F ... : ... .. . ... ... : E-4 01 A P80 ... : E-5 01 A ... ... : ... .. . ... ...
ROW 5D : ... .. E ... ... ... : ... .. E ... ... ... : ... .. . ... : ... .. C ... : ... .. . ... ... : ... .. 9 ... ... : ... .. 9 ... ... : ... .. . ... ...
ROW 5E : ... .. D ... ... ... : ... .. D ... ... ... : ... .. . ... : ... .. 6 ... : ... .. . ... ... : ... .. . ... ... : ... .. . ... ... : ... .. . ... ...
ROW 5F : ... .. A ... ... ... : ... .. A ... ... ... : --- .. . ... : ... .. 3 ... : ... .. . ... ... : --- .. . ... ... : --- .. . ... ... : ... .. . ... ...
ROW 60 : ... .. . ... ... ... : ... .. . ... ... ... : ... .. . ... : ... .. 2 ... : ... .. . ... ... : ... .. . ... ... : ... .. . ... ... : ... .. . ... ...
ROW 61 : ... .. . ... ... ... : ... .. . ... ... ... : F-3 00 . ... : ... .. 0 ... : ... .. . ... ... : G-3 01 A ... ... : G-4 01 A ... ... : ... .. . ... ...
ROW 62 : ... .. . ... ... ... : ... .. . ... ... ... : ... .. . ... : ... .. . ... : ... .. . ... ... : ... .. 9 ... ... : ... .. 9 ... ... : ... .. . ... ...
ROW 63 : ... .. . ... ... ... : ... .. . ... ... ... : ... .. . ... : ... .. . ... : ... .. . ... ... : ... .. . ... ... : ... .. . ... ... : ... .. . ... ...
ROW 64 : ... .. 0 ... V00 ... : ... .. 0 ... ... ... : --- .. . ... : ... .. . ... : ... .. . ... ... : --- .. . P81 ... : --- .. . ... ... : ... .. . ... ...
ROW 65 : ... .. . ... ... ... : ... .. . ... ... ... : ... .. . ... : ... .. . ... : ... .. . ... ... : ... .. . ... ... : ... .. . ... ... : ... .. . ... ...
ROW 66 : G#2 00 F P80 V01 ... : D#3 00 F P80 ... ... : F-3 00 . ... : D-# 00 F ... : ... .. . ... ... : E-4 01 A P80 ... : E-5 01 A ... ... : ... .. . ... ...
ROW 67 : ... .. E ... ... ... : ... .. E ... ... ... : ... .. . ... : ... .. C ... : ... .. . ... ... : ... .. 9 ... ... : ... .. 9 ... ... : ... .. . ... ...
ROW 68 : ... .. D ... ... ... : ... .. D ... ... ... : ... .. . ... : ... .. 6 ... : ... .. . ... ... : ... .. . ... ... : ... .. . ... ... : ... .. . ... ...
ROW 69 : ... .. A ... ... ... : ... .. A ... ... ... : --- .. . ... : ... .. 3 ... : ... .. . ... ... : --- .. . ... ... : --- .. . ... ... : ... .. . ... ...
ROW 6A : ... .. . ... ... ... : ... .. . ... ... ... : ... .. . ... : ... .. 2 ... : ... .. . ... ... : ... .. . ... ... : ... .. . ... ... : ... .. . ... ...
ROW 6B : ... .. . ... ... ... : ... .. . ... ... ... : F-3 00 . ... : ... .. 0 ... : ... .. . ... ... : G-3 01 A ... ... : G-4 01 A ... ... : ... .. . ... ...
ROW 6C : ... .. . ... ... ... : ... .. . ... ... ... : ... .. . ... : ... .. . ... : ... .. . ... ... : ... .. 9 ... ... : ... .. 9 ... ... : ... .. . ... ...
ROW 6D : ... .. . ... ... ... : ... .. . ... ... ... : ... .. . ... : ... .. . ... : ... .. . ... ... : ... .. . ... ... : ... .. . ... ... : ... .. . ... ...
ROW 6E : ... .. 0 ... V00 ... : ... .. 0 ... ... ... : --- .. . ... : ... .. . ... : ... .. . ... ... : --- .. . P81 ... : --- .. . ... ... : ... .. . ... ...
ROW 6F : ... .. . ... ... ... : ... .. . ... ... ... : ... .. . ... : ... .. . ... : ... .. . ... ... : ... .. . ... ... : ... .. . ... ... : ... .. . ... ...
ROW 70 : F-2 00 F P80 V01 ... : C-3 00 F P80 ... ... : F-3 00 . ... : 3-# 00 F ... : ... .. . ... ... : D#4 01 A P80 ... : D#5 01 A ... ... : ... .. . ... ...
ROW 71 : ... .. E ... ... ... : ... .. E ... ... ... : ... .. . ... : ... .. C ... : ... .. . ... ... : ... .. 9 ... ... : ... .. 9 ... ... : ... .. . ... ...
ROW 72 : ... .. D ... ... ... : ... .. D ... ... ... : ... .. . ... : ... .. 6 ... : ... .. . ... ... : ... .. . ... ... : ... .. . ... ... : ... .. . ... ...
ROW 73 : ... .. 0 ... V00 ... : ... .. 0 ... ... ... : ... .. . ... : ... .. 3 ... : ... .. . ... ... : --- .. . ... ... : --- .. . ... ... : ... .. . ... ...
ROW 74 : ... .. . ... ... ... : ... .. . ... ... ... : ... .. . ... : ... .. 2 ... : ... .. . ... ... : ... .. . ... ... : ... .. . ... ... : ... .. . ... ...
ROW 75 : F-2 00 F P80 V01 ... : C-3 00 F P80 ... ... : --- .. . ... : ... .. 0 ... : ... .. . ... ... : F#3 01 A ... ... : F#4 01 A ... ... : ... .. . ... ...
ROW 76 : ... .. E ... ... ... : ... .. E ... ... ... : ... .. . ... : ... .. . ... : ... .. . ... ... : ... .. 9 ... ... : ... .. 9 ... ... : ... .. . ... ...
ROW 77 : ... .. D ... ... ... : ... .. D ... ... ... : ... .. . ... : ... .. . ... : ... .. . ... ... : ... .. . ... ... : ... .. . ... ... : ... .. . ... ...
ROW 78 : ... .. 0 ... V00 ... : ... .. 0 ... ... ... : ... .. . ... : ... .. . ... : ... .. . ... ... : --- .. . P7F ... : --- .. . ... ... : ... .. . ... ...
ROW 79 : ... .. . ... ... ... : ... .. . ... ... ... : ... .. . ... : ... .. . ... : ... .. . ... ... : ... .. . ... ... : ... .. . ... ... : ... .. . ... ...
ROW 7A : B-2 00 F P80 V01 ... : F#3 00 F P80 ... ... : F-3 00 . ... : D-# 00 F ... : ... .. . ... ... : D#4 01 A P80 ... : D#5 01 A ... ... : ... .. . ... ...
ROW 7B : ... .. E ... ... ... : ... .. E ... ... ... : ... .. . ... : ... .. C ... : ... .. . ... ... : ... .. 9 ... ... : ... .. 9 ... ... : ... .. . ... ...
ROW 7C : ... .. D ... ... ... : ... .. D ... ... ... : ... .. . ... : ... .. 6 ... : ... .. . ... ... : ... .. . ... ... : ... .. . ... ... : ... .. . ... ...
ROW 7D : ... .. A ... ... ... : ... .. A ... ... ... : --- .. . ... : ... .. 3 ... : ... .. . ... ... : --- .. . ... ... : --- .. . ... ... : ... .. . ... ...
ROW 7E : ... .. . ... ... ... : ... .. . ... ... ... : ... .. . ... : ... .. 2 ... : ... .. . ... ... : ... .. . ... ... : ... .. . ... ... : ... .. . ... ...
ROW 7F : ... .. . ... ... ... : ... .. . ... ... ... : F-3 00 . ... : ... .. F ... : ... .. . ... ... : F#3 01 A ... ... : F#4 01 A ... ... : ... .. . ... ...
ROW 80 : ... .. . ... ... ... : ... .. . ... ... ... : ... .. . ... : ... .. C ... : ... .. . ... ... : ... .. 9 ... ... : ... .. 9 ... ... : ... .. . ... ...
ROW 81 : ... .. . ... ... ... : ... .. . ... ... ... : ... .. . ... : ... .. 6 ... : ... .. . ... ... : ... .. . ... ... : ... .. . ... ... : ... .. . ... ...
ROW 82 : ... .. 0 ... V00 ... : ... .. 0 ... ... ... : --- .. . ... : ... .. 3 ... : ... .. . ... ... : --- .. . P7F ... : --- .. . ... ... : ... .. . ... ...
ROW 83 : ... .. . ... ... ... : ... .. . ... ... ... : ... .. . ... : ... .. 2 ... : ... .. . ... ... : ... .. . ... ... : ... .. . ... ... : ... .. . ... ...
ROW 84 : A#2 00 F P80 V01 ... : F-3 00 F P80 ... ... : F-3 00 . ... : 6-# 00 F ... : ... .. . ... ... : D#4 01 A P80 ... : D#5 01 A ... ... : ... .. . ... ...
ROW 85 : ... .. E ... ... ... : ... .. E ... ... ... : ... .. . ... : ... .. C ... : ... .. . ... ... : ... .. 9 ... ... : ... .. 9 ... ... : ... .. . ... ...
ROW 86 : ... .. D ... ... ... : ... .. D ... ... ... : ... .. . ... : ... .. 6 ... : ... .. . ... ... : ... .. . ... ... : ... .. . ... ... : ... .. . ... ...
ROW 87 : ... .. A ... ... ... : ... .. A ... ... ... : ... .. . ... : ... .. 3 ... : ... .. . ... ... : --- .. . ... ... : --- .. . ... ... : ... .. . ... ...
ROW 88 : ... .. . ... ... ... : ... .. . ... ... ... : ... .. . ... : ... .. 2 ... : ... .. . ... ... : ... .. . ... ... : ... .. . ... ... : ... .. . ... ...
ROW 89 : ... .. . ... ... ... : ... .. . ... ... ... : --- .. . ... : ... .. 0 ... : ... .. . ... ... : F#3 01 A ... ... : F#4 01 A ... ... : ... .. . ... ...
ROW 8A : ... .. . ... ... ... : ... .. . ... ... ... : ... .. . ... : ... .. . ... : ... .. . ... ... : ... .. 9 ... ... : ... .. 9 ... ... : ... .. . ... ...
ROW 8B : ... .. . ... ... ... : ... .. . ... ... ... : ... .. . ... : ... .. . ... : ... .. . ... ... : ... .. . ... ... : ... .. . ... ... : ... .. . ... ...
ROW 8C : ... .. 0 ... V00 ... : ... .. 0 ... ... ... : ... .. . ... : ... .. . ... : ... .. . ... ... : --- .. . P7F ... : --- .. . ... ... : ... .. . ... ...
ROW 8D : ... .. . ... ... ... : ... .. . ... ... ... : ... .. . ... : ... .. . ... : ... .. . ... ... : ... .. . ... ... : ... .. . ... ... : ... .. . ... ...
ROW 8E : G#2 00 F P80 V01 ... : D#3 00 F P80 ... ... : F-3 00 . ... : D-# 00 F ... : ... .. . ... ... : D#4 01 A P80 ... : D#5 01 A ... ... : ... .. . ... ...
ROW 8F : ... .. E ... ... ... : ... .. E ... ... ... : ... .. . ... : ... .. C ... : ... .. . ... ... : ... .. 9 ... ... : ... .. 9 ... ... : ... .. . ... ...
ROW 90 : ... .. D ... ... ... : ... .. D ... ... ... : ... .. . ... : ... .. 6 ... : ... .. . ... ... : ... .. . ... ... : ... .. . ... ... : ... .. . ... ...
ROW 91 : ... .. 0 ... V00 ... : ... .. 0 ... ... ... : --- .. . ... : ... .. 3 ... : ... .. . ... ... : --- .. . ... ... : --- .. . ... ... : ... .. . ... ...
ROW 92 : ... .. . ... ... ... : ... .. . ... ... ... : ... .. . ... : ... .. 2 ... : ... .. . ... ... : ... .. . ... ... : ... .. . ... ... : ... .. . ... ...
ROW 93 : F-2 00 F P80 V01 ... : C-3 00 F P80 ... ... : F-3 00 . ... : ... .. 0 ... : ... .. . ... ... : F#3 01 A ... ... : F#4 01 A ... ... : ... .. . ... ...
ROW 94 : ... .. E ... ... ... : ... .. E ... ... ... : ... .. . ... : ... .. . ... : ... .. . ... ... : ... .. 9 ... ... : ... .. 9 ... ... : ... .. . ... ...
ROW 95 : ... .. D ... ... ... : ... .. D ... ... ... : ... .. . ... : ... .. . ... : ... .. . ... ... : ... .. . ... ... : ... .. . ... ... : ... .. . ... ...
ROW 96 : ... .. A ... ... ... : ... .. A ... ... ... : --- .. . ... : ... .. . ... : ... .. . ... ... : --- .. . P7F ... : --- .. . ... ... : ... .. . ... ...
ROW 97 : ... .. . ... ... ... : ... .. . ... ... ... : ... .. . ... : ... .. . ... : ... .. . ... ... : ... .. . ... ... : ... .. . ... ... : ... .. . ... ...
ROW 98 : ... .. . ... ... ... : ... .. . ... ... ... : F-3 00 . ... : 3-# 00 F ... : ... .. . ... ... : D-4 01 A P80 ... : D-5 01 A ... ... : ... .. . ... ...
ROW 99 : ... .. . ... ... ... : ... .. . ... ... ... : ... .. . ... : ... .. C ... : ... .. . ... ... : ... .. 9 ... ... : ... .. 9 ... ... : ... .. . ... ...
ROW 9A : ... .. . ... ... ... : ... .. . ... ... ... : ... .. . ... : ... .. 6 ... : ... .. . ... ... : ... .. . ... ... : ... .. . ... ... : ... .. . ... ...
ROW 9B : ... .. 0 ... V00 ... : ... .. 0 ... ... ... : ... .. . ... : ... .. 3 ... : ... .. . ... ... : --- .. . ... ... : --- .. . ... ... : ... .. . ... ...
ROW 9C : ... .. . ... ... ... : ... .. . ... ... ... : ... .. . ... : ... .. 2 ... : ... .. . ... ... : ... .. . ... ... : ... .. . ... ... : ... .. . ... ...
ROW 9D : F-4 00 F P80 V01 ... : C-5 00 F P80 ... ... : ... .. . ... : ... .. 0 ... : ... .. . ... ... : F-3 01 A ... ... : F-4 01 A ... ... : ... .. . ... ...
ROW 9E : ... .. E ... ... ... : ... .. E ... ... ... : ... .. . ... : ... .. . ... : ... .. . ... ... : ... .. 9 ... ... : ... .. 9 ... ... : ... .. . ... ...
ROW 9F : ... .. D ... ... ... : ... .. D ... ... ... : ... .. . ... : ... .. . ... : ... .. . ... ... : ... .. . ... ... : ... .. . ... ... : ... .. . ... ...
ROW A0 : ... .. 0 ... V00 ... : ... .. 0 ... ... ... : ... .. . ... : ... .. . ... : ... .. . ... ... : --- .. . ... ... : --- .. . ... ... : ... .. . ... ...
ROW A1 : ... .. . ... ... ... : ... .. . ... ... ... : ... .. . ... : ... .. . ... : ... .. . ... ... : ... .. . ... ... : ... .. . ... ... : ... .. . ... ...
ROW A2 : E-4 00 F P80 V01 ... : B-4 00 F P80 ... ... : C-4 00 . ... : ... .. . ... : ... .. . ... ... : D-4 01 A ... ... : D-5 01 A ... ... : ... .. . ... ...
ROW A3 : ... .. E ... ... ... : ... .. E ... ... ... : C#4 00 . P83 : ... .. . ... : ... .. . ... ... : ... .. 9 ... ... : ... .. 9 ... ... : ... .. . ... ...
ROW A4 : ... .. D ... ... ... : ... .. D ... ... ... : D#4 00 . P7C : ... .. . ... : ... .. . ... ... : ... .. . ... ... : ... .. . ... ... : ... .. . ... ...
ROW A5 : ... .. 0 ... V00 ... : ... .. 0 ... ... ... : E-4 00 . P81 : ... .. . ... : ... .. . ... ... : --- .. . ... ... : --- .. . ... ... : ... .. . ... ...
ROW A6 : ... .. . ... ... ... : ... .. . ... ... ... : F#4 00 . P7D : ... .. . ... : ... .. . ... ... : ... .. . ... ... : ... .. . ... ... : ... .. . ... ...
ROW A7 : D#4 00 F P80 V01 ... : A#4 00 F P80 ... ... : G-4 00 . P84 : ... .. . ... : ... .. . ... ... : F-3 01 A ... ... : F-4 01 A ... ... : ... .. . ... ...
ROW A8 : ... .. E ... ... ... : ... .. E ... ... ... : G#4 00 . P80 : ... .. . ... : ... .. . ... ... : ... .. 9 ... ... : ... .. 9 ... ... : ... .. . ... ...
ROW A9 : ... .. D ... ... ... : ... .. D ... ... ... : ... .. . ... : ... .. . ... : ... .. . ... ... : ... .. . ... ... : ... .. . ... ... : ... .. . ... ...
ROW AA : ... .. 0 ... V00 ... : ... .. 0 ... ... ... : ... .. . ... : ... .. . ... : ... .. . ... ... : --- .. . ... ... : --- .. . ... ... : ... .. . ... ...
ROW AB : ... .. . ... ... ... : ... .. . ... ... ... : ... .. . ... : ... .. . ... : ... .. . ... ... : ... .. . ... ... : ... .. . ... ... : ... .. . ... ...
ROW AC : D-4 00 F P80 V01 ... : A-4 00 F P80 ... ... : B-1 00 . ... : ... .. . ... : ... .. . ... ... : D-4 01 A ... ... : D-5 01 A ... ... : ... .. . ... ...
ROW AD : ... .. E ... ... ... : ... .. E ... ... ... : ... .. . ... : ... .. . ... : ... .. . ... ... : ... .. 9 ... ... : ... .. 9 ... ... : ... .. . ... ...
ROW AE : ... .. D ... ... ... : ... .. D ... ... ... : ... .. . ... : ... .. . ... : ... .. . ... ... : ... .. . ... ... : ... .. . ... ... : ... .. . ... ...
ROW AF : ... .. 0 ... V00 ... : ... .. 0 ... ... ... : ... .. . ... : ... .. . ... : ... .. . ... ... : --- .. . ... ... : --- .. . ... ... : ... .. . ... ...
ROW B0 : ... .. . ... ... ... : ... .. . ... ... ... : ... .. . ... : ... .. . ... : ... .. . ... ... : ... .. . ... ... : ... .. . ... ... : ... .. . ... ...
ROW B1 : C#4 00 F P80 V01 ... : G#4 00 F P80 ... ... : ... .. . ... : ... .. . ... : ... .. . ... ... : F-3 01 A ... ... : F-4 01 A ... ... : ... .. . ... ...
ROW B2 : ... .. E ... ... ... : ... .. E ... ... ... : ... .. . P8F : ... .. . ... : ... .. . ... ... : ... .. 9 ... ... : ... .. 9 ... ... : ... .. . ... ...
ROW B3 : ... .. D ... ... ... : ... .. D ... ... ... : C-2 00 . P6B : ... .. . ... : ... .. . ... ... : ... .. . ... ... : ... .. . ... ... : ... .. . ... ...
ROW B4 : ... .. 0 ... V00 ... : ... .. 0 ... ... ... : ... .. . P7A : ... .. . ... : ... .. . ... ... : --- .. . ... ... : --- .. . ... ... : ... .. . ... ...
ROW B5 : ... .. . ... ... ... : ... .. . ... ... ... : ... .. . P89 : ... .. . ... : ... .. . ... ... : ... .. . ... ... : ... .. . ... ... : ... .. . ... ...
ROW B6 : C-4 00 F P80 V01 ... : G-4 00 F P80 ... ... : ... .. . P98 : ... .. . ... : ... .. . ... ... : D-4 01 A ... ... : D-5 01 A ... ... : ... .. . ... ...
ROW B7 : ... .. E ... ... ... : ... .. E ... ... ... : C#2 00 . P77 : ... .. . ... : ... .. . ... ... : ... .. 9 ... ... : ... .. 9 ... ... : ... .. . ... ...
ROW B8 : ... .. D ... ... ... : ... .. D ... ... ... : ... .. . P86 : ... .. . ... : ... .. . ... ... : ... .. . ... ... : ... .. . ... ... : ... .. . ... ...
ROW B9 : ... .. 0 ... V00 ... : ... .. 0 ... ... ... : ... .. . P95 : ... .. . ... : ... .. . ... ... : --- .. . ... ... : --- .. . ... ... : ... .. . ... ...
ROW BA : ... .. . ... ... ... : ... .. . ... ... ... : D-2 00 . P77 : ... .. . ... : ... .. . ... ... : ... .. . ... ... : ... .. . ... ... : ... .. . ... ...
ROW BB : B-3 00 F P80 V01 ... : F#4 00 F P80 ... ... : ... .. . P86 : ... .. . ... : ... .. . ... ... : F-3 01 A ... ... : F-4 01 A ... ... : ... .. . ... ...
ROW BC : ... .. E ... ... ... : ... .. E ... ... ... : ... .. . P95 : ... .. . ... : ... .. . ... ... : ... .. 9 ... ... : ... .. 9 ... ... : ... .. . ... ...
ROW BD : ... .. D ... ... ... : ... .. D ... ... ... : D#2 00 . P79 : ... .. . ... : ... .. . ... ... : ... .. . ... ... : ... .. . ... ... : ... .. . ... ...
ROW BE : ... .. 0 ... V00 ... : ... .. 0 ... ... ... : ... .. . P88 : ... .. . ... : ... .. . ... ... : --- .. . ... ... : --- .. . ... ... : ... .. . ... ...
ROW BF : ... .. . ... ... ... : ... .. . ... ... ... : E-2 00 . P6F : ... .. . ... : ... .. . ... ... : ... .. . ... ... : ... .. . ... ... : ... .. . ... ...
ROW C0 : F-2 00 F P80 V01 ... : C-3 00 F P80 ... ... : F-2 00 . P80 : ... .. F ... : ... .. . ... ... : F-4 01 A ... ... : F-5 01 A ... ... : ... .. . ... ...
ROW C1 : ... .. E ... ... ... : ... .. E ... ... ... : ... .. . ... : ... .. C ... : ... .. . ... ... : ... .. 9 ... ... : ... .. 9 ... ... : ... .. . ... ...
ROW C2 : ... .. D ... ... ... : ... .. D ... ... ... : ... .. . ... : ... .. 6 ... : ... .. . ... ... : ... .. . ... ... : ... .. . ... ... : ... .. . ... ...
ROW C3 : ... .. 0 ... V00 ... : ... .. 0 ... ... ... : ... .. . ... : ... .. 3 ... : ... .. . ... ... : --- .. . ... ... : --- .. . ... ... : ... .. . ... ...
ROW C4 : ... .. . ... ... ... : ... .. . ... ... ... : ... .. . ... : ... .. 2 ... : ... .. . ... ... : ... .. . ... ... : ... .. . ... ... : ... .. . ... ...
ROW C5 : F-2 00 F P80 V01 ... : C-3 00 F P80 ... ... : --- .. . ... : ... .. 0 ... : ... .. . ... ... : G#3 01 A ... ... : G#4 01 A ... ... : ... .. . ... ...
ROW C6 : ... .. E ... ... ... : ... .. E ... ... ... : ... .. . ... : ... .. . ... : ... .. . ... ... : ... .. 9 ... ... : ... .. 9 ... ... : ... .. . ... ...
ROW C7 : ... .. D ... ... ... : ... .. D ... ... ... : ... .. . ... : ... .. . ... : ... .. . ... ... : ... .. . ... ... : ... .. . ... ... : ... .. . ... ...
ROW C8 : ... .. 0 ... V00 ... : ... .. 0 ... ... ... : ... .. . ... : ... .. . ... : ... .. . ... ... : --- .. . P82 ... : --- .. . ... ... : ... .. . ... ...
ROW C9 : ... .. . ... ... ... : ... .. . ... ... ... : ... .. . ... : ... .. . ... : ... .. . ... ... : ... .. . ... ... : ... .. . ... ... : ... .. . ... ...
ROW CA : B-2 00 F P80 V01 ... : F#3 00 F P80 ... ... : F-2 00 . ... : D-# 00 F ... : ... .. . ... ... : F-4 01 A P80 ... : F-5 01 A ... ... : ... .. . ... ...
ROW CB : ... .. E ... ... ... : ... .. E ... ... ... : ... .. . ... : ... .. C ... : ... .. . ... ... : ... .. 9 ... ... : ... .. 9 ... ... : ... .. . ... ...
ROW CC : ... .. D ... ... ... : ... .. D ... ... ... : ... .. . ... : ... .. 6 ... : ... .. . ... ... : ... .. . ... ... : ... .. . ... ... : ... .. . ... ...
ROW CD : ... .. A ... ... ... : ... .. A ... ... ... : --- .. . ... : ... .. 3 ... : ... .. . ... ... : --- .. . ... ... : --- .. . ... ... : ... .. . ... ...
ROW CE : ... .. . ... ... ... : ... .. . ... ... ... : ... .. . ... : ... .. 2 ... : ... .. . ... ... : ... .. . ... ... : ... .. . ... ... : ... .. . ... ...
ROW CF : ... .. . ... ... ... : ... .. . ... ... ... : F-2 00 . ... : ... .. F ... : ... .. . ... ... : G#3 01 A ... ... : G#4 01 A ... ... : ... .. . ... ...
ROW D0 : ... .. . ... ... ... : ... .. . ... ... ... : ... .. . ... : ... .. C ... : ... .. . ... ... : ... .. 9 ... ... : ... .. 9 ... ... : ... .. . ... ...
ROW D1 : ... .. . ... ... ... : ... .. . ... ... ... : ... .. . ... : ... .. 6 ... : ... .. . ... ... : ... .. . ... ... : ... .. . ... ... : ... .. . ... ...
ROW D2 : ... .. 0 ... V00 ... : ... .. 0 ... ... ... : --- .. . ... : ... .. 3 ... : ... .. . ... ... : --- .. . P82 ... : --- .. . ... ... : ... .. . ... ...
ROW D3 : ... .. . ... ... ... : ... .. . ... ... ... : ... .. . ... : ... .. 2 ... : ... .. . ... ... : ... .. . ... ... : ... .. . ... ... : ... .. . ... ...
ROW D4 : A#2 00 F P80 V01 ... : F-3 00 F P80 ... ... : F-2 00 . ... : 6-# 00 F ... : ... .. . ... ... : F-4 01 A P80 ... : F-5 01 A ... ... : ... .. . ... ...
ROW D5 : ... .. E ... ... ... : ... .. E ... ... ... : ... .. . ... : ... .. C ... : ... .. . ... ... : ... .. 9 ... ... : ... .. 9 ... ... : ... .. . ... ...
ROW D6 : ... .. D ... ... ... : ... .. D ... ... ... : ... .. . ... : ... .. 6 ... : ... .. . ... ... : ... .. . ... ... : ... .. . ... ... : ... .. . ... ...
ROW D7 : ... .. A ... ... ... : ... .. A ... ... ... : ... .. . ... : ... .. 3 ... : ... .. . ... ... : --- .. . ... ... : --- .. . ... ... : ... .. . ... ...
ROW D8 : ... .. . ... ... ... : ... .. . ... ... ... : ... .. . ... : ... .. 2 ... : ... .. . ... ... : ... .. . ... ... : ... .. . ... ... : ... .. . ... ...
ROW D9 : ... .. . ... ... ... : ... .. . ... ... ... : --- .. . ... : ... .. 0 ... : ... .. . ... ... : G#3 01 A ... ... : G#4 01 A ... ... : ... .. . ... ...
ROW DA : ... .. . ... ... ... : ... .. . ... ... ... : ... .. . ... : ... .. . ... : ... .. . ... ... : ... .. 9 ... ... : ... .. 9 ... ... : ... .. . ... ...
ROW DB : ... .. . ... ... ... : ... .. . ... ... ... : ... .. . ... : ... .. . ... : ... .. . ... ... : ... .. . ... ... : ... .. . ... ... : ... .. . ... ...
ROW DC : ... .. 0 ... V00 ... : ... .. 0 ... ... ... : ... .. . ... : ... .. . ... : ... .. . ... ... : --- .. . P82 ... : --- .. . ... ... : ... .. . ... ...
ROW DD : ... .. . ... ... ... : ... .. . ... ... ... : ... .. . ... : ... .. . ... : ... .. . ... ... : ... .. . ... ... : ... .. . ... ... : ... .. . ... ...
ROW DE : G#2 00 F P80 V01 ... : D#3 00 F P80 ... ... : F-2 00 . ... : D-# 00 F ... : ... .. . ... ... : F-4 01 A P80 ... : F-5 01 A ... ... : ... .. . ... ...
ROW DF : ... .. E ... ... ... : ... .. E ... ... ... : ... .. . ... : ... .. C ... : ... .. . ... ... : ... .. 9 ... ... : ... .. 9 ... ... : ... .. . ... ...
ROW E0 : ... .. D ... ... ... : ... .. D ... ... ... : ... .. . ... : ... .. 6 ... : ... .. . ... ... : ... .. . ... ... : ... .. . ... ... : ... .. . ... ...
ROW E1 : ... .. 0 ... V00 ... : ... .. 0 ... ... ... : --- .. . ... : ... .. 3 ... : ... .. . ... ... : --- .. . ... ... : --- .. . ... ... : ... .. . ... ...
ROW E2 : ... .. . ... ... ... : ... .. . ... ... ... : ... .. . ... : ... .. 2 ... : ... .. . ... ... : ... .. . ... ... : ... .. . ... ... : ... .. . ... ...
ROW E3 : F-2 00 F P80 V01 ... : C-3 00 F P80 ... ... : F-2 00 . ... : ... .. F ... : ... .. . ... ... : G#3 01 A ... ... : G#4 01 A ... ... : ... .. . ... ...
ROW E4 : ... .. E ... ... ... : ... .. E ... ... ... : ... .. . ... : ... .. C ... : ... .. . ... ... : ... .. 9 ... ... : ... .. 9 ... ... : ... .. . ... ...
ROW E5 : ... .. D ... ... ... : ... .. D ... ... ... : ... .. . ... : ... .. 6 ... : ... .. . ... ... : ... .. . ... ... : ... .. . ... ... : ... .. . ... ...
ROW E6 : ... .. A ... ... ... : ... .. A ... ... ... : --- .. . ... : ... .. 3 ... : ... .. . ... ... : --- .. . P82 ... : --- .. . ... ... : ... .. . ... ...
ROW E7 : ... .. . ... ... ... : ... .. . ... ... ... : ... .. . ... : ... .. 2 ... : ... .. . ... ... : ... .. . ... ... : ... .. . ... ... : ... .. . ... ...
ROW E8 : ... .. . ... ... ... : ... .. . ... ... ... : F-2 00 . ... : 3-# 00 F ... : ... .. . ... ... : E-4 01 A P80 ... : E-5 01 A ... ... : ... .. . ... ...
ROW E9 : ... .. . ... ... ... : ... .. . ... ... ... : ... .. . ... : ... .. C ... : ... .. . ... ... : ... .. 9 ... ... : ... .. 9 ... ... : ... .. . ... ...
ROW EA : ... .. . ... ... ... : ... .. . ... ... ... : ... .. . ... : ... .. 6 ... : ... .. . ... ... : ... .. . ... ... : ... .. . ... ... : ... .. . ... ...
ROW EB : ... .. 0 ... V00 ... : ... .. 0 ... ... ... : ... .. . ... : ... .. 3 ... : ... .. . ... ... : --- .. . ... ... : --- .. . ... ... : ... .. . ... ...
ROW EC : ... .. . ... ... ... : ... .. . ... ... ... : ... .. . ... : ... .. 2 ... : ... .. . ... ... : ... .. . ... ... : ... .. . ... ... : ... .. . ... ...
ROW ED : F-2 00 F P80 V01 ... : C-3 00 F P80 ... ... : --- .. . ... : ... .. 0 ... : ... .. . ... ... : G-3 01 A ... ... : G-4 01 A ... ... : ... .. . ... ...
ROW EE : ... .. E ... ... ... : ... .. E ... ... ... : ... .. . ... : ... .. . ... : ... .. . ... ... : ... .. 9 ... ... : ... .. 9 ... ... : ... .. . ... ...
ROW EF : ... .. D ... ... ... : ... .. D ... ... ... : ... .. . ... : ... .. . ... : ... .. . ... ... : ... .. . ... ... : ... .. . ... ... : ... .. . ... ...
ROW F0 : ... .. 0 ... V00 ... : ... .. 0 ... ... ... : ... .. . ... : ... .. . ... : ... .. . ... ... : --- .. . P81 ... : --- .. . ... ... : ... .. . ... ...
ROW F1 : ... .. . ... ... ... : ... .. . ... ... ... : ... .. . ... : ... .. . ... : ... .. . ... ... : ... .. . ... ... : ... .. . ... ... : ... .. . ... ...
ROW F2 : B-2 00 F P80 V01 ... : F#3 00 F P80 ... ... : F-2 00 . ... : D-# 00 F ... : ... .. . ... ... : E-4 01 A P80 ... : E-5 01 A ... ... : ... .. . ... ...
ROW F3 : ... .. E ... ... ... : ... .. E ... ... ... : ... .. . ... : ... .. C ... : ... .. . ... ... : ... .. 9 ... ... : ... .. 9 ... ... : ... .. . ... ...
ROW F4 : ... .. D ... ... ... : ... .. D ... ... ... : ... .. . ... : ... .. 6 ... : ... .. . ... ... : ... .. . ... ... : ... .. . ... ... : ... .. . ... ...
ROW F5 : ... .. A ... ... ... : ... .. A ... ... ... : --- .. . ... : ... .. 3 ... : ... .. . ... ... : --- .. . ... ... : --- .. . ... ... : ... .. . ... ...
ROW F6 : ... .. . ... ... ... : ... .. . ... ... ... : ... .. . ... : ... .. 2 ... : ... .. . ... ... : ... .. . ... ... : ... .. . ... ... : ... .. . ... ...
ROW F7 : ... .. . ... ... ... : ... .. . ... ... ... : F-2 00 . ... : ... .. F ... : ... .. . ... ... : G-3 01 A ... ... : G-4 01 A ... ... : ... .. . ... ...
ROW F8 : ... .. . ... ... ... : ... .. . ... ... ... : ... .. . ... : ... .. C ... : ... .. . ... ... : ... .. 9 ... ... : ... .. 9 ... ... : ... .. . ... ...
ROW F9 : ... .. . ... ... ... : ... .. . ... ... ... : ... .. . ... : ... .. 6 ... : ... .. . ... ... : ... .. . ... ... : ... .. . ... ... : ... .. . ... ...
ROW FA : ... .. 0 ... V00 ... : ... .. 0 ... ... ... : --- .. . ... : ... .. 3 ... : ... .. . ... ... : --- .. . P81 ... : --- .. . ... ... : ... .. . ... ...
ROW FB : ... .. . ... ... ... : ... .. . ... ... ... : ... .. . ... : ... .. 2 ... : ... .. . ... ... : ... .. . ... ... : ... .. . ... ... : ... .. . ... ...
ROW FC : A#2 00 F P80 V01 ... : F-3 00 F P80 ... ... : F-2 00 . ... : 6-# 00 F ... : ... .. . ... ... : E-4 01 A P80 ... : E-5 01 A ... ... : ... .. . ... ...
ROW FD : ... .. E ... ... ... : ... .. E ... ... ... : ... .. . ... : ... .. C ... : ... .. . ... ... : ... .. 9 ... ... : ... .. 9 ... ... : ... .. . ... ...
ROW FE : ... .. D ... ... ... : ... .. D ... ... ... : ... .. . ... : ... .. 6 ... : ... .. . ... ... : ... .. . ... ... : ... .. . ... ... : ... .. . ... ...
ROW FF : ... .. A ... ... ... : ... .. A ... ... ... : --- .. . ... : ... .. 3 ... : ... .. . ... ... : --- .. . ... ... : --- .. . ... ... : ... .. . ... ...

PATTERN 09
ROW 00 : ... .. . ... ... ... : ... .. . ... ... ... : ... .. . ... : ... .. 2 ... : ... .. . ... ... : ... .. . ... ... : ... .. . ... ... : ... .. . ... ...
ROW 01 : ... .. . ... ... ... : ... .. . ... ... ... : F-2 00 . ... : ... .. 0 ... : ... .. . ... ... : G-3 01 A ... ... : G-4 01 A ... ... : ... .. . ... ...
ROW 02 : ... .. . ... ... ... : ... .. . ... ... ... : ... .. . ... : ... .. . ... : ... .. . ... ... : ... .. 9 ... ... : ... .. 9 ... ... : ... .. . ... ...
ROW 03 : ... .. . ... ... ... : ... .. . ... ... ... : ... .. . ... : ... .. . ... : ... .. . ... ... : ... .. . ... ... : ... .. . ... ... : ... .. . ... ...
ROW 04 : ... .. 0 ... V00 ... : ... .. 0 ... ... ... : --- .. . ... : ... .. . ... : ... .. . ... ... : --- .. . P81 ... : --- .. . ... ... : ... .. . ... ...
ROW 05 : ... .. . ... ... ... : ... .. . ... ... ... : ... .. . ... : ... .. . ... : ... .. . ... ... : ... .. . ... ... : ... .. . ... ... : ... .. . ... ...
ROW 06 : G#2 00 F P80 V01 ... : D#3 00 F P80 ... ... : F-2 00 . ... : D-# 00 F ... : ... .. . ... ... : E-4 01 A P80 ... : E-5 01 A ... ... : ... .. . ... ...
ROW 07 : ... .. E ... ... ... : ... .. E ... ... ... : ... .. . ... : ... .. C ... : ... .. . ... ... : ... .. 9 ... ... : ... .. 9 ... ... : ... .. . ... ...
ROW 08 : ... .. D ... ... ... : ... .. D ... ... ... : ... .. . ... : ... .. 6 ... : ... .. . ... ... : ... .. . ... ... : ... .. . ... ... : ... .. . ... ...
ROW 09 : ... .. A ... ... ... : ... .. A ... ... ... : --- .. . ... : ... .. 3 ... : ... .. . ... ... : --- .. . ... ... : --- .. . ... ... : ... .. . ... ...
ROW 0A : ... .. . ... ... ... : ... .. . ... ... ... : ... .. . ... : ... .. 2 ... : ... .. . ... ... : ... .. . ... ... : ... .. . ... ... : ... .. . ... ...
ROW 0B : ... .. . ... ... ... : ... .. . ... ... ... : F-2 00 . ... : ... .. 0 ... : ... .. . ... ... : G-3 01 A ... ... : G-4 01 A ... ... : ... .. . ... ...
ROW 0C : ... .. . ... ... ... : ... .. . ... ... ... : ... .. . ... : ... .. . ... : ... .. . ... ... : ... .. 9 ... ... : ... .. 9 ... ... : ... .. . ... ...
ROW 0D : ... .. . ... ... ... : ... .. . ... ... ... : ... .. . ... : ... .. . ... : ... .. . ... ... : ... .. . ... ... : ... .. . ... ... : ... .. . ... ...
ROW 0E : ... .. 0 ... V00 ... : ... .. 0 ... ... ... : --- .. . ... : ... .. . ... : ... .. . ... ... : --- .. . P81 ... : --- .. . ... ... : ... .. . ... ...
ROW 0F : ... .. . ... ... ... : ... .. . ... ... ... : ... .. . ... : ... .. . ... : ... .. . ... ... : ... .. . ... ... : ... .. . ... ... : ... .. . ... ...
ROW 10 : F-2 00 F P80 V01 ... : C-3 00 F P80 ... ... : F-2 00 . ... : 3-# 00 F ... : ... .. . ... ... : D#4 01 A P80 ... : D#5 01 A ... ... : ... .. . ... ...
ROW 11 : ... .. E ... ... ... : ... .. E ... ... ... : ... .. . ... : ... .. C ... : ... .. . ... ... : ... .. 9 ... ... : ... .. 9 ... ... : ... .. . ... ...
ROW 12 : ... .. D ... ... ... : ... .. D ... ... ... : ... .. . ... : ... .. 6 ... : ... .. . ... ... : ... .. . ... ... : ... .. . ... ... : ... .. . ... ...
ROW 13 : ... .. 0 ... V00 ... : ... .. 0 ... ... ... : ... .. . ... : ... .. 3 ... : ... .. . ... ... : --- .. . ... ... : --- .. . ... ... : ... .. . ... ...
ROW 14 : ... .. . ... ... ... : ... .. . ... ... ... : ... .. . ... : ... .. 2 ... : ... .. . ... ... : ... .. . ... ... : ... .. . ... ... : ... .. . ... ...
ROW 15 : F-2 00 F P80 V01 ... : C-3 00 F P80 ... ... : ... .. . ... : ... .. 0 ... : ... .. . ... ... : F#3 01 A ... ... : F#4 01 A ... ... : ... .. . ... ...
ROW 16 : ... .. E ... ... ... : ... .. E ... ... ... : ... .. . ... : ... .. . ... : ... .. . ... ... : ... .. 9 ... ... : ... .. 9 ... ... : ... .. . ... ...
ROW 17 : ... .. D ... ... ... : ... .. D ... ... ... : ... .. . ... : ... .. . ... : ... .. . ... ... : ... .. . ... ... : ... .. . ... ... : ... .. . ... ...
ROW 18 : ... .. 0 ... V00 ... : ... .. 0 ... ... ... : ... .. . ... : ... .. . ... : ... .. . ... ... : --- .. . P7F ... : --- .. . ... ... : ... .. . ... ...
ROW 19 : ... .. . ... ... ... : ... .. . ... ... ... : ... .. . ... : ... .. . ... : ... .. . ... ... : ... .. . ... ... : ... .. . ... ... : ... .. . ... ...
ROW 1A : A#2 00 F P80 V01 ... : F-3 00 F P80 ... ... : A#2 00 . ... : D-# 00 F ... : ... .. . ... ... : A#3 01 A P80 ... : A#4 01 A ... ... : ... .. . ... ...
ROW 1B : ... .. E ... ... ... : ... .. E ... ... ... : ... .. . ... : ... .. C ... : ... .. . ... ... : ... .. 9 ... ... : ... .. 9 ... ... : ... .. . ... ...
ROW 1C : ... .. D ... ... ... : ... .. D ... ... ... : ... .. . ... : ... .. 6 ... : ... .. . ... ... : ... .. . ... ... : ... .. . ... ... : ... .. . ... ...
ROW 1D : ... .. 0 ... V00 ... : ... .. 0 ... ... ... : --- .. . ... : ... .. 3 ... : ... .. . ... ... : --- .. . ... ... : --- .. . ... ... : ... .. . ... ...
ROW 1E : ... .. . ... ... ... : ... .. . ... ... ... : ... .. . ... : ... .. 2 ... : ... .. . ... ... : ... .. . ... ... : ... .. . ... ... : ... .. . ... ...
ROW 1F : B-2 00 F P80 V01 ... : F#3 00 F P80 ... ... : B-2 00 . ... : ... .. F ... : ... .. . ... ... : B-3 01 A ... ... : B-4 01 A ... ... : ... .. . ... ...
ROW 20 : ... .. E ... ... ... : ... .. E ... ... ... : ... .. . ... : ... .. C ... : ... .. . ... ... : ... .. 9 ... ... : ... .. 9 ... ... : ... .. . ... ...
ROW 21 : ... .. D ... ... ... : ... .. D ... ... ... : ... .. . ... : ... .. 6 ... : ... .. . ... ... : ... .. . ... ... : ... .. . ... ... : ... .. . ... ...
ROW 22 : ... .. 0 ... V00 ... : ... .. 0 ... ... ... : --- .. . ... : ... .. 3 ... : ... .. . ... ... : --- .. . ... ... : --- .. . ... ... : ... .. . ... ...
ROW 23 : ... .. . ... ... ... : ... .. . ... ... ... : ... .. . ... : ... .. 2 ... : ... .. . ... ... : ... .. . ... ... : ... .. . ... ... : ... .. . ... ...
ROW 24 : C-3 00 F P80 V01 ... : G-3 00 F P80 ... ... : C-3 00 . ... : 6-# 00 F ... : ... .. . ... ... : C-4 01 A ... ... : C-5 01 A ... ... : ... .. . ... ...
ROW 25 : ... .. E ... ... ... : ... .. E ... ... ... : ... .. . ... : ... .. C ... : ... .. . ... ... : ... .. 9 ... ... : ... .. 9 ... ... : ... .. . ... ...
ROW 26 : ... .. D ... ... ... : ... .. D ... ... ... : ... .. . ... : ... .. 6 ... : ... .. . ... ... : ... .. . ... ... : ... .. . ... ... : ... .. . ... ...
ROW 27 : ... .. A ... ... ... : ... .. A ... ... ... : ... .. . ... : ... .. 3 ... : ... .. . ... ... : --- .. . ... ... : --- .. . ... ... : ... .. . ... ...
ROW 28 : ... .. . ... ... ... : ... .. . ... ... ... : ... .. . ... : ... .. 2 ... : ... .. . ... ... : ... .. . ... ... : ... .. . ... ... : ... .. . ... ...
ROW 29 : D#3 00 F ... ... ... : A#3 00 F ... ... ... : D#3 00 . ... : ... .. 0 ... : ... .. . ... ... : D#4 01 A ... ... : D#5 01 A ... ... : ... .. . ... ...
ROW 2A : ... .. E ... ... ... : ... .. E ... ... ... : ... .. . ... : ... .. . ... : ... .. . ... ... : ... .. 9 ... ... : ... .. 9 ... ... : ... .. . ... ...
ROW 2B : ... .. D ... ... ... : ... .. D ... ... ... : ... .. . ... : ... .. . ... : ... .. . ... ... : ... .. . ... ... : ... .. . ... ... : ... .. . ... ...
ROW 2C : ... .. 0 ... V00 ... : ... .. 0 ... ... ... : ... .. . ... : ... .. . ... : ... .. . ... ... : --- .. . ... ... : --- .. . ... ... : ... .. . ... ...
ROW 2D : ... .. . ... ... ... : ... .. . ... ... ... : ... .. . ... : ... .. . ... : ... .. . ... ... : ... .. . ... ... : ... .. . ... ... : ... .. . ... ...
ROW 2E : C-3 00 F P80 V01 ... : G-3 00 F P80 ... ... : C-3 00 . ... : D-# 00 F ... : ... .. . ... ... : C-4 01 A ... ... : C-5 01 A ... ... : ... .. . ... ...
ROW 2F : ... .. E ... ... ... : ... .. E ... ... ... : ... .. . ... : ... .. C ... : ... .. . ... ... : ... .. 9 ... ... : ... .. 9 ... ... : ... .. . ... ...
ROW 30 : ... .. D ... ... ... : ... .. D ... ... ... : ... .. . ... : ... .. 6 ... : ... .. . ... ... : ... .. . ... ... : ... .. . ... ... : ... .. . ... ...
ROW 31 : ... .. 0 ... V00 ... : ... .. 0 ... ... ... : --- .. . ... : ... .. 3 ... : ... .. . ... ... : --- .. . ... ... : --- .. . ... ... : ... .. . ... ...
ROW 32 : ... .. . ... ... ... : ... .. . ... ... ... : ... .. . ... : ... .. 2 ... : ... .. . ... ... : ... .. . ... ... : ... .. . ... ... : ... .. . ... ...
ROW 33 : F-3 00 F P80 V01 ... : C-4 00 F P80 ... ... : F-3 00 . ... : ... .. 0 ... : ... .. . ... ... : F-4 01 A ... ... : F-5 01 A ... ... : ... .. . ... ...
ROW 34 : ... .. E ... ... ... : ... .. E ... ... ... : ... .. . ... : ... .. . ... : ... .. . ... ... : ... .. 9 ... ... : ... .. 9 ... ... : ... .. . ... ...
ROW 35 : ... .. D ... ... ... : ... .. D ... ... ... : ... .. . ... : ... .. . ... : ... .. . ... ... : ... .. . ... ... : ... .. . ... ... : ... .. . ... ...
ROW 36 : ... .. A ... ... ... : ... .. A ... ... ... : ... .. . ... : ... .. . ... : ... .. . ... ... : --- .. . ... ... : --- .. . ... ... : ... .. . ... ...
ROW 37 : ... .. . ... ... ... : ... .. . ... ... ... : ... .. . ... : ... .. . ... : ... .. . ... ... : ... .. . ... ... : ... .. . ... ... : ... .. . ... ...
ROW 38 : G-3 00 4 ... ... ... : D-4 00 4 ... ... ... : ... .. . ... : 3-# 00 F ... : ... .. . ... ... : G#4 01 A ... ... : G#5 01 A ... ... : ... .. . ... ...
ROW 39 : A-3 00 3 ... ... ... : E-4 00 3 ... ... ... : ... .. . ... : ... .. C ... : ... .. . ... ... : ... .. 9 ... ... : ... .. 9 ... ... : ... .. . ... ...
ROW 3A : C-3 00 3 ... ... ... : G-3 00 3 ... ... ... : ... .. . ... : ... .. 6 ... : ... .. . ... ... : ... .. . ... ... : ... .. . ... ... : ... .. . ... ...
ROW 3B : ... .. 0 ... V00 ... : ... .. 0 ... ... ... : ... .. . ... : ... .. 3 ... : ... .. . ... ... : --- .. . ... ... : --- .. . ... ... : ... .. . ... ...
ROW 3C : ... .. . ... ... ... : ... .. . ... ... ... : ... .. . ... : ... .. 2 ... : ... .. . ... ... : ... .. . ... ... : ... .. . ... ... : ... .. . ... ...
ROW 3D : C#3 00 4 P80 V01 ... : G#3 00 4 P80 ... ... : ... .. . ... : ... .. 0 ... : ... .. . ... ... : G-4 01 A ... ... : G-5 01 A ... ... : ... .. . ... ...
ROW 3E : G#3 00 3 ... ... ... : D#4 00 3 ... ... ... : ... .. . ... : ... .. . ... : ... .. . ... ... : ... .. 9 ... ... : ... .. 9 ... ... : ... .. . ... ...
ROW 3F : A#3 00 3 ... ... ... : F-4 00 3 ... ... ... : ... .. . ... : ... .. . ... : ... .. . ... ... : ... .. . ... ... : ... .. . ... ... : ... .. . ... ...
ROW 40 : ... .. 0 ... V00 ... : ... .. 0 ... ... ... : ... .. . ... : ... .. . ... : ... .. . ... ... : --- .. . ... ... : --- .. . ... ... : ... .. . ... ...
ROW 41 : ... .. . ... ... ... : ... .. . ... ... ... : ... .. . ... : ... .. . ... : ... .. . ... ... : ... .. . ... ... : ... .. . ... ... : ... .. . ... ...
ROW 42 : B-3 00 5 P80 V01 ... : F#4 00 5 P80 ... ... : E-3 00 . P83 : ... .. . ... : ... .. . ... ... : F#4 01 A ... ... : F#5 01 A ... ... : ... .. . ... ...
ROW 43 : D-3 00 4 ... ... ... : A-3 00 4 ... ... ... : D#3 00 . P88 : ... .. . ... : ... .. . ... ... : ... .. 9 ... ... : ... .. 9 ... ... : ... .. . ... ...
ROW 44 : A-3 00 4 ... ... ... : E-4 00 4 ... ... ... : ... .. . P78 : ... .. . ... : ... .. . ... ... : ... .. . ... ... : ... .. . ... ... : ... .. . ... ...
ROW 45 : ... .. 0 ... V00 ... : ... .. 0 ... ... ... : D-3 00 . P7D : ... .. . ... : ... .. . ... ... : --- .. . ... ... : --- .. . ... ... : ... .. . ... ...
ROW 46 : ... .. . ... ... ... : ... .. . ... ... ... : C#3 00 . P84 : ... .. . ... : ... .. . ... ... : ... .. . ... ... : ... .. . ... ... : ... .. . ... ...
ROW 47 : A#3 00 6 P80 V01 ... : F-4 00 6 P80 ... ... : C-3 00 . P8C : ... .. . ... : ... .. . ... ... : F-4 01 A ... ... : F-5 01 A ... ... : ... .. . ... ...
ROW 48 : C-4 00 5 ... ... ... : G-4 00 5 ... ... ... : ... .. . P7C : ... .. . ... : ... .. . ... ... : ... .. 9 ... ... : ... .. 9 ... ... : ... .. . ... ...
ROW 49 : D#3 00 5 ... ... ... : A#3 00 5 ... ... ... : B-2 00 . P85 : ... .. . ... : ... .. . ... ... : ... .. . ... ... : ... .. . ... ... : ... .. . ... ...
ROW 4A : ... .. 0 ... V00 ... : ... .. 0 ... ... ... : ... .. . P75 : ... .. . ... : ... .. . ... ... : --- .. . ... ... : --- .. . ... ... : ... .. . ... ...
ROW 4B : ... .. . ... ... ... : ... .. . ... ... ... : A#2 00 . P80 : ... .. . ... : ... .. . ... ... : ... .. . ... ... : ... .. . ... ... : ... .. . ... ...
ROW 4C : E-3 00 7 P80 V01 ... : B-3 00 7 P80 ... ... : A-2 00 . P8C : ... .. . ... : ... .. . ... ... : E-4 01 A ... ... : E-5 01 A ... ... : ... .. . ... ...
ROW 4D : B-3 00 6 ... ... ... : F#4 00 6 ... ... ... : ... .. . P7C : ... .. . ... : ... .. . ... ... : ... .. 9 ... ... : ... .. 9 ... ... : ... .. . ... ...
ROW 4E : C#4 00 6 ... ... ... : G#4 00 6 ... ... ... : G#2 00 . P8B : ... .. . ... : ... .. . ... ... : ... .. . ... ... : ... .. . ... ... : ... .. . ... ...
ROW 4F : ... .. 0 ... V00 ... : ... .. 0 ... ... ... : ... .. . P7B : ... .. . ... : ... .. . ... ... : --- .. . ... ... : --- .. . ... ... : ... .. . ... ...
ROW 50 : ... .. . ... ... ... : ... .. . ... ... ... : G-2 00 . P8B : ... .. . ... : ... .. . ... ... : ... .. . ... ... : ... .. . ... ... : ... .. . ... ...
ROW 51 : D-4 00 8 P80 V01 ... : A-4 00 8 P80 ... ... : ... .. . P7B : ... .. . ... : ... .. . ... ... : D#4 01 A ... ... : D#5 01 A ... ... : ... .. . ... ...
ROW 52 : F-3 00 7 ... ... ... : C-4 00 7 ... ... ... : F#2 00 . P8D : ... .. . ... : ... .. . ... ... : ... .. 9 ... ... : ... .. 9 ... ... : ... .. . ... ...
ROW 53 : C-4 00 6 ... ... ... : G-4 00 6 ... ... ... : ... .. . P7D : ... .. . ... : ... .. . ... ... : ... .. . ... ... : ... .. . ... ... : ... .. . ... ...
ROW 54 : ... .. 0 ... V00 ... : ... .. 0 ... ... ... : F-2 00 . P91 : ... .. . ... : ... .. . ... ... : --- .. . ... ... : --- .. . ... ... : ... .. . ... ...
ROW 55 : ... .. . ... ... ... : ... .. . ... ... ... : ... .. . P81 : ... .. . ... : ... .. . ... ... : ... .. . ... ... : ... .. . ... ... : ... .. . ... ...
ROW 56 : C#4 00 9 P80 V01 ... : G#4 00 9 P80 ... ... : ... .. . P71 : ... .. . ... : ... .. . ... ... : D-4 01 A ... ... : D-5 01 A ... ... : ... .. . ... ...
ROW 57 : D#4 00 8 ... ... ... : A#4 00 8 ... ... ... : E-2 00 . P87 : ... .. . ... : ... .. . ... ... : ... .. 9 ... ... : ... .. 9 ... ... : ... .. . ... ...
ROW 58 : F#3 00 7 ... ... ... : C#4 00 7 ... ... ... : ... .. . P77 : ... .. . ... : ... .. . ... ... : ... .. . ... ... : ... .. . ... ... : ... .. . ... ...
ROW 59 : ... .. 0 ... V00 ... : ... .. 0 ... ... ... : D#2 00 . P8F : ... .. . ... : ... .. . ... ... : --- .. . ... ... : --- .. . ... ... : ... .. . ... ...
ROW 5A : ... .. . ... ... ... : ... .. . ... ... ... : ... .. . P7F : ... .. . ... : ... .. . ... ... : ... .. . ... ... : ... .. . ... ... : ... .. . ... ...
ROW 5B : G-3 00 A P80 V01 ... : D-4 00 A P80 ... ... : --- .. . ... : ... .. . ... : ... .. . ... ... : C#4 01 A ... ... : C#5 01 A ... ... : ... .. . ... ...
ROW 5C : D-4 00 9 ... ... ... : A-4 00 9 ... ... ... : ... .. . ... : ... .. . ... : ... .. . ... ... : ... .. 9 ... ... : ... .. 9 ... ... : ... .. . ... ...
ROW 5D : E-4 00 8 ... ... ... : B-4 00 8 ... ... ... : ... .. . ... : ... .. . ... : ... .. . ... ... : ... .. . ... ... : ... .. . ... ... : ... .. . ... ...
ROW 5E : ... .. 0 ... V00 ... : ... .. 0 ... ... ... : ... .. . ... : ... .. . ... : ... .. . ... ... : --- .. . ... ... : --- .. . ... ... : ... .. . ... ...
ROW 5F : ... .. . ... ... ... : ... .. . ... ... ... : ... .. . ... : ... .. . ... : ... .. . ... ... : ... .. . ... ... : ... .. . ... ... : ... .. . ... ...
ROW 60 : F-2 00 F P80 V01 ... : C-3 00 F P80 ... ... : F-3 00 . P80 : ... .. F ... : ... .. . ... ... : F-3 01 A ... ... : F-4 01 A ... ... : ... .. . ... ...
ROW 61 : ... .. E ... ... ... : ... .. E ... ... ... : ... .. . ... : ... .. C ... : ... .. . ... ... : ... .. 9 ... ... : ... .. 9 ... ... : ... .. . ... ...
ROW 62 : ... .. D ... ... ... : ... .. D ... ... ... : ... .. . ... : ... .. 6 ... : ... .. . ... ... : ... .. . ... ... : ... .. . ... ... : ... .. . ... ...
ROW 63 : ... .. 0 ... V00 ... : ... .. 0 ... ... ... : ... .. . ... : ... .. 3 ... : ... .. . ... ... : --- .. . ... ... : --- .. . ... ... : ... .. . ... ...
ROW 64 : ... .. . ... ... ... : ... .. . ... ... ... : ... .. . ... : ... .. 2 ... : ... .. . ... ... : ... .. . ... ... : ... .. . ... ... : ... .. . ... ...
ROW 65 : F-2 00 F P80 V01 ... : C-3 00 F P80 ... ... : --- .. . ... : ... .. 0 ... : ... .. . ... ... : G#2 01 A ... ... : G#3 01 A ... ... : ... .. . ... ...
ROW 66 : ... .. E ... ... ... : ... .. E ... ... ... : ... .. . ... : ... .. . ... : ... .. . ... ... : ... .. 9 ... ... : ... .. 9 ... ... : ... .. . ... ...
ROW 67 : ... .. D ... ... ... : ... .. D ... ... ... : ... .. . ... : ... .. . ... : ... .. . ... ... : ... .. . ... ... : ... .. . ... ... : ... .. . ... ...
ROW 68 : ... .. 0 ... V00 ... : ... .. 0 ... ... ... : ... .. . ... : ... .. . ... : ... .. . ... ... : --- .. . ... ... : --- .. . P83 ... : ... .. . ... ...
ROW 69 : ... .. . ... ... ... : ... .. . ... ... ... : ... .. . ... : ... .. . ... : ... .. . ... ... : ... .. . ... ... : ... .. . ... ... : ... .. . ... ...
ROW 6A : B-2 00 F P80 V01 ... : F#3 00 F P80 ... ... : F-3 00 . ... : D-# 00 F ... : ... .. . ... ... : F-3 01 A ... ... : F-4 01 A P81 ... : ... .. . ... ...
ROW 6B : ... .. E ... ... ... : ... .. E ... ... ... : ... .. . ... : ... .. C ... : ... .. . ... ... : ... .. 9 ... ... : ... .. 9 ... ... : ... .. . ... ...
ROW 6C : ... .. D ... ... ... : ... .. D ... ... ... : ... .. . ... : ... .. 6 ... : ... .. . ... ... : ... .. . ... ... : ... .. . ... ... : ... .. . ... ...
ROW 6D : ... .. A ... ... ... : ... .. A ... ... ... : --- .. . ... : ... .. 3 ... : ... .. . ... ... : --- .. . ... ... : --- .. . ... ... : ... .. . ... ...
ROW 6E : ... .. . ... ... ... : ... .. . ... ... ... : ... .. . ... : ... .. 2 ... : ... .. . ... ... : ... .. . ... ... : ... .. . ... ... : ... .. . ... ...
ROW 6F : ... .. . ... ... ... : ... .. . ... ... ... : G-3 00 . ... : ... .. F ... : ... .. . ... ... : G#2 01 A ... ... : G#3 01 A ... ... : ... .. . ... ...
ROW 70 : ... .. . ... ... ... : ... .. . ... ... ... : ... .. . ... : ... .. C ... : ... .. . ... ... : ... .. 9 ... ... : ... .. 9 ... ... : ... .. . ... ...
ROW 71 : ... .. . ... ... ... : ... .. . ... ... ... : ... .. . ... : ... .. 6 ... : ... .. . ... ... : ... .. . ... ... : ... .. . ... ... : ... .. . ... ...
ROW 72 : ... .. 0 ... V00 ... : ... .. 0 ... ... ... : --- .. . ... : ... .. 3 ... : ... .. . ... ... : --- .. . ... ... : --- .. . P83 ... : ... .. . ... ...
ROW 73 : ... .. . ... ... ... : ... .. . ... ... ... : ... .. . ... : ... .. 2 ... : ... .. . ... ... : ... .. . ... ... : ... .. . ... ... : ... .. . ... ...
ROW 74 : A#2 00 F P80 V01 ... : F-3 00 F P80 ... ... : G#3 00 . ... : 6-# 00 F ... : ... .. . ... ... : F-3 01 A ... ... : F-4 01 A P81 ... : ... .. . ... ...
ROW 75 : ... .. E ... ... ... : ... .. E ... ... ... : ... .. . ... : ... .. C ... : ... .. . ... ... : ... .. 9 ... ... : ... .. 9 ... ... : ... .. . ... ...
ROW 76 : ... .. D ... ... ... : ... .. D ... ... ... : ... .. . ... : ... .. 6 ... : ... .. . ... ... : ... .. . ... ... : ... .. . ... ... : ... .. . ... ...
ROW 77 : ... .. A ... ... ... : ... .. A ... ... ... : ... .. . ... : ... .. 3 ... : ... .. . ... ... : --- .. . ... ... : --- .. . ... ... : ... .. . ... ...
ROW 78 : ... .. . ... ... ... : ... .. . ... ... ... : ... .. . ... : ... .. 2 ... : ... .. . ... ... : ... .. . ... ... : ... .. . ... ... : ... .. . ... ...
ROW 79 : ... .. . ... ... ... : ... .. . ... ... ... : --- .. . ... : ... .. 0 ... : ... .. . ... ... : G#2 01 A ... ... : G#3 01 A ... ... : ... .. . ... ...
ROW 7A : ... .. . ... ... ... : ... .. . ... ... ... : ... .. . ... : ... .. . ... : ... .. . ... ... : ... .. 9 ... ... : ... .. 9 ... ... : ... .. . ... ...
ROW 7B : ... .. . ... ... ... : ... .. . ... ... ... : ... .. . ... : ... .. . ... : ... .. . ... ... : ... .. . ... ... : ... .. . ... ... : ... .. . ... ...
ROW 7C : ... .. 0 ... V00 ... : ... .. 0 ... ... ... : ... .. . ... : ... .. . ... : ... .. . ... ... : --- .. . ... ... : --- .. . P83 ... : ... .. . ... ...
ROW 7D : ... .. . ... ... ... : ... .. . ... ... ... : ... .. . ... : ... .. . ... : ... .. . ... ... : ... .. . ... ... : ... .. . ... ... : ... .. . ... ...
ROW 7E : G#2 00 F P80 V01 ... : D#3 00 F P80 ... ... : G-3 00 . ... : D-# 00 F ... : ... .. . ... ... : F-3 01 A ... ... : F-4 01 A P81 ... : ... .. . ... ...
ROW 7F : ... .. E ... ... ... : ... .. E ... ... ... : ... .. . ... : ... .. C ... : ... .. . ... ... : ... .. 9 ... ... : ... .. 9 ... ... : ... .. . ... ...
ROW 80 : ... .. D ... ... ... : ... .. D ... ... ... : ... .. . ... : ... .. 6 ... : ... .. . ... ... : ... .. . ... ... : ... .. . ... ... : ... .. . ... ...
ROW 81 : ... .. 0 ... V00 ... : ... .. 0 ... ... ... : --- .. . ... : ... .. 3 ... : ... .. . ... ... : --- .. . ... ... : --- .. . ... ... : ... .. . ... ...
ROW 82 : ... .. . ... ... ... : ... .. . ... ... ... : ... .. . ... : ... .. 2 ... : ... .. . ... ... : ... .. . ... ... : ... .. . ... ... : ... .. . ... ...
ROW 83 : F-2 00 F P80 V01 ... : C-3 00 F P80 ... ... : G#3 00 . ... : ... .. F ... : ... .. . ... ... : G#2 01 A ... ... : G#3 01 A ... ... : ... .. . ... ...
ROW 84 : ... .. E ... ... ... : ... .. E ... ... ... : ... .. . ... : ... .. C ... : ... .. . ... ... : ... .. 9 ... ... : ... .. 9 ... ... : ... .. . ... ...
ROW 85 : ... .. D ... ... ... : ... .. D ... ... ... : ... .. . ... : ... .. 6 ... : ... .. . ... ... : ... .. . ... ... : ... .. . ... ... : ... .. . ... ...
ROW 86 : ... .. A ... ... ... : ... .. A ... ... ... : --- .. . ... : ... .. 3 ... : ... .. . ... ... : --- .. . ... ... : --- .. . P83 ... : ... .. . ... ...
ROW 87 : ... .. . ... ... ... : ... .. . ... ... ... : ... .. . ... : ... .. 2 ... : ... .. . ... ... : ... .. . ... ... : ... .. . ... ... : ... .. . ... ...
ROW 88 : ... .. . ... ... ... : ... .. . ... ... ... : B-3 00 . ... : 3-# 00 F ... : ... .. . ... ... : E-3 01 A ... ... : E-4 01 A P81 ... : ... .. . ... ...
ROW 89 : ... .. . ... ... ... : ... .. . ... ... ... : ... .. . ... : ... .. C ... : ... .. . ... ... : ... .. 9 ... ... : ... .. 9 ... ... : ... .. . ... ...
ROW 8A : ... .. . ... ... ... : ... .. . ... ... ... : ... .. . ... : ... .. 6 ... : ... .. . ... ... : ... .. . ... ... : ... .. . ... ... : ... .. . ... ...
ROW 8B : ... .. 0 ... V00 ... : ... .. 0 ... ... ... : ... .. . ... : ... .. 3 ... : ... .. . ... ... : --- .. . P82 ... : --- .. . ... ... : ... .. . ... ...
ROW 8C : ... .. . ... ... ... : ... .. . ... ... ... : ... .. . ... : ... .. 2 ... : ... .. . ... ... : ... .. . ... ... : ... .. . ... ... : ... .. . ... ...
ROW 8D : F-2 00 F P80 V01 ... : C-3 00 F P80 ... ... : --- .. . ... : ... .. 0 ... : ... .. . ... ... : G-2 01 A P80 ... : G-3 01 A ... ... : ... .. . ... ...
ROW 8E : ... .. E ... ... ... : ... .. E ... ... ... : ... .. . ... : ... .. . ... : ... .. . ... ... : ... .. 9 ... ... : ... .. 9 ... ... : ... .. . ... ...
ROW 8F : ... .. D ... ... ... : ... .. D ... ... ... : ... .. . ... : ... .. . ... : ... .. . ... ... : ... .. . ... ... : ... .. . ... ... : ... .. . ... ...
ROW 90 : ... .. 0 ... V00 ... : ... .. 0 ... ... ... : ... .. . ... : ... .. . ... : ... .. . ... ... : --- .. . P81 ... : --- .. . P80 ... : ... .. . ... ...
ROW 91 : ... .. . ... ... ... : ... .. . ... ... ... : ... .. . ... : ... .. . ... : ... .. . ... ... : ... .. . ... ... : ... .. . ... ... : ... .. . ... ...
ROW 92 : B-2 00 F P80 V01 ... : F#3 00 F P80 ... ... : B-3 00 . ... : D-# 00 F ... : ... .. . ... ... : E-3 01 A P80 ... : E-4 01 A P81 ... : ... .. . ... ...
ROW 93 : ... .. E ... ... ... : ... .. E ... ... ... : ... .. . ... : ... .. C ... : ... .. . ... ... : ... .. 9 ... ... : ... .. 9 ... ... : ... .. . ... ...
ROW 94 : ... .. D ... ... ... : ... .. D ... ... ... : ... .. . ... : ... .. 6 ... : ... .. . ... ... : ... .. . ... ... : ... .. . ... ... : ... .. . ... ...
ROW 95 : ... .. A ... ... ... : ... .. A ... ... ... : --- .. . ... : ... .. 3 ... : ... .. . ... ... : --- .. . P82 ... : --- .. . ... ... : ... .. . ... ...
ROW 96 : ... .. . ... ... ... : ... .. . ... ... ... : ... .. . ... : ... .. 2 ... : ... .. . ... ... : ... .. . ... ... : ... .. . ... ... : ... .. . ... ...
ROW 97 : ... .. . ... ... ... : ... .. . ... ... ... : A#3 00 . ... : ... .. F ... : ... .. . ... ... : G-2 01 A P80 ... : G-3 01 A ... ... : ... .. . ... ...
ROW 98 : ... .. . ... ... ... : ... .. . ... ... ... : ... .. . ... : ... .. C ... : ... .. . ... ... : ... .. 9 ... ... : ... .. 9 ... ... : ... .. . ... ...
ROW 99 : ... .. . ... ... ... : ... .. . ... ... ... : ... .. . ... : ... .. 6 ... : ... .. . ... ... : ... .. . ... ... : ... .. . ... ... : ... .. . ... ...
ROW 9A : ... .. 0 ... V00 ... : ... .. 0 ... ... ... : --- .. . ... : ... .. 3 ... : ... .. . ... ... : --- .. . P81 ... : --- .. . P80 ... : ... .. . ... ...
ROW 9B : ... .. . ... ... ... : ... .. . ... ... ... : ... .. . ... : ... .. 2 ... : ... .. . ... ... : ... .. . ... ... : ... .. . ... ... : ... .. . ... ...
ROW 9C : A#2 00 F P80 V01 ... : F-3 00 F P80 ... ... : G#3 00 . ... : 6-# 00 F ... : ... .. . ... ... : E-3 01 A P80 ... : E-4 01 A P81 ... : ... .. . ... ...
ROW 9D : ... .. E ... ... ... : ... .. E ... ... ... : ... .. . ... : ... .. C ... : ... .. . ... ... : ... .. 9 ... ... : ... .. 9 ... ... : ... .. . ... ...
ROW 9E : ... .. D ... ... ... : ... .. D ... ... ... : ... .. . ... : ... .. 6 ... : ... .. . ... ... : ... .. . ... ... : ... .. . ... ... : ... .. . ... ...
ROW 9F : ... .. A ... ... ... : ... .. A ... ... ... : --- .. . ... : ... .. 3 ... : ... .. . ... ... : --- .. . P82 ... : --- .. . ... ... : ... .. . ... ...
ROW A0 : ... .. . ... ... ... : ... .. . ... ... ... : ... .. . ... : ... .. 2 ... : ... .. . ... ... : ... .. . ... ... : ... .. . ... ... : ... .. . ... ...
ROW A1 : ... .. . ... ... ... : ... .. . ... ... ... : G-3 00 . ... : ... .. 0 ... : ... .. . ... ... : G-2 01 A P80 ... : G-3 01 A ... ... : ... .. . ... ...
ROW A2 : ... .. . ... ... ... : ... .. . ... ... ... : ... .. . ... : ... .. . ... : ... .. . ... ... : ... .. 9 ... ... : ... .. 9 ... ... : ... .. . ... ...
ROW A3 : ... .. . ... ... ... : ... .. . ... ... ... : ... .. . ... : ... .. . ... : ... .. . ... ... : ... .. . ... ... : ... .. . ... ... : ... .. . ... ...
ROW A4 : ... .. 0 ... V00 ... : ... .. 0 ... ... ... : --- .. . ... : ... .. . ... : ... .. . ... ... : --- .. . P81 ... : --- .. . P80 ... : ... .. . ... ...
ROW A5 : ... .. . ... ... ... : ... .. . ... ... ... : ... .. . ... : ... .. . ... : ... .. . ... ... : ... .. . ... ... : ... .. . ... ... : ... .. . ... ...
ROW A6 : G#2 00 F P80 V01 ... : D#3 00 F P80 ... ... : G#3 00 . ... : D-# 00 F ... : ... .. . ... ... : E-3 01 A P80 ... : E-4 01 A P81 ... : ... .. . ... ...
ROW A7 : ... .. E ... ... ... : ... .. E ... ... ... : ... .. . ... : ... .. C ... : ... .. . ... ... : ... .. 9 ... ... : ... .. 9 ... ... : ... .. . ... ...
ROW A8 : ... .. D ... ... ... : ... .. D ... ... ... : ... .. . ... : ... .. 6 ... : ... .. . ... ... : ... .. . ... ... : ... .. . ... ... : ... .. . ... ...
ROW A9 : ... .. A ... ... ... : ... .. A ... ... ... : --- .. . ... : ... .. 3 ... : ... .. . ... ... : --- .. . P82 ... : --- .. . ... ... : ... .. . ... ...
ROW AA : ... .. . ... ... ... : ... .. . ... ... ... : ... .. . ... : ... .. 2 ... : ... .. . ... ... : ... .. . ... ... : ... .. . ... ... : ... .. . ... ...
ROW AB : ... .. . ... ... ... : ... .. . ... ... ... : G-3 00 . ... : ... .. 0 ... : ... .. . ... ... : G-2 01 A P80 ... : G-3 01 A ... ... : ... .. . ... ...
ROW AC : ... .. . ... ... ... : ... .. . ... ... ... : ... .. . ... : ... .. . ... : ... .. . ... ... : ... .. 9 ... ... : ... .. 9 ... ... : ... .. . ... ...
ROW AD : ... .. . ... ... ... : ... .. . ... ... ... : ... .. . ... : ... .. . ... : ... .. . ... ... : ... .. . ... ... : ... .. . ... ... : ... .. . ... ...
ROW AE : ... .. 0 ... V00 ... : ... .. 0 ... ... ... : --- .. . ... : ... .. . ... : ... .. . ... ... : --- .. . P81 ... : --- .. . P80 ... : ... .. . ... ...
ROW AF : ... .. . ... ... ... : ... .. . ... ... ... : ... .. . ... : ... .. . ... : ... .. . ... ... : ... .. . ... ... : ... .. . ... ... : ... .. . ... ...
ROW B0 : F-2 00 F P80 V01 ... : C-3 00 F P80 ... ... : F-3 00 . ... : 3-# 00 F ... : ... .. . ... ... : D#3 01 A P80 ... : D#4 01 A P81 ... : ... .. . ... ...
ROW B1 : ... .. E ... ... ... : ... .. E ... ... ... : ... .. . ... : ... .. C ... : ... .. . ... ... : ... .. 9 ... ... : ... .. 9 ... ... : ... .. . ... ...
ROW B2 : ... .. D ... ... ... : ... .. D ... ... ... : ... .. . ... : ... .. 6 ... : ... .. . ... ... : ... .. . ... ... : ... .. . ... ... : ... .. . ... ...
ROW B3 : ... .. 0 ... V00 ... : ... .. 0 ... ... ... : ... .. . ... : ... .. 3 ... : ... .. . ... ... : --- .. . P83 ... : --- .. . ... ... : ... .. . ... ...
ROW B4 : ... .. . ... ... ... : ... .. . ... ... ... : ... .. . ... : ... .. 2 ... : ... .. . ... ... : ... .. . ... ... : ... .. . ... ... : ... .. . ... ...
ROW B5 : F-2 00 F P80 V01 ... : C-3 00 F P80 ... ... : --- .. . ... : ... .. 0 ... : ... .. . ... ... : F#2 01 A P80 ... : F#3 01 A ... ... : ... .. . ... ...
ROW B6 : ... .. E ... ... ... : ... .. E ... ... ... : ... .. . ... : ... .. . ... : ... .. . ... ... : ... .. 9 ... ... : ... .. 9 ... ... : ... .. . ... ...
ROW B7 : ... .. D ... ... ... : ... .. D ... ... ... : ... .. . ... : ... .. . ... : ... .. . ... ... : ... .. . ... ... : ... .. . ... ... : ... .. . ... ...
ROW B8 : ... .. 0 ... V00 ... : ... .. 0 ... ... ... : ... .. . ... : ... .. . ... : ... .. . ... ... : --- .. . P82 ... : --- .. . P80 ... : ... .. . ... ...
ROW B9 : ... .. . ... ... ... : ... .. . ... ... ... : ... .. . ... : ... .. . ... : ... .. . ... ... : ... .. . ... ... : ... .. . ... ... : ... .. . ... ...
ROW BA : B-2 00 F P80 V01 ... : F#3 00 F P80 ... ... : F-3 00 . ... : D-# 00 F ... : ... .. . ... ... : D#3 01 A P80 ... : D#4 01 A P81 ... : ... .. . ... ...
ROW BB : ... .. E ... ... ... : ... .. E ... ... ... : ... .. . ... : ... .. C ... : ... .. . ... ... : ... .. 9 ... ... : ... .. 9 ... ... : ... .. . ... ...
ROW BC : ... .. D ... ... ... : ... .. D ... ... ... : ... .. . ... : ... .. 6 ... : ... .. . ... ... : ... .. . ... ... : ... .. . ... ... : ... .. . ... ...
ROW BD : ... .. A ... ... ... : ... .. A ... ... ... : --- .. . ... : ... .. 3 ... : ... .. . ... ... : --- .. . P83 ... : --- .. . ... ... : ... .. . ... ...
ROW BE : ... .. . ... ... ... : ... .. . ... ... ... : ... .. . ... : ... .. 2 ... : ... .. . ... ... : ... .. . ... ... : ... .. . ... ... : ... .. . ... ...
ROW BF : ... .. . ... ... ... : ... .. . ... ... ... : G-3 00 . ... : ... .. F ... : ... .. . ... ... : F#2 01 A P80 ... : F#3 01 A ... ... : ... .. . ... ...
ROW C0 : ... .. . ... ... ... : ... .. . ... ... ... : ... .. . ... : ... .. C ... : ... .. . ... ... : ... .. 9 ... ... : ... .. 9 ... ... : ... .. . ... ...
ROW C1 : ... .. . ... ... ... : ... .. . ... ... ... : ... .. . ... : ... .. 6 ... : ... .. . ... ... : ... .. . ... ... : ... .. . ... ... : ... .. . ... ...
ROW C2 : ... .. 0 ... V00 ... : ... .. 0 ... ... ... : --- .. . ... : ... .. 3 ... : ... .. . ... ... : --- .. . P82 ... : --- .. . P80 ... : ... .. . ... ...
ROW C3 : ... .. . ... ... ... : ... .. . ... ... ... : ... .. . ... : ... .. 2 ... : ... .. . ... ... : ... .. . ... ... : ... .. . ... ... : ... .. . ... ...
ROW C4 : A#2 00 F P80 V01 ... : F-3 00 F P80 ... ... : G#3 00 . ... : 6-# 00 F ... : ... .. . ... ... : D#3 01 A P80 ... : D#4 01 A P81 ... : ... .. . ... ...
ROW C5 : ... .. E ... ... ... : ... .. E ... ... ... : ... .. . ... : ... .. C ... : ... .. . ... ... : ... .. 9 ... ... : ... .. 9 ... ... : ... .. . ... ...
ROW C6 : ... .. D ... ... ... : ... .. D ... ... ... : ... .. . ... : ... .. 6 ... : ... .. . ... ... : ... .. . ... ... : ... .. . ... ... : ... .. . ... ...
ROW C7 : ... .. A ... ... ... : ... .. A ... ... ... : ... .. . ... : ... .. 3 ... : ... .. . ... ... : --- .. . P83 ... : --- .. . ... ... : ... .. . ... ...
ROW C8 : ... .. . ... ... ... : ... .. . ... ... ... : ... .. . ... : ... .. 2 ... : ... .. . ... ... : ... .. . ... ... : ... .. . ... ... : ... .. . ... ...
ROW C9 : ... .. . ... ... ... : ... .. . ... ... ... : --- .. . ... : ... .. 0 ... : ... .. . ... ... : F#2 01 A P80 ... : F#3 01 A ... ... : ... .. . ... ...
ROW CA : ... .. . ... ... ... : ... .. . ... ... ... : ... .. . ... : ... .. . ... : ... .. . ... ... : ... .. 9 ... ... : ... .. 9 ... ... : ... .. . ... ...
ROW CB : ... .. . ... ... ... : ... .. . ... ... ... : ... .. . ... : ... .. . ... : ... .. . ... ... : ... .. . ... ... : ... .. . ... ... : ... .. . ... ...
ROW CC : ... .. 0 ... V00 ... : ... .. 0 ... ... ... : ... .. . ... : ... .. . ... : ... .. . ... ... : --- .. . P82 ... : --- .. . P80 ... : ... .. . ... ...
ROW CD : ... .. . ... ... ... : ... .. . ... ... ... : ... .. . ... : ... .. . ... : ... .. . ... ... : ... .. . ... ... : ... .. . ... ... : ... .. . ... ...
ROW CE : G#2 00 F P80 V01 ... : D#3 00 F P80 ... ... : G-3 00 . ... : D-# 00 F ... : ... .. . ... ... : D#3 01 A P80 ... : D#4 01 A P81 ... : ... .. . ... ...
ROW CF : ... .. E ... ... ... : ... .. E ... ... ... : ... .. . ... : ... .. C ... : ... .. . ... ... : ... .. 9 ... ... : ... .. 9 ... ... : ... .. . ... ...
ROW D0 : ... .. D ... ... ... : ... .. D ... ... ... : ... .. . ... : ... .. 6 ... : ... .. . ... ... : ... .. . ... ... : ... .. . ... ... : ... .. . ... ...
ROW D1 : ... .. 0 ... V00 ... : ... .. 0 ... ... ... : --- .. . ... : ... .. 3 ... : ... .. . ... ... : --- .. . P83 ... : --- .. . ... ... : ... .. . ... ...
ROW D2 : ... .. . ... ... ... : ... .. . ... ... ... : ... .. . ... : ... .. 2 ... : ... .. . ... ... : ... .. . ... ... : ... .. . ... ... : ... .. . ... ...
ROW D3 : F-2 00 F P80 V01 ... : C-3 00 F P80 ... ... : G#3 00 . ... : ... .. 0 ... : ... .. . ... ... : F#2 01 A P80 ... : F#3 01 A ... ... : ... .. . ... ...
ROW D4 : ... .. E ... ... ... : ... .. E ... ... ... : ... .. . ... : ... .. . ... : ... .. . ... ... : ... .. 9 ... ... : ... .. 9 ... ... : ... .. . ... ...
ROW D5 : ... .. D ... ... ... : ... .. D ... ... ... : ... .. . ... : ... .. . ... : ... .. . ... ... : ... .. . ... ... : ... .. . ... ... : ... .. . ... ...
ROW D6 : ... .. A ... ... ... : ... .. A ... ... ... : --- .. . ... : ... .. . ... : ... .. . ... ... : --- .. . P82 ... : --- .. . P80 ... : ... .. . ... ...
ROW D7 : ... .. . ... ... ... : ... .. . ... ... ... : ... .. . ... : ... .. . ... : ... .. . ... ... : ... .. . ... ... : ... .. . ... ... : ... .. . ... ...
ROW D8 : ... .. . ... ... ... : ... .. . ... ... ... : B-3 00 . ... : 3-# 00 F ... : ... .. . ... ... : D-3 01 A P80 ... : D-4 01 A P81 ... : ... .. . ... ...
ROW D9 : ... .. . ... ... ... : ... .. . ... ... ... : ... .. . ... : ... .. C ... : ... .. . ... ... : ... .. 9 ... ... : ... .. 9 ... ... : ... .. . ... ...
ROW DA : ... .. . ... ... ... : ... .. . ... ... ... : ... .. . ... : ... .. 6 ... : ... .. . ... ... : ... .. . ... ... : ... .. . ... ... : ... .. . ... ...
ROW DB : ... .. 0 ... V00 ... : ... .. 0 ... ... ... : ... .. . ... : ... .. 3 ... : ... .. . ... ... : --- .. . P82 ... : --- .. . ... ... : ... .. . ... ...
ROW DC : ... .. . ... ... ... : ... .. . ... ... ... : ... .. . ... : ... .. 2 ... : ... .. . ... ... : ... .. . ... ... : ... .. . ... ... : ... .. . ... ...
ROW DD : F-4 00 F P80 V01 ... : C-5 00 F P80 ... ... : ... .. . ... : ... .. 0 ... : ... .. . ... ... : F-2 01 A P80 ... : F-3 01 A ... ... : ... .. . ... ...
ROW DE : ... .. E ... ... ... : ... .. E ... ... ... : ... .. . ... : ... .. . ... : ... .. . ... ... : ... .. 9 ... ... : ... .. 9 ... ... : ... .. . ... ...
ROW DF : ... .. D ... ... ... : ... .. D ... ... ... : ... .. . ... : ... .. . ... : ... .. . ... ... : ... .. . ... ... : ... .. . ... ... : ... .. . ... ...
ROW E0 : ... .. 0 ... V00 ... : ... .. 0 ... ... ... : ... .. . ... : ... .. . ... : ... .. . ... ... : --- .. . P7E ... : --- .. . ... ... : ... .. . ... ...
ROW E1 : ... .. . ... ... ... : ... .. . ... ... ... : ... .. . ... : ... .. . ... : ... .. . ... ... : ... .. . ... ... : ... .. . ... ... : ... .. . ... ...
ROW E2 : E-4 00 F P80 V01 ... : B-4 00 F P80 ... ... : G-4 00 . ... : D-# 00 F ... : ... .. . ... ... : D-3 01 A P80 ... : D-4 01 A ... ... : ... .. . ... ...
ROW E3 : ... .. E ... ... ... : ... .. E ... ... ... : A-4 00 . P7F : ... .. C ... : ... .. . ... ... : ... .. 9 ... ... : ... .. 9 ... ... : ... .. . ... ...
ROW E4 : ... .. D ... ... ... : ... .. D ... ... ... : B-4 00 . P80 : ... .. 6 ... : ... .. . ... ... : ... .. . ... ... : ... .. . ... ... : ... .. . ... ...
ROW E5 : ... .. 0 ... V00 ... : ... .. 0 ... ... ... : C#5 00 . P83 : ... .. 3 ... : ... .. . ... ... : --- .. . P82 ... : --- .. . ... ... : ... .. . ... ...
ROW E6 : ... .. . ... ... ... : ... .. . ... ... ... : D#5 00 . P80 : ... .. 2 ... : ... .. . ... ... : ... .. . ... ... : ... .. . ... ... : ... .. . ... ...
ROW E7 : D#4 00 F P80 V01 ... : A#4 00 F P80 ... ... : ... .. . ... : ... .. F ... : ... .. . ... ... : F-2 01 A P80 ... : F-3 01 A ... ... : ... .. . ... ...
ROW E8 : ... .. E ... ... ... : ... .. E ... ... ... : ... .. . ... : ... .. C ... : ... .. . ... ... : ... .. 9 ... ... : ... .. 9 ... ... : ... .. . ... ...
ROW E9 : ... .. D ... ... ... : ... .. D ... ... ... : ... .. . ... : ... .. 6 ... : ... .. . ... ... : ... .. . ... ... : ... .. . ... ... : ... .. . ... ...
ROW EA : ... .. 0 ... V00 ... : ... .. 0 ... ... ... : ... .. . ... : ... .. 3 ... : ... .. . ... ... : --- .. . P7E ... : --- .. . ... ... : ... .. . ... ...
ROW EB : ... .. . ... ... ... : ... .. . ... ... ... : ... .. . ... : ... .. 2 ... : ... .. . ... ... : ... .. . ... ... : ... .. . ... ... : ... .. . ... ...
ROW EC : D-4 00 F P80 V01 ... : A-4 00 F P80 ... ... : G#3 00 . ... : 6-# 00 F ... : ... .. . ... ... : D-3 01 A P80 ... : D-4 01 A ... ... : ... .. . ... ...
ROW ED : ... .. E ... ... ... : ... .. E ... ... ... : ... .. . ... : ... .. C ... : ... .. . ... ... : ... .. 9 ... ... : ... .. 9 ... ... : ... .. . ... ...
ROW EE : ... .. D ... ... ... : ... .. D ... ... ... : ... .. . ... : ... .. 6 ... : ... .. . ... ... : ... .. . ... ... : ... .. . ... ... : ... .. . ... ...
ROW EF : ... .. 0 ... V00 ... : ... .. 0 ... ... ... : ... .. . ... : ... .. 3 ... : ... .. . ... ... : --- .. . P82 ... : --- .. . ... ... : ... .. . ... ...
ROW F0 : ... .. . ... ... ... : ... .. . ... ... ... : ... .. . ... : ... .. 2 ... : ... .. . ... ... : ... .. . ... ... : ... .. . ... ... : ... .. . ... ...
ROW F1 : C#4 00 F P80 V01 ... : G#4 00 F P80 ... ... : F#3 00 . P81 : ... .. 0 ... : ... .. . ... ... : F-2 01 A P80 ... : F-3 01 A ... ... : ... .. . ... ...
ROW F2 : ... .. E ... ... ... : ... .. E ... ... ... : E-3 00 . P86 : ... .. . ... : ... .. . ... ... : ... .. 9 ... ... : ... .. 9 ... ... : ... .. . ... ...
ROW F3 : ... .. D ... ... ... : ... .. D ... ... ... : D#3 00 . P7B : ... .. . ... : ... .. . ... ... : ... .. . ... ... : ... .. . ... ... : ... .. . ... ...
ROW F4 : ... .. 0 ... V00 ... : ... .. 0 ... ... ... : C#3 00 . P87 : ... .. . ... : ... .. . ... ... : --- .. . P7E ... : --- .. . ... ... : ... .. . ... ...
ROW F5 : ... .. . ... ... ... : ... .. . ... ... ... : C-3 00 . P7F : ... .. . ... : ... .. . ... ... : ... .. . ... ... : ... .. . ... ... : ... .. . ... ...
ROW F6 : C-4 00 F P80 V01 ... : G-4 00 F P80 ... ... : B-2 00 . P78 : D-# 00 F ... : ... .. . ... ... : D-3 01 A P80 ... : D-4 01 A ... ... : ... .. . ... ...
ROW F7 : ... .. E ... ... ... : ... .. E ... ... ... : A#2 00 . P73 : ... .. C ... : ... .. . ... ... : ... .. 9 ... ... : ... .. 9 ... ... : ... .. . ... ...
ROW F8 : ... .. D ... ... ... : ... .. D ... ... ... : G#2 00 . P8E : ... .. 6 ... : ... .. . ... ... : ... .. . ... ... : ... .. . ... ... : ... .. . ... ...
ROW F9 : ... .. 0 ... V00 ... : ... .. 0 ... ... ... : G-2 00 . ... : ... .. 3 ... : ... .. . ... ... : --- .. . P82 ... : --- .. . ... ... : ... .. . ... ...
ROW FA : ... .. . ... ... ... : ... .. . ... ... ... : F#2 00 . P90 : ... .. 2 ... : ... .. . ... ... : ... .. . ... ... : ... .. . ... ... : ... .. . ... ...
ROW FB : B-3 00 F P80 V01 ... : F#4 00 F P80 ... ... : ... .. . P70 : ... .. F ... : ... .. . ... ... : F-2 01 A P80 ... : F-3 01 A ... ... : ... .. . ... ...
ROW FC : ... .. E ... ... ... : ... .. E ... ... ... : F-2 00 . P74 : ... .. C ... : ... .. . ... ... : ... .. 9 ... ... : ... .. 9 ... ... : ... .. . ... ...
ROW FD : ... .. D ... ... ... : ... .. D ... ... ... : E-2 00 . P7A : ... .. 6 ... : ... .. . ... ... : ... .. . ... ... : ... .. . ... ... : ... .. . ... ...
ROW FE : ... .. 0 ... V00 ... : ... .. 0 ... ... ... : D#2 00 . P82 : ... .. 3 ... : ... .. . ... ... : --- .. . P7E ... : --- .. . ... ... : ... .. . ... ...
ROW FF : ... .. . ... ... ... : ... .. . ... ... ... : D-2 00 . P8D : ... .. 2 ... : ... .. . ... ... : ... .. . ... ... : ... .. . ... ... : ... .. . ... ...

PATTERN 0A
ROW 00 : F-2 00 F P80 V01 ... : C-3 00 F P80 ... ... : F-2 00 . P80 : 3-# 00 F ... : ... .. . ... ... : F-3 01 A P80 ... : F-4 01 A ... ... : ... .. . ... ...
ROW 01 : ... .. E ... ... ... : ... .. E ... ... ... : ... .. . ... : ... .. C ... : ... .. . ... ... : ... .. 9 ... ... : ... .. 9 ... ... : ... .. . ... ...
ROW 02 : ... .. D ... ... ... : ... .. D ... ... ... : ... .. . ... : ... .. 6 ... : ... .. . ... ... : ... .. . ... ... : ... .. . ... ... : ... .. . ... ...
ROW 03 : ... .. 0 ... V00 ... : ... .. 0 ... ... ... : --- .. . ... : ... .. 3 ... : ... .. . ... ... : --- .. . ... ... : --- .. . ... ... : ... .. . ... ...
ROW 04 : ... .. . ... ... ... : ... .. . ... ... ... : ... .. . ... : ... .. 2 ... : ... .. . ... ... : ... .. . ... ... : ... .. . ... ... : ... .. . ... ...
ROW 05 : F-2 00 F P80 V01 ... : C-3 00 F P80 ... ... : F-2 00 . ... : ... .. 0 ... : ... .. . ... ... : G#2 01 A ... ... : G#3 01 A ... ... : ... .. . ... ...
ROW 06 : ... .. E ... ... ... : ... .. E ... ... ... : ... .. . ... : ... .. . ... : ... .. . ... ... : ... .. 9 ... ... : ... .. 9 ... ... : ... .. . ... ...
ROW 07 : ... .. D ... ... ... : ... .. D ... ... ... : ... .. . ... : ... .. . ... : ... .. . ... ... : ... .. . ... ... : ... .. . ... ... : ... .. . ... ...
ROW 08 : ... .. 0 ... V00 ... : ... .. 0 ... ... ... : --- .. . ... : ... .. . ... : ... .. . ... ... : --- .. . ... ... : --- .. . P83 ... : ... .. . ... ...
ROW 09 : ... .. . ... ... ... : ... .. . ... ... ... : ... .. . ... : ... .. . ... : ... .. . ... ... : ... .. . ... ... : ... .. . ... ... : ... .. . ... ...
ROW 0A : B-2 00 F P80 V01 ... : F#3 00 F P80 ... ... : B-2 00 . ... : D-# 00 F ... : ... .. . ... ... : F-3 01 A ... ... : F-4 01 A P81 ... : ... .. . ... ...
ROW 0B : ... .. E ... ... ... : ... .. E ... ... ... : ... .. . ... : ... .. C ... : ... .. . ... ... : ... .. 9 ... ... : ... .. 9 ... ... : ... .. . ... ...
ROW 0C : ... .. D ... ... ... : ... .. D ... ... ... : ... .. . ... : ... .. 6 ... : ... .. . ... ... : ... .. . ... ... : ... .. . ... ... : ... .. . ... ...
ROW 0D : ... .. A ... ... ... : ... .. A ... ... ... : ... .. . ... : ... .. 3 ... : ... .. . ... ... : --- .. . ... ... : --- .. . ... ... : ... .. . ... ...
ROW 0E : ... .. . ... ... ... : ... .. . ... ... ... : ... .. . ... : ... .. 2 ... : ... .. . ... ... : ... .. . ... ... : ... .. . ... ... : ... .. . ... ...
ROW 0F : ... .. . ... ... ... : ... .. . ... ... ... : ... .. . ... : ... .. F ... : ... .. . ... ... : G#2 01 A ... ... : G#3 01 A ... ... : ... .. . ... ...
ROW 10 : ... .. . ... ... ... : ... .. . ... ... ... : ... .. . ... : ... .. C ... : ... .. . ... ... : ... .. 9 ... ... : ... .. 9 ... ... : ... .. . ... ...
ROW 11 : ... .. . ... ... ... : ... .. . ... ... ... : ... .. . ... : ... .. 6 ... : ... .. . ... ... : ... .. . ... ... : ... .. . ... ... : ... .. . ... ...
ROW 12 : ... .. 0 ... V00 ... : ... .. 0 ... ... ... : --- .. . ... : ... .. 3 ... : ... .. . ... ... : --- .. . ... ... : --- .. . P83 ... : ... .. . ... ...
ROW 13 : ... .. . ... ... ... : ... .. . ... ... ... : ... .. . ... : ... .. 2 ... : ... .. . ... ... : ... .. . ... ... : ... .. . ... ... : ... .. . ... ...
ROW 14 : A#2 00 F P80 V01 ... : F-3 00 F P80 ... ... : A#2 00 . ... : 6-# 00 F ... : ... .. . ... ... : F-3 01 A ... ... : F-4 01 A P81 ... : ... .. . ... ...
ROW 15 : ... .. E ... ... ... : ... .. E ... ... ... : ... .. . ... : ... .. C ... : ... .. . ... ... : ... .. 9 ... ... : ... .. 9 ... ... : ... .. . ... ...
ROW 16 : ... .. D ... ... ... : ... .. D ... ... ... : ... .. . ... : ... .. 6 ... : ... .. . ... ... : ... .. . ... ... : ... .. . ... ... : ... .. . ... ...
ROW 17 : ... .. A ... ... ... : ... .. A ... ... ... : ... .. . ... : ... .. 3 ... : ... .. . ... ... : --- .. . ... ... : --- .. . ... ... : ... .. . ... ...
ROW 18 : ... .. . ... ... ... : ... .. . ... ... ... : ... .. . ... : ... .. 2 ... : ... .. . ... ... : ... .. . ... ... : ... .. . ... ... : ... .. . ... ...
ROW 19 : ... .. . ... ... ... : ... .. . ... ... ... : ... .. . ... : ... .. 0 ... : ... .. . ... ... : G#2 01 A ... ... : G#3 01 A ... ... : ... .. . ... ...
ROW 1A : ... .. . ... ... ... : ... .. . ... ... ... : ... .. . ... : ... .. . ... : ... .. . ... ... : ... .. 9 ... ... : ... .. 9 ... ... : ... .. . ... ...
ROW 1B : ... .. . ... ... ... : ... .. . ... ... ... : ... .. . ... : ... .. . ... : ... .. . ... ... : ... .. . ... ... : ... .. . ... ... : ... .. . ... ...
ROW 1C : ... .. 0 ... V00 ... : ... .. 0 ... ... ... : --- .. . ... : ... .. . ... : ... .. . ... ... : --- .. . ... ... : --- .. . P83 ... : ... .. . ... ...
ROW 1D : ... .. . ... ... ... : ... .. . ... ... ... : ... .. . ... : ... .. . ... : ... .. . ... ... : ... .. . ... ... : ... .. . ... ... : ... .. . ... ...
ROW 1E : G#2 00 F P80 V01 ... : D#3 00 F P80 ... ... : G#2 00 . ... : D-# 00 F ... : ... .. . ... ... : F-3 01 A ... ... : F-4 01 A P81 ... : ... .. . ... ...
ROW 1F : ... .. E ... ... ... : ... .. E ... ... ... : ... .. . ... : ... .. C ... : ... .. . ... ... : ... .. 9 ... ... : ... .. 9 ... ... : ... .. . ... ...
ROW 20 : ... .. D ... ... ... : ... .. D ... ... ... : ... .. . ... : ... .. 6 ... : ... .. . ... ... : ... .. . ... ... : ... .. . ... ... : ... .. . ... ...
ROW 21 : ... .. 0 ... V00 ... : ... .. 0 ... ... ... : --- .. . ... : ... .. 3 ... : ... .. . ... ... : --- .. . ... ... : --- .. . ... ... : ... .. . ... ...
ROW 22 : ... .. . ... ... ... : ... .. . ... ... ... : ... .. . ... : ... .. 2 ... : ... .. . ... ... : ... .. . ... ... : ... .. . ... ... : ... .. . ... ...
ROW 23 : F-2 00 F P80 V01 ... : C-3 00 F P80 ... ... : F-2 00 . ... : ... .. 0 ... : ... .. . ... ... : G#2 01 A ... ... : G#3 01 A ... ... : ... .. . ... ...
ROW 24 : ... .. E ... ... ... : ... .. E ... ... ... : ... .. . ... : ... .. . ... : ... .. . ... ... : ... .. 9 ... ... : ... .. 9 ... ... : ... .. . ... ...
ROW 25 : ... .. D ... ... ... : ... .. D ... ... ... : ... .. . ... : ... .. . ... : ... .. . ... ... : ... .. . ... ... : ... .. . ... ... : ... .. . ... ...
ROW 26 : ... .. A ... ... ... : ... .. A ... ... ... : ... .. . ... : ... .. . ... : ... .. . ... ... : --- .. . ... ... : --- .. . P83 ... : ... .. . ... ...
ROW 27 : ... .. . ... ... ... : ... .. . ... ... ... : ... .. . ... : ... .. . ... : ... .. . ... ... : ... .. . ... ... : ... .. . ... ... : ... .. . ... ...
ROW 28 : ... .. . ... ... ... : ... .. . ... ... ... : ... .. . ... : 3-# 00 F ... : ... .. . ... ... : E-3 01 A ... ... : E-4 01 A P81 ... : ... .. . ... ...
ROW 29 : ... .. . ... ... ... : ... .. . ... ... ... : ... .. . ... : ... .. C ... : ... .. . ... ... : ... .. 9 ... ... : ... .. 9 ... ... : ... .. . ... ...
ROW 2A : ... .. . ... ... ... : ... .. . ... ... ... : ... .. . ... : ... .. 6 ... : ... .. . ... ... : ... .. . ... ... : ... .. . ... ... : ... .. . ... ...
ROW 2B : ... .. 0 ... V00 ... : ... .. 0 ... ... ... : --- .. . ... : ... .. 3 ... : ... .. . ... ... : --- .. . P82 ... : --- .. . ... ... : ... .. . ... ...
ROW 2C : ... .. . ... ... ... : ... .. . ... ... ... : ... .. . ... : ... .. 2 ... : ... .. . ... ... : ... .. . ... ... : ... .. . ... ... : ... .. . ... ...
ROW 2D : F-2 00 F P80 V01 ... : C-3 00 F P80 ... ... : F-2 00 . ... : ... .. 0 ... : ... .. . ... ... : G-2 01 A P80 ... : G-3 01 A ... ... : ... .. . ... ...
ROW 2E : ... .. E ... ... ... : ... .. E ... ... ... : ... .. . ... : ... .. . ... : ... .. . ... ... : ... .. 9 ... ... : ... .. 9 ... ... : ... .. . ... ...
ROW 2F : ... .. D ... ... ... : ... .. D ... ... ... : ... .. . ... : ... .. . ... : ... .. . ... ... : ... .. . ... ... : ... .. . ... ... : ... .. . ... ...
ROW 30 : ... .. 0 ... V00 ... : ... .. 0 ... ... ... : --- .. . ... : ... .. . ... : ... .. . ... ... : --- .. . P81 ... : --- .. . P80 ... : ... .. . ... ...
ROW 31 : ... .. . ... ... ... : ... .. . ... ... ... : ... .. . ... : ... .. . ... : ... .. . ... ... : ... .. . ... ... : ... .. . ... ... : ... .. . ... ...
ROW 32 : B-2 00 F P80 V01 ... : F#3 00 F P80 ... ... : B-2 00 . ... : D-# 00 F ... : ... .. . ... ... : E-3 01 A P80 ... : E-4 01 A P81 ... : ... .. . ... ...
ROW 33 : ... .. E ... ... ... : ... .. E ... ... ... : ... .. . ... : ... .. C ... : ... .. . ... ... : ... .. 9 ... ... : ... .. 9 ... ... : ... .. . ... ...
ROW 34 : ... .. D ... ... ... : ... .. D ... ... ... : ... .. . ... : ... .. 6 ... : ... .. . ... ... : ... .. . ... ... : ... .. . ... ... : ... .. . ... ...
ROW 35 : ... .. A ... ... ... : ... .. A ... ... ... : ... .. . ... : ... .. 3 ... : ... .. . ... ... : --- .. . P82 ... : --- .. . ... ... : ... .. . ... ...
ROW 36 : ... .. . ... ... ... : ... .. . ... ... ... : ... .. . ... : ... .. 2 ... : ... .. . ... ... : ... .. . ... ... : ... .. . ... ... : ... .. . ... ...
ROW 37 : ... .. . ... ... ... : ... .. . ... ... ... : ... .. . ... : ... .. F ... : ... .. . ... ... : G-2 01 A P80 ... : G-3 01 A ... ... : ... .. . ... ...
ROW 38 : ... .. . ... ... ... : ... .. . ... ... ... : ... .. . ... : ... .. C ... : ... .. . ... ... : ... .. 9 ... ... : ... .. 9 ... ... : ... .. . ... ...
ROW 39 : ... .. . ... ... ... : ... .. . ... ... ... : ... .. . ... : ... .. 6 ... : ... .. . ... ... : ... .. . ... ... : ... .. . ... ... : ... .. . ... ...
ROW 3A : ... .. 0 ... V00 ... : ... .. 0 ... ... ... : --- .. . ... : ... .. 3 ... : ... .. . ... ... : --- .. . P81 ... : --- .. . P80 ... : ... .. . ... ...
ROW 3B : ... .. . ... ... ... : ... .. . ... ... ... : ... .. . ... : ... .. 2 ... : ... .. . ... ... : ... .. . ... ... : ... .. . ... ... : ... .. . ... ...
ROW 3C : A#2 00 F P80 V01 ... : F-3 00 F P80 ... ... : A#2 00 . ... : 6-# 00 F ... : ... .. . ... ... : E-3 01 A P80 ... : E-4 01 A P81 ... : ... .. . ... ...
ROW 3D : ... .. E ... ... ... : ... .. E ... ... ... : ... .. . ... : ... .. C ... : ... .. . ... ... : ... .. 9 ... ... : ... .. 9 ... ... : ... .. . ... ...
ROW 3E : ... .. D ... ... ... : ... .. D ... ... ... : ... .. . ... : ... .. 6 ... : ... .. . ... ... : ... .. . ... ... : ... .. . ... ... : ... .. . ... ...
ROW 3F : ... .. A ... ... ... : ... .. A ... ... ... : ... .. . ... : ... .. 3 ... : ... .. . ... ... : --- .. . P82 ... : --- .. . ... ... : ... .. . ... ...
ROW 40 : ... .. . ... ... ... : ... .. . ... ... ... : ... .. . ... : ... .. 2 ... : ... .. . ... ... : ... .. . ... ... : ... .. . ... ... : ... .. . ... ...
ROW 41 : ... .. . ... ... ... : ... .. . ... ... ... : ... .. . ... : ... .. 0 ... : ... .. . ... ... : G-2 01 A P80 ... : G-3 01 A ... ... : ... .. . ... ...
ROW 42 : ... .. . ... ... ... : ... .. . ... ... ... : ... .. . ... : ... .. . ... : ... .. . ... ... : ... .. 9 ... ... : ... .. 9 ... ... : ... .. . ... ...
ROW 43 : ... .. . ... ... ... : ... .. . ... ... ... : ... .. . ... : ... .. . ... : ... .. . ... ... : ... .. . ... ... : ... .. . ... ... : ... .. . ... ...
ROW 44 : ... .. 0 ... V00 ... : ... .. 0 ... ... ... : --- .. . ... : ... .. . ... : ... .. . ... ... : --- .. . P81 ... : --- .. . P80 ... : ... .. . ... ...
ROW 45 : ... .. . ... ... ... : ... .. . ... ... ... : ... .. . ... : ... .. . ... : ... .. . ... ... : ... .. . ... ... : ... .. . ... ... : ... .. . ... ...
ROW 46 : G#2 00 F P80 V01 ... : D#3 00 F P80 ... ... : G#2 00 . ... : D-# 00 F ... : ... .. . ... ... : E-3 01 A P80 ... : E-4 01 A P81 ... : ... .. . ... ...
ROW 47 : ... .. E ... ... ... : ... .. E ... ... ... : ... .. . ... : ... .. C ... : ... .. . ... ... : ... .. 9 ... ... : ... .. 9 ... ... : ... .. . ... ...
ROW 48 : ... .. D ... ... ... : ... .. D ... ... ... : ... .. . ... : ... .. 6 ... : ... .. . ... ... : ... .. . ... ... : ... .. . ... ... : ... .. . ... ...
ROW 49 : ... .. A ... ... ... : ... .. A ... ... ... : ... .. . ... : ... .. 3 ... : ... .. . ... ... : --- .. . P82 ... : --- .. . ... ... : ... .. . ... ...
ROW 4A : ... .. . ... ... ... : ... .. . ... ... ... : ... .. . ... : ... .. 2 ... : ... .. . ... ... : ... .. . ... ... : ... .. . ... ... : ... .. . ... ...
ROW 4B : ... .. . ... ... ... : ... .. . ... ... ... : ... .. . ... : ... .. 0 ... : ... .. . ... ... : G-2 01 A P80 ... : G-3 01 A ... ... : ... .. . ... ...
ROW 4C : ... .. . ... ... ... : ... .. . ... ... ... : ... .. . ... : ... .. . ... : ... .. . ... ... : ... .. 9 ... ... : ... .. 9 ... ... : ... .. . ... ...
ROW 4D : ... .. . ... ... ... : ... .. . ... ... ... : ... .. . ... : ... .. . ... : ... .. . ... ... : ... .. . ... ... : ... .. . ... ... : ... .. . ... ...
ROW 4E : ... .. 0 ... V00 ... : ... .. 0 ... ... ... : --- .. . ... : ... .. . ... : ... .. . ... ... : --- .. . P81 ... : --- .. . P80 ... : ... .. . ... ...
ROW 4F : ... .. . ... ... ... : ... .. . ... ... ... : ... .. . ... : ... .. . ... : ... .. . ... ... : ... .. . ... ... : ... .. . ... ... : ... .. . ... ...
ROW 50 : F-2 00 F P80 V01 ... : C-3 00 F P80 ... ... : F-3 00 . ... : 3-# 00 F ... : ... .. . ... ... : D#3 01 A P80 ... : D#4 01 A P81 ... : ... .. . ... ...
ROW 51 : ... .. E ... ... ... : ... .. E ... ... ... : ... .. . ... : ... .. C ... : ... .. . ... ... : ... .. 9 ... ... : ... .. 9 ... ... : ... .. . ... ...
ROW 52 : ... .. D ... ... ... : ... .. D ... ... ... : ... .. . ... : ... .. 6 ... : ... .. . ... ... : ... .. . ... ... : ... .. . ... ... : ... .. . ... ...
ROW 53 : ... .. 0 ... V00 ... : ... .. 0 ... ... ... : ... .. . ... : ... .. 3 ... : ... .. . ... ... : --- .. . P83 ... : --- .. . ... ... : ... .. . ... ...
ROW 54 : ... .. . ... ... ... : ... .. . ... ... ... : ... .. . ... : ... .. 2 ... : ... .. . ... ... : ... .. . ... ... : ... .. . ... ... : ... .. . ... ...
ROW 55 : F-2 00 F P80 V01 ... : C-3 00 F P80 ... ... : ... .. . ... : ... .. 0 ... : ... .. . ... ... : F#2 01 A P80 ... : F#3 01 A ... ... : ... .. . ... ...
ROW 56 : ... .. E ... ... ... : ... .. E ... ... ... : ... .. . ... : ... .. . ... : ... .. . ... ... : ... .. 9 ... ... : ... .. 9 ... ... : ... .. . ... ...
ROW 57 : ... .. D ... ... ... : ... .. D ... ... ... : ... .. . ... : ... .. . ... : ... .. . ... ... : ... .. . ... ... : ... .. . ... ... : ... .. . ... ...
ROW 58 : ... .. 0 ... V00 ... : ... .. 0 ... ... ... : --- .. . ... : ... .. . ... : ... .. . ... ... : --- .. . P82 ... : --- .. . P80 ... : ... .. . ... ...
ROW 59 : ... .. . ... ... ... : ... .. . ... ... ... : ... .. . ... : ... .. . ... : ... .. . ... ... : ... .. . ... ... : ... .. . ... ... : ... .. . ... ...
ROW 5A : A#2 00 F P80 V01 ... : F-3 00 F P80 ... ... : E-3 00 . ... : D-# 00 F ... : ... .. . ... ... : A#2 01 A P80 ... : A#3 01 A P81 ... : ... .. . ... ...
ROW 5B : ... .. E ... ... ... : ... .. E ... ... ... : ... .. . ... : ... .. C ... : ... .. . ... ... : ... .. 9 ... ... : ... .. 9 ... ... : ... .. . ... ...
ROW 5C : ... .. D ... ... ... : ... .. D ... ... ... : ... .. . ... : ... .. 6 ... : ... .. . ... ... : ... .. . ... ... : ... .. . ... ... : ... .. . ... ...
ROW 5D : ... .. 0 ... V00 ... : ... .. 0 ... ... ... : --- .. . ... : ... .. 3 ... : ... .. . ... ... : --- .. . P82 ... : --- .. . ... ... : ... .. . ... ...
ROW 5E : ... .. . ... ... ... : ... .. . ... ... ... : ... .. . ... : ... .. 2 ... : ... .. . ... ... : ... .. . ... ... : ... .. . ... ... : ... .. . ... ...
ROW 5F : B-2 00 F P80 V01 ... : F#3 00 F P80 ... ... : D#3 00 . ... : ... .. F ... : ... .. . ... ... : B-2 01 A P80 ... : B-3 01 A ... ... : ... .. . ... ...
ROW 60 : ... .. E ... ... ... : ... .. E ... ... ... : ... .. . ... : ... .. C ... : ... .. . ... ... : ... .. 9 ... ... : ... .. 9 ... ... : ... .. . ... ...
ROW 61 : ... .. D ... ... ... : ... .. D ... ... ... : ... .. . ... : ... .. 6 ... : ... .. . ... ... : ... .. . ... ... : ... .. . ... ... : ... .. . ... ...
ROW 62 : ... .. 0 ... V00 ... : ... .. 0 ... ... ... : --- .. . ... : ... .. 3 ... : ... .. . ... ... : --- .. . P85 ... : --- .. . ... ... : ... .. . ... ...
ROW 63 : ... .. . ... ... ... : ... .. . ... ... ... : ... .. . ... : ... .. 2 ... : ... .. . ... ... : ... .. . ... ... : ... .. . ... ... : ... .. . ... ...
ROW 64 : C-3 00 F P80 V01 ... : G-3 00 F P80 ... ... : D-3 00 . ... : 6-# 00 F ... : ... .. . ... ... : C-3 01 A P80 ... : C-4 01 A ... ... : ... .. . ... ...
ROW 65 : ... .. E ... ... ... : ... .. E ... ... ... : ... .. . ... : ... .. C ... : ... .. . ... ... : ... .. 9 ... ... : ... .. 9 ... ... : ... .. . ... ...
ROW 66 : ... .. D ... ... ... : ... .. D ... ... ... : ... .. . ... : ... .. 6 ... : ... .. . ... ... : ... .. . ... ... : ... .. . ... ... : ... .. . ... ...
ROW 67 : ... .. A ... ... ... : ... .. A ... ... ... : --- .. . ... : ... .. 3 ... : ... .. . ... ... : --- .. . P7E ... : --- .. . ... ... : ... .. . ... ...
ROW 68 : ... .. . ... ... ... : ... .. . ... ... ... : ... .. . ... : ... .. 2 ... : ... .. . ... ... : ... .. . ... ... : ... .. . ... ... : ... .. . ... ...
ROW 69 : D#3 00 F ... ... ... : A#3 00 F ... ... ... : C#3 00 . ... : ... .. 0 ... : ... .. . ... ... : D#3 01 A P80 ... : D#4 01 A ... ... : ... .. . ... ...
ROW 6A : ... .. E ... ... ... : ... .. E ... ... ... : ... .. . ... : ... .. . ... : ... .. . ... ... : ... .. 9 ... ... : ... .. 9 ... ... : ... .. . ... ...
ROW 6B : ... .. D ... ... ... : ... .. D ... ... ... : ... .. . ... : ... .. . ... : ... .. . ... ... : ... .. . ... ... : ... .. . ... ... : ... .. . ... ...
ROW 6C : ... .. 0 ... V00 ... : ... .. 0 ... ... ... : --- .. . ... : ... .. . ... : ... .. . ... ... : --- .. . P83 ... : --- .. . ... ... : ... .. . ... ...
ROW 6D : ... .. . ... ... ... : ... .. . ... ... ... : ... .. . ... : ... .. . ... : ... .. . ... ... : ... .. . ... ... : ... .. . ... ... : ... .. . ... ...
ROW 6E : C-3 00 F P80 V01 ... : G-3 00 F P80 ... ... : C-3 00 . ... : D-# 00 F ... : ... .. . ... ... : C-3 01 A P80 ... : C-4 01 A ... ... : ... .. . ... ...
ROW 6F : ... .. E ... ... ... : ... .. E ... ... ... : ... .. . ... : ... .. C ... : ... .. . ... ... : ... .. 9 ... ... : ... .. 9 ... ... : ... .. . ... ...
ROW 70 : ... .. D ... ... ... : ... .. D ... ... ... : ... .. . ... : ... .. 6 ... : ... .. . ... ... : ... .. . ... ... : ... .. . ... ... : ... .. . ... ...
ROW 71 : ... .. 0 ... V00 ... : ... .. 0 ... ... ... : --- .. . ... : ... .. 3 ... : ... .. . ... ... : --- .. . P7E ... : --- .. . ... ... : ... .. . ... ...
ROW 72 : ... .. . ... ... ... : ... .. . ... ... ... : ... .. . ... : ... .. 2 ... : ... .. . ... ... : ... .. . ... ... : ... .. . ... ... : ... .. . ... ...
ROW 73 : F-3 00 F P80 V01 ... : C-4 00 F P80 ... ... : F-2 00 . ... : ... .. F ... : ... .. . ... ... : F-3 01 A P80 ... : F-4 01 A ... ... : ... .. . ... ...
ROW 74 : ... .. E ... ... ... : ... .. E ... ... ... : ... .. . ... : ... .. C ... : ... .. . ... ... : ... .. 9 ... ... : ... .. 9 ... ... : ... .. . ... ...
ROW 75 : ... .. D ... ... ... : ... .. D ... ... ... : ... .. . ... : ... .. 6 ... : ... .. . ... ... : ... .. . ... ... : ... .. . ... ... : ... .. . ... ...
ROW 76 : ... .. A ... ... ... : ... .. A ... ... ... : ... .. . ... : ... .. 3 ... : ... .. . ... ... : --- .. . ... ... : --- .. . ... ... : ... .. . ... ...
ROW 77 : ... .. . ... ... ... : ... .. . ... ... ... : ... .. . ... : ... .. 2 ... : ... .. . ... ... : ... .. . ... ... : ... .. . ... ... : ... .. . ... ...
ROW 78 : ... .. 0 ... V00 ... : ... .. 0 ... ... ... : ... .. . ... : 3-# 00 F ... : ... .. . ... ... : G#3 01 A ... ... : G#4 01 A ... ... : ... .. . ... ...
ROW 79 : ... .. . ... ... ... : ... .. . ... ... ... : ... .. . ... : ... .. C ... : ... .. . ... ... : ... .. 9 ... ... : ... .. 9 ... ... : ... .. . ... ...
ROW 7A : ... .. . ... ... ... : ... .. . ... ... ... : ... .. . ... : ... .. 6 ... : ... .. . ... ... : ... .. . ... ... : ... .. . ... ... : ... .. . ... ...
ROW 7B : ... .. . ... ... ... : ... .. . ... ... ... : ... .. . ... : ... .. 3 ... : ... .. . ... ... : --- .. . P82 ... : --- .. . ... ... : ... .. . ... ...
ROW 7C : ... .. . ... ... ... : ... .. . ... ... ... : ... .. . ... : ... .. 2 ... : ... .. . ... ... : ... .. . ... ... : ... .. . ... ... : ... .. . ... ...
ROW 7D : ... .. . ... ... ... : ... .. . ... ... ... : ... .. . ... : ... .. 0 ... : ... .. . ... ... : ... .. . ... ... : ... .. . ... ... : ... .. . ... ...
ROW 7E : ... .. . ... ... ... : ... .. . ... ... ... : ... .. . ... : ... .. . ... : ... .. . ... ... : ... .. . ... ... : ... .. . ... ... : ... .. . ... ...
ROW 7F : ... .. . ... ... ... : ... .. . ... ... ... : ... .. . ... : ... .. . ... : ... .. . ... ... : ... .. . ... ... : ... .. . ... ... : ... .. . ... ...
ROW 80 : ... .. . ... ... ... : ... .. . ... ... ... : ... .. . ... : ... .. . ... : ... .. . ... ... : ... .. . ... ... : ... .. . ... ... : ... .. . ... ...
ROW 81 : ... .. . ... ... ... : ... .. . ... ... ... : ... .. . ... : ... .. . ... : ... .. . ... ... : ... .. . ... ... : ... .. . ... ... : ... .. . ... ...
ROW 82 : D-4 00 F P80 V02 ... : ... .. . ... ... ... : ... .. . ... : ... .. . ... : ... .. . ... ... : ... .. . ... ... : ... .. . ... ... : ... .. . ... ...
ROW 83 : ... .. E ... ... ... : ... .. . ... ... ... : ... .. . ... : ... .. . ... : ... .. . ... ... : ... .. . ... ... : ... .. . ... ... : ... .. . ... ...
ROW 84 : ... .. D ... ... ... : ... .. . ... ... ... : ... .. . ... : ... .. . ... : ... .. . ... ... : ... .. . ... ... : ... .. . ... ... : ... .. . ... ...
ROW 85 : ... .. 0 ... V00 ... : ... .. . ... ... ... : ... .. . ... : ... .. . ... : ... .. . ... ... : ... .. . ... ... : ... .. . ... ... : ... .. . ... ...
ROW 86 : ... .. . ... ... ... : ... .. . ... ... ... : ... .. . ... : ... .. . ... : ... .. . ... ... : ... .. . ... ... : ... .. . ... ... : ... .. . ... ...
ROW 87 : E-4 00 F P80 V02 ... : ... .. . ... ... ... : ... .. . ... : ... .. . ... : ... .. . ... ... : ... .. . ... ... : ... .. . ... ... : ... .. . ... ...
ROW 88 : ... .. E ... ... ... : ... .. . ... ... ... : ... .. . ... : ... .. . ... : ... .. . ... ... : ... .. . ... ... : ... .. . ... ... : ... .. . ... ...
ROW 89 : ... .. D ... ... ... : ... .. . ... ... ... : ... .. . ... : ... .. . ... : ... .. . ... ... : ... .. . ... ... : ... .. . ... ... : ... .. . ... ...
ROW 8A : ... .. 0 ... V00 ... : ... .. . ... ... ... : ... .. . ... : ... .. . ... : ... .. . ... ... : ... .. . ... ... : ... .. . ... ... : ... .. . ... ...
ROW 8B : ... .. . ... ... ... : ... .. . ... ... ... : ... .. . ... : ... .. . ... : ... .. . ... ... : ... .. . ... ... : ... .. . ... ... : ... .. . ... ...
ROW 8C : F-4 00 F P80 V02 ... : ... .. . ... ... ... : C-3 00 . ... : 6-# 00 F ... : ... .. . ... ... : ... .. . ... ... : ... .. . ... ... : ... .. . ... ...
ROW 8D : ... .. E ... ... ... : ... .. . ... ... ... : ... .. . ... : ... .. C ... : ... .. . ... ... : ... .. . ... ... : ... .. . ... ... : ... .. . ... ...
ROW 8E : ... .. D ... ... ... : ... .. . ... ... ... : ... .. . ... : ... .. 6 ... : ... .. . ... ... : ... .. . ... ... : ... .. . ... ... : ... .. . ... ...
ROW 8F : ... .. 0 ... V00 ... : ... .. . ... ... ... : ... .. . ... : ... .. 3 ... : ... .. . ... ... : ... .. . ... ... : ... .. . ... ... : ... .. . ... ...
ROW 90 : ... .. . ... ... ... : ... .. . ... ... ... : ... .. . ... : ... .. 2 ... : ... .. . ... ... : ... .. . ... ... : ... .. . ... ... : ... .. . ... ...
ROW 91 : G-4 00 F P80 V02 ... : ... .. . ... ... ... : ... .. . ... : ... .. 0 ... : ... .. . ... ... : ... .. . ... ... : ... .. . ... ... : ... .. . ... ...
ROW 92 : ... .. E ... ... ... : ... .. . ... ... ... : ... .. . ... : ... .. . ... : ... .. . ... ... : ... .. . ... ... : ... .. . ... ... : ... .. . ... ...
ROW 93 : ... .. D ... ... ... : ... .. . ... ... ... : ... .. . ... : ... .. . ... : ... .. . ... ... : ... .. . ... ... : ... .. . ... ... : ... .. . ... ...
ROW 94 : ... .. 0 ... V00 ... : ... .. . ... ... ... : ... .. . ... : ... .. . ... : ... .. . ... ... : ... .. . ... ... : ... .. . ... ... : ... .. . ... ...
ROW 95 : ... .. . ... ... ... : ... .. . ... ... ... : ... .. . ... : ... .. . ... : ... .. . ... ... : ... .. . ... ... : ... .. . ... ... : ... .. . ... ...
ROW 96 : G#4 00 F P80 V02 ... : ... .. . ... ... ... : ... .. . ... : B-# 00 8 ... : ... .. . ... ... : ... .. . ... ... : ... .. . ... ... : ... .. . ... ...
ROW 97 : ... .. E ... ... ... : ... .. . ... ... ... : ... .. . P89 : ... .. 6 ... : ... .. . ... ... : ... .. . ... ... : ... .. . ... ... : ... .. . ... ...
ROW 98 : ... .. D ... ... ... : ... .. . ... ... ... : C#3 00 . P7A : ... .. 3 ... : ... .. . ... ... : ... .. . ... ... : ... .. . ... ... : ... .. . ... ...
ROW 99 : ... .. 0 ... V00 ... : ... .. . ... ... ... : ... .. . P83 : ... .. 1 ... : ... .. . ... ... : ... .. . ... ... : ... .. . ... ... : ... .. . ... ...
ROW 9A : ... .. . ... ... ... : ... .. . ... ... ... : D-3 00 . P75 : ... .. 8 ... : ... .. . ... ... : ... .. . ... ... : ... .. . ... ... : ... .. . ... ...
ROW 9B : A#4 00 F P80 V02 ... : ... .. . ... ... ... : ... .. . P7E : ... .. 6 ... : ... .. . ... ... : ... .. . ... ... : ... .. . ... ... : ... .. . ... ...
ROW 9C : ... .. E ... ... ... : ... .. . ... ... ... : ... .. . P87 : ... .. 3 ... : ... .. . ... ... : ... .. . ... ... : ... .. . ... ... : ... .. . ... ...
ROW 9D : ... .. D ... ... ... : ... .. . ... ... ... : D#3 00 . P7B : ... .. 8 ... : ... .. . ... ... : ... .. . ... ... : ... .. . ... ... : ... .. . ... ...
ROW 9E : ... .. 0 ... V00 ... : ... .. . ... ... ... : ... .. . P84 : ... .. 6 ... : ... .. . ... ... : ... .. . ... ... : ... .. . ... ... : ... .. . ... ...
ROW 9F : ... .. . ... ... ... : ... .. . ... ... ... : E-3 00 . P78 : ... .. 3 ... : ... .. . ... ... : ... .. . ... ... : ... .. . ... ... : ... .. . ... ...
ROW A0 : C-5 00 F P80 V02 ... : ... .. . ... ... ... : F-3 00 . P80 : 3-# 00 F ... : ... .. . ... ... : ... .. . ... ... : ... .. . ... ... : ... .. . ... ...
ROW A1 : ... .. E ... ... ... : ... .. . ... ... ... : ... .. . ... : ... .. C ... : ... .. . ... ... : ... .. . ... ... : ... .. . ... ... : ... .. . ... ...
ROW A2 : ... .. D ... ... ... : ... .. . ... ... ... : ... .. . ... : ... .. 6 ... : ... .. . ... ... : ... .. . ... ... : ... .. . ... ... : ... .. . ... ...
ROW A3 : ... .. A ... ... ... : ... .. . ... ... ... : ... .. . ... : ... .. 3 ... : ... .. . ... ... : ... .. . ... ... : ... .. . ... ... : ... .. . ... ...
ROW A4 : ... .. . ... ... ... : ... .. . ... ... ... : ... .. . ... : ... .. 2 ... : ... .. . ... ... : ... .. . ... ... : ... .. . ... ... : ... .. . ... ...
ROW A5 : ... .. . ... ... ... : ... .. . ... ... ... : --- .. . ... : ... .. 0 ... : ... .. . ... ... : ... .. . ... ... : ... .. . ... ... : ... .. . ... ...
ROW A6 : ... .. . ... ... ... : ... .. . ... ... ... : ... .. . ... : ... .. . ... : ... .. . ... ... : ... .. . ... ... : ... .. . ... ... : ... .. . ... ...
ROW A7 : ... .. . ... ... ... : ... .. . ... ... ... : ... .. . ... : ... .. . ... : ... .. . ... ... : ... .. . ... ... : ... .. . ... ... : ... .. . ... ...
ROW A8 : ... .. . ... ... ... : ... .. . ... ... ... : ... .. . ... : ... .. . ... : ... .. . ... ... : ... .. . ... ... : ... .. . ... ... : ... .. . ... ...
ROW A9 : ... .. . ... ... ... : ... .. . ... ... ... : ... .. . ... : ... .. . ... : ... .. . ... ... : ... .. . ... ... : ... .. . ... ... : ... .. . ... ...
ROW AA : ... .. 0 ... V00 ... : ... .. . ... ... ... : G#4 00 . ... : D-# 00 F ... : ... .. . ... ... : F-3 01 A P80 ... : G#3 01 A ... ... : ... .. . ... ...
ROW AB : ... .. . ... ... ... : ... .. . ... ... ... : ... .. . ... : ... .. C ... : ... .. . ... ... : ... .. 9 ... ... : ... .. 9 ... ... : ... .. . ... ...
ROW AC : ... .. . ... ... ... : ... .. . ... ... ... : ... .. . ... : ... .. 6 ... : ... .. . ... ... : ... .. . ... ... : ... .. . ... ... : ... .. . ... ...
ROW AD : ... .. . ... ... ... : ... .. . ... ... ... : ... .. . ... : ... .. 3 ... : ... .. . ... ... : ... .. 8 ... ... : ... .. 8 ... ... : ... .. . ... ...
ROW AE : ... .. . ... ... ... : ... .. . ... ... ... : ... .. . ... : ... .. 2 ... : ... .. . ... ... : ... .. 7 ... ... : ... .. 7 ... ... : ... .. . ... ...
ROW AF : ... .. . ... ... ... : ... .. . ... ... ... : --- .. . ... : ... .. F ... : ... .. . ... ... : --- .. . ... ... : --- .. . P83 ... : ... .. . ... ...
ROW B0 : ... .. . ... ... ... : ... .. . ... ... ... : ... .. . ... : ... .. C ... : ... .. . ... ... : ... .. . ... ... : ... .. . ... ... : ... .. . ... ...
ROW B1 : ... .. . ... ... ... : ... .. . ... ... ... : ... .. . ... : ... .. 6 ... : ... .. . ... ... : ... .. . ... ... : ... .. . ... ... : ... .. . ... ...
ROW B2 : ... .. . ... ... ... : ... .. . ... ... ... : ... .. . ... : ... .. 3 ... : ... .. . ... ... : ... .. . ... ... : ... .. . ... ... : ... .. . ... ...
ROW B3 : ... .. . ... ... ... : ... .. . ... ... ... : ... .. . ... : ... .. 2 ... : ... .. . ... ... : ... .. . ... ... : ... .. . ... ... : ... .. . ... ...
ROW B4 : F-4 00 F P80 V02 ... : ... .. . ... ... ... : F-3 00 . ... : 6-# 00 F ... : ... .. . ... ... : ... .. . ... ... : ... .. . ... ... : ... .. . ... ...
ROW B5 : ... .. E ... ... ... : ... .. . ... ... ... : ... .. . ... : ... .. C ... : ... .. . ... ... : ... .. . ... ... : ... .. . ... ... : ... .. . ... ...
ROW B6 : ... .. D ... ... ... : ... .. . ... ... ... : ... .. . ... : ... .. 6 ... : ... .. . ... ... : ... .. . ... ... : ... .. . ... ... : ... .. . ... ...
ROW B7 : ... .. A ... ... ... : ... .. . ... ... ... : ... .. . ... : ... .. 3 ... : ... .. . ... ... : ... .. . ... ... : ... .. . ... ... : ... .. . ... ...
ROW B8 : ... .. . ... ... ... : ... .. . ... ... ... : ... .. . ... : ... .. 2 ... : ... .. . ... ... : ... .. . ... ... : ... .. . ... ... : ... .. . ... ...
ROW B9 : ... .. 0 ... V00 ... : ... .. . ... ... ... : --- .. . ... : ... .. 0 ... : ... .. . ... ... : ... .. . ... ... : ... .. . ... ... : ... .. . ... ...
ROW BA : ... .. . ... ... ... : ... .. . ... ... ... : ... .. . ... : ... .. . ... : ... .. . ... ... : ... .. . ... ... : ... .. . ... ... : ... .. . ... ...
ROW BB : ... .. . ... ... ... : ... .. . ... ... ... : ... .. . ... : ... .. . ... : ... .. . ... ... : ... .. . ... ... : ... .. . ... ... : ... .. . ... ...
ROW BC : ... .. . ... ... ... : ... .. . ... ... ... : ... .. . ... : ... .. . ... : ... .. . ... ... : ... .. . ... ... : ... .. . ... ... : ... .. . ... ...
ROW BD : ... .. . ... ... ... : ... .. . ... ... ... : ... .. . ... : ... .. . ... : ... .. . ... ... : ... .. . ... ... : ... .. . ... ... : ... .. . ... ...
ROW BE : C-5 00 F P80 V02 ... : ... .. . ... ... ... : G#4 00 . ... : D-# 00 F ... : ... .. . ... ... : F-3 01 A ... ... : G#3 01 A P81 ... : ... .. . ... ...
ROW BF : ... .. E ... ... ... : ... .. . ... ... ... : ... .. . ... : ... .. C ... : ... .. . ... ... : ... .. 9 ... ... : ... .. 9 ... ... : ... .. . ... ...
ROW C0 : ... .. D ... ... ... : ... .. . ... ... ... : ... .. . ... : ... .. 6 ... : ... .. . ... ... : ... .. . ... ... : ... .. . ... ... : ... .. . ... ...
ROW C1 : ... .. A ... ... ... : ... .. . ... ... ... : ... .. . ... : ... .. 3 ... : ... .. . ... ... : ... .. 8 ... ... : ... .. 8 ... ... : ... .. . ... ...
ROW C2 : ... .. . ... ... ... : ... .. . ... ... ... : ... .. . ... : ... .. 2 ... : ... .. . ... ... : ... .. 7 ... ... : ... .. 7 ... ... : ... .. . ... ...
ROW C3 : ... .. 0 ... V00 ... : ... .. . ... ... ... : --- .. . ... : ... .. F ... : ... .. . ... ... : --- .. . ... ... : --- .. . P83 ... : ... .. . ... ...
ROW C4 : ... .. . ... ... ... : ... .. . ... ... ... : ... .. . ... : ... .. C ... : ... .. . ... ... : ... .. . ... ... : ... .. . ... ... : ... .. . ... ...
ROW C5 : ... .. . ... ... ... : ... .. . ... ... ... : ... .. . ... : ... .. 6 ... : ... .. . ... ... : ... .. . ... ... : ... .. . ... ... : ... .. . ... ...
ROW C6 : ... .. . ... ... ... : ... .. . ... ... ... : ... .. . ... : ... .. 3 ... : ... .. . ... ... : ... .. . ... ... : ... .. . ... ... : ... .. . ... ...
ROW C7 : ... .. . ... ... ... : ... .. . ... ... ... : ... .. . ... : ... .. 2 ... : ... .. . ... ... : ... .. . ... ... : ... .. . ... ... : ... .. . ... ...
ROW C8 : C-5 00 F P80 V02 ... : ... .. . ... ... ... : F#3 00 . ... : 3-# 00 F ... : ... .. . ... ... : ... .. . ... ... : ... .. . ... ... : ... .. . ... ...
ROW C9 : ... .. E ... ... ... : ... .. . ... ... ... : ... .. . ... : ... .. C ... : ... .. . ... ... : ... .. . ... ... : ... .. . ... ... : ... .. . ... ...
ROW CA : ... .. D ... ... ... : ... .. . ... ... ... : ... .. . ... : ... .. 6 ... : ... .. . ... ... : ... .. . ... ... : ... .. . ... ... : ... .. . ... ...
ROW CB : ... .. A ... ... ... : ... .. . ... ... ... : ... .. . ... : ... .. 3 ... : ... .. . ... ... : ... .. . ... ... : ... .. . ... ... : ... .. . ... ...
ROW CC : ... .. . ... ... ... : ... .. . ... ... ... : ... .. . ... : ... .. 2 ... : ... .. . ... ... : ... .. . ... ... : ... .. . ... ... : ... .. . ... ...
ROW CD : ... .. . ... ... ... : ... .. . ... ... ... : --- .. . ... : ... .. 0 ... : ... .. . ... ... : ... .. . ... ... : ... .. . ... ... : ... .. . ... ...
ROW CE : ... .. . ... ... ... : ... .. . ... ... ... : ... .. . ... : ... .. . ... : ... .. . ... ... : ... .. . ... ... : ... .. . ... ... : ... .. . ... ...
ROW CF : ... .. . ... ... ... : ... .. . ... ... ... : ... .. . ... : ... .. . ... : ... .. . ... ... : ... .. . ... ... : ... .. . ... ... : ... .. . ... ...
ROW D0 : ... .. . ... ... ... : ... .. . ... ... ... : ... .. . ... : ... .. . ... : ... .. . ... ... : ... .. . ... ... : ... .. . ... ... : ... .. . ... ...
ROW D1 : ... .. . ... ... ... : ... .. . ... ... ... : ... .. . ... : ... .. . ... : ... .. . ... ... : ... .. . ... ... : ... .. . ... ... : ... .. . ... ...
ROW D2 : C#5 00 F ... ... ... : ... .. . ... ... ... : A#4 00 . ... : D-# 00 F ... : ... .. . ... ... : F#3 01 A ... ... : A#3 01 A P81 ... : ... .. . ... ...
ROW D3 : ... .. E ... ... ... : ... .. . ... ... ... : ... .. . ... : ... .. C ... : ... .. . ... ... : ... .. 9 ... ... : ... .. 9 ... ... : ... .. . ... ...
ROW D4 : ... .. D ... ... ... : ... .. . ... ... ... : ... .. . ... : ... .. 6 ... : ... .. . ... ... : ... .. . ... ... : ... .. . ... ... : ... .. . ... ...
ROW D5 : ... .. 0 ... V00 ... : ... .. . ... ... ... : ... .. . ... : ... .. 3 ... : ... .. . ... ... : ... .. 8 ... ... : ... .. 8 ... ... : ... .. . ... ...
ROW D6 : ... .. . ... ... ... : ... .. . ... ... ... : ... .. . ... : ... .. 2 ... : ... .. . ... ... : ... .. 7 ... ... : ... .. 7 ... ... : ... .. . ... ...
ROW D7 : C-5 00 F P80 V02 ... : ... .. . ... ... ... : --- .. . ... : ... .. F ... : ... .. . ... ... : --- .. . P7F ... : --- .. . ... ... : ... .. . ... ...
ROW D8 : ... .. E ... ... ... : ... .. . ... ... ... : ... .. . ... : ... .. C ... : ... .. . ... ... : ... .. . ... ... : ... .. . ... ... : ... .. . ... ...
ROW D9 : ... .. D ... ... ... : ... .. . ... ... ... : ... .. . ... : ... .. 6 ... : ... .. . ... ... : ... .. . ... ... : ... .. . ... ... : ... .. . ... ...
ROW DA : ... .. 0 ... V00 ... : ... .. . ... ... ... : ... .. . ... : ... .. 3 ... : ... .. . ... ... : ... .. . ... ... : ... .. . ... ... : ... .. . ... ...
ROW DB : ... .. . ... ... ... : ... .. . ... ... ... : ... .. . ... : ... .. 2 ... : ... .. . ... ... : ... .. . ... ... : ... .. . ... ... : ... .. . ... ...
ROW DC : A#4 00 F P80 V02 ... : ... .. . ... ... ... : E-3 00 . ... : 6-# 00 F ... : ... .. . ... ... : ... .. . ... ... : ... .. . ... ... : ... .. . ... ...
ROW DD : ... .. E ... ... ... : ... .. . ... ... ... : ... .. . ... : ... .. C ... : ... .. . ... ... : ... .. . ... ... : ... .. . ... ... : ... .. . ... ...
ROW DE : ... .. D ... ... ... : ... .. . ... ... ... : ... .. . ... : ... .. 6 ... : ... .. . ... ... : ... .. . ... ... : ... .. . ... ... : ... .. . ... ...
ROW DF : ... .. A ... ... ... : ... .. . ... ... ... : ... .. . ... : ... .. 3 ... : ... .. . ... ... : ... .. . ... ... : ... .. . ... ... : ... .. . ... ...
ROW E0 : ... .. . ... ... ... : ... .. . ... ... ... : ... .. . ... : ... .. 2 ... : ... .. . ... ... : ... .. . ... ... : ... .. . ... ... : ... .. . ... ...
ROW E1 : ... .. 0 ... V00 ... : ... .. . ... ... ... : --- .. . ... : ... .. 0 ... : ... .. . ... ... : ... .. . ... ... : ... .. . ... ... : ... .. . ... ...
ROW E2 : ... .. . ... ... ... : ... .. . ... ... ... : ... .. . ... : ... .. . ... : ... .. . ... ... : ... .. . ... ... : ... .. . ... ... : ... .. . ... ...
ROW E3 : ... .. . ... ... ... : ... .. . ... ... ... : ... .. . ... : ... .. . ... : ... .. . ... ... : ... .. . ... ... : ... .. . ... ... : ... .. . ... ...
ROW E4 : ... .. . ... ... ... : ... .. . ... ... ... : ... .. . ... : ... .. . ... : ... .. . ... ... : ... .. . ... ... : ... .. . ... ... : ... .. . ... ...
ROW E5 : ... .. . ... ... ... : ... .. . ... ... ... : ... .. . ... : ... .. . ... : ... .. . ... ... : ... .. . ... ... : ... .. . ... ... : ... .. . ... ...
ROW E6 : C-5 00 F P80 V02 ... : ... .. . ... ... ... : G-4 00 . ... : D-# 00 F ... : ... .. . ... ... : G-3 01 A P80 ... : A#3 01 A ... ... : ... .. . ... ...
ROW E7 : ... .. E ... ... ... : ... .. . ... ... ... : ... .. . ... : ... .. C ... : ... .. . ... ... : ... .. 9 ... ... : ... .. 9 ... ... : ... .. . ... ...
ROW E8 : ... .. D ... ... ... : ... .. . ... ... ... : ... .. . ... : ... .. 6 ... : ... .. . ... ... : ... .. . ... ... : ... .. . ... ... : ... .. . ... ...
ROW E9 : ... .. A ... ... ... : ... .. . ... ... ... : ... .. . ... : ... .. 3 ... : ... .. . ... ... : ... .. 8 ... ... : ... .. 8 ... ... : ... .. . ... ...
ROW EA : ... .. . ... ... ... : ... .. . ... ... ... : ... .. . ... : ... .. 2 ... : ... .. . ... ... : ... .. 7 ... ... : ... .. 7 ... ... : ... .. . ... ...
ROW EB : ... .. 0 ... V00 ... : ... .. . ... ... ... : --- .. . ... : ... .. 0 ... : ... .. . ... ... : --- .. . P81 ... : --- .. . ... ... : ... .. . ... ...
ROW EC : ... .. . ... ... ... : ... .. . ... ... ... : ... .. . ... : ... .. . ... : ... .. . ... ... : ... .. . ... ... : ... .. . ... ... : ... .. . ... ...
ROW ED : ... .. . ... ... ... : ... .. . ... ... ... : ... .. . ... : ... .. . ... : ... .. . ... ... : ... .. . ... ... : ... .. . ... ... : ... .. . ... ...
ROW EE : ... .. . ... ... ... : ... .. . ... ... ... : ... .. . ... : ... .. . ... : ... .. . ... ... : ... .. . ... ... : ... .. . ... ... : ... .. . ... ...
ROW EF : ... .. . ... ... ... : ... .. . ... ... ... : ... .. . ... : ... .. . ... : ... .. . ... ... : ... .. . ... ... : ... .. . ... ... : ... .. . ... ...
ROW F0 : A#4 00 F P80 V02 ... : ... .. . ... ... ... : F-3 00 . ... : 3-# 00 F ... : ... .. . ... ... : ... .. . ... ... : ... .. . ... ... : ... .. . ... ...
ROW F1 : ... .. E ... ... ... : ... .. . ... ... ... : ... .. . ... : ... .. C ... : ... .. . ... ... : ... .. . ... ... : ... .. . ... ... : ... .. . ... ...
ROW F2 : ... .. D ... ... ... : ... .. . ... ... ... : ... .. . ... : ... .. 6 ... : ... .. . ... ... : ... .. . ... ... : ... .. . ... ... : ... .. . ... ...
ROW F3 : ... .. A ... ... ... : ... .. . ... ... ... : ... .. . ... : ... .. 3 ... : ... .. . ... ... : ... .. . ... ... : ... .. . ... ... : ... .. . ... ...
ROW F4 : ... .. . ... ... ... : ... .. . ... ... ... : ... .. . ... : ... .. 2 ... : ... .. . ... ... : ... .. . ... ... : ... .. . ... ... : ... .. . ... ...
ROW F5 : ... .. . ... ... ... : ... .. . ... ... ... : --- .. . ... : ... .. 0 ... : ... .. . ... ... : ... .. . ... ... : ... .. . ... ... : ... .. . ... ...
ROW F6 : ... .. . ... ... ... : ... .. . ... ... ... : ... .. . ... : ... .. . ... : ... .. . ... ... : ... .. . ... ... : ... .. . ... ... : ... .. . ... ...
ROW F7 : ... .. . ... ... ... : ... .. . ... ... ... : ... .. . ... : ... .. . ... : ... .. . ... ... : ... .. . ... ... : ... .. . ... ... : ... .. . ... ...
ROW F8 : ... .. . ... ... ... : ... .. . ... ... ... : ... .. . ... : ... .. . ... : ... .. . ... ... : ... .. . ... ... : ... .. . ... ... : ... .. . ... ...
ROW F9 : ... .. . ... ... ... : ... .. . ... ... ... : ... .. . ... : ... .. . ... : ... .. . ... ... : ... .. . ... ... : ... .. . ... ... : ... .. . ... ...
ROW FA : C-5 00 F ... ... ... : ... .. . ... ... ... : G#4 00 . ... : D-# 00 F ... : ... .. . ... ... : F-3 01 A P80 ... : G#3 01 A ... ... : ... .. . ... ...
ROW FB : ... .. E ... ... ... : ... .. . ... ... ... : ... .. . ... : ... .. C ... : ... .. . ... ... : ... .. 9 ... ... : ... .. 9 ... ... : ... .. . ... ...
ROW FC : ... .. D ... ... ... : ... .. . ... ... ... : ... .. . ... : ... .. 6 ... : ... .. . ... ... : ... .. . ... ... : ... .. . ... ... : ... .. . ... ...
ROW FD : ... .. 0 ... V00 ... : ... .. . ... ... ... : ... .. . ... : ... .. 3 ... : ... .. . ... ... : ... .. 8 ... ... : ... .. 8 ... ... : ... .. . ... ...
ROW FE : ... .. . ... ... ... : ... .. . ... ... ... : ... .. . ... : ... .. 2 ... : ... .. . ... ... : ... .. 7 ... ... : ... .. 7 ... ... : ... .. . ... ...
ROW FF : A#4 00 F P80 V02 ... : ... .. . ... ... ... : --- .. . ... : ... .. F ... : ... .. . ... ... : --- .. . ... ... : --- .. . P83 ... : ... .. . ... ...

PATTERN 0B
ROW 00 : ... .. E ... ... ... : ... .. . ... ... ... : ... .. . ... : ... .. C ... : ... .. . ... ... : ... .. . ... ... : ... .. . ... ... : ... .. . ... ...
ROW 01 : ... .. D ... ... ... : ... .. . ... ... ... : ... .. . ... : ... .. 6 ... : ... .. . ... ... : ... .. . ... ... : ... .. . ... ... : ... .. . ... ...
ROW 02 : ... .. 0 ... V00 ... : ... .. . ... ... ... : ... .. . ... : ... .. 3 ... : ... .. . ... ... : ... .. . ... ... : ... .. . ... ... : ... .. . ... ...
ROW 03 : ... .. . ... ... ... : ... .. . ... ... ... : ... .. . ... : ... .. 2 ... : ... .. . ... ... : ... .. . ... ... : ... .. . ... ... : ... .. . ... ...
ROW 04 : G#4 00 F P80 V02 ... : ... .. . ... ... ... : C-3 00 . ... : 6-# 00 F ... : ... .. . ... ... : ... .. . ... ... : ... .. . ... ... : ... .. . ... ...
ROW 05 : ... .. E ... ... ... : ... .. . ... ... ... : ... .. . ... : ... .. C ... : ... .. . ... ... : ... .. . ... ... : ... .. . ... ... : ... .. . ... ...
ROW 06 : ... .. D ... ... ... : ... .. . ... ... ... : ... .. . ... : ... .. 6 ... : ... .. . ... ... : ... .. . ... ... : ... .. . ... ... : ... .. . ... ...
ROW 07 : ... .. A ... ... ... : ... .. . ... ... ... : ... .. . ... : ... .. 3 ... : ... .. . ... ... : ... .. . ... ... : ... .. . ... ... : ... .. . ... ...
ROW 08 : ... .. . ... ... ... : ... .. . ... ... ... : ... .. . ... : ... .. 2 ... : ... .. . ... ... : ... .. . ... ... : ... .. . ... ... : ... .. . ... ...
ROW 09 : ... .. 0 ... V00 ... : ... .. . ... ... ... : --- .. . ... : ... .. 0 ... : ... .. . ... ... : ... .. . ... ... : ... .. . ... ... : ... .. . ... ...
ROW 0A : ... .. . ... ... ... : ... .. . ... ... ... : ... .. . ... : ... .. . ... : ... .. . ... ... : ... .. . ... ... : ... .. . ... ... : ... .. . ... ...
ROW 0B : ... .. . ... ... ... : ... .. . ... ... ... : ... .. . ... : ... .. . ... : ... .. . ... ... : ... .. . ... ... : ... .. . ... ... : ... .. . ... ...
ROW 0C : ... .. . ... ... ... : ... .. . ... ... ... : ... .. . ... : ... .. . ... : ... .. . ... ... : ... .. . ... ... : ... .. . ... ... : ... .. . ... ...
ROW 0D : ... .. . ... ... ... : ... .. . ... ... ... : ... .. . ... : ... .. . ... : ... .. . ... ... : ... .. . ... ... : ... .. . ... ... : ... .. . ... ...
ROW 0E : G-4 00 F P80 V02 ... : ... .. . ... ... ... : E-4 00 . ... : D-# 00 F ... : ... .. . ... ... : E-3 01 A ... ... : G-3 01 A P81 ... : ... .. . ... ...
ROW 0F : ... .. E ... ... ... : ... .. . ... ... ... : ... .. . ... : ... .. C ... : ... .. . ... ... : ... .. 9 ... ... : ... .. 9 ... ... : ... .. . ... ...
ROW 10 : ... .. D ... ... ... : ... .. . ... ... ... : ... .. . ... : ... .. 6 ... : ... .. . ... ... : ... .. . ... ... : ... .. . ... ... : ... .. . ... ...
ROW 11 : ... .. A ... ... ... : ... .. . ... ... ... : ... .. . ... : ... .. 3 ... : ... .. . ... ... : ... .. 8 ... ... : ... .. 8 ... ... : ... .. . ... ...
ROW 12 : ... .. . ... ... ... : ... .. . ... ... ... : ... .. . ... : ... .. 2 ... : ... .. . ... ... : ... .. 7 ... ... : ... .. 7 ... ... : ... .. . ... ...
ROW 13 : ... .. 0 ... V00 ... : ... .. . ... ... ... : --- .. . ... : ... .. 0 ... : ... .. . ... ... : --- .. . P82 ... : --- .. . P80 ... : ... .. . ... ...
ROW 14 : ... .. . ... ... ... : ... .. . ... ... ... : ... .. . ... : ... .. . ... : ... .. . ... ... : ... .. . ... ... : ... .. . ... ... : ... .. . ... ...
ROW 15 : ... .. . ... ... ... : ... .. . ... ... ... : ... .. . ... : ... .. . ... : ... .. . ... ... : ... .. . ... ... : ... .. . ... ... : ... .. . ... ...
ROW 16 : ... .. . ... ... ... : ... .. . ... ... ... : ... .. . ... : ... .. . ... : ... .. . ... ... : ... .. . ... ... : ... .. . ... ... : ... .. . ... ...
ROW 17 : ... .. . ... ... ... : ... .. . ... ... ... : ... .. . ... : ... .. . ... : ... .. . ... ... : ... .. . ... ... : ... .. . ... ... : ... .. . ... ...
ROW 18 : G#4 00 F P80 V02 ... : ... .. . ... ... ... : F-4 00 . ... : 3-# 00 F ... : ... .. . ... ... : F-3 01 A P80 ... : G#3 01 A P81 ... : ... .. . ... ...
ROW 19 : ... .. E ... ... ... : ... .. . ... ... ... : ... .. . ... : ... .. C ... : ... .. . ... ... : ... .. 9 ... ... : ... .. 9 ... ... : ... .. . ... ...
ROW 1A : ... .. D ... ... ... : ... .. . ... ... ... : ... .. . ... : ... .. 6 ... : ... .. . ... ... : ... .. . ... ... : ... .. . ... ... : ... .. . ... ...
ROW 1B : ... .. A ... ... ... : ... .. . ... ... ... : ... .. . ... : ... .. 3 ... : ... .. . ... ... : ... .. 8 ... ... : ... .. 8 ... ... : ... .. . ... ...
ROW 1C : ... .. . ... ... ... : ... .. . ... ... ... : ... .. . ... : ... .. 2 ... : ... .. . ... ... : ... .. 7 ... ... : ... .. 7 ... ... : ... .. . ... ...
ROW 1D : ... .. 0 ... V00 ... : ... .. . ... ... ... : D-4 00 . P7E : ... .. 0 ... : ... .. . ... ... : ... .. . ... ... : ... .. . ... ... : ... .. . ... ...
ROW 1E : ... .. . ... ... ... : ... .. . ... ... ... : B-3 00 . P82 : ... .. . ... : ... .. . ... ... : ... .. 6 ... ... : ... .. 6 ... ... : ... .. . ... ...
ROW 1F : ... .. . ... ... ... : ... .. . ... ... ... : A-3 00 . P7E : ... .. . ... : ... .. . ... ... : ... .. . ... ... : ... .. . ... ... : ... .. . ... ...
ROW 20 : ... .. . ... ... ... : ... .. . ... ... ... : G-3 00 . P7D : ... .. . ... : ... .. . ... ... : ... .. . ... ... : ... .. . ... ... : ... .. . ... ...
ROW 21 : ... .. . ... ... ... : ... .. . ... ... ... : F-3 00 . P80 : ... .. . ... : ... .. . ... ... : ... .. . ... ... : ... .. . ... ... : ... .. . ... ...
ROW 22 : ... .. . ... ... ... : ... .. . ... ... ... : D#3 00 . P88 : ... .. . ... : ... .. . ... ... : --- .. . ... ... : --- .. . P83 ... : ... .. . ... ...
ROW 23 : ... .. . ... ... ... : ... .. . ... ... ... : D-3 00 . P7D : ... .. . ... : ... .. . ... ... : ... .. . ... ... : ... .. . ... ... : ... .. . ... ...
ROW 24 : ... .. . ... ... ... : ... .. . ... ... ... : C-3 00 . P8C : ... .. . ... : ... .. . ... ... : ... .. . ... ... : ... .. . ... ... : ... .. . ... ...
ROW 25 : ... .. . ... ... ... : ... .. . ... ... ... : B-2 00 . P85 : ... .. . ... : ... .. . ... ... : ... .. . ... ... : ... .. . ... ... : ... .. . ... ...
ROW 26 : ... .. . ... ... ... : ... .. . ... ... ... : A#2 00 . P80 : ... .. . ... : ... .. . ... ... : ... .. . ... ... : ... .. . ... ... : ... .. . ... ...
ROW 27 : ... .. . ... ... ... : ... .. . ... ... ... : A-2 00 . P7C : ... .. . ... : ... .. . ... ... : ... .. . ... ... : ... .. . ... ... : ... .. . ... ...
ROW 28 : ... .. . ... ... ... : ... .. . ... ... ... : G#2 00 . P7B : ... .. . ... : ... .. . ... ... : ... .. . ... ... : ... .. . ... ... : ... .. . ... ...
ROW 29 : ... .. . ... ... ... : ... .. . ... ... ... : G-2 00 . ... : ... .. . ... : ... .. . ... ... : ... .. . ... ... : ... .. . ... ... : ... .. . ... ...
ROW 2A : ... .. . ... ... ... : ... .. . ... ... ... : F#2 00 . P7D : ... .. . ... : ... .. . ... ... : ... .. . ... ... : ... .. . ... ... : ... .. . ... ...
ROW 2B : ... .. . ... ... ... : ... .. . ... ... ... : F-2 00 . P81 : ... .. . ... : ... .. . ... ... : ... .. . ... ... : ... .. . ... ... : ... .. . ... ...
ROW 2C : C-4 00 F P80 V02 ... : ... .. . ... ... ... : B-3 00 . P80 : ... .. . ... : ... .. . ... ... : ... .. . ... ... : ... .. . ... ... : ... .. . ... ...
ROW 2D : ... .. E ... ... ... : ... .. . ... ... ... : C#3 00 . ... : ... .. . ... : ... .. . ... ... : ... .. . ... ... : ... .. . ... ... : ... .. . ... ...
ROW 2E : ... .. D ... ... ... : ... .. . ... ... ... : F#2 00 . ... : ... .. . ... : ... .. . ... ... : ... .. . ... ... : ... .. . ... ... : ... .. . ... ...
ROW 2F : C#4 00 B ... ... ... : ... .. . ... ... ... : F-2 00 . ... : ... .. . ... : ... .. . ... ... : ... .. . ... ... : ... .. . ... ... : ... .. . ... ...
ROW 30 : ... .. A ... ... ... : ... .. . ... ... ... : C-2 00 . ... : ... .. . ... : ... .. . ... ... : ... .. . ... ... : ... .. . ... ... : ... .. . ... ...
ROW 31 : C-4 00 7 ... ... ... : ... .. . ... ... ... : ... .. . ... : ... .. . ... : ... .. . ... ... : ... .. . ... ... : ... .. . ... ... : ... .. . ... ...
ROW 32 : ... .. 6 ... ... ... : ... .. . ... ... ... : ... .. . ... : ... .. . ... : ... .. . ... ... : ... .. . ... ... : ... .. . ... ... : ... .. . ... ...
ROW 33 : ... .. . ... ... ... : ... .. . ... ... ... : ... .. . ... : ... .. . ... : ... .. . ... ... : ... .. . ... ... : ... .. . ... ... : ... .. . ... ...
ROW 34 : C#4 00 4 ... ... ... : ... .. . ... ... ... : ... .. . ... : ... .. . ... : ... .. . ... ... : ... .. . ... ... : ... .. . ... ... : ... .. . ... ...
ROW 35 : ... .. 3 ... ... ... : ... .. . ... ... ... : ... .. . ... : ... .. . ... : ... .. . ... ... : ... .. . ... ... : ... .. . ... ... : ... .. . ... ...
ROW 36 : C-4 00 6 ... ... ... : ... .. . ... ... ... : ... .. . ... : ... .. . ... : ... .. . ... ... : ... .. . ... ... : ... .. . ... ... : ... .. . ... ...
ROW 37 : ... .. 5 ... ... ... : ... .. . ... ... ... : ... .. . ... : ... .. . ... : ... .. . ... ... : ... .. . ... ... : ... .. . ... ... : ... .. . ... ...
ROW 38 : ... .. . ... ... ... : ... .. . ... ... ... : ... .. . ... : ... .. . ... : ... .. . ... ... : ... .. . ... ... : ... .. . ... ... : ... .. . ... ...
ROW 39 : C#4 00 8 ... ... ... : ... .. . ... ... ... : ... .. . ... : ... .. . ... : ... .. . ... ... : ... .. . ... ... : ... .. . ... ... : ... .. . ... ...
ROW 3A : ... .. 7 ... ... ... : ... .. . ... ... ... : ... .. . ... : ... .. . ... : ... .. . ... ... : ... .. . ... ... : ... .. . ... ... : ... .. . ... ...
ROW 3B : C-4 00 A ... ... ... : ... .. . ... ... ... : ... .. . ... : ... .. . ... : ... .. . ... ... : ... .. . ... ... : ... .. . ... ... : ... .. . ... ...
ROW 3C : ... .. 9 ... ... ... : ... .. . ... ... ... : ... .. . ... : ... .. . ... : ... .. . ... ... : ... .. . ... ... : ... .. . ... ... : ... .. . ... ...
ROW 3D : ... .. 8 ... ... ... : ... .. . ... ... ... : ... .. . ... : ... .. . ... : ... .. . ... ... : ... .. . ... ... : ... .. . ... ... : ... .. . ... ...
ROW 3E : C#4 00 C ... ... ... : ... .. . ... ... ... : ... .. . ... : ... .. . ... : ... .. . ... ... : ... .. . ... ... : ... .. . ... ... : ... .. . ... ...
ROW 3F : ... .. B ... ... ... : ... .. . ... ... ... : ... .. . ... : ... .. . ... : ... .. . ... ... : ... .. . ... ... : ... .. . ... ... : ... .. . ... ...
ROW 40 : C-4 00 F ... ... ... : ... .. . ... ... ... : F-2 00 . ... : ... .. F ... : ... .. . ... ... : ... .. . ... ... : ... .. . ... ... : ... .. . ... ...
ROW 41 : ... .. E ... ... ... : ... .. . ... ... ... : ... .. . ... : ... .. C ... : ... .. . ... ... : ... .. . ... ... : ... .. . ... ... : ... .. . ... ...
ROW 42 : ... .. D ... ... ... : ... .. . ... ... ... : ... .. . ... : ... .. 6 ... : ... .. . ... ... : ... .. . ... ... : ... .. . ... ... : ... .. . ... ...
ROW 43 : ... .. A ... ... ... : ... .. . ... ... ... : ... .. . ... : ... .. 3 ... : ... .. . ... ... : ... .. . ... ... : ... .. . ... ... : ... .. . ... ...
ROW 44 : ... .. . ... ... ... : ... .. . ... ... ... : ... .. . ... : ... .. 2 ... : ... .. . ... ... : ... .. . ... ... : ... .. . ... ... : ... .. . ... ...
ROW 45 : ... .. 0 ... V00 ... : ... .. . ... ... ... : ... .. . ... : ... .. 0 ... : ... .. . ... ... : ... .. . ... ... : ... .. . ... ... : ... .. . ... ...
ROW 46 : ... .. . ... ... ... : ... .. . ... ... ... : ... .. . ... : ... .. . ... : ... .. . ... ... : ... .. . ... ... : ... .. . ... ... : ... .. . ... ...
ROW 47 : ... .. . ... ... ... : ... .. . ... ... ... : ... .. . ... : ... .. . ... : ... .. . ... ... : ... .. . ... ... : ... .. . ... ... : ... .. . ... ...
ROW 48 : ... .. . ... ... ... : ... .. . ... ... ... : --- .. . ... : ... .. . ... : ... .. . ... ... : ... .. . ... ... : ... .. . ... ... : ... .. . ... ...
ROW 49 : ... .. . ... ... ... : ... .. . ... ... ... : ... .. . ... : ... .. . ... : ... .. . ... ... : ... .. . ... ... : ... .. . ... ... : ... .. . ... ...
ROW 4A : C-5 00 F P80 V02 ... : ... .. . ... ... ... : G#3 00 . ... : D-# 00 F ... : ... .. . ... ... : F-3 01 A ... ... : G#3 01 A P81 ... : ... .. . ... ...
ROW 4B : ... .. E ... ... ... : ... .. . ... ... ... : ... .. . ... : ... .. C ... : ... .. . ... ... : ... .. 9 ... ... : ... .. 9 ... ... : ... .. . ... ...
ROW 4C : ... .. D ... ... ... : ... .. . ... ... ... : ... .. . ... : ... .. 6 ... : ... .. . ... ... : ... .. . ... ... : ... .. . ... ... : ... .. . ... ...
ROW 4D : ... .. A ... ... ... : ... .. . ... ... ... : --- .. . ... : ... .. 3 ... : ... .. . ... ... : ... .. 8 ... ... : ... .. 8 ... ... : ... .. . ... ...
ROW 4E : ... .. . ... ... ... : ... .. . ... ... ... : ... .. . ... : ... .. 2 ... : ... .. . ... ... : ... .. 7 ... ... : ... .. 7 ... ... : ... .. . ... ...
ROW 4F : ... .. 0 ... V00 ... : ... .. . ... ... ... : G#3 00 . ... : ... .. F ... : ... .. . ... ... : --- .. . ... ... : --- .. . P83 ... : ... .. . ... ...
ROW 50 : ... .. . ... ... ... : ... .. . ... ... ... : ... .. . ... : ... .. C ... : ... .. . ... ... : ... .. . ... ... : ... .. . ... ... : ... .. . ... ...
ROW 51 : ... .. . ... ... ... : ... .. . ... ... ... : ... .. . ... : ... .. 6 ... : ... .. . ... ... : ... .. . ... ... : ... .. . ... ... : ... .. . ... ...
ROW 52 : ... .. . ... ... ... : ... .. . ... ... ... : --- .. . ... : ... .. 3 ... : ... .. . ... ... : ... .. . ... ... : ... .. . ... ... : ... .. . ... ...
ROW 53 : ... .. . ... ... ... : ... .. . ... ... ... : ... .. . ... : ... .. 2 ... : ... .. . ... ... : ... .. . ... ... : ... .. . ... ... : ... .. . ... ...
ROW 54 : G#4 00 F P80 V02 ... : ... .. . ... ... ... : F-2 00 . ... : 6-# 00 F ... : ... .. . ... ... : ... .. . ... ... : ... .. . ... ... : ... .. . ... ...
ROW 55 : ... .. E ... ... ... : ... .. . ... ... ... : ... .. . ... : ... .. C ... : ... .. . ... ... : ... .. . ... ... : ... .. . ... ... : ... .. . ... ...
ROW 56 : ... .. D ... ... ... : ... .. . ... ... ... : ... .. . ... : ... .. 6 ... : ... .. . ... ... : ... .. . ... ... : ... .. . ... ... : ... .. . ... ...
ROW 57 : ... .. A ... ... ... : ... .. . ... ... ... : ... .. . ... : ... .. 3 ... : ... .. . ... ... : ... .. . ... ... : ... .. . ... ... : ... .. . ... ...
ROW 58 : ... .. . ... ... ... : ... .. . ... ... ... : ... .. . ... : ... .. 2 ... : ... .. . ... ... : ... .. . ... ... : ... .. . ... ... : ... .. . ... ...
ROW 59 : ... .. 0 ... V00 ... : ... .. . ... ... ... : --- .. . ... : ... .. 0 ... : ... .. . ... ... : ... .. . ... ... : ... .. . ... ... : ... .. . ... ...
ROW 5A : ... .. . ... ... ... : ... .. . ... ... ... : ... .. . ... : ... .. . ... : ... .. . ... ... : ... .. . ... ... : ... .. . ... ... : ... .. . ... ...
ROW 5B : ... .. . ... ... ... : ... .. . ... ... ... : ... .. . ... : ... .. . ... : ... .. . ... ... : ... .. . ... ... : ... .. . ... ... : ... .. . ... ...
ROW 5C : ... .. . ... ... ... : ... .. . ... ... ... : ... .. . ... : ... .. . ... : ... .. . ... ... : ... .. . ... ... : ... .. . ... ... : ... .. . ... ...
ROW 5D : ... .. . ... ... ... : ... .. . ... ... ... : ... .. . ... : ... .. . ... : ... .. . ... ... : ... .. . ... ... : ... .. . ... ... : ... .. . ... ...
ROW 5E : F-4 00 F P80 V02 ... : ... .. . ... ... ... : C-4 00 . ... : D-# 00 F ... : ... .. . ... ... : F-3 01 A ... ... : G#3 01 A P81 ... : ... .. . ... ...
ROW 5F : ... .. E ... ... ... : ... .. . ... ... ... : ... .. . ... : ... .. C ... : ... .. . ... ... : ... .. 9 ... ... : ... .. 9 ... ... : ... .. . ... ...
ROW 60 : ... .. D ... ... ... : ... .. . ... ... ... : ... .. . ... : ... .. 6 ... : ... .. . ... ... : ... .. . ... ... : ... .. . ... ... : ... .. . ... ...
ROW 61 : ... .. A ... ... ... : ... .. . ... ... ... : --- .. . ... : ... .. 3 ... : ... .. . ... ... : ... .. 8 ... ... : ... .. 8 ... ... : ... .. . ... ...
ROW 62 : ... .. . ... ... ... : ... .. . ... ... ... : ... .. . ... : ... .. 2 ... : ... .. . ... ... : ... .. 7 ... ... : ... .. 7 ... ... : ... .. . ... ...
ROW 63 : ... .. . ... ... ... : ... .. . ... ... ... : C-4 00 . ... : ... .. F ... : ... .. . ... ... : --- .. . ... ... : --- .. . P83 ... : ... .. . ... ...
ROW 64 : ... .. . ... ... ... : ... .. . ... ... ... : ... .. . ... : ... .. C ... : ... .. . ... ... : ... .. . ... ... : ... .. . ... ... : ... .. . ... ...
ROW 65 : ... .. . ... ... ... : ... .. . ... ... ... : ... .. . ... : ... .. 6 ... : ... .. . ... ... : ... .. . ... ... : ... .. . ... ... : ... .. . ... ...
ROW 66 : ... .. 0 ... V00 ... : ... .. . ... ... ... : --- .. . ... : ... .. 3 ... : ... .. . ... ... : ... .. . ... ... : ... .. . ... ... : ... .. . ... ...
ROW 67 : ... .. . ... ... ... : ... .. . ... ... ... : ... .. . ... : ... .. 2 ... : ... .. . ... ... : ... .. . ... ... : ... .. . ... ... : ... .. . ... ...
ROW 68 : C-4 00 F P80 V02 ... : ... .. . ... ... ... : F#2 00 . ... : 3-# 00 F ... : ... .. . ... ... : ... .. . ... ... : ... .. . ... ... : ... .. . ... ...
ROW 69 : ... .. E ... ... ... : ... .. . ... ... ... : ... .. . ... : ... .. C ... : ... .. . ... ... : ... .. . ... ... : ... .. . ... ... : ... .. . ... ...
ROW 6A : ... .. D ... ... ... : ... .. . ... ... ... : ... .. . ... : ... .. 6 ... : ... .. . ... ... : ... .. . ... ... : ... .. . ... ... : ... .. . ... ...
ROW 6B : ... .. A ... ... ... : ... .. . ... ... ... : ... .. . ... : ... .. 3 ... : ... .. . ... ... : ... .. . ... ... : ... .. . ... ... : ... .. . ... ...
ROW 6C : ... .. . ... ... ... : ... .. . ... ... ... : ... .. . ... : ... .. 2 ... : ... .. . ... ... : ... .. . ... ... : ... .. . ... ... : ... .. . ... ...
ROW 6D : ... .. . ... ... ... : ... .. . ... ... ... : --- .. . ... : ... .. 0 ... : ... .. . ... ... : ... .. . ... ... : ... .. . ... ... : ... .. . ... ...
ROW 6E : ... .. . ... ... ... : ... .. . ... ... ... : ... .. . ... : ... .. . ... : ... .. . ... ... : ... .. . ... ... : ... .. . ... ... : ... .. . ... ...
ROW 6F : ... .. . ... ... ... : ... .. . ... ... ... : ... .. . ... : ... .. . ... : ... .. . ... ... : ... .. . ... ... : ... .. . ... ... : ... .. . ... ...
ROW 70 : ... .. . ... ... ... : ... .. . ... ... ... : ... .. . ... : ... .. . ... : ... .. . ... ... : ... .. . ... ... : ... .. . ... ... : ... .. . ... ...
ROW 71 : ... .. . ... ... ... : ... .. . ... ... ... : ... .. . ... : ... .. . ... : ... .. . ... ... : ... .. . ... ... : ... .. . ... ... : ... .. . ... ...
ROW 72 : C#4 00 F ... ... ... : ... .. . ... ... ... : A#3 00 . ... : D-# 00 F ... : ... .. . ... ... : F#3 01 A ... ... : A#3 01 A P81 ... : ... .. . ... ...
ROW 73 : ... .. E ... ... ... : ... .. . ... ... ... : ... .. . ... : ... .. C ... : ... .. . ... ... : ... .. 9 ... ... : ... .. 9 ... ... : ... .. . ... ...
ROW 74 : ... .. D ... ... ... : ... .. . ... ... ... : ... .. . ... : ... .. 6 ... : ... .. . ... ... : ... .. . ... ... : ... .. . ... ... : ... .. . ... ...
ROW 75 : ... .. 0 ... V00 ... : ... .. . ... ... ... : --- .. . ... : ... .. 3 ... : ... .. . ... ... : ... .. 8 ... ... : ... .. 8 ... ... : ... .. . ... ...
ROW 76 : ... .. . ... ... ... : ... .. . ... ... ... : ... .. . ... : ... .. 2 ... : ... .. . ... ... : ... .. 7 ... ... : ... .. 7 ... ... : ... .. . ... ...
ROW 77 : C-4 00 F P80 V02 ... : ... .. . ... ... ... : A#3 00 . ... : ... .. F ... : ... .. . ... ... : --- .. . P7F ... : --- .. . ... ... : ... .. . ... ...
ROW 78 : ... .. E ... ... ... : ... .. . ... ... ... : ... .. . ... : ... .. C ... : ... .. . ... ... : ... .. . ... ... : ... .. . ... ... : ... .. . ... ...
ROW 79 : ... .. D ... ... ... : ... .. . ... ... ... : ... .. . ... : ... .. 6 ... : ... .. . ... ... : ... .. . ... ... : ... .. . ... ... : ... .. . ... ...
ROW 7A : ... .. 0 ... V00 ... : ... .. . ... ... ... : --- .. . ... : ... .. 3 ... : ... .. . ... ... : ... .. . ... ... : ... .. . ... ... : ... .. . ... ...
ROW 7B : ... .. . ... ... ... : ... .. . ... ... ... : ... .. . ... : ... .. 2 ... : ... .. . ... ... : ... .. . ... ... : ... .. . ... ... : ... .. . ... ...
ROW 7C : A#3 00 F P80 V02 ... : ... .. . ... ... ... : E-3 00 . ... : 6-# 00 F ... : ... .. . ... ... : ... .. . ... ... : ... .. . ... ... : ... .. . ... ...
ROW 7D : ... .. E ... ... ... : ... .. . ... ... ... : ... .. . ... : ... .. C ... : ... .. . ... ... : ... .. . ... ... : ... .. . ... ... : ... .. . ... ...
ROW 7E : ... .. D ... ... ... : ... .. . ... ... ... : ... .. . ... : ... .. 6 ... : ... .. . ... ... : ... .. . ... ... : ... .. . ... ... : ... .. . ... ...
ROW 7F : ... .. A ... ... ... : ... .. . ... ... ... : ... .. . ... : ... .. 3 ... : ... .. . ... ... : ... .. . ... ... : ... .. . ... ... : ... .. . ... ...
ROW 80 : ... .. . ... ... ... : ... .. . ... ... ... : ... .. . ... : ... .. 2 ... : ... .. . ... ... : ... .. . ... ... : ... .. . ... ... : ... .. . ... ...
ROW 81 : ... .. 0 ... V00 ... : ... .. . ... ... ... : --- .. . ... : ... .. 0 ... : ... .. . ... ... : ... .. . ... ... : ... .. . ... ... : ... .. . ... ...
ROW 82 : ... .. . ... ... ... : ... .. . ... ... ... : ... .. . ... : ... .. . ... : ... .. . ... ... : ... .. . ... ... : ... .. . ... ... : ... .. . ... ...
ROW 83 : ... .. . ... ... ... : ... .. . ... ... ... : ... .. . ... : ... .. . ... : ... .. . ... ... : ... .. . ... ... : ... .. . ... ... : ... .. . ... ...
ROW 84 : ... .. . ... ... ... : ... .. . ... ... ... : ... .. . ... : ... .. . ... : ... .. . ... ... : ... .. . ... ... : ... .. . ... ... : ... .. . ... ...
ROW 85 : ... .. . ... ... ... : ... .. . ... ... ... : ... .. . ... : ... .. . ... : ... .. . ... ... : ... .. . ... ... : ... .. . ... ... : ... .. . ... ...
ROW 86 : A#4 00 F P80 V02 ... : ... .. . ... ... ... : C-4 00 . ... : D-# 00 F ... : ... .. . ... ... : G-3 01 A P80 ... : A#3 01 A ... ... : ... .. . ... ...
ROW 87 : ... .. E ... ... ... : ... .. . ... ... ... : ... .. . ... : ... .. C ... : ... .. . ... ... : ... .. 9 ... ... : ... .. 9 ... ... : ... .. . ... ...
ROW 88 : ... .. D ... ... ... : ... .. . ... ... ... : ... .. . ... : ... .. 6 ... : ... .. . ... ... : ... .. . ... ... : ... .. . ... ... : ... .. . ... ...
ROW 89 : ... .. A ... ... ... : ... .. . ... ... ... : --- .. . ... : ... .. 3 ... : ... .. . ... ... : ... .. 8 ... ... : ... .. 8 ... ... : ... .. . ... ...
ROW 8A : ... .. . ... ... ... : ... .. . ... ... ... : ... .. . ... : ... .. 2 ... : ... .. . ... ... : ... .. 7 ... ... : ... .. 7 ... ... : ... .. . ... ...
ROW 8B : ... .. 0 ... V00 ... : ... .. . ... ... ... : C-4 00 . ... : ... .. 0 ... : ... .. . ... ... : --- .. . P81 ... : --- .. . ... ... : ... .. . ... ...
ROW 8C : ... .. . ... ... ... : ... .. . ... ... ... : ... .. . ... : ... .. . ... : ... .. . ... ... : ... .. . ... ... : ... .. . ... ... : ... .. . ... ...
ROW 8D : ... .. . ... ... ... : ... .. . ... ... ... : ... .. . ... : ... .. . ... : ... .. . ... ... : ... .. . ... ... : ... .. . ... ... : ... .. . ... ...
ROW 8E : ... .. . ... ... ... : ... .. . ... ... ... : --- .. . ... : ... .. . ... : ... .. . ... ... : ... .. . ... ... : ... .. . ... ... : ... .. . ... ...
ROW 8F : ... .. . ... ... ... : ... .. . ... ... ... : ... .. . ... : ... .. . ... : ... .. . ... ... : ... .. . ... ... : ... .. . ... ... : ... .. . ... ...
ROW 90 : A#3 00 F P80 V02 ... : ... .. . ... ... ... : F-3 00 . ... : 3-# 00 F ... : ... .. . ... ... : ... .. . ... ... : ... .. . ... ... : ... .. . ... ...
ROW 91 : ... .. E ... ... ... : ... .. . ... ... ... : ... .. . ... : ... .. C ... : ... .. . ... ... : ... .. . ... ... : ... .. . ... ... : ... .. . ... ...
ROW 92 : ... .. D ... ... ... : ... .. . ... ... ... : ... .. . ... : ... .. 6 ... : ... .. . ... ... : ... .. . ... ... : ... .. . ... ... : ... .. . ... ...
ROW 93 : ... .. A ... ... ... : ... .. . ... ... ... : ... .. . ... : ... .. 3 ... : ... .. . ... ... : ... .. . ... ... : ... .. . ... ... : ... .. . ... ...
ROW 94 : ... .. . ... ... ... : ... .. . ... ... ... : ... .. . ... : ... .. 2 ... : ... .. . ... ... : ... .. . ... ... : ... .. . ... ... : ... .. . ... ...
ROW 95 : ... .. . ... ... ... : ... .. . ... ... ... : --- .. . ... : ... .. 0 ... : ... .. . ... ... : ... .. . ... ... : ... .. . ... ... : ... .. . ... ...
ROW 96 : ... .. . ... ... ... : ... .. . ... ... ... : ... .. . ... : ... .. . ... : ... .. . ... ... : ... .. . ... ... : ... .. . ... ... : ... .. . ... ...
ROW 97 : ... .. . ... ... ... : ... .. . ... ... ... : ... .. . ... : ... .. . ... : ... .. . ... ... : ... .. . ... ... : ... .. . ... ... : ... .. . ... ...
ROW 98 : ... .. . ... ... ... : ... .. . ... ... ... : ... .. . ... : ... .. . ... : ... .. . ... ... : ... .. . ... ... : ... .. . ... ... : ... .. . ... ...
ROW 99 : ... .. . ... ... ... : ... .. . ... ... ... : ... .. . ... : ... .. . ... : ... .. . ... ... : ... .. . ... ... : ... .. . ... ... : ... .. . ... ...
ROW 9A : C-4 00 F ... ... ... : ... .. . ... ... ... : G#3 00 . ... : D-# 00 F ... : ... .. . ... ... : F-3 01 A P80 ... : G#3 01 A ... ... : ... .. . ... ...
ROW 9B : ... .. E ... ... ... : ... .. . ... ... ... : ... .. . ... : ... .. C ... : ... .. . ... ... : ... .. 9 ... ... : ... .. 9 ... ... : ... .. . ... ...
ROW 9C : ... .. D ... ... ... : ... .. . ... ... ... : ... .. . ... : ... .. 6 ... : ... .. . ... ... : ... .. . ... ... : ... .. . ... ... : ... .. . ... ...
ROW 9D : ... .. 0 ... V00 ... : ... .. . ... ... ... : ... .. . ... : ... .. 3 ... : ... .. . ... ... : ... .. 8 ... ... : ... .. 8 ... ... : ... .. . ... ...
ROW 9E : ... .. . ... ... ... : ... .. . ... ... ... : ... .. . ... : ... .. 2 ... : ... .. . ... ... : ... .. 7 ... ... : ... .. 7 ... ... : ... .. . ... ...
ROW 9F : A#3 00 F P80 V02 ... : ... .. . ... ... ... : --- .. . ... : ... .. F ... : ... .. . ... ... : --- .. . ... ... : --- .. . P83 ... : ... .. . ... ...
ROW A0 : ... .. E ... ... ... : ... .. . ... ... ... : ... .. . ... : ... .. C ... : ... .. . ... ... : ... .. . ... ... : ... .. . ... ... : ... .. . ... ...
ROW A1 : ... .. D ... ... ... : ... .. . ... ... ... : ... .. . ... : ... .. 6 ... : ... .. . ... ... : ... .. . ... ... : ... .. . ... ... : ... .. . ... ...
ROW A2 : ... .. 0 ... V00 ... : ... .. . ... ... ... : ... .. . ... : ... .. 3 ... : ... .. . ... ... : ... .. . ... ... : ... .. . ... ... : ... .. . ... ...
ROW A3 : ... .. . ... ... ... : ... .. . ... ... ... : ... .. . ... : ... .. 2 ... : ... .. . ... ... : ... .. . ... ... : ... .. . ... ... : ... .. . ... ...
ROW A4 : G#3 00 F P80 V02 ... : ... .. . ... ... ... : C-3 00 . ... : 6-# 00 F ... : ... .. . ... ... : ... .. . ... ... : ... .. . ... ... : ... .. . ... ...
ROW A5 : ... .. E ... ... ... : ... .. . ... ... ... : ... .. . ... : ... .. C ... : ... .. . ... ... : ... .. . ... ... : ... .. . ... ... : ... .. . ... ...
ROW A6 : ... .. D ... ... ... : ... .. . ... ... ... : ... .. . ... : ... .. 6 ... : ... .. . ... ... : ... .. . ... ... : ... .. . ... ... : ... .. . ... ...
ROW A7 : ... .. A ... ... ... : ... .. . ... ... ... : ... .. . ... : ... .. 3 ... : ... .. . ... ... : ... .. . ... ... : ... .. . ... ... : ... .. . ... ...
ROW A8 : ... .. . ... ... ... : ... .. . ... ... ... : ... .. . ... : ... .. 2 ... : ... .. . ... ... : ... .. . ... ... : ... .. . ... ... : ... .. . ... ...
ROW A9 : G-3 00 F ... ... ... : ... .. . ... ... ... : --- .. . ... : ... .. 0 ... : ... .. . ... ... : ... .. . ... ... : ... .. . ... ... : ... .. . ... ...
ROW AA : ... .. E ... ... ... : ... .. . ... ... ... : ... .. . ... : ... .. . ... : ... .. . ... ... : ... .. . ... ... : ... .. . ... ... : ... .. . ... ...
ROW AB : ... .. D ... ... ... : ... .. . ... ... ... : ... .. . ... : ... .. . ... : ... .. . ... ... : ... .. . ... ... : ... .. . ... ... : ... .. . ... ...
ROW AC : ... .. 0 ... V00 ... : ... .. . ... ... ... : ... .. . ... : ... .. . ... : ... .. . ... ... : ... .. . ... ... : ... .. . ... ... : ... .. . ... ...
ROW AD : ... .. . ... ... ... : ... .. . ... ... ... : ... .. . ... : ... .. . ... : ... .. . ... ... : ... .. . ... ... : ... .. . ... ... : ... .. . ... ...
ROW AE : F-3 00 F P80 V02 ... : ... .. . ... ... ... : G-3 00 . ... : D-# 00 F ... : ... .. . ... ... : E-3 01 A ... ... : G-3 01 A P81 ... : ... .. . ... ...
ROW AF : ... .. E ... ... ... : ... .. . ... ... ... : ... .. . ... : ... .. C ... : ... .. . ... ... : ... .. 9 ... ... : ... .. 9 ... ... : ... .. . ... ...
ROW B0 : ... .. D ... ... ... : ... .. . ... ... ... : ... .. . ... : ... .. 6 ... : ... .. . ... ... : ... .. . ... ... : ... .. . ... ... : ... .. . ... ...
ROW B1 : ... .. 0 ... V00 ... : ... .. . ... ... ... : ... .. . ... : ... .. 3 ... : ... .. . ... ... : ... .. 8 ... ... : ... .. 8 ... ... : ... .. . ... ...
ROW B2 : ... .. . ... ... ... : ... .. . ... ... ... : ... .. . ... : ... .. 2 ... : ... .. . ... ... : ... .. 7 ... ... : ... .. 7 ... ... : ... .. . ... ...
ROW B3 : E-3 00 F P80 V02 ... : ... .. . ... ... ... : --- .. . ... : ... .. 0 ... : ... .. . ... ... : --- .. . P82 ... : --- .. . P80 ... : ... .. . ... ...
ROW B4 : ... .. E ... ... ... : ... .. . ... ... ... : ... .. . ... : ... .. . ... : ... .. . ... ... : ... .. . ... ... : ... .. . ... ... : ... .. . ... ...
ROW B5 : ... .. D ... ... ... : ... .. . ... ... ... : ... .. . ... : ... .. . ... : ... .. . ... ... : ... .. . ... ... : ... .. . ... ... : ... .. . ... ...
ROW B6 : ... .. 0 ... V00 ... : ... .. . ... ... ... : ... .. . ... : ... .. . ... : ... .. . ... ... : ... .. . ... ... : ... .. . ... ... : ... .. . ... ...
ROW B7 : ... .. . ... ... ... : ... .. . ... ... ... : ... .. . ... : ... .. . ... : ... .. . ... ... : ... .. . ... ... : ... .. . ... ... : ... .. . ... ...
ROW B8 : F-3 00 F P80 V02 ... : ... .. . ... ... ... : F-3 00 . ... : 3-# 00 F ... : ... .. . ... ... : F-3 01 A P80 ... : G#3 01 A P81 ... : ... .. . ... ...
ROW B9 : ... .. E ... ... ... : ... .. . ... ... ... : ... .. . ... : ... .. C ... : ... .. . ... ... : ... .. 9 ... ... : ... .. 9 ... ... : ... .. . ... ...
ROW BA : ... .. D ... ... ... : ... .. . ... ... ... : ... .. . ... : ... .. 6 ... : ... .. . ... ... : ... .. . ... ... : ... .. . ... ... : ... .. . ... ...
ROW BB : ... .. A ... ... ... : ... .. . ... ... ... : ... .. . ... : ... .. 3 ... : ... .. . ... ... : ... .. 8 ... ... : ... .. 8 ... ... : ... .. . ... ...
ROW BC : ... .. . ... ... ... : ... .. . ... ... ... : ... .. . ... : ... .. 2 ... : ... .. . ... ... : ... .. 7 ... ... : ... .. 7 ... ... : ... .. . ... ...
ROW BD : ... .. 0 ... V00 ... : ... .. . ... ... ... : --- .. . ... : ... .. 0 ... : ... .. . ... ... : ... .. . ... ... : ... .. . ... ... : ... .. . ... ...
ROW BE : ... .. . ... ... ... : ... .. . ... ... ... : ... .. . ... : ... .. . ... : ... .. . ... ... : ... .. 6 ... ... : ... .. 6 ... ... : ... .. . ... ...
ROW BF : ... .. . ... ... ... : ... .. . ... ... ... : ... .. . ... : ... .. . ... : ... .. . ... ... : ... .. . ... ... : ... .. . ... ... : ... .. . ... ...
ROW C0 : ... .. . ... ... ... : ... .. . ... ... ... : ... .. . ... : ... .. . ... : ... .. . ... ... : ... .. . ... ... : ... .. . ... ... : ... .. . ... ...
ROW C1 : ... .. . ... ... ... : ... .. . ... ... ... : ... .. . ... : ... .. . ... : ... .. . ... ... : ... .. . ... ... : ... .. . ... ... : ... .. . ... ...
ROW C2 : ... .. . ... ... ... : ... .. . ... ... ... : G#5 00 . ... : ... .. . ... : ... .. . ... ... : --- .. . ... ... : --- .. . P83 ... : ... .. . ... ...
ROW C3 : ... .. . ... ... ... : ... .. . ... ... ... : ... .. . ... : ... .. . ... : ... .. . ... ... : ... .. . ... ... : ... .. . ... ... : ... .. . ... ...
ROW C4 : ... .. . ... ... ... : ... .. . ... ... ... : ... .. . ... : ... .. . ... : ... .. . ... ... : ... .. . ... ... : ... .. . ... ... : ... .. . ... ...
ROW C5 : ... .. . ... ... ... : ... .. . ... ... ... : ... .. . ... : ... .. . ... : ... .. . ... ... : ... .. . ... ... : ... .. . ... ... : ... .. . ... ...
ROW C6 : ... .. . ... ... ... : ... .. . ... ... ... : ... .. . ... : ... .. . ... : ... .. . ... ... : ... .. . ... ... : ... .. . ... ... : ... .. . ... ...
ROW C7 : ... .. . ... ... ... : ... .. . ... ... ... : --- .. . ... : ... .. . ... : ... .. . ... ... : ... .. . ... ... : ... .. . ... ... : ... .. . ... ...
ROW C8 : ... .. . ... ... ... : ... .. . ... ... ... : ... .. . ... : ... .. . ... : ... .. . ... ... : ... .. . ... ... : ... .. . ... ... : ... .. . ... ...
ROW C9 : ... .. . ... ... ... : ... .. . ... ... ... : ... .. . ... : ... .. . ... : ... .. . ... ... : ... .. . ... ... : ... .. . ... ... : ... .. . ... ...
ROW CA : ... .. . ... ... ... : ... .. . ... ... ... : ... .. . ... : ... .. . ... : ... .. . ... ... : ... .. . ... ... : ... .. . ... ... : ... .. . ... ...
ROW CB : ... .. . ... ... ... : ... .. . ... ... ... : ... .. . ... : ... .. . ... : ... .. . ... ... : ... .. . ... ... : ... .. . ... ... : ... .. . ... ...
ROW CC : ... .. . ... ... ... : ... .. . ... ... ... : E-4 00 . ... : ... .. . ... : ... .. . ... ... : ... .. . ... ... : ... .. . ... ... : ... .. . ... ...
ROW CD : ... .. . ... ... ... : ... .. . ... ... ... : F#3 00 . ... : ... .. . ... : ... .. . ... ... : ... .. . ... ... : ... .. . ... ... : ... .. . ... ...
ROW CE : ... .. . ... ... ... : ... .. . ... ... ... : B-2 00 . ... : ... .. . ... : ... .. . ... ... : ... .. . ... ... : ... .. . ... ... : ... .. . ... ...
ROW CF : ... .. . ... ... ... : ... .. . ... ... ... : A#2 00 . ... : ... .. . ... : ... .. . ... ... : ... .. . ... ... : ... .. . ... ... : ... .. . ... ...
ROW D0 : ... .. . ... ... ... : ... .. . ... ... ... : F-2 00 . ... : ... .. . ... : ... .. . ... ... : ... .. . ... ... : ... .. . ... ... : ... .. . ... ...
ROW D1 : ... .. . ... ... ... : ... .. . ... ... ... : ... .. . ... : ... .. . ... : ... .. . ... ... : ... .. . ... ... : ... .. . ... ... : ... .. . ... ...
ROW D2 : ... .. . ... ... ... : ... .. . ... ... ... : ... .. . ... : ... .. . ... : ... .. . ... ... : ... .. . ... ... : ... .. . ... ... : ... .. . ... ...
ROW D3 : ... .. . ... ... ... : ... .. . ... ... ... : ... .. . ... : ... .. . ... : ... .. . ... ... : ... .. . ... ... : ... .. . ... ... : ... .. . ... ...
ROW D4 : ... .. . ... ... ... : ... .. . ... ... ... : ... .. . ... : ... .. . ... : ... .. . ... ... : ... .. . ... ... : ... .. . ... ... : ... .. . ... ...
ROW D5 : ... .. . ... ... ... : ... .. . ... ... ... : ... .. . ... : ... .. . ... : ... .. . ... ... : ... .. . ... ... : ... .. . ... ... : ... .. . ... ...
ROW D6 : F-4 00 F P80 V02 ... : ... .. . ... ... ... : --- .. . ... : ... .. . ... : ... .. . ... ... : ... .. . ... ... : ... .. . ... ... : ... .. . ... ...
ROW D7 : ... .. E ... ... ... : ... .. . ... ... ... : ... .. . ... : ... .. . ... : ... .. . ... ... : ... .. . ... ... : ... .. . ... ... : ... .. . ... ...
ROW D8 : ... .. D ... ... ... : ... .. . ... ... ... : ... .. . ... : ... .. . ... : ... .. . ... ... : ... .. . ... ... : ... .. . ... ... : ... .. . ... ...
ROW D9 : ... .. A ... ... ... : ... .. . ... ... ... : ... .. . ... : ... .. . ... : ... .. . ... ... : ... .. . ... ... : ... .. . ... ... : ... .. . ... ...
ROW DA : ... .. . ... ... ... : ... .. . ... ... ... : ... .. . ... : ... .. . ... : ... .. . ... ... : ... .. . ... ... : ... .. . ... ... : ... .. . ... ...
ROW DB : G-4 00 F ... ... ... : ... .. . ... ... ... : ... .. . ... : ... .. . ... : ... .. . ... ... : ... .. . ... ... : ... .. . ... ... : ... .. . ... ...
ROW DC : ... .. E ... ... ... : ... .. . ... ... ... : ... .. . ... : ... .. . ... : ... .. . ... ... : ... .. . ... ... : ... .. . ... ... : ... .. . ... ...
ROW DD : ... .. D ... ... ... : ... .. . ... ... ... : ... .. . ... : ... .. . ... : ... .. . ... ... : ... .. . ... ... : ... .. . ... ... : ... .. . ... ...
ROW DE : F-4 00 F ... ... ... : ... .. . ... ... ... : ... .. . ... : ... .. . ... : ... .. . ... ... : ... .. . ... ... : ... .. . ... ... : ... .. . ... ...
ROW DF : ... .. E ... ... ... : ... .. . ... ... ... : ... .. . ... : ... .. . ... : ... .. . ... ... : ... .. . ... ... : ... .. . ... ... : ... .. . ... ...
ROW E0 : E-4 00 F ... ... ... : ... .. . ... ... ... : B-3 00 . ... : ... .. F ... : ... .. . ... ... : C-3 01 A ... ... : G-3 01 A P81 ... : ... .. . ... ...
ROW E1 : ... .. E ... ... ... : ... .. . ... ... ... : C#3 00 . ... : ... .. C ... : ... .. . ... ... : ... .. 9 ... ... : ... .. 9 ... ... : ... .. . ... ...
ROW E2 : ... .. D ... ... ... : ... .. . ... ... ... : F#2 00 . ... : ... .. 6 ... : ... .. . ... ... : ... .. . ... ... : ... .. . ... ... : ... .. . ... ...
ROW E3 : ... .. A ... ... ... : ... .. . ... ... ... : F-2 00 . ... : ... .. 3 ... : ... .. . ... ... : ... .. 8 ... ... : ... .. 8 ... ... : ... .. . ... ...
ROW E4 : ... .. . ... ... ... : ... .. . ... ... ... : C-2 00 . ... : ... .. 2 ... : ... .. . ... ... : ... .. 7 ... ... : ... .. 7 ... ... : ... .. . ... ...
ROW E5 : ... .. 0 ... V00 ... : ... .. . ... ... ... : ... .. . ... : ... .. 0 ... : ... .. . ... ... : A#2 01 A ... ... : E-3 01 A ... ... : ... .. . ... ...
ROW E6 : ... .. . ... ... ... : ... .. . ... ... ... : ... .. . ... : ... .. . ... : ... .. . ... ... : ... .. 9 ... ... : ... .. 9 ... ... : ... .. . ... ...
ROW E7 : ... .. . ... ... ... : ... .. . ... ... ... : ... .. . ... : ... .. . ... : ... .. . ... ... : ... .. . ... ... : ... .. . ... ... : ... .. . ... ...
ROW E8 : ... .. . ... ... ... : ... .. . ... ... ... : ... .. . ... : ... .. . ... : ... .. . ... ... : ... .. 8 ... ... : ... .. 8 ... ... : ... .. . ... ...
ROW E9 : ... .. . ... ... ... : ... .. . ... ... ... : ... .. . ... : ... .. . ... : ... .. . ... ... : ... .. 7 ... ... : ... .. 7 ... ... : ... .. . ... ...
ROW EA : E-4 00 F P80 V02 ... : ... .. . ... ... ... : ... .. . ... : D-# 00 F ... : ... .. . ... ... : C-3 01 A ... ... : G-3 01 A ... ... : ... .. . ... ...
ROW EB : ... .. E ... ... ... : ... .. . ... ... ... : ... .. . ... : ... .. C ... : ... .. . ... ... : ... .. 9 ... ... : ... .. 9 ... ... : ... .. . ... ...
ROW EC : ... .. D ... ... ... : ... .. . ... ... ... : ... .. . ... : ... .. 6 ... : ... .. . ... ... : ... .. . ... ... : ... .. . ... ... : ... .. . ... ...
ROW ED : ... .. 0 ... V00 ... : ... .. . ... ... ... : ... .. . ... : ... .. 3 ... : ... .. . ... ... : ... .. 8 ... ... : ... .. 8 ... ... : ... .. . ... ...
ROW EE : ... .. . ... ... ... : ... .. . ... ... ... : ... .. . ... : ... .. 2 ... : ... .. . ... ... : ... .. 7 ... ... : ... .. 7 ... ... : ... .. . ... ...
ROW EF : F-4 00 F P80 V02 ... : ... .. . ... ... ... : ... .. . ... : ... .. F ... : ... .. . ... ... : A#2 01 A ... ... : E-3 01 A ... ... : ... .. . ... ...
ROW F0 : ... .. E ... ... ... : ... .. . ... ... ... : ... .. . ... : ... .. C ... : ... .. . ... ... : ... .. 9 ... ... : ... .. 9 ... ... : ... .. . ... ...
ROW F1 : ... .. D ... ... ... : ... .. . ... ... ... : ... .. . ... : ... .. 6 ... : ... .. . ... ... : ... .. . ... ... : ... .. . ... ... : ... .. . ... ...
ROW F2 : ... .. 0 ... V00 ... : ... .. . ... ... ... : ... .. . ... : ... .. 3 ... : ... .. . ... ... : ... .. 8 ... ... : ... .. 8 ... ... : ... .. . ... ...
ROW F3 : ... .. . ... ... ... : ... .. . ... ... ... : ... .. . ... : ... .. 2 ... : ... .. . ... ... : ... .. 7 ... ... : ... .. 7 ... ... : ... .. . ... ...
ROW F4 : G-4 00 F P80 V02 ... : ... .. . ... ... ... : ... .. . ... : 6-# 00 F ... : ... .. . ... ... : C-3 01 A ... ... : G-3 01 A ... ... : ... .. . ... ...
ROW F5 : ... .. E ... ... ... : ... .. . ... ... ... : ... .. . ... : ... .. C ... : ... .. . ... ... : ... .. 9 ... ... : ... .. 9 ... ... : ... .. . ... ...
ROW F6 : ... .. D ... ... ... : ... .. . ... ... ... : ... .. . ... : ... .. 6 ... : ... .. . ... ... : ... .. . ... ... : ... .. . ... ... : ... .. . ... ...
ROW F7 : ... .. A ... ... ... : ... .. . ... ... ... : ... .. . ... : ... .. 3 ... : ... .. . ... ... : ... .. 8 ... ... : ... .. 8 ... ... : ... .. . ... ...
ROW F8 : ... .. . ... ... ... : ... .. . ... ... ... : ... .. . ... : ... .. 2 ... : ... .. . ... ... : ... .. 7 ... ... : ... .. 7 ... ... : ... .. . ... ...
ROW F9 : ... .. 0 ... V00 ... : ... .. . ... ... ... : ... .. . ... : ... .. 0 ... : ... .. . ... ... : A#2 01 A ... ... : E-3 01 A ... ... : ... .. . ... ...
ROW FA : ... .. . ... ... ... : ... .. . ... ... ... : ... .. . ... : ... .. . ... : ... .. . ... ... : ... .. 9 ... ... : ... .. 9 ... ... : ... .. . ... ...
ROW FB : ... .. . ... ... ... : ... .. . ... ... ... : ... .. . ... : ... .. . ... : ... .. . ... ... : ... .. . ... ... : ... .. . ... ... : ... .. . ... ...
ROW FC : ... .. . ... ... ... : ... .. . ... ... ... : ... .. . ... : ... .. . ... : ... .. . ... ... : ... .. 8 ... ... : ... .. 8 ... ... : ... .. . ... ...
ROW FD : ... .. . ... ... ... : ... .. . ... ... ... : ... .. . ... : ... .. . ... : ... .. . ... ... : ... .. 7 ... ... : ... .. 7 ... ... : ... .. . ... ...
ROW FE : E-4 00 F P80 V02 ... : ... .. . ... ... ... : ... .. . ... : D-# 00 F ... : ... .. . ... ... : C-3 01 A ... ... : G-3 01 A ... ... : ... .. . ... ...
ROW FF : ... .. E ... ... ... : ... .. . ... ... ... : ... .. . ... : ... .. C ... : ... .. . ... ... : ... .. 9 ... ... : ... .. 9 ... ... : ... .. . ... ...

PATTERN 0C
ROW 00 : ... .. D ... ... ... : ... .. . ... ... ... : ... .. . ... : ... .. 6 ... : ... .. . ... ... : ... .. . ... ... : ... .. . ... ... : ... .. . ... ...
ROW 01 : ... .. A ... ... ... : ... .. . ... ... ... : ... .. . ... : ... .. 3 ... : ... .. . ... ... : ... .. 8 ... ... : ... .. 8 ... ... : ... .. . ... ...
ROW 02 : ... .. . ... ... ... : ... .. . ... ... ... : ... .. . ... : ... .. 2 ... : ... .. . ... ... : ... .. 7 ... ... : ... .. 7 ... ... : ... .. . ... ...
ROW 03 : ... .. 0 ... V00 ... : ... .. . ... ... ... : ... .. . ... : ... .. F ... : ... .. . ... ... : A#2 01 A ... ... : E-3 01 A ... ... : ... .. . ... ...
ROW 04 : ... .. . ... ... ... : ... .. . ... ... ... : ... .. . ... : ... .. C ... : ... .. . ... ... : ... .. 9 ... ... : ... .. 9 ... ... : ... .. . ... ...
ROW 05 : ... .. . ... ... ... : ... .. . ... ... ... : ... .. . ... : ... .. 6 ... : ... .. . ... ... : ... .. . ... ... : ... .. . ... ... : ... .. . ... ...
ROW 06 : ... .. . ... ... ... : ... .. . ... ... ... : ... .. . ... : ... .. 3 ... : ... .. . ... ... : ... .. 8 ... ... : ... .. 8 ... ... : ... .. . ... ...
ROW 07 : ... .. . ... ... ... : ... .. . ... ... ... : ... .. . ... : ... .. 2 ... : ... .. . ... ... : ... .. 7 ... ... : ... .. 7 ... ... : ... .. . ... ...
ROW 08 : F-4 00 F P80 V02 ... : ... .. . ... ... ... : B-4 00 . ... : 3-# 00 F ... : ... .. . ... ... : C-3 01 A ... ... : G#3 01 A ... ... : ... .. . ... ...
ROW 09 : ... .. E ... ... ... : ... .. . ... ... ... : C#4 00 . ... : ... .. C ... : ... .. . ... ... : ... .. 9 ... ... : ... .. 9 ... ... : ... .. . ... ...
ROW 0A : ... .. D ... ... ... : ... .. . ... ... ... : F#3 00 . ... : ... .. 6 ... : ... .. . ... ... : ... .. . ... ... : ... .. . ... ... : ... .. . ... ...
ROW 0B : ... .. A ... ... ... : ... .. . ... ... ... : F-3 00 . ... : ... .. 3 ... : ... .. . ... ... : ... .. 8 ... ... : ... .. 8 ... ... : ... .. . ... ...
ROW 0C : ... .. . ... ... ... : ... .. . ... ... ... : C-3 00 . ... : ... .. 2 ... : ... .. . ... ... : ... .. 7 ... ... : ... .. 7 ... ... : ... .. . ... ...
ROW 0D : ... .. 0 ... V00 ... : ... .. . ... ... ... : ... .. . ... : ... .. 0 ... : ... .. . ... ... : G#2 01 A ... ... : F-3 01 A ... ... : ... .. . ... ...
ROW 0E : ... .. . ... ... ... : ... .. . ... ... ... : ... .. . ... : ... .. . ... : ... .. . ... ... : ... .. 9 ... ... : ... .. 9 ... ... : ... .. . ... ...
ROW 0F : ... .. . ... ... ... : ... .. . ... ... ... : ... .. . ... : ... .. . ... : ... .. . ... ... : ... .. . ... ... : ... .. . ... ... : ... .. . ... ...
ROW 10 : ... .. . ... ... ... : ... .. . ... ... ... : ... .. . ... : ... .. . ... : ... .. . ... ... : ... .. 8 ... ... : ... .. 8 ... ... : ... .. . ... ...
ROW 11 : ... .. . ... ... ... : ... .. . ... ... ... : ... .. . ... : ... .. . ... : ... .. . ... ... : ... .. 7 ... ... : ... .. 7 ... ... : ... .. . ... ...
ROW 12 : F-4 00 F P80 V02 ... : ... .. . ... ... ... : ... .. . ... : D-# 00 F ... : ... .. . ... ... : C-3 01 A ... ... : G#3 01 A ... ... : ... .. . ... ...
ROW 13 : ... .. E ... ... ... : ... .. . ... ... ... : ... .. . ... : ... .. C ... : ... .. . ... ... : ... .. 9 ... ... : ... .. 9 ... ... : ... .. . ... ...
ROW 14 : ... .. D ... ... ... : ... .. . ... ... ... : ... .. . ... : ... .. 6 ... : ... .. . ... ... : ... .. . ... ... : ... .. . ... ... : ... .. . ... ...
ROW 15 : ... .. 0 ... V00 ... : ... .. . ... ... ... : ... .. . ... : ... .. 3 ... : ... .. . ... ... : ... .. 8 ... ... : ... .. 8 ... ... : ... .. . ... ...
ROW 16 : ... .. . ... ... ... : ... .. . ... ... ... : ... .. . ... : ... .. 2 ... : ... .. . ... ... : ... .. 7 ... ... : ... .. 7 ... ... : ... .. . ... ...
ROW 17 : G-4 00 F P80 V02 ... : ... .. . ... ... ... : ... .. . ... : ... .. F ... : ... .. . ... ... : G#2 01 A ... ... : F-3 01 A ... ... : ... .. . ... ...
ROW 18 : ... .. E ... ... ... : ... .. . ... ... ... : ... .. . ... : ... .. C ... : ... .. . ... ... : ... .. 9 ... ... : ... .. 9 ... ... : ... .. . ... ...
ROW 19 : ... .. D ... ... ... : ... .. . ... ... ... : ... .. . ... : ... .. 6 ... : ... .. . ... ... : ... .. . ... ... : ... .. . ... ... : ... .. . ... ...
ROW 1A : ... .. 0 ... V00 ... : ... .. . ... ... ... : ... .. . ... : ... .. 3 ... : ... .. . ... ... : ... .. 8 ... ... : ... .. 8 ... ... : ... .. . ... ...
ROW 1B : ... .. . ... ... ... : ... .. . ... ... ... : ... .. . ... : ... .. 2 ... : ... .. . ... ... : ... .. 7 ... ... : ... .. 7 ... ... : ... .. . ... ...
ROW 1C : G#4 00 F P80 V02 ... : ... .. . ... ... ... : ... .. . ... : 6-# 00 F ... : ... .. . ... ... : C-3 01 A ... ... : G#3 01 A ... ... : ... .. . ... ...
ROW 1D : ... .. E ... ... ... : ... .. . ... ... ... : ... .. . ... : ... .. C ... : ... .. . ... ... : ... .. 9 ... ... : ... .. 9 ... ... : ... .. . ... ...
ROW 1E : ... .. D ... ... ... : ... .. . ... ... ... : ... .. . ... : ... .. 6 ... : ... .. . ... ... : ... .. . ... ... : ... .. . ... ... : ... .. . ... ...
ROW 1F : ... .. A ... ... ... : ... .. . ... ... ... : ... .. . ... : ... .. 3 ... : ... .. . ... ... : ... .. 8 ... ... : ... .. 8 ... ... : ... .. . ... ...
ROW 20 : ... .. . ... ... ... : ... .. . ... ... ... : ... .. . ... : ... .. 2 ... : ... .. . ... ... : ... .. 7 ... ... : ... .. 7 ... ... : ... .. . ... ...
ROW 21 : ... .. 0 ... V00 ... : ... .. . ... ... ... : ... .. . ... : ... .. 0 ... : ... .. . ... ... : G#2 01 A ... ... : F-3 01 A ... ... : ... .. . ... ...
ROW 22 : ... .. . ... ... ... : ... .. . ... ... ... : ... .. . ... : ... .. . ... : ... .. . ... ... : ... .. 9 ... ... : ... .. 9 ... ... : ... .. . ... ...
ROW 23 : ... .. . ... ... ... : ... .. . ... ... ... : ... .. . ... : ... .. . ... : ... .. . ... ... : ... .. . ... ... : ... .. . ... ... : ... .. . ... ...
ROW 24 : ... .. . ... ... ... : ... .. . ... ... ... : ... .. . ... : ... .. . ... : ... .. . ... ... : ... .. 8 ... ... : ... .. 8 ... ... : ... .. . ... ...
ROW 25 : ... .. . ... ... ... : ... .. . ... ... ... : ... .. . ... : ... .. . ... : ... .. . ... ... : ... .. 7 ... ... : ... .. 7 ... ... : ... .. . ... ...
ROW 26 : F-4 00 F P80 V02 ... : ... .. . ... ... ... : ... .. . ... : D-# 00 F ... : ... .. . ... ... : C-3 01 A ... ... : G#3 01 A ... ... : ... .. . ... ...
ROW 27 : ... .. E ... ... ... : ... .. . ... ... ... : ... .. . ... : ... .. C ... : ... .. . ... ... : ... .. 9 ... ... : ... .. 9 ... ... : ... .. . ... ...
ROW 28 : ... .. D ... ... ... : ... .. . ... ... ... : ... .. . ... : ... .. 6 ... : ... .. . ... ... : ... .. . ... ... : ... .. . ... ... : ... .. . ... ...
ROW 29 : ... .. A ... ... ... : ... .. . ... ... ... : ... .. . ... : ... .. 3 ... : ... .. . ... ... : ... .. 8 ... ... : ... .. 8 ... ... : ... .. . ... ...
ROW 2A : ... .. . ... ... ... : ... .. . ... ... ... : ... .. . ... : ... .. 2 ... : ... .. . ... ... : ... .. 7 ... ... : ... .. 7 ... ... : ... .. . ... ...
ROW 2B : ... .. 0 ... V00 ... : ... .. . ... ... ... : ... .. . ... : ... .. 0 ... : ... .. . ... ... : G#2 01 A ... ... : F-3 01 A ... ... : ... .. . ... ...
ROW 2C : ... .. . ... ... ... : ... .. . ... ... ... : ... .. . ... : ... .. . ... : ... .. . ... ... : ... .. 9 ... ... : ... .. 9 ... ... : ... .. . ... ...
ROW 2D : ... .. . ... ... ... : ... .. . ... ... ... : ... .. . ... : ... .. . ... : ... .. . ... ... : ... .. . ... ... : ... .. . ... ... : ... .. . ... ...
ROW 2E : ... .. . ... ... ... : ... .. . ... ... ... : ... .. . ... : ... .. . ... : ... .. . ... ... : ... .. 8 ... ... : ... .. 8 ... ... : ... .. . ... ...
ROW 2F : ... .. . ... ... ... : ... .. . ... ... ... : ... .. . ... : ... .. . ... : ... .. . ... ... : ... .. 7 ... ... : ... .. 7 ... ... : ... .. . ... ...
ROW 30 : G-4 00 F P80 V02 ... : ... .. . ... ... ... : A-5 00 . ... : 3-# 00 F ... : ... .. . ... ... : D#3 01 A ... ... : A#3 01 A ... ... : ... .. . ... ...
ROW 31 : ... .. E ... ... ... : ... .. . ... ... ... : B-4 00 . ... : ... .. C ... : ... .. . ... ... : ... .. 9 ... ... : ... .. 9 ... ... : ... .. . ... ...
ROW 32 : ... .. D ... ... ... : ... .. . ... ... ... : E-4 00 . ... : ... .. 6 ... : ... .. . ... ... : ... .. . ... ... : ... .. . ... ... : ... .. . ... ...
ROW 33 : ... .. A ... ... ... : ... .. . ... ... ... : D#4 00 . ... : ... .. 3 ... : ... .. . ... ... : ... .. 8 ... ... : ... .. 8 ... ... : ... .. . ... ...
ROW 34 : ... .. . ... ... ... : ... .. . ... ... ... : A#3 00 . ... : ... .. 2 ... : ... .. . ... ... : ... .. 7 ... ... : ... .. 7 ... ... : ... .. . ... ...
ROW 35 : ... .. . ... ... ... : ... .. . ... ... ... : ... .. . ... : ... .. 0 ... : ... .. . ... ... : A#2 01 A ... ... : G-3 01 A ... ... : ... .. . ... ...
ROW 36 : ... .. . ... ... ... : ... .. . ... ... ... : ... .. . ... : ... .. . ... : ... .. . ... ... : ... .. 9 ... ... : ... .. 9 ... ... : ... .. . ... ...
ROW 37 : ... .. . ... ... ... : ... .. . ... ... ... : ... .. . ... : ... .. . ... : ... .. . ... ... : ... .. . ... ... : ... .. . ... ... : ... .. . ... ...
ROW 38 : ... .. . ... ... ... : ... .. . ... ... ... : ... .. . ... : ... .. . ... : ... .. . ... ... : ... .. 8 ... ... : ... .. 8 ... ... : ... .. . ... ...
ROW 39 : ... .. . ... ... ... : ... .. . ... ... ... : ... .. . ... : ... .. . ... : ... .. . ... ... : ... .. 7 ... ... : ... .. 7 ... ... : ... .. . ... ...
ROW 3A : ... .. F ... ... ... : ... .. . ... ... ... : ... .. . ... : D-# 00 F ... : ... .. . ... ... : D#3 01 A ... ... : A#3 01 A ... ... : ... .. . ... ...
ROW 3B : ... .. E ... ... ... : ... .. . ... ... ... : ... .. . ... : ... .. C ... : ... .. . ... ... : ... .. 9 ... ... : ... .. 9 ... ... : ... .. . ... ...
ROW 3C : ... .. D ... ... ... : ... .. . ... ... ... : ... .. . ... : ... .. 6 ... : ... .. . ... ... : ... .. . ... ... : ... .. . ... ... : ... .. . ... ...
ROW 3D : ... .. 0 ... V00 ... : ... .. . ... ... ... : ... .. . ... : ... .. 3 ... : ... .. . ... ... : ... .. 8 ... ... : ... .. 8 ... ... : ... .. . ... ...
ROW 3E : ... .. . ... ... ... : ... .. . ... ... ... : ... .. . ... : ... .. 2 ... : ... .. . ... ... : ... .. 7 ... ... : ... .. 7 ... ... : ... .. . ... ...
ROW 3F : G#4 00 F P80 V02 ... : ... .. . ... ... ... : ... .. . ... : ... .. F ... : ... .. . ... ... : A#2 01 A ... ... : G-3 01 A ... ... : ... .. . ... ...
ROW 40 : ... .. E ... ... ... : ... .. . ... ... ... : ... .. . ... : ... .. C ... : ... .. . ... ... : ... .. 9 ... ... : ... .. 9 ... ... : ... .. . ... ...
ROW 41 : ... .. D ... ... ... : ... .. . ... ... ... : ... .. . ... : ... .. 6 ... : ... .. . ... ... : ... .. . ... ... : ... .. . ... ... : ... .. . ... ...
ROW 42 : ... .. 0 ... V00 ... : ... .. . ... ... ... : ... .. . ... : ... .. 3 ... : ... .. . ... ... : ... .. 8 ... ... : ... .. 8 ... ... : ... .. . ... ...
ROW 43 : ... .. . ... ... ... : ... .. . ... ... ... : ... .. . ... : ... .. 2 ... : ... .. . ... ... : ... .. 7 ... ... : ... .. 7 ... ... : ... .. . ... ...
ROW 44 : A#4 00 F P80 V02 ... : ... .. . ... ... ... : D#4 00 . ... : 6-# 00 F ... : ... .. . ... ... : D#3 01 A ... ... : A#3 01 A ... ... : ... .. . ... ...
ROW 45 : ... .. E ... ... ... : ... .. . ... ... ... : ... .. . ... : ... .. C ... : ... .. . ... ... : ... .. 9 ... ... : ... .. 9 ... ... : ... .. . ... ...
ROW 46 : ... .. D ... ... ... : ... .. . ... ... ... : ... .. . ... : ... .. 6 ... : ... .. . ... ... : ... .. . ... ... : ... .. . ... ... : ... .. . ... ...
ROW 47 : ... .. A ... ... ... : ... .. . ... ... ... : --- .. . ... : ... .. 3 ... : ... .. . ... ... : ... .. 8 ... ... : ... .. 8 ... ... : ... .. . ... ...
ROW 48 : ... .. . ... ... ... : ... .. . ... ... ... : ... .. . ... : ... .. 2 ... : ... .. . ... ... : ... .. 7 ... ... : ... .. 7 ... ... : ... .. . ... ...
ROW 49 : ... .. 0 ... V00 ... : ... .. . ... ... ... : C#4 00 . ... : ... .. 0 ... : ... .. . ... ... : A#2 01 A ... ... : G-3 01 A ... ... : ... .. . ... ...
ROW 4A : ... .. . ... ... ... : ... .. . ... ... ... : ... .. . ... : ... .. . ... : ... .. . ... ... : ... .. 9 ... ... : ... .. 9 ... ... : ... .. . ... ...
ROW 4B : ... .. . ... ... ... : ... .. . ... ... ... : ... .. . ... : ... .. . ... : ... .. . ... ... : ... .. . ... ... : ... .. . ... ... : ... .. . ... ...
ROW 4C : ... .. . ... ... ... : ... .. . ... ... ... : --- .. . ... : ... .. . ... : ... .. . ... ... : ... .. 8 ... ... : ... .. 8 ... ... : ... .. . ... ...
ROW 4D : ... .. . ... ... ... : ... .. . ... ... ... : ... .. . ... : ... .. . ... : ... .. . ... ... : ... .. 7 ... ... : ... .. 7 ... ... : ... .. . ... ...
ROW 4E : D#4 00 F P80 V02 ... : ... .. . ... ... ... : C-4 00 . ... : D-# 00 F ... : ... .. . ... ... : D#3 01 A ... ... : A#3 01 A ... ... : ... .. . ... ...
ROW 4F : ... .. E ... ... ... : ... .. . ... ... ... : ... .. . ... : ... .. C ... : ... .. . ... ... : ... .. 9 ... ... : ... .. 9 ... ... : ... .. . ... ...
ROW 50 : ... .. D ... ... ... : ... .. . ... ... ... : ... .. . ... : ... .. 6 ... : ... .. . ... ... : ... .. . ... ... : ... .. . ... ... : ... .. . ... ...
ROW 51 : ... .. A ... ... ... : ... .. . ... ... ... : --- .. . ... : ... .. 3 ... : ... .. . ... ... : ... .. 8 ... ... : ... .. 8 ... ... : ... .. . ... ...
ROW 52 : ... .. . ... ... ... : ... .. . ... ... ... : ... .. . ... : ... .. 2 ... : ... .. . ... ... : ... .. 7 ... ... : ... .. 7 ... ... : ... .. . ... ...
ROW 53 : ... .. 0 ... V00 ... : ... .. . ... ... ... : A#3 00 . ... : ... .. 0 ... : ... .. . ... ... : A#2 01 A ... ... : G-3 01 A ... ... : ... .. . ... ...
ROW 54 : ... .. . ... ... ... : ... .. . ... ... ... : ... .. . ... : ... .. . ... : ... .. . ... ... : ... .. 9 ... ... : ... .. 9 ... ... : ... .. . ... ...
ROW 55 : ... .. . ... ... ... : ... .. . ... ... ... : ... .. . ... : ... .. . ... : ... .. . ... ... : ... .. . ... ... : ... .. . ... ... : ... .. . ... ...
ROW 56 : ... .. . ... ... ... : ... .. . ... ... ... : --- .. . ... : ... .. . ... : ... .. . ... ... : ... .. 8 ... ... : ... .. 8 ... ... : ... .. . ... ...
ROW 57 : ... .. . ... ... ... : ... .. . ... ... ... : ... .. . ... : ... .. . ... : ... .. . ... ... : ... .. 7 ... ... : ... .. 7 ... ... : ... .. . ... ...
ROW 58 : D#5 00 F P80 V02 ... : ... .. . ... ... ... : G#3 00 . ... : 3-# 00 F ... : ... .. . ... ... : D#3 01 A ... ... : C-4 01 A ... ... : ... .. . ... ...
ROW 59 : ... .. E ... ... ... : ... .. . ... ... ... : ... .. . ... : ... .. C ... : ... .. . ... ... : ... .. 9 ... ... : ... .. 9 ... ... : ... .. . ... ...
ROW 5A : ... .. D ... ... ... : ... .. . ... ... ... : ... .. . ... : ... .. 6 ... : ... .. . ... ... : ... .. . ... ... : ... .. . ... ... : ... .. . ... ...
ROW 5B : ... .. A ... ... ... : ... .. . ... ... ... : ... .. . ... : ... .. 3 ... : ... .. . ... ... : ... .. 8 ... ... : ... .. 8 ... ... : ... .. . ... ...
ROW 5C : ... .. . ... ... ... : ... .. . ... ... ... : ... .. . ... : ... .. 2 ... : ... .. . ... ... : --- .. . P83 ... : ... .. 7 ... ... : ... .. . ... ...
ROW 5D : ... .. . ... ... ... : ... .. . ... ... ... : --- .. . ... : ... .. 0 ... : ... .. . ... ... : G#3 01 A P80 ... : ... .. . ... ... : ... .. . ... ...
ROW 5E : ... .. . ... ... ... : ... .. . ... ... ... : ... .. . ... : ... .. . ... : ... .. . ... ... : ... .. 9 ... ... : ... .. 6 ... ... : ... .. . ... ...
ROW 5F : ... .. . ... ... ... : ... .. . ... ... ... : ... .. . ... : ... .. . ... : ... .. . ... ... : ... .. . ... ... : ... .. . ... ... : ... .. . ... ...
ROW 60 : ... .. . ... ... ... : ... .. . ... ... ... : ... .. . ... : ... .. . ... : ... .. . ... ... : ... .. 8 ... ... : ... .. . ... ... : ... .. . ... ...
ROW 61 : ... .. . ... ... ... : ... .. . ... ... ... : ... .. . ... : ... .. . ... : ... .. . ... ... : --- .. . P82 ... : ... .. . ... ... : ... .. . ... ...
ROW 62 : D#4 00 F ... ... ... : ... .. . ... ... ... : C-5 00 . ... : D-# 00 F ... : ... .. . ... ... : D#3 01 A P80 ... : D#4 01 A ... ... : ... .. . ... ...
ROW 63 : ... .. E ... ... ... : ... .. . ... ... ... : ... .. . ... : ... .. C ... : ... .. . ... ... : ... .. 9 ... ... : ... .. 9 ... ... : ... .. . ... ...
ROW 64 : ... .. D ... ... ... : ... .. . ... ... ... : ... .. . ... : ... .. 6 ... : ... .. . ... ... : ... .. . ... ... : ... .. . ... ... : ... .. . ... ...
ROW 65 : ... .. A ... ... ... : ... .. . ... ... ... : ... .. . ... : ... .. 3 ... : ... .. . ... ... : ... .. 8 ... ... : ... .. 8 ... ... : ... .. . ... ...
ROW 66 : ... .. . ... ... ... : ... .. . ... ... ... : ... .. . ... : ... .. 2 ... : ... .. . ... ... : --- .. . P83 ... : ... .. 7 ... ... : ... .. . ... ...
ROW 67 : ... .. 0 ... V00 ... : ... .. . ... ... ... : --- .. . ... : ... .. F ... : ... .. . ... ... : G#3 01 A P80 ... : C-4 01 A ... ... : ... .. . ... ...
ROW 68 : ... .. . ... ... ... : ... .. . ... ... ... : ... .. . ... : ... .. C ... : ... .. . ... ... : ... .. 9 ... ... : ... .. 9 ... ... : ... .. . ... ...
ROW 69 : ... .. . ... ... ... : ... .. . ... ... ... : ... .. . ... : ... .. 6 ... : ... .. . ... ... : ... .. . ... ... : ... .. . ... ... : ... .. . ... ...
ROW 6A : ... .. . ... ... ... : ... .. . ... ... ... : ... .. . ... : ... .. 3 ... : ... .. . ... ... : ... .. 8 ... ... : ... .. 8 ... ... : ... .. . ... ...
ROW 6B : ... .. . ... ... ... : ... .. . ... ... ... : ... .. . ... : ... .. 2 ... : ... .. . ... ... : --- .. . P82 ... : ... .. 7 ... ... : ... .. . ... ...
ROW 6C : D-5 00 F P80 V02 ... : ... .. . ... ... ... : G-3 00 . ... : 6-# 00 F ... : ... .. . ... ... : D-3 01 A P80 ... : B-3 01 A ... ... : ... .. . ... ...
ROW 6D : ... .. E ... ... ... : ... .. . ... ... ... : ... .. . ... : ... .. C ... : ... .. . ... ... : ... .. 9 ... ... : ... .. 9 ... ... : ... .. . ... ...
ROW 6E : ... .. D ... ... ... : ... .. . ... ... ... : ... .. . ... : ... .. 6 ... : ... .. . ... ... : ... .. . ... ... : ... .. . ... ... : ... .. . ... ...
ROW 6F : ... .. A ... ... ... : ... .. . ... ... ... : ... .. . ... : ... .. 3 ... : ... .. . ... ... : ... .. 8 ... ... : ... .. 8 ... ... : ... .. . ... ...
ROW 70 : ... .. . ... ... ... : ... .. . ... ... ... : ... .. . ... : ... .. 2 ... : ... .. . ... ... : --- .. . P82 ... : ... .. 7 ... ... : ... .. . ... ...
ROW 71 : ... .. . ... ... ... : ... .. . ... ... ... : --- .. . ... : ... .. 0 ... : ... .. . ... ... : G-3 01 A P80 ... : ... .. . ... ... : ... .. . ... ...
ROW 72 : ... .. . ... ... ... : ... .. . ... ... ... : ... .. . ... : ... .. . ... : ... .. . ... ... : ... .. 9 ... ... : ... .. 6 ... ... : ... .. . ... ...
ROW 73 : ... .. . ... ... ... : ... .. . ... ... ... : ... .. . ... : ... .. . ... : ... .. . ... ... : ... .. . ... ... : ... .. . ... ... : ... .. . ... ...
ROW 74 : ... .. . ... ... ... : ... .. . ... ... ... : ... .. . ... : ... .. . ... : ... .. . ... ... : ... .. 8 ... ... : ... .. . ... ... : ... .. . ... ...
ROW 75 : ... .. . ... ... ... : ... .. . ... ... ... : ... .. . ... : ... .. . ... : ... .. . ... ... : --- .. . P81 ... : ... .. . ... ... : ... .. . ... ...
ROW 76 : D-4 00 F ... ... ... : ... .. . ... ... ... : B-4 00 . ... : D-# 00 F ... : ... .. . ... ... : D-3 01 A P80 ... : D-4 01 A ... ... : ... .. . ... ...
ROW 77 : ... .. E ... ... ... : ... .. . ... ... ... : ... .. . ... : ... .. C ... : ... .. . ... ... : ... .. 9 ... ... : ... .. 9 ... ... : ... .. . ... ...
ROW 78 : ... .. D ... ... ... : ... .. . ... ... ... : ... .. . ... : ... .. 6 ... : ... .. . ... ... : ... .. . ... ... : ... .. . ... ... : ... .. . ... ...
ROW 79 : ... .. A ... ... ... : ... .. . ... ... ... : ... .. . ... : ... .. 3 ... : ... .. . ... ... : ... .. 8 ... ... : ... .. 8 ... ... : ... .. . ... ...
ROW 7A : ... .. . ... ... ... : ... .. . ... ... ... : ... .. . ... : ... .. 2 ... : ... .. . ... ... : --- .. . P82 ... : ... .. 7 ... ... : ... .. . ... ...
ROW 7B : ... .. 0 ... V00 ... : ... .. . ... ... ... : --- .. . ... : ... .. F ... : ... .. . ... ... : G-3 01 A P80 ... : B-3 01 A ... ... : ... .. . ... ...
ROW 7C : ... .. . ... ... ... : ... .. . ... ... ... : ... .. . ... : ... .. C ... : ... .. . ... ... : ... .. 9 ... ... : ... .. 9 ... ... : ... .. . ... ...
ROW 7D : ... .. . ... ... ... : ... .. . ... ... ... : ... .. . ... : ... .. 6 ... : ... .. . ... ... : ... .. . ... ... : ... .. . ... ... : ... .. . ... ...
ROW 7E : ... .. . ... ... ... : ... .. . ... ... ... : ... .. . ... : ... .. 3 ... : ... .. . ... ... : ... .. 8 ... ... : ... .. 8 ... ... : ... .. . ... ...
ROW 7F : ... .. . ... ... ... : ... .. . ... ... ... : ... .. . ... : ... .. 2 ... : ... .. . ... ... : --- .. . P81 ... : ... .. 7 ... ... : ... .. . ... ...
ROW 80 : C#5 00 F P80 V02 ... : ... .. . ... ... ... : F#3 00 . ... : 3-# 00 F ... : ... .. . ... ... : C#3 01 A P80 ... : A#3 01 A ... ... : ... .. . ... ...
ROW 81 : ... .. E ... ... ... : ... .. . ... ... ... : ... .. . ... : ... .. C ... : ... .. . ... ... : ... .. 9 ... ... : ... .. 9 ... ... : ... .. . ... ...
ROW 82 : ... .. D ... ... ... : ... .. . ... ... ... : ... .. . ... : ... .. 6 ... : ... .. . ... ... : ... .. . ... ... : ... .. . ... ... : ... .. . ... ...
ROW 83 : ... .. A ... ... ... : ... .. . ... ... ... : ... .. . ... : ... .. 3 ... : ... .. . ... ... : ... .. 8 ... ... : ... .. 8 ... ... : ... .. . ... ...
ROW 84 : ... .. . ... ... ... : ... .. . ... ... ... : ... .. . ... : ... .. 2 ... : ... .. . ... ... : --- .. . P83 ... : ... .. 7 ... ... : ... .. . ... ...
ROW 85 : ... .. 0 ... V00 ... : ... .. . ... ... ... : --- .. . ... : ... .. 0 ... : ... .. . ... ... : F#3 01 A P80 ... : ... .. . ... ... : ... .. . ... ...
ROW 86 : ... .. . ... ... ... : ... .. . ... ... ... : ... .. . ... : ... .. . ... : ... .. . ... ... : ... .. 9 ... ... : ... .. 6 ... ... : ... .. . ... ...
ROW 87 : ... .. . ... ... ... : ... .. . ... ... ... : ... .. . ... : ... .. . ... : ... .. . ... ... : ... .. . ... ... : ... .. . ... ... : ... .. . ... ...
ROW 88 : ... .. . ... ... ... : ... .. . ... ... ... : ... .. . ... : ... .. . ... : ... .. . ... ... : ... .. 8 ... ... : ... .. . ... ... : ... .. . ... ...
ROW 89 : ... .. . ... ... ... : ... .. . ... ... ... : ... .. . ... : ... .. . ... : ... .. . ... ... : --- .. . P7F ... : ... .. . ... ... : ... .. . ... ...
ROW 8A : C#4 00 F P80 V02 ... : ... .. . ... ... ... : E-4 00 . ... : D-# 00 F ... : ... .. . ... ... : C#3 01 A P80 ... : C#4 01 A ... ... : ... .. . ... ...
ROW 8B : ... .. E ... ... ... : ... .. . ... ... ... : ... .. . ... : ... .. C ... : ... .. . ... ... : ... .. 9 ... ... : ... .. 9 ... ... : ... .. . ... ...
ROW 8C : ... .. D ... ... ... : ... .. . ... ... ... : ... .. . ... : ... .. 6 ... : ... .. . ... ... : ... .. . ... ... : ... .. . ... ... : ... .. . ... ...
ROW 8D : ... .. A ... ... ... : ... .. . ... ... ... : ... .. . ... : ... .. 3 ... : ... .. . ... ... : ... .. 8 ... ... : ... .. 8 ... ... : ... .. . ... ...
ROW 8E : ... .. . ... ... ... : ... .. . ... ... ... : ... .. . ... : ... .. 2 ... : ... .. . ... ... : --- .. . P83 ... : ... .. 7 ... ... : ... .. . ... ...
ROW 8F : ... .. 0 ... V00 ... : ... .. . ... ... ... : --- .. . ... : ... .. F ... : ... .. . ... ... : F#3 01 A P80 ... : A#3 01 A ... ... : ... .. . ... ...
ROW 90 : ... .. . ... ... ... : ... .. . ... ... ... : ... .. . ... : ... .. C ... : ... .. . ... ... : ... .. 9 ... ... : ... .. 9 ... ... : ... .. . ... ...
ROW 91 : ... .. . ... ... ... : ... .. . ... ... ... : ... .. . ... : ... .. 6 ... : ... .. . ... ... : ... .. . ... ... : ... .. . ... ... : ... .. . ... ...
ROW 92 : ... .. . ... ... ... : ... .. . ... ... ... : ... .. . ... : ... .. 3 ... : ... .. . ... ... : ... .. 8 ... ... : ... .. 8 ... ... : ... .. . ... ...
ROW 93 : ... .. . ... ... ... : ... .. . ... ... ... : ... .. . ... : ... .. 2 ... : ... .. . ... ... : --- .. . P7F ... : ... .. 7 ... ... : ... .. . ... ...
ROW 94 : C-5 00 F P80 V02 ... : ... .. . ... ... ... : F-3 00 . ... : 6-# 00 F ... : ... .. . ... ... : C-3 01 A P80 ... : G#3 01 A ... ... : ... .. . ... ...
ROW 95 : ... .. E ... ... ... : ... .. . ... ... ... : ... .. . ... : ... .. C ... : ... .. . ... ... : ... .. 9 ... ... : ... .. 9 ... ... : ... .. . ... ...
ROW 96 : ... .. D ... ... ... : ... .. . ... ... ... : ... .. . ... : ... .. 6 ... : ... .. . ... ... : ... .. . ... ... : ... .. . ... ... : ... .. . ... ...
ROW 97 : ... .. A ... ... ... : ... .. . ... ... ... : ... .. . ... : ... .. 3 ... : ... .. . ... ... : ... .. 8 ... ... : ... .. 8 ... ... : ... .. . ... ...
ROW 98 : ... .. . ... ... ... : ... .. . ... ... ... : ... .. . ... : ... .. 2 ... : ... .. . ... ... : --- .. . P7E ... : ... .. 7 ... ... : ... .. . ... ...
ROW 99 : ... .. 0 ... V00 ... : ... .. . ... ... ... : --- .. . ... : ... .. 0 ... : ... .. . ... ... : F-3 01 A P80 ... : ... .. . ... ... : ... .. . ... ...
ROW 9A : ... .. . ... ... ... : ... .. . ... ... ... : ... .. . ... : ... .. . ... : ... .. . ... ... : ... .. 9 ... ... : ... .. 6 ... ... : ... .. . ... ...
ROW 9B : ... .. . ... ... ... : ... .. . ... ... ... : ... .. . ... : ... .. . ... : ... .. . ... ... : ... .. . ... ... : ... .. . ... ... : ... .. . ... ...
ROW 9C : ... .. . ... ... ... : ... .. . ... ... ... : ... .. . ... : ... .. . ... : ... .. . ... ... : ... .. 8 ... ... : ... .. . ... ... : ... .. . ... ...
ROW 9D : ... .. . ... ... ... : ... .. . ... ... ... : ... .. . ... : ... .. . ... : ... .. . ... ... : --- .. . ... ... : ... .. . ... ... : ... .. . ... ...
ROW 9E : C-4 00 F P80 V02 ... : ... .. . ... ... ... : G#4 00 . ... : D-# 00 F ... : ... .. . ... ... : C-3 01 A ... ... : C-4 01 A ... ... : ... .. . ... ...
ROW 9F : ... .. E ... ... ... : ... .. . ... ... ... : ... .. . ... : ... .. C ... : ... .. . ... ... : ... .. 9 ... ... : ... .. 9 ... ... : ... .. . ... ...
ROW A0 : ... .. D ... ... ... : ... .. . ... ... ... : ... .. . ... : ... .. 6 ... : ... .. . ... ... : ... .. . ... ... : ... .. . ... ... : ... .. . ... ...
ROW A1 : ... .. A ... ... ... : ... .. . ... ... ... : ... .. . ... : ... .. 3 ... : ... .. . ... ... : ... .. 8 ... ... : ... .. 8 ... ... : ... .. . ... ...
ROW A2 : ... .. . ... ... ... : ... .. . ... ... ... : ... .. . ... : ... .. 2 ... : ... .. . ... ... : --- .. . P7E ... : ... .. 7 ... ... : ... .. . ... ...
ROW A3 : ... .. 0 ... V00 ... : ... .. . ... ... ... : --- .. . ... : ... .. 0 ... : ... .. . ... ... : F-3 01 A P80 ... : G#3 01 A ... ... : ... .. . ... ...
ROW A4 : ... .. . ... ... ... : ... .. . ... ... ... : ... .. . ... : ... .. . ... : ... .. . ... ... : ... .. 9 ... ... : ... .. 9 ... ... : ... .. . ... ...
ROW A5 : ... .. . ... ... ... : ... .. . ... ... ... : ... .. . ... : ... .. . ... : ... .. . ... ... : ... .. . ... ... : ... .. . ... ... : ... .. . ... ...
ROW A6 : ... .. . ... ... ... : ... .. . ... ... ... : ... .. . ... : ... .. . ... : ... .. . ... ... : ... .. 8 ... ... : ... .. 8 ... ... : ... .. . ... ...
ROW A7 : ... .. . ... ... ... : ... .. . ... ... ... : ... .. . ... : ... .. . ... : ... .. . ... ... : --- .. . ... ... : ... .. 7 ... ... : ... .. . ... ...
ROW A8 : B-4 00 F P80 V02 ... : ... .. . ... ... ... : C#3 00 . ... : 3-# 00 F ... : ... .. . ... ... : B-2 01 A ... ... : G-3 01 A ... ... : ... .. . ... ...
ROW A9 : ... .. E ... ... ... : ... .. . ... ... ... : ... .. . ... : ... .. C ... : ... .. . ... ... : ... .. 9 ... ... : ... .. 9 ... ... : ... .. . ... ...
ROW AA : ... .. D ... ... ... : ... .. . ... ... ... : ... .. . ... : ... .. 6 ... : ... .. . ... ... : ... .. . ... ... : ... .. . ... ... : ... .. . ... ...
ROW AB : ... .. A ... ... ... : ... .. . ... ... ... : ... .. . ... : ... .. 3 ... : ... .. . ... ... : ... .. 8 ... ... : ... .. 8 ... ... : ... .. . ... ...
ROW AC : ... .. . ... ... ... : ... .. . ... ... ... : ... .. . ... : ... .. 2 ... : ... .. . ... ... : --- .. . P85 ... : ... .. 7 ... ... : ... .. . ... ...
ROW AD : ... .. 0 ... V00 ... : ... .. . ... ... ... : --- .. . ... : ... .. 0 ... : ... .. . ... ... : F-3 01 A P80 ... : ... .. . ... ... : ... .. . ... ...
ROW AE : ... .. . ... ... ... : ... .. . ... ... ... : ... .. . ... : ... .. . ... : ... .. . ... ... : ... .. 9 ... ... : ... .. 6 ... ... : ... .. . ... ...
ROW AF : ... .. . ... ... ... : ... .. . ... ... ... : ... .. . ... : ... .. . ... : ... .. . ... ... : ... .. . ... ... : ... .. . ... ... : ... .. . ... ...
ROW B0 : ... .. . ... ... ... : ... .. . ... ... ... : ... .. . ... : ... .. . ... : ... .. . ... ... : ... .. 8 ... ... : ... .. . ... ... : ... .. . ... ...
ROW B1 : ... .. . ... ... ... : ... .. . ... ... ... : ... .. . ... : ... .. . ... : ... .. . ... ... : --- .. . ... ... : ... .. . ... ... : ... .. . ... ...
ROW B2 : B-3 00 F P80 V02 ... : ... .. . ... ... ... : F-4 00 . ... : D-# 00 F ... : ... .. . ... ... : B-2 01 A ... ... : ... .. . ... ... : ... .. . ... ...
ROW B3 : ... .. E ... ... ... : ... .. . ... ... ... : ... .. . ... : ... .. C ... : ... .. . ... ... : ... .. 9 ... ... : ... .. . ... ... : ... .. . ... ...
ROW B4 : ... .. D ... ... ... : ... .. . ... ... ... : ... .. . ... : ... .. 6 ... : ... .. . ... ... : ... .. . ... ... : ... .. . ... ... : ... .. . ... ...
ROW B5 : ... .. A ... ... ... : ... .. . ... ... ... : ... .. . ... : ... .. 3 ... : ... .. . ... ... : ... .. 8 ... ... : ... .. . ... ... : ... .. . ... ...
ROW B6 : ... .. . ... ... ... : ... .. . ... ... ... : ... .. . ... : ... .. 2 ... : ... .. . ... ... : --- .. . P85 ... : ... .. . ... ... : ... .. . ... ...
ROW B7 : ... .. 0 ... V00 ... : ... .. . ... ... ... : --- .. . ... : ... .. F ... : ... .. . ... ... : F-3 01 A P80 ... : ... .. . ... ... : ... .. . ... ...
ROW B8 : ... .. . ... ... ... : ... .. . ... ... ... : ... .. . ... : ... .. C ... : ... .. . ... ... : ... .. 9 ... ... : ... .. . ... ... : ... .. . ... ...
ROW B9 : ... .. . ... ... ... : ... .. . ... ... ... : ... .. . ... : ... .. 6 ... : ... .. . ... ... : ... .. . ... ... : ... .. . ... ... : ... .. . ... ...
ROW BA : ... .. . ... ... ... : ... .. . ... ... ... : ... .. . ... : ... .. 3 ... : ... .. . ... ... : ... .. 8 ... ... : ... .. . ... ... : ... .. . ... ...
ROW BB : ... .. . ... ... ... : ... .. . ... ... ... : ... .. . ... : ... .. 2 ... : ... .. . ... ... : --- .. . ... ... : ... .. . ... ... : ... .. . ... ...
ROW BC : A#4 00 F P80 V02 ... : ... .. . ... ... ... : C-3 00 . ... : 6-# 00 F ... : ... .. . ... ... : A#2 01 A ... ... : ... .. . ... ... : ... .. . ... ...
ROW BD : ... .. E ... ... ... : ... .. . ... ... ... : ... .. . ... : ... .. C ... : ... .. . ... ... : ... .. 9 ... ... : ... .. . ... ... : ... .. . ... ...
ROW BE : ... .. D ... ... ... : ... .. . ... ... ... : ... .. . ... : ... .. 6 ... : ... .. . ... ... : ... .. . ... ... : ... .. . ... ... : ... .. . ... ...
ROW BF : ... .. A ... ... ... : ... .. . ... ... ... : ... .. . ... : ... .. 3 ... : ... .. . ... ... : ... .. 8 ... ... : ... .. . ... ... : ... .. . ... ...
ROW C0 : ... .. . ... ... ... : ... .. . ... ... ... : ... .. . ... : ... .. 2 ... : ... .. . ... ... : --- .. . P82 ... : ... .. . ... ... : ... .. . ... ...
ROW C1 : ... .. 0 ... V00 ... : ... .. . ... ... ... : --- .. . ... : ... .. 0 ... : ... .. . ... ... : E-3 01 A P80 ... : ... .. . ... ... : ... .. . ... ...
ROW C2 : ... .. . ... ... ... : ... .. . ... ... ... : ... .. . ... : ... .. . ... : ... .. . ... ... : ... .. 9 ... ... : ... .. . ... ... : ... .. . ... ...
ROW C3 : ... .. . ... ... ... : ... .. . ... ... ... : ... .. . ... : ... .. . ... : ... .. . ... ... : ... .. . ... ... : ... .. . ... ... : ... .. . ... ...
ROW C4 : ... .. . ... ... ... : ... .. . ... ... ... : ... .. . ... : ... .. . ... : ... .. . ... ... : ... .. 8 ... ... : ... .. . ... ... : ... .. . ... ...
ROW C5 : ... .. . ... ... ... : ... .. . ... ... ... : ... .. . ... : ... .. . ... : ... .. . ... ... : --- .. . P82 ... : ... .. . ... ... : ... .. . ... ...
ROW C6 : A#3 00 F P80 V02 ... : ... .. . ... ... ... : E-4 00 . ... : D-# 00 F ... : ... .. . ... ... : A#2 01 A P80 ... : A#3 01 A ... ... : ... .. . ... ...
ROW C7 : ... .. E ... ... ... : ... .. . ... ... ... : ... .. . ... : ... .. C ... : ... .. . ... ... : ... .. 9 ... ... : ... .. 9 ... ... : ... .. . ... ...
ROW C8 : ... .. D ... ... ... : ... .. . ... ... ... : ... .. . ... : ... .. 6 ... : ... .. . ... ... : ... .. . ... ... : ... .. . ... ... : ... .. . ... ...
ROW C9 : ... .. A ... ... ... : ... .. . ... ... ... : ... .. . ... : ... .. 3 ... : ... .. . ... ... : ... .. 8 ... ... : ... .. 8 ... ... : ... .. . ... ...
ROW CA : ... .. . ... ... ... : ... .. . ... ... ... : ... .. . ... : ... .. 2 ... : ... .. . ... ... : --- .. . P82 ... : ... .. 7 ... ... : ... .. . ... ...
ROW CB : ... .. 0 ... V00 ... : ... .. . ... ... ... : --- .. . ... : ... .. 0 ... : ... .. . ... ... : E-3 01 A P80 ... : G-3 01 A ... ... : ... .. . ... ...
ROW CC : ... .. . ... ... ... : ... .. . ... ... ... : ... .. . ... : ... .. . ... : ... .. . ... ... : ... .. 9 ... ... : ... .. 9 ... ... : ... .. . ... ...
ROW CD : ... .. . ... ... ... : ... .. . ... ... ... : ... .. . ... : ... .. . ... : ... .. . ... ... : ... .. . ... ... : ... .. . ... ... : ... .. . ... ...
ROW CE : ... .. . ... ... ... : ... .. . ... ... ... : ... .. . ... : ... .. . ... : ... .. . ... ... : ... .. 8 ... ... : ... .. 8 ... ... : ... .. . ... ...
ROW CF : ... .. . ... ... ... : ... .. . ... ... ... : ... .. . ... : ... .. . ... : ... .. . ... ... : --- .. . P82 ... : ... .. 7 ... ... : ... .. . ... ...
ROW D0 : G#4 00 F P80 V02 ... : ... .. . ... ... ... : E-6 00 . ... : 3-# 00 F ... : ... .. . ... ... : F-3 01 A P80 ... : F-3 01 A ... ... : ... .. . ... ...
ROW D1 : ... .. E ... ... ... : ... .. . ... ... ... : F#5 00 . ... : ... .. C ... : ... .. . ... ... : ... .. 9 ... ... : ... .. 9 ... ... : ... .. . ... ...
ROW D2 : ... .. D ... ... ... : ... .. . ... ... ... : B-4 00 . ... : ... .. 6 ... : ... .. . ... ... : ... .. . ... ... : ... .. . ... ... : ... .. . ... ...
ROW D3 : ... .. 0 ... V00 ... : ... .. . ... ... ... : A#4 00 . ... : ... .. 3 ... : ... .. . ... ... : ... .. 8 ... ... : ... .. 8 ... ... : ... .. . ... ...
ROW D4 : ... .. . ... ... ... : ... .. . ... ... ... : F-4 00 . ... : ... .. 2 ... : ... .. . ... ... : --- .. . ... ... : ... .. 7 ... ... : ... .. . ... ...
ROW D5 : G-4 00 F P80 V02 ... : ... .. . ... ... ... : ... .. . ... : ... .. 0 ... : ... .. . ... ... : C-3 01 A ... ... : E-3 01 A ... ... : ... .. . ... ...
ROW D6 : ... .. E ... ... ... : ... .. . ... ... ... : ... .. . ... : ... .. . ... : ... .. . ... ... : ... .. 9 ... ... : ... .. 9 ... ... : ... .. . ... ...
ROW D7 : ... .. D ... ... ... : ... .. . ... ... ... : ... .. . ... : ... .. . ... : ... .. . ... ... : ... .. . ... ... : ... .. . ... ... : ... .. . ... ...
ROW D8 : ... .. 0 ... V00 ... : ... .. . ... ... ... : ... .. . ... : ... .. . ... : ... .. . ... ... : ... .. 8 ... ... : ... .. 8 ... ... : ... .. . ... ...
ROW D9 : ... .. . ... ... ... : ... .. . ... ... ... : ... .. . ... : ... .. . ... : ... .. . ... ... : --- .. . P7E ... : ... .. 7 ... ... : ... .. . ... ...
ROW DA : F-4 00 F P80 V02 ... : ... .. . ... ... ... : ... .. . ... : D-# 00 F ... : ... .. . ... ... : G#2 01 A P80 ... : F-3 01 A ... ... : ... .. . ... ...
ROW DB : ... .. E ... ... ... : ... .. . ... ... ... : ... .. . ... : ... .. C ... : ... .. . ... ... : ... .. 9 ... ... : ... .. 9 ... ... : ... .. . ... ...
ROW DC : ... .. D ... ... ... : ... .. . ... ... ... : ... .. . ... : ... .. 6 ... : ... .. . ... ... : ... .. . ... ... : ... .. . ... ... : ... .. . ... ...
ROW DD : ... .. A ... ... ... : ... .. . ... ... ... : ... .. . ... : ... .. 3 ... : ... .. . ... ... : ... .. 8 ... ... : ... .. 8 ... ... : ... .. . ... ...
ROW DE : ... .. . ... ... ... : ... .. . ... ... ... : ... .. . ... : ... .. 2 ... : ... .. . ... ... : --- .. . ... ... : ... .. 7 ... ... : ... .. . ... ...
ROW DF : ... .. 0 ... V00 ... : ... .. . ... ... ... : --- .. . ... : ... .. F ... : ... .. . ... ... : C-3 01 A ... ... : G#3 01 A ... ... : ... .. . ... ...
ROW E0 : ... .. . ... ... ... : ... .. . ... ... ... : ... .. . ... : ... .. C ... : ... .. . ... ... : ... .. 9 ... ... : ... .. 9 ... ... : ... .. . ... ...
ROW E1 : ... .. . ... ... ... : ... .. . ... ... ... : ... .. . ... : ... .. 6 ... : ... .. . ... ... : ... .. . ... ... : ... .. . ... ... : ... .. . ... ...
ROW E2 : ... .. . ... ... ... : ... .. . ... ... ... : ... .. . ... : ... .. 3 ... : ... .. . ... ... : ... .. 8 ... ... : ... .. 8 ... ... : ... .. . ... ...
ROW E3 : ... .. . ... ... ... : ... .. . ... ... ... : ... .. . ... : ... .. 2 ... : ... .. . ... ... : --- .. . P7E ... : ... .. 7 ... ... : ... .. . ... ...
ROW E4 : G-4 00 F P80 V02 ... : ... .. . ... ... ... : C-3 00 . ... : 6-# 00 F ... : ... .. . ... ... : G-2 01 A P80 ... : G-3 01 A ... ... : ... .. . ... ...
ROW E5 : ... .. E ... ... ... : ... .. . ... ... ... : ... .. . ... : ... .. C ... : ... .. . ... ... : ... .. 9 ... ... : ... .. 9 ... ... : ... .. . ... ...
ROW E6 : ... .. D ... ... ... : ... .. . ... ... ... : ... .. . ... : ... .. 6 ... : ... .. . ... ... : ... .. . ... ... : ... .. . ... ... : ... .. . ... ...
ROW E7 : ... .. 0 ... V00 ... : ... .. . ... ... ... : --- .. . ... : ... .. 3 ... : ... .. . ... ... : ... .. 8 ... ... : ... .. 8 ... ... : ... .. . ... ...
ROW E8 : ... .. . ... ... ... : ... .. . ... ... ... : ... .. . ... : ... .. 2 ... : ... .. . ... ... : --- .. . P81 ... : ... .. 7 ... ... : ... .. . ... ...
ROW E9 : F-4 00 F P80 V02 ... : ... .. . ... ... ... : A#2 00 . ... : ... .. 0 ... : ... .. . ... ... : A#2 01 A P80 ... : F-3 01 A ... ... : ... .. . ... ...
ROW EA : ... .. E ... ... ... : ... .. . ... ... ... : ... .. . ... : ... .. . ... : ... .. . ... ... : ... .. 9 ... ... : ... .. 9 ... ... : ... .. . ... ...
ROW EB : ... .. D ... ... ... : ... .. . ... ... ... : ... .. . ... : ... .. . ... : ... .. . ... ... : ... .. . ... ... : ... .. . ... ... : ... .. . ... ...
ROW EC : ... .. 0 ... V00 ... : ... .. . ... ... ... : --- .. . ... : ... .. . ... : ... .. . ... ... : ... .. 8 ... ... : ... .. 8 ... ... : ... .. . ... ...
ROW ED : ... .. . ... ... ... : ... .. . ... ... ... : ... .. . ... : ... .. . ... : ... .. . ... ... : --- .. . P82 ... : ... .. 7 ... ... : ... .. . ... ...
ROW EE : E-4 00 F P80 V02 ... : ... .. . ... ... ... : G#2 00 . ... : D-# 00 F ... : ... .. . ... ... : E-2 01 A P80 ... : E-3 01 A ... ... : ... .. . ... ...
ROW EF : ... .. E ... ... ... : ... .. . ... ... ... : ... .. . ... : ... .. C ... : ... .. . ... ... : ... .. 9 ... ... : ... .. 9 ... ... : ... .. . ... ...
ROW F0 : ... .. D ... ... ... : ... .. . ... ... ... : ... .. . ... : ... .. 6 ... : ... .. . ... ... : ... .. . ... ... : ... .. . ... ... : ... .. . ... ...
ROW F1 : ... .. A ... ... ... : ... .. . ... ... ... : --- .. . ... : ... .. 3 ... : ... .. . ... ... : ... .. 8 ... ... : ... .. 8 ... ... : ... .. . ... ...
ROW F2 : ... .. . ... ... ... : ... .. . ... ... ... : ... .. . ... : ... .. 2 ... : ... .. . ... ... : --- .. . P83 ... : ... .. 7 ... ... : ... .. . ... ...
ROW F3 : ... .. 0 ... V00 ... : ... .. . ... ... ... : G-2 00 . ... : ... .. F ... : ... .. . ... ... : A#2 01 A P80 ... : G-3 01 A ... ... : ... .. . ... ...
ROW F4 : ... .. . ... ... ... : ... .. . ... ... ... : ... .. . ... : ... .. C ... : ... .. . ... ... : ... .. 9 ... ... : ... .. 9 ... ... : ... .. . ... ...
ROW F5 : ... .. . ... ... ... : ... .. . ... ... ... : ... .. . ... : ... .. 6 ... : ... .. . ... ... : ... .. . ... ... : ... .. . ... ... : ... .. . ... ...
ROW F6 : ... .. . ... ... ... : ... .. . ... ... ... : --- .. . ... : ... .. 3 ... : ... .. . ... ... : ... .. 8 ... ... : ... .. 8 ... ... : ... .. . ... ...
ROW F7 : ... .. . ... ... ... : ... .. . ... ... ... : ... .. . ... : ... .. 2 ... : ... .. . ... ... : --- .. . P82 ... : ... .. 7 ... ... : ... .. . ... ...
ROW F8 : F-4 00 F P80 V02 ... : ... .. . ... ... ... : E-4 00 . ... : 3-# 00 F ... : ... .. . ... ... : G#2 01 A P80 ... : F-3 01 A ... ... : ... .. . ... ...
ROW F9 : ... .. E ... ... ... : ... .. . ... ... ... : F#3 00 . ... : ... .. C ... : ... .. . ... ... : ... .. 9 ... ... : ... .. 9 ... ... : ... .. . ... ...
ROW FA : ... .. D ... ... ... : ... .. . ... ... ... : B-2 00 . ... : ... .. 6 ... : ... .. . ... ... : ... .. . ... ... : ... .. . ... ... : ... .. . ... ...
ROW FB : ... .. A ... ... ... : ... .. . ... ... ... : A#2 00 . ... : ... .. 3 ... : ... .. . ... ... : ... .. 8 ... ... : ... .. 8 ... ... : ... .. . ... ...
ROW FC : ... .. . ... ... ... : ... .. . ... ... ... : F-2 00 . ... : ... .. 2 ... : ... .. . ... ... : ... .. 7 ... ... : ... .. 7 ... ... : ... .. . ... ...
ROW FD : ... .. . ... ... ... : ... .. . ... ... ... : ... .. . ... : ... .. 0 ... : ... .. . ... ... : ... .. . ... ... : ... .. . ... ... : ... .. . ... ...
ROW FE : ... .. . ... ... ... : ... .. . ... ... ... : ... .. . ... : ... .. . ... : ... .. . ... ... : ... .. 6 ... ... : ... .. 6 ... ... : ... .. . ... ...
ROW FF : ... .. . ... ... ... : ... .. . ... ... ... : ... .. . ... : ... .. . ... : ... .. . ... ... : ... .. . ... ... : ... .. . ... ... : ... .. . ... ...

PATTERN 0D
ROW 00 : ... .. 0 ... V00 ... : ... .. . ... ... ... : ... .. . ... : ... .. . ... : ... .. . ... ... : ... .. . ... ... : ... .. . ... ... : ... .. . ... ...
ROW 01 : ... .. . ... ... ... : ... .. . ... ... ... : ... .. . ... : ... .. . ... : ... .. . ... ... : ... .. . ... ... : ... .. . ... ... : ... .. . ... ...
ROW 02 : ... .. . ... ... ... : ... .. . ... ... ... : E-2 00 . P86 : ... .. . ... : ... .. . ... ... : C-2 01 A ... ... : C-1 01 A ... ... : ... .. . ... ...
ROW 03 : ... .. . ... ... ... : ... .. . ... ... ... : D#2 00 . P8E : ... .. . ... : ... .. . ... ... : ... .. 9 ... ... : ... .. 9 ... ... : ... .. . ... ...
ROW 04 : ... .. . ... ... ... : ... .. . ... ... ... : ... .. . P6E : ... .. . ... : ... .. . ... ... : ... .. . ... ... : ... .. . ... ... : ... .. . ... ...
ROW 05 : D-5 00 6 P80 V02 ... : ... .. . ... ... ... : D-2 00 . P79 : ... .. . ... : ... .. . ... ... : ... .. 8 ... ... : ... .. 8 ... ... : ... .. . ... ...
ROW 06 : ... .. 5 ... ... ... : ... .. . ... ... ... : C#2 00 . P86 : ... .. . ... : ... .. . ... ... : ... .. 7 ... ... : ... .. 7 ... ... : ... .. . ... ...
ROW 07 : D#5 00 8 ... ... ... : ... .. . ... ... ... : C-2 00 . P96 : ... .. . ... : ... .. . ... ... : --- .. . P7E ... : --- .. . P7D ... : ... .. . ... ...
ROW 08 : ... .. 7 ... ... ... : ... .. . ... ... ... : ... .. . P76 : ... .. . ... : ... .. . ... ... : ... .. . ... ... : ... .. . ... ... : ... .. . ... ...
ROW 09 : ... .. 6 ... ... ... : ... .. . ... ... ... : B-1 00 . P89 : ... .. . ... : ... .. . ... ... : ... .. . ... ... : ... .. . ... ... : ... .. . ... ...
ROW 0A : E-5 00 A ... ... ... : ... .. . ... ... ... : ... .. . P69 : ... .. . ... : ... .. . ... ... : ... .. . ... ... : ... .. . ... ... : ... .. . ... ...
ROW 0B : ... .. 9 ... ... ... : ... .. . ... ... ... : A#1 00 . P7F : ... .. . ... : ... .. . ... ... : ... .. . ... ... : ... .. . ... ... : ... .. . ... ...
ROW 0C : F-5 00 F ... ... ... : ... .. . ... ... ... : E-3 00 . P80 : 6-# 00 F ... : ... .. . ... ... : F-1 01 A P80 ... : F-0 01 A P81 ... : ... .. . ... ...
ROW 0D : ... .. E ... ... ... : ... .. . ... ... ... : F#2 00 . ... : ... .. C ... : ... .. . ... ... : ... .. 9 ... ... : ... .. 9 ... ... : ... .. . ... ...
ROW 0E : ... .. D ... ... ... : ... .. . ... ... ... : B-1 00 . ... : ... .. 6 ... : ... .. . ... ... : ... .. . ... ... : ... .. . ... ... : ... .. . ... ...
ROW 0F : ... .. A ... ... ... : ... .. . ... ... ... : A#1 00 . ... : ... .. 3 ... : ... .. . ... ... : ... .. 8 ... ... : ... .. 8 ... ... : ... .. . ... ...
ROW 10 : ... .. . ... ... ... : ... .. . ... ... ... : F-1 00 . ... : ... .. 2 ... : ... .. . ... ... : ... .. 7 ... ... : ... .. 7 ... ... : ... .. . ... ...
ROW 11 : ... .. . ... ... ... : ... .. . ... ... ... : ... .. . ... : ... .. 0 ... : ... .. . ... ... : ... .. . ... ... : ... .. . ... ... : ... .. . ... ...
ROW 12 : ... .. . ... ... ... : ... .. . ... ... ... : ... .. . ... : ... .. . ... : ... .. . ... ... : ... .. 6 ... ... : ... .. 6 ... ... : ... .. . ... ...
ROW 13 : ... .. . ... ... ... : ... .. . ... ... ... : ... .. . ... : ... .. . ... : ... .. . ... ... : ... .. . ... ... : ... .. . ... ... : ... .. . ... ...
ROW 14 : ... .. . ... ... ... : ... .. . ... ... ... : ... .. . ... : ... .. . ... : ... .. . ... ... : ... .. . ... ... : ... .. . ... ... : ... .. . ... ...
ROW 15 : ... .. . ... ... ... : ... .. . ... ... ... : ... .. . ... : ... .. . ... : ... .. . ... ... : ... .. . ... ... : ... .. . ... ... : ... .. . ... ...
ROW 16 : ... .. 0 ... V00 ... : ... .. . ... ... ... : --- .. . ... : B-# 00 8 ... : ... .. . ... ... : --- .. . ... ... : --- .. . P80 ... : ... .. . ... ...
ROW 17 : ... .. . ... ... ... : ... .. . ... ... ... : ... .. . ... : ... .. 6 ... : ... .. . ... ... : ... .. . ... ... : ... .. . ... ... : ... .. . ... ...
ROW 18 : ... .. . ... ... ... : ... .. . ... ... ... : ... .. . ... : ... .. 3 ... : ... .. . ... ... : ... .. . ... ... : ... .. . ... ... : ... .. . ... ...
ROW 19 : ... .. . ... ... ... : ... .. . ... ... ... : ... .. . ... : ... .. 1 ... : ... .. . ... ... : ... .. . ... ... : ... .. . ... ... : ... .. . ... ...
ROW 1A : ... .. . ... ... ... : ... .. . ... ... ... : ... .. . ... : ... .. 8 ... : ... .. . ... ... : ... .. . ... ... : ... .. . ... ... : ... .. . ... ...
ROW 1B : ... .. . ... ... ... : ... .. . ... ... ... : ... .. . ... : ... .. 6 ... : ... .. . ... ... : ... .. . ... ... : ... .. . ... ... : ... .. . ... ...
ROW 1C : ... .. . ... ... ... : ... .. . ... ... ... : ... .. . ... : ... .. 3 ... : ... .. . ... ... : ... .. . ... ... : ... .. . ... ... : ... .. . ... ...
ROW 1D : ... .. . ... ... ... : ... .. . ... ... ... : ... .. . ... : ... .. 8 ... : ... .. . ... ... : ... .. . ... ... : ... .. . ... ... : ... .. . ... ...
ROW 1E : ... .. . ... ... ... : ... .. . ... ... ... : ... .. . ... : ... .. 6 ... : ... .. . ... ... : ... .. . ... ... : ... .. . ... ... : ... .. . ... ...
ROW 1F : ... .. . ... ... ... : ... .. . ... ... ... : ... .. . ... : ... .. 3 ... : ... .. . ... ... : ... .. . ... ... : ... .. . ... ... : ... .. . ... ...
ROW 20 : F-2 00 F P80 V01 ... : C-3 00 F P80 ... ... : F-3 00 . ... : 3-# 00 F ... : ... .. . ... ... : F-4 01 A ... ... : F-5 01 A P81 ... : ... .. . ... ...
ROW 21 : ... .. E ... ... ... : ... .. E ... ... ... : ... .. . ... : ... .. C ... : ... .. . ... ... : ... .. 9 ... ... : ... .. 9 ... ... : ... .. . ... ...
ROW 22 : ... .. D ... ... ... : ... .. D ... ... ... : ... .. . ... : ... .. 6 ... : ... .. . ... ... : ... .. . ... ... : ... .. . ... ... : ... .. . ... ...
ROW 23 : ... .. 0 ... V00 ... : ... .. 0 ... ... ... : ... .. . ... : ... .. 3 ... : ... .. . ... ... : --- .. . ... ... : --- .. . ... ... : ... .. . ... ...
ROW 24 : ... .. . ... ... ... : ... .. . ... ... ... : ... .. . ... : ... .. 2 ... : ... .. . ... ... : ... .. . ... ... : ... .. . ... ... : ... .. . ... ...
ROW 25 : F-2 00 F P80 V01 ... : C-3 00 F P80 ... ... : --- .. . ... : ... .. 0 ... : ... .. . ... ... : G#3 01 A ... ... : G#4 01 A ... ... : ... .. . ... ...
ROW 26 : ... .. E ... ... ... : ... .. E ... ... ... : ... .. . ... : ... .. . ... : ... .. . ... ... : ... .. 9 ... ... : ... .. 9 ... ... : ... .. . ... ...
ROW 27 : ... .. D ... ... ... : ... .. D ... ... ... : ... .. . ... : ... .. . ... : ... .. . ... ... : ... .. . ... ... : ... .. . ... ... : ... .. . ... ...
ROW 28 : ... .. 0 ... V00 ... : ... .. 0 ... ... ... : ... .. . ... : ... .. . ... : ... .. . ... ... : --- .. . P82 ... : --- .. . ... ... : ... .. . ... ...
ROW 29 : ... .. . ... ... ... : ... .. . ... ... ... : ... .. . ... : ... .. . ... : ... .. . ... ... : ... .. . ... ... : ... .. . ... ... : ... .. . ... ...
ROW 2A : B-2 00 F P80 V01 ... : F#3 00 F P80 ... ... : F-3 00 . ... : D-# 00 F ... : ... .. . ... ... : F-4 01 A P80 ... : F-5 01 A ... ... : ... .. . ... ...
ROW 2B : ... .. E ... ... ... : ... .. E ... ... ... : ... .. . ... : ... .. C ... : ... .. . ... ... : ... .. 9 ... ... : ... .. 9 ... ... : ... .. . ... ...
ROW 2C : ... .. D ... ... ... : ... .. D ... ... ... : ... .. . ... : ... .. 6 ... : ... .. . ... ... : ... .. . ... ... : ... .. . ... ... : ... .. . ... ...
ROW 2D : ... .. A ... ... ... : ... .. A ... ... ... : --- .. . ... : ... .. 3 ... : ... .. . ... ... : --- .. . ... ... : --- .. . ... ... : ... .. . ... ...
ROW 2E : ... .. . ... ... ... : ... .. . ... ... ... : ... .. . ... : ... .. 2 ... : ... .. . ... ... : ... .. . ... ... : ... .. . ... ... : ... .. . ... ...
ROW 2F : ... .. . ... ... ... : ... .. . ... ... ... : F-3 00 . ... : ... .. F ... : ... .. . ... ... : G#3 01 A ... ... : G#4 01 A ... ... : ... .. . ... ...
ROW 30 : ... .. . ... ... ... : ... .. . ... ... ... : ... .. . ... : ... .. C ... : ... .. . ... ... : ... .. 9 ... ... : ... .. 9 ... ... : ... .. . ... ...
ROW 31 : ... .. . ... ... ... : ... .. . ... ... ... : ... .. . ... : ... .. 6 ... : ... .. . ... ... : ... .. . ... ... : ... .. . ... ... : ... .. . ... ...
ROW 32 : ... .. 0 ... V00 ... : ... .. 0 ... ... ... : --- .. . ... : ... .. 3 ... : ... .. . ... ... : --- .. . P82 ... : --- .. . ... ... : ... .. . ... ...
ROW 33 : ... .. . ... ... ... : ... .. . ... ... ... : ... .. . ... : ... .. 2 ... : ... .. . ... ... : ... .. . ... ... : ... .. . ... ... : ... .. . ... ...
ROW 34 : A#2 00 F P80 V01 ... : F-3 00 F P80 ... ... : F-3 00 . ... : 6-# 00 F ... : ... .. . ... ... : F-4 01 A P80 ... : F-5 01 A ... ... : ... .. . ... ...
ROW 35 : ... .. E ... ... ... : ... .. E ... ... ... : ... .. . ... : ... .. C ... : ... .. . ... ... : ... .. 9 ... ... : ... .. 9 ... ... : ... .. . ... ...
ROW 36 : ... .. D ... ... ... : ... .. D ... ... ... : ... .. . ... : ... .. 6 ... : ... .. . ... ... : ... .. . ... ... : ... .. . ... ... : ... .. . ... ...
ROW 37 : ... .. A ... ... ... : ... .. A ... ... ... : ... .. . ... : ... .. 3 ... : ... .. . ... ... : --- .. . ... ... : --- .. . ... ... : ... .. . ... ...
ROW 38 : ... .. . ... ... ... : ... .. . ... ... ... : ... .. . ... : ... .. 2 ... : ... .. . ... ... : ... .. . ... ... : ... .. . ... ... : ... .. . ... ...
ROW 39 : ... .. . ... ... ... : ... .. . ... ... ... : --- .. . ... : ... .. 0 ... : ... .. . ... ... : G#3 01 A ... ... : G#4 01 A ... ... : ... .. . ... ...
ROW 3A : ... .. . ... ... ... : ... .. . ... ... ... : ... .. . ... : ... .. . ... : ... .. . ... ... : ... .. 9 ... ... : ... .. 9 ... ... : ... .. . ... ...
ROW 3B : ... .. . ... ... ... : ... .. . ... ... ... : ... .. . ... : ... .. . ... : ... .. . ... ... : ... .. . ... ... : ... .. . ... ... : ... .. . ... ...
ROW 3C : ... .. 0 ... V00 ... : ... .. 0 ... ... ... : ... .. . ... : ... .. . ... : ... .. . ... ... : --- .. . P82 ... : --- .. . ... ... : ... .. . ... ...
ROW 3D : ... .. . ... ... ... : ... .. . ... ... ... : ... .. . ... : ... .. . ... : ... .. . ... ... : ... .. . ... ... : ... .. . ... ... : ... .. . ... ...
ROW 3E : G#2 00 F P80 V01 ... : D#3 00 F P80 ... ... : F-3 00 . ... : D-# 00 F ... : ... .. . ... ... : F-4 01 A P80 ... : F-5 01 A ... ... : ... .. . ... ...
ROW 3F : ... .. E ... ... ... : ... .. E ... ... ... : ... .. . ... : ... .. C ... : ... .. . ... ... : ... .. 9 ... ... : ... .. 9 ... ... : ... .. . ... ...
ROW 40 : ... .. D ... ... ... : ... .. D ... ... ... : ... .. . ... : ... .. 6 ... : ... .. . ... ... : ... .. . ... ... : ... .. . ... ... : ... .. . ... ...
ROW 41 : ... .. 0 ... V00 ... : ... .. 0 ... ... ... : --- .. . ... : ... .. 3 ... : ... .. . ... ... : --- .. . ... ... : --- .. . ... ... : ... .. . ... ...
ROW 42 : ... .. . ... ... ... : ... .. . ... ... ... : ... .. . ... : ... .. 2 ... : ... .. . ... ... : ... .. . ... ... : ... .. . ... ... : ... .. . ... ...
ROW 43 : F-2 00 F P80 V01 ... : C-3 00 F P80 ... ... : F-3 00 . ... : ... .. F ... : ... .. . ... ... : G#3 01 A ... ... : G#4 01 A ... ... : ... .. . ... ...
ROW 44 : ... .. E ... ... ... : ... .. E ... ... ... : ... .. . ... : ... .. C ... : ... .. . ... ... : ... .. 9 ... ... : ... .. 9 ... ... : ... .. . ... ...
ROW 45 : ... .. D ... ... ... : ... .. D ... ... ... : ... .. . ... : ... .. 6 ... : ... .. . ... ... : ... .. . ... ... : ... .. . ... ... : ... .. . ... ...
ROW 46 : ... .. A ... ... ... : ... .. A ... ... ... : --- .. . ... : ... .. 3 ... : ... .. . ... ... : --- .. . P82 ... : --- .. . ... ... : ... .. . ... ...
ROW 47 : ... .. . ... ... ... : ... .. . ... ... ... : ... .. . ... : ... .. 2 ... : ... .. . ... ... : ... .. . ... ... : ... .. . ... ... : ... .. . ... ...
ROW 48 : ... .. . ... ... ... : ... .. . ... ... ... : F-3 00 . ... : 3-# 00 F ... : ... .. . ... ... : E-4 01 A P80 ... : E-5 01 A ... ... : ... .. . ... ...
ROW 49 : ... .. . ... ... ... : ... .. . ... ... ... : ... .. . ... : ... .. C ... : ... .. . ... ... : ... .. 9 ... ... : ... .. 9 ... ... : ... .. . ... ...
ROW 4A : ... .. . ... ... ... : ... .. . ... ... ... : ... .. . ... : ... .. 6 ... : ... .. . ... ... : ... .. . ... ... : ... .. . ... ... : ... .. . ... ...
ROW 4B : ... .. 0 ... V00 ... : ... .. 0 ... ... ... : ... .. . ... : ... .. 3 ... : ... .. . ... ... : --- .. . ... ... : --- .. . ... ... : ... .. . ... ...
ROW 4C : ... .. . ... ... ... : ... .. . ... ... ... : ... .. . ... : ... .. 2 ... : ... .. . ... ... : ... .. . ... ... : ... .. . ... ... : ... .. . ... ...
ROW 4D : F-2 00 F P80 V01 ... : C-3 00 F P80 ... ... : --- .. . ... : ... .. 0 ... : ... .. . ... ... : G-3 01 A ... ... : G-4 01 A ... ... : ... .. . ... ...
ROW 4E : ... .. E ... ... ... : ... .. E ... ... ... : ... .. . ... : ... .. . ... : ... .. . ... ... : ... .. 9 ... ... : ... .. 9 ... ... : ... .. . ... ...
ROW 4F : ... .. D ... ... ... : ... .. D ... ... ... : ... .. . ... : ... .. . ... : ... .. . ... ... : ... .. . ... ... : ... .. . ... ... : ... .. . ... ...
ROW 50 : ... .. 0 ... V00 ... : ... .. 0 ... ... ... : ... .. . ... : ... .. . ... : ... .. . ... ... : --- .. . P81 ... : --- .. . ... ... : ... .. . ... ...
ROW 51 : ... .. . ... ... ... : ... .. . ... ... ... : ... .. . ... : ... .. . ... : ... .. . ... ... : ... .. . ... ... : ... .. . ... ... : ... .. . ... ...
ROW 52 : B-2 00 F P80 V01 ... : F#3 00 F P80 ... ... : F-3 00 . ... : D-# 00 F ... : ... .. . ... ... : E-4 01 A P80 ... : E-5 01 A ... ... : ... .. . ... ...
ROW 53 : ... .. E ... ... ... : ... .. E ... ... ... : ... .. . ... : ... .. C ... : ... .. . ... ... : ... .. 9 ... ... : ... .. 9 ... ... : ... .. . ... ...
ROW 54 : ... .. D ... ... ... : ... .. D ... ... ... : ... .. . ... : ... .. 6 ... : ... .. . ... ... : ... .. . ... ... : ... .. . ... ... : ... .. . ... ...
ROW 55 : ... .. A ... ... ... : ... .. A ... ... ... : --- .. . ... : ... .. 3 ... : ... .. . ... ... : --- .. . ... ... : --- .. . ... ... : ... .. . ... ...
ROW 56 : ... .. . ... ... ... : ... .. . ... ... ... : ... .. . ... : ... .. 2 ... : ... .. . ... ... : ... .. . ... ... : ... .. . ... ... : ... .. . ... ...
ROW 57 : ... .. . ... ... ... : ... .. . ... ... ... : F-3 00 . ... : ... .. F ... : ... .. . ... ... : G-3 01 A ... ... : G-4 01 A ... ... : ... .. . ... ...
ROW 58 : ... .. . ... ... ... : ... .. . ... ... ... : ... .. . ... : ... .. C ... : ... .. . ... ... : ... .. 9 ... ... : ... .. 9 ... ... : ... .. . ... ...
ROW 59 : ... .. . ... ... ... : ... .. . ... ... ... : ... .. . ... : ... .. 6 ... : ... .. . ... ... : ... .. . ... ... : ... .. . ... ... : ... .. . ... ...
ROW 5A : ... .. 0 ... V00 ... : ... .. 0 ... ... ... : --- .. . ... : ... .. 3 ... : ... .. . ... ... : --- .. . P81 ... : --- .. . ... ... : ... .. . ... ...
ROW 5B : ... .. . ... ... ... : ... .. . ... ... ... : ... .. . ... : ... .. 2 ... : ... .. . ... ... : ... .. . ... ... : ... .. . ... ... : ... .. . ... ...
ROW 5C : A#2 00 F P80 V01 ... : F-3 00 F P80 ... ... : F-3 00 . ... : 6-# 00 F ... : ... .. . ... ... : E-4 01 A P80 ... : E-5 01 A ... ... : ... .. . ... ...
ROW 5D : ... .. E ... ... ... : ... .. E ... ... ... : ... .. . ... : ... .. C ... : ... .. . ... ... : ... .. 9 ... ... : ... .. 9 ... ... : ... .. . ... ...
ROW 5E : ... .. D ... ... ... : ... .. D ... ... ... : ... .. . ... : ... .. 6 ... : ... .. . ... ... : ... .. . ... ... : ... .. . ... ... : ... .. . ... ...
ROW 5F : ... .. A ... ... ... : ... .. A ... ... ... : --- .. . ... : ... .. 3 ... : ... .. . ... ... : --- .. . ... ... : --- .. . ... ... : ... .. . ... ...
ROW 60 : ... .. . ... ... ... : ... .. . ... ... ... : ... .. . ... : ... .. 2 ... : ... .. . ... ... : ... .. . ... ... : ... .. . ... ... : ... .. . ... ...
ROW 61 : ... .. . ... ... ... : ... .. . ... ... ... : F-3 00 . ... : ... .. 0 ... : ... .. . ... ... : G-3 01 A ... ... : G-4 01 A ... ... : ... .. . ... ...
ROW 62 : ... .. . ... ... ... : ... .. . ... ... ... : ... .. . ... : ... .. . ... : ... .. . ... ... : ... .. 9 ... ... : ... .. 9 ... ... : ... .. . ... ...
ROW 63 : ... .. . ... ... ... : ... .. . ... ... ... : ... .. . ... : ... .. . ... : ... .. . ... ... : ... .. . ... ... : ... .. . ... ... : ... .. . ... ...
ROW 64 : ... .. 0 ... V00 ... : ... .. 0 ... ... ... : --- .. . ... : ... .. . ... : ... .. . ... ... : --- .. . P81 ... : --- .. . ... ... : ... .. . ... ...
ROW 65 : ... .. . ... ... ... : ... .. . ... ... ... : ... .. . ... : ... .. . ... : ... .. . ... ... : ... .. . ... ... : ... .. . ... ... : ... .. . ... ...
ROW 66 : G#2 00 F P80 V01 ... : D#3 00 F P80 ... ... : F-3 00 . ... : D-# 00 F ... : ... .. . ... ... : E-4 01 A P80 ... : E-5 01 A ... ... : ... .. . ... ...
ROW 67 : ... .. E ... ... ... : ... .. E ... ... ... : ... .. . ... : ... .. C ... : ... .. . ... ... : ... .. 9 ... ... : ... .. 9 ... ... : ... .. . ... ...
ROW 68 : ... .. D ... ... ... : ... .. D ... ... ... : ... .. . ... : ... .. 6 ... : ... .. . ... ... : ... .. . ... ... : ... .. . ... ... : ... .. . ... ...
ROW 69 : ... .. A ... ... ... : ... .. A ... ... ... : --- .. . ... : ... .. 3 ... : ... .. . ... ... : --- .. . ... ... : --- .. . ... ... : ... .. . ... ...
ROW 6A : ... .. . ... ... ... : ... .. . ... ... ... : ... .. . ... : ... .. 2 ... : ... .. . ... ... : ... .. . ... ... : ... .. . ... ... : ... .. . ... ...
ROW 6B : ... .. . ... ... ... : ... .. . ... ... ... : F-3 00 . ... : ... .. 0 ... : ... .. . ... ... : G-3 01 A ... ... : G-4 01 A ... ... : ... .. . ... ...
ROW 6C : ... .. . ... ... ... : ... .. . ... ... ... : ... .. . ... : ... .. . ... : ... .. . ... ... : ... .. 9 ... ... : ... .. 9 ... ... : ... .. . ... ...
ROW 6D : ... .. . ... ... ... : ... .. . ... ... ... : ... .. . ... : ... .. . ... : ... .. . ... ... : ... .. . ... ... : ... .. . ... ... : ... .. . ... ...
ROW 6E : ... .. 0 ... V00 ... : ... .. 0 ... ... ... : --- .. . ... : ... .. . ... : ... .. . ... ... : --- .. . P81 ... : --- .. . ... ... : ... .. . ... ...
ROW 6F : ... .. . ... ... ... : ... .. . ... ... ... : ... .. . ... : ... .. . ... : ... .. . ... ... : ... .. . ... ... : ... .. . ... ... : ... .. . ... ...
ROW 70 : F-2 00 F P80 V01 ... : C-3 00 F P80 ... ... : F-3 00 . ... : 3-# 00 F ... : ... .. . ... ... : D#4 01 A P80 ... : D#5 01 A ... ... : ... .. . ... ...
ROW 71 : ... .. E ... ... ... : ... .. E ... ... ... : ... .. . ... : ... .. C ... : ... .. . ... ... : ... .. 9 ... ... : ... .. 9 ... ... : ... .. . ... ...
ROW 72 : ... .. D ... ... ... : ... .. D ... ... ... : ... .. . ... : ... .. 6 ... : ... .. . ... ... : ... .. . ... ... : ... .. . ... ... : ... .. . ... ...
ROW 73 : ... .. 0 ... V00 ... : ... .. 0 ... ... ... : ... .. . ... : ... .. 3 ... : ... .. . ... ... : --- .. . ... ... : --- .. . ... ... : ... .. . ... ...
ROW 74 : ... .. . ... ... ... : ... .. . ... ... ... : ... .. . ... : ... .. 2 ... : ... .. . ... ... : ... .. . ... ... : ... .. . ... ... : ... .. . ... ...
ROW 75 : F-2 00 F P80 V01 ... : C-3 00 F P80 ... ... : --- .. . ... : ... .. 0 ... : ... .. . ... ... : F#3 01 A ... ... : F#4 01 A ... ... : ... .. . ... ...
ROW 76 : ... .. E ... ... ... : ... .. E ... ... ... : ... .. . ... : ... .. . ... : ... .. . ... ... : ... .. 9 ... ... : ... .. 9 ... ... : ... .. . ... ...
ROW 77 : ... .. D ... ... ... : ... .. D ... ... ... : ... .. . ... : ... .. . ... : ... .. . ... ... : ... .. . ... ... : ... .. . ... ... : ... .. . ... ...
ROW 78 : ... .. 0 ... V00 ... : ... .. 0 ... ... ... : ... .. . ... : ... .. . ... : ... .. . ... ... : --- .. . P7F ... : --- .. . ... ... : ... .. . ... ...
ROW 79 : ... .. . ... ... ... : ... .. . ... ... ... : ... .. . ... : ... .. . ... : ... .. . ... ... : ... .. . ... ... : ... .. . ... ... : ... .. . ... ...
ROW 7A : B-2 00 F P80 V01 ... : F#3 00 F P80 ... ... : F-3 00 . ... : D-# 00 F ... : ... .. . ... ... : D#4 01 A P80 ... : D#5 01 A ... ... : ... .. . ... ...
ROW 7B : ... .. E ... ... ... : ... .. E ... ... ... : ... .. . ... : ... .. C ... : ... .. . ... ... : ... .. 9 ... ... : ... .. 9 ... ... : ... .. . ... ...
ROW 7C : ... .. D ... ... ... : ... .. D ... ... ... : ... .. . ... : ... .. 6 ... : ... .. . ... ... : ... .. . ... ... : ... .. . ... ... : ... .. . ... ...
ROW 7D : ... .. A ... ... ... : ... .. A ... ... ... : --- .. . ... : ... .. 3 ... : ... .. . ... ... : --- .. . ... ... : --- .. . ... ... : ... .. . ... ...
ROW 7E : ... .. . ... ... ... : ... .. . ... ... ... : ... .. . ... : ... .. 2 ... : ... .. . ... ... : ... .. . ... ... : ... .. . ... ... : ... .. . ... ...
ROW 7F : ... .. . ... ... ... : ... .. . ... ... ... : F-3 00 . ... : ... .. F ... : ... .. . ... ... : F#3 01 A ... ... : F#4 01 A ... ... : ... .. . ... ...
ROW 80 : ... .. . ... ... ... : ... .. . ... ... ... : ... .. . ... : ... .. C ... : ... .. . ... ... : ... .. 9 ... ... : ... .. 9 ... ... : ... .. . ... ...
ROW 81 : ... .. . ... ... ... : ... .. . ... ... ... : ... .. . ... : ... .. 6 ... : ... .. . ... ... : ... .. . ... ... : ... .. . ... ... : ... .. . ... ...
ROW 82 : ... .. 0 ... V00 ... : ... .. 0 ... ... ... : --- .. . ... : ... .. 3 ... : ... .. . ... ... : --- .. . P7F ... : --- .. . ... ... : ... .. . ... ...
ROW 83 : ... .. . ... ... ... : ... .. . ... ... ... : ... .. . ... : ... .. 2 ... : ... .. . ... ... : ... .. . ... ... : ... .. . ... ... : ... .. . ... ...
ROW 84 : A#2 00 F P80 V01 ... : F-3 00 F P80 ... ... : F-3 00 . ... : 6-# 00 F ... : ... .. . ... ... : D#4 01 A P80 ... : D#5 01 A ... ... : ... .. . ... ...
ROW 85 : ... .. E ... ... ... : ... .. E ... ... ... : ... .. . ... : ... .. C ... : ... .. . ... ... : ... .. 9 ... ... : ... .. 9 ... ... : ... .. . ... ...
ROW 86 : ... .. D ... ... ... : ... .. D ... ... ... : ... .. . ... : ... .. 6 ... : ... .. . ... ... : ... .. . ... ... : ... .. . ... ... : ... .. . ... ...
ROW 87 : ... .. A ... ... ... : ... .. A ... ... ... : ... .. . ... : ... .. 3 ... : ... .. . ... ... : --- .. . ... ... : --- .. . ... ... : ... .. . ... ...
ROW 88 : ... .. . ... ... ... : ... .. . ... ... ... : ... .. . ... : ... .. 2 ... : ... .. . ... ... : ... .. . ... ... : ... .. . ... ... : ... .. . ... ...
ROW 89 : ... .. . ... ... ... : ... .. . ... ... ... : --- .. . ... : ... .. 0 ... : ... .. . ... ... : F#3 01 A ... ... : F#4 01 A ... ... : ... .. . ... ...
ROW 8A : ... .. . ... ... ... : ... .. . ... ... ... : ... .. . ... : ... .. . ... : ... .. . ... ... : ... .. 9 ... ... : ... .. 9 ... ... : ... .. . ... ...
ROW 8B : ... .. . ... ... ... : ... .. . ... ... ... : ... .. . ... : ... .. . ... : ... .. . ... ... : ... .. . ... ... : ... .. . ... ... : ... .. . ... ...
ROW 8C : ... .. 0 ... V00 ... : ... .. 0 ... ... ... : ... .. . ... : ... .. . ... : ... .. . ... ... : --- .. . P7F ... : --- .. . ... ... : ... .. . ... ...
ROW 8D : ... .. . ... ... ... : ... .. . ... ... ... : ... .. . ... : ... .. . ... : ... .. . ... ... : ... .. . ... ... : ... .. . ... ... : ... .. . ... ...
ROW 8E : G#2 00 F P80 V01 ... : D#3 00 F P80 ... ... : F-3 00 . ... : D-# 00 F ... : ... .. . ... ... : D#4 01 A P80 ... : D#5 01 A ... ... : ... .. . ... ...
ROW 8F : ... .. E ... ... ... : ... .. E ... ... ... : ... .. . ... : ... .. C ... : ... .. . ... ... : ... .. 9 ... ... : ... .. 9 ... ... : ... .. . ... ...
ROW 90 : ... .. D ... ... ... : ... .. D ... ... ... : ... .. . ... : ... .. 6 ... : ... .. . ... ... : ... .. . ... ... : ... .. . ... ... : ... .. . ... ...
ROW 91 : ... .. 0 ... V00 ... : ... .. 0 ... ... ... : --- .. . ... : ... .. 3 ... : ... .. . ... ... : --- .. . ... ... : --- .. . ... ... : ... .. . ... ...
ROW 92 : ... .. . ... ... ... : ... .. . ... ... ... : ... .. . ... : ... .. 2 ... : ... .. . ... ... : ... .. . ... ... : ... .. . ... ... : ... .. . ... ...
ROW 93 : F-2 00 F P80 V01 ... : C-3 00 F P80 ... ... : F-3 00 . ... : ... .. 0 ... : ... .. . ... ... : F#3 01 A ... ... : F#4 01 A ... ... : ... .. . ... ...
ROW 94 : ... .. E ... ... ... : ... .. E ... ... ... : ... .. . ... : ... .. . ... : ... .. . ... ... : ... .. 9 ... ... : ... .. 9 ... ... : ... .. . ... ...
ROW 95 : ... .. D ... ... ... : ... .. D ... ... ... : ... .. . ... : ... .. . ... : ... .. . ... ... : ... .. . ... ... : ... .. . ... ... : ... .. . ... ...
ROW 96 : ... .. A ... ... ... : ... .. A ... ... ... : --- .. . ... : ... .. . ... : ... .. . ... ... : --- .. . P7F ... : --- .. . ... ... : ... .. . ... ...
ROW 97 : ... .. . ... ... ... : ... .. . ... ... ... : ... .. . ... : ... .. . ... : ... .. . ... ... : ... .. . ... ... : ... .. . ... ... : ... .. . ... ...
ROW 98 : ... .. . ... ... ... : ... .. . ... ... ... : F-3 00 . ... : 3-# 00 F ... : ... .. . ... ... : D-4 01 A P80 ... : D-5 01 A ... ... : ... .. . ... ...
ROW 99 : ... .. . ... ... ... : ... .. . ... ... ... : ... .. . ... : ... .. C ... : ... .. . ... ... : ... .. 9 ... ... : ... .. 9 ... ... : ... .. . ... ...
ROW 9A : ... .. . ... ... ... : ... .. . ... ... ... : ... .. . ... : ... .. 6 ... : ... .. . ... ... : ... .. . ... ... : ... .. . ... ... : ... .. . ... ...
ROW 9B : ... .. 0 ... V00 ... : ... .. 0 ... ... ... : ... .. . ... : ... .. 3 ... : ... .. . ... ... : --- .. . ... ... : --- .. . ... ... : ... .. . ... ...
ROW 9C : ... .. . ... ... ... : ... .. . ... ... ... : ... .. . ... : ... .. 2 ... : ... .. . ... ... : ... .. . ... ... : ... .. . ... ... : ... .. . ... ...
ROW 9D : F-4 00 F P80 V01 ... : C-5 00 F P80 ... ... : ... .. . ... : ... .. 0 ... : ... .. . ... ... : F-3 01 A ... ... : F-4 01 A ... ... : ... .. . ... ...
ROW 9E : ... .. E ... ... ... : ... .. E ... ... ... : ... .. . ... : ... .. . ... : ... .. . ... ... : ... .. 9 ... ... : ... .. 9 ... ... : ... .. . ... ...
ROW 9F : ... .. D ... ... ... : ... .. D ... ... ... : ... .. . ... : ... .. . ... : ... .. . ... ... : ... .. . ... ... : ... .. . ... ... : ... .. . ... ...
ROW A0 : ... .. 0 ... V00 ... : ... .. 0 ... ... ... : ... .. . ... : ... .. . ... : ... .. . ... ... : --- .. . ... ... : --- .. . ... ... : ... .. . ... ...
ROW A1 : ... .. . ... ... ... : ... .. . ... ... ... : ... .. . ... : ... .. . ... : ... .. . ... ... : ... .. . ... ... : ... .. . ... ... : ... .. . ... ...
ROW A2 : E-4 00 F P80 V01 ... : B-4 00 F P80 ... ... : C-4 00 . ... : ... .. . ... : ... .. . ... ... : D-4 01 A ... ... : D-5 01 A ... ... : ... .. . ... ...
ROW A3 : ... .. E ... ... ... : ... .. E ... ... ... : C#4 00 . P83 : ... .. . ... : ... .. . ... ... : ... .. 9 ... ... : ... .. 9 ... ... : ... .. . ... ...
ROW A4 : ... .. D ... ... ... : ... .. D ... ... ... : D#4 00 . P7C : ... .. . ... : ... .. . ... ... : ... .. . ... ... : ... .. . ... ... : ... .. . ... ...
ROW A5 : ... .. 0 ... V00 ... : ... .. 0 ... ... ... : E-4 00 . P81 : ... .. . ... : ... .. . ... ... : --- .. . ... ... : --- .. . ... ... : ... .. . ... ...
ROW A6 : ... .. . ... ... ... : ... .. . ... ... ... : F#4 00 . P7D : ... .. . ... : ... .. . ... ... : ... .. . ... ... : ... .. . ... ... : ... .. . ... ...
ROW A7 : D#4 00 F P80 V01 ... : A#4 00 F P80 ... ... : G-4 00 . P84 : ... .. . ... : ... .. . ... ... : F-3 01 A ... ... : F-4 01 A ... ... : ... .. . ... ...
ROW A8 : ... .. E ... ... ... : ... .. E ... ... ... : G#4 00 . P80 : ... .. . ... : ... .. . ... ... : ... .. 9 ... ... : ... .. 9 ... ... : ... .. . ... ...
ROW A9 : ... .. D ... ... ... : ... .. D ... ... ... : ... .. . ... : ... .. . ... : ... .. . ... ... : ... .. . ... ... : ... .. . ... ... : ... .. . ... ...
ROW AA : ... .. 0 ... V00 ... : ... .. 0 ... ... ... : ... .. . ... : ... .. . ... : ... .. . ... ... : --- .. . ... ... : --- .. . ... ... : ... .. . ... ...
ROW AB : ... .. . ... ... ... : ... .. . ... ... ... : ... .. . ... : ... .. . ... : ... .. . ... ... : ... .. . ... ... : ... .. . ... ... : ... .. . ... ...
ROW AC : D-4 00 F P80 V01 ... : A-4 00 F P80 ... ... : B-1 00 . ... : ... .. . ... : ... .. . ... ... : D-4 01 A ... ... : D-5 01 A ... ... : ... .. . ... ...
ROW AD : ... .. E ... ... ... : ... .. E ... ... ... : ... .. . ... : ... .. . ... : ... .. . ... ... : ... .. 9 ... ... : ... .. 9 ... ... : ... .. . ... ...
ROW AE : ... .. D ... ... ... : ... .. D ... ... ... : ... .. . ... : ... .. . ... : ... .. . ... ... : ... .. . ... ... : ... .. . ... ... : ... .. . ... ...
ROW AF : ... .. 0 ... V00 ... : ... .. 0 ... ... ... : ... .. . ... : ... .. . ... : ... .. . ... ... : --- .. . ... ... : --- .. . ... ... : ... .. . ... ...
ROW B0 : ... .. . ... ... ... : ... .. . ... ... ... : ... .. . ... : ... .. . ... : ... .. . ... ... : ... .. . ... ... : ... .. . ... ... : ... .. . ... ...
ROW B1 : C#4 00 F P80 V01 ... : G#4 00 F P80 ... ... : ... .. . ... : ... .. . ... : ... .. . ... ... : F-3 01 A ... ... : F-4 01 A ... ... : ... .. . ... ...
ROW B2 : ... .. E ... ... ... : ... .. E ... ... ... : ... .. . P8F : ... .. . ... : ... .. . ... ... : ... .. 9 ... ... : ... .. 9 ... ... : ... .. . ... ...
ROW B3 : ... .. D ... ... ... : ... .. D ... ... ... : C-2 00 . P6B : ... .. . ... : ... .. . ... ... : ... .. . ... ... : ... .. . ... ... : ... .. . ... ...
ROW B4 : ... .. 0 ... V00 ... : ... .. 0 ... ... ... : ... .. . P7A : ... .. . ... : ... .. . ... ... : --- .. . ... ... : --- .. . ... ... : ... .. . ... ...
ROW B5 : ... .. . ... ... ... : ... .. . ... ... ... : ... .. . P89 : ... .. . ... : ... .. . ... ... : ... .. . ... ... : ... .. . ... ... : ... .. . ... ...
ROW B6 : C-4 00 F P80 V01 ... : G-4 00 F P80 ... ... : ... .. . P98 : ... .. . ... : ... .. . ... ... : D-4 01 A ... ... : D-5 01 A ... ... : ... .. . ... ...
ROW B7 : ... .. E ... ... ... : ... .. E ... ... ... : C#2 00 . P77 : ... .. . ... : ... .. . ... ... : ... .. 9 ... ... : ... .. 9 ... ... : ... .. . ... ...
ROW B8 : ... .. D ... ... ... : ... .. D ... ... ... : ... .. . P86 : ... .. . ... : ... .. . ... ... : ... .. . ... ... : ... .. . ... ... : ... .. . ... ...
ROW B9 : ... .. 0 ... V00 ... : ... .. 0 ... ... ... : ... .. . P95 : ... .. . ... : ... .. . ... ... : --- .. . ... ... : --- .. . ... ... : ... .. . ... ...
ROW BA : ... .. . ... ... ... : ... .. . ... ... ... : D-2 00 . P77 : ... .. . ... : ... .. . ... ... : ... .. . ... ... : ... .. . ... ... : ... .. . ... ...
ROW BB : B-3 00 F P80 V01 ... : F#4 00 F P80 ... ... : ... .. . P86 : ... .. . ... : ... .. . ... ... : F-3 01 A ... ... : F-4 01 A ... ... : ... .. . ... ...
ROW BC : ... .. E ... ... ... : ... .. E ... ... ... : ... .. . P95 : ... .. . ... : ... .. . ... ... : ... .. 9 ... ... : ... .. 9 ... ... : ... .. . ... ...
ROW BD : ... .. D ... ... ... : ... .. D ... ... ... : D#2 00 . P79 : ... .. . ... : ... .. . ... ... : ... .. . ... ... : ... .. . ... ... : ... .. . ... ...
ROW BE : ... .. 0 ... V00 ... : ... .. 0 ... ... ... : ... .. . P88 : ... .. . ... : ... .. . ... ... : --- .. . ... ... : --- .. . ... ... : ... .. . ... ...
ROW BF : ... .. . ... ... ... : ... .. . ... ... ... : E-2 00 . P6F : ... .. . ... : ... .. . ... ... : ... .. . ... ... : ... .. . ... ... : ... .. . ... ...
ROW C0 : F-2 00 F P80 V01 ... : C-3 00 F P80 ... ... : F-2 00 . P80 : ... .. F ... : ... .. . ... ... : F-4 01 A ... ... : F-5 01 A ... ... : ... .. . ... ...
ROW C1 : ... .. E ... ... ... : ... .. E ... ... ... : ... .. . ... : ... .. C ... : ... .. . ... ... : ... .. 9 ... ... : ... .. 9 ... ... : ... .. . ... ...
ROW C2 : ... .. D ... ... ... : ... .. D ... ... ... : ... .. . ... : ... .. 6 ... : ... .. . ... ... : ... .. . ... ... : ... .. . ... ... : ... .. . ... ...
ROW C3 : ... .. 0 ... V00 ... : ... .. 0 ... ... ... : ... .. . ... : ... .. 3 ... : ... .. . ... ... : --- .. . ... ... : --- .. . ... ... : ... .. . ... ...
ROW C4 : ... .. . ... ... ... : ... .. . ... ... ... : ... .. . ... : ... .. 2 ... : ... .. . ... ... : ... .. . ... ... : ... .. . ... ... : ... .. . ... ...
ROW C5 : F-2 00 F P80 V01 ... : C-3 00 F P80 ... ... : --- .. . ... : ... .. 0 ... : ... .. . ... ... : G#3 01 A ... ... : G#4 01 A ... ... : ... .. . ... ...
ROW C6 : ... .. E ... ... ... : ... .. E ... ... ... : ... .. . ... : ... .. . ... : ... .. . ... ... : ... .. 9 ... ... : ... .. 9 ... ... : ... .. . ... ...
ROW C7 : ... .. D ... ... ... : ... .. D ... ... ... : ... .. . ... : ... .. . ... : ... .. . ... ... : ... .. . ... ... : ... .. . ... ... : ... .. . ... ...
ROW C8 : ... .. 0 ... V00 ... : ... .. 0 ... ... ... : ... .. . ... : ... .. . ... : ... .. . ... ... : --- .. . P82 ... : --- .. . ... ... : ... .. . ... ...
ROW C9 : ... .. . ... ... ... : ... .. . ... ... ... : ... .. . ... : ... .. . ... : ... .. . ... ... : ... .. . ... ... : ... .. . ... ... : ... .. . ... ...
ROW CA : B-2 00 F P80 V01 ... : F#3 00 F P80 ... ... : F-2 00 . ... : D-# 00 F ... : ... .. . ... ... : F-4 01 A P80 ... : F-5 01 A ... ... : ... .. . ... ...
ROW CB : ... .. E ... ... ... : ... .. E ... ... ... : ... .. . ... : ... .. C ... : ... .. . ... ... : ... .. 9 ... ... : ... .. 9 ... ... : ... .. . ... ...
ROW CC : ... .. D ... ... ... : ... .. D ... ... ... : ... .. . ... : ... .. 6 ... : ... .. . ... ... : ... .. . ... ... : ... .. . ... ... : ... .. . ... ...
ROW CD : ... .. A ... ... ... : ... .. A ... ... ... : --- .. . ... : ... .. 3 ... : ... .. . ... ... : --- .. . ... ... : --- .. . ... ... : ... .. . ... ...
ROW CE : ... .. . ... ... ... : ... .. . ... ... ... : ... .. . ... : ... .. 2 ... : ... .. . ... ... : ... .. . ... ... : ... .. . ... ... : ... .. . ... ...
ROW CF : ... .. . ... ... ... : ... .. . ... ... ... : F-2 00 . ... : ... .. F ... : ... .. . ... ... : G#3 01 A ... ... : G#4 01 A ... ... : ... .. . ... ...
ROW D0 : ... .. . ... ... ... : ... .. . ... ... ... : ... .. . ... : ... .. C ... : ... .. . ... ... : ... .. 9 ... ... : ... .. 9 ... ... : ... .. . ... ...
ROW D1 : ... .. . ... ... ... : ... .. . ... ... ... : ... .. . ... : ... .. 6 ... : ... .. . ... ... : ... .. . ... ... : ... .. . ... ... : ... .. . ... ...
ROW D2 : ... .. 0 ... V00 ... : ... .. 0 ... ... ... : --- .. . ... : ... .. 3 ... : ... .. . ... ... : --- .. . P82 ... : --- .. . ... ... : ... .. . ... ...
ROW D3 : ... .. . ... ... ... : ... .. . ... ... ... : ... .. . ... : ... .. 2 ... : ... .. . ... ... : ... .. . ... ... : ... .. . ... ... : ... .. . ... ...
ROW D4 : A#2 00 F P80 V01 ... : F-3 00 F P80 ... ... : F-2 00 . ... : 6-# 00 F ... : ... .. . ... ... : F-4 01 A P80 ... : F-5 01 A ... ... : ... .. . ... ...
ROW D5 : ... .. E ... ... ... : ... .. E ... ... ... : ... .. . ... : ... .. C ... : ... .. . ... ... : ... .. 9 ... ... : ... .. 9 ... ... : ... .. . ... ...
ROW D6 : ... .. D ... ... ... : ... .. D ... ... ... : ... .. . ... : ... .. 6 ... : ... .. . ... ... : ... .. . ... ... : ... .. . ... ... : ... .. . ... ...
ROW D7 : ... .. A ... ... ... : ... .. A ... ... ... : ... .. . ... : ... .. 3 ... : ... .. . ... ... : --- .. . ... ... : --- .. . ... ... : ... .. . ... ...
ROW D8 : ... .. . ... ... ... : ... .. . ... ... ... : ... .. . ... : ... .. 2 ... : ... .. . ... ... : ... .. . ... ... : ... .. . ... ... : ... .. . ... ...
ROW D9 : ... .. . ... ... ... : ... .. . ... ... ... : --- .. . ... : ... .. 0 ... : ... .. . ... ... : G#3 01 A ... ... : G#4 01 A ... ... : ... .. . ... ...
ROW DA : ... .. . ... ... ... : ... .. . ... ... ... : ... .. . ... : ... .. . ... : ... .. . ... ... : ... .. 9 ... ... : ... .. 9 ... ... : ... .. . ... ...
ROW DB : ... .. . ... ... ... : ... .. . ... ... ... : ... .. . ... : ... .. . ... : ... .. . ... ... : ... .. . ... ... : ... .. . ... ... : ... .. . ... ...
ROW DC : ... .. 0 ... V00 ... : ... .. 0 ... ... ... : ... .. . ... : ... .. . ... : ... .. . ... ... : --- .. . P82 ... : --- .. . ... ... : ... .. . ... ...
ROW DD : ... .. . ... ... ... : ... .. . ... ... ... : ... .. . ... : ... .. . ... : ... .. . ... ... : ... .. . ... ... : ... .. . ... ... : ... .. . ... ...
ROW DE : G#2 00 F P80 V01 ... : D#3 00 F P80 ... ... : F-2 00 . ... : D-# 00 F ... : ... .. . ... ... : F-4 01 A P80 ... : F-5 01 A ... ... : ... .. . ... ...
ROW DF : ... .. E ... ... ... : ... .. E ... ... ... : ... .. . ... : ... .. C ... : ... .. . ... ... : ... .. 9 ... ... : ... .. 9 ... ... : ... .. . ... ...
ROW E0 : ... .. D ... ... ... : ... .. D ... ... ... : ... .. . ... : ... .. 6 ... : ... .. . ... ... : ... .. . ... ... : ... .. . ... ... : ... .. . ... ...
ROW E1 : ... .. 0 ... V00 ... : ... .. 0 ... ... ... : --- .. . ... : ... .. 3 ... : ... .. . ... ... : --- .. . ... ... : --- .. . ... ... : ... .. . ... ...
ROW E2 : ... .. . ... ... ... : ... .. . ... ... ... : ... .. . ... : ... .. 2 ... : ... .. . ... ... : ... .. . ... ... : ... .. . ... ... : ... .. . ... ...
ROW E3 : F-2 00 F P80 V01 ... : C-3 00 F P80 ... ... : F-2 00 . ... : ... .. F ... : ... .. . ... ... : G#3 01 A ... ... : G#4 01 A ... ... : ... .. . ... ...
ROW E4 : ... .. E ... ... ... : ... .. E ... ... ... : ... .. . ... : ... .. C ... : ... .. . ... ... : ... .. 9 ... ... : ... .. 9 ... ... : ... .. . ... ...
ROW E5 : ... .. D ... ... ... : ... .. D ... ... ... : ... .. . ... : ... .. 6 ... : ... .. . ... ... : ... .. . ... ... : ... .. . ... ... : ... .. . ... ...
ROW E6 : ... .. A ... ... ... : ... .. A ... ... ... : --- .. . ... : ... .. 3 ... : ... .. . ... ... : --- .. . P82 ... : --- .. . ... ... : ... .. . ... ...
ROW E7 : ... .. . ... ... ... : ... .. . ... ... ... : ... .. . ... : ... .. 2 ... : ... .. . ... ... : ... .. . ... ... : ... .. . ... ... : ... .. . ... ...
ROW E8 : ... .. . ... ... ... : ... .. . ... ... ... : F-2 00 . ... : 3-# 00 F ... : ... .. . ... ... : E-4 01 A P80 ... : E-5 01 A ... ... : ... .. . ... ...
ROW E9 : ... .. . ... ... ... : ... .. . ... ... ... : ... .. . ... : ... .. C ... : ... .. . ... ... : ... .. 9 ... ... : ... .. 9 ... ... : ... .. . ... ...
ROW EA : ... .. . ... ... ... : ... .. . ... ... ... : ... .. . ... : ... .. 6 ... : ... .. . ... ... : ... .. . ... ... : ... .. . ... ... : ... .. . ... ...
ROW EB : ... .. 0 ... V00 ... : ... .. 0 ... ... ... : ... .. . ... : ... .. 3 ... : ... .. . ... ... : --- .. . ... ... : --- .. . ... ... : ... .. . ... ...
ROW EC : ... .. . ... ... ... : ... .. . ... ... ... : ... .. . ... : ... .. 2 ... : ... .. . ... ... : ... .. . ... ... : ... .. . ... ... : ... .. . ... ...
ROW ED : F-2 00 F P80 V01 ... : C-3 00 F P80 ... ... : --- .. . ... : ... .. 0 ... : ... .. . ... ... : G-3 01 A ... ... : G-4 01 A ... ... : ... .. . ... ...
ROW EE : ... .. E ... ... ... : ... .. E ... ... ... : ... .. . ... : ... .. . ... : ... .. . ... ... : ... .. 9 ... ... : ... .. 9 ... ... : ... .. . ... ...
ROW EF : ... .. D ... ... ... : ... .. D ... ... ... : ... .. . ... : ... .. . ... : ... .. . ... ... : ... .. . ... ... : ... .. . ... ... : ... .. . ... ...
ROW F0 : ... .. 0 ... V00 ... : ... .. 0 ... ... ... : ... .. . ... : ... .. . ... : ... .. . ... ... : --- .. . P81 ... : --- .. . ... ... : ... .. . ... ...
ROW F1 : ... .. . ... ... ... : ... .. . ... ... ... : ... .. . ... : ... .. . ... : ... .. . ... ... : ... .. . ... ... : ... .. . ... ... : ... .. . ... ...
ROW F2 : B-2 00 F P80 V01 ... : F#3 00 F P80 ... ... : F-2 00 . ... : D-# 00 F ... : ... .. . ... ... : E-4 01 A P80 ... : E-5 01 A ... ... : ... .. . ... ...
ROW F3 : ... .. E ... ... ... : ... .. E ... ... ... : ... .. . ... : ... .. C ... : ... .. . ... ... : ... .. 9 ... ... : ... .. 9 ... ... : ... .. . ... ...
ROW F4 : ... .. D ... ... ... : ... .. D ... ... ... : ... .. . ... : ... .. 6 ... : ... .. . ... ... : ... .. . ... ... : ... .. . ... ... : ... .. . ... ...
ROW F5 : ... .. A ... ... ... : ... .. A ... ... ... : --- .. . ... : ... .. 3 ... : ... .. . ... ... : --- .. . ... ... : --- .. . ... ... : ... .. . ... ...
ROW F6 : ... .. . ... ... ... : ... .. . ... ... ... : ... .. . ... : ... .. 2 ... : ... .. . ... ... : ... .. . ... ... : ... .. . ... ... : ... .. . ... ...
ROW F7 : ... .. . ... ... ... : ... .. . ... ... ... : F-2 00 . ... : ... .. F ... : ... .. . ... ... : G-3 01 A ... ... : G-4 01 A ... ... : ... .. . ... ...
ROW F8 : ... .. . ... ... ... : ... .. . ... ... ... : ... .. . ... : ... .. C ... : ... .. . ... ... : ... .. 9 ... ... : ... .. 9 ... ... : ... .. . ... ...
ROW F9 : ... .. . ... ... ... : ... .. . ... ... ... : ... .. . ... : ... .. 6 ... : ... .. . ... ... : ... .. . ... ... : ... .. . ... ... : ... .. . ... ...
ROW FA : ... .. 0 ... V00 ... : ... .. 0 ... ... ... : --- .. . ... : ... .. 3 ... : ... .. . ... ... : --- .. . P81 ... : --- .. . ... ... : ... .. . ... ...
ROW FB : ... .. . ... ... ... : ... .. . ... ... ... : ... .. . ... : ... .. 2 ... : ... .. . ... ... : ... .. . ... ... : ... .. . ... ... : ... .. . ... ...
ROW FC : A#2 00 F P80 V01 ... : F-3 00 F P80 ... ... : F-2 00 . ... : 6-# 00 F ... : ... .. . ... ... : E-4 01 A P80 ... : E-5 01 A ... ... : ... .. . ... ...
ROW FD : ... .. E ... ... ... : ... .. E ... ... ... : ... .. . ... : ... .. C ... : ... .. . ... ... : ... .. 9 ... ... : ... .. 9 ... ... : ... .. . ... ...
ROW FE : ... .. D ... ... ... : ... .. D ... ... ... : ... .. . ... : ... .. 6 ... : ... .. . ... ... : ... .. . ... ... : ... .. . ... ... : ... .. . ... ...
ROW FF : ... .. A ... ... ... : ... .. A ... ... ... : --- .. . ... : ... .. 3 ... : ... .. . ... ... : --- .. . ... ... : --- .. . ... ... : ... .. . ... ...

PATTERN 0E
ROW 00 : ... .. . ... ... ... : ... .. . ... ... ... : ... .. . ... : ... .. 2 ... : ... .. . ... ... : ... .. . ... ... : ... .. . ... ... : ... .. . ... ...
ROW 01 : ... .. . ... ... ... : ... .. . ... ... ... : F-2 00 . ... : ... .. 0 ... : ... .. . ... ... : G-3 01 A ... ... : G-4 01 A ... ... : ... .. . ... ...
ROW 02 : ... .. . ... ... ... : ... .. . ... ... ... : ... .. . ... : ... .. . ... : ... .. . ... ... : ... .. 9 ... ... : ... .. 9 ... ... : ... .. . ... ...
ROW 03 : ... .. . ... ... ... : ... .. . ... ... ... : ... .. . ... : ... .. . ... : ... .. . ... ... : ... .. . ... ... : ... .. . ... ... : ... .. . ... ...
ROW 04 : ... .. 0 ... V00 ... : ... .. 0 ... ... ... : --- .. . ... : ... .. . ... : ... .. . ... ... : --- .. . P81 ... : --- .. . ... ... : ... .. . ... ...
ROW 05 : ... .. . ... ... ... : ... .. . ... ... ... : ... .. . ... : ... .. . ... : ... .. . ... ... : ... .. . ... ... : ... .. . ... ... : ... .. . ... ...
ROW 06 : G#2 00 F P80 V01 ... : D#3 00 F P80 ... ... : F-2 00 . ... : D-# 00 F ... : ... .. . ... ... : E-4 01 A P80 ... : E-5 01 A ... ... : ... .. . ... ...
ROW 07 : ... .. E ... ... ... : ... .. E ... ... ... : ... .. . ... : ... .. C ... : ... .. . ... ... : ... .. 9 ... ... : ... .. 9 ... ... : ... .. . ... ...
ROW 08 : ... .. D ... ... ... : ... .. D ... ... ... : ... .. . ... : ... .. 6 ... : ... .. . ... ... : ... .. . ... ... : ... .. . ... ... : ... .. . ... ...
ROW 09 : ... .. A ... ... ... : ... .. A ... ... ... : --- .. . ... : ... .. 3 ... : ... .. . ... ... : --- .. . ... ... : --- .. . ... ... : ... .. . ... ...
ROW 0A : ... .. . ... ... ... : ... .. . ... ... ... : ... .. . ... : ... .. 2 ... : ... .. . ... ... : ... .. . ... ... : ... .. . ... ... : ... .. . ... ...
ROW 0B : ... .. . ... ... ... : ... .. . ... ... ... : F-2 00 . ... : ... .. 0 ... : ... .. . ... ... : G-3 01 A ... ... : G-4 01 A ... ... : ... .. . ... ...
ROW 0C : ... .. . ... ... ... : ... .. . ... ... ... : ... .. . ... : ... .. . ... : ... .. . ... ... : ... .. 9 ... ... : ... .. 9 ... ... : ... .. . ... ...
ROW 0D : ... .. . ... ... ... : ... .. . ... ... ... : ... .. . ... : ... .. . ... : ... .. . ... ... : ... .. . ... ... : ... .. . ... ... : ... .. . ... ...
ROW 0E : ... .. 0 ... V00 ... : ... .. 0 ... ... ... : --- .. . ... : ... .. . ... : ... .. . ... ... : --- .. . P81 ... : --- .. . ... ... : ... .. . ... ...
ROW 0F : ... .. . ... ... ... : ... .. . ... ... ... : ... .. . ... : ... .. . ... : ... .. . ... ... : ... .. . ... ... : ... .. . ... ... : ... .. . ... ...
ROW 10 : F-2 00 F P80 V01 ... : C-3 00 F P80 ... ... : F-2 00 . ... : 3-# 00 F ... : ... .. . ... ... : D#4 01 A P80 ... : D#5 01 A ... ... : ... .. . ... ...
ROW 11 : ... .. E ... ... ... : ... .. E ... ... ... : ... .. . ... : ... .. C ... : ... .. . ... ... : ... .. 9 ... ... : ... .. 9 ... ... : ... .. . ... ...
ROW 12 : ... .. D ... ... ... : ... .. D ... ... ... : ... .. . ... : ... .. 6 ... : ... .. . ... ... : ... .. . ... ... : ... .. . ... ... : ... .. . ... ...
ROW 13 : ... .. 0 ... V00 ... : ... .. 0 ... ... ... : ... .. . ... : ... .. 3 ... : ... .. . ... ... : --- .. . ... ... : --- .. . ... ... : ... .. . ... ...
ROW 14 : ... .. . ... ... ... : ... .. . ... ... ... : ... .. . ... : ... .. 2 ... : ... .. . ... ... : ... .. . ... ... : ... .. . ... ... : ... .. . ... ...
ROW 15 : F-2 00 F P80 V01 ... : C-3 00 F P80 ... ... : ... .. . ... : ... .. 0 ... : ... .. . ... ... : F#3 01 A ... ... : F#4 01 A ... ... : ... .. . ... ...
ROW 16 : ... .. E ... ... ... : ... .. E ... ... ... : ... .. . ... : ... .. . ... : ... .. . ... ... : ... .. 9 ... ... : ... .. 9 ... ... : ... .. . ... ...
ROW 17 : ... .. D ... ... ... : ... .. D ... ... ... : ... .. . ... : ... .. . ... : ... .. . ... ... : ... .. . ... ... : ... .. . ... ... : ... .. . ... ...
ROW 18 : ... .. 0 ... V00 ... : ... .. 0 ... ... ... : ... .. . ... : ... .. . ... : ... .. . ... ... : --- .. . P7F ... : --- .. . ... ... : ... .. . ... ...
ROW 19 : ... .. . ... ... ... : ... .. . ... ... ... : ... .. . ... : ... .. . ... : ... .. . ... ... : ... .. . ... ... : ... .. . ... ... : ... .. . ... ...
ROW 1A : A#2 00 F P80 V01 ... : F-3 00 F P80 ... ... : A#2 00 . ... : D-# 00 F ... : ... .. . ... ... : A#3 01 A P80 ... : A#4 01 A ... ... : ... .. . ... ...
ROW 1B : ... .. E ... ... ... : ... .. E ... ... ... : ... .. . ... : ... .. C ... : ... .. . ... ... : ... .. 9 ... ... : ... .. 9 ... ... : ... .. . ... ...
ROW 1C : ... .. D ... ... ... : ... .. D ... ... ... : ... .. . ... : ... .. 6 ... : ... .. . ... ... : ... .. . ... ... : ... .. . ... ... : ... .. . ... ...
ROW 1D : ... .. 0 ... V00 ... : ... .. 0 ... ... ... : --- .. . ... : ... .. 3 ... : ... .. . ... ... : --- .. . ... ... : --- .. . ... ... : ... .. . ... ...
ROW 1E : ... .. . ... ... ... : ... .. . ... ... ... : ... .. . ... : ... .. 2 ... : ... .. . ... ... : ... .. . ... ... : ... .. . ... ... : ... .. . ... ...
ROW 1F : B-2 00 F P80 V01 ... : F#3 00 F P80 ... ... : B-2 00 . ... : ... .. F ... : ... .. . ... ... : B-3 01 A ... ... : B-4 01 A ... ... : ... .. . ... ...
ROW 20 : ... .. E ... ... ... : ... .. E ... ... ... : ... .. . ... : ... .. C ... : ... .. . ... ... : ... .. 9 ... ... : ... .. 9 ... ... : ... .. . ... ...
ROW 21 : ... .. D ... ... ... : ... .. D ... ... ... : ... .. . ... : ... .. 6 ... : ... .. . ... ... : ... .. . ... ... : ... .. . ... ... : ... .. . ... ...
ROW 22 : ... .. 0 ... V00 ... : ... .. 0 ... ... ... : --- .. . ... : ... .. 3 ... : ... .. . ... ... : --- .. . ... ... : --- .. . ... ... : ... .. . ... ...
ROW 23 : ... .. . ... ... ... : ... .. . ... ... ... : ... .. . ... : ... .. 2 ... : ... .. . ... ... : ... .. . ... ... : ... .. . ... ... : ... .. . ... ...
ROW 24 : C-3 00 F P80 V01 ... : G-3 00 F P80 ... ... : C-3 00 . ... : 6-# 00 F ... : ... .. . ... ... : C-4 01 A ... ... : C-5 01 A ... ... : ... .. . ... ...
ROW 25 : ... .. E ... ... ... : ... .. E ... ... ... : ... .. . ... : ... .. C ... : ... .. . ... ... : ... .. 9 ... ... : ... .. 9 ... ... : ... .. . ... ...
ROW 26 : ... .. D ... ... ... : ... .. D ... ... ... : ... .. . ... : ... .. 6 ... : ... .. . ... ... : ... .. . ... ... : ... .. . ... ... : ... .. . ... ...
ROW 27 : ... .. A ... ... ... : ... .. A ... ... ... : ... .. . ... : ... .. 3 ... : ... .. . ... ... : --- .. . ... ... : --- .. . ... ... : ... .. . ... ...
ROW 28 : ... .. . ... ... ... : ... .. . ... ... ... : ... .. . ... : ... .. 2 ... : ... .. . ... ... : ... .. . ... ... : ... .. . ... ... : ... .. . ... ...
ROW 29 : D#3 00 F ... ... ... : A#3 00 F ... ... ... : D#3 00 . ... : ... .. 0 ... : ... .. . ... ... : D#4 01 A ... ... : D#5 01 A ... ... : ... .. . ... ...
ROW 2A : ... .. E ... ... ... : ... .. E ... ... ... : ... .. . ... : ... .. . ... : ... .. . ... ... : ... .. 9 ... ... : ... .. 9 ... ... : ... .. . ... ...
ROW 2B : ... .. D ... ... ... : ... .. D ... ... ... : ... .. . ... : ... .. . ... : ... .. . ... ... : ... .. . ... ... : ... .. . ... ... : ... .. . ... ...
ROW 2C : ... .. 0 ... V00 ... : ... .. 0 ... ... ... : ... .. . ... : ... .. . ... : ... .. . ... ... : --- .. . ... ... : --- .. . ... ... : ... .. . ... ...
ROW 2D : ... .. . ... ... ... : ... .. . ... ... ... : ... .. . ... : ... .. . ... : ... .. . ... ... : ... .. . ... ... : ... .. . ... ... : ... .. . ... ...
ROW 2E : C-3 00 F P80 V01 ... : G-3 00 F P80 ... ... : C-3 00 . ... : D-# 00 F ... : ... .. . ... ... : C-4 01 A ... ... : C-5 01 A ... ... : ... .. . ... ...
ROW 2F : ... .. E ... ... ... : ... .. E ... ... ... : ... .. . ... : ... .. C ... : ... .. . ... ... : ... .. 9 ... ... : ... .. 9 ... ... : ... .. . ... ...
ROW 30 : ... .. D ... ... ... : ... .. D ... ... ... : ... .. . ... : ... .. 6 ... : ... .. . ... ... : ... .. . ... ... : ... .. . ... ... : ... .. . ... ...
ROW 31 : ... .. 0 ... V00 ... : ... .. 0 ... ... ... : --- .. . ... : ... .. 3 ... : ... .. . ... ... : --- .. . ... ... : --- .. . ... ... : ... .. . ... ...
ROW 32 : ... .. . ... ... ... : ... .. . ... ... ... : ... .. . ... : ... .. 2 ... : ... .. . ... ... : ... .. . ... ... : ... .. . ... ... : ... .. . ... ...
ROW 33 : F-3 00 F P80 V01 ... : C-4 00 F P80 ... ... : F-3 00 . ... : ... .. 0 ... : ... .. . ... ... : F-4 01 A ... ... : F-5 01 A ... ... : ... .. . ... ...
ROW 34 : ... .. E ... ... ... : ... .. E ... ... ... : ... .. . ... : ... .. . ... : ... .. . ... ... : ... .. 9 ... ... : ... .. 9 ... ... : ... .. . ... ...
ROW 35 : ... .. D ... ... ... : ... .. D ... ... ... : ... .. . ... : ... .. . ... : ... .. . ... ... : ... .. . ... ... : ... .. . ... ... : ... .. . ... ...
ROW 36 : ... .. A ... ... ... : ... .. A ... ... ... : ... .. . ... : ... .. . ... : ... .. . ... ... : --- .. . ... ... : --- .. . ... ... : ... .. . ... ...
ROW 37 : ... .. . ... ... ... : ... .. . ... ... ... : ... .. . ... : ... .. . ... : ... .. . ... ... : ... .. . ... ... : ... .. . ... ... : ... .. . ... ...
ROW 38 : A-3 00 4 ... ... ... : E-4 00 4 ... ... ... : ... .. . ... : 3-# 00 F ... : ... .. . ... ... : G#4 01 A ... ... : G#5 01 A ... ... : ... .. . ... ...
ROW 39 : C-3 00 3 ... ... ... : G-3 00 3 ... ... ... : ... .. . ... : ... .. C ... : ... .. . ... ... : ... .. 9 ... ... : ... .. 9 ... ... : ... .. . ... ...
ROW 3A : G-3 00 3 ... ... ... : D-4 00 3 ... ... ... : ... .. . ... : ... .. 6 ... : ... .. . ... ... : ... .. . ... ... : ... .. . ... ... : ... .. . ... ...
ROW 3B : ... .. 0 ... V00 ... : ... .. 0 ... ... ... : ... .. . ... : ... .. 3 ... : ... .. . ... ... : --- .. . ... ... : --- .. . ... ... : ... .. . ... ...
ROW 3C : ... .. . ... ... ... : ... .. . ... ... ... : ... .. . ... : ... .. 2 ... : ... .. . ... ... : ... .. . ... ... : ... .. . ... ... : ... .. . ... ...
ROW 3D : G#3 00 4 P80 V01 ... : D#4 00 4 P80 ... ... : ... .. . ... : ... .. 0 ... : ... .. . ... ... : G-4 01 A ... ... : G-5 01 A ... ... : ... .. . ... ...
ROW 3E : A#3 00 3 ... ... ... : F-4 00 3 ... ... ... : ... .. . ... : ... .. . ... : ... .. . ... ... : ... .. 9 ... ... : ... .. 9 ... ... : ... .. . ... ...
ROW 3F : C#3 00 3 ... ... ... : G#3 00 3 ... ... ... : ... .. . ... : ... .. . ... : ... .. . ... ... : ... .. . ... ... : ... .. . ... ... : ... .. . ... ...
ROW 40 : ... .. 0 ... V00 ... : ... .. 0 ... ... ... : ... .. . ... : ... .. . ... : ... .. . ... ... : --- .. . ... ... : --- .. . ... ... : ... .. . ... ...
ROW 41 : ... .. . ... ... ... : ... .. . ... ... ... : ... .. . ... : ... .. . ... : ... .. . ... ... : ... .. . ... ... : ... .. . ... ... : ... .. . ... ...
ROW 42 : D-3 00 5 P80 V01 ... : A-3 00 5 P80 ... ... : E-3 00 . P83 : ... .. . ... : ... .. . ... ... : F#4 01 A ... ... : F#5 01 A ... ... : ... .. . ... ...
ROW 43 : A-3 00 4 ... ... ... : E-4 00 4 ... ... ... : D#3 00 . P88 : ... .. . ... : ... .. . ... ... : ... .. 9 ... ... : ... .. 9 ... ... : ... .. . ... ...
ROW 44 : B-3 00 4 ... ... ... : F#4 00 4 ... ... ... : ... .. . P78 : ... .. . ... : ... .. . ... ... : ... .. . ... ... : ... .. . ... ... : ... .. . ... ...
ROW 45 : ... .. 0 ... V00 ... : ... .. 0 ... ... ... : D-3 00 . P7D : ... .. . ... : ... .. . ... ... : --- .. . ... ... : --- .. . ... ... : ... .. . ... ...
ROW 46 : ... .. . ... ... ... : ... .. . ... ... ... : C#3 00 . P84 : ... .. . ... : ... .. . ... ... : ... .. . ... ... : ... .. . ... ... : ... .. . ... ...
ROW 47 : C-4 00 6 P80 V01 ... : G-4 00 6 P80 ... ... : C-3 00 . P8C : ... .. . ... : ... .. . ... ... : F-4 01 A ... ... : F-5 01 A ... ... : ... .. . ... ...
ROW 48 : D#3 00 5 ... ... ... : A#3 00 5 ... ... ... : ... .. . P7C : ... .. . ... : ... .. . ... ... : ... .. 9 ... ... : ... .. 9 ... ... : ... .. . ... ...
ROW 49 : A#3 00 5 ... ... ... : F-4 00 5 ... ... ... : B-2 00 . P85 : ... .. . ... : ... .. . ... ... : ... .. . ... ... : ... .. . ... ... : ... .. . ... ...
ROW 4A : ... .. 0 ... V00 ... : ... .. 0 ... ... ... : ... .. . P75 : ... .. . ... : ... .. . ... ... : --- .. . ... ... : --- .. . ... ... : ... .. . ... ...
ROW 4B : ... .. . ... ... ... : ... .. . ... ... ... : A#2 00 . P80 : ... .. . ... : ... .. . ... ... : ... .. . ... ... : ... .. . ... ... : ... .. . ... ...
ROW 4C : B-3 00 7 P80 V01 ... : F#4 00 7 P80 ... ... : A-2 00 . P8C : ... .. . ... : ... .. . ... ... : E-4 01 A ... ... : E-5 01 A ... ... : ... .. . ... ...
ROW 4D : C#4 00 6 ... ... ... : G#4 00 6 ... ... ... : ... .. . P7C : ... .. . ... : ... .. . ... ... : ... .. 9 ... ... : ... .. 9 ... ... : ... .. . ... ...
ROW 4E : E-3 00 6 ... ... ... : B-3 00 6 ... ... ... : G#2 00 . P8B : ... .. . ... : ... .. . ... ... : ... .. . ... ... : ... .. . ... ... : ... .. . ... ...
ROW 4F : ... .. 0 ... V00 ... : ... .. 0 ... ... ... : ... .. . P7B : ... .. . ... : ... .. . ... ... : --- .. . ... ... : --- .. . ... ... : ... .. . ... ...
ROW 50 : ... .. . ... ... ... : ... .. . ... ... ... : G-2 00 . P8B : ... .. . ... : ... .. . ... ... : ... .. . ... ... : ... .. . ... ... : ... .. . ... ...
ROW 51 : F-3 00 8 P80 V01 ... : C-4 00 8 P80 ... ... : ... .. . P7B : ... .. . ... : ... .. . ... ... : D#4 01 A ... ... : D#5 01 A ... ... : ... .. . ... ...
ROW 52 : C-4 00 7 ... ... ... : G-4 00 7 ... ... ... : F#2 00 . P8D : ... .. . ... : ... .. . ... ... : ... .. 9 ... ... : ... .. 9 ... ... : ... .. . ... ...
ROW 53 : D-4 00 6 ... ... ... : A-4 00 6 ... ... ... : ... .. . P7D : ... .. . ... : ... .. . ... ... : ... .. . ... ... : ... .. . ... ... : ... .. . ... ...
ROW 54 : ... .. 0 ... V00 ... : ... .. 0 ... ... ... : F-2 00 . P91 : ... .. . ... : ... .. . ... ... : --- .. . ... ... : --- .. . ... ... : ... .. . ... ...
ROW 55 : ... .. . ... ... ... : ... .. . ... ... ... : ... .. . P81 : ... .. . ... : ... .. . ... ... : ... .. . ... ... : ... .. . ... ... : ... .. . ... ...
ROW 56 : D#4 00 9 P80 V01 ... : A#4 00 9 P80 ... ... : ... .. . P71 : ... .. . ... : ... .. . ... ... : D-4 01 A ... ... : D-5 01 A ... ... : ... .. . ... ...
ROW 57 : F#3 00 8 ... ... ... : C#4 00 8 ... ... ... : E-2 00 . P87 : ... .. . ... : ... .. . ... ... : ... .. 9 ... ... : ... .. 9 ... ... : ... .. . ... ...
ROW 58 : C#4 00 7 ... ... ... : G#4 00 7 ... ... ... : ... .. . P77 : ... .. . ... : ... .. . ... ... : ... .. . ... ... : ... .. . ... ... : ... .. . ... ...
ROW 59 : ... .. 0 ... V00 ... : ... .. 0 ... ... ... : D#2 00 . P8F : ... .. . ... : ... .. . ... ... : --- .. . ... ... : --- .. . ... ... : ... .. . ... ...
ROW 5A : ... .. . ... ... ... : ... .. . ... ... ... : ... .. . P7F : ... .. . ... : ... .. . ... ... : ... .. . ... ... : ... .. . ... ... : ... .. . ... ...
ROW 5B : D-4 00 A P80 V01 ... : A-4 00 A P80 ... ... : --- .. . ... : ... .. . ... : ... .. . ... ... : C#4 01 A ... ... : C#5 01 A ... ... : ... .. . ... ...
ROW 5C : E-4 00 9 ... ... ... : B-4 00 9 ... ... ... : ... .. . ... : ... .. . ... : ... .. . ... ... : ... .. 9 ... ... : ... .. 9 ... ... : ... .. . ... ...
ROW 5D : G-3 00 8 ... ... ... : D-4 00 8 ... ... ... : ... .. . ... : ... .. . ... : ... .. . ... ... : ... .. . ... ... : ... .. . ... ... : ... .. . ... ...
ROW 5E : ... .. 0 ... V00 ... : ... .. 0 ... ... ... : ... .. . ... : ... .. . ... : ... .. . ... ... : --- .. . ... ... : --- .. . ... ... : ... .. . ... ...
ROW 5F : ... .. . ... ... ... : ... .. . ... ... ... : ... .. . ... : ... .. . ... : ... .. . ... ... : ... .. . ... ... : ... .. . ... ... : ... .. . ... ...
ROW 60 : F-2 00 F P80 V01 ... : C-3 00 F P80 ... ... : F-3 00 . P80 : ... .. F ... : ... .. . ... ... : F-3 01 A ... ... : F-4 01 A ... ... : ... .. . ... ...
ROW 61 : ... .. E ... ... ... : ... .. E ... ... ... : ... .. . ... : ... .. C ... : ... .. . ... ... : ... .. 9 ... ... : ... .. 9 ... ... : ... .. . ... ...
ROW 62 : ... .. D ... ... ... : ... .. D ... ... ... : ... .. . ... : ... .. 6 ... : ... .. . ... ... : ... .. . ... ... : ... .. . ... ... : ... .. . ... ...
ROW 63 : ... .. 0 ... V00 ... : ... .. 0 ... ... ... : ... .. . ... : ... .. 3 ... : ... .. . ... ... : --- .. . ... ... : --- .. . ... ... : ... .. . ... ...
ROW 64 : ... .. . ... ... ... : ... .. . ... ... ... : ... .. . ... : ... .. 2 ... : ... .. . ... ... : ... .. . ... ... : ... .. . ... ... : ... .. . ... ...
ROW 65 : F-2 00 F P80 V01 ... : C-3 00 F P80 ... ... : --- .. . ... : ... .. 0 ... : ... .. . ... ... : G#2 01 A ... ... : G#3 01 A ... ... : ... .. . ... ...
ROW 66 : ... .. E ... ... ... : ... .. E ... ... ... : ... .. . ... : ... .. . ... : ... .. . ... ... : ... .. 9 ... ... : ... .. 9 ... ... : ... .. . ... ...
ROW 67 : ... .. D ... ... ... : ... .. D ... ... ... : ... .. . ... : ... .. . ... : ... .. . ... ... : ... .. . ... ... : ... .. . ... ... : ... .. . ... ...
ROW 68 : ... .. 0 ... V00 ... : ... .. 0 ... ... ... : ... .. . ... : ... .. . ... : ... .. . ... ... : --- .. . ... ... : --- .. . P83 ... : ... .. . ... ...
ROW 69 : ... .. . ... ... ... : ... .. . ... ... ... : ... .. . ... : ... .. . ... : ... .. . ... ... : ... .. . ... ... : ... .. . ... ... : ... .. . ... ...
ROW 6A : B-2 00 F P80 V01 ... : F#3 00 F P80 ... ... : F-3 00 . ... : D-# 00 F ... : ... .. . ... ... : F-3 01 A ... ... : F-4 01 A P81 ... : ... .. . ... ...
ROW 6B : ... .. E ... ... ... : ... .. E ... ... ... : ... .. . ... : ... .. C ... : ... .. . ... ... : ... .. 9 ... ... : ... .. 9 ... ... : ... .. . ... ...
ROW 6C : ... .. D ... ... ... : ... .. D ... ... ... : ... .. . ... : ... .. 6 ... : ... .. . ... ... : ... .. . ... ... : ... .. . ... ... : ... .. . ... ...
ROW 6D : ... .. A ... ... ... : ... .. A ... ... ... : --- .. . ... : ... .. 3 ... : ... .. . ... ... : --- .. . ... ... : --- .. . ... ... : ... .. . ... ...
ROW 6E : ... .. . ... ... ... : ... .. . ... ... ... : ... .. . ... : ... .. 2 ... : ... .. . ... ... : ... .. . ... ... : ... .. . ... ... : ... .. . ... ...
ROW 6F : ... .. . ... ... ... : ... .. . ... ... ... : G-3 00 . ... : ... .. F ... : ... .. . ... ... : G#2 01 A ... ... : G#3 01 A ... ... : ... .. . ... ...
ROW 70 : ... .. . ... ... ... : ... .. . ... ... ... : ... .. . ... : ... .. C ... : ... .. . ... ... : ... .. 9 ... ... : ... .. 9 ... ... : ... .. . ... ...
ROW 71 : ... .. . ... ... ... : ... .. . ... ... ... : ... .. . ... : ... .. 6 ... : ... .. . ... ... : ... .. . ... ... : ... .. . ... ... : ... .. . ... ...
ROW 72 : ... .. 0 ... V00 ... : ... .. 0 ... ... ... : --- .. . ... : ... .. 3 ... : ... .. . ... ... : --- .. . ... ... : --- .. . P83 ... : ... .. . ... ...
ROW 73 : ... .. . ... ... ... : ... .. . ... ... ... : ... .. . ... : ... .. 2 ... : ... .. . ... ... : ... .. . ... ... : ... .. . ... ... : ... .. . ... ...
ROW 74 : A#2 00 F P80 V01 ... : F-3 00 F P80 ... ... : G#3 00 . ... : 6-# 00 F ... : ... .. . ... ... : F-3 01 A ... ... : F-4 01 A P81 ... : ... .. . ... ...
ROW 75 : ... .. E ... ... ... : ... .. E ... ... ... : ... .. . ... : ... .. C ... : ... .. . ... ... : ... .. 9 ... ... : ... .. 9 ... ... : ... .. . ... ...
ROW 76 : ... .. D ... ... ... : ... .. D ... ... ... : ... .. . ... : ... .. 6 ... : ... .. . ... ... : ... .. . ... ... : ... .. . ... ... : ... .. . ... ...
ROW 77 : ... .. A ... ... ... : ... .. A ... ... ... : ... .. . ... : ... .. 3 ... : ... .. . ... ... : --- .. . ... ... : --- .. . ... ... : ... .. . ... ...
ROW 78 : ... .. . ... ... ... : ... .. . ... ... ... : ... .. . ... : ... .. 2 ... : ... .. . ... ... : ... .. . ... ... : ... .. . ... ... : ... .. . ... ...
ROW 79 : ... .. . ... ... ... : ... .. . ... ... ... : --- .. . ... : ... .. 0 ... : ... .. . ... ... : G#2 01 A ... ... : G#3 01 A ... ... : ... .. . ... ...
ROW 7A : ... .. . ... ... ... : ... .. . ... ... ... : ... .. . ... : ... .. . ... : ... .. . ... ... : ... .. 9 ... ... : ... .. 9 ... ... : ... .. . ... ...
ROW 7B : ... .. . ... ... ... : ... .. . ... ... ... : ... .. . ... : ... .. . ... : ... .. . ... ... : ... .. . ... ... : ... .. . ... ... : ... .. . ... ...
ROW 7C : ... .. 0 ... V00 ... : ... .. 0 ... ... ... : ... .. . ... : ... .. . ... : ... .. . ... ... : --- .. . ... ... : --- .. . P83 ... : ... .. . ... ...
ROW 7D : ... .. . ... ... ... : ... .. . ... ... ... : ... .. . ... : ... .. . ... : ... .. . ... ... : ... .. . ... ... : ... .. . ... ... : ... .. . ... ...
ROW 7E : G#2 00 F P80 V01 ... : D#3 00 F P80 ... ... : G-3 00 . ... : D-# 00 F ... : ... .. . ... ... : F-3 01 A ... ... : F-4 01 A P81 ... : ... .. . ... ...
ROW 7F : ... .. E ... ... ... : ... .. E ... ... ... : ... .. . ... : ... .. C ... : ... .. . ... ... : ... .. 9 ... ... : ... .. 9 ... ... : ... .. . ... ...
ROW 80 : ... .. D ... ... ... : ... .. D ... ... ... : ... .. . ... : ... .. 6 ... : ... .. . ... ... : ... .. . ... ... : ... .. . ... ... : ... .. . ... ...
ROW 81 : ... .. 0 ... V00 ... : ... .. 0 ... ... ... : --- .. . ... : ... .. 3 ... : ... .. . ... ... : --- .. . ... ... : --- .. . ... ... : ... .. . ... ...
ROW 82 : ... .. . ... ... ... : ... .. . ... ... ... : ... .. . ... : ... .. 2 ... : ... .. . ... ... : ... .. . ... ... : ... .. . ... ... : ... .. . ... ...
ROW 83 : F-2 00 F P80 V01 ... : C-3 00 F P80 ... ... : G#3 00 . ... : ... .. F ... : ... .. . ... ... : G#2 01 A ... ... : G#3 01 A ... ... : ... .. . ... ...
ROW 84 : ... .. E ... ... ... : ... .. E ... ... ... : ... .. . ... : ... .. C ... : ... .. . ... ... : ... .. 9 ... ... : ... .. 9 ... ... : ... .. . ... ...
ROW 85 : ... .. D ... ... ... : ... .. D ... ... ... : ... .. . ... : ... .. 6 ... : ... .. . ... ... : ... .. . ... ... : ... .. . ... ... : ... .. . ... ...
ROW 86 : ... .. A ... ... ... : ... .. A ... ... ... : --- .. . ... : ... .. 3 ... : ... .. . ... ... : --- .. . ... ... : --- .. . P83 ... : ... .. . ... ...
ROW 87 : ... .. . ... ... ... : ... .. . ... ... ... : ... .. . ... : ... .. 2 ... : ... .. . ... ... : ... .. . ... ... : ... .. . ... ... : ... .. . ... ...
ROW 88 : ... .. . ... ... ... : ... .. . ... ... ... : B-3 00 . ... : 3-# 00 F ... : ... .. . ... ... : E-3 01 A ... ... : E-4 01 A P81 ... : ... .. . ... ...
ROW 89 : ... .. . ... ... ... : ... .. . ... ... ... : ... .. . ... : ... .. C ... : ... .. . ... ... : ... .. 9 ... ... : ... .. 9 ... ... : ... .. . ... ...
ROW 8A : ... .. . ... ... ... : ... .. . ... ... ... : ... .. . ... : ... .. 6 ... : ... .. . ... ... : ... .. . ... ... : ... .. . ... ... : ... .. . ... ...
ROW 8B : ... .. 0 ... V00 ... : ... .. 0 ... ... ... : ... .. . ... : ... .. 3 ... : ... .. . ... ... : --- .. . P82 ... : --- .. . ... ... : ... .. . ... ...
ROW 8C : ... .. . ... ... ... : ... .. . ... ... ... : ... .. . ... : ... .. 2 ... : ... .. . ... ... : ... .. . ... ... : ... .. . ... ... : ... .. . ... ...
ROW 8D : F-2 00 F P80 V01 ... : C-3 00 F P80 ... ... : --- .. . ... : ... .. 0 ... : ... .. . ... ... : G-2 01 A P80 ... : G-3 01 A ... ... : ... .. . ... ...
ROW 8E : ... .. E ... ... ... : ... .. E ... ... ... : ... .. . ... : ... .. . ... : ... .. . ... ... : ... .. 9 ... ... : ... .. 9 ... ... : ... .. . ... ...
ROW 8F : ... .. D ... ... ... : ... .. D ... ... ... : ... .. . ... : ... .. . ... : ... .. . ... ... : ... .. . ... ... : ... .. . ... ... : ... .. . ... ...
ROW 90 : ... .. 0 ... V00 ... : ... .. 0 ... ... ... : ... .. . ... : ... .. . ... : ... .. . ... ... : --- .. . P81 ... : --- .. . P80 ... : ... .. . ... ...
ROW 91 : ... .. . ... ... ... : ... .. . ... ... ... : ... .. . ... : ... .. . ... : ... .. . ... ... : ... .. . ... ... : ... .. . ... ... : ... .. . ... ...
ROW 92 : B-2 00 F P80 V01 ... : F#3 00 F P80 ... ... : B-3 00 . ... : D-# 00 F ... : ... .. . ... ... : E-3 01 A P80 ... : E-4 01 A P81 ... : ... .. . ... ...
ROW 93 : ... .. E ... ... ... : ... .. E ... ... ... : ... .. . ... : ... .. C ... : ... .. . ... ... : ... .. 9 ... ... : ... .. 9 ... ... : ... .. . ... ...
ROW 94 : ... .. D ... ... ... : ... .. D ... ... ... : ... .. . ... : ... .. 6 ... : ... .. . ... ... : ... .. . ... ... : ... .. . ... ... : ... .. . ... ...
ROW 95 : ... .. A ... ... ... : ... .. A ... ... ... : --- .. . ... : ... .. 3 ... : ... .. . ... ... : --- .. . P82 ... : --- .. . ... ... : ... .. . ... ...
ROW 96 : ... .. . ... ... ... : ... .. . ... ... ... : ... .. . ... : ... .. 2 ... : ... .. . ... ... : ... .. . ... ... : ... .. . ... ... : ... .. . ... ...
ROW 97 : ... .. . ... ... ... : ... .. . ... ... ... : A#3 00 . ... : ... .. F ... : ... .. . ... ... : G-2 01 A P80 ... : G-3 01 A ... ... : ... .. . ... ...
ROW 98 : ... .. . ... ... ... : ... .. . ... ... ... : ... .. . ... : ... .. C ... : ... .. . ... ... : ... .. 9 ... ... : ... .. 9 ... ... : ... .. . ... ...
ROW 99 : ... .. . ... ... ... : ... .. . ... ... ... : ... .. . ... : ... .. 6 ... : ... .. . ... ... : ... .. . ... ... : ... .. . ... ... : ... .. . ... ...
ROW 9A : ... .. 0 ... V00 ... : ... .. 0 ... ... ... : --- .. . ... : ... .. 3 ... : ... .. . ... ... : --- .. . P81 ... : --- .. . P80 ... : ... .. . ... ...
ROW 9B : ... .. . ... ... ... : ... .. . ... ... ... : ... .. . ... : ... .. 2 ... : ... .. . ... ... : ... .. . ... ... : ... .. . ... ... : ... .. . ... ...
ROW 9C : A#2 00 F P80 V01 ... : F-3 00 F P80 ... ... : G#3 00 . ... : 6-# 00 F ... : ... .. . ... ... : E-3 01 A P80 ... : E-4 01 A P81 ... : ... .. . ... ...
ROW 9D : ... .. E ... ... ... : ... .. E ... ... ... : ... .. . ... : ... .. C ... : ... .. . ... ... : ... .. 9 ... ... : ... .. 9 ... ... : ... .. . ... ...
ROW 9E : ... .. D ... ... ... : ... .. D ... ... ... : ... .. . ... : ... .. 6 ... : ... .. . ... ... : ... .. . ... ... : ... .. . ... ... : ... .. . ... ...
ROW 9F : ... .. A ... ... ... : ... .. A ... ... ... : --- .. . ... : ... .. 3 ... : ... .. . ... ... : --- .. . P82 ... : --- .. . ... ... : ... .. . ... ...
ROW A0 : ... .. . ... ... ... : ... .. . ... ... ... : ... .. . ... : ... .. 2 ... : ... .. . ... ... : ... .. . ... ... : ... .. . ... ... : ... .. . ... ...
ROW A1 : ... .. . ... ... ... : ... .. . ... ... ... : G-3 00 . ... : ... .. 0 ... : ... .. . ... ... : G-2 01 A P80 ... : G-3 01 A ... ... : ... .. . ... ...
ROW A2 : ... .. . ... ... ... : ... .. . ... ... ... : ... .. . ... : ... .. . ... : ... .. . ... ... : ... .. 9 ... ... : ... .. 9 ... ... : ... .. . ... ...
ROW A3 : ... .. . ... ... ... : ... .. . ... ... ... : ... .. . ... : ... .. . ... : ... .. . ... ... : ... .. . ... ... : ... .. . ... ... : ... .. . ... ...
ROW A4 : ... .. 0 ... V00 ... : ... .. 0 ... ... ... : --- .. . ... : ... .. . ... : ... .. . ... ... : --- .. . P81 ... : --- .. . P80 ... : ... .. . ... ...
ROW A5 : ... .. . ... ... ... : ... .. . ... ... ... : ... .. . ... : ... .. . ... : ... .. . ... ... : ... .. . ... ... : ... .. . ... ... : ... .. . ... ...
ROW A6 : G#2 00 F P80 V01 ... : D#3 00 F P80 ... ... : G#3 00 . ... : D-# 00 F ... : ... .. . ... ... : E-3 01 A P80 ... : E-4 01 A P81 ... : ... .. . ... ...
ROW A7 : ... .. E ... ... ... : ... .. E ... ... ... : ... .. . ... : ... .. C ... : ... .. . ... ... : ... .. 9 ... ... : ... .. 9 ... ... : ... .. . ... ...
ROW A8 : ... .. D ... ... ... : ... .. D ... ... ... : ... .. . ... : ... .. 6 ... : ... .. . ... ... : ... .. . ... ... : ... .. . ... ... : ... .. . ... ...
ROW A9 : ... .. A ... ... ... : ... .. A ... ... ... : --- .. . ... : ... .. 3 ... : ... .. . ... ... : --- .. . P82 ... : --- .. . ... ... : ... .. . ... ...
ROW AA : ... .. . ... ... ... : ... .. . ... ... ... : ... .. . ... : ... .. 2 ... : ... .. . ... ... : ... .. . ... ... : ... .. . ... ... : ... .. . ... ...
ROW AB : ... .. . ... ... ... : ... .. . ... ... ... : G-3 00 . ... : ... .. 0 ... : ... .. . ... ... : G-2 01 A P80 ... : G-3 01 A ... ... : ... .. . ... ...
ROW AC : ... .. . ... ... ... : ... .. . ... ... ... : ... .. . ... : ... .. . ... : ... .. . ... ... : ... .. 9 ... ... : ... .. 9 ... ... : ... .. . ... ...
ROW AD : ... .. . ... ... ... : ... .. . ... ... ... : ... .. . ... : ... .. . ... : ... .. . ... ... : ... .. . ... ... : ... .. . ... ... : ... .. . ... ...
ROW AE : ... .. 0 ... V00 ... : ... .. 0 ... ... ... : --- .. . ... : ... .. . ... : ... .. . ... ... : --- .. . P81 ... : --- .. . P80 ... : ... .. . ... ...
ROW AF : ... .. . ... ... ... : ... .. . ... ... ... : ... .. . ... : ... .. . ... : ... .. . ... ... : ... .. . ... ... : ... .. . ... ... : ... .. . ... ...
ROW B0 : F-2 00 F P80 V01 ... : C-3 00 F P80 ... ... : F-3 00 . ... : 3-# 00 F ... : ... .. . ... ... : D#3 01 A P80 ... : D#4 01 A P81 ... : ... .. . ... ...
ROW B1 : ... .. E ... ... ... : ... .. E ... ... ... : ... .. . ... : ... .. C ... : ... .. . ... ... : ... .. 9 ... ... : ... .. 9 ... ... : ... .. . ... ...
ROW B2 : ... .. D ... ... ... : ... .. D ... ... ... : ... .. . ... : ... .. 6 ... : ... .. . ... ... : ... .. . ... ... : ... .. . ... ... : ... .. . ... ...
ROW B3 : ... .. 0 ... V00 ... : ... .. 0 ... ... ... : ... .. . ... : ... .. 3 ... : ... .. . ... ... : --- .. . P83 ... : --- .. . ... ... : ... .. . ... ...
ROW B4 : ... .. . ... ... ... : ... .. . ... ... ... : ... .. . ... : ... .. 2 ... : ... .. . ... ... : ... .. . ... ... : ... .. . ... ... : ... .. . ... ...
ROW B5 : F-2 00 F P80 V01 ... : C-3 00 F P80 ... ... : --- .. . ... : ... .. 0 ... : ... .. . ... ... : F#2 01 A P80 ... : F#3 01 A ... ... : ... .. . ... ...
ROW B6 : ... .. E ... ... ... : ... .. E ... ... ... : ... .. . ... : ... .. . ... : ... .. . ... ... : ... .. 9 ... ... : ... .. 9 ... ... : ... .. . ... ...
ROW B7 : ... .. D ... ... ... : ... .. D ... ... ... : ... .. . ... : ... .. . ... : ... .. . ... ... : ... .. . ... ... : ... .. . ... ... : ... .. . ... ...
ROW B8 : ... .. 0 ... V00 ... : ... .. 0 ... ... ... : ... .. . ... : ... .. . ... : ... .. . ... ... : --- .. . P82 ... : --- .. . P80 ... : ... .. . ... ...
ROW B9 : ... .. . ... ... ... : ... .. . ... ... ... : ... .. . ... : ... .. . ... : ... .. . ... ... : ... .. . ... ... : ... .. . ... ... : ... .. . ... ...
ROW BA : B-2 00 F P80 V01 ... : F#3 00 F P80 ... ... : F-3 00 . ... : D-# 00 F ... : ... .. . ... ... : D#3 01 A P80 ... : D#4 01 A P81 ... : ... .. . ... ...
ROW BB : ... .. E ... ... ... : ... .. E ... ... ... : ... .. . ... : ... .. C ... : ... .. . ... ... : ... .. 9 ... ... : ... .. 9 ... ... : ... .. . ... ...
ROW BC : ... .. D ... ... ... : ... .. D ... ... ... : ... .. . ... : ... .. 6 ... : ... .. . ... ... : ... .. . ... ... : ... .. . ... ... : ... .. . ... ...
ROW BD : ... .. A ... ... ... : ... .. A ... ... ... : --- .. . ... : ... .. 3 ... : ... .. . ... ... : --- .. . P83 ... : --- .. . ... ... : ... .. . ... ...
ROW BE : ... .. . ... ... ... : ... .. . ... ... ... : ... .. . ... : ... .. 2 ... : ... .. . ... ... : ... .. . ... ... : ... .. . ... ... : ... .. . ... ...
ROW BF : ... .. . ... ... ... : ... .. . ... ... ... : G-3 00 . ... : ... .. F ... : ... .. . ... ... : F#2 01 A P80 ... : F#3 01 A ... ... : ... .. . ... ...
ROW C0 : ... .. . ... ... ... : ... .. . ... ... ... : ... .. . ... : ... .. C ... : ... .. . ... ... : ... .. 9 ... ... : ... .. 9 ... ... : ... .. . ... ...
ROW C1 : ... .. . ... ... ... : ... .. . ... ... ... : ... .. . ... : ... .. 6 ... : ... .. . ... ... : ... .. . ... ... : ... .. . ... ... : ... .. . ... ...
ROW C2 : ... .. 0 ... V00 ... : ... .. 0 ... ... ... : --- .. . ... : ... .. 3 ... : ... .. . ... ... : --- .. . P82 ... : --- .. . P80 ... : ... .. . ... ...
ROW C3 : ... .. . ... ... ... : ... .. . ... ... ... : ... .. . ... : ... .. 2 ... : ... .. . ... ... : ... .. . ... ... : ... .. . ... ... : ... .. . ... ...
ROW C4 : A#2 00 F P80 V01 ... : F-3 00 F P80 ... ... : G#3 00 . ... : 6-# 00 F ... : ... .. . ... ... : D#3 01 A P80 ... : D#4 01 A P81 ... : ... .. . ... ...
ROW C5 : ... .. E ... ... ... : ... .. E ... ... ... : ... .. . ... : ... .. C ... : ... .. . ... ... : ... .. 9 ... ... : ... .. 9 ... ... : ... .. . ... ...
ROW C6 : ... .. D ... ... ... : ... .. D ... ... ... : ... .. . ... : ... .. 6 ... : ... .. . ... ... : ... .. . ... ... : ... .. . ... ... : ... .. . ... ...
ROW C7 : ... .. A ... ... ... : ... .. A ... ... ... : ... .. . ... : ... .. 3 ... : ... .. . ... ... : --- .. . P83 ... : --- .. . ... ... : ... .. . ... ...
ROW C8 : ... .. . ... ... ... : ... .. . ... ... ... : ... .. . ... : ... .. 2 ... : ... .. . ... ... : ... .. . ... ... : ... .. . ... ... : ... .. . ... ...
ROW C9 : ... .. . ... ... ... : ... .. . ... ... ... : --- .. . ... : ... .. 0 ... : ... .. . ... ... : F#2 01 A P80 ... : F#3 01 A ... ... : ... .. . ... ...
ROW CA : ... .. . ... ... ... : ... .. . ... ... ... : ... .. . ... : ... .. . ... : ... .. . ... ... : ... .. 9 ... ... : ... .. 9 ... ... : ... .. . ... ...
ROW CB : ... .. . ... ... ... : ... .. . ... ... ... : ... .. . ... : ... .. . ... : ... .. . ... ... : ... .. . ... ... : ... .. . ... ... : ... .. . ... ...
ROW CC : ... .. 0 ... V00 ... : ... .. 0 ... ... ... : ... .. . ... : ... .. . ... : ... .. . ... ... : --- .. . P82 ... : --- .. . P80 ... : ... .. . ... ...
ROW CD : ... .. . ... ... ... : ... .. . ... ... ... : ... .. . ... : ... .. . ... : ... .. . ... ... : ... .. . ... ... : ... .. . ... ... : ... .. . ... ...
ROW CE : G#2 00 F P80 V01 ... : D#3 00 F P80 ... ... : G-3 00 . ... : D-# 00 F ... : ... .. . ... ... : D#3 01 A P80 ... : D#4 01 A P81 ... : ... .. . ... ...
ROW CF : ... .. E ... ... ... : ... .. E ... ... ... : ... .. . ... : ... .. C ... : ... .. . ... ... : ... .. 9 ... ... : ... .. 9 ... ... : ... .. . ... ...
ROW D0 : ... .. D ... ... ... : ... .. D ... ... ... : ... .. . ... : ... .. 6 ... : ... .. . ... ... : ... .. . ... ... : ... .. . ... ... : ... .. . ... ...
ROW D1 : ... .. 0 ... V00 ... : ... .. 0 ... ... ... : --- .. . ... : ... .. 3 ... : ... .. . ... ... : --- .. . P83 ... : --- .. . ... ... : ... .. . ... ...
ROW D2 : ... .. . ... ... ... : ... .. . ... ... ... : ... .. . ... : ... .. 2 ... : ... .. . ... ... : ... .. . ... ... : ... .. . ... ... : ... .. . ... ...
ROW D3 : F-2 00 F P80 V01 ... : C-3 00 F P80 ... ... : G#3 00 . ... : ... .. 0 ... : ... .. . ... ... : F#2 01 A P80 ... : F#3 01 A ... ... : ... .. . ... ...
ROW D4 : ... .. E ... ... ... : ... .. E ... ... ... : ... .. . ... : ... .. . ... : ... .. . ... ... : ... .. 9 ... ... : ... .. 9 ... ... : ... .. . ... ...
ROW D5 : ... .. D ... ... ... : ... .. D ... ... ... : ... .. . ... : ... .. . ... : ... .. . ... ... : ... .. . ... ... : ... .. . ... ... : ... .. . ... ...
ROW D6 : ... .. A ... ... ... : ... .. A ... ... ... : --- .. . ... : ... .. . ... : ... .. . ... ... : --- .. . P82 ... : --- .. . P80 ... : ... .. . ... ...
ROW D7 : ... .. . ... ... ... : ... .. . ... ... ... : ... .. . ... : ... .. . ... : ... .. . ... ... : ... .. . ... ... : ... .. . ... ... : ... .. . ... ...
ROW D8 : ... .. . ... ... ... : ... .. . ... ... ... : B-3 00 . ... : 3-# 00 F ... : ... .. . ... ... : D-3 01 A P80 ... : D-4 01 A P81 ... : ... .. . ... ...
ROW D9 : ... .. . ... ... ... : ... .. . ... ... ... : ... .. . ... : ... .. C ... : ... .. . ... ... : ... .. 9 ... ... : ... .. 9 ... ... : ... .. . ... ...
ROW DA : ... .. . ... ... ... : ... .. . ... ... ... : ... .. . ... : ... .. 6 ... : ... .. . ... ... : ... .. . ... ... : ... .. . ... ... : ... .. . ... ...
ROW DB : ... .. 0 ... V00 ... : ... .. 0 ... ... ... : ... .. . ... : ... .. 3 ... : ... .. . ... ... : --- .. . P82 ... : --- .. . ... ... : ... .. . ... ...
ROW DC : ... .. . ... ... ... : ... .. . ... ... ... : ... .. . ... : ... .. 2 ... : ... .. . ... ... : ... .. . ... ... : ... .. . ... ... : ... .. . ... ...
ROW DD : F-4 00 F P80 V01 ... : C-5 00 F P80 ... ... : ... .. . ... : ... .. 0 ... : ... .. . ... ... : F-2 01 A P80 ... : F-3 01 A ... ... : ... .. . ... ...
ROW DE : ... .. E ... ... ... : ... .. E ... ... ... : ... .. . ... : ... .. . ... : ... .. . ... ... : ... .. 9 ... ... : ... .. 9 ... ... : ... .. . ... ...
ROW DF : ... .. D ... ... ... : ... .. D ... ... ... : ... .. . ... : ... .. . ... : ... .. . ... ... : ... .. . ... ... : ... .. . ... ... : ... .. . ... ...
ROW E0 : ... .. 0 ... V00 ... : ... .. 0 ... ... ... : ... .. . ... : ... .. . ... : ... .. . ... ... : --- .. . P7E ... : --- .. . ... ... : ... .. . ... ...
ROW E1 : ... .. . ... ... ... : ... .. . ... ... ... : ... .. . ... : ... .. . ... : ... .. . ... ... : ... .. . ... ... : ... .. . ... ... : ... .. . ... ...
ROW E2 : E-4 00 F P80 V01 ... : B-4 00 F P80 ... ... : G-4 00 . ... : D-# 00 F ... : ... .. . ... ... : D-3 01 A P80 ... : D-4 01 A ... ... : ... .. . ... ...
ROW E3 : ... .. E ... ... ... : ... .. E ... ... ... : A-4 00 . P7F : ... .. C ... : ... .. . ... ... : ... .. 9 ... ... : ... .. 9 ... ... : ... .. . ... ...
ROW E4 : ... .. D ... ... ... : ... .. D ... ... ... : B-4 00 . P80 : ... .. 6 ... : ... .. . ... ... : ... .. . ... ... : ... .. . ... ... : ... .. . ... ...
ROW E5 : ... .. 0 ... V00 ... : ... .. 0 ... ... ... : C#5 00 . P83 : ... .. 3 ... : ... .. . ... ... : --- .. . P82 ... : --- .. . ... ... : ... .. . ... ...
ROW E6 : ... .. . ... ... ... : ... .. . ... ... ... : D#5 00 . P80 : ... .. 2 ... : ... .. . ... ... : ... .. . ... ... : ... .. . ... ... : ... .. . ... ...
ROW E7 : D#4 00 F P80 V01 ... : A#4 00 F P80 ... ... : ... .. . ... : ... .. F ... : ... .. . ... ... : F-2 01 A P80 ... : F-3 01 A ... ... : ... .. . ... ...
ROW E8 : ... .. E ... ... ... : ... .. E ... ... ... : ... .. . ... : ... .. C ... : ... .. . ... ... : ... .. 9 ... ... : ... .. 9 ... ... : ... .. . ... ...
ROW E9 : ... .. D ... ... ... : ... .. D ... ... ... : ... .. . ... : ... .. 6 ... : ... .. . ... ... : ... .. . ... ... : ... .. . ... ... : ... .. . ... ...
ROW EA : ... .. 0 ... V00 ... : ... .. 0 ... ... ... : ... .. . ... : ... .. 3 ... : ... .. . ... ... : --- .. . P7E ... : --- .. . ... ... : ... .. . ... ...
ROW EB : ... .. . ... ... ... : ... .. . ... ... ... : ... .. . ... : ... .. 2 ... : ... .. . ... ... : ... .. . ... ... : ... .. . ... ... : ... .. . ... ...
ROW EC : D-4 00 F P80 V01 ... : A-4 00 F P80 ... ... : G#3 00 . ... : 6-# 00 F ... : ... .. . ... ... : D-3 01 A P80 ... : D-4 01 A ... ... : ... .. . ... ...
ROW ED : ... .. E ... ... ... : ... .. E ... ... ... : ... .. . ... : ... .. C ... : ... .. . ... ... : ... .. 9 ... ... : ... .. 9 ... ... : ... .. . ... ...
ROW EE : ... .. D ... ... ... : ... .. D ... ... ... : ... .. . ... : ... .. 6 ... : ... .. . ... ... : ... .. . ... ... : ... .. . ... ... : ... .. . ... ...
ROW EF : ... .. 0 ... V00 ... : ... .. 0 ... ... ... : ... .. . ... : ... .. 3 ... : ... .. . ... ... : --- .. . P82 ... : --- .. . ... ... : ... .. . ... ...
ROW F0 : ... .. . ... ... ... : ... .. . ... ... ... : ... .. . ... : ... .. 2 ... : ... .. . ... ... : ... .. . ... ... : ... .. . ... ... : ... .. . ... ...
ROW F1 : C#4 00 F P80 V01 ... : G#4 00 F P80 ... ... : F#3 00 . P81 : ... .. 0 ... : ... .. . ... ... : F-2 01 A P80 ... : F-3 01 A ... ... : ... .. . ... ...
ROW F2 : ... .. E ... ... ... : ... .. E ... ... ... : E-3 00 . P86 : ... .. . ... : ... .. . ... ... : ... .. 9 ... ... : ... .. 9 ... ... : ... .. . ... ...
ROW F3 : ... .. D ... ... ... : ... .. D ... ... ... : D#3 00 . P7B : ... .. . ... : ... .. . ... ... : ... .. . ... ... : ... .. . ... ... : ... .. . ... ...
ROW F4 : ... .. 0 ... V00 ... : ... .. 0 ... ... ... : C#3 00 . P87 : ... .. . ... : ... .. . ... ... : --- .. . P7E ... : --- .. . ... ... : ... .. . ... ...
ROW F5 : ... .. . ... ... ... : ... .. . ... ... ... : C-3 00 . P7F : ... .. . ... : ... .. . ... ... : ... .. . ... ... : ... .. . ... ... : ... .. . ... ...
ROW F6 : C-4 00 F P80 V01 ... : G-4 00 F P80 ... ... : B-2 00 . P78 : D-# 00 F ... : ... .. . ... ... : D-3 01 A P80 ... : D-4 01 A ... ... : ... .. . ... ...
ROW F7 : ... .. E ... ... ... : ... .. E ... ... ... : A#2 00 . P73 : ... .. C ... : ... .. . ... ... : ... .. 9 ... ... : ... .. 9 ... ... : ... .. . ... ...
ROW F8 : ... .. D ... ... ... : ... .. D ... ... ... : G#2 00 . P8E : ... .. 6 ... : ... .. . ... ... : ... .. . ... ... : ... .. . ... ... : ... .. . ... ...
ROW F9 : ... .. 0 ... V00 ... : ... .. 0 ... ... ... : G-2 00 . ... : ... .. 3 ... : ... .. . ... ... : --- .. . P82 ... : --- .. . ... ... : ... .. . ... ...
ROW FA : ... .. . ... ... ... : ... .. . ... ... ... : F#2 00 . P90 : ... .. 2 ... : ... .. . ... ... : ... .. . ... ... : ... .. . ... ... : ... .. . ... ...
ROW FB : B-3 00 F P80 V01 ... : F#4 00 F P80 ... ... : ... .. . P70 : ... .. F ... : ... .. . ... ... : F-2 01 A P80 ... : F-3 01 A ... ... : ... .. . ... ...
ROW FC : ... .. E ... ... ... : ... .. E ... ... ... : F-2 00 . P74 : ... .. C ... : ... .. . ... ... : ... .. 9 ... ... : ... .. 9 ... ... : ... .. . ... ...
ROW FD : ... .. D ... ... ... : ... .. D ... ... ... : E-2 00 . P7A : ... .. 6 ... : ... .. . ... ... : ... .. . ... ... : ... .. . ... ... : ... .. . ... ...
ROW FE : ... .. 0 ... V00 ... : ... .. 0 ... ... ... : D#2 00 . P82 : ... .. 3 ... : ... .. . ... ... : --- .. . P7E ... : --- .. . ... ... : ... .. . ... ...
ROW FF : ... .. . ... ... ... : ... .. . ... ... ... : D-2 00 . P8D : ... .. 2 ... : ... .. . ... ... : ... .. . ... ... : ... .. . ... ... : ... .. . ... ...

PATTERN 0F
ROW 00 : F-2 00 F P80 V01 ... : C-3 00 F P80 ... ... : F-2 00 . P80 : 3-# 00 F ... : ... .. . ... ... : F-3 01 A P80 ... : F-4 01 A ... ... : ... .. . ... ...
ROW 01 : ... .. E ... ... ... : ... .. E ... ... ... : ... .. . ... : ... .. C ... : ... .. . ... ... : ... .. 9 ... ... : ... .. 9 ... ... : ... .. . ... ...
ROW 02 : ... .. D ... ... ... : ... .. D ... ... ... : ... .. . ... : ... .. 6 ... : ... .. . ... ... : ... .. . ... ... : ... .. . ... ... : ... .. . ... ...
ROW 03 : ... .. 0 ... V00 ... : ... .. 0 ... ... ... : --- .. . ... : ... .. 3 ... : ... .. . ... ... : --- .. . ... ... : --- .. . ... ... : ... .. . ... ...
ROW 04 : ... .. . ... ... ... : ... .. . ... ... ... : ... .. . ... : ... .. 2 ... : ... .. . ... ... : ... .. . ... ... : ... .. . ... ... : ... .. . ... ...
ROW 05 : F-2 00 F P80 V01 ... : C-3 00 F P80 ... ... : F-2 00 . ... : ... .. 0 ... : ... .. . ... ... : G#2 01 A ... ... : G#3 01 A ... ... : ... .. . ... ...
ROW 06 : ... .. E ... ... ... : ... .. E ... ... ... : ... .. . ... : ... .. . ... : ... .. . ... ... : ... .. 9 ... ... : ... .. 9 ... ... : ... .. . ... ...
ROW 07 : ... .. D ... ... ... : ... .. D ... ... ... : ... .. . ... : ... .. . ... : ... .. . ... ... : ... .. . ... ... : ... .. . ... ... : ... .. . ... ...
ROW 08 : ... .. 0 ... V00 ... : ... .. 0 ... ... ... : --- .. . ... : ... .. . ... : ... .. . ... ... : --- .. . ... ... : --- .. . P83 ... : ... .. . ... ...
ROW 09 : ... .. . ... ... ... : ... .. . ... ... ... : ... .. . ... : ... .. . ... : ... .. . ... ... : ... .. . ... ... : ... .. . ... ... : ... .. . ... ...
ROW 0A : B-2 00 F P80 V01 ... : F#3 00 F P80 ... ... : B-2 00 . ... : D-# 00 F ... : ... .. . ... ... : F-3 01 A ... ... : F-4 01 A P81 ... : ... .. . ... ...
ROW 0B : ... .. E ... ... ... : ... .. E ... ... ... : ... .. . ... : ... .. C ... : ... .. . ... ... : ... .. 9 ... ... : ... .. 9 ... ... : ... .. . ... ...
ROW 0C : ... .. D ... ... ... : ... .. D ... ... ... : ... .. . ... : ... .. 6 ... : ... .. . ... ... : ... .. . ... ... : ... .. . ... ... : ... .. . ... ...
ROW 0D : ... .. A ... ... ... : ... .. A ... ... ... : ... .. . ... : ... .. 3 ... : ... .. . ... ... : --- .. . ... ... : --- .. . ... ... : ... .. . ... ...
ROW 0E : ... .. . ... ... ... : ... .. . ... ... ... : ... .. . ... : ... .. 2 ... : ... .. . ... ... : ... .. . ... ... : ... .. . ... ... : ... .. . ... ...
ROW 0F : ... .. . ... ... ... : ... .. . ... ... ... : ... .. . ... : ... .. F ... : ... .. . ... ... : G#2 01 A ... ... : G#3 01 A ... ... : ... .. . ... ...
ROW 10 : ... .. . ... ... ... : ... .. . ... ... ... : ... .. . ... : ... .. C ... : ... .. . ... ... : ... .. 9 ... ... : ... .. 9 ... ... : ... .. . ... ...
ROW 11 : ... .. . ... ... ... : ... .. . ... ... ... : ... .. . ... : ... .. 6 ... : ... .. . ... ... : ... .. . ... ... : ... .. . ... ... : ... .. . ... ...
ROW 12 : ... .. 0 ... V00 ... : ... .. 0 ... ... ... : --- .. . ... : ... .. 3 ... : ... .. . ... ... : --- .. . ... ... : --- .. . P83 ... : ... .. . ... ...
ROW 13 : ... .. . ... ... ... : ... .. . ... ... ... : ... .. . ... : ... .. 2 ... : ... .. . ... ... : ... .. . ... ... : ... .. . ... ... : ... .. . ... ...
ROW 14 : A#2 00 F P80 V01 ... : F-3 00 F P80 ... ... : A#2 00 . ... : 6-# 00 F ... : ... .. . ... ... : F-3 01 A ... ... : F-4 01 A P81 ... : ... .. . ... ...
ROW 15 : ... .. E ... ... ... : ... .. E ... ... ... : ... .. . ... : ... .. C ... : ... .. . ... ... : ... .. 9 ... ... : ... .. 9 ... ... : ... .. . ... ...
ROW 16 : ... .. D ... ... ... : ... .. D ... ... ... : ... .. . ... : ... .. 6 ... : ... .. . ... ... : ... .. . ... ... : ... .. . ... ... : ... .. . ... ...
ROW 17 : ... .. A ... ... ... : ... .. A ... ... ... : ... .. . ... : ... .. 3 ... : ... .. . ... ... : --- .. . ... ... : --- .. . ... ... : ... .. . ... ...
ROW 18 : ... .. . ... ... ... : ... .. . ... ... ... : ... .. . ... : ... .. 2 ... : ... .. . ... ... : ... .. . ... ... : ... .. . ... ... : ... .. . ... ...
ROW 19 : ... .. . ... ... ... : ... .. . ... ... ... : ... .. . ... : ... .. 0 ... : ... .. . ... ... : G#2 01 A ... ... : G#3 01 A ... ... : ... .. . ... ...
ROW 1A : ... .. . ... ... ... : ... .. . ... ... ... : ... .. . ... : ... .. . ... : ... .. . ... ... : ... .. 9 ... ... : ... .. 9 ... ... : ... .. . ... ...
ROW 1B : ... .. . ... ... ... : ... .. . ... ... ... : ... .. . ... : ... .. . ... : ... .. . ... ... : ... .. . ... ... : ... .. . ... ... : ... .. . ... ...
ROW 1C : ... .. 0 ... V00 ... : ... .. 0 ... ... ... : --- .. . ... : ... .. . ... : ... .. . ... ... : --- .. . ... ... : --- .. . P83 ... : ... .. . ... ...
ROW 1D : ... .. . ... ... ... : ... .. . ... ... ... : ... .. . ... : ... .. . ... : ... .. . ... ... : ... .. . ... ... : ... .. . ... ... : ... .. . ... ...
ROW 1E : G#2 00 F P80 V01 ... : D#3 00 F P80 ... ... : G#2 00 . ... : D-# 00 F ... : ... .. . ... ... : F-3 01 A ... ... : F-4 01 A P81 ... : ... .. . ... ...
ROW 1F : ... .. E ... ... ... : ... .. E ... ... ... : ... .. . ... : ... .. C ... : ... .. . ... ... : ... .. 9 ... ... : ... .. 9 ... ... : ... .. . ... ...
ROW 20 : ... .. D ... ... ... : ... .. D ... ... ... : ... .. . ... : ... .. 6 ... : ... .. . ... ... : ... .. . ... ... : ... .. . ... ... : ... .. . ... ...
ROW 21 : ... .. 0 ... V00 ... : ... .. 0 ... ... ... : --- .. . ... : ... .. 3 ... : ... .. . ... ... : --- .. . ... ... : --- .. . ... ... : ... .. . ... ...
ROW 22 : ... .. . ... ... ... : ... .. . ... ... ... : ... .. . ... : ... .. 2 ... : ... .. . ... ... : ... .. . ... ... : ... .. . ... ... : ... .. . ... ...
ROW 23 : F-2 00 F P80 V01 ... : C-3 00 F P80 ... ... : F-2 00 . ... : ... .. 0 ... : ... .. . ... ... : G#2 01 A ... ... : G#3 01 A ... ... : ... .. . ... ...
ROW 24 : ... .. E ... ... ... : ... .. E ... ... ... : ... .. . ... : ... .. . ... : ... .. . ... ... : ... .. 9 ... ... : ... .. 9 ... ... : ... .. . ... ...
ROW 25 : ... .. D ... ... ... : ... .. D ... ... ... : ... .. . ... : ... .. . ... : ... .. . ... ... : ... .. . ... ... : ... .. . ... ... : ... .. . ... ...
ROW 26 : ... .. A ... ... ... : ... .. A ... ... ... : ... .. . ... : ... .. . ... : ... .. . ... ... : --- .. . ... ... : --- .. . P83 ... : ... .. . ... ...
ROW 27 : ... .. . ... ... ... : ... .. . ... ... ... : ... .. . ... : ... .. . ... : ... .. . ... ... : ... .. . ... ... : ... .. . ... ... : ... .. . ... ...
ROW 28 : ... .. . ... ... ... : ... .. . ... ... ... : ... .. . ... : 3-# 00 F ... : ... .. . ... ... : E-3 01 A ... ... : E-4 01 A P81 ... : ... .. . ... ...
ROW 29 : ... .. . ... ... ... : ... .. . ... ... ... : ... .. . ... : ... .. C ... : ... .. . ... ... : ... .. 9 ... ... : ... .. 9 ... ... : ... .. . ... ...
ROW 2A : ... .. . ... ... ... : ... .. . ... ... ... : ... .. . ... : ... .. 6 ... : ... .. . ... ... : ... .. . ... ... : ... .. . ... ... : ... .. . ... ...
ROW 2B : ... .. 0 ... V00 ... : ... .. 0 ... ... ... : --- .. . ... : ... .. 3 ... : ... .. . ... ... : --- .. . P82 ... : --- .. . ... ... : ... .. . ... ...
ROW 2C : ... .. . ... ... ... : ... .. . ... ... ... : ... .. . ... : ... .. 2 ... : ... .. . ... ... : ... .. . ... ... : ... .. . ... ... : ... .. . ... ...
ROW 2D : F-2 00 F P80 V01 ... : C-3 00 F P80 ... ... : F-2 00 . ... : ... .. 0 ... : ... .. . ... ... : G-2 01 A P80 ... : G-3 01 A ... ... : ... .. . ... ...
ROW 2E : ... .. E ... ... ... : ... .. E ... ... ... : ... .. . ... : ... .. . ... : ... .. . ... ... : ... .. 9 ... ... : ... .. 9 ... ... : ... .. . ... ...
ROW 2F : ... .. D ... ... ... : ... .. D ... ... ... : ... .. . ... : ... .. . ... : ... .. . ... ... : ... .. . ... ... : ... .. . ... ... : ... .. . ... ...
ROW 30 : ... .. 0 ... V00 ... : ... .. 0 ... ... ... : --- .. . ... : ... .. . ... : ... .. . ... ... : --- .. . P81 ... : --- .. . P80 ... : ... .. . ... ...
ROW 31 : ... .. . ... ... ... : ... .. . ... ... ... : ... .. . ... : ... .. . ... : ... .. . ... ... : ... .. . ... ... : ... .. . ... ... : ... .. . ... ...
ROW 32 : B-2 00 F P80 V01 ... : F#3 00 F P80 ... ... : B-2 00 . ... : D-# 00 F ... : ... .. . ... ... : E-3 01 A P80 ... : E-4 01 A P81 ... : ... .. . ... ...
ROW 33 : ... .. E ... ... ... : ... .. E ... ... ... : ... .. . ... : ... .. C ... : ... .. . ... ... : ... .. 9 ... ... : ... .. 9 ... ... : ... .. . ... ...
ROW 34 : ... .. D ... ... ... : ... .. D ... ... ... : ... .. . ... : ... .. 6 ... : ... .. . ... ... : ... .. . ... ... : ... .. . ... ... : ... .. . ... ...
ROW 35 : ... .. A ... ... ... : ... .. A ... ... ... : ... .. . ... : ... .. 3 ... : ... .. . ... ... : --- .. . P82 ... : --- .. . ... ... : ... .. . ... ...
ROW 36 : ... .. . ... ... ... : ... .. . ... ... ... : ... .. . ... : ... .. 2 ... : ... .. . ... ... : ... .. . ... ... : ... .. . ... ... : ... .. . ... ...
ROW 37 : ... .. . ... ... ... : ... .. . ... ... ... : ... .. . ... : ... .. F ... : ... .. . ... ... : G-2 01 A P80 ... : G-3 01 A ... ... : ... .. . ... ...
ROW 38 : ... .. . ... ... ... : ... .. . ... ... ... : ... .. . ... : ... .. C ... : ... .. . ... ... : ... .. 9 ... ... : ... .. 9 ... ... : ... .. . ... ...
ROW 39 : ... .. . ... ... ... : ... .. . ... ... ... : ... .. . ... : ... .. 6 ... : ... .. . ... ... : ... .. . ... ... : ... .. . ... ... : ... .. . ... ...
ROW 3A : ... .. 0 ... V00 ... : ... .. 0 ... ... ... : --- .. . ... : ... .. 3 ... : ... .. . ... ... : --- .. . P81 ... : --- .. . P80 ... : ... .. . ... ...
ROW 3B : ... .. . ... ... ... : ... .. . ... ... ... : ... .. . ... : ... .. 2 ... : ... .. . ... ... : ... .. . ... ... : ... .. . ... ... : ... .. . ... ...
ROW 3C : A#2 00 F P80 V01 ... : F-3 00 F P80 ... ... : A#2 00 . ... : 6-# 00 F ... : ... .. . ... ... : E-3 01 A P80 ... : E-4 01 A P81 ... : ... .. . ... ...
ROW 3D : ... .. E ... ... ... : ... .. E ... ... ... : ... .. . ... : ... .. C ... : ... .. . ... ... : ... .. 9 ... ... : ... .. 9 ... ... : ... .. . ... ...
ROW 3E : ... .. D ... ... ... : ... .. D ... ... ... : ... .. . ... : ... .. 6 ... : ... .. . ... ... : ... .. . ... ... : ... .. . ... ... : ... .. . ... ...
ROW 3F : ... .. A ... ... ... : ... .. A ... ... ... : ... .. . ... : ... .. 3 ... : ... .. . ... ... : --- .. . P82 ... : --- .. . ... ... : ... .. . ... ...
ROW 40 : ... .. . ... ... ... : ... .. . ... ... ... : ... .. . ... : ... .. 2 ... : ... .. . ... ... : ... .. . ... ... : ... .. . ... ... : ... .. . ... ...
ROW 41 : ... .. . ... ... ... : ... .. . ... ... ... : ... .. . ... : ... .. 0 ... : ... .. . ... ... : G-2 01 A P80 ... : G-3 01 A ... ... : ... .. . ... ...
ROW 42 : ... .. . ... ... ... : ... .. . ... ... ... : ... .. . ... : ... .. . ... : ... .. . ... ... : ... .. 9 ... ... : ... .. 9 ... ... : ... .. . ... ...
ROW 43 : ... .. . ... ... ... : ... .. . ... ... ... : ... .. . ... : ... .. . ... : ... .. . ... ... : ... .. . ... ... : ... .. . ... ... : ... .. . ... ...
ROW 44 : ... .. 0 ... V00 ... : ... .. 0 ... ... ... : --- .. . ... : ... .. . ... : ... .. . ... ... : --- .. . P81 ... : --- .. . P80 ... : ... .. . ... ...
ROW 45 : ... .. . ... ... ... : ... .. . ... ... ... : ... .. . ... : ... .. . ... : ... .. . ... ... : ... .. . ... ... : ... .. . ... ... : ... .. . ... ...
ROW 46 : G#2 00 F P80 V01 ... : D#3 00 F P80 ... ... : G#2 00 . ... : D-# 00 F ... : ... .. . ... ... : E-3 01 A P80 ... : E-4 01 A P81 ... : ... .. . ... ...
ROW 47 : ... .. E ... ... ... : ... .. E ... ... ... : ... .. . ... : ... .. C ... : ... .. . ... ... : ... .. 9 ... ... : ... .. 9 ... ... : ... .. . ... ...
ROW 48 : ... .. D ... ... ... : ... .. D ... ... ... : ... .. . ... : ... .. 6 ... : ... .. . ... ... : ... .. . ... ... : ... .. . ... ... : ... .. . ... ...
ROW 49 : ... .. A ... ... ... : ... .. A ... ... ... : ... .. . ... : ... .. 3 ... : ... .. . ... ... : --- .. . P82 ... : --- .. . ... ... : ... .. . ... ...
ROW 4A : ... .. . ... ... ... : ... .. . ... ... ... : ... .. . ... : ... .. 2 ... : ... .. . ... ... : ... .. . ... ... : ... .. . ... ... : ... .. . ... ...
ROW 4B : ... .. . ... ... ... : ... .. . ... ... ... : ... .. . ... : ... .. 0 ... : ... .. . ... ... : G-2 01 A P80 ... : G-3 01 A ... ... : ... .. . ... ...
ROW 4C : ... .. . ... ... ... : ... .. . ... ... ... : ... .. . ... : ... .. . ... : ... .. . ... ... : ... .. 9 ... ... : ... .. 9 ... ... : ... .. . ... ...
ROW 4D : ... .. . ... ... ... : ... .. . ... ... ... : ... .. . ... : ... .. . ... : ... .. . ... ... : ... .. . ... ... : ... .. . ... ... : ... .. . ... ...
ROW 4E : ... .. 0 ... V00 ... : ... .. 0 ... ... ... : --- .. . ... : ... .. . ... : ... .. . ... ... : --- .. . P81 ... : --- .. . P80 ... : ... .. . ... ...
ROW 4F : ... .. . ... ... ... : ... .. . ... ... ... : ... .. . ... : ... .. . ... : ... .. . ... ... : ... .. . ... ... : ... .. . ... ... : ... .. . ... ...
ROW 50 : F-2 00 F P80 V01 ... : C-3 00 F P80 ... ... : F-3 00 . ... : 3-# 00 F ... : ... .. . ... ... : D#3 01 A P80 ... : D#4 01 A P81 ... : ... .. . ... ...
ROW 51 : ... .. E ... ... ... : ... .. E ... ... ... : ... .. . ... : ... .. C ... : ... .. . ... ... : ... .. 9 ... ... : ... .. 9 ... ... : ... .. . ... ...
ROW 52 : ... .. D ... ... ... : ... .. D ... ... ... : ... .. . ... : ... .. 6 ... : ... .. . ... ... : ... .. . ... ... : ... .. . ... ... : ... .. . ... ...
ROW 53 : ... .. 0 ... V00 ... : ... .. 0 ... ... ... : ... .. . ... : ... .. 3 ... : ... .. . ... ... : --- .. . P83 ... : --- .. . ... ... : ... .. . ... ...
ROW 54 : ... .. . ... ... ... : ... .. . ... ... ... : ... .. . ... : ... .. 2 ... : ... .. . ... ... : ... .. . ... ... : ... .. . ... ... : ... .. . ... ...
ROW 55 : F-2 00 F P80 V01 ... : C-3 00 F P80 ... ... : ... .. . ... : ... .. 0 ... : ... .. . ... ... : F#2 01 A P80 ... : F#3 01 A ... ... : ... .. . ... ...
ROW 56 : ... .. E ... ... ... : ... .. E ... ... ... : ... .. . ... : ... .. . ... : ... .. . ... ... : ... .. 9 ... ... : ... .. 9 ... ... : ... .. . ... ...
ROW 57 : ... .. D ... ... ... : ... .. D ... ... ... : ... .. . ... : ... .. . ... : ... .. . ... ... : ... .. . ... ... : ... .. . ... ... : ... .. . ... ...
ROW 58 : ... .. 0 ... V00 ... : ... .. 0 ... ... ... : --- .. . ... : ... .. . ... : ... .. . ... ... : --- .. . P82 ... : --- .. . P80 ... : ... .. . ... ...
ROW 59 : ... .. . ... ... ... : ... .. . ... ... ... : ... .. . ... : ... .. . ... : ... .. . ... ... : ... .. . ... ... : ... .. . ... ... : ... .. . ... ...
ROW 5A : A#2 00 F P80 V01 ... : F-3 00 F P80 ... ... : E-3 00 . ... : D-# 00 F ... : ... .. . ... ... : A#2 01 A P80 ... : A#3 01 A P81 ... : ... .. . ... ...
ROW 5B : ... .. E ... ... ... : ... .. E ... ... ... : ... .. . ... : ... .. C ... : ... .. . ... ... : ... .. 9 ... ... : ... .. 9 ... ... : ... .. . ... ...
ROW 5C : ... .. D ... ... ... : ... .. D ... ... ... : ... .. . ... : ... .. 6 ... : ... .. . ... ... : ... .. . ... ... : ... .. . ... ... : ... .. . ... ...
ROW 5D : ... .. 0 ... V00 ... : ... .. 0 ... ... ... : --- .. . ... : ... .. 3 ... : ... .. . ... ... : --- .. . P82 ... : --- .. . ... ... : ... .. . ... ...
ROW 5E : ... .. . ... ... ... : ... .. . ... ... ... : ... .. . ... : ... .. 2 ... : ... .. . ... ... : ... .. . ... ... : ... .. . ... ... : ... .. . ... ...
ROW 5F : B-2 00 F P80 V01 ... : F#3 00 F P80 ... ... : D#3 00 . ... : ... .. F ... : ... .. . ... ... : B-2 01 A P80 ... : B-3 01 A ... ... : ... .. . ... ...
ROW 60 : ... .. E ... ... ... : ... .. E ... ... ... : ... .. . ... : ... .. C ... : ... .. . ... ... : ... .. 9 ... ... : ... .. 9 ... ... : ... .. . ... ...
ROW 61 : ... .. D ... ... ... : ... .. D ... ... ... : ... .. . ... : ... .. 6 ... : ... .. . ... ... : ... .. . ... ... : ... .. . ... ... : ... .. . ... ...
ROW 62 : ... .. 0 ... V00 ... : ... .. 0 ... ... ... : --- .. . ... : ... .. 3 ... : ... .. . ... ... : --- .. . P85 ... : --- .. . ... ... : ... .. . ... ...
ROW 63 : ... .. . ... ... ... : ... .. . ... ... ... : ... .. . ... : ... .. 2 ... : ... .. . ... ... : ... .. . ... ... : ... .. . ... ... : ... .. . ... ...
ROW 64 : C-3 00 F P80 V01 ... : G-3 00 F P80 ... ... : D-3 00 . ... : 6-# 00 F ... : ... .. . ... ... : C-3 01 A P80 ... : C-4 01 A ... ... : ... .. . ... ...
ROW 65 : ... .. E ... ... ... : ... .. E ... ... ... : ... .. . ... : ... .. C ... : ... .. . ... ... : ... .. 9 ... ... : ... .. 9 ... ... : ... .. . ... ...
ROW 66 : ... .. D ... ... ... : ... .. D ... ... ... : ... .. . ... : ... .. 6 ... : ... .. . ... ... : ... .. . ... ... : ... .. . ... ... : ... .. . ... ...
ROW 67 : ... .. A ... ... ... : ... .. A ... ... ... : --- .. . ... : ... .. 3 ... : ... .. . ... ... : --- .. . P7E ... : --- .. . ... ... : ... .. . ... ...
ROW 68 : ... .. . ... ... ... : ... .. . ... ... ... : ... .. . ... : ... .. 2 ... : ... .. . ... ... : ... .. . ... ... : ... .. . ... ... : ... .. . ... ...
ROW 69 : D#3 00 F ... ... ... : A#3 00 F ... ... ... : C#3 00 . ... : ... .. 0 ... : ... .. . ... ... : D#3 01 A P80 ... : D#4 01 A ... ... : ... .. . ... ...
ROW 6A : ... .. E ... ... ... : ... .. E ... ... ... : ... .. . ... : ... .. . ... : ... .. . ... ... : ... .. 9 ... ... : ... .. 9 ... ... : ... .. . ... ...
ROW 6B : ... .. D ... ... ... : ... .. D ... ... ... : ... .. . ... : ... .. . ... : ... .. . ... ... : ... .. . ... ... : ... .. . ... ... : ... .. . ... ...
ROW 6C : ... .. 0 ... V00 ... : ... .. 0 ... ... ... : --- .. . ... : ... .. . ... : ... .. . ... ... : --- .. . P83 ... : --- .. . ... ... : ... .. . ... ...
ROW 6D : ... .. . ... ... ... : ... .. . ... ... ... : ... .. . ... : ... .. . ... : ... .. . ... ... : ... .. . ... ... : ... .. . ... ... : ... .. . ... ...
ROW 6E : C-3 00 F P80 V01 ... : G-3 00 F P80 ... ... : C-3 00 . ... : D-# 00 F ... : ... .. . ... ... : C-3 01 A P80 ... : C-4 01 A ... ... : ... .. . ... ...
ROW 6F : ... .. E ... ... ... : ... .. E ... ... ... : ... .. . ... : ... .. C ... : ... .. . ... ... : ... .. 9 ... ... : ... .. 9 ... ... : ... .. . ... ...
ROW 70 : ... .. D ... ... ... : ... .. D ... ... ... : ... .. . ... : ... .. 6 ... : ... .. . ... ... : ... .. . ... ... : ... .. . ... ... : ... .. . ... ...
ROW 71 : ... .. 0 ... V00 ... : ... .. 0 ... ... ... : --- .. . ... : ... .. 3 ... : ... .. . ... ... : --- .. . P7E ... : --- .. . ... ... : ... .. . ... ...
ROW 72 : ... .. . ... ... ... : ... .. . ... ... ... : ... .. . ... : ... .. 2 ... : ... .. . ... ... : ... .. . ... ... : ... .. . ... ... : ... .. . ... ...
ROW 73 : F-3 00 F P80 V01 ... : C-4 00 F P80 ... ... : F-2 00 . ... : ... .. F ... : ... .. . ... ... : F-3 01 A P80 ... : F-4 01 A ... ... : ... .. . ... ...
ROW 74 : ... .. E ... ... ... : ... .. E ... ... ... : ... .. . ... : ... .. C ... : ... .. . ... ... : ... .. 9 ... ... : ... .. 9 ... ... : ... .. . ... ...
ROW 75 : ... .. D ... ... ... : ... .. D ... ... ... : ... .. . ... : ... .. 6 ... : ... .. . ... ... : ... .. . ... ... : ... .. . ... ... : ... .. . ... ...
ROW 76 : ... .. A ... ... ... : ... .. A ... ... ... : ... .. . ... : ... .. 3 ... : ... .. . ... ... : --- .. . ... ... : --- .. . ... ... : ... .. . ... ...
ROW 77 : ... .. . ... ... ... : ... .. . ... ... ... : ... .. . ... : ... .. 2 ... : ... .. . ... ... : ... .. . ... ... : ... .. . ... ... : ... .. . ... ...
ROW 78 : ... .. 0 ... V00 ... : ... .. 0 ... ... ... : ... .. . ... : 3-# 00 F ... : ... .. . ... ... : G#3 01 A ... ... : G#4 01 A ... ... : ... .. . ... ...
ROW 79 : ... .. . ... ... ... : ... .. . ... ... ... : ... .. . ... : ... .. C ... : ... .. . ... ... : ... .. 9 ... ... : ... .. 9 ... ... : ... .. . ... ...
ROW 7A : ... .. . ... ... ... : ... .. . ... ... ... : ... .. . ... : ... .. 6 ... : ... .. . ... ... : ... .. . ... ... : ... .. . ... ... : ... .. . ... ...
ROW 7B : ... .. . ... ... ... : ... .. . ... ... ... : ... .. . ... : ... .. 3 ... : ... .. . ... ... : --- .. . P82 ... : --- .. . ... ... : ... .. . ... ...
ROW 7C : ... .. . ... ... ... : ... .. . ... ... ... : ... .. . ... : ... .. 2 ... : ... .. . ... ... : ... .. . ... ... : ... .. . ... ... : ... .. . ... ...
ROW 7D : ... .. . ... ... ... : ... .. . ... ... ... : ... .. . ... : ... .. 0 ... : ... .. . ... ... : ... .. . ... ... : ... .. . ... ... : ... .. . ... ...
ROW 7E : ... .. . ... ... ... : ... .. . ... ... ... : ... .. . ... : ... .. . ... : ... .. . ... ... : ... .. . ... ... : ... .. . ... ... : ... .. . ... ...
ROW 7F : ... .. . ... ... ... : ... .. . ... ... ... : ... .. . ... : ... .. . ... : ... .. . ... ... : ... .. . ... ... : ... .. . ... ... : ... .. . ... ...
ROW 80 : ... .. . ... ... ... : ... .. . ... ... ... : ... .. . ... : ... .. . ... : ... .. . ... ... : ... .. . ... ... : ... .. . ... ... : ... .. . ... ...
ROW 81 : ... .. . ... ... ... : ... .. . ... ... ... : ... .. . ... : ... .. . ... : ... .. . ... ... : ... .. . ... ... : ... .. . ... ... : ... .. . ... ...
ROW 82 : D-4 00 F P80 V02 ... : ... .. . ... ... ... : ... .. . ... : ... .. . ... : ... .. . ... ... : ... .. . ... ... : ... .. . ... ... : ... .. . ... ...
ROW 83 : ... .. E ... ... ... : ... .. . ... ... ... : ... .. . ... : ... .. . ... : ... .. . ... ... : ... .. . ... ... : ... .. . ... ... : ... .. . ... ...
ROW 84 : ... .. D ... ... ... : ... .. . ... ... ... : ... .. . ... : ... .. . ... : ... .. . ... ... : ... .. . ... ... : ... .. . ... ... : ... .. . ... ...
ROW 85 : ... .. 0 ... V00 ... : ... .. . ... ... ... : ... .. . ... : ... .. . ... : ... .. . ... ... : ... .. . ... ... : ... .. . ... ... : ... .. . ... ...
ROW 86 : ... .. . ... ... ... : ... .. . ... ... ... : ... .. . ... : ... .. . ... : ... .. . ... ... : ... .. . ... ... : ... .. . ... ... : ... .. . ... ...
ROW 87 : E-4 00 F P80 V02 ... : ... .. . ... ... ... : ... .. . ... : ... .. . ... : ... .. . ... ... : ... .. . ... ... : ... .. . ... ... : ... .. . ... ...
ROW 88 : ... .. E ... ... ... : ... .. . ... ... ... : ... .. . ... : ... .. . ... : ... .. . ... ... : ... .. . ... ... : ... .. . ... ... : ... .. . ... ...
ROW 89 : ... .. D ... ... ... : ... .. . ... ... ... : ... .. . ... : ... .. . ... : ... .. . ... ... : ... .. . ... ... : ... .. . ... ... : ... .. . ... ...
ROW 8A : ... .. 0 ... V00 ... : ... .. . ... ... ... : ... .. . ... : ... .. . ... : ... .. . ... ... : ... .. . ... ... : ... .. . ... ... : ... .. . ... ...
ROW 8B : ... .. . ... ... ... : ... .. . ... ... ... : ... .. . ... : ... .. . ... : ... .. . ... ... : ... .. . ... ... : ... .. . ... ... : ... .. . ... ...
ROW 8C : F-4 00 F P80 V02 ... : ... .. . ... ... ... : C-3 00 . ... : 6-# 00 F ... : ... .. . ... ... : ... .. . ... ... : ... .. . ... ... : ... .. . ... ...
ROW 8D : ... .. E ... ... ... : ... .. . ... ... ... : ... .. . ... : ... .. C ... : ... .. . ... ... : ... .. . ... ... : ... .. . ... ... : ... .. . ... ...
ROW 8E : ... .. D ... ... ... : ... .. . ... ... ... : ... .. . ... : ... .. 6 ... : ... .. . ... ... : ... .. . ... ... : ... .. . ... ... : ... .. . ... ...
ROW 8F : ... .. 0 ... V00 ... : ... .. . ... ... ... : ... .. . ... : ... .. 3 ... : ... .. . ... ... : ... .. . ... ... : ... .. . ... ... : ... .. . ... ...
ROW 90 : ... .. . ... ... ... : ... .. . ... ... ... : ... .. . ... : ... .. 2 ... : ... .. . ... ... : ... .. . ... ... : ... .. . ... ... : ... .. . ... ...
ROW 91 : G-4 00 F P80 V02 ... : ... .. . ... ... ... : ... .. . ... : ... .. 0 ... : ... .. . ... ... : ... .. . ... ... : ... .. . ... ... : ... .. . ... ...
ROW 92 : ... .. E ... ... ... : ... .. . ... ... ... : ... .. . ... : ... .. . ... : ... .. . ... ... : ... .. . ... ... : ... .. . ... ... : ... .. . ... ...
ROW 93 : ... .. D ... ... ... : ... .. . ... ... ... : ... .. . ... : ... .. . ... : ... .. . ... ... : ... .. . ... ... : ... .. . ... ... : ... .. . ... ...
ROW 94 : ... .. 0 ... V00 ... : ... .. . ... ... ... : ... .. . ... : ... .. . ... : ... .. . ... ... : ... .. . ... ... : ... .. . ... ... : ... .. . ... ...
ROW 95 : ... .. . ... ... ... : ... .. . ... ... ... : ... .. . ... : ... .. . ... : ... .. . ... ... : ... .. . ... ... : ... .. . ... ... : ... .. . ... ...
ROW 96 : G#4 00 F P80 V02 ... : ... .. . ... ... ... : ... .. . ... : B-# 00 8 ... : ... .. . ... ... : ... .. . ... ... : ... .. . ... ... : ... .. . ... ...
ROW 97 : ... .. E ... ... ... : ... .. . ... ... ... : ... .. . P89 : ... .. 6 ... : ... .. . ... ... : ... .. . ... ... : ... .. . ... ... : ... .. . ... ...
ROW 98 : ... .. D ... ... ... : ... .. . ... ... ... : C#3 00 . P7A : ... .. 3 ... : ... .. . ... ... : ... .. . ... ... : ... .. . ... ... : ... .. . ... ...
ROW 99 : ... .. 0 ... V00 ... : ... .. . ... ... ... : ... .. . P83 : ... .. 1 ... : ... .. . ... ... : ... .. . ... ... : ... .. . ... ... : ... .. . ... ...
ROW 9A : ... .. . ... ... ... : ... .. . ... ... ... : D-3 00 . P75 : ... .. 8 ... : ... .. . ... ... : ... .. . ... ... : ... .. . ... ... : ... .. . ... ...
ROW 9B : A#4 00 F P80 V02 ... : ... .. . ... ... ... : ... .. . P7E : ... .. 6 ... : ... .. . ... ... : ... .. . ... ... : ... .. . ... ... : ... .. . ... ...
ROW 9C : ... .. E ... ... ... : ... .. . ... ... ... : ... .. . P87 : ... .. 3 ... : ... .. . ... ... : ... .. . ... ... : ... .. . ... ... : ... .. . ... ...
ROW 9D : ... .. D ... ... ... : ... .. . ... ... ... : D#3 00 . P7B : ... .. 8 ... : ... .. . ... ... : ... .. . ... ... : ... .. . ... ... : ... .. . ... ...
ROW 9E : ... .. 0 ... V00 ... : ... .. . ... ... ... : ... .. . P84 : ... .. 6 ... : ... .. . ... ... : ... .. . ... ... : ... .. . ... ... : ... .. . ... ...
ROW 9F : ... .. . ... ... ... : ... .. . ... ... ... : E-3 00 . P78 : ... .. 3 ... : ... .. . ... ... : ... .. . ... ... : ... .. . ... ... : ... .. . ... ...
ROW A0 : C-5 00 F P80 V02 ... : ... .. . ... ... ... : F-3 00 . P80 : 3-# 00 F ... : ... .. . ... ... : ... .. . ... ... : ... .. . ... ... : ... .. . ... ...
ROW A1 : ... .. E ... ... ... : ... .. . ... ... ... : ... .. . ... : ... .. C ... : ... .. . ... ... : ... .. . ... ... : ... .. . ... ... : ... .. . ... ...
ROW A2 : ... .. D ... ... ... : ... .. . ... ... ... : ... .. . ... : ... .. 6 ... : ... .. . ... ... : ... .. . ... ... : ... .. . ... ... : ... .. . ... ...
ROW A3 : ... .. A ... ... ... : ... .. . ... ... ... : ... .. . ... : ... .. 3 ... : ... .. . ... ... : ... .. . ... ... : ... .. . ... ... : ... .. . ... ...
ROW A4 : ... .. . ... ... ... : ... .. . ... ... ... : ... .. . ... : ... .. 2 ... : ... .. . ... ... : ... .. . ... ... : ... .. . ... ... : ... .. . ... ...
ROW A5 : ... .. . ... ... ... : ... .. . ... ... ... : --- .. . ... : ... .. 0 ... : ... .. . ... ... : ... .. . ... ... : ... .. . ... ... : ... .. . ... ...
ROW A6 : ... .. . ... ... ... : ... .. . ... ... ... : ... .. . ... : ... .. . ... : ... .. . ... ... : ... .. . ... ... : ... .. . ... ... : ... .. . ... ...
ROW A7 : ... .. . ... ... ... : ... .. . ... ... ... : ... .. . ... : ... .. . ... : ... .. . ... ... : ... .. . ... ... : ... .. . ... ... : ... .. . ... ...
ROW A8 : ... .. . ... ... ... : ... .. . ... ... ... : ... .. . ... : ... .. . ... : ... .. . ... ... : ... .. . ... ... : ... .. . ... ... : ... .. . ... ...
ROW A9 : ... .. . ... ... ... : ... .. . ... ... ... : ... .. . ... : ... .. . ... : ... .. . ... ... : ... .. . ... ... : ... .. . ... ... : ... .. . ... ...
ROW AA : ... .. 0 ... V00 ... : ... .. . ... ... ... : G#4 00 . ... : D-# 00 F ... : ... .. . ... ... : F-3 01 A P80 ... : G#3 01 A ... ... : ... .. . ... ...
ROW AB : ... .. . ... ... ... : ... .. . ... ... ... : ... .. . ... : ... .. C ... : ... .. . ... ... : ... .. 9 ... ... : ... .. 9 ... ... : ... .. . ... ...
ROW AC : ... .. . ... ... ... : ... .. . ... ... ... : ... .. . ... : ... .. 6 ... : ... .. . ... ... : ... .. . ... ... : ... .. . ... ... : ... .. . ... ...
ROW AD : ... .. . ... ... ... : ... .. . ... ... ... : ... .. . ... : ... .. 3 ... : ... .. . ... ... : ... .. 8 ... ... : ... .. 8 ... ... : ... .. . ... ...
ROW AE : ... .. . ... ... ... : ... .. . ... ... ... : ... .. . ... : ... .. 2 ... : ... .. . ... ... : ... .. 7 ... ... : ... .. 7 ... ... : ... .. . ... ...
ROW AF : ... .. . ... ... ... : ... .. . ... ... ... : --- .. . ... : ... .. F ... : ... .. . ... ... : --- .. . ... ... : --- .. . P83 ... : ... .. . ... ...
ROW B0 : ... .. . ... ... ... : ... .. . ... ... ... : ... .. . ... : ... .. C ... : ... .. . ... ... : ... .. . ... ... : ... .. . ... ... : ... .. . ... ...
ROW B1 : ... .. . ... ... ... : ... .. . ... ... ... : ... .. . ... : ... .. 6 ... : ... .. . ... ... : ... .. . ... ... : ... .. . ... ... : ... .. . ... ...
ROW B2 : ... .. . ... ... ... : ... .. . ... ... ... : ... .. . ... : ... .. 3 ... : ... .. . ... ... : ... .. . ... ... : ... .. . ... ... : ... .. . ... ...
ROW B3 : ... .. . ... ... ... : ... .. . ... ... ... : ... .. . ... : ... .. 2 ... : ... .. . ... ... : ... .. . ... ... : ... .. . ... ... : ... .. . ... ...
ROW B4 : F-4 00 F P80 V02 ... : ... .. . ... ... ... : F-3 00 . ... : 6-# 00 F ... : ... .. . ... ... : ... .. . ... ... : ... .. . ... ... : ... .. . ... ...
ROW B5 : ... .. E ... ... ... : ... .. . ... ... ... : ... .. . ... : ... .. C ... : ... .. . ... ... : ... .. . ... ... : ... .. . ... ... : ... .. . ... ...
ROW B6 : ... .. D ... ... ... : ... .. . ... ... ... : ... .. . ... : ... .. 6 ... : ... .. . ... ... : ... .. . ... ... : ... .. . ... ... : ... .. . ... ...
ROW B7 : ... .. A ... ... ... : ... .. . ... ... ... : ... .. . ... : ... .. 3 ... : ... .. . ... ... : ... .. . ... ... : ... .. . ... ... : ... .. . ... ...
ROW B8 : ... .. . ... ... ... : ... .. . ... ... ... : ... .. . ... : ... .. 2 ... : ... .. . ... ... : ... .. . ... ... : ... .. . ... ... : ... .. . ... ...
ROW B9 : ... .. 0 ... V00 ... : ... .. . ... ... ... : --- .. . ... : ... .. 0 ... : ... .. . ... ... : ... .. . ... ... : ... .. . ... ... : ... .. . ... ...
ROW BA : ... .. . ... ... ... : ... .. . ... ... ... : ... .. . ... : ... .. . ... : ... .. . ... ... : ... .. . ... ... : ... .. . ... ... : ... .. . ... ...
ROW BB : ... .. . ... ... ... : ... .. . ... ... ... : ... .. . ... : ... .. . ... : ... .. . ... ... : ... .. . ... ... : ... .. . ... ... : ... .. . ... ...
ROW BC : ... .. . ... ... ... : ... .. . ... ... ... : ... .. . ... : ... .. . ... : ... .. . ... ... : ... .. . ... ... : ... .. . ... ... : ... .. . ... ...
ROW BD : ... .. . ... ... ... : ... .. . ... ... ... : ... .. . ... : ... .. . ... : ... .. . ... ... : ... .. . ... ... : ... .. . ... ... : ... .. . ... ...
ROW BE : C-5 00 F P80 V02 ... : ... .. . ... ... ... : G#4 00 . ... : D-# 00 F ... : ... .. . ... ... : F-3 01 A ... ... : G#3 01 A P81 ... : ... .. . ... ...
ROW BF : ... .. E ... ... ... : ... .. . ... ... ... : ... .. . ... : ... .. C ... : ... .. . ... ... : ... .. 9 ... ... : ... .. 9 ... ... : ... .. . ... ...
ROW C0 : ... .. D ... ... ... : ... .. . ... ... ... : ... .. . ... : ... .. 6 ... : ... .. . ... ... : ... .. . ... ... : ... .. . ... ... : ... .. . ... ...
ROW C1 : ... .. A ... ... ... : ... .. . ... ... ... : ... .. . ... : ... .. 3 ... : ... .. . ... ... : ... .. 8 ... ... : ... .. 8 ... ... : ... .. . ... ...
ROW C2 : ... .. . ... ... ... : ... .. . ... ... ... : ... .. . ... : ... .. 2 ... : ... .. . ... ... : ... .. 7 ... ... : ... .. 7 ... ... : ... .. . ... ...
ROW C3 : ... .. 0 ... V00 ... : ... .. . ... ... ... : --- .. . ... : ... .. F ... : ... .. . ... ... : --- .. . ... ... : --- .. . P83 ... : ... .. . ... ...
ROW C4 : ... .. . ... ... ... : ... .. . ... ... ... : ... .. . ... : ... .. C ... : ... .. . ... ... : ... .. . ... ... : ... .. . ... ... : ... .. . ... ...
ROW C5 : ... .. . ... ... ... : ... .. . ... ... ... : ... .. . ... : ... .. 6 ... : ... .. . ... ... : ... .. . ... ... : ... .. . ... ... : ... .. . ... ...
ROW C6 : ... .. . ... ... ... : ... .. . ... ... ... : ... .. . ... : ... .. 3 ... : ... .. . ... ... : ... .. . ... ... : ... .. . ... ... : ... .. . ... ...
ROW C7 : ... .. . ... ... ... : ... .. . ... ... ... : ... .. . ... : ... .. 2 ... : ... .. . ... ... : ... .. . ... ... : ... .. . ... ... : ... .. . ... ...
ROW C8 : C-5 00 F P80 V02 ... : ... .. . ... ... ... : F#3 00 . ... : 3-# 00 F ... : ... .. . ... ... : ... .. . ... ... : ... .. . ... ... : ... .. . ... ...
ROW C9 : ... .. E ... ... ... : ... .. . ... ... ... : ... .. . ... : ... .. C ... : ... .. . ... ... : ... .. . ... ... : ... .. . ... ... : ... .. . ... ...
ROW CA : ... .. D ... ... ... : ... .. . ... ... ... : ... .. . ... : ... .. 6 ... : ... .. . ... ... : ... .. . ... ... : ... .. . ... ... : ... .. . ... ...
ROW CB : ... .. A ... ... ... : ... .. . ... ... ... : ... .. . ... : ... .. 3 ... : ... .. . ... ... : ... .. . ... ... : ... .. . ... ... : ... .. . ... ...
ROW CC : ... .. . ... ... ... : ... .. . ... ... ... : ... .. . ... : ... .. 2 ... : ... .. . ... ... : ... .. . ... ... : ... .. . ... ... : ... .. . ... ...
ROW CD : ... .. . ... ... ... : ... .. . ... ... ... : --- .. . ... : ... .. 0 ... : ... .. . ... ... : ... .. . ... ... : ... .. . ... ... : ... .. . ... ...
ROW CE : ... .. . ... ... ... : ... .. . ... ... ... : ... .. . ... : ... .. . ... : ... .. . ... ... : ... .. . ... ... : ... .. . ... ... : ... .. . ... ...
ROW CF : ... .. . ... ... ... : ... .. . ... ... ... : ... .. . ... : ... .. . ... : ... .. . ... ... : ... .. . ... ... : ... .. . ... ... : ... .. . ... ...
ROW D0 : ... .. . ... ... ... : ... .. . ... ... ... : ... .. . ... : ... .. . ... : ... .. . ... ... : ... .. . ... ... : ... .. . ... ... : ... .. . ... ...
ROW D1 : ... .. . ... ... ... : ... .. . ... ... ... : ... .. . ... : ... .. . ... : ... .. . ... ... : ... .. . ... ... : ... .. . ... ... : ... .. . ... ...
ROW D2 : C#5 00 F ... ... ... : ... .. . ... ... ... : A#4 00 . ... : D-# 00 F ... : ... .. . ... ... : F#3 01 A ... ... : A#3 01 A P81 ... : ... .. . ... ...
ROW D3 : ... .. E ... ... ... : ... .. . ... ... ... : ... .. . ... : ... .. C ... : ... .. . ... ... : ... .. 9 ... ... : ... .. 9 ... ... : ... .. . ... ...
ROW D4 : ... .. D ... ... ... : ... .. . ... ... ... : ... .. . ... : ... .. 6 ... : ... .. . ... ... : ... .. . ... ... : ... .. . ... ... : ... .. . ... ...
ROW D5 : ... .. 0 ... V00 ... : ... .. . ... ... ... : ... .. . ... : ... .. 3 ... : ... .. . ... ... : ... .. 8 ... ... : ... .. 8 ... ... : ... .. . ... ...
ROW D6 : ... .. . ... ... ... : ... .. . ... ... ... : ... .. . ... : ... .. 2 ... : ... .. . ... ... : ... .. 7 ... ... : ... .. 7 ... ... : ... .. . ... ...
ROW D7 : C-5 00 F P80 V02 ... : ... .. . ... ... ... : --- .. . ... : ... .. F ... : ... .. . ... ... : --- .. . P7F ... : --- .. . ... ... : ... .. . ... ...
ROW D8 : ... .. E ... ... ... : ... .. . ... ... ... : ... .. . ... : ... .. C ... : ... .. . ... ... : ... .. . ... ... : ... .. . ... ... : ... .. . ... ...
ROW D9 : ... .. D ... ... ... : ... .. . ... ... ... : ... .. . ... : ... .. 6 ... : ... .. . ... ... : ... .. . ... ... : ... .. . ... ... : ... .. . ... ...
ROW DA : ... .. 0 ... V00 ... : ... .. . ... ... ... : ... .. . ... : ... .. 3 ... : ... .. . ... ... : ... .. . ... ... : ... .. . ... ... : ... .. . ... ...
ROW DB : ... .. . ... ... ... : ... .. . ... ... ... : ... .. . ... : ... .. 2 ... : ... .. . ... ... : ... .. . ... ... : ... .. . ... ... : ... .. . ... ...
ROW DC : A#4 00 F P80 V02 ... : ... .. . ... ... ... : E-3 00 . ... : 6-# 00 F ... : ... .. . ... ... : ... .. . ... ... : ... .. . ... ... : ... .. . ... ...
ROW DD : ... .. E ... ... ... : ... .. . ... ... ... : ... .. . ... : ... .. C ... : ... .. . ... ... : ... .. . ... ... : ... .. . ... ... : ... .. . ... ...
ROW DE : ... .. D ... ... ... : ... .. . ... ... ... : ... .. . ... : ... .. 6 ... : ... .. . ... ... : ... .. . ... ... : ... .. . ... ... : ... .. . ... ...
ROW DF : ... .. A ... ... ... : ... .. . ... ... ... : ... .. . ... : ... .. 3 ... : ... .. . ... ... : ... .. . ... ... : ... .. . ... ... : ... .. . ... ...
ROW E0 : ... .. . ... ... ... : ... .. . ... ... ... : ... .. . ... : ... .. 2 ... : ... .. . ... ... : ... .. . ... ... : ... .. . ... ... : ... .. . ... ...
ROW E1 : ... .. 0 ... V00 ... : ... .. . ... ... ... : --- .. . ... : ... .. 0 ... : ... .. . ... ... : ... .. . ... ... : ... .. . ... ... : ... .. . ... ...
ROW E2 : ... .. . ... ... ... : ... .. . ... ... ... : ... .. . ... : ... .. . ... : ... .. . ... ... : ... .. . ... ... : ... .. . ... ... : ... .. . ... ...
ROW E3 : ... .. . ... ... ... : ... .. . ... ... ... : ... .. . ... : ... .. . ... : ... .. . ... ... : ... .. . ... ... : ... .. . ... ... : ... .. . ... ...
ROW E4 : ... .. . ... ... ... : ... .. . ... ... ... : ... .. . ... : ... .. . ... : ... .. . ... ... : ... .. . ... ... : ... .. . ... ... : ... .. . ... ...
ROW E5 : ... .. . ... ... ... : ... .. . ... ... ... : ... .. . ... : ... .. . ... : ... .. . ... ... : ... .. . ... ... : ... .. . ... ... : ... .. . ... ...
ROW E6 : C-5 00 F P80 V02 ... : ... .. . ... ... ... : G-4 00 . ... : D-# 00 F ... : ... .. . ... ... : G-3 01 A P80 ... : A#3 01 A ... ... : ... .. . ... ...
ROW E7 : ... .. E ... ... ... : ... .. . ... ... ... : ... .. . ... : ... .. C ... : ... .. . ... ... : ... .. 9 ... ... : ... .. 9 ... ... : ... .. . ... ...
ROW E8 : ... .. D ... ... ... : ... .. . ... ... ... : ... .. . ... : ... .. 6 ... : ... .. . ... ... : ... .. . ... ... : ... .. . ... ... : ... .. . ... ...
ROW E9 : ... .. A ... ... ... : ... .. . ... ... ... : ... .. . ... : ... .. 3 ... : ... .. . ... ... : ... .. 8 ... ... : ... .. 8 ... ... : ... .. . ... ...
ROW EA : ... .. . ... ... ... : ... .. . ... ... ... : ... .. . ... : ... .. 2 ... : ... .. . ... ... : ... .. 7 ... ... : ... .. 7 ... ... : ... .. . ... ...
ROW EB : ... .. 0 ... V00 ... : ... .. . ... ... ... : --- .. . ... : ... .. 0 ... : ... .. . ... ... : --- .. . P81 ... : --- .. . ... ... : ... .. . ... ...
ROW EC : ... .. . ... ... ... : ... .. . ... ... ... : ... .. . ... : ... .. . ... : ... .. . ... ... : ... .. . ... ... : ... .. . ... ... : ... .. . ... ...
ROW ED : ... .. . ... ... ... : ... .. . ... ... ... : ... .. . ... : ... .. . ... : ... .. . ... ... : ... .. . ... ... : ... .. . ... ... : ... .. . ... ...
ROW EE : ... .. . ... ... ... : ... .. . ... ... ... : ... .. . ... : ... .. . ... : ... .. . ... ... : ... .. . ... ... : ... .. . ... ... : ... .. . ... ...
ROW EF : ... .. . ... ... ... : ... .. . ... ... ... : ... .. . ... : ... .. . ... : ... .. . ... ... : ... .. . ... ... : ... .. . ... ... : ... .. . ... ...
ROW F0 : A#4 00 F P80 V02 ... : ... .. . ... ... ... : F-3 00 . ... : 3-# 00 F ... : ... .. . ... ... : ... .. . ... ... : ... .. . ... ... : ... .. . ... ...
ROW F1 : ... .. E ... ... ... : ... .. . ... ... ... : ... .. . ... : ... .. C ... : ... .. . ... ... : ... .. . ... ... : ... .. . ... ... : ... .. . ... ...
ROW F2 : ... .. D ... ... ... : ... .. . ... ... ... : ... .. . ... : ... .. 6 ... : ... .. . ... ... : ... .. . ... ... : ... .. . ... ... : ... .. . ... ...
ROW F3 : ... .. A ... ... ... : ... .. . ... ... ... : ... .. . ... : ... .. 3 ... : ... .. . ... ... : ... .. . ... ... : ... .. . ... ... : ... .. . ... ...
ROW F4 : ... .. . ... ... ... : ... .. . ... ... ... : ... .. . ... : ... .. 2 ... : ... .. . ... ... : ... .. . ... ... : ... .. . ... ... : ... .. . ... ...
ROW F5 : ... .. . ... ... ... : ... .. . ... ... ... : --- .. . ... : ... .. 0 ... : ... .. . ... ... : ... .. . ... ... : ... .. . ... ... : ... .. . ... ...
ROW F6 : ... .. . ... ... ... : ... .. . ... ... ... : ... .. . ... : ... .. . ... : ... .. . ... ... : ... .. . ... ... : ... .. . ... ... : ... .. . ... ...
ROW F7 : ... .. . ... ... ... : ... .. . ... ... ... : ... .. . ... : ... .. . ... : ... .. . ... ... : ... .. . ... ... : ... .. . ... ... : ... .. . ... ...
ROW F8 : ... .. . ... ... ... : ... .. . ... ... ... : ... .. . ... : ... .. . ... : ... .. . ... ... : ... .. . ... ... : ... .. . ... ... : ... .. . ... ...
ROW F9 : ... .. . ... ... ... : ... .. . ... ... ... : ... .. . ... : ... .. . ... : ... .. . ... ... : ... .. . ... ... : ... .. . ... ... : ... .. . ... ...
ROW FA : C-5 00 F ... ... ... : ... .. . ... ... ... : G#4 00 . ... : D-# 00 F ... : ... .. . ... ... : F-3 01 A P80 ... : G#3 01 A ... ... : ... .. . ... ...
ROW FB : ... .. E ... ... ... : ... .. . ... ... ... : ... .. . ... : ... .. C ... : ... .. . ... ... : ... .. 9 ... ... : ... .. 9 ... ... : ... .. . ... ...
ROW FC : ... .. D ... ... ... : ... .. . ... ... ... : ... .. . ... : ... .. 6 ... : ... .. . ... ... : ... .. . ... ... : ... .. . ... ... : ... .. . ... ...
ROW FD : ... .. 0 ... V00 ... : ... .. . ... ... ... : ... .. . ... : ... .. 3 ... : ... .. . ... ... : ... .. 8 ... ... : ... .. 8 ... ... : ... .. . ... ...
ROW FE : ... .. . ... ... ... : ... .. . ... ... ... : ... .. . ... : ... .. 2 ... : ... .. . ... ... : ... .. 7 ... ... : ... .. 7 ... ... : ... .. . ... ...
ROW FF : A#4 00 F P80 V02 ... : ... .. . ... ... ... : --- .. . ... : ... .. F ... : ... .. . ... ... : --- .. . ... ... : --- .. . P83 ... : ... .. . ... ...

PATTERN 10
ROW 00 : ... .. E ... ... ... : ... .. . ... ... ... : ... .. . ... : ... .. C ... : ... .. . ... ... : ... .. . ... ... : ... .. . ... ... : ... .. . ... ...
ROW 01 : ... .. D ... ... ... : ... .. . ... ... ... : ... .. . ... : ... .. 6 ... : ... .. . ... ... : ... .. . ... ... : ... .. . ... ... : ... .. . ... ...
ROW 02 : ... .. 0 ... V00 ... : ... .. . ... ... ... : ... .. . ... : ... .. 3 ... : ... .. . ... ... : ... .. . ... ... : ... .. . ... ... : ... .. . ... ...
ROW 03 : ... .. . ... ... ... : ... .. . ... ... ... : ... .. . ... : ... .. 2 ... : ... .. . ... ... : ... .. . ... ... : ... .. . ... ... : ... .. . ... ...
ROW 04 : G#4 00 F P80 V02 ... : ... .. . ... ... ... : C-3 00 . ... : 6-# 00 F ... : ... .. . ... ... : ... .. . ... ... : ... .. . ... ... : ... .. . ... ...
ROW 05 : ... .. E ... ... ... : ... .. . ... ... ... : ... .. . ... : ... .. C ... : ... .. . ... ... : ... .. . ... ... : ... .. . ... ... : ... .. . ... ...
ROW 06 : ... .. D ... ... ... : ... .. . ... ... ... : ... .. . ... : ... .. 6 ... : ... .. . ... ... : ... .. . ... ... : ... .. . ... ... : ... .. . ... ...
ROW 07 : ... .. A ... ... ... : ... .. . ... ... ... : ... .. . ... : ... .. 3 ... : ... .. . ... ... : ... .. . ... ... : ... .. . ... ... : ... .. . ... ...
ROW 08 : ... .. . ... ... ... : ... .. . ... ... ... : ... .. . ... : ... .. 2 ... : ... .. . ... ... : ... .. . ... ... : ... .. . ... ... : ... .. . ... ...
ROW 09 : ... .. 0 ... V00 ... : ... .. . ... ... ... : --- .. . ... : ... .. 0 ... : ... .. . ... ... : ... .. . ... ... : ... .. . ... ... : ... .. . ... ...
ROW 0A : ... .. . ... ... ... : ... .. . ... ... ... : ... .. . ... : ... .. . ... : ... .. . ... ... : ... .. . ... ... : ... .. . ... ... : ... .. . ... ...
ROW 0B : ... .. . ... ... ... : ... .. . ... ... ... : ... .. . ... : ... .. . ... : ... .. . ... ... : ... .. . ... ... : ... .. . ... ... : ... .. . ... ...
ROW 0C : ... .. . ... ... ... : ... .. . ... ... ... : ... .. . ... : ... .. . ... : ... .. . ... ... : ... .. . ... ... : ... .. . ... ... : ... .. . ... ...
ROW 0D : ... .. . ... ... ... : ... .. . ... ... ... : ... .. . ... : ... .. . ... : ... .. . ... ... : ... .. . ... ... : ... .. . ... ... : ... .. . ... ...
ROW 0E : G-4 00 F P80 V02 ... : ... .. . ... ... ... : E-4 00 . ... : D-# 00 F ... : ... .. . ... ... : E-3 01 A ... ... : G-3 01 A P81 ... : ... .. . ... ...
ROW 0F : ... .. E ... ... ... : ... .. . ... ... ... : ... .. . ... : ... .. C ... : ... .. . ... ... : ... .. 9 ... ... : ... .. 9 ... ... : ... .. . ... ...
ROW 10 : ... .. D ... ... ... : ... .. . ... ... ... : ... .. . ... : ... .. 6 ... : ... .. . ... ... : ... .. . ... ... : ... .. . ... ... : ... .. . ... ...
ROW 11 : ... .. A ... ... ... : ... .. . ... ... ... : ... .. . ... : ... .. 3 ... : ... .. . ... ... : ... .. 8 ... ... : ... .. 8 ... ... : ... .. . ... ...
ROW 12 : ... .. . ... ... ... : ... .. . ... ... ... : ... .. . ... : ... .. 2 ... : ... .. . ... ... : ... .. 7 ... ... : ... .. 7 ... ... : ... .. . ... ...
ROW 13 : ... .. 0 ... V00 ... : ... .. . ... ... ... : --- .. . ... : ... .. 0 ... : ... .. . ... ... : --- .. . P82 ... : --- .. . P80 ... : ... .. . ... ...
ROW 14 : ... .. . ... ... ... : ... .. . ... ... ... : ... .. . ... : ... .. . ... : ... .. . ... ... : ... .. . ... ... : ... .. . ... ... : ... .. . ... ...
ROW 15 : ... .. . ... ... ... : ... .. . ... ... ... : ... .. . ... : ... .. . ... : ... .. . ... ... : ... .. . ... ... : ... .. . ... ... : ... .. . ... ...
ROW 16 : ... .. . ... ... ... : ... .. . ... ... ... : ... .. . ... : ... .. . ... : ... .. . ... ... : ... .. . ... ... : ... .. . ... ... : ... .. . ... ...
ROW 17 : ... .. . ... ... ... : ... .. . ... ... ... : ... .. . ... : ... .. . ... : ... .. . ... ... : ... .. . ... ... : ... .. . ... ... : ... .. . ... ...
ROW 18 : G#4 00 F P80 V02 ... : ... .. . ... ... ... : F-4 00 . ... : 3-# 00 F ... : ... .. . ... ... : F-3 01 A P80 ... : G#3 01 A P81 ... : ... .. . ... ...
ROW 19 : ... .. E ... ... ... : ... .. . ... ... ... : ... .. . ... : ... .. C ... : ... .. . ... ... : ... .. 9 ... ... : ... .. 9 ... ... : ... .. . ... ...
ROW 1A : ... .. D ... ... ... : ... .. . ... ... ... : ... .. . ... : ... .. 6 ... : ... .. . ... ... : ... .. . ... ... : ... .. . ... ... : ... .. . ... ...
ROW 1B : ... .. A ... ... ... : ... .. . ... ... ... : ... .. . ... : ... .. 3 ... : ... .. . ... ... : ... .. 8 ... ... : ... .. 8 ... ... : ... .. . ... ...
ROW 1C : ... .. . ... ... ... : ... .. . ... ... ... : ... .. . ... : ... .. 2 ... : ... .. . ... ... : ... .. 7 ... ... : ... .. 7 ... ... : ... .. . ... ...
ROW 1D : ... .. 0 ... V00 ... : ... .. . ... ... ... : D-4 00 . P7E : ... .. 0 ... : ... .. . ... ... : ... .. . ... ... : ... .. . ... ... : ... .. . ... ...
ROW 1E : ... .. . ... ... ... : ... .. . ... ... ... : B-3 00 . P82 : ... .. . ... : ... .. . ... ... : ... .. 6 ... ... : ... .. 6 ... ... : ... .. . ... ...
ROW 1F : ... .. . ... ... ... : ... .. . ... ... ... : A-3 00 . P7E : ... .. . ... : ... .. . ... ... : ... .. . ... ... : ... .. . ... ... : ... .. . ... ...
ROW 20 : ... .. . ... ... ... : ... .. . ... ... ... : G-3 00 . P7D : ... .. . ... : ... .. . ... ... : ... .. . ... ... : ... .. . ... ... : ... .. . ... ...
ROW 21 : ... .. . ... ... ... : ... .. . ... ... ... : F-3 00 . P80 : ... .. . ... : ... .. . ... ... : ... .. . ... ... : ... .. . ... ... : ... .. . ... ...
ROW 22 : ... .. . ... ... ... : ... .. . ... ... ... : D#3 00 . P88 : ... .. . ... : ... .. . ... ... : --- .. . ... ... : --- .. . P83 ... : ... .. . ... ...
ROW 23 : ... .. . ... ... ... : ... .. . ... ... ... : D-3 00 . P7D : ... .. . ... : ... .. . ... ... : ... .. . ... ... : ... .. . ... ... : ... .. . ... ...
ROW 24 : ... .. . ... ... ... : ... .. . ... ... ... : C-3 00 . P8C : ... .. . ... : ... .. . ... ... : ... .. . ... ... : ... .. . ... ... : ... .. . ... ...
ROW 25 : ... .. . ... ... ... : ... .. . ... ... ... : B-2 00 . P85 : ... .. . ... : ... .. . ... ... : ... .. . ... ... : ... .. . ... ... : ... .. . ... ...
ROW 26 : ... .. . ... ... ... : ... .. . ... ... ... : A#2 00 . P80 : ... .. . ... : ... .. . ... ... : ... .. . ... ... : ... .. . ... ... : ... .. . ... ...
ROW 27 : ... .. . ... ... ... : ... .. . ... ... ... : A-2 00 . P7C : ... .. . ... : ... .. . ... ... : ... .. . ... ... : ... .. . ... ... : ... .. . ... ...
ROW 28 : ... .. . ... ... ... : ... .. . ... ... ... : G#2 00 . P7B : ... .. . ... : ... .. . ... ... : ... .. . ... ... : ... .. . ... ... : ... .. . ... ...
ROW 29 : ... .. . ... ... ... : ... .. . ... ... ... : G-2 00 . ... : ... .. . ... : ... .. . ... ... : ... .. . ... ... : ... .. . ... ... : ... .. . ... ...
ROW 2A : ... .. . ... ... ... : ... .. . ... ... ... : F#2 00 . P7D : ... .. . ... : ... .. . ... ... : ... .. . ... ... : ... .. . ... ... : ... .. . ... ...
ROW 2B : ... .. . ... ... ... : ... .. . ... ... ... : F-2 00 . P81 : ... .. . ... : ... .. . ... ... : ... .. . ... ... : ... .. . ... ... : ... .. . ... ...
ROW 2C : C-4 00 F P80 V02 ... : ... .. . ... ... ... : B-3 00 . P80 : ... .. . ... : ... .. . ... ... : ... .. . ... ... : ... .. . ... ... : ... .. . ... ...
ROW 2D : ... .. E ... ... ... : ... .. . ... ... ... : C#3 00 . ... : ... .. . ... : ... .. . ... ... : ... .. . ... ... : ... .. . ... ... : ... .. . ... ...
ROW 2E : ... .. D ... ... ... : ... .. . ... ... ... : F#2 00 . ... : ... .. . ... : ... .. . ... ... : ... .. . ... ... : ... .. . ... ... : ... .. . ... ...
ROW 2F : C#4 00 B ... ... ... : ... .. . ... ... ... : F-2 00 . ... : ... .. . ... : ... .. . ... ... : ... .. . ... ... : ... .. . ... ... : ... .. . ... ...
ROW 30 : ... .. A ... ... ... : ... .. . ... ... ... : C-2 00 . ... : ... .. . ... : ... .. . ... ... : ... .. . ... ... : ... .. . ... ... : ... .. . ... ...
ROW 31 : C-4 00 7 ... ... ... : ... .. . ... ... ... : ... .. . ... : ... .. . ... : ... .. . ... ... : ... .. . ... ... : ... .. . ... ... : ... .. . ... ...
ROW 32 : ... .. 6 ... ... ... : ... .. . ... ... ... : ... .. . ... : ... .. . ... : ... .. . ... ... : ... .. . ... ... : ... .. . ... ... : ... .. . ... ...
ROW 33 : ... .. . ... ... ... : ... .. . ... ... ... : ... .. . ... : ... .. . ... : ... .. . ... ... : ... .. . ... ... : ... .. . ... ... : ... .. . ... ...
ROW 34 : C#4 00 4 ... ... ... : ... .. . ... ... ... : ... .. . ... : ... .. . ... : ... .. . ... ... : ... .. . ... ... : ... .. . ... ... : ... .. . ... ...
ROW 35 : ... .. 3 ... ... ... : ... .. . ... ... ... : ... .. . ... : ... .. . ... : ... .. . ... ... : ... .. . ... ... : ... .. . ... ... : ... .. . ... ...
ROW 36 : C-4 00 6 ... ... ... : ... .. . ... ... ... : ... .. . ... : ... .. . ... : ... .. . ... ... : ... .. . ... ... : ... .. . ... ... : ... .. . ... ...
ROW 37 : ... .. 5 ... ... ... : ... .. . ... ... ... : ... .. . ... : ... .. . ... : ... .. . ... ... : ... .. . ... ... : ... .. . ... ... : ... .. . ... ...
ROW 38 : ... .. . ... ... ... : ... .. . ... ... ... : ... .. . ... : ... .. . ... : ... .. . ... ... : ... .. . ... ... : ... .. . ... ... : ... .. . ... ...
ROW 39 : C#4 00 8 ... ... ... : ... .. . ... ... ... : ... .. . ... : ... .. . ... : ... .. . ... ... : ... .. . ... ... : ... .. . ... ... : ... .. . ... ...
ROW 3A : ... .. 7 ... ... ... : ... .. . ... ... ... : ... .. . ... : ... .. . ... : ... .. . ... ... : ... .. . ... ... : ... .. . ... ... : ... .. . ... ...
ROW 3B : C-4 00 A ... ... ... : ... .. . ... ... ... : ... .. . ... : ... .. . ... : ... .. . ... ... : ... .. . ... ... : ... .. . ... ... : ... .. . ... ...
ROW 3C : ... .. 9 ... ... ... : ... .. . ... ... ... : ... .. . ... : ... .. . ... : ... .. . ... ... : ... .. . ... ... : ... .. . ... ... : ... .. . ... ...
ROW 3D : ... .. 8 ... ... ... : ... .. . ... ... ... : ... .. . ... : ... .. . ... : ... .. . ... ... : ... .. . ... ... : ... .. . ... ... : ... .. . ... ...
ROW 3E : C#4 00 C ... ... ... : ... .. . ... ... ... : ... .. . ... : ... .. . ... : ... .. . ... ... : ... .. . ... ... : ... .. . ... ... : ... .. . ... ...
ROW 3F : ... .. B ... ... ... : ... .. . ... ... ... : ... .. . ... : ... .. . ... : ... .. . ... ... : ... .. . ... ... : ... .. . ... ... : ... .. . ... ...
ROW 40 : C-4 00 F ... ... ... : ... .. . ... ... ... : F-2 00 . ... : ... .. F ... : ... .. . ... ... : ... .. . ... ... : ... .. . ... ... : ... .. . ... ...
ROW 41 : ... .. E ... ... ... : ... .. . ... ... ... : ... .. . ... : ... .. C ... : ... .. . ... ... : ... .. . ... ... : ... .. . ... ... : ... .. . ... ...
ROW 42 : ... .. D ... ... ... : ... .. . ... ... ... : ... .. . ... : ... .. 6 ... : ... .. . ... ... : ... .. . ... ... : ... .. . ... ... : ... .. . ... ...
ROW 43 : ... .. A ... ... ... : ... .. . ... ... ... : ... .. . ... : ... .. 3 ... : ... .. . ... ... : ... .. . ... ... : ... .. . ... ... : ... .. . ... ...
ROW 44 : ... .. . ... ... ... : ... .. . ... ... ... : ... .. . ... : ... .. 2 ... : ... .. . ... ... : ... .. . ... ... : ... .. . ... ... : ... .. . ... ...
ROW 45 : ... .. 0 ... V00 ... : ... .. . ... ... ... : ... .. . ... : ... .. 0 ... : ... .. . ... ... : ... .. . ... ... : ... .. . ... ... : ... .. . ... ...
ROW 46 : ... .. . ... ... ... : ... .. . ... ... ... : ... .. . ... : ... .. . ... : ... .. . ... ... : ... .. . ... ... : ... .. . ... ... : ... .. . ... ...
ROW 47 : ... .. . ... ... ... : ... .. . ... ... ... : ... .. . ... : ... .. . ... : ... .. . ... ... : ... .. . ... ... : ... .. . ... ... : ... .. . ... ...
ROW 48 : ... .. . ... ... ... : ... .. . ... ... ... : --- .. . ... : ... .. . ... : ... .. . ... ... : ... .. . ... ... : ... .. . ... ... : ... .. . ... ...
ROW 49 : ... .. . ... ... ... : ... .. . ... ... ... : ... .. . ... : ... .. . ... : ... .. . ... ... : ... .. . ... ... : ... .. . ... ... : ... .. . ... ...
ROW 4A : C-5 00 F P80 V02 ... : ... .. . ... ... ... : G#3 00 . ... : D-# 00 F ... : ... .. . ... ... : F-3 01 A ... ... : G#3 01 A P81 ... : ... .. . ... ...
ROW 4B : ... .. E ... ... ... : ... .. . ... ... ... : ... .. . ... : ... .. C ... : ... .. . ... ... : ... .. 9 ... ... : ... .. 9 ... ... : ... .. . ... ...
ROW 4C : ... .. D ... ... ... : ... .. . ... ... ... : ... .. . ... : ... .. 6 ... : ... .. . ... ... : ... .. . ... ... : ... .. . ... ... : ... .. . ... ...
ROW 4D : ... .. A ... ... ... : ... .. . ... ... ... : --- .. . ... : ... .. 3 ... : ... .. . ... ... : ... .. 8 ... ... : ... .. 8 ... ... : ... .. . ... ...
ROW 4E : ... .. . ... ... ... : ... .. . ... ... ... : ... .. . ... : ... .. 2 ... : ... .. . ... ... : ... .. 7 ... ... : ... .. 7 ... ... : ... .. . ... ...
ROW 4F : ... .. 0 ... V00 ... : ... .. . ... ... ... : G#3 00 . ... : ... .. F ... : ... .. . ... ... : --- .. . ... ... : --- .. . P83 ... : ... .. . ... ...
ROW 50 : ... .. . ... ... ... : ... .. . ... ... ... : ... .. . ... : ... .. C ... : ... .. . ... ... : ... .. . ... ... : ... .. . ... ... : ... .. . ... ...
ROW 51 : ... .. . ... ... ... : ... .. . ... ... ... : ... .. . ... : ... .. 6 ... : ... .. . ... ... : ... .. . ... ... : ... .. . ... ... : ... .. . ... ...
ROW 52 : ... .. . ... ... ... : ... .. . ... ... ... : --- .. . ... : ... .. 3 ... : ... .. . ... ... : ... .. . ... ... : ... .. . ... ... : ... .. . ... ...
ROW 53 : ... .. . ... ... ... : ... .. . ... ... ... : ... .. . ... : ... .. 2 ... : ... .. . ... ... : ... .. . ... ... : ... .. . ... ... : ... .. . ... ...
ROW 54 : G#4 00 F P80 V02 ... : ... .. . ... ... ... : F-2 00 . ... : 6-# 00 F ... : ... .. . ... ... : ... .. . ... ... : ... .. . ... ... : ... .. . ... ...
ROW 55 : ... .. E ... ... ... : ... .. . ... ... ... : ... .. . ... : ... .. C ... : ... .. . ... ... : ... .. . ... ... : ... .. . ... ... : ... .. . ... ...
ROW 56 : ... .. D ... ... ... : ... .. . ... ... ... : ... .. . ... : ... .. 6 ... : ... .. . ... ... : ... .. . ... ... : ... .. . ... ... : ... .. . ... ...
ROW 57 : ... .. A ... ... ... : ... .. . ... ... ... : ... .. . ... : ... .. 3 ... : ... .. . ... ... : ... .. . ... ... : ... .. . ... ... : ... .. . ... ...
ROW 58 : ... .. . ... ... ... : ... .. . ... ... ... : ... .. . ... : ... .. 2 ... : ... .. . ... ... : ... .. . ... ... : ... .. . ... ... : ... .. . ... ...
ROW 59 : ... .. 0 ... V00 ... : ... .. . ... ... ... : --- .. . ... : ... .. 0 ... : ... .. . ... ... : ... .. . ... ... : ... .. . ... ... : ... .. . ... ...
ROW 5A : ... .. . ... ... ... : ... .. . ... ... ... : ... .. . ... : ... .. . ... : ... .. . ... ... : ... .. . ... ... : ... .. . ... ... : ... .. . ... ...
ROW 5B : ... .. . ... ... ... : ... .. . ... ... ... : ... .. . ... : ... .. . ... : ... .. . ... ... : ... .. . ... ... : ... .. . ... ... : ... .. . ... ...
ROW 5C : ... .. . ... ... ... : ... .. . ... ... ... : ... .. . ... : ... .. . ... : ... .. . ... ... : ... .. . ... ... : ... .. . ... ... : ... .. . ... ...
ROW 5D : ... .. . ... ... ... : ... .. . ... ... ... : ... .. . ... : ... .. . ... : ... .. . ... ... : ... .. . ... ... : ... .. . ... ... : ... .. . ... ...
ROW 5E : F-4 00 F P80 V02 ... : ... .. . ... ... ... : C-4 00 . ... : D-# 00 F ... : ... .. . ... ... : F-3 01 A ... ... : G#3 01 A P81 ... : ... .. . ... ...
ROW 5F : ... .. E ... ... ... : ... .. . ... ... ... : ... .. . ... : ... .. C ... : ... .. . ... ... : ... .. 9 ... ... : ... .. 9 ... ... : ... .. . ... ...
ROW 60 : ... .. D ... ... ... : ... .. . ... ... ... : ... .. . ... : ... .. 6 ... : ... .. . ... ... : ... .. . ... ... : ... .. . ... ... : ... .. . ... ...
ROW 61 : ... .. A ... ... ... : ... .. . ... ... ... : --- .. . ... : ... .. 3 ... : ... .. . ... ... : ... .. 8 ... ... : ... .. 8 ... ... : ... .. . ... ...
ROW 62 : ... .. . ... ... ... : ... .. . ... ... ... : ... .. . ... : ... .. 2 ... : ... .. . ... ... : ... .. 7 ... ... : ... .. 7 ... ... : ... .. . ... ...
ROW 63 : ... .. . ... ... ... : ... .. . ... ... ... : C-4 00 . ... : ... .. F ... : ... .. . ... ... : --- .. . ... ... : --- .. . P83 ... : ... .. . ... ...
ROW 64 : ... .. . ... ... ... : ... .. . ... ... ... : ... .. . ... : ... .. C ... : ... .. . ... ... : ... .. . ... ... : ... .. . ... ... : ... .. . ... ...
ROW 65 : ... .. . ... ... ... : ... .. . ... ... ... : ... .. . ... : ... .. 6 ... : ... .. . ... ... : ... .. . ... ... : ... .. . ... ... : ... .. . ... ...
ROW 66 : ... .. 0 ... V00 ... : ... .. . ... ... ... : --- .. . ... : ... .. 3 ... : ... .. . ... ... : ... .. . ... ... : ... .. . ... ... : ... .. . ... ...
ROW 67 : ... .. . ... ... ... : ... .. . ... ... ... : ... .. . ... : ... .. 2 ... : ... .. . ... ... : ... .. . ... ... : ... .. . ... ... : ... .. . ... ...
ROW 68 : C-4 00 F P80 V02 ... : ... .. . ... ... ... : F#2 00 . ... : 3-# 00 F ... : ... .. . ... ... : ... .. . ... ... : ... .. . ... ... : ... .. . ... ...
ROW 69 : ... .. E ... ... ... : ... .. . ... ... ... : ... .. . ... : ... .. C ... : ... .. . ... ... : ... .. . ... ... : ... .. . ... ... : ... .. . ... ...
ROW 6A : ... .. D ... ... ... : ... .. . ... ... ... : ... .. . ... : ... .. 6 ... : ... .. . ... ... : ... .. . ... ... : ... .. . ... ... : ... .. . ... ...
ROW 6B : ... .. A ... ... ... : ... .. . ... ... ... : ... .. . ... : ... .. 3 ... : ... .. . ... ... : ... .. . ... ... : ... .. . ... ... : ... .. . ... ...
ROW 6C : ... .. . ... ... ... : ... .. . ... ... ... : ... .. . ... : ... .. 2 ... : ... .. . ... ... : ... .. . ... ... : ... .. . ... ... : ... .. . ... ...
ROW 6D : ... .. . ... ... ... : ... .. . ... ... ... : --- .. . ... : ... .. 0 ... : ... .. . ... ... : ... .. . ... ... : ... .. . ... ... : ... .. . ... ...
ROW 6E : ... .. . ... ... ... : ... .. . ... ... ... : ... .. . ... : ... .. . ... : ... .. . ... ... : ... .. . ... ... : ... .. . ... ... : ... .. . ... ...
ROW 6F : ... .. . ... ... ... : ... .. . ... ... ... : ... .. . ... : ... .. . ... : ... .. . ... ... : ... .. . ... ... : ... .. . ... ... : ... .. . ... ...
ROW 70 : ... .. . ... ... ... : ... .. . ... ... ... : ... .. . ... : ... .. . ... : ... .. . ... ... : ... .. . ... ... : ... .. . ... ... : ... .. . ... ...
ROW 71 : ... .. . ... ... ... : ... .. . ... ... ... : ... .. . ... : ... .. . ... : ... .. . ... ... : ... .. . ... ... : ... .. . ... ... : ... .. . ... ...
ROW 72 : C#4 00 F ... ... ... : ... .. . ... ... ... : A#3 00 . ... : D-# 00 F ... : ... .. . ... ... : F#3 01 A ... ... : A#3 01 A P81 ... : ... .. . ... ...
ROW 73 : ... .. E ... ... ... : ... .. . ... ... ... : ... .. . ... : ... .. C ... : ... .. . ... ... : ... .. 9 ... ... : ... .. 9 ... ... : ... .. . ... ...
ROW 74 : ... .. D ... ... ... : ... .. . ... ... ... : ... .. . ... : ... .. 6 ... : ... .. . ... ... : ... .. . ... ... : ... .. . ... ... : ... .. . ... ...
ROW 75 : ... .. 0 ... V00 ... : ... .. . ... ... ... : --- .. . ... : ... .. 3 ... : ... .. . ... ... : ... .. 8 ... ... : ... .. 8 ... ... : ... .. . ... ...
ROW 76 : ... .. . ... ... ... : ... .. . ... ... ... : ... .. . ... : ... .. 2 ... : ... .. . ... ... : ... .. 7 ... ... : ... .. 7 ... ... : ... .. . ... ...
ROW 77 : C-4 00 F P80 V02 ... : ... .. . ... ... ... : A#3 00 . ... : ... .. F ... : ... .. . ... ... : --- .. . P7F ... : --- .. . ... ... : ... .. . ... ...
ROW 78 : ... .. E ... ... ... : ... .. . ... ... ... : ... .. . ... : ... .. C ... : ... .. . ... ... : ... .. . ... ... : ... .. . ... ... : ... .. . ... ...
ROW 79 : ... .. D ... ... ... : ... .. . ... ... ... : ... .. . ... : ... .. 6 ... : ... .. . ... ... : ... .. . ... ... : ... .. . ... ... : ... .. . ... ...
ROW 7A : ... .. 0 ... V00 ... : ... .. . ... ... ... : --- .. . ... : ... .. 3 ... : ... .. . ... ... : ... .. . ... ... : ... .. . ... ... : ... .. . ... ...
ROW 7B : ... .. . ... ... ... : ... .. . ... ... ... : ... .. . ... : ... .. 2 ... : ... .. . ... ... : ... .. . ... ... : ... .. . ... ... : ... .. . ... ...
ROW 7C : A#3 00 F P80 V02 ... : ... .. . ... ... ... : E-3 00 . ... : 6-# 00 F ... : ... .. . ... ... : ... .. . ... ... : ... .. . ... ... : ... .. . ... ...
ROW 7D : ... .. E ... ... ... : ... .. . ... ... ... : ... .. . ... : ... .. C ... : ... .. . ... ... : ... .. . ... ... : ... .. . ... ... : ... .. . ... ...
ROW 7E : ... .. D ... ... ... : ... .. . ... ... ... : ... .. . ... : ... .. 6 ... : ... .. . ... ... : ... .. . ... ... : ... .. . ... ... : ... .. . ... ...
ROW 7F : ... .. A ... ... ... : ... .. . ... ... ... : ... .. . ... : ... .. 3 ... : ... .. . ... ... : ... .. . ... ... : ... .. . ... ... : ... .. . ... ...
ROW 80 : ... .. . ... ... ... : ... .. . ... ... ... : ... .. . ... : ... .. 2 ... : ... .. . ... ... : ... .. . ... ... : ... .. . ... ... : ... .. . ... ...
ROW 81 : ... .. 0 ... V00 ... : ... .. . ... ... ... : --- .. . ... : ... .. 0 ... : ... .. . ... ... : ... .. . ... ... : ... .. . ... ... : ... .. . ... ...
ROW 82 : ... .. . ... ... ... : ... .. . ... ... ... : ... .. . ... : ... .. . ... : ... .. . ... ... : ... .. . ... ... : ... .. . ... ... : ... .. . ... ...
ROW 83 : ... .. . ... ... ... : ... .. . ... ... ... : ... .. . ... : ... .. . ... : ... .. . ... ... : ... .. . ... ... : ... .. . ... ... : ... .. . ... ...
ROW 84 : ... .. . ... ... ... : ... .. . ... ... ... : ... .. . ... : ... .. . ... : ... .. . ... ... : ... .. . ... ... : ... .. . ... ... : ... .. . ... ...
ROW 85 : ... .. . ... ... ... : ... .. . ... ... ... : ... .. . ... : ... .. . ... : ... .. . ... ... : ... .. . ... ... : ... .. . ... ... : ... .. . ... ...
ROW 86 : A#4 00 F P80 V02 ... : ... .. . ... ... ... : C-4 00 . ... : D-# 00 F ... : ... .. . ... ... : G-3 01 A P80 ... : A#3 01 A ... ... : ... .. . ... ...
ROW 87 : ... .. E ... ... ... : ... .. . ... ... ... : ... .. . ... : ... .. C ... : ... .. . ... ... : ... .. 9 ... ... : ... .. 9 ... ... : ... .. . ... ...
ROW 88 : ... .. D ... ... ... : ... .. . ... ... ... : ... .. . ... : ... .. 6 ... : ... .. . ... ... : ... .. . ... ... : ... .. . ... ... : ... .. . ... ...
ROW 89 : ... .. A ... ... ... : ... .. . ... ... ... : --- .. . ... : ... .. 3 ... : ... .. . ... ... : ... .. 8 ... ... : ... .. 8 ... ... : ... .. . ... ...
ROW 8A : ... .. . ... ... ... : ... .. . ... ... ... : ... .. . ... : ... .. 2 ... : ... .. . ... ... : ... .. 7 ... ... : ... .. 7 ... ... : ... .. . ... ...
ROW 8B : ... .. 0 ... V00 ... : ... .. . ... ... ... : C-4 00 . ... : ... .. 0 ... : ... .. . ... ... : --- .. . P81 ... : --- .. . ... ... : ... .. . ... ...
ROW 8C : ... .. . ... ... ... : ... .. . ... ... ... : ... .. . ... : ... .. . ... : ... .. . ... ... : ... .. . ... ... : ... .. . ... ... : ... .. . ... ...
ROW 8D : ... .. . ... ... ... : ... .. . ... ... ... : ... .. . ... : ... .. . ... : ... .. . ... ... : ... .. . ... ... : ... .. . ... ... : ... .. . ... ...
ROW 8E : ... .. . ... ... ... : ... .. . ... ... ... : --- .. . ... : ... .. . ... : ... .. . ... ... : ... .. . ... ... : ... .. . ... ... : ... .. . ... ...
ROW 8F : ... .. . ... ... ... : ... .. . ... ... ... : ... .. . ... : ... .. . ... : ... .. . ... ... : ... .. . ... ... : ... .. . ... ... : ... .. . ... ...
ROW 90 : A#3 00 F P80 V02 ... : ... .. . ... ... ... : F-3 00 . ... : 3-# 00 F ... : ... .. . ... ... : ... .. . ... ... : ... .. . ... ... : ... .. . ... ...
ROW 91 : ... .. E ... ... ... : ... .. . ... ... ... : ... .. . ... : ... .. C ... : ... .. . ... ... : ... .. . ... ... : ... .. . ... ... : ... .. . ... ...
ROW 92 : ... .. D ... ... ... : ... .. . ... ... ... : ... .. . ... : ... .. 6 ... : ... .. . ... ... : ... .. . ... ... : ... .. . ... ... : ... .. . ... ...
ROW 93 : ... .. A ... ... ... : ... .. . ... ... ... : ... .. . ... : ... .. 3 ... : ... .. . ... ... : ... .. . ... ... : ... .. . ... ... : ... .. . ... ...
ROW 94 : ... .. . ... ... ... : ... .. . ... ... ... : ... .. . ... : ... .. 2 ... : ... .. . ... ... : ... .. . ... ... : ... .. . ... ... : ... .. . ... ...
ROW 95 : ... .. . ... ... ... : ... .. . ... ... ... : --- .. . ... : ... .. 0 ... : ... .. . ... ... : ... .. . ... ... : ... .. . ... ... : ... .. . ... ...
ROW 96 : ... .. . ... ... ... : ... .. . ... ... ... : ... .. . ... : ... .. . ... : ... .. . ... ... : ... .. . ... ... : ... .. . ... ... : ... .. . ... ...
ROW 97 : ... .. . ... ... ... : ... .. . ... ... ... : ... .. . ... : ... .. . ... : ... .. . ... ... : ... .. . ... ... : ... .. . ... ... : ... .. . ... ...
ROW 98 : ... .. . ... ... ... : ... .. . ... ... ... : ... .. . ... : ... .. . ... : ... .. . ... ... : ... .. . ... ... : ... .. . ... ... : ... .. . ... ...
ROW 99 : ... .. . ... ... ... : ... .. . ... ... ... : ... .. . ... : ... .. . ... : ... .. . ... ... : ... .. . ... ... : ... .. . ... ... : ... .. . ... ...
ROW 9A : C-4 00 F ... ... ... : ... .. . ... ... ... : G#3 00 . ... : D-# 00 F ... : ... .. . ... ... : F-3 01 A P80 ... : G#3 01 A ... ... : ... .. . ... ...
ROW 9B : ... .. E ... ... ... : ... .. . ... ... ... : ... .. . ... : ... .. C ... : ... .. . ... ... : ... .. 9 ... ... : ... .. 9 ... ... : ... .. . ... ...
ROW 9C : ... .. D ... ... ... : ... .. . ... ... ... : ... .. . ... : ... .. 6 ... : ... .. . ... ... : ... .. . ... ... : ... .. . ... ... : ... .. . ... ...
ROW 9D : ... .. 0 ... V00 ... : ... .. . ... ... ... : ... .. . ... : ... .. 3 ... : ... .. . ... ... : ... .. 8 ... ... : ... .. 8 ... ... : ... .. . ... ...
ROW 9E : ... .. . ... ... ... : ... .. . ... ... ... : ... .. . ... : ... .. 2 ... : ... .. . ... ... : ... .. 7 ... ... : ... .. 7 ... ... : ... .. . ... ...
ROW 9F : A#3 00 F P80 V02 ... : ... .. . ... ... ... : --- .. . ... : ... .. F ... : ... .. . ... ... : --- .. . ... ... : --- .. . P83 ... : ... .. . ... ...
ROW A0 : ... .. E ... ... ... : ... .. . ... ... ... : ... .. . ... : ... .. C ... : ... .. . ... ... : ... .. . ... ... : ... .. . ... ... : ... .. . ... ...
ROW A1 : ... .. D ... ... ... : ... .. . ... ... ... : ... .. . ... : ... .. 6 ... : ... .. . ... ... : ... .. . ... ... : ... .. . ... ... : ... .. . ... ...
ROW A2 : ... .. 0 ... V00 ... : ... .. . ... ... ... : ... .. . ... : ... .. 3 ... : ... .. . ... ... : ... .. . ... ... : ... .. . ... ... : ... .. . ... ...
ROW A3 : ... .. . ... ... ... : ... .. . ... ... ... : ... .. . ... : ... .. 2 ... : ... .. . ... ... : ... .. . ... ... : ... .. . ... ... : ... .. . ... ...
ROW A4 : G#3 00 F P80 V02 ... : ... .. . ... ... ... : C-3 00 . ... : 6-# 00 F ... : ... .. . ... ... : ... .. . ... ... : ... .. . ... ... : ... .. . ... ...
ROW A5 : ... .. E ... ... ... : ... .. . ... ... ... : ... .. . ... : ... .. C ... : ... .. . ... ... : ... .. . ... ... : ... .. . ... ... : ... .. . ... ...
ROW A6 : ... .. D ... ... ... : ... .. . ... ... ... : ... .. . ... : ... .. 6 ... : ... .. . ... ... : ... .. . ... ... : ... .. . ... ... : ... .. . ... ...
ROW A7 : ... .. A ... ... ... : ... .. . ... ... ... : ... .. . ... : ... .. 3 ... : ... .. . ... ... : ... .. . ... ... : ... .. . ... ... : ... .. . ... ...
ROW A8 : ... .. . ... ... ... : ... .. . ... ... ... : ... .. . ... : ... .. 2 ... : ... .. . ... ... : ... .. . ... ... : ... .. . ... ... : ... .. . ... ...
ROW A9 : G-3 00 F ... ... ... : ... .. . ... ... ... : --- .. . ... : ... .. 0 ... : ... .. . ... ... : ... .. . ... ... : ... .. . ... ... : ... .. . ... ...
ROW AA : ... .. E ... ... ... : ... .. . ... ... ... : ... .. . ... : ... .. . ... : ... .. . ... ... : ... .. . ... ... : ... .. . ... ... : ... .. . ... ...
ROW AB : ... .. D ... ... ... : ... .. . ... ... ... : ... .. . ... : ... .. . ... : ... .. . ... ... : ... .. . ... ... : ... .. . ... ... : ... .. . ... ...
ROW AC : ... .. 0 ... V00 ... : ... .. . ... ... ... : ... .. . ... : ... .. . ... : ... .. . ... ... : ... .. . ... ... : ... .. . ... ... : ... .. . ... ...
ROW AD : ... .. . ... ... ... : ... .. . ... ... ... : ... .. . ... : ... .. . ... : ... .. . ... ... : ... .. . ... ... : ... .. . ... ... : ... .. . ... ...
ROW AE : F-3 00 F P80 V02 ... : ... .. . ... ... ... : G-3 00 . ... : D-# 00 F ... : ... .. . ... ... : E-3 01 A ... ... : G-3 01 A P81 ... : ... .. . ... ...
ROW AF : ... .. E ... ... ... : ... .. . ... ... ... : ... .. . ... : ... .. C ... : ... .. . ... ... : ... .. 9 ... ... : ... .. 9 ... ... : ... .. . ... ...
ROW B0 : ... .. D ... ... ... : ... .. . ... ... ... : ... .. . ... : ... .. 6 ... : ... .. . ... ... : ... .. . ... ... : ... .. . ... ... : ... .. . ... ...
ROW B1 : ... .. 0 ... V00 ... : ... .. . ... ... ... : ... .. . ... : ... .. 3 ... : ... .. . ... ... : ... .. 8 ... ... : ... .. 8 ... ... : ... .. . ... ...
ROW B2 : ... .. . ... ... ... : ... .. . ... ... ... : ... .. . ... : ... .. 2 ... : ... .. . ... ... : ... .. 7 ... ... : ... .. 7 ... ... : ... .. . ... ...
ROW B3 : E-3 00 F P80 V02 ... : ... .. . ... ... ... : --- .. . ... : ... .. 0 ... : ... .. . ... ... : --- .. . P82 ... : --- .. . P80 ... : ... .. . ... ...
ROW B4 : ... .. E ... ... ... : ... .. . ... ... ... : ... .. . ... : ... .. . ... : ... .. . ... ... : ... .. . ... ... : ... .. . ... ... : ... .. . ... ...
ROW B5 : ... .. D ... ... ... : ... .. . ... ... ... : ... .. . ... : ... .. . ... : ... .. . ... ... : ... .. . ... ... : ... .. . ... ... : ... .. . ... ...
ROW B6 : ... .. 0 ... V00 ... : ... .. . ... ... ... : ... .. . ... : ... .. . ... : ... .. . ... ... : ... .. . ... ... : ... .. . ... ... : ... .. . ... ...
ROW B7 : ... .. . ... ... ... : ... .. . ... ... ... : ... .. . ... : ... .. . ... : ... .. . ... ... : ... .. . ... ... : ... .. . ... ... : ... .. . ... ...
ROW B8 : F-3 00 F P80 V02 ... : ... .. . ... ... ... : F-3 00 . ... : 3-# 00 F ... : ... .. . ... ... : F-3 01 A P80 ... : G#3 01 A P81 ... : ... .. . ... ...
ROW B9 : ... .. E ... ... ... : ... .. . ... ... ... : ... .. . ... : ... .. C ... : ... .. . ... ... : ... .. 9 ... ... : ... .. 9 ... ... : ... .. . ... ...
ROW BA : ... .. D ... ... ... : ... .. . ... ... ... : ... .. . ... : ... .. 6 ... : ... .. . ... ... : ... .. . ... ... : ... .. . ... ... : ... .. . ... ...
ROW BB : ... .. A ... ... ... : ... .. . ... ... ... : ... .. . ... : ... .. 3 ... : ... .. . ... ... : ... .. 8 ... ... : ... .. 8 ... ... : ... .. . ... ...
ROW BC : ... .. . ... ... ... : ... .. . ... ... ... : ... .. . ... : ... .. 2 ... : ... .. . ... ... : ... .. 7 ... ... : ... .. 7 ... ... : ... .. . ... ...
ROW BD : ... .. 0 ... V00 ... : ... .. . ... ... ... : --- .. . ... : ... .. 0 ... : ... .. . ... ... : ... .. . ... ... : ... .. . ... ... : ... .. . ... ...
ROW BE : ... .. . ... ... ... : ... .. . ... ... ... : ... .. . ... : ... .. . ... : ... .. . ... ... : ... .. 6 ... ... : ... .. 6 ... ... : ... .. . ... ...
ROW BF : ... .. . ... ... ... : ... .. . ... ... ... : ... .. . ... : ... .. . ... : ... .. . ... ... : ... .. . ... ... : ... .. . ... ... : ... .. . ... ...
ROW C0 : ... .. . ... ... ... : ... .. . ... ... ... : ... .. . ... : ... .. . ... : ... .. . ... ... : ... .. . ... ... : ... .. . ... ... : ... .. . ... ...
ROW C1 : ... .. . ... ... ... : ... .. . ... ... ... : ... .. . ... : ... .. . ... : ... .. . ... ... : ... .. . ... ... : ... .. . ... ... : ... .. . ... ...
ROW C2 : ... .. . ... ... ... : ... .. . ... ... ... : G#5 00 . ... : ... .. . ... : ... .. . ... ... : --- .. . ... ... : --- .. . P83 ... : ... .. . ... ...
ROW C3 : ... .. . ... ... ... : ... .. . ... ... ... : ... .. . ... : ... .. . ... : ... .. . ... ... : ... .. . ... ... : ... .. . ... ... : ... .. . ... ...
ROW C4 : ... .. . ... ... ... : ... .. . ... ... ... : ... .. . ... : ... .. . ... : ... .. . ... ... : ... .. . ... ... : ... .. . ... ... : ... .. . ... ...
ROW C5 : ... .. . ... ... ... : ... .. . ... ... ... : ... .. . ... : ... .. . ... : ... .. . ... ... : ... .. . ... ... : ... .. . ... ... : ... .. . ... ...
ROW C6 : ... .. . ... ... ... : ... .. . ... ... ... : ... .. . ... : ... .. . ... : ... .. . ... ... : ... .. . ... ... : ... .. . ... ... : ... .. . ... ...
ROW C7 : ... .. . ... ... ... : ... .. . ... ... ... : --- .. . ... : ... .. . ... : ... .. . ... ... : ... .. . ... ... : ... .. . ... ... : ... .. . ... ...
ROW C8 : ... .. . ... ... ... : ... .. . ... ... ... : ... .. . ... : ... .. . ... : ... .. . ... ... : ... .. . ... ... : ... .. . ... ... : ... .. . ... ...
ROW C9 : ... .. . ... ... ... : ... .. . ... ... ... : ... .. . ... : ... .. . ... : ... .. . ... ... : ... .. . ... ... : ... .. . ... ... : ... .. . ... ...
ROW CA : ... .. . ... ... ... : ... .. . ... ... ... : ... .. . ... : ... .. . ... : ... .. . ... ... : ... .. . ... ... : ... .. . ... ... : ... .. . ... ...
ROW CB : ... .. . ... ... ... : ... .. . ... ... ... : ... .. . ... : ... .. . ... : ... .. . ... ... : ... .. . ... ... : ... .. . ... ... : ... .. . ... ...
ROW CC : ... .. . ... ... ... : ... .. . ... ... ... : E-4 00 . ... : ... .. . ... : ... .. . ... ... : ... .. . ... ... : ... .. . ... ... : ... .. . ... ...
ROW CD : ... .. . ... ... ... : ... .. . ... ... ... : F#3 00 . ... : ... .. . ... : ... .. . ... ... : ... .. . ... ... : ... .. . ... ... : ... .. . ... ...
ROW CE : ... .. . ... ... ... : ... .. . ... ... ... : B-2 00 . ... : ... .. . ... : ... .. . ... ... : ... .. . ... ... : ... .. . ... ... : ... .. . ... ...
ROW CF : ... .. . ... ... ... : ... .. . ... ... ... : A#2 00 . ... : ... .. . ... : ... .. . ... ... : ... .. . ... ... : ... .. . ... ... : ... .. . ... ...
ROW D0 : ... .. . ... ... ... : ... .. . ... ... ... : F-2 00 . ... : ... .. . ... : ... .. . ... ... : ... .. . ... ... : ... .. . ... ... : ... .. . ... ...
ROW D1 : ... .. . ... ... ... : ... .. . ... ... ... : ... .. . ... : ... .. . ... : ... .. . ... ... : ... .. . ... ... : ... .. . ... ... : ... .. . ... ...
ROW D2 : ... .. . ... ... ... : ... .. . ... ... ... : ... .. . ... : ... .. . ... : ... .. . ... ... : ... .. . ... ... : ... .. . ... ... : ... .. . ... ...
ROW D3 : ... .. . ... ... ... : ... .. . ... ... ... : ... .. . ... : ... .. . ... : ... .. . ... ... : ... .. . ... ... : ... .. . ... ... : ... .. . ... ...
ROW D4 : ... .. . ... ... ... : ... .. . ... ... ... : ... .. . ... : ... .. . ... : ... .. . ... ... : ... .. . ... ... : ... .. . ... ... : ... .. . ... ...
ROW D5 : ... .. . ... ... ... : ... .. . ... ... ... : ... .. . ... : ... .. . ... : ... .. . ... ... : ... .. . ... ... : ... .. . ... ... : ... .. . ... ...
ROW D6 : F-4 00 F P80 V02 ... : ... .. . ... ... ... : --- .. . ... : ... .. . ... : ... .. . ... ... : ... .. . ... ... : ... .. . ... ... : ... .. . ... ...
ROW D7 : ... .. E ... ... ... : ... .. . ... ... ... : ... .. . ... : ... .. . ... : ... .. . ... ... : ... .. . ... ... : ... .. . ... ... : ... .. . ... ...
ROW D8 : ... .. D ... ... ... : ... .. . ... ... ... : ... .. . ... : ... .. . ... : ... .. . ... ... : ... .. . ... ... : ... .. . ... ... : ... .. . ... ...
ROW D9 : ... .. A ... ... ... : ... .. . ... ... ... : ... .. . ... : ... .. . ... : ... .. . ... ... : ... .. . ... ... : ... .. . ... ... : ... .. . ... ...
ROW DA : ... .. . ... ... ... : ... .. . ... ... ... : ... .. . ... : ... .. . ... : ... .. . ... ... : ... .. . ... ... : ... .. . ... ... : ... .. . ... ...
ROW DB : G-4 00 F ... ... ... : ... .. . ... ... ... : ... .. . ... : ... .. . ... : ... .. . ... ... : ... .. . ... ... : ... .. . ... ... : ... .. . ... ...
ROW DC : ... .. E ... ... ... : ... .. . ... ... ... : ... .. . ... : ... .. . ... : ... .. . ... ... : ... .. . ... ... : ... .. . ... ... : ... .. . ... ...
ROW DD : ... .. D ... ... ... : ... .. . ... ... ... : ... .. . ... : ... .. . ... : ... .. . ... ... : ... .. . ... ... : ... .. . ... ... : ... .. . ... ...
ROW DE : F-4 00 F ... ... ... : ... .. . ... ... ... : ... .. . ... : ... .. . ... : ... .. . ... ... : ... .. . ... ... : ... .. . ... ... : ... .. . ... ...
ROW DF : ... .. E ... ... ... : ... .. . ... ... ... : ... .. . ... : ... .. . ... : ... .. . ... ... : ... .. . ... ... : ... .. . ... ... : ... .. . ... ...
ROW E0 : E-4 00 F ... ... ... : ... .. . ... ... ... : B-3 00 . ... : ... .. F ... : ... .. . ... ... : C-3 01 A ... ... : G-3 01 A P81 ... : ... .. . ... ...
ROW E1 : ... .. E ... ... ... : ... .. . ... ... ... : C#3 00 . ... : ... .. C ... : ... .. . ... ... : ... .. 9 ... ... : ... .. 9 ... ... : ... .. . ... ...
ROW E2 : ... .. D ... ... ... : ... .. . ... ... ... : F#2 00 . ... : ... .. 6 ... : ... .. . ... ... : ... .. . ... ... : ... .. . ... ... : ... .. . ... ...
ROW E3 : ... .. A ... ... ... : ... .. . ... ... ... : F-2 00 . ... : ... .. 3 ... : ... .. . ... ... : ... .. 8 ... ... : ... .. 8 ... ... : ... .. . ... ...
ROW E4 : ... .. . ... ... ... : ... .. . ... ... ... : C-2 00 . ... : ... .. 2 ... : ... .. . ... ... : ... .. 7 ... ... : ... .. 7 ... ... : ... .. . ... ...
ROW E5 : ... .. 0 ... V00 ... : ... .. . ... ... ... : ... .. . ... : ... .. 0 ... : ... .. . ... ... : A#2 01 A ... ... : E-3 01 A ... ... : ... .. . ... ...
ROW E6 : ... .. . ... ... ... : ... .. . ... ... ... : ... .. . ... : ... .. . ... : ... .. . ... ... : ... .. 9 ... ... : ... .. 9 ... ... : ... .. . ... ...
ROW E7 : ... .. . ... ... ... : ... .. . ... ... ... : ... .. . ... : ... .. . ... : ... .. . ... ... : ... .. . ... ... : ... .. . ... ... : ... .. . ... ...
ROW E8 : ... .. . ... ... ... : ... .. . ... ... ... : ... .. . ... : ... .. . ... : ... .. . ... ... : ... .. 8 ... ... : ... .. 8 ... ... : ... .. . ... ...
ROW E9 : ... .. . ... ... ... : ... .. . ... ... ... : ... .. . ... : ... .. . ... : ... .. . ... ... : ... .. 7 ... ... : ... .. 7 ... ... : ... .. . ... ...
ROW EA : E-4 00 F P80 V02 ... : ... .. . ... ... ... : ... .. . ... : D-# 00 F ... : ... .. . ... ... : C-3 01 A ... ... : G-3 01 A ... ... : ... .. . ... ...
ROW EB : ... .. E ... ... ... : ... .. . ... ... ... : ... .. . ... : ... .. C ... : ... .. . ... ... : ... .. 9 ... ... : ... .. 9 ... ... : ... .. . ... ...
ROW EC : ... .. D ... ... ... : ... .. . ... ... ... : ... .. . ... : ... .. 6 ... : ... .. . ... ... : ... .. . ... ... : ... .. . ... ... : ... .. . ... ...
ROW ED : ... .. 0 ... V00 ... : ... .. . ... ... ... : ... .. . ... : ... .. 3 ... : ... .. . ... ... : ... .. 8 ... ... : ... .. 8 ... ... : ... .. . ... ...
ROW EE : ... .. . ... ... ... : ... .. . ... ... ... : ... .. . ... : ... .. 2 ... : ... .. . ... ... : ... .. 7 ... ... : ... .. 7 ... ... : ... .. . ... ...
ROW EF : F-4 00 F P80 V02 ... : ... .. . ... ... ... : ... .. . ... : ... .. F ... : ... .. . ... ... : A#2 01 A ... ... : E-3 01 A ... ... : ... .. . ... ...
ROW F0 : ... .. E ... ... ... : ... .. . ... ... ... : ... .. . ... : ... .. C ... : ... .. . ... ... : ... .. 9 ... ... : ... .. 9 ... ... : ... .. . ... ...
ROW F1 : ... .. D ... ... ... : ... .. . ... ... ... : ... .. . ... : ... .. 6 ... : ... .. . ... ... : ... .. . ... ... : ... .. . ... ... : ... .. . ... ...
ROW F2 : ... .. 0 ... V00 ... : ... .. . ... ... ... : ... .. . ... : ... .. 3 ... : ... .. . ... ... : ... .. 8 ... ... : ... .. 8 ... ... : ... .. . ... ...
ROW F3 : ... .. . ... ... ... : ... .. . ... ... ... : ... .. . ... : ... .. 2 ... : ... .. . ... ... : ... .. 7 ... ... : ... .. 7 ... ... : ... .. . ... ...
ROW F4 : G-4 00 F P80 V02 ... : ... .. . ... ... ... : ... .. . ... : 6-# 00 F ... : ... .. . ... ... : C-3 01 A ... ... : G-3 01 A ... ... : ... .. . ... ...
ROW F5 : ... .. E ... ... ... : ... .. . ... ... ... : ... .. . ... : ... .. C ... : ... .. . ... ... : ... .. 9 ... ... : ... .. 9 ... ... : ... .. . ... ...
ROW F6 : ... .. D ... ... ... : ... .. . ... ... ... : ... .. . ... : ... .. 6 ... : ... .. . ... ... : ... .. . ... ... : ... .. . ... ... : ... .. . ... ...
ROW F7 : ... .. A ... ... ... : ... .. . ... ... ... : ... .. . ... : ... .. 3 ... : ... .. . ... ... : ... .. 8 ... ... : ... .. 8 ... ... : ... .. . ... ...
ROW F8 : ... .. . ... ... ... : ... .. . ... ... ... : ... .. . ... : ... .. 2 ... : ... .. . ... ... : ... .. 7 ... ... : ... .. 7 ... ... : ... .. . ... ...
ROW F9 : ... .. 0 ... V00 ... : ... .. . ... ... ... : ... .. . ... : ... .. 0 ... : ... .. . ... ... : A#2 01 A ... ... : E-3 01 A ... ... : ... .. . ... ...
ROW FA : ... .. . ... ... ... : ... .. . ... ... ... : ... .. . ... : ... .. . ... : ... .. . ... ... : ... .. 9 ... ... : ... .. 9 ... ... : ... .. . ... ...
ROW FB : ... .. . ... ... ... : ... .. . ... ... ... : ... .. . ... : ... .. . ... : ... .. . ... ... : ... .. . ... ... : ... .. . ... ... : ... .. . ... ...
ROW FC : ... .. . ... ... ... : ... .. . ... ... ... : ... .. . ... : ... .. . ... : ... .. . ... ... : ... .. 8 ... ... : ... .. 8 ... ... : ... .. . ... ...
ROW FD : ... .. . ... ... ... : ... .. . ... ... ... : ... .. . ... : ... .. . ... : ... .. . ... ... : ... .. 7 ... ... : ... .. 7 ... ... : ... .. . ... ...
ROW FE : E-4 00 F P80 V02 ... : ... .. . ... ... ... : ... .. . ... : D-# 00 F ... : ... .. . ... ... : C-3 01 A ... ... : G-3 01 A ... ... : ... .. . ... ...
ROW FF : ... .. E ... ... ... : ... .. . ... ... ... : ... .. . ... : ... .. C ... : ... .. . ... ... : ... .. 9 ... ... : ... .. 9 ... ... : ... .. . ... ...

PATTERN 11
ROW 00 : ... .. D ... ... ... : ... .. . ... ... ... : ... .. . ... : ... .. 6 ... : ... .. . ... ... : ... .. . ... ... : ... .. . ... ... : ... .. . ... ...
ROW 01 : ... .. A ... ... ... : ... .. . ... ... ... : ... .. . ... : ... .. 3 ... : ... .. . ... ... : ... .. 8 ... ... : ... .. 8 ... ... : ... .. . ... ...
ROW 02 : ... .. . ... ... ... : ... .. . ... ... ... : ... .. . ... : ... .. 2 ... : ... .. . ... ... : ... .. 7 ... ... : ... .. 7 ... ... : ... .. . ... ...
ROW 03 : ... .. 0 ... V00 ... : ... .. . ... ... ... : ... .. . ... : ... .. F ... : ... .. . ... ... : A#2 01 A ... ... : E-3 01 A ... ... : ... .. . ... ...
ROW 04 : ... .. . ... ... ... : ... .. . ... ... ... : ... .. . ... : ... .. C ... : ... .. . ... ... : ... .. 9 ... ... : ... .. 9 ... ... : ... .. . ... ...
ROW 05 : ... .. . ... ... ... : ... .. . ... ... ... : ... .. . ... : ... .. 6 ... : ... .. . ... ... : ... .. . ... ... : ... .. . ... ... : ... .. . ... ...
ROW 06 : ... .. . ... ... ... : ... .. . ... ... ... : ... .. . ... : ... .. 3 ... : ... .. . ... ... : ... .. 8 ... ... : ... .. 8 ... ... : ... .. . ... ...
ROW 07 : ... .. . ... ... ... : ... .. . ... ... ... : ... .. . ... : ... .. 2 ... : ... .. . ... ... : ... .. 7 ... ... : ... .. 7 ... ... : ... .. . ... ...
ROW 08 : F-4 00 F P80 V02 ... : ... .. . ... ... ... : B-4 00 . ... : 3-# 00 F ... : ... .. . ... ... : C-3 01 A ... ... : G#3 01 A ... ... : ... .. . ... ...
ROW 09 : ... .. E ... ... ... : ... .. . ... ... ... : C#4 00 . ... : ... .. C ... : ... .. . ... ... : ... .. 9 ... ... : ... .. 9 ... ... : ... .. . ... ...
ROW 0A : ... .. D ... ... ... : ... .. . ... ... ... : F#3 00 . ... : ... .. 6 ... : ... .. . ... ... : ... .. . ... ... : ... .. . ... ... : ... .. . ... ...
ROW 0B : ... .. A ... ... ... : ... .. . ... ... ... : F-3 00 . ... : ... .. 3 ... : ... .. . ... ... : ... .. 8 ... ... : ... .. 8 ... ... : ... .. . ... ...
ROW 0C : ... .. . ... ... ... : ... .. . ... ... ... : C-3 00 . ... : ... .. 2 ... : ... .. . ... ... : ... .. 7 ... ... : ... .. 7 ... ... : ... .. . ... ...
ROW 0D : ... .. 0 ... V00 ... : ... .. . ... ... ... : ... .. . ... : ... .. 0 ... : ... .. . ... ... : G#2 01 A ... ... : F-3 01 A ... ... : ... .. . ... ...
ROW 0E : ... .. . ... ... ... : ... .. . ... ... ... : ... .. . ... : ... .. . ... : ... .. . ... ... : ... .. 9 ... ... : ... .. 9 ... ... : ... .. . ... ...
ROW 0F : ... .. . ... ... ... : ... .. . ... ... ... : ... .. . ... : ... .. . ... : ... .. . ... ... : ... .. . ... ... : ... .. . ... ... : ... .. . ... ...
ROW 10 : ... .. . ... ... ... : ... .. . ... ... ... : ... .. . ... : ... .. . ... : ... .. . ... ... : ... .. 8 ... ... : ... .. 8 ... ... : ... .. . ... ...
ROW 11 : ... .. . ... ... ... : ... .. . ... ... ... : ... .. . ... : ... .. . ... : ... .. . ... ... : ... .. 7 ... ... : ... .. 7 ... ... : ... .. . ... ...
ROW 12 : F-4 00 F P80 V02 ... : ... .. . ... ... ... : ... .. . ... : D-# 00 F ... : ... .. . ... ... : C-3 01 A ... ... : G#3 01 A ... ... : ... .. . ... ...
ROW 13 : ... .. E ... ... ... : ... .. . ... ... ... : ... .. . ... : ... .. C ... : ... .. . ... ... : ... .. 9 ... ... : ... .. 9 ... ... : ... .. . ... ...
ROW 14 : ... .. D ... ... ... : ... .. . ... ... ... : ... .. . ... : ... .. 6 ... : ... .. . ... ... : ... .. . ... ... : ... .. . ... ... : ... .. . ... ...
ROW 15 : ... .. 0 ... V00 ... : ... .. . ... ... ... : ... .. . ... : ... .. 3 ... : ... .. . ... ... : ... .. 8 ... ... : ... .. 8 ... ... : ... .. . ... ...
ROW 16 : ... .. . ... ... ... : ... .. . ... ... ... : ... .. . ... : ... .. 2 ... : ... .. . ... ... : ... .. 7 ... ... : ... .. 7 ... ... : ... .. . ... ...
ROW 17 : G-4 00 F P80 V02 ... : ... .. . ... ... ... : ... .. . ... : ... .. F ... : ... .. . ... ... : G#2 01 A ... ... : F-3 01 A ... ... : ... .. . ... ...
ROW 18 : ... .. E ... ... ... : ... .. . ... ... ... : ... .. . ... : ... .. C ... : ... .. . ... ... : ... .. 9 ... ... : ... .. 9 ... ... : ... .. . ... ...
ROW 19 : ... .. D ... ... ... : ... .. . ... ... ... : ... .. . ... : ... .. 6 ... : ... .. . ... ... : ... .. . ... ... : ... .. . ... ... : ... .. . ... ...
ROW 1A : ... .. 0 ... V00 ... : ... .. . ... ... ... : ... .. . ... : ... .. 3 ... : ... .. . ... ... : ... .. 8 ... ... : ... .. 8 ... ... : ... .. . ... ...
ROW 1B : ... .. . ... ... ... : ... .. . ... ... ... : ... .. . ... : ... .. 2 ... : ... .. . ... ... : ... .. 7 ... ... : ... .. 7 ... ... : ... .. . ... ...
ROW 1C : G#4 00 F P80 V02 ... : ... .. . ... ... ... : ... .. . ... : 6-# 00 F ... : ... .. . ... ... : C-3 01 A ... ... : G#3 01 A ... ... : ... .. . ... ...
ROW 1D : ... .. E ... ... ... : ... .. . ... ... ... : ... .. . ... : ... .. C ... : ... .. . ... ... : ... .. 9 ... ... : ... .. 9 ... ... : ... .. . ... ...
ROW 1E : ... .. D ... ... ... : ... .. . ... ... ... : ... .. . ... : ... .. 6 ... : ... .. . ... ... : ... .. . ... ... : ... .. . ... ... : ... .. . ... ...
ROW 1F : ... .. A ... ... ... : ... .. . ... ... ... : ... .. . ... : ... .. 3 ... : ... .. . ... ... : ... .. 8 ... ... : ... .. 8 ... ... : ... .. . ... ...
ROW 20 : ... .. . ... ... ... : ... .. . ... ... ... : ... .. . ... : ... .. 2 ... : ... .. . ... ... : ... .. 7 ... ... : ... .. 7 ... ... : ... .. . ... ...
ROW 21 : ... .. 0 ... V00 ... : ... .. . ... ... ... : ... .. . ... : ... .. 0 ... : ... .. . ... ... : G#2 01 A ... ... : F-3 01 A ... ... : ... .. . ... ...
ROW 22 : ... .. . ... ... ... : ... .. . ... ... ... : ... .. . ... : ... .. . ... : ... .. . ... ... : ... .. 9 ... ... : ... .. 9 ... ... : ... .. . ... ...
ROW 23 : ... .. . ... ... ... : ... .. . ... ... ... : ... .. . ... : ... .. . ... : ... .. . ... ... : ... .. . ... ... : ... .. . ... ... : ... .. . ... ...
ROW 24 : ... .. . ... ... ... : ... .. . ... ... ... : ... .. . ... : ... .. . ... : ... .. . ... ... : ... .. 8 ... ... : ... .. 8 ... ... : ... .. . ... ...
ROW 25 : ... .. . ... ... ... : ... .. . ... ... ... : ... .. . ... : ... .. . ... : ... .. . ... ... : ... .. 7 ... ... : ... .. 7 ... ... : ... .. . ... ...
ROW 26 : F-4 00 F P80 V02 ... : ... .. . ... ... ... : ... .. . ... : D-# 00 F ... : ... .. . ... ... : C-3 01 A ... ... : G#3 01 A ... ... : ... .. . ... ...
ROW 27 : ... .. E ... ... ... : ... .. . ... ... ... : ... .. . ... : ... .. C ... : ... .. . ... ... : ... .. 9 ... ... : ... .. 9 ... ... : ... .. . ... ...
ROW 28 : ... .. D ... ... ... : ... .. . ... ... ... : ... .. . ... : ... .. 6 ... : ... .. . ... ... : ... .. . ... ... : ... .. . ... ... : ... .. . ... ...
ROW 29 : ... .. A ... ... ... : ... .. . ... ... ... : ... .. . ... : ... .. 3 ... : ... .. . ... ... : ... .. 8 ... ... : ... .. 8 ... ... : ... .. . ... ...
ROW 2A : ... .. . ... ... ... : ... .. . ... ... ... : ... .. . ... : ... .. 2 ... : ... .. . ... ... : ... .. 7 ... ... : ... .. 7 ... ... : ... .. . ... ...
ROW 2B : ... .. 0 ... V00 ... : ... .. . ... ... ... : ... .. . ... : ... .. 0 ... : ... .. . ... ... : G#2 01 A ... ... : F-3 01 A ... ... : ... .. . ... ...
ROW 2C : ... .. . ... ... ... : ... .. . ... ... ... : ... .. . ... : ... .. . ... : ... .. . ... ... : ... .. 9 ... ... : ... .. 9 ... ... : ... .. . ... ...
ROW 2D : ... .. . ... ... ... : ... .. . ... ... ... : ... .. . ... : ... .. . ... : ... .. . ... ... : ... .. . ... ... : ... .. . ... ... : ... .. . ... ...
ROW 2E : ... .. . ... ... ... : ... .. . ... ... ... : ... .. . ... : ... .. . ... : ... .. . ... ... : ... .. 8 ... ... : ... .. 8 ... ... : ... .. . ... ...
ROW 2F : ... .. . ... ... ... : ... .. . ... ... ... : ... .. . ... : ... .. . ... : ... .. . ... ... : ... .. 7 ... ... : ... .. 7 ... ... : ... .. . ... ...
ROW 30 : G-4 00 F P80 V02 ... : ... .. . ... ... ... : A-5 00 . ... : 3-# 00 F ... : ... .. . ... ... : D#3 01 A ... ... : A#3 01 A ... ... : ... .. . ... ...
ROW 31 : ... .. E ... ... ... : ... .. . ... ... ... : B-4 00 . ... : ... .. C ... : ... .. . ... ... : ... .. 9 ... ... : ... .. 9 ... ... : ... .. . ... ...
ROW 32 : ... .. D ... ... ... : ... .. . ... ... ... : E-4 00 . ... : ... .. 6 ... : ... .. . ... ... : ... .. . ... ... : ... .. . ... ... : ... .. . ... ...
ROW 33 : ... .. A ... ... ... : ... .. . ... ... ... : D#4 00 . ... : ... .. 3 ... : ... .. . ... ... : ... .. 8 ... ... : ... .. 8 ... ... : ... .. . ... ...
ROW 34 : ... .. . ... ... ... : ... .. . ... ... ... : A#3 00 . ... : ... .. 2 ... : ... .. . ... ... : ... .. 7 ... ... : ... .. 7 ... ... : ... .. . ... ...
ROW 35 : ... .. . ... ... ... : ... .. . ... ... ... : ... .. . ... : ... .. 0 ... : ... .. . ... ... : A#2 01 A ... ... : G-3 01 A ... ... : ... .. . ... ...
ROW 36 : ... .. . ... ... ... : ... .. . ... ... ... : ... .. . ... : ... .. . ... : ... .. . ... ... : ... .. 9 ... ... : ... .. 9 ... ... : ... .. . ... ...
ROW 37 : ... .. . ... ... ... : ... .. . ... ... ... : ... .. . ... : ... .. . ... : ... .. . ... ... : ... .. . ... ... : ... .. . ... ... : ... .. . ... ...
ROW 38 : ... .. . ... ... ... : ... .. . ... ... ... : ... .. . ... : ... .. . ... : ... .. . ... ... : ... .. 8 ... ... : ... .. 8 ... ... : ... .. . ... ...
ROW 39 : ... .. . ... ... ... : ... .. . ... ... ... : ... .. . ... : ... .. . ... : ... .. . ... ... : ... .. 7 ... ... : ... .. 7 ... ... : ... .. . ... ...
ROW 3A : ... .. F ... ... ... : ... .. . ... ... ... : ... .. . ... : D-# 00 F ... : ... .. . ... ... : D#3 01 A ... ... : A#3 01 A ... ... : ... .. . ... ...
ROW 3B : ... .. E ... ... ... : ... .. . ... ... ... : ... .. . ... : ... .. C ... : ... .. . ... ... : ... .. 9 ... ... : ... .. 9 ... ... : ... .. . ... ...
ROW 3C : ... .. D ... ... ... : ... .. . ... ... ... : ... .. . ... : ... .. 6 ... : ... .. . ... ... : ... .. . ... ... : ... .. . ... ... : ... .. . ... ...
ROW 3D : ... .. 0 ... V00 ... : ... .. . ... ... ... : ... .. . ... : ... .. 3 ... : ... .. . ... ... : ... .. 8 ... ... : ... .. 8 ... ... : ... .. . ... ...
ROW 3E : ... .. . ... ... ... : ... .. . ... ... ... : ... .. . ... : ... .. 2 ... : ... .. . ... ... : ... .. 7 ... ... : ... .. 7 ... ... : ... .. . ... ...
ROW 3F : G#4 00 F P80 V02 ... : ... .. . ... ... ... : ... .. . ... : ... .. F ... : ... .. . ... ... : A#2 01 A ... ... : G-3 01 A ... ... : ... .. . ... ...
ROW 40 : ... .. E ... ... ... : ... .. . ... ... ... : ... .. . ... : ... .. C ... : ... .. . ... ... : ... .. 9 ... ... : ... .. 9 ... ... : ... .. . ... ...
ROW 41 : ... .. D ... ... ... : ... .. . ... ... ... : ... .. . ... : ... .. 6 ... : ... .. . ... ... : ... .. . ... ... : ... .. . ... ... : ... .. . ... ...
ROW 42 : ... .. 0 ... V00 ... : ... .. . ... ... ... : ... .. . ... : ... .. 3 ... : ... .. . ... ... : ... .. 8 ... ... : ... .. 8 ... ... : ... .. . ... ...
ROW 43 : ... .. . ... ... ... : ... .. . ... ... ... : ... .. . ... : ... .. 2 ... : ... .. . ... ... : ... .. 7 ... ... : ... .. 7 ... ... : ... .. . ... ...
ROW 44 : A#4 00 F P80 V02 ... : ... .. . ... ... ... : D#4 00 . ... : 6-# 00 F ... : ... .. . ... ... : D#3 01 A ... ... : A#3 01 A ... ... : ... .. . ... ...
ROW 45 : ... .. E ... ... ... : ... .. . ... ... ... : ... .. . ... : ... .. C ... : ... .. . ... ... : ... .. 9 ... ... : ... .. 9 ... ... : ... .. . ... ...
ROW 46 : ... .. D ... ... ... : ... .. . ... ... ... : ... .. . ... : ... .. 6 ... : ... .. . ... ... : ... .. . ... ... : ... .. . ... ... : ... .. . ... ...
ROW 47 : ... .. A ... ... ... : ... .. . ... ... ... : --- .. . ... : ... .. 3 ... : ... .. . ... ... : ... .. 8 ... ... : ... .. 8 ... ... : ... .. . ... ...
ROW 48 : ... .. . ... ... ... : ... .. . ... ... ... : ... .. . ... : ... .. 2 ... : ... .. . ... ... : ... .. 7 ... ... : ... .. 7 ... ... : ... .. . ... ...
ROW 49 : ... .. 0 ... V00 ... : ... .. . ... ... ... : C#4 00 . ... : ... .. 0 ... : ... .. . ... ... : A#2 01 A ... ... : G-3 01 A ... ... : ... .. . ... ...
ROW 4A : ... .. . ... ... ... : ... .. . ... ... ... : ... .. . ... : ... .. . ... : ... .. . ... ... : ... .. 9 ... ... : ... .. 9 ... ... : ... .. . ... ...
ROW 4B : ... .. . ... ... ... : ... .. . ... ... ... : ... .. . ... : ... .. . ... : ... .. . ... ... : ... .. . ... ... : ... .. . ... ... : ... .. . ... ...
ROW 4C : ... .. . ... ... ... : ... .. . ... ... ... : --- .. . ... : ... .. . ... : ... .. . ... ... : ... .. 8 ... ... : ... .. 8 ... ... : ... .. . ... ...
ROW 4D : ... .. . ... ... ... : ... .. . ... ... ... : ... .. . ... : ... .. . ... : ... .. . ... ... : ... .. 7 ... ... : ... .. 7 ... ... : ... .. . ... ...
ROW 4E : D#4 00 F P80 V02 ... : ... .. . ... ... ... : C-4 00 . ... : D-# 00 F ... : ... .. . ... ... : D#3 01 A ... ... : A#3 01 A ... ... : ... .. . ... ...
ROW 4F : ... .. E ... ... ... : ... .. . ... ... ... : ... .. . ... : ... .. C ... : ... .. . ... ... : ... .. 9 ... ... : ... .. 9 ... ... : ... .. . ... ...
ROW 50 : ... .. D ... ... ... : ... .. . ... ... ... : ... .. . ... : ... .. 6 ... : ... .. . ... ... : ... .. . ... ... : ... .. . ... ... : ... .. . ... ...
ROW 51 : ... .. A ... ... ... : ... .. . ... ... ... : --- .. . ... : ... .. 3 ... : ... .. . ... ... : ... .. 8 ... ... : ... .. 8 ... ... : ... .. . ... ...
ROW 52 : ... .. . ... ... ... : ... .. . ... ... ... : ... .. . ... : ... .. 2 ... : ... .. . ... ... : ... .. 7 ... ... : ... .. 7 ... ... : ... .. . ... ...
ROW 53 : ... .. 0 ... V00 ... : ... .. . ... ... ... : A#3 00 . ... : ... .. 0 ... : ... .. . ... ... : A#2 01 A ... ... : G-3 01 A ... ... : ... .. . ... ...
ROW 54 : ... .. . ... ... ... : ... .. . ... ... ... : ... .. . ... : ... .. . ... : ... .. . ... ... : ... .. 9 ... ... : ... .. 9 ... ... : ... .. . ... ...
ROW 55 : ... .. . ... ... ... : ... .. . ... ... ... : ... .. . ... : ... .. . ... : ... .. . ... ... : ... .. . ... ... : ... .. . ... ... : ... .. . ... ...
ROW 56 : ... .. . ... ... ... : ... .. . ... ... ... : --- .. . ... : ... .. . ... : ... .. . ... ... : ... .. 8 ... ... : ... .. 8 ... ... : ... .. . ... ...
ROW 57 : ... .. . ... ... ... : ... .. . ... ... ... : ... .. . ... : ... .. . ... : ... .. . ... ... : ... .. 7 ... ... : ... .. 7 ... ... : ... .. . ... ...
ROW 58 : D#5 00 F P80 V02 ... : ... .. . ... ... ... : G#3 00 . ... : 3-# 00 F ... : ... .. . ... ... : D#3 01 A ... ... : C-4 01 A ... ... : ... .. . ... ...
ROW 59 : ... .. E ... ... ... : ... .. . ... ... ... : ... .. . ... : ... .. C ... : ... .. . ... ... : ... .. 9 ... ... : ... .. 9 ... ... : ... .. . ... ...
ROW 5A : ... .. D ... ... ... : ... .. . ... ... ... : ... .. . ... : ... .. 6 ... : ... .. . ... ... : ... .. . ... ... : ... .. . ... ... : ... .. . ... ...
ROW 5B : ... .. A ... ... ... : ... .. . ... ... ... : ... .. . ... : ... .. 3 ... : ... .. . ... ... : ... .. 8 ... ... : ... .. 8 ... ... : ... .. . ... ...
ROW 5C : ... .. . ... ... ... : ... .. . ... ... ... : ... .. . ... : ... .. 2 ... : ... .. . ... ... : --- .. . P83 ... : ... .. 7 ... ... : ... .. . ... ...
ROW 5D : ... .. . ... ... ... : ... .. . ... ... ... : --- .. . ... : ... .. 0 ... : ... .. . ... ... : G#3 01 A P80 ... : ... .. . ... ... : ... .. . ... ...
ROW 5E : ... .. . ... ... ... : ... .. . ... ... ... : ... .. . ... : ... .. . ... : ... .. . ... ... : ... .. 9 ... ... : ... .. 6 ... ... : ... .. . ... ...
ROW 5F : ... .. . ... ... ... : ... .. . ... ... ... : ... .. . ... : ... .. . ... : ... .. . ... ... : ... .. . ... ... : ... .. . ... ... : ... .. . ... ...
ROW 60 : ... .. . ... ... ... : ... .. . ... ... ... : ... .. . ... : ... .. . ... : ... .. . ... ... : ... .. 8 ... ... : ... .. . ... ... : ... .. . ... ...
ROW 61 : ... .. . ... ... ... : ... .. . ... ... ... : ... .. . ... : ... .. . ... : ... .. . ... ... : --- .. . P82 ... : ... .. . ... ... : ... .. . ... ...
ROW 62 : D#4 00 F ... ... ... : ... .. . ... ... ... : C-5 00 . ... : D-# 00 F ... : ... .. . ... ... : D#3 01 A P80 ... : D#4 01 A ... ... : ... .. . ... ...
ROW 63 : ... .. E ... ... ... : ... .. . ... ... ... : ... .. . ... : ... .. C ... : ... .. . ... ... : ... .. 9 ... ... : ... .. 9 ... ... : ... .. . ... ...
ROW 64 : ... .. D ... ... ... : ... .. . ... ... ... : ... .. . ... : ... .. 6 ... : ... .. . ... ... : ... .. . ... ... : ... .. . ... ... : ... .. . ... ...
ROW 65 : ... .. A ... ... ... : ... .. . ... ... ... : ... .. . ... : ... .. 3 ... : ... .. . ... ... : ... .. 8 ... ... : ... .. 8 ... ... : ... .. . ... ...
ROW 66 : ... .. . ... ... ... : ... .. . ... ... ... : ... .. . ... : ... .. 2 ... : ... .. . ... ... : --- .. . P83 ... : ... .. 7 ... ... : ... .. . ... ...
ROW 67 : ... .. 0 ... V00 ... : ... .. . ... ... ... : --- .. . ... : ... .. F ... : ... .. . ... ... : G#3 01 A P80 ... : C-4 01 A ... ... : ... .. . ... ...
ROW 68 : ... .. . ... ... ... : ... .. . ... ... ... : ... .. . ... : ... .. C ... : ... .. . ... ... : ... .. 9 ... ... : ... .. 9 ... ... : ... .. . ... ...
ROW 69 : ... .. . ... ... ... : ... .. . ... ... ... : ... .. . ... : ... .. 6 ... : ... .. . ... ... : ... .. . ... ... : ... .. . ... ... : ... .. . ... ...
ROW 6A : ... .. . ... ... ... : ... .. . ... ... ... : ... .. . ... : ... .. 3 ... : ... .. . ... ... : ... .. 8 ... ... : ... .. 8 ... ... : ... .. . ... ...
ROW 6B : ... .. . ... ... ... : ... .. . ... ... ... : ... .. . ... : ... .. 2 ... : ... .. . ... ... : --- .. . P82 ... : ... .. 7 ... ... : ... .. . ... ...
ROW 6C : D-5 00 F P80 V02 ... : ... .. . ... ... ... : G-3 00 . ... : 6-# 00 F ... : ... .. . ... ... : D-3 01 A P80 ... : B-3 01 A ... ... : ... .. . ... ...
ROW 6D : ... .. E ... ... ... : ... .. . ... ... ... : ... .. . ... : ... .. C ... : ... .. . ... ... : ... .. 9 ... ... : ... .. 9 ... ... : ... .. . ... ...
ROW 6E : ... .. D ... ... ... : ... .. . ... ... ... : ... .. . ... : ... .. 6 ... : ... .. . ... ... : ... .. . ... ... : ... .. . ... ... : ... .. . ... ...
ROW 6F : ... .. A ... ... ... : ... .. . ... ... ... : ... .. . ... : ... .. 3 ... : ... .. . ... ... : ... .. 8 ... ... : ... .. 8 ... ... : ... .. . ... ...
ROW 70 : ... .. . ... ... ... : ... .. . ... ... ... : ... .. . ... : ... .. 2 ... : ... .. . ... ... : --- .. . P82 ... : ... .. 7 ... ... : ... .. . ... ...
ROW 71 : ... .. . ... ... ... : ... .. . ... ... ... : --- .. . ... : ... .. 0 ... : ... .. . ... ... : G-3 01 A P80 ... : ... .. . ... ... : ... .. . ... ...
ROW 72 : ... .. . ... ... ... : ... .. . ... ... ... : ... .. . ... : ... .. . ... : ... .. . ... ... : ... .. 9 ... ... : ... .. 6 ... ... : ... .. . ... ...
ROW 73 : ... .. . ... ... ... : ... .. . ... ... ... : ... .. . ... : ... .. . ... : ... .. . ... ... : ... .. . ... ... : ... .. . ... ... : ... .. . ... ...
ROW 74 : ... .. . ... ... ... : ... .. . ... ... ... : ... .. . ... : ... .. . ... : ... .. . ... ... : ... .. 8 ... ... : ... .. . ... ... : ... .. . ... ...
ROW 75 : ... .. . ... ... ... : ... .. . ... ... ... : ... .. . ... : ... .. . ... : ... .. . ... ... : --- .. . P81 ... : ... .. . ... ... : ... .. . ... ...
ROW 76 : D-4 00 F ... ... ... : ... .. . ... ... ... : B-4 00 . ... : D-# 00 F ... : ... .. . ... ... : D-3 01 A P80 ... : D-4 01 A ... ... : ... .. . ... ...
ROW 77 : ... .. E ... ... ... : ... .. . ... ... ... : ... .. . ... : ... .. C ... : ... .. . ... ... : ... .. 9 ... ... : ... .. 9 ... ... : ... .. . ... ...
ROW 78 : ... .. D ... ... ... : ... .. . ... ... ... : ... .. . ... : ... .. 6 ... : ... .. . ... ... : ... .. . ... ... : ... .. . ... ... : ... .. . ... ...
ROW 79 : ... .. A ... ... ... : ... .. . ... ... ... : ... .. . ... : ... .. 3 ... : ... .. . ... ... : ... .. 8 ... ... : ... .. 8 ... ... : ... .. . ... ...
ROW 7A : ... .. . ... ... ... : ... .. . ... ... ... : ... .. . ... : ... .. 2 ... : ... .. . ... ... : --- .. . P82 ... : ... .. 7 ... ... : ... .. . ... ...
ROW 7B : ... .. 0 ... V00 ... : ... .. . ... ... ... : --- .. . ... : ... .. F ... : ... .. . ... ... : G-3 01 A P80 ... : B-3 01 A ... ... : ... .. . ... ...
ROW 7C : ... .. . ... ... ... : ... .. . ... ... ... : ... .. . ... : ... .. C ... : ... .. . ... ... : ... .. 9 ... ... : ... .. 9 ... ... : ... .. . ... ...
ROW 7D : ... .. . ... ... ... : ... .. . ... ... ... : ... .. . ... : ... .. 6 ... : ... .. . ... ... : ... .. . ... ... : ... .. . ... ... : ... .. . ... ...
ROW 7E : ... .. . ... ... ... : ... .. . ... ... ... : ... .. . ... : ... .. 3 ... : ... .. . ... ... : ... .. 8 ... ... : ... .. 8 ... ... : ... .. . ... ...
ROW 7F : ... .. . ... ... ... : ... .. . ... ... ... : ... .. . ... : ... .. 2 ... : ... .. . ... ... : --- .. . P81 ... : ... .. 7 ... ... : ... .. . ... ...
ROW 80 : C#5 00 F P80 V02 ... : ... .. . ... ... ... : F#3 00 . ... : 3-# 00 F ... : ... .. . ... ... : C#3 01 A P80 ... : A#3 01 A ... ... : ... .. . ... ...
ROW 81 : ... .. E ... ... ... : ... .. . ... ... ... : ... .. . ... : ... .. C ... : ... .. . ... ... : ... .. 9 ... ... : ... .. 9 ... ... : ... .. . ... ...
ROW 82 : ... .. D ... ... ... : ... .. . ... ... ... : ... .. . ... : ... .. 6 ... : ... .. . ... ... : ... .. . ... ... : ... .. . ... ... : ... .. . ... ...
ROW 83 : ... .. A ... ... ... : ... .. . ... ... ... : ... .. . ... : ... .. 3 ... : ... .. . ... ... : ... .. 8 ... ... : ... .. 8 ... ... : ... .. . ... ...
ROW 84 : ... .. . ... ... ... : ... .. . ... ... ... : ... .. . ... : ... .. 2 ... : ... .. . ... ... : --- .. . P83 ... : ... .. 7 ... ... : ... .. . ... ...
ROW 85 : ... .. 0 ... V00 ... : ... .. . ... ... ... : --- .. . ... : ... .. 0 ... : ... .. . ... ... : F#3 01 A P80 ... : ... .. . ... ... : ... .. . ... ...
ROW 86 : ... .. . ... ... ... : ... .. . ... ... ... : ... .. . ... : ... .. . ... : ... .. . ... ... : ... .. 9 ... ... : ... .. 6 ... ... : ... .. . ... ...
ROW 87 : ... .. . ... ... ... : ... .. . ... ... ... : ... .. . ... : ... .. . ... : ... .. . ... ... : ... .. . ... ... : ... .. . ... ... : ... .. . ... ...
ROW 88 : ... .. . ... ... ... : ... .. . ... ... ... : ... .. . ... : ... .. . ... : ... .. . ... ... : ... .. 8 ... ... : ... .. . ... ... : ... .. . ... ...
ROW 89 : ... .. . ... ... ... : ... .. . ... ... ... : ... .. . ... : ... .. . ... : ... .. . ... ... : --- .. . P7F ... : ... .. . ... ... : ... .. . ... ...
ROW 8A : C#4 00 F P80 V02 ... : ... .. . ... ... ... : E-4 00 . ... : D-# 00 F ... : ... .. . ... ... : C#3 01 A P80 ... : C#4 01 A ... ... : ... .. . ... ...
ROW 8B : ... .. E ... ... ... : ... .. . ... ... ... : ... .. . ... : ... .. C ... : ... .. . ... ... : ... .. 9 ... ... : ... .. 9 ... ... : ... .. . ... ...
ROW 8C : ... .. D ... ... ... : ... .. . ... ... ... : ... .. . ... : ... .. 6 ... : ... .. . ... ... : ... .. . ... ... : ... .. . ... ... : ... .. . ... ...
ROW 8D : ... .. A ... ... ... : ... .. . ... ... ... : ... .. . ... : ... .. 3 ... : ... .. . ... ... : ... .. 8 ... ... : ... .. 8 ... ... : ... .. . ... ...
ROW 8E : ... .. . ... ... ... : ... .. . ... ... ... : ... .. . ... : ... .. 2 ... : ... .. . ... ... : --- .. . P83 ... : ... .. 7 ... ... : ... .. . ... ...
ROW 8F : ... .. 0 ... V00 ... : ... .. . ... ... ... : --- .. . ... : ... .. F ... : ... .. . ... ... : F#3 01 A P80 ... : A#3 01 A ... ... : ... .. . ... ...
ROW 90 : ... .. . ... ... ... : ... .. . ... ... ... : ... .. . ... : ... .. C ... : ... .. . ... ... : ... .. 9 ... ... : ... .. 9 ... ... : ... .. . ... ...
ROW 91 : ... .. . ... ... ... : ... .. . ... ... ... : ... .. . ... : ... .. 6 ... : ... .. . ... ... : ... .. . ... ... : ... .. . ... ... : ... .. . ... ...
ROW 92 : ... .. . ... ... ... : ... .. . ... ... ... : ... .. . ... : ... .. 3 ... : ... .. . ... ... : ... .. 8 ... ... : ... .. 8 ... ... : ... .. . ... ...
ROW 93 : ... .. . ... ... ... : ... .. . ... ... ... : ... .. . ... : ... .. 2 ... : ... .. . ... ... : --- .. . P7F ... : ... .. 7 ... ... : ... .. . ... ...
ROW 94 : C-5 00 F P80 V02 ... : ... .. . ... ... ... : F-3 00 . ... : 6-# 00 F ... : ... .. . ... ... : C-3 01 A P80 ... : G#3 01 A ... ... : ... .. . ... ...
ROW 95 : ... .. E ... ... ... : ... .. . ... ... ... : ... .. . ... : ... .. C ... : ... .. . ... ... : ... .. 9 ... ... : ... .. 9 ... ... : ... .. . ... ...
ROW 96 : ... .. D ... ... ... : ... .. . ... ... ... : ... .. . ... : ... .. 6 ... : ... .. . ... ... : ... .. . ... ... : ... .. . ... ... : ... .. . ... ...
ROW 97 : ... .. A ... ... ... : ... .. . ... ... ... : ... .. . ... : ... .. 3 ... : ... .. . ... ... : ... .. 8 ... ... : ... .. 8 ... ... : ... .. . ... ...
ROW 98 : ... .. . ... ... ... : ... .. . ... ... ... : ... .. . ... : ... .. 2 ... : ... .. . ... ... : --- .. . P7E ... : ... .. 7 ... ... : ... .. . ... ...
ROW 99 : ... .. 0 ... V00 ... : ... .. . ... ... ... : --- .. . ... : ... .. 0 ... : ... .. . ... ... : F-3 01 A P80 ... : ... .. . ... ... : ... .. . ... ...
ROW 9A : ... .. . ... ... ... : ... .. . ... ... ... : ... .. . ... : ... .. . ... : ... .. . ... ... : ... .. 9 ... ... : ... .. 6 ... ... : ... .. . ... ...
ROW 9B : ... .. . ... ... ... : ... .. . ... ... ... : ... .. . ... : ... .. . ... : ... .. . ... ... : ... .. . ... ... : ... .. . ... ... : ... .. . ... ...
ROW 9C : ... .. . ... ... ... : ... .. . ... ... ... : ... .. . ... : ... .. . ... : ... .. . ... ... : ... .. 8 ... ... : ... .. . ... ... : ... .. . ... ...
ROW 9D : ... .. . ... ... ... : ... .. . ... ... ... : ... .. . ... : ... .. . ... : ... .. . ... ... : --- .. . ... ... : ... .. . ... ... : ... .. . ... ...
ROW 9E : C-4 00 F P80 V02 ... : ... .. . ... ... ... : G#4 00 . ... : D-# 00 F ... : ... .. . ... ... : C-3 01 A ... ... : C-4 01 A ... ... : ... .. . ... ...
ROW 9F : ... .. E ... ... ... : ... .. . ... ... ... : ... .. . ... : ... .. C ... : ... .. . ... ... : ... .. 9 ... ... : ... .. 9 ... ... : ... .. . ... ...
ROW A0 : ... .. D ... ... ... : ... .. . ... ... ... : ... .. . ... : ... .. 6 ... : ... .. . ... ... : ... .. . ... ... : ... .. . ... ... : ... .. . ... ...
ROW A1 : ... .. A ... ... ... : ... .. . ... ... ... : ... .. . ... : ... .. 3 ... : ... .. . ... ... : ... .. 8 ... ... : ... .. 8 ... ... : ... .. . ... ...
ROW A2 : ... .. . ... ... ... : ... .. . ... ... ... : ... .. . ... : ... .. 2 ... : ... .. . ... ... : --- .. . P7E ... : ... .. 7 ... ... : ... .. . ... ...
ROW A3 : ... .. 0 ... V00 ... : ... .. . ... ... ... : --- .. . ... : ... .. 0 ... : ... .. . ... ... : F-3 01 A P80 ... : G#3 01 A ... ... : ... .. . ... ...
ROW A4 : ... .. . ... ... ... : ... .. . ... ... ... : ... .. . ... : ... .. . ... : ... .. . ... ... : ... .. 9 ... ... : ... .. 9 ... ... : ... .. . ... ...
ROW A5 : ... .. . ... ... ... : ... .. . ... ... ... : ... .. . ... : ... .. . ... : ... .. . ... ... : ... .. . ... ... : ... .. . ... ... : ... .. . ... ...
ROW A6 : ... .. . ... ... ... : ... .. . ... ... ... : ... .. . ... : ... .. . ... : ... .. . ... ... : ... .. 8 ... ... : ... .. 8 ... ... : ... .. . ... ...
ROW A7 : ... .. . ... ... ... : ... .. . ... ... ... : ... .. . ... : ... .. . ... : ... .. . ... ... : --- .. . ... ... : ... .. 7 ... ... : ... .. . ... ...
ROW A8 : B-4 00 F P80 V02 ... : ... .. . ... ... ... : C#3 00 . ... : 3-# 00 F ... : ... .. . ... ... : B-2 01 A ... ... : G-3 01 A ... ... : ... .. . ... ...
ROW A9 : ... .. E ... ... ... : ... .. . ... ... ... : ... .. . ... : ... .. C ... : ... .. . ... ... : ... .. 9 ... ... : ... .. 9 ... ... : ... .. . ... ...
ROW AA : ... .. D ... ... ... : ... .. . ... ... ... : ... .. . ... : ... .. 6 ... : ... .. . ... ... : ... .. . ... ... : ... .. . ... ... : ... .. . ... ...
ROW AB : ... .. A ... ... ... : ... .. . ... ... ... : ... .. . ... : ... .. 3 ... : ... .. . ... ... : ... .. 8 ... ... : ... .. 8 ... ... : ... .. . ... ...
ROW AC : ... .. . ... ... ... : ... .. . ... ... ... : ... .. . ... : ... .. 2 ... : ... .. . ... ... : --- .. . P85 ... : ... .. 7 ... ... : ... .. . ... ...
ROW AD : ... .. 0 ... V00 ... : ... .. . ... ... ... : --- .. . ... : ... .. 0 ... : ... .. . ... ... : F-3 01 A P80 ... : ... .. . ... ... : ... .. . ... ...
ROW AE : ... .. . ... ... ... : ... .. . ... ... ... : ... .. . ... : ... .. . ... : ... .. . ... ... : ... .. 9 ... ... : ... .. 6 ... ... : ... .. . ... ...
ROW AF : ... .. . ... ... ... : ... .. . ... ... ... : ... .. . ... : ... .. . ... : ... .. . ... ... : ... .. . ... ... : ... .. . ... ... : ... .. . ... ...
ROW B0 : ... .. . ... ... ... : ... .. . ... ... ... : ... .. . ... : ... .. . ... : ... .. . ... ... : ... .. 8 ... ... : ... .. . ... ... : ... .. . ... ...
ROW B1 : ... .. . ... ... ... : ... .. . ... ... ... : ... .. . ... : ... .. . ... : ... .. . ... ... : --- .. . ... ... : ... .. . ... ... : ... .. . ... ...
ROW B2 : B-3 00 F P80 V02 ... : ... .. . ... ... ... : F-4 00 . ... : D-# 00 F ... : ... .. . ... ... : B-2 01 A ... ... : ... .. . ... ... : ... .. . ... ...
ROW B3 : ... .. E ... ... ... : ... .. . ... ... ... : ... .. . ... : ... .. C ... : ... .. . ... ... : ... .. 9 ... ... : ... .. . ... ... : ... .. . ... ...
ROW B4 : ... .. D ... ... ... : ... .. . ... ... ... : ... .. . ... : ... .. 6 ... : ... .. . ... ... : ... .. . ... ... : ... .. . ... ... : ... .. . ... ...
ROW B5 : ... .. A ... ... ... : ... .. . ... ... ... : ... .. . ... : ... .. 3 ... : ... .. . ... ... : ... .. 8 ... ... : ... .. . ... ... : ... .. . ... ...
ROW B6 : ... .. . ... ... ... : ... .. . ... ... ... : ... .. . ... : ... .. 2 ... : ... .. . ... ... : --- .. . P85 ... : ... .. . ... ... : ... .. . ... ...
ROW B7 : ... .. 0 ... V00 ... : ... .. . ... ... ... : --- .. . ... : ... .. F ... : ... .. . ... ... : F-3 01 A P80 ... : ... .. . ... ... : ... .. . ... ...
ROW B8 : ... .. . ... ... ... : ... .. . ... ... ... : ... .. . ... : ... .. C ... : ... .. . ... ... : ... .. 9 ... ... : ... .. . ... ... : ... .. . ... ...
ROW B9 : ... .. . ... ... ... : ... .. . ... ... ... : ... .. . ... : ... .. 6 ... : ... .. . ... ... : ... .. . ... ... : ... .. . ... ... : ... .. . ... ...
ROW BA : ... .. . ... ... ... : ... .. . ... ... ... : ... .. . ... : ... .. 3 ... : ... .. . ... ... : ... .. 8 ... ... : ... .. . ... ... : ... .. . ... ...
ROW BB : ... .. . ... ... ... : ... .. . ... ... ... : ... .. . ... : ... .. 2 ... : ... .. . ... ... : --- .. . ... ... : ... .. . ... ... : ... .. . ... ...
ROW BC : A#4 00 F P80 V02 ... : ... .. . ... ... ... : C-3 00 . ... : 6-# 00 F ... : ... .. . ... ... : A#2 01 A ... ... : ... .. . ... ... : ... .. . ... ...
ROW BD : ... .. E ... ... ... : ... .. . ... ... ... : ... .. . ... : ... .. C ... : ... .. . ... ... : ... .. 9 ... ... : ... .. . ... ... : ... .. . ... ...
ROW BE : ... .. D ... ... ... : ... .. . ... ... ... : ... .. . ... : ... .. 6 ... : ... .. . ... ... : ... .. . ... ... : ... .. . ... ... : ... .. . ... ...
ROW BF : ... .. A ... ... ... : ... .. . ... ... ... : ... .. . ... : ... .. 3 ... : ... .. . ... ... : ... .. 8 ... ... : ... .. . ... ... : ... .. . ... ...
ROW C0 : ... .. . ... ... ... : ... .. . ... ... ... : ... .. . ... : ... .. 2 ... : ... .. . ... ... : --- .. . P82 ... : ... .. . ... ... : ... .. . ... ...
ROW C1 : ... .. 0 ... V00 ... : ... .. . ... ... ... : --- .. . ... : ... .. 0 ... : ... .. . ... ... : E-3 01 A P80 ... : ... .. . ... ... : ... .. . ... ...
ROW C2 : ... .. . ... ... ... : ... .. . ... ... ... : ... .. . ... : ... .. . ... : ... .. . ... ... : ... .. 9 ... ... : ... .. . ... ... : ... .. . ... ...
ROW C3 : ... .. . ... ... ... : ... .. . ... ... ... : ... .. . ... : ... .. . ... : ... .. . ... ... : ... .. . ... ... : ... .. . ... ... : ... .. . ... ...
ROW C4 : ... .. . ... ... ... : ... .. . ... ... ... : ... .. . ... : ... .. . ... : ... .. . ... ... : ... .. 8 ... ... : ... .. . ... ... : ... .. . ... ...
ROW C5 : ... .. . ... ... ... : ... .. . ... ... ... : ... .. . ... : ... .. . ... : ... .. . ... ... : --- .. . P82 ... : ... .. . ... ... : ... .. . ... ...
ROW C6 : A#3 00 F P80 V02 ... : ... .. . ... ... ... : E-4 00 . ... : D-# 00 F ... : ... .. . ... ... : A#2 01 A P80 ... : A#3 01 A ... ... : ... .. . ... ...
ROW C7 : ... .. E ... ... ... : ... .. . ... ... ... : ... .. . ... : ... .. C ... : ... .. . ... ... : ... .. 9 ... ... : ... .. 9 ... ... : ... .. . ... ...
ROW C8 : ... .. D ... ... ... : ... .. . ... ... ... : ... .. . ... : ... .. 6 ... : ... .. . ... ... : ... .. . ... ... : ... .. . ... ... : ... .. . ... ...
ROW C9 : ... .. A ... ... ... : ... .. . ... ... ... : ... .. . ... : ... .. 3 ... : ... .. . ... ... : ... .. 8 ... ... : ... .. 8 ... ... : ... .. . ... ...
ROW CA : ... .. . ... ... ... : ... .. . ... ... ... : ... .. . ... : ... .. 2 ... : ... .. . ... ... : --- .. . P82 ... : ... .. 7 ... ... : ... .. . ... ...
ROW CB : ... .. 0 ... V00 ... : ... .. . ... ... ... : --- .. . ... : ... .. 0 ... : ... .. . ... ... : E-3 01 A P80 ... : G-3 01 A ... ... : ... .. . ... ...
ROW CC : ... .. . ... ... ... : ... .. . ... ... ... : ... .. . ... : ... .. . ... : ... .. . ... ... : ... .. 9 ... ... : ... .. 9 ... ... : ... .. . ... ...
ROW CD : ... .. . ... ... ... : ... .. . ... ... ... : ... .. . ... : ... .. . ... : ... .. . ... ... : ... .. . ... ... : ... .. . ... ... : ... .. . ... ...
ROW CE : ... .. . ... ... ... : ... .. . ... ... ... : ... .. . ... : ... .. . ... : ... .. . ... ... : ... .. 8 ... ... : ... .. 8 ... ... : ... .. . ... ...
ROW CF : ... .. . ... ... ... : ... .. . ... ... ... : ... .. . ... : ... .. . ... : ... .. . ... ... : --- .. . P82 ... : ... .. 7 ... ... : ... .. . ... ...
ROW D0 : G#4 00 F P80 V02 ... : ... .. . ... ... ... : E-6 00 . ... : 3-# 00 F ... : ... .. . ... ... : F-3 01 A P80 ... : F-3 01 A ... ... : ... .. . ... ...
ROW D1 : ... .. E ... ... ... : ... .. . ... ... ... : F#5 00 . ... : ... .. C ... : ... .. . ... ... : ... .. 9 ... ... : ... .. 9 ... ... : ... .. . ... ...
ROW D2 : ... .. D ... ... ... : ... .. . ... ... ... : B-4 00 . ... : ... .. 6 ... : ... .. . ... ... : ... .. . ... ... : ... .. . ... ... : ... .. . ... ...
ROW D3 : ... .. 0 ... V00 ... : ... .. . ... ... ... : A#4 00 . ... : ... .. 3 ... : ... .. . ... ... : ... .. 8 ... ... : ... .. 8 ... ... : ... .. . ... ...
ROW D4 : ... .. . ... ... ... : ... .. . ... ... ... : F-4 00 . ... : ... .. 2 ... : ... .. . ... ... : --- .. . ... ... : ... .. 7 ... ... : ... .. . ... ...
ROW D5 : G-4 00 F P80 V02 ... : ... .. . ... ... ... : ... .. . ... : ... .. 0 ... : ... .. . ... ... : C-3 01 A ... ... : E-3 01 A ... ... : ... .. . ... ...
ROW D6 : ... .. E ... ... ... : ... .. . ... ... ... : ... .. . ... : ... .. . ... : ... .. . ... ... : ... .. 9 ... ... : ... .. 9 ... ... : ... .. . ... ...
ROW D7 : ... .. D ... ... ... : ... .. . ... ... ... : ... .. . ... : ... .. . ... : ... .. . ... ... : ... .. . ... ... : ... .. . ... ... : ... .. . ... ...
ROW D8 : ... .. 0 ... V00 ... : ... .. . ... ... ... : ... .. . ... : ... .. . ... : ... .. . ... ... : ... .. 8 ... ... : ... .. 8 ... ... : ... .. . ... ...
ROW D9 : ... .. . ... ... ... : ... .. . ... ... ... : ... .. . ... : ... .. . ... : ... .. . ... ... : --- .. . P7E ... : ... .. 7 ... ... : ... .. . ... ...
ROW DA : F-4 00 F P80 V02 ... : ... .. . ... ... ... : ... .. . ... : D-# 00 F ... : ... .. . ... ... : G#2 01 A P80 ... : F-3 01 A ... ... : ... .. . ... ...
ROW DB : ... .. E ... ... ... : ... .. . ... ... ... : ... .. . ... : ... .. C ... : ... .. . ... ... : ... .. 9 ... ... : ... .. 9 ... ... : ... .. . ... ...
ROW DC : ... .. D ... ... ... : ... .. . ... ... ... : ... .. . ... : ... .. 6 ... : ... .. . ... ... : ... .. . ... ... : ... .. . ... ... : ... .. . ... ...
ROW DD : ... .. A ... ... ... : ... .. . ... ... ... : ... .. . ... : ... .. 3 ... : ... .. . ... ... : ... .. 8 ... ... : ... .. 8 ... ... : ... .. . ... ...
ROW DE : ... .. . ... ... ... : ... .. . ... ... ... : ... .. . ... : ... .. 2 ... : ... .. . ... ... : --- .. . ... ... : ... .. 7 ... ... : ... .. . ... ...
ROW DF : ... .. 0 ... V00 ... : ... .. . ... ... ... : --- .. . ... : ... .. F ... : ... .. . ... ... : C-3 01 A ... ... : G#3 01 A ... ... : ... .. . ... ...
ROW E0 : ... .. . ... ... ... : ... .. . ... ... ... : ... .. . ... : ... .. C ... : ... .. . ... ... : ... .. 9 ... ... : ... .. 9 ... ... : ... .. . ... ...
ROW E1 : ... .. . ... ... ... : ... .. . ... ... ... : ... .. . ... : ... .. 6 ... : ... .. . ... ... : ... .. . ... ... : ... .. . ... ... : ... .. . ... ...
ROW E2 : ... .. . ... ... ... : ... .. . ... ... ... : ... .. . ... : ... .. 3 ... : ... .. . ... ... : ... .. 8 ... ... : ... .. 8 ... ... : ... .. . ... ...
ROW E3 : ... .. . ... ... ... : ... .. . ... ... ... : ... .. . ... : ... .. 2 ... : ... .. . ... ... : --- .. . P7E ... : ... .. 7 ... ... : ... .. . ... ...
ROW E4 : G-4 00 F P80 V02 ... : ... .. . ... ... ... : C-3 00 . ... : 6-# 00 F ... : ... .. . ... ... : G-2 01 A P80 ... : G-3 01 A ... ... : ... .. . ... ...
ROW E5 : ... .. E ... ... ... : ... .. . ... ... ... : ... .. . ... : ... .. C ... : ... .. . ... ... : ... .. 9 ... ... : ... .. 9 ... ... : ... .. . ... ...
ROW E6 : ... .. D ... ... ... : ... .. . ... ... ... : ... .. . ... : ... .. 6 ... : ... .. . ... ... : ... .. . ... ... : ... .. . ... ... : ... .. . ... ...
ROW E7 : ... .. 0 ... V00 ... : ... .. . ... ... ... : --- .. . ... : ... .. 3 ... : ... .. . ... ... : ... .. 8 ... ... : ... .. 8 ... ... : ... .. . ... ...
ROW E8 : ... .. . ... ... ... : ... .. . ... ... ... : ... .. . ... : ... .. 2 ... : ... .. . ... ... : --- .. . P81 ... : ... .. 7 ... ... : ... .. . ... ...
ROW E9 : F-4 00 F P80 V02 ... : ... .. . ... ... ... : A#2 00 . ... : ... .. 0 ... : ... .. . ... ... : A#2 01 A P80 ... : F-3 01 A ... ... : ... .. . ... ...
ROW EA : ... .. E ... ... ... : ... .. . ... ... ... : ... .. . ... : ... .. . ... : ... .. . ... ... : ... .. 9 ... ... : ... .. 9 ... ... : ... .. . ... ...
ROW EB : ... .. D ... ... ... : ... .. . ... ... ... : ... .. . ... : ... .. . ... : ... .. . ... ... : ... .. . ... ... : ... .. . ... ... : ... .. . ... ...
ROW EC : ... .. 0 ... V00 ... : ... .. . ... ... ... : --- .. . ... : ... .. . ... : ... .. . ... ... : ... .. 8 ... ... : ... .. 8 ... ... : ... .. . ... ...
ROW ED : ... .. . ... ... ... : ... .. . ... ... ... : ... .. . ... : ... .. . ... : ... .. . ... ... : --- .. . P82 ... : ... .. 7 ... ... : ... .. . ... ...
ROW EE : E-4 00 F P80 V02 ... : ... .. . ... ... ... : G#2 00 . ... : D-# 00 F ... : ... .. . ... ... : E-2 01 A P80 ... : E-3 01 A ... ... : ... .. . ... ...
ROW EF : ... .. E ... ... ... : ... .. . ... ... ... : ... .. . ... : ... .. C ... : ... .. . ... ... : ... .. 9 ... ... : ... .. 9 ... ... : ... .. . ... ...
ROW F0 : ... .. D ... ... ... : ... .. . ... ... ... : ... .. . ... : ... .. 6 ... : ... .. . ... ... : ... .. . ... ... : ... .. . ... ... : ... .. . ... ...
ROW F1 : ... .. A ... ... ... : ... .. . ... ... ... : --- .. . ... : ... .. 3 ... : ... .. . ... ... : ... .. 8 ... ... : ... .. 8 ... ... : ... .. . ... ...
ROW F2 : ... .. . ... ... ... : ... .. . ... ... ... : ... .. . ... : ... .. 2 ... : ... .. . ... ... : --- .. . P83 ... : ... .. 7 ... ... : ... .. . ... ...
ROW F3 : ... .. 0 ... V00 ... : ... .. . ... ... ... : G-2 00 . ... : ... .. F ... : ... .. . ... ... : A#2 01 A P80 ... : G-3 01 A ... ... : ... .. . ... ...
ROW F4 : ... .. . ... ... ... : ... .. . ... ... ... : ... .. . ... : ... .. C ... : ... .. . ... ... : ... .. 9 ... ... : ... .. 9 ... ... : ... .. . ... ...
ROW F5 : ... .. . ... ... ... : ... .. . ... ... ... : ... .. . ... : ... .. 6 ... : ... .. . ... ... : ... .. . ... ... : ... .. . ... ... : ... .. . ... ...
ROW F6 : ... .. . ... ... ... : ... .. . ... ... ... : --- .. . ... : ... .. 3 ... : ... .. . ... ... : ... .. 8 ... ... : ... .. 8 ... ... : ... .. . ... ...
ROW F7 : ... .. . ... ... ... : ... .. . ... ... ... : ... .. . ... : ... .. 2 ... : ... .. . ... ... : --- .. . P82 ... : ... .. 7 ... ... : ... .. . ... ...
ROW F8 : F-4 00 F P80 V02 ... : ... .. . ... ... ... : E-4 00 . ... : 3-# 00 F ... : ... .. . ... ... : G#2 01 A P80 ... : F-3 01 A ... ... : ... .. . ... ...
ROW F9 : ... .. E ... ... ... : ... .. . ... ... ... : F#3 00 . ... : ... .. C ... : ... .. . ... ... : ... .. 9 ... ... : ... .. 9 ... ... : ... .. . ... ...
ROW FA : ... .. D ... ... ... : ... .. . ... ... ... : B-2 00 . ... : ... .. 6 ... : ... .. . ... ... : ... .. . ... ... : ... .. . ... ... : ... .. . ... ...
ROW FB : ... .. A ... ... ... : ... .. . ... ... ... : A#2 00 . ... : ... .. 3 ... : ... .. . ... ... : ... .. 8 ... ... : ... .. 8 ... ... : ... .. . ... ...
ROW FC : ... .. . ... ... ... : ... .. . ... ... ... : F-2 00 . ... : ... .. 2 ... : ... .. . ... ... : ... .. 7 ... ... : ... .. 7 ... ... : ... .. . ... ...
ROW FD : ... .. . ... ... ... : ... .. . ... ... ... : ... .. . ... : ... .. 0 ... : ... .. . ... ... : ... .. . ... ... : ... .. . ... ... : ... .. . ... ...
ROW FE : ... .. . ... ... ... : ... .. . ... ... ... : ... .. . ... : ... .. . ... : ... .. . ... ... : ... .. 6 ... ... : ... .. 6 ... ... : ... .. . ... ...
ROW FF : ... .. . ... ... ... : ... .. . ... ... ... : ... .. . ... : ... .. . ... : ... .. . ... ... : ... .. . ... ... : ... .. . ... ... : ... .. . ... ...

PATTERN 12
ROW 00 : ... .. 0 ... V00 ... : ... .. . ... ... ... : ... .. . ... : ... .. . ... : ... .. . ... ... : ... .. . ... ... : ... .. . ... ... : ... .. . ... ...
ROW 01 : ... .. . ... ... ... : ... .. . ... ... ... : ... .. . ... : ... .. . ... : ... .. . ... ... : ... .. . ... ... : ... .. . ... ... : ... .. . ... ...
ROW 02 : ... .. . ... ... ... : ... .. . ... ... ... : E-2 00 . P86 : ... .. . ... : ... .. . ... ... : C-2 01 A ... ... : C-1 01 A ... ... : ... .. . ... ...
ROW 03 : ... .. . ... ... ... : ... .. . ... ... ... : D#2 00 . P8E : ... .. . ... : ... .. . ... ... : ... .. 9 ... ... : ... .. 9 ... ... : ... .. . ... ...
ROW 04 : ... .. . ... ... ... : ... .. . ... ... ... : ... .. . P6E : ... .. . ... : ... .. . ... ... : ... .. . ... ... : ... .. . ... ... : ... .. . ... ...
ROW 05 : D-5 00 6 P80 V02 ... : ... .. . ... ... ... : D-2 00 . P79 : ... .. . ... : ... .. . ... ... : ... .. 8 ... ... : ... .. 8 ... ... : ... .. . ... ...
ROW 06 : ... .. 5 ... ... ... : ... .. . ... ... ... : C#2 00 . P86 : ... .. . ... : ... .. . ... ... : ... .. 7 ... ... : ... .. 7 ... ... : ... .. . ... ...
ROW 07 : D#5 00 8 ... ... ... : ... .. . ... ... ... : C-2 00 . P96 : ... .. . ... : ... .. . ... ... : --- .. . P7E ... : --- .. . P7D ... : ... .. . ... ...
ROW 08 : ... .. 7 ... ... ... : ... .. . ... ... ... : ... .. . P76 : ... .. . ... : ... .. . ... ... : ... .. . ... ... : ... .. . ... ... : ... .. . ... ...
ROW 09 : ... .. 6 ... ... ... : ... .. . ... ... ... : B-1 00 . P89 : ... .. . ... : ... .. . ... ... : ... .. . ... ... : ... .. . ... ... : ... .. . ... ...
ROW 0A : E-5 00 A ... ... ... : ... .. . ... ... ... : ... .. . P69 : ... .. . ... : ... .. . ... ... : ... .. . ... ... : ... .. . ... ... : ... .. . ... ...
ROW 0B : ... .. 9 ... ... ... : ... .. . ... ... ... : A#1 00 . P7F : ... .. . ... : ... .. . ... ... : ... .. . ... ... : ... .. . ... ... : ... .. . ... ...
ROW 0C : F-5 00 F ... ... ... : ... .. . ... ... ... : E-3 00 . P80 : 6-# 00 F ... : ... .. . ... ... : F-1 01 A P80 ... : F-0 01 A P81 ... : ... .. . ... ...
ROW 0D : ... .. E ... ... ... : ... .. . ... ... ... : F#2 00 . ... : ... .. C ... : ... .. . ... ... : ... .. 9 ... ... : ... .. 9 ... ... : ... .. . ... ...
ROW 0E : ... .. D ... ... ... : ... .. . ... ... ... : B-1 00 . ... : ... .. 6 ... : ... .. . ... ... : ... .. . ... ... : ... .. . ... ... : ... .. . ... ...
ROW 0F : ... .. A ... ... ... : ... .. . ... ... ... : A#1 00 . ... : ... .. 3 ... : ... .. . ... ... : ... .. 8 ... ... : ... .. 8 ... ... : ... .. . ... ...
ROW 10 : ... .. . ... ... ... : ... .. . ... ... ... : F-1 00 . ... : ... .. 2 ... : ... .. . ... ... : ... .. 7 ... ... : ... .. 7 ... ... : ... .. . ... ...
ROW 11 : ... .. . ... ... ... : ... .. . ... ... ... : ... .. . ... : ... .. 0 ... : ... .. . ... ... : ... .. . ... ... : ... .. . ... ... : ... .. . ... ...
ROW 12 : ... .. . ... ... ... : ... .. . ... ... ... : ... .. . ... : ... .. . ... : ... .. . ... ... : ... .. 6 ... ... : ... .. 6 ... ... : ... .. . ... ...
ROW 13 : ... .. . ... ... ... : ... .. . ... ... ... : ... .. . ... : ... .. . ... : ... .. . ... ... : ... .. . ... ... : ... .. . ... ... : ... .. . ... ...
ROW 14 : ... .. . ... ... ... : ... .. . ... ... ... : ... .. . ... : ... .. . ... : ... .. . ... ... : ... .. . ... ... : ... .. . ... ... : ... .. . ... ...
ROW 15 : ... .. . ... ... ... : ... .. . ... ... ... : ... .. . ... : ... .. . ... : ... .. . ... ... : ... .. . ... ... : ... .. . ... ... : ... .. . ... ...
ROW 16 : ... .. 0 ... V00 ... : ... .. . ... ... ... : --- .. . ... : B-# 00 8 ... : ... .. . ... ... : --- .. . ... ... : --- .. . P80 ... : ... .. . ... ...
ROW 17 : ... .. . ... ... ... : ... .. . ... ... ... : ... .. . ... : ... .. 6 ... : ... .. . ... ... : ... .. . ... ... : ... .. . ... ... : ... .. . ... ...
ROW 18 : ... .. . ... ... ... : ... .. . ... ... ... : ... .. . ... : ... .. 3 ... : ... .. . ... ... : ... .. . ... ... : ... .. . ... ... : ... .. . ... ...
ROW 19 : ... .. . ... ... ... : ... .. . ... ... ... : ... .. . ... : ... .. 1 ... : ... .. . ... ... : ... .. . ... ... : ... .. . ... ... : ... .. . ... ...
ROW 1A : ... .. . ... ... ... : ... .. . ... ... ... : ... .. . ... : ... .. 8 ... : ... .. . ... ... : ... .. . ... ... : ... .. . ... ... : ... .. . ... ...
ROW 1B : ... .. . ... ... ... : ... .. . ... ... ... : ... .. . ... : ... .. 6 ... : ... .. . ... ... : ... .. . ... ... : ... .. . ... ... : ... .. . ... ...
ROW 1C : ... .. . ... ... ... : ... .. . ... ... ... : ... .. . ... : ... .. 3 ... : ... .. . ... ... : ... .. . ... ... : ... .. . ... ... : ... .. . ... ...
ROW 1D : ... .. . ... ... ... : ... .. . ... ... ... : ... .. . ... : ... .. 8 ... : ... .. . ... ... : ... .. . ... ... : ... .. . ... ... : ... .. . ... ...
ROW 1E : ... .. . ... ... ... : ... .. . ... ... ... : ... .. . ... : ... .. 6 ... : ... .. . ... ... : ... .. . ... ... : ... .. . ... ... : ... .. . ... ...
ROW 1F : ... .. . ... ... ... : ... .. . ... ... ... : ... .. . ... : ... .. 3 ... : ... .. . ... ... : ... .. . ... ... : ... .. . ... ... : ... .. . ... ...
ROW 20 : F-2 00 F P80 V01 ... : C-3 00 F P80 ... ... : F-3 00 . ... : 3-# 00 F ... : ... .. . ... ... : F-4 01 A ... ... : F-5 01 A P81 ... : ... .. . ... ...
ROW 21 : ... .. E ... ... ... : ... .. E ... ... ... : ... .. . ... : ... .. C ... : ... .. . ... ... : ... .. 9 ... ... : ... .. 9 ... ... : ... .. . ... ...
ROW 22 : ... .. D ... ... ... : ... .. D ... ... ... : ... .. . ... : ... .. 6 ... : ... .. . ... ... : ... .. . ... ... : ... .. . ... ... : ... .. . ... ...
ROW 23 : ... .. 0 ... V00 ... : ... .. 0 ... ... ... : ... .. . ... : ... .. 3 ... : ... .. . ... ... : --- .. . ... ... : --- .. . ... ... : ... .. . ... ...
ROW 24 : ... .. . ... ... ... : ... .. . ... ... ... : ... .. . ... : ... .. 2 ... : ... .. . ... ... : ... .. . ... ... : ... .. . ... ... : ... .. . ... ...
ROW 25 : F-2 00 F P80 V01 ... : C-3 00 F P80 ... ... : --- .. . ... : ... .. 0 ... : ... .. . ... ... : G#3 01 A ... ... : G#4 01 A ... ... : ... .. . ... ...
ROW 26 : ... .. E ... ... ... : ... .. E ... ... ... : ... .. . ... : ... .. . ... : ... .. . ... ... : ... .. 9 ... ... : ... .. 9 ... ... : ... .. . ... ...
ROW 27 : ... .. D ... ... ... : ... .. D ... ... ... : ... .. . ... : ... .. . ... : ... .. . ... ... : ... .. . ... ... : ... .. . ... ... : ... .. . ... ...
ROW 28 : ... .. 0 ... V00 ... : ... .. 0 ... ... ... : ... .. . ... : ... .. . ... : ... .. . ... ... : --- .. . P82 ... : --- .. . ... ... : ... .. . ... ...
ROW 29 : ... .. . ... ... ... : ... .. . ... ... ... : ... .. . ... : ... .. . ... : ... .. . ... ... : ... .. . ... ... : ... .. . ... ... : ... .. . ... ...
ROW 2A : B-2 00 F P80 V01 ... : F#3 00 F P80 ... ... : F-3 00 . ... : D-# 00 F ... : ... .. . ... ... : F-4 01 A P80 ... : F-5 01 A ... ... : ... .. . ... ...
ROW 2B : ... .. E ... ... ... : ... .. E ... ... ... : ... .. . ... : ... .. C ... : ... .. . ... ... : ... .. 9 ... ... : ... .. 9 ... ... : ... .. . ... ...
ROW 2C : ... .. D ... ... ... : ... .. D ... ... ... : ... .. . ... : ... .. 6 ... : ... .. . ... ... : ... .. . ... ... : ... .. . ... ... : ... .. . ... ...
ROW 2D : ... .. A ... ... ... : ... .. A ... ... ... : --- .. . ... : ... .. 3 ... : ... .. . ... ... : --- .. . ... ... : --- .. . ... ... : ... .. . ... ...
ROW 2E : ... .. . ... ... ... : ... .. . ... ... ... : ... .. . ... : ... .. 2 ... : ... .. . ... ... : ... .. . ... ... : ... .. . ... ... : ... .. . ... ...
ROW 2F : ... .. . ... ... ... : ... .. . ... ... ... : F-3 00 . ... : ... .. F ... : ... .. . ... ... : G#3 01 A ... ... : G#4 01 A ... ... : ... .. . ... ...
ROW 30 : ... .. . ... ... ... : ... .. . ... ... ... : ... .. . ... : ... .. C ... : ... .. . ... ... : ... .. 9 ... ... : ... .. 9 ... ... : ... .. . ... ...
ROW 31 : ... .. . ... ... ... : ... .. . ... ... ... : ... .. . ... : ... .. 6 ... : ... .. . ... ... : ... .. . ... ... : ... .. . ... ... : ... .. . ... ...
ROW 32 : ... .. 0 ... V00 ... : ... .. 0 ... ... ... : --- .. . ... : ... .. 3 ... : ... .. . ... ... : --- .. . P82 ... : --- .. . ... ... : ... .. . ... ...
ROW 33 : ... .. . ... ... ... : ... .. . ... ... ... : ... .. . ... : ... .. 2 ... : ... .. . ... ... : ... .. . ... ... : ... .. . ... ... : ... .. . ... ...
ROW 34 : A#2 00 F P80 V01 ... : F-3 00 F P80 ... ... : F-3 00 . ... : 6-# 00 F ... : ... .. . ... ... : F-4 01 A P80 ... : F-5 01 A ... ... : ... .. . ... ...
ROW 35 : ... .. E ... ... ... : ... .. E ... ... ... : ... .. . ... : ... .. C ... : ... .. . ... ... : ... .. 9 ... ... : ... .. 9 ... ... : ... .. . ... ...
ROW 36 : ... .. D ... ... ... : ... .. D ... ... ... : ... .. . ... : ... .. 6 ... : ... .. . ... ... : ... .. . ... ... : ... .. . ... ... : ... .. . ... ...
ROW 37 : ... .. A ... ... ... : ... .. A ... ... ... : ... .. . ... : ... .. 3 ... : ... .. . ... ... : --- .. . ... ... : --- .. . ... ... : ... .. . ... ...
ROW 38 : ... .. . ... ... ... : ... .. . ... ... ... : ... .. . ... : ... .. 2 ... : ... .. . ... ... : ... .. . ... ... : ... .. . ... ... : ... .. . ... ...
ROW 39 : ... .. . ... ... ... : ... .. . ... ... ... : --- .. . ... : ... .. 0 ... : ... .. . ... ... : G#3 01 A ... ... : G#4 01 A ... ... : ... .. . ... ...
ROW 3A : ... .. . ... ... ... : ... .. . ... ... ... : ... .. . ... : ... .. . ... : ... .. . ... ... : ... .. 9 ... ... : ... .. 9 ... ... : ... .. . ... ...
ROW 3B : ... .. . ... ... ... : ... .. . ... ... ... : ... .. . ... : ... .. . ... : ... .. . ... ... : ... .. . ... ... : ... .. . ... ... : ... .. . ... ...
ROW 3C : ... .. 0 ... V00 ... : ... .. 0 ... ... ... : ... .. . ... : ... .. . ... : ... .. . ... ... : --- .. . P82 ... : --- .. . ... ... : ... .. . ... ...
ROW 3D : ... .. . ... ... ... : ... .. . ... ... ... : ... .. . ... : ... .. . ... : ... .. . ... ... : ... .. . ... ... : ... .. . ... ... : ... .. . ... ...
ROW 3E : G#2 00 F P80 V01 ... : D#3 00 F P80 ... ... : F-3 00 . ... : D-# 00 F ... : ... .. . ... ... : F-4 01 A P80 ... : F-5 01 A ... ... : ... .. . ... ...
ROW 3F : ... .. E ... ... ... : ... .. E ... ... ... : ... .. . ... : ... .. C ... : ... .. . ... ... : ... .. 9 ... ... : ... .. 9 ... ... : ... .. . ... ...
ROW 40 : ... .. D ... ... ... : ... .. D ... ... ... : ... .. . ... : ... .. 6 ... : ... .. . ... ... : ... .. . ... ... : ... .. . ... ... : ... .. . ... ...
ROW 41 : ... .. 0 ... V00 ... : ... .. 0 ... ... ... : --- .. . ... : ... .. 3 ... : ... .. . ... ... : --- .. . ... ... : --- .. . ... ... : ... .. . ... ...
ROW 42 : ... .. . ... ... ... : ... .. . ... ... ... : ... .. . ... : ... .. 2 ... : ... .. . ... ... : ... .. . ... ... : ... .. . ... ... : ... .. . ... ...
ROW 43 : F-2 00 F P80 V01 ... : C-3 00 F P80 ... ... : F-3 00 . ... : ... .. F ... : ... .. . ... ... : G#3 01 A ... ... : G#4 01 A ... ... : ... .. . ... ...
ROW 44 : ... .. E ... ... ... : ... .. E ... ... ... : ... .. . ... : ... .. C ... : ... .. . ... ... : ... .. 9 ... ... : ... .. 9 ... ... : ... .. . ... ...
ROW 45 : ... .. D ... ... ... : ... .. D ... ... ... : ... .. . ... : ... .. 6 ... : ... .. . ... ... : ... .. . ... ... : ... .. . ... ... : ... .. . ... ...
ROW 46 : ... .. A ... ... ... : ... .. A ... ... ... : --- .. . ... : ... .. 3 ... : ... .. . ... ... : --- .. . P82 ... : --- .. . ... ... : ... .. . ... ...
ROW 47 : ... .. . ... ... ... : ... .. . ... ... ... : ... .. . ... : ... .. 2 ... : ... .. . ... ... : ... .. . ... ... : ... .. . ... ... : ... .. . ... ...
ROW 48 : ... .. . ... ... ... : ... .. . ... ... ... : F-3 00 . ... : 3-# 00 F ... : ... .. . ... ... : E-4 01 A P80 ... : E-5 01 A ... ... : ... .. . ... ...
ROW 49 : ... .. . ... ... ... : ... .. . ... ... ... : ... .. . ... : ... .. C ... : ... .. . ... ... : ... .. 9 ... ... : ... .. 9 ... ... : ... .. . ... ...
ROW 4A : ... .. . ... ... ... : ... .. . ... ... ... : ... .. . ... : ... .. 6 ... : ... .. . ... ... : ... .. . ... ... : ... .. . ... ... : ... .. . ... ...
ROW 4B : ... .. 0 ... V00 ... : ... .. 0 ... ... ... : ... .. . ... : ... .. 3 ... : ... .. . ... ... : --- .. . ... ... : --- .. . ... ... : ... .. . ... ...
ROW 4C : ... .. . ... ... ... : ... .. . ... ... ... : ... .. . ... : ... .. 2 ... : ... .. . ... ... : ... .. . ... ... : ... .. . ... ... : ... .. . ... ...
ROW 4D : F-2 00 F P80 V01 ... : C-3 00 F P80 ... ... : --- .. . ... : ... .. 0 ... : ... .. . ... ... : G-3 01 A ... ... : G-4 01 A ... ... : ... .. . ... ...
ROW 4E : ... .. E ... ... ... : ... .. E ... ... ... : ... .. . ... : ... .. . ... : ... .. . ... ... : ... .. 9 ... ... : ... .. 9 ... ... : ... .. . ... ...
ROW 4F : ... .. D ... ... ... : ... .. D ... ... ... : ... .. . ... : ... .. . ... : ... .. . ... ... : ... .. . ... ... : ... .. . ... ... : ... .. . ... ...
ROW 50 : ... .. 0 ... V00 ... : ... .. 0 ... ... ... : ... .. . ... : ... .. . ... : ... .. . ... ... : --- .. . P81 ... : --- .. . ... ... : ... .. . ... ...
ROW 51 : ... .. . ... ... ... : ... .. . ... ... ... : ... .. . ... : ... .. . ... : ... .. . ... ... : ... .. . ... ... : ... .. . ... ... : ... .. . ... ...
ROW 52 : B-2 00 F P80 V01 ... : F#3 00 F P80 ... ... : F-3 00 . ... : D-# 00 F ... : ... .. . ... ... : E-4 01 A P80 ... : E-5 01 A ... ... : ... .. . ... ...
ROW 53 : ... .. E ... ... ... : ... .. E ... ... ... : ... .. . ... : ... .. C ... : ... .. . ... ... : ... .. 9 ... ... : ... .. 9 ... ... : ... .. . ... ...
ROW 54 : ... .. D ... ... ... : ... .. D ... ... ... : ... .. . ... : ... .. 6 ... : ... .. . ... ... : ... .. . ... ... : ... .. . ... ... : ... .. . ... ...
ROW 55 : ... .. A ... ... ... : ... .. A ... ... ... : --- .. . ... : ... .. 3 ... : ... .. . ... ... : --- .. . ... ... : --- .. . ... ... : ... .. . ... ...
ROW 56 : ... .. . ... ... ... : ... .. . ... ... ... : ... .. . ... : ... .. 2 ... : ... .. . ... ... : ... .. . ... ... : ... .. . ... ... : ... .. . ... ...
ROW 57 : ... .. . ... ... ... : ... .. . ... ... ... : F-3 00 . ... : ... .. F ... : ... .. . ... ... : G-3 01 A ... ... : G-4 01 A ... ... : ... .. . ... ...
ROW 58 : ... .. . ... ... ... : ... .. . ... ... ... : ... .. . ... : ... .. C ... : ... .. . ... ... : ... .. 9 ... ... : ... .. 9 ... ... : ... .. . ... ...
ROW 59 : ... .. . ... ... ... : ... .. . ... ... ... : ... .. . ... : ... .. 6 ... : ... .. . ... ... : ... .. . ... ... : ... .. . ... ... : ... .. . ... ...
ROW 5A : ... .. 0 ... V00 ... : ... .. 0 ... ... ... : --- .. . ... : ... .. 3 ... : ... .. . ... ... : --- .. . P81 ... : --- .. . ... ... : ... .. . ... ...
ROW 5B : ... .. . ... ... ... : ... .. . ... ... ... : ... .. . ... : ... .. 2 ... : ... .. . ... ... : ... .. . ... ... : ... .. . ... ... : ... .. . ... ...
ROW 5C : A#2 00 F P80 V01 ... : F-3 00 F P80 ... ... : F-3 00 . ... : 6-# 00 F ... : ... .. . ... ... : E-4 01 A P80 ... : E-5 01 A ... ... : ... .. . ... ...
ROW 5D : ... .. E ... ... ... : ... .. E ... ... ... : ... .. . ... : ... .. C ... : ... .. . ... ... : ... .. 9 ... ... : ... .. 9 ... ... : ... .. . ... ...
ROW 5E : ... .. D ... ... ... : ... .. D ... ... ... : ... .. . ... : ... .. 6 ... : ... .. . ... ... : ... .. . ... ... : ... .. . ... ... : ... .. . ... ...
ROW 5F : ... .. A ... ... ... : ... .. A ... ... ... : --- .. . ... : ... .. 3 ... : ... .. . ... ... : --- .. . ... ... : --- .. . ... ... : ... .. . ... ...
ROW 60 : ... .. . ... ... ... : ... .. . ... ... ... : ... .. . ... : ... .. 2 ... : ... .. . ... ... : ... .. . ... ... : ... .. . ... ... : ... .. . ... ...
ROW 61 : ... .. . ... ... ... : ... .. . ... ... ... : F-3 00 . ... : ... .. 0 ... : ... .. . ... ... : G-3 01 A ... ... : G-4 01 A ... ... : ... .. . ... ...
ROW 62 : ... .. . ... ... ... : ... .. . ... ... ... : ... .. . ... : ... .. . ... : ... .. . ... ... : ... .. 9 ... ... : ... .. 9 ... ... : ... .. . ... ...
ROW 63 : ... .. . ... ... ... : ... .. . ... ... ... : ... .. . ... : ... .. . ... : ... .. . ... ... : ... .. . ... ... : ... .. . ... ... : ... .. . ... ...
ROW 64 : ... .. 0 ... V00 ... : ... .. 0 ... ... ... : --- .. . ... : ... .. . ... : ... .. . ... ... : --- .. . P81 ... : --- .. . ... ... : ... .. . ... ...
ROW 65 : ... .. . ... ... ... : ... .. . ... ... ... : ... .. . ... : ... .. . ... : ... .. . ... ... : ... .. . ... ... : ... .. . ... ... : ... .. . ... ...
ROW 66 : G#2 00 F P80 V01 ... : D#3 00 F P80 ... ... : F-3 00 . ... : D-# 00 F ... : ... .. . ... ... : E-4 01 A P80 ... : E-5 01 A ... ... : ... .. . ... ...
ROW 67 : ... .. E ... ... ... : ... .. E ... ... ... : ... .. . ... : ... .. C ... : ... .. . ... ... : ... .. 9 ... ... : ... .. 9 ... ... : ... .. . ... ...
ROW 68 : ... .. D ... ... ... : ... .. D ... ... ... : ... .. . ... : ... .. 6 ... : ... .. . ... ... : ... .. . ... ... : ... .. . ... ... : ... .. . ... ...
ROW 69 : ... .. A ... ... ... : ... .. A ... ... ... : --- .. . ... : ... .. 3 ... : ... .. . ... ... : --- .. . ... ... : --- .. . ... ... : ... .. . ... ...
ROW 6A : ... .. . ... ... ... : ... .. . ... ... ... : ... .. . ... : ... .. 2 ... : ... .. . ... ... : ... .. . ... ... : ... .. . ... ... : ... .. . ... ...
ROW 6B : ... .. . ... ... ... : ... .. . ... ... ... : F-3 00 . ... : ... .. 0 ... : ... .. . ... ... : G-3 01 A ... ... : G-4 01 A ... ... : ... .. . ... ...
ROW 6C : ... .. . ... ... ... : ... .. . ... ... ... : ... .. . ... : ... .. . ... : ... .. . ... ... : ... .. 9 ... ... : ... .. 9 ... ... : ... .. . ... ...
ROW 6D : ... .. . ... ... ... : ... .. . ... ... ... : ... .. . ... : ... .. . ... : ... .. . ... ... : ... .. . ... ... : ... .. . ... ... : ... .. . ... ...
ROW 6E : ... .. 0 ... V00 ... : ... .. 0 ... ... ... : --- .. . ... : ... .. . ... : ... .. . ... ... : --- .. . P81 ... : --- .. . ... ... : ... .. . ... ...
ROW 6F : ... .. . ... ... ... : ... .. . ... ... ... : ... .. . ... : ... .. . ... : ... .. . ... ... : ... .. . ... ... : ... .. . ... ... : ... .. . ... ...
ROW 70 : F-2 00 F P80 V01 ... : C-3 00 F P80 ... ... : F-3 00 . ... : 3-# 00 F ... : ... .. . ... ... : D#4 01 A P80 ... : D#5 01 A ... ... : ... .. . ... ...
ROW 71 : ... .. E ... ... ... : ... .. E ... ... ... : ... .. . ... : ... .. C ... : ... .. . ... ... : ... .. 9 ... ... : ... .. 9 ... ... : ... .. . ... ...
ROW 72 : ... .. D ... ... ... : ... .. D ... ... ... : ... .. . ... : ... .. 6 ... : ... .. . ... ... : ... .. . ... ... : ... .. . ... ... : ... .. . ... ...
ROW 73 : ... .. 0 ... V00 ... : ... .. 0 ... ... ... : ... .. . ... : ... .. 3 ... : ... .. . ... ... : --- .. . ... ... : --- .. . ... ... : ... .. . ... ...
ROW 74 : ... .. . ... ... ... : ... .. . ... ... ... : ... .. . ... : ... .. 2 ... : ... .. . ... ... : ... .. . ... ... : ... .. . ... ... : ... .. . ... ...
ROW 75 : F-2 00 F P80 V01 ... : C-3 00 F P80 ... ... : --- .. . ... : ... .. 0 ... : ... .. . ... ... : F#3 01 A ... ... : F#4 01 A ... ... : ... .. . ... ...
ROW 76 : ... .. E ... ... ... : ... .. E ... ... ... : ... .. . ... : ... .. . ... : ... .. . ... ... : ... .. 9 ... ... : ... .. 9 ... ... : ... .. . ... ...
ROW 77 : ... .. D ... ... ... : ... .. D ... ... ... : ... .. . ... : ... .. . ... : ... .. . ... ... : ... .. . ... ... : ... .. . ... ... : ... .. . ... ...
ROW 78 : ... .. 0 ... V00 ... : ... .. 0 ... ... ... : ... .. . ... : ... .. . ... : ... .. . ... ... : --- .. . P7F ... : --- .. . ... ... : ... .. . ... ...
ROW 79 : ... .. . ... ... ... : ... .. . ... ... ... : ... .. . ... : ... .. . ... : ... .. . ... ... : ... .. . ... ... : ... .. . ... ... : ... .. . ... ...
ROW 7A : B-2 00 F P80 V01 ... : F#3 00 F P80 ... ... : F-3 00 . ... : D-# 00 F ... : ... .. . ... ... : D#4 01 A P80 ... : D#5 01 A ... ... : ... .. . ... ...
ROW 7B : ... .. E ... ... ... : ... .. E ... ... ... : ... .. . ... : ... .. C ... : ... .. . ... ... : ... .. 9 ... ... : ... .. 9 ... ... : ... .. . ... ...
ROW 7C : ... .. D ... ... ... : ... .. D ... ... ... : ... .. . ... : ... .. 6 ... : ... .. . ... ... : ... .. . ... ... : ... .. . ... ... : ... .. . ... ...
ROW 7D : ... .. A ... ... ... : ... .. A ... ... ... : --- .. . ... : ... .. 3 ... : ... .. . ... ... : --- .. . ... ... : --- .. . ... ... : ... .. . ... ...
ROW 7E : ... .. . ... ... ... : ... .. . ... ... ... : ... .. . ... : ... .. 2 ... : ... .. . ... ... : ... .. . ... ... : ... .. . ... ... : ... .. . ... ...
ROW 7F : ... .. . ... ... ... : ... .. . ... ... ... : F-3 00 . ... : ... .. F ... : ... .. . ... ... : F#3 01 A ... ... : F#4 01 A ... ... : ... .. . ... ...
ROW 80 : ... .. . ... ... ... : ... .. . ... ... ... : ... .. . ... : ... .. C ... : ... .. . ... ... : ... .. 9 ... ... : ... .. 9 ... ... : ... .. . ... ...
ROW 81 : ... .. . ... ... ... : ... .. . ... ... ... : ... .. . ... : ... .. 6 ... : ... .. . ... ... : ... .. . ... ... : ... .. . ... ... : ... .. . ... ...
ROW 82 : ... .. 0 ... V00 ... : ... .. 0 ... ... ... : --- .. . ... : ... .. 3 ... : ... .. . ... ... : --- .. . P7F ... : --- .. . ... ... : ... .. . ... ...
ROW 83 : ... .. . ... ... ... : ... .. . ... ... ... : ... .. . ... : ... .. 2 ... : ... .. . ... ... : ... .. . ... ... : ... .. . ... ... : ... .. . ... ...
ROW 84 : A#2 00 F P80 V01 ... : F-3 00 F P80 ... ... : F-3 00 . ... : 6-# 00 F ... : ... .. . ... ... : D#4 01 A P80 ... : D#5 01 A ... ... : ... .. . ... ...
ROW 85 : ... .. E ... ... ... : ... .. E ... ... ... : ... .. . ... : ... .. C ... : ... .. . ... ... : ... .. 9 ... ... : ... .. 9 ... ... : ... .. . ... ...
ROW 86 : ... .. D ... ... ... : ... .. D ... ... ... : ... .. . ... : ... .. 6 ... : ... .. . ... ... : ... .. . ... ... : ... .. . ... ... : ... .. . ... ...
ROW 87 : ... .. A ... ... ... : ... .. A ... ... ... : ... .. . ... : ... .. 3 ... : ... .. . ... ... : --- .. . ... ... : --- .. . ... ... : ... .. . ... ...
ROW 88 : ... .. . ... ... ... : ... .. . ... ... ... : ... .. . ... : ... .. 2 ... : ... .. . ... ... : ... .. . ... ... : ... .. . ... ... : ... .. . ... ...
ROW 89 : ... .. . ... ... ... : ... .. . ... ... ... : --- .. . ... : ... .. 0 ... : ... .. . ... ... : F#3 01 A ... ... : F#4 01 A ... ... : ... .. . ... ...
ROW 8A : ... .. . ... ... ... : ... .. . ... ... ... : ... .. . ... : ... .. . ... : ... .. . ... ... : ... .. 9 ... ... : ... .. 9 ... ... : ... .. . ... ...
ROW 8B : ... .. . ... ... ... : ... .. . ... ... ... : ... .. . ... : ... .. . ... : ... .. . ... ... : ... .. . ... ... : ... .. . ... ... : ... .. . ... ...
ROW 8C : ... .. 0 ... V00 ... : ... .. 0 ... ... ... : ... .. . ... : ... .. . ... : ... .. . ... ... : --- .. . P7F ... : --- .. . ... ... : ... .. . ... ...
ROW 8D : ... .. . ... ... ... : ... .. . ... ... ... : ... .. . ... : ... .. . ... : ... .. . ... ... : ... .. . ... ... : ... .. . ... ... : ... .. . ... ...
ROW 8E : G#2 00 F P80 V01 ... : D#3 00 F P80 ... ... : F-3 00 . ... : D-# 00 F ... : ... .. . ... ... : D#4 01 A P80 ... : D#5 01 A ... ... : ... .. . ... ...
ROW 8F : ... .. E ... ... ... : ... .. E ... ... ... : ... .. . ... : ... .. C ... : ... .. . ... ... : ... .. 9 ... ... : ... .. 9 ... ... : ... .. . ... ...
ROW 90 : ... .. D ... ... ... : ... .. D ... ... ... : ... .. . ... : ... .. 6 ... : ... .. . ... ... : ... .. . ... ... : ... .. . ... ... : ... .. . ... ...
ROW 91 : ... .. 0 ... V00 ... : ... .. 0 ... ... ... : --- .. . ... : ... .. 3 ... : ... .. . ... ... : --- .. . ... ... : --- .. . ... ... : ... .. . ... ...
ROW 92 : ... .. . ... ... ... : ... .. . ... ... ... : ... .. . ... : ... .. 2 ... : ... .. . ... ... : ... .. . ... ... : ... .. . ... ... : ... .. . ... ...
ROW 93 : F-2 00 F P80 V01 ... : C-3 00 F P80 ... ... : F-3 00 . ... : ... .. 0 ... : ... .. . ... ... : F#3 01 A ... ... : F#4 01 A ... ... : ... .. . ... ...
ROW 94 : ... .. E ... ... ... : ... .. E ... ... ... : ... .. . ... : ... .. . ... : ... .. . ... ... : ... .. 9 ... ... : ... .. 9 ... ... : ... .. . ... ...
ROW 95 : ... .. D ... ... ... : ... .. D ... ... ... : ... .. . ... : ... .. . ... : ... .. . ... ... : ... .. . ... ... : ... .. . ... ... : ... .. . ... ...
ROW 96 : ... .. A ... ... ... : ... .. A ... ... ... : --- .. . ... : ... .. . ... : ... .. . ... ... : --- .. . P7F ... : --- .. . ... ... : ... .. . ... ...
ROW 97 : ... .. . ... ... ... : ... .. . ... ... ... : ... .. . ... : ... .. . ... : ... .. . ... ... : ... .. . ... ... : ... .. . ... ... : ... .. . ... ...
ROW 98 : ... .. . ... ... ... : ... .. . ... ... ... : F-3 00 . ... : 3-# 00 F ... : ... .. . ... ... : D-4 01 A P80 ... : D-5 01 A ... ... : ... .. . ... ...
ROW 99 : ... .. . ... ... ... : ... .. . ... ... ... : ... .. . ... : ... .. C ... : ... .. . ... ... : ... .. 9 ... ... : ... .. 9 ... ... : ... .. . ... ...
ROW 9A : ... .. . ... ... ... : ... .. . ... ... ... : ... .. . ... : ... .. 6 ... : ... .. . ... ... : ... .. . ... ... : ... .. . ... ... : ... .. . ... ...
ROW 9B : ... .. 0 ... V00 ... : ... .. 0 ... ... ... : ... .. . ... : ... .. 3 ... : ... .. . ... ... : --- .. . ... ... : --- .. . ... ... : ... .. . ... ...
ROW 9C : ... .. . ... ... ... : ... .. . ... ... ... : ... .. . ... : ... .. 2 ... : ... .. . ... ... : ... .. . ... ... : ... .. . ... ... : ... .. . ... ...
ROW 9D : F-4 00 F P80 V01 ... : C-5 00 F P80 ... ... : ... .. . ... : ... .. 0 ... : ... .. . ... ... : F-3 01 A ... ... : F-4 01 A ... ... : ... .. . ... ...
ROW 9E : ... .. E ... ... ... : ... .. E ... ... ... : ... .. . ... : ... .. . ... : ... .. . ... ... : ... .. 9 ... ... : ... .. 9 ... ... : ... .. . ... ...
ROW 9F : ... .. D ... ... ... : ... .. D ... ... ... : ... .. . ... : ... .. . ... : ... .. . ... ... : ... .. . ... ... : ... .. . ... ... : ... .. . ... ...
ROW A0 : ... .. 0 ... V00 ... : ... .. 0 ... ... ... : ... .. . ... : ... .. . ... : ... .. . ... ... : --- .. . ... ... : --- .. . ... ... : ... .. . ... ...
ROW A1 : ... .. . ... ... ... : ... .. . ... ... ... : ... .. . ... : ... .. . ... : ... .. . ... ... : ... .. . ... ... : ... .. . ... ... : ... .. . ... ...
ROW A2 : E-4 00 F P80 V01 ... : B-4 00 F P80 ... ... : C-4 00 . ... : ... .. . ... : ... .. . ... ... : D-4 01 A ... ... : D-5 01 A ... ... : ... .. . ... ...
ROW A3 : ... .. E ... ... ... : ... .. E ... ... ... : C#4 00 . P83 : ... .. . ... : ... .. . ... ... : ... .. 9 ... ... : ... .. 9 ... ... : ... .. . ... ...
ROW A4 : ... .. D ... ... ... : ... .. D ... ... ... : D#4 00 . P7C : ... .. . ... : ... .. . ... ... : ... .. . ... ... : ... .. . ... ... : ... .. . ... ...
ROW A5 : ... .. 0 ... V00 ... : ... .. 0 ... ... ... : E-4 00 . P81 : ... .. . ... : ... .. . ... ... : --- .. . ... ... : --- .. . ... ... : ... .. . ... ...
ROW A6 : ... .. . ... ... ... : ... .. . ... ... ... : F#4 00 . P7D : ... .. . ... : ... .. . ... ... : ... .. . ... ... : ... .. . ... ... : ... .. . ... ...
ROW A7 : D#4 00 F P80 V01 ... : A#4 00 F P80 ... ... : G-4 00 . P84 : ... .. . ... : ... .. . ... ... : F-3 01 A ... ... : F-4 01 A ... ... : ... .. . ... ...
ROW A8 : ... .. E ... ... ... : ... .. E ... ... ... : G#4 00 . P80 : ... .. . ... : ... .. . ... ... : ... .. 9 ... ... : ... .. 9 ... ... : ... .. . ... ...
ROW A9 : ... .. D ... ... ... : ... .. D ... ... ... : ... .. . ... : ... .. . ... : ... .. . ... ... : ... .. . ... ... : ... .. . ... ... : ... .. . ... ...
ROW AA : ... .. 0 ... V00 ... : ... .. 0 ... ... ... : ... .. . ... : ... .. . ... : ... .. . ... ... : --- .. . ... ... : --- .. . ... ... : ... .. . ... ...
ROW AB : ... .. . ... ... ... : ... .. . ... ... ... : ... .. . ... : ... .. . ... : ... .. . ... ... : ... .. . ... ... : ... .. . ... ... : ... .. . ... ...
ROW AC : D-4 00 F P80 V01 ... : A-4 00 F P80 ... ... : B-1 00 . ... : ... .. . ... : ... .. . ... ... : D-4 01 A ... ... : D-5 01 A ... ... : ... .. . ... ...
ROW AD : ... .. E ... ... ... : ... .. E ... ... ... : ... .. . ... : ... .. . ... : ... .. . ... ... : ... .. 9 ... ... : ... .. 9 ... ... : ... .. . ... ...
ROW AE : ... .. D ... ... ... : ... .. D ... ... ... : ... .. . ... : ... .. . ... : ... .. . ... ... : ... .. . ... ... : ... .. . ... ... : ... .. . ... ...
ROW AF : ... .. 0 ... V00 ... : ... .. 0 ... ... ... : ... .. . ... : ... .. . ... : ... .. . ... ... : --- .. . ... ... : --- .. . ... ... : ... .. . ... ...
ROW B0 : ... .. . ... ... ... : ... .. . ... ... ... : ... .. . ... : ... .. . ... : ... .. . ... ... : ... .. . ... ... : ... .. . ... ... : ... .. . ... ...
ROW B1 : C#4 00 F P80 V01 ... : G#4 00 F P80 ... ... : ... .. . ... : ... .. . ... : ... .. . ... ... : F-3 01 A ... ... : F-4 01 A ... ... : ... .. . ... ...
ROW B2 : ... .. E ... ... ... : ... .. E ... ... ... : ... .. . P8F : ... .. . ... : ... .. . ... ... : ... .. 9 ... ... : ... .. 9 ... ... : ... .. . ... ...
ROW B3 : ... .. D ... ... ... : ... .. D ... ... ... : C-2 00 . P6B : ... .. . ... : ... .. . ... ... : ... .. . ... ... : ... .. . ... ... : ... .. . ... ...
ROW B4 : ... .. 0 ... V00 ... : ... .. 0 ... ... ... : ... .. . P7A : ... .. . ... : ... .. . ... ... : --- .. . ... ... : --- .. . ... ... : ... .. . ... ...
ROW B5 : ... .. . ... ... ... : ... .. . ... ... ... : ... .. . P89 : ... .. . ... : ... .. . ... ... : ... .. . ... ... : ... .. . ... ... : ... .. . ... ...
ROW B6 : C-4 00 F P80 V01 ... : G-4 00 F P80 ... ... : ... .. . P98 : ... .. . ... : ... .. . ... ... : D-4 01 A ... ... : D-5 01 A ... ... : ... .. . ... ...
ROW B7 : ... .. E ... ... ... : ... .. E ... ... ... : C#2 00 . P77 : ... .. . ... : ... .. . ... ... : ... .. 9 ... ... : ... .. 9 ... ... : ... .. . ... ...
ROW B8 : ... .. D ... ... ... : ... .. D ... ... ... : ... .. . P86 : ... .. . ... : ... .. . ... ... : ... .. . ... ... : ... .. . ... ... : ... .. . ... ...
ROW B9 : ... .. 0 ... V00 ... : ... .. 0 ... ... ... : ... .. . P95 : ... .. . ... : ... .. . ... ... : --- .. . ... ... : --- .. . ... ... : ... .. . ... ...
ROW BA : ... .. . ... ... ... : ... .. . ... ... ... : D-2 00 . P77 : ... .. . ... : ... .. . ... ... : ... .. . ... ... : ... .. . ... ... : ... .. . ... ...
ROW BB : B-3 00 F P80 V01 ... : F#4 00 F P80 ... ... : ... .. . P86 : ... .. . ... : ... .. . ... ... : F-3 01 A ... ... : F-4 01 A ... ... : ... .. . ... ...
ROW BC : ... .. E ... ... ... : ... .. E ... ... ... : ... .. . P95 : ... .. . ... : ... .. . ... ... : ... .. 9 ... ... : ... .. 9 ... ... : ... .. . ... ...
ROW BD : ... .. D ... ... ... : ... .. D ... ... ... : D#2 00 . P79 : ... .. . ... : ... .. . ... ... : ... .. . ... ... : ... .. . ... ... : ... .. . ... ...
ROW BE : ... .. 0 ... V00 ... : ... .. 0 ... ... ... : ... .. . P88 : ... .. . ... : ... .. . ... ... : --- .. . ... ... : --- .. . ... ... : ... .. . ... ...
ROW BF : ... .. . ... ... ... : ... .. . ... ... ... : E-2 00 . P6F : ... .. . ... : ... .. . ... ... : ... .. . ... ... : ... .. . ... ... : ... .. . ... ...
ROW C0 : F-2 00 F P80 V01 ... : C-3 00 F P80 ... ... : F-2 00 . P80 : ... .. F ... : ... .. . ... ... : F-4 01 A ... ... : F-5 01 A ... ... : ... .. . ... ...
ROW C1 : ... .. E ... ... ... : ... .. E ... ... ... : ... .. . ... : ... .. C ... : ... .. . ... ... : ... .. 9 ... ... : ... .. 9 ... ... : ... .. . ... ...
ROW C2 : ... .. D ... ... ... : ... .. D ... ... ... : ... .. . ... : ... .. 6 ... : ... .. . ... ... : ... .. . ... ... : ... .. . ... ... : ... .. . ... ...
ROW C3 : ... .. 0 ... V00 ... : ... .. 0 ... ... ... : ... .. . ... : ... .. 3 ... : ... .. . ... ... : --- .. . ... ... : --- .. . ... ... : ... .. . ... ...
ROW C4 : ... .. . ... ... ... : ... .. . ... ... ... : ... .. . ... : ... .. 2 ... : ... .. . ... ... : ... .. . ... ... : ... .. . ... ... : ... .. . ... ...
ROW C5 : F-2 00 F P80 V01 ... : C-3 00 F P80 ... ... : --- .. . ... : ... .. 0 ... : ... .. . ... ... : G#3 01 A ... ... : G#4 01 A ... ... : ... .. . ... ...
ROW C6 : ... .. E ... ... ... : ... .. E ... ... ... : ... .. . ... : ... .. . ... : ... .. . ... ... : ... .. 9 ... ... : ... .. 9 ... ... : ... .. . ... ...
ROW C7 : ... .. D ... ... ... : ... .. D ... ... ... : ... .. . ... : ... .. . ... : ... .. . ... ... : ... .. . ... ... : ... .. . ... ... : ... .. . ... ...
ROW C8 : ... .. 0 ... V00 ... : ... .. 0 ... ... ... : ... .. . ... : ... .. . ... : ... .. . ... ... : --- .. . P82 ... : --- .. . ... ... : ... .. . ... ...
ROW C9 : ... .. . ... ... ... : ... .. . ... ... ... : ... .. . ... : ... .. . ... : ... .. . ... ... : ... .. . ... ... : ... .. . ... ... : ... .. . ... ...
ROW CA : B-2 00 F P80 V01 ... : F#3 00 F P80 ... ... : F-2 00 . ... : D-# 00 F ... : ... .. . ... ... : F-4 01 A P80 ... : F-5 01 A ... ... : ... .. . ... ...
ROW CB : ... .. E ... ... ... : ... .. E ... ... ... : ... .. . ... : ... .. C ... : ... .. . ... ... : ... .. 9 ... ... : ... .. 9 ... ... : ... .. . ... ...
ROW CC : ... .. D ... ... ... : ... .. D ... ... ... : ... .. . ... : ... .. 6 ... : ... .. . ... ... : ... .. . ... ... : ... .. . ... ... : ... .. . ... ...
ROW CD : ... .. A ... ... ... : ... .. A ... ... ... : --- .. . ... : ... .. 3 ... : ... .. . ... ... : --- .. . ... ... : --- .. . ... ... : ... .. . ... ...
ROW CE : ... .. . ... ... ... : ... .. . ... ... ... : ... .. . ... : ... .. 2 ... : ... .. . ... ... : ... .. . ... ... : ... .. . ... ... : ... .. . ... ...
ROW CF : ... .. . ... ... ... : ... .. . ... ... ... : F-2 00 . ... : ... .. F ... : ... .. . ... ... : G#3 01 A ... ... : G#4 01 A ... ... : ... .. . ... ...
ROW D0 : ... .. . ... ... ... : ... .. . ... ... ... : ... .. . ... : ... .. C ... : ... .. . ... ... : ... .. 9 ... ... : ... .. 9 ... ... : ... .. . ... ...
ROW D1 : ... .. . ... ... ... : ... .. . ... ... ... : ... .. . ... : ... .. 6 ... : ... .. . ... ... : ... .. . ... ... : ... .. . ... ... : ... .. . ... ...
ROW D2 : ... .. 0 ... V00 ... : ... .. 0 ... ... ... : --- .. . ... : ... .. 3 ... : ... .. . ... ... : --- .. . P82 ... : --- .. . ... ... : ... .. . ... ...
ROW D3 : ... .. . ... ... ... : ... .. . ... ... ... : ... .. . ... : ... .. 2 ... : ... .. . ... ... : ... .. . ... ... : ... .. . ... ... : ... .. . ... ...
ROW D4 : A#2 00 F P80 V01 ... : F-3 00 F P80 ... ... : F-2 00 . ... : 6-# 00 F ... : ... .. . ... ... : F-4 01 A P80 ... : F-5 01 A ... ... : ... .. . ... ...
ROW D5 : ... .. E ... ... ... : ... .. E ... ... ... : ... .. . ... : ... .. C ... : ... .. . ... ... : ... .. 9 ... ... : ... .. 9 ... ... : ... .. . ... ...
ROW D6 : ... .. D ... ... ... : ... .. D ... ... ... : ... .. . ... : ... .. 6 ... : ... .. . ... ... : ... .. . ... ... : ... .. . ... ... : ... .. . ... ...
ROW D7 : ... .. A ... ... ... : ... .. A ... ... ... : ... .. . ... : ... .. 3 ... : ... .. . ... ... : --- .. . ... ... : --- .. . ... ... : ... .. . ... ...
ROW D8 : ... .. . ... ... ... : ... .. . ... ... ... : ... .. . ... : ... .. 2 ... : ... .. . ... ... : ... .. . ... ... : ... .. . ... ... : ... .. . ... ...
ROW D9 : ... .. . ... ... ... : ... .. . ... ... ... : --- .. . ... : ... .. 0 ... : ... .. . ... ... : G#3 01 A ... ... : G#4 01 A ... ... : ... .. . ... ...
ROW DA : ... .. . ... ... ... : ... .. . ... ... ... : ... .. . ... : ... .. . ... : ... .. . ... ... : ... .. 9 ... ... : ... .. 9 ... ... : ... .. . ... ...
ROW DB : ... .. . ... ... ... : ... .. . ... ... ... : ... .. . ... : ... .. . ... : ... .. . ... ... : ... .. . ... ... : ... .. . ... ... : ... .. . ... ...
ROW DC : ... .. 0 ... V00 ... : ... .. 0 ... ... ... : ... .. . ... : ... .. . ... : ... .. . ... ... : --- .. . P82 ... : --- .. . ... ... : ... .. . ... ...
ROW DD : ... .. . ... ... ... : ... .. . ... ... ... : ... .. . ... : ... .. . ... : ... .. . ... ... : ... .. . ... ... : ... .. . ... ... : ... .. . ... ...
ROW DE : G#2 00 F P80 V01 ... : D#3 00 F P80 ... ... : F-2 00 . ... : D-# 00 F ... : ... .. . ... ... : F-4 01 A P80 ... : F-5 01 A ... ... : ... .. . ... ...
ROW DF : ... .. E ... ... ... : ... .. E ... ... ... : ... .. . ... : ... .. C ... : ... .. . ... ... : ... .. 9 ... ... : ... .. 9 ... ... : ... .. . ... ...
ROW E0 : ... .. D ... ... ... : ... .. D ... ... ... : ... .. . ... : ... .. 6 ... : ... .. . ... ... : ... .. . ... ... : ... .. . ... ... : ... .. . ... ...
ROW E1 : ... .. 0 ... V00 ... : ... .. 0 ... ... ... : --- .. . ... : ... .. 3 ... : ... .. . ... ... : --- .. . ... ... : --- .. . ... ... : ... .. . ... ...
ROW E2 : ... .. . ... ... ... : ... .. . ... ... ... : ... .. . ... : ... .. 2 ... : ... .. . ... ... : ... .. . ... ... : ... .. . ... ... : ... .. . ... ...
ROW E3 : F-2 00 F P80 V01 ... : C-3 00 F P80 ... ... : F-2 00 . ... : ... .. F ... : ... .. . ... ... : G#3 01 A ... ... : G#4 01 A ... ... : ... .. . ... ...
ROW E4 : ... .. E ... ... ... : ... .. E ... ... ... : ... .. . ... : ... .. C ... : ... .. . ... ... : ... .. 9 ... ... : ... .. 9 ... ... : ... .. . ... ...
ROW E5 : ... .. D ... ... ... : ... .. D ... ... ... : ... .. . ... : ... .. 6 ... : ... .. . ... ... : ... .. . ... ... : ... .. . ... ... : ... .. . ... ...
ROW E6 : ... .. A ... ... ... : ... .. A ... ... ... : --- .. . ... : ... .. 3 ... : ... .. . ... ... : --- .. . P82 ... : --- .. . ... ... : ... .. . ... ...
ROW E7 : ... .. . ... ... ... : ... .. . ... ... ... : ... .. . ... : ... .. 2 ... : ... .. . ... ... : ... .. . ... ... : ... .. . ... ... : ... .. . ... ...
ROW E8 : ... .. . ... ... ... : ... .. . ... ... ... : F-2 00 . ... : 3-# 00 F ... : ... .. . ... ... : E-4 01 A P80 ... : E-5 01 A ... ... : ... .. . ... ...
ROW E9 : ... .. . ... ... ... : ... .. . ... ... ... : ... .. . ... : ... .. C ... : ... .. . ... ... : ... .. 9 ... ... : ... .. 9 ... ... : ... .. . ... ...
ROW EA : ... .. . ... ... ... : ... .. . ... ... ... : ... .. . ... : ... .. 6 ... : ... .. . ... ... : ... .. . ... ... : ... .. . ... ... : ... .. . ... ...
ROW EB : ... .. 0 ... V00 ... : ... .. 0 ... ... ... : ... .. . ... : ... .. 3 ... : ... .. . ... ... : --- .. . ... ... : --- .. . ... ... : ... .. . ... ...
ROW EC : ... .. . ... ... ... : ... .. . ... ... ... : ... .. . ... : ... .. 2 ... : ... .. . ... ... : ... .. . ... ... : ... .. . ... ... : ... .. . ... ...
ROW ED : F-2 00 F P80 V01 ... : C-3 00 F P80 ... ... : --- .. . ... : ... .. 0 ... : ... .. . ... ... : G-3 01 A ... ... : G-4 01 A ... ... : ... .. . ... ...
ROW EE : ... .. E ... ... ... : ... .. E ... ... ... : ... .. . ... : ... .. . ... : ... .. . ... ... : ... .. 9 ... ... : ... .. 9 ... ... : ... .. . ... ...
ROW EF : ... .. D ... ... ... : ... .. D ... ... ... : ... .. . ... : ... .. . ... : ... .. . ... ... : ... .. . ... ... : ... .. . ... ... : ... .. . ... ...
ROW F0 : ... .. 0 ... V00 ... : ... .. 0 ... ... ... : ... .. . ... : ... .. . ... : ... .. . ... ... : --- .. . P81 ... : --- .. . ... ... : ... .. . ... ...
ROW F1 : ... .. . ... ... ... : ... .. . ... ... ... : ... .. . ... : ... .. . ... : ... .. . ... ... : ... .. . ... ... : ... .. . ... ... : ... .. . ... ...
ROW F2 : B-2 00 F P80 V01 ... : F#3 00 F P80 ... ... : F-2 00 . ... : D-# 00 F ... : ... .. . ... ... : E-4 01 A P80 ... : E-5 01 A ... ... : ... .. . ... ...
ROW F3 : ... .. E ... ... ... : ... .. E ... ... ... : ... .. . ... : ... .. C ... : ... .. . ... ... : ... .. 9 ... ... : ... .. 9 ... ... : ... .. . ... ...
ROW F4 : ... .. D ... ... ... : ... .. D ... ... ... : ... .. . ... : ... .. 6 ... : ... .. . ... ... : ... .. . ... ... : ... .. . ... ... : ... .. . ... ...
ROW F5 : ... .. A ... ... ... : ... .. A ... ... ... : --- .. . ... : ... .. 3 ... : ... .. . ... ... : --- .. . ... ... : --- .. . ... ... : ... .. . ... ...
ROW F6 : ... .. . ... ... ... : ... .. . ... ... ... : ... .. . ... : ... .. 2 ... : ... .. . ... ... : ... .. . ... ... : ... .. . ... ... : ... .. . ... ...
ROW F7 : ... .. . ... ... ... : ... .. . ... ... ... : F-2 00 . ... : ... .. F ... : ... .. . ... ... : G-3 01 A ... ... : G-4 01 A ... ... : ... .. . ... ...
ROW F8 : ... .. . ... ... ... : ... .. . ... ... ... : ... .. . ... : ... .. C ... : ... .. . ... ... : ... .. 9 ... ... : ... .. 9 ... ... : ... .. . ... ...
ROW F9 : ... .. . ... ... ... : ... .. . ... ... ... : ... .. . ... : ... .. 6 ... : ... .. . ... ... : ... .. . ... ... : ... .. . ... ... : ... .. . ... ...
ROW FA : ... .. 0 ... V00 ... : ... .. 0 ... ... ... : --- .. . ... : ... .. 3 ... : ... .. . ... ... : --- .. . P81 ... : --- .. . ... ... : ... .. . ... ...
ROW FB : ... .. . ... ... ... : ... .. . ... ... ... : ... .. . ... : ... .. 2 ... : ... .. . ... ... : ... .. . ... ... : ... .. . ... ... : ... .. . ... ...
ROW FC : A#2 00 F P80 V01 ... : F-3 00 F P80 ... ... : F-2 00 . ... : 6-# 00 F ... : ... .. . ... ... : E-4 01 A P80 ... : E-5 01 A ... ... : ... .. . ... ...
ROW FD : ... .. E ... ... ... : ... .. E ... ... ... : ... .. . ... : ... .. C ... : ... .. . ... ... : ... .. 9 ... ... : ... .. 9 ... ... : ... .. . ... ...
ROW FE : ... .. D ... ... ... : ... .. D ... ... ... : ... .. . ... : ... .. 6 ... : ... .. . ... ... : ... .. . ... ... : ... .. . ... ... : ... .. . ... ...
ROW FF : ... .. A ... ... ... : ... .. A ... ... ... : --- .. . ... : ... .. 3 ... : ... .. . ... ... : --- .. . ... ... : --- .. . ... ... : ... .. . ... ...

PATTERN 13
ROW 00 : ... .. . ... ... ... : ... .. . ... ... ... : ... .. . ... : ... .. 2 ... : ... .. . ... ... : ... .. . ... ... : ... .. . ... ... : ... .. . ... ...
ROW 01 : ... .. . ... ... ... : ... .. . ... ... ... : F-2 00 . ... : ... .. 0 ... : ... .. . ... ... : G-3 01 A ... ... : G-4 01 A ... ... : ... .. . ... ...
ROW 02 : ... .. . ... ... ... : ... .. . ... ... ... : ... .. . ... : ... .. . ... : ... .. . ... ... : ... .. 9 ... ... : ... .. 9 ... ... : ... .. . ... ...
ROW 03 : ... .. . ... ... ... : ... .. . ... ... ... : ... .. . ... : ... .. . ... : ... .. . ... ... : ... .. . ... ... : ... .. . ... ... : ... .. . ... ...
ROW 04 : ... .. 0 ... V00 ... : ... .. 0 ... ... ... : --- .. . ... : ... .. . ... : ... .. . ... ... : --- .. . P81 ... : --- .. . ... ... : ... .. . ... ...
ROW 05 : ... .. . ... ... ... : ... .. . ... ... ... : ... .. . ... : ... .. . ... : ... .. . ... ... : ... .. . ... ... : ... .. . ... ... : ... .. . ... ...
ROW 06 : G#2 00 F P80 V01 ... : D#3 00 F P80 ... ... : F-2 00 . ... : D-# 00 F ... : ... .. . ... ... : E-4 01 A P80 ... : E-5 01 A ... ... : ... .. . ... ...
ROW 07 : ... .. E ... ... ... : ... .. E ... ... ... : ... .. . ... : ... .. C ... : ... .. . ... ... : ... .. 9 ... ... : ... .. 9 ... ... : ... .. . ... ...
ROW 08 : ... .. D ... ... ... : ... .. D ... ... ... : ... .. . ... : ... .. 6 ... : ... .. . ... ... : ... .. . ... ... : ... .. . ... ... : ... .. . ... ...
ROW 09 : ... .. A ... ... ... : ... .. A ... ... ... : --- .. . ... : ... .. 3 ... : ... .. . ... ... : --- .. . ... ... : --- .. . ... ... : ... .. . ... ...
ROW 0A : ... .. . ... ... ... : ... .. . ... ... ... : ... .. . ... : ... .. 2 ... : ... .. . ... ... : ... .. . ... ... : ... .. . ... ... : ... .. . ... ...
ROW 0B : ... .. . ... ... ... : ... .. . ... ... ... : F-2 00 . ... : ... .. 0 ... : ... .. . ... ... : G-3 01 A ... ... : G-4 01 A ... ... : ... .. . ... ...
ROW 0C : ... .. . ... ... ... : ... .. . ... ... ... : ... .. . ... : ... .. . ... : ... .. . ... ... : ... .. 9 ... ... : ... .. 9 ... ... : ... .. . ... ...
ROW 0D : ... .. . ... ... ... : ... .. . ... ... ... : ... .. . ... : ... .. . ... : ... .. . ... ... : ... .. . ... ... : ... .. . ... ... : ... .. . ... ...
ROW 0E : ... .. 0 ... V00 ... : ... .. 0 ... ... ... : --- .. . ... : ... .. . ... : ... .. . ... ... : --- .. . P81 ... : --- .. . ... ... : ... .. . ... ...
ROW 0F : ... .. . ... ... ... : ... .. . ... ... ... : ... .. . ... : ... .. . ... : ... .. . ... ... : ... .. . ... ... : ... .. . ... ... : ... .. . ... ...
ROW 10 : F-2 00 F P80 V01 ... : C-3 00 F P80 ... ... : F-2 00 . ... : 3-# 00 F ... : ... .. . ... ... : D#4 01 A P80 ... : D#5 01 A ... ... : ... .. . ... ...
ROW 11 : ... .. E ... ... ... : ... .. E ... ... ... : ... .. . ... : ... .. C ... : ... .. . ... ... : ... .. 9 ... ... : ... .. 9 ... ... : ... .. . ... ...
ROW 12 : ... .. D ... ... ... : ... .. D ... ... ... : ... .. . ... : ... .. 6 ... : ... .. . ... ... : ... .. . ... ... : ... .. . ... ... : ... .. . ... ...
ROW 13 : ... .. 0 ... V00 ... : ... .. 0 ... ... ... : ... .. . ... : ... .. 3 ... : ... .. . ... ... : --- .. . ... ... : --- .. . ... ... : ... .. . ... ...
ROW 14 : ... .. . ... ... ... : ... .. . ... ... ... : ... .. . ... : ... .. 2 ... : ... .. . ... ... : ... .. . ... ... : ... .. . ... ... : ... .. . ... ...
ROW 15 : F-2 00 F P80 V01 ... : C-3 00 F P80 ... ... : ... .. . ... : ... .. 0 ... : ... .. . ... ... : F#3 01 A ... ... : F#4 01 A ... ... : ... .. . ... ...
ROW 16 : ... .. E ... ... ... : ... .. E ... ... ... : ... .. . ... : ... .. . ... : ... .. . ... ... : ... .. 9 ... ... : ... .. 9 ... ... : ... .. . ... ...
ROW 17 : ... .. D ... ... ... : ... .. D ... ... ... : ... .. . ... : ... .. . ... : ... .. . ... ... : ... .. . ... ... : ... .. . ... ... : ... .. . ... ...
ROW 18 : ... .. 0 ... V00 ... : ... .. 0 ... ... ... : ... .. . ... : ... .. . ... : ... .. . ... ... : --- .. . P7F ... : --- .. . ... ... : ... .. . ... ...
ROW 19 : ... .. . ... ... ... : ... .. . ... ... ... : ... .. . ... : ... .. . ... : ... .. . ... ... : ... .. . ... ... : ... .. . ... ... : ... .. . ... ...
ROW 1A : A#2 00 F P80 V01 ... : F-3 00 F P80 ... ... : A#2 00 . ... : D-# 00 F ... : ... .. . ... ... : A#3 01 A P80 ... : A#4 01 A ... ... : ... .. . ... ...
ROW 1B : ... .. E ... ... ... : ... .. E ... ... ... : ... .. . ... : ... .. C ... : ... .. . ... ... : ... .. 9 ... ... : ... .. 9 ... ... : ... .. . ... ...
ROW 1C : ... .. D ... ... ... : ... .. D ... ... ... : ... .. . ... : ... .. 6 ... : ... .. . ... ... : ... .. . ... ... : ... .. . ... ... : ... .. . ... ...
ROW 1D : ... .. 0 ... V00 ... : ... .. 0 ... ... ... : --- .. . ... : ... .. 3 ... : ... .. . ... ... : --- .. . ... ... : --- .. . ... ... : ... .. . ... ...
ROW 1E : ... .. . ... ... ... : ... .. . ... ... ... : ... .. . ... : ... .. 2 ... : ... .. . ... ... : ... .. . ... ... : ... .. . ... ... : ... .. . ... ...
ROW 1F : B-2 00 F P80 V01 ... : F#3 00 F P80 ... ... : B-2 00 . ... : ... .. F ... : ... .. . ... ... : B-3 01 A ... ... : B-4 01 A ... ... : ... .. . ... ...
ROW 20 : ... .. E ... ... ... : ... .. E ... ... ... : ... .. . ... : ... .. C ... : ... .. . ... ... : ... .. 9 ... ... : ... .. 9 ... ... : ... .. . ... ...
ROW 21 : ... .. D ... ... ... : ... .. D ... ... ... : ... .. . ... : ... .. 6 ... : ... .. . ... ... : ... .. . ... ... : ... .. . ... ... : ... .. . ... ...
ROW 22 : ... .. 0 ... V00 ... : ... .. 0 ... ... ... : --- .. . ... : ... .. 3 ... : ... .. . ... ... : --- .. . ... ... : --- .. . ... ... : ... .. . ... ...
ROW 23 : ... .. . ... ... ... : ... .. . ... ... ... : ... .. . ... : ... .. 2 ... : ... .. . ... ... : ... .. . ... ... : ... .. . ... ... : ... .. . ... ...
ROW 24 : C-3 00 F P80 V01 ... : G-3 00 F P80 ... ... : C-3 00 . ... : 6-# 00 F ... : ... .. . ... ... : C-4 01 A ... ... : C-5 01 A ... ... : ... .. . ... ...
ROW 25 : ... .. E ... ... ... : ... .. E ... ... ... : ... .. . ... : ... .. C ... : ... .. . ... ... : ... .. 9 ... ... : ... .. 9 ... ... : ... .. . ... ...
ROW 26 : ... .. D ... ... ... : ... .. D ... ... ... : ... .. . ... : ... .. 6 ... : ... .. . ... ... : ... .. . ... ... : ... .. . ... ... : ... .. . ... ...
ROW 27 : ... .. A ... ... ... : ... .. A ... ... ... : ... .. . ... : ... .. 3 ... : ... .. . ... ... : --- .. . ... ... : --- .. . ... ... : ... .. . ... ...
ROW 28 : ... .. . ... ... ... : ... .. . ... ... ... : ... .. . ... : ... .. 2 ... : ... .. . ... ... : ... .. . ... ... : ... .. . ... ... : ... .. . ... ...
ROW 29 : D#3 00 F ... ... ... : A#3 00 F ... ... ... : D#3 00 . ... : ... .. 0 ... : ... .. . ... ... : D#4 01 A ... ... : D#5 01 A ... ... : ... .. . ... ...
ROW 2A : ... .. E ... ... ... : ... .. E ... ... ... : ... .. . ... : ... .. . ... : ... .. . ... ... : ... .. 9 ... ... : ... .. 9 ... ... : ... .. . ... ...
ROW 2B : ... .. D ... ... ... : ... .. D ... ... ... : ... .. . ... : ... .. . ... : ... .. . ... ... : ... .. . ... ... : ... .. . ... ... : ... .. . ... ...
ROW 2C : ... .. 0 ... V00 ... : ... .. 0 ... ... ... : ... .. . ... : ... .. . ... : ... .. . ... ... : --- .. . ... ... : --- .. . ... ... : ... .. . ... ...
ROW 2D : ... .. . ... ... ... : ... .. . ... ... ... : ... .. . ... : ... .. . ... : ... .. . ... ... : ... .. . ... ... : ... .. . ... ... : ... .. . ... ...
ROW 2E : C-3 00 F P80 V01 ... : G-3 00 F P80 ... ... : C-3 00 . ... : D-# 00 F ... : ... .. . ... ... : C-4 01 A ... ... : C-5 01 A ... ... : ... .. . ... ...
ROW 2F : ... .. E ... ... ... : ... .. E ... ... ... : ... .. . ... : ... .. C ... : ... .. . ... ... : ... .. 9 ... ... : ... .. 9 ... ... : ... .. . ... ...
ROW 30 : ... .. D ... ... ... : ... .. D ... ... ... : ... .. . ... : ... .. 6 ... : ... .. . ... ... : ... .. . ... ... : ... .. . ... ... : ... .. . ... ...
ROW 31 : ... .. 0 ... V00 ... : ... .. 0 ... ... ... : --- .. . ... : ... .. 3 ... : ... .. . ... ... : --- .. . ... ... : --- .. . ... ... : ... .. . ... ...
ROW 32 : ... .. . ... ... ... : ... .. . ... ... ... : ... .. . ... : ... .. 2 ... : ... .. . ... ... : ... .. . ... ... : ... .. . ... ... : ... .. . ... ...
ROW 33 : F-3 00 F P80 V01 ... : C-4 00 F P80 ... ... : F-3 00 . ... : ... .. 0 ... : ... .. . ... ... : F-4 01 A ... ... : F-5 01 A ... ... : ... .. . ... ...
ROW 34 : ... .. E ... ... ... : ... .. E ... ... ... : ... .. . ... : ... .. . ... : ... .. . ... ... : ... .. 9 ... ... : ... .. 9 ... ... : ... .. . ... ...
ROW 35 : ... .. D ... ... ... : ... .. D ... ... ... : ... .. . ... : ... .. . ... : ... .. . ... ... : ... .. . ... ... : ... .. . ... ... : ... .. . ... ...
ROW 36 : ... .. A ... ... ... : ... .. A ... ... ... : ... .. . ... : ... .. . ... : ... .. . ... ... : --- .. . ... ... : --- .. . ... ... : ... .. . ... ...
ROW 37 : ... .. . ... ... ... : ... .. . ... ... ... : ... .. . ... : ... .. . ... : ... .. . ... ... : ... .. . ... ... : ... .. . ... ... : ... .. . ... ...
ROW 38 : C-3 00 4 ... ... ... : G-3 00 4 ... ... ... : ... .. . ... : 3-# 00 F ... : ... .. . ... ... : G#4 01 A ... ... : G#5 01 A ... ... : ... .. . ... ...
ROW 39 : G-3 00 3 ... ... ... : D-4 00 3 ... ... ... : ... .. . ... : ... .. C ... : ... .. . ... ... : ... .. 9 ... ... : ... .. 9 ... ... : ... .. . ... ...
ROW 3A : A-3 00 3 ... ... ... : E-4 00 3 ... ... ... : ... .. . ... : ... .. 6 ... : ... .. . ... ... : ... .. . ... ... : ... .. . ... ... : ... .. . ... ...
ROW 3B : ... .. 0 ... V00 ... : ... .. 0 ... ... ... : ... .. . ... : ... .. 3 ... : ... .. . ... ... : --- .. . ... ... : --- .. . ... ... : ... .. . ... ...
ROW 3C : ... .. . ... ... ... : ... .. . ... ... ... : ... .. . ... : ... .. 2 ... : ... .. . ... ... : ... .. . ... ... : ... .. . ... ... : ... .. . ... ...
ROW 3D : A#3 00 4 P80 V01 ... : F-4 00 4 P80 ... ... : ... .. . ... : ... .. 0 ... : ... .. . ... ... : G-4 01 A ... ... : G-5 01 A ... ... : ... .. . ... ...
ROW 3E : C#3 00 3 ... ... ... : G#3 00 3 ... ... ... : ... .. . ... : ... .. . ... : ... .. . ... ... : ... .. 9 ... ... : ... .. 9 ... ... : ... .. . ... ...
ROW 3F : G#3 00 3 ... ... ... : D#4 00 3 ... ... ... : ... .. . ... : ... .. . ... : ... .. . ... ... : ... .. . ... ... : ... .. . ... ... : ... .. . ... ...
ROW 40 : ... .. 0 ... V00 ... : ... .. 0 ... ... ... : ... .. . ... : ... .. . ... : ... .. . ... ... : --- .. . ... ... : --- .. . ... ... : ... .. . ... ...
ROW 41 : ... .. . ... ... ... : ... .. . ... ... ... : ... .. . ... : ... .. . ... : ... .. . ... ... : ... .. . ... ... : ... .. . ... ... : ... .. . ... ...
ROW 42 : A-3 00 5 P80 V01 ... : E-4 00 5 P80 ... ... : E-3 00 . P83 : ... .. . ... : ... .. . ... ... : F#4 01 A ... ... : F#5 01 A ... ... : ... .. . ... ...
ROW 43 : B-3 00 4 ... ... ... : F#4 00 4 ... ... ... : D#3 00 . P88 : ... .. . ... : ... .. . ... ... : ... .. 9 ... ... : ... .. 9 ... ... : ... .. . ... ...
ROW 44 : D-3 00 4 ... ... ... : A-3 00 4 ... ... ... : ... .. . P78 : ... .. . ... : ... .. . ... ... : ... .. . ... ... : ... .. . ... ... : ... .. . ... ...
ROW 45 : ... .. 0 ... V00 ... : ... .. 0 ... ... ... : D-3 00 . P7D : ... .. . ... : ... .. . ... ... : --- .. . ... ... : --- .. . ... ... : ... .. . ... ...
ROW 46 : ... .. . ... ... ... : ... .. . ... ... ... : C#3 00 . P84 : ... .. . ... : ... .. . ... ... : ... .. . ... ... : ... .. . ... ... : ... .. . ... ...
ROW 47 : D#3 00 6 P80 V01 ... : A#3 00 6 P80 ... ... : C-3 00 . P8C : ... .. . ... : ... .. . ... ... : F-4 01 A ... ... : F-5 01 A ... ... : ... .. . ... ...
ROW 48 : A#3 00 5 ... ... ... : F-4 00 5 ... ... ... : ... .. . P7C : ... .. . ... : ... .. . ... ... : ... .. 9 ... ... : ... .. 9 ... ... : ... .. . ... ...
ROW 49 : C-4 00 5 ... ... ... : G-4 00 5 ... ... ... : B-2 00 . P85 : ... .. . ... : ... .. . ... ... : ... .. . ... ... : ... .. . ... ... : ... .. . ... ...
ROW 4A : ... .. 0 ... V00 ... : ... .. 0 ... ... ... : ... .. . P75 : ... .. . ... : ... .. . ... ... : --- .. . ... ... : --- .. . ... ... : ... .. . ... ...
ROW 4B : ... .. . ... ... ... : ... .. . ... ... ... : A#2 00 . P80 : ... .. . ... : ... .. . ... ... : ... .. . ... ... : ... .. . ... ... : ... .. . ... ...
ROW 4C : C#4 00 7 P80 V01 ... : G#4 00 7 P80 ... ... : A-2 00 . P8C : ... .. . ... : ... .. . ... ... : E-4 01 A ... ... : E-5 01 A ... ... : ... .. . ... ...
ROW 4D : E-3 00 6 ... ... ... : B-3 00 6 ... ... ... : ... .. . P7C : ... .. . ... : ... .. . ... ... : ... .. 9 ... ... : ... .. 9 ... ... : ... .. . ... ...
ROW 4E : B-3 00 6 ... ... ... : F#4 00 6 ... ... ... : G#2 00 . P8B : ... .. . ... : ... .. . ... ... : ... .. . ... ... : ... .. . ... ... : ... .. . ... ...
ROW 4F : ... .. 0 ... V00 ... : ... .. 0 ... ... ... : ... .. . P7B : ... .. . ... : ... .. . ... ... : --- .. . ... ... : --- .. . ... ... : ... .. . ... ...
ROW 50 : ... .. . ... ... ... : ... .. . ... ... ... : G-2 00 . P8B : ... .. . ... : ... .. . ... ... : ... .. . ... ... : ... .. . ... ... : ... .. . ... ...
ROW 51 : C-4 00 8 P80 V01 ... : G-4 00 8 P80 ... ... : ... .. . P7B : ... .. . ... : ... .. . ... ... : D#4 01 A ... ... : D#5 01 A ... ... : ... .. . ... ...
ROW 52 : D-4 00 7 ... ... ... : A-4 00 7 ... ... ... : F#2 00 . P8D : ... .. . ... : ... .. . ... ... : ... .. 9 ... ... : ... .. 9 ... ... : ... .. . ... ...
ROW 53 : F-3 00 6 ... ... ... : C-4 00 6 ... ... ... : ... .. . P7D : ... .. . ... : ... .. . ... ... : ... .. . ... ... : ... .. . ... ... : ... .. . ... ...
ROW 54 : ... .. 0 ... V00 ... : ... .. 0 ... ... ... : F-2 00 . P91 : ... .. . ... : ... .. . ... ... : --- .. . ... ... : --- .. . ... ... : ... .. . ... ...
ROW 55 : ... .. . ... ... ... : ... .. . ... ... ... : ... .. . P81 : ... .. . ... : ... .. . ... ... : ... .. . ... ... : ... .. . ... ... : ... .. . ... ...
ROW 56 : F#3 00 9 P80 V01 ... : C#4 00 9 P80 ... ... : ... .. . P71 : ... .. . ... : ... .. . ... ... : D-4 01 A ... ... : D-5 01 A ... ... : ... .. . ... ...
ROW 57 : C#4 00 8 ... ... ... : G#4 00 8 ... ... ... : E-2 00 . P87 : ... .. . ... : ... .. . ... ... : ... .. 9 ... ... : ... .. 9 ... ... : ... .. . ... ...
ROW 58 : D#4 00 7 ... ... ... : A#4 00 7 ... ... ... : ... .. . P77 : ... .. . ... : ... .. . ... ... : ... .. . ... ... : ... .. . ... ... : ... .. . ... ...
ROW 59 : ... .. 0 ... V00 ... : ... .. 0 ... ... ... : D#2 00 . P8F : ... .. . ... : ... .. . ... ... : --- .. . ... ... : --- .. . ... ... : ... .. . ... ...
ROW 5A : ... .. . ... ... ... : ... .. . ... ... ... : ... .. . P7F : ... .. . ... : ... .. . ... ... : ... .. . ... ... : ... .. . ... ... : ... .. . ... ...
ROW 5B : E-4 00 A P80 V01 ... : B-4 00 A P80 ... ... : --- .. . ... : ... .. . ... : ... .. . ... ... : C#4 01 A ... ... : C#5 01 A ... ... : ... .. . ... ...
ROW 5C : G-3 00 9 ... ... ... : D-4 00 9 ... ... ... : ... .. . ... : ... .. . ... : ... .. . ... ... : ... .. 9 ... ... : ... .. 9 ... ... : ... .. . ... ...
ROW 5D : D-4 00 8 ... ... ... : A-4 00 8 ... ... ... : ... .. . ... : ... .. . ... : ... .. . ... ... : ... .. . ... ... : ... .. . ... ... : ... .. . ... ...
ROW 5E : ... .. 0 ... V00 ... : ... .. 0 ... ... ... : ... .. . ... : ... .. . ... : ... .. . ... ... : --- .. . ... ... : --- .. . ... ... : ... .. . ... ...
ROW 5F : ... .. . ... ... ... : ... .. . ... ... ... : ... .. . ... : ... .. . ... : ... .. . ... ... : ... .. . ... ... : ... .. . ... ... : ... .. . ... ...
ROW 60 : F-2 00 F P80 V01 ... : C-3 00 F P80 ... ... : F-3 00 . P80 : ... .. F ... : ... .. . ... ... : F-3 01 A ... ... : F-4 01 A ... ... : ... .. . ... ...
ROW 61 : ... .. E ... ... ... : ... .. E ... ... ... : ... .. . ... : ... .. C ... : ... .. . ... ... : ... .. 9 ... ... : ... .. 9 ... ... : ... .. . ... ...
ROW 62 : ... .. D ... ... ... : ... .. D ... ... ... : ... .. . ... : ... .. 6 ... : ... .. . ... ... : ... .. . ... ... : ... .. . ... ... : ... .. . ... ...
ROW 63 : ... .. 0 ... V00 ... : ... .. 0 ... ... ... : ... .. . ... : ... .. 3 ... : ... .. . ... ... : --- .. . ... ... : --- .. . ... ... : ... .. . ... ...
ROW 64 : ... .. . ... ... ... : ... .. . ... ... ... : ... .. . ... : ... .. 2 ... : ... .. . ... ... : ... .. . ... ... : ... .. . ... ... : ... .. . ... ...
ROW 65 : F-2 00 F P80 V01 ... : C-3 00 F P80 ... ... : --- .. . ... : ... .. 0 ... : ... .. . ... ... : G#2 01 A ... ... : G#3 01 A ... ... : ... .. . ... ...
ROW 66 : ... .. E ... ... ... : ... .. E ... ... ... : ... .. . ... : ... .. . ... : ... .. . ... ... : ... .. 9 ... ... : ... .. 9 ... ... : ... .. . ... ...
ROW 67 : ... .. D ... ... ... : ... .. D ... ... ... : ... .. . ... : ... .. . ... : ... .. . ... ... : ... .. . ... ... : ... .. . ... ... : ... .. . ... ...
ROW 68 : ... .. 0 ... V00 ... : ... .. 0 ... ... ... : ... .. . ... : ... .. . ... : ... .. . ... ... : --- .. . ... ... : --- .. . P83 ... : ... .. . ... ...
ROW 69 : ... .. . ... ... ... : ... .. . ... ... ... : ... .. . ... : ... .. . ... : ... .. . ... ... : ... .. . ... ... : ... .. . ... ... : ... .. . ... ...
ROW 6A : B-2 00 F P80 V01 ... : F#3 00 F P80 ... ... : F-3 00 . ... : D-# 00 F ... : ... .. . ... ... : F-3 01 A ... ... : F-4 01 A P81 ... : ... .. . ... ...
ROW 6B : ... .. E ... ... ... : ... .. E ... ... ... : ... .. . ... : ... .. C ... : ... .. . ... ... : ... .. 9 ... ... : ... .. 9 ... ... : ... .. . ... ...
ROW 6C : ... .. D ... ... ... : ... .. D ... ... ... : ... .. . ... : ... .. 6 ... : ... .. . ... ... : ... .. . ... ... : ... .. . ... ... : ... .. . ... ...
ROW 6D : ... .. A ... ... ... : ... .. A ... ... ... : --- .. . ... : ... .. 3 ... : ... .. . ... ... : --- .. . ... ... : --- .. . ... ... : ... .. . ... ...
ROW 6E : ... .. . ... ... ... : ... .. . ... ... ... : ... .. . ... : ... .. 2 ... : ... .. . ... ... : ... .. . ... ... : ... .. . ... ... : ... .. . ... ...
ROW 6F : ... .. . ... ... ... : ... .. . ... ... ... : G-3 00 . ... : ... .. F ... : ... .. . ... ... : G#2 01 A ... ... : G#3 01 A ... ... : ... .. . ... ...
ROW 70 : ... .. . ... ... ... : ... .. . ... ... ... : ... .. . ... : ... .. C ... : ... .. . ... ... : ... .. 9 ... ... : ... .. 9 ... ... : ... .. . ... ...
ROW 71 : ... .. . ... ... ... : ... .. . ... ... ... : ... .. . ... : ... .. 6 ... : ... .. . ... ... : ... .. . ... ... : ... .. . ... ... : ... .. . ... ...
ROW 72 : ... .. 0 ... V00 ... : ... .. 0 ... ... ... : --- .. . ... : ... .. 3 ... : ... .. . ... ... : --- .. . ... ... : --- .. . P83 ... : ... .. . ... ...
ROW 73 : ... .. . ... ... ... : ... .. . ... ... ... : ... .. . ... : ... .. 2 ... : ... .. . ... ... : ... .. . ... ... : ... .. . ... ... : ... .. . ... ...
ROW 74 : A#2 00 F P80 V01 ... : F-3 00 F P80 ... ... : G#3 00 . ... : 6-# 00 F ... : ... .. . ... ... : F-3 01 A ... ... : F-4 01 A P81 ... : ... .. . ... ...
ROW 75 : ... .. E ... ... ... : ... .. E ... ... ... : ... .. . ... : ... .. C ... : ... .. . ... ... : ... .. 9 ... ... : ... .. 9 ... ... : ... .. . ... ...
ROW 76 : ... .. D ... ... ... : ... .. D ... ... ... : ... .. . ... : ... .. 6 ... : ... .. . ... ... : ... .. . ... ... : ... .. . ... ... : ... .. . ... ...
ROW 77 : ... .. A ... ... ... : ... .. A ... ... ... : ... .. . ... : ... .. 3 ... : ... .. . ... ... : --- .. . ... ... : --- .. . ... ... : ... .. . ... ...
ROW 78 : ... .. . ... ... ... : ... .. . ... ... ... : ... .. . ... : ... .. 2 ... : ... .. . ... ... : ... .. . ... ... : ... .. . ... ... : ... .. . ... ...
ROW 79 : ... .. . ... ... ... : ... .. . ... ... ... : --- .. . ... : ... .. 0 ... : ... .. . ... ... : G#2 01 A ... ... : G#3 01 A ... ... : ... .. . ... ...
ROW 7A : ... .. . ... ... ... : ... .. . ... ... ... : ... .. . ... : ... .. . ... : ... .. . ... ... : ... .. 9 ... ... : ... .. 9 ... ... : ... .. . ... ...
ROW 7B : ... .. . ... ... ... : ... .. . ... ... ... : ... .. . ... : ... .. . ... : ... .. . ... ... : ... .. . ... ... : ... .. . ... ... : ... .. . ... ...
ROW 7C : ... .. 0 ... V00 ... : ... .. 0 ... ... ... : ... .. . ... : ... .. . ... : ... .. . ... ... : --- .. . ... ... : --- .. . P83 ... : ... .. . ... ...
ROW 7D : ... .. . ... ... ... : ... .. . ... ... ... : ... .. . ... : ... .. . ... : ... .. . ... ... : ... .. . ... ... : ... .. . ... ... : ... .. . ... ...
ROW 7E : G#2 00 F P80 V01 ... : D#3 00 F P80 ... ... : G-3 00 . ... : D-# 00 F ... : ... .. . ... ... : F-3 01 A ... ... : F-4 01 A P81 ... : ... .. . ... ...
ROW 7F : ... .. E ... ... ... : ... .. E ... ... ... : ... .. . ... : ... .. C ... : ... .. . ... ... : ... .. 9 ... ... : ... .. 9 ... ... : ... .. . ... ...
ROW 80 : ... .. D ... ... ... : ... .. D ... ... ... : ... .. . ... : ... .. 6 ... : ... .. . ... ... : ... .. . ... ... : ... .. . ... ... : ... .. . ... ...
ROW 81 : ... .. 0 ... V00 ... : ... .. 0 ... ... ... : --- .. . ... : ... .. 3 ... : ... .. . ... ... : --- .. . ... ... : --- .. . ... ... : ... .. . ... ...
ROW 82 : ... .. . ... ... ... : ... .. . ... ... ... : ... .. . ... : ... .. 2 ... : ... .. . ... ... : ... .. . ... ... : ... .. . ... ... : ... .. . ... ...
ROW 83 : F-2 00 F P80 V01 ... : C-3 00 F P80 ... ... : G#3 00 . ... : ... .. F ... : ... .. . ... ... : G#2 01 A ... ... : G#3 01 A ... ... : ... .. . ... ...
ROW 84 : ... .. E ... ... ... : ... .. E ... ... ... : ... .. . ... : ... .. C ... : ... .. . ... ... : ... .. 9 ... ... : ... .. 9 ... ... : ... .. . ... ...
ROW 85 : ... .. D ... ... ... : ... .. D ... ... ... : ... .. . ... : ... .. 6 ... : ... .. . ... ... : ... .. . ... ... : ... .. . ... ... : ... .. . ... ...
ROW 86 : ... .. A ... ... ... : ... .. A ... ... ... : --- .. . ... : ... .. 3 ... : ... .. . ... ... : --- .. . ... ... : --- .. . P83 ... : ... .. . ... ...
ROW 87 : ... .. . ... ... ... : ... .. . ... ... ... : ... .. . ... : ... .. 2 ... : ... .. . ... ... : ... .. . ... ... : ... .. . ... ... : ... .. . ... ...
ROW 88 : ... .. . ... ... ... : ... .. . ... ... ... : B-3 00 . ... : 3-# 00 F ... : ... .. . ... ... : E-3 01 A ... ... : E-4 01 A P81 ... : ... .. . ... ...
ROW 89 : ... .. . ... ... ... : ... .. . ... ... ... : ... .. . ... : ... .. C ... : ... .. . ... ... : ... .. 9 ... ... : ... .. 9 ... ... : ... .. . ... ...
ROW 8A : ... .. . ... ... ... : ... .. . ... ... ... : ... .. . ... : ... .. 6 ... : ... .. . ... ... : ... .. . ... ... : ... .. . ... ... : ... .. . ... ...
ROW 8B : ... .. 0 ... V00 ... : ... .. 0 ... ... ... : ... .. . ... : ... .. 3 ... : ... .. . ... ... : --- .. . P82 ... : --- .. . ... ... : ... .. . ... ...
ROW 8C : ... .. . ... ... ... : ... .. . ... ... ... : ... .. . ... : ... .. 2 ... : ... .. . ... ... : ... .. . ... ... : ... .. . ... ... : ... .. . ... ...
ROW 8D : F-2 00 F P80 V01 ... : C-3 00 F P80 ... ... : --- .. . ... : ... .. 0 ... : ... .. . ... ... : G-2 01 A P80 ... : G-3 01 A ... ... : ... .. . ... ...
ROW 8E : ... .. E ... ... ... : ... .. E ... ... ... : ... .. . ... : ... .. . ... : ... .. . ... ... : ... .. 9 ... ... : ... .. 9 ... ... : ... .. . ... ...
ROW 8F : ... .. D ... ... ... : ... .. D ... ... ... : ... .. . ... : ... .. . ... : ... .. . ... ... : ... .. . ... ... : ... .. . ... ... : ... .. . ... ...
ROW 90 : ... .. 0 ... V00 ... : ... .. 0 ... ... ... : ... .. . ... : ... .. . ... : ... .. . ... ... : --- .. . P81 ... : --- .. . P80 ... : ... .. . ... ...
ROW 91 : ... .. . ... ... ... : ... .. . ... ... ... : ... .. . ... : ... .. . ... : ... .. . ... ... : ... .. . ... ... : ... .. . ... ... : ... .. . ... ...
ROW 92 : B-2 00 F P80 V01 ... : F#3 00 F P80 ... ... : B-3 00 . ... : D-# 00 F ... : ... .. . ... ... : E-3 01 A P80 ... : E-4 01 A P81 ... : ... .. . ... ...
ROW 93 : ... .. E ... ... ... : ... .. E ... ... ... : ... .. . ... : ... .. C ... : ... .. . ... ... : ... .. 9 ... ... : ... .. 9 ... ... : ... .. . ... ...
ROW 94 : ... .. D ... ... ... : ... .. D ... ... ... : ... .. . ... : ... .. 6 ... : ... .. . ... ... : ... .. . ... ... : ... .. . ... ... : ... .. . ... ...
ROW 95 : ... .. A ... ... ... : ... .. A ... ... ... : --- .. . ... : ... .. 3 ... : ... .. . ... ... : --- .. . P82 ... : --- .. . ... ... : ... .. . ... ...
ROW 96 : ... .. . ... ... ... : ... .. . ... ... ... : ... .. . ... : ... .. 2 ... : ... .. . ... ... : ... .. . ... ... : ... .. . ... ... : ... .. . ... ...
ROW 97 : ... .. . ... ... ... : ... .. . ... ... ... : A#3 00 . ... : ... .. F ... : ... .. . ... ... : G-2 01 A P80 ... : G-3 01 A ... ... : ... .. . ... ...
ROW 98 : ... .. . ... ... ... : ... .. . ... ... ... : ... .. . ... : ... .. C ... : ... .. . ... ... : ... .. 9 ... ... : ... .. 9 ... ... : ... .. . ... ...
ROW 99 : ... .. . ... ... ... : ... .. . ... ... ... : ... .. . ... : ... .. 6 ... : ... .. . ... ... : ... .. . ... ... : ... .. . ... ... : ... .. . ... ...
ROW 9A : ... .. 0 ... V00 ... : ... .. 0 ... ... ... : --- .. . ... : ... .. 3 ... : ... .. . ... ... : --- .. . P81 ... : --- .. . P80 ... : ... .. . ... ...
ROW 9B : ... .. . ... ... ... : ... .. . ... ... ... : ... .. . ... : ... .. 2 ... : ... .. . ... ... : ... .. . ... ... : ... .. . ... ... : ... .. . ... ...
ROW 9C : A#2 00 F P80 V01 ... : F-3 00 F P80 ... ... : G#3 00 . ... : 6-# 00 F ... : ... .. . ... ... : E-3 01 A P80 ... : E-4 01 A P81 ... : ... .. . ... ...
ROW 9D : ... .. E ... ... ... : ... .. E ... ... ... : ... .. . ... : ... .. C ... : ... .. . ... ... : ... .. 9 ... ... : ... .. 9 ... ... : ... .. . ... ...
ROW 9E : ... .. D ... ... ... : ... .. D ... ... ... : ... .. . ... : ... .. 6 ... : ... .. . ... ... : ... .. . ... ... : ... .. . ... ... : ... .. . ... ...
ROW 9F : ... .. A ... ... ... : ... .. A ... ... ... : --- .. . ... : ... .. 3 ... : ... .. . ... ... : --- .. . P82 ... : --- .. . ... ... : ... .. . ... ...
ROW A0 : ... .. . ... ... ... : ... .. . ... ... ... : ... .. . ... : ... .. 2 ... : ... .. . ... ... : ... .. . ... ... : ... .. . ... ... : ... .. . ... ...
ROW A1 : ... .. . ... ... ... : ... .. . ... ... ... : G-3 00 . ... : ... .. 0 ... : ... .. . ... ... : G-2 01 A P80 ... : G-3 01 A ... ... : ... .. . ... ...
ROW A2 : ... .. . ... ... ... : ... .. . ... ... ... : ... .. . ... : ... .. . ... : ... .. . ... ... : ... .. 9 ... ... : ... .. 9 ... ... : ... .. . ... ...
ROW A3 : ... .. . ... ... ... : ... .. . ... ... ... : ... .. . ... : ... .. . ... : ... .. . ... ... : ... .. . ... ... : ... .. . ... ... : ... .. . ... ...
ROW A4 : ... .. 0 ... V00 ... : ... .. 0 ... ... ... : --- .. . ... : ... .. . ... : ... .. . ... ... : --- .. . P81 ... : --- .. . P80 ... : ... .. . ... ...
ROW A5 : ... .. . ... ... ... : ... .. . ... ... ... : ... .. . ... : ... .. . ... : ... .. . ... ... : ... .. . ... ... : ... .. . ... ... : ... .. . ... ...
ROW A6 : G#2 00 F P80 V01 ... : D#3 00 F P80 ... ... : G#3 00 . ... : D-# 00 F ... : ... .. . ... ... : E-3 01 A P80 ... : E-4 01 A P81 ... : ... .. . ... ...
ROW A7 : ... .. E ... ... ... : ... .. E ... ... ... : ... .. . ... : ... .. C ... : ... .. . ... ... : ... .. 9 ... ... : ... .. 9 ... ... : ... .. . ... ...
ROW A8 : ... .. D ... ... ... : ... .. D ... ... ... : ... .. . ... : ... .. 6 ... : ... .. . ... ... : ... .. . ... ... : ... .. . ... ... : ... .. . ... ...
ROW A9 : ... .. A ... ... ... : ... .. A ... ... ... : --- .. . ... : ... .. 3 ... : ... .. . ... ... : --- .. . P82 ... : --- .. . ... ... : ... .. . ... ...
ROW AA : ... .. . ... ... ... : ... .. . ... ... ... : ... .. . ... : ... .. 2 ... : ... .. . ... ... : ... .. . ... ... : ... .. . ... ... : ... .. . ... ...
ROW AB : ... .. . ... ... ... : ... .. . ... ... ... : G-3 00 . ... : ... .. 0 ... : ... .. . ... ... : G-2 01 A P80 ... : G-3 01 A ... ... : ... .. . ... ...
ROW AC : ... .. . ... ... ... : ... .. . ... ... ... : ... .. . ... : ... .. . ... : ... .. . ... ... : ... .. 9 ... ... : ... .. 9 ... ... : ... .. . ... ...
ROW AD : ... .. . ... ... ... : ... .. . ... ... ... : ... .. . ... : ... .. . ... : ... .. . ... ... : ... .. . ... ... : ... .. . ... ... : ... .. . ... ...
ROW AE : ... .. 0 ... V00 ... : ... .. 0 ... ... ... : --- .. . ... : ... .. . ... : ... .. . ... ... : --- .. . P81 ... : --- .. . P80 ... : ... .. . ... ...
ROW AF : ... .. . ... ... ... : ... .. . ... ... ... : ... .. . ... : ... .. . ... : ... .. . ... ... : ... .. . ... ... : ... .. . ... ... : ... .. . ... ...
ROW B0 : F-2 00 F P80 V01 ... : C-3 00 F P80 ... ... : F-3 00 . ... : 3-# 00 F ... : ... .. . ... ... : D#3 01 A P80 ... : D#4 01 A P81 ... : ... .. . ... ...
ROW B1 : ... .. E ... ... ... : ... .. E ... ... ... : ... .. . ... : ... .. C ... : ... .. . ... ... : ... .. 9 ... ... : ... .. 9 ... ... : ... .. . ... ...
ROW B2 : ... .. D ... ... ... : ... .. D ... ... ... : ... .. . ... : ... .. 6 ... : ... .. . ... ... : ... .. . ... ... : ... .. . ... ... : ... .. . ... ...
ROW B3 : ... .. 0 ... V00 ... : ... .. 0 ... ... ... : ... .. . ... : ... .. 3 ... : ... .. . ... ... : --- .. . P83 ... : --- .. . ... ... : ... .. . ... ...
ROW B4 : ... .. . ... ... ... : ... .. . ... ... ... : ... .. . ... : ... .. 2 ... : ... .. . ... ... : ... .. . ... ... : ... .. . ... ... : ... .. . ... ...
ROW B5 : F-2 00 F P80 V01 ... : C-3 00 F P80 ... ... : --- .. . ... : ... .. 0 ... : ... .. . ... ... : F#2 01 A P80 ... : F#3 01 A ... ... : ... .. . ... ...
ROW B6 : ... .. E ... ... ... : ... .. E ... ... ... : ... .. . ... : ... .. . ... : ... .. . ... ... : ... .. 9 ... ... : ... .. 9 ... ... : ... .. . ... ...
ROW B7 : ... .. D ... ... ... : ... .. D ... ... ... : ... .. . ... : ... .. . ... : ... .. . ... ... : ... .. . ... ... : ... .. . ... ... : ... .. . ... ...
ROW B8 : ... .. 0 ... V00 ... : ... .. 0 ... ... ... : ... .. . ... : ... .. . ... : ... .. . ... ... : --- .. . P82 ... : --- .. . P80 ... : ... .. . ... ...
ROW B9 : ... .. . ... ... ... : ... .. . ... ... ... : ... .. . ... : ... .. . ... : ... .. . ... ... : ... .. . ... ... : ... .. . ... ... : ... .. . ... ...
ROW BA : B-2 00 F P80 V01 ... : F#3 00 F P80 ... ... : F-3 00 . ... : D-# 00 F ... : ... .. . ... ... : D#3 01 A P80 ... : D#4 01 A P81 ... : ... .. . ... ...
ROW BB : ... .. E ... ... ... : ... .. E ... ... ... : ... .. . ... : ... .. C ... : ... .. . ... ... : ... .. 9 ... ... : ... .. 9 ... ... : ... .. . ... ...
ROW BC : ... .. D ... ... ... : ... .. D ... ... ... : ... .. . ... : ... .. 6 ... : ... .. . ... ... : ... .. . ... ... : ... .. . ... ... : ... .. . ... ...
ROW BD : ... .. A ... ... ... : ... .. A ... ... ... : --- .. . ... : ... .. 3 ... : ... .. . ... ... : --- .. . P83 ... : --- .. . ... ... : ... .. . ... ...
ROW BE : ... .. . ... ... ... : ... .. . ... ... ... : ... .. . ... : ... .. 2 ... : ... .. . ... ... : ... .. . ... ... : ... .. . ... ... : ... .. . ... ...
ROW BF : ... .. . ... ... ... : ... .. . ... ... ... : G-3 00 . ... : ... .. F ... : ... .. . ... ... : F#2 01 A P80 ... : F#3 01 A ... ... : ... .. . ... ...
ROW C0 : ... .. . ... ... ... : ... .. . ... ... ... : ... .. . ... : ... .. C ... : ... .. . ... ... : ... .. 9 ... ... : ... .. 9 ... ... : ... .. . ... ...
ROW C1 : ... .. . ... ... ... : ... .. . ... ... ... : ... .. . ... : ... .. 6 ... : ... .. . ... ... : ... .. . ... ... : ... .. . ... ... : ... .. . ... ...
ROW C2 : ... .. 0 ... V00 ... : ... .. 0 ... ... ... : --- .. . ... : ... .. 3 ... : ... .. . ... ... : --- .. . P82 ... : --- .. . P80 ... : ... .. . ... ...
ROW C3 : ... .. . ... ... ... : ... .. . ... ... ... : ... .. . ... : ... .. 2 ... : ... .. . ... ... : ... .. . ... ... : ... .. . ... ... : ... .. . ... ...
ROW C4 : A#2 00 F P80 V01 ... : F-3 00 F P80 ... ... : G#3 00 . ... : 6-# 00 F ... : ... .. . ... ... : D#3 01 A P80 ... : D#4 01 A P81 ... : ... .. . ... ...
ROW C5 : ... .. E ... ... ... : ... .. E ... ... ... : ... .. . ... : ... .. C ... : ... .. . ... ... : ... .. 9 ... ... : ... .. 9 ... ... : ... .. . ... ...
ROW C6 : ... .. D ... ... ... : ... .. D ... ... ... : ... .. . ... : ... .. 6 ... : ... .. . ... ... : ... .. . ... ... : ... .. . ... ... : ... .. . ... ...
ROW C7 : ... .. A ... ... ... : ... .. A ... ... ... : ... .. . ... : ... .. 3 ... : ... .. . ... ... : --- .. . P83 ... : --- .. . ... ... : ... .. . ... ...
ROW C8 : ... .. . ... ... ... : ... .. . ... ... ... : ... .. . ... : ... .. 2 ... : ... .. . ... ... : ... .. . ... ... : ... .. . ... ... : ... .. . ... ...
ROW C9 : ... .. . ... ... ... : ... .. . ... ... ... : --- .. . ... : ... .. 0 ... : ... .. . ... ... : F#2 01 A P80 ... : F#3 01 A ... ... : ... .. . ... ...
ROW CA : ... .. . ... ... ... : ... .. . ... ... ... : ... .. . ... : ... .. . ... : ... .. . ... ... : ... .. 9 ... ... : ... .. 9 ... ... : ... .. . ... ...
ROW CB : ... .. . ... ... ... : ... .. . ... ... ... : ... .. . ... : ... .. . ... : ... .. . ... ... : ... .. . ... ... : ... .. . ... ... : ... .. . ... ...
ROW CC : ... .. 0 ... V00 ... : ... .. 0 ... ... ... : ... .. . ... : ... .. . ... : ... .. . ... ... : --- .. . P82 ... : --- .. . P80 ... : ... .. . ... ...
ROW CD : ... .. . ... ... ... : ... .. . ... ... ... : ... .. . ... : ... .. . ... : ... .. . ... ... : ... .. . ... ... : ... .. . ... ... : ... .. . ... ...
ROW CE : G#2 00 F P80 V01 ... : D#3 00 F P80 ... ... : G-3 00 . ... : D-# 00 F ... : ... .. . ... ... : D#3 01 A P80 ... : D#4 01 A P81 ... : ... .. . ... ...
ROW CF : ... .. E ... ... ... : ... .. E ... ... ... : ... .. . ... : ... .. C ... : ... .. . ... ... : ... .. 9 ... ... : ... .. 9 ... ... : ... .. . ... ...
ROW D0 : ... .. D ... ... ... : ... .. D ... ... ... : ... .. . ... : ... .. 6 ... : ... .. . ... ... : ... .. . ... ... : ... .. . ... ... : ... .. . ... ...
ROW D1 : ... .. 0 ... V00 ... : ... .. 0 ... ... ... : --- .. . ... : ... .. 3 ... : ... .. . ... ... : --- .. . P83 ... : --- .. . ... ... : ... .. . ... ...
ROW D2 : ... .. . ... ... ... : ... .. . ... ... ... : ... .. . ... : ... .. 2 ... : ... .. . ... ... : ... .. . ... ... : ... .. . ... ... : ... .. . ... ...
ROW D3 : F-2 00 F P80 V01 ... : C-3 00 F P80 ... ... : G#3 00 . ... : ... .. 0 ... : ... .. . ... ... : F#2 01 A P80 ... : F#3 01 A ... ... : ... .. . ... ...
ROW D4 : ... .. E ... ... ... : ... .. E ... ... ... : ... .. . ... : ... .. . ... : ... .. . ... ... : ... .. 9 ... ... : ... .. 9 ... ... : ... .. . ... ...
ROW D5 : ... .. D ... ... ... : ... .. D ... ... ... : ... .. . ... : ... .. . ... : ... .. . ... ... : ... .. . ... ... : ... .. . ... ... : ... .. . ... ...
ROW D6 : ... .. A ... ... ... : ... .. A ... ... ... : --- .. . ... : ... .. . ... : ... .. . ... ... : --- .. . P82 ... : --- .. . P80 ... : ... .. . ... ...
ROW D7 : ... .. . ... ... ... : ... .. . ... ... ... : ... .. . ... : ... .. . ... : ... .. . ... ... : ... .. . ... ... : ... .. . ... ... : ... .. . ... ...
ROW D8 : ... .. . ... ... ... : ... .. . ... ... ... : B-3 00 . ... : 3-# 00 F ... : ... .. . ... ... : D-3 01 A P80 ... : D-4 01 A P81 ... : ... .. . ... ...
ROW D9 : ... .. . ... ... ... : ... .. . ... ... ... : ... .. . ... : ... .. C ... : ... .. . ... ... : ... .. 9 ... ... : ... .. 9 ... ... : ... .. . ... ...
ROW DA : ... .. . ... ... ... : ... .. . ... ... ... : ... .. . ... : ... .. 6 ... : ... .. . ... ... : ... .. . ... ... : ... .. . ... ... : ... .. . ... ...
ROW DB : ... .. 0 ... V00 ... : ... .. 0 ... ... ... : ... .. . ... : ... .. 3 ... : ... .. . ... ... : --- .. . P82 ... : --- .. . ... ... : ... .. . ... ...
ROW DC : ... .. . ... ... ... : ... .. . ... ... ... : ... .. . ... : ... .. 2 ... : ... .. . ... ... : ... .. . ... ... : ... .. . ... ... : ... .. . ... ...
ROW DD : F-4 00 F P80 V01 ... : C-5 00 F P80 ... ... : ... .. . ... : ... .. 0 ... : ... .. . ... ... : F-2 01 A P80 ... : F-3 01 A ... ... : ... .. . ... ...
ROW DE : ... .. E ... ... ... : ... .. E ... ... ... : ... .. . ... : ... .. . ... : ... .. . ... ... : ... .. 9 ... ... : ... .. 9 ... ... : ... .. . ... ...
ROW DF : ... .. D ... ... ... : ... .. D ... ... ... : ... .. . ... : ... .. . ... : ... .. . ... ... : ... .. . ... ... : ... .. . ... ... : ... .. . ... ...
ROW E0 : ... .. 0 ... V00 ... : ... .. 0 ... ... ... : ... .. . ... : ... .. . ... : ... .. . ... ... : --- .. . P7E ... : --- .. . ... ... : ... .. . ... ...
ROW E1 : ... .. . ... ... ... : ... .. . ... ... ... : ... .. . ... : ... .. . ... : ... .. . ... ... : ... .. . ... ... : ... .. . ... ... : ... .. . ... ...
ROW E2 : E-4 00 F P80 V01 ... : B-4 00 F P80 ... ... : G-4 00 . ... : D-# 00 F ... : ... .. . ... ... : D-3 01 A P80 ... : D-4 01 A ... ... : ... .. . ... ...
ROW E3 : ... .. E ... ... ... : ... .. E ... ... ... : A-4 00 . P7F : ... .. C ... : ... .. . ... ... : ... .. 9 ... ... : ... .. 9 ... ... : ... .. . ... ...
ROW E4 : ... .. D ... ... ... : ... .. D ... ... ... : B-4 00 . P80 : ... .. 6 ... : ... .. . ... ... : ... .. . ... ... : ... .. . ... ... : ... .. . ... ...
ROW E5 : ... .. 0 ... V00 ... : ... .. 0 ... ... ... : C#5 00 . P83 : ... .. 3 ... : ... .. . ... ... : --- .. . P82 ... : --- .. . ... ... : ... .. . ... ...
ROW E6 : ... .. . ... ... ... : ... .. . ... ... ... : D#5 00 . P80 : ... .. 2 ... : ... .. . ... ... : ... .. . ... ... : ... .. . ... ... : ... .. . ... ...
ROW E7 : D#4 00 F P80 V01 ... : A#4 00 F P80 ... ... : ... .. . ... : ... .. F ... : ... .. . ... ... : F-2 01 A P80 ... : F-3 01 A ... ... : ... .. . ... ...
ROW E8 : ... .. E ... ... ... : ... .. E ... ... ... : ... .. . ... : ... .. C ... : ... .. . ... ... : ... .. 9 ... ... : ... .. 9 ... ... : ... .. . ... ...
ROW E9 : ... .. D ... ... ... : ... .. D ... ... ... : ... .. . ... : ... .. 6 ... : ... .. . ... ... : ... .. . ... ... : ... .. . ... ... : ... .. . ... ...
ROW EA : ... .. 0 ... V00 ... : ... .. 0 ... ... ... : ... .. . ... : ... .. 3 ... : ... .. . ... ... : --- .. . P7E ... : --- .. . ... ... : ... .. . ... ...
ROW EB : ... .. . ... ... ... : ... .. . ... ... ... : ... .. . ... : ... .. 2 ... : ... .. . ... ... : ... .. . ... ... : ... .. . ... ... : ... .. . ... ...
ROW EC : D-4 00 F P80 V01 ... : A-4 00 F P80 ... ... : G#3 00 . ... : 6-# 00 F ... : ... .. . ... ... : D-3 01 A P80 ... : D-4 01 A ... ... : ... .. . ... ...
ROW ED : ... .. E ... ... ... : ... .. E ... ... ... : ... .. . ... : ... .. C ... : ... .. . ... ... : ... .. 9 ... ... : ... .. 9 ... ... : ... .. . ... ...
ROW EE : ... .. D ... ... ... : ... .. D ... ... ... : ... .. . ... : ... .. 6 ... : ... .. . ... ... : ... .. . ... ... : ... .. . ... ... : ... .. . ... ...
ROW EF : ... .. 0 ... V00 ... : ... .. 0 ... ... ... : ... .. . ... : ... .. 3 ... : ... .. . ... ... : --- .. . P82 ... : --- .. . ... ... : ... .. . ... ...
ROW F0 : ... .. . ... ... ... : ... .. . ... ... ... : ... .. . ... : ... .. 2 ... : ... .. . ... ... : ... .. . ... ... : ... .. . ... ... : ... .. . ... ...
ROW F1 : C#4 00 F P80 V01 ... : G#4 00 F P80 ... ... : F#3 00 . P81 : ... .. 0 ... : ... .. . ... ... : F-2 01 A P80 ... : F-3 01 A ... ... : ... .. . ... ...
ROW F2 : ... .. E ... ... ... : ... .. E ... ... ... : E-3 00 . P86 : ... .. . ... : ... .. . ... ... : ... .. 9 ... ... : ... .. 9 ... ... : ... .. . ... ...
ROW F3 : ... .. D ... ... ... : ... .. D ... ... ... : D#3 00 . P7B : ... .. . ... : ... .. . ... ... : ... .. . ... ... : ... .. . ... ... : ... .. . ... ...
ROW F4 : ... .. 0 ... V00 ... : ... .. 0 ... ... ... : C#3 00 . P87 : ... .. . ... : ... .. . ... ... : --- .. . P7E ... : --- .. . ... ... : ... .. . ... ...
ROW F5 : ... .. . ... ... ... : ... .. . ... ... ... : C-3 00 . P7F : ... .. . ... : ... .. . ... ... : ... .. . ... ... : ... .. . ... ... : ... .. . ... ...
ROW F6 : C-4 00 F P80 V01 ... : G-4 00 F P80 ... ... : B-2 00 . P78 : D-# 00 F ... : ... .. . ... ... : D-3 01 A P80 ... : D-4 01 A ... ... : ... .. . ... ...
ROW F7 : ... .. E ... ... ... : ... .. E ... ... ... : A#2 00 . P73 : ... .. C ... : ... .. . ... ... : ... .. 9 ... ... : ... .. 9 ... ... : ... .. . ... ...
ROW F8 : ... .. D ... ... ... : ... .. D ... ... ... : G#2 00 . P8E : ... .. 6 ... : ... .. . ... ... : ... .. . ... ... : ... .. . ... ... : ... .. . ... ...
ROW F9 : ... .. 0 ... V00 ... : ... .. 0 ... ... ... : G-2 00 . ... : ... .. 3 ... : ... .. . ... ... : --- .. . P82 ... : --- .. . ... ... : ... .. . ... ...
ROW FA : ... .. . ... ... ... : ... .. . ... ... ... : F#2 00 . P90 : ... .. 2 ... : ... .. . ... ... : ... .. . ... ... : ... .. . ... ... : ... .. . ... ...
ROW FB : B-3 00 F P80 V01 ... : F#4 00 F P80 ... ... : ... .. . P70 : ... .. F ... : ... .. . ... ... : F-2 01 A P80 ... : F-3 01 A ... ... : ... .. . ... ...
ROW FC : ... .. E ... ... ... : ... .. E ... ... ... : F-2 00 . P74 : ... .. C ... : ... .. . ... ... : ... .. 9 ... ... : ... .. 9 ... ... : ... .. . ... ...
ROW FD : ... .. D ... ... ... : ... .. D ... ... ... : E-2 00 . P7A : ... .. 6 ... : ... .. . ... ... : ... .. . ... ... : ... .. . ... ... : ... .. . ... ...
ROW FE : ... .. 0 ... V00 ... : ... .. 0 ... ... ... : D#2 00 . P82 : ... .. 3 ... : ... .. . ... ... : --- .. . P7E ... : --- .. . ... ... : ... .. . ... ...
ROW FF : ... .. . ... ... ... : ... .. . ... ... ... : D-2 00 . P8D : ... .. 2 ... : ... .. . ... ... : ... .. . ... ... : ... .. . ... ... : ... .. . ... ...

PATTERN 14
ROW 00 : F-2 00 F P80 V01 ... : C-3 00 F P80 ... ... : F-2 00 . P80 : 3-# 00 F ... : ... .. . ... ... : F-3 01 A P80 ... : F-4 01 A ... ... : ... .. . ... ...
ROW 01 : ... .. E ... ... ... : ... .. E ... ... ... : ... .. . ... : ... .. C ... : ... .. . ... ... : ... .. 9 ... ... : ... .. 9 ... ... : ... .. . ... ...
ROW 02 : ... .. D ... ... ... : ... .. D ... ... ... : ... .. . ... : ... .. 6 ... : ... .. . ... ... : ... .. . ... ... : ... .. . ... ... : ... .. . ... ...
ROW 03 : ... .. 0 ... V00 ... : ... .. 0 ... ... ... : --- .. . ... : ... .. 3 ... : ... .. . ... ... : --- .. . ... ... : --- .. . ... ... : ... .. . ... ...
ROW 04 : ... .. . ... ... ... : ... .. . ... ... ... : ... .. . ... : ... .. 2 ... : ... .. . ... ... : ... .. . ... ... : ... .. . ... ... : ... .. . ... ...
ROW 05 : F-2 00 F P80 V01 ... : C-3 00 F P80 ... ... : F-2 00 . ... : ... .. 0 ... : ... .. . ... ... : G#2 01 A ... ... : G#3 01 A ... ... : ... .. . ... ...
ROW 06 : ... .. E ... ... ... : ... .. E ... ... ... : ... .. . ... : ... .. . ... : ... .. . ... ... : ... .. 9 ... ... : ... .. 9 ... ... : ... .. . ... ...
ROW 07 : ... .. D ... ... ... : ... .. D ... ... ... : ... .. . ... : ... .. . ... : ... .. . ... ... : ... .. . ... ... : ... .. . ... ... : ... .. . ... ...
ROW 08 : ... .. 0 ... V00 ... : ... .. 0 ... ... ... : --- .. . ... : ... .. . ... : ... .. . ... ... : --- .. . ... ... : --- .. . P83 ... : ... .. . ... ...
ROW 09 : ... .. . ... ... ... : ... .. . ... ... ... : ... .. . ... : ... .. . ... : ... .. . ... ... : ... .. . ... ... : ... .. . ... ... : ... .. . ... ...
ROW 0A : B-2 00 F P80 V01 ... : F#3 00 F P80 ... ... : B-2 00 . ... : D-# 00 F ... : ... .. . ... ... : F-3 01 A ... ... : F-4 01 A P81 ... : ... .. . ... ...
ROW 0B : ... .. E ... ... ... : ... .. E ... ... ... : ... .. . ... : ... .. C ... : ... .. . ... ... : ... .. 9 ... ... : ... .. 9 ... ... : ... .. . ... ...
ROW 0C : ... .. D ... ... ... : ... .. D ... ... ... : ... .. . ... : ... .. 6 ... : ... .. . ... ... : ... .. . ... ... : ... .. . ... ... : ... .. . ... ...
ROW 0D : ... .. A ... ... ... : ... .. A ... ... ... : ... .. . ... : ... .. 3 ... : ... .. . ... ... : --- .. . ... ... : --- .. . ... ... : ... .. . ... ...
ROW 0E : ... .. . ... ... ... : ... .. . ... ... ... : ... .. . ... : ... .. 2 ... : ... .. . ... ... : ... .. . ... ... : ... .. . ... ... : ... .. . ... ...
ROW 0F : ... .. . ... ... ... : ... .. . ... ... ... : ... .. . ... : ... .. F ... : ... .. . ... ... : G#2 01 A ... ... : G#3 01 A ... ... : ... .. . ... ...
ROW 10 : ... .. . ... ... ... : ... .. . ... ... ... : ... .. . ... : ... .. C ... : ... .. . ... ... : ... .. 9 ... ... : ... .. 9 ... ... : ... .. . ... ...
ROW 11 : ... .. . ... ... ... : ... .. . ... ... ... : ... .. . ... : ... .. 6 ... : ... .. . ... ... : ... .. . ... ... : ... .. . ... ... : ... .. . ... ...
ROW 12 : ... .. 0 ... V00 ... : ... .. 0 ... ... ... : --- .. . ... : ... .. 3 ... : ... .. . ... ... : --- .. . ... ... : --- .. . P83 ... : ... .. . ... ...
ROW 13 : ... .. . ... ... ... : ... .. . ... ... ... : ... .. . ... : ... .. 2 ... : ... .. . ... ... : ... .. . ... ... : ... .. . ... ... : ... .. . ... ...
ROW 14 : A#2 00 F P80 V01 ... : F-3 00 F P80 ... ... : A#2 00 . ... : 6-# 00 F ... : ... .. . ... ... : F-3 01 A ... ... : F-4 01 A P81 ... : ... .. . ... ...
ROW 15 : ... .. E ... ... ... : ... .. E ... ... ... : ... .. . ... : ... .. C ... : ... .. . ... ... : ... .. 9 ... ... : ... .. 9 ... ... : ... .. . ... ...
ROW 16 : ... .. D ... ... ... : ... .. D ... ... ... : ... .. . ... : ... .. 6 ... : ... .. . ... ... : ... .. . ... ... : ... .. . ... ... : ... .. . ... ...
ROW 17 : ... .. A ... ... ... : ... .. A ... ... ... : ... .. . ... : ... .. 3 ... : ... .. . ... ... : --- .. . ... ... : --- .. . ... ... : ... .. . ... ...
ROW 18 : ... .. . ... ... ... : ... .. . ... ... ... : ... .. . ... : ... .. 2 ... : ... .. . ... ... : ... .. . ... ... : ... .. . ... ... : ... .. . ... ...
ROW 19 : ... .. . ... ... ... : ... .. . ... ... ... : ... .. . ... : ... .. 0 ... : ... .. . ... ... : G#2 01 A ... ... : G#3 01 A ... ... : ... .. . ... ...
ROW 1A : ... .. . ... ... ... : ... .. . ... ... ... : ... .. . ... : ... .. . ... : ... .. . ... ... : ... .. 9 ... ... : ... .. 9 ... ... : ... .. . ... ...
ROW 1B : ... .. . ... ... ... : ... .. . ... ... ... : ... .. . ... : ... .. . ... : ... .. . ... ... : ... .. . ... ... : ... .. . ... ... : ... .. . ... ...
ROW 1C : ... .. 0 ... V00 ... : ... .. 0 ... ... ... : --- .. . ... : ... .. . ... : ... .. . ... ... : --- .. . ... ... : --- .. . P83 ... : ... .. . ... ...
ROW 1D : ... .. . ... ... ... : ... .. . ... ... ... : ... .. . ... : ... .. . ... : ... .. . ... ... : ... .. . ... ... : ... .. . ... ... : ... .. . ... ...
ROW 1E : G#2 00 F P80 V01 ... : D#3 00 F P80 ... ... : G#2 00 . ... : D-# 00 F ... : ... .. . ... ... : F-3 01 A ... ... : F-4 01 A P81 ... : ... .. . ... ...
ROW 1F : ... .. E ... ... ... : ... .. E ... ... ... : ... .. . ... : ... .. C ... : ... .. . ... ... : ... .. 9 ... ... : ... .. 9 ... ... : ... .. . ... ...
ROW 20 : ... .. D ... ... ... : ... .. D ... ... ... : ... .. . ... : ... .. 6 ... : ... .. . ... ... : ... .. . ... ... : ... .. . ... ... : ... .. . ... ...
ROW 21 : ... .. 0 ... V00 ... : ... .. 0 ... ... ... : --- .. . ... : ... .. 3 ... : ... .. . ... ... : --- .. . ... ... : --- .. . ... ... : ... .. . ... ...
ROW 22 : ... .. . ... ... ... : ... .. . ... ... ... : ... .. . ... : ... .. 2 ... : ... .. . ... ... : ... .. . ... ... : ... .. . ... ... : ... .. . ... ...
ROW 23 : F-2 00 F P80 V01 ... : C-3 00 F P80 ... ... : F-2 00 . ... : ... .. 0 ... : ... .. . ... ... : G#2 01 A ... ... : G#3 01 A ... ... : ... .. . ... ...
ROW 24 : ... .. E ... ... ... : ... .. E ... ... ... : ... .. . ... : ... .. . ... : ... .. . ... ... : ... .. 9 ... ... : ... .. 9 ... ... : ... .. . ... ...
ROW 25 : ... .. D ... ... ... : ... .. D ... ... ... : ... .. . ... : ... .. . ... : ... .. . ... ... : ... .. . ... ... : ... .. . ... ... : ... .. . ... ...
ROW 26 : ... .. A ... ... ... : ... .. A ... ... ... : ... .. . ... : ... .. . ... : ... .. . ... ... : --- .. . ... ... : --- .. . P83 ... : ... .. . ... ...
ROW 27 : ... .. . ... ... ... : ... .. . ... ... ... : ... .. . ... : ... .. . ... : ... .. . ... ... : ... .. . ... ... : ... .. . ... ... : ... .. . ... ...
ROW 28 : ... .. . ... ... ... : ... .. . ... ... ... : ... .. . ... : 3-# 00 F ... : ... .. . ... ... : E-3 01 A ... ... : E-4 01 A P81 ... : ... .. . ... ...
ROW 29 : ... .. . ... ... ... : ... .. . ... ... ... : ... .. . ... : ... .. C ... : ... .. . ... ... : ... .. 9 ... ... : ... .. 9 ... ... : ... .. . ... ...
ROW 2A : ... .. . ... ... ... : ... .. . ... ... ... : ... .. . ... : ... .. 6 ... : ... .. . ... ... : ... .. . ... ... : ... .. . ... ... : ... .. . ... ...
ROW 2B : ... .. 0 ... V00 ... : ... .. 0 ... ... ... : --- .. . ... : ... .. 3 ... : ... .. . ... ... : --- .. . P82 ... : --- .. . ... ... : ... .. . ... ...
ROW 2C : ... .. . ... ... ... : ... .. . ... ... ... : ... .. . ... : ... .. 2 ... : ... .. . ... ... : ... .. . ... ... : ... .. . ... ... : ... .. . ... ...
ROW 2D : F-2 00 F P80 V01 ... : C-3 00 F P80 ... ... : F-2 00 . ... : ... .. 0 ... : ... .. . ... ... : G-2 01 A P80 ... : G-3 01 A ... ... : ... .. . ... ...
ROW 2E : ... .. E ... ... ... : ... .. E ... ... ... : ... .. . ... : ... .. . ... : ... .. . ... ... : ... .. 9 ... ... : ... .. 9 ... ... : ... .. . ... ...
ROW 2F : ... .. D ... ... ... : ... .. D ... ... ... : ... .. . ... : ... .. . ... : ... .. . ... ... : ... .. . ... ... : ... .. . ... ... : ... .. . ... ...
ROW 30 : ... .. 0 ... V00 ... : ... .. 0 ... ... ... : --- .. . ... : ... .. . ... : ... .. . ... ... : --- .. . P81 ... : --- .. . P80 ... : ... .. . ... ...
ROW 31 : ... .. . ... ... ... : ... .. . ... ... ... : ... .. . ... : ... .. . ... : ... .. . ... ... : ... .. . ... ... : ... .. . ... ... : ... .. . ... ...
ROW 32 : B-2 00 F P80 V01 ... : F#3 00 F P80 ... ... : B-2 00 . ... : D-# 00 F ... : ... .. . ... ... : E-3 01 A P80 ... : E-4 01 A P81 ... : ... .. . ... ...
ROW 33 : ... .. E ... ... ... : ... .. E ... ... ... : ... .. . ... : ... .. C ... : ... .. . ... ... : ... .. 9 ... ... : ... .. 9 ... ... : ... .. . ... ...
ROW 34 : ... .. D ... ... ... : ... .. D ... ... ... : ... .. . ... : ... .. 6 ... : ... .. . ... ... : ... .. . ... ... : ... .. . ... ... : ... .. . ... ...
ROW 35 : ... .. A ... ... ... : ... .. A ... ... ... : ... .. . ... : ... .. 3 ... : ... .. . ... ... : --- .. . P82 ... : --- .. . ... ... : ... .. . ... ...
ROW 36 : ... .. . ... ... ... : ... .. . ... ... ... : ... .. . ... : ... .. 2 ... : ... .. . ... ... : ... .. . ... ... : ... .. . ... ... : ... .. . ... ...
ROW 37 : ... .. . ... ... ... : ... .. . ... ... ... : ... .. . ... : ... .. F ... : ... .. . ... ... : G-2 01 A P80 ... : G-3 01 A ... ... : ... .. . ... ...
ROW 38 : ... .. . ... ... ... : ... .. . ... ... ... : ... .. . ... : ... .. C ... : ... .. . ... ... : ... .. 9 ... ... : ... .. 9 ... ... : ... .. . ... ...
ROW 39 : ... .. . ... ... ... : ... .. . ... ... ... : ... .. . ... : ... .. 6 ... : ... .. . ... ... : ... .. . ... ... : ... .. . ... ... : ... .. . ... ...
ROW 3A : ... .. 0 ... V00 ... : ... .. 0 ... ... ... : --- .. . ... : ... .. 3 ... : ... .. . ... ... : --- .. . P81 ... : --- .. . P80 ... : ... .. . ... ...
ROW 3B : ... .. . ... ... ... : ... .. . ... ... ... : ... .. . ... : ... .. 2 ... : ... .. . ... ... : ... .. . ... ... : ... .. . ... ... : ... .. . ... ...
ROW 3C : A#2 00 F P80 V01 ... : F-3 00 F P80 ... ... : A#2 00 . ... : 6-# 00 F ... : ... .. . ... ... : E-3 01 A P80 ... : E-4 01 A P81 ... : ... .. . ... ...
ROW 3D : ... .. E ... ... ... : ... .. E ... ... ... : ... .. . ... : ... .. C ... : ... .. . ... ... : ... .. 9 ... ... : ... .. 9 ... ... : ... .. . ... ...
ROW 3E : ... .. D ... ... ... : ... .. D ... ... ... : ... .. . ... : ... .. 6 ... : ... .. . ... ... : ... .. . ... ... : ... .. . ... ... : ... .. . ... ...
ROW 3F : ... .. A ... ... ... : ... .. A ... ... ... : ... .. . ... : ... .. 3 ... : ... .. . ... ... : --- .. . P82 ... : --- .. . ... ... : ... .. . ... ...
ROW 40 : ... .. . ... ... ... : ... .. . ... ... ... : ... .. . ... : ... .. 2 ... : ... .. . ... ... : ... .. . ... ... : ... .. . ... ... : ... .. . ... ...
ROW 41 : ... .. . ... ... ... : ... .. . ... ... ... : ... .. . ... : ... .. 0 ... : ... .. . ... ... : G-2 01 A P80 ... : G-3 01 A ... ... : ... .. . ... ...
ROW 42 : ... .. . ... ... ... : ... .. . ... ... ... : ... .. . ... : ... .. . ... : ... .. . ... ... : ... .. 9 ... ... : ... .. 9 ... ... : ... .. . ... ...
ROW 43 : ... .. . ... ... ... : ... .. . ... ... ... : ... .. . ... : ... .. . ... : ... .. . ... ... : ... .. . ... ... : ... .. . ... ... : ... .. . ... ...
ROW 44 : ... .. 0 ... V00 ... : ... .. 0 ... ... ... : --- .. . ... : ... .. . ... : ... .. . ... ... : --- .. . P81 ... : --- .. . P80 ... : ... .. . ... ...
ROW 45 : ... .. . ... ... ... : ... .. . ... ... ... : ... .. . ... : ... .. . ... : ... .. . ... ... : ... .. . ... ... : ... .. . ... ... : ... .. . ... ...
ROW 46 : G#2 00 F P80 V01 ... : D#3 00 F P80 ... ... : G#2 00 . ... : D-# 00 F ... : ... .. . ... ... : E-3 01 A P80 ... : E-4 01 A P81 ... : ... .. . ... ...
ROW 47 : ... .. E ... ... ... : ... .. E ... ... ... : ... .. . ... : ... .. C ... : ... .. . ... ... : ... .. 9 ... ... : ... .. 9 ... ... : ... .. . ... ...
ROW 48 : ... .. D ... ... ... : ... .. D ... ... ... : ... .. . ... : ... .. 6 ... : ... .. . ... ... : ... .. . ... ... : ... .. . ... ... : ... .. . ... ...
ROW 49 : ... .. A ... ... ... : ... .. A ... ... ... : ... .. . ... : ... .. 3 ... : ... .. . ... ... : --- .. . P82 ... : --- .. . ... ... : ... .. . ... ...
ROW 4A : ... .. . ... ... ... : ... .. . ... ... ... : ... .. . ... : ... .. 2 ... : ... .. . ... ... : ... .. . ... ... : ... .. . ... ... : ... .. . ... ...
ROW 4B : ... .. . ... ... ... : ... .. . ... ... ... : ... .. . ... : ... .. 0 ... : ... .. . ... ... : G-2 01 A P80 ... : G-3 01 A ... ... : ... .. . ... ...
ROW 4C : ... .. . ... ... ... : ... .. . ... ... ... : ... .. . ... : ... .. . ... : ... .. . ... ... : ... .. 9 ... ... : ... .. 9 ... ... : ... .. . ... ...
ROW 4D : ... .. . ... ... ... : ... .. . ... ... ... : ... .. . ... : ... .. . ... : ... .. . ... ... : ... .. . ... ... : ... .. . ... ... : ... .. . ... ...
ROW 4E : ... .. 0 ... V00 ... : ... .. 0 ... ... ... : --- .. . ... : ... .. . ... : ... .. . ... ... : --- .. . P81 ... : --- .. . P80 ... : ... .. . ... ...
ROW 4F : ... .. . ... ... ... : ... .. . ... ... ... : ... .. . ... : ... .. . ... : ... .. . ... ... : ... .. . ... ... : ... .. . ... ... : ... .. . ... ...
ROW 50 : F-2 00 F P80 V01 ... : C-3 00 F P80 ... ... : F-3 00 . ... : 3-# 00 F ... : ... .. . ... ... : D#3 01 A P80 ... : D#4 01 A P81 ... : ... .. . ... ...
ROW 51 : ... .. E ... ... ... : ... .. E ... ... ... : ... .. . ... : ... .. C ... : ... .. . ... ... : ... .. 9 ... ... : ... .. 9 ... ... : ... .. . ... ...
ROW 52 : ... .. D ... ... ... : ... .. D ... ... ... : ... .. . ... : ... .. 6 ... : ... .. . ... ... : ... .. . ... ... : ... .. . ... ... : ... .. . ... ...
ROW 53 : ... .. 0 ... V00 ... : ... .. 0 ... ... ... : ... .. . ... : ... .. 3 ... : ... .. . ... ... : --- .. . P83 ... : --- .. . ... ... : ... .. . ... ...
ROW 54 : ... .. . ... ... ... : ... .. . ... ... ... : ... .. . ... : ... .. 2 ... : ... .. . ... ... : ... .. . ... ... : ... .. . ... ... : ... .. . ... ...
ROW 55 : F-2 00 F P80 V01 ... : C-3 00 F P80 ... ... : ... .. . ... : ... .. 0 ... : ... .. . ... ... : F#2 01 A P80 ... : F#3 01 A ... ... : ... .. . ... ...
ROW 56 : ... .. E ... ... ... : ... .. E ... ... ... : ... .. . ... : ... .. . ... : ... .. . ... ... : ... .. 9 ... ... : ... .. 9 ... ... : ... .. . ... ...
ROW 57 : ... .. D ... ... ... : ... .. D ... ... ... : ... .. . ... : ... .. . ... : ... .. . ... ... : ... .. . ... ... : ... .. . ... ... : ... .. . ... ...
ROW 58 : ... .. 0 ... V00 ... : ... .. 0 ... ... ... : --- .. . ... : ... .. . ... : ... .. . ... ... : --- .. . P82 ... : --- .. . P80 ... : ... .. . ... ...
ROW 59 : ... .. . ... ... ... : ... .. . ... ... ... : ... .. . ... : ... .. . ... : ... .. . ... ... : ... .. . ... ... : ... .. . ... ... : ... .. . ... ...
ROW 5A : A#2 00 F P80 V01 ... : F-3 00 F P80 ... ... : E-3 00 . ... : D-# 00 F ... : ... .. . ... ... : A#2 01 A P80 ... : A#3 01 A P81 ... : ... .. . ... ...
ROW 5B : ... .. E ... ... ... : ... .. E ... ... ... : ... .. . ... : ... .. C ... : ... .. . ... ... : ... .. 9 ... ... : ... .. 9 ... ... : ... .. . ... ...
ROW 5C : ... .. D ... ... ... : ... .. D ... ... ... : ... .. . ... : ... .. 6 ... : ... .. . ... ... : ... .. . ... ... : ... .. . ... ... : ... .. . ... ...
ROW 5D : ... .. 0 ... V00 ... : ... .. 0 ... ... ... : --- .. . ... : ... .. 3 ... : ... .. . ... ... : --- .. . P82 ... : --- .. . ... ... : ... .. . ... ...
ROW 5E : ... .. . ... ... ... : ... .. . ... ... ... : ... .. . ... : ... .. 2 ... : ... .. . ... ... : ... .. . ... ... : ... .. . ... ... : ... .. . ... ...
ROW 5F : B-2 00 F P80 V01 ... : F#3 00 F P80 ... ... : D#3 00 . ... : ... .. F ... : ... .. . ... ... : B-2 01 A P80 ... : B-3 01 A ... ... : ... .. . ... ...
ROW 60 : ... .. E ... ... ... : ... .. E ... ... ... : ... .. . ... : ... .. C ... : ... .. . ... ... : ... .. 9 ... ... : ... .. 9 ... ... : ... .. . ... ...
ROW 61 : ... .. D ... ... ... : ... .. D ... ... ... : ... .. . ... : ... .. 6 ... : ... .. . ... ... : ... .. . ... ... : ... .. . ... ... : ... .. . ... ...
ROW 62 : ... .. 0 ... V00 ... : ... .. 0 ... ... ... : --- .. . ... : ... .. 3 ... : ... .. . ... ... : --- .. . P85 ... : --- .. . ... ... : ... .. . ... ...
ROW 63 : ... .. . ... ... ... : ... .. . ... ... ... : ... .. . ... : ... .. 2 ... : ... .. . ... ... : ... .. . ... ... : ... .. . ... ... : ... .. . ... ...
ROW 64 : C-3 00 F P80 V01 ... : G-3 00 F P80 ... ... : D-3 00 . ... : 6-# 00 F ... : ... .. . ... ... : C-3 01 A P80 ... : C-4 01 A ... ... : ... .. . ... ...
ROW 65 : ... .. E ... ... ... : ... .. E ... ... ... : ... .. . ... : ... .. C ... : ... .. . ... ... : ... .. 9 ... ... : ... .. 9 ... ... : ... .. . ... ...
ROW 66 : ... .. D ... ... ... : ... .. D ... ... ... : ... .. . ... : ... .. 6 ... : ... .. . ... ... : ... .. . ... ... : ... .. . ... ... : ... .. . ... ...
ROW 67 : ... .. A ... ... ... : ... .. A ... ... ... : --- .. . ... : ... .. 3 ... : ... .. . ... ... : --- .. . P7E ... : --- .. . ... ... : ... .. . ... ...
ROW 68 : ... .. . ... ... ... : ... .. . ... ... ... : ... .. . ... : ... .. 2 ... : ... .. . ... ... : ... .. . ... ... : ... .. . ... ... : ... .. . ... ...
ROW 69 : D#3 00 F ... ... ... : A#3 00 F ... ... ... : C#3 00 . ... : ... .. 0 ... : ... .. . ... ... : D#3 01 A P80 ... : D#4 01 A ... ... : ... .. . ... ...
ROW 6A : ... .. E ... ... ... : ... .. E ... ... ... : ... .. . ... : ... .. . ... : ... .. . ... ... : ... .. 9 ... ... : ... .. 9 ... ... : ... .. . ... ...
ROW 6B : ... .. D ... ... ... : ... .. D ... ... ... : ... .. . ... : ... .. . ... : ... .. . ... ... : ... .. . ... ... : ... .. . ... ... : ... .. . ... ...
ROW 6C : ... .. 0 ... V00 ... : ... .. 0 ... ... ... : --- .. . ... : ... .. . ... : ... .. . ... ... : --- .. . P83 ... : --- .. . ... ... : ... .. . ... ...
ROW 6D : ... .. . ... ... ... : ... .. . ... ... ... : ... .. . ... : ... .. . ... : ... .. . ... ... : ... .. . ... ... : ... .. . ... ... : ... .. . ... ...
ROW 6E : C-3 00 F P80 V01 ... : G-3 00 F P80 ... ... : C-3 00 . ... : D-# 00 F ... : ... .. . ... ... : C-3 01 A P80 ... : C-4 01 A ... ... : ... .. . ... ...
ROW 6F : ... .. E ... ... ... : ... .. E ... ... ... : ... .. . ... : ... .. C ... : ... .. . ... ... : ... .. 9 ... ... : ... .. 9 ... ... : ... .. . ... ...
ROW 70 : ... .. D ... ... ... : ... .. D ... ... ... : ... .. . ... : ... .. 6 ... : ... .. . ... ... : ... .. . ... ... : ... .. . ... ... : ... .. . ... ...
ROW 71 : ... .. 0 ... V00 ... : ... .. 0 ... ... ... : --- .. . ... : ... .. 3 ... : ... .. . ... ... : --- .. . P7E ... : --- .. . ... ... : ... .. . ... ...
ROW 72 : ... .. . ... ... ... : ... .. . ... ... ... : ... .. . ... : ... .. 2 ... : ... .. . ... ... : ... .. . ... ... : ... .. . ... ... : ... .. . ... ...
ROW 73 : F-3 00 F P80 V01 ... : C-4 00 F P80 ... ... : F-2 00 . ... : ... .. F ... : ... .. . ... ... : F-3 01 A P80 ... : F-4 01 A ... ... : ... .. . ... ...
ROW 74 : ... .. E ... ... ... : ... .. E ... ... ... : ... .. . ... : ... .. C ... : ... .. . ... ... : ... .. 9 ... ... : ... .. 9 ... ... : ... .. . ... ...
ROW 75 : ... .. D ... ... ... : ... .. D ... ... ... : ... .. . ... : ... .. 6 ... : ... .. . ... ... : ... .. . ... ... : ... .. . ... ... : ... .. . ... ...
ROW 76 : ... .. A ... ... ... : ... .. A ... ... ... : ... .. . ... : ... .. 3 ... : ... .. . ... ... : --- .. . ... ... : --- .. . ... ... : ... .. . ... ...
ROW 77 : ... .. . ... ... ... : ... .. . ... ... ... : ... .. . ... : ... .. 2 ... : ... .. . ... ... : ... .. . ... ... : ... .. . ... ... : ... .. . ... ...
ROW 78 : ... .. 0 ... V00 ... : ... .. 0 ... ... ... : ... .. . ... : 3-# 00 F ... : ... .. . ... ... : G#3 01 A ... ... : G#4 01 A ... ... : ... .. . ... ...
ROW 79 : ... .. . ... ... ... : ... .. . ... ... ... : ... .. . ... : ... .. C ... : ... .. . ... ... : ... .. 9 ... ... : ... .. 9 ... ... : ... .. . ... ...
ROW 7A : ... .. . ... ... ... : ... .. . ... ... ... : ... .. . ... : ... .. 6 ... : ... .. . ... ... : ... .. . ... ... : ... .. . ... ... : ... .. . ... ...
ROW 7B : ... .. . ... ... ... : ... .. . ... ... ... : ... .. . ... : ... .. 3 ... : ... .. . ... ... : --- .. . P82 ... : --- .. . ... ... : ... .. . ... ...
ROW 7C : ... .. . ... ... ... : ... .. . ... ... ... : ... .. . ... : ... .. 2 ... : ... .. . ... ... : ... .. . ... ... : ... .. . ... ... : ... .. . ... ...
ROW 7D : ... .. . ... ... ... : ... .. . ... ... ... : ... .. . ... : ... .. 0 ... : ... .. . ... ... : ... .. . ... ... : ... .. . ... ... : ... .. . ... ...
ROW 7E : ... .. . ... ... ... : ... .. . ... ... ... : ... .. . ... : ... .. . ... : ... .. . ... ... : ... .. . ... ... : ... .. . ... ... : ... .. . ... ...
ROW 7F : ... .. . ... ... ... : ... .. . ... ... ... : ... .. . ... : ... .. . ... : ... .. . ... ... : ... .. . ... ... : ... .. . ... ... : ... .. . ... ...
ROW 80 : ... .. . ... ... ... : ... .. . ... ... ... : ... .. . ... : ... .. . ... : ... .. . ... ... : ... .. . ... ... : ... .. . ... ... : ... .. . ... ...
ROW 81 : ... .. . ... ... ... : ... .. . ... ... ... : ... .. . ... : ... .. . ... : ... .. . ... ... : ... .. . ... ... : ... .. . ... ... : ... .. . ... ...
ROW 82 : D-4 00 F P80 V02 ... : ... .. . ... ... ... : ... .. . ... : ... .. . ... : ... .. . ... ... : ... .. . ... ... : ... .. . ... ... : ... .. . ... ...
ROW 83 : ... .. E ... ... ... : ... .. . ... ... ... : ... .. . ... : ... .. . ... : ... .. . ... ... : ... .. . ... ... : ... .. . ... ... : ... .. . ... ...
ROW 84 : ... .. D ... ... ... : ... .. . ... ... ... : ... .. . ... : ... .. . ... : ... .. . ... ... : ... .. . ... ... : ... .. . ... ... : ... .. . ... ...
ROW 85 : ... .. 0 ... V00 ... : ... .. . ... ... ... : ... .. . ... : ... .. . ... : ... .. . ... ... : ... .. . ... ... : ... .. . ... ... : ... .. . ... ...
ROW 86 : ... .. . ... ... ... : ... .. . ... ... ... : ... .. . ... : ... .. . ... : ... .. . ... ... : ... .. . ... ... : ... .. . ... ... : ... .. . ... ...
ROW 87 : E-4 00 F P80 V02 ... : ... .. . ... ... ... : ... .. . ... : ... .. . ... : ... .. . ... ... : ... .. . ... ... : ... .. . ... ... : ... .. . ... ...
ROW 88 : ... .. E ... ... ... : ... .. . ... ... ... : ... .. . ... : ... .. . ... : ... .. . ... ... : ... .. . ... ... : ... .. . ... ... : ... .. . ... ...
ROW 89 : ... .. D ... ... ... : ... .. . ... ... ... : ... .. . ... : ... .. . ... : ... .. . ... ... : ... .. . ... ... : ... .. . ... ... : ... .. . ... ...
ROW 8A : ... .. 0 ... V00 ... : ... .. . ... ... ... : ... .. . ... : ... .. . ... : ... .. . ... ... : ... .. . ... ... : ... .. . ... ... : ... .. . ... ...
ROW 8B : ... .. . ... ... ... : ... .. . ... ... ... : ... .. . ... : ... .. . ... : ... .. . ... ... : ... .. . ... ... : ... .. . ... ... : ... .. . ... ...
ROW 8C : F-4 00 F P80 V02 ... : ... .. . ... ... ... : C-3 00 . ... : 6-# 00 F ... : ... .. . ... ... : ... .. . ... ... : ... .. . ... ... : ... .. . ... ...
ROW 8D : ... .. E ... ... ... : ... .. . ... ... ... : ... .. . ... : ... .. C ... : ... .. . ... ... : ... .. . ... ... : ... .. . ... ... : ... .. . ... ...
ROW 8E : ... .. D ... ... ... : ... .. . ... ... ... : ... .. . ... : ... .. 6 ... : ... .. . ... ... : ... .. . ... ... : ... .. . ... ... : ... .. . ... ...
ROW 8F : ... .. 0 ... V00 ... : ... .. . ... ... ... : ... .. . ... : ... .. 3 ... : ... .. . ... ... : ... .. . ... ... : ... .. . ... ... : ... .. . ... ...
ROW 90 : ... .. . ... ... ... : ... .. . ... ... ... : ... .. . ... : ... .. 2 ... : ... .. . ... ... : ... .. . ... ... : ... .. . ... ... : ... .. . ... ...
ROW 91 : G-4 00 F P80 V02 ... : ... .. . ... ... ... : ... .. . ... : ... .. 0 ... : ... .. . ... ... : ... .. . ... ... : ... .. . ... ... : ... .. . ... ...
ROW 92 : ... .. E ... ... ... : ... .. . ... ... ... : ... .. . ... : ... .. . ... : ... .. . ... ... : ... .. . ... ... : ... .. . ... ... : ... .. . ... ...
ROW 93 : ... .. D ... ... ... : ... .. . ... ... ... : ... .. . ... : ... .. . ... : ... .. . ... ... : ... .. . ... ... : ... .. . ... ... : ... .. . ... ...
ROW 94 : ... .. 0 ... V00 ... : ... .. . ... ... ... : ... .. . ... : ... .. . ... : ... .. . ... ... : ... .. . ... ... : ... .. . ... ... : ... .. . ... ...
ROW 95 : ... .. . ... ... ... : ... .. . ... ... ... : ... .. . ... : ... .. . ... : ... .. . ... ... : ... .. . ... ... : ... .. . ... ... : ... .. . ... ...
ROW 96 : G#4 00 F P80 V02 ... : ... .. . ... ... ... : ... .. . ... : B-# 00 8 ... : ... .. . ... ... : ... .. . ... ... : ... .. . ... ... : ... .. . ... ...
ROW 97 : ... .. E ... ... ... : ... .. . ... ... ... : ... .. . P89 : ... .. 6 ... : ... .. . ... ... : ... .. . ... ... : ... .. . ... ... : ... .. . ... ...
ROW 98 : ... .. D ... ... ... : ... .. . ... ... ... : C#3 00 . P7A : ... .. 3 ... : ... .. . ... ... : ... .. . ... ... : ... .. . ... ... : ... .. . ... ...
ROW 99 : ... .. 0 ... V00 ... : ... .. . ... ... ... : ... .. . P83 : ... .. 1 ... : ... .. . ... ... : ... .. . ... ... : ... .. . ... ... : ... .. . ... ...
ROW 9A : ... .. . ... ... ... : ... .. . ... ... ... : D-3 00 . P75 : ... .. 8 ... : ... .. . ... ... : ... .. . ... ... : ... .. . ... ... : ... .. . ... ...
ROW 9B : A#4 00 F P80 V02 ... : ... .. . ... ... ... : ... .. . P7E : ... .. 6 ... : ... .. . ... ... : ... .. . ... ... : ... .. . ... ... : ... .. . ... ...
ROW 9C : ... .. E ... ... ... : ... .. . ... ... ... : ... .. . P87 : ... .. 3 ... : ... .. . ... ... : ... .. . ... ... : ... .. . ... ... : ... .. . ... ...
ROW 9D : ... .. D ... ... ... : ... .. . ... ... ... : D#3 00 . P7B : ... .. 8 ... : ... .. . ... ... : ... .. . ... ... : ... .. . ... ... : ... .. . ... ...
ROW 9E : ... .. 0 ... V00 ... : ... .. . ... ... ... : ... .. . P84 : ... .. 6 ... : ... .. . ... ... : ... .. . ... ... : ... .. . ... ... : ... .. . ... ...
ROW 9F : ... .. . ... ... ... : ... .. . ... ... ... : E-3 00 . P78 : ... .. 3 ... : ... .. . ... ... : ... .. . ... ... : ... .. . ... ... : ... .. . ... ...
ROW A0 : C-5 00 F P80 V02 ... : ... .. . ... ... ... : F-3 00 . P80 : 3-# 00 F ... : ... .. . ... ... : ... .. . ... ... : ... .. . ... ... : ... .. . ... ...
ROW A1 : ... .. E ... ... ... : ... .. . ... ... ... : ... .. . ... : ... .. C ... : ... .. . ... ... : ... .. . ... ... : ... .. . ... ... : ... .. . ... ...
ROW A2 : ... .. D ... ... ... : ... .. . ... ... ... : ... .. . ... : ... .. 6 ... : ... .. . ... ... : ... .. . ... ... : ... .. . ... ... : ... .. . ... ...
ROW A3 : ... .. A ... ... ... : ... .. . ... ... ... : ... .. . ... : ... .. 3 ... : ... .. . ... ... : ... .. . ... ... : ... .. . ... ... : ... .. . ... ...
ROW A4 : ... .. . ... ... ... : ... .. . ... ... ... : ... .. . ... : ... .. 2 ... : ... .. . ... ... : ... .. . ... ... : ... .. . ... ... : ... .. . ... ...
ROW A5 : ... .. . ... ... ... : ... .. . ... ... ... : --- .. . ... : ... .. 0 ... : ... .. . ... ... : ... .. . ... ... : ... .. . ... ... : ... .. . ... ...
ROW A6 : ... .. . ... ... ... : ... .. . ... ... ... : ... .. . ... : ... .. . ... : ... .. . ... ... : ... .. . ... ... : ... .. . ... ... : ... .. . ... ...
ROW A7 : ... .. . ... ... ... : ... .. . ... ... ... : ... .. . ... : ... .. . ... : ... .. . ... ... : ... .. . ... ... : ... .. . ... ... : ... .. . ... ...
ROW A8 : ... .. . ... ... ... : ... .. . ... ... ... : ... .. . ... : ... .. . ... : ... .. . ... ... : ... .. . ... ... : ... .. . ... ... : ... .. . ... ...
ROW A9 : ... .. . ... ... ... : ... .. . ... ... ... : ... .. . ... : ... .. . ... : ... .. . ... ... : ... .. . ... ... : ... .. . ... ... : ... .. . ... ...
ROW AA : ... .. 0 ... V00 ... : ... .. . ... ... ... : G#4 00 . ... : D-# 00 F ... : ... .. . ... ... : F-3 01 A P80 ... : G#3 01 A ... ... : ... .. . ... ...
ROW AB : ... .. . ... ... ... : ... .. . ... ... ... : ... .. . ... : ... .. C ... : ... .. . ... ... : ... .. 9 ... ... : ... .. 9 ... ... : ... .. . ... ...
ROW AC : ... .. . ... ... ... : ... .. . ... ... ... : ... .. . ... : ... .. 6 ... : ... .. . ... ... : ... .. . ... ... : ... .. . ... ... : ... .. . ... ...
ROW AD : ... .. . ... ... ... : ... .. . ... ... ... : ... .. . ... : ... .. 3 ... : ... .. . ... ... : ... .. 8 ... ... : ... .. 8 ... ... : ... .. . ... ...
ROW AE : ... .. . ... ... ... : ... .. . ... ... ... : ... .. . ... : ... .. 2 ... : ... .. . ... ... : ... .. 7 ... ... : ... .. 7 ... ... : ... .. . ... ...
ROW AF : ... .. . ... ... ... : ... .. . ... ... ... : --- .. . ... : ... .. F ... : ... .. . ... ... : --- .. . ... ... : --- .. . P83 ... : ... .. . ... ...
ROW B0 : ... .. . ... ... ... : ... .. . ... ... ... : ... .. . ... : ... .. C ... : ... .. . ... ... : ... .. . ... ... : ... .. . ... ... : ... .. . ... ...
ROW B1 : ... .. . ... ... ... : ... .. . ... ... ... : ... .. . ... : ... .. 6 ... : ... .. . ... ... : ... .. . ... ... : ... .. . ... ... : ... .. . ... ...
ROW B2 : ... .. . ... ... ... : ... .. . ... ... ... : ... .. . ... : ... .. 3 ... : ... .. . ... ... : ... .. . ... ... : ... .. . ... ... : ... .. . ... ...
ROW B3 : ... .. . ... ... ... : ... .. . ... ... ... : ... .. . ... : ... .. 2 ... : ... .. . ... ... : ... .. . ... ... : ... .. . ... ... : ... .. . ... ...
ROW B4 : F-4 00 F P80 V02 ... : ... .. . ... ... ... : F-3 00 . ... : 6-# 00 F ... : ... .. . ... ... : ... .. . ... ... : ... .. . ... ... : ... .. . ... ...
ROW B5 : ... .. E ... ... ... : ... .. . ... ... ... : ... .. . ... : ... .. C ... : ... .. . ... ... : ... .. . ... ... : ... .. . ... ... : ... .. . ... ...
ROW B6 : ... .. D ... ... ... : ... .. . ... ... ... : ... .. . ... : ... .. 6 ... : ... .. . ... ... : ... .. . ... ... : ... .. . ... ... : ... .. . ... ...
ROW B7 : ... .. A ... ... ... : ... .. . ... ... ... : ... .. . ... : ... .. 3 ... : ... .. . ... ... : ... .. . ... ... : ... .. . ... ... : ... .. . ... ...
ROW B8 : ... .. . ... ... ... : ... .. . ... ... ... : ... .. . ... : ... .. 2 ... : ... .. . ... ... : ... .. . ... ... : ... .. . ... ... : ... .. . ... ...
ROW B9 : ... .. 0 ... V00 ... : ... .. . ... ... ... : --- .. . ... : ... .. 0 ... : ... .. . ... ... : ... .. . ... ... : ... .. . ... ... : ... .. . ... ...
ROW BA : ... .. . ... ... ... : ... .. . ... ... ... : ... .. . ... : ... .. . ... : ... .. . ... ... : ... .. . ... ... : ... .. . ... ... : ... .. . ... ...
ROW BB : ... .. . ... ... ... : ... .. . ... ... ... : ... .. . ... : ... .. . ... : ... .. . ... ... : ... .. . ... ... : ... .. . ... ... : ... .. . ... ...
ROW BC : ... .. . ... ... ... : ... .. . ... ... ... : ... .. . ... : ... .. . ... : ... .. . ... ... : ... .. . ... ... : ... .. . ... ... : ... .. . ... ...
ROW BD : ... .. . ... ... ... : ... .. . ... ... ... : ... .. . ... : ... .. . ... : ... .. . ... ... : ... .. . ... ... : ... .. . ... ... : ... .. . ... ...
ROW BE : C-5 00 F P80 V02 ... : ... .. . ... ... ... : G#4 00 . ... : D-# 00 F ... : ... .. . ... ... : F-3 01 A ... ... : G#3 01 A P81 ... : ... .. . ... ...
ROW BF : ... .. E ... ... ... : ... .. . ... ... ... : ... .. . ... : ... .. C ... : ... .. . ... ... : ... .. 9 ... ... : ... .. 9 ... ... : ... .. . ... ...
ROW C0 : ... .. D ... ... ... : ... .. . ... ... ... : ... .. . ... : ... .. 6 ... : ... .. . ... ... : ... .. . ... ... : ... .. . ... ... : ... .. . ... ...
ROW C1 : ... .. A ... ... ... : ... .. . ... ... ... : ... .. . ... : ... .. 3 ... : ... .. . ... ... : ... .. 8 ... ... : ... .. 8 ... ... : ... .. . ... ...
ROW C2 : ... .. . ... ... ... : ... .. . ... ... ... : ... .. . ... : ... .. 2 ... : ... .. . ... ... : ... .. 7 ... ... : ... .. 7 ... ... : ... .. . ... ...
ROW C3 : ... .. 0 ... V00 ... : ... .. . ... ... ... : --- .. . ... : ... .. F ... : ... .. . ... ... : --- .. . ... ... : --- .. . P83 ... : ... .. . ... ...
ROW C4 : ... .. . ... ... ... : ... .. . ... ... ... : ... .. . ... : ... .. C ... : ... .. . ... ... : ... .. . ... ... : ... .. . ... ... : ... .. . ... ...
ROW C5 : ... .. . ... ... ... : ... .. . ... ... ... : ... .. . ... : ... .. 6 ... : ... .. . ... ... : ... .. . ... ... : ... .. . ... ... : ... .. . ... ...
ROW C6 : ... .. . ... ... ... : ... .. . ... ... ... : ... .. . ... : ... .. 3 ... : ... .. . ... ... : ... .. . ... ... : ... .. . ... ... : ... .. . ... ...
ROW C7 : ... .. . ... ... ... : ... .. . ... ... ... : ... .. . ... : ... .. 2 ... : ... .. . ... ... : ... .. . ... ... : ... .. . ... ... : ... .. . ... ...
ROW C8 : C-5 00 F P80 V02 ... : ... .. . ... ... ... : F#3 00 . ... : 3-# 00 F ... : ... .. . ... ... : ... .. . ... ... : ... .. . ... ... : ... .. . ... ...
ROW C9 : ... .. E ... ... ... : ... .. . ... ... ... : ... .. . ... : ... .. C ... : ... .. . ... ... : ... .. . ... ... : ... .. . ... ... : ... .. . ... ...
ROW CA : ... .. D ... ... ... : ... .. . ... ... ... : ... .. . ... : ... .. 6 ... : ... .. . ... ... : ... .. . ... ... : ... .. . ... ... : ... .. . ... ...
ROW CB : ... .. A ... ... ... : ... .. . ... ... ... : ... .. . ... : ... .. 3 ... : ... .. . ... ... : ... .. . ... ... : ... .. . ... ... : ... .. . ... ...
ROW CC : ... .. . ... ... ... : ... .. . ... ... ... : ... .. . ... : ... .. 2 ... : ... .. . ... ... : ... .. . ... ... : ... .. . ... ... : ... .. . ... ...
ROW CD : ... .. . ... ... ... : ... .. . ... ... ... : --- .. . ... : ... .. 0 ... : ... .. . ... ... : ... .. . ... ... : ... .. . ... ... : ... .. . ... ...
ROW CE : ... .. . ... ... ... : ... .. . ... ... ... : ... .. . ... : ... .. . ... : ... .. . ... ... : ... .. . ... ... : ... .. . ... ... : ... .. . ... ...
ROW CF : ... .. . ... ... ... : ... .. . ... ... ... : ... .. . ... : ... .. . ... : ... .. . ... ... : ... .. . ... ... : ... .. . ... ... : ... .. . ... ...
ROW D0 : ... .. . ... ... ... : ... .. . ... ... ... : ... .. . ... : ... .. . ... : ... .. . ... ... : ... .. . ... ... : ... .. . ... ... : ... .. . ... ...
ROW D1 : ... .. . ... ... ... : ... .. . ... ... ... : ... .. . ... : ... .. . ... : ... .. . ... ... : ... .. . ... ... : ... .. . ... ... : ... .. . ... ...
ROW D2 : C#5 00 F ... ... ... : ... .. . ... ... ... : A#4 00 . ... : D-# 00 F ... : ... .. . ... ... : F#3 01 A ... ... : A#3 01 A P81 ... : ... .. . ... ...
ROW D3 : ... .. E ... ... ... : ... .. . ... ... ... : ... .. . ... : ... .. C ... : ... .. . ... ... : ... .. 9 ... ... : ... .. 9 ... ... : ... .. . ... ...
ROW D4 : ... .. D ... ... ... : ... .. . ... ... ... : ... .. . ... : ... .. 6 ... : ... .. . ... ... : ... .. . ... ... : ... .. . ... ... : ... .. . ... ...
ROW D5 : ... .. 0 ... V00 ... : ... .. . ... ... ... : ... .. . ... : ... .. 3 ... : ... .. . ... ... : ... .. 8 ... ... : ... .. 8 ... ... : ... .. . ... ...
ROW D6 : ... .. . ... ... ... : ... .. . ... ... ... : ... .. . ... : ... .. 2 ... : ... .. . ... ... : ... .. 7 ... ... : ... .. 7 ... ... : ... .. . ... ...
ROW D7 : C-5 00 F P80 V02 ... : ... .. . ... ... ... : --- .. . ... : ... .. F ... : ... .. . ... ... : --- .. . P7F ... : --- .. . ... ... : ... .. . ... ...
ROW D8 : ... .. E ... ... ... : ... .. . ... ... ... : ... .. . ... : ... .. C ... : ... .. . ... ... : ... .. . ... ... : ... .. . ... ... : ... .. . ... ...
ROW D9 : ... .. D ... ... ... : ... .. . ... ... ... : ... .. . ... : ... .. 6 ... : ... .. . ... ... : ... .. . ... ... : ... .. . ... ... : ... .. . ... ...
ROW DA : ... .. 0 ... V00 ... : ... .. . ... ... ... : ... .. . ... : ... .. 3 ... : ... .. . ... ... : ... .. . ... ... : ... .. . ... ... : ... .. . ... ...
ROW DB : ... .. . ... ... ... : ... .. . ... ... ... : ... .. . ... : ... .. 2 ... : ... .. . ... ... : ... .. . ... ... : ... .. . ... ... : ... .. . ... ...
ROW DC : A#4 00 F P80 V02 ... : ... .. . ... ... ... : E-3 00 . ... : 6-# 00 F ... : ... .. . ... ... : ... .. . ... ... : ... .. . ... ... : ... .. . ... ...
ROW DD : ... .. E ... ... ... : ... .. . ... ... ... : ... .. . ... : ... .. C ... : ... .. . ... ... : ... .. . ... ... : ... .. . ... ... : ... .. . ... ...
ROW DE : ... .. D ... ... ... : ... .. . ... ... ... : ... .. . ... : ... .. 6 ... : ... .. . ... ... : ... .. . ... ... : ... .. . ... ... : ... .. . ... ...
ROW DF : ... .. A ... ... ... : ... .. . ... ... ... : ... .. . ... : ... .. 3 ... : ... .. . ... ... : ... .. . ... ... : ... .. . ... ... : ... .. . ... ...
ROW E0 : ... .. . ... ... ... : ... .. . ... ... ... : ... .. . ... : ... .. 2 ... : ... .. . ... ... : ... .. . ... ... : ... .. . ... ... : ... .. . ... ...
ROW E1 : ... .. 0 ... V00 ... : ... .. . ... ... ... : --- .. . ... : ... .. 0 ... : ... .. . ... ... : ... .. . ... ... : ... .. . ... ... : ... .. . ... ...
ROW E2 : ... .. . ... ... ... : ... .. . ... ... ... : ... .. . ... : ... .. . ... : ... .. . ... ... : ... .. . ... ... : ... .. . ... ... : ... .. . ... ...
ROW E3 : ... .. . ... ... ... : ... .. . ... ... ... : ... .. . ... : ... .. . ... : ... .. . ... ... : ... .. . ... ... : ... .. . ... ... : ... .. . ... ...
ROW E4 : ... .. . ... ... ... : ... .. . ... ... ... : ... .. . ... : ... .. . ... : ... .. . ... ... : ... .. . ... ... : ... .. . ... ... : ... .. . ... ...
ROW E5 : ... .. . ... ... ... : ... .. . ... ... ... : ... .. . ... : ... .. . ... : ... .. . ... ... : ... .. . ... ... : ... .. . ... ... : ... .. . ... ...
ROW E6 : C-5 00 F P80 V02 ... : ... .. . ... ... ... : G-4 00 . ... : D-# 00 F ... : ... .. . ... ... : G-3 01 A P80 ... : A#3 01 A ... ... : ... .. . ... ...
ROW E7 : ... .. E ... ... ... : ... .. . ... ... ... : ... .. . ... : ... .. C ... : ... .. . ... ... : ... .. 9 ... ... : ... .. 9 ... ... : ... .. . ... ...
ROW E8 : ... .. D ... ... ... : ... .. . ... ... ... : ... .. . ... : ... .. 6 ... : ... .. . ... ... : ... .. . ... ... : ... .. . ... ... : ... .. . ... ...
ROW E9 : ... .. A ... ... ... : ... .. . ... ... ... : ... .. . ... : ... .. 3 ... : ... .. . ... ... : ... .. 8 ... ... : ... .. 8 ... ... : ... .. . ... ...
ROW EA : ... .. . ... ... ... : ... .. . ... ... ... : ... .. . ... : ... .. 2 ... : ... .. . ... ... : ... .. 7 ... ... : ... .. 7 ... ... : ... .. . ... ...
ROW EB : ... .. 0 ... V00 ... : ... .. . ... ... ... : --- .. . ... : ... .. 0 ... : ... .. . ... ... : --- .. . P81 ... : --- .. . ... ... : ... .. . ... ...
ROW EC : ... .. . ... ... ... : ... .. . ... ... ... : ... .. . ... : ... .. . ... : ... .. . ... ... : ... .. . ... ... : ... .. . ... ... : ... .. . ... ...
ROW ED : ... .. . ... ... ... : ... .. . ... ... ... : ... .. . ... : ... .. . ... : ... .. . ... ... : ... .. . ... ... : ... .. . ... ... : ... .. . ... ...
ROW EE : ... .. . ... ... ... : ... .. . ... ... ... : ... .. . ... : ... .. . ... : ... .. . ... ... : ... .. . ... ... : ... .. . ... ... : ... .. . ... ...
ROW EF : ... .. . ... ... ... : ... .. . ... ... ... : ... .. . ... : ... .. . ... : ... .. . ... ... : ... .. . ... ... : ... .. . ... ... : ... .. . ... ...
ROW F0 : A#4 00 F P80 V02 ... : ... .. . ... ... ... : F-3 00 . ... : 3-# 00 F ... : ... .. . ... ... : ... .. . ... ... : ... .. . ... ... : ... .. . ... ...
ROW F1 : ... .. E ... ... ... : ... .. . ... ... ... : ... .. . ... : ... .. C ... : ... .. . ... ... : ... .. . ... ... : ... .. . ... ... : ... .. . ... ...
ROW F2 : ... .. D ... ... ... : ... .. . ... ... ... : ... .. . ... : ... .. 6 ... : ... .. . ... ... : ... .. . ... ... : ... .. . ... ... : ... .. . ... ...
ROW F3 : ... .. A ... ... ... : ... .. . ... ... ... : ... .. . ... : ... .. 3 ... : ... .. . ... ... : ... .. . ... ... : ... .. . ... ... : ... .. . ... ...
ROW F4 : ... .. . ... ... ... : ... .. . ... ... ... : ... .. . ... : ... .. 2 ... : ... .. . ... ... : ... .. . ... ... : ... .. . ... ... : ... .. . ... ...
ROW F5 : ... .. . ... ... ... : ... .. . ... ... ... : --- .. . ... : ... .. 0 ... : ... .. . ... ... : ... .. . ... ... : ... .. . ... ... : ... .. . ... ...
ROW F6 : ... .. . ... ... ... : ... .. . ... ... ... : ... .. . ... : ... .. . ... : ... .. . ... ... : ... .. . ... ... : ... .. . ... ... : ... .. . ... ...
ROW F7 : ... .. . ... ... ... : ... .. . ... ... ... : ... .. . ... : ... .. . ... : ... .. . ... ... : ... .. . ... ... : ... .. . ... ... : ... .. . ... ...
ROW F8 : ... .. . ... ... ... : ... .. . ... ... ... : ... .. . ... : ... .. . ... : ... .. . ... ... : ... .. . ... ... : ... .. . ... ... : ... .. . ... ...
ROW F9 : ... .. . ... ... ... : ... .. . ... ... ... : ... .. . ... : ... .. . ... : ... .. . ... ... : ... .. . ... ... : ... .. . ... ... : ... .. . ... ...
ROW FA : C-5 00 F ... ... ... : ... .. . ... ... ... : G#4 00 . ... : D-# 00 F ... : ... .. . ... ... : F-3 01 A P80 ... : G#3 01 A ... ... : ... .. . ... ...
ROW FB : ... .. E ... ... ... : ... .. . ... ... ... : ... .. . ... : ... .. C ... : ... .. . ... ... : ... .. 9 ... ... : ... .. 9 ... ... : ... .. . ... ...
ROW FC : ... .. D ... ... ... : ... .. . ... ... ... : ... .. . ... : ... .. 6 ... : ... .. . ... ... : ... .. . ... ... : ... .. . ... ... : ... .. . ... ...
ROW FD : ... .. 0 ... V00 ... : ... .. . ... ... ... : ... .. . ... : ... .. 3 ... : ... .. . ... ... : ... .. 8 ... ... : ... .. 8 ... ... : ... .. . ... ...
ROW FE : ... .. . ... ... ... : ... .. . ... ... ... : ... .. . ... : ... .. 2 ... : ... .. . ... ... : ... .. 7 ... ... : ... .. 7 ... ... : ... .. . ... ...
ROW FF : A#4 00 F P80 V02 ... : ... .. . ... ... ... : --- .. . ... : ... .. F ... : ... .. . ... ... : --- .. . ... ... : --- .. . P83 ... : ... .. . ... ...

PATTERN 15
ROW 00 : ... .. E ... ... ... : ... .. . ... ... ... : ... .. . ... : ... .. C ... : ... .. . ... ... : ... .. . ... ... : ... .. . ... ... : ... .. . ... ...
ROW 01 : ... .. D ... ... ... : ... .. . ... ... ... : ... .. . ... : ... .. 6 ... : ... .. . ... ... : ... .. . ... ... : ... .. . ... ... : ... .. . ... ...
ROW 02 : ... .. 0 ... V00 ... : ... .. . ... ... ... : ... .. . ... : ... .. 3 ... : ... .. . ... ... : ... .. . ... ... : ... .. . ... ... : ... .. . ... ...
ROW 03 : ... .. . ... ... ... : ... .. . ... ... ... : ... .. . ... : ... .. 2 ... : ... .. . ... ... : ... .. . ... ... : ... .. . ... ... : ... .. . ... ...
ROW 04 : G#4 00 F P80 V02 ... : ... .. . ... ... ... : C-3 00 . ... : 6-# 00 F ... : ... .. . ... ... : ... .. . ... ... : ... .. . ... ... : ... .. . ... ...
ROW 05 : ... .. E ... ... ... : ... .. . ... ... ... : ... .. . ... : ... .. C ... : ... .. . ... ... : ... .. . ... ... : ... .. . ... ... : ... .. . ... ...
ROW 06 : ... .. D ... ... ... : ... .. . ... ... ... : ... .. . ... : ... .. 6 ... : ... .. . ... ... : ... .. . ... ... : ... .. . ... ... : ... .. . ... ...
ROW 07 : ... .. A ... ... ... : ... .. . ... ... ... : ... .. . ... : ... .. 3 ... : ... .. . ... ... : ... .. . ... ... : ... .. . ... ... : ... .. . ... ...
ROW 08 : ... .. . ... ... ... : ... .. . ... ... ... : ... .. . ... : ... .. 2 ... : ... .. . ... ... : ... .. . ... ... : ... .. . ... ... : ... .. . ... ...
ROW 09 : ... .. 0 ... V00 ... : ... .. . ... ... ... : --- .. . ... : ... .. 0 ... : ... .. . ... ... : ... .. . ... ... : ... .. . ... ... : ... .. . ... ...
ROW 0A : ... .. . ... ... ... : ... .. . ... ... ... : ... .. . ... : ... .. . ... : ... .. . ... ... : ... .. . ... ... : ... .. . ... ... : ... .. . ... ...
ROW 0B : ... .. . ... ... ... : ... .. . ... ... ... : ... .. . ... : ... .. . ... : ... .. . ... ... : ... .. . ... ... : ... .. . ... ... : ... .. . ... ...
ROW 0C : ... .. . ... ... ... : ... .. . ... ... ... : ... .. . ... : ... .. . ... : ... .. . ... ... : ... .. . ... ... : ... .. . ... ... : ... .. . ... ...
ROW 0D : ... .. . ... ... ... : ... .. . ... ... ... : ... .. . ... : ... .. . ... : ... .. . ... ... : ... .. . ... ... : ... .. . ... ... : ... .. . ... ...
ROW 0E : G-4 00 F P80 V02 ... : ... .. . ... ... ... : E-4 00 . ... : D-# 00 F ... : ... .. . ... ... : E-3 01 A ... ... : G-3 01 A P81 ... : ... .. . ... ...
ROW 0F : ... .. E ... ... ... : ... .. . ... ... ... : ... .. . ... : ... .. C ... : ... .. . ... ... : ... .. 9 ... ... : ... .. 9 ... ... : ... .. . ... ...
ROW 10 : ... .. D ... ... ... : ... .. . ... ... ... : ... .. . ... : ... .. 6 ... : ... .. . ... ... : ... .. . ... ... : ... .. . ... ... : ... .. . ... ...
ROW 11 : ... .. A ... ... ... : ... .. . ... ... ... : ... .. . ... : ... .. 3 ... : ... .. . ... ... : ... .. 8 ... ... : ... .. 8 ... ... : ... .. . ... ...
ROW 12 : ... .. . ... ... ... : ... .. . ... ... ... : ... .. . ... : ... .. 2 ... : ... .. . ... ... : ... .. 7 ... ... : ... .. 7 ... ... : ... .. . ... ...
ROW 13 : ... .. 0 ... V00 ... : ... .. . ... ... ... : --- .. . ... : ... .. 0 ... : ... .. . ... ... : --- .. . P82 ... : --- .. . P80 ... : ... .. . ... ...
ROW 14 : ... .. . ... ... ... : ... .. . ... ... ... : ... .. . ... : ... .. . ... : ... .. . ... ... : ... .. . ... ... : ... .. . ... ... : ... .. . ... ...
ROW 15 : ... .. . ... ... ... : ... .. . ... ... ... : ... .. . ... : ... .. . ... : ... .. . ... ... : ... .. . ... ... : ... .. . ... ... : ... .. . ... ...
ROW 16 : ... .. . ... ... ... : ... .. . ... ... ... : ... .. . ... : ... .. . ... : ... .. . ... ... : ... .. . ... ... : ... .. . ... ... : ... .. . ... ...
ROW 17 : ... .. . ... ... ... : ... .. . ... ... ... : ... .. . ... : ... .. . ... : ... .. . ... ... : ... .. . ... ... : ... .. . ... ... : ... .. . ... ...
ROW 18 : G#4 00 F P80 V02 ... : ... .. . ... ... ... : F-4 00 . ... : 3-# 00 F ... : ... .. . ... ... : F-3 01 A P80 ... : G#3 01 A P81 ... : ... .. . ... ...
ROW 19 : ... .. E ... ... ... : ... .. . ... ... ... : ... .. . ... : ... .. C ... : ... .. . ... ... : ... .. 9 ... ... : ... .. 9 ... ... : ... .. . ... ...
ROW 1A : ... .. D ... ... ... : ... .. . ... ... ... : ... .. . ... : ... .. 6 ... : ... .. . ... ... : ... .. . ... ... : ... .. . ... ... : ... .. . ... ...
ROW 1B : ... .. A ... ... ... : ... .. . ... ... ... : ... .. . ... : ... .. 3 ... : ... .. . ... ... : ... .. 8 ... ... : ... .. 8 ... ... : ... .. . ... ...
ROW 1C : ... .. . ... ... ... : ... .. . ... ... ... : ... .. . ... : ... .. 2 ... : ... .. . ... ... : ... .. 7 ... ... : ... .. 7 ... ... : ... .. . ... ...
ROW 1D : ... .. 0 ... V00 ... : ... .. . ... ... ... : D-4 00 . P7E : ... .. 0 ... : ... .. . ... ... : ... .. . ... ... : ... .. . ... ... : ... .. . ... ...
ROW 1E : ... .. . ... ... ... : ... .. . ... ... ... : B-3 00 . P82 : ... .. . ... : ... .. . ... ... : ... .. 6 ... ... : ... .. 6 ... ... : ... .. . ... ...
ROW 1F : ... .. . ... ... ... : ... .. . ... ... ... : A-3 00 . P7E : ... .. . ... : ... .. . ... ... : ... .. . ... ... : ... .. . ... ... : ... .. . ... ...
ROW 20 : ... .. . ... ... ... : ... .. . ... ... ... : G-3 00 . P7D : ... .. . ... : ... .. . ... ... : ... .. . ... ... : ... .. . ... ... : ... .. . ... ...
ROW 21 : ... .. . ... ... ... : ... .. . ... ... ... : F-3 00 . P80 : ... .. . ... : ... .. . ... ... : ... .. . ... ... : ... .. . ... ... : ... .. . ... ...
ROW 22 : ... .. . ... ... ... : ... .. . ... ... ... : D#3 00 . P88 : ... .. . ... : ... .. . ... ... : --- .. . ... ... : --- .. . P83 ... : ... .. . ... ...
ROW 23 : ... .. . ... ... ... : ... .. . ... ... ... : D-3 00 . P7D : ... .. . ... : ... .. . ... ... : ... .. . ... ... : ... .. . ... ... : ... .. . ... ...
ROW 24 : ... .. . ... ... ... : ... .. . ... ... ... : C-3 00 . P8C : ... .. . ... : ... .. . ... ... : ... .. . ... ... : ... .. . ... ... : ... .. . ... ...
ROW 25 : ... .. . ... ... ... : ... .. . ... ... ... : B-2 00 . P85 : ... .. . ... : ... .. . ... ... : ... .. . ... ... : ... .. . ... ... : ... .. . ... ...
ROW 26 : ... .. . ... ... ... : ... .. . ... ... ... : A#2 00 . P80 : ... .. . ... : ... .. . ... ... : ... .. . ... ... : ... .. . ... ... : ... .. . ... ...
ROW 27 : ... .. . ... ... ... : ... .. . ... ... ... : A-2 00 . P7C : ... .. . ... : ... .. . ... ... : ... .. . ... ... : ... .. . ... ... : ... .. . ... ...
ROW 28 : ... .. . ... ... ... : ... .. . ... ... ... : G#2 00 . P7B : ... .. . ... : ... .. . ... ... : ... .. . ... ... : ... .. . ... ... : ... .. . ... ...
ROW 29 : ... .. . ... ... ... : ... .. . ... ... ... : G-2 00 . ... : ... .. . ... : ... .. . ... ... : ... .. . ... ... : ... .. . ... ... : ... .. . ... ...
ROW 2A : ... .. . ... ... ... : ... .. . ... ... ... : F#2 00 . P7D : ... .. . ... : ... .. . ... ... : ... .. . ... ... : ... .. . ... ... : ... .. . ... ...
ROW 2B : ... .. . ... ... ... : ... .. . ... ... ... : F-2 00 . P81 : ... .. . ... : ... .. . ... ... : ... .. . ... ... : ... .. . ... ... : ... .. . ... ...
ROW 2C : C-4 00 F P80 V02 ... : ... .. . ... ... ... : B-3 00 . P80 : ... .. . ... : ... .. . ... ... : ... .. . ... ... : ... .. . ... ... : ... .. . ... ...
ROW 2D : ... .. E ... ... ... : ... .. . ... ... ... : C#3 00 . ... : ... .. . ... : ... .. . ... ... : ... .. . ... ... : ... .. . ... ... : ... .. . ... ...
ROW 2E : ... .. D ... ... ... : ... .. . ... ... ... : F#2 00 . ... : ... .. . ... : ... .. . ... ... : ... .. . ... ... : ... .. . ... ... : ... .. . ... ...
ROW 2F : C#4 00 B ... ... ... : ... .. . ... ... ... : F-2 00 . ... : ... .. . ... : ... .. . ... ... : ... .. . ... ... : ... .. . ... ... : ... .. . ... ...
ROW 30 : ... .. A ... ... ... : ... .. . ... ... ... : C-2 00 . ... : ... .. . ... : ... .. . ... ... : ... .. . ... ... : ... .. . ... ... : ... .. . ... ...
ROW 31 : C-4 00 7 ... ... ... : ... .. . ... ... ... : ... .. . ... : ... .. . ... : ... .. . ... ... : ... .. . ... ... : ... .. . ... ... : ... .. . ... ...
ROW 32 : ... .. 6 ... ... ... : ... .. . ... ... ... : ... .. . ... : ... .. . ... : ... .. . ... ... : ... .. . ... ... : ... .. . ... ... : ... .. . ... ...
ROW 33 : ... .. . ... ... ... : ... .. . ... ... ... : ... .. . ... : ... .. . ... : ... .. . ... ... : ... .. . ... ... : ... .. . ... ... : ... .. . ... ...
ROW 34 : C#4 00 4 ... ... ... : ... .. . ... ... ... : ... .. . ... : ... .. . ... : ... .. . ... ... : ... .. . ... ... : ... .. . ... ... : ... .. . ... ...
ROW 35 : ... .. 3 ... ... ... : ... .. . ... ... ... : ... .. . ... : ... .. . ... : ... .. . ... ... : ... .. . ... ... : ... .. . ... ... : ... .. . ... ...
ROW 36 : C-4 00 6 ... ... ... : ... .. . ... ... ... : ... .. . ... : ... .. . ... : ... .. . ... ... : ... .. . ... ... : ... .. . ... ... : ... .. . ... ...
ROW 37 : ... .. 5 ... ... ... : ... .. . ... ... ... : ... .. . ... : ... .. . ... : ... .. . ... ... : ... .. . ... ... : ... .. . ... ... : ... .. . ... ...
ROW 38 : ... .. . ... ... ... : ... .. . ... ... ... : ... .. . ... : ... .. . ... : ... .. . ... ... : ... .. . ... ... : ... .. . ... ... : ... .. . ... ...
ROW 39 : C#4 00 8 ... ... ... : ... .. . ... ... ... : ... .. . ... : ... .. . ... : ... .. . ... ... : ... .. . ... ... : ... .. . ... ... : ... .. . ... ...
ROW 3A : ... .. 7 ... ... ... : ... .. . ... ... ... : ... .. . ... : ... .. . ... : ... .. . ... ... : ... .. . ... ... : ... .. . ... ... : ... .. . ... ...
ROW 3B : C-4 00 A ... ... ... : ... .. . ... ... ... : ... .. . ... : ... .. . ... : ... .. . ... ... : ... .. . ... ... : ... .. . ... ... : ... .. . ... ...
ROW 3C : ... .. 9 ... ... ... : ... .. . ... ... ... : ... .. . ... : ... .. . ... : ... .. . ... ... : ... .. . ... ... : ... .. . ... ... : ... .. . ... ...
ROW 3D : ... .. 8 ... ... ... : ... .. . ... ... ... : ... .. . ... : ... .. . ... : ... .. . ... ... : ... .. . ... ... : ... .. . ... ... : ... .. . ... ...
ROW 3E : C#4 00 C ... ... ... : ... .. . ... ... ... : ... .. . ... : ... .. . ... : ... .. . ... ... : ... .. . ... ... : ... .. . ... ... : ... .. . ... ...
ROW 3F : ... .. B ... ... ... : ... .. . ... ... ... : ... .. . ... : ... .. . ... : ... .. . ... ... : ... .. . ... ... : ... .. . ... ... : ... .. . ... ...
ROW 40 : C-4 00 F ... ... ... : ... .. . ... ... ... : F-2 00 . ... : ... .. F ... : ... .. . ... ... : ... .. . ... ... : ... .. . ... ... : ... .. . ... ...
ROW 41 : ... .. E ... ... ... : ... .. . ... ... ... : ... .. . ... : ... .. C ... : ... .. . ... ... : ... .. . ... ... : ... .. . ... ... : ... .. . ... ...
ROW 42 : ... .. D ... ... ... : ... .. . ... ... ... : ... .. . ... : ... .. 6 ... : ... .. . ... ... : ... .. . ... ... : ... .. . ... ... : ... .. . ... ...
ROW 43 : ... .. A ... ... ... : ... .. . ... ... ... : ... .. . ... : ... .. 3 ... : ... .. . ... ... : ... .. . ... ... : ... .. . ... ... : ... .. . ... ...
ROW 44 : ... .. . ... ... ... : ... .. . ... ... ... : ... .. . ... : ... .. 2 ... : ... .. . ... ... : ... .. . ... ... : ... .. . ... ... : ... .. . ... ...
ROW 45 : ... .. 0 ... V00 ... : ... .. . ... ... ... : ... .. . ... : ... .. 0 ... : ... .. . ... ... : ... .. . ... ... : ... .. . ... ... : ... .. . ... ...
ROW 46 : ... .. . ... ... ... : ... .. . ... ... ... : ... .. . ... : ... .. . ... : ... .. . ... ... : ... .. . ... ... : ... .. . ... ... : ... .. . ... ...
ROW 47 : ... .. . ... ... ... : ... .. . ... ... ... : ... .. . ... : ... .. . ... : ... .. . ... ... : ... .. . ... ... : ... .. . ... ... : ... .. . ... ...
ROW 48 : ... .. . ... ... ... : ... .. . ... ... ... : --- .. . ... : ... .. . ... : ... .. . ... ... : ... .. . ... ... : ... .. . ... ... : ... .. . ... ...
ROW 49 : ... .. . ... ... ... : ... .. . ... ... ... : ... .. . ... : ... .. . ... : ... .. . ... ... : ... .. . ... ... : ... .. . ... ... : ... .. . ... ...
ROW 4A : C-5 00 F P80 V02 ... : ... .. . ... ... ... : G#3 00 . ... : D-# 00 F ... : ... .. . ... ... : F-3 01 A ... ... : G#3 01 A P81 ... : ... .. . ... ...
ROW 4B : ... .. E ... ... ... : ... .. . ... ... ... : ... .. . ... : ... .. C ... : ... .. . ... ... : ... .. 9 ... ... : ... .. 9 ... ... : ... .. . ... ...
ROW 4C : ... .. D ... ... ... : ... .. . ... ... ... : ... .. . ... : ... .. 6 ... : ... .. . ... ... : ... .. . ... ... : ... .. . ... ... : ... .. . ... ...
ROW 4D : ... .. A ... ... ... : ... .. . ... ... ... : --- .. . ... : ... .. 3 ... : ... .. . ... ... : ... .. 8 ... ... : ... .. 8 ... ... : ... .. . ... ...
ROW 4E : ... .. . ... ... ... : ... .. . ... ... ... : ... .. . ... : ... .. 2 ... : ... .. . ... ... : ... .. 7 ... ... : ... .. 7 ... ... : ... .. . ... ...
ROW 4F : ... .. 0 ... V00 ... : ... .. . ... ... ... : G#3 00 . ... : ... .. F ... : ... .. . ... ... : --- .. . ... ... : --- .. . P83 ... : ... .. . ... ...
ROW 50 : ... .. . ... ... ... : ... .. . ... ... ... : ... .. . ... : ... .. C ... : ... .. . ... ... : ... .. . ... ... : ... .. . ... ... : ... .. . ... ...
ROW 51 : ... .. . ... ... ... : ... .. . ... ... ... : ... .. . ... : ... .. 6 ... : ... .. . ... ... : ... .. . ... ... : ... .. . ... ... : ... .. . ... ...
ROW 52 : ... .. . ... ... ... : ... .. . ... ... ... : --- .. . ... : ... .. 3 ... : ... .. . ... ... : ... .. . ... ... : ... .. . ... ... : ... .. . ... ...
ROW 53 : ... .. . ... ... ... : ... .. . ... ... ... : ... .. . ... : ... .. 2 ... : ... .. . ... ... : ... .. . ... ... : ... .. . ... ... : ... .. . ... ...
ROW 54 : G#4 00 F P80 V02 ... : ... .. . ... ... ... : F-2 00 . ... : 6-# 00 F ... : ... .. . ... ... : ... .. . ... ... : ... .. . ... ... : ... .. . ... ...
ROW 55 : ... .. E ... ... ... : ... .. . ... ... ... : ... .. . ... : ... .. C ... : ... .. . ... ... : ... .. . ... ... : ... .. . ... ... : ... .. . ... ...
ROW 56 : ... .. D ... ... ... : ... .. . ... ... ... : ... .. . ... : ... .. 6 ... : ... .. . ... ... : ... .. . ... ... : ... .. . ... ... : ... .. . ... ...
ROW 57 : ... .. A ... ... ... : ... .. . ... ... ... : ... .. . ... : ... .. 3 ... : ... .. . ... ... : ... .. . ... ... : ... .. . ... ... : ... .. . ... ...
ROW 58 : ... .. . ... ... ... : ... .. . ... ... ... : ... .. . ... : ... .. 2 ... : ... .. . ... ... : ... .. . ... ... : ... .. . ... ... : ... .. . ... ...
ROW 59 : ... .. 0 ... V00 ... : ... .. . ... ... ... : --- .. . ... : ... .. 0 ... : ... .. . ... ... : ... .. . ... ... : ... .. . ... ... : ... .. . ... ...
ROW 5A : ... .. . ... ... ... : ... .. . ... ... ... : ... .. . ... : ... .. . ... : ... .. . ... ... : ... .. . ... ... : ... .. . ... ... : ... .. . ... ...
ROW 5B : ... .. . ... ... ... : ... .. . ... ... ... : ... .. . ... : ... .. . ... : ... .. . ... ... : ... .. . ... ... : ... .. . ... ... : ... .. . ... ...
ROW 5C : ... .. . ... ... ... : ... .. . ... ... ... : ... .. . ... : ... .. . ... : ... .. . ... ... : ... .. . ... ... : ... .. . ... ... : ... .. . ... ...
ROW 5D : ... .. . ... ... ... : ... .. . ... ... ... : ... .. . ... : ... .. . ... : ... .. . ... ... : ... .. . ... ... : ... .. . ... ... : ... .. . ... ...
ROW 5E : F-4 00 F P80 V02 ... : ... .. . ... ... ... : C-4 00 . ... : D-# 00 F ... : ... .. . ... ... : F-3 01 A ... ... : G#3 01 A P81 ... : ... .. . ... ...
ROW 5F : ... .. E ... ... ... : ... .. . ... ... ... : ... .. . ... : ... .. C ... : ... .. . ... ... : ... .. 9 ... ... : ... .. 9 ... ... : ... .. . ... ...
ROW 60 : ... .. D ... ... ... : ... .. . ... ... ... : ... .. . ... : ... .. 6 ... : ... .. . ... ... : ... .. . ... ... : ... .. . ... ... : ... .. . ... ...
ROW 61 : ... .. A ... ... ... : ... .. . ... ... ... : --- .. . ... : ... .. 3 ... : ... .. . ... ... : ... .. 8 ... ... : ... .. 8 ... ... : ... .. . ... ...
ROW 62 : ... .. . ... ... ... : ... .. . ... ... ... : ... .. . ... : ... .. 2 ... : ... .. . ... ... : ... .. 7 ... ... : ... .. 7 ... ... : ... .. . ... ...
ROW 63 : ... .. . ... ... ... : ... .. . ... ... ... : C-4 00 . ... : ... .. F ... : ... .. . ... ... : --- .. . ... ... : --- .. . P83 ... : ... .. . ... ...
ROW 64 : ... .. . ... ... ... : ... .. . ... ... ... : ... .. . ... : ... .. C ... : ... .. . ... ... : ... .. . ... ... : ... .. . ... ... : ... .. . ... ...
ROW 65 : ... .. . ... ... ... : ... .. . ... ... ... : ... .. . ... : ... .. 6 ... : ... .. . ... ... : ... .. . ... ... : ... .. . ... ... : ... .. . ... ...
ROW 66 : ... .. 0 ... V00 ... : ... .. . ... ... ... : --- .. . ... : ... .. 3 ... : ... .. . ... ... : ... .. . ... ... : ... .. . ... ... : ... .. . ... ...
ROW 67 : ... .. . ... ... ... : ... .. . ... ... ... : ... .. . ... : ... .. 2 ... : ... .. . ... ... : ... .. . ... ... : ... .. . ... ... : ... .. . ... ...
ROW 68 : C-4 00 F P80 V02 ... : ... .. . ... ... ... : F#2 00 . ... : 3-# 00 F ... : ... .. . ... ... : ... .. . ... ... : ... .. . ... ... : ... .. . ... ...
ROW 69 : ... .. E ... ... ... : ... .. . ... ... ... : ... .. . ... : ... .. C ... : ... .. . ... ... : ... .. . ... ... : ... .. . ... ... : ... .. . ... ...
ROW 6A : ... .. D ... ... ... : ... .. . ... ... ... : ... .. . ... : ... .. 6 ... : ... .. . ... ... : ... .. . ... ... : ... .. . ... ... : ... .. . ... ...
ROW 6B : ... .. A ... ... ... : ... .. . ... ... ... : ... .. . ... : ... .. 3 ... : ... .. . ... ... : ... .. . ... ... : ... .. . ... ... : ... .. . ... ...
ROW 6C : ... .. . ... ... ... : ... .. . ... ... ... : ... .. . ... : ... .. 2 ... : ... .. . ... ... : ... .. . ... ... : ... .. . ... ... : ... .. . ... ...
ROW 6D : ... .. . ... ... ... : ... .. . ... ... ... : --- .. . ... : ... .. 0 ... : ... .. . ... ... : ... .. . ... ... : ... .. . ... ... : ... .. . ... ...
ROW 6E : ... .. . ... ... ... : ... .. . ... ... ... : ... .. . ... : ... .. . ... : ... .. . ... ... : ... .. . ... ... : ... .. . ... ... : ... .. . ... ...
ROW 6F : ... .. . ... ... ... : ... .. . ... ... ... : ... .. . ... : ... .. . ... : ... .. . ... ... : ... .. . ... ... : ... .. . ... ... : ... .. . ... ...
ROW 70 : ... .. . ... ... ... : ... .. . ... ... ... : ... .. . ... : ... .. . ... : ... .. . ... ... : ... .. . ... ... : ... .. . ... ... : ... .. . ... ...
ROW 71 : ... .. . ... ... ... : ... .. . ... ... ... : ... .. . ... : ... .. . ... : ... .. . ... ... : ... .. . ... ... : ... .. . ... ... : ... .. . ... ...
ROW 72 : C#4 00 F ... ... ... : ... .. . ... ... ... : A#3 00 . ... : D-# 00 F ... : ... .. . ... ... : F#3 01 A ... ... : A#3 01 A P81 ... : ... .. . ... ...
ROW 73 : ... .. E ... ... ... : ... .. . ... ... ... : ... .. . ... : ... .. C ... : ... .. . ... ... : ... .. 9 ... ... : ... .. 9 ... ... : ... .. . ... ...
ROW 74 : ... .. D ... ... ... : ... .. . ... ... ... : ... .. . ... : ... .. 6 ... : ... .. . ... ... : ... .. . ... ... : ... .. . ... ... : ... .. . ... ...
ROW 75 : ... .. 0 ... V00 ... : ... .. . ... ... ... : --- .. . ... : ... .. 3 ... : ... .. . ... ... : ... .. 8 ... ... : ... .. 8 ... ... : ... .. . ... ...
ROW 76 : ... .. . ... ... ... : ... .. . ... ... ... : ... .. . ... : ... .. 2 ... : ... .. . ... ... : ... .. 7 ... ... : ... .. 7 ... ... : ... .. . ... ...
ROW 77 : C-4 00 F P80 V02 ... : ... .. . ... ... ... : A#3 00 . ... : ... .. F ... : ... .. . ... ... : --- .. . P7F ... : --- .. . ... ... : ... .. . ... ...
ROW 78 : ... .. E ... ... ... : ... .. . ... ... ... : ... .. . ... : ... .. C ... : ... .. . ... ... : ... .. . ... ... : ... .. . ... ... : ... .. . ... ...
ROW 79 : ... .. D ... ... ... : ... .. . ... ... ... : ... .. . ... : ... .. 6 ... : ... .. . ... ... : ... .. . ... ... : ... .. . ... ... : ... .. . ... ...
ROW 7A : ... .. 0 ... V00 ... : ... .. . ... ... ... : --- .. . ... : ... .. 3 ... : ... .. . ... ... : ... .. . ... ... : ... .. . ... ... : ... .. . ... ...
ROW 7B : ... .. . ... ... ... : ... .. . ... ... ... : ... .. . ... : ... .. 2 ... : ... .. . ... ... : ... .. . ... ... : ... .. . ... ... : ... .. . ... ...
ROW 7C : A#3 00 F P80 V02 ... : ... .. . ... ... ... : E-3 00 . ... : 6-# 00 F ... : ... .. . ... ... : ... .. . ... ... : ... .. . ... ... : ... .. . ... ...
ROW 7D : ... .. E ... ... ... : ... .. . ... ... ... : ... .. . ... : ... .. C ... : ... .. . ... ... : ... .. . ... ... : ... .. . ... ... : ... .. . ... ...
ROW 7E : ... .. D ... ... ... : ... .. . ... ... ... : ... .. . ... : ... .. 6 ... : ... .. . ... ... : ... .. . ... ... : ... .. . ... ... : ... .. . ... ...
ROW 7F : ... .. A ... ... ... : ... .. . ... ... ... : ... .. . ... : ... .. 3 ... : ... .. . ... ... : ... .. . ... ... : ... .. . ... ... : ... .. . ... ...
ROW 80 : ... .. . ... ... ... : ... .. . ... ... ... : ... .. . ... : ... .. 2 ... : ... .. . ... ... : ... .. . ... ... : ... .. . ... ... : ... .. . ... ...
ROW 81 : ... .. 0 ... V00 ... : ... .. . ... ... ... : --- .. . ... : ... .. 0 ... : ... .. . ... ... : ... .. . ... ... : ... .. . ... ... : ... .. . ... ...
ROW 82 : ... .. . ... ... ... : ... .. . ... ... ... : ... .. . ... : ... .. . ... : ... .. . ... ... : ... .. . ... ... : ... .. . ... ... : ... .. . ... ...
ROW 83 : ... .. . ... ... ... : ... .. . ... ... ... : ... .. . ... : ... .. . ... : ... .. . ... ... : ... .. . ... ... : ... .. . ... ... : ... .. . ... ...
ROW 84 : ... .. . ... ... ... : ... .. . ... ... ... : ... .. . ... : ... .. . ... : ... .. . ... ... : ... .. . ... ... : ... .. . ... ... : ... .. . ... ...
ROW 85 : ... .. . ... ... ... : ... .. . ... ... ... : ... .. . ... : ... .. . ... : ... .. . ... ... : ... .. . ... ... : ... .. . ... ... : ... .. . ... ...
ROW 86 : A#4 00 F P80 V02 ... : ... .. . ... ... ... : C-4 00 . ... : D-# 00 F ... : ... .. . ... ... : G-3 01 A P80 ... : A#3 01 A ... ... : ... .. . ... ...
ROW 87 : ... .. E ... ... ... : ... .. . ... ... ... : ... .. . ... : ... .. C ... : ... .. . ... ... : ... .. 9 ... ... : ... .. 9 ... ... : ... .. . ... ...
ROW 88 : ... .. D ... ... ... : ... .. . ... ... ... : ... .. . ... : ... .. 6 ... : ... .. . ... ... : ... .. . ... ... : ... .. . ... ... : ... .. . ... ...
ROW 89 : ... .. A ... ... ... : ... .. . ... ... ... : --- .. . ... : ... .. 3 ... : ... .. . ... ... : ... .. 8 ... ... : ... .. 8 ... ... : ... .. . ... ...
ROW 8A : ... .. . ... ... ... : ... .. . ... ... ... : ... .. . ... : ... .. 2 ... : ... .. . ... ... : ... .. 7 ... ... : ... .. 7 ... ... : ... .. . ... ...
ROW 8B : ... .. 0 ... V00 ... : ... .. . ... ... ... : C-4 00 . ... : ... .. 0 ... : ... .. . ... ... : --- .. . P81 ... : --- .. . ... ... : ... .. . ... ...
ROW 8C : ... .. . ... ... ... : ... .. . ... ... ... : ... .. . ... : ... .. . ... : ... .. . ... ... : ... .. . ... ... : ... .. . ... ... : ... .. . ... ...
ROW 8D : ... .. . ... ... ... : ... .. . ... ... ... : ... .. . ... : ... .. . ... : ... .. . ... ... : ... .. . ... ... : ... .. . ... ... : ... .. . ... ...
ROW 8E : ... .. . ... ... ... : ... .. . ... ... ... : --- .. . ... : ... .. . ... : ... .. . ... ... : ... .. . ... ... : ... .. . ... ... : ... .. . ... ...
ROW 8F : ... .. . ... ... ... : ... .. . ... ... ... : ... .. . ... : ... .. . ... : ... .. . ... ... : ... .. . ... ... : ... .. . ... ... : ... .. . ... ...
ROW 90 : A#3 00 F P80 V02 ... : ... .. . ... ... ... : F-3 00 . ... : 3-# 00 F ... : ... .. . ... ... : ... .. . ... ... : ... .. . ... ... : ... .. . ... ...
ROW 91 : ... .. E ... ... ... : ... .. . ... ... ... : ... .. . ... : ... .. C ... : ... .. . ... ... : ... .. . ... ... : ... .. . ... ... : ... .. . ... ...
ROW 92 : ... .. D ... ... ... : ... .. . ... ... ... : ... .. . ... : ... .. 6 ... : ... .. . ... ... : ... .. . ... ... : ... .. . ... ... : ... .. . ... ...
ROW 93 : ... .. A ... ... ... : ... .. . ... ... ... : ... .. . ... : ... .. 3 ... : ... .. . ... ... : ... .. . ... ... : ... .. . ... ... : ... .. . ... ...
ROW 94 : ... .. . ... ... ... : ... .. . ... ... ... : ... .. . ... : ... .. 2 ... : ... .. . ... ... : ... .. . ... ... : ... .. . ... ... : ... .. . ... ...
ROW 95 : ... .. . ... ... ... : ... .. . ... ... ... : --- .. . ... : ... .. 0 ... : ... .. . ... ... : ... .. . ... ... : ... .. . ... ... : ... .. . ... ...
ROW 96 : ... .. . ... ... ... : ... .. . ... ... ... : ... .. . ... : ... .. . ... : ... .. . ... ... : ... .. . ... ... : ... .. . ... ... : ... .. . ... ...
ROW 97 : ... .. . ... ... ... : ... .. . ... ... ... : ... .. . ... : ... .. . ... : ... .. . ... ... : ... .. . ... ... : ... .. . ... ... : ... .. . ... ...
ROW 98 : ... .. . ... ... ... : ... .. . ... ... ... : ... .. . ... : ... .. . ... : ... .. . ... ... : ... .. . ... ... : ... .. . ... ... : ... .. . ... ...
ROW 99 : ... .. . ... ... ... : ... .. . ... ... ... : ... .. . ... : ... .. . ... : ... .. . ... ... : ... .. . ... ... : ... .. . ... ... : ... .. . ... ...
ROW 9A : C-4 00 F ... ... ... : ... .. . ... ... ... : G#3 00 . ... : D-# 00 F ... : ... .. . ... ... : F-3 01 A P80 ... : G#3 01 A ... ... : ... .. . ... ...
ROW 9B : ... .. E ... ... ... : ... .. . ... ... ... : ... .. . ... : ... .. C ... : ... .. . ... ... : ... .. 9 ... ... : ... .. 9 ... ... : ... .. . ... ...
ROW 9C : ... .. D ... ... ... : ... .. . ... ... ... : ... .. . ... : ... .. 6 ... : ... .. . ... ... : ... .. . ... ... : ... .. . ... ... : ... .. . ... ...
ROW 9D : ... .. 0 ... V00 ... : ... .. . ... ... ... : ... .. . ... : ... .. 3 ... : ... .. . ... ... : ... .. 8 ... ... : ... .. 8 ... ... : ... .. . ... ...
ROW 9E : ... .. . ... ... ... : ... .. . ... ... ... : ... .. . ... : ... .. 2 ... : ... .. . ... ... : ... .. 7 ... ... : ... .. 7 ... ... : ... .. . ... ...
ROW 9F : A#3 00 F P80 V02 ... : ... .. . ... ... ... : --- .. . ... : ... .. F ... : ... .. . ... ... : --- .. . ... ... : --- .. . P83 ... : ... .. . ... ...
ROW A0 : ... .. E ... ... ... : ... .. . ... ... ... : ... .. . ... : ... .. C ... : ... .. . ... ... : ... .. . ... ... : ... .. . ... ... : ... .. . ... ...
ROW A1 : ... .. D ... ... ... : ... .. . ... ... ... : ... .. . ... : ... .. 6 ... : ... .. . ... ... : ... .. . ... ... : ... .. . ... ... : ... .. . ... ...
ROW A2 : ... .. 0 ... V00 ... : ... .. . ... ... ... : ... .. . ... : ... .. 3 ... : ... .. . ... ... : ... .. . ... ... : ... .. . ... ... : ... .. . ... ...
ROW A3 : ... .. . ... ... ... : ... .. . ... ... ... : ... .. . ... : ... .. 2 ... : ... .. . ... ... : ... .. . ... ... : ... .. . ... ... : ... .. . ... ...
ROW A4 : G#3 00 F P80 V02 ... : ... .. . ... ... ... : C-3 00 . ... : 6-# 00 F ... : ... .. . ... ... : ... .. . ... ... : ... .. . ... ... : ... .. . ... ...
ROW A5 : ... .. E ... ... ... : ... .. . ... ... ... : ... .. . ... : ... .. C ... : ... .. . ... ... : ... .. . ... ... : ... .. . ... ... : ... .. . ... ...
ROW A6 : ... .. D ... ... ... : ... .. . ... ... ... : ... .. . ... : ... .. 6 ... : ... .. . ... ... : ... .. . ... ... : ... .. . ... ... : ... .. . ... ...
ROW A7 : ... .. A ... ... ... : ... .. . ... ... ... : ... .. . ... : ... .. 3 ... : ... .. . ... ... : ... .. . ... ... : ... .. . ... ... : ... .. . ... ...
ROW A8 : ... .. . ... ... ... : ... .. . ... ... ... : ... .. . ... : ... .. 2 ... : ... .. . ... ... : ... .. . ... ... : ... .. . ... ... : ... .. . ... ...
ROW A9 : G-3 00 F ... ... ... : ... .. . ... ... ... : --- .. . ... : ... .. 0 ... : ... .. . ... ... : ... .. . ... ... : ... .. . ... ... : ... .. . ... ...
ROW AA : ... .. E ... ... ... : ... .. . ... ... ... : ... .. . ... : ... .. . ... : ... .. . ... ... : ... .. . ... ... : ... .. . ... ... : ... .. . ... ...
ROW AB : ... .. D ... ... ... : ... .. . ... ... ... : ... .. . ... : ... .. . ... : ... .. . ... ... : ... .. . ... ... : ... .. . ... ... : ... .. . ... ...
ROW AC : ... .. 0 ... V00 ... : ... .. . ... ... ... : ... .. . ... : ... .. . ... : ... .. . ... ... : ... .. . ... ... : ... .. . ... ... : ... .. . ... ...
ROW AD : ... .. . ... ... ... : ... .. . ... ... ... : ... .. . ... : ... .. . ... : ... .. . ... ... : ... .. . ... ... : ... .. . ... ... : ... .. . ... ...
ROW AE : F-3 00 F P80 V02 ... : ... .. . ... ... ... : G-3 00 . ... : D-# 00 F ... : ... .. . ... ... : E-3 01 A ... ... : G-3 01 A P81 ... : ... .. . ... ...
ROW AF : ... .. E ... ... ... : ... .. . ... ... ... : ... .. . ... : ... .. C ... : ... .. . ... ... : ... .. 9 ... ... : ... .. 9 ... ... : ... .. . ... ...
ROW B0 : ... .. D ... ... ... : ... .. . ... ... ... : ... .. . ... : ... .. 6 ... : ... .. . ... ... : ... .. . ... ... : ... .. . ... ... : ... .. . ... ...
ROW B1 : ... .. 0 ... V00 ... : ... .. . ... ... ... : ... .. . ... : ... .. 3 ... : ... .. . ... ... : ... .. 8 ... ... : ... .. 8 ... ... : ... .. . ... ...
ROW B2 : ... .. . ... ... ... : ... .. . ... ... ... : ... .. . ... : ... .. 2 ... : ... .. . ... ... : ... .. 7 ... ... : ... .. 7 ... ... : ... .. . ... ...
ROW B3 : E-3 00 F P80 V02 ... : ... .. . ... ... ... : --- .. . ... : ... .. 0 ... : ... .. . ... ... : --- .. . P82 ... : --- .. . P80 ... : ... .. . ... ...
ROW B4 : ... .. E ... ... ... : ... .. . ... ... ... : ... .. . ... : ... .. . ... : ... .. . ... ... : ... .. . ... ... : ... .. . ... ... : ... .. . ... ...
ROW B5 : ... .. D ... ... ... : ... .. . ... ... ... : ... .. . ... : ... .. . ... : ... .. . ... ... : ... .. . ... ... : ... .. . ... ... : ... .. . ... ...
ROW B6 : ... .. 0 ... V00 ... : ... .. . ... ... ... : ... .. . ... : ... .. . ... : ... .. . ... ... : ... .. . ... ... : ... .. . ... ... : ... .. . ... ...
ROW B7 : ... .. . ... ... ... : ... .. . ... ... ... : ... .. . ... : ... .. . ... : ... .. . ... ... : ... .. . ... ... : ... .. . ... ... : ... .. . ... ...
ROW B8 : F-3 00 F P80 V02 ... : ... .. . ... ... ... : F-3 00 . ... : 3-# 00 F ... : ... .. . ... ... : F-3 01 A P80 ... : G#3 01 A P81 ... : ... .. . ... ...
ROW B9 : ... .. E ... ... ... : ... .. . ... ... ... : ... .. . ... : ... .. C ... : ... .. . ... ... : ... .. 9 ... ... : ... .. 9 ... ... : ... .. . ... ...
ROW BA : ... .. D ... ... ... : ... .. . ... ... ... : ... .. . ... : ... .. 6 ... : ... .. . ... ... : ... .. . ... ... : ... .. . ... ... : ... .. . ... ...
ROW BB : ... .. A ... ... ... : ... .. . ... ... ... : ... .. . ... : ... .. 3 ... : ... .. . ... ... : ... .. 8 ... ... : ... .. 8 ... ... : ... .. . ... ...
ROW BC : ... .. . ... ... ... : ... .. . ... ... ... : ... .. . ... : ... .. 2 ... : ... .. . ... ... : ... .. 7 ... ... : ... .. 7 ... ... : ... .. . ... ...
ROW BD : ... .. 0 ... V00 ... : ... .. . ... ... ... : --- .. . ... : ... .. 0 ... : ... .. . ... ... : ... .. . ... ... : ... .. . ... ... : ... .. . ... ...
ROW BE : ... .. . ... ... ... : ... .. . ... ... ... : ... .. . ... : ... .. . ... : ... .. . ... ... : ... .. 6 ... ... : ... .. 6 ... ... : ... .. . ... ...
ROW BF : ... .. . ... ... ... : ... .. . ... ... ... : ... .. . ... : ... .. . ... : ... .. . ... ... : ... .. . ... ... : ... .. . ... ... : ... .. . ... ...
ROW C0 : ... .. . ... ... ... : ... .. . ... ... ... : ... .. . ... : ... .. . ... : ... .. . ... ... : ... .. . ... ... : ... .. . ... ... : ... .. . ... ...
ROW C1 : ... .. . ... ... ... : ... .. . ... ... ... : ... .. . ... : ... .. . ... : ... .. . ... ... : ... .. . ... ... : ... .. . ... ... : ... .. . ... ...
ROW C2 : ... .. . ... ... ... : ... .. . ... ... ... : G#5 00 . ... : ... .. . ... : ... .. . ... ... : --- .. . ... ... : --- .. . P83 ... : ... .. . ... ...
ROW C3 : ... .. . ... ... ... : ... .. . ... ... ... : ... .. . ... : ... .. . ... : ... .. . ... ... : ... .. . ... ... : ... .. . ... ... : ... .. . ... ...
ROW C4 : ... .. . ... ... ... : ... .. . ... ... ... : ... .. . ... : ... .. . ... : ... .. . ... ... : ... .. . ... ... : ... .. . ... ... : ... .. . ... ...
ROW C5 : ... .. . ... ... ... : ... .. . ... ... ... : ... .. . ... : ... .. . ... : ... .. . ... ... : ... .. . ... ... : ... .. . ... ... : ... .. . ... ...
ROW C6 : ... .. . ... ... ... : ... .. . ... ... ... : ... .. . ... : ... .. . ... : ... .. . ... ... : ... .. . ... ... : ... .. . ... ... : ... .. . ... ...
ROW C7 : ... .. . ... ... ... : ... .. . ... ... ... : --- .. . ... : ... .. . ... : ... .. . ... ... : ... .. . ... ... : ... .. . ... ... : ... .. . ... ...
ROW C8 : ... .. . ... ... ... : ... .. . ... ... ... : ... .. . ... : ... .. . ... : ... .. . ... ... : ... .. . ... ... : ... .. . ... ... : ... .. . ... ...
ROW C9 : ... .. . ... ... ... : ... .. . ... ... ... : ... .. . ... : ... .. . ... : ... .. . ... ... : ... .. . ... ... : ... .. . ... ... : ... .. . ... ...
ROW CA : ... .. . ... ... ... : ... .. . ... ... ... : ... .. . ... : ... .. . ... : ... .. . ... ... : ... .. . ... ... : ... .. . ... ... : ... .. . ... ...
ROW CB : ... .. . ... ... ... : ... .. . ... ... ... : ... .. . ... : ... .. . ... : ... .. . ... ... : ... .. . ... ... : ... .. . ... ... : ... .. . ... ...
ROW CC : ... .. . ... ... ... : ... .. . ... ... ... : E-4 00 . ... : ... .. . ... : ... .. . ... ... : ... .. . ... ... : ... .. . ... ... : ... .. . ... ...
ROW CD : ... .. . ... ... ... : ... .. . ... ... ... : F#3 00 . ... : ... .. . ... : ... .. . ... ... : ... .. . ... ... : ... .. . ... ... : ... .. . ... ...
ROW CE : ... .. . ... ... ... : ... .. . ... ... ... : B-2 00 . ... : ... .. . ... : ... .. . ... ... : ... .. . ... ... : ... .. . ... ... : ... .. . ... ...
ROW CF : ... .. . ... ... ... : ... .. . ... ... ... : A#2 00 . ... : ... .. . ... : ... .. . ... ... : ... .. . ... ... : ... .. . ... ... : ... .. . ... ...
ROW D0 : ... .. . ... ... ... : ... .. . ... ... ... : F-2 00 . ... : ... .. . ... : ... .. . ... ... : ... .. . ... ... : ... .. . ... ... : ... .. . ... ...
ROW D1 : ... .. . ... ... ... : ... .. . ... ... ... : ... .. . ... : ... .. . ... : ... .. . ... ... : ... .. . ... ... : ... .. . ... ... : ... .. . ... ...
ROW D2 : ... .. . ... ... ... : ... .. . ... ... ... : ... .. . ... : ... .. . ... : ... .. . ... ... : ... .. . ... ... : ... .. . ... ... : ... .. . ... ...
ROW D3 : ... .. . ... ... ... : ... .. . ... ... ... : ... .. . ... : ... .. . ... : ... .. . ... ... : ... .. . ... ... : ... .. . ... ... : ... .. . ... ...
ROW D4 : ... .. . ... ... ... : ... .. . ... ... ... : ... .. . ... : ... .. . ... : ... .. . ... ... : ... .. . ... ... : ... .. . ... ... : ... .. . ... ...
ROW D5 : ... .. . ... ... ... : ... .. . ... ... ... : ... .. . ... : ... .. . ... : ... .. . ... ... : ... .. . ... ... : ... .. . ... ... : ... .. . ... ...
ROW D6 : F-4 00 F P80 V02 ... : ... .. . ... ... ... : --- .. . ... : ... .. . ... : ... .. . ... ... : ... .. . ... ... : ... .. . ... ... : ... .. . ... ...
ROW D7 : ... .. E ... ... ... : ... .. . ... ... ... : ... .. . ... : ... .. . ... : ... .. . ... ... : ... .. . ... ... : ... .. . ... ... : ... .. . ... ...
ROW D8 : ... .. D ... ... ... : ... .. . ... ... ... : ... .. . ... : ... .. . ... : ... .. . ... ... : ... .. . ... ... : ... .. . ... ... : ... .. . ... ...
ROW D9 : ... .. A ... ... ... : ... .. . ... ... ... : ... .. . ... : ... .. . ... : ... .. . ... ... : ... .. . ... ... : ... .. . ... ... : ... .. . ... ...
ROW DA : ... .. . ... ... ... : ... .. . ... ... ... : ... .. . ... : ... .. . ... : ... .. . ... ... : ... .. . ... ... : ... .. . ... ... : ... .. . ... ...
ROW DB : G-4 00 F ... ... ... : ... .. . ... ... ... : ... .. . ... : ... .. . ... : ... .. . ... ... : ... .. . ... ... : ... .. . ... ... : ... .. . ... ...
ROW DC : ... .. E ... ... ... : ... .. . ... ... ... : ... .. . ... : ... .. . ... : ... .. . ... ... : ... .. . ... ... : ... .. . ... ... : ... .. . ... ...
ROW DD : ... .. D ... ... ... : ... .. . ... ... ... : ... .. . ... : ... .. . ... : ... .. . ... ... : ... .. . ... ... : ... .. . ... ... : ... .. . ... ...
ROW DE : F-4 00 F ... ... ... : ... .. . ... ... ... : ... .. . ... : ... .. . ... : ... .. . ... ... : ... .. . ... ... : ... .. . ... ... : ... .. . ... ...
ROW DF : ... .. E ... ... ... : ... .. . ... ... ... : ... .. . ... : ... .. . ... : ... .. . ... ... : ... .. . ... ... : ... .. . ... ... : ... .. . ... ...
ROW E0 : E-4 00 F ... ... ... : ... .. . ... ... ... : B-3 00 . ... : ... .. F ... : ... .. . ... ... : C-3 01 A ... ... : G-3 01 A P81 ... : ... .. . ... ...
ROW E1 : ... .. E ... ... ... : ... .. . ... ... ... : C#3 00 . ... : ... .. C ... : ... .. . ... ... : ... .. 9 ... ... : ... .. 9 ... ... : ... .. . ... ...
ROW E2 : ... .. D ... ... ... : ... .. . ... ... ... : F#2 00 . ... : ... .. 6 ... : ... .. . ... ... : ... .. . ... ... : ... .. . ... ... : ... .. . ... ...
ROW E3 : ... .. A ... ... ... : ... .. . ... ... ... : F-2 00 . ... : ... .. 3 ... : ... .. . ... ... : ... .. 8 ... ... : ... .. 8 ... ... : ... .. . ... ...
ROW E4 : ... .. . ... ... ... : ... .. . ... ... ... : C-2 00 . ... : ... .. 2 ... : ... .. . ... ... : ... .. 7 ... ... : ... .. 7 ... ... : ... .. . ... ...
ROW E5 : ... .. 0 ... V00 ... : ... .. . ... ... ... : ... .. . ... : ... .. 0 ... : ... .. . ... ... : A#2 01 A ... ... : E-3 01 A ... ... : ... .. . ... ...
ROW E6 : ... .. . ... ... ... : ... .. . ... ... ... : ... .. . ... : ... .. . ... : ... .. . ... ... : ... .. 9 ... ... : ... .. 9 ... ... : ... .. . ... ...
ROW E7 : ... .. . ... ... ... : ... .. . ... ... ... : ... .. . ... : ... .. . ... : ... .. . ... ... : ... .. . ... ... : ... .. . ... ... : ... .. . ... ...
ROW E8 : ... .. . ... ... ... : ... .. . ... ... ... : ... .. . ... : ... .. . ... : ... .. . ... ... : ... .. 8 ... ... : ... .. 8 ... ... : ... .. . ... ...
ROW E9 : ... .. . ... ... ... : ... .. . ... ... ... : ... .. . ... : ... .. . ... : ... .. . ... ... : ... .. 7 ... ... : ... .. 7 ... ... : ... .. . ... ...
ROW EA : E-4 00 F P80 V02 ... : ... .. . ... ... ... : ... .. . ... : D-# 00 F ... : ... .. . ... ... : C-3 01 A ... ... : G-3 01 A ... ... : ... .. . ... ...
ROW EB : ... .. E ... ... ... : ... .. . ... ... ... : ... .. . ... : ... .. C ... : ... .. . ... ... : ... .. 9 ... ... : ... .. 9 ... ... : ... .. . ... ...
ROW EC : ... .. D ... ... ... : ... .. . ... ... ... : ... .. . ... : ... .. 6 ... : ... .. . ... ... : ... .. . ... ... : ... .. . ... ... : ... .. . ... ...
ROW ED : ... .. 0 ... V00 ... : ... .. . ... ... ... : ... .. . ... : ... .. 3 ... : ... .. . ... ... : ... .. 8 ... ... : ... .. 8 ... ... : ... .. . ... ...
ROW EE : ... .. . ... ... ... : ... .. . ... ... ... : ... .. . ... : ... .. 2 ... : ... .. . ... ... : ... .. 7 ... ... : ... .. 7 ... ... : ... .. . ... ...
ROW EF : F-4 00 F P80 V02 ... : ... .. . ... ... ... : ... .. . ... : ... .. F ... : ... .. . ... ... : A#2 01 A ... ... : E-3 01 A ... ... : ... .. . ... ...
ROW F0 : ... .. E ... ... ... : ... .. . ... ... ... : ... .. . ... : ... .. C ... : ... .. . ... ... : ... .. 9 ... ... : ... .. 9 ... ... : ... .. . ... ...
ROW F1 : ... .. D ... ... ... : ... .. . ... ... ... : ... .. . ... : ... .. 6 ... : ... .. . ... ... : ... .. . ... ... : ... .. . ... ... : ... .. . ... ...
ROW F2 : ... .. 0 ... V00 ... : ... .. . ... ... ... : ... .. . ... : ... .. 3 ... : ... .. . ... ... : ... .. 8 ... ... : ... .. 8 ... ... : ... .. . ... ...
ROW F3 : ... .. . ... ... ... : ... .. . ... ... ... : ... .. . ... : ... .. 2 ... : ... .. . ... ... : ... .. 7 ... ... : ... .. 7 ... ... : ... .. . ... ...
ROW F4 : G-4 00 F P80 V02 ... : ... .. . ... ... ... : ... .. . ... : 6-# 00 F ... : ... .. . ... ... : C-3 01 A ... ... : G-3 01 A ... ... : ... .. . ... ...
ROW F5 : ... .. E ... ... ... : ... .. . ... ... ... : ... .. . ... : ... .. C ... : ... .. . ... ... : ... .. 9 ... ... : ... .. 9 ... ... : ... .. . ... ...
ROW F6 : ... .. D ... ... ... : ... .. . ... ... ... : ... .. . ... : ... .. 6 ... : ... .. . ... ... : ... .. . ... ... : ... .. . ... ... : ... .. . ... ...
ROW F7 : ... .. A ... ... ... : ... .. . ... ... ... : ... .. . ... : ... .. 3 ... : ... .. . ... ... : ... .. 8 ... ... : ... .. 8 ... ... : ... .. . ... ...
ROW F8 : ... .. . ... ... ... : ... .. . ... ... ... : ... .. . ... : ... .. 2 ... : ... .. . ... ... : ... .. 7 ... ... : ... .. 7 ... ... : ... .. . ... ...
ROW F9 : ... .. 0 ... V00 ... : ... .. . ... ... ... : ... .. . ... : ... .. 0 ... : ... .. . ... ... : A#2 01 A ... ... : E-3 01 A ... ... : ... .. . ... ...
ROW FA : ... .. . ... ... ... : ... .. . ... ... ... : ... .. . ... : ... .. . ... : ... .. . ... ... : ... .. 9 ... ... : ... .. 9 ... ... : ... .. . ... ...
ROW FB : ... .. . ... ... ... : ... .. . ... ... ... : ... .. . ... : ... .. . ... : ... .. . ... ... : ... .. . ... ... : ... .. . ... ... : ... .. . ... ...
ROW FC : ... .. . ... ... ... : ... .. . ... ... ... : ... .. . ... : ... .. . ... : ... .. . ... ... : ... .. 8 ... ... : ... .. 8 ... ... : ... .. . ... ...
ROW FD : ... .. . ... ... ... : ... .. . ... ... ... : ... .. . ... : ... .. . ... : ... .. . ... ... : ... .. 7 ... ... : ... .. 7 ... ... : ... .. . ... ...
ROW FE : E-4 00 F P80 V02 ... : ... .. . ... ... ... : ... .. . ... : D-# 00 F ... : ... .. . ... ... : C-3 01 A ... ... : G-3 01 A ... ... : ... .. . ... ...
ROW FF : ... .. E ... ... ... : ... .. . ... ... ... : ... .. . ... : ... .. C ... : ... .. . ... ... : ... .. 9 ... ... : ... .. 9 ... ... : ... .. . ... ...

PATTERN 16
ROW 00 : ... .. D ... ... ... : ... .. . ... ... ... : ... .. . ... : ... .. 6 ... : ... .. . ... ... : ... .. . ... ... : ... .. . ... ... : ... .. . ... ...
ROW 01 : ... .. A ... ... ... : ... .. . ... ... ... : ... .. . ... : ... .. 3 ... : ... .. . ... ... : ... .. 8 ... ... : ... .. 8 ... ... : ... .. . ... ...
ROW 02 : ... .. . ... ... ... : ... .. . ... ... ... : ... .. . ... : ... .. 2 ... : ... .. . ... ... : ... .. 7 ... ... : ... .. 7 ... ... : ... .. . ... ...
ROW 03 : ... .. 0 ... V00 ... : ... .. . ... ... ... : ... .. . ... : ... .. F ... : ... .. . ... ... : A#2 01 A ... ... : E-3 01 A ... ... : ... .. . ... ...
ROW 04 : ... .. . ... ... ... : ... .. . ... ... ... : ... .. . ... : ... .. C ... : ... .. . ... ... : ... .. 9 ... ... : ... .. 9 ... ... : ... .. . ... ...
ROW 05 : ... .. . ... ... ... : ... .. . ... ... ... : ... .. . ... : ... .. 6 ... : ... .. . ... ... : ... .. . ... ... : ... .. . ... ... : ... .. . ... ...
ROW 06 : ... .. . ... ... ... : ... .. . ... ... ... : ... .. . ... : ... .. 3 ... : ... .. . ... ... : ... .. 8 ... ... : ... .. 8 ... ... : ... .. . ... ...
ROW 07 : ... .. . ... ... ... : ... .. . ... ... ... : ... .. . ... : ... .. 2 ... : ... .. . ... ... : ... .. 7 ... ... : ... .. 7 ... ... : ... .. . ... ...
ROW 08 : F-4 00 F P80 V02 ... : ... .. . ... ... ... : B-4 00 . ... : 3-# 00 F ... : ... .. . ... ... : C-3 01 A ... ... : G#3 01 A ... ... : ... .. . ... ...
ROW 09 : ... .. E ... ... ... : ... .. . ... ... ... : C#4 00 . ... : ... .. C ... : ... .. . ... ... : ... .. 9 ... ... : ... .. 9 ... ... : ... .. . ... ...
ROW 0A : ... .. D ... ... ... : ... .. . ... ... ... : F#3 00 . ... : ... .. 6 ... : ... .. . ... ... : ... .. . ... ... : ... .. . ... ... : ... .. . ... ...
ROW 0B : ... .. A ... ... ... : ... .. . ... ... ... : F-3 00 . ... : ... .. 3 ... : ... .. . ... ... : ... .. 8 ... ... : ... .. 8 ... ... : ... .. . ... ...
ROW 0C : ... .. . ... ... ... : ... .. . ... ... ... : C-3 00 . ... : ... .. 2 ... : ... .. . ... ... : ... .. 7 ... ... : ... .. 7 ... ... : ... .. . ... ...
ROW 0D : ... .. 0 ... V00 ... : ... .. . ... ... ... : ... .. . ... : ... .. 0 ... : ... .. . ... ... : G#2 01 A ... ... : F-3 01 A ... ... : ... .. . ... ...
ROW 0E : ... .. . ... ... ... : ... .. . ... ... ... : ... .. . ... : ... .. . ... : ... .. . ... ... : ... .. 9 ... ... : ... .. 9 ... ... : ... .. . ... ...
ROW 0F : ... .. . ... ... ... : ... .. . ... ... ... : ... .. . ... : ... .. . ... : ... .. . ... ... : ... .. . ... ... : ... .. . ... ... : ... .. . ... ...
ROW 10 : ... .. . ... ... ... : ... .. . ... ... ... : ... .. . ... : ... .. . ... : ... .. . ... ... : ... .. 8 ... ... : ... .. 8 ... ... : ... .. . ... ...
ROW 11 : ... .. . ... ... ... : ... .. . ... ... ... : ... .. . ... : ... .. . ... : ... .. . ... ... : ... .. 7 ... ... : ... .. 7 ... ... : ... .. . ... ...
ROW 12 : F-4 00 F P80 V02 ... : ... .. . ... ... ... : ... .. . ... : D-# 00 F ... : ... .. . ... ... : C-3 01 A ... ... : G#3 01 A ... ... : ... .. . ... ...
ROW 13 : ... .. E ... ... ... : ... .. . ... ... ... : ... .. . ... : ... .. C ... : ... .. . ... ... : ... .. 9 ... ... : ... .. 9 ... ... : ... .. . ... ...
ROW 14 : ... .. D ... ... ... : ... .. . ... ... ... : ... .. . ... : ... .. 6 ... : ... .. . ... ... : ... .. . ... ... : ... .. . ... ... : ... .. . ... ...
ROW 15 : ... .. 0 ... V00 ... : ... .. . ... ... ... : ... .. . ... : ... .. 3 ... : ... .. . ... ... : ... .. 8 ... ... : ... .. 8 ... ... : ... .. . ... ...
ROW 16 : ... .. . ... ... ... : ... .. . ... ... ... : ... .. . ... : ... .. 2 ... : ... .. . ... ... : ... .. 7 ... ... : ... .. 7 ... ... : ... .. . ... ...
ROW 17 : G-4 00 F P80 V02 ... : ... .. . ... ... ... : ... .. . ... : ... .. F ... : ... .. . ... ... : G#2 01 A ... ... : F-3 01 A ... ... : ... .. . ... ...
ROW 18 : ... .. E ... ... ... : ... .. . ... ... ... : ... .. . ... : ... .. C ... : ... .. . ... ... : ... .. 9 ... ... : ... .. 9 ... ... : ... .. . ... ...
ROW 19 : ... .. D ... ... ... : ... .. . ... ... ... : ... .. . ... : ... .. 6 ... : ... .. . ... ... : ... .. . ... ... : ... .. . ... ... : ... .. . ... ...
ROW 1A : ... .. 0 ... V00 ... : ... .. . ... ... ... : ... .. . ... : ... .. 3 ... : ... .. . ... ... : ... .. 8 ... ... : ... .. 8 ... ... : ... .. . ... ...
ROW 1B : ... .. . ... ... ... : ... .. . ... ... ... : ... .. . ... : ... .. 2 ... : ... .. . ... ... : ... .. 7 ... ... : ... .. 7 ... ... : ... .. . ... ...
ROW 1C : G#4 00 F P80 V02 ... : ... .. . ... ... ... : ... .. . ... : 6-# 00 F ... : ... .. . ... ... : C-3 01 A ... ... : G#3 01 A ... ... : ... .. . ... ...
ROW 1D : ... .. E ... ... ... : ... .. . ... ... ... : ... .. . ... : ... .. C ... : ... .. . ... ... : ... .. 9 ... ... : ... .. 9 ... ... : ... .. . ... ...
ROW 1E : ... .. D ... ... ... : ... .. . ... ... ... : ... .. . ... : ... .. 6 ... : ... .. . ... ... : ... .. . ... ... : ... .. . ... ... : ... .. . ... ...
ROW 1F : ... .. A ... ... ... : ... .. . ... ... ... : ... .. . ... : ... .. 3 ... : ... .. . ... ... : ... .. 8 ... ... : ... .. 8 ... ... : ... .. . ... ...
ROW 20 : ... .. . ... ... ... : ... .. . ... ... ... : ... .. . ... : ... .. 2 ... : ... .. . ... ... : ... .. 7 ... ... : ... .. 7 ... ... : ... .. . ... ...
ROW 21 : ... .. 0 ... V00 ... : ... .. . ... ... ... : ... .. . ... : ... .. 0 ... : ... .. . ... ... : G#2 01 A ... ... : F-3 01 A ... ... : ... .. . ... ...
ROW 22 : ... .. . ... ... ... : ... .. . ... ... ... : ... .. . ... : ... .. . ... : ... .. . ... ... : ... .. 9 ... ... : ... .. 9 ... ... : ... .. . ... ...
ROW 23 : ... .. . ... ... ... : ... .. . ... ... ... : ... .. . ... : ... .. . ... : ... .. . ... ... : ... .. . ... ... : ... .. . ... ... : ... .. . ... ...
ROW 24 : ... .. . ... ... ... : ... .. . ... ... ... : ... .. . ... : ... .. . ... : ... .. . ... ... : ... .. 8 ... ... : ... .. 8 ... ... : ... .. . ... ...
ROW 25 : ... .. . ... ... ... : ... .. . ... ... ... : ... .. . ... : ... .. . ... : ... .. . ... ... : ... .. 7 ... ... : ... .. 7 ... ... : ... .. . ... ...
ROW 26 : F-4 00 F P80 V02 ... : ... .. . ... ... ... : ... .. . ... : D-# 00 F ... : ... .. . ... ... : C-3 01 A ... ... : G#3 01 A ... ... : ... .. . ... ...
ROW 27 : ... .. E ... ... ... : ... .. . ... ... ... : ... .. . ... : ... .. C ... : ... .. . ... ... : ... .. 9 ... ... : ... .. 9 ... ... : ... .. . ... ...
ROW 28 : ... .. D ... ... ... : ... .. . ... ... ... : ... .. . ... : ... .. 6 ... : ... .. . ... ... : ... .. . ... ... : ... .. . ... ... : ... .. . ... ...
ROW 29 : ... .. A ... ... ... : ... .. . ... ... ... : ... .. . ... : ... .. 3 ... : ... .. . ... ... : ... .. 8 ... ... : ... .. 8 ... ... : ... .. . ... ...
ROW 2A : ... .. . ... ... ... : ... .. . ... ... ... : ... .. . ... : ... .. 2 ... : ... .. . ... ... : ... .. 7 ... ... : ... .. 7 ... ... : ... .. . ... ...
ROW 2B : ... .. 0 ... V00 ... : ... .. . ... ... ... : ... .. . ... : ... .. 0 ... : ... .. . ... ... : G#2 01 A ... ... : F-3 01 A ... ... : ... .. . ... ...
ROW 2C : ... .. . ... ... ... : ... .. . ... ... ... : ... .. . ... : ... .. . ... : ... .. . ... ... : ... .. 9 ... ... : ... .. 9 ... ... : ... .. . ... ...
ROW 2D : ... .. . ... ... ... : ... .. . ... ... ... : ... .. . ... : ... .. . ... : ... .. . ... ... : ... .. . ... ... : ... .. . ... ... : ... .. . ... ...
ROW 2E : ... .. . ... ... ... : ... .. . ... ... ... : ... .. . ... : ... .. . ... : ... .. . ... ... : ... .. 8 ... ... : ... .. 8 ... ... : ... .. . ... ...
ROW 2F : ... .. . ... ... ... : ... .. . ... ... ... : ... .. . ... : ... .. . ... : ... .. . ... ... : ... .. 7 ... ... : ... .. 7 ... ... : ... .. . ... ...
ROW 30 : G-4 00 F P80 V02 ... : ... .. . ... ... ... : A-5 00 . ... : 3-# 00 F ... : ... .. . ... ... : D#3 01 A ... ... : A#3 01 A ... ... : ... .. . ... ...
ROW 31 : ... .. E ... ... ... : ... .. . ... ... ... : B-4 00 . ... : ... .. C ... : ... .. . ... ... : ... .. 9 ... ... : ... .. 9 ... ... : ... .. . ... ...
ROW 32 : ... .. D ... ... ... : ... .. . ... ... ... : E-4 00 . ... : ... .. 6 ... : ... .. . ... ... : ... .. . ... ... : ... .. . ... ... : ... .. . ... ...
ROW 33 : ... .. A ... ... ... : ... .. . ... ... ... : D#4 00 . ... : ... .. 3 ... : ... .. . ... ... : ... .. 8 ... ... : ... .. 8 ... ... : ... .. . ... ...
ROW 34 : ... .. . ... ... ... : ... .. . ... ... ... : A#3 00 . ... : ... .. 2 ... : ... .. . ... ... : ... .. 7 ... ... : ... .. 7 ... ... : ... .. . ... ...
ROW 35 : ... .. . ... ... ... : ... .. . ... ... ... : ... .. . ... : ... .. 0 ... : ... .. . ... ... : A#2 01 A ... ... : G-3 01 A ... ... : ... .. . ... ...
ROW 36 : ... .. . ... ... ... : ... .. . ... ... ... : ... .. . ... : ... .. . ... : ... .. . ... ... : ... .. 9 ... ... : ... .. 9 ... ... : ... .. . ... ...
ROW 37 : ... .. . ... ... ... : ... .. . ... ... ... : ... .. . ... : ... .. . ... : ... .. . ... ... : ... .. . ... ... : ... .. . ... ... : ... .. . ... ...
ROW 38 : ... .. . ... ... ... : ... .. . ... ... ... : ... .. . ... : ... .. . ... : ... .. . ... ... : ... .. 8 ... ... : ... .. 8 ... ... : ... .. . ... ...
ROW 39 : ... .. . ... ... ... : ... .. . ... ... ... : ... .. . ... : ... .. . ... : ... .. . ... ... : ... .. 7 ... ... : ... .. 7 ... ... : ... .. . ... ...
ROW 3A : ... .. F ... ... ... : ... .. . ... ... ... : ... .. . ... : D-# 00 F ... : ... .. . ... ... : D#3 01 A ... ... : A#3 01 A ... ... : ... .. . ... ...
ROW 3B : ... .. E ... ... ... : ... .. . ... ... ... : ... .. . ... : ... .. C ... : ... .. . ... ... : ... .. 9 ... ... : ... .. 9 ... ... : ... .. . ... ...
ROW 3C : ... .. D ... ... ... : ... .. . ... ... ... : ... .. . ... : ... .. 6 ... : ... .. . ... ... : ... .. . ... ... : ... .. . ... ... : ... .. . ... ...
ROW 3D : ... .. 0 ... V00 ... : ... .. . ... ... ... : ... .. . ... : ... .. 3 ... : ... .. . ... ... : ... .. 8 ... ... : ... .. 8 ... ... : ... .. . ... ...
ROW 3E : ... .. . ... ... ... : ... .. . ... ... ... : ... .. . ... : ... .. 2 ... : ... .. . ... ... : ... .. 7 ... ... : ... .. 7 ... ... : ... .. . ... ...
ROW 3F : G#4 00 F P80 V02 ... : ... .. . ... ... ... : ... .. . ... : ... .. F ... : ... .. . ... ... : A#2 01 A ... ... : G-3 01 A ... ... : ... .. . ... ...
ROW 40 : ... .. E ... ... ... : ... .. . ... ... ... : ... .. . ... : ... .. C ... : ... .. . ... ... : ... .. 9 ... ... : ... .. 9 ... ... : ... .. . ... ...
ROW 41 : ... .. D ... ... ... : ... .. . ... ... ... : ... .. . ... : ... .. 6 ... : ... .. . ... ... : ... .. . ... ... : ... .. . ... ... : ... .. . ... ...
ROW 42 : ... .. 0 ... V00 ... : ... .. . ... ... ... : ... .. . ... : ... .. 3 ... : ... .. . ... ... : ... .. 8 ... ... : ... .. 8 ... ... : ... .. . ... ...
ROW 43 : ... .. . ... ... ... : ... .. . ... ... ... : ... .. . ... : ... .. 2 ... : ... .. . ... ... : ... .. 7 ... ... : ... .. 7 ... ... : ... .. . ... ...
ROW 44 : A#4 00 F P80 V02 ... : ... .. . ... ... ... : D#4 00 . ... : 6-# 00 F ... : ... .. . ... ... : D#3 01 A ... ... : A#3 01 A ... ... : ... .. . ... ...
ROW 45 : ... .. E ... ... ... : ... .. . ... ... ... : ... .. . ... : ... .. C ... : ... .. . ... ... : ... .. 9 ... ... : ... .. 9 ... ... : ... .. . ... ...
ROW 46 : ... .. D ... ... ... : ... .. . ... ... ... : ... .. . ... : ... .. 6 ... : ... .. . ... ... : ... .. . ... ... : ... .. . ... ... : ... .. . ... ...
ROW 47 : ... .. A ... ... ... : ... .. . ... ... ... : --- .. . ... : ... .. 3 ... : ... .. . ... ... : ... .. 8 ... ... : ... .. 8 ... ... : ... .. . ... ...
ROW 48 : ... .. . ... ... ... : ... .. . ... ... ... : ... .. . ... : ... .. 2 ... : ... .. . ... ... : ... .. 7 ... ... : ... .. 7 ... ... : ... .. . ... ...
ROW 49 : ... .. 0 ... V00 ... : ... .. . ... ... ... : C#4 00 . ... : ... .. 0 ... : ... .. . ... ... : A#2 01 A ... ... : G-3 01 A ... ... : ... .. . ... ...
ROW 4A : ... .. . ... ... ... : ... .. . ... ... ... : ... .. . ... : ... .. . ... : ... .. . ... ... : ... .. 9 ... ... : ... .. 9 ... ... : ... .. . ... ...
ROW 4B : ... .. . ... ... ... : ... .. . ... ... ... : ... .. . ... : ... .. . ... : ... .. . ... ... : ... .. . ... ... : ... .. . ... ... : ... .. . ... ...
ROW 4C : ... .. . ... ... ... : ... .. . ... ... ... : --- .. . ... : ... .. . ... : ... .. . ... ... : ... .. 8 ... ... : ... .. 8 ... ... : ... .. . ... ...
ROW 4D : ... .. . ... ... ... : ... .. . ... ... ... : ... .. . ... : ... .. . ... : ... .. . ... ... : ... .. 7 ... ... : ... .. 7 ... ... : ... .. . ... ...
ROW 4E : D#4 00 F P80 V02 ... : ... .. . ... ... ... : C-4 00 . ... : D-# 00 F ... : ... .. . ... ... : D#3 01 A ... ... : A#3 01 A ... ... : ... .. . ... ...
ROW 4F : ... .. E ... ... ... : ... .. . ... ... ... : ... .. . ... : ... .. C ... : ... .. . ... ... : ... .. 9 ... ... : ... .. 9 ... ... : ... .. . ... ...
ROW 50 : ... .. D ... ... ... : ... .. . ... ... ... : ... .. . ... : ... .. 6 ... : ... .. . ... ... : ... .. . ... ... : ... .. . ... ... : ... .. . ... ...
ROW 51 : ... .. A ... ... ... : ... .. . ... ... ... : --- .. . ... : ... .. 3 ... : ... .. . ... ... : ... .. 8 ... ... : ... .. 8 ... ... : ... .. . ... ...
ROW 52 : ... .. . ... ... ... : ... .. . ... ... ... : ... .. . ... : ... .. 2 ... : ... .. . ... ... : ... .. 7 ... ... : ... .. 7 ... ... : ... .. . ... ...
ROW 53 : ... .. 0 ... V00 ... : ... .. . ... ... ... : A#3 00 . ... : ... .. 0 ... : ... .. . ... ... : A#2 01 A ... ... : G-3 01 A ... ... : ... .. . ... ...
ROW 54 : ... .. . ... ... ... : ... .. . ... ... ... : ... .. . ... : ... .. . ... : ... .. . ... ... : ... .. 9 ... ... : ... .. 9 ... ... : ... .. . ... ...
ROW 55 : ... .. . ... ... ... : ... .. . ... ... ... : ... .. . ... : ... .. . ... : ... .. . ... ... : ... .. . ... ... : ... .. . ... ... : ... .. . ... ...
ROW 56 : ... .. . ... ... ... : ... .. . ... ... ... : --- .. . ... : ... .. . ... : ... .. . ... ... : ... .. 8 ... ... : ... .. 8 ... ... : ... .. . ... ...
ROW 57 : ... .. . ... ... ... : ... .. . ... ... ... : ... .. . ... : ... .. . ... : ... .. . ... ... : ... .. 7 ... ... : ... .. 7 ... ... : ... .. . ... ...
ROW 58 : D#5 00 F P80 V02 ... : ... .. . ... ... ... : G#3 00 . ... : 3-# 00 F ... : ... .. . ... ... : D#3 01 A ... ... : C-4 01 A ... ... : ... .. . ... ...
ROW 59 : ... .. E ... ... ... : ... .. . ... ... ... : ... .. . ... : ... .. C ... : ... .. . ... ... : ... .. 9 ... ... : ... .. 9 ... ... : ... .. . ... ...
ROW 5A : ... .. D ... ... ... : ... .. . ... ... ... : ... .. . ... : ... .. 6 ... : ... .. . ... ... : ... .. . ... ... : ... .. . ... ... : ... .. . ... ...
ROW 5B : ... .. A ... ... ... : ... .. . ... ... ... : ... .. . ... : ... .. 3 ... : ... .. . ... ... : ... .. 8 ... ... : ... .. 8 ... ... : ... .. . ... ...
ROW 5C : ... .. . ... ... ... : ... .. . ... ... ... : ... .. . ... : ... .. 2 ... : ... .. . ... ... : --- .. . P83 ... : ... .. 7 ... ... : ... .. . ... ...
ROW 5D : ... .. . ... ... ... : ... .. . ... ... ... : --- .. . ... : ... .. 0 ... : ... .. . ... ... : G#3 01 A P80 ... : ... .. . ... ... : ... .. . ... ...
ROW 5E : ... .. . ... ... ... : ... .. . ... ... ... : ... .. . ... : ... .. . ... : ... .. . ... ... : ... .. 9 ... ... : ... .. 6 ... ... : ... .. . ... ...
ROW 5F : ... .. . ... ... ... : ... .. . ... ... ... : ... .. . ... : ... .. . ... : ... .. . ... ... : ... .. . ... ... : ... .. . ... ... : ... .. . ... ...
ROW 60 : ... .. . ... ... ... : ... .. . ... ... ... : ... .. . ... : ... .. . ... : ... .. . ... ... : ... .. 8 ... ... : ... .. . ... ... : ... .. . ... ...
ROW 61 : ... .. . ... ... ... : ... .. . ... ... ... : ... .. . ... : ... .. . ... : ... .. . ... ... : --- .. . P82 ... : ... .. . ... ... : ... .. . ... ...
ROW 62 : D#4 00 F ... ... ... : ... .. . ... ... ... : C-5 00 . ... : D-# 00 F ... : ... .. . ... ... : D#3 01 A P80 ... : D#4 01 A ... ... : ... .. . ... ...
ROW 63 : ... .. E ... ... ... : ... .. . ... ... ... : ... .. . ... : ... .. C ... : ... .. . ... ... : ... .. 9 ... ... : ... .. 9 ... ... : ... .. . ... ...
ROW 64 : ... .. D ... ... ... : ... .. . ... ... ... : ... .. . ... : ... .. 6 ... : ... .. . ... ... : ... .. . ... ... : ... .. . ... ... : ... .. . ... ...
ROW 65 : ... .. A ... ... ... : ... .. . ... ... ... : ... .. . ... : ... .. 3 ... : ... .. . ... ... : ... .. 8 ... ... : ... .. 8 ... ... : ... .. . ... ...
ROW 66 : ... .. . ... ... ... : ... .. . ... ... ... : ... .. . ... : ... .. 2 ... : ... .. . ... ... : --- .. . P83 ... : ... .. 7 ... ... : ... .. . ... ...
ROW 67 : ... .. 0 ... V00 ... : ... .. . ... ... ... : --- .. . ... : ... .. F ... : ... .. . ... ... : G#3 01 A P80 ... : C-4 01 A ... ... : ... .. . ... ...
ROW 68 : ... .. . ... ... ... : ... .. . ... ... ... : ... .. . ... : ... .. C ... : ... .. . ... ... : ... .. 9 ... ... : ... .. 9 ... ... : ... .. . ... ...
ROW 69 : ... .. . ... ... ... : ... .. . ... ... ... : ... .. . ... : ... .. 6 ... : ... .. . ... ... : ... .. . ... ... : ... .. . ... ... : ... .. . ... ...
ROW 6A : ... .. . ... ... ... : ... .. . ... ... ... : ... .. . ... : ... .. 3 ... : ... .. . ... ... : ... .. 8 ... ... : ... .. 8 ... ... : ... .. . ... ...
ROW 6B : ... .. . ... ... ... : ... .. . ... ... ... : ... .. . ... : ... .. 2 ... : ... .. . ... ... : --- .. . P82 ... : ... .. 7 ... ... : ... .. . ... ...
ROW 6C : D-5 00 F P80 V02 ... : ... .. . ... ... ... : G-3 00 . ... : 6-# 00 F ... : ... .. . ... ... : D-3 01 A P80 ... : B-3 01 A ... ... : ... .. . ... ...
ROW 6D : ... .. E ... ... ... : ... .. . ... ... ... : ... .. . ... : ... .. C ... : ... .. . ... ... : ... .. 9 ... ... : ... .. 9 ... ... : ... .. . ... ...
ROW 6E : ... .. D ... ... ... : ... .. . ... ... ... : ... .. . ... : ... .. 6 ... : ... .. . ... ... : ... .. . ... ... : ... .. . ... ... : ... .. . ... ...
ROW 6F : ... .. A ... ... ... : ... .. . ... ... ... : ... .. . ... : ... .. 3 ... : ... .. . ... ... : ... .. 8 ... ... : ... .. 8 ... ... : ... .. . ... ...
ROW 70 : ... .. . ... ... ... : ... .. . ... ... ... : ... .. . ... : ... .. 2 ... : ... .. . ... ... : --- .. . P82 ... : ... .. 7 ... ... : ... .. . ... ...
ROW 71 : ... .. . ... ... ... : ... .. . ... ... ... : --- .. . ... : ... .. 0 ... : ... .. . ... ... : G-3 01 A P80 ... : ... .. . ... ... : ... .. . ... ...
ROW 72 : ... .. . ... ... ... : ... .. . ... ... ... : ... .. . ... : ... .. . ... : ... .. . ... ... : ... .. 9 ... ... : ... .. 6 ... ... : ... .. . ... ...
ROW 73 : ... .. . ... ... ... : ... .. . ... ... ... : ... .. . ... : ... .. . ... : ... .. . ... ... : ... .. . ... ... : ... .. . ... ... : ... .. . ... ...
ROW 74 : ... .. . ... ... ... : ... .. . ... ... ... : ... .. . ... : ... .. . ... : ... .. . ... ... : ... .. 8 ... ... : ... .. . ... ... : ... .. . ... ...
ROW 75 : ... .. . ... ... ... : ... .. . ... ... ... : ... .. . ... : ... .. . ... : ... .. . ... ... : --- .. . P81 ... : ... .. . ... ... : ... .. . ... ...
ROW 76 : D-4 00 F ... ... ... : ... .. . ... ... ... : B-4 00 . ... : D-# 00 F ... : ... .. . ... ... : D-3 01 A P80 ... : D-4 01 A ... ... : ... .. . ... ...
ROW 77 : ... .. E ... ... ... : ... .. . ... ... ... : ... .. . ... : ... .. C ... : ... .. . ... ... : ... .. 9 ... ... : ... .. 9 ... ... : ... .. . ... ...
ROW 78 : ... .. D ... ... ... : ... .. . ... ... ... : ... .. . ... : ... .. 6 ... : ... .. . ... ... : ... .. . ... ... : ... .. . ... ... : ... .. . ... ...
ROW 79 : ... .. A ... ... ... : ... .. . ... ... ... : ... .. . ... : ... .. 3 ... : ... .. . ... ... : ... .. 8 ... ... : ... .. 8 ... ... : ... .. . ... ...
ROW 7A : ... .. . ... ... ... : ... .. . ... ... ... : ... .. . ... : ... .. 2 ... : ... .. . ... ... : --- .. . P82 ... : ... .. 7 ... ... : ... .. . ... ...
ROW 7B : ... .. 0 ... V00 ... : ... .. . ... ... ... : --- .. . ... : ... .. F ... : ... .. . ... ... : G-3 01 A P80 ... : B-3 01 A ... ... : ... .. . ... ...
ROW 7C : ... .. . ... ... ... : ... .. . ... ... ... : ... .. . ... : ... .. C ... : ... .. . ... ... : ... .. 9 ... ... : ... .. 9 ... ... : ... .. . ... ...
ROW 7D : ... .. . ... ... ... : ... .. . ... ... ... : ... .. . ... : ... .. 6 ... : ... .. . ... ... : ... .. . ... ... : ... .. . ... ... : ... .. . ... ...
ROW 7E : ... .. . ... ... ... : ... .. . ... ... ... : ... .. . ... : ... .. 3 ... : ... .. . ... ... : ... .. 8 ... ... : ... .. 8 ... ... : ... .. . ... ...
ROW 7F : ... .. . ... ... ... : ... .. . ... ... ... : ... .. . ... : ... .. 2 ... : ... .. . ... ... : --- .. . P81 ... : ... .. 7 ... ... : ... .. . ... ...
ROW 80 : C#5 00 F P80 V02 ... : ... .. . ... ... ... : F#3 00 . ... : 3-# 00 F ... : ... .. . ... ... : C#3 01 A P80 ... : A#3 01 A ... ... : ... .. . ... ...
ROW 81 : ... .. E ... ... ... : ... .. . ... ... ... : ... .. . ... : ... .. C ... : ... .. . ... ... : ... .. 9 ... ... : ... .. 9 ... ... : ... .. . ... ...
ROW 82 : ... .. D ... ... ... : ... .. . ... ... ... : ... .. . ... : ... .. 6 ... : ... .. . ... ... : ... .. . ... ... : ... .. . ... ... : ... .. . ... ...
ROW 83 : ... .. A ... ... ... : ... .. . ... ... ... : ... .. . ... : ... .. 3 ... : ... .. . ... ... : ... .. 8 ... ... : ... .. 8 ... ... : ... .. . ... ...
ROW 84 : ... .. . ... ... ... : ... .. . ... ... ... : ... .. . ... : ... .. 2 ... : ... .. . ... ... : --- .. . P83 ... : ... .. 7 ... ... : ... .. . ... ...
ROW 85 : ... .. 0 ... V00 ... : ... .. . ... ... ... : --- .. . ... : ... .. 0 ... : ... .. . ... ... : F#3 01 A P80 ... : ... .. . ... ... : ... .. . ... ...
ROW 86 : ... .. . ... ... ... : ... .. . ... ... ... : ... .. . ... : ... .. . ... : ... .. . ... ... : ... .. 9 ... ... : ... .. 6 ... ... : ... .. . ... ...
ROW 87 : ... .. . ... ... ... : ... .. . ... ... ... : ... .. . ... : ... .. . ... : ... .. . ... ... : ... .. . ... ... : ... .. . ... ... : ... .. . ... ...
ROW 88 : ... .. . ... ... ... : ... .. . ... ... ... : ... .. . ... : ... .. . ... : ... .. . ... ... : ... .. 8 ... ... : ... .. . ... ... : ... .. . ... ...
ROW 89 : ... .. . ... ... ... : ... .. . ... ... ... : ... .. . ... : ... .. . ... : ... .. . ... ... : --- .. . P7F ... : ... .. . ... ... : ... .. . ... ...
ROW 8A : C#4 00 F P80 V02 ... : ... .. . ... ... ... : E-4 00 . ... : D-# 00 F ... : ... .. . ... ... : C#3 01 A P80 ... : C#4 01 A ... ... : ... .. . ... ...
ROW 8B : ... .. E ... ... ... : ... .. . ... ... ... : ... .. . ... : ... .. C ... : ... .. . ... ... : ... .. 9 ... ... : ... .. 9 ... ... : ... .. . ... ...
ROW 8C : ... .. D ... ... ... : ... .. . ... ... ... : ... .. . ... : ... .. 6 ... : ... .. . ... ... : ... .. . ... ... : ... .. . ... ... : ... .. . ... ...
ROW 8D : ... .. A ... ... ... : ... .. . ... ... ... : ... .. . ... : ... .. 3 ... : ... .. . ... ... : ... .. 8 ... ... : ... .. 8 ... ... : ... .. . ... ...
ROW 8E : ... .. . ... ... ... : ... .. . ... ... ... : ... .. . ... : ... .. 2 ... : ... .. . ... ... : --- .. . P83 ... : ... .. 7 ... ... : ... .. . ... ...
ROW 8F : ... .. 0 ... V00 ... : ... .. . ... ... ... : --- .. . ... : ... .. F ... : ... .. . ... ... : F#3 01 A P80 ... : A#3 01 A ... ... : ... .. . ... ...
ROW 90 : ... .. . ... ... ... : ... .. . ... ... ... : ... .. . ... : ... .. C ... : ... .. . ... ... : ... .. 9 ... ... : ... .. 9 ... ... : ... .. . ... ...
ROW 91 : ... .. . ... ... ... : ... .. . ... ... ... : ... .. . ... : ... .. 6 ... : ... .. . ... ... : ... .. . ... ... : ... .. . ... ... : ... .. . ... ...
ROW 92 : ... .. . ... ... ... : ... .. . ... ... ... : ... .. . ... : ... .. 3 ... : ... .. . ... ... : ... .. 8 ... ... : ... .. 8 ... ... : ... .. . ... ...
ROW 93 : ... .. . ... ... ... : ... .. . ... ... ... : ... .. . ... : ... .. 2 ... : ... .. . ... ... : --- .. . P7F ... : ... .. 7 ... ... : ... .. . ... ...
ROW 94 : C-5 00 F P80 V02 ... : ... .. . ... ... ... : F-3 00 . ... : 6-# 00 F ... : ... .. . ... ... : C-3 01 A P80 ... : G#3 01 A ... ... : ... .. . ... ...
ROW 95 : ... .. E ... ... ... : ... .. . ... ... ... : ... .. . ... : ... .. C ... : ... .. . ... ... : ... .. 9 ... ... : ... .. 9 ... ... : ... .. . ... ...
ROW 96 : ... .. D ... ... ... : ... .. . ... ... ... : ... .. . ... : ... .. 6 ... : ... .. . ... ... : ... .. . ... ... : ... .. . ... ... : ... .. . ... ...
ROW 97 : ... .. A ... ... ... : ... .. . ... ... ... : ... .. . ... : ... .. 3 ... : ... .. . ... ... : ... .. 8 ... ... : ... .. 8 ... ... : ... .. . ... ...
ROW 98 : ... .. . ... ... ... : ... .. . ... ... ... : ... .. . ... : ... .. 2 ... : ... .. . ... ... : --- .. . P7E ... : ... .. 7 ... ... : ... .. . ... ...
ROW 99 : ... .. 0 ... V00 ... : ... .. . ... ... ... : --- .. . ... : ... .. 0 ... : ... .. . ... ... : F-3 01 A P80 ... : ... .. . ... ... : ... .. . ... ...
ROW 9A : ... .. . ... ... ... : ... .. . ... ... ... : ... .. . ... : ... .. . ... : ... .. . ... ... : ... .. 9 ... ... : ... .. 6 ... ... : ... .. . ... ...
ROW 9B : ... .. . ... ... ... : ... .. . ... ... ... : ... .. . ... : ... .. . ... : ... .. . ... ... : ... .. . ... ... : ... .. . ... ... : ... .. . ... ...
ROW 9C : ... .. . ... ... ... : ... .. . ... ... ... : ... .. . ... : ... .. . ... : ... .. . ... ... : ... .. 8 ... ... : ... .. . ... ... : ... .. . ... ...
ROW 9D : ... .. . ... ... ... : ... .. . ... ... ... : ... .. . ... : ... .. . ... : ... .. . ... ... : --- .. . ... ... : ... .. . ... ... : ... .. . ... ...
ROW 9E : C-4 00 F P80 V02 ... : ... .. . ... ... ... : G#4 00 . ... : D-# 00 F ... : ... .. . ... ... : C-3 01 A ... ... : C-4 01 A ... ... : ... .. . ... ...
ROW 9F : ... .. E ... ... ... : ... .. . ... ... ... : ... .. . ... : ... .. C ... : ... .. . ... ... : ... .. 9 ... ... : ... .. 9 ... ... : ... .. . ... ...
ROW A0 : ... .. D ... ... ... : ... .. . ... ... ... : ... .. . ... : ... .. 6 ... : ... .. . ... ... : ... .. . ... ... : ... .. . ... ... : ... .. . ... ...
ROW A1 : ... .. A ... ... ... : ... .. . ... ... ... : ... .. . ... : ... .. 3 ... : ... .. . ... ... : ... .. 8 ... ... : ... .. 8 ... ... : ... .. . ... ...
ROW A2 : ... .. . ... ... ... : ... .. . ... ... ... : ... .. . ... : ... .. 2 ... : ... .. . ... ... : --- .. . P7E ... : ... .. 7 ... ... : ... .. . ... ...
ROW A3 : ... .. 0 ... V00 ... : ... .. . ... ... ... : --- .. . ... : ... .. 0 ... : ... .. . ... ... : F-3 01 A P80 ... : G#3 01 A ... ... : ... .. . ... ...
ROW A4 : ... .. . ... ... ... : ... .. . ... ... ... : ... .. . ... : ... .. . ... : ... .. . ... ... : ... .. 9 ... ... : ... .. 9 ... ... : ... .. . ... ...
ROW A5 : ... .. . ... ... ... : ... .. . ... ... ... : ... .. . ... : ... .. . ... : ... .. . ... ... : ... .. . ... ... : ... .. . ... ... : ... .. . ... ...
ROW A6 : ... .. . ... ... ... : ... .. . ... ... ... : ... .. . ... : ... .. . ... : ... .. . ... ... : ... .. 8 ... ... : ... .. 8 ... ... : ... .. . ... ...
ROW A7 : ... .. . ... ... ... : ... .. . ... ... ... : ... .. . ... : ... .. . ... : ... .. . ... ... : --- .. . ... ... : ... .. 7 ... ... : ... .. . ... ...
ROW A8 : B-4 00 F P80 V02 ... : ... .. . ... ... ... : C#3 00 . ... : 3-# 00 F ... : ... .. . ... ... : B-2 01 A ... ... : G-3 01 A ... ... : ... .. . ... ...
ROW A9 : ... .. E ... ... ... : ... .. . ... ... ... : ... .. . ... : ... .. C ... : ... .. . ... ... : ... .. 9 ... ... : ... .. 9 ... ... : ... .. . ... ...
ROW AA : ... .. D ... ... ... : ... .. . ... ... ... : ... .. . ... : ... .. 6 ... : ... .. . ... ... : ... .. . ... ... : ... .. . ... ... : ... .. . ... ...
ROW AB : ... .. A ... ... ... : ... .. . ... ... ... : ... .. . ... : ... .. 3 ... : ... .. . ... ... : ... .. 8 ... ... : ... .. 8 ... ... : ... .. . ... ...
ROW AC : ... .. . ... ... ... : ... .. . ... ... ... : ... .. . ... : ... .. 2 ... : ... .. . ... ... : --- .. . P85 ... : ... .. 7 ... ... : ... .. . ... ...
ROW AD : ... .. 0 ... V00 ... : ... .. . ... ... ... : --- .. . ... : ... .. 0 ... : ... .. . ... ... : F-3 01 A P80 ... : ... .. . ... ... : ... .. . ... ...
ROW AE : ... .. . ... ... ... : ... .. . ... ... ... : ... .. . ... : ... .. . ... : ... .. . ... ... : ... .. 9 ... ... : ... .. 6 ... ... : ... .. . ... ...
ROW AF : ... .. . ... ... ... : ... .. . ... ... ... : ... .. . ... : ... .. . ... : ... .. . ... ... : ... .. . ... ... : ... .. . ... ... : ... .. . ... ...
ROW B0 : ... .. . ... ... ... : ... .. . ... ... ... : ... .. . ... : ... .. . ... : ... .. . ... ... : ... .. 8 ... ... : ... .. . ... ... : ... .. . ... ...
ROW B1 : ... .. . ... ... ... : ... .. . ... ... ... : ... .. . ... : ... .. . ... : ... .. . ... ... : --- .. . ... ... : ... .. . ... ... : ... .. . ... ...
ROW B2 : B-3 00 F P80 V02 ... : ... .. . ... ... ... : F-4 00 . ... : D-# 00 F ... : ... .. . ... ... : B-2 01 A ... ... : ... .. . ... ... : ... .. . ... ...
ROW B3 : ... .. E ... ... ... : ... .. . ... ... ... : ... .. . ... : ... .. C ... : ... .. . ... ... : ... .. 9 ... ... : ... .. . ... ... : ... .. . ... ...
ROW B4 : ... .. D ... ... ... : ... .. . ... ... ... : ... .. . ... : ... .. 6 ... : ... .. . ... ... : ... .. . ... ... : ... .. . ... ... : ... .. . ... ...
ROW B5 : ... .. A ... ... ... : ... .. . ... ... ... : ... .. . ... : ... .. 3 ... : ... .. . ... ... : ... .. 8 ... ... : ... .. . ... ... : ... .. . ... ...
ROW B6 : ... .. . ... ... ... : ... .. . ... ... ... : ... .. . ... : ... .. 2 ... : ... .. . ... ... : --- .. . P85 ... : ... .. . ... ... : ... .. . ... ...
ROW B7 : ... .. 0 ... V00 ... : ... .. . ... ... ... : --- .. . ... : ... .. F ... : ... .. . ... ... : F-3 01 A P80 ... : ... .. . ... ... : ... .. . ... ...
ROW B8 : ... .. . ... ... ... : ... .. . ... ... ... : ... .. . ... : ... .. C ... : ... .. . ... ... : ... .. 9 ... ... : ... .. . ... ... : ... .. . ... ...
ROW B9 : ... .. . ... ... ... : ... .. . ... ... ... : ... .. . ... : ... .. 6 ... : ... .. . ... ... : ... .. . ... ... : ... .. . ... ... : ... .. . ... ...
ROW BA : ... .. . ... ... ... : ... .. . ... ... ... : ... .. . ... : ... .. 3 ... : ... .. . ... ... : ... .. 8 ... ... : ... .. . ... ... : ... .. . ... ...
ROW BB : ... .. . ... ... ... : ... .. . ... ... ... : ... .. . ... : ... .. 2 ... : ... .. . ... ... : --- .. . ... ... : ... .. . ... ... : ... .. . ... ...
ROW BC : A#4 00 F P80 V02 ... : ... .. . ... ... ... : C-3 00 . ... : 6-# 00 F ... : ... .. . ... ... : A#2 01 A ... ... : ... .. . ... ... : ... .. . ... ...
ROW BD : ... .. E ... ... ... : ... .. . ... ... ... : ... .. . ... : ... .. C ... : ... .. . ... ... : ... .. 9 ... ... : ... .. . ... ... : ... .. . ... ...
ROW BE : ... .. D ... ... ... : ... .. . ... ... ... : ... .. . ... : ... .. 6 ... : ... .. . ... ... : ... .. . ... ... : ... .. . ... ... : ... .. . ... ...
ROW BF : ... .. A ... ... ... : ... .. . ... ... ... : ... .. . ... : ... .. 3 ... : ... .. . ... ... : ... .. 8 ... ... : ... .. . ... ... : ... .. . ... ...
ROW C0 : ... .. . ... ... ... : ... .. . ... ... ... : ... .. . ... : ... .. 2 ... : ... .. . ... ... : --- .. . P82 ... : ... .. . ... ... : ... .. . ... ...
ROW C1 : ... .. 0 ... V00 ... : ... .. . ... ... ... : --- .. . ... : ... .. 0 ... : ... .. . ... ... : E-3 01 A P80 ... : ... .. . ... ... : ... .. . ... ...
ROW C2 : ... .. . ... ... ... : ... .. . ... ... ... : ... .. . ... : ... .. . ... : ... .. . ... ... : ... .. 9 ... ... : ... .. . ... ... : ... .. . ... ...
ROW C3 : ... .. . ... ... ... : ... .. . ... ... ... : ... .. . ... : ... .. . ... : ... .. . ... ... : ... .. . ... ... : ... .. . ... ... : ... .. . ... ...
ROW C4 : ... .. . ... ... ... : ... .. . ... ... ... : ... .. . ... : ... .. . ... : ... .. . ... ... : ... .. 8 ... ... : ... .. . ... ... : ... .. . ... ...
ROW C5 : ... .. . ... ... ... : ... .. . ... ... ... : ... .. . ... : ... .. . ... : ... .. . ... ... : --- .. . P82 ... : ... .. . ... ... : ... .. . ... ...
ROW C6 : A#3 00 F P80 V02 ... : ... .. . ... ... ... : E-4 00 . ... : D-# 00 F ... : ... .. . ... ... : A#2 01 A P80 ... : A#3 01 A ... ... : ... .. . ... ...
ROW C7 : ... .. E ... ... ... : ... .. . ... ... ... : ... .. . ... : ... .. C ... : ... .. . ... ... : ... .. 9 ... ... : ... .. 9 ... ... : ... .. . ... ...
ROW C8 : ... .. D ... ... ... : ... .. . ... ... ... : ... .. . ... : ... .. 6 ... : ... .. . ... ... : ... .. . ... ... : ... .. . ... ... : ... .. . ... ...
ROW C9 : ... .. A ... ... ... : ... .. . ... ... ... : ... .. . ... : ... .. 3 ... : ... .. . ... ... : ... .. 8 ... ... : ... .. 8 ... ... : ... .. . ... ...
ROW CA : ... .. . ... ... ... : ... .. . ... ... ... : ... .. . ... : ... .. 2 ... : ... .. . ... ... : --- .. . P82 ... : ... .. 7 ... ... : ... .. . ... ...
ROW CB : ... .. 0 ... V00 ... : ... .. . ... ... ... : --- .. . ... : ... .. 0 ... : ... .. . ... ... : E-3 01 A P80 ... : G-3 01 A ... ... : ... .. . ... ...
ROW CC : ... .. . ... ... ... : ... .. . ... ... ... : ... .. . ... : ... .. . ... : ... .. . ... ... : ... .. 9 ... ... : ... .. 9 ... ... : ... .. . ... ...
ROW CD : ... .. . ... ... ... : ... .. . ... ... ... : ... .. . ... : ... .. . ... : ... .. . ... ... : ... .. . ... ... : ... .. . ... ... : ... .. . ... ...
ROW CE : ... .. . ... ... ... : ... .. . ... ... ... : ... .. . ... : ... .. . ... : ... .. . ... ... : ... .. 8 ... ... : ... .. 8 ... ... : ... .. . ... ...
ROW CF : ... .. . ... ... ... : ... .. . ... ... ... : ... .. . ... : ... .. . ... : ... .. . ... ... : --- .. . P82 ... : ... .. 7 ... ... : ... .. . ... ...
ROW D0 : G#4 00 F P80 V02 ... : ... .. . ... ... ... : E-6 00 . ... : 3-# 00 F ... : ... .. . ... ... : F-3 01 A P80 ... : F-3 01 A ... ... : ... .. . ... ...
ROW D1 : ... .. E ... ... ... : ... .. . ... ... ... : F#5 00 . ... : ... .. C ... : ... .. . ... ... : ... .. 9 ... ... : ... .. 9 ... ... : ... .. . ... ...
ROW D2 : ... .. D ... ... ... : ... .. . ... ... ... : B-4 00 . ... : ... .. 6 ... : ... .. . ... ... : ... .. . ... ... : ... .. . ... ... : ... .. . ... ...
ROW D3 : ... .. 0 ... V00 ... : ... .. . ... ... ... : A#4 00 . ... : ... .. 3 ... : ... .. . ... ... : ... .. 8 ... ... : ... .. 8 ... ... : ... .. . ... ...
ROW D4 : ... .. . ... ... ... : ... .. . ... ... ... : F-4 00 . ... : ... .. 2 ... : ... .. . ... ... : --- .. . ... ... : ... .. 7 ... ... : ... .. . ... ...
ROW D5 : G-4 00 F P80 V02 ... : ... .. . ... ... ... : ... .. . ... : ... .. 0 ... : ... .. . ... ... : C-3 01 A ... ... : E-3 01 A ... ... : ... .. . ... ...
ROW D6 : ... .. E ... ... ... : ... .. . ... ... ... : ... .. . ... : ... .. . ... : ... .. . ... ... : ... .. 9 ... ... : ... .. 9 ... ... : ... .. . ... ...
ROW D7 : ... .. D ... ... ... : ... .. . ... ... ... : ... .. . ... : ... .. . ... : ... .. . ... ... : ... .. . ... ... : ... .. . ... ... : ... .. . ... ...
ROW D8 : ... .. 0 ... V00 ... : ... .. . ... ... ... : ... .. . ... : ... .. . ... : ... .. . ... ... : ... .. 8 ... ... : ... .. 8 ... ... : ... .. . ... ...
ROW D9 : ... .. . ... ... ... : ... .. . ... ... ... : ... .. . ... : ... .. . ... : ... .. . ... ... : --- .. . P7E ... : ... .. 7 ... ... : ... .. . ... ...
ROW DA : F-4 00 F P80 V02 ... : ... .. . ... ... ... : ... .. . ... : D-# 00 F ... : ... .. . ... ... : G#2 01 A P80 ... : F-3 01 A ... ... : ... .. . ... ...
ROW DB : ... .. E ... ... ... : ... .. . ... ... ... : ... .. . ... : ... .. C ... : ... .. . ... ... : ... .. 9 ... ... : ... .. 9 ... ... : ... .. . ... ...
ROW DC : ... .. D ... ... ... : ... .. . ... ... ... : ... .. . ... : ... .. 6 ... : ... .. . ... ... : ... .. . ... ... : ... .. . ... ... : ... .. . ... ...
ROW DD : ... .. A ... ... ... : ... .. . ... ... ... : ... .. . ... : ... .. 3 ... : ... .. . ... ... : ... .. 8 ... ... : ... .. 8 ... ... : ... .. . ... ...
ROW DE : ... .. . ... ... ... : ... .. . ... ... ... : ... .. . ... : ... .. 2 ... : ... .. . ... ... : --- .. . ... ... : ... .. 7 ... ... : ... .. . ... ...
ROW DF : ... .. 0 ... V00 ... : ... .. . ... ... ... : --- .. . ... : ... .. F ... : ... .. . ... ... : C-3 01 A ... ... : G#3 01 A ... ... : ... .. . ... ...
ROW E0 : ... .. . ... ... ... : ... .. . ... ... ... : ... .. . ... : ... .. C ... : ... .. . ... ... : ... .. 9 ... ... : ... .. 9 ... ... : ... .. . ... ...
ROW E1 : ... .. . ... ... ... : ... .. . ... ... ... : ... .. . ... : ... .. 6 ... : ... .. . ... ... : ... .. . ... ... : ... .. . ... ... : ... .. . ... ...
ROW E2 : ... .. . ... ... ... : ... .. . ... ... ... : ... .. . ... : ... .. 3 ... : ... .. . ... ... : ... .. 8 ... ... : ... .. 8 ... ... : ... .. . ... ...
ROW E3 : ... .. . ... ... ... : ... .. . ... ... ... : ... .. . ... : ... .. 2 ... : ... .. . ... ... : --- .. . P7E ... : ... .. 7 ... ... : ... .. . ... ...
ROW E4 : G-4 00 F P80 V02 ... : ... .. . ... ... ... : C-3 00 . ... : 6-# 00 F ... : ... .. . ... ... : G-2 01 A P80 ... : G-3 01 A ... ... : ... .. . ... ...
ROW E5 : ... .. E ... ... ... : ... .. . ... ... ... : ... .. . ... : ... .. C ... : ... .. . ... ... : ... .. 9 ... ... : ... .. 9 ... ... : ... .. . ... ...
ROW E6 : ... .. D ... ... ... : ... .. . ... ... ... : ... .. . ... : ... .. 6 ... : ... .. . ... ... : ... .. . ... ... : ... .. . ... ... : ... .. . ... ...
ROW E7 : ... .. 0 ... V00 ... : ... .. . ... ... ... : --- .. . ... : ... .. 3 ... : ... .. . ... ... : ... .. 8 ... ... : ... .. 8 ... ... : ... .. . ... ...
ROW E8 : ... .. . ... ... ... : ... .. . ... ... ... : ... .. . ... : ... .. 2 ... : ... .. . ... ... : --- .. . P81 ... : ... .. 7 ... ... : ... .. . ... ...
ROW E9 : F-4 00 F P80 V02 ... : ... .. . ... ... ... : A#2 00 . ... : ... .. 0 ... : ... .. . ... ... : A#2 01 A P80 ... : F-3 01 A ... ... : ... .. . ... ...
ROW EA : ... .. E ... ... ... : ... .. . ... ... ... : ... .. . ... : ... .. . ... : ... .. . ... ... : ... .. 9 ... ... : ... .. 9 ... ... : ... .. . ... ...
ROW EB : ... .. D ... ... ... : ... .. . ... ... ... : ... .. . ... : ... .. . ... : ... .. . ... ... : ... .. . ... ... : ... .. . ... ... : ... .. . ... ...
ROW EC : ... .. 0 ... V00 ... : ... .. . ... ... ... : --- .. . ... : ... .. . ... : ... .. . ... ... : ... .. 8 ... ... : ... .. 8 ... ... : ... .. . ... ...
ROW ED : ... .. . ... ... ... : ... .. . ... ... ... : ... .. . ... : ... .. . ... : ... .. . ... ... : --- .. . P82 ... : ... .. 7 ... ... : ... .. . ... ...
ROW EE : E-4 00 F P80 V02 ... : ... .. . ... ... ... : G#2 00 . ... : D-# 00 F ... : ... .. . ... ... : E-2 01 A P80 ... : E-3 01 A ... ... : ... .. . ... ...
ROW EF : ... .. E ... ... ... : ... .. . ... ... ... : ... .. . ... : ... .. C ... : ... .. . ... ... : ... .. 9 ... ... : ... .. 9 ... ... : ... .. . ... ...
ROW F0 : ... .. D ... ... ... : ... .. . ... ... ... : ... .. . ... : ... .. 6 ... : ... .. . ... ... : ... .. . ... ... : ... .. . ... ... : ... .. . ... ...
ROW F1 : ... .. A ... ... ... : ... .. . ... ... ... : --- .. . ... : ... .. 3 ... : ... .. . ... ... : ... .. 8 ... ... : ... .. 8 ... ... : ... .. . ... ...
ROW F2 : ... .. . ... ... ... : ... .. . ... ... ... : ... .. . ... : ... .. 2 ... : ... .. . ... ... : --- .. . P83 ... : ... .. 7 ... ... : ... .. . ... ...
ROW F3 : ... .. 0 ... V00 ... : ... .. . ... ... ... : G-2 00 . ... : ... .. F ... : ... .. . ... ... : A#2 01 A P80 ... : G-3 01 A ... ... : ... .. . ... ...
ROW F4 : ... .. . ... ... ... : ... .. . ... ... ... : ... .. . ... : ... .. C ... : ... .. . ... ... : ... .. 9 ... ... : ... .. 9 ... ... : ... .. . ... ...
ROW F5 : ... .. . ... ... ... : ... .. . ... ... ... : ... .. . ... : ... .. 6 ... : ... .. . ... ... : ... .. . ... ... : ... .. . ... ... : ... .. . ... ...
ROW F6 : ... .. . ... ... ... : ... .. . ... ... ... : --- .. . ... : ... .. 3 ... : ... .. . ... ... : ... .. 8 ... ... : ... .. 8 ... ... : ... .. . ... ...
ROW F7 : ... .. . ... ... ... : ... .. . ... ... ... : ... .. . ... : ... .. 2 ... : ... .. . ... ... : --- .. . P82 ... : ... .. 7 ... ... : ... .. . ... ...
ROW F8 : F-4 00 F P80 V02 ... : ... .. . ... ... ... : E-4 00 . ... : 3-# 00 F ... : ... .. . ... ... : G#2 01 A P80 ... : F-3 01 A ... ... : ... .. . ... ...
ROW F9 : ... .. E ... ... ... : ... .. . ... ... ... : F#3 00 . ... : ... .. C ... : ... .. . ... ... : ... .. 9 ... ... : ... .. 9 ... ... : ... .. . ... ...
ROW FA : ... .. D ... ... ... : ... .. . ... ... ... : B-2 00 . ... : ... .. 6 ... : ... .. . ... ... : ... .. . ... ... : ... .. . ... ... : ... .. . ... ...
ROW FB : ... .. A ... ... ... : ... .. . ... ... ... : A#2 00 . ... : ... .. 3 ... : ... .. . ... ... : ... .. 8 ... ... : ... .. 8 ... ... : ... .. . ... ...
ROW FC : ... .. . ... ... ... : ... .. . ... ... ... : F-2 00 . ... : ... .. 2 ... : ... .. . ... ... : ... .. 7 ... ... : ... .. 7 ... ... : ... .. . ... ...
ROW FD : ... .. . ... ... ... : ... .. . ... ... ... : ... .. . ... : ... .. 0 ... : ... .. . ... ... : ... .. . ... ... : ... .. . ... ... : ... .. . ... ...
ROW FE : ... .. . ... ... ... : ... .. . ... ... ... : ... .. . ... : ... .. . ... : ... .. . ... ... : ... .. 6 ... ... : ... .. 6 ... ... : ... .. . ... ...
ROW FF : ... .. . ... ... ... : ... .. . ... ... ... : ... .. . ... : ... .. . ... : ... .. . ... ... : ... .. . ... ... : ... .. . ... ... : ... .. . ... ...

PATTERN 17
ROW 00 : ... .. 0 ... V00 ... : ... .. . ... ... ... : ... .. . ... : ... .. . ... : ... .. . ... ... : ... .. . ... ... : ... .. . ... ... : ... .. . ... ...
ROW 01 : ... .. . ... ... ... : ... .. . ... ... ... : ... .. . ... : ... .. . ... : ... .. . ... ... : ... .. . ... ... : ... .. . ... ... : ... .. . ... ...
ROW 02 : ... .. . ... ... ... : ... .. . ... ... ... : E-2 00 . P86 : ... .. . ... : ... .. . ... ... : C-2 01 A ... ... : C-1 01 A ... ... : ... .. . ... ...
ROW 03 : ... .. . ... ... ... : ... .. . ... ... ... : D#2 00 . P8E : ... .. . ... : ... .. . ... ... : ... .. 9 ... ... : ... .. 9 ... ... : ... .. . ... ...
ROW 04 : ... .. . ... ... ... : ... .. . ... ... ... : ... .. . P6E : ... .. . ... : ... .. . ... ... : ... .. . ... ... : ... .. . ... ... : ... .. . ... ...
ROW 05 : D-5 00 6 P80 V02 ... : ... .. . ... ... ... : D-2 00 . P79 : ... .. . ... : ... .. . ... ... : ... .. 8 ... ... : ... .. 8 ... ... : ... .. . ... ...
ROW 06 : ... .. 5 ... ... ... : ... .. . ... ... ... : C#2 00 . P86 : ... .. . ... : ... .. . ... ... : ... .. 7 ... ... : ... .. 7 ... ... : ... .. . ... ...
ROW 07 : D#5 00 8 ... ... ... : ... .. . ... ... ... : C-2 00 . P96 : ... .. . ... : ... .. . ... ... : --- .. . P7E ... : --- .. . P7D ... : ... .. . ... ...
ROW 08 : ... .. 7 ... ... ... : ... .. . ... ... ... : ... .. . P76 : ... .. . ... : ... .. . ... ... : ... .. . ... ... : ... .. . ... ... : ... .. . ... ...
ROW 09 : ... .. 6 ... ... ... : ... .. . ... ... ... : B-1 00 . P89 : ... .. . ... : ... .. . ... ... : ... .. . ... ... : ... .. . ... ... : ... .. . ... ...
ROW 0A : E-5 00 A ... ... ... : ... .. . ... ... ... : ... .. . P69 : ... .. . ... : ... .. . ... ... : ... .. . ... ... : ... .. . ... ... : ... .. . ... ...
ROW 0B : ... .. 9 ... ... ... : ... .. . ... ... ... : A#1 00 . P7F : ... .. . ... : ... .. . ... ... : ... .. . ... ... : ... .. . ... ... : ... .. . ... ...
ROW 0C : F-5 00 F ... ... ... : ... .. . ... ... ... : E-3 00 . P80 : 6-# 00 F ... : ... .. . ... ... : F-1 01 A P80 ... : F-0 01 A P81 ... : ... .. . ... ...
ROW 0D : ... .. E ... ... ... : ... .. . ... ... ... : F#2 00 . ... : ... .. C ... : ... .. . ... ... : ... .. 9 ... ... : ... .. 9 ... ... : ... .. . ... ...
ROW 0E : ... .. D ... ... ... : ... .. . ... ... ... : B-1 00 . ... : ... .. 6 ... : ... .. . ... ... : ... .. . ... ... : ... .. . ... ... : ... .. . ... ...
ROW 0F : ... .. A ... ... ... : ... .. . ... ... ... : A#1 00 . ... : ... .. 3 ... : ... .. . ... ... : ... .. 8 ... ... : ... .. 8 ... ... : ... .. . ... ...
ROW 10 : ... .. . ... ... ... : ... .. . ... ... ... : F-1 00 . ... : ... .. 2 ... : ... .. . ... ... : ... .. 7 ... ... : ... .. 7 ... ... : ... .. . ... ...
ROW 11 : ... .. . ... ... ... : ... .. . ... ... ... : ... .. . ... : ... .. 0 ... : ... .. . ... ... : ... .. . ... ... : ... .. . ... ... : ... .. . ... ...
ROW 12 : ... .. . ... ... ... : ... .. . ... ... ... : ... .. . ... : ... .. . ... : ... .. . ... ... : ... .. 6 ... ... : ... .. 6 ... ... : ... .. . ... ...
ROW 13 : ... .. . ... ... ... : ... .. . ... ... ... : ... .. . ... : ... .. . ... : ... .. . ... ... : ... .. . ... ... : ... .. . ... ... : ... .. . ... ...
ROW 14 : ... .. . ... ... ... : ... .. . ... ... ... : ... .. . ... : ... .. . ... : ... .. . ... ... : ... .. . ... ... : ... .. . ... ... : ... .. . ... ...
ROW 15 : ... .. . ... ... ... : ... .. . ... ... ... : ... .. . ... : ... .. . ... : ... .. . ... ... : ... .. . ... ... : ... .. . ... ... : ... .. . ... ...
ROW 16 : ... .. 0 ... V00 ... : ... .. . ... ... ... : --- .. . ... : B-# 00 8 ... : ... .. . ... ... : --- .. . ... ... : --- .. . P80 ... : ... .. . ... ...
ROW 17 : ... .. . ... ... ... : ... .. . ... ... ... : ... .. . ... : ... .. 6 ... : ... .. . ... ... : ... .. . ... ... : ... .. . ... ... : ... .. . ... ...
ROW 18 : ... .. . ... ... ... : ... .. . ... ... ... : ... .. . ... : ... .. 3 ... : ... .. . ... ... : ... .. . ... ... : ... .. . ... ... : ... .. . ... ...
ROW 19 : ... .. . ... ... ... : ... .. . ... ... ... : ... .. . ... : ... .. 1 ... : ... .. . ... ... : ... .. . ... ... : ... .. . ... ... : ... .. . ... ...
ROW 1A : ... .. . ... ... ... : ... .. . ... ... ... : ... .. . ... : ... .. 8 ... : ... .. . ... ... : ... .. . ... ... : ... .. . ... ... : ... .. . ... ...
ROW 1B : ... .. . ... ... ... : ... .. . ... ... ... : ... .. . ... : ... .. 6 ... : ... .. . ... ... : ... .. . ... ... : ... .. . ... ... : ... .. . ... ...
ROW 1C : ... .. . ... ... ... : ... .. . ... ... ... : ... .. . ... : ... .. 3 ... : ... .. . ... ... : ... .. . ... ... : ... .. . ... ... : ... .. . ... ...
ROW 1D : ... .. . ... ... ... : ... .. . ... ... ... : ... .. . ... : ... .. 8 ... : ... .. . ... ... : ... .. . ... ... : ... .. . ... ... : ... .. . ... ...
ROW 1E : ... .. . ... ... ... : ... .. . ... ... ... : ... .. . ... : ... .. 6 ... : ... .. . ... ... : ... .. . ... ... : ... .. . ... ... : ... .. . ... ...
ROW 1F : ... .. . ... ... ... : ... .. . ... ... ... : ... .. . ... : ... .. 3 ... : ... .. . ... ... : ... .. . ... ... : ... .. . ... ... : ... .. . ... ...
ROW 20 : F-2 00 F P80 V01 ... : C-3 00 F P80 ... ... : F-3 00 . ... : 3-# 00 F ... : ... .. . ... ... : F-4 01 A ... ... : F-5 01 A P81 ... : ... .. . ... ...
ROW 21 : ... .. E ... ... ... : ... .. E ... ... ... : ... .. . ... : ... .. C ... : ... .. . ... ... : ... .. 9 ... ... : ... .. 9 ... ... : ... .. . ... ...
ROW 22 : ... .. D ... ... ... : ... .. D ... ... ... : ... .. . ... : ... .. 6 ... : ... .. . ... ... : ... .. . ... ... : ... .. . ... ... : ... .. . ... ...
ROW 23 : ... .. 0 ... V00 ... : ... .. 0 ... ... ... : ... .. . ... : ... .. 3 ... : ... .. . ... ... : --- .. . ... ... : --- .. . ... ... : ... .. . ... ...
ROW 24 : ... .. . ... ... ... : ... .. . ... ... ... : ... .. . ... : ... .. 2 ... : ... .. . ... ... : ... .. . ... ... : ... .. . ... ... : ... .. . ... ...
ROW 25 : F-2 00 F P80 V01 ... : C-3 00 F P80 ... ... : --- .. . ... : ... .. 0 ... : ... .. . ... ... : G#3 01 A ... ... : G#4 01 A ... ... : ... .. . ... ...
ROW 26 : ... .. E ... ... ... : ... .. E ... ... ... : ... .. . ... : ... .. . ... : ... .. . ... ... : ... .. 9 ... ... : ... .. 9 ... ... : ... .. . ... ...
ROW 27 : ... .. D ... ... ... : ... .. D ... ... ... : ... .. . ... : ... .. . ... : ... .. . ... ... : ... .. . ... ... : ... .. . ... ... : ... .. . ... ...
ROW 28 : ... .. 0 ... V00 ... : ... .. 0 ... ... ... : ... .. . ... : ... .. . ... : ... .. . ... ... : --- .. . P82 ... : --- .. . ... ... : ... .. . ... ...
ROW 29 : ... .. . ... ... ... : ... .. . ... ... ... : ... .. . ... : ... .. . ... : ... .. . ... ... : ... .. . ... ... : ... .. . ... ... : ... .. . ... ...
ROW 2A : B-2 00 F P80 V01 ... : F#3 00 F P80 ... ... : F-3 00 . ... : D-# 00 F ... : ... .. . ... ... : F-4 01 A P80 ... : F-5 01 A ... ... : ... .. . ... ...
ROW 2B : ... .. E ... ... ... : ... .. E ... ... ... : ... .. . ... : ... .. C ... : ... .. . ... ... : ... .. 9 ... ... : ... .. 9 ... ... : ... .. . ... ...
ROW 2C : ... .. D ... ... ... : ... .. D ... ... ... : ... .. . ... : ... .. 6 ... : ... .. . ... ... : ... .. . ... ... : ... .. . ... ... : ... .. . ... ...
ROW 2D : ... .. A ... ... ... : ... .. A ... ... ... : --- .. . ... : ... .. 3 ... : ... .. . ... ... : --- .. . ... ... : --- .. . ... ... : ... .. . ... ...
ROW 2E : ... .. . ... ... ... : ... .. . ... ... ... : ... .. . ... : ... .. 2 ... : ... .. . ... ... : ... .. . ... ... : ... .. . ... ... : ... .. . ... ...
ROW 2F : ... .. . ... ... ... : ... .. . ... ... ... : F-3 00 . ... : ... .. F ... : ... .. . ... ... : G#3 01 A ... ... : G#4 01 A ... ... : ... .. . ... ...
ROW 30 : ... .. . ... ... ... : ... .. . ... ... ... : ... .. . ... : ... .. C ... : ... .. . ... ... : ... .. 9 ... ... : ... .. 9 ... ... : ... .. . ... ...
ROW 31 : ... .. . ... ... ... : ... .. . ... ... ... : ... .. . ... : ... .. 6 ... : ... .. . ... ... : ... .. . ... ... : ... .. . ... ... : ... .. . ... ...
ROW 32 : ... .. 0 ... V00 ... : ... .. 0 ... ... ... : --- .. . ... : ... .. 3 ... : ... .. . ... ... : --- .. . P82 ... : --- .. . ... ... : ... .. . ... ...
ROW 33 : ... .. . ... ... ... : ... .. . ... ... ... : ... .. . ... : ... .. 2 ... : ... .. . ... ... : ... .. . ... ... : ... .. . ... ... : ... .. . ... ...
ROW 34 : A#2 00 F P80 V01 ... : F-3 00 F P80 ... ... : F-3 00 . ... : 6-# 00 F ... : ... .. . ... ... : F-4 01 A P80 ... : F-5 01 A ... ... : ... .. . ... ...
ROW 35 : ... .. E ... ... ... : ... .. E ... ... ... : ... .. . ... : ... .. C ... : ... .. . ... ... : ... .. 9 ... ... : ... .. 9 ... ... : ... .. . ... ...
ROW 36 : ... .. D ... ... ... : ... .. D ... ... ... : ... .. . ... : ... .. 6 ... : ... .. . ... ... : ... .. . ... ... : ... .. . ... ... : ... .. . ... ...
ROW 37 : ... .. A ... ... ... : ... .. A ... ... ... : ... .. . ... : ... .. 3 ... : ... .. . ... ... : --- .. . ... ... : --- .. . ... ... : ... .. . ... ...
ROW 38 : ... .. . ... ... ... : ... .. . ... ... ... : ... .. . ... : ... .. 2 ... : ... .. . ... ... : ... .. . ... ... : ... .. . ... ... : ... .. . ... ...
ROW 39 : ... .. . ... ... ... : ... .. . ... ... ... : --- .. . ... : ... .. 0 ... : ... .. . ... ... : G#3 01 A ... ... : G#4 01 A ... ... : ... .. . ... ...
ROW 3A : ... .. . ... ... ... : ... .. . ... ... ... : ... .. . ... : ... .. . ... : ... .. . ... ... : ... .. 9 ... ... : ... .. 9 ... ... : ... .. . ... ...
ROW 3B : ... .. . ... ... ... : ... .. . ... ... ... : ... .. . ... : ... .. . ... : ... .. . ... ... : ... .. . ... ... : ... .. . ... ... : ... .. . ... ...
ROW 3C : ... .. 0 ... V00 ... : ... .. 0 ... ... ... : ... .. . ... : ... .. . ... : ... .. . ... ... : --- .. . P82 ... : --- .. . ... ... : ... .. . ... ...
ROW 3D : ... .. . ... ... ... : ... .. . ... ... ... : ... .. . ... : ... .. . ... : ... .. . ... ... : ... .. . ... ... : ... .. . ... ... : ... .. . ... ...
ROW 3E : G#2 00 F P80 V01 ... : D#3 00 F P80 ... ... : F-3 00 . ... : D-# 00 F ... : ... .. . ... ... : F-4 01 A P80 ... : F-5 01 A ... ... : ... .. . ... ...
ROW 3F : ... .. E ... ... ... : ... .. E ... ... ... : ... .. . ... : ... .. C ... : ... .. . ... ... : ... .. 9 ... ... : ... .. 9 ... ... : ... .. . ... ...
ROW 40 : ... .. D ... ... ... : ... .. D ... ... ... : ... .. . ... : ... .. 6 ... : ... .. . ... ... : ... .. . ... ... : ... .. . ... ... : ... .. . ... ...
ROW 41 : ... .. 0 ... V00 ... : ... .. 0 ... ... ... : --- .. . ... : ... .. 3 ... : ... .. . ... ... : --- .. . ... ... : --- .. . ... ... : ... .. . ... ...
ROW 42 : ... .. . ... ... ... : ... .. . ... ... ... : ... .. . ... : ... .. 2 ... : ... .. . ... ... : ... .. . ... ... : ... .. . ... ... : ... .. . ... ...
ROW 43 : F-2 00 F P80 V01 ... : C-3 00 F P80 ... ... : F-3 00 . ... : ... .. F ... : ... .. . ... ... : G#3 01 A ... ... : G#4 01 A ... ... : ... .. . ... ...
ROW 44 : ... .. E ... ... ... : ... .. E ... ... ... : ... .. . ... : ... .. C ... : ... .. . ... ... : ... .. 9 ... ... : ... .. 9 ... ... : ... .. . ... ...
ROW 45 : ... .. D ... ... ... : ... .. D ... ... ... : ... .. . ... : ... .. 6 ... : ... .. . ... ... : ... .. . ... ... : ... .. . ... ... : ... .. . ... ...
ROW 46 : ... .. A ... ... ... : ... .. A ... ... ... : --- .. . ... : ... .. 3 ... : ... .. . ... ... : --- .. . P82 ... : --- .. . ... ... : ... .. . ... ...
ROW 47 : ... .. . ... ... ... : ... .. . ... ... ... : ... .. . ... : ... .. 2 ... : ... .. . ... ... : ... .. . ... ... : ... .. . ... ... : ... .. . ... ...
ROW 48 : ... .. . ... ... ... : ... .. . ... ... ... : F-3 00 . ... : 3-# 00 F ... : ... .. . ... ... : E-4 01 A P80 ... : E-5 01 A ... ... : ... .. . ... ...
ROW 49 : ... .. . ... ... ... : ... .. . ... ... ... : ... .. . ... : ... .. C ... : ... .. . ... ... : ... .. 9 ... ... : ... .. 9 ... ... : ... .. . ... ...
ROW 4A : ... .. . ... ... ... : ... .. . ... ... ... : ... .. . ... : ... .. 6 ... : ... .. . ... ... : ... .. . ... ... : ... .. . ... ... : ... .. . ... ...
ROW 4B : ... .. 0 ... V00 ... : ... .. 0 ... ... ... : ... .. . ... : ... .. 3 ... : ... .. . ... ... : --- .. . ... ... : --- .. . ... ... : ... .. . ... ...
ROW 4C : ... .. . ... ... ... : ... .. . ... ... ... : ... .. . ... : ... .. 2 ... : ... .. . ... ... : ... .. . ... ... : ... .. . ... ... : ... .. . ... ...
ROW 4D : F-2 00 F P80 V01 ... : C-3 00 F P80 ... ... : --- .. . ... : ... .. 0 ... : ... .. . ... ... : G-3 01 A ... ... : G-4 01 A ... ... : ... .. . ... ...
ROW 4E : ... .. E ... ... ... : ... .. E ... ... ... : ... .. . ... : ... .. . ... : ... .. . ... ... : ... .. 9 ... ... : ... .. 9 ... ... : ... .. . ... ...
ROW 4F : ... .. D ... ... ... : ... .. D ... ... ... : ... .. . ... : ... .. . ... : ... .. . ... ... : ... .. . ... ... : ... .. . ... ... : ... .. . ... ...
ROW 50 : ... .. 0 ... V00 ... : ... .. 0 ... ... ... : ... .. . ... : ... .. . ... : ... .. . ... ... : --- .. . P81 ... : --- .. . ... ... : ... .. . ... ...
ROW 51 : ... .. . ... ... ... : ... .. . ... ... ... : ... .. . ... : ... .. . ... : ... .. . ... ... : ... .. . ... ... : ... .. . ... ... : ... .. . ... ...
ROW 52 : B-2 00 F P80 V01 ... : F#3 00 F P80 ... ... : F-3 00 . ... : D-# 00 F ... : ... .. . ... ... : E-4 01 A P80 ... : E-5 01 A ... ... : ... .. . ... ...
ROW 53 : ... .. E ... ... ... : ... .. E ... ... ... : ... .. . ... : ... .. C ... : ... .. . ... ... : ... .. 9 ... ... : ... .. 9 ... ... : ... .. . ... ...
ROW 54 : ... .. D ... ... ... : ... .. D ... ... ... : ... .. . ... : ... .. 6 ... : ... .. . ... ... : ... .. . ... ... : ... .. . ... ... : ... .. . ... ...
ROW 55 : ... .. A ... ... ... : ... .. A ... ... ... : --- .. . ... : ... .. 3 ... : ... .. . ... ... : --- .. . ... ... : --- .. . ... ... : ... .. . ... ...
ROW 56 : ... .. . ... ... ... : ... .. . ... ... ... : ... .. . ... : ... .. 2 ... : ... .. . ... ... : ... .. . ... ... : ... .. . ... ... : ... .. . ... ...
ROW 57 : ... .. . ... ... ... : ... .. . ... ... ... : F-3 00 . ... : ... .. F ... : ... .. . ... ... : G-3 01 A ... ... : G-4 01 A ... ... : ... .. . ... ...
ROW 58 : ... .. . ... ... ... : ... .. . ... ... ... : ... .. . ... : ... .. C ... : ... .. . ... ... : ... .. 9 ... ... : ... .. 9 ... ... : ... .. . ... ...
ROW 59 : ... .. . ... ... ... : ... .. . ... ... ... : ... .. . ... : ... .. 6 ... : ... .. . ... ... : ... .. . ... ... : ... .. . ... ... : ... .. . ... ...
ROW 5A : ... .. 0 ... V00 ... : ... .. 0 ... ... ... : --- .. . ... : ... .. 3 ... : ... .. . ... ... : --- .. . P81 ... : --- .. . ... ... : ... .. . ... ...
ROW 5B : ... .. . ... ... ... : ... .. . ... ... ... : ... .. . ... : ... .. 2 ... : ... .. . ... ... : ... .. . ... ... : ... .. . ... ... : ... .. . ... ...
ROW 5C : A#2 00 F P80 V01 ... : F-3 00 F P80 ... ... : F-3 00 . ... : 6-# 00 F ... : ... .. . ... ... : E-4 01 A P80 ... : E-5 01 A ... ... : ... .. . ... ...
ROW 5D : ... .. E ... ... ... : ... .. E ... ... ... : ... .. . ... : ... .. C ... : ... .. . ... ... : ... .. 9 ... ... : ... .. 9 ... ... : ... .. . ... ...
ROW 5E : ... .. D ... ... ... : ... .. D ... ... ... : ... .. . ... : ... .. 6 ... : ... .. . ... ... : ... .. . ... ... : ... .. . ... ... : ... .. . ... ...
ROW 5F : ... .. A ... ... ... : ... .. A ... ... ... : --- .. . ... : ... .. 3 ... : ... .. . ... ... : --- .. . ... ... : --- .. . ... ... : ... .. . ... ...
ROW 60 : ... .. . ... ... ... : ... .. . ... ... ... : ... .. . ... : ... .. 2 ... : ... .. . ... ... : ... .. . ... ... : ... .. . ... ... : ... .. . ... ...
ROW 61 : ... .. . ... ... ... : ... .. . ... ... ... : F-3 00 . ... : ... .. 0 ... : ... .. . ... ... : G-3 01 A ... ... : G-4 01 A ... ... : ... .. . ... ...
ROW 62 : ... .. . ... ... ... : ... .. . ... ... ... : ... .. . ... : ... .. . ... : ... .. . ... ... : ... .. 9 ... ... : ... .. 9 ... ... : ... .. . ... ...
ROW 63 : ... .. . ... ... ... : ... .. . ... ... ... : ... .. . ... : ... .. . ... : ... .. . ... ... : ... .. . ... ... : ... .. . ... ... : ... .. . ... ...
ROW 64 : ... .. 0 ... V00 ... : ... .. 0 ... ... ... : --- .. . ... : ... .. . ... : ... .. . ... ... : --- .. . P81 ... : --- .. . ... ... : ... .. . ... ...
ROW 65 : ... .. . ... ... ... : ... .. . ... ... ... : ... .. . ... : ... .. . ... : ... .. . ... ... : ... .. . ... ... : ... .. . ... ... : ... .. . ... ...
ROW 66 : G#2 00 F P80 V01 ... : D#3 00 F P80 ... ... : F-3 00 . ... : D-# 00 F ... : ... .. . ... ... : E-4 01 A P80 ... : E-5 01 A ... ... : ... .. . ... ...
ROW 67 : ... .. E ... ... ... : ... .. E ... ... ... : ... .. . ... : ... .. C ... : ... .. . ... ... : ... .. 9 ... ... : ... .. 9 ... ... : ... .. . ... ...
ROW 68 : ... .. D ... ... ... : ... .. D ... ... ... : ... .. . ... : ... .. 6 ... : ... .. . ... ... : ... .. . ... ... : ... .. . ... ... : ... .. . ... ...
ROW 69 : ... .. A ... ... ... : ... .. A ... ... ... : --- .. . ... : ... .. 3 ... : ... .. . ... ... : --- .. . ... ... : --- .. . ... ... : ... .. . ... ...
ROW 6A : ... .. . ... ... ... : ... .. . ... ... ... : ... .. . ... : ... .. 2 ... : ... .. . ... ... : ... .. . ... ... : ... .. . ... ... : ... .. . ... ...
ROW 6B : ... .. . ... ... ... : ... .. . ... ... ... : F-3 00 . ... : ... .. 0 ... : ... .. . ... ... : G-3 01 A ... ... : G-4 01 A ... ... : ... .. . ... ...
ROW 6C : ... .. . ... ... ... : ... .. . ... ... ... : ... .. . ... : ... .. . ... : ... .. . ... ... : ... .. 9 ... ... : ... .. 9 ... ... : ... .. . ... ...
ROW 6D : ... .. . ... ... ... : ... .. . ... ... ... : ... .. . ... : ... .. . ... : ... .. . ... ... : ... .. . ... ... : ... .. . ... ... : ... .. . ... ...
ROW 6E : ... .. 0 ... V00 ... : ... .. 0 ... ... ... : --- .. . ... : ... .. . ... : ... .. . ... ... : --- .. . P81 ... : --- .. . ... ... : ... .. . ... ...
ROW 6F : ... .. . ... ... ... : ... .. . ... ... ... : ... .. . ... : ... .. . ... : ... .. . ... ... : ... .. . ... ... : ... .. . ... ... : ... .. . ... ...
ROW 70 : F-2 00 F P80 V01 ... : C-3 00 F P80 ... ... : F-3 00 . ... : 3-# 00 F ... : ... .. . ... ... : D#4 01 A P80 ... : D#5 01 A ... ... : ... .. . ... ...
ROW 71 : ... .. E ... ... ... : ... .. E ... ... ... : ... .. . ... : ... .. C ... : ... .. . ... ... : ... .. 9 ... ... : ... .. 9 ... ... : ... .. . ... ...
ROW 72 : ... .. D ... ... ... : ... .. D ... ... ... : ... .. . ... : ... .. 6 ... : ... .. . ... ... : ... .. . ... ... : ... .. . ... ... : ... .. . ... ...
ROW 73 : ... .. 0 ... V00 ... : ... .. 0 ... ... ... : ... .. . ... : ... .. 3 ... : ... .. . ... ... : --- .. . ... ... : --- .. . ... ... : ... .. . ... ...
ROW 74 : ... .. . ... ... ... : ... .. . ... ... ... : ... .. . ... : ... .. 2 ... : ... .. . ... ... : ... .. . ... ... : ... .. . ... ... : ... .. . ... ...
ROW 75 : F-2 00 F P80 V01 ... : C-3 00 F P80 ... ... : --- .. . ... : ... .. 0 ... : ... .. . ... ... : F#3 01 A ... ... : F#4 01 A ... ... : ... .. . ... ...
ROW 76 : ... .. E ... ... ... : ... .. E ... ... ... : ... .. . ... : ... .. . ... : ... .. . ... ... : ... .. 9 ... ... : ... .. 9 ... ... : ... .. . ... ...
ROW 77 : ... .. D ... ... ... : ... .. D ... ... ... : ... .. . ... : ... .. . ... : ... .. . ... ... : ... .. . ... ... : ... .. . ... ... : ... .. . ... ...
ROW 78 : ... .. 0 ... V00 ... : ... .. 0 ... ... ... : ... .. . ... : ... .. . ... : ... .. . ... ... : --- .. . P7F ... : --- .. . ... ... : ... .. . ... ...
ROW 79 : ... .. . ... ... ... : ... .. . ... ... ... : ... .. . ... : ... .. . ... : ... .. . ... ... : ... .. . ... ... : ... .. . ... ... : ... .. . ... ...
ROW 7A : B-2 00 F P80 V01 ... : F#3 00 F P80 ... ... : F-3 00 . ... : D-# 00 F ... : ... .. . ... ... : D#4 01 A P80 ... : D#5 01 A ... ... : ... .. . ... ...
ROW 7B : ... .. E ... ... ... : ... .. E ... ... ... : ... .. . ... : ... .. C ... : ... .. . ... ... : ... .. 9 ... ... : ... .. 9 ... ... : ... .. . ... ...
ROW 7C : ... .. D ... ... ... : ... .. D ... ... ... : ... .. . ... : ... .. 6 ... : ... .. . ... ... : ... .. . ... ... : ... .. . ... ... : ... .. . ... ...
ROW 7D : ... .. A ... ... ... : ... .. A ... ... ... : --- .. . ... : ... .. 3 ... : ... .. . ... ... : --- .. . ... ... : --- .. . ... ... : ... .. . ... ...
ROW 7E : ... .. . ... ... ... : ... .. . ... ... ... : ... .. . ... : ... .. 2 ... : ... .. . ... ... : ... .. . ... ... : ... .. . ... ... : ... .. . ... ...
ROW 7F : ... .. . ... ... ... : ... .. . ... ... ... : F-3 00 . ... : ... .. F ... : ... .. . ... ... : F#3 01 A ... ... : F#4 01 A ... ... : ... .. . ... ...
ROW 80 : ... .. . ... ... ... : ... .. . ... ... ... : ... .. . ... : ... .. C ... : ... .. . ... ... : ... .. 9 ... ... : ... .. 9 ... ... : ... .. . ... ...
ROW 81 : ... .. . ... ... ... : ... .. . ... ... ... : ... .. . ... : ... .. 6 ... : ... .. . ... ... : ... .. . ... ... : ... .. . ... ... : ... .. . ... ...
ROW 82 : ... .. 0 ... V00 ... : ... .. 0 ... ... ... : --- .. . ... : ... .. 3 ... : ... .. . ... ... : --- .. . P7F ... : --- .. . ... ... : ... .. . ... ...
ROW 83 : ... .. . ... ... ... : ... .. . ... ... ... : ... .. . ... : ... .. 2 ... : ... .. . ... ... : ... .. . ... ... : ... .. . ... ... : ... .. . ... ...
ROW 84 : A#2 00 F P80 V01 ... : F-3 00 F P80 ... ... : F-3 00 . ... : 6-# 00 F ... : ... .. . ... ... : D#4 01 A P80 ... : D#5 01 A ... ... : ... .. . ... ...
ROW 85 : ... .. E ... ... ... : ... .. E ... ... ... : ... .. . ... : ... .. C ... : ... .. . ... ... : ... .. 9 ... ... : ... .. 9 ... ... : ... .. . ... ...
ROW 86 : ... .. D ... ... ... : ... .. D ... ... ... : ... .. . ... : ... .. 6 ... : ... .. . ... ... : ... .. . ... ... : ... .. . ... ... : ... .. . ... ...
ROW 87 : ... .. A ... ... ... : ... .. A ... ... ... : ... .. . ... : ... .. 3 ... : ... .. . ... ... : --- .. . ... ... : --- .. . ... ... : ... .. . ... ...
ROW 88 : ... .. . ... ... ... : ... .. . ... ... ... : ... .. . ... : ... .. 2 ... : ... .. . ... ... : ... .. . ... ... : ... .. . ... ... : ... .. . ... ...
ROW 89 : ... .. . ... ... ... : ... .. . ... ... ... : --- .. . ... : ... .. 0 ... : ... .. . ... ... : F#3 01 A ... ... : F#4 01 A ... ... : ... .. . ... ...
ROW 8A : ... .. . ... ... ... : ... .. . ... ... ... : ... .. . ... : ... .. . ... : ... .. . ... ... : ... .. 9 ... ... : ... .. 9 ... ... : ... .. . ... ...
ROW 8B : ... .. . ... ... ... : ... .. . ... ... ... : ... .. . ... : ... .. . ... : ... .. . ... ... : ... .. . ... ... : ... .. . ... ... : ... .. . ... ...
ROW 8C : ... .. 0 ... V00 ... : ... .. 0 ... ... ... : ... .. . ... : ... .. . ... : ... .. . ... ... : --- .. . P7F ... : --- .. . ... ... : ... .. . ... ...
ROW 8D : ... .. . ... ... ... : ... .. . ... ... ... : ... .. . ... : ... .. . ... : ... .. . ... ... : ... .. . ... ... : ... .. . ... ... : ... .. . ... ...
ROW 8E : G#2 00 F P80 V01 ... : D#3 00 F P80 ... ... : F-3 00 . ... : D-# 00 F ... : ... .. . ... ... : D#4 01 A P80 ... : D#5 01 A ... ... : ... .. . ... ...
ROW 8F : ... .. E ... ... ... : ... .. E ... ... ... : ... .. . ... : ... .. C ... : ... .. . ... ... : ... .. 9 ... ... : ... .. 9 ... ... : ... .. . ... ...
ROW 90 : ... .. D ... ... ... : ... .. D ... ... ... : ... .. . ... : ... .. 6 ... : ... .. . ... ... : ... .. . ... ... : ... .. . ... ... : ... .. . ... ...
ROW 91 : ... .. 0 ... V00 ... : ... .. 0 ... ... ... : --- .. . ... : ... .. 3 ... : ... .. . ... ... : --- .. . ... ... : --- .. . ... ... : ... .. . ... ...
ROW 92 : ... .. . ... ... ... : ... .. . ... ... ... : ... .. . ... : ... .. 2 ... : ... .. . ... ... : ... .. . ... ... : ... .. . ... ... : ... .. . ... ...
ROW 93 : F-2 00 F P80 V01 ... : C-3 00 F P80 ... ... : F-3 00 . ... : ... .. 0 ... : ... .. . ... ... : F#3 01 A ... ... : F#4 01 A ... ... : ... .. . ... ...
ROW 94 : ... .. E ... ... ... : ... .. E ... ... ... : ... .. . ... : ... .. . ... : ... .. . ... ... : ... .. 9 ... ... : ... .. 9 ... ... : ... .. . ... ...
ROW 95 : ... .. D ... ... ... : ... .. D ... ... ... : ... .. . ... : ... .. . ... : ... .. . ... ... : ... .. . ... ... : ... .. . ... ... : ... .. . ... ...
ROW 96 : ... .. A ... ... ... : ... .. A ... ... ... : --- .. . ... : ... .. . ... : ... .. . ... ... : --- .. . P7F ... : --- .. . ... ... : ... .. . ... ...
ROW 97 : ... .. . ... ... ... : ... .. . ... ... ... : ... .. . ... : ... .. . ... : ... .. . ... ... : ... .. . ... ... : ... .. . ... ... : ... .. . ... ...
ROW 98 : ... .. . ... ... ... : ... .. . ... ... ... : F-3 00 . ... : 3-# 00 F ... : ... .. . ... ... : D-4 01 A P80 ... : D-5 01 A ... ... : ... .. . ... ...
ROW 99 : ... .. . ... ... ... : ... .. . ... ... ... : ... .. . ... : ... .. C ... : ... .. . ... ... : ... .. 9 ... ... : ... .. 9 ... ... : ... .. . ... ...
ROW 9A : ... .. . ... ... ... : ... .. . ... ... ... : ... .. . ... : ... .. 6 ... : ... .. . ... ... : ... .. . ... ... : ... .. . ... ... : ... .. . ... ...
ROW 9B : ... .. 0 ... V00 ... : ... .. 0 ... ... ... : ... .. . ... : ... .. 3 ... : ... .. . ... ... : --- .. . ... ... : --- .. . ... ... : ... .. . ... ...
ROW 9C : ... .. . ... ... ... : ... .. . ... ... ... : ... .. . ... : ... .. 2 ... : ... .. . ... ... : ... .. . ... ... : ... .. . ... ... : ... .. . ... ...
ROW 9D : F-4 00 F P80 V01 ... : C-5 00 F P80 ... ... : ... .. . ... : ... .. 0 ... : ... .. . ... ... : F-3 01 A ... ... : F-4 01 A ... ... : ... .. . ... ...
ROW 9E : ... .. E ... ... ... : ... .. E ... ... ... : ... .. . ... : ... .. . ... : ... .. . ... ... : ... .. 9 ... ... : ... .. 9 ... ... : ... .. . ... ...
ROW 9F : ... .. D ... ... ... : ... .. D ... ... ... : ... .. . ... : ... .. . ... : ... .. . ... ... : ... .. . ... ... : ... .. . ... ... : ... .. . ... ...
ROW A0 : ... .. 0 ... V00 ... : ... .. 0 ... ... ... : ... .. . ... : ... .. . ... : ... .. . ... ... : --- .. . ... ... : --- .. . ... ... : ... .. . ... ...
ROW A1 : ... .. . ... ... ... : ... .. . ... ... ... : ... .. . ... : ... .. . ... : ... .. . ... ... : ... .. . ... ... : ... .. . ... ... : ... .. . ... ...
ROW A2 : E-4 00 F P80 V01 ... : B-4 00 F P80 ... ... : C-4 00 . ... : ... .. . ... : ... .. . ... ... : D-4 01 A ... ... : D-5 01 A ... ... : ... .. . ... ...
ROW A3 : ... .. E ... ... ... : ... .. E ... ... ... : C#4 00 . P83 : ... .. . ... : ... .. . ... ... : ... .. 9 ... ... : ... .. 9 ... ... : ... .. . ... ...
ROW A4 : ... .. D ... ... ... : ... .. D ... ... ... : D#4 00 . P7C : ... .. . ... : ... .. . ... ... : ... .. . ... ... : ... .. . ... ... : ... .. . ... ...
ROW A5 : ... .. 0 ... V00 ... : ... .. 0 ... ... ... : E-4 00 . P81 : ... .. . ... : ... .. . ... ... : --- .. . ... ... : --- .. . ... ... : ... .. . ... ...
ROW A6 : ... .. . ... ... ... : ... .. . ... ... ... : F#4 00 . P7D : ... .. . ... : ... .. . ... ... : ... .. . ... ... : ... .. . ... ... : ... .. . ... ...
ROW A7 : D#4 00 F P80 V01 ... : A#4 00 F P80 ... ... : G-4 00 . P84 : ... .. . ... : ... .. . ... ... : F-3 01 A ... ... : F-4 01 A ... ... : ... .. . ... ...
ROW A8 : ... .. E ... ... ... : ... .. E ... ... ... : G#4 00 . P80 : ... .. . ... : ... .. . ... ... : ... .. 9 ... ... : ... .. 9 ... ... : ... .. . ... ...
ROW A9 : ... .. D ... ... ... : ... .. D ... ... ... : ... .. . ... : ... .. . ... : ... .. . ... ... : ... .. . ... ... : ... .. . ... ... : ... .. . ... ...
ROW AA : ... .. 0 ... V00 ... : ... .. 0 ... ... ... : ... .. . ... : ... .. . ... : ... .. . ... ... : --- .. . ... ... : --- .. . ... ... : ... .. . ... ...
ROW AB : ... .. . ... ... ... : ... .. . ... ... ... : ... .. . ... : ... .. . ... : ... .. . ... ... : ... .. . ... ... : ... .. . ... ... : ... .. . ... ...
ROW AC : D-4 00 F P80 V01 ... : A-4 00 F P80 ... ... : B-1 00 . ... : ... .. . ... : ... .. . ... ... : D-4 01 A ... ... : D-5 01 A ... ... : ... .. . ... ...
ROW AD : ... .. E ... ... ... : ... .. E ... ... ... : ... .. . ... : ... .. . ... : ... .. . ... ... : ... .. 9 ... ... : ... .. 9 ... ... : ... .. . ... ...
ROW AE : ... .. D ... ... ... : ... .. D ... ... ... : ... .. . ... : ... .. . ... : ... .. . ... ... : ... .. . ... ... : ... .. . ... ... : ... .. . ... ...
ROW AF : ... .. 0 ... V00 ... : ... .. 0 ... ... ... : ... .. . ... : ... .. . ... : ... .. . ... ... : --- .. . ... ... : --- .. . ... ... : ... .. . ... ...
ROW B0 : ... .. . ... ... ... : ... .. . ... ... ... : ... .. . ... : ... .. . ... : ... .. . ... ... : ... .. . ... ... : ... .. . ... ... : ... .. . ... ...
ROW B1 : C#4 00 F P80 V01 ... : G#4 00 F P80 ... ... : ... .. . ... : ... .. . ... : ... .. . ... ... : F-3 01 A ... ... : F-4 01 A ... ... : ... .. . ... ...
ROW B2 : ... .. E ... ... ... : ... .. E ... ... ... : ... .. . P8F : ... .. . ... : ... .. . ... ... : ... .. 9 ... ... : ... .. 9 ... ... : ... .. . ... ...
ROW B3 : ... .. D ... ... ... : ... .. D ... ... ... : C-2 00 . P6B : ... .. . ... : ... .. . ... ... : ... .. . ... ... : ... .. . ... ... : ... .. . ... ...
ROW B4 : ... .. 0 ... V00 ... : ... .. 0 ... ... ... : ... .. . P7A : ... .. . ... : ... .. . ... ... : --- .. . ... ... : --- .. . ... ... : ... .. . ... ...
ROW B5 : ... .. . ... ... ... : ... .. . ... ... ... : ... .. . P89 : ... .. . ... : ... .. . ... ... : ... .. . ... ... : ... .. . ... ... : ... .. . ... ...
ROW B6 : C-4 00 F P80 V01 ... : G-4 00 F P80 ... ... : ... .. . P98 : ... .. . ... : ... .. . ... ... : D-4 01 A ... ... : D-5 01 A ... ... : ... .. . ... ...
ROW B7 : ... .. E ... ... ... : ... .. E ... ... ... : C#2 00 . P77 : ... .. . ... : ... .. . ... ... : ... .. 9 ... ... : ... .. 9 ... ... : ... .. . ... ...
ROW B8 : ... .. D ... ... ... : ... .. D ... ... ... : ... .. . P86 : ... .. . ... : ... .. . ... ... : ... .. . ... ... : ... .. . ... ... : ... .. . ... ...
ROW B9 : ... .. 0 ... V00 ... : ... .. 0 ... ... ... : ... .. . P95 : ... .. . ... : ... .. . ... ... : --- .. . ... ... : --- .. . ... ... : ... .. . ... ...
ROW BA : ... .. . ... ... ... : ... .. . ... ... ... : D-2 00 . P77 : ... .. . ... : ... .. . ... ... : ... .. . ... ... : ... .. . ... ... : ... .. . ... ...
ROW BB : B-3 00 F P80 V01 ... : F#4 00 F P80 ... ... : ... .. . P86 : ... .. . ... : ... .. . ... ... : F-3 01 A ... ... : F-4 01 A ... ... : ... .. . ... ...
ROW BC : ... .. E ... ... ... : ... .. E ... ... ... : ... .. . P95 : ... .. . ... : ... .. . ... ... : ... .. 9 ... ... : ... .. 9 ... ... : ... .. . ... ...
ROW BD : ... .. D ... ... ... : ... .. D ... ... ... : D#2 00 . P79 : ... .. . ... : ... .. . ... ... : ... .. . ... ... : ... .. . ... ... : ... .. . ... ...
ROW BE : ... .. 0 ... V00 ... : ... .. 0 ... ... ... : ... .. . P88 : ... .. . ... : ... .. . ... ... : --- .. . ... ... : --- .. . ... ... : ... .. . ... ...
ROW BF : ... .. . ... ... ... : ... .. . ... ... ... : E-2 00 . P6F : ... .. . ... : ... .. . ... ... : ... .. . ... ... : ... .. . ... ... : ... .. . ... ...
ROW C0 : F-2 00 F P80 V01 ... : C-3 00 F P80 ... ... : F-2 00 . P80 : ... .. F ... : ... .. . ... ... : F-4 01 A ... ... : F-5 01 A ... ... : ... .. . ... ...
ROW C1 : ... .. E ... ... ... : ... .. E ... ... ... : ... .. . ... : ... .. C ... : ... .. . ... ... : ... .. 9 ... ... : ... .. 9 ... ... : ... .. . ... ...
ROW C2 : ... .. D ... ... ... : ... .. D ... ... ... : ... .. . ... : ... .. 6 ... : ... .. . ... ... : ... .. . ... ... : ... .. . ... ... : ... .. . ... ...
ROW C3 : ... .. 0 ... V00 ... : ... .. 0 ... ... ... : ... .. . ... : ... .. 3 ... : ... .. . ... ... : --- .. . ... ... : --- .. . ... ... : ... .. . ... ...
ROW C4 : ... .. . ... ... ... : ... .. . ... ... ... : ... .. . ... : ... .. 2 ... : ... .. . ... ... : ... .. . ... ... : ... .. . ... ... : ... .. . ... ...
ROW C5 : F-2 00 F P80 V01 ... : C-3 00 F P80 ... ... : --- .. . ... : ... .. 0 ... : ... .. . ... ... : G#3 01 A ... ... : G#4 01 A ... ... : ... .. . ... ...
ROW C6 : ... .. E ... ... ... : ... .. E ... ... ... : ... .. . ... : ... .. . ... : ... .. . ... ... : ... .. 9 ... ... : ... .. 9 ... ... : ... .. . ... ...
ROW C7 : ... .. D ... ... ... : ... .. D ... ... ... : ... .. . ... : ... .. . ... : ... .. . ... ... : ... .. . ... ... : ... .. . ... ... : ... .. . ... ...
ROW C8 : ... .. 0 ... V00 ... : ... .. 0 ... ... ... : ... .. . ... : ... .. . ... : ... .. . ... ... : --- .. . P82 ... : --- .. . ... ... : ... .. . ... ...
ROW C9 : ... .. . ... ... ... : ... .. . ... ... ... : ... .. . ... : ... .. . ... : ... .. . ... ... : ... .. . ... ... : ... .. . ... ... : ... .. . ... ...
ROW CA : B-2 00 F P80 V01 ... : F#3 00 F P80 ... ... : F-2 00 . ... : D-# 00 F ... : ... .. . ... ... : F-4 01 A P80 ... : F-5 01 A ... ... : ... .. . ... ...
ROW CB : ... .. E ... ... ... : ... .. E ... ... ... : ... .. . ... : ... .. C ... : ... .. . ... ... : ... .. 9 ... ... : ... .. 9 ... ... : ... .. . ... ...
ROW CC : ... .. D ... ... ... : ... .. D ... ... ... : ... .. . ... : ... .. 6 ... : ... .. . ... ... : ... .. . ... ... : ... .. . ... ... : ... .. . ... ...
ROW CD : ... .. A ... ... ... : ... .. A ... ... ... : --- .. . ... : ... .. 3 ... : ... .. . ... ... : --- .. . ... ... : --- .. . ... ... : ... .. . ... ...
ROW CE : ... .. . ... ... ... : ... .. . ... ... ... : ... .. . ... : ... .. 2 ... : ... .. . ... ... : ... .. . ... ... : ... .. . ... ... : ... .. . ... ...
ROW CF : ... .. . ... ... ... : ... .. . ... ... ... : F-2 00 . ... : ... .. F ... : ... .. . ... ... : G#3 01 A ... ... : G#4 01 A ... ... : ... .. . ... ...
ROW D0 : ... .. . ... ... ... : ... .. . ... ... ... : ... .. . ... : ... .. C ... : ... .. . ... ... : ... .. 9 ... ... : ... .. 9 ... ... : ... .. . ... ...
ROW D1 : ... .. . ... ... ... : ... .. . ... ... ... : ... .. . ... : ... .. 6 ... : ... .. . ... ... : ... .. . ... ... : ... .. . ... ... : ... .. . ... ...
ROW D2 : ... .. 0 ... V00 ... : ... .. 0 ... ... ... : --- .. . ... : ... .. 3 ... : ... .. . ... ... : --- .. . P82 ... : --- .. . ... ... : ... .. . ... ...
ROW D3 : ... .. . ... ... ... : ... .. . ... ... ... : ... .. . ... : ... .. 2 ... : ... .. . ... ... : ... .. . ... ... : ... .. . ... ... : ... .. . ... ...
ROW D4 : A#2 00 F P80 V01 ... : F-3 00 F P80 ... ... : F-2 00 . ... : 6-# 00 F ... : ... .. . ... ... : F-4 01 A P80 ... : F-5 01 A ... ... : ... .. . ... ...
ROW D5 : ... .. E ... ... ... : ... .. E ... ... ... : ... .. . ... : ... .. C ... : ... .. . ... ... : ... .. 9 ... ... : ... .. 9 ... ... : ... .. . ... ...
ROW D6 : ... .. D ... ... ... : ... .. D ... ... ... : ... .. . ... : ... .. 6 ... : ... .. . ... ... : ... .. . ... ... : ... .. . ... ... : ... .. . ... ...
ROW D7 : ... .. A ... ... ... : ... .. A ... ... ... : ... .. . ... : ... .. 3 ... : ... .. . ... ... : --- .. . ... ... : --- .. . ... ... : ... .. . ... ...
ROW D8 : ... .. . ... ... ... : ... .. . ... ... ... : ... .. . ... : ... .. 2 ... : ... .. . ... ... : ... .. . ... ... : ... .. . ... ... : ... .. . ... ...
ROW D9 : ... .. . ... ... ... : ... .. . ... ... ... : --- .. . ... : ... .. 0 ... : ... .. . ... ... : G#3 01 A ... ... : G#4 01 A ... ... : ... .. . ... ...
ROW DA : ... .. . ... ... ... : ... .. . ... ... ... : ... .. . ... : ... .. . ... : ... .. . ... ... : ... .. 9 ... ... : ... .. 9 ... ... : ... .. . ... ...
ROW DB : ... .. . ... ... ... : ... .. . ... ... ... : ... .. . ... : ... .. . ... : ... .. . ... ... : ... .. . ... ... : ... .. . ... ... : ... .. . ... ...
ROW DC : ... .. 0 ... V00 ... : ... .. 0 ... ... ... : ... .. . ... : ... .. . ... : ... .. . ... ... : --- .. . P82 ... : --- .. . ... ... : ... .. . ... ...
ROW DD : ... .. . ... ... ... : ... .. . ... ... ... : ... .. . ... : ... .. . ... : ... .. . ... ... : ... .. . ... ... : ... .. . ... ... : ... .. . ... ...
ROW DE : G#2 00 F P80 V01 ... : D#3 00 F P80 ... ... : F-2 00 . ... : D-# 00 F ... : ... .. . ... ... : F-4 01 A P80 ... : F-5 01 A ... ... : ... .. . ... ...
ROW DF : ... .. E ... ... ... : ... .. E ... ... ... : ... .. . ... : ... .. C ... : ... .. . ... ... : ... .. 9 ... ... : ... .. 9 ... ... : ... .. . ... ...
ROW E0 : ... .. D ... ... ... : ... .. D ... ... ... : ... .. . ... : ... .. 6 ... : ... .. . ... ... : ... .. . ... ... : ... .. . ... ... : ... .. . ... ...
ROW E1 : ... .. 0 ... V00 ... : ... .. 0 ... ... ... : --- .. . ... : ... .. 3 ... : ... .. . ... ... : --- .. . ... ... : --- .. . ... ... : ... .. . ... ...
ROW E2 : ... .. . ... ... ... : ... .. . ... ... ... : ... .. . ... : ... .. 2 ... : ... .. . ... ... : ... .. . ... ... : ... .. . ... ... : ... .. . ... ...
ROW E3 : F-2 00 F P80 V01 ... : C-3 00 F P80 ... ... : F-2 00 . ... : ... .. F ... : ... .. . ... ... : G#3 01 A ... ... : G#4 01 A ... ... : ... .. . ... ...
ROW E4 : ... .. E ... ... ... : ... .. E ... ... ... : ... .. . ... : ... .. C ... : ... .. . ... ... : ... .. 9 ... ... : ... .. 9 ... ... : ... .. . ... ...
ROW E5 : ... .. D ... ... ... : ... .. D ... ... ... : ... .. . ... : ... .. 6 ... : ... .. . ... ... : ... .. . ... ... : ... .. . ... ... : ... .. . ... ...
ROW E6 : ... .. A ... ... ... : ... .. A ... ... ... : --- .. . ... : ... .. 3 ... : ... .. . ... ... : --- .. . P82 ... : --- .. . ... ... : ... .. . ... ...
ROW E7 : ... .. . ... ... ... : ... .. . ... ... ... : ... .. . ... : ... .. 2 ... : ... .. . ... ... : ... .. . ... ... : ... .. . ... ... : ... .. . ... ...
ROW E8 : ... .. . ... ... ... : ... .. . ... ... ... : F-2 00 . ... : 3-# 00 F ... : ... .. . ... ... : E-4 01 A P80 ... : E-5 01 A ... ... : ... .. . ... ...
ROW E9 : ... .. . ... ... ... : ... .. . ... ... ... : ... .. . ... : ... .. C ... : ... .. . ... ... : ... .. 9 ... ... : ... .. 9 ... ... : ... .. . ... ...
ROW EA : ... .. . ... ... ... : ... .. . ... ... ... : ... .. . ... : ... .. 6 ... : ... .. . ... ... : ... .. . ... ... : ... .. . ... ... : ... .. . ... ...
ROW EB : ... .. 0 ... V00 ... : ... .. 0 ... ... ... : ... .. . ... : ... .. 3 ... : ... .. . ... ... : --- .. . ... ... : --- .. . ... ... : ... .. . ... ...
ROW EC : ... .. . ... ... ... : ... .. . ... ... ... : ... .. . ... : ... .. 2 ... : ... .. . ... ... : ... .. . ... ... : ... .. . ... ... : ... .. . ... ...
ROW ED : F-2 00 F P80 V01 ... : C-3 00 F P80 ... ... : --- .. . ... : ... .. 0 ... : ... .. . ... ... : G-3 01 A ... ... : G-4 01 A ... ... : ... .. . ... ...
ROW EE : ... .. E ... ... ... : ... .. E ... ... ... : ... .. . ... : ... .. . ... : ... .. . ... ... : ... .. 9 ... ... : ... .. 9 ... ... : ... .. . ... ...
ROW EF : ... .. D ... ... ... : ... .. D ... ... ... : ... .. . ... : ... .. . ... : ... .. . ... ... : ... .. . ... ... : ... .. . ... ... : ... .. . ... ...
ROW F0 : ... .. 0 ... V00 ... : ... .. 0 ... ... ... : ... .. . ... : ... .. . ... : ... .. . ... ... : --- .. . P81 ... : --- .. . ... ... : ... .. . ... ...
ROW F1 : ... .. . ... ... ... : ... .. . ... ... ... : ... .. . ... : ... .. . ... : ... .. . ... ... : ... .. . ... ... : ... .. . ... ... : ... .. . ... ...
ROW F2 : B-2 00 F P80 V01 ... : F#3 00 F P80 ... ... : F-2 00 . ... : D-# 00 F ... : ... .. . ... ... : E-4 01 A P80 ... : E-5 01 A ... ... : ... .. . ... ...
ROW F3 : ... .. E ... ... ... : ... .. E ... ... ... : ... .. . ... : ... .. C ... : ... .. . ... ... : ... .. 9 ... ... : ... .. 9 ... ... : ... .. . ... ...
ROW F4 : ... .. D ... ... ... : ... .. D ... ... ... : ... .. . ... : ... .. 6 ... : ... .. . ... ... : ... .. . ... ... : ... .. . ... ... : ... .. . ... ...
ROW F5 : ... .. A ... ... ... : ... .. A ... ... ... : --- .. . ... : ... .. 3 ... : ... .. . ... ... : --- .. . ... ... : --- .. . ... ... : ... .. . ... ...
ROW F6 : ... .. . ... ... ... : ... .. . ... ... ... : ... .. . ... : ... .. 2 ... : ... .. . ... ... : ... .. . ... ... : ... .. . ... ... : ... .. . ... ...
ROW F7 : ... .. . ... ... ... : ... .. . ... ... ... : F-2 00 . ... : ... .. F ... : ... .. . ... ... : G-3 01 A ... ... : G-4 01 A ... ... : ... .. . ... ...
ROW F8 : ... .. . ... ... ... : ... .. . ... ... ... : ... .. . ... : ... .. C ... : ... .. . ... ... : ... .. 9 ... ... : ... .. 9 ... ... : ... .. . ... ...
ROW F9 : ... .. . ... ... ... : ... .. . ... ... ... : ... .. . ... : ... .. 6 ... : ... .. . ... ... : ... .. . ... ... : ... .. . ... ... : ... .. . ... ...
ROW FA : ... .. 0 ... V00 ... : ... .. 0 ... ... ... : --- .. . ... : ... .. 3 ... : ... .. . ... ... : --- .. . P81 ... : --- .. . ... ... : ... .. . ... ...
ROW FB : ... .. . ... ... ... : ... .. . ... ... ... : ... .. . ... : ... .. 2 ... : ... .. . ... ... : ... .. . ... ... : ... .. . ... ... : ... .. . ... ...
ROW FC : A#2 00 F P80 V01 ... : F-3 00 F P80 ... ... : F-2 00 . ... : 6-# 00 F ... : ... .. . ... ... : E-4 01 A P80 ... : E-5 01 A ... ... : ... .. . ... ...
ROW FD : ... .. E ... ... ... : ... .. E ... ... ... : ... .. . ... : ... .. C ... : ... .. . ... ... : ... .. 9 ... ... : ... .. 9 ... ... : ... .. . ... ...
ROW FE : ... .. D ... ... ... : ... .. D ... ... ... : ... .. . ... : ... .. 6 ... : ... .. . ... ... : ... .. . ... ... : ... .. . ... ... : ... .. . ... ...
ROW FF : ... .. A ... ... ... : ... .. A ... ... ... : --- .. . ... : ... .. 3 ... : ... .. . ... ... : --- .. . ... ... : --- .. . ... ... : ... .. . ... ...

PATTERN 18
ROW 00 : ... .. . ... ... ... : ... .. . ... ... ... : ... .. . ... : ... .. 2 ... : ... .. . ... ... : ... .. . ... ... : ... .. . ... ... : ... .. . ... ...
ROW 01 : ... .. . ... ... ... : ... .. . ... ... ... : F-2 00 . ... : ... .. 0 ... : ... .. . ... ... : G-3 01 A ... ... : G-4 01 A ... ... : ... .. . ... ...
ROW 02 : ... .. . ... ... ... : ... .. . ... ... ... : ... .. . ... : ... .. . ... : ... .. . ... ... : ... .. 9 ... ... : ... .. 9 ... ... : ... .. . ... ...
ROW 03 : ... .. . ... ... ... : ... .. . ... ... ... : ... .. . ... : ... .. . ... : ... .. . ... ... : ... .. . ... ... : ... .. . ... ... : ... .. . ... ...
ROW 04 : ... .. 0 ... V00 ... : ... .. 0 ... ... ... : --- .. . ... : ... .. . ... : ... .. . ... ... : --- .. . P81 ... : --- .. . ... ... : ... .. . ... ...
ROW 05 : ... .. . ... ... ... : ... .. . ... ... ... : ... .. . ... : ... .. . ... : ... .. . ... ... : ... .. . ... ... : ... .. . ... ... : ... .. . ... ...
ROW 06 : G#2 00 F P80 V01 ... : D#3 00 F P80 ... ... : F-2 00 . ... : D-# 00 F ... : ... .. . ... ... : E-4 01 A P80 ... : E-5 01 A ... ... : ... .. . ... ...
ROW 07 : ... .. E ... ... ... : ... .. E ... ... ... : ... .. . ... : ... .. C ... : ... .. . ... ... : ... .. 9 ... ... : ... .. 9 ... ... : ... .. . ... ...
ROW 08 : ... .. D ... ... ... : ... .. D ... ... ... : ... .. . ... : ... .. 6 ... : ... .. . ... ... : ... .. . ... ... : ... .. . ... ... : ... .. . ... ...
ROW 09 : ... .. A ... ... ... : ... .. A ... ... ... : --- .. . ... : ... .. 3 ... : ... .. . ... ... : --- .. . ... ... : --- .. . ... ... : ... .. . ... ...
ROW 0A : ... .. . ... ... ... : ... .. . ... ... ... : ... .. . ... : ... .. 2 ... : ... .. . ... ... : ... .. . ... ... : ... .. . ... ... : ... .. . ... ...
ROW 0B : ... .. . ... ... ... : ... .. . ... ... ... : F-2 00 . ... : ... .. 0 ... : ... .. . ... ... : G-3 01 A ... ... : G-4 01 A ... ... : ... .. . ... ...
ROW 0C : ... .. . ... ... ... : ... .. . ... ... ... : ... .. . ... : ... .. . ... : ... .. . ... ... : ... .. 9 ... ... : ... .. 9 ... ... : ... .. . ... ...
ROW 0D : ... .. . ... ... ... : ... .. . ... ... ... : ... .. . ... : ... .. . ... : ... .. . ... ... : ... .. . ... ... : ... .. . ... ... : ... .. . ... ...
ROW 0E : ... .. 0 ... V00 ... : ... .. 0 ... ... ... : --- .. . ... : ... .. . ... : ... .. . ... ... : --- .. . P81 ... : --- .. . ... ... : ... .. . ... ...
ROW 0F : ... .. . ... ... ... : ... .. . ... ... ... : ... .. . ... : ... .. . ... : ... .. . ... ... : ... .. . ... ... : ... .. . ... ... : ... .. . ... ...
ROW 10 : F-2 00 F P80 V01 ... : C-3 00 F P80 ... ... : F-2 00 . ... : 3-# 00 F ... : ... .. . ... ... : D#4 01 A P80 ... : D#5 01 A ... ... : ... .. . ... ...
ROW 11 : ... .. E ... ... ... : ... .. E ... ... ... : ... .. . ... : ... .. C ... : ... .. . ... ... : ... .. 9 ... ... : ... .. 9 ... ... : ... .. . ... ...
ROW 12 : ... .. D ... ... ... : ... .. D ... ... ... : ... .. . ... : ... .. 6 ... : ... .. . ... ... : ... .. . ... ... : ... .. . ... ... : ... .. . ... ...
ROW 13 : ... .. 0 ... V00 ... : ... .. 0 ... ... ... : ... .. . ... : ... .. 3 ... : ... .. . ... ... : --- .. . ... ... : --- .. . ... ... : ... .. . ... ...
ROW 14 : ... .. . ... ... ... : ... .. . ... ... ... : ... .. . ... : ... .. 2 ... : ... .. . ... ... : ... .. . ... ... : ... .. . ... ... : ... .. . ... ...
ROW 15 : F-2 00 F P80 V01 ... : C-3 00 F P80 ... ... : ... .. . ... : ... .. 0 ... : ... .. . ... ... : F#3 01 A ... ... : F#4 01 A ... ... : ... .. . ... ...
ROW 16 : ... .. E ... ... ... : ... .. E ... ... ... : ... .. . ... : ... .. . ... : ... .. . ... ... : ... .. 9 ... ... : ... .. 9 ... ... : ... .. . ... ...
ROW 17 : ... .. D ... ... ... : ... .. D ... ... ... : ... .. . ... : ... .. . ... : ... .. . ... ... : ... .. . ... ... : ... .. . ... ... : ... .. . ... ...
ROW 18 : ... .. 0 ... V00 ... : ... .. 0 ... ... ... : ... .. . ... : ... .. . ... : ... .. . ... ... : --- .. . P7F ... : --- .. . ... ... : ... .. . ... ...
ROW 19 : ... .. . ... ... ... : ... .. . ... ... ... : ... .. . ... : ... .. . ... : ... .. . ... ... : ... .. . ... ... : ... .. . ... ... : ... .. . ... ...
ROW 1A : A#2 00 F P80 V01 ... : F-3 00 F P80 ... ... : A#2 00 . ... : D-# 00 F ... : ... .. . ... ... : A#3 01 A P80 ... : A#4 01 A ... ... : ... .. . ... ...
ROW 1B : ... .. E ... ... ... : ... .. E ... ... ... : ... .. . ... : ... .. C ... : ... .. . ... ... : ... .. 9 ... ... : ... .. 9 ... ... : ... .. . ... ...
ROW 1C : ... .. D ... ... ... : ... .. D ... ... ... : ... .. . ... : ... .. 6 ... : ... .. . ... ... : ... .. . ... ... : ... .. . ... ... : ... .. . ... ...
ROW 1D : ... .. 0 ... V00 ... : ... .. 0 ... ... ... : --- .. . ... : ... .. 3 ... : ... .. . ... ... : --- .. . ... ... : --- .. . ... ... : ... .. . ... ...
ROW 1E : ... .. . ... ... ... : ... .. . ... ... ... : ... .. . ... : ... .. 2 ... : ... .. . ... ... : ... .. . ... ... : ... .. . ... ... : ... .. . ... ...
ROW 1F : B-2 00 F P80 V01 ... : F#3 00 F P80 ... ... : B-2 00 . ... : ... .. F ... : ... .. . ... ... : B-3 01 A ... ... : B-4 01 A ... ... : ... .. . ... ...
ROW 20 : ... .. E ... ... ... : ... .. E ... ... ... : ... .. . ... : ... .. C ... : ... .. . ... ... : ... .. 9 ... ... : ... .. 9 ... ... : ... .. . ... ...
ROW 21 : ... .. D ... ... ... : ... .. D ... ... ... : ... .. . ... : ... .. 6 ... : ... .. . ... ... : ... .. . ... ... : ... .. . ... ... : ... .. . ... ...
ROW 22 : ... .. 0 ... V00 ... : ... .. 0 ... ... ... : --- .. . ... : ... .. 3 ... : ... .. . ... ... : --- .. . ... ... : --- .. . ... ... : ... .. . ... ...
ROW 23 : ... .. . ... ... ... : ... .. . ... ... ... : ... .. . ... : ... .. 2 ... : ... .. . ... ... : ... .. . ... ... : ... .. . ... ... : ... .. . ... ...
ROW 24 : C-3 00 F P80 V01 ... : G-3 00 F P80 ... ... : C-3 00 . ... : 6-# 00 F ... : ... .. . ... ... : C-4 01 A ... ... : C-5 01 A ... ... : ... .. . ... ...
ROW 25 : ... .. E ... ... ... : ... .. E ... ... ... : ... .. . ... : ... .. C ... : ... .. . ... ... : ... .. 9 ... ... : ... .. 9 ... ... : ... .. . ... ...
ROW 26 : ... .. D ... ... ... : ... .. D ... ... ... : ... .. . ... : ... .. 6 ... : ... .. . ... ... : ... .. . ... ... : ... .. . ... ... : ... .. . ... ...
ROW 27 : ... .. A ... ... ... : ... .. A ... ... ... : ... .. . ... : ... .. 3 ... : ... .. . ... ... : --- .. . ... ... : --- .. . ... ... : ... .. . ... ...
ROW 28 : ... .. . ... ... ... : ... .. . ... ... ... : ... .. . ... : ... .. 2 ... : ... .. . ... ... : ... .. . ... ... : ... .. . ... ... : ... .. . ... ...
ROW 29 : D#3 00 F ... ... ... : A#3 00 F ... ... ... : D#3 00 . ... : ... .. 0 ... : ... .. . ... ... : D#4 01 A ... ... : D#5 01 A ... ... : ... .. . ... ...
ROW 2A : ... .. E ... ... ... : ... .. E ... ... ... : ... .. . ... : ... .. . ... : ... .. . ... ... : ... .. 9 ... ... : ... .. 9 ... ... : ... .. . ... ...
ROW 2B : ... .. D ... ... ... : ... .. D ... ... ... : ... .. . ... : ... .. . ... : ... .. . ... ... : ... .. . ... ... : ... .. . ... ... : ... .. . ... ...
ROW 2C : ... .. 0 ... V00 ... : ... .. 0 ... ... ... : ... .. . ... : ... .. . ... : ... .. . ... ... : --- .. . ... ... : --- .. . ... ... : ... .. . ... ...
ROW 2D : ... .. . ... ... ... : ... .. . ... ... ... : ... .. . ... : ... .. . ... : ... .. . ... ... : ... .. . ... ... : ... .. . ... ... : ... .. . ... ...
ROW 2E : C-3 00 F P80 V01 ... : G-3 00 F P80 ... ... : C-3 00 . ... : D-# 00 F ... : ... .. . ... ... : C-4 01 A ... ... : C-5 01 A ... ... : ... .. . ... ...
ROW 2F : ... .. E ... ... ... : ... .. E ... ... ... : ... .. . ... : ... .. C ... : ... .. . ... ... : ... .. 9 ... ... : ... .. 9 ... ... : ... .. . ... ...
ROW 30 : ... .. D ... ... ... : ... .. D ... ... ... : ... .. . ... : ... .. 6 ... : ... .. . ... ... : ... .. . ... ... : ... .. . ... ... : ... .. . ... ...
ROW 31 : ... .. 0 ... V00 ... : ... .. 0 ... ... ... : --- .. . ... : ... .. 3 ... : ... .. . ... ... : --- .. . ... ... : --- .. . ... ... : ... .. . ... ...
ROW 32 : ... .. . ... ... ... : ... .. . ... ... ... : ... .. . ... : ... .. 2 ... : ... .. . ... ... : ... .. . ... ... : ... .. . ... ... : ... .. . ... ...
ROW 33 : F-3 00 F P80 V01 ... : C-4 00 F P80 ... ... : F-3 00 . ... : ... .. 0 ... : ... .. . ... ... : F-4 01 A ... ... : F-5 01 A ... ... : ... .. . ... ...
ROW 34 : ... .. E ... ... ... : ... .. E ... ... ... : ... .. . ... : ... .. . ... : ... .. . ... ... : ... .. 9 ... ... : ... .. 9 ... ... : ... .. . ... ...
ROW 35 : ... .. D ... ... ... : ... .. D ... ... ... : ... .. . ... : ... .. . ... : ... .. . ... ... : ... .. . ... ... : ... .. . ... ... : ... .. . ... ...
ROW 36 : ... .. A ... ... ... : ... .. A ... ... ... : ... .. . ... : ... .. . ... : ... .. . ... ... : --- .. . ... ... : --- .. . ... ... : ... .. . ... ...
ROW 37 : ... .. . ... ... ... : ... .. . ... ... ... : ... .. . ... : ... .. . ... : ... .. . ... ... : ... .. . ... ... : ... .. . ... ... : ... .. . ... ...
ROW 38 : G-3 00 4 ... ... ... : D-4 00 4 ... ... ... : ... .. . ... : 3-# 00 F ... : ... .. . ... ... : G#4 01 A ... ... : G#5 01 A ... ... : ... .. . ... ...
ROW 39 : A-3 00 3 ... ... ... : E-4 00 3 ... ... ... : ... .. . ... : ... .. C ... : ... .. . ... ... : ... .. 9 ... ... : ... .. 9 ... ... : ... .. . ... ...
ROW 3A : C-3 00 3 ... ... ... : G-3 00 3 ... ... ... : ... .. . ... : ... .. 6 ... : ... .. . ... ... : ... .. . ... ... : ... .. . ... ... : ... .. . ... ...
ROW 3B : ... .. 0 ... V00 ... : ... .. 0 ... ... ... : ... .. . ... : ... .. 3 ... : ... .. . ... ... : --- .. . ... ... : --- .. . ... ... : ... .. . ... ...
ROW 3C : ... .. . ... ... ... : ... .. . ... ... ... : ... .. . ... : ... .. 2 ... : ... .. . ... ... : ... .. . ... ... : ... .. . ... ... : ... .. . ... ...
ROW 3D : C#3 00 4 P80 V01 ... : G#3 00 4 P80 ... ... : ... .. . ... : ... .. 0 ... : ... .. . ... ... : G-4 01 A ... ... : G-5 01 A ... ... : ... .. . ... ...
ROW 3E : G#3 00 3 ... ... ... : D#4 00 3 ... ... ... : ... .. . ... : ... .. . ... : ... .. . ... ... : ... .. 9 ... ... : ... .. 9 ... ... : ... .. . ... ...
ROW 3F : A#3 00 3 ... ... ... : F-4 00 3 ... ... ... : ... .. . ... : ... .. . ... : ... .. . ... ... : ... .. . ... ... : ... .. . ... ... : ... .. . ... ...
ROW 40 : ... .. 0 ... V00 ... : ... .. 0 ... ... ... : ... .. . ... : ... .. . ... : ... .. . ... ... : --- .. . ... ... : --- .. . ... ... : ... .. . ... ...
ROW 41 : ... .. . ... ... ... : ... .. . ... ... ... : ... .. . ... : ... .. . ... : ... .. . ... ... : ... .. . ... ... : ... .. . ... ... : ... .. . ... ...
ROW 42 : B-3 00 5 P80 V01 ... : F#4 00 5 P80 ... ... : E-3 00 . P83 : ... .. . ... : ... .. . ... ... : F#4 01 A ... ... : F#5 01 A ... ... : ... .. . ... ...
ROW 43 : D-3 00 4 ... ... ... : A-3 00 4 ... ... ... : D#3 00 . P88 : ... .. . ... : ... .. . ... ... : ... .. 9 ... ... : ... .. 9 ... ... : ... .. . ... ...
ROW 44 : A-3 00 4 ... ... ... : E-4 00 4 ... ... ... : ... .. . P78 : ... .. . ... : ... .. . ... ... : ... .. . ... ... : ... .. . ... ... : ... .. . ... ...
ROW 45 : ... .. 0 ... V00 ... : ... .. 0 ... ... ... : D-3 00 . P7D : ... .. . ... : ... .. . ... ... : --- .. . ... ... : --- .. . ... ... : ... .. . ... ...
ROW 46 : ... .. . ... ... ... : ... .. . ... ... ... : C#3 00 . P84 : ... .. . ... : ... .. . ... ... : ... .. . ... ... : ... .. . ... ... : ... .. . ... ...
ROW 47 : A#3 00 6 P80 V01 ... : F-4 00 6 P80 ... ... : C-3 00 . P8C : ... .. . ... : ... .. . ... ... : F-4 01 A ... ... : F-5 01 A ... ... : ... .. . ... ...
ROW 48 : C-4 00 5 ... ... ... : G-4 00 5 ... ... ... : ... .. . P7C : ... .. . ... : ... .. . ... ... : ... .. 9 ... ... : ... .. 9 ... ... : ... .. . ... ...
ROW 49 : D#3 00 5 ... ... ... : A#3 00 5 ... ... ... : B-2 00 . P85 : ... .. . ... : ... .. . ... ... : ... .. . ... ... : ... .. . ... ... : ... .. . ... ...
ROW 4A : ... .. 0 ... V00 ... : ... .. 0 ... ... ... : ... .. . P75 : ... .. . ... : ... .. . ... ... : --- .. . ... ... : --- .. . ... ... : ... .. . ... ...
ROW 4B : ... .. . ... ... ... : ... .. . ... ... ... : A#2 00 . P80 : ... .. . ... : ... .. . ... ... : ... .. . ... ... : ... .. . ... ... : ... .. . ... ...
ROW 4C : E-3 00 7 P80 V01 ... : B-3 00 7 P80 ... ... : A-2 00 . P8C : ... .. . ... : ... .. . ... ... : E-4 01 A ... ... : E-5 01 A ... ... : ... .. . ... ...
ROW 4D : B-3 00 6 ... ... ... : F#4 00 6 ... ... ... : ... .. . P7C : ... .. . ... : ... .. . ... ... : ... .. 9 ... ... : ... .. 9 ... ... : ... .. . ... ...
ROW 4E : C#4 00 6 ... ... ... : G#4 00 6 ... ... ... : G#2 00 . P8B : ... .. . ... : ... .. . ... ... : ... .. . ... ... : ... .. . ... ... : ... .. . ... ...
ROW 4F : ... .. 0 ... V00 ... : ... .. 0 ... ... ... : ... .. . P7B : ... .. . ... : ... .. . ... ... : --- .. . ... ... : --- .. . ... ... : ... .. . ... ...
ROW 50 : ... .. . ... ... ... : ... .. . ... ... ... : G-2 00 . P8B : ... .. . ... : ... .. . ... ... : ... .. . ... ... : ... .. . ... ... : ... .. . ... ...
ROW 51 : D-4 00 8 P80 V01 ... : A-4 00 8 P80 ... ... : ... .. . P7B : ... .. . ... : ... .. . ... ... : D#4 01 A ... ... : D#5 01 A ... ... : ... .. . ... ...
ROW 52 : F-3 00 7 ... ... ... : C-4 00 7 ... ... ... : F#2 00 . P8D : ... .. . ... : ... .. . ... ... : ... .. 9 ... ... : ... .. 9 ... ... : ... .. . ... ...
ROW 53 : C-4 00 6 ... ... ... : G-4 00 6 ... ... ... : ... .. . P7D : ... .. . ... : ... .. . ... ... : ... .. . ... ... : ... .. . ... ... : ... .. . ... ...
ROW 54 : ... .. 0 ... V00 ... : ... .. 0 ... ... ... : F-2 00 . P91 : ... .. . ... : ... .. . ... ... : --- .. . ... ... : --- .. . ... ... : ... .. . ... ...
ROW 55 : ... .. . ... ... ... : ... .. . ... ... ... : ... .. . P81 : ... .. . ... : ... .. . ... ... : ... .. . ... ... : ... .. . ... ... : ... .. . ... ...
ROW 56 : C#4 00 9 P80 V01 ... : G#4 00 9 P80 ... ... : ... .. . P71 : ... .. . ... : ... .. . ... ... : D-4 01 A ... ... : D-5 01 A ... ... : ... .. . ... ...
ROW 57 : D#4 00 8 ... ... ... : A#4 00 8 ... ... ... : E-2 00 . P87 : ... .. . ... : ... .. . ... ... : ... .. 9 ... ... : ... .. 9 ... ... : ... .. . ... ...
ROW 58 : F#3 00 7 ... ... ... : C#4 00 7 ... ... ... : ... .. . P77 : ... .. . ... : ... .. . ... ... : ... .. . ... ... : ... .. . ... ... : ... .. . ... ...
ROW 59 : ... .. 0 ... V00 ... : ... .. 0 ... ... ... : D#2 00 . P8F : ... .. . ... : ... .. . ... ... : --- .. . ... ... : --- .. . ... ... : ... .. . ... ...
ROW 5A : ... .. . ... ... ... : ... .. . ... ... ... : ... .. . P7F : ... .. . ... : ... .. . ... ... : ... .. . ... ... : ... .. . ... ... : ... .. . ... ...
ROW 5B : G-3 00 A P80 V01 ... : D-4 00 A P80 ... ... : --- .. . ... : ... .. . ... : ... .. . ... ... : C#4 01 A ... ... : C#5 01 A ... ... : ... .. . ... ...
ROW 5C : D-4 00 9 ... ... ... : A-4 00 9 ... ... ... : ... .. . ... : ... .. . ... : ... .. . ... ... : ... .. 9 ... ... : ... .. 9 ... ... : ... .. . ... ...
ROW 5D : E-4 00 8 ... ... ... : B-4 00 8 ... ... ... : ... .. . ... : ... .. . ... : ... .. . ... ... : ... .. . ... ... : ... .. . ... ... : ... .. . ... ...
ROW 5E : ... .. 0 ... V00 ... : ... .. 0 ... ... ... : ... .. . ... : ... .. . ... : ... .. . ... ... : --- .. . ... ... : --- .. . ... ... : ... .. . ... ...
ROW 5F : ... .. . ... ... ... : ... .. . ... ... ... : ... .. . ... : ... .. . ... : ... .. . ... ... : ... .. . ... ... : ... .. . ... ... : ... .. . ... ...
ROW 60 : F-2 00 F P80 V01 ... : C-3 00 F P80 ... ... : F-3 00 . P80 : ... .. F ... : ... .. . ... ... : F-3 01 A ... ... : F-4 01 A ... ... : ... .. . ... ...
ROW 61 : ... .. E ... ... ... : ... .. E ... ... ... : ... .. . ... : ... .. C ... : ... .. . ... ... : ... .. 9 ... ... : ... .. 9 ... ... : ... .. . ... ...
ROW 62 : ... .. D ... ... ... : ... .. D ... ... ... : ... .. . ... : ... .. 6 ... : ... .. . ... ... : ... .. . ... ... : ... .. . ... ... : ... .. . ... ...
ROW 63 : ... .. 0 ... V00 ... : ... .. 0 ... ... ... : ... .. . ... : ... .. 3 ... : ... .. . ... ... : --- .. . ... ... : --- .. . ... ... : ... .. . ... ...
ROW 64 : ... .. . ... ... ... : ... .. . ... ... ... : ... .. . ... : ... .. 2 ... : ... .. . ... ... : ... .. . ... ... : ... .. . ... ... : ... .. . ... ...
ROW 65 : F-2 00 F P80 V01 ... : C-3 00 F P80 ... ... : --- .. . ... : ... .. 0 ... : ... .. . ... ... : G#2 01 A ... ... : G#3 01 A ... ... : ... .. . ... ...
ROW 66 : ... .. E ... ... ... : ... .. E ... ... ... : ... .. . ... : ... .. . ... : ... .. . ... ... : ... .. 9 ... ... : ... .. 9 ... ... : ... .. . ... ...
ROW 67 : ... .. D ... ... ... : ... .. D ... ... ... : ... .. . ... : ... .. . ... : ... .. . ... ... : ... .. . ... ... : ... .. . ... ... : ... .. . ... ...
ROW 68 : ... .. 0 ... V00 ... : ... .. 0 ... ... ... : ... .. . ... : ... .. . ... : ... .. . ... ... : --- .. . ... ... : --- .. . P83 ... : ... .. . ... ...
ROW 69 : ... .. . ... ... ... : ... .. . ... ... ... : ... .. . ... : ... .. . ... : ... .. . ... ... : ... .. . ... ... : ... .. . ... ... : ... .. . ... ...
ROW 6A : B-2 00 F P80 V01 ... : F#3 00 F P80 ... ... : F-3 00 . ... : D-# 00 F ... : ... .. . ... ... : F-3 01 A ... ... : F-4 01 A P81 ... : ... .. . ... ...
ROW 6B : ... .. E ... ... ... : ... .. E ... ... ... : ... .. . ... : ... .. C ... : ... .. . ... ... : ... .. 9 ... ... : ... .. 9 ... ... : ... .. . ... ...
ROW 6C : ... .. D ... ... ... : ... .. D ... ... ... : ... .. . ... : ... .. 6 ... : ... .. . ... ... : ... .. . ... ... : ... .. . ... ... : ... .. . ... ...
ROW 6D : ... .. A ... ... ... : ... .. A ... ... ... : --- .. . ... : ... .. 3 ... : ... .. . ... ... : --- .. . ... ... : --- .. . ... ... : ... .. . ... ...
ROW 6E : ... .. . ... ... ... : ... .. . ... ... ... : ... .. . ... : ... .. 2 ... : ... .. . ... ... : ... .. . ... ... : ... .. . ... ... : ... .. . ... ...
ROW 6F : ... .. . ... ... ... : ... .. . ... ... ... : G-3 00 . ... : ... .. F ... : ... .. . ... ... : G#2 01 A ... ... : G#3 01 A ... ... : ... .. . ... ...
ROW 70 : ... .. . ... ... ... : ... .. . ... ... ... : ... .. . ... : ... .. C ... : ... .. . ... ... : ... .. 9 ... ... : ... .. 9 ... ... : ... .. . ... ...
ROW 71 : ... .. . ... ... ... : ... .. . ... ... ... : ... .. . ... : ... .. 6 ... : ... .. . ... ... : ... .. . ... ... : ... .. . ... ... : ... .. . ... ...
ROW 72 : ... .. 0 ... V00 ... : ... .. 0 ... ... ... : --- .. . ... : ... .. 3 ... : ... .. . ... ... : --- .. . ... ... : --- .. . P83 ... : ... .. . ... ...
ROW 73 : ... .. . ... ... ... : ... .. . ... ... ... : ... .. . ... : ... .. 2 ... : ... .. . ... ... : ... .. . ... ... : ... .. . ... ... : ... .. . ... ...
ROW 74 : A#2 00 F P80 V01 ... : F-3 00 F P80 ... ... : G#3 00 . ... : 6-# 00 F ... : ... .. . ... ... : F-3 01 A ... ... : F-4 01 A P81 ... : ... .. . ... ...
ROW 75 : ... .. E ... ... ... : ... .. E ... ... ... : ... .. . ... : ... .. C ... : ... .. . ... ... : ... .. 9 ... ... : ... .. 9 ... ... : ... .. . ... ...
ROW 76 : ... .. D ... ... ... : ... .. D ... ... ... : ... .. . ... : ... .. 6 ... : ... .. . ... ... : ... .. . ... ... : ... .. . ... ... : ... .. . ... ...
ROW 77 : ... .. A ... ... ... : ... .. A ... ... ... : ... .. . ... : ... .. 3 ... : ... .. . ... ... : --- .. . ... ... : --- .. . ... ... : ... .. . ... ...
ROW 78 : ... .. . ... ... ... : ... .. . ... ... ... : ... .. . ... : ... .. 2 ... : ... .. . ... ... : ... .. . ... ... : ... .. . ... ... : ... .. . ... ...
ROW 79 : ... .. . ... ... ... : ... .. . ... ... ... : --- .. . ... : ... .. 0 ... : ... .. . ... ... : G#2 01 A ... ... : G#3 01 A ... ... : ... .. . ... ...
ROW 7A : ... .. . ... ... ... : ... .. . ... ... ... : ... .. . ... : ... .. . ... : ... .. . ... ... : ... .. 9 ... ... : ... .. 9 ... ... : ... .. . ... ...
ROW 7B : ... .. . ... ... ... : ... .. . ... ... ... : ... .. . ... : ... .. . ... : ... .. . ... ... : ... .. . ... ... : ... .. . ... ... : ... .. . ... ...
ROW 7C : ... .. 0 ... V00 ... : ... .. 0 ... ... ... : ... .. . ... : ... .. . ... : ... .. . ... ... : --- .. . ... ... : --- .. . P83 ... : ... .. . ... ...
ROW 7D : ... .. . ... ... ... : ... .. . ... ... ... : ... .. . ... : ... .. . ... : ... .. . ... ... : ... .. . ... ... : ... .. . ... ... : ... .. . ... ...
ROW 7E : G#2 00 F P80 V01 ... : D#3 00 F P80 ... ... : G-3 00 . ... : D-# 00 F ... : ... .. . ... ... : F-3 01 A ... ... : F-4 01 A P81 ... : ... .. . ... ...
ROW 7F : ... .. E ... ... ... : ... .. E ... ... ... : ... .. . ... : ... .. C ... : ... .. . ... ... : ... .. 9 ... ... : ... .. 9 ... ... : ... .. . ... ...
ROW 80 : ... .. D ... ... ... : ... .. D ... ... ... : ... .. . ... : ... .. 6 ... : ... .. . ... ... : ... .. . ... ... : ... .. . ... ... : ... .. . ... ...
ROW 81 : ... .. 0 ... V00 ... : ... .. 0 ... ... ... : --- .. . ... : ... .. 3 ... : ... .. . ... ... : --- .. . ... ... : --- .. . ... ... : ... .. . ... ...
ROW 82 : ... .. . ... ... ... : ... .. . ... ... ... : ... .. . ... : ... .. 2 ... : ... .. . ... ... : ... .. . ... ... : ... .. . ... ... : ... .. . ... ...
ROW 83 : F-2 00 F P80 V01 ... : C-3 00 F P80 ... ... : G#3 00 . ... : ... .. F ... : ... .. . ... ... : G#2 01 A ... ... : G#3 01 A ... ... : ... .. . ... ...
ROW 84 : ... .. E ... ... ... : ... .. E ... ... ... : ... .. . ... : ... .. C ... : ... .. . ... ... : ... .. 9 ... ... : ... .. 9 ... ... : ... .. . ... ...
ROW 85 : ... .. D ... ... ... : ... .. D ... ... ... : ... .. . ... : ... .. 6 ... : ... .. . ... ... : ... .. . ... ... : ... .. . ... ... : ... .. . ... ...
ROW 86 : ... .. A ... ... ... : ... .. A ... ... ... : --- .. . ... : ... .. 3 ... : ... .. . ... ... : --- .. . ... ... : --- .. . P83 ... : ... .. . ... ...
ROW 87 : ... .. . ... ... ... : ... .. . ... ... ... : ... .. . ... : ... .. 2 ... : ... .. . ... ... : ... .. . ... ... : ... .. . ... ... : ... .. . ... ...
ROW 88 : ... .. . ... ... ... : ... .. . ... ... ... : B-3 00 . ... : 3-# 00 F ... : ... .. . ... ... : E-3 01 A ... ... : E-4 01 A P81 ... : ... .. . ... ...
ROW 89 : ... .. . ... ... ... : ... .. . ... ... ... : ... .. . ... : ... .. C ... : ... .. . ... ... : ... .. 9 ... ... : ... .. 9 ... ... : ... .. . ... ...
ROW 8A : ... .. . ... ... ... : ... .. . ... ... ... : ... .. . ... : ... .. 6 ... : ... .. . ... ... : ... .. . ... ... : ... .. . ... ... : ... .. . ... ...
ROW 8B : ... .. 0 ... V00 ... : ... .. 0 ... ... ... : ... .. . ... : ... .. 3 ... : ... .. . ... ... : --- .. . P82 ... : --- .. . ... ... : ... .. . ... ...
ROW 8C : ... .. . ... ... ... : ... .. . ... ... ... : ... .. . ... : ... .. 2 ... : ... .. . ... ... : ... .. . ... ... : ... .. . ... ... : ... .. . ... ...
ROW 8D : F-2 00 F P80 V01 ... : C-3 00 F P80 ... ... : --- .. . ... : ... .. 0 ... : ... .. . ... ... : G-2 01 A P80 ... : G-3 01 A ... ... : ... .. . ... ...
ROW 8E : ... .. E ... ... ... : ... .. E ... ... ... : ... .. . ... : ... .. . ... : ... .. . ... ... : ... .. 9 ... ... : ... .. 9 ... ... : ... .. . ... ...
ROW 8F : ... .. D ... ... ... : ... .. D ... ... ... : ... .. . ... : ... .. . ... : ... .. . ... ... : ... .. . ... ... : ... .. . ... ... : ... .. . ... ...
ROW 90 : ... .. 0 ... V00 ... : ... .. 0 ... ... ... : ... .. . ... : ... .. . ... : ... .. . ... ... : --- .. . P81 ... : --- .. . P80 ... : ... .. . ... ...
ROW 91 : ... .. . ... ... ... : ... .. . ... ... ... : ... .. . ... : ... .. . ... : ... .. . ... ... : ... .. . ... ... : ... .. . ... ... : ... .. . ... ...
ROW 92 : B-2 00 F P80 V01 ... : F#3 00 F P80 ... ... : B-3 00 . ... : D-# 00 F ... : ... .. . ... ... : E-3 01 A P80 ... : E-4 01 A P81 ... : ... .. . ... ...
ROW 93 : ... .. E ... ... ... : ... .. E ... ... ... : ... .. . ... : ... .. C ... : ... .. . ... ... : ... .. 9 ... ... : ... .. 9 ... ... : ... .. . ... ...
ROW 94 : ... .. D ... ... ... : ... .. D ... ... ... : ... .. . ... : ... .. 6 ... : ... .. . ... ... : ... .. . ... ... : ... .. . ... ... : ... .. . ... ...
ROW 95 : ... .. A ... ... ... : ... .. A ... ... ... : --- .. . ... : ... .. 3 ... : ... .. . ... ... : --- .. . P82 ... : --- .. . ... ... : ... .. . ... ...
ROW 96 : ... .. . ... ... ... : ... .. . ... ... ... : ... .. . ... : ... .. 2 ... : ... .. . ... ... : ... .. . ... ... : ... .. . ... ... : ... .. . ... ...
ROW 97 : ... .. . ... ... ... : ... .. . ... ... ... : A#3 00 . ... : ... .. F ... : ... .. . ... ... : G-2 01 A P80 ... : G-3 01 A ... ... : ... .. . ... ...
ROW 98 : ... .. . ... ... ... : ... .. . ... ... ... : ... .. . ... : ... .. C ... : ... .. . ... ... : ... .. 9 ... ... : ... .. 9 ... ... : ... .. . ... ...
ROW 99 : ... .. . ... ... ... : ... .. . ... ... ... : ... .. . ... : ... .. 6 ... : ... .. . ... ... : ... .. . ... ... : ... .. . ... ... : ... .. . ... ...
ROW 9A : ... .. 0 ... V00 ... : ... .. 0 ... ... ... : --- .. . ... : ... .. 3 ... : ... .. . ... ... : --- .. . P81 ... : --- .. . P80 ... : ... .. . ... ...
ROW 9B : ... .. . ... ... ... : ... .. . ... ... ... : ... .. . ... : ... .. 2 ... : ... .. . ... ... : ... .. . ... ... : ... .. . ... ... : ... .. . ... ...
ROW 9C : A#2 00 F P80 V01 ... : F-3 00 F P80 ... ... : G#3 00 . ... : 6-# 00 F ... : ... .. . ... ... : E-3 01 A P80 ... : E-4 01 A P81 ... : ... .. . ... ...
ROW 9D : ... .. E ... ... ... : ... .. E ... ... ... : ... .. . ... : ... .. C ... : ... .. . ... ... : ... .. 9 ... ... : ... .. 9 ... ... : ... .. . ... ...
ROW 9E : ... .. D ... ... ... : ... .. D ... ... ... : ... .. . ... : ... .. 6 ... : ... .. . ... ... : ... .. . ... ... : ... .. . ... ... : ... .. . ... ...
ROW 9F : ... .. A ... ... ... : ... .. A ... ... ... : --- .. . ... : ... .. 3 ... : ... .. . ... ... : --- .. . P82 ... : --- .. . ... ... : ... .. . ... ...
ROW A0 : ... .. . ... ... ... : ... .. . ... ... ... : ... .. . ... : ... .. 2 ... : ... .. . ... ... : ... .. . ... ... : ... .. . ... ... : ... .. . ... ...
ROW A1 : ... .. . ... ... ... : ... .. . ... ... ... : G-3 00 . ... : ... .. 0 ... : ... .. . ... ... : G-2 01 A P80 ... : G-3 01 A ... ... : ... .. . ... ...
ROW A2 : ... .. . ... ... ... : ... .. . ... ... ... : ... .. . ... : ... .. . ... : ... .. . ... ... : ... .. 9 ... ... : ... .. 9 ... ... : ... .. . ... ...
ROW A3 : ... .. . ... ... ... : ... .. . ... ... ... : ... .. . ... : ... .. . ... : ... .. . ... ... : ... .. . ... ... : ... .. . ... ... : ... .. . ... ...
ROW A4 : ... .. 0 ... V00 ... : ... .. 0 ... ... ... : --- .. . ... : ... .. . ... : ... .. . ... ... : --- .. . P81 ... : --- .. . P80 ... : ... .. . ... ...
ROW A5 : ... .. . ... ... ... : ... .. . ... ... ... : ... .. . ... : ... .. . ... : ... .. . ... ... : ... .. . ... ... : ... .. . ... ... : ... .. . ... ...
ROW A6 : G#2 00 F P80 V01 ... : D#3 00 F P80 ... ... : G#3 00 . ... : D-# 00 F ... : ... .. . ... ... : E-3 01 A P80 ... : E-4 01 A P81 ... : ... .. . ... ...
ROW A7 : ... .. E ... ... ... : ... .. E ... ... ... : ... .. . ... : ... .. C ... : ... .. . ... ... : ... .. 9 ... ... : ... .. 9 ... ... : ... .. . ... ...
ROW A8 : ... .. D ... ... ... : ... .. D ... ... ... : ... .. . ... : ... .. 6 ... : ... .. . ... ... : ... .. . ... ... : ... .. . ... ... : ... .. . ... ...
ROW A9 : ... .. A ... ... ... : ... .. A ... ... ... : --- .. . ... : ... .. 3 ... : ... .. . ... ... : --- .. . P82 ... : --- .. . ... ... : ... .. . ... ...
ROW AA : ... .. . ... ... ... : ... .. . ... ... ... : ... .. . ... : ... .. 2 ... : ... .. . ... ... : ... .. . ... ... : ... .. . ... ... : ... .. . ... ...
ROW AB : ... .. . ... ... ... : ... .. . ... ... ... : G-3 00 . ... : ... .. 0 ... : ... .. . ... ... : G-2 01 A P80 ... : G-3 01 A ... ... : ... .. . ... ...
ROW AC : ... .. . ... ... ... : ... .. . ... ... ... : ... .. . ... : ... .. . ... : ... .. . ... ... : ... .. 9 ... ... : ... .. 9 ... ... : ... .. . ... ...
ROW AD : ... .. . ... ... ... : ... .. . ... ... ... : ... .. . ... : ... .. . ... : ... .. . ... ... : ... .. . ... ... : ... .. . ... ... : ... .. . ... ...
ROW AE : ... .. 0 ... V00 ... : ... .. 0 ... ... ... : --- .. . ... : ... .. . ... : ... .. . ... ... : --- .. . P81 ... : --- .. . P80 ... : ... .. . ... ...
ROW AF : ... .. . ... ... ... : ... .. . ... ... ... : ... .. . ... : ... .. . ... : ... .. . ... ... : ... .. . ... ... : ... .. . ... ... : ... .. . ... ...
ROW B0 : F-2 00 F P80 V01 ... : C-3 00 F P80 ... ... : F-3 00 . ... : 3-# 00 F ... : ... .. . ... ... : D#3 01 A P80 ... : D#4 01 A P81 ... : ... .. . ... ...
ROW B1 : ... .. E ... ... ... : ... .. E ... ... ... : ... .. . ... : ... .. C ... : ... .. . ... ... : ... .. 9 ... ... : ... .. 9 ... ... : ... .. . ... ...
ROW B2 : ... .. D ... ... ... : ... .. D ... ... ... : ... .. . ... : ... .. 6 ... : ... .. . ... ... : ... .. . ... ... : ... .. . ... ... : ... .. . ... ...
ROW B3 : ... .. 0 ... V00 ... : ... .. 0 ... ... ... : ... .. . ... : ... .. 3 ... : ... .. . ... ... : --- .. . P83 ... : --- .. . ... ... : ... .. . ... ...
ROW B4 : ... .. . ... ... ... : ... .. . ... ... ... : ... .. . ... : ... .. 2 ... : ... .. . ... ... : ... .. . ... ... : ... .. . ... ... : ... .. . ... ...
ROW B5 : F-2 00 F P80 V01 ... : C-3 00 F P80 ... ... : --- .. . ... : ... .. 0 ... : ... .. . ... ... : F#2 01 A P80 ... : F#3 01 A ... ... : ... .. . ... ...
ROW B6 : ... .. E ... ... ... : ... .. E ... ... ... : ... .. . ... : ... .. . ... : ... .. . ... ... : ... .. 9 ... ... : ... .. 9 ... ... : ... .. . ... ...
ROW B7 : ... .. D ... ... ... : ... .. D ... ... ... : ... .. . ... : ... .. . ... : ... .. . ... ... : ... .. . ... ... : ... .. . ... ... : ... .. . ... ...
ROW B8 : ... .. 0 ... V00 ... : ... .. 0 ... ... ... : ... .. . ... : ... .. . ... : ... .. . ... ... : --- .. . P82 ... : --- .. . P80 ... : ... .. . ... ...
ROW B9 : ... .. . ... ... ... : ... .. . ... ... ... : ... .. . ... : ... .. . ... : ... .. . ... ... : ... .. . ... ... : ... .. . ... ... : ... .. . ... ...
ROW BA : B-2 00 F P80 V01 ... : F#3 00 F P80 ... ... : F-3 00 . ... : D-# 00 F ... : ... .. . ... ... : D#3 01 A P80 ... : D#4 01 A P81 ... : ... .. . ... ...
ROW BB : ... .. E ... ... ... : ... .. E ... ... ... : ... .. . ... : ... .. C ... : ... .. . ... ... : ... .. 9 ... ... : ... .. 9 ... ... : ... .. . ... ...
ROW BC : ... .. D ... ... ... : ... .. D ... ... ... : ... .. . ... : ... .. 6 ... : ... .. . ... ... : ... .. . ... ... : ... .. . ... ... : ... .. . ... ...
ROW BD : ... .. A ... ... ... : ... .. A ... ... ... : --- .. . ... : ... .. 3 ... : ... .. . ... ... : --- .. . P83 ... : --- .. . ... ... : ... .. . ... ...
ROW BE : ... .. . ... ... ... : ... .. . ... ... ... : ... .. . ... : ... .. 2 ... : ... .. . ... ... : ... .. . ... ... : ... .. . ... ... : ... .. . ... ...
ROW BF : ... .. . ... ... ... : ... .. . ... ... ... : G-3 00 . ... : ... .. F ... : ... .. . ... ... : F#2 01 A P80 ... : F#3 01 A ... ... : ... .. . ... ...
ROW C0 : ... .. . ... ... ... : ... .. . ... ... ... : ... .. . ... : ... .. C ... : ... .. . ... ... : ... .. 9 ... ... : ... .. 9 ... ... : ... .. . ... ...
ROW C1 : ... .. . ... ... ... : ... .. . ... ... ... : ... .. . ... : ... .. 6 ... : ... .. . ... ... : ... .. . ... ... : ... .. . ... ... : ... .. . ... ...
ROW C2 : ... .. 0 ... V00 ... : ... .. 0 ... ... ... : --- .. . ... : ... .. 3 ... : ... .. . ... ... : --- .. . P82 ... : --- .. . P80 ... : ... .. . ... ...
ROW C3 : ... .. . ... ... ... : ... .. . ... ... ... : ... .. . ... : ... .. 2 ... : ... .. . ... ... : ... .. . ... ... : ... .. . ... ... : ... .. . ... ...
ROW C4 : A#2 00 F P80 V01 ... : F-3 00 F P80 ... ... : G#3 00 . ... : 6-# 00 F ... : ... .. . ... ... : D#3 01 A P80 ... : D#4 01 A P81 ... : ... .. . ... ...
ROW C5 : ... .. E ... ... ... : ... .. E ... ... ... : ... .. . ... : ... .. C ... : ... .. . ... ... : ... .. 9 ... ... : ... .. 9 ... ... : ... .. . ... ...
ROW C6 : ... .. D ... ... ... : ... .. D ... ... ... : ... .. . ... : ... .. 6 ... : ... .. . ... ... : ... .. . ... ... : ... .. . ... ... : ... .. . ... ...
ROW C7 : ... .. A ... ... ... : ... .. A ... ... ... : ... .. . ... : ... .. 3 ... : ... .. . ... ... : --- .. . P83 ... : --- .. . ... ... : ... .. . ... ...
ROW C8 : ... .. . ... ... ... : ... .. . ... ... ... : ... .. . ... : ... .. 2 ... : ... .. . ... ... : ... .. . ... ... : ... .. . ... ... : ... .. . ... ...
ROW C9 : ... .. . ... ... ... : ... .. . ... ... ... : --- .. . ... : ... .. 0 ... : ... .. . ... ... : F#2 01 A P80 ... : F#3 01 A ... ... : ... .. . ... ...
ROW CA : ... .. . ... ... ... : ... .. . ... ... ... : ... .. . ... : ... .. . ... : ... .. . ... ... : ... .. 9 ... ... : ... .. 9 ... ... : ... .. . ... ...
ROW CB : ... .. . ... ... ... : ... .. . ... ... ... : ... .. . ... : ... .. . ... : ... .. . ... ... : ... .. . ... ... : ... .. . ... ... : ... .. . ... ...
ROW CC : ... .. 0 ... V00 ... : ... .. 0 ... ... ... : ... .. . ... : ... .. . ... : ... .. . ... ... : --- .. . P82 ... : --- .. . P80 ... : ... .. . ... ...
ROW CD : ... .. . ... ... ... : ... .. . ... ... ... : ... .. . ... : ... .. . ... : ... .. . ... ... : ... .. . ... ... : ... .. . ... ... : ... .. . ... ...
ROW CE : G#2 00 F P80 V01 ... : D#3 00 F P80 ... ... : G-3 00 . ... : D-# 00 F ... : ... .. . ... ... : D#3 01 A P80 ... : D#4 01 A P81 ... : ... .. . ... ...
ROW CF : ... .. E ... ... ... : ... .. E ... ... ... : ... .. . ... : ... .. C ... : ... .. . ... ... : ... .. 9 ... ... : ... .. 9 ... ... : ... .. . ... ...
ROW D0 : ... .. D ... ... ... : ... .. D ... ... ... : ... .. . ... : ... .. 6 ... : ... .. . ... ... : ... .. . ... ... : ... .. . ... ... : ... .. . ... ...
ROW D1 : ... .. 0 ... V00 ... : ... .. 0 ... ... ... : --- .. . ... : ... .. 3 ... : ... .. . ... ... : --- .. . P83 ... : --- .. . ... ... : ... .. . ... ...
ROW D2 : ... .. . ... ... ... : ... .. . ... ... ... : ... .. . ... : ... .. 2 ... : ... .. . ... ... : ... .. . ... ... : ... .. . ... ... : ... .. . ... ...
ROW D3 : F-2 00 F P80 V01 ... : C-3 00 F P80 ... ... : G#3 00 . ... : ... .. 0 ... : ... .. . ... ... : F#2 01 A P80 ... : F#3 01 A ... ... : ... .. . ... ...
ROW D4 : ... .. E ... ... ... : ... .. E ... ... ... : ... .. . ... : ... .. . ... : ... .. . ... ... : ... .. 9 ... ... : ... .. 9 ... ... : ... .. . ... ...
ROW D5 : ... .. D ... ... ... : ... .. D ... ... ... : ... .. . ... : ... .. . ... : ... .. . ... ... : ... .. . ... ... : ... .. . ... ... : ... .. . ... ...
ROW D6 : ... .. A ... ... ... : ... .. A ... ... ... : --- .. . ... : ... .. . ... : ... .. . ... ... : --- .. . P82 ... : --- .. . P80 ... : ... .. . ... ...
ROW D7 : ... .. . ... ... ... : ... .. . ... ... ... : ... .. . ... : ... .. . ... : ... .. . ... ... : ... .. . ... ... : ... .. . ... ... : ... .. . ... ...
ROW D8 : ... .. . ... ... ... : ... .. . ... ... ... : B-3 00 . ... : 3-# 00 F ... : ... .. . ... ... : D-3 01 A P80 ... : D-4 01 A P81 ... : ... .. . ... ...
ROW D9 : ... .. . ... ... ... : ... .. . ... ... ... : ... .. . ... : ... .. C ... : ... .. . ... ... : ... .. 9 ... ... : ... .. 9 ... ... : ... .. . ... ...
ROW DA : ... .. . ... ... ... : ... .. . ... ... ... : ... .. . ... : ... .. 6 ... : ... .. . ... ... : ... .. . ... ... : ... .. . ... ... : ... .. . ... ...
ROW DB : ... .. 0 ... V00 ... : ... .. 0 ... ... ... : ... .. . ... : ... .. 3 ... : ... .. . ... ... : --- .. . P82 ... : --- .. . ... ... : ... .. . ... ...
ROW DC : ... .. . ... ... ... : ... .. . ... ... ... : ... .. . ... : ... .. 2 ... : ... .. . ... ... : ... .. . ... ... : ... .. . ... ... : ... .. . ... ...
ROW DD : F-4 00 F P80 V01 ... : C-5 00 F P80 ... ... : ... .. . ... : ... .. 0 ... : ... .. . ... ... : F-2 01 A P80 ... : F-3 01 A ... ... : ... .. . ... ...
ROW DE : ... .. E ... ... ... : ... .. E ... ... ... : ... .. . ... : ... .. . ... : ... .. . ... ... : ... .. 9 ... ... : ... .. 9 ... ... : ... .. . ... ...
ROW DF : ... .. D ... ... ... : ... .. D ... ... ... : ... .. . ... : ... .. . ... : ... .. . ... ... : ... .. . ... ... : ... .. . ... ... : ... .. . ... ...
ROW E0 : ... .. 0 ... V00 ... : ... .. 0 ... ... ... : ... .. . ... : ... .. . ... : ... .. . ... ... : --- .. . P7E ... : --- .. . ... ... : ... .. . ... ...
ROW E1 : ... .. . ... ... ... : ... .. . ... ... ... : ... .. . ... : ... .. . ... : ... .. . ... ... : ... .. . ... ... : ... .. . ... ... : ... .. . ... ...
ROW E2 : E-4 00 F P80 V01 ... : B-4 00 F P80 ... ... : G-4 00 . ... : D-# 00 F ... : ... .. . ... ... : D-3 01 A P80 ... : D-4 01 A ... ... : ... .. . ... ...
ROW E3 : ... .. E ... ... ... : ... .. E ... ... ... : A-4 00 . P7F : ... .. C ... : ... .. . ... ... : ... .. 9 ... ... : ... .. 9 ... ... : ... .. . ... ...
ROW E4 : ... .. D ... ... ... : ... .. D ... ... ... : B-4 00 . P80 : ... .. 6 ... : ... .. . ... ... : ... .. . ... ... : ... .. . ... ... : ... .. . ... ...
ROW E5 : ... .. 0 ... V00 ... : ... .. 0 ... ... ... : C#5 00 . P83 : ... .. 3 ... : ... .. . ... ... : --- .. . P82 ... : --- .. . ... ... : ... .. . ... ...
ROW E6 : ... .. . ... ... ... : ... .. . ... ... ... : D#5 00 . P80 : ... .. 2 ... : ... .. . ... ... : ... .. . ... ... : ... .. . ... ... : ... .. . ... ...
ROW E7 : D#4 00 F P80 V01 ... : A#4 00 F P80 ... ... : ... .. . ... : ... .. F ... : ... .. . ... ... : F-2 01 A P80 ... : F-3 01 A ... ... : ... .. . ... ...
ROW E8 : ... .. E ... ... ... : ... .. E ... ... ... : ... .. . ... : ... .. C ... : ... .. . ... ... : ... .. 9 ... ... : ... .. 9 ... ... : ... .. . ... ...
ROW E9 : ... .. D ... ... ... : ... .. D ... ... ... : ... .. . ... : ... .. 6 ... : ... .. . ... ... : ... .. . ... ... : ... .. . ... ... : ... .. . ... ...
ROW EA : ... .. 0 ... V00 ... : ... .. 0 ... ... ... : ... .. . ... : ... .. 3 ... : ... .. . ... ... : --- .. . P7E ... : --- .. . ... ... : ... .. . ... ...
ROW EB : ... .. . ... ... ... : ... .. . ... ... ... : ... .. . ... : ... .. 2 ... : ... .. . ... ... : ... .. . ... ... : ... .. . ... ... : ... .. . ... ...
ROW EC : D-4 00 F P80 V01 ... : A-4 00 F P80 ... ... : G#3 00 . ... : 6-# 00 F ... : ... .. . ... ... : D-3 01 A P80 ... : D-4 01 A ... ... : ... .. . ... ...
ROW ED : ... .. E ... ... ... : ... .. E ... ... ... : ... .. . ... : ... .. C ... : ... .. . ... ... : ... .. 9 ... ... : ... .. 9 ... ... : ... .. . ... ...
ROW EE : ... .. D ... ... ... : ... .. D ... ... ... : ... .. . ... : ... .. 6 ... : ... .. . ... ... : ... .. . ... ... : ... .. . ... ... : ... .. . ... ...
ROW EF : ... .. 0 ... V00 ... : ... .. 0 ... ... ... : ... .. . ... : ... .. 3 ... : ... .. . ... ... : --- .. . P82 ... : --- .. . ... ... : ... .. . ... ...
ROW F0 : ... .. . ... ... ... : ... .. . ... ... ... : ... .. . ... : ... .. 2 ... : ... .. . ... ... : ... .. . ... ... : ... .. . ... ... : ... .. . ... ...
ROW F1 : C#4 00 F P80 V01 ... : G#4 00 F P80 ... ... : F#3 00 . P81 : ... .. 0 ... : ... .. . ... ... : F-2 01 A P80 ... : F-3 01 A ... ... : ... .. . ... ...
ROW F2 : ... .. E ... ... ... : ... .. E ... ... ... : E-3 00 . P86 : ... .. . ... : ... .. . ... ... : ... .. 9 ... ... : ... .. 9 ... ... : ... .. . ... ...
ROW F3 : ... .. D ... ... ... : ... .. D ... ... ... : D#3 00 . P7B : ... .. . ... : ... .. . ... ... : ... .. . ... ... : ... .. . ... ... : ... .. . ... ...
ROW F4 : ... .. 0 ... V00 ... : ... .. 0 ... ... ... : C#3 00 . P87 : ... .. . ... : ... .. . ... ... : --- .. . P7E ... : --- .. . ... ... : ... .. . ... ...
ROW F5 : ... .. . ... ... ... : ... .. . ... ... ... : C-3 00 . P7F : ... .. . ... : ... .. . ... ... : ... .. . ... ... : ... .. . ... ... : ... .. . ... ...
ROW F6 : C-4 00 F P80 V01 ... : G-4 00 F P80 ... ... : B-2 00 . P78 : D-# 00 F ... : ... .. . ... ... : D-3 01 A P80 ... : D-4 01 A ... ... : ... .. . ... ...
ROW F7 : ... .. E ... ... ... : ... .. E ... ... ... : A#2 00 . P73 : ... .. C ... : ... .. . ... ... : ... .. 9 ... ... : ... .. 9 ... ... : ... .. . ... ...
ROW F8 : ... .. D ... ... ... : ... .. D ... ... ... : G#2 00 . P8E : ... .. 6 ... : ... .. . ... ... : ... .. . ... ... : ... .. . ... ... : ... .. . ... ...
ROW F9 : ... .. 0 ... V00 ... : ... .. 0 ... ... ... : G-2 00 . ... : ... .. 3 ... : ... .. . ... ... : --- .. . P82 ... : --- .. . ... ... : ... .. . ... ...
ROW FA : ... .. . ... ... ... : ... .. . ... ... ... : F#2 00 . P90 : ... .. 2 ... : ... .. . ... ... : ... .. . ... ... : ... .. . ... ... : ... .. . ... ...
ROW FB : B-3 00 F P80 V01 ... : F#4 00 F P80 ... ... : ... .. . P70 : ... .. F ... : ... .. . ... ... : F-2 01 A P80 ... : F-3 01 A ... ... : ... .. . ... ...
ROW FC : ... .. E ... ... ... : ... .. E ... ... ... : F-2 00 . P74 : ... .. C ... : ... .. . ... ... : ... .. 9 ... ... : ... .. 9 ... ... : ... .. . ... ...
ROW FD : ... .. D ... ... ... : ... .. D ... ... ... : E-2 00 . P7A : ... .. 6 ... : ... .. . ... ... : ... .. . ... ... : ... .. . ... ... : ... .. . ... ...
ROW FE : ... .. 0 ... V00 ... : ... .. 0 ... ... ... : D#2 00 . P82 : ... .. 3 ... : ... .. . ... ... : --- .. . P7E ... : --- .. . ... ... : ... .. . ... ...
ROW FF : ... .. . ... ... ... : ... .. . ... ... ... : D-2 00 . P8D : ... .. 2 ... : ... .. . ... ... : ... .. . ... ... : ... .. . ... ... : ... .. . ... ...

PATTERN 19
ROW 00 : F-2 00 F P80 V01 ... : C-3 00 F P80 ... ... : F-2 00 . P80 : 3-# 00 F ... : ... .. . ... ... : F-3 01 A P80 ... : F-4 01 A ... ... : ... .. . ... ...
ROW 01 : ... .. E ... ... ... : ... .. E ... ... ... : ... .. . ... : ... .. C ... : ... .. . ... ... : ... .. 9 ... ... : ... .. 9 ... ... : ... .. . ... ...
ROW 02 : ... .. D ... ... ... : ... .. D ... ... ... : ... .. . ... : ... .. 6 ... : ... .. . ... ... : ... .. . ... ... : ... .. . ... ... : ... .. . ... ...
ROW 03 : ... .. 0 ... V00 ... : ... .. 0 ... ... ... : --- .. . ... : ... .. 3 ... : ... .. . ... ... : --- .. . ... ... : --- .. . ... ... : ... .. . ... ...
ROW 04 : ... .. . ... ... ... : ... .. . ... ... ... : ... .. . ... : ... .. 2 ... : ... .. . ... ... : ... .. . ... ... : ... .. . ... ... : ... .. . ... ...
ROW 05 : F-2 00 F P80 V01 ... : C-3 00 F P80 ... ... : F-2 00 . ... : ... .. 0 ... : ... .. . ... ... : G#2 01 A ... ... : G#3 01 A ... ... : ... .. . ... ...
ROW 06 : ... .. E ... ... ... : ... .. E ... ... ... : ... .. . ... : ... .. . ... : ... .. . ... ... : ... .. 9 ... ... : ... .. 9 ... ... : ... .. . ... ...
ROW 07 : ... .. D ... ... ... : ... .. D ... ... ... : ... .. . ... : ... .. . ... : ... .. . ... ... : ... .. . ... ... : ... .. . ... ... : ... .. . ... ...
ROW 08 : ... .. 0 ... V00 ... : ... .. 0 ... ... ... : --- .. . ... : ... .. . ... : ... .. . ... ... : --- .. . ... ... : --- .. . P83 ... : ... .. . ... ...
ROW 09 : ... .. . ... ... ... : ... .. . ... ... ... : ... .. . ... : ... .. . ... : ... .. . ... ... : ... .. . ... ... : ... .. . ... ... : ... .. . ... ...
ROW 0A : B-2 00 F P80 V01 ... : F#3 00 F P80 ... ... : B-2 00 . ... : D-# 00 F ... : ... .. . ... ... : F-3 01 A ... ... : F-4 01 A P81 ... : ... .. . ... ...
ROW 0B : ... .. E ... ... ... : ... .. E ... ... ... : ... .. . ... : ... .. C ... : ... .. . ... ... : ... .. 9 ... ... : ... .. 9 ... ... : ... .. . ... ...
ROW 0C : ... .. D ... ... ... : ... .. D ... ... ... : ... .. . ... : ... .. 6 ... : ... .. . ... ... : ... .. . ... ... : ... .. . ... ... : ... .. . ... ...
ROW 0D : ... .. A ... ... ... : ... .. A ... ... ... : ... .. . ... : ... .. 3 ... : ... .. . ... ... : --- .. . ... ... : --- .. . ... ... : ... .. . ... ...
ROW 0E : ... .. . ... ... ... : ... .. . ... ... ... : ... .. . ... : ... .. 2 ... : ... .. . ... ... : ... .. . ... ... : ... .. . ... ... : ... .. . ... ...
ROW 0F : ... .. . ... ... ... : ... .. . ... ... ... : ... .. . ... : ... .. F ... : ... .. . ... ... : G#2 01 A ... ... : G#3 01 A ... ... : ... .. . ... ...
ROW 10 : ... .. . ... ... ... : ... .. . ... ... ... : ... .. . ... : ... .. C ... : ... .. . ... ... : ... .. 9 ... ... : ... .. 9 ... ... : ... .. . ... ...
ROW 11 : ... .. . ... ... ... : ... .. . ... ... ... : ... .. . ... : ... .. 6 ... : ... .. . ... ... : ... .. . ... ... : ... .. . ... ... : ... .. . ... ...
ROW 12 : ... .. 0 ... V00 ... : ... .. 0 ... ... ... : --- .. . ... : ... .. 3 ... : ... .. . ... ... : --- .. . ... ... : --- .. . P83 ... : ... .. . ... ...
ROW 13 : ... .. . ... ... ... : ... .. . ... ... ... : ... .. . ... : ... .. 2 ... : ... .. . ... ... : ... .. . ... ... : ... .. . ... ... : ... .. . ... ...
ROW 14 : A#2 00 F P80 V01 ... : F-3 00 F P80 ... ... : A#2 00 . ... : 6-# 00 F ... : ... .. . ... ... : F-3 01 A ... ... : F-4 01 A P81 ... : ... .. . ... ...
ROW 15 : ... .. E ... ... ... : ... .. E ... ... ... : ... .. . ... : ... .. C ... : ... .. . ... ... : ... .. 9 ... ... : ... .. 9 ... ... : ... .. . ... ...
ROW 16 : ... .. D ... ... ... : ... .. D ... ... ... : ... .. . ... : ... .. 6 ... : ... .. . ... ... : ... .. . ... ... : ... .. . ... ... : ... .. . ... ...
ROW 17 : ... .. A ... ... ... : ... .. A ... ... ... : ... .. . ... : ... .. 3 ... : ... .. . ... ... : --- .. . ... ... : --- .. . ... ... : ... .. . ... ...
ROW 18 : ... .. . ... ... ... : ... .. . ... ... ... : ... .. . ... : ... .. 2 ... : ... .. . ... ... : ... .. . ... ... : ... .. . ... ... : ... .. . ... ...
ROW 19 : ... .. . ... ... ... : ... .. . ... ... ... : ... .. . ... : ... .. 0 ... : ... .. . ... ... : G#2 01 A ... ... : G#3 01 A ... ... : ... .. . ... ...
ROW 1A : ... .. . ... ... ... : ... .. . ... ... ... : ... .. . ... : ... .. . ... : ... .. . ... ... : ... .. 9 ... ... : ... .. 9 ... ... : ... .. . ... ...
ROW 1B : ... .. . ... ... ... : ... .. . ... ... ... : ... .. . ... : ... .. . ... : ... .. . ... ... : ... .. . ... ... : ... .. . ... ... : ... .. . ... ...
ROW 1C : ... .. 0 ... V00 ... : ... .. 0 ... ... ... : --- .. . ... : ... .. . ... : ... .. . ... ... : --- .. . ... ... : --- .. . P83 ... : ... .. . ... ...
ROW 1D : ... .. . ... ... ... : ... .. . ... ... ... : ... .. . ... : ... .. . ... : ... .. . ... ... : ... .. . ... ... : ... .. . ... ... : ... .. . ... ...
ROW 1E : G#2 00 F P80 V01 ... : D#3 00 F P80 ... ... : G#2 00 . ... : D-# 00 F ... : ... .. . ... ... : F-3 01 A ... ... : F-4 01 A P81 ... : ... .. . ... ...
ROW 1F : ... .. E ... ... ... : ... .. E ... ... ... : ... .. . ... : ... .. C ... : ... .. . ... ... : ... .. 9 ... ... : ... .. 9 ... ... : ... .. . ... ...
ROW 20 : ... .. D ... ... ... : ... .. D ... ... ... : ... .. . ... : ... .. 6 ... : ... .. . ... ... : ... .. . ... ... : ... .. . ... ... : ... .. . ... ...
ROW 21 : ... .. 0 ... V00 ... : ... .. 0 ... ... ... : --- .. . ... : ... .. 3 ... : ... .. . ... ... : --- .. . ... ... : --- .. . ... ... : ... .. . ... ...
ROW 22 : ... .. . ... ... ... : ... .. . ... ... ... : ... .. . ... : ... .. 2 ... : ... .. . ... ... : ... .. . ... ... : ... .. . ... ... : ... .. . ... ...
ROW 23 : F-2 00 F P80 V01 ... : C-3 00 F P80 ... ... : F-2 00 . ... : ... .. 0 ... : ... .. . ... ... : G#2 01 A ... ... : G#3 01 A ... ... : ... .. . ... ...
ROW 24 : ... .. E ... ... ... : ... .. E ... ... ... : ... .. . ... : ... .. . ... : ... .. . ... ... : ... .. 9 ... ... : ... .. 9 ... ... : ... .. . ... ...
ROW 25 : ... .. D ... ... ... : ... .. D ... ... ... : ... .. . ... : ... .. . ... : ... .. . ... ... : ... .. . ... ... : ... .. . ... ... : ... .. . ... ...
ROW 26 : ... .. A ... ... ... : ... .. A ... ... ... : ... .. . ... : ... .. . ... : ... .. . ... ... : --- .. . ... ... : --- .. . P83 ... : ... .. . ... ...
ROW 27 : ... .. . ... ... ... : ... .. . ... ... ... : ... .. . ... : ... .. . ... : ... .. . ... ... : ... .. . ... ... : ... .. . ... ... : ... .. . ... ...
ROW 28 : ... .. . ... ... ... : ... .. . ... ... ... : ... .. . ... : 3-# 00 F ... : ... .. . ... ... : E-3 01 A ... ... : E-4 01 A P81 ... : ... .. . ... ...
ROW 29 : ... .. . ... ... ... : ... .. . ... ... ... : ... .. . ... : ... .. C ... : ... .. . ... ... : ... .. 9 ... ... : ... .. 9 ... ... : ... .. . ... ...
ROW 2A : ... .. . ... ... ... : ... .. . ... ... ... : ... .. . ... : ... .. 6 ... : ... .. . ... ... : ... .. . ... ... : ... .. . ... ... : ... .. . ... ...
ROW 2B : ... .. 0 ... V00 ... : ... .. 0 ... ... ... : --- .. . ... : ... .. 3 ... : ... .. . ... ... : --- .. . P82 ... : --- .. . ... ... : ... .. . ... ...
ROW 2C : ... .. . ... ... ... : ... .. . ... ... ... : ... .. . ... : ... .. 2 ... : ... .. . ... ... : ... .. . ... ... : ... .. . ... ... : ... .. . ... ...
ROW 2D : F-2 00 F P80 V01 ... : C-3 00 F P80 ... ... : F-2 00 . ... : ... .. 0 ... : ... .. . ... ... : G-2 01 A P80 ... : G-3 01 A ... ... : ... .. . ... ...
ROW 2E : ... .. E ... ... ... : ... .. E ... ... ... : ... .. . ... : ... .. . ... : ... .. . ... ... : ... .. 9 ... ... : ... .. 9 ... ... : ... .. . ... ...
ROW 2F : ... .. D ... ... ... : ... .. D ... ... ... : ... .. . ... : ... .. . ... : ... .. . ... ... : ... .. . ... ... : ... .. . ... ... : ... .. . ... ...
ROW 30 : ... .. 0 ... V00 ... : ... .. 0 ... ... ... : --- .. . ... : ... .. . ... : ... .. . ... ... : --- .. . P81 ... : --- .. . P80 ... : ... .. . ... ...
ROW 31 : ... .. . ... ... ... : ... .. . ... ... ... : ... .. . ... : ... .. . ... : ... .. . ... ... : ... .. . ... ... : ... .. . ... ... : ... .. . ... ...
ROW 32 : B-2 00 F P80 V01 ... : F#3 00 F P80 ... ... : B-2 00 . ... : D-# 00 F ... : ... .. . ... ... : E-3 01 A P80 ... : E-4 01 A P81 ... : ... .. . ... ...
ROW 33 : ... .. E ... ... ... : ... .. E ... ... ... : ... .. . ... : ... .. C ... : ... .. . ... ... : ... .. 9 ... ... : ... .. 9 ... ... : ... .. . ... ...
ROW 34 : ... .. D ... ... ... : ... .. D ... ... ... : ... .. . ... : ... .. 6 ... : ... .. . ... ... : ... .. . ... ... : ... .. . ... ... : ... .. . ... ...
ROW 35 : ... .. A ... ... ... : ... .. A ... ... ... : ... .. . ... : ... .. 3 ... : ... .. . ... ... : --- .. . P82 ... : --- .. . ... ... : ... .. . ... ...
ROW 36 : ... .. . ... ... ... : ... .. . ... ... ... : ... .. . ... : ... .. 2 ... : ... .. . ... ... : ... .. . ... ... : ... .. . ... ... : ... .. . ... ...
ROW 37 : ... .. . ... ... ... : ... .. . ... ... ... : ... .. . ... : ... .. F ... : ... .. . ... ... : G-2 01 A P80 ... : G-3 01 A ... ... : ... .. . ... ...
ROW 38 : ... .. . ... ... ... : ... .. . ... ... ... : ... .. . ... : ... .. C ... : ... .. . ... ... : ... .. 9 ... ... : ... .. 9 ... ... : ... .. . ... ...
ROW 39 : ... .. . ... ... ... : ... .. . ... ... ... : ... .. . ... : ... .. 6 ... : ... .. . ... ... : ... .. . ... ... : ... .. . ... ... : ... .. . ... ...
ROW 3A : ... .. 0 ... V00 ... : ... .. 0 ... ... ... : --- .. . ... : ... .. 3 ... : ... .. . ... ... : --- .. . P81 ... : --- .. . P80 ... : ... .. . ... ...
ROW 3B : ... .. . ... ... ... : ... .. . ... ... ... : ... .. . ... : ... .. 2 ... : ... .. . ... ... : ... .. . ... ... : ... .. . ... ... : ... .. . ... ...
ROW 3C : A#2 00 F P80 V01 ... : F-3 00 F P80 ... ... : A#2 00 . ... : 6-# 00 F ... : ... .. . ... ... : E-3 01 A P80 ... : E-4 01 A P81 ... : ... .. . ... ...
ROW 3D : ... .. E ... ... ... : ... .. E ... ... ... : ... .. . ... : ... .. C ... : ... .. . ... ... : ... .. 9 ... ... : ... .. 9 ... ... : ... .. . ... ...
ROW 3E : ... .. D ... ... ... : ... .. D ... ... ... : ... .. . ... : ... .. 6 ... : ... .. . ... ... : ... .. . ... ... : ... .. . ... ... : ... .. . ... ...
ROW 3F : ... .. A ... ... ... : ... .. A ... ... ... : ... .. . ... : ... .. 3 ... : ... .. . ... ... : --- .. . P82 ... : --- .. . ... ... : ... .. . ... ...
ROW 40 : ... .. . ... ... ... : ... .. . ... ... ... : ... .. . ... : ... .. 2 ... : ... .. . ... ... : ... .. . ... ... : ... .. . ... ... : ... .. . ... ...
ROW 41 : ... .. . ... ... ... : ... .. . ... ... ... : ... .. . ... : ... .. 0 ... : ... .. . ... ... : G-2 01 A P80 ... : G-3 01 A ... ... : ... .. . ... ...
ROW 42 : ... .. . ... ... ... : ... .. . ... ... ... : ... .. . ... : ... .. . ... : ... .. . ... ... : ... .. 9 ... ... : ... .. 9 ... ... : ... .. . ... ...
ROW 43 : ... .. . ... ... ... : ... .. . ... ... ... : ... .. . ... : ... .. . ... : ... .. . ... ... : ... .. . ... ... : ... .. . ... ... : ... .. . ... ...
ROW 44 : ... .. 0 ... V00 ... : ... .. 0 ... ... ... : --- .. . ... : ... .. . ... : ... .. . ... ... : --- .. . P81 ... : --- .. . P80 ... : ... .. . ... ...
ROW 45 : ... .. . ... ... ... : ... .. . ... ... ... : ... .. . ... : ... .. . ... : ... .. . ... ... : ... .. . ... ... : ... .. . ... ... : ... .. . ... ...
ROW 46 : G#2 00 F P80 V01 ... : D#3 00 F P80 ... ... : G#2 00 . ... : D-# 00 F ... : ... .. . ... ... : E-3 01 A P80 ... : E-4 01 A P81 ... : ... .. . ... ...
ROW 47 : ... .. E ... ... ... : ... .. E ... ... ... : ... .. . ... : ... .. C ... : ... .. . ... ... : ... .. 9 ... ... : ... .. 9 ... ... : ... .. . ... ...
ROW 48 : ... .. D ... ... ... : ... .. D ... ... ... : ... .. . ... : ... .. 6 ... : ... .. . ... ... : ... .. . ... ... : ... .. . ... ... : ... .. . ... ...
ROW 49 : ... .. A ... ... ... : ... .. A ... ... ... : ... .. . ... : ... .. 3 ... : ... .. . ... ... : --- .. . P82 ... : --- .. . ... ... : ... .. . ... ...
ROW 4A : ... .. . ... ... ... : ... .. . ... ... ... : ... .. . ... : ... .. 2 ... : ... .. . ... ... : ... .. . ... ... : ... .. . ... ... : ... .. . ... ...
ROW 4B : ... .. . ... ... ... : ... .. . ... ... ... : ... .. . ... : ... .. 0 ... : ... .. . ... ... : G-2 01 A P80 ... : G-3 01 A ... ... : ... .. . ... ...
ROW 4C : ... .. . ... ... ... : ... .. . ... ... ... : ... .. . ... : ... .. . ... : ... .. . ... ... : ... .. 9 ... ... : ... .. 9 ... ... : ... .. . ... ...
ROW 4D : ... .. . ... ... ... : ... .. . ... ... ... : ... .. . ... : ... .. . ... : ... .. . ... ... : ... .. . ... ... : ... .. . ... ... : ... .. . ... ...
ROW 4E : ... .. 0 ... V00 ... : ... .. 0 ... ... ... : --- .. . ... : ... .. . ... : ... .. . ... ... : --- .. . P81 ... : --- .. . P80 ... : ... .. . ... ...
ROW 4F : ... .. . ... ... ... : ... .. . ... ... ... : ... .. . ... : ... .. . ... : ... .. . ... ... : ... .. . ... ... : ... .. . ... ... : ... .. . ... ...
ROW 50 : F-2 00 F P80 V01 ... : C-3 00 F P80 ... ... : F-3 00 . ... : 3-# 00 F ... : ... .. . ... ... : D#3 01 A P80 ... : D#4 01 A P81 ... : ... .. . ... ...
ROW 51 : ... .. E ... ... ... : ... .. E ... ... ... : ... .. . ... : ... .. C ... : ... .. . ... ... : ... .. 9 ... ... : ... .. 9 ... ... : ... .. . ... ...
ROW 52 : ... .. D ... ... ... : ... .. D ... ... ... : ... .. . ... : ... .. 6 ... : ... .. . ... ... : ... .. . ... ... : ... .. . ... ... : ... .. . ... ...
ROW 53 : ... .. 0 ... V00 ... : ... .. 0 ... ... ... : ... .. . ... : ... .. 3 ... : ... .. . ... ... : --- .. . P83 ... : --- .. . ... ... : ... .. . ... ...
ROW 54 : ... .. . ... ... ... : ... .. . ... ... ... : ... .. . ... : ... .. 2 ... : ... .. . ... ... : ... .. . ... ... : ... .. . ... ... : ... .. . ... ...
ROW 55 : F-2 00 F P80 V01 ... : C-3 00 F P80 ... ... : ... .. . ... : ... .. 0 ... : ... .. . ... ... : F#2 01 A P80 ... : F#3 01 A ... ... : ... .. . ... ...
ROW 56 : ... .. E ... ... ... : ... .. E ... ... ... : ... .. . ... : ... .. . ... : ... .. . ... ... : ... .. 9 ... ... : ... .. 9 ... ... : ... .. . ... ...
ROW 57 : ... .. D ... ... ... : ... .. D ... ... ... : ... .. . ... : ... .. . ... : ... .. . ... ... : ... .. . ... ... : ... .. . ... ... : ... .. . ... ...
ROW 58 : ... .. 0 ... V00 ... : ... .. 0 ... ... ... : --- .. . ... : ... .. . ... : ... .. . ... ... : --- .. . P82 ... : --- .. . P80 ... : ... .. . ... ...
ROW 59 : ... .. . ... ... ... : ... .. . ... ... ... : ... .. . ... : ... .. . ... : ... .. . ... ... : ... .. . ... ... : ... .. . ... ... : ... .. . ... ...
ROW 5A : A#2 00 F P80 V01 ... : F-3 00 F P80 ... ... : E-3 00 . ... : D-# 00 F ... : ... .. . ... ... : A#2 01 A P80 ... : A#3 01 A P81 ... : ... .. . ... ...
ROW 5B : ... .. E ... ... ... : ... .. E ... ... ... : ... .. . ... : ... .. C ... : ... .. . ... ... : ... .. 9 ... ... : ... .. 9 ... ... : ... .. . ... ...
ROW 5C : ... .. D ... ... ... : ... .. D ... ... ... : ... .. . ... : ... .. 6 ... : ... .. . ... ... : ... .. . ... ... : ... .. . ... ... : ... .. . ... ...
ROW 5D : ... .. 0 ... V00 ... : ... .. 0 ... ... ... : --- .. . ... : ... .. 3 ... : ... .. . ... ... : --- .. . P82 ... : --- .. . ... ... : ... .. . ... ...
ROW 5E : ... .. . ... ... ... : ... .. . ... ... ... : ... .. . ... : ... .. 2 ... : ... .. . ... ... : ... .. . ... ... : ... .. . ... ... : ... .. . ... ...
ROW 5F : B-2 00 F P80 V01 ... : F#3 00 F P80 ... ... : D#3 00 . ... : ... .. F ... : ... .. . ... ... : B-2 01 A P80 ... : B-3 01 A ... ... : ... .. . ... ...
ROW 60 : ... .. E ... ... ... : ... .. E ... ... ... : ... .. . ... : ... .. C ... : ... .. . ... ... : ... .. 9 ... ... : ... .. 9 ... ... : ... .. . ... ...
ROW 61 : ... .. D ... ... ... : ... .. D ... ... ... : ... .. . ... : ... .. 6 ... : ... .. . ... ... : ... .. . ... ... : ... .. . ... ... : ... .. . ... ...
ROW 62 : ... .. 0 ... V00 ... : ... .. 0 ... ... ... : --- .. . ... : ... .. 3 ... : ... .. . ... ... : --- .. . P85 ... : --- .. . ... ... : ... .. . ... ...
ROW 63 : ... .. . ... ... ... : ... .. . ... ... ... : ... .. . ... : ... .. 2 ... : ... .. . ... ... : ... .. . ... ... : ... .. . ... ... : ... .. . ... ...
ROW 64 : C-3 00 F P80 V01 ... : G-3 00 F P80 ... ... : D-3 00 . ... : 6-# 00 F ... : ... .. . ... ... : C-3 01 A P80 ... : C-4 01 A ... ... : ... .. . ... ...
ROW 65 : ... .. E ... ... ... : ... .. E ... ... ... : ... .. . ... : ... .. C ... : ... .. . ... ... : ... .. 9 ... ... : ... .. 9 ... ... : ... .. . ... ...
ROW 66 : ... .. D ... ... ... : ... .. D ... ... ... : ... .. . ... : ... .. 6 ... : ... .. . ... ... : ... .. . ... ... : ... .. . ... ... : ... .. . ... ...
ROW 67 : ... .. A ... ... ... : ... .. A ... ... ... : --- .. . ... : ... .. 3 ... : ... .. . ... ... : --- .. . P7E ... : --- .. . ... ... : ... .. . ... ...
ROW 68 : ... .. . ... ... ... : ... .. . ... ... ... : ... .. . ... : ... .. 2 ... : ... .. . ... ... : ... .. . ... ... : ... .. . ... ... : ... .. . ... ...
ROW 69 : D#3 00 F ... ... ... : A#3 00 F ... ... ... : C#3 00 . ... : ... .. 0 ... : ... .. . ... ... : D#3 01 A P80 ... : D#4 01 A ... ... : ... .. . ... ...
ROW 6A : ... .. E ... ... ... : ... .. E ... ... ... : ... .. . ... : ... .. . ... : ... .. . ... ... : ... .. 9 ... ... : ... .. 9 ... ... : ... .. . ... ...
ROW 6B : ... .. D ... ... ... : ... .. D ... ... ... : ... .. . ... : ... .. . ... : ... .. . ... ... : ... .. . ... ... : ... .. . ... ... : ... .. . ... ...
ROW 6C : ... .. 0 ... V00 ... : ... .. 0 ... ... ... : --- .. . ... : ... .. . ... : ... .. . ... ... : --- .. . P83 ... : --- .. . ... ... : ... .. . ... ...
ROW 6D : ... .. . ... ... ... : ... .. . ... ... ... : ... .. . ... : ... .. . ... : ... .. . ... ... : ... .. . ... ... : ... .. . ... ... : ... .. . ... ...
ROW 6E : C-3 00 F P80 V01 ... : G-3 00 F P80 ... ... : C-3 00 . ... : D-# 00 F ... : ... .. . ... ... : C-3 01 A P80 ... : C-4 01 A ... ... : ... .. . ... ...
ROW 6F : ... .. E ... ... ... : ... .. E ... ... ... : ... .. . ... : ... .. C ... : ... .. . ... ... : ... .. 9 ... ... : ... .. 9 ... ... : ... .. . ... ...
ROW 70 : ... .. D ... ... ... : ... .. D ... ... ... : ... .. . ... : ... .. 6 ... : ... .. . ... ... : ... .. . ... ... : ... .. . ... ... : ... .. . ... ...
ROW 71 : ... .. 0 ... V00 ... : ... .. 0 ... ... ... : --- .. . ... : ... .. 3 ... : ... .. . ... ... : --- .. . P7E ... : --- .. . ... ... : ... .. . ... ...
ROW 72 : ... .. . ... ... ... : ... .. . ... ... ... : ... .. . ... : ... .. 2 ... : ... .. . ... ... : ... .. . ... ... : ... .. . ... ... : ... .. . ... ...
ROW 73 : F-3 00 F P80 V01 ... : C-4 00 F P80 ... ... : F-2 00 . ... : ... .. F ... : ... .. . ... ... : F-3 01 A P80 ... : F-4 01 A ... ... : ... .. . ... ...
ROW 74 : ... .. E ... ... ... : ... .. E ... ... ... : ... .. . ... : ... .. C ... : ... .. . ... ... : ... .. 9 ... ... : ... .. 9 ... ... : ... .. . ... ...
ROW 75 : ... .. D ... ... ... : ... .. D ... ... ... : ... .. . ... : ... .. 6 ... : ... .. . ... ... : ... .. . ... ... : ... .. . ... ... : ... .. . ... ...
ROW 76 : ... .. A ... ... ... : ... .. A ... ... ... : ... .. . ... : ... .. 3 ... : ... .. . ... ... : --- .. . ... ... : --- .. . ... ... : ... .. . ... ...
ROW 77 : ... .. . ... ... ... : ... .. . ... ... ... : ... .. . ... : ... .. 2 ... : ... .. . ... ... : ... .. . ... ... : ... .. . ... ... : ... .. . ... ...
ROW 78 : ... .. 0 ... V00 ... : ... .. 0 ... ... ... : ... .. . ... : 3-# 00 F ... : ... .. . ... ... : G#3 01 A ... ... : G#4 01 A ... ... : ... .. . ... ...
ROW 79 : ... .. . ... ... ... : ... .. . ... ... ... : ... .. . ... : ... .. C ... : ... .. . ... ... : ... .. 9 ... ... : ... .. 9 ... ... : ... .. . ... ...
ROW 7A : ... .. . ... ... ... : ... .. . ... ... ... : ... .. . ... : ... .. 6 ... : ... .. . ... ... : ... .. . ... ... : ... .. . ... ... : ... .. . ... ...
ROW 7B : ... .. . ... ... ... : ... .. . ... ... ... : ... .. . ... : ... .. 3 ... : ... .. . ... ... : --- .. . P82 ... : --- .. . ... ... : ... .. . ... ...
ROW 7C : ... .. . ... ... ... : ... .. . ... ... ... : ... .. . ... : ... .. 2 ... : ... .. . ... ... : ... .. . ... ... : ... .. . ... ... : ... .. . ... ...
ROW 7D : ... .. . ... ... ... : ... .. . ... ... ... : ... .. . ... : ... .. 0 ... : ... .. . ... ... : ... .. . ... ... : ... .. . ... ... : ... .. . ... ...
ROW 7E : ... .. . ... ... ... : ... .. . ... ... ... : ... .. . ... : ... .. . ... : ... .. . ... ... : ... .. . ... ... : ... .. . ... ... : ... .. . ... ...
ROW 7F : ... .. . ... ... ... : ... .. . ... ... ... : ... .. . ... : ... .. . ... : ... .. . ... ... : ... .. . ... ... : ... .. . ... ... : ... .. . ... ...
ROW 80 : ... .. . ... ... ... : ... .. . ... ... ... : ... .. . ... : ... .. . ... : ... .. . ... ... : ... .. . ... ... : ... .. . ... ... : ... .. . ... ...
ROW 81 : ... .. . ... ... ... : ... .. . ... ... ... : ... .. . ... : ... .. . ... : ... .. . ... ... : ... .. . ... ... : ... .. . ... ... : ... .. . ... ...
ROW 82 : D-4 00 F P80 V02 ... : ... .. . ... ... ... : ... .. . ... : ... .. . ... : ... .. . ... ... : ... .. . ... ... : ... .. . ... ... : ... .. . ... ...
ROW 83 : ... .. E ... ... ... : ... .. . ... ... ... : ... .. . ... : ... .. . ... : ... .. . ... ... : ... .. . ... ... : ... .. . ... ... : ... .. . ... ...
ROW 84 : ... .. D ... ... ... : ... .. . ... ... ... : ... .. . ... : ... .. . ... : ... .. . ... ... : ... .. . ... ... : ... .. . ... ... : ... .. . ... ...
ROW 85 : ... .. 0 ... V00 ... : ... .. . ... ... ... : ... .. . ... : ... .. . ... : ... .. . ... ... : ... .. . ... ... : ... .. . ... ... : ... .. . ... ...
ROW 86 : ... .. . ... ... ... : ... .. . ... ... ... : ... .. . ... : ... .. . ... : ... .. . ... ... : ... .. . ... ... : ... .. . ... ... : ... .. . ... ...
ROW 87 : E-4 00 F P80 V02 ... : ... .. . ... ... ... : ... .. . ... : ... .. . ... : ... .. . ... ... : ... .. . ... ... : ... .. . ... ... : ... .. . ... ...
ROW 88 : ... .. E ... ... ... : ... .. . ... ... ... : ... .. . ... : ... .. . ... : ... .. . ... ... : ... .. . ... ... : ... .. . ... ... : ... .. . ... ...
ROW 89 : ... .. D ... ... ... : ... .. . ... ... ... : ... .. . ... : ... .. . ... : ... .. . ... ... : ... .. . ... ... : ... .. . ... ... : ... .. . ... ...
ROW 8A : ... .. 0 ... V00 ... : ... .. . ... ... ... : ... .. . ... : ... .. . ... : ... .. . ... ... : ... .. . ... ... : ... .. . ... ... : ... .. . ... ...
ROW 8B : ... .. . ... ... ... : ... .. . ... ... ... : ... .. . ... : ... .. . ... : ... .. . ... ... : ... .. . ... ... : ... .. . ... ... : ... .. . ... ...
ROW 8C : F-4 00 F P80 V02 ... : ... .. . ... ... ... : C-3 00 . ... : 6-# 00 F ... : ... .. . ... ... : ... .. . ... ... : ... .. . ... ... : ... .. . ... ...
ROW 8D : ... .. E ... ... ... : ... .. . ... ... ... : ... .. . ... : ... .. C ... : ... .. . ... ... : ... .. . ... ... : ... .. . ... ... : ... .. . ... ...
ROW 8E : ... .. D ... ... ... : ... .. . ... ... ... : ... .. . ... : ... .. 6 ... : ... .. . ... ... : ... .. . ... ... : ... .. . ... ... : ... .. . ... ...
ROW 8F : ... .. 0 ... V00 ... : ... .. . ... ... ... : ... .. . ... : ... .. 3 ... : ... .. . ... ... : ... .. . ... ... : ... .. . ... ... : ... .. . ... ...
ROW 90 : ... .. . ... ... ... : ... .. . ... ... ... : ... .. . ... : ... .. 2 ... : ... .. . ... ... : ... .. . ... ... : ... .. . ... ... : ... .. . ... ...
ROW 91 : G-4 00 F P80 V02 ... : ... .. . ... ... ... : ... .. . ... : ... .. 0 ... : ... .. . ... ... : ... .. . ... ... : ... .. . ... ... : ... .. . ... ...
ROW 92 : ... .. E ... ... ... : ... .. . ... ... ... : ... .. . ... : ... .. . ... : ... .. . ... ... : ... .. . ... ... : ... .. . ... ... : ... .. . ... ...
ROW 93 : ... .. D ... ... ... : ... .. . ... ... ... : ... .. . ... : ... .. . ... : ... .. . ... ... : ... .. . ... ... : ... .. . ... ... : ... .. . ... ...
ROW 94 : ... .. 0 ... V00 ... : ... .. . ... ... ... : ... .. . ... : ... .. . ... : ... .. . ... ... : ... .. . ... ... : ... .. . ... ... : ... .. . ... ...
ROW 95 : ... .. . ... ... ... : ... .. . ... ... ... : ... .. . ... : ... .. . ... : ... .. . ... ... : ... .. . ... ... : ... .. . ... ... : ... .. . ... ...
ROW 96 : G#4 00 F P80 V02 ... : ... .. . ... ... ... : ... .. . ... : B-# 00 8 ... : ... .. . ... ... : ... .. . ... ... : ... .. . ... ... : ... .. . ... ...
ROW 97 : ... .. E ... ... ... : ... .. . ... ... ... : ... .. . P89 : ... .. 6 ... : ... .. . ... ... : ... .. . ... ... : ... .. . ... ... : ... .. . ... ...
ROW 98 : ... .. D ... ... ... : ... .. . ... ... ... : C#3 00 . P7A : ... .. 3 ... : ... .. . ... ... : ... .. . ... ... : ... .. . ... ... : ... .. . ... ...
ROW 99 : ... .. 0 ... V00 ... : ... .. . ... ... ... : ... .. . P83 : ... .. 1 ... : ... .. . ... ... : ... .. . ... ... : ... .. . ... ... : ... .. . ... ...
ROW 9A : ... .. . ... ... ... : ... .. . ... ... ... : D-3 00 . P75 : ... .. 8 ... : ... .. . ... ... : ... .. . ... ... : ... .. . ... ... : ... .. . ... ...
ROW 9B : A#4 00 F P80 V02 ... : ... .. . ... ... ... : ... .. . P7E : ... .. 6 ... : ... .. . ... ... : ... .. . ... ... : ... .. . ... ... : ... .. . ... ...
ROW 9C : ... .. E ... ... ... : ... .. . ... ... ... : ... .. . P87 : ... .. 3 ... : ... .. . ... ... : ... .. . ... ... : ... .. . ... ... : ... .. . ... ...
ROW 9D : ... .. D ... ... ... : ... .. . ... ... ... : D#3 00 . P7B : ... .. 8 ... : ... .. . ... ... : ... .. . ... ... : ... .. . ... ... : ... .. . ... ...
ROW 9E : ... .. 0 ... V00 ... : ... .. . ... ... ... : ... .. . P84 : ... .. 6 ... : ... .. . ... ... : ... .. . ... ... : ... .. . ... ... : ... .. . ... ...
ROW 9F : ... .. . ... ... ... : ... .. . ... ... ... : E-3 00 . P78 : ... .. 3 ... : ... .. . ... ... : ... .. . ... ... : ... .. . ... ... : ... .. . ... ...
ROW A0 : C-5 00 F P80 V02 ... : ... .. . ... ... ... : F-3 00 . P80 : 3-# 00 F ... : ... .. . ... ... : ... .. . ... ... : ... .. . ... ... : ... .. . ... ...
ROW A1 : ... .. E ... ... ... : ... .. . ... ... ... : ... .. . ... : ... .. C ... : ... .. . ... ... : ... .. . ... ... : ... .. . ... ... : ... .. . ... ...
ROW A2 : ... .. D ... ... ... : ... .. . ... ... ... : ... .. . ... : ... .. 6 ... : ... .. . ... ... : ... .. . ... ... : ... .. . ... ... : ... .. . ... ...
ROW A3 : ... .. A ... ... ... : ... .. . ... ... ... : ... .. . ... : ... .. 3 ... : ... .. . ... ... : ... .. . ... ... : ... .. . ... ... : ... .. . ... ...
ROW A4 : ... .. . ... ... ... : ... .. . ... ... ... : ... .. . ... : ... .. 2 ... : ... .. . ... ... : ... .. . ... ... : ... .. . ... ... : ... .. . ... ...
ROW A5 : ... .. . ... ... ... : ... .. . ... ... ... : --- .. . ... : ... .. 0 ... : ... .. . ... ... : ... .. . ... ... : ... .. . ... ... : ... .. . ... ...
ROW A6 : ... .. . ... ... ... : ... .. . ... ... ... : ... .. . ... : ... .. . ... : ... .. . ... ... : ... .. . ... ... : ... .. . ... ... : ... .. . ... ...
ROW A7 : ... .. . ... ... ... : ... .. . ... ... ... : ... .. . ... : ... .. . ... : ... .. . ... ... : ... .. . ... ... : ... .. . ... ... : ... .. . ... ...
ROW A8 : ... .. . ... ... ... : ... .. . ... ... ... : ... .. . ... : ... .. . ... : ... .. . ... ... : ... .. . ... ... : ... .. . ... ... : ... .. . ... ...
ROW A9 : ... .. . ... ... ... : ... .. . ... ... ... : ... .. . ... : ... .. . ... : ... .. . ... ... : ... .. . ... ... : ... .. . ... ... : ... .. . ... ...
ROW AA : ... .. 0 ... V00 ... : ... .. . ... ... ... : G#4 00 . ... : D-# 00 F ... : ... .. . ... ... : F-3 01 A P80 ... : G#3 01 A ... ... : ... .. . ... ...
ROW AB : ... .. . ... ... ... : ... .. . ... ... ... : ... .. . ... : ... .. C ... : ... .. . ... ... : ... .. 9 ... ... : ... .. 9 ... ... : ... .. . ... ...
ROW AC : ... .. . ... ... ... : ... .. . ... ... ... : ... .. . ... : ... .. 6 ... : ... .. . ... ... : ... .. . ... ... : ... .. . ... ... : ... .. . ... ...
ROW AD : ... .. . ... ... ... : ... .. . ... ... ... : ... .. . ... : ... .. 3 ... : ... .. . ... ... : ... .. 8 ... ... : ... .. 8 ... ... : ... .. . ... ...
ROW AE : ... .. . ... ... ... : ... .. . ... ... ... : ... .. . ... : ... .. 2 ... : ... .. . ... ... : ... .. 7 ... ... : ... .. 7 ... ... : ... .. . ... ...
ROW AF : ... .. . ... ... ... : ... .. . ... ... ... : --- .. . ... : ... .. F ... : ... .. . ... ... : --- .. . ... ... : --- .. . P83 ... : ... .. . ... ...
ROW B0 : ... .. . ... ... ... : ... .. . ... ... ... : ... .. . ... : ... .. C ... : ... .. . ... ... : ... .. . ... ... : ... .. . ... ... : ... .. . ... ...
ROW B1 : ... .. . ... ... ... : ... .. . ... ... ... : ... .. . ... : ... .. 6 ... : ... .. . ... ... : ... .. . ... ... : ... .. . ... ... : ... .. . ... ...
ROW B2 : ... .. . ... ... ... : ... .. . ... ... ... : ... .. . ... : ... .. 3 ... : ... .. . ... ... : ... .. . ... ... : ... .. . ... ... : ... .. . ... ...
ROW B3 : ... .. . ... ... ... : ... .. . ... ... ... : ... .. . ... : ... .. 2 ... : ... .. . ... ... : ... .. . ... ... : ... .. . ... ... : ... .. . ... ...
ROW B4 : F-4 00 F P80 V02 ... : ... .. . ... ... ... : F-3 00 . ... : 6-# 00 F ... : ... .. . ... ... : ... .. . ... ... : ... .. . ... ... : ... .. . ... ...
ROW B5 : ... .. E ... ... ... : ... .. . ... ... ... : ... .. . ... : ... .. C ... : ... .. . ... ... : ... .. . ... ... : ... .. . ... ... : ... .. . ... ...
ROW B6 : ... .. D ... ... ... : ... .. . ... ... ... : ... .. . ... : ... .. 6 ... : ... .. . ... ... : ... .. . ... ... : ... .. . ... ... : ... .. . ... ...
ROW B7 : ... .. A ... ... ... : ... .. . ... ... ... : ... .. . ... : ... .. 3 ... : ... .. . ... ... : ... .. . ... ... : ... .. . ... ... : ... .. . ... ...
ROW B8 : ... .. . ... ... ... : ... .. . ... ... ... : ... .. . ... : ... .. 2 ... : ... .. . ... ... : ... .. . ... ... : ... .. . ... ... : ... .. . ... ...
ROW B9 : ... .. 0 ... V00 ... : ... .. . ... ... ... : --- .. . ... : ... .. 0 ... : ... .. . ... ... : ... .. . ... ... : ... .. . ... ... : ... .. . ... ...
ROW BA : ... .. . ... ... ... : ... .. . ... ... ... : ... .. . ... : ... .. . ... : ... .. . ... ... : ... .. . ... ... : ... .. . ... ... : ... .. . ... ...
ROW BB : ... .. . ... ... ... : ... .. . ... ... ... : ... .. . ... : ... .. . ... : ... .. . ... ... : ... .. . ... ... : ... .. . ... ... : ... .. . ... ...
ROW BC : ... .. . ... ... ... : ... .. . ... ... ... : ... .. . ... : ... .. . ... : ... .. . ... ... : ... .. . ... ... : ... .. . ... ... : ... .. . ... ...
ROW BD : ... .. . ... ... ... : ... .. . ... ... ... : ... .. . ... : ... .. . ... : ... .. . ... ... : ... .. . ... ... : ... .. . ... ... : ... .. . ... ...
ROW BE : C-5 00 F P80 V02 ... : ... .. . ... ... ... : G#4 00 . ... : D-# 00 F ... : ... .. . ... ... : F-3 01 A ... ... : G#3 01 A P81 ... : ... .. . ... ...
ROW BF : ... .. E ... ... ... : ... .. . ... ... ... : ... .. . ... : ... .. C ... : ... .. . ... ... : ... .. 9 ... ... : ... .. 9 ... ... : ... .. . ... ...
ROW C0 : ... .. D ... ... ... : ... .. . ... ... ... : ... .. . ... : ... .. 6 ... : ... .. . ... ... : ... .. . ... ... : ... .. . ... ... : ... .. . ... ...
ROW C1 : ... .. A ... ... ... : ... .. . ... ... ... : ... .. . ... : ... .. 3 ... : ... .. . ... ... : ... .. 8 ... ... : ... .. 8 ... ... : ... .. . ... ...
ROW C2 : ... .. . ... ... ... : ... .. . ... ... ... : ... .. . ... : ... .. 2 ... : ... .. . ... ... : ... .. 7 ... ... : ... .. 7 ... ... : ... .. . ... ...
ROW C3 : ... .. 0 ... V00 ... : ... .. . ... ... ... : --- .. . ... : ... .. F ... : ... .. . ... ... : --- .. . ... ... : --- .. . P83 ... : ... .. . ... ...
ROW C4 : ... .. . ... ... ... : ... .. . ... ... ... : ... .. . ... : ... .. C ... : ... .. . ... ... : ... .. . ... ... : ... .. . ... ... : ... .. . ... ...
ROW C5 : ... .. . ... ... ... : ... .. . ... ... ... : ... .. . ... : ... .. 6 ... : ... .. . ... ... : ... .. . ... ... : ... .. . ... ... : ... .. . ... ...
ROW C6 : ... .. . ... ... ... : ... .. . ... ... ... : ... .. . ... : ... .. 3 ... : ... .. . ... ... : ... .. . ... ... : ... .. . ... ... : ... .. . ... ...
ROW C7 : ... .. . ... ... ... : ... .. . ... ... ... : ... .. . ... : ... .. 2 ... : ... .. . ... ... : ... .. . ... ... : ... .. . ... ... : ... .. . ... ...
ROW C8 : C-5 00 F P80 V02 ... : ... .. . ... ... ... : F#3 00 . ... : 3-# 00 F ... : ... .. . ... ... : ... .. . ... ... : ... .. . ... ... : ... .. . ... ...
ROW C9 : ... .. E ... ... ... : ... .. . ... ... ... : ... .. . ... : ... .. C ... : ... .. . ... ... : ... .. . ... ... : ... .. . ... ... : ... .. . ... ...
ROW CA : ... .. D ... ... ... : ... .. . ... ... ... : ... .. . ... : ... .. 6 ... : ... .. . ... ... : ... .. . ... ... : ... .. . ... ... : ... .. . ... ...
ROW CB : ... .. A ... ... ... : ... .. . ... ... ... : ... .. . ... : ... .. 3 ... : ... .. . ... ... : ... .. . ... ... : ... .. . ... ... : ... .. . ... ...
ROW CC : ... .. . ... ... ... : ... .. . ... ... ... : ... .. . ... : ... .. 2 ... : ... .. . ... ... : ... .. . ... ... : ... .. . ... ... : ... .. . ... ...
ROW CD : ... .. . ... ... ... : ... .. . ... ... ... : --- .. . ... : ... .. 0 ... : ... .. . ... ... : ... .. . ... ... : ... .. . ... ... : ... .. . ... ...
ROW CE : ... .. . ... ... ... : ... .. . ... ... ... : ... .. . ... : ... .. . ... : ... .. . ... ... : ... .. . ... ... : ... .. . ... ... : ... .. . ... ...
ROW CF : ... .. . ... ... ... : ... .. . ... ... ... : ... .. . ... : ... .. . ... : ... .. . ... ... : ... .. . ... ... : ... .. . ... ... : ... .. . ... ...
ROW D0 : ... .. . ... ... ... : ... .. . ... ... ... : ... .. . ... : ... .. . ... : ... .. . ... ... : ... .. . ... ... : ... .. . ... ... : ... .. . ... ...
ROW D1 : ... .. . ... ... ... : ... .. . ... ... ... : ... .. . ... : ... .. . ... : ... .. . ... ... : ... .. . ... ... : ... .. . ... ... : ... .. . ... ...
ROW D2 : C#5 00 F ... ... ... : ... .. . ... ... ... : A#4 00 . ... : D-# 00 F ... : ... .. . ... ... : F#3 01 A ... ... : A#3 01 A P81 ... : ... .. . ... ...
ROW D3 : ... .. E ... ... ... : ... .. . ... ... ... : ... .. . ... : ... .. C ... : ... .. . ... ... : ... .. 9 ... ... : ... .. 9 ... ... : ... .. . ... ...
ROW D4 : ... .. D ... ... ... : ... .. . ... ... ... : ... .. . ... : ... .. 6 ... : ... .. . ... ... : ... .. . ... ... : ... .. . ... ... : ... .. . ... ...
ROW D5 : ... .. 0 ... V00 ... : ... .. . ... ... ... : ... .. . ... : ... .. 3 ... : ... .. . ... ... : ... .. 8 ... ... : ... .. 8 ... ... : ... .. . ... ...
ROW D6 : ... .. . ... ... ... : ... .. . ... ... ... : ... .. . ... : ... .. 2 ... : ... .. . ... ... : ... .. 7 ... ... : ... .. 7 ... ... : ... .. . ... ...
ROW D7 : C-5 00 F P80 V02 ... : ... .. . ... ... ... : --- .. . ... : ... .. F ... : ... .. . ... ... : --- .. . P7F ... : --- .. . ... ... : ... .. . ... ...
ROW D8 : ... .. E ... ... ... : ... .. . ... ... ... : ... .. . ... : ... .. C ... : ... .. . ... ... : ... .. . ... ... : ... .. . ... ... : ... .. . ... ...
ROW D9 : ... .. D ... ... ... : ... .. . ... ... ... : ... .. . ... : ... .. 6 ... : ... .. . ... ... : ... .. . ... ... : ... .. . ... ... : ... .. . ... ...
ROW DA : ... .. 0 ... V00 ... : ... .. . ... ... ... : ... .. . ... : ... .. 3 ... : ... .. . ... ... : ... .. . ... ... : ... .. . ... ... : ... .. . ... ...
ROW DB : ... .. . ... ... ... : ... .. . ... ... ... : ... .. . ... : ... .. 2 ... : ... .. . ... ... : ... .. . ... ... : ... .. . ... ... : ... .. . ... ...
ROW DC : A#4 00 F P80 V02 ... : ... .. . ... ... ... : E-3 00 . ... : 6-# 00 F ... : ... .. . ... ... : ... .. . ... ... : ... .. . ... ... : ... .. . ... ...
ROW DD : ... .. E ... ... ... : ... .. . ... ... ... : ... .. . ... : ... .. C ... : ... .. . ... ... : ... .. . ... ... : ... .. . ... ... : ... .. . ... ...
ROW DE : ... .. D ... ... ... : ... .. . ... ... ... : ... .. . ... : ... .. 6 ... : ... .. . ... ... : ... .. . ... ... : ... .. . ... ... : ... .. . ... ...
ROW DF : ... .. A ... ... ... : ... .. . ... ... ... : ... .. . ... : ... .. 3 ... : ... .. . ... ... : ... .. . ... ... : ... .. . ... ... : ... .. . ... ...
ROW E0 : ... .. . ... ... ... : ... .. . ... ... ... : ... .. . ... : ... .. 2 ... : ... .. . ... ... : ... .. . ... ... : ... .. . ... ... : ... .. . ... ...
ROW E1 : ... .. 0 ... V00 ... : ... .. . ... ... ... : --- .. . ... : ... .. 0 ... : ... .. . ... ... : ... .. . ... ... : ... .. . ... ... : ... .. . ... ...
ROW E2 : ... .. . ... ... ... : ... .. . ... ... ... : ... .. . ... : ... .. . ... : ... .. . ... ... : ... .. . ... ... : ... .. . ... ... : ... .. . ... ...
ROW E3 : ... .. . ... ... ... : ... .. . ... ... ... : ... .. . ... : ... .. . ... : ... .. . ... ... : ... .. . ... ... : ... .. . ... ... : ... .. . ... ...
ROW E4 : ... .. . ... ... ... : ... .. . ... ... ... : ... .. . ... : ... .. . ... : ... .. . ... ... : ... .. . ... ... : ... .. . ... ... : ... .. . ... ...
ROW E5 : ... .. . ... ... ... : ... .. . ... ... ... : ... .. . ... : ... .. . ... : ... .. . ... ... : ... .. . ... ... : ... .. . ... ... : ... .. . ... ...
ROW E6 : C-5 00 F P80 V02 ... : ... .. . ... ... ... : G-4 00 . ... : D-# 00 F ... : ... .. . ... ... : G-3 01 A P80 ... : A#3 01 A ... ... : ... .. . ... ...
ROW E7 : ... .. E ... ... ... : ... .. . ... ... ... : ... .. . ... : ... .. C ... : ... .. . ... ... : ... .. 9 ... ... : ... .. 9 ... ... : ... .. . ... ...
ROW E8 : ... .. D ... ... ... : ... .. . ... ... ... : ... .. . ... : ... .. 6 ... : ... .. . ... ... : ... .. . ... ... : ... .. . ... ... : ... .. . ... ...
ROW E9 : ... .. A ... ... ... : ... .. . ... ... ... : ... .. . ... : ... .. 3 ... : ... .. . ... ... : ... .. 8 ... ... : ... .. 8 ... ... : ... .. . ... ...
ROW EA : ... .. . ... ... ... : ... .. . ... ... ... : ... .. . ... : ... .. 2 ... : ... .. . ... ... : ... .. 7 ... ... : ... .. 7 ... ... : ... .. . ... ...
ROW EB : ... .. 0 ... V00 ... : ... .. . ... ... ... : --- .. . ... : ... .. 0 ... : ... .. . ... ... : --- .. . P81 ... : --- .. . ... ... : ... .. . ... ...
ROW EC : ... .. . ... ... ... : ... .. . ... ... ... : ... .. . ... : ... .. . ... : ... .. . ... ... : ... .. . ... ... : ... .. . ... ... : ... .. . ... ...
ROW ED : ... .. . ... ... ... : ... .. . ... ... ... : ... .. . ... : ... .. . ... : ... .. . ... ... : ... .. . ... ... : ... .. . ... ... : ... .. . ... ...
ROW EE : ... .. . ... ... ... : ... .. . ... ... ... : ... .. . ... : ... .. . ... : ... .. . ... ... : ... .. . ... ... : ... .. . ... ... : ... .. . ... ...
ROW EF : ... .. . ... ... ... : ... .. . ... ... ... : ... .. . ... : ... .. . ... : ... .. . ... ... : ... .. . ... ... : ... .. . ... ... : ... .. . ... ...
ROW F0 : A#4 00 F P80 V02 ... : ... .. . ... ... ... : F-3 00 . ... : 3-# 00 F ... : ... .. . ... ... : ... .. . ... ... : ... .. . ... ... : ... .. . ... ...
ROW F1 : ... .. E ... ... ... : ... .. . ... ... ... : ... .. . ... : ... .. C ... : ... .. . ... ... : ... .. . ... ... : ... .. . ... ... : ... .. . ... ...
ROW F2 : ... .. D ... ... ... : ... .. . ... ... ... : ... .. . ... : ... .. 6 ... : ... .. . ... ... : ... .. . ... ... : ... .. . ... ... : ... .. . ... ...
ROW F3 : ... .. A ... ... ... : ... .. . ... ... ... : ... .. . ... : ... .. 3 ... : ... .. . ... ... : ... .. . ... ... : ... .. . ... ... : ... .. . ... ...
ROW F4 : ... .. . ... ... ... : ... .. . ... ... ... : ... .. . ... : ... .. 2 ... : ... .. . ... ... : ... .. . ... ... : ... .. . ... ... : ... .. . ... ...
ROW F5 : ... .. . ... ... ... : ... .. . ... ... ... : --- .. . ... : ... .. 0 ... : ... .. . ... ... : ... .. . ... ... : ... .. . ... ... : ... .. . ... ...
ROW F6 : ... .. . ... ... ... : ... .. . ... ... ... : ... .. . ... : ... .. . ... : ... .. . ... ... : ... .. . ... ... : ... .. . ... ... : ... .. . ... ...
ROW F7 : ... .. . ... ... ... : ... .. . ... ... ... : ... .. . ... : ... .. . ... : ... .. . ... ... : ... .. . ... ... : ... .. . ... ... : ... .. . ... ...
ROW F8 : ... .. . ... ... ... : ... .. . ... ... ... : ... .. . ... : ... .. . ... : ... .. . ... ... : ... .. . ... ... : ... .. . ... ... : ... .. . ... ...
ROW F9 : ... .. . ... ... ... : ... .. . ... ... ... : ... .. . ... : ... .. . ... : ... .. . ... ... : ... .. . ... ... : ... .. . ... ... : ... .. . ... ...
ROW FA : C-5 00 F ... ... ... : ... .. . ... ... ... : G#4 00 . ... : D-# 00 F ... : ... .. . ... ... : F-3 01 A P80 ... : G#3 01 A ... ... : ... .. . ... ...
ROW FB : ... .. E ... ... ... : ... .. . ... ... ... : ... .. . ... : ... .. C ... : ... .. . ... ... : ... .. 9 ... ... : ... .. 9 ... ... : ... .. . ... ...
ROW FC : ... .. D ... ... ... : ... .. . ... ... ... : ... .. . ... : ... .. 6 ... : ... .. . ... ... : ... .. . ... ... : ... .. . ... ... : ... .. . ... ...
ROW FD : ... .. 0 ... V00 ... : ... .. . ... ... ... : ... .. . ... : ... .. 3 ... : ... .. . ... ... : ... .. 8 ... ... : ... .. 8 ... ... : ... .. . ... ...
ROW FE : ... .. . ... ... ... : ... .. . ... ... ... : ... .. . ... : ... .. 2 ... : ... .. . ... ... : ... .. 7 ... ... : ... .. 7 ... ... : ... .. . ... ...
ROW FF : A#4 00 F P80 V02 ... : ... .. . ... ... ... : --- .. . ... : ... .. F ... : ... .. . ... ... : --- .. . ... ... : --- .. . P83 ... : ... .. . ... ...

PATTERN 1A
ROW 00 : ... .. E ... ... ... : ... .. . ... ... ... : ... .. . ... : ... .. C ... : ... .. . ... ... : ... .. . ... ... : ... .. . ... ... : ... .. . ... ...
ROW 01 : ... .. D ... ... ... : ... .. . ... ... ... : ... .. . ... : ... .. 6 ... : ... .. . ... ... : ... .. . ... ... : ... .. . ... ... : ... .. . ... ...
ROW 02 : ... .. 0 ... V00 ... : ... .. . ... ... ... : ... .. . ... : ... .. 3 ... : ... .. . ... ... : ... .. . ... ... : ... .. . ... ... : ... .. . ... ...
ROW 03 : ... .. . ... ... ... : ... .. . ... ... ... : ... .. . ... : ... .. 2 ... : ... .. . ... ... : ... .. . ... ... : ... .. . ... ... : ... .. . ... ...
ROW 04 : G#4 00 F P80 V02 ... : ... .. . ... ... ... : C-3 00 . ... : 6-# 00 F ... : ... .. . ... ... : ... .. . ... ... : ... .. . ... ... : ... .. . ... ...
ROW 05 : ... .. E ... ... ... : ... .. . ... ... ... : ... .. . ... : ... .. C ... : ... .. . ... ... : ... .. . ... ... : ... .. . ... ... : ... .. . ... ...
ROW 06 : ... .. D ... ... ... : ... .. . ... ... ... : ... .. . ... : ... .. 6 ... : ... .. . ... ... : ... .. . ... ... : ... .. . ... ... : ... .. . ... ...
ROW 07 : ... .. A ... ... ... : ... .. . ... ... ... : ... .. . ... : ... .. 3 ... : ... .. . ... ... : ... .. . ... ... : ... .. . ... ... : ... .. . ... ...
ROW 08 : ... .. . ... ... ... : ... .. . ... ... ... : ... .. . ... : ... .. 2 ... : ... .. . ... ... : ... .. . ... ... : ... .. . ... ... : ... .. . ... ...
ROW 09 : ... .. 0 ... V00 ... : ... .. . ... ... ... : --- .. . ... : ... .. 0 ... : ... .. . ... ... : ... .. . ... ... : ... .. . ... ... : ... .. . ... ...
ROW 0A : ... .. . ... ... ... : ... .. . ... ... ... : ... .. . ... : ... .. . ... : ... .. . ... ... : ... .. . ... ... : ... .. . ... ... : ... .. . ... ...
ROW 0B : ... .. . ... ... ... : ... .. . ... ... ... : ... .. . ... : ... .. . ... : ... .. . ... ... : ... .. . ... ... : ... .. . ... ... : ... .. . ... ...
ROW 0C : ... .. . ... ... ... : ... .. . ... ... ... : ... .. . ... : ... .. . ... : ... .. . ... ... : ... .. . ... ... : ... .. . ... ... : ... .. . ... ...
ROW 0D : ... .. . ... ... ... : ... .. . ... ... ... : ... .. . ... : ... .. . ... : ... .. . ... ... : ... .. . ... ... : ... .. . ... ... : ... .. . ... ...
ROW 0E : G-4 00 F P80 V02 ... : ... .. . ... ... ... : E-4 00 . ... : D-# 00 F ... : ... .. . ... ... : E-3 01 A ... ... : G-3 01 A P81 ... : ... .. . ... ...
ROW 0F : ... .. E ... ... ... : ... .. . ... ... ... : ... .. . ... : ... .. C ... : ... .. . ... ... : ... .. 9 ... ... : ... .. 9 ... ... : ... .. . ... ...
ROW 10 : ... .. D ... ... ... : ... .. . ... ... ... : ... .. . ... : ... .. 6 ... : ... .. . ... ... : ... .. . ... ... : ... .. . ... ... : ... .. . ... ...
ROW 11 : ... .. A ... ... ... : ... .. . ... ... ... : ... .. . ... : ... .. 3 ... : ... .. . ... ... : ... .. 8 ... ... : ... .. 8 ... ... : ... .. . ... ...
ROW 12 : ... .. . ... ... ... : ... .. . ... ... ... : ... .. . ... : ... .. 2 ... : ... .. . ... ... : ... .. 7 ... ... : ... .. 7 ... ... : ... .. . ... ...
ROW 13 : ... .. 0 ... V00 ... : ... .. . ... ... ... : --- .. . ... : ... .. 0 ... : ... .. . ... ... : --- .. . P82 ... : --- .. . P80 ... : ... .. . ... ...
ROW 14 : ... .. . ... ... ... : ... .. . ... ... ... : ... .. . ... : ... .. . ... : ... .. . ... ... : ... .. . ... ... : ... .. . ... ... : ... .. . ... ...
ROW 15 : ... .. . ... ... ... : ... .. . ... ... ... : ... .. . ... : ... .. . ... : ... .. . ... ... : ... .. . ... ... : ... .. . ... ... : ... .. . ... ...
ROW 16 : ... .. . ... ... ... : ... .. . ... ... ... : ... .. . ... : ... .. . ... : ... .. . ... ... : ... .. . ... ... : ... .. . ... ... : ... .. . ... ...
ROW 17 : ... .. . ... ... ... : ... .. . ... ... ... : ... .. . ... : ... .. . ... : ... .. . ... ... : ... .. . ... ... : ... .. . ... ... : ... .. . ... ...
ROW 18 : G#4 00 F P80 V02 ... : ... .. . ... ... ... : F-4 00 . ... : 3-# 00 F ... : ... .. . ... ... : F-3 01 A P80 ... : G#3 01 A P81 ... : ... .. . ... ...
ROW 19 : ... .. E ... ... ... : ... .. . ... ... ... : ... .. . ... : ... .. C ... : ... .. . ... ... : ... .. 9 ... ... : ... .. 9 ... ... : ... .. . ... ...
ROW 1A : ... .. D ... ... ... : ... .. . ... ... ... : ... .. . ... : ... .. 6 ... : ... .. . ... ... : ... .. . ... ... : ... .. . ... ... : ... .. . ... ...
ROW 1B : ... .. A ... ... ... : ... .. . ... ... ... : ... .. . ... : ... .. 3 ... : ... .. . ... ... : ... .. 8 ... ... : ... .. 8 ... ... : ... .. . ... ...
ROW 1C : ... .. . ... ... ... : ... .. . ... ... ... : ... .. . ... : ... .. 2 ... : ... .. . ... ... : ... .. 7 ... ... : ... .. 7 ... ... : ... .. . ... ...
ROW 1D : ... .. 0 ... V00 ... : ... .. . ... ... ... : D-4 00 . P7E : ... .. 0 ... : ... .. . ... ... : ... .. . ... ... : ... .. . ... ... : ... .. . ... ...
ROW 1E : ... .. . ... ... ... : ... .. . ... ... ... : B-3 00 . P82 : ... .. . ... : ... .. . ... ... : ... .. 6 ... ... : ... .. 6 ... ... : ... .. . ... ...
ROW 1F : ... .. . ... ... ... : ... .. . ... ... ... : A-3 00 . P7E : ... .. . ... : ... .. . ... ... : ... .. . ... ... : ... .. . ... ... : ... .. . ... ...
ROW 20 : ... .. . ... ... ... : ... .. . ... ... ... : G-3 00 . P7D : ... .. . ... : ... .. . ... ... : ... .. . ... ... : ... .. . ... ... : ... .. . ... ...
ROW 21 : ... .. . ... ... ... : ... .. . ... ... ... : F-3 00 . P80 : ... .. . ... : ... .. . ... ... : ... .. . ... ... : ... .. . ... ... : ... .. . ... ...
ROW 22 : ... .. . ... ... ... : ... .. . ... ... ... : D#3 00 . P88 : ... .. . ... : ... .. . ... ... : --- .. . ... ... : --- .. . P83 ... : ... .. . ... ...
ROW 23 : ... .. . ... ... ... : ... .. . ... ... ... : D-3 00 . P7D : ... .. . ... : ... .. . ... ... : ... .. . ... ... : ... .. . ... ... : ... .. . ... ...
ROW 24 : ... .. . ... ... ... : ... .. . ... ... ... : C-3 00 . P8C : ... .. . ... : ... .. . ... ... : ... .. . ... ... : ... .. . ... ... : ... .. . ... ...
ROW 25 : ... .. . ... ... ... : ... .. . ... ... ... : B-2 00 . P85 : ... .. . ... : ... .. . ... ... : ... .. . ... ... : ... .. . ... ... : ... .. . ... ...
ROW 26 : ... .. . ... ... ... : ... .. . ... ... ... : A#2 00 . P80 : ... .. . ... : ... .. . ... ... : ... .. . ... ... : ... .. . ... ... : ... .. . ... ...
ROW 27 : ... .. . ... ... ... : ... .. . ... ... ... : A-2 00 . P7C : ... .. . ... : ... .. . ... ... : ... .. . ... ... : ... .. . ... ... : ... .. . ... ...
ROW 28 : ... .. . ... ... ... : ... .. . ... ... ... : G#2 00 . P7B : ... .. . ... : ... .. . ... ... : ... .. . ... ... : ... .. . ... ... : ... .. . ... ...
ROW 29 : ... .. . ... ... ... : ... .. . ... ... ... : G-2 00 . ... : ... .. . ... : ... .. . ... ... : ... .. . ... ... : ... .. . ... ... : ... .. . ... ...
ROW 2A : ... .. . ... ... ... : ... .. . ... ... ... : F#2 00 . P7D : ... .. . ... : ... .. . ... ... : ... .. . ... ... : ... .. . ... ... : ... .. . ... ...
ROW 2B : ... .. . ... ... ... : ... .. . ... ... ... : F-2 00 . P81 : ... .. . ... : ... .. . ... ... : ... .. . ... ... : ... .. . ... ... : ... .. . ... ...
ROW 2C : C-4 00 F P80 V02 ... : ... .. . ... ... ... : B-3 00 . P80 : ... .. . ... : ... .. . ... ... : ... .. . ... ... : ... .. . ... ... : ... .. . ... ...
ROW 2D : ... .. E ... ... ... : ... .. . ... ... ... : C#3 00 . ... : ... .. . ... : ... .. . ... ... : ... .. . ... ... : ... .. . ... ... : ... .. . ... ...
ROW 2E : ... .. D ... ... ... : ... .. . ... ... ... : F#2 00 . ... : ... .. . ... : ... .. . ... ... : ... .. . ... ... : ... .. . ... ... : ... .. . ... ...
ROW 2F : C#4 00 B ... ... ... : ... .. . ... ... ... : F-2 00 . ... : ... .. . ... : ... .. . ... ... : ... .. . ... ... : ... .. . ... ... : ... .. . ... ...
ROW 30 : ... .. A ... ... ... : ... .. . ... ... ... : C-2 00 . ... : ... .. . ... : ... .. . ... ... : ... .. . ... ... : ... .. . ... ... : ... .. . ... ...
ROW 31 : C-4 00 7 ... ... ... : ... .. . ... ... ... : ... .. . ... : ... .. . ... : ... .. . ... ... : ... .. . ... ... : ... .. . ... ... : ... .. . ... ...
ROW 32 : ... .. 6 ... ... ... : ... .. . ... ... ... : ... .. . ... : ... .. . ... : ... .. . ... ... : ... .. . ... ... : ... .. . ... ... : ... .. . ... ...
ROW 33 : ... .. . ... ... ... : ... .. . ... ... ... : ... .. . ... : ... .. . ... : ... .. . ... ... : ... .. . ... ... : ... .. . ... ... : ... .. . ... ...
ROW 34 : C#4 00 4 ... ... ... : ... .. . ... ... ... : ... .. . ... : ... .. . ... : ... .. . ... ... : ... .. . ... ... : ... .. . ... ... : ... .. . ... ...
ROW 35 : ... .. 3 ... ... ... : ... .. . ... ... ... : ... .. . ... : ... .. . ... : ... .. . ... ... : ... .. . ... ... : ... .. . ... ... : ... .. . ... ...
ROW 36 : C-4 00 6 ... ... ... : ... .. . ... ... ... : ... .. . ... : ... .. . ... : ... .. . ... ... : ... .. . ... ... : ... .. . ... ... : ... .. . ... ...
ROW 37 : ... .. 5 ... ... ... : ... .. . ... ... ... : ... .. . ... : ... .. . ... : ... .. . ... ... : ... .. . ... ... : ... .. . ... ... : ... .. . ... ...
ROW 38 : ... .. . ... ... ... : ... .. . ... ... ... : ... .. . ... : ... .. . ... : ... .. . ... ... : ... .. . ... ... : ... .. . ... ... : ... .. . ... ...
ROW 39 : C#4 00 8 ... ... ... : ... .. . ... ... ... : ... .. . ... : ... .. . ... : ... .. . ... ... : ... .. . ... ... : ... .. . ... ... : ... .. . ... ...
ROW 3A : ... .. 7 ... ... ... : ... .. . ... ... ... : ... .. . ... : ... .. . ... : ... .. . ... ... : ... .. . ... ... : ... .. . ... ... : ... .. . ... ...
ROW 3B : C-4 00 A ... ... ... : ... .. . ... ... ... : ... .. . ... : ... .. . ... : ... .. . ... ... : ... .. . ... ... : ... .. . ... ... : ... .. . ... ...
ROW 3C : ... .. 9 ... ... ... : ... .. . ... ... ... : ... .. . ... : ... .. . ... : ... .. . ... ... : ... .. . ... ... : ... .. . ... ... : ... .. . ... ...
ROW 3D : ... .. 8 ... ... ... : ... .. . ... ... ... : ... .. . ... : ... .. . ... : ... .. . ... ... : ... .. . ... ... : ... .. . ... ... : ... .. . ... ...
ROW 3E : C#4 00 C ... ... ... : ... .. . ... ... ... : ... .. . ... : ... .. . ... : ... .. . ... ... : ... .. . ... ... : ... .. . ... ... : ... .. . ... ...
ROW 3F : ... .. B ... ... ... : ... .. . ... ... ... : ... .. . ... : ... .. . ... : ... .. . ... ... : ... .. . ... ... : ... .. . ... ... : ... .. . ... ...
ROW 40 : C-4 00 F ... ... ... : ... .. . ... ... ... : F-2 00 . ... : ... .. F ... : ... .. . ... ... : ... .. . ... ... : ... .. . ... ... : ... .. . ... ...
ROW 41 : ... .. E ... ... ... : ... .. . ... ... ... : ... .. . ... : ... .. C ... : ... .. . ... ... : ... .. . ... ... : ... .. . ... ... : ... .. . ... ...
ROW 42 : ... .. D ... ... ... : ... .. . ... ... ... : ... .. . ... : ... .. 6 ... : ... .. . ... ... : ... .. . ... ... : ... .. . ... ... : ... .. . ... ...
ROW 43 : ... .. A ... ... ... : ... .. . ... ... ... : ... .. . ... : ... .. 3 ... : ... .. . ... ... : ... .. . ... ... : ... .. . ... ... : ... .. . ... ...
ROW 44 : ... .. . ... ... ... : ... .. . ... ... ... : ... .. . ... : ... .. 2 ... : ... .. . ... ... : ... .. . ... ... : ... .. . ... ... : ... .. . ... ...
ROW 45 : ... .. 0 ... V00 ... : ... .. . ... ... ... : ... .. . ... : ... .. 0 ... : ... .. . ... ... : ... .. . ... ... : ... .. . ... ... : ... .. . ... ...
ROW 46 : ... .. . ... ... ... : ... .. . ... ... ... : ... .. . ... : ... .. . ... : ... .. . ... ... : ... .. . ... ... : ... .. . ... ... : ... .. . ... ...
ROW 47 : ... .. . ... ... ... : ... .. . ... ... ... : ... .. . ... : ... .. . ... : ... .. . ... ... : ... .. . ... ... : ... .. . ... ... : ... .. . ... ...
ROW 48 : ... .. . ... ... ... : ... .. . ... ... ... : --- .. . ... : ... .. . ... : ... .. . ... ... : ... .. . ... ... : ... .. . ... ... : ... .. . ... ...
ROW 49 : ... .. . ... ... ... : ... .. . ... ... ... : ... .. . ... : ... .. . ... : ... .. . ... ... : ... .. . ... ... : ... .. . ... ... : ... .. . ... ...
ROW 4A : C-5 00 F P80 V02 ... : ... .. . ... ... ... : G#3 00 . ... : D-# 00 F ... : ... .. . ... ... : F-3 01 A ... ... : G#3 01 A P81 ... : ... .. . ... ...
ROW 4B : ... .. E ... ... ... : ... .. . ... ... ... : ... .. . ... : ... .. C ... : ... .. . ... ... : ... .. 9 ... ... : ... .. 9 ... ... : ... .. . ... ...
ROW 4C : ... .. D ... ... ... : ... .. . ... ... ... : ... .. . ... : ... .. 6 ... : ... .. . ... ... : ... .. . ... ... : ... .. . ... ... : ... .. . ... ...
ROW 4D : ... .. A ... ... ... : ... .. . ... ... ... : --- .. . ... : ... .. 3 ... : ... .. . ... ... : ... .. 8 ... ... : ... .. 8 ... ... : ... .. . ... ...
ROW 4E : ... .. . ... ... ... : ... .. . ... ... ... : ... .. . ... : ... .. 2 ... : ... .. . ... ... : ... .. 7 ... ... : ... .. 7 ... ... : ... .. . ... ...
ROW 4F : ... .. 0 ... V00 ... : ... .. . ... ... ... : G#3 00 . ... : ... .. F ... : ... .. . ... ... : --- .. . ... ... : --- .. . P83 ... : ... .. . ... ...
ROW 50 : ... .. . ... ... ... : ... .. . ... ... ... : ... .. . ... : ... .. C ... : ... .. . ... ... : ... .. . ... ... : ... .. . ... ... : ... .. . ... ...
ROW 51 : ... .. . ... ... ... : ... .. . ... ... ... : ... .. . ... : ... .. 6 ... : ... .. . ... ... : ... .. . ... ... : ... .. . ... ... : ... .. . ... ...
ROW 52 : ... .. . ... ... ... : ... .. . ... ... ... : --- .. . ... : ... .. 3 ... : ... .. . ... ... : ... .. . ... ... : ... .. . ... ... : ... .. . ... ...
ROW 53 : ... .. . ... ... ... : ... .. . ... ... ... : ... .. . ... : ... .. 2 ... : ... .. . ... ... : ... .. . ... ... : ... .. . ... ... : ... .. . ... ...
ROW 54 : G#4 00 F P80 V02 ... : ... .. . ... ... ... : F-2 00 . ... : 6-# 00 F ... : ... .. . ... ... : ... .. . ... ... : ... .. . ... ... : ... .. . ... ...
ROW 55 : ... .. E ... ... ... : ... .. . ... ... ... : ... .. . ... : ... .. C ... : ... .. . ... ... : ... .. . ... ... : ... .. . ... ... : ... .. . ... ...
ROW 56 : ... .. D ... ... ... : ... .. . ... ... ... : ... .. . ... : ... .. 6 ... : ... .. . ... ... : ... .. . ... ... : ... .. . ... ... : ... .. . ... ...
ROW 57 : ... .. A ... ... ... : ... .. . ... ... ... : ... .. . ... : ... .. 3 ... : ... .. . ... ... : ... .. . ... ... : ... .. . ... ... : ... .. . ... ...
ROW 58 : ... .. . ... ... ... : ... .. . ... ... ... : ... .. . ... : ... .. 2 ... : ... .. . ... ... : ... .. . ... ... : ... .. . ... ... : ... .. . ... ...
ROW 59 : ... .. 0 ... V00 ... : ... .. . ... ... ... : --- .. . ... : ... .. 0 ... : ... .. . ... ... : ... .. . ... ... : ... .. . ... ... : ... .. . ... ...
ROW 5A : ... .. . ... ... ... : ... .. . ... ... ... : ... .. . ... : ... .. . ... : ... .. . ... ... : ... .. . ... ... : ... .. . ... ... : ... .. . ... ...
ROW 5B : ... .. . ... ... ... : ... .. . ... ... ... : ... .. . ... : ... .. . ... : ... .. . ... ... : ... .. . ... ... : ... .. . ... ... : ... .. . ... ...
ROW 5C : ... .. . ... ... ... : ... .. . ... ... ... : ... .. . ... : ... .. . ... : ... .. . ... ... : ... .. . ... ... : ... .. . ... ... : ... .. . ... ...
ROW 5D : ... .. . ... ... ... : ... .. . ... ... ... : ... .. . ... : ... .. . ... : ... .. . ... ... : ... .. . ... ... : ... .. . ... ... : ... .. . ... ...
ROW 5E : F-4 00 F P80 V02 ... : ... .. . ... ... ... : C-4 00 . ... : D-# 00 F ... : ... .. . ... ... : F-3 01 A ... ... : G#3 01 A P81 ... : ... .. . ... ...
ROW 5F : ... .. E ... ... ... : ... .. . ... ... ... : ... .. . ... : ... .. C ... : ... .. . ... ... : ... .. 9 ... ... : ... .. 9 ... ... : ... .. . ... ...
ROW 60 : ... .. D ... ... ... : ... .. . ... ... ... : ... .. . ... : ... .. 6 ... : ... .. . ... ... : ... .. . ... ... : ... .. . ... ... : ... .. . ... ...
ROW 61 : ... .. A ... ... ... : ... .. . ... ... ... : --- .. . ... : ... .. 3 ... : ... .. . ... ... : ... .. 8 ... ... : ... .. 8 ... ... : ... .. . ... ...
ROW 62 : ... .. . ... ... ... : ... .. . ... ... ... : ... .. . ... : ... .. 2 ... : ... .. . ... ... : ... .. 7 ... ... : ... .. 7 ... ... : ... .. . ... ...
ROW 63 : ... .. . ... ... ... : ... .. . ... ... ... : C-4 00 . ... : ... .. F ... : ... .. . ... ... : --- .. . ... ... : --- .. . P83 ... : ... .. . ... ...
ROW 64 : ... .. . ... ... ... : ... .. . ... ... ... : ... .. . ... : ... .. C ... : ... .. . ... ... : ... .. . ... ... : ... .. . ... ... : ... .. . ... ...
ROW 65 : ... .. . ... ... ... : ... .. . ... ... ... : ... .. . ... : ... .. 6 ... : ... .. . ... ... : ... .. . ... ... : ... .. . ... ... : ... .. . ... ...
ROW 66 : ... .. 0 ... V00 ... : ... .. . ... ... ... : --- .. . ... : ... .. 3 ... : ... .. . ... ... : ... .. . ... ... : ... .. . ... ... : ... .. . ... ...
ROW 67 : ... .. . ... ... ... : ... .. . ... ... ... : ... .. . ... : ... .. 2 ... : ... .. . ... ... : ... .. . ... ... : ... .. . ... ... : ... .. . ... ...
ROW 68 : C-4 00 F P80 V02 ... : ... .. . ... ... ... : F#2 00 . ... : 3-# 00 F ... : ... .. . ... ... : ... .. . ... ... : ... .. . ... ... : ... .. . ... ...
ROW 69 : ... .. E ... ... ... : ... .. . ... ... ... : ... .. . ... : ... .. C ... : ... .. . ... ... : ... .. . ... ... : ... .. . ... ... : ... .. . ... ...
ROW 6A : ... .. D ... ... ... : ... .. . ... ... ... : ... .. . ... : ... .. 6 ... : ... .. . ... ... : ... .. . ... ... : ... .. . ... ... : ... .. . ... ...
ROW 6B : ... .. A ... ... ... : ... .. . ... ... ... : ... .. . ... : ... .. 3 ... : ... .. . ... ... : ... .. . ... ... : ... .. . ... ... : ... .. . ... ...
ROW 6C : ... .. . ... ... ... : ... .. . ... ... ... : ... .. . ... : ... .. 2 ... : ... .. . ... ... : ... .. . ... ... : ... .. . ... ... : ... .. . ... ...
ROW 6D : ... .. . ... ... ... : ... .. . ... ... ... : --- .. . ... : ... .. 0 ... : ... .. . ... ... : ... .. . ... ... : ... .. . ... ... : ... .. . ... ...
ROW 6E : ... .. . ... ... ... : ... .. . ... ... ... : ... .. . ... : ... .. . ... : ... .. . ... ... : ... .. . ... ... : ... .. . ... ... : ... .. . ... ...
ROW 6F : ... .. . ... ... ... : ... .. . ... ... ... : ... .. . ... : ... .. . ... : ... .. . ... ... : ... .. . ... ... : ... .. . ... ... : ... .. . ... ...
ROW 70 : ... .. . ... ... ... : ... .. . ... ... ... : ... .. . ... : ... .. . ... : ... .. . ... ... : ... .. . ... ... : ... .. . ... ... : ... .. . ... ...
ROW 71 : ... .. . ... ... ... : ... .. . ... ... ... : ... .. . ... : ... .. . ... : ... .. . ... ... : ... .. . ... ... : ... .. . ... ... : ... .. . ... ...
ROW 72 : C#4 00 F ... ... ... : ... .. . ... ... ... : A#3 00 . ... : D-# 00 F ... : ... .. . ... ... : F#3 01 A ... ... : A#3 01 A P81 ... : ... .. . ... ...
ROW 73 : ... .. E ... ... ... : ... .. . ... ... ... : ... .. . ... : ... .. C ... : ... .. . ... ... : ... .. 9 ... ... : ... .. 9 ... ... : ... .. . ... ...
ROW 74 : ... .. D ... ... ... : ... .. . ... ... ... : ... .. . ... : ... .. 6 ... : ... .. . ... ... : ... .. . ... ... : ... .. . ... ... : ... .. . ... ...
ROW 75 : ... .. 0 ... V00 ... : ... .. . ... ... ... : --- .. . ... : ... .. 3 ... : ... .. . ... ... : ... .. 8 ... ... : ... .. 8 ... ... : ... .. . ... ...
ROW 76 : ... .. . ... ... ... : ... .. . ... ... ... : ... .. . ... : ... .. 2 ... : ... .. . ... ... : ... .. 7 ... ... : ... .. 7 ... ... : ... .. . ... ...
ROW 77 : C-4 00 F P80 V02 ... : ... .. . ... ... ... : A#3 00 . ... : ... .. F ... : ... .. . ... ... : --- .. . P7F ... : --- .. . ... ... : ... .. . ... ...
ROW 78 : ... .. E ... ... ... : ... .. . ... ... ... : ... .. . ... : ... .. C ... : ... .. . ... ... : ... .. . ... ... : ... .. . ... ... : ... .. . ... ...
ROW 79 : ... .. D ... ... ... : ... .. . ... ... ... : ... .. . ... : ... .. 6 ... : ... .. . ... ... : ... .. . ... ... : ... .. . ... ... : ... .. . ... ...
ROW 7A : ... .. 0 ... V00 ... : ... .. . ... ... ... : --- .. . ... : ... .. 3 ... : ... .. . ... ... : ... .. . ... ... : ... .. . ... ... : ... .. . ... ...
ROW 7B : ... .. . ... ... ... : ... .. . ... ... ... : ... .. . ... : ... .. 2 ... : ... .. . ... ... : ... .. . ... ... : ... .. . ... ... : ... .. . ... ...
ROW 7C : A#3 00 F P80 V02 ... : ... .. . ... ... ... : E-3 00 . ... : 6-# 00 F ... : ... .. . ... ... : ... .. . ... ... : ... .. . ... ... : ... .. . ... ...
ROW 7D : ... .. E ... ... ... : ... .. . ... ... ... : ... .. . ... : ... .. C ... : ... .. . ... ... : ... .. . ... ... : ... .. . ... ... : ... .. . ... ...
ROW 7E : ... .. D ... ... ... : ... .. . ... ... ... : ... .. . ... : ... .. 6 ... : ... .. . ... ... : ... .. . ... ... : ... .. . ... ... : ... .. . ... ...
ROW 7F : ... .. A ... ... ... : ... .. . ... ... ... : ... .. . ... : ... .. 3 ... : ... .. . ... ... : ... .. . ... ... : ... .. . ... ... : ... .. . ... ...
ROW 80 : ... .. . ... ... ... : ... .. . ... ... ... : ... .. . ... : ... .. 2 ... : ... .. . ... ... : ... .. . ... ... : ... .. . ... ... : ... .. . ... ...
ROW 81 : ... .. 0 ... V00 ... : ... .. . ... ... ... : --- .. . ... : ... .. 0 ... : ... .. . ... ... : ... .. . ... ... : ... .. . ... ... : ... .. . ... ...
ROW 82 : ... .. . ... ... ... : ... .. . ... ... ... : ... .. . ... : ... .. . ... : ... .. . ... ... : ... .. . ... ... : ... .. . ... ... : ... .. . ... ...
ROW 83 : ... .. . ... ... ... : ... .. . ... ... ... : ... .. . ... : ... .. . ... : ... .. . ... ... : ... .. . ... ... : ... .. . ... ... : ... .. . ... ...
ROW 84 : ... .. . ... ... ... : ... .. . ... ... ... : ... .. . ... : ... .. . ... : ... .. . ... ... : ... .. . ... ... : ... .. . ... ... : ... .. . ... ...
ROW 85 : ... .. . ... ... ... : ... .. . ... ... ... : ... .. . ... : ... .. . ... : ... .. . ... ... : ... .. . ... ... : ... .. . ... ... : ... .. . ... ...
ROW 86 : A#4 00 F P80 V02 ... : ... .. . ... ... ... : C-4 00 . ... : D-# 00 F ... : ... .. . ... ... : G-3 01 A P80 ... : A#3 01 A ... ... : ... .. . ... ...
ROW 87 : ... .. E ... ... ... : ... .. . ... ... ... : ... .. . ... : ... .. C ... : ... .. . ... ... : ... .. 9 ... ... : ... .. 9 ... ... : ... .. . ... ...
ROW 88 : ... .. D ... ... ... : ... .. . ... ... ... : ... .. . ... : ... .. 6 ... : ... .. . ... ... : ... .. . ... ... : ... .. . ... ... : ... .. . ... ...
ROW 89 : ... .. A ... ... ... : ... .. . ... ... ... : --- .. . ... : ... .. 3 ... : ... .. . ... ... : ... .. 8 ... ... : ... .. 8 ... ... : ... .. . ... ...
ROW 8A : ... .. . ... ... ... : ... .. . ... ... ... : ... .. . ... : ... .. 2 ... : ... .. . ... ... : ... .. 7 ... ... : ... .. 7 ... ... : ... .. . ... ...
ROW 8B : ... .. 0 ... V00 ... : ... .. . ... ... ... : C-4 00 . ... : ... .. 0 ... : ... .. . ... ... : --- .. . P81 ... : --- .. . ... ... : ... .. . ... ...
ROW 8C : ... .. . ... ... ... : ... .. . ... ... ... : ... .. . ... : ... .. . ... : ... .. . ... ... : ... .. . ... ... : ... .. . ... ... : ... .. . ... ...
ROW 8D : ... .. . ... ... ... : ... .. . ... ... ... : ... .. . ... : ... .. . ... : ... .. . ... ... : ... .. . ... ... : ... .. . ... ... : ... .. . ... ...
ROW 8E : ... .. . ... ... ... : ... .. . ... ... ... : --- .. . ... : ... .. . ... : ... .. . ... ... : ... .. . ... ... : ... .. . ... ... : ... .. . ... ...
ROW 8F : ... .. . ... ... ... : ... .. . ... ... ... : ... .. . ... : ... .. . ... : ... .. . ... ... : ... .. . ... ... : ... .. . ... ... : ... .. . ... ...
ROW 90 : A#3 00 F P80 V02 ... : ... .. . ... ... ... : F-3 00 . ... : 3-# 00 F ... : ... .. . ... ... : ... .. . ... ... : ... .. . ... ... : ... .. . ... ...
ROW 91 : ... .. E ... ... ... : ... .. . ... ... ... : ... .. . ... : ... .. C ... : ... .. . ... ... : ... .. . ... ... : ... .. . ... ... : ... .. . ... ...
ROW 92 : ... .. D ... ... ... : ... .. . ... ... ... : ... .. . ... : ... .. 6 ... : ... .. . ... ... : ... .. . ... ... : ... .. . ... ... : ... .. . ... ...
ROW 93 : ... .. A ... ... ... : ... .. . ... ... ... : ... .. . ... : ... .. 3 ... : ... .. . ... ... : ... .. . ... ... : ... .. . ... ... : ... .. . ... ...
ROW 94 : ... .. . ... ... ... : ... .. . ... ... ... : ... .. . ... : ... .. 2 ... : ... .. . ... ... : ... .. . ... ... : ... .. . ... ... : ... .. . ... ...
ROW 95 : ... .. . ... ... ... : ... .. . ... ... ... : --- .. . ... : ... .. 0 ... : ... .. . ... ... : ... .. . ... ... : ... .. . ... ... : ... .. . ... ...
ROW 96 : ... .. . ... ... ... : ... .. . ... ... ... : ... .. . ... : ... .. . ... : ... .. . ... ... : ... .. . ... ... : ... .. . ... ... : ... .. . ... ...
ROW 97 : ... .. . ... ... ... : ... .. . ... ... ... : ... .. . ... : ... .. . ... : ... .. . ... ... : ... .. . ... ... : ... .. . ... ... : ... .. . ... ...
ROW 98 : ... .. . ... ... ... : ... .. . ... ... ... : ... .. . ... : ... .. . ... : ... .. . ... ... : ... .. . ... ... : ... .. . ... ... : ... .. . ... ...
ROW 99 : ... .. . ... ... ... : ... .. . ... ... ... : ... .. . ... : ... .. . ... : ... .. . ... ... : ... .. . ... ... : ... .. . ... ... : ... .. . ... ...
ROW 9A : C-4 00 F ... ... ... : ... .. . ... ... ... : G#3 00 . ... : D-# 00 F ... : ... .. . ... ... : F-3 01 A P80 ... : G#3 01 A ... ... : ... .. . ... ...
ROW 9B : ... .. E ... ... ... : ... .. . ... ... ... : ... .. . ... : ... .. C ... : ... .. . ... ... : ... .. 9 ... ... : ... .. 9 ... ... : ... .. . ... ...
ROW 9C : ... .. D ... ... ... : ... .. . ... ... ... : ... .. . ... : ... .. 6 ... : ... .. . ... ... : ... .. . ... ... : ... .. . ... ... : ... .. . ... ...
ROW 9D : ... .. 0 ... V00 ... : ... .. . ... ... ... : ... .. . ... : ... .. 3 ... : ... .. . ... ... : ... .. 8 ... ... : ... .. 8 ... ... : ... .. . ... ...
ROW 9E : ... .. . ... ... ... : ... .. . ... ... ... : ... .. . ... : ... .. 2 ... : ... .. . ... ... : ... .. 7 ... ... : ... .. 7 ... ... : ... .. . ... ...
ROW 9F : A#3 00 F P80 V02 ... : ... .. . ... ... ... : --- .. . ... : ... .. F ... : ... .. . ... ... : --- .. . ... ... : --- .. . P83 ... : ... .. . ... ...
ROW A0 : ... .. E ... ... ... : ... .. . ... ... ... : ... .. . ... : ... .. C ... : ... .. . ... ... : ... .. . ... ... : ... .. . ... ... : ... .. . ... ...
ROW A1 : ... .. D ... ... ... : ... .. . ... ... ... : ... .. . ... : ... .. 6 ... : ... .. . ... ... : ... .. . ... ... : ... .. . ... ... : ... .. . ... ...
ROW A2 : ... .. 0 ... V00 ... : ... .. . ... ... ... : ... .. . ... : ... .. 3 ... : ... .. . ... ... : ... .. . ... ... : ... .. . ... ... : ... .. . ... ...
ROW A3 : ... .. . ... ... ... : ... .. . ... ... ... : ... .. . ... : ... .. 2 ... : ... .. . ... ... : ... .. . ... ... : ... .. . ... ... : ... .. . ... ...
ROW A4 : G#3 00 F P80 V02 ... : ... .. . ... ... ... : C-3 00 . ... : 6-# 00 F ... : ... .. . ... ... : ... .. . ... ... : ... .. . ... ... : ... .. . ... ...
ROW A5 : ... .. E ... ... ... : ... .. . ... ... ... : ... .. . ... : ... .. C ... : ... .. . ... ... : ... .. . ... ... : ... .. . ... ... : ... .. . ... ...
ROW A6 : ... .. D ... ... ... : ... .. . ... ... ... : ... .. . ... : ... .. 6 ... : ... .. . ... ... : ... .. . ... ... : ... .. . ... ... : ... .. . ... ...
ROW A7 : ... .. A ... ... ... : ... .. . ... ... ... : ... .. . ... : ... .. 3 ... : ... .. . ... ... : ... .. . ... ... : ... .. . ... ... : ... .. . ... ...
ROW A8 : ... .. . ... ... ... : ... .. . ... ... ... : ... .. . ... : ... .. 2 ... : ... .. . ... ... : ... .. . ... ... : ... .. . ... ... : ... .. . ... ...
ROW A9 : G-3 00 F ... ... ... : ... .. . ... ... ... : --- .. . ... : ... .. 0 ... : ... .. . ... ... : ... .. . ... ... : ... .. . ... ... : ... .. . ... ...
ROW AA : ... .. E ... ... ... : ... .. . ... ... ... : ... .. . ... : ... .. . ... : ... .. . ... ... : ... .. . ... ... : ... .. . ... ... : ... .. . ... ...
ROW AB : ... .. D ... ... ... : ... .. . ... ... ... : ... .. . ... : ... .. . ... : ... .. . ... ... : ... .. . ... ... : ... .. . ... ... : ... .. . ... ...
ROW AC : ... .. 0 ... V00 ... : ... .. . ... ... ... : ... .. . ... : ... .. . ... : ... .. . ... ... : ... .. . ... ... : ... .. . ... ... : ... .. . ... ...
ROW AD : ... .. . ... ... ... : ... .. . ... ... ... : ... .. . ... : ... .. . ... : ... .. . ... ... : ... .. . ... ... : ... .. . ... ... : ... .. . ... ...
ROW AE : F-3 00 F P80 V02 ... : ... .. . ... ... ... : G-3 00 . ... : D-# 00 F ... : ... .. . ... ... : E-3 01 A ... ... : G-3 01 A P81 ... : ... .. . ... ...
ROW AF : ... .. E ... ... ... : ... .. . ... ... ... : ... .. . ... : ... .. C ... : ... .. . ... ... : ... .. 9 ... ... : ... .. 9 ... ... : ... .. . ... ...
ROW B0 : ... .. D ... ... ... : ... .. . ... ... ... : ... .. . ... : ... .. 6 ... : ... .. . ... ... : ... .. . ... ... : ... .. . ... ... : ... .. . ... ...
ROW B1 : ... .. 0 ... V00 ... : ... .. . ... ... ... : ... .. . ... : ... .. 3 ... : ... .. . ... ... : ... .. 8 ... ... : ... .. 8 ... ... : ... .. . ... ...
ROW B2 : ... .. . ... ... ... : ... .. . ... ... ... : ... .. . ... : ... .. 2 ... : ... .. . ... ... : ... .. 7 ... ... : ... .. 7 ... ... : ... .. . ... ...
ROW B3 : E-3 00 F P80 V02 ... : ... .. . ... ... ... : --- .. . ... : ... .. 0 ... : ... .. . ... ... : --- .. . P82 ... : --- .. . P80 ... : ... .. . ... ...
ROW B4 : ... .. E ... ... ... : ... .. . ... ... ... : ... .. . ... : ... .. . ... : ... .. . ... ... : ... .. . ... ... : ... .. . ... ... : ... .. . ... ...
ROW B5 : ... .. D ... ... ... : ... .. . ... ... ... : ... .. . ... : ... .. . ... : ... .. . ... ... : ... .. . ... ... : ... .. . ... ... : ... .. . ... ...
ROW B6 : ... .. 0 ... V00 ... : ... .. . ... ... ... : ... .. . ... : ... .. . ... : ... .. . ... ... : ... .. . ... ... : ... .. . ... ... : ... .. . ... ...
ROW B7 : ... .. . ... ... ... : ... .. . ... ... ... : ... .. . ... : ... .. . ... : ... .. . ... ... : ... .. . ... ... : ... .. . ... ... : ... .. . ... ...
ROW B8 : F-3 00 F P80 V02 ... : ... .. . ... ... ... : F-3 00 . ... : 3-# 00 F ... : ... .. . ... ... : F-3 01 A P80 ... : G#3 01 A P81 ... : ... .. . ... ...
ROW B9 : ... .. E ... ... ... : ... .. . ... ... ... : ... .. . ... : ... .. C ... : ... .. . ... ... : ... .. 9 ... ... : ... .. 9 ... ... : ... .. . ... ...
ROW BA : ... .. D ... ... ... : ... .. . ... ... ... : ... .. . ... : ... .. 6 ... : ... .. . ... ... : ... .. . ... ... : ... .. . ... ... : ... .. . ... ...
ROW BB : ... .. A ... ... ... : ... .. . ... ... ... : ... .. . ... : ... .. 3 ... : ... .. . ... ... : ... .. 8 ... ... : ... .. 8 ... ... : ... .. . ... ...
ROW BC : ... .. . ... ... ... : ... .. . ... ... ... : ... .. . ... : ... .. 2 ... : ... .. . ... ... : ... .. 7 ... ... : ... .. 7 ... ... : ... .. . ... ...
ROW BD : ... .. 0 ... V00 ... : ... .. . ... ... ... : --- .. . ... : ... .. 0 ... : ... .. . ... ... : ... .. . ... ... : ... .. . ... ... : ... .. . ... ...
ROW BE : ... .. . ... ... ... : ... .. . ... ... ... : ... .. . ... : ... .. . ... : ... .. . ... ... : ... .. 6 ... ... : ... .. 6 ... ... : ... .. . ... ...
ROW BF : ... .. . ... ... ... : ... .. . ... ... ... : ... .. . ... : ... .. . ... : ... .. . ... ... : ... .. . ... ... : ... .. . ... ... : ... .. . ... ...
ROW C0 : ... .. . ... ... ... : ... .. . ... ... ... : ... .. . ... : ... .. . ... : ... .. . ... ... : ... .. . ... ... : ... .. . ... ... : ... .. . ... ...
ROW C1 : ... .. . ... ... ... : ... .. . ... ... ... : ... .. . ... : ... .. . ... : ... .. . ... ... : ... .. . ... ... : ... .. . ... ... : ... .. . ... ...
ROW C2 : ... .. . ... ... ... : ... .. . ... ... ... : G#5 00 . ... : ... .. . ... : ... .. . ... ... : --- .. . ... ... : --- .. . P83 ... : ... .. . ... ...
ROW C3 : ... .. . ... ... ... : ... .. . ... ... ... : ... .. . ... : ... .. . ... : ... .. . ... ... : ... .. . ... ... : ... .. . ... ... : ... .. . ... ...
ROW C4 : ... .. . ... ... ... : ... .. . ... ... ... : ... .. . ... : ... .. . ... : ... .. . ... ... : ... .. . ... ... : ... .. . ... ... : ... .. . ... ...
ROW C5 : ... .. . ... ... ... : ... .. . ... ... ... : ... .. . ... : ... .. . ... : ... .. . ... ... : ... .. . ... ... : ... .. . ... ... : ... .. . ... ...
ROW C6 : ... .. . ... ... ... : ... .. . ... ... ... : ... .. . ... : ... .. . ... : ... .. . ... ... : ... .. . ... ... : ... .. . ... ... : ... .. . ... ...
ROW C7 : ... .. . ... ... ... : ... .. . ... ... ... : --- .. . ... : ... .. . ... : ... .. . ... ... : ... .. . ... ... : ... .. . ... ... : ... .. . ... ...
ROW C8 : ... .. . ... ... ... : ... .. . ... ... ... : ... .. . ... : ... .. . ... : ... .. . ... ... : ... .. . ... ... : ... .. . ... ... : ... .. . ... ...
ROW C9 : ... .. . ... ... ... : ... .. . ... ... ... : ... .. . ... : ... .. . ... : ... .. . ... ... : ... .. . ... ... : ... .. . ... ... : ... .. . ... ...
ROW CA : ... .. . ... ... ... : ... .. . ... ... ... : ... .. . ... : ... .. . ... : ... .. . ... ... : ... .. . ... ... : ... .. . ... ... : ... .. . ... ...
ROW CB : ... .. . ... ... ... : ... .. . ... ... ... : ... .. . ... : ... .. . ... : ... .. . ... ... : ... .. . ... ... : ... .. . ... ... : ... .. . ... ...
ROW CC : ... .. . ... ... ... : ... .. . ... ... ... : E-4 00 . ... : ... .. . ... : ... .. . ... ... : ... .. . ... ... : ... .. . ... ... : ... .. . ... ...
ROW CD : ... .. . ... ... ... : ... .. . ... ... ... : F#3 00 . ... : ... .. . ... : ... .. . ... ... : ... .. . ... ... : ... .. . ... ... : ... .. . ... ...
ROW CE : ... .. . ... ... ... : ... .. . ... ... ... : B-2 00 . ... : ... .. . ... : ... .. . ... ... : ... .. . ... ... : ... .. . ... ... : ... .. . ... ...
ROW CF : ... .. . ... ... ... : ... .. . ... ... ... : A#2 00 . ... : ... .. . ... : ... .. . ... ... : ... .. . ... ... : ... .. . ... ... : ... .. . ... ...
ROW D0 : ... .. . ... ... ... : ... .. . ... ... ... : F-2 00 . ... : ... .. . ... : ... .. . ... ... : ... .. . ... ... : ... .. . ... ... : ... .. . ... ...
ROW D1 : ... .. . ... ... ... : ... .. . ... ... ... : ... .. . ... : ... .. . ... : ... .. . ... ... : ... .. . ... ... : ... .. . ... ... : ... .. . ... ...
ROW D2 : ... .. . ... ... ... : ... .. . ... ... ... : ... .. . ... : ... .. . ... : ... .. . ... ... : ... .. . ... ... : ... .. . ... ... : ... .. . ... ...
ROW D3 : ... .. . ... ... ... : ... .. . ... ... ... : ... .. . ... : ... .. . ... : ... .. . ... ... : ... .. . ... ... : ... .. . ... ... : ... .. . ... ...
ROW D4 : ... .. . ... ... ... : ... .. . ... ... ... : ... .. . ... : ... .. . ... : ... .. . ... ... : ... .. . ... ... : ... .. . ... ... : ... .. . ... ...
ROW D5 : ... .. . ... ... ... : ... .. . ... ... ... : ... .. . ... : ... .. . ... : ... .. . ... ... : ... .. . ... ... : ... .. . ... ... : ... .. . ... ...
ROW D6 : F-4 00 F P80 V02 ... : ... .. . ... ... ... : --- .. . ... : ... .. . ... : ... .. . ... ... : ... .. . ... ... : ... .. . ... ... : ... .. . ... ...
ROW D7 : ... .. E ... ... ... : ... .. . ... ... ... : ... .. . ... : ... .. . ... : ... .. . ... ... : ... .. . ... ... : ... .. . ... ... : ... .. . ... ...
ROW D8 : ... .. D ... ... ... : ... .. . ... ... ... : ... .. . ... : ... .. . ... : ... .. . ... ... : ... .. . ... ... : ... .. . ... ... : ... .. . ... ...
ROW D9 : ... .. A ... ... ... : ... .. . ... ... ... : ... .. . ... : ... .. . ... : ... .. . ... ... : ... .. . ... ... : ... .. . ... ... : ... .. . ... ...
ROW DA : ... .. . ... ... ... : ... .. . ... ... ... : ... .. . ... : ... .. . ... : ... .. . ... ... : ... .. . ... ... : ... .. . ... ... : ... .. . ... ...
ROW DB : G-4 00 F ... ... ... : ... .. . ... ... ... : ... .. . ... : ... .. . ... : ... .. . ... ... : ... .. . ... ... : ... .. . ... ... : ... .. . ... ...
ROW DC : ... .. E ... ... ... : ... .. . ... ... ... : ... .. . ... : ... .. . ... : ... .. . ... ... : ... .. . ... ... : ... .. . ... ... : ... .. . ... ...
ROW DD : ... .. D ... ... ... : ... .. . ... ... ... : ... .. . ... : ... .. . ... : ... .. . ... ... : ... .. . ... ... : ... .. . ... ... : ... .. . ... ...
ROW DE : F-4 00 F ... ... ... : ... .. . ... ... ... : ... .. . ... : ... .. . ... : ... .. . ... ... : ... .. . ... ... : ... .. . ... ... : ... .. . ... ...
ROW DF : ... .. E ... ... ... : ... .. . ... ... ... : ... .. . ... : ... .. . ... : ... .. . ... ... : ... .. . ... ... : ... .. . ... ... : ... .. . ... ...
ROW E0 : E-4 00 F ... ... ... : ... .. . ... ... ... : B-3 00 . ... : ... .. F ... : ... .. . ... ... : C-3 01 A ... ... : G-3 01 A P81 ... : ... .. . ... ...
ROW E1 : ... .. E ... ... ... : ... .. . ... ... ... : C#3 00 . ... : ... .. C ... : ... .. . ... ... : ... .. 9 ... ... : ... .. 9 ... ... : ... .. . ... ...
ROW E2 : ... .. D ... ... ... : ... .. . ... ... ... : F#2 00 . ... : ... .. 6 ... : ... .. . ... ... : ... .. . ... ... : ... .. . ... ... : ... .. . ... ...
ROW E3 : ... .. A ... ... ... : ... .. . ... ... ... : F-2 00 . ... : ... .. 3 ... : ... .. . ... ... : ... .. 8 ... ... : ... .. 8 ... ... : ... .. . ... ...
ROW E4 : ... .. . ... ... ... : ... .. . ... ... ... : C-2 00 . ... : ... .. 2 ... : ... .. . ... ... : ... .. 7 ... ... : ... .. 7 ... ... : ... .. . ... ...
ROW E5 : ... .. 0 ... V00 ... : ... .. . ... ... ... : ... .. . ... : ... .. 0 ... : ... .. . ... ... : A#2 01 A ... ... : E-3 01 A ... ... : ... .. . ... ...
ROW E6 : ... .. . ... ... ... : ... .. . ... ... ... : ... .. . ... : ... .. . ... : ... .. . ... ... : ... .. 9 ... ... : ... .. 9 ... ... : ... .. . ... ...
ROW E7 : ... .. . ... ... ... : ... .. . ... ... ... : ... .. . ... : ... .. . ... : ... .. . ... ... : ... .. . ... ... : ... .. . ... ... : ... .. . ... ...
ROW E8 : ... .. . ... ... ... : ... .. . ... ... ... : ... .. . ... : ... .. . ... : ... .. . ... ... : ... .. 8 ... ... : ... .. 8 ... ... : ... .. . ... ...
ROW E9 : ... .. . ... ... ... : ... .. . ... ... ... : ... .. . ... : ... .. . ... : ... .. . ... ... : ... .. 7 ... ... : ... .. 7 ... ... : ... .. . ... ...
ROW EA : E-4 00 F P80 V02 ... : ... .. . ... ... ... : ... .. . ... : D-# 00 F ... : ... .. . ... ... : C-3 01 A ... ... : G-3 01 A ... ... : ... .. . ... ...
ROW EB : ... .. E ... ... ... : ... .. . ... ... ... : ... .. . ... : ... .. C ... : ... .. . ... ... : ... .. 9 ... ... : ... .. 9 ... ... : ... .. . ... ...
ROW EC : ... .. D ... ... ... : ... .. . ... ... ... : ... .. . ... : ... .. 6 ... : ... .. . ... ... : ... .. . ... ... : ... .. . ... ... : ... .. . ... ...
ROW ED : ... .. 0 ... V00 ... : ... .. . ... ... ... : ... .. . ... : ... .. 3 ... : ... .. . ... ... : ... .. 8 ... ... : ... .. 8 ... ... : ... .. . ... ...
ROW EE : ... .. . ... ... ... : ... .. . ... ... ... : ... .. . ... : ... .. 2 ... : ... .. . ... ... : ... .. 7 ... ... : ... .. 7 ... ... : ... .. . ... ...
ROW EF : F-4 00 F P80 V02 ... : ... .. . ... ... ... : ... .. . ... : ... .. F ... : ... .. . ... ... : A#2 01 A ... ... : E-3 01 A ... ... : ... .. . ... ...
ROW F0 : ... .. E ... ... ... : ... .. . ... ... ... : ... .. . ... : ... .. C ... : ... .. . ... ... : ... .. 9 ... ... : ... .. 9 ... ... : ... .. . ... ...
ROW F1 : ... .. D ... ... ... : ... .. . ... ... ... : ... .. . ... : ... .. 6 ... : ... .. . ... ... : ... .. . ... ... : ... .. . ... ... : ... .. . ... ...
ROW F2 : ... .. 0 ... V00 ... : ... .. . ... ... ... : ... .. . ... : ... .. 3 ... : ... .. . ... ... : ... .. 8 ... ... : ... .. 8 ... ... : ... .. . ... ...
ROW F3 : ... .. . ... ... ... : ... .. . ... ... ... : ... .. . ... : ... .. 2 ... : ... .. . ... ... : ... .. 7 ... ... : ... .. 7 ... ... : ... .. . ... ...
ROW F4 : G-4 00 F P80 V02 ... : ... .. . ... ... ... : ... .. . ... : 6-# 00 F ... : ... .. . ... ... : C-3 01 A ... ... : G-3 01 A ... ... : ... .. . ... ...
ROW F5 : ... .. E ... ... ... : ... .. . ... ... ... : ... .. . ... : ... .. C ... : ... .. . ... ... : ... .. 9 ... ... : ... .. 9 ... ... : ... .. . ... ...
ROW F6 : ... .. D ... ... ... : ... .. . ... ... ... : ... .. . ... : ... .. 6 ... : ... .. . ... ... : ... .. . ... ... : ... .. . ... ... : ... .. . ... ...
ROW F7 : ... .. A ... ... ... : ... .. . ... ... ... : ... .. . ... : ... .. 3 ... : ... .. . ... ... : ... .. 8 ... ... : ... .. 8 ... ... : ... .. . ... ...
ROW F8 : ... .. . ... ... ... : ... .. . ... ... ... : ... .. . ... : ... .. 2 ... : ... .. . ... ... : ... .. 7 ... ... : ... .. 7 ... ... : ... .. . ... ...
ROW F9 : ... .. 0 ... V00 ... : ... .. . ... ... ... : ... .. . ... : ... .. 0 ... : ... .. . ... ... : A#2 01 A ... ... : E-3 01 A ... ... : ... .. . ... ...
ROW FA : ... .. . ... ... ... : ... .. . ... ... ... : ... .. . ... : ... .. . ... : ... .. . ... ... : ... .. 9 ... ... : ... .. 9 ... ... : ... .. . ... ...
ROW FB : ... .. . ... ... ... : ... .. . ... ... ... : ... .. . ... : ... .. . ... : ... .. . ... ... : ... .. . ... ... : ... .. . ... ... : ... .. . ... ...
ROW FC : ... .. . ... ... ... : ... .. . ... ... ... : ... .. . ... : ... .. . ... : ... .. . ... ... : ... .. 8 ... ... : ... .. 8 ... ... : ... .. . ... ...
ROW FD : ... .. . ... ... ... : ... .. . ... ... ... : ... .. . ... : ... .. . ... : ... .. . ... ... : ... .. 7 ... ... : ... .. 7 ... ... : ... .. . ... ...
ROW FE : E-4 00 F P80 V02 ... : ... .. . ... ... ... : ... .. . ... : D-# 00 F ... : ... .. . ... ... : C-3 01 A ... ... : G-3 01 A ... ... : ... .. . ... ...
ROW FF : ... .. E ... ... ... : ... .. . ... ... ... : ... .. . ... : ... .. C ... : ... .. . ... ... : ... .. 9 ... ... : ... .. 9 ... ... : ... .. . ... ...

PATTERN 1B
ROW 00 : ... .. D ... ... ... : ... .. . ... ... ... : ... .. . ... : ... .. 6 ... : ... .. . ... ... : ... .. . ... ... : ... .. . ... ... : ... .. . ... ...
ROW 01 : ... .. A ... ... ... : ... .. . ... ... ... : ... .. . ... : ... .. 3 ... : ... .. . ... ... : ... .. 8 ... ... : ... .. 8 ... ... : ... .. . ... ...
ROW 02 : ... .. . ... ... ... : ... .. . ... ... ... : ... .. . ... : ... .. 2 ... : ... .. . ... ... : ... .. 7 ... ... : ... .. 7 ... ... : ... .. . ... ...
ROW 03 : ... .. 0 ... V00 ... : ... .. . ... ... ... : ... .. . ... : ... .. F ... : ... .. . ... ... : A#2 01 A ... ... : E-3 01 A ... ... : ... .. . ... ...
ROW 04 : ... .. . ... ... ... : ... .. . ... ... ... : ... .. . ... : ... .. C ... : ... .. . ... ... : ... .. 9 ... ... : ... .. 9 ... ... : ... .. . ... ...
ROW 05 : ... .. . ... ... ... : ... .. . ... ... ... : ... .. . ... : ... .. 6 ... : ... .. . ... ... : ... .. . ... ... : ... .. . ... ... : ... .. . ... ...
ROW 06 : ... .. . ... ... ... : ... .. . ... ... ... : ... .. . ... : ... .. 3 ... : ... .. . ... ... : ... .. 8 ... ... : ... .. 8 ... ... : ... .. . ... ...
ROW 07 : ... .. . ... ... ... : ... .. . ... ... ... : ... .. . ... : ... .. 2 ... : ... .. . ... ... : ... .. 7 ... ... : ... .. 7 ... ... : ... .. . ... ...
ROW 08 : F-4 00 F P80 V02 ... : ... .. . ... ... ... : B-4 00 . ... : 3-# 00 F ... : ... .. . ... ... : C-3 01 A ... ... : G#3 01 A ... ... : ... .. . ... ...
ROW 09 : ... .. E ... ... ... : ... .. . ... ... ... : C#4 00 . ... : ... .. C ... : ... .. . ... ... : ... .. 9 ... ... : ... .. 9 ... ... : ... .. . ... ...
ROW 0A : ... .. D ... ... ... : ... .. . ... ... ... : F#3 00 . ... : ... .. 6 ... : ... .. . ... ... : ... .. . ... ... : ... .. . ... ... : ... .. . ... ...
ROW 0B : ... .. A ... ... ... : ... .. . ... ... ... : F-3 00 . ... : ... .. 3 ... : ... .. . ... ... : ... .. 8 ... ... : ... .. 8 ... ... : ... .. . ... ...
ROW 0C : ... .. . ... ... ... : ... .. . ... ... ... : C-3 00 . ... : ... .. 2 ... : ... .. . ... ... : ... .. 7 ... ... : ... .. 7 ... ... : ... .. . ... ...
ROW 0D : ... .. 0 ... V00 ... : ... .. . ... ... ... : ... .. . ... : ... .. 0 ... : ... .. . ... ... : G#2 01 A ... ... : F-3 01 A ... ... : ... .. . ... ...
ROW 0E : ... .. . ... ... ... : ... .. . ... ... ... : ... .. . ... : ... .. . ... : ... .. . ... ... : ... .. 9 ... ... : ... .. 9 ... ... : ... .. . ... ...
ROW 0F : ... .. . ... ... ... : ... .. . ... ... ... : ... .. . ... : ... .. . ... : ... .. . ... ... : ... .. . ... ... : ... .. . ... ... : ... .. . ... ...
ROW 10 : ... .. . ... ... ... : ... .. . ... ... ... : ... .. . ... : ... .. . ... : ... .. . ... ... : ... .. 8 ... ... : ... .. 8 ... ... : ... .. . ... ...
ROW 11 : ... .. . ... ... ... : ... .. . ... ... ... : ... .. . ... : ... .. . ... : ... .. . ... ... : ... .. 7 ... ... : ... .. 7 ... ... : ... .. . ... ...
ROW 12 : F-4 00 F P80 V02 ... : ... .. . ... ... ... : ... .. . ... : D-# 00 F ... : ... .. . ... ... : C-3 01 A ... ... : G#3 01 A ... ... : ... .. . ... ...
ROW 13 : ... .. E ... ... ... : ... .. . ... ... ... : ... .. . ... : ... .. C ... : ... .. . ... ... : ... .. 9 ... ... : ... .. 9 ... ... : ... .. . ... ...
ROW 14 : ... .. D ... ... ... : ... .. . ... ... ... : ... .. . ... : ... .. 6 ... : ... .. . ... ... : ... .. . ... ... : ... .. . ... ... : ... .. . ... ...
ROW 15 : ... .. 0 ... V00 ... : ... .. . ... ... ... : ... .. . ... : ... .. 3 ... : ... .. . ... ... : ... .. 8 ... ... : ... .. 8 ... ... : ... .. . ... ...
ROW 16 : ... .. . ... ... ... : ... .. . ... ... ... : ... .. . ... : ... .. 2 ... : ... .. . ... ... : ... .. 7 ... ... : ... .. 7 ... ... : ... .. . ... ...
ROW 17 : G-4 00 F P80 V02 ... : ... .. . ... ... ... : ... .. . ... : ... .. F ... : ... .. . ... ... : G#2 01 A ... ... : F-3 01 A ... ... : ... .. . ... ...
ROW 18 : ... .. E ... ... ... : ... .. . ... ... ... : ... .. . ... : ... .. C ... : ... .. . ... ... : ... .. 9 ... ... : ... .. 9 ... ... : ... .. . ... ...
ROW 19 : ... .. D ... ... ... : ... .. . ... ... ... : ... .. . ... : ... .. 6 ... : ... .. . ... ... : ... .. . ... ... : ... .. . ... ... : ... .. . ... ...
ROW 1A : ... .. 0 ... V00 ... : ... .. . ... ... ... : ... .. . ... : ... .. 3 ... : ... .. . ... ... : ... .. 8 ... ... : ... .. 8 ... ... : ... .. . ... ...
ROW 1B : ... .. . ... ... ... : ... .. . ... ... ... : ... .. . ... : ... .. 2 ... : ... .. . ... ... : ... .. 7 ... ... : ... .. 7 ... ... : ... .. . ... ...
ROW 1C : G#4 00 F P80 V02 ... : ... .. . ... ... ... : ... .. . ... : 6-# 00 F ... : ... .. . ... ... : C-3 01 A ... ... : G#3 01 A ... ... : ... .. . ... ...
ROW 1D : ... .. E ... ... ... : ... .. . ... ... ... : ... .. . ... : ... .. C ... : ... .. . ... ... : ... .. 9 ... ... : ... .. 9 ... ... : ... .. . ... ...
ROW 1E : ... .. D ... ... ... : ... .. . ... ... ... : ... .. . ... : ... .. 6 ... : ... .. . ... ... : ... .. . ... ... : ... .. . ... ... : ... .. . ... ...
ROW 1F : ... .. A ... ... ... : ... .. . ... ... ... : ... .. . ... : ... .. 3 ... : ... .. . ... ... : ... .. 8 ... ... : ... .. 8 ... ... : ... .. . ... ...
ROW 20 : ... .. . ... ... ... : ... .. . ... ... ... : ... .. . ... : ... .. 2 ... : ... .. . ... ... : ... .. 7 ... ... : ... .. 7 ... ... : ... .. . ... ...
ROW 21 : ... .. 0 ... V00 ... : ... .. . ... ... ... : ... .. . ... : ... .. 0 ... : ... .. . ... ... : G#2 01 A ... ... : F-3 01 A ... ... : ... .. . ... ...
ROW 22 : ... .. . ... ... ... : ... .. . ... ... ... : ... .. . ... : ... .. . ... : ... .. . ... ... : ... .. 9 ... ... : ... .. 9 ... ... : ... .. . ... ...
ROW 23 : ... .. . ... ... ... : ... .. . ... ... ... : ... .. . ... : ... .. . ... : ... .. . ... ... : ... .. . ... ... : ... .. . ... ... : ... .. . ... ...
ROW 24 : ... .. . ... ... ... : ... .. . ... ... ... : ... .. . ... : ... .. . ... : ... .. . ... ... : ... .. 8 ... ... : ... .. 8 ... ... : ... .. . ... ...
ROW 25 : ... .. . ... ... ... : ... .. . ... ... ... : ... .. . ... : ... .. . ... : ... .. . ... ... : ... .. 7 ... ... : ... .. 7 ... ... : ... .. . ... ...
ROW 26 : F-4 00 F P80 V02 ... : ... .. . ... ... ... : ... .. . ... : D-# 00 F ... : ... .. . ... ... : C-3 01 A ... ... : G#3 01 A ... ... : ... .. . ... ...
ROW 27 : ... .. E ... ... ... : ... .. . ... ... ... : ... .. . ... : ... .. C ... : ... .. . ... ... : ... .. 9 ... ... : ... .. 9 ... ... : ... .. . ... ...
ROW 28 : ... .. D ... ... ... : ... .. . ... ... ... : ... .. . ... : ... .. 6 ... : ... .. . ... ... : ... .. . ... ... : ... .. . ... ... : ... .. . ... ...
ROW 29 : ... .. A ... ... ... : ... .. . ... ... ... : ... .. . ... : ... .. 3 ... : ... .. . ... ... : ... .. 8 ... ... : ... .. 8 ... ... : ... .. . ... ...
ROW 2A : ... .. . ... ... ... : ... .. . ... ... ... : ... .. . ... : ... .. 2 ... : ... .. . ... ... : ... .. 7 ... ... : ... .. 7 ... ... : ... .. . ... ...
ROW 2B : ... .. 0 ... V00 ... : ... .. . ... ... ... : ... .. . ... : ... .. 0 ... : ... .. . ... ... : G#2 01 A ... ... : F-3 01 A ... ... : ... .. . ... ...
ROW 2C : ... .. . ... ... ... : ... .. . ... ... ... : ... .. . ... : ... .. . ... : ... .. . ... ... : ... .. 9 ... ... : ... .. 9 ... ... : ... .. . ... ...
ROW 2D : ... .. . ... ... ... : ... .. . ... ... ... : ... .. . ... : ... .. . ... : ... .. . ... ... : ... .. . ... ... : ... .. . ... ... : ... .. . ... ...
ROW 2E : ... .. . ... ... ... : ... .. . ... ... ... : ... .. . ... : ... .. . ... : ... .. . ... ... : ... .. 8 ... ... : ... .. 8 ... ... : ... .. . ... ...
ROW 2F : ... .. . ... ... ... : ... .. . ... ... ... : ... .. . ... : ... .. . ... : ... .. . ... ... : ... .. 7 ... ... : ... .. 7 ... ... : ... .. . ... ...
ROW 30 : G-4 00 F P80 V02 ... : ... .. . ... ... ... : A-5 00 . ... : 3-# 00 F ... : ... .. . ... ... : D#3 01 A ... ... : A#3 01 A ... ... : ... .. . ... ...
ROW 31 : ... .. E ... ... ... : ... .. . ... ... ... : B-4 00 . ... : ... .. C ... : ... .. . ... ... : ... .. 9 ... ... : ... .. 9 ... ... : ... .. . ... ...
ROW 32 : ... .. D ... ... ... : ... .. . ... ... ... : E-4 00 . ... : ... .. 6 ... : ... .. . ... ... : ... .. . ... ... : ... .. . ... ... : ... .. . ... ...
ROW 33 : ... .. A ... ... ... : ... .. . ... ... ... : D#4 00 . ... : ... .. 3 ... : ... .. . ... ... : ... .. 8 ... ... : ... .. 8 ... ... : ... .. . ... ...
ROW 34 : ... .. . ... ... ... : ... .. . ... ... ... : A#3 00 . ... : ... .. 2 ... : ... .. . ... ... : ... .. 7 ... ... : ... .. 7 ... ... : ... .. . ... ...
ROW 35 : ... .. . ... ... ... : ... .. . ... ... ... : ... .. . ... : ... .. 0 ... : ... .. . ... ... : A#2 01 A ... ... : G-3 01 A ... ... : ... .. . ... ...
ROW 36 : ... .. . ... ... ... : ... .. . ... ... ... : ... .. . ... : ... .. . ... : ... .. . ... ... : ... .. 9 ... ... : ... .. 9 ... ... : ... .. . ... ...
ROW 37 : ... .. . ... ... ... : ... .. . ... ... ... : ... .. . ... : ... .. . ... : ... .. . ... ... : ... .. . ... ... : ... .. . ... ... : ... .. . ... ...
ROW 38 : ... .. . ... ... ... : ... .. . ... ... ... : ... .. . ... : ... .. . ... : ... .. . ... ... : ... .. 8 ... ... : ... .. 8 ... ... : ... .. . ... ...
ROW 39 : ... .. . ... ... ... : ... .. . ... ... ... : ... .. . ... : ... .. . ... : ... .. . ... ... : ... .. 7 ... ... : ... .. 7 ... ... : ... .. . ... ...
ROW 3A : ... .. F ... ... ... : ... .. . ... ... ... : ... .. . ... : D-# 00 F ... : ... .. . ... ... : D#3 01 A ... ... : A#3 01 A ... ... : ... .. . ... ...
ROW 3B : ... .. E ... ... ... : ... .. . ... ... ... : ... .. . ... : ... .. C ... : ... .. . ... ... : ... .. 9 ... ... : ... .. 9 ... ... : ... .. . ... ...
ROW 3C : ... .. D ... ... ... : ... .. . ... ... ... : ... .. . ... : ... .. 6 ... : ... .. . ... ... : ... .. . ... ... : ... .. . ... ... : ... .. . ... ...
ROW 3D : ... .. 0 ... V00 ... : ... .. . ... ... ... : ... .. . ... : ... .. 3 ... : ... .. . ... ... : ... .. 8 ... ... : ... .. 8 ... ... : ... .. . ... ...
ROW 3E : ... .. . ... ... ... : ... .. . ... ... ... : ... .. . ... : ... .. 2 ... : ... .. . ... ... : ... .. 7 ... ... : ... .. 7 ... ... : ... .. . ... ...
ROW 3F : G#4 00 F P80 V02 ... : ... .. . ... ... ... : ... .. . ... : ... .. F ... : ... .. . ... ... : A#2 01 A ... ... : G-3 01 A ... ... : ... .. . ... ...
ROW 40 : ... .. E ... ... ... : ... .. . ... ... ... : ... .. . ... : ... .. C ... : ... .. . ... ... : ... .. 9 ... ... : ... .. 9 ... ... : ... .. . ... ...
ROW 41 : ... .. D ... ... ... : ... .. . ... ... ... : ... .. . ... : ... .. 6 ... : ... .. . ... ... : ... .. . ... ... : ... .. . ... ... : ... .. . ... ...
ROW 42 : ... .. 0 ... V00 ... : ... .. . ... ... ... : ... .. . ... : ... .. 3 ... : ... .. . ... ... : ... .. 8 ... ... : ... .. 8 ... ... : ... .. . ... ...
ROW 43 : ... .. . ... ... ... : ... .. . ... ... ... : ... .. . ... : ... .. 2 ... : ... .. . ... ... : ... .. 7 ... ... : ... .. 7 ... ... : ... .. . ... ...
ROW 44 : A#4 00 F P80 V02 ... : ... .. . ... ... ... : D#4 00 . ... : 6-# 00 F ... : ... .. . ... ... : D#3 01 A ... ... : A#3 01 A ... ... : ... .. . ... ...
ROW 45 : ... .. E ... ... ... : ... .. . ... ... ... : ... .. . ... : ... .. C ... : ... .. . ... ... : ... .. 9 ... ... : ... .. 9 ... ... : ... .. . ... ...
ROW 46 : ... .. D ... ... ... : ... .. . ... ... ... : ... .. . ... : ... .. 6 ... : ... .. . ... ... : ... .. . ... ... : ... .. . ... ... : ... .. . ... ...
ROW 47 : ... .. A ... ... ... : ... .. . ... ... ... : --- .. . ... : ... .. 3 ... : ... .. . ... ... : ... .. 8 ... ... : ... .. 8 ... ... : ... .. . ... ...
ROW 48 : ... .. . ... ... ... : ... .. . ... ... ... : ... .. . ... : ... .. 2 ... : ... .. . ... ... : ... .. 7 ... ... : ... .. 7 ... ... : ... .. . ... ...
ROW 49 : ... .. 0 ... V00 ... : ... .. . ... ... ... : C#4 00 . ... : ... .. 0 ... : ... .. . ... ... : A#2 01 A ... ... : G-3 01 A ... ... : ... .. . ... ...
ROW 4A : ... .. . ... ... ... : ... .. . ... ... ... : ... .. . ... : ... .. . ... : ... .. . ... ... : ... .. 9 ... ... : ... .. 9 ... ... : ... .. . ... ...
ROW 4B : ... .. . ... ... ... : ... .. . ... ... ... : ... .. . ... : ... .. . ... : ... .. . ... ... : ... .. . ... ... : ... .. . ... ... : ... .. . ... ...
ROW 4C : ... .. . ... ... ... : ... .. . ... ... ... : --- .. . ... : ... .. . ... : ... .. . ... ... : ... .. 8 ... ... : ... .. 8 ... ... : ... .. . ... ...
ROW 4D : ... .. . ... ... ... : ... .. . ... ... ... : ... .. . ... : ... .. . ... : ... .. . ... ... : ... .. 7 ... ... : ... .. 7 ... ... : ... .. . ... ...
ROW 4E : D#4 00 F P80 V02 ... : ... .. . ... ... ... : C-4 00 . ... : D-# 00 F ... : ... .. . ... ... : D#3 01 A ... ... : A#3 01 A ... ... : ... .. . ... ...
ROW 4F : ... .. E ... ... ... : ... .. . ... ... ... : ... .. . ... : ... .. C ... : ... .. . ... ... : ... .. 9 ... ... : ... .. 9 ... ... : ... .. . ... ...
ROW 50 : ... .. D ... ... ... : ... .. . ... ... ... : ... .. . ... : ... .. 6 ... : ... .. . ... ... : ... .. . ... ... : ... .. . ... ... : ... .. . ... ...
ROW 51 : ... .. A ... ... ... : ... .. . ... ... ... : --- .. . ... : ... .. 3 ... : ... .. . ... ... : ... .. 8 ... ... : ... .. 8 ... ... : ... .. . ... ...
ROW 52 : ... .. . ... ... ... : ... .. . ... ... ... : ... .. . ... : ... .. 2 ... : ... .. . ... ... : ... .. 7 ... ... : ... .. 7 ... ... : ... .. . ... ...
ROW 53 : ... .. 0 ... V00 ... : ... .. . ... ... ... : A#3 00 . ... : ... .. 0 ... : ... .. . ... ... : A#2 01 A ... ... : G-3 01 A ... ... : ... .. . ... ...
ROW 54 : ... .. . ... ... ... : ... .. . ... ... ... : ... .. . ... : ... .. . ... : ... .. . ... ... : ... .. 9 ... ... : ... .. 9 ... ... : ... .. . ... ...
ROW 55 : ... .. . ... ... ... : ... .. . ... ... ... : ... .. . ... : ... .. . ... : ... .. . ... ... : ... .. . ... ... : ... .. . ... ... : ... .. . ... ...
ROW 56 : ... .. . ... ... ... : ... .. . ... ... ... : --- .. . ... : ... .. . ... : ... .. . ... ... : ... .. 8 ... ... : ... .. 8 ... ... : ... .. . ... ...
ROW 57 : ... .. . ... ... ... : ... .. . ... ... ... : ... .. . ... : ... .. . ... : ... .. . ... ... : ... .. 7 ... ... : ... .. 7 ... ... : ... .. . ... ...
ROW 58 : D#5 00 F P80 V02 ... : ... .. . ... ... ... : G#3 00 . ... : 3-# 00 F ... : ... .. . ... ... : D#3 01 A ... ... : C-4 01 A ... ... : ... .. . ... ...
ROW 59 : ... .. E ... ... ... : ... .. . ... ... ... : ... .. . ... : ... .. C ... : ... .. . ... ... : ... .. 9 ... ... : ... .. 9 ... ... : ... .. . ... ...
ROW 5A : ... .. D ... ... ... : ... .. . ... ... ... : ... .. . ... : ... .. 6 ... : ... .. . ... ... : ... .. . ... ... : ... .. . ... ... : ... .. . ... ...
ROW 5B : ... .. A ... ... ... : ... .. . ... ... ... : ... .. . ... : ... .. 3 ... : ... .. . ... ... : ... .. 8 ... ... : ... .. 8 ... ... : ... .. . ... ...
ROW 5C : ... .. . ... ... ... : ... .. . ... ... ... : ... .. . ... : ... .. 2 ... : ... .. . ... ... : --- .. . P83 ... : ... .. 7 ... ... : ... .. . ... ...
ROW 5D : ... .. . ... ... ... : ... .. . ... ... ... : --- .. . ... : ... .. 0 ... : ... .. . ... ... : G#3 01 A P80 ... : ... .. . ... ... : ... .. . ... ...
ROW 5E : ... .. . ... ... ... : ... .. . ... ... ... : ... .. . ... : ... .. . ... : ... .. . ... ... : ... .. 9 ... ... : ... .. 6 ... ... : ... .. . ... ...
ROW 5F : ... .. . ... ... ... : ... .. . ... ... ... : ... .. . ... : ... .. . ... : ... .. . ... ... : ... .. . ... ... : ... .. . ... ... : ... .. . ... ...
ROW 60 : ... .. . ... ... ... : ... .. . ... ... ... : ... .. . ... : ... .. . ... : ... .. . ... ... : ... .. 8 ... ... : ... .. . ... ... : ... .. . ... ...
ROW 61 : ... .. . ... ... ... : ... .. . ... ... ... : ... .. . ... : ... .. . ... : ... .. . ... ... : --- .. . P82 ... : ... .. . ... ... : ... .. . ... ...
ROW 62 : D#4 00 F ... ... ... : ... .. . ... ... ... : C-5 00 . ... : D-# 00 F ... : ... .. . ... ... : D#3 01 A P80 ... : D#4 01 A ... ... : ... .. . ... ...
ROW 63 : ... .. E ... ... ... : ... .. . ... ... ... : ... .. . ... : ... .. C ... : ... .. . ... ... : ... .. 9 ... ... : ... .. 9 ... ... : ... .. . ... ...
ROW 64 : ... .. D ... ... ... : ... .. . ... ... ... : ... .. . ... : ... .. 6 ... : ... .. . ... ... : ... .. . ... ... : ... .. . ... ... : ... .. . ... ...
ROW 65 : ... .. A ... ... ... : ... .. . ... ... ... : ... .. . ... : ... .. 3 ... : ... .. . ... ... : ... .. 8 ... ... : ... .. 8 ... ... : ... .. . ... ...
ROW 66 : ... .. . ... ... ... : ... .. . ... ... ... : ... .. . ... : ... .. 2 ... : ... .. . ... ... : --- .. . P83 ... : ... .. 7 ... ... : ... .. . ... ...
ROW 67 : ... .. 0 ... V00 ... : ... .. . ... ... ... : --- .. . ... : ... .. F ... : ... .. . ... ... : G#3 01 A P80 ... : C-4 01 A ... ... : ... .. . ... ...
ROW 68 : ... .. . ... ... ... : ... .. . ... ... ... : ... .. . ... : ... .. C ... : ... .. . ... ... : ... .. 9 ... ... : ... .. 9 ... ... : ... .. . ... ...
ROW 69 : ... .. . ... ... ... : ... .. . ... ... ... : ... .. . ... : ... .. 6 ... : ... .. . ... ... : ... .. . ... ... : ... .. . ... ... : ... .. . ... ...
ROW 6A : ... .. . ... ... ... : ... .. . ... ... ... : ... .. . ... : ... .. 3 ... : ... .. . ... ... : ... .. 8 ... ... : ... .. 8 ... ... : ... .. . ... ...
ROW 6B : ... .. . ... ... ... : ... .. . ... ... ... : ... .. . ... : ... .. 2 ... : ... .. . ... ... : --- .. . P82 ... : ... .. 7 ... ... : ... .. . ... ...
ROW 6C : D-5 00 F P80 V02 ... : ... .. . ... ... ... : G-3 00 . ... : 6-# 00 F ... : ... .. . ... ... : D-3 01 A P80 ... : B-3 01 A ... ... : ... .. . ... ...
ROW 6D : ... .. E ... ... ... : ... .. . ... ... ... : ... .. . ... : ... .. C ... : ... .. . ... ... : ... .. 9 ... ... : ... .. 9 ... ... : ... .. . ... ...
ROW 6E : ... .. D ... ... ... : ... .. . ... ... ... : ... .. . ... : ... .. 6 ... : ... .. . ... ... : ... .. . ... ... : ... .. . ... ... : ... .. . ... ...
ROW 6F : ... .. A ... ... ... : ... .. . ... ... ... : ... .. . ... : ... .. 3 ... : ... .. . ... ... : ... .. 8 ... ... : ... .. 8 ... ... : ... .. . ... ...
ROW 70 : ... .. . ... ... ... : ... .. . ... ... ... : ... .. . ... : ... .. 2 ... : ... .. . ... ... : --- .. . P82 ... : ... .. 7 ... ... : ... .. . ... ...
ROW 71 : ... .. . ... ... ... : ... .. . ... ... ... : --- .. . ... : ... .. 0 ... : ... .. . ... ... : G-3 01 A P80 ... : ... .. . ... ... : ... .. . ... ...
ROW 72 : ... .. . ... ... ... : ... .. . ... ... ... : ... .. . ... : ... .. . ... : ... .. . ... ... : ... .. 9 ... ... : ... .. 6 ... ... : ... .. . ... ...
ROW 73 : ... .. . ... ... ... : ... .. . ... ... ... : ... .. . ... : ... .. . ... : ... .. . ... ... : ... .. . ... ... : ... .. . ... ... : ... .. . ... ...
ROW 74 : ... .. . ... ... ... : ... .. . ... ... ... : ... .. . ... : ... .. . ... : ... .. . ... ... : ... .. 8 ... ... : ... .. . ... ... : ... .. . ... ...
ROW 75 : ... .. . ... ... ... : ... .. . ... ... ... : ... .. . ... : ... .. . ... : ... .. . ... ... : --- .. . P81 ... : ... .. . ... ... : ... .. . ... ...
ROW 76 : D-4 00 F ... ... ... : ... .. . ... ... ... : B-4 00 . ... : D-# 00 F ... : ... .. . ... ... : D-3 01 A P80 ... : D-4 01 A ... ... : ... .. . ... ...
ROW 77 : ... .. E ... ... ... : ... .. . ... ... ... : ... .. . ... : ... .. C ... : ... .. . ... ... : ... .. 9 ... ... : ... .. 9 ... ... : ... .. . ... ...
ROW 78 : ... .. D ... ... ... : ... .. . ... ... ... : ... .. . ... : ... .. 6 ... : ... .. . ... ... : ... .. . ... ... : ... .. . ... ... : ... .. . ... ...
ROW 79 : ... .. A ... ... ... : ... .. . ... ... ... : ... .. . ... : ... .. 3 ... : ... .. . ... ... : ... .. 8 ... ... : ... .. 8 ... ... : ... .. . ... ...
ROW 7A : ... .. . ... ... ... : ... .. . ... ... ... : ... .. . ... : ... .. 2 ... : ... .. . ... ... : --- .. . P82 ... : ... .. 7 ... ... : ... .. . ... ...
ROW 7B : ... .. 0 ... V00 ... : ... .. . ... ... ... : --- .. . ... : ... .. F ... : ... .. . ... ... : G-3 01 A P80 ... : B-3 01 A ... ... : ... .. . ... ...
ROW 7C : ... .. . ... ... ... : ... .. . ... ... ... : ... .. . ... : ... .. C ... : ... .. . ... ... : ... .. 9 ... ... : ... .. 9 ... ... : ... .. . ... ...
ROW 7D : ... .. . ... ... ... : ... .. . ... ... ... : ... .. . ... : ... .. 6 ... : ... .. . ... ... : ... .. . ... ... : ... .. . ... ... : ... .. . ... ...
ROW 7E : ... .. . ... ... ... : ... .. . ... ... ... : ... .. . ... : ... .. 3 ... : ... .. . ... ... : ... .. 8 ... ... : ... .. 8 ... ... : ... .. . ... ...
ROW 7F : ... .. . ... ... ... : ... .. . ... ... ... : ... .. . ... : ... .. 2 ... : ... .. . ... ... : --- .. . P81 ... : ... .. 7 ... ... : ... .. . ... ...
ROW 80 : C#5 00 F P80 V02 ... : ... .. . ... ... ... : F#3 00 . ... : 3-# 00 F ... : ... .. . ... ... : C#3 01 A P80 ... : A#3 01 A ... ... : ... .. . ... ...
ROW 81 : ... .. E ... ... ... : ... .. . ... ... ... : ... .. . ... : ... .. C ... : ... .. . ... ... : ... .. 9 ... ... : ... .. 9 ... ... : ... .. . ... ...
ROW 82 : ... .. D ... ... ... : ... .. . ... ... ... : ... .. . ... : ... .. 6 ... : ... .. . ... ... : ... .. . ... ... : ... .. . ... ... : ... .. . ... ...
ROW 83 : ... .. A ... ... ... : ... .. . ... ... ... : ... .. . ... : ... .. 3 ... : ... .. . ... ... : ... .. 8 ... ... : ... .. 8 ... ... : ... .. . ... ...
ROW 84 : ... .. . ... ... ... : ... .. . ... ... ... : ... .. . ... : ... .. 2 ... : ... .. . ... ... : --- .. . P83 ... : ... .. 7 ... ... : ... .. . ... ...
ROW 85 : ... .. 0 ... V00 ... : ... .. . ... ... ... : --- .. . ... : ... .. 0 ... : ... .. . ... ... : F#3 01 A P80 ... : ... .. . ... ... : ... .. . ... ...
ROW 86 : ... .. . ... ... ... : ... .. . ... ... ... : ... .. . ... : ... .. . ... : ... .. . ... ... : ... .. 9 ... ... : ... .. 6 ... ... : ... .. . ... ...
ROW 87 : ... .. . ... ... ... : ... .. . ... ... ... : ... .. . ... : ... .. . ... : ... .. . ... ... : ... .. . ... ... : ... .. . ... ... : ... .. . ... ...
ROW 88 : ... .. . ... ... ... : ... .. . ... ... ... : ... .. . ... : ... .. . ... : ... .. . ... ... : ... .. 8 ... ... : ... .. . ... ... : ... .. . ... ...
ROW 89 : ... .. . ... ... ... : ... .. . ... ... ... : ... .. . ... : ... .. . ... : ... .. . ... ... : --- .. . P7F ... : ... .. . ... ... : ... .. . ... ...
ROW 8A : C#4 00 F P80 V02 ... : ... .. . ... ... ... : E-4 00 . ... : D-# 00 F ... : ... .. . ... ... : C#3 01 A P80 ... : C#4 01 A ... ... : ... .. . ... ...
ROW 8B : ... .. E ... ... ... : ... .. . ... ... ... : ... .. . ... : ... .. C ... : ... .. . ... ... : ... .. 9 ... ... : ... .. 9 ... ... : ... .. . ... ...
ROW 8C : ... .. D ... ... ... : ... .. . ... ... ... : ... .. . ... : ... .. 6 ... : ... .. . ... ... : ... .. . ... ... : ... .. . ... ... : ... .. . ... ...
ROW 8D : ... .. A ... ... ... : ... .. . ... ... ... : ... .. . ... : ... .. 3 ... : ... .. . ... ... : ... .. 8 ... ... : ... .. 8 ... ... : ... .. . ... ...
ROW 8E : ... .. . ... ... ... : ... .. . ... ... ... : ... .. . ... : ... .. 2 ... : ... .. . ... ... : --- .. . P83 ... : ... .. 7 ... ... : ... .. . ... ...
ROW 8F : ... .. 0 ... V00 ... : ... .. . ... ... ... : --- .. . ... : ... .. F ... : ... .. . ... ... : F#3 01 A P80 ... : A#3 01 A ... ... : ... .. . ... ...
ROW 90 : ... .. . ... ... ... : ... .. . ... ... ... : ... .. . ... : ... .. C ... : ... .. . ... ... : ... .. 9 ... ... : ... .. 9 ... ... : ... .. . ... ...
ROW 91 : ... .. . ... ... ... : ... .. . ... ... ... : ... .. . ... : ... .. 6 ... : ... .. . ... ... : ... .. . ... ... : ... .. . ... ... : ... .. . ... ...
ROW 92 : ... .. . ... ... ... : ... .. . ... ... ... : ... .. . ... : ... .. 3 ... : ... .. . ... ... : ... .. 8 ... ... : ... .. 8 ... ... : ... .. . ... ...
ROW 93 : ... .. . ... ... ... : ... .. . ... ... ... : ... .. . ... : ... .. 2 ... : ... .. . ... ... : --- .. . P7F ... : ... .. 7 ... ... : ... .. . ... ...
ROW 94 : C-5 00 F P80 V02 ... : ... .. . ... ... ... : F-3 00 . ... : 6-# 00 F ... : ... .. . ... ... : C-3 01 A P80 ... : G#3 01 A ... ... : ... .. . ... ...
ROW 95 : ... .. E ... ... ... : ... .. . ... ... ... : ... .. . ... : ... .. C ... : ... .. . ... ... : ... .. 9 ... ... : ... .. 9 ... ... : ... .. . ... ...
ROW 96 : ... .. D ... ... ... : ... .. . ... ... ... : ... .. . ... : ... .. 6 ... : ... .. . ... ... : ... .. . ... ... : ... .. . ... ... : ... .. . ... ...
ROW 97 : ... .. A ... ... ... : ... .. . ... ... ... : ... .. . ... : ... .. 3 ... : ... .. . ... ... : ... .. 8 ... ... : ... .. 8 ... ... : ... .. . ... ...
ROW 98 : ... .. . ... ... ... : ... .. . ... ... ... : ... .. . ... : ... .. 2 ... : ... .. . ... ... : --- .. . P7E ... : ... .. 7 ... ... : ... .. . ... ...
ROW 99 : ... .. 0 ... V00 ... : ... .. . ... ... ... : --- .. . ... : ... .. 0 ... : ... .. . ... ... : F-3 01 A P80 ... : ... .. . ... ... : ... .. . ... ...
ROW 9A : ... .. . ... ... ... : ... .. . ... ... ... : ... .. . ... : ... .. . ... : ... .. . ... ... : ... .. 9 ... ... : ... .. 6 ... ... : ... .. . ... ...
ROW 9B : ... .. . ... ... ... : ... .. . ... ... ... : ... .. . ... : ... .. . ... : ... .. . ... ... : ... .. . ... ... : ... .. . ... ... : ... .. . ... ...
ROW 9C : ... .. . ... ... ... : ... .. . ... ... ... : ... .. . ... : ... .. . ... : ... .. . ... ... : ... .. 8 ... ... : ... .. . ... ... : ... .. . ... ...
ROW 9D : ... .. . ... ... ... : ... .. . ... ... ... : ... .. . ... : ... .. . ... : ... .. . ... ... : --- .. . ... ... : ... .. . ... ... : ... .. . ... ...
ROW 9E : C-4 00 F P80 V02 ... : ... .. . ... ... ... : G#4 00 . ... : D-# 00 F ... : ... .. . ... ... : C-3 01 A ... ... : C-4 01 A ... ... : ... .. . ... ...
ROW 9F : ... .. E ... ... ... : ... .. . ... ... ... : ... .. . ... : ... .. C ... : ... .. . ... ... : ... .. 9 ... ... : ... .. 9 ... ... : ... .. . ... ...
ROW A0 : ... .. D ... ... ... : ... .. . ... ... ... : ... .. . ... : ... .. 6 ... : ... .. . ... ... : ... .. . ... ... : ... .. . ... ... : ... .. . ... ...
ROW A1 : ... .. A ... ... ... : ... .. . ... ... ... : ... .. . ... : ... .. 3 ... : ... .. . ... ... : ... .. 8 ... ... : ... .. 8 ... ... : ... .. . ... ...
ROW A2 : ... .. . ... ... ... : ... .. . ... ... ... : ... .. . ... : ... .. 2 ... : ... .. . ... ... : --- .. . P7E ... : ... .. 7 ... ... : ... .. . ... ...
ROW A3 : ... .. 0 ... V00 ... : ... .. . ... ... ... : --- .. . ... : ... .. 0 ... : ... .. . ... ... : F-3 01 A P80 ... : G#3 01 A ... ... : ... .. . ... ...
ROW A4 : ... .. . ... ... ... : ... .. . ... ... ... : ... .. . ... : ... .. . ... : ... .. . ... ... : ... .. 9 ... ... : ... .. 9 ... ... : ... .. . ... ...
ROW A5 : ... .. . ... ... ... : ... .. . ... ... ... : ... .. . ... : ... .. . ... : ... .. . ... ... : ... .. . ... ... : ... .. . ... ... : ... .. . ... ...
ROW A6 : ... .. . ... ... ... : ... .. . ... ... ... : ... .. . ... : ... .. . ... : ... .. . ... ... : ... .. 8 ... ... : ... .. 8 ... ... : ... .. . ... ...
ROW A7 : ... .. . ... ... ... : ... .. . ... ... ... : ... .. . ... : ... .. . ... : ... .. . ... ... : --- .. . ... ... : ... .. 7 ... ... : ... .. . ... ...
ROW A8 : B-4 00 F P80 V02 ... : ... .. . ... ... ... : C#3 00 . ... : 3-# 00 F ... : ... .. . ... ... : B-2 01 A ... ... : G-3 01 A ... ... : ... .. . ... ...
ROW A9 : ... .. E ... ... ... : ... .. . ... ... ... : ... .. . ... : ... .. C ... : ... .. . ... ... : ... .. 9 ... ... : ... .. 9 ... ... : ... .. . ... ...
ROW AA : ... .. D ... ... ... : ... .. . ... ... ... : ... .. . ... : ... .. 6 ... : ... .. . ... ... : ... .. . ... ... : ... .. . ... ... : ... .. . ... ...
ROW AB : ... .. A ... ... ... : ... .. . ... ... ... : ... .. . ... : ... .. 3 ... : ... .. . ... ... : ... .. 8 ... ... : ... .. 8 ... ... : ... .. . ... ...
ROW AC : ... .. . ... ... ... : ... .. . ... ... ... : ... .. . ... : ... .. 2 ... : ... .. . ... ... : --- .. . P85 ... : ... .. 7 ... ... : ... .. . ... ...
ROW AD : ... .. 0 ... V00 ... : ... .. . ... ... ... : --- .. . ... : ... .. 0 ... : ... .. . ... ... : F-3 01 A P80 ... : ... .. . ... ... : ... .. . ... ...
ROW AE : ... .. . ... ... ... : ... .. . ... ... ... : ... .. . ... : ... .. . ... : ... .. . ... ... : ... .. 9 ... ... : ... .. 6 ... ... : ... .. . ... ...
ROW AF : ... .. . ... ... ... : ... .. . ... ... ... : ... .. . ... : ... .. . ... : ... .. . ... ... : ... .. . ... ... : ... .. . ... ... : ... .. . ... ...
ROW B0 : ... .. . ... ... ... : ... .. . ... ... ... : ... .. . ... : ... .. . ... : ... .. . ... ... : ... .. 8 ... ... : ... .. . ... ... : ... .. . ... ...
ROW B1 : ... .. . ... ... ... : ... .. . ... ... ... : ... .. . ... : ... .. . ... : ... .. . ... ... : --- .. . ... ... : ... .. . ... ... : ... .. . ... ...
ROW B2 : B-3 00 F P80 V02 ... : ... .. . ... ... ... : F-4 00 . ... : D-# 00 F ... : ... .. . ... ... : B-2 01 A ... ... : ... .. . ... ... : ... .. . ... ...
ROW B3 : ... .. E ... ... ... : ... .. . ... ... ... : ... .. . ... : ... .. C ... : ... .. . ... ... : ... .. 9 ... ... : ... .. . ... ... : ... .. . ... ...
ROW B4 : ... .. D ... ... ... : ... .. . ... ... ... : ... .. . ... : ... .. 6 ... : ... .. . ... ... : ... .. . ... ... : ... .. . ... ... : ... .. . ... ...
ROW B5 : ... .. A ... ... ... : ... .. . ... ... ... : ... .. . ... : ... .. 3 ... : ... .. . ... ... : ... .. 8 ... ... : ... .. . ... ... : ... .. . ... ...
ROW B6 : ... .. . ... ... ... : ... .. . ... ... ... : ... .. . ... : ... .. 2 ... : ... .. . ... ... : --- .. . P85 ... : ... .. . ... ... : ... .. . ... ...
ROW B7 : ... .. 0 ... V00 ... : ... .. . ... ... ... : --- .. . ... : ... .. F ... : ... .. . ... ... : F-3 01 A P80 ... : ... .. . ... ... : ... .. . ... ...
ROW B8 : ... .. . ... ... ... : ... .. . ... ... ... : ... .. . ... : ... .. C ... : ... .. . ... ... : ... .. 9 ... ... : ... .. . ... ... : ... .. . ... ...
ROW B9 : ... .. . ... ... ... : ... .. . ... ... ... : ... .. . ... : ... .. 6 ... : ... .. . ... ... : ... .. . ... ... : ... .. . ... ... : ... .. . ... ...
ROW BA : ... .. . ... ... ... : ... .. . ... ... ... : ... .. . ... : ... .. 3 ... : ... .. . ... ... : ... .. 8 ... ... : ... .. . ... ... : ... .. . ... ...
ROW BB : ... .. . ... ... ... : ... .. . ... ... ... : ... .. . ... : ... .. 2 ... : ... .. . ... ... : --- .. . ... ... : ... .. . ... ... : ... .. . ... ...
ROW BC : A#4 00 F P80 V02 ... : ... .. . ... ... ... : C-3 00 . ... : 6-# 00 F ... : ... .. . ... ... : A#2 01 A ... ... : ... .. . ... ... : ... .. . ... ...
ROW BD : ... .. E ... ... ... : ... .. . ... ... ... : ... .. . ... : ... .. C ... : ... .. . ... ... : ... .. 9 ... ... : ... .. . ... ... : ... .. . ... ...
ROW BE : ... .. D ... ... ... : ... .. . ... ... ... : ... .. . ... : ... .. 6 ... : ... .. . ... ... : ... .. . ... ... : ... .. . ... ... : ... .. . ... ...
ROW BF : ... .. A ... ... ... : ... .. . ... ... ... : ... .. . ... : ... .. 3 ... : ... .. . ... ... : ... .. 8 ... ... : ... .. . ... ... : ... .. . ... ...
ROW C0 : ... .. . ... ... ... : ... .. . ... ... ... : ... .. . ... : ... .. 2 ... : ... .. . ... ... : --- .. . P82 ... : ... .. . ... ... : ... .. . ... ...
ROW C1 : ... .. 0 ... V00 ... : ... .. . ... ... ... : --- .. . ... : ... .. 0 ... : ... .. . ... ... : E-3 01 A P80 ... : ... .. . ... ... : ... .. . ... ...
ROW C2 : ... .. . ... ... ... : ... .. . ... ... ... : ... .. . ... : ... .. . ... : ... .. . ... ... : ... .. 9 ... ... : ... .. . ... ... : ... .. . ... ...
ROW C3 : ... .. . ... ... ... : ... .. . ... ... ... : ... .. . ... : ... .. . ... : ... .. . ... ... : ... .. . ... ... : ... .. . ... ... : ... .. . ... ...
ROW C4 : ... .. . ... ... ... : ... .. . ... ... ... : ... .. . ... : ... .. . ... : ... .. . ... ... : ... .. 8 ... ... : ... .. . ... ... : ... .. . ... ...
ROW C5 : ... .. . ... ... ... : ... .. . ... ... ... : ... .. . ... : ... .. . ... : ... .. . ... ... : --- .. . P82 ... : ... .. . ... ... : ... .. . ... ...
ROW C6 : A#3 00 F P80 V02 ... : ... .. . ... ... ... : E-4 00 . ... : D-# 00 F ... : ... .. . ... ... : A#2 01 A P80 ... : A#3 01 A ... ... : ... .. . ... ...
ROW C7 : ... .. E ... ... ... : ... .. . ... ... ... : ... .. . ... : ... .. C ... : ... .. . ... ... : ... .. 9 ... ... : ... .. 9 ... ... : ... .. . ... ...
ROW C8 : ... .. D ... ... ... : ... .. . ... ... ... : ... .. . ... : ... .. 6 ... : ... .. . ... ... : ... .. . ... ... : ... .. . ... ... : ... .. . ... ...
ROW C9 : ... .. A ... ... ... : ... .. . ... ... ... : ... .. . ... : ... .. 3 ... : ... .. . ... ... : ... .. 8 ... ... : ... .. 8 ... ... : ... .. . ... ...
ROW CA : ... .. . ... ... ... : ... .. . ... ... ... : ... .. . ... : ... .. 2 ... : ... .. . ... ... : --- .. . P82 ... : ... .. 7 ... ... : ... .. . ... ...
ROW CB : ... .. 0 ... V00 ... : ... .. . ... ... ... : --- .. . ... : ... .. 0 ... : ... .. . ... ... : E-3 01 A P80 ... : G-3 01 A ... ... : ... .. . ... ...
ROW CC : ... .. . ... ... ... : ... .. . ... ... ... : ... .. . ... : ... .. . ... : ... .. . ... ... : ... .. 9 ... ... : ... .. 9 ... ... : ... .. . ... ...
ROW CD : ... .. . ... ... ... : ... .. . ... ... ... : ... .. . ... : ... .. . ... : ... .. . ... ... : ... .. . ... ... : ... .. . ... ... : ... .. . ... ...
ROW CE : ... .. . ... ... ... : ... .. . ... ... ... : ... .. . ... : ... .. . ... : ... .. . ... ... : ... .. 8 ... ... : ... .. 8 ... ... : ... .. . ... ...
ROW CF : ... .. . ... ... ... : ... .. . ... ... ... : ... .. . ... : ... .. . ... : ... .. . ... ... : --- .. . P82 ... : ... .. 7 ... ... : ... .. . ... ...
ROW D0 : G#4 00 F P80 V02 ... : ... .. . ... ... ... : E-6 00 . ... : 3-# 00 F ... : ... .. . ... ... : F-3 01 A P80 ... : F-3 01 A ... ... : ... .. . ... ...
ROW D1 : ... .. E ... ... ... : ... .. . ... ... ... : F#5 00 . ... : ... .. C ... : ... .. . ... ... : ... .. 9 ... ... : ... .. 9 ... ... : ... .. . ... ...
ROW D2 : ... .. D ... ... ... : ... .. . ... ... ... : B-4 00 . ... : ... .. 6 ... : ... .. . ... ... : ... .. . ... ... : ... .. . ... ... : ... .. . ... ...
ROW D3 : ... .. 0 ... V00 ... : ... .. . ... ... ... : A#4 00 . ... : ... .. 3 ... : ... .. . ... ... : ... .. 8 ... ... : ... .. 8 ... ... : ... .. . ... ...
ROW D4 : ... .. . ... ... ... : ... .. . ... ... ... : F-4 00 . ... : ... .. 2 ... : ... .. . ... ... : --- .. . ... ... : ... .. 7 ... ... : ... .. . ... ...
ROW D5 : G-4 00 F P80 V02 ... : ... .. . ... ... ... : ... .. . ... : ... .. 0 ... : ... .. . ... ... : C-3 01 A ... ... : E-3 01 A ... ... : ... .. . ... ...
ROW D6 : ... .. E ... ... ... : ... .. . ... ... ... : ... .. . ... : ... .. . ... : ... .. . ... ... : ... .. 9 ... ... : ... .. 9 ... ... : ... .. . ... ...
ROW D7 : ... .. D ... ... ... : ... .. . ... ... ... : ... .. . ... : ... .. . ... : ... .. . ... ... : ... .. . ... ... : ... .. . ... ... : ... .. . ... ...
ROW D8 : ... .. 0 ... V00 ... : ... .. . ... ... ... : ... .. . ... : ... .. . ... : ... .. . ... ... : ... .. 8 ... ... : ... .. 8 ... ... : ... .. . ... ...
ROW D9 : ... .. . ... ... ... : ... .. . ... ... ... : ... .. . ... : ... .. . ... : ... .. . ... ... : --- .. . P7E ... : ... .. 7 ... ... : ... .. . ... ...
ROW DA : F-4 00 F P80 V02 ... : ... .. . ... ... ... : ... .. . ... : D-# 00 F ... : ... .. . ... ... : G#2 01 A P80 ... : F-3 01 A ... ... : ... .. . ... ...
ROW DB : ... .. E ... ... ... : ... .. . ... ... ... : ... .. . ... : ... .. C ... : ... .. . ... ... : ... .. 9 ... ... : ... .. 9 ... ... : ... .. . ... ...
ROW DC : ... .. D ... ... ... : ... .. . ... ... ... : ... .. . ... : ... .. 6 ... : ... .. . ... ... : ... .. . ... ... : ... .. . ... ... : ... .. . ... ...
ROW DD : ... .. A ... ... ... : ... .. . ... ... ... : ... .. . ... : ... .. 3 ... : ... .. . ... ... : ... .. 8 ... ... : ... .. 8 ... ... : ... .. . ... ...
ROW DE : ... .. . ... ... ... : ... .. . ... ... ... : ... .. . ... : ... .. 2 ... : ... .. . ... ... : --- .. . ... ... : ... .. 7 ... ... : ... .. . ... ...
ROW DF : ... .. 0 ... V00 ... : ... .. . ... ... ... : --- .. . ... : ... .. F ... : ... .. . ... ... : C-3 01 A ... ... : G#3 01 A ... ... : ... .. . ... ...
ROW E0 : ... .. . ... ... ... : ... .. . ... ... ... : ... .. . ... : ... .. C ... : ... .. . ... ... : ... .. 9 ... ... : ... .. 9 ... ... : ... .. . ... ...
ROW E1 : ... .. . ... ... ... : ... .. . ... ... ... : ... .. . ... : ... .. 6 ... : ... .. . ... ... : ... .. . ... ... : ... .. . ... ... : ... .. . ... ...
ROW E2 : ... .. . ... ... ... : ... .. . ... ... ... : ... .. . ... : ... .. 3 ... : ... .. . ... ... : ... .. 8 ... ... : ... .. 8 ... ... : ... .. . ... ...
ROW E3 : ... .. . ... ... ... : ... .. . ... ... ... : ... .. . ... : ... .. 2 ... : ... .. . ... ... : --- .. . P7E ... : ... .. 7 ... ... : ... .. . ... ...
ROW E4 : G-4 00 F P80 V02 ... : ... .. . ... ... ... : C-3 00 . ... : 6-# 00 F ... : ... .. . ... ... : G-2 01 A P80 ... : G-3 01 A ... ... : ... .. . ... ...
ROW E5 : ... .. E ... ... ... : ... .. . ... ... ... : ... .. . ... : ... .. C ... : ... .. . ... ... : ... .. 9 ... ... : ... .. 9 ... ... : ... .. . ... ...
ROW E6 : ... .. D ... ... ... : ... .. . ... ... ... : ... .. . ... : ... .. 6 ... : ... .. . ... ... : ... .. . ... ... : ... .. . ... ... : ... .. . ... ...
ROW E7 : ... .. 0 ... V00 ... : ... .. . ... ... ... : --- .. . ... : ... .. 3 ... : ... .. . ... ... : ... .. 8 ... ... : ... .. 8 ... ... : ... .. . ... ...
ROW E8 : ... .. . ... ... ... : ... .. . ... ... ... : ... .. . ... : ... .. 2 ... : ... .. . ... ... : --- .. . P81 ... : ... .. 7 ... ... : ... .. . ... ...
ROW E9 : F-4 00 F P80 V02 ... : ... .. . ... ... ... : A#2 00 . ... : ... .. 0 ... : ... .. . ... ... : A#2 01 A P80 ... : F-3 01 A ... ... : ... .. . ... ...
ROW EA : ... .. E ... ... ... : ... .. . ... ... ... : ... .. . ... : ... .. . ... : ... .. . ... ... : ... .. 9 ... ... : ... .. 9 ... ... : ... .. . ... ...
ROW EB : ... .. D ... ... ... : ... .. . ... ... ... : ... .. . ... : ... .. . ... : ... .. . ... ... : ... .. . ... ... : ... .. . ... ... : ... .. . ... ...
ROW EC : ... .. 0 ... V00 ... : ... .. . ... ... ... : --- .. . ... : ... .. . ... : ... .. . ... ... : ... .. 8 ... ... : ... .. 8 ... ... : ... .. . ... ...
ROW ED : ... .. . ... ... ... : ... .. . ... ... ... : ... .. . ... : ... .. . ... : ... .. . ... ... : --- .. . P82 ... : ... .. 7 ... ... : ... .. . ... ...
ROW EE : E-4 00 F P80 V02 ... : ... .. . ... ... ... : G#2 00 . ... : D-# 00 F ... : ... .. . ... ... : E-2 01 A P80 ... : E-3 01 A ... ... : ... .. . ... ...
ROW EF : ... .. E ... ... ... : ... .. . ... ... ... : ... .. . ... : ... .. C ... : ... .. . ... ... : ... .. 9 ... ... : ... .. 9 ... ... : ... .. . ... ...
ROW F0 : ... .. D ... ... ... : ... .. . ... ... ... : ... .. . ... : ... .. 6 ... : ... .. . ... ... : ... .. . ... ... : ... .. . ... ... : ... .. . ... ...
ROW F1 : ... .. A ... ... ... : ... .. . ... ... ... : --- .. . ... : ... .. 3 ... : ... .. . ... ... : ... .. 8 ... ... : ... .. 8 ... ... : ... .. . ... ...
ROW F2 : ... .. . ... ... ... : ... .. . ... ... ... : ... .. . ... : ... .. 2 ... : ... .. . ... ... : --- .. . P83 ... : ... .. 7 ... ... : ... .. . ... ...
ROW F3 : ... .. 0 ... V00 ... : ... .. . ... ... ... : G-2 00 . ... : ... .. F ... : ... .. . ... ... : A#2 01 A P80 ... : G-3 01 A ... ... : ... .. . ... ...
ROW F4 : ... .. . ... ... ... : ... .. . ... ... ... : ... .. . ... : ... .. C ... : ... .. . ... ... : ... .. 9 ... ... : ... .. 9 ... ... : ... .. . ... ...
ROW F5 : ... .. . ... ... ... : ... .. . ... ... ... : ... .. . ... : ... .. 6 ... : ... .. . ... ... : ... .. . ... ... : ... .. . ... ... : ... .. . ... ...
ROW F6 : ... .. . ... ... ... : ... .. . ... ... ... : --- .. . ... : ... .. 3 ... : ... .. . ... ... : ... .. 8 ... ... : ... .. 8 ... ... : ... .. . ... ...
ROW F7 : ... .. . ... ... ... : ... .. . ... ... ... : ... .. . ... : ... .. 2 ... : ... .. . ... ... : --- .. . P82 ... : ... .. 7 ... ... : ... .. . ... ...
ROW F8 : F-4 00 F P80 V02 ... : ... .. . ... ... ... : E-4 00 . ... : 3-# 00 F ... : ... .. . ... ... : G#2 01 A P80 ... : F-3 01 A ... ... : ... .. . ... ...
ROW F9 : ... .. E ... ... ... : ... .. . ... ... ... : F#3 00 . ... : ... .. C ... : ... .. . ... ... : ... .. 9 ... ... : ... .. 9 ... ... : ... .. . ... ...
ROW FA : ... .. D ... ... ... : ... .. . ... ... ... : B-2 00 . ... : ... .. 6 ... : ... .. . ... ... : ... .. . ... ... : ... .. . ... ... : ... .. . ... ...
ROW FB : ... .. A ... ... ... : ... .. . ... ... ... : A#2 00 . ... : ... .. 3 ... : ... .. . ... ... : ... .. 8 ... ... : ... .. 8 ... ... : ... .. . ... ...
ROW FC : ... .. . ... ... ... : ... .. . ... ... ... : F-2 00 . ... : ... .. 2 ... : ... .. . ... ... : ... .. 7 ... ... : ... .. 7 ... ... : ... .. . ... ...
ROW FD : ... .. . ... ... ... : ... .. . ... ... ... : ... .. . ... : ... .. 0 ... : ... .. . ... ... : ... .. . ... ... : ... .. . ... ... : ... .. . ... ...
ROW FE : ... .. . ... ... ... : ... .. . ... ... ... : ... .. . ... : ... .. . ... : ... .. . ... ... : ... .. 6 ... ... : ... .. 6 ... ... : ... .. . ... ...
ROW FF : ... .. . ... ... ... : ... .. . ... ... ... : ... .. . ... : ... .. . ... : ... .. . ... ... : ... .. . ... ... : ... .. . ... ... : ... .. . ... ...

PATTERN 1C
ROW 00 : ... .. 0 ... V00 ... : ... .. . ... ... ... : ... .. . ... : ... .. . ... : ... .. . ... ... : ... .. . ... ... : ... .. . ... ... : ... .. . ... ...
ROW 01 : ... .. . ... ... ... : ... .. . ... ... ... : ... .. . ... : ... .. . ... : ... .. . ... ... : ... .. . ... ... : ... .. . ... ... : ... .. . ... ...
ROW 02 : ... .. . ... ... ... : ... .. . ... ... ... : E-2 00 . P86 : ... .. . ... : ... .. . ... ... : C-2 01 A ... ... : C-1 01 A ... ... : ... .. . ... ...
ROW 03 : ... .. . ... ... ... : ... .. . ... ... ... : D#2 00 . P8E : ... .. . ... : ... .. . ... ... : ... .. 9 ... ... : ... .. 9 ... ... : ... .. . ... ...
ROW 04 : ... .. . ... ... ... : ... .. . ... ... ... : ... .. . P6E : ... .. . ... : ... .. . ... ... : ... .. . ... ... : ... .. . ... ... : ... .. . ... ...
ROW 05 : D-5 00 6 P80 V02 ... : ... .. . ... ... ... : D-2 00 . P79 : ... .. . ... : ... .. . ... ... : ... .. 8 ... ... : ... .. 8 ... ... : ... .. . ... ...
ROW 06 : ... .. 5 ... ... ... : ... .. . ... ... ... : C#2 00 . P86 : ... .. . ... : ... .. . ... ... : ... .. 7 ... ... : ... .. 7 ... ... : ... .. . ... ...
ROW 07 : D#5 00 8 ... ... ... : ... .. . ... ... ... : C-2 00 . P96 : ... .. . ... : ... .. . ... ... : --- .. . P7E ... : --- .. . P7D ... : ... .. . ... ...
ROW 08 : ... .. 7 ... ... ... : ... .. . ... ... ... : ... .. . P76 : ... .. . ... : ... .. . ... ... : ... .. . ... ... : ... .. . ... ... : ... .. . ... ...
ROW 09 : ... .. 6 ... ... ... : ... .. . ... ... ... : B-1 00 . P89 : ... .. . ... : ... .. . ... ... : ... .. . ... ... : ... .. . ... ... : ... .. . ... ...
ROW 0A : E-5 00 A ... ... ... : ... .. . ... ... ... : ... .. . P69 : ... .. . ... : ... .. . ... ... : ... .. . ... ... : ... .. . ... ... : ... .. . ... ...
ROW 0B : ... .. 9 ... ... ... : ... .. . ... ... ... : A#1 00 . P7F : ... .. . ... : ... .. . ... ... : ... .. . ... ... : ... .. . ... ... : ... .. . ... ...
ROW 0C : F-5 00 F ... ... ... : ... .. . ... ... ... : E-3 00 . P80 : 6-# 00 F ... : ... .. . ... ... : F-1 01 A P80 ... : F-0 01 A P81 ... : ... .. . ... ...
ROW 0D : ... .. E ... ... ... : ... .. . ... ... ... : F#2 00 . ... : ... .. C ... : ... .. . ... ... : ... .. 9 ... ... : ... .. 9 ... ... : ... .. . ... ...
ROW 0E : ... .. D ... ... ... : ... .. . ... ... ... : B-1 00 . ... : ... .. 6 ... : ... .. . ... ... : ... .. . ... ... : ... .. . ... ... : ... .. . ... ...
ROW 0F : ... .. A ... ... ... : ... .. . ... ... ... : A#1 00 . ... : ... .. 3 ... : ... .. . ... ... : ... .. 8 ... ... : ... .. 8 ... ... : ... .. . ... ...
ROW 10 : ... .. . ... ... ... : ... .. . ... ... ... : F-1 00 . ... : ... .. 2 ... : ... .. . ... ... : ... .. 7 ... ... : ... .. 7 ... ... : ... .. . ... ...
ROW 11 : ... .. . ... ... ... : ... .. . ... ... ... : ... .. . ... : ... .. 0 ... : ... .. . ... ... : ... .. . ... ... : ... .. . ... ... : ... .. . ... ...
ROW 12 : ... .. . ... ... ... : ... .. . ... ... ... : ... .. . ... : ... .. . ... : ... .. . ... ... : ... .. 6 ... ... : ... .. 6 ... ... : ... .. . ... ...
ROW 13 : ... .. . ... ... ... : ... .. . ... ... ... : ... .. . ... : ... .. . ... : ... .. . ... ... : ... .. . ... ... : ... .. . ... ... : ... .. . ... ...
ROW 14 : ... .. . ... ... ... : ... .. . ... ... ... : ... .. . ... : ... .. . ... : ... .. . ... ... : ... .. . ... ... : ... .. . ... ... : ... .. . ... ...
ROW 15 : ... .. . ... ... ... : ... .. . ... ... ... : ... .. . ... : ... .. . ... : ... .. . ... ... : ... .. . ... ... : ... .. . ... ... : ... .. . ... ...
ROW 16 : ... .. 0 ... V00 ... : ... .. . ... ... ... : --- .. . ... : B-# 00 8 ... : ... .. . ... ... : --- .. . ... ... : --- .. . P80 ... : ... .. . ... ...
ROW 17 : ... .. . ... ... ... : ... .. . ... ... ... : ... .. . ... : ... .. 6 ... : ... .. . ... ... : ... .. . ... ... : ... .. . ... ... : ... .. . ... ...
ROW 18 : ... .. . ... ... ... : ... .. . ... ... ... : ... .. . ... : ... .. 3 ... : ... .. . ... ... : ... .. . ... ... : ... .. . ... ... : ... .. . ... ...
ROW 19 : ... .. . ... ... ... : ... .. . ... ... ... : ... .. . ... : ... .. 1 ... : ... .. . ... ... : ... .. . ... ... : ... .. . ... ... : ... .. . ... ...
ROW 1A : ... .. . ... ... ... : ... .. . ... ... ... : ... .. . ... : ... .. 8 ... : ... .. . ... ... : ... .. . ... ... : ... .. . ... ... : ... .. . ... ...
ROW 1B : ... .. . ... ... ... : ... .. . ... ... ... : ... .. . ... : ... .. 6 ... : ... .. . ... ... : ... .. . ... ... : ... .. . ... ... : ... .. . ... ...
ROW 1C : ... .. . ... ... ... : ... .. . ... ... ... : ... .. . ... : ... .. 3 ... : ... .. . ... ... : ... .. . ... ... : ... .. . ... ... : ... .. . ... ...
ROW 1D : ... .. . ... ... ... : ... .. . ... ... ... : ... .. . ... : ... .. 8 ... : ... .. . ... ... : ... .. . ... ... : ... .. . ... ... : ... .. . ... ...
ROW 1E : ... .. . ... ... ... : ... .. . ... ... ... : ... .. . ... : ... .. 6 ... : ... .. . ... ... : ... .. . ... ... : ... .. . ... ... : ... .. . ... ...
ROW 1F : ... .. . ... ... ... : ... .. . ... ... ... : ... .. . ... : ... .. . ... : ... .. . ... ... : ... .. . ... ... : ... .. . ... ... : ... .. . ... ...
ROW 20 : ... .. . ... ... ... : ... .. . ... ... ... : ... .. . ... : ... .. . ... : ... .. . ... ... : ... .. . ... ... : ... .. . ... ... : ... .. . ... ...
ROW 21 : ... .. . ... ... ... : ... .. . ... ... ... : ... .. . ... : ... .. . ... : ... .. . ... ... : ... .. . ... ... : ... .. . ... ... : ... .. . ... ...
ROW 22 : ... .. . ... ... ... : ... .. . ... ... ... : ... .. . ... : ... .. . ... : ... .. . ... ... : ... .. . ... ... : ... .. . ... ... : ... .. . ... ...
ROW 23 : ... .. . ... ... ... : ... .. . ... ... ... : ... .. . ... : ... .. . ... : ... .. . ... ... : ... .. . ... ... : ... .. . ... ... : ... .. . ... ...
ROW 24 : ... .. . ... ... ... : ... .. . ... ... ... : ... .. . ... : ... .. . ... : ... .. . ... ... : ... .. . ... ... : ... .. . ... ... : ... .. . ... ...
ROW 25 : ... .. . ... ... ... : ... .. . ... ... ... : ... .. . ... : ... .. . ... : ... .. . ... ... : ... .. . ... ... : ... .. . ... ... : ... .. . ... ...
ROW 26 : ... .. . ... ... ... : ... .. . ... ... ... : ... .. . ... : ... .. . ... : ... .. . ... ... : ... .. . ... ... : ... .. . ... ... : ... .. . ... ...
ROW 27 : ... .. . ... ... ... : ... .. . ... ... ... : ... .. . ... : ... .. . ... : ... .. . ... ... : ... .. . ... ... : ... .. . ... ... : ... .. . ... ...
ROW 28 : ... .. . ... ... ... : ... .. . ... ... ... : ... .. . ... : ... .. . ... : ... .. . ... ... : ... .. . ... ... : ... .. . ... ... : ... .. . ... ...
ROW 29 : ... .. . ... ... ... : ... .. . ... ... ... : ... .. . ... : ... .. . ... : ... .. . ... ... : ... .. . ... ... : ... .. . ... ... : ... .. . ... ...
ROW 2A : ... .. . ... ... ... : ... .. . ... ... ... : ... .. . ... : ... .. . ... : ... .. . ... ... : ... .. . ... ... : ... .. . ... ... : ... .. . ... ...
ROW 2B : ... .. . ... ... ... : ... .. . ... ... ... : ... .. . ... : ... .. . ... : ... .. . ... ... : ... .. . ... ... : ... .. . ... ... : ... .. . ... ...
ROW 2C : ... .. . ... ... ... : ... .. . ... ... ... : ... .. . ... : ... .. . ... : ... .. . ... ... : ... .. . ... ... : ... .. . ... ... : ... .. . ... ...
ROW 2D : ... .. . ... ... ... : ... .. . ... ... ... : ... .. . ... : ... .. . ... : ... .. . ... ... : ... .. . ... ... : ... .. . ... ... : ... .. . ... ...
ROW 2E : ... .. . ... ... ... : ... .. . ... ... ... : ... .. . ... : ... .. . ... : ... .. . ... ... : ... .. . ... ... : ... .. . ... ... : ... .. . ... ...
ROW 2F : ... .. . ... ... ... : ... .. . ... ... ... : ... .. . ... : ... .. . ... : ... .. . ... ... : ... .. . ... ... : ... .. . ... ... : ... .. . ... ...
ROW 30 : ... .. . ... ... ... : ... .. . ... ... ... : ... .. . ... : ... .. . ... : ... .. . ... ... : ... .. . ... ... : ... .. . ... ... : ... .. . ... ...
ROW 31 : ... .. . ... ... ... : ... .. . ... ... ... : ... .. . ... : ... .. . ... : ... .. . ... ... : ... .. . ... ... : ... .. . ... ... : ... .. . ... ...
ROW 32 : ... .. . ... ... ... : ... .. . ... ... ... : ... .. . ... : ... .. . ... : ... .. . ... ... : ... .. . ... ... : ... .. . ... ... : ... .. . ... ...
ROW 33 : ... .. . ... ... ... : ... .. . ... ... ... : ... .. . ... : ... .. . ... : ... .. . ... ... : ... .. . ... ... : ... .. . ... ... : ... .. . ... ...
ROW 34 : ... .. . ... ... ... : ... .. . ... ... ... : ... .. . ... : ... .. . ... : ... .. . ... ... : ... .. . ... ... : ... .. . ... ... : ... .. . ... ...
ROW 35 : ... .. . ... ... ... : ... .. . ... ... ... : ... .. . ... : ... .. . ... : ... .. . ... ... : ... .. . ... ... : ... .. . ... ... : ... .. . ... ...
ROW 36 : ... .. . ... ... ... : ... .. . ... ... ... : ... .. . ... : ... .. . ... : ... .. . ... ... : ... .. . ... ... : ... .. . ... ... : ... .. . ... ...
ROW 37 : ... .. . ... ... ... : ... .. . ... ... ... : ... .. . ... : ... .. . ... : ... .. . ... ... : ... .. . ... ... : ... .. . ... ... : ... .. . ... ...
ROW 38 : ... .. . ... ... ... : ... .. . ... ... ... : ... .. . ... : ... .. . ... : ... .. . ... ... : ... .. . ... ... : ... .. . ... ... : ... .. . ... ...
ROW 39 : ... .. . ... ... ... : ... .. . ... ... ... : ... .. . ... : ... .. . ... : ... .. . ... ... : ... .. . ... ... : ... .. . ... ... : ... .. . ... ...
ROW 3A : ... .. . ... ... ... : ... .. . ... ... ... : ... .. . ... : ... .. . ... : ... .. . ... ... : ... .. . ... ... : ... .. . ... ... : ... .. . ... ...
ROW 3B : ... .. . ... ... ... : ... .. . ... ... ... : ... .. . ... : ... .. . ... : ... .. . ... ... : ... .. . ... ... : ... .. . ... ... : ... .. . ... ...
ROW 3C : ... .. . ... ... ... : ... .. . ... ... ... : ... .. . ... : ... .. . ... : ... .. . ... ... : ... .. . ... ... : ... .. . ... ... : ... .. . ... ...
ROW 3D : ... .. . ... ... ... : ... .. . ... ... ... : ... .. . ... : ... .. . ... : ... .. . ... ... : ... .. . ... ... : ... .. . ... ... : ... .. . ... ...
ROW 3E : ... .. . ... ... ... : ... .. . ... ... ... : ... .. . ... : ... .. . ... : ... .. . ... ... : ... .. . ... ... : ... .. . ... ... : ... .. . ... ...
ROW 3F : ... .. . ... ... ... : ... .. . ... ... ... : ... .. . ... : ... .. . ... : ... .. . ... ... : ... .. . ... ... : ... .. . ... ... : ... .. . ... ...
ROW 40 : ... .. . ... ... ... : ... .. . ... ... ... : ... .. . ... : ... .. . ... : ... .. . ... ... : ... .. . ... ... : ... .. . ... ... : ... .. . ... ...
ROW 41 : ... .. . ... ... ... : ... .. . ... ... ... : ... .. . ... : ... .. . ... : ... .. . ... ... : ... .. . ... ... : ... .. . ... ... : ... .. . ... ...
ROW 42 : ... .. . ... ... ... : ... .. . ... ... ... : ... .. . ... : ... .. . ... : ... .. . ... ... : ... .. . ... ... : ... .. . ... ... : ... .. . ... ...
ROW 43 : ... .. . ... ... ... : ... .. . ... ... ... : ... .. . ... : ... .. . ... : ... .. . ... ... : ... .. . ... ... : ... .. . ... ... : ... .. . ... ...
ROW 44 : ... .. . ... ... ... : ... .. . ... ... ... : ... .. . ... : ... .. . ... : ... .. . ... ... : ... .. . ... ... : ... .. . ... ... : ... .. . ... ...
ROW 45 : ... .. . ... ... ... : ... .. . ... ... ... : ... .. . ... : ... .. . ... : ... .. . ... ... : ... .. . ... ... : ... .. . ... ... : ... .. . ... ...
ROW 46 : ... .. . ... ... ... : ... .. . ... ... ... : ... .. . ... : ... .. . ... : ... .. . ... ... : ... .. . ... ... : ... .. . ... ... : ... .. . ... ...
ROW 47 : ... .. . ... ... ... : ... .. . ... ... ... : ... .. . ... : ... .. . ... : ... .. . ... ... : ... .. . ... ... : ... .. . ... ... : ... .. . ... ...
ROW 48 : ... .. . ... ... ... : ... .. . ... ... ... : ... .. . ... : ... .. . ... : ... .. . ... ... : ... .. . ... ... : ... .. . ... ... : ... .. . ... ...
ROW 49 : ... .. . ... ... ... : ... .. . ... ... ... : ... .. . ... : ... .. . ... : ... .. . ... ... : ... .. . ... ... : ... .. . ... ... : ... .. . ... ...
ROW 4A : ... .. . ... ... ... : ... .. . ... ... ... : ... .. . ... : ... .. . ... : ... .. . ... ... : ... .. . ... ... : ... .. . ... ... : ... .. . ... ...
ROW 4B : ... .. . ... ... ... : ... .. . ... ... ... : ... .. . ... : ... .. . ... : ... .. . ... ... : ... .. . ... ... : ... .. . ... ... : ... .. . ... ...
ROW 4C : ... .. . ... ... ... : ... .. . ... ... ... : ... .. . ... : ... .. . ... : ... .. . ... ... : ... .. . ... ... : ... .. . ... ... : ... .. . ... ...
ROW 4D : ... .. . ... ... ... : ... .. . ... ... ... : ... .. . ... : ... .. . ... : ... .. . ... ... : ... .. . ... ... : ... .. . ... ... : ... .. . ... ...
ROW 4E : ... .. . ... ... ... : ... .. . ... ... ... : ... .. . ... : ... .. . ... : ... .. . ... ... : ... .. . ... ... : ... .. . ... ... : ... .. . ... ...
ROW 4F : ... .. . ... ... ... : ... .. . ... ... ... : ... .. . ... : ... .. . ... : ... .. . ... ... : ... .. . ... ... : ... .. . ... ... : ... .. . ... ...
ROW 50 : ... .. . ... ... ... : ... .. . ... ... ... : ... .. . ... : ... .. . ... : ... .. . ... ... : ... .. . ... ... : ... .. . ... ... : ... .. . ... ...
ROW 51 : ... .. . ... ... ... : ... .. . ... ... ... : ... .. . ... : ... .. . ... : ... .. . ... ... : ... .. . ... ... : ... .. . ... ... : ... .. . ... ...
ROW 52 : ... .. . ... ... ... : ... .. . ... ... ... : ... .. . ... : ... .. . ... : ... .. . ... ... : ... .. . ... ... : ... .. . ... ... : ... .. . ... ...
ROW 53 : ... .. . ... ... ... : ... .. . ... ... ... : ... .. . ... : ... .. . ... : ... .. . ... ... : ... .. . ... ... : ... .. . ... ... : ... .. . ... ...
ROW 54 : ... .. . ... ... ... : ... .. . ... ... ... : ... .. . ... : ... .. . ... : ... .. . ... ... : ... .. . ... ... : ... .. . ... ... : ... .. . ... ...
ROW 55 : ... .. . ... ... ... : ... .. . ... ... ... : ... .. . ... : ... .. . ... : ... .. . ... ... : ... .. . ... ... : ... .. . ... ... : ... .. . ... ...
ROW 56 : ... .. . ... ... ... : ... .. . ... ... ... : ... .. . ... : ... .. . ... : ... .. . ... ... : ... .. . ... ... : ... .. . ... ... : ... .. . ... ...
ROW 57 : ... .. . ... ... ... : ... .. . ... ... ... : ... .. . ... : ... .. . ... : ... .. . ... ... : ... .. . ... ... : ... .. . ... ... : ... .. . ... ...
ROW 58 : ... .. . ... ... ... : ... .. . ... ... ... : ... .. . ... : ... .. . ... : ... .. . ... ... : ... .. . ... ... : ... .. . ... ... : ... .. . ... ...
ROW 59 : ... .. . ... ... ... : ... .. . ... ... ... : ... .. . ... : ... .. . ... : ... .. . ... ... : ... .. . ... ... : ... .. . ... ... : ... .. . ... ...
ROW 5A : ... .. . ... ... ... : ... .. . ... ... ... : ... .. . ... : ... .. . ... : ... .. . ... ... : ... .. . ... ... : ... .. . ... ... : ... .. . ... ...
ROW 5B : ... .. . ... ... ... : ... .. . ... ... ... : ... .. . ... : ... .. . ... : ... .. . ... ... : ... .. . ... ... : ... .. . ... ... : ... .. . ... ...
ROW 5C : ... .. . ... ... ... : ... .. . ... ... ... : ... .. . ... : ... .. . ... : ... .. . ... ... : ... .. . ... ... : ... .. . ... ... : ... .. . ... ...
ROW 5D : ... .. . ... ... ... : ... .. . ... ... ... : ... .. . ... : ... .. . ... : ... .. . ... ... : ... .. . ... ... : ... .. . ... ... : ... .. . ... ...
ROW 5E : ... .. . ... ... ... : ... .. . ... ... ... : ... .. . ... : ... .. . ... : ... .. . ... ... : ... .. . ... ... : ... .. . ... ... : ... .. . ... ...
ROW 5F : ... .. . ... ... ... : ... .. . ... ... ... : ... .. . ... : ... .. . ... : ... .. . ... ... : ... .. . ... ... : ... .. . ... ... : ... .. . ... ...
ROW 60 : ... .. . ... ... ... : ... .. . ... ... ... : ... .. . ... : ... .. . ... : ... .. . ... ... : ... .. . ... ... : ... .. . ... ... : ... .. . ... ...
ROW 61 : ... .. . ... ... ... : ... .. . ... ... ... : ... .. . ... : ... .. . ... : ... .. . ... ... : ... .. . ... ... : ... .. . ... ... : ... .. . ... ...
ROW 62 : ... .. . ... ... ... : ... .. . ... ... ... : ... .. . ... : ... .. . ... : ... .. . ... ... : ... .. . ... ... : ... .. . ... ... : ... .. . ... ...
ROW 63 : ... .. . ... ... ... : ... .. . ... ... ... : ... .. . ... : ... .. . ... : ... .. . ... ... : ... .. . ... ... : ... .. . ... ... : ... .. . ... ...
ROW 64 : ... .. . ... ... ... : ... .. . ... ... ... : ... .. . ... : ... .. . ... : ... .. . ... ... : ... .. . ... ... : ... .. . ... ... : ... .. . ... ...
ROW 65 : ... .. . ... ... ... : ... .. . ... ... ... : ... .. . ... : ... .. . ... : ... .. . ... ... : ... .. . ... ... : ... .. . ... ... : ... .. . ... ...
ROW 66 : ... .. . ... ... ... : ... .. . ... ... ... : ... .. . ... : ... .. . ... : ... .. . ... ... : ... .. . ... ... : ... .. . ... ... : ... .. . ... ...
ROW 67 : ... .. . ... ... ... : ... .. . ... ... ... : ... .. . ... : ... .. . ... : ... .. . ... ... : ... .. . ... ... : ... .. . ... ... : ... .. . ... ...
ROW 68 : ... .. . ... ... ... : ... .. . ... ... ... : ... .. . ... : ... .. . ... : ... .. . ... ... : ... .. . ... ... : ... .. . ... ... : ... .. . ... ...
ROW 69 : ... .. . ... ... ... : ... .. . ... ... ... : ... .. . ... : ... .. . ... : ... .. . ... ... : ... .. . ... ... : ... .. . ... ... : ... .. . ... ...
ROW 6A : ... .. . ... ... ... : ... .. . ... ... ... : ... .. . ... : ... .. . ... : ... .. . ... ... : ... .. . ... ... : ... .. . ... ... : ... .. . ... ...
ROW 6B : ... .. . ... ... ... : ... .. . ... ... ... : ... .. . ... : ... .. . ... : ... .. . ... ... : ... .. . ... ... : ... .. . ... ... : ... .. . ... ...
ROW 6C : ... .. . ... ... ... : ... .. . ... ... ... : ... .. . ... : ... .. . ... : ... .. . ... ... : ... .. . ... ... : ... .. . ... ... : ... .. . ... ...
ROW 6D : ... .. . ... ... ... : ... .. . ... ... ... : ... .. . ... : ... .. . ... : ... .. . ... ... : ... .. . ... ... : ... .. . ... ... : ... .. . ... ...
ROW 6E : ... .. . ... ... ... : ... .. . ... ... ... : ... .. . ... : ... .. . ... : ... .. . ... ... : ... .. . ... ... : ... .. . ... ... : ... .. . ... ...
ROW 6F : ... .. . ... ... ... : ... .. . ... ... ... : ... .. . ... : ... .. . ... : ... .. . ... ... : ... .. . ... ... : ... .. . ... ... : ... .. . ... ...
ROW 70 : ... .. . ... ... ... : ... .. . ... ... ... : ... .. . ... : ... .. . ... : ... .. . ... ... : ... .. . ... ... : ... .. . ... ... : ... .. . ... ...
ROW 71 : ... .. . ... ... ... : ... .. . ... ... ... : ... .. . ... : ... .. . ... : ... .. . ... ... : ... .. . ... ... : ... .. . ... ... : ... .. . ... ...
ROW 72 : ... .. . ... ... ... : ... .. . ... ... ... : ... .. . ... : ... .. . ... : ... .. . ... ... : ... .. . ... ... : ... .. . ... ... : ... .. . ... ...
ROW 73 : ... .. . ... ... ... : ... .. . ... ... ... : ... .. . ... : ... .. . ... : ... .. . ... ... : ... .. . ... ... : ... .. . ... ... : ... .. . ... ...
ROW 74 : ... .. . ... ... ... : ... .. . ... ... ... : ... .. . ... : ... .. . ... : ... .. . ... ... : ... .. . ... ... : ... .. . ... ... : ... .. . ... ...
ROW 75 : ... .. . ... ... ... : ... .. . ... ... ... : ... .. . ... : ... .. . ... : ... .. . ... ... : ... .. . ... ... : ... .. . ... ... : ... .. . ... ...
ROW 76 : ... .. . ... ... ... : ... .. . ... ... ... : ... .. . ... : ... .. . ... : ... .. . ... ... : ... .. . ... ... : ... .. . ... ... : ... .. . ... ...
ROW 77 : ... .. . ... ... ... : ... .. . ... ... ... : ... .. . ... : ... .. . ... : ... .. . ... ... : ... .. . ... ... : ... .. . ... ... : ... .. . ... ...
ROW 78 : ... .. . ... ... ... : ... .. . ... ... ... : ... .. . ... : ... .. . ... : ... .. . ... ... : ... .. . ... ... : ... .. . ... ... : ... .. . ... ...
ROW 79 : ... .. . ... ... ... : ... .. . ... ... ... : ... .. . ... : ... .. . ... : ... .. . ... ... : ... .. . ... ... : ... .. . ... ... : ... .. . ... ...
ROW 7A : ... .. . ... ... ... : ... .. . ... ... ... : ... .. . ... : ... .. . ... : ... .. . ... ... : ... .. . ... ... : ... .. . ... ... : ... .. . ... ...
ROW 7B : ... .. . ... ... ... : ... .. . ... ... ... : ... .. . ... : ... .. . ... : ... .. . ... ... : ... .. . ... ... : ... .. . ... ... : ... .. . ... ...
ROW 7C : ... .. . ... ... ... : ... .. . ... ... ... : ... .. . ... : ... .. . ... : ... .. . ... ... : ... .. . ... ... : ... .. . ... ... : ... .. . ... ...
ROW 7D : ... .. . ... ... ... : ... .. . ... ... ... : ... .. . ... : ... .. . ... : ... .. . ... ... : ... .. . ... ... : ... .. . ... ... : ... .. . ... ...
ROW 7E : ... .. . ... ... ... : ... .. . ... ... ... : ... .. . ... : ... .. . ... : ... .. . ... ... : ... .. . ... ... : ... .. . ... ... : ... .. . ... ...
ROW 7F : ... .. . ... ... ... : ... .. . ... ... ... : ... .. . ... : ... .. . ... : ... .. . ... ... : ... .. . ... ... : ... .. . ... ... : ... .. . ... ...
ROW 80 : ... .. . ... ... ... : ... .. . ... ... ... : ... .. . ... : ... .. . ... : ... .. . ... ... : ... .. . ... ... : ... .. . ... ... : ... .. . ... ...
ROW 81 : ... .. . ... ... ... : ... .. . ... ... ... : ... .. . ... : ... .. . ... : ... .. . ... ... : ... .. . ... ... : ... .. . ... ... : ... .. . ... ...
ROW 82 : ... .. . ... ... ... : ... .. . ... ... ... : ... .. . ... : ... .. . ... : ... .. . ... ... : ... .. . ... ... : ... .. . ... ... : ... .. . ... ...
ROW 83 : ... .. . ... ... ... : ... .. . ... ... ... : ... .. . ... : ... .. . ... : ... .. . ... ... : ... .. . ... ... : ... .. . ... ... : ... .. . ... ...
ROW 84 : ... .. . ... ... ... : ... .. . ... ... ... : ... .. . ... : ... .. . ... : ... .. . ... ... : ... .. . ... ... : ... .. . ... ... : ... .. . ... ...
ROW 85 : ... .. . ... ... ... : ... .. . ... ... ... : ... .. . ... : ... .. . ... : ... .. . ... ... : ... .. . ... ... : ... .. . ... ... : ... .. . ... ...
ROW 86 : ... .. . ... ... ... : ... .. . ... ... ... : ... .. . ... : ... .. . ... : ... .. . ... ... : ... .. . ... ... : ... .. . ... ... : ... .. . ... ...
ROW 87 : ... .. . ... ... ... : ... .. . ... ... ... : ... .. . ... : ... .. . ... : ... .. . ... ... : ... .. . ... ... : ... .. . ... ... : ... .. . ... ...
ROW 88 : ... .. . ... ... ... : ... .. . ... ... ... : ... .. . ... : ... .. . ... : ... .. . ... ... : ... .. . ... ... : ... .. . ... ... : ... .. . ... ...
ROW 89 : ... .. . ... ... ... : ... .. . ... ... ... : ... .. . ... : ... .. . ... : ... .. . ... ... : ... .. . ... ... : ... .. . ... ... : ... .. . ... ...
ROW 8A : ... .. . ... ... ... : ... .. . ... ... ... : ... .. . ... : ... .. . ... : ... .. . ... ... : ... .. . ... ... : ... .. . ... ... : ... .. . ... ...
ROW 8B : ... .. . ... ... ... : ... .. . ... ... ... : ... .. . ... : ... .. . ... : ... .. . ... ... : ... .. . ... ... : ... .. . ... ... : ... .. . ... ...
ROW 8C : ... .. . ... ... ... : ... .. . ... ... ... : ... .. . ... : ... .. . ... : ... .. . ... ... : ... .. . ... ... : ... .. . ... ... : ... .. . ... ...
ROW 8D : ... .. . ... ... ... : ... .. . ... ... ... : ... .. . ... : ... .. . ... : ... .. . ... ... : ... .. . ... ... : ... .. . ... ... : ... .. . ... ...
ROW 8E : ... .. . ... ... ... : ... .. . ... ... ... : ... .. . ... : ... .. . ... : ... .. . ... ... : ... .. . ... ... : ... .. . ... ... : ... .. . ... ...
ROW 8F : ... .. . ... ... ... : ... .. . ... ... ... : ... .. . ... : ... .. . ... : ... .. . ... ... : ... .. . ... ... : ... .. . ... ... : ... .. . ... ...
ROW 90 : ... .. . ... ... ... : ... .. . ... ... ... : ... .. . ... : ... .. . ... : ... .. . ... ... : ... .. . ... ... : ... .. . ... ... : ... .. . ... ...
ROW 91 : ... .. . ... ... ... : ... .. . ... ... ... : ... .. . ... : ... .. . ... : ... .. . ... ... : ... .. . ... ... : ... .. . ... ... : ... .. . ... ...
ROW 92 : ... .. . ... ... ... : ... .. . ... ... ... : ... .. . ... : ... .. . ... : ... .. . ... ... : ... .. . ... ... : ... .. . ... ... : ... .. . ... ...
ROW 93 : ... .. . ... ... ... : ... .. . ... ... ... : ... .. . ... : ... .. . ... : ... .. . ... ... : ... .. . ... ... : ... .. . ... ... : ... .. . ... ...
ROW 94 : ... .. . ... ... ... : ... .. . ... ... ... : ... .. . ... : ... .. . ... : ... .. . ... ... : ... .. . ... ... : ... .. . ... ... : ... .. . ... ...
ROW 95 : ... .. . ... ... ... : ... .. . ... ... ... : ... .. . ... : ... .. . ... : ... .. . ... ... : ... .. . ... ... : ... .. . ... ... : ... .. . ... ...
ROW 96 : ... .. . ... ... ... : ... .. . ... ... ... : ... .. . ... : ... .. . ... : ... .. . ... ... : ... .. . ... ... : ... .. . ... ... : ... .. . ... ...
ROW 97 : ... .. . ... ... ... : ... .. . ... ... ... : ... .. . ... : ... .. . ... : ... .. . ... ... : ... .. . ... ... : ... .. . ... ... : ... .. . ... ...
ROW 98 : ... .. . ... ... ... : ... .. . ... ... ... : ... .. . ... : ... .. . ... : ... .. . ... ... : ... .. . ... ... : ... .. . ... ... : ... .. . ... ...
ROW 99 : ... .. . ... ... ... : ... .. . ... ... ... : ... .. . ... : ... .. . ... : ... .. . ... ... : ... .. . ... ... : ... .. . ... ... : ... .. . ... ...
ROW 9A : ... .. . ... ... ... : ... .. . ... ... ... : ... .. . ... : ... .. . ... : ... .. . ... ... : ... .. . ... ... : ... .. . ... ... : ... .. . ... ...
ROW 9B : ... .. . ... ... ... : ... .. . ... ... ... : ... .. . ... : ... .. . ... : ... .. . ... ... : ... .. . ... ... : ... .. . ... ... : ... .. . ... ...
ROW 9C : ... .. . ... ... ... : ... .. . ... ... ... : ... .. . ... : ... .. . ... : ... .. . ... ... : ... .. . ... ... : ... .. . ... ... : ... .. . ... ...
ROW 9D : ... .. . ... ... ... : ... .. . ... ... ... : ... .. . ... : ... .. . ... : ... .. . ... ... : ... .. . ... ... : ... .. . ... ... : ... .. . ... ...
ROW 9E : ... .. . ... ... ... : ... .. . ... ... ... : ... .. . ... : ... .. . ... : ... .. . ... ... : ... .. . ... ... : ... .. . ... ... : ... .. . ... ...
ROW 9F : ... .. . ... ... ... : ... .. . ... ... ... : ... .. . ... : ... .. . ... : ... .. . ... ... : ... .. . ... ... : ... .. . ... ... : ... .. . ... ...
ROW A0 : ... .. . ... ... ... : ... .. . ... ... ... : ... .. . ... : ... .. . ... : ... .. . ... ... : ... .. . ... ... : ... .. . ... ... : ... .. . ... ...
ROW A1 : ... .. . ... ... ... : ... .. . ... ... ... : ... .. . ... : ... .. . ... : ... .. . ... ... : ... .. . ... ... : ... .. . ... ... : ... .. . ... ...
ROW A2 : ... .. . ... ... ... : ... .. . ... ... ... : ... .. . ... : ... .. . ... : ... .. . ... ... : ... .. . ... ... : ... .. . ... ... : ... .. . ... ...
ROW A3 : ... .. . ... ... ... : ... .. . ... ... ... : ... .. . ... : ... .. . ... : ... .. . ... ... : ... .. . ... ... : ... .. . ... ... : ... .. . ... ...
ROW A4 : ... .. . ... ... ... : ... .. . ... ... ... : ... .. . ... : ... .. . ... : ... .. . ... ... : ... .. . ... ... : ... .. . ... ... : ... .. . ... ...
ROW A5 : ... .. . ... ... ... : ... .. . ... ... ... : ... .. . ... : ... .. . ... : ... .. . ... ... : ... .. . ... ... : ... .. . ... ... : ... .. . ... ...
ROW A6 : ... .. . ... ... ... : ... .. . ... ... ... : ... .. . ... : ... .. . ... : ... .. . ... ... : ... .. . ... ... : ... .. . ... ... : ... .. . ... ...
ROW A7 : ... .. . ... ... ... : ... .. . ... ... ... : ... .. . ... : ... .. . ... : ... .. . ... ... : ... .. . ... ... : ... .. . ... ... : ... .. . ... ...
ROW A8 : ... .. . ... ... ... : ... .. . ... ... ... : ... .. . ... : ... .. . ... : ... .. . ... ... : ... .. . ... ... : ... .. . ... ... : ... .. . ... ...
ROW A9 : ... .. . ... ... ... : ... .. . ... ... ... : ... .. . ... : ... .. . ... : ... .. . ... ... : ... .. . ... ... : ... .. . ... ... : ... .. . ... ...
ROW AA : ... .. . ... ... ... : ... .. . ... ... ... : ... .. . ... : ... .. . ... : ... .. . ... ... : ... .. . ... ... : ... .. . ... ... : ... .. . ... ...
ROW AB : ... .. . ... ... ... : ... .. . ... ... ... : ... .. . ... : ... .. . ... : ... .. . ... ... : ... .. . ... ... : ... .. . ... ... : ... .. . ... ...
ROW AC : ... .. . ... ... ... : ... .. . ... ... ... : ... .. . ... : ... .. . ... : ... .. . ... ... : ... .. . ... ... : ... .. . ... ... : ... .. . ... ...
ROW AD : ... .. . ... ... ... : ... .. . ... ... ... : ... .. . ... : ... .. . ... : ... .. . ... ... : ... .. . ... ... : ... .. . ... ... : ... .. . ... ...
ROW AE : ... .. . ... ... ... : ... .. . ... ... ... : ... .. . ... : ... .. . ... : ... .. . ... ... : ... .. . ... ... : ... .. . ... ... : ... .. . ... ...
ROW AF : ... .. . ... ... ... : ... .. . ... ... ... : ... .. . ... : ... .. . ... : ... .. . ... ... : ... .. . ... ... : ... .. . ... ... : ... .. . ... ...
ROW B0 : ... .. . ... ... ... : ... .. . ... ... ... : ... .. . ... : ... .. . ... : ... .. . ... ... : ... .. . ... ... : ... .. . ... ... : ... .. . ... ...
ROW B1 : ... .. . ... ... ... : ... .. . ... ... ... : ... .. . ... : ... .. . ... : ... .. . ... ... : ... .. . ... ... : ... .. . ... ... : ... .. . ... ...
ROW B2 : ... .. . ... ... ... : ... .. . ... ... ... : ... .. . ... : ... .. . ... : ... .. . ... ... : ... .. . ... ... : ... .. . ... ... : ... .. . ... ...
ROW B3 : ... .. . ... ... ... : ... .. . ... ... ... : ... .. . ... : ... .. . ... : ... .. . ... ... : ... .. . ... ... : ... .. . ... ... : ... .. . ... ...
ROW B4 : ... .. . ... ... ... : ... .. . ... ... ... : ... .. . ... : ... .. . ... : ... .. . ... ... : ... .. . ... ... : ... .. . ... ... : ... .. . ... ...
ROW B5 : ... .. . ... ... ... : ... .. . ... ... ... : ... .. . ... : ... .. . ... : ... .. . ... ... : ... .. . ... ... : ... .. . ... ... : ... .. . ... ...
ROW B6 : ... .. . ... ... ... : ... .. . ... ... ... : ... .. . ... : ... .. . ... : ... .. . ... ... : ... .. . ... ... : ... .. . ... ... : ... .. . ... ...
ROW B7 : ... .. . ... ... ... : ... .. . ... ... ... : ... .. . ... : ... .. . ... : ... .. . ... ... : ... .. . ... ... : ... .. . ... ... : ... .. . ... ...
ROW B8 : ... .. . ... ... ... : ... .. . ... ... ... : ... .. . ... : ... .. . ... : ... .. . ... ... : ... .. . ... ... : ... .. . ... ... : ... .. . ... ...
ROW B9 : ... .. . ... ... ... : ... .. . ... ... ... : ... .. . ... : ... .. . ... : ... .. . ... ... : ... .. . ... ... : ... .. . ... ... : ... .. . ... ...
ROW BA : ... .. . ... ... ... : ... .. . ... ... ... : ... .. . ... : ... .. . ... : ... .. . ... ... : ... .. . ... ... : ... .. . ... ... : ... .. . ... ...
ROW BB : ... .. . ... ... ... : ... .. . ... ... ... : ... .. . ... : ... .. . ... : ... .. . ... ... : ... .. . ... ... : ... .. . ... ... : ... .. . ... ...
ROW BC : ... .. . ... ... ... : ... .. . ... ... ... : ... .. . ... : ... .. . ... : ... .. . ... ... : ... .. . ... ... : ... .. . ... ... : ... .. . ... ...
ROW BD : ... .. . ... ... ... : ... .. . ... ... ... : ... .. . ... : ... .. . ... : ... .. . ... ... : ... .. . ... ... : ... .. . ... ... : ... .. . ... ...
ROW BE : ... .. . ... ... ... : ... .. . ... ... ... : ... .. . ... : ... .. . ... : ... .. . ... ... : ... .. . ... ... : ... .. . ... ... : ... .. . ... ...
ROW BF : ... .. . ... ... ... : ... .. . ... ... ... : ... .. . ... : ... .. . ... : ... .. . ... ... : ... .. . ... ... : ... .. . ... ... : ... .. . ... ...
ROW C0 : ... .. . ... ... ... : ... .. . ... ... ... : ... .. . ... : ... .. . ... : ... .. . ... ... : ... .. . ... ... : ... .. . ... ... : ... .. . ... ...
ROW C1 : ... .. . ... ... ... : ... .. . ... ... ... : ... .. . ... : ... .. . ... : ... .. . ... ... : ... .. . ... ... : ... .. . ... ... : ... .. . ... ...
ROW C2 : ... .. . ... ... ... : ... .. . ... ... ... : ... .. . ... : ... .. . ... : ... .. . ... ... : ... .. . ... ... : ... .. . ... ... : ... .. . ... ...
ROW C3 : ... .. . ... ... ... : ... .. . ... ... ... : ... .. . ... : ... .. . ... : ... .. . ... ... : ... .. . ... ... : ... .. . ... ... : ... .. . ... ...
ROW C4 : ... .. . ... ... ... : ... .. . ... ... ... : ... .. . ... : ... .. . ... : ... .. . ... ... : ... .. . ... ... : ... .. . ... ... : ... .. . ... ...
ROW C5 : ... .. . ... ... ... : ... .. . ... ... ... : ... .. . ... : ... .. . ... : ... .. . ... ... : ... .. . ... ... : ... .. . ... ... : ... .. . ... ...
ROW C6 : ... .. . ... ... ... : ... .. . ... ... ... : ... .. . ... : ... .. . ... : ... .. . ... ... : ... .. . ... ... : ... .. . ... ... : ... .. . ... ...
ROW C7 : ... .. . ... ... ... : ... .. . ... ... ... : ... .. . ... : ... .. . ... : ... .. . ... ... : ... .. . ... ... : ... .. . ... ... : ... .. . ... ...
ROW C8 : ... .. . ... ... ... : ... .. . ... ... ... : ... .. . ... : ... .. . ... : ... .. . ... ... : ... .. . ... ... : ... .. . ... ... : ... .. . ... ...
ROW C9 : ... .. . ... ... ... : ... .. . ... ... ... : ... .. . ... : ... .. . ... : ... .. . ... ... : ... .. . ... ... : ... .. . ... ... : ... .. . ... ...
ROW CA : ... .. . ... ... ... : ... .. . ... ... ... : ... .. . ... : ... .. . ... : ... .. . ... ... : ... .. . ... ... : ... .. . ... ... : ... .. . ... ...
ROW CB : ... .. . ... ... ... : ... .. . ... ... ... : ... .. . ... : ... .. . ... : ... .. . ... ... : ... .. . ... ... : ... .. . ... ... : ... .. . ... ...
ROW CC : ... .. . ... ... ... : ... .. . ... ... ... : ... .. . ... : ... .. . ... : ... .. . ... ... : ... .. . ... ... : ... .. . ... ... : ... .. . ... ...
ROW CD : ... .. . ... ... ... : ... .. . ... ... ... : ... .. . ... : ... .. . ... : ... .. . ... ... : ... .. . ... ... : ... .. . ... ... : ... .. . ... ...
ROW CE : ... .. . ... ... ... : ... .. . ... ... ... : ... .. . ... : ... .. . ... : ... .. . ... ... : ... .. . ... ... : ... .. . ... ... : ... .. . ... ...
ROW CF : ... .. . ... ... ... : ... .. . ... ... ... : ... .. . ... : ... .. . ... : ... .. . ... ... : ... .. . ... ... : ... .. . ... ... : ... .. . ... ...
ROW D0 : ... .. . ... ... ... : ... .. . ... ... ... : ... .. . ... : ... .. . ... : ... .. . ... ... : ... .. . ... ... : ... .. . ... ... : ... .. . ... ...
ROW D1 : ... .. . ... ... ... : ... .. . ... ... ... : ... .. . ... : ... .. . ... : ... .. . ... ... : ... .. . ... ... : ... .. . ... ... : ... .. . ... ...
ROW D2 : ... .. . ... ... ... : ... .. . ... ... ... : ... .. . ... : ... .. . ... : ... .. . ... ... : ... .. . ... ... : ... .. . ... ... : ... .. . ... ...
ROW D3 : ... .. . ... ... ... : ... .. . ... ... ... : ... .. . ... : ... .. . ... : ... .. . ... ... : ... .. . ... ... : ... .. . ... ... : ... .. . ... ...
ROW D4 : ... .. . ... ... ... : ... .. . ... ... ... : ... .. . ... : ... .. . ... : ... .. . ... ... : ... .. . ... ... : ... .. . ... ... : ... .. . ... ...
ROW D5 : ... .. . ... ... ... : ... .. . ... ... ... : ... .. . ... : ... .. . ... : ... .. . ... ... : ... .. . ... ... : ... .. . ... ... : ... .. . ... ...
ROW D6 : ... .. . ... ... ... : ... .. . ... ... ... : ... .. . ... : ... .. . ... : ... .. . ... ... : ... .. . ... ... : ... .. . ... ... : ... .. . ... ...
ROW D7 : ... .. . ... ... ... : ... .. . ... ... ... : ... .. . ... : ... .. . ... : ... .. . ... ... : ... .. . ... ... : ... .. . ... ... : ... .. . ... ...
ROW D8 : ... .. . ... ... ... : ... .. . ... ... ... : ... .. . ... : ... .. . ... : ... .. . ... ... : ... .. . ... ... : ... .. . ... ... : ... .. . ... ...
ROW D9 : ... .. . ... ... ... : ... .. . ... ... ... : ... .. . ... : ... .. . ... : ... .. . ... ... : ... .. . ... ... : ... .. . ... ... : ... .. . ... ...
ROW DA : ... .. . ... ... ... : ... .. . ... ... ... : ... .. . ... : ... .. . ... : ... .. . ... ... : ... .. . ... ... : ... .. . ... ... : ... .. . ... ...
ROW DB : ... .. . ... ... ... : ... .. . ... ... ... : ... .. . ... : ... .. . ... : ... .. . ... ... : ... .. . ... ... : ... .. . ... ... : ... .. . ... ...
ROW DC : ... .. . ... ... ... : ... .. . ... ... ... : ... .. . ... : ... .. . ... : ... .. . ... ... : ... .. . ... ... : ... .. . ... ... : ... .. . ... ...
ROW DD : ... .. . ... ... ... : ... .. . ... ... ... : ... .. . ... : ... .. . ... : ... .. . ... ... : ... .. . ... ... : ... .. . ... ... : ... .. . ... ...
ROW DE : ... .. . ... ... ... : ... .. . ... ... ... : ... .. . ... : ... .. . ... : ... .. . ... ... : ... .. . ... ... : ... .. . ... ... : ... .. . ... ...
ROW DF : ... .. . ... ... ... : ... .. . ... ... ... : ... .. . ... : ... .. . ... : ... .. . ... ... : ... .. . ... ... : ... .. . ... ... : ... .. . ... ...
ROW E0 : ... .. . ... ... ... : ... .. . ... ... ... : ... .. . ... : ... .. . ... : ... .. . ... ... : ... .. . ... ... : ... .. . ... ... : ... .. . ... ...
ROW E1 : ... .. . ... ... ... : ... .. . ... ... ... : ... .. . ... : ... .. . ... : ... .. . ... ... : ... .. . ... ... : ... .. . ... ... : ... .. . ... ...
ROW E2 : ... .. . ... ... ... : ... .. . ... ... ... : ... .. . ... : ... .. . ... : ... .. . ... ... : ... .. . ... ... : ... .. . ... ... : ... .. . ... ...
ROW E3 : ... .. . ... ... ... : ... .. . ... ... ... : ... .. . ... : ... .. . ... : ... .. . ... ... : ... .. . ... ... : ... .. . ... ... : ... .. . ... ...
ROW E4 : ... .. . ... ... ... : ... .. . ... ... ... : ... .. . ... : ... .. . ... : ... .. . ... ... : ... .. . ... ... : ... .. . ... ... : ... .. . ... ...
ROW E5 : ... .. . ... ... ... : ... .. . ... ... ... : ... .. . ... : ... .. . ... : ... .. . ... ... : ... .. . ... ... : ... .. . ... ... : ... .. . ... ...
ROW E6 : ... .. . ... ... ... : ... .. . ... ... ... : ... .. . ... : ... .. . ... : ... .. . ... ... : ... .. . ... ... : ... .. . ... ... : ... .. . ... ...
ROW E7 : ... .. . ... ... ... : ... .. . ... ... ... : ... .. . ... : ... .. . ... : ... .. . ... ... : ... .. . ... ... : ... .. . ... ... : ... .. . ... ...
ROW E8 : ... .. . ... ... ... : ... .. . ... ... ... : ... .. . ... : ... .. . ... : ... .. . ... ... : ... .. . ... ... : ... .. . ... ... : ... .. . ... ...
ROW E9 : ... .. . ... ... ... : ... .. . ... ... ... : ... .. . ... : ... .. . ... : ... .. . ... ... : ... .. . ... ... : ... .. . ... ... : ... .. . ... ...
ROW EA : ... .. . ... ... ... : ... .. . ... ... ... : ... .. . ... : ... .. . ... : ... .. . ... ... : ... .. . ... ... : ... .. . ... ... : ... .. . ... ...
ROW EB : ... .. . ... ... ... : ... .. . ... ... ... : ... .. . ... : ... .. . ... : ... .. . ... ... : ... .. . ... ... : ... .. . ... ... : ... .. . ... ...
ROW EC : ... .. . ... ... ... : ... .. . ... ... ... : ... .. . ... : ... .. . ... : ... .. . ... ... : ... .. . ... ... : ... .. . ... ... : ... .. . ... ...
ROW ED : ... .. . ... ... ... : ... .. . ... ... ... : ... .. . ... : ... .. . ... : ... .. . ... ... : ... .. . ... ... : ... .. . ... ... : ... .. . ... ...
ROW EE : ... .. . ... ... ... : ... .. . ... ... ... : ... .. . ... : ... .. . ... : ... .. . ... ... : ... .. . ... ... : ... .. . ... ... : ... .. . ... ...
ROW EF : ... .. . ... ... ... : ... .. . ... ... ... : ... .. . ... : ... .. . ... : ... .. . ... ... : ... .. . ... ... : ... .. . ... ... : ... .. . ... ...
ROW F0 : ... .. . ... ... ... : ... .. . ... ... ... : ... .. . ... : ... .. . ... : ... .. . ... ... : ... .. . ... ... : ... .. . ... ... : ... .. . ... ...
ROW F1 : ... .. . ... ... ... : ... .. . ... ... ... : ... .. . ... : ... .. . ... : ... .. . ... ... : ... .. . ... ... : ... .. . ... ... : ... .. . ... ...
ROW F2 : ... .. . ... ... ... : ... .. . ... ... ... : ... .. . ... : ... .. . ... : ... .. . ... ... : ... .. . ... ... : ... .. . ... ... : ... .. . ... ...
ROW F3 : ... .. . ... ... ... : ... .. . ... ... ... : ... .. . ... : ... .. . ... : ... .. . ... ... : ... .. . ... ... : ... .. . ... ... : ... .. . ... ...
ROW F4 : ... .. . ... ... ... : ... .. . ... ... ... : ... .. . ... : ... .. . ... : ... .. . ... ... : ... .. . ... ... : ... .. . ... ... : ... .. . ... ...
ROW F5 : ... .. . ... ... ... : ... .. . ... ... ... : ... .. . ... : ... .. . ... : ... .. . ... ... : ... .. . ... ... : ... .. . ... ... : ... .. . ... ...
ROW F6 : ... .. . ... ... ... : ... .. . ... ... ... : ... .. . ... : ... .. . ... : ... .. . ... ... : ... .. . ... ... : ... .. . ... ... : ... .. . ... ...
ROW F7 : ... .. . ... ... ... : ... .. . ... ... ... : ... .. . ... : ... .. . ... : ... .. . ... ... : ... .. . ... ... : ... .. . ... ... : ... .. . ... ...
ROW F8 : ... .. . ... ... ... : ... .. . ... ... ... : ... .. . ... : ... .. . ... : ... .. . ... ... : ... .. . ... ... : ... .. . ... ... : ... .. . ... ...
ROW F9 : ... .. . ... ... ... : ... .. . ... ... ... : ... .. . ... : ... .. . ... : ... .. . ... ... : ... .. . ... ... : ... .. . ... ... : ... .. . ... ...
ROW FA : ... .. . ... ... ... : ... .. . ... ... ... : ... .. . ... : ... .. . ... : ... .. . ... ... : ... .. . ... ... : ... .. . ... ... : ... .. . ... ...
ROW FB : ... .. . ... ... ... : ... .. . ... ... ... : ... .. . ... : ... .. . ... : ... .. . ... ... : ... .. . ... ... : ... .. . ... ... : ... .. . ... ...
ROW FC : ... .. . ... ... ... : ... .. . ... ... ... : ... .. . ... : ... .. . ... : ... .. . ... ... : ... .. . ... ... : ... .. . ... ... : ... .. . ... ...
ROW FD : ... .. . ... ... ... : ... .. . ... ... ... : ... .. . ... : ... .. . ... : ... .. . ... ... : ... .. . ... ... : ... .. . ... ... : ... .. . ... ...
ROW FE : ... .. . ... ... ... : ... .. . ... ... ... : ... .. . ... : ... .. . ... : ... .. . ... ... : ... .. . ... ... : ... .. . ... ... : ... .. . ... ...
ROW FF : ... .. . ... ... ... : ... .. . ... ... ... : ... .. . ... : ... .. . ... : ... .. . ... ... : ... .. . ... ... : ... .. . ... ... : ... .. . ... ...

# End of export
