# FamiTracker text export 0.4.2

# Song information
TITLE           "Shovel Knight OST"
AUTHOR          "Jake Kaufman"
COPYRIGHT       ""

# Song comment
COMMENT ""

# Global settings
MACHINE         0
FRAMERATE       0
EXPANSION       1
VIBRATO         1
SPLIT           21

# Macros

# DPCM samples

# Instruments
INST2A03   0    -1  -1  -1  -1  -1 "blank"
INSTVRC6   1    -1  -1  -1  -1  -1 "blank"

# Tracks

TRACK 256   1 150 "New song"
COLUMNS : 3 3 1 1 2 2 2 2

ORDER 00 : 00 00 00 00 00 00 00 00
ORDER 01 : 01 01 01 01 01 01 01 01
ORDER 02 : 02 02 02 02 02 02 02 02
ORDER 03 : 03 03 03 03 03 03 03 03
ORDER 04 : 04 04 04 04 04 04 04 04
ORDER 05 : 05 05 05 05 05 05 05 05
ORDER 06 : 06 06 06 06 06 06 06 06
ORDER 07 : 07 07 07 07 07 07 07 07
ORDER 08 : 08 08 08 08 08 08 08 08
ORDER 09 : 09 09 09 09 09 09 09 09
ORDER 0A : 0A 0A 0A 0A 0A 0A 0A 0A
ORDER 0B : 0B 0B 0B 0B 0B 0B 0B 0B
ORDER 0C : 0C 0C 0C 0C 0C 0C 0C 0C
ORDER 0D : 0D 0D 0D 0D 0D 0D 0D 0D
ORDER 0E : 0E 0E 0E 0E 0E 0E 0E 0E
ORDER 0F : 0F 0F 0F 0F 0F 0F 0F 0F
ORDER 10 : 10 10 10 10 10 10 10 10
ORDER 11 : 11 11 11 11 11 11 11 11
ORDER 12 : 12 12 12 12 12 12 12 12
ORDER 13 : 13 13 13 13 13 13 13 13
ORDER 14 : 14 14 14 14 14 14 14 14
ORDER 15 : 15 15 15 15 15 15 15 15
ORDER 16 : 16 16 16 16 16 16 16 16
ORDER 17 : 17 17 17 17 17 17 17 17
ORDER 18 : 18 18 18 18 18 18 18 18
ORDER 19 : 19 19 19 19 19 19 19 19
ORDER 1A : 1A 1A 1A 1A 1A 1A 1A 1A
ORDER 1B : 1B 1B 1B 1B 1B 1B 1B 1B
ORDER 1C : 1C 1C 1C 1C 1C 1C 1C 1C

PATTERN 00
ROW 00 : C-3 00 C P80 V00 ... : G#3 00 C P80 V00 ... : E-3 00 . P80 : B-# 00 F V00 : === 00 . Z00 ... : F-4 01 7 P80 V03 : C-4 01 A P80 V03 : F-1 01 F P80 V00
ROW 01 : ... .. A ... ... ... : ... .. A ... ... ... : F#2 00 . ... : ... .. . ... : ... .. . ... ... : ... .. 5 ... ... : ... .. 9 ... ... : ... .. D ... ...
ROW 02 : ... .. . ... ... ... : ... .. . ... ... ... : B-1 00 . ... : ... .. . ... : ... .. . ... ... : ... .. 4 ... ... : ... .. 8 ... ... : ... .. 8 ... ...
ROW 03 : ... .. 9 ... ... ... : ... .. 9 ... ... ... : A#1 00 . ... : ... .. E ... : ... .. . ... ... : ... .. 5 ... ... : ... .. 6 ... ... : ... .. . ... ...
ROW 04 : ... .. 7 ... ... ... : ... .. 7 ... ... ... : F-1 00 . ... : ... .. . ... : ... .. . ... ... : ... .. . ... ... : ... .. . ... ... : ... .. 4 ... ...
ROW 05 : ... .. 5 ... ... ... : ... .. 5 ... ... ... : ... .. . ... : ... .. . ... : ... .. . ... ... : ... .. 1 ... ... : ... .. 5 ... ... : ... .. . ... ...
ROW 06 : ... .. . ... ... ... : ... .. . ... ... ... : ... .. . ... : 9-# 00 E ... : ... .. . ... ... : ... .. . ... ... : ... .. . ... ... : F-0 01 F ... ...
ROW 07 : ... .. 8 ... ... ... : ... .. 8 ... ... ... : ... .. . ... : ... .. . ... : ... .. . ... ... : ... .. . ... ... : ... .. 4 ... ... : ... .. D ... ...
ROW 08 : ... .. . ... ... ... : ... .. . ... ... ... : ... .. . ... : ... .. . ... : ... .. . ... ... : ... .. 4 ... ... : ... .. . ... ... : ... .. 8 ... ...
ROW 09 : ... .. 5 ... ... ... : ... .. 5 ... ... ... : ... .. . ... : ... .. . ... : ... .. . ... ... : ... .. 2 ... ... : ... .. . ... ... : ... .. . ... ...
ROW 0A : ... .. . ... ... ... : ... .. . ... ... ... : ... .. . ... : ... .. . ... : ... .. . ... ... : ... .. 0 ... ... : ... .. . ... ... : ... .. 4 ... ...
ROW 0B : ... .. 7 ... ... ... : ... .. 7 ... ... ... : ... .. . ... : ... .. . ... : ... .. . ... ... : ... .. . ... ... : ... .. . ... ... : ... .. . ... ...
ROW 0C : ... .. 8 ... ... ... : ... .. 8 ... ... ... : ... .. . ... : 6-# 00 D ... : ... .. . ... ... : ... .. 3 ... ... : ... .. . ... ... : ... .. F ... ...
ROW 0D : ... .. 5 ... ... ... : ... .. 5 ... ... ... : ... .. . ... : ... .. . ... : ... .. . ... ... : ... .. 4 ... ... : ... .. . ... ... : ... .. D ... ...
ROW 0E : ... .. 4 ... ... ... : ... .. 4 ... ... ... : ... .. . ... : ... .. . ... : ... .. . ... ... : ... .. 1 ... ... : ... .. . ... ... : ... .. 8 ... ...
ROW 0F : ... .. 5 ... ... ... : ... .. 5 ... ... ... : ... .. . ... : ... .. . ... : ... .. . ... ... : ... .. 0 ... ... : ... .. . ... ... : ... .. . ... ...
ROW 10 : ... .. 8 ... ... ... : ... .. 8 ... ... ... : ... .. . ... : ... .. . ... : ... .. . ... ... : ... .. 1 ... ... : ... .. . ... ... : ... .. 4 ... ...
ROW 11 : ... .. 5 ... ... ... : ... .. 5 ... ... ... : ... .. . ... : ... .. . ... : ... .. . ... ... : ... .. 4 ... ... : ... .. . ... ... : ... .. . ... ...
ROW 12 : ... .. 4 ... ... ... : ... .. 4 ... ... ... : ... .. . ... : 4-# 00 D ... : ... .. . ... ... : ... .. 2 ... ... : ... .. . ... ... : ... .. F ... ...
ROW 13 : ... .. 5 ... ... ... : ... .. 5 ... ... ... : ... .. . ... : ... .. . ... : ... .. . ... ... : ... .. 0 ... ... : ... .. . ... ... : ... .. D ... ...
ROW 14 : ... .. 8 ... ... ... : ... .. 8 ... ... ... : ... .. . ... : ... .. . ... : ... .. . ... ... : ... .. . ... ... : ... .. . ... ... : ... .. 8 ... ...
ROW 15 : ... .. 6 ... ... ... : ... .. 6 ... ... ... : ... .. . ... : ... .. C ... : ... .. . ... ... : ... .. 2 ... ... : ... .. . ... ... : ... .. . ... ...
ROW 16 : ... .. 4 ... ... ... : ... .. 4 ... ... ... : ... .. . ... : ... .. . ... : ... .. . ... ... : ... .. 4 ... ... : ... .. . ... ... : ... .. 4 ... ...
ROW 17 : ... .. . ... ... ... : ... .. . ... ... ... : ... .. . ... : ... .. . ... : ... .. . ... ... : ... .. 1 ... ... : ... .. . ... ... : ... .. . ... ...
ROW 18 : ... .. 7 ... ... ... : ... .. 7 ... ... ... : ... .. . ... : 3-# 00 C ... : ... .. . ... ... : ... .. 0 ... ... : ... .. . ... ... : ... .. F ... ...
ROW 19 : ... .. . ... ... ... : ... .. . ... ... ... : ... .. . ... : ... .. . ... : ... .. . ... ... : ... .. 1 ... ... : ... .. . ... ... : ... .. D ... ...
ROW 1A : ... .. 4 ... ... ... : ... .. 4 ... ... ... : ... .. . ... : ... .. . ... : ... .. . ... ... : ... .. 4 ... ... : ... .. . ... ... : ... .. 8 ... ...
ROW 1B : ... .. . ... ... ... : ... .. . ... ... ... : ... .. . ... : ... .. . ... : ... .. . ... ... : ... .. 3 ... ... : ... .. . ... ... : ... .. . ... ...
ROW 1C : ... .. 6 ... ... ... : ... .. 6 ... ... ... : ... .. . ... : ... .. . ... : ... .. . ... ... : ... .. 0 ... ... : ... .. . ... ... : ... .. 4 ... ...
ROW 1D : ... .. 8 ... ... ... : ... .. 8 ... ... ... : ... .. . ... : ... .. . ... : ... .. . ... ... : ... .. . ... ... : ... .. . ... ... : ... .. . ... ...
ROW 1E : ... .. 5 ... ... ... : ... .. 5 ... ... ... : ... .. . ... : 1-# 00 B ... : ... .. . ... ... : ... .. 2 ... ... : ... .. . ... ... : ... .. F ... ...
ROW 1F : ... .. 4 ... ... ... : ... .. 4 ... ... ... : ... .. . ... : ... .. . ... : ... .. . ... ... : ... .. 4 ... ... : ... .. . ... ... : ... .. D ... ...
ROW 20 : ... .. 5 ... ... ... : ... .. 5 ... ... ... : ... .. . ... : ... .. . ... : ... .. . ... ... : ... .. 1 ... ... : ... .. . ... ... : ... .. 8 ... ...
ROW 21 : ... .. 7 ... ... ... : ... .. 7 ... ... ... : ... .. . ... : ... .. . ... : ... .. . ... ... : ... .. 0 ... ... : ... .. 3 ... ... : ... .. . ... ...
ROW 22 : ... .. 5 ... ... ... : ... .. 5 ... ... ... : ... .. . ... : ... .. . ... : ... .. . ... ... : ... .. . ... ... : ... .. . ... ... : ... .. 4 ... ...
ROW 23 : ... .. 3 ... ... ... : ... .. 3 ... ... ... : ... .. . ... : ... .. . ... : ... .. . ... ... : ... .. 2 ... ... : ... .. . ... ... : ... .. . ... ...
ROW 24 : ... .. . ... ... ... : ... .. . ... ... ... : ... .. . ... : 0-# 00 B ... : ... .. . ... ... : ... .. . ... ... : ... .. . ... ... : ... .. F ... ...
ROW 25 : ... .. 7 ... ... ... : ... .. 7 ... ... ... : ... .. . ... : ... .. . ... : ... .. . ... ... : ... .. 0 ... ... : ... .. . ... ... : ... .. D ... ...
ROW 26 : ... .. 6 ... ... ... : ... .. 6 ... ... ... : ... .. . ... : ... .. . ... : ... .. . ... ... : ... .. . ... ... : ... .. . ... ... : ... .. 8 ... ...
ROW 27 : ... .. 3 ... ... ... : ... .. 3 ... ... ... : ... .. . ... : ... .. A ... : ... .. . ... ... : ... .. . ... ... : ... .. . ... ... : ... .. . ... ...
ROW 28 : ... .. . ... ... ... : ... .. . ... ... ... : ... .. . ... : ... .. . ... : ... .. . ... ... : ... .. 3 ... ... : ... .. . ... ... : ... .. 4 ... ...
ROW 29 : ... .. 6 ... ... ... : ... .. 6 ... ... ... : ... .. . ... : ... .. . ... : ... .. . ... ... : ... .. 1 ... ... : ... .. . ... ... : ... .. . ... ...
ROW 2A : ... .. . ... ... ... : ... .. . ... ... ... : ... .. . ... : ... .. . ... : ... .. . ... ... : ... .. 0 ... ... : ... .. . ... ... : ... .. F ... ...
ROW 2B : ... .. 2 ... ... ... : ... .. 2 ... ... ... : ... .. . ... : ... .. . ... : ... .. . ... ... : ... .. . ... ... : ... .. . ... ... : ... .. D ... ...
ROW 2C : ... .. . ... ... ... : ... .. . ... ... ... : ... .. . ... : ... .. . ... : ... .. . ... ... : ... .. 2 ... ... : ... .. . ... ... : ... .. 8 ... ...
ROW 2D : ... .. 4 ... ... ... : ... .. 4 ... ... ... : ... .. . ... : ... .. . ... : ... .. . ... ... : ... .. 3 ... ... : ... .. . ... ... : ... .. . ... ...
ROW 2E : ... .. 6 ... ... ... : ... .. 6 ... ... ... : ... .. . ... : ... .. . ... : ... .. . ... ... : ... .. 0 ... ... : ... .. . ... ... : ... .. 4 ... ...
ROW 2F : ... .. 3 ... ... ... : ... .. 3 ... ... ... : ... .. . ... : ... .. . ... : ... .. . ... ... : ... .. . ... ... : ... .. . ... ... : ... .. . ... ...
ROW 30 : ... .. 2 ... ... ... : ... .. 2 ... ... ... : ... .. . ... : 3-# 00 9 ... : ... .. . ... ... : ... .. . ... ... : ... .. . ... ... : ... .. F ... ...
ROW 31 : ... .. 3 ... ... ... : ... .. 3 ... ... ... : ... .. . ... : ... .. . ... : ... .. . ... ... : ... .. 3 ... ... : ... .. . ... ... : ... .. D ... ...
ROW 32 : ... .. 6 ... ... ... : ... .. 6 ... ... ... : ... .. . ... : ... .. . ... : ... .. . ... ... : ... .. 1 ... ... : ... .. . ... ... : ... .. 8 ... ...
ROW 33 : ... .. 4 ... ... ... : ... .. 4 ... ... ... : ... .. . ... : ... .. . ... : ... .. . ... ... : ... .. 0 ... ... : ... .. . ... ... : ... .. . ... ...
ROW 34 : ... .. 2 ... ... ... : ... .. 2 ... ... ... : ... .. . ... : ... .. . ... : ... .. . ... ... : ... .. . ... ... : ... .. . ... ... : ... .. 4 ... ...
ROW 35 : ... .. . ... ... ... : ... .. . ... ... ... : ... .. . ... : ... .. . ... : ... .. . ... ... : ... .. 1 ... ... : ... .. . ... ... : ... .. . ... ...
ROW 36 : ... .. 5 ... ... ... : ... .. 5 ... ... ... : ... .. . ... : ... .. . ... : ... .. . ... ... : ... .. 3 ... ... : ... .. . ... ... : ... .. F ... ...
ROW 37 : ... .. . ... ... ... : ... .. . ... ... ... : ... .. . ... : ... .. . ... : ... .. . ... ... : ... .. 0 ... ... : ... .. . ... ... : ... .. D ... ...
ROW 38 : ... .. 2 ... ... ... : ... .. 2 ... ... ... : ... .. . ... : ... .. . ... : ... .. . ... ... : ... .. . ... ... : ... .. . ... ... : ... .. 8 ... ...
ROW 39 : ... .. . ... ... ... : ... .. . ... ... ... : ... .. . ... : ... .. 8 ... : ... .. . ... ... : ... .. . ... ... : ... .. . ... ... : ... .. . ... ...
ROW 3A : ... .. 4 ... ... ... : ... .. 4 ... ... ... : ... .. . ... : ... .. . ... : ... .. . ... ... : ... .. 3 ... ... : ... .. . ... ... : ... .. 4 ... ...
ROW 3B : ... .. 6 ... ... ... : ... .. 6 ... ... ... : ... .. . ... : ... .. . ... : ... .. . ... ... : ... .. 2 ... ... : ... .. . ... ... : ... .. . ... ...
ROW 3C : ... .. 3 ... ... ... : ... .. 3 ... ... ... : ... .. . ... : 2-# 00 8 ... : ... .. . ... ... : ... .. 0 ... ... : ... .. . ... ... : ... .. F ... ...
ROW 3D : ... .. 2 ... ... ... : ... .. 2 ... ... ... : ... .. . ... : ... .. . ... : ... .. . ... ... : ... .. . ... ... : ... .. . ... ... : ... .. D ... ...
ROW 3E : ... .. 3 ... ... ... : ... .. 3 ... ... ... : ... .. . ... : ... .. . ... : ... .. . ... ... : ... .. 1 ... ... : ... .. . ... ... : ... .. 8 ... ...
ROW 3F : ... .. 5 ... ... ... : ... .. 5 ... ... ... : ... .. . ... : ... .. . ... : ... .. . ... ... : ... .. 2 ... ... : ... .. 2 ... ... : ... .. . ... ...
ROW 40 : ... .. 2 ... ... ... : ... .. 2 ... ... ... : ... .. . ... : ... .. . ... : ... .. . ... ... : ... .. 0 ... ... : ... .. . ... ... : ... .. 4 ... ...
ROW 41 : ... .. 1 ... ... ... : ... .. 1 ... ... ... : ... .. . ... : ... .. . ... : ... .. . ... ... : ... .. . ... ... : ... .. . ... ... : ... .. . ... ...
ROW 42 : ... .. 2 ... ... ... : ... .. 2 ... ... ... : ... .. . ... : ... .. 7 ... : ... .. . ... ... : ... .. . ... ... : ... .. . ... ... : ... .. F ... ...
ROW 43 : ... .. 5 ... ... ... : ... .. 5 ... ... ... : ... .. . ... : ... .. . ... : ... .. . ... ... : ... .. 1 ... ... : ... .. . ... ... : ... .. D ... ...
ROW 44 : ... .. 3 ... ... ... : ... .. 3 ... ... ... : ... .. . ... : ... .. . ... : ... .. . ... ... : ... .. . ... ... : ... .. . ... ... : ... .. 8 ... ...
ROW 45 : ... .. 1 ... ... ... : ... .. 1 ... ... ... : ... .. . ... : ... .. . ... : ... .. . ... ... : ... .. 0 ... ... : ... .. . ... ... : ... .. . ... ...
ROW 46 : ... .. . ... ... ... : ... .. . ... ... ... : ... .. . ... : ... .. . ... : ... .. . ... ... : ... .. . ... ... : ... .. . ... ... : ... .. 4 ... ...
ROW 47 : ... .. 4 ... ... ... : ... .. 4 ... ... ... : ... .. . ... : ... .. . ... : ... .. . ... ... : ... .. . ... ... : ... .. . ... ... : ... .. . ... ...
ROW 48 : D-4 00 7 ... ... ... : B-3 00 7 ... ... ... : ... .. . ... : ... .. . ... : ... .. . ... ... : F#4 01 5 ... ... : D-4 01 5 ... ... : F-1 01 F ... ...
ROW 49 : ... .. 3 ... ... ... : ... .. 3 ... ... ... : ... .. . ... : ... .. . ... : ... .. . ... ... : ... .. 2 ... ... : ... .. 4 ... ... : ... .. D ... ...
ROW 4A : ... .. 2 ... ... ... : ... .. 2 ... ... ... : ... .. . ... : ... .. . ... : ... .. . ... ... : ... .. 0 ... ... : ... .. . ... ... : ... .. 8 ... ...
ROW 4B : ... .. 3 ... ... ... : ... .. 3 ... ... ... : ... .. . ... : ... .. 8 ... : ... .. . ... ... : ... .. . ... ... : ... .. 3 ... ... : ... .. . ... ...
ROW 4C : ... .. 5 ... ... ... : ... .. 5 ... ... ... : ... .. . ... : ... .. . ... : ... .. . ... ... : ... .. 2 ... ... : ... .. . ... ... : ... .. 4 ... ...
ROW 4D : ... .. 2 ... ... ... : ... .. 2 ... ... ... : ... .. . ... : ... .. . ... : ... .. . ... ... : ... .. 3 ... ... : ... .. . ... ... : ... .. . ... ...
ROW 4E : ... .. 1 ... ... ... : ... .. 1 ... ... ... : ... .. . ... : ... .. . ... : ... .. . ... ... : ... .. 0 ... ... : ... .. . ... ... : F-0 01 F ... ...
ROW 4F : ... .. 2 ... ... ... : ... .. 2 ... ... ... : ... .. . ... : ... .. . ... : ... .. . ... ... : ... .. . ... ... : ... .. 2 ... ... : ... .. D ... ...
ROW 50 : ... .. 5 ... ... ... : ... .. 5 ... ... ... : ... .. . ... : ... .. . ... : ... .. . ... ... : ... .. . ... ... : ... .. . ... ... : ... .. 8 ... ...
ROW 51 : ... .. 2 ... ... ... : ... .. 2 ... ... ... : ... .. . ... : ... .. . ... : ... .. . ... ... : ... .. 2 ... ... : ... .. . ... ... : ... .. . ... ...
ROW 52 : ... .. 1 ... ... ... : ... .. 1 ... ... ... : ... .. . ... : ... .. . ... : ... .. . ... ... : ... .. 0 ... ... : ... .. . ... ... : ... .. 4 ... ...
ROW 53 : ... .. 2 ... ... ... : ... .. 2 ... ... ... : ... .. . ... : ... .. . ... : ... .. . ... ... : ... .. . ... ... : ... .. . ... ... : ... .. . ... ...
ROW 54 : ... .. 6 ... ... ... : ... .. 6 ... ... ... : ... .. . ... : ... .. 9 ... : ... .. . ... ... : ... .. . ... ... : ... .. 3 ... ... : ... .. F ... ...
ROW 55 : ... .. 4 ... ... ... : ... .. 4 ... ... ... : ... .. . ... : ... .. . ... : ... .. . ... ... : ... .. 1 ... ... : ... .. . ... ... : ... .. D ... ...
ROW 56 : ... .. 2 ... ... ... : ... .. 2 ... ... ... : ... .. . ... : ... .. . ... : ... .. . ... ... : ... .. 3 ... ... : ... .. . ... ... : ... .. 8 ... ...
ROW 57 : ... .. . ... ... ... : ... .. . ... ... ... : ... .. . ... : ... .. . ... : ... .. . ... ... : ... .. 0 ... ... : ... .. . ... ... : ... .. . ... ...
ROW 58 : ... .. 5 ... ... ... : ... .. 5 ... ... ... : ... .. . ... : ... .. . ... : ... .. . ... ... : ... .. . ... ... : ... .. . ... ... : ... .. 4 ... ...
ROW 59 : ... .. . ... ... ... : ... .. . ... ... ... : ... .. . ... : ... .. . ... : ... .. . ... ... : ... .. . ... ... : ... .. . ... ... : ... .. . ... ...
ROW 5A : ... .. 2 ... ... ... : ... .. 2 ... ... ... : ... .. . ... : 4-# 00 9 ... : ... .. . ... ... : ... .. 3 ... ... : ... .. . ... ... : ... .. F ... ...
ROW 5B : ... .. . ... ... ... : ... .. . ... ... ... : ... .. . ... : ... .. . ... : ... .. . ... ... : ... .. 2 ... ... : ... .. . ... ... : ... .. D ... ...
ROW 5C : ... .. 4 ... ... ... : ... .. 4 ... ... ... : ... .. . ... : ... .. . ... : ... .. . ... ... : ... .. 0 ... ... : ... .. . ... ... : ... .. 8 ... ...
ROW 5D : ... .. 6 ... ... ... : ... .. 6 ... ... ... : ... .. . ... : ... .. A ... : ... .. . ... ... : ... .. . ... ... : ... .. . ... ... : ... .. . ... ...
ROW 5E : ... .. 3 ... ... ... : ... .. 3 ... ... ... : ... .. . ... : ... .. . ... : ... .. . ... ... : ... .. 1 ... ... : ... .. . ... ... : ... .. 4 ... ...
ROW 5F : ... .. 2 ... ... ... : ... .. 2 ... ... ... : ... .. . ... : ... .. . ... : ... .. . ... ... : ... .. 3 ... ... : ... .. . ... ... : ... .. . ... ...
ROW 60 : ... .. 3 ... ... ... : ... .. 3 ... ... ... : ... .. . ... : ... .. . ... : ... .. . ... ... : ... .. 0 ... ... : ... .. . ... ... : ... .. F ... ...
ROW 61 : ... .. 6 ... ... ... : ... .. 6 ... ... ... : ... .. . ... : ... .. . ... : ... .. . ... ... : ... .. . ... ... : ... .. . ... ... : ... .. D ... ...
ROW 62 : ... .. 4 ... ... ... : ... .. 4 ... ... ... : ... .. . ... : ... .. . ... : ... .. . ... ... : ... .. . ... ... : ... .. . ... ... : ... .. 8 ... ...
ROW 63 : ... .. 2 ... ... ... : ... .. 2 ... ... ... : ... .. . ... : ... .. . ... : ... .. . ... ... : ... .. 2 ... ... : ... .. . ... ... : ... .. . ... ...
ROW 64 : ... .. . ... ... ... : ... .. . ... ... ... : ... .. . ... : ... .. . ... : ... .. . ... ... : ... .. . ... ... : ... .. . ... ... : ... .. 4 ... ...
ROW 65 : ... .. 6 ... ... ... : ... .. 6 ... ... ... : ... .. . ... : ... .. . ... : ... .. . ... ... : ... .. 0 ... ... : ... .. . ... ... : ... .. . ... ...
ROW 66 : ... .. 5 ... ... ... : ... .. 5 ... ... ... : ... .. . ... : ... .. . ... : ... .. . ... ... : ... .. . ... ... : ... .. . ... ... : ... .. F ... ...
ROW 67 : ... .. 2 ... ... ... : ... .. 2 ... ... ... : ... .. . ... : ... .. . ... : ... .. . ... ... : ... .. . ... ... : ... .. . ... ... : ... .. D ... ...
ROW 68 : ... .. . ... ... ... : ... .. . ... ... ... : ... .. . ... : ... .. . ... : ... .. . ... ... : ... .. 3 ... ... : ... .. . ... ... : ... .. 8 ... ...
ROW 69 : ... .. 6 ... ... ... : ... .. 6 ... ... ... : ... .. . ... : ... .. B ... : ... .. . ... ... : ... .. 1 ... ... : ... .. . ... ... : ... .. . ... ...
ROW 6A : ... .. 7 ... ... ... : ... .. 7 ... ... ... : ... .. . ... : ... .. . ... : ... .. . ... ... : ... .. 0 ... ... : ... .. . ... ... : ... .. 4 ... ...
ROW 6B : ... .. 3 ... ... ... : ... .. 3 ... ... ... : ... .. . ... : ... .. . ... : ... .. . ... ... : ... .. . ... ... : ... .. . ... ... : ... .. . ... ...
ROW 6C : ... .. . ... ... ... : ... .. . ... ... ... : ... .. . ... : 3-# 00 B ... : ... .. . ... ... : ... .. 2 ... ... : ... .. . ... ... : ... .. F ... ...
ROW 6D : ... .. 5 ... ... ... : ... .. 5 ... ... ... : ... .. . ... : ... .. . ... : ... .. . ... ... : ... .. 3 ... ... : ... .. . ... ... : ... .. D ... ...
ROW 6E : ... .. 7 ... ... ... : ... .. 7 ... ... ... : ... .. . ... : ... .. . ... : ... .. . ... ... : ... .. 0 ... ... : ... .. . ... ... : ... .. 8 ... ...
ROW 6F : ... .. 4 ... ... ... : ... .. 4 ... ... ... : ... .. . ... : ... .. . ... : ... .. . ... ... : ... .. . ... ... : ... .. . ... ... : ... .. . ... ...
ROW 70 : ... .. 3 ... ... ... : ... .. 3 ... ... ... : ... .. . ... : ... .. . ... : ... .. . ... ... : ... .. . ... ... : ... .. . ... ... : ... .. 4 ... ...
ROW 71 : ... .. 4 ... ... ... : ... .. 4 ... ... ... : ... .. . ... : ... .. . ... : ... .. . ... ... : ... .. 3 ... ... : ... .. . ... ... : ... .. . ... ...
ROW 72 : ... .. 8 ... ... ... : ... .. 8 ... ... ... : ... .. . ... : ... .. C ... : ... .. . ... ... : ... .. 2 ... ... : ... .. 4 ... ... : ... .. F ... ...
ROW 73 : ... .. 6 ... ... ... : ... .. 6 ... ... ... : ... .. . ... : ... .. . ... : ... .. . ... ... : ... .. 0 ... ... : ... .. . ... ... : ... .. D ... ...
ROW 74 : ... .. 4 ... ... ... : ... .. 4 ... ... ... : ... .. . ... : ... .. . ... : ... .. . ... ... : ... .. . ... ... : ... .. . ... ... : ... .. 8 ... ...
ROW 75 : ... .. . ... ... ... : ... .. . ... ... ... : ... .. . ... : ... .. . ... : ... .. . ... ... : ... .. 2 ... ... : ... .. . ... ... : ... .. . ... ...
ROW 76 : ... .. 7 ... ... ... : ... .. 7 ... ... ... : ... .. . ... : ... .. . ... : ... .. . ... ... : ... .. 4 ... ... : ... .. . ... ... : ... .. 4 ... ...
ROW 77 : ... .. . ... ... ... : ... .. . ... ... ... : ... .. . ... : ... .. . ... : ... .. . ... ... : ... .. 1 ... ... : ... .. . ... ... : ... .. . ... ...
ROW 78 : ... .. 4 ... ... ... : ... .. 4 ... ... ... : ... .. . ... : 2-# 00 C ... : ... .. . ... ... : ... .. 0 ... ... : ... .. . ... ... : ... .. F ... ...
ROW 79 : ... .. . ... ... ... : ... .. . ... ... ... : ... .. . ... : ... .. . ... : ... .. . ... ... : ... .. 1 ... ... : ... .. . ... ... : ... .. D ... ...
ROW 7A : ... .. 6 ... ... ... : ... .. 6 ... ... ... : ... .. . ... : ... .. . ... : ... .. . ... ... : ... .. 4 ... ... : ... .. . ... ... : ... .. 8 ... ...
ROW 7B : ... .. 8 ... ... ... : ... .. 8 ... ... ... : ... .. . ... : ... .. . ... : ... .. . ... ... : ... .. 3 ... ... : ... .. . ... ... : ... .. . ... ...
ROW 7C : ... .. 5 ... ... ... : ... .. 5 ... ... ... : ... .. . ... : ... .. . ... : ... .. . ... ... : ... .. 0 ... ... : ... .. . ... ... : ... .. 4 ... ...
ROW 7D : ... .. 4 ... ... ... : ... .. 4 ... ... ... : ... .. . ... : ... .. . ... : ... .. . ... ... : ... .. . ... ... : ... .. . ... ... : ... .. . ... ...
ROW 7E : ... .. 5 ... ... ... : ... .. 5 ... ... ... : ... .. . ... : ... .. D ... : ... .. . ... ... : ... .. 2 ... ... : ... .. . ... ... : ... .. F ... ...
ROW 7F : ... .. 8 ... ... ... : ... .. 8 ... ... ... : ... .. . ... : ... .. . ... : ... .. . ... ... : ... .. 4 ... ... : ... .. . ... ... : ... .. D ... ...
ROW 80 : ... .. 5 ... ... ... : ... .. 5 ... ... ... : ... .. . ... : ... .. . ... : ... .. . ... ... : ... .. 1 ... ... : ... .. . ... ... : ... .. 8 ... ...
ROW 81 : ... .. 4 ... ... ... : ... .. 4 ... ... ... : ... .. . ... : ... .. . ... : ... .. . ... ... : ... .. 0 ... ... : ... .. . ... ... : ... .. . ... ...
ROW 82 : ... .. 5 ... ... ... : ... .. 5 ... ... ... : ... .. . ... : ... .. . ... : ... .. . ... ... : ... .. . ... ... : ... .. . ... ... : ... .. 4 ... ...
ROW 83 : ... .. 8 ... ... ... : ... .. 8 ... ... ... : ... .. . ... : ... .. . ... : ... .. . ... ... : ... .. 3 ... ... : ... .. . ... ... : ... .. . ... ...
ROW 84 : ... .. 6 ... ... ... : ... .. 6 ... ... ... : ... .. . ... : 1-# 00 D ... : ... .. . ... ... : ... .. . ... ... : ... .. . ... ... : ... .. F ... ...
ROW 85 : ... .. 4 ... ... ... : ... .. 4 ... ... ... : ... .. . ... : ... .. . ... : ... .. . ... ... : ... .. 0 ... ... : ... .. . ... ... : ... .. D ... ...
ROW 86 : ... .. . ... ... ... : ... .. . ... ... ... : ... .. . ... : ... .. . ... : ... .. . ... ... : ... .. . ... ... : ... .. . ... ... : ... .. 8 ... ...
ROW 87 : ... .. 8 ... ... ... : ... .. 8 ... ... ... : ... .. . ... : ... .. E ... : ... .. . ... ... : ... .. 1 ... ... : ... .. . ... ... : ... .. . ... ...
ROW 88 : ... .. . ... ... ... : ... .. . ... ... ... : ... .. . ... : ... .. . ... : ... .. . ... ... : ... .. 4 ... ... : ... .. . ... ... : ... .. 4 ... ...
ROW 89 : ... .. 5 ... ... ... : ... .. 5 ... ... ... : ... .. . ... : ... .. . ... : ... .. . ... ... : ... .. 2 ... ... : ... .. . ... ... : ... .. . ... ...
ROW 8A : ... .. . ... ... ... : ... .. . ... ... ... : ... .. . ... : ... .. . ... : ... .. . ... ... : ... .. 0 ... ... : ... .. . ... ... : ... .. F ... ...
ROW 8B : ... .. 7 ... ... ... : ... .. 7 ... ... ... : ... .. . ... : ... .. . ... : ... .. . ... ... : ... .. . ... ... : ... .. . ... ... : ... .. D ... ...
ROW 8C : ... .. 9 ... ... ... : ... .. 9 ... ... ... : ... .. . ... : ... .. . ... : ... .. . ... ... : ... .. 3 ... ... : ... .. . ... ... : ... .. 8 ... ...
ROW 8D : ... .. 6 ... ... ... : ... .. 6 ... ... ... : ... .. . ... : ... .. . ... : ... .. . ... ... : ... .. 4 ... ... : ... .. . ... ... : ... .. . ... ...
ROW 8E : ... .. 5 ... ... ... : ... .. 5 ... ... ... : ... .. . ... : ... .. . ... : ... .. . ... ... : ... .. 1 ... ... : ... .. . ... ... : ... .. 4 ... ...
ROW 8F : ... .. 6 ... ... ... : ... .. 6 ... ... ... : ... .. . ... : ... .. . ... : ... .. . ... ... : ... .. 0 ... ... : ... .. . ... ... : ... .. . ... ...
ROW 90 : D#3 00 F ... ... ... : ... .. F ... ... ... : E-4 00 . ... : ... .. F ... : ... .. . ... ... : G#4 01 7 ... ... : D#4 01 A ... ... : F-1 01 F ... ...
ROW 91 : ... .. B ... ... ... : ... .. B ... ... ... : F#3 00 . ... : ... .. . ... : ... .. . ... ... : ... .. 9 ... ... : ... .. 9 ... ... : ... .. D ... ...
ROW 92 : ... .. 9 ... ... ... : ... .. 9 ... ... ... : B-2 00 . ... : ... .. . ... : ... .. . ... ... : ... .. 6 ... ... : ... .. 8 ... ... : ... .. 8 ... ...
ROW 93 : ... .. 6 ... ... ... : ... .. 6 ... ... ... : A#2 00 . ... : ... .. . ... : ... .. . ... ... : ... .. 2 ... ... : ... .. 6 ... ... : ... .. . ... ...
ROW 94 : ... .. 9 ... ... ... : ... .. 9 ... ... ... : F-2 00 . ... : ... .. . ... : ... .. . ... ... : ... .. . ... ... : ... .. . ... ... : ... .. 4 ... ...
ROW 95 : ... .. 7 ... ... ... : ... .. 7 ... ... ... : ... .. . ... : ... .. . ... : ... .. . ... ... : ... .. 3 ... ... : ... .. 5 ... ... : ... .. . ... ...
ROW 96 : ... .. 5 ... ... ... : ... .. 5 ... ... ... : ... .. . ... : 0-# 00 F ... : ... .. . ... ... : ... .. 5 ... ... : ... .. . ... ... : F-0 01 F ... ...
ROW 97 : ... .. . ... ... ... : ... .. . ... ... ... : ... .. . ... : ... .. . ... : ... .. . ... ... : ... .. 1 ... ... : ... .. 4 ... ... : ... .. D ... ...
ROW 98 : ... .. 8 ... ... ... : ... .. 8 ... ... ... : ... .. . ... : ... .. . ... : ... .. . ... ... : ... .. 0 ... ... : ... .. . ... ... : ... .. 8 ... ...
ROW 99 : ... .. . ... ... ... : ... .. . ... ... ... : ... .. . ... : ... .. E ... : ... .. . ... ... : ... .. 1 ... ... : ... .. . ... ... : ... .. . ... ...
ROW 9A : ... .. 5 ... ... ... : ... .. 5 ... ... ... : ... .. . ... : ... .. . ... : ... .. . ... ... : ... .. 4 ... ... : ... .. . ... ... : ... .. 4 ... ...
ROW 9B : ... .. . ... ... ... : ... .. . ... ... ... : ... .. . ... : ... .. . ... : ... .. . ... ... : ... .. 3 ... ... : ... .. . ... ... : ... .. . ... ...
ROW 9C : ... .. 6 ... ... ... : ... .. 6 ... ... ... : ... .. . ... : ... .. . ... : ... .. . ... ... : ... .. 0 ... ... : ... .. . ... ... : ... .. F ... ...
ROW 9D : ... .. 8 ... ... ... : ... .. 8 ... ... ... : ... .. . ... : ... .. . ... : ... .. . ... ... : ... .. . ... ... : ... .. . ... ... : ... .. D ... ...
ROW 9E : ... .. 5 ... ... ... : ... .. 5 ... ... ... : ... .. . ... : ... .. . ... : ... .. . ... ... : ... .. 2 ... ... : ... .. . ... ... : ... .. 8 ... ...
ROW 9F : ... .. 4 ... ... ... : ... .. 4 ... ... ... : ... .. . ... : ... .. . ... : ... .. . ... ... : ... .. 4 ... ... : ... .. . ... ... : ... .. . ... ...
ROW A0 : ... .. 5 ... ... ... : ... .. 5 ... ... ... : ... .. . ... : ... .. . ... : ... .. . ... ... : ... .. 1 ... ... : ... .. . ... ... : ... .. 4 ... ...
ROW A1 : ... .. 8 ... ... ... : ... .. 8 ... ... ... : ... .. . ... : ... .. . ... : ... .. . ... ... : ... .. 0 ... ... : ... .. . ... ... : ... .. . ... ...
ROW A2 : ... .. 6 ... ... ... : ... .. 6 ... ... ... : ... .. . ... : 1-# 00 E ... : ... .. . ... ... : ... .. . ... ... : ... .. . ... ... : ... .. F ... ...
ROW A3 : ... .. 4 ... ... ... : ... .. 4 ... ... ... : ... .. . ... : ... .. . ... : ... .. . ... ... : ... .. 3 ... ... : ... .. . ... ... : ... .. D ... ...
ROW A4 : ... .. . ... ... ... : ... .. . ... ... ... : ... .. . ... : ... .. . ... : ... .. . ... ... : ... .. . ... ... : ... .. . ... ... : ... .. 8 ... ...
ROW A5 : ... .. 8 ... ... ... : ... .. 8 ... ... ... : ... .. . ... : ... .. . ... : ... .. . ... ... : ... .. 0 ... ... : ... .. . ... ... : ... .. . ... ...
ROW A6 : ... .. 7 ... ... ... : ... .. 7 ... ... ... : ... .. . ... : ... .. . ... : ... .. . ... ... : ... .. . ... ... : ... .. . ... ... : ... .. 4 ... ...
ROW A7 : ... .. 4 ... ... ... : ... .. 4 ... ... ... : ... .. . ... : ... .. . ... : ... .. . ... ... : ... .. 1 ... ... : ... .. . ... ... : ... .. . ... ...
ROW A8 : ... .. . ... ... ... : ... .. . ... ... ... : ... .. . ... : ... .. D ... : ... .. . ... ... : ... .. 4 ... ... : ... .. . ... ... : ... .. F ... ...
ROW A9 : ... .. 7 ... ... ... : ... .. 7 ... ... ... : ... .. . ... : ... .. . ... : ... .. . ... ... : ... .. 2 ... ... : ... .. . ... ... : ... .. D ... ...
ROW AA : ... .. 8 ... ... ... : ... .. 8 ... ... ... : ... .. . ... : ... .. . ... : ... .. . ... ... : ... .. 0 ... ... : ... .. . ... ... : ... .. 8 ... ...
ROW AB : ... .. 4 ... ... ... : ... .. 4 ... ... ... : ... .. . ... : ... .. . ... : ... .. . ... ... : ... .. . ... ... : ... .. . ... ... : ... .. . ... ...
ROW AC : ... .. . ... ... ... : ... .. . ... ... ... : ... .. . ... : ... .. . ... : ... .. . ... ... : ... .. 3 ... ... : ... .. . ... ... : ... .. 4 ... ...
ROW AD : ... .. 6 ... ... ... : ... .. 6 ... ... ... : ... .. . ... : ... .. . ... : ... .. . ... ... : ... .. 4 ... ... : ... .. . ... ... : ... .. . ... ...
ROW AE : ... .. 8 ... ... ... : ... .. 8 ... ... ... : ... .. . ... : ... .. . ... : ... .. . ... ... : ... .. 1 ... ... : ... .. . ... ... : ... .. F ... ...
ROW AF : ... .. 5 ... ... ... : ... .. 5 ... ... ... : ... .. . ... : ... .. . ... : ... .. . ... ... : ... .. 0 ... ... : ... .. . ... ... : ... .. D ... ...
ROW B0 : ... .. 4 ... ... ... : ... .. 4 ... ... ... : ... .. . ... : ... .. . ... : ... .. . ... ... : ... .. 1 ... ... : ... .. . ... ... : ... .. 8 ... ...
ROW B1 : ... .. . ... ... ... : ... .. . ... ... ... : ... .. . ... : ... .. . ... : ... .. . ... ... : ... .. 3 ... ... : ... .. 3 ... ... : ... .. . ... ...
ROW B2 : ... .. 7 ... ... ... : ... .. 7 ... ... ... : ... .. . ... : ... .. . ... : ... .. . ... ... : ... .. 1 ... ... : ... .. . ... ... : ... .. 4 ... ...
ROW B3 : ... .. 5 ... ... ... : ... .. 5 ... ... ... : ... .. . ... : ... .. . ... : ... .. . ... ... : ... .. 0 ... ... : ... .. . ... ... : ... .. . ... ...
ROW B4 : ... .. 3 ... ... ... : ... .. 3 ... ... ... : ... .. . ... : ... .. . ... : ... .. . ... ... : ... .. . ... ... : ... .. . ... ... : ... .. F ... ...
ROW B5 : ... .. . ... ... ... : ... .. . ... ... ... : ... .. . ... : ... .. . ... : ... .. . ... ... : ... .. 1 ... ... : ... .. . ... ... : ... .. D ... ...
ROW B6 : ... .. 6 ... ... ... : ... .. 6 ... ... ... : ... .. . ... : ... .. . ... : ... .. . ... ... : ... .. 3 ... ... : ... .. . ... ... : ... .. 8 ... ...
ROW B7 : ... .. . ... ... ... : ... .. . ... ... ... : ... .. . ... : ... .. . ... : ... .. . ... ... : ... .. 0 ... ... : ... .. . ... ... : ... .. . ... ...
ROW B8 : ... .. 3 ... ... ... : ... .. 3 ... ... ... : ... .. . ... : ... .. . ... : ... .. . ... ... : ... .. . ... ... : ... .. . ... ... : ... .. 4 ... ...
ROW B9 : ... .. . ... ... ... : ... .. . ... ... ... : ... .. . ... : ... .. . ... : ... .. . ... ... : ... .. . ... ... : ... .. . ... ... : ... .. . ... ...
ROW BA : ... .. 4 ... ... ... : ... .. 4 ... ... ... : ... .. . ... : 0-# 00 C ... : ... .. . ... ... : ... .. 3 ... ... : ... .. . ... ... : ... .. F ... ...
ROW BB : ... .. 6 ... ... ... : ... .. 6 ... ... ... : ... .. . ... : ... .. . ... : ... .. . ... ... : ... .. 2 ... ... : ... .. . ... ... : ... .. D ... ...
ROW BC : ... .. 3 ... ... ... : ... .. 3 ... ... ... : ... .. . ... : ... .. . ... : ... .. . ... ... : ... .. 0 ... ... : ... .. . ... ... : ... .. 8 ... ...
ROW BD : ... .. 2 ... ... ... : ... .. 2 ... ... ... : ... .. . ... : ... .. . ... : ... .. . ... ... : ... .. . ... ... : ... .. . ... ... : ... .. . ... ...
ROW BE : ... .. 3 ... ... ... : ... .. 3 ... ... ... : ... .. . ... : ... .. . ... : ... .. . ... ... : ... .. 1 ... ... : ... .. . ... ... : ... .. 4 ... ...
ROW BF : ... .. 6 ... ... ... : ... .. 6 ... ... ... : ... .. . ... : ... .. . ... : ... .. . ... ... : ... .. 3 ... ... : ... .. . ... ... : ... .. . ... ...
ROW C0 : ... .. 3 ... ... ... : ... .. 3 ... ... ... : ... .. . ... : ... .. . ... : ... .. . ... ... : ... .. 0 ... ... : ... .. . ... ... : ... .. F ... ...
ROW C1 : ... .. 2 ... ... ... : ... .. 2 ... ... ... : ... .. . ... : ... .. . ... : ... .. . ... ... : ... .. . ... ... : ... .. . ... ... : ... .. D ... ...
ROW C2 : ... .. 3 ... ... ... : ... .. 3 ... ... ... : ... .. . ... : ... .. . ... : ... .. . ... ... : ... .. . ... ... : ... .. . ... ... : ... .. 8 ... ...
ROW C3 : ... .. 6 ... ... ... : ... .. 6 ... ... ... : ... .. . ... : ... .. . ... : ... .. . ... ... : ... .. 2 ... ... : ... .. . ... ... : ... .. . ... ...
ROW C4 : ... .. 4 ... ... ... : ... .. 4 ... ... ... : ... .. . ... : ... .. . ... : ... .. . ... ... : ... .. . ... ... : ... .. . ... ... : ... .. 4 ... ...
ROW C5 : ... .. 2 ... ... ... : ... .. 2 ... ... ... : ... .. . ... : ... .. . ... : ... .. . ... ... : ... .. 0 ... ... : ... .. . ... ... : ... .. . ... ...
ROW C6 : ... .. . ... ... ... : ... .. . ... ... ... : ... .. . ... : 1-# 00 C ... : ... .. . ... ... : ... .. . ... ... : ... .. . ... ... : ... .. F ... ...
ROW C7 : ... .. 5 ... ... ... : ... .. 5 ... ... ... : ... .. . ... : ... .. . ... : ... .. . ... ... : ... .. . ... ... : ... .. . ... ... : ... .. D ... ...
ROW C8 : ... .. . ... ... ... : ... .. . ... ... ... : ... .. . ... : ... .. . ... : ... .. . ... ... : ... .. 3 ... ... : ... .. . ... ... : ... .. 8 ... ...
ROW C9 : ... .. 2 ... ... ... : ... .. 2 ... ... ... : ... .. . ... : ... .. . ... : ... .. . ... ... : ... .. 1 ... ... : ... .. . ... ... : ... .. . ... ...
ROW CA : ... .. . ... ... ... : ... .. . ... ... ... : ... .. . ... : ... .. . ... : ... .. . ... ... : ... .. 0 ... ... : ... .. . ... ... : ... .. 4 ... ...
ROW CB : ... .. 4 ... ... ... : ... .. 4 ... ... ... : ... .. . ... : ... .. . ... : ... .. . ... ... : ... .. . ... ... : ... .. . ... ... : ... .. . ... ...
ROW CC : ... .. 6 ... ... ... : ... .. 6 ... ... ... : ... .. . ... : ... .. B ... : ... .. . ... ... : ... .. 2 ... ... : ... .. . ... ... : ... .. F ... ...
ROW CD : ... .. 3 ... ... ... : ... .. 3 ... ... ... : ... .. . ... : ... .. . ... : ... .. . ... ... : ... .. 3 ... ... : ... .. . ... ... : ... .. D ... ...
ROW CE : ... .. 2 ... ... ... : ... .. 2 ... ... ... : ... .. . ... : ... .. . ... : ... .. . ... ... : ... .. 0 ... ... : ... .. . ... ... : ... .. 8 ... ...
ROW CF : ... .. . ... ... ... : ... .. . ... ... ... : ... .. . ... : ... .. . ... : ... .. . ... ... : ... .. . ... ... : ... .. 2 ... ... : ... .. . ... ...
ROW D0 : ... .. 5 ... ... ... : ... .. 5 ... ... ... : ... .. . ... : ... .. . ... : ... .. . ... ... : ... .. . ... ... : ... .. . ... ... : ... .. 4 ... ...
ROW D1 : ... .. 2 ... ... ... : ... .. 2 ... ... ... : ... .. . ... : ... .. . ... : ... .. . ... ... : ... .. 2 ... ... : ... .. . ... ... : ... .. . ... ...
ROW D2 : ... .. 1 ... ... ... : ... .. 1 ... ... ... : ... .. . ... : ... .. . ... : ... .. . ... ... : ... .. 0 ... ... : ... .. . ... ... : ... .. F ... ...
ROW D3 : ... .. 2 ... ... ... : ... .. 2 ... ... ... : ... .. . ... : ... .. . ... : ... .. . ... ... : ... .. . ... ... : ... .. . ... ... : ... .. D ... ...
ROW D4 : ... .. 5 ... ... ... : ... .. 5 ... ... ... : ... .. . ... : ... .. . ... : ... .. . ... ... : ... .. . ... ... : ... .. . ... ... : ... .. 8 ... ...
ROW D5 : ... .. 3 ... ... ... : ... .. 3 ... ... ... : ... .. . ... : ... .. . ... : ... .. . ... ... : ... .. . ... ... : ... .. . ... ... : ... .. . ... ...
ROW D6 : ... .. 1 ... ... ... : ... .. 1 ... ... ... : ... .. . ... : ... .. . ... : ... .. . ... ... : ... .. 2 ... ... : ... .. . ... ... : ... .. 4 ... ...
ROW D7 : ... .. . ... ... ... : ... .. . ... ... ... : ... .. . ... : ... .. . ... : ... .. . ... ... : ... .. 0 ... ... : ... .. . ... ... : ... .. . ... ...
ROW D8 : G-3 00 7 ... ... ... : D-4 00 7 ... ... ... : ... .. . ... : ... .. . ... : ... .. . ... ... : B-4 01 1 ... ... : G-4 01 5 ... ... : F-1 01 F ... ...
ROW D9 : ... .. 6 ... ... ... : ... .. 6 ... ... ... : ... .. . ... : ... .. . ... : ... .. . ... ... : ... .. . ... ... : ... .. 4 ... ... : ... .. D ... ...
ROW DA : ... .. 2 ... ... ... : ... .. 2 ... ... ... : ... .. . ... : ... .. . ... : ... .. . ... ... : ... .. 4 ... ... : ... .. . ... ... : ... .. 8 ... ...
ROW DB : ... .. 1 ... ... ... : ... .. 1 ... ... ... : ... .. . ... : ... .. . ... : ... .. . ... ... : ... .. 2 ... ... : ... .. 3 ... ... : ... .. . ... ...
ROW DC : ... .. 3 ... ... ... : ... .. 3 ... ... ... : ... .. . ... : ... .. . ... : ... .. . ... ... : ... .. 0 ... ... : ... .. . ... ... : ... .. 4 ... ...
ROW DD : ... .. 5 ... ... ... : ... .. 5 ... ... ... : ... .. . ... : ... .. . ... : ... .. . ... ... : ... .. . ... ... : ... .. . ... ... : ... .. . ... ...
ROW DE : ... .. 2 ... ... ... : ... .. 2 ... ... ... : ... .. . ... : 2-# 00 A ... : ... .. . ... ... : ... .. 1 ... ... : ... .. . ... ... : F-0 01 F ... ...
ROW DF : ... .. 1 ... ... ... : ... .. 1 ... ... ... : ... .. . ... : ... .. . ... : ... .. . ... ... : ... .. 2 ... ... : ... .. 2 ... ... : ... .. D ... ...
ROW E0 : ... .. 2 ... ... ... : ... .. 2 ... ... ... : ... .. . ... : ... .. . ... : ... .. . ... ... : ... .. 0 ... ... : ... .. . ... ... : ... .. 8 ... ...
ROW E1 : ... .. 5 ... ... ... : ... .. 5 ... ... ... : ... .. . ... : ... .. . ... : ... .. . ... ... : ... .. . ... ... : ... .. . ... ... : ... .. . ... ...
ROW E2 : ... .. 3 ... ... ... : ... .. 3 ... ... ... : ... .. . ... : ... .. . ... : ... .. . ... ... : ... .. . ... ... : ... .. . ... ... : ... .. 4 ... ...
ROW E3 : ... .. 1 ... ... ... : ... .. 1 ... ... ... : ... .. . ... : ... .. . ... : ... .. . ... ... : ... .. 1 ... ... : ... .. . ... ... : ... .. . ... ...
ROW E4 : ... .. 2 ... ... ... : ... .. 2 ... ... ... : ... .. . ... : ... .. . ... : ... .. . ... ... : ... .. 2 ... ... : ... .. 3 ... ... : ... .. F ... ...
ROW E5 : ... .. 6 ... ... ... : ... .. 6 ... ... ... : ... .. . ... : ... .. . ... : ... .. . ... ... : ... .. 0 ... ... : ... .. . ... ... : ... .. D ... ...
ROW E6 : ... .. 5 ... ... ... : ... .. 5 ... ... ... : ... .. . ... : ... .. . ... : ... .. . ... ... : ... .. . ... ... : ... .. . ... ... : ... .. 8 ... ...
ROW E7 : ... .. 2 ... ... ... : ... .. 2 ... ... ... : ... .. . ... : ... .. . ... : ... .. . ... ... : ... .. . ... ... : ... .. . ... ... : ... .. . ... ...
ROW E8 : ... .. . ... ... ... : ... .. . ... ... ... : ... .. . ... : ... .. . ... : ... .. . ... ... : ... .. 3 ... ... : ... .. . ... ... : ... .. 4 ... ...
ROW E9 : ... .. 5 ... ... ... : ... .. 5 ... ... ... : ... .. . ... : ... .. . ... : ... .. . ... ... : ... .. 1 ... ... : ... .. . ... ... : ... .. . ... ...
ROW EA : ... .. 6 ... ... ... : ... .. 6 ... ... ... : ... .. . ... : ... .. . ... : ... .. . ... ... : ... .. 0 ... ... : ... .. . ... ... : ... .. F ... ...
ROW EB : ... .. 2 ... ... ... : ... .. 2 ... ... ... : ... .. . ... : ... .. . ... : ... .. . ... ... : ... .. . ... ... : ... .. . ... ... : ... .. D ... ...
ROW EC : ... .. . ... ... ... : ... .. . ... ... ... : ... .. . ... : ... .. . ... : ... .. . ... ... : ... .. 2 ... ... : ... .. . ... ... : ... .. 8 ... ...
ROW ED : ... .. 4 ... ... ... : ... .. 4 ... ... ... : ... .. . ... : ... .. . ... : ... .. . ... ... : ... .. 3 ... ... : ... .. . ... ... : ... .. . ... ...
ROW EE : ... .. 6 ... ... ... : ... .. 6 ... ... ... : ... .. . ... : ... .. . ... : ... .. . ... ... : ... .. 0 ... ... : ... .. . ... ... : ... .. 4 ... ...
ROW EF : ... .. 3 ... ... ... : ... .. 3 ... ... ... : ... .. . ... : ... .. . ... : ... .. . ... ... : ... .. . ... ... : ... .. . ... ... : ... .. . ... ...
ROW F0 : ... .. 2 ... ... ... : ... .. 2 ... ... ... : ... .. . ... : ... .. 9 ... : ... .. . ... ... : ... .. . ... ... : ... .. . ... ... : ... .. F ... ...
ROW F1 : ... .. 3 ... ... ... : ... .. 3 ... ... ... : ... .. . ... : ... .. . ... : ... .. . ... ... : ... .. 3 ... ... : ... .. . ... ... : ... .. D ... ...
ROW F2 : ... .. 6 ... ... ... : ... .. 6 ... ... ... : ... .. . ... : ... .. . ... : ... .. . ... ... : ... .. 1 ... ... : ... .. . ... ... : ... .. 8 ... ...
ROW F3 : ... .. 4 ... ... ... : ... .. 4 ... ... ... : ... .. . ... : ... .. . ... : ... .. . ... ... : ... .. 0 ... ... : ... .. . ... ... : ... .. . ... ...
ROW F4 : ... .. 2 ... ... ... : ... .. 2 ... ... ... : ... .. . ... : ... .. . ... : ... .. . ... ... : ... .. . ... ... : ... .. . ... ... : ... .. 4 ... ...
ROW F5 : ... .. . ... ... ... : ... .. . ... ... ... : ... .. . ... : ... .. . ... : ... .. . ... ... : ... .. 1 ... ... : ... .. . ... ... : ... .. . ... ...
ROW F6 : ... .. 5 ... ... ... : ... .. 5 ... ... ... : ... .. . ... : ... .. . ... : ... .. . ... ... : ... .. 3 ... ... : ... .. . ... ... : ... .. F ... ...
ROW F7 : ... .. . ... ... ... : ... .. . ... ... ... : ... .. . ... : ... .. . ... : ... .. . ... ... : ... .. 0 ... ... : ... .. . ... ... : ... .. D ... ...
ROW F8 : ... .. 2 ... ... ... : ... .. 2 ... ... ... : ... .. . ... : ... .. . ... : ... .. . ... ... : ... .. . ... ... : ... .. . ... ... : ... .. 8 ... ...
ROW F9 : ... .. 3 ... ... ... : ... .. 3 ... ... ... : ... .. . ... : ... .. . ... : ... .. . ... ... : ... .. . ... ... : ... .. . ... ... : ... .. . ... ...
ROW FA : ... .. 5 ... ... ... : ... .. 5 ... ... ... : ... .. . ... : ... .. . ... : ... .. . ... ... : ... .. 3 ... ... : ... .. . ... ... : ... .. 4 ... ...
ROW FB : ... .. 7 ... ... ... : ... .. 7 ... ... ... : ... .. . ... : ... .. . ... : ... .. . ... ... : ... .. 2 ... ... : ... .. . ... ... : ... .. . ... ...
ROW FC : ... .. 4 ... ... ... : ... .. 4 ... ... ... : ... .. . ... : ... .. . ... : ... .. . ... ... : ... .. 0 ... ... : ... .. . ... ... : ... .. F ... ...
ROW FD : ... .. 3 ... ... ... : ... .. 3 ... ... ... : ... .. . ... : ... .. . ... : ... .. . ... ... : ... .. . ... ... : ... .. . ... ... : ... .. D ... ...
ROW FE : ... .. 4 ... ... ... : ... .. 4 ... ... ... : ... .. . ... : ... .. . ... : ... .. . ... ... : ... .. 1 ... ... : ... .. . ... ... : ... .. 8 ... ...
ROW FF : ... .. 7 ... ... ... : ... .. 7 ... ... ... : ... .. . ... : ... .. . ... : ... .. . ... ... : ... .. 3 ... ... : ... .. . ... ... : ... .. . ... ...

PATTERN 01
ROW 00 : ... .. 4 ... ... ... : ... .. 4 ... ... ... : ... .. . ... : ... .. . ... : ... .. . ... ... : ... .. 0 ... ... : ... .. . ... ... : ... .. 4 ... ...
ROW 01 : ... .. 3 ... ... ... : ... .. 3 ... ... ... : ... .. . ... : ... .. . ... : ... .. . ... ... : ... .. . ... ... : ... .. . ... ... : ... .. . ... ...
ROW 02 : ... .. 5 ... ... ... : ... .. 5 ... ... ... : ... .. . ... : 1-# 00 8 ... : ... .. . ... ... : ... .. . ... ... : ... .. 4 ... ... : ... .. F ... ...
ROW 03 : ... .. 8 ... ... ... : ... .. 8 ... ... ... : ... .. . ... : ... .. . ... : ... .. . ... ... : ... .. 3 ... ... : ... .. . ... ... : ... .. D ... ...
ROW 04 : ... .. 6 ... ... ... : ... .. 6 ... ... ... : ... .. . ... : ... .. . ... : ... .. . ... ... : ... .. . ... ... : ... .. . ... ... : ... .. 8 ... ...
ROW 05 : ... .. 4 ... ... ... : ... .. 4 ... ... ... : ... .. . ... : ... .. . ... : ... .. . ... ... : ... .. 0 ... ... : ... .. . ... ... : ... .. . ... ...
ROW 06 : ... .. . ... ... ... : ... .. . ... ... ... : ... .. . ... : ... .. . ... : ... .. . ... ... : ... .. . ... ... : ... .. . ... ... : ... .. 4 ... ...
ROW 07 : ... .. 7 ... ... ... : ... .. 7 ... ... ... : ... .. . ... : ... .. . ... : ... .. . ... ... : ... .. 1 ... ... : ... .. . ... ... : ... .. . ... ...
ROW 08 : ... .. . ... ... ... : ... .. . ... ... ... : ... .. . ... : 3-# 00 8 ... : ... .. . ... ... : ... .. 4 ... ... : ... .. . ... ... : ... .. F ... ...
ROW 09 : ... .. 4 ... ... ... : ... .. 4 ... ... ... : ... .. . ... : ... .. . ... : ... .. . ... ... : ... .. 2 ... ... : ... .. . ... ... : ... .. D ... ...
ROW 0A : ... .. . ... ... ... : ... .. . ... ... ... : ... .. . ... : ... .. . ... : ... .. . ... ... : ... .. 0 ... ... : ... .. . ... ... : ... .. 8 ... ...
ROW 0B : ... .. 6 ... ... ... : ... .. 6 ... ... ... : ... .. . ... : ... .. . ... : ... .. . ... ... : ... .. . ... ... : ... .. . ... ... : ... .. . ... ...
ROW 0C : ... .. 8 ... ... ... : ... .. 8 ... ... ... : ... .. . ... : ... .. . ... : ... .. . ... ... : ... .. 3 ... ... : ... .. . ... ... : ... .. 4 ... ...
ROW 0D : ... .. 5 ... ... ... : ... .. 5 ... ... ... : ... .. . ... : ... .. . ... : ... .. . ... ... : ... .. 4 ... ... : ... .. . ... ... : ... .. . ... ...
ROW 0E : ... .. 4 ... ... ... : ... .. 4 ... ... ... : ... .. . ... : ... .. . ... : ... .. . ... ... : ... .. 1 ... ... : ... .. . ... ... : ... .. F ... ...
ROW 0F : ... .. 5 ... ... ... : ... .. 5 ... ... ... : ... .. . ... : ... .. . ... : ... .. . ... ... : ... .. 0 ... ... : ... .. . ... ... : ... .. D ... ...
ROW 10 : ... .. 8 ... ... ... : ... .. 8 ... ... ... : ... .. . ... : ... .. . ... : ... .. . ... ... : ... .. 1 ... ... : ... .. . ... ... : ... .. 8 ... ...
ROW 11 : ... .. 5 ... ... ... : ... .. 5 ... ... ... : ... .. . ... : ... .. . ... : ... .. . ... ... : ... .. 4 ... ... : ... .. . ... ... : ... .. . ... ...
ROW 12 : ... .. 4 ... ... ... : ... .. 4 ... ... ... : ... .. . ... : ... .. . ... : ... .. . ... ... : ... .. 2 ... ... : ... .. . ... ... : ... .. 4 ... ...
ROW 13 : ... .. 5 ... ... ... : ... .. 5 ... ... ... : ... .. . ... : ... .. . ... : ... .. . ... ... : ... .. 0 ... ... : ... .. . ... ... : ... .. . ... ...
ROW 14 : ... .. 8 ... ... ... : ... .. 8 ... ... ... : ... .. . ... : 1-# 00 7 ... : ... .. . ... ... : ... .. . ... ... : ... .. . ... ... : ... .. F ... ...
ROW 15 : ... .. 6 ... ... ... : ... .. 6 ... ... ... : ... .. . ... : ... .. . ... : ... .. . ... ... : ... .. 2 ... ... : ... .. . ... ... : ... .. D ... ...
ROW 16 : ... .. 4 ... ... ... : ... .. 4 ... ... ... : ... .. . ... : ... .. . ... : ... .. . ... ... : ... .. 4 ... ... : ... .. . ... ... : ... .. 8 ... ...
ROW 17 : ... .. 5 ... ... ... : ... .. 5 ... ... ... : ... .. . ... : ... .. . ... : ... .. . ... ... : ... .. 1 ... ... : ... .. . ... ... : ... .. . ... ...
ROW 18 : ... .. 8 ... ... ... : ... .. 8 ... ... ... : ... .. . ... : ... .. . ... : ... .. . ... ... : ... .. 0 ... ... : ... .. . ... ... : ... .. 4 ... ...
ROW 19 : ... .. . ... ... ... : ... .. . ... ... ... : ... .. . ... : ... .. . ... : ... .. . ... ... : ... .. 1 ... ... : ... .. . ... ... : ... .. . ... ...
ROW 1A : ... .. 5 ... ... ... : ... .. 5 ... ... ... : ... .. . ... : ... .. . ... : ... .. . ... ... : ... .. 4 ... ... : ... .. . ... ... : ... .. F ... ...
ROW 1B : ... .. . ... ... ... : ... .. . ... ... ... : ... .. . ... : ... .. . ... : ... .. . ... ... : ... .. 3 ... ... : ... .. . ... ... : ... .. D ... ...
ROW 1C : ... .. 7 ... ... ... : ... .. 7 ... ... ... : ... .. . ... : ... .. . ... : ... .. . ... ... : ... .. 0 ... ... : ... .. . ... ... : ... .. 8 ... ...
ROW 1D : ... .. 9 ... ... ... : ... .. 9 ... ... ... : ... .. . ... : ... .. . ... : ... .. . ... ... : ... .. . ... ... : ... .. . ... ... : ... .. . ... ...
ROW 1E : ... .. 6 ... ... ... : ... .. 6 ... ... ... : ... .. . ... : ... .. . ... : ... .. . ... ... : ... .. 2 ... ... : ... .. . ... ... : ... .. 4 ... ...
ROW 1F : ... .. 5 ... ... ... : ... .. 5 ... ... ... : ... .. . ... : ... .. . ... : ... .. . ... ... : ... .. 4 ... ... : ... .. . ... ... : ... .. . ... ...
ROW 20 : B-2 00 3 ... ... ... : B-3 00 C ... ... ... : G-3 00 . ... : ... .. . ... : ... .. . ... ... : G#4 01 7 ... ... : D#4 01 A ... ... : G#1 01 F ... ...
ROW 21 : ... .. 2 ... ... ... : ... .. E ... ... ... : A-2 00 . ... : ... .. . ... : ... .. . ... ... : ... .. 5 ... ... : ... .. 9 ... ... : ... .. D ... ...
ROW 22 : ... .. . ... ... ... : ... .. B ... ... ... : D-2 00 . ... : ... .. . ... : ... .. . ... ... : ... .. 4 ... ... : ... .. 8 ... ... : ... .. 8 ... ...
ROW 23 : ... .. . ... ... ... : ... .. 5 ... ... ... : C#2 00 . ... : ... .. . ... : ... .. . ... ... : ... .. 5 ... ... : ... .. 6 ... ... : ... .. . ... ...
ROW 24 : ... .. . ... ... ... : ... .. . ... ... ... : G#1 00 . ... : ... .. . ... : ... .. . ... ... : ... .. . ... ... : ... .. . ... ... : ... .. 4 ... ...
ROW 25 : ... .. 1 ... ... ... : ... .. 9 ... ... ... : ... .. . ... : ... .. . ... : ... .. . ... ... : ... .. 1 ... ... : ... .. 5 ... ... : ... .. . ... ...
ROW 26 : A#2 00 3 ... ... ... : ... .. 8 ... ... ... : ... .. . ... : ... .. 6 ... : ... .. . ... ... : ... .. . ... ... : ... .. . ... ... : G#0 01 F ... ...
ROW 27 : ... .. 2 ... ... ... : ... .. 5 ... ... ... : ... .. . ... : ... .. . ... : ... .. . ... ... : ... .. . ... ... : ... .. 4 ... ... : ... .. D ... ...
ROW 28 : ... .. . ... ... ... : ... .. . ... ... ... : ... .. . ... : ... .. . ... : ... .. . ... ... : ... .. 4 ... ... : ... .. . ... ... : ... .. 8 ... ...
ROW 29 : ... .. . ... ... ... : ... .. 8 ... ... ... : ... .. . ... : ... .. . ... : ... .. . ... ... : ... .. 2 ... ... : ... .. . ... ... : ... .. . ... ...
ROW 2A : ... .. . ... ... ... : ... .. 9 ... ... ... : ... .. . ... : ... .. . ... : ... .. . ... ... : ... .. 0 ... ... : ... .. . ... ... : ... .. 4 ... ...
ROW 2B : ... .. 1 ... ... ... : ... .. 5 ... ... ... : ... .. . ... : ... .. . ... : ... .. . ... ... : ... .. . ... ... : ... .. . ... ... : ... .. . ... ...
ROW 2C : G#2 00 3 ... ... ... : ... .. 4 ... ... ... : ... .. . ... : ... .. . ... : ... .. . ... ... : ... .. 3 ... ... : ... .. . ... ... : ... .. F ... ...
ROW 2D : ... .. 2 ... ... ... : ... .. 6 ... ... ... : ... .. . ... : ... .. . ... : ... .. . ... ... : ... .. 4 ... ... : ... .. . ... ... : ... .. D ... ...
ROW 2E : ... .. . ... ... ... : ... .. 8 ... ... ... : ... .. . ... : ... .. . ... : ... .. . ... ... : ... .. 1 ... ... : ... .. . ... ... : ... .. 8 ... ...
ROW 2F : ... .. . ... ... ... : ... .. 5 ... ... ... : ... .. . ... : ... .. . ... : ... .. . ... ... : ... .. 0 ... ... : ... .. . ... ... : ... .. . ... ...
ROW 30 : ... .. . ... ... ... : ... .. 4 ... ... ... : ... .. . ... : ... .. . ... : ... .. . ... ... : ... .. 1 ... ... : ... .. . ... ... : ... .. 4 ... ...
ROW 31 : ... .. 1 ... ... ... : ... .. 5 ... ... ... : ... .. . ... : ... .. . ... : ... .. . ... ... : ... .. 4 ... ... : ... .. . ... ... : ... .. . ... ...
ROW 32 : A#2 00 3 ... ... ... : ... .. 8 ... ... ... : ... .. . ... : ... .. . ... : ... .. . ... ... : ... .. 2 ... ... : ... .. . ... ... : ... .. F ... ...
ROW 33 : ... .. 2 ... ... ... : ... .. 6 ... ... ... : ... .. . ... : ... .. . ... : ... .. . ... ... : ... .. 0 ... ... : ... .. . ... ... : ... .. D ... ...
ROW 34 : ... .. . ... ... ... : ... .. 4 ... ... ... : ... .. . ... : ... .. . ... : ... .. . ... ... : ... .. . ... ... : ... .. . ... ... : ... .. 8 ... ...
ROW 35 : ... .. . ... ... ... : ... .. . ... ... ... : ... .. . ... : ... .. . ... : ... .. . ... ... : ... .. 2 ... ... : ... .. . ... ... : ... .. . ... ...
ROW 36 : ... .. . ... ... ... : ... .. 7 ... ... ... : ... .. . ... : ... .. . ... : ... .. . ... ... : ... .. 4 ... ... : ... .. . ... ... : ... .. 4 ... ...
ROW 37 : ... .. 1 ... ... ... : ... .. . ... ... ... : ... .. . ... : ... .. . ... : ... .. . ... ... : ... .. 1 ... ... : ... .. . ... ... : ... .. . ... ...
ROW 38 : B-2 00 3 ... ... ... : ... .. 4 ... ... ... : ... .. . ... : 0-# 00 5 ... : ... .. . ... ... : ... .. 0 ... ... : ... .. . ... ... : ... .. F ... ...
ROW 39 : ... .. 2 ... ... ... : ... .. . ... ... ... : ... .. . ... : ... .. . ... : ... .. . ... ... : ... .. 1 ... ... : ... .. . ... ... : ... .. D ... ...
ROW 3A : ... .. . ... ... ... : ... .. 6 ... ... ... : ... .. . ... : ... .. . ... : ... .. . ... ... : ... .. 4 ... ... : ... .. . ... ... : ... .. 8 ... ...
ROW 3B : ... .. 3 ... ... ... : ... .. 8 ... ... ... : ... .. . ... : ... .. . ... : ... .. . ... ... : ... .. 3 ... ... : ... .. . ... ... : ... .. . ... ...
ROW 3C : ... .. 2 ... ... ... : ... .. 5 ... ... ... : ... .. . ... : ... .. . ... : ... .. . ... ... : ... .. 0 ... ... : ... .. . ... ... : ... .. 4 ... ...
ROW 3D : ... .. . ... ... ... : ... .. 4 ... ... ... : ... .. . ... : ... .. . ... : ... .. . ... ... : ... .. . ... ... : ... .. . ... ... : ... .. . ... ...
ROW 3E : C#3 00 4 ... ... ... : ... .. 5 ... ... ... : ... .. . ... : ... .. . ... : ... .. . ... ... : ... .. 2 ... ... : ... .. . ... ... : ... .. F ... ...
ROW 3F : ... .. 3 ... ... ... : ... .. 8 ... ... ... : ... .. . ... : ... .. . ... : ... .. . ... ... : ... .. 4 ... ... : ... .. . ... ... : ... .. D ... ...
ROW 40 : ... .. . ... ... ... : ... .. 5 ... ... ... : ... .. . ... : ... .. . ... : ... .. . ... ... : ... .. 1 ... ... : ... .. . ... ... : ... .. 8 ... ...
ROW 41 : ... .. . ... ... ... : ... .. 3 ... ... ... : ... .. . ... : ... .. . ... : ... .. . ... ... : ... .. 0 ... ... : ... .. 3 ... ... : ... .. . ... ...
ROW 42 : ... .. 2 ... ... ... : ... .. 4 ... ... ... : ... .. . ... : ... .. . ... : ... .. . ... ... : ... .. . ... ... : ... .. . ... ... : ... .. 4 ... ...
ROW 43 : ... .. . ... ... ... : ... .. 7 ... ... ... : ... .. . ... : ... .. . ... : ... .. . ... ... : ... .. 2 ... ... : ... .. . ... ... : ... .. . ... ...
ROW 44 : B-2 00 4 ... ... ... : ... .. 5 ... ... ... : ... .. . ... : ... .. . ... : ... .. . ... ... : ... .. . ... ... : ... .. . ... ... : ... .. F ... ...
ROW 45 : ... .. 3 ... ... ... : ... .. 3 ... ... ... : ... .. . ... : ... .. . ... : ... .. . ... ... : ... .. 0 ... ... : ... .. . ... ... : ... .. D ... ...
ROW 46 : ... .. . ... ... ... : ... .. . ... ... ... : ... .. . ... : ... .. . ... : ... .. . ... ... : ... .. . ... ... : ... .. . ... ... : ... .. 8 ... ...
ROW 47 : ... .. . ... ... ... : ... .. 6 ... ... ... : ... .. . ... : ... .. . ... : ... .. . ... ... : ... .. . ... ... : ... .. . ... ... : ... .. . ... ...
ROW 48 : ... .. 2 ... ... ... : ... .. . ... ... ... : ... .. . ... : ... .. . ... : ... .. . ... ... : ... .. 3 ... ... : ... .. . ... ... : ... .. 4 ... ...
ROW 49 : ... .. . ... ... ... : ... .. 3 ... ... ... : ... .. . ... : ... .. . ... : ... .. . ... ... : ... .. 1 ... ... : ... .. . ... ... : ... .. . ... ...
ROW 4A : A#2 00 4 ... ... ... : ... .. 2 ... ... ... : ... .. . ... : ... .. 4 ... : ... .. . ... ... : ... .. 0 ... ... : ... .. . ... ... : ... .. F ... ...
ROW 4B : ... .. 3 ... ... ... : ... .. 4 ... ... ... : ... .. . ... : ... .. . ... : ... .. . ... ... : ... .. . ... ... : ... .. . ... ... : ... .. D ... ...
ROW 4C : ... .. . ... ... ... : ... .. 6 ... ... ... : ... .. . ... : ... .. . ... : ... .. . ... ... : ... .. 2 ... ... : ... .. . ... ... : ... .. 8 ... ...
ROW 4D : ... .. . ... ... ... : ... .. 3 ... ... ... : ... .. . ... : ... .. . ... : ... .. . ... ... : ... .. 3 ... ... : ... .. . ... ... : ... .. . ... ...
ROW 4E : ... .. 2 ... ... ... : ... .. 2 ... ... ... : ... .. . ... : ... .. . ... : ... .. . ... ... : ... .. 0 ... ... : ... .. . ... ... : ... .. 4 ... ...
ROW 4F : ... .. . ... ... ... : ... .. 3 ... ... ... : ... .. . ... : ... .. . ... : ... .. . ... ... : ... .. . ... ... : ... .. . ... ... : ... .. . ... ...
ROW 50 : G#2 00 4 ... ... ... : ... .. 6 ... ... ... : ... .. . ... : 1-# 00 4 ... : ... .. . ... ... : ... .. . ... ... : ... .. . ... ... : ... .. F ... ...
ROW 51 : ... .. 3 ... ... ... : ... .. 3 ... ... ... : ... .. . ... : ... .. . ... : ... .. . ... ... : ... .. 3 ... ... : ... .. . ... ... : ... .. D ... ...
ROW 52 : ... .. . ... ... ... : ... .. 2 ... ... ... : ... .. . ... : ... .. . ... : ... .. . ... ... : ... .. 1 ... ... : ... .. . ... ... : ... .. 8 ... ...
ROW 53 : ... .. . ... ... ... : ... .. 3 ... ... ... : ... .. . ... : ... .. . ... : ... .. . ... ... : ... .. 0 ... ... : ... .. . ... ... : ... .. . ... ...
ROW 54 : ... .. 2 ... ... ... : ... .. 6 ... ... ... : ... .. . ... : ... .. . ... : ... .. . ... ... : ... .. . ... ... : ... .. . ... ... : ... .. 4 ... ...
ROW 55 : ... .. . ... ... ... : ... .. 4 ... ... ... : ... .. . ... : ... .. . ... : ... .. . ... ... : ... .. 1 ... ... : ... .. . ... ... : ... .. . ... ...
ROW 56 : A#2 00 5 ... ... ... : ... .. 2 ... ... ... : ... .. . ... : ... .. . ... : ... .. . ... ... : ... .. 3 ... ... : ... .. . ... ... : ... .. F ... ...
ROW 57 : ... .. 4 ... ... ... : ... .. . ... ... ... : ... .. . ... : ... .. . ... : ... .. . ... ... : ... .. 0 ... ... : ... .. . ... ... : ... .. D ... ...
ROW 58 : ... .. . ... ... ... : ... .. 5 ... ... ... : ... .. . ... : ... .. . ... : ... .. . ... ... : ... .. . ... ... : ... .. . ... ... : ... .. 8 ... ...
ROW 59 : ... .. . ... ... ... : ... .. . ... ... ... : ... .. . ... : ... .. . ... : ... .. . ... ... : ... .. . ... ... : ... .. . ... ... : ... .. . ... ...
ROW 5A : ... .. 3 ... ... ... : ... .. 2 ... ... ... : ... .. . ... : ... .. . ... : ... .. . ... ... : ... .. 3 ... ... : ... .. . ... ... : ... .. 4 ... ...
ROW 5B : ... .. 2 ... ... ... : ... .. . ... ... ... : ... .. . ... : ... .. . ... : ... .. . ... ... : ... .. 2 ... ... : ... .. . ... ... : ... .. . ... ...
ROW 5C : B-2 00 5 ... ... ... : ... .. 4 ... ... ... : ... .. . ... : 3-# 00 3 ... : ... .. . ... ... : ... .. 0 ... ... : ... .. . ... ... : ... .. F ... ...
ROW 5D : ... .. 4 ... ... ... : ... .. 6 ... ... ... : ... .. . ... : ... .. . ... : ... .. . ... ... : ... .. . ... ... : ... .. . ... ... : ... .. D ... ...
ROW 5E : ... .. . ... ... ... : ... .. 3 ... ... ... : ... .. . ... : ... .. . ... : ... .. . ... ... : ... .. 1 ... ... : ... .. . ... ... : ... .. 8 ... ...
ROW 5F : ... .. . ... ... ... : ... .. 1 ... ... ... : ... .. . ... : ... .. . ... : ... .. . ... ... : ... .. 2 ... ... : ... .. 2 ... ... : ... .. . ... ...
ROW 60 : ... .. 3 ... ... ... : ... .. 2 ... ... ... : ... .. . ... : ... .. . ... : ... .. . ... ... : ... .. 0 ... ... : ... .. . ... ... : ... .. 4 ... ...
ROW 61 : ... .. 2 ... ... ... : ... .. 5 ... ... ... : ... .. . ... : ... .. . ... : ... .. . ... ... : ... .. . ... ... : ... .. . ... ... : ... .. . ... ...
ROW 62 : C#3 00 5 ... ... ... : ... .. 3 ... ... ... : ... .. . ... : 0-# 00 3 ... : ... .. . ... ... : ... .. . ... ... : ... .. . ... ... : ... .. F ... ...
ROW 63 : ... .. 4 ... ... ... : ... .. 1 ... ... ... : ... .. . ... : ... .. . ... : ... .. . ... ... : ... .. 1 ... ... : ... .. . ... ... : ... .. D ... ...
ROW 64 : ... .. . ... ... ... : ... .. . ... ... ... : ... .. . ... : ... .. . ... : ... .. . ... ... : ... .. . ... ... : ... .. . ... ... : ... .. 8 ... ...
ROW 65 : ... .. . ... ... ... : ... .. 5 ... ... ... : ... .. . ... : ... .. . ... : ... .. . ... ... : ... .. 0 ... ... : ... .. . ... ... : ... .. . ... ...
ROW 66 : ... .. 3 ... ... ... : ... .. 4 ... ... ... : ... .. . ... : ... .. . ... : ... .. . ... ... : ... .. . ... ... : ... .. . ... ... : ... .. 4 ... ...
ROW 67 : ... .. 2 ... ... ... : ... .. 1 ... ... ... : ... .. . ... : ... .. . ... : ... .. . ... ... : ... .. . ... ... : ... .. . ... ... : ... .. . ... ...
ROW 68 : D-3 00 5 ... ... ... : D-4 00 4 ... ... ... : ... .. . ... : 2-# 00 3 ... : ... .. . ... ... : A-4 01 5 ... ... : F-4 01 5 ... ... : G#1 01 F ... ...
ROW 69 : ... .. 4 ... ... ... : ... .. 6 ... ... ... : ... .. . ... : ... .. . ... : ... .. . ... ... : ... .. 2 ... ... : ... .. 4 ... ... : ... .. D ... ...
ROW 6A : ... .. . ... ... ... : ... .. . ... ... ... : ... .. . ... : ... .. . ... : ... .. . ... ... : ... .. 0 ... ... : ... .. . ... ... : ... .. 8 ... ...
ROW 6B : ... .. . ... ... ... : ... .. 1 ... ... ... : ... .. . ... : ... .. . ... : ... .. . ... ... : ... .. . ... ... : ... .. 3 ... ... : ... .. . ... ...
ROW 6C : ... .. 3 ... ... ... : ... .. . ... ... ... : ... .. . ... : ... .. . ... : ... .. . ... ... : ... .. 2 ... ... : ... .. . ... ... : ... .. 4 ... ...
ROW 6D : ... .. 2 ... ... ... : ... .. 3 ... ... ... : ... .. . ... : ... .. . ... : ... .. . ... ... : ... .. 3 ... ... : ... .. . ... ... : ... .. . ... ...
ROW 6E : C#3 00 6 ... ... ... : ... .. 5 ... ... ... : ... .. . ... : F-# 00 3 ... : ... .. . ... ... : ... .. 0 ... ... : ... .. . ... ... : G#0 01 F ... ...
ROW 6F : ... .. 5 ... ... ... : ... .. 2 ... ... ... : ... .. . ... : ... .. . ... : ... .. . ... ... : ... .. . ... ... : ... .. 2 ... ... : ... .. D ... ...
ROW 70 : ... .. . ... ... ... : ... .. 1 ... ... ... : ... .. . ... : ... .. . ... : ... .. . ... ... : ... .. . ... ... : ... .. . ... ... : ... .. 8 ... ...
ROW 71 : ... .. 4 ... ... ... : ... .. 2 ... ... ... : ... .. . ... : ... .. . ... : ... .. . ... ... : ... .. 2 ... ... : ... .. . ... ... : ... .. . ... ...
ROW 72 : ... .. 3 ... ... ... : ... .. 5 ... ... ... : ... .. . ... : ... .. . ... : ... .. . ... ... : ... .. 0 ... ... : ... .. . ... ... : ... .. 4 ... ...
ROW 73 : ... .. . ... ... ... : ... .. 3 ... ... ... : ... .. . ... : ... .. . ... : ... .. . ... ... : ... .. . ... ... : ... .. . ... ... : ... .. . ... ...
ROW 74 : D-3 00 6 ... ... ... : ... .. 2 ... ... ... : ... .. . ... : 2-# 00 3 ... : ... .. . ... ... : ... .. . ... ... : ... .. 3 ... ... : ... .. F ... ...
ROW 75 : ... .. 5 ... ... ... : ... .. . ... ... ... : ... .. . ... : ... .. . ... : ... .. . ... ... : ... .. 1 ... ... : ... .. . ... ... : ... .. D ... ...
ROW 76 : ... .. . ... ... ... : ... .. 5 ... ... ... : ... .. . ... : ... .. . ... : ... .. . ... ... : ... .. 3 ... ... : ... .. . ... ... : ... .. 8 ... ...
ROW 77 : ... .. 4 ... ... ... : ... .. . ... ... ... : ... .. . ... : ... .. . ... : ... .. . ... ... : ... .. 0 ... ... : ... .. . ... ... : ... .. . ... ...
ROW 78 : ... .. 3 ... ... ... : ... .. 2 ... ... ... : ... .. . ... : ... .. . ... : ... .. . ... ... : ... .. . ... ... : ... .. . ... ... : ... .. 4 ... ...
ROW 79 : ... .. . ... ... ... : ... .. . ... ... ... : ... .. . ... : ... .. . ... : ... .. . ... ... : ... .. . ... ... : ... .. . ... ... : ... .. . ... ...
ROW 7A : E-3 00 6 ... ... ... : ... .. 4 ... ... ... : ... .. . ... : ... .. . ... : ... .. . ... ... : ... .. 3 ... ... : ... .. . ... ... : ... .. F ... ...
ROW 7B : ... .. 5 ... ... ... : ... .. 6 ... ... ... : ... .. . ... : ... .. . ... : ... .. . ... ... : ... .. 2 ... ... : ... .. . ... ... : ... .. D ... ...
ROW 7C : ... .. . ... ... ... : ... .. 3 ... ... ... : ... .. . ... : ... .. . ... : ... .. . ... ... : ... .. 0 ... ... : ... .. . ... ... : ... .. 8 ... ...
ROW 7D : ... .. 4 ... ... ... : ... .. 2 ... ... ... : ... .. . ... : ... .. . ... : ... .. . ... ... : ... .. . ... ... : ... .. . ... ... : ... .. . ... ...
ROW 7E : ... .. 3 ... ... ... : ... .. 3 ... ... ... : ... .. . ... : ... .. . ... : ... .. . ... ... : ... .. 1 ... ... : ... .. . ... ... : ... .. 4 ... ...
ROW 7F : ... .. . ... ... ... : ... .. 6 ... ... ... : ... .. . ... : ... .. . ... : ... .. . ... ... : ... .. 3 ... ... : ... .. . ... ... : ... .. . ... ...
ROW 80 : D-3 00 6 ... ... ... : ... .. 3 ... ... ... : ... .. . ... : 3-# 00 4 ... : ... .. . ... ... : ... .. 0 ... ... : ... .. . ... ... : ... .. F ... ...
ROW 81 : ... .. 5 ... ... ... : ... .. 2 ... ... ... : ... .. . ... : ... .. . ... : ... .. . ... ... : ... .. . ... ... : ... .. . ... ... : ... .. D ... ...
ROW 82 : ... .. . ... ... ... : ... .. 3 ... ... ... : ... .. . ... : ... .. . ... : ... .. . ... ... : ... .. . ... ... : ... .. . ... ... : ... .. 8 ... ...
ROW 83 : ... .. 4 ... ... ... : ... .. 6 ... ... ... : ... .. . ... : ... .. . ... : ... .. . ... ... : ... .. 2 ... ... : ... .. . ... ... : ... .. . ... ...
ROW 84 : ... .. 3 ... ... ... : ... .. 4 ... ... ... : ... .. . ... : ... .. . ... : ... .. . ... ... : ... .. . ... ... : ... .. . ... ... : ... .. 4 ... ...
ROW 85 : ... .. . ... ... ... : ... .. 2 ... ... ... : ... .. . ... : ... .. . ... : ... .. . ... ... : ... .. 0 ... ... : ... .. . ... ... : ... .. . ... ...
ROW 86 : C#3 00 6 ... ... ... : ... .. . ... ... ... : ... .. . ... : ... .. . ... : ... .. . ... ... : ... .. . ... ... : ... .. . ... ... : ... .. F ... ...
ROW 87 : ... .. 5 ... ... ... : ... .. 5 ... ... ... : ... .. . ... : ... .. . ... : ... .. . ... ... : ... .. . ... ... : ... .. . ... ... : ... .. D ... ...
ROW 88 : ... .. . ... ... ... : ... .. . ... ... ... : ... .. . ... : ... .. . ... : ... .. . ... ... : ... .. 3 ... ... : ... .. . ... ... : ... .. 8 ... ...
ROW 89 : ... .. . ... ... ... : ... .. 3 ... ... ... : ... .. . ... : ... .. . ... : ... .. . ... ... : ... .. 1 ... ... : ... .. . ... ... : ... .. . ... ...
ROW 8A : ... .. 4 ... ... ... : ... .. . ... ... ... : ... .. . ... : ... .. . ... : ... .. . ... ... : ... .. 0 ... ... : ... .. . ... ... : ... .. 4 ... ...
ROW 8B : ... .. 3 ... ... ... : ... .. 5 ... ... ... : ... .. . ... : ... .. . ... : ... .. . ... ... : ... .. . ... ... : ... .. . ... ... : ... .. . ... ...
ROW 8C : D-3 00 6 ... ... ... : ... .. 7 ... ... ... : ... .. . ... : ... .. . ... : ... .. . ... ... : ... .. 2 ... ... : ... .. . ... ... : ... .. F ... ...
ROW 8D : ... .. 5 ... ... ... : ... .. 4 ... ... ... : ... .. . ... : ... .. . ... : ... .. . ... ... : ... .. 3 ... ... : ... .. . ... ... : ... .. D ... ...
ROW 8E : ... .. . ... ... ... : ... .. 3 ... ... ... : ... .. . ... : ... .. . ... : ... .. . ... ... : ... .. 0 ... ... : ... .. . ... ... : ... .. 8 ... ...
ROW 8F : ... .. . ... ... ... : ... .. 4 ... ... ... : ... .. . ... : ... .. . ... : ... .. . ... ... : ... .. . ... ... : ... .. . ... ... : ... .. . ... ...
ROW 90 : ... .. 4 ... ... ... : ... .. 7 ... ... ... : ... .. . ... : ... .. . ... : ... .. . ... ... : ... .. . ... ... : ... .. . ... ... : ... .. 4 ... ...
ROW 91 : ... .. 3 ... ... ... : ... .. 4 ... ... ... : ... .. . ... : ... .. . ... : ... .. . ... ... : ... .. 3 ... ... : ... .. . ... ... : ... .. . ... ...
ROW 92 : C#3 00 6 ... ... ... : ... .. . ... ... ... : ... .. . ... : ... .. 5 ... : ... .. . ... ... : ... .. 2 ... ... : ... .. 4 ... ... : ... .. F ... ...
ROW 93 : ... .. 5 ... ... ... : ... .. 5 ... ... ... : ... .. . ... : ... .. . ... : ... .. . ... ... : ... .. 0 ... ... : ... .. . ... ... : ... .. D ... ...
ROW 94 : ... .. . ... ... ... : ... .. 8 ... ... ... : ... .. . ... : ... .. . ... : ... .. . ... ... : ... .. . ... ... : ... .. . ... ... : ... .. 8 ... ...
ROW 95 : ... .. . ... ... ... : ... .. 6 ... ... ... : ... .. . ... : ... .. . ... : ... .. . ... ... : ... .. 2 ... ... : ... .. . ... ... : ... .. . ... ...
ROW 96 : ... .. 4 ... ... ... : ... .. 4 ... ... ... : ... .. . ... : ... .. . ... : ... .. . ... ... : ... .. 4 ... ... : ... .. . ... ... : ... .. 4 ... ...
ROW 97 : ... .. 3 ... ... ... : ... .. . ... ... ... : ... .. . ... : ... .. . ... : ... .. . ... ... : ... .. 1 ... ... : ... .. . ... ... : ... .. . ... ...
ROW 98 : D-3 00 6 ... ... ... : ... .. 7 ... ... ... : ... .. . ... : ... .. . ... : ... .. . ... ... : ... .. 0 ... ... : ... .. . ... ... : ... .. F ... ...
ROW 99 : ... .. 5 ... ... ... : ... .. . ... ... ... : ... .. . ... : ... .. . ... : ... .. . ... ... : ... .. 1 ... ... : ... .. . ... ... : ... .. D ... ...
ROW 9A : ... .. . ... ... ... : ... .. 4 ... ... ... : ... .. . ... : ... .. . ... : ... .. . ... ... : ... .. 4 ... ... : ... .. . ... ... : ... .. 8 ... ...
ROW 9B : ... .. . ... ... ... : ... .. . ... ... ... : ... .. . ... : ... .. . ... : ... .. . ... ... : ... .. 3 ... ... : ... .. . ... ... : ... .. . ... ...
ROW 9C : ... .. 4 ... ... ... : ... .. 6 ... ... ... : ... .. . ... : ... .. . ... : ... .. . ... ... : ... .. 0 ... ... : ... .. . ... ... : ... .. 4 ... ...
ROW 9D : ... .. 3 ... ... ... : ... .. 8 ... ... ... : ... .. . ... : ... .. . ... : ... .. . ... ... : ... .. . ... ... : ... .. . ... ... : ... .. . ... ...
ROW 9E : E-3 00 6 ... ... ... : ... .. 5 ... ... ... : ... .. . ... : ... .. . ... : ... .. . ... ... : ... .. 2 ... ... : ... .. . ... ... : ... .. F ... ...
ROW 9F : ... .. 5 ... ... ... : ... .. 4 ... ... ... : ... .. . ... : ... .. . ... : ... .. . ... ... : ... .. 4 ... ... : ... .. . ... ... : ... .. D ... ...
ROW A0 : ... .. . ... ... ... : ... .. 5 ... ... ... : ... .. . ... : ... .. . ... : ... .. . ... ... : ... .. 1 ... ... : ... .. . ... ... : ... .. 8 ... ...
ROW A1 : ... .. . ... ... ... : ... .. 8 ... ... ... : ... .. . ... : ... .. . ... : ... .. . ... ... : ... .. 0 ... ... : ... .. . ... ... : ... .. . ... ...
ROW A2 : ... .. 4 ... ... ... : ... .. 6 ... ... ... : ... .. . ... : ... .. . ... : ... .. . ... ... : ... .. . ... ... : ... .. . ... ... : ... .. 4 ... ...
ROW A3 : ... .. 3 ... ... ... : ... .. 4 ... ... ... : ... .. . ... : ... .. . ... : ... .. . ... ... : ... .. 3 ... ... : ... .. . ... ... : ... .. . ... ...
ROW A4 : F-3 00 7 ... ... ... : ... .. . ... ... ... : ... .. . ... : ... .. 6 ... : ... .. . ... ... : ... .. . ... ... : ... .. . ... ... : ... .. F ... ...
ROW A5 : ... .. 6 ... ... ... : ... .. 8 ... ... ... : ... .. . ... : ... .. . ... : ... .. . ... ... : ... .. 0 ... ... : ... .. . ... ... : ... .. D ... ...
ROW A6 : ... .. . ... ... ... : ... .. 7 ... ... ... : ... .. . ... : ... .. . ... : ... .. . ... ... : ... .. . ... ... : ... .. . ... ... : ... .. 8 ... ...
ROW A7 : ... .. . ... ... ... : ... .. 5 ... ... ... : ... .. . ... : ... .. . ... : ... .. . ... ... : ... .. 1 ... ... : ... .. . ... ... : ... .. . ... ...
ROW A8 : ... .. 4 ... ... ... : ... .. . ... ... ... : ... .. . ... : ... .. . ... : ... .. . ... ... : ... .. 4 ... ... : ... .. . ... ... : ... .. 4 ... ...
ROW A9 : ... .. . ... ... ... : ... .. 8 ... ... ... : ... .. . ... : ... .. . ... : ... .. . ... ... : ... .. 2 ... ... : ... .. . ... ... : ... .. . ... ...
ROW AA : G-3 00 7 ... ... ... : ... .. 9 ... ... ... : ... .. . ... : ... .. . ... : ... .. . ... ... : ... .. 0 ... ... : ... .. . ... ... : ... .. F ... ...
ROW AB : ... .. 6 ... ... ... : ... .. 5 ... ... ... : ... .. . ... : ... .. . ... : ... .. . ... ... : ... .. . ... ... : ... .. . ... ... : ... .. D ... ...
ROW AC : ... .. . ... ... ... : ... .. . ... ... ... : ... .. . ... : ... .. . ... : ... .. . ... ... : ... .. 3 ... ... : ... .. . ... ... : ... .. 8 ... ...
ROW AD : ... .. . ... ... ... : ... .. 7 ... ... ... : ... .. . ... : ... .. . ... : ... .. . ... ... : ... .. 4 ... ... : ... .. . ... ... : ... .. . ... ...
ROW AE : ... .. 4 ... ... ... : ... .. 9 ... ... ... : ... .. . ... : ... .. . ... : ... .. . ... ... : ... .. 1 ... ... : ... .. . ... ... : ... .. 4 ... ...
ROW AF : ... .. . ... ... ... : ... .. 6 ... ... ... : ... .. . ... : ... .. . ... : ... .. . ... ... : ... .. 0 ... ... : ... .. . ... ... : ... .. . ... ...
ROW B0 : G#3 00 7 ... ... ... : ... .. B ... ... ... : G-4 00 . ... : ... .. . ... : ... .. . ... ... : B-4 01 7 ... ... : F#4 01 A ... ... : G#1 01 F ... ...
ROW B1 : ... .. 6 ... ... ... : ... .. . ... ... ... : A-3 00 . ... : ... .. . ... : ... .. . ... ... : ... .. 9 ... ... : ... .. 9 ... ... : ... .. D ... ...
ROW B2 : ... .. . ... ... ... : ... .. D ... ... ... : D-3 00 . ... : ... .. . ... : ... .. . ... ... : ... .. 6 ... ... : ... .. 8 ... ... : ... .. 8 ... ...
ROW B3 : ... .. . ... ... ... : ... .. 7 ... ... ... : C#3 00 . ... : ... .. . ... : ... .. . ... ... : ... .. 2 ... ... : ... .. 6 ... ... : ... .. . ... ...
ROW B4 : ... .. 4 ... ... ... : ... .. 5 ... ... ... : G#2 00 . ... : ... .. . ... : ... .. . ... ... : ... .. . ... ... : ... .. . ... ... : ... .. 4 ... ...
ROW B5 : ... .. . ... ... ... : ... .. . ... ... ... : ... .. . ... : ... .. . ... : ... .. . ... ... : ... .. 3 ... ... : ... .. 5 ... ... : ... .. . ... ...
ROW B6 : A#3 00 7 ... ... ... : ... .. 8 ... ... ... : ... .. . ... : ... .. 7 ... : ... .. . ... ... : ... .. 5 ... ... : ... .. . ... ... : G#0 01 F ... ...
ROW B7 : ... .. 6 ... ... ... : ... .. . ... ... ... : ... .. . ... : ... .. . ... : ... .. . ... ... : ... .. 1 ... ... : ... .. 4 ... ... : ... .. D ... ...
ROW B8 : ... .. . ... ... ... : ... .. 5 ... ... ... : ... .. . ... : ... .. . ... : ... .. . ... ... : ... .. 0 ... ... : ... .. . ... ... : ... .. 8 ... ...
ROW B9 : ... .. . ... ... ... : ... .. . ... ... ... : ... .. . ... : ... .. . ... : ... .. . ... ... : ... .. 1 ... ... : ... .. . ... ... : ... .. . ... ...
ROW BA : ... .. 4 ... ... ... : ... .. 7 ... ... ... : ... .. . ... : ... .. . ... : ... .. . ... ... : ... .. 4 ... ... : ... .. . ... ... : ... .. 4 ... ...
ROW BB : ... .. . ... ... ... : ... .. 9 ... ... ... : ... .. . ... : ... .. . ... : ... .. . ... ... : ... .. 3 ... ... : ... .. . ... ... : ... .. . ... ...
ROW BC : G#3 00 8 ... ... ... : ... .. 5 ... ... ... : ... .. . ... : 2-# 00 7 ... : ... .. . ... ... : ... .. 0 ... ... : ... .. . ... ... : ... .. F ... ...
ROW BD : ... .. 7 ... ... ... : ... .. 4 ... ... ... : ... .. . ... : ... .. . ... : ... .. . ... ... : ... .. . ... ... : ... .. . ... ... : ... .. D ... ...
ROW BE : ... .. . ... ... ... : ... .. 5 ... ... ... : ... .. . ... : ... .. . ... : ... .. . ... ... : ... .. 2 ... ... : ... .. . ... ... : ... .. 8 ... ...
ROW BF : ... .. 6 ... ... ... : ... .. 8 ... ... ... : ... .. . ... : ... .. . ... : ... .. . ... ... : ... .. 4 ... ... : ... .. . ... ... : ... .. . ... ...
ROW C0 : ... .. 5 ... ... ... : ... .. 5 ... ... ... : ... .. . ... : ... .. . ... : ... .. . ... ... : ... .. 1 ... ... : ... .. . ... ... : ... .. 4 ... ...
ROW C1 : ... .. 4 ... ... ... : ... .. 4 ... ... ... : ... .. . ... : ... .. . ... : ... .. . ... ... : ... .. 0 ... ... : ... .. . ... ... : ... .. . ... ...
ROW C2 : G-3 00 8 ... ... ... : ... .. 5 ... ... ... : ... .. . ... : ... .. . ... : ... .. . ... ... : ... .. . ... ... : ... .. . ... ... : ... .. F ... ...
ROW C3 : ... .. 7 ... ... ... : ... .. 8 ... ... ... : ... .. . ... : ... .. . ... : ... .. . ... ... : ... .. 3 ... ... : ... .. . ... ... : ... .. D ... ...
ROW C4 : ... .. . ... ... ... : ... .. 6 ... ... ... : ... .. . ... : ... .. . ... : ... .. . ... ... : ... .. . ... ... : ... .. . ... ... : ... .. 8 ... ...
ROW C5 : ... .. 6 ... ... ... : ... .. 4 ... ... ... : ... .. . ... : ... .. 8 ... : ... .. . ... ... : ... .. 0 ... ... : ... .. . ... ... : ... .. . ... ...
ROW C6 : ... .. 5 ... ... ... : ... .. . ... ... ... : ... .. . ... : ... .. . ... : ... .. . ... ... : ... .. . ... ... : ... .. . ... ... : ... .. 4 ... ...
ROW C7 : ... .. 4 ... ... ... : ... .. 7 ... ... ... : ... .. . ... : ... .. . ... : ... .. . ... ... : ... .. 1 ... ... : ... .. . ... ... : ... .. . ... ...
ROW C8 : G#3 00 8 ... ... ... : ... .. . ... ... ... : ... .. . ... : ... .. . ... : ... .. . ... ... : ... .. 4 ... ... : ... .. . ... ... : ... .. F ... ...
ROW C9 : ... .. 7 ... ... ... : ... .. 4 ... ... ... : ... .. . ... : ... .. . ... : ... .. . ... ... : ... .. 2 ... ... : ... .. . ... ... : ... .. D ... ...
ROW CA : ... .. . ... ... ... : ... .. . ... ... ... : ... .. . ... : ... .. . ... : ... .. . ... ... : ... .. 0 ... ... : ... .. . ... ... : ... .. 8 ... ...
ROW CB : ... .. 6 ... ... ... : ... .. 6 ... ... ... : ... .. . ... : ... .. . ... : ... .. . ... ... : ... .. . ... ... : ... .. . ... ... : ... .. . ... ...
ROW CC : ... .. 5 ... ... ... : ... .. 8 ... ... ... : ... .. . ... : ... .. . ... : ... .. . ... ... : ... .. 3 ... ... : ... .. . ... ... : ... .. 4 ... ...
ROW CD : ... .. 4 ... ... ... : ... .. 5 ... ... ... : ... .. . ... : ... .. . ... : ... .. . ... ... : ... .. 4 ... ... : ... .. . ... ... : ... .. . ... ...
ROW CE : A#3 00 8 ... ... ... : ... .. 4 ... ... ... : ... .. . ... : ... .. . ... : ... .. . ... ... : ... .. 1 ... ... : ... .. . ... ... : ... .. F ... ...
ROW CF : ... .. 7 ... ... ... : ... .. 5 ... ... ... : ... .. . ... : ... .. . ... : ... .. . ... ... : ... .. 0 ... ... : ... .. . ... ... : ... .. D ... ...
ROW D0 : ... .. . ... ... ... : ... .. 8 ... ... ... : ... .. . ... : ... .. . ... : ... .. . ... ... : ... .. 1 ... ... : ... .. . ... ... : ... .. 8 ... ...
ROW D1 : ... .. 6 ... ... ... : ... .. 4 ... ... ... : ... .. . ... : ... .. . ... : ... .. . ... ... : ... .. 3 ... ... : ... .. 3 ... ... : ... .. . ... ...
ROW D2 : ... .. 5 ... ... ... : ... .. 3 ... ... ... : ... .. . ... : ... .. . ... : ... .. . ... ... : ... .. 1 ... ... : ... .. . ... ... : ... .. 4 ... ...
ROW D3 : ... .. 4 ... ... ... : ... .. 4 ... ... ... : ... .. . ... : ... .. . ... : ... .. . ... ... : ... .. 0 ... ... : ... .. . ... ... : ... .. . ... ...
ROW D4 : G#3 00 8 ... ... ... : ... .. 7 ... ... ... : ... .. . ... : 1-# 00 8 ... : ... .. . ... ... : ... .. . ... ... : ... .. . ... ... : ... .. F ... ...
ROW D5 : ... .. 7 ... ... ... : ... .. 5 ... ... ... : ... .. . ... : ... .. . ... : ... .. . ... ... : ... .. 1 ... ... : ... .. . ... ... : ... .. D ... ...
ROW D6 : ... .. . ... ... ... : ... .. 3 ... ... ... : ... .. . ... : ... .. . ... : ... .. . ... ... : ... .. 3 ... ... : ... .. . ... ... : ... .. 8 ... ...
ROW D7 : ... .. . ... ... ... : ... .. . ... ... ... : ... .. . ... : ... .. 9 ... : ... .. . ... ... : ... .. 0 ... ... : ... .. . ... ... : ... .. . ... ...
ROW D8 : ... .. 5 ... ... ... : ... .. 6 ... ... ... : ... .. . ... : ... .. . ... : ... .. . ... ... : ... .. . ... ... : ... .. . ... ... : ... .. 4 ... ...
ROW D9 : ... .. . ... ... ... : ... .. . ... ... ... : ... .. . ... : ... .. . ... : ... .. . ... ... : ... .. . ... ... : ... .. . ... ... : ... .. . ... ...
ROW DA : G-3 00 9 ... ... ... : ... .. 2 ... ... ... : ... .. . ... : ... .. . ... : ... .. . ... ... : ... .. 3 ... ... : ... .. . ... ... : ... .. F ... ...
ROW DB : ... .. 8 ... ... ... : ... .. . ... ... ... : ... .. . ... : ... .. . ... : ... .. . ... ... : ... .. 2 ... ... : ... .. . ... ... : ... .. D ... ...
ROW DC : ... .. . ... ... ... : ... .. 4 ... ... ... : ... .. . ... : ... .. . ... : ... .. . ... ... : ... .. 0 ... ... : ... .. . ... ... : ... .. 8 ... ...
ROW DD : ... .. 7 ... ... ... : ... .. 6 ... ... ... : ... .. . ... : ... .. . ... : ... .. . ... ... : ... .. . ... ... : ... .. . ... ... : ... .. . ... ...
ROW DE : ... .. 5 ... ... ... : ... .. 3 ... ... ... : ... .. . ... : ... .. . ... : ... .. . ... ... : ... .. 1 ... ... : ... .. . ... ... : ... .. 4 ... ...
ROW DF : ... .. . ... ... ... : ... .. 2 ... ... ... : ... .. . ... : ... .. . ... : ... .. . ... ... : ... .. 3 ... ... : ... .. . ... ... : ... .. . ... ...
ROW E0 : G#3 00 9 ... ... ... : ... .. 3 ... ... ... : ... .. . ... : 0-# 00 9 ... : ... .. . ... ... : ... .. 0 ... ... : ... .. . ... ... : ... .. F ... ...
ROW E1 : ... .. 8 ... ... ... : ... .. 6 ... ... ... : ... .. . ... : ... .. . ... : ... .. . ... ... : ... .. . ... ... : ... .. . ... ... : ... .. D ... ...
ROW E2 : ... .. . ... ... ... : ... .. 4 ... ... ... : ... .. . ... : ... .. . ... : ... .. . ... ... : ... .. . ... ... : ... .. . ... ... : ... .. 8 ... ...
ROW E3 : ... .. 7 ... ... ... : ... .. 2 ... ... ... : ... .. . ... : ... .. . ... : ... .. . ... ... : ... .. 2 ... ... : ... .. . ... ... : ... .. . ... ...
ROW E4 : ... .. 5 ... ... ... : ... .. . ... ... ... : ... .. . ... : ... .. . ... : ... .. . ... ... : ... .. . ... ... : ... .. . ... ... : ... .. 4 ... ...
ROW E5 : ... .. . ... ... ... : ... .. 6 ... ... ... : ... .. . ... : ... .. . ... : ... .. . ... ... : ... .. 0 ... ... : ... .. . ... ... : ... .. . ... ...
ROW E6 : A#3 00 9 ... ... ... : ... .. 5 ... ... ... : ... .. . ... : ... .. . ... : ... .. . ... ... : ... .. . ... ... : ... .. . ... ... : ... .. F ... ...
ROW E7 : ... .. 8 ... ... ... : ... .. 2 ... ... ... : ... .. . ... : ... .. . ... : ... .. . ... ... : ... .. . ... ... : ... .. . ... ... : ... .. D ... ...
ROW E8 : ... .. . ... ... ... : ... .. . ... ... ... : ... .. . ... : ... .. . ... : ... .. . ... ... : ... .. 3 ... ... : ... .. . ... ... : ... .. 8 ... ...
ROW E9 : ... .. 7 ... ... ... : ... .. 5 ... ... ... : ... .. . ... : ... .. A ... : ... .. . ... ... : ... .. 1 ... ... : ... .. . ... ... : ... .. . ... ...
ROW EA : ... .. 5 ... ... ... : ... .. 6 ... ... ... : ... .. . ... : ... .. . ... : ... .. . ... ... : ... .. 0 ... ... : ... .. . ... ... : ... .. 4 ... ...
ROW EB : ... .. . ... ... ... : ... .. 2 ... ... ... : ... .. . ... : ... .. . ... : ... .. . ... ... : ... .. . ... ... : ... .. . ... ... : ... .. . ... ...
ROW EC : B-3 00 9 ... ... ... : ... .. . ... ... ... : ... .. . ... : ... .. . ... : ... .. . ... ... : ... .. 2 ... ... : ... .. . ... ... : ... .. F ... ...
ROW ED : ... .. 8 ... ... ... : ... .. 4 ... ... ... : ... .. . ... : ... .. . ... : ... .. . ... ... : ... .. 3 ... ... : ... .. . ... ... : ... .. D ... ...
ROW EE : ... .. . ... ... ... : ... .. 6 ... ... ... : ... .. . ... : ... .. . ... : ... .. . ... ... : ... .. 0 ... ... : ... .. . ... ... : ... .. 8 ... ...
ROW EF : ... .. 7 ... ... ... : ... .. 2 ... ... ... : ... .. . ... : ... .. . ... : ... .. . ... ... : ... .. . ... ... : ... .. 2 ... ... : ... .. . ... ...
ROW F0 : ... .. 5 ... ... ... : ... .. 1 ... ... ... : ... .. . ... : ... .. . ... : ... .. . ... ... : ... .. . ... ... : ... .. . ... ... : ... .. 4 ... ...
ROW F1 : ... .. . ... ... ... : ... .. 2 ... ... ... : ... .. . ... : ... .. . ... : ... .. . ... ... : ... .. 2 ... ... : ... .. . ... ... : ... .. . ... ...
ROW F2 : C#4 00 A ... ... ... : ... .. 5 ... ... ... : ... .. . ... : 1-# 00 A ... : ... .. . ... ... : ... .. 0 ... ... : ... .. . ... ... : ... .. F ... ...
ROW F3 : ... .. 8 ... ... ... : ... .. 3 ... ... ... : ... .. . ... : ... .. . ... : ... .. . ... ... : ... .. . ... ... : ... .. . ... ... : ... .. D ... ...
ROW F4 : ... .. . ... ... ... : ... .. 1 ... ... ... : ... .. . ... : ... .. . ... : ... .. . ... ... : ... .. . ... ... : ... .. . ... ... : ... .. 8 ... ...
ROW F5 : ... .. . ... ... ... : ... .. . ... ... ... : ... .. . ... : ... .. . ... : ... .. . ... ... : ... .. . ... ... : ... .. . ... ... : ... .. . ... ...
ROW F6 : ... .. 6 ... ... ... : ... .. 4 ... ... ... : ... .. . ... : ... .. . ... : ... .. . ... ... : ... .. 2 ... ... : ... .. . ... ... : ... .. 4 ... ...
ROW F7 : ... .. 5 ... ... ... : ... .. . ... ... ... : ... .. . ... : ... .. . ... : ... .. . ... ... : ... .. 0 ... ... : ... .. . ... ... : ... .. . ... ...
ROW F8 : D-4 00 A ... ... ... : F-4 00 4 ... ... ... : ... .. . ... : ... .. . ... : ... .. . ... ... : D-5 01 1 ... ... : A#4 01 5 ... ... : G#1 01 F ... ...
ROW F9 : ... .. 8 ... ... ... : ... .. 3 ... ... ... : ... .. . ... : ... .. . ... : ... .. . ... ... : ... .. . ... ... : ... .. 4 ... ... : ... .. D ... ...
ROW FA : ... .. . ... ... ... : ... .. 4 ... ... ... : ... .. . ... : ... .. . ... : ... .. . ... ... : ... .. 4 ... ... : ... .. . ... ... : ... .. 8 ... ...
ROW FB : ... .. . ... ... ... : ... .. 5 ... ... ... : ... .. . ... : ... .. B ... : ... .. . ... ... : ... .. 2 ... ... : ... .. 3 ... ... : ... .. . ... ...
ROW FC : ... .. 6 ... ... ... : ... .. 2 ... ... ... : ... .. . ... : ... .. . ... : ... .. . ... ... : ... .. 0 ... ... : ... .. . ... ... : ... .. 4 ... ...
ROW FD : ... .. 5 ... ... ... : ... .. 1 ... ... ... : ... .. . ... : ... .. . ... : ... .. . ... ... : ... .. . ... ... : ... .. . ... ... : ... .. . ... ...
ROW FE : C-4 00 A ... ... ... : ... .. 2 ... ... ... : ... .. . ... : ... .. . ... : ... .. . ... ... : ... .. 1 ... ... : ... .. . ... ... : G#0 01 F ... ...
ROW FF : ... .. 8 ... ... ... : ... .. 5 ... ... ... : ... .. . ... : ... .. . ... : ... .. . ... ... : ... .. 2 ... ... : ... .. 2 ... ... : ... .. D ... ...

PATTERN 02
ROW 00 : ... .. . ... ... ... : ... .. 2 ... ... ... : ... .. . ... : ... .. . ... : ... .. . ... ... : ... .. 0 ... ... : ... .. . ... ... : ... .. 8 ... ...
ROW 01 : ... .. . ... ... ... : ... .. 1 ... ... ... : ... .. . ... : ... .. . ... : ... .. . ... ... : ... .. . ... ... : ... .. . ... ... : ... .. . ... ...
ROW 02 : ... .. 6 ... ... ... : ... .. 2 ... ... ... : ... .. . ... : ... .. . ... : ... .. . ... ... : ... .. . ... ... : ... .. . ... ... : ... .. 4 ... ...
ROW 03 : ... .. 5 ... ... ... : ... .. 5 ... ... ... : ... .. . ... : ... .. . ... : ... .. . ... ... : ... .. 1 ... ... : ... .. . ... ... : ... .. . ... ...
ROW 04 : D-4 00 A ... ... ... : ... .. 4 ... ... ... : ... .. . ... : ... .. . ... : ... .. . ... ... : ... .. 2 ... ... : ... .. 3 ... ... : ... .. F ... ...
ROW 05 : ... .. 8 ... ... ... : ... .. 2 ... ... ... : ... .. . ... : ... .. . ... : ... .. . ... ... : ... .. 0 ... ... : ... .. . ... ... : ... .. D ... ...
ROW 06 : ... .. . ... ... ... : ... .. . ... ... ... : ... .. . ... : ... .. . ... : ... .. . ... ... : ... .. . ... ... : ... .. . ... ... : ... .. 8 ... ...
ROW 07 : ... .. . ... ... ... : ... .. 5 ... ... ... : ... .. . ... : ... .. . ... : ... .. . ... ... : ... .. . ... ... : ... .. . ... ... : ... .. . ... ...
ROW 08 : ... .. 6 ... ... ... : ... .. . ... ... ... : ... .. . ... : ... .. . ... : ... .. . ... ... : ... .. 3 ... ... : ... .. . ... ... : ... .. 4 ... ...
ROW 09 : ... .. 5 ... ... ... : ... .. 2 ... ... ... : ... .. . ... : ... .. . ... : ... .. . ... ... : ... .. 1 ... ... : ... .. . ... ... : ... .. . ... ...
ROW 0A : E-4 00 B ... ... ... : ... .. . ... ... ... : ... .. . ... : ... .. C ... : ... .. . ... ... : ... .. 0 ... ... : ... .. . ... ... : ... .. F ... ...
ROW 0B : ... .. 9 ... ... ... : ... .. 4 ... ... ... : ... .. . ... : ... .. . ... : ... .. . ... ... : ... .. . ... ... : ... .. . ... ... : ... .. D ... ...
ROW 0C : ... .. . ... ... ... : ... .. 6 ... ... ... : ... .. . ... : ... .. . ... : ... .. . ... ... : ... .. 2 ... ... : ... .. . ... ... : ... .. 8 ... ...
ROW 0D : ... .. 8 ... ... ... : ... .. 3 ... ... ... : ... .. . ... : ... .. . ... : ... .. . ... ... : ... .. 3 ... ... : ... .. . ... ... : ... .. . ... ...
ROW 0E : ... .. 6 ... ... ... : ... .. 2 ... ... ... : ... .. . ... : ... .. . ... : ... .. . ... ... : ... .. 0 ... ... : ... .. . ... ... : ... .. 4 ... ...
ROW 0F : ... .. . ... ... ... : ... .. 3 ... ... ... : ... .. . ... : ... .. . ... : ... .. . ... ... : ... .. . ... ... : ... .. . ... ... : ... .. . ... ...
ROW 10 : D-4 00 B ... ... ... : ... .. 6 ... ... ... : ... .. . ... : ... .. . ... : ... .. . ... ... : ... .. . ... ... : ... .. . ... ... : ... .. F ... ...
ROW 11 : ... .. 9 ... ... ... : ... .. 3 ... ... ... : ... .. . ... : ... .. . ... : ... .. . ... ... : ... .. 3 ... ... : ... .. . ... ... : ... .. D ... ...
ROW 12 : ... .. . ... ... ... : ... .. 2 ... ... ... : ... .. . ... : ... .. . ... : ... .. . ... ... : ... .. 1 ... ... : ... .. . ... ... : ... .. 8 ... ...
ROW 13 : ... .. 8 ... ... ... : ... .. 3 ... ... ... : ... .. . ... : ... .. . ... : ... .. . ... ... : ... .. 0 ... ... : ... .. . ... ... : ... .. . ... ...
ROW 14 : ... .. 6 ... ... ... : ... .. 6 ... ... ... : ... .. . ... : ... .. . ... : ... .. . ... ... : ... .. . ... ... : ... .. . ... ... : ... .. 4 ... ...
ROW 15 : ... .. . ... ... ... : ... .. 4 ... ... ... : ... .. . ... : ... .. . ... : ... .. . ... ... : ... .. 1 ... ... : ... .. . ... ... : ... .. . ... ...
ROW 16 : C-4 00 B ... ... ... : ... .. 2 ... ... ... : ... .. . ... : ... .. . ... : ... .. . ... ... : ... .. 3 ... ... : ... .. . ... ... : ... .. F ... ...
ROW 17 : ... .. 9 ... ... ... : ... .. . ... ... ... : ... .. . ... : ... .. . ... : ... .. . ... ... : ... .. 0 ... ... : ... .. . ... ... : ... .. D ... ...
ROW 18 : ... .. . ... ... ... : ... .. 5 ... ... ... : ... .. . ... : ... .. . ... : ... .. . ... ... : ... .. . ... ... : ... .. . ... ... : ... .. 8 ... ...
ROW 19 : ... .. 8 ... ... ... : ... .. 6 ... ... ... : ... .. . ... : ... .. . ... : ... .. . ... ... : ... .. . ... ... : ... .. . ... ... : ... .. . ... ...
ROW 1A : ... .. 6 ... ... ... : ... .. 3 ... ... ... : ... .. . ... : ... .. . ... : ... .. . ... ... : ... .. 3 ... ... : ... .. . ... ... : ... .. 4 ... ...
ROW 1B : ... .. . ... ... ... : ... .. . ... ... ... : ... .. . ... : ... .. . ... : ... .. . ... ... : ... .. 2 ... ... : ... .. . ... ... : ... .. . ... ...
ROW 1C : D-4 00 B ... ... ... : ... .. 5 ... ... ... : ... .. . ... : 0-# 00 D ... : ... .. . ... ... : ... .. 0 ... ... : ... .. . ... ... : ... .. F ... ...
ROW 1D : ... .. 9 ... ... ... : ... .. 7 ... ... ... : ... .. . ... : ... .. . ... : ... .. . ... ... : ... .. . ... ... : ... .. . ... ... : ... .. D ... ...
ROW 1E : ... .. . ... ... ... : ... .. 4 ... ... ... : ... .. . ... : ... .. . ... : ... .. . ... ... : ... .. 1 ... ... : ... .. . ... ... : ... .. 8 ... ...
ROW 1F : ... .. 8 ... ... ... : ... .. 3 ... ... ... : ... .. . ... : ... .. . ... : ... .. . ... ... : ... .. 3 ... ... : ... .. . ... ... : ... .. . ... ...
ROW 20 : ... .. 6 ... ... ... : ... .. 4 ... ... ... : ... .. . ... : ... .. . ... : ... .. . ... ... : ... .. 0 ... ... : ... .. . ... ... : ... .. 4 ... ...
ROW 21 : ... .. . ... ... ... : ... .. 7 ... ... ... : ... .. . ... : ... .. . ... : ... .. . ... ... : ... .. . ... ... : ... .. . ... ... : ... .. . ... ...
ROW 22 : E-4 00 B ... ... ... : ... .. 6 ... ... ... : ... .. . ... : ... .. . ... : ... .. . ... ... : ... .. . ... ... : ... .. 4 ... ... : ... .. F ... ...
ROW 23 : ... .. 9 ... ... ... : ... .. 4 ... ... ... : ... .. . ... : ... .. . ... : ... .. . ... ... : ... .. 3 ... ... : ... .. . ... ... : ... .. D ... ...
ROW 24 : ... .. . ... ... ... : ... .. . ... ... ... : ... .. . ... : ... .. . ... : ... .. . ... ... : ... .. . ... ... : ... .. . ... ... : ... .. 8 ... ...
ROW 25 : ... .. . ... ... ... : ... .. 8 ... ... ... : ... .. . ... : ... .. . ... : ... .. . ... ... : ... .. 0 ... ... : ... .. . ... ... : ... .. . ... ...
ROW 26 : ... .. 7 ... ... ... : ... .. 7 ... ... ... : ... .. . ... : ... .. . ... : ... .. . ... ... : ... .. . ... ... : ... .. . ... ... : ... .. 4 ... ...
ROW 27 : ... .. 6 ... ... ... : ... .. 4 ... ... ... : ... .. . ... : ... .. . ... : ... .. . ... ... : ... .. 1 ... ... : ... .. . ... ... : ... .. . ... ...
ROW 28 : F-4 00 C ... ... ... : ... .. . ... ... ... : ... .. . ... : ... .. . ... : ... .. . ... ... : ... .. 4 ... ... : ... .. . ... ... : ... .. F ... ...
ROW 29 : ... .. A ... ... ... : ... .. 7 ... ... ... : ... .. . ... : ... .. . ... : ... .. . ... ... : ... .. 2 ... ... : ... .. . ... ... : ... .. D ... ...
ROW 2A : ... .. . ... ... ... : ... .. 8 ... ... ... : ... .. . ... : ... .. . ... : ... .. . ... ... : ... .. 0 ... ... : ... .. . ... ... : ... .. 8 ... ...
ROW 2B : ... .. 9 ... ... ... : ... .. 4 ... ... ... : ... .. . ... : ... .. . ... : ... .. . ... ... : ... .. . ... ... : ... .. . ... ... : ... .. . ... ...
ROW 2C : ... .. 7 ... ... ... : ... .. . ... ... ... : ... .. . ... : ... .. . ... : ... .. . ... ... : ... .. 3 ... ... : ... .. . ... ... : ... .. 4 ... ...
ROW 2D : ... .. 6 ... ... ... : ... .. 6 ... ... ... : ... .. . ... : ... .. . ... : ... .. . ... ... : ... .. 4 ... ... : ... .. . ... ... : ... .. . ... ...
ROW 2E : G-4 00 C ... ... ... : ... .. 8 ... ... ... : ... .. . ... : ... .. E ... : ... .. . ... ... : ... .. 1 ... ... : ... .. . ... ... : ... .. F ... ...
ROW 2F : ... .. A ... ... ... : ... .. 5 ... ... ... : ... .. . ... : ... .. . ... : ... .. . ... ... : ... .. 0 ... ... : ... .. . ... ... : ... .. D ... ...
ROW 30 : ... .. . ... ... ... : ... .. 4 ... ... ... : ... .. . ... : ... .. . ... : ... .. . ... ... : ... .. 1 ... ... : ... .. . ... ... : ... .. 8 ... ...
ROW 31 : ... .. 9 ... ... ... : ... .. 5 ... ... ... : ... .. . ... : ... .. . ... : ... .. . ... ... : ... .. 4 ... ... : ... .. . ... ... : ... .. . ... ...
ROW 32 : ... .. 7 ... ... ... : ... .. 8 ... ... ... : ... .. . ... : ... .. . ... : ... .. . ... ... : ... .. 2 ... ... : ... .. . ... ... : ... .. 4 ... ...
ROW 33 : ... .. 6 ... ... ... : ... .. 6 ... ... ... : ... .. . ... : ... .. . ... : ... .. . ... ... : ... .. 0 ... ... : ... .. . ... ... : ... .. . ... ...
ROW 34 : G#4 00 C ... ... ... : ... .. 4 ... ... ... : ... .. . ... : ... .. . ... : ... .. . ... ... : ... .. . ... ... : ... .. . ... ... : ... .. F ... ...
ROW 35 : ... .. A ... ... ... : ... .. . ... ... ... : ... .. . ... : ... .. . ... : ... .. . ... ... : ... .. 2 ... ... : ... .. . ... ... : ... .. D ... ...
ROW 36 : ... .. . ... ... ... : ... .. 7 ... ... ... : ... .. . ... : ... .. . ... : ... .. . ... ... : ... .. 4 ... ... : ... .. . ... ... : ... .. 8 ... ...
ROW 37 : ... .. 9 ... ... ... : ... .. 8 ... ... ... : ... .. . ... : ... .. . ... : ... .. . ... ... : ... .. 1 ... ... : ... .. . ... ... : ... .. . ... ...
ROW 38 : ... .. 7 ... ... ... : ... .. 5 ... ... ... : ... .. . ... : ... .. . ... : ... .. . ... ... : ... .. 0 ... ... : ... .. . ... ... : ... .. 4 ... ...
ROW 39 : ... .. 6 ... ... ... : ... .. . ... ... ... : ... .. . ... : ... .. . ... : ... .. . ... ... : ... .. 1 ... ... : ... .. . ... ... : ... .. . ... ...
ROW 3A : A#4 00 C ... ... ... : ... .. 7 ... ... ... : ... .. . ... : 1-# 00 E ... : ... .. . ... ... : ... .. 4 ... ... : ... .. . ... ... : ... .. F ... ...
ROW 3B : ... .. A ... ... ... : ... .. 9 ... ... ... : ... .. . ... : ... .. . ... : ... .. . ... ... : ... .. 3 ... ... : ... .. . ... ... : ... .. D ... ...
ROW 3C : ... .. . ... ... ... : ... .. 6 ... ... ... : ... .. . ... : ... .. . ... : ... .. . ... ... : ... .. 0 ... ... : ... .. . ... ... : ... .. 8 ... ...
ROW 3D : ... .. . ... ... ... : ... .. 5 ... ... ... : ... .. . ... : ... .. F ... : ... .. . ... ... : ... .. . ... ... : ... .. . ... ... : ... .. . ... ...
ROW 3E : ... .. 8 ... ... ... : ... .. 6 ... ... ... : ... .. . ... : ... .. . ... : ... .. . ... ... : ... .. 2 ... ... : ... .. . ... ... : ... .. 4 ... ...
ROW 3F : ... .. 7 ... ... ... : ... .. 9 ... ... ... : ... .. . ... : ... .. . ... : ... .. . ... ... : ... .. 4 ... ... : ... .. . ... ... : ... .. . ... ...
ROW 40 : B-4 00 D ... ... ... : B-2 00 C P81 ... ... : A#3 00 . ... : 2-# 00 F ... : ... .. . ... ... : F#3 01 A ... ... : E-3 01 A ... ... : B-1 01 F ... ...
ROW 41 : ... .. B ... ... ... : ... .. A ... ... ... : C-3 00 . ... : ... .. . ... : ... .. . ... ... : ... .. 9 ... ... : ... .. 9 ... ... : ... .. D ... ...
ROW 42 : ... .. . ... ... ... : ... .. . ... ... ... : F-2 00 . ... : ... .. . ... : ... .. . ... ... : ... .. 8 ... ... : ... .. 8 ... ... : ... .. 8 ... ...
ROW 43 : ... .. A ... ... ... : ... .. . ... ... ... : E-2 00 . ... : ... .. E ... : ... .. . ... ... : ... .. 7 ... ... : ... .. 7 ... ... : ... .. . ... ...
ROW 44 : ... .. 8 ... ... ... : ... .. . ... ... ... : B-1 00 . ... : ... .. . ... : ... .. . ... ... : ... .. . ... ... : ... .. . ... ... : ... .. 4 ... ...
ROW 45 : ... .. 7 ... ... ... : ... .. . ... ... ... : ... .. . ... : ... .. . ... : ... .. . ... ... : ... .. 6 ... ... : ... .. 6 ... ... : ... .. . ... ...
ROW 46 : F#4 00 D ... ... ... : B-0 00 F ... ... ... : ... .. . ... : ... .. . ... : ... .. . ... ... : ... .. . ... ... : ... .. . ... ... : B-0 01 F ... ...
ROW 47 : ... .. B ... ... ... : ... .. E ... ... ... : ... .. . ... : ... .. . ... : ... .. . ... ... : ... .. 5 ... ... : ... .. 5 ... ... : ... .. D ... ...
ROW 48 : ... .. . ... ... ... : ... .. D ... ... ... : ... .. . ... : ... .. . ... : ... .. . ... ... : ... .. . ... ... : ... .. . ... ... : ... .. 8 ... ...
ROW 49 : ... .. A ... ... ... : ... .. A ... ... ... : ... .. . ... : ... .. . ... : ... .. . ... ... : ... .. . ... ... : ... .. . ... ... : ... .. . ... ...
ROW 4A : ... .. 8 ... ... ... : ... .. 2 ... ... ... : ... .. . ... : ... .. . ... : ... .. . ... ... : ... .. . ... ... : ... .. . ... ... : ... .. 4 ... ...
ROW 4B : ... .. 7 ... ... ... : ... .. . ... ... ... : ... .. . ... : ... .. . ... : ... .. . ... ... : ... .. . ... ... : ... .. . ... ... : ... .. . ... ...
ROW 4C : B-3 00 D ... ... ... : ... .. F ... ... ... : ... .. . ... : 1-# 00 D ... : ... .. . ... ... : ... .. . ... ... : ... .. . ... ... : ... .. F ... ...
ROW 4D : ... .. B ... ... ... : ... .. E ... ... ... : ... .. . ... : ... .. . ... : ... .. . ... ... : ... .. . ... ... : ... .. . ... ... : ... .. D ... ...
ROW 4E : ... .. . ... ... ... : ... .. D ... ... ... : ... .. . ... : ... .. . ... : ... .. . ... ... : ... .. 3 ... ... : ... .. 3 ... ... : ... .. 8 ... ...
ROW 4F : ... .. A ... ... ... : ... .. A ... ... ... : ... .. . ... : ... .. . ... : ... .. . ... ... : ... .. . ... ... : ... .. . ... ... : ... .. . ... ...
ROW 50 : ... .. 8 ... ... ... : ... .. 2 ... ... ... : ... .. . ... : ... .. . ... : ... .. . ... ... : ... .. . ... ... : ... .. . ... ... : ... .. 4 ... ...
ROW 51 : ... .. 7 ... ... ... : ... .. . ... ... ... : ... .. . ... : ... .. . ... : ... .. . ... ... : ... .. . ... ... : ... .. . ... ... : ... .. . ... ...
ROW 52 : A-3 00 D ... ... ... : B-2 00 F ... ... ... : A#3 00 . ... : 0-# 00 D ... : ... .. . ... ... : ... .. A ... ... : ... .. A ... ... : B-1 01 F ... ...
ROW 53 : ... .. B ... ... ... : ... .. E ... ... ... : C-3 00 . ... : ... .. . ... : ... .. . ... ... : ... .. 9 ... ... : ... .. 9 ... ... : ... .. D ... ...
ROW 54 : ... .. . ... ... ... : ... .. D ... ... ... : F-2 00 . ... : ... .. . ... : ... .. . ... ... : ... .. 8 ... ... : ... .. 8 ... ... : ... .. 8 ... ...
ROW 55 : ... .. A ... ... ... : ... .. A ... ... ... : E-2 00 . ... : ... .. C ... : ... .. . ... ... : ... .. 7 ... ... : ... .. 7 ... ... : ... .. . ... ...
ROW 56 : ... .. 8 ... ... ... : ... .. . ... ... ... : B-1 00 . ... : ... .. . ... : ... .. . ... ... : ... .. . ... ... : ... .. . ... ... : ... .. 4 ... ...
ROW 57 : ... .. 7 ... ... ... : ... .. . ... ... ... : ... .. . ... : ... .. . ... : ... .. . ... ... : ... .. 6 ... ... : ... .. 6 ... ... : ... .. . ... ...
ROW 58 : B-3 00 D ... ... ... : B-0 00 F ... ... ... : ... .. . ... : ... .. . ... : ... .. . ... ... : ... .. . ... ... : ... .. . ... ... : B-0 01 F ... ...
ROW 59 : ... .. B ... ... ... : ... .. E ... ... ... : ... .. . ... : ... .. . ... : ... .. . ... ... : ... .. 5 ... ... : ... .. 5 ... ... : ... .. D ... ...
ROW 5A : ... .. . ... ... ... : ... .. D ... ... ... : ... .. . ... : ... .. . ... : ... .. . ... ... : ... .. . ... ... : ... .. . ... ... : ... .. 8 ... ...
ROW 5B : ... .. A ... ... ... : ... .. A ... ... ... : ... .. . ... : ... .. . ... : ... .. . ... ... : ... .. . ... ... : ... .. . ... ... : ... .. . ... ...
ROW 5C : ... .. 8 ... ... ... : ... .. 2 ... ... ... : ... .. . ... : ... .. . ... : ... .. . ... ... : ... .. . ... ... : ... .. . ... ... : ... .. 4 ... ...
ROW 5D : ... .. 7 ... ... ... : ... .. . ... ... ... : ... .. . ... : ... .. . ... : ... .. . ... ... : ... .. . ... ... : ... .. . ... ... : ... .. . ... ...
ROW 5E : F#4 00 D ... ... ... : ... .. F ... ... ... : ... .. . ... : ... .. . ... : ... .. . ... ... : ... .. . ... ... : ... .. . ... ... : ... .. F ... ...
ROW 5F : ... .. B ... ... ... : ... .. E ... ... ... : ... .. . ... : ... .. . ... : ... .. . ... ... : ... .. . ... ... : ... .. . ... ... : ... .. D ... ...
ROW 60 : ... .. . ... ... ... : ... .. D ... ... ... : ... .. . ... : ... .. . ... : ... .. . ... ... : ... .. 3 ... ... : ... .. 3 ... ... : ... .. 8 ... ...
ROW 61 : ... .. A ... ... ... : ... .. A ... ... ... : ... .. . ... : ... .. B ... : ... .. . ... ... : ... .. . ... ... : ... .. . ... ... : ... .. . ... ...
ROW 62 : ... .. 8 ... ... ... : ... .. 2 ... ... ... : ... .. . ... : ... .. . ... : ... .. . ... ... : ... .. . ... ... : ... .. . ... ... : ... .. 4 ... ...
ROW 63 : ... .. 7 ... ... ... : ... .. . ... ... ... : ... .. . ... : ... .. . ... : ... .. . ... ... : ... .. . ... ... : ... .. . ... ... : ... .. . ... ...
ROW 64 : B-4 00 D ... ... ... : C-3 00 F ... ... ... : A#3 00 . ... : ... .. . ... : ... .. . ... ... : G-3 01 A ... ... : F-3 01 A ... ... : B-1 01 F ... ...
ROW 65 : ... .. B ... ... ... : ... .. E ... ... ... : C-3 00 . ... : ... .. . ... : ... .. . ... ... : ... .. 9 ... ... : ... .. 9 ... ... : ... .. D ... ...
ROW 66 : ... .. . ... ... ... : ... .. D ... ... ... : F-2 00 . ... : ... .. . ... : ... .. . ... ... : ... .. 8 ... ... : ... .. 8 ... ... : ... .. 8 ... ...
ROW 67 : ... .. A ... ... ... : ... .. A ... ... ... : E-2 00 . ... : ... .. . ... : ... .. . ... ... : ... .. 7 ... ... : ... .. 7 ... ... : ... .. . ... ...
ROW 68 : ... .. 8 ... ... ... : ... .. . ... ... ... : B-1 00 . ... : ... .. . ... : ... .. . ... ... : ... .. . ... ... : ... .. . ... ... : ... .. 4 ... ...
ROW 69 : ... .. 7 ... ... ... : ... .. . ... ... ... : ... .. . ... : ... .. . ... : ... .. . ... ... : ... .. 6 ... ... : ... .. 6 ... ... : ... .. . ... ...
ROW 6A : C-5 00 D ... ... ... : B-0 00 F ... ... ... : ... .. . ... : ... .. A ... : ... .. . ... ... : ... .. . ... ... : ... .. . ... ... : B-0 01 F ... ...
ROW 6B : ... .. B ... ... ... : ... .. E ... ... ... : ... .. . ... : ... .. . ... : ... .. . ... ... : ... .. 5 ... ... : ... .. 5 ... ... : ... .. D ... ...
ROW 6C : ... .. . ... ... ... : ... .. D ... ... ... : ... .. . ... : ... .. . ... : ... .. . ... ... : ... .. . ... ... : ... .. . ... ... : ... .. 8 ... ...
ROW 6D : ... .. A ... ... ... : ... .. A ... ... ... : ... .. . ... : ... .. . ... : ... .. . ... ... : ... .. . ... ... : ... .. . ... ... : ... .. . ... ...
ROW 6E : ... .. 8 ... ... ... : ... .. 2 ... ... ... : ... .. . ... : ... .. . ... : ... .. . ... ... : ... .. . ... ... : ... .. . ... ... : ... .. 4 ... ...
ROW 6F : ... .. 7 ... ... ... : ... .. . ... ... ... : ... .. . ... : ... .. . ... : ... .. . ... ... : ... .. . ... ... : ... .. . ... ... : ... .. . ... ...
ROW 70 : B-4 00 D ... ... ... : ... .. F ... ... ... : A#3 00 . ... : 1-# 00 A ... : ... .. . ... ... : ... .. . ... ... : ... .. . ... ... : ... .. F ... ...
ROW 71 : ... .. B ... ... ... : ... .. E ... ... ... : C-3 00 . ... : ... .. . ... : ... .. . ... ... : ... .. . ... ... : ... .. . ... ... : ... .. D ... ...
ROW 72 : ... .. . ... ... ... : ... .. D ... ... ... : F-2 00 . ... : ... .. . ... : ... .. . ... ... : ... .. 3 ... ... : ... .. 3 ... ... : ... .. 8 ... ...
ROW 73 : ... .. A ... ... ... : ... .. A ... ... ... : E-2 00 . ... : ... .. . ... : ... .. . ... ... : ... .. . ... ... : ... .. . ... ... : ... .. . ... ...
ROW 74 : ... .. 8 ... ... ... : ... .. 2 ... ... ... : B-1 00 . ... : ... .. . ... : ... .. . ... ... : ... .. . ... ... : ... .. . ... ... : ... .. 4 ... ...
ROW 75 : ... .. 7 ... ... ... : ... .. . ... ... ... : ... .. . ... : ... .. . ... : ... .. . ... ... : ... .. . ... ... : ... .. . ... ... : ... .. . ... ...
ROW 76 : F#4 00 D ... ... ... : C-3 00 F ... ... ... : ... .. . ... : 2-# 00 9 ... : ... .. . ... ... : ... .. A ... ... : ... .. A ... ... : B-1 01 F ... ...
ROW 77 : ... .. B ... ... ... : ... .. E ... ... ... : ... .. . ... : ... .. . ... : ... .. . ... ... : ... .. 9 ... ... : ... .. 9 ... ... : ... .. D ... ...
ROW 78 : ... .. . ... ... ... : ... .. D ... ... ... : ... .. . ... : ... .. . ... : ... .. . ... ... : ... .. 8 ... ... : ... .. 8 ... ... : ... .. 8 ... ...
ROW 79 : ... .. A ... ... ... : ... .. A ... ... ... : ... .. . ... : ... .. . ... : ... .. . ... ... : ... .. 7 ... ... : ... .. 7 ... ... : ... .. . ... ...
ROW 7A : ... .. 8 ... ... ... : ... .. . ... ... ... : ... .. . ... : ... .. . ... : ... .. . ... ... : ... .. . ... ... : ... .. . ... ... : ... .. 4 ... ...
ROW 7B : ... .. 7 ... ... ... : ... .. . ... ... ... : ... .. . ... : ... .. . ... : ... .. . ... ... : ... .. 6 ... ... : ... .. 6 ... ... : ... .. . ... ...
ROW 7C : B-3 00 D ... ... ... : B-0 00 F ... ... ... : A#3 00 . ... : ... .. . ... : ... .. . ... ... : ... .. . ... ... : ... .. . ... ... : B-0 01 F ... ...
ROW 7D : ... .. B ... ... ... : ... .. E ... ... ... : C-3 00 . ... : ... .. . ... : ... .. . ... ... : ... .. 5 ... ... : ... .. 5 ... ... : ... .. D ... ...
ROW 7E : ... .. . ... ... ... : ... .. D ... ... ... : F-2 00 . ... : ... .. . ... : ... .. . ... ... : ... .. . ... ... : ... .. . ... ... : ... .. 8 ... ...
ROW 7F : ... .. A ... ... ... : ... .. A ... ... ... : E-2 00 . ... : ... .. 8 ... : ... .. . ... ... : ... .. . ... ... : ... .. . ... ... : ... .. . ... ...
ROW 80 : ... .. 8 ... ... ... : ... .. 2 ... ... ... : B-1 00 . ... : ... .. . ... : ... .. . ... ... : ... .. . ... ... : ... .. . ... ... : ... .. 4 ... ...
ROW 81 : ... .. 7 ... ... ... : ... .. . ... ... ... : ... .. . ... : ... .. . ... : ... .. . ... ... : ... .. . ... ... : ... .. . ... ... : ... .. . ... ...
ROW 82 : A-3 00 D ... ... ... : ... .. F ... ... ... : ... .. . ... : 3-# 00 8 ... : ... .. . ... ... : ... .. . ... ... : ... .. . ... ... : ... .. F ... ...
ROW 83 : ... .. B ... ... ... : ... .. E ... ... ... : ... .. . ... : ... .. . ... : ... .. . ... ... : ... .. . ... ... : ... .. . ... ... : ... .. D ... ...
ROW 84 : ... .. . ... ... ... : ... .. D ... ... ... : ... .. . ... : ... .. . ... : ... .. . ... ... : ... .. 3 ... ... : ... .. 3 ... ... : ... .. 8 ... ...
ROW 85 : ... .. A ... ... ... : ... .. A ... ... ... : ... .. . ... : ... .. . ... : ... .. . ... ... : ... .. . ... ... : ... .. . ... ... : ... .. . ... ...
ROW 86 : ... .. 8 ... ... ... : ... .. 2 ... ... ... : ... .. . ... : ... .. . ... : ... .. . ... ... : ... .. . ... ... : ... .. . ... ... : ... .. 4 ... ...
ROW 87 : ... .. 7 ... ... ... : ... .. . ... ... ... : ... .. . ... : ... .. . ... : ... .. . ... ... : ... .. . ... ... : ... .. . ... ... : ... .. . ... ...
ROW 88 : B-3 00 D ... ... ... : D-3 00 F ... ... ... : A#3 00 . ... : ... .. 7 ... : ... .. . ... ... : A-3 01 A ... ... : G-3 01 A ... ... : B-1 01 F ... ...
ROW 89 : ... .. B ... ... ... : ... .. E ... ... ... : C-3 00 . ... : ... .. . ... : ... .. . ... ... : ... .. 9 ... ... : ... .. 9 ... ... : ... .. D ... ...
ROW 8A : ... .. . ... ... ... : ... .. D ... ... ... : F-2 00 . ... : ... .. . ... : ... .. . ... ... : ... .. 8 ... ... : ... .. 8 ... ... : ... .. 8 ... ...
ROW 8B : ... .. A ... ... ... : ... .. A ... ... ... : E-2 00 . ... : ... .. . ... : ... .. . ... ... : ... .. 7 ... ... : ... .. 7 ... ... : ... .. . ... ...
ROW 8C : ... .. 8 ... ... ... : ... .. . ... ... ... : B-1 00 . ... : ... .. . ... : ... .. . ... ... : ... .. . ... ... : ... .. . ... ... : ... .. 4 ... ...
ROW 8D : ... .. 7 ... ... ... : ... .. . ... ... ... : ... .. . ... : ... .. . ... : ... .. . ... ... : ... .. 6 ... ... : ... .. 6 ... ... : ... .. . ... ...
ROW 8E : F#3 00 D ... ... ... : B-0 00 F ... ... ... : ... .. . ... : ... .. . ... : ... .. . ... ... : ... .. . ... ... : ... .. . ... ... : B-0 01 F ... ...
ROW 8F : ... .. B ... ... ... : ... .. E ... ... ... : ... .. . ... : ... .. . ... : ... .. . ... ... : ... .. 5 ... ... : ... .. 5 ... ... : ... .. D ... ...
ROW 90 : ... .. . ... ... ... : ... .. D ... ... ... : ... .. . ... : ... .. . ... : ... .. . ... ... : ... .. . ... ... : ... .. . ... ... : ... .. 8 ... ...
ROW 91 : ... .. A ... ... ... : ... .. A ... ... ... : ... .. . ... : ... .. . ... : ... .. . ... ... : ... .. . ... ... : ... .. . ... ... : ... .. . ... ...
ROW 92 : ... .. 8 ... ... ... : ... .. 2 ... ... ... : ... .. . ... : ... .. . ... : ... .. . ... ... : ... .. . ... ... : ... .. . ... ... : ... .. 4 ... ...
ROW 93 : ... .. 7 ... ... ... : ... .. . ... ... ... : ... .. . ... : ... .. . ... : ... .. . ... ... : ... .. . ... ... : ... .. . ... ... : ... .. . ... ...
ROW 94 : B-2 00 D ... ... ... : ... .. F ... ... ... : ... .. . ... : 5-# 00 6 ... : ... .. . ... ... : ... .. . ... ... : ... .. . ... ... : ... .. F ... ...
ROW 95 : ... .. B ... ... ... : ... .. E ... ... ... : ... .. . ... : ... .. . ... : ... .. . ... ... : ... .. . ... ... : ... .. . ... ... : ... .. D ... ...
ROW 96 : ... .. . ... ... ... : ... .. D ... ... ... : ... .. . ... : ... .. . ... : ... .. . ... ... : ... .. 3 ... ... : ... .. 3 ... ... : ... .. 8 ... ...
ROW 97 : ... .. A ... ... ... : ... .. A ... ... ... : ... .. . ... : ... .. . ... : ... .. . ... ... : ... .. . ... ... : ... .. . ... ... : ... .. . ... ...
ROW 98 : ... .. 8 ... ... ... : ... .. 2 ... ... ... : ... .. . ... : ... .. . ... : ... .. . ... ... : ... .. . ... ... : ... .. . ... ... : ... .. 4 ... ...
ROW 99 : ... .. 7 ... ... ... : ... .. . ... ... ... : ... .. . ... : ... .. . ... : ... .. . ... ... : ... .. . ... ... : ... .. . ... ... : ... .. . ... ...
ROW 9A : A-2 00 D ... ... ... : D-3 00 F ... ... ... : A#3 00 . ... : 6-# 00 6 ... : ... .. . ... ... : ... .. A ... ... : ... .. A ... ... : B-1 01 F ... ...
ROW 9B : ... .. B ... ... ... : ... .. E ... ... ... : C-3 00 . ... : ... .. . ... : ... .. . ... ... : ... .. 9 ... ... : ... .. 9 ... ... : ... .. D ... ...
ROW 9C : ... .. . ... ... ... : ... .. D ... ... ... : F-2 00 . ... : ... .. . ... : ... .. . ... ... : ... .. 8 ... ... : ... .. 8 ... ... : ... .. 8 ... ...
ROW 9D : ... .. A ... ... ... : ... .. A ... ... ... : E-2 00 . ... : ... .. 5 ... : ... .. . ... ... : ... .. 7 ... ... : ... .. 7 ... ... : ... .. . ... ...
ROW 9E : ... .. 8 ... ... ... : ... .. . ... ... ... : B-1 00 . ... : ... .. . ... : ... .. . ... ... : ... .. . ... ... : ... .. . ... ... : ... .. 4 ... ...
ROW 9F : ... .. 7 ... ... ... : ... .. . ... ... ... : ... .. . ... : ... .. . ... : ... .. . ... ... : ... .. 6 ... ... : ... .. 6 ... ... : ... .. . ... ...
ROW A0 : B-2 00 D ... ... ... : B-0 00 F ... ... ... : ... .. . ... : 7-# 00 5 ... : ... .. . ... ... : ... .. . ... ... : ... .. . ... ... : B-0 01 F ... ...
ROW A1 : ... .. B ... ... ... : ... .. E ... ... ... : ... .. . ... : ... .. . ... : ... .. . ... ... : ... .. 5 ... ... : ... .. 5 ... ... : ... .. D ... ...
ROW A2 : ... .. . ... ... ... : ... .. D ... ... ... : ... .. . ... : ... .. . ... : ... .. . ... ... : ... .. . ... ... : ... .. . ... ... : ... .. 8 ... ...
ROW A3 : ... .. A ... ... ... : ... .. A ... ... ... : ... .. . ... : ... .. . ... : ... .. . ... ... : ... .. . ... ... : ... .. . ... ... : ... .. . ... ...
ROW A4 : ... .. 8 ... ... ... : ... .. 2 ... ... ... : ... .. . ... : ... .. . ... : ... .. . ... ... : ... .. . ... ... : ... .. . ... ... : ... .. 4 ... ...
ROW A5 : ... .. 7 ... ... ... : ... .. . ... ... ... : ... .. . ... : ... .. . ... : ... .. . ... ... : ... .. . ... ... : ... .. . ... ... : ... .. . ... ...
ROW A6 : F#3 00 D ... ... ... : ... .. F ... ... ... : ... .. . ... : 8-# 00 5 ... : ... .. . ... ... : ... .. . ... ... : ... .. . ... ... : ... .. F ... ...
ROW A7 : ... .. B ... ... ... : ... .. E ... ... ... : ... .. . ... : ... .. . ... : ... .. . ... ... : ... .. . ... ... : ... .. . ... ... : ... .. D ... ...
ROW A8 : ... .. . ... ... ... : ... .. D ... ... ... : ... .. . ... : ... .. . ... : ... .. . ... ... : ... .. 3 ... ... : ... .. 3 ... ... : ... .. 8 ... ...
ROW A9 : ... .. A ... ... ... : ... .. A ... ... ... : ... .. . ... : ... .. 4 ... : ... .. . ... ... : ... .. . ... ... : ... .. . ... ... : ... .. . ... ...
ROW AA : ... .. 8 ... ... ... : ... .. 2 ... ... ... : ... .. . ... : ... .. . ... : ... .. . ... ... : ... .. . ... ... : ... .. . ... ... : ... .. 4 ... ...
ROW AB : ... .. 7 ... ... ... : ... .. . ... ... ... : ... .. . ... : ... .. . ... : ... .. . ... ... : ... .. . ... ... : ... .. . ... ... : ... .. . ... ...
ROW AC : B-3 00 D ... ... ... : E-3 00 F ... ... ... : A#3 00 . ... : 9-# 00 4 ... : ... .. . ... ... : B-3 01 A ... ... : A-3 01 A ... ... : B-1 01 F ... ...
ROW AD : ... .. B ... ... ... : ... .. E ... ... ... : C-3 00 . ... : ... .. . ... : ... .. . ... ... : ... .. 9 ... ... : ... .. 9 ... ... : ... .. D ... ...
ROW AE : ... .. . ... ... ... : ... .. D ... ... ... : F-2 00 . ... : ... .. . ... : ... .. . ... ... : ... .. 8 ... ... : ... .. 8 ... ... : ... .. 8 ... ...
ROW AF : ... .. A ... ... ... : ... .. A ... ... ... : E-2 00 . ... : ... .. . ... : ... .. . ... ... : ... .. 7 ... ... : ... .. 7 ... ... : ... .. . ... ...
ROW B0 : ... .. 8 ... ... ... : ... .. . ... ... ... : B-1 00 . ... : ... .. . ... : ... .. . ... ... : ... .. . ... ... : ... .. . ... ... : ... .. 4 ... ...
ROW B1 : ... .. 7 ... ... ... : ... .. . ... ... ... : ... .. . ... : ... .. . ... : ... .. . ... ... : ... .. 6 ... ... : ... .. 6 ... ... : ... .. . ... ...
ROW B2 : C-4 00 D ... ... ... : B-0 00 F ... ... ... : ... .. . ... : A-# 00 3 ... : ... .. . ... ... : ... .. 5 ... ... : ... .. 5 ... ... : B-0 01 F ... ...
ROW B3 : ... .. B ... ... ... : ... .. E ... ... ... : ... .. . ... : ... .. . ... : ... .. . ... ... : ... .. . ... ... : ... .. . ... ... : ... .. D ... ...
ROW B4 : ... .. . ... ... ... : ... .. D ... ... ... : ... .. . ... : ... .. . ... : ... .. . ... ... : ... .. 3 ... ... : ... .. 3 ... ... : ... .. 8 ... ...
ROW B5 : ... .. A ... ... ... : ... .. A ... ... ... : ... .. . ... : ... .. . ... : ... .. . ... ... : ... .. . ... ... : ... .. . ... ... : ... .. . ... ...
ROW B6 : ... .. 8 ... ... ... : ... .. 2 ... ... ... : ... .. . ... : ... .. . ... : ... .. . ... ... : ... .. . ... ... : ... .. . ... ... : ... .. 4 ... ...
ROW B7 : ... .. 7 ... ... ... : ... .. . ... ... ... : ... .. . ... : ... .. . ... : ... .. . ... ... : ... .. . ... ... : ... .. . ... ... : ... .. . ... ...
ROW B8 : B-3 00 D ... ... ... : E-3 00 F ... ... ... : A#3 00 . ... : B-# 00 3 ... : ... .. . ... ... : ... .. A ... ... : ... .. A ... ... : B-1 01 F ... ...
ROW B9 : ... .. B ... ... ... : ... .. E ... ... ... : C-3 00 . ... : ... .. . ... : ... .. . ... ... : ... .. 9 ... ... : ... .. 9 ... ... : ... .. D ... ...
ROW BA : ... .. . ... ... ... : ... .. D ... ... ... : F-2 00 . ... : ... .. . ... : ... .. . ... ... : ... .. 8 ... ... : ... .. 8 ... ... : ... .. 8 ... ...
ROW BB : ... .. A ... ... ... : ... .. A ... ... ... : E-2 00 . ... : ... .. . ... : ... .. . ... ... : ... .. 7 ... ... : ... .. 7 ... ... : ... .. . ... ...
ROW BC : ... .. 8 ... ... ... : ... .. . ... ... ... : B-1 00 . ... : ... .. . ... : ... .. . ... ... : ... .. . ... ... : ... .. . ... ... : ... .. 4 ... ...
ROW BD : ... .. 7 ... ... ... : ... .. . ... ... ... : ... .. . ... : ... .. . ... : ... .. . ... ... : ... .. 6 ... ... : ... .. 6 ... ... : ... .. . ... ...
ROW BE : F#3 00 D ... ... ... : B-0 00 F ... ... ... : ... .. . ... : C-# 00 2 ... : ... .. . ... ... : ... .. 5 ... ... : ... .. 5 ... ... : B-0 01 F ... ...
ROW BF : ... .. B ... ... ... : ... .. E ... ... ... : ... .. . ... : ... .. . ... : ... .. . ... ... : ... .. . ... ... : ... .. . ... ... : ... .. D ... ...
ROW C0 : ... .. . ... ... ... : ... .. D ... ... ... : ... .. . ... : ... .. . ... : ... .. . ... ... : ... .. 3 ... ... : ... .. 3 ... ... : ... .. 8 ... ...
ROW C1 : ... .. A ... ... ... : ... .. A ... ... ... : ... .. . ... : ... .. . ... : ... .. . ... ... : ... .. . ... ... : ... .. . ... ... : ... .. . ... ...
ROW C2 : ... .. 8 ... ... ... : ... .. 2 ... ... ... : ... .. . ... : ... .. . ... : ... .. . ... ... : ... .. . ... ... : ... .. . ... ... : ... .. 4 ... ...
ROW C3 : ... .. 7 ... ... ... : ... .. . ... ... ... : ... .. . ... : ... .. . ... : ... .. . ... ... : ... .. . ... ... : ... .. . ... ... : ... .. . ... ...
ROW C4 : B-2 00 D ... ... ... : E-3 00 F ... ... ... : A#3 00 . ... : ... .. . ... : ... .. . ... ... : ... .. A ... ... : ... .. A ... ... : B-1 01 F ... ...
ROW C5 : ... .. B ... ... ... : ... .. E ... ... ... : C-3 00 . ... : ... .. . ... : ... .. . ... ... : ... .. 9 ... ... : ... .. 9 ... ... : ... .. D ... ...
ROW C6 : ... .. . ... ... ... : ... .. D ... ... ... : F-2 00 . ... : ... .. . ... : ... .. . ... ... : ... .. 8 ... ... : ... .. 8 ... ... : ... .. 8 ... ...
ROW C7 : ... .. A ... ... ... : ... .. A ... ... ... : E-2 00 . ... : ... .. 1 ... : ... .. . ... ... : ... .. 7 ... ... : ... .. 7 ... ... : ... .. . ... ...
ROW C8 : ... .. 8 ... ... ... : ... .. . ... ... ... : B-1 00 . ... : ... .. . ... : ... .. . ... ... : ... .. . ... ... : ... .. . ... ... : ... .. 4 ... ...
ROW C9 : ... .. 7 ... ... ... : ... .. . ... ... ... : ... .. . ... : ... .. . ... : ... .. . ... ... : ... .. 6 ... ... : ... .. 6 ... ... : ... .. . ... ...
ROW CA : A-2 00 D ... ... ... : B-0 00 F ... ... ... : ... .. . ... : ... .. . ... : ... .. . ... ... : ... .. 5 ... ... : ... .. 5 ... ... : B-0 01 F ... ...
ROW CB : ... .. B ... ... ... : ... .. E ... ... ... : ... .. . ... : ... .. . ... : ... .. . ... ... : ... .. . ... ... : ... .. . ... ... : ... .. D ... ...
ROW CC : ... .. . ... ... ... : ... .. D ... ... ... : ... .. . ... : ... .. . ... : ... .. . ... ... : ... .. 3 ... ... : ... .. 3 ... ... : ... .. 8 ... ...
ROW CD : ... .. A ... ... ... : ... .. A ... ... ... : ... .. . ... : ... .. . ... : ... .. . ... ... : ... .. . ... ... : ... .. . ... ... : ... .. . ... ...
ROW CE : ... .. 8 ... ... ... : ... .. 2 ... ... ... : ... .. . ... : ... .. . ... : ... .. . ... ... : ... .. . ... ... : ... .. . ... ... : ... .. 4 ... ...
ROW CF : ... .. 7 ... ... ... : ... .. . ... ... ... : ... .. . ... : ... .. . ... : ... .. . ... ... : ... .. . ... ... : ... .. . ... ... : ... .. . ... ...
ROW D0 : B-4 00 D ... ... ... : C-4 00 F ... ... ... : A#3 00 . ... : 4-# 00 1 ... : ... .. . ... ... : ... .. A ... ... : ... .. A ... ... : B-1 01 F ... ...
ROW D1 : ... .. B ... ... ... : ... .. E ... ... ... : C-3 00 . ... : ... .. . ... : ... .. . ... ... : ... .. 9 ... ... : ... .. 9 ... ... : ... .. D ... ...
ROW D2 : ... .. . ... ... ... : ... .. D ... ... ... : F-2 00 . ... : ... .. . ... : ... .. . ... ... : ... .. 8 ... ... : ... .. 8 ... ... : ... .. 8 ... ...
ROW D3 : ... .. A ... ... ... : ... .. A ... ... ... : E-2 00 . ... : ... .. . ... : ... .. . ... ... : ... .. 7 ... ... : ... .. 7 ... ... : ... .. . ... ...
ROW D4 : ... .. 8 ... ... ... : ... .. . ... ... ... : B-1 00 . ... : ... .. . ... : ... .. . ... ... : ... .. . ... ... : ... .. . ... ... : ... .. 4 ... ...
ROW D5 : ... .. 7 ... ... ... : ... .. . ... ... ... : ... .. . ... : ... .. . ... : ... .. . ... ... : ... .. 6 ... ... : ... .. 6 ... ... : ... .. . ... ...
ROW D6 : F#4 00 D ... ... ... : B-0 00 F ... ... ... : ... .. . ... : ... .. . ... : ... .. . ... ... : ... .. . ... ... : ... .. . ... ... : B-0 01 F ... ...
ROW D7 : ... .. B ... ... ... : ... .. E ... ... ... : ... .. . ... : ... .. . ... : ... .. . ... ... : ... .. 5 ... ... : ... .. 5 ... ... : ... .. D ... ...
ROW D8 : ... .. . ... ... ... : ... .. D ... ... ... : ... .. . ... : ... .. . ... : ... .. . ... ... : ... .. . ... ... : ... .. . ... ... : ... .. 8 ... ...
ROW D9 : ... .. A ... ... ... : ... .. A ... ... ... : ... .. . ... : ... .. . ... : ... .. . ... ... : ... .. . ... ... : ... .. . ... ... : ... .. . ... ...
ROW DA : ... .. 8 ... ... ... : ... .. 2 ... ... ... : ... .. . ... : ... .. . ... : ... .. . ... ... : ... .. . ... ... : ... .. . ... ... : ... .. 4 ... ...
ROW DB : ... .. 7 ... ... ... : ... .. . ... ... ... : ... .. . ... : ... .. . ... : ... .. . ... ... : ... .. . ... ... : ... .. . ... ... : ... .. . ... ...
ROW DC : B-3 00 D ... ... ... : ... .. F ... ... ... : ... .. . ... : ... .. . ... : ... .. . ... ... : ... .. . ... ... : ... .. . ... ... : ... .. F ... ...
ROW DD : ... .. B ... ... ... : ... .. E ... ... ... : ... .. . ... : ... .. . ... : ... .. . ... ... : ... .. . ... ... : ... .. . ... ... : ... .. D ... ...
ROW DE : ... .. . ... ... ... : ... .. D ... ... ... : ... .. . ... : ... .. . ... : ... .. . ... ... : ... .. 3 ... ... : ... .. 3 ... ... : ... .. 8 ... ...
ROW DF : ... .. A ... ... ... : ... .. A ... ... ... : ... .. . ... : ... .. . ... : ... .. . ... ... : ... .. . ... ... : ... .. . ... ... : ... .. . ... ...
ROW E0 : ... .. 8 ... ... ... : ... .. 2 ... ... ... : ... .. . ... : ... .. . ... : ... .. . ... ... : ... .. . ... ... : ... .. . ... ... : ... .. 4 ... ...
ROW E1 : ... .. 7 ... ... ... : ... .. . ... ... ... : ... .. . ... : ... .. . ... : ... .. . ... ... : ... .. . ... ... : ... .. . ... ... : ... .. . ... ...
ROW E2 : A-3 00 D ... ... ... : C-4 00 F ... ... ... : A#3 00 . ... : 6-# 00 1 ... : ... .. . ... ... : ... .. A ... ... : ... .. A ... ... : B-1 01 F ... ...
ROW E3 : ... .. B ... ... ... : ... .. E ... ... ... : C-3 00 . ... : ... .. . ... : ... .. . ... ... : ... .. 9 ... ... : ... .. 9 ... ... : ... .. D ... ...
ROW E4 : ... .. . ... ... ... : ... .. D ... ... ... : F-2 00 . ... : ... .. . ... : ... .. . ... ... : ... .. 8 ... ... : ... .. 8 ... ... : ... .. 8 ... ...
ROW E5 : ... .. A ... ... ... : ... .. A ... ... ... : E-2 00 . ... : ... .. 2 ... : ... .. . ... ... : ... .. 7 ... ... : ... .. 7 ... ... : ... .. . ... ...
ROW E6 : ... .. 8 ... ... ... : ... .. . ... ... ... : B-1 00 . ... : ... .. 1 ... : ... .. . ... ... : ... .. . ... ... : ... .. . ... ... : ... .. 4 ... ...
ROW E7 : ... .. 7 ... ... ... : ... .. . ... ... ... : ... .. . ... : ... .. . ... : ... .. . ... ... : ... .. 6 ... ... : ... .. 6 ... ... : ... .. . ... ...
ROW E8 : B-3 00 D ... ... ... : B-0 00 F ... ... ... : ... .. . ... : ... .. 2 ... : ... .. . ... ... : ... .. . ... ... : ... .. . ... ... : B-0 01 F ... ...
ROW E9 : ... .. B ... ... ... : ... .. E ... ... ... : ... .. . ... : ... .. . ... : ... .. . ... ... : ... .. 5 ... ... : ... .. 5 ... ... : ... .. D ... ...
ROW EA : ... .. . ... ... ... : ... .. D ... ... ... : ... .. . ... : ... .. . ... : ... .. . ... ... : ... .. . ... ... : ... .. . ... ... : ... .. 8 ... ...
ROW EB : ... .. A ... ... ... : ... .. A ... ... ... : ... .. . ... : ... .. . ... : ... .. . ... ... : ... .. . ... ... : ... .. . ... ... : ... .. . ... ...
ROW EC : ... .. 8 ... ... ... : ... .. 2 ... ... ... : ... .. . ... : ... .. 1 ... : ... .. . ... ... : ... .. . ... ... : ... .. . ... ... : ... .. 4 ... ...
ROW ED : ... .. 7 ... ... ... : ... .. . ... ... ... : ... .. . ... : ... .. . ... : ... .. . ... ... : ... .. . ... ... : ... .. . ... ... : ... .. . ... ...
ROW EE : F#4 00 D ... ... ... : ... .. F ... ... ... : ... .. . ... : ... .. 2 ... : ... .. . ... ... : ... .. . ... ... : ... .. . ... ... : ... .. F ... ...
ROW EF : ... .. B ... ... ... : ... .. E ... ... ... : ... .. . ... : ... .. . ... : ... .. . ... ... : ... .. . ... ... : ... .. . ... ... : ... .. D ... ...
ROW F0 : ... .. . ... ... ... : ... .. D ... ... ... : ... .. . ... : ... .. . ... : ... .. . ... ... : ... .. 3 ... ... : ... .. 3 ... ... : ... .. 8 ... ...
ROW F1 : ... .. A ... ... ... : ... .. A ... ... ... : ... .. . ... : ... .. . ... : ... .. . ... ... : ... .. . ... ... : ... .. . ... ... : ... .. . ... ...
ROW F2 : ... .. 8 ... ... ... : ... .. 2 ... ... ... : ... .. . ... : ... .. . ... : ... .. . ... ... : ... .. . ... ... : ... .. . ... ... : ... .. 4 ... ...
ROW F3 : ... .. 7 ... ... ... : ... .. . ... ... ... : ... .. . ... : ... .. 1 ... : ... .. . ... ... : ... .. . ... ... : ... .. . ... ... : ... .. . ... ...
ROW F4 : B-4 00 D ... ... ... : D-4 00 F ... ... ... : A#3 00 . ... : 8-# 00 3 ... : ... .. . ... ... : G-3 01 A ... ... : C-4 01 A ... ... : B-1 01 F ... ...
ROW F5 : ... .. B ... ... ... : ... .. E ... ... ... : C-3 00 . ... : ... .. 2 ... : ... .. . ... ... : ... .. 9 ... ... : ... .. 9 ... ... : ... .. D ... ...
ROW F6 : ... .. . ... ... ... : ... .. D ... ... ... : F-2 00 . ... : ... .. . ... : ... .. . ... ... : ... .. 8 ... ... : ... .. 8 ... ... : ... .. 8 ... ...
ROW F7 : ... .. A ... ... ... : ... .. A ... ... ... : E-2 00 . ... : ... .. . ... : ... .. . ... ... : ... .. 7 ... ... : ... .. 7 ... ... : ... .. . ... ...
ROW F8 : ... .. 8 ... ... ... : ... .. . ... ... ... : B-1 00 . ... : ... .. . ... : ... .. . ... ... : ... .. . ... ... : ... .. . ... ... : ... .. 4 ... ...
ROW F9 : ... .. 7 ... ... ... : ... .. . ... ... ... : ... .. . ... : ... .. 1 ... : ... .. . ... ... : ... .. 6 ... ... : ... .. 6 ... ... : ... .. . ... ...
ROW FA : C-5 00 D ... ... ... : B-0 00 F ... ... ... : ... .. . ... : ... .. 4 ... : ... .. . ... ... : ... .. . ... ... : ... .. . ... ... : B-0 01 F ... ...
ROW FB : ... .. B ... ... ... : ... .. E ... ... ... : ... .. . ... : ... .. 3 ... : ... .. . ... ... : ... .. 5 ... ... : ... .. 5 ... ... : ... .. D ... ...
ROW FC : ... .. . ... ... ... : ... .. D ... ... ... : ... .. . ... : ... .. . ... : ... .. . ... ... : ... .. . ... ... : ... .. . ... ... : ... .. 8 ... ...
ROW FD : ... .. A ... ... ... : ... .. A ... ... ... : ... .. . ... : ... .. . ... : ... .. . ... ... : ... .. . ... ... : ... .. . ... ... : ... .. . ... ...
ROW FE : ... .. 8 ... ... ... : ... .. 2 ... ... ... : ... .. . ... : ... .. 2 ... : ... .. . ... ... : ... .. . ... ... : ... .. . ... ... : ... .. 4 ... ...
ROW FF : ... .. 7 ... ... ... : ... .. . ... ... ... : ... .. . ... : ... .. . ... : ... .. . ... ... : ... .. . ... ... : ... .. . ... ... : ... .. . ... ...

PATTERN 03
ROW 00 : B-4 00 D ... ... ... : ... .. F ... ... ... : A#3 00 . ... : 9-# 00 4 ... : ... .. . ... ... : ... .. . ... ... : ... .. . ... ... : ... .. F ... ...
ROW 01 : ... .. B ... ... ... : ... .. E ... ... ... : C-3 00 . ... : ... .. 3 ... : ... .. . ... ... : ... .. . ... ... : ... .. . ... ... : ... .. D ... ...
ROW 02 : ... .. . ... ... ... : ... .. D ... ... ... : F-2 00 . ... : ... .. . ... : ... .. . ... ... : ... .. 3 ... ... : ... .. 3 ... ... : ... .. 8 ... ...
ROW 03 : ... .. A ... ... ... : ... .. A ... ... ... : E-2 00 . ... : ... .. . ... : ... .. . ... ... : ... .. . ... ... : ... .. . ... ... : ... .. . ... ...
ROW 04 : ... .. 8 ... ... ... : ... .. 2 ... ... ... : B-1 00 . ... : ... .. 2 ... : ... .. . ... ... : ... .. . ... ... : ... .. . ... ... : ... .. 4 ... ...
ROW 05 : ... .. 7 ... ... ... : ... .. . ... ... ... : ... .. . ... : ... .. . ... : ... .. . ... ... : ... .. . ... ... : ... .. . ... ... : ... .. . ... ...
ROW 06 : F#4 00 D ... ... ... : D-4 00 F ... ... ... : ... .. . ... : ... .. 5 ... : ... .. . ... ... : ... .. A ... ... : ... .. A ... ... : B-1 01 F ... ...
ROW 07 : ... .. B ... ... ... : ... .. E ... ... ... : ... .. . ... : ... .. 4 ... : ... .. . ... ... : ... .. 9 ... ... : ... .. 9 ... ... : ... .. D ... ...
ROW 08 : ... .. . ... ... ... : ... .. D ... ... ... : ... .. . ... : ... .. . ... : ... .. . ... ... : ... .. 8 ... ... : ... .. 8 ... ... : ... .. 8 ... ...
ROW 09 : ... .. A ... ... ... : ... .. A ... ... ... : ... .. . ... : ... .. . ... : ... .. . ... ... : ... .. 7 ... ... : ... .. 7 ... ... : ... .. . ... ...
ROW 0A : ... .. 8 ... ... ... : ... .. . ... ... ... : ... .. . ... : ... .. 3 ... : ... .. . ... ... : ... .. . ... ... : ... .. . ... ... : ... .. 4 ... ...
ROW 0B : ... .. 7 ... ... ... : ... .. . ... ... ... : ... .. . ... : ... .. 2 ... : ... .. . ... ... : ... .. 6 ... ... : ... .. 6 ... ... : ... .. . ... ...
ROW 0C : B-3 00 D ... ... ... : B-0 00 F ... ... ... : A#3 00 . ... : 6-# 00 5 ... : ... .. . ... ... : ... .. . ... ... : ... .. . ... ... : B-0 01 F ... ...
ROW 0D : ... .. B ... ... ... : ... .. E ... ... ... : C-3 00 . ... : ... .. 4 ... : ... .. . ... ... : ... .. 5 ... ... : ... .. 5 ... ... : ... .. D ... ...
ROW 0E : ... .. . ... ... ... : ... .. D ... ... ... : F-2 00 . ... : ... .. . ... : ... .. . ... ... : ... .. . ... ... : ... .. . ... ... : ... .. 8 ... ...
ROW 0F : ... .. A ... ... ... : ... .. A ... ... ... : E-2 00 . ... : ... .. . ... : ... .. . ... ... : ... .. . ... ... : ... .. . ... ... : ... .. . ... ...
ROW 10 : ... .. 8 ... ... ... : ... .. 2 ... ... ... : B-1 00 . ... : ... .. 3 ... : ... .. . ... ... : ... .. . ... ... : ... .. . ... ... : ... .. 4 ... ...
ROW 11 : ... .. 7 ... ... ... : ... .. . ... ... ... : ... .. . ... : ... .. . ... : ... .. . ... ... : ... .. . ... ... : ... .. . ... ... : ... .. . ... ...
ROW 12 : A-3 00 D ... ... ... : ... .. F ... ... ... : ... .. . ... : ... .. 6 ... : ... .. . ... ... : ... .. . ... ... : ... .. . ... ... : ... .. F ... ...
ROW 13 : ... .. B ... ... ... : ... .. E ... ... ... : ... .. . ... : ... .. 5 ... : ... .. . ... ... : ... .. . ... ... : ... .. . ... ... : ... .. D ... ...
ROW 14 : ... .. . ... ... ... : ... .. D ... ... ... : ... .. . ... : ... .. . ... : ... .. . ... ... : ... .. 3 ... ... : ... .. 3 ... ... : ... .. 8 ... ...
ROW 15 : ... .. A ... ... ... : ... .. A ... ... ... : ... .. . ... : ... .. 4 ... : ... .. . ... ... : ... .. . ... ... : ... .. . ... ... : ... .. . ... ...
ROW 16 : ... .. 8 ... ... ... : ... .. 2 ... ... ... : ... .. . ... : ... .. 3 ... : ... .. . ... ... : ... .. . ... ... : ... .. . ... ... : ... .. 4 ... ...
ROW 17 : ... .. 7 ... ... ... : ... .. . ... ... ... : ... .. . ... : ... .. . ... : ... .. . ... ... : ... .. . ... ... : ... .. . ... ... : ... .. . ... ...
ROW 18 : B-3 00 D ... ... ... : E-4 00 F ... ... ... : A#3 00 . ... : ... .. 6 ... : ... .. . ... ... : F#3 01 A ... ... : D-4 01 A ... ... : B-1 01 F ... ...
ROW 19 : ... .. B ... ... ... : ... .. E ... ... ... : C-3 00 . ... : ... .. 5 ... : ... .. . ... ... : ... .. 9 ... ... : ... .. 9 ... ... : ... .. D ... ...
ROW 1A : ... .. . ... ... ... : ... .. D ... ... ... : F-2 00 . ... : ... .. . ... : ... .. . ... ... : ... .. 8 ... ... : ... .. 8 ... ... : ... .. 8 ... ...
ROW 1B : ... .. A ... ... ... : ... .. A ... ... ... : E-2 00 . ... : ... .. . ... : ... .. . ... ... : ... .. 7 ... ... : ... .. 7 ... ... : ... .. . ... ...
ROW 1C : ... .. 8 ... ... ... : ... .. . ... ... ... : B-1 00 . ... : ... .. 4 ... : ... .. . ... ... : ... .. . ... ... : ... .. . ... ... : ... .. 4 ... ...
ROW 1D : ... .. 7 ... ... ... : ... .. . ... ... ... : ... .. . ... : ... .. 3 ... : ... .. . ... ... : ... .. 6 ... ... : ... .. 6 ... ... : ... .. . ... ...
ROW 1E : F#3 00 D ... ... ... : B-0 00 F ... ... ... : ... .. . ... : 8-# 00 6 ... : ... .. . ... ... : ... .. . ... ... : ... .. . ... ... : B-0 01 F ... ...
ROW 1F : ... .. B ... ... ... : ... .. E ... ... ... : ... .. . ... : ... .. 5 ... : ... .. . ... ... : ... .. 5 ... ... : ... .. 5 ... ... : ... .. D ... ...
ROW 20 : ... .. . ... ... ... : ... .. D ... ... ... : ... .. . ... : ... .. . ... : ... .. . ... ... : ... .. . ... ... : ... .. . ... ... : ... .. 8 ... ...
ROW 21 : ... .. A ... ... ... : ... .. A ... ... ... : ... .. . ... : ... .. . ... : ... .. . ... ... : ... .. . ... ... : ... .. . ... ... : ... .. . ... ...
ROW 22 : ... .. 8 ... ... ... : ... .. 2 ... ... ... : ... .. . ... : ... .. 4 ... : ... .. . ... ... : ... .. . ... ... : ... .. . ... ... : ... .. 4 ... ...
ROW 23 : ... .. 7 ... ... ... : ... .. . ... ... ... : ... .. . ... : ... .. 3 ... : ... .. . ... ... : ... .. . ... ... : ... .. . ... ... : ... .. . ... ...
ROW 24 : B-2 00 D ... ... ... : ... .. F ... ... ... : ... .. . ... : ... .. 7 ... : ... .. . ... ... : ... .. . ... ... : ... .. . ... ... : ... .. F ... ...
ROW 25 : ... .. B ... ... ... : ... .. E ... ... ... : ... .. . ... : ... .. 6 ... : ... .. . ... ... : ... .. . ... ... : ... .. . ... ... : ... .. D ... ...
ROW 26 : ... .. . ... ... ... : ... .. D ... ... ... : ... .. . ... : ... .. . ... : ... .. . ... ... : ... .. 3 ... ... : ... .. 3 ... ... : ... .. 8 ... ...
ROW 27 : ... .. A ... ... ... : ... .. A ... ... ... : ... .. . ... : ... .. . ... : ... .. . ... ... : ... .. . ... ... : ... .. . ... ... : ... .. . ... ...
ROW 28 : ... .. 8 ... ... ... : ... .. 2 ... ... ... : ... .. . ... : ... .. 4 ... : ... .. . ... ... : ... .. . ... ... : ... .. . ... ... : ... .. 4 ... ...
ROW 29 : ... .. 7 ... ... ... : ... .. . ... ... ... : ... .. . ... : ... .. . ... : ... .. . ... ... : ... .. . ... ... : ... .. . ... ... : ... .. . ... ...
ROW 2A : A-2 00 D ... ... ... : E-4 00 F ... ... ... : A#3 00 . ... : ... .. 7 ... : ... .. . ... ... : ... .. A ... ... : ... .. A ... ... : B-1 01 F ... ...
ROW 2B : ... .. B ... ... ... : ... .. E ... ... ... : C-3 00 . ... : ... .. 6 ... : ... .. . ... ... : ... .. 9 ... ... : ... .. 9 ... ... : ... .. D ... ...
ROW 2C : ... .. . ... ... ... : ... .. D ... ... ... : F-2 00 . ... : ... .. . ... : ... .. . ... ... : ... .. 8 ... ... : ... .. 8 ... ... : ... .. 8 ... ...
ROW 2D : ... .. A ... ... ... : ... .. A ... ... ... : E-2 00 . ... : ... .. . ... : ... .. . ... ... : ... .. 7 ... ... : ... .. 7 ... ... : ... .. . ... ...
ROW 2E : ... .. 8 ... ... ... : ... .. . ... ... ... : B-1 00 . ... : ... .. 5 ... : ... .. . ... ... : ... .. . ... ... : ... .. . ... ... : ... .. 4 ... ...
ROW 2F : ... .. 7 ... ... ... : ... .. . ... ... ... : ... .. . ... : ... .. 4 ... : ... .. . ... ... : ... .. 6 ... ... : ... .. 6 ... ... : ... .. . ... ...
ROW 30 : B-2 00 D ... ... ... : B-0 00 F ... ... ... : ... .. . ... : 9-# 00 8 ... : ... .. . ... ... : ... .. . ... ... : ... .. . ... ... : B-0 01 F ... ...
ROW 31 : ... .. B ... ... ... : ... .. E ... ... ... : ... .. . ... : ... .. 7 ... : ... .. . ... ... : ... .. 5 ... ... : ... .. 5 ... ... : ... .. D ... ...
ROW 32 : ... .. . ... ... ... : ... .. D ... ... ... : ... .. . ... : ... .. . ... : ... .. . ... ... : ... .. . ... ... : ... .. . ... ... : ... .. 8 ... ...
ROW 33 : ... .. A ... ... ... : ... .. A ... ... ... : ... .. . ... : ... .. 6 ... : ... .. . ... ... : ... .. . ... ... : ... .. . ... ... : ... .. . ... ...
ROW 34 : ... .. 8 ... ... ... : ... .. 2 ... ... ... : ... .. . ... : ... .. 5 ... : ... .. . ... ... : ... .. . ... ... : ... .. . ... ... : ... .. 4 ... ...
ROW 35 : ... .. 7 ... ... ... : ... .. . ... ... ... : ... .. . ... : ... .. 4 ... : ... .. . ... ... : ... .. . ... ... : ... .. . ... ... : ... .. . ... ...
ROW 36 : F#3 00 D ... ... ... : ... .. F ... ... ... : ... .. . ... : ... .. 8 ... : ... .. . ... ... : ... .. . ... ... : ... .. . ... ... : ... .. F ... ...
ROW 37 : ... .. B ... ... ... : ... .. E ... ... ... : ... .. . ... : ... .. 7 ... : ... .. . ... ... : ... .. . ... ... : ... .. . ... ... : ... .. D ... ...
ROW 38 : ... .. . ... ... ... : ... .. D ... ... ... : ... .. . ... : ... .. . ... : ... .. . ... ... : ... .. 3 ... ... : ... .. 3 ... ... : ... .. 8 ... ...
ROW 39 : ... .. A ... ... ... : ... .. A ... ... ... : ... .. . ... : ... .. . ... : ... .. . ... ... : ... .. . ... ... : ... .. . ... ... : ... .. . ... ...
ROW 3A : ... .. 8 ... ... ... : ... .. 2 ... ... ... : ... .. . ... : ... .. 5 ... : ... .. . ... ... : ... .. . ... ... : ... .. . ... ... : ... .. 4 ... ...
ROW 3B : ... .. 7 ... ... ... : ... .. . ... ... ... : ... .. . ... : ... .. . ... : ... .. . ... ... : ... .. . ... ... : ... .. . ... ... : ... .. . ... ...
ROW 3C : B-3 00 D ... ... ... : F#4 00 F ... ... ... : A#3 00 . ... : ... .. 9 ... : ... .. . ... ... : ... .. A ... ... : E-4 01 A ... ... : B-1 01 F ... ...
ROW 3D : ... .. B ... ... ... : ... .. E ... ... ... : C-3 00 . ... : ... .. 8 ... : ... .. . ... ... : ... .. 9 ... ... : ... .. 9 ... ... : ... .. D ... ...
ROW 3E : ... .. . ... ... ... : ... .. D ... ... ... : F-2 00 . ... : ... .. . ... : ... .. . ... ... : ... .. 8 ... ... : ... .. 8 ... ... : ... .. 8 ... ...
ROW 3F : ... .. A ... ... ... : ... .. A ... ... ... : E-2 00 . ... : ... .. 7 ... : ... .. . ... ... : ... .. 7 ... ... : ... .. 7 ... ... : ... .. . ... ...
ROW 40 : ... .. 8 ... ... ... : ... .. . ... ... ... : B-1 00 . ... : ... .. 5 ... : ... .. . ... ... : ... .. . ... ... : ... .. . ... ... : ... .. 4 ... ...
ROW 41 : ... .. 7 ... ... ... : ... .. . ... ... ... : ... .. . ... : ... .. . ... : ... .. . ... ... : ... .. 6 ... ... : ... .. 6 ... ... : ... .. . ... ...
ROW 42 : C-4 00 D ... ... ... : B-0 00 F ... ... ... : ... .. . ... : B-# 00 A ... : ... .. . ... ... : ... .. 5 ... ... : ... .. 5 ... ... : B-0 01 F ... ...
ROW 43 : ... .. B ... ... ... : ... .. E ... ... ... : ... .. . ... : ... .. 8 ... : ... .. . ... ... : ... .. . ... ... : ... .. . ... ... : ... .. D ... ...
ROW 44 : ... .. . ... ... ... : ... .. D ... ... ... : ... .. . ... : ... .. . ... : ... .. . ... ... : ... .. 3 ... ... : ... .. 3 ... ... : ... .. 8 ... ...
ROW 45 : ... .. A ... ... ... : ... .. A ... ... ... : ... .. . ... : ... .. . ... : ... .. . ... ... : ... .. . ... ... : ... .. . ... ... : ... .. . ... ...
ROW 46 : ... .. 8 ... ... ... : ... .. 2 ... ... ... : ... .. . ... : ... .. 6 ... : ... .. . ... ... : ... .. . ... ... : ... .. . ... ... : ... .. 4 ... ...
ROW 47 : ... .. 7 ... ... ... : ... .. . ... ... ... : ... .. . ... : ... .. 5 ... : ... .. . ... ... : ... .. . ... ... : ... .. . ... ... : ... .. . ... ...
ROW 48 : B-3 00 D ... ... ... : G-4 00 F ... ... ... : A#3 00 . ... : ... .. A ... : ... .. . ... ... : E-3 01 A ... ... : ... .. A ... ... : B-1 01 F ... ...
ROW 49 : ... .. B ... ... ... : ... .. E ... ... ... : C-3 00 . ... : ... .. 8 ... : ... .. . ... ... : ... .. 9 ... ... : ... .. 9 ... ... : ... .. D ... ...
ROW 4A : ... .. . ... ... ... : ... .. D ... ... ... : F-2 00 . ... : ... .. . ... : ... .. . ... ... : ... .. 8 ... ... : ... .. 8 ... ... : ... .. 8 ... ...
ROW 4B : ... .. A ... ... ... : ... .. A ... ... ... : E-2 00 . ... : ... .. . ... : ... .. . ... ... : ... .. 7 ... ... : ... .. 7 ... ... : ... .. . ... ...
ROW 4C : ... .. 8 ... ... ... : ... .. . ... ... ... : B-1 00 . ... : ... .. 6 ... : ... .. . ... ... : ... .. . ... ... : ... .. . ... ... : ... .. 4 ... ...
ROW 4D : ... .. 7 ... ... ... : ... .. . ... ... ... : ... .. . ... : ... .. 5 ... : ... .. . ... ... : ... .. 6 ... ... : ... .. 6 ... ... : ... .. . ... ...
ROW 4E : F#3 00 D ... ... ... : B-0 00 F ... ... ... : ... .. . ... : ... .. B ... : ... .. . ... ... : ... .. 5 ... ... : ... .. 5 ... ... : B-0 01 F ... ...
ROW 4F : ... .. B ... ... ... : ... .. E ... ... ... : ... .. . ... : ... .. 9 ... : ... .. . ... ... : ... .. . ... ... : ... .. . ... ... : ... .. D ... ...
ROW 50 : ... .. . ... ... ... : ... .. D ... ... ... : ... .. . ... : ... .. . ... : ... .. . ... ... : ... .. 3 ... ... : ... .. 3 ... ... : ... .. 8 ... ...
ROW 51 : ... .. A ... ... ... : ... .. A ... ... ... : ... .. . ... : ... .. 8 ... : ... .. . ... ... : ... .. . ... ... : ... .. . ... ... : ... .. . ... ...
ROW 52 : ... .. 8 ... ... ... : ... .. 2 ... ... ... : ... .. . ... : ... .. 6 ... : ... .. . ... ... : ... .. . ... ... : ... .. . ... ... : ... .. 4 ... ...
ROW 53 : ... .. 7 ... ... ... : ... .. . ... ... ... : ... .. . ... : ... .. . ... : ... .. . ... ... : ... .. . ... ... : ... .. . ... ... : ... .. . ... ...
ROW 54 : B-2 00 D ... ... ... : A-4 00 F ... ... ... : A#3 00 . ... : D-# 00 B ... : ... .. . ... ... : D-3 01 A ... ... : ... .. A ... ... : B-1 01 F ... ...
ROW 55 : ... .. B ... ... ... : ... .. E ... ... ... : C-3 00 . ... : ... .. 9 ... : ... .. . ... ... : ... .. 9 ... ... : ... .. 9 ... ... : ... .. D ... ...
ROW 56 : ... .. . ... ... ... : ... .. D ... ... ... : F-2 00 . ... : ... .. . ... : ... .. . ... ... : ... .. 8 ... ... : ... .. 8 ... ... : ... .. 8 ... ...
ROW 57 : ... .. A ... ... ... : ... .. A ... ... ... : E-2 00 . ... : ... .. . ... : ... .. . ... ... : ... .. 7 ... ... : ... .. 7 ... ... : ... .. . ... ...
ROW 58 : ... .. 8 ... ... ... : ... .. . ... ... ... : B-1 00 . ... : ... .. 7 ... : ... .. . ... ... : ... .. . ... ... : ... .. . ... ... : ... .. 4 ... ...
ROW 59 : ... .. 7 ... ... ... : ... .. . ... ... ... : ... .. . ... : ... .. 6 ... : ... .. . ... ... : ... .. 6 ... ... : ... .. 6 ... ... : ... .. . ... ...
ROW 5A : A-2 00 D ... ... ... : B-0 00 F ... ... ... : ... .. . ... : ... .. C ... : ... .. . ... ... : ... .. 5 ... ... : ... .. 5 ... ... : B-0 01 F ... ...
ROW 5B : ... .. B ... ... ... : ... .. E ... ... ... : ... .. . ... : ... .. A ... : ... .. . ... ... : ... .. . ... ... : ... .. . ... ... : ... .. D ... ...
ROW 5C : ... .. . ... ... ... : ... .. D ... ... ... : ... .. . ... : ... .. . ... : ... .. . ... ... : ... .. 3 ... ... : ... .. 3 ... ... : ... .. 8 ... ...
ROW 5D : ... .. A ... ... ... : ... .. A ... ... ... : ... .. . ... : ... .. 9 ... : ... .. . ... ... : ... .. . ... ... : ... .. . ... ... : ... .. . ... ...
ROW 5E : ... .. 8 ... ... ... : ... .. 2 ... ... ... : ... .. . ... : ... .. 7 ... : ... .. . ... ... : ... .. . ... ... : ... .. . ... ... : ... .. 4 ... ...
ROW 5F : ... .. 7 ... ... ... : ... .. . ... ... ... : ... .. . ... : ... .. 6 ... : ... .. . ... ... : ... .. . ... ... : ... .. . ... ... : ... .. . ... ...
ROW 60 : B-4 00 D ... ... ... : B-4 00 F ... ... ... : B-3 00 . ... : E-# 00 D ... : ... .. . ... ... : E-4 01 A ... ... : D-4 01 A ... ... : C-2 01 F ... ...
ROW 61 : ... .. B ... ... ... : ... .. E ... ... ... : C#3 00 . ... : ... .. B ... : ... .. . ... ... : ... .. 9 ... ... : ... .. 9 ... ... : ... .. D ... ...
ROW 62 : ... .. . ... ... ... : ... .. D ... ... ... : F#2 00 . ... : ... .. . ... : ... .. . ... ... : ... .. 8 ... ... : ... .. 8 ... ... : ... .. 8 ... ...
ROW 63 : ... .. A ... ... ... : ... .. A ... ... ... : F-2 00 . ... : ... .. A ... : ... .. . ... ... : ... .. 7 ... ... : ... .. 7 ... ... : ... .. . ... ...
ROW 64 : ... .. 8 ... ... ... : ... .. . ... ... ... : C-2 00 . ... : ... .. 8 ... : ... .. . ... ... : ... .. . ... ... : ... .. . ... ... : ... .. 4 ... ...
ROW 65 : ... .. 7 ... ... ... : ... .. . ... ... ... : ... .. . ... : ... .. 7 ... : ... .. . ... ... : ... .. 6 ... ... : ... .. 6 ... ... : ... .. . ... ...
ROW 66 : F#4 00 D ... ... ... : ... .. . ... ... ... : ... .. . ... : D-# 00 D ... : ... .. . ... ... : ... .. . ... ... : ... .. . ... ... : C-1 01 F ... ...
ROW 67 : ... .. B ... ... ... : ... .. . ... ... ... : ... .. . ... : ... .. B ... : ... .. . ... ... : ... .. 5 ... ... : ... .. 5 ... ... : ... .. D ... ...
ROW 68 : ... .. . ... ... ... : ... .. . ... ... ... : ... .. . ... : ... .. . ... : ... .. . ... ... : ... .. . ... ... : ... .. . ... ... : ... .. 8 ... ...
ROW 69 : ... .. A ... ... ... : ... .. . ... ... ... : ... .. . ... : ... .. A ... : ... .. . ... ... : ... .. . ... ... : ... .. . ... ... : ... .. . ... ...
ROW 6A : ... .. 8 ... ... ... : ... .. . ... ... ... : ... .. . ... : ... .. 8 ... : ... .. . ... ... : ... .. . ... ... : ... .. . ... ... : ... .. 4 ... ...
ROW 6B : ... .. 7 ... ... ... : ... .. . ... ... ... : ... .. . ... : ... .. 7 ... : ... .. . ... ... : ... .. . ... ... : ... .. . ... ... : ... .. . ... ...
ROW 6C : B-3 00 D ... ... ... : ... .. . ... ... ... : ... .. . ... : ... .. D ... : ... .. . ... ... : ... .. . ... ... : ... .. . ... ... : ... .. F ... ...
ROW 6D : ... .. B ... ... ... : ... .. . ... ... ... : ... .. . ... : ... .. B ... : ... .. . ... ... : ... .. . ... ... : ... .. . ... ... : ... .. D ... ...
ROW 6E : ... .. . ... ... ... : ... .. . ... ... ... : ... .. . ... : ... .. . ... : ... .. . ... ... : ... .. . ... ... : ... .. . ... ... : ... .. 8 ... ...
ROW 6F : ... .. A ... ... ... : ... .. . ... ... ... : ... .. . ... : ... .. A ... : ... .. . ... ... : ... .. . ... ... : ... .. . ... ... : ... .. . ... ...
ROW 70 : ... .. 8 ... ... ... : ... .. 2 ... ... ... : ... .. . ... : ... .. 8 ... : ... .. . ... ... : ... .. . ... ... : ... .. . ... ... : ... .. 4 ... ...
ROW 71 : ... .. 7 ... ... ... : ... .. . ... ... ... : ... .. . ... : ... .. 7 ... : ... .. . ... ... : ... .. 3 ... ... : ... .. 3 ... ... : ... .. . ... ...
ROW 72 : A-3 00 D ... ... ... : E-4 00 F ... ... ... : B-3 00 . ... : C-# 00 D ... : ... .. . ... ... : G-3 01 A ... ... : D-3 01 A ... ... : C-2 01 F ... ...
ROW 73 : ... .. B ... ... ... : ... .. E ... ... ... : C#3 00 . ... : ... .. B ... : ... .. . ... ... : ... .. 9 ... ... : ... .. 9 ... ... : ... .. D ... ...
ROW 74 : ... .. . ... ... ... : ... .. D ... ... ... : F#2 00 . ... : ... .. . ... : ... .. . ... ... : ... .. 8 ... ... : ... .. 8 ... ... : ... .. 8 ... ...
ROW 75 : ... .. A ... ... ... : ... .. A ... ... ... : F-2 00 . ... : ... .. A ... : ... .. . ... ... : ... .. 7 ... ... : ... .. 7 ... ... : ... .. . ... ...
ROW 76 : ... .. 8 ... ... ... : ... .. . ... ... ... : C-2 00 . ... : ... .. 8 ... : ... .. . ... ... : ... .. . ... ... : ... .. . ... ... : ... .. 4 ... ...
ROW 77 : ... .. 7 ... ... ... : ... .. . ... ... ... : ... .. . ... : ... .. 7 ... : ... .. . ... ... : ... .. 6 ... ... : ... .. 6 ... ... : ... .. . ... ...
ROW 78 : B-3 00 D ... ... ... : ... .. . ... ... ... : ... .. . ... : ... .. D ... : ... .. . ... ... : ... .. . ... ... : ... .. . ... ... : C-1 01 F ... ...
ROW 79 : ... .. B ... ... ... : ... .. . ... ... ... : ... .. . ... : ... .. B ... : ... .. . ... ... : ... .. 5 ... ... : ... .. 5 ... ... : ... .. D ... ...
ROW 7A : ... .. . ... ... ... : ... .. . ... ... ... : ... .. . ... : ... .. . ... : ... .. . ... ... : ... .. . ... ... : ... .. . ... ... : ... .. 8 ... ...
ROW 7B : ... .. A ... ... ... : ... .. . ... ... ... : ... .. . ... : ... .. A ... : ... .. . ... ... : ... .. . ... ... : ... .. . ... ... : ... .. . ... ...
ROW 7C : ... .. 8 ... ... ... : ... .. . ... ... ... : ... .. . ... : ... .. 8 ... : ... .. . ... ... : ... .. . ... ... : ... .. . ... ... : ... .. 4 ... ...
ROW 7D : ... .. 7 ... ... ... : ... .. . ... ... ... : ... .. . ... : ... .. 7 ... : ... .. . ... ... : ... .. . ... ... : ... .. . ... ... : ... .. . ... ...
ROW 7E : F#4 00 D ... ... ... : ... .. . ... ... ... : ... .. . ... : B-# 00 D ... : ... .. . ... ... : ... .. . ... ... : ... .. . ... ... : ... .. F ... ...
ROW 7F : ... .. B ... ... ... : ... .. . ... ... ... : ... .. . ... : ... .. B ... : ... .. . ... ... : ... .. . ... ... : ... .. . ... ... : ... .. D ... ...
ROW 80 : ... .. . ... ... ... : ... .. . ... ... ... : ... .. . ... : ... .. . ... : ... .. . ... ... : ... .. . ... ... : ... .. . ... ... : ... .. 8 ... ...
ROW 81 : ... .. A ... ... ... : ... .. . ... ... ... : ... .. . ... : ... .. A ... : ... .. . ... ... : ... .. . ... ... : ... .. . ... ... : ... .. . ... ...
ROW 82 : ... .. 8 ... ... ... : ... .. 2 ... ... ... : ... .. . ... : ... .. 8 ... : ... .. . ... ... : ... .. . ... ... : ... .. . ... ... : ... .. 4 ... ...
ROW 83 : ... .. 7 ... ... ... : ... .. . ... ... ... : ... .. . ... : ... .. 7 ... : ... .. . ... ... : ... .. 3 ... ... : ... .. 3 ... ... : ... .. . ... ...
ROW 84 : B-4 00 D ... ... ... : A-4 00 F ... ... ... : B-3 00 . ... : ... .. D ... : ... .. . ... ... : D-4 01 A ... ... : G-3 01 A ... ... : C-2 01 F ... ...
ROW 85 : ... .. B ... ... ... : ... .. E ... ... ... : C#3 00 . ... : ... .. B ... : ... .. . ... ... : ... .. 9 ... ... : ... .. 9 ... ... : ... .. D ... ...
ROW 86 : ... .. . ... ... ... : ... .. D ... ... ... : F#2 00 . ... : ... .. . ... : ... .. . ... ... : ... .. 8 ... ... : ... .. 8 ... ... : ... .. 8 ... ...
ROW 87 : ... .. A ... ... ... : ... .. A ... ... ... : F-2 00 . ... : ... .. A ... : ... .. . ... ... : ... .. 7 ... ... : ... .. 7 ... ... : ... .. . ... ...
ROW 88 : ... .. 8 ... ... ... : ... .. . ... ... ... : C-2 00 . ... : ... .. 8 ... : ... .. . ... ... : ... .. . ... ... : ... .. . ... ... : ... .. 4 ... ...
ROW 89 : ... .. 7 ... ... ... : ... .. . ... ... ... : ... .. . ... : ... .. 7 ... : ... .. . ... ... : ... .. 6 ... ... : ... .. 6 ... ... : ... .. . ... ...
ROW 8A : C-5 00 D ... ... ... : ... .. . ... ... ... : ... .. . ... : A-# 00 D ... : ... .. . ... ... : ... .. . ... ... : ... .. . ... ... : C-1 01 F ... ...
ROW 8B : ... .. B ... ... ... : ... .. . ... ... ... : ... .. . ... : ... .. B ... : ... .. . ... ... : ... .. 5 ... ... : ... .. 5 ... ... : ... .. D ... ...
ROW 8C : ... .. . ... ... ... : ... .. . ... ... ... : ... .. . ... : ... .. . ... : ... .. . ... ... : ... .. . ... ... : ... .. . ... ... : ... .. 8 ... ...
ROW 8D : ... .. A ... ... ... : ... .. . ... ... ... : ... .. . ... : ... .. A ... : ... .. . ... ... : ... .. . ... ... : ... .. . ... ... : ... .. . ... ...
ROW 8E : ... .. 8 ... ... ... : ... .. . ... ... ... : ... .. . ... : ... .. 8 ... : ... .. . ... ... : ... .. . ... ... : ... .. . ... ... : ... .. 4 ... ...
ROW 8F : ... .. 7 ... ... ... : ... .. . ... ... ... : ... .. . ... : ... .. 7 ... : ... .. . ... ... : ... .. . ... ... : ... .. . ... ... : ... .. . ... ...
ROW 90 : B-4 00 D ... ... ... : ... .. . ... ... ... : B-3 00 . ... : B-# 00 D ... : ... .. . ... ... : ... .. . ... ... : ... .. . ... ... : ... .. F ... ...
ROW 91 : ... .. B ... ... ... : ... .. . ... ... ... : C#3 00 . ... : ... .. B ... : ... .. . ... ... : ... .. . ... ... : ... .. . ... ... : ... .. D ... ...
ROW 92 : ... .. . ... ... ... : ... .. . ... ... ... : F#2 00 . ... : ... .. . ... : ... .. . ... ... : ... .. . ... ... : ... .. . ... ... : ... .. 8 ... ...
ROW 93 : ... .. A ... ... ... : ... .. . ... ... ... : F-2 00 . ... : ... .. A ... : ... .. . ... ... : ... .. . ... ... : ... .. . ... ... : ... .. . ... ...
ROW 94 : ... .. 8 ... ... ... : ... .. . ... ... ... : C-2 00 . ... : ... .. 8 ... : ... .. . ... ... : ... .. . ... ... : ... .. . ... ... : ... .. 4 ... ...
ROW 95 : ... .. 7 ... ... ... : ... .. . ... ... ... : ... .. . ... : ... .. 7 ... : ... .. . ... ... : ... .. . ... ... : ... .. . ... ... : ... .. . ... ...
ROW 96 : F#4 00 D ... ... ... : ... .. . ... ... ... : ... .. . ... : A-# 00 D ... : ... .. . ... ... : ... .. . ... ... : ... .. . ... ... : C-2 01 F ... ...
ROW 97 : ... .. B ... ... ... : ... .. . ... ... ... : ... .. . ... : ... .. B ... : ... .. . ... ... : ... .. . ... ... : ... .. . ... ... : ... .. D ... ...
ROW 98 : ... .. . ... ... ... : ... .. . ... ... ... : ... .. . ... : ... .. . ... : ... .. . ... ... : ... .. . ... ... : ... .. . ... ... : ... .. 8 ... ...
ROW 99 : ... .. A ... ... ... : ... .. . ... ... ... : ... .. . ... : ... .. A ... : ... .. . ... ... : ... .. . ... ... : ... .. . ... ... : ... .. . ... ...
ROW 9A : ... .. 8 ... ... ... : ... .. . ... ... ... : ... .. . ... : ... .. 8 ... : ... .. . ... ... : ... .. . ... ... : ... .. . ... ... : ... .. 4 ... ...
ROW 9B : ... .. 7 ... ... ... : ... .. . ... ... ... : ... .. . ... : ... .. 7 ... : ... .. . ... ... : ... .. . ... ... : ... .. . ... ... : ... .. . ... ...
ROW 9C : B-3 00 D ... ... ... : ... .. . ... ... ... : B-3 00 . ... : ... .. D ... : ... .. . ... ... : ... .. . ... ... : ... .. . ... ... : C-1 01 F ... ...
ROW 9D : ... .. B ... ... ... : ... .. . ... ... ... : C#3 00 . ... : ... .. B ... : ... .. . ... ... : ... .. . ... ... : ... .. . ... ... : ... .. D ... ...
ROW 9E : ... .. . ... ... ... : ... .. . ... ... ... : F#2 00 . ... : ... .. . ... : ... .. . ... ... : ... .. . ... ... : ... .. . ... ... : ... .. 8 ... ...
ROW 9F : ... .. A ... ... ... : ... .. . ... ... ... : F-2 00 . ... : ... .. A ... : ... .. . ... ... : ... .. . ... ... : ... .. . ... ... : ... .. . ... ...
ROW A0 : ... .. 8 ... ... ... : ... .. . ... ... ... : C-2 00 . ... : ... .. 8 ... : ... .. . ... ... : ... .. . ... ... : ... .. . ... ... : ... .. 4 ... ...
ROW A1 : ... .. 7 ... ... ... : ... .. . ... ... ... : ... .. . ... : ... .. 7 ... : ... .. . ... ... : ... .. . ... ... : ... .. . ... ... : ... .. . ... ...
ROW A2 : A-3 00 D ... ... ... : ... .. . ... ... ... : ... .. . ... : 9-# 00 D ... : ... .. . ... ... : ... .. . ... ... : ... .. . ... ... : ... .. F ... ...
ROW A3 : ... .. B ... ... ... : ... .. . ... ... ... : ... .. . ... : ... .. B ... : ... .. . ... ... : ... .. . ... ... : ... .. . ... ... : ... .. D ... ...
ROW A4 : ... .. . ... ... ... : ... .. . ... ... ... : ... .. . ... : ... .. . ... : ... .. . ... ... : ... .. . ... ... : ... .. . ... ... : ... .. 8 ... ...
ROW A5 : ... .. A ... ... ... : ... .. . P83 ... ... : ... .. . ... : ... .. A ... : ... .. . ... ... : ... .. . ... ... : ... .. . ... ... : ... .. . ... ...
ROW A6 : ... .. 8 ... ... ... : A#4 00 A P7D ... ... : ... .. . ... : ... .. 8 ... : ... .. . ... ... : ... .. . ... ... : ... .. . ... ... : ... .. 4 ... ...
ROW A7 : ... .. 7 ... ... ... : ... .. . ... ... ... : ... .. . ... : ... .. 7 ... : ... .. . ... ... : ... .. . ... ... : ... .. . ... ... : ... .. . ... ...
ROW A8 : B-3 00 D ... ... ... : A-4 00 A P82 ... ... : B-3 00 . ... : ... .. D ... : ... .. . ... ... : ... .. . ... ... : ... .. . ... ... : C-2 01 F ... ...
ROW A9 : ... .. B ... ... ... : ... .. . P80 ... ... : C#3 00 . ... : ... .. B ... : ... .. . ... ... : ... .. . ... ... : ... .. . ... ... : ... .. D ... ...
ROW AA : ... .. . ... ... ... : ... .. . P7E ... ... : F#2 00 . ... : ... .. . ... : ... .. . ... ... : ... .. . ... ... : ... .. . ... ... : ... .. 8 ... ...
ROW AB : ... .. A ... ... ... : ... .. . ... ... ... : F-2 00 . ... : ... .. A ... : ... .. . ... ... : ... .. . ... ... : ... .. . ... ... : ... .. . ... ...
ROW AC : ... .. 8 ... ... ... : ... .. . P7F ... ... : C-2 00 . ... : ... .. 8 ... : ... .. . ... ... : ... .. . ... ... : ... .. . ... ... : ... .. 4 ... ...
ROW AD : ... .. 7 ... ... ... : ... .. . P81 ... ... : ... .. . ... : ... .. 7 ... : ... .. . ... ... : ... .. . ... ... : ... .. . ... ... : ... .. . ... ...
ROW AE : F#3 00 D ... ... ... : ... .. . P83 ... ... : ... .. . ... : 8-# 00 D ... : ... .. . ... ... : ... .. . ... ... : ... .. . ... ... : C-1 01 F ... ...
ROW AF : ... .. B ... ... ... : A#4 00 A P7D ... ... : ... .. . ... : ... .. B ... : ... .. . ... ... : ... .. . ... ... : ... .. . ... ... : ... .. D ... ...
ROW B0 : ... .. . ... ... ... : ... .. . ... ... ... : ... .. . ... : ... .. . ... : ... .. . ... ... : ... .. . ... ... : ... .. . ... ... : ... .. 8 ... ...
ROW B1 : ... .. A ... ... ... : A-4 00 A P82 ... ... : ... .. . ... : ... .. A ... : ... .. . ... ... : ... .. . ... ... : ... .. . ... ... : ... .. . ... ...
ROW B2 : ... .. 8 ... ... ... : ... .. . P81 ... ... : ... .. . ... : ... .. 8 ... : ... .. . ... ... : ... .. . ... ... : ... .. . ... ... : ... .. 4 ... ...
ROW B3 : ... .. 7 ... ... ... : ... .. . P7E ... ... : ... .. . ... : ... .. 7 ... : ... .. . ... ... : ... .. . ... ... : ... .. . ... ... : ... .. . ... ...
ROW B4 : B-2 00 D ... ... ... : ... .. . ... ... ... : ... .. . ... : 7-# 00 D ... : ... .. . ... ... : ... .. . ... ... : ... .. . ... ... : ... .. F ... ...
ROW B5 : ... .. B ... ... ... : ... .. . P7F ... ... : ... .. . ... : ... .. B ... : ... .. . ... ... : ... .. . ... ... : ... .. . ... ... : ... .. D ... ...
ROW B6 : ... .. . ... ... ... : ... .. . P81 ... ... : ... .. . ... : ... .. . ... : ... .. . ... ... : ... .. . ... ... : ... .. . ... ... : ... .. 8 ... ...
ROW B7 : ... .. A ... ... ... : ... .. . P82 ... ... : ... .. . ... : ... .. A ... : ... .. . ... ... : ... .. . ... ... : ... .. . ... ... : ... .. . ... ...
ROW B8 : ... .. 8 ... ... ... : A#4 00 A P7D ... ... : ... .. . ... : ... .. 8 ... : ... .. . ... ... : ... .. . ... ... : ... .. . ... ... : ... .. 4 ... ...
ROW B9 : ... .. 7 ... ... ... : ... .. . ... ... ... : ... .. . ... : ... .. 7 ... : ... .. . ... ... : ... .. . ... ... : ... .. . ... ... : ... .. . ... ...
ROW BA : A-2 00 D ... ... ... : A-4 00 A P82 ... ... : B-3 00 . ... : 6-# 00 D ... : ... .. . ... ... : ... .. . ... ... : ... .. . ... ... : C-2 01 F ... ...
ROW BB : ... .. B ... ... ... : ... .. . P81 ... ... : C#3 00 . ... : ... .. B ... : ... .. . ... ... : ... .. . ... ... : ... .. . ... ... : ... .. D ... ...
ROW BC : ... .. . ... ... ... : ... .. . P7F ... ... : F#2 00 . ... : ... .. . ... : ... .. . ... ... : ... .. . ... ... : ... .. . ... ... : ... .. 8 ... ...
ROW BD : ... .. A ... ... ... : ... .. . P7E ... ... : F-2 00 . ... : ... .. A ... : ... .. . ... ... : ... .. . ... ... : ... .. . ... ... : ... .. . ... ...
ROW BE : ... .. 8 ... ... ... : ... .. . ... ... ... : C-2 00 . ... : ... .. 8 ... : ... .. . ... ... : ... .. . ... ... : ... .. . ... ... : ... .. 4 ... ...
ROW BF : ... .. 7 ... ... ... : ... .. . P81 ... ... : ... .. . ... : ... .. 7 ... : ... .. . ... ... : ... .. . ... ... : ... .. . ... ... : ... .. . ... ...
ROW C0 : B-2 00 D ... ... ... : ... .. F ... ... ... : ... .. . ... : 5-# 00 D ... : ... .. . ... ... : ... .. A ... ... : ... .. A ... ... : C-1 01 F ... ...
ROW C1 : ... .. B ... ... ... : ... .. E ... ... ... : ... .. . ... : ... .. B ... : ... .. . ... ... : ... .. 9 ... ... : ... .. 9 ... ... : ... .. D ... ...
ROW C2 : ... .. . ... ... ... : ... .. D ... ... ... : ... .. . ... : ... .. . ... : ... .. . ... ... : ... .. 8 ... ... : ... .. 8 ... ... : ... .. 8 ... ...
ROW C3 : ... .. A ... ... ... : ... .. A ... ... ... : ... .. . ... : ... .. A ... : ... .. . ... ... : ... .. 5 ... ... : ... .. 5 ... ... : ... .. . ... ...
ROW C4 : ... .. 8 ... ... ... : ... .. 2 ... ... ... : ... .. . ... : ... .. 8 ... : ... .. . ... ... : ... .. . ... ... : ... .. . ... ... : ... .. 4 ... ...
ROW C5 : ... .. 7 ... ... ... : ... .. . ... ... ... : ... .. . ... : ... .. 7 ... : ... .. . ... ... : ... .. 3 ... ... : ... .. 3 ... ... : ... .. . ... ...
ROW C6 : F#3 00 D ... ... ... : ... .. F ... ... ... : ... .. . ... : 4-# 00 D ... : ... .. . ... ... : ... .. A ... ... : ... .. A ... ... : ... .. F ... ...
ROW C7 : ... .. B ... ... ... : ... .. E ... ... ... : ... .. . ... : ... .. B ... : ... .. . ... ... : ... .. 9 ... ... : ... .. 9 ... ... : ... .. D ... ...
ROW C8 : ... .. . ... ... ... : ... .. D ... ... ... : ... .. . ... : ... .. . ... : ... .. . ... ... : ... .. 8 ... ... : ... .. 8 ... ... : ... .. 8 ... ...
ROW C9 : ... .. A ... ... ... : ... .. A ... ... ... : ... .. . ... : ... .. A ... : ... .. . ... ... : ... .. 7 ... ... : ... .. 7 ... ... : ... .. . ... ...
ROW CA : ... .. 8 ... ... ... : ... .. . ... ... ... : ... .. . ... : ... .. 8 ... : ... .. . ... ... : ... .. . ... ... : ... .. . ... ... : ... .. 4 ... ...
ROW CB : ... .. 7 ... ... ... : ... .. . ... ... ... : ... .. . ... : ... .. 7 ... : ... .. . ... ... : ... .. 6 ... ... : ... .. 6 ... ... : ... .. . ... ...
ROW CC : B-3 00 D ... ... ... : ... .. . ... ... ... : B-3 00 . ... : 3-# 00 D ... : ... .. . ... ... : ... .. 5 ... ... : ... .. 5 ... ... : C-2 01 F ... ...
ROW CD : ... .. B ... ... ... : ... .. 2 ... ... ... : C#3 00 . ... : ... .. B ... : ... .. . ... ... : ... .. . ... ... : ... .. . ... ... : ... .. D ... ...
ROW CE : ... .. . ... ... ... : ... .. . ... ... ... : F#2 00 . ... : ... .. . ... : ... .. . ... ... : ... .. 3 ... ... : ... .. 3 ... ... : ... .. 8 ... ...
ROW CF : ... .. A ... ... ... : ... .. . ... ... ... : F-2 00 . ... : ... .. A ... : ... .. . ... ... : ... .. . ... ... : ... .. . ... ... : ... .. . ... ...
ROW D0 : ... .. 8 ... ... ... : ... .. 1 ... ... ... : C-2 00 . ... : ... .. 8 ... : ... .. . ... ... : ... .. . ... ... : ... .. . ... ... : ... .. 4 ... ...
ROW D1 : ... .. 7 ... ... ... : ... .. . ... ... ... : ... .. . ... : ... .. 7 ... : ... .. . ... ... : ... .. . ... ... : ... .. . ... ... : ... .. . ... ...
ROW D2 : C-4 00 D ... ... ... : ... .. F ... ... ... : ... .. . ... : 2-# 00 D ... : ... .. . ... ... : ... .. A ... ... : ... .. A ... ... : C-1 01 F ... ...
ROW D3 : ... .. B ... ... ... : ... .. E ... ... ... : ... .. . ... : ... .. B ... : ... .. . ... ... : ... .. 9 ... ... : ... .. 9 ... ... : ... .. D ... ...
ROW D4 : ... .. . ... ... ... : ... .. D ... ... ... : ... .. . ... : ... .. . ... : ... .. . ... ... : ... .. 8 ... ... : ... .. 8 ... ... : ... .. 8 ... ...
ROW D5 : ... .. A ... ... ... : ... .. A ... ... ... : ... .. . ... : ... .. A ... : ... .. . ... ... : ... .. 5 ... ... : ... .. 5 ... ... : ... .. . ... ...
ROW D6 : ... .. 8 ... ... ... : ... .. 2 ... ... ... : ... .. . ... : ... .. 8 ... : ... .. . ... ... : ... .. . ... ... : ... .. . ... ... : ... .. 4 ... ...
ROW D7 : ... .. 7 ... ... ... : ... .. . ... ... ... : ... .. . ... : ... .. 7 ... : ... .. . ... ... : ... .. 3 ... ... : ... .. 3 ... ... : ... .. . ... ...
ROW D8 : B-3 00 D ... ... ... : ... .. F ... ... ... : B-3 00 . ... : 1-# 00 D ... : ... .. . ... ... : ... .. A ... ... : ... .. A ... ... : C-2 01 F ... ...
ROW D9 : ... .. B ... ... ... : ... .. E ... ... ... : C#3 00 . ... : ... .. B ... : ... .. . ... ... : ... .. 9 ... ... : ... .. 9 ... ... : ... .. D ... ...
ROW DA : ... .. . ... ... ... : ... .. D ... ... ... : F#2 00 . ... : ... .. . ... : ... .. . ... ... : ... .. 8 ... ... : ... .. 8 ... ... : ... .. 8 ... ...
ROW DB : ... .. A ... ... ... : ... .. A ... ... ... : F-2 00 . ... : ... .. A ... : ... .. . ... ... : ... .. 7 ... ... : ... .. 7 ... ... : ... .. . ... ...
ROW DC : ... .. 8 ... ... ... : ... .. . ... ... ... : C-2 00 . ... : ... .. 8 ... : ... .. . ... ... : ... .. . ... ... : ... .. . ... ... : ... .. 4 ... ...
ROW DD : ... .. 7 ... ... ... : ... .. . ... ... ... : ... .. . ... : ... .. 7 ... : ... .. . ... ... : ... .. 6 ... ... : ... .. 6 ... ... : ... .. . ... ...
ROW DE : F#3 00 D ... ... ... : ... .. . ... ... ... : ... .. . ... : ... .. 6 ... : ... .. . ... ... : ... .. 5 ... ... : ... .. 5 ... ... : C-1 01 F ... ...
ROW DF : ... .. B ... ... ... : ... .. 2 ... ... ... : ... .. . ... : ... .. . ... : ... .. . ... ... : ... .. . ... ... : ... .. . ... ... : ... .. D ... ...
ROW E0 : ... .. . ... ... ... : ... .. . ... ... ... : ... .. . ... : ... .. 5 ... : ... .. . ... ... : ... .. 3 ... ... : ... .. 3 ... ... : ... .. 8 ... ...
ROW E1 : ... .. A ... ... ... : ... .. . ... ... ... : ... .. . ... : ... .. . ... : ... .. . ... ... : ... .. . ... ... : ... .. . ... ... : ... .. . ... ...
ROW E2 : ... .. 8 ... ... ... : ... .. 1 ... ... ... : ... .. . ... : ... .. 4 ... : ... .. . ... ... : ... .. . ... ... : ... .. . ... ... : ... .. 4 ... ...
ROW E3 : ... .. 7 ... ... ... : ... .. . ... ... ... : ... .. . ... : ... .. . ... : ... .. . ... ... : ... .. . ... ... : ... .. . ... ... : ... .. . ... ...
ROW E4 : B-2 00 D ... ... ... : ... .. F ... ... ... : B-3 00 . ... : ... .. 3 ... : ... .. . ... ... : ... .. A ... ... : ... .. A ... ... : C-2 01 F ... ...
ROW E5 : ... .. B ... ... ... : ... .. E ... ... ... : C#3 00 . ... : ... .. 2 ... : ... .. . ... ... : ... .. 9 ... ... : ... .. 9 ... ... : ... .. D ... ...
ROW E6 : ... .. . ... ... ... : ... .. D ... ... ... : F#2 00 . ... : ... .. . ... : ... .. . ... ... : ... .. 8 ... ... : ... .. 8 ... ... : ... .. 8 ... ...
ROW E7 : ... .. A ... ... ... : ... .. A ... ... ... : F-2 00 . ... : ... .. 1 ... : ... .. . ... ... : ... .. 7 ... ... : ... .. 7 ... ... : ... .. . ... ...
ROW E8 : ... .. 8 ... ... ... : ... .. . ... ... ... : C-2 00 . ... : ... .. 0 ... : ... .. . ... ... : ... .. . ... ... : ... .. . ... ... : ... .. 4 ... ...
ROW E9 : ... .. 7 ... ... ... : ... .. . ... ... ... : ... .. . ... : ... .. . ... : ... .. . ... ... : ... .. 6 ... ... : ... .. 6 ... ... : ... .. . ... ...
ROW EA : A-2 00 D ... ... ... : ... .. . ... ... ... : ... .. . ... : ... .. . ... : ... .. . ... ... : ... .. 5 ... ... : ... .. 5 ... ... : C-1 01 F ... ...
ROW EB : ... .. B ... ... ... : ... .. 2 ... ... ... : ... .. . ... : ... .. . ... : ... .. . ... ... : ... .. . ... ... : ... .. . ... ... : ... .. D ... ...
ROW EC : ... .. . ... ... ... : ... .. . ... ... ... : ... .. . ... : ... .. . ... : ... .. . ... ... : ... .. 3 ... ... : ... .. 3 ... ... : ... .. 8 ... ...
ROW ED : ... .. A ... ... ... : ... .. . ... ... ... : ... .. . ... : ... .. . ... : ... .. . ... ... : ... .. . ... ... : ... .. . ... ... : ... .. . ... ...
ROW EE : ... .. 8 ... ... ... : ... .. 1 ... ... ... : ... .. . ... : ... .. . ... : ... .. . ... ... : ... .. . ... ... : ... .. . ... ... : ... .. 4 ... ...
ROW EF : ... .. 7 ... ... ... : ... .. . ... ... ... : ... .. . ... : ... .. . ... : ... .. . ... ... : ... .. . ... ... : ... .. . ... ... : ... .. . ... ...
ROW F0 : B-4 00 D ... ... ... : F#4 00 F ... ... ... : A#3 00 . ... : 0-# 00 D ... : ... .. . ... ... : A-3 01 A ... ... : D-3 01 A ... ... : B-1 01 F ... ...
ROW F1 : ... .. B ... ... ... : ... .. E ... ... ... : C-3 00 . ... : ... .. B ... : ... .. . ... ... : ... .. 9 ... ... : ... .. 9 ... ... : ... .. D ... ...
ROW F2 : ... .. . ... ... ... : ... .. D ... ... ... : F-2 00 . ... : ... .. . ... : ... .. . ... ... : ... .. 8 ... ... : ... .. 8 ... ... : ... .. 8 ... ...
ROW F3 : ... .. A ... ... ... : ... .. A ... ... ... : E-2 00 . ... : ... .. A ... : ... .. . ... ... : ... .. 7 ... ... : ... .. 7 ... ... : ... .. . ... ...
ROW F4 : ... .. 8 ... ... ... : ... .. . ... ... ... : B-1 00 . ... : ... .. 8 ... : ... .. . ... ... : ... .. . ... ... : ... .. . ... ... : ... .. 4 ... ...
ROW F5 : ... .. 7 ... ... ... : ... .. . ... ... ... : ... .. . ... : ... .. 7 ... : ... .. . ... ... : ... .. 6 ... ... : ... .. 6 ... ... : ... .. . ... ...
ROW F6 : F#4 00 D ... ... ... : ... .. . ... ... ... : ... .. . ... : 1-# 00 D ... : ... .. . ... ... : ... .. . ... ... : ... .. . ... ... : B-0 01 F ... ...
ROW F7 : ... .. B ... ... ... : ... .. . ... ... ... : ... .. . ... : ... .. B ... : ... .. . ... ... : ... .. 5 ... ... : ... .. 5 ... ... : ... .. D ... ...
ROW F8 : ... .. . ... ... ... : ... .. . ... ... ... : ... .. . ... : ... .. . ... : ... .. . ... ... : ... .. . ... ... : ... .. . ... ... : ... .. 8 ... ...
ROW F9 : ... .. A ... ... ... : ... .. . ... ... ... : ... .. . ... : ... .. A ... : ... .. . ... ... : ... .. . ... ... : ... .. . ... ... : ... .. . ... ...
ROW FA : ... .. 8 ... ... ... : ... .. . ... ... ... : ... .. . ... : ... .. 8 ... : ... .. . ... ... : ... .. . ... ... : ... .. . ... ... : ... .. 4 ... ...
ROW FB : ... .. 7 ... ... ... : ... .. . ... ... ... : ... .. . ... : ... .. 7 ... : ... .. . ... ... : ... .. . ... ... : ... .. . ... ... : ... .. . ... ...
ROW FC : B-3 00 D ... ... ... : ... .. . ... ... ... : ... .. . ... : ... .. D ... : ... .. . ... ... : ... .. . ... ... : ... .. . ... ... : ... .. F ... ...
ROW FD : ... .. B ... ... ... : ... .. 2 ... ... ... : ... .. . ... : ... .. B ... : ... .. . ... ... : ... .. . ... ... : ... .. . ... ... : ... .. D ... ...
ROW FE : ... .. . ... ... ... : ... .. . ... ... ... : ... .. . ... : ... .. . ... : ... .. . ... ... : ... .. 3 ... ... : ... .. 3 ... ... : ... .. 8 ... ...
ROW FF : ... .. A ... ... ... : ... .. . ... ... ... : ... .. . ... : ... .. A ... : ... .. . ... ... : ... .. . ... ... : ... .. . ... ... : ... .. . ... ...

PATTERN 04
ROW 00 : ... .. 8 ... ... ... : ... .. 1 ... ... ... : ... .. . ... : ... .. 8 ... : ... .. . ... ... : ... .. . ... ... : ... .. . ... ... : ... .. 4 ... ...
ROW 01 : ... .. 7 ... ... ... : ... .. . ... ... ... : ... .. . ... : ... .. 7 ... : ... .. . ... ... : ... .. . ... ... : ... .. . ... ... : ... .. . ... ...
ROW 02 : A-3 00 D ... ... ... : B-3 00 F ... ... ... : A#3 00 . ... : 2-# 00 D ... : ... .. . ... ... : D-3 01 A ... ... : A-2 01 A ... ... : B-1 01 F ... ...
ROW 03 : ... .. B ... ... ... : ... .. E ... ... ... : C-3 00 . ... : ... .. B ... : ... .. . ... ... : ... .. 9 ... ... : ... .. 9 ... ... : ... .. D ... ...
ROW 04 : ... .. . ... ... ... : ... .. D ... ... ... : F-2 00 . ... : ... .. . ... : ... .. . ... ... : ... .. 8 ... ... : ... .. 8 ... ... : ... .. 8 ... ...
ROW 05 : ... .. A ... ... ... : ... .. A ... ... ... : E-2 00 . ... : ... .. A ... : ... .. . ... ... : ... .. 7 ... ... : ... .. 7 ... ... : ... .. . ... ...
ROW 06 : ... .. 8 ... ... ... : ... .. . ... ... ... : B-1 00 . ... : ... .. 8 ... : ... .. . ... ... : ... .. . ... ... : ... .. . ... ... : ... .. 4 ... ...
ROW 07 : ... .. 7 ... ... ... : ... .. . ... ... ... : ... .. . ... : ... .. 7 ... : ... .. . ... ... : ... .. 6 ... ... : ... .. 6 ... ... : ... .. . ... ...
ROW 08 : B-3 00 D ... ... ... : ... .. . ... ... ... : ... .. . ... : 3-# 00 D ... : ... .. . ... ... : ... .. . ... ... : ... .. . ... ... : B-0 01 F ... ...
ROW 09 : ... .. B ... ... ... : ... .. . ... ... ... : ... .. . ... : ... .. B ... : ... .. . ... ... : ... .. 5 ... ... : ... .. 5 ... ... : ... .. D ... ...
ROW 0A : ... .. . ... ... ... : ... .. . ... ... ... : ... .. . ... : ... .. . ... : ... .. . ... ... : ... .. . ... ... : ... .. . ... ... : ... .. 8 ... ...
ROW 0B : ... .. A ... ... ... : ... .. . ... ... ... : ... .. . ... : ... .. A ... : ... .. . ... ... : ... .. . ... ... : ... .. . ... ... : ... .. . ... ...
ROW 0C : ... .. 8 ... ... ... : ... .. . ... ... ... : ... .. . ... : ... .. 8 ... : ... .. . ... ... : ... .. . ... ... : ... .. . ... ... : ... .. 4 ... ...
ROW 0D : ... .. 7 ... ... ... : ... .. . ... ... ... : ... .. . ... : ... .. 7 ... : ... .. . ... ... : ... .. . ... ... : ... .. . ... ... : ... .. . ... ...
ROW 0E : F#4 00 D ... ... ... : ... .. . ... ... ... : ... .. . ... : ... .. D ... : ... .. . ... ... : ... .. . ... ... : ... .. . ... ... : ... .. F ... ...
ROW 0F : ... .. B ... ... ... : ... .. 2 ... ... ... : ... .. . ... : ... .. B ... : ... .. . ... ... : ... .. . ... ... : ... .. . ... ... : ... .. D ... ...
ROW 10 : ... .. . ... ... ... : ... .. . ... ... ... : ... .. . ... : ... .. . ... : ... .. . ... ... : ... .. 3 ... ... : ... .. 3 ... ... : ... .. 8 ... ...
ROW 11 : ... .. A ... ... ... : ... .. . ... ... ... : ... .. . ... : ... .. A ... : ... .. . ... ... : ... .. . ... ... : ... .. . ... ... : ... .. . ... ...
ROW 12 : ... .. 8 ... ... ... : ... .. 1 ... ... ... : ... .. . ... : ... .. 8 ... : ... .. . ... ... : ... .. . ... ... : ... .. . ... ... : ... .. 4 ... ...
ROW 13 : ... .. 7 ... ... ... : ... .. . ... ... ... : ... .. . ... : ... .. 7 ... : ... .. . ... ... : ... .. . ... ... : ... .. . ... ... : ... .. . ... ...
ROW 14 : B-4 00 D ... ... ... : E-4 00 F ... ... ... : A#3 00 . ... : 4-# 00 D ... : ... .. . ... ... : C-4 01 A ... ... : G-2 01 A ... ... : B-1 01 F ... ...
ROW 15 : ... .. B ... ... ... : ... .. E ... ... ... : C-3 00 . ... : ... .. B ... : ... .. . ... ... : ... .. 9 ... ... : ... .. 9 ... ... : ... .. D ... ...
ROW 16 : ... .. . ... ... ... : ... .. D ... ... ... : F-2 00 . ... : ... .. . ... : ... .. . ... ... : ... .. 8 ... ... : ... .. 8 ... ... : ... .. 8 ... ...
ROW 17 : ... .. A ... ... ... : ... .. A ... ... ... : E-2 00 . ... : ... .. A ... : ... .. . ... ... : ... .. 7 ... ... : ... .. 7 ... ... : ... .. . ... ...
ROW 18 : ... .. 8 ... ... ... : ... .. . ... ... ... : B-1 00 . ... : ... .. 8 ... : ... .. . ... ... : ... .. . ... ... : ... .. . ... ... : ... .. 4 ... ...
ROW 19 : ... .. 7 ... ... ... : ... .. . ... ... ... : ... .. . ... : ... .. 7 ... : ... .. . ... ... : ... .. 6 ... ... : ... .. 6 ... ... : ... .. . ... ...
ROW 1A : C-5 00 D ... ... ... : ... .. . ... ... ... : ... .. . ... : ... .. D ... : ... .. . ... ... : ... .. . ... ... : ... .. . ... ... : B-0 01 F ... ...
ROW 1B : ... .. B ... ... ... : ... .. . ... ... ... : ... .. . ... : ... .. B ... : ... .. . ... ... : ... .. 5 ... ... : ... .. 5 ... ... : ... .. D ... ...
ROW 1C : ... .. . ... ... ... : ... .. . ... ... ... : ... .. . ... : ... .. . ... : ... .. . ... ... : ... .. . ... ... : ... .. . ... ... : ... .. 8 ... ...
ROW 1D : ... .. A ... ... ... : ... .. . ... ... ... : ... .. . ... : ... .. A ... : ... .. . ... ... : ... .. . ... ... : ... .. . ... ... : ... .. . ... ...
ROW 1E : ... .. 8 ... ... ... : ... .. . ... ... ... : ... .. . ... : ... .. 8 ... : ... .. . ... ... : ... .. . ... ... : ... .. . ... ... : ... .. 4 ... ...
ROW 1F : ... .. 7 ... ... ... : ... .. . ... ... ... : ... .. . ... : ... .. 7 ... : ... .. . ... ... : ... .. . ... ... : ... .. . ... ... : ... .. . ... ...
ROW 20 : B-4 00 D ... ... ... : ... .. . ... ... ... : A#3 00 . ... : 5-# 00 D ... : ... .. . ... ... : ... .. . ... ... : ... .. . ... ... : ... .. F ... ...
ROW 21 : ... .. B ... ... ... : ... .. . ... ... ... : C-3 00 . ... : ... .. B ... : ... .. . ... ... : ... .. . ... ... : ... .. . ... ... : ... .. D ... ...
ROW 22 : ... .. . ... ... ... : ... .. . ... ... ... : F-2 00 . ... : ... .. . ... : ... .. . ... ... : ... .. . ... ... : ... .. . ... ... : ... .. 8 ... ...
ROW 23 : ... .. A ... ... ... : ... .. . ... ... ... : E-2 00 . ... : ... .. A ... : ... .. . ... ... : ... .. . ... ... : ... .. . ... ... : ... .. . ... ...
ROW 24 : ... .. 8 ... ... ... : ... .. . ... ... ... : B-1 00 . ... : ... .. 8 ... : ... .. . ... ... : ... .. . ... ... : ... .. . ... ... : ... .. 4 ... ...
ROW 25 : ... .. 7 ... ... ... : ... .. . ... ... ... : ... .. . ... : ... .. 7 ... : ... .. . ... ... : ... .. . ... ... : ... .. . ... ... : ... .. . ... ...
ROW 26 : F#4 00 D ... ... ... : ... .. . ... ... ... : ... .. . ... : ... .. D ... : ... .. . ... ... : ... .. . ... ... : ... .. . ... ... : B-1 01 F ... ...
ROW 27 : ... .. B ... ... ... : ... .. . ... ... ... : ... .. . ... : ... .. B ... : ... .. . ... ... : ... .. . ... ... : ... .. . ... ... : ... .. D ... ...
ROW 28 : ... .. . ... ... ... : ... .. . ... ... ... : ... .. . ... : ... .. . ... : ... .. . ... ... : ... .. . ... ... : ... .. . ... ... : ... .. 8 ... ...
ROW 29 : ... .. A ... ... ... : ... .. . ... ... ... : ... .. . ... : ... .. A ... : ... .. . ... ... : ... .. . ... ... : ... .. . ... ... : ... .. . ... ...
ROW 2A : ... .. 8 ... ... ... : ... .. . ... ... ... : ... .. . ... : ... .. 8 ... : ... .. . ... ... : ... .. . ... ... : ... .. . ... ... : ... .. 4 ... ...
ROW 2B : ... .. 7 ... ... ... : ... .. . ... ... ... : ... .. . ... : ... .. 7 ... : ... .. . ... ... : ... .. . ... ... : ... .. . ... ... : ... .. . ... ...
ROW 2C : B-3 00 D ... ... ... : ... .. . ... ... ... : A#3 00 . ... : 6-# 00 D ... : ... .. . ... ... : ... .. . ... ... : ... .. . ... ... : B-0 01 F ... ...
ROW 2D : ... .. B ... ... ... : ... .. . ... ... ... : C-3 00 . ... : ... .. B ... : ... .. . ... ... : ... .. . ... ... : ... .. . ... ... : ... .. D ... ...
ROW 2E : ... .. . ... ... ... : ... .. . ... ... ... : F-2 00 . ... : ... .. . ... : ... .. . ... ... : ... .. . ... ... : ... .. . ... ... : ... .. 8 ... ...
ROW 2F : ... .. A ... ... ... : ... .. . ... ... ... : E-2 00 . ... : ... .. A ... : ... .. . ... ... : ... .. . ... ... : ... .. . ... ... : ... .. . ... ...
ROW 30 : ... .. 8 ... ... ... : ... .. . ... ... ... : B-1 00 . ... : ... .. 8 ... : ... .. . ... ... : ... .. . ... ... : ... .. . ... ... : ... .. 4 ... ...
ROW 31 : ... .. 7 ... ... ... : ... .. . ... ... ... : ... .. . ... : ... .. 7 ... : ... .. . ... ... : ... .. . ... ... : ... .. . ... ... : ... .. . ... ...
ROW 32 : A-3 00 D ... ... ... : ... .. . ... ... ... : ... .. . ... : 7-# 00 D ... : ... .. . ... ... : ... .. . ... ... : ... .. . ... ... : ... .. F ... ...
ROW 33 : ... .. B ... ... ... : ... .. . ... ... ... : ... .. . ... : ... .. B ... : ... .. . ... ... : ... .. . ... ... : ... .. . ... ... : ... .. D ... ...
ROW 34 : ... .. . ... ... ... : ... .. . ... ... ... : ... .. . ... : ... .. . ... : ... .. . ... ... : ... .. . ... ... : ... .. . ... ... : ... .. 8 ... ...
ROW 35 : ... .. A ... ... ... : ... .. . ... ... ... : ... .. . ... : ... .. A ... : ... .. . ... ... : ... .. . ... ... : ... .. . ... ... : ... .. . ... ...
ROW 36 : ... .. 8 ... ... ... : ... .. . ... ... ... : ... .. . ... : ... .. 8 ... : ... .. . ... ... : ... .. . ... ... : ... .. . ... ... : ... .. 4 ... ...
ROW 37 : ... .. 7 ... ... ... : ... .. . ... ... ... : ... .. . ... : ... .. 7 ... : ... .. . ... ... : ... .. . ... ... : ... .. . ... ... : ... .. . ... ...
ROW 38 : A#3 00 D ... ... ... : ... .. . ... ... ... : A#3 00 . ... : 4-# 00 D ... : ... .. . ... ... : ... .. . ... ... : ... .. . ... ... : B-1 01 F ... ...
ROW 39 : ... .. B ... ... ... : ... .. . ... ... ... : C-3 00 . ... : ... .. B ... : ... .. . ... ... : ... .. . ... ... : ... .. . ... ... : ... .. D ... ...
ROW 3A : ... .. . ... ... ... : ... .. . ... ... ... : F-2 00 . ... : ... .. . ... : ... .. . ... ... : ... .. . ... ... : ... .. . ... ... : ... .. 8 ... ...
ROW 3B : ... .. A ... ... ... : ... .. . ... ... ... : E-2 00 . ... : ... .. A ... : ... .. . ... ... : ... .. . ... ... : ... .. . ... ... : ... .. . ... ...
ROW 3C : ... .. 8 ... ... ... : ... .. . ... ... ... : B-1 00 . ... : ... .. 8 ... : ... .. . ... ... : ... .. . ... ... : ... .. . ... ... : ... .. 4 ... ...
ROW 3D : ... .. 7 ... ... ... : ... .. . ... ... ... : ... .. . ... : ... .. 7 ... : ... .. . ... ... : ... .. . ... ... : ... .. . ... ... : ... .. . ... ...
ROW 3E : F-3 00 D ... ... ... : ... .. . ... ... ... : ... .. . ... : 5-# 00 D ... : ... .. . ... ... : ... .. . ... ... : ... .. . ... ... : B-0 01 F ... ...
ROW 3F : ... .. B ... ... ... : ... .. 2 ... ... ... : ... .. . ... : ... .. B ... : ... .. . ... ... : ... .. . ... ... : ... .. . ... ... : ... .. D ... ...
ROW 40 : ... .. . ... ... ... : ... .. . ... ... ... : ... .. . ... : ... .. . ... : ... .. . ... ... : ... .. 3 ... ... : ... .. 3 ... ... : ... .. 8 ... ...
ROW 41 : ... .. A ... ... ... : ... .. . ... ... ... : ... .. . ... : ... .. A ... : ... .. . ... ... : ... .. . ... ... : ... .. . ... ... : ... .. . ... ...
ROW 42 : ... .. 8 ... ... ... : ... .. 1 ... ... ... : ... .. . ... : ... .. 8 ... : ... .. . ... ... : ... .. . ... ... : ... .. . ... ... : ... .. 4 ... ...
ROW 43 : ... .. 7 ... ... ... : ... .. . ... ... ... : ... .. . ... : ... .. 7 ... : ... .. . ... ... : ... .. . ... ... : ... .. . ... ... : ... .. . ... ...
ROW 44 : A#2 00 D ... ... ... : ... .. F ... ... ... : ... .. . ... : 6-# 00 D ... : ... .. . ... ... : ... .. A ... ... : ... .. A ... ... : ... .. F ... ...
ROW 45 : ... .. B ... ... ... : ... .. E ... ... ... : ... .. . ... : ... .. B ... : ... .. . ... ... : ... .. 9 ... ... : ... .. 9 ... ... : ... .. D ... ...
ROW 46 : ... .. . ... ... ... : ... .. D ... ... ... : ... .. . ... : ... .. . ... : ... .. . ... ... : ... .. 8 ... ... : ... .. 8 ... ... : ... .. 8 ... ...
ROW 47 : ... .. A ... ... ... : ... .. A ... ... ... : ... .. . ... : ... .. A ... : ... .. . ... ... : ... .. 7 ... ... : ... .. 7 ... ... : ... .. . ... ...
ROW 48 : ... .. 8 ... ... ... : ... .. . ... ... ... : ... .. . ... : ... .. 8 ... : ... .. . ... ... : ... .. . ... ... : ... .. . ... ... : ... .. 4 ... ...
ROW 49 : ... .. 7 ... ... ... : ... .. . ... ... ... : ... .. . ... : ... .. 7 ... : ... .. . ... ... : ... .. 6 ... ... : ... .. 6 ... ... : ... .. . ... ...
ROW 4A : D-3 00 D ... ... ... : ... .. . ... ... ... : A#3 00 . ... : 7-# 00 D ... : ... .. . ... ... : ... .. 5 ... ... : ... .. 5 ... ... : B-1 01 F ... ...
ROW 4B : ... .. B ... ... ... : ... .. 2 ... ... ... : C-3 00 . ... : ... .. B ... : ... .. . ... ... : ... .. . ... ... : ... .. . ... ... : ... .. D ... ...
ROW 4C : ... .. . ... ... ... : ... .. . ... ... ... : F-2 00 . ... : ... .. . ... : ... .. . ... ... : ... .. 3 ... ... : ... .. 3 ... ... : ... .. 8 ... ...
ROW 4D : ... .. A ... ... ... : ... .. . ... ... ... : E-2 00 . ... : ... .. A ... : ... .. . ... ... : ... .. . ... ... : ... .. . ... ... : ... .. . ... ...
ROW 4E : ... .. 8 ... ... ... : ... .. 1 ... ... ... : B-1 00 . ... : ... .. 8 ... : ... .. . ... ... : ... .. . ... ... : ... .. . ... ... : ... .. 4 ... ...
ROW 4F : ... .. 7 ... ... ... : ... .. . ... ... ... : ... .. . ... : ... .. 7 ... : ... .. . ... ... : ... .. . ... ... : ... .. . ... ... : ... .. . ... ...
ROW 50 : E-3 00 D ... ... ... : D-4 00 F ... ... ... : ... .. . ... : 8-# 00 D ... : ... .. . ... ... : A#3 01 A ... ... : F-2 01 A ... ... : B-0 01 F ... ...
ROW 51 : ... .. B ... ... ... : ... .. E ... ... ... : ... .. . ... : ... .. B ... : ... .. . ... ... : ... .. 9 ... ... : ... .. 9 ... ... : ... .. D ... ...
ROW 52 : ... .. . ... ... ... : ... .. D ... ... ... : ... .. . ... : ... .. . ... : ... .. . ... ... : ... .. 8 ... ... : ... .. 8 ... ... : ... .. 8 ... ...
ROW 53 : ... .. A ... ... ... : ... .. A ... ... ... : ... .. . ... : ... .. A ... : ... .. . ... ... : ... .. 7 ... ... : ... .. 7 ... ... : ... .. . ... ...
ROW 54 : ... .. 8 ... ... ... : ... .. . ... ... ... : ... .. . ... : ... .. 8 ... : ... .. . ... ... : ... .. . ... ... : ... .. . ... ... : ... .. 4 ... ...
ROW 55 : ... .. 7 ... ... ... : ... .. . ... ... ... : ... .. . ... : ... .. 7 ... : ... .. . ... ... : ... .. 6 ... ... : ... .. 6 ... ... : ... .. . ... ...
ROW 56 : F-3 00 D ... ... ... : ... .. . ... ... ... : ... .. . ... : 9-# 00 D ... : ... .. . ... ... : ... .. . ... ... : ... .. . ... ... : ... .. F ... ...
ROW 57 : ... .. B ... ... ... : ... .. . ... ... ... : ... .. . ... : ... .. B ... : ... .. . ... ... : ... .. 5 ... ... : ... .. 5 ... ... : ... .. D ... ...
ROW 58 : ... .. . ... ... ... : ... .. . ... ... ... : ... .. . ... : ... .. . ... : ... .. . ... ... : ... .. . ... ... : ... .. . ... ... : ... .. 8 ... ...
ROW 59 : ... .. A ... ... ... : ... .. . ... ... ... : ... .. . ... : ... .. A ... : ... .. . ... ... : ... .. . ... ... : ... .. . ... ... : ... .. . ... ...
ROW 5A : ... .. 8 ... ... ... : ... .. . ... ... ... : ... .. . ... : ... .. 8 ... : ... .. . ... ... : ... .. . ... ... : ... .. . ... ... : ... .. 4 ... ...
ROW 5B : ... .. 7 ... ... ... : ... .. . ... ... ... : ... .. . ... : ... .. 7 ... : ... .. . ... ... : ... .. . ... ... : ... .. . ... ... : ... .. . ... ...
ROW 5C : A#3 00 D ... ... ... : ... .. . ... ... ... : A#3 00 . ... : 7-# 00 D ... : ... .. . ... ... : ... .. . ... ... : ... .. . ... ... : B-1 01 F ... ...
ROW 5D : ... .. B ... ... ... : ... .. . ... ... ... : C-3 00 . ... : ... .. B ... : ... .. . ... ... : ... .. . ... ... : ... .. . ... ... : ... .. D ... ...
ROW 5E : ... .. . ... ... ... : ... .. . ... ... ... : F-2 00 . ... : ... .. . ... : ... .. . ... ... : ... .. . ... ... : ... .. . ... ... : ... .. 8 ... ...
ROW 5F : ... .. A ... ... ... : ... .. . ... ... ... : E-2 00 . ... : ... .. A ... : ... .. . ... ... : ... .. . ... ... : ... .. . ... ... : ... .. . ... ...
ROW 60 : ... .. 8 ... ... ... : ... .. . ... ... ... : B-1 00 . ... : ... .. 8 ... : ... .. . ... ... : ... .. . ... ... : ... .. . ... ... : ... .. 4 ... ...
ROW 61 : ... .. 7 ... ... ... : ... .. . ... ... ... : ... .. . ... : ... .. 7 ... : ... .. . ... ... : ... .. . ... ... : ... .. . ... ... : ... .. . ... ...
ROW 62 : D-4 00 D ... ... ... : ... .. . ... ... ... : ... .. . ... : 8-# 00 D ... : ... .. . ... ... : ... .. . ... ... : ... .. . ... ... : B-0 01 F ... ...
ROW 63 : ... .. B ... ... ... : ... .. . ... ... ... : ... .. . ... : ... .. B ... : ... .. . ... ... : ... .. . ... ... : ... .. . ... ... : ... .. D ... ...
ROW 64 : ... .. . ... ... ... : ... .. . ... ... ... : ... .. . ... : ... .. . ... : ... .. . ... ... : ... .. . ... ... : ... .. . ... ... : ... .. 8 ... ...
ROW 65 : ... .. A ... ... ... : ... .. . ... ... ... : ... .. . ... : ... .. A ... : ... .. . ... ... : ... .. . ... ... : ... .. . ... ... : ... .. . ... ...
ROW 66 : ... .. 8 ... ... ... : ... .. . ... ... ... : ... .. . ... : ... .. 8 ... : ... .. . ... ... : ... .. . ... ... : ... .. . ... ... : ... .. 4 ... ...
ROW 67 : ... .. 7 ... ... ... : ... .. . ... ... ... : ... .. . ... : ... .. 7 ... : ... .. . ... ... : ... .. . ... ... : ... .. . ... ... : ... .. . ... ...
ROW 68 : E-4 00 D ... ... ... : ... .. . ... ... ... : A#3 00 . ... : 9-# 00 D ... : ... .. . ... ... : ... .. . ... ... : ... .. . ... ... : B-1 01 F ... ...
ROW 69 : ... .. B ... ... ... : ... .. . ... ... ... : C-3 00 . ... : ... .. B ... : ... .. . ... ... : ... .. . ... ... : ... .. . ... ... : ... .. D ... ...
ROW 6A : ... .. . ... ... ... : ... .. . ... ... ... : F-2 00 . ... : ... .. . ... : ... .. . ... ... : ... .. . ... ... : ... .. . ... ... : ... .. 8 ... ...
ROW 6B : ... .. A ... ... ... : ... .. . ... ... ... : E-2 00 . ... : ... .. A ... : ... .. . ... ... : ... .. . ... ... : ... .. . ... ... : ... .. . ... ...
ROW 6C : ... .. 8 ... ... ... : ... .. . ... ... ... : B-1 00 . ... : ... .. 8 ... : ... .. . ... ... : ... .. . ... ... : ... .. . ... ... : ... .. 4 ... ...
ROW 6D : ... .. 7 ... ... ... : ... .. . ... ... ... : ... .. . ... : ... .. 7 ... : ... .. . ... ... : ... .. . ... ... : ... .. . ... ... : ... .. . ... ...
ROW 6E : F-4 00 D ... ... ... : ... .. . ... ... ... : ... .. . ... : A-# 00 D ... : ... .. . ... ... : ... .. . ... ... : ... .. . ... ... : B-0 01 F ... ...
ROW 6F : ... .. B ... ... ... : ... .. . ... ... ... : ... .. . ... : ... .. B ... : ... .. . ... ... : ... .. . ... ... : ... .. . ... ... : ... .. D ... ...
ROW 70 : ... .. . ... ... ... : ... .. . ... ... ... : ... .. . ... : ... .. . ... : ... .. . ... ... : ... .. . ... ... : ... .. . ... ... : ... .. 8 ... ...
ROW 71 : ... .. A ... ... ... : ... .. . ... ... ... : ... .. . ... : ... .. A ... : ... .. . ... ... : ... .. . ... ... : ... .. . ... ... : ... .. . ... ...
ROW 72 : ... .. 8 ... ... ... : ... .. . ... ... ... : ... .. . ... : ... .. 8 ... : ... .. . ... ... : ... .. . ... ... : ... .. . ... ... : ... .. 4 ... ...
ROW 73 : ... .. 7 ... ... ... : ... .. . ... ... ... : ... .. . ... : ... .. 7 ... : ... .. . ... ... : ... .. . ... ... : ... .. . ... ... : ... .. . ... ...
ROW 74 : A#4 00 D ... ... ... : ... .. . ... ... ... : A#3 00 . ... : B-# 00 D ... : ... .. . ... ... : ... .. . ... ... : ... .. . ... ... : B-1 01 F ... ...
ROW 75 : ... .. B ... ... ... : ... .. 2 ... ... ... : C-3 00 . ... : ... .. B ... : ... .. . ... ... : ... .. . ... ... : ... .. . ... ... : ... .. D ... ...
ROW 76 : ... .. . ... ... ... : ... .. . ... ... ... : F-2 00 . ... : ... .. . ... : ... .. . ... ... : ... .. 3 ... ... : ... .. 3 ... ... : ... .. 8 ... ...
ROW 77 : ... .. A ... ... ... : ... .. . ... ... ... : E-2 00 . ... : ... .. A ... : ... .. . ... ... : ... .. . ... ... : ... .. . ... ... : ... .. . ... ...
ROW 78 : ... .. 8 ... ... ... : ... .. 1 ... ... ... : B-1 00 . ... : ... .. 8 ... : ... .. . ... ... : ... .. . ... ... : ... .. . ... ... : ... .. 4 ... ...
ROW 79 : ... .. 7 ... ... ... : ... .. . ... ... ... : ... .. . ... : ... .. 7 ... : ... .. . ... ... : ... .. . ... ... : ... .. . ... ... : ... .. . ... ...
ROW 7A : D-5 00 D ... ... ... : ... .. . ... ... ... : ... .. . ... : C-# 00 D ... : ... .. . ... ... : ... .. . ... ... : ... .. . ... ... : B-0 01 F ... ...
ROW 7B : ... .. B ... ... ... : ... .. 0 ... ... ... : ... .. . ... : ... .. B ... : ... .. . ... ... : ... .. . ... ... : ... .. . ... ... : ... .. D ... ...
ROW 7C : ... .. . ... ... ... : ... .. . ... ... ... : ... .. . ... : ... .. . ... : ... .. . ... ... : ... .. . ... ... : ... .. . ... ... : ... .. 8 ... ...
ROW 7D : ... .. A ... ... ... : ... .. . ... ... ... : ... .. . ... : ... .. A ... : ... .. . ... ... : ... .. . ... ... : ... .. . ... ... : ... .. . ... ...
ROW 7E : ... .. 8 ... ... ... : ... .. . ... ... ... : ... .. . ... : ... .. 8 ... : ... .. . ... ... : ... .. . ... ... : ... .. . ... ... : ... .. 4 ... ...
ROW 7F : ... .. 7 ... ... ... : ... .. . ... ... ... : ... .. . ... : ... .. 7 ... : ... .. . ... ... : ... .. . ... ... : ... .. . ... ... : ... .. . ... ...
ROW 80 : B-3 00 D ... ... ... : B-2 00 F P81 ... ... : A#3 00 . ... : 4-# 00 D ... : ... .. . ... ... : F#2 01 A ... ... : E-2 01 A ... ... : B-1 01 F ... ...
ROW 81 : ... .. B ... ... ... : ... .. E ... ... ... : C-3 00 . ... : ... .. B ... : ... .. . ... ... : ... .. 9 ... ... : ... .. 9 ... ... : ... .. D ... ...
ROW 82 : ... .. . ... ... ... : ... .. D ... ... ... : F-2 00 . ... : ... .. . ... : ... .. . ... ... : ... .. 8 ... ... : ... .. 8 ... ... : ... .. 8 ... ...
ROW 83 : ... .. A ... ... ... : ... .. A ... ... ... : E-2 00 . ... : ... .. A ... : ... .. . ... ... : ... .. 7 ... ... : ... .. 7 ... ... : ... .. . ... ...
ROW 84 : ... .. 8 ... ... ... : ... .. . ... ... ... : B-1 00 . ... : ... .. 8 ... : ... .. . ... ... : ... .. . ... ... : ... .. . ... ... : ... .. 4 ... ...
ROW 85 : ... .. 7 ... ... ... : ... .. . ... ... ... : ... .. . ... : ... .. 7 ... : ... .. . ... ... : ... .. 6 ... ... : ... .. 6 ... ... : ... .. . ... ...
ROW 86 : F#3 00 D ... ... ... : B-0 00 F ... ... ... : ... .. . ... : 1-# 00 F ... : ... .. . ... ... : ... .. . ... ... : ... .. . ... ... : B-0 01 F ... ...
ROW 87 : ... .. B ... ... ... : ... .. E ... ... ... : ... .. . ... : ... .. C ... : ... .. . ... ... : ... .. 5 ... ... : ... .. 5 ... ... : ... .. D ... ...
ROW 88 : ... .. . ... ... ... : ... .. D ... ... ... : ... .. . ... : ... .. 6 ... : ... .. . ... ... : ... .. . ... ... : ... .. . ... ... : ... .. 8 ... ...
ROW 89 : ... .. A ... ... ... : ... .. A ... ... ... : ... .. . ... : ... .. 3 ... : ... .. . ... ... : ... .. . ... ... : ... .. . ... ... : ... .. . ... ...
ROW 8A : ... .. 8 ... ... ... : ... .. 2 ... ... ... : ... .. . ... : ... .. 2 ... : ... .. . ... ... : ... .. . ... ... : ... .. . ... ... : ... .. 4 ... ...
ROW 8B : ... .. 7 ... ... ... : ... .. . ... ... ... : ... .. . ... : ... .. 0 ... : ... .. . ... ... : ... .. . ... ... : ... .. . ... ... : ... .. . ... ...
ROW 8C : B-2 00 D ... ... ... : ... .. F ... ... ... : ... .. . ... : ... .. F ... : ... .. . ... ... : ... .. . ... ... : ... .. . ... ... : ... .. F ... ...
ROW 8D : ... .. B ... ... ... : ... .. E ... ... ... : ... .. . ... : ... .. C ... : ... .. . ... ... : ... .. . ... ... : ... .. . ... ... : ... .. D ... ...
ROW 8E : ... .. . ... ... ... : ... .. D ... ... ... : ... .. . ... : ... .. 6 ... : ... .. . ... ... : ... .. 3 ... ... : ... .. 3 ... ... : ... .. 8 ... ...
ROW 8F : ... .. A ... ... ... : ... .. A ... ... ... : ... .. . ... : ... .. 3 ... : ... .. . ... ... : ... .. . ... ... : ... .. . ... ... : ... .. . ... ...
ROW 90 : ... .. 8 ... ... ... : ... .. 2 ... ... ... : ... .. . ... : ... .. 2 ... : ... .. . ... ... : ... .. . ... ... : ... .. . ... ... : ... .. 4 ... ...
ROW 91 : ... .. 7 ... ... ... : ... .. . ... ... ... : ... .. . ... : ... .. 0 ... : ... .. . ... ... : ... .. . ... ... : ... .. . ... ... : ... .. . ... ...
ROW 92 : A-2 00 D ... ... ... : B-2 00 F ... ... ... : A#3 00 . ... : 4-# 00 D ... : ... .. . ... ... : ... .. A ... ... : ... .. A ... ... : B-1 01 F ... ...
ROW 93 : ... .. B ... ... ... : ... .. E ... ... ... : C-3 00 . ... : ... .. B ... : ... .. . ... ... : ... .. 9 ... ... : ... .. 9 ... ... : ... .. D ... ...
ROW 94 : ... .. . ... ... ... : ... .. D ... ... ... : F-2 00 . ... : ... .. . ... : ... .. . ... ... : ... .. 8 ... ... : ... .. 8 ... ... : ... .. 8 ... ...
ROW 95 : ... .. A ... ... ... : ... .. A ... ... ... : E-2 00 . ... : ... .. A ... : ... .. . ... ... : ... .. 7 ... ... : ... .. 7 ... ... : ... .. . ... ...
ROW 96 : ... .. 8 ... ... ... : ... .. . ... ... ... : B-1 00 . ... : ... .. 8 ... : ... .. . ... ... : ... .. . ... ... : ... .. . ... ... : ... .. 4 ... ...
ROW 97 : ... .. 7 ... ... ... : ... .. . ... ... ... : ... .. . ... : ... .. 7 ... : ... .. . ... ... : ... .. 6 ... ... : ... .. 6 ... ... : ... .. . ... ...
ROW 98 : B-2 00 D ... ... ... : B-0 00 F ... ... ... : ... .. . ... : 1-# 00 F ... : ... .. . ... ... : ... .. . ... ... : ... .. . ... ... : B-0 01 F ... ...
ROW 99 : ... .. B ... ... ... : ... .. E ... ... ... : ... .. . ... : ... .. C ... : ... .. . ... ... : ... .. 5 ... ... : ... .. 5 ... ... : ... .. D ... ...
ROW 9A : ... .. . ... ... ... : ... .. D ... ... ... : ... .. . ... : ... .. 6 ... : ... .. . ... ... : ... .. . ... ... : ... .. . ... ... : ... .. 8 ... ...
ROW 9B : ... .. A ... ... ... : ... .. A ... ... ... : ... .. . ... : ... .. 3 ... : ... .. . ... ... : ... .. . ... ... : ... .. . ... ... : ... .. . ... ...
ROW 9C : ... .. 8 ... ... ... : ... .. 2 ... ... ... : ... .. . ... : ... .. 2 ... : ... .. . ... ... : ... .. . ... ... : ... .. . ... ... : ... .. 4 ... ...
ROW 9D : ... .. 7 ... ... ... : ... .. . ... ... ... : ... .. . ... : ... .. 0 ... : ... .. . ... ... : ... .. . ... ... : ... .. . ... ... : ... .. . ... ...
ROW 9E : F#3 00 D ... ... ... : ... .. F ... ... ... : ... .. . ... : ... .. F ... : ... .. . ... ... : ... .. . ... ... : ... .. . ... ... : ... .. F ... ...
ROW 9F : ... .. B ... ... ... : ... .. E ... ... ... : ... .. . ... : ... .. C ... : ... .. . ... ... : ... .. . ... ... : ... .. . ... ... : ... .. D ... ...
ROW A0 : ... .. . ... ... ... : ... .. D ... ... ... : ... .. . ... : ... .. 6 ... : ... .. . ... ... : ... .. 3 ... ... : ... .. 3 ... ... : ... .. 8 ... ...
ROW A1 : ... .. A ... ... ... : ... .. A ... ... ... : ... .. . ... : ... .. 3 ... : ... .. . ... ... : ... .. . ... ... : ... .. . ... ... : ... .. . ... ...
ROW A2 : ... .. 8 ... ... ... : ... .. 2 ... ... ... : ... .. . ... : ... .. 2 ... : ... .. . ... ... : ... .. . ... ... : ... .. . ... ... : ... .. 4 ... ...
ROW A3 : ... .. 7 ... ... ... : ... .. . ... ... ... : ... .. . ... : ... .. 0 ... : ... .. . ... ... : ... .. . ... ... : ... .. . ... ... : ... .. . ... ...
ROW A4 : B-3 00 D ... ... ... : C-3 00 F ... ... ... : A#3 00 . ... : 4-# 00 D ... : ... .. . ... ... : G-2 01 A ... ... : F-2 01 A ... ... : B-1 01 F ... ...
ROW A5 : ... .. B ... ... ... : ... .. E ... ... ... : C-3 00 . ... : ... .. B ... : ... .. . ... ... : ... .. 9 ... ... : ... .. 9 ... ... : ... .. D ... ...
ROW A6 : ... .. . ... ... ... : ... .. D ... ... ... : F-2 00 . ... : ... .. . ... : ... .. . ... ... : ... .. 8 ... ... : ... .. 8 ... ... : ... .. 8 ... ...
ROW A7 : ... .. A ... ... ... : ... .. A ... ... ... : E-2 00 . ... : ... .. A ... : ... .. . ... ... : ... .. 7 ... ... : ... .. 7 ... ... : ... .. . ... ...
ROW A8 : ... .. 8 ... ... ... : ... .. . ... ... ... : B-1 00 . ... : ... .. 8 ... : ... .. . ... ... : ... .. . ... ... : ... .. . ... ... : ... .. 4 ... ...
ROW A9 : ... .. 7 ... ... ... : ... .. . ... ... ... : ... .. . ... : ... .. 7 ... : ... .. . ... ... : ... .. 6 ... ... : ... .. 6 ... ... : ... .. . ... ...
ROW AA : C-4 00 D ... ... ... : B-0 00 F ... ... ... : ... .. . ... : 1-# 00 F ... : ... .. . ... ... : ... .. . ... ... : ... .. . ... ... : B-0 01 F ... ...
ROW AB : ... .. B ... ... ... : ... .. E ... ... ... : ... .. . ... : ... .. C ... : ... .. . ... ... : ... .. 5 ... ... : ... .. 5 ... ... : ... .. D ... ...
ROW AC : ... .. . ... ... ... : ... .. D ... ... ... : ... .. . ... : ... .. 6 ... : ... .. . ... ... : ... .. . ... ... : ... .. . ... ... : ... .. 8 ... ...
ROW AD : ... .. A ... ... ... : ... .. A ... ... ... : ... .. . ... : ... .. 3 ... : ... .. . ... ... : ... .. . ... ... : ... .. . ... ... : ... .. . ... ...
ROW AE : ... .. 8 ... ... ... : ... .. 2 ... ... ... : ... .. . ... : ... .. 2 ... : ... .. . ... ... : ... .. . ... ... : ... .. . ... ... : ... .. 4 ... ...
ROW AF : ... .. 7 ... ... ... : ... .. . ... ... ... : ... .. . ... : ... .. 0 ... : ... .. . ... ... : ... .. . ... ... : ... .. . ... ... : ... .. . ... ...
ROW B0 : B-3 00 D ... ... ... : ... .. F ... ... ... : A#3 00 . ... : ... .. F ... : ... .. . ... ... : ... .. . ... ... : ... .. . ... ... : ... .. F ... ...
ROW B1 : ... .. B ... ... ... : ... .. E ... ... ... : C-3 00 . ... : ... .. C ... : ... .. . ... ... : ... .. . ... ... : ... .. . ... ... : ... .. D ... ...
ROW B2 : ... .. . ... ... ... : ... .. D ... ... ... : F-2 00 . ... : ... .. 6 ... : ... .. . ... ... : ... .. 3 ... ... : ... .. 3 ... ... : ... .. 8 ... ...
ROW B3 : ... .. A ... ... ... : ... .. A ... ... ... : E-2 00 . ... : ... .. 3 ... : ... .. . ... ... : ... .. . ... ... : ... .. . ... ... : ... .. . ... ...
ROW B4 : ... .. 8 ... ... ... : ... .. 2 ... ... ... : B-1 00 . ... : ... .. 2 ... : ... .. . ... ... : ... .. . ... ... : ... .. . ... ... : ... .. 4 ... ...
ROW B5 : ... .. 7 ... ... ... : ... .. . ... ... ... : ... .. . ... : ... .. 0 ... : ... .. . ... ... : ... .. . ... ... : ... .. . ... ... : ... .. . ... ...
ROW B6 : F#3 00 D ... ... ... : C-3 00 F ... ... ... : ... .. . ... : 4-# 00 D ... : ... .. . ... ... : ... .. A ... ... : ... .. A ... ... : B-1 01 F ... ...
ROW B7 : ... .. B ... ... ... : ... .. E ... ... ... : ... .. . ... : ... .. B ... : ... .. . ... ... : ... .. 9 ... ... : ... .. 9 ... ... : ... .. D ... ...
ROW B8 : ... .. . ... ... ... : ... .. D ... ... ... : ... .. . ... : ... .. . ... : ... .. . ... ... : ... .. 8 ... ... : ... .. 8 ... ... : ... .. 8 ... ...
ROW B9 : ... .. A ... ... ... : ... .. A ... ... ... : ... .. . ... : ... .. A ... : ... .. . ... ... : ... .. 7 ... ... : ... .. 7 ... ... : ... .. . ... ...
ROW BA : ... .. 8 ... ... ... : ... .. . ... ... ... : ... .. . ... : ... .. 8 ... : ... .. . ... ... : ... .. . ... ... : ... .. . ... ... : ... .. 4 ... ...
ROW BB : ... .. 7 ... ... ... : ... .. . ... ... ... : ... .. . ... : ... .. 7 ... : ... .. . ... ... : ... .. 6 ... ... : ... .. 6 ... ... : ... .. . ... ...
ROW BC : B-2 00 D ... ... ... : B-0 00 F ... ... ... : A#3 00 . ... : 1-# 00 F ... : ... .. . ... ... : ... .. . ... ... : ... .. . ... ... : B-0 01 F ... ...
ROW BD : ... .. B ... ... ... : ... .. E ... ... ... : C-3 00 . ... : ... .. C ... : ... .. . ... ... : ... .. 5 ... ... : ... .. 5 ... ... : ... .. D ... ...
ROW BE : ... .. . ... ... ... : ... .. D ... ... ... : F-2 00 . ... : ... .. 6 ... : ... .. . ... ... : ... .. . ... ... : ... .. . ... ... : ... .. 8 ... ...
ROW BF : ... .. A ... ... ... : ... .. A ... ... ... : E-2 00 . ... : ... .. 3 ... : ... .. . ... ... : ... .. . ... ... : ... .. . ... ... : ... .. . ... ...
ROW C0 : ... .. 8 ... ... ... : ... .. 2 ... ... ... : B-1 00 . ... : ... .. 2 ... : ... .. . ... ... : ... .. . ... ... : ... .. . ... ... : ... .. 4 ... ...
ROW C1 : ... .. 7 ... ... ... : ... .. . ... ... ... : ... .. . ... : ... .. 0 ... : ... .. . ... ... : ... .. . ... ... : ... .. . ... ... : ... .. . ... ...
ROW C2 : A-2 00 D ... ... ... : ... .. F ... ... ... : ... .. . ... : ... .. F ... : ... .. . ... ... : ... .. . ... ... : ... .. . ... ... : ... .. F ... ...
ROW C3 : ... .. B ... ... ... : ... .. E ... ... ... : ... .. . ... : ... .. C ... : ... .. . ... ... : ... .. . ... ... : ... .. . ... ... : ... .. D ... ...
ROW C4 : ... .. . ... ... ... : ... .. D ... ... ... : ... .. . ... : ... .. 6 ... : ... .. . ... ... : ... .. 3 ... ... : ... .. 3 ... ... : ... .. 8 ... ...
ROW C5 : ... .. A ... ... ... : ... .. A ... ... ... : ... .. . ... : ... .. 3 ... : ... .. . ... ... : ... .. . ... ... : ... .. . ... ... : ... .. . ... ...
ROW C6 : ... .. 8 ... ... ... : ... .. 2 ... ... ... : ... .. . ... : ... .. 2 ... : ... .. . ... ... : ... .. . ... ... : ... .. . ... ... : ... .. 4 ... ...
ROW C7 : ... .. 7 ... ... ... : ... .. . ... ... ... : ... .. . ... : ... .. 0 ... : ... .. . ... ... : ... .. . ... ... : ... .. . ... ... : ... .. . ... ...
ROW C8 : B-2 00 D ... ... ... : D-3 00 F ... ... ... : A#3 00 . ... : 4-# 00 D ... : ... .. . ... ... : A-2 01 A ... ... : G-2 01 A ... ... : B-1 01 F ... ...
ROW C9 : ... .. B ... ... ... : ... .. E ... ... ... : C-3 00 . ... : ... .. B ... : ... .. . ... ... : ... .. 9 ... ... : ... .. 9 ... ... : ... .. D ... ...
ROW CA : ... .. . ... ... ... : ... .. D ... ... ... : F-2 00 . ... : ... .. . ... : ... .. . ... ... : ... .. 8 ... ... : ... .. 8 ... ... : ... .. 8 ... ...
ROW CB : ... .. A ... ... ... : ... .. A ... ... ... : E-2 00 . ... : ... .. A ... : ... .. . ... ... : ... .. 7 ... ... : ... .. 7 ... ... : ... .. . ... ...
ROW CC : ... .. 8 ... ... ... : ... .. . ... ... ... : B-1 00 . ... : ... .. 8 ... : ... .. . ... ... : ... .. . ... ... : ... .. . ... ... : ... .. 4 ... ...
ROW CD : ... .. 7 ... ... ... : ... .. . ... ... ... : ... .. . ... : ... .. 7 ... : ... .. . ... ... : ... .. 6 ... ... : ... .. 6 ... ... : ... .. . ... ...
ROW CE : F#2 00 D ... ... ... : B-0 00 F ... ... ... : ... .. . ... : 1-# 00 F ... : ... .. . ... ... : ... .. . ... ... : ... .. . ... ... : B-0 01 F ... ...
ROW CF : ... .. B ... ... ... : ... .. E ... ... ... : ... .. . ... : ... .. C ... : ... .. . ... ... : ... .. 5 ... ... : ... .. 5 ... ... : ... .. D ... ...
ROW D0 : ... .. . ... ... ... : ... .. D ... ... ... : ... .. . ... : ... .. 6 ... : ... .. . ... ... : ... .. . ... ... : ... .. . ... ... : ... .. 8 ... ...
ROW D1 : ... .. A ... ... ... : ... .. A ... ... ... : ... .. . ... : ... .. 3 ... : ... .. . ... ... : ... .. . ... ... : ... .. . ... ... : ... .. . ... ...
ROW D2 : ... .. 8 ... ... ... : ... .. 2 ... ... ... : ... .. . ... : ... .. 2 ... : ... .. . ... ... : ... .. . ... ... : ... .. . ... ... : ... .. 4 ... ...
ROW D3 : ... .. 7 ... ... ... : ... .. . ... ... ... : ... .. . ... : ... .. 0 ... : ... .. . ... ... : ... .. . ... ... : ... .. . ... ... : ... .. . ... ...
ROW D4 : B-1 00 D ... ... ... : ... .. F ... ... ... : ... .. . ... : ... .. F ... : ... .. . ... ... : ... .. . ... ... : ... .. . ... ... : ... .. F ... ...
ROW D5 : ... .. B ... ... ... : ... .. E ... ... ... : ... .. . ... : ... .. C ... : ... .. . ... ... : ... .. . ... ... : ... .. . ... ... : ... .. D ... ...
ROW D6 : ... .. . ... ... ... : ... .. D ... ... ... : ... .. . ... : ... .. 6 ... : ... .. . ... ... : ... .. 3 ... ... : ... .. 3 ... ... : ... .. 8 ... ...
ROW D7 : ... .. A ... ... ... : ... .. A ... ... ... : ... .. . ... : ... .. 3 ... : ... .. . ... ... : ... .. . ... ... : ... .. . ... ... : ... .. . ... ...
ROW D8 : ... .. 8 ... ... ... : ... .. 2 ... ... ... : ... .. . ... : ... .. 2 ... : ... .. . ... ... : ... .. . ... ... : ... .. . ... ... : ... .. 4 ... ...
ROW D9 : ... .. 7 ... ... ... : ... .. . ... ... ... : ... .. . ... : ... .. 0 ... : ... .. . ... ... : ... .. . ... ... : ... .. . ... ... : ... .. . ... ...
ROW DA : A-1 00 D ... ... ... : D-3 00 F ... ... ... : A#3 00 . ... : 4-# 00 D ... : ... .. . ... ... : ... .. A ... ... : ... .. A ... ... : B-1 01 F ... ...
ROW DB : ... .. B ... ... ... : ... .. E ... ... ... : C-3 00 . ... : ... .. B ... : ... .. . ... ... : ... .. 9 ... ... : ... .. 9 ... ... : ... .. D ... ...
ROW DC : ... .. . ... ... ... : ... .. D ... ... ... : F-2 00 . ... : ... .. . ... : ... .. . ... ... : ... .. 8 ... ... : ... .. 8 ... ... : ... .. 8 ... ...
ROW DD : ... .. A ... ... ... : ... .. A ... ... ... : E-2 00 . ... : ... .. A ... : ... .. . ... ... : ... .. 7 ... ... : ... .. 7 ... ... : ... .. . ... ...
ROW DE : ... .. 8 ... ... ... : ... .. . ... ... ... : B-1 00 . ... : ... .. 8 ... : ... .. . ... ... : ... .. . ... ... : ... .. . ... ... : ... .. 4 ... ...
ROW DF : ... .. 7 ... ... ... : ... .. . ... ... ... : ... .. . ... : ... .. 7 ... : ... .. . ... ... : ... .. 6 ... ... : ... .. 6 ... ... : ... .. . ... ...
ROW E0 : B-1 00 D ... ... ... : B-0 00 F ... ... ... : ... .. . ... : 1-# 00 F ... : ... .. . ... ... : ... .. . ... ... : ... .. . ... ... : B-0 01 F ... ...
ROW E1 : ... .. B ... ... ... : ... .. E ... ... ... : ... .. . ... : ... .. C ... : ... .. . ... ... : ... .. 5 ... ... : ... .. 5 ... ... : ... .. D ... ...
ROW E2 : ... .. . ... ... ... : ... .. D ... ... ... : ... .. . ... : ... .. 6 ... : ... .. . ... ... : ... .. . ... ... : ... .. . ... ... : ... .. 8 ... ...
ROW E3 : ... .. A ... ... ... : ... .. A ... ... ... : ... .. . ... : ... .. 3 ... : ... .. . ... ... : ... .. . ... ... : ... .. . ... ... : ... .. . ... ...
ROW E4 : ... .. 8 ... ... ... : ... .. 2 ... ... ... : ... .. . ... : ... .. 2 ... : ... .. . ... ... : ... .. . ... ... : ... .. . ... ... : ... .. 4 ... ...
ROW E5 : ... .. 7 ... ... ... : ... .. . ... ... ... : ... .. . ... : ... .. 0 ... : ... .. . ... ... : ... .. . ... ... : ... .. . ... ... : ... .. . ... ...
ROW E6 : F#2 00 D ... ... ... : ... .. F ... ... ... : ... .. . ... : ... .. F ... : ... .. . ... ... : ... .. . ... ... : ... .. . ... ... : ... .. F ... ...
ROW E7 : ... .. B ... ... ... : ... .. E ... ... ... : ... .. . ... : ... .. C ... : ... .. . ... ... : ... .. . ... ... : ... .. . ... ... : ... .. D ... ...
ROW E8 : ... .. . ... ... ... : ... .. D ... ... ... : ... .. . ... : ... .. 6 ... : ... .. . ... ... : ... .. 3 ... ... : ... .. 3 ... ... : ... .. 8 ... ...
ROW E9 : ... .. A ... ... ... : ... .. A ... ... ... : ... .. . ... : ... .. 3 ... : ... .. . ... ... : ... .. . ... ... : ... .. . ... ... : ... .. . ... ...
ROW EA : ... .. 8 ... ... ... : ... .. 2 ... ... ... : ... .. . ... : ... .. 2 ... : ... .. . ... ... : ... .. . ... ... : ... .. . ... ... : ... .. 4 ... ...
ROW EB : ... .. 7 ... ... ... : ... .. . ... ... ... : ... .. . ... : ... .. 0 ... : ... .. . ... ... : ... .. . ... ... : ... .. . ... ... : ... .. . ... ...
ROW EC : B-2 00 D ... ... ... : E-3 00 F ... ... ... : A#3 00 . ... : 4-# 00 D ... : ... .. . ... ... : B-2 01 A ... ... : A-2 01 A ... ... : B-1 01 F ... ...
ROW ED : ... .. B ... ... ... : ... .. E ... ... ... : C-3 00 . ... : ... .. B ... : ... .. . ... ... : ... .. 9 ... ... : ... .. 9 ... ... : ... .. D ... ...
ROW EE : ... .. . ... ... ... : ... .. D ... ... ... : F-2 00 . ... : ... .. . ... : ... .. . ... ... : ... .. 8 ... ... : ... .. 8 ... ... : ... .. 8 ... ...
ROW EF : ... .. A ... ... ... : ... .. A ... ... ... : E-2 00 . ... : ... .. A ... : ... .. . ... ... : ... .. 7 ... ... : ... .. 7 ... ... : ... .. . ... ...
ROW F0 : ... .. 8 ... ... ... : ... .. . ... ... ... : B-1 00 . ... : ... .. 8 ... : ... .. . ... ... : ... .. . ... ... : ... .. . ... ... : ... .. 4 ... ...
ROW F1 : ... .. 7 ... ... ... : ... .. . ... ... ... : ... .. . ... : ... .. 7 ... : ... .. . ... ... : ... .. 6 ... ... : ... .. 6 ... ... : ... .. . ... ...
ROW F2 : C-3 00 D ... ... ... : B-0 00 F ... ... ... : ... .. . ... : 1-# 00 F ... : ... .. . ... ... : ... .. 5 ... ... : ... .. 5 ... ... : B-0 01 F ... ...
ROW F3 : ... .. B ... ... ... : ... .. E ... ... ... : ... .. . ... : ... .. C ... : ... .. . ... ... : ... .. . ... ... : ... .. . ... ... : ... .. D ... ...
ROW F4 : ... .. . ... ... ... : ... .. D ... ... ... : ... .. . ... : ... .. 6 ... : ... .. . ... ... : ... .. 3 ... ... : ... .. 3 ... ... : ... .. 8 ... ...
ROW F5 : ... .. A ... ... ... : ... .. A ... ... ... : ... .. . ... : ... .. 3 ... : ... .. . ... ... : ... .. . ... ... : ... .. . ... ... : ... .. . ... ...
ROW F6 : ... .. 8 ... ... ... : ... .. 2 ... ... ... : ... .. . ... : ... .. 2 ... : ... .. . ... ... : ... .. . ... ... : ... .. . ... ... : ... .. 4 ... ...
ROW F7 : ... .. 7 ... ... ... : ... .. . ... ... ... : ... .. . ... : ... .. 0 ... : ... .. . ... ... : ... .. . ... ... : ... .. . ... ... : ... .. . ... ...
ROW F8 : B-2 00 D ... ... ... : E-3 00 F ... ... ... : A#3 00 . ... : 4-# 00 D ... : ... .. . ... ... : ... .. A ... ... : ... .. A ... ... : B-1 01 F ... ...
ROW F9 : ... .. B ... ... ... : ... .. E ... ... ... : C-3 00 . ... : ... .. B ... : ... .. . ... ... : ... .. 9 ... ... : ... .. 9 ... ... : ... .. D ... ...
ROW FA : ... .. . ... ... ... : ... .. D ... ... ... : F-2 00 . ... : ... .. . ... : ... .. . ... ... : ... .. 8 ... ... : ... .. 8 ... ... : ... .. 8 ... ...
ROW FB : ... .. A ... ... ... : ... .. A ... ... ... : E-2 00 . ... : ... .. A ... : ... .. . ... ... : ... .. 7 ... ... : ... .. 7 ... ... : ... .. . ... ...
ROW FC : ... .. 8 ... ... ... : ... .. . ... ... ... : B-1 00 . ... : ... .. 8 ... : ... .. . ... ... : ... .. . ... ... : ... .. . ... ... : ... .. 4 ... ...
ROW FD : ... .. 7 ... ... ... : ... .. . ... ... ... : ... .. . ... : ... .. 7 ... : ... .. . ... ... : ... .. 6 ... ... : ... .. 6 ... ... : ... .. . ... ...
ROW FE : F#2 00 D ... ... ... : B-0 00 F ... ... ... : ... .. . ... : 1-# 00 F ... : ... .. . ... ... : ... .. 5 ... ... : ... .. 5 ... ... : B-0 01 F ... ...
ROW FF : ... .. B ... ... ... : ... .. E ... ... ... : ... .. . ... : ... .. C ... : ... .. . ... ... : ... .. . ... ... : ... .. . ... ... : ... .. D ... ...

PATTERN 05
ROW 00 : ... .. . ... ... ... : ... .. D ... ... ... : ... .. . ... : ... .. 6 ... : ... .. . ... ... : ... .. 3 ... ... : ... .. 3 ... ... : ... .. 8 ... ...
ROW 01 : ... .. A ... ... ... : ... .. A ... ... ... : ... .. . ... : ... .. 3 ... : ... .. . ... ... : ... .. . ... ... : ... .. . ... ... : ... .. . ... ...
ROW 02 : ... .. 8 ... ... ... : ... .. 2 ... ... ... : ... .. . ... : ... .. 2 ... : ... .. . ... ... : ... .. . ... ... : ... .. . ... ... : ... .. 4 ... ...
ROW 03 : ... .. 7 ... ... ... : ... .. . ... ... ... : ... .. . ... : ... .. 0 ... : ... .. . ... ... : ... .. . ... ... : ... .. . ... ... : ... .. . ... ...
ROW 04 : B-1 00 D ... ... ... : E-3 00 F ... ... ... : A#3 00 . ... : 4-# 00 D ... : ... .. . ... ... : ... .. A ... ... : ... .. A ... ... : B-1 01 F ... ...
ROW 05 : ... .. B ... ... ... : ... .. E ... ... ... : C-3 00 . ... : ... .. B ... : ... .. . ... ... : ... .. 9 ... ... : ... .. 9 ... ... : ... .. D ... ...
ROW 06 : ... .. . ... ... ... : ... .. D ... ... ... : F-2 00 . ... : ... .. . ... : ... .. . ... ... : ... .. 8 ... ... : ... .. 8 ... ... : ... .. 8 ... ...
ROW 07 : ... .. A ... ... ... : ... .. A ... ... ... : E-2 00 . ... : ... .. A ... : ... .. . ... ... : ... .. 7 ... ... : ... .. 7 ... ... : ... .. . ... ...
ROW 08 : ... .. 8 ... ... ... : ... .. . ... ... ... : B-1 00 . ... : ... .. 8 ... : ... .. . ... ... : ... .. . ... ... : ... .. . ... ... : ... .. 4 ... ...
ROW 09 : ... .. 7 ... ... ... : ... .. . ... ... ... : ... .. . ... : ... .. 7 ... : ... .. . ... ... : ... .. 6 ... ... : ... .. 6 ... ... : ... .. . ... ...
ROW 0A : A-1 00 D ... ... ... : B-0 00 F ... ... ... : ... .. . ... : 1-# 00 F ... : ... .. . ... ... : ... .. 5 ... ... : ... .. 5 ... ... : B-0 01 F ... ...
ROW 0B : ... .. B ... ... ... : ... .. E ... ... ... : ... .. . ... : ... .. C ... : ... .. . ... ... : ... .. . ... ... : ... .. . ... ... : ... .. D ... ...
ROW 0C : ... .. . ... ... ... : ... .. D ... ... ... : ... .. . ... : ... .. 6 ... : ... .. . ... ... : ... .. 3 ... ... : ... .. 3 ... ... : ... .. 8 ... ...
ROW 0D : ... .. A ... ... ... : ... .. A ... ... ... : ... .. . ... : ... .. 3 ... : ... .. . ... ... : ... .. . ... ... : ... .. . ... ... : ... .. . ... ...
ROW 0E : ... .. 8 ... ... ... : ... .. 2 ... ... ... : ... .. . ... : ... .. 2 ... : ... .. . ... ... : ... .. . ... ... : ... .. . ... ... : ... .. 4 ... ...
ROW 0F : ... .. 7 ... ... ... : ... .. . ... ... ... : ... .. . ... : ... .. 0 ... : ... .. . ... ... : ... .. . ... ... : ... .. . ... ... : ... .. . ... ...
ROW 10 : B-3 00 D ... ... ... : C-4 00 F ... ... ... : A#3 00 . ... : 4-# 00 D ... : ... .. . ... ... : ... .. A ... ... : ... .. A ... ... : B-1 01 F ... ...
ROW 11 : ... .. B ... ... ... : ... .. E ... ... ... : C-3 00 . ... : ... .. B ... : ... .. . ... ... : ... .. 9 ... ... : ... .. 9 ... ... : ... .. D ... ...
ROW 12 : ... .. . ... ... ... : ... .. D ... ... ... : F-2 00 . ... : ... .. . ... : ... .. . ... ... : ... .. 8 ... ... : ... .. 8 ... ... : ... .. 8 ... ...
ROW 13 : ... .. A ... ... ... : ... .. A ... ... ... : E-2 00 . ... : ... .. A ... : ... .. . ... ... : ... .. 7 ... ... : ... .. 7 ... ... : ... .. . ... ...
ROW 14 : ... .. 8 ... ... ... : ... .. . ... ... ... : B-1 00 . ... : ... .. 8 ... : ... .. . ... ... : ... .. . ... ... : ... .. . ... ... : ... .. 4 ... ...
ROW 15 : ... .. 7 ... ... ... : ... .. . ... ... ... : ... .. . ... : ... .. 7 ... : ... .. . ... ... : ... .. 6 ... ... : ... .. 6 ... ... : ... .. . ... ...
ROW 16 : F#3 00 D ... ... ... : B-0 00 F ... ... ... : ... .. . ... : 1-# 00 F ... : ... .. . ... ... : ... .. . ... ... : ... .. . ... ... : B-0 01 F ... ...
ROW 17 : ... .. B ... ... ... : ... .. E ... ... ... : ... .. . ... : ... .. C ... : ... .. . ... ... : ... .. 5 ... ... : ... .. 5 ... ... : ... .. D ... ...
ROW 18 : ... .. . ... ... ... : ... .. D ... ... ... : ... .. . ... : ... .. 6 ... : ... .. . ... ... : ... .. . ... ... : ... .. . ... ... : ... .. 8 ... ...
ROW 19 : ... .. A ... ... ... : ... .. A ... ... ... : ... .. . ... : ... .. 3 ... : ... .. . ... ... : ... .. . ... ... : ... .. . ... ... : ... .. . ... ...
ROW 1A : ... .. 8 ... ... ... : ... .. 2 ... ... ... : ... .. . ... : ... .. 2 ... : ... .. . ... ... : ... .. . ... ... : ... .. . ... ... : ... .. 4 ... ...
ROW 1B : ... .. 7 ... ... ... : ... .. . ... ... ... : ... .. . ... : ... .. 0 ... : ... .. . ... ... : ... .. . ... ... : ... .. . ... ... : ... .. . ... ...
ROW 1C : B-2 00 D ... ... ... : ... .. F ... ... ... : ... .. . ... : ... .. F ... : ... .. . ... ... : ... .. . ... ... : ... .. . ... ... : ... .. F ... ...
ROW 1D : ... .. B ... ... ... : ... .. E ... ... ... : ... .. . ... : ... .. C ... : ... .. . ... ... : ... .. . ... ... : ... .. . ... ... : ... .. D ... ...
ROW 1E : ... .. . ... ... ... : ... .. D ... ... ... : ... .. . ... : ... .. 6 ... : ... .. . ... ... : ... .. 3 ... ... : ... .. 3 ... ... : ... .. 8 ... ...
ROW 1F : ... .. A ... ... ... : ... .. A ... ... ... : ... .. . ... : ... .. 3 ... : ... .. . ... ... : ... .. . ... ... : ... .. . ... ... : ... .. . ... ...
ROW 20 : ... .. 8 ... ... ... : ... .. 2 ... ... ... : ... .. . ... : ... .. 2 ... : ... .. . ... ... : ... .. . ... ... : ... .. . ... ... : ... .. 4 ... ...
ROW 21 : ... .. 7 ... ... ... : ... .. . ... ... ... : ... .. . ... : ... .. 0 ... : ... .. . ... ... : ... .. . ... ... : ... .. . ... ... : ... .. . ... ...
ROW 22 : A-2 00 D ... ... ... : C-4 00 F ... ... ... : A#3 00 . ... : 4-# 00 D ... : ... .. . ... ... : ... .. A ... ... : ... .. A ... ... : B-1 01 F ... ...
ROW 23 : ... .. B ... ... ... : ... .. E ... ... ... : C-3 00 . ... : ... .. B ... : ... .. . ... ... : ... .. 9 ... ... : ... .. 9 ... ... : ... .. D ... ...
ROW 24 : ... .. . ... ... ... : ... .. D ... ... ... : F-2 00 . ... : ... .. . ... : ... .. . ... ... : ... .. 8 ... ... : ... .. 8 ... ... : ... .. 8 ... ...
ROW 25 : ... .. A ... ... ... : ... .. A ... ... ... : E-2 00 . ... : ... .. A ... : ... .. . ... ... : ... .. 7 ... ... : ... .. 7 ... ... : ... .. . ... ...
ROW 26 : ... .. 8 ... ... ... : ... .. . ... ... ... : B-1 00 . ... : ... .. 8 ... : ... .. . ... ... : ... .. . ... ... : ... .. . ... ... : ... .. 4 ... ...
ROW 27 : ... .. 7 ... ... ... : ... .. . ... ... ... : ... .. . ... : ... .. 7 ... : ... .. . ... ... : ... .. 6 ... ... : ... .. 6 ... ... : ... .. . ... ...
ROW 28 : B-2 00 D ... ... ... : B-0 00 F ... ... ... : ... .. . ... : 1-# 00 F ... : ... .. . ... ... : ... .. . ... ... : ... .. . ... ... : B-0 01 F ... ...
ROW 29 : ... .. B ... ... ... : ... .. E ... ... ... : ... .. . ... : ... .. C ... : ... .. . ... ... : ... .. 5 ... ... : ... .. 5 ... ... : ... .. D ... ...
ROW 2A : ... .. . ... ... ... : ... .. D ... ... ... : ... .. . ... : ... .. 6 ... : ... .. . ... ... : ... .. . ... ... : ... .. . ... ... : ... .. 8 ... ...
ROW 2B : ... .. A ... ... ... : ... .. A ... ... ... : ... .. . ... : ... .. 3 ... : ... .. . ... ... : ... .. . ... ... : ... .. . ... ... : ... .. . ... ...
ROW 2C : ... .. 8 ... ... ... : ... .. 2 ... ... ... : ... .. . ... : ... .. 2 ... : ... .. . ... ... : ... .. . ... ... : ... .. . ... ... : ... .. 4 ... ...
ROW 2D : ... .. 7 ... ... ... : ... .. . ... ... ... : ... .. . ... : ... .. 0 ... : ... .. . ... ... : ... .. . ... ... : ... .. . ... ... : ... .. . ... ...
ROW 2E : F#3 00 D ... ... ... : ... .. F ... ... ... : ... .. . ... : ... .. F ... : ... .. . ... ... : ... .. . ... ... : ... .. . ... ... : ... .. F ... ...
ROW 2F : ... .. B ... ... ... : ... .. E ... ... ... : ... .. . ... : ... .. C ... : ... .. . ... ... : ... .. . ... ... : ... .. . ... ... : ... .. D ... ...
ROW 30 : ... .. . ... ... ... : ... .. D ... ... ... : ... .. . ... : ... .. 6 ... : ... .. . ... ... : ... .. 3 ... ... : ... .. 3 ... ... : ... .. 8 ... ...
ROW 31 : ... .. A ... ... ... : ... .. A ... ... ... : ... .. . ... : ... .. 3 ... : ... .. . ... ... : ... .. . ... ... : ... .. . ... ... : ... .. . ... ...
ROW 32 : ... .. 8 ... ... ... : ... .. 2 ... ... ... : ... .. . ... : ... .. 2 ... : ... .. . ... ... : ... .. . ... ... : ... .. . ... ... : ... .. 4 ... ...
ROW 33 : ... .. 7 ... ... ... : ... .. . ... ... ... : ... .. . ... : ... .. 0 ... : ... .. . ... ... : ... .. . ... ... : ... .. . ... ... : ... .. . ... ...
ROW 34 : B-3 00 D ... ... ... : D-4 00 F ... ... ... : A#3 00 . ... : 4-# 00 D ... : ... .. . ... ... : G-2 01 A ... ... : C-3 01 A ... ... : B-1 01 F ... ...
ROW 35 : ... .. B ... ... ... : ... .. E ... ... ... : C-3 00 . ... : ... .. B ... : ... .. . ... ... : ... .. 9 ... ... : ... .. 9 ... ... : ... .. D ... ...
ROW 36 : ... .. . ... ... ... : ... .. D ... ... ... : F-2 00 . ... : ... .. . ... : ... .. . ... ... : ... .. 8 ... ... : ... .. 8 ... ... : ... .. 8 ... ...
ROW 37 : ... .. A ... ... ... : ... .. A ... ... ... : E-2 00 . ... : ... .. A ... : ... .. . ... ... : ... .. 7 ... ... : ... .. 7 ... ... : ... .. . ... ...
ROW 38 : ... .. 8 ... ... ... : ... .. . ... ... ... : B-1 00 . ... : ... .. 8 ... : ... .. . ... ... : ... .. . ... ... : ... .. . ... ... : ... .. 4 ... ...
ROW 39 : ... .. 7 ... ... ... : ... .. . ... ... ... : ... .. . ... : ... .. 7 ... : ... .. . ... ... : ... .. 6 ... ... : ... .. 6 ... ... : ... .. . ... ...
ROW 3A : C-4 00 D ... ... ... : B-0 00 F ... ... ... : ... .. . ... : 1-# 00 F ... : ... .. . ... ... : ... .. . ... ... : ... .. . ... ... : B-0 01 F ... ...
ROW 3B : ... .. B ... ... ... : ... .. E ... ... ... : ... .. . ... : ... .. C ... : ... .. . ... ... : ... .. 5 ... ... : ... .. 5 ... ... : ... .. D ... ...
ROW 3C : ... .. . ... ... ... : ... .. D ... ... ... : ... .. . ... : ... .. 6 ... : ... .. . ... ... : ... .. . ... ... : ... .. . ... ... : ... .. 8 ... ...
ROW 3D : ... .. A ... ... ... : ... .. A ... ... ... : ... .. . ... : ... .. 3 ... : ... .. . ... ... : ... .. . ... ... : ... .. . ... ... : ... .. . ... ...
ROW 3E : ... .. 8 ... ... ... : ... .. 2 ... ... ... : ... .. . ... : ... .. 2 ... : ... .. . ... ... : ... .. . ... ... : ... .. . ... ... : ... .. 4 ... ...
ROW 3F : ... .. 7 ... ... ... : ... .. . ... ... ... : ... .. . ... : ... .. 0 ... : ... .. . ... ... : ... .. . ... ... : ... .. . ... ... : ... .. . ... ...
ROW 40 : B-3 00 D ... ... ... : ... .. F ... ... ... : A#3 00 . ... : ... .. F ... : ... .. . ... ... : ... .. . ... ... : ... .. . ... ... : ... .. F ... ...
ROW 41 : ... .. B ... ... ... : ... .. E ... ... ... : C-3 00 . ... : ... .. C ... : ... .. . ... ... : ... .. . ... ... : ... .. . ... ... : ... .. D ... ...
ROW 42 : ... .. . ... ... ... : ... .. D ... ... ... : F-2 00 . ... : ... .. 6 ... : ... .. . ... ... : ... .. 3 ... ... : ... .. 3 ... ... : ... .. 8 ... ...
ROW 43 : ... .. A ... ... ... : ... .. A ... ... ... : E-2 00 . ... : ... .. 3 ... : ... .. . ... ... : ... .. . ... ... : ... .. . ... ... : ... .. . ... ...
ROW 44 : ... .. 8 ... ... ... : ... .. 2 ... ... ... : B-1 00 . ... : ... .. 2 ... : ... .. . ... ... : ... .. . ... ... : ... .. . ... ... : ... .. 4 ... ...
ROW 45 : ... .. 7 ... ... ... : ... .. . ... ... ... : ... .. . ... : ... .. 0 ... : ... .. . ... ... : ... .. . ... ... : ... .. . ... ... : ... .. . ... ...
ROW 46 : F#3 00 D ... ... ... : D-4 00 F ... ... ... : ... .. . ... : 4-# 00 D ... : ... .. . ... ... : ... .. A ... ... : ... .. A ... ... : B-1 01 F ... ...
ROW 47 : ... .. B ... ... ... : ... .. E ... ... ... : ... .. . ... : ... .. B ... : ... .. . ... ... : ... .. 9 ... ... : ... .. 9 ... ... : ... .. D ... ...
ROW 48 : ... .. . ... ... ... : ... .. D ... ... ... : ... .. . ... : ... .. . ... : ... .. . ... ... : ... .. 8 ... ... : ... .. 8 ... ... : ... .. 8 ... ...
ROW 49 : ... .. A ... ... ... : ... .. A ... ... ... : ... .. . ... : ... .. A ... : ... .. . ... ... : ... .. 7 ... ... : ... .. 7 ... ... : ... .. . ... ...
ROW 4A : ... .. 8 ... ... ... : ... .. . ... ... ... : ... .. . ... : ... .. 8 ... : ... .. . ... ... : ... .. . ... ... : ... .. . ... ... : ... .. 4 ... ...
ROW 4B : ... .. 7 ... ... ... : ... .. . ... ... ... : ... .. . ... : ... .. 7 ... : ... .. . ... ... : ... .. 6 ... ... : ... .. 6 ... ... : ... .. . ... ...
ROW 4C : B-2 00 D ... ... ... : B-0 00 F ... ... ... : A#3 00 . ... : 1-# 00 F ... : ... .. . ... ... : ... .. . ... ... : ... .. . ... ... : B-0 01 F ... ...
ROW 4D : ... .. B ... ... ... : ... .. E ... ... ... : C-3 00 . ... : ... .. C ... : ... .. . ... ... : ... .. 5 ... ... : ... .. 5 ... ... : ... .. D ... ...
ROW 4E : ... .. . ... ... ... : ... .. D ... ... ... : F-2 00 . ... : ... .. 6 ... : ... .. . ... ... : ... .. . ... ... : ... .. . ... ... : ... .. 8 ... ...
ROW 4F : ... .. A ... ... ... : ... .. A ... ... ... : E-2 00 . ... : ... .. 3 ... : ... .. . ... ... : ... .. . ... ... : ... .. . ... ... : ... .. . ... ...
ROW 50 : ... .. 8 ... ... ... : ... .. 2 ... ... ... : B-1 00 . ... : ... .. 2 ... : ... .. . ... ... : ... .. . ... ... : ... .. . ... ... : ... .. 4 ... ...
ROW 51 : ... .. 7 ... ... ... : ... .. . ... ... ... : ... .. . ... : ... .. 0 ... : ... .. . ... ... : ... .. . ... ... : ... .. . ... ... : ... .. . ... ...
ROW 52 : A-2 00 D ... ... ... : ... .. F ... ... ... : ... .. . ... : ... .. F ... : ... .. . ... ... : ... .. . ... ... : ... .. . ... ... : ... .. F ... ...
ROW 53 : ... .. B ... ... ... : ... .. E ... ... ... : ... .. . ... : ... .. C ... : ... .. . ... ... : ... .. . ... ... : ... .. . ... ... : ... .. D ... ...
ROW 54 : ... .. . ... ... ... : ... .. D ... ... ... : ... .. . ... : ... .. 6 ... : ... .. . ... ... : ... .. 3 ... ... : ... .. 3 ... ... : ... .. 8 ... ...
ROW 55 : ... .. A ... ... ... : ... .. A ... ... ... : ... .. . ... : ... .. 3 ... : ... .. . ... ... : ... .. . ... ... : ... .. . ... ... : ... .. . ... ...
ROW 56 : ... .. 8 ... ... ... : ... .. 2 ... ... ... : ... .. . ... : ... .. 2 ... : ... .. . ... ... : ... .. . ... ... : ... .. . ... ... : ... .. 4 ... ...
ROW 57 : ... .. 7 ... ... ... : ... .. . ... ... ... : ... .. . ... : ... .. 0 ... : ... .. . ... ... : ... .. . ... ... : ... .. . ... ... : ... .. . ... ...
ROW 58 : B-2 00 D ... ... ... : E-4 00 F ... ... ... : A#3 00 . ... : 4-# 00 D ... : ... .. . ... ... : F#2 01 A ... ... : D-3 01 A ... ... : B-1 01 F ... ...
ROW 59 : ... .. B ... ... ... : ... .. E ... ... ... : C-3 00 . ... : ... .. B ... : ... .. . ... ... : ... .. 9 ... ... : ... .. 9 ... ... : ... .. D ... ...
ROW 5A : ... .. . ... ... ... : ... .. D ... ... ... : F-2 00 . ... : ... .. . ... : ... .. . ... ... : ... .. 8 ... ... : ... .. 8 ... ... : ... .. 8 ... ...
ROW 5B : ... .. A ... ... ... : ... .. A ... ... ... : E-2 00 . ... : ... .. A ... : ... .. . ... ... : ... .. 7 ... ... : ... .. 7 ... ... : ... .. . ... ...
ROW 5C : ... .. 8 ... ... ... : ... .. . ... ... ... : B-1 00 . ... : ... .. 8 ... : ... .. . ... ... : ... .. . ... ... : ... .. . ... ... : ... .. 4 ... ...
ROW 5D : ... .. 7 ... ... ... : ... .. . ... ... ... : ... .. . ... : ... .. 7 ... : ... .. . ... ... : ... .. 6 ... ... : ... .. 6 ... ... : ... .. . ... ...
ROW 5E : F#2 00 D ... ... ... : B-0 00 F ... ... ... : ... .. . ... : 1-# 00 F ... : ... .. . ... ... : ... .. . ... ... : ... .. . ... ... : B-0 01 F ... ...
ROW 5F : ... .. B ... ... ... : ... .. E ... ... ... : ... .. . ... : ... .. C ... : ... .. . ... ... : ... .. 5 ... ... : ... .. 5 ... ... : ... .. D ... ...
ROW 60 : ... .. . ... ... ... : ... .. D ... ... ... : ... .. . ... : ... .. 6 ... : ... .. . ... ... : ... .. . ... ... : ... .. . ... ... : ... .. 8 ... ...
ROW 61 : ... .. A ... ... ... : ... .. A ... ... ... : ... .. . ... : ... .. 3 ... : ... .. . ... ... : ... .. . ... ... : ... .. . ... ... : ... .. . ... ...
ROW 62 : ... .. 8 ... ... ... : ... .. 2 ... ... ... : ... .. . ... : ... .. 2 ... : ... .. . ... ... : ... .. . ... ... : ... .. . ... ... : ... .. 4 ... ...
ROW 63 : ... .. 7 ... ... ... : ... .. . ... ... ... : ... .. . ... : ... .. 0 ... : ... .. . ... ... : ... .. . ... ... : ... .. . ... ... : ... .. . ... ...
ROW 64 : B-1 00 D ... ... ... : ... .. F ... ... ... : ... .. . ... : ... .. F ... : ... .. . ... ... : ... .. . ... ... : ... .. . ... ... : ... .. F ... ...
ROW 65 : ... .. B ... ... ... : ... .. E ... ... ... : ... .. . ... : ... .. C ... : ... .. . ... ... : ... .. . ... ... : ... .. . ... ... : ... .. D ... ...
ROW 66 : ... .. . ... ... ... : ... .. D ... ... ... : ... .. . ... : ... .. 6 ... : ... .. . ... ... : ... .. 3 ... ... : ... .. 3 ... ... : ... .. 8 ... ...
ROW 67 : ... .. A ... ... ... : ... .. A ... ... ... : ... .. . ... : ... .. 3 ... : ... .. . ... ... : ... .. . ... ... : ... .. . ... ... : ... .. . ... ...
ROW 68 : ... .. 8 ... ... ... : ... .. 2 ... ... ... : ... .. . ... : ... .. 2 ... : ... .. . ... ... : ... .. . ... ... : ... .. . ... ... : ... .. 4 ... ...
ROW 69 : ... .. 7 ... ... ... : ... .. . ... ... ... : ... .. . ... : ... .. 0 ... : ... .. . ... ... : ... .. . ... ... : ... .. . ... ... : ... .. . ... ...
ROW 6A : A-1 00 D ... ... ... : E-4 00 F ... ... ... : A#3 00 . ... : 4-# 00 D ... : ... .. . ... ... : ... .. A ... ... : ... .. A ... ... : B-1 01 F ... ...
ROW 6B : ... .. B ... ... ... : ... .. E ... ... ... : C-3 00 . ... : ... .. B ... : ... .. . ... ... : ... .. 9 ... ... : ... .. 9 ... ... : ... .. D ... ...
ROW 6C : ... .. . ... ... ... : ... .. D ... ... ... : F-2 00 . ... : ... .. . ... : ... .. . ... ... : ... .. 8 ... ... : ... .. 8 ... ... : ... .. 8 ... ...
ROW 6D : ... .. A ... ... ... : ... .. A ... ... ... : E-2 00 . ... : ... .. A ... : ... .. . ... ... : ... .. 7 ... ... : ... .. 7 ... ... : ... .. . ... ...
ROW 6E : ... .. 8 ... ... ... : ... .. . ... ... ... : B-1 00 . ... : ... .. 8 ... : ... .. . ... ... : ... .. . ... ... : ... .. . ... ... : ... .. 4 ... ...
ROW 6F : ... .. 7 ... ... ... : ... .. . ... ... ... : ... .. . ... : ... .. 7 ... : ... .. . ... ... : ... .. 6 ... ... : ... .. 6 ... ... : ... .. . ... ...
ROW 70 : B-1 00 D ... ... ... : B-0 00 F ... ... ... : ... .. . ... : 1-# 00 F ... : ... .. . ... ... : ... .. . ... ... : ... .. . ... ... : B-0 01 F ... ...
ROW 71 : ... .. B ... ... ... : ... .. E ... ... ... : ... .. . ... : ... .. C ... : ... .. . ... ... : ... .. 5 ... ... : ... .. 5 ... ... : ... .. D ... ...
ROW 72 : ... .. . ... ... ... : ... .. D ... ... ... : ... .. . ... : ... .. 6 ... : ... .. . ... ... : ... .. . ... ... : ... .. . ... ... : ... .. 8 ... ...
ROW 73 : ... .. A ... ... ... : ... .. A ... ... ... : ... .. . ... : ... .. 3 ... : ... .. . ... ... : ... .. . ... ... : ... .. . ... ... : ... .. . ... ...
ROW 74 : ... .. 8 ... ... ... : ... .. 2 ... ... ... : ... .. . ... : ... .. 2 ... : ... .. . ... ... : ... .. . ... ... : ... .. . ... ... : ... .. 4 ... ...
ROW 75 : ... .. 7 ... ... ... : ... .. . ... ... ... : ... .. . ... : ... .. 0 ... : ... .. . ... ... : ... .. . ... ... : ... .. . ... ... : ... .. . ... ...
ROW 76 : F#2 00 D ... ... ... : ... .. F ... ... ... : ... .. . ... : ... .. F ... : ... .. . ... ... : ... .. . ... ... : ... .. . ... ... : ... .. F ... ...
ROW 77 : ... .. B ... ... ... : ... .. E ... ... ... : ... .. . ... : ... .. C ... : ... .. . ... ... : ... .. . ... ... : ... .. . ... ... : ... .. D ... ...
ROW 78 : ... .. . ... ... ... : ... .. D ... ... ... : ... .. . ... : ... .. 6 ... : ... .. . ... ... : ... .. 3 ... ... : ... .. 3 ... ... : ... .. 8 ... ...
ROW 79 : ... .. A ... ... ... : ... .. A ... ... ... : ... .. . ... : ... .. 3 ... : ... .. . ... ... : ... .. . ... ... : ... .. . ... ... : ... .. . ... ...
ROW 7A : ... .. 8 ... ... ... : ... .. 2 ... ... ... : ... .. . ... : ... .. 2 ... : ... .. . ... ... : ... .. . ... ... : ... .. . ... ... : ... .. 4 ... ...
ROW 7B : ... .. 7 ... ... ... : ... .. . ... ... ... : ... .. . ... : ... .. 0 ... : ... .. . ... ... : ... .. . ... ... : ... .. . ... ... : ... .. . ... ...
ROW 7C : B-2 00 D ... ... ... : F#4 00 F ... ... ... : A#3 00 . ... : 4-# 00 D ... : ... .. . ... ... : ... .. A ... ... : E-3 01 A ... ... : B-1 01 F ... ...
ROW 7D : ... .. B ... ... ... : ... .. E ... ... ... : C-3 00 . ... : ... .. B ... : ... .. . ... ... : ... .. 9 ... ... : ... .. 9 ... ... : ... .. D ... ...
ROW 7E : ... .. . ... ... ... : ... .. D ... ... ... : F-2 00 . ... : ... .. . ... : ... .. . ... ... : ... .. 8 ... ... : ... .. 8 ... ... : ... .. 8 ... ...
ROW 7F : ... .. A ... ... ... : ... .. A ... ... ... : E-2 00 . ... : ... .. A ... : ... .. . ... ... : ... .. 7 ... ... : ... .. 7 ... ... : ... .. . ... ...
ROW 80 : ... .. 8 ... ... ... : ... .. . ... ... ... : B-1 00 . ... : ... .. 8 ... : ... .. . ... ... : ... .. . ... ... : ... .. . ... ... : ... .. 4 ... ...
ROW 81 : ... .. 7 ... ... ... : ... .. . ... ... ... : ... .. . ... : ... .. 7 ... : ... .. . ... ... : ... .. 6 ... ... : ... .. 6 ... ... : ... .. . ... ...
ROW 82 : C-3 00 D ... ... ... : B-0 00 F ... ... ... : ... .. . ... : 1-# 00 F ... : ... .. . ... ... : ... .. 5 ... ... : ... .. 5 ... ... : B-0 01 F ... ...
ROW 83 : ... .. B ... ... ... : ... .. E ... ... ... : ... .. . ... : ... .. C ... : ... .. . ... ... : ... .. . ... ... : ... .. . ... ... : ... .. D ... ...
ROW 84 : ... .. . ... ... ... : ... .. D ... ... ... : ... .. . ... : ... .. 6 ... : ... .. . ... ... : ... .. 3 ... ... : ... .. 3 ... ... : ... .. 8 ... ...
ROW 85 : ... .. A ... ... ... : ... .. A ... ... ... : ... .. . ... : ... .. 3 ... : ... .. . ... ... : ... .. . ... ... : ... .. . ... ... : ... .. . ... ...
ROW 86 : ... .. 8 ... ... ... : ... .. 2 ... ... ... : ... .. . ... : ... .. 2 ... : ... .. . ... ... : ... .. . ... ... : ... .. . ... ... : ... .. 4 ... ...
ROW 87 : ... .. 7 ... ... ... : ... .. . ... ... ... : ... .. . ... : ... .. 0 ... : ... .. . ... ... : ... .. . ... ... : ... .. . ... ... : ... .. . ... ...
ROW 88 : B-2 00 D ... ... ... : C-3 00 4 ... ... ... : A#3 00 . ... : 4-# 00 D ... : ... .. . ... ... : E-2 01 A ... ... : ... .. A ... ... : B-1 01 F ... ...
ROW 89 : ... .. B ... ... ... : ... .. 3 ... ... ... : C-3 00 . ... : ... .. B ... : ... .. . ... ... : ... .. 9 ... ... : ... .. 9 ... ... : ... .. D ... ...
ROW 8A : ... .. . ... ... ... : C#3 00 3 ... ... ... : F-2 00 . ... : ... .. . ... : ... .. . ... ... : ... .. 8 ... ... : ... .. 8 ... ... : ... .. 8 ... ...
ROW 8B : ... .. A ... ... ... : D-3 00 5 ... ... ... : E-2 00 . ... : ... .. A ... : ... .. . ... ... : ... .. 7 ... ... : ... .. 7 ... ... : ... .. . ... ...
ROW 8C : ... .. 8 ... ... ... : ... .. 4 ... ... ... : B-1 00 . ... : ... .. 8 ... : ... .. . ... ... : ... .. . ... ... : ... .. . ... ... : ... .. 4 ... ...
ROW 8D : ... .. 7 ... ... ... : D#3 00 4 ... ... ... : ... .. . ... : ... .. 7 ... : ... .. . ... ... : ... .. 6 ... ... : ... .. 6 ... ... : ... .. . ... ...
ROW 8E : F#2 00 D ... ... ... : ... .. 7 ... ... ... : ... .. . ... : 1-# 00 F ... : ... .. . ... ... : ... .. 5 ... ... : ... .. 5 ... ... : B-0 01 F ... ...
ROW 8F : ... .. B ... ... ... : ... .. 6 ... ... ... : ... .. . ... : ... .. C ... : ... .. . ... ... : ... .. . ... ... : ... .. . ... ... : ... .. D ... ...
ROW 90 : ... .. . ... ... ... : E-3 00 6 ... ... ... : ... .. . ... : ... .. 6 ... : ... .. . ... ... : ... .. 3 ... ... : ... .. 3 ... ... : ... .. 8 ... ...
ROW 91 : ... .. A ... ... ... : F-3 00 8 ... ... ... : ... .. . ... : ... .. 3 ... : ... .. . ... ... : ... .. . ... ... : ... .. . ... ... : ... .. . ... ...
ROW 92 : ... .. 8 ... ... ... : ... .. 7 ... ... ... : ... .. . ... : ... .. 2 ... : ... .. . ... ... : ... .. . ... ... : ... .. . ... ... : ... .. 4 ... ...
ROW 93 : ... .. 7 ... ... ... : F#3 00 6 ... ... ... : ... .. . ... : ... .. 0 ... : ... .. . ... ... : ... .. . ... ... : ... .. . ... ... : ... .. . ... ...
ROW 94 : B-1 00 D ... ... ... : ... .. A ... ... ... : A#3 00 . ... : 4-# 00 D ... : ... .. . ... ... : D-2 01 A ... ... : ... .. A ... ... : B-1 01 F ... ...
ROW 95 : ... .. B ... ... ... : ... .. 9 ... ... ... : C-3 00 . ... : ... .. B ... : ... .. . ... ... : ... .. 9 ... ... : ... .. 9 ... ... : ... .. D ... ...
ROW 96 : ... .. . ... ... ... : G-3 00 8 ... ... ... : F-2 00 . ... : ... .. . ... : ... .. . ... ... : ... .. 8 ... ... : ... .. 8 ... ... : ... .. 8 ... ...
ROW 97 : ... .. A ... ... ... : ... .. B ... ... ... : E-2 00 . ... : ... .. A ... : ... .. . ... ... : ... .. 7 ... ... : ... .. 7 ... ... : ... .. . ... ...
ROW 98 : ... .. 8 ... ... ... : ... .. A ... ... ... : B-1 00 . ... : ... .. 8 ... : ... .. . ... ... : ... .. . ... ... : ... .. . ... ... : ... .. 4 ... ...
ROW 99 : ... .. 7 ... ... ... : G#3 00 9 ... ... ... : ... .. . ... : ... .. 7 ... : ... .. . ... ... : ... .. 6 ... ... : ... .. 6 ... ... : ... .. . ... ...
ROW 9A : A-1 00 D ... ... ... : A-3 00 D ... ... ... : ... .. . ... : 1-# 00 F ... : ... .. . ... ... : ... .. 5 ... ... : ... .. 5 ... ... : B-0 01 F ... ...
ROW 9B : ... .. B ... ... ... : ... .. C ... ... ... : ... .. . ... : ... .. C ... : ... .. . ... ... : ... .. . ... ... : ... .. . ... ... : ... .. D ... ...
ROW 9C : ... .. . ... ... ... : A#3 00 B ... ... ... : ... .. . ... : ... .. 6 ... : ... .. . ... ... : ... .. 3 ... ... : ... .. 3 ... ... : ... .. 8 ... ...
ROW 9D : ... .. A ... ... ... : B-3 00 F ... ... ... : ... .. . ... : ... .. 3 ... : ... .. . ... ... : ... .. . ... ... : ... .. . ... ... : ... .. . ... ...
ROW 9E : ... .. 8 ... ... ... : ... .. E ... ... ... : ... .. . ... : ... .. 2 ... : ... .. . ... ... : ... .. . ... ... : ... .. . ... ... : ... .. 4 ... ...
ROW 9F : ... .. 7 ... ... ... : C-4 00 D ... ... ... : ... .. . ... : ... .. 0 ... : ... .. . ... ... : ... .. . ... ... : ... .. . ... ... : ... .. . ... ...
ROW A0 : B-4 00 D P81 ... ... : B-4 00 9 ... ... ... : A#3 00 . ... : D-# 00 F ... : ... .. . ... ... : F#2 01 6 ... ... : B-3 01 A ... V00 : B-1 01 F ... ...
ROW A1 : ... .. B ... ... ... : ... .. 8 ... ... ... : C-3 00 . ... : ... .. . ... : ... .. . ... ... : ... .. . ... ... : ... .. 9 ... ... : ... .. D ... ...
ROW A2 : ... .. . ... ... ... : ... .. 7 ... ... ... : F-2 00 . ... : ... .. . ... : ... .. . ... ... : ... .. 5 ... ... : ... .. . ... ... : ... .. 8 ... ...
ROW A3 : ... .. 9 ... ... ... : ... .. 6 ... ... ... : E-2 00 . ... : C-# 00 D ... : ... .. . ... ... : ... .. 4 ... ... : ... .. 8 ... ... : ... .. . ... ...
ROW A4 : ... .. 7 ... ... ... : ... .. . ... ... ... : B-1 00 . ... : ... .. . ... : ... .. . ... ... : ... .. . ... ... : ... .. 7 ... ... : ... .. . ... ...
ROW A5 : ... .. 6 ... ... ... : ... .. . ... ... ... : ... .. . ... : ... .. . ... : ... .. . ... ... : ... .. . ... ... : ... .. . ... ... : ... .. . ... ...
ROW A6 : C-5 00 C ... ... ... : ... .. . ... ... ... : ... .. . ... : B-# 00 B ... : ... .. . ... ... : G-2 01 6 ... ... : ... .. 6 ... ... : ... .. . ... ...
ROW A7 : ... .. A ... ... ... : ... .. . ... ... ... : ... .. . ... : ... .. . ... : ... .. . ... ... : ... .. . ... ... : ... .. . ... ... : ... .. . ... ...
ROW A8 : ... .. . ... ... ... : ... .. . ... ... ... : ... .. . ... : ... .. . ... : ... .. . ... ... : ... .. 5 ... ... : ... .. . ... ... : ... .. . ... ...
ROW A9 : ... .. 9 ... ... ... : ... .. . ... ... ... : ... .. . ... : ... .. 9 ... : ... .. . ... ... : ... .. 4 ... ... : ... .. . ... ... : ... .. . ... ...
ROW AA : ... .. 7 ... ... ... : ... .. . ... ... ... : --- .. . ... : ... .. . ... : ... .. . ... ... : ... .. . ... ... : ... .. 3 ... ... : ... .. 4 ... ...
ROW AB : ... .. 6 ... ... ... : ... .. . ... ... ... : ... .. . ... : ... .. . ... : ... .. . ... ... : ... .. . ... ... : ... .. . ... ... : ... .. . ... ...
ROW AC : B-4 00 C ... ... ... : ... .. . P80 ... ... : B-1 00 . ... : ... .. 7 ... : ... .. . ... ... : A-2 01 6 ... ... : F-4 01 A ... ... : F-2 01 F ... ...
ROW AD : ... .. A ... ... ... : ... .. . ... ... ... : ... .. . ... : ... .. . ... : ... .. . ... ... : ... .. . ... ... : ... .. 9 ... ... : ... .. D ... ...
ROW AE : ... .. . ... ... ... : ... .. . ... ... ... : ... .. . ... : ... .. . ... : ... .. . ... ... : ... .. 5 ... ... : ... .. . ... ... : ... .. 8 ... ...
ROW AF : ... .. 8 ... ... ... : ... .. 7 ... ... ... : ... .. . ... : ... .. 5 ... : ... .. . ... ... : ... .. 4 ... ... : ... .. 8 ... ... : ... .. . ... ...
ROW B0 : ... .. 6 ... ... ... : ... .. . ... ... ... : --- .. . ... : ... .. . ... : ... .. . ... ... : ... .. . ... ... : ... .. 7 ... ... : ... .. . ... ...
ROW B1 : ... .. . ... ... ... : ... .. . ... ... ... : ... .. . ... : ... .. . ... : ... .. . ... ... : ... .. . ... ... : ... .. . ... ... : ... .. . ... ...
ROW B2 : F#4 00 B ... ... ... : ... .. . P81 ... ... : B-1 00 . ... : D-# 00 D ... : ... .. . ... ... : B-2 01 6 ... ... : ... .. 6 ... ... : ... .. . ... ...
ROW B3 : ... .. 9 ... ... ... : ... .. . ... ... ... : ... .. . ... : ... .. B ... : ... .. . ... ... : ... .. . ... ... : ... .. . ... ... : ... .. . ... ...
ROW B4 : ... .. . ... ... ... : ... .. . ... ... ... : ... .. . ... : ... .. . ... : ... .. . ... ... : ... .. 5 ... ... : ... .. . ... ... : ... .. . ... ...
ROW B5 : ... .. 8 ... ... ... : ... .. 8 P82 ... ... : ... .. . ... : ... .. A ... : ... .. . ... ... : ... .. 4 ... ... : ... .. . ... ... : ... .. . ... ...
ROW B6 : ... .. 6 ... ... ... : ... .. . ... ... ... : --- .. . ... : ... .. 8 ... : ... .. . ... ... : ... .. . ... ... : ... .. 3 ... ... : ... .. 4 ... ...
ROW B7 : ... .. . ... ... ... : ... .. . ... ... ... : ... .. . ... : ... .. 7 ... : ... .. . ... ... : ... .. . ... ... : ... .. . ... ... : ... .. . ... ...
ROW B8 : F-4 00 B ... ... ... : ... .. . ... ... ... : B-1 00 . ... : 1-# 00 F ... : ... .. . ... ... : C-3 01 6 ... ... : E-4 01 A ... ... : E-2 01 F ... ...
ROW B9 : ... .. 9 ... ... ... : ... .. . ... ... ... : ... .. . ... : ... .. C ... : ... .. . ... ... : ... .. . ... ... : ... .. 9 ... ... : ... .. D ... ...
ROW BA : ... .. . ... ... ... : ... .. . ... ... ... : ... .. . ... : ... .. 6 ... : ... .. . ... ... : ... .. 5 ... ... : ... .. . ... ... : ... .. 8 ... ...
ROW BB : ... .. 8 ... ... ... : ... .. . P83 ... ... : ... .. . ... : ... .. 3 ... : ... .. . ... ... : ... .. 4 ... ... : ... .. 8 ... ... : ... .. . ... ...
ROW BC : ... .. 6 ... ... ... : ... .. . ... ... ... : --- .. . ... : ... .. 2 ... : ... .. . ... ... : ... .. . ... ... : ... .. 7 ... ... : ... .. . ... ...
ROW BD : ... .. . ... ... ... : ... .. . ... ... ... : ... .. . ... : ... .. 0 ... : ... .. . ... ... : ... .. . ... ... : ... .. . ... ... : ... .. . ... ...
ROW BE : B-3 00 A ... ... ... : C-5 00 8 P7E ... ... : B-1 00 . ... : A-# 00 F ... : ... .. . ... ... : D-3 01 6 ... ... : ... .. 6 ... ... : ... .. . ... ...
ROW BF : ... .. 8 ... ... ... : ... .. . ... ... ... : ... .. . ... : ... .. C ... : ... .. . ... ... : ... .. . ... ... : ... .. . ... ... : ... .. . ... ...
ROW C0 : ... .. . ... ... ... : ... .. . ... ... ... : ... .. . ... : ... .. 6 ... : ... .. . ... ... : ... .. 5 ... ... : ... .. . ... ... : ... .. . ... ...
ROW C1 : ... .. . ... ... ... : ... .. 9 P7F ... ... : ... .. . ... : ... .. 3 ... : ... .. . ... ... : ... .. 4 ... ... : ... .. . ... ... : ... .. . ... ...
ROW C2 : ... .. 6 ... ... ... : ... .. . ... ... ... : --- .. . ... : ... .. 2 ... : ... .. . ... ... : ... .. . ... ... : ... .. 3 ... ... : ... .. 4 ... ...
ROW C3 : ... .. 5 ... ... ... : ... .. . ... ... ... : ... .. . ... : ... .. 0 ... : ... .. . ... ... : ... .. . ... ... : ... .. . ... ... : ... .. . ... ...
ROW C4 : A-3 00 A ... ... ... : ... .. . ... ... ... : B-1 00 . ... : 5-# 00 D ... : ... .. . ... ... : B-2 01 6 ... ... : D-4 01 A ... ... : D-2 01 F ... ...
ROW C5 : ... .. 8 ... ... ... : ... .. . ... ... ... : ... .. . ... : ... .. B ... : ... .. . ... ... : ... .. . ... ... : ... .. 9 ... ... : ... .. D ... ...
ROW C6 : ... .. . ... ... ... : ... .. . ... ... ... : ... .. . ... : ... .. . ... : ... .. . ... ... : ... .. 5 ... ... : ... .. . ... ... : ... .. 8 ... ...
ROW C7 : ... .. . ... ... ... : ... .. . P80 ... ... : ... .. . ... : ... .. A ... : ... .. . ... ... : ... .. 4 ... ... : ... .. 8 ... ... : ... .. . ... ...
ROW C8 : ... .. 6 ... ... ... : ... .. . ... ... ... : --- .. . ... : ... .. 8 ... : ... .. . ... ... : ... .. . ... ... : ... .. 7 ... ... : ... .. . ... ...
ROW C9 : ... .. 5 ... ... ... : ... .. . ... ... ... : ... .. . ... : ... .. 7 ... : ... .. . ... ... : ... .. . ... ... : ... .. . ... ... : ... .. . ... ...
ROW CA : B-3 00 A ... ... ... : ... .. A P81 ... ... : B-1 00 . ... : 0-# 00 F ... : ... .. . ... ... : C-3 01 6 ... ... : ... .. 6 ... ... : ... .. . ... ...
ROW CB : ... .. 8 ... ... ... : ... .. . ... ... ... : ... .. . ... : ... .. C ... : ... .. . ... ... : ... .. . ... ... : ... .. . ... ... : ... .. . ... ...
ROW CC : ... .. . ... ... ... : ... .. . ... ... ... : ... .. . ... : ... .. 6 ... : ... .. . ... ... : ... .. 5 ... ... : ... .. . ... ... : ... .. . ... ...
ROW CD : ... .. 7 ... ... ... : ... .. . P82 ... ... : ... .. . ... : ... .. 3 ... : ... .. . ... ... : ... .. 4 ... ... : ... .. . ... ... : ... .. . ... ...
ROW CE : ... .. 5 ... ... ... : ... .. . ... ... ... : --- .. . ... : ... .. 2 ... : ... .. . ... ... : ... .. . ... ... : ... .. 3 ... ... : ... .. 4 ... ...
ROW CF : ... .. . ... ... ... : ... .. . ... ... ... : ... .. . ... : ... .. 0 ... : ... .. . ... ... : ... .. . ... ... : ... .. . ... ... : ... .. . ... ...
ROW D0 : F-4 00 9 ... ... ... : ... .. . ... ... ... : B-1 00 . ... : D-# 00 F ... : ... .. . ... ... : D-3 01 6 ... ... : B-3 01 A ... ... : B-1 01 F ... ...
ROW D1 : ... .. 8 ... ... ... : ... .. . ... ... ... : ... .. . ... : ... .. C ... : ... .. . ... ... : ... .. . ... ... : ... .. 9 ... ... : ... .. D ... ...
ROW D2 : ... .. . ... ... ... : ... .. . ... ... ... : ... .. . ... : ... .. 0 ... : ... .. . ... ... : ... .. 5 ... ... : ... .. . ... ... : ... .. 8 ... ...
ROW D3 : ... .. 7 ... ... ... : ... .. . ... ... ... : ... .. . ... : ... .. F ... : ... .. . ... ... : ... .. 4 ... ... : ... .. 8 ... ... : ... .. . ... ...
ROW D4 : ... .. 5 ... ... ... : ... .. . ... ... ... : --- .. . ... : ... .. C ... : ... .. . ... ... : ... .. . ... ... : ... .. 7 ... ... : ... .. . ... ...
ROW D5 : ... .. . ... ... ... : ... .. . ... ... ... : ... .. . ... : ... .. 0 ... : ... .. . ... ... : ... .. . ... ... : ... .. . ... ... : ... .. . ... ...
ROW D6 : A-4 00 9 ... ... ... : C#5 00 A P80 ... ... : B-1 00 . ... : ... .. F ... : ... .. . ... ... : D#3 01 6 ... ... : ... .. 6 ... ... : ... .. . ... ...
ROW D7 : ... .. 8 ... ... ... : ... .. . P82 ... ... : ... .. . ... : ... .. C ... : ... .. . ... ... : ... .. . ... ... : ... .. . ... ... : ... .. . ... ...
ROW D8 : ... .. . ... ... ... : ... .. . P81 ... ... : ... .. . ... : ... .. 0 ... : ... .. . ... ... : ... .. 5 ... ... : ... .. . ... ... : ... .. . ... ...
ROW D9 : ... .. 7 ... ... ... : ... .. . P7E ... ... : ... .. . ... : ... .. . ... : ... .. . ... ... : ... .. 4 ... ... : ... .. . ... ... : ... .. . ... ...
ROW DA : ... .. 5 ... ... ... : C-5 00 A P80 ... ... : --- .. . ... : ... .. . ... : ... .. . ... ... : ... .. . ... ... : ... .. . ... ... : ... .. . ... ...
ROW DB : ... .. . ... ... ... : B-4 00 A P83 ... ... : ... .. . ... : ... .. . ... : ... .. . ... ... : ... .. . ... ... : ... .. . ... ... : ... .. . ... ...
ROW DC : B-4 00 8 ... ... ... : ... .. . P82 ... ... : B-1 00 . ... : 5-# 00 D ... : ... .. . ... ... : F-3 01 6 ... ... : ... .. . ... ... : ... .. . ... ...
ROW DD : ... .. 7 ... ... ... : C-5 00 A P7E ... ... : ... .. . ... : ... .. B ... : ... .. . ... ... : ... .. . ... ... : ... .. . ... ... : ... .. . ... ...
ROW DE : ... .. . ... ... ... : ... .. . P82 ... ... : ... .. . ... : ... .. . ... : ... .. . ... ... : ... .. 5 ... ... : ... .. . ... ... : ... .. . ... ...
ROW DF : ... .. 6 ... ... ... : C#5 00 A P7F ... ... : ... .. . ... : ... .. A ... : ... .. . ... ... : ... .. 4 ... ... : ... .. . ... ... : ... .. . ... ...
ROW E0 : ... .. 5 ... ... ... : ... .. . P82 ... ... : --- .. . ... : ... .. 8 ... : ... .. . ... ... : ... .. . ... ... : ... .. . ... ... : ... .. . ... ...
ROW E1 : ... .. 4 ... ... ... : ... .. . ... ... ... : ... .. . ... : ... .. 7 ... : ... .. . ... ... : ... .. . ... ... : ... .. . ... ... : ... .. . ... ...
ROW E2 : C-5 00 8 ... ... ... : ... .. . P7E ... ... : B-1 00 . ... : F-# 00 D ... : ... .. . ... ... : F#3 01 6 ... ... : ... .. . ... ... : ... .. . ... ...
ROW E3 : ... .. 7 ... ... ... : C-5 00 A P81 ... ... : ... .. . ... : ... .. B ... : ... .. . ... ... : ... .. . ... ... : ... .. . ... ... : ... .. . ... ...
ROW E4 : ... .. . ... ... ... : B-4 00 A P83 ... ... : ... .. . ... : ... .. . ... : ... .. . ... ... : ... .. 5 ... ... : ... .. . ... ... : ... .. . ... ...
ROW E5 : ... .. 6 ... ... ... : ... .. . P82 ... ... : ... .. . ... : ... .. A ... : ... .. . ... ... : ... .. 4 ... ... : ... .. . ... ... : ... .. . ... ...
ROW E6 : ... .. 5 ... ... ... : C-5 00 A P7E ... ... : --- .. . ... : ... .. 8 ... : ... .. . ... ... : ... .. . ... ... : ... .. 3 ... ... : ... .. 4 ... ...
ROW E7 : ... .. 4 ... ... ... : ... .. . P82 ... ... : ... .. . ... : ... .. 7 ... : ... .. . ... ... : ... .. . ... ... : ... .. . ... ... : ... .. . ... ...
ROW E8 : B-4 00 8 ... ... ... : C#5 00 A P7F ... ... : B-1 00 . ... : 1-# 00 F ... : ... .. . ... ... : F#2 01 6 ... ... : ... .. A ... ... : ... .. F ... ...
ROW E9 : ... .. 7 ... ... ... : ... .. . P82 ... ... : ... .. . ... : ... .. C ... : ... .. . ... ... : ... .. . ... ... : ... .. 9 ... ... : ... .. D ... ...
ROW EA : ... .. . ... ... ... : ... .. . ... ... ... : ... .. . ... : ... .. 6 ... : ... .. . ... ... : ... .. 5 ... ... : ... .. . ... ... : ... .. 8 ... ...
ROW EB : ... .. 6 ... ... ... : ... .. . P7F ... ... : ... .. . ... : ... .. 3 ... : ... .. . ... ... : ... .. 4 ... ... : ... .. 8 ... ... : ... .. . ... ...
ROW EC : ... .. 5 ... ... ... : C-5 00 A P82 ... ... : --- .. . ... : ... .. 2 ... : ... .. . ... ... : ... .. . ... ... : ... .. 7 ... ... : ... .. . ... ...
ROW ED : ... .. 4 ... ... ... : ... .. . P7E ... ... : ... .. . ... : ... .. 0 ... : ... .. . ... ... : ... .. . ... ... : ... .. . ... ... : ... .. . ... ...
ROW EE : C-5 00 8 ... ... ... : B-4 00 A P82 ... ... : B-1 00 . ... : D-# 00 F ... : ... .. . ... ... : G-2 01 6 ... ... : ... .. 6 ... ... : ... .. . ... ...
ROW EF : ... .. 7 ... ... ... : ... .. . P83 ... ... : ... .. . ... : ... .. C ... : ... .. . ... ... : ... .. . ... ... : ... .. . ... ... : ... .. . ... ...
ROW F0 : ... .. . ... ... ... : C-5 00 A P81 ... ... : ... .. . ... : ... .. 6 ... : ... .. . ... ... : ... .. 5 ... ... : ... .. . ... ... : ... .. . ... ...
ROW F1 : ... .. 6 ... ... ... : C#5 00 A P7E ... ... : ... .. . ... : ... .. 3 ... : ... .. . ... ... : ... .. 4 ... ... : ... .. . ... ... : ... .. . ... ...
ROW F2 : ... .. 5 ... ... ... : ... .. . P82 ... ... : --- .. . ... : ... .. 2 ... : ... .. . ... ... : ... .. . ... ... : ... .. 3 ... ... : ... .. 4 ... ...
ROW F3 : ... .. 4 ... ... ... : ... .. . ... ... ... : ... .. . ... : ... .. 0 ... : ... .. . ... ... : ... .. . ... ... : ... .. . ... ... : ... .. . ... ...
ROW F4 : B-4 00 8 ... ... ... : ... .. . P7F ... ... : B-1 00 . ... : ... .. F ... : ... .. . ... ... : A-2 01 6 ... ... : F-4 01 A ... ... : F-2 01 F ... ...
ROW F5 : ... .. 7 ... ... ... : C-5 00 A P82 ... ... : ... .. . ... : ... .. C ... : ... .. . ... ... : ... .. . ... ... : ... .. 9 ... ... : ... .. D ... ...
ROW F6 : ... .. . ... ... ... : ... .. . P7E ... ... : ... .. . ... : ... .. 6 ... : ... .. . ... ... : ... .. 5 ... ... : ... .. . ... ... : ... .. 8 ... ...
ROW F7 : ... .. 6 ... ... ... : B-4 00 A P82 ... ... : ... .. . ... : ... .. 3 ... : ... .. . ... ... : ... .. 4 ... ... : ... .. 8 ... ... : ... .. . ... ...
ROW F8 : ... .. 5 ... ... ... : ... .. . P83 ... ... : --- .. . ... : ... .. 2 ... : ... .. . ... ... : ... .. . ... ... : ... .. 7 ... ... : ... .. . ... ...
ROW F9 : ... .. 4 ... ... ... : C-5 00 A P80 ... ... : ... .. . ... : ... .. 0 ... : ... .. . ... ... : ... .. . ... ... : ... .. . ... ... : ... .. . ... ...
ROW FA : F#4 00 8 ... ... ... : C#5 00 A P7E ... ... : B-1 00 . ... : 5-# 00 D ... : ... .. . ... ... : B-2 01 6 ... ... : ... .. 6 ... ... : ... .. . ... ...
ROW FB : ... .. 7 ... ... ... : ... .. . P81 ... ... : ... .. . ... : ... .. B ... : ... .. . ... ... : ... .. . ... ... : ... .. . ... ... : ... .. . ... ...
ROW FC : ... .. . ... ... ... : ... .. . P82 ... ... : ... .. . ... : ... .. . ... : ... .. . ... ... : ... .. 5 ... ... : ... .. . ... ... : ... .. . ... ...
ROW FD : ... .. 6 ... ... ... : ... .. . P80 ... ... : ... .. . ... : ... .. A ... : ... .. . ... ... : ... .. 4 ... ... : ... .. . ... ... : ... .. . ... ...
ROW FE : ... .. 5 ... ... ... : C-5 00 A P82 ... ... : --- .. . ... : ... .. 8 ... : ... .. . ... ... : ... .. . ... ... : ... .. 3 ... ... : ... .. 4 ... ...
ROW FF : ... .. 4 ... ... ... : ... .. . P7F ... ... : ... .. . ... : ... .. 7 ... : ... .. . ... ... : ... .. . ... ... : ... .. . ... ... : ... .. . ... ...

PATTERN 06
ROW 00 : F-4 00 8 ... ... ... : B-4 00 A P82 ... ... : B-1 00 . ... : F-# 00 D ... : ... .. . ... ... : C-3 01 6 ... ... : E-4 01 A ... ... : E-2 01 F ... ...
ROW 01 : ... .. 7 ... ... ... : ... .. . ... ... ... : ... .. . ... : ... .. B ... : ... .. . ... ... : ... .. . ... ... : ... .. 9 ... ... : ... .. D ... ...
ROW 02 : ... .. . ... ... ... : C-5 00 A P80 ... ... : ... .. . ... : ... .. . ... : ... .. . ... ... : ... .. 5 ... ... : ... .. . ... ... : ... .. 8 ... ...
ROW 03 : ... .. 6 ... ... ... : ... .. 9 P83 ... ... : ... .. . ... : ... .. A ... : ... .. . ... ... : ... .. 4 ... ... : ... .. 8 ... ... : ... .. . ... ...
ROW 04 : ... .. 5 ... ... ... : C#5 00 9 P81 ... ... : --- .. . ... : ... .. 8 ... : ... .. . ... ... : ... .. . ... ... : ... .. 7 ... ... : ... .. . ... ...
ROW 05 : ... .. 4 ... ... ... : ... .. . P82 ... ... : ... .. . ... : ... .. 7 ... : ... .. . ... ... : ... .. . ... ... : ... .. . ... ... : ... .. . ... ...
ROW 06 : B-3 00 8 ... ... ... : ... .. . P80 ... ... : B-1 00 . ... : 1-# 00 F ... : ... .. . ... ... : D-3 01 6 ... ... : ... .. 6 ... ... : ... .. . ... ...
ROW 07 : ... .. 7 ... ... ... : C-5 00 9 P82 ... ... : ... .. . ... : ... .. C ... : ... .. . ... ... : ... .. . ... ... : ... .. . ... ... : ... .. . ... ...
ROW 08 : ... .. . ... ... ... : ... .. . P7F ... ... : ... .. . ... : ... .. 6 ... : ... .. . ... ... : ... .. 5 ... ... : ... .. . ... ... : ... .. . ... ...
ROW 09 : ... .. 6 ... ... ... : ... .. 8 P82 ... ... : ... .. . ... : ... .. 3 ... : ... .. . ... ... : ... .. 4 ... ... : ... .. . ... ... : ... .. . ... ...
ROW 0A : ... .. 5 ... ... ... : ... .. . ... ... ... : --- .. . ... : ... .. 2 ... : ... .. . ... ... : ... .. . ... ... : ... .. 3 ... ... : ... .. 4 ... ...
ROW 0B : ... .. 4 ... ... ... : ... .. . ... ... ... : ... .. . ... : ... .. 0 ... : ... .. . ... ... : ... .. . ... ... : ... .. . ... ... : ... .. . ... ...
ROW 0C : A-3 00 8 ... ... ... : B-4 00 D P80 ... ... : B-1 00 . ... : 5-# 00 D ... : ... .. . ... ... : B-2 01 6 ... ... : D-4 01 A ... ... : D-2 01 F ... ...
ROW 0D : ... .. 7 ... ... ... : ... .. C ... ... ... : ... .. . ... : ... .. B ... : ... .. . ... ... : ... .. . ... ... : ... .. 9 ... ... : ... .. D ... ...
ROW 0E : ... .. . ... ... ... : ... .. B ... ... ... : ... .. . ... : ... .. . ... : ... .. . ... ... : ... .. 5 ... ... : ... .. . ... ... : ... .. 8 ... ...
ROW 0F : ... .. 6 ... ... ... : ... .. 8 ... ... ... : ... .. . ... : ... .. A ... : ... .. . ... ... : ... .. 4 ... ... : ... .. 8 ... ... : ... .. . ... ...
ROW 10 : ... .. 5 ... ... ... : ... .. . ... ... ... : --- .. . ... : ... .. 8 ... : ... .. . ... ... : ... .. . ... ... : ... .. 7 ... ... : ... .. . ... ...
ROW 11 : ... .. 4 ... ... ... : ... .. . ... ... ... : ... .. . ... : ... .. 7 ... : ... .. . ... ... : ... .. . ... ... : ... .. . ... ... : ... .. . ... ...
ROW 12 : B-3 00 8 ... ... ... : ... .. 9 ... ... ... : B-1 00 . ... : A-# 00 F ... : ... .. . ... ... : C-3 01 6 ... ... : ... .. 6 ... ... : ... .. . ... ...
ROW 13 : ... .. 7 ... ... ... : ... .. . ... ... ... : ... .. . ... : ... .. C ... : ... .. . ... ... : ... .. . ... ... : ... .. . ... ... : ... .. . ... ...
ROW 14 : ... .. . ... ... ... : ... .. . ... ... ... : ... .. . ... : ... .. 6 ... : ... .. . ... ... : ... .. 5 ... ... : ... .. . ... ... : ... .. . ... ...
ROW 15 : ... .. 6 ... ... ... : ... .. . ... ... ... : ... .. . ... : ... .. 3 ... : ... .. . ... ... : ... .. 4 ... ... : ... .. . ... ... : ... .. . ... ...
ROW 16 : ... .. 5 ... ... ... : ... .. . ... ... ... : --- .. . ... : ... .. 2 ... : ... .. . ... ... : ... .. . ... ... : ... .. 3 ... ... : ... .. 4 ... ...
ROW 17 : ... .. 4 ... ... ... : ... .. . ... ... ... : ... .. . ... : ... .. 0 ... : ... .. . ... ... : ... .. . ... ... : ... .. . ... ... : ... .. . ... ...
ROW 18 : F-4 00 8 ... ... ... : ... .. A ... ... ... : B-1 00 . ... : ... .. F ... : ... .. . ... ... : D-3 01 6 ... ... : F-6 01 A ... ... : F-4 01 F ... ...
ROW 19 : ... .. 7 ... ... ... : ... .. . ... ... ... : ... .. . ... : ... .. C ... : ... .. . ... ... : ... .. . ... ... : ... .. 9 ... ... : ... .. D ... ...
ROW 1A : ... .. . ... ... ... : ... .. . ... ... ... : ... .. . ... : ... .. 6 ... : ... .. . ... ... : ... .. 5 ... ... : ... .. . ... ... : ... .. 8 ... ...
ROW 1B : ... .. 6 ... ... ... : ... .. . ... ... ... : ... .. . ... : ... .. 3 ... : ... .. . ... ... : ... .. 4 ... ... : ... .. 6 ... ... : ... .. . ... ...
ROW 1C : ... .. 5 ... ... ... : ... .. . ... ... ... : --- .. . ... : ... .. 2 ... : ... .. . ... ... : ... .. . ... ... : ... .. 3 ... ... : ... .. 4 ... ...
ROW 1D : ... .. 4 ... ... ... : ... .. . ... ... ... : ... .. . ... : ... .. 0 ... : ... .. . ... ... : ... .. . ... ... : ... .. . ... ... : ... .. . ... ...
ROW 1E : A-4 00 8 ... ... ... : ... .. . ... ... ... : B-1 00 . ... : 9-# 00 D ... : ... .. . ... ... : D#3 01 6 ... ... : B-6 01 A ... ... : B-4 01 F ... ...
ROW 1F : ... .. 7 ... ... ... : ... .. . ... ... ... : ... .. . ... : ... .. B ... : ... .. . ... ... : ... .. . ... ... : ... .. 9 ... ... : ... .. D ... ...
ROW 20 : ... .. . ... ... ... : ... .. . ... ... ... : ... .. . ... : ... .. . ... : ... .. . ... ... : ... .. 5 ... ... : ... .. . ... ... : ... .. 8 ... ...
ROW 21 : ... .. 6 ... ... ... : ... .. . ... ... ... : ... .. . ... : ... .. A ... : ... .. . ... ... : ... .. 4 ... ... : ... .. 6 ... ... : ... .. . ... ...
ROW 22 : ... .. 5 ... ... ... : ... .. . ... ... ... : --- .. . ... : ... .. 8 ... : ... .. . ... ... : ... .. . ... ... : ... .. 3 ... ... : ... .. 4 ... ...
ROW 23 : ... .. 4 ... ... ... : ... .. . ... ... ... : ... .. . ... : ... .. 7 ... : ... .. . ... ... : ... .. . ... ... : ... .. . ... ... : ... .. . ... ...
ROW 24 : B-4 00 8 ... ... ... : ... .. . ... ... ... : B-1 00 . ... : 6-# 00 D ... : ... .. . ... ... : F-3 01 6 ... ... : B-5 01 A ... ... : B-3 01 F ... ...
ROW 25 : ... .. 7 ... ... ... : ... .. . ... ... ... : ... .. . ... : ... .. B ... : ... .. . ... ... : ... .. . ... ... : ... .. 9 ... ... : ... .. D ... ...
ROW 26 : ... .. . ... ... ... : ... .. . ... ... ... : ... .. . ... : ... .. . ... : ... .. . ... ... : ... .. 5 ... ... : ... .. . ... ... : ... .. 8 ... ...
ROW 27 : ... .. 6 ... ... ... : ... .. . ... ... ... : ... .. . ... : ... .. A ... : ... .. . ... ... : ... .. 4 ... ... : ... .. 6 ... ... : ... .. . ... ...
ROW 28 : ... .. 5 ... ... ... : ... .. . ... ... ... : --- .. . ... : ... .. 8 ... : ... .. . ... ... : ... .. . ... ... : ... .. 3 ... ... : ... .. 4 ... ...
ROW 29 : ... .. 4 ... ... ... : ... .. . ... ... ... : ... .. . ... : ... .. 7 ... : ... .. . ... ... : ... .. . ... ... : ... .. . ... ... : ... .. . ... ...
ROW 2A : C-5 00 8 ... ... ... : ... .. . ... ... ... : B-1 00 . ... : ... .. D ... : ... .. . ... ... : F#3 01 6 ... ... : B-4 01 A ... ... : B-2 01 F ... ...
ROW 2B : ... .. 7 ... ... ... : ... .. . ... ... ... : ... .. . ... : ... .. B ... : ... .. . ... ... : ... .. . ... ... : ... .. 9 ... ... : ... .. D ... ...
ROW 2C : ... .. . ... ... ... : ... .. . ... ... ... : ... .. . ... : ... .. . ... : ... .. . ... ... : ... .. 5 ... ... : ... .. . ... ... : ... .. 8 ... ...
ROW 2D : ... .. 6 ... ... ... : ... .. . ... ... ... : ... .. . ... : ... .. A ... : ... .. . ... ... : ... .. 4 ... ... : ... .. 6 ... ... : ... .. . ... ...
ROW 2E : ... .. 5 ... ... ... : ... .. . ... ... ... : --- .. . ... : ... .. 8 ... : ... .. . ... ... : ... .. . ... ... : ... .. 3 ... ... : ... .. 4 ... ...
ROW 2F : ... .. 4 ... ... ... : ... .. . ... ... ... : ... .. . ... : ... .. 7 ... : ... .. . ... ... : ... .. . ... ... : ... .. . ... ... : ... .. . ... ...
ROW 30 : B-4 00 8 ... ... ... : F-5 00 F ... ... ... : B-1 00 . ... : 1-# 00 F ... : ... .. . ... ... : F#2 01 6 ... ... : B-3 01 A ... ... : B-1 01 F ... ...
ROW 31 : ... .. 7 ... ... ... : ... .. E ... ... ... : ... .. . ... : ... .. C ... : ... .. . ... ... : ... .. . ... ... : ... .. 9 ... ... : ... .. D ... ...
ROW 32 : ... .. . ... ... ... : ... .. D ... ... ... : ... .. . ... : ... .. 6 ... : ... .. . ... ... : ... .. 5 ... ... : ... .. . ... ... : ... .. 8 ... ...
ROW 33 : ... .. 6 ... ... ... : ... .. A ... ... ... : ... .. . ... : ... .. 3 ... : ... .. . ... ... : ... .. 4 ... ... : ... .. 8 ... ... : ... .. . ... ...
ROW 34 : ... .. 5 ... ... ... : ... .. . ... ... ... : --- .. . ... : ... .. 2 ... : ... .. . ... ... : ... .. . ... ... : ... .. 7 ... ... : ... .. . ... ...
ROW 35 : ... .. 4 ... ... ... : ... .. . ... ... ... : ... .. . ... : ... .. 0 ... : ... .. . ... ... : ... .. . ... ... : ... .. . ... ... : ... .. . ... ...
ROW 36 : C-5 00 8 ... ... ... : ... .. . ... ... ... : B-1 00 . ... : ... .. F ... : ... .. . ... ... : G-2 01 6 ... ... : ... .. 6 ... ... : ... .. . ... ...
ROW 37 : ... .. 7 ... ... ... : ... .. . ... ... ... : ... .. . ... : ... .. C ... : ... .. . ... ... : ... .. . ... ... : ... .. . ... ... : ... .. . ... ...
ROW 38 : ... .. . ... ... ... : ... .. . ... ... ... : ... .. . ... : ... .. 6 ... : ... .. . ... ... : ... .. 5 ... ... : ... .. . ... ... : ... .. . ... ...
ROW 39 : ... .. 6 ... ... ... : ... .. . ... ... ... : ... .. . ... : ... .. 3 ... : ... .. . ... ... : ... .. 4 ... ... : ... .. . ... ... : ... .. . ... ...
ROW 3A : ... .. 5 ... ... ... : ... .. . ... ... ... : --- .. . ... : ... .. 2 ... : ... .. . ... ... : ... .. . ... ... : ... .. 3 ... ... : ... .. 4 ... ...
ROW 3B : ... .. 4 ... ... ... : ... .. . ... ... ... : ... .. . ... : ... .. 0 ... : ... .. . ... ... : ... .. . ... ... : ... .. . ... ... : ... .. . ... ...
ROW 3C : B-4 00 8 ... ... ... : ... .. 9 ... ... ... : B-1 00 . ... : D-# 00 F ... : ... .. . ... ... : A-2 01 6 ... ... : F-4 01 A ... ... : F-2 01 F ... ...
ROW 3D : ... .. 7 ... ... ... : ... .. . ... ... ... : ... .. . ... : ... .. C ... : ... .. . ... ... : ... .. . ... ... : ... .. 9 ... ... : ... .. D ... ...
ROW 3E : ... .. . ... ... ... : ... .. . ... ... ... : ... .. . ... : ... .. 6 ... : ... .. . ... ... : ... .. 5 ... ... : ... .. . ... ... : ... .. 8 ... ...
ROW 3F : ... .. 6 ... ... ... : ... .. 8 ... ... ... : ... .. . ... : ... .. 3 ... : ... .. . ... ... : ... .. 4 ... ... : ... .. 8 ... ... : ... .. . ... ...
ROW 40 : ... .. 5 ... ... ... : ... .. . ... ... ... : --- .. . ... : ... .. 2 ... : ... .. . ... ... : ... .. . ... ... : ... .. 7 ... ... : ... .. . ... ...
ROW 41 : ... .. 4 ... ... ... : ... .. . ... ... ... : ... .. . ... : ... .. 0 ... : ... .. . ... ... : ... .. . ... ... : ... .. . ... ... : ... .. . ... ...
ROW 42 : F#4 00 8 ... ... ... : ... .. 7 ... ... ... : B-1 00 . ... : ... .. F ... : ... .. . ... ... : B-2 01 6 ... ... : ... .. 6 ... ... : ... .. . ... ...
ROW 43 : ... .. 7 ... ... ... : ... .. . ... ... ... : ... .. . ... : ... .. C ... : ... .. . ... ... : ... .. . ... ... : ... .. . ... ... : ... .. . ... ...
ROW 44 : ... .. . ... ... ... : ... .. . ... ... ... : ... .. . ... : ... .. 6 ... : ... .. . ... ... : ... .. 5 ... ... : ... .. . ... ... : ... .. . ... ...
ROW 45 : ... .. 6 ... ... ... : ... .. . ... ... ... : ... .. . ... : ... .. 3 ... : ... .. . ... ... : ... .. 4 ... ... : ... .. . ... ... : ... .. . ... ...
ROW 46 : ... .. 5 ... ... ... : ... .. . ... ... ... : --- .. . ... : ... .. 2 ... : ... .. . ... ... : ... .. . ... ... : ... .. 3 ... ... : ... .. 4 ... ...
ROW 47 : ... .. 4 ... ... ... : ... .. . ... ... ... : ... .. . ... : ... .. 0 ... : ... .. . ... ... : ... .. . ... ... : ... .. . ... ... : ... .. . ... ...
ROW 48 : F-4 00 8 ... ... ... : ... .. . ... ... ... : B-1 00 . ... : 6-# 00 F ... : ... .. . ... ... : C-3 01 6 ... ... : E-4 01 A ... ... : E-2 01 F ... ...
ROW 49 : ... .. 7 ... ... ... : ... .. . ... ... ... : ... .. . ... : ... .. C ... : ... .. . ... ... : ... .. . ... ... : ... .. 9 ... ... : ... .. D ... ...
ROW 4A : ... .. . ... ... ... : ... .. . ... ... ... : ... .. . ... : ... .. 6 ... : ... .. . ... ... : ... .. 5 ... ... : ... .. . ... ... : ... .. 8 ... ...
ROW 4B : ... .. 6 ... ... ... : ... .. 8 ... ... ... : ... .. . ... : ... .. 3 ... : ... .. . ... ... : ... .. 4 ... ... : ... .. 8 ... ... : ... .. . ... ...
ROW 4C : ... .. 5 ... ... ... : ... .. . ... ... ... : --- .. . ... : ... .. 2 ... : ... .. . ... ... : ... .. . ... ... : ... .. 7 ... ... : ... .. . ... ...
ROW 4D : ... .. 4 ... ... ... : ... .. . ... ... ... : ... .. . ... : ... .. 0 ... : ... .. . ... ... : ... .. . ... ... : ... .. . ... ... : ... .. . ... ...
ROW 4E : B-3 00 8 ... ... ... : ... .. . ... ... ... : B-1 00 . ... : F-# 00 D ... : ... .. . ... ... : D-3 01 6 ... ... : ... .. 6 ... ... : ... .. . ... ...
ROW 4F : ... .. 7 ... ... ... : ... .. . ... ... ... : ... .. . ... : ... .. B ... : ... .. . ... ... : ... .. . ... ... : ... .. . ... ... : ... .. . ... ...
ROW 50 : ... .. . ... ... ... : ... .. . ... ... ... : ... .. . ... : ... .. . ... : ... .. . ... ... : ... .. 5 ... ... : ... .. . ... ... : ... .. . ... ...
ROW 51 : ... .. 6 ... ... ... : ... .. . ... ... ... : ... .. . ... : ... .. A ... : ... .. . ... ... : ... .. 4 ... ... : ... .. . ... ... : ... .. . ... ...
ROW 52 : ... .. 5 ... ... ... : ... .. . ... ... ... : --- .. . ... : ... .. 8 ... : ... .. . ... ... : ... .. . ... ... : ... .. 3 ... ... : ... .. 4 ... ...
ROW 53 : ... .. 4 ... ... ... : ... .. . ... ... ... : ... .. . ... : ... .. 7 ... : ... .. . ... ... : ... .. . ... ... : ... .. . ... ... : ... .. . ... ...
ROW 54 : A-3 00 8 ... ... ... : F#5 00 8 ... ... ... : B-1 00 . ... : 5-# 00 D ... : ... .. . ... ... : B-2 01 6 ... ... : D-4 01 A ... ... : D-2 01 F ... ...
ROW 55 : ... .. 7 ... ... ... : ... .. . P82 ... ... : ... .. . ... : ... .. B ... : ... .. . ... ... : ... .. . ... ... : ... .. 9 ... ... : ... .. D ... ...
ROW 56 : ... .. . ... ... ... : ... .. . P81 ... ... : ... .. . ... : ... .. . ... : ... .. . ... ... : ... .. 5 ... ... : ... .. . ... ... : ... .. 8 ... ...
ROW 57 : ... .. 6 ... ... ... : F-5 00 8 P82 ... ... : ... .. . ... : ... .. A ... : ... .. . ... ... : ... .. 4 ... ... : ... .. 8 ... ... : ... .. . ... ...
ROW 58 : ... .. 5 ... ... ... : ... .. . P7E ... ... : --- .. . ... : ... .. 8 ... : ... .. . ... ... : ... .. . ... ... : ... .. 7 ... ... : ... .. . ... ...
ROW 59 : ... .. 4 ... ... ... : E-5 00 8 P80 ... ... : ... .. . ... : ... .. 7 ... : ... .. . ... ... : ... .. . ... ... : ... .. . ... ... : ... .. . ... ...
ROW 5A : B-3 00 8 ... ... ... : ... .. 9 P7F ... ... : B-1 00 . ... : 0-# 00 F ... : ... .. . ... ... : C-3 01 6 ... ... : ... .. 6 ... ... : ... .. . ... ...
ROW 5B : ... .. 7 ... ... ... : ... .. . P81 ... ... : ... .. . ... : ... .. C ... : ... .. . ... ... : ... .. . ... ... : ... .. . ... ... : ... .. . ... ...
ROW 5C : ... .. . ... ... ... : F-5 00 9 P80 ... ... : ... .. . ... : ... .. 6 ... : ... .. . ... ... : ... .. 5 ... ... : ... .. . ... ... : ... .. . ... ...
ROW 5D : ... .. 6 ... ... ... : F#5 00 9 P7F ... ... : ... .. . ... : ... .. 3 ... : ... .. . ... ... : ... .. 4 ... ... : ... .. . ... ... : ... .. . ... ...
ROW 5E : ... .. 5 ... ... ... : ... .. . P82 ... ... : --- .. . ... : ... .. 2 ... : ... .. . ... ... : ... .. . ... ... : ... .. 3 ... ... : ... .. 4 ... ...
ROW 5F : ... .. 4 ... ... ... : ... .. . ... ... ... : ... .. . ... : ... .. 0 ... : ... .. . ... ... : ... .. . ... ... : ... .. . ... ... : ... .. . ... ...
ROW 60 : F-4 00 8 ... ... ... : F-5 00 9 ... ... ... : B-1 00 . ... : C-# 00 F ... : ... .. . ... ... : D-3 01 6 ... ... : B-3 01 A ... ... : B-1 01 F ... ...
ROW 61 : ... .. 7 ... ... ... : ... .. . P7F ... ... : ... .. . ... : ... .. C ... : ... .. . ... ... : ... .. . ... ... : ... .. 9 ... ... : ... .. D ... ...
ROW 62 : ... .. . ... ... ... : E-5 00 9 P80 ... ... : ... .. . ... : ... .. 6 ... : ... .. . ... ... : ... .. 5 ... ... : ... .. . ... ... : ... .. 8 ... ...
ROW 63 : ... .. 6 ... ... ... : ... .. A P7F ... ... : ... .. . ... : ... .. 3 ... : ... .. . ... ... : ... .. 4 ... ... : ... .. 8 ... ... : ... .. . ... ...
ROW 64 : ... .. 5 ... ... ... : ... .. . P81 ... ... : --- .. . ... : ... .. 2 ... : ... .. . ... ... : ... .. . ... ... : ... .. 7 ... ... : ... .. . ... ...
ROW 65 : ... .. 4 ... ... ... : F-5 00 A P80 ... ... : ... .. . ... : ... .. 0 ... : ... .. . ... ... : ... .. . ... ... : ... .. . ... ... : ... .. . ... ...
ROW 66 : A-4 00 8 ... ... ... : F#5 00 A P7F ... ... : B-1 00 . ... : E-# 00 F ... : ... .. . ... ... : D#3 01 6 ... ... : ... .. 6 ... ... : ... .. . ... ...
ROW 67 : ... .. 7 ... ... ... : ... .. . P82 ... ... : ... .. . ... : ... .. C ... : ... .. . ... ... : ... .. . ... ... : ... .. . ... ... : ... .. . ... ...
ROW 68 : ... .. . ... ... ... : ... .. . ... ... ... : ... .. . ... : ... .. 6 ... : ... .. . ... ... : ... .. 5 ... ... : ... .. . ... ... : ... .. . ... ...
ROW 69 : ... .. 6 ... ... ... : ... .. . P7F ... ... : ... .. . ... : ... .. 3 ... : ... .. . ... ... : ... .. 4 ... ... : ... .. . ... ... : ... .. . ... ...
ROW 6A : ... .. 5 ... ... ... : F-5 00 A P80 ... ... : --- .. . ... : ... .. 2 ... : ... .. . ... ... : ... .. . ... ... : ... .. . ... ... : ... .. . ... ...
ROW 6B : ... .. 4 ... ... ... : E-5 00 A P81 ... ... : ... .. . ... : ... .. 0 ... : ... .. . ... ... : ... .. . ... ... : ... .. . ... ... : ... .. . ... ...
ROW 6C : B-4 00 8 ... ... ... : ... .. . P7F ... ... : B-1 00 . ... : 8-# 00 F ... : ... .. . ... ... : F-3 01 6 ... ... : ... .. . ... ... : ... .. . ... ...
ROW 6D : ... .. 7 ... ... ... : ... .. . P80 ... ... : ... .. . ... : ... .. C ... : ... .. . ... ... : ... .. . ... ... : ... .. . ... ... : ... .. . ... ...
ROW 6E : ... .. . ... ... ... : F-5 00 A P7F ... ... : ... .. . ... : ... .. 6 ... : ... .. . ... ... : ... .. 5 ... ... : ... .. . ... ... : ... .. . ... ...
ROW 6F : ... .. 6 ... ... ... : ... .. . P82 ... ... : ... .. . ... : ... .. 3 ... : ... .. . ... ... : ... .. 4 ... ... : ... .. . ... ... : ... .. . ... ...
ROW 70 : ... .. 5 ... ... ... : F#5 00 A ... ... ... : --- .. . ... : ... .. 2 ... : ... .. . ... ... : ... .. . ... ... : ... .. . ... ... : ... .. . ... ...
ROW 71 : ... .. 4 ... ... ... : ... .. . ... ... ... : ... .. . ... : ... .. 0 ... : ... .. . ... ... : ... .. . ... ... : ... .. . ... ... : ... .. . ... ...
ROW 72 : C-5 00 8 ... ... ... : ... .. . P7F ... ... : B-1 00 . ... : ... .. F ... : ... .. . ... ... : F#3 01 6 ... ... : ... .. . ... ... : ... .. . ... ...
ROW 73 : ... .. 7 ... ... ... : F-5 00 2 P80 ... ... : ... .. . ... : ... .. C ... : ... .. . ... ... : ... .. . ... ... : ... .. . ... ... : ... .. . ... ...
ROW 74 : ... .. . ... ... ... : E-5 00 2 P81 ... ... : ... .. . ... : ... .. 6 ... : ... .. . ... ... : ... .. 5 ... ... : ... .. . ... ... : ... .. . ... ...
ROW 75 : ... .. 6 ... ... ... : ... .. . P7F ... ... : ... .. . ... : ... .. 3 ... : ... .. . ... ... : ... .. 4 ... ... : ... .. . ... ... : ... .. . ... ...
ROW 76 : ... .. 5 ... ... ... : ... .. 1 P80 ... ... : --- .. . ... : ... .. 2 ... : ... .. . ... ... : ... .. . ... ... : ... .. 3 ... ... : ... .. 4 ... ...
ROW 77 : ... .. 4 ... ... ... : F-5 00 1 P7E ... ... : ... .. . ... : ... .. 0 ... : ... .. . ... ... : ... .. . ... ... : ... .. . ... ... : ... .. . ... ...
ROW 78 : F-4 00 A ... ... ... : F-6 00 F P80 ... ... : C#5 00 . ... : 5-# 00 D ... : ... .. . ... ... : F#2 01 6 ... ... : D-4 01 A ... ... : D-2 01 F ... ...
ROW 79 : ... .. 9 ... ... ... : ... .. E ... ... ... : D#4 00 . ... : ... .. B ... : ... .. . ... ... : ... .. . ... ... : ... .. 9 ... ... : ... .. D ... ...
ROW 7A : ... .. 8 ... ... ... : ... .. D ... ... ... : G#3 00 . ... : ... .. . ... : ... .. . ... ... : ... .. 5 ... ... : ... .. . ... ... : ... .. 8 ... ...
ROW 7B : ... .. 6 ... ... ... : ... .. A ... ... ... : G-3 00 . ... : ... .. A ... : ... .. . ... ... : ... .. 4 ... ... : --- .. . ... ... : --- .. . ... ...
ROW 7C : ... .. 1 ... ... ... : ... .. 2 ... ... ... : D-3 00 . ... : ... .. 8 ... : ... .. . ... ... : ... .. . ... ... : ... .. . ... ... : ... .. . ... ...
ROW 7D : ... .. . ... ... ... : ... .. . ... ... ... : ... .. . ... : ... .. 7 ... : ... .. . ... ... : ... .. . ... ... : ... .. . ... ... : ... .. . ... ...
ROW 7E : D-4 00 A ... ... ... : D-5 00 F ... ... ... : D-2 00 . ... : 1-# 00 F ... : ... .. . ... ... : G-2 01 6 ... ... : D-4 01 A ... ... : D-2 01 F ... ...
ROW 7F : ... .. 9 ... ... ... : ... .. E ... ... ... : ... .. . ... : ... .. C ... : ... .. . ... ... : ... .. . ... ... : ... .. 9 ... ... : ... .. D ... ...
ROW 80 : ... .. 8 ... ... ... : ... .. D ... ... ... : ... .. . ... : ... .. 6 ... : ... .. . ... ... : ... .. 5 ... ... : ... .. . ... ... : ... .. 8 ... ...
ROW 81 : ... .. 6 ... ... ... : ... .. A ... ... ... : ... .. . ... : ... .. 3 ... : ... .. . ... ... : ... .. 4 ... ... : ... .. 8 ... ... : ... .. . ... ...
ROW 82 : ... .. 1 ... ... ... : ... .. 2 ... ... ... : --- .. . ... : ... .. 2 ... : ... .. . ... ... : ... .. . ... ... : ... .. 7 ... ... : ... .. . ... ...
ROW 83 : ... .. . ... ... ... : ... .. . ... ... ... : ... .. . ... : ... .. 0 ... : ... .. . ... ... : ... .. . ... ... : ... .. . ... ... : ... .. . ... ...
ROW 84 : A-3 00 A ... ... ... : A-4 00 F ... ... ... : D-2 00 . ... : ... .. F ... : ... .. . ... ... : A-2 01 6 ... ... : --- .. . ... ... : --- .. . ... ...
ROW 85 : ... .. 9 ... ... ... : ... .. E ... ... ... : ... .. . ... : ... .. C ... : ... .. . ... ... : ... .. . ... ... : ... .. . ... ... : ... .. . ... ...
ROW 86 : ... .. 8 ... ... ... : ... .. D ... ... ... : ... .. . ... : ... .. 6 ... : ... .. . ... ... : ... .. 5 ... ... : ... .. . ... ... : ... .. . ... ...
ROW 87 : ... .. 6 ... ... ... : ... .. A ... ... ... : ... .. . ... : ... .. 3 ... : ... .. . ... ... : ... .. 4 ... ... : ... .. . ... ... : ... .. . ... ...
ROW 88 : ... .. 1 ... ... ... : ... .. 2 ... ... ... : --- .. . ... : ... .. 2 ... : ... .. . ... ... : ... .. . ... ... : ... .. . ... ... : ... .. . ... ...
ROW 89 : ... .. . ... ... ... : ... .. . ... ... ... : ... .. . ... : ... .. 0 ... : ... .. . ... ... : ... .. . ... ... : ... .. . ... ... : ... .. . ... ...
ROW 8A : F-3 00 A ... ... ... : F-4 00 F ... ... ... : C#5 00 . ... : 5-# 00 D ... : ... .. . ... ... : B-2 01 6 ... ... : D-4 01 A ... ... : D-2 01 F ... ...
ROW 8B : ... .. 9 ... ... ... : ... .. E ... ... ... : D#4 00 . ... : ... .. B ... : ... .. . ... ... : ... .. . ... ... : ... .. 9 ... ... : ... .. D ... ...
ROW 8C : ... .. 8 ... ... ... : ... .. D ... ... ... : G#3 00 . ... : ... .. . ... : ... .. . ... ... : ... .. 5 ... ... : ... .. . ... ... : ... .. 8 ... ...
ROW 8D : ... .. 6 ... ... ... : ... .. A ... ... ... : G-3 00 . ... : ... .. A ... : ... .. . ... ... : ... .. 4 ... ... : --- .. . ... ... : --- .. . ... ...
ROW 8E : ... .. 1 ... ... ... : ... .. 2 ... ... ... : D-3 00 . ... : ... .. 8 ... : ... .. . ... ... : ... .. . ... ... : ... .. . ... ... : ... .. . ... ...
ROW 8F : ... .. . ... ... ... : ... .. . ... ... ... : ... .. . ... : ... .. 7 ... : ... .. . ... ... : ... .. . ... ... : ... .. . ... ... : ... .. . ... ...
ROW 90 : D-3 00 A ... ... ... : D-4 00 F ... ... ... : D-2 00 . ... : 1-# 00 F ... : ... .. . ... ... : C-3 01 6 ... ... : D-4 01 A ... ... : D-2 01 F ... ...
ROW 91 : ... .. 9 ... ... ... : ... .. E ... ... ... : ... .. . ... : ... .. C ... : ... .. . ... ... : ... .. . ... ... : ... .. 9 ... ... : ... .. D ... ...
ROW 92 : ... .. 8 ... ... ... : ... .. D ... ... ... : ... .. . ... : ... .. 6 ... : ... .. . ... ... : ... .. 5 ... ... : ... .. . ... ... : ... .. 8 ... ...
ROW 93 : ... .. 6 ... ... ... : ... .. A ... ... ... : ... .. . ... : ... .. 3 ... : ... .. . ... ... : ... .. 4 ... ... : ... .. 8 ... ... : ... .. . ... ...
ROW 94 : ... .. 1 ... ... ... : ... .. 2 ... ... ... : --- .. . ... : ... .. 2 ... : ... .. . ... ... : ... .. . ... ... : ... .. 7 ... ... : ... .. . ... ...
ROW 95 : ... .. . ... ... ... : ... .. . ... ... ... : ... .. . ... : ... .. 0 ... : ... .. . ... ... : ... .. . ... ... : ... .. . ... ... : ... .. . ... ...
ROW 96 : A-2 00 A ... ... ... : A-3 00 F ... ... ... : D-2 00 . ... : ... .. F ... : ... .. . ... ... : D-3 01 6 ... ... : --- .. . ... ... : --- .. . ... ...
ROW 97 : ... .. 9 ... ... ... : ... .. E ... ... ... : ... .. . ... : ... .. C ... : ... .. . ... ... : ... .. . ... ... : ... .. . ... ... : ... .. . ... ...
ROW 98 : ... .. 8 ... ... ... : ... .. D ... ... ... : ... .. . ... : ... .. 6 ... : ... .. . ... ... : ... .. 5 ... ... : ... .. . ... ... : ... .. . ... ...
ROW 99 : ... .. 6 ... ... ... : ... .. A ... ... ... : ... .. . ... : ... .. 3 ... : ... .. . ... ... : ... .. 4 ... ... : ... .. . ... ... : ... .. . ... ...
ROW 9A : ... .. 1 ... ... ... : ... .. 2 ... ... ... : --- .. . ... : ... .. 2 ... : ... .. . ... ... : ... .. . ... ... : ... .. . ... ... : ... .. . ... ...
ROW 9B : ... .. . ... ... ... : ... .. . ... ... ... : ... .. . ... : ... .. 0 ... : ... .. . ... ... : ... .. . ... ... : ... .. . ... ... : ... .. . ... ...
ROW 9C : F-4 00 A ... ... ... : F-5 00 F ... ... ... : A-4 00 . ... : 5-# 00 D ... : ... .. . ... ... : B-2 01 6 ... ... : A#3 01 A ... ... : A#1 01 F ... ...
ROW 9D : ... .. 9 ... ... ... : ... .. E ... ... ... : B-3 00 . ... : ... .. B ... : ... .. . ... ... : ... .. . ... ... : ... .. 9 ... ... : ... .. D ... ...
ROW 9E : ... .. 8 ... ... ... : ... .. D ... ... ... : E-3 00 . ... : ... .. . ... : ... .. . ... ... : ... .. 5 ... ... : ... .. . ... ... : ... .. 8 ... ...
ROW 9F : ... .. 6 ... ... ... : ... .. A ... ... ... : D#3 00 . ... : ... .. A ... : ... .. . ... ... : ... .. 4 ... ... : --- .. . ... ... : --- .. . ... ...
ROW A0 : ... .. 1 ... ... ... : ... .. 2 ... ... ... : A#2 00 . ... : ... .. 8 ... : ... .. . ... ... : ... .. . ... ... : ... .. . ... ... : ... .. . ... ...
ROW A1 : ... .. . ... ... ... : ... .. . ... ... ... : ... .. . ... : ... .. 7 ... : ... .. . ... ... : ... .. . ... ... : ... .. . ... ... : ... .. . ... ...
ROW A2 : C#4 00 A ... ... ... : C#5 00 F ... ... ... : A#1 00 . ... : ... .. F ... : ... .. . ... ... : C-3 01 6 ... ... : A#3 01 A ... ... : A#1 01 F ... ...
ROW A3 : ... .. 9 ... ... ... : ... .. E ... ... ... : ... .. . ... : ... .. C ... : ... .. . ... ... : ... .. . ... ... : ... .. 9 ... ... : ... .. D ... ...
ROW A4 : ... .. 8 ... ... ... : ... .. D ... ... ... : ... .. . ... : ... .. 6 ... : ... .. . ... ... : ... .. 5 ... ... : ... .. . ... ... : ... .. 8 ... ...
ROW A5 : ... .. 6 ... ... ... : ... .. A ... ... ... : ... .. . ... : ... .. 3 ... : ... .. . ... ... : ... .. 4 ... ... : ... .. 8 ... ... : ... .. . ... ...
ROW A6 : ... .. 1 ... ... ... : ... .. 2 ... ... ... : --- .. . ... : ... .. 2 ... : ... .. . ... ... : ... .. . ... ... : ... .. 7 ... ... : ... .. . ... ...
ROW A7 : ... .. . ... ... ... : ... .. . ... ... ... : ... .. . ... : ... .. 0 ... : ... .. . ... ... : ... .. . ... ... : ... .. . ... ... : ... .. . ... ...
ROW A8 : A#3 00 A ... ... ... : A#4 00 F ... ... ... : A#1 00 . ... : F-# 00 F ... : ... .. . ... ... : D-3 01 6 ... ... : --- .. . ... ... : --- .. . ... ...
ROW A9 : ... .. 9 ... ... ... : ... .. E ... ... ... : ... .. . ... : ... .. C ... : ... .. . ... ... : ... .. . ... ... : ... .. . ... ... : ... .. . ... ...
ROW AA : ... .. 8 ... ... ... : ... .. D ... ... ... : ... .. . ... : ... .. 6 ... : ... .. . ... ... : ... .. 5 ... ... : ... .. . ... ... : ... .. . ... ...
ROW AB : ... .. 6 ... ... ... : ... .. A ... ... ... : ... .. . ... : ... .. 3 ... : ... .. . ... ... : ... .. 4 ... ... : ... .. . ... ... : ... .. . ... ...
ROW AC : ... .. 1 ... ... ... : ... .. 2 ... ... ... : --- .. . ... : ... .. 2 ... : ... .. . ... ... : ... .. . ... ... : ... .. . ... ... : ... .. . ... ...
ROW AD : ... .. . ... ... ... : ... .. . ... ... ... : ... .. . ... : ... .. 0 ... : ... .. . ... ... : ... .. . ... ... : ... .. . ... ... : ... .. . ... ...
ROW AE : F-3 00 A ... ... ... : F-4 00 F ... ... ... : A-4 00 . ... : D-# 00 F ... : ... .. . ... ... : D#3 01 6 ... ... : A#3 01 A ... ... : A#1 01 F ... ...
ROW AF : ... .. 9 ... ... ... : ... .. E ... ... ... : B-3 00 . ... : ... .. C ... : ... .. . ... ... : ... .. . ... ... : ... .. 9 ... ... : ... .. D ... ...
ROW B0 : ... .. 8 ... ... ... : ... .. D ... ... ... : E-3 00 . ... : ... .. 6 ... : ... .. . ... ... : ... .. 5 ... ... : ... .. . ... ... : ... .. 8 ... ...
ROW B1 : ... .. 6 ... ... ... : ... .. A ... ... ... : D#3 00 . ... : ... .. 3 ... : ... .. . ... ... : ... .. 4 ... ... : --- .. . ... ... : --- .. . ... ...
ROW B2 : ... .. 1 ... ... ... : ... .. 2 ... ... ... : A#2 00 . ... : ... .. 2 ... : ... .. . ... ... : ... .. . ... ... : ... .. . ... ... : ... .. . ... ...
ROW B3 : ... .. . ... ... ... : ... .. . ... ... ... : ... .. . ... : ... .. 0 ... : ... .. . ... ... : ... .. . ... ... : ... .. . ... ... : ... .. . ... ...
ROW B4 : C#3 00 A ... ... ... : C#4 00 F ... ... ... : A#1 00 . ... : B-# 00 F ... : ... .. . ... ... : F-3 01 6 ... ... : A#3 01 A ... ... : A#1 01 F ... ...
ROW B5 : ... .. 9 ... ... ... : ... .. E ... ... ... : ... .. . ... : ... .. C ... : ... .. . ... ... : ... .. . ... ... : ... .. 9 ... ... : ... .. D ... ...
ROW B6 : ... .. 8 ... ... ... : ... .. D ... ... ... : ... .. . ... : ... .. 6 ... : ... .. . ... ... : ... .. 5 ... ... : ... .. . ... ... : ... .. 8 ... ...
ROW B7 : ... .. 6 ... ... ... : ... .. A ... ... ... : ... .. . ... : ... .. 3 ... : ... .. . ... ... : ... .. 4 ... ... : ... .. 8 ... ... : ... .. . ... ...
ROW B8 : ... .. 1 ... ... ... : ... .. 2 ... ... ... : --- .. . ... : ... .. 2 ... : ... .. . ... ... : ... .. . ... ... : ... .. 7 ... ... : ... .. . ... ...
ROW B9 : ... .. . ... ... ... : ... .. . ... ... ... : ... .. . ... : ... .. 0 ... : ... .. . ... ... : ... .. . ... ... : ... .. . ... ... : ... .. . ... ...
ROW BA : A#2 00 A ... ... ... : A#3 00 F ... ... ... : A#1 00 . ... : 8-# 00 F ... : ... .. . ... ... : F#3 01 6 ... ... : --- .. . ... ... : --- .. . ... ...
ROW BB : ... .. 9 ... ... ... : ... .. E ... ... ... : ... .. . ... : ... .. C ... : ... .. . ... ... : ... .. . ... ... : ... .. . ... ... : ... .. . ... ...
ROW BC : ... .. 8 ... ... ... : ... .. D ... ... ... : ... .. . ... : ... .. 6 ... : ... .. . ... ... : ... .. 5 ... ... : ... .. . ... ... : ... .. . ... ...
ROW BD : ... .. 6 ... ... ... : ... .. A ... ... ... : ... .. . ... : ... .. 3 ... : ... .. . ... ... : ... .. 4 ... ... : ... .. . ... ... : ... .. . ... ...
ROW BE : ... .. 1 ... ... ... : ... .. 2 ... ... ... : --- .. . ... : ... .. 2 ... : ... .. . ... ... : ... .. . ... ... : ... .. . ... ... : ... .. . ... ...
ROW BF : ... .. . ... ... ... : ... .. . ... ... ... : ... .. . ... : ... .. 0 ... : ... .. . ... ... : ... .. . ... ... : ... .. . ... ... : ... .. . ... ...
ROW C0 : B-4 00 8 ... ... ... : F-5 00 9 ... ... ... : A#3 00 . ... : 1-# 00 F ... : ... .. . ... ... : F#2 01 6 ... ... : B-3 01 A ... ... : B-1 01 F ... ...
ROW C1 : ... .. 7 ... ... ... : ... .. 8 ... ... ... : C-3 00 . ... : ... .. C ... : ... .. . ... ... : ... .. . ... ... : ... .. 9 ... ... : ... .. D ... ...
ROW C2 : ... .. . ... ... ... : ... .. 7 ... ... ... : F-2 00 . ... : ... .. 6 ... : ... .. . ... ... : ... .. 5 ... ... : ... .. . ... ... : ... .. 8 ... ...
ROW C3 : ... .. 6 ... ... ... : ... .. 6 ... ... ... : E-2 00 . ... : ... .. 3 ... : ... .. . ... ... : ... .. 4 ... ... : ... .. 8 ... ... : ... .. . ... ...
ROW C4 : ... .. 5 ... ... ... : ... .. . ... ... ... : B-1 00 . ... : ... .. 2 ... : ... .. . ... ... : ... .. . ... ... : ... .. 7 ... ... : ... .. . ... ...
ROW C5 : ... .. 4 ... ... ... : ... .. . ... ... ... : ... .. . ... : ... .. 0 ... : ... .. . ... ... : ... .. . ... ... : ... .. . ... ... : ... .. . ... ...
ROW C6 : C-5 00 8 ... ... ... : ... .. . ... ... ... : ... .. . ... : 9-# 00 F ... : ... .. . ... ... : G-2 01 6 ... ... : ... .. 6 ... ... : ... .. . ... ...
ROW C7 : ... .. 7 ... ... ... : ... .. . ... ... ... : ... .. . ... : ... .. C ... : ... .. . ... ... : ... .. . ... ... : ... .. . ... ... : ... .. . ... ...
ROW C8 : ... .. . ... ... ... : ... .. . ... ... ... : ... .. . ... : ... .. 6 ... : ... .. . ... ... : ... .. 5 ... ... : ... .. . ... ... : ... .. . ... ...
ROW C9 : ... .. 6 ... ... ... : ... .. . ... ... ... : ... .. . ... : ... .. 3 ... : ... .. . ... ... : ... .. 4 ... ... : ... .. . ... ... : ... .. . ... ...
ROW CA : ... .. 5 ... ... ... : ... .. . ... ... ... : --- .. . ... : ... .. 2 ... : ... .. . ... ... : ... .. . ... ... : ... .. 3 ... ... : ... .. 4 ... ...
ROW CB : ... .. 4 ... ... ... : ... .. . ... ... ... : ... .. . ... : ... .. 0 ... : ... .. . ... ... : ... .. . ... ... : ... .. . ... ... : ... .. . ... ...
ROW CC : B-4 00 8 ... ... ... : ... .. . ... ... ... : B-1 00 . ... : D-# 00 F ... : ... .. . ... ... : A-2 01 6 ... ... : F-4 01 A ... ... : F-2 01 F ... ...
ROW CD : ... .. 7 ... ... ... : ... .. . ... ... ... : ... .. . ... : ... .. C ... : ... .. . ... ... : ... .. . ... ... : ... .. 9 ... ... : ... .. D ... ...
ROW CE : ... .. . ... ... ... : ... .. . ... ... ... : ... .. . ... : ... .. 6 ... : ... .. . ... ... : ... .. 5 ... ... : ... .. . ... ... : ... .. 8 ... ...
ROW CF : ... .. 6 ... ... ... : ... .. 7 ... ... ... : ... .. . ... : ... .. 3 ... : ... .. . ... ... : ... .. 4 ... ... : ... .. 8 ... ... : ... .. . ... ...
ROW D0 : ... .. 5 ... ... ... : ... .. . ... ... ... : --- .. . ... : ... .. 2 ... : ... .. . ... ... : ... .. . ... ... : ... .. 7 ... ... : ... .. . ... ...
ROW D1 : ... .. 4 ... ... ... : ... .. . ... ... ... : ... .. . ... : ... .. 0 ... : ... .. . ... ... : ... .. . ... ... : ... .. . ... ... : ... .. . ... ...
ROW D2 : F#4 00 8 ... ... ... : ... .. . ... ... ... : B-1 00 . ... : ... .. D ... : ... .. . ... ... : B-2 01 6 ... ... : ... .. 6 ... ... : ... .. . ... ...
ROW D3 : ... .. 7 ... ... ... : ... .. . ... ... ... : ... .. . ... : ... .. B ... : ... .. . ... ... : ... .. . ... ... : ... .. . ... ... : ... .. . ... ...
ROW D4 : ... .. . ... ... ... : ... .. . ... ... ... : ... .. . ... : ... .. . ... : ... .. . ... ... : ... .. 5 ... ... : ... .. . ... ... : ... .. . ... ...
ROW D5 : ... .. 6 ... ... ... : ... .. 8 ... ... ... : ... .. . ... : ... .. A ... : ... .. . ... ... : ... .. 4 ... ... : ... .. . ... ... : ... .. . ... ...
ROW D6 : ... .. 5 ... ... ... : ... .. . ... ... ... : --- .. . ... : ... .. 8 ... : ... .. . ... ... : ... .. . ... ... : ... .. 3 ... ... : ... .. 4 ... ...
ROW D7 : ... .. 4 ... ... ... : ... .. . ... ... ... : ... .. . ... : ... .. 7 ... : ... .. . ... ... : ... .. . ... ... : ... .. . ... ... : ... .. . ... ...
ROW D8 : F-4 00 8 ... ... ... : ... .. . ... ... ... : B-1 00 . ... : 1-# 00 F ... : ... .. . ... ... : C-3 01 6 ... ... : E-4 01 A ... ... : E-2 01 F ... ...
ROW D9 : ... .. 7 ... ... ... : ... .. . ... ... ... : ... .. . ... : ... .. C ... : ... .. . ... ... : ... .. . ... ... : ... .. 9 ... ... : ... .. D ... ...
ROW DA : ... .. . ... ... ... : ... .. . ... ... ... : ... .. . ... : ... .. 6 ... : ... .. . ... ... : ... .. 5 ... ... : ... .. . ... ... : ... .. 8 ... ...
ROW DB : ... .. 6 ... ... ... : ... .. . ... ... ... : ... .. . ... : ... .. 3 ... : ... .. . ... ... : ... .. 4 ... ... : ... .. 8 ... ... : ... .. . ... ...
ROW DC : ... .. 5 ... ... ... : ... .. . ... ... ... : --- .. . ... : ... .. 2 ... : ... .. . ... ... : ... .. . ... ... : ... .. 7 ... ... : ... .. . ... ...
ROW DD : ... .. 4 ... ... ... : ... .. . ... ... ... : ... .. . ... : ... .. 0 ... : ... .. . ... ... : ... .. . ... ... : ... .. . ... ... : ... .. . ... ...
ROW DE : B-3 00 8 ... ... ... : ... .. . ... ... ... : B-1 00 . ... : A-# 00 F ... : ... .. . ... ... : D-3 01 6 ... ... : ... .. 6 ... ... : ... .. . ... ...
ROW DF : ... .. 7 ... ... ... : ... .. . ... ... ... : ... .. . ... : ... .. C ... : ... .. . ... ... : ... .. . ... ... : ... .. . ... ... : ... .. . ... ...
ROW E0 : ... .. . ... ... ... : ... .. . ... ... ... : ... .. . ... : ... .. 6 ... : ... .. . ... ... : ... .. 5 ... ... : ... .. . ... ... : ... .. . ... ...
ROW E1 : ... .. 6 ... ... ... : ... .. 9 ... ... ... : ... .. . ... : ... .. 3 ... : ... .. . ... ... : ... .. 4 ... ... : ... .. . ... ... : ... .. . ... ...
ROW E2 : ... .. 5 ... ... ... : ... .. . ... ... ... : --- .. . ... : ... .. 2 ... : ... .. . ... ... : ... .. . ... ... : ... .. 3 ... ... : ... .. 4 ... ...
ROW E3 : ... .. 4 ... ... ... : ... .. . ... ... ... : ... .. . ... : ... .. 0 ... : ... .. . ... ... : ... .. . ... ... : ... .. . ... ... : ... .. . ... ...
ROW E4 : A-3 00 8 ... ... ... : ... .. . ... ... ... : B-1 00 . ... : 5-# 00 D ... : ... .. . ... ... : B-2 01 6 ... ... : D-4 01 A ... ... : D-2 01 F ... ...
ROW E5 : ... .. 7 ... ... ... : ... .. . ... ... ... : ... .. . ... : ... .. B ... : ... .. . ... ... : ... .. . ... ... : ... .. 9 ... ... : ... .. D ... ...
ROW E6 : ... .. . ... ... ... : ... .. . ... ... ... : ... .. . ... : ... .. . ... : ... .. . ... ... : ... .. 5 ... ... : ... .. . ... ... : ... .. 8 ... ...
ROW E7 : ... .. 6 ... ... ... : ... .. . ... ... ... : ... .. . ... : ... .. A ... : ... .. . ... ... : ... .. 4 ... ... : ... .. 8 ... ... : ... .. . ... ...
ROW E8 : ... .. 5 ... ... ... : ... .. . ... ... ... : --- .. . ... : ... .. 8 ... : ... .. . ... ... : ... .. . ... ... : ... .. 7 ... ... : ... .. . ... ...
ROW E9 : ... .. 4 ... ... ... : ... .. . ... ... ... : ... .. . ... : ... .. 7 ... : ... .. . ... ... : ... .. . ... ... : ... .. . ... ... : ... .. . ... ...
ROW EA : B-3 00 8 ... ... ... : ... .. A ... ... ... : B-1 00 . ... : 0-# 00 F ... : ... .. . ... ... : C-3 01 6 ... ... : ... .. 6 ... ... : ... .. . ... ...
ROW EB : ... .. 7 ... ... ... : ... .. . ... ... ... : ... .. . ... : ... .. C ... : ... .. . ... ... : ... .. . ... ... : ... .. . ... ... : ... .. . ... ...
ROW EC : ... .. . ... ... ... : ... .. . ... ... ... : ... .. . ... : ... .. 6 ... : ... .. . ... ... : ... .. 5 ... ... : ... .. . ... ... : ... .. . ... ...
ROW ED : ... .. 6 ... ... ... : ... .. . ... ... ... : ... .. . ... : ... .. 3 ... : ... .. . ... ... : ... .. 4 ... ... : ... .. . ... ... : ... .. . ... ...
ROW EE : ... .. 5 ... ... ... : ... .. . ... ... ... : --- .. . ... : ... .. 2 ... : ... .. . ... ... : ... .. . ... ... : ... .. 3 ... ... : ... .. 4 ... ...
ROW EF : ... .. 4 ... ... ... : ... .. . ... ... ... : ... .. . ... : ... .. 0 ... : ... .. . ... ... : ... .. . ... ... : ... .. . ... ... : ... .. . ... ...
ROW F0 : F-4 00 8 ... ... ... : ... .. . ... ... ... : B-1 00 . ... : D-# 00 F ... : ... .. . ... ... : D-3 01 6 ... ... : B-3 01 A ... ... : B-1 01 F ... ...
ROW F1 : ... .. 7 ... ... ... : ... .. . ... ... ... : ... .. . ... : ... .. C ... : ... .. . ... ... : ... .. . ... ... : ... .. 9 ... ... : ... .. D ... ...
ROW F2 : ... .. . ... ... ... : ... .. . ... ... ... : ... .. . ... : ... .. 0 ... : ... .. . ... ... : ... .. 5 ... ... : ... .. . ... ... : ... .. 8 ... ...
ROW F3 : ... .. 6 ... ... ... : ... .. . ... ... ... : ... .. . ... : ... .. F ... : ... .. . ... ... : ... .. 4 ... ... : ... .. 8 ... ... : ... .. . ... ...
ROW F4 : ... .. 5 ... ... ... : ... .. . ... ... ... : --- .. . ... : ... .. C ... : ... .. . ... ... : ... .. . ... ... : ... .. 7 ... ... : ... .. . ... ...
ROW F5 : ... .. 4 ... ... ... : ... .. . ... ... ... : ... .. . ... : ... .. 0 ... : ... .. . ... ... : ... .. . ... ... : ... .. . ... ... : ... .. . ... ...
ROW F6 : A-4 00 8 ... ... ... : F#5 00 A ... ... ... : B-1 00 . ... : ... .. F ... : ... .. . ... ... : D#3 01 6 ... ... : ... .. 6 ... ... : ... .. . ... ...
ROW F7 : ... .. 7 ... ... ... : ... .. . P82 ... ... : ... .. . ... : ... .. C ... : ... .. . ... ... : ... .. . ... ... : ... .. . ... ... : ... .. . ... ...
ROW F8 : ... .. . ... ... ... : ... .. . P81 ... ... : ... .. . ... : ... .. 0 ... : ... .. . ... ... : ... .. 5 ... ... : ... .. . ... ... : ... .. . ... ...
ROW F9 : ... .. 6 ... ... ... : F-5 00 A P82 ... ... : ... .. . ... : ... .. . ... : ... .. . ... ... : ... .. 4 ... ... : ... .. . ... ... : ... .. . ... ...
ROW FA : ... .. 5 ... ... ... : ... .. . P7E ... ... : --- .. . ... : ... .. . ... : ... .. . ... ... : ... .. . ... ... : ... .. . ... ... : ... .. . ... ...
ROW FB : ... .. 4 ... ... ... : E-5 00 A P80 ... ... : ... .. . ... : ... .. . ... : ... .. . ... ... : ... .. . ... ... : ... .. . ... ... : ... .. . ... ...
ROW FC : B-4 00 8 ... ... ... : ... .. . P7F ... ... : B-1 00 . ... : 5-# 00 D ... : ... .. . ... ... : F-3 01 6 ... ... : ... .. . ... ... : ... .. . ... ...
ROW FD : ... .. 7 ... ... ... : ... .. . P81 ... ... : ... .. . ... : ... .. B ... : ... .. . ... ... : ... .. . ... ... : ... .. . ... ... : ... .. . ... ...
ROW FE : ... .. . ... ... ... : F-5 00 A P80 ... ... : ... .. . ... : ... .. . ... : ... .. . ... ... : ... .. 5 ... ... : ... .. . ... ... : ... .. . ... ...
ROW FF : ... .. 6 ... ... ... : F#5 00 A P7F ... ... : ... .. . ... : ... .. A ... : ... .. . ... ... : ... .. 4 ... ... : ... .. . ... ... : ... .. . ... ...

PATTERN 07
ROW 00 : ... .. 5 ... ... ... : ... .. . P82 ... ... : --- .. . ... : ... .. 8 ... : ... .. . ... ... : ... .. . ... ... : ... .. . ... ... : ... .. . ... ...
ROW 01 : ... .. 4 ... ... ... : ... .. . ... ... ... : ... .. . ... : ... .. 7 ... : ... .. . ... ... : ... .. . ... ... : ... .. . ... ... : ... .. . ... ...
ROW 02 : C-5 00 8 ... ... ... : F-5 00 A ... ... ... : B-1 00 . ... : F-# 00 D ... : ... .. . ... ... : F#3 01 6 ... ... : ... .. . ... ... : ... .. . ... ...
ROW 03 : ... .. 7 ... ... ... : ... .. . P7F ... ... : ... .. . ... : ... .. B ... : ... .. . ... ... : ... .. . ... ... : ... .. . ... ... : ... .. . ... ...
ROW 04 : ... .. . ... ... ... : E-5 00 A P80 ... ... : ... .. . ... : ... .. . ... : ... .. . ... ... : ... .. 5 ... ... : ... .. . ... ... : ... .. . ... ...
ROW 05 : ... .. 6 ... ... ... : ... .. . P7F ... ... : ... .. . ... : ... .. A ... : ... .. . ... ... : ... .. 4 ... ... : ... .. . ... ... : ... .. . ... ...
ROW 06 : ... .. 5 ... ... ... : ... .. . P81 ... ... : --- .. . ... : ... .. 8 ... : ... .. . ... ... : ... .. . ... ... : ... .. 3 ... ... : ... .. 4 ... ...
ROW 07 : ... .. 4 ... ... ... : F-5 00 A P80 ... ... : ... .. . ... : ... .. 7 ... : ... .. . ... ... : ... .. . ... ... : ... .. . ... ... : ... .. . ... ...
ROW 08 : B-4 00 8 ... ... ... : F#5 00 A P7F ... ... : B-1 00 . ... : 1-# 00 F ... : ... .. . ... ... : F#2 01 6 ... ... : ... .. A ... ... : ... .. F ... ...
ROW 09 : ... .. 7 ... ... ... : ... .. . P82 ... ... : ... .. . ... : ... .. C ... : ... .. . ... ... : ... .. . ... ... : ... .. 9 ... ... : ... .. D ... ...
ROW 0A : ... .. . ... ... ... : ... .. . ... ... ... : ... .. . ... : ... .. 6 ... : ... .. . ... ... : ... .. 5 ... ... : ... .. . ... ... : ... .. 8 ... ...
ROW 0B : ... .. 6 ... ... ... : ... .. . P7F ... ... : ... .. . ... : ... .. 3 ... : ... .. . ... ... : ... .. 4 ... ... : ... .. 8 ... ... : ... .. . ... ...
ROW 0C : ... .. 5 ... ... ... : F-5 00 A P80 ... ... : --- .. . ... : ... .. 2 ... : ... .. . ... ... : ... .. . ... ... : ... .. 7 ... ... : ... .. . ... ...
ROW 0D : ... .. 4 ... ... ... : E-5 00 A P81 ... ... : ... .. . ... : ... .. 0 ... : ... .. . ... ... : ... .. . ... ... : ... .. . ... ... : ... .. . ... ...
ROW 0E : C-5 00 8 ... ... ... : ... .. . P7F ... ... : B-1 00 . ... : D-# 00 F ... : ... .. . ... ... : G-2 01 6 ... ... : ... .. 6 ... ... : ... .. . ... ...
ROW 0F : ... .. 7 ... ... ... : ... .. . P80 ... ... : ... .. . ... : ... .. C ... : ... .. . ... ... : ... .. . ... ... : ... .. . ... ... : ... .. . ... ...
ROW 10 : ... .. . ... ... ... : F-5 00 A P7F ... ... : ... .. . ... : ... .. 6 ... : ... .. . ... ... : ... .. 5 ... ... : ... .. . ... ... : ... .. . ... ...
ROW 11 : ... .. 6 ... ... ... : ... .. . P82 ... ... : ... .. . ... : ... .. 3 ... : ... .. . ... ... : ... .. 4 ... ... : ... .. . ... ... : ... .. . ... ...
ROW 12 : ... .. 5 ... ... ... : F#5 00 A ... ... ... : --- .. . ... : ... .. 2 ... : ... .. . ... ... : ... .. . ... ... : ... .. 3 ... ... : ... .. 4 ... ...
ROW 13 : ... .. 4 ... ... ... : ... .. . ... ... ... : ... .. . ... : ... .. 0 ... : ... .. . ... ... : ... .. . ... ... : ... .. . ... ... : ... .. . ... ...
ROW 14 : B-4 00 8 ... ... ... : ... .. . P7F ... ... : B-1 00 . ... : ... .. F ... : ... .. . ... ... : A-2 01 6 ... ... : F-4 01 A ... ... : F-2 01 F ... ...
ROW 15 : ... .. 7 ... ... ... : F-5 00 A P80 ... ... : ... .. . ... : ... .. C ... : ... .. . ... ... : ... .. . ... ... : ... .. 9 ... ... : ... .. D ... ...
ROW 16 : ... .. . ... ... ... : E-5 00 A P81 ... ... : ... .. . ... : ... .. 6 ... : ... .. . ... ... : ... .. 5 ... ... : ... .. . ... ... : ... .. 8 ... ...
ROW 17 : ... .. 6 ... ... ... : ... .. . P7F ... ... : ... .. . ... : ... .. 3 ... : ... .. . ... ... : ... .. 4 ... ... : ... .. 8 ... ... : ... .. . ... ...
ROW 18 : ... .. 5 ... ... ... : ... .. . P80 ... ... : --- .. . ... : ... .. 2 ... : ... .. . ... ... : ... .. . ... ... : ... .. 7 ... ... : ... .. . ... ...
ROW 19 : ... .. 4 ... ... ... : F-5 00 A P7E ... ... : ... .. . ... : ... .. 0 ... : ... .. . ... ... : ... .. . ... ... : ... .. . ... ... : ... .. . ... ...
ROW 1A : F#4 00 8 ... ... ... : ... .. . P82 ... ... : B-1 00 . ... : 5-# 00 D ... : ... .. . ... ... : B-2 01 6 ... ... : ... .. 6 ... ... : ... .. . ... ...
ROW 1B : ... .. 7 ... ... ... : F#5 00 A P81 ... ... : ... .. . ... : ... .. B ... : ... .. . ... ... : ... .. . ... ... : ... .. . ... ... : ... .. . ... ...
ROW 1C : ... .. . ... ... ... : ... .. . P82 ... ... : ... .. . ... : ... .. . ... : ... .. . ... ... : ... .. 5 ... ... : ... .. . ... ... : ... .. . ... ...
ROW 1D : ... .. 6 ... ... ... : ... .. . P80 ... ... : ... .. . ... : ... .. A ... : ... .. . ... ... : ... .. 4 ... ... : ... .. . ... ... : ... .. . ... ...
ROW 1E : ... .. 5 ... ... ... : F-5 00 A ... ... ... : --- .. . ... : ... .. 8 ... : ... .. . ... ... : ... .. . ... ... : ... .. 3 ... ... : ... .. 4 ... ...
ROW 1F : ... .. 4 ... ... ... : E-5 00 A P82 ... ... : ... .. . ... : ... .. 7 ... : ... .. . ... ... : ... .. . ... ... : ... .. . ... ... : ... .. . ... ...
ROW 20 : F-4 00 8 ... ... ... : ... .. . P7F ... ... : B-1 00 . ... : F-# 00 D ... : ... .. . ... ... : C-3 01 6 ... ... : E-4 01 A ... ... : E-2 01 F ... ...
ROW 21 : ... .. 7 ... ... ... : ... .. . ... ... ... : ... .. . ... : ... .. B ... : ... .. . ... ... : ... .. . ... ... : ... .. 9 ... ... : ... .. D ... ...
ROW 22 : ... .. . ... ... ... : F-5 00 A P7E ... ... : ... .. . ... : ... .. . ... : ... .. . ... ... : ... .. 5 ... ... : ... .. . ... ... : ... .. 8 ... ...
ROW 23 : ... .. 6 ... ... ... : ... .. 9 P81 ... ... : ... .. . ... : ... .. A ... : ... .. . ... ... : ... .. 4 ... ... : ... .. 8 ... ... : ... .. . ... ...
ROW 24 : ... .. 5 ... ... ... : F#5 00 9 ... ... ... : --- .. . ... : ... .. 8 ... : ... .. . ... ... : ... .. . ... ... : ... .. 7 ... ... : ... .. . ... ...
ROW 25 : ... .. 4 ... ... ... : ... .. . P82 ... ... : ... .. . ... : ... .. 7 ... : ... .. . ... ... : ... .. . ... ... : ... .. . ... ... : ... .. . ... ...
ROW 26 : B-3 00 8 ... ... ... : ... .. . P80 ... ... : B-1 00 . ... : 1-# 00 F ... : ... .. . ... ... : D-3 01 6 ... ... : ... .. 6 ... ... : ... .. . ... ...
ROW 27 : ... .. 7 ... ... ... : F-5 00 9 ... ... ... : ... .. . ... : ... .. C ... : ... .. . ... ... : ... .. . ... ... : ... .. . ... ... : ... .. . ... ...
ROW 28 : ... .. . ... ... ... : E-5 00 9 P82 ... ... : ... .. . ... : ... .. 6 ... : ... .. . ... ... : ... .. 5 ... ... : ... .. . ... ... : ... .. . ... ...
ROW 29 : ... .. 6 ... ... ... : ... .. 8 P7F ... ... : ... .. . ... : ... .. 3 ... : ... .. . ... ... : ... .. 4 ... ... : ... .. . ... ... : ... .. . ... ...
ROW 2A : ... .. 5 ... ... ... : ... .. . ... ... ... : --- .. . ... : ... .. 2 ... : ... .. . ... ... : ... .. . ... ... : ... .. 3 ... ... : ... .. 4 ... ...
ROW 2B : ... .. 4 ... ... ... : ... .. . P82 ... ... : ... .. . ... : ... .. 0 ... : ... .. . ... ... : ... .. . ... ... : ... .. . ... ... : ... .. . ... ...
ROW 2C : A-3 00 8 ... ... ... : B-5 00 D P80 ... ... : B-1 00 . ... : 5-# 00 D ... : ... .. . ... ... : B-2 01 6 ... ... : D-4 01 A ... ... : D-2 01 F ... ...
ROW 2D : ... .. 7 ... ... ... : ... .. C ... ... ... : ... .. . ... : ... .. B ... : ... .. . ... ... : ... .. . ... ... : ... .. 9 ... ... : ... .. D ... ...
ROW 2E : ... .. . ... ... ... : ... .. B ... ... ... : ... .. . ... : ... .. . ... : ... .. . ... ... : ... .. 5 ... ... : ... .. . ... ... : ... .. 8 ... ...
ROW 2F : ... .. 6 ... ... ... : ... .. 8 ... ... ... : ... .. . ... : ... .. A ... : ... .. . ... ... : ... .. 4 ... ... : ... .. 8 ... ... : ... .. . ... ...
ROW 30 : ... .. 5 ... ... ... : ... .. . ... ... ... : --- .. . ... : ... .. 8 ... : ... .. . ... ... : ... .. . ... ... : ... .. 7 ... ... : ... .. . ... ...
ROW 31 : ... .. 4 ... ... ... : ... .. . ... ... ... : ... .. . ... : ... .. 7 ... : ... .. . ... ... : ... .. . ... ... : ... .. . ... ... : ... .. . ... ...
ROW 32 : B-3 00 8 ... ... ... : ... .. 9 ... ... ... : B-1 00 . ... : A-# 00 F ... : ... .. . ... ... : C-3 01 6 ... ... : ... .. 6 ... ... : ... .. . ... ...
ROW 33 : ... .. 7 ... ... ... : ... .. . ... ... ... : ... .. . ... : ... .. C ... : ... .. . ... ... : ... .. . ... ... : ... .. . ... ... : ... .. . ... ...
ROW 34 : ... .. . ... ... ... : ... .. . ... ... ... : ... .. . ... : ... .. 6 ... : ... .. . ... ... : ... .. 5 ... ... : ... .. . ... ... : ... .. . ... ...
ROW 35 : ... .. 6 ... ... ... : ... .. . ... ... ... : ... .. . ... : ... .. 3 ... : ... .. . ... ... : ... .. 4 ... ... : ... .. . ... ... : ... .. . ... ...
ROW 36 : ... .. 5 ... ... ... : ... .. . ... ... ... : --- .. . ... : ... .. 2 ... : ... .. . ... ... : ... .. . ... ... : ... .. 3 ... ... : ... .. 4 ... ...
ROW 37 : ... .. 4 ... ... ... : ... .. . ... ... ... : ... .. . ... : ... .. 0 ... : ... .. . ... ... : ... .. . ... ... : ... .. . ... ... : ... .. . ... ...
ROW 38 : F-4 00 8 ... ... ... : ... .. A ... ... ... : B-1 00 . ... : ... .. F ... : ... .. . ... ... : D-3 01 6 ... ... : F-6 01 A ... ... : F-4 01 F ... ...
ROW 39 : ... .. 7 ... ... ... : ... .. . ... ... ... : ... .. . ... : ... .. C ... : ... .. . ... ... : ... .. . ... ... : ... .. 9 ... ... : ... .. D ... ...
ROW 3A : ... .. . ... ... ... : ... .. . ... ... ... : ... .. . ... : ... .. 6 ... : ... .. . ... ... : ... .. 5 ... ... : ... .. . ... ... : ... .. 8 ... ...
ROW 3B : ... .. 6 ... ... ... : ... .. . ... ... ... : ... .. . ... : ... .. 3 ... : ... .. . ... ... : ... .. 4 ... ... : ... .. 6 ... ... : ... .. . ... ...
ROW 3C : ... .. 5 ... ... ... : ... .. . ... ... ... : --- .. . ... : ... .. 2 ... : ... .. . ... ... : ... .. . ... ... : ... .. 3 ... ... : ... .. 4 ... ...
ROW 3D : ... .. 4 ... ... ... : ... .. . ... ... ... : ... .. . ... : ... .. 0 ... : ... .. . ... ... : ... .. . ... ... : ... .. . ... ... : ... .. . ... ...
ROW 3E : A-4 00 8 ... ... ... : ... .. . ... ... ... : B-1 00 . ... : 9-# 00 D ... : ... .. . ... ... : D#3 01 6 ... ... : B-6 01 A ... ... : B-4 01 F ... ...
ROW 3F : ... .. 7 ... ... ... : ... .. . ... ... ... : ... .. . ... : ... .. B ... : ... .. . ... ... : ... .. . ... ... : ... .. 9 ... ... : ... .. D ... ...
ROW 40 : ... .. . ... ... ... : ... .. . ... ... ... : ... .. . ... : ... .. . ... : ... .. . ... ... : ... .. 5 ... ... : ... .. . ... ... : ... .. 8 ... ...
ROW 41 : ... .. 6 ... ... ... : ... .. . ... ... ... : ... .. . ... : ... .. A ... : ... .. . ... ... : ... .. 4 ... ... : ... .. 6 ... ... : ... .. . ... ...
ROW 42 : ... .. 5 ... ... ... : ... .. . ... ... ... : --- .. . ... : ... .. 8 ... : ... .. . ... ... : ... .. . ... ... : ... .. 3 ... ... : ... .. 4 ... ...
ROW 43 : ... .. 4 ... ... ... : ... .. . ... ... ... : ... .. . ... : ... .. 7 ... : ... .. . ... ... : ... .. . ... ... : ... .. . ... ... : ... .. . ... ...
ROW 44 : B-4 00 8 ... ... ... : ... .. . ... ... ... : B-1 00 . ... : 6-# 00 D ... : ... .. . ... ... : F-3 01 6 ... ... : B-5 01 A ... ... : B-3 01 F ... ...
ROW 45 : ... .. 7 ... ... ... : ... .. . ... ... ... : ... .. . ... : ... .. B ... : ... .. . ... ... : ... .. . ... ... : ... .. 9 ... ... : ... .. D ... ...
ROW 46 : ... .. . ... ... ... : ... .. . ... ... ... : ... .. . ... : ... .. . ... : ... .. . ... ... : ... .. 5 ... ... : ... .. . ... ... : ... .. 8 ... ...
ROW 47 : ... .. 6 ... ... ... : ... .. . ... ... ... : ... .. . ... : ... .. A ... : ... .. . ... ... : ... .. 4 ... ... : ... .. 6 ... ... : ... .. . ... ...
ROW 48 : ... .. 5 ... ... ... : ... .. . ... ... ... : --- .. . ... : ... .. 8 ... : ... .. . ... ... : ... .. . ... ... : ... .. 3 ... ... : ... .. 4 ... ...
ROW 49 : ... .. 4 ... ... ... : ... .. . ... ... ... : ... .. . ... : ... .. 7 ... : ... .. . ... ... : ... .. . ... ... : ... .. . ... ... : ... .. . ... ...
ROW 4A : C-5 00 8 ... ... ... : ... .. . ... ... ... : B-1 00 . ... : ... .. D ... : ... .. . ... ... : F#3 01 6 ... ... : B-4 01 A ... ... : B-2 01 F ... ...
ROW 4B : ... .. 7 ... ... ... : ... .. . ... ... ... : ... .. . ... : ... .. B ... : ... .. . ... ... : ... .. . ... ... : ... .. 9 ... ... : ... .. D ... ...
ROW 4C : ... .. . ... ... ... : ... .. . ... ... ... : ... .. . ... : ... .. . ... : ... .. . ... ... : ... .. 5 ... ... : ... .. . ... ... : ... .. 8 ... ...
ROW 4D : ... .. 6 ... ... ... : ... .. . ... ... ... : ... .. . ... : ... .. A ... : ... .. . ... ... : ... .. 4 ... ... : ... .. 6 ... ... : ... .. . ... ...
ROW 4E : ... .. 5 ... ... ... : ... .. . ... ... ... : --- .. . ... : ... .. 8 ... : ... .. . ... ... : ... .. . ... ... : ... .. 3 ... ... : ... .. 4 ... ...
ROW 4F : ... .. 4 ... ... ... : ... .. . ... ... ... : ... .. . ... : ... .. 7 ... : ... .. . ... ... : ... .. . ... ... : ... .. . ... ... : ... .. . ... ...
ROW 50 : B-4 00 8 ... ... ... : C-6 00 F ... ... ... : B-1 00 . ... : 1-# 00 F ... : ... .. . ... ... : F#2 01 6 ... ... : B-3 01 A ... ... : B-1 01 F ... ...
ROW 51 : ... .. 7 ... ... ... : ... .. E ... ... ... : ... .. . ... : ... .. C ... : ... .. . ... ... : ... .. . ... ... : ... .. 9 ... ... : ... .. D ... ...
ROW 52 : ... .. . ... ... ... : ... .. D ... ... ... : ... .. . ... : ... .. 6 ... : ... .. . ... ... : ... .. 5 ... ... : ... .. . ... ... : ... .. 8 ... ...
ROW 53 : ... .. 6 ... ... ... : ... .. A ... ... ... : ... .. . ... : ... .. 3 ... : ... .. . ... ... : ... .. 4 ... ... : ... .. 8 ... ... : ... .. . ... ...
ROW 54 : ... .. 5 ... ... ... : ... .. . ... ... ... : --- .. . ... : ... .. 2 ... : ... .. . ... ... : ... .. . ... ... : ... .. 7 ... ... : ... .. . ... ...
ROW 55 : ... .. 4 ... ... ... : ... .. . ... ... ... : ... .. . ... : ... .. 0 ... : ... .. . ... ... : ... .. . ... ... : ... .. . ... ... : ... .. . ... ...
ROW 56 : C-5 00 8 ... ... ... : ... .. . ... ... ... : B-1 00 . ... : ... .. F ... : ... .. . ... ... : G-2 01 6 ... ... : ... .. 6 ... ... : ... .. . ... ...
ROW 57 : ... .. 7 ... ... ... : ... .. . ... ... ... : ... .. . ... : ... .. C ... : ... .. . ... ... : ... .. . ... ... : ... .. . ... ... : ... .. . ... ...
ROW 58 : ... .. . ... ... ... : ... .. . ... ... ... : ... .. . ... : ... .. 6 ... : ... .. . ... ... : ... .. 5 ... ... : ... .. . ... ... : ... .. . ... ...
ROW 59 : ... .. 6 ... ... ... : ... .. . ... ... ... : ... .. . ... : ... .. 3 ... : ... .. . ... ... : ... .. 4 ... ... : ... .. . ... ... : ... .. . ... ...
ROW 5A : ... .. 5 ... ... ... : ... .. . ... ... ... : --- .. . ... : ... .. 2 ... : ... .. . ... ... : ... .. . ... ... : ... .. 3 ... ... : ... .. 4 ... ...
ROW 5B : ... .. 4 ... ... ... : ... .. . ... ... ... : ... .. . ... : ... .. 0 ... : ... .. . ... ... : ... .. . ... ... : ... .. . ... ... : ... .. . ... ...
ROW 5C : B-4 00 8 ... ... ... : ... .. 9 ... ... ... : B-1 00 . ... : D-# 00 F ... : ... .. . ... ... : A-2 01 6 ... ... : F-4 01 A ... ... : F-2 01 F ... ...
ROW 5D : ... .. 7 ... ... ... : ... .. . ... ... ... : ... .. . ... : ... .. C ... : ... .. . ... ... : ... .. . ... ... : ... .. 9 ... ... : ... .. D ... ...
ROW 5E : ... .. . ... ... ... : ... .. . ... ... ... : ... .. . ... : ... .. 6 ... : ... .. . ... ... : ... .. 5 ... ... : ... .. . ... ... : ... .. 8 ... ...
ROW 5F : ... .. 6 ... ... ... : ... .. 8 ... ... ... : ... .. . ... : ... .. 3 ... : ... .. . ... ... : ... .. 4 ... ... : ... .. 8 ... ... : ... .. . ... ...
ROW 60 : ... .. 5 ... ... ... : ... .. . ... ... ... : --- .. . ... : ... .. 2 ... : ... .. . ... ... : ... .. . ... ... : ... .. 7 ... ... : ... .. . ... ...
ROW 61 : ... .. 4 ... ... ... : ... .. . ... ... ... : ... .. . ... : ... .. 0 ... : ... .. . ... ... : ... .. . ... ... : ... .. . ... ... : ... .. . ... ...
ROW 62 : F#4 00 8 ... ... ... : ... .. 7 ... ... ... : B-1 00 . ... : ... .. F ... : ... .. . ... ... : B-2 01 6 ... ... : ... .. 6 ... ... : ... .. . ... ...
ROW 63 : ... .. 7 ... ... ... : ... .. . ... ... ... : ... .. . ... : ... .. C ... : ... .. . ... ... : ... .. . ... ... : ... .. . ... ... : ... .. . ... ...
ROW 64 : ... .. . ... ... ... : ... .. . ... ... ... : ... .. . ... : ... .. 6 ... : ... .. . ... ... : ... .. 5 ... ... : ... .. . ... ... : ... .. . ... ...
ROW 65 : ... .. 6 ... ... ... : ... .. . ... ... ... : ... .. . ... : ... .. 3 ... : ... .. . ... ... : ... .. 4 ... ... : ... .. . ... ... : ... .. . ... ...
ROW 66 : ... .. 5 ... ... ... : ... .. . ... ... ... : --- .. . ... : ... .. 2 ... : ... .. . ... ... : ... .. . ... ... : ... .. 3 ... ... : ... .. 4 ... ...
ROW 67 : ... .. 4 ... ... ... : ... .. . ... ... ... : ... .. . ... : ... .. 0 ... : ... .. . ... ... : ... .. . ... ... : ... .. . ... ... : ... .. . ... ...
ROW 68 : F-4 00 8 ... ... ... : ... .. . ... ... ... : B-1 00 . ... : 6-# 00 F ... : ... .. . ... ... : C-3 01 6 ... ... : E-4 01 A ... ... : E-2 01 F ... ...
ROW 69 : ... .. 7 ... ... ... : ... .. . ... ... ... : ... .. . ... : ... .. C ... : ... .. . ... ... : ... .. . ... ... : ... .. 9 ... ... : ... .. D ... ...
ROW 6A : ... .. . ... ... ... : ... .. . ... ... ... : ... .. . ... : ... .. 6 ... : ... .. . ... ... : ... .. 5 ... ... : ... .. . ... ... : ... .. 8 ... ...
ROW 6B : ... .. 6 ... ... ... : ... .. 8 ... ... ... : ... .. . ... : ... .. 3 ... : ... .. . ... ... : ... .. 4 ... ... : ... .. 8 ... ... : ... .. . ... ...
ROW 6C : ... .. 5 ... ... ... : ... .. . ... ... ... : --- .. . ... : ... .. 2 ... : ... .. . ... ... : ... .. . ... ... : ... .. 7 ... ... : ... .. . ... ...
ROW 6D : ... .. 4 ... ... ... : ... .. . ... ... ... : ... .. . ... : ... .. 0 ... : ... .. . ... ... : ... .. . ... ... : ... .. . ... ... : ... .. . ... ...
ROW 6E : B-3 00 8 ... ... ... : ... .. . ... ... ... : B-1 00 . ... : F-# 00 D ... : ... .. . ... ... : D-3 01 6 ... ... : ... .. 6 ... ... : ... .. . ... ...
ROW 6F : ... .. 7 ... ... ... : ... .. . ... ... ... : ... .. . ... : ... .. B ... : ... .. . ... ... : ... .. . ... ... : ... .. . ... ... : ... .. . ... ...
ROW 70 : ... .. . ... ... ... : ... .. . ... ... ... : ... .. . ... : ... .. . ... : ... .. . ... ... : ... .. 5 ... ... : ... .. . ... ... : ... .. . ... ...
ROW 71 : ... .. 6 ... ... ... : ... .. . ... ... ... : ... .. . ... : ... .. A ... : ... .. . ... ... : ... .. 4 ... ... : ... .. . ... ... : ... .. . ... ...
ROW 72 : ... .. 5 ... ... ... : ... .. . ... ... ... : --- .. . ... : ... .. 8 ... : ... .. . ... ... : ... .. . ... ... : ... .. 3 ... ... : ... .. 4 ... ...
ROW 73 : ... .. 4 ... ... ... : ... .. . ... ... ... : ... .. . ... : ... .. 7 ... : ... .. . ... ... : ... .. . ... ... : ... .. . ... ... : ... .. . ... ...
ROW 74 : A-3 00 8 ... ... ... : ... .. . P81 ... ... : B-1 00 . ... : 5-# 00 D ... : ... .. . ... ... : B-2 01 6 ... ... : D-4 01 A ... ... : D-2 01 F ... ...
ROW 75 : ... .. 7 ... ... ... : C#6 00 8 P7F ... ... : ... .. . ... : ... .. B ... : ... .. . ... ... : ... .. . ... ... : ... .. 9 ... ... : ... .. D ... ...
ROW 76 : ... .. . ... ... ... : ... .. . ... ... ... : ... .. . ... : ... .. . ... : ... .. . ... ... : ... .. 5 ... ... : ... .. . ... ... : ... .. 8 ... ...
ROW 77 : ... .. 6 ... ... ... : C-6 00 8 P80 ... ... : ... .. . ... : ... .. A ... : ... .. . ... ... : ... .. 4 ... ... : ... .. 8 ... ... : ... .. . ... ...
ROW 78 : ... .. 5 ... ... ... : ... .. . ... ... ... : --- .. . ... : ... .. 8 ... : ... .. . ... ... : ... .. . ... ... : ... .. 7 ... ... : ... .. . ... ...
ROW 79 : ... .. 4 ... ... ... : B-5 00 8 P82 ... ... : ... .. . ... : ... .. 7 ... : ... .. . ... ... : ... .. . ... ... : ... .. . ... ... : ... .. . ... ...
ROW 7A : B-3 00 8 ... ... ... : ... .. 9 ... ... ... : B-1 00 . ... : 0-# 00 F ... : ... .. . ... ... : C-3 01 6 ... ... : ... .. 6 ... ... : ... .. . ... ...
ROW 7B : ... .. 7 ... ... ... : C-6 00 9 P7F ... ... : ... .. . ... : ... .. C ... : ... .. . ... ... : ... .. . ... ... : ... .. . ... ... : ... .. . ... ...
ROW 7C : ... .. . ... ... ... : ... .. . P80 ... ... : ... .. . ... : ... .. 6 ... : ... .. . ... ... : ... .. 5 ... ... : ... .. . ... ... : ... .. . ... ...
ROW 7D : ... .. 6 ... ... ... : ... .. . P81 ... ... : ... .. . ... : ... .. 3 ... : ... .. . ... ... : ... .. 4 ... ... : ... .. . ... ... : ... .. . ... ...
ROW 7E : ... .. 5 ... ... ... : C#6 00 9 P7F ... ... : --- .. . ... : ... .. 2 ... : ... .. . ... ... : ... .. . ... ... : ... .. 3 ... ... : ... .. 4 ... ...
ROW 7F : ... .. 4 ... ... ... : ... .. . ... ... ... : ... .. . ... : ... .. 0 ... : ... .. . ... ... : ... .. . ... ... : ... .. . ... ... : ... .. . ... ...
ROW 80 : F-4 00 8 ... ... ... : C-6 00 9 P80 ... ... : B-1 00 . ... : C-# 00 F ... : ... .. . ... ... : D-3 01 6 ... ... : B-3 01 A ... ... : B-1 01 F ... ...
ROW 81 : ... .. 7 ... ... ... : ... .. . ... ... ... : ... .. . ... : ... .. C ... : ... .. . ... ... : ... .. . ... ... : ... .. 9 ... ... : ... .. D ... ...
ROW 82 : ... .. . ... ... ... : ... .. . P7F ... ... : ... .. . ... : ... .. 6 ... : ... .. . ... ... : ... .. 5 ... ... : ... .. . ... ... : ... .. 8 ... ...
ROW 83 : ... .. 6 ... ... ... : B-5 00 A P82 ... ... : ... .. . ... : ... .. 3 ... : ... .. . ... ... : ... .. 4 ... ... : ... .. 8 ... ... : ... .. . ... ...
ROW 84 : ... .. 5 ... ... ... : C-6 00 A P7F ... ... : --- .. . ... : ... .. 2 ... : ... .. . ... ... : ... .. . ... ... : ... .. 7 ... ... : ... .. . ... ...
ROW 85 : ... .. 4 ... ... ... : ... .. . P80 ... ... : ... .. . ... : ... .. 0 ... : ... .. . ... ... : ... .. . ... ... : ... .. . ... ... : ... .. . ... ...
ROW 86 : A-4 00 8 ... ... ... : ... .. . P81 ... ... : B-1 00 . ... : E-# 00 F ... : ... .. . ... ... : D#3 01 6 ... ... : ... .. 6 ... ... : ... .. . ... ...
ROW 87 : ... .. 7 ... ... ... : C#6 00 A P7F ... ... : ... .. . ... : ... .. C ... : ... .. . ... ... : ... .. . ... ... : ... .. . ... ... : ... .. . ... ...
ROW 88 : ... .. . ... ... ... : ... .. . ... ... ... : ... .. . ... : ... .. 6 ... : ... .. . ... ... : ... .. 5 ... ... : ... .. . ... ... : ... .. . ... ...
ROW 89 : ... .. 6 ... ... ... : C-6 00 A P81 ... ... : ... .. . ... : ... .. 3 ... : ... .. . ... ... : ... .. 4 ... ... : ... .. . ... ... : ... .. . ... ...
ROW 8A : ... .. 5 ... ... ... : ... .. . P80 ... ... : --- .. . ... : ... .. 2 ... : ... .. . ... ... : ... .. . ... ... : ... .. . ... ... : ... .. . ... ...
ROW 8B : ... .. 4 ... ... ... : ... .. . P7F ... ... : ... .. . ... : ... .. 0 ... : ... .. . ... ... : ... .. . ... ... : ... .. . ... ... : ... .. . ... ...
ROW 8C : B-4 00 8 ... ... ... : B-5 00 A P82 ... ... : B-1 00 . ... : 8-# 00 F ... : ... .. . ... ... : F-3 01 6 ... ... : ... .. . ... ... : ... .. . ... ...
ROW 8D : ... .. 7 ... ... ... : C-6 00 A P7F ... ... : ... .. . ... : ... .. C ... : ... .. . ... ... : ... .. . ... ... : ... .. . ... ... : ... .. . ... ...
ROW 8E : ... .. . ... ... ... : ... .. . P80 ... ... : ... .. . ... : ... .. 6 ... : ... .. . ... ... : ... .. 5 ... ... : ... .. . ... ... : ... .. . ... ...
ROW 8F : ... .. 6 ... ... ... : ... .. . ... ... ... : ... .. . ... : ... .. 3 ... : ... .. . ... ... : ... .. 4 ... ... : ... .. . ... ... : ... .. . ... ...
ROW 90 : ... .. 5 ... ... ... : C#6 00 A P7F ... ... : --- .. . ... : ... .. 2 ... : ... .. . ... ... : ... .. . ... ... : ... .. . ... ... : ... .. . ... ...
ROW 91 : ... .. 4 ... ... ... : ... .. . ... ... ... : ... .. . ... : ... .. 0 ... : ... .. . ... ... : ... .. . ... ... : ... .. . ... ... : ... .. . ... ...
ROW 92 : C-5 00 8 ... ... ... : C-6 00 A P81 ... ... : B-1 00 . ... : ... .. F ... : ... .. . ... ... : F#3 01 6 ... ... : ... .. . ... ... : ... .. . ... ...
ROW 93 : ... .. 7 ... ... ... : ... .. 2 P80 ... ... : ... .. . ... : ... .. C ... : ... .. . ... ... : ... .. . ... ... : ... .. . ... ... : ... .. . ... ...
ROW 94 : ... .. . ... ... ... : ... .. . P7F ... ... : ... .. . ... : ... .. 6 ... : ... .. . ... ... : ... .. 5 ... ... : ... .. . ... ... : ... .. . ... ...
ROW 95 : ... .. 6 ... ... ... : B-5 00 2 P82 ... ... : ... .. . ... : ... .. 3 ... : ... .. . ... ... : ... .. 4 ... ... : ... .. . ... ... : ... .. . ... ...
ROW 96 : ... .. 5 ... ... ... : ... .. 1 ... ... ... : --- .. . ... : ... .. 2 ... : ... .. . ... ... : ... .. . ... ... : ... .. 3 ... ... : ... .. 4 ... ...
ROW 97 : ... .. 4 ... ... ... : C-6 00 1 P80 ... ... : ... .. . ... : ... .. 0 ... : ... .. . ... ... : ... .. . ... ... : ... .. . ... ... : ... .. . ... ...
ROW 98 : F-4 00 A ... ... ... : F-5 00 F ... ... ... : C#5 00 . ... : D-# 00 F ... : ... .. . ... ... : F#2 01 6 ... ... : D-4 01 A ... ... : D-2 01 F ... ...
ROW 99 : ... .. 9 ... ... ... : ... .. E ... ... ... : D#4 00 . ... : ... .. . ... : ... .. . ... ... : ... .. . ... ... : ... .. 9 ... ... : ... .. D ... ...
ROW 9A : ... .. 8 ... ... ... : ... .. D ... ... ... : G#3 00 . ... : ... .. . ... : ... .. . ... ... : ... .. 5 ... ... : ... .. . ... ... : ... .. 8 ... ...
ROW 9B : ... .. 6 ... ... ... : ... .. A ... ... ... : G-3 00 . ... : C-# 00 D ... : ... .. . ... ... : ... .. 4 ... ... : --- .. . ... ... : --- .. . ... ...
ROW 9C : ... .. 1 ... ... ... : ... .. 2 ... ... ... : D-3 00 . ... : ... .. . ... : ... .. . ... ... : ... .. . ... ... : ... .. . ... ... : ... .. . ... ...
ROW 9D : ... .. . ... ... ... : ... .. . ... ... ... : ... .. . ... : ... .. . ... : ... .. . ... ... : ... .. . ... ... : ... .. . ... ... : ... .. . ... ...
ROW 9E : D-4 00 A ... ... ... : D-5 00 F ... ... ... : D-2 00 . ... : B-# 00 B ... : ... .. . ... ... : G-2 01 6 ... ... : D-4 01 A ... ... : D-2 01 F ... ...
ROW 9F : ... .. 9 ... ... ... : ... .. E ... ... ... : ... .. . ... : ... .. . ... : ... .. . ... ... : ... .. . ... ... : ... .. 9 ... ... : ... .. D ... ...
ROW A0 : ... .. 8 ... ... ... : ... .. D ... ... ... : ... .. . ... : ... .. . ... : ... .. . ... ... : ... .. 5 ... ... : ... .. . ... ... : ... .. 8 ... ...
ROW A1 : ... .. 6 ... ... ... : ... .. A ... ... ... : ... .. . ... : ... .. 9 ... : ... .. . ... ... : ... .. 4 ... ... : ... .. 8 ... ... : ... .. . ... ...
ROW A2 : ... .. 1 ... ... ... : ... .. 2 ... ... ... : --- .. . ... : ... .. . ... : ... .. . ... ... : ... .. . ... ... : ... .. 7 ... ... : ... .. . ... ...
ROW A3 : ... .. . ... ... ... : ... .. . ... ... ... : ... .. . ... : ... .. . ... : ... .. . ... ... : ... .. . ... ... : ... .. . ... ... : ... .. . ... ...
ROW A4 : A-3 00 A ... ... ... : A-4 00 F ... ... ... : D-2 00 . ... : ... .. 7 ... : ... .. . ... ... : A-2 01 6 ... ... : --- .. . ... ... : --- .. . ... ...
ROW A5 : ... .. 9 ... ... ... : ... .. E ... ... ... : ... .. . ... : ... .. . ... : ... .. . ... ... : ... .. . ... ... : ... .. . ... ... : ... .. . ... ...
ROW A6 : ... .. 8 ... ... ... : ... .. D ... ... ... : ... .. . ... : ... .. . ... : ... .. . ... ... : ... .. 5 ... ... : ... .. . ... ... : ... .. . ... ...
ROW A7 : ... .. 6 ... ... ... : ... .. A ... ... ... : ... .. . ... : ... .. 5 ... : ... .. . ... ... : ... .. 4 ... ... : ... .. . ... ... : ... .. . ... ...
ROW A8 : ... .. 1 ... ... ... : ... .. 2 ... ... ... : --- .. . ... : ... .. . ... : ... .. . ... ... : ... .. . ... ... : ... .. . ... ... : ... .. . ... ...
ROW A9 : ... .. . ... ... ... : ... .. . ... ... ... : ... .. . ... : ... .. . ... : ... .. . ... ... : ... .. . ... ... : ... .. . ... ... : ... .. . ... ...
ROW AA : F-3 00 A ... ... ... : F-4 00 F ... ... ... : C#5 00 . ... : 5-# 00 D ... : ... .. . ... ... : B-2 01 6 ... ... : D-4 01 A ... ... : D-2 01 F ... ...
ROW AB : ... .. 9 ... ... ... : ... .. E ... ... ... : D#4 00 . ... : ... .. B ... : ... .. . ... ... : ... .. . ... ... : ... .. 9 ... ... : ... .. D ... ...
ROW AC : ... .. 8 ... ... ... : ... .. D ... ... ... : G#3 00 . ... : ... .. . ... : ... .. . ... ... : ... .. 5 ... ... : ... .. . ... ... : ... .. 8 ... ...
ROW AD : ... .. 6 ... ... ... : ... .. A ... ... ... : G-3 00 . ... : ... .. A ... : ... .. . ... ... : ... .. 4 ... ... : --- .. . ... ... : --- .. . ... ...
ROW AE : ... .. 1 ... ... ... : ... .. 2 ... ... ... : D-3 00 . ... : ... .. 8 ... : ... .. . ... ... : ... .. . ... ... : ... .. . ... ... : ... .. . ... ...
ROW AF : ... .. . ... ... ... : ... .. . ... ... ... : ... .. . ... : ... .. 7 ... : ... .. . ... ... : ... .. . ... ... : ... .. . ... ... : ... .. . ... ...
ROW B0 : D-3 00 A ... ... ... : D-4 00 F ... ... ... : D-2 00 . ... : 1-# 00 F ... : ... .. . ... ... : C-3 01 6 ... ... : D-4 01 A ... ... : D-2 01 F ... ...
ROW B1 : ... .. 9 ... ... ... : ... .. E ... ... ... : ... .. . ... : ... .. C ... : ... .. . ... ... : ... .. . ... ... : ... .. 9 ... ... : ... .. D ... ...
ROW B2 : ... .. 8 ... ... ... : ... .. D ... ... ... : ... .. . ... : ... .. 6 ... : ... .. . ... ... : ... .. 5 ... ... : ... .. . ... ... : ... .. 8 ... ...
ROW B3 : ... .. 6 ... ... ... : ... .. A ... ... ... : ... .. . ... : ... .. 3 ... : ... .. . ... ... : ... .. 4 ... ... : ... .. 8 ... ... : ... .. . ... ...
ROW B4 : ... .. 1 ... ... ... : ... .. 2 ... ... ... : --- .. . ... : ... .. 2 ... : ... .. . ... ... : ... .. . ... ... : ... .. 7 ... ... : ... .. . ... ...
ROW B5 : ... .. . ... ... ... : ... .. . ... ... ... : ... .. . ... : ... .. 0 ... : ... .. . ... ... : ... .. . ... ... : ... .. . ... ... : ... .. . ... ...
ROW B6 : A-2 00 A ... ... ... : A-3 00 F ... ... ... : D-2 00 . ... : ... .. F ... : ... .. . ... ... : D-3 01 6 ... ... : --- .. . ... ... : --- .. . ... ...
ROW B7 : ... .. 9 ... ... ... : ... .. E ... ... ... : ... .. . ... : ... .. C ... : ... .. . ... ... : ... .. . ... ... : ... .. . ... ... : ... .. . ... ...
ROW B8 : ... .. 8 ... ... ... : ... .. D ... ... ... : ... .. . ... : ... .. 6 ... : ... .. . ... ... : ... .. 5 ... ... : ... .. . ... ... : ... .. . ... ...
ROW B9 : ... .. 6 ... ... ... : ... .. A ... ... ... : ... .. . ... : ... .. 3 ... : ... .. . ... ... : ... .. 4 ... ... : ... .. . ... ... : ... .. . ... ...
ROW BA : ... .. 1 ... ... ... : ... .. 2 ... ... ... : --- .. . ... : ... .. 2 ... : ... .. . ... ... : ... .. . ... ... : ... .. . ... ... : ... .. . ... ...
ROW BB : ... .. . ... ... ... : ... .. . ... ... ... : ... .. . ... : ... .. 0 ... : ... .. . ... ... : ... .. . ... ... : ... .. . ... ... : ... .. . ... ...
ROW BC : A#2 00 A ... ... ... : A#3 00 F ... ... ... : A-4 00 . ... : D-# 00 F ... : ... .. . ... ... : B-2 01 6 ... ... : A#3 01 A ... ... : A#1 01 F ... ...
ROW BD : ... .. 9 ... ... ... : ... .. E ... ... ... : B-3 00 . ... : ... .. . ... : ... .. . ... ... : ... .. . ... ... : ... .. 9 ... ... : ... .. D ... ...
ROW BE : ... .. 8 ... ... ... : ... .. D ... ... ... : E-3 00 . ... : ... .. . ... : ... .. . ... ... : ... .. 5 ... ... : ... .. . ... ... : ... .. 8 ... ...
ROW BF : ... .. 6 ... ... ... : ... .. A ... ... ... : D#3 00 . ... : C-# 00 D ... : ... .. . ... ... : ... .. 4 ... ... : --- .. . ... ... : --- .. . ... ...
ROW C0 : ... .. 1 ... ... ... : ... .. 2 ... ... ... : A#2 00 . ... : ... .. . ... : ... .. . ... ... : ... .. . ... ... : ... .. . ... ... : ... .. . ... ...
ROW C1 : ... .. . ... ... ... : ... .. . ... ... ... : ... .. . ... : ... .. . ... : ... .. . ... ... : ... .. . ... ... : ... .. . ... ... : ... .. . ... ...
ROW C2 : C#3 00 A ... ... ... : C#4 00 F ... ... ... : A#1 00 . ... : B-# 00 B ... : ... .. . ... ... : C-3 01 6 ... ... : A#3 01 A ... ... : A#1 01 F ... ...
ROW C3 : ... .. 9 ... ... ... : ... .. E ... ... ... : ... .. . ... : ... .. . ... : ... .. . ... ... : ... .. . ... ... : ... .. 9 ... ... : ... .. D ... ...
ROW C4 : ... .. 8 ... ... ... : ... .. D ... ... ... : ... .. . ... : ... .. . ... : ... .. . ... ... : ... .. 5 ... ... : ... .. . ... ... : ... .. 8 ... ...
ROW C5 : ... .. 6 ... ... ... : ... .. A ... ... ... : ... .. . ... : ... .. 9 ... : ... .. . ... ... : ... .. 4 ... ... : ... .. 8 ... ... : ... .. . ... ...
ROW C6 : ... .. 1 ... ... ... : ... .. 2 ... ... ... : --- .. . ... : ... .. . ... : ... .. . ... ... : ... .. . ... ... : ... .. 7 ... ... : ... .. . ... ...
ROW C7 : ... .. . ... ... ... : ... .. . ... ... ... : ... .. . ... : ... .. . ... : ... .. . ... ... : ... .. . ... ... : ... .. . ... ... : ... .. . ... ...
ROW C8 : F-3 00 A ... ... ... : F-4 00 F ... ... ... : A#1 00 . ... : ... .. 7 ... : ... .. . ... ... : D-3 01 6 ... ... : --- .. . ... ... : --- .. . ... ...
ROW C9 : ... .. 9 ... ... ... : ... .. E ... ... ... : ... .. . ... : ... .. . ... : ... .. . ... ... : ... .. . ... ... : ... .. . ... ... : ... .. . ... ...
ROW CA : ... .. 8 ... ... ... : ... .. D ... ... ... : ... .. . ... : ... .. . ... : ... .. . ... ... : ... .. 5 ... ... : ... .. . ... ... : ... .. . ... ...
ROW CB : ... .. 6 ... ... ... : ... .. A ... ... ... : ... .. . ... : ... .. 5 ... : ... .. . ... ... : ... .. 4 ... ... : ... .. . ... ... : ... .. . ... ...
ROW CC : ... .. 1 ... ... ... : ... .. 2 ... ... ... : --- .. . ... : ... .. . ... : ... .. . ... ... : ... .. . ... ... : ... .. . ... ... : ... .. . ... ...
ROW CD : ... .. . ... ... ... : ... .. . ... ... ... : ... .. . ... : ... .. . ... : ... .. . ... ... : ... .. . ... ... : ... .. . ... ... : ... .. . ... ...
ROW CE : A#3 00 A ... ... ... : A#4 00 F ... ... ... : A-4 00 . ... : D-# 00 F ... : ... .. . ... ... : D#3 01 6 ... ... : A#3 01 A ... ... : A#1 01 F ... ...
ROW CF : ... .. 9 ... ... ... : ... .. E ... ... ... : B-3 00 . ... : ... .. C ... : ... .. . ... ... : ... .. . ... ... : ... .. 9 ... ... : ... .. D ... ...
ROW D0 : ... .. 8 ... ... ... : ... .. D ... ... ... : E-3 00 . ... : ... .. 6 ... : ... .. . ... ... : ... .. 5 ... ... : ... .. . ... ... : ... .. 8 ... ...
ROW D1 : ... .. 6 ... ... ... : ... .. A ... ... ... : D#3 00 . ... : ... .. 3 ... : ... .. . ... ... : ... .. 4 ... ... : --- .. . ... ... : --- .. . ... ...
ROW D2 : ... .. 1 ... ... ... : ... .. 2 ... ... ... : A#2 00 . ... : ... .. 2 ... : ... .. . ... ... : ... .. . ... ... : ... .. . ... ... : ... .. . ... ...
ROW D3 : ... .. . ... ... ... : ... .. . ... ... ... : ... .. . ... : ... .. 0 ... : ... .. . ... ... : ... .. . ... ... : ... .. . ... ... : ... .. . ... ...
ROW D4 : C#4 00 A ... ... ... : C#5 00 F ... ... ... : A#1 00 . ... : B-# 00 F ... : ... .. . ... ... : F-3 01 6 ... ... : A#3 01 A ... ... : A#1 01 F ... ...
ROW D5 : ... .. 9 ... ... ... : ... .. E ... ... ... : ... .. . ... : ... .. C ... : ... .. . ... ... : ... .. . ... ... : ... .. 9 ... ... : ... .. D ... ...
ROW D6 : ... .. 8 ... ... ... : ... .. D ... ... ... : ... .. . ... : ... .. 6 ... : ... .. . ... ... : ... .. 5 ... ... : ... .. . ... ... : ... .. 8 ... ...
ROW D7 : ... .. 6 ... ... ... : ... .. A ... ... ... : ... .. . ... : ... .. 3 ... : ... .. . ... ... : ... .. 4 ... ... : ... .. 8 ... ... : ... .. . ... ...
ROW D8 : ... .. 1 ... ... ... : ... .. 2 ... ... ... : --- .. . ... : ... .. 2 ... : ... .. . ... ... : ... .. . ... ... : ... .. 7 ... ... : ... .. . ... ...
ROW D9 : ... .. . ... ... ... : ... .. . ... ... ... : ... .. . ... : ... .. 0 ... : ... .. . ... ... : ... .. . ... ... : ... .. . ... ... : ... .. . ... ...
ROW DA : F-4 00 A ... ... ... : F-5 00 F ... ... ... : A#1 00 . ... : 8-# 00 F ... : ... .. . ... ... : F#3 01 6 ... ... : --- .. . ... ... : --- .. . ... ...
ROW DB : ... .. 9 ... ... ... : ... .. E ... ... ... : ... .. . ... : ... .. C ... : ... .. . ... ... : ... .. . ... ... : ... .. . ... ... : ... .. . ... ...
ROW DC : ... .. 8 ... ... ... : ... .. D ... ... ... : ... .. . ... : ... .. 6 ... : ... .. . ... ... : ... .. 5 ... ... : ... .. . ... ... : ... .. . ... ...
ROW DD : ... .. 6 ... ... ... : ... .. A ... ... ... : ... .. . ... : ... .. 3 ... : ... .. . ... ... : ... .. 4 ... ... : ... .. . ... ... : ... .. . ... ...
ROW DE : ... .. 1 ... ... ... : ... .. 2 ... ... ... : --- .. . ... : ... .. 2 ... : ... .. . ... ... : ... .. . ... ... : ... .. . ... ... : ... .. . ... ...
ROW DF : ... .. . ... ... ... : ... .. . ... ... ... : ... .. . ... : ... .. 0 ... : ... .. . ... ... : ... .. . ... ... : ... .. . ... ... : ... .. . ... ...
ROW E0 : B-4 00 8 ... ... ... : F#4 00 9 ... ... ... : A#3 00 . ... : D-# 00 F ... : ... .. . ... ... : F#2 01 5 ... ... : B-3 01 5 ... V03 : B-1 01 F ... ...
ROW E1 : ... .. 7 ... ... ... : ... .. 8 ... ... ... : C-3 00 . ... : ... .. . ... : ... .. . ... ... : ... .. 4 ... ... : ... .. 4 ... ... : ... .. D ... ...
ROW E2 : ... .. . ... ... ... : ... .. 7 ... ... ... : F-2 00 . ... : ... .. . ... : ... .. . ... ... : ... .. . ... ... : ... .. . ... ... : ... .. 8 ... ...
ROW E3 : ... .. 6 ... ... ... : ... .. 6 ... ... ... : E-2 00 . ... : C-# 00 D ... : ... .. . ... ... : ... .. 3 ... ... : ... .. 3 ... ... : ... .. . ... ...
ROW E4 : ... .. 5 ... ... ... : ... .. . ... ... ... : B-1 00 . ... : ... .. . ... : ... .. . ... ... : ... .. . ... ... : ... .. . ... ... : ... .. . ... ...
ROW E5 : ... .. 4 ... ... ... : ... .. . ... ... ... : ... .. . ... : ... .. . ... : ... .. . ... ... : ... .. . ... ... : ... .. . ... ... : ... .. . ... ...
ROW E6 : C-5 00 8 ... ... ... : ... .. . ... ... ... : ... .. . ... : B-# 00 B ... : ... .. . ... ... : G-2 01 5 ... ... : C-4 01 5 ... ... : ... .. . ... ...
ROW E7 : ... .. 7 ... ... ... : ... .. . ... ... ... : ... .. . ... : ... .. . ... : ... .. . ... ... : ... .. 4 ... ... : ... .. 4 ... ... : ... .. . ... ...
ROW E8 : ... .. . ... ... ... : ... .. . ... ... ... : ... .. . ... : ... .. . ... : ... .. . ... ... : ... .. . ... ... : ... .. . ... ... : ... .. . ... ...
ROW E9 : ... .. 6 ... ... ... : ... .. . ... ... ... : ... .. . ... : ... .. 9 ... : ... .. . ... ... : ... .. 3 ... ... : ... .. 3 ... ... : ... .. . ... ...
ROW EA : ... .. 5 ... ... ... : ... .. . ... ... ... : --- .. . ... : ... .. . ... : ... .. . ... ... : ... .. . ... ... : ... .. . ... ... : ... .. 4 ... ...
ROW EB : ... .. 4 ... ... ... : ... .. . ... ... ... : ... .. . ... : ... .. . ... : ... .. . ... ... : ... .. . ... ... : ... .. . ... ... : ... .. . ... ...
ROW EC : B-4 00 8 ... ... ... : ... .. . ... ... ... : B-1 00 . ... : ... .. 7 ... : ... .. . ... ... : A-2 01 5 ... ... : A-3 01 5 ... ... : F-2 01 F ... ...
ROW ED : ... .. 7 ... ... ... : ... .. . ... ... ... : ... .. . ... : ... .. . ... : ... .. . ... ... : ... .. 4 ... ... : ... .. 4 ... ... : ... .. D ... ...
ROW EE : ... .. . ... ... ... : ... .. . ... ... ... : ... .. . ... : ... .. . ... : ... .. . ... ... : ... .. . ... ... : ... .. . ... ... : ... .. 8 ... ...
ROW EF : ... .. 6 ... ... ... : ... .. 7 ... ... ... : ... .. . ... : ... .. 5 ... : ... .. . ... ... : ... .. 3 ... ... : ... .. 3 ... ... : ... .. . ... ...
ROW F0 : ... .. 5 ... ... ... : ... .. . ... ... ... : --- .. . ... : ... .. . ... : ... .. . ... ... : ... .. . ... ... : ... .. . ... ... : ... .. . ... ...
ROW F1 : ... .. 4 ... ... ... : ... .. . ... ... ... : ... .. . ... : ... .. . ... : ... .. . ... ... : ... .. . ... ... : ... .. . ... ... : ... .. . ... ...
ROW F2 : F#4 00 8 ... ... ... : ... .. . P81 ... ... : B-1 00 . ... : D-# 00 D ... : ... .. . ... ... : B-2 01 5 ... ... : B-3 01 5 ... ... : ... .. . ... ...
ROW F3 : ... .. 7 ... ... ... : ... .. . ... ... ... : ... .. . ... : ... .. B ... : ... .. . ... ... : ... .. 4 ... ... : ... .. 4 ... ... : ... .. . ... ...
ROW F4 : ... .. . ... ... ... : ... .. . ... ... ... : ... .. . ... : ... .. . ... : ... .. . ... ... : ... .. . ... ... : ... .. . ... ... : ... .. . ... ...
ROW F5 : ... .. 6 ... ... ... : ... .. 8 P82 ... ... : ... .. . ... : ... .. A ... : ... .. . ... ... : ... .. 3 ... ... : ... .. 3 ... ... : ... .. . ... ...
ROW F6 : ... .. 5 ... ... ... : ... .. . ... ... ... : --- .. . ... : ... .. 8 ... : ... .. . ... ... : ... .. . ... ... : ... .. . ... ... : ... .. 4 ... ...
ROW F7 : ... .. 4 ... ... ... : ... .. . ... ... ... : ... .. . ... : ... .. 7 ... : ... .. . ... ... : ... .. . ... ... : ... .. . ... ... : ... .. . ... ...
ROW F8 : F-4 00 8 ... ... ... : ... .. . ... ... ... : B-1 00 . ... : 1-# 00 F ... : ... .. . ... ... : C-3 01 5 ... ... : C-4 01 5 ... ... : E-2 01 F ... ...
ROW F9 : ... .. 7 ... ... ... : ... .. . ... ... ... : ... .. . ... : ... .. C ... : ... .. . ... ... : ... .. 4 ... ... : ... .. 4 ... ... : ... .. D ... ...
ROW FA : ... .. . ... ... ... : ... .. . ... ... ... : ... .. . ... : ... .. 6 ... : ... .. . ... ... : ... .. . ... ... : ... .. . ... ... : ... .. 8 ... ...
ROW FB : ... .. 6 ... ... ... : ... .. . P83 ... ... : ... .. . ... : ... .. 3 ... : ... .. . ... ... : ... .. 3 ... ... : ... .. 3 ... ... : ... .. . ... ...
ROW FC : ... .. 5 ... ... ... : ... .. . ... ... ... : --- .. . ... : ... .. 2 ... : ... .. . ... ... : ... .. . ... ... : ... .. . ... ... : ... .. . ... ...
ROW FD : ... .. 4 ... ... ... : ... .. . ... ... ... : ... .. . ... : ... .. 0 ... : ... .. . ... ... : ... .. . ... ... : ... .. . ... ... : ... .. . ... ...
ROW FE : B-3 00 8 ... ... ... : ... .. . P84 ... ... : B-1 00 . ... : A-# 00 F ... : ... .. . ... ... : D-3 01 5 ... ... : D-4 01 5 ... ... : ... .. . ... ...
ROW FF : ... .. 7 ... ... ... : ... .. . ... ... ... : ... .. . ... : ... .. C ... : ... .. . ... ... : ... .. 4 ... ... : ... .. 4 ... ... : ... .. . ... ...

PATTERN 08
ROW 00 : ... .. . ... ... ... : ... .. . ... ... ... : ... .. . ... : ... .. 6 ... : ... .. . ... ... : ... .. . ... ... : ... .. . ... ... : ... .. . ... ...
ROW 01 : ... .. 6 ... ... ... : G-4 00 9 P7D ... ... : ... .. . ... : ... .. 3 ... : ... .. . ... ... : ... .. 3 ... ... : ... .. 3 ... ... : ... .. . ... ...
ROW 02 : ... .. 5 ... ... ... : ... .. . ... ... ... : --- .. . ... : ... .. 2 ... : ... .. . ... ... : ... .. . ... ... : ... .. . ... ... : ... .. 4 ... ...
ROW 03 : ... .. 4 ... ... ... : ... .. . ... ... ... : ... .. . ... : ... .. 0 ... : ... .. . ... ... : ... .. . ... ... : ... .. . ... ... : ... .. . ... ...
ROW 04 : A-3 00 8 ... ... ... : ... .. . ... ... ... : B-1 00 . ... : 5-# 00 D ... : ... .. . ... ... : B-2 01 5 ... ... : B-3 01 5 ... ... : D-2 01 F ... ...
ROW 05 : ... .. 7 ... ... ... : ... .. . ... ... ... : ... .. . ... : ... .. B ... : ... .. . ... ... : ... .. 4 ... ... : ... .. 4 ... ... : ... .. D ... ...
ROW 06 : ... .. . ... ... ... : ... .. . ... ... ... : ... .. . ... : ... .. . ... : ... .. . ... ... : ... .. . ... ... : ... .. . ... ... : ... .. 8 ... ...
ROW 07 : ... .. 6 ... ... ... : ... .. . P7E ... ... : ... .. . ... : ... .. A ... : ... .. . ... ... : ... .. 3 ... ... : ... .. 3 ... ... : ... .. . ... ...
ROW 08 : ... .. 5 ... ... ... : ... .. . ... ... ... : --- .. . ... : ... .. 8 ... : ... .. . ... ... : ... .. . ... ... : ... .. . ... ... : ... .. . ... ...
ROW 09 : ... .. 4 ... ... ... : ... .. . ... ... ... : ... .. . ... : ... .. 7 ... : ... .. . ... ... : ... .. . ... ... : ... .. . ... ... : ... .. . ... ...
ROW 0A : B-3 00 8 ... ... ... : ... .. A P7F ... ... : B-1 00 . ... : 0-# 00 F ... : ... .. . ... ... : C-3 01 5 ... ... : C-4 01 5 ... ... : ... .. . ... ...
ROW 0B : ... .. 7 ... ... ... : ... .. . ... ... ... : ... .. . ... : ... .. C ... : ... .. . ... ... : ... .. 4 ... ... : ... .. 4 ... ... : ... .. . ... ...
ROW 0C : ... .. . ... ... ... : ... .. . ... ... ... : ... .. . ... : ... .. 6 ... : ... .. . ... ... : ... .. . ... ... : ... .. . ... ... : ... .. . ... ...
ROW 0D : ... .. 6 ... ... ... : ... .. . P80 ... ... : ... .. . ... : ... .. 3 ... : ... .. . ... ... : ... .. 3 ... ... : ... .. 3 ... ... : ... .. . ... ...
ROW 0E : ... .. 5 ... ... ... : ... .. . ... ... ... : --- .. . ... : ... .. 2 ... : ... .. . ... ... : ... .. . ... ... : ... .. . ... ... : ... .. 4 ... ...
ROW 0F : ... .. 4 ... ... ... : ... .. . ... ... ... : ... .. . ... : ... .. 0 ... : ... .. . ... ... : ... .. . ... ... : ... .. . ... ... : ... .. . ... ...
ROW 10 : F-4 00 8 ... ... ... : ... .. . ... ... ... : B-1 00 . ... : D-# 00 F ... : ... .. . ... ... : D-3 01 5 ... ... : A-3 01 5 ... ... : B-1 01 F ... ...
ROW 11 : ... .. 7 ... ... ... : ... .. . ... ... ... : ... .. . ... : ... .. C ... : ... .. . ... ... : ... .. 4 ... ... : ... .. 4 ... ... : ... .. D ... ...
ROW 12 : ... .. . ... ... ... : ... .. . ... ... ... : ... .. . ... : ... .. 0 ... : ... .. . ... ... : ... .. . ... ... : ... .. . ... ... : ... .. 8 ... ...
ROW 13 : ... .. 6 ... ... ... : ... .. . ... ... ... : ... .. . ... : ... .. F ... : ... .. . ... ... : ... .. 3 ... ... : ... .. 3 ... ... : ... .. . ... ...
ROW 14 : ... .. 5 ... ... ... : ... .. . ... ... ... : --- .. . ... : ... .. C ... : ... .. . ... ... : ... .. . ... ... : ... .. . ... ... : ... .. . ... ...
ROW 15 : ... .. 4 ... ... ... : ... .. . ... ... ... : ... .. . ... : ... .. 0 ... : ... .. . ... ... : ... .. . ... ... : ... .. . ... ... : ... .. . ... ...
ROW 16 : A-4 00 8 ... ... ... : ... .. . P84 ... ... : B-1 00 . ... : ... .. F ... : ... .. . ... ... : D#3 01 5 ... ... : B-3 01 5 ... ... : ... .. . ... ...
ROW 17 : ... .. 7 ... ... ... : G#4 00 A P7E ... ... : ... .. . ... : ... .. C ... : ... .. . ... ... : ... .. 4 ... ... : ... .. 4 ... ... : ... .. . ... ...
ROW 18 : ... .. . ... ... ... : ... .. . P7D ... ... : ... .. . ... : ... .. 0 ... : ... .. . ... ... : ... .. . ... ... : ... .. . ... ... : ... .. . ... ...
ROW 19 : ... .. 6 ... ... ... : G-4 00 A P82 ... ... : ... .. . ... : ... .. . ... : ... .. . ... ... : ... .. 3 ... ... : ... .. 3 ... ... : ... .. . ... ...
ROW 1A : ... .. 5 ... ... ... : ... .. . P7E ... ... : --- .. . ... : ... .. . ... : ... .. . ... ... : ... .. . ... ... : ... .. . ... ... : ... .. . ... ...
ROW 1B : ... .. 4 ... ... ... : F#4 00 A P83 ... ... : ... .. . ... : ... .. . ... : ... .. . ... ... : ... .. . ... ... : ... .. . ... ... : ... .. . ... ...
ROW 1C : B-4 00 8 ... ... ... : ... .. . P82 ... ... : B-1 00 . ... : 5-# 00 D ... : ... .. . ... ... : F-3 01 5 ... ... : C-4 01 5 ... ... : ... .. . ... ...
ROW 1D : ... .. 7 ... ... ... : ... .. . P84 ... ... : ... .. . ... : ... .. B ... : ... .. . ... ... : ... .. 4 ... ... : ... .. 4 ... ... : ... .. . ... ...
ROW 1E : ... .. . ... ... ... : G-4 00 A P80 ... ... : ... .. . ... : ... .. . ... : ... .. . ... ... : ... .. . ... ... : ... .. . ... ... : ... .. . ... ...
ROW 1F : ... .. 6 ... ... ... : ... .. . P83 ... ... : ... .. . ... : ... .. A ... : ... .. . ... ... : ... .. 3 ... ... : ... .. 3 ... ... : ... .. . ... ...
ROW 20 : ... .. 5 ... ... ... : G#4 00 A P7E ... ... : --- .. . ... : ... .. 8 ... : ... .. . ... ... : ... .. . ... ... : ... .. . ... ... : ... .. . ... ...
ROW 21 : ... .. 4 ... ... ... : ... .. . ... ... ... : ... .. . ... : ... .. 7 ... : ... .. . ... ... : ... .. . ... ... : ... .. . ... ... : ... .. . ... ...
ROW 22 : C-5 00 8 ... ... ... : G-4 00 A P82 ... ... : B-1 00 . ... : F-# 00 D ... : ... .. . ... ... : F#3 01 5 ... ... : D-4 01 5 ... ... : ... .. . ... ...
ROW 23 : ... .. 7 ... ... ... : ... .. . P7F ... ... : ... .. . ... : ... .. B ... : ... .. . ... ... : ... .. 4 ... ... : ... .. 4 ... ... : ... .. . ... ...
ROW 24 : ... .. . ... ... ... : F#4 00 A P83 ... ... : ... .. . ... : ... .. . ... : ... .. . ... ... : ... .. . ... ... : ... .. . ... ... : ... .. . ... ...
ROW 25 : ... .. 6 ... ... ... : ... .. . P82 ... ... : ... .. . ... : ... .. A ... : ... .. . ... ... : ... .. 3 ... ... : ... .. 3 ... ... : ... .. . ... ...
ROW 26 : ... .. 5 ... ... ... : ... .. . P84 ... ... : --- .. . ... : ... .. 8 ... : ... .. . ... ... : ... .. . ... ... : ... .. . ... ... : ... .. 4 ... ...
ROW 27 : ... .. 4 ... ... ... : G-4 00 A P80 ... ... : ... .. . ... : ... .. 7 ... : ... .. . ... ... : ... .. . ... ... : ... .. . ... ... : ... .. . ... ...
ROW 28 : B-4 00 8 ... ... ... : ... .. . P83 ... ... : B-1 00 . ... : 1-# 00 F ... : ... .. . ... ... : F#2 01 5 ... ... : D#4 01 5 ... ... : ... .. F ... ...
ROW 29 : ... .. 7 ... ... ... : G#4 00 A P7E ... ... : ... .. . ... : ... .. C ... : ... .. . ... ... : ... .. 4 ... ... : ... .. 4 ... ... : ... .. D ... ...
ROW 2A : ... .. . ... ... ... : ... .. . ... ... ... : ... .. . ... : ... .. 6 ... : ... .. . ... ... : ... .. . ... ... : ... .. . ... ... : ... .. 8 ... ...
ROW 2B : ... .. 6 ... ... ... : G-4 00 A P83 ... ... : ... .. . ... : ... .. 3 ... : ... .. . ... ... : ... .. 3 ... ... : ... .. 3 ... ... : ... .. . ... ...
ROW 2C : ... .. 5 ... ... ... : ... .. . P80 ... ... : --- .. . ... : ... .. 2 ... : ... .. . ... ... : ... .. . ... ... : ... .. . ... ... : ... .. . ... ...
ROW 2D : ... .. 4 ... ... ... : F#4 00 A P84 ... ... : ... .. . ... : ... .. 0 ... : ... .. . ... ... : ... .. . ... ... : ... .. . ... ... : ... .. . ... ...
ROW 2E : C-5 00 8 ... ... ... : ... .. . P82 ... ... : B-1 00 . ... : D-# 00 F ... : ... .. . ... ... : G-2 01 5 ... ... : F-4 01 5 ... ... : ... .. . ... ...
ROW 2F : ... .. 7 ... ... ... : ... .. . P83 ... ... : ... .. . ... : ... .. C ... : ... .. . ... ... : ... .. 4 ... ... : ... .. 4 ... ... : ... .. . ... ...
ROW 30 : ... .. . ... ... ... : G-4 00 A P7F ... ... : ... .. . ... : ... .. 6 ... : ... .. . ... ... : ... .. . ... ... : ... .. . ... ... : ... .. . ... ...
ROW 31 : ... .. 6 ... ... ... : ... .. . P82 ... ... : ... .. . ... : ... .. 3 ... : ... .. . ... ... : ... .. 3 ... ... : ... .. 3 ... ... : ... .. . ... ...
ROW 32 : ... .. 5 ... ... ... : G#4 00 A P7E ... ... : --- .. . ... : ... .. 2 ... : ... .. . ... ... : ... .. . ... ... : ... .. . ... ... : ... .. 4 ... ...
ROW 33 : ... .. 4 ... ... ... : ... .. . ... ... ... : ... .. . ... : ... .. 0 ... : ... .. . ... ... : ... .. . ... ... : ... .. . ... ... : ... .. . ... ...
ROW 34 : B-4 00 8 ... ... ... : G-4 00 A P83 ... ... : B-1 00 . ... : ... .. F ... : ... .. . ... ... : A-2 01 5 ... ... : B-3 01 5 ... ... : F-2 01 F ... ...
ROW 35 : ... .. 7 ... ... ... : ... .. . P80 ... ... : ... .. . ... : ... .. C ... : ... .. . ... ... : ... .. 4 ... ... : ... .. 4 ... ... : ... .. D ... ...
ROW 36 : ... .. . ... ... ... : F#4 00 A P84 ... ... : ... .. . ... : ... .. 6 ... : ... .. . ... ... : ... .. . ... ... : ... .. . ... ... : ... .. 8 ... ...
ROW 37 : ... .. 6 ... ... ... : ... .. . P82 ... ... : ... .. . ... : ... .. 3 ... : ... .. . ... ... : ... .. 3 ... ... : ... .. 3 ... ... : ... .. . ... ...
ROW 38 : ... .. 5 ... ... ... : ... .. . P83 ... ... : --- .. . ... : ... .. 2 ... : ... .. . ... ... : ... .. . ... ... : ... .. . ... ... : ... .. . ... ...
ROW 39 : ... .. 4 ... ... ... : G-4 00 A P7E ... ... : ... .. . ... : ... .. 0 ... : ... .. . ... ... : ... .. . ... ... : ... .. . ... ... : ... .. . ... ...
ROW 3A : F#4 00 8 ... ... ... : ... .. . P82 ... ... : B-1 00 . ... : 5-# 00 D ... : ... .. . ... ... : B-2 01 5 ... ... : C-4 01 5 ... ... : ... .. . ... ...
ROW 3B : ... .. 7 ... ... ... : G#4 00 A P7D ... ... : ... .. . ... : ... .. B ... : ... .. . ... ... : ... .. 4 ... ... : ... .. 4 ... ... : ... .. . ... ...
ROW 3C : ... .. . ... ... ... : ... .. . P7E ... ... : ... .. . ... : ... .. . ... : ... .. . ... ... : ... .. . ... ... : ... .. . ... ... : ... .. . ... ...
ROW 3D : ... .. 6 ... ... ... : G-4 00 A P84 ... ... : ... .. . ... : ... .. A ... : ... .. . ... ... : ... .. 3 ... ... : ... .. 3 ... ... : ... .. . ... ...
ROW 3E : ... .. 5 ... ... ... : ... .. . P80 ... ... : --- .. . ... : ... .. 8 ... : ... .. . ... ... : ... .. . ... ... : ... .. . ... ... : ... .. 4 ... ...
ROW 3F : ... .. 4 ... ... ... : ... .. . P7D ... ... : ... .. . ... : ... .. 7 ... : ... .. . ... ... : ... .. . ... ... : ... .. . ... ... : ... .. . ... ...
ROW 40 : F-4 00 8 ... ... ... : F#4 00 A P82 ... ... : B-1 00 . ... : F-# 00 D ... : ... .. . ... ... : C-3 01 5 ... ... : A-3 01 5 ... ... : E-2 01 F ... ...
ROW 41 : ... .. 7 ... ... ... : ... .. . ... ... ... : ... .. . ... : ... .. B ... : ... .. . ... ... : ... .. 4 ... ... : ... .. 4 ... ... : ... .. D ... ...
ROW 42 : ... .. . ... ... ... : G-4 00 A P7E ... ... : ... .. . ... : ... .. . ... : ... .. . ... ... : ... .. . ... ... : ... .. . ... ... : ... .. 8 ... ...
ROW 43 : ... .. 6 ... ... ... : ... .. 9 P81 ... ... : ... .. . ... : ... .. A ... : ... .. . ... ... : ... .. 3 ... ... : ... .. 3 ... ... : ... .. . ... ...
ROW 44 : ... .. 5 ... ... ... : G#4 00 9 P7D ... ... : --- .. . ... : ... .. 8 ... : ... .. . ... ... : ... .. . ... ... : ... .. . ... ... : ... .. . ... ...
ROW 45 : ... .. 4 ... ... ... : ... .. . P7E ... ... : ... .. . ... : ... .. 7 ... : ... .. . ... ... : ... .. . ... ... : ... .. . ... ... : ... .. . ... ...
ROW 46 : B-3 00 8 ... ... ... : G-4 00 9 P84 ... ... : B-1 00 . ... : 1-# 00 F ... : ... .. . ... ... : D-3 01 5 ... ... : B-3 01 5 ... ... : ... .. . ... ...
ROW 47 : ... .. 7 ... ... ... : ... .. . P80 ... ... : ... .. . ... : ... .. C ... : ... .. . ... ... : ... .. 4 ... ... : ... .. 4 ... ... : ... .. . ... ...
ROW 48 : ... .. . ... ... ... : ... .. . P7D ... ... : ... .. . ... : ... .. 6 ... : ... .. . ... ... : ... .. . ... ... : ... .. . ... ... : ... .. . ... ...
ROW 49 : ... .. 6 ... ... ... : ... .. 8 P80 ... ... : ... .. . ... : ... .. 3 ... : ... .. . ... ... : ... .. 3 ... ... : ... .. 3 ... ... : ... .. . ... ...
ROW 4A : ... .. 5 ... ... ... : ... .. . ... ... ... : --- .. . ... : ... .. 2 ... : ... .. . ... ... : ... .. . ... ... : ... .. . ... ... : ... .. 4 ... ...
ROW 4B : ... .. 4 ... ... ... : ... .. . ... ... ... : ... .. . ... : ... .. 0 ... : ... .. . ... ... : ... .. . ... ... : ... .. . ... ... : ... .. . ... ...
ROW 4C : A-3 00 8 ... ... ... : F#4 00 D ... ... ... : B-1 00 . ... : 5-# 00 D ... : ... .. . ... ... : B-2 01 5 ... ... : C-4 01 5 ... ... : D-2 01 F ... ...
ROW 4D : ... .. 7 ... ... ... : ... .. C ... ... ... : ... .. . ... : ... .. B ... : ... .. . ... ... : ... .. 4 ... ... : ... .. 4 ... ... : ... .. D ... ...
ROW 4E : ... .. . ... ... ... : ... .. B ... ... ... : ... .. . ... : ... .. . ... : ... .. . ... ... : ... .. . ... ... : ... .. . ... ... : ... .. 8 ... ...
ROW 4F : ... .. 6 ... ... ... : ... .. 8 ... ... ... : ... .. . ... : ... .. A ... : ... .. . ... ... : ... .. 3 ... ... : ... .. 3 ... ... : ... .. . ... ...
ROW 50 : ... .. 5 ... ... ... : ... .. . ... ... ... : --- .. . ... : ... .. 8 ... : ... .. . ... ... : ... .. . ... ... : ... .. . ... ... : ... .. . ... ...
ROW 51 : ... .. 4 ... ... ... : ... .. . ... ... ... : ... .. . ... : ... .. 7 ... : ... .. . ... ... : ... .. . ... ... : ... .. . ... ... : ... .. . ... ...
ROW 52 : B-3 00 8 ... ... ... : ... .. 9 ... ... ... : B-1 00 . ... : A-# 00 F ... : ... .. . ... ... : C-3 01 5 ... ... : D-4 01 5 ... ... : ... .. . ... ...
ROW 53 : ... .. 7 ... ... ... : ... .. . ... ... ... : ... .. . ... : ... .. C ... : ... .. . ... ... : ... .. 4 ... ... : ... .. 4 ... ... : ... .. . ... ...
ROW 54 : ... .. . ... ... ... : ... .. . ... ... ... : ... .. . ... : ... .. 6 ... : ... .. . ... ... : ... .. . ... ... : ... .. . ... ... : ... .. . ... ...
ROW 55 : ... .. 6 ... ... ... : ... .. . ... ... ... : ... .. . ... : ... .. 3 ... : ... .. . ... ... : ... .. 3 ... ... : ... .. 3 ... ... : ... .. . ... ...
ROW 56 : ... .. 5 ... ... ... : ... .. . ... ... ... : --- .. . ... : ... .. 2 ... : ... .. . ... ... : ... .. . ... ... : ... .. . ... ... : ... .. 4 ... ...
ROW 57 : ... .. 4 ... ... ... : ... .. . ... ... ... : ... .. . ... : ... .. 0 ... : ... .. . ... ... : ... .. . ... ... : ... .. . ... ... : ... .. . ... ...
ROW 58 : F-4 00 8 ... ... ... : ... .. A ... ... ... : B-1 00 . ... : ... .. F ... : ... .. . ... ... : D-3 01 5 ... ... : D#4 01 5 ... ... : F-4 01 F ... ...
ROW 59 : ... .. 7 ... ... ... : ... .. . ... ... ... : ... .. . ... : ... .. C ... : ... .. . ... ... : ... .. 4 ... ... : ... .. 4 ... ... : ... .. D ... ...
ROW 5A : ... .. . ... ... ... : ... .. . ... ... ... : ... .. . ... : ... .. 6 ... : ... .. . ... ... : ... .. . ... ... : ... .. . ... ... : ... .. 8 ... ...
ROW 5B : ... .. 6 ... ... ... : ... .. . ... ... ... : ... .. . ... : ... .. 3 ... : ... .. . ... ... : ... .. 3 ... ... : ... .. 3 ... ... : ... .. . ... ...
ROW 5C : ... .. 5 ... ... ... : ... .. . ... ... ... : --- .. . ... : ... .. 2 ... : ... .. . ... ... : ... .. . ... ... : ... .. . ... ... : ... .. 4 ... ...
ROW 5D : ... .. 4 ... ... ... : ... .. . ... ... ... : ... .. . ... : ... .. 0 ... : ... .. . ... ... : ... .. . ... ... : ... .. . ... ... : ... .. . ... ...
ROW 5E : A-4 00 8 ... ... ... : ... .. . ... ... ... : B-1 00 . ... : 9-# 00 D ... : ... .. . ... ... : D#3 01 5 ... ... : F-4 01 5 ... ... : B-4 01 F ... ...
ROW 5F : ... .. 7 ... ... ... : ... .. . ... ... ... : ... .. . ... : ... .. B ... : ... .. . ... ... : ... .. 4 ... ... : ... .. 4 ... ... : ... .. D ... ...
ROW 60 : ... .. . ... ... ... : ... .. . ... ... ... : ... .. . ... : ... .. . ... : ... .. . ... ... : ... .. . ... ... : ... .. . ... ... : ... .. 8 ... ...
ROW 61 : ... .. 6 ... ... ... : ... .. . ... ... ... : ... .. . ... : ... .. A ... : ... .. . ... ... : ... .. 3 ... ... : ... .. 3 ... ... : ... .. . ... ...
ROW 62 : ... .. 5 ... ... ... : ... .. . ... ... ... : --- .. . ... : ... .. 8 ... : ... .. . ... ... : ... .. . ... ... : ... .. . ... ... : ... .. 4 ... ...
ROW 63 : ... .. 4 ... ... ... : ... .. . ... ... ... : ... .. . ... : ... .. 7 ... : ... .. . ... ... : ... .. . ... ... : ... .. . ... ... : ... .. . ... ...
ROW 64 : B-4 00 8 ... ... ... : ... .. . ... ... ... : B-1 00 . ... : 6-# 00 D ... : ... .. . ... ... : F-3 01 5 ... ... : F#4 01 5 ... ... : B-3 01 F ... ...
ROW 65 : ... .. 7 ... ... ... : ... .. . ... ... ... : ... .. . ... : ... .. B ... : ... .. . ... ... : ... .. 4 ... ... : ... .. 4 ... ... : ... .. D ... ...
ROW 66 : ... .. . ... ... ... : ... .. . ... ... ... : ... .. . ... : ... .. . ... : ... .. . ... ... : ... .. . ... ... : ... .. . ... ... : ... .. 8 ... ...
ROW 67 : ... .. 6 ... ... ... : ... .. . ... ... ... : ... .. . ... : ... .. A ... : ... .. . ... ... : ... .. 3 ... ... : ... .. 3 ... ... : ... .. . ... ...
ROW 68 : ... .. 5 ... ... ... : ... .. . ... ... ... : --- .. . ... : ... .. 8 ... : ... .. . ... ... : ... .. . ... ... : ... .. . ... ... : ... .. 4 ... ...
ROW 69 : ... .. 4 ... ... ... : ... .. . ... ... ... : ... .. . ... : ... .. 7 ... : ... .. . ... ... : ... .. . ... ... : ... .. . ... ... : ... .. . ... ...
ROW 6A : C-5 00 8 ... ... ... : ... .. . ... ... ... : B-1 00 . ... : ... .. D ... : ... .. . ... ... : F#3 01 5 ... ... : G#4 01 5 ... ... : B-2 01 F ... ...
ROW 6B : ... .. 7 ... ... ... : ... .. . ... ... ... : ... .. . ... : ... .. B ... : ... .. . ... ... : ... .. 4 ... ... : ... .. 4 ... ... : ... .. D ... ...
ROW 6C : ... .. . ... ... ... : ... .. . ... ... ... : ... .. . ... : ... .. . ... : ... .. . ... ... : ... .. . ... ... : ... .. . ... ... : ... .. 8 ... ...
ROW 6D : ... .. 6 ... ... ... : ... .. . ... ... ... : ... .. . ... : ... .. A ... : ... .. . ... ... : ... .. 3 ... ... : ... .. 3 ... ... : ... .. . ... ...
ROW 6E : ... .. 5 ... ... ... : ... .. . ... ... ... : --- .. . ... : ... .. 8 ... : ... .. . ... ... : ... .. . ... ... : ... .. . ... ... : ... .. 4 ... ...
ROW 6F : ... .. 4 ... ... ... : ... .. . ... ... ... : ... .. . ... : ... .. 7 ... : ... .. . ... ... : ... .. . ... ... : ... .. . ... ... : ... .. . ... ...
ROW 70 : B-4 00 8 ... ... ... : F-4 00 F ... ... ... : B-1 00 . ... : 1-# 00 F ... : ... .. . ... ... : F#2 01 5 ... ... : A-4 01 5 ... ... : B-1 01 F ... ...
ROW 71 : ... .. 7 ... ... ... : ... .. E ... ... ... : ... .. . ... : ... .. C ... : ... .. . ... ... : ... .. 4 ... ... : ... .. 4 ... ... : ... .. D ... ...
ROW 72 : ... .. . ... ... ... : ... .. D ... ... ... : ... .. . ... : ... .. 6 ... : ... .. . ... ... : ... .. . ... ... : ... .. . ... ... : ... .. 8 ... ...
ROW 73 : ... .. 6 ... ... ... : ... .. A ... ... ... : ... .. . ... : ... .. 3 ... : ... .. . ... ... : ... .. 3 ... ... : ... .. 3 ... ... : ... .. . ... ...
ROW 74 : ... .. 5 ... ... ... : ... .. . ... ... ... : --- .. . ... : ... .. 2 ... : ... .. . ... ... : ... .. . ... ... : ... .. . ... ... : ... .. . ... ...
ROW 75 : ... .. 4 ... ... ... : ... .. . ... ... ... : ... .. . ... : ... .. 0 ... : ... .. . ... ... : ... .. . ... ... : ... .. . ... ... : ... .. . ... ...
ROW 76 : C-5 00 8 ... ... ... : ... .. . ... ... ... : B-1 00 . ... : ... .. F ... : ... .. . ... ... : G-2 01 5 ... ... : G#4 01 5 ... ... : ... .. . ... ...
ROW 77 : ... .. 7 ... ... ... : ... .. . ... ... ... : ... .. . ... : ... .. C ... : ... .. . ... ... : ... .. 4 ... ... : ... .. 4 ... ... : ... .. . ... ...
ROW 78 : ... .. . ... ... ... : ... .. . ... ... ... : ... .. . ... : ... .. 6 ... : ... .. . ... ... : ... .. . ... ... : ... .. . ... ... : ... .. . ... ...
ROW 79 : ... .. 6 ... ... ... : ... .. . ... ... ... : ... .. . ... : ... .. 3 ... : ... .. . ... ... : ... .. 3 ... ... : ... .. 3 ... ... : ... .. . ... ...
ROW 7A : ... .. 5 ... ... ... : ... .. . ... ... ... : --- .. . ... : ... .. 2 ... : ... .. . ... ... : ... .. . ... ... : ... .. . ... ... : ... .. 4 ... ...
ROW 7B : ... .. 4 ... ... ... : ... .. . ... ... ... : ... .. . ... : ... .. 0 ... : ... .. . ... ... : ... .. . ... ... : ... .. . ... ... : ... .. . ... ...
ROW 7C : B-4 00 8 ... ... ... : ... .. 9 ... ... ... : B-1 00 . ... : D-# 00 F ... : ... .. . ... ... : A-2 01 5 ... ... : F#4 01 5 ... ... : F-2 01 F ... ...
ROW 7D : ... .. 7 ... ... ... : ... .. . ... ... ... : ... .. . ... : ... .. C ... : ... .. . ... ... : ... .. 4 ... ... : ... .. 4 ... ... : ... .. D ... ...
ROW 7E : ... .. . ... ... ... : ... .. . ... ... ... : ... .. . ... : ... .. 6 ... : ... .. . ... ... : ... .. . ... ... : ... .. . ... ... : ... .. 8 ... ...
ROW 7F : ... .. 6 ... ... ... : ... .. 8 ... ... ... : ... .. . ... : ... .. 3 ... : ... .. . ... ... : ... .. 3 ... ... : ... .. 3 ... ... : ... .. . ... ...
ROW 80 : ... .. 5 ... ... ... : ... .. . ... ... ... : --- .. . ... : ... .. 2 ... : ... .. . ... ... : ... .. . ... ... : ... .. . ... ... : ... .. . ... ...
ROW 81 : ... .. 4 ... ... ... : ... .. . ... ... ... : ... .. . ... : ... .. 0 ... : ... .. . ... ... : ... .. . ... ... : ... .. . ... ... : ... .. . ... ...
ROW 82 : F#4 00 8 ... ... ... : ... .. 7 ... ... ... : B-1 00 . ... : ... .. F ... : ... .. . ... ... : B-2 01 5 ... ... : B-4 01 5 ... ... : ... .. . ... ...
ROW 83 : ... .. 7 ... ... ... : ... .. . ... ... ... : ... .. . ... : ... .. C ... : ... .. . ... ... : ... .. 4 ... ... : ... .. 4 ... ... : ... .. . ... ...
ROW 84 : ... .. . ... ... ... : ... .. . ... ... ... : ... .. . ... : ... .. 6 ... : ... .. . ... ... : ... .. . ... ... : ... .. . ... ... : ... .. . ... ...
ROW 85 : ... .. 6 ... ... ... : ... .. . ... ... ... : ... .. . ... : ... .. 3 ... : ... .. . ... ... : ... .. 3 ... ... : ... .. 3 ... ... : ... .. . ... ...
ROW 86 : ... .. 5 ... ... ... : ... .. . ... ... ... : --- .. . ... : ... .. 2 ... : ... .. . ... ... : ... .. . ... ... : ... .. . ... ... : ... .. 4 ... ...
ROW 87 : ... .. 4 ... ... ... : ... .. . ... ... ... : ... .. . ... : ... .. 0 ... : ... .. . ... ... : ... .. . ... ... : ... .. . ... ... : ... .. . ... ...
ROW 88 : F-4 00 8 ... ... ... : ... .. . ... ... ... : B-1 00 . ... : 6-# 00 F ... : ... .. . ... ... : C-3 01 5 ... ... : A-4 01 5 ... ... : E-2 01 F ... ...
ROW 89 : ... .. 7 ... ... ... : ... .. . ... ... ... : ... .. . ... : ... .. C ... : ... .. . ... ... : ... .. 4 ... ... : ... .. 4 ... ... : ... .. D ... ...
ROW 8A : ... .. . ... ... ... : ... .. . ... ... ... : ... .. . ... : ... .. 6 ... : ... .. . ... ... : ... .. . ... ... : ... .. . ... ... : ... .. 8 ... ...
ROW 8B : ... .. 6 ... ... ... : ... .. 8 ... ... ... : ... .. . ... : ... .. 3 ... : ... .. . ... ... : ... .. 3 ... ... : ... .. 3 ... ... : ... .. . ... ...
ROW 8C : ... .. 5 ... ... ... : ... .. . ... ... ... : --- .. . ... : ... .. 2 ... : ... .. . ... ... : ... .. . ... ... : ... .. . ... ... : ... .. . ... ...
ROW 8D : ... .. 4 ... ... ... : ... .. . ... ... ... : ... .. . ... : ... .. 0 ... : ... .. . ... ... : ... .. . ... ... : ... .. . ... ... : ... .. . ... ...
ROW 8E : B-3 00 8 ... ... ... : ... .. . ... ... ... : B-1 00 . ... : F-# 00 D ... : ... .. . ... ... : D-3 01 5 ... ... : G#4 01 5 ... ... : ... .. . ... ...
ROW 8F : ... .. 7 ... ... ... : ... .. . ... ... ... : ... .. . ... : ... .. B ... : ... .. . ... ... : ... .. 4 ... ... : ... .. 4 ... ... : ... .. . ... ...
ROW 90 : ... .. . ... ... ... : ... .. . ... ... ... : ... .. . ... : ... .. . ... : ... .. . ... ... : ... .. . ... ... : ... .. . ... ... : ... .. . ... ...
ROW 91 : ... .. 6 ... ... ... : ... .. . ... ... ... : ... .. . ... : ... .. A ... : ... .. . ... ... : ... .. 3 ... ... : ... .. 3 ... ... : ... .. . ... ...
ROW 92 : ... .. 5 ... ... ... : ... .. . ... ... ... : --- .. . ... : ... .. 8 ... : ... .. . ... ... : ... .. . ... ... : ... .. . ... ... : ... .. 4 ... ...
ROW 93 : ... .. 4 ... ... ... : ... .. . ... ... ... : ... .. . ... : ... .. 7 ... : ... .. . ... ... : ... .. . ... ... : ... .. . ... ... : ... .. . ... ...
ROW 94 : A-3 00 8 ... ... ... : ... .. . P84 ... ... : B-1 00 . ... : 5-# 00 D ... : ... .. . ... ... : B-2 01 5 ... ... : B-4 01 5 ... ... : D-2 01 F ... ...
ROW 95 : ... .. 7 ... ... ... : F#4 00 8 P7D ... ... : ... .. . ... : ... .. B ... : ... .. . ... ... : ... .. 4 ... ... : ... .. 4 ... ... : ... .. D ... ...
ROW 96 : ... .. . ... ... ... : ... .. . P7C ... ... : ... .. . ... : ... .. . ... : ... .. . ... ... : ... .. . ... ... : ... .. . ... ... : ... .. 8 ... ...
ROW 97 : ... .. 6 ... ... ... : F-4 00 8 P82 ... ... : ... .. . ... : ... .. A ... : ... .. . ... ... : ... .. 3 ... ... : ... .. 3 ... ... : ... .. . ... ...
ROW 98 : ... .. 5 ... ... ... : ... .. . P7E ... ... : --- .. . ... : ... .. 8 ... : ... .. . ... ... : ... .. . ... ... : ... .. . ... ... : ... .. . ... ...
ROW 99 : ... .. 4 ... ... ... : E-4 00 8 P85 ... ... : ... .. . ... : ... .. 7 ... : ... .. . ... ... : ... .. . ... ... : ... .. . ... ... : ... .. . ... ...
ROW 9A : B-3 00 8 ... ... ... : ... .. 9 P84 ... ... : B-1 00 . ... : 0-# 00 F ... : ... .. . ... ... : C-3 01 5 ... ... : A-4 01 5 ... ... : ... .. . ... ...
ROW 9B : ... .. 7 ... ... ... : F-4 00 9 P7C ... ... : ... .. . ... : ... .. C ... : ... .. . ... ... : ... .. 4 ... ... : ... .. 4 ... ... : ... .. . ... ...
ROW 9C : ... .. . ... ... ... : ... .. . P80 ... ... : ... .. . ... : ... .. 6 ... : ... .. . ... ... : ... .. . ... ... : ... .. . ... ... : ... .. . ... ...
ROW 9D : ... .. 6 ... ... ... : ... .. . P83 ... ... : ... .. . ... : ... .. 3 ... : ... .. . ... ... : ... .. 3 ... ... : ... .. 3 ... ... : ... .. . ... ...
ROW 9E : ... .. 5 ... ... ... : F#4 00 9 P7D ... ... : --- .. . ... : ... .. 2 ... : ... .. . ... ... : ... .. . ... ... : ... .. . ... ... : ... .. 4 ... ...
ROW 9F : ... .. 4 ... ... ... : ... .. . ... ... ... : ... .. . ... : ... .. 0 ... : ... .. . ... ... : ... .. . ... ... : ... .. . ... ... : ... .. . ... ...
ROW A0 : F-4 00 8 ... ... ... : F-4 00 9 P82 ... ... : B-1 00 . ... : C-# 00 F ... : ... .. . ... ... : D-3 01 5 ... ... : G-4 01 5 ... ... : B-1 01 F ... ...
ROW A1 : ... .. 7 ... ... ... : ... .. . P7F ... ... : ... .. . ... : ... .. C ... : ... .. . ... ... : ... .. 4 ... ... : ... .. 4 ... ... : ... .. D ... ...
ROW A2 : ... .. . ... ... ... : E-4 00 9 P85 ... ... : ... .. . ... : ... .. 6 ... : ... .. . ... ... : ... .. . ... ... : ... .. . ... ... : ... .. 8 ... ...
ROW A3 : ... .. 6 ... ... ... : ... .. A P84 ... ... : ... .. . ... : ... .. 3 ... : ... .. . ... ... : ... .. 3 ... ... : ... .. 3 ... ... : ... .. . ... ...
ROW A4 : ... .. 5 ... ... ... : F-4 00 A P7C ... ... : --- .. . ... : ... .. 2 ... : ... .. . ... ... : ... .. . ... ... : ... .. . ... ... : ... .. . ... ...
ROW A5 : ... .. 4 ... ... ... : ... .. . P80 ... ... : ... .. . ... : ... .. 0 ... : ... .. . ... ... : ... .. . ... ... : ... .. . ... ... : ... .. . ... ...
ROW A6 : A-4 00 8 ... ... ... : ... .. . P83 ... ... : B-1 00 . ... : E-# 00 F ... : ... .. . ... ... : D#3 01 5 ... ... : D-5 01 5 ... ... : ... .. . ... ...
ROW A7 : ... .. 7 ... ... ... : F#4 00 A P7D ... ... : ... .. . ... : ... .. C ... : ... .. . ... ... : ... .. 4 ... ... : ... .. 4 ... ... : ... .. . ... ...
ROW A8 : ... .. . ... ... ... : ... .. . ... ... ... : ... .. . ... : ... .. 6 ... : ... .. . ... ... : ... .. . ... ... : ... .. . ... ... : ... .. . ... ...
ROW A9 : ... .. 6 ... ... ... : F-4 00 A P83 ... ... : ... .. . ... : ... .. 3 ... : ... .. . ... ... : ... .. 3 ... ... : ... .. 3 ... ... : ... .. . ... ...
ROW AA : ... .. 5 ... ... ... : ... .. . P80 ... ... : --- .. . ... : ... .. 2 ... : ... .. . ... ... : ... .. . ... ... : ... .. . ... ... : ... .. . ... ...
ROW AB : ... .. 4 ... ... ... : ... .. . P7C ... ... : ... .. . ... : ... .. 0 ... : ... .. . ... ... : ... .. . ... ... : ... .. . ... ... : ... .. . ... ...
ROW AC : B-4 00 8 ... ... ... : E-4 00 A P84 ... ... : B-1 00 . ... : 8-# 00 F ... : ... .. . ... ... : F-3 01 5 ... ... : C-5 01 5 ... ... : ... .. . ... ...
ROW AD : ... .. 7 ... ... ... : ... .. . P85 ... ... : ... .. . ... : ... .. C ... : ... .. . ... ... : ... .. 4 ... ... : ... .. 4 ... ... : ... .. . ... ...
ROW AE : ... .. . ... ... ... : F-4 00 A P7F ... ... : ... .. . ... : ... .. 6 ... : ... .. . ... ... : ... .. . ... ... : ... .. . ... ... : ... .. . ... ...
ROW AF : ... .. 6 ... ... ... : ... .. . P82 ... ... : ... .. . ... : ... .. 3 ... : ... .. . ... ... : ... .. 3 ... ... : ... .. 3 ... ... : ... .. . ... ...
ROW B0 : ... .. 5 ... ... ... : F#4 00 A P7D ... ... : --- .. . ... : ... .. 2 ... : ... .. . ... ... : ... .. . ... ... : ... .. . ... ... : ... .. . ... ...
ROW B1 : ... .. 4 ... ... ... : ... .. . ... ... ... : ... .. . ... : ... .. 0 ... : ... .. . ... ... : ... .. . ... ... : ... .. . ... ... : ... .. . ... ...
ROW B2 : C-5 00 8 ... ... ... : F-4 00 A P83 ... ... : B-1 00 . ... : ... .. F ... : ... .. . ... ... : F#3 01 5 ... ... : B-4 01 5 ... ... : ... .. . ... ...
ROW B3 : ... .. 7 ... ... ... : ... .. 2 P80 ... ... : ... .. . ... : ... .. C ... : ... .. . ... ... : ... .. 4 ... ... : ... .. 4 ... ... : ... .. . ... ...
ROW B4 : ... .. . ... ... ... : ... .. . P7C ... ... : ... .. . ... : ... .. 6 ... : ... .. . ... ... : ... .. . ... ... : ... .. . ... ... : ... .. . ... ...
ROW B5 : ... .. 6 ... ... ... : E-4 00 2 P84 ... ... : ... .. . ... : ... .. 3 ... : ... .. . ... ... : ... .. 3 ... ... : ... .. 3 ... ... : ... .. . ... ...
ROW B6 : ... .. 5 ... ... ... : ... .. 1 P85 ... ... : --- .. . ... : ... .. 2 ... : ... .. . ... ... : ... .. . ... ... : ... .. . ... ... : ... .. 4 ... ...
ROW B7 : ... .. 4 ... ... ... : F-4 00 1 P7E ... ... : ... .. . ... : ... .. 0 ... : ... .. . ... ... : ... .. . ... ... : ... .. . ... ... : ... .. . ... ...
ROW B8 : F-4 00 A ... ... ... : F-6 00 F P80 ... ... : C#5 00 . ... : 5-# 00 D ... : ... .. . ... ... : F#2 01 5 ... ... : D-5 01 5 ... ... : D-2 01 F ... ...
ROW B9 : ... .. 9 ... ... ... : ... .. E ... ... ... : D#4 00 . ... : ... .. B ... : ... .. . ... ... : ... .. 4 ... ... : ... .. 4 ... ... : ... .. D ... ...
ROW BA : ... .. 8 ... ... ... : ... .. D ... ... ... : G#3 00 . ... : ... .. . ... : ... .. . ... ... : ... .. . ... ... : ... .. . ... ... : ... .. 8 ... ...
ROW BB : ... .. 6 ... ... ... : ... .. A ... ... ... : G-3 00 . ... : ... .. A ... : ... .. . ... ... : ... .. 3 ... ... : ... .. 3 ... ... : --- .. . ... ...
ROW BC : ... .. 1 ... ... ... : ... .. 2 ... ... ... : D-3 00 . ... : ... .. 8 ... : ... .. . ... ... : ... .. . ... ... : ... .. . ... ... : ... .. . ... ...
ROW BD : ... .. . ... ... ... : ... .. . ... ... ... : ... .. . ... : ... .. 7 ... : ... .. . ... ... : ... .. . ... ... : ... .. . ... ... : ... .. . ... ...
ROW BE : D-4 00 A ... ... ... : D-5 00 F ... ... ... : D-2 00 . ... : 1-# 00 F ... : ... .. . ... ... : G-2 01 5 ... ... : A-4 01 5 ... ... : D-2 01 F ... ...
ROW BF : ... .. 9 ... ... ... : ... .. E ... ... ... : ... .. . ... : ... .. C ... : ... .. . ... ... : ... .. 4 ... ... : ... .. 4 ... ... : ... .. D ... ...
ROW C0 : ... .. 8 ... ... ... : ... .. D ... ... ... : ... .. . ... : ... .. 6 ... : ... .. . ... ... : ... .. . ... ... : ... .. . ... ... : ... .. 8 ... ...
ROW C1 : ... .. 6 ... ... ... : ... .. A ... ... ... : ... .. . ... : ... .. 3 ... : ... .. . ... ... : ... .. 3 ... ... : ... .. 3 ... ... : ... .. . ... ...
ROW C2 : ... .. 1 ... ... ... : ... .. 2 ... ... ... : --- .. . ... : ... .. 2 ... : ... .. . ... ... : ... .. . ... ... : ... .. . ... ... : ... .. . ... ...
ROW C3 : ... .. . ... ... ... : ... .. . ... ... ... : ... .. . ... : ... .. 0 ... : ... .. . ... ... : ... .. . ... ... : ... .. . ... ... : ... .. . ... ...
ROW C4 : A-3 00 A ... ... ... : A-4 00 F ... ... ... : D-2 00 . ... : ... .. F ... : ... .. . ... ... : A-2 01 5 ... ... : D-5 01 5 ... ... : --- .. . ... ...
ROW C5 : ... .. 9 ... ... ... : ... .. E ... ... ... : ... .. . ... : ... .. C ... : ... .. . ... ... : ... .. 4 ... ... : ... .. 4 ... ... : ... .. . ... ...
ROW C6 : ... .. 8 ... ... ... : ... .. D ... ... ... : ... .. . ... : ... .. 6 ... : ... .. . ... ... : ... .. . ... ... : ... .. . ... ... : ... .. . ... ...
ROW C7 : ... .. 6 ... ... ... : ... .. A ... ... ... : ... .. . ... : ... .. 3 ... : ... .. . ... ... : ... .. 3 ... ... : ... .. 3 ... ... : ... .. . ... ...
ROW C8 : ... .. 1 ... ... ... : ... .. 2 ... ... ... : --- .. . ... : ... .. 2 ... : ... .. . ... ... : ... .. . ... ... : ... .. . ... ... : ... .. . ... ...
ROW C9 : ... .. . ... ... ... : ... .. . ... ... ... : ... .. . ... : ... .. 0 ... : ... .. . ... ... : ... .. . ... ... : ... .. . ... ... : ... .. . ... ...
ROW CA : F-3 00 A ... ... ... : F-4 00 F ... ... ... : C#5 00 . ... : 5-# 00 D ... : ... .. . ... ... : B-2 01 5 ... ... : F-5 01 5 ... ... : D-2 01 F ... ...
ROW CB : ... .. 9 ... ... ... : ... .. E ... ... ... : D#4 00 . ... : ... .. B ... : ... .. . ... ... : ... .. 4 ... ... : ... .. 4 ... ... : ... .. D ... ...
ROW CC : ... .. 8 ... ... ... : ... .. D ... ... ... : G#3 00 . ... : ... .. . ... : ... .. . ... ... : ... .. . ... ... : ... .. . ... ... : ... .. 8 ... ...
ROW CD : ... .. 6 ... ... ... : ... .. A ... ... ... : G-3 00 . ... : ... .. A ... : ... .. . ... ... : ... .. 3 ... ... : ... .. 3 ... ... : --- .. . ... ...
ROW CE : ... .. 1 ... ... ... : ... .. 2 ... ... ... : D-3 00 . ... : ... .. 8 ... : ... .. . ... ... : ... .. . ... ... : ... .. . ... ... : ... .. . ... ...
ROW CF : ... .. . ... ... ... : ... .. . ... ... ... : ... .. . ... : ... .. 7 ... : ... .. . ... ... : ... .. . ... ... : ... .. . ... ... : ... .. . ... ...
ROW D0 : D-3 00 A ... ... ... : D-4 00 F ... ... ... : D-2 00 . ... : 1-# 00 F ... : ... .. . ... ... : C-3 01 5 ... ... : D-5 01 5 ... ... : D-2 01 F ... ...
ROW D1 : ... .. 9 ... ... ... : ... .. E ... ... ... : ... .. . ... : ... .. C ... : ... .. . ... ... : ... .. 4 ... ... : ... .. 4 ... ... : ... .. D ... ...
ROW D2 : ... .. 8 ... ... ... : ... .. D ... ... ... : ... .. . ... : ... .. 6 ... : ... .. . ... ... : ... .. . ... ... : ... .. . ... ... : ... .. 8 ... ...
ROW D3 : ... .. 6 ... ... ... : ... .. A ... ... ... : ... .. . ... : ... .. 3 ... : ... .. . ... ... : ... .. 3 ... ... : ... .. 3 ... ... : ... .. . ... ...
ROW D4 : ... .. 1 ... ... ... : ... .. 2 ... ... ... : --- .. . ... : ... .. 2 ... : ... .. . ... ... : ... .. . ... ... : ... .. . ... ... : ... .. . ... ...
ROW D5 : ... .. . ... ... ... : ... .. . ... ... ... : ... .. . ... : ... .. 0 ... : ... .. . ... ... : ... .. . ... ... : ... .. . ... ... : ... .. . ... ...
ROW D6 : A-2 00 A ... ... ... : A-3 00 F ... ... ... : D-2 00 . ... : ... .. F ... : ... .. . ... ... : D-3 01 5 ... ... : F-5 01 5 ... ... : --- .. . ... ...
ROW D7 : ... .. 9 ... ... ... : ... .. E ... ... ... : ... .. . ... : ... .. C ... : ... .. . ... ... : ... .. 4 ... ... : ... .. 4 ... ... : ... .. . ... ...
ROW D8 : ... .. 8 ... ... ... : ... .. D ... ... ... : ... .. . ... : ... .. 6 ... : ... .. . ... ... : ... .. . ... ... : ... .. . ... ... : ... .. . ... ...
ROW D9 : ... .. 6 ... ... ... : ... .. A ... ... ... : ... .. . ... : ... .. 3 ... : ... .. . ... ... : ... .. 3 ... ... : ... .. 3 ... ... : ... .. . ... ...
ROW DA : ... .. 1 ... ... ... : ... .. 2 ... ... ... : --- .. . ... : ... .. 2 ... : ... .. . ... ... : ... .. . ... ... : ... .. . ... ... : ... .. . ... ...
ROW DB : ... .. . ... ... ... : ... .. . ... ... ... : ... .. . ... : ... .. 0 ... : ... .. . ... ... : ... .. . ... ... : ... .. . ... ... : ... .. . ... ...
ROW DC : F-4 00 A ... ... ... : F-5 00 F ... ... ... : A-4 00 . ... : 5-# 00 D ... : ... .. . ... ... : B-2 01 5 ... ... : ... .. 5 ... ... : A#1 01 F ... ...
ROW DD : ... .. 9 ... ... ... : ... .. E ... ... ... : B-3 00 . ... : ... .. B ... : ... .. . ... ... : ... .. 4 ... ... : ... .. 4 ... ... : ... .. D ... ...
ROW DE : ... .. 8 ... ... ... : ... .. D ... ... ... : E-3 00 . ... : ... .. . ... : ... .. . ... ... : ... .. . ... ... : ... .. . ... ... : ... .. 8 ... ...
ROW DF : ... .. 6 ... ... ... : ... .. A ... ... ... : D#3 00 . ... : ... .. A ... : ... .. . ... ... : ... .. 3 ... ... : ... .. 3 ... ... : --- .. . ... ...
ROW E0 : ... .. 1 ... ... ... : ... .. 2 ... ... ... : A#2 00 . ... : ... .. 8 ... : ... .. . ... ... : ... .. . ... ... : ... .. . ... ... : ... .. . ... ...
ROW E1 : ... .. . ... ... ... : ... .. . ... ... ... : ... .. . ... : ... .. 7 ... : ... .. . ... ... : ... .. . ... ... : ... .. . ... ... : ... .. . ... ...
ROW E2 : C#4 00 A ... ... ... : C#5 00 F ... ... ... : A#1 00 . ... : ... .. F ... : ... .. . ... ... : C-3 01 5 ... ... : C#5 01 5 ... ... : A#1 01 F ... ...
ROW E3 : ... .. 9 ... ... ... : ... .. E ... ... ... : ... .. . ... : ... .. C ... : ... .. . ... ... : ... .. 4 ... ... : ... .. 4 ... ... : ... .. D ... ...
ROW E4 : ... .. 8 ... ... ... : ... .. D ... ... ... : ... .. . ... : ... .. 6 ... : ... .. . ... ... : ... .. . ... ... : ... .. . ... ... : ... .. 8 ... ...
ROW E5 : ... .. 6 ... ... ... : ... .. A ... ... ... : ... .. . ... : ... .. 3 ... : ... .. . ... ... : ... .. 3 ... ... : ... .. 3 ... ... : ... .. . ... ...
ROW E6 : ... .. 1 ... ... ... : ... .. 2 ... ... ... : --- .. . ... : ... .. 2 ... : ... .. . ... ... : ... .. . ... ... : ... .. . ... ... : ... .. . ... ...
ROW E7 : ... .. . ... ... ... : ... .. . ... ... ... : ... .. . ... : ... .. 0 ... : ... .. . ... ... : ... .. . ... ... : ... .. . ... ... : ... .. . ... ...
ROW E8 : A#3 00 A ... ... ... : A#4 00 F ... ... ... : A#1 00 . ... : F-# 00 F ... : ... .. . ... ... : D-3 01 5 ... ... : A#4 01 5 ... ... : --- .. . ... ...
ROW E9 : ... .. 9 ... ... ... : ... .. E ... ... ... : ... .. . ... : ... .. C ... : ... .. . ... ... : ... .. 4 ... ... : ... .. 4 ... ... : ... .. . ... ...
ROW EA : ... .. 8 ... ... ... : ... .. D ... ... ... : ... .. . ... : ... .. 6 ... : ... .. . ... ... : ... .. . ... ... : ... .. . ... ... : ... .. . ... ...
ROW EB : ... .. 6 ... ... ... : ... .. A ... ... ... : ... .. . ... : ... .. 3 ... : ... .. . ... ... : ... .. 3 ... ... : ... .. 3 ... ... : ... .. . ... ...
ROW EC : ... .. 1 ... ... ... : ... .. 2 ... ... ... : --- .. . ... : ... .. 2 ... : ... .. . ... ... : ... .. . ... ... : ... .. . ... ... : ... .. . ... ...
ROW ED : ... .. . ... ... ... : ... .. . ... ... ... : ... .. . ... : ... .. 0 ... : ... .. . ... ... : ... .. . ... ... : ... .. . ... ... : ... .. . ... ...
ROW EE : F-3 00 A ... ... ... : F-4 00 F ... ... ... : A-4 00 . ... : D-# 00 F ... : ... .. . ... ... : D#3 01 5 ... ... : C#5 01 5 ... ... : A#1 01 F ... ...
ROW EF : ... .. 9 ... ... ... : ... .. E ... ... ... : B-3 00 . ... : ... .. C ... : ... .. . ... ... : ... .. 4 ... ... : ... .. 4 ... ... : ... .. D ... ...
ROW F0 : ... .. 8 ... ... ... : ... .. D ... ... ... : E-3 00 . ... : ... .. 6 ... : ... .. . ... ... : ... .. . ... ... : ... .. . ... ... : ... .. 8 ... ...
ROW F1 : ... .. 6 ... ... ... : ... .. A ... ... ... : D#3 00 . ... : ... .. 3 ... : ... .. . ... ... : ... .. 3 ... ... : ... .. 3 ... ... : --- .. . ... ...
ROW F2 : ... .. 1 ... ... ... : ... .. 2 ... ... ... : A#2 00 . ... : ... .. 2 ... : ... .. . ... ... : ... .. . ... ... : ... .. . ... ... : ... .. . ... ...
ROW F3 : ... .. . ... ... ... : ... .. . ... ... ... : ... .. . ... : ... .. 0 ... : ... .. . ... ... : ... .. . ... ... : ... .. . ... ... : ... .. . ... ...
ROW F4 : C#3 00 A ... ... ... : C#4 00 F ... ... ... : A#1 00 . ... : B-# 00 F ... : ... .. . ... ... : F-3 01 5 ... ... : A#4 01 5 ... ... : A#1 01 F ... ...
ROW F5 : ... .. 9 ... ... ... : ... .. E ... ... ... : ... .. . ... : ... .. C ... : ... .. . ... ... : ... .. 4 ... ... : ... .. 4 ... ... : ... .. D ... ...
ROW F6 : ... .. 8 ... ... ... : ... .. D ... ... ... : ... .. . ... : ... .. 6 ... : ... .. . ... ... : ... .. . ... ... : ... .. . ... ... : ... .. 8 ... ...
ROW F7 : ... .. 6 ... ... ... : ... .. A ... ... ... : ... .. . ... : ... .. 3 ... : ... .. . ... ... : ... .. 3 ... ... : ... .. 3 ... ... : ... .. . ... ...
ROW F8 : ... .. 1 ... ... ... : ... .. 2 ... ... ... : --- .. . ... : ... .. 2 ... : ... .. . ... ... : ... .. . ... ... : ... .. . ... ... : ... .. . ... ...
ROW F9 : ... .. . ... ... ... : ... .. . ... ... ... : ... .. . ... : ... .. 0 ... : ... .. . ... ... : ... .. . ... ... : ... .. . ... ... : ... .. . ... ...
ROW FA : A#2 00 A ... ... ... : A#3 00 F ... ... ... : A#1 00 . ... : 8-# 00 F ... : ... .. . ... ... : F#3 01 5 ... ... : F-4 01 5 ... ... : --- .. . ... ...
ROW FB : ... .. 9 ... ... ... : ... .. E ... ... ... : ... .. . ... : ... .. C ... : ... .. . ... ... : ... .. 4 ... ... : ... .. 4 ... ... : ... .. . ... ...
ROW FC : ... .. 8 ... ... ... : ... .. D ... ... ... : ... .. . ... : ... .. 6 ... : ... .. . ... ... : ... .. . ... ... : ... .. . ... ... : ... .. . ... ...
ROW FD : ... .. 6 ... ... ... : ... .. A ... ... ... : ... .. . ... : ... .. 3 ... : ... .. . ... ... : ... .. 3 ... ... : ... .. 3 ... ... : ... .. . ... ...
ROW FE : ... .. 1 ... ... ... : ... .. 2 ... ... ... : --- .. . ... : ... .. 2 ... : ... .. . ... ... : ... .. . ... ... : ... .. . ... ... : ... .. . ... ...
ROW FF : ... .. . ... ... ... : ... .. . ... ... ... : ... .. . ... : ... .. 0 ... : ... .. . ... ... : ... .. . ... ... : ... .. . ... ... : ... .. . ... ...

PATTERN 09
ROW 00 : B-4 00 8 ... ... ... : F-5 00 9 ... ... ... : A#3 00 . ... : D-# 00 F ... : ... .. . ... ... : F#2 01 5 ... ... : B-3 01 5 ... ... : B-1 01 F ... ...
ROW 01 : ... .. 7 ... ... ... : ... .. 8 ... ... ... : C-3 00 . ... : ... .. . ... : ... .. . ... ... : ... .. 4 ... ... : ... .. 4 ... ... : ... .. D ... ...
ROW 02 : ... .. . ... ... ... : ... .. 7 ... ... ... : F-2 00 . ... : ... .. . ... : ... .. . ... ... : ... .. . ... ... : ... .. . ... ... : ... .. 8 ... ...
ROW 03 : ... .. 6 ... ... ... : ... .. 6 ... ... ... : E-2 00 . ... : C-# 00 D ... : ... .. . ... ... : ... .. 3 ... ... : ... .. 3 ... ... : ... .. . ... ...
ROW 04 : ... .. 5 ... ... ... : ... .. . ... ... ... : B-1 00 . ... : ... .. . ... : ... .. . ... ... : ... .. . ... ... : ... .. . ... ... : ... .. . ... ...
ROW 05 : ... .. 4 ... ... ... : ... .. . ... ... ... : ... .. . ... : ... .. . ... : ... .. . ... ... : ... .. . ... ... : ... .. . ... ... : ... .. . ... ...
ROW 06 : C-5 00 8 ... ... ... : ... .. . ... ... ... : ... .. . ... : B-# 00 B ... : ... .. . ... ... : G-2 01 5 ... ... : C-4 01 5 ... ... : ... .. . ... ...
ROW 07 : ... .. 7 ... ... ... : ... .. . ... ... ... : ... .. . ... : ... .. . ... : ... .. . ... ... : ... .. 4 ... ... : ... .. 4 ... ... : ... .. . ... ...
ROW 08 : ... .. . ... ... ... : ... .. . ... ... ... : ... .. . ... : ... .. . ... : ... .. . ... ... : ... .. . ... ... : ... .. . ... ... : ... .. . ... ...
ROW 09 : ... .. 6 ... ... ... : ... .. . ... ... ... : ... .. . ... : ... .. 9 ... : ... .. . ... ... : ... .. 3 ... ... : ... .. 3 ... ... : ... .. . ... ...
ROW 0A : ... .. 5 ... ... ... : ... .. . ... ... ... : --- .. . ... : ... .. . ... : ... .. . ... ... : ... .. . ... ... : ... .. . ... ... : ... .. 4 ... ...
ROW 0B : ... .. 4 ... ... ... : ... .. . ... ... ... : ... .. . ... : ... .. . ... : ... .. . ... ... : ... .. . ... ... : ... .. . ... ... : ... .. . ... ...
ROW 0C : B-4 00 8 ... ... ... : ... .. . ... ... ... : B-1 00 . ... : ... .. 7 ... : ... .. . ... ... : A-2 01 5 ... ... : A-3 01 5 ... ... : F-2 01 F ... ...
ROW 0D : ... .. 7 ... ... ... : ... .. . ... ... ... : ... .. . ... : ... .. . ... : ... .. . ... ... : ... .. 4 ... ... : ... .. 4 ... ... : ... .. D ... ...
ROW 0E : ... .. . ... ... ... : ... .. . ... ... ... : ... .. . ... : ... .. . ... : ... .. . ... ... : ... .. . ... ... : ... .. . ... ... : ... .. 8 ... ...
ROW 0F : ... .. 6 ... ... ... : ... .. 7 ... ... ... : ... .. . ... : ... .. 5 ... : ... .. . ... ... : ... .. 3 ... ... : ... .. 3 ... ... : ... .. . ... ...
ROW 10 : ... .. 5 ... ... ... : ... .. . ... ... ... : --- .. . ... : ... .. . ... : ... .. . ... ... : ... .. . ... ... : ... .. . ... ... : ... .. . ... ...
ROW 11 : ... .. 4 ... ... ... : ... .. . ... ... ... : ... .. . ... : ... .. . ... : ... .. . ... ... : ... .. . ... ... : ... .. . ... ... : ... .. . ... ...
ROW 12 : F#4 00 8 ... ... ... : ... .. . ... ... ... : B-1 00 . ... : D-# 00 D ... : ... .. . ... ... : B-2 01 5 ... ... : B-3 01 5 ... ... : ... .. . ... ...
ROW 13 : ... .. 7 ... ... ... : ... .. . ... ... ... : ... .. . ... : ... .. B ... : ... .. . ... ... : ... .. 4 ... ... : ... .. 4 ... ... : ... .. . ... ...
ROW 14 : ... .. . ... ... ... : ... .. . ... ... ... : ... .. . ... : ... .. . ... : ... .. . ... ... : ... .. . ... ... : ... .. . ... ... : ... .. . ... ...
ROW 15 : ... .. 6 ... ... ... : ... .. 8 ... ... ... : ... .. . ... : ... .. A ... : ... .. . ... ... : ... .. 3 ... ... : ... .. 3 ... ... : ... .. . ... ...
ROW 16 : ... .. 5 ... ... ... : ... .. . ... ... ... : --- .. . ... : ... .. 8 ... : ... .. . ... ... : ... .. . ... ... : ... .. . ... ... : ... .. 4 ... ...
ROW 17 : ... .. 4 ... ... ... : ... .. . ... ... ... : ... .. . ... : ... .. 7 ... : ... .. . ... ... : ... .. . ... ... : ... .. . ... ... : ... .. . ... ...
ROW 18 : F-4 00 8 ... ... ... : ... .. . ... ... ... : B-1 00 . ... : 1-# 00 F ... : ... .. . ... ... : C-3 01 5 ... ... : C-4 01 5 ... ... : E-2 01 F ... ...
ROW 19 : ... .. 7 ... ... ... : ... .. . ... ... ... : ... .. . ... : ... .. C ... : ... .. . ... ... : ... .. 4 ... ... : ... .. 4 ... ... : ... .. D ... ...
ROW 1A : ... .. . ... ... ... : ... .. . ... ... ... : ... .. . ... : ... .. 6 ... : ... .. . ... ... : ... .. . ... ... : ... .. . ... ... : ... .. 8 ... ...
ROW 1B : ... .. 6 ... ... ... : ... .. . ... ... ... : ... .. . ... : ... .. 3 ... : ... .. . ... ... : ... .. 3 ... ... : ... .. 3 ... ... : ... .. . ... ...
ROW 1C : ... .. 5 ... ... ... : ... .. . ... ... ... : --- .. . ... : ... .. 2 ... : ... .. . ... ... : ... .. . ... ... : ... .. . ... ... : ... .. . ... ...
ROW 1D : ... .. 4 ... ... ... : ... .. . ... ... ... : ... .. . ... : ... .. 0 ... : ... .. . ... ... : ... .. . ... ... : ... .. . ... ... : ... .. . ... ...
ROW 1E : B-3 00 8 ... ... ... : ... .. . ... ... ... : B-1 00 . ... : A-# 00 F ... : ... .. . ... ... : D-3 01 5 ... ... : D-4 01 5 ... ... : ... .. . ... ...
ROW 1F : ... .. 7 ... ... ... : ... .. . ... ... ... : ... .. . ... : ... .. C ... : ... .. . ... ... : ... .. 4 ... ... : ... .. 4 ... ... : ... .. . ... ...
ROW 20 : ... .. . ... ... ... : ... .. . ... ... ... : ... .. . ... : ... .. 6 ... : ... .. . ... ... : ... .. . ... ... : ... .. . ... ... : ... .. . ... ...
ROW 21 : ... .. 6 ... ... ... : ... .. 9 ... ... ... : ... .. . ... : ... .. 3 ... : ... .. . ... ... : ... .. 3 ... ... : ... .. 3 ... ... : ... .. . ... ...
ROW 22 : ... .. 5 ... ... ... : ... .. . ... ... ... : --- .. . ... : ... .. 2 ... : ... .. . ... ... : ... .. . ... ... : ... .. . ... ... : ... .. 4 ... ...
ROW 23 : ... .. 4 ... ... ... : ... .. . ... ... ... : ... .. . ... : ... .. 0 ... : ... .. . ... ... : ... .. . ... ... : ... .. . ... ... : ... .. . ... ...
ROW 24 : A-3 00 8 ... ... ... : ... .. . ... ... ... : B-1 00 . ... : 5-# 00 D ... : ... .. . ... ... : B-2 01 5 ... ... : B-3 01 5 ... ... : D-2 01 F ... ...
ROW 25 : ... .. 7 ... ... ... : ... .. . ... ... ... : ... .. . ... : ... .. B ... : ... .. . ... ... : ... .. 4 ... ... : ... .. 4 ... ... : ... .. D ... ...
ROW 26 : ... .. . ... ... ... : ... .. . ... ... ... : ... .. . ... : ... .. . ... : ... .. . ... ... : ... .. . ... ... : ... .. . ... ... : ... .. 8 ... ...
ROW 27 : ... .. 6 ... ... ... : ... .. . ... ... ... : ... .. . ... : ... .. A ... : ... .. . ... ... : ... .. 3 ... ... : ... .. 3 ... ... : ... .. . ... ...
ROW 28 : ... .. 5 ... ... ... : ... .. . ... ... ... : --- .. . ... : ... .. 8 ... : ... .. . ... ... : ... .. . ... ... : ... .. . ... ... : ... .. . ... ...
ROW 29 : ... .. 4 ... ... ... : ... .. . ... ... ... : ... .. . ... : ... .. 7 ... : ... .. . ... ... : ... .. . ... ... : ... .. . ... ... : ... .. . ... ...
ROW 2A : B-3 00 8 ... ... ... : ... .. A ... ... ... : B-1 00 . ... : 0-# 00 F ... : ... .. . ... ... : C-3 01 5 ... ... : C-4 01 5 ... ... : ... .. . ... ...
ROW 2B : ... .. 7 ... ... ... : ... .. . ... ... ... : ... .. . ... : ... .. C ... : ... .. . ... ... : ... .. 4 ... ... : ... .. 4 ... ... : ... .. . ... ...
ROW 2C : ... .. . ... ... ... : ... .. . ... ... ... : ... .. . ... : ... .. 6 ... : ... .. . ... ... : ... .. . ... ... : ... .. . ... ... : ... .. . ... ...
ROW 2D : ... .. 6 ... ... ... : ... .. . ... ... ... : ... .. . ... : ... .. 3 ... : ... .. . ... ... : ... .. 3 ... ... : ... .. 3 ... ... : ... .. . ... ...
ROW 2E : ... .. 5 ... ... ... : ... .. . ... ... ... : --- .. . ... : ... .. 2 ... : ... .. . ... ... : ... .. . ... ... : ... .. . ... ... : ... .. 4 ... ...
ROW 2F : ... .. 4 ... ... ... : ... .. . ... ... ... : ... .. . ... : ... .. 0 ... : ... .. . ... ... : ... .. . ... ... : ... .. . ... ... : ... .. . ... ...
ROW 30 : F-4 00 8 ... ... ... : ... .. . ... ... ... : B-1 00 . ... : D-# 00 F ... : ... .. . ... ... : D-3 01 5 ... ... : A-3 01 5 ... ... : B-1 01 F ... ...
ROW 31 : ... .. 7 ... ... ... : ... .. . ... ... ... : ... .. . ... : ... .. C ... : ... .. . ... ... : ... .. 4 ... ... : ... .. 4 ... ... : ... .. D ... ...
ROW 32 : ... .. . ... ... ... : ... .. . ... ... ... : ... .. . ... : ... .. 0 ... : ... .. . ... ... : ... .. . ... ... : ... .. . ... ... : ... .. 8 ... ...
ROW 33 : ... .. 6 ... ... ... : ... .. . ... ... ... : ... .. . ... : ... .. F ... : ... .. . ... ... : ... .. 3 ... ... : ... .. 3 ... ... : ... .. . ... ...
ROW 34 : ... .. 5 ... ... ... : ... .. . ... ... ... : --- .. . ... : ... .. C ... : ... .. . ... ... : ... .. . ... ... : ... .. . ... ... : ... .. . ... ...
ROW 35 : ... .. 4 ... ... ... : ... .. . ... ... ... : ... .. . ... : ... .. 0 ... : ... .. . ... ... : ... .. . ... ... : ... .. . ... ... : ... .. . ... ...
ROW 36 : A-4 00 8 ... ... ... : F#5 00 A ... ... ... : B-1 00 . ... : ... .. F ... : ... .. . ... ... : D#3 01 5 ... ... : B-3 01 5 ... ... : ... .. . ... ...
ROW 37 : ... .. 7 ... ... ... : ... .. . P82 ... ... : ... .. . ... : ... .. C ... : ... .. . ... ... : ... .. 4 ... ... : ... .. 4 ... ... : ... .. . ... ...
ROW 38 : ... .. . ... ... ... : ... .. . P81 ... ... : ... .. . ... : ... .. 0 ... : ... .. . ... ... : ... .. . ... ... : ... .. . ... ... : ... .. . ... ...
ROW 39 : ... .. 6 ... ... ... : F-5 00 A P82 ... ... : ... .. . ... : ... .. . ... : ... .. . ... ... : ... .. 3 ... ... : ... .. 3 ... ... : ... .. . ... ...
ROW 3A : ... .. 5 ... ... ... : ... .. . P7E ... ... : --- .. . ... : ... .. . ... : ... .. . ... ... : ... .. . ... ... : ... .. . ... ... : ... .. . ... ...
ROW 3B : ... .. 4 ... ... ... : E-5 00 A P80 ... ... : ... .. . ... : ... .. . ... : ... .. . ... ... : ... .. . ... ... : ... .. . ... ... : ... .. . ... ...
ROW 3C : B-4 00 8 ... ... ... : ... .. . P7F ... ... : B-1 00 . ... : 5-# 00 D ... : ... .. . ... ... : F-3 01 5 ... ... : C-4 01 5 ... ... : ... .. . ... ...
ROW 3D : ... .. 7 ... ... ... : ... .. . P81 ... ... : ... .. . ... : ... .. B ... : ... .. . ... ... : ... .. 4 ... ... : ... .. 4 ... ... : ... .. . ... ...
ROW 3E : ... .. . ... ... ... : F-5 00 A P80 ... ... : ... .. . ... : ... .. . ... : ... .. . ... ... : ... .. . ... ... : ... .. . ... ... : ... .. . ... ...
ROW 3F : ... .. 6 ... ... ... : F#5 00 A P7F ... ... : ... .. . ... : ... .. A ... : ... .. . ... ... : ... .. 3 ... ... : ... .. 3 ... ... : ... .. . ... ...
ROW 40 : ... .. 5 ... ... ... : ... .. . P82 ... ... : --- .. . ... : ... .. 8 ... : ... .. . ... ... : ... .. . ... ... : ... .. . ... ... : ... .. . ... ...
ROW 41 : ... .. 4 ... ... ... : ... .. . ... ... ... : ... .. . ... : ... .. 7 ... : ... .. . ... ... : ... .. . ... ... : ... .. . ... ... : ... .. . ... ...
ROW 42 : C-5 00 8 ... ... ... : F-5 00 A ... ... ... : B-1 00 . ... : F-# 00 D ... : ... .. . ... ... : F#3 01 5 ... ... : D-4 01 5 ... ... : ... .. . ... ...
ROW 43 : ... .. 7 ... ... ... : ... .. . P7F ... ... : ... .. . ... : ... .. B ... : ... .. . ... ... : ... .. 4 ... ... : ... .. 4 ... ... : ... .. . ... ...
ROW 44 : ... .. . ... ... ... : E-5 00 A P80 ... ... : ... .. . ... : ... .. . ... : ... .. . ... ... : ... .. . ... ... : ... .. . ... ... : ... .. . ... ...
ROW 45 : ... .. 6 ... ... ... : ... .. . P7F ... ... : ... .. . ... : ... .. A ... : ... .. . ... ... : ... .. 3 ... ... : ... .. 3 ... ... : ... .. . ... ...
ROW 46 : ... .. 5 ... ... ... : ... .. . P81 ... ... : --- .. . ... : ... .. 8 ... : ... .. . ... ... : ... .. . ... ... : ... .. . ... ... : ... .. 4 ... ...
ROW 47 : ... .. 4 ... ... ... : F-5 00 A P80 ... ... : ... .. . ... : ... .. 7 ... : ... .. . ... ... : ... .. . ... ... : ... .. . ... ... : ... .. . ... ...
ROW 48 : B-4 00 8 ... ... ... : F#5 00 A P7F ... ... : B-1 00 . ... : 1-# 00 F ... : ... .. . ... ... : F#2 01 5 ... ... : D#4 01 5 ... ... : ... .. F ... ...
ROW 49 : ... .. 7 ... ... ... : ... .. . P82 ... ... : ... .. . ... : ... .. C ... : ... .. . ... ... : ... .. 4 ... ... : ... .. 4 ... ... : ... .. D ... ...
ROW 4A : ... .. . ... ... ... : ... .. . ... ... ... : ... .. . ... : ... .. 6 ... : ... .. . ... ... : ... .. . ... ... : ... .. . ... ... : ... .. 8 ... ...
ROW 4B : ... .. 6 ... ... ... : ... .. . P7F ... ... : ... .. . ... : ... .. 3 ... : ... .. . ... ... : ... .. 3 ... ... : ... .. 3 ... ... : ... .. . ... ...
ROW 4C : ... .. 5 ... ... ... : F-5 00 A P80 ... ... : --- .. . ... : ... .. 2 ... : ... .. . ... ... : ... .. . ... ... : ... .. . ... ... : ... .. . ... ...
ROW 4D : ... .. 4 ... ... ... : E-5 00 A P81 ... ... : ... .. . ... : ... .. 0 ... : ... .. . ... ... : ... .. . ... ... : ... .. . ... ... : ... .. . ... ...
ROW 4E : C-5 00 8 ... ... ... : ... .. . P7F ... ... : B-1 00 . ... : D-# 00 F ... : ... .. . ... ... : G-2 01 5 ... ... : F-4 01 5 ... ... : ... .. . ... ...
ROW 4F : ... .. 7 ... ... ... : ... .. . P80 ... ... : ... .. . ... : ... .. C ... : ... .. . ... ... : ... .. 4 ... ... : ... .. 4 ... ... : ... .. . ... ...
ROW 50 : ... .. . ... ... ... : F-5 00 A P7F ... ... : ... .. . ... : ... .. 6 ... : ... .. . ... ... : ... .. . ... ... : ... .. . ... ... : ... .. . ... ...
ROW 51 : ... .. 6 ... ... ... : ... .. . P82 ... ... : ... .. . ... : ... .. 3 ... : ... .. . ... ... : ... .. 3 ... ... : ... .. 3 ... ... : ... .. . ... ...
ROW 52 : ... .. 5 ... ... ... : F#5 00 A ... ... ... : --- .. . ... : ... .. 2 ... : ... .. . ... ... : ... .. . ... ... : ... .. . ... ... : ... .. 4 ... ...
ROW 53 : ... .. 4 ... ... ... : ... .. . ... ... ... : ... .. . ... : ... .. 0 ... : ... .. . ... ... : ... .. . ... ... : ... .. . ... ... : ... .. . ... ...
ROW 54 : B-4 00 8 ... ... ... : ... .. . P7F ... ... : B-1 00 . ... : ... .. F ... : ... .. . ... ... : A-2 01 5 ... ... : B-3 01 5 ... ... : F-2 01 F ... ...
ROW 55 : ... .. 7 ... ... ... : F-5 00 A P80 ... ... : ... .. . ... : ... .. C ... : ... .. . ... ... : ... .. 4 ... ... : ... .. 4 ... ... : ... .. D ... ...
ROW 56 : ... .. . ... ... ... : E-5 00 A P81 ... ... : ... .. . ... : ... .. 6 ... : ... .. . ... ... : ... .. . ... ... : ... .. . ... ... : ... .. 8 ... ...
ROW 57 : ... .. 6 ... ... ... : ... .. . P7F ... ... : ... .. . ... : ... .. 3 ... : ... .. . ... ... : ... .. 3 ... ... : ... .. 3 ... ... : ... .. . ... ...
ROW 58 : ... .. 5 ... ... ... : ... .. . P80 ... ... : --- .. . ... : ... .. 2 ... : ... .. . ... ... : ... .. . ... ... : ... .. . ... ... : ... .. . ... ...
ROW 59 : ... .. 4 ... ... ... : F-5 00 A P7E ... ... : ... .. . ... : ... .. 0 ... : ... .. . ... ... : ... .. . ... ... : ... .. . ... ... : ... .. . ... ...
ROW 5A : F#4 00 8 ... ... ... : ... .. . P82 ... ... : B-1 00 . ... : 5-# 00 D ... : ... .. . ... ... : B-2 01 5 ... ... : C-4 01 5 ... ... : ... .. . ... ...
ROW 5B : ... .. 7 ... ... ... : F#5 00 A P81 ... ... : ... .. . ... : ... .. B ... : ... .. . ... ... : ... .. 4 ... ... : ... .. 4 ... ... : ... .. . ... ...
ROW 5C : ... .. . ... ... ... : ... .. . P82 ... ... : ... .. . ... : ... .. . ... : ... .. . ... ... : ... .. . ... ... : ... .. . ... ... : ... .. . ... ...
ROW 5D : ... .. 6 ... ... ... : ... .. . P80 ... ... : ... .. . ... : ... .. A ... : ... .. . ... ... : ... .. 3 ... ... : ... .. 3 ... ... : ... .. . ... ...
ROW 5E : ... .. 5 ... ... ... : F-5 00 A ... ... ... : --- .. . ... : ... .. 8 ... : ... .. . ... ... : ... .. . ... ... : ... .. . ... ... : ... .. 4 ... ...
ROW 5F : ... .. 4 ... ... ... : E-5 00 A P82 ... ... : ... .. . ... : ... .. 7 ... : ... .. . ... ... : ... .. . ... ... : ... .. . ... ... : ... .. . ... ...
ROW 60 : F-4 00 8 ... ... ... : ... .. . P7F ... ... : B-1 00 . ... : F-# 00 D ... : ... .. . ... ... : C-3 01 5 ... ... : A-3 01 5 ... ... : E-2 01 F ... ...
ROW 61 : ... .. 7 ... ... ... : ... .. . ... ... ... : ... .. . ... : ... .. B ... : ... .. . ... ... : ... .. 4 ... ... : ... .. 4 ... ... : ... .. D ... ...
ROW 62 : ... .. . ... ... ... : F-5 00 A P7E ... ... : ... .. . ... : ... .. . ... : ... .. . ... ... : ... .. . ... ... : ... .. . ... ... : ... .. 8 ... ...
ROW 63 : ... .. 6 ... ... ... : ... .. 9 P81 ... ... : ... .. . ... : ... .. A ... : ... .. . ... ... : ... .. 3 ... ... : ... .. 3 ... ... : ... .. . ... ...
ROW 64 : ... .. 5 ... ... ... : F#5 00 9 ... ... ... : --- .. . ... : ... .. 8 ... : ... .. . ... ... : ... .. . ... ... : ... .. . ... ... : ... .. . ... ...
ROW 65 : ... .. 4 ... ... ... : ... .. . P82 ... ... : ... .. . ... : ... .. 7 ... : ... .. . ... ... : ... .. . ... ... : ... .. . ... ... : ... .. . ... ...
ROW 66 : B-3 00 8 ... ... ... : ... .. . P80 ... ... : B-1 00 . ... : 1-# 00 F ... : ... .. . ... ... : D-3 01 5 ... ... : B-3 01 5 ... ... : ... .. . ... ...
ROW 67 : ... .. 7 ... ... ... : F-5 00 9 ... ... ... : ... .. . ... : ... .. C ... : ... .. . ... ... : ... .. 4 ... ... : ... .. 4 ... ... : ... .. . ... ...
ROW 68 : ... .. . ... ... ... : E-5 00 9 P82 ... ... : ... .. . ... : ... .. 6 ... : ... .. . ... ... : ... .. . ... ... : ... .. . ... ... : ... .. . ... ...
ROW 69 : ... .. 6 ... ... ... : ... .. 8 P7F ... ... : ... .. . ... : ... .. 3 ... : ... .. . ... ... : ... .. 3 ... ... : ... .. 3 ... ... : ... .. . ... ...
ROW 6A : ... .. 5 ... ... ... : ... .. . ... ... ... : --- .. . ... : ... .. 2 ... : ... .. . ... ... : ... .. . ... ... : ... .. . ... ... : ... .. 4 ... ...
ROW 6B : ... .. 4 ... ... ... : ... .. . P82 ... ... : ... .. . ... : ... .. 0 ... : ... .. . ... ... : ... .. . ... ... : ... .. . ... ... : ... .. . ... ...
ROW 6C : A-3 00 8 ... ... ... : B-4 00 F P80 ... ... : B-1 00 . ... : 5-# 00 D ... : ... .. . ... ... : B-2 01 5 ... ... : C-4 01 5 ... ... : D-2 01 F ... ...
ROW 6D : ... .. 7 ... ... ... : ... .. E ... ... ... : ... .. . ... : ... .. B ... : ... .. . ... ... : ... .. 4 ... ... : ... .. 4 ... ... : ... .. D ... ...
ROW 6E : ... .. . ... ... ... : ... .. D ... ... ... : ... .. . ... : ... .. . ... : ... .. . ... ... : ... .. . ... ... : ... .. . ... ... : ... .. 8 ... ...
ROW 6F : ... .. 6 ... ... ... : ... .. A ... ... ... : ... .. . ... : ... .. A ... : ... .. . ... ... : ... .. 3 ... ... : ... .. 3 ... ... : ... .. . ... ...
ROW 70 : ... .. 5 ... ... ... : ... .. . ... ... ... : --- .. . ... : ... .. 8 ... : ... .. . ... ... : ... .. . ... ... : ... .. . ... ... : ... .. . ... ...
ROW 71 : ... .. 4 ... ... ... : ... .. . ... ... ... : ... .. . ... : ... .. 7 ... : ... .. . ... ... : ... .. . ... ... : ... .. . ... ... : ... .. . ... ...
ROW 72 : B-3 00 8 ... ... ... : C-5 00 F ... ... ... : B-1 00 . ... : A-# 00 F ... : ... .. . ... ... : C-3 01 5 ... ... : D-4 01 5 ... ... : ... .. . ... ...
ROW 73 : ... .. 7 ... ... ... : ... .. E ... ... ... : ... .. . ... : ... .. C ... : ... .. . ... ... : ... .. 4 ... ... : ... .. 4 ... ... : ... .. . ... ...
ROW 74 : ... .. . ... ... ... : ... .. D ... ... ... : ... .. . ... : ... .. 6 ... : ... .. . ... ... : ... .. . ... ... : ... .. . ... ... : ... .. . ... ...
ROW 75 : ... .. 6 ... ... ... : ... .. A ... ... ... : ... .. . ... : ... .. 3 ... : ... .. . ... ... : ... .. 3 ... ... : ... .. 3 ... ... : ... .. . ... ...
ROW 76 : ... .. 5 ... ... ... : ... .. . ... ... ... : --- .. . ... : ... .. 2 ... : ... .. . ... ... : ... .. . ... ... : ... .. . ... ... : ... .. 4 ... ...
ROW 77 : ... .. 4 ... ... ... : ... .. . ... ... ... : ... .. . ... : ... .. 0 ... : ... .. . ... ... : ... .. . ... ... : ... .. . ... ... : ... .. . ... ...
ROW 78 : F-4 00 8 ... ... ... : D-5 00 F ... ... ... : B-1 00 . ... : ... .. F ... : ... .. . ... ... : D-3 01 5 ... ... : D#4 01 5 ... ... : F-4 01 F ... ...
ROW 79 : ... .. 7 ... ... ... : ... .. E ... ... ... : ... .. . ... : ... .. C ... : ... .. . ... ... : ... .. 4 ... ... : ... .. 4 ... ... : ... .. D ... ...
ROW 7A : ... .. . ... ... ... : ... .. D ... ... ... : ... .. . ... : ... .. 6 ... : ... .. . ... ... : ... .. . ... ... : ... .. . ... ... : ... .. 8 ... ...
ROW 7B : ... .. 6 ... ... ... : ... .. A ... ... ... : ... .. . ... : ... .. 3 ... : ... .. . ... ... : ... .. 3 ... ... : ... .. 3 ... ... : ... .. . ... ...
ROW 7C : ... .. 5 ... ... ... : ... .. . ... ... ... : --- .. . ... : ... .. 2 ... : ... .. . ... ... : ... .. . ... ... : ... .. . ... ... : ... .. 4 ... ...
ROW 7D : ... .. 4 ... ... ... : ... .. . ... ... ... : ... .. . ... : ... .. 0 ... : ... .. . ... ... : ... .. . ... ... : ... .. . ... ... : ... .. . ... ...
ROW 7E : A-4 00 8 ... ... ... : A-4 00 F ... ... ... : B-1 00 . ... : 9-# 00 D ... : ... .. . ... ... : D#3 01 5 ... ... : F-4 01 5 ... ... : B-4 01 F ... ...
ROW 7F : ... .. 7 ... ... ... : ... .. E ... ... ... : ... .. . ... : ... .. B ... : ... .. . ... ... : ... .. 4 ... ... : ... .. 4 ... ... : ... .. D ... ...
ROW 80 : ... .. . ... ... ... : ... .. D ... ... ... : ... .. . ... : ... .. . ... : ... .. . ... ... : ... .. . ... ... : ... .. . ... ... : ... .. 8 ... ...
ROW 81 : ... .. 6 ... ... ... : ... .. A ... ... ... : ... .. . ... : ... .. A ... : ... .. . ... ... : ... .. 3 ... ... : ... .. 3 ... ... : ... .. . ... ...
ROW 82 : ... .. 5 ... ... ... : ... .. . ... ... ... : --- .. . ... : ... .. 8 ... : ... .. . ... ... : ... .. . ... ... : ... .. . ... ... : ... .. 4 ... ...
ROW 83 : ... .. 4 ... ... ... : ... .. . ... ... ... : ... .. . ... : ... .. 7 ... : ... .. . ... ... : ... .. . ... ... : ... .. . ... ... : ... .. . ... ...
ROW 84 : B-4 00 8 ... ... ... : B-4 00 F ... ... ... : B-1 00 . ... : 6-# 00 D ... : ... .. . ... ... : F-3 01 5 ... ... : F#4 01 5 ... ... : B-3 01 F ... ...
ROW 85 : ... .. 7 ... ... ... : ... .. E ... ... ... : ... .. . ... : ... .. B ... : ... .. . ... ... : ... .. 4 ... ... : ... .. 4 ... ... : ... .. D ... ...
ROW 86 : ... .. . ... ... ... : ... .. D ... ... ... : ... .. . ... : ... .. . ... : ... .. . ... ... : ... .. . ... ... : ... .. . ... ... : ... .. 8 ... ...
ROW 87 : ... .. 6 ... ... ... : ... .. A ... ... ... : ... .. . ... : ... .. A ... : ... .. . ... ... : ... .. 3 ... ... : ... .. 3 ... ... : ... .. . ... ...
ROW 88 : ... .. 5 ... ... ... : ... .. . ... ... ... : --- .. . ... : ... .. 8 ... : ... .. . ... ... : ... .. . ... ... : ... .. . ... ... : ... .. 4 ... ...
ROW 89 : ... .. 4 ... ... ... : ... .. . ... ... ... : ... .. . ... : ... .. 7 ... : ... .. . ... ... : ... .. . ... ... : ... .. . ... ... : ... .. . ... ...
ROW 8A : C-5 00 8 ... ... ... : C-5 00 F ... ... ... : B-1 00 . ... : ... .. D ... : ... .. . ... ... : F#3 01 5 ... ... : G#4 01 5 ... ... : B-2 01 F ... ...
ROW 8B : ... .. 7 ... ... ... : ... .. E ... ... ... : ... .. . ... : ... .. B ... : ... .. . ... ... : ... .. 4 ... ... : ... .. 4 ... ... : ... .. D ... ...
ROW 8C : ... .. . ... ... ... : ... .. D ... ... ... : ... .. . ... : ... .. . ... : ... .. . ... ... : ... .. . ... ... : ... .. . ... ... : ... .. 8 ... ...
ROW 8D : ... .. 6 ... ... ... : ... .. A ... ... ... : ... .. . ... : ... .. A ... : ... .. . ... ... : ... .. 3 ... ... : ... .. 3 ... ... : ... .. . ... ...
ROW 8E : ... .. 5 ... ... ... : ... .. . ... ... ... : --- .. . ... : ... .. 8 ... : ... .. . ... ... : ... .. . ... ... : ... .. . ... ... : ... .. 4 ... ...
ROW 8F : ... .. 4 ... ... ... : ... .. . ... ... ... : ... .. . ... : ... .. 7 ... : ... .. . ... ... : ... .. . ... ... : ... .. . ... ... : ... .. . ... ...
ROW 90 : B-4 00 8 ... ... ... : A-4 00 F ... ... ... : B-1 00 . ... : 1-# 00 F ... : ... .. . ... ... : F#2 01 5 ... ... : A-4 01 5 ... ... : B-1 01 F ... ...
ROW 91 : ... .. 7 ... ... ... : ... .. E ... ... ... : ... .. . ... : ... .. C ... : ... .. . ... ... : ... .. 4 ... ... : ... .. 4 ... ... : ... .. D ... ...
ROW 92 : ... .. . ... ... ... : ... .. D ... ... ... : ... .. . ... : ... .. 6 ... : ... .. . ... ... : ... .. . ... ... : ... .. . ... ... : ... .. 8 ... ...
ROW 93 : ... .. 6 ... ... ... : ... .. A ... ... ... : ... .. . ... : ... .. 3 ... : ... .. . ... ... : ... .. 3 ... ... : ... .. 3 ... ... : ... .. . ... ...
ROW 94 : ... .. 5 ... ... ... : ... .. . ... ... ... : --- .. . ... : ... .. 2 ... : ... .. . ... ... : ... .. . ... ... : ... .. . ... ... : ... .. . ... ...
ROW 95 : ... .. 4 ... ... ... : ... .. . ... ... ... : ... .. . ... : ... .. 0 ... : ... .. . ... ... : ... .. . ... ... : ... .. . ... ... : ... .. . ... ...
ROW 96 : C-5 00 8 ... ... ... : B-4 00 F ... ... ... : B-1 00 . ... : ... .. F ... : ... .. . ... ... : G-2 01 5 ... ... : G#4 01 5 ... ... : ... .. . ... ...
ROW 97 : ... .. 7 ... ... ... : ... .. E ... ... ... : ... .. . ... : ... .. C ... : ... .. . ... ... : ... .. 4 ... ... : ... .. 4 ... ... : ... .. . ... ...
ROW 98 : ... .. . ... ... ... : ... .. D ... ... ... : ... .. . ... : ... .. 6 ... : ... .. . ... ... : ... .. . ... ... : ... .. . ... ... : ... .. . ... ...
ROW 99 : ... .. 6 ... ... ... : ... .. A ... ... ... : ... .. . ... : ... .. 3 ... : ... .. . ... ... : ... .. 3 ... ... : ... .. 3 ... ... : ... .. . ... ...
ROW 9A : ... .. 5 ... ... ... : ... .. . ... ... ... : --- .. . ... : ... .. 2 ... : ... .. . ... ... : ... .. . ... ... : ... .. . ... ... : ... .. 4 ... ...
ROW 9B : ... .. 4 ... ... ... : ... .. . ... ... ... : ... .. . ... : ... .. 0 ... : ... .. . ... ... : ... .. . ... ... : ... .. . ... ... : ... .. . ... ...
ROW 9C : B-4 00 8 ... ... ... : D-4 00 F ... ... ... : B-1 00 . ... : D-# 00 F ... : ... .. . ... ... : A-2 01 5 ... ... : F#4 01 5 ... ... : F-2 01 F ... ...
ROW 9D : ... .. 7 ... ... ... : ... .. E ... ... ... : ... .. . ... : ... .. C ... : ... .. . ... ... : ... .. 4 ... ... : ... .. 4 ... ... : ... .. D ... ...
ROW 9E : ... .. . ... ... ... : ... .. D ... ... ... : ... .. . ... : ... .. 6 ... : ... .. . ... ... : ... .. . ... ... : ... .. . ... ... : ... .. 8 ... ...
ROW 9F : ... .. 6 ... ... ... : ... .. 8 ... ... ... : ... .. . ... : ... .. 3 ... : ... .. . ... ... : ... .. 3 ... ... : ... .. 3 ... ... : ... .. . ... ...
ROW A0 : ... .. 5 ... ... ... : ... .. . ... ... ... : --- .. . ... : ... .. 2 ... : ... .. . ... ... : ... .. . ... ... : ... .. . ... ... : ... .. . ... ...
ROW A1 : ... .. 4 ... ... ... : ... .. . ... ... ... : ... .. . ... : ... .. 0 ... : ... .. . ... ... : ... .. . ... ... : ... .. . ... ... : ... .. . ... ...
ROW A2 : F#4 00 8 ... ... ... : ... .. 7 ... ... ... : B-1 00 . ... : ... .. F ... : ... .. . ... ... : B-2 01 5 ... ... : B-4 01 5 ... ... : ... .. . ... ...
ROW A3 : ... .. 7 ... ... ... : ... .. . ... ... ... : ... .. . ... : ... .. C ... : ... .. . ... ... : ... .. 4 ... ... : ... .. 4 ... ... : ... .. . ... ...
ROW A4 : ... .. . ... ... ... : ... .. . ... ... ... : ... .. . ... : ... .. 6 ... : ... .. . ... ... : ... .. . ... ... : ... .. . ... ... : ... .. . ... ...
ROW A5 : ... .. 6 ... ... ... : ... .. . ... ... ... : ... .. . ... : ... .. 3 ... : ... .. . ... ... : ... .. 3 ... ... : ... .. 3 ... ... : ... .. . ... ...
ROW A6 : ... .. 5 ... ... ... : ... .. . ... ... ... : --- .. . ... : ... .. 2 ... : ... .. . ... ... : ... .. . ... ... : ... .. . ... ... : ... .. 4 ... ...
ROW A7 : ... .. 4 ... ... ... : ... .. . ... ... ... : ... .. . ... : ... .. 0 ... : ... .. . ... ... : ... .. . ... ... : ... .. . ... ... : ... .. . ... ...
ROW A8 : F-4 00 8 ... ... ... : ... .. . ... ... ... : B-1 00 . ... : 6-# 00 F ... : ... .. . ... ... : C-3 01 5 ... ... : A-4 01 5 ... ... : E-2 01 F ... ...
ROW A9 : ... .. 7 ... ... ... : ... .. . ... ... ... : ... .. . ... : ... .. C ... : ... .. . ... ... : ... .. 4 ... ... : ... .. 4 ... ... : ... .. D ... ...
ROW AA : ... .. . ... ... ... : ... .. . ... ... ... : ... .. . ... : ... .. 6 ... : ... .. . ... ... : ... .. . ... ... : ... .. . ... ... : ... .. 8 ... ...
ROW AB : ... .. 6 ... ... ... : ... .. 8 ... ... ... : ... .. . ... : ... .. 3 ... : ... .. . ... ... : ... .. 3 ... ... : ... .. 3 ... ... : ... .. . ... ...
ROW AC : ... .. 5 ... ... ... : ... .. . ... ... ... : --- .. . ... : ... .. 2 ... : ... .. . ... ... : ... .. . ... ... : ... .. . ... ... : ... .. . ... ...
ROW AD : ... .. 4 ... ... ... : ... .. . ... ... ... : ... .. . ... : ... .. 0 ... : ... .. . ... ... : ... .. . ... ... : ... .. . ... ... : ... .. . ... ...
ROW AE : B-3 00 8 ... ... ... : ... .. . ... ... ... : B-1 00 . ... : F-# 00 D ... : ... .. . ... ... : D-3 01 5 ... ... : G#4 01 5 ... ... : ... .. . ... ...
ROW AF : ... .. 7 ... ... ... : ... .. . ... ... ... : ... .. . ... : ... .. B ... : ... .. . ... ... : ... .. 4 ... ... : ... .. 4 ... ... : ... .. . ... ...
ROW B0 : ... .. . ... ... ... : ... .. . ... ... ... : ... .. . ... : ... .. . ... : ... .. . ... ... : ... .. . ... ... : ... .. . ... ... : ... .. . ... ...
ROW B1 : ... .. 6 ... ... ... : ... .. . ... ... ... : ... .. . ... : ... .. A ... : ... .. . ... ... : ... .. 3 ... ... : ... .. 3 ... ... : ... .. . ... ...
ROW B2 : ... .. 5 ... ... ... : ... .. . ... ... ... : --- .. . ... : ... .. 8 ... : ... .. . ... ... : ... .. . ... ... : ... .. . ... ... : ... .. 4 ... ...
ROW B3 : ... .. 4 ... ... ... : ... .. . ... ... ... : ... .. . ... : ... .. 7 ... : ... .. . ... ... : ... .. . ... ... : ... .. . ... ... : ... .. . ... ...
ROW B4 : A-3 00 8 ... ... ... : D#4 00 8 ... ... ... : B-1 00 . ... : 5-# 00 D ... : ... .. . ... ... : B-2 01 5 ... ... : B-4 01 5 ... ... : D-2 01 F ... ...
ROW B5 : ... .. 7 ... ... ... : E-4 00 8 P7C ... ... : ... .. . ... : ... .. B ... : ... .. . ... ... : ... .. 4 ... ... : ... .. 4 ... ... : ... .. D ... ...
ROW B6 : ... .. . ... ... ... : D#4 00 8 P84 ... ... : ... .. . ... : ... .. . ... : ... .. . ... ... : ... .. . ... ... : ... .. . ... ... : ... .. 8 ... ...
ROW B7 : ... .. 6 ... ... ... : D-4 00 8 ... ... ... : ... .. . ... : ... .. A ... : ... .. . ... ... : ... .. 3 ... ... : ... .. 3 ... ... : ... .. . ... ...
ROW B8 : ... .. 5 ... ... ... : ... .. . P7C ... ... : --- .. . ... : ... .. 8 ... : ... .. . ... ... : ... .. . ... ... : ... .. . ... ... : ... .. . ... ...
ROW B9 : ... .. 4 ... ... ... : C#4 00 8 P7E ... ... : ... .. . ... : ... .. 7 ... : ... .. . ... ... : ... .. . ... ... : ... .. . ... ... : ... .. . ... ...
ROW BA : B-3 00 8 ... ... ... : ... .. 9 P7C ... ... : B-1 00 . ... : 0-# 00 F ... : ... .. . ... ... : C-3 01 5 ... ... : A-4 01 5 ... ... : ... .. . ... ...
ROW BB : ... .. 7 ... ... ... : ... .. . P82 ... ... : ... .. . ... : ... .. C ... : ... .. . ... ... : ... .. 4 ... ... : ... .. 4 ... ... : ... .. . ... ...
ROW BC : ... .. . ... ... ... : D-4 00 9 P80 ... ... : ... .. . ... : ... .. 6 ... : ... .. . ... ... : ... .. . ... ... : ... .. . ... ... : ... .. . ... ...
ROW BD : ... .. 6 ... ... ... : D#4 00 9 P7F ... ... : ... .. . ... : ... .. 3 ... : ... .. . ... ... : ... .. 3 ... ... : ... .. 3 ... ... : ... .. . ... ...
ROW BE : ... .. 5 ... ... ... : E-4 00 9 P7C ... ... : --- .. . ... : ... .. 2 ... : ... .. . ... ... : ... .. . ... ... : ... .. . ... ... : ... .. 4 ... ...
ROW BF : ... .. 4 ... ... ... : D#4 00 9 P84 ... ... : ... .. . ... : ... .. 0 ... : ... .. . ... ... : ... .. . ... ... : ... .. . ... ... : ... .. . ... ...
ROW C0 : F-4 00 8 ... ... ... : ... .. . P7C ... ... : B-1 00 . ... : C-# 00 F ... : ... .. . ... ... : D-3 01 5 ... ... : G-4 01 5 ... ... : B-1 01 F ... ...
ROW C1 : ... .. 7 ... ... ... : D-4 00 9 P7D ... ... : ... .. . ... : ... .. C ... : ... .. . ... ... : ... .. 4 ... ... : ... .. 4 ... ... : ... .. D ... ...
ROW C2 : ... .. . ... ... ... : C#4 00 9 P7F ... ... : ... .. . ... : ... .. 6 ... : ... .. . ... ... : ... .. . ... ... : ... .. . ... ... : ... .. 8 ... ...
ROW C3 : ... .. 6 ... ... ... : ... .. A P7C ... ... : ... .. . ... : ... .. 3 ... : ... .. . ... ... : ... .. 3 ... ... : ... .. 3 ... ... : ... .. . ... ...
ROW C4 : ... .. 5 ... ... ... : ... .. . P80 ... ... : --- .. . ... : ... .. 2 ... : ... .. . ... ... : ... .. . ... ... : ... .. . ... ... : ... .. . ... ...
ROW C5 : ... .. 4 ... ... ... : D-4 00 A P7F ... ... : ... .. . ... : ... .. 0 ... : ... .. . ... ... : ... .. . ... ... : ... .. . ... ... : ... .. . ... ...
ROW C6 : A-4 00 8 ... ... ... : D#4 00 A P7E ... ... : B-1 00 . ... : E-# 00 F ... : ... .. . ... ... : D#3 01 5 ... ... : D-5 01 5 ... ... : ... .. . ... ...
ROW C7 : ... .. 7 ... ... ... : ... .. . P85 ... ... : ... .. . ... : ... .. C ... : ... .. . ... ... : ... .. 4 ... ... : ... .. 4 ... ... : ... .. . ... ...
ROW C8 : ... .. . ... ... ... : ... .. . ... ... ... : ... .. . ... : ... .. 6 ... : ... .. . ... ... : ... .. . ... ... : ... .. . ... ... : ... .. . ... ...
ROW C9 : ... .. 6 ... ... ... : ... .. . P7E ... ... : ... .. . ... : ... .. 3 ... : ... .. . ... ... : ... .. 3 ... ... : ... .. 3 ... ... : ... .. . ... ...
ROW CA : ... .. 5 ... ... ... : D-4 00 A P7F ... ... : --- .. . ... : ... .. 2 ... : ... .. . ... ... : ... .. . ... ... : ... .. . ... ... : ... .. . ... ...
ROW CB : ... .. 4 ... ... ... : C#4 00 A P80 ... ... : ... .. . ... : ... .. 0 ... : ... .. . ... ... : ... .. . ... ... : ... .. . ... ... : ... .. . ... ...
ROW CC : B-4 00 8 ... ... ... : ... .. . P7C ... ... : B-1 00 . ... : 8-# 00 F ... : ... .. . ... ... : F-3 01 5 ... ... : C-5 01 5 ... ... : ... .. . ... ...
ROW CD : ... .. 7 ... ... ... : ... .. . P7F ... ... : ... .. . ... : ... .. C ... : ... .. . ... ... : ... .. 4 ... ... : ... .. 4 ... ... : ... .. . ... ...
ROW CE : ... .. . ... ... ... : D-4 00 A P7D ... ... : ... .. . ... : ... .. 6 ... : ... .. . ... ... : ... .. . ... ... : ... .. . ... ... : ... .. . ... ...
ROW CF : ... .. 6 ... ... ... : D#4 00 A P7C ... ... : ... .. . ... : ... .. 3 ... : ... .. . ... ... : ... .. 3 ... ... : ... .. 3 ... ... : ... .. . ... ...
ROW D0 : ... .. 5 ... ... ... : ... .. . P84 ... ... : --- .. . ... : ... .. 2 ... : ... .. . ... ... : ... .. . ... ... : ... .. . ... ... : ... .. . ... ...
ROW D1 : ... .. 4 ... ... ... : E-4 00 A P7C ... ... : ... .. . ... : ... .. 0 ... : ... .. . ... ... : ... .. . ... ... : ... .. . ... ... : ... .. . ... ...
ROW D2 : C-5 00 8 ... ... ... : D#4 00 A P7F ... ... : B-1 00 . ... : ... .. F ... : ... .. . ... ... : F#3 01 5 ... ... : B-4 01 5 ... ... : ... .. . ... ...
ROW D3 : ... .. 7 ... ... ... : D-4 00 2 P80 ... ... : ... .. . ... : ... .. C ... : ... .. . ... ... : ... .. 4 ... ... : ... .. 4 ... ... : ... .. . ... ...
ROW D4 : ... .. . ... ... ... : C#4 00 2 P82 ... ... : ... .. . ... : ... .. 6 ... : ... .. . ... ... : ... .. . ... ... : ... .. . ... ... : ... .. . ... ...
ROW D5 : ... .. 6 ... ... ... : ... .. . P7C ... ... : ... .. . ... : ... .. 3 ... : ... .. . ... ... : ... .. 3 ... ... : ... .. 3 ... ... : ... .. . ... ...
ROW D6 : ... .. 5 ... ... ... : ... .. 1 P7E ... ... : --- .. . ... : ... .. 2 ... : ... .. . ... ... : ... .. . ... ... : ... .. . ... ... : ... .. 4 ... ...
ROW D7 : ... .. 4 ... ... ... : D-4 00 1 P7C ... ... : ... .. . ... : ... .. 0 ... : ... .. . ... ... : ... .. . ... ... : ... .. . ... ... : ... .. . ... ...
ROW D8 : F-4 00 A ... ... ... : F-5 00 F P80 ... ... : C#5 00 . ... : 5-# 00 D ... : ... .. . ... ... : F#2 01 5 ... ... : D-5 01 5 ... ... : D-2 01 F ... ...
ROW D9 : ... .. 9 ... ... ... : ... .. E ... ... ... : D#4 00 . ... : ... .. B ... : ... .. . ... ... : ... .. 4 ... ... : ... .. 4 ... ... : ... .. D ... ...
ROW DA : ... .. 8 ... ... ... : ... .. D ... ... ... : G#3 00 . ... : ... .. . ... : ... .. . ... ... : ... .. . ... ... : ... .. . ... ... : ... .. 8 ... ...
ROW DB : ... .. 6 ... ... ... : ... .. A ... ... ... : G-3 00 . ... : ... .. A ... : ... .. . ... ... : ... .. 3 ... ... : ... .. 3 ... ... : --- .. . ... ...
ROW DC : ... .. 1 ... ... ... : ... .. 2 ... ... ... : D-3 00 . ... : ... .. 8 ... : ... .. . ... ... : ... .. . ... ... : ... .. . ... ... : ... .. . ... ...
ROW DD : ... .. . ... ... ... : ... .. . ... ... ... : ... .. . ... : ... .. 7 ... : ... .. . ... ... : ... .. . ... ... : ... .. . ... ... : ... .. . ... ...
ROW DE : D-4 00 A ... ... ... : D-5 00 F ... ... ... : D-2 00 . ... : 1-# 00 F ... : ... .. . ... ... : G-2 01 5 ... ... : A-4 01 5 ... ... : D-2 01 F ... ...
ROW DF : ... .. 9 ... ... ... : ... .. E ... ... ... : ... .. . ... : ... .. C ... : ... .. . ... ... : ... .. 4 ... ... : ... .. 4 ... ... : ... .. D ... ...
ROW E0 : ... .. 8 ... ... ... : ... .. D ... ... ... : ... .. . ... : ... .. 6 ... : ... .. . ... ... : ... .. . ... ... : ... .. . ... ... : ... .. 8 ... ...
ROW E1 : ... .. 6 ... ... ... : ... .. A ... ... ... : ... .. . ... : ... .. 3 ... : ... .. . ... ... : ... .. 3 ... ... : ... .. 3 ... ... : ... .. . ... ...
ROW E2 : ... .. 1 ... ... ... : ... .. 2 ... ... ... : --- .. . ... : ... .. 2 ... : ... .. . ... ... : ... .. . ... ... : ... .. . ... ... : ... .. . ... ...
ROW E3 : ... .. . ... ... ... : ... .. . ... ... ... : ... .. . ... : ... .. 0 ... : ... .. . ... ... : ... .. . ... ... : ... .. . ... ... : ... .. . ... ...
ROW E4 : A-3 00 A ... ... ... : A-4 00 F ... ... ... : D-2 00 . ... : ... .. F ... : ... .. . ... ... : A-2 01 5 ... ... : D-5 01 5 ... ... : --- .. . ... ...
ROW E5 : ... .. 9 ... ... ... : ... .. E ... ... ... : ... .. . ... : ... .. C ... : ... .. . ... ... : ... .. 4 ... ... : ... .. 4 ... ... : ... .. . ... ...
ROW E6 : ... .. 8 ... ... ... : ... .. D ... ... ... : ... .. . ... : ... .. 6 ... : ... .. . ... ... : ... .. . ... ... : ... .. . ... ... : ... .. . ... ...
ROW E7 : ... .. 6 ... ... ... : ... .. A ... ... ... : ... .. . ... : ... .. 3 ... : ... .. . ... ... : ... .. 3 ... ... : ... .. 3 ... ... : ... .. . ... ...
ROW E8 : ... .. 1 ... ... ... : ... .. 2 ... ... ... : --- .. . ... : ... .. 2 ... : ... .. . ... ... : ... .. . ... ... : ... .. . ... ... : ... .. . ... ...
ROW E9 : ... .. . ... ... ... : ... .. . ... ... ... : ... .. . ... : ... .. 0 ... : ... .. . ... ... : ... .. . ... ... : ... .. . ... ... : ... .. . ... ...
ROW EA : F-3 00 A ... ... ... : F-4 00 F ... ... ... : C#5 00 . ... : 5-# 00 D ... : ... .. . ... ... : B-2 01 5 ... ... : F-5 01 5 ... ... : D-2 01 F ... ...
ROW EB : ... .. 9 ... ... ... : ... .. E ... ... ... : D#4 00 . ... : ... .. B ... : ... .. . ... ... : ... .. 4 ... ... : ... .. 4 ... ... : ... .. D ... ...
ROW EC : ... .. 8 ... ... ... : ... .. D ... ... ... : G#3 00 . ... : ... .. . ... : ... .. . ... ... : ... .. . ... ... : ... .. . ... ... : ... .. 8 ... ...
ROW ED : ... .. 6 ... ... ... : ... .. A ... ... ... : G-3 00 . ... : ... .. A ... : ... .. . ... ... : ... .. 3 ... ... : ... .. 3 ... ... : --- .. . ... ...
ROW EE : ... .. 1 ... ... ... : ... .. 2 ... ... ... : D-3 00 . ... : ... .. 8 ... : ... .. . ... ... : ... .. . ... ... : ... .. . ... ... : ... .. . ... ...
ROW EF : ... .. . ... ... ... : ... .. . ... ... ... : ... .. . ... : ... .. 7 ... : ... .. . ... ... : ... .. . ... ... : ... .. . ... ... : ... .. . ... ...
ROW F0 : D-3 00 A ... ... ... : D-4 00 F ... ... ... : D-2 00 . ... : 1-# 00 F ... : ... .. . ... ... : C-3 01 5 ... ... : D-5 01 5 ... ... : D-2 01 F ... ...
ROW F1 : ... .. 9 ... ... ... : ... .. E ... ... ... : ... .. . ... : ... .. C ... : ... .. . ... ... : ... .. 4 ... ... : ... .. 4 ... ... : ... .. D ... ...
ROW F2 : ... .. 8 ... ... ... : ... .. D ... ... ... : ... .. . ... : ... .. 6 ... : ... .. . ... ... : ... .. . ... ... : ... .. . ... ... : ... .. 8 ... ...
ROW F3 : ... .. 6 ... ... ... : ... .. A ... ... ... : ... .. . ... : ... .. 3 ... : ... .. . ... ... : ... .. 3 ... ... : ... .. 3 ... ... : ... .. . ... ...
ROW F4 : ... .. 1 ... ... ... : ... .. 2 ... ... ... : --- .. . ... : ... .. 2 ... : ... .. . ... ... : ... .. . ... ... : ... .. . ... ... : ... .. . ... ...
ROW F5 : ... .. . ... ... ... : ... .. . ... ... ... : ... .. . ... : ... .. 0 ... : ... .. . ... ... : ... .. . ... ... : ... .. . ... ... : ... .. . ... ...
ROW F6 : A-2 00 A ... ... ... : A-3 00 F ... ... ... : D-2 00 . ... : ... .. F ... : ... .. . ... ... : D-3 01 5 ... ... : F-5 01 5 ... ... : --- .. . ... ...
ROW F7 : ... .. 9 ... ... ... : ... .. E ... ... ... : ... .. . ... : ... .. C ... : ... .. . ... ... : ... .. 4 ... ... : ... .. 4 ... ... : ... .. . ... ...
ROW F8 : ... .. 8 ... ... ... : ... .. D ... ... ... : ... .. . ... : ... .. 6 ... : ... .. . ... ... : ... .. . ... ... : ... .. . ... ... : ... .. . ... ...
ROW F9 : ... .. 6 ... ... ... : ... .. A ... ... ... : ... .. . ... : ... .. 3 ... : ... .. . ... ... : ... .. 3 ... ... : ... .. 3 ... ... : ... .. . ... ...
ROW FA : ... .. 1 ... ... ... : ... .. 2 ... ... ... : --- .. . ... : ... .. 2 ... : ... .. . ... ... : ... .. . ... ... : ... .. . ... ... : ... .. . ... ...
ROW FB : ... .. . ... ... ... : ... .. . ... ... ... : ... .. . ... : ... .. 0 ... : ... .. . ... ... : ... .. . ... ... : ... .. . ... ... : ... .. . ... ...
ROW FC : A#2 00 A ... ... ... : A#3 00 F ... ... ... : G#4 00 . ... : 5-# 00 D ... : ... .. . ... ... : A#2 01 5 ... ... : ... .. 5 ... ... : A#1 01 F ... ...
ROW FD : ... .. 9 ... ... ... : ... .. E ... ... ... : A#3 00 . ... : ... .. B ... : ... .. . ... ... : ... .. 4 ... ... : ... .. 4 ... ... : ... .. D ... ...
ROW FE : ... .. 8 ... ... ... : ... .. D ... ... ... : D#3 00 . ... : ... .. . ... : ... .. . ... ... : ... .. . ... ... : ... .. . ... ... : ... .. 8 ... ...
ROW FF : ... .. 6 ... ... ... : ... .. A ... ... ... : D-3 00 . ... : ... .. A ... : ... .. . ... ... : ... .. 3 ... ... : ... .. 3 ... ... : --- .. . ... ...

PATTERN 0A
ROW 00 : ... .. 1 ... ... ... : ... .. 2 ... ... ... : A-2 00 . ... : ... .. 8 ... : ... .. . ... ... : ... .. . ... ... : ... .. . ... ... : ... .. . ... ...
ROW 01 : ... .. . ... ... ... : ... .. . ... ... ... : --- .. . ... : ... .. 7 ... : ... .. . ... ... : ... .. . ... ... : ... .. . ... ... : ... .. . ... ...
ROW 02 : C#3 00 A ... ... ... : C#4 00 F ... ... ... : A#2 00 . ... : ... .. F ... : ... .. . ... ... : C-3 01 5 ... ... : C#5 01 5 ... ... : A#1 01 F ... ...
ROW 03 : ... .. 9 ... ... ... : ... .. E ... ... ... : ... .. . ... : ... .. C ... : ... .. . ... ... : ... .. 4 ... ... : ... .. 4 ... ... : ... .. D ... ...
ROW 04 : ... .. 8 ... ... ... : ... .. D ... ... ... : ... .. . ... : ... .. 6 ... : ... .. . ... ... : ... .. . ... ... : ... .. . ... ... : ... .. 8 ... ...
ROW 05 : ... .. 6 ... ... ... : ... .. A ... ... ... : ... .. . ... : ... .. 3 ... : ... .. . ... ... : ... .. 3 ... ... : ... .. 3 ... ... : ... .. . ... ...
ROW 06 : ... .. 1 ... ... ... : ... .. 2 ... ... ... : ... .. . ... : ... .. 2 ... : ... .. . ... ... : ... .. . ... ... : ... .. . ... ... : ... .. . ... ...
ROW 07 : ... .. . ... ... ... : ... .. . ... ... ... : --- .. . ... : ... .. 0 ... : ... .. . ... ... : ... .. . ... ... : ... .. . ... ... : ... .. . ... ...
ROW 08 : F-3 00 A ... ... ... : F-4 00 F ... ... ... : C-3 00 . ... : F-# 00 F ... : ... .. . ... ... : C#3 01 5 ... ... : A#4 01 5 ... ... : --- .. . ... ...
ROW 09 : ... .. 9 ... ... ... : ... .. E ... ... ... : ... .. . ... : ... .. C ... : ... .. . ... ... : ... .. 4 ... ... : ... .. 4 ... ... : ... .. . ... ...
ROW 0A : ... .. 8 ... ... ... : ... .. D ... ... ... : ... .. . ... : ... .. 6 ... : ... .. . ... ... : ... .. . ... ... : ... .. . ... ... : ... .. . ... ...
ROW 0B : ... .. 6 ... ... ... : ... .. A ... ... ... : ... .. . ... : ... .. 3 ... : ... .. . ... ... : ... .. 3 ... ... : ... .. 3 ... ... : ... .. . ... ...
ROW 0C : ... .. 1 ... ... ... : ... .. 2 ... ... ... : ... .. . ... : ... .. 2 ... : ... .. . ... ... : ... .. . ... ... : ... .. . ... ... : ... .. . ... ...
ROW 0D : ... .. . ... ... ... : ... .. . ... ... ... : --- .. . ... : ... .. 0 ... : ... .. . ... ... : ... .. . ... ... : ... .. . ... ... : ... .. . ... ...
ROW 0E : A#3 00 A ... ... ... : A#4 00 F ... ... ... : C-3 00 . ... : D-# 00 F ... : ... .. . ... ... : F-3 01 5 ... ... : C#5 01 5 ... ... : A#1 01 F ... ...
ROW 0F : ... .. 9 ... ... ... : ... .. E ... ... ... : ... .. . ... : ... .. C ... : ... .. . ... ... : ... .. 4 ... ... : ... .. 4 ... ... : ... .. D ... ...
ROW 10 : ... .. 8 ... ... ... : ... .. D ... ... ... : ... .. . ... : ... .. 6 ... : ... .. . ... ... : ... .. . ... ... : ... .. . ... ... : ... .. 8 ... ...
ROW 11 : ... .. 6 ... ... ... : ... .. A ... ... ... : ... .. . ... : ... .. 3 ... : ... .. . ... ... : ... .. 3 ... ... : ... .. 3 ... ... : --- .. . ... ...
ROW 12 : ... .. 1 ... ... ... : ... .. 2 ... ... ... : ... .. . ... : ... .. 2 ... : ... .. . ... ... : ... .. . ... ... : ... .. . ... ... : ... .. . ... ...
ROW 13 : ... .. . ... ... ... : ... .. . ... ... ... : --- .. . ... : ... .. 0 ... : ... .. . ... ... : ... .. . ... ... : ... .. . ... ... : ... .. . ... ...
ROW 14 : C#4 00 A ... ... ... : C#5 00 F ... ... ... : C#3 00 . ... : B-# 00 F ... : ... .. . ... ... : A#3 01 5 ... ... : A#4 01 5 ... ... : A#1 01 F ... ...
ROW 15 : ... .. 9 ... ... ... : ... .. E ... ... ... : ... .. . ... : ... .. C ... : ... .. . ... ... : ... .. 4 ... ... : ... .. 4 ... ... : ... .. D ... ...
ROW 16 : ... .. 8 ... ... ... : ... .. D ... ... ... : ... .. . ... : ... .. 6 ... : ... .. . ... ... : ... .. . ... ... : ... .. . ... ... : ... .. 8 ... ...
ROW 17 : ... .. 6 ... ... ... : ... .. A ... ... ... : ... .. . ... : ... .. 3 ... : ... .. . ... ... : ... .. 3 ... ... : ... .. 3 ... ... : ... .. . ... ...
ROW 18 : ... .. 1 ... ... ... : ... .. 2 ... ... ... : ... .. . ... : ... .. 2 ... : ... .. . ... ... : ... .. . ... ... : ... .. . ... ... : ... .. . ... ...
ROW 19 : ... .. . ... ... ... : ... .. . ... ... ... : --- .. . ... : ... .. 0 ... : ... .. . ... ... : ... .. . ... ... : ... .. . ... ... : ... .. . ... ...
ROW 1A : F-4 00 A ... ... ... : F-5 00 F ... ... ... : D#3 00 . ... : 8-# 00 F ... : ... .. . ... ... : C#4 01 5 ... ... : F-4 01 5 ... ... : --- .. . ... ...
ROW 1B : ... .. 9 ... ... ... : ... .. E ... ... ... : ... .. . ... : ... .. C ... : ... .. . ... ... : ... .. 4 ... ... : ... .. 4 ... ... : ... .. . ... ...
ROW 1C : ... .. 8 ... ... ... : ... .. D ... ... ... : ... .. . ... : ... .. 6 ... : ... .. . ... ... : ... .. . ... ... : ... .. . ... ... : ... .. . ... ...
ROW 1D : ... .. 6 ... ... ... : ... .. A ... ... ... : ... .. . ... : ... .. 3 ... : ... .. . ... ... : ... .. 3 ... ... : ... .. 3 ... ... : ... .. . ... ...
ROW 1E : ... .. 1 ... ... ... : ... .. 2 ... ... ... : ... .. . ... : ... .. 2 ... : ... .. . ... ... : ... .. . ... ... : ... .. . ... ... : ... .. . ... ...
ROW 1F : ... .. . ... ... ... : ... .. . ... ... ... : --- .. . ... : ... .. 0 ... : ... .. . ... ... : ... .. . ... ... : ... .. . ... ... : ... .. . ... ...
ROW 20 : G#4 00 D ... ... ... : G#5 00 D ... ... ... : E-5 00 . ... : D-# 00 F ... : ... .. . ... ... : F-3 01 A ... ... : G#3 01 A P7F ... : C-4 01 F P81 ...
ROW 21 : ... .. B ... ... ... : ... .. B ... ... ... : F#4 00 . ... : ... .. . ... : ... .. . ... ... : ... .. 9 ... ... : ... .. 9 ... ... : ... .. D ... ...
ROW 22 : ... .. . ... ... ... : ... .. . ... ... ... : B-3 00 . ... : ... .. . ... : ... .. . ... ... : ... .. 8 ... ... : ... .. 8 ... ... : ... .. 8 ... ...
ROW 23 : ... .. A ... ... ... : ... .. A ... ... ... : A#3 00 . ... : C-# 00 D ... : ... .. . ... ... : ... .. 7 ... ... : ... .. 7 ... ... : ... .. . ... ...
ROW 24 : ... .. 8 ... ... ... : ... .. 8 ... ... ... : F-3 00 . ... : ... .. . ... : ... .. . ... ... : ... .. . ... ... : ... .. . ... ... : ... .. . ... ...
ROW 25 : ... .. 7 ... ... ... : ... .. 7 ... ... ... : ... .. . ... : ... .. . ... : ... .. . ... ... : ... .. 6 ... ... : ... .. 6 ... ... : ... .. . ... ...
ROW 26 : F-4 00 D ... ... ... : F-5 00 D ... ... ... : ... .. . ... : B-# 00 B ... : ... .. . ... ... : ... .. . ... ... : ... .. . ... ... : ... .. . ... ...
ROW 27 : ... .. B ... ... ... : ... .. B ... ... ... : ... .. . ... : ... .. . ... : ... .. . ... ... : ... .. 5 ... ... : ... .. 5 ... ... : ... .. . ... ...
ROW 28 : ... .. . ... ... ... : ... .. . ... ... ... : ... .. . ... : ... .. . ... : ... .. . ... ... : ... .. . ... ... : ... .. . ... ... : ... .. . ... ...
ROW 29 : ... .. A ... ... ... : ... .. A ... ... ... : ... .. . ... : ... .. 9 ... : ... .. . ... ... : ... .. . ... ... : ... .. . ... ... : ... .. . ... ...
ROW 2A : ... .. 8 ... ... ... : ... .. 8 ... ... ... : --- .. . ... : ... .. . ... : ... .. . ... ... : ... .. . ... ... : ... .. . ... ... : ... .. . ... ...
ROW 2B : ... .. 7 ... ... ... : ... .. 7 ... ... ... : ... .. . ... : ... .. . ... : ... .. . ... ... : ... .. . ... ... : ... .. . ... ... : ... .. . ... ...
ROW 2C : C-4 00 D ... ... ... : C-5 00 D ... ... ... : F-3 00 . ... : ... .. 7 ... : ... .. . ... ... : ... .. . ... ... : ... .. . ... ... : ... .. . ... ...
ROW 2D : ... .. B ... ... ... : ... .. B ... ... ... : ... .. . ... : ... .. . ... : ... .. . ... ... : ... .. . ... ... : ... .. . ... ... : ... .. . ... ...
ROW 2E : ... .. . ... ... ... : ... .. . ... ... ... : ... .. . ... : ... .. . ... : ... .. . ... ... : ... .. . ... ... : ... .. . ... ... : ... .. . ... ...
ROW 2F : ... .. A ... ... ... : ... .. A ... ... ... : ... .. . ... : ... .. 5 ... : ... .. . ... ... : ... .. . ... ... : ... .. . ... ... : ... .. . ... ...
ROW 30 : ... .. 8 ... ... ... : ... .. 8 ... ... ... : --- .. . ... : ... .. . ... : ... .. . ... ... : ... .. . ... ... : ... .. . ... ... : ... .. . ... ...
ROW 31 : ... .. 7 ... ... ... : ... .. 7 ... ... ... : ... .. . ... : ... .. . ... : ... .. . ... ... : ... .. . ... ... : ... .. . ... ... : ... .. . ... ...
ROW 32 : G#3 00 D ... ... ... : G#4 00 D ... ... ... : F-3 00 . ... : D-# 00 D ... : ... .. . ... ... : ... .. . ... ... : ... .. . ... ... : ... .. . ... ...
ROW 33 : ... .. B ... ... ... : ... .. B ... ... ... : ... .. . ... : ... .. B ... : ... .. . ... ... : ... .. . ... ... : ... .. . ... ... : ... .. . ... ...
ROW 34 : ... .. . ... ... ... : ... .. . ... ... ... : ... .. . ... : ... .. . ... : ... .. . ... ... : ... .. . ... ... : ... .. . ... ... : ... .. . ... ...
ROW 35 : ... .. A ... ... ... : ... .. A ... ... ... : ... .. . ... : ... .. A ... : ... .. . ... ... : ... .. . ... ... : ... .. . ... ... : ... .. . ... ...
ROW 36 : ... .. 8 ... ... ... : ... .. 8 ... ... ... : --- .. . ... : ... .. 8 ... : ... .. . ... ... : ... .. . ... ... : ... .. . ... ... : ... .. . ... ...
ROW 37 : ... .. 7 ... ... ... : ... .. 7 ... ... ... : ... .. . ... : ... .. 7 ... : ... .. . ... ... : ... .. . ... ... : ... .. . ... ... : ... .. . ... ...
ROW 38 : F-3 00 D ... ... ... : F-4 00 D ... ... ... : F-3 00 . ... : 1-# 00 F ... : ... .. . ... ... : ... .. . ... ... : ... .. . ... ... : ... .. . ... ...
ROW 39 : ... .. B ... ... ... : ... .. B ... ... ... : ... .. . ... : ... .. C ... : ... .. . ... ... : ... .. . ... ... : ... .. . ... ... : ... .. . ... ...
ROW 3A : ... .. . ... ... ... : ... .. . ... ... ... : ... .. . ... : ... .. 6 ... : ... .. . ... ... : ... .. . ... ... : ... .. . ... ... : ... .. . ... ...
ROW 3B : ... .. A ... ... ... : ... .. A ... ... ... : ... .. . ... : ... .. 3 ... : ... .. . ... ... : ... .. . ... ... : ... .. . ... ... : ... .. . ... ...
ROW 3C : ... .. 8 ... ... ... : ... .. 8 ... ... ... : --- .. . ... : ... .. 2 ... : ... .. . ... ... : ... .. . ... ... : ... .. . ... ... : ... .. . ... ...
ROW 3D : ... .. 7 ... ... ... : ... .. 7 ... ... ... : ... .. . ... : ... .. 0 ... : ... .. . ... ... : ... .. . ... ... : ... .. . ... ... : ... .. . ... ...
ROW 3E : C-3 00 D ... ... ... : C-4 00 D ... ... ... : F-3 00 . ... : A-# 00 F ... : ... .. . ... ... : ... .. . ... ... : ... .. . ... ... : ... .. . ... ...
ROW 3F : ... .. B ... ... ... : ... .. B ... ... ... : ... .. . ... : ... .. C ... : ... .. . ... ... : ... .. . ... ... : ... .. . ... ... : ... .. . ... ...
ROW 40 : ... .. . ... ... ... : ... .. . ... ... ... : ... .. . ... : ... .. 6 ... : ... .. . ... ... : ... .. . ... ... : ... .. . ... ... : ... .. . ... ...
ROW 41 : ... .. A ... ... ... : ... .. A ... ... ... : ... .. . ... : ... .. 3 ... : ... .. . ... ... : ... .. . ... ... : ... .. . ... ... : ... .. . ... ...
ROW 42 : ... .. 8 ... ... ... : ... .. 8 ... ... ... : --- .. . ... : ... .. 2 ... : ... .. . ... ... : ... .. . ... ... : ... .. . ... ... : ... .. . ... ...
ROW 43 : ... .. 7 ... ... ... : ... .. 7 ... ... ... : ... .. . ... : ... .. 0 ... : ... .. . ... ... : ... .. . ... ... : ... .. . ... ... : ... .. . ... ...
ROW 44 : G#4 00 D ... ... ... : G#5 00 D ... ... ... : F-3 00 . ... : 5-# 00 D ... : ... .. . ... ... : G#2 01 A ... ... : C-3 01 A ... ... : F-3 01 F ... ...
ROW 45 : ... .. B ... ... ... : ... .. B ... ... ... : ... .. . ... : ... .. B ... : ... .. . ... ... : ... .. 9 ... ... : ... .. 9 ... ... : ... .. D ... ...
ROW 46 : ... .. . ... ... ... : ... .. . ... ... ... : ... .. . ... : ... .. . ... : ... .. . ... ... : ... .. 8 ... ... : ... .. 8 ... ... : ... .. 8 ... ...
ROW 47 : ... .. A ... ... ... : ... .. A ... ... ... : ... .. . ... : ... .. A ... : ... .. . ... ... : ... .. 7 ... ... : ... .. 7 ... ... : ... .. . ... ...
ROW 48 : ... .. 8 ... ... ... : ... .. 8 ... ... ... : --- .. . ... : ... .. 8 ... : ... .. . ... ... : ... .. . ... ... : ... .. . ... ... : ... .. . ... ...
ROW 49 : ... .. 7 ... ... ... : ... .. 7 ... ... ... : ... .. . ... : ... .. 7 ... : ... .. . ... ... : ... .. 6 ... ... : ... .. 6 ... ... : ... .. . ... ...
ROW 4A : F-4 00 D ... ... ... : F-5 00 D ... ... ... : F-3 00 . ... : 0-# 00 F ... : ... .. . ... ... : ... .. . ... ... : ... .. . ... ... : ... .. . ... ...
ROW 4B : ... .. B ... ... ... : ... .. B ... ... ... : ... .. . ... : ... .. C ... : ... .. . ... ... : ... .. 5 ... ... : ... .. 5 ... ... : ... .. . ... ...
ROW 4C : ... .. . ... ... ... : ... .. . ... ... ... : ... .. . ... : ... .. 6 ... : ... .. . ... ... : ... .. . ... ... : ... .. . ... ... : ... .. . ... ...
ROW 4D : ... .. A ... ... ... : ... .. A ... ... ... : ... .. . ... : ... .. 3 ... : ... .. . ... ... : ... .. . ... ... : ... .. . ... ... : ... .. . ... ...
ROW 4E : ... .. 8 ... ... ... : ... .. 8 ... ... ... : --- .. . ... : ... .. 2 ... : ... .. . ... ... : ... .. . ... ... : ... .. . ... ... : ... .. . ... ...
ROW 4F : ... .. 7 ... ... ... : ... .. 7 ... ... ... : ... .. . ... : ... .. 0 ... : ... .. . ... ... : ... .. . ... ... : ... .. . ... ... : ... .. . ... ...
ROW 50 : C-4 00 D ... ... ... : C-5 00 D ... ... ... : F-3 00 . ... : D-# 00 F ... : ... .. . ... ... : ... .. . ... ... : ... .. . ... ... : ... .. . ... ...
ROW 51 : ... .. B ... ... ... : ... .. B ... ... ... : ... .. . ... : ... .. C ... : ... .. . ... ... : ... .. . ... ... : ... .. . ... ... : ... .. 4 ... ...
ROW 52 : ... .. . ... ... ... : ... .. . ... ... ... : ... .. . ... : ... .. 0 ... : ... .. . ... ... : ... .. 3 ... ... : ... .. 3 ... ... : ... .. . ... ...
ROW 53 : ... .. A ... ... ... : ... .. A ... ... ... : ... .. . ... : ... .. F ... : ... .. . ... ... : ... .. . ... ... : ... .. . ... ... : ... .. 1 ... ...
ROW 54 : ... .. 8 ... ... ... : ... .. 8 ... ... ... : --- .. . ... : ... .. C ... : ... .. . ... ... : ... .. . ... ... : ... .. . ... ... : ... .. . ... ...
ROW 55 : ... .. 7 ... ... ... : ... .. 7 ... ... ... : ... .. . ... : ... .. 0 ... : ... .. . ... ... : ... .. . ... ... : ... .. . ... ... : ... .. . ... ...
ROW 56 : G#3 00 D ... ... ... : G#4 00 D ... ... ... : F-3 00 . ... : ... .. F ... : ... .. . ... ... : F-3 01 A ... ... : G#3 01 A ... ... : C-4 01 F ... ...
ROW 57 : ... .. B ... ... ... : ... .. B ... ... ... : ... .. . ... : ... .. C ... : ... .. . ... ... : ... .. 9 ... ... : ... .. 9 ... ... : ... .. D ... ...
ROW 58 : ... .. . ... ... ... : ... .. . ... ... ... : ... .. . ... : ... .. 0 ... : ... .. . ... ... : ... .. 8 ... ... : ... .. 8 ... ... : ... .. 8 ... ...
ROW 59 : ... .. A ... ... ... : ... .. A ... ... ... : ... .. . ... : ... .. . ... : ... .. . ... ... : ... .. 7 ... ... : ... .. 7 ... ... : ... .. . ... ...
ROW 5A : ... .. 8 ... ... ... : ... .. 8 ... ... ... : --- .. . ... : ... .. . ... : ... .. . ... ... : ... .. . ... ... : ... .. . ... ... : ... .. . ... ...
ROW 5B : ... .. 7 ... ... ... : ... .. 7 ... ... ... : ... .. . ... : ... .. . ... : ... .. . ... ... : ... .. 6 ... ... : ... .. 6 ... ... : ... .. . ... ...
ROW 5C : F-3 00 D ... ... ... : F-4 00 D ... ... ... : F-3 00 . ... : 5-# 00 D ... : ... .. . ... ... : ... .. . ... ... : ... .. . ... ... : ... .. . ... ...
ROW 5D : ... .. B ... ... ... : ... .. B ... ... ... : ... .. . ... : ... .. B ... : ... .. . ... ... : ... .. 5 ... ... : ... .. 5 ... ... : ... .. . ... ...
ROW 5E : ... .. . ... ... ... : ... .. . ... ... ... : ... .. . ... : ... .. . ... : ... .. . ... ... : ... .. . ... ... : ... .. . ... ... : ... .. . ... ...
ROW 5F : ... .. A ... ... ... : ... .. A ... ... ... : ... .. . ... : ... .. A ... : ... .. . ... ... : ... .. . ... ... : ... .. . ... ... : ... .. . ... ...
ROW 60 : ... .. 8 ... ... ... : ... .. 8 ... ... ... : --- .. . ... : ... .. 8 ... : ... .. . ... ... : ... .. . ... ... : ... .. . ... ... : ... .. . ... ...
ROW 61 : ... .. 7 ... ... ... : ... .. 7 ... ... ... : ... .. . ... : ... .. 7 ... : ... .. . ... ... : ... .. . ... ... : ... .. . ... ... : ... .. . ... ...
ROW 62 : C-3 00 D ... ... ... : C-4 00 D ... ... ... : F-3 00 . ... : F-# 00 D ... : ... .. . ... ... : ... .. . ... ... : ... .. . ... ... : ... .. . ... ...
ROW 63 : ... .. B ... ... ... : ... .. B ... ... ... : ... .. . ... : ... .. B ... : ... .. . ... ... : ... .. . ... ... : ... .. . ... ... : ... .. . ... ...
ROW 64 : ... .. . ... ... ... : ... .. . ... ... ... : ... .. . ... : ... .. . ... : ... .. . ... ... : ... .. . ... ... : ... .. . ... ... : ... .. . ... ...
ROW 65 : ... .. A ... ... ... : ... .. A ... ... ... : ... .. . ... : ... .. A ... : ... .. . ... ... : ... .. . ... ... : ... .. . ... ... : ... .. . ... ...
ROW 66 : ... .. 8 ... ... ... : ... .. 8 ... ... ... : --- .. . ... : ... .. 8 ... : ... .. . ... ... : ... .. . ... ... : ... .. . ... ... : ... .. 4 ... ...
ROW 67 : ... .. 7 ... ... ... : ... .. 7 ... ... ... : ... .. . ... : ... .. 7 ... : ... .. . ... ... : ... .. 3 ... ... : ... .. 3 ... ... : ... .. . ... ...
ROW 68 : A#4 00 D ... ... ... : A#5 00 D ... ... ... : E-5 00 . ... : D-# 00 F ... : ... .. . ... ... : ... .. A ... ... : ... .. A ... ... : ... .. F ... ...
ROW 69 : ... .. B ... ... ... : ... .. B ... ... ... : F#4 00 . ... : ... .. . ... : ... .. . ... ... : ... .. 9 ... ... : ... .. 9 ... ... : ... .. D ... ...
ROW 6A : ... .. . ... ... ... : ... .. . ... ... ... : B-3 00 . ... : ... .. . ... : ... .. . ... ... : ... .. 8 ... ... : ... .. 8 ... ... : ... .. 8 ... ...
ROW 6B : ... .. A ... ... ... : ... .. A ... ... ... : A#3 00 . ... : C-# 00 D ... : ... .. . ... ... : ... .. 7 ... ... : ... .. 7 ... ... : ... .. . ... ...
ROW 6C : ... .. 8 ... ... ... : ... .. 8 ... ... ... : F-3 00 . ... : ... .. . ... : ... .. . ... ... : ... .. . ... ... : ... .. . ... ... : ... .. . ... ...
ROW 6D : ... .. 7 ... ... ... : ... .. 7 ... ... ... : ... .. . ... : ... .. . ... : ... .. . ... ... : ... .. 6 ... ... : ... .. 6 ... ... : ... .. . ... ...
ROW 6E : F#4 00 D ... ... ... : F#5 00 D ... ... ... : ... .. . ... : B-# 00 B ... : ... .. . ... ... : ... .. . ... ... : ... .. . ... ... : ... .. . ... ...
ROW 6F : ... .. B ... ... ... : ... .. B ... ... ... : ... .. . ... : ... .. . ... : ... .. . ... ... : ... .. 5 ... ... : ... .. 5 ... ... : ... .. . ... ...
ROW 70 : ... .. . ... ... ... : ... .. . ... ... ... : ... .. . ... : ... .. . ... : ... .. . ... ... : ... .. . ... ... : ... .. . ... ... : ... .. . ... ...
ROW 71 : ... .. A ... ... ... : ... .. A ... ... ... : D#3 00 . P88 : ... .. 9 ... : ... .. . ... ... : ... .. . ... ... : ... .. . ... ... : ... .. . ... ...
ROW 72 : ... .. 8 ... ... ... : ... .. 8 ... ... ... : D-3 00 . P7D : ... .. . ... : ... .. . ... ... : ... .. . ... ... : ... .. . ... ... : ... .. 4 ... ...
ROW 73 : ... .. 7 ... ... ... : ... .. 7 ... ... ... : C-3 00 . P8C : ... .. . ... : ... .. . ... ... : ... .. 3 ... ... : ... .. 3 ... ... : ... .. . ... ...
ROW 74 : C#4 00 D ... ... ... : C#5 00 D ... ... ... : B-2 00 . P85 : ... .. 7 ... : ... .. . ... ... : ... .. . ... ... : ... .. . ... ... : ... .. 1 ... ...
ROW 75 : ... .. B ... ... ... : ... .. B ... ... ... : A#2 00 . P80 : ... .. . ... : ... .. . ... ... : ... .. . ... ... : ... .. . ... ... : ... .. . ... ...
ROW 76 : ... .. . ... ... ... : ... .. . ... ... ... : A-2 00 . P7C : ... .. . ... : ... .. . ... ... : ... .. . ... ... : ... .. . ... ... : ... .. . ... ...
ROW 77 : ... .. A ... ... ... : ... .. A ... ... ... : G#2 00 . P7B : ... .. 5 ... : ... .. . ... ... : ... .. . ... ... : ... .. . ... ... : ... .. . ... ...
ROW 78 : ... .. 8 ... ... ... : ... .. 8 ... ... ... : G-2 00 . ... : ... .. . ... : ... .. . ... ... : ... .. . ... ... : ... .. . ... ... : ... .. . ... ...
ROW 79 : ... .. 7 ... ... ... : ... .. 7 ... ... ... : F#2 00 . P7D : ... .. . ... : ... .. . ... ... : ... .. . ... ... : ... .. . ... ... : ... .. . ... ...
ROW 7A : A#3 00 D ... ... ... : A#4 00 D ... ... ... : E-4 00 . P80 : D-# 00 F ... : ... .. . ... ... : D#3 01 A ... ... : F#3 01 A ... ... : A#3 01 F ... ...
ROW 7B : ... .. B ... ... ... : ... .. B ... ... ... : F#3 00 . ... : ... .. . ... : ... .. . ... ... : ... .. 9 ... ... : ... .. 9 ... ... : ... .. D ... ...
ROW 7C : ... .. . ... ... ... : ... .. . ... ... ... : B-2 00 . ... : ... .. . ... : ... .. . ... ... : ... .. 8 ... ... : ... .. 8 ... ... : ... .. 8 ... ...
ROW 7D : ... .. A ... ... ... : ... .. A ... ... ... : A#2 00 . ... : C-# 00 D ... : ... .. . ... ... : ... .. 7 ... ... : ... .. 7 ... ... : ... .. . ... ...
ROW 7E : ... .. 8 ... ... ... : ... .. 8 ... ... ... : F-2 00 . ... : ... .. . ... : ... .. . ... ... : ... .. . ... ... : ... .. . ... ... : ... .. . ... ...
ROW 7F : ... .. 7 ... ... ... : ... .. 7 ... ... ... : ... .. . ... : ... .. . ... : ... .. . ... ... : ... .. 6 ... ... : ... .. 6 ... ... : ... .. . ... ...
ROW 80 : F#3 00 D ... ... ... : F#4 00 D ... ... ... : ... .. . ... : B-# 00 B ... : ... .. . ... ... : ... .. . ... ... : ... .. . ... ... : ... .. . ... ...
ROW 81 : ... .. B ... ... ... : ... .. B ... ... ... : ... .. . ... : ... .. . ... : ... .. . ... ... : ... .. 5 ... ... : ... .. 5 ... ... : ... .. . ... ...
ROW 82 : ... .. . ... ... ... : ... .. . ... ... ... : ... .. . ... : ... .. . ... : ... .. . ... ... : ... .. . ... ... : ... .. . ... ... : ... .. . ... ...
ROW 83 : ... .. A ... ... ... : ... .. A ... ... ... : ... .. . ... : ... .. 9 ... : ... .. . ... ... : ... .. . ... ... : ... .. . ... ... : ... .. . ... ...
ROW 84 : ... .. 8 ... ... ... : ... .. 8 ... ... ... : ... .. . ... : ... .. . ... : ... .. . ... ... : ... .. . ... ... : ... .. . ... ... : ... .. . ... ...
ROW 85 : ... .. 7 ... ... ... : ... .. 7 ... ... ... : ... .. . ... : ... .. . ... : ... .. . ... ... : ... .. . ... ... : ... .. . ... ... : ... .. . ... ...
ROW 86 : C#3 00 D ... ... ... : C#4 00 D ... ... ... : F#2 00 . P8C : ... .. 7 ... : ... .. . ... ... : ... .. . ... ... : ... .. . ... ... : ... .. . ... ...
ROW 87 : ... .. B ... ... ... : ... .. B ... ... ... : G#2 00 . P7A : ... .. . ... : ... .. . ... ... : ... .. . ... ... : ... .. . ... ... : ... .. . ... ...
ROW 88 : ... .. . ... ... ... : ... .. . ... ... ... : A-2 00 . P8B : ... .. . ... : ... .. . ... ... : ... .. . ... ... : ... .. . ... ... : ... .. . ... ...
ROW 89 : ... .. A ... ... ... : ... .. A ... ... ... : B-2 00 . P84 : ... .. 5 ... : ... .. . ... ... : ... .. . ... ... : ... .. . ... ... : ... .. . ... ...
ROW 8A : ... .. 8 ... ... ... : ... .. 8 ... ... ... : C#3 00 . P83 : ... .. . ... : ... .. . ... ... : ... .. . ... ... : ... .. . ... ... : ... .. . ... ...
ROW 8B : ... .. 7 ... ... ... : ... .. 7 ... ... ... : D#3 00 . P87 : ... .. . ... : ... .. . ... ... : ... .. . ... ... : ... .. . ... ... : ... .. . ... ...
ROW 8C : A#4 00 D ... ... ... : A#5 00 D ... ... ... : F-3 00 . P80 : 5-# 00 D ... : ... .. . ... ... : ... .. . ... ... : ... .. . ... ... : ... .. . ... ...
ROW 8D : ... .. B ... ... ... : ... .. B ... ... ... : ... .. . ... : ... .. B ... : ... .. . ... ... : ... .. . ... ... : ... .. . ... ... : ... .. . ... ...
ROW 8E : ... .. . ... ... ... : ... .. . ... ... ... : ... .. . ... : ... .. . ... : ... .. . ... ... : ... .. . ... ... : ... .. . ... ... : ... .. . ... ...
ROW 8F : ... .. A ... ... ... : ... .. A ... ... ... : ... .. . ... : ... .. A ... : ... .. . ... ... : ... .. . ... ... : ... .. . ... ... : ... .. . ... ...
ROW 90 : ... .. 8 ... ... ... : ... .. 8 ... ... ... : --- .. . ... : ... .. 8 ... : ... .. . ... ... : ... .. . ... ... : ... .. . ... ... : ... .. . ... ...
ROW 91 : ... .. 7 ... ... ... : ... .. 7 ... ... ... : ... .. . ... : ... .. 7 ... : ... .. . ... ... : ... .. . ... ... : ... .. . ... ... : ... .. . ... ...
ROW 92 : F#4 00 D ... ... ... : F#5 00 D ... ... ... : F-3 00 . ... : A-# 00 F ... : ... .. . ... ... : ... .. . ... ... : ... .. . ... ... : ... .. . ... ...
ROW 93 : ... .. B ... ... ... : ... .. B ... ... ... : ... .. . ... : ... .. C ... : ... .. . ... ... : ... .. . ... ... : ... .. . ... ... : ... .. . ... ...
ROW 94 : ... .. . ... ... ... : ... .. . ... ... ... : ... .. . ... : ... .. 6 ... : ... .. . ... ... : ... .. . ... ... : ... .. . ... ... : ... .. . ... ...
ROW 95 : ... .. A ... ... ... : ... .. A ... ... ... : ... .. . ... : ... .. 3 ... : ... .. . ... ... : ... .. . ... ... : ... .. . ... ... : ... .. . ... ...
ROW 96 : ... .. 8 ... ... ... : ... .. 8 ... ... ... : --- .. . ... : ... .. 2 ... : ... .. . ... ... : ... .. . ... ... : ... .. . ... ... : ... .. . ... ...
ROW 97 : ... .. 7 ... ... ... : ... .. 7 ... ... ... : ... .. . ... : ... .. 0 ... : ... .. . ... ... : ... .. . ... ... : ... .. . ... ... : ... .. . ... ...
ROW 98 : C#4 00 D ... ... ... : C#5 00 D ... ... ... : F-3 00 . ... : ... .. F ... : ... .. . ... ... : ... .. . ... ... : ... .. . ... ... : ... .. . ... ...
ROW 99 : ... .. B ... ... ... : ... .. B ... ... ... : ... .. . ... : ... .. C ... : ... .. . ... ... : ... .. . ... ... : ... .. . ... ... : ... .. . ... ...
ROW 9A : ... .. . ... ... ... : ... .. . ... ... ... : ... .. . ... : ... .. 6 ... : ... .. . ... ... : ... .. . ... ... : ... .. . ... ... : ... .. . ... ...
ROW 9B : ... .. A ... ... ... : ... .. A ... ... ... : ... .. . ... : ... .. 3 ... : ... .. . ... ... : ... .. . ... ... : ... .. . ... ... : ... .. . ... ...
ROW 9C : ... .. 8 ... ... ... : ... .. 8 ... ... ... : --- .. . ... : ... .. 2 ... : ... .. . ... ... : ... .. . ... ... : ... .. . ... ... : ... .. . ... ...
ROW 9D : ... .. 7 ... ... ... : ... .. 7 ... ... ... : ... .. . ... : ... .. 0 ... : ... .. . ... ... : ... .. . ... ... : ... .. . ... ... : ... .. . ... ...
ROW 9E : A#3 00 D ... ... ... : A#4 00 D ... ... ... : F-3 00 . ... : 9-# 00 D ... : ... .. . ... ... : ... .. . ... ... : ... .. . ... ... : ... .. . ... ...
ROW 9F : ... .. B ... ... ... : ... .. B ... ... ... : ... .. . ... : ... .. B ... : ... .. . ... ... : ... .. . ... ... : ... .. . ... ... : ... .. . ... ...
ROW A0 : ... .. . ... ... ... : ... .. . ... ... ... : ... .. . ... : ... .. . ... : ... .. . ... ... : ... .. . ... ... : ... .. . ... ... : ... .. . ... ...
ROW A1 : ... .. A ... ... ... : ... .. A ... ... ... : ... .. . ... : ... .. A ... : ... .. . ... ... : ... .. . ... ... : ... .. . ... ... : ... .. . ... ...
ROW A2 : ... .. 8 ... ... ... : ... .. 8 ... ... ... : --- .. . ... : ... .. 8 ... : ... .. . ... ... : ... .. . ... ... : ... .. . ... ... : ... .. . ... ...
ROW A3 : ... .. 7 ... ... ... : ... .. 7 ... ... ... : ... .. . ... : ... .. 7 ... : ... .. . ... ... : ... .. . ... ... : ... .. . ... ... : ... .. . ... ...
ROW A4 : F#3 00 D ... ... ... : F#4 00 D ... ... ... : F-3 00 . ... : 6-# 00 D ... : ... .. . ... ... : ... .. . ... ... : ... .. . ... ... : ... .. . P85 ...
ROW A5 : ... .. B ... ... ... : ... .. B ... ... ... : ... .. . ... : ... .. B ... : ... .. . ... ... : ... .. . ... ... : ... .. . ... ... : ... .. . P87 ...
ROW A6 : ... .. . ... ... ... : ... .. . ... ... ... : ... .. . ... : ... .. . ... : ... .. . ... ... : ... .. . ... ... : ... .. . ... ... : ... .. . P86 ...
ROW A7 : ... .. A ... ... ... : ... .. A ... ... ... : ... .. . ... : ... .. A ... : ... .. . ... ... : ... .. . ... ... : ... .. . ... ... : ... .. . P83 ...
ROW A8 : ... .. 8 ... ... ... : ... .. 8 ... ... ... : --- .. . ... : ... .. 8 ... : ... .. . ... ... : ... .. . ... ... : ... .. . ... ... : ... .. . P7F ...
ROW A9 : ... .. 7 ... ... ... : ... .. 7 ... ... ... : ... .. . ... : ... .. 7 ... : ... .. . ... ... : ... .. . ... ... : ... .. . ... ... : ... .. . P7C ...
ROW AA : C#3 00 D ... ... ... : C#4 00 D ... ... ... : F-3 00 . ... : ... .. D ... : ... .. . ... ... : ... .. . ... ... : ... .. . ... ... : ... .. . P7B ...
ROW AB : ... .. B ... ... ... : ... .. B ... ... ... : ... .. . ... : ... .. B ... : ... .. . ... ... : ... .. . ... ... : ... .. . ... ... : ... .. . P7D ...
ROW AC : ... .. . ... ... ... : ... .. . ... ... ... : ... .. . ... : ... .. . ... : ... .. . ... ... : ... .. . ... ... : ... .. . ... ... : ... .. . P81 ...
ROW AD : ... .. A ... ... ... : ... .. A ... ... ... : ... .. . ... : ... .. A ... : ... .. . ... ... : ... .. . ... ... : ... .. . ... ... : ... .. . P84 ...
ROW AE : ... .. 8 ... ... ... : ... .. 8 ... ... ... : --- .. . ... : ... .. 8 ... : ... .. . ... ... : ... .. . ... ... : ... .. . ... ... : ... .. . P87 ...
ROW AF : ... .. 7 ... ... ... : ... .. 7 ... ... ... : ... .. . ... : ... .. 7 ... : ... .. . ... ... : ... .. . ... ... : ... .. . ... ... : ... .. . ... ...
ROW B0 : A#4 00 D ... ... ... : A#5 00 D ... ... ... : E-5 00 . ... : 1-# 00 F ... : ... .. . ... ... : ... .. . ... ... : ... .. . ... ... : ... .. . P83 ...
ROW B1 : ... .. B ... ... ... : ... .. B ... ... ... : F#4 00 . ... : ... .. C ... : ... .. . ... ... : ... .. . ... ... : ... .. . ... ... : ... .. . P80 ...
ROW B2 : ... .. . ... ... ... : ... .. . ... ... ... : B-3 00 . ... : ... .. 6 ... : ... .. . ... ... : ... .. . ... ... : ... .. . ... ... : ... .. . P7C ...
ROW B3 : ... .. A ... ... ... : ... .. A ... ... ... : A#3 00 . ... : ... .. 3 ... : ... .. . ... ... : ... .. . ... ... : ... .. . ... ... : ... .. . P7B ...
ROW B4 : ... .. 8 ... ... ... : ... .. 8 ... ... ... : F-3 00 . ... : ... .. 2 ... : ... .. . ... ... : ... .. . ... ... : ... .. . ... ... : ... .. . P7D ...
ROW B5 : ... .. 7 ... ... ... : ... .. 7 ... ... ... : ... .. . ... : ... .. 0 ... : ... .. . ... ... : ... .. . ... ... : ... .. . ... ... : ... .. . P81 ...
ROW B6 : F#4 00 D ... ... ... : F#5 00 D ... ... ... : ... .. . ... : ... .. F ... : ... .. . ... ... : ... .. . ... ... : ... .. . ... ... : ... .. . P84 ...
ROW B7 : ... .. B ... ... ... : ... .. B ... ... ... : ... .. . ... : ... .. C ... : ... .. . ... ... : ... .. . ... ... : ... .. . ... ... : ... .. . P87 ...
ROW B8 : ... .. . ... ... ... : ... .. . ... ... ... : ... .. . ... : ... .. 6 ... : ... .. . ... ... : ... .. . ... ... : ... .. . ... ... : ... .. . ... ...
ROW B9 : ... .. A ... ... ... : ... .. A ... ... ... : ... .. . ... : ... .. 3 ... : ... .. . ... ... : ... .. . ... ... : ... .. . ... ... : ... .. . P84 ...
ROW BA : ... .. 8 ... ... ... : ... .. 8 ... ... ... : --- .. . ... : ... .. 2 ... : ... .. . ... ... : ... .. . ... ... : ... .. . ... ... : ... .. . P81 ...
ROW BB : ... .. 7 ... ... ... : ... .. 7 ... ... ... : ... .. . ... : ... .. 0 ... : ... .. . ... ... : ... .. . ... ... : ... .. . ... ... : ... .. . P7D ...
ROW BC : C#4 00 D ... ... ... : C#5 00 D ... ... ... : F-3 00 . ... : D-# 00 F ... : ... .. . ... ... : ... .. . ... ... : ... .. . ... ... : ... .. . P7B ...
ROW BD : ... .. B ... ... ... : ... .. B ... ... ... : ... .. . ... : ... .. C ... : ... .. . ... ... : ... .. . ... ... : ... .. . ... ... : ... .. . P7C ...
ROW BE : ... .. . ... ... ... : ... .. . ... ... ... : ... .. . ... : ... .. 6 ... : ... .. . ... ... : ... .. . ... ... : ... .. . ... ... : ... .. . P80 ...
ROW BF : ... .. A ... ... ... : ... .. A ... ... ... : ... .. . ... : ... .. 3 ... : ... .. . ... ... : ... .. . ... ... : ... .. . ... ... : ... .. . P83 ...
ROW C0 : ... .. 8 ... ... ... : ... .. 8 ... ... ... : --- .. . ... : ... .. 2 ... : ... .. . ... ... : ... .. . ... ... : ... .. . ... ... : ... .. . P87 ...
ROW C1 : ... .. 7 ... ... ... : ... .. 7 ... ... ... : ... .. . ... : ... .. 0 ... : ... .. . ... ... : ... .. . ... ... : ... .. . ... ... : ... .. . ... ...
ROW C2 : A#3 00 D ... ... ... : A#4 00 D ... ... ... : F-3 00 . ... : ... .. F ... : ... .. . ... ... : ... .. . ... ... : ... .. . ... ... : ... .. . P84 ...
ROW C3 : ... .. B ... ... ... : ... .. B ... ... ... : ... .. . ... : ... .. C ... : ... .. . ... ... : ... .. . ... ... : ... .. . ... ... : ... .. . P81 ...
ROW C4 : ... .. . ... ... ... : ... .. . ... ... ... : ... .. . ... : ... .. 6 ... : ... .. . ... ... : ... .. . ... ... : ... .. . ... ... : ... .. . P7D ...
ROW C5 : ... .. A ... ... ... : ... .. A ... ... ... : ... .. . ... : ... .. 3 ... : ... .. . ... ... : ... .. . ... ... : ... .. . ... ... : ... .. . P7B ...
ROW C6 : ... .. 8 ... ... ... : ... .. 8 ... ... ... : --- .. . ... : ... .. 2 ... : ... .. . ... ... : ... .. . ... ... : ... .. . ... ... : ... .. . P7C ...
ROW C7 : ... .. 7 ... ... ... : ... .. 7 ... ... ... : ... .. . ... : ... .. 0 ... : ... .. . ... ... : ... .. . ... ... : ... .. . ... ... : ... .. . P7F ...
ROW C8 : F#3 00 D ... ... ... : F#4 00 D ... ... ... : F-3 00 . ... : 6-# 00 F ... : ... .. . ... ... : ... .. . ... ... : ... .. . ... ... : ... .. . P83 ...
ROW C9 : ... .. B ... ... ... : ... .. B ... ... ... : ... .. . ... : ... .. C ... : ... .. . ... ... : ... .. . ... ... : ... .. . ... ... : ... .. . P86 ...
ROW CA : ... .. . ... ... ... : ... .. . ... ... ... : ... .. . ... : ... .. 6 ... : ... .. . ... ... : ... .. . ... ... : ... .. . ... ... : ... .. . P87 ...
ROW CB : ... .. A ... ... ... : ... .. A ... ... ... : ... .. . ... : ... .. 3 ... : ... .. . ... ... : ... .. . ... ... : ... .. . ... ... : ... .. . P85 ...
ROW CC : ... .. 8 ... ... ... : ... .. 8 ... ... ... : --- .. . ... : ... .. 2 ... : ... .. . ... ... : ... .. . ... ... : ... .. . ... ... : ... .. . P81 ...
ROW CD : ... .. 7 ... ... ... : ... .. 7 ... ... ... : ... .. . ... : ... .. 0 ... : ... .. . ... ... : ... .. . ... ... : ... .. . ... ... : ... .. . P7E ...
ROW CE : C#3 00 D ... ... ... : C#4 00 D ... ... ... : F-3 00 . ... : F-# 00 D ... : ... .. . ... ... : ... .. . ... ... : ... .. . ... ... : ... .. . P7B ...
ROW CF : ... .. B ... ... ... : ... .. B ... ... ... : ... .. . ... : ... .. B ... : ... .. . ... ... : ... .. . ... ... : ... .. . ... ... : ... .. . ... ...
ROW D0 : ... .. . ... ... ... : ... .. . ... ... ... : ... .. . ... : ... .. . ... : ... .. . ... ... : ... .. . ... ... : ... .. . ... ... : ... .. . P7F ...
ROW D1 : ... .. A ... ... ... : ... .. A ... ... ... : ... .. . ... : ... .. A ... : ... .. . ... ... : ... .. . ... ... : ... .. . ... ... : ... .. . P82 ...
ROW D2 : ... .. 8 ... ... ... : ... .. 8 ... ... ... : --- .. . ... : ... .. 8 ... : ... .. . ... ... : ... .. . ... ... : ... .. . ... ... : ... .. . P86 ...
ROW D3 : ... .. 7 ... ... ... : ... .. 7 ... ... ... : ... .. . ... : ... .. 7 ... : ... .. . ... ... : ... .. . ... ... : ... .. . ... ... : ... .. . P87 ...
ROW D4 : A#4 00 D ... ... ... : A#5 00 D ... ... ... : F-3 00 . ... : 5-# 00 D ... : ... .. . ... ... : F#2 01 A ... ... : A#2 01 A ... ... : D#3 01 F P81 ...
ROW D5 : ... .. B ... ... ... : ... .. B ... ... ... : ... .. . ... : ... .. B ... : ... .. . ... ... : ... .. 9 ... ... : ... .. 9 ... ... : ... .. D ... ...
ROW D6 : ... .. . ... ... ... : ... .. . ... ... ... : ... .. . ... : ... .. . ... : ... .. . ... ... : ... .. 8 ... ... : ... .. 8 ... ... : ... .. 8 ... ...
ROW D7 : ... .. A ... ... ... : ... .. A ... ... ... : ... .. . ... : ... .. A ... : ... .. . ... ... : ... .. 7 ... ... : ... .. 7 ... ... : ... .. . ... ...
ROW D8 : ... .. 8 ... ... ... : ... .. 8 ... ... ... : --- .. . ... : ... .. 8 ... : ... .. . ... ... : ... .. . ... ... : ... .. . ... ... : ... .. . ... ...
ROW D9 : ... .. 7 ... ... ... : ... .. 7 ... ... ... : ... .. . ... : ... .. 7 ... : ... .. . ... ... : ... .. 6 ... ... : ... .. 6 ... ... : ... .. . ... ...
ROW DA : F#4 00 D ... ... ... : F#5 00 D ... ... ... : F-3 00 . ... : 0-# 00 F ... : ... .. . ... ... : ... .. . ... ... : ... .. . ... ... : ... .. . ... ...
ROW DB : ... .. B ... ... ... : ... .. B ... ... ... : ... .. . ... : ... .. C ... : ... .. . ... ... : ... .. 5 ... ... : ... .. 5 ... ... : ... .. . ... ...
ROW DC : ... .. . ... ... ... : ... .. . ... ... ... : ... .. . ... : ... .. 6 ... : ... .. . ... ... : ... .. . ... ... : ... .. . ... ... : ... .. . ... ...
ROW DD : ... .. A ... ... ... : ... .. A ... ... ... : ... .. . ... : ... .. 3 ... : ... .. . ... ... : ... .. . ... ... : ... .. . ... ... : ... .. . ... ...
ROW DE : ... .. 8 ... ... ... : ... .. 8 ... ... ... : --- .. . ... : ... .. 2 ... : ... .. . ... ... : ... .. . ... ... : ... .. . ... ... : ... .. . ... ...
ROW DF : ... .. 7 ... ... ... : ... .. 7 ... ... ... : ... .. . ... : ... .. 0 ... : ... .. . ... ... : ... .. . ... ... : ... .. . ... ... : ... .. . ... ...
ROW E0 : C#4 00 D ... ... ... : C#5 00 D ... ... ... : F-3 00 . ... : C-# 00 F ... : ... .. . ... ... : ... .. . ... ... : ... .. . ... ... : ... .. . ... ...
ROW E1 : ... .. B ... ... ... : ... .. B ... ... ... : ... .. . ... : ... .. C ... : ... .. . ... ... : ... .. . ... ... : ... .. . ... ... : ... .. . ... ...
ROW E2 : ... .. . ... ... ... : ... .. . ... ... ... : ... .. . ... : ... .. 6 ... : ... .. . ... ... : ... .. . ... ... : ... .. . ... ... : ... .. . ... ...
ROW E3 : ... .. A ... ... ... : ... .. A ... ... ... : ... .. . ... : ... .. 3 ... : ... .. . ... ... : ... .. . ... ... : ... .. . ... ... : ... .. . ... ...
ROW E4 : ... .. 8 ... ... ... : ... .. 8 ... ... ... : --- .. . ... : ... .. 2 ... : ... .. . ... ... : ... .. . ... ... : ... .. . ... ... : ... .. . ... ...
ROW E5 : ... .. 7 ... ... ... : ... .. 7 ... ... ... : ... .. . ... : ... .. 0 ... : ... .. . ... ... : ... .. . ... ... : ... .. . ... ... : ... .. . ... ...
ROW E6 : A#3 00 D ... ... ... : A#4 00 D ... ... ... : F-3 00 . ... : E-# 00 F ... : ... .. . ... ... : D#3 01 A ... ... : F#3 01 A ... ... : A#3 01 F ... ...
ROW E7 : ... .. B ... ... ... : ... .. B ... ... ... : ... .. . ... : ... .. C ... : ... .. . ... ... : ... .. 9 ... ... : ... .. 9 ... ... : ... .. D ... ...
ROW E8 : ... .. . ... ... ... : ... .. . ... ... ... : ... .. . ... : ... .. 6 ... : ... .. . ... ... : ... .. 8 ... ... : ... .. 8 ... ... : ... .. 8 ... ...
ROW E9 : ... .. A ... ... ... : ... .. A ... ... ... : ... .. . ... : ... .. 3 ... : ... .. . ... ... : ... .. 7 ... ... : ... .. 7 ... ... : ... .. . ... ...
ROW EA : ... .. 8 ... ... ... : ... .. 8 ... ... ... : --- .. . ... : ... .. 2 ... : ... .. . ... ... : ... .. . ... ... : ... .. . ... ... : ... .. . ... ...
ROW EB : ... .. 7 ... ... ... : ... .. 7 ... ... ... : ... .. . ... : ... .. 0 ... : ... .. . ... ... : ... .. 6 ... ... : ... .. 6 ... ... : ... .. . ... ...
ROW EC : F#3 00 D ... ... ... : F#4 00 D ... ... ... : F-3 00 . ... : 8-# 00 F ... : ... .. . ... ... : ... .. . ... ... : ... .. . ... ... : ... .. . ... ...
ROW ED : ... .. B ... ... ... : ... .. B ... ... ... : ... .. . ... : ... .. C ... : ... .. . ... ... : ... .. 5 ... ... : ... .. 5 ... ... : ... .. . ... ...
ROW EE : ... .. . ... ... ... : ... .. . ... ... ... : ... .. . ... : ... .. 6 ... : ... .. . ... ... : ... .. . ... ... : ... .. . ... ... : ... .. . ... ...
ROW EF : ... .. A ... ... ... : ... .. A ... ... ... : ... .. . ... : ... .. 3 ... : ... .. . ... ... : ... .. . ... ... : ... .. . ... ... : ... .. . ... ...
ROW F0 : ... .. 8 ... ... ... : ... .. 8 ... ... ... : --- .. . ... : ... .. 2 ... : ... .. . ... ... : ... .. . ... ... : ... .. . ... ... : ... .. 4 ... ...
ROW F1 : ... .. 7 ... ... ... : ... .. 7 ... ... ... : ... .. . ... : ... .. 0 ... : ... .. . ... ... : ... .. 3 ... ... : ... .. 3 ... ... : ... .. . ... ...
ROW F2 : C#3 00 D ... ... ... : C#4 00 D ... ... ... : F-3 00 . ... : ... .. F ... : ... .. . ... ... : ... .. . ... ... : ... .. . ... ... : ... .. 1 ... ...
ROW F3 : ... .. B ... ... ... : ... .. B ... ... ... : ... .. . ... : ... .. C ... : ... .. . ... ... : ... .. . ... ... : ... .. . ... ... : ... .. . ... ...
ROW F4 : ... .. . ... ... ... : ... .. . ... ... ... : ... .. . ... : ... .. 6 ... : ... .. . ... ... : ... .. . ... ... : ... .. . ... ... : ... .. . ... ...
ROW F5 : ... .. A ... ... ... : ... .. A ... ... ... : ... .. . ... : ... .. 3 ... : ... .. . ... ... : ... .. . ... ... : ... .. . ... ... : ... .. . ... ...
ROW F6 : ... .. 8 ... ... ... : ... .. 8 ... ... ... : --- .. . ... : ... .. 2 ... : ... .. . ... ... : ... .. . ... ... : ... .. . ... ... : ... .. . ... ...
ROW F7 : ... .. 7 ... ... ... : ... .. 7 ... ... ... : ... .. . ... : ... .. 0 ... : ... .. . ... ... : ... .. . ... ... : ... .. . ... ... : ... .. . ... ...
ROW F8 : E-4 00 D ... ... ... : E-5 00 D ... ... ... : F-3 00 . ... : 5-# 00 D ... : ... .. . ... ... : ... .. A ... ... : ... .. A ... ... : ... .. F ... ...
ROW F9 : ... .. B ... ... ... : ... .. B ... ... ... : ... .. . ... : ... .. B ... : ... .. . ... ... : ... .. 9 ... ... : ... .. 9 ... ... : ... .. D ... ...
ROW FA : ... .. . ... ... ... : ... .. . ... ... ... : ... .. . ... : ... .. . ... : ... .. . ... ... : ... .. 8 ... ... : ... .. 8 ... ... : ... .. 8 ... ...
ROW FB : ... .. A ... ... ... : ... .. A ... ... ... : ... .. . ... : ... .. A ... : ... .. . ... ... : ... .. 7 ... ... : ... .. 7 ... ... : ... .. . ... ...
ROW FC : ... .. 8 ... ... ... : ... .. 8 ... ... ... : --- .. . ... : ... .. 8 ... : ... .. . ... ... : ... .. . ... ... : ... .. . ... ... : ... .. . ... ...
ROW FD : ... .. 7 ... ... ... : ... .. 7 ... ... ... : ... .. . ... : ... .. 7 ... : ... .. . ... ... : ... .. 6 ... ... : ... .. 6 ... ... : ... .. . ... ...
ROW FE : C#4 00 D ... ... ... : C#5 00 D ... ... ... : F-3 00 . ... : 1-# 00 F ... : ... .. . ... ... : --- .. . P83 ... : --- .. . P81 ... : --- .. . P80 ...
ROW FF : ... .. B ... ... ... : ... .. B ... ... ... : ... .. . ... : ... .. C ... : ... .. . ... ... : ... .. . ... ... : ... .. . ... ... : ... .. . ... ...

PATTERN 0B
ROW 00 : ... .. . ... ... ... : ... .. . ... ... ... : ... .. . ... : ... .. 6 ... : ... .. . ... ... : ... .. . ... ... : ... .. . ... ... : ... .. . ... ...
ROW 01 : ... .. A ... ... ... : ... .. A ... ... ... : ... .. . ... : ... .. 3 ... : ... .. . ... ... : ... .. . ... ... : ... .. . ... ... : ... .. . ... ...
ROW 02 : ... .. 8 ... ... ... : ... .. 8 ... ... ... : --- .. . ... : ... .. 2 ... : ... .. . ... ... : ... .. . ... ... : ... .. . ... ... : ... .. . ... ...
ROW 03 : ... .. 7 ... ... ... : ... .. 7 ... ... ... : ... .. . ... : ... .. 0 ... : ... .. . ... ... : ... .. . ... ... : ... .. . ... ... : ... .. . ... ...
ROW 04 : G#3 00 D ... ... ... : G#4 00 D ... ... ... : F-3 00 . ... : ... .. F ... : ... .. . ... ... : ... .. . ... ... : ... .. . ... ... : ... .. . ... ...
ROW 05 : ... .. B ... ... ... : ... .. B ... ... ... : ... .. . ... : ... .. C ... : ... .. . ... ... : ... .. . ... ... : ... .. . ... ... : ... .. . ... ...
ROW 06 : ... .. . ... ... ... : ... .. . ... ... ... : ... .. . ... : ... .. 6 ... : ... .. . ... ... : C#3 01 A P80 ... : E-3 01 A P7F ... : G#3 01 F P81 ...
ROW 07 : ... .. A ... ... ... : ... .. A ... ... ... : ... .. . ... : ... .. 3 ... : ... .. . ... ... : ... .. 9 ... ... : ... .. 9 ... ... : ... .. D ... ...
ROW 08 : ... .. 8 ... ... ... : ... .. 8 ... ... ... : --- .. . ... : ... .. 2 ... : ... .. . ... ... : ... .. 8 ... ... : ... .. 8 ... ... : ... .. 8 ... ...
ROW 09 : ... .. 7 ... ... ... : ... .. 7 ... ... ... : ... .. . ... : ... .. 0 ... : ... .. . ... ... : --- .. . P83 ... : --- .. . P81 ... : --- .. . P80 ...
ROW 0A : E-3 00 D ... ... ... : E-4 00 D ... ... ... : F-3 00 . ... : 5-# 00 D ... : ... .. . ... ... : C#3 01 A P80 ... : E-3 01 A P7F ... : G#3 01 F P81 ...
ROW 0B : ... .. B ... ... ... : ... .. B ... ... ... : ... .. . ... : ... .. B ... : ... .. . ... ... : ... .. 9 ... ... : ... .. 9 ... ... : ... .. D ... ...
ROW 0C : ... .. . ... ... ... : ... .. . ... ... ... : ... .. . ... : ... .. . ... : ... .. . ... ... : ... .. 8 ... ... : ... .. 8 ... ... : ... .. 8 ... ...
ROW 0D : ... .. A ... ... ... : ... .. A ... ... ... : ... .. . ... : ... .. A ... : ... .. . ... ... : ... .. 7 ... ... : ... .. 7 ... ... : ... .. . ... ...
ROW 0E : ... .. 8 ... ... ... : ... .. 8 ... ... ... : --- .. . ... : ... .. 8 ... : ... .. . ... ... : ... .. . ... ... : ... .. . ... ... : ... .. . ... ...
ROW 0F : ... .. 7 ... ... ... : ... .. 7 ... ... ... : ... .. . ... : ... .. 7 ... : ... .. . ... ... : ... .. 6 ... ... : ... .. 6 ... ... : ... .. . ... ...
ROW 10 : C#3 00 D ... ... ... : C#4 00 D ... ... ... : F-3 00 . ... : 1-# 00 F ... : ... .. . ... ... : ... .. . ... ... : ... .. . ... ... : ... .. . ... ...
ROW 11 : ... .. B ... ... ... : ... .. B ... ... ... : ... .. . ... : ... .. C ... : ... .. . ... ... : ... .. 5 ... ... : ... .. 5 ... ... : ... .. . ... ...
ROW 12 : ... .. . ... ... ... : ... .. . ... ... ... : ... .. . ... : ... .. 6 ... : ... .. . ... ... : ... .. . ... ... : ... .. . ... ... : ... .. . ... ...
ROW 13 : ... .. A ... ... ... : ... .. A ... ... ... : ... .. . ... : ... .. 3 ... : ... .. . ... ... : ... .. . ... ... : ... .. . ... ... : ... .. . ... ...
ROW 14 : ... .. 8 ... ... ... : ... .. 8 ... ... ... : --- .. . ... : ... .. 2 ... : ... .. . ... ... : ... .. . ... ... : ... .. . ... ... : ... .. . ... ...
ROW 15 : ... .. 7 ... ... ... : ... .. 7 ... ... ... : ... .. . ... : ... .. 0 ... : ... .. . ... ... : ... .. . ... ... : ... .. . ... ... : ... .. . ... ...
ROW 16 : G#2 00 D ... ... ... : G#3 00 D ... ... ... : F-3 00 . ... : ... .. F ... : ... .. . ... ... : ... .. . ... ... : ... .. . ... ... : ... .. . ... ...
ROW 17 : ... .. B ... ... ... : ... .. B ... ... ... : ... .. . ... : ... .. C ... : ... .. . ... ... : ... .. . ... ... : ... .. . ... ... : ... .. . ... ...
ROW 18 : ... .. . ... ... ... : ... .. . ... ... ... : ... .. . ... : ... .. 6 ... : ... .. . ... ... : ... .. . ... ... : ... .. . ... ... : ... .. . ... ...
ROW 19 : ... .. A ... ... ... : ... .. A ... ... ... : ... .. . ... : ... .. 3 ... : ... .. . ... ... : ... .. . ... ... : ... .. . ... ... : ... .. . ... ...
ROW 1A : ... .. 8 ... ... ... : ... .. 8 ... ... ... : --- .. . ... : ... .. 2 ... : ... .. . ... ... : ... .. . ... ... : ... .. . ... ... : ... .. . ... ...
ROW 1B : ... .. 7 ... ... ... : ... .. 7 ... ... ... : ... .. . ... : ... .. 0 ... : ... .. . ... ... : ... .. . ... ... : ... .. . ... ... : ... .. . ... ...
ROW 1C : E-4 00 D ... ... ... : E-5 00 D ... ... ... : F-3 00 . ... : 5-# 00 D ... : ... .. . ... ... : ... .. . ... ... : ... .. . ... ... : ... .. . ... ...
ROW 1D : ... .. B ... ... ... : ... .. B ... ... ... : ... .. . ... : ... .. B ... : ... .. . ... ... : ... .. . ... ... : ... .. . ... ... : ... .. . ... ...
ROW 1E : ... .. . ... ... ... : ... .. . ... ... ... : ... .. . ... : ... .. . ... : ... .. . ... ... : ... .. . ... ... : ... .. . ... ... : ... .. . ... ...
ROW 1F : ... .. A ... ... ... : ... .. A ... ... ... : ... .. . ... : ... .. A ... : ... .. . ... ... : ... .. . ... ... : ... .. . ... ... : ... .. . ... ...
ROW 20 : ... .. 8 ... ... ... : ... .. 8 ... ... ... : --- .. . ... : ... .. 8 ... : ... .. . ... ... : ... .. . ... ... : ... .. . ... ... : ... .. . ... ...
ROW 21 : ... .. 7 ... ... ... : ... .. 7 ... ... ... : ... .. . ... : ... .. 7 ... : ... .. . ... ... : ... .. . ... ... : ... .. . ... ... : ... .. . ... ...
ROW 22 : C#4 00 D ... ... ... : C#5 00 D ... ... ... : F-3 00 . ... : ... .. F ... : ... .. . ... ... : ... .. . ... ... : ... .. . ... ... : ... .. . ... ...
ROW 23 : ... .. B ... ... ... : ... .. B ... ... ... : ... .. . ... : ... .. C ... : ... .. . ... ... : ... .. . ... ... : ... .. . ... ... : ... .. . ... ...
ROW 24 : ... .. . ... ... ... : ... .. . ... ... ... : ... .. . ... : ... .. 6 ... : ... .. . ... ... : ... .. . ... ... : ... .. . ... ... : ... .. . ... ...
ROW 25 : ... .. A ... ... ... : ... .. A ... ... ... : ... .. . ... : ... .. 3 ... : ... .. . ... ... : ... .. . ... ... : ... .. . ... ... : ... .. . ... ...
ROW 26 : ... .. 8 ... ... ... : ... .. 8 ... ... ... : --- .. . ... : ... .. 2 ... : ... .. . ... ... : ... .. . ... ... : ... .. . ... ... : ... .. . ... ...
ROW 27 : ... .. 7 ... ... ... : ... .. 7 ... ... ... : ... .. . ... : ... .. 0 ... : ... .. . ... ... : ... .. . ... ... : ... .. . ... ... : ... .. . ... ...
ROW 28 : G#3 00 D ... ... ... : G#4 00 D ... ... ... : F-3 00 . ... : F-# 00 F ... : ... .. . ... ... : ... .. . ... ... : ... .. . ... ... : ... .. . ... ...
ROW 29 : ... .. B ... ... ... : ... .. B ... ... ... : ... .. . ... : ... .. C ... : ... .. . ... ... : ... .. . ... ... : ... .. . ... ... : ... .. . ... ...
ROW 2A : ... .. . ... ... ... : ... .. . ... ... ... : ... .. . ... : ... .. 6 ... : ... .. . ... ... : ... .. . ... ... : ... .. . ... ... : ... .. . ... ...
ROW 2B : ... .. A ... ... ... : ... .. A ... ... ... : ... .. . ... : ... .. 3 ... : ... .. . ... ... : ... .. . ... ... : ... .. . ... ... : ... .. . ... ...
ROW 2C : ... .. 8 ... ... ... : ... .. 8 ... ... ... : --- .. . ... : ... .. 2 ... : ... .. . ... ... : ... .. . ... ... : ... .. . ... ... : ... .. . ... ...
ROW 2D : ... .. 7 ... ... ... : ... .. 7 ... ... ... : ... .. . ... : ... .. 0 ... : ... .. . ... ... : ... .. . ... ... : ... .. . ... ... : ... .. . ... ...
ROW 2E : E-3 00 D ... ... ... : E-4 00 D ... ... ... : F-3 00 . ... : D-# 00 F ... : ... .. . ... ... : ... .. . ... ... : ... .. . ... ... : ... .. . ... ...
ROW 2F : ... .. B ... ... ... : ... .. B ... ... ... : ... .. . ... : ... .. C ... : ... .. . ... ... : ... .. . ... ... : ... .. . ... ... : ... .. . ... ...
ROW 30 : ... .. . ... ... ... : ... .. . ... ... ... : ... .. . ... : ... .. 6 ... : ... .. . ... ... : ... .. . ... ... : ... .. . ... ... : ... .. . ... ...
ROW 31 : ... .. A ... ... ... : ... .. A ... ... ... : ... .. . ... : ... .. 3 ... : ... .. . ... ... : ... .. . ... ... : ... .. . ... ... : ... .. . ... ...
ROW 32 : ... .. 8 ... ... ... : ... .. 8 ... ... ... : --- .. . ... : ... .. 2 ... : ... .. . ... ... : ... .. . ... ... : ... .. . ... ... : ... .. . ... ...
ROW 33 : ... .. 7 ... ... ... : ... .. 7 ... ... ... : ... .. . ... : ... .. 0 ... : ... .. . ... ... : ... .. . ... ... : ... .. . ... ... : ... .. . ... ...
ROW 34 : C#3 00 D ... ... ... : C#4 00 D ... ... ... : F-3 00 . ... : B-# 00 F ... : ... .. . ... ... : ... .. . ... ... : ... .. . ... ... : ... .. . ... ...
ROW 35 : ... .. B ... ... ... : ... .. B ... ... ... : ... .. . ... : ... .. C ... : ... .. . ... ... : ... .. . ... ... : ... .. . ... ... : ... .. . ... ...
ROW 36 : ... .. . ... ... ... : ... .. . ... ... ... : ... .. . ... : ... .. 6 ... : ... .. . ... ... : ... .. . ... ... : ... .. . ... ... : ... .. . ... ...
ROW 37 : ... .. A ... ... ... : ... .. A ... ... ... : ... .. . ... : ... .. 3 ... : ... .. . ... ... : ... .. . ... ... : ... .. . ... ... : ... .. . ... ...
ROW 38 : ... .. 8 ... ... ... : ... .. 8 ... ... ... : --- .. . ... : ... .. 2 ... : ... .. . ... ... : ... .. . ... ... : ... .. . ... ... : ... .. . ... ...
ROW 39 : ... .. 7 ... ... ... : ... .. 7 ... ... ... : ... .. . ... : ... .. 0 ... : ... .. . ... ... : ... .. . ... ... : ... .. . ... ... : ... .. . ... ...
ROW 3A : G#2 00 D ... ... ... : G#3 00 D ... ... ... : F-3 00 . ... : 8-# 00 F ... : ... .. . ... ... : ... .. . ... ... : ... .. . ... ... : ... .. . P85 ...
ROW 3B : ... .. B ... ... ... : ... .. B ... ... ... : ... .. . ... : ... .. C ... : ... .. . ... ... : ... .. . ... ... : ... .. . ... ... : ... .. . P87 ...
ROW 3C : ... .. . ... ... ... : ... .. . ... ... ... : ... .. . ... : ... .. 6 ... : ... .. . ... ... : ... .. . ... ... : ... .. . ... ... : ... .. . P86 ...
ROW 3D : ... .. A ... ... ... : ... .. A ... ... ... : ... .. . ... : ... .. 3 ... : ... .. . ... ... : ... .. . ... ... : ... .. . ... ... : ... .. . P83 ...
ROW 3E : ... .. 8 ... ... ... : ... .. 8 ... ... ... : --- .. . ... : ... .. 2 ... : ... .. . ... ... : ... .. . ... ... : ... .. . ... ... : ... .. . P7F ...
ROW 3F : ... .. 7 ... ... ... : ... .. 7 ... ... ... : ... .. . ... : ... .. 0 ... : ... .. . ... ... : ... .. . ... ... : ... .. . ... ... : ... .. . P7C ...
ROW 40 : E-4 00 D ... ... ... : E-5 00 D ... ... ... : A#4 00 . ... : 1-# 00 F ... : ... .. . ... ... : ... .. . ... ... : ... .. . ... ... : ... .. . P7B ...
ROW 41 : ... .. B ... ... ... : ... .. B ... ... ... : C-4 00 . ... : ... .. C ... : ... .. . ... ... : ... .. . ... ... : ... .. . ... ... : ... .. . P7D ...
ROW 42 : ... .. . ... ... ... : ... .. . ... ... ... : F-3 00 . ... : ... .. 6 ... : ... .. . ... ... : ... .. . ... ... : ... .. . ... ... : ... .. . P81 ...
ROW 43 : ... .. A ... ... ... : ... .. A ... ... ... : E-3 00 . ... : ... .. 3 ... : ... .. . ... ... : ... .. . ... ... : ... .. . ... ... : ... .. . P84 ...
ROW 44 : ... .. 8 ... ... ... : ... .. 8 ... ... ... : B-2 00 . ... : ... .. 2 ... : ... .. . ... ... : ... .. . ... ... : ... .. . ... ... : ... .. . P87 ...
ROW 45 : ... .. 7 ... ... ... : ... .. 7 ... ... ... : ... .. . ... : ... .. 0 ... : ... .. . ... ... : ... .. . ... ... : ... .. . ... ... : ... .. . ... ...
ROW 46 : C#4 00 D ... ... ... : C#5 00 D ... ... ... : ... .. . ... : 9-# 00 F ... : ... .. . ... ... : ... .. . ... ... : ... .. . ... ... : ... .. . P83 ...
ROW 47 : ... .. B ... ... ... : ... .. B ... ... ... : ... .. . ... : ... .. C ... : ... .. . ... ... : ... .. . ... ... : ... .. . ... ... : ... .. . P80 ...
ROW 48 : ... .. . ... ... ... : ... .. . ... ... ... : ... .. . ... : ... .. 6 ... : ... .. . ... ... : ... .. . ... ... : ... .. . ... ... : ... .. . P7C ...
ROW 49 : ... .. A ... ... ... : ... .. A ... ... ... : ... .. . ... : ... .. 3 ... : ... .. . ... ... : ... .. . ... ... : ... .. . ... ... : ... .. . P7B ...
ROW 4A : ... .. 8 ... ... ... : ... .. 8 ... ... ... : --- .. . ... : ... .. 2 ... : ... .. . ... ... : ... .. . ... ... : ... .. . ... ... : ... .. . P7D ...
ROW 4B : ... .. 7 ... ... ... : ... .. 7 ... ... ... : ... .. . ... : ... .. 0 ... : ... .. . ... ... : ... .. . ... ... : ... .. . ... ... : ... .. . P81 ...
ROW 4C : G#3 00 D ... ... ... : G#4 00 D ... ... ... : B-2 00 . ... : D-# 00 F ... : ... .. . ... ... : ... .. . ... ... : ... .. . ... ... : ... .. . P84 ...
ROW 4D : ... .. B ... ... ... : ... .. B ... ... ... : ... .. . ... : ... .. C ... : ... .. . ... ... : ... .. . ... ... : ... .. . ... ... : ... .. . P87 ...
ROW 4E : ... .. . ... ... ... : ... .. . ... ... ... : ... .. . ... : ... .. 6 ... : ... .. . ... ... : ... .. . ... ... : ... .. . ... ... : ... .. . ... ...
ROW 4F : ... .. A ... ... ... : ... .. A ... ... ... : ... .. . ... : ... .. 3 ... : ... .. . ... ... : ... .. . ... ... : ... .. . ... ... : ... .. . P84 ...
ROW 50 : ... .. 8 ... ... ... : ... .. 8 ... ... ... : --- .. . ... : ... .. 2 ... : ... .. . ... ... : ... .. . ... ... : ... .. . ... ... : ... .. . P81 ...
ROW 51 : ... .. 7 ... ... ... : ... .. 7 ... ... ... : ... .. . ... : ... .. 0 ... : ... .. . ... ... : ... .. . ... ... : ... .. . ... ... : ... .. . P7D ...
ROW 52 : E-3 00 D ... ... ... : E-4 00 D ... ... ... : B-2 00 . ... : ... .. D ... : ... .. . ... ... : ... .. . ... ... : ... .. . ... ... : ... .. . P7B ...
ROW 53 : ... .. B ... ... ... : ... .. B ... ... ... : ... .. . ... : ... .. B ... : ... .. . ... ... : ... .. . ... ... : ... .. . ... ... : ... .. . P7C ...
ROW 54 : ... .. . ... ... ... : ... .. . ... ... ... : ... .. . ... : ... .. . ... : ... .. . ... ... : ... .. . ... ... : ... .. . ... ... : ... .. . P80 ...
ROW 55 : ... .. A ... ... ... : ... .. A ... ... ... : ... .. . ... : ... .. A ... : ... .. . ... ... : ... .. . ... ... : ... .. . ... ... : ... .. . P83 ...
ROW 56 : ... .. 8 ... ... ... : ... .. 8 ... ... ... : --- .. . ... : ... .. 8 ... : ... .. . ... ... : ... .. . ... ... : ... .. . ... ... : ... .. . P87 ...
ROW 57 : ... .. 7 ... ... ... : ... .. 7 ... ... ... : ... .. . ... : ... .. 7 ... : ... .. . ... ... : ... .. . ... ... : ... .. . ... ... : ... .. . ... ...
ROW 58 : C#3 00 D ... ... ... : C#4 00 D ... ... ... : B-2 00 . ... : 1-# 00 F ... : ... .. . ... ... : ... .. . ... ... : ... .. . ... ... : ... .. . P84 ...
ROW 59 : ... .. B ... ... ... : ... .. B ... ... ... : ... .. . ... : ... .. C ... : ... .. . ... ... : ... .. . ... ... : ... .. . ... ... : ... .. . P81 ...
ROW 5A : ... .. . ... ... ... : ... .. . ... ... ... : ... .. . ... : ... .. 6 ... : ... .. . ... ... : ... .. . ... ... : ... .. . ... ... : ... .. . P7D ...
ROW 5B : ... .. A ... ... ... : ... .. A ... ... ... : ... .. . ... : ... .. 3 ... : ... .. . ... ... : ... .. . ... ... : ... .. . ... ... : ... .. . P7B ...
ROW 5C : ... .. 8 ... ... ... : ... .. 8 ... ... ... : --- .. . ... : ... .. 2 ... : ... .. . ... ... : ... .. . ... ... : ... .. . ... ... : ... .. . P7C ...
ROW 5D : ... .. 7 ... ... ... : ... .. 7 ... ... ... : ... .. . ... : ... .. 0 ... : ... .. . ... ... : ... .. . ... ... : ... .. . ... ... : ... .. . P7F ...
ROW 5E : G#2 00 D ... ... ... : G#3 00 D ... ... ... : B-2 00 . ... : A-# 00 F ... : ... .. . ... ... : ... .. . ... ... : ... .. . ... ... : ... .. . P83 ...
ROW 5F : ... .. B ... ... ... : ... .. B ... ... ... : ... .. . ... : ... .. C ... : ... .. . ... ... : ... .. . ... ... : ... .. . ... ... : ... .. . P86 ...
ROW 60 : ... .. . ... ... ... : ... .. . ... ... ... : ... .. . ... : ... .. 6 ... : ... .. . ... ... : ... .. . ... ... : ... .. . ... ... : ... .. . P87 ...
ROW 61 : ... .. A ... ... ... : ... .. A ... ... ... : ... .. . ... : ... .. 3 ... : ... .. . ... ... : ... .. . ... ... : ... .. . ... ... : ... .. . P85 ...
ROW 62 : ... .. 8 ... ... ... : ... .. 8 ... ... ... : --- .. . ... : ... .. 2 ... : ... .. . ... ... : ... .. . ... ... : ... .. . ... ... : ... .. . P81 ...
ROW 63 : ... .. 7 ... ... ... : ... .. 7 ... ... ... : ... .. . ... : ... .. 0 ... : ... .. . ... ... : ... .. . ... ... : ... .. . ... ... : ... .. . P7E ...
ROW 64 : E-4 00 D ... ... ... : E-5 00 D ... ... ... : B-2 00 . ... : 5-# 00 D ... : ... .. . ... ... : ... .. . ... ... : ... .. . ... ... : ... .. . P7B ...
ROW 65 : ... .. B ... ... ... : ... .. B ... ... ... : ... .. . ... : ... .. B ... : ... .. . ... ... : ... .. . ... ... : ... .. . ... ... : ... .. 4 ... ...
ROW 66 : ... .. . ... ... ... : ... .. . ... ... ... : ... .. . ... : ... .. . ... : ... .. . ... ... : ... .. 3 ... ... : ... .. 3 ... ... : ... .. . P7F ...
ROW 67 : ... .. A ... ... ... : ... .. A ... ... ... : ... .. . ... : ... .. A ... : ... .. . ... ... : ... .. . ... ... : ... .. . ... ... : ... .. 1 P82 ...
ROW 68 : ... .. 8 ... ... ... : ... .. 8 ... ... ... : --- .. . ... : ... .. 8 ... : ... .. . ... ... : ... .. . ... ... : ... .. . ... ... : ... .. . P86 ...
ROW 69 : ... .. 7 ... ... ... : ... .. 7 ... ... ... : ... .. . ... : ... .. 7 ... : ... .. . ... ... : ... .. . ... ... : ... .. . ... ... : ... .. . P87 ...
ROW 6A : C#4 00 D ... ... ... : C#5 00 D ... ... ... : B-2 00 . ... : 0-# 00 F ... : ... .. . ... ... : ... .. . ... ... : ... .. . ... ... : ... .. . P85 ...
ROW 6B : ... .. B ... ... ... : ... .. B ... ... ... : ... .. . ... : ... .. C ... : ... .. . ... ... : ... .. . ... ... : ... .. . ... ... : ... .. . P81 ...
ROW 6C : ... .. . ... ... ... : ... .. . ... ... ... : ... .. . ... : ... .. 6 ... : ... .. . ... ... : ... .. . ... ... : ... .. . ... ... : ... .. . P7E ...
ROW 6D : ... .. A ... ... ... : ... .. A ... ... ... : ... .. . ... : ... .. 3 ... : ... .. . ... ... : ... .. . ... ... : ... .. . ... ... : ... .. . P7B ...
ROW 6E : ... .. 8 ... ... ... : ... .. 8 ... ... ... : --- .. . ... : ... .. 2 ... : ... .. . ... ... : ... .. . ... ... : ... .. . ... ... : ... .. 0 ... ...
ROW 6F : ... .. 7 ... ... ... : ... .. 7 ... ... ... : ... .. . ... : ... .. 0 ... : ... .. . ... ... : ... .. . ... ... : ... .. . ... ... : ... .. . P7E ...
ROW 70 : G#3 00 D ... ... ... : G#4 00 D ... ... ... : B-2 00 . ... : D-# 00 F ... : ... .. . ... ... : ... .. . ... ... : ... .. . ... ... : ... .. . P81 ...
ROW 71 : ... .. B ... ... ... : ... .. B ... ... ... : ... .. . ... : ... .. C ... : ... .. . ... ... : ... .. . ... ... : ... .. . ... ... : ... .. . P85 ...
ROW 72 : ... .. . ... ... ... : ... .. . ... ... ... : ... .. . ... : ... .. 0 ... : ... .. . ... ... : ... .. . ... ... : ... .. . ... ... : ... .. . P87 ...
ROW 73 : ... .. A ... ... ... : ... .. A ... ... ... : ... .. . ... : ... .. F ... : ... .. . ... ... : ... .. 1 ... ... : ... .. 1 ... ... : ... .. . P86 ...
ROW 74 : ... .. 8 ... ... ... : ... .. 8 ... ... ... : --- .. . ... : ... .. C ... : ... .. . ... ... : ... .. . ... ... : ... .. . ... ... : ... .. . P82 ...
ROW 75 : ... .. 7 ... ... ... : ... .. 7 ... ... ... : ... .. . ... : ... .. 0 ... : ... .. . ... ... : ... .. . ... ... : ... .. . ... ... : ... .. . P7F ...
ROW 76 : E-3 00 D ... ... ... : E-4 00 D ... ... ... : B-2 00 . ... : ... .. F ... : ... .. . ... ... : ... .. . ... ... : ... .. . ... ... : ... .. . P7B ...
ROW 77 : ... .. B ... ... ... : ... .. B ... ... ... : ... .. . ... : ... .. C ... : ... .. . ... ... : ... .. . ... ... : ... .. . ... ... : ... .. . ... ...
ROW 78 : ... .. . ... ... ... : ... .. . ... ... ... : ... .. . ... : ... .. 0 ... : ... .. . ... ... : ... .. . ... ... : ... .. . ... ... : ... .. . P7E ...
ROW 79 : ... .. A ... ... ... : ... .. A ... ... ... : ... .. . ... : ... .. . ... : ... .. . ... ... : ... .. . ... ... : ... .. . ... ... : ... .. . P81 ...
ROW 7A : ... .. 8 ... ... ... : ... .. 8 ... ... ... : --- .. . ... : ... .. . ... : ... .. . ... ... : ... .. . ... ... : ... .. . ... ... : ... .. . P85 ...
ROW 7B : ... .. 7 ... ... ... : ... .. 7 ... ... ... : ... .. . ... : ... .. . ... : ... .. . ... ... : ... .. . ... ... : ... .. . ... ... : ... .. . P87 ...
ROW 7C : C#3 00 D ... ... ... : C#4 00 D ... ... ... : B-2 00 . ... : 5-# 00 D ... : ... .. . ... ... : ... .. . ... ... : ... .. . ... ... : ... .. . P86 ...
ROW 7D : ... .. B ... ... ... : ... .. B ... ... ... : ... .. . ... : ... .. B ... : ... .. . ... ... : ... .. . ... ... : ... .. . ... ... : ... .. . P83 ...
ROW 7E : ... .. . ... ... ... : ... .. . ... ... ... : ... .. . ... : ... .. . ... : ... .. . ... ... : ... .. . ... ... : ... .. . ... ... : ... .. . P7F ...
ROW 7F : ... .. A ... ... ... : ... .. A ... ... ... : ... .. . ... : ... .. A ... : ... .. . ... ... : ... .. . ... ... : ... .. . ... ... : ... .. . P7C ...
ROW 80 : ... .. 8 ... ... ... : ... .. 8 ... ... ... : --- .. . ... : ... .. 8 ... : ... .. . ... ... : ... .. . ... ... : ... .. . ... ... : ... .. . P7B ...
ROW 81 : ... .. 7 ... ... ... : ... .. 7 ... ... ... : ... .. . ... : ... .. 7 ... : ... .. . ... ... : --- .. . P83 ... : --- .. . P81 ... : ... .. . P7D ...
ROW 82 : G#2 00 D ... ... ... : G#3 00 D ... ... ... : B-2 00 . ... : F-# 00 D ... : ... .. . ... ... : ... .. . ... ... : ... .. . ... ... : ... .. . P81 ...
ROW 83 : ... .. B ... ... ... : ... .. B ... ... ... : ... .. . ... : ... .. B ... : ... .. . ... ... : ... .. . ... ... : ... .. . ... ... : ... .. . P84 ...
ROW 84 : ... .. . ... ... ... : ... .. . ... ... ... : ... .. . ... : ... .. . ... : ... .. . ... ... : ... .. . ... ... : ... .. . ... ... : ... .. . P87 ...
ROW 85 : ... .. A ... ... ... : ... .. A ... ... ... : ... .. . ... : ... .. A ... : ... .. . ... ... : ... .. . ... ... : ... .. . ... ... : ... .. . ... ...
ROW 86 : ... .. 8 ... ... ... : ... .. 8 ... ... ... : --- .. . ... : ... .. 8 ... : ... .. . ... ... : ... .. . ... ... : ... .. . ... ... : ... .. . P83 ...
ROW 87 : ... .. 7 ... ... ... : ... .. 7 ... ... ... : ... .. . ... : ... .. 7 ... : ... .. . ... ... : ... .. . ... ... : ... .. . ... ... : ... .. . P80 ...
ROW 88 : D-4 00 D ... ... ... : D-5 00 D ... ... ... : A-4 00 . ... : D-# 00 F ... : ... .. . ... ... : B-3 01 A P80 ... : D-4 01 A P7F ... : F#4 01 F P81 ...
ROW 89 : ... .. B ... ... ... : ... .. B ... ... ... : B-3 00 . ... : ... .. . ... : ... .. . ... ... : ... .. 9 ... ... : ... .. 9 ... ... : ... .. D ... ...
ROW 8A : ... .. . ... ... ... : ... .. . ... ... ... : E-3 00 . ... : ... .. . ... : ... .. . ... ... : ... .. 8 ... ... : ... .. 8 ... ... : ... .. 8 ... ...
ROW 8B : ... .. A ... ... ... : ... .. A ... ... ... : D#3 00 . ... : C-# 00 D ... : ... .. . ... ... : ... .. 7 ... ... : ... .. 7 ... ... : ... .. . ... ...
ROW 8C : ... .. 8 ... ... ... : ... .. 8 ... ... ... : A#2 00 . ... : ... .. . ... : ... .. . ... ... : ... .. . ... ... : ... .. . ... ... : ... .. . ... ...
ROW 8D : ... .. 7 ... ... ... : ... .. 7 ... ... ... : ... .. . ... : ... .. . ... : ... .. . ... ... : ... .. 6 ... ... : ... .. 6 ... ... : ... .. . ... ...
ROW 8E : B-3 00 D ... ... ... : B-4 00 D ... ... ... : ... .. . ... : B-# 00 B ... : ... .. . ... ... : ... .. . ... ... : ... .. . ... ... : ... .. . ... ...
ROW 8F : ... .. B ... ... ... : ... .. B ... ... ... : ... .. . ... : ... .. . ... : ... .. . ... ... : ... .. 5 ... ... : ... .. 5 ... ... : ... .. . ... ...
ROW 90 : ... .. . ... ... ... : ... .. . ... ... ... : ... .. . ... : ... .. . ... : ... .. . ... ... : ... .. . ... ... : ... .. . ... ... : ... .. . ... ...
ROW 91 : ... .. A ... ... ... : ... .. A ... ... ... : ... .. . ... : ... .. 9 ... : ... .. . ... ... : ... .. . ... ... : ... .. . ... ... : ... .. . ... ...
ROW 92 : ... .. 8 ... ... ... : ... .. 8 ... ... ... : --- .. . ... : ... .. . ... : ... .. . ... ... : ... .. . ... ... : ... .. . ... ... : ... .. . ... ...
ROW 93 : ... .. 7 ... ... ... : ... .. 7 ... ... ... : ... .. . ... : ... .. . ... : ... .. . ... ... : ... .. . ... ... : ... .. . ... ... : ... .. . ... ...
ROW 94 : F#3 00 D ... ... ... : F#4 00 D ... ... ... : A#2 00 . ... : ... .. 7 ... : ... .. . ... ... : ... .. . ... ... : ... .. . ... ... : ... .. . ... ...
ROW 95 : ... .. B ... ... ... : ... .. B ... ... ... : ... .. . ... : ... .. . ... : ... .. . ... ... : ... .. . ... ... : ... .. . ... ... : ... .. . ... ...
ROW 96 : ... .. . ... ... ... : ... .. . ... ... ... : ... .. . ... : ... .. . ... : ... .. . ... ... : ... .. . ... ... : ... .. . ... ... : ... .. . ... ...
ROW 97 : ... .. A ... ... ... : ... .. A ... ... ... : ... .. . ... : ... .. 5 ... : ... .. . ... ... : ... .. . ... ... : ... .. . ... ... : ... .. . ... ...
ROW 98 : ... .. 8 ... ... ... : ... .. 8 ... ... ... : --- .. . ... : ... .. . ... : ... .. . ... ... : ... .. . ... ... : ... .. . ... ... : ... .. . ... ...
ROW 99 : ... .. 7 ... ... ... : ... .. 7 ... ... ... : ... .. . ... : ... .. . ... : ... .. . ... ... : ... .. . ... ... : ... .. . ... ... : ... .. . ... ...
ROW 9A : D-3 00 D ... ... ... : D-4 00 D ... ... ... : A#2 00 . ... : D-# 00 D ... : ... .. . ... ... : ... .. . ... ... : ... .. . ... ... : ... .. . ... ...
ROW 9B : ... .. B ... ... ... : ... .. B ... ... ... : ... .. . ... : ... .. B ... : ... .. . ... ... : ... .. . ... ... : ... .. . ... ... : ... .. . ... ...
ROW 9C : ... .. . ... ... ... : ... .. . ... ... ... : ... .. . ... : ... .. . ... : ... .. . ... ... : ... .. . ... ... : ... .. . ... ... : ... .. . ... ...
ROW 9D : ... .. A ... ... ... : ... .. A ... ... ... : ... .. . ... : ... .. A ... : ... .. . ... ... : ... .. . ... ... : ... .. . ... ... : ... .. . ... ...
ROW 9E : ... .. 8 ... ... ... : ... .. 8 ... ... ... : --- .. . ... : ... .. 8 ... : ... .. . ... ... : ... .. . ... ... : ... .. . ... ... : ... .. . ... ...
ROW 9F : ... .. 7 ... ... ... : ... .. 7 ... ... ... : ... .. . ... : ... .. 7 ... : ... .. . ... ... : ... .. . ... ... : ... .. . ... ... : ... .. . ... ...
ROW A0 : B-2 00 D ... ... ... : B-3 00 D ... ... ... : A#2 00 . ... : 1-# 00 F ... : ... .. . ... ... : ... .. . ... ... : ... .. . ... ... : ... .. . P85 ...
ROW A1 : ... .. B ... ... ... : ... .. B ... ... ... : ... .. . ... : ... .. C ... : ... .. . ... ... : ... .. . ... ... : ... .. . ... ... : G-4 01 8 P7D ...
ROW A2 : ... .. . ... ... ... : ... .. . ... ... ... : ... .. . ... : ... .. 6 ... : ... .. . ... ... : ... .. . ... ... : ... .. . ... ... : ... .. . P7C ...
ROW A3 : ... .. A ... ... ... : ... .. A ... ... ... : ... .. . ... : ... .. 3 ... : ... .. . ... ... : ... .. . ... ... : ... .. . ... ... : F#4 01 8 P83 ...
ROW A4 : ... .. 8 ... ... ... : ... .. 8 ... ... ... : --- .. . ... : ... .. 2 ... : ... .. . ... ... : ... .. . ... ... : ... .. . ... ... : ... .. . P7F ...
ROW A5 : ... .. 7 ... ... ... : ... .. 7 ... ... ... : ... .. . ... : ... .. 0 ... : ... .. . ... ... : ... .. . ... ... : ... .. . ... ... : ... .. . P7C ...
ROW A6 : F#2 00 D ... ... ... : F#3 00 D ... ... ... : A#2 00 . ... : A-# 00 F ... : ... .. . ... ... : ... .. . ... ... : ... .. . ... ... : F-4 01 8 P85 ...
ROW A7 : ... .. B ... ... ... : ... .. B ... ... ... : ... .. . ... : ... .. C ... : ... .. . ... ... : ... .. . ... ... : ... .. . ... ... : F#4 01 8 P7D ...
ROW A8 : ... .. . ... ... ... : ... .. . ... ... ... : ... .. . ... : ... .. 6 ... : ... .. . ... ... : ... .. . ... ... : ... .. . ... ... : ... .. . P81 ...
ROW A9 : ... .. A ... ... ... : ... .. A ... ... ... : ... .. . ... : ... .. 3 ... : ... .. . ... ... : ... .. . ... ... : ... .. . ... ... : ... .. . P84 ...
ROW AA : ... .. 8 ... ... ... : ... .. 8 ... ... ... : --- .. . ... : ... .. 2 ... : ... .. . ... ... : ... .. . ... ... : ... .. . ... ... : G-4 01 8 P7D ...
ROW AB : ... .. 7 ... ... ... : ... .. 7 ... ... ... : ... .. . ... : ... .. 0 ... : ... .. . ... ... : ... .. . ... ... : ... .. . ... ... : ... .. . ... ...
ROW AC : D-4 00 D ... ... ... : D-5 00 D ... ... ... : A#2 00 . ... : 5-# 00 D ... : ... .. . ... ... : D-3 01 A ... ... : F#3 01 A ... ... : B-3 01 F P81 ...
ROW AD : ... .. B ... ... ... : ... .. B ... ... ... : ... .. . ... : ... .. B ... : ... .. . ... ... : ... .. 9 ... ... : ... .. 9 ... ... : ... .. D ... ...
ROW AE : ... .. . ... ... ... : ... .. . ... ... ... : ... .. . ... : ... .. . ... : ... .. . ... ... : ... .. 8 ... ... : ... .. 8 ... ... : ... .. 8 ... ...
ROW AF : ... .. A ... ... ... : ... .. A ... ... ... : ... .. . ... : ... .. A ... : ... .. . ... ... : ... .. 7 ... ... : ... .. 7 ... ... : ... .. . ... ...
ROW B0 : ... .. 8 ... ... ... : ... .. 8 ... ... ... : --- .. . ... : ... .. 8 ... : ... .. . ... ... : ... .. . ... ... : ... .. . ... ... : ... .. . ... ...
ROW B1 : ... .. 7 ... ... ... : ... .. 7 ... ... ... : ... .. . ... : ... .. 7 ... : ... .. . ... ... : ... .. 6 ... ... : ... .. 6 ... ... : ... .. . ... ...
ROW B2 : B-3 00 D ... ... ... : B-4 00 D ... ... ... : A#2 00 . ... : 0-# 00 F ... : ... .. . ... ... : ... .. . ... ... : ... .. . ... ... : ... .. . ... ...
ROW B3 : ... .. B ... ... ... : ... .. B ... ... ... : ... .. . ... : ... .. C ... : ... .. . ... ... : ... .. 5 ... ... : ... .. 5 ... ... : ... .. . ... ...
ROW B4 : ... .. . ... ... ... : ... .. . ... ... ... : ... .. . ... : ... .. 6 ... : ... .. . ... ... : ... .. . ... ... : ... .. . ... ... : ... .. . ... ...
ROW B5 : ... .. A ... ... ... : ... .. A ... ... ... : ... .. . ... : ... .. 3 ... : ... .. . ... ... : ... .. . ... ... : ... .. . ... ... : ... .. . ... ...
ROW B6 : ... .. 8 ... ... ... : ... .. 8 ... ... ... : --- .. . ... : ... .. 2 ... : ... .. . ... ... : ... .. . ... ... : ... .. . ... ... : ... .. . ... ...
ROW B7 : ... .. 7 ... ... ... : ... .. 7 ... ... ... : ... .. . ... : ... .. 0 ... : ... .. . ... ... : ... .. . ... ... : ... .. . ... ... : ... .. . ... ...
ROW B8 : F#3 00 D ... ... ... : F#4 00 D ... ... ... : A#2 00 . ... : D-# 00 F ... : ... .. . ... ... : ... .. . ... ... : ... .. . ... ... : ... .. . ... ...
ROW B9 : ... .. B ... ... ... : ... .. B ... ... ... : ... .. . ... : ... .. C ... : ... .. . ... ... : ... .. . ... ... : ... .. . ... ... : ... .. 4 ... ...
ROW BA : ... .. . ... ... ... : ... .. . ... ... ... : ... .. . ... : ... .. 0 ... : ... .. . ... ... : ... .. 3 ... ... : ... .. 3 ... ... : ... .. . ... ...
ROW BB : ... .. A ... ... ... : ... .. A ... ... ... : ... .. . ... : ... .. F ... : ... .. . ... ... : ... .. . ... ... : ... .. . ... ... : ... .. 1 ... ...
ROW BC : ... .. 8 ... ... ... : ... .. 8 ... ... ... : --- .. . ... : ... .. C ... : ... .. . ... ... : ... .. . ... ... : ... .. . ... ... : ... .. . ... ...
ROW BD : ... .. 7 ... ... ... : ... .. 7 ... ... ... : ... .. . ... : ... .. 0 ... : ... .. . ... ... : ... .. . ... ... : ... .. . ... ... : ... .. . ... ...
ROW BE : D-3 00 D ... ... ... : D-4 00 D ... ... ... : A#2 00 . ... : ... .. F ... : ... .. . ... ... : B-3 01 A ... ... : D-4 01 A ... ... : F#4 01 F ... ...
ROW BF : ... .. B ... ... ... : ... .. B ... ... ... : ... .. . ... : ... .. C ... : ... .. . ... ... : ... .. 9 ... ... : ... .. 9 ... ... : ... .. D ... ...
ROW C0 : ... .. . ... ... ... : ... .. . ... ... ... : ... .. . ... : ... .. 0 ... : ... .. . ... ... : ... .. 8 ... ... : ... .. 8 ... ... : ... .. 8 ... ...
ROW C1 : ... .. A ... ... ... : ... .. A ... ... ... : ... .. . ... : ... .. . ... : ... .. . ... ... : ... .. 7 ... ... : ... .. 7 ... ... : ... .. . ... ...
ROW C2 : ... .. 8 ... ... ... : ... .. 8 ... ... ... : --- .. . ... : ... .. . ... : ... .. . ... ... : ... .. . ... ... : ... .. . ... ... : ... .. . ... ...
ROW C3 : ... .. 7 ... ... ... : ... .. 7 ... ... ... : ... .. . ... : ... .. . ... : ... .. . ... ... : ... .. 6 ... ... : ... .. 6 ... ... : ... .. . ... ...
ROW C4 : B-2 00 D ... ... ... : B-3 00 D ... ... ... : A#2 00 . ... : 5-# 00 D ... : ... .. . ... ... : ... .. . ... ... : ... .. . ... ... : ... .. . ... ...
ROW C5 : ... .. B ... ... ... : ... .. B ... ... ... : ... .. . ... : ... .. B ... : ... .. . ... ... : ... .. 5 ... ... : ... .. 5 ... ... : ... .. . ... ...
ROW C6 : ... .. . ... ... ... : ... .. . ... ... ... : ... .. . ... : ... .. . ... : ... .. . ... ... : ... .. . ... ... : ... .. . ... ... : ... .. . ... ...
ROW C7 : ... .. A ... ... ... : ... .. A ... ... ... : ... .. . ... : ... .. A ... : ... .. . ... ... : ... .. . ... ... : ... .. . ... ... : ... .. . ... ...
ROW C8 : ... .. 8 ... ... ... : ... .. 8 ... ... ... : --- .. . ... : ... .. 8 ... : ... .. . ... ... : ... .. . ... ... : ... .. . ... ... : ... .. . ... ...
ROW C9 : ... .. 7 ... ... ... : ... .. 7 ... ... ... : ... .. . ... : ... .. 7 ... : ... .. . ... ... : ... .. . ... ... : ... .. . ... ... : ... .. . ... ...
ROW CA : F#2 00 D ... ... ... : F#3 00 D ... ... ... : A#2 00 . ... : F-# 00 D ... : ... .. . ... ... : ... .. . ... ... : ... .. . ... ... : ... .. . ... ...
ROW CB : ... .. B ... ... ... : ... .. B ... ... ... : ... .. . ... : ... .. B ... : ... .. . ... ... : ... .. . ... ... : ... .. . ... ... : ... .. . ... ...
ROW CC : ... .. . ... ... ... : ... .. . ... ... ... : ... .. . ... : ... .. . ... : ... .. . ... ... : ... .. . ... ... : ... .. . ... ... : ... .. . ... ...
ROW CD : ... .. A ... ... ... : ... .. A ... ... ... : ... .. . ... : ... .. A ... : ... .. . ... ... : ... .. . ... ... : ... .. . ... ... : ... .. . ... ...
ROW CE : ... .. 8 ... ... ... : ... .. 8 ... ... ... : --- .. . ... : ... .. 8 ... : ... .. . ... ... : ... .. . ... ... : ... .. . ... ... : ... .. 4 ... ...
ROW CF : ... .. 7 ... ... ... : ... .. 7 ... ... ... : ... .. . ... : ... .. 7 ... : ... .. . ... ... : ... .. 3 ... ... : ... .. 3 ... ... : ... .. . ... ...
ROW D0 : E-4 00 D ... ... ... : E-5 00 D ... ... ... : A-4 00 . ... : D-# 00 F ... : ... .. . ... ... : ... .. A ... ... : ... .. A ... ... : ... .. F ... ...
ROW D1 : ... .. B ... ... ... : ... .. B ... ... ... : B-3 00 . ... : ... .. . ... : ... .. . ... ... : ... .. 9 ... ... : ... .. 9 ... ... : ... .. D ... ...
ROW D2 : ... .. . ... ... ... : ... .. . ... ... ... : E-3 00 . ... : ... .. . ... : ... .. . ... ... : ... .. 8 ... ... : ... .. 8 ... ... : ... .. 8 ... ...
ROW D3 : ... .. A ... ... ... : ... .. A ... ... ... : D#3 00 . ... : C-# 00 D ... : ... .. . ... ... : ... .. 7 ... ... : ... .. 7 ... ... : ... .. . ... ...
ROW D4 : ... .. 8 ... ... ... : ... .. 8 ... ... ... : A#2 00 . ... : ... .. . ... : ... .. . ... ... : ... .. . ... ... : ... .. . ... ... : ... .. . ... ...
ROW D5 : ... .. 7 ... ... ... : ... .. 7 ... ... ... : ... .. . ... : ... .. . ... : ... .. . ... ... : ... .. 6 ... ... : ... .. 6 ... ... : ... .. . ... ...
ROW D6 : C-4 00 D ... ... ... : C-5 00 D ... ... ... : ... .. . ... : B-# 00 B ... : ... .. . ... ... : ... .. . ... ... : ... .. . ... ... : ... .. . ... ...
ROW D7 : ... .. B ... ... ... : ... .. B ... ... ... : ... .. . ... : ... .. . ... : ... .. . ... ... : ... .. 5 ... ... : ... .. 5 ... ... : ... .. . ... ...
ROW D8 : ... .. . ... ... ... : ... .. . ... ... ... : ... .. . ... : ... .. . ... : ... .. . ... ... : ... .. . ... ... : ... .. . ... ... : ... .. . ... ...
ROW D9 : ... .. A ... ... ... : ... .. A ... ... ... : A-2 00 . P7C : ... .. 9 ... : ... .. . ... ... : ... .. . ... ... : ... .. . ... ... : ... .. . ... ...
ROW DA : ... .. 8 ... ... ... : ... .. 8 ... ... ... : G#2 00 . P7B : ... .. . ... : ... .. . ... ... : ... .. . ... ... : ... .. . ... ... : ... .. 4 ... ...
ROW DB : ... .. 7 ... ... ... : ... .. 7 ... ... ... : G-2 00 . ... : ... .. . ... : ... .. . ... ... : ... .. 3 ... ... : ... .. 3 ... ... : ... .. . ... ...
ROW DC : G-3 00 D ... ... ... : G-4 00 D ... ... ... : F#2 00 . P7D : ... .. 7 ... : ... .. . ... ... : ... .. . ... ... : ... .. . ... ... : ... .. 1 ... ...
ROW DD : ... .. B ... ... ... : ... .. B ... ... ... : F-2 00 . P81 : ... .. . ... : ... .. . ... ... : ... .. . ... ... : ... .. . ... ... : ... .. . ... ...
ROW DE : ... .. . ... ... ... : ... .. . ... ... ... : E-2 00 . P87 : ... .. . ... : ... .. . ... ... : ... .. . ... ... : ... .. . ... ... : ... .. . ... ...
ROW DF : ... .. A ... ... ... : ... .. A ... ... ... : D#2 00 . P8F : ... .. 5 ... : ... .. . ... ... : ... .. . ... ... : ... .. . ... ... : ... .. . ... ...
ROW E0 : ... .. 8 ... ... ... : ... .. 8 ... ... ... : ... .. . P6F : ... .. . ... : ... .. . ... ... : ... .. . ... ... : ... .. . ... ... : ... .. . ... ...
ROW E1 : ... .. 7 ... ... ... : ... .. 7 ... ... ... : D-2 00 . P7A : ... .. . ... : ... .. . ... ... : ... .. . ... ... : ... .. . ... ... : ... .. . ... ...
ROW E2 : E-3 00 D ... ... ... : E-4 00 D ... ... ... : A-3 00 . P80 : D-# 00 F ... : ... .. . ... ... : A-3 01 A ... ... : C-4 01 A ... ... : E-4 01 F ... ...
ROW E3 : ... .. B ... ... ... : ... .. B ... ... ... : B-2 00 . ... : ... .. . ... : ... .. . ... ... : ... .. 9 ... ... : ... .. 9 ... ... : ... .. D ... ...
ROW E4 : ... .. . ... ... ... : ... .. . ... ... ... : E-2 00 . ... : ... .. . ... : ... .. . ... ... : ... .. 8 ... ... : ... .. 8 ... ... : ... .. 8 ... ...
ROW E5 : ... .. A ... ... ... : ... .. A ... ... ... : D#2 00 . ... : C-# 00 D ... : ... .. . ... ... : ... .. 7 ... ... : ... .. 7 ... ... : ... .. . ... ...
ROW E6 : ... .. 8 ... ... ... : ... .. 8 ... ... ... : A#1 00 . ... : ... .. . ... : ... .. . ... ... : ... .. . ... ... : ... .. . ... ... : ... .. . ... ...
ROW E7 : ... .. 7 ... ... ... : ... .. 7 ... ... ... : ... .. . ... : ... .. . ... : ... .. . ... ... : ... .. 6 ... ... : ... .. 6 ... ... : ... .. . ... ...
ROW E8 : C-3 00 D ... ... ... : C-4 00 D ... ... ... : ... .. . ... : B-# 00 B ... : ... .. . ... ... : ... .. . ... ... : ... .. . ... ... : ... .. . ... ...
ROW E9 : ... .. B ... ... ... : ... .. B ... ... ... : ... .. . ... : ... .. . ... : ... .. . ... ... : ... .. 5 ... ... : ... .. 5 ... ... : ... .. . ... ...
ROW EA : ... .. . ... ... ... : ... .. . ... ... ... : ... .. . ... : ... .. . ... : ... .. . ... ... : ... .. . ... ... : ... .. . ... ... : ... .. . ... ...
ROW EB : ... .. A ... ... ... : ... .. A ... ... ... : ... .. . ... : ... .. 9 ... : ... .. . ... ... : ... .. . ... ... : ... .. . ... ... : ... .. . ... ...
ROW EC : ... .. 8 ... ... ... : ... .. 8 ... ... ... : ... .. . ... : ... .. . ... : ... .. . ... ... : ... .. . ... ... : ... .. . ... ... : ... .. . ... ...
ROW ED : ... .. 7 ... ... ... : ... .. 7 ... ... ... : ... .. . ... : ... .. . ... : ... .. . ... ... : ... .. . ... ... : ... .. . ... ... : ... .. . ... ...
ROW EE : G-2 00 D ... ... ... : G-3 00 D ... ... ... : B-1 00 . P7A : ... .. 7 ... : ... .. . ... ... : ... .. . ... ... : ... .. . ... ... : ... .. . ... ...
ROW EF : ... .. B ... ... ... : ... .. B ... ... ... : C-2 00 . P77 : ... .. . ... : ... .. . ... ... : ... .. . ... ... : ... .. . ... ... : ... .. . ... ...
ROW F0 : ... .. . ... ... ... : ... .. . ... ... ... : C#2 00 . ... : ... .. . ... : ... .. . ... ... : ... .. . ... ... : ... .. . ... ... : ... .. . ... ...
ROW F1 : ... .. A ... ... ... : ... .. A ... ... ... : D-2 00 . P7A : ... .. 5 ... : ... .. . ... ... : ... .. . ... ... : ... .. . ... ... : ... .. . ... ...
ROW F2 : ... .. 8 ... ... ... : ... .. 8 ... ... ... : D#2 00 . P7F : ... .. . ... : ... .. . ... ... : ... .. . ... ... : ... .. . ... ... : ... .. . ... ...
ROW F3 : ... .. 7 ... ... ... : ... .. 7 ... ... ... : E-2 00 . P87 : ... .. . ... : ... .. . ... ... : ... .. . ... ... : ... .. . ... ... : ... .. . ... ...
ROW F4 : E-4 00 D ... ... ... : E-5 00 D ... ... ... : A#2 00 . P80 : 5-# 00 D ... : ... .. . ... ... : ... .. . ... ... : ... .. . ... ... : ... .. . ... ...
ROW F5 : ... .. B ... ... ... : ... .. B ... ... ... : ... .. . ... : ... .. B ... : ... .. . ... ... : ... .. . ... ... : ... .. . ... ... : ... .. . ... ...
ROW F6 : ... .. . ... ... ... : ... .. . ... ... ... : ... .. . ... : ... .. . ... : ... .. . ... ... : ... .. . ... ... : ... .. . ... ... : ... .. . ... ...
ROW F7 : ... .. A ... ... ... : ... .. A ... ... ... : ... .. . ... : ... .. A ... : ... .. . ... ... : ... .. . ... ... : ... .. . ... ... : ... .. . ... ...
ROW F8 : ... .. 8 ... ... ... : ... .. 8 ... ... ... : --- .. . ... : ... .. 8 ... : ... .. . ... ... : ... .. . ... ... : ... .. . ... ... : ... .. . ... ...
ROW F9 : ... .. 7 ... ... ... : ... .. 7 ... ... ... : ... .. . ... : ... .. 7 ... : ... .. . ... ... : ... .. . ... ... : ... .. . ... ... : ... .. . ... ...
ROW FA : C-4 00 D ... ... ... : C-5 00 D ... ... ... : A#2 00 . ... : A-# 00 F ... : ... .. . ... ... : ... .. . ... ... : ... .. . ... ... : ... .. . ... ...
ROW FB : ... .. B ... ... ... : ... .. B ... ... ... : ... .. . ... : ... .. C ... : ... .. . ... ... : ... .. . ... ... : ... .. . ... ... : ... .. . ... ...
ROW FC : ... .. . ... ... ... : ... .. . ... ... ... : ... .. . ... : ... .. 6 ... : ... .. . ... ... : ... .. . ... ... : ... .. . ... ... : ... .. . ... ...
ROW FD : ... .. A ... ... ... : ... .. A ... ... ... : ... .. . ... : ... .. 3 ... : ... .. . ... ... : ... .. . ... ... : ... .. . ... ... : ... .. . ... ...
ROW FE : ... .. 8 ... ... ... : ... .. 8 ... ... ... : --- .. . ... : ... .. 2 ... : ... .. . ... ... : ... .. . ... ... : ... .. . ... ... : ... .. . ... ...
ROW FF : ... .. 7 ... ... ... : ... .. 7 ... ... ... : ... .. . ... : ... .. 0 ... : ... .. . ... ... : ... .. . ... ... : ... .. . ... ... : ... .. . ... ...

PATTERN 0C
ROW 00 : G-3 00 D ... ... ... : G-4 00 D ... ... ... : A#2 00 . ... : ... .. F ... : ... .. . ... ... : ... .. . ... ... : ... .. . ... ... : ... .. . P85 ...
ROW 01 : ... .. B ... ... ... : ... .. B ... ... ... : ... .. . ... : ... .. C ... : ... .. . ... ... : ... .. . ... ... : ... .. . ... ... : F-4 01 8 P7C ...
ROW 02 : ... .. . ... ... ... : ... .. . ... ... ... : ... .. . ... : ... .. 6 ... : ... .. . ... ... : ... .. . ... ... : ... .. . ... ... : ... .. . P7B ...
ROW 03 : ... .. A ... ... ... : ... .. A ... ... ... : ... .. . ... : ... .. 3 ... : ... .. . ... ... : ... .. . ... ... : ... .. . ... ... : E-4 01 8 P83 ...
ROW 04 : ... .. 8 ... ... ... : ... .. 8 ... ... ... : --- .. . ... : ... .. 2 ... : ... .. . ... ... : ... .. . ... ... : ... .. . ... ... : ... .. . P7F ...
ROW 05 : ... .. 7 ... ... ... : ... .. 7 ... ... ... : ... .. . ... : ... .. 0 ... : ... .. . ... ... : ... .. . ... ... : ... .. . ... ... : ... .. . P7C ...
ROW 06 : E-3 00 D ... ... ... : E-4 00 D ... ... ... : A#2 00 . ... : 9-# 00 D ... : ... .. . ... ... : ... .. . ... ... : ... .. . ... ... : ... .. . P7B ...
ROW 07 : ... .. B ... ... ... : ... .. B ... ... ... : ... .. . ... : ... .. B ... : ... .. . ... ... : ... .. . ... ... : ... .. . ... ... : ... .. . P7D ...
ROW 08 : ... .. . ... ... ... : ... .. . ... ... ... : ... .. . ... : ... .. . ... : ... .. . ... ... : ... .. . ... ... : ... .. . ... ... : ... .. . P81 ...
ROW 09 : ... .. A ... ... ... : ... .. A ... ... ... : ... .. . ... : ... .. A ... : ... .. . ... ... : ... .. . ... ... : ... .. . ... ... : ... .. . P84 ...
ROW 0A : ... .. 8 ... ... ... : ... .. 8 ... ... ... : --- .. . ... : ... .. 8 ... : ... .. . ... ... : ... .. . ... ... : ... .. . ... ... : F-4 01 8 P7C ...
ROW 0B : ... .. 7 ... ... ... : ... .. 7 ... ... ... : ... .. . ... : ... .. 7 ... : ... .. . ... ... : ... .. . ... ... : ... .. . ... ... : ... .. . ... ...
ROW 0C : C-3 00 D ... ... ... : C-4 00 D ... ... ... : A#2 00 . ... : 6-# 00 D ... : ... .. . ... ... : ... .. . ... ... : ... .. . ... ... : E-4 01 8 P83 ...
ROW 0D : ... .. B ... ... ... : ... .. B ... ... ... : ... .. . ... : ... .. B ... : ... .. . ... ... : ... .. . ... ... : ... .. . ... ... : ... .. . P80 ...
ROW 0E : ... .. . ... ... ... : ... .. . ... ... ... : ... .. . ... : ... .. . ... : ... .. . ... ... : ... .. . ... ... : ... .. . ... ... : ... .. . P7C ...
ROW 0F : ... .. A ... ... ... : ... .. A ... ... ... : ... .. . ... : ... .. A ... : ... .. . ... ... : ... .. . ... ... : ... .. . ... ... : ... .. . P7B ...
ROW 10 : ... .. 8 ... ... ... : ... .. 8 ... ... ... : --- .. . ... : ... .. 8 ... : ... .. . ... ... : ... .. . ... ... : ... .. . ... ... : ... .. . P7D ...
ROW 11 : ... .. 7 ... ... ... : ... .. 7 ... ... ... : ... .. . ... : ... .. 7 ... : ... .. . ... ... : ... .. . ... ... : ... .. . ... ... : ... .. . P81 ...
ROW 12 : G-2 00 D ... ... ... : G-3 00 D ... ... ... : A#2 00 . ... : ... .. D ... : ... .. . ... ... : ... .. . ... ... : ... .. . ... ... : ... .. . P84 ...
ROW 13 : ... .. B ... ... ... : ... .. B ... ... ... : ... .. . ... : ... .. B ... : ... .. . ... ... : ... .. . ... ... : ... .. . ... ... : F-4 01 8 P7C ...
ROW 14 : ... .. . ... ... ... : ... .. . ... ... ... : ... .. . ... : ... .. . ... : ... .. . ... ... : ... .. . ... ... : ... .. . ... ... : ... .. . ... ...
ROW 15 : ... .. A ... ... ... : ... .. A ... ... ... : ... .. . ... : ... .. A ... : ... .. . ... ... : ... .. . ... ... : ... .. . ... ... : E-4 01 8 P84 ...
ROW 16 : ... .. 8 ... ... ... : ... .. 8 ... ... ... : --- .. . ... : ... .. 8 ... : ... .. . ... ... : ... .. . ... ... : ... .. . ... ... : ... .. . P81 ...
ROW 17 : ... .. 7 ... ... ... : ... .. 7 ... ... ... : ... .. . ... : ... .. 7 ... : ... .. . ... ... : ... .. . ... ... : ... .. . ... ... : ... .. . P7D ...
ROW 18 : E-4 00 D ... ... ... : E-5 00 D ... ... ... : A-4 00 . ... : 1-# 00 F ... : ... .. . ... ... : ... .. . ... ... : ... .. . ... ... : ... .. . P7B ...
ROW 19 : ... .. B ... ... ... : ... .. B ... ... ... : B-3 00 . ... : ... .. C ... : ... .. . ... ... : ... .. . ... ... : ... .. . ... ... : ... .. . P7C ...
ROW 1A : ... .. . ... ... ... : ... .. . ... ... ... : E-3 00 . ... : ... .. 6 ... : ... .. . ... ... : ... .. . ... ... : ... .. . ... ... : ... .. . P80 ...
ROW 1B : ... .. A ... ... ... : ... .. A ... ... ... : D#3 00 . ... : ... .. 3 ... : ... .. . ... ... : ... .. . ... ... : ... .. . ... ... : ... .. . P83 ...
ROW 1C : ... .. 8 ... ... ... : ... .. 8 ... ... ... : A#2 00 . ... : ... .. 2 ... : ... .. . ... ... : ... .. . ... ... : ... .. . ... ... : F-4 01 8 P7C ...
ROW 1D : ... .. 7 ... ... ... : ... .. 7 ... ... ... : ... .. . ... : ... .. 0 ... : ... .. . ... ... : ... .. . ... ... : ... .. . ... ... : ... .. . ... ...
ROW 1E : C-4 00 D ... ... ... : C-5 00 D ... ... ... : ... .. . ... : ... .. F ... : ... .. . ... ... : ... .. . ... ... : ... .. . ... ... : E-4 01 8 P84 ...
ROW 1F : ... .. B ... ... ... : ... .. B ... ... ... : ... .. . ... : ... .. C ... : ... .. . ... ... : ... .. . ... ... : ... .. . ... ... : ... .. . P81 ...
ROW 20 : ... .. . ... ... ... : ... .. . ... ... ... : ... .. . ... : ... .. 6 ... : ... .. . ... ... : ... .. . ... ... : ... .. . ... ... : ... .. . P7D ...
ROW 21 : ... .. A ... ... ... : ... .. A ... ... ... : ... .. . ... : ... .. 3 ... : ... .. . ... ... : ... .. . ... ... : ... .. . ... ... : ... .. . P7B ...
ROW 22 : ... .. 8 ... ... ... : ... .. 8 ... ... ... : --- .. . ... : ... .. 2 ... : ... .. . ... ... : ... .. . ... ... : ... .. . ... ... : ... .. . P7C ...
ROW 23 : ... .. 7 ... ... ... : ... .. 7 ... ... ... : ... .. . ... : ... .. 0 ... : ... .. . ... ... : ... .. . ... ... : ... .. . ... ... : ... .. . P7F ...
ROW 24 : G-3 00 D ... ... ... : G-4 00 D ... ... ... : A#2 00 . ... : D-# 00 F ... : ... .. . ... ... : ... .. . ... ... : ... .. . ... ... : ... .. . P83 ...
ROW 25 : ... .. B ... ... ... : ... .. B ... ... ... : ... .. . ... : ... .. C ... : ... .. . ... ... : ... .. . ... ... : ... .. . ... ... : F-4 01 8 P7B ...
ROW 26 : ... .. . ... ... ... : ... .. . ... ... ... : ... .. . ... : ... .. 6 ... : ... .. . ... ... : ... .. . ... ... : ... .. . ... ... : ... .. . P7C ...
ROW 27 : ... .. A ... ... ... : ... .. A ... ... ... : ... .. . ... : ... .. 3 ... : ... .. . ... ... : ... .. . ... ... : ... .. . ... ... : E-4 01 8 P85 ...
ROW 28 : ... .. 8 ... ... ... : ... .. 8 ... ... ... : --- .. . ... : ... .. 2 ... : ... .. . ... ... : ... .. . ... ... : ... .. . ... ... : ... .. . P81 ...
ROW 29 : ... .. 7 ... ... ... : ... .. 7 ... ... ... : ... .. . ... : ... .. 0 ... : ... .. . ... ... : ... .. . ... ... : ... .. . ... ... : ... .. . P7E ...
ROW 2A : E-3 00 D ... ... ... : E-4 00 D ... ... ... : A#2 00 . ... : ... .. F ... : ... .. . ... ... : ... .. . ... ... : ... .. . ... ... : ... .. . P7B ...
ROW 2B : ... .. B ... ... ... : ... .. B ... ... ... : ... .. . ... : ... .. C ... : ... .. . ... ... : ... .. . ... ... : ... .. . ... ... : ... .. . ... ...
ROW 2C : ... .. . ... ... ... : ... .. . ... ... ... : ... .. . ... : ... .. 6 ... : ... .. . ... ... : ... .. . ... ... : ... .. . ... ... : ... .. . P7F ...
ROW 2D : ... .. A ... ... ... : ... .. A ... ... ... : ... .. . ... : ... .. 3 ... : ... .. . ... ... : ... .. . ... ... : ... .. . ... ... : ... .. . P82 ...
ROW 2E : ... .. 8 ... ... ... : ... .. 8 ... ... ... : --- .. . ... : ... .. 2 ... : ... .. . ... ... : ... .. . ... ... : ... .. . ... ... : F-4 01 8 P7B ...
ROW 2F : ... .. 7 ... ... ... : ... .. 7 ... ... ... : ... .. . ... : ... .. 0 ... : ... .. . ... ... : ... .. . ... ... : ... .. . ... ... : ... .. . P7C ...
ROW 30 : C-3 00 D ... ... ... : C-4 00 D ... ... ... : A#2 00 . ... : 6-# 00 F ... : ... .. . ... ... : ... .. . ... ... : ... .. . ... ... : E-4 01 8 P85 ...
ROW 31 : ... .. B ... ... ... : ... .. B ... ... ... : ... .. . ... : ... .. C ... : ... .. . ... ... : ... .. . ... ... : ... .. . ... ... : ... .. . P81 ...
ROW 32 : ... .. . ... ... ... : ... .. . ... ... ... : ... .. . ... : ... .. 6 ... : ... .. . ... ... : ... .. . ... ... : ... .. . ... ... : ... .. . P7E ...
ROW 33 : ... .. A ... ... ... : ... .. A ... ... ... : ... .. . ... : ... .. 3 ... : ... .. . ... ... : ... .. . ... ... : ... .. . ... ... : ... .. . P7B ...
ROW 34 : ... .. 8 ... ... ... : ... .. 8 ... ... ... : --- .. . ... : ... .. 2 ... : ... .. . ... ... : ... .. . ... ... : ... .. . ... ... : ... .. . ... ...
ROW 35 : ... .. 7 ... ... ... : ... .. 7 ... ... ... : ... .. . ... : ... .. 0 ... : ... .. . ... ... : ... .. . ... ... : ... .. . ... ... : ... .. . P7E ...
ROW 36 : G-2 00 D ... ... ... : G-3 00 D ... ... ... : A#2 00 . ... : F-# 00 D ... : ... .. . ... ... : ... .. . ... ... : ... .. . ... ... : ... .. . P81 ...
ROW 37 : ... .. B ... ... ... : ... .. B ... ... ... : ... .. . ... : ... .. B ... : ... .. . ... ... : ... .. . ... ... : ... .. . ... ... : ... .. . P85 ...
ROW 38 : ... .. . ... ... ... : ... .. . ... ... ... : ... .. . ... : ... .. . ... : ... .. . ... ... : ... .. . ... ... : ... .. . ... ... : F-4 01 8 P7C ...
ROW 39 : ... .. A ... ... ... : ... .. A ... ... ... : ... .. . ... : ... .. A ... : ... .. . ... ... : ... .. . ... ... : ... .. . ... ... : E-4 01 8 P81 ...
ROW 3A : ... .. 8 ... ... ... : ... .. 8 ... ... ... : --- .. . ... : ... .. 8 ... : ... .. . ... ... : ... .. . ... ... : ... .. . ... ... : ... .. . ... ...
ROW 3B : ... .. 7 ... ... ... : ... .. 7 ... ... ... : ... .. . ... : ... .. 7 ... : ... .. . ... ... : ... .. . ... ... : ... .. . ... ... : ... .. . ... ...
ROW 3C : E-4 00 D ... ... ... : E-5 00 D ... ... ... : A#2 00 . ... : 5-# 00 D ... : ... .. . ... ... : C-3 01 A ... ... : E-3 01 A ... ... : A-3 01 F ... ...
ROW 3D : ... .. B ... ... ... : ... .. B ... ... ... : ... .. . ... : ... .. B ... : ... .. . ... ... : ... .. 9 ... ... : ... .. 9 ... ... : ... .. D ... ...
ROW 3E : ... .. . ... ... ... : ... .. . ... ... ... : ... .. . ... : ... .. . ... : ... .. . ... ... : ... .. 8 ... ... : ... .. 8 ... ... : ... .. 8 ... ...
ROW 3F : ... .. A ... ... ... : ... .. A ... ... ... : ... .. . ... : ... .. A ... : ... .. . ... ... : ... .. 7 ... ... : ... .. 7 ... ... : ... .. . ... ...
ROW 40 : ... .. 8 ... ... ... : ... .. 8 ... ... ... : --- .. . ... : ... .. 8 ... : ... .. . ... ... : ... .. . ... ... : ... .. . ... ... : ... .. . ... ...
ROW 41 : ... .. 7 ... ... ... : ... .. 7 ... ... ... : ... .. . ... : ... .. 7 ... : ... .. . ... ... : ... .. 6 ... ... : ... .. 6 ... ... : ... .. . ... ...
ROW 42 : C-4 00 D ... ... ... : C-5 00 D ... ... ... : A#2 00 . ... : 0-# 00 F ... : ... .. . ... ... : ... .. . ... ... : ... .. . ... ... : ... .. . ... ...
ROW 43 : ... .. B ... ... ... : ... .. B ... ... ... : ... .. . ... : ... .. C ... : ... .. . ... ... : ... .. 5 ... ... : ... .. 5 ... ... : ... .. . ... ...
ROW 44 : ... .. . ... ... ... : ... .. . ... ... ... : ... .. . ... : ... .. 6 ... : ... .. . ... ... : ... .. . ... ... : ... .. . ... ... : ... .. . ... ...
ROW 45 : ... .. A ... ... ... : ... .. A ... ... ... : ... .. . ... : ... .. 3 ... : ... .. . ... ... : ... .. . ... ... : ... .. . ... ... : ... .. . ... ...
ROW 46 : ... .. 8 ... ... ... : ... .. 8 ... ... ... : --- .. . ... : ... .. 2 ... : ... .. . ... ... : ... .. . ... ... : ... .. . ... ... : ... .. . ... ...
ROW 47 : ... .. 7 ... ... ... : ... .. 7 ... ... ... : ... .. . ... : ... .. 0 ... : ... .. . ... ... : ... .. . ... ... : ... .. . ... ... : ... .. . ... ...
ROW 48 : G-3 00 D ... ... ... : G-4 00 D ... ... ... : A#2 00 . ... : C-# 00 F ... : ... .. . ... ... : ... .. . ... ... : ... .. . ... ... : ... .. . ... ...
ROW 49 : ... .. B ... ... ... : ... .. B ... ... ... : ... .. . ... : ... .. C ... : ... .. . ... ... : ... .. . ... ... : ... .. . ... ... : ... .. . ... ...
ROW 4A : ... .. . ... ... ... : ... .. . ... ... ... : ... .. . ... : ... .. 6 ... : ... .. . ... ... : ... .. . ... ... : ... .. . ... ... : ... .. . ... ...
ROW 4B : ... .. A ... ... ... : ... .. A ... ... ... : ... .. . ... : ... .. 3 ... : ... .. . ... ... : ... .. . ... ... : ... .. . ... ... : ... .. . ... ...
ROW 4C : ... .. 8 ... ... ... : ... .. 8 ... ... ... : --- .. . ... : ... .. 2 ... : ... .. . ... ... : ... .. . ... ... : ... .. . ... ... : ... .. . ... ...
ROW 4D : ... .. 7 ... ... ... : ... .. 7 ... ... ... : ... .. . ... : ... .. 0 ... : ... .. . ... ... : ... .. . ... ... : ... .. . ... ... : ... .. . ... ...
ROW 4E : E-3 00 D ... ... ... : E-4 00 D ... ... ... : A#2 00 . ... : E-# 00 F ... : ... .. . ... ... : A-3 01 A ... ... : C-4 01 A ... ... : E-4 01 F ... ...
ROW 4F : ... .. B ... ... ... : ... .. B ... ... ... : ... .. . ... : ... .. C ... : ... .. . ... ... : ... .. 9 ... ... : ... .. 9 ... ... : ... .. D ... ...
ROW 50 : ... .. . ... ... ... : ... .. . ... ... ... : ... .. . ... : ... .. 6 ... : ... .. . ... ... : ... .. 8 ... ... : ... .. 8 ... ... : ... .. 8 ... ...
ROW 51 : ... .. A ... ... ... : ... .. A ... ... ... : ... .. . ... : ... .. 3 ... : ... .. . ... ... : ... .. 7 ... ... : ... .. 7 ... ... : ... .. . ... ...
ROW 52 : ... .. 8 ... ... ... : ... .. 8 ... ... ... : --- .. . ... : ... .. 2 ... : ... .. . ... ... : ... .. . ... ... : ... .. . ... ... : ... .. . ... ...
ROW 53 : ... .. 7 ... ... ... : ... .. 7 ... ... ... : ... .. . ... : ... .. 0 ... : ... .. . ... ... : ... .. 6 ... ... : ... .. 6 ... ... : ... .. . ... ...
ROW 54 : C-3 00 D ... ... ... : C-4 00 D ... ... ... : A#2 00 . ... : 8-# 00 F ... : ... .. . ... ... : ... .. . ... ... : ... .. . ... ... : ... .. . ... ...
ROW 55 : ... .. B ... ... ... : ... .. B ... ... ... : ... .. . ... : ... .. C ... : ... .. . ... ... : ... .. 5 ... ... : ... .. 5 ... ... : ... .. . ... ...
ROW 56 : ... .. . ... ... ... : ... .. . ... ... ... : ... .. . ... : ... .. 6 ... : ... .. . ... ... : ... .. . ... ... : ... .. . ... ... : ... .. . ... ...
ROW 57 : ... .. A ... ... ... : ... .. A ... ... ... : ... .. . ... : ... .. 3 ... : ... .. . ... ... : ... .. . ... ... : ... .. . ... ... : ... .. . ... ...
ROW 58 : ... .. 8 ... ... ... : ... .. 8 ... ... ... : --- .. . ... : ... .. 2 ... : ... .. . ... ... : ... .. . ... ... : ... .. . ... ... : ... .. 4 ... ...
ROW 59 : ... .. 7 ... ... ... : ... .. 7 ... ... ... : ... .. . ... : ... .. 0 ... : ... .. . ... ... : ... .. 3 ... ... : ... .. 3 ... ... : ... .. . ... ...
ROW 5A : G-2 00 D ... ... ... : G-3 00 D ... ... ... : A#2 00 . ... : ... .. F ... : ... .. . ... ... : ... .. . ... ... : ... .. . ... ... : ... .. 1 ... ...
ROW 5B : ... .. B ... ... ... : ... .. B ... ... ... : ... .. . ... : ... .. C ... : ... .. . ... ... : ... .. . ... ... : ... .. . ... ... : ... .. . ... ...
ROW 5C : ... .. . ... ... ... : ... .. . ... ... ... : ... .. . ... : ... .. 6 ... : ... .. . ... ... : ... .. . ... ... : ... .. . ... ... : ... .. . ... ...
ROW 5D : ... .. A ... ... ... : ... .. A ... ... ... : ... .. . ... : ... .. 3 ... : ... .. . ... ... : ... .. . ... ... : ... .. . ... ... : ... .. . ... ...
ROW 5E : ... .. 8 ... ... ... : ... .. 8 ... ... ... : --- .. . ... : ... .. 2 ... : ... .. . ... ... : ... .. . ... ... : ... .. . ... ... : ... .. . ... ...
ROW 5F : ... .. 7 ... ... ... : ... .. 7 ... ... ... : ... .. . ... : ... .. 0 ... : ... .. . ... ... : ... .. . ... ... : ... .. . ... ... : ... .. . ... ...
ROW 60 : A#3 00 D ... ... ... : A#4 00 D ... ... ... : A#2 00 . ... : 5-# 00 D ... : ... .. . ... ... : ... .. A ... ... : ... .. A ... ... : ... .. F ... ...
ROW 61 : ... .. B ... ... ... : ... .. B ... ... ... : ... .. . ... : ... .. B ... : ... .. . ... ... : ... .. 9 ... ... : ... .. 9 ... ... : ... .. D ... ...
ROW 62 : ... .. . ... ... ... : ... .. . ... ... ... : ... .. . ... : ... .. . ... : ... .. . ... ... : ... .. 8 ... ... : ... .. 8 ... ... : ... .. 8 ... ...
ROW 63 : ... .. A ... ... ... : ... .. A ... ... ... : ... .. . ... : ... .. A ... : ... .. . ... ... : ... .. 7 ... ... : ... .. 7 ... ... : ... .. . ... ...
ROW 64 : ... .. 8 ... ... ... : ... .. 8 ... ... ... : --- .. . ... : ... .. 8 ... : ... .. . ... ... : ... .. . ... ... : ... .. . ... ... : ... .. . ... ...
ROW 65 : ... .. 7 ... ... ... : ... .. 7 ... ... ... : ... .. . ... : ... .. 7 ... : ... .. . ... ... : ... .. 6 ... ... : ... .. 6 ... ... : ... .. . ... ...
ROW 66 : G-3 00 D ... ... ... : G-4 00 D ... ... ... : A#2 00 . ... : 1-# 00 F ... : ... .. . ... ... : --- .. . ... ... : --- .. . ... ... : --- .. . ... ...
ROW 67 : ... .. B ... ... ... : ... .. B ... ... ... : ... .. . ... : ... .. C ... : ... .. . ... ... : ... .. . ... ... : ... .. . ... ... : ... .. . ... ...
ROW 68 : ... .. . ... ... ... : ... .. . ... ... ... : ... .. . ... : ... .. 6 ... : ... .. . ... ... : ... .. . ... ... : ... .. . ... ... : ... .. . ... ...
ROW 69 : ... .. A ... ... ... : ... .. A ... ... ... : ... .. . ... : ... .. 3 ... : ... .. . ... ... : ... .. . ... ... : ... .. . ... ... : ... .. . ... ...
ROW 6A : ... .. 8 ... ... ... : ... .. 8 ... ... ... : --- .. . ... : ... .. 2 ... : ... .. . ... ... : ... .. . ... ... : ... .. . ... ... : ... .. . ... ...
ROW 6B : ... .. 7 ... ... ... : ... .. 7 ... ... ... : ... .. . ... : ... .. 0 ... : ... .. . ... ... : ... .. . ... ... : ... .. . ... ... : ... .. . ... ...
ROW 6C : D-3 00 D ... ... ... : D-4 00 D ... ... ... : A#2 00 . ... : ... .. F ... : ... .. . ... ... : ... .. . ... ... : ... .. . ... ... : ... .. . ... ...
ROW 6D : ... .. B ... ... ... : ... .. B ... ... ... : ... .. . ... : ... .. C ... : ... .. . ... ... : ... .. . ... ... : ... .. . ... ... : ... .. . ... ...
ROW 6E : ... .. . ... ... ... : ... .. . ... ... ... : ... .. . ... : ... .. 6 ... : ... .. . ... ... : G-3 01 A ... ... : A#3 01 A ... ... : D-4 01 F ... ...
ROW 6F : ... .. A ... ... ... : ... .. A ... ... ... : ... .. . ... : ... .. 3 ... : ... .. . ... ... : ... .. 9 ... ... : ... .. 9 ... ... : ... .. D ... ...
ROW 70 : ... .. 8 ... ... ... : ... .. 8 ... ... ... : --- .. . ... : ... .. 2 ... : ... .. . ... ... : ... .. 8 ... ... : ... .. 8 ... ... : ... .. 8 ... ...
ROW 71 : ... .. 7 ... ... ... : ... .. 7 ... ... ... : ... .. . ... : ... .. 0 ... : ... .. . ... ... : --- .. . P81 ... : --- .. . ... ... : --- .. . ... ...
ROW 72 : A#2 00 D ... ... ... : A#3 00 D ... ... ... : A#2 00 . ... : 5-# 00 D ... : ... .. . ... ... : G-3 01 A P80 ... : A#3 01 A ... ... : D-4 01 F ... ...
ROW 73 : ... .. B ... ... ... : ... .. B ... ... ... : ... .. . ... : ... .. B ... : ... .. . ... ... : ... .. 9 ... ... : ... .. 9 ... ... : ... .. D ... ...
ROW 74 : ... .. . ... ... ... : ... .. . ... ... ... : ... .. . ... : ... .. . ... : ... .. . ... ... : ... .. 8 ... ... : ... .. 8 ... ... : ... .. 8 ... ...
ROW 75 : ... .. A ... ... ... : ... .. A ... ... ... : ... .. . ... : ... .. A ... : ... .. . ... ... : ... .. 7 ... ... : ... .. 7 ... ... : ... .. . ... ...
ROW 76 : ... .. 8 ... ... ... : ... .. 8 ... ... ... : --- .. . ... : ... .. 8 ... : ... .. . ... ... : ... .. . ... ... : ... .. . ... ... : ... .. . ... ...
ROW 77 : ... .. 7 ... ... ... : ... .. 7 ... ... ... : ... .. . ... : ... .. 7 ... : ... .. . ... ... : ... .. 6 ... ... : ... .. 6 ... ... : ... .. . ... ...
ROW 78 : G-2 00 D ... ... ... : G-3 00 D ... ... ... : A#2 00 . ... : 1-# 00 F ... : ... .. . ... ... : ... .. . ... ... : ... .. . ... ... : ... .. . ... ...
ROW 79 : ... .. B ... ... ... : ... .. B ... ... ... : ... .. . ... : ... .. C ... : ... .. . ... ... : ... .. 5 ... ... : ... .. 5 ... ... : ... .. . ... ...
ROW 7A : ... .. . ... ... ... : ... .. . ... ... ... : ... .. . ... : ... .. 6 ... : ... .. . ... ... : ... .. . ... ... : ... .. . ... ... : ... .. . ... ...
ROW 7B : ... .. A ... ... ... : ... .. A ... ... ... : ... .. . ... : ... .. 3 ... : ... .. . ... ... : ... .. . ... ... : ... .. . ... ... : ... .. . ... ...
ROW 7C : ... .. 8 ... ... ... : ... .. 8 ... ... ... : --- .. . ... : ... .. 2 ... : ... .. . ... ... : ... .. . ... ... : ... .. . ... ... : ... .. . ... ...
ROW 7D : ... .. 7 ... ... ... : ... .. 7 ... ... ... : ... .. . ... : ... .. 0 ... : ... .. . ... ... : ... .. . ... ... : ... .. . ... ... : ... .. . ... ...
ROW 7E : D-2 00 D ... ... ... : D-3 00 D ... ... ... : A#2 00 . ... : ... .. F ... : ... .. . ... ... : ... .. . ... ... : ... .. . ... ... : ... .. . ... ...
ROW 7F : ... .. B ... ... ... : ... .. B ... ... ... : ... .. . ... : ... .. C ... : ... .. . ... ... : ... .. . ... ... : ... .. . ... ... : ... .. . ... ...
ROW 80 : ... .. . ... ... ... : ... .. . ... ... ... : ... .. . ... : ... .. 6 ... : ... .. . ... ... : ... .. . ... ... : ... .. . ... ... : ... .. . ... ...
ROW 81 : ... .. A ... ... ... : ... .. A ... ... ... : ... .. . ... : ... .. 3 ... : ... .. . ... ... : ... .. . ... ... : ... .. . ... ... : ... .. . ... ...
ROW 82 : ... .. 8 ... ... ... : ... .. 8 ... ... ... : --- .. . ... : ... .. 2 ... : ... .. . ... ... : ... .. . ... ... : ... .. . ... ... : ... .. . ... ...
ROW 83 : ... .. 7 ... ... ... : ... .. 7 ... ... ... : ... .. . ... : ... .. 0 ... : ... .. . ... ... : ... .. . ... ... : ... .. . ... ... : ... .. . ... ...
ROW 84 : A#3 00 D ... ... ... : A#4 00 D ... ... ... : A#2 00 . ... : 5-# 00 D ... : ... .. . ... ... : ... .. . ... ... : ... .. . ... ... : ... .. . ... ...
ROW 85 : ... .. B ... ... ... : ... .. B ... ... ... : ... .. . ... : ... .. B ... : ... .. . ... ... : ... .. . ... ... : ... .. . ... ... : ... .. . ... ...
ROW 86 : ... .. . ... ... ... : ... .. . ... ... ... : ... .. . ... : ... .. . ... : ... .. . ... ... : ... .. . ... ... : ... .. . ... ... : ... .. . ... ...
ROW 87 : ... .. A ... ... ... : ... .. A ... ... ... : ... .. . ... : ... .. A ... : ... .. . ... ... : ... .. . ... ... : ... .. . ... ... : ... .. . ... ...
ROW 88 : ... .. 8 ... ... ... : ... .. 8 ... ... ... : --- .. . ... : ... .. 8 ... : ... .. . ... ... : ... .. . ... ... : ... .. . ... ... : ... .. . ... ...
ROW 89 : ... .. 7 ... ... ... : ... .. 7 ... ... ... : ... .. . ... : ... .. 7 ... : ... .. . ... ... : ... .. . ... ... : ... .. . ... ... : ... .. . ... ...
ROW 8A : G-3 00 D ... ... ... : G-4 00 D ... ... ... : A#2 00 . ... : ... .. F ... : ... .. . ... ... : ... .. . ... ... : ... .. . ... ... : ... .. . ... ...
ROW 8B : ... .. B ... ... ... : ... .. B ... ... ... : ... .. . ... : ... .. C ... : ... .. . ... ... : ... .. . ... ... : ... .. . ... ... : ... .. . ... ...
ROW 8C : ... .. . ... ... ... : ... .. . ... ... ... : ... .. . ... : ... .. 6 ... : ... .. . ... ... : ... .. . ... ... : ... .. . ... ... : ... .. . ... ...
ROW 8D : ... .. A ... ... ... : ... .. A ... ... ... : ... .. . ... : ... .. 3 ... : ... .. . ... ... : ... .. . ... ... : ... .. . ... ... : ... .. . ... ...
ROW 8E : ... .. 8 ... ... ... : ... .. 8 ... ... ... : --- .. . ... : ... .. 2 ... : ... .. . ... ... : ... .. . ... ... : ... .. . ... ... : ... .. . ... ...
ROW 8F : ... .. 7 ... ... ... : ... .. 7 ... ... ... : ... .. . ... : ... .. 0 ... : ... .. . ... ... : ... .. . ... ... : ... .. . ... ... : ... .. . ... ...
ROW 90 : D-3 00 D ... ... ... : D-4 00 D ... ... ... : A#2 00 . ... : F-# 00 F ... : ... .. . ... ... : ... .. . ... ... : ... .. . ... ... : ... .. . ... ...
ROW 91 : ... .. B ... ... ... : ... .. B ... ... ... : ... .. . ... : ... .. C ... : ... .. . ... ... : ... .. . ... ... : ... .. . ... ... : ... .. . ... ...
ROW 92 : ... .. . ... ... ... : ... .. . ... ... ... : ... .. . ... : ... .. 6 ... : ... .. . ... ... : ... .. . ... ... : ... .. . ... ... : ... .. . ... ...
ROW 93 : ... .. A ... ... ... : ... .. A ... ... ... : ... .. . ... : ... .. 3 ... : ... .. . ... ... : ... .. . ... ... : ... .. . ... ... : ... .. . ... ...
ROW 94 : ... .. 8 ... ... ... : ... .. 8 ... ... ... : --- .. . ... : ... .. 2 ... : ... .. . ... ... : ... .. . ... ... : ... .. . ... ... : ... .. . ... ...
ROW 95 : ... .. 7 ... ... ... : ... .. 7 ... ... ... : ... .. . ... : ... .. 0 ... : ... .. . ... ... : ... .. . ... ... : ... .. . ... ... : ... .. . ... ...
ROW 96 : A#2 00 D ... ... ... : A#3 00 D ... ... ... : A#2 00 . ... : D-# 00 F ... : ... .. . ... ... : ... .. . ... ... : ... .. . ... ... : ... .. . ... ...
ROW 97 : ... .. B ... ... ... : ... .. B ... ... ... : ... .. . ... : ... .. C ... : ... .. . ... ... : ... .. . ... ... : ... .. . ... ... : ... .. . ... ...
ROW 98 : ... .. . ... ... ... : ... .. . ... ... ... : ... .. . ... : ... .. 6 ... : ... .. . ... ... : ... .. . ... ... : ... .. . ... ... : ... .. . ... ...
ROW 99 : ... .. A ... ... ... : ... .. A ... ... ... : ... .. . ... : ... .. 3 ... : ... .. . ... ... : ... .. . ... ... : ... .. . ... ... : ... .. . ... ...
ROW 9A : ... .. 8 ... ... ... : ... .. 8 ... ... ... : --- .. . ... : ... .. 2 ... : ... .. . ... ... : ... .. . ... ... : ... .. . ... ... : ... .. . ... ...
ROW 9B : ... .. 7 ... ... ... : ... .. 7 ... ... ... : ... .. . ... : ... .. 0 ... : ... .. . ... ... : ... .. . ... ... : ... .. . ... ... : ... .. . ... ...
ROW 9C : G-2 00 D ... ... ... : G-3 00 D ... ... ... : A#2 00 . ... : B-# 00 F ... : ... .. . ... ... : ... .. . ... ... : ... .. . ... ... : ... .. . ... ...
ROW 9D : ... .. B ... ... ... : ... .. B ... ... ... : ... .. . ... : ... .. C ... : ... .. . ... ... : ... .. . ... ... : ... .. . ... ... : ... .. . ... ...
ROW 9E : ... .. . ... ... ... : ... .. . ... ... ... : ... .. . ... : ... .. 6 ... : ... .. . ... ... : ... .. . ... ... : ... .. . ... ... : ... .. . ... ...
ROW 9F : ... .. A ... ... ... : ... .. A ... ... ... : ... .. . ... : ... .. 3 ... : ... .. . ... ... : ... .. . ... ... : ... .. . ... ... : ... .. . ... ...
ROW A0 : ... .. 8 ... ... ... : ... .. 8 ... ... ... : --- .. . ... : ... .. 2 ... : ... .. . ... ... : ... .. . ... ... : ... .. . ... ... : ... .. . ... ...
ROW A1 : ... .. 7 ... ... ... : ... .. 7 ... ... ... : ... .. . ... : ... .. 0 ... : ... .. . ... ... : ... .. . ... ... : ... .. . ... ... : ... .. . ... ...
ROW A2 : D-2 00 D ... ... ... : D-3 00 D ... ... ... : A#2 00 . ... : 8-# 00 F ... : ... .. . ... ... : ... .. . ... ... : ... .. . ... ... : ... .. . ... ...
ROW A3 : ... .. B ... ... ... : ... .. B ... ... ... : ... .. . ... : ... .. C ... : ... .. . ... ... : ... .. . ... ... : ... .. . ... ... : ... .. . ... ...
ROW A4 : ... .. . ... ... ... : ... .. . ... ... ... : ... .. . ... : ... .. 6 ... : ... .. . ... ... : ... .. . ... ... : ... .. . ... ... : ... .. . ... ...
ROW A5 : ... .. A ... ... ... : ... .. A ... ... ... : ... .. . ... : ... .. 3 ... : ... .. . ... ... : ... .. . ... ... : ... .. . ... ... : ... .. . P85 ...
ROW A6 : ... .. 8 ... ... ... : ... .. 8 ... ... ... : --- .. . ... : ... .. 2 ... : ... .. . ... ... : ... .. . ... ... : ... .. . ... ... : D#4 01 8 P7A ...
ROW A7 : ... .. 7 ... ... ... : ... .. 7 ... ... ... : ... .. . ... : ... .. 0 ... : ... .. . ... ... : ... .. . ... ... : ... .. . ... ... : D-4 01 8 P86 ...
ROW A8 : A#3 00 D ... ... ... : A#4 00 D ... ... ... : F#4 00 . ... : 1-# 00 F ... : ... .. . ... ... : A-3 01 A ... ... : A-2 01 A ... ... : ... .. . P83 ...
ROW A9 : ... .. B ... ... ... : ... .. B ... ... ... : G#3 00 . ... : ... .. C ... : ... .. . ... ... : ... .. 9 ... ... : ... .. 9 ... ... : ... .. . P7F ...
ROW AA : ... .. . ... ... ... : ... .. . ... ... ... : C#3 00 . ... : ... .. 6 ... : ... .. . ... ... : ... .. 8 ... ... : ... .. 8 ... ... : ... .. . P7C ...
ROW AB : ... .. A ... ... ... : ... .. A ... ... ... : C-3 00 . ... : ... .. 3 ... : ... .. . ... ... : ... .. 7 ... ... : ... .. 7 ... ... : ... .. . P7B ...
ROW AC : ... .. 8 ... ... ... : ... .. 8 ... ... ... : G-2 00 . ... : ... .. 2 ... : ... .. . ... ... : ... .. . ... ... : ... .. . ... ... : ... .. . P7D ...
ROW AD : ... .. 7 ... ... ... : ... .. 7 ... ... ... : ... .. . ... : ... .. 0 ... : ... .. . ... ... : ... .. 6 ... ... : ... .. 6 ... ... : ... .. . P81 ...
ROW AE : G-3 00 D ... ... ... : G-4 00 D ... ... ... : ... .. . ... : 9-# 00 F ... : ... .. . ... ... : A#3 01 A ... ... : A#2 01 A ... ... : ... .. . P84 ...
ROW AF : ... .. B ... ... ... : ... .. B ... ... ... : ... .. . ... : ... .. C ... : ... .. . ... ... : ... .. 9 ... ... : ... .. 9 ... ... : D#4 01 8 P7A ...
ROW B0 : ... .. . ... ... ... : ... .. . ... ... ... : ... .. . ... : ... .. 6 ... : ... .. . ... ... : ... .. 8 ... ... : ... .. 8 ... ... : ... .. . ... ...
ROW B1 : ... .. A ... ... ... : ... .. A ... ... ... : ... .. . ... : ... .. 3 ... : ... .. . ... ... : ... .. 7 ... ... : ... .. 7 ... ... : D-4 01 8 P83 ...
ROW B2 : ... .. 8 ... ... ... : ... .. 8 ... ... ... : --- .. . ... : ... .. 2 ... : ... .. . ... ... : ... .. . ... ... : ... .. . ... ... : ... .. . P80 ...
ROW B3 : ... .. 7 ... ... ... : ... .. 7 ... ... ... : ... .. . ... : ... .. 0 ... : ... .. . ... ... : ... .. 6 ... ... : ... .. 6 ... ... : ... .. . P7C ...
ROW B4 : D-3 00 D ... ... ... : D-4 00 D ... ... ... : G-2 00 . ... : D-# 00 F ... : ... .. . ... ... : C#4 01 A ... ... : C#3 01 A ... ... : ... .. . P7B ...
ROW B5 : ... .. B ... ... ... : ... .. B ... ... ... : ... .. . ... : ... .. C ... : ... .. . ... ... : ... .. 9 ... ... : ... .. 9 ... ... : ... .. . P7D ...
ROW B6 : ... .. . ... ... ... : ... .. . ... ... ... : ... .. . ... : ... .. 6 ... : ... .. . ... ... : ... .. 8 ... ... : ... .. 8 ... ... : ... .. . P81 ...
ROW B7 : ... .. A ... ... ... : ... .. A ... ... ... : ... .. . ... : ... .. 3 ... : ... .. . ... ... : ... .. 7 ... ... : ... .. 7 ... ... : ... .. . P84 ...
ROW B8 : ... .. 8 ... ... ... : ... .. 8 ... ... ... : --- .. . ... : ... .. 2 ... : ... .. . ... ... : ... .. . ... ... : ... .. . ... ... : D#4 01 8 P7A ...
ROW B9 : ... .. 7 ... ... ... : ... .. 7 ... ... ... : ... .. . ... : ... .. 0 ... : ... .. . ... ... : ... .. 6 ... ... : ... .. 6 ... ... : ... .. . ... ...
ROW BA : A#2 00 D ... ... ... : A#3 00 D ... ... ... : G-2 00 . ... : ... .. D ... : ... .. . ... ... : D-4 01 A ... ... : D-3 01 A ... ... : D-4 01 8 P84 ...
ROW BB : ... .. B ... ... ... : ... .. B ... ... ... : ... .. . ... : ... .. B ... : ... .. . ... ... : ... .. 9 ... ... : ... .. 9 ... ... : ... .. . P81 ...
ROW BC : ... .. . ... ... ... : ... .. . ... ... ... : ... .. . ... : ... .. . ... : ... .. . ... ... : ... .. 8 ... ... : ... .. 8 ... ... : ... .. . P7D ...
ROW BD : ... .. A ... ... ... : ... .. A ... ... ... : ... .. . ... : ... .. A ... : ... .. . ... ... : ... .. 7 ... ... : ... .. 7 ... ... : ... .. . P7B ...
ROW BE : ... .. 8 ... ... ... : ... .. 8 ... ... ... : --- .. . ... : ... .. 8 ... : ... .. . ... ... : ... .. . ... ... : ... .. . ... ... : ... .. . P7C ...
ROW BF : ... .. 7 ... ... ... : ... .. 7 ... ... ... : ... .. . ... : ... .. 7 ... : ... .. . ... ... : ... .. 6 ... ... : ... .. 6 ... ... : ... .. . P80 ...
ROW C0 : G-2 00 D ... ... ... : G-3 00 D ... ... ... : G-2 00 . ... : 3-# 00 D ... : ... .. . ... ... : F#4 01 A ... ... : F#3 01 A ... ... : ... .. . P83 ...
ROW C1 : ... .. B ... ... ... : ... .. B ... ... ... : ... .. . ... : ... .. B ... : ... .. . ... ... : ... .. 9 ... ... : ... .. 9 ... ... : D#4 01 8 P7A ...
ROW C2 : ... .. . ... ... ... : ... .. . ... ... ... : ... .. . ... : ... .. . ... : ... .. . ... ... : ... .. 8 ... ... : ... .. 8 ... ... : ... .. . ... ...
ROW C3 : ... .. A ... ... ... : ... .. A ... ... ... : ... .. . ... : ... .. A ... : ... .. . ... ... : ... .. 7 ... ... : ... .. 7 ... ... : D-4 01 8 P84 ...
ROW C4 : ... .. 8 ... ... ... : ... .. 8 ... ... ... : --- .. . ... : ... .. 8 ... : ... .. . ... ... : ... .. . ... ... : ... .. . ... ... : ... .. . P81 ...
ROW C5 : ... .. 7 ... ... ... : ... .. 7 ... ... ... : ... .. . ... : ... .. 7 ... : ... .. . ... ... : ... .. 6 ... ... : ... .. 6 ... ... : ... .. . P7D ...
ROW C6 : D-2 00 D ... ... ... : D-3 00 D ... ... ... : G-2 00 . ... : 4-# 00 D ... : ... .. . ... ... : G-4 01 A ... ... : G-3 01 A ... ... : ... .. . P7B ...
ROW C7 : ... .. B ... ... ... : ... .. B ... ... ... : ... .. . ... : ... .. B ... : ... .. . ... ... : ... .. 9 ... ... : ... .. 9 ... ... : ... .. . P7C ...
ROW C8 : ... .. . ... ... ... : ... .. . ... ... ... : ... .. . ... : ... .. . ... : ... .. . ... ... : ... .. 8 ... ... : ... .. 8 ... ... : ... .. . P7F ...
ROW C9 : ... .. A ... ... ... : ... .. A ... ... ... : ... .. . ... : ... .. A ... : ... .. . ... ... : ... .. 7 ... ... : ... .. 7 ... ... : ... .. . P83 ...
ROW CA : ... .. 8 ... ... ... : ... .. 8 ... ... ... : --- .. . ... : ... .. 8 ... : ... .. . ... ... : ... .. . ... ... : ... .. . ... ... : ... .. . P86 ...
ROW CB : ... .. 7 ... ... ... : ... .. 7 ... ... ... : ... .. . ... : ... .. 7 ... : ... .. . ... ... : ... .. 6 ... ... : ... .. 6 ... ... : D#4 01 8 P7A ...
ROW CC : A#3 00 D ... ... ... : A#4 00 D ... ... ... : G-2 00 . ... : 5-# 00 D ... : ... .. . ... ... : A-4 01 A ... ... : A-3 01 A ... ... : D-4 01 8 P85 ...
ROW CD : ... .. B ... ... ... : ... .. B ... ... ... : ... .. . ... : ... .. B ... : ... .. . ... ... : ... .. 9 ... ... : ... .. 9 ... ... : ... .. . P81 ...
ROW CE : ... .. . ... ... ... : ... .. . ... ... ... : ... .. . ... : ... .. . ... : ... .. . ... ... : ... .. 8 ... ... : ... .. 8 ... ... : ... .. . P7E ...
ROW CF : ... .. A ... ... ... : ... .. A ... ... ... : ... .. . ... : ... .. A ... : ... .. . ... ... : ... .. 7 ... ... : ... .. 7 ... ... : ... .. . P7B ...
ROW D0 : ... .. 8 ... ... ... : ... .. 8 ... ... ... : --- .. . ... : ... .. 8 ... : ... .. . ... ... : ... .. . ... ... : ... .. . ... ... : ... .. . ... ...
ROW D1 : ... .. 7 ... ... ... : ... .. 7 ... ... ... : ... .. . ... : ... .. 7 ... : ... .. . ... ... : ... .. 6 ... ... : ... .. 6 ... ... : ... .. . P7F ...
ROW D2 : G-3 00 D ... ... ... : G-4 00 D ... ... ... : G-2 00 . ... : 6-# 00 D ... : ... .. . ... ... : A#4 01 A ... ... : A#3 01 A ... ... : ... .. . P82 ...
ROW D3 : ... .. B ... ... ... : ... .. B ... ... ... : ... .. . ... : ... .. B ... : ... .. . ... ... : ... .. 9 ... ... : ... .. 9 ... ... : ... .. . P86 ...
ROW D4 : ... .. . ... ... ... : ... .. . ... ... ... : ... .. . ... : ... .. . ... : ... .. . ... ... : ... .. 8 ... ... : ... .. 8 ... ... : D#4 01 8 P7A ...
ROW D5 : ... .. A ... ... ... : ... .. A ... ... ... : ... .. . ... : ... .. A ... : ... .. . ... ... : ... .. 7 ... ... : ... .. 7 ... ... : D-4 01 8 P85 ...
ROW D6 : ... .. 8 ... ... ... : ... .. 8 ... ... ... : --- .. . ... : ... .. 8 ... : ... .. . ... ... : ... .. . ... ... : ... .. . ... ... : ... .. . P81 ...
ROW D7 : ... .. 7 ... ... ... : ... .. 7 ... ... ... : ... .. . ... : ... .. 7 ... : ... .. . ... ... : ... .. 6 ... ... : ... .. 6 ... ... : ... .. . P7E ...
ROW D8 : D-3 00 D ... ... ... : D-4 00 D ... ... ... : G-2 00 . ... : 8-# 00 D ... : ... .. . ... ... : D-5 01 A ... ... : D-4 01 A ... ... : ... .. . P7B ...
ROW D9 : ... .. B ... ... ... : ... .. B ... ... ... : ... .. . ... : ... .. B ... : ... .. . ... ... : ... .. 9 ... ... : ... .. 9 ... ... : ... .. 4 ... ...
ROW DA : ... .. . ... ... ... : ... .. . ... ... ... : ... .. . ... : ... .. . ... : ... .. . ... ... : ... .. 8 ... ... : ... .. 8 ... ... : ... .. . P7E ...
ROW DB : ... .. A ... ... ... : ... .. A ... ... ... : ... .. . ... : ... .. A ... : ... .. . ... ... : ... .. 7 ... ... : ... .. 7 ... ... : ... .. 1 P81 ...
ROW DC : ... .. 8 ... ... ... : ... .. 8 ... ... ... : --- .. . ... : ... .. 8 ... : ... .. . ... ... : ... .. . ... ... : ... .. . ... ... : ... .. . P85 ...
ROW DD : ... .. 7 ... ... ... : ... .. 7 ... ... ... : ... .. . ... : ... .. 7 ... : ... .. . ... ... : ... .. 6 ... ... : ... .. 6 ... ... : D#4 01 1 P7A ...
ROW DE : A#2 00 D ... ... ... : A#3 00 D ... ... ... : G-2 00 . ... : ... .. D ... : ... .. . ... ... : D#5 01 A ... ... : D#4 01 A ... ... : E-3 01 4 P86 ...
ROW DF : ... .. B ... ... ... : ... .. B ... ... ... : ... .. . ... : ... .. B ... : ... .. . ... ... : ... .. 9 ... ... : ... .. 9 ... ... : ... .. 3 P82 ...
ROW E0 : ... .. . ... ... ... : ... .. . ... ... ... : ... .. . ... : ... .. . ... : ... .. . ... ... : ... .. 8 ... ... : ... .. 8 ... ... : ... .. 2 P7F ...
ROW E1 : ... .. A ... ... ... : ... .. A ... ... ... : ... .. . ... : ... .. A ... : ... .. . ... ... : ... .. 7 ... ... : ... .. 7 ... ... : F-3 01 6 P7B ...
ROW E2 : ... .. 8 ... ... ... : ... .. 8 ... ... ... : --- .. . ... : ... .. 8 ... : ... .. . ... ... : ... .. . ... ... : ... .. . ... ... : ... .. 5 ... ...
ROW E3 : ... .. 7 ... ... ... : ... .. 7 ... ... ... : ... .. . ... : ... .. 7 ... : ... .. . ... ... : ... .. 6 ... ... : ... .. 6 ... ... : ... .. 3 P7E ...
ROW E4 : G-2 00 D ... ... ... : G-3 00 D ... ... ... : G-2 00 . ... : B-# 00 D ... : ... .. . ... ... : G-5 01 A ... ... : G-4 01 A ... ... : G-3 01 8 P81 ...
ROW E5 : ... .. B ... ... ... : ... .. B ... ... ... : ... .. . ... : ... .. B ... : ... .. . ... ... : ... .. 9 ... ... : ... .. 9 ... ... : ... .. 6 P85 ...
ROW E6 : ... .. . ... ... ... : ... .. . ... ... ... : ... .. . ... : ... .. . ... : ... .. . ... ... : ... .. 8 ... ... : ... .. 8 ... ... : ... .. 4 P87 ...
ROW E7 : ... .. A ... ... ... : ... .. A ... ... ... : ... .. . ... : ... .. A ... : ... .. . ... ... : ... .. 7 ... ... : ... .. 7 ... ... : A-3 01 A P86 ...
ROW E8 : ... .. 8 ... ... ... : ... .. 8 ... ... ... : --- .. . ... : ... .. 8 ... : ... .. . ... ... : ... .. . ... ... : ... .. . ... ... : ... .. 8 P83 ...
ROW E9 : ... .. 7 ... ... ... : ... .. 7 ... ... ... : ... .. . ... : ... .. 7 ... : ... .. . ... ... : ... .. 6 ... ... : ... .. 6 ... ... : ... .. 5 P7F ...
ROW EA : D-2 00 D ... ... ... : D-3 00 D ... ... ... : G-2 00 . ... : D-# 00 D ... : ... .. . ... ... : A#5 01 A ... ... : A#4 01 A ... ... : A#3 01 C P7C ...
ROW EB : ... .. B ... ... ... : ... .. B ... ... ... : ... .. . ... : ... .. B ... : ... .. . ... ... : ... .. 9 ... ... : ... .. 9 ... ... : ... .. A P7B ...
ROW EC : ... .. . ... ... ... : ... .. . ... ... ... : ... .. . ... : ... .. . ... : ... .. . ... ... : ... .. 8 ... ... : ... .. 8 ... ... : ... .. 6 P7D ...
ROW ED : ... .. A ... ... ... : ... .. A ... ... ... : ... .. . ... : ... .. A ... : ... .. . ... ... : ... .. 7 ... ... : ... .. 7 ... ... : C-4 01 F P81 ...
ROW EE : ... .. 8 ... ... ... : ... .. 8 ... ... ... : --- .. . ... : ... .. 8 ... : ... .. . ... ... : ... .. . ... ... : ... .. . ... ... : ... .. D P84 ...
ROW EF : ... .. 7 ... ... ... : ... .. 7 ... ... ... : ... .. . ... : ... .. 7 ... : ... .. . ... ... : ... .. 6 ... ... : ... .. 6 ... ... : C#4 01 8 P7A ...
ROW F0 : ... .. F ... ... ... : F-3 00 F ... ... ... : C#4 00 . ... : ... .. F ... : ... .. . ... ... : B-5 01 A ... ... : B-4 01 A ... ... : D-4 01 F P81 ...
ROW F1 : ... .. E ... ... ... : ... .. E ... ... ... : D#3 00 . ... : ... .. . ... : ... .. . ... ... : ... .. 9 ... ... : ... .. 9 ... ... : ... .. D ... ...
ROW F2 : ... .. D ... ... ... : ... .. D ... ... ... : G#2 00 . ... : ... .. . ... : ... .. . ... ... : ... .. 8 ... ... : ... .. 8 ... ... : ... .. 8 ... ...
ROW F3 : ... .. 9 ... ... ... : ... .. 9 ... ... ... : G-2 00 . ... : C-# 00 D ... : ... .. . ... ... : ... .. 5 ... ... : ... .. 5 ... ... : ... .. . ... ...
ROW F4 : ... .. . ... ... ... : ... .. . ... ... ... : D-2 00 . ... : ... .. . ... : ... .. . ... ... : ... .. . ... ... : ... .. . ... ... : ... .. . ... ...
ROW F5 : ... .. . ... ... ... : ... .. . ... ... ... : ... .. . ... : ... .. . ... : ... .. . ... ... : ... .. 3 ... ... : ... .. 3 ... ... : ... .. . ... ...
ROW F6 : ... .. . ... ... ... : ... .. . ... ... ... : ... .. . ... : B-# 00 B ... : ... .. . ... ... : ... .. 6 ... ... : ... .. 6 ... ... : ... .. . ... ...
ROW F7 : ... .. . ... ... ... : ... .. . ... ... ... : ... .. . ... : ... .. . ... : ... .. . ... ... : ... .. . ... ... : ... .. . ... ... : ... .. . ... ...
ROW F8 : ... .. . ... ... ... : ... .. . ... ... ... : ... .. . ... : ... .. . ... : ... .. . ... ... : ... .. 5 ... ... : ... .. 5 ... ... : ... .. . ... ...
ROW F9 : ... .. . ... ... ... : ... .. . ... ... ... : ... .. . ... : ... .. 9 ... : ... .. . ... ... : ... .. 3 ... ... : ... .. 3 ... ... : ... .. . ... ...
ROW FA : ... .. . ... ... ... : ... .. . ... ... ... : ... .. . ... : ... .. . ... : ... .. . ... ... : ... .. . ... ... : ... .. . ... ... : ... .. . ... ...
ROW FB : ... .. . ... ... ... : ... .. . ... ... ... : --- .. . ... : ... .. . ... : ... .. . ... ... : ... .. 2 ... ... : ... .. 2 ... ... : ... .. . ... ...
ROW FC : ... .. 8 ... ... ... : ... .. 8 ... ... ... : D-2 00 . ... : ... .. 7 ... : ... .. . ... ... : F-5 01 A ... ... : F-4 01 A ... ... : ... .. . ... ...
ROW FD : ... .. . ... ... ... : ... .. . ... ... ... : ... .. . ... : ... .. . ... : ... .. . ... ... : ... .. 9 ... ... : ... .. 9 ... ... : ... .. . ... ...
ROW FE : ... .. . ... ... ... : ... .. . ... ... ... : ... .. . ... : ... .. . ... : ... .. . ... ... : ... .. 8 ... ... : ... .. 8 ... ... : ... .. . ... ...
ROW FF : ... .. . ... ... ... : ... .. . ... ... ... : ... .. . ... : ... .. 5 ... : ... .. . ... ... : ... .. 5 ... ... : ... .. 5 ... ... : ... .. . ... ...

PATTERN 0D
ROW 00 : ... .. . ... ... ... : ... .. . ... ... ... : ... .. . ... : ... .. . ... : ... .. . ... ... : ... .. . ... ... : ... .. . ... ... : ... .. . ... ...
ROW 01 : ... .. . ... ... ... : ... .. . ... ... ... : --- .. . ... : ... .. . ... : ... .. . ... ... : ... .. 3 ... ... : ... .. 3 ... ... : ... .. . ... ...
ROW 02 : ... .. . ... ... ... : ... .. . ... ... ... : D-2 00 . ... : 4-# 00 D ... : ... .. . ... ... : ... .. 6 ... ... : ... .. 6 ... ... : ... .. . ... ...
ROW 03 : ... .. . ... ... ... : ... .. . ... ... ... : ... .. . ... : ... .. B ... : ... .. . ... ... : ... .. . ... ... : ... .. . ... ... : ... .. . ... ...
ROW 04 : ... .. . ... ... ... : ... .. . ... ... ... : ... .. . ... : ... .. . ... : ... .. . ... ... : ... .. 5 ... ... : ... .. 5 ... ... : ... .. . ... ...
ROW 05 : ... .. . ... ... ... : ... .. . ... ... ... : ... .. . ... : ... .. A ... : ... .. . ... ... : ... .. 3 ... ... : ... .. 3 ... ... : ... .. . ... ...
ROW 06 : ... .. . ... ... ... : ... .. . ... ... ... : ... .. . ... : ... .. 8 ... : ... .. . ... ... : ... .. . ... ... : ... .. . ... ... : ... .. . ... ...
ROW 07 : ... .. . ... ... ... : ... .. . ... ... ... : --- .. . ... : ... .. 7 ... : ... .. . ... ... : ... .. 2 ... ... : ... .. 2 ... ... : ... .. . ... ...
ROW 08 : ... .. . ... ... ... : ... .. . ... ... ... : D-2 00 . ... : 1-# 00 F ... : ... .. . ... ... : D#5 01 A ... ... : D#4 01 A ... ... : C#4 01 8 P7E ...
ROW 09 : ... .. . ... ... ... : ... .. . ... ... ... : ... .. . ... : ... .. C ... : ... .. . ... ... : ... .. 9 ... ... : ... .. 9 ... ... : C-4 01 8 P7B ...
ROW 0A : ... .. . ... ... ... : ... .. . ... ... ... : ... .. . ... : ... .. 6 ... : ... .. . ... ... : ... .. 8 ... ... : ... .. 8 ... ... : B-3 01 8 P7A ...
ROW 0B : ... .. . ... ... ... : ... .. . ... ... ... : ... .. . ... : ... .. 3 ... : ... .. . ... ... : ... .. 5 ... ... : ... .. 5 ... ... : A#3 01 8 P79 ...
ROW 0C : ... .. . ... ... ... : ... .. . ... ... ... : ... .. . ... : ... .. 2 ... : ... .. . ... ... : ... .. . ... ... : ... .. . ... ... : A-3 01 8 P7A ...
ROW 0D : ... .. . ... ... ... : ... .. . ... ... ... : --- .. . ... : ... .. 0 ... : ... .. . ... ... : ... .. 3 ... ... : ... .. 3 ... ... : G#3 01 8 P7B ...
ROW 0E : ... .. . ... ... ... : ... .. . ... ... ... : D-2 00 . ... : ... .. F ... : ... .. . ... ... : ... .. 6 ... ... : ... .. 6 ... ... : G-3 01 8 P7D ...
ROW 0F : ... .. . ... ... ... : ... .. . ... ... ... : ... .. . ... : ... .. C ... : ... .. . ... ... : ... .. . ... ... : ... .. . ... ... : F#3 01 8 P81 ...
ROW 10 : ... .. . ... ... ... : ... .. . ... ... ... : ... .. . ... : ... .. 6 ... : ... .. . ... ... : ... .. 5 ... ... : ... .. 5 ... ... : F-3 01 8 P85 ...
ROW 11 : ... .. 7 ... ... ... : ... .. 7 ... ... ... : ... .. . ... : ... .. 3 ... : ... .. . ... ... : ... .. 3 ... ... : ... .. 3 ... ... : E-3 01 8 P8B ...
ROW 12 : ... .. . ... ... ... : ... .. . ... ... ... : ... .. . ... : ... .. 2 ... : ... .. . ... ... : ... .. . ... ... : ... .. . ... ... : ... .. . P7B ...
ROW 13 : ... .. . ... ... ... : ... .. . ... ... ... : --- .. . ... : ... .. 0 ... : ... .. . ... ... : ... .. 2 ... ... : ... .. 2 ... ... : D#3 01 8 P82 ...
ROW 14 : ... .. . ... ... ... : ... .. . ... ... ... : D-2 00 . ... : 4-# 00 D ... : ... .. . ... ... : F-5 01 A ... ... : F-4 01 A ... ... : D-3 01 8 P8A ...
ROW 15 : ... .. . ... ... ... : ... .. . ... ... ... : ... .. . ... : ... .. B ... : ... .. . ... ... : ... .. 9 ... ... : ... .. 9 ... ... : ... .. . P7A ...
ROW 16 : ... .. . ... ... ... : ... .. . ... ... ... : ... .. . ... : ... .. . ... : ... .. . ... ... : ... .. 8 ... ... : ... .. 8 ... ... : C#3 01 8 P84 ...
ROW 17 : ... .. . ... ... ... : ... .. . ... ... ... : ... .. . ... : ... .. A ... : ... .. . ... ... : ... .. 5 ... ... : ... .. 5 ... ... : ... .. . P74 ...
ROW 18 : ... .. . ... ... ... : ... .. . ... ... ... : ... .. . ... : ... .. 8 ... : ... .. . ... ... : ... .. . ... ... : ... .. . ... ... : C-3 01 8 P80 ...
ROW 19 : ... .. . ... ... ... : ... .. . ... ... ... : --- .. . ... : ... .. 7 ... : ... .. . ... ... : ... .. 3 ... ... : ... .. 3 ... ... : B-2 01 8 P8D ...
ROW 1A : ... .. 6 ... ... ... : ... .. 6 ... ... ... : D-2 00 . ... : 1-# 00 F ... : ... .. . ... ... : ... .. 6 ... ... : ... .. 6 ... ... : ... .. . P7D ...
ROW 1B : ... .. . ... ... ... : ... .. . ... ... ... : ... .. . ... : ... .. C ... : ... .. . ... ... : ... .. . ... ... : ... .. . ... ... : A#2 01 8 P8B ...
ROW 1C : ... .. . ... ... ... : ... .. . ... ... ... : ... .. . ... : ... .. 6 ... : ... .. . ... ... : ... .. 5 ... ... : ... .. 5 ... ... : ... .. . P7B ...
ROW 1D : ... .. . ... ... ... : ... .. . ... ... ... : ... .. . ... : ... .. 3 ... : ... .. . ... ... : ... .. 3 ... ... : ... .. 3 ... ... : A-2 01 8 P8C ...
ROW 1E : ... .. . ... ... ... : ... .. . ... ... ... : ... .. . ... : ... .. 2 ... : ... .. . ... ... : ... .. . ... ... : ... .. . ... ... : ... .. . P7C ...
ROW 1F : ... .. . ... ... ... : ... .. . ... ... ... : --- .. . ... : ... .. 0 ... : ... .. . ... ... : ... .. 2 ... ... : ... .. 2 ... ... : G#2 01 8 P8F ...
ROW 20 : ... .. . ... ... ... : ... .. . ... ... ... : D-2 00 . ... : ... .. F ... : ... .. . ... ... : B-4 01 A ... ... : B-3 01 A ... ... : A-2 01 A P81 ...
ROW 21 : ... .. . ... ... ... : ... .. . ... ... ... : ... .. . ... : ... .. C ... : ... .. . ... ... : ... .. 9 ... ... : ... .. 9 ... ... : ... .. 8 ... ...
ROW 22 : ... .. . ... ... ... : ... .. . ... ... ... : ... .. . ... : ... .. 0 ... : ... .. . ... ... : ... .. 8 ... ... : ... .. 8 ... ... : ... .. 5 ... ...
ROW 23 : ... .. . ... ... ... : ... .. . ... ... ... : ... .. . ... : ... .. . ... : ... .. . ... ... : ... .. 5 ... ... : ... .. 5 ... ... : ... .. . ... ...
ROW 24 : ... .. . ... ... ... : ... .. . ... ... ... : ... .. . ... : ... .. . ... : ... .. . ... ... : ... .. . ... ... : ... .. . ... ... : ... .. . ... ...
ROW 25 : ... .. . ... ... ... : ... .. . ... ... ... : --- .. . ... : ... .. . ... : ... .. . ... ... : ... .. 3 ... ... : ... .. 3 ... ... : ... .. . ... ...
ROW 26 : ... .. . ... ... ... : ... .. . ... ... ... : D-2 00 . ... : 4-# 00 D ... : ... .. . ... ... : ... .. 6 ... ... : ... .. 6 ... ... : A#2 01 A ... ...
ROW 27 : ... .. . ... ... ... : ... .. . ... ... ... : ... .. . ... : ... .. B ... : ... .. . ... ... : ... .. . ... ... : ... .. . ... ... : ... .. 8 ... ...
ROW 28 : ... .. . ... ... ... : ... .. . ... ... ... : ... .. . ... : ... .. 0 ... : ... .. . ... ... : ... .. 5 ... ... : ... .. 5 ... ... : ... .. 5 ... ...
ROW 29 : ... .. . ... ... ... : ... .. . ... ... ... : ... .. . ... : ... .. . ... : ... .. . ... ... : ... .. 3 ... ... : ... .. 3 ... ... : ... .. . ... ...
ROW 2A : ... .. . ... ... ... : ... .. . ... ... ... : ... .. . ... : ... .. . ... : ... .. . ... ... : ... .. . ... ... : ... .. . ... ... : ... .. . ... ...
ROW 2B : ... .. . ... ... ... : ... .. . ... ... ... : --- .. . ... : ... .. . ... : ... .. . ... ... : ... .. 2 ... ... : ... .. 2 ... ... : ... .. . ... ...
ROW 2C : ... .. . ... ... ... : ... .. . ... ... ... : D-2 00 . ... : 1-# 00 F ... : ... .. . ... ... : C#5 01 A ... ... : C#4 01 A ... ... : D-3 01 A ... ...
ROW 2D : ... .. . ... ... ... : ... .. . ... ... ... : ... .. . ... : ... .. C ... : ... .. . ... ... : ... .. 9 ... ... : ... .. 9 ... ... : ... .. 8 ... ...
ROW 2E : ... .. . ... ... ... : ... .. . ... ... ... : ... .. . ... : ... .. 6 ... : ... .. . ... ... : ... .. 8 ... ... : ... .. 8 ... ... : ... .. 5 ... ...
ROW 2F : ... .. 5 ... ... ... : ... .. 5 ... ... ... : ... .. . ... : ... .. 3 ... : ... .. . ... ... : ... .. 5 ... ... : ... .. 5 ... ... : ... .. . ... ...
ROW 30 : ... .. . ... ... ... : ... .. . ... ... ... : ... .. . ... : ... .. 2 ... : ... .. . ... ... : ... .. . ... ... : ... .. . ... ... : ... .. . ... ...
ROW 31 : ... .. . ... ... ... : ... .. . ... ... ... : --- .. . ... : ... .. 0 ... : ... .. . ... ... : ... .. 3 ... ... : ... .. 3 ... ... : ... .. . ... ...
ROW 32 : ... .. . ... ... ... : ... .. . ... ... ... : D-2 00 . ... : ... .. F ... : ... .. . ... ... : ... .. 6 ... ... : ... .. 6 ... ... : F-3 01 A ... ...
ROW 33 : ... .. . ... ... ... : ... .. . ... ... ... : ... .. . ... : ... .. C ... : ... .. . ... ... : ... .. . ... ... : ... .. . ... ... : ... .. 8 ... ...
ROW 34 : ... .. . ... ... ... : ... .. . ... ... ... : ... .. . ... : ... .. 6 ... : ... .. . ... ... : ... .. 5 ... ... : ... .. 5 ... ... : ... .. 5 ... ...
ROW 35 : ... .. . ... ... ... : ... .. . ... ... ... : ... .. . ... : ... .. 3 ... : ... .. . ... ... : ... .. 3 ... ... : ... .. 3 ... ... : ... .. . ... ...
ROW 36 : ... .. . ... ... ... : ... .. . ... ... ... : ... .. . ... : ... .. 2 ... : ... .. . ... ... : ... .. . ... ... : ... .. . ... ... : ... .. . ... ...
ROW 37 : ... .. . ... ... ... : ... .. . ... ... ... : --- .. . ... : ... .. 0 ... : ... .. . ... ... : ... .. 2 ... ... : ... .. 2 ... ... : ... .. . ... ...
ROW 38 : ... .. . P85 ... ... : ... .. . P86 ... ... : D-2 00 . ... : 4-# 00 D ... : ... .. . ... ... : B-5 01 A ... ... : B-4 01 A ... ... : D-2 01 A ... ...
ROW 39 : ... .. . P87 ... ... : F#3 00 5 P79 ... ... : ... .. . ... : ... .. B ... : ... .. . ... ... : ... .. 9 ... ... : ... .. 9 ... ... : ... .. 8 ... ...
ROW 3A : ... .. . P86 ... ... : ... .. . ... ... ... : ... .. . ... : ... .. . ... : ... .. . ... ... : ... .. 8 ... ... : ... .. 8 ... ... : ... .. 5 ... ...
ROW 3B : ... .. . P83 ... ... : F-3 00 5 P87 ... ... : ... .. . ... : ... .. A ... : ... .. . ... ... : ... .. 5 ... ... : ... .. 5 ... ... : ... .. . ... ...
ROW 3C : ... .. . P7F ... ... : ... .. . P81 ... ... : ... .. . ... : ... .. 8 ... : ... .. . ... ... : ... .. . ... ... : ... .. . ... ... : ... .. . ... ...
ROW 3D : ... .. . P7C ... ... : ... .. . P7C ... ... : --- .. . ... : ... .. 7 ... : ... .. . ... ... : ... .. 3 ... ... : ... .. 3 ... ... : ... .. . ... ...
ROW 3E : ... .. . P7B ... ... : ... .. . P77 ... ... : D-2 00 . ... : 1-# 00 F ... : ... .. . ... ... : ... .. 6 ... ... : ... .. 6 ... ... : E-2 01 A ... ...
ROW 3F : ... .. . P7D ... ... : E-3 00 5 P88 ... ... : ... .. . ... : ... .. C ... : ... .. . ... ... : ... .. . ... ... : ... .. . ... ... : ... .. 8 ... ...
ROW 40 : ... .. . P81 ... ... : F-3 00 5 P77 ... ... : ... .. . ... : ... .. 6 ... : ... .. . ... ... : ... .. 5 ... ... : ... .. 5 ... ... : ... .. 5 ... ...
ROW 41 : ... .. . P84 ... ... : ... .. . P7D ... ... : ... .. . ... : ... .. 3 ... : ... .. . ... ... : ... .. 3 ... ... : ... .. 3 ... ... : ... .. . ... ...
ROW 42 : ... .. . P87 ... ... : ... .. . P82 ... ... : ... .. . ... : ... .. 2 ... : ... .. . ... ... : ... .. . ... ... : ... .. . ... ... : ... .. . ... ...
ROW 43 : ... .. . ... ... ... : ... .. . P88 ... ... : --- .. . ... : ... .. 0 ... : ... .. . ... ... : ... .. 2 ... ... : ... .. 2 ... ... : ... .. . ... ...
ROW 44 : ... .. 6 P83 ... ... : F#3 00 6 P79 ... ... : D-2 00 . ... : ... .. F ... : ... .. . ... ... : F-5 01 A ... ... : F-4 01 A ... ... : F-2 01 A ... ...
ROW 45 : ... .. . P80 ... ... : ... .. . P78 ... ... : ... .. . ... : ... .. C ... : ... .. . ... ... : ... .. 9 ... ... : ... .. 9 ... ... : ... .. 8 ... ...
ROW 46 : ... .. . P7C ... ... : F-3 00 6 P85 ... ... : ... .. . ... : ... .. 6 ... : ... .. . ... ... : ... .. 8 ... ... : ... .. 8 ... ... : ... .. 5 ... ...
ROW 47 : ... .. . P7B ... ... : ... .. . P80 ... ... : ... .. . ... : ... .. 3 ... : ... .. . ... ... : ... .. 5 ... ... : ... .. 5 ... ... : ... .. . ... ...
ROW 48 : ... .. . P7D ... ... : ... .. . P7A ... ... : ... .. . ... : ... .. 2 ... : ... .. . ... ... : ... .. . ... ... : ... .. . ... ... : ... .. . ... ...
ROW 49 : ... .. . P81 ... ... : E-3 00 6 P88 ... ... : --- .. . ... : ... .. 0 ... : ... .. . ... ... : ... .. 3 ... ... : ... .. 3 ... ... : ... .. . ... ...
ROW 4A : ... .. . P84 ... ... : ... .. . ... ... ... : D-2 00 . ... : 4-# 00 D ... : ... .. . ... ... : ... .. 6 ... ... : ... .. 6 ... ... : A-2 01 A ... ...
ROW 4B : ... .. . P87 ... ... : F-3 00 6 P79 ... ... : ... .. . ... : ... .. B ... : ... .. . ... ... : ... .. . ... ... : ... .. . ... ... : ... .. 8 ... ...
ROW 4C : ... .. . ... ... ... : ... .. . P7F ... ... : ... .. . ... : ... .. . ... : ... .. . ... ... : ... .. 5 ... ... : ... .. 5 ... ... : ... .. 5 ... ...
ROW 4D : ... .. . P84 ... ... : ... .. . P84 ... ... : ... .. . ... : ... .. A ... : ... .. . ... ... : ... .. 3 ... ... : ... .. 3 ... ... : ... .. . ... ...
ROW 4E : ... .. . P81 ... ... : ... .. . P89 ... ... : ... .. . ... : ... .. 8 ... : ... .. . ... ... : ... .. . ... ... : ... .. . ... ... : ... .. . ... ...
ROW 4F : ... .. . P7D ... ... : F#3 00 6 P79 ... ... : --- .. . ... : ... .. 7 ... : ... .. . ... ... : ... .. 2 ... ... : ... .. 2 ... ... : ... .. . ... ...
ROW 50 : ... .. . P7B ... ... : F-3 00 6 P89 ... ... : D-2 00 . ... : 1-# 00 F ... : ... .. . ... ... : D#5 01 A ... ... : D#4 01 A ... ... : A#2 01 A ... ...
ROW 51 : ... .. . P7C ... ... : ... .. . P83 ... ... : ... .. . ... : ... .. C ... : ... .. . ... ... : ... .. 9 ... ... : ... .. 9 ... ... : ... .. 8 ... ...
ROW 52 : ... .. . P80 ... ... : ... .. . P7E ... ... : ... .. . ... : ... .. 6 ... : ... .. . ... ... : ... .. 8 ... ... : ... .. 8 ... ... : ... .. 5 ... ...
ROW 53 : ... .. . P83 ... ... : ... .. . P78 ... ... : ... .. . ... : ... .. 3 ... : ... .. . ... ... : ... .. 5 ... ... : ... .. 5 ... ... : ... .. . ... ...
ROW 54 : ... .. . P87 ... ... : E-3 00 6 P88 ... ... : ... .. . ... : ... .. 2 ... : ... .. . ... ... : ... .. . ... ... : ... .. . ... ... : ... .. . ... ...
ROW 55 : ... .. . ... ... ... : ... .. . P89 ... ... : --- .. . ... : ... .. 0 ... : ... .. . ... ... : ... .. 3 ... ... : ... .. 3 ... ... : ... .. . ... ...
ROW 56 : ... .. . P84 ... ... : F-3 00 6 P7B ... ... : D-2 00 . ... : ... .. F ... : ... .. . ... ... : ... .. 6 ... ... : ... .. 6 ... ... : C#3 01 A ... ...
ROW 57 : ... .. . P81 ... ... : ... .. . P80 ... ... : ... .. . ... : ... .. C ... : ... .. . ... ... : ... .. . ... ... : ... .. . ... ... : ... .. 8 ... ...
ROW 58 : ... .. . P7D ... ... : ... .. . P86 ... ... : ... .. . ... : ... .. 6 ... : ... .. . ... ... : ... .. 5 ... ... : ... .. 5 ... ... : ... .. 5 ... ...
ROW 59 : ... .. 7 P7B ... ... : F#3 00 7 P79 ... ... : ... .. . ... : ... .. 3 ... : ... .. . ... ... : ... .. 3 ... ... : ... .. 3 ... ... : ... .. . ... ...
ROW 5A : ... .. . P7C ... ... : ... .. . ... ... ... : ... .. . ... : ... .. 2 ... : ... .. . ... ... : ... .. . ... ... : ... .. . ... ... : ... .. . ... ...
ROW 5B : ... .. . P7F ... ... : F-3 00 7 P87 ... ... : --- .. . ... : ... .. 0 ... : ... .. . ... ... : ... .. 2 ... ... : ... .. 2 ... ... : ... .. . ... ...
ROW 5C : ... .. . P83 ... ... : ... .. . P81 ... ... : D-2 00 . ... : 4-# 00 D ... : ... .. . ... ... : F-5 01 A ... ... : F-4 01 A ... ... : E-2 01 A ... ...
ROW 5D : ... .. . P86 ... ... : ... .. . P7C ... ... : ... .. . ... : ... .. B ... : ... .. . ... ... : ... .. 9 ... ... : ... .. 9 ... ... : ... .. 8 ... ...
ROW 5E : ... .. . P87 ... ... : ... .. . P77 ... ... : ... .. . ... : ... .. . ... : ... .. . ... ... : ... .. 8 ... ... : ... .. 8 ... ... : ... .. 5 ... ...
ROW 5F : ... .. . P85 ... ... : E-3 00 7 P88 ... ... : ... .. . ... : ... .. A ... : ... .. . ... ... : ... .. 5 ... ... : ... .. 5 ... ... : ... .. . ... ...
ROW 60 : ... .. . P81 ... ... : F-3 00 7 P77 ... ... : ... .. . ... : ... .. 8 ... : ... .. . ... ... : ... .. . ... ... : ... .. . ... ... : ... .. . ... ...
ROW 61 : ... .. . P7E ... ... : ... .. . P7D ... ... : --- .. . ... : ... .. 7 ... : ... .. . ... ... : ... .. 3 ... ... : ... .. 3 ... ... : ... .. . ... ...
ROW 62 : ... .. 8 P7B ... ... : ... .. 8 P82 ... ... : D-2 00 . ... : 1-# 00 F ... : ... .. . ... ... : ... .. 6 ... ... : ... .. 6 ... ... : F-2 01 A ... ...
ROW 63 : ... .. . ... ... ... : ... .. . P88 ... ... : ... .. . ... : ... .. C ... : ... .. . ... ... : ... .. . ... ... : ... .. . ... ... : ... .. 8 ... ...
ROW 64 : ... .. . P7F ... ... : F#3 00 8 P79 ... ... : ... .. . ... : ... .. 6 ... : ... .. . ... ... : ... .. 5 ... ... : ... .. 5 ... ... : ... .. 5 ... ...
ROW 65 : ... .. . P82 ... ... : ... .. . P78 ... ... : ... .. . ... : ... .. 3 ... : ... .. . ... ... : ... .. 3 ... ... : ... .. 3 ... ... : ... .. . ... ...
ROW 66 : ... .. . P86 ... ... : F-3 00 8 P85 ... ... : ... .. . ... : ... .. 2 ... : ... .. . ... ... : ... .. . ... ... : ... .. . ... ... : ... .. . ... ...
ROW 67 : ... .. . P87 ... ... : ... .. . P80 ... ... : --- .. . ... : ... .. 0 ... : ... .. . ... ... : ... .. 2 ... ... : ... .. 2 ... ... : ... .. . ... ...
ROW 68 : ... .. . P85 ... ... : ... .. . P7A ... ... : D-2 00 . ... : 4-# 00 D ... : ... .. . ... ... : F#4 01 A ... ... : F#3 01 A ... ... : A-2 01 A ... ...
ROW 69 : ... .. . P81 ... ... : E-3 00 8 P88 ... ... : ... .. . ... : ... .. B ... : ... .. . ... ... : ... .. 9 ... ... : ... .. 9 ... ... : ... .. 8 ... ...
ROW 6A : ... .. . P7E ... ... : ... .. . ... ... ... : ... .. . ... : ... .. . ... : ... .. . ... ... : ... .. 8 ... ... : ... .. 8 ... ... : ... .. 5 ... ...
ROW 6B : ... .. . P7B ... ... : F-3 00 8 P79 ... ... : ... .. . ... : ... .. A ... : ... .. . ... ... : ... .. 5 ... ... : ... .. 5 ... ... : ... .. . ... ...
ROW 6C : ... .. . ... ... ... : ... .. . P7F ... ... : ... .. . ... : ... .. 8 ... : ... .. . ... ... : ... .. . ... ... : ... .. . ... ... : ... .. . ... ...
ROW 6D : ... .. . P7E ... ... : ... .. . P84 ... ... : --- .. . ... : ... .. 7 ... : ... .. . ... ... : ... .. 3 ... ... : ... .. 3 ... ... : ... .. . ... ...
ROW 6E : ... .. . P81 ... ... : ... .. . P89 ... ... : D-2 00 . ... : 1-# 00 F ... : ... .. . ... ... : ... .. 6 ... ... : ... .. 6 ... ... : A#2 01 A ... ...
ROW 6F : ... .. . P85 ... ... : F#3 00 8 P79 ... ... : ... .. . ... : ... .. C ... : ... .. . ... ... : ... .. . ... ... : ... .. . ... ... : ... .. 8 ... ...
ROW 70 : ... .. . P87 ... ... : F-3 00 8 P89 ... ... : ... .. . ... : ... .. 6 ... : ... .. . ... ... : ... .. 5 ... ... : ... .. 5 ... ... : ... .. 5 ... ...
ROW 71 : ... .. . P86 ... ... : ... .. . P83 ... ... : ... .. . ... : ... .. 3 ... : ... .. . ... ... : ... .. 3 ... ... : ... .. 3 ... ... : ... .. . ... ...
ROW 72 : ... .. . P82 ... ... : ... .. . P7E ... ... : ... .. . ... : ... .. 2 ... : ... .. . ... ... : ... .. . ... ... : ... .. . ... ... : ... .. . ... ...
ROW 73 : ... .. . P7F ... ... : ... .. . P78 ... ... : --- .. . ... : ... .. 0 ... : ... .. . ... ... : ... .. 2 ... ... : ... .. 2 ... ... : ... .. . ... ...
ROW 74 : ... .. . P7B ... ... : E-3 00 8 P88 ... ... : D-2 00 . ... : 4-# 00 D ... : ... .. . ... ... : G#4 01 A ... ... : G#3 01 A ... ... : D-3 01 A ... ...
ROW 75 : ... .. . ... ... ... : ... .. . P89 ... ... : ... .. . ... : ... .. B ... : ... .. . ... ... : ... .. 9 ... ... : ... .. 9 ... ... : ... .. 8 ... ...
ROW 76 : ... .. . P7E ... ... : F-3 00 8 P7B ... ... : ... .. . ... : ... .. . ... : ... .. . ... ... : ... .. 8 ... ... : ... .. 8 ... ... : ... .. 5 ... ...
ROW 77 : ... .. 9 P81 ... ... : ... .. 9 P80 ... ... : ... .. . ... : ... .. A ... : ... .. . ... ... : ... .. 5 ... ... : ... .. 5 ... ... : ... .. . ... ...
ROW 78 : ... .. . P85 ... ... : ... .. . P86 ... ... : ... .. . ... : ... .. 8 ... : ... .. . ... ... : ... .. . ... ... : ... .. . ... ... : ... .. . ... ...
ROW 79 : ... .. . P87 ... ... : F#3 00 9 P79 ... ... : --- .. . ... : ... .. 7 ... : ... .. . ... ... : ... .. 3 ... ... : ... .. 3 ... ... : ... .. . ... ...
ROW 7A : ... .. . P86 ... ... : ... .. . ... ... ... : D-2 00 . ... : 1-# 00 F ... : ... .. . ... ... : ... .. 6 ... ... : ... .. 6 ... ... : F-3 01 A ... ...
ROW 7B : ... .. . P83 ... ... : F-3 00 9 P87 ... ... : ... .. . ... : ... .. C ... : ... .. . ... ... : ... .. . ... ... : ... .. . ... ... : ... .. 8 ... ...
ROW 7C : ... .. . P7F ... ... : ... .. . P81 ... ... : ... .. . ... : ... .. 6 ... : ... .. . ... ... : ... .. 5 ... ... : ... .. 5 ... ... : ... .. 5 ... ...
ROW 7D : ... .. . P7C ... ... : ... .. . P7C ... ... : ... .. . ... : ... .. 3 ... : ... .. . ... ... : ... .. 3 ... ... : ... .. 3 ... ... : ... .. . ... ...
ROW 7E : ... .. . P7B ... ... : ... .. . P77 ... ... : ... .. . ... : ... .. 2 ... : ... .. . ... ... : ... .. . ... ... : ... .. . ... ... : ... .. . ... ...
ROW 7F : ... .. . P7D ... ... : E-3 00 9 P88 ... ... : --- .. . ... : ... .. 0 ... : ... .. . ... ... : ... .. 2 ... ... : ... .. 2 ... ... : ... .. . ... ...
ROW 80 : F-2 00 F P81 ... ... : G#3 00 F P80 ... ... : E-4 00 . ... : D-# 00 F ... : ... .. . ... ... : B-5 01 A ... ... : B-4 01 A ... ... : F-4 01 F ... ...
ROW 81 : ... .. E ... ... ... : ... .. E ... ... ... : F#3 00 . ... : ... .. . ... : ... .. . ... ... : ... .. 9 ... ... : ... .. 9 ... ... : ... .. D ... ...
ROW 82 : ... .. D ... ... ... : ... .. D ... ... ... : B-2 00 . ... : ... .. . ... : ... .. . ... ... : ... .. 8 ... ... : ... .. 8 ... ... : ... .. 8 ... ...
ROW 83 : ... .. 9 ... ... ... : ... .. 9 ... ... ... : A#2 00 . ... : C-# 00 D ... : ... .. . ... ... : ... .. 5 ... ... : ... .. 5 ... ... : ... .. . ... ...
ROW 84 : ... .. . ... ... ... : ... .. . ... ... ... : F-2 00 . ... : ... .. . ... : ... .. . ... ... : ... .. . ... ... : ... .. . ... ... : ... .. . ... ...
ROW 85 : ... .. . ... ... ... : ... .. . ... ... ... : --- .. . ... : ... .. . ... : ... .. . ... ... : ... .. 3 ... ... : ... .. 3 ... ... : ... .. . ... ...
ROW 86 : ... .. . ... ... ... : ... .. . ... ... ... : F-2 00 . ... : B-# 00 B ... : ... .. . ... ... : ... .. 6 ... ... : ... .. 6 ... ... : ... .. . ... ...
ROW 87 : ... .. . ... ... ... : ... .. . ... ... ... : ... .. . ... : ... .. . ... : ... .. . ... ... : ... .. . ... ... : ... .. . ... ... : ... .. . ... ...
ROW 88 : ... .. . ... ... ... : ... .. . ... ... ... : ... .. . ... : ... .. . ... : ... .. . ... ... : ... .. 5 ... ... : ... .. 5 ... ... : ... .. . ... ...
ROW 89 : ... .. . ... ... ... : ... .. . ... ... ... : ... .. . ... : ... .. 9 ... : ... .. . ... ... : ... .. 3 ... ... : ... .. 3 ... ... : ... .. . ... ...
ROW 8A : ... .. . ... ... ... : ... .. . ... ... ... : ... .. . ... : ... .. . ... : ... .. . ... ... : ... .. . ... ... : ... .. . ... ... : ... .. . ... ...
ROW 8B : ... .. . ... ... ... : ... .. . ... ... ... : --- .. . ... : ... .. . ... : ... .. . ... ... : ... .. 2 ... ... : ... .. 2 ... ... : ... .. . ... ...
ROW 8C : ... .. 8 ... ... ... : ... .. 8 ... ... ... : F-2 00 . ... : ... .. 7 ... : ... .. . ... ... : F-5 01 A ... ... : F-4 01 A ... ... : ... .. . ... ...
ROW 8D : ... .. . ... ... ... : ... .. . ... ... ... : ... .. . ... : ... .. . ... : ... .. . ... ... : ... .. 9 ... ... : ... .. 9 ... ... : ... .. . ... ...
ROW 8E : ... .. . ... ... ... : ... .. . ... ... ... : ... .. . ... : ... .. . ... : ... .. . ... ... : ... .. 8 ... ... : ... .. 8 ... ... : ... .. . ... ...
ROW 8F : ... .. . ... ... ... : ... .. . ... ... ... : ... .. . ... : ... .. 5 ... : ... .. . ... ... : ... .. 5 ... ... : ... .. 5 ... ... : ... .. . ... ...
ROW 90 : ... .. . ... ... ... : ... .. . ... ... ... : ... .. . ... : ... .. . ... : ... .. . ... ... : ... .. . ... ... : ... .. . ... ... : ... .. . ... ...
ROW 91 : ... .. . ... ... ... : ... .. . ... ... ... : --- .. . ... : ... .. . ... : ... .. . ... ... : ... .. 3 ... ... : ... .. 3 ... ... : ... .. . ... ...
ROW 92 : ... .. . ... ... ... : ... .. . ... ... ... : F-2 00 . ... : 4-# 00 D ... : ... .. . ... ... : ... .. 6 ... ... : ... .. 6 ... ... : ... .. . ... ...
ROW 93 : ... .. . ... ... ... : ... .. . ... ... ... : ... .. . ... : ... .. B ... : ... .. . ... ... : ... .. . ... ... : ... .. . ... ... : ... .. . ... ...
ROW 94 : ... .. . ... ... ... : ... .. . ... ... ... : ... .. . ... : ... .. . ... : ... .. . ... ... : ... .. 5 ... ... : ... .. 5 ... ... : ... .. . ... ...
ROW 95 : ... .. . ... ... ... : ... .. . ... ... ... : ... .. . ... : ... .. A ... : ... .. . ... ... : ... .. 3 ... ... : ... .. 3 ... ... : ... .. . ... ...
ROW 96 : ... .. . ... ... ... : ... .. . ... ... ... : ... .. . ... : ... .. 8 ... : ... .. . ... ... : ... .. . ... ... : ... .. . ... ... : ... .. . ... ...
ROW 97 : ... .. . ... ... ... : ... .. . ... ... ... : --- .. . ... : ... .. 7 ... : ... .. . ... ... : ... .. 2 ... ... : ... .. 2 ... ... : ... .. . ... ...
ROW 98 : ... .. . ... ... ... : ... .. . ... ... ... : F-2 00 . ... : 1-# 00 F ... : ... .. . ... ... : D#5 01 A ... ... : D#4 01 A ... ... : E-4 01 8 P7C ...
ROW 99 : ... .. . ... ... ... : ... .. . ... ... ... : ... .. . ... : ... .. C ... : ... .. . ... ... : ... .. 9 ... ... : ... .. 9 ... ... : D-4 01 8 P84 ...
ROW 9A : ... .. . ... ... ... : ... .. . ... ... ... : ... .. . ... : ... .. 6 ... : ... .. . ... ... : ... .. 8 ... ... : ... .. 8 ... ... : C#4 01 8 P81 ...
ROW 9B : ... .. . ... ... ... : ... .. . ... ... ... : ... .. . ... : ... .. 3 ... : ... .. . ... ... : ... .. 5 ... ... : ... .. 5 ... ... : C-4 01 8 P7E ...
ROW 9C : ... .. . ... ... ... : ... .. . ... ... ... : ... .. . ... : ... .. 2 ... : ... .. . ... ... : ... .. . ... ... : ... .. . ... ... : B-3 01 8 P7D ...
ROW 9D : ... .. . ... ... ... : ... .. . ... ... ... : --- .. . ... : ... .. 0 ... : ... .. . ... ... : ... .. 3 ... ... : ... .. 3 ... ... : A#3 01 8 P7C ...
ROW 9E : ... .. . ... ... ... : ... .. . ... ... ... : F-2 00 . ... : ... .. F ... : ... .. . ... ... : ... .. 6 ... ... : ... .. 6 ... ... : A-3 01 8 P7D ...
ROW 9F : ... .. . ... ... ... : ... .. . ... ... ... : ... .. . ... : ... .. C ... : ... .. . ... ... : ... .. . ... ... : ... .. . ... ... : G#3 01 8 P7E ...
ROW A0 : ... .. . ... ... ... : ... .. . ... ... ... : ... .. . ... : ... .. 6 ... : ... .. . ... ... : ... .. 5 ... ... : ... .. 5 ... ... : G-3 01 8 P80 ...
ROW A1 : ... .. 7 ... ... ... : ... .. 7 ... ... ... : ... .. . ... : ... .. 3 ... : ... .. . ... ... : ... .. 3 ... ... : ... .. 3 ... ... : F#3 01 8 P84 ...
ROW A2 : ... .. . ... ... ... : ... .. . ... ... ... : ... .. . ... : ... .. 2 ... : ... .. . ... ... : ... .. . ... ... : ... .. . ... ... : F-3 01 8 P88 ...
ROW A3 : ... .. . ... ... ... : ... .. . ... ... ... : --- .. . ... : ... .. 0 ... : ... .. . ... ... : ... .. 2 ... ... : ... .. 2 ... ... : ... .. . P78 ...
ROW A4 : ... .. . ... ... ... : ... .. . ... ... ... : F-2 00 . ... : 4-# 00 D ... : ... .. . ... ... : F-5 01 A ... ... : F-4 01 A ... ... : E-3 01 8 P7E ...
ROW A5 : ... .. . ... ... ... : ... .. . ... ... ... : ... .. . ... : ... .. B ... : ... .. . ... ... : ... .. 9 ... ... : ... .. 9 ... ... : D#3 01 8 P85 ...
ROW A6 : ... .. . ... ... ... : ... .. . ... ... ... : ... .. . ... : ... .. . ... : ... .. . ... ... : ... .. 8 ... ... : ... .. 8 ... ... : ... .. . P75 ...
ROW A7 : ... .. . ... ... ... : ... .. . ... ... ... : ... .. . ... : ... .. A ... : ... .. . ... ... : ... .. 5 ... ... : ... .. 5 ... ... : D-3 01 8 P7D ...
ROW A8 : ... .. . ... ... ... : ... .. . ... ... ... : ... .. . ... : ... .. 8 ... : ... .. . ... ... : ... .. . ... ... : ... .. . ... ... : C#3 01 8 P87 ...
ROW A9 : ... .. . ... ... ... : ... .. . ... ... ... : --- .. . ... : ... .. 7 ... : ... .. . ... ... : ... .. 3 ... ... : ... .. 3 ... ... : ... .. . P77 ...
ROW AA : ... .. 6 ... ... ... : ... .. 6 ... ... ... : F-2 00 . ... : 1-# 00 F ... : ... .. . ... ... : ... .. 6 ... ... : ... .. 6 ... ... : C-3 01 8 P83 ...
ROW AB : ... .. . ... ... ... : ... .. . ... ... ... : ... .. . ... : ... .. C ... : ... .. . ... ... : ... .. . ... ... : ... .. . ... ... : ... .. . P73 ...
ROW AC : ... .. . ... ... ... : ... .. . ... ... ... : ... .. . ... : ... .. 6 ... : ... .. . ... ... : ... .. 5 ... ... : ... .. 5 ... ... : B-2 01 8 P80 ...
ROW AD : ... .. . ... ... ... : ... .. . ... ... ... : ... .. . ... : ... .. 3 ... : ... .. . ... ... : ... .. 3 ... ... : ... .. 3 ... ... : A#2 01 8 P8E ...
ROW AE : ... .. . ... ... ... : ... .. . ... ... ... : ... .. . ... : ... .. 2 ... : ... .. . ... ... : ... .. . ... ... : ... .. . ... ... : ... .. . P7E ...
ROW AF : ... .. . ... ... ... : ... .. . ... ... ... : --- .. . ... : ... .. 0 ... : ... .. . ... ... : ... .. 2 ... ... : ... .. 2 ... ... : A-2 01 8 P8F ...
ROW B0 : ... .. . ... ... ... : ... .. . ... ... ... : F-2 00 . ... : ... .. F ... : ... .. . ... ... : B-4 01 A ... ... : B-3 01 A ... ... : C-3 01 A P81 ...
ROW B1 : ... .. . ... ... ... : ... .. . ... ... ... : ... .. . ... : ... .. C ... : ... .. . ... ... : ... .. 9 ... ... : ... .. 9 ... ... : ... .. 8 ... ...
ROW B2 : ... .. . ... ... ... : ... .. . ... ... ... : ... .. . ... : ... .. 6 ... : ... .. . ... ... : ... .. 8 ... ... : ... .. 8 ... ... : ... .. 5 ... ...
ROW B3 : ... .. . ... ... ... : ... .. . ... ... ... : ... .. . ... : ... .. 3 ... : ... .. . ... ... : ... .. 5 ... ... : ... .. 5 ... ... : ... .. . ... ...
ROW B4 : ... .. . ... ... ... : ... .. . ... ... ... : ... .. . ... : ... .. 2 ... : ... .. . ... ... : ... .. . ... ... : ... .. . ... ... : ... .. . ... ...
ROW B5 : ... .. . ... ... ... : ... .. . ... ... ... : --- .. . ... : ... .. 0 ... : ... .. . ... ... : ... .. 3 ... ... : ... .. 3 ... ... : ... .. . ... ...
ROW B6 : ... .. . ... ... ... : ... .. . ... ... ... : F-2 00 . ... : 4-# 00 D ... : ... .. . ... ... : ... .. 6 ... ... : ... .. 6 ... ... : C#3 01 A ... ...
ROW B7 : ... .. . ... ... ... : ... .. . ... ... ... : ... .. . ... : ... .. B ... : ... .. . ... ... : ... .. . ... ... : ... .. . ... ... : ... .. 8 ... ...
ROW B8 : ... .. . ... ... ... : ... .. . ... ... ... : ... .. . ... : ... .. . ... : ... .. . ... ... : ... .. 5 ... ... : ... .. 5 ... ... : ... .. 5 ... ...
ROW B9 : ... .. . ... ... ... : ... .. . ... ... ... : ... .. . ... : ... .. A ... : ... .. . ... ... : ... .. 3 ... ... : ... .. 3 ... ... : ... .. . ... ...
ROW BA : ... .. . ... ... ... : ... .. . ... ... ... : ... .. . ... : ... .. 8 ... : ... .. . ... ... : ... .. . ... ... : ... .. . ... ... : ... .. . ... ...
ROW BB : ... .. . ... ... ... : ... .. . ... ... ... : --- .. . ... : ... .. 7 ... : ... .. . ... ... : ... .. 2 ... ... : ... .. 2 ... ... : ... .. . ... ...
ROW BC : ... .. . ... ... ... : ... .. . ... ... ... : F-2 00 . ... : 1-# 00 F ... : ... .. . ... ... : C#5 01 A ... ... : C#4 01 A ... ... : F-3 01 A ... ...
ROW BD : ... .. . ... ... ... : ... .. . ... ... ... : ... .. . ... : ... .. C ... : ... .. . ... ... : ... .. 9 ... ... : ... .. 9 ... ... : ... .. 8 ... ...
ROW BE : ... .. . ... ... ... : ... .. . ... ... ... : ... .. . ... : ... .. 6 ... : ... .. . ... ... : ... .. 8 ... ... : ... .. 8 ... ... : ... .. 5 ... ...
ROW BF : ... .. 5 ... ... ... : ... .. 5 ... ... ... : ... .. . ... : ... .. 3 ... : ... .. . ... ... : ... .. 5 ... ... : ... .. 5 ... ... : ... .. . ... ...
ROW C0 : ... .. . ... ... ... : ... .. . ... ... ... : ... .. . ... : ... .. 2 ... : ... .. . ... ... : ... .. . ... ... : ... .. . ... ... : ... .. . ... ...
ROW C1 : ... .. . ... ... ... : ... .. . ... ... ... : --- .. . ... : ... .. 0 ... : ... .. . ... ... : ... .. 3 ... ... : ... .. 3 ... ... : ... .. . ... ...
ROW C2 : ... .. . ... ... ... : ... .. . ... ... ... : F-2 00 . ... : ... .. F ... : ... .. . ... ... : ... .. 6 ... ... : ... .. 6 ... ... : G#3 01 A ... ...
ROW C3 : ... .. . ... ... ... : ... .. . ... ... ... : ... .. . ... : ... .. C ... : ... .. . ... ... : ... .. . ... ... : ... .. . ... ... : ... .. 8 ... ...
ROW C4 : ... .. . ... ... ... : ... .. . ... ... ... : ... .. . ... : ... .. 6 ... : ... .. . ... ... : ... .. 5 ... ... : ... .. 5 ... ... : ... .. 5 ... ...
ROW C5 : ... .. . ... ... ... : ... .. . ... ... ... : ... .. . ... : ... .. 3 ... : ... .. . ... ... : ... .. 3 ... ... : ... .. 3 ... ... : ... .. . ... ...
ROW C6 : ... .. . ... ... ... : ... .. . ... ... ... : ... .. . ... : ... .. 2 ... : ... .. . ... ... : ... .. . ... ... : ... .. . ... ... : ... .. . ... ...
ROW C7 : ... .. . ... ... ... : ... .. . ... ... ... : --- .. . ... : ... .. 0 ... : ... .. . ... ... : ... .. 2 ... ... : ... .. 2 ... ... : ... .. . ... ...
ROW C8 : ... .. . P85 ... ... : ... .. . P86 ... ... : F-2 00 . ... : 4-# 00 D ... : ... .. . ... ... : B-5 01 A ... ... : B-4 01 A ... ... : F-2 01 A ... ...
ROW C9 : ... .. . P87 ... ... : A-3 00 5 P7C ... ... : ... .. . ... : ... .. B ... : ... .. . ... ... : ... .. 9 ... ... : ... .. 9 ... ... : ... .. 8 ... ...
ROW CA : ... .. . P86 ... ... : ... .. . ... ... ... : ... .. . ... : ... .. . ... : ... .. . ... ... : ... .. 8 ... ... : ... .. 8 ... ... : ... .. 5 ... ...
ROW CB : ... .. . P83 ... ... : G#3 00 5 P87 ... ... : ... .. . ... : ... .. A ... : ... .. . ... ... : ... .. 5 ... ... : ... .. 5 ... ... : ... .. . ... ...
ROW CC : ... .. . P7F ... ... : ... .. . P81 ... ... : ... .. . ... : ... .. 8 ... : ... .. . ... ... : ... .. . ... ... : ... .. . ... ... : ... .. . ... ...
ROW CD : ... .. . P7C ... ... : ... .. . P7C ... ... : --- .. . ... : ... .. 7 ... : ... .. . ... ... : ... .. 3 ... ... : ... .. 3 ... ... : ... .. . ... ...
ROW CE : ... .. . P7B ... ... : G-3 00 5 P87 ... ... : F-2 00 . ... : 1-# 00 F ... : ... .. . ... ... : ... .. 6 ... ... : ... .. 6 ... ... : G-2 01 A ... ...
ROW CF : ... .. . P7D ... ... : ... .. . P85 ... ... : ... .. . ... : ... .. C ... : ... .. . ... ... : ... .. . ... ... : ... .. . ... ... : ... .. 8 ... ...
ROW D0 : ... .. . P81 ... ... : ... .. . P87 ... ... : ... .. . ... : ... .. 6 ... : ... .. . ... ... : ... .. 5 ... ... : ... .. 5 ... ... : ... .. 5 ... ...
ROW D1 : ... .. . P84 ... ... : G#3 00 5 P7D ... ... : ... .. . ... : ... .. 3 ... : ... .. . ... ... : ... .. 3 ... ... : ... .. 3 ... ... : ... .. . ... ...
ROW D2 : ... .. . P87 ... ... : ... .. . P82 ... ... : ... .. . ... : ... .. 2 ... : ... .. . ... ... : ... .. . ... ... : ... .. . ... ... : ... .. . ... ...
ROW D3 : ... .. . ... ... ... : A-3 00 5 P79 ... ... : --- .. . ... : ... .. 0 ... : ... .. . ... ... : ... .. 2 ... ... : ... .. 2 ... ... : ... .. . ... ...
ROW D4 : ... .. 6 P83 ... ... : ... .. 6 P7C ... ... : F-2 00 . ... : ... .. F ... : ... .. . ... ... : F-5 01 A ... ... : F-4 01 A ... ... : G#2 01 A ... ...
ROW D5 : ... .. . P80 ... ... : ... .. . P7B ... ... : ... .. . ... : ... .. C ... : ... .. . ... ... : ... .. 9 ... ... : ... .. 9 ... ... : ... .. 8 ... ...
ROW D6 : ... .. . P7C ... ... : G#3 00 6 P85 ... ... : ... .. . ... : ... .. 6 ... : ... .. . ... ... : ... .. 8 ... ... : ... .. 8 ... ... : ... .. 5 ... ...
ROW D7 : ... .. . P7B ... ... : ... .. . P80 ... ... : ... .. . ... : ... .. 3 ... : ... .. . ... ... : ... .. 5 ... ... : ... .. 5 ... ... : ... .. . ... ...
ROW D8 : ... .. . P7D ... ... : ... .. . P7A ... ... : ... .. . ... : ... .. 2 ... : ... .. . ... ... : ... .. . ... ... : ... .. . ... ... : ... .. . ... ...
ROW D9 : ... .. . P81 ... ... : G-3 00 6 P85 ... ... : --- .. . ... : ... .. 0 ... : ... .. . ... ... : ... .. 3 ... ... : ... .. 3 ... ... : ... .. . ... ...
ROW DA : ... .. . P84 ... ... : ... .. . ... ... ... : F-2 00 . ... : 4-# 00 D ... : ... .. . ... ... : ... .. 6 ... ... : ... .. 6 ... ... : C-3 01 A ... ...
ROW DB : ... .. . P87 ... ... : G#3 00 6 P79 ... ... : ... .. . ... : ... .. B ... : ... .. . ... ... : ... .. . ... ... : ... .. . ... ... : ... .. 8 ... ...
ROW DC : ... .. . ... ... ... : ... .. . P7F ... ... : ... .. . ... : ... .. . ... : ... .. . ... ... : ... .. 5 ... ... : ... .. 5 ... ... : ... .. 5 ... ...
ROW DD : ... .. . P84 ... ... : ... .. . P84 ... ... : ... .. . ... : ... .. A ... : ... .. . ... ... : ... .. 3 ... ... : ... .. 3 ... ... : ... .. . ... ...
ROW DE : ... .. . P81 ... ... : A-3 00 6 P7A ... ... : ... .. . ... : ... .. 8 ... : ... .. . ... ... : ... .. . ... ... : ... .. . ... ... : ... .. . ... ...
ROW DF : ... .. . P7D ... ... : ... .. . P7C ... ... : --- .. . ... : ... .. 7 ... : ... .. . ... ... : ... .. 2 ... ... : ... .. 2 ... ... : ... .. . ... ...
ROW E0 : ... .. . P7B ... ... : ... .. . P7A ... ... : F-2 00 . ... : 1-# 00 F ... : ... .. . ... ... : D#5 01 A ... ... : D#4 01 A ... ... : C#3 01 A ... ...
ROW E1 : ... .. . P7C ... ... : G#3 00 6 P83 ... ... : ... .. . ... : ... .. C ... : ... .. . ... ... : ... .. 9 ... ... : ... .. 9 ... ... : ... .. 8 ... ...
ROW E2 : ... .. . P80 ... ... : ... .. . P7E ... ... : ... .. . ... : ... .. 6 ... : ... .. . ... ... : ... .. 8 ... ... : ... .. 8 ... ... : ... .. 5 ... ...
ROW E3 : ... .. . P83 ... ... : G-3 00 6 P88 ... ... : ... .. . ... : ... .. 3 ... : ... .. . ... ... : ... .. 5 ... ... : ... .. 5 ... ... : ... .. . ... ...
ROW E4 : ... .. . P87 ... ... : ... .. . P85 ... ... : ... .. . ... : ... .. 2 ... : ... .. . ... ... : ... .. . ... ... : ... .. . ... ... : ... .. . ... ...
ROW E5 : ... .. . ... ... ... : ... .. . P86 ... ... : --- .. . ... : ... .. 0 ... : ... .. . ... ... : ... .. 3 ... ... : ... .. 3 ... ... : ... .. . ... ...
ROW E6 : ... .. . P84 ... ... : G#3 00 6 P7B ... ... : F-2 00 . ... : ... .. F ... : ... .. . ... ... : ... .. 6 ... ... : ... .. 6 ... ... : E-3 01 A ... ...
ROW E7 : ... .. . P81 ... ... : ... .. . P80 ... ... : ... .. . ... : ... .. C ... : ... .. . ... ... : ... .. . ... ... : ... .. . ... ... : ... .. 8 ... ...
ROW E8 : ... .. . P7D ... ... : ... .. . P86 ... ... : ... .. . ... : ... .. 6 ... : ... .. . ... ... : ... .. 5 ... ... : ... .. 5 ... ... : ... .. 5 ... ...
ROW E9 : ... .. 7 P7B ... ... : A-3 00 7 P7C ... ... : ... .. . ... : ... .. 3 ... : ... .. . ... ... : ... .. 3 ... ... : ... .. 3 ... ... : ... .. . ... ...
ROW EA : ... .. . P7C ... ... : ... .. . ... ... ... : ... .. . ... : ... .. 2 ... : ... .. . ... ... : ... .. . ... ... : ... .. . ... ... : ... .. . ... ...
ROW EB : ... .. . P7F ... ... : G#3 00 7 P87 ... ... : --- .. . ... : ... .. 0 ... : ... .. . ... ... : ... .. 2 ... ... : ... .. 2 ... ... : ... .. . ... ...
ROW EC : ... .. . P83 ... ... : ... .. . P81 ... ... : F-2 00 . ... : 4-# 00 D ... : ... .. . ... ... : F-5 01 A ... ... : F-4 01 A ... ... : G-2 01 A ... ...
ROW ED : ... .. . P86 ... ... : ... .. . P7C ... ... : ... .. . ... : ... .. B ... : ... .. . ... ... : ... .. 9 ... ... : ... .. 9 ... ... : ... .. 8 ... ...
ROW EE : ... .. . P87 ... ... : G-3 00 7 P87 ... ... : ... .. . ... : ... .. . ... : ... .. . ... ... : ... .. 8 ... ... : ... .. 8 ... ... : ... .. 5 ... ...
ROW EF : ... .. . P85 ... ... : ... .. . P85 ... ... : ... .. . ... : ... .. A ... : ... .. . ... ... : ... .. 5 ... ... : ... .. 5 ... ... : ... .. . ... ...
ROW F0 : ... .. . P81 ... ... : ... .. . P87 ... ... : ... .. . ... : ... .. 8 ... : ... .. . ... ... : ... .. . ... ... : ... .. . ... ... : ... .. . ... ...
ROW F1 : ... .. . P7E ... ... : G#3 00 7 P7D ... ... : --- .. . ... : ... .. 7 ... : ... .. . ... ... : ... .. 3 ... ... : ... .. 3 ... ... : ... .. . ... ...
ROW F2 : ... .. 8 P7B ... ... : ... .. 8 P82 ... ... : F-2 00 . ... : 1-# 00 F ... : ... .. . ... ... : ... .. 6 ... ... : ... .. 6 ... ... : G#2 01 A ... ...
ROW F3 : ... .. . ... ... ... : A-3 00 8 P79 ... ... : ... .. . ... : ... .. C ... : ... .. . ... ... : ... .. . ... ... : ... .. . ... ... : ... .. 8 ... ...
ROW F4 : ... .. . P7F ... ... : ... .. . P7C ... ... : ... .. . ... : ... .. 6 ... : ... .. . ... ... : ... .. 5 ... ... : ... .. 5 ... ... : ... .. 5 ... ...
ROW F5 : ... .. . P82 ... ... : ... .. . P7B ... ... : ... .. . ... : ... .. 3 ... : ... .. . ... ... : ... .. 3 ... ... : ... .. 3 ... ... : ... .. . ... ...
ROW F6 : ... .. . P86 ... ... : G#3 00 8 P85 ... ... : ... .. . ... : ... .. 2 ... : ... .. . ... ... : ... .. . ... ... : ... .. . ... ... : ... .. . ... ...
ROW F7 : ... .. . P87 ... ... : ... .. . P80 ... ... : --- .. . ... : ... .. 0 ... : ... .. . ... ... : ... .. 2 ... ... : ... .. 2 ... ... : ... .. . ... ...
ROW F8 : ... .. . P85 ... ... : ... .. . P7A ... ... : F-2 00 . ... : 4-# 00 D ... : ... .. . ... ... : F#4 01 A ... ... : F#3 01 A ... ... : C-3 01 A ... ...
ROW F9 : ... .. . P81 ... ... : G-3 00 8 P85 ... ... : ... .. . ... : ... .. B ... : ... .. . ... ... : ... .. 9 ... ... : ... .. 9 ... ... : ... .. 8 ... ...
ROW FA : ... .. . P7E ... ... : ... .. . ... ... ... : ... .. . ... : ... .. . ... : ... .. . ... ... : ... .. 8 ... ... : ... .. 8 ... ... : ... .. 5 ... ...
ROW FB : ... .. . P7B ... ... : G#3 00 8 P79 ... ... : ... .. . ... : ... .. A ... : ... .. . ... ... : ... .. 5 ... ... : ... .. 5 ... ... : ... .. . ... ...
ROW FC : ... .. . ... ... ... : ... .. . P7F ... ... : ... .. . ... : ... .. 8 ... : ... .. . ... ... : ... .. . ... ... : ... .. . ... ... : ... .. . ... ...
ROW FD : ... .. . P7E ... ... : ... .. . P84 ... ... : --- .. . ... : ... .. 7 ... : ... .. . ... ... : ... .. 3 ... ... : ... .. 3 ... ... : ... .. . ... ...
ROW FE : ... .. . P81 ... ... : A-3 00 8 P7A ... ... : F-2 00 . ... : 1-# 00 F ... : ... .. . ... ... : ... .. 6 ... ... : ... .. 6 ... ... : C#3 01 A ... ...
ROW FF : ... .. . P85 ... ... : ... .. . P7C ... ... : ... .. . ... : ... .. C ... : ... .. . ... ... : ... .. . ... ... : ... .. . ... ... : ... .. 8 ... ...

PATTERN 0E
ROW 00 : ... .. . P87 ... ... : ... .. . P7A ... ... : ... .. . ... : ... .. 6 ... : ... .. . ... ... : ... .. 5 ... ... : ... .. 5 ... ... : ... .. 5 ... ...
ROW 01 : ... .. . P86 ... ... : G#3 00 8 P83 ... ... : ... .. . ... : ... .. 3 ... : ... .. . ... ... : ... .. 3 ... ... : ... .. 3 ... ... : ... .. . ... ...
ROW 02 : ... .. . P82 ... ... : ... .. . P7E ... ... : ... .. . ... : ... .. 2 ... : ... .. . ... ... : ... .. . ... ... : ... .. . ... ... : ... .. . ... ...
ROW 03 : ... .. . P7F ... ... : G-3 00 8 P88 ... ... : --- .. . ... : ... .. 0 ... : ... .. . ... ... : ... .. 2 ... ... : ... .. 2 ... ... : ... .. . ... ...
ROW 04 : ... .. . P7B ... ... : ... .. . P85 ... ... : F-2 00 . ... : 4-# 00 D ... : ... .. . ... ... : G#4 01 A ... ... : G#3 01 A ... ... : F-3 01 A ... ...
ROW 05 : ... .. . ... ... ... : ... .. . P86 ... ... : ... .. . ... : ... .. B ... : ... .. . ... ... : ... .. 9 ... ... : ... .. 9 ... ... : ... .. 8 ... ...
ROW 06 : ... .. . P7E ... ... : G#3 00 8 P7B ... ... : ... .. . ... : ... .. . ... : ... .. . ... ... : ... .. 8 ... ... : ... .. 8 ... ... : ... .. 5 ... ...
ROW 07 : ... .. 9 P81 ... ... : ... .. 9 P80 ... ... : ... .. . ... : ... .. A ... : ... .. . ... ... : ... .. 5 ... ... : ... .. 5 ... ... : ... .. . ... ...
ROW 08 : ... .. . P85 ... ... : ... .. . P86 ... ... : ... .. . ... : ... .. 8 ... : ... .. . ... ... : ... .. . ... ... : ... .. . ... ... : ... .. . ... ...
ROW 09 : ... .. . P87 ... ... : A-3 00 9 P7C ... ... : --- .. . ... : ... .. 7 ... : ... .. . ... ... : ... .. 3 ... ... : ... .. 3 ... ... : ... .. . ... ...
ROW 0A : ... .. . P86 ... ... : ... .. . ... ... ... : F-2 00 . ... : 1-# 00 F ... : ... .. . ... ... : ... .. 6 ... ... : ... .. 6 ... ... : G#3 01 A ... ...
ROW 0B : ... .. . P83 ... ... : G#3 00 9 P87 ... ... : ... .. . ... : ... .. C ... : ... .. . ... ... : ... .. . ... ... : ... .. . ... ... : ... .. 8 ... ...
ROW 0C : ... .. . P7F ... ... : ... .. . P81 ... ... : ... .. . ... : ... .. 6 ... : ... .. . ... ... : ... .. 5 ... ... : ... .. 5 ... ... : ... .. 5 ... ...
ROW 0D : ... .. . P7C ... ... : ... .. . P7C ... ... : ... .. . ... : ... .. 3 ... : ... .. . ... ... : ... .. 3 ... ... : ... .. 3 ... ... : ... .. . ... ...
ROW 0E : ... .. . P7B ... ... : G-3 00 9 P87 ... ... : ... .. . ... : ... .. 2 ... : ... .. . ... ... : ... .. . ... ... : ... .. . ... ... : ... .. . ... ...
ROW 0F : ... .. . P7D ... ... : ... .. . P85 ... ... : --- .. . ... : ... .. 0 ... : ... .. . ... ... : ... .. 2 ... ... : ... .. 2 ... ... : ... .. . ... ...
ROW 10 : E-2 00 F P81 ... ... : ... .. F P80 ... ... : D#4 00 . ... : D-# 00 F ... : ... .. . ... ... : A#5 01 A ... ... : A#4 01 A ... ... : G-4 01 F ... ...
ROW 11 : ... .. E ... ... ... : ... .. E ... ... ... : F-3 00 . ... : ... .. . ... : ... .. . ... ... : ... .. 9 ... ... : ... .. 9 ... ... : ... .. D ... ...
ROW 12 : ... .. D ... ... ... : ... .. D ... ... ... : A#2 00 . ... : ... .. . ... : ... .. . ... ... : ... .. 8 ... ... : ... .. 8 ... ... : ... .. 8 ... ...
ROW 13 : ... .. 9 ... ... ... : ... .. 9 ... ... ... : A-2 00 . ... : C-# 00 D ... : ... .. . ... ... : ... .. 5 ... ... : ... .. 5 ... ... : ... .. . ... ...
ROW 14 : ... .. . ... ... ... : ... .. . ... ... ... : E-2 00 . ... : ... .. . ... : ... .. . ... ... : ... .. . ... ... : ... .. . ... ... : ... .. . ... ...
ROW 15 : ... .. . ... ... ... : ... .. . ... ... ... : --- .. . ... : ... .. . ... : ... .. . ... ... : ... .. 3 ... ... : ... .. 3 ... ... : ... .. . ... ...
ROW 16 : ... .. . ... ... ... : ... .. . ... ... ... : E-2 00 . ... : B-# 00 B ... : ... .. . ... ... : ... .. 6 ... ... : ... .. 6 ... ... : ... .. . ... ...
ROW 17 : ... .. . ... ... ... : ... .. . ... ... ... : ... .. . ... : ... .. . ... : ... .. . ... ... : ... .. . ... ... : ... .. . ... ... : ... .. . ... ...
ROW 18 : ... .. . ... ... ... : ... .. . ... ... ... : ... .. . ... : ... .. . ... : ... .. . ... ... : ... .. 5 ... ... : ... .. 5 ... ... : ... .. . ... ...
ROW 19 : ... .. . ... ... ... : ... .. . ... ... ... : ... .. . ... : ... .. 9 ... : ... .. . ... ... : ... .. 3 ... ... : ... .. 3 ... ... : ... .. . ... ...
ROW 1A : ... .. . ... ... ... : ... .. . ... ... ... : ... .. . ... : ... .. . ... : ... .. . ... ... : ... .. . ... ... : ... .. . ... ... : ... .. . ... ...
ROW 1B : ... .. . ... ... ... : ... .. . ... ... ... : --- .. . ... : ... .. . ... : ... .. . ... ... : ... .. 2 ... ... : ... .. 2 ... ... : ... .. . ... ...
ROW 1C : ... .. 8 ... ... ... : ... .. 8 ... ... ... : E-2 00 . ... : ... .. 7 ... : ... .. . ... ... : E-5 01 A ... ... : E-4 01 A ... ... : ... .. . ... ...
ROW 1D : ... .. . ... ... ... : ... .. . ... ... ... : ... .. . ... : ... .. . ... : ... .. . ... ... : ... .. 9 ... ... : ... .. 9 ... ... : ... .. . ... ...
ROW 1E : ... .. . ... ... ... : ... .. . ... ... ... : ... .. . ... : ... .. . ... : ... .. . ... ... : ... .. 8 ... ... : ... .. 8 ... ... : ... .. . ... ...
ROW 1F : ... .. . ... ... ... : ... .. . ... ... ... : ... .. . ... : ... .. 5 ... : ... .. . ... ... : ... .. 5 ... ... : ... .. 5 ... ... : ... .. . ... ...
ROW 20 : ... .. . ... ... ... : ... .. . ... ... ... : ... .. . ... : ... .. . ... : ... .. . ... ... : ... .. . ... ... : ... .. . ... ... : ... .. . ... ...
ROW 21 : ... .. . ... ... ... : ... .. . ... ... ... : --- .. . ... : ... .. . ... : ... .. . ... ... : ... .. 3 ... ... : ... .. 3 ... ... : ... .. . ... ...
ROW 22 : ... .. . ... ... ... : ... .. . ... ... ... : E-2 00 . ... : 4-# 00 D ... : ... .. . ... ... : ... .. 6 ... ... : ... .. 6 ... ... : ... .. . ... ...
ROW 23 : ... .. . ... ... ... : ... .. . ... ... ... : ... .. . ... : ... .. B ... : ... .. . ... ... : ... .. . ... ... : ... .. . ... ... : ... .. . ... ...
ROW 24 : ... .. . ... ... ... : ... .. . ... ... ... : ... .. . ... : ... .. . ... : ... .. . ... ... : ... .. 5 ... ... : ... .. 5 ... ... : ... .. . ... ...
ROW 25 : ... .. . ... ... ... : ... .. . ... ... ... : ... .. . ... : ... .. A ... : ... .. . ... ... : ... .. 3 ... ... : ... .. 3 ... ... : ... .. . ... ...
ROW 26 : ... .. . ... ... ... : ... .. . ... ... ... : ... .. . ... : ... .. 8 ... : ... .. . ... ... : ... .. . ... ... : ... .. . ... ... : ... .. . ... ...
ROW 27 : ... .. . ... ... ... : ... .. . ... ... ... : --- .. . ... : ... .. 7 ... : ... .. . ... ... : ... .. 2 ... ... : ... .. 2 ... ... : ... .. . ... ...
ROW 28 : ... .. . ... ... ... : ... .. . ... ... ... : E-2 00 . ... : 1-# 00 F ... : ... .. . ... ... : D-5 01 A ... ... : D-4 01 A ... ... : F-4 01 8 P85 ...
ROW 29 : ... .. . ... ... ... : ... .. . ... ... ... : ... .. . ... : ... .. C ... : ... .. . ... ... : ... .. 9 ... ... : ... .. 9 ... ... : E-4 01 8 P80 ...
ROW 2A : ... .. . ... ... ... : ... .. . ... ... ... : ... .. . ... : ... .. 6 ... : ... .. . ... ... : ... .. 8 ... ... : ... .. 8 ... ... : D#4 01 8 P7B ...
ROW 2B : ... .. . ... ... ... : ... .. . ... ... ... : ... .. . ... : ... .. 3 ... : ... .. . ... ... : ... .. 5 ... ... : ... .. 5 ... ... : C#4 01 8 P85 ...
ROW 2C : ... .. . ... ... ... : ... .. . ... ... ... : ... .. . ... : ... .. 2 ... : ... .. . ... ... : ... .. . ... ... : ... .. . ... ... : C-4 01 8 P82 ...
ROW 2D : ... .. . ... ... ... : ... .. . ... ... ... : --- .. . ... : ... .. 0 ... : ... .. . ... ... : ... .. 3 ... ... : ... .. 3 ... ... : B-3 01 8 P81 ...
ROW 2E : ... .. . ... ... ... : ... .. . ... ... ... : E-2 00 . ... : ... .. F ... : ... .. . ... ... : ... .. 6 ... ... : ... .. 6 ... ... : A#3 01 8 P80 ...
ROW 2F : ... .. . ... ... ... : ... .. . ... ... ... : ... .. . ... : ... .. C ... : ... .. . ... ... : ... .. . ... ... : ... .. . ... ... : A-3 01 8 P81 ...
ROW 30 : ... .. . ... ... ... : ... .. . ... ... ... : ... .. . ... : ... .. 6 ... : ... .. . ... ... : ... .. 5 ... ... : ... .. 5 ... ... : G#3 01 8 P82 ...
ROW 31 : ... .. 7 ... ... ... : ... .. 7 ... ... ... : ... .. . ... : ... .. 3 ... : ... .. . ... ... : ... .. 3 ... ... : ... .. 3 ... ... : G-3 01 8 P84 ...
ROW 32 : ... .. . ... ... ... : ... .. . ... ... ... : ... .. . ... : ... .. 2 ... : ... .. . ... ... : ... .. . ... ... : ... .. . ... ... : F#3 01 8 P88 ...
ROW 33 : ... .. . ... ... ... : ... .. . ... ... ... : --- .. . ... : ... .. 0 ... : ... .. . ... ... : ... .. 2 ... ... : ... .. 2 ... ... : ... .. . P78 ...
ROW 34 : ... .. . ... ... ... : ... .. . ... ... ... : E-2 00 . ... : 4-# 00 D ... : ... .. . ... ... : E-5 01 A ... ... : E-4 01 A ... ... : F-3 01 8 P7C ...
ROW 35 : ... .. . ... ... ... : ... .. . ... ... ... : ... .. . ... : ... .. B ... : ... .. . ... ... : ... .. 9 ... ... : ... .. 9 ... ... : E-3 01 8 P82 ...
ROW 36 : ... .. . ... ... ... : ... .. . ... ... ... : ... .. . ... : ... .. . ... : ... .. . ... ... : ... .. 8 ... ... : ... .. 8 ... ... : D#3 01 8 P89 ...
ROW 37 : ... .. . ... ... ... : ... .. . ... ... ... : ... .. . ... : ... .. A ... : ... .. . ... ... : ... .. 5 ... ... : ... .. 5 ... ... : ... .. . P79 ...
ROW 38 : ... .. . ... ... ... : ... .. . ... ... ... : ... .. . ... : ... .. 8 ... : ... .. . ... ... : ... .. . ... ... : ... .. . ... ... : D-3 01 8 P81 ...
ROW 39 : ... .. . ... ... ... : ... .. . ... ... ... : --- .. . ... : ... .. 7 ... : ... .. . ... ... : ... .. 3 ... ... : ... .. 3 ... ... : C#3 01 8 P8B ...
ROW 3A : ... .. 6 ... ... ... : ... .. 6 ... ... ... : E-2 00 . ... : 1-# 00 F ... : ... .. . ... ... : ... .. 6 ... ... : ... .. 6 ... ... : ... .. . P7B ...
ROW 3B : ... .. . ... ... ... : ... .. . ... ... ... : ... .. . ... : ... .. C ... : ... .. . ... ... : ... .. . ... ... : ... .. . ... ... : C-3 01 8 P87 ...
ROW 3C : ... .. . ... ... ... : ... .. . ... ... ... : ... .. . ... : ... .. 6 ... : ... .. . ... ... : ... .. 5 ... ... : ... .. 5 ... ... : ... .. . P77 ...
ROW 3D : ... .. . ... ... ... : ... .. . ... ... ... : ... .. . ... : ... .. 3 ... : ... .. . ... ... : ... .. 3 ... ... : ... .. 3 ... ... : B-2 01 8 P84 ...
ROW 3E : ... .. . ... ... ... : ... .. . ... ... ... : ... .. . ... : ... .. 2 ... : ... .. . ... ... : ... .. . ... ... : ... .. . ... ... : ... .. . P74 ...
ROW 3F : ... .. . ... ... ... : ... .. . ... ... ... : --- .. . ... : ... .. 0 ... : ... .. . ... ... : ... .. 2 ... ... : ... .. 2 ... ... : A#2 01 8 P82 ...
ROW 40 : ... .. . ... ... ... : ... .. . ... ... ... : E-2 00 . ... : ... .. F ... : ... .. . ... ... : A#4 01 A ... ... : A#3 01 A ... ... : B-2 01 A P81 ...
ROW 41 : ... .. . ... ... ... : ... .. . ... ... ... : ... .. . ... : ... .. C ... : ... .. . ... ... : ... .. 9 ... ... : ... .. 9 ... ... : ... .. 8 ... ...
ROW 42 : ... .. . ... ... ... : ... .. . ... ... ... : ... .. . ... : ... .. 0 ... : ... .. . ... ... : ... .. 8 ... ... : ... .. 8 ... ... : ... .. 5 ... ...
ROW 43 : ... .. . ... ... ... : ... .. . ... ... ... : ... .. . ... : ... .. . ... : ... .. . ... ... : ... .. 5 ... ... : ... .. 5 ... ... : ... .. . ... ...
ROW 44 : ... .. . ... ... ... : ... .. . ... ... ... : ... .. . ... : ... .. . ... : ... .. . ... ... : ... .. . ... ... : ... .. . ... ... : ... .. . ... ...
ROW 45 : ... .. . ... ... ... : ... .. . ... ... ... : --- .. . ... : ... .. . ... : ... .. . ... ... : ... .. 3 ... ... : ... .. 3 ... ... : ... .. . ... ...
ROW 46 : ... .. . ... ... ... : ... .. . ... ... ... : E-2 00 . ... : 4-# 00 D ... : ... .. . ... ... : ... .. 6 ... ... : ... .. 6 ... ... : C-3 01 A ... ...
ROW 47 : ... .. . ... ... ... : ... .. . ... ... ... : ... .. . ... : ... .. B ... : ... .. . ... ... : ... .. . ... ... : ... .. . ... ... : ... .. 8 ... ...
ROW 48 : ... .. . ... ... ... : ... .. . ... ... ... : ... .. . ... : ... .. 0 ... : ... .. . ... ... : ... .. 5 ... ... : ... .. 5 ... ... : ... .. 5 ... ...
ROW 49 : ... .. . ... ... ... : ... .. . ... ... ... : ... .. . ... : ... .. . ... : ... .. . ... ... : ... .. 3 ... ... : ... .. 3 ... ... : ... .. . ... ...
ROW 4A : ... .. . ... ... ... : ... .. . ... ... ... : ... .. . ... : ... .. . ... : ... .. . ... ... : ... .. . ... ... : ... .. . ... ... : ... .. . ... ...
ROW 4B : ... .. . ... ... ... : ... .. . ... ... ... : --- .. . ... : ... .. . ... : ... .. . ... ... : ... .. 2 ... ... : ... .. 2 ... ... : ... .. . ... ...
ROW 4C : ... .. . ... ... ... : ... .. . ... ... ... : E-2 00 . ... : 1-# 00 F ... : ... .. . ... ... : C-5 01 A ... ... : C-4 01 A ... ... : E-3 01 A ... ...
ROW 4D : ... .. . ... ... ... : ... .. . ... ... ... : ... .. . ... : ... .. C ... : ... .. . ... ... : ... .. 9 ... ... : ... .. 9 ... ... : ... .. 8 ... ...
ROW 4E : ... .. . ... ... ... : ... .. . ... ... ... : ... .. . ... : ... .. 6 ... : ... .. . ... ... : ... .. 8 ... ... : ... .. 8 ... ... : ... .. 5 ... ...
ROW 4F : ... .. 5 ... ... ... : ... .. 5 ... ... ... : ... .. . ... : ... .. 3 ... : ... .. . ... ... : ... .. 5 ... ... : ... .. 5 ... ... : ... .. . ... ...
ROW 50 : ... .. . ... ... ... : ... .. . ... ... ... : ... .. . ... : ... .. 2 ... : ... .. . ... ... : ... .. . ... ... : ... .. . ... ... : ... .. . ... ...
ROW 51 : ... .. . ... ... ... : ... .. . ... ... ... : --- .. . ... : ... .. 0 ... : ... .. . ... ... : ... .. 3 ... ... : ... .. 3 ... ... : ... .. . ... ...
ROW 52 : ... .. . ... ... ... : ... .. . ... ... ... : E-2 00 . ... : ... .. F ... : ... .. . ... ... : ... .. 6 ... ... : ... .. 6 ... ... : G-3 01 A ... ...
ROW 53 : ... .. . ... ... ... : ... .. . ... ... ... : ... .. . ... : ... .. C ... : ... .. . ... ... : ... .. . ... ... : ... .. . ... ... : ... .. 8 ... ...
ROW 54 : ... .. . ... ... ... : ... .. . ... ... ... : ... .. . ... : ... .. 6 ... : ... .. . ... ... : ... .. 5 ... ... : ... .. 5 ... ... : ... .. 5 ... ...
ROW 55 : ... .. . ... ... ... : ... .. . ... ... ... : ... .. . ... : ... .. 3 ... : ... .. . ... ... : ... .. 3 ... ... : ... .. 3 ... ... : ... .. . ... ...
ROW 56 : ... .. . ... ... ... : ... .. . ... ... ... : ... .. . ... : ... .. 2 ... : ... .. . ... ... : ... .. . ... ... : ... .. . ... ... : ... .. . ... ...
ROW 57 : ... .. . ... ... ... : ... .. . ... ... ... : --- .. . ... : ... .. 0 ... : ... .. . ... ... : ... .. 2 ... ... : ... .. 2 ... ... : ... .. . ... ...
ROW 58 : ... .. . P85 ... ... : ... .. . P86 ... ... : E-2 00 . ... : 4-# 00 D ... : ... .. . ... ... : A#5 01 A ... ... : A#4 01 A ... ... : E-2 01 A ... ...
ROW 59 : ... .. . P87 ... ... : G#3 00 5 P7B ... ... : ... .. . ... : ... .. B ... : ... .. . ... ... : ... .. 9 ... ... : ... .. 9 ... ... : ... .. 8 ... ...
ROW 5A : ... .. . P86 ... ... : ... .. . ... ... ... : ... .. . ... : ... .. . ... : ... .. . ... ... : ... .. 8 ... ... : ... .. 8 ... ... : ... .. 5 ... ...
ROW 5B : ... .. . P83 ... ... : G-3 00 5 P87 ... ... : ... .. . ... : ... .. A ... : ... .. . ... ... : ... .. 5 ... ... : ... .. 5 ... ... : ... .. . ... ...
ROW 5C : ... .. . P7F ... ... : ... .. . P81 ... ... : ... .. . ... : ... .. 8 ... : ... .. . ... ... : ... .. . ... ... : ... .. . ... ... : ... .. . ... ...
ROW 5D : ... .. . P7C ... ... : ... .. . P7C ... ... : --- .. . ... : ... .. 7 ... : ... .. . ... ... : ... .. 3 ... ... : ... .. 3 ... ... : ... .. . ... ...
ROW 5E : ... .. . P7B ... ... : F#3 00 5 P88 ... ... : E-2 00 . ... : 1-# 00 F ... : ... .. . ... ... : ... .. 6 ... ... : ... .. 6 ... ... : F#2 01 A ... ...
ROW 5F : ... .. . P7D ... ... : ... .. . P86 ... ... : ... .. . ... : ... .. C ... : ... .. . ... ... : ... .. . ... ... : ... .. . ... ... : ... .. 8 ... ...
ROW 60 : ... .. . P81 ... ... : ... .. . P88 ... ... : ... .. . ... : ... .. 6 ... : ... .. . ... ... : ... .. 5 ... ... : ... .. 5 ... ... : ... .. 5 ... ...
ROW 61 : ... .. . P84 ... ... : G-3 00 5 P7D ... ... : ... .. . ... : ... .. 3 ... : ... .. . ... ... : ... .. 3 ... ... : ... .. 3 ... ... : ... .. . ... ...
ROW 62 : ... .. . P87 ... ... : ... .. . P82 ... ... : ... .. . ... : ... .. 2 ... : ... .. . ... ... : ... .. . ... ... : ... .. . ... ... : ... .. . ... ...
ROW 63 : ... .. . ... ... ... : ... .. . P88 ... ... : --- .. . ... : ... .. 0 ... : ... .. . ... ... : ... .. 2 ... ... : ... .. 2 ... ... : ... .. . ... ...
ROW 64 : ... .. 6 P83 ... ... : G#3 00 6 P7B ... ... : E-2 00 . ... : ... .. F ... : ... .. . ... ... : E-5 01 A ... ... : E-4 01 A ... ... : G-2 01 A ... ...
ROW 65 : ... .. . P80 ... ... : ... .. . P7A ... ... : ... .. . ... : ... .. C ... : ... .. . ... ... : ... .. 9 ... ... : ... .. 9 ... ... : ... .. 8 ... ...
ROW 66 : ... .. . P7C ... ... : G-3 00 6 P85 ... ... : ... .. . ... : ... .. 6 ... : ... .. . ... ... : ... .. 8 ... ... : ... .. 8 ... ... : ... .. 5 ... ...
ROW 67 : ... .. . P7B ... ... : ... .. . P80 ... ... : ... .. . ... : ... .. 3 ... : ... .. . ... ... : ... .. 5 ... ... : ... .. 5 ... ... : ... .. . ... ...
ROW 68 : ... .. . P7D ... ... : ... .. . P7A ... ... : ... .. . ... : ... .. 2 ... : ... .. . ... ... : ... .. . ... ... : ... .. . ... ... : ... .. . ... ...
ROW 69 : ... .. . P81 ... ... : F#3 00 6 P86 ... ... : --- .. . ... : ... .. 0 ... : ... .. . ... ... : ... .. 3 ... ... : ... .. 3 ... ... : ... .. . ... ...
ROW 6A : ... .. . P84 ... ... : ... .. . ... ... ... : E-2 00 . ... : 4-# 00 D ... : ... .. . ... ... : ... .. 6 ... ... : ... .. 6 ... ... : B-2 01 A ... ...
ROW 6B : ... .. . P87 ... ... : G-3 00 6 P79 ... ... : ... .. . ... : ... .. B ... : ... .. . ... ... : ... .. . ... ... : ... .. . ... ... : ... .. 8 ... ...
ROW 6C : ... .. . ... ... ... : ... .. . P7F ... ... : ... .. . ... : ... .. . ... : ... .. . ... ... : ... .. 5 ... ... : ... .. 5 ... ... : ... .. 5 ... ...
ROW 6D : ... .. . P84 ... ... : ... .. . P84 ... ... : ... .. . ... : ... .. A ... : ... .. . ... ... : ... .. 3 ... ... : ... .. 3 ... ... : ... .. . ... ...
ROW 6E : ... .. . P81 ... ... : G#3 00 6 P79 ... ... : ... .. . ... : ... .. 8 ... : ... .. . ... ... : ... .. . ... ... : ... .. . ... ... : ... .. . ... ...
ROW 6F : ... .. . P7D ... ... : ... .. . P7B ... ... : --- .. . ... : ... .. 7 ... : ... .. . ... ... : ... .. 2 ... ... : ... .. 2 ... ... : ... .. . ... ...
ROW 70 : ... .. . P7B ... ... : ... .. . P79 ... ... : E-2 00 . ... : 1-# 00 F ... : ... .. . ... ... : D-5 01 A ... ... : D-4 01 A ... ... : C-3 01 A ... ...
ROW 71 : ... .. . P7C ... ... : G-3 00 6 P83 ... ... : ... .. . ... : ... .. C ... : ... .. . ... ... : ... .. 9 ... ... : ... .. 9 ... ... : ... .. 8 ... ...
ROW 72 : ... .. . P80 ... ... : ... .. . P7E ... ... : ... .. . ... : ... .. 6 ... : ... .. . ... ... : ... .. 8 ... ... : ... .. 8 ... ... : ... .. 5 ... ...
ROW 73 : ... .. . P83 ... ... : ... .. . P78 ... ... : ... .. . ... : ... .. 3 ... : ... .. . ... ... : ... .. 5 ... ... : ... .. 5 ... ... : ... .. . ... ...
ROW 74 : ... .. . P87 ... ... : F#3 00 6 P86 ... ... : ... .. . ... : ... .. 2 ... : ... .. . ... ... : ... .. . ... ... : ... .. . ... ... : ... .. . ... ...
ROW 75 : ... .. . ... ... ... : ... .. . P87 ... ... : --- .. . ... : ... .. 0 ... : ... .. . ... ... : ... .. 3 ... ... : ... .. 3 ... ... : ... .. . ... ...
ROW 76 : ... .. . P84 ... ... : G-3 00 6 P7B ... ... : E-2 00 . ... : ... .. F ... : ... .. . ... ... : ... .. 6 ... ... : ... .. 6 ... ... : D#3 01 A ... ...
ROW 77 : ... .. . P81 ... ... : ... .. . P80 ... ... : ... .. . ... : ... .. C ... : ... .. . ... ... : ... .. . ... ... : ... .. . ... ... : ... .. 8 ... ...
ROW 78 : ... .. . P7D ... ... : ... .. . P86 ... ... : ... .. . ... : ... .. 6 ... : ... .. . ... ... : ... .. 5 ... ... : ... .. 5 ... ... : ... .. 5 ... ...
ROW 79 : ... .. 7 P7B ... ... : G#3 00 7 P7B ... ... : ... .. . ... : ... .. 3 ... : ... .. . ... ... : ... .. 3 ... ... : ... .. 3 ... ... : ... .. . ... ...
ROW 7A : ... .. . P7C ... ... : ... .. . ... ... ... : ... .. . ... : ... .. 2 ... : ... .. . ... ... : ... .. . ... ... : ... .. . ... ... : ... .. . ... ...
ROW 7B : ... .. . P7F ... ... : G-3 00 7 P87 ... ... : --- .. . ... : ... .. 0 ... : ... .. . ... ... : ... .. 2 ... ... : ... .. 2 ... ... : ... .. . ... ...
ROW 7C : ... .. . P83 ... ... : ... .. . P81 ... ... : E-2 00 . ... : 4-# 00 D ... : ... .. . ... ... : E-5 01 A ... ... : E-4 01 A ... ... : F#2 01 A ... ...
ROW 7D : ... .. . P86 ... ... : ... .. . P7C ... ... : ... .. . ... : ... .. B ... : ... .. . ... ... : ... .. 9 ... ... : ... .. 9 ... ... : ... .. 8 ... ...
ROW 7E : ... .. . P87 ... ... : F#3 00 7 P88 ... ... : ... .. . ... : ... .. . ... : ... .. . ... ... : ... .. 8 ... ... : ... .. 8 ... ... : ... .. 5 ... ...
ROW 7F : ... .. . P85 ... ... : ... .. . P86 ... ... : ... .. . ... : ... .. A ... : ... .. . ... ... : ... .. 5 ... ... : ... .. 5 ... ... : ... .. . ... ...
ROW 80 : ... .. . P81 ... ... : ... .. . P88 ... ... : ... .. . ... : ... .. 8 ... : ... .. . ... ... : ... .. . ... ... : ... .. . ... ... : ... .. . ... ...
ROW 81 : ... .. . P7E ... ... : G-3 00 7 P7D ... ... : --- .. . ... : ... .. 7 ... : ... .. . ... ... : ... .. 3 ... ... : ... .. 3 ... ... : ... .. . ... ...
ROW 82 : ... .. 8 P7B ... ... : ... .. 8 P82 ... ... : E-2 00 . ... : 1-# 00 F ... : ... .. . ... ... : ... .. 6 ... ... : ... .. 6 ... ... : G-2 01 A ... ...
ROW 83 : ... .. . ... ... ... : ... .. . P88 ... ... : ... .. . ... : ... .. C ... : ... .. . ... ... : ... .. . ... ... : ... .. . ... ... : ... .. 8 ... ...
ROW 84 : ... .. . P7F ... ... : G#3 00 8 P7B ... ... : ... .. . ... : ... .. 6 ... : ... .. . ... ... : ... .. 5 ... ... : ... .. 5 ... ... : ... .. 5 ... ...
ROW 85 : ... .. . P82 ... ... : ... .. . P7A ... ... : ... .. . ... : ... .. 3 ... : ... .. . ... ... : ... .. 3 ... ... : ... .. 3 ... ... : ... .. . ... ...
ROW 86 : ... .. . P86 ... ... : G-3 00 8 P85 ... ... : ... .. . ... : ... .. 2 ... : ... .. . ... ... : ... .. . ... ... : ... .. . ... ... : ... .. . ... ...
ROW 87 : ... .. . P87 ... ... : ... .. . P80 ... ... : --- .. . ... : ... .. 0 ... : ... .. . ... ... : ... .. 2 ... ... : ... .. 2 ... ... : ... .. . ... ...
ROW 88 : ... .. . P85 ... ... : ... .. . P7A ... ... : E-2 00 . ... : 4-# 00 D ... : ... .. . ... ... : F-4 01 A ... ... : F-3 01 A ... ... : B-2 01 A ... ...
ROW 89 : ... .. . P81 ... ... : F#3 00 8 P86 ... ... : ... .. . ... : ... .. B ... : ... .. . ... ... : ... .. 9 ... ... : ... .. 9 ... ... : ... .. 8 ... ...
ROW 8A : ... .. . P7E ... ... : ... .. . ... ... ... : ... .. . ... : ... .. 0 ... : ... .. . ... ... : ... .. 8 ... ... : ... .. 8 ... ... : ... .. 5 ... ...
ROW 8B : ... .. . P7B ... ... : G-3 00 8 P79 ... ... : ... .. . ... : ... .. . ... : ... .. . ... ... : ... .. 5 ... ... : ... .. 5 ... ... : ... .. . ... ...
ROW 8C : ... .. . ... ... ... : ... .. . P7F ... ... : ... .. . ... : ... .. . ... : ... .. . ... ... : ... .. . ... ... : ... .. . ... ... : ... .. . ... ...
ROW 8D : ... .. . P7E ... ... : ... .. . P84 ... ... : --- .. . ... : ... .. . ... : ... .. . ... ... : ... .. 3 ... ... : ... .. 3 ... ... : ... .. . ... ...
ROW 8E : ... .. . P81 ... ... : G#3 00 8 P79 ... ... : E-2 00 . ... : 1-# 00 F ... : ... .. . ... ... : ... .. 6 ... ... : ... .. 6 ... ... : C-3 01 A ... ...
ROW 8F : ... .. . P85 ... ... : ... .. . P7B ... ... : ... .. . ... : ... .. C ... : ... .. . ... ... : ... .. . ... ... : ... .. . ... ... : ... .. 8 ... ...
ROW 90 : ... .. . P87 ... ... : ... .. . P79 ... ... : ... .. . ... : ... .. 0 ... : ... .. . ... ... : ... .. 5 ... ... : ... .. 5 ... ... : ... .. 5 ... ...
ROW 91 : ... .. . P86 ... ... : G-3 00 8 P83 ... ... : ... .. . ... : ... .. . ... : ... .. . ... ... : ... .. 3 ... ... : ... .. 3 ... ... : ... .. . ... ...
ROW 92 : ... .. . P82 ... ... : ... .. . P7E ... ... : ... .. . ... : ... .. . ... : ... .. . ... ... : ... .. . ... ... : ... .. . ... ... : ... .. . ... ...
ROW 93 : ... .. . P7F ... ... : ... .. . P78 ... ... : --- .. . ... : ... .. . ... : ... .. . ... ... : ... .. 2 ... ... : ... .. 2 ... ... : ... .. . ... ...
ROW 94 : ... .. . P7B ... ... : F#3 00 8 P86 ... ... : E-2 00 . ... : 4-# 00 D ... : ... .. . ... ... : G-4 01 A ... ... : G-3 01 A ... ... : E-3 01 A ... ...
ROW 95 : ... .. . ... ... ... : ... .. . P87 ... ... : ... .. . ... : ... .. B ... : ... .. . ... ... : ... .. 9 ... ... : ... .. 9 ... ... : ... .. 8 ... ...
ROW 96 : ... .. . P7E ... ... : G-3 00 8 P7B ... ... : ... .. . ... : ... .. . ... : ... .. . ... ... : ... .. 8 ... ... : ... .. 8 ... ... : ... .. 5 ... ...
ROW 97 : ... .. 9 P81 ... ... : ... .. 9 P80 ... ... : ... .. . ... : ... .. A ... : ... .. . ... ... : ... .. 5 ... ... : ... .. 5 ... ... : ... .. . ... ...
ROW 98 : ... .. . P85 ... ... : ... .. . P86 ... ... : ... .. . ... : ... .. 8 ... : ... .. . ... ... : ... .. . ... ... : ... .. . ... ... : ... .. . ... ...
ROW 99 : ... .. . P87 ... ... : G#3 00 9 P7B ... ... : --- .. . ... : ... .. 7 ... : ... .. . ... ... : ... .. 3 ... ... : ... .. 3 ... ... : ... .. . ... ...
ROW 9A : ... .. . P86 ... ... : ... .. . ... ... ... : E-2 00 . ... : 1-# 00 F ... : ... .. . ... ... : ... .. 6 ... ... : ... .. 6 ... ... : G-3 01 A ... ...
ROW 9B : ... .. . P83 ... ... : G-3 00 9 P87 ... ... : ... .. . ... : ... .. C ... : ... .. . ... ... : ... .. . ... ... : ... .. . ... ... : ... .. 8 ... ...
ROW 9C : ... .. . P7F ... ... : ... .. . P81 ... ... : ... .. . ... : ... .. 6 ... : ... .. . ... ... : ... .. 5 ... ... : ... .. 5 ... ... : ... .. 5 ... ...
ROW 9D : ... .. . P7C ... ... : ... .. . P7C ... ... : ... .. . ... : ... .. 3 ... : ... .. . ... ... : ... .. 3 ... ... : ... .. 3 ... ... : ... .. . ... ...
ROW 9E : ... .. . P7B ... ... : F#3 00 9 P88 ... ... : ... .. . ... : ... .. 2 ... : ... .. . ... ... : ... .. . ... ... : ... .. . ... ... : ... .. . ... ...
ROW 9F : ... .. . P7D ... ... : ... .. . P86 ... ... : --- .. . ... : ... .. 0 ... : ... .. . ... ... : ... .. 2 ... ... : ... .. 2 ... ... : ... .. . ... ...
ROW A0 : A#1 00 F P81 ... ... : C#3 00 F P80 ... ... : A-3 00 . ... : D-# 00 F ... : ... .. . ... ... : A#5 01 A ... ... : A#4 01 A ... ... : A#4 01 F ... ...
ROW A1 : ... .. E ... ... ... : ... .. E ... ... ... : B-2 00 . ... : ... .. . ... : ... .. . ... ... : ... .. 9 ... ... : ... .. 9 ... ... : ... .. D ... ...
ROW A2 : ... .. D ... ... ... : ... .. D ... ... ... : E-2 00 . ... : ... .. . ... : ... .. . ... ... : ... .. 8 ... ... : ... .. 8 ... ... : ... .. 8 ... ...
ROW A3 : ... .. 9 ... ... ... : ... .. 9 ... ... ... : D#2 00 . ... : C-# 00 D ... : ... .. . ... ... : ... .. 5 ... ... : ... .. 5 ... ... : ... .. . ... ...
ROW A4 : ... .. . ... ... ... : ... .. . ... ... ... : A#1 00 . ... : ... .. . ... : ... .. . ... ... : ... .. . ... ... : ... .. . ... ... : ... .. . ... ...
ROW A5 : ... .. . ... ... ... : ... .. . ... ... ... : --- .. . ... : ... .. . ... : ... .. . ... ... : ... .. 3 ... ... : ... .. 3 ... ... : ... .. . ... ...
ROW A6 : ... .. . ... ... ... : ... .. . ... ... ... : A#2 00 . ... : B-# 00 B ... : ... .. . ... ... : ... .. 6 ... ... : ... .. 6 ... ... : ... .. . ... ...
ROW A7 : ... .. . ... ... ... : ... .. . ... ... ... : ... .. . ... : ... .. . ... : ... .. . ... ... : ... .. . ... ... : ... .. . ... ... : ... .. . ... ...
ROW A8 : ... .. . ... ... ... : ... .. . ... ... ... : ... .. . ... : ... .. . ... : ... .. . ... ... : ... .. 5 ... ... : ... .. 5 ... ... : ... .. . ... ...
ROW A9 : ... .. . ... ... ... : ... .. . ... ... ... : ... .. . ... : ... .. 9 ... : ... .. . ... ... : ... .. 3 ... ... : ... .. 3 ... ... : ... .. . ... ...
ROW AA : ... .. . ... ... ... : ... .. . ... ... ... : ... .. . ... : ... .. . ... : ... .. . ... ... : ... .. . ... ... : ... .. . ... ... : ... .. . ... ...
ROW AB : ... .. . ... ... ... : ... .. . ... ... ... : --- .. . ... : ... .. . ... : ... .. . ... ... : ... .. 2 ... ... : ... .. 2 ... ... : ... .. . ... ...
ROW AC : ... .. 8 ... ... ... : ... .. 8 ... ... ... : A#2 00 . ... : ... .. 7 ... : ... .. . ... ... : E-5 01 A ... ... : E-4 01 A ... ... : ... .. . ... ...
ROW AD : ... .. . ... ... ... : ... .. . ... ... ... : ... .. . ... : ... .. . ... : ... .. . ... ... : ... .. 9 ... ... : ... .. 9 ... ... : ... .. . ... ...
ROW AE : ... .. . ... ... ... : ... .. . ... ... ... : ... .. . ... : ... .. . ... : ... .. . ... ... : ... .. 8 ... ... : ... .. 8 ... ... : ... .. . ... ...
ROW AF : ... .. . ... ... ... : ... .. . ... ... ... : ... .. . ... : ... .. 5 ... : ... .. . ... ... : ... .. 5 ... ... : ... .. 5 ... ... : ... .. . ... ...
ROW B0 : ... .. . ... ... ... : ... .. . ... ... ... : ... .. . ... : ... .. . ... : ... .. . ... ... : ... .. . ... ... : ... .. . ... ... : ... .. . ... ...
ROW B1 : ... .. . ... ... ... : ... .. . ... ... ... : --- .. . ... : ... .. . ... : ... .. . ... ... : ... .. 3 ... ... : ... .. 3 ... ... : ... .. . ... ...
ROW B2 : ... .. . ... ... ... : ... .. . ... ... ... : A#2 00 . ... : 4-# 00 D ... : ... .. . ... ... : ... .. 6 ... ... : ... .. 6 ... ... : ... .. . ... ...
ROW B3 : ... .. . ... ... ... : ... .. . ... ... ... : ... .. . ... : ... .. B ... : ... .. . ... ... : ... .. . ... ... : ... .. . ... ... : ... .. . ... ...
ROW B4 : ... .. . ... ... ... : ... .. . ... ... ... : ... .. . ... : ... .. . ... : ... .. . ... ... : ... .. 5 ... ... : ... .. 5 ... ... : ... .. . ... ...
ROW B5 : ... .. . ... ... ... : ... .. . ... ... ... : ... .. . ... : ... .. A ... : ... .. . ... ... : ... .. 3 ... ... : ... .. 3 ... ... : ... .. . ... ...
ROW B6 : ... .. . ... ... ... : ... .. . ... ... ... : ... .. . ... : ... .. 8 ... : ... .. . ... ... : ... .. . ... ... : ... .. . ... ... : ... .. . ... ...
ROW B7 : ... .. . ... ... ... : ... .. . ... ... ... : --- .. . ... : ... .. 7 ... : ... .. . ... ... : ... .. 2 ... ... : ... .. 2 ... ... : ... .. . ... ...
ROW B8 : ... .. . ... ... ... : ... .. . ... ... ... : A#2 00 . ... : 1-# 00 F ... : ... .. . ... ... : D-5 01 A ... ... : D-4 01 A ... ... : G#4 01 8 P82 ...
ROW B9 : ... .. . ... ... ... : ... .. . ... ... ... : ... .. . ... : ... .. C ... : ... .. . ... ... : ... .. 9 ... ... : ... .. 9 ... ... : F#4 01 8 P85 ...
ROW BA : ... .. . ... ... ... : ... .. . ... ... ... : ... .. . ... : ... .. 6 ... : ... .. . ... ... : ... .. 8 ... ... : ... .. 8 ... ... : F-4 01 8 P7F ...
ROW BB : ... .. . ... ... ... : ... .. . ... ... ... : ... .. . ... : ... .. 3 ... : ... .. . ... ... : ... .. 5 ... ... : ... .. 5 ... ... : D#4 01 8 P85 ...
ROW BC : ... .. . ... ... ... : ... .. . ... ... ... : ... .. . ... : ... .. 2 ... : ... .. . ... ... : ... .. . ... ... : ... .. . ... ... : D-4 01 8 P82 ...
ROW BD : ... .. . ... ... ... : ... .. . ... ... ... : --- .. . ... : ... .. 0 ... : ... .. . ... ... : ... .. 3 ... ... : ... .. 3 ... ... : C#4 01 8 P7F ...
ROW BE : ... .. . ... ... ... : ... .. . ... ... ... : A#2 00 . ... : ... .. F ... : ... .. . ... ... : ... .. 6 ... ... : ... .. 6 ... ... : C-4 01 8 P7C ...
ROW BF : ... .. . ... ... ... : ... .. . ... ... ... : ... .. . ... : ... .. C ... : ... .. . ... ... : ... .. . ... ... : ... .. . ... ... : B-3 01 8 P7B ...
ROW C0 : ... .. . ... ... ... : ... .. . ... ... ... : ... .. . ... : ... .. 6 ... : ... .. . ... ... : ... .. 5 ... ... : ... .. 5 ... ... : A#3 01 8 P7A ...
ROW C1 : ... .. 7 ... ... ... : ... .. 7 ... ... ... : ... .. . ... : ... .. 3 ... : ... .. . ... ... : ... .. 3 ... ... : ... .. 3 ... ... : A-3 01 8 P7B ...
ROW C2 : ... .. . ... ... ... : ... .. . ... ... ... : ... .. . ... : ... .. 2 ... : ... .. . ... ... : ... .. . ... ... : ... .. . ... ... : G#3 01 8 P7C ...
ROW C3 : ... .. . ... ... ... : ... .. . ... ... ... : --- .. . ... : ... .. 0 ... : ... .. . ... ... : ... .. 2 ... ... : ... .. 2 ... ... : G-3 01 8 P7E ...
ROW C4 : ... .. . ... ... ... : F-3 00 B ... ... ... : A#2 00 . ... : 4-# 00 D ... : ... .. . ... ... : E-5 01 A ... ... : E-4 01 A ... ... : F#3 01 8 P82 ...
ROW C5 : ... .. . ... ... ... : ... .. A ... ... ... : ... .. . ... : ... .. B ... : ... .. . ... ... : ... .. 9 ... ... : ... .. 9 ... ... : F-3 01 8 P86 ...
ROW C6 : ... .. . ... ... ... : ... .. 9 ... ... ... : ... .. . ... : ... .. . ... : ... .. . ... ... : ... .. 8 ... ... : ... .. 8 ... ... : ... .. . P76 ...
ROW C7 : ... .. . ... ... ... : ... .. 7 ... ... ... : ... .. . ... : ... .. A ... : ... .. . ... ... : ... .. 5 ... ... : ... .. 5 ... ... : E-3 01 8 P7C ...
ROW C8 : ... .. . ... ... ... : ... .. . ... ... ... : ... .. . ... : ... .. 8 ... : ... .. . ... ... : ... .. . ... ... : ... .. . ... ... : D#3 01 8 P83 ...
ROW C9 : ... .. . ... ... ... : ... .. . ... ... ... : --- .. . ... : ... .. 7 ... : ... .. . ... ... : ... .. 3 ... ... : ... .. 3 ... ... : D-3 01 8 P8B ...
ROW CA : ... .. 6 ... ... ... : ... .. 6 ... ... ... : A#2 00 . ... : 1-# 00 F ... : ... .. . ... ... : ... .. 6 ... ... : ... .. 6 ... ... : ... .. . P7B ...
ROW CB : ... .. . ... ... ... : ... .. . ... ... ... : ... .. . ... : ... .. C ... : ... .. . ... ... : ... .. . ... ... : ... .. . ... ... : C#3 01 8 P85 ...
ROW CC : ... .. . ... ... ... : ... .. . ... ... ... : ... .. . ... : ... .. 6 ... : ... .. . ... ... : ... .. 5 ... ... : ... .. 5 ... ... : ... .. . P75 ...
ROW CD : ... .. . ... ... ... : ... .. . ... ... ... : ... .. . ... : ... .. 3 ... : ... .. . ... ... : ... .. 3 ... ... : ... .. 3 ... ... : C-3 01 8 P81 ...
ROW CE : ... .. . ... ... ... : ... .. . ... ... ... : ... .. . ... : ... .. 2 ... : ... .. . ... ... : ... .. . ... ... : ... .. . ... ... : B-2 01 8 P8E ...
ROW CF : ... .. . ... ... ... : ... .. . ... ... ... : --- .. . ... : ... .. 0 ... : ... .. . ... ... : ... .. 2 ... ... : ... .. 2 ... ... : ... .. . P7E ...
ROW D0 : ... .. . ... ... ... : ... .. . ... ... ... : A#2 00 . ... : ... .. F ... : ... .. . ... ... : A#4 01 A ... ... : A#3 01 A ... ... : C#3 01 A P81 ...
ROW D1 : ... .. . ... ... ... : ... .. . ... ... ... : ... .. . ... : ... .. C ... : ... .. . ... ... : ... .. 9 ... ... : ... .. 9 ... ... : ... .. 8 ... ...
ROW D2 : ... .. . ... ... ... : ... .. . ... ... ... : ... .. . ... : ... .. 6 ... : ... .. . ... ... : ... .. 8 ... ... : ... .. 8 ... ... : ... .. 5 ... ...
ROW D3 : ... .. . ... ... ... : ... .. . ... ... ... : ... .. . ... : ... .. 3 ... : ... .. . ... ... : ... .. 5 ... ... : ... .. 5 ... ... : ... .. . ... ...
ROW D4 : ... .. . ... ... ... : ... .. . ... ... ... : ... .. . ... : ... .. 2 ... : ... .. . ... ... : ... .. . ... ... : ... .. . ... ... : ... .. . ... ...
ROW D5 : ... .. . ... ... ... : ... .. . ... ... ... : --- .. . ... : ... .. 0 ... : ... .. . ... ... : ... .. 3 ... ... : ... .. 3 ... ... : ... .. . ... ...
ROW D6 : ... .. . ... ... ... : ... .. . ... ... ... : A#2 00 . ... : 4-# 00 D ... : ... .. . ... ... : ... .. 6 ... ... : ... .. 6 ... ... : F-3 01 A ... ...
ROW D7 : ... .. . ... ... ... : ... .. . ... ... ... : ... .. . ... : ... .. B ... : ... .. . ... ... : ... .. . ... ... : ... .. . ... ... : ... .. 8 ... ...
ROW D8 : ... .. . ... ... ... : ... .. . ... ... ... : ... .. . ... : ... .. . ... : ... .. . ... ... : ... .. 5 ... ... : ... .. 5 ... ... : ... .. 5 ... ...
ROW D9 : ... .. . ... ... ... : ... .. . ... ... ... : ... .. . ... : ... .. A ... : ... .. . ... ... : ... .. 3 ... ... : ... .. 3 ... ... : ... .. . ... ...
ROW DA : ... .. . ... ... ... : ... .. . ... ... ... : ... .. . ... : ... .. 8 ... : ... .. . ... ... : ... .. . ... ... : ... .. . ... ... : ... .. . ... ...
ROW DB : ... .. . ... ... ... : ... .. . ... ... ... : --- .. . ... : ... .. 7 ... : ... .. . ... ... : ... .. 2 ... ... : ... .. 2 ... ... : ... .. . ... ...
ROW DC : ... .. . ... ... ... : ... .. . ... ... ... : A#2 00 . ... : 1-# 00 F ... : ... .. . ... ... : C-5 01 A ... ... : C-4 01 A ... ... : A#3 01 A ... ...
ROW DD : ... .. . ... ... ... : ... .. . ... ... ... : ... .. . ... : ... .. C ... : ... .. . ... ... : ... .. 9 ... ... : ... .. 9 ... ... : ... .. 8 ... ...
ROW DE : ... .. . ... ... ... : ... .. . ... ... ... : ... .. . ... : ... .. 6 ... : ... .. . ... ... : ... .. 8 ... ... : ... .. 8 ... ... : ... .. 5 ... ...
ROW DF : ... .. 5 ... ... ... : ... .. 5 ... ... ... : ... .. . ... : ... .. 3 ... : ... .. . ... ... : ... .. 5 ... ... : ... .. 5 ... ... : ... .. . ... ...
ROW E0 : ... .. . ... ... ... : ... .. . ... ... ... : ... .. . ... : ... .. 2 ... : ... .. . ... ... : ... .. . ... ... : ... .. . ... ... : ... .. . ... ...
ROW E1 : ... .. . ... ... ... : ... .. . ... ... ... : --- .. . ... : ... .. 0 ... : ... .. . ... ... : ... .. 3 ... ... : ... .. 3 ... ... : ... .. . ... ...
ROW E2 : ... .. . ... ... ... : ... .. . ... ... ... : A#2 00 . ... : ... .. F ... : ... .. . ... ... : ... .. 6 ... ... : ... .. 6 ... ... : C#4 01 A ... ...
ROW E3 : ... .. . ... ... ... : ... .. . ... ... ... : ... .. . ... : ... .. C ... : ... .. . ... ... : ... .. . ... ... : ... .. . ... ... : ... .. 8 ... ...
ROW E4 : ... .. . ... ... ... : ... .. . ... ... ... : ... .. . ... : ... .. 6 ... : ... .. . ... ... : ... .. 5 ... ... : ... .. 5 ... ... : ... .. 5 ... ...
ROW E5 : ... .. . ... ... ... : ... .. . ... ... ... : ... .. . ... : ... .. 3 ... : ... .. . ... ... : ... .. 3 ... ... : ... .. 3 ... ... : ... .. . ... ...
ROW E6 : ... .. . ... ... ... : ... .. . ... ... ... : ... .. . ... : ... .. 2 ... : ... .. . ... ... : ... .. . ... ... : ... .. . ... ... : ... .. . ... ...
ROW E7 : ... .. . ... ... ... : ... .. . ... ... ... : --- .. . ... : ... .. 0 ... : ... .. . ... ... : ... .. 2 ... ... : ... .. 2 ... ... : ... .. . ... ...
ROW E8 : ... .. . P85 ... ... : G-3 00 8 ... ... ... : A#2 00 . ... : 4-# 00 D ... : ... .. . ... ... : A#5 01 A ... ... : A#4 01 A ... ... : A#2 01 A ... ...
ROW E9 : ... .. . P87 ... ... : ... .. 7 ... ... ... : ... .. . ... : ... .. B ... : ... .. . ... ... : ... .. 9 ... ... : ... .. 9 ... ... : ... .. 8 ... ...
ROW EA : ... .. . P86 ... ... : ... .. 6 ... ... ... : ... .. . ... : ... .. . ... : ... .. . ... ... : ... .. 8 ... ... : ... .. 8 ... ... : ... .. 5 ... ...
ROW EB : ... .. . P83 ... ... : ... .. 5 ... ... ... : ... .. . ... : ... .. A ... : ... .. . ... ... : ... .. 5 ... ... : ... .. 5 ... ... : ... .. . ... ...
ROW EC : ... .. . P7F ... ... : ... .. . ... ... ... : ... .. . ... : ... .. 8 ... : ... .. . ... ... : ... .. . ... ... : ... .. . ... ... : ... .. . ... ...
ROW ED : ... .. . P7C ... ... : ... .. . ... ... ... : --- .. . ... : ... .. 7 ... : ... .. . ... ... : ... .. 3 ... ... : ... .. 3 ... ... : ... .. . ... ...
ROW EE : ... .. . P7B ... ... : ... .. . ... ... ... : A#2 00 . ... : 1-# 00 F ... : ... .. . ... ... : ... .. 6 ... ... : ... .. 6 ... ... : C-3 01 A ... ...
ROW EF : ... .. . P7D ... ... : ... .. . ... ... ... : ... .. . ... : ... .. C ... : ... .. . ... ... : ... .. . ... ... : ... .. . ... ... : ... .. 8 ... ...
ROW F0 : ... .. . P81 ... ... : ... .. . ... ... ... : ... .. . ... : ... .. 6 ... : ... .. . ... ... : ... .. 5 ... ... : ... .. 5 ... ... : ... .. 5 ... ...
ROW F1 : ... .. . P84 ... ... : ... .. . ... ... ... : ... .. . ... : ... .. 3 ... : ... .. . ... ... : ... .. 3 ... ... : ... .. 3 ... ... : ... .. . ... ...
ROW F2 : ... .. . P87 ... ... : ... .. . ... ... ... : ... .. . ... : ... .. 2 ... : ... .. . ... ... : ... .. . ... ... : ... .. . ... ... : ... .. . ... ...
ROW F3 : ... .. . ... ... ... : ... .. . ... ... ... : --- .. . ... : ... .. 0 ... : ... .. . ... ... : ... .. 2 ... ... : ... .. 2 ... ... : ... .. . ... ...
ROW F4 : ... .. 6 P83 ... ... : ... .. 6 ... ... ... : A#2 00 . ... : ... .. F ... : ... .. . ... ... : E-5 01 A ... ... : E-4 01 A ... ... : C#3 01 A ... ...
ROW F5 : ... .. . P80 ... ... : ... .. . ... ... ... : ... .. . ... : ... .. C ... : ... .. . ... ... : ... .. 9 ... ... : ... .. 9 ... ... : ... .. 8 ... ...
ROW F6 : ... .. . P7C ... ... : ... .. . ... ... ... : ... .. . ... : ... .. 6 ... : ... .. . ... ... : ... .. 8 ... ... : ... .. 8 ... ... : ... .. 5 ... ...
ROW F7 : ... .. . P7B ... ... : ... .. . ... ... ... : ... .. . ... : ... .. 3 ... : ... .. . ... ... : ... .. 5 ... ... : ... .. 5 ... ... : ... .. . ... ...
ROW F8 : ... .. . P7D ... ... : ... .. . ... ... ... : ... .. . ... : ... .. 2 ... : ... .. . ... ... : ... .. . ... ... : ... .. . ... ... : ... .. . ... ...
ROW F9 : ... .. . P81 ... ... : ... .. . ... ... ... : --- .. . ... : ... .. 0 ... : ... .. . ... ... : ... .. 3 ... ... : ... .. 3 ... ... : ... .. . ... ...
ROW FA : ... .. . P84 ... ... : ... .. . ... ... ... : A#2 00 . ... : 4-# 00 D ... : ... .. . ... ... : ... .. 6 ... ... : ... .. 6 ... ... : F-3 01 A ... ...
ROW FB : ... .. . P87 ... ... : ... .. . ... ... ... : ... .. . ... : ... .. B ... : ... .. . ... ... : ... .. . ... ... : ... .. . ... ... : ... .. 8 ... ...
ROW FC : ... .. . ... ... ... : ... .. . ... ... ... : ... .. . ... : ... .. . ... : ... .. . ... ... : ... .. 5 ... ... : ... .. 5 ... ... : ... .. 5 ... ...
ROW FD : ... .. . P84 ... ... : ... .. . ... ... ... : ... .. . ... : ... .. A ... : ... .. . ... ... : ... .. 3 ... ... : ... .. 3 ... ... : ... .. . ... ...
ROW FE : ... .. . P81 ... ... : ... .. . ... ... ... : ... .. . ... : ... .. 8 ... : ... .. . ... ... : ... .. . ... ... : ... .. . ... ... : ... .. . ... ...
ROW FF : ... .. . P7D ... ... : ... .. . ... ... ... : --- .. . ... : ... .. 7 ... : ... .. . ... ... : ... .. 2 ... ... : ... .. 2 ... ... : ... .. . ... ...

PATTERN 0F
ROW 00 : ... .. . P7B ... ... : ... .. . ... ... ... : A#2 00 . ... : 1-# 00 F ... : ... .. . ... ... : D-5 01 A ... ... : D-4 01 A ... ... : A#3 01 A ... ...
ROW 01 : ... .. . P7C ... ... : ... .. . ... ... ... : ... .. . ... : ... .. C ... : ... .. . ... ... : ... .. 9 ... ... : ... .. 9 ... ... : ... .. 8 ... ...
ROW 02 : ... .. . P80 ... ... : ... .. . ... ... ... : ... .. . ... : ... .. 6 ... : ... .. . ... ... : ... .. 8 ... ... : ... .. 8 ... ... : ... .. 5 ... ...
ROW 03 : ... .. . P83 ... ... : ... .. . ... ... ... : ... .. . ... : ... .. 3 ... : ... .. . ... ... : ... .. 5 ... ... : ... .. 5 ... ... : ... .. . ... ...
ROW 04 : ... .. . P87 ... ... : ... .. . ... ... ... : ... .. . ... : ... .. 2 ... : ... .. . ... ... : ... .. . ... ... : ... .. . ... ... : ... .. . ... ...
ROW 05 : ... .. . ... ... ... : ... .. . ... ... ... : --- .. . ... : ... .. 0 ... : ... .. . ... ... : ... .. 3 ... ... : ... .. 3 ... ... : ... .. . ... ...
ROW 06 : ... .. . P84 ... ... : ... .. . ... ... ... : A#2 00 . ... : ... .. F ... : ... .. . ... ... : ... .. 6 ... ... : ... .. 6 ... ... : C#4 01 A ... ...
ROW 07 : ... .. . P81 ... ... : ... .. . ... ... ... : ... .. . ... : ... .. C ... : ... .. . ... ... : ... .. . ... ... : ... .. . ... ... : ... .. 8 ... ...
ROW 08 : ... .. . P7D ... ... : ... .. . ... ... ... : ... .. . ... : ... .. 6 ... : ... .. . ... ... : ... .. 5 ... ... : ... .. 5 ... ... : ... .. 5 ... ...
ROW 09 : ... .. 7 P7B ... ... : ... .. 7 ... ... ... : ... .. . ... : ... .. 3 ... : ... .. . ... ... : ... .. 3 ... ... : ... .. 3 ... ... : ... .. . ... ...
ROW 0A : ... .. . P7C ... ... : ... .. . ... ... ... : ... .. . ... : ... .. 2 ... : ... .. . ... ... : ... .. . ... ... : ... .. . ... ... : ... .. . ... ...
ROW 0B : ... .. . P7F ... ... : ... .. . ... ... ... : --- .. . ... : ... .. 0 ... : ... .. . ... ... : ... .. 2 ... ... : ... .. 2 ... ... : ... .. . ... ...
ROW 0C : ... .. . P83 ... ... : A#3 00 B ... ... ... : A#2 00 . ... : 4-# 00 D ... : ... .. . ... ... : E-5 01 A ... ... : E-4 01 A ... ... : A#2 01 A ... ...
ROW 0D : ... .. . P86 ... ... : ... .. A ... ... ... : ... .. . ... : ... .. B ... : ... .. . ... ... : ... .. 9 ... ... : ... .. 9 ... ... : ... .. 8 ... ...
ROW 0E : ... .. . P87 ... ... : ... .. 9 ... ... ... : ... .. . ... : ... .. . ... : ... .. . ... ... : ... .. 8 ... ... : ... .. 8 ... ... : ... .. 5 ... ...
ROW 0F : ... .. . P85 ... ... : ... .. 7 ... ... ... : ... .. . ... : ... .. A ... : ... .. . ... ... : ... .. 5 ... ... : ... .. 5 ... ... : ... .. . ... ...
ROW 10 : ... .. . P81 ... ... : ... .. . ... ... ... : ... .. . ... : ... .. 8 ... : ... .. . ... ... : ... .. . ... ... : ... .. . ... ... : ... .. . ... ...
ROW 11 : ... .. . P7E ... ... : ... .. . ... ... ... : --- .. . ... : ... .. 7 ... : ... .. . ... ... : ... .. 3 ... ... : ... .. 3 ... ... : ... .. . ... ...
ROW 12 : ... .. 8 P7B ... ... : ... .. 8 ... ... ... : A#2 00 . ... : 1-# 00 F ... : ... .. . ... ... : ... .. 6 ... ... : ... .. 6 ... ... : C-3 01 A ... ...
ROW 13 : ... .. . ... ... ... : ... .. . ... ... ... : ... .. . ... : ... .. C ... : ... .. . ... ... : ... .. . ... ... : ... .. . ... ... : ... .. 8 ... ...
ROW 14 : ... .. . P7F ... ... : ... .. . ... ... ... : ... .. . ... : ... .. 6 ... : ... .. . ... ... : ... .. 5 ... ... : ... .. 5 ... ... : ... .. 5 ... ...
ROW 15 : ... .. . P82 ... ... : ... .. . ... ... ... : ... .. . ... : ... .. 3 ... : ... .. . ... ... : ... .. 3 ... ... : ... .. 3 ... ... : ... .. . ... ...
ROW 16 : ... .. . P86 ... ... : ... .. . ... ... ... : ... .. . ... : ... .. 2 ... : ... .. . ... ... : ... .. . ... ... : ... .. . ... ... : ... .. . ... ...
ROW 17 : ... .. . P87 ... ... : ... .. . ... ... ... : --- .. . ... : ... .. 0 ... : ... .. . ... ... : ... .. 2 ... ... : ... .. 2 ... ... : ... .. . ... ...
ROW 18 : ... .. . P85 ... ... : ... .. . ... ... ... : A#2 00 . ... : 4-# 00 D ... : ... .. . ... ... : F-4 01 A ... ... : F-3 01 A ... ... : C#3 01 A ... ...
ROW 19 : ... .. . P81 ... ... : ... .. . ... ... ... : ... .. . ... : ... .. B ... : ... .. . ... ... : ... .. 9 ... ... : ... .. 9 ... ... : ... .. 8 ... ...
ROW 1A : ... .. . P7E ... ... : ... .. . ... ... ... : ... .. . ... : ... .. . ... : ... .. . ... ... : ... .. 8 ... ... : ... .. 8 ... ... : ... .. 5 ... ...
ROW 1B : ... .. . P7B ... ... : ... .. . ... ... ... : ... .. . ... : ... .. A ... : ... .. . ... ... : ... .. 5 ... ... : ... .. 5 ... ... : ... .. . ... ...
ROW 1C : ... .. . ... ... ... : ... .. . ... ... ... : ... .. . ... : ... .. 8 ... : ... .. . ... ... : ... .. . ... ... : ... .. . ... ... : ... .. . ... ...
ROW 1D : ... .. . P7E ... ... : ... .. . ... ... ... : --- .. . ... : ... .. 7 ... : ... .. . ... ... : ... .. 3 ... ... : ... .. 3 ... ... : ... .. . ... ...
ROW 1E : ... .. . P81 ... ... : ... .. . ... ... ... : A#2 00 . ... : 1-# 00 F ... : ... .. . ... ... : ... .. 6 ... ... : ... .. 6 ... ... : F-3 01 A ... ...
ROW 1F : ... .. . P85 ... ... : ... .. . ... ... ... : ... .. . ... : ... .. C ... : ... .. . ... ... : ... .. . ... ... : ... .. . ... ... : ... .. 8 ... ...
ROW 20 : ... .. . P87 ... ... : ... .. . ... ... ... : ... .. . ... : ... .. 6 ... : ... .. . ... ... : ... .. 5 ... ... : ... .. 5 ... ... : ... .. 5 ... ...
ROW 21 : ... .. . P86 ... ... : ... .. . ... ... ... : ... .. . ... : ... .. 3 ... : ... .. . ... ... : ... .. 3 ... ... : ... .. 3 ... ... : ... .. . ... ...
ROW 22 : ... .. . P82 ... ... : ... .. . ... ... ... : ... .. . ... : ... .. 2 ... : ... .. . ... ... : ... .. . ... ... : ... .. . ... ... : ... .. . ... ...
ROW 23 : ... .. . P7F ... ... : ... .. . ... ... ... : --- .. . ... : ... .. 0 ... : ... .. . ... ... : ... .. 2 ... ... : ... .. 2 ... ... : ... .. . ... ...
ROW 24 : ... .. . P7B ... ... : ... .. . ... ... ... : A#2 00 . ... : 4-# 00 D ... : ... .. . ... ... : G-4 01 A ... ... : G-3 01 A ... ... : A#3 01 A ... ...
ROW 25 : ... .. . ... ... ... : ... .. . ... ... ... : ... .. . ... : ... .. B ... : ... .. . ... ... : ... .. 9 ... ... : ... .. 9 ... ... : ... .. 8 ... ...
ROW 26 : ... .. . P7E ... ... : ... .. . ... ... ... : ... .. . ... : ... .. . ... : ... .. . ... ... : ... .. 8 ... ... : ... .. 8 ... ... : ... .. 5 ... ...
ROW 27 : ... .. 9 P81 ... ... : ... .. 9 ... ... ... : ... .. . ... : ... .. A ... : ... .. . ... ... : ... .. 5 ... ... : ... .. 5 ... ... : ... .. . ... ...
ROW 28 : ... .. . P85 ... ... : ... .. . ... ... ... : ... .. . ... : ... .. 8 ... : ... .. . ... ... : ... .. . ... ... : ... .. . ... ... : ... .. . ... ...
ROW 29 : ... .. . P87 ... ... : ... .. . ... ... ... : --- .. . ... : ... .. 7 ... : ... .. . ... ... : ... .. 3 ... ... : ... .. 3 ... ... : ... .. . ... ...
ROW 2A : ... .. . P86 ... ... : ... .. . ... ... ... : A#2 00 . ... : 1-# 00 F ... : ... .. . ... ... : ... .. 6 ... ... : ... .. 6 ... ... : C#4 01 A ... ...
ROW 2B : ... .. . P83 ... ... : ... .. . ... ... ... : ... .. . ... : ... .. C ... : ... .. . ... ... : ... .. . ... ... : ... .. . ... ... : ... .. 8 ... ...
ROW 2C : ... .. . P7F ... ... : ... .. . ... ... ... : ... .. . ... : ... .. 6 ... : ... .. . ... ... : ... .. 5 ... ... : ... .. 5 ... ... : ... .. 5 ... ...
ROW 2D : ... .. . P7C ... ... : ... .. . ... ... ... : ... .. . ... : ... .. 3 ... : ... .. . ... ... : ... .. 3 ... ... : ... .. 3 ... ... : ... .. . ... ...
ROW 2E : ... .. . P7B ... ... : ... .. . ... ... ... : ... .. . ... : ... .. 2 ... : ... .. . ... ... : ... .. . ... ... : ... .. . ... ... : ... .. . ... ...
ROW 2F : ... .. . P7D ... ... : ... .. . ... ... ... : --- .. . ... : ... .. 0 ... : ... .. . ... ... : ... .. 2 ... ... : ... .. 2 ... ... : ... .. . ... ...
ROW 30 : G-2 00 D P81 ... ... : B-3 00 F ... ... ... : D#4 00 . ... : D-# 00 F ... : ... .. . ... ... : A#5 01 A ... ... : A#4 01 A ... ... : B-3 01 A ... ...
ROW 31 : ... .. B ... ... ... : ... .. E ... ... ... : F-3 00 . ... : ... .. . ... : ... .. . ... ... : ... .. 9 ... ... : ... .. 9 ... ... : ... .. 8 ... ...
ROW 32 : ... .. . ... ... ... : ... .. D ... ... ... : A#2 00 . ... : ... .. . ... : ... .. . ... ... : ... .. 8 ... ... : ... .. 8 ... ... : ... .. 5 ... ...
ROW 33 : ... .. A ... ... ... : ... .. A ... ... ... : A-2 00 . ... : C-# 00 D ... : ... .. . ... ... : ... .. 5 ... ... : ... .. 5 ... ... : ... .. . ... ...
ROW 34 : ... .. 8 ... ... ... : ... .. . ... ... ... : E-2 00 . ... : ... .. . ... : ... .. . ... ... : ... .. . ... ... : ... .. . ... ... : ... .. . ... ...
ROW 35 : ... .. 7 ... ... ... : ... .. . ... ... ... : --- .. . ... : ... .. . ... : ... .. . ... ... : ... .. 3 ... ... : ... .. 3 ... ... : ... .. . ... ...
ROW 36 : B-2 00 D ... ... ... : ... .. . ... ... ... : E-2 00 . ... : B-# 00 B ... : ... .. . ... ... : ... .. 6 ... ... : ... .. 6 ... ... : C-4 01 A ... ...
ROW 37 : ... .. B ... ... ... : ... .. . ... ... ... : ... .. . ... : ... .. . ... : ... .. . ... ... : ... .. . ... ... : ... .. . ... ... : ... .. 8 ... ...
ROW 38 : ... .. . ... ... ... : ... .. . ... ... ... : ... .. . ... : ... .. . ... : ... .. . ... ... : ... .. 5 ... ... : ... .. 5 ... ... : ... .. 5 ... ...
ROW 39 : ... .. A ... ... ... : ... .. . ... ... ... : ... .. . ... : ... .. 9 ... : ... .. . ... ... : ... .. 3 ... ... : ... .. 3 ... ... : ... .. . ... ...
ROW 3A : ... .. 8 ... ... ... : ... .. . ... ... ... : ... .. . ... : ... .. . ... : ... .. . ... ... : ... .. . ... ... : ... .. . ... ... : ... .. . ... ...
ROW 3B : ... .. 7 ... ... ... : ... .. . ... ... ... : --- .. . ... : ... .. . ... : ... .. . ... ... : ... .. 2 ... ... : ... .. 2 ... ... : ... .. . ... ...
ROW 3C : C-3 00 D ... ... ... : ... .. . ... ... ... : E-2 00 . ... : ... .. 7 ... : ... .. . ... ... : E-5 01 A ... ... : E-4 01 A ... ... : E-4 01 A ... ...
ROW 3D : ... .. B ... ... ... : ... .. . ... ... ... : ... .. . ... : ... .. . ... : ... .. . ... ... : ... .. 9 ... ... : ... .. 9 ... ... : ... .. 8 ... ...
ROW 3E : ... .. . ... ... ... : ... .. . ... ... ... : ... .. . ... : ... .. . ... : ... .. . ... ... : ... .. 8 ... ... : ... .. 8 ... ... : ... .. 5 ... ...
ROW 3F : ... .. A ... ... ... : ... .. . ... ... ... : ... .. . ... : ... .. 5 ... : ... .. . ... ... : ... .. 5 ... ... : ... .. 5 ... ... : ... .. . ... ...
ROW 40 : ... .. 8 ... ... ... : ... .. . ... ... ... : ... .. . ... : ... .. . ... : ... .. . ... ... : ... .. . ... ... : ... .. . ... ... : ... .. . ... ...
ROW 41 : ... .. 7 ... ... ... : ... .. . ... ... ... : --- .. . ... : ... .. . ... : ... .. . ... ... : ... .. 3 ... ... : ... .. 3 ... ... : ... .. . ... ...
ROW 42 : B-2 00 D ... ... ... : ... .. . ... ... ... : E-2 00 . ... : 5-# 00 D ... : ... .. . ... ... : ... .. 6 ... ... : ... .. 6 ... ... : G-4 01 A ... ...
ROW 43 : ... .. B ... ... ... : ... .. . ... ... ... : ... .. . ... : ... .. B ... : ... .. . ... ... : ... .. . ... ... : ... .. . ... ... : ... .. 8 ... ...
ROW 44 : ... .. . ... ... ... : ... .. . ... ... ... : ... .. . ... : ... .. . ... : ... .. . ... ... : ... .. 5 ... ... : ... .. 5 ... ... : ... .. 5 ... ...
ROW 45 : ... .. A ... ... ... : ... .. . ... ... ... : ... .. . ... : ... .. A ... : ... .. . ... ... : ... .. 3 ... ... : ... .. 3 ... ... : ... .. . ... ...
ROW 46 : ... .. 8 ... ... ... : ... .. . ... ... ... : ... .. . ... : ... .. 8 ... : ... .. . ... ... : ... .. . ... ... : ... .. . ... ... : ... .. . ... ...
ROW 47 : ... .. 7 ... ... ... : ... .. . ... ... ... : --- .. . ... : ... .. 7 ... : ... .. . ... ... : ... .. 2 ... ... : ... .. 2 ... ... : ... .. . ... ...
ROW 48 : C-3 00 D ... ... ... : ... .. . ... ... ... : E-2 00 . ... : 1-# 00 F ... : ... .. . ... ... : D#5 01 A ... ... : D#4 01 A ... ... : E-4 01 A ... ...
ROW 49 : ... .. B ... ... ... : ... .. . ... ... ... : ... .. . ... : ... .. C ... : ... .. . ... ... : ... .. 9 ... ... : ... .. 9 ... ... : ... .. 8 ... ...
ROW 4A : ... .. . ... ... ... : ... .. . ... ... ... : ... .. . ... : ... .. 6 ... : ... .. . ... ... : ... .. 8 ... ... : ... .. 8 ... ... : ... .. 5 ... ...
ROW 4B : ... .. A ... ... ... : ... .. . ... ... ... : ... .. . ... : ... .. 3 ... : ... .. . ... ... : ... .. 5 ... ... : ... .. 5 ... ... : ... .. . ... ...
ROW 4C : ... .. 8 ... ... ... : ... .. . ... ... ... : ... .. . ... : ... .. 2 ... : ... .. . ... ... : ... .. . ... ... : ... .. . ... ... : ... .. . ... ...
ROW 4D : ... .. 7 ... ... ... : ... .. . ... ... ... : --- .. . ... : ... .. 0 ... : ... .. . ... ... : ... .. 3 ... ... : ... .. 3 ... ... : ... .. . ... ...
ROW 4E : E-3 00 D ... ... ... : ... .. . ... ... ... : E-2 00 . ... : ... .. F ... : ... .. . ... ... : ... .. 6 ... ... : ... .. 6 ... ... : C-4 01 A ... ...
ROW 4F : ... .. B ... ... ... : ... .. . ... ... ... : ... .. . ... : ... .. C ... : ... .. . ... ... : ... .. . ... ... : ... .. . ... ... : ... .. 8 ... ...
ROW 50 : ... .. . ... ... ... : ... .. . ... ... ... : ... .. . ... : ... .. 6 ... : ... .. . ... ... : ... .. 5 ... ... : ... .. 5 ... ... : ... .. 5 ... ...
ROW 51 : ... .. A ... ... ... : ... .. . ... ... ... : ... .. . ... : ... .. 3 ... : ... .. . ... ... : ... .. 3 ... ... : ... .. 3 ... ... : ... .. . ... ...
ROW 52 : ... .. 8 ... ... ... : ... .. . ... ... ... : ... .. . ... : ... .. 2 ... : ... .. . ... ... : ... .. . ... ... : ... .. . ... ... : ... .. . ... ...
ROW 53 : ... .. 7 ... ... ... : ... .. . ... ... ... : --- .. . ... : ... .. 0 ... : ... .. . ... ... : ... .. 2 ... ... : ... .. 2 ... ... : ... .. . ... ...
ROW 54 : D#3 00 D ... ... ... : ... .. . ... ... ... : E-2 00 . ... : 5-# 00 D ... : ... .. . ... ... : E-5 01 A ... ... : E-4 01 A ... ... : B-3 01 A ... ...
ROW 55 : ... .. B ... ... ... : ... .. . ... ... ... : ... .. . ... : ... .. B ... : ... .. . ... ... : ... .. 9 ... ... : ... .. 9 ... ... : ... .. 8 ... ...
ROW 56 : ... .. . ... ... ... : ... .. . ... ... ... : ... .. . ... : ... .. . ... : ... .. . ... ... : ... .. 8 ... ... : ... .. 8 ... ... : ... .. 5 ... ...
ROW 57 : ... .. A ... ... ... : ... .. . ... ... ... : ... .. . ... : ... .. A ... : ... .. . ... ... : ... .. 5 ... ... : ... .. 5 ... ... : ... .. . ... ...
ROW 58 : ... .. 8 ... ... ... : ... .. . ... ... ... : ... .. . ... : ... .. 8 ... : ... .. . ... ... : ... .. . ... ... : ... .. . ... ... : ... .. . ... ...
ROW 59 : ... .. 7 ... ... ... : ... .. . ... ... ... : --- .. . ... : ... .. 7 ... : ... .. . ... ... : ... .. 3 ... ... : ... .. 3 ... ... : ... .. . ... ...
ROW 5A : E-3 00 D ... ... ... : ... .. . ... ... ... : E-2 00 . ... : ... .. F ... : ... .. . ... ... : ... .. 6 ... ... : ... .. 6 ... ... : C-4 01 A ... ...
ROW 5B : ... .. B ... ... ... : ... .. . ... ... ... : ... .. . ... : ... .. C ... : ... .. . ... ... : ... .. . ... ... : ... .. . ... ... : ... .. 8 ... ...
ROW 5C : ... .. . ... ... ... : ... .. . ... ... ... : ... .. . ... : ... .. 6 ... : ... .. . ... ... : ... .. 5 ... ... : ... .. 5 ... ... : ... .. 5 ... ...
ROW 5D : ... .. A ... ... ... : ... .. . ... ... ... : ... .. . ... : ... .. 3 ... : ... .. . ... ... : ... .. 3 ... ... : ... .. 3 ... ... : ... .. . ... ...
ROW 5E : ... .. 8 ... ... ... : ... .. . ... ... ... : ... .. . ... : ... .. 2 ... : ... .. . ... ... : ... .. . ... ... : ... .. . ... ... : ... .. . ... ...
ROW 5F : ... .. 7 ... ... ... : ... .. . ... ... ... : --- .. . ... : ... .. 0 ... : ... .. . ... ... : ... .. 2 ... ... : ... .. 2 ... ... : ... .. . ... ...
ROW 60 : F#3 00 D ... ... ... : ... .. . ... ... ... : E-2 00 . ... : F-# 00 F ... : ... .. . ... ... : A#4 01 A ... ... : A#3 01 A ... ... : E-4 01 A ... ...
ROW 61 : ... .. B ... ... ... : ... .. . ... ... ... : ... .. . ... : ... .. C ... : ... .. . ... ... : ... .. 9 ... ... : ... .. 9 ... ... : ... .. 8 ... ...
ROW 62 : ... .. . ... ... ... : ... .. . ... ... ... : ... .. . ... : ... .. 6 ... : ... .. . ... ... : ... .. 8 ... ... : ... .. 8 ... ... : ... .. 5 ... ...
ROW 63 : ... .. A ... ... ... : ... .. . ... ... ... : ... .. . ... : ... .. 3 ... : ... .. . ... ... : ... .. 5 ... ... : ... .. 5 ... ... : ... .. . ... ...
ROW 64 : ... .. 8 ... ... ... : ... .. . ... ... ... : ... .. . ... : ... .. 2 ... : ... .. . ... ... : ... .. . ... ... : ... .. . ... ... : ... .. . ... ...
ROW 65 : ... .. 7 ... ... ... : ... .. . ... ... ... : --- .. . ... : ... .. 0 ... : ... .. . ... ... : ... .. 3 ... ... : ... .. 3 ... ... : ... .. . ... ...
ROW 66 : G-3 00 D ... ... ... : ... .. . ... ... ... : E-2 00 . ... : D-# 00 F ... : ... .. . ... ... : ... .. 6 ... ... : ... .. 6 ... ... : G-4 01 A ... ...
ROW 67 : ... .. B ... ... ... : ... .. . ... ... ... : ... .. . ... : ... .. C ... : ... .. . ... ... : ... .. . ... ... : ... .. . ... ... : ... .. 8 ... ...
ROW 68 : ... .. . ... ... ... : ... .. . ... ... ... : ... .. . ... : ... .. 6 ... : ... .. . ... ... : ... .. 5 ... ... : ... .. 5 ... ... : ... .. 5 ... ...
ROW 69 : ... .. A ... ... ... : ... .. . ... ... ... : ... .. . ... : ... .. 3 ... : ... .. . ... ... : ... .. 3 ... ... : ... .. 3 ... ... : ... .. . ... ...
ROW 6A : ... .. 8 ... ... ... : ... .. . ... ... ... : ... .. . ... : ... .. 2 ... : ... .. . ... ... : ... .. . ... ... : ... .. . ... ... : ... .. . ... ...
ROW 6B : ... .. 7 ... ... ... : ... .. . ... ... ... : --- .. . ... : ... .. 0 ... : ... .. . ... ... : ... .. 2 ... ... : ... .. 2 ... ... : ... .. . ... ...
ROW 6C : A#3 00 D ... ... ... : ... .. . ... ... ... : E-2 00 . ... : B-# 00 F ... : ... .. . ... ... : B-4 01 A ... ... : B-3 01 A ... ... : E-4 01 A ... ...
ROW 6D : ... .. B ... ... ... : C-4 00 A P7D ... ... : ... .. . ... : ... .. C ... : ... .. . ... ... : ... .. 9 ... ... : ... .. 9 ... ... : ... .. 8 ... ...
ROW 6E : ... .. . ... ... ... : ... .. . P86 ... ... : ... .. . ... : ... .. 6 ... : ... .. . ... ... : ... .. 8 ... ... : ... .. 8 ... ... : ... .. 5 ... ...
ROW 6F : ... .. A ... ... ... : C#4 00 A P83 ... ... : ... .. . ... : ... .. 3 ... : ... .. . ... ... : ... .. 5 ... ... : ... .. 5 ... ... : ... .. . ... ...
ROW 70 : ... .. 8 ... ... ... : D-4 00 A P80 ... ... : ... .. . ... : ... .. 2 ... : ... .. . ... ... : ... .. . ... ... : ... .. . ... ... : ... .. . ... ...
ROW 71 : ... .. 7 ... ... ... : D#4 00 A P7F ... ... : --- .. . ... : ... .. 0 ... : ... .. . ... ... : ... .. 3 ... ... : ... .. 3 ... ... : ... .. . ... ...
ROW 72 : B-3 00 D ... ... ... : E-4 00 A P7E ... ... : E-2 00 . ... : 8-# 00 F ... : ... .. . ... ... : ... .. 6 ... ... : ... .. 6 ... ... : C-4 01 A ... ...
ROW 73 : ... .. B ... ... ... : F-4 00 A P7D ... ... : ... .. . ... : ... .. C ... : ... .. . ... ... : ... .. . ... ... : ... .. . ... ... : ... .. 8 ... ...
ROW 74 : ... .. . ... ... ... : F#4 00 A ... ... ... : ... .. . ... : ... .. 6 ... : ... .. . ... ... : ... .. 5 ... ... : ... .. 5 ... ... : ... .. 5 ... ...
ROW 75 : ... .. A ... ... ... : G-4 00 A P7E ... ... : ... .. . ... : ... .. 3 ... : ... .. . ... ... : ... .. 3 ... ... : ... .. 3 ... ... : ... .. . ... ...
ROW 76 : ... .. 8 ... ... ... : G#4 00 A P7F ... ... : ... .. . ... : ... .. 2 ... : ... .. . ... ... : ... .. . ... ... : ... .. . ... ... : ... .. . ... ...
ROW 77 : ... .. 7 ... ... ... : A-4 00 A P80 ... ... : --- .. . ... : ... .. 0 ... : ... .. . ... ... : ... .. 2 ... ... : ... .. 2 ... ... : ... .. . ... ...
ROW 78 : D#4 00 D ... ... ... : A#4 00 A P82 ... ... : E-3 00 . ... : 1-# 00 F ... : ... .. . ... ... : A#5 01 A ... ... : A#4 01 A ... ... : B-3 01 A ... ...
ROW 79 : ... .. B ... ... ... : B-4 00 A P80 ... ... : ... .. . ... : ... .. C ... : ... .. . ... ... : ... .. 9 ... ... : ... .. 9 ... ... : ... .. 8 ... ...
ROW 7A : ... .. . ... ... ... : ... .. . ... ... ... : ... .. . ... : ... .. 6 ... : ... .. . ... ... : ... .. 8 ... ... : ... .. 8 ... ... : ... .. 5 ... ...
ROW 7B : ... .. A ... ... ... : ... .. . ... ... ... : ... .. . ... : ... .. 3 ... : ... .. . ... ... : ... .. 5 ... ... : ... .. 5 ... ... : ... .. . ... ...
ROW 7C : ... .. 8 ... ... ... : ... .. . ... ... ... : ... .. . ... : ... .. 2 ... : ... .. . ... ... : ... .. . ... ... : ... .. . ... ... : ... .. . ... ...
ROW 7D : ... .. 7 ... ... ... : ... .. . ... ... ... : --- .. . ... : ... .. 0 ... : ... .. . ... ... : ... .. 3 ... ... : ... .. 3 ... ... : ... .. . ... ...
ROW 7E : E-4 00 D ... ... ... : ... .. . ... ... ... : E-2 00 . ... : 9-# 00 F ... : ... .. . ... ... : ... .. 6 ... ... : ... .. 6 ... ... : C-4 01 A ... ...
ROW 7F : ... .. B ... ... ... : ... .. . ... ... ... : ... .. . ... : ... .. C ... : ... .. . ... ... : ... .. . ... ... : ... .. . ... ... : ... .. 8 ... ...
ROW 80 : ... .. . ... ... ... : ... .. . ... ... ... : ... .. . ... : ... .. 6 ... : ... .. . ... ... : ... .. 5 ... ... : ... .. 5 ... ... : ... .. 5 ... ...
ROW 81 : ... .. A ... ... ... : ... .. . ... ... ... : ... .. . ... : ... .. 3 ... : ... .. . ... ... : ... .. 3 ... ... : ... .. 3 ... ... : ... .. . ... ...
ROW 82 : ... .. 8 ... ... ... : ... .. . ... ... ... : ... .. . ... : ... .. 2 ... : ... .. . ... ... : ... .. . ... ... : ... .. . ... ... : ... .. . ... ...
ROW 83 : ... .. 7 ... ... ... : ... .. . ... ... ... : --- .. . ... : ... .. 0 ... : ... .. . ... ... : ... .. 2 ... ... : ... .. 2 ... ... : ... .. . ... ...
ROW 84 : G-4 00 D ... ... ... : C-5 00 A P7E ... ... : E-2 00 . ... : D-# 00 F ... : ... .. . ... ... : E-5 01 A ... ... : E-4 01 A ... ... : E-4 01 A ... ...
ROW 85 : ... .. B ... ... ... : ... .. . P80 ... ... : ... .. . ... : ... .. C ... : ... .. . ... ... : ... .. 9 ... ... : ... .. 9 ... ... : ... .. 8 ... ...
ROW 86 : ... .. . ... ... ... : ... .. . P7F ... ... : ... .. . ... : ... .. 6 ... : ... .. . ... ... : ... .. 8 ... ... : ... .. 8 ... ... : ... .. 5 ... ...
ROW 87 : ... .. A ... ... ... : B-4 00 A P82 ... ... : ... .. . ... : ... .. 3 ... : ... .. . ... ... : ... .. 5 ... ... : ... .. 5 ... ... : ... .. . ... ...
ROW 88 : ... .. 8 ... ... ... : ... .. . P7E ... ... : ... .. . ... : ... .. 2 ... : ... .. . ... ... : ... .. . ... ... : ... .. . ... ... : ... .. . ... ...
ROW 89 : ... .. 7 ... ... ... : A#4 00 A P82 ... ... : --- .. . ... : ... .. 0 ... : ... .. . ... ... : ... .. 3 ... ... : ... .. 3 ... ... : ... .. . ... ...
ROW 8A : D#4 00 D ... ... ... : ... .. . P81 ... ... : F#3 00 . ... : ... .. D ... : ... .. . ... ... : ... .. 6 ... ... : ... .. 6 ... ... : G-4 01 A ... ...
ROW 8B : ... .. B ... ... ... : ... .. . P83 ... ... : ... .. . ... : ... .. B ... : ... .. . ... ... : ... .. . ... ... : ... .. . ... ... : ... .. 8 ... ...
ROW 8C : ... .. . ... ... ... : B-4 00 A P80 ... ... : ... .. . ... : ... .. . ... : ... .. . ... ... : ... .. 5 ... ... : ... .. 5 ... ... : ... .. 5 ... ...
ROW 8D : ... .. A ... ... ... : ... .. . P83 ... ... : ... .. . ... : ... .. A ... : ... .. . ... ... : ... .. 3 ... ... : ... .. 3 ... ... : ... .. . ... ...
ROW 8E : ... .. 8 ... ... ... : C-5 00 A P80 ... ... : ... .. . ... : ... .. 8 ... : ... .. . ... ... : ... .. . ... ... : ... .. . ... ... : ... .. . ... ...
ROW 8F : ... .. 7 ... ... ... : ... .. . ... ... ... : --- .. . ... : ... .. 7 ... : ... .. . ... ... : ... .. 2 ... ... : ... .. 2 ... ... : ... .. . ... ...
ROW 90 : E-4 00 D ... ... ... : B-4 00 A P82 ... ... : F#2 00 . ... : 1-# 00 F ... : ... .. . ... ... : D#5 01 A ... ... : D#4 01 A ... ... : E-4 01 A ... ...
ROW 91 : ... .. B ... ... ... : ... .. . P7F ... ... : ... .. . ... : ... .. C ... : ... .. . ... ... : ... .. 9 ... ... : ... .. 9 ... ... : ... .. 8 ... ...
ROW 92 : ... .. . ... ... ... : A#4 00 A P82 ... ... : ... .. . ... : ... .. 6 ... : ... .. . ... ... : ... .. 8 ... ... : ... .. 8 ... ... : ... .. 5 ... ...
ROW 93 : ... .. A ... ... ... : ... .. . P81 ... ... : ... .. . ... : ... .. 3 ... : ... .. . ... ... : ... .. 5 ... ... : ... .. 5 ... ... : ... .. . ... ...
ROW 94 : ... .. 8 ... ... ... : ... .. . P83 ... ... : ... .. . ... : ... .. 2 ... : ... .. . ... ... : ... .. . ... ... : ... .. . ... ... : ... .. . ... ...
ROW 95 : ... .. 7 ... ... ... : B-4 00 A P80 ... ... : --- .. . ... : ... .. 0 ... : ... .. . ... ... : ... .. 3 ... ... : ... .. 3 ... ... : ... .. . ... ...
ROW 96 : F#4 00 D ... ... ... : ... .. . P83 ... ... : F#2 00 . ... : A-# 00 F ... : ... .. . ... ... : ... .. 6 ... ... : ... .. 6 ... ... : C-4 01 A ... ...
ROW 97 : ... .. B ... ... ... : C-5 00 A P80 ... ... : ... .. . ... : ... .. C ... : ... .. . ... ... : ... .. . ... ... : ... .. . ... ... : ... .. 8 ... ...
ROW 98 : ... .. . ... ... ... : ... .. . ... ... ... : ... .. . ... : ... .. 6 ... : ... .. . ... ... : ... .. 5 ... ... : ... .. 5 ... ... : ... .. 5 ... ...
ROW 99 : ... .. A ... ... ... : B-4 00 A P83 ... ... : ... .. . ... : ... .. 3 ... : ... .. . ... ... : ... .. 3 ... ... : ... .. 3 ... ... : ... .. . ... ...
ROW 9A : ... .. 8 ... ... ... : ... .. . P80 ... ... : ... .. . ... : ... .. 2 ... : ... .. . ... ... : ... .. . ... ... : ... .. . ... ... : ... .. . ... ...
ROW 9B : ... .. 7 ... ... ... : A#4 00 A P83 ... ... : --- .. . ... : ... .. 0 ... : ... .. . ... ... : ... .. 2 ... ... : ... .. 2 ... ... : ... .. . ... ...
ROW 9C : G-4 00 D ... ... ... : ... .. . P81 ... ... : G-3 00 . ... : 5-# 00 D ... : ... .. . ... ... : E-5 01 A ... ... : E-4 01 A ... ... : B-3 01 A ... ...
ROW 9D : ... .. B ... ... ... : ... .. . P82 ... ... : ... .. . ... : ... .. B ... : ... .. . ... ... : ... .. 9 ... ... : ... .. 9 ... ... : ... .. 8 ... ...
ROW 9E : ... .. . ... ... ... : B-4 00 A P7F ... ... : ... .. . ... : ... .. . ... : ... .. . ... ... : ... .. 8 ... ... : ... .. 8 ... ... : ... .. 5 ... ...
ROW 9F : ... .. A ... ... ... : ... .. . P82 ... ... : ... .. . ... : ... .. A ... : ... .. . ... ... : ... .. 5 ... ... : ... .. 5 ... ... : ... .. . ... ...
ROW A0 : ... .. 8 ... ... ... : C-5 00 A P80 ... ... : ... .. . ... : ... .. 8 ... : ... .. . ... ... : ... .. . ... ... : ... .. . ... ... : ... .. . ... ...
ROW A1 : ... .. 7 ... ... ... : ... .. . ... ... ... : --- .. . ... : ... .. 7 ... : ... .. . ... ... : ... .. 3 ... ... : ... .. 3 ... ... : ... .. . ... ...
ROW A2 : A#4 00 D ... ... ... : B-4 00 A P83 ... ... : G-2 00 . ... : 0-# 00 F ... : ... .. . ... ... : ... .. 6 ... ... : ... .. 6 ... ... : C-4 01 A ... ...
ROW A3 : ... .. B ... ... ... : ... .. . P80 ... ... : ... .. . ... : ... .. C ... : ... .. . ... ... : ... .. . ... ... : ... .. . ... ... : ... .. 8 ... ...
ROW A4 : ... .. . ... ... ... : A#4 00 A P83 ... ... : ... .. . ... : ... .. 6 ... : ... .. . ... ... : ... .. 5 ... ... : ... .. 5 ... ... : ... .. 5 ... ...
ROW A5 : ... .. A ... ... ... : ... .. . P81 ... ... : ... .. . ... : ... .. 3 ... : ... .. . ... ... : ... .. 3 ... ... : ... .. 3 ... ... : ... .. . ... ...
ROW A6 : ... .. 8 ... ... ... : ... .. . P82 ... ... : ... .. . ... : ... .. 2 ... : ... .. . ... ... : ... .. . ... ... : ... .. . ... ... : ... .. . ... ...
ROW A7 : ... .. 7 ... ... ... : B-4 00 A P7E ... ... : --- .. . ... : ... .. 0 ... : ... .. . ... ... : ... .. 2 ... ... : ... .. 2 ... ... : ... .. . ... ...
ROW A8 : B-4 00 D ... ... ... : ... .. . P82 ... ... : G-2 00 . ... : D-# 00 F ... : ... .. . ... ... : F#4 01 A ... ... : F#3 01 A ... ... : E-4 01 A ... ...
ROW A9 : ... .. B ... ... ... : C-5 00 A P7F ... ... : ... .. . ... : ... .. C ... : ... .. . ... ... : ... .. 9 ... ... : ... .. 9 ... ... : ... .. 8 ... ...
ROW AA : ... .. . ... ... ... : ... .. . P80 ... ... : ... .. . ... : ... .. 0 ... : ... .. . ... ... : ... .. 8 ... ... : ... .. 8 ... ... : ... .. 5 ... ...
ROW AB : ... .. A ... ... ... : ... .. . P7E ... ... : ... .. . ... : ... .. F ... : ... .. . ... ... : ... .. 5 ... ... : ... .. 5 ... ... : ... .. . ... ...
ROW AC : ... .. 8 ... ... ... : B-4 00 A P80 ... ... : ... .. . ... : ... .. C ... : ... .. . ... ... : ... .. . ... ... : ... .. . ... ... : ... .. . ... ...
ROW AD : ... .. 7 ... ... ... : ... .. . P7D ... ... : --- .. . ... : ... .. 0 ... : ... .. . ... ... : ... .. 3 ... ... : ... .. 3 ... ... : ... .. . ... ...
ROW AE : A#4 00 D ... ... ... : A#4 00 A P81 ... ... : B-3 00 . ... : ... .. F ... : ... .. . ... ... : ... .. 6 ... ... : ... .. 6 ... ... : G-4 01 A ... ...
ROW AF : ... .. B ... ... ... : ... .. . ... ... ... : ... .. . ... : ... .. C ... : ... .. . ... ... : ... .. . ... ... : ... .. . ... ... : ... .. 8 ... ...
ROW B0 : ... .. . ... ... ... : B-4 00 A P7E ... ... : ... .. . ... : ... .. 0 ... : ... .. . ... ... : ... .. 5 ... ... : ... .. 5 ... ... : ... .. 5 ... ...
ROW B1 : ... .. A ... ... ... : ... .. . P81 ... ... : ... .. . ... : ... .. . ... : ... .. . ... ... : ... .. 3 ... ... : ... .. 3 ... ... : ... .. . ... ...
ROW B2 : ... .. 8 ... ... ... : C-5 00 A P7F ... ... : ... .. . ... : ... .. . ... : ... .. . ... ... : ... .. . ... ... : ... .. . ... ... : ... .. . ... ...
ROW B3 : ... .. 7 ... ... ... : ... .. . P80 ... ... : --- .. . ... : ... .. . ... : ... .. . ... ... : ... .. 2 ... ... : ... .. 2 ... ... : ... .. . ... ...
ROW B4 : B-4 00 D ... ... ... : ... .. . P7E ... ... : B-2 00 . ... : 5-# 00 D ... : ... .. . ... ... : G-4 01 A ... ... : G-3 01 A ... ... : E-4 01 A ... ...
ROW B5 : ... .. B ... ... ... : B-4 00 A P80 ... ... : ... .. . ... : ... .. B ... : ... .. . ... ... : ... .. 9 ... ... : ... .. 9 ... ... : ... .. 8 ... ...
ROW B6 : ... .. . ... ... ... : ... .. . P7D ... ... : ... .. . ... : ... .. . ... : ... .. . ... ... : ... .. 8 ... ... : ... .. 8 ... ... : ... .. 5 ... ...
ROW B7 : ... .. A ... ... ... : A#4 00 A P81 ... ... : ... .. . ... : ... .. A ... : ... .. . ... ... : ... .. 5 ... ... : ... .. 5 ... ... : ... .. . ... ...
ROW B8 : ... .. 8 ... ... ... : ... .. 2 ... ... ... : ... .. . ... : ... .. 8 ... : ... .. . ... ... : ... .. . ... ... : ... .. . ... ... : ... .. . ... ...
ROW B9 : ... .. 7 ... ... ... : B-4 00 2 P7D ... ... : --- .. . ... : ... .. 7 ... : ... .. . ... ... : ... .. 3 ... ... : ... .. 3 ... ... : ... .. . ... ...
ROW BA : C#5 00 D ... ... ... : ... .. . P80 ... ... : B-2 00 . ... : F-# 00 D ... : ... .. . ... ... : ... .. 6 ... ... : ... .. 6 ... ... : C-4 01 A ... ...
ROW BB : ... .. B ... ... ... : C-5 00 1 P7E ... ... : ... .. . ... : ... .. B ... : ... .. . ... ... : ... .. . ... ... : ... .. . ... ... : ... .. 8 ... ...
ROW BC : ... .. . ... ... ... : ... .. . P80 ... ... : ... .. . ... : ... .. . ... : ... .. . ... ... : ... .. 5 ... ... : ... .. 5 ... ... : ... .. 5 ... ...
ROW BD : ... .. A ... ... ... : B-4 00 1 ... ... ... : ... .. . ... : ... .. A ... : ... .. . ... ... : ... .. 3 ... ... : ... .. 3 ... ... : ... .. . ... ...
ROW BE : ... .. 8 ... ... ... : ... .. 0 ... ... ... : ... .. . ... : ... .. 8 ... : ... .. . ... ... : ... .. . ... ... : ... .. . ... ... : ... .. . ... ...
ROW BF : ... .. 7 ... ... ... : ... .. . ... ... ... : ... .. . ... : ... .. 7 ... : ... .. . ... ... : ... .. 2 ... ... : ... .. 2 ... ... : ... .. . ... ...
ROW C0 : B-4 00 D ... ... ... : B-2 00 F P81 ... ... : A#3 00 . ... : 2-# 00 F ... : ... .. . ... ... : F#3 01 A ... ... : E-3 01 A ... ... : B-1 01 F ... ...
ROW C1 : ... .. B ... ... ... : ... .. E ... ... ... : C-3 00 . ... : ... .. . ... : ... .. . ... ... : ... .. 9 ... ... : ... .. 9 ... ... : ... .. D ... ...
ROW C2 : ... .. . ... ... ... : ... .. D ... ... ... : F-2 00 . ... : ... .. . ... : ... .. . ... ... : ... .. 8 ... ... : ... .. 8 ... ... : ... .. 8 ... ...
ROW C3 : ... .. A ... ... ... : ... .. A ... ... ... : E-2 00 . ... : ... .. E ... : ... .. . ... ... : ... .. 7 ... ... : ... .. 7 ... ... : ... .. . ... ...
ROW C4 : ... .. 8 ... ... ... : ... .. . ... ... ... : B-1 00 . ... : ... .. . ... : ... .. . ... ... : ... .. . ... ... : ... .. . ... ... : ... .. 4 ... ...
ROW C5 : ... .. 7 ... ... ... : ... .. . ... ... ... : ... .. . ... : ... .. . ... : ... .. . ... ... : ... .. 6 ... ... : ... .. 6 ... ... : ... .. . ... ...
ROW C6 : F#4 00 D ... ... ... : B-0 00 F ... ... ... : ... .. . ... : ... .. . ... : ... .. . ... ... : ... .. . ... ... : ... .. . ... ... : B-0 01 F ... ...
ROW C7 : ... .. B ... ... ... : ... .. E ... ... ... : ... .. . ... : ... .. . ... : ... .. . ... ... : ... .. 5 ... ... : ... .. 5 ... ... : ... .. D ... ...
ROW C8 : ... .. . ... ... ... : ... .. D ... ... ... : ... .. . ... : ... .. . ... : ... .. . ... ... : ... .. . ... ... : ... .. . ... ... : ... .. 8 ... ...
ROW C9 : ... .. A ... ... ... : ... .. A ... ... ... : ... .. . ... : ... .. . ... : ... .. . ... ... : ... .. . ... ... : ... .. . ... ... : ... .. . ... ...
ROW CA : ... .. 8 ... ... ... : ... .. 2 ... ... ... : ... .. . ... : ... .. . ... : ... .. . ... ... : ... .. . ... ... : ... .. . ... ... : ... .. 4 ... ...
ROW CB : ... .. 7 ... ... ... : ... .. . ... ... ... : ... .. . ... : ... .. . ... : ... .. . ... ... : ... .. . ... ... : ... .. . ... ... : ... .. . ... ...
ROW CC : B-3 00 D ... ... ... : ... .. F ... ... ... : ... .. . ... : 1-# 00 D ... : ... .. . ... ... : ... .. . ... ... : ... .. . ... ... : ... .. F ... ...
ROW CD : ... .. B ... ... ... : ... .. E ... ... ... : ... .. . ... : ... .. . ... : ... .. . ... ... : ... .. . ... ... : ... .. . ... ... : ... .. D ... ...
ROW CE : ... .. . ... ... ... : ... .. D ... ... ... : ... .. . ... : ... .. . ... : ... .. . ... ... : ... .. 3 ... ... : ... .. 3 ... ... : ... .. 8 ... ...
ROW CF : ... .. A ... ... ... : ... .. A ... ... ... : ... .. . ... : ... .. . ... : ... .. . ... ... : ... .. . ... ... : ... .. . ... ... : ... .. . ... ...
ROW D0 : ... .. 8 ... ... ... : ... .. 2 ... ... ... : ... .. . ... : ... .. . ... : ... .. . ... ... : ... .. . ... ... : ... .. . ... ... : ... .. 4 ... ...
ROW D1 : ... .. 7 ... ... ... : ... .. . ... ... ... : ... .. . ... : ... .. . ... : ... .. . ... ... : ... .. . ... ... : ... .. . ... ... : ... .. . ... ...
ROW D2 : A-3 00 D ... ... ... : B-2 00 F ... ... ... : A#3 00 . ... : 0-# 00 D ... : ... .. . ... ... : ... .. A ... ... : ... .. A ... ... : B-1 01 F ... ...
ROW D3 : ... .. B ... ... ... : ... .. E ... ... ... : C-3 00 . ... : ... .. . ... : ... .. . ... ... : ... .. 9 ... ... : ... .. 9 ... ... : ... .. D ... ...
ROW D4 : ... .. . ... ... ... : ... .. D ... ... ... : F-2 00 . ... : ... .. . ... : ... .. . ... ... : ... .. 8 ... ... : ... .. 8 ... ... : ... .. 8 ... ...
ROW D5 : ... .. A ... ... ... : ... .. A ... ... ... : E-2 00 . ... : ... .. C ... : ... .. . ... ... : ... .. 7 ... ... : ... .. 7 ... ... : ... .. . ... ...
ROW D6 : ... .. 8 ... ... ... : ... .. . ... ... ... : B-1 00 . ... : ... .. . ... : ... .. . ... ... : ... .. . ... ... : ... .. . ... ... : ... .. 4 ... ...
ROW D7 : ... .. 7 ... ... ... : ... .. . ... ... ... : ... .. . ... : ... .. . ... : ... .. . ... ... : ... .. 6 ... ... : ... .. 6 ... ... : ... .. . ... ...
ROW D8 : B-3 00 D ... ... ... : B-0 00 F ... ... ... : ... .. . ... : ... .. . ... : ... .. . ... ... : ... .. . ... ... : ... .. . ... ... : B-0 01 F ... ...
ROW D9 : ... .. B ... ... ... : ... .. E ... ... ... : ... .. . ... : ... .. . ... : ... .. . ... ... : ... .. 5 ... ... : ... .. 5 ... ... : ... .. D ... ...
ROW DA : ... .. . ... ... ... : ... .. D ... ... ... : ... .. . ... : ... .. . ... : ... .. . ... ... : ... .. . ... ... : ... .. . ... ... : ... .. 8 ... ...
ROW DB : ... .. A ... ... ... : ... .. A ... ... ... : ... .. . ... : ... .. . ... : ... .. . ... ... : ... .. . ... ... : ... .. . ... ... : ... .. . ... ...
ROW DC : ... .. 8 ... ... ... : ... .. 2 ... ... ... : ... .. . ... : ... .. . ... : ... .. . ... ... : ... .. . ... ... : ... .. . ... ... : ... .. 4 ... ...
ROW DD : ... .. 7 ... ... ... : ... .. . ... ... ... : ... .. . ... : ... .. . ... : ... .. . ... ... : ... .. . ... ... : ... .. . ... ... : ... .. . ... ...
ROW DE : F#4 00 D ... ... ... : ... .. F ... ... ... : ... .. . ... : ... .. . ... : ... .. . ... ... : ... .. . ... ... : ... .. . ... ... : ... .. F ... ...
ROW DF : ... .. B ... ... ... : ... .. E ... ... ... : ... .. . ... : ... .. . ... : ... .. . ... ... : ... .. . ... ... : ... .. . ... ... : ... .. D ... ...
ROW E0 : ... .. . ... ... ... : ... .. D ... ... ... : ... .. . ... : ... .. . ... : ... .. . ... ... : ... .. 3 ... ... : ... .. 3 ... ... : ... .. 8 ... ...
ROW E1 : ... .. A ... ... ... : ... .. A ... ... ... : ... .. . ... : ... .. B ... : ... .. . ... ... : ... .. . ... ... : ... .. . ... ... : ... .. . ... ...
ROW E2 : ... .. 8 ... ... ... : ... .. 2 ... ... ... : ... .. . ... : ... .. . ... : ... .. . ... ... : ... .. . ... ... : ... .. . ... ... : ... .. 4 ... ...
ROW E3 : ... .. 7 ... ... ... : ... .. . ... ... ... : ... .. . ... : ... .. . ... : ... .. . ... ... : ... .. . ... ... : ... .. . ... ... : ... .. . ... ...
ROW E4 : B-4 00 D ... ... ... : C-3 00 F ... ... ... : A#3 00 . ... : ... .. . ... : ... .. . ... ... : G-3 01 A ... ... : F-3 01 A ... ... : B-1 01 F ... ...
ROW E5 : ... .. B ... ... ... : ... .. E ... ... ... : C-3 00 . ... : ... .. . ... : ... .. . ... ... : ... .. 9 ... ... : ... .. 9 ... ... : ... .. D ... ...
ROW E6 : ... .. . ... ... ... : ... .. D ... ... ... : F-2 00 . ... : ... .. . ... : ... .. . ... ... : ... .. 8 ... ... : ... .. 8 ... ... : ... .. 8 ... ...
ROW E7 : ... .. A ... ... ... : ... .. A ... ... ... : E-2 00 . ... : ... .. . ... : ... .. . ... ... : ... .. 7 ... ... : ... .. 7 ... ... : ... .. . ... ...
ROW E8 : ... .. 8 ... ... ... : ... .. . ... ... ... : B-1 00 . ... : ... .. . ... : ... .. . ... ... : ... .. . ... ... : ... .. . ... ... : ... .. 4 ... ...
ROW E9 : ... .. 7 ... ... ... : ... .. . ... ... ... : ... .. . ... : ... .. . ... : ... .. . ... ... : ... .. 6 ... ... : ... .. 6 ... ... : ... .. . ... ...
ROW EA : C-5 00 D ... ... ... : B-0 00 F ... ... ... : ... .. . ... : ... .. A ... : ... .. . ... ... : ... .. . ... ... : ... .. . ... ... : B-0 01 F ... ...
ROW EB : ... .. B ... ... ... : ... .. E ... ... ... : ... .. . ... : ... .. . ... : ... .. . ... ... : ... .. 5 ... ... : ... .. 5 ... ... : ... .. D ... ...
ROW EC : ... .. . ... ... ... : ... .. D ... ... ... : ... .. . ... : ... .. . ... : ... .. . ... ... : ... .. . ... ... : ... .. . ... ... : ... .. 8 ... ...
ROW ED : ... .. A ... ... ... : ... .. A ... ... ... : ... .. . ... : ... .. . ... : ... .. . ... ... : ... .. . ... ... : ... .. . ... ... : ... .. . ... ...
ROW EE : ... .. 8 ... ... ... : ... .. 2 ... ... ... : ... .. . ... : ... .. . ... : ... .. . ... ... : ... .. . ... ... : ... .. . ... ... : ... .. 4 ... ...
ROW EF : ... .. 7 ... ... ... : ... .. . ... ... ... : ... .. . ... : ... .. . ... : ... .. . ... ... : ... .. . ... ... : ... .. . ... ... : ... .. . ... ...
ROW F0 : B-4 00 D ... ... ... : ... .. F ... ... ... : A#3 00 . ... : 1-# 00 A ... : ... .. . ... ... : ... .. . ... ... : ... .. . ... ... : ... .. F ... ...
ROW F1 : ... .. B ... ... ... : ... .. E ... ... ... : C-3 00 . ... : ... .. . ... : ... .. . ... ... : ... .. . ... ... : ... .. . ... ... : ... .. D ... ...
ROW F2 : ... .. . ... ... ... : ... .. D ... ... ... : F-2 00 . ... : ... .. . ... : ... .. . ... ... : ... .. 3 ... ... : ... .. 3 ... ... : ... .. 8 ... ...
ROW F3 : ... .. A ... ... ... : ... .. A ... ... ... : E-2 00 . ... : ... .. . ... : ... .. . ... ... : ... .. . ... ... : ... .. . ... ... : ... .. . ... ...
ROW F4 : ... .. 8 ... ... ... : ... .. 2 ... ... ... : B-1 00 . ... : ... .. . ... : ... .. . ... ... : ... .. . ... ... : ... .. . ... ... : ... .. 4 ... ...
ROW F5 : ... .. 7 ... ... ... : ... .. . ... ... ... : ... .. . ... : ... .. . ... : ... .. . ... ... : ... .. . ... ... : ... .. . ... ... : ... .. . ... ...
ROW F6 : F#4 00 D ... ... ... : C-3 00 F ... ... ... : ... .. . ... : 2-# 00 9 ... : ... .. . ... ... : ... .. A ... ... : ... .. A ... ... : B-1 01 F ... ...
ROW F7 : ... .. B ... ... ... : ... .. E ... ... ... : ... .. . ... : ... .. . ... : ... .. . ... ... : ... .. 9 ... ... : ... .. 9 ... ... : ... .. D ... ...
ROW F8 : ... .. . ... ... ... : ... .. D ... ... ... : ... .. . ... : ... .. . ... : ... .. . ... ... : ... .. 8 ... ... : ... .. 8 ... ... : ... .. 8 ... ...
ROW F9 : ... .. A ... ... ... : ... .. A ... ... ... : ... .. . ... : ... .. . ... : ... .. . ... ... : ... .. 7 ... ... : ... .. 7 ... ... : ... .. . ... ...
ROW FA : ... .. 8 ... ... ... : ... .. . ... ... ... : ... .. . ... : ... .. . ... : ... .. . ... ... : ... .. . ... ... : ... .. . ... ... : ... .. 4 ... ...
ROW FB : ... .. 7 ... ... ... : ... .. . ... ... ... : ... .. . ... : ... .. . ... : ... .. . ... ... : ... .. 6 ... ... : ... .. 6 ... ... : ... .. . ... ...
ROW FC : B-3 00 D ... ... ... : B-0 00 F ... ... ... : A#3 00 . ... : ... .. . ... : ... .. . ... ... : ... .. . ... ... : ... .. . ... ... : B-0 01 F ... ...
ROW FD : ... .. B ... ... ... : ... .. E ... ... ... : C-3 00 . ... : ... .. . ... : ... .. . ... ... : ... .. 5 ... ... : ... .. 5 ... ... : ... .. D ... ...
ROW FE : ... .. . ... ... ... : ... .. D ... ... ... : F-2 00 . ... : ... .. . ... : ... .. . ... ... : ... .. . ... ... : ... .. . ... ... : ... .. 8 ... ...
ROW FF : ... .. A ... ... ... : ... .. A ... ... ... : E-2 00 . ... : ... .. 8 ... : ... .. . ... ... : ... .. . ... ... : ... .. . ... ... : ... .. . ... ...

PATTERN 10
ROW 00 : ... .. 8 ... ... ... : ... .. 2 ... ... ... : B-1 00 . ... : ... .. . ... : ... .. . ... ... : ... .. . ... ... : ... .. . ... ... : ... .. 4 ... ...
ROW 01 : ... .. 7 ... ... ... : ... .. . ... ... ... : ... .. . ... : ... .. . ... : ... .. . ... ... : ... .. . ... ... : ... .. . ... ... : ... .. . ... ...
ROW 02 : A-3 00 D ... ... ... : ... .. F ... ... ... : ... .. . ... : 3-# 00 8 ... : ... .. . ... ... : ... .. . ... ... : ... .. . ... ... : ... .. F ... ...
ROW 03 : ... .. B ... ... ... : ... .. E ... ... ... : ... .. . ... : ... .. . ... : ... .. . ... ... : ... .. . ... ... : ... .. . ... ... : ... .. D ... ...
ROW 04 : ... .. . ... ... ... : ... .. D ... ... ... : ... .. . ... : ... .. . ... : ... .. . ... ... : ... .. 3 ... ... : ... .. 3 ... ... : ... .. 8 ... ...
ROW 05 : ... .. A ... ... ... : ... .. A ... ... ... : ... .. . ... : ... .. . ... : ... .. . ... ... : ... .. . ... ... : ... .. . ... ... : ... .. . ... ...
ROW 06 : ... .. 8 ... ... ... : ... .. 2 ... ... ... : ... .. . ... : ... .. . ... : ... .. . ... ... : ... .. . ... ... : ... .. . ... ... : ... .. 4 ... ...
ROW 07 : ... .. 7 ... ... ... : ... .. . ... ... ... : ... .. . ... : ... .. . ... : ... .. . ... ... : ... .. . ... ... : ... .. . ... ... : ... .. . ... ...
ROW 08 : B-3 00 D ... ... ... : D-3 00 F ... ... ... : A#3 00 . ... : ... .. 7 ... : ... .. . ... ... : A-3 01 A ... ... : G-3 01 A ... ... : B-1 01 F ... ...
ROW 09 : ... .. B ... ... ... : ... .. E ... ... ... : C-3 00 . ... : ... .. . ... : ... .. . ... ... : ... .. 9 ... ... : ... .. 9 ... ... : ... .. D ... ...
ROW 0A : ... .. . ... ... ... : ... .. D ... ... ... : F-2 00 . ... : ... .. . ... : ... .. . ... ... : ... .. 8 ... ... : ... .. 8 ... ... : ... .. 8 ... ...
ROW 0B : ... .. A ... ... ... : ... .. A ... ... ... : E-2 00 . ... : ... .. . ... : ... .. . ... ... : ... .. 7 ... ... : ... .. 7 ... ... : ... .. . ... ...
ROW 0C : ... .. 8 ... ... ... : ... .. . ... ... ... : B-1 00 . ... : ... .. . ... : ... .. . ... ... : ... .. . ... ... : ... .. . ... ... : ... .. 4 ... ...
ROW 0D : ... .. 7 ... ... ... : ... .. . ... ... ... : ... .. . ... : ... .. . ... : ... .. . ... ... : ... .. 6 ... ... : ... .. 6 ... ... : ... .. . ... ...
ROW 0E : F#3 00 D ... ... ... : B-0 00 F ... ... ... : ... .. . ... : ... .. . ... : ... .. . ... ... : ... .. . ... ... : ... .. . ... ... : B-0 01 F ... ...
ROW 0F : ... .. B ... ... ... : ... .. E ... ... ... : ... .. . ... : ... .. . ... : ... .. . ... ... : ... .. 5 ... ... : ... .. 5 ... ... : ... .. D ... ...
ROW 10 : ... .. . ... ... ... : ... .. D ... ... ... : ... .. . ... : ... .. . ... : ... .. . ... ... : ... .. . ... ... : ... .. . ... ... : ... .. 8 ... ...
ROW 11 : ... .. A ... ... ... : ... .. A ... ... ... : ... .. . ... : ... .. . ... : ... .. . ... ... : ... .. . ... ... : ... .. . ... ... : ... .. . ... ...
ROW 12 : ... .. 8 ... ... ... : ... .. 2 ... ... ... : ... .. . ... : ... .. . ... : ... .. . ... ... : ... .. . ... ... : ... .. . ... ... : ... .. 4 ... ...
ROW 13 : ... .. 7 ... ... ... : ... .. . ... ... ... : ... .. . ... : ... .. . ... : ... .. . ... ... : ... .. . ... ... : ... .. . ... ... : ... .. . ... ...
ROW 14 : B-2 00 D ... ... ... : ... .. F ... ... ... : ... .. . ... : 5-# 00 6 ... : ... .. . ... ... : ... .. . ... ... : ... .. . ... ... : ... .. F ... ...
ROW 15 : ... .. B ... ... ... : ... .. E ... ... ... : ... .. . ... : ... .. . ... : ... .. . ... ... : ... .. . ... ... : ... .. . ... ... : ... .. D ... ...
ROW 16 : ... .. . ... ... ... : ... .. D ... ... ... : ... .. . ... : ... .. . ... : ... .. . ... ... : ... .. 3 ... ... : ... .. 3 ... ... : ... .. 8 ... ...
ROW 17 : ... .. A ... ... ... : ... .. A ... ... ... : ... .. . ... : ... .. . ... : ... .. . ... ... : ... .. . ... ... : ... .. . ... ... : ... .. . ... ...
ROW 18 : ... .. 8 ... ... ... : ... .. 2 ... ... ... : ... .. . ... : ... .. . ... : ... .. . ... ... : ... .. . ... ... : ... .. . ... ... : ... .. 4 ... ...
ROW 19 : ... .. 7 ... ... ... : ... .. . ... ... ... : ... .. . ... : ... .. . ... : ... .. . ... ... : ... .. . ... ... : ... .. . ... ... : ... .. . ... ...
ROW 1A : A-2 00 D ... ... ... : D-3 00 F ... ... ... : A#3 00 . ... : 6-# 00 6 ... : ... .. . ... ... : ... .. A ... ... : ... .. A ... ... : B-1 01 F ... ...
ROW 1B : ... .. B ... ... ... : ... .. E ... ... ... : C-3 00 . ... : ... .. . ... : ... .. . ... ... : ... .. 9 ... ... : ... .. 9 ... ... : ... .. D ... ...
ROW 1C : ... .. . ... ... ... : ... .. D ... ... ... : F-2 00 . ... : ... .. . ... : ... .. . ... ... : ... .. 8 ... ... : ... .. 8 ... ... : ... .. 8 ... ...
ROW 1D : ... .. A ... ... ... : ... .. A ... ... ... : E-2 00 . ... : ... .. 5 ... : ... .. . ... ... : ... .. 7 ... ... : ... .. 7 ... ... : ... .. . ... ...
ROW 1E : ... .. 8 ... ... ... : ... .. . ... ... ... : B-1 00 . ... : ... .. . ... : ... .. . ... ... : ... .. . ... ... : ... .. . ... ... : ... .. 4 ... ...
ROW 1F : ... .. 7 ... ... ... : ... .. . ... ... ... : ... .. . ... : ... .. . ... : ... .. . ... ... : ... .. 6 ... ... : ... .. 6 ... ... : ... .. . ... ...
ROW 20 : B-2 00 D ... ... ... : B-0 00 F ... ... ... : ... .. . ... : 7-# 00 5 ... : ... .. . ... ... : ... .. . ... ... : ... .. . ... ... : B-0 01 F ... ...
ROW 21 : ... .. B ... ... ... : ... .. E ... ... ... : ... .. . ... : ... .. . ... : ... .. . ... ... : ... .. 5 ... ... : ... .. 5 ... ... : ... .. D ... ...
ROW 22 : ... .. . ... ... ... : ... .. D ... ... ... : ... .. . ... : ... .. . ... : ... .. . ... ... : ... .. . ... ... : ... .. . ... ... : ... .. 8 ... ...
ROW 23 : ... .. A ... ... ... : ... .. A ... ... ... : ... .. . ... : ... .. . ... : ... .. . ... ... : ... .. . ... ... : ... .. . ... ... : ... .. . ... ...
ROW 24 : ... .. 8 ... ... ... : ... .. 2 ... ... ... : ... .. . ... : ... .. . ... : ... .. . ... ... : ... .. . ... ... : ... .. . ... ... : ... .. 4 ... ...
ROW 25 : ... .. 7 ... ... ... : ... .. . ... ... ... : ... .. . ... : ... .. . ... : ... .. . ... ... : ... .. . ... ... : ... .. . ... ... : ... .. . ... ...
ROW 26 : F#3 00 D ... ... ... : ... .. F ... ... ... : ... .. . ... : 8-# 00 5 ... : ... .. . ... ... : ... .. . ... ... : ... .. . ... ... : ... .. F ... ...
ROW 27 : ... .. B ... ... ... : ... .. E ... ... ... : ... .. . ... : ... .. . ... : ... .. . ... ... : ... .. . ... ... : ... .. . ... ... : ... .. D ... ...
ROW 28 : ... .. . ... ... ... : ... .. D ... ... ... : ... .. . ... : ... .. . ... : ... .. . ... ... : ... .. 3 ... ... : ... .. 3 ... ... : ... .. 8 ... ...
ROW 29 : ... .. A ... ... ... : ... .. A ... ... ... : ... .. . ... : ... .. 4 ... : ... .. . ... ... : ... .. . ... ... : ... .. . ... ... : ... .. . ... ...
ROW 2A : ... .. 8 ... ... ... : ... .. 2 ... ... ... : ... .. . ... : ... .. . ... : ... .. . ... ... : ... .. . ... ... : ... .. . ... ... : ... .. 4 ... ...
ROW 2B : ... .. 7 ... ... ... : ... .. . ... ... ... : ... .. . ... : ... .. . ... : ... .. . ... ... : ... .. . ... ... : ... .. . ... ... : ... .. . ... ...
ROW 2C : B-3 00 D ... ... ... : E-3 00 F ... ... ... : A#3 00 . ... : 9-# 00 4 ... : ... .. . ... ... : B-3 01 A ... ... : A-3 01 A ... ... : B-1 01 F ... ...
ROW 2D : ... .. B ... ... ... : ... .. E ... ... ... : C-3 00 . ... : ... .. . ... : ... .. . ... ... : ... .. 9 ... ... : ... .. 9 ... ... : ... .. D ... ...
ROW 2E : ... .. . ... ... ... : ... .. D ... ... ... : F-2 00 . ... : ... .. . ... : ... .. . ... ... : ... .. 8 ... ... : ... .. 8 ... ... : ... .. 8 ... ...
ROW 2F : ... .. A ... ... ... : ... .. A ... ... ... : E-2 00 . ... : ... .. . ... : ... .. . ... ... : ... .. 7 ... ... : ... .. 7 ... ... : ... .. . ... ...
ROW 30 : ... .. 8 ... ... ... : ... .. . ... ... ... : B-1 00 . ... : ... .. . ... : ... .. . ... ... : ... .. . ... ... : ... .. . ... ... : ... .. 4 ... ...
ROW 31 : ... .. 7 ... ... ... : ... .. . ... ... ... : ... .. . ... : ... .. . ... : ... .. . ... ... : ... .. 6 ... ... : ... .. 6 ... ... : ... .. . ... ...
ROW 32 : C-4 00 D ... ... ... : B-0 00 F ... ... ... : ... .. . ... : A-# 00 3 ... : ... .. . ... ... : ... .. 5 ... ... : ... .. 5 ... ... : B-0 01 F ... ...
ROW 33 : ... .. B ... ... ... : ... .. E ... ... ... : ... .. . ... : ... .. . ... : ... .. . ... ... : ... .. . ... ... : ... .. . ... ... : ... .. D ... ...
ROW 34 : ... .. . ... ... ... : ... .. D ... ... ... : ... .. . ... : ... .. . ... : ... .. . ... ... : ... .. 3 ... ... : ... .. 3 ... ... : ... .. 8 ... ...
ROW 35 : ... .. A ... ... ... : ... .. A ... ... ... : ... .. . ... : ... .. . ... : ... .. . ... ... : ... .. . ... ... : ... .. . ... ... : ... .. . ... ...
ROW 36 : ... .. 8 ... ... ... : ... .. 2 ... ... ... : ... .. . ... : ... .. . ... : ... .. . ... ... : ... .. . ... ... : ... .. . ... ... : ... .. 4 ... ...
ROW 37 : ... .. 7 ... ... ... : ... .. . ... ... ... : ... .. . ... : ... .. . ... : ... .. . ... ... : ... .. . ... ... : ... .. . ... ... : ... .. . ... ...
ROW 38 : B-3 00 D ... ... ... : E-3 00 F ... ... ... : A#3 00 . ... : B-# 00 3 ... : ... .. . ... ... : ... .. A ... ... : ... .. A ... ... : B-1 01 F ... ...
ROW 39 : ... .. B ... ... ... : ... .. E ... ... ... : C-3 00 . ... : ... .. . ... : ... .. . ... ... : ... .. 9 ... ... : ... .. 9 ... ... : ... .. D ... ...
ROW 3A : ... .. . ... ... ... : ... .. D ... ... ... : F-2 00 . ... : ... .. . ... : ... .. . ... ... : ... .. 8 ... ... : ... .. 8 ... ... : ... .. 8 ... ...
ROW 3B : ... .. A ... ... ... : ... .. A ... ... ... : E-2 00 . ... : ... .. . ... : ... .. . ... ... : ... .. 7 ... ... : ... .. 7 ... ... : ... .. . ... ...
ROW 3C : ... .. 8 ... ... ... : ... .. . ... ... ... : B-1 00 . ... : ... .. . ... : ... .. . ... ... : ... .. . ... ... : ... .. . ... ... : ... .. 4 ... ...
ROW 3D : ... .. 7 ... ... ... : ... .. . ... ... ... : ... .. . ... : ... .. . ... : ... .. . ... ... : ... .. 6 ... ... : ... .. 6 ... ... : ... .. . ... ...
ROW 3E : F#3 00 D ... ... ... : B-0 00 F ... ... ... : ... .. . ... : C-# 00 2 ... : ... .. . ... ... : ... .. 5 ... ... : ... .. 5 ... ... : B-0 01 F ... ...
ROW 3F : ... .. B ... ... ... : ... .. E ... ... ... : ... .. . ... : ... .. . ... : ... .. . ... ... : ... .. . ... ... : ... .. . ... ... : ... .. D ... ...
ROW 40 : ... .. . ... ... ... : ... .. D ... ... ... : ... .. . ... : ... .. . ... : ... .. . ... ... : ... .. 3 ... ... : ... .. 3 ... ... : ... .. 8 ... ...
ROW 41 : ... .. A ... ... ... : ... .. A ... ... ... : ... .. . ... : ... .. . ... : ... .. . ... ... : ... .. . ... ... : ... .. . ... ... : ... .. . ... ...
ROW 42 : ... .. 8 ... ... ... : ... .. 2 ... ... ... : ... .. . ... : ... .. . ... : ... .. . ... ... : ... .. . ... ... : ... .. . ... ... : ... .. 4 ... ...
ROW 43 : ... .. 7 ... ... ... : ... .. . ... ... ... : ... .. . ... : ... .. . ... : ... .. . ... ... : ... .. . ... ... : ... .. . ... ... : ... .. . ... ...
ROW 44 : B-2 00 D ... ... ... : E-3 00 F ... ... ... : A#3 00 . ... : ... .. . ... : ... .. . ... ... : ... .. A ... ... : ... .. A ... ... : B-1 01 F ... ...
ROW 45 : ... .. B ... ... ... : ... .. E ... ... ... : C-3 00 . ... : ... .. . ... : ... .. . ... ... : ... .. 9 ... ... : ... .. 9 ... ... : ... .. D ... ...
ROW 46 : ... .. . ... ... ... : ... .. D ... ... ... : F-2 00 . ... : ... .. . ... : ... .. . ... ... : ... .. 8 ... ... : ... .. 8 ... ... : ... .. 8 ... ...
ROW 47 : ... .. A ... ... ... : ... .. A ... ... ... : E-2 00 . ... : ... .. 1 ... : ... .. . ... ... : ... .. 7 ... ... : ... .. 7 ... ... : ... .. . ... ...
ROW 48 : ... .. 8 ... ... ... : ... .. . ... ... ... : B-1 00 . ... : ... .. . ... : ... .. . ... ... : ... .. . ... ... : ... .. . ... ... : ... .. 4 ... ...
ROW 49 : ... .. 7 ... ... ... : ... .. . ... ... ... : ... .. . ... : ... .. . ... : ... .. . ... ... : ... .. 6 ... ... : ... .. 6 ... ... : ... .. . ... ...
ROW 4A : A-2 00 D ... ... ... : B-0 00 F ... ... ... : ... .. . ... : ... .. . ... : ... .. . ... ... : ... .. 5 ... ... : ... .. 5 ... ... : B-0 01 F ... ...
ROW 4B : ... .. B ... ... ... : ... .. E ... ... ... : ... .. . ... : ... .. . ... : ... .. . ... ... : ... .. . ... ... : ... .. . ... ... : ... .. D ... ...
ROW 4C : ... .. . ... ... ... : ... .. D ... ... ... : ... .. . ... : ... .. . ... : ... .. . ... ... : ... .. 3 ... ... : ... .. 3 ... ... : ... .. 8 ... ...
ROW 4D : ... .. A ... ... ... : ... .. A ... ... ... : ... .. . ... : ... .. . ... : ... .. . ... ... : ... .. . ... ... : ... .. . ... ... : ... .. . ... ...
ROW 4E : ... .. 8 ... ... ... : ... .. 2 ... ... ... : ... .. . ... : ... .. . ... : ... .. . ... ... : ... .. . ... ... : ... .. . ... ... : ... .. 4 ... ...
ROW 4F : ... .. 7 ... ... ... : ... .. . ... ... ... : ... .. . ... : ... .. . ... : ... .. . ... ... : ... .. . ... ... : ... .. . ... ... : ... .. . ... ...
ROW 50 : B-4 00 D ... ... ... : C-4 00 F ... ... ... : A#3 00 . ... : 4-# 00 1 ... : ... .. . ... ... : ... .. A ... ... : ... .. A ... ... : B-1 01 F ... ...
ROW 51 : ... .. B ... ... ... : ... .. E ... ... ... : C-3 00 . ... : ... .. . ... : ... .. . ... ... : ... .. 9 ... ... : ... .. 9 ... ... : ... .. D ... ...
ROW 52 : ... .. . ... ... ... : ... .. D ... ... ... : F-2 00 . ... : ... .. . ... : ... .. . ... ... : ... .. 8 ... ... : ... .. 8 ... ... : ... .. 8 ... ...
ROW 53 : ... .. A ... ... ... : ... .. A ... ... ... : E-2 00 . ... : ... .. . ... : ... .. . ... ... : ... .. 7 ... ... : ... .. 7 ... ... : ... .. . ... ...
ROW 54 : ... .. 8 ... ... ... : ... .. . ... ... ... : B-1 00 . ... : ... .. . ... : ... .. . ... ... : ... .. . ... ... : ... .. . ... ... : ... .. 4 ... ...
ROW 55 : ... .. 7 ... ... ... : ... .. . ... ... ... : ... .. . ... : ... .. . ... : ... .. . ... ... : ... .. 6 ... ... : ... .. 6 ... ... : ... .. . ... ...
ROW 56 : F#4 00 D ... ... ... : B-0 00 F ... ... ... : ... .. . ... : ... .. . ... : ... .. . ... ... : ... .. . ... ... : ... .. . ... ... : B-0 01 F ... ...
ROW 57 : ... .. B ... ... ... : ... .. E ... ... ... : ... .. . ... : ... .. . ... : ... .. . ... ... : ... .. 5 ... ... : ... .. 5 ... ... : ... .. D ... ...
ROW 58 : ... .. . ... ... ... : ... .. D ... ... ... : ... .. . ... : ... .. . ... : ... .. . ... ... : ... .. . ... ... : ... .. . ... ... : ... .. 8 ... ...
ROW 59 : ... .. A ... ... ... : ... .. A ... ... ... : ... .. . ... : ... .. . ... : ... .. . ... ... : ... .. . ... ... : ... .. . ... ... : ... .. . ... ...
ROW 5A : ... .. 8 ... ... ... : ... .. 2 ... ... ... : ... .. . ... : ... .. . ... : ... .. . ... ... : ... .. . ... ... : ... .. . ... ... : ... .. 4 ... ...
ROW 5B : ... .. 7 ... ... ... : ... .. . ... ... ... : ... .. . ... : ... .. . ... : ... .. . ... ... : ... .. . ... ... : ... .. . ... ... : ... .. . ... ...
ROW 5C : B-3 00 D ... ... ... : ... .. F ... ... ... : ... .. . ... : ... .. . ... : ... .. . ... ... : ... .. . ... ... : ... .. . ... ... : ... .. F ... ...
ROW 5D : ... .. B ... ... ... : ... .. E ... ... ... : ... .. . ... : ... .. . ... : ... .. . ... ... : ... .. . ... ... : ... .. . ... ... : ... .. D ... ...
ROW 5E : ... .. . ... ... ... : ... .. D ... ... ... : ... .. . ... : ... .. . ... : ... .. . ... ... : ... .. 3 ... ... : ... .. 3 ... ... : ... .. 8 ... ...
ROW 5F : ... .. A ... ... ... : ... .. A ... ... ... : ... .. . ... : ... .. . ... : ... .. . ... ... : ... .. . ... ... : ... .. . ... ... : ... .. . ... ...
ROW 60 : ... .. 8 ... ... ... : ... .. 2 ... ... ... : ... .. . ... : ... .. . ... : ... .. . ... ... : ... .. . ... ... : ... .. . ... ... : ... .. 4 ... ...
ROW 61 : ... .. 7 ... ... ... : ... .. . ... ... ... : ... .. . ... : ... .. . ... : ... .. . ... ... : ... .. . ... ... : ... .. . ... ... : ... .. . ... ...
ROW 62 : A-3 00 D ... ... ... : C-4 00 F ... ... ... : A#3 00 . ... : 6-# 00 1 ... : ... .. . ... ... : ... .. A ... ... : ... .. A ... ... : B-1 01 F ... ...
ROW 63 : ... .. B ... ... ... : ... .. E ... ... ... : C-3 00 . ... : ... .. . ... : ... .. . ... ... : ... .. 9 ... ... : ... .. 9 ... ... : ... .. D ... ...
ROW 64 : ... .. . ... ... ... : ... .. D ... ... ... : F-2 00 . ... : ... .. . ... : ... .. . ... ... : ... .. 8 ... ... : ... .. 8 ... ... : ... .. 8 ... ...
ROW 65 : ... .. A ... ... ... : ... .. A ... ... ... : E-2 00 . ... : ... .. 2 ... : ... .. . ... ... : ... .. 7 ... ... : ... .. 7 ... ... : ... .. . ... ...
ROW 66 : ... .. 8 ... ... ... : ... .. . ... ... ... : B-1 00 . ... : ... .. 1 ... : ... .. . ... ... : ... .. . ... ... : ... .. . ... ... : ... .. 4 ... ...
ROW 67 : ... .. 7 ... ... ... : ... .. . ... ... ... : ... .. . ... : ... .. . ... : ... .. . ... ... : ... .. 6 ... ... : ... .. 6 ... ... : ... .. . ... ...
ROW 68 : B-3 00 D ... ... ... : B-0 00 F ... ... ... : ... .. . ... : ... .. 2 ... : ... .. . ... ... : ... .. . ... ... : ... .. . ... ... : B-0 01 F ... ...
ROW 69 : ... .. B ... ... ... : ... .. E ... ... ... : ... .. . ... : ... .. . ... : ... .. . ... ... : ... .. 5 ... ... : ... .. 5 ... ... : ... .. D ... ...
ROW 6A : ... .. . ... ... ... : ... .. D ... ... ... : ... .. . ... : ... .. . ... : ... .. . ... ... : ... .. . ... ... : ... .. . ... ... : ... .. 8 ... ...
ROW 6B : ... .. A ... ... ... : ... .. A ... ... ... : ... .. . ... : ... .. . ... : ... .. . ... ... : ... .. . ... ... : ... .. . ... ... : ... .. . ... ...
ROW 6C : ... .. 8 ... ... ... : ... .. 2 ... ... ... : ... .. . ... : ... .. 1 ... : ... .. . ... ... : ... .. . ... ... : ... .. . ... ... : ... .. 4 ... ...
ROW 6D : ... .. 7 ... ... ... : ... .. . ... ... ... : ... .. . ... : ... .. . ... : ... .. . ... ... : ... .. . ... ... : ... .. . ... ... : ... .. . ... ...
ROW 6E : F#4 00 D ... ... ... : ... .. F ... ... ... : ... .. . ... : ... .. 2 ... : ... .. . ... ... : ... .. . ... ... : ... .. . ... ... : ... .. F ... ...
ROW 6F : ... .. B ... ... ... : ... .. E ... ... ... : ... .. . ... : ... .. . ... : ... .. . ... ... : ... .. . ... ... : ... .. . ... ... : ... .. D ... ...
ROW 70 : ... .. . ... ... ... : ... .. D ... ... ... : ... .. . ... : ... .. . ... : ... .. . ... ... : ... .. 3 ... ... : ... .. 3 ... ... : ... .. 8 ... ...
ROW 71 : ... .. A ... ... ... : ... .. A ... ... ... : ... .. . ... : ... .. . ... : ... .. . ... ... : ... .. . ... ... : ... .. . ... ... : ... .. . ... ...
ROW 72 : ... .. 8 ... ... ... : ... .. 2 ... ... ... : ... .. . ... : ... .. . ... : ... .. . ... ... : ... .. . ... ... : ... .. . ... ... : ... .. 4 ... ...
ROW 73 : ... .. 7 ... ... ... : ... .. . ... ... ... : ... .. . ... : ... .. 1 ... : ... .. . ... ... : ... .. . ... ... : ... .. . ... ... : ... .. . ... ...
ROW 74 : B-4 00 D ... ... ... : D-4 00 F ... ... ... : A#3 00 . ... : 8-# 00 3 ... : ... .. . ... ... : G-3 01 A ... ... : C-4 01 A ... ... : B-1 01 F ... ...
ROW 75 : ... .. B ... ... ... : ... .. E ... ... ... : C-3 00 . ... : ... .. 2 ... : ... .. . ... ... : ... .. 9 ... ... : ... .. 9 ... ... : ... .. D ... ...
ROW 76 : ... .. . ... ... ... : ... .. D ... ... ... : F-2 00 . ... : ... .. . ... : ... .. . ... ... : ... .. 8 ... ... : ... .. 8 ... ... : ... .. 8 ... ...
ROW 77 : ... .. A ... ... ... : ... .. A ... ... ... : E-2 00 . ... : ... .. . ... : ... .. . ... ... : ... .. 7 ... ... : ... .. 7 ... ... : ... .. . ... ...
ROW 78 : ... .. 8 ... ... ... : ... .. . ... ... ... : B-1 00 . ... : ... .. . ... : ... .. . ... ... : ... .. . ... ... : ... .. . ... ... : ... .. 4 ... ...
ROW 79 : ... .. 7 ... ... ... : ... .. . ... ... ... : ... .. . ... : ... .. 1 ... : ... .. . ... ... : ... .. 6 ... ... : ... .. 6 ... ... : ... .. . ... ...
ROW 7A : C-5 00 D ... ... ... : B-0 00 F ... ... ... : ... .. . ... : ... .. 4 ... : ... .. . ... ... : ... .. . ... ... : ... .. . ... ... : B-0 01 F ... ...
ROW 7B : ... .. B ... ... ... : ... .. E ... ... ... : ... .. . ... : ... .. 3 ... : ... .. . ... ... : ... .. 5 ... ... : ... .. 5 ... ... : ... .. D ... ...
ROW 7C : ... .. . ... ... ... : ... .. D ... ... ... : ... .. . ... : ... .. . ... : ... .. . ... ... : ... .. . ... ... : ... .. . ... ... : ... .. 8 ... ...
ROW 7D : ... .. A ... ... ... : ... .. A ... ... ... : ... .. . ... : ... .. . ... : ... .. . ... ... : ... .. . ... ... : ... .. . ... ... : ... .. . ... ...
ROW 7E : ... .. 8 ... ... ... : ... .. 2 ... ... ... : ... .. . ... : ... .. 2 ... : ... .. . ... ... : ... .. . ... ... : ... .. . ... ... : ... .. 4 ... ...
ROW 7F : ... .. 7 ... ... ... : ... .. . ... ... ... : ... .. . ... : ... .. . ... : ... .. . ... ... : ... .. . ... ... : ... .. . ... ... : ... .. . ... ...
ROW 80 : B-4 00 D ... ... ... : ... .. F ... ... ... : A#3 00 . ... : 9-# 00 4 ... : ... .. . ... ... : ... .. . ... ... : ... .. . ... ... : ... .. F ... ...
ROW 81 : ... .. B ... ... ... : ... .. E ... ... ... : C-3 00 . ... : ... .. 3 ... : ... .. . ... ... : ... .. . ... ... : ... .. . ... ... : ... .. D ... ...
ROW 82 : ... .. . ... ... ... : ... .. D ... ... ... : F-2 00 . ... : ... .. . ... : ... .. . ... ... : ... .. 3 ... ... : ... .. 3 ... ... : ... .. 8 ... ...
ROW 83 : ... .. A ... ... ... : ... .. A ... ... ... : E-2 00 . ... : ... .. . ... : ... .. . ... ... : ... .. . ... ... : ... .. . ... ... : ... .. . ... ...
ROW 84 : ... .. 8 ... ... ... : ... .. 2 ... ... ... : B-1 00 . ... : ... .. 2 ... : ... .. . ... ... : ... .. . ... ... : ... .. . ... ... : ... .. 4 ... ...
ROW 85 : ... .. 7 ... ... ... : ... .. . ... ... ... : ... .. . ... : ... .. . ... : ... .. . ... ... : ... .. . ... ... : ... .. . ... ... : ... .. . ... ...
ROW 86 : F#4 00 D ... ... ... : D-4 00 F ... ... ... : ... .. . ... : ... .. 5 ... : ... .. . ... ... : ... .. A ... ... : ... .. A ... ... : B-1 01 F ... ...
ROW 87 : ... .. B ... ... ... : ... .. E ... ... ... : ... .. . ... : ... .. 4 ... : ... .. . ... ... : ... .. 9 ... ... : ... .. 9 ... ... : ... .. D ... ...
ROW 88 : ... .. . ... ... ... : ... .. D ... ... ... : ... .. . ... : ... .. . ... : ... .. . ... ... : ... .. 8 ... ... : ... .. 8 ... ... : ... .. 8 ... ...
ROW 89 : ... .. A ... ... ... : ... .. A ... ... ... : ... .. . ... : ... .. . ... : ... .. . ... ... : ... .. 7 ... ... : ... .. 7 ... ... : ... .. . ... ...
ROW 8A : ... .. 8 ... ... ... : ... .. . ... ... ... : ... .. . ... : ... .. 3 ... : ... .. . ... ... : ... .. . ... ... : ... .. . ... ... : ... .. 4 ... ...
ROW 8B : ... .. 7 ... ... ... : ... .. . ... ... ... : ... .. . ... : ... .. 2 ... : ... .. . ... ... : ... .. 6 ... ... : ... .. 6 ... ... : ... .. . ... ...
ROW 8C : B-3 00 D ... ... ... : B-0 00 F ... ... ... : A#3 00 . ... : 6-# 00 5 ... : ... .. . ... ... : ... .. . ... ... : ... .. . ... ... : B-0 01 F ... ...
ROW 8D : ... .. B ... ... ... : ... .. E ... ... ... : C-3 00 . ... : ... .. 4 ... : ... .. . ... ... : ... .. 5 ... ... : ... .. 5 ... ... : ... .. D ... ...
ROW 8E : ... .. . ... ... ... : ... .. D ... ... ... : F-2 00 . ... : ... .. . ... : ... .. . ... ... : ... .. . ... ... : ... .. . ... ... : ... .. 8 ... ...
ROW 8F : ... .. A ... ... ... : ... .. A ... ... ... : E-2 00 . ... : ... .. . ... : ... .. . ... ... : ... .. . ... ... : ... .. . ... ... : ... .. . ... ...
ROW 90 : ... .. 8 ... ... ... : ... .. 2 ... ... ... : B-1 00 . ... : ... .. 3 ... : ... .. . ... ... : ... .. . ... ... : ... .. . ... ... : ... .. 4 ... ...
ROW 91 : ... .. 7 ... ... ... : ... .. . ... ... ... : ... .. . ... : ... .. . ... : ... .. . ... ... : ... .. . ... ... : ... .. . ... ... : ... .. . ... ...
ROW 92 : A-3 00 D ... ... ... : ... .. F ... ... ... : ... .. . ... : ... .. 6 ... : ... .. . ... ... : ... .. . ... ... : ... .. . ... ... : ... .. F ... ...
ROW 93 : ... .. B ... ... ... : ... .. E ... ... ... : ... .. . ... : ... .. 5 ... : ... .. . ... ... : ... .. . ... ... : ... .. . ... ... : ... .. D ... ...
ROW 94 : ... .. . ... ... ... : ... .. D ... ... ... : ... .. . ... : ... .. . ... : ... .. . ... ... : ... .. 3 ... ... : ... .. 3 ... ... : ... .. 8 ... ...
ROW 95 : ... .. A ... ... ... : ... .. A ... ... ... : ... .. . ... : ... .. 4 ... : ... .. . ... ... : ... .. . ... ... : ... .. . ... ... : ... .. . ... ...
ROW 96 : ... .. 8 ... ... ... : ... .. 2 ... ... ... : ... .. . ... : ... .. 3 ... : ... .. . ... ... : ... .. . ... ... : ... .. . ... ... : ... .. 4 ... ...
ROW 97 : ... .. 7 ... ... ... : ... .. . ... ... ... : ... .. . ... : ... .. . ... : ... .. . ... ... : ... .. . ... ... : ... .. . ... ... : ... .. . ... ...
ROW 98 : B-3 00 D ... ... ... : E-4 00 F ... ... ... : A#3 00 . ... : ... .. 6 ... : ... .. . ... ... : F#3 01 A ... ... : D-4 01 A ... ... : B-1 01 F ... ...
ROW 99 : ... .. B ... ... ... : ... .. E ... ... ... : C-3 00 . ... : ... .. 5 ... : ... .. . ... ... : ... .. 9 ... ... : ... .. 9 ... ... : ... .. D ... ...
ROW 9A : ... .. . ... ... ... : ... .. D ... ... ... : F-2 00 . ... : ... .. . ... : ... .. . ... ... : ... .. 8 ... ... : ... .. 8 ... ... : ... .. 8 ... ...
ROW 9B : ... .. A ... ... ... : ... .. A ... ... ... : E-2 00 . ... : ... .. . ... : ... .. . ... ... : ... .. 7 ... ... : ... .. 7 ... ... : ... .. . ... ...
ROW 9C : ... .. 8 ... ... ... : ... .. . ... ... ... : B-1 00 . ... : ... .. 4 ... : ... .. . ... ... : ... .. . ... ... : ... .. . ... ... : ... .. 4 ... ...
ROW 9D : ... .. 7 ... ... ... : ... .. . ... ... ... : ... .. . ... : ... .. 3 ... : ... .. . ... ... : ... .. 6 ... ... : ... .. 6 ... ... : ... .. . ... ...
ROW 9E : F#3 00 D ... ... ... : B-0 00 F ... ... ... : ... .. . ... : 8-# 00 6 ... : ... .. . ... ... : ... .. . ... ... : ... .. . ... ... : B-0 01 F ... ...
ROW 9F : ... .. B ... ... ... : ... .. E ... ... ... : ... .. . ... : ... .. 5 ... : ... .. . ... ... : ... .. 5 ... ... : ... .. 5 ... ... : ... .. D ... ...
ROW A0 : ... .. . ... ... ... : ... .. D ... ... ... : ... .. . ... : ... .. . ... : ... .. . ... ... : ... .. . ... ... : ... .. . ... ... : ... .. 8 ... ...
ROW A1 : ... .. A ... ... ... : ... .. A ... ... ... : ... .. . ... : ... .. . ... : ... .. . ... ... : ... .. . ... ... : ... .. . ... ... : ... .. . ... ...
ROW A2 : ... .. 8 ... ... ... : ... .. 2 ... ... ... : ... .. . ... : ... .. 4 ... : ... .. . ... ... : ... .. . ... ... : ... .. . ... ... : ... .. 4 ... ...
ROW A3 : ... .. 7 ... ... ... : ... .. . ... ... ... : ... .. . ... : ... .. 3 ... : ... .. . ... ... : ... .. . ... ... : ... .. . ... ... : ... .. . ... ...
ROW A4 : B-2 00 D ... ... ... : ... .. F ... ... ... : ... .. . ... : ... .. 7 ... : ... .. . ... ... : ... .. . ... ... : ... .. . ... ... : ... .. F ... ...
ROW A5 : ... .. B ... ... ... : ... .. E ... ... ... : ... .. . ... : ... .. 6 ... : ... .. . ... ... : ... .. . ... ... : ... .. . ... ... : ... .. D ... ...
ROW A6 : ... .. . ... ... ... : ... .. D ... ... ... : ... .. . ... : ... .. . ... : ... .. . ... ... : ... .. 3 ... ... : ... .. 3 ... ... : ... .. 8 ... ...
ROW A7 : ... .. A ... ... ... : ... .. A ... ... ... : ... .. . ... : ... .. . ... : ... .. . ... ... : ... .. . ... ... : ... .. . ... ... : ... .. . ... ...
ROW A8 : ... .. 8 ... ... ... : ... .. 2 ... ... ... : ... .. . ... : ... .. 4 ... : ... .. . ... ... : ... .. . ... ... : ... .. . ... ... : ... .. 4 ... ...
ROW A9 : ... .. 7 ... ... ... : ... .. . ... ... ... : ... .. . ... : ... .. . ... : ... .. . ... ... : ... .. . ... ... : ... .. . ... ... : ... .. . ... ...
ROW AA : A-2 00 D ... ... ... : E-4 00 F ... ... ... : A#3 00 . ... : ... .. 7 ... : ... .. . ... ... : ... .. A ... ... : ... .. A ... ... : B-1 01 F ... ...
ROW AB : ... .. B ... ... ... : ... .. E ... ... ... : C-3 00 . ... : ... .. 6 ... : ... .. . ... ... : ... .. 9 ... ... : ... .. 9 ... ... : ... .. D ... ...
ROW AC : ... .. . ... ... ... : ... .. D ... ... ... : F-2 00 . ... : ... .. . ... : ... .. . ... ... : ... .. 8 ... ... : ... .. 8 ... ... : ... .. 8 ... ...
ROW AD : ... .. A ... ... ... : ... .. A ... ... ... : E-2 00 . ... : ... .. . ... : ... .. . ... ... : ... .. 7 ... ... : ... .. 7 ... ... : ... .. . ... ...
ROW AE : ... .. 8 ... ... ... : ... .. . ... ... ... : B-1 00 . ... : ... .. 5 ... : ... .. . ... ... : ... .. . ... ... : ... .. . ... ... : ... .. 4 ... ...
ROW AF : ... .. 7 ... ... ... : ... .. . ... ... ... : ... .. . ... : ... .. 4 ... : ... .. . ... ... : ... .. 6 ... ... : ... .. 6 ... ... : ... .. . ... ...
ROW B0 : B-2 00 D ... ... ... : B-0 00 F ... ... ... : ... .. . ... : 9-# 00 8 ... : ... .. . ... ... : ... .. . ... ... : ... .. . ... ... : B-0 01 F ... ...
ROW B1 : ... .. B ... ... ... : ... .. E ... ... ... : ... .. . ... : ... .. 7 ... : ... .. . ... ... : ... .. 5 ... ... : ... .. 5 ... ... : ... .. D ... ...
ROW B2 : ... .. . ... ... ... : ... .. D ... ... ... : ... .. . ... : ... .. . ... : ... .. . ... ... : ... .. . ... ... : ... .. . ... ... : ... .. 8 ... ...
ROW B3 : ... .. A ... ... ... : ... .. A ... ... ... : ... .. . ... : ... .. 6 ... : ... .. . ... ... : ... .. . ... ... : ... .. . ... ... : ... .. . ... ...
ROW B4 : ... .. 8 ... ... ... : ... .. 2 ... ... ... : ... .. . ... : ... .. 5 ... : ... .. . ... ... : ... .. . ... ... : ... .. . ... ... : ... .. 4 ... ...
ROW B5 : ... .. 7 ... ... ... : ... .. . ... ... ... : ... .. . ... : ... .. 4 ... : ... .. . ... ... : ... .. . ... ... : ... .. . ... ... : ... .. . ... ...
ROW B6 : F#3 00 D ... ... ... : ... .. F ... ... ... : ... .. . ... : ... .. 8 ... : ... .. . ... ... : ... .. . ... ... : ... .. . ... ... : ... .. F ... ...
ROW B7 : ... .. B ... ... ... : ... .. E ... ... ... : ... .. . ... : ... .. 7 ... : ... .. . ... ... : ... .. . ... ... : ... .. . ... ... : ... .. D ... ...
ROW B8 : ... .. . ... ... ... : ... .. D ... ... ... : ... .. . ... : ... .. . ... : ... .. . ... ... : ... .. 3 ... ... : ... .. 3 ... ... : ... .. 8 ... ...
ROW B9 : ... .. A ... ... ... : ... .. A ... ... ... : ... .. . ... : ... .. . ... : ... .. . ... ... : ... .. . ... ... : ... .. . ... ... : ... .. . ... ...
ROW BA : ... .. 8 ... ... ... : ... .. 2 ... ... ... : ... .. . ... : ... .. 5 ... : ... .. . ... ... : ... .. . ... ... : ... .. . ... ... : ... .. 4 ... ...
ROW BB : ... .. 7 ... ... ... : ... .. . ... ... ... : ... .. . ... : ... .. . ... : ... .. . ... ... : ... .. . ... ... : ... .. . ... ... : ... .. . ... ...
ROW BC : B-3 00 D ... ... ... : F#4 00 F ... ... ... : A#3 00 . ... : ... .. 9 ... : ... .. . ... ... : ... .. A ... ... : E-4 01 A ... ... : B-1 01 F ... ...
ROW BD : ... .. B ... ... ... : ... .. E ... ... ... : C-3 00 . ... : ... .. 8 ... : ... .. . ... ... : ... .. 9 ... ... : ... .. 9 ... ... : ... .. D ... ...
ROW BE : ... .. . ... ... ... : ... .. D ... ... ... : F-2 00 . ... : ... .. . ... : ... .. . ... ... : ... .. 8 ... ... : ... .. 8 ... ... : ... .. 8 ... ...
ROW BF : ... .. A ... ... ... : ... .. A ... ... ... : E-2 00 . ... : ... .. 7 ... : ... .. . ... ... : ... .. 7 ... ... : ... .. 7 ... ... : ... .. . ... ...
ROW C0 : ... .. 8 ... ... ... : ... .. . ... ... ... : B-1 00 . ... : ... .. 5 ... : ... .. . ... ... : ... .. . ... ... : ... .. . ... ... : ... .. 4 ... ...
ROW C1 : ... .. 7 ... ... ... : ... .. . ... ... ... : ... .. . ... : ... .. . ... : ... .. . ... ... : ... .. 6 ... ... : ... .. 6 ... ... : ... .. . ... ...
ROW C2 : C-4 00 D ... ... ... : B-0 00 F ... ... ... : ... .. . ... : B-# 00 A ... : ... .. . ... ... : ... .. 5 ... ... : ... .. 5 ... ... : B-0 01 F ... ...
ROW C3 : ... .. B ... ... ... : ... .. E ... ... ... : ... .. . ... : ... .. 8 ... : ... .. . ... ... : ... .. . ... ... : ... .. . ... ... : ... .. D ... ...
ROW C4 : ... .. . ... ... ... : ... .. D ... ... ... : ... .. . ... : ... .. . ... : ... .. . ... ... : ... .. 3 ... ... : ... .. 3 ... ... : ... .. 8 ... ...
ROW C5 : ... .. A ... ... ... : ... .. A ... ... ... : ... .. . ... : ... .. . ... : ... .. . ... ... : ... .. . ... ... : ... .. . ... ... : ... .. . ... ...
ROW C6 : ... .. 8 ... ... ... : ... .. 2 ... ... ... : ... .. . ... : ... .. 6 ... : ... .. . ... ... : ... .. . ... ... : ... .. . ... ... : ... .. 4 ... ...
ROW C7 : ... .. 7 ... ... ... : ... .. . ... ... ... : ... .. . ... : ... .. 5 ... : ... .. . ... ... : ... .. . ... ... : ... .. . ... ... : ... .. . ... ...
ROW C8 : B-3 00 D ... ... ... : G-4 00 F ... ... ... : A#3 00 . ... : ... .. A ... : ... .. . ... ... : E-3 01 A ... ... : ... .. A ... ... : B-1 01 F ... ...
ROW C9 : ... .. B ... ... ... : ... .. E ... ... ... : C-3 00 . ... : ... .. 8 ... : ... .. . ... ... : ... .. 9 ... ... : ... .. 9 ... ... : ... .. D ... ...
ROW CA : ... .. . ... ... ... : ... .. D ... ... ... : F-2 00 . ... : ... .. . ... : ... .. . ... ... : ... .. 8 ... ... : ... .. 8 ... ... : ... .. 8 ... ...
ROW CB : ... .. A ... ... ... : ... .. A ... ... ... : E-2 00 . ... : ... .. . ... : ... .. . ... ... : ... .. 7 ... ... : ... .. 7 ... ... : ... .. . ... ...
ROW CC : ... .. 8 ... ... ... : ... .. . ... ... ... : B-1 00 . ... : ... .. 6 ... : ... .. . ... ... : ... .. . ... ... : ... .. . ... ... : ... .. 4 ... ...
ROW CD : ... .. 7 ... ... ... : ... .. . ... ... ... : ... .. . ... : ... .. 5 ... : ... .. . ... ... : ... .. 6 ... ... : ... .. 6 ... ... : ... .. . ... ...
ROW CE : F#3 00 D ... ... ... : B-0 00 F ... ... ... : ... .. . ... : ... .. B ... : ... .. . ... ... : ... .. 5 ... ... : ... .. 5 ... ... : B-0 01 F ... ...
ROW CF : ... .. B ... ... ... : ... .. E ... ... ... : ... .. . ... : ... .. 9 ... : ... .. . ... ... : ... .. . ... ... : ... .. . ... ... : ... .. D ... ...
ROW D0 : ... .. . ... ... ... : ... .. D ... ... ... : ... .. . ... : ... .. . ... : ... .. . ... ... : ... .. 3 ... ... : ... .. 3 ... ... : ... .. 8 ... ...
ROW D1 : ... .. A ... ... ... : ... .. A ... ... ... : ... .. . ... : ... .. 8 ... : ... .. . ... ... : ... .. . ... ... : ... .. . ... ... : ... .. . ... ...
ROW D2 : ... .. 8 ... ... ... : ... .. 2 ... ... ... : ... .. . ... : ... .. 6 ... : ... .. . ... ... : ... .. . ... ... : ... .. . ... ... : ... .. 4 ... ...
ROW D3 : ... .. 7 ... ... ... : ... .. . ... ... ... : ... .. . ... : ... .. . ... : ... .. . ... ... : ... .. . ... ... : ... .. . ... ... : ... .. . ... ...
ROW D4 : B-2 00 D ... ... ... : A-4 00 F ... ... ... : A#3 00 . ... : D-# 00 B ... : ... .. . ... ... : D-3 01 A ... ... : ... .. A ... ... : B-1 01 F ... ...
ROW D5 : ... .. B ... ... ... : ... .. E ... ... ... : C-3 00 . ... : ... .. 9 ... : ... .. . ... ... : ... .. 9 ... ... : ... .. 9 ... ... : ... .. D ... ...
ROW D6 : ... .. . ... ... ... : ... .. D ... ... ... : F-2 00 . ... : ... .. . ... : ... .. . ... ... : ... .. 8 ... ... : ... .. 8 ... ... : ... .. 8 ... ...
ROW D7 : ... .. A ... ... ... : ... .. A ... ... ... : E-2 00 . ... : ... .. . ... : ... .. . ... ... : ... .. 7 ... ... : ... .. 7 ... ... : ... .. . ... ...
ROW D8 : ... .. 8 ... ... ... : ... .. . ... ... ... : B-1 00 . ... : ... .. 7 ... : ... .. . ... ... : ... .. . ... ... : ... .. . ... ... : ... .. 4 ... ...
ROW D9 : ... .. 7 ... ... ... : ... .. . ... ... ... : ... .. . ... : ... .. 6 ... : ... .. . ... ... : ... .. 6 ... ... : ... .. 6 ... ... : ... .. . ... ...
ROW DA : A-2 00 D ... ... ... : B-0 00 F ... ... ... : ... .. . ... : ... .. C ... : ... .. . ... ... : ... .. 5 ... ... : ... .. 5 ... ... : B-0 01 F ... ...
ROW DB : ... .. B ... ... ... : ... .. E ... ... ... : ... .. . ... : ... .. A ... : ... .. . ... ... : ... .. . ... ... : ... .. . ... ... : ... .. D ... ...
ROW DC : ... .. . ... ... ... : ... .. D ... ... ... : ... .. . ... : ... .. . ... : ... .. . ... ... : ... .. 3 ... ... : ... .. 3 ... ... : ... .. 8 ... ...
ROW DD : ... .. A ... ... ... : ... .. A ... ... ... : ... .. . ... : ... .. 9 ... : ... .. . ... ... : ... .. . ... ... : ... .. . ... ... : ... .. . ... ...
ROW DE : ... .. 8 ... ... ... : ... .. 2 ... ... ... : ... .. . ... : ... .. 7 ... : ... .. . ... ... : ... .. . ... ... : ... .. . ... ... : ... .. 4 ... ...
ROW DF : ... .. 7 ... ... ... : ... .. . ... ... ... : ... .. . ... : ... .. 6 ... : ... .. . ... ... : ... .. . ... ... : ... .. . ... ... : ... .. . ... ...
ROW E0 : B-4 00 D ... ... ... : B-4 00 F ... ... ... : B-3 00 . ... : E-# 00 D ... : ... .. . ... ... : E-4 01 A ... ... : D-4 01 A ... ... : C-2 01 F ... ...
ROW E1 : ... .. B ... ... ... : ... .. E ... ... ... : C#3 00 . ... : ... .. B ... : ... .. . ... ... : ... .. 9 ... ... : ... .. 9 ... ... : ... .. D ... ...
ROW E2 : ... .. . ... ... ... : ... .. D ... ... ... : F#2 00 . ... : ... .. . ... : ... .. . ... ... : ... .. 8 ... ... : ... .. 8 ... ... : ... .. 8 ... ...
ROW E3 : ... .. A ... ... ... : ... .. A ... ... ... : F-2 00 . ... : ... .. A ... : ... .. . ... ... : ... .. 7 ... ... : ... .. 7 ... ... : ... .. . ... ...
ROW E4 : ... .. 8 ... ... ... : ... .. . ... ... ... : C-2 00 . ... : ... .. 8 ... : ... .. . ... ... : ... .. . ... ... : ... .. . ... ... : ... .. 4 ... ...
ROW E5 : ... .. 7 ... ... ... : ... .. . ... ... ... : ... .. . ... : ... .. 7 ... : ... .. . ... ... : ... .. 6 ... ... : ... .. 6 ... ... : ... .. . ... ...
ROW E6 : F#4 00 D ... ... ... : ... .. . ... ... ... : ... .. . ... : D-# 00 D ... : ... .. . ... ... : ... .. . ... ... : ... .. . ... ... : C-1 01 F ... ...
ROW E7 : ... .. B ... ... ... : ... .. . ... ... ... : ... .. . ... : ... .. B ... : ... .. . ... ... : ... .. 5 ... ... : ... .. 5 ... ... : ... .. D ... ...
ROW E8 : ... .. . ... ... ... : ... .. . ... ... ... : ... .. . ... : ... .. . ... : ... .. . ... ... : ... .. . ... ... : ... .. . ... ... : ... .. 8 ... ...
ROW E9 : ... .. A ... ... ... : ... .. . ... ... ... : ... .. . ... : ... .. A ... : ... .. . ... ... : ... .. . ... ... : ... .. . ... ... : ... .. . ... ...
ROW EA : ... .. 8 ... ... ... : ... .. . ... ... ... : ... .. . ... : ... .. 8 ... : ... .. . ... ... : ... .. . ... ... : ... .. . ... ... : ... .. 4 ... ...
ROW EB : ... .. 7 ... ... ... : ... .. . ... ... ... : ... .. . ... : ... .. 7 ... : ... .. . ... ... : ... .. . ... ... : ... .. . ... ... : ... .. . ... ...
ROW EC : B-3 00 D ... ... ... : ... .. . ... ... ... : ... .. . ... : ... .. D ... : ... .. . ... ... : ... .. . ... ... : ... .. . ... ... : ... .. F ... ...
ROW ED : ... .. B ... ... ... : ... .. . ... ... ... : ... .. . ... : ... .. B ... : ... .. . ... ... : ... .. . ... ... : ... .. . ... ... : ... .. D ... ...
ROW EE : ... .. . ... ... ... : ... .. . ... ... ... : ... .. . ... : ... .. . ... : ... .. . ... ... : ... .. . ... ... : ... .. . ... ... : ... .. 8 ... ...
ROW EF : ... .. A ... ... ... : ... .. . ... ... ... : ... .. . ... : ... .. A ... : ... .. . ... ... : ... .. . ... ... : ... .. . ... ... : ... .. . ... ...
ROW F0 : ... .. 8 ... ... ... : ... .. 2 ... ... ... : ... .. . ... : ... .. 8 ... : ... .. . ... ... : ... .. . ... ... : ... .. . ... ... : ... .. 4 ... ...
ROW F1 : ... .. 7 ... ... ... : ... .. . ... ... ... : ... .. . ... : ... .. 7 ... : ... .. . ... ... : ... .. 3 ... ... : ... .. 3 ... ... : ... .. . ... ...
ROW F2 : A-3 00 D ... ... ... : E-4 00 F ... ... ... : B-3 00 . ... : C-# 00 D ... : ... .. . ... ... : G-3 01 A ... ... : D-3 01 A ... ... : C-2 01 F ... ...
ROW F3 : ... .. B ... ... ... : ... .. E ... ... ... : C#3 00 . ... : ... .. B ... : ... .. . ... ... : ... .. 9 ... ... : ... .. 9 ... ... : ... .. D ... ...
ROW F4 : ... .. . ... ... ... : ... .. D ... ... ... : F#2 00 . ... : ... .. . ... : ... .. . ... ... : ... .. 8 ... ... : ... .. 8 ... ... : ... .. 8 ... ...
ROW F5 : ... .. A ... ... ... : ... .. A ... ... ... : F-2 00 . ... : ... .. A ... : ... .. . ... ... : ... .. 7 ... ... : ... .. 7 ... ... : ... .. . ... ...
ROW F6 : ... .. 8 ... ... ... : ... .. . ... ... ... : C-2 00 . ... : ... .. 8 ... : ... .. . ... ... : ... .. . ... ... : ... .. . ... ... : ... .. 4 ... ...
ROW F7 : ... .. 7 ... ... ... : ... .. . ... ... ... : ... .. . ... : ... .. 7 ... : ... .. . ... ... : ... .. 6 ... ... : ... .. 6 ... ... : ... .. . ... ...
ROW F8 : B-3 00 D ... ... ... : ... .. . ... ... ... : ... .. . ... : ... .. D ... : ... .. . ... ... : ... .. . ... ... : ... .. . ... ... : C-1 01 F ... ...
ROW F9 : ... .. B ... ... ... : ... .. . ... ... ... : ... .. . ... : ... .. B ... : ... .. . ... ... : ... .. 5 ... ... : ... .. 5 ... ... : ... .. D ... ...
ROW FA : ... .. . ... ... ... : ... .. . ... ... ... : ... .. . ... : ... .. . ... : ... .. . ... ... : ... .. . ... ... : ... .. . ... ... : ... .. 8 ... ...
ROW FB : ... .. A ... ... ... : ... .. . ... ... ... : ... .. . ... : ... .. A ... : ... .. . ... ... : ... .. . ... ... : ... .. . ... ... : ... .. . ... ...
ROW FC : ... .. 8 ... ... ... : ... .. . ... ... ... : ... .. . ... : ... .. 8 ... : ... .. . ... ... : ... .. . ... ... : ... .. . ... ... : ... .. 4 ... ...
ROW FD : ... .. 7 ... ... ... : ... .. . ... ... ... : ... .. . ... : ... .. 7 ... : ... .. . ... ... : ... .. . ... ... : ... .. . ... ... : ... .. . ... ...
ROW FE : F#4 00 D ... ... ... : ... .. . ... ... ... : ... .. . ... : B-# 00 D ... : ... .. . ... ... : ... .. . ... ... : ... .. . ... ... : ... .. F ... ...
ROW FF : ... .. B ... ... ... : ... .. . ... ... ... : ... .. . ... : ... .. B ... : ... .. . ... ... : ... .. . ... ... : ... .. . ... ... : ... .. D ... ...

PATTERN 11
ROW 00 : ... .. . ... ... ... : ... .. . ... ... ... : ... .. . ... : ... .. . ... : ... .. . ... ... : ... .. . ... ... : ... .. . ... ... : ... .. 8 ... ...
ROW 01 : ... .. A ... ... ... : ... .. . ... ... ... : ... .. . ... : ... .. A ... : ... .. . ... ... : ... .. . ... ... : ... .. . ... ... : ... .. . ... ...
ROW 02 : ... .. 8 ... ... ... : ... .. 2 ... ... ... : ... .. . ... : ... .. 8 ... : ... .. . ... ... : ... .. . ... ... : ... .. . ... ... : ... .. 4 ... ...
ROW 03 : ... .. 7 ... ... ... : ... .. . ... ... ... : ... .. . ... : ... .. 7 ... : ... .. . ... ... : ... .. 3 ... ... : ... .. 3 ... ... : ... .. . ... ...
ROW 04 : B-4 00 D ... ... ... : A-4 00 F ... ... ... : B-3 00 . ... : ... .. D ... : ... .. . ... ... : D-4 01 A ... ... : G-3 01 A ... ... : C-2 01 F ... ...
ROW 05 : ... .. B ... ... ... : ... .. E ... ... ... : C#3 00 . ... : ... .. B ... : ... .. . ... ... : ... .. 9 ... ... : ... .. 9 ... ... : ... .. D ... ...
ROW 06 : ... .. . ... ... ... : ... .. D ... ... ... : F#2 00 . ... : ... .. . ... : ... .. . ... ... : ... .. 8 ... ... : ... .. 8 ... ... : ... .. 8 ... ...
ROW 07 : ... .. A ... ... ... : ... .. A ... ... ... : F-2 00 . ... : ... .. A ... : ... .. . ... ... : ... .. 7 ... ... : ... .. 7 ... ... : ... .. . ... ...
ROW 08 : ... .. 8 ... ... ... : ... .. . ... ... ... : C-2 00 . ... : ... .. 8 ... : ... .. . ... ... : ... .. . ... ... : ... .. . ... ... : ... .. 4 ... ...
ROW 09 : ... .. 7 ... ... ... : ... .. . ... ... ... : ... .. . ... : ... .. 7 ... : ... .. . ... ... : ... .. 6 ... ... : ... .. 6 ... ... : ... .. . ... ...
ROW 0A : C-5 00 D ... ... ... : ... .. . ... ... ... : ... .. . ... : A-# 00 D ... : ... .. . ... ... : ... .. . ... ... : ... .. . ... ... : C-1 01 F ... ...
ROW 0B : ... .. B ... ... ... : ... .. . ... ... ... : ... .. . ... : ... .. B ... : ... .. . ... ... : ... .. 5 ... ... : ... .. 5 ... ... : ... .. D ... ...
ROW 0C : ... .. . ... ... ... : ... .. . ... ... ... : ... .. . ... : ... .. . ... : ... .. . ... ... : ... .. . ... ... : ... .. . ... ... : ... .. 8 ... ...
ROW 0D : ... .. A ... ... ... : ... .. . ... ... ... : ... .. . ... : ... .. A ... : ... .. . ... ... : ... .. . ... ... : ... .. . ... ... : ... .. . ... ...
ROW 0E : ... .. 8 ... ... ... : ... .. . ... ... ... : ... .. . ... : ... .. 8 ... : ... .. . ... ... : ... .. . ... ... : ... .. . ... ... : ... .. 4 ... ...
ROW 0F : ... .. 7 ... ... ... : ... .. . ... ... ... : ... .. . ... : ... .. 7 ... : ... .. . ... ... : ... .. . ... ... : ... .. . ... ... : ... .. . ... ...
ROW 10 : B-4 00 D ... ... ... : ... .. . ... ... ... : B-3 00 . ... : B-# 00 D ... : ... .. . ... ... : ... .. . ... ... : ... .. . ... ... : ... .. F ... ...
ROW 11 : ... .. B ... ... ... : ... .. . ... ... ... : C#3 00 . ... : ... .. B ... : ... .. . ... ... : ... .. . ... ... : ... .. . ... ... : ... .. D ... ...
ROW 12 : ... .. . ... ... ... : ... .. . ... ... ... : F#2 00 . ... : ... .. . ... : ... .. . ... ... : ... .. . ... ... : ... .. . ... ... : ... .. 8 ... ...
ROW 13 : ... .. A ... ... ... : ... .. . ... ... ... : F-2 00 . ... : ... .. A ... : ... .. . ... ... : ... .. . ... ... : ... .. . ... ... : ... .. . ... ...
ROW 14 : ... .. 8 ... ... ... : ... .. . ... ... ... : C-2 00 . ... : ... .. 8 ... : ... .. . ... ... : ... .. . ... ... : ... .. . ... ... : ... .. 4 ... ...
ROW 15 : ... .. 7 ... ... ... : ... .. . ... ... ... : ... .. . ... : ... .. 7 ... : ... .. . ... ... : ... .. . ... ... : ... .. . ... ... : ... .. . ... ...
ROW 16 : F#4 00 D ... ... ... : ... .. . ... ... ... : ... .. . ... : A-# 00 D ... : ... .. . ... ... : ... .. . ... ... : ... .. . ... ... : C-2 01 F ... ...
ROW 17 : ... .. B ... ... ... : ... .. . ... ... ... : ... .. . ... : ... .. B ... : ... .. . ... ... : ... .. . ... ... : ... .. . ... ... : ... .. D ... ...
ROW 18 : ... .. . ... ... ... : ... .. . ... ... ... : ... .. . ... : ... .. . ... : ... .. . ... ... : ... .. . ... ... : ... .. . ... ... : ... .. 8 ... ...
ROW 19 : ... .. A ... ... ... : ... .. . ... ... ... : ... .. . ... : ... .. A ... : ... .. . ... ... : ... .. . ... ... : ... .. . ... ... : ... .. . ... ...
ROW 1A : ... .. 8 ... ... ... : ... .. . ... ... ... : ... .. . ... : ... .. 8 ... : ... .. . ... ... : ... .. . ... ... : ... .. . ... ... : ... .. 4 ... ...
ROW 1B : ... .. 7 ... ... ... : ... .. . ... ... ... : ... .. . ... : ... .. 7 ... : ... .. . ... ... : ... .. . ... ... : ... .. . ... ... : ... .. . ... ...
ROW 1C : B-3 00 D ... ... ... : ... .. . ... ... ... : B-3 00 . ... : ... .. D ... : ... .. . ... ... : ... .. . ... ... : ... .. . ... ... : C-1 01 F ... ...
ROW 1D : ... .. B ... ... ... : ... .. . ... ... ... : C#3 00 . ... : ... .. B ... : ... .. . ... ... : ... .. . ... ... : ... .. . ... ... : ... .. D ... ...
ROW 1E : ... .. . ... ... ... : ... .. . ... ... ... : F#2 00 . ... : ... .. . ... : ... .. . ... ... : ... .. . ... ... : ... .. . ... ... : ... .. 8 ... ...
ROW 1F : ... .. A ... ... ... : ... .. . ... ... ... : F-2 00 . ... : ... .. A ... : ... .. . ... ... : ... .. . ... ... : ... .. . ... ... : ... .. . ... ...
ROW 20 : ... .. 8 ... ... ... : ... .. . ... ... ... : C-2 00 . ... : ... .. 8 ... : ... .. . ... ... : ... .. . ... ... : ... .. . ... ... : ... .. 4 ... ...
ROW 21 : ... .. 7 ... ... ... : ... .. . ... ... ... : ... .. . ... : ... .. 7 ... : ... .. . ... ... : ... .. . ... ... : ... .. . ... ... : ... .. . ... ...
ROW 22 : A-3 00 D ... ... ... : ... .. . ... ... ... : ... .. . ... : 9-# 00 D ... : ... .. . ... ... : ... .. . ... ... : ... .. . ... ... : ... .. F ... ...
ROW 23 : ... .. B ... ... ... : ... .. . ... ... ... : ... .. . ... : ... .. B ... : ... .. . ... ... : ... .. . ... ... : ... .. . ... ... : ... .. D ... ...
ROW 24 : ... .. . ... ... ... : ... .. . ... ... ... : ... .. . ... : ... .. . ... : ... .. . ... ... : ... .. . ... ... : ... .. . ... ... : ... .. 8 ... ...
ROW 25 : ... .. A ... ... ... : ... .. . P83 ... ... : ... .. . ... : ... .. A ... : ... .. . ... ... : ... .. . ... ... : ... .. . ... ... : ... .. . ... ...
ROW 26 : ... .. 8 ... ... ... : A#4 00 A P7D ... ... : ... .. . ... : ... .. 8 ... : ... .. . ... ... : ... .. . ... ... : ... .. . ... ... : ... .. 4 ... ...
ROW 27 : ... .. 7 ... ... ... : ... .. . ... ... ... : ... .. . ... : ... .. 7 ... : ... .. . ... ... : ... .. . ... ... : ... .. . ... ... : ... .. . ... ...
ROW 28 : B-3 00 D ... ... ... : A-4 00 A P82 ... ... : B-3 00 . ... : ... .. D ... : ... .. . ... ... : ... .. . ... ... : ... .. . ... ... : C-2 01 F ... ...
ROW 29 : ... .. B ... ... ... : ... .. . P80 ... ... : C#3 00 . ... : ... .. B ... : ... .. . ... ... : ... .. . ... ... : ... .. . ... ... : ... .. D ... ...
ROW 2A : ... .. . ... ... ... : ... .. . P7E ... ... : F#2 00 . ... : ... .. . ... : ... .. . ... ... : ... .. . ... ... : ... .. . ... ... : ... .. 8 ... ...
ROW 2B : ... .. A ... ... ... : ... .. . ... ... ... : F-2 00 . ... : ... .. A ... : ... .. . ... ... : ... .. . ... ... : ... .. . ... ... : ... .. . ... ...
ROW 2C : ... .. 8 ... ... ... : ... .. . P7F ... ... : C-2 00 . ... : ... .. 8 ... : ... .. . ... ... : ... .. . ... ... : ... .. . ... ... : ... .. 4 ... ...
ROW 2D : ... .. 7 ... ... ... : ... .. . P81 ... ... : ... .. . ... : ... .. 7 ... : ... .. . ... ... : ... .. . ... ... : ... .. . ... ... : ... .. . ... ...
ROW 2E : F#3 00 D ... ... ... : ... .. . P83 ... ... : ... .. . ... : 8-# 00 D ... : ... .. . ... ... : ... .. . ... ... : ... .. . ... ... : C-1 01 F ... ...
ROW 2F : ... .. B ... ... ... : A#4 00 A P7D ... ... : ... .. . ... : ... .. B ... : ... .. . ... ... : ... .. . ... ... : ... .. . ... ... : ... .. D ... ...
ROW 30 : ... .. . ... ... ... : ... .. . ... ... ... : ... .. . ... : ... .. . ... : ... .. . ... ... : ... .. . ... ... : ... .. . ... ... : ... .. 8 ... ...
ROW 31 : ... .. A ... ... ... : A-4 00 A P82 ... ... : ... .. . ... : ... .. A ... : ... .. . ... ... : ... .. . ... ... : ... .. . ... ... : ... .. . ... ...
ROW 32 : ... .. 8 ... ... ... : ... .. . P81 ... ... : ... .. . ... : ... .. 8 ... : ... .. . ... ... : ... .. . ... ... : ... .. . ... ... : ... .. 4 ... ...
ROW 33 : ... .. 7 ... ... ... : ... .. . P7E ... ... : ... .. . ... : ... .. 7 ... : ... .. . ... ... : ... .. . ... ... : ... .. . ... ... : ... .. . ... ...
ROW 34 : B-2 00 D ... ... ... : ... .. . ... ... ... : ... .. . ... : 7-# 00 D ... : ... .. . ... ... : ... .. . ... ... : ... .. . ... ... : ... .. F ... ...
ROW 35 : ... .. B ... ... ... : ... .. . P7F ... ... : ... .. . ... : ... .. B ... : ... .. . ... ... : ... .. . ... ... : ... .. . ... ... : ... .. D ... ...
ROW 36 : ... .. . ... ... ... : ... .. . P81 ... ... : ... .. . ... : ... .. . ... : ... .. . ... ... : ... .. . ... ... : ... .. . ... ... : ... .. 8 ... ...
ROW 37 : ... .. A ... ... ... : ... .. . P82 ... ... : ... .. . ... : ... .. A ... : ... .. . ... ... : ... .. . ... ... : ... .. . ... ... : ... .. . ... ...
ROW 38 : ... .. 8 ... ... ... : A#4 00 A P7D ... ... : ... .. . ... : ... .. 8 ... : ... .. . ... ... : ... .. . ... ... : ... .. . ... ... : ... .. 4 ... ...
ROW 39 : ... .. 7 ... ... ... : ... .. . ... ... ... : ... .. . ... : ... .. 7 ... : ... .. . ... ... : ... .. . ... ... : ... .. . ... ... : ... .. . ... ...
ROW 3A : A-2 00 D ... ... ... : A-4 00 A P82 ... ... : B-3 00 . ... : 6-# 00 D ... : ... .. . ... ... : ... .. . ... ... : ... .. . ... ... : C-2 01 F ... ...
ROW 3B : ... .. B ... ... ... : ... .. . P81 ... ... : C#3 00 . ... : ... .. B ... : ... .. . ... ... : ... .. . ... ... : ... .. . ... ... : ... .. D ... ...
ROW 3C : ... .. . ... ... ... : ... .. . P7F ... ... : F#2 00 . ... : ... .. . ... : ... .. . ... ... : ... .. . ... ... : ... .. . ... ... : ... .. 8 ... ...
ROW 3D : ... .. A ... ... ... : ... .. . P7E ... ... : F-2 00 . ... : ... .. A ... : ... .. . ... ... : ... .. . ... ... : ... .. . ... ... : ... .. . ... ...
ROW 3E : ... .. 8 ... ... ... : ... .. . ... ... ... : C-2 00 . ... : ... .. 8 ... : ... .. . ... ... : ... .. . ... ... : ... .. . ... ... : ... .. 4 ... ...
ROW 3F : ... .. 7 ... ... ... : ... .. . P81 ... ... : ... .. . ... : ... .. 7 ... : ... .. . ... ... : ... .. . ... ... : ... .. . ... ... : ... .. . ... ...
ROW 40 : B-2 00 D ... ... ... : ... .. F ... ... ... : ... .. . ... : 5-# 00 D ... : ... .. . ... ... : ... .. A ... ... : ... .. A ... ... : C-1 01 F ... ...
ROW 41 : ... .. B ... ... ... : ... .. E ... ... ... : ... .. . ... : ... .. B ... : ... .. . ... ... : ... .. 9 ... ... : ... .. 9 ... ... : ... .. D ... ...
ROW 42 : ... .. . ... ... ... : ... .. D ... ... ... : ... .. . ... : ... .. . ... : ... .. . ... ... : ... .. 8 ... ... : ... .. 8 ... ... : ... .. 8 ... ...
ROW 43 : ... .. A ... ... ... : ... .. A ... ... ... : ... .. . ... : ... .. A ... : ... .. . ... ... : ... .. 5 ... ... : ... .. 5 ... ... : ... .. . ... ...
ROW 44 : ... .. 8 ... ... ... : ... .. 2 ... ... ... : ... .. . ... : ... .. 8 ... : ... .. . ... ... : ... .. . ... ... : ... .. . ... ... : ... .. 4 ... ...
ROW 45 : ... .. 7 ... ... ... : ... .. . ... ... ... : ... .. . ... : ... .. 7 ... : ... .. . ... ... : ... .. 3 ... ... : ... .. 3 ... ... : ... .. . ... ...
ROW 46 : F#3 00 D ... ... ... : ... .. F ... ... ... : ... .. . ... : 4-# 00 D ... : ... .. . ... ... : ... .. A ... ... : ... .. A ... ... : ... .. F ... ...
ROW 47 : ... .. B ... ... ... : ... .. E ... ... ... : ... .. . ... : ... .. B ... : ... .. . ... ... : ... .. 9 ... ... : ... .. 9 ... ... : ... .. D ... ...
ROW 48 : ... .. . ... ... ... : ... .. D ... ... ... : ... .. . ... : ... .. . ... : ... .. . ... ... : ... .. 8 ... ... : ... .. 8 ... ... : ... .. 8 ... ...
ROW 49 : ... .. A ... ... ... : ... .. A ... ... ... : ... .. . ... : ... .. A ... : ... .. . ... ... : ... .. 7 ... ... : ... .. 7 ... ... : ... .. . ... ...
ROW 4A : ... .. 8 ... ... ... : ... .. . ... ... ... : ... .. . ... : ... .. 8 ... : ... .. . ... ... : ... .. . ... ... : ... .. . ... ... : ... .. 4 ... ...
ROW 4B : ... .. 7 ... ... ... : ... .. . ... ... ... : ... .. . ... : ... .. 7 ... : ... .. . ... ... : ... .. 6 ... ... : ... .. 6 ... ... : ... .. . ... ...
ROW 4C : B-3 00 D ... ... ... : ... .. . ... ... ... : B-3 00 . ... : 3-# 00 D ... : ... .. . ... ... : ... .. 5 ... ... : ... .. 5 ... ... : C-2 01 F ... ...
ROW 4D : ... .. B ... ... ... : ... .. 2 ... ... ... : C#3 00 . ... : ... .. B ... : ... .. . ... ... : ... .. . ... ... : ... .. . ... ... : ... .. D ... ...
ROW 4E : ... .. . ... ... ... : ... .. . ... ... ... : F#2 00 . ... : ... .. . ... : ... .. . ... ... : ... .. 3 ... ... : ... .. 3 ... ... : ... .. 8 ... ...
ROW 4F : ... .. A ... ... ... : ... .. . ... ... ... : F-2 00 . ... : ... .. A ... : ... .. . ... ... : ... .. . ... ... : ... .. . ... ... : ... .. . ... ...
ROW 50 : ... .. 8 ... ... ... : ... .. 1 ... ... ... : C-2 00 . ... : ... .. 8 ... : ... .. . ... ... : ... .. . ... ... : ... .. . ... ... : ... .. 4 ... ...
ROW 51 : ... .. 7 ... ... ... : ... .. . ... ... ... : ... .. . ... : ... .. 7 ... : ... .. . ... ... : ... .. . ... ... : ... .. . ... ... : ... .. . ... ...
ROW 52 : C-4 00 D ... ... ... : ... .. F ... ... ... : ... .. . ... : 2-# 00 D ... : ... .. . ... ... : ... .. A ... ... : ... .. A ... ... : C-1 01 F ... ...
ROW 53 : ... .. B ... ... ... : ... .. E ... ... ... : ... .. . ... : ... .. B ... : ... .. . ... ... : ... .. 9 ... ... : ... .. 9 ... ... : ... .. D ... ...
ROW 54 : ... .. . ... ... ... : ... .. D ... ... ... : ... .. . ... : ... .. . ... : ... .. . ... ... : ... .. 8 ... ... : ... .. 8 ... ... : ... .. 8 ... ...
ROW 55 : ... .. A ... ... ... : ... .. A ... ... ... : ... .. . ... : ... .. A ... : ... .. . ... ... : ... .. 5 ... ... : ... .. 5 ... ... : ... .. . ... ...
ROW 56 : ... .. 8 ... ... ... : ... .. 2 ... ... ... : ... .. . ... : ... .. 8 ... : ... .. . ... ... : ... .. . ... ... : ... .. . ... ... : ... .. 4 ... ...
ROW 57 : ... .. 7 ... ... ... : ... .. . ... ... ... : ... .. . ... : ... .. 7 ... : ... .. . ... ... : ... .. 3 ... ... : ... .. 3 ... ... : ... .. . ... ...
ROW 58 : B-3 00 D ... ... ... : ... .. F ... ... ... : B-3 00 . ... : 1-# 00 D ... : ... .. . ... ... : ... .. A ... ... : ... .. A ... ... : C-2 01 F ... ...
ROW 59 : ... .. B ... ... ... : ... .. E ... ... ... : C#3 00 . ... : ... .. B ... : ... .. . ... ... : ... .. 9 ... ... : ... .. 9 ... ... : ... .. D ... ...
ROW 5A : ... .. . ... ... ... : ... .. D ... ... ... : F#2 00 . ... : ... .. . ... : ... .. . ... ... : ... .. 8 ... ... : ... .. 8 ... ... : ... .. 8 ... ...
ROW 5B : ... .. A ... ... ... : ... .. A ... ... ... : F-2 00 . ... : ... .. A ... : ... .. . ... ... : ... .. 7 ... ... : ... .. 7 ... ... : ... .. . ... ...
ROW 5C : ... .. 8 ... ... ... : ... .. . ... ... ... : C-2 00 . ... : ... .. 8 ... : ... .. . ... ... : ... .. . ... ... : ... .. . ... ... : ... .. 4 ... ...
ROW 5D : ... .. 7 ... ... ... : ... .. . ... ... ... : ... .. . ... : ... .. 7 ... : ... .. . ... ... : ... .. 6 ... ... : ... .. 6 ... ... : ... .. . ... ...
ROW 5E : F#3 00 D ... ... ... : ... .. . ... ... ... : ... .. . ... : ... .. 6 ... : ... .. . ... ... : ... .. 5 ... ... : ... .. 5 ... ... : C-1 01 F ... ...
ROW 5F : ... .. B ... ... ... : ... .. 2 ... ... ... : ... .. . ... : ... .. . ... : ... .. . ... ... : ... .. . ... ... : ... .. . ... ... : ... .. D ... ...
ROW 60 : ... .. . ... ... ... : ... .. . ... ... ... : ... .. . ... : ... .. 5 ... : ... .. . ... ... : ... .. 3 ... ... : ... .. 3 ... ... : ... .. 8 ... ...
ROW 61 : ... .. A ... ... ... : ... .. . ... ... ... : ... .. . ... : ... .. . ... : ... .. . ... ... : ... .. . ... ... : ... .. . ... ... : ... .. . ... ...
ROW 62 : ... .. 8 ... ... ... : ... .. 1 ... ... ... : ... .. . ... : ... .. 4 ... : ... .. . ... ... : ... .. . ... ... : ... .. . ... ... : ... .. 4 ... ...
ROW 63 : ... .. 7 ... ... ... : ... .. . ... ... ... : ... .. . ... : ... .. . ... : ... .. . ... ... : ... .. . ... ... : ... .. . ... ... : ... .. . ... ...
ROW 64 : B-2 00 D ... ... ... : ... .. F ... ... ... : B-3 00 . ... : ... .. 3 ... : ... .. . ... ... : ... .. A ... ... : ... .. A ... ... : C-2 01 F ... ...
ROW 65 : ... .. B ... ... ... : ... .. E ... ... ... : C#3 00 . ... : ... .. 2 ... : ... .. . ... ... : ... .. 9 ... ... : ... .. 9 ... ... : ... .. D ... ...
ROW 66 : ... .. . ... ... ... : ... .. D ... ... ... : F#2 00 . ... : ... .. . ... : ... .. . ... ... : ... .. 8 ... ... : ... .. 8 ... ... : ... .. 8 ... ...
ROW 67 : ... .. A ... ... ... : ... .. A ... ... ... : F-2 00 . ... : ... .. 1 ... : ... .. . ... ... : ... .. 7 ... ... : ... .. 7 ... ... : ... .. . ... ...
ROW 68 : ... .. 8 ... ... ... : ... .. . ... ... ... : C-2 00 . ... : ... .. 0 ... : ... .. . ... ... : ... .. . ... ... : ... .. . ... ... : ... .. 4 ... ...
ROW 69 : ... .. 7 ... ... ... : ... .. . ... ... ... : ... .. . ... : ... .. . ... : ... .. . ... ... : ... .. 6 ... ... : ... .. 6 ... ... : ... .. . ... ...
ROW 6A : A-2 00 D ... ... ... : ... .. . ... ... ... : ... .. . ... : ... .. . ... : ... .. . ... ... : ... .. 5 ... ... : ... .. 5 ... ... : C-1 01 F ... ...
ROW 6B : ... .. B ... ... ... : ... .. 2 ... ... ... : ... .. . ... : ... .. . ... : ... .. . ... ... : ... .. . ... ... : ... .. . ... ... : ... .. D ... ...
ROW 6C : ... .. . ... ... ... : ... .. . ... ... ... : ... .. . ... : ... .. . ... : ... .. . ... ... : ... .. 3 ... ... : ... .. 3 ... ... : ... .. 8 ... ...
ROW 6D : ... .. A ... ... ... : ... .. . ... ... ... : ... .. . ... : ... .. . ... : ... .. . ... ... : ... .. . ... ... : ... .. . ... ... : ... .. . ... ...
ROW 6E : ... .. 8 ... ... ... : ... .. 1 ... ... ... : ... .. . ... : ... .. . ... : ... .. . ... ... : ... .. . ... ... : ... .. . ... ... : ... .. 4 ... ...
ROW 6F : ... .. 7 ... ... ... : ... .. . ... ... ... : ... .. . ... : ... .. . ... : ... .. . ... ... : ... .. . ... ... : ... .. . ... ... : ... .. . ... ...
ROW 70 : B-4 00 D ... ... ... : F#4 00 F ... ... ... : A#3 00 . ... : 0-# 00 D ... : ... .. . ... ... : A-3 01 A ... ... : D-3 01 A ... ... : B-1 01 F ... ...
ROW 71 : ... .. B ... ... ... : ... .. E ... ... ... : C-3 00 . ... : ... .. B ... : ... .. . ... ... : ... .. 9 ... ... : ... .. 9 ... ... : ... .. D ... ...
ROW 72 : ... .. . ... ... ... : ... .. D ... ... ... : F-2 00 . ... : ... .. . ... : ... .. . ... ... : ... .. 8 ... ... : ... .. 8 ... ... : ... .. 8 ... ...
ROW 73 : ... .. A ... ... ... : ... .. A ... ... ... : E-2 00 . ... : ... .. A ... : ... .. . ... ... : ... .. 7 ... ... : ... .. 7 ... ... : ... .. . ... ...
ROW 74 : ... .. 8 ... ... ... : ... .. . ... ... ... : B-1 00 . ... : ... .. 8 ... : ... .. . ... ... : ... .. . ... ... : ... .. . ... ... : ... .. 4 ... ...
ROW 75 : ... .. 7 ... ... ... : ... .. . ... ... ... : ... .. . ... : ... .. 7 ... : ... .. . ... ... : ... .. 6 ... ... : ... .. 6 ... ... : ... .. . ... ...
ROW 76 : F#4 00 D ... ... ... : ... .. . ... ... ... : ... .. . ... : 1-# 00 D ... : ... .. . ... ... : ... .. . ... ... : ... .. . ... ... : B-0 01 F ... ...
ROW 77 : ... .. B ... ... ... : ... .. . ... ... ... : ... .. . ... : ... .. B ... : ... .. . ... ... : ... .. 5 ... ... : ... .. 5 ... ... : ... .. D ... ...
ROW 78 : ... .. . ... ... ... : ... .. . ... ... ... : ... .. . ... : ... .. . ... : ... .. . ... ... : ... .. . ... ... : ... .. . ... ... : ... .. 8 ... ...
ROW 79 : ... .. A ... ... ... : ... .. . ... ... ... : ... .. . ... : ... .. A ... : ... .. . ... ... : ... .. . ... ... : ... .. . ... ... : ... .. . ... ...
ROW 7A : ... .. 8 ... ... ... : ... .. . ... ... ... : ... .. . ... : ... .. 8 ... : ... .. . ... ... : ... .. . ... ... : ... .. . ... ... : ... .. 4 ... ...
ROW 7B : ... .. 7 ... ... ... : ... .. . ... ... ... : ... .. . ... : ... .. 7 ... : ... .. . ... ... : ... .. . ... ... : ... .. . ... ... : ... .. . ... ...
ROW 7C : B-3 00 D ... ... ... : ... .. . ... ... ... : ... .. . ... : ... .. D ... : ... .. . ... ... : ... .. . ... ... : ... .. . ... ... : ... .. F ... ...
ROW 7D : ... .. B ... ... ... : ... .. 2 ... ... ... : ... .. . ... : ... .. B ... : ... .. . ... ... : ... .. . ... ... : ... .. . ... ... : ... .. D ... ...
ROW 7E : ... .. . ... ... ... : ... .. . ... ... ... : ... .. . ... : ... .. . ... : ... .. . ... ... : ... .. 3 ... ... : ... .. 3 ... ... : ... .. 8 ... ...
ROW 7F : ... .. A ... ... ... : ... .. . ... ... ... : ... .. . ... : ... .. A ... : ... .. . ... ... : ... .. . ... ... : ... .. . ... ... : ... .. . ... ...
ROW 80 : ... .. 8 ... ... ... : ... .. 1 ... ... ... : ... .. . ... : ... .. 8 ... : ... .. . ... ... : ... .. . ... ... : ... .. . ... ... : ... .. 4 ... ...
ROW 81 : ... .. 7 ... ... ... : ... .. . ... ... ... : ... .. . ... : ... .. 7 ... : ... .. . ... ... : ... .. . ... ... : ... .. . ... ... : ... .. . ... ...
ROW 82 : A-3 00 D ... ... ... : B-3 00 F ... ... ... : A#3 00 . ... : 2-# 00 D ... : ... .. . ... ... : D-3 01 A ... ... : A-2 01 A ... ... : B-1 01 F ... ...
ROW 83 : ... .. B ... ... ... : ... .. E ... ... ... : C-3 00 . ... : ... .. B ... : ... .. . ... ... : ... .. 9 ... ... : ... .. 9 ... ... : ... .. D ... ...
ROW 84 : ... .. . ... ... ... : ... .. D ... ... ... : F-2 00 . ... : ... .. . ... : ... .. . ... ... : ... .. 8 ... ... : ... .. 8 ... ... : ... .. 8 ... ...
ROW 85 : ... .. A ... ... ... : ... .. A ... ... ... : E-2 00 . ... : ... .. A ... : ... .. . ... ... : ... .. 7 ... ... : ... .. 7 ... ... : ... .. . ... ...
ROW 86 : ... .. 8 ... ... ... : ... .. . ... ... ... : B-1 00 . ... : ... .. 8 ... : ... .. . ... ... : ... .. . ... ... : ... .. . ... ... : ... .. 4 ... ...
ROW 87 : ... .. 7 ... ... ... : ... .. . ... ... ... : ... .. . ... : ... .. 7 ... : ... .. . ... ... : ... .. 6 ... ... : ... .. 6 ... ... : ... .. . ... ...
ROW 88 : B-3 00 D ... ... ... : ... .. . ... ... ... : ... .. . ... : 3-# 00 D ... : ... .. . ... ... : ... .. . ... ... : ... .. . ... ... : B-0 01 F ... ...
ROW 89 : ... .. B ... ... ... : ... .. . ... ... ... : ... .. . ... : ... .. B ... : ... .. . ... ... : ... .. 5 ... ... : ... .. 5 ... ... : ... .. D ... ...
ROW 8A : ... .. . ... ... ... : ... .. . ... ... ... : ... .. . ... : ... .. . ... : ... .. . ... ... : ... .. . ... ... : ... .. . ... ... : ... .. 8 ... ...
ROW 8B : ... .. A ... ... ... : ... .. . ... ... ... : ... .. . ... : ... .. A ... : ... .. . ... ... : ... .. . ... ... : ... .. . ... ... : ... .. . ... ...
ROW 8C : ... .. 8 ... ... ... : ... .. . ... ... ... : ... .. . ... : ... .. 8 ... : ... .. . ... ... : ... .. . ... ... : ... .. . ... ... : ... .. 4 ... ...
ROW 8D : ... .. 7 ... ... ... : ... .. . ... ... ... : ... .. . ... : ... .. 7 ... : ... .. . ... ... : ... .. . ... ... : ... .. . ... ... : ... .. . ... ...
ROW 8E : F#4 00 D ... ... ... : ... .. . ... ... ... : ... .. . ... : ... .. D ... : ... .. . ... ... : ... .. . ... ... : ... .. . ... ... : ... .. F ... ...
ROW 8F : ... .. B ... ... ... : ... .. 2 ... ... ... : ... .. . ... : ... .. B ... : ... .. . ... ... : ... .. . ... ... : ... .. . ... ... : ... .. D ... ...
ROW 90 : ... .. . ... ... ... : ... .. . ... ... ... : ... .. . ... : ... .. . ... : ... .. . ... ... : ... .. 3 ... ... : ... .. 3 ... ... : ... .. 8 ... ...
ROW 91 : ... .. A ... ... ... : ... .. . ... ... ... : ... .. . ... : ... .. A ... : ... .. . ... ... : ... .. . ... ... : ... .. . ... ... : ... .. . ... ...
ROW 92 : ... .. 8 ... ... ... : ... .. 1 ... ... ... : ... .. . ... : ... .. 8 ... : ... .. . ... ... : ... .. . ... ... : ... .. . ... ... : ... .. 4 ... ...
ROW 93 : ... .. 7 ... ... ... : ... .. . ... ... ... : ... .. . ... : ... .. 7 ... : ... .. . ... ... : ... .. . ... ... : ... .. . ... ... : ... .. . ... ...
ROW 94 : B-4 00 D ... ... ... : E-4 00 F ... ... ... : A#3 00 . ... : 4-# 00 D ... : ... .. . ... ... : C-4 01 A ... ... : G-2 01 A ... ... : B-1 01 F ... ...
ROW 95 : ... .. B ... ... ... : ... .. E ... ... ... : C-3 00 . ... : ... .. B ... : ... .. . ... ... : ... .. 9 ... ... : ... .. 9 ... ... : ... .. D ... ...
ROW 96 : ... .. . ... ... ... : ... .. D ... ... ... : F-2 00 . ... : ... .. . ... : ... .. . ... ... : ... .. 8 ... ... : ... .. 8 ... ... : ... .. 8 ... ...
ROW 97 : ... .. A ... ... ... : ... .. A ... ... ... : E-2 00 . ... : ... .. A ... : ... .. . ... ... : ... .. 7 ... ... : ... .. 7 ... ... : ... .. . ... ...
ROW 98 : ... .. 8 ... ... ... : ... .. . ... ... ... : B-1 00 . ... : ... .. 8 ... : ... .. . ... ... : ... .. . ... ... : ... .. . ... ... : ... .. 4 ... ...
ROW 99 : ... .. 7 ... ... ... : ... .. . ... ... ... : ... .. . ... : ... .. 7 ... : ... .. . ... ... : ... .. 6 ... ... : ... .. 6 ... ... : ... .. . ... ...
ROW 9A : C-5 00 D ... ... ... : ... .. . ... ... ... : ... .. . ... : ... .. D ... : ... .. . ... ... : ... .. . ... ... : ... .. . ... ... : B-0 01 F ... ...
ROW 9B : ... .. B ... ... ... : ... .. . ... ... ... : ... .. . ... : ... .. B ... : ... .. . ... ... : ... .. 5 ... ... : ... .. 5 ... ... : ... .. D ... ...
ROW 9C : ... .. . ... ... ... : ... .. . ... ... ... : ... .. . ... : ... .. . ... : ... .. . ... ... : ... .. . ... ... : ... .. . ... ... : ... .. 8 ... ...
ROW 9D : ... .. A ... ... ... : ... .. . ... ... ... : ... .. . ... : ... .. A ... : ... .. . ... ... : ... .. . ... ... : ... .. . ... ... : ... .. . ... ...
ROW 9E : ... .. 8 ... ... ... : ... .. . ... ... ... : ... .. . ... : ... .. 8 ... : ... .. . ... ... : ... .. . ... ... : ... .. . ... ... : ... .. 4 ... ...
ROW 9F : ... .. 7 ... ... ... : ... .. . ... ... ... : ... .. . ... : ... .. 7 ... : ... .. . ... ... : ... .. . ... ... : ... .. . ... ... : ... .. . ... ...
ROW A0 : B-4 00 D ... ... ... : ... .. . ... ... ... : A#3 00 . ... : 5-# 00 D ... : ... .. . ... ... : ... .. . ... ... : ... .. . ... ... : ... .. F ... ...
ROW A1 : ... .. B ... ... ... : ... .. . ... ... ... : C-3 00 . ... : ... .. B ... : ... .. . ... ... : ... .. . ... ... : ... .. . ... ... : ... .. D ... ...
ROW A2 : ... .. . ... ... ... : ... .. . ... ... ... : F-2 00 . ... : ... .. . ... : ... .. . ... ... : ... .. . ... ... : ... .. . ... ... : ... .. 8 ... ...
ROW A3 : ... .. A ... ... ... : ... .. . ... ... ... : E-2 00 . ... : ... .. A ... : ... .. . ... ... : ... .. . ... ... : ... .. . ... ... : ... .. . ... ...
ROW A4 : ... .. 8 ... ... ... : ... .. . ... ... ... : B-1 00 . ... : ... .. 8 ... : ... .. . ... ... : ... .. . ... ... : ... .. . ... ... : ... .. 4 ... ...
ROW A5 : ... .. 7 ... ... ... : ... .. . ... ... ... : ... .. . ... : ... .. 7 ... : ... .. . ... ... : ... .. . ... ... : ... .. . ... ... : ... .. . ... ...
ROW A6 : F#4 00 D ... ... ... : ... .. . ... ... ... : ... .. . ... : ... .. D ... : ... .. . ... ... : ... .. . ... ... : ... .. . ... ... : B-1 01 F ... ...
ROW A7 : ... .. B ... ... ... : ... .. . ... ... ... : ... .. . ... : ... .. B ... : ... .. . ... ... : ... .. . ... ... : ... .. . ... ... : ... .. D ... ...
ROW A8 : ... .. . ... ... ... : ... .. . ... ... ... : ... .. . ... : ... .. . ... : ... .. . ... ... : ... .. . ... ... : ... .. . ... ... : ... .. 8 ... ...
ROW A9 : ... .. A ... ... ... : ... .. . ... ... ... : ... .. . ... : ... .. A ... : ... .. . ... ... : ... .. . ... ... : ... .. . ... ... : ... .. . ... ...
ROW AA : ... .. 8 ... ... ... : ... .. . ... ... ... : ... .. . ... : ... .. 8 ... : ... .. . ... ... : ... .. . ... ... : ... .. . ... ... : ... .. 4 ... ...
ROW AB : ... .. 7 ... ... ... : ... .. . ... ... ... : ... .. . ... : ... .. 7 ... : ... .. . ... ... : ... .. . ... ... : ... .. . ... ... : ... .. . ... ...
ROW AC : B-3 00 D ... ... ... : ... .. . ... ... ... : A#3 00 . ... : 6-# 00 D ... : ... .. . ... ... : ... .. . ... ... : ... .. . ... ... : B-0 01 F ... ...
ROW AD : ... .. B ... ... ... : ... .. . ... ... ... : C-3 00 . ... : ... .. B ... : ... .. . ... ... : ... .. . ... ... : ... .. . ... ... : ... .. D ... ...
ROW AE : ... .. . ... ... ... : ... .. . ... ... ... : F-2 00 . ... : ... .. . ... : ... .. . ... ... : ... .. . ... ... : ... .. . ... ... : ... .. 8 ... ...
ROW AF : ... .. A ... ... ... : ... .. . ... ... ... : E-2 00 . ... : ... .. A ... : ... .. . ... ... : ... .. . ... ... : ... .. . ... ... : ... .. . ... ...
ROW B0 : ... .. 8 ... ... ... : ... .. . ... ... ... : B-1 00 . ... : ... .. 8 ... : ... .. . ... ... : ... .. . ... ... : ... .. . ... ... : ... .. 4 ... ...
ROW B1 : ... .. 7 ... ... ... : ... .. . ... ... ... : ... .. . ... : ... .. 7 ... : ... .. . ... ... : ... .. . ... ... : ... .. . ... ... : ... .. . ... ...
ROW B2 : A-3 00 D ... ... ... : ... .. . ... ... ... : ... .. . ... : 7-# 00 D ... : ... .. . ... ... : ... .. . ... ... : ... .. . ... ... : ... .. F ... ...
ROW B3 : ... .. B ... ... ... : ... .. . ... ... ... : ... .. . ... : ... .. B ... : ... .. . ... ... : ... .. . ... ... : ... .. . ... ... : ... .. D ... ...
ROW B4 : ... .. . ... ... ... : ... .. . ... ... ... : ... .. . ... : ... .. . ... : ... .. . ... ... : ... .. . ... ... : ... .. . ... ... : ... .. 8 ... ...
ROW B5 : ... .. A ... ... ... : ... .. . ... ... ... : ... .. . ... : ... .. A ... : ... .. . ... ... : ... .. . ... ... : ... .. . ... ... : ... .. . ... ...
ROW B6 : ... .. 8 ... ... ... : ... .. . ... ... ... : ... .. . ... : ... .. 8 ... : ... .. . ... ... : ... .. . ... ... : ... .. . ... ... : ... .. 4 ... ...
ROW B7 : ... .. 7 ... ... ... : ... .. . ... ... ... : ... .. . ... : ... .. 7 ... : ... .. . ... ... : ... .. . ... ... : ... .. . ... ... : ... .. . ... ...
ROW B8 : A#3 00 D ... ... ... : ... .. . ... ... ... : A#3 00 . ... : 4-# 00 D ... : ... .. . ... ... : ... .. . ... ... : ... .. . ... ... : B-1 01 F ... ...
ROW B9 : ... .. B ... ... ... : ... .. . ... ... ... : C-3 00 . ... : ... .. B ... : ... .. . ... ... : ... .. . ... ... : ... .. . ... ... : ... .. D ... ...
ROW BA : ... .. . ... ... ... : ... .. . ... ... ... : F-2 00 . ... : ... .. . ... : ... .. . ... ... : ... .. . ... ... : ... .. . ... ... : ... .. 8 ... ...
ROW BB : ... .. A ... ... ... : ... .. . ... ... ... : E-2 00 . ... : ... .. A ... : ... .. . ... ... : ... .. . ... ... : ... .. . ... ... : ... .. . ... ...
ROW BC : ... .. 8 ... ... ... : ... .. . ... ... ... : B-1 00 . ... : ... .. 8 ... : ... .. . ... ... : ... .. . ... ... : ... .. . ... ... : ... .. 4 ... ...
ROW BD : ... .. 7 ... ... ... : ... .. . ... ... ... : ... .. . ... : ... .. 7 ... : ... .. . ... ... : ... .. . ... ... : ... .. . ... ... : ... .. . ... ...
ROW BE : F-3 00 D ... ... ... : ... .. . ... ... ... : ... .. . ... : 5-# 00 D ... : ... .. . ... ... : ... .. . ... ... : ... .. . ... ... : B-0 01 F ... ...
ROW BF : ... .. B ... ... ... : ... .. 2 ... ... ... : ... .. . ... : ... .. B ... : ... .. . ... ... : ... .. . ... ... : ... .. . ... ... : ... .. D ... ...
ROW C0 : ... .. . ... ... ... : ... .. . ... ... ... : ... .. . ... : ... .. . ... : ... .. . ... ... : ... .. 3 ... ... : ... .. 3 ... ... : ... .. 8 ... ...
ROW C1 : ... .. A ... ... ... : ... .. . ... ... ... : ... .. . ... : ... .. A ... : ... .. . ... ... : ... .. . ... ... : ... .. . ... ... : ... .. . ... ...
ROW C2 : ... .. 8 ... ... ... : ... .. 1 ... ... ... : ... .. . ... : ... .. 8 ... : ... .. . ... ... : ... .. . ... ... : ... .. . ... ... : ... .. 4 ... ...
ROW C3 : ... .. 7 ... ... ... : ... .. . ... ... ... : ... .. . ... : ... .. 7 ... : ... .. . ... ... : ... .. . ... ... : ... .. . ... ... : ... .. . ... ...
ROW C4 : A#2 00 D ... ... ... : ... .. F ... ... ... : ... .. . ... : 6-# 00 D ... : ... .. . ... ... : ... .. A ... ... : ... .. A ... ... : ... .. F ... ...
ROW C5 : ... .. B ... ... ... : ... .. E ... ... ... : ... .. . ... : ... .. B ... : ... .. . ... ... : ... .. 9 ... ... : ... .. 9 ... ... : ... .. D ... ...
ROW C6 : ... .. . ... ... ... : ... .. D ... ... ... : ... .. . ... : ... .. . ... : ... .. . ... ... : ... .. 8 ... ... : ... .. 8 ... ... : ... .. 8 ... ...
ROW C7 : ... .. A ... ... ... : ... .. A ... ... ... : ... .. . ... : ... .. A ... : ... .. . ... ... : ... .. 7 ... ... : ... .. 7 ... ... : ... .. . ... ...
ROW C8 : ... .. 8 ... ... ... : ... .. . ... ... ... : ... .. . ... : ... .. 8 ... : ... .. . ... ... : ... .. . ... ... : ... .. . ... ... : ... .. 4 ... ...
ROW C9 : ... .. 7 ... ... ... : ... .. . ... ... ... : ... .. . ... : ... .. 7 ... : ... .. . ... ... : ... .. 6 ... ... : ... .. 6 ... ... : ... .. . ... ...
ROW CA : D-3 00 D ... ... ... : ... .. . ... ... ... : A#3 00 . ... : 7-# 00 D ... : ... .. . ... ... : ... .. 5 ... ... : ... .. 5 ... ... : B-1 01 F ... ...
ROW CB : ... .. B ... ... ... : ... .. 2 ... ... ... : C-3 00 . ... : ... .. B ... : ... .. . ... ... : ... .. . ... ... : ... .. . ... ... : ... .. D ... ...
ROW CC : ... .. . ... ... ... : ... .. . ... ... ... : F-2 00 . ... : ... .. . ... : ... .. . ... ... : ... .. 3 ... ... : ... .. 3 ... ... : ... .. 8 ... ...
ROW CD : ... .. A ... ... ... : ... .. . ... ... ... : E-2 00 . ... : ... .. A ... : ... .. . ... ... : ... .. . ... ... : ... .. . ... ... : ... .. . ... ...
ROW CE : ... .. 8 ... ... ... : ... .. 1 ... ... ... : B-1 00 . ... : ... .. 8 ... : ... .. . ... ... : ... .. . ... ... : ... .. . ... ... : ... .. 4 ... ...
ROW CF : ... .. 7 ... ... ... : ... .. . ... ... ... : ... .. . ... : ... .. 7 ... : ... .. . ... ... : ... .. . ... ... : ... .. . ... ... : ... .. . ... ...
ROW D0 : E-3 00 D ... ... ... : D-4 00 F ... ... ... : ... .. . ... : 8-# 00 D ... : ... .. . ... ... : A#3 01 A ... ... : F-2 01 A ... ... : B-0 01 F ... ...
ROW D1 : ... .. B ... ... ... : ... .. E ... ... ... : ... .. . ... : ... .. B ... : ... .. . ... ... : ... .. 9 ... ... : ... .. 9 ... ... : ... .. D ... ...
ROW D2 : ... .. . ... ... ... : ... .. D ... ... ... : ... .. . ... : ... .. . ... : ... .. . ... ... : ... .. 8 ... ... : ... .. 8 ... ... : ... .. 8 ... ...
ROW D3 : ... .. A ... ... ... : ... .. A ... ... ... : ... .. . ... : ... .. A ... : ... .. . ... ... : ... .. 7 ... ... : ... .. 7 ... ... : ... .. . ... ...
ROW D4 : ... .. 8 ... ... ... : ... .. . ... ... ... : ... .. . ... : ... .. 8 ... : ... .. . ... ... : ... .. . ... ... : ... .. . ... ... : ... .. 4 ... ...
ROW D5 : ... .. 7 ... ... ... : ... .. . ... ... ... : ... .. . ... : ... .. 7 ... : ... .. . ... ... : ... .. 6 ... ... : ... .. 6 ... ... : ... .. . ... ...
ROW D6 : F-3 00 D ... ... ... : ... .. . ... ... ... : ... .. . ... : 9-# 00 D ... : ... .. . ... ... : ... .. . ... ... : ... .. . ... ... : ... .. F ... ...
ROW D7 : ... .. B ... ... ... : ... .. . ... ... ... : ... .. . ... : ... .. B ... : ... .. . ... ... : ... .. 5 ... ... : ... .. 5 ... ... : ... .. D ... ...
ROW D8 : ... .. . ... ... ... : ... .. . ... ... ... : ... .. . ... : ... .. . ... : ... .. . ... ... : ... .. . ... ... : ... .. . ... ... : ... .. 8 ... ...
ROW D9 : ... .. A ... ... ... : ... .. . ... ... ... : ... .. . ... : ... .. A ... : ... .. . ... ... : ... .. . ... ... : ... .. . ... ... : ... .. . ... ...
ROW DA : ... .. 8 ... ... ... : ... .. . ... ... ... : ... .. . ... : ... .. 8 ... : ... .. . ... ... : ... .. . ... ... : ... .. . ... ... : ... .. 4 ... ...
ROW DB : ... .. 7 ... ... ... : ... .. . ... ... ... : ... .. . ... : ... .. 7 ... : ... .. . ... ... : ... .. . ... ... : ... .. . ... ... : ... .. . ... ...
ROW DC : A#3 00 D ... ... ... : ... .. . ... ... ... : A#3 00 . ... : 7-# 00 D ... : ... .. . ... ... : ... .. . ... ... : ... .. . ... ... : B-1 01 F ... ...
ROW DD : ... .. B ... ... ... : ... .. . ... ... ... : C-3 00 . ... : ... .. B ... : ... .. . ... ... : ... .. . ... ... : ... .. . ... ... : ... .. D ... ...
ROW DE : ... .. . ... ... ... : ... .. . ... ... ... : F-2 00 . ... : ... .. . ... : ... .. . ... ... : ... .. . ... ... : ... .. . ... ... : ... .. 8 ... ...
ROW DF : ... .. A ... ... ... : ... .. . ... ... ... : E-2 00 . ... : ... .. A ... : ... .. . ... ... : ... .. . ... ... : ... .. . ... ... : ... .. . ... ...
ROW E0 : ... .. 8 ... ... ... : ... .. . ... ... ... : B-1 00 . ... : ... .. 8 ... : ... .. . ... ... : ... .. . ... ... : ... .. . ... ... : ... .. 4 ... ...
ROW E1 : ... .. 7 ... ... ... : ... .. . ... ... ... : ... .. . ... : ... .. 7 ... : ... .. . ... ... : ... .. . ... ... : ... .. . ... ... : ... .. . ... ...
ROW E2 : D-4 00 D ... ... ... : ... .. . ... ... ... : ... .. . ... : 8-# 00 D ... : ... .. . ... ... : ... .. . ... ... : ... .. . ... ... : B-0 01 F ... ...
ROW E3 : ... .. B ... ... ... : ... .. . ... ... ... : ... .. . ... : ... .. B ... : ... .. . ... ... : ... .. . ... ... : ... .. . ... ... : ... .. D ... ...
ROW E4 : ... .. . ... ... ... : ... .. . ... ... ... : ... .. . ... : ... .. . ... : ... .. . ... ... : ... .. . ... ... : ... .. . ... ... : ... .. 8 ... ...
ROW E5 : ... .. A ... ... ... : ... .. . ... ... ... : ... .. . ... : ... .. A ... : ... .. . ... ... : ... .. . ... ... : ... .. . ... ... : ... .. . ... ...
ROW E6 : ... .. 8 ... ... ... : ... .. . ... ... ... : ... .. . ... : ... .. 8 ... : ... .. . ... ... : ... .. . ... ... : ... .. . ... ... : ... .. 4 ... ...
ROW E7 : ... .. 7 ... ... ... : ... .. . ... ... ... : ... .. . ... : ... .. 7 ... : ... .. . ... ... : ... .. . ... ... : ... .. . ... ... : ... .. . ... ...
ROW E8 : E-4 00 D ... ... ... : ... .. . ... ... ... : A#3 00 . ... : 9-# 00 D ... : ... .. . ... ... : ... .. . ... ... : ... .. . ... ... : B-1 01 F ... ...
ROW E9 : ... .. B ... ... ... : ... .. . ... ... ... : C-3 00 . ... : ... .. B ... : ... .. . ... ... : ... .. . ... ... : ... .. . ... ... : ... .. D ... ...
ROW EA : ... .. . ... ... ... : ... .. . ... ... ... : F-2 00 . ... : ... .. . ... : ... .. . ... ... : ... .. . ... ... : ... .. . ... ... : ... .. 8 ... ...
ROW EB : ... .. A ... ... ... : ... .. . ... ... ... : E-2 00 . ... : ... .. A ... : ... .. . ... ... : ... .. . ... ... : ... .. . ... ... : ... .. . ... ...
ROW EC : ... .. 8 ... ... ... : ... .. . ... ... ... : B-1 00 . ... : ... .. 8 ... : ... .. . ... ... : ... .. . ... ... : ... .. . ... ... : ... .. 4 ... ...
ROW ED : ... .. 7 ... ... ... : ... .. . ... ... ... : ... .. . ... : ... .. 7 ... : ... .. . ... ... : ... .. . ... ... : ... .. . ... ... : ... .. . ... ...
ROW EE : F-4 00 D ... ... ... : ... .. . ... ... ... : ... .. . ... : A-# 00 D ... : ... .. . ... ... : ... .. . ... ... : ... .. . ... ... : B-0 01 F ... ...
ROW EF : ... .. B ... ... ... : ... .. . ... ... ... : ... .. . ... : ... .. B ... : ... .. . ... ... : ... .. . ... ... : ... .. . ... ... : ... .. D ... ...
ROW F0 : ... .. . ... ... ... : ... .. . ... ... ... : ... .. . ... : ... .. . ... : ... .. . ... ... : ... .. . ... ... : ... .. . ... ... : ... .. 8 ... ...
ROW F1 : ... .. A ... ... ... : ... .. . ... ... ... : ... .. . ... : ... .. A ... : ... .. . ... ... : ... .. . ... ... : ... .. . ... ... : ... .. . ... ...
ROW F2 : ... .. 8 ... ... ... : ... .. . ... ... ... : ... .. . ... : ... .. 8 ... : ... .. . ... ... : ... .. . ... ... : ... .. . ... ... : ... .. 4 ... ...
ROW F3 : ... .. 7 ... ... ... : ... .. . ... ... ... : ... .. . ... : ... .. 7 ... : ... .. . ... ... : ... .. . ... ... : ... .. . ... ... : ... .. . ... ...
ROW F4 : A#4 00 D ... ... ... : ... .. . ... ... ... : A#3 00 . ... : B-# 00 D ... : ... .. . ... ... : ... .. . ... ... : ... .. . ... ... : B-1 01 F ... ...
ROW F5 : ... .. B ... ... ... : ... .. 2 ... ... ... : C-3 00 . ... : ... .. B ... : ... .. . ... ... : ... .. . ... ... : ... .. . ... ... : ... .. D ... ...
ROW F6 : ... .. . ... ... ... : ... .. . ... ... ... : F-2 00 . ... : ... .. . ... : ... .. . ... ... : ... .. 3 ... ... : ... .. 3 ... ... : ... .. 8 ... ...
ROW F7 : ... .. A ... ... ... : ... .. . ... ... ... : E-2 00 . ... : ... .. A ... : ... .. . ... ... : ... .. . ... ... : ... .. . ... ... : ... .. . ... ...
ROW F8 : ... .. 8 ... ... ... : ... .. 1 ... ... ... : B-1 00 . ... : ... .. 8 ... : ... .. . ... ... : ... .. . ... ... : ... .. . ... ... : ... .. 4 ... ...
ROW F9 : ... .. 7 ... ... ... : ... .. . ... ... ... : ... .. . ... : ... .. 7 ... : ... .. . ... ... : ... .. . ... ... : ... .. . ... ... : ... .. . ... ...
ROW FA : D-5 00 D ... ... ... : ... .. . ... ... ... : ... .. . ... : C-# 00 D ... : ... .. . ... ... : ... .. . ... ... : ... .. . ... ... : B-0 01 F ... ...
ROW FB : ... .. B ... ... ... : ... .. 0 ... ... ... : ... .. . ... : ... .. B ... : ... .. . ... ... : ... .. . ... ... : ... .. . ... ... : ... .. D ... ...
ROW FC : ... .. . ... ... ... : ... .. . ... ... ... : ... .. . ... : ... .. . ... : ... .. . ... ... : ... .. . ... ... : ... .. . ... ... : ... .. 8 ... ...
ROW FD : ... .. A ... ... ... : ... .. . ... ... ... : ... .. . ... : ... .. A ... : ... .. . ... ... : ... .. . ... ... : ... .. . ... ... : ... .. . ... ...
ROW FE : ... .. 8 ... ... ... : ... .. . ... ... ... : ... .. . ... : ... .. 8 ... : ... .. . ... ... : ... .. . ... ... : ... .. . ... ... : ... .. 4 ... ...
ROW FF : ... .. 7 ... ... ... : ... .. . ... ... ... : ... .. . ... : ... .. 7 ... : ... .. . ... ... : ... .. . ... ... : ... .. . ... ... : ... .. . ... ...

PATTERN 12
ROW 00 : B-3 00 D ... ... ... : B-2 00 F P81 ... ... : A#3 00 . ... : 4-# 00 D ... : ... .. . ... ... : F#2 01 A ... ... : E-2 01 A ... ... : B-1 01 F ... ...
ROW 01 : ... .. B ... ... ... : ... .. E ... ... ... : C-3 00 . ... : ... .. B ... : ... .. . ... ... : ... .. 9 ... ... : ... .. 9 ... ... : ... .. D ... ...
ROW 02 : ... .. . ... ... ... : ... .. D ... ... ... : F-2 00 . ... : ... .. . ... : ... .. . ... ... : ... .. 8 ... ... : ... .. 8 ... ... : ... .. 8 ... ...
ROW 03 : ... .. A ... ... ... : ... .. A ... ... ... : E-2 00 . ... : ... .. A ... : ... .. . ... ... : ... .. 7 ... ... : ... .. 7 ... ... : ... .. . ... ...
ROW 04 : ... .. 8 ... ... ... : ... .. . ... ... ... : B-1 00 . ... : ... .. 8 ... : ... .. . ... ... : ... .. . ... ... : ... .. . ... ... : ... .. 4 ... ...
ROW 05 : ... .. 7 ... ... ... : ... .. . ... ... ... : ... .. . ... : ... .. 7 ... : ... .. . ... ... : ... .. 6 ... ... : ... .. 6 ... ... : ... .. . ... ...
ROW 06 : F#3 00 D ... ... ... : B-0 00 F ... ... ... : ... .. . ... : 1-# 00 F ... : ... .. . ... ... : ... .. . ... ... : ... .. . ... ... : B-0 01 F ... ...
ROW 07 : ... .. B ... ... ... : ... .. E ... ... ... : ... .. . ... : ... .. C ... : ... .. . ... ... : ... .. 5 ... ... : ... .. 5 ... ... : ... .. D ... ...
ROW 08 : ... .. . ... ... ... : ... .. D ... ... ... : ... .. . ... : ... .. 6 ... : ... .. . ... ... : ... .. . ... ... : ... .. . ... ... : ... .. 8 ... ...
ROW 09 : ... .. A ... ... ... : ... .. A ... ... ... : ... .. . ... : ... .. 3 ... : ... .. . ... ... : ... .. . ... ... : ... .. . ... ... : ... .. . ... ...
ROW 0A : ... .. 8 ... ... ... : ... .. 2 ... ... ... : ... .. . ... : ... .. 2 ... : ... .. . ... ... : ... .. . ... ... : ... .. . ... ... : ... .. 4 ... ...
ROW 0B : ... .. 7 ... ... ... : ... .. . ... ... ... : ... .. . ... : ... .. 0 ... : ... .. . ... ... : ... .. . ... ... : ... .. . ... ... : ... .. . ... ...
ROW 0C : B-2 00 D ... ... ... : ... .. F ... ... ... : ... .. . ... : ... .. F ... : ... .. . ... ... : ... .. . ... ... : ... .. . ... ... : ... .. F ... ...
ROW 0D : ... .. B ... ... ... : ... .. E ... ... ... : ... .. . ... : ... .. C ... : ... .. . ... ... : ... .. . ... ... : ... .. . ... ... : ... .. D ... ...
ROW 0E : ... .. . ... ... ... : ... .. D ... ... ... : ... .. . ... : ... .. 6 ... : ... .. . ... ... : ... .. 3 ... ... : ... .. 3 ... ... : ... .. 8 ... ...
ROW 0F : ... .. A ... ... ... : ... .. A ... ... ... : ... .. . ... : ... .. 3 ... : ... .. . ... ... : ... .. . ... ... : ... .. . ... ... : ... .. . ... ...
ROW 10 : ... .. 8 ... ... ... : ... .. 2 ... ... ... : ... .. . ... : ... .. 2 ... : ... .. . ... ... : ... .. . ... ... : ... .. . ... ... : ... .. 4 ... ...
ROW 11 : ... .. 7 ... ... ... : ... .. . ... ... ... : ... .. . ... : ... .. 0 ... : ... .. . ... ... : ... .. . ... ... : ... .. . ... ... : ... .. . ... ...
ROW 12 : A-2 00 D ... ... ... : B-2 00 F ... ... ... : A#3 00 . ... : 4-# 00 D ... : ... .. . ... ... : ... .. A ... ... : ... .. A ... ... : B-1 01 F ... ...
ROW 13 : ... .. B ... ... ... : ... .. E ... ... ... : C-3 00 . ... : ... .. B ... : ... .. . ... ... : ... .. 9 ... ... : ... .. 9 ... ... : ... .. D ... ...
ROW 14 : ... .. . ... ... ... : ... .. D ... ... ... : F-2 00 . ... : ... .. . ... : ... .. . ... ... : ... .. 8 ... ... : ... .. 8 ... ... : ... .. 8 ... ...
ROW 15 : ... .. A ... ... ... : ... .. A ... ... ... : E-2 00 . ... : ... .. A ... : ... .. . ... ... : ... .. 7 ... ... : ... .. 7 ... ... : ... .. . ... ...
ROW 16 : ... .. 8 ... ... ... : ... .. . ... ... ... : B-1 00 . ... : ... .. 8 ... : ... .. . ... ... : ... .. . ... ... : ... .. . ... ... : ... .. 4 ... ...
ROW 17 : ... .. 7 ... ... ... : ... .. . ... ... ... : ... .. . ... : ... .. 7 ... : ... .. . ... ... : ... .. 6 ... ... : ... .. 6 ... ... : ... .. . ... ...
ROW 18 : B-2 00 D ... ... ... : B-0 00 F ... ... ... : ... .. . ... : 1-# 00 F ... : ... .. . ... ... : ... .. . ... ... : ... .. . ... ... : B-0 01 F ... ...
ROW 19 : ... .. B ... ... ... : ... .. E ... ... ... : ... .. . ... : ... .. C ... : ... .. . ... ... : ... .. 5 ... ... : ... .. 5 ... ... : ... .. D ... ...
ROW 1A : ... .. . ... ... ... : ... .. D ... ... ... : ... .. . ... : ... .. 6 ... : ... .. . ... ... : ... .. . ... ... : ... .. . ... ... : ... .. 8 ... ...
ROW 1B : ... .. A ... ... ... : ... .. A ... ... ... : ... .. . ... : ... .. 3 ... : ... .. . ... ... : ... .. . ... ... : ... .. . ... ... : ... .. . ... ...
ROW 1C : ... .. 8 ... ... ... : ... .. 2 ... ... ... : ... .. . ... : ... .. 2 ... : ... .. . ... ... : ... .. . ... ... : ... .. . ... ... : ... .. 4 ... ...
ROW 1D : ... .. 7 ... ... ... : ... .. . ... ... ... : ... .. . ... : ... .. 0 ... : ... .. . ... ... : ... .. . ... ... : ... .. . ... ... : ... .. . ... ...
ROW 1E : F#3 00 D ... ... ... : ... .. F ... ... ... : ... .. . ... : ... .. F ... : ... .. . ... ... : ... .. . ... ... : ... .. . ... ... : ... .. F ... ...
ROW 1F : ... .. B ... ... ... : ... .. E ... ... ... : ... .. . ... : ... .. C ... : ... .. . ... ... : ... .. . ... ... : ... .. . ... ... : ... .. D ... ...
ROW 20 : ... .. . ... ... ... : ... .. D ... ... ... : ... .. . ... : ... .. 6 ... : ... .. . ... ... : ... .. 3 ... ... : ... .. 3 ... ... : ... .. 8 ... ...
ROW 21 : ... .. A ... ... ... : ... .. A ... ... ... : ... .. . ... : ... .. 3 ... : ... .. . ... ... : ... .. . ... ... : ... .. . ... ... : ... .. . ... ...
ROW 22 : ... .. 8 ... ... ... : ... .. 2 ... ... ... : ... .. . ... : ... .. 2 ... : ... .. . ... ... : ... .. . ... ... : ... .. . ... ... : ... .. 4 ... ...
ROW 23 : ... .. 7 ... ... ... : ... .. . ... ... ... : ... .. . ... : ... .. 0 ... : ... .. . ... ... : ... .. . ... ... : ... .. . ... ... : ... .. . ... ...
ROW 24 : B-3 00 D ... ... ... : C-3 00 F ... ... ... : A#3 00 . ... : 4-# 00 D ... : ... .. . ... ... : G-2 01 A ... ... : F-2 01 A ... ... : B-1 01 F ... ...
ROW 25 : ... .. B ... ... ... : ... .. E ... ... ... : C-3 00 . ... : ... .. B ... : ... .. . ... ... : ... .. 9 ... ... : ... .. 9 ... ... : ... .. D ... ...
ROW 26 : ... .. . ... ... ... : ... .. D ... ... ... : F-2 00 . ... : ... .. . ... : ... .. . ... ... : ... .. 8 ... ... : ... .. 8 ... ... : ... .. 8 ... ...
ROW 27 : ... .. A ... ... ... : ... .. A ... ... ... : E-2 00 . ... : ... .. A ... : ... .. . ... ... : ... .. 7 ... ... : ... .. 7 ... ... : ... .. . ... ...
ROW 28 : ... .. 8 ... ... ... : ... .. . ... ... ... : B-1 00 . ... : ... .. 8 ... : ... .. . ... ... : ... .. . ... ... : ... .. . ... ... : ... .. 4 ... ...
ROW 29 : ... .. 7 ... ... ... : ... .. . ... ... ... : ... .. . ... : ... .. 7 ... : ... .. . ... ... : ... .. 6 ... ... : ... .. 6 ... ... : ... .. . ... ...
ROW 2A : C-4 00 D ... ... ... : B-0 00 F ... ... ... : ... .. . ... : 1-# 00 F ... : ... .. . ... ... : ... .. . ... ... : ... .. . ... ... : B-0 01 F ... ...
ROW 2B : ... .. B ... ... ... : ... .. E ... ... ... : ... .. . ... : ... .. C ... : ... .. . ... ... : ... .. 5 ... ... : ... .. 5 ... ... : ... .. D ... ...
ROW 2C : ... .. . ... ... ... : ... .. D ... ... ... : ... .. . ... : ... .. 6 ... : ... .. . ... ... : ... .. . ... ... : ... .. . ... ... : ... .. 8 ... ...
ROW 2D : ... .. A ... ... ... : ... .. A ... ... ... : ... .. . ... : ... .. 3 ... : ... .. . ... ... : ... .. . ... ... : ... .. . ... ... : ... .. . ... ...
ROW 2E : ... .. 8 ... ... ... : ... .. 2 ... ... ... : ... .. . ... : ... .. 2 ... : ... .. . ... ... : ... .. . ... ... : ... .. . ... ... : ... .. 4 ... ...
ROW 2F : ... .. 7 ... ... ... : ... .. . ... ... ... : ... .. . ... : ... .. 0 ... : ... .. . ... ... : ... .. . ... ... : ... .. . ... ... : ... .. . ... ...
ROW 30 : B-3 00 D ... ... ... : ... .. F ... ... ... : A#3 00 . ... : ... .. F ... : ... .. . ... ... : ... .. . ... ... : ... .. . ... ... : ... .. F ... ...
ROW 31 : ... .. B ... ... ... : ... .. E ... ... ... : C-3 00 . ... : ... .. C ... : ... .. . ... ... : ... .. . ... ... : ... .. . ... ... : ... .. D ... ...
ROW 32 : ... .. . ... ... ... : ... .. D ... ... ... : F-2 00 . ... : ... .. 6 ... : ... .. . ... ... : ... .. 3 ... ... : ... .. 3 ... ... : ... .. 8 ... ...
ROW 33 : ... .. A ... ... ... : ... .. A ... ... ... : E-2 00 . ... : ... .. 3 ... : ... .. . ... ... : ... .. . ... ... : ... .. . ... ... : ... .. . ... ...
ROW 34 : ... .. 8 ... ... ... : ... .. 2 ... ... ... : B-1 00 . ... : ... .. 2 ... : ... .. . ... ... : ... .. . ... ... : ... .. . ... ... : ... .. 4 ... ...
ROW 35 : ... .. 7 ... ... ... : ... .. . ... ... ... : ... .. . ... : ... .. 0 ... : ... .. . ... ... : ... .. . ... ... : ... .. . ... ... : ... .. . ... ...
ROW 36 : F#3 00 D ... ... ... : C-3 00 F ... ... ... : ... .. . ... : 4-# 00 D ... : ... .. . ... ... : ... .. A ... ... : ... .. A ... ... : B-1 01 F ... ...
ROW 37 : ... .. B ... ... ... : ... .. E ... ... ... : ... .. . ... : ... .. B ... : ... .. . ... ... : ... .. 9 ... ... : ... .. 9 ... ... : ... .. D ... ...
ROW 38 : ... .. . ... ... ... : ... .. D ... ... ... : ... .. . ... : ... .. . ... : ... .. . ... ... : ... .. 8 ... ... : ... .. 8 ... ... : ... .. 8 ... ...
ROW 39 : ... .. A ... ... ... : ... .. A ... ... ... : ... .. . ... : ... .. A ... : ... .. . ... ... : ... .. 7 ... ... : ... .. 7 ... ... : ... .. . ... ...
ROW 3A : ... .. 8 ... ... ... : ... .. . ... ... ... : ... .. . ... : ... .. 8 ... : ... .. . ... ... : ... .. . ... ... : ... .. . ... ... : ... .. 4 ... ...
ROW 3B : ... .. 7 ... ... ... : ... .. . ... ... ... : ... .. . ... : ... .. 7 ... : ... .. . ... ... : ... .. 6 ... ... : ... .. 6 ... ... : ... .. . ... ...
ROW 3C : B-2 00 D ... ... ... : B-0 00 F ... ... ... : A#3 00 . ... : 1-# 00 F ... : ... .. . ... ... : ... .. . ... ... : ... .. . ... ... : B-0 01 F ... ...
ROW 3D : ... .. B ... ... ... : ... .. E ... ... ... : C-3 00 . ... : ... .. C ... : ... .. . ... ... : ... .. 5 ... ... : ... .. 5 ... ... : ... .. D ... ...
ROW 3E : ... .. . ... ... ... : ... .. D ... ... ... : F-2 00 . ... : ... .. 6 ... : ... .. . ... ... : ... .. . ... ... : ... .. . ... ... : ... .. 8 ... ...
ROW 3F : ... .. A ... ... ... : ... .. A ... ... ... : E-2 00 . ... : ... .. 3 ... : ... .. . ... ... : ... .. . ... ... : ... .. . ... ... : ... .. . ... ...
ROW 40 : ... .. 8 ... ... ... : ... .. 2 ... ... ... : B-1 00 . ... : ... .. 2 ... : ... .. . ... ... : ... .. . ... ... : ... .. . ... ... : ... .. 4 ... ...
ROW 41 : ... .. 7 ... ... ... : ... .. . ... ... ... : ... .. . ... : ... .. 0 ... : ... .. . ... ... : ... .. . ... ... : ... .. . ... ... : ... .. . ... ...
ROW 42 : A-2 00 D ... ... ... : ... .. F ... ... ... : ... .. . ... : ... .. F ... : ... .. . ... ... : ... .. . ... ... : ... .. . ... ... : ... .. F ... ...
ROW 43 : ... .. B ... ... ... : ... .. E ... ... ... : ... .. . ... : ... .. C ... : ... .. . ... ... : ... .. . ... ... : ... .. . ... ... : ... .. D ... ...
ROW 44 : ... .. . ... ... ... : ... .. D ... ... ... : ... .. . ... : ... .. 6 ... : ... .. . ... ... : ... .. 3 ... ... : ... .. 3 ... ... : ... .. 8 ... ...
ROW 45 : ... .. A ... ... ... : ... .. A ... ... ... : ... .. . ... : ... .. 3 ... : ... .. . ... ... : ... .. . ... ... : ... .. . ... ... : ... .. . ... ...
ROW 46 : ... .. 8 ... ... ... : ... .. 2 ... ... ... : ... .. . ... : ... .. 2 ... : ... .. . ... ... : ... .. . ... ... : ... .. . ... ... : ... .. 4 ... ...
ROW 47 : ... .. 7 ... ... ... : ... .. . ... ... ... : ... .. . ... : ... .. 0 ... : ... .. . ... ... : ... .. . ... ... : ... .. . ... ... : ... .. . ... ...
ROW 48 : B-2 00 D ... ... ... : D-3 00 F ... ... ... : A#3 00 . ... : 4-# 00 D ... : ... .. . ... ... : A-2 01 A ... ... : G-2 01 A ... ... : B-1 01 F ... ...
ROW 49 : ... .. B ... ... ... : ... .. E ... ... ... : C-3 00 . ... : ... .. B ... : ... .. . ... ... : ... .. 9 ... ... : ... .. 9 ... ... : ... .. D ... ...
ROW 4A : ... .. . ... ... ... : ... .. D ... ... ... : F-2 00 . ... : ... .. . ... : ... .. . ... ... : ... .. 8 ... ... : ... .. 8 ... ... : ... .. 8 ... ...
ROW 4B : ... .. A ... ... ... : ... .. A ... ... ... : E-2 00 . ... : ... .. A ... : ... .. . ... ... : ... .. 7 ... ... : ... .. 7 ... ... : ... .. . ... ...
ROW 4C : ... .. 8 ... ... ... : ... .. . ... ... ... : B-1 00 . ... : ... .. 8 ... : ... .. . ... ... : ... .. . ... ... : ... .. . ... ... : ... .. 4 ... ...
ROW 4D : ... .. 7 ... ... ... : ... .. . ... ... ... : ... .. . ... : ... .. 7 ... : ... .. . ... ... : ... .. 6 ... ... : ... .. 6 ... ... : ... .. . ... ...
ROW 4E : F#2 00 D ... ... ... : B-0 00 F ... ... ... : ... .. . ... : 1-# 00 F ... : ... .. . ... ... : ... .. . ... ... : ... .. . ... ... : B-0 01 F ... ...
ROW 4F : ... .. B ... ... ... : ... .. E ... ... ... : ... .. . ... : ... .. C ... : ... .. . ... ... : ... .. 5 ... ... : ... .. 5 ... ... : ... .. D ... ...
ROW 50 : ... .. . ... ... ... : ... .. D ... ... ... : ... .. . ... : ... .. 6 ... : ... .. . ... ... : ... .. . ... ... : ... .. . ... ... : ... .. 8 ... ...
ROW 51 : ... .. A ... ... ... : ... .. A ... ... ... : ... .. . ... : ... .. 3 ... : ... .. . ... ... : ... .. . ... ... : ... .. . ... ... : ... .. . ... ...
ROW 52 : ... .. 8 ... ... ... : ... .. 2 ... ... ... : ... .. . ... : ... .. 2 ... : ... .. . ... ... : ... .. . ... ... : ... .. . ... ... : ... .. 4 ... ...
ROW 53 : ... .. 7 ... ... ... : ... .. . ... ... ... : ... .. . ... : ... .. 0 ... : ... .. . ... ... : ... .. . ... ... : ... .. . ... ... : ... .. . ... ...
ROW 54 : B-1 00 D ... ... ... : ... .. F ... ... ... : ... .. . ... : ... .. F ... : ... .. . ... ... : ... .. . ... ... : ... .. . ... ... : ... .. F ... ...
ROW 55 : ... .. B ... ... ... : ... .. E ... ... ... : ... .. . ... : ... .. C ... : ... .. . ... ... : ... .. . ... ... : ... .. . ... ... : ... .. D ... ...
ROW 56 : ... .. . ... ... ... : ... .. D ... ... ... : ... .. . ... : ... .. 6 ... : ... .. . ... ... : ... .. 3 ... ... : ... .. 3 ... ... : ... .. 8 ... ...
ROW 57 : ... .. A ... ... ... : ... .. A ... ... ... : ... .. . ... : ... .. 3 ... : ... .. . ... ... : ... .. . ... ... : ... .. . ... ... : ... .. . ... ...
ROW 58 : ... .. 8 ... ... ... : ... .. 2 ... ... ... : ... .. . ... : ... .. 2 ... : ... .. . ... ... : ... .. . ... ... : ... .. . ... ... : ... .. 4 ... ...
ROW 59 : ... .. 7 ... ... ... : ... .. . ... ... ... : ... .. . ... : ... .. 0 ... : ... .. . ... ... : ... .. . ... ... : ... .. . ... ... : ... .. . ... ...
ROW 5A : A-1 00 D ... ... ... : D-3 00 F ... ... ... : A#3 00 . ... : 4-# 00 D ... : ... .. . ... ... : ... .. A ... ... : ... .. A ... ... : B-1 01 F ... ...
ROW 5B : ... .. B ... ... ... : ... .. E ... ... ... : C-3 00 . ... : ... .. B ... : ... .. . ... ... : ... .. 9 ... ... : ... .. 9 ... ... : ... .. D ... ...
ROW 5C : ... .. . ... ... ... : ... .. D ... ... ... : F-2 00 . ... : ... .. . ... : ... .. . ... ... : ... .. 8 ... ... : ... .. 8 ... ... : ... .. 8 ... ...
ROW 5D : ... .. A ... ... ... : ... .. A ... ... ... : E-2 00 . ... : ... .. A ... : ... .. . ... ... : ... .. 7 ... ... : ... .. 7 ... ... : ... .. . ... ...
ROW 5E : ... .. 8 ... ... ... : ... .. . ... ... ... : B-1 00 . ... : ... .. 8 ... : ... .. . ... ... : ... .. . ... ... : ... .. . ... ... : ... .. 4 ... ...
ROW 5F : ... .. 7 ... ... ... : ... .. . ... ... ... : ... .. . ... : ... .. 7 ... : ... .. . ... ... : ... .. 6 ... ... : ... .. 6 ... ... : ... .. . ... ...
ROW 60 : B-1 00 D ... ... ... : B-0 00 F ... ... ... : ... .. . ... : 1-# 00 F ... : ... .. . ... ... : ... .. . ... ... : ... .. . ... ... : B-0 01 F ... ...
ROW 61 : ... .. B ... ... ... : ... .. E ... ... ... : ... .. . ... : ... .. C ... : ... .. . ... ... : ... .. 5 ... ... : ... .. 5 ... ... : ... .. D ... ...
ROW 62 : ... .. . ... ... ... : ... .. D ... ... ... : ... .. . ... : ... .. 6 ... : ... .. . ... ... : ... .. . ... ... : ... .. . ... ... : ... .. 8 ... ...
ROW 63 : ... .. A ... ... ... : ... .. A ... ... ... : ... .. . ... : ... .. 3 ... : ... .. . ... ... : ... .. . ... ... : ... .. . ... ... : ... .. . ... ...
ROW 64 : ... .. 8 ... ... ... : ... .. 2 ... ... ... : ... .. . ... : ... .. 2 ... : ... .. . ... ... : ... .. . ... ... : ... .. . ... ... : ... .. 4 ... ...
ROW 65 : ... .. 7 ... ... ... : ... .. . ... ... ... : ... .. . ... : ... .. 0 ... : ... .. . ... ... : ... .. . ... ... : ... .. . ... ... : ... .. . ... ...
ROW 66 : F#2 00 D ... ... ... : ... .. F ... ... ... : ... .. . ... : ... .. F ... : ... .. . ... ... : ... .. . ... ... : ... .. . ... ... : ... .. F ... ...
ROW 67 : ... .. B ... ... ... : ... .. E ... ... ... : ... .. . ... : ... .. C ... : ... .. . ... ... : ... .. . ... ... : ... .. . ... ... : ... .. D ... ...
ROW 68 : ... .. . ... ... ... : ... .. D ... ... ... : ... .. . ... : ... .. 6 ... : ... .. . ... ... : ... .. 3 ... ... : ... .. 3 ... ... : ... .. 8 ... ...
ROW 69 : ... .. A ... ... ... : ... .. A ... ... ... : ... .. . ... : ... .. 3 ... : ... .. . ... ... : ... .. . ... ... : ... .. . ... ... : ... .. . ... ...
ROW 6A : ... .. 8 ... ... ... : ... .. 2 ... ... ... : ... .. . ... : ... .. 2 ... : ... .. . ... ... : ... .. . ... ... : ... .. . ... ... : ... .. 4 ... ...
ROW 6B : ... .. 7 ... ... ... : ... .. . ... ... ... : ... .. . ... : ... .. 0 ... : ... .. . ... ... : ... .. . ... ... : ... .. . ... ... : ... .. . ... ...
ROW 6C : B-2 00 D ... ... ... : E-3 00 F ... ... ... : A#3 00 . ... : 4-# 00 D ... : ... .. . ... ... : B-2 01 A ... ... : A-2 01 A ... ... : B-1 01 F ... ...
ROW 6D : ... .. B ... ... ... : ... .. E ... ... ... : C-3 00 . ... : ... .. B ... : ... .. . ... ... : ... .. 9 ... ... : ... .. 9 ... ... : ... .. D ... ...
ROW 6E : ... .. . ... ... ... : ... .. D ... ... ... : F-2 00 . ... : ... .. . ... : ... .. . ... ... : ... .. 8 ... ... : ... .. 8 ... ... : ... .. 8 ... ...
ROW 6F : ... .. A ... ... ... : ... .. A ... ... ... : E-2 00 . ... : ... .. A ... : ... .. . ... ... : ... .. 7 ... ... : ... .. 7 ... ... : ... .. . ... ...
ROW 70 : ... .. 8 ... ... ... : ... .. . ... ... ... : B-1 00 . ... : ... .. 8 ... : ... .. . ... ... : ... .. . ... ... : ... .. . ... ... : ... .. 4 ... ...
ROW 71 : ... .. 7 ... ... ... : ... .. . ... ... ... : ... .. . ... : ... .. 7 ... : ... .. . ... ... : ... .. 6 ... ... : ... .. 6 ... ... : ... .. . ... ...
ROW 72 : C-3 00 D ... ... ... : B-0 00 F ... ... ... : ... .. . ... : 1-# 00 F ... : ... .. . ... ... : ... .. 5 ... ... : ... .. 5 ... ... : B-0 01 F ... ...
ROW 73 : ... .. B ... ... ... : ... .. E ... ... ... : ... .. . ... : ... .. C ... : ... .. . ... ... : ... .. . ... ... : ... .. . ... ... : ... .. D ... ...
ROW 74 : ... .. . ... ... ... : ... .. D ... ... ... : ... .. . ... : ... .. 6 ... : ... .. . ... ... : ... .. 3 ... ... : ... .. 3 ... ... : ... .. 8 ... ...
ROW 75 : ... .. A ... ... ... : ... .. A ... ... ... : ... .. . ... : ... .. 3 ... : ... .. . ... ... : ... .. . ... ... : ... .. . ... ... : ... .. . ... ...
ROW 76 : ... .. 8 ... ... ... : ... .. 2 ... ... ... : ... .. . ... : ... .. 2 ... : ... .. . ... ... : ... .. . ... ... : ... .. . ... ... : ... .. 4 ... ...
ROW 77 : ... .. 7 ... ... ... : ... .. . ... ... ... : ... .. . ... : ... .. 0 ... : ... .. . ... ... : ... .. . ... ... : ... .. . ... ... : ... .. . ... ...
ROW 78 : B-2 00 D ... ... ... : E-3 00 F ... ... ... : A#3 00 . ... : 4-# 00 D ... : ... .. . ... ... : ... .. A ... ... : ... .. A ... ... : B-1 01 F ... ...
ROW 79 : ... .. B ... ... ... : ... .. E ... ... ... : C-3 00 . ... : ... .. B ... : ... .. . ... ... : ... .. 9 ... ... : ... .. 9 ... ... : ... .. D ... ...
ROW 7A : ... .. . ... ... ... : ... .. D ... ... ... : F-2 00 . ... : ... .. . ... : ... .. . ... ... : ... .. 8 ... ... : ... .. 8 ... ... : ... .. 8 ... ...
ROW 7B : ... .. A ... ... ... : ... .. A ... ... ... : E-2 00 . ... : ... .. A ... : ... .. . ... ... : ... .. 7 ... ... : ... .. 7 ... ... : ... .. . ... ...
ROW 7C : ... .. 8 ... ... ... : ... .. . ... ... ... : B-1 00 . ... : ... .. 8 ... : ... .. . ... ... : ... .. . ... ... : ... .. . ... ... : ... .. 4 ... ...
ROW 7D : ... .. 7 ... ... ... : ... .. . ... ... ... : ... .. . ... : ... .. 7 ... : ... .. . ... ... : ... .. 6 ... ... : ... .. 6 ... ... : ... .. . ... ...
ROW 7E : F#2 00 D ... ... ... : B-0 00 F ... ... ... : ... .. . ... : 1-# 00 F ... : ... .. . ... ... : ... .. 5 ... ... : ... .. 5 ... ... : B-0 01 F ... ...
ROW 7F : ... .. B ... ... ... : ... .. E ... ... ... : ... .. . ... : ... .. C ... : ... .. . ... ... : ... .. . ... ... : ... .. . ... ... : ... .. D ... ...
ROW 80 : ... .. . ... ... ... : ... .. D ... ... ... : ... .. . ... : ... .. 6 ... : ... .. . ... ... : ... .. 3 ... ... : ... .. 3 ... ... : ... .. 8 ... ...
ROW 81 : ... .. A ... ... ... : ... .. A ... ... ... : ... .. . ... : ... .. 3 ... : ... .. . ... ... : ... .. . ... ... : ... .. . ... ... : ... .. . ... ...
ROW 82 : ... .. 8 ... ... ... : ... .. 2 ... ... ... : ... .. . ... : ... .. 2 ... : ... .. . ... ... : ... .. . ... ... : ... .. . ... ... : ... .. 4 ... ...
ROW 83 : ... .. 7 ... ... ... : ... .. . ... ... ... : ... .. . ... : ... .. 0 ... : ... .. . ... ... : ... .. . ... ... : ... .. . ... ... : ... .. . ... ...
ROW 84 : B-1 00 D ... ... ... : E-3 00 F ... ... ... : A#3 00 . ... : 4-# 00 D ... : ... .. . ... ... : ... .. A ... ... : ... .. A ... ... : B-1 01 F ... ...
ROW 85 : ... .. B ... ... ... : ... .. E ... ... ... : C-3 00 . ... : ... .. B ... : ... .. . ... ... : ... .. 9 ... ... : ... .. 9 ... ... : ... .. D ... ...
ROW 86 : ... .. . ... ... ... : ... .. D ... ... ... : F-2 00 . ... : ... .. . ... : ... .. . ... ... : ... .. 8 ... ... : ... .. 8 ... ... : ... .. 8 ... ...
ROW 87 : ... .. A ... ... ... : ... .. A ... ... ... : E-2 00 . ... : ... .. A ... : ... .. . ... ... : ... .. 7 ... ... : ... .. 7 ... ... : ... .. . ... ...
ROW 88 : ... .. 8 ... ... ... : ... .. . ... ... ... : B-1 00 . ... : ... .. 8 ... : ... .. . ... ... : ... .. . ... ... : ... .. . ... ... : ... .. 4 ... ...
ROW 89 : ... .. 7 ... ... ... : ... .. . ... ... ... : ... .. . ... : ... .. 7 ... : ... .. . ... ... : ... .. 6 ... ... : ... .. 6 ... ... : ... .. . ... ...
ROW 8A : A-1 00 D ... ... ... : B-0 00 F ... ... ... : ... .. . ... : 1-# 00 F ... : ... .. . ... ... : ... .. 5 ... ... : ... .. 5 ... ... : B-0 01 F ... ...
ROW 8B : ... .. B ... ... ... : ... .. E ... ... ... : ... .. . ... : ... .. C ... : ... .. . ... ... : ... .. . ... ... : ... .. . ... ... : ... .. D ... ...
ROW 8C : ... .. . ... ... ... : ... .. D ... ... ... : ... .. . ... : ... .. 6 ... : ... .. . ... ... : ... .. 3 ... ... : ... .. 3 ... ... : ... .. 8 ... ...
ROW 8D : ... .. A ... ... ... : ... .. A ... ... ... : ... .. . ... : ... .. 3 ... : ... .. . ... ... : ... .. . ... ... : ... .. . ... ... : ... .. . ... ...
ROW 8E : ... .. 8 ... ... ... : ... .. 2 ... ... ... : ... .. . ... : ... .. 2 ... : ... .. . ... ... : ... .. . ... ... : ... .. . ... ... : ... .. 4 ... ...
ROW 8F : ... .. 7 ... ... ... : ... .. . ... ... ... : ... .. . ... : ... .. 0 ... : ... .. . ... ... : ... .. . ... ... : ... .. . ... ... : ... .. . ... ...
ROW 90 : B-3 00 D ... ... ... : C-4 00 F ... ... ... : A#3 00 . ... : 4-# 00 D ... : ... .. . ... ... : ... .. A ... ... : ... .. A ... ... : B-1 01 F ... ...
ROW 91 : ... .. B ... ... ... : ... .. E ... ... ... : C-3 00 . ... : ... .. B ... : ... .. . ... ... : ... .. 9 ... ... : ... .. 9 ... ... : ... .. D ... ...
ROW 92 : ... .. . ... ... ... : ... .. D ... ... ... : F-2 00 . ... : ... .. . ... : ... .. . ... ... : ... .. 8 ... ... : ... .. 8 ... ... : ... .. 8 ... ...
ROW 93 : ... .. A ... ... ... : ... .. A ... ... ... : E-2 00 . ... : ... .. A ... : ... .. . ... ... : ... .. 7 ... ... : ... .. 7 ... ... : ... .. . ... ...
ROW 94 : ... .. 8 ... ... ... : ... .. . ... ... ... : B-1 00 . ... : ... .. 8 ... : ... .. . ... ... : ... .. . ... ... : ... .. . ... ... : ... .. 4 ... ...
ROW 95 : ... .. 7 ... ... ... : ... .. . ... ... ... : ... .. . ... : ... .. 7 ... : ... .. . ... ... : ... .. 6 ... ... : ... .. 6 ... ... : ... .. . ... ...
ROW 96 : F#3 00 D ... ... ... : B-0 00 F ... ... ... : ... .. . ... : 1-# 00 F ... : ... .. . ... ... : ... .. . ... ... : ... .. . ... ... : B-0 01 F ... ...
ROW 97 : ... .. B ... ... ... : ... .. E ... ... ... : ... .. . ... : ... .. C ... : ... .. . ... ... : ... .. 5 ... ... : ... .. 5 ... ... : ... .. D ... ...
ROW 98 : ... .. . ... ... ... : ... .. D ... ... ... : ... .. . ... : ... .. 6 ... : ... .. . ... ... : ... .. . ... ... : ... .. . ... ... : ... .. 8 ... ...
ROW 99 : ... .. A ... ... ... : ... .. A ... ... ... : ... .. . ... : ... .. 3 ... : ... .. . ... ... : ... .. . ... ... : ... .. . ... ... : ... .. . ... ...
ROW 9A : ... .. 8 ... ... ... : ... .. 2 ... ... ... : ... .. . ... : ... .. 2 ... : ... .. . ... ... : ... .. . ... ... : ... .. . ... ... : ... .. 4 ... ...
ROW 9B : ... .. 7 ... ... ... : ... .. . ... ... ... : ... .. . ... : ... .. 0 ... : ... .. . ... ... : ... .. . ... ... : ... .. . ... ... : ... .. . ... ...
ROW 9C : B-2 00 D ... ... ... : ... .. F ... ... ... : ... .. . ... : ... .. F ... : ... .. . ... ... : ... .. . ... ... : ... .. . ... ... : ... .. F ... ...
ROW 9D : ... .. B ... ... ... : ... .. E ... ... ... : ... .. . ... : ... .. C ... : ... .. . ... ... : ... .. . ... ... : ... .. . ... ... : ... .. D ... ...
ROW 9E : ... .. . ... ... ... : ... .. D ... ... ... : ... .. . ... : ... .. 6 ... : ... .. . ... ... : ... .. 3 ... ... : ... .. 3 ... ... : ... .. 8 ... ...
ROW 9F : ... .. A ... ... ... : ... .. A ... ... ... : ... .. . ... : ... .. 3 ... : ... .. . ... ... : ... .. . ... ... : ... .. . ... ... : ... .. . ... ...
ROW A0 : ... .. 8 ... ... ... : ... .. 2 ... ... ... : ... .. . ... : ... .. 2 ... : ... .. . ... ... : ... .. . ... ... : ... .. . ... ... : ... .. 4 ... ...
ROW A1 : ... .. 7 ... ... ... : ... .. . ... ... ... : ... .. . ... : ... .. 0 ... : ... .. . ... ... : ... .. . ... ... : ... .. . ... ... : ... .. . ... ...
ROW A2 : A-2 00 D ... ... ... : C-4 00 F ... ... ... : A#3 00 . ... : 4-# 00 D ... : ... .. . ... ... : ... .. A ... ... : ... .. A ... ... : B-1 01 F ... ...
ROW A3 : ... .. B ... ... ... : ... .. E ... ... ... : C-3 00 . ... : ... .. B ... : ... .. . ... ... : ... .. 9 ... ... : ... .. 9 ... ... : ... .. D ... ...
ROW A4 : ... .. . ... ... ... : ... .. D ... ... ... : F-2 00 . ... : ... .. . ... : ... .. . ... ... : ... .. 8 ... ... : ... .. 8 ... ... : ... .. 8 ... ...
ROW A5 : ... .. A ... ... ... : ... .. A ... ... ... : E-2 00 . ... : ... .. A ... : ... .. . ... ... : ... .. 7 ... ... : ... .. 7 ... ... : ... .. . ... ...
ROW A6 : ... .. 8 ... ... ... : ... .. . ... ... ... : B-1 00 . ... : ... .. 8 ... : ... .. . ... ... : ... .. . ... ... : ... .. . ... ... : ... .. 4 ... ...
ROW A7 : ... .. 7 ... ... ... : ... .. . ... ... ... : ... .. . ... : ... .. 7 ... : ... .. . ... ... : ... .. 6 ... ... : ... .. 6 ... ... : ... .. . ... ...
ROW A8 : B-2 00 D ... ... ... : B-0 00 F ... ... ... : ... .. . ... : 1-# 00 F ... : ... .. . ... ... : ... .. . ... ... : ... .. . ... ... : B-0 01 F ... ...
ROW A9 : ... .. B ... ... ... : ... .. E ... ... ... : ... .. . ... : ... .. C ... : ... .. . ... ... : ... .. 5 ... ... : ... .. 5 ... ... : ... .. D ... ...
ROW AA : ... .. . ... ... ... : ... .. D ... ... ... : ... .. . ... : ... .. 6 ... : ... .. . ... ... : ... .. . ... ... : ... .. . ... ... : ... .. 8 ... ...
ROW AB : ... .. A ... ... ... : ... .. A ... ... ... : ... .. . ... : ... .. 3 ... : ... .. . ... ... : ... .. . ... ... : ... .. . ... ... : ... .. . ... ...
ROW AC : ... .. 8 ... ... ... : ... .. 2 ... ... ... : ... .. . ... : ... .. 2 ... : ... .. . ... ... : ... .. . ... ... : ... .. . ... ... : ... .. 4 ... ...
ROW AD : ... .. 7 ... ... ... : ... .. . ... ... ... : ... .. . ... : ... .. 0 ... : ... .. . ... ... : ... .. . ... ... : ... .. . ... ... : ... .. . ... ...
ROW AE : F#3 00 D ... ... ... : ... .. F ... ... ... : ... .. . ... : ... .. F ... : ... .. . ... ... : ... .. . ... ... : ... .. . ... ... : ... .. F ... ...
ROW AF : ... .. B ... ... ... : ... .. E ... ... ... : ... .. . ... : ... .. C ... : ... .. . ... ... : ... .. . ... ... : ... .. . ... ... : ... .. D ... ...
ROW B0 : ... .. . ... ... ... : ... .. D ... ... ... : ... .. . ... : ... .. 6 ... : ... .. . ... ... : ... .. 3 ... ... : ... .. 3 ... ... : ... .. 8 ... ...
ROW B1 : ... .. A ... ... ... : ... .. A ... ... ... : ... .. . ... : ... .. 3 ... : ... .. . ... ... : ... .. . ... ... : ... .. . ... ... : ... .. . ... ...
ROW B2 : ... .. 8 ... ... ... : ... .. 2 ... ... ... : ... .. . ... : ... .. 2 ... : ... .. . ... ... : ... .. . ... ... : ... .. . ... ... : ... .. 4 ... ...
ROW B3 : ... .. 7 ... ... ... : ... .. . ... ... ... : ... .. . ... : ... .. 0 ... : ... .. . ... ... : ... .. . ... ... : ... .. . ... ... : ... .. . ... ...
ROW B4 : B-3 00 D ... ... ... : D-4 00 F ... ... ... : A#3 00 . ... : 4-# 00 D ... : ... .. . ... ... : G-2 01 A ... ... : C-3 01 A ... ... : B-1 01 F ... ...
ROW B5 : ... .. B ... ... ... : ... .. E ... ... ... : C-3 00 . ... : ... .. B ... : ... .. . ... ... : ... .. 9 ... ... : ... .. 9 ... ... : ... .. D ... ...
ROW B6 : ... .. . ... ... ... : ... .. D ... ... ... : F-2 00 . ... : ... .. . ... : ... .. . ... ... : ... .. 8 ... ... : ... .. 8 ... ... : ... .. 8 ... ...
ROW B7 : ... .. A ... ... ... : ... .. A ... ... ... : E-2 00 . ... : ... .. A ... : ... .. . ... ... : ... .. 7 ... ... : ... .. 7 ... ... : ... .. . ... ...
ROW B8 : ... .. 8 ... ... ... : ... .. . ... ... ... : B-1 00 . ... : ... .. 8 ... : ... .. . ... ... : ... .. . ... ... : ... .. . ... ... : ... .. 4 ... ...
ROW B9 : ... .. 7 ... ... ... : ... .. . ... ... ... : ... .. . ... : ... .. 7 ... : ... .. . ... ... : ... .. 6 ... ... : ... .. 6 ... ... : ... .. . ... ...
ROW BA : C-4 00 D ... ... ... : B-0 00 F ... ... ... : ... .. . ... : 1-# 00 F ... : ... .. . ... ... : ... .. . ... ... : ... .. . ... ... : B-0 01 F ... ...
ROW BB : ... .. B ... ... ... : ... .. E ... ... ... : ... .. . ... : ... .. C ... : ... .. . ... ... : ... .. 5 ... ... : ... .. 5 ... ... : ... .. D ... ...
ROW BC : ... .. . ... ... ... : ... .. D ... ... ... : ... .. . ... : ... .. 6 ... : ... .. . ... ... : ... .. . ... ... : ... .. . ... ... : ... .. 8 ... ...
ROW BD : ... .. A ... ... ... : ... .. A ... ... ... : ... .. . ... : ... .. 3 ... : ... .. . ... ... : ... .. . ... ... : ... .. . ... ... : ... .. . ... ...
ROW BE : ... .. 8 ... ... ... : ... .. 2 ... ... ... : ... .. . ... : ... .. 2 ... : ... .. . ... ... : ... .. . ... ... : ... .. . ... ... : ... .. 4 ... ...
ROW BF : ... .. 7 ... ... ... : ... .. . ... ... ... : ... .. . ... : ... .. 0 ... : ... .. . ... ... : ... .. . ... ... : ... .. . ... ... : ... .. . ... ...
ROW C0 : B-3 00 D ... ... ... : ... .. F ... ... ... : A#3 00 . ... : ... .. F ... : ... .. . ... ... : ... .. . ... ... : ... .. . ... ... : ... .. F ... ...
ROW C1 : ... .. B ... ... ... : ... .. E ... ... ... : C-3 00 . ... : ... .. C ... : ... .. . ... ... : ... .. . ... ... : ... .. . ... ... : ... .. D ... ...
ROW C2 : ... .. . ... ... ... : ... .. D ... ... ... : F-2 00 . ... : ... .. 6 ... : ... .. . ... ... : ... .. 3 ... ... : ... .. 3 ... ... : ... .. 8 ... ...
ROW C3 : ... .. A ... ... ... : ... .. A ... ... ... : E-2 00 . ... : ... .. 3 ... : ... .. . ... ... : ... .. . ... ... : ... .. . ... ... : ... .. . ... ...
ROW C4 : ... .. 8 ... ... ... : ... .. 2 ... ... ... : B-1 00 . ... : ... .. 2 ... : ... .. . ... ... : ... .. . ... ... : ... .. . ... ... : ... .. 4 ... ...
ROW C5 : ... .. 7 ... ... ... : ... .. . ... ... ... : ... .. . ... : ... .. 0 ... : ... .. . ... ... : ... .. . ... ... : ... .. . ... ... : ... .. . ... ...
ROW C6 : F#3 00 D ... ... ... : D-4 00 F ... ... ... : ... .. . ... : 4-# 00 D ... : ... .. . ... ... : ... .. A ... ... : ... .. A ... ... : B-1 01 F ... ...
ROW C7 : ... .. B ... ... ... : ... .. E ... ... ... : ... .. . ... : ... .. B ... : ... .. . ... ... : ... .. 9 ... ... : ... .. 9 ... ... : ... .. D ... ...
ROW C8 : ... .. . ... ... ... : ... .. D ... ... ... : ... .. . ... : ... .. . ... : ... .. . ... ... : ... .. 8 ... ... : ... .. 8 ... ... : ... .. 8 ... ...
ROW C9 : ... .. A ... ... ... : ... .. A ... ... ... : ... .. . ... : ... .. A ... : ... .. . ... ... : ... .. 7 ... ... : ... .. 7 ... ... : ... .. . ... ...
ROW CA : ... .. 8 ... ... ... : ... .. . ... ... ... : ... .. . ... : ... .. 8 ... : ... .. . ... ... : ... .. . ... ... : ... .. . ... ... : ... .. 4 ... ...
ROW CB : ... .. 7 ... ... ... : ... .. . ... ... ... : ... .. . ... : ... .. 7 ... : ... .. . ... ... : ... .. 6 ... ... : ... .. 6 ... ... : ... .. . ... ...
ROW CC : B-2 00 D ... ... ... : B-0 00 F ... ... ... : A#3 00 . ... : 1-# 00 F ... : ... .. . ... ... : ... .. . ... ... : ... .. . ... ... : B-0 01 F ... ...
ROW CD : ... .. B ... ... ... : ... .. E ... ... ... : C-3 00 . ... : ... .. C ... : ... .. . ... ... : ... .. 5 ... ... : ... .. 5 ... ... : ... .. D ... ...
ROW CE : ... .. . ... ... ... : ... .. D ... ... ... : F-2 00 . ... : ... .. 6 ... : ... .. . ... ... : ... .. . ... ... : ... .. . ... ... : ... .. 8 ... ...
ROW CF : ... .. A ... ... ... : ... .. A ... ... ... : E-2 00 . ... : ... .. 3 ... : ... .. . ... ... : ... .. . ... ... : ... .. . ... ... : ... .. . ... ...
ROW D0 : ... .. 8 ... ... ... : ... .. 2 ... ... ... : B-1 00 . ... : ... .. 2 ... : ... .. . ... ... : ... .. . ... ... : ... .. . ... ... : ... .. 4 ... ...
ROW D1 : ... .. 7 ... ... ... : ... .. . ... ... ... : ... .. . ... : ... .. 0 ... : ... .. . ... ... : ... .. . ... ... : ... .. . ... ... : ... .. . ... ...
ROW D2 : A-2 00 D ... ... ... : ... .. F ... ... ... : ... .. . ... : ... .. F ... : ... .. . ... ... : ... .. . ... ... : ... .. . ... ... : ... .. F ... ...
ROW D3 : ... .. B ... ... ... : ... .. E ... ... ... : ... .. . ... : ... .. C ... : ... .. . ... ... : ... .. . ... ... : ... .. . ... ... : ... .. D ... ...
ROW D4 : ... .. . ... ... ... : ... .. D ... ... ... : ... .. . ... : ... .. 6 ... : ... .. . ... ... : ... .. 3 ... ... : ... .. 3 ... ... : ... .. 8 ... ...
ROW D5 : ... .. A ... ... ... : ... .. A ... ... ... : ... .. . ... : ... .. 3 ... : ... .. . ... ... : ... .. . ... ... : ... .. . ... ... : ... .. . ... ...
ROW D6 : ... .. 8 ... ... ... : ... .. 2 ... ... ... : ... .. . ... : ... .. 2 ... : ... .. . ... ... : ... .. . ... ... : ... .. . ... ... : ... .. 4 ... ...
ROW D7 : ... .. 7 ... ... ... : ... .. . ... ... ... : ... .. . ... : ... .. 0 ... : ... .. . ... ... : ... .. . ... ... : ... .. . ... ... : ... .. . ... ...
ROW D8 : B-2 00 D ... ... ... : E-4 00 F ... ... ... : A#3 00 . ... : 4-# 00 D ... : ... .. . ... ... : F#2 01 A ... ... : D-3 01 A ... ... : B-1 01 F ... ...
ROW D9 : ... .. B ... ... ... : ... .. E ... ... ... : C-3 00 . ... : ... .. B ... : ... .. . ... ... : ... .. 9 ... ... : ... .. 9 ... ... : ... .. D ... ...
ROW DA : ... .. . ... ... ... : ... .. D ... ... ... : F-2 00 . ... : ... .. . ... : ... .. . ... ... : ... .. 8 ... ... : ... .. 8 ... ... : ... .. 8 ... ...
ROW DB : ... .. A ... ... ... : ... .. A ... ... ... : E-2 00 . ... : ... .. A ... : ... .. . ... ... : ... .. 7 ... ... : ... .. 7 ... ... : ... .. . ... ...
ROW DC : ... .. 8 ... ... ... : ... .. . ... ... ... : B-1 00 . ... : ... .. 8 ... : ... .. . ... ... : ... .. . ... ... : ... .. . ... ... : ... .. 4 ... ...
ROW DD : ... .. 7 ... ... ... : ... .. . ... ... ... : ... .. . ... : ... .. 7 ... : ... .. . ... ... : ... .. 6 ... ... : ... .. 6 ... ... : ... .. . ... ...
ROW DE : F#2 00 D ... ... ... : B-0 00 F ... ... ... : ... .. . ... : 1-# 00 F ... : ... .. . ... ... : ... .. . ... ... : ... .. . ... ... : B-0 01 F ... ...
ROW DF : ... .. B ... ... ... : ... .. E ... ... ... : ... .. . ... : ... .. C ... : ... .. . ... ... : ... .. 5 ... ... : ... .. 5 ... ... : ... .. D ... ...
ROW E0 : ... .. . ... ... ... : ... .. D ... ... ... : ... .. . ... : ... .. 6 ... : ... .. . ... ... : ... .. . ... ... : ... .. . ... ... : ... .. 8 ... ...
ROW E1 : ... .. A ... ... ... : ... .. A ... ... ... : ... .. . ... : ... .. 3 ... : ... .. . ... ... : ... .. . ... ... : ... .. . ... ... : ... .. . ... ...
ROW E2 : ... .. 8 ... ... ... : ... .. 2 ... ... ... : ... .. . ... : ... .. 2 ... : ... .. . ... ... : ... .. . ... ... : ... .. . ... ... : ... .. 4 ... ...
ROW E3 : ... .. 7 ... ... ... : ... .. . ... ... ... : ... .. . ... : ... .. 0 ... : ... .. . ... ... : ... .. . ... ... : ... .. . ... ... : ... .. . ... ...
ROW E4 : B-1 00 D ... ... ... : ... .. F ... ... ... : ... .. . ... : ... .. F ... : ... .. . ... ... : ... .. . ... ... : ... .. . ... ... : ... .. F ... ...
ROW E5 : ... .. B ... ... ... : ... .. E ... ... ... : ... .. . ... : ... .. C ... : ... .. . ... ... : ... .. . ... ... : ... .. . ... ... : ... .. D ... ...
ROW E6 : ... .. . ... ... ... : ... .. D ... ... ... : ... .. . ... : ... .. 6 ... : ... .. . ... ... : ... .. 3 ... ... : ... .. 3 ... ... : ... .. 8 ... ...
ROW E7 : ... .. A ... ... ... : ... .. A ... ... ... : ... .. . ... : ... .. 3 ... : ... .. . ... ... : ... .. . ... ... : ... .. . ... ... : ... .. . ... ...
ROW E8 : ... .. 8 ... ... ... : ... .. 2 ... ... ... : ... .. . ... : ... .. 2 ... : ... .. . ... ... : ... .. . ... ... : ... .. . ... ... : ... .. 4 ... ...
ROW E9 : ... .. 7 ... ... ... : ... .. . ... ... ... : ... .. . ... : ... .. 0 ... : ... .. . ... ... : ... .. . ... ... : ... .. . ... ... : ... .. . ... ...
ROW EA : A-1 00 D ... ... ... : E-4 00 F ... ... ... : A#3 00 . ... : 4-# 00 D ... : ... .. . ... ... : ... .. A ... ... : ... .. A ... ... : B-1 01 F ... ...
ROW EB : ... .. B ... ... ... : ... .. E ... ... ... : C-3 00 . ... : ... .. B ... : ... .. . ... ... : ... .. 9 ... ... : ... .. 9 ... ... : ... .. D ... ...
ROW EC : ... .. . ... ... ... : ... .. D ... ... ... : F-2 00 . ... : ... .. . ... : ... .. . ... ... : ... .. 8 ... ... : ... .. 8 ... ... : ... .. 8 ... ...
ROW ED : ... .. A ... ... ... : ... .. A ... ... ... : E-2 00 . ... : ... .. A ... : ... .. . ... ... : ... .. 7 ... ... : ... .. 7 ... ... : ... .. . ... ...
ROW EE : ... .. 8 ... ... ... : ... .. . ... ... ... : B-1 00 . ... : ... .. 8 ... : ... .. . ... ... : ... .. . ... ... : ... .. . ... ... : ... .. 4 ... ...
ROW EF : ... .. 7 ... ... ... : ... .. . ... ... ... : ... .. . ... : ... .. 7 ... : ... .. . ... ... : ... .. 6 ... ... : ... .. 6 ... ... : ... .. . ... ...
ROW F0 : B-1 00 D ... ... ... : B-0 00 F ... ... ... : ... .. . ... : 1-# 00 F ... : ... .. . ... ... : ... .. . ... ... : ... .. . ... ... : B-0 01 F ... ...
ROW F1 : ... .. B ... ... ... : ... .. E ... ... ... : ... .. . ... : ... .. C ... : ... .. . ... ... : ... .. 5 ... ... : ... .. 5 ... ... : ... .. D ... ...
ROW F2 : ... .. . ... ... ... : ... .. D ... ... ... : ... .. . ... : ... .. 6 ... : ... .. . ... ... : ... .. . ... ... : ... .. . ... ... : ... .. 8 ... ...
ROW F3 : ... .. A ... ... ... : ... .. A ... ... ... : ... .. . ... : ... .. 3 ... : ... .. . ... ... : ... .. . ... ... : ... .. . ... ... : ... .. . ... ...
ROW F4 : ... .. 8 ... ... ... : ... .. 2 ... ... ... : ... .. . ... : ... .. 2 ... : ... .. . ... ... : ... .. . ... ... : ... .. . ... ... : ... .. 4 ... ...
ROW F5 : ... .. 7 ... ... ... : ... .. . ... ... ... : ... .. . ... : ... .. 0 ... : ... .. . ... ... : ... .. . ... ... : ... .. . ... ... : ... .. . ... ...
ROW F6 : F#2 00 D ... ... ... : ... .. F ... ... ... : ... .. . ... : ... .. F ... : ... .. . ... ... : ... .. . ... ... : ... .. . ... ... : ... .. F ... ...
ROW F7 : ... .. B ... ... ... : ... .. E ... ... ... : ... .. . ... : ... .. C ... : ... .. . ... ... : ... .. . ... ... : ... .. . ... ... : ... .. D ... ...
ROW F8 : ... .. . ... ... ... : ... .. D ... ... ... : ... .. . ... : ... .. 6 ... : ... .. . ... ... : ... .. 3 ... ... : ... .. 3 ... ... : ... .. 8 ... ...
ROW F9 : ... .. A ... ... ... : ... .. A ... ... ... : ... .. . ... : ... .. 3 ... : ... .. . ... ... : ... .. . ... ... : ... .. . ... ... : ... .. . ... ...
ROW FA : ... .. 8 ... ... ... : ... .. 2 ... ... ... : ... .. . ... : ... .. 2 ... : ... .. . ... ... : ... .. . ... ... : ... .. . ... ... : ... .. 4 ... ...
ROW FB : ... .. 7 ... ... ... : ... .. . ... ... ... : ... .. . ... : ... .. 0 ... : ... .. . ... ... : ... .. . ... ... : ... .. . ... ... : ... .. . ... ...
ROW FC : B-2 00 D ... ... ... : F#4 00 F ... ... ... : A#3 00 . ... : 4-# 00 D ... : ... .. . ... ... : ... .. A ... ... : E-3 01 A ... ... : B-1 01 F ... ...
ROW FD : ... .. B ... ... ... : ... .. E ... ... ... : C-3 00 . ... : ... .. B ... : ... .. . ... ... : ... .. 9 ... ... : ... .. 9 ... ... : ... .. D ... ...
ROW FE : ... .. . ... ... ... : ... .. D ... ... ... : F-2 00 . ... : ... .. . ... : ... .. . ... ... : ... .. 8 ... ... : ... .. 8 ... ... : ... .. 8 ... ...
ROW FF : ... .. A ... ... ... : ... .. A ... ... ... : E-2 00 . ... : ... .. A ... : ... .. . ... ... : ... .. 7 ... ... : ... .. 7 ... ... : ... .. . ... ...

PATTERN 13
ROW 00 : ... .. 8 ... ... ... : ... .. . ... ... ... : B-1 00 . ... : ... .. 8 ... : ... .. . ... ... : ... .. . ... ... : ... .. . ... ... : ... .. 4 ... ...
ROW 01 : ... .. 7 ... ... ... : ... .. . ... ... ... : ... .. . ... : ... .. 7 ... : ... .. . ... ... : ... .. 6 ... ... : ... .. 6 ... ... : ... .. . ... ...
ROW 02 : C-3 00 D ... ... ... : B-0 00 F ... ... ... : ... .. . ... : 1-# 00 F ... : ... .. . ... ... : ... .. 5 ... ... : ... .. 5 ... ... : B-0 01 F ... ...
ROW 03 : ... .. B ... ... ... : ... .. E ... ... ... : ... .. . ... : ... .. C ... : ... .. . ... ... : ... .. . ... ... : ... .. . ... ... : ... .. D ... ...
ROW 04 : ... .. . ... ... ... : ... .. D ... ... ... : ... .. . ... : ... .. 6 ... : ... .. . ... ... : ... .. 3 ... ... : ... .. 3 ... ... : ... .. 8 ... ...
ROW 05 : ... .. A ... ... ... : ... .. A ... ... ... : ... .. . ... : ... .. 3 ... : ... .. . ... ... : ... .. . ... ... : ... .. . ... ... : ... .. . ... ...
ROW 06 : ... .. 8 ... ... ... : ... .. 2 ... ... ... : ... .. . ... : ... .. 2 ... : ... .. . ... ... : ... .. . ... ... : ... .. . ... ... : ... .. 4 ... ...
ROW 07 : ... .. 7 ... ... ... : ... .. . ... ... ... : ... .. . ... : ... .. 0 ... : ... .. . ... ... : ... .. . ... ... : ... .. . ... ... : ... .. . ... ...
ROW 08 : B-2 00 D ... ... ... : C-3 00 4 ... ... ... : A#3 00 . ... : 4-# 00 D ... : ... .. . ... ... : E-2 01 A ... ... : ... .. A ... ... : B-1 01 F ... ...
ROW 09 : ... .. B ... ... ... : ... .. 3 ... ... ... : C-3 00 . ... : ... .. B ... : ... .. . ... ... : ... .. 9 ... ... : ... .. 9 ... ... : ... .. D ... ...
ROW 0A : ... .. . ... ... ... : C#3 00 3 ... ... ... : F-2 00 . ... : ... .. . ... : ... .. . ... ... : ... .. 8 ... ... : ... .. 8 ... ... : ... .. 8 ... ...
ROW 0B : ... .. A ... ... ... : D-3 00 5 ... ... ... : E-2 00 . ... : ... .. A ... : ... .. . ... ... : ... .. 7 ... ... : ... .. 7 ... ... : ... .. . ... ...
ROW 0C : ... .. 8 ... ... ... : ... .. 4 ... ... ... : B-1 00 . ... : ... .. 8 ... : ... .. . ... ... : ... .. . ... ... : ... .. . ... ... : ... .. 4 ... ...
ROW 0D : ... .. 7 ... ... ... : D#3 00 4 ... ... ... : ... .. . ... : ... .. 7 ... : ... .. . ... ... : ... .. 6 ... ... : ... .. 6 ... ... : ... .. . ... ...
ROW 0E : F#2 00 D ... ... ... : ... .. 7 ... ... ... : ... .. . ... : 1-# 00 F ... : ... .. . ... ... : ... .. 5 ... ... : ... .. 5 ... ... : B-0 01 F ... ...
ROW 0F : ... .. B ... ... ... : ... .. 6 ... ... ... : ... .. . ... : ... .. C ... : ... .. . ... ... : ... .. . ... ... : ... .. . ... ... : ... .. D ... ...
ROW 10 : ... .. . ... ... ... : E-3 00 6 ... ... ... : ... .. . ... : ... .. 6 ... : ... .. . ... ... : ... .. 3 ... ... : ... .. 3 ... ... : ... .. 8 ... ...
ROW 11 : ... .. A ... ... ... : F-3 00 8 ... ... ... : ... .. . ... : ... .. 3 ... : ... .. . ... ... : ... .. . ... ... : ... .. . ... ... : ... .. . ... ...
ROW 12 : ... .. 8 ... ... ... : ... .. 7 ... ... ... : ... .. . ... : ... .. 2 ... : ... .. . ... ... : ... .. . ... ... : ... .. . ... ... : ... .. 4 ... ...
ROW 13 : ... .. 7 ... ... ... : F#3 00 6 ... ... ... : ... .. . ... : ... .. 0 ... : ... .. . ... ... : ... .. . ... ... : ... .. . ... ... : ... .. . ... ...
ROW 14 : B-1 00 D ... ... ... : ... .. A ... ... ... : A#3 00 . ... : 4-# 00 D ... : ... .. . ... ... : D-2 01 A ... ... : ... .. A ... ... : B-1 01 F ... ...
ROW 15 : ... .. B ... ... ... : ... .. 9 ... ... ... : C-3 00 . ... : ... .. B ... : ... .. . ... ... : ... .. 9 ... ... : ... .. 9 ... ... : ... .. D ... ...
ROW 16 : ... .. . ... ... ... : G-3 00 8 ... ... ... : F-2 00 . ... : ... .. . ... : ... .. . ... ... : ... .. 8 ... ... : ... .. 8 ... ... : ... .. 8 ... ...
ROW 17 : ... .. A ... ... ... : ... .. B ... ... ... : E-2 00 . ... : ... .. A ... : ... .. . ... ... : ... .. 7 ... ... : ... .. 7 ... ... : ... .. . ... ...
ROW 18 : ... .. 8 ... ... ... : ... .. A ... ... ... : B-1 00 . ... : ... .. 8 ... : ... .. . ... ... : ... .. . ... ... : ... .. . ... ... : ... .. 4 ... ...
ROW 19 : ... .. 7 ... ... ... : G#3 00 9 ... ... ... : ... .. . ... : ... .. 7 ... : ... .. . ... ... : ... .. 6 ... ... : ... .. 6 ... ... : ... .. . ... ...
ROW 1A : A-1 00 D ... ... ... : A-3 00 D ... ... ... : ... .. . ... : 1-# 00 F ... : ... .. . ... ... : ... .. 5 ... ... : ... .. 5 ... ... : B-0 01 F ... ...
ROW 1B : ... .. B ... ... ... : ... .. C ... ... ... : ... .. . ... : ... .. C ... : ... .. . ... ... : ... .. . ... ... : ... .. . ... ... : ... .. D ... ...
ROW 1C : ... .. . ... ... ... : A#3 00 B ... ... ... : ... .. . ... : ... .. 6 ... : ... .. . ... ... : ... .. 3 ... ... : ... .. 3 ... ... : ... .. 8 ... ...
ROW 1D : ... .. A ... ... ... : B-3 00 F ... ... ... : ... .. . ... : ... .. 3 ... : ... .. . ... ... : ... .. . ... ... : ... .. . ... ... : ... .. . ... ...
ROW 1E : ... .. 8 ... ... ... : ... .. E ... ... ... : ... .. . ... : ... .. 2 ... : ... .. . ... ... : ... .. . ... ... : ... .. . ... ... : ... .. 4 ... ...
ROW 1F : ... .. 7 ... ... ... : C-4 00 D ... ... ... : ... .. . ... : ... .. 0 ... : ... .. . ... ... : ... .. . ... ... : ... .. . ... ... : ... .. . ... ...
ROW 20 : B-4 00 D ... ... ... : B-4 00 9 ... ... ... : A#3 00 . ... : D-# 00 F ... : ... .. . ... ... : F#2 01 6 ... ... : B-3 01 A ... V00 : B-1 01 F ... ...
ROW 21 : ... .. B ... ... ... : ... .. 8 ... ... ... : C-3 00 . ... : ... .. . ... : ... .. . ... ... : ... .. . ... ... : ... .. 9 ... ... : ... .. D ... ...
ROW 22 : ... .. . ... ... ... : ... .. 7 ... ... ... : F-2 00 . ... : ... .. . ... : ... .. . ... ... : ... .. 5 ... ... : ... .. . ... ... : ... .. 8 ... ...
ROW 23 : ... .. 9 ... ... ... : ... .. 6 ... ... ... : E-2 00 . ... : C-# 00 D ... : ... .. . ... ... : ... .. 4 ... ... : ... .. 8 ... ... : ... .. . ... ...
ROW 24 : ... .. 7 ... ... ... : ... .. . ... ... ... : B-1 00 . ... : ... .. . ... : ... .. . ... ... : ... .. . ... ... : ... .. 7 ... ... : ... .. . ... ...
ROW 25 : ... .. 6 ... ... ... : ... .. . ... ... ... : ... .. . ... : ... .. . ... : ... .. . ... ... : ... .. . ... ... : ... .. . ... ... : ... .. . ... ...
ROW 26 : C-5 00 C ... ... ... : ... .. . ... ... ... : ... .. . ... : B-# 00 B ... : ... .. . ... ... : G-2 01 6 ... ... : ... .. 6 ... ... : ... .. . ... ...
ROW 27 : ... .. A ... ... ... : ... .. . ... ... ... : ... .. . ... : ... .. . ... : ... .. . ... ... : ... .. . ... ... : ... .. . ... ... : ... .. . ... ...
ROW 28 : ... .. . ... ... ... : ... .. . ... ... ... : ... .. . ... : ... .. . ... : ... .. . ... ... : ... .. 5 ... ... : ... .. . ... ... : ... .. . ... ...
ROW 29 : ... .. 9 ... ... ... : ... .. . ... ... ... : ... .. . ... : ... .. 9 ... : ... .. . ... ... : ... .. 4 ... ... : ... .. . ... ... : ... .. . ... ...
ROW 2A : ... .. 7 ... ... ... : ... .. . ... ... ... : --- .. . ... : ... .. . ... : ... .. . ... ... : ... .. . ... ... : ... .. 3 ... ... : ... .. 4 ... ...
ROW 2B : ... .. 6 ... ... ... : ... .. . ... ... ... : ... .. . ... : ... .. . ... : ... .. . ... ... : ... .. . ... ... : ... .. . ... ... : ... .. . ... ...
ROW 2C : B-4 00 C ... ... ... : ... .. . P80 ... ... : B-1 00 . ... : ... .. 7 ... : ... .. . ... ... : A-2 01 6 ... ... : F-4 01 A ... ... : F-2 01 F ... ...
ROW 2D : ... .. A ... ... ... : ... .. . ... ... ... : ... .. . ... : ... .. . ... : ... .. . ... ... : ... .. . ... ... : ... .. 9 ... ... : ... .. D ... ...
ROW 2E : ... .. . ... ... ... : ... .. . ... ... ... : ... .. . ... : ... .. . ... : ... .. . ... ... : ... .. 5 ... ... : ... .. . ... ... : ... .. 8 ... ...
ROW 2F : ... .. 8 ... ... ... : ... .. 7 ... ... ... : ... .. . ... : ... .. 5 ... : ... .. . ... ... : ... .. 4 ... ... : ... .. 8 ... ... : ... .. . ... ...
ROW 30 : ... .. 6 ... ... ... : ... .. . ... ... ... : --- .. . ... : ... .. . ... : ... .. . ... ... : ... .. . ... ... : ... .. 7 ... ... : ... .. . ... ...
ROW 31 : ... .. . ... ... ... : ... .. . ... ... ... : ... .. . ... : ... .. . ... : ... .. . ... ... : ... .. . ... ... : ... .. . ... ... : ... .. . ... ...
ROW 32 : F#4 00 B ... ... ... : ... .. . P81 ... ... : B-1 00 . ... : D-# 00 D ... : ... .. . ... ... : B-2 01 6 ... ... : ... .. 6 ... ... : ... .. . ... ...
ROW 33 : ... .. 9 ... ... ... : ... .. . ... ... ... : ... .. . ... : ... .. B ... : ... .. . ... ... : ... .. . ... ... : ... .. . ... ... : ... .. . ... ...
ROW 34 : ... .. . ... ... ... : ... .. . ... ... ... : ... .. . ... : ... .. . ... : ... .. . ... ... : ... .. 5 ... ... : ... .. . ... ... : ... .. . ... ...
ROW 35 : ... .. 8 ... ... ... : ... .. 8 P82 ... ... : ... .. . ... : ... .. A ... : ... .. . ... ... : ... .. 4 ... ... : ... .. . ... ... : ... .. . ... ...
ROW 36 : ... .. 6 ... ... ... : ... .. . ... ... ... : --- .. . ... : ... .. 8 ... : ... .. . ... ... : ... .. . ... ... : ... .. 3 ... ... : ... .. 4 ... ...
ROW 37 : ... .. . ... ... ... : ... .. . ... ... ... : ... .. . ... : ... .. 7 ... : ... .. . ... ... : ... .. . ... ... : ... .. . ... ... : ... .. . ... ...
ROW 38 : F-4 00 B ... ... ... : ... .. . ... ... ... : B-1 00 . ... : 1-# 00 F ... : ... .. . ... ... : C-3 01 6 ... ... : E-4 01 A ... ... : E-2 01 F ... ...
ROW 39 : ... .. 9 ... ... ... : ... .. . ... ... ... : ... .. . ... : ... .. C ... : ... .. . ... ... : ... .. . ... ... : ... .. 9 ... ... : ... .. D ... ...
ROW 3A : ... .. . ... ... ... : ... .. . ... ... ... : ... .. . ... : ... .. 6 ... : ... .. . ... ... : ... .. 5 ... ... : ... .. . ... ... : ... .. 8 ... ...
ROW 3B : ... .. 8 ... ... ... : ... .. . P83 ... ... : ... .. . ... : ... .. 3 ... : ... .. . ... ... : ... .. 4 ... ... : ... .. 8 ... ... : ... .. . ... ...
ROW 3C : ... .. 6 ... ... ... : ... .. . ... ... ... : --- .. . ... : ... .. 2 ... : ... .. . ... ... : ... .. . ... ... : ... .. 7 ... ... : ... .. . ... ...
ROW 3D : ... .. . ... ... ... : ... .. . ... ... ... : ... .. . ... : ... .. 0 ... : ... .. . ... ... : ... .. . ... ... : ... .. . ... ... : ... .. . ... ...
ROW 3E : B-3 00 A ... ... ... : C-5 00 8 P7E ... ... : B-1 00 . ... : A-# 00 F ... : ... .. . ... ... : D-3 01 6 ... ... : ... .. 6 ... ... : ... .. . ... ...
ROW 3F : ... .. 8 ... ... ... : ... .. . ... ... ... : ... .. . ... : ... .. C ... : ... .. . ... ... : ... .. . ... ... : ... .. . ... ... : ... .. . ... ...
ROW 40 : ... .. . ... ... ... : ... .. . ... ... ... : ... .. . ... : ... .. 6 ... : ... .. . ... ... : ... .. 5 ... ... : ... .. . ... ... : ... .. . ... ...
ROW 41 : ... .. . ... ... ... : ... .. 9 P7F ... ... : ... .. . ... : ... .. 3 ... : ... .. . ... ... : ... .. 4 ... ... : ... .. . ... ... : ... .. . ... ...
ROW 42 : ... .. 6 ... ... ... : ... .. . ... ... ... : --- .. . ... : ... .. 2 ... : ... .. . ... ... : ... .. . ... ... : ... .. 3 ... ... : ... .. 4 ... ...
ROW 43 : ... .. 5 ... ... ... : ... .. . ... ... ... : ... .. . ... : ... .. 0 ... : ... .. . ... ... : ... .. . ... ... : ... .. . ... ... : ... .. . ... ...
ROW 44 : A-3 00 A ... ... ... : ... .. . ... ... ... : B-1 00 . ... : 5-# 00 D ... : ... .. . ... ... : B-2 01 6 ... ... : D-4 01 A ... ... : D-2 01 F ... ...
ROW 45 : ... .. 8 ... ... ... : ... .. . ... ... ... : ... .. . ... : ... .. B ... : ... .. . ... ... : ... .. . ... ... : ... .. 9 ... ... : ... .. D ... ...
ROW 46 : ... .. . ... ... ... : ... .. . ... ... ... : ... .. . ... : ... .. . ... : ... .. . ... ... : ... .. 5 ... ... : ... .. . ... ... : ... .. 8 ... ...
ROW 47 : ... .. . ... ... ... : ... .. . P80 ... ... : ... .. . ... : ... .. A ... : ... .. . ... ... : ... .. 4 ... ... : ... .. 8 ... ... : ... .. . ... ...
ROW 48 : ... .. 6 ... ... ... : ... .. . ... ... ... : --- .. . ... : ... .. 8 ... : ... .. . ... ... : ... .. . ... ... : ... .. 7 ... ... : ... .. . ... ...
ROW 49 : ... .. 5 ... ... ... : ... .. . ... ... ... : ... .. . ... : ... .. 7 ... : ... .. . ... ... : ... .. . ... ... : ... .. . ... ... : ... .. . ... ...
ROW 4A : B-3 00 A ... ... ... : ... .. A P81 ... ... : B-1 00 . ... : 0-# 00 F ... : ... .. . ... ... : C-3 01 6 ... ... : ... .. 6 ... ... : ... .. . ... ...
ROW 4B : ... .. 8 ... ... ... : ... .. . ... ... ... : ... .. . ... : ... .. C ... : ... .. . ... ... : ... .. . ... ... : ... .. . ... ... : ... .. . ... ...
ROW 4C : ... .. . ... ... ... : ... .. . ... ... ... : ... .. . ... : ... .. 6 ... : ... .. . ... ... : ... .. 5 ... ... : ... .. . ... ... : ... .. . ... ...
ROW 4D : ... .. 7 ... ... ... : ... .. . P82 ... ... : ... .. . ... : ... .. 3 ... : ... .. . ... ... : ... .. 4 ... ... : ... .. . ... ... : ... .. . ... ...
ROW 4E : ... .. 5 ... ... ... : ... .. . ... ... ... : --- .. . ... : ... .. 2 ... : ... .. . ... ... : ... .. . ... ... : ... .. 3 ... ... : ... .. 4 ... ...
ROW 4F : ... .. . ... ... ... : ... .. . ... ... ... : ... .. . ... : ... .. 0 ... : ... .. . ... ... : ... .. . ... ... : ... .. . ... ... : ... .. . ... ...
ROW 50 : F-4 00 9 ... ... ... : ... .. . ... ... ... : B-1 00 . ... : D-# 00 F ... : ... .. . ... ... : D-3 01 6 ... ... : B-3 01 A ... ... : B-1 01 F ... ...
ROW 51 : ... .. 8 ... ... ... : ... .. . ... ... ... : ... .. . ... : ... .. C ... : ... .. . ... ... : ... .. . ... ... : ... .. 9 ... ... : ... .. D ... ...
ROW 52 : ... .. . ... ... ... : ... .. . ... ... ... : ... .. . ... : ... .. 0 ... : ... .. . ... ... : ... .. 5 ... ... : ... .. . ... ... : ... .. 8 ... ...
ROW 53 : ... .. 7 ... ... ... : ... .. . ... ... ... : ... .. . ... : ... .. F ... : ... .. . ... ... : ... .. 4 ... ... : ... .. 8 ... ... : ... .. . ... ...
ROW 54 : ... .. 5 ... ... ... : ... .. . ... ... ... : --- .. . ... : ... .. C ... : ... .. . ... ... : ... .. . ... ... : ... .. 7 ... ... : ... .. . ... ...
ROW 55 : ... .. . ... ... ... : ... .. . ... ... ... : ... .. . ... : ... .. 0 ... : ... .. . ... ... : ... .. . ... ... : ... .. . ... ... : ... .. . ... ...
ROW 56 : A-4 00 9 ... ... ... : C#5 00 A P80 ... ... : B-1 00 . ... : ... .. F ... : ... .. . ... ... : D#3 01 6 ... ... : ... .. 6 ... ... : ... .. . ... ...
ROW 57 : ... .. 8 ... ... ... : ... .. . P82 ... ... : ... .. . ... : ... .. C ... : ... .. . ... ... : ... .. . ... ... : ... .. . ... ... : ... .. . ... ...
ROW 58 : ... .. . ... ... ... : ... .. . P81 ... ... : ... .. . ... : ... .. 0 ... : ... .. . ... ... : ... .. 5 ... ... : ... .. . ... ... : ... .. . ... ...
ROW 59 : ... .. 7 ... ... ... : ... .. . P7E ... ... : ... .. . ... : ... .. . ... : ... .. . ... ... : ... .. 4 ... ... : ... .. . ... ... : ... .. . ... ...
ROW 5A : ... .. 5 ... ... ... : C-5 00 A P80 ... ... : --- .. . ... : ... .. . ... : ... .. . ... ... : ... .. . ... ... : ... .. . ... ... : ... .. . ... ...
ROW 5B : ... .. . ... ... ... : B-4 00 A P83 ... ... : ... .. . ... : ... .. . ... : ... .. . ... ... : ... .. . ... ... : ... .. . ... ... : ... .. . ... ...
ROW 5C : B-4 00 8 ... ... ... : ... .. . P82 ... ... : B-1 00 . ... : 5-# 00 D ... : ... .. . ... ... : F-3 01 6 ... ... : ... .. . ... ... : ... .. . ... ...
ROW 5D : ... .. 7 ... ... ... : C-5 00 A P7E ... ... : ... .. . ... : ... .. B ... : ... .. . ... ... : ... .. . ... ... : ... .. . ... ... : ... .. . ... ...
ROW 5E : ... .. . ... ... ... : ... .. . P82 ... ... : ... .. . ... : ... .. . ... : ... .. . ... ... : ... .. 5 ... ... : ... .. . ... ... : ... .. . ... ...
ROW 5F : ... .. 6 ... ... ... : C#5 00 A P7F ... ... : ... .. . ... : ... .. A ... : ... .. . ... ... : ... .. 4 ... ... : ... .. . ... ... : ... .. . ... ...
ROW 60 : ... .. 5 ... ... ... : ... .. . P82 ... ... : --- .. . ... : ... .. 8 ... : ... .. . ... ... : ... .. . ... ... : ... .. . ... ... : ... .. . ... ...
ROW 61 : ... .. 4 ... ... ... : ... .. . ... ... ... : ... .. . ... : ... .. 7 ... : ... .. . ... ... : ... .. . ... ... : ... .. . ... ... : ... .. . ... ...
ROW 62 : C-5 00 8 ... ... ... : ... .. . P7E ... ... : B-1 00 . ... : F-# 00 D ... : ... .. . ... ... : F#3 01 6 ... ... : ... .. . ... ... : ... .. . ... ...
ROW 63 : ... .. 7 ... ... ... : C-5 00 A P81 ... ... : ... .. . ... : ... .. B ... : ... .. . ... ... : ... .. . ... ... : ... .. . ... ... : ... .. . ... ...
ROW 64 : ... .. . ... ... ... : B-4 00 A P83 ... ... : ... .. . ... : ... .. . ... : ... .. . ... ... : ... .. 5 ... ... : ... .. . ... ... : ... .. . ... ...
ROW 65 : ... .. 6 ... ... ... : ... .. . P82 ... ... : ... .. . ... : ... .. A ... : ... .. . ... ... : ... .. 4 ... ... : ... .. . ... ... : ... .. . ... ...
ROW 66 : ... .. 5 ... ... ... : C-5 00 A P7E ... ... : --- .. . ... : ... .. 8 ... : ... .. . ... ... : ... .. . ... ... : ... .. 3 ... ... : ... .. 4 ... ...
ROW 67 : ... .. 4 ... ... ... : ... .. . P82 ... ... : ... .. . ... : ... .. 7 ... : ... .. . ... ... : ... .. . ... ... : ... .. . ... ... : ... .. . ... ...
ROW 68 : B-4 00 8 ... ... ... : C#5 00 A P7F ... ... : B-1 00 . ... : 1-# 00 F ... : ... .. . ... ... : F#2 01 6 ... ... : ... .. A ... ... : ... .. F ... ...
ROW 69 : ... .. 7 ... ... ... : ... .. . P82 ... ... : ... .. . ... : ... .. C ... : ... .. . ... ... : ... .. . ... ... : ... .. 9 ... ... : ... .. D ... ...
ROW 6A : ... .. . ... ... ... : ... .. . ... ... ... : ... .. . ... : ... .. 6 ... : ... .. . ... ... : ... .. 5 ... ... : ... .. . ... ... : ... .. 8 ... ...
ROW 6B : ... .. 6 ... ... ... : ... .. . P7F ... ... : ... .. . ... : ... .. 3 ... : ... .. . ... ... : ... .. 4 ... ... : ... .. 8 ... ... : ... .. . ... ...
ROW 6C : ... .. 5 ... ... ... : C-5 00 A P82 ... ... : --- .. . ... : ... .. 2 ... : ... .. . ... ... : ... .. . ... ... : ... .. 7 ... ... : ... .. . ... ...
ROW 6D : ... .. 4 ... ... ... : ... .. . P7E ... ... : ... .. . ... : ... .. 0 ... : ... .. . ... ... : ... .. . ... ... : ... .. . ... ... : ... .. . ... ...
ROW 6E : C-5 00 8 ... ... ... : B-4 00 A P82 ... ... : B-1 00 . ... : D-# 00 F ... : ... .. . ... ... : G-2 01 6 ... ... : ... .. 6 ... ... : ... .. . ... ...
ROW 6F : ... .. 7 ... ... ... : ... .. . P83 ... ... : ... .. . ... : ... .. C ... : ... .. . ... ... : ... .. . ... ... : ... .. . ... ... : ... .. . ... ...
ROW 70 : ... .. . ... ... ... : C-5 00 A P81 ... ... : ... .. . ... : ... .. 6 ... : ... .. . ... ... : ... .. 5 ... ... : ... .. . ... ... : ... .. . ... ...
ROW 71 : ... .. 6 ... ... ... : C#5 00 A P7E ... ... : ... .. . ... : ... .. 3 ... : ... .. . ... ... : ... .. 4 ... ... : ... .. . ... ... : ... .. . ... ...
ROW 72 : ... .. 5 ... ... ... : ... .. . P82 ... ... : --- .. . ... : ... .. 2 ... : ... .. . ... ... : ... .. . ... ... : ... .. 3 ... ... : ... .. 4 ... ...
ROW 73 : ... .. 4 ... ... ... : ... .. . ... ... ... : ... .. . ... : ... .. 0 ... : ... .. . ... ... : ... .. . ... ... : ... .. . ... ... : ... .. . ... ...
ROW 74 : B-4 00 8 ... ... ... : ... .. . P7F ... ... : B-1 00 . ... : ... .. F ... : ... .. . ... ... : A-2 01 6 ... ... : F-4 01 A ... ... : F-2 01 F ... ...
ROW 75 : ... .. 7 ... ... ... : C-5 00 A P82 ... ... : ... .. . ... : ... .. C ... : ... .. . ... ... : ... .. . ... ... : ... .. 9 ... ... : ... .. D ... ...
ROW 76 : ... .. . ... ... ... : ... .. . P7E ... ... : ... .. . ... : ... .. 6 ... : ... .. . ... ... : ... .. 5 ... ... : ... .. . ... ... : ... .. 8 ... ...
ROW 77 : ... .. 6 ... ... ... : B-4 00 A P82 ... ... : ... .. . ... : ... .. 3 ... : ... .. . ... ... : ... .. 4 ... ... : ... .. 8 ... ... : ... .. . ... ...
ROW 78 : ... .. 5 ... ... ... : ... .. . P83 ... ... : --- .. . ... : ... .. 2 ... : ... .. . ... ... : ... .. . ... ... : ... .. 7 ... ... : ... .. . ... ...
ROW 79 : ... .. 4 ... ... ... : C-5 00 A P80 ... ... : ... .. . ... : ... .. 0 ... : ... .. . ... ... : ... .. . ... ... : ... .. . ... ... : ... .. . ... ...
ROW 7A : F#4 00 8 ... ... ... : C#5 00 A P7E ... ... : B-1 00 . ... : 5-# 00 D ... : ... .. . ... ... : B-2 01 6 ... ... : ... .. 6 ... ... : ... .. . ... ...
ROW 7B : ... .. 7 ... ... ... : ... .. . P81 ... ... : ... .. . ... : ... .. B ... : ... .. . ... ... : ... .. . ... ... : ... .. . ... ... : ... .. . ... ...
ROW 7C : ... .. . ... ... ... : ... .. . P82 ... ... : ... .. . ... : ... .. . ... : ... .. . ... ... : ... .. 5 ... ... : ... .. . ... ... : ... .. . ... ...
ROW 7D : ... .. 6 ... ... ... : ... .. . P80 ... ... : ... .. . ... : ... .. A ... : ... .. . ... ... : ... .. 4 ... ... : ... .. . ... ... : ... .. . ... ...
ROW 7E : ... .. 5 ... ... ... : C-5 00 A P82 ... ... : --- .. . ... : ... .. 8 ... : ... .. . ... ... : ... .. . ... ... : ... .. 3 ... ... : ... .. 4 ... ...
ROW 7F : ... .. 4 ... ... ... : ... .. . P7F ... ... : ... .. . ... : ... .. 7 ... : ... .. . ... ... : ... .. . ... ... : ... .. . ... ... : ... .. . ... ...
ROW 80 : F-4 00 8 ... ... ... : B-4 00 A P82 ... ... : B-1 00 . ... : F-# 00 D ... : ... .. . ... ... : C-3 01 6 ... ... : E-4 01 A ... ... : E-2 01 F ... ...
ROW 81 : ... .. 7 ... ... ... : ... .. . ... ... ... : ... .. . ... : ... .. B ... : ... .. . ... ... : ... .. . ... ... : ... .. 9 ... ... : ... .. D ... ...
ROW 82 : ... .. . ... ... ... : C-5 00 A P80 ... ... : ... .. . ... : ... .. . ... : ... .. . ... ... : ... .. 5 ... ... : ... .. . ... ... : ... .. 8 ... ...
ROW 83 : ... .. 6 ... ... ... : ... .. 9 P83 ... ... : ... .. . ... : ... .. A ... : ... .. . ... ... : ... .. 4 ... ... : ... .. 8 ... ... : ... .. . ... ...
ROW 84 : ... .. 5 ... ... ... : C#5 00 9 P81 ... ... : --- .. . ... : ... .. 8 ... : ... .. . ... ... : ... .. . ... ... : ... .. 7 ... ... : ... .. . ... ...
ROW 85 : ... .. 4 ... ... ... : ... .. . P82 ... ... : ... .. . ... : ... .. 7 ... : ... .. . ... ... : ... .. . ... ... : ... .. . ... ... : ... .. . ... ...
ROW 86 : B-3 00 8 ... ... ... : ... .. . P80 ... ... : B-1 00 . ... : 1-# 00 F ... : ... .. . ... ... : D-3 01 6 ... ... : ... .. 6 ... ... : ... .. . ... ...
ROW 87 : ... .. 7 ... ... ... : C-5 00 9 P82 ... ... : ... .. . ... : ... .. C ... : ... .. . ... ... : ... .. . ... ... : ... .. . ... ... : ... .. . ... ...
ROW 88 : ... .. . ... ... ... : ... .. . P7F ... ... : ... .. . ... : ... .. 6 ... : ... .. . ... ... : ... .. 5 ... ... : ... .. . ... ... : ... .. . ... ...
ROW 89 : ... .. 6 ... ... ... : ... .. 8 P82 ... ... : ... .. . ... : ... .. 3 ... : ... .. . ... ... : ... .. 4 ... ... : ... .. . ... ... : ... .. . ... ...
ROW 8A : ... .. 5 ... ... ... : ... .. . ... ... ... : --- .. . ... : ... .. 2 ... : ... .. . ... ... : ... .. . ... ... : ... .. 3 ... ... : ... .. 4 ... ...
ROW 8B : ... .. 4 ... ... ... : ... .. . ... ... ... : ... .. . ... : ... .. 0 ... : ... .. . ... ... : ... .. . ... ... : ... .. . ... ... : ... .. . ... ...
ROW 8C : A-3 00 8 ... ... ... : B-4 00 D P80 ... ... : B-1 00 . ... : 5-# 00 D ... : ... .. . ... ... : B-2 01 6 ... ... : D-4 01 A ... ... : D-2 01 F ... ...
ROW 8D : ... .. 7 ... ... ... : ... .. C ... ... ... : ... .. . ... : ... .. B ... : ... .. . ... ... : ... .. . ... ... : ... .. 9 ... ... : ... .. D ... ...
ROW 8E : ... .. . ... ... ... : ... .. B ... ... ... : ... .. . ... : ... .. . ... : ... .. . ... ... : ... .. 5 ... ... : ... .. . ... ... : ... .. 8 ... ...
ROW 8F : ... .. 6 ... ... ... : ... .. 8 ... ... ... : ... .. . ... : ... .. A ... : ... .. . ... ... : ... .. 4 ... ... : ... .. 8 ... ... : ... .. . ... ...
ROW 90 : ... .. 5 ... ... ... : ... .. . ... ... ... : --- .. . ... : ... .. 8 ... : ... .. . ... ... : ... .. . ... ... : ... .. 7 ... ... : ... .. . ... ...
ROW 91 : ... .. 4 ... ... ... : ... .. . ... ... ... : ... .. . ... : ... .. 7 ... : ... .. . ... ... : ... .. . ... ... : ... .. . ... ... : ... .. . ... ...
ROW 92 : B-3 00 8 ... ... ... : ... .. 9 ... ... ... : B-1 00 . ... : A-# 00 F ... : ... .. . ... ... : C-3 01 6 ... ... : ... .. 6 ... ... : ... .. . ... ...
ROW 93 : ... .. 7 ... ... ... : ... .. . ... ... ... : ... .. . ... : ... .. C ... : ... .. . ... ... : ... .. . ... ... : ... .. . ... ... : ... .. . ... ...
ROW 94 : ... .. . ... ... ... : ... .. . ... ... ... : ... .. . ... : ... .. 6 ... : ... .. . ... ... : ... .. 5 ... ... : ... .. . ... ... : ... .. . ... ...
ROW 95 : ... .. 6 ... ... ... : ... .. . ... ... ... : ... .. . ... : ... .. 3 ... : ... .. . ... ... : ... .. 4 ... ... : ... .. . ... ... : ... .. . ... ...
ROW 96 : ... .. 5 ... ... ... : ... .. . ... ... ... : --- .. . ... : ... .. 2 ... : ... .. . ... ... : ... .. . ... ... : ... .. 3 ... ... : ... .. 4 ... ...
ROW 97 : ... .. 4 ... ... ... : ... .. . ... ... ... : ... .. . ... : ... .. 0 ... : ... .. . ... ... : ... .. . ... ... : ... .. . ... ... : ... .. . ... ...
ROW 98 : F-4 00 8 ... ... ... : ... .. A ... ... ... : B-1 00 . ... : ... .. F ... : ... .. . ... ... : D-3 01 6 ... ... : E-6 01 A P81 ... : F-4 01 F ... ...
ROW 99 : ... .. 7 ... ... ... : ... .. . ... ... ... : ... .. . ... : ... .. C ... : ... .. . ... ... : ... .. . ... ... : ... .. 9 ... ... : ... .. D ... ...
ROW 9A : ... .. . ... ... ... : ... .. . ... ... ... : ... .. . ... : ... .. 6 ... : ... .. . ... ... : ... .. 5 ... ... : ... .. . ... ... : ... .. 8 ... ...
ROW 9B : ... .. 6 ... ... ... : ... .. . ... ... ... : ... .. . ... : ... .. 3 ... : ... .. . ... ... : ... .. 4 ... ... : ... .. 6 ... ... : ... .. . ... ...
ROW 9C : ... .. 5 ... ... ... : ... .. . ... ... ... : --- .. . ... : ... .. 2 ... : ... .. . ... ... : ... .. . ... ... : ... .. 3 ... ... : ... .. 4 ... ...
ROW 9D : ... .. 4 ... ... ... : ... .. . ... ... ... : ... .. . ... : ... .. 0 ... : ... .. . ... ... : ... .. . ... ... : ... .. . ... ... : ... .. . ... ...
ROW 9E : A-4 00 8 ... ... ... : ... .. . ... ... ... : B-1 00 . ... : 9-# 00 D ... : ... .. . ... ... : D#3 01 6 ... ... : A#6 01 A ... ... : B-4 01 F ... ...
ROW 9F : ... .. 7 ... ... ... : ... .. . ... ... ... : ... .. . ... : ... .. B ... : ... .. . ... ... : ... .. . ... ... : ... .. 9 ... ... : ... .. D ... ...
ROW A0 : ... .. . ... ... ... : ... .. . ... ... ... : ... .. . ... : ... .. . ... : ... .. . ... ... : ... .. 5 ... ... : ... .. . ... ... : ... .. 8 ... ...
ROW A1 : ... .. 6 ... ... ... : ... .. . ... ... ... : ... .. . ... : ... .. A ... : ... .. . ... ... : ... .. 4 ... ... : ... .. 6 ... ... : ... .. . ... ...
ROW A2 : ... .. 5 ... ... ... : ... .. . ... ... ... : --- .. . ... : ... .. 8 ... : ... .. . ... ... : ... .. . ... ... : ... .. 3 ... ... : ... .. 4 ... ...
ROW A3 : ... .. 4 ... ... ... : ... .. . ... ... ... : ... .. . ... : ... .. 7 ... : ... .. . ... ... : ... .. . ... ... : ... .. . ... ... : ... .. . ... ...
ROW A4 : B-4 00 8 ... ... ... : ... .. . ... ... ... : B-1 00 . ... : 6-# 00 D ... : ... .. . ... ... : F-3 01 6 ... ... : B-5 01 A P7F ... : B-3 01 F ... ...
ROW A5 : ... .. 7 ... ... ... : ... .. . ... ... ... : ... .. . ... : ... .. B ... : ... .. . ... ... : ... .. . ... ... : ... .. 9 ... ... : ... .. D ... ...
ROW A6 : ... .. . ... ... ... : ... .. . ... ... ... : ... .. . ... : ... .. . ... : ... .. . ... ... : ... .. 5 ... ... : ... .. . ... ... : ... .. 8 ... ...
ROW A7 : ... .. 6 ... ... ... : ... .. . ... ... ... : ... .. . ... : ... .. A ... : ... .. . ... ... : ... .. 4 ... ... : ... .. 6 ... ... : ... .. . ... ...
ROW A8 : ... .. 5 ... ... ... : ... .. . ... ... ... : --- .. . ... : ... .. 8 ... : ... .. . ... ... : ... .. . ... ... : ... .. 3 ... ... : ... .. 4 ... ...
ROW A9 : ... .. 4 ... ... ... : ... .. . ... ... ... : ... .. . ... : ... .. 7 ... : ... .. . ... ... : ... .. . ... ... : ... .. . ... ... : ... .. . ... ...
ROW AA : C-5 00 8 ... ... ... : ... .. . ... ... ... : B-1 00 . ... : ... .. D ... : ... .. . ... ... : F#3 01 6 ... ... : B-4 01 A ... ... : B-2 01 F ... ...
ROW AB : ... .. 7 ... ... ... : ... .. . ... ... ... : ... .. . ... : ... .. B ... : ... .. . ... ... : ... .. . ... ... : ... .. 9 ... ... : ... .. D ... ...
ROW AC : ... .. . ... ... ... : ... .. . ... ... ... : ... .. . ... : ... .. . ... : ... .. . ... ... : ... .. 5 ... ... : ... .. . ... ... : ... .. 8 ... ...
ROW AD : ... .. 6 ... ... ... : ... .. . ... ... ... : ... .. . ... : ... .. A ... : ... .. . ... ... : ... .. 4 ... ... : ... .. 6 ... ... : ... .. . ... ...
ROW AE : ... .. 5 ... ... ... : ... .. . ... ... ... : --- .. . ... : ... .. 8 ... : ... .. . ... ... : ... .. . ... ... : ... .. 3 ... ... : ... .. 4 ... ...
ROW AF : ... .. 4 ... ... ... : ... .. . ... ... ... : ... .. . ... : ... .. 7 ... : ... .. . ... ... : ... .. . ... ... : ... .. . ... ... : ... .. . ... ...
ROW B0 : B-4 00 8 ... ... ... : F-5 00 F ... ... ... : B-1 00 . ... : 1-# 00 F ... : ... .. . ... ... : F#2 01 6 ... ... : B-3 01 A ... ... : B-1 01 F ... ...
ROW B1 : ... .. 7 ... ... ... : ... .. E ... ... ... : ... .. . ... : ... .. C ... : ... .. . ... ... : ... .. . ... ... : ... .. 9 ... ... : ... .. D ... ...
ROW B2 : ... .. . ... ... ... : ... .. D ... ... ... : ... .. . ... : ... .. 6 ... : ... .. . ... ... : ... .. 5 ... ... : ... .. . ... ... : ... .. 8 ... ...
ROW B3 : ... .. 6 ... ... ... : ... .. A ... ... ... : ... .. . ... : ... .. 3 ... : ... .. . ... ... : ... .. 4 ... ... : ... .. 8 ... ... : ... .. . ... ...
ROW B4 : ... .. 5 ... ... ... : ... .. . ... ... ... : --- .. . ... : ... .. 2 ... : ... .. . ... ... : ... .. . ... ... : ... .. 7 ... ... : ... .. . ... ...
ROW B5 : ... .. 4 ... ... ... : ... .. . ... ... ... : ... .. . ... : ... .. 0 ... : ... .. . ... ... : ... .. . ... ... : ... .. . ... ... : ... .. . ... ...
ROW B6 : C-5 00 8 ... ... ... : ... .. . ... ... ... : B-1 00 . ... : ... .. F ... : ... .. . ... ... : G-2 01 6 ... ... : ... .. 6 ... ... : ... .. . ... ...
ROW B7 : ... .. 7 ... ... ... : ... .. . ... ... ... : ... .. . ... : ... .. C ... : ... .. . ... ... : ... .. . ... ... : ... .. . ... ... : ... .. . ... ...
ROW B8 : ... .. . ... ... ... : ... .. . ... ... ... : ... .. . ... : ... .. 6 ... : ... .. . ... ... : ... .. 5 ... ... : ... .. . ... ... : ... .. . ... ...
ROW B9 : ... .. 6 ... ... ... : ... .. . ... ... ... : ... .. . ... : ... .. 3 ... : ... .. . ... ... : ... .. 4 ... ... : ... .. . ... ... : ... .. . ... ...
ROW BA : ... .. 5 ... ... ... : ... .. . ... ... ... : --- .. . ... : ... .. 2 ... : ... .. . ... ... : ... .. . ... ... : ... .. 3 ... ... : ... .. 4 ... ...
ROW BB : ... .. 4 ... ... ... : ... .. . ... ... ... : ... .. . ... : ... .. 0 ... : ... .. . ... ... : ... .. . ... ... : ... .. . ... ... : ... .. . ... ...
ROW BC : B-4 00 8 ... ... ... : ... .. 9 ... ... ... : B-1 00 . ... : D-# 00 F ... : ... .. . ... ... : A-2 01 6 ... ... : F-4 01 A ... ... : F-2 01 F ... ...
ROW BD : ... .. 7 ... ... ... : ... .. . ... ... ... : ... .. . ... : ... .. C ... : ... .. . ... ... : ... .. . ... ... : ... .. 9 ... ... : ... .. D ... ...
ROW BE : ... .. . ... ... ... : ... .. . ... ... ... : ... .. . ... : ... .. 6 ... : ... .. . ... ... : ... .. 5 ... ... : ... .. . ... ... : ... .. 8 ... ...
ROW BF : ... .. 6 ... ... ... : ... .. 8 ... ... ... : ... .. . ... : ... .. 3 ... : ... .. . ... ... : ... .. 4 ... ... : ... .. 8 ... ... : ... .. . ... ...
ROW C0 : ... .. 5 ... ... ... : ... .. . ... ... ... : --- .. . ... : ... .. 2 ... : ... .. . ... ... : ... .. . ... ... : ... .. 7 ... ... : ... .. . ... ...
ROW C1 : ... .. 4 ... ... ... : ... .. . ... ... ... : ... .. . ... : ... .. 0 ... : ... .. . ... ... : ... .. . ... ... : ... .. . ... ... : ... .. . ... ...
ROW C2 : F#4 00 8 ... ... ... : ... .. 7 ... ... ... : B-1 00 . ... : ... .. F ... : ... .. . ... ... : B-2 01 6 ... ... : ... .. 6 ... ... : ... .. . ... ...
ROW C3 : ... .. 7 ... ... ... : ... .. . ... ... ... : ... .. . ... : ... .. C ... : ... .. . ... ... : ... .. . ... ... : ... .. . ... ... : ... .. . ... ...
ROW C4 : ... .. . ... ... ... : ... .. . ... ... ... : ... .. . ... : ... .. 6 ... : ... .. . ... ... : ... .. 5 ... ... : ... .. . ... ... : ... .. . ... ...
ROW C5 : ... .. 6 ... ... ... : ... .. . ... ... ... : ... .. . ... : ... .. 3 ... : ... .. . ... ... : ... .. 4 ... ... : ... .. . ... ... : ... .. . ... ...
ROW C6 : ... .. 5 ... ... ... : ... .. . ... ... ... : --- .. . ... : ... .. 2 ... : ... .. . ... ... : ... .. . ... ... : ... .. 3 ... ... : ... .. 4 ... ...
ROW C7 : ... .. 4 ... ... ... : ... .. . ... ... ... : ... .. . ... : ... .. 0 ... : ... .. . ... ... : ... .. . ... ... : ... .. . ... ... : ... .. . ... ...
ROW C8 : F-4 00 8 ... ... ... : ... .. . ... ... ... : B-1 00 . ... : 6-# 00 F ... : ... .. . ... ... : C-3 01 6 ... ... : E-4 01 A ... ... : E-2 01 F ... ...
ROW C9 : ... .. 7 ... ... ... : ... .. . ... ... ... : ... .. . ... : ... .. C ... : ... .. . ... ... : ... .. . ... ... : ... .. 9 ... ... : ... .. D ... ...
ROW CA : ... .. . ... ... ... : ... .. . ... ... ... : ... .. . ... : ... .. 6 ... : ... .. . ... ... : ... .. 5 ... ... : ... .. . ... ... : ... .. 8 ... ...
ROW CB : ... .. 6 ... ... ... : ... .. 8 ... ... ... : ... .. . ... : ... .. 3 ... : ... .. . ... ... : ... .. 4 ... ... : ... .. 8 ... ... : ... .. . ... ...
ROW CC : ... .. 5 ... ... ... : ... .. . ... ... ... : --- .. . ... : ... .. 2 ... : ... .. . ... ... : ... .. . ... ... : ... .. 7 ... ... : ... .. . ... ...
ROW CD : ... .. 4 ... ... ... : ... .. . ... ... ... : ... .. . ... : ... .. 0 ... : ... .. . ... ... : ... .. . ... ... : ... .. . ... ... : ... .. . ... ...
ROW CE : B-3 00 8 ... ... ... : ... .. . ... ... ... : B-1 00 . ... : F-# 00 D ... : ... .. . ... ... : D-3 01 6 ... ... : ... .. 6 ... ... : ... .. . ... ...
ROW CF : ... .. 7 ... ... ... : ... .. . ... ... ... : ... .. . ... : ... .. B ... : ... .. . ... ... : ... .. . ... ... : ... .. . ... ... : ... .. . ... ...
ROW D0 : ... .. . ... ... ... : ... .. . ... ... ... : ... .. . ... : ... .. . ... : ... .. . ... ... : ... .. 5 ... ... : ... .. . ... ... : ... .. . ... ...
ROW D1 : ... .. 6 ... ... ... : ... .. . ... ... ... : ... .. . ... : ... .. A ... : ... .. . ... ... : ... .. 4 ... ... : ... .. . ... ... : ... .. . ... ...
ROW D2 : ... .. 5 ... ... ... : ... .. . ... ... ... : --- .. . ... : ... .. 8 ... : ... .. . ... ... : ... .. . ... ... : ... .. 3 ... ... : ... .. 4 ... ...
ROW D3 : ... .. 4 ... ... ... : ... .. . ... ... ... : ... .. . ... : ... .. 7 ... : ... .. . ... ... : ... .. . ... ... : ... .. . ... ... : ... .. . ... ...
ROW D4 : A-3 00 8 ... ... ... : F#5 00 8 ... ... ... : B-1 00 . ... : 5-# 00 D ... : ... .. . ... ... : B-2 01 6 ... ... : D-4 01 A ... ... : D-2 01 F ... ...
ROW D5 : ... .. 7 ... ... ... : ... .. . P82 ... ... : ... .. . ... : ... .. B ... : ... .. . ... ... : ... .. . ... ... : ... .. 9 ... ... : ... .. D ... ...
ROW D6 : ... .. . ... ... ... : ... .. . P81 ... ... : ... .. . ... : ... .. . ... : ... .. . ... ... : ... .. 5 ... ... : ... .. . ... ... : ... .. 8 ... ...
ROW D7 : ... .. 6 ... ... ... : F-5 00 8 P82 ... ... : ... .. . ... : ... .. A ... : ... .. . ... ... : ... .. 4 ... ... : ... .. 8 ... ... : ... .. . ... ...
ROW D8 : ... .. 5 ... ... ... : ... .. . P7E ... ... : --- .. . ... : ... .. 8 ... : ... .. . ... ... : ... .. . ... ... : ... .. 7 ... ... : ... .. . ... ...
ROW D9 : ... .. 4 ... ... ... : E-5 00 8 P80 ... ... : ... .. . ... : ... .. 7 ... : ... .. . ... ... : ... .. . ... ... : ... .. . ... ... : ... .. . ... ...
ROW DA : B-3 00 8 ... ... ... : ... .. 9 P7F ... ... : B-1 00 . ... : 0-# 00 F ... : ... .. . ... ... : C-3 01 6 ... ... : ... .. 6 ... ... : ... .. . ... ...
ROW DB : ... .. 7 ... ... ... : ... .. . P81 ... ... : ... .. . ... : ... .. C ... : ... .. . ... ... : ... .. . ... ... : ... .. . ... ... : ... .. . ... ...
ROW DC : ... .. . ... ... ... : F-5 00 9 P80 ... ... : ... .. . ... : ... .. 6 ... : ... .. . ... ... : ... .. 5 ... ... : ... .. . ... ... : ... .. . ... ...
ROW DD : ... .. 6 ... ... ... : F#5 00 9 P7F ... ... : ... .. . ... : ... .. 3 ... : ... .. . ... ... : ... .. 4 ... ... : ... .. . ... ... : ... .. . ... ...
ROW DE : ... .. 5 ... ... ... : ... .. . P82 ... ... : --- .. . ... : ... .. 2 ... : ... .. . ... ... : ... .. . ... ... : ... .. 3 ... ... : ... .. 4 ... ...
ROW DF : ... .. 4 ... ... ... : ... .. . ... ... ... : ... .. . ... : ... .. 0 ... : ... .. . ... ... : ... .. . ... ... : ... .. . ... ... : ... .. . ... ...
ROW E0 : F-4 00 8 ... ... ... : F-5 00 9 ... ... ... : B-1 00 . ... : C-# 00 F ... : ... .. . ... ... : D-3 01 6 ... ... : B-3 01 A ... ... : B-1 01 F ... ...
ROW E1 : ... .. 7 ... ... ... : ... .. . P7F ... ... : ... .. . ... : ... .. C ... : ... .. . ... ... : ... .. . ... ... : ... .. 9 ... ... : ... .. D ... ...
ROW E2 : ... .. . ... ... ... : E-5 00 9 P80 ... ... : ... .. . ... : ... .. 6 ... : ... .. . ... ... : ... .. 5 ... ... : ... .. . ... ... : ... .. 8 ... ...
ROW E3 : ... .. 6 ... ... ... : ... .. A P7F ... ... : ... .. . ... : ... .. 3 ... : ... .. . ... ... : ... .. 4 ... ... : ... .. 8 ... ... : ... .. . ... ...
ROW E4 : ... .. 5 ... ... ... : ... .. . P81 ... ... : --- .. . ... : ... .. 2 ... : ... .. . ... ... : ... .. . ... ... : ... .. 7 ... ... : ... .. . ... ...
ROW E5 : ... .. 4 ... ... ... : F-5 00 A P80 ... ... : ... .. . ... : ... .. 0 ... : ... .. . ... ... : ... .. . ... ... : ... .. . ... ... : ... .. . ... ...
ROW E6 : A-4 00 8 ... ... ... : F#5 00 A P7F ... ... : B-1 00 . ... : E-# 00 F ... : ... .. . ... ... : D#3 01 6 ... ... : ... .. 6 ... ... : ... .. . ... ...
ROW E7 : ... .. 7 ... ... ... : ... .. . P82 ... ... : ... .. . ... : ... .. C ... : ... .. . ... ... : ... .. . ... ... : ... .. . ... ... : ... .. . ... ...
ROW E8 : ... .. . ... ... ... : ... .. . ... ... ... : ... .. . ... : ... .. 6 ... : ... .. . ... ... : ... .. 5 ... ... : ... .. . ... ... : ... .. . ... ...
ROW E9 : ... .. 6 ... ... ... : ... .. . P7F ... ... : ... .. . ... : ... .. 3 ... : ... .. . ... ... : ... .. 4 ... ... : ... .. . ... ... : ... .. . ... ...
ROW EA : ... .. 5 ... ... ... : F-5 00 A P80 ... ... : --- .. . ... : ... .. 2 ... : ... .. . ... ... : ... .. . ... ... : ... .. . ... ... : ... .. . ... ...
ROW EB : ... .. 4 ... ... ... : E-5 00 A P81 ... ... : ... .. . ... : ... .. 0 ... : ... .. . ... ... : ... .. . ... ... : ... .. . ... ... : ... .. . ... ...
ROW EC : B-4 00 8 ... ... ... : ... .. . P7F ... ... : B-1 00 . ... : 8-# 00 F ... : ... .. . ... ... : F-3 01 6 ... ... : ... .. . ... ... : ... .. . ... ...
ROW ED : ... .. 7 ... ... ... : ... .. . P80 ... ... : ... .. . ... : ... .. C ... : ... .. . ... ... : ... .. . ... ... : ... .. . ... ... : ... .. . ... ...
ROW EE : ... .. . ... ... ... : F-5 00 A P7F ... ... : ... .. . ... : ... .. 6 ... : ... .. . ... ... : ... .. 5 ... ... : ... .. . ... ... : ... .. . ... ...
ROW EF : ... .. 6 ... ... ... : ... .. . P82 ... ... : ... .. . ... : ... .. 3 ... : ... .. . ... ... : ... .. 4 ... ... : ... .. . ... ... : ... .. . ... ...
ROW F0 : ... .. 5 ... ... ... : F#5 00 A ... ... ... : --- .. . ... : ... .. 2 ... : ... .. . ... ... : ... .. . ... ... : ... .. . ... ... : ... .. . ... ...
ROW F1 : ... .. 4 ... ... ... : ... .. . ... ... ... : ... .. . ... : ... .. 0 ... : ... .. . ... ... : ... .. . ... ... : ... .. . ... ... : ... .. . ... ...
ROW F2 : C-5 00 8 ... ... ... : ... .. . P7F ... ... : B-1 00 . ... : ... .. F ... : ... .. . ... ... : F#3 01 6 ... ... : ... .. . ... ... : ... .. . ... ...
ROW F3 : ... .. 7 ... ... ... : F-5 00 2 P80 ... ... : ... .. . ... : ... .. C ... : ... .. . ... ... : ... .. . ... ... : ... .. . ... ... : ... .. . ... ...
ROW F4 : ... .. . ... ... ... : E-5 00 2 P81 ... ... : ... .. . ... : ... .. 6 ... : ... .. . ... ... : ... .. 5 ... ... : ... .. . ... ... : ... .. . ... ...
ROW F5 : ... .. 6 ... ... ... : ... .. . P7F ... ... : ... .. . ... : ... .. 3 ... : ... .. . ... ... : ... .. 4 ... ... : ... .. . ... ... : ... .. . ... ...
ROW F6 : ... .. 5 ... ... ... : ... .. 1 P80 ... ... : --- .. . ... : ... .. 2 ... : ... .. . ... ... : ... .. . ... ... : ... .. 3 ... ... : ... .. 4 ... ...
ROW F7 : ... .. 4 ... ... ... : F-5 00 1 P7E ... ... : ... .. . ... : ... .. 0 ... : ... .. . ... ... : ... .. . ... ... : ... .. . ... ... : ... .. . ... ...
ROW F8 : F-4 00 A ... ... ... : F-6 00 F P80 ... ... : C#5 00 . ... : 5-# 00 D ... : ... .. . ... ... : F#2 01 6 ... ... : D-4 01 A ... ... : D-2 01 F ... ...
ROW F9 : ... .. 9 ... ... ... : ... .. E ... ... ... : D#4 00 . ... : ... .. B ... : ... .. . ... ... : ... .. . ... ... : ... .. 9 ... ... : ... .. D ... ...
ROW FA : ... .. 8 ... ... ... : ... .. D ... ... ... : G#3 00 . ... : ... .. . ... : ... .. . ... ... : ... .. 5 ... ... : ... .. . ... ... : ... .. 8 ... ...
ROW FB : ... .. 6 ... ... ... : ... .. A ... ... ... : G-3 00 . ... : ... .. A ... : ... .. . ... ... : ... .. 4 ... ... : --- .. . ... ... : --- .. . ... ...
ROW FC : ... .. 1 ... ... ... : ... .. 2 ... ... ... : D-3 00 . ... : ... .. 8 ... : ... .. . ... ... : ... .. . ... ... : ... .. . ... ... : ... .. . ... ...
ROW FD : ... .. . ... ... ... : ... .. . ... ... ... : ... .. . ... : ... .. 7 ... : ... .. . ... ... : ... .. . ... ... : ... .. . ... ... : ... .. . ... ...
ROW FE : D-4 00 A ... ... ... : D-5 00 F ... ... ... : D-2 00 . ... : 1-# 00 F ... : ... .. . ... ... : G-2 01 6 ... ... : D-4 01 A ... ... : D-2 01 F ... ...
ROW FF : ... .. 9 ... ... ... : ... .. E ... ... ... : ... .. . ... : ... .. C ... : ... .. . ... ... : ... .. . ... ... : ... .. 9 ... ... : ... .. D ... ...

PATTERN 14
ROW 00 : ... .. 8 ... ... ... : ... .. D ... ... ... : ... .. . ... : ... .. 6 ... : ... .. . ... ... : ... .. 5 ... ... : ... .. . ... ... : ... .. 8 ... ...
ROW 01 : ... .. 6 ... ... ... : ... .. A ... ... ... : ... .. . ... : ... .. 3 ... : ... .. . ... ... : ... .. 4 ... ... : ... .. 8 ... ... : ... .. . ... ...
ROW 02 : ... .. 1 ... ... ... : ... .. 2 ... ... ... : --- .. . ... : ... .. 2 ... : ... .. . ... ... : ... .. . ... ... : ... .. 7 ... ... : ... .. . ... ...
ROW 03 : ... .. . ... ... ... : ... .. . ... ... ... : ... .. . ... : ... .. 0 ... : ... .. . ... ... : ... .. . ... ... : ... .. . ... ... : ... .. . ... ...
ROW 04 : A-3 00 A ... ... ... : A-4 00 F ... ... ... : D-2 00 . ... : ... .. F ... : ... .. . ... ... : A-2 01 6 ... ... : --- .. . ... ... : --- .. . ... ...
ROW 05 : ... .. 9 ... ... ... : ... .. E ... ... ... : ... .. . ... : ... .. C ... : ... .. . ... ... : ... .. . ... ... : ... .. . ... ... : ... .. . ... ...
ROW 06 : ... .. 8 ... ... ... : ... .. D ... ... ... : ... .. . ... : ... .. 6 ... : ... .. . ... ... : ... .. 5 ... ... : ... .. . ... ... : ... .. . ... ...
ROW 07 : ... .. 6 ... ... ... : ... .. A ... ... ... : ... .. . ... : ... .. 3 ... : ... .. . ... ... : ... .. 4 ... ... : ... .. . ... ... : ... .. . ... ...
ROW 08 : ... .. 1 ... ... ... : ... .. 2 ... ... ... : --- .. . ... : ... .. 2 ... : ... .. . ... ... : ... .. . ... ... : ... .. . ... ... : ... .. . ... ...
ROW 09 : ... .. . ... ... ... : ... .. . ... ... ... : ... .. . ... : ... .. 0 ... : ... .. . ... ... : ... .. . ... ... : ... .. . ... ... : ... .. . ... ...
ROW 0A : F-3 00 A ... ... ... : F-4 00 F ... ... ... : C#5 00 . ... : 5-# 00 D ... : ... .. . ... ... : B-2 01 6 ... ... : D-4 01 A ... ... : D-2 01 F ... ...
ROW 0B : ... .. 9 ... ... ... : ... .. E ... ... ... : D#4 00 . ... : ... .. B ... : ... .. . ... ... : ... .. . ... ... : ... .. 9 ... ... : ... .. D ... ...
ROW 0C : ... .. 8 ... ... ... : ... .. D ... ... ... : G#3 00 . ... : ... .. . ... : ... .. . ... ... : ... .. 5 ... ... : ... .. . ... ... : ... .. 8 ... ...
ROW 0D : ... .. 6 ... ... ... : ... .. A ... ... ... : G-3 00 . ... : ... .. A ... : ... .. . ... ... : ... .. 4 ... ... : --- .. . ... ... : --- .. . ... ...
ROW 0E : ... .. 1 ... ... ... : ... .. 2 ... ... ... : D-3 00 . ... : ... .. 8 ... : ... .. . ... ... : ... .. . ... ... : ... .. . ... ... : ... .. . ... ...
ROW 0F : ... .. . ... ... ... : ... .. . ... ... ... : ... .. . ... : ... .. 7 ... : ... .. . ... ... : ... .. . ... ... : ... .. . ... ... : ... .. . ... ...
ROW 10 : D-3 00 A ... ... ... : D-4 00 F ... ... ... : D-2 00 . ... : 1-# 00 F ... : ... .. . ... ... : C-3 01 6 ... ... : D-4 01 A ... ... : D-2 01 F ... ...
ROW 11 : ... .. 9 ... ... ... : ... .. E ... ... ... : ... .. . ... : ... .. C ... : ... .. . ... ... : ... .. . ... ... : ... .. 9 ... ... : ... .. D ... ...
ROW 12 : ... .. 8 ... ... ... : ... .. D ... ... ... : ... .. . ... : ... .. 6 ... : ... .. . ... ... : ... .. 5 ... ... : ... .. . ... ... : ... .. 8 ... ...
ROW 13 : ... .. 6 ... ... ... : ... .. A ... ... ... : ... .. . ... : ... .. 3 ... : ... .. . ... ... : ... .. 4 ... ... : ... .. 8 ... ... : ... .. . ... ...
ROW 14 : ... .. 1 ... ... ... : ... .. 2 ... ... ... : --- .. . ... : ... .. 2 ... : ... .. . ... ... : ... .. . ... ... : ... .. 7 ... ... : ... .. . ... ...
ROW 15 : ... .. . ... ... ... : ... .. . ... ... ... : ... .. . ... : ... .. 0 ... : ... .. . ... ... : ... .. . ... ... : ... .. . ... ... : ... .. . ... ...
ROW 16 : A-2 00 A ... ... ... : A-3 00 F ... ... ... : D-2 00 . ... : ... .. F ... : ... .. . ... ... : D-3 01 6 ... ... : --- .. . ... ... : --- .. . ... ...
ROW 17 : ... .. 9 ... ... ... : ... .. E ... ... ... : ... .. . ... : ... .. C ... : ... .. . ... ... : ... .. . ... ... : ... .. . ... ... : ... .. . ... ...
ROW 18 : ... .. 8 ... ... ... : ... .. D ... ... ... : ... .. . ... : ... .. 6 ... : ... .. . ... ... : ... .. 5 ... ... : ... .. . ... ... : ... .. . ... ...
ROW 19 : ... .. 6 ... ... ... : ... .. A ... ... ... : ... .. . ... : ... .. 3 ... : ... .. . ... ... : ... .. 4 ... ... : ... .. . ... ... : ... .. . ... ...
ROW 1A : ... .. 1 ... ... ... : ... .. 2 ... ... ... : --- .. . ... : ... .. 2 ... : ... .. . ... ... : ... .. . ... ... : ... .. . ... ... : ... .. . ... ...
ROW 1B : ... .. . ... ... ... : ... .. . ... ... ... : ... .. . ... : ... .. 0 ... : ... .. . ... ... : ... .. . ... ... : ... .. . ... ... : ... .. . ... ...
ROW 1C : F-4 00 A ... ... ... : F-5 00 F ... ... ... : A-4 00 . ... : 5-# 00 D ... : ... .. . ... ... : B-2 01 6 ... ... : A#3 01 A ... ... : A#1 01 F ... ...
ROW 1D : ... .. 9 ... ... ... : ... .. E ... ... ... : B-3 00 . ... : ... .. B ... : ... .. . ... ... : ... .. . ... ... : ... .. 9 ... ... : ... .. D ... ...
ROW 1E : ... .. 8 ... ... ... : ... .. D ... ... ... : E-3 00 . ... : ... .. . ... : ... .. . ... ... : ... .. 5 ... ... : ... .. . ... ... : ... .. 8 ... ...
ROW 1F : ... .. 6 ... ... ... : ... .. A ... ... ... : D#3 00 . ... : ... .. A ... : ... .. . ... ... : ... .. 4 ... ... : --- .. . ... ... : --- .. . ... ...
ROW 20 : ... .. 1 ... ... ... : ... .. 2 ... ... ... : A#2 00 . ... : ... .. 8 ... : ... .. . ... ... : ... .. . ... ... : ... .. . ... ... : ... .. . ... ...
ROW 21 : ... .. . ... ... ... : ... .. . ... ... ... : ... .. . ... : ... .. 7 ... : ... .. . ... ... : ... .. . ... ... : ... .. . ... ... : ... .. . ... ...
ROW 22 : C#4 00 A ... ... ... : C#5 00 F ... ... ... : A#1 00 . ... : ... .. F ... : ... .. . ... ... : C-3 01 6 ... ... : A#3 01 A ... ... : A#1 01 F ... ...
ROW 23 : ... .. 9 ... ... ... : ... .. E ... ... ... : ... .. . ... : ... .. C ... : ... .. . ... ... : ... .. . ... ... : ... .. 9 ... ... : ... .. D ... ...
ROW 24 : ... .. 8 ... ... ... : ... .. D ... ... ... : ... .. . ... : ... .. 6 ... : ... .. . ... ... : ... .. 5 ... ... : ... .. . ... ... : ... .. 8 ... ...
ROW 25 : ... .. 6 ... ... ... : ... .. A ... ... ... : ... .. . ... : ... .. 3 ... : ... .. . ... ... : ... .. 4 ... ... : ... .. 8 ... ... : ... .. . ... ...
ROW 26 : ... .. 1 ... ... ... : ... .. 2 ... ... ... : --- .. . ... : ... .. 2 ... : ... .. . ... ... : ... .. . ... ... : ... .. 7 ... ... : ... .. . ... ...
ROW 27 : ... .. . ... ... ... : ... .. . ... ... ... : ... .. . ... : ... .. 0 ... : ... .. . ... ... : ... .. . ... ... : ... .. . ... ... : ... .. . ... ...
ROW 28 : A#3 00 A ... ... ... : A#4 00 F ... ... ... : A#1 00 . ... : F-# 00 F ... : ... .. . ... ... : D-3 01 6 ... ... : --- .. . ... ... : --- .. . ... ...
ROW 29 : ... .. 9 ... ... ... : ... .. E ... ... ... : ... .. . ... : ... .. C ... : ... .. . ... ... : ... .. . ... ... : ... .. . ... ... : ... .. . ... ...
ROW 2A : ... .. 8 ... ... ... : ... .. D ... ... ... : ... .. . ... : ... .. 6 ... : ... .. . ... ... : ... .. 5 ... ... : ... .. . ... ... : ... .. . ... ...
ROW 2B : ... .. 6 ... ... ... : ... .. A ... ... ... : ... .. . ... : ... .. 3 ... : ... .. . ... ... : ... .. 4 ... ... : ... .. . ... ... : ... .. . ... ...
ROW 2C : ... .. 1 ... ... ... : ... .. 2 ... ... ... : --- .. . ... : ... .. 2 ... : ... .. . ... ... : ... .. . ... ... : ... .. . ... ... : ... .. . ... ...
ROW 2D : ... .. . ... ... ... : ... .. . ... ... ... : ... .. . ... : ... .. 0 ... : ... .. . ... ... : ... .. . ... ... : ... .. . ... ... : ... .. . ... ...
ROW 2E : F-3 00 A ... ... ... : F-4 00 F ... ... ... : A-4 00 . ... : D-# 00 F ... : ... .. . ... ... : D#3 01 6 ... ... : A#3 01 A ... ... : A#1 01 F ... ...
ROW 2F : ... .. 9 ... ... ... : ... .. E ... ... ... : B-3 00 . ... : ... .. C ... : ... .. . ... ... : ... .. . ... ... : ... .. 9 ... ... : ... .. D ... ...
ROW 30 : ... .. 8 ... ... ... : ... .. D ... ... ... : E-3 00 . ... : ... .. 6 ... : ... .. . ... ... : ... .. 5 ... ... : ... .. . ... ... : ... .. 8 ... ...
ROW 31 : ... .. 6 ... ... ... : ... .. A ... ... ... : D#3 00 . ... : ... .. 3 ... : ... .. . ... ... : ... .. 4 ... ... : --- .. . ... ... : --- .. . ... ...
ROW 32 : ... .. 1 ... ... ... : ... .. 2 ... ... ... : A#2 00 . ... : ... .. 2 ... : ... .. . ... ... : ... .. . ... ... : ... .. . ... ... : ... .. . ... ...
ROW 33 : ... .. . ... ... ... : ... .. . ... ... ... : ... .. . ... : ... .. 0 ... : ... .. . ... ... : ... .. . ... ... : ... .. . ... ... : ... .. . ... ...
ROW 34 : C#3 00 A ... ... ... : C#4 00 F ... ... ... : A#1 00 . ... : B-# 00 F ... : ... .. . ... ... : F-3 01 6 ... ... : A#3 01 A ... ... : A#1 01 F ... ...
ROW 35 : ... .. 9 ... ... ... : ... .. E ... ... ... : ... .. . ... : ... .. C ... : ... .. . ... ... : ... .. . ... ... : ... .. 9 ... ... : ... .. D ... ...
ROW 36 : ... .. 8 ... ... ... : ... .. D ... ... ... : ... .. . ... : ... .. 6 ... : ... .. . ... ... : ... .. 5 ... ... : ... .. . ... ... : ... .. 8 ... ...
ROW 37 : ... .. 6 ... ... ... : ... .. A ... ... ... : ... .. . ... : ... .. 3 ... : ... .. . ... ... : ... .. 4 ... ... : ... .. 8 ... ... : ... .. . ... ...
ROW 38 : ... .. 1 ... ... ... : ... .. 2 ... ... ... : --- .. . ... : ... .. 2 ... : ... .. . ... ... : ... .. . ... ... : ... .. 7 ... ... : ... .. . ... ...
ROW 39 : ... .. . ... ... ... : ... .. . ... ... ... : ... .. . ... : ... .. 0 ... : ... .. . ... ... : ... .. . ... ... : ... .. . ... ... : ... .. . ... ...
ROW 3A : A#2 00 A ... ... ... : A#3 00 F ... ... ... : A#1 00 . ... : 8-# 00 F ... : ... .. . ... ... : F#3 01 6 ... ... : --- .. . ... ... : --- .. . ... ...
ROW 3B : ... .. 9 ... ... ... : ... .. E ... ... ... : ... .. . ... : ... .. C ... : ... .. . ... ... : ... .. . ... ... : ... .. . ... ... : ... .. . ... ...
ROW 3C : ... .. 8 ... ... ... : ... .. D ... ... ... : ... .. . ... : ... .. 6 ... : ... .. . ... ... : ... .. 5 ... ... : ... .. . ... ... : ... .. . ... ...
ROW 3D : ... .. 6 ... ... ... : ... .. A ... ... ... : ... .. . ... : ... .. 3 ... : ... .. . ... ... : ... .. 4 ... ... : ... .. . ... ... : ... .. . ... ...
ROW 3E : ... .. 1 ... ... ... : ... .. 2 ... ... ... : --- .. . ... : ... .. 2 ... : ... .. . ... ... : ... .. . ... ... : ... .. . ... ... : ... .. . ... ...
ROW 3F : ... .. . ... ... ... : ... .. . ... ... ... : ... .. . ... : ... .. 0 ... : ... .. . ... ... : ... .. . ... ... : ... .. . ... ... : ... .. . ... ...
ROW 40 : B-4 00 8 ... ... ... : F-5 00 9 ... ... ... : A#3 00 . ... : 1-# 00 F ... : ... .. . ... ... : F#2 01 6 ... ... : B-3 01 A ... ... : B-1 01 F ... ...
ROW 41 : ... .. 7 ... ... ... : ... .. 8 ... ... ... : C-3 00 . ... : ... .. C ... : ... .. . ... ... : ... .. . ... ... : ... .. 9 ... ... : ... .. D ... ...
ROW 42 : ... .. . ... ... ... : ... .. 7 ... ... ... : F-2 00 . ... : ... .. 6 ... : ... .. . ... ... : ... .. 5 ... ... : ... .. . ... ... : ... .. 8 ... ...
ROW 43 : ... .. 6 ... ... ... : ... .. 6 ... ... ... : E-2 00 . ... : ... .. 3 ... : ... .. . ... ... : ... .. 4 ... ... : ... .. 8 ... ... : ... .. . ... ...
ROW 44 : ... .. 5 ... ... ... : ... .. . ... ... ... : B-1 00 . ... : ... .. 2 ... : ... .. . ... ... : ... .. . ... ... : ... .. 7 ... ... : ... .. . ... ...
ROW 45 : ... .. 4 ... ... ... : ... .. . ... ... ... : ... .. . ... : ... .. 0 ... : ... .. . ... ... : ... .. . ... ... : ... .. . ... ... : ... .. . ... ...
ROW 46 : C-5 00 8 ... ... ... : ... .. . ... ... ... : ... .. . ... : 9-# 00 F ... : ... .. . ... ... : G-2 01 6 ... ... : ... .. 6 ... ... : ... .. . ... ...
ROW 47 : ... .. 7 ... ... ... : ... .. . ... ... ... : ... .. . ... : ... .. C ... : ... .. . ... ... : ... .. . ... ... : ... .. . ... ... : ... .. . ... ...
ROW 48 : ... .. . ... ... ... : ... .. . ... ... ... : ... .. . ... : ... .. 6 ... : ... .. . ... ... : ... .. 5 ... ... : ... .. . ... ... : ... .. . ... ...
ROW 49 : ... .. 6 ... ... ... : ... .. . ... ... ... : ... .. . ... : ... .. 3 ... : ... .. . ... ... : ... .. 4 ... ... : ... .. . ... ... : ... .. . ... ...
ROW 4A : ... .. 5 ... ... ... : ... .. . ... ... ... : --- .. . ... : ... .. 2 ... : ... .. . ... ... : ... .. . ... ... : ... .. 3 ... ... : ... .. 4 ... ...
ROW 4B : ... .. 4 ... ... ... : ... .. . ... ... ... : ... .. . ... : ... .. 0 ... : ... .. . ... ... : ... .. . ... ... : ... .. . ... ... : ... .. . ... ...
ROW 4C : B-4 00 8 ... ... ... : ... .. . ... ... ... : B-1 00 . ... : D-# 00 F ... : ... .. . ... ... : A-2 01 6 ... ... : F-4 01 A ... ... : F-2 01 F ... ...
ROW 4D : ... .. 7 ... ... ... : ... .. . ... ... ... : ... .. . ... : ... .. C ... : ... .. . ... ... : ... .. . ... ... : ... .. 9 ... ... : ... .. D ... ...
ROW 4E : ... .. . ... ... ... : ... .. . ... ... ... : ... .. . ... : ... .. 6 ... : ... .. . ... ... : ... .. 5 ... ... : ... .. . ... ... : ... .. 8 ... ...
ROW 4F : ... .. 6 ... ... ... : ... .. 7 ... ... ... : ... .. . ... : ... .. 3 ... : ... .. . ... ... : ... .. 4 ... ... : ... .. 8 ... ... : ... .. . ... ...
ROW 50 : ... .. 5 ... ... ... : ... .. . ... ... ... : --- .. . ... : ... .. 2 ... : ... .. . ... ... : ... .. . ... ... : ... .. 7 ... ... : ... .. . ... ...
ROW 51 : ... .. 4 ... ... ... : ... .. . ... ... ... : ... .. . ... : ... .. 0 ... : ... .. . ... ... : ... .. . ... ... : ... .. . ... ... : ... .. . ... ...
ROW 52 : F#4 00 8 ... ... ... : ... .. . ... ... ... : B-1 00 . ... : ... .. D ... : ... .. . ... ... : B-2 01 6 ... ... : ... .. 6 ... ... : ... .. . ... ...
ROW 53 : ... .. 7 ... ... ... : ... .. . ... ... ... : ... .. . ... : ... .. B ... : ... .. . ... ... : ... .. . ... ... : ... .. . ... ... : ... .. . ... ...
ROW 54 : ... .. . ... ... ... : ... .. . ... ... ... : ... .. . ... : ... .. . ... : ... .. . ... ... : ... .. 5 ... ... : ... .. . ... ... : ... .. . ... ...
ROW 55 : ... .. 6 ... ... ... : ... .. 8 ... ... ... : ... .. . ... : ... .. A ... : ... .. . ... ... : ... .. 4 ... ... : ... .. . ... ... : ... .. . ... ...
ROW 56 : ... .. 5 ... ... ... : ... .. . ... ... ... : --- .. . ... : ... .. 8 ... : ... .. . ... ... : ... .. . ... ... : ... .. 3 ... ... : ... .. 4 ... ...
ROW 57 : ... .. 4 ... ... ... : ... .. . ... ... ... : ... .. . ... : ... .. 7 ... : ... .. . ... ... : ... .. . ... ... : ... .. . ... ... : ... .. . ... ...
ROW 58 : F-4 00 8 ... ... ... : ... .. . ... ... ... : B-1 00 . ... : 1-# 00 F ... : ... .. . ... ... : C-3 01 6 ... ... : E-4 01 A ... ... : E-2 01 F ... ...
ROW 59 : ... .. 7 ... ... ... : ... .. . ... ... ... : ... .. . ... : ... .. C ... : ... .. . ... ... : ... .. . ... ... : ... .. 9 ... ... : ... .. D ... ...
ROW 5A : ... .. . ... ... ... : ... .. . ... ... ... : ... .. . ... : ... .. 6 ... : ... .. . ... ... : ... .. 5 ... ... : ... .. . ... ... : ... .. 8 ... ...
ROW 5B : ... .. 6 ... ... ... : ... .. . ... ... ... : ... .. . ... : ... .. 3 ... : ... .. . ... ... : ... .. 4 ... ... : ... .. 8 ... ... : ... .. . ... ...
ROW 5C : ... .. 5 ... ... ... : ... .. . ... ... ... : --- .. . ... : ... .. 2 ... : ... .. . ... ... : ... .. . ... ... : ... .. 7 ... ... : ... .. . ... ...
ROW 5D : ... .. 4 ... ... ... : ... .. . ... ... ... : ... .. . ... : ... .. 0 ... : ... .. . ... ... : ... .. . ... ... : ... .. . ... ... : ... .. . ... ...
ROW 5E : B-3 00 8 ... ... ... : ... .. . ... ... ... : B-1 00 . ... : A-# 00 F ... : ... .. . ... ... : D-3 01 6 ... ... : ... .. 6 ... ... : ... .. . ... ...
ROW 5F : ... .. 7 ... ... ... : ... .. . ... ... ... : ... .. . ... : ... .. C ... : ... .. . ... ... : ... .. . ... ... : ... .. . ... ... : ... .. . ... ...
ROW 60 : ... .. . ... ... ... : ... .. . ... ... ... : ... .. . ... : ... .. 6 ... : ... .. . ... ... : ... .. 5 ... ... : ... .. . ... ... : ... .. . ... ...
ROW 61 : ... .. 6 ... ... ... : ... .. 9 ... ... ... : ... .. . ... : ... .. 3 ... : ... .. . ... ... : ... .. 4 ... ... : ... .. . ... ... : ... .. . ... ...
ROW 62 : ... .. 5 ... ... ... : ... .. . ... ... ... : --- .. . ... : ... .. 2 ... : ... .. . ... ... : ... .. . ... ... : ... .. 3 ... ... : ... .. 4 ... ...
ROW 63 : ... .. 4 ... ... ... : ... .. . ... ... ... : ... .. . ... : ... .. 0 ... : ... .. . ... ... : ... .. . ... ... : ... .. . ... ... : ... .. . ... ...
ROW 64 : A-3 00 8 ... ... ... : ... .. . ... ... ... : B-1 00 . ... : 5-# 00 D ... : ... .. . ... ... : B-2 01 6 ... ... : D-4 01 A ... ... : D-2 01 F ... ...
ROW 65 : ... .. 7 ... ... ... : ... .. . ... ... ... : ... .. . ... : ... .. B ... : ... .. . ... ... : ... .. . ... ... : ... .. 9 ... ... : ... .. D ... ...
ROW 66 : ... .. . ... ... ... : ... .. . ... ... ... : ... .. . ... : ... .. . ... : ... .. . ... ... : ... .. 5 ... ... : ... .. . ... ... : ... .. 8 ... ...
ROW 67 : ... .. 6 ... ... ... : ... .. . ... ... ... : ... .. . ... : ... .. A ... : ... .. . ... ... : ... .. 4 ... ... : ... .. 8 ... ... : ... .. . ... ...
ROW 68 : ... .. 5 ... ... ... : ... .. . ... ... ... : --- .. . ... : ... .. 8 ... : ... .. . ... ... : ... .. . ... ... : ... .. 7 ... ... : ... .. . ... ...
ROW 69 : ... .. 4 ... ... ... : ... .. . ... ... ... : ... .. . ... : ... .. 7 ... : ... .. . ... ... : ... .. . ... ... : ... .. . ... ... : ... .. . ... ...
ROW 6A : B-3 00 8 ... ... ... : ... .. A ... ... ... : B-1 00 . ... : 0-# 00 F ... : ... .. . ... ... : C-3 01 6 ... ... : ... .. 6 ... ... : ... .. . ... ...
ROW 6B : ... .. 7 ... ... ... : ... .. . ... ... ... : ... .. . ... : ... .. C ... : ... .. . ... ... : ... .. . ... ... : ... .. . ... ... : ... .. . ... ...
ROW 6C : ... .. . ... ... ... : ... .. . ... ... ... : ... .. . ... : ... .. 6 ... : ... .. . ... ... : ... .. 5 ... ... : ... .. . ... ... : ... .. . ... ...
ROW 6D : ... .. 6 ... ... ... : ... .. . ... ... ... : ... .. . ... : ... .. 3 ... : ... .. . ... ... : ... .. 4 ... ... : ... .. . ... ... : ... .. . ... ...
ROW 6E : ... .. 5 ... ... ... : ... .. . ... ... ... : --- .. . ... : ... .. 2 ... : ... .. . ... ... : ... .. . ... ... : ... .. 3 ... ... : ... .. 4 ... ...
ROW 6F : ... .. 4 ... ... ... : ... .. . ... ... ... : ... .. . ... : ... .. 0 ... : ... .. . ... ... : ... .. . ... ... : ... .. . ... ... : ... .. . ... ...
ROW 70 : F-4 00 8 ... ... ... : ... .. . ... ... ... : B-1 00 . ... : D-# 00 F ... : ... .. . ... ... : D-3 01 6 ... ... : B-3 01 A ... ... : B-1 01 F ... ...
ROW 71 : ... .. 7 ... ... ... : ... .. . ... ... ... : ... .. . ... : ... .. C ... : ... .. . ... ... : ... .. . ... ... : ... .. 9 ... ... : ... .. D ... ...
ROW 72 : ... .. . ... ... ... : ... .. . ... ... ... : ... .. . ... : ... .. 0 ... : ... .. . ... ... : ... .. 5 ... ... : ... .. . ... ... : ... .. 8 ... ...
ROW 73 : ... .. 6 ... ... ... : ... .. . ... ... ... : ... .. . ... : ... .. F ... : ... .. . ... ... : ... .. 4 ... ... : ... .. 8 ... ... : ... .. . ... ...
ROW 74 : ... .. 5 ... ... ... : ... .. . ... ... ... : --- .. . ... : ... .. C ... : ... .. . ... ... : ... .. . ... ... : ... .. 7 ... ... : ... .. . ... ...
ROW 75 : ... .. 4 ... ... ... : ... .. . ... ... ... : ... .. . ... : ... .. 0 ... : ... .. . ... ... : ... .. . ... ... : ... .. . ... ... : ... .. . ... ...
ROW 76 : A-4 00 8 ... ... ... : F#5 00 A ... ... ... : B-1 00 . ... : ... .. F ... : ... .. . ... ... : D#3 01 6 ... ... : ... .. 6 ... ... : ... .. . ... ...
ROW 77 : ... .. 7 ... ... ... : ... .. . P82 ... ... : ... .. . ... : ... .. C ... : ... .. . ... ... : ... .. . ... ... : ... .. . ... ... : ... .. . ... ...
ROW 78 : ... .. . ... ... ... : ... .. . P81 ... ... : ... .. . ... : ... .. 0 ... : ... .. . ... ... : ... .. 5 ... ... : ... .. . ... ... : ... .. . ... ...
ROW 79 : ... .. 6 ... ... ... : F-5 00 A P82 ... ... : ... .. . ... : ... .. . ... : ... .. . ... ... : ... .. 4 ... ... : ... .. . ... ... : ... .. . ... ...
ROW 7A : ... .. 5 ... ... ... : ... .. . P7E ... ... : --- .. . ... : ... .. . ... : ... .. . ... ... : ... .. . ... ... : ... .. . ... ... : ... .. . ... ...
ROW 7B : ... .. 4 ... ... ... : E-5 00 A P80 ... ... : ... .. . ... : ... .. . ... : ... .. . ... ... : ... .. . ... ... : ... .. . ... ... : ... .. . ... ...
ROW 7C : B-4 00 8 ... ... ... : ... .. . P7F ... ... : B-1 00 . ... : 5-# 00 D ... : ... .. . ... ... : F-3 01 6 ... ... : ... .. . ... ... : ... .. . ... ...
ROW 7D : ... .. 7 ... ... ... : ... .. . P81 ... ... : ... .. . ... : ... .. B ... : ... .. . ... ... : ... .. . ... ... : ... .. . ... ... : ... .. . ... ...
ROW 7E : ... .. . ... ... ... : F-5 00 A P80 ... ... : ... .. . ... : ... .. . ... : ... .. . ... ... : ... .. 5 ... ... : ... .. . ... ... : ... .. . ... ...
ROW 7F : ... .. 6 ... ... ... : F#5 00 A P7F ... ... : ... .. . ... : ... .. A ... : ... .. . ... ... : ... .. 4 ... ... : ... .. . ... ... : ... .. . ... ...
ROW 80 : ... .. 5 ... ... ... : ... .. . P82 ... ... : --- .. . ... : ... .. 8 ... : ... .. . ... ... : ... .. . ... ... : ... .. . ... ... : ... .. . ... ...
ROW 81 : ... .. 4 ... ... ... : ... .. . ... ... ... : ... .. . ... : ... .. 7 ... : ... .. . ... ... : ... .. . ... ... : ... .. . ... ... : ... .. . ... ...
ROW 82 : C-5 00 8 ... ... ... : F-5 00 A ... ... ... : B-1 00 . ... : F-# 00 D ... : ... .. . ... ... : F#3 01 6 ... ... : ... .. . ... ... : ... .. . ... ...
ROW 83 : ... .. 7 ... ... ... : ... .. . P7F ... ... : ... .. . ... : ... .. B ... : ... .. . ... ... : ... .. . ... ... : ... .. . ... ... : ... .. . ... ...
ROW 84 : ... .. . ... ... ... : E-5 00 A P80 ... ... : ... .. . ... : ... .. . ... : ... .. . ... ... : ... .. 5 ... ... : ... .. . ... ... : ... .. . ... ...
ROW 85 : ... .. 6 ... ... ... : ... .. . P7F ... ... : ... .. . ... : ... .. A ... : ... .. . ... ... : ... .. 4 ... ... : ... .. . ... ... : ... .. . ... ...
ROW 86 : ... .. 5 ... ... ... : ... .. . P81 ... ... : --- .. . ... : ... .. 8 ... : ... .. . ... ... : ... .. . ... ... : ... .. 3 ... ... : ... .. 4 ... ...
ROW 87 : ... .. 4 ... ... ... : F-5 00 A P80 ... ... : ... .. . ... : ... .. 7 ... : ... .. . ... ... : ... .. . ... ... : ... .. . ... ... : ... .. . ... ...
ROW 88 : B-4 00 8 ... ... ... : F#5 00 A P7F ... ... : B-1 00 . ... : 1-# 00 F ... : ... .. . ... ... : F#2 01 6 ... ... : ... .. A ... ... : ... .. F ... ...
ROW 89 : ... .. 7 ... ... ... : ... .. . P82 ... ... : ... .. . ... : ... .. C ... : ... .. . ... ... : ... .. . ... ... : ... .. 9 ... ... : ... .. D ... ...
ROW 8A : ... .. . ... ... ... : ... .. . ... ... ... : ... .. . ... : ... .. 6 ... : ... .. . ... ... : ... .. 5 ... ... : ... .. . ... ... : ... .. 8 ... ...
ROW 8B : ... .. 6 ... ... ... : ... .. . P7F ... ... : ... .. . ... : ... .. 3 ... : ... .. . ... ... : ... .. 4 ... ... : ... .. 8 ... ... : ... .. . ... ...
ROW 8C : ... .. 5 ... ... ... : F-5 00 A P80 ... ... : --- .. . ... : ... .. 2 ... : ... .. . ... ... : ... .. . ... ... : ... .. 7 ... ... : ... .. . ... ...
ROW 8D : ... .. 4 ... ... ... : E-5 00 A P81 ... ... : ... .. . ... : ... .. 0 ... : ... .. . ... ... : ... .. . ... ... : ... .. . ... ... : ... .. . ... ...
ROW 8E : C-5 00 8 ... ... ... : ... .. . P7F ... ... : B-1 00 . ... : D-# 00 F ... : ... .. . ... ... : G-2 01 6 ... ... : ... .. 6 ... ... : ... .. . ... ...
ROW 8F : ... .. 7 ... ... ... : ... .. . P80 ... ... : ... .. . ... : ... .. C ... : ... .. . ... ... : ... .. . ... ... : ... .. . ... ... : ... .. . ... ...
ROW 90 : ... .. . ... ... ... : F-5 00 A P7F ... ... : ... .. . ... : ... .. 6 ... : ... .. . ... ... : ... .. 5 ... ... : ... .. . ... ... : ... .. . ... ...
ROW 91 : ... .. 6 ... ... ... : ... .. . P82 ... ... : ... .. . ... : ... .. 3 ... : ... .. . ... ... : ... .. 4 ... ... : ... .. . ... ... : ... .. . ... ...
ROW 92 : ... .. 5 ... ... ... : F#5 00 A ... ... ... : --- .. . ... : ... .. 2 ... : ... .. . ... ... : ... .. . ... ... : ... .. 3 ... ... : ... .. 4 ... ...
ROW 93 : ... .. 4 ... ... ... : ... .. . ... ... ... : ... .. . ... : ... .. 0 ... : ... .. . ... ... : ... .. . ... ... : ... .. . ... ... : ... .. . ... ...
ROW 94 : B-4 00 8 ... ... ... : ... .. . P7F ... ... : B-1 00 . ... : ... .. F ... : ... .. . ... ... : A-2 01 6 ... ... : F-4 01 A ... ... : F-2 01 F ... ...
ROW 95 : ... .. 7 ... ... ... : F-5 00 A P80 ... ... : ... .. . ... : ... .. C ... : ... .. . ... ... : ... .. . ... ... : ... .. 9 ... ... : ... .. D ... ...
ROW 96 : ... .. . ... ... ... : E-5 00 A P81 ... ... : ... .. . ... : ... .. 6 ... : ... .. . ... ... : ... .. 5 ... ... : ... .. . ... ... : ... .. 8 ... ...
ROW 97 : ... .. 6 ... ... ... : ... .. . P7F ... ... : ... .. . ... : ... .. 3 ... : ... .. . ... ... : ... .. 4 ... ... : ... .. 8 ... ... : ... .. . ... ...
ROW 98 : ... .. 5 ... ... ... : ... .. . P80 ... ... : --- .. . ... : ... .. 2 ... : ... .. . ... ... : ... .. . ... ... : ... .. 7 ... ... : ... .. . ... ...
ROW 99 : ... .. 4 ... ... ... : F-5 00 A P7E ... ... : ... .. . ... : ... .. 0 ... : ... .. . ... ... : ... .. . ... ... : ... .. . ... ... : ... .. . ... ...
ROW 9A : F#4 00 8 ... ... ... : ... .. . P82 ... ... : B-1 00 . ... : 5-# 00 D ... : ... .. . ... ... : B-2 01 6 ... ... : ... .. 6 ... ... : ... .. . ... ...
ROW 9B : ... .. 7 ... ... ... : F#5 00 A P81 ... ... : ... .. . ... : ... .. B ... : ... .. . ... ... : ... .. . ... ... : ... .. . ... ... : ... .. . ... ...
ROW 9C : ... .. . ... ... ... : ... .. . P82 ... ... : ... .. . ... : ... .. . ... : ... .. . ... ... : ... .. 5 ... ... : ... .. . ... ... : ... .. . ... ...
ROW 9D : ... .. 6 ... ... ... : ... .. . P80 ... ... : ... .. . ... : ... .. A ... : ... .. . ... ... : ... .. 4 ... ... : ... .. . ... ... : ... .. . ... ...
ROW 9E : ... .. 5 ... ... ... : F-5 00 A ... ... ... : --- .. . ... : ... .. 8 ... : ... .. . ... ... : ... .. . ... ... : ... .. 3 ... ... : ... .. 4 ... ...
ROW 9F : ... .. 4 ... ... ... : E-5 00 A P82 ... ... : ... .. . ... : ... .. 7 ... : ... .. . ... ... : ... .. . ... ... : ... .. . ... ... : ... .. . ... ...
ROW A0 : F-4 00 8 ... ... ... : ... .. . P7F ... ... : B-1 00 . ... : F-# 00 D ... : ... .. . ... ... : C-3 01 6 ... ... : E-4 01 A ... ... : E-2 01 F ... ...
ROW A1 : ... .. 7 ... ... ... : ... .. . ... ... ... : ... .. . ... : ... .. B ... : ... .. . ... ... : ... .. . ... ... : ... .. 9 ... ... : ... .. D ... ...
ROW A2 : ... .. . ... ... ... : F-5 00 A P7E ... ... : ... .. . ... : ... .. . ... : ... .. . ... ... : ... .. 5 ... ... : ... .. . ... ... : ... .. 8 ... ...
ROW A3 : ... .. 6 ... ... ... : ... .. 9 P81 ... ... : ... .. . ... : ... .. A ... : ... .. . ... ... : ... .. 4 ... ... : ... .. 8 ... ... : ... .. . ... ...
ROW A4 : ... .. 5 ... ... ... : F#5 00 9 ... ... ... : --- .. . ... : ... .. 8 ... : ... .. . ... ... : ... .. . ... ... : ... .. 7 ... ... : ... .. . ... ...
ROW A5 : ... .. 4 ... ... ... : ... .. . P82 ... ... : ... .. . ... : ... .. 7 ... : ... .. . ... ... : ... .. . ... ... : ... .. . ... ... : ... .. . ... ...
ROW A6 : B-3 00 8 ... ... ... : ... .. . P80 ... ... : B-1 00 . ... : 1-# 00 F ... : ... .. . ... ... : D-3 01 6 ... ... : ... .. 6 ... ... : ... .. . ... ...
ROW A7 : ... .. 7 ... ... ... : F-5 00 9 ... ... ... : ... .. . ... : ... .. C ... : ... .. . ... ... : ... .. . ... ... : ... .. . ... ... : ... .. . ... ...
ROW A8 : ... .. . ... ... ... : E-5 00 9 P82 ... ... : ... .. . ... : ... .. 6 ... : ... .. . ... ... : ... .. 5 ... ... : ... .. . ... ... : ... .. . ... ...
ROW A9 : ... .. 6 ... ... ... : ... .. 8 P7F ... ... : ... .. . ... : ... .. 3 ... : ... .. . ... ... : ... .. 4 ... ... : ... .. . ... ... : ... .. . ... ...
ROW AA : ... .. 5 ... ... ... : ... .. . ... ... ... : --- .. . ... : ... .. 2 ... : ... .. . ... ... : ... .. . ... ... : ... .. 3 ... ... : ... .. 4 ... ...
ROW AB : ... .. 4 ... ... ... : ... .. . P82 ... ... : ... .. . ... : ... .. 0 ... : ... .. . ... ... : ... .. . ... ... : ... .. . ... ... : ... .. . ... ...
ROW AC : A-3 00 8 ... ... ... : B-5 00 D P80 ... ... : B-1 00 . ... : 5-# 00 D ... : ... .. . ... ... : B-2 01 6 ... ... : D-4 01 A ... ... : D-2 01 F ... ...
ROW AD : ... .. 7 ... ... ... : ... .. C ... ... ... : ... .. . ... : ... .. B ... : ... .. . ... ... : ... .. . ... ... : ... .. 9 ... ... : ... .. D ... ...
ROW AE : ... .. . ... ... ... : ... .. B ... ... ... : ... .. . ... : ... .. . ... : ... .. . ... ... : ... .. 5 ... ... : ... .. . ... ... : ... .. 8 ... ...
ROW AF : ... .. 6 ... ... ... : ... .. 8 ... ... ... : ... .. . ... : ... .. A ... : ... .. . ... ... : ... .. 4 ... ... : ... .. 8 ... ... : ... .. . ... ...
ROW B0 : ... .. 5 ... ... ... : ... .. . ... ... ... : --- .. . ... : ... .. 8 ... : ... .. . ... ... : ... .. . ... ... : ... .. 7 ... ... : ... .. . ... ...
ROW B1 : ... .. 4 ... ... ... : ... .. . ... ... ... : ... .. . ... : ... .. 7 ... : ... .. . ... ... : ... .. . ... ... : ... .. . ... ... : ... .. . ... ...
ROW B2 : B-3 00 8 ... ... ... : ... .. 9 ... ... ... : B-1 00 . ... : A-# 00 F ... : ... .. . ... ... : C-3 01 6 ... ... : ... .. 6 ... ... : ... .. . ... ...
ROW B3 : ... .. 7 ... ... ... : ... .. . ... ... ... : ... .. . ... : ... .. C ... : ... .. . ... ... : ... .. . ... ... : ... .. . ... ... : ... .. . ... ...
ROW B4 : ... .. . ... ... ... : ... .. . ... ... ... : ... .. . ... : ... .. 6 ... : ... .. . ... ... : ... .. 5 ... ... : ... .. . ... ... : ... .. . ... ...
ROW B5 : ... .. 6 ... ... ... : ... .. . ... ... ... : ... .. . ... : ... .. 3 ... : ... .. . ... ... : ... .. 4 ... ... : ... .. . ... ... : ... .. . ... ...
ROW B6 : ... .. 5 ... ... ... : ... .. . ... ... ... : --- .. . ... : ... .. 2 ... : ... .. . ... ... : ... .. . ... ... : ... .. 3 ... ... : ... .. 4 ... ...
ROW B7 : ... .. 4 ... ... ... : ... .. . ... ... ... : ... .. . ... : ... .. 0 ... : ... .. . ... ... : ... .. . ... ... : ... .. . ... ... : ... .. . ... ...
ROW B8 : F-4 00 8 ... ... ... : ... .. A ... ... ... : B-1 00 . ... : ... .. F ... : ... .. . ... ... : D-3 01 6 ... ... : E-6 01 A P81 ... : F-4 01 F ... ...
ROW B9 : ... .. 7 ... ... ... : ... .. . ... ... ... : ... .. . ... : ... .. C ... : ... .. . ... ... : ... .. . ... ... : ... .. 9 ... ... : ... .. D ... ...
ROW BA : ... .. . ... ... ... : ... .. . ... ... ... : ... .. . ... : ... .. 6 ... : ... .. . ... ... : ... .. 5 ... ... : ... .. . ... ... : ... .. 8 ... ...
ROW BB : ... .. 6 ... ... ... : ... .. . ... ... ... : ... .. . ... : ... .. 3 ... : ... .. . ... ... : ... .. 4 ... ... : ... .. 6 ... ... : ... .. . ... ...
ROW BC : ... .. 5 ... ... ... : ... .. . ... ... ... : --- .. . ... : ... .. 2 ... : ... .. . ... ... : ... .. . ... ... : ... .. 3 ... ... : ... .. 4 ... ...
ROW BD : ... .. 4 ... ... ... : ... .. . ... ... ... : ... .. . ... : ... .. 0 ... : ... .. . ... ... : ... .. . ... ... : ... .. . ... ... : ... .. . ... ...
ROW BE : A-4 00 8 ... ... ... : ... .. . ... ... ... : B-1 00 . ... : 9-# 00 D ... : ... .. . ... ... : D#3 01 6 ... ... : A#6 01 A ... ... : B-4 01 F ... ...
ROW BF : ... .. 7 ... ... ... : ... .. . ... ... ... : ... .. . ... : ... .. B ... : ... .. . ... ... : ... .. . ... ... : ... .. 9 ... ... : ... .. D ... ...
ROW C0 : ... .. . ... ... ... : ... .. . ... ... ... : ... .. . ... : ... .. . ... : ... .. . ... ... : ... .. 5 ... ... : ... .. . ... ... : ... .. 8 ... ...
ROW C1 : ... .. 6 ... ... ... : ... .. . ... ... ... : ... .. . ... : ... .. A ... : ... .. . ... ... : ... .. 4 ... ... : ... .. 6 ... ... : ... .. . ... ...
ROW C2 : ... .. 5 ... ... ... : ... .. . ... ... ... : --- .. . ... : ... .. 8 ... : ... .. . ... ... : ... .. . ... ... : ... .. 3 ... ... : ... .. 4 ... ...
ROW C3 : ... .. 4 ... ... ... : ... .. . ... ... ... : ... .. . ... : ... .. 7 ... : ... .. . ... ... : ... .. . ... ... : ... .. . ... ... : ... .. . ... ...
ROW C4 : B-4 00 8 ... ... ... : ... .. . ... ... ... : B-1 00 . ... : 6-# 00 D ... : ... .. . ... ... : F-3 01 6 ... ... : B-5 01 A P7F ... : B-3 01 F ... ...
ROW C5 : ... .. 7 ... ... ... : ... .. . ... ... ... : ... .. . ... : ... .. B ... : ... .. . ... ... : ... .. . ... ... : ... .. 9 ... ... : ... .. D ... ...
ROW C6 : ... .. . ... ... ... : ... .. . ... ... ... : ... .. . ... : ... .. . ... : ... .. . ... ... : ... .. 5 ... ... : ... .. . ... ... : ... .. 8 ... ...
ROW C7 : ... .. 6 ... ... ... : ... .. . ... ... ... : ... .. . ... : ... .. A ... : ... .. . ... ... : ... .. 4 ... ... : ... .. 6 ... ... : ... .. . ... ...
ROW C8 : ... .. 5 ... ... ... : ... .. . ... ... ... : --- .. . ... : ... .. 8 ... : ... .. . ... ... : ... .. . ... ... : ... .. 3 ... ... : ... .. 4 ... ...
ROW C9 : ... .. 4 ... ... ... : ... .. . ... ... ... : ... .. . ... : ... .. 7 ... : ... .. . ... ... : ... .. . ... ... : ... .. . ... ... : ... .. . ... ...
ROW CA : C-5 00 8 ... ... ... : ... .. . ... ... ... : B-1 00 . ... : ... .. D ... : ... .. . ... ... : F#3 01 6 ... ... : B-4 01 A ... ... : B-2 01 F ... ...
ROW CB : ... .. 7 ... ... ... : ... .. . ... ... ... : ... .. . ... : ... .. B ... : ... .. . ... ... : ... .. . ... ... : ... .. 9 ... ... : ... .. D ... ...
ROW CC : ... .. . ... ... ... : ... .. . ... ... ... : ... .. . ... : ... .. . ... : ... .. . ... ... : ... .. 5 ... ... : ... .. . ... ... : ... .. 8 ... ...
ROW CD : ... .. 6 ... ... ... : ... .. . ... ... ... : ... .. . ... : ... .. A ... : ... .. . ... ... : ... .. 4 ... ... : ... .. 6 ... ... : ... .. . ... ...
ROW CE : ... .. 5 ... ... ... : ... .. . ... ... ... : --- .. . ... : ... .. 8 ... : ... .. . ... ... : ... .. . ... ... : ... .. 3 ... ... : ... .. 4 ... ...
ROW CF : ... .. 4 ... ... ... : ... .. . ... ... ... : ... .. . ... : ... .. 7 ... : ... .. . ... ... : ... .. . ... ... : ... .. . ... ... : ... .. . ... ...
ROW D0 : B-4 00 8 ... ... ... : C-6 00 F ... ... ... : B-1 00 . ... : 1-# 00 F ... : ... .. . ... ... : F#2 01 6 ... ... : B-3 01 A ... ... : B-1 01 F ... ...
ROW D1 : ... .. 7 ... ... ... : ... .. E ... ... ... : ... .. . ... : ... .. C ... : ... .. . ... ... : ... .. . ... ... : ... .. 9 ... ... : ... .. D ... ...
ROW D2 : ... .. . ... ... ... : ... .. D ... ... ... : ... .. . ... : ... .. 6 ... : ... .. . ... ... : ... .. 5 ... ... : ... .. . ... ... : ... .. 8 ... ...
ROW D3 : ... .. 6 ... ... ... : ... .. A ... ... ... : ... .. . ... : ... .. 3 ... : ... .. . ... ... : ... .. 4 ... ... : ... .. 8 ... ... : ... .. . ... ...
ROW D4 : ... .. 5 ... ... ... : ... .. . ... ... ... : --- .. . ... : ... .. 2 ... : ... .. . ... ... : ... .. . ... ... : ... .. 7 ... ... : ... .. . ... ...
ROW D5 : ... .. 4 ... ... ... : ... .. . ... ... ... : ... .. . ... : ... .. 0 ... : ... .. . ... ... : ... .. . ... ... : ... .. . ... ... : ... .. . ... ...
ROW D6 : C-5 00 8 ... ... ... : ... .. . ... ... ... : B-1 00 . ... : ... .. F ... : ... .. . ... ... : G-2 01 6 ... ... : ... .. 6 ... ... : ... .. . ... ...
ROW D7 : ... .. 7 ... ... ... : ... .. . ... ... ... : ... .. . ... : ... .. C ... : ... .. . ... ... : ... .. . ... ... : ... .. . ... ... : ... .. . ... ...
ROW D8 : ... .. . ... ... ... : ... .. . ... ... ... : ... .. . ... : ... .. 6 ... : ... .. . ... ... : ... .. 5 ... ... : ... .. . ... ... : ... .. . ... ...
ROW D9 : ... .. 6 ... ... ... : ... .. . ... ... ... : ... .. . ... : ... .. 3 ... : ... .. . ... ... : ... .. 4 ... ... : ... .. . ... ... : ... .. . ... ...
ROW DA : ... .. 5 ... ... ... : ... .. . ... ... ... : --- .. . ... : ... .. 2 ... : ... .. . ... ... : ... .. . ... ... : ... .. 3 ... ... : ... .. 4 ... ...
ROW DB : ... .. 4 ... ... ... : ... .. . ... ... ... : ... .. . ... : ... .. 0 ... : ... .. . ... ... : ... .. . ... ... : ... .. . ... ... : ... .. . ... ...
ROW DC : B-4 00 8 ... ... ... : ... .. 9 ... ... ... : B-1 00 . ... : D-# 00 F ... : ... .. . ... ... : A-2 01 6 ... ... : F-4 01 A ... ... : F-2 01 F ... ...
ROW DD : ... .. 7 ... ... ... : ... .. . ... ... ... : ... .. . ... : ... .. C ... : ... .. . ... ... : ... .. . ... ... : ... .. 9 ... ... : ... .. D ... ...
ROW DE : ... .. . ... ... ... : ... .. . ... ... ... : ... .. . ... : ... .. 6 ... : ... .. . ... ... : ... .. 5 ... ... : ... .. . ... ... : ... .. 8 ... ...
ROW DF : ... .. 6 ... ... ... : ... .. 8 ... ... ... : ... .. . ... : ... .. 3 ... : ... .. . ... ... : ... .. 4 ... ... : ... .. 8 ... ... : ... .. . ... ...
ROW E0 : ... .. 5 ... ... ... : ... .. . ... ... ... : --- .. . ... : ... .. 2 ... : ... .. . ... ... : ... .. . ... ... : ... .. 7 ... ... : ... .. . ... ...
ROW E1 : ... .. 4 ... ... ... : ... .. . ... ... ... : ... .. . ... : ... .. 0 ... : ... .. . ... ... : ... .. . ... ... : ... .. . ... ... : ... .. . ... ...
ROW E2 : F#4 00 8 ... ... ... : ... .. 7 ... ... ... : B-1 00 . ... : ... .. F ... : ... .. . ... ... : B-2 01 6 ... ... : ... .. 6 ... ... : ... .. . ... ...
ROW E3 : ... .. 7 ... ... ... : ... .. . ... ... ... : ... .. . ... : ... .. C ... : ... .. . ... ... : ... .. . ... ... : ... .. . ... ... : ... .. . ... ...
ROW E4 : ... .. . ... ... ... : ... .. . ... ... ... : ... .. . ... : ... .. 6 ... : ... .. . ... ... : ... .. 5 ... ... : ... .. . ... ... : ... .. . ... ...
ROW E5 : ... .. 6 ... ... ... : ... .. . ... ... ... : ... .. . ... : ... .. 3 ... : ... .. . ... ... : ... .. 4 ... ... : ... .. . ... ... : ... .. . ... ...
ROW E6 : ... .. 5 ... ... ... : ... .. . ... ... ... : --- .. . ... : ... .. 2 ... : ... .. . ... ... : ... .. . ... ... : ... .. 3 ... ... : ... .. 4 ... ...
ROW E7 : ... .. 4 ... ... ... : ... .. . ... ... ... : ... .. . ... : ... .. 0 ... : ... .. . ... ... : ... .. . ... ... : ... .. . ... ... : ... .. . ... ...
ROW E8 : F-4 00 8 ... ... ... : ... .. . ... ... ... : B-1 00 . ... : 6-# 00 F ... : ... .. . ... ... : C-3 01 6 ... ... : E-4 01 A ... ... : E-2 01 F ... ...
ROW E9 : ... .. 7 ... ... ... : ... .. . ... ... ... : ... .. . ... : ... .. C ... : ... .. . ... ... : ... .. . ... ... : ... .. 9 ... ... : ... .. D ... ...
ROW EA : ... .. . ... ... ... : ... .. . ... ... ... : ... .. . ... : ... .. 6 ... : ... .. . ... ... : ... .. 5 ... ... : ... .. . ... ... : ... .. 8 ... ...
ROW EB : ... .. 6 ... ... ... : ... .. 8 ... ... ... : ... .. . ... : ... .. 3 ... : ... .. . ... ... : ... .. 4 ... ... : ... .. 8 ... ... : ... .. . ... ...
ROW EC : ... .. 5 ... ... ... : ... .. . ... ... ... : --- .. . ... : ... .. 2 ... : ... .. . ... ... : ... .. . ... ... : ... .. 7 ... ... : ... .. . ... ...
ROW ED : ... .. 4 ... ... ... : ... .. . ... ... ... : ... .. . ... : ... .. 0 ... : ... .. . ... ... : ... .. . ... ... : ... .. . ... ... : ... .. . ... ...
ROW EE : B-3 00 8 ... ... ... : ... .. . ... ... ... : B-1 00 . ... : F-# 00 D ... : ... .. . ... ... : D-3 01 6 ... ... : ... .. 6 ... ... : ... .. . ... ...
ROW EF : ... .. 7 ... ... ... : ... .. . ... ... ... : ... .. . ... : ... .. B ... : ... .. . ... ... : ... .. . ... ... : ... .. . ... ... : ... .. . ... ...
ROW F0 : ... .. . ... ... ... : ... .. . ... ... ... : ... .. . ... : ... .. . ... : ... .. . ... ... : ... .. 5 ... ... : ... .. . ... ... : ... .. . ... ...
ROW F1 : ... .. 6 ... ... ... : ... .. . ... ... ... : ... .. . ... : ... .. A ... : ... .. . ... ... : ... .. 4 ... ... : ... .. . ... ... : ... .. . ... ...
ROW F2 : ... .. 5 ... ... ... : ... .. . ... ... ... : --- .. . ... : ... .. 8 ... : ... .. . ... ... : ... .. . ... ... : ... .. 3 ... ... : ... .. 4 ... ...
ROW F3 : ... .. 4 ... ... ... : ... .. . ... ... ... : ... .. . ... : ... .. 7 ... : ... .. . ... ... : ... .. . ... ... : ... .. . ... ... : ... .. . ... ...
ROW F4 : A-3 00 8 ... ... ... : ... .. . P81 ... ... : B-1 00 . ... : 5-# 00 D ... : ... .. . ... ... : B-2 01 6 ... ... : D-4 01 A ... ... : D-2 01 F ... ...
ROW F5 : ... .. 7 ... ... ... : C#6 00 8 P7F ... ... : ... .. . ... : ... .. B ... : ... .. . ... ... : ... .. . ... ... : ... .. 9 ... ... : ... .. D ... ...
ROW F6 : ... .. . ... ... ... : ... .. . ... ... ... : ... .. . ... : ... .. . ... : ... .. . ... ... : ... .. 5 ... ... : ... .. . ... ... : ... .. 8 ... ...
ROW F7 : ... .. 6 ... ... ... : C-6 00 8 P80 ... ... : ... .. . ... : ... .. A ... : ... .. . ... ... : ... .. 4 ... ... : ... .. 8 ... ... : ... .. . ... ...
ROW F8 : ... .. 5 ... ... ... : ... .. . ... ... ... : --- .. . ... : ... .. 8 ... : ... .. . ... ... : ... .. . ... ... : ... .. 7 ... ... : ... .. . ... ...
ROW F9 : ... .. 4 ... ... ... : B-5 00 8 P82 ... ... : ... .. . ... : ... .. 7 ... : ... .. . ... ... : ... .. . ... ... : ... .. . ... ... : ... .. . ... ...
ROW FA : B-3 00 8 ... ... ... : ... .. 9 ... ... ... : B-1 00 . ... : 0-# 00 F ... : ... .. . ... ... : C-3 01 6 ... ... : ... .. 6 ... ... : ... .. . ... ...
ROW FB : ... .. 7 ... ... ... : C-6 00 9 P7F ... ... : ... .. . ... : ... .. C ... : ... .. . ... ... : ... .. . ... ... : ... .. . ... ... : ... .. . ... ...
ROW FC : ... .. . ... ... ... : ... .. . P80 ... ... : ... .. . ... : ... .. 6 ... : ... .. . ... ... : ... .. 5 ... ... : ... .. . ... ... : ... .. . ... ...
ROW FD : ... .. 6 ... ... ... : ... .. . P81 ... ... : ... .. . ... : ... .. 3 ... : ... .. . ... ... : ... .. 4 ... ... : ... .. . ... ... : ... .. . ... ...
ROW FE : ... .. 5 ... ... ... : C#6 00 9 P7F ... ... : --- .. . ... : ... .. 2 ... : ... .. . ... ... : ... .. . ... ... : ... .. 3 ... ... : ... .. 4 ... ...
ROW FF : ... .. 4 ... ... ... : ... .. . ... ... ... : ... .. . ... : ... .. 0 ... : ... .. . ... ... : ... .. . ... ... : ... .. . ... ... : ... .. . ... ...

PATTERN 15
ROW 00 : F-4 00 8 ... ... ... : C-6 00 9 P80 ... ... : B-1 00 . ... : C-# 00 F ... : ... .. . ... ... : D-3 01 6 ... ... : B-3 01 A ... ... : B-1 01 F ... ...
ROW 01 : ... .. 7 ... ... ... : ... .. . ... ... ... : ... .. . ... : ... .. C ... : ... .. . ... ... : ... .. . ... ... : ... .. 9 ... ... : ... .. D ... ...
ROW 02 : ... .. . ... ... ... : ... .. . P7F ... ... : ... .. . ... : ... .. 6 ... : ... .. . ... ... : ... .. 5 ... ... : ... .. . ... ... : ... .. 8 ... ...
ROW 03 : ... .. 6 ... ... ... : B-5 00 A P82 ... ... : ... .. . ... : ... .. 3 ... : ... .. . ... ... : ... .. 4 ... ... : ... .. 8 ... ... : ... .. . ... ...
ROW 04 : ... .. 5 ... ... ... : C-6 00 A P7F ... ... : --- .. . ... : ... .. 2 ... : ... .. . ... ... : ... .. . ... ... : ... .. 7 ... ... : ... .. . ... ...
ROW 05 : ... .. 4 ... ... ... : ... .. . P80 ... ... : ... .. . ... : ... .. 0 ... : ... .. . ... ... : ... .. . ... ... : ... .. . ... ... : ... .. . ... ...
ROW 06 : A-4 00 8 ... ... ... : ... .. . P81 ... ... : B-1 00 . ... : E-# 00 F ... : ... .. . ... ... : D#3 01 6 ... ... : ... .. 6 ... ... : ... .. . ... ...
ROW 07 : ... .. 7 ... ... ... : C#6 00 A P7F ... ... : ... .. . ... : ... .. C ... : ... .. . ... ... : ... .. . ... ... : ... .. . ... ... : ... .. . ... ...
ROW 08 : ... .. . ... ... ... : ... .. . ... ... ... : ... .. . ... : ... .. 6 ... : ... .. . ... ... : ... .. 5 ... ... : ... .. . ... ... : ... .. . ... ...
ROW 09 : ... .. 6 ... ... ... : C-6 00 A P81 ... ... : ... .. . ... : ... .. 3 ... : ... .. . ... ... : ... .. 4 ... ... : ... .. . ... ... : ... .. . ... ...
ROW 0A : ... .. 5 ... ... ... : ... .. . P80 ... ... : --- .. . ... : ... .. 2 ... : ... .. . ... ... : ... .. . ... ... : ... .. . ... ... : ... .. . ... ...
ROW 0B : ... .. 4 ... ... ... : ... .. . P7F ... ... : ... .. . ... : ... .. 0 ... : ... .. . ... ... : ... .. . ... ... : ... .. . ... ... : ... .. . ... ...
ROW 0C : B-4 00 8 ... ... ... : B-5 00 A P82 ... ... : B-1 00 . ... : 8-# 00 F ... : ... .. . ... ... : F-3 01 6 ... ... : ... .. . ... ... : ... .. . ... ...
ROW 0D : ... .. 7 ... ... ... : C-6 00 A P7F ... ... : ... .. . ... : ... .. C ... : ... .. . ... ... : ... .. . ... ... : ... .. . ... ... : ... .. . ... ...
ROW 0E : ... .. . ... ... ... : ... .. . P80 ... ... : ... .. . ... : ... .. 6 ... : ... .. . ... ... : ... .. 5 ... ... : ... .. . ... ... : ... .. . ... ...
ROW 0F : ... .. 6 ... ... ... : ... .. . ... ... ... : ... .. . ... : ... .. 3 ... : ... .. . ... ... : ... .. 4 ... ... : ... .. . ... ... : ... .. . ... ...
ROW 10 : ... .. 5 ... ... ... : C#6 00 A P7F ... ... : --- .. . ... : ... .. 2 ... : ... .. . ... ... : ... .. . ... ... : ... .. . ... ... : ... .. . ... ...
ROW 11 : ... .. 4 ... ... ... : ... .. . ... ... ... : ... .. . ... : ... .. 0 ... : ... .. . ... ... : ... .. . ... ... : ... .. . ... ... : ... .. . ... ...
ROW 12 : C-5 00 8 ... ... ... : C-6 00 A P81 ... ... : B-1 00 . ... : ... .. F ... : ... .. . ... ... : F#3 01 6 ... ... : ... .. . ... ... : ... .. . ... ...
ROW 13 : ... .. 7 ... ... ... : ... .. 2 P80 ... ... : ... .. . ... : ... .. C ... : ... .. . ... ... : ... .. . ... ... : ... .. . ... ... : ... .. . ... ...
ROW 14 : ... .. . ... ... ... : ... .. . P7F ... ... : ... .. . ... : ... .. 6 ... : ... .. . ... ... : ... .. 5 ... ... : ... .. . ... ... : ... .. . ... ...
ROW 15 : ... .. 6 ... ... ... : B-5 00 2 P82 ... ... : ... .. . ... : ... .. 3 ... : ... .. . ... ... : ... .. 4 ... ... : ... .. . ... ... : ... .. . ... ...
ROW 16 : ... .. 5 ... ... ... : ... .. 1 ... ... ... : --- .. . ... : ... .. 2 ... : ... .. . ... ... : ... .. . ... ... : ... .. 3 ... ... : ... .. 4 ... ...
ROW 17 : ... .. 4 ... ... ... : C-6 00 1 P80 ... ... : ... .. . ... : ... .. 0 ... : ... .. . ... ... : ... .. . ... ... : ... .. . ... ... : ... .. . ... ...
ROW 18 : F-4 00 A ... ... ... : F-5 00 F ... ... ... : C#5 00 . ... : D-# 00 F ... : ... .. . ... ... : F#2 01 6 ... ... : D-4 01 A ... ... : D-2 01 F ... ...
ROW 19 : ... .. 9 ... ... ... : ... .. E ... ... ... : D#4 00 . ... : ... .. . ... : ... .. . ... ... : ... .. . ... ... : ... .. 9 ... ... : ... .. D ... ...
ROW 1A : ... .. 8 ... ... ... : ... .. D ... ... ... : G#3 00 . ... : ... .. . ... : ... .. . ... ... : ... .. 5 ... ... : ... .. . ... ... : ... .. 8 ... ...
ROW 1B : ... .. 6 ... ... ... : ... .. A ... ... ... : G-3 00 . ... : C-# 00 D ... : ... .. . ... ... : ... .. 4 ... ... : --- .. . ... ... : --- .. . ... ...
ROW 1C : ... .. 1 ... ... ... : ... .. 2 ... ... ... : D-3 00 . ... : ... .. . ... : ... .. . ... ... : ... .. . ... ... : ... .. . ... ... : ... .. . ... ...
ROW 1D : ... .. . ... ... ... : ... .. . ... ... ... : ... .. . ... : ... .. . ... : ... .. . ... ... : ... .. . ... ... : ... .. . ... ... : ... .. . ... ...
ROW 1E : D-4 00 A ... ... ... : D-5 00 F ... ... ... : D-2 00 . ... : B-# 00 B ... : ... .. . ... ... : G-2 01 6 ... ... : D-4 01 A ... ... : D-2 01 F ... ...
ROW 1F : ... .. 9 ... ... ... : ... .. E ... ... ... : ... .. . ... : ... .. . ... : ... .. . ... ... : ... .. . ... ... : ... .. 9 ... ... : ... .. D ... ...
ROW 20 : ... .. 8 ... ... ... : ... .. D ... ... ... : ... .. . ... : ... .. . ... : ... .. . ... ... : ... .. 5 ... ... : ... .. . ... ... : ... .. 8 ... ...
ROW 21 : ... .. 6 ... ... ... : ... .. A ... ... ... : ... .. . ... : ... .. 9 ... : ... .. . ... ... : ... .. 4 ... ... : ... .. 8 ... ... : ... .. . ... ...
ROW 22 : ... .. 1 ... ... ... : ... .. 2 ... ... ... : --- .. . ... : ... .. . ... : ... .. . ... ... : ... .. . ... ... : ... .. 7 ... ... : ... .. . ... ...
ROW 23 : ... .. . ... ... ... : ... .. . ... ... ... : ... .. . ... : ... .. . ... : ... .. . ... ... : ... .. . ... ... : ... .. . ... ... : ... .. . ... ...
ROW 24 : A-3 00 A ... ... ... : A-4 00 F ... ... ... : D-2 00 . ... : ... .. 7 ... : ... .. . ... ... : A-2 01 6 ... ... : --- .. . ... ... : --- .. . ... ...
ROW 25 : ... .. 9 ... ... ... : ... .. E ... ... ... : ... .. . ... : ... .. . ... : ... .. . ... ... : ... .. . ... ... : ... .. . ... ... : ... .. . ... ...
ROW 26 : ... .. 8 ... ... ... : ... .. D ... ... ... : ... .. . ... : ... .. . ... : ... .. . ... ... : ... .. 5 ... ... : ... .. . ... ... : ... .. . ... ...
ROW 27 : ... .. 6 ... ... ... : ... .. A ... ... ... : ... .. . ... : ... .. 5 ... : ... .. . ... ... : ... .. 4 ... ... : ... .. . ... ... : ... .. . ... ...
ROW 28 : ... .. 1 ... ... ... : ... .. 2 ... ... ... : --- .. . ... : ... .. . ... : ... .. . ... ... : ... .. . ... ... : ... .. . ... ... : ... .. . ... ...
ROW 29 : ... .. . ... ... ... : ... .. . ... ... ... : ... .. . ... : ... .. . ... : ... .. . ... ... : ... .. . ... ... : ... .. . ... ... : ... .. . ... ...
ROW 2A : F-3 00 A ... ... ... : F-4 00 F ... ... ... : C#5 00 . ... : 5-# 00 D ... : ... .. . ... ... : B-2 01 6 ... ... : D-4 01 A ... ... : D-2 01 F ... ...
ROW 2B : ... .. 9 ... ... ... : ... .. E ... ... ... : D#4 00 . ... : ... .. B ... : ... .. . ... ... : ... .. . ... ... : ... .. 9 ... ... : ... .. D ... ...
ROW 2C : ... .. 8 ... ... ... : ... .. D ... ... ... : G#3 00 . ... : ... .. . ... : ... .. . ... ... : ... .. 5 ... ... : ... .. . ... ... : ... .. 8 ... ...
ROW 2D : ... .. 6 ... ... ... : ... .. A ... ... ... : G-3 00 . ... : ... .. A ... : ... .. . ... ... : ... .. 4 ... ... : --- .. . ... ... : --- .. . ... ...
ROW 2E : ... .. 1 ... ... ... : ... .. 2 ... ... ... : D-3 00 . ... : ... .. 8 ... : ... .. . ... ... : ... .. . ... ... : ... .. . ... ... : ... .. . ... ...
ROW 2F : ... .. . ... ... ... : ... .. . ... ... ... : ... .. . ... : ... .. 7 ... : ... .. . ... ... : ... .. . ... ... : ... .. . ... ... : ... .. . ... ...
ROW 30 : D-3 00 A ... ... ... : D-4 00 F ... ... ... : D-2 00 . ... : 1-# 00 F ... : ... .. . ... ... : C-3 01 6 ... ... : D-4 01 A ... ... : D-2 01 F ... ...
ROW 31 : ... .. 9 ... ... ... : ... .. E ... ... ... : ... .. . ... : ... .. C ... : ... .. . ... ... : ... .. . ... ... : ... .. 9 ... ... : ... .. D ... ...
ROW 32 : ... .. 8 ... ... ... : ... .. D ... ... ... : ... .. . ... : ... .. 6 ... : ... .. . ... ... : ... .. 5 ... ... : ... .. . ... ... : ... .. 8 ... ...
ROW 33 : ... .. 6 ... ... ... : ... .. A ... ... ... : ... .. . ... : ... .. 3 ... : ... .. . ... ... : ... .. 4 ... ... : ... .. 8 ... ... : ... .. . ... ...
ROW 34 : ... .. 1 ... ... ... : ... .. 2 ... ... ... : --- .. . ... : ... .. 2 ... : ... .. . ... ... : ... .. . ... ... : ... .. 7 ... ... : ... .. . ... ...
ROW 35 : ... .. . ... ... ... : ... .. . ... ... ... : ... .. . ... : ... .. 0 ... : ... .. . ... ... : ... .. . ... ... : ... .. . ... ... : ... .. . ... ...
ROW 36 : A-2 00 A ... ... ... : A-3 00 F ... ... ... : D-2 00 . ... : ... .. F ... : ... .. . ... ... : D-3 01 6 ... ... : --- .. . ... ... : --- .. . ... ...
ROW 37 : ... .. 9 ... ... ... : ... .. E ... ... ... : ... .. . ... : ... .. C ... : ... .. . ... ... : ... .. . ... ... : ... .. . ... ... : ... .. . ... ...
ROW 38 : ... .. 8 ... ... ... : ... .. D ... ... ... : ... .. . ... : ... .. 6 ... : ... .. . ... ... : ... .. 5 ... ... : ... .. . ... ... : ... .. . ... ...
ROW 39 : ... .. 6 ... ... ... : ... .. A ... ... ... : ... .. . ... : ... .. 3 ... : ... .. . ... ... : ... .. 4 ... ... : ... .. . ... ... : ... .. . ... ...
ROW 3A : ... .. 1 ... ... ... : ... .. 2 ... ... ... : --- .. . ... : ... .. 2 ... : ... .. . ... ... : ... .. . ... ... : ... .. . ... ... : ... .. . ... ...
ROW 3B : ... .. . ... ... ... : ... .. . ... ... ... : ... .. . ... : ... .. 0 ... : ... .. . ... ... : ... .. . ... ... : ... .. . ... ... : ... .. . ... ...
ROW 3C : A#2 00 A ... ... ... : A#3 00 F ... ... ... : A-4 00 . ... : D-# 00 F ... : ... .. . ... ... : B-2 01 6 ... ... : A#3 01 A ... ... : A#1 01 F ... ...
ROW 3D : ... .. 9 ... ... ... : ... .. E ... ... ... : B-3 00 . ... : ... .. . ... : ... .. . ... ... : ... .. . ... ... : ... .. 9 ... ... : ... .. D ... ...
ROW 3E : ... .. 8 ... ... ... : ... .. D ... ... ... : E-3 00 . ... : ... .. . ... : ... .. . ... ... : ... .. 5 ... ... : ... .. . ... ... : ... .. 8 ... ...
ROW 3F : ... .. 6 ... ... ... : ... .. A ... ... ... : D#3 00 . ... : C-# 00 D ... : ... .. . ... ... : ... .. 4 ... ... : --- .. . ... ... : --- .. . ... ...
ROW 40 : ... .. 1 ... ... ... : ... .. 2 ... ... ... : A#2 00 . ... : ... .. . ... : ... .. . ... ... : ... .. . ... ... : ... .. . ... ... : ... .. . ... ...
ROW 41 : ... .. . ... ... ... : ... .. . ... ... ... : ... .. . ... : ... .. . ... : ... .. . ... ... : ... .. . ... ... : ... .. . ... ... : ... .. . ... ...
ROW 42 : C#3 00 A ... ... ... : C#4 00 F ... ... ... : A#1 00 . ... : B-# 00 B ... : ... .. . ... ... : C-3 01 6 ... ... : A#3 01 A ... ... : A#1 01 F ... ...
ROW 43 : ... .. 9 ... ... ... : ... .. E ... ... ... : ... .. . ... : ... .. . ... : ... .. . ... ... : ... .. . ... ... : ... .. 9 ... ... : ... .. D ... ...
ROW 44 : ... .. 8 ... ... ... : ... .. D ... ... ... : ... .. . ... : ... .. . ... : ... .. . ... ... : ... .. 5 ... ... : ... .. . ... ... : ... .. 8 ... ...
ROW 45 : ... .. 6 ... ... ... : ... .. A ... ... ... : ... .. . ... : ... .. 9 ... : ... .. . ... ... : ... .. 4 ... ... : ... .. 8 ... ... : ... .. . ... ...
ROW 46 : ... .. 1 ... ... ... : ... .. 2 ... ... ... : --- .. . ... : ... .. . ... : ... .. . ... ... : ... .. . ... ... : ... .. 7 ... ... : ... .. . ... ...
ROW 47 : ... .. . ... ... ... : ... .. . ... ... ... : ... .. . ... : ... .. . ... : ... .. . ... ... : ... .. . ... ... : ... .. . ... ... : ... .. . ... ...
ROW 48 : F-3 00 A ... ... ... : F-4 00 F ... ... ... : A#1 00 . ... : ... .. 7 ... : ... .. . ... ... : D-3 01 6 ... ... : --- .. . ... ... : --- .. . ... ...
ROW 49 : ... .. 9 ... ... ... : ... .. E ... ... ... : ... .. . ... : ... .. . ... : ... .. . ... ... : ... .. . ... ... : ... .. . ... ... : ... .. . ... ...
ROW 4A : ... .. 8 ... ... ... : ... .. D ... ... ... : ... .. . ... : ... .. . ... : ... .. . ... ... : ... .. 5 ... ... : ... .. . ... ... : ... .. . ... ...
ROW 4B : ... .. 6 ... ... ... : ... .. A ... ... ... : ... .. . ... : ... .. 5 ... : ... .. . ... ... : ... .. 4 ... ... : ... .. . ... ... : ... .. . ... ...
ROW 4C : ... .. 1 ... ... ... : ... .. 2 ... ... ... : --- .. . ... : ... .. . ... : ... .. . ... ... : ... .. . ... ... : ... .. . ... ... : ... .. . ... ...
ROW 4D : ... .. . ... ... ... : ... .. . ... ... ... : ... .. . ... : ... .. . ... : ... .. . ... ... : ... .. . ... ... : ... .. . ... ... : ... .. . ... ...
ROW 4E : A#3 00 A ... ... ... : A#4 00 F ... ... ... : A-4 00 . ... : D-# 00 F ... : ... .. . ... ... : D#3 01 6 ... ... : A#3 01 A ... ... : A#1 01 F ... ...
ROW 4F : ... .. 9 ... ... ... : ... .. E ... ... ... : B-3 00 . ... : ... .. C ... : ... .. . ... ... : ... .. . ... ... : ... .. 9 ... ... : ... .. D ... ...
ROW 50 : ... .. 8 ... ... ... : ... .. D ... ... ... : E-3 00 . ... : ... .. 6 ... : ... .. . ... ... : ... .. 5 ... ... : ... .. . ... ... : ... .. 8 ... ...
ROW 51 : ... .. 6 ... ... ... : ... .. A ... ... ... : D#3 00 . ... : ... .. 3 ... : ... .. . ... ... : ... .. 4 ... ... : --- .. . ... ... : --- .. . ... ...
ROW 52 : ... .. 1 ... ... ... : ... .. 2 ... ... ... : A#2 00 . ... : ... .. 2 ... : ... .. . ... ... : ... .. . ... ... : ... .. . ... ... : ... .. . ... ...
ROW 53 : ... .. . ... ... ... : ... .. . ... ... ... : ... .. . ... : ... .. 0 ... : ... .. . ... ... : ... .. . ... ... : ... .. . ... ... : ... .. . ... ...
ROW 54 : C#4 00 A ... ... ... : C#5 00 F ... ... ... : A#1 00 . ... : B-# 00 F ... : ... .. . ... ... : F-3 01 6 ... ... : A#3 01 A ... ... : A#1 01 F ... ...
ROW 55 : ... .. 9 ... ... ... : ... .. E ... ... ... : ... .. . ... : ... .. C ... : ... .. . ... ... : ... .. . ... ... : ... .. 9 ... ... : ... .. D ... ...
ROW 56 : ... .. 8 ... ... ... : ... .. D ... ... ... : ... .. . ... : ... .. 6 ... : ... .. . ... ... : ... .. 5 ... ... : ... .. . ... ... : ... .. 8 ... ...
ROW 57 : ... .. 6 ... ... ... : ... .. A ... ... ... : ... .. . ... : ... .. 3 ... : ... .. . ... ... : ... .. 4 ... ... : ... .. 8 ... ... : ... .. . ... ...
ROW 58 : ... .. 1 ... ... ... : ... .. 2 ... ... ... : --- .. . ... : ... .. 2 ... : ... .. . ... ... : ... .. . ... ... : ... .. 7 ... ... : ... .. . ... ...
ROW 59 : ... .. . ... ... ... : ... .. . ... ... ... : ... .. . ... : ... .. 0 ... : ... .. . ... ... : ... .. . ... ... : ... .. . ... ... : ... .. . ... ...
ROW 5A : F-4 00 A ... ... ... : F-5 00 F ... ... ... : A#1 00 . ... : 8-# 00 F ... : ... .. . ... ... : F#3 01 6 ... ... : --- .. . ... ... : --- .. . ... ...
ROW 5B : ... .. 9 ... ... ... : ... .. E ... ... ... : ... .. . ... : ... .. C ... : ... .. . ... ... : ... .. . ... ... : ... .. . ... ... : ... .. . ... ...
ROW 5C : ... .. 8 ... ... ... : ... .. D ... ... ... : ... .. . ... : ... .. 6 ... : ... .. . ... ... : ... .. 5 ... ... : ... .. . ... ... : ... .. . ... ...
ROW 5D : ... .. 6 ... ... ... : ... .. A ... ... ... : ... .. . ... : ... .. 3 ... : ... .. . ... ... : ... .. 4 ... ... : ... .. . ... ... : ... .. . ... ...
ROW 5E : ... .. 1 ... ... ... : ... .. 2 ... ... ... : --- .. . ... : ... .. 2 ... : ... .. . ... ... : ... .. . ... ... : ... .. . ... ... : ... .. . ... ...
ROW 5F : ... .. . ... ... ... : ... .. . ... ... ... : ... .. . ... : ... .. 0 ... : ... .. . ... ... : ... .. . ... ... : ... .. . ... ... : ... .. . ... ...
ROW 60 : B-4 00 8 ... ... ... : F#4 00 9 ... ... ... : A#3 00 . ... : D-# 00 F ... : ... .. . ... ... : F#2 01 5 ... ... : B-3 01 5 ... V03 : B-1 01 F ... ...
ROW 61 : ... .. 7 ... ... ... : ... .. 8 ... ... ... : C-3 00 . ... : ... .. . ... : ... .. . ... ... : ... .. 4 ... ... : ... .. 4 ... ... : ... .. D ... ...
ROW 62 : ... .. . ... ... ... : ... .. 7 ... ... ... : F-2 00 . ... : ... .. . ... : ... .. . ... ... : ... .. . ... ... : ... .. . ... ... : ... .. 8 ... ...
ROW 63 : ... .. 6 ... ... ... : ... .. 6 ... ... ... : E-2 00 . ... : C-# 00 D ... : ... .. . ... ... : ... .. 3 ... ... : ... .. 3 ... ... : ... .. . ... ...
ROW 64 : ... .. 5 ... ... ... : ... .. . ... ... ... : B-1 00 . ... : ... .. . ... : ... .. . ... ... : ... .. . ... ... : ... .. . ... ... : ... .. . ... ...
ROW 65 : ... .. 4 ... ... ... : ... .. . ... ... ... : ... .. . ... : ... .. . ... : ... .. . ... ... : ... .. . ... ... : ... .. . ... ... : ... .. . ... ...
ROW 66 : C-5 00 8 ... ... ... : ... .. . ... ... ... : ... .. . ... : B-# 00 B ... : ... .. . ... ... : G-2 01 5 ... ... : C-4 01 5 ... ... : ... .. . ... ...
ROW 67 : ... .. 7 ... ... ... : ... .. . ... ... ... : ... .. . ... : ... .. . ... : ... .. . ... ... : ... .. 4 ... ... : ... .. 4 ... ... : ... .. . ... ...
ROW 68 : ... .. . ... ... ... : ... .. . ... ... ... : ... .. . ... : ... .. . ... : ... .. . ... ... : ... .. . ... ... : ... .. . ... ... : ... .. . ... ...
ROW 69 : ... .. 6 ... ... ... : ... .. . ... ... ... : ... .. . ... : ... .. 9 ... : ... .. . ... ... : ... .. 3 ... ... : ... .. 3 ... ... : ... .. . ... ...
ROW 6A : ... .. 5 ... ... ... : ... .. . ... ... ... : --- .. . ... : ... .. . ... : ... .. . ... ... : ... .. . ... ... : ... .. . ... ... : ... .. 4 ... ...
ROW 6B : ... .. 4 ... ... ... : ... .. . ... ... ... : ... .. . ... : ... .. . ... : ... .. . ... ... : ... .. . ... ... : ... .. . ... ... : ... .. . ... ...
ROW 6C : B-4 00 8 ... ... ... : ... .. . ... ... ... : B-1 00 . ... : ... .. 7 ... : ... .. . ... ... : A-2 01 5 ... ... : A-3 01 5 ... ... : F-2 01 F ... ...
ROW 6D : ... .. 7 ... ... ... : ... .. . ... ... ... : ... .. . ... : ... .. . ... : ... .. . ... ... : ... .. 4 ... ... : ... .. 4 ... ... : ... .. D ... ...
ROW 6E : ... .. . ... ... ... : ... .. . ... ... ... : ... .. . ... : ... .. . ... : ... .. . ... ... : ... .. . ... ... : ... .. . ... ... : ... .. 8 ... ...
ROW 6F : ... .. 6 ... ... ... : ... .. 7 ... ... ... : ... .. . ... : ... .. 5 ... : ... .. . ... ... : ... .. 3 ... ... : ... .. 3 ... ... : ... .. . ... ...
ROW 70 : ... .. 5 ... ... ... : ... .. . ... ... ... : --- .. . ... : ... .. . ... : ... .. . ... ... : ... .. . ... ... : ... .. . ... ... : ... .. . ... ...
ROW 71 : ... .. 4 ... ... ... : ... .. . ... ... ... : ... .. . ... : ... .. . ... : ... .. . ... ... : ... .. . ... ... : ... .. . ... ... : ... .. . ... ...
ROW 72 : F#4 00 8 ... ... ... : ... .. . P81 ... ... : B-1 00 . ... : D-# 00 D ... : ... .. . ... ... : B-2 01 5 ... ... : B-3 01 5 ... ... : ... .. . ... ...
ROW 73 : ... .. 7 ... ... ... : ... .. . ... ... ... : ... .. . ... : ... .. B ... : ... .. . ... ... : ... .. 4 ... ... : ... .. 4 ... ... : ... .. . ... ...
ROW 74 : ... .. . ... ... ... : ... .. . ... ... ... : ... .. . ... : ... .. . ... : ... .. . ... ... : ... .. . ... ... : ... .. . ... ... : ... .. . ... ...
ROW 75 : ... .. 6 ... ... ... : ... .. 8 P82 ... ... : ... .. . ... : ... .. A ... : ... .. . ... ... : ... .. 3 ... ... : ... .. 3 ... ... : ... .. . ... ...
ROW 76 : ... .. 5 ... ... ... : ... .. . ... ... ... : --- .. . ... : ... .. 8 ... : ... .. . ... ... : ... .. . ... ... : ... .. . ... ... : ... .. 4 ... ...
ROW 77 : ... .. 4 ... ... ... : ... .. . ... ... ... : ... .. . ... : ... .. 7 ... : ... .. . ... ... : ... .. . ... ... : ... .. . ... ... : ... .. . ... ...
ROW 78 : F-4 00 8 ... ... ... : ... .. . ... ... ... : B-1 00 . ... : 1-# 00 F ... : ... .. . ... ... : C-3 01 5 ... ... : C-4 01 5 ... ... : E-2 01 F ... ...
ROW 79 : ... .. 7 ... ... ... : ... .. . ... ... ... : ... .. . ... : ... .. C ... : ... .. . ... ... : ... .. 4 ... ... : ... .. 4 ... ... : ... .. D ... ...
ROW 7A : ... .. . ... ... ... : ... .. . ... ... ... : ... .. . ... : ... .. 6 ... : ... .. . ... ... : ... .. . ... ... : ... .. . ... ... : ... .. 8 ... ...
ROW 7B : ... .. 6 ... ... ... : ... .. . P83 ... ... : ... .. . ... : ... .. 3 ... : ... .. . ... ... : ... .. 3 ... ... : ... .. 3 ... ... : ... .. . ... ...
ROW 7C : ... .. 5 ... ... ... : ... .. . ... ... ... : --- .. . ... : ... .. 2 ... : ... .. . ... ... : ... .. . ... ... : ... .. . ... ... : ... .. . ... ...
ROW 7D : ... .. 4 ... ... ... : ... .. . ... ... ... : ... .. . ... : ... .. 0 ... : ... .. . ... ... : ... .. . ... ... : ... .. . ... ... : ... .. . ... ...
ROW 7E : B-3 00 8 ... ... ... : ... .. . P84 ... ... : B-1 00 . ... : A-# 00 F ... : ... .. . ... ... : D-3 01 5 ... ... : D-4 01 5 ... ... : ... .. . ... ...
ROW 7F : ... .. 7 ... ... ... : ... .. . ... ... ... : ... .. . ... : ... .. C ... : ... .. . ... ... : ... .. 4 ... ... : ... .. 4 ... ... : ... .. . ... ...
ROW 80 : ... .. . ... ... ... : ... .. . ... ... ... : ... .. . ... : ... .. 6 ... : ... .. . ... ... : ... .. . ... ... : ... .. . ... ... : ... .. . ... ...
ROW 81 : ... .. 6 ... ... ... : G-4 00 9 P7D ... ... : ... .. . ... : ... .. 3 ... : ... .. . ... ... : ... .. 3 ... ... : ... .. 3 ... ... : ... .. . ... ...
ROW 82 : ... .. 5 ... ... ... : ... .. . ... ... ... : --- .. . ... : ... .. 2 ... : ... .. . ... ... : ... .. . ... ... : ... .. . ... ... : ... .. 4 ... ...
ROW 83 : ... .. 4 ... ... ... : ... .. . ... ... ... : ... .. . ... : ... .. 0 ... : ... .. . ... ... : ... .. . ... ... : ... .. . ... ... : ... .. . ... ...
ROW 84 : A-3 00 8 ... ... ... : ... .. . ... ... ... : B-1 00 . ... : 5-# 00 D ... : ... .. . ... ... : B-2 01 5 ... ... : B-3 01 5 ... ... : D-2 01 F ... ...
ROW 85 : ... .. 7 ... ... ... : ... .. . ... ... ... : ... .. . ... : ... .. B ... : ... .. . ... ... : ... .. 4 ... ... : ... .. 4 ... ... : ... .. D ... ...
ROW 86 : ... .. . ... ... ... : ... .. . ... ... ... : ... .. . ... : ... .. . ... : ... .. . ... ... : ... .. . ... ... : ... .. . ... ... : ... .. 8 ... ...
ROW 87 : ... .. 6 ... ... ... : ... .. . P7E ... ... : ... .. . ... : ... .. A ... : ... .. . ... ... : ... .. 3 ... ... : ... .. 3 ... ... : ... .. . ... ...
ROW 88 : ... .. 5 ... ... ... : ... .. . ... ... ... : --- .. . ... : ... .. 8 ... : ... .. . ... ... : ... .. . ... ... : ... .. . ... ... : ... .. . ... ...
ROW 89 : ... .. 4 ... ... ... : ... .. . ... ... ... : ... .. . ... : ... .. 7 ... : ... .. . ... ... : ... .. . ... ... : ... .. . ... ... : ... .. . ... ...
ROW 8A : B-3 00 8 ... ... ... : ... .. A P7F ... ... : B-1 00 . ... : 0-# 00 F ... : ... .. . ... ... : C-3 01 5 ... ... : C-4 01 5 ... ... : ... .. . ... ...
ROW 8B : ... .. 7 ... ... ... : ... .. . ... ... ... : ... .. . ... : ... .. C ... : ... .. . ... ... : ... .. 4 ... ... : ... .. 4 ... ... : ... .. . ... ...
ROW 8C : ... .. . ... ... ... : ... .. . ... ... ... : ... .. . ... : ... .. 6 ... : ... .. . ... ... : ... .. . ... ... : ... .. . ... ... : ... .. . ... ...
ROW 8D : ... .. 6 ... ... ... : ... .. . P80 ... ... : ... .. . ... : ... .. 3 ... : ... .. . ... ... : ... .. 3 ... ... : ... .. 3 ... ... : ... .. . ... ...
ROW 8E : ... .. 5 ... ... ... : ... .. . ... ... ... : --- .. . ... : ... .. 2 ... : ... .. . ... ... : ... .. . ... ... : ... .. . ... ... : ... .. 4 ... ...
ROW 8F : ... .. 4 ... ... ... : ... .. . ... ... ... : ... .. . ... : ... .. 0 ... : ... .. . ... ... : ... .. . ... ... : ... .. . ... ... : ... .. . ... ...
ROW 90 : F-4 00 8 ... ... ... : ... .. . ... ... ... : B-1 00 . ... : D-# 00 F ... : ... .. . ... ... : D-3 01 5 ... ... : A-3 01 5 ... ... : B-1 01 F ... ...
ROW 91 : ... .. 7 ... ... ... : ... .. . ... ... ... : ... .. . ... : ... .. C ... : ... .. . ... ... : ... .. 4 ... ... : ... .. 4 ... ... : ... .. D ... ...
ROW 92 : ... .. . ... ... ... : ... .. . ... ... ... : ... .. . ... : ... .. 0 ... : ... .. . ... ... : ... .. . ... ... : ... .. . ... ... : ... .. 8 ... ...
ROW 93 : ... .. 6 ... ... ... : ... .. . ... ... ... : ... .. . ... : ... .. F ... : ... .. . ... ... : ... .. 3 ... ... : ... .. 3 ... ... : ... .. . ... ...
ROW 94 : ... .. 5 ... ... ... : ... .. . ... ... ... : --- .. . ... : ... .. C ... : ... .. . ... ... : ... .. . ... ... : ... .. . ... ... : ... .. . ... ...
ROW 95 : ... .. 4 ... ... ... : ... .. . ... ... ... : ... .. . ... : ... .. 0 ... : ... .. . ... ... : ... .. . ... ... : ... .. . ... ... : ... .. . ... ...
ROW 96 : A-4 00 8 ... ... ... : ... .. . P84 ... ... : B-1 00 . ... : ... .. F ... : ... .. . ... ... : D#3 01 5 ... ... : B-3 01 5 ... ... : ... .. . ... ...
ROW 97 : ... .. 7 ... ... ... : G#4 00 A P7E ... ... : ... .. . ... : ... .. C ... : ... .. . ... ... : ... .. 4 ... ... : ... .. 4 ... ... : ... .. . ... ...
ROW 98 : ... .. . ... ... ... : ... .. . P7D ... ... : ... .. . ... : ... .. 0 ... : ... .. . ... ... : ... .. . ... ... : ... .. . ... ... : ... .. . ... ...
ROW 99 : ... .. 6 ... ... ... : G-4 00 A P82 ... ... : ... .. . ... : ... .. . ... : ... .. . ... ... : ... .. 3 ... ... : ... .. 3 ... ... : ... .. . ... ...
ROW 9A : ... .. 5 ... ... ... : ... .. . P7E ... ... : --- .. . ... : ... .. . ... : ... .. . ... ... : ... .. . ... ... : ... .. . ... ... : ... .. . ... ...
ROW 9B : ... .. 4 ... ... ... : F#4 00 A P83 ... ... : ... .. . ... : ... .. . ... : ... .. . ... ... : ... .. . ... ... : ... .. . ... ... : ... .. . ... ...
ROW 9C : B-4 00 8 ... ... ... : ... .. . P82 ... ... : B-1 00 . ... : 5-# 00 D ... : ... .. . ... ... : F-3 01 5 ... ... : C-4 01 5 ... ... : ... .. . ... ...
ROW 9D : ... .. 7 ... ... ... : ... .. . P84 ... ... : ... .. . ... : ... .. B ... : ... .. . ... ... : ... .. 4 ... ... : ... .. 4 ... ... : ... .. . ... ...
ROW 9E : ... .. . ... ... ... : G-4 00 A P80 ... ... : ... .. . ... : ... .. . ... : ... .. . ... ... : ... .. . ... ... : ... .. . ... ... : ... .. . ... ...
ROW 9F : ... .. 6 ... ... ... : ... .. . P83 ... ... : ... .. . ... : ... .. A ... : ... .. . ... ... : ... .. 3 ... ... : ... .. 3 ... ... : ... .. . ... ...
ROW A0 : ... .. 5 ... ... ... : G#4 00 A P7E ... ... : --- .. . ... : ... .. 8 ... : ... .. . ... ... : ... .. . ... ... : ... .. . ... ... : ... .. . ... ...
ROW A1 : ... .. 4 ... ... ... : ... .. . ... ... ... : ... .. . ... : ... .. 7 ... : ... .. . ... ... : ... .. . ... ... : ... .. . ... ... : ... .. . ... ...
ROW A2 : C-5 00 8 ... ... ... : G-4 00 A P82 ... ... : B-1 00 . ... : F-# 00 D ... : ... .. . ... ... : F#3 01 5 ... ... : D-4 01 5 ... ... : ... .. . ... ...
ROW A3 : ... .. 7 ... ... ... : ... .. . P7F ... ... : ... .. . ... : ... .. B ... : ... .. . ... ... : ... .. 4 ... ... : ... .. 4 ... ... : ... .. . ... ...
ROW A4 : ... .. . ... ... ... : F#4 00 A P83 ... ... : ... .. . ... : ... .. . ... : ... .. . ... ... : ... .. . ... ... : ... .. . ... ... : ... .. . ... ...
ROW A5 : ... .. 6 ... ... ... : ... .. . P82 ... ... : ... .. . ... : ... .. A ... : ... .. . ... ... : ... .. 3 ... ... : ... .. 3 ... ... : ... .. . ... ...
ROW A6 : ... .. 5 ... ... ... : ... .. . P84 ... ... : --- .. . ... : ... .. 8 ... : ... .. . ... ... : ... .. . ... ... : ... .. . ... ... : ... .. 4 ... ...
ROW A7 : ... .. 4 ... ... ... : G-4 00 A P80 ... ... : ... .. . ... : ... .. 7 ... : ... .. . ... ... : ... .. . ... ... : ... .. . ... ... : ... .. . ... ...
ROW A8 : B-4 00 8 ... ... ... : ... .. . P83 ... ... : B-1 00 . ... : 1-# 00 F ... : ... .. . ... ... : F#2 01 5 ... ... : D#4 01 5 ... ... : ... .. F ... ...
ROW A9 : ... .. 7 ... ... ... : G#4 00 A P7E ... ... : ... .. . ... : ... .. C ... : ... .. . ... ... : ... .. 4 ... ... : ... .. 4 ... ... : ... .. D ... ...
ROW AA : ... .. . ... ... ... : ... .. . ... ... ... : ... .. . ... : ... .. 6 ... : ... .. . ... ... : ... .. . ... ... : ... .. . ... ... : ... .. 8 ... ...
ROW AB : ... .. 6 ... ... ... : G-4 00 A P83 ... ... : ... .. . ... : ... .. 3 ... : ... .. . ... ... : ... .. 3 ... ... : ... .. 3 ... ... : ... .. . ... ...
ROW AC : ... .. 5 ... ... ... : ... .. . P80 ... ... : --- .. . ... : ... .. 2 ... : ... .. . ... ... : ... .. . ... ... : ... .. . ... ... : ... .. . ... ...
ROW AD : ... .. 4 ... ... ... : F#4 00 A P84 ... ... : ... .. . ... : ... .. 0 ... : ... .. . ... ... : ... .. . ... ... : ... .. . ... ... : ... .. . ... ...
ROW AE : C-5 00 8 ... ... ... : ... .. . P82 ... ... : B-1 00 . ... : D-# 00 F ... : ... .. . ... ... : G-2 01 5 ... ... : F-4 01 5 ... ... : ... .. . ... ...
ROW AF : ... .. 7 ... ... ... : ... .. . P83 ... ... : ... .. . ... : ... .. C ... : ... .. . ... ... : ... .. 4 ... ... : ... .. 4 ... ... : ... .. . ... ...
ROW B0 : ... .. . ... ... ... : G-4 00 A P7F ... ... : ... .. . ... : ... .. 6 ... : ... .. . ... ... : ... .. . ... ... : ... .. . ... ... : ... .. . ... ...
ROW B1 : ... .. 6 ... ... ... : ... .. . P82 ... ... : ... .. . ... : ... .. 3 ... : ... .. . ... ... : ... .. 3 ... ... : ... .. 3 ... ... : ... .. . ... ...
ROW B2 : ... .. 5 ... ... ... : G#4 00 A P7E ... ... : --- .. . ... : ... .. 2 ... : ... .. . ... ... : ... .. . ... ... : ... .. . ... ... : ... .. 4 ... ...
ROW B3 : ... .. 4 ... ... ... : ... .. . ... ... ... : ... .. . ... : ... .. 0 ... : ... .. . ... ... : ... .. . ... ... : ... .. . ... ... : ... .. . ... ...
ROW B4 : B-4 00 8 ... ... ... : G-4 00 A P83 ... ... : B-1 00 . ... : ... .. F ... : ... .. . ... ... : A-2 01 5 ... ... : B-3 01 5 ... ... : F-2 01 F ... ...
ROW B5 : ... .. 7 ... ... ... : ... .. . P80 ... ... : ... .. . ... : ... .. C ... : ... .. . ... ... : ... .. 4 ... ... : ... .. 4 ... ... : ... .. D ... ...
ROW B6 : ... .. . ... ... ... : F#4 00 A P84 ... ... : ... .. . ... : ... .. 6 ... : ... .. . ... ... : ... .. . ... ... : ... .. . ... ... : ... .. 8 ... ...
ROW B7 : ... .. 6 ... ... ... : ... .. . P82 ... ... : ... .. . ... : ... .. 3 ... : ... .. . ... ... : ... .. 3 ... ... : ... .. 3 ... ... : ... .. . ... ...
ROW B8 : ... .. 5 ... ... ... : ... .. . P83 ... ... : --- .. . ... : ... .. 2 ... : ... .. . ... ... : ... .. . ... ... : ... .. . ... ... : ... .. . ... ...
ROW B9 : ... .. 4 ... ... ... : G-4 00 A P7E ... ... : ... .. . ... : ... .. 0 ... : ... .. . ... ... : ... .. . ... ... : ... .. . ... ... : ... .. . ... ...
ROW BA : F#4 00 8 ... ... ... : ... .. . P82 ... ... : B-1 00 . ... : 5-# 00 D ... : ... .. . ... ... : B-2 01 5 ... ... : C-4 01 5 ... ... : ... .. . ... ...
ROW BB : ... .. 7 ... ... ... : G#4 00 A P7D ... ... : ... .. . ... : ... .. B ... : ... .. . ... ... : ... .. 4 ... ... : ... .. 4 ... ... : ... .. . ... ...
ROW BC : ... .. . ... ... ... : ... .. . P7E ... ... : ... .. . ... : ... .. . ... : ... .. . ... ... : ... .. . ... ... : ... .. . ... ... : ... .. . ... ...
ROW BD : ... .. 6 ... ... ... : G-4 00 A P84 ... ... : ... .. . ... : ... .. A ... : ... .. . ... ... : ... .. 3 ... ... : ... .. 3 ... ... : ... .. . ... ...
ROW BE : ... .. 5 ... ... ... : ... .. . P80 ... ... : --- .. . ... : ... .. 8 ... : ... .. . ... ... : ... .. . ... ... : ... .. . ... ... : ... .. 4 ... ...
ROW BF : ... .. 4 ... ... ... : ... .. . P7D ... ... : ... .. . ... : ... .. 7 ... : ... .. . ... ... : ... .. . ... ... : ... .. . ... ... : ... .. . ... ...
ROW C0 : F-4 00 8 ... ... ... : F#4 00 A P82 ... ... : B-1 00 . ... : F-# 00 D ... : ... .. . ... ... : C-3 01 5 ... ... : A-3 01 5 ... ... : E-2 01 F ... ...
ROW C1 : ... .. 7 ... ... ... : ... .. . ... ... ... : ... .. . ... : ... .. B ... : ... .. . ... ... : ... .. 4 ... ... : ... .. 4 ... ... : ... .. D ... ...
ROW C2 : ... .. . ... ... ... : G-4 00 A P7E ... ... : ... .. . ... : ... .. . ... : ... .. . ... ... : ... .. . ... ... : ... .. . ... ... : ... .. 8 ... ...
ROW C3 : ... .. 6 ... ... ... : ... .. 9 P81 ... ... : ... .. . ... : ... .. A ... : ... .. . ... ... : ... .. 3 ... ... : ... .. 3 ... ... : ... .. . ... ...
ROW C4 : ... .. 5 ... ... ... : G#4 00 9 P7D ... ... : --- .. . ... : ... .. 8 ... : ... .. . ... ... : ... .. . ... ... : ... .. . ... ... : ... .. . ... ...
ROW C5 : ... .. 4 ... ... ... : ... .. . P7E ... ... : ... .. . ... : ... .. 7 ... : ... .. . ... ... : ... .. . ... ... : ... .. . ... ... : ... .. . ... ...
ROW C6 : B-3 00 8 ... ... ... : G-4 00 9 P84 ... ... : B-1 00 . ... : 1-# 00 F ... : ... .. . ... ... : D-3 01 5 ... ... : B-3 01 5 ... ... : ... .. . ... ...
ROW C7 : ... .. 7 ... ... ... : ... .. . P80 ... ... : ... .. . ... : ... .. C ... : ... .. . ... ... : ... .. 4 ... ... : ... .. 4 ... ... : ... .. . ... ...
ROW C8 : ... .. . ... ... ... : ... .. . P7D ... ... : ... .. . ... : ... .. 6 ... : ... .. . ... ... : ... .. . ... ... : ... .. . ... ... : ... .. . ... ...
ROW C9 : ... .. 6 ... ... ... : ... .. 8 P80 ... ... : ... .. . ... : ... .. 3 ... : ... .. . ... ... : ... .. 3 ... ... : ... .. 3 ... ... : ... .. . ... ...
ROW CA : ... .. 5 ... ... ... : ... .. . ... ... ... : --- .. . ... : ... .. 2 ... : ... .. . ... ... : ... .. . ... ... : ... .. . ... ... : ... .. 4 ... ...
ROW CB : ... .. 4 ... ... ... : ... .. . ... ... ... : ... .. . ... : ... .. 0 ... : ... .. . ... ... : ... .. . ... ... : ... .. . ... ... : ... .. . ... ...
ROW CC : A-3 00 8 ... ... ... : F#4 00 D ... ... ... : B-1 00 . ... : 5-# 00 D ... : ... .. . ... ... : B-2 01 5 ... ... : C-4 01 5 ... ... : D-2 01 F ... ...
ROW CD : ... .. 7 ... ... ... : ... .. C ... ... ... : ... .. . ... : ... .. B ... : ... .. . ... ... : ... .. 4 ... ... : ... .. 4 ... ... : ... .. D ... ...
ROW CE : ... .. . ... ... ... : ... .. B ... ... ... : ... .. . ... : ... .. . ... : ... .. . ... ... : ... .. . ... ... : ... .. . ... ... : ... .. 8 ... ...
ROW CF : ... .. 6 ... ... ... : ... .. 8 ... ... ... : ... .. . ... : ... .. A ... : ... .. . ... ... : ... .. 3 ... ... : ... .. 3 ... ... : ... .. . ... ...
ROW D0 : ... .. 5 ... ... ... : ... .. . ... ... ... : --- .. . ... : ... .. 8 ... : ... .. . ... ... : ... .. . ... ... : ... .. . ... ... : ... .. . ... ...
ROW D1 : ... .. 4 ... ... ... : ... .. . ... ... ... : ... .. . ... : ... .. 7 ... : ... .. . ... ... : ... .. . ... ... : ... .. . ... ... : ... .. . ... ...
ROW D2 : B-3 00 8 ... ... ... : ... .. 9 ... ... ... : B-1 00 . ... : A-# 00 F ... : ... .. . ... ... : C-3 01 5 ... ... : D-4 01 5 ... ... : ... .. . ... ...
ROW D3 : ... .. 7 ... ... ... : ... .. . ... ... ... : ... .. . ... : ... .. C ... : ... .. . ... ... : ... .. 4 ... ... : ... .. 4 ... ... : ... .. . ... ...
ROW D4 : ... .. . ... ... ... : ... .. . ... ... ... : ... .. . ... : ... .. 6 ... : ... .. . ... ... : ... .. . ... ... : ... .. . ... ... : ... .. . ... ...
ROW D5 : ... .. 6 ... ... ... : ... .. . ... ... ... : ... .. . ... : ... .. 3 ... : ... .. . ... ... : ... .. 3 ... ... : ... .. 3 ... ... : ... .. . ... ...
ROW D6 : ... .. 5 ... ... ... : ... .. . ... ... ... : --- .. . ... : ... .. 2 ... : ... .. . ... ... : ... .. . ... ... : ... .. . ... ... : ... .. 4 ... ...
ROW D7 : ... .. 4 ... ... ... : ... .. . ... ... ... : ... .. . ... : ... .. 0 ... : ... .. . ... ... : ... .. . ... ... : ... .. . ... ... : ... .. . ... ...
ROW D8 : F-4 00 8 ... ... ... : ... .. A ... ... ... : B-1 00 . ... : ... .. F ... : ... .. . ... ... : D-3 01 5 ... ... : D#4 01 5 ... ... : F-4 01 F ... ...
ROW D9 : ... .. 7 ... ... ... : ... .. . ... ... ... : ... .. . ... : ... .. C ... : ... .. . ... ... : ... .. 4 ... ... : ... .. 4 ... ... : ... .. D ... ...
ROW DA : ... .. . ... ... ... : ... .. . ... ... ... : ... .. . ... : ... .. 6 ... : ... .. . ... ... : ... .. . ... ... : ... .. . ... ... : ... .. 8 ... ...
ROW DB : ... .. 6 ... ... ... : ... .. . ... ... ... : ... .. . ... : ... .. 3 ... : ... .. . ... ... : ... .. 3 ... ... : ... .. 3 ... ... : ... .. . ... ...
ROW DC : ... .. 5 ... ... ... : ... .. . ... ... ... : --- .. . ... : ... .. 2 ... : ... .. . ... ... : ... .. . ... ... : ... .. . ... ... : ... .. 4 ... ...
ROW DD : ... .. 4 ... ... ... : ... .. . ... ... ... : ... .. . ... : ... .. 0 ... : ... .. . ... ... : ... .. . ... ... : ... .. . ... ... : ... .. . ... ...
ROW DE : A-4 00 8 ... ... ... : ... .. . ... ... ... : B-1 00 . ... : 9-# 00 D ... : ... .. . ... ... : D#3 01 5 ... ... : F-4 01 5 ... ... : B-4 01 F ... ...
ROW DF : ... .. 7 ... ... ... : ... .. . ... ... ... : ... .. . ... : ... .. B ... : ... .. . ... ... : ... .. 4 ... ... : ... .. 4 ... ... : ... .. D ... ...
ROW E0 : ... .. . ... ... ... : ... .. . ... ... ... : ... .. . ... : ... .. . ... : ... .. . ... ... : ... .. . ... ... : ... .. . ... ... : ... .. 8 ... ...
ROW E1 : ... .. 6 ... ... ... : ... .. . ... ... ... : ... .. . ... : ... .. A ... : ... .. . ... ... : ... .. 3 ... ... : ... .. 3 ... ... : ... .. . ... ...
ROW E2 : ... .. 5 ... ... ... : ... .. . ... ... ... : --- .. . ... : ... .. 8 ... : ... .. . ... ... : ... .. . ... ... : ... .. . ... ... : ... .. 4 ... ...
ROW E3 : ... .. 4 ... ... ... : ... .. . ... ... ... : ... .. . ... : ... .. 7 ... : ... .. . ... ... : ... .. . ... ... : ... .. . ... ... : ... .. . ... ...
ROW E4 : B-4 00 8 ... ... ... : ... .. . ... ... ... : B-1 00 . ... : 6-# 00 D ... : ... .. . ... ... : F-3 01 5 ... ... : F#4 01 5 ... ... : B-3 01 F ... ...
ROW E5 : ... .. 7 ... ... ... : ... .. . ... ... ... : ... .. . ... : ... .. B ... : ... .. . ... ... : ... .. 4 ... ... : ... .. 4 ... ... : ... .. D ... ...
ROW E6 : ... .. . ... ... ... : ... .. . ... ... ... : ... .. . ... : ... .. . ... : ... .. . ... ... : ... .. . ... ... : ... .. . ... ... : ... .. 8 ... ...
ROW E7 : ... .. 6 ... ... ... : ... .. . ... ... ... : ... .. . ... : ... .. A ... : ... .. . ... ... : ... .. 3 ... ... : ... .. 3 ... ... : ... .. . ... ...
ROW E8 : ... .. 5 ... ... ... : ... .. . ... ... ... : --- .. . ... : ... .. 8 ... : ... .. . ... ... : ... .. . ... ... : ... .. . ... ... : ... .. 4 ... ...
ROW E9 : ... .. 4 ... ... ... : ... .. . ... ... ... : ... .. . ... : ... .. 7 ... : ... .. . ... ... : ... .. . ... ... : ... .. . ... ... : ... .. . ... ...
ROW EA : C-5 00 8 ... ... ... : ... .. . ... ... ... : B-1 00 . ... : ... .. D ... : ... .. . ... ... : F#3 01 5 ... ... : G#4 01 5 ... ... : B-2 01 F ... ...
ROW EB : ... .. 7 ... ... ... : ... .. . ... ... ... : ... .. . ... : ... .. B ... : ... .. . ... ... : ... .. 4 ... ... : ... .. 4 ... ... : ... .. D ... ...
ROW EC : ... .. . ... ... ... : ... .. . ... ... ... : ... .. . ... : ... .. . ... : ... .. . ... ... : ... .. . ... ... : ... .. . ... ... : ... .. 8 ... ...
ROW ED : ... .. 6 ... ... ... : ... .. . ... ... ... : ... .. . ... : ... .. A ... : ... .. . ... ... : ... .. 3 ... ... : ... .. 3 ... ... : ... .. . ... ...
ROW EE : ... .. 5 ... ... ... : ... .. . ... ... ... : --- .. . ... : ... .. 8 ... : ... .. . ... ... : ... .. . ... ... : ... .. . ... ... : ... .. 4 ... ...
ROW EF : ... .. 4 ... ... ... : ... .. . ... ... ... : ... .. . ... : ... .. 7 ... : ... .. . ... ... : ... .. . ... ... : ... .. . ... ... : ... .. . ... ...
ROW F0 : B-4 00 8 ... ... ... : F-4 00 F ... ... ... : B-1 00 . ... : 1-# 00 F ... : ... .. . ... ... : F#2 01 5 ... ... : A-4 01 5 ... ... : B-1 01 F ... ...
ROW F1 : ... .. 7 ... ... ... : ... .. E ... ... ... : ... .. . ... : ... .. C ... : ... .. . ... ... : ... .. 4 ... ... : ... .. 4 ... ... : ... .. D ... ...
ROW F2 : ... .. . ... ... ... : ... .. D ... ... ... : ... .. . ... : ... .. 6 ... : ... .. . ... ... : ... .. . ... ... : ... .. . ... ... : ... .. 8 ... ...
ROW F3 : ... .. 6 ... ... ... : ... .. A ... ... ... : ... .. . ... : ... .. 3 ... : ... .. . ... ... : ... .. 3 ... ... : ... .. 3 ... ... : ... .. . ... ...
ROW F4 : ... .. 5 ... ... ... : ... .. . ... ... ... : --- .. . ... : ... .. 2 ... : ... .. . ... ... : ... .. . ... ... : ... .. . ... ... : ... .. . ... ...
ROW F5 : ... .. 4 ... ... ... : ... .. . ... ... ... : ... .. . ... : ... .. 0 ... : ... .. . ... ... : ... .. . ... ... : ... .. . ... ... : ... .. . ... ...
ROW F6 : C-5 00 8 ... ... ... : ... .. . ... ... ... : B-1 00 . ... : ... .. F ... : ... .. . ... ... : G-2 01 5 ... ... : G#4 01 5 ... ... : ... .. . ... ...
ROW F7 : ... .. 7 ... ... ... : ... .. . ... ... ... : ... .. . ... : ... .. C ... : ... .. . ... ... : ... .. 4 ... ... : ... .. 4 ... ... : ... .. . ... ...
ROW F8 : ... .. . ... ... ... : ... .. . ... ... ... : ... .. . ... : ... .. 6 ... : ... .. . ... ... : ... .. . ... ... : ... .. . ... ... : ... .. . ... ...
ROW F9 : ... .. 6 ... ... ... : ... .. . ... ... ... : ... .. . ... : ... .. 3 ... : ... .. . ... ... : ... .. 3 ... ... : ... .. 3 ... ... : ... .. . ... ...
ROW FA : ... .. 5 ... ... ... : ... .. . ... ... ... : --- .. . ... : ... .. 2 ... : ... .. . ... ... : ... .. . ... ... : ... .. . ... ... : ... .. 4 ... ...
ROW FB : ... .. 4 ... ... ... : ... .. . ... ... ... : ... .. . ... : ... .. 0 ... : ... .. . ... ... : ... .. . ... ... : ... .. . ... ... : ... .. . ... ...
ROW FC : B-4 00 8 ... ... ... : ... .. 9 ... ... ... : B-1 00 . ... : D-# 00 F ... : ... .. . ... ... : A-2 01 5 ... ... : F#4 01 5 ... ... : F-2 01 F ... ...
ROW FD : ... .. 7 ... ... ... : ... .. . ... ... ... : ... .. . ... : ... .. C ... : ... .. . ... ... : ... .. 4 ... ... : ... .. 4 ... ... : ... .. D ... ...
ROW FE : ... .. . ... ... ... : ... .. . ... ... ... : ... .. . ... : ... .. 6 ... : ... .. . ... ... : ... .. . ... ... : ... .. . ... ... : ... .. 8 ... ...
ROW FF : ... .. 6 ... ... ... : ... .. 8 ... ... ... : ... .. . ... : ... .. 3 ... : ... .. . ... ... : ... .. 3 ... ... : ... .. 3 ... ... : ... .. . ... ...

PATTERN 16
ROW 00 : ... .. 5 ... ... ... : ... .. . ... ... ... : --- .. . ... : ... .. 2 ... : ... .. . ... ... : ... .. . ... ... : ... .. . ... ... : ... .. . ... ...
ROW 01 : ... .. 4 ... ... ... : ... .. . ... ... ... : ... .. . ... : ... .. 0 ... : ... .. . ... ... : ... .. . ... ... : ... .. . ... ... : ... .. . ... ...
ROW 02 : F#4 00 8 ... ... ... : ... .. 7 ... ... ... : B-1 00 . ... : ... .. F ... : ... .. . ... ... : B-2 01 5 ... ... : B-4 01 5 ... ... : ... .. . ... ...
ROW 03 : ... .. 7 ... ... ... : ... .. . ... ... ... : ... .. . ... : ... .. C ... : ... .. . ... ... : ... .. 4 ... ... : ... .. 4 ... ... : ... .. . ... ...
ROW 04 : ... .. . ... ... ... : ... .. . ... ... ... : ... .. . ... : ... .. 6 ... : ... .. . ... ... : ... .. . ... ... : ... .. . ... ... : ... .. . ... ...
ROW 05 : ... .. 6 ... ... ... : ... .. . ... ... ... : ... .. . ... : ... .. 3 ... : ... .. . ... ... : ... .. 3 ... ... : ... .. 3 ... ... : ... .. . ... ...
ROW 06 : ... .. 5 ... ... ... : ... .. . ... ... ... : --- .. . ... : ... .. 2 ... : ... .. . ... ... : ... .. . ... ... : ... .. . ... ... : ... .. 4 ... ...
ROW 07 : ... .. 4 ... ... ... : ... .. . ... ... ... : ... .. . ... : ... .. 0 ... : ... .. . ... ... : ... .. . ... ... : ... .. . ... ... : ... .. . ... ...
ROW 08 : F-4 00 8 ... ... ... : ... .. . ... ... ... : B-1 00 . ... : 6-# 00 F ... : ... .. . ... ... : C-3 01 5 ... ... : A-4 01 5 ... ... : E-2 01 F ... ...
ROW 09 : ... .. 7 ... ... ... : ... .. . ... ... ... : ... .. . ... : ... .. C ... : ... .. . ... ... : ... .. 4 ... ... : ... .. 4 ... ... : ... .. D ... ...
ROW 0A : ... .. . ... ... ... : ... .. . ... ... ... : ... .. . ... : ... .. 6 ... : ... .. . ... ... : ... .. . ... ... : ... .. . ... ... : ... .. 8 ... ...
ROW 0B : ... .. 6 ... ... ... : ... .. 8 ... ... ... : ... .. . ... : ... .. 3 ... : ... .. . ... ... : ... .. 3 ... ... : ... .. 3 ... ... : ... .. . ... ...
ROW 0C : ... .. 5 ... ... ... : ... .. . ... ... ... : --- .. . ... : ... .. 2 ... : ... .. . ... ... : ... .. . ... ... : ... .. . ... ... : ... .. . ... ...
ROW 0D : ... .. 4 ... ... ... : ... .. . ... ... ... : ... .. . ... : ... .. 0 ... : ... .. . ... ... : ... .. . ... ... : ... .. . ... ... : ... .. . ... ...
ROW 0E : B-3 00 8 ... ... ... : ... .. . ... ... ... : B-1 00 . ... : F-# 00 D ... : ... .. . ... ... : D-3 01 5 ... ... : G#4 01 5 ... ... : ... .. . ... ...
ROW 0F : ... .. 7 ... ... ... : ... .. . ... ... ... : ... .. . ... : ... .. B ... : ... .. . ... ... : ... .. 4 ... ... : ... .. 4 ... ... : ... .. . ... ...
ROW 10 : ... .. . ... ... ... : ... .. . ... ... ... : ... .. . ... : ... .. . ... : ... .. . ... ... : ... .. . ... ... : ... .. . ... ... : ... .. . ... ...
ROW 11 : ... .. 6 ... ... ... : ... .. . ... ... ... : ... .. . ... : ... .. A ... : ... .. . ... ... : ... .. 3 ... ... : ... .. 3 ... ... : ... .. . ... ...
ROW 12 : ... .. 5 ... ... ... : ... .. . ... ... ... : --- .. . ... : ... .. 8 ... : ... .. . ... ... : ... .. . ... ... : ... .. . ... ... : ... .. 4 ... ...
ROW 13 : ... .. 4 ... ... ... : ... .. . ... ... ... : ... .. . ... : ... .. 7 ... : ... .. . ... ... : ... .. . ... ... : ... .. . ... ... : ... .. . ... ...
ROW 14 : A-3 00 8 ... ... ... : ... .. . P84 ... ... : B-1 00 . ... : 5-# 00 D ... : ... .. . ... ... : B-2 01 5 ... ... : B-4 01 5 ... ... : D-2 01 F ... ...
ROW 15 : ... .. 7 ... ... ... : F#4 00 8 P7D ... ... : ... .. . ... : ... .. B ... : ... .. . ... ... : ... .. 4 ... ... : ... .. 4 ... ... : ... .. D ... ...
ROW 16 : ... .. . ... ... ... : ... .. . P7C ... ... : ... .. . ... : ... .. . ... : ... .. . ... ... : ... .. . ... ... : ... .. . ... ... : ... .. 8 ... ...
ROW 17 : ... .. 6 ... ... ... : F-4 00 8 P82 ... ... : ... .. . ... : ... .. A ... : ... .. . ... ... : ... .. 3 ... ... : ... .. 3 ... ... : ... .. . ... ...
ROW 18 : ... .. 5 ... ... ... : ... .. . P7E ... ... : --- .. . ... : ... .. 8 ... : ... .. . ... ... : ... .. . ... ... : ... .. . ... ... : ... .. . ... ...
ROW 19 : ... .. 4 ... ... ... : E-4 00 8 P85 ... ... : ... .. . ... : ... .. 7 ... : ... .. . ... ... : ... .. . ... ... : ... .. . ... ... : ... .. . ... ...
ROW 1A : B-3 00 8 ... ... ... : ... .. 9 P84 ... ... : B-1 00 . ... : 0-# 00 F ... : ... .. . ... ... : C-3 01 5 ... ... : A-4 01 5 ... ... : ... .. . ... ...
ROW 1B : ... .. 7 ... ... ... : F-4 00 9 P7C ... ... : ... .. . ... : ... .. C ... : ... .. . ... ... : ... .. 4 ... ... : ... .. 4 ... ... : ... .. . ... ...
ROW 1C : ... .. . ... ... ... : ... .. . P80 ... ... : ... .. . ... : ... .. 6 ... : ... .. . ... ... : ... .. . ... ... : ... .. . ... ... : ... .. . ... ...
ROW 1D : ... .. 6 ... ... ... : ... .. . P83 ... ... : ... .. . ... : ... .. 3 ... : ... .. . ... ... : ... .. 3 ... ... : ... .. 3 ... ... : ... .. . ... ...
ROW 1E : ... .. 5 ... ... ... : F#4 00 9 P7D ... ... : --- .. . ... : ... .. 2 ... : ... .. . ... ... : ... .. . ... ... : ... .. . ... ... : ... .. 4 ... ...
ROW 1F : ... .. 4 ... ... ... : ... .. . ... ... ... : ... .. . ... : ... .. 0 ... : ... .. . ... ... : ... .. . ... ... : ... .. . ... ... : ... .. . ... ...
ROW 20 : F-4 00 8 ... ... ... : F-4 00 9 P82 ... ... : B-1 00 . ... : C-# 00 F ... : ... .. . ... ... : D-3 01 5 ... ... : G-4 01 5 ... ... : B-1 01 F ... ...
ROW 21 : ... .. 7 ... ... ... : ... .. . P7F ... ... : ... .. . ... : ... .. C ... : ... .. . ... ... : ... .. 4 ... ... : ... .. 4 ... ... : ... .. D ... ...
ROW 22 : ... .. . ... ... ... : E-4 00 9 P85 ... ... : ... .. . ... : ... .. 6 ... : ... .. . ... ... : ... .. . ... ... : ... .. . ... ... : ... .. 8 ... ...
ROW 23 : ... .. 6 ... ... ... : ... .. A P84 ... ... : ... .. . ... : ... .. 3 ... : ... .. . ... ... : ... .. 3 ... ... : ... .. 3 ... ... : ... .. . ... ...
ROW 24 : ... .. 5 ... ... ... : F-4 00 A P7C ... ... : --- .. . ... : ... .. 2 ... : ... .. . ... ... : ... .. . ... ... : ... .. . ... ... : ... .. . ... ...
ROW 25 : ... .. 4 ... ... ... : ... .. . P80 ... ... : ... .. . ... : ... .. 0 ... : ... .. . ... ... : ... .. . ... ... : ... .. . ... ... : ... .. . ... ...
ROW 26 : A-4 00 8 ... ... ... : ... .. . P83 ... ... : B-1 00 . ... : E-# 00 F ... : ... .. . ... ... : D#3 01 5 ... ... : D-5 01 5 ... ... : ... .. . ... ...
ROW 27 : ... .. 7 ... ... ... : F#4 00 A P7D ... ... : ... .. . ... : ... .. C ... : ... .. . ... ... : ... .. 4 ... ... : ... .. 4 ... ... : ... .. . ... ...
ROW 28 : ... .. . ... ... ... : ... .. . ... ... ... : ... .. . ... : ... .. 6 ... : ... .. . ... ... : ... .. . ... ... : ... .. . ... ... : ... .. . ... ...
ROW 29 : ... .. 6 ... ... ... : F-4 00 A P83 ... ... : ... .. . ... : ... .. 3 ... : ... .. . ... ... : ... .. 3 ... ... : ... .. 3 ... ... : ... .. . ... ...
ROW 2A : ... .. 5 ... ... ... : ... .. . P80 ... ... : --- .. . ... : ... .. 2 ... : ... .. . ... ... : ... .. . ... ... : ... .. . ... ... : ... .. . ... ...
ROW 2B : ... .. 4 ... ... ... : ... .. . P7C ... ... : ... .. . ... : ... .. 0 ... : ... .. . ... ... : ... .. . ... ... : ... .. . ... ... : ... .. . ... ...
ROW 2C : B-4 00 8 ... ... ... : E-4 00 A P84 ... ... : B-1 00 . ... : 8-# 00 F ... : ... .. . ... ... : F-3 01 5 ... ... : C-5 01 5 ... ... : ... .. . ... ...
ROW 2D : ... .. 7 ... ... ... : ... .. . P85 ... ... : ... .. . ... : ... .. C ... : ... .. . ... ... : ... .. 4 ... ... : ... .. 4 ... ... : ... .. . ... ...
ROW 2E : ... .. . ... ... ... : F-4 00 A P7F ... ... : ... .. . ... : ... .. 6 ... : ... .. . ... ... : ... .. . ... ... : ... .. . ... ... : ... .. . ... ...
ROW 2F : ... .. 6 ... ... ... : ... .. . P82 ... ... : ... .. . ... : ... .. 3 ... : ... .. . ... ... : ... .. 3 ... ... : ... .. 3 ... ... : ... .. . ... ...
ROW 30 : ... .. 5 ... ... ... : F#4 00 A P7D ... ... : --- .. . ... : ... .. 2 ... : ... .. . ... ... : ... .. . ... ... : ... .. . ... ... : ... .. . ... ...
ROW 31 : ... .. 4 ... ... ... : ... .. . ... ... ... : ... .. . ... : ... .. 0 ... : ... .. . ... ... : ... .. . ... ... : ... .. . ... ... : ... .. . ... ...
ROW 32 : C-5 00 8 ... ... ... : F-4 00 A P83 ... ... : B-1 00 . ... : ... .. F ... : ... .. . ... ... : F#3 01 5 ... ... : B-4 01 5 ... ... : ... .. . ... ...
ROW 33 : ... .. 7 ... ... ... : ... .. 2 P80 ... ... : ... .. . ... : ... .. C ... : ... .. . ... ... : ... .. 4 ... ... : ... .. 4 ... ... : ... .. . ... ...
ROW 34 : ... .. . ... ... ... : ... .. . P7C ... ... : ... .. . ... : ... .. 6 ... : ... .. . ... ... : ... .. . ... ... : ... .. . ... ... : ... .. . ... ...
ROW 35 : ... .. 6 ... ... ... : E-4 00 2 P84 ... ... : ... .. . ... : ... .. 3 ... : ... .. . ... ... : ... .. 3 ... ... : ... .. 3 ... ... : ... .. . ... ...
ROW 36 : ... .. 5 ... ... ... : ... .. 1 P85 ... ... : --- .. . ... : ... .. 2 ... : ... .. . ... ... : ... .. . ... ... : ... .. . ... ... : ... .. 4 ... ...
ROW 37 : ... .. 4 ... ... ... : F-4 00 1 P7E ... ... : ... .. . ... : ... .. 0 ... : ... .. . ... ... : ... .. . ... ... : ... .. . ... ... : ... .. . ... ...
ROW 38 : F-4 00 A ... ... ... : F-6 00 F P80 ... ... : C#5 00 . ... : 5-# 00 D ... : ... .. . ... ... : F#2 01 5 ... ... : D-5 01 5 ... ... : D-2 01 F ... ...
ROW 39 : ... .. 9 ... ... ... : ... .. E ... ... ... : D#4 00 . ... : ... .. B ... : ... .. . ... ... : ... .. 4 ... ... : ... .. 4 ... ... : ... .. D ... ...
ROW 3A : ... .. 8 ... ... ... : ... .. D ... ... ... : G#3 00 . ... : ... .. . ... : ... .. . ... ... : ... .. . ... ... : ... .. . ... ... : ... .. 8 ... ...
ROW 3B : ... .. 6 ... ... ... : ... .. A ... ... ... : G-3 00 . ... : ... .. A ... : ... .. . ... ... : ... .. 3 ... ... : ... .. 3 ... ... : --- .. . ... ...
ROW 3C : ... .. 1 ... ... ... : ... .. 2 ... ... ... : D-3 00 . ... : ... .. 8 ... : ... .. . ... ... : ... .. . ... ... : ... .. . ... ... : ... .. . ... ...
ROW 3D : ... .. . ... ... ... : ... .. . ... ... ... : ... .. . ... : ... .. 7 ... : ... .. . ... ... : ... .. . ... ... : ... .. . ... ... : ... .. . ... ...
ROW 3E : D-4 00 A ... ... ... : D-5 00 F ... ... ... : D-2 00 . ... : 1-# 00 F ... : ... .. . ... ... : G-2 01 5 ... ... : A-4 01 5 ... ... : D-2 01 F ... ...
ROW 3F : ... .. 9 ... ... ... : ... .. E ... ... ... : ... .. . ... : ... .. C ... : ... .. . ... ... : ... .. 4 ... ... : ... .. 4 ... ... : ... .. D ... ...
ROW 40 : ... .. 8 ... ... ... : ... .. D ... ... ... : ... .. . ... : ... .. 6 ... : ... .. . ... ... : ... .. . ... ... : ... .. . ... ... : ... .. 8 ... ...
ROW 41 : ... .. 6 ... ... ... : ... .. A ... ... ... : ... .. . ... : ... .. 3 ... : ... .. . ... ... : ... .. 3 ... ... : ... .. 3 ... ... : ... .. . ... ...
ROW 42 : ... .. 1 ... ... ... : ... .. 2 ... ... ... : --- .. . ... : ... .. 2 ... : ... .. . ... ... : ... .. . ... ... : ... .. . ... ... : ... .. . ... ...
ROW 43 : ... .. . ... ... ... : ... .. . ... ... ... : ... .. . ... : ... .. 0 ... : ... .. . ... ... : ... .. . ... ... : ... .. . ... ... : ... .. . ... ...
ROW 44 : A-3 00 A ... ... ... : A-4 00 F ... ... ... : D-2 00 . ... : ... .. F ... : ... .. . ... ... : A-2 01 5 ... ... : D-5 01 5 ... ... : --- .. . ... ...
ROW 45 : ... .. 9 ... ... ... : ... .. E ... ... ... : ... .. . ... : ... .. C ... : ... .. . ... ... : ... .. 4 ... ... : ... .. 4 ... ... : ... .. . ... ...
ROW 46 : ... .. 8 ... ... ... : ... .. D ... ... ... : ... .. . ... : ... .. 6 ... : ... .. . ... ... : ... .. . ... ... : ... .. . ... ... : ... .. . ... ...
ROW 47 : ... .. 6 ... ... ... : ... .. A ... ... ... : ... .. . ... : ... .. 3 ... : ... .. . ... ... : ... .. 3 ... ... : ... .. 3 ... ... : ... .. . ... ...
ROW 48 : ... .. 1 ... ... ... : ... .. 2 ... ... ... : --- .. . ... : ... .. 2 ... : ... .. . ... ... : ... .. . ... ... : ... .. . ... ... : ... .. . ... ...
ROW 49 : ... .. . ... ... ... : ... .. . ... ... ... : ... .. . ... : ... .. 0 ... : ... .. . ... ... : ... .. . ... ... : ... .. . ... ... : ... .. . ... ...
ROW 4A : F-3 00 A ... ... ... : F-4 00 F ... ... ... : C#5 00 . ... : 5-# 00 D ... : ... .. . ... ... : B-2 01 5 ... ... : F-5 01 5 ... ... : D-2 01 F ... ...
ROW 4B : ... .. 9 ... ... ... : ... .. E ... ... ... : D#4 00 . ... : ... .. B ... : ... .. . ... ... : ... .. 4 ... ... : ... .. 4 ... ... : ... .. D ... ...
ROW 4C : ... .. 8 ... ... ... : ... .. D ... ... ... : G#3 00 . ... : ... .. . ... : ... .. . ... ... : ... .. . ... ... : ... .. . ... ... : ... .. 8 ... ...
ROW 4D : ... .. 6 ... ... ... : ... .. A ... ... ... : G-3 00 . ... : ... .. A ... : ... .. . ... ... : ... .. 3 ... ... : ... .. 3 ... ... : --- .. . ... ...
ROW 4E : ... .. 1 ... ... ... : ... .. 2 ... ... ... : D-3 00 . ... : ... .. 8 ... : ... .. . ... ... : ... .. . ... ... : ... .. . ... ... : ... .. . ... ...
ROW 4F : ... .. . ... ... ... : ... .. . ... ... ... : ... .. . ... : ... .. 7 ... : ... .. . ... ... : ... .. . ... ... : ... .. . ... ... : ... .. . ... ...
ROW 50 : D-3 00 A ... ... ... : D-4 00 F ... ... ... : D-2 00 . ... : 1-# 00 F ... : ... .. . ... ... : C-3 01 5 ... ... : D-5 01 5 ... ... : D-2 01 F ... ...
ROW 51 : ... .. 9 ... ... ... : ... .. E ... ... ... : ... .. . ... : ... .. C ... : ... .. . ... ... : ... .. 4 ... ... : ... .. 4 ... ... : ... .. D ... ...
ROW 52 : ... .. 8 ... ... ... : ... .. D ... ... ... : ... .. . ... : ... .. 6 ... : ... .. . ... ... : ... .. . ... ... : ... .. . ... ... : ... .. 8 ... ...
ROW 53 : ... .. 6 ... ... ... : ... .. A ... ... ... : ... .. . ... : ... .. 3 ... : ... .. . ... ... : ... .. 3 ... ... : ... .. 3 ... ... : ... .. . ... ...
ROW 54 : ... .. 1 ... ... ... : ... .. 2 ... ... ... : --- .. . ... : ... .. 2 ... : ... .. . ... ... : ... .. . ... ... : ... .. . ... ... : ... .. . ... ...
ROW 55 : ... .. . ... ... ... : ... .. . ... ... ... : ... .. . ... : ... .. 0 ... : ... .. . ... ... : ... .. . ... ... : ... .. . ... ... : ... .. . ... ...
ROW 56 : A-2 00 A ... ... ... : A-3 00 F ... ... ... : D-2 00 . ... : ... .. F ... : ... .. . ... ... : D-3 01 5 ... ... : F-5 01 5 ... ... : --- .. . ... ...
ROW 57 : ... .. 9 ... ... ... : ... .. E ... ... ... : ... .. . ... : ... .. C ... : ... .. . ... ... : ... .. 4 ... ... : ... .. 4 ... ... : ... .. . ... ...
ROW 58 : ... .. 8 ... ... ... : ... .. D ... ... ... : ... .. . ... : ... .. 6 ... : ... .. . ... ... : ... .. . ... ... : ... .. . ... ... : ... .. . ... ...
ROW 59 : ... .. 6 ... ... ... : ... .. A ... ... ... : ... .. . ... : ... .. 3 ... : ... .. . ... ... : ... .. 3 ... ... : ... .. 3 ... ... : ... .. . ... ...
ROW 5A : ... .. 1 ... ... ... : ... .. 2 ... ... ... : --- .. . ... : ... .. 2 ... : ... .. . ... ... : ... .. . ... ... : ... .. . ... ... : ... .. . ... ...
ROW 5B : ... .. . ... ... ... : ... .. . ... ... ... : ... .. . ... : ... .. 0 ... : ... .. . ... ... : ... .. . ... ... : ... .. . ... ... : ... .. . ... ...
ROW 5C : F-4 00 A ... ... ... : F-5 00 F ... ... ... : A-4 00 . ... : 5-# 00 D ... : ... .. . ... ... : B-2 01 5 ... ... : ... .. 5 ... ... : A#1 01 F ... ...
ROW 5D : ... .. 9 ... ... ... : ... .. E ... ... ... : B-3 00 . ... : ... .. B ... : ... .. . ... ... : ... .. 4 ... ... : ... .. 4 ... ... : ... .. D ... ...
ROW 5E : ... .. 8 ... ... ... : ... .. D ... ... ... : E-3 00 . ... : ... .. . ... : ... .. . ... ... : ... .. . ... ... : ... .. . ... ... : ... .. 8 ... ...
ROW 5F : ... .. 6 ... ... ... : ... .. A ... ... ... : D#3 00 . ... : ... .. A ... : ... .. . ... ... : ... .. 3 ... ... : ... .. 3 ... ... : --- .. . ... ...
ROW 60 : ... .. 1 ... ... ... : ... .. 2 ... ... ... : A#2 00 . ... : ... .. 8 ... : ... .. . ... ... : ... .. . ... ... : ... .. . ... ... : ... .. . ... ...
ROW 61 : ... .. . ... ... ... : ... .. . ... ... ... : ... .. . ... : ... .. 7 ... : ... .. . ... ... : ... .. . ... ... : ... .. . ... ... : ... .. . ... ...
ROW 62 : C#4 00 A ... ... ... : C#5 00 F ... ... ... : A#1 00 . ... : ... .. F ... : ... .. . ... ... : C-3 01 5 ... ... : C#5 01 5 ... ... : A#1 01 F ... ...
ROW 63 : ... .. 9 ... ... ... : ... .. E ... ... ... : ... .. . ... : ... .. C ... : ... .. . ... ... : ... .. 4 ... ... : ... .. 4 ... ... : ... .. D ... ...
ROW 64 : ... .. 8 ... ... ... : ... .. D ... ... ... : ... .. . ... : ... .. 6 ... : ... .. . ... ... : ... .. . ... ... : ... .. . ... ... : ... .. 8 ... ...
ROW 65 : ... .. 6 ... ... ... : ... .. A ... ... ... : ... .. . ... : ... .. 3 ... : ... .. . ... ... : ... .. 3 ... ... : ... .. 3 ... ... : ... .. . ... ...
ROW 66 : ... .. 1 ... ... ... : ... .. 2 ... ... ... : --- .. . ... : ... .. 2 ... : ... .. . ... ... : ... .. . ... ... : ... .. . ... ... : ... .. . ... ...
ROW 67 : ... .. . ... ... ... : ... .. . ... ... ... : ... .. . ... : ... .. 0 ... : ... .. . ... ... : ... .. . ... ... : ... .. . ... ... : ... .. . ... ...
ROW 68 : A#3 00 A ... ... ... : A#4 00 F ... ... ... : A#1 00 . ... : F-# 00 F ... : ... .. . ... ... : D-3 01 5 ... ... : A#4 01 5 ... ... : --- .. . ... ...
ROW 69 : ... .. 9 ... ... ... : ... .. E ... ... ... : ... .. . ... : ... .. C ... : ... .. . ... ... : ... .. 4 ... ... : ... .. 4 ... ... : ... .. . ... ...
ROW 6A : ... .. 8 ... ... ... : ... .. D ... ... ... : ... .. . ... : ... .. 6 ... : ... .. . ... ... : ... .. . ... ... : ... .. . ... ... : ... .. . ... ...
ROW 6B : ... .. 6 ... ... ... : ... .. A ... ... ... : ... .. . ... : ... .. 3 ... : ... .. . ... ... : ... .. 3 ... ... : ... .. 3 ... ... : ... .. . ... ...
ROW 6C : ... .. 1 ... ... ... : ... .. 2 ... ... ... : --- .. . ... : ... .. 2 ... : ... .. . ... ... : ... .. . ... ... : ... .. . ... ... : ... .. . ... ...
ROW 6D : ... .. . ... ... ... : ... .. . ... ... ... : ... .. . ... : ... .. 0 ... : ... .. . ... ... : ... .. . ... ... : ... .. . ... ... : ... .. . ... ...
ROW 6E : F-3 00 A ... ... ... : F-4 00 F ... ... ... : A-4 00 . ... : D-# 00 F ... : ... .. . ... ... : D#3 01 5 ... ... : C#5 01 5 ... ... : A#1 01 F ... ...
ROW 6F : ... .. 9 ... ... ... : ... .. E ... ... ... : B-3 00 . ... : ... .. C ... : ... .. . ... ... : ... .. 4 ... ... : ... .. 4 ... ... : ... .. D ... ...
ROW 70 : ... .. 8 ... ... ... : ... .. D ... ... ... : E-3 00 . ... : ... .. 6 ... : ... .. . ... ... : ... .. . ... ... : ... .. . ... ... : ... .. 8 ... ...
ROW 71 : ... .. 6 ... ... ... : ... .. A ... ... ... : D#3 00 . ... : ... .. 3 ... : ... .. . ... ... : ... .. 3 ... ... : ... .. 3 ... ... : --- .. . ... ...
ROW 72 : ... .. 1 ... ... ... : ... .. 2 ... ... ... : A#2 00 . ... : ... .. 2 ... : ... .. . ... ... : ... .. . ... ... : ... .. . ... ... : ... .. . ... ...
ROW 73 : ... .. . ... ... ... : ... .. . ... ... ... : ... .. . ... : ... .. 0 ... : ... .. . ... ... : ... .. . ... ... : ... .. . ... ... : ... .. . ... ...
ROW 74 : C#3 00 A ... ... ... : C#4 00 F ... ... ... : A#1 00 . ... : B-# 00 F ... : ... .. . ... ... : F-3 01 5 ... ... : A#4 01 5 ... ... : A#1 01 F ... ...
ROW 75 : ... .. 9 ... ... ... : ... .. E ... ... ... : ... .. . ... : ... .. C ... : ... .. . ... ... : ... .. 4 ... ... : ... .. 4 ... ... : ... .. D ... ...
ROW 76 : ... .. 8 ... ... ... : ... .. D ... ... ... : ... .. . ... : ... .. 6 ... : ... .. . ... ... : ... .. . ... ... : ... .. . ... ... : ... .. 8 ... ...
ROW 77 : ... .. 6 ... ... ... : ... .. A ... ... ... : ... .. . ... : ... .. 3 ... : ... .. . ... ... : ... .. 3 ... ... : ... .. 3 ... ... : ... .. . ... ...
ROW 78 : ... .. 1 ... ... ... : ... .. 2 ... ... ... : --- .. . ... : ... .. 2 ... : ... .. . ... ... : ... .. . ... ... : ... .. . ... ... : ... .. . ... ...
ROW 79 : ... .. . ... ... ... : ... .. . ... ... ... : ... .. . ... : ... .. 0 ... : ... .. . ... ... : ... .. . ... ... : ... .. . ... ... : ... .. . ... ...
ROW 7A : A#2 00 A ... ... ... : A#3 00 F ... ... ... : A#1 00 . ... : 8-# 00 F ... : ... .. . ... ... : F#3 01 5 ... ... : F-4 01 5 ... ... : --- .. . ... ...
ROW 7B : ... .. 9 ... ... ... : ... .. E ... ... ... : ... .. . ... : ... .. C ... : ... .. . ... ... : ... .. 4 ... ... : ... .. 4 ... ... : ... .. . ... ...
ROW 7C : ... .. 8 ... ... ... : ... .. D ... ... ... : ... .. . ... : ... .. 6 ... : ... .. . ... ... : ... .. . ... ... : ... .. . ... ... : ... .. . ... ...
ROW 7D : ... .. 6 ... ... ... : ... .. A ... ... ... : ... .. . ... : ... .. 3 ... : ... .. . ... ... : ... .. 3 ... ... : ... .. 3 ... ... : ... .. . ... ...
ROW 7E : ... .. 1 ... ... ... : ... .. 2 ... ... ... : --- .. . ... : ... .. 2 ... : ... .. . ... ... : ... .. . ... ... : ... .. . ... ... : ... .. . ... ...
ROW 7F : ... .. . ... ... ... : ... .. . ... ... ... : ... .. . ... : ... .. 0 ... : ... .. . ... ... : ... .. . ... ... : ... .. . ... ... : ... .. . ... ...
ROW 80 : B-4 00 8 ... ... ... : F-5 00 9 ... ... ... : A#3 00 . ... : D-# 00 F ... : ... .. . ... ... : F#2 01 5 ... ... : B-3 01 5 ... ... : B-1 01 F ... ...
ROW 81 : ... .. 7 ... ... ... : ... .. 8 ... ... ... : C-3 00 . ... : ... .. . ... : ... .. . ... ... : ... .. 4 ... ... : ... .. 4 ... ... : ... .. D ... ...
ROW 82 : ... .. . ... ... ... : ... .. 7 ... ... ... : F-2 00 . ... : ... .. . ... : ... .. . ... ... : ... .. . ... ... : ... .. . ... ... : ... .. 8 ... ...
ROW 83 : ... .. 6 ... ... ... : ... .. 6 ... ... ... : E-2 00 . ... : C-# 00 D ... : ... .. . ... ... : ... .. 3 ... ... : ... .. 3 ... ... : ... .. . ... ...
ROW 84 : ... .. 5 ... ... ... : ... .. . ... ... ... : B-1 00 . ... : ... .. . ... : ... .. . ... ... : ... .. . ... ... : ... .. . ... ... : ... .. . ... ...
ROW 85 : ... .. 4 ... ... ... : ... .. . ... ... ... : ... .. . ... : ... .. . ... : ... .. . ... ... : ... .. . ... ... : ... .. . ... ... : ... .. . ... ...
ROW 86 : C-5 00 8 ... ... ... : ... .. . ... ... ... : ... .. . ... : B-# 00 B ... : ... .. . ... ... : G-2 01 5 ... ... : C-4 01 5 ... ... : ... .. . ... ...
ROW 87 : ... .. 7 ... ... ... : ... .. . ... ... ... : ... .. . ... : ... .. . ... : ... .. . ... ... : ... .. 4 ... ... : ... .. 4 ... ... : ... .. . ... ...
ROW 88 : ... .. . ... ... ... : ... .. . ... ... ... : ... .. . ... : ... .. . ... : ... .. . ... ... : ... .. . ... ... : ... .. . ... ... : ... .. . ... ...
ROW 89 : ... .. 6 ... ... ... : ... .. . ... ... ... : ... .. . ... : ... .. 9 ... : ... .. . ... ... : ... .. 3 ... ... : ... .. 3 ... ... : ... .. . ... ...
ROW 8A : ... .. 5 ... ... ... : ... .. . ... ... ... : --- .. . ... : ... .. . ... : ... .. . ... ... : ... .. . ... ... : ... .. . ... ... : ... .. 4 ... ...
ROW 8B : ... .. 4 ... ... ... : ... .. . ... ... ... : ... .. . ... : ... .. . ... : ... .. . ... ... : ... .. . ... ... : ... .. . ... ... : ... .. . ... ...
ROW 8C : B-4 00 8 ... ... ... : ... .. . ... ... ... : B-1 00 . ... : ... .. 7 ... : ... .. . ... ... : A-2 01 5 ... ... : A-3 01 5 ... ... : F-2 01 F ... ...
ROW 8D : ... .. 7 ... ... ... : ... .. . ... ... ... : ... .. . ... : ... .. . ... : ... .. . ... ... : ... .. 4 ... ... : ... .. 4 ... ... : ... .. D ... ...
ROW 8E : ... .. . ... ... ... : ... .. . ... ... ... : ... .. . ... : ... .. . ... : ... .. . ... ... : ... .. . ... ... : ... .. . ... ... : ... .. 8 ... ...
ROW 8F : ... .. 6 ... ... ... : ... .. 7 ... ... ... : ... .. . ... : ... .. 5 ... : ... .. . ... ... : ... .. 3 ... ... : ... .. 3 ... ... : ... .. . ... ...
ROW 90 : ... .. 5 ... ... ... : ... .. . ... ... ... : --- .. . ... : ... .. . ... : ... .. . ... ... : ... .. . ... ... : ... .. . ... ... : ... .. . ... ...
ROW 91 : ... .. 4 ... ... ... : ... .. . ... ... ... : ... .. . ... : ... .. . ... : ... .. . ... ... : ... .. . ... ... : ... .. . ... ... : ... .. . ... ...
ROW 92 : F#4 00 8 ... ... ... : ... .. . ... ... ... : B-1 00 . ... : D-# 00 D ... : ... .. . ... ... : B-2 01 5 ... ... : B-3 01 5 ... ... : ... .. . ... ...
ROW 93 : ... .. 7 ... ... ... : ... .. . ... ... ... : ... .. . ... : ... .. B ... : ... .. . ... ... : ... .. 4 ... ... : ... .. 4 ... ... : ... .. . ... ...
ROW 94 : ... .. . ... ... ... : ... .. . ... ... ... : ... .. . ... : ... .. . ... : ... .. . ... ... : ... .. . ... ... : ... .. . ... ... : ... .. . ... ...
ROW 95 : ... .. 6 ... ... ... : ... .. 8 ... ... ... : ... .. . ... : ... .. A ... : ... .. . ... ... : ... .. 3 ... ... : ... .. 3 ... ... : ... .. . ... ...
ROW 96 : ... .. 5 ... ... ... : ... .. . ... ... ... : --- .. . ... : ... .. 8 ... : ... .. . ... ... : ... .. . ... ... : ... .. . ... ... : ... .. 4 ... ...
ROW 97 : ... .. 4 ... ... ... : ... .. . ... ... ... : ... .. . ... : ... .. 7 ... : ... .. . ... ... : ... .. . ... ... : ... .. . ... ... : ... .. . ... ...
ROW 98 : F-4 00 8 ... ... ... : ... .. . ... ... ... : B-1 00 . ... : 1-# 00 F ... : ... .. . ... ... : C-3 01 5 ... ... : C-4 01 5 ... ... : E-2 01 F ... ...
ROW 99 : ... .. 7 ... ... ... : ... .. . ... ... ... : ... .. . ... : ... .. C ... : ... .. . ... ... : ... .. 4 ... ... : ... .. 4 ... ... : ... .. D ... ...
ROW 9A : ... .. . ... ... ... : ... .. . ... ... ... : ... .. . ... : ... .. 6 ... : ... .. . ... ... : ... .. . ... ... : ... .. . ... ... : ... .. 8 ... ...
ROW 9B : ... .. 6 ... ... ... : ... .. . ... ... ... : ... .. . ... : ... .. 3 ... : ... .. . ... ... : ... .. 3 ... ... : ... .. 3 ... ... : ... .. . ... ...
ROW 9C : ... .. 5 ... ... ... : ... .. . ... ... ... : --- .. . ... : ... .. 2 ... : ... .. . ... ... : ... .. . ... ... : ... .. . ... ... : ... .. . ... ...
ROW 9D : ... .. 4 ... ... ... : ... .. . ... ... ... : ... .. . ... : ... .. 0 ... : ... .. . ... ... : ... .. . ... ... : ... .. . ... ... : ... .. . ... ...
ROW 9E : B-3 00 8 ... ... ... : ... .. . ... ... ... : B-1 00 . ... : A-# 00 F ... : ... .. . ... ... : D-3 01 5 ... ... : D-4 01 5 ... ... : ... .. . ... ...
ROW 9F : ... .. 7 ... ... ... : ... .. . ... ... ... : ... .. . ... : ... .. C ... : ... .. . ... ... : ... .. 4 ... ... : ... .. 4 ... ... : ... .. . ... ...
ROW A0 : ... .. . ... ... ... : ... .. . ... ... ... : ... .. . ... : ... .. 6 ... : ... .. . ... ... : ... .. . ... ... : ... .. . ... ... : ... .. . ... ...
ROW A1 : ... .. 6 ... ... ... : ... .. 9 ... ... ... : ... .. . ... : ... .. 3 ... : ... .. . ... ... : ... .. 3 ... ... : ... .. 3 ... ... : ... .. . ... ...
ROW A2 : ... .. 5 ... ... ... : ... .. . ... ... ... : --- .. . ... : ... .. 2 ... : ... .. . ... ... : ... .. . ... ... : ... .. . ... ... : ... .. 4 ... ...
ROW A3 : ... .. 4 ... ... ... : ... .. . ... ... ... : ... .. . ... : ... .. 0 ... : ... .. . ... ... : ... .. . ... ... : ... .. . ... ... : ... .. . ... ...
ROW A4 : A-3 00 8 ... ... ... : ... .. . ... ... ... : B-1 00 . ... : 5-# 00 D ... : ... .. . ... ... : B-2 01 5 ... ... : B-3 01 5 ... ... : D-2 01 F ... ...
ROW A5 : ... .. 7 ... ... ... : ... .. . ... ... ... : ... .. . ... : ... .. B ... : ... .. . ... ... : ... .. 4 ... ... : ... .. 4 ... ... : ... .. D ... ...
ROW A6 : ... .. . ... ... ... : ... .. . ... ... ... : ... .. . ... : ... .. . ... : ... .. . ... ... : ... .. . ... ... : ... .. . ... ... : ... .. 8 ... ...
ROW A7 : ... .. 6 ... ... ... : ... .. . ... ... ... : ... .. . ... : ... .. A ... : ... .. . ... ... : ... .. 3 ... ... : ... .. 3 ... ... : ... .. . ... ...
ROW A8 : ... .. 5 ... ... ... : ... .. . ... ... ... : --- .. . ... : ... .. 8 ... : ... .. . ... ... : ... .. . ... ... : ... .. . ... ... : ... .. . ... ...
ROW A9 : ... .. 4 ... ... ... : ... .. . ... ... ... : ... .. . ... : ... .. 7 ... : ... .. . ... ... : ... .. . ... ... : ... .. . ... ... : ... .. . ... ...
ROW AA : B-3 00 8 ... ... ... : ... .. A ... ... ... : B-1 00 . ... : 0-# 00 F ... : ... .. . ... ... : C-3 01 5 ... ... : C-4 01 5 ... ... : ... .. . ... ...
ROW AB : ... .. 7 ... ... ... : ... .. . ... ... ... : ... .. . ... : ... .. C ... : ... .. . ... ... : ... .. 4 ... ... : ... .. 4 ... ... : ... .. . ... ...
ROW AC : ... .. . ... ... ... : ... .. . ... ... ... : ... .. . ... : ... .. 6 ... : ... .. . ... ... : ... .. . ... ... : ... .. . ... ... : ... .. . ... ...
ROW AD : ... .. 6 ... ... ... : ... .. . ... ... ... : ... .. . ... : ... .. 3 ... : ... .. . ... ... : ... .. 3 ... ... : ... .. 3 ... ... : ... .. . ... ...
ROW AE : ... .. 5 ... ... ... : ... .. . ... ... ... : --- .. . ... : ... .. 2 ... : ... .. . ... ... : ... .. . ... ... : ... .. . ... ... : ... .. 4 ... ...
ROW AF : ... .. 4 ... ... ... : ... .. . ... ... ... : ... .. . ... : ... .. 0 ... : ... .. . ... ... : ... .. . ... ... : ... .. . ... ... : ... .. . ... ...
ROW B0 : F-4 00 8 ... ... ... : ... .. . ... ... ... : B-1 00 . ... : D-# 00 F ... : ... .. . ... ... : D-3 01 5 ... ... : A-3 01 5 ... ... : B-1 01 F ... ...
ROW B1 : ... .. 7 ... ... ... : ... .. . ... ... ... : ... .. . ... : ... .. C ... : ... .. . ... ... : ... .. 4 ... ... : ... .. 4 ... ... : ... .. D ... ...
ROW B2 : ... .. . ... ... ... : ... .. . ... ... ... : ... .. . ... : ... .. 0 ... : ... .. . ... ... : ... .. . ... ... : ... .. . ... ... : ... .. 8 ... ...
ROW B3 : ... .. 6 ... ... ... : ... .. . ... ... ... : ... .. . ... : ... .. F ... : ... .. . ... ... : ... .. 3 ... ... : ... .. 3 ... ... : ... .. . ... ...
ROW B4 : ... .. 5 ... ... ... : ... .. . ... ... ... : --- .. . ... : ... .. C ... : ... .. . ... ... : ... .. . ... ... : ... .. . ... ... : ... .. . ... ...
ROW B5 : ... .. 4 ... ... ... : ... .. . ... ... ... : ... .. . ... : ... .. 0 ... : ... .. . ... ... : ... .. . ... ... : ... .. . ... ... : ... .. . ... ...
ROW B6 : A-4 00 8 ... ... ... : F#5 00 A ... ... ... : B-1 00 . ... : ... .. F ... : ... .. . ... ... : D#3 01 5 ... ... : B-3 01 5 ... ... : ... .. . ... ...
ROW B7 : ... .. 7 ... ... ... : ... .. . P82 ... ... : ... .. . ... : ... .. C ... : ... .. . ... ... : ... .. 4 ... ... : ... .. 4 ... ... : ... .. . ... ...
ROW B8 : ... .. . ... ... ... : ... .. . P81 ... ... : ... .. . ... : ... .. 0 ... : ... .. . ... ... : ... .. . ... ... : ... .. . ... ... : ... .. . ... ...
ROW B9 : ... .. 6 ... ... ... : F-5 00 A P82 ... ... : ... .. . ... : ... .. . ... : ... .. . ... ... : ... .. 3 ... ... : ... .. 3 ... ... : ... .. . ... ...
ROW BA : ... .. 5 ... ... ... : ... .. . P7E ... ... : --- .. . ... : ... .. . ... : ... .. . ... ... : ... .. . ... ... : ... .. . ... ... : ... .. . ... ...
ROW BB : ... .. 4 ... ... ... : E-5 00 A P80 ... ... : ... .. . ... : ... .. . ... : ... .. . ... ... : ... .. . ... ... : ... .. . ... ... : ... .. . ... ...
ROW BC : B-4 00 8 ... ... ... : ... .. . P7F ... ... : B-1 00 . ... : 5-# 00 D ... : ... .. . ... ... : F-3 01 5 ... ... : C-4 01 5 ... ... : ... .. . ... ...
ROW BD : ... .. 7 ... ... ... : ... .. . P81 ... ... : ... .. . ... : ... .. B ... : ... .. . ... ... : ... .. 4 ... ... : ... .. 4 ... ... : ... .. . ... ...
ROW BE : ... .. . ... ... ... : F-5 00 A P80 ... ... : ... .. . ... : ... .. . ... : ... .. . ... ... : ... .. . ... ... : ... .. . ... ... : ... .. . ... ...
ROW BF : ... .. 6 ... ... ... : F#5 00 A P7F ... ... : ... .. . ... : ... .. A ... : ... .. . ... ... : ... .. 3 ... ... : ... .. 3 ... ... : ... .. . ... ...
ROW C0 : ... .. 5 ... ... ... : ... .. . P82 ... ... : --- .. . ... : ... .. 8 ... : ... .. . ... ... : ... .. . ... ... : ... .. . ... ... : ... .. . ... ...
ROW C1 : ... .. 4 ... ... ... : ... .. . ... ... ... : ... .. . ... : ... .. 7 ... : ... .. . ... ... : ... .. . ... ... : ... .. . ... ... : ... .. . ... ...
ROW C2 : C-5 00 8 ... ... ... : F-5 00 A ... ... ... : B-1 00 . ... : F-# 00 D ... : ... .. . ... ... : F#3 01 5 ... ... : D-4 01 5 ... ... : ... .. . ... ...
ROW C3 : ... .. 7 ... ... ... : ... .. . P7F ... ... : ... .. . ... : ... .. B ... : ... .. . ... ... : ... .. 4 ... ... : ... .. 4 ... ... : ... .. . ... ...
ROW C4 : ... .. . ... ... ... : E-5 00 A P80 ... ... : ... .. . ... : ... .. . ... : ... .. . ... ... : ... .. . ... ... : ... .. . ... ... : ... .. . ... ...
ROW C5 : ... .. 6 ... ... ... : ... .. . P7F ... ... : ... .. . ... : ... .. A ... : ... .. . ... ... : ... .. 3 ... ... : ... .. 3 ... ... : ... .. . ... ...
ROW C6 : ... .. 5 ... ... ... : ... .. . P81 ... ... : --- .. . ... : ... .. 8 ... : ... .. . ... ... : ... .. . ... ... : ... .. . ... ... : ... .. 4 ... ...
ROW C7 : ... .. 4 ... ... ... : F-5 00 A P80 ... ... : ... .. . ... : ... .. 7 ... : ... .. . ... ... : ... .. . ... ... : ... .. . ... ... : ... .. . ... ...
ROW C8 : B-4 00 8 ... ... ... : F#5 00 A P7F ... ... : B-1 00 . ... : 1-# 00 F ... : ... .. . ... ... : F#2 01 5 ... ... : D#4 01 5 ... ... : ... .. F ... ...
ROW C9 : ... .. 7 ... ... ... : ... .. . P82 ... ... : ... .. . ... : ... .. C ... : ... .. . ... ... : ... .. 4 ... ... : ... .. 4 ... ... : ... .. D ... ...
ROW CA : ... .. . ... ... ... : ... .. . ... ... ... : ... .. . ... : ... .. 6 ... : ... .. . ... ... : ... .. . ... ... : ... .. . ... ... : ... .. 8 ... ...
ROW CB : ... .. 6 ... ... ... : ... .. . P7F ... ... : ... .. . ... : ... .. 3 ... : ... .. . ... ... : ... .. 3 ... ... : ... .. 3 ... ... : ... .. . ... ...
ROW CC : ... .. 5 ... ... ... : F-5 00 A P80 ... ... : --- .. . ... : ... .. 2 ... : ... .. . ... ... : ... .. . ... ... : ... .. . ... ... : ... .. . ... ...
ROW CD : ... .. 4 ... ... ... : E-5 00 A P81 ... ... : ... .. . ... : ... .. 0 ... : ... .. . ... ... : ... .. . ... ... : ... .. . ... ... : ... .. . ... ...
ROW CE : C-5 00 8 ... ... ... : ... .. . P7F ... ... : B-1 00 . ... : D-# 00 F ... : ... .. . ... ... : G-2 01 5 ... ... : F-4 01 5 ... ... : ... .. . ... ...
ROW CF : ... .. 7 ... ... ... : ... .. . P80 ... ... : ... .. . ... : ... .. C ... : ... .. . ... ... : ... .. 4 ... ... : ... .. 4 ... ... : ... .. . ... ...
ROW D0 : ... .. . ... ... ... : F-5 00 A P7F ... ... : ... .. . ... : ... .. 6 ... : ... .. . ... ... : ... .. . ... ... : ... .. . ... ... : ... .. . ... ...
ROW D1 : ... .. 6 ... ... ... : ... .. . P82 ... ... : ... .. . ... : ... .. 3 ... : ... .. . ... ... : ... .. 3 ... ... : ... .. 3 ... ... : ... .. . ... ...
ROW D2 : ... .. 5 ... ... ... : F#5 00 A ... ... ... : --- .. . ... : ... .. 2 ... : ... .. . ... ... : ... .. . ... ... : ... .. . ... ... : ... .. 4 ... ...
ROW D3 : ... .. 4 ... ... ... : ... .. . ... ... ... : ... .. . ... : ... .. 0 ... : ... .. . ... ... : ... .. . ... ... : ... .. . ... ... : ... .. . ... ...
ROW D4 : B-4 00 8 ... ... ... : ... .. . P7F ... ... : B-1 00 . ... : ... .. F ... : ... .. . ... ... : A-2 01 5 ... ... : B-3 01 5 ... ... : F-2 01 F ... ...
ROW D5 : ... .. 7 ... ... ... : F-5 00 A P80 ... ... : ... .. . ... : ... .. C ... : ... .. . ... ... : ... .. 4 ... ... : ... .. 4 ... ... : ... .. D ... ...
ROW D6 : ... .. . ... ... ... : E-5 00 A P81 ... ... : ... .. . ... : ... .. 6 ... : ... .. . ... ... : ... .. . ... ... : ... .. . ... ... : ... .. 8 ... ...
ROW D7 : ... .. 6 ... ... ... : ... .. . P7F ... ... : ... .. . ... : ... .. 3 ... : ... .. . ... ... : ... .. 3 ... ... : ... .. 3 ... ... : ... .. . ... ...
ROW D8 : ... .. 5 ... ... ... : ... .. . P80 ... ... : --- .. . ... : ... .. 2 ... : ... .. . ... ... : ... .. . ... ... : ... .. . ... ... : ... .. . ... ...
ROW D9 : ... .. 4 ... ... ... : F-5 00 A P7E ... ... : ... .. . ... : ... .. 0 ... : ... .. . ... ... : ... .. . ... ... : ... .. . ... ... : ... .. . ... ...
ROW DA : F#4 00 8 ... ... ... : ... .. . P82 ... ... : B-1 00 . ... : 5-# 00 D ... : ... .. . ... ... : B-2 01 5 ... ... : C-4 01 5 ... ... : ... .. . ... ...
ROW DB : ... .. 7 ... ... ... : F#5 00 A P81 ... ... : ... .. . ... : ... .. B ... : ... .. . ... ... : ... .. 4 ... ... : ... .. 4 ... ... : ... .. . ... ...
ROW DC : ... .. . ... ... ... : ... .. . P82 ... ... : ... .. . ... : ... .. . ... : ... .. . ... ... : ... .. . ... ... : ... .. . ... ... : ... .. . ... ...
ROW DD : ... .. 6 ... ... ... : ... .. . P80 ... ... : ... .. . ... : ... .. A ... : ... .. . ... ... : ... .. 3 ... ... : ... .. 3 ... ... : ... .. . ... ...
ROW DE : ... .. 5 ... ... ... : F-5 00 A ... ... ... : --- .. . ... : ... .. 8 ... : ... .. . ... ... : ... .. . ... ... : ... .. . ... ... : ... .. 4 ... ...
ROW DF : ... .. 4 ... ... ... : E-5 00 A P82 ... ... : ... .. . ... : ... .. 7 ... : ... .. . ... ... : ... .. . ... ... : ... .. . ... ... : ... .. . ... ...
ROW E0 : F-4 00 8 ... ... ... : ... .. . P7F ... ... : B-1 00 . ... : F-# 00 D ... : ... .. . ... ... : C-3 01 5 ... ... : A-3 01 5 ... ... : E-2 01 F ... ...
ROW E1 : ... .. 7 ... ... ... : ... .. . ... ... ... : ... .. . ... : ... .. B ... : ... .. . ... ... : ... .. 4 ... ... : ... .. 4 ... ... : ... .. D ... ...
ROW E2 : ... .. . ... ... ... : F-5 00 A P7E ... ... : ... .. . ... : ... .. . ... : ... .. . ... ... : ... .. . ... ... : ... .. . ... ... : ... .. 8 ... ...
ROW E3 : ... .. 6 ... ... ... : ... .. 9 P81 ... ... : ... .. . ... : ... .. A ... : ... .. . ... ... : ... .. 3 ... ... : ... .. 3 ... ... : ... .. . ... ...
ROW E4 : ... .. 5 ... ... ... : F#5 00 9 ... ... ... : --- .. . ... : ... .. 8 ... : ... .. . ... ... : ... .. . ... ... : ... .. . ... ... : ... .. . ... ...
ROW E5 : ... .. 4 ... ... ... : ... .. . P82 ... ... : ... .. . ... : ... .. 7 ... : ... .. . ... ... : ... .. . ... ... : ... .. . ... ... : ... .. . ... ...
ROW E6 : B-3 00 8 ... ... ... : ... .. . P80 ... ... : B-1 00 . ... : 1-# 00 F ... : ... .. . ... ... : D-3 01 5 ... ... : B-3 01 5 ... ... : ... .. . ... ...
ROW E7 : ... .. 7 ... ... ... : F-5 00 9 ... ... ... : ... .. . ... : ... .. C ... : ... .. . ... ... : ... .. 4 ... ... : ... .. 4 ... ... : ... .. . ... ...
ROW E8 : ... .. . ... ... ... : E-5 00 9 P82 ... ... : ... .. . ... : ... .. 6 ... : ... .. . ... ... : ... .. . ... ... : ... .. . ... ... : ... .. . ... ...
ROW E9 : ... .. 6 ... ... ... : ... .. 8 P7F ... ... : ... .. . ... : ... .. 3 ... : ... .. . ... ... : ... .. 3 ... ... : ... .. 3 ... ... : ... .. . ... ...
ROW EA : ... .. 5 ... ... ... : ... .. . ... ... ... : --- .. . ... : ... .. 2 ... : ... .. . ... ... : ... .. . ... ... : ... .. . ... ... : ... .. 4 ... ...
ROW EB : ... .. 4 ... ... ... : ... .. . P82 ... ... : ... .. . ... : ... .. 0 ... : ... .. . ... ... : ... .. . ... ... : ... .. . ... ... : ... .. . ... ...
ROW EC : A-3 00 8 ... ... ... : B-4 00 F P80 ... ... : B-1 00 . ... : 5-# 00 D ... : ... .. . ... ... : B-2 01 5 ... ... : C-4 01 5 ... ... : D-2 01 F ... ...
ROW ED : ... .. 7 ... ... ... : ... .. E ... ... ... : ... .. . ... : ... .. B ... : ... .. . ... ... : ... .. 4 ... ... : ... .. 4 ... ... : ... .. D ... ...
ROW EE : ... .. . ... ... ... : ... .. D ... ... ... : ... .. . ... : ... .. . ... : ... .. . ... ... : ... .. . ... ... : ... .. . ... ... : ... .. 8 ... ...
ROW EF : ... .. 6 ... ... ... : ... .. A ... ... ... : ... .. . ... : ... .. A ... : ... .. . ... ... : ... .. 3 ... ... : ... .. 3 ... ... : ... .. . ... ...
ROW F0 : ... .. 5 ... ... ... : ... .. . ... ... ... : --- .. . ... : ... .. 8 ... : ... .. . ... ... : ... .. . ... ... : ... .. . ... ... : ... .. . ... ...
ROW F1 : ... .. 4 ... ... ... : ... .. . ... ... ... : ... .. . ... : ... .. 7 ... : ... .. . ... ... : ... .. . ... ... : ... .. . ... ... : ... .. . ... ...
ROW F2 : B-3 00 8 ... ... ... : C-5 00 F ... ... ... : B-1 00 . ... : A-# 00 F ... : ... .. . ... ... : C-3 01 5 ... ... : D-4 01 5 ... ... : ... .. . ... ...
ROW F3 : ... .. 7 ... ... ... : ... .. E ... ... ... : ... .. . ... : ... .. C ... : ... .. . ... ... : ... .. 4 ... ... : ... .. 4 ... ... : ... .. . ... ...
ROW F4 : ... .. . ... ... ... : ... .. D ... ... ... : ... .. . ... : ... .. 6 ... : ... .. . ... ... : ... .. . ... ... : ... .. . ... ... : ... .. . ... ...
ROW F5 : ... .. 6 ... ... ... : ... .. A ... ... ... : ... .. . ... : ... .. 3 ... : ... .. . ... ... : ... .. 3 ... ... : ... .. 3 ... ... : ... .. . ... ...
ROW F6 : ... .. 5 ... ... ... : ... .. . ... ... ... : --- .. . ... : ... .. 2 ... : ... .. . ... ... : ... .. . ... ... : ... .. . ... ... : ... .. 4 ... ...
ROW F7 : ... .. 4 ... ... ... : ... .. . ... ... ... : ... .. . ... : ... .. 0 ... : ... .. . ... ... : ... .. . ... ... : ... .. . ... ... : ... .. . ... ...
ROW F8 : F-4 00 8 ... ... ... : D-5 00 F ... ... ... : B-1 00 . ... : ... .. F ... : ... .. . ... ... : D-3 01 5 ... ... : D#4 01 5 ... ... : F-4 01 F ... ...
ROW F9 : ... .. 7 ... ... ... : ... .. E ... ... ... : ... .. . ... : ... .. C ... : ... .. . ... ... : ... .. 4 ... ... : ... .. 4 ... ... : ... .. D ... ...
ROW FA : ... .. . ... ... ... : ... .. D ... ... ... : ... .. . ... : ... .. 6 ... : ... .. . ... ... : ... .. . ... ... : ... .. . ... ... : ... .. 8 ... ...
ROW FB : ... .. 6 ... ... ... : ... .. A ... ... ... : ... .. . ... : ... .. 3 ... : ... .. . ... ... : ... .. 3 ... ... : ... .. 3 ... ... : ... .. . ... ...
ROW FC : ... .. 5 ... ... ... : ... .. . ... ... ... : --- .. . ... : ... .. 2 ... : ... .. . ... ... : ... .. . ... ... : ... .. . ... ... : ... .. 4 ... ...
ROW FD : ... .. 4 ... ... ... : ... .. . ... ... ... : ... .. . ... : ... .. 0 ... : ... .. . ... ... : ... .. . ... ... : ... .. . ... ... : ... .. . ... ...
ROW FE : A-4 00 8 ... ... ... : A-4 00 F ... ... ... : B-1 00 . ... : 9-# 00 D ... : ... .. . ... ... : D#3 01 5 ... ... : F-4 01 5 ... ... : B-4 01 F ... ...
ROW FF : ... .. 7 ... ... ... : ... .. E ... ... ... : ... .. . ... : ... .. B ... : ... .. . ... ... : ... .. 4 ... ... : ... .. 4 ... ... : ... .. D ... ...

PATTERN 17
ROW 00 : ... .. . ... ... ... : ... .. D ... ... ... : ... .. . ... : ... .. . ... : ... .. . ... ... : ... .. . ... ... : ... .. . ... ... : ... .. 8 ... ...
ROW 01 : ... .. 6 ... ... ... : ... .. A ... ... ... : ... .. . ... : ... .. A ... : ... .. . ... ... : ... .. 3 ... ... : ... .. 3 ... ... : ... .. . ... ...
ROW 02 : ... .. 5 ... ... ... : ... .. . ... ... ... : --- .. . ... : ... .. 8 ... : ... .. . ... ... : ... .. . ... ... : ... .. . ... ... : ... .. 4 ... ...
ROW 03 : ... .. 4 ... ... ... : ... .. . ... ... ... : ... .. . ... : ... .. 7 ... : ... .. . ... ... : ... .. . ... ... : ... .. . ... ... : ... .. . ... ...
ROW 04 : B-4 00 8 ... ... ... : B-4 00 F ... ... ... : B-1 00 . ... : 6-# 00 D ... : ... .. . ... ... : F-3 01 5 ... ... : F#4 01 5 ... ... : B-3 01 F ... ...
ROW 05 : ... .. 7 ... ... ... : ... .. E ... ... ... : ... .. . ... : ... .. B ... : ... .. . ... ... : ... .. 4 ... ... : ... .. 4 ... ... : ... .. D ... ...
ROW 06 : ... .. . ... ... ... : ... .. D ... ... ... : ... .. . ... : ... .. . ... : ... .. . ... ... : ... .. . ... ... : ... .. . ... ... : ... .. 8 ... ...
ROW 07 : ... .. 6 ... ... ... : ... .. A ... ... ... : ... .. . ... : ... .. A ... : ... .. . ... ... : ... .. 3 ... ... : ... .. 3 ... ... : ... .. . ... ...
ROW 08 : ... .. 5 ... ... ... : ... .. . ... ... ... : --- .. . ... : ... .. 8 ... : ... .. . ... ... : ... .. . ... ... : ... .. . ... ... : ... .. 4 ... ...
ROW 09 : ... .. 4 ... ... ... : ... .. . ... ... ... : ... .. . ... : ... .. 7 ... : ... .. . ... ... : ... .. . ... ... : ... .. . ... ... : ... .. . ... ...
ROW 0A : C-5 00 8 ... ... ... : C-5 00 F ... ... ... : B-1 00 . ... : ... .. D ... : ... .. . ... ... : F#3 01 5 ... ... : G#4 01 5 ... ... : B-2 01 F ... ...
ROW 0B : ... .. 7 ... ... ... : ... .. E ... ... ... : ... .. . ... : ... .. B ... : ... .. . ... ... : ... .. 4 ... ... : ... .. 4 ... ... : ... .. D ... ...
ROW 0C : ... .. . ... ... ... : ... .. D ... ... ... : ... .. . ... : ... .. . ... : ... .. . ... ... : ... .. . ... ... : ... .. . ... ... : ... .. 8 ... ...
ROW 0D : ... .. 6 ... ... ... : ... .. A ... ... ... : ... .. . ... : ... .. A ... : ... .. . ... ... : ... .. 3 ... ... : ... .. 3 ... ... : ... .. . ... ...
ROW 0E : ... .. 5 ... ... ... : ... .. . ... ... ... : --- .. . ... : ... .. 8 ... : ... .. . ... ... : ... .. . ... ... : ... .. . ... ... : ... .. 4 ... ...
ROW 0F : ... .. 4 ... ... ... : ... .. . ... ... ... : ... .. . ... : ... .. 7 ... : ... .. . ... ... : ... .. . ... ... : ... .. . ... ... : ... .. . ... ...
ROW 10 : B-4 00 8 ... ... ... : A-4 00 F ... ... ... : B-1 00 . ... : 1-# 00 F ... : ... .. . ... ... : F#2 01 5 ... ... : A-4 01 5 ... ... : B-1 01 F ... ...
ROW 11 : ... .. 7 ... ... ... : ... .. E ... ... ... : ... .. . ... : ... .. C ... : ... .. . ... ... : ... .. 4 ... ... : ... .. 4 ... ... : ... .. D ... ...
ROW 12 : ... .. . ... ... ... : ... .. D ... ... ... : ... .. . ... : ... .. 6 ... : ... .. . ... ... : ... .. . ... ... : ... .. . ... ... : ... .. 8 ... ...
ROW 13 : ... .. 6 ... ... ... : ... .. A ... ... ... : ... .. . ... : ... .. 3 ... : ... .. . ... ... : ... .. 3 ... ... : ... .. 3 ... ... : ... .. . ... ...
ROW 14 : ... .. 5 ... ... ... : ... .. . ... ... ... : --- .. . ... : ... .. 2 ... : ... .. . ... ... : ... .. . ... ... : ... .. . ... ... : ... .. . ... ...
ROW 15 : ... .. 4 ... ... ... : ... .. . ... ... ... : ... .. . ... : ... .. 0 ... : ... .. . ... ... : ... .. . ... ... : ... .. . ... ... : ... .. . ... ...
ROW 16 : C-5 00 8 ... ... ... : B-4 00 F ... ... ... : B-1 00 . ... : ... .. F ... : ... .. . ... ... : G-2 01 5 ... ... : G#4 01 5 ... ... : ... .. . ... ...
ROW 17 : ... .. 7 ... ... ... : ... .. E ... ... ... : ... .. . ... : ... .. C ... : ... .. . ... ... : ... .. 4 ... ... : ... .. 4 ... ... : ... .. . ... ...
ROW 18 : ... .. . ... ... ... : ... .. D ... ... ... : ... .. . ... : ... .. 6 ... : ... .. . ... ... : ... .. . ... ... : ... .. . ... ... : ... .. . ... ...
ROW 19 : ... .. 6 ... ... ... : ... .. A ... ... ... : ... .. . ... : ... .. 3 ... : ... .. . ... ... : ... .. 3 ... ... : ... .. 3 ... ... : ... .. . ... ...
ROW 1A : ... .. 5 ... ... ... : ... .. . ... ... ... : --- .. . ... : ... .. 2 ... : ... .. . ... ... : ... .. . ... ... : ... .. . ... ... : ... .. 4 ... ...
ROW 1B : ... .. 4 ... ... ... : ... .. . ... ... ... : ... .. . ... : ... .. 0 ... : ... .. . ... ... : ... .. . ... ... : ... .. . ... ... : ... .. . ... ...
ROW 1C : B-4 00 8 ... ... ... : D-4 00 F ... ... ... : B-1 00 . ... : D-# 00 F ... : ... .. . ... ... : A-2 01 5 ... ... : F#4 01 5 ... ... : F-2 01 F ... ...
ROW 1D : ... .. 7 ... ... ... : ... .. E ... ... ... : ... .. . ... : ... .. C ... : ... .. . ... ... : ... .. 4 ... ... : ... .. 4 ... ... : ... .. D ... ...
ROW 1E : ... .. . ... ... ... : ... .. D ... ... ... : ... .. . ... : ... .. 6 ... : ... .. . ... ... : ... .. . ... ... : ... .. . ... ... : ... .. 8 ... ...
ROW 1F : ... .. 6 ... ... ... : ... .. 8 ... ... ... : ... .. . ... : ... .. 3 ... : ... .. . ... ... : ... .. 3 ... ... : ... .. 3 ... ... : ... .. . ... ...
ROW 20 : ... .. 5 ... ... ... : ... .. . ... ... ... : --- .. . ... : ... .. 2 ... : ... .. . ... ... : ... .. . ... ... : ... .. . ... ... : ... .. . ... ...
ROW 21 : ... .. 4 ... ... ... : ... .. . ... ... ... : ... .. . ... : ... .. 0 ... : ... .. . ... ... : ... .. . ... ... : ... .. . ... ... : ... .. . ... ...
ROW 22 : F#4 00 8 ... ... ... : ... .. 7 ... ... ... : B-1 00 . ... : ... .. F ... : ... .. . ... ... : B-2 01 5 ... ... : B-4 01 5 ... ... : ... .. . ... ...
ROW 23 : ... .. 7 ... ... ... : ... .. . ... ... ... : ... .. . ... : ... .. C ... : ... .. . ... ... : ... .. 4 ... ... : ... .. 4 ... ... : ... .. . ... ...
ROW 24 : ... .. . ... ... ... : ... .. . ... ... ... : ... .. . ... : ... .. 6 ... : ... .. . ... ... : ... .. . ... ... : ... .. . ... ... : ... .. . ... ...
ROW 25 : ... .. 6 ... ... ... : ... .. . ... ... ... : ... .. . ... : ... .. 3 ... : ... .. . ... ... : ... .. 3 ... ... : ... .. 3 ... ... : ... .. . ... ...
ROW 26 : ... .. 5 ... ... ... : ... .. . ... ... ... : --- .. . ... : ... .. 2 ... : ... .. . ... ... : ... .. . ... ... : ... .. . ... ... : ... .. 4 ... ...
ROW 27 : ... .. 4 ... ... ... : ... .. . ... ... ... : ... .. . ... : ... .. 0 ... : ... .. . ... ... : ... .. . ... ... : ... .. . ... ... : ... .. . ... ...
ROW 28 : F-4 00 8 ... ... ... : ... .. . ... ... ... : B-1 00 . ... : 6-# 00 F ... : ... .. . ... ... : C-3 01 5 ... ... : A-4 01 5 ... ... : E-2 01 F ... ...
ROW 29 : ... .. 7 ... ... ... : ... .. . ... ... ... : ... .. . ... : ... .. C ... : ... .. . ... ... : ... .. 4 ... ... : ... .. 4 ... ... : ... .. D ... ...
ROW 2A : ... .. . ... ... ... : ... .. . ... ... ... : ... .. . ... : ... .. 6 ... : ... .. . ... ... : ... .. . ... ... : ... .. . ... ... : ... .. 8 ... ...
ROW 2B : ... .. 6 ... ... ... : ... .. 8 ... ... ... : ... .. . ... : ... .. 3 ... : ... .. . ... ... : ... .. 3 ... ... : ... .. 3 ... ... : ... .. . ... ...
ROW 2C : ... .. 5 ... ... ... : ... .. . ... ... ... : --- .. . ... : ... .. 2 ... : ... .. . ... ... : ... .. . ... ... : ... .. . ... ... : ... .. . ... ...
ROW 2D : ... .. 4 ... ... ... : ... .. . ... ... ... : ... .. . ... : ... .. 0 ... : ... .. . ... ... : ... .. . ... ... : ... .. . ... ... : ... .. . ... ...
ROW 2E : B-3 00 8 ... ... ... : ... .. . ... ... ... : B-1 00 . ... : F-# 00 D ... : ... .. . ... ... : D-3 01 5 ... ... : G#4 01 5 ... ... : ... .. . ... ...
ROW 2F : ... .. 7 ... ... ... : ... .. . ... ... ... : ... .. . ... : ... .. B ... : ... .. . ... ... : ... .. 4 ... ... : ... .. 4 ... ... : ... .. . ... ...
ROW 30 : ... .. . ... ... ... : ... .. . ... ... ... : ... .. . ... : ... .. . ... : ... .. . ... ... : ... .. . ... ... : ... .. . ... ... : ... .. . ... ...
ROW 31 : ... .. 6 ... ... ... : ... .. . ... ... ... : ... .. . ... : ... .. A ... : ... .. . ... ... : ... .. 3 ... ... : ... .. 3 ... ... : ... .. . ... ...
ROW 32 : ... .. 5 ... ... ... : ... .. . ... ... ... : --- .. . ... : ... .. 8 ... : ... .. . ... ... : ... .. . ... ... : ... .. . ... ... : ... .. 4 ... ...
ROW 33 : ... .. 4 ... ... ... : ... .. . ... ... ... : ... .. . ... : ... .. 7 ... : ... .. . ... ... : ... .. . ... ... : ... .. . ... ... : ... .. . ... ...
ROW 34 : A-3 00 8 ... ... ... : D#4 00 8 ... ... ... : B-1 00 . ... : 5-# 00 D ... : ... .. . ... ... : B-2 01 5 ... ... : B-4 01 5 ... ... : D-2 01 F ... ...
ROW 35 : ... .. 7 ... ... ... : E-4 00 8 P7C ... ... : ... .. . ... : ... .. B ... : ... .. . ... ... : ... .. 4 ... ... : ... .. 4 ... ... : ... .. D ... ...
ROW 36 : ... .. . ... ... ... : D#4 00 8 P84 ... ... : ... .. . ... : ... .. . ... : ... .. . ... ... : ... .. . ... ... : ... .. . ... ... : ... .. 8 ... ...
ROW 37 : ... .. 6 ... ... ... : D-4 00 8 ... ... ... : ... .. . ... : ... .. A ... : ... .. . ... ... : ... .. 3 ... ... : ... .. 3 ... ... : ... .. . ... ...
ROW 38 : ... .. 5 ... ... ... : ... .. . P7C ... ... : --- .. . ... : ... .. 8 ... : ... .. . ... ... : ... .. . ... ... : ... .. . ... ... : ... .. . ... ...
ROW 39 : ... .. 4 ... ... ... : C#4 00 8 P7E ... ... : ... .. . ... : ... .. 7 ... : ... .. . ... ... : ... .. . ... ... : ... .. . ... ... : ... .. . ... ...
ROW 3A : B-3 00 8 ... ... ... : ... .. 9 P7C ... ... : B-1 00 . ... : 0-# 00 F ... : ... .. . ... ... : C-3 01 5 ... ... : A-4 01 5 ... ... : ... .. . ... ...
ROW 3B : ... .. 7 ... ... ... : ... .. . P82 ... ... : ... .. . ... : ... .. C ... : ... .. . ... ... : ... .. 4 ... ... : ... .. 4 ... ... : ... .. . ... ...
ROW 3C : ... .. . ... ... ... : D-4 00 9 P80 ... ... : ... .. . ... : ... .. 6 ... : ... .. . ... ... : ... .. . ... ... : ... .. . ... ... : ... .. . ... ...
ROW 3D : ... .. 6 ... ... ... : D#4 00 9 P7F ... ... : ... .. . ... : ... .. 3 ... : ... .. . ... ... : ... .. 3 ... ... : ... .. 3 ... ... : ... .. . ... ...
ROW 3E : ... .. 5 ... ... ... : E-4 00 9 P7C ... ... : --- .. . ... : ... .. 2 ... : ... .. . ... ... : ... .. . ... ... : ... .. . ... ... : ... .. 4 ... ...
ROW 3F : ... .. 4 ... ... ... : D#4 00 9 P84 ... ... : ... .. . ... : ... .. 0 ... : ... .. . ... ... : ... .. . ... ... : ... .. . ... ... : ... .. . ... ...
ROW 40 : F-4 00 8 ... ... ... : ... .. . P7C ... ... : B-1 00 . ... : C-# 00 F ... : ... .. . ... ... : D-3 01 5 ... ... : G-4 01 5 ... ... : B-1 01 F ... ...
ROW 41 : ... .. 7 ... ... ... : D-4 00 9 P7D ... ... : ... .. . ... : ... .. C ... : ... .. . ... ... : ... .. 4 ... ... : ... .. 4 ... ... : ... .. D ... ...
ROW 42 : ... .. . ... ... ... : C#4 00 9 P7F ... ... : ... .. . ... : ... .. 6 ... : ... .. . ... ... : ... .. . ... ... : ... .. . ... ... : ... .. 8 ... ...
ROW 43 : ... .. 6 ... ... ... : ... .. A P7C ... ... : ... .. . ... : ... .. 3 ... : ... .. . ... ... : ... .. 3 ... ... : ... .. 3 ... ... : ... .. . ... ...
ROW 44 : ... .. 5 ... ... ... : ... .. . P80 ... ... : --- .. . ... : ... .. 2 ... : ... .. . ... ... : ... .. . ... ... : ... .. . ... ... : ... .. . ... ...
ROW 45 : ... .. 4 ... ... ... : D-4 00 A P7F ... ... : ... .. . ... : ... .. 0 ... : ... .. . ... ... : ... .. . ... ... : ... .. . ... ... : ... .. . ... ...
ROW 46 : A-4 00 8 ... ... ... : D#4 00 A P7E ... ... : B-1 00 . ... : E-# 00 F ... : ... .. . ... ... : D#3 01 5 ... ... : D-5 01 5 ... ... : ... .. . ... ...
ROW 47 : ... .. 7 ... ... ... : ... .. . P85 ... ... : ... .. . ... : ... .. C ... : ... .. . ... ... : ... .. 4 ... ... : ... .. 4 ... ... : ... .. . ... ...
ROW 48 : ... .. . ... ... ... : ... .. . ... ... ... : ... .. . ... : ... .. 6 ... : ... .. . ... ... : ... .. . ... ... : ... .. . ... ... : ... .. . ... ...
ROW 49 : ... .. 6 ... ... ... : ... .. . P7E ... ... : ... .. . ... : ... .. 3 ... : ... .. . ... ... : ... .. 3 ... ... : ... .. 3 ... ... : ... .. . ... ...
ROW 4A : ... .. 5 ... ... ... : D-4 00 A P7F ... ... : --- .. . ... : ... .. 2 ... : ... .. . ... ... : ... .. . ... ... : ... .. . ... ... : ... .. . ... ...
ROW 4B : ... .. 4 ... ... ... : C#4 00 A P80 ... ... : ... .. . ... : ... .. 0 ... : ... .. . ... ... : ... .. . ... ... : ... .. . ... ... : ... .. . ... ...
ROW 4C : B-4 00 8 ... ... ... : ... .. . P7C ... ... : B-1 00 . ... : 8-# 00 F ... : ... .. . ... ... : F-3 01 5 ... ... : C-5 01 5 ... ... : ... .. . ... ...
ROW 4D : ... .. 7 ... ... ... : ... .. . P7F ... ... : ... .. . ... : ... .. C ... : ... .. . ... ... : ... .. 4 ... ... : ... .. 4 ... ... : ... .. . ... ...
ROW 4E : ... .. . ... ... ... : D-4 00 A P7D ... ... : ... .. . ... : ... .. 6 ... : ... .. . ... ... : ... .. . ... ... : ... .. . ... ... : ... .. . ... ...
ROW 4F : ... .. 6 ... ... ... : D#4 00 A P7C ... ... : ... .. . ... : ... .. 3 ... : ... .. . ... ... : ... .. 3 ... ... : ... .. 3 ... ... : ... .. . ... ...
ROW 50 : ... .. 5 ... ... ... : ... .. . P84 ... ... : --- .. . ... : ... .. 2 ... : ... .. . ... ... : ... .. . ... ... : ... .. . ... ... : ... .. . ... ...
ROW 51 : ... .. 4 ... ... ... : E-4 00 A P7C ... ... : ... .. . ... : ... .. 0 ... : ... .. . ... ... : ... .. . ... ... : ... .. . ... ... : ... .. . ... ...
ROW 52 : C-5 00 8 ... ... ... : D#4 00 A P7F ... ... : B-1 00 . ... : ... .. F ... : ... .. . ... ... : F#3 01 5 ... ... : B-4 01 5 ... ... : ... .. . ... ...
ROW 53 : ... .. 7 ... ... ... : D-4 00 2 P80 ... ... : ... .. . ... : ... .. C ... : ... .. . ... ... : ... .. 4 ... ... : ... .. 4 ... ... : ... .. . ... ...
ROW 54 : ... .. . ... ... ... : C#4 00 2 P82 ... ... : ... .. . ... : ... .. 6 ... : ... .. . ... ... : ... .. . ... ... : ... .. . ... ... : ... .. . ... ...
ROW 55 : ... .. 6 ... ... ... : ... .. . P7C ... ... : ... .. . ... : ... .. 3 ... : ... .. . ... ... : ... .. 3 ... ... : ... .. 3 ... ... : ... .. . ... ...
ROW 56 : ... .. 5 ... ... ... : ... .. 1 P7E ... ... : --- .. . ... : ... .. 2 ... : ... .. . ... ... : ... .. . ... ... : ... .. . ... ... : ... .. 4 ... ...
ROW 57 : ... .. 4 ... ... ... : D-4 00 1 P7C ... ... : ... .. . ... : ... .. 0 ... : ... .. . ... ... : ... .. . ... ... : ... .. . ... ... : ... .. . ... ...
ROW 58 : F-4 00 A ... ... ... : F-5 00 F P80 ... ... : C#5 00 . ... : 5-# 00 D ... : ... .. . ... ... : F#2 01 5 ... ... : D-5 01 5 ... ... : D-2 01 F ... ...
ROW 59 : ... .. 9 ... ... ... : ... .. E ... ... ... : D#4 00 . ... : ... .. B ... : ... .. . ... ... : ... .. 4 ... ... : ... .. 4 ... ... : ... .. D ... ...
ROW 5A : ... .. 8 ... ... ... : ... .. D ... ... ... : G#3 00 . ... : ... .. . ... : ... .. . ... ... : ... .. . ... ... : ... .. . ... ... : ... .. 8 ... ...
ROW 5B : ... .. 6 ... ... ... : ... .. A ... ... ... : G-3 00 . ... : ... .. A ... : ... .. . ... ... : ... .. 3 ... ... : ... .. 3 ... ... : --- .. . ... ...
ROW 5C : ... .. 1 ... ... ... : ... .. 2 ... ... ... : D-3 00 . ... : ... .. 8 ... : ... .. . ... ... : ... .. . ... ... : ... .. . ... ... : ... .. . ... ...
ROW 5D : ... .. . ... ... ... : ... .. . ... ... ... : ... .. . ... : ... .. 7 ... : ... .. . ... ... : ... .. . ... ... : ... .. . ... ... : ... .. . ... ...
ROW 5E : D-4 00 A ... ... ... : D-5 00 F ... ... ... : D-2 00 . ... : 1-# 00 F ... : ... .. . ... ... : G-2 01 5 ... ... : A-4 01 5 ... ... : D-2 01 F ... ...
ROW 5F : ... .. 9 ... ... ... : ... .. E ... ... ... : ... .. . ... : ... .. C ... : ... .. . ... ... : ... .. 4 ... ... : ... .. 4 ... ... : ... .. D ... ...
ROW 60 : ... .. 8 ... ... ... : ... .. D ... ... ... : ... .. . ... : ... .. 6 ... : ... .. . ... ... : ... .. . ... ... : ... .. . ... ... : ... .. 8 ... ...
ROW 61 : ... .. 6 ... ... ... : ... .. A ... ... ... : ... .. . ... : ... .. 3 ... : ... .. . ... ... : ... .. 3 ... ... : ... .. 3 ... ... : ... .. . ... ...
ROW 62 : ... .. 1 ... ... ... : ... .. 2 ... ... ... : --- .. . ... : ... .. 2 ... : ... .. . ... ... : ... .. . ... ... : ... .. . ... ... : ... .. . ... ...
ROW 63 : ... .. . ... ... ... : ... .. . ... ... ... : ... .. . ... : ... .. 0 ... : ... .. . ... ... : ... .. . ... ... : ... .. . ... ... : ... .. . ... ...
ROW 64 : A-3 00 A ... ... ... : A-4 00 F ... ... ... : D-2 00 . ... : ... .. F ... : ... .. . ... ... : A-2 01 5 ... ... : D-5 01 5 ... ... : --- .. . ... ...
ROW 65 : ... .. 9 ... ... ... : ... .. E ... ... ... : ... .. . ... : ... .. C ... : ... .. . ... ... : ... .. 4 ... ... : ... .. 4 ... ... : ... .. . ... ...
ROW 66 : ... .. 8 ... ... ... : ... .. D ... ... ... : ... .. . ... : ... .. 6 ... : ... .. . ... ... : ... .. . ... ... : ... .. . ... ... : ... .. . ... ...
ROW 67 : ... .. 6 ... ... ... : ... .. A ... ... ... : ... .. . ... : ... .. 3 ... : ... .. . ... ... : ... .. 3 ... ... : ... .. 3 ... ... : ... .. . ... ...
ROW 68 : ... .. 1 ... ... ... : ... .. 2 ... ... ... : --- .. . ... : ... .. 2 ... : ... .. . ... ... : ... .. . ... ... : ... .. . ... ... : ... .. . ... ...
ROW 69 : ... .. . ... ... ... : ... .. . ... ... ... : ... .. . ... : ... .. 0 ... : ... .. . ... ... : ... .. . ... ... : ... .. . ... ... : ... .. . ... ...
ROW 6A : F-3 00 A ... ... ... : F-4 00 F ... ... ... : C#5 00 . ... : 5-# 00 D ... : ... .. . ... ... : B-2 01 5 ... ... : F-5 01 5 ... ... : D-2 01 F ... ...
ROW 6B : ... .. 9 ... ... ... : ... .. E ... ... ... : D#4 00 . ... : ... .. B ... : ... .. . ... ... : ... .. 4 ... ... : ... .. 4 ... ... : ... .. D ... ...
ROW 6C : ... .. 8 ... ... ... : ... .. D ... ... ... : G#3 00 . ... : ... .. . ... : ... .. . ... ... : ... .. . ... ... : ... .. . ... ... : ... .. 8 ... ...
ROW 6D : ... .. 6 ... ... ... : ... .. A ... ... ... : G-3 00 . ... : ... .. A ... : ... .. . ... ... : ... .. 3 ... ... : ... .. 3 ... ... : --- .. . ... ...
ROW 6E : ... .. 1 ... ... ... : ... .. 2 ... ... ... : D-3 00 . ... : ... .. 8 ... : ... .. . ... ... : ... .. . ... ... : ... .. . ... ... : ... .. . ... ...
ROW 6F : ... .. . ... ... ... : ... .. . ... ... ... : ... .. . ... : ... .. 7 ... : ... .. . ... ... : ... .. . ... ... : ... .. . ... ... : ... .. . ... ...
ROW 70 : D-3 00 A ... ... ... : D-4 00 F ... ... ... : D-2 00 . ... : 1-# 00 F ... : ... .. . ... ... : C-3 01 5 ... ... : D-5 01 5 ... ... : D-2 01 F ... ...
ROW 71 : ... .. 9 ... ... ... : ... .. E ... ... ... : ... .. . ... : ... .. C ... : ... .. . ... ... : ... .. 4 ... ... : ... .. 4 ... ... : ... .. D ... ...
ROW 72 : ... .. 8 ... ... ... : ... .. D ... ... ... : ... .. . ... : ... .. 6 ... : ... .. . ... ... : ... .. . ... ... : ... .. . ... ... : ... .. 8 ... ...
ROW 73 : ... .. 6 ... ... ... : ... .. A ... ... ... : ... .. . ... : ... .. 3 ... : ... .. . ... ... : ... .. 3 ... ... : ... .. 3 ... ... : ... .. . ... ...
ROW 74 : ... .. 1 ... ... ... : ... .. 2 ... ... ... : --- .. . ... : ... .. 2 ... : ... .. . ... ... : ... .. . ... ... : ... .. . ... ... : ... .. . ... ...
ROW 75 : ... .. . ... ... ... : ... .. . ... ... ... : ... .. . ... : ... .. 0 ... : ... .. . ... ... : ... .. . ... ... : ... .. . ... ... : ... .. . ... ...
ROW 76 : A-2 00 A ... ... ... : A-3 00 F ... ... ... : D-2 00 . ... : ... .. F ... : ... .. . ... ... : D-3 01 5 ... ... : F-5 01 5 ... ... : --- .. . ... ...
ROW 77 : ... .. 9 ... ... ... : ... .. E ... ... ... : ... .. . ... : ... .. C ... : ... .. . ... ... : ... .. 4 ... ... : ... .. 4 ... ... : ... .. . ... ...
ROW 78 : ... .. 8 ... ... ... : ... .. D ... ... ... : ... .. . ... : ... .. 6 ... : ... .. . ... ... : ... .. . ... ... : ... .. . ... ... : ... .. . ... ...
ROW 79 : ... .. 6 ... ... ... : ... .. A ... ... ... : ... .. . ... : ... .. 3 ... : ... .. . ... ... : ... .. 3 ... ... : ... .. 3 ... ... : ... .. . ... ...
ROW 7A : ... .. 1 ... ... ... : ... .. 2 ... ... ... : --- .. . ... : ... .. 2 ... : ... .. . ... ... : ... .. . ... ... : ... .. . ... ... : ... .. . ... ...
ROW 7B : ... .. . ... ... ... : ... .. . ... ... ... : ... .. . ... : ... .. 0 ... : ... .. . ... ... : ... .. . ... ... : ... .. . ... ... : ... .. . ... ...
ROW 7C : A#2 00 A ... ... ... : A#3 00 F ... ... ... : G#4 00 . ... : 5-# 00 D ... : ... .. . ... ... : A#2 01 5 ... ... : ... .. 5 ... ... : A#1 01 F ... ...
ROW 7D : ... .. 9 ... ... ... : ... .. E ... ... ... : A#3 00 . ... : ... .. B ... : ... .. . ... ... : ... .. 4 ... ... : ... .. 4 ... ... : ... .. D ... ...
ROW 7E : ... .. 8 ... ... ... : ... .. D ... ... ... : D#3 00 . ... : ... .. . ... : ... .. . ... ... : ... .. . ... ... : ... .. . ... ... : ... .. 8 ... ...
ROW 7F : ... .. 6 ... ... ... : ... .. A ... ... ... : D-3 00 . ... : ... .. A ... : ... .. . ... ... : ... .. 3 ... ... : ... .. 3 ... ... : --- .. . ... ...
ROW 80 : ... .. 1 ... ... ... : ... .. 2 ... ... ... : A-2 00 . ... : ... .. 8 ... : ... .. . ... ... : ... .. . ... ... : ... .. . ... ... : ... .. . ... ...
ROW 81 : ... .. . ... ... ... : ... .. . ... ... ... : --- .. . ... : ... .. 7 ... : ... .. . ... ... : ... .. . ... ... : ... .. . ... ... : ... .. . ... ...
ROW 82 : C#3 00 A ... ... ... : C#4 00 F ... ... ... : A#2 00 . ... : ... .. F ... : ... .. . ... ... : C-3 01 5 ... ... : C#5 01 5 ... ... : A#1 01 F ... ...
ROW 83 : ... .. 9 ... ... ... : ... .. E ... ... ... : ... .. . ... : ... .. C ... : ... .. . ... ... : ... .. 4 ... ... : ... .. 4 ... ... : ... .. D ... ...
ROW 84 : ... .. 8 ... ... ... : ... .. D ... ... ... : ... .. . ... : ... .. 6 ... : ... .. . ... ... : ... .. . ... ... : ... .. . ... ... : ... .. 8 ... ...
ROW 85 : ... .. 6 ... ... ... : ... .. A ... ... ... : ... .. . ... : ... .. 3 ... : ... .. . ... ... : ... .. 3 ... ... : ... .. 3 ... ... : ... .. . ... ...
ROW 86 : ... .. 1 ... ... ... : ... .. 2 ... ... ... : ... .. . ... : ... .. 2 ... : ... .. . ... ... : ... .. . ... ... : ... .. . ... ... : ... .. . ... ...
ROW 87 : ... .. . ... ... ... : ... .. . ... ... ... : --- .. . ... : ... .. 0 ... : ... .. . ... ... : ... .. . ... ... : ... .. . ... ... : ... .. . ... ...
ROW 88 : F-3 00 A ... ... ... : F-4 00 F ... ... ... : C-3 00 . ... : F-# 00 F ... : ... .. . ... ... : C#3 01 5 ... ... : A#4 01 5 ... ... : --- .. . ... ...
ROW 89 : ... .. 9 ... ... ... : ... .. E ... ... ... : ... .. . ... : ... .. C ... : ... .. . ... ... : ... .. 4 ... ... : ... .. 4 ... ... : ... .. . ... ...
ROW 8A : ... .. 8 ... ... ... : ... .. D ... ... ... : ... .. . ... : ... .. 6 ... : ... .. . ... ... : ... .. . ... ... : ... .. . ... ... : ... .. . ... ...
ROW 8B : ... .. 6 ... ... ... : ... .. A ... ... ... : ... .. . ... : ... .. 3 ... : ... .. . ... ... : ... .. 3 ... ... : ... .. 3 ... ... : ... .. . ... ...
ROW 8C : ... .. 1 ... ... ... : ... .. 2 ... ... ... : ... .. . ... : ... .. 2 ... : ... .. . ... ... : ... .. . ... ... : ... .. . ... ... : ... .. . ... ...
ROW 8D : ... .. . ... ... ... : ... .. . ... ... ... : --- .. . ... : ... .. 0 ... : ... .. . ... ... : ... .. . ... ... : ... .. . ... ... : ... .. . ... ...
ROW 8E : A#3 00 A ... ... ... : A#4 00 F ... ... ... : C-3 00 . ... : D-# 00 F ... : ... .. . ... ... : F-3 01 5 ... ... : C#5 01 5 ... ... : A#1 01 F ... ...
ROW 8F : ... .. 9 ... ... ... : ... .. E ... ... ... : ... .. . ... : ... .. C ... : ... .. . ... ... : ... .. 4 ... ... : ... .. 4 ... ... : ... .. D ... ...
ROW 90 : ... .. 8 ... ... ... : ... .. D ... ... ... : ... .. . ... : ... .. 6 ... : ... .. . ... ... : ... .. . ... ... : ... .. . ... ... : ... .. 8 ... ...
ROW 91 : ... .. 6 ... ... ... : ... .. A ... ... ... : ... .. . ... : ... .. 3 ... : ... .. . ... ... : ... .. 3 ... ... : ... .. 3 ... ... : --- .. . ... ...
ROW 92 : ... .. 1 ... ... ... : ... .. 2 ... ... ... : ... .. . ... : ... .. 2 ... : ... .. . ... ... : ... .. . ... ... : ... .. . ... ... : ... .. . ... ...
ROW 93 : ... .. . ... ... ... : ... .. . ... ... ... : --- .. . ... : ... .. 0 ... : ... .. . ... ... : ... .. . ... ... : ... .. . ... ... : ... .. . ... ...
ROW 94 : C#4 00 A ... ... ... : C#5 00 F ... ... ... : C#3 00 . ... : B-# 00 F ... : ... .. . ... ... : A#3 01 5 ... ... : A#4 01 5 ... ... : A#1 01 F ... ...
ROW 95 : ... .. 9 ... ... ... : ... .. E ... ... ... : ... .. . ... : ... .. C ... : ... .. . ... ... : ... .. 4 ... ... : ... .. 4 ... ... : ... .. D ... ...
ROW 96 : ... .. 8 ... ... ... : ... .. D ... ... ... : ... .. . ... : ... .. 6 ... : ... .. . ... ... : ... .. . ... ... : ... .. . ... ... : ... .. 8 ... ...
ROW 97 : ... .. 6 ... ... ... : ... .. A ... ... ... : ... .. . ... : ... .. 3 ... : ... .. . ... ... : ... .. 3 ... ... : ... .. 3 ... ... : ... .. . ... ...
ROW 98 : ... .. 1 ... ... ... : ... .. 2 ... ... ... : ... .. . ... : ... .. 2 ... : ... .. . ... ... : ... .. . ... ... : ... .. . ... ... : ... .. . ... ...
ROW 99 : ... .. . ... ... ... : ... .. . ... ... ... : --- .. . ... : ... .. 0 ... : ... .. . ... ... : ... .. . ... ... : ... .. . ... ... : ... .. . ... ...
ROW 9A : F-4 00 A ... ... ... : F-5 00 F ... ... ... : D#3 00 . ... : 8-# 00 F ... : ... .. . ... ... : C#4 01 5 ... ... : F-4 01 5 ... ... : --- .. . ... ...
ROW 9B : ... .. 9 ... ... ... : ... .. E ... ... ... : ... .. . ... : ... .. C ... : ... .. . ... ... : ... .. 4 ... ... : ... .. 4 ... ... : ... .. . ... ...
ROW 9C : ... .. 8 ... ... ... : ... .. D ... ... ... : ... .. . ... : ... .. 6 ... : ... .. . ... ... : ... .. . ... ... : ... .. . ... ... : ... .. . ... ...
ROW 9D : ... .. 6 ... ... ... : ... .. A ... ... ... : ... .. . ... : ... .. 3 ... : ... .. . ... ... : ... .. 3 ... ... : ... .. 3 ... ... : ... .. . ... ...
ROW 9E : ... .. 1 ... ... ... : ... .. 2 ... ... ... : ... .. . ... : ... .. 2 ... : ... .. . ... ... : ... .. . ... ... : ... .. . ... ... : ... .. . ... ...
ROW 9F : ... .. . ... ... ... : ... .. . ... ... ... : --- .. . ... : ... .. 0 ... : ... .. . ... ... : ... .. . ... ... : ... .. . ... ... : ... .. . ... ...
ROW A0 : G#4 00 D ... ... ... : G#5 00 D ... ... ... : E-5 00 . ... : D-# 00 F ... : ... .. . ... ... : F-3 01 A ... ... : G#3 01 A ... ... : C-4 01 F ... ...
ROW A1 : ... .. B ... ... ... : ... .. B ... ... ... : F#4 00 . ... : ... .. . ... : ... .. . ... ... : ... .. 9 ... ... : ... .. 9 ... ... : ... .. D ... ...
ROW A2 : ... .. . ... ... ... : ... .. . ... ... ... : B-3 00 . ... : ... .. . ... : ... .. . ... ... : ... .. 8 ... ... : ... .. 8 ... ... : ... .. 8 ... ...
ROW A3 : ... .. A ... ... ... : ... .. A ... ... ... : A#3 00 . ... : C-# 00 D ... : ... .. . ... ... : ... .. 7 ... ... : ... .. 7 ... ... : ... .. . ... ...
ROW A4 : ... .. 8 ... ... ... : ... .. 8 ... ... ... : F-3 00 . ... : ... .. . ... : ... .. . ... ... : ... .. . ... ... : ... .. . ... ... : ... .. . ... ...
ROW A5 : ... .. 7 ... ... ... : ... .. 7 ... ... ... : ... .. . ... : ... .. . ... : ... .. . ... ... : ... .. 6 ... ... : ... .. 6 ... ... : ... .. . ... ...
ROW A6 : F-4 00 D ... ... ... : F-5 00 D ... ... ... : ... .. . ... : B-# 00 B ... : ... .. . ... ... : ... .. . ... ... : ... .. . ... ... : ... .. . ... ...
ROW A7 : ... .. B ... ... ... : ... .. B ... ... ... : ... .. . ... : ... .. . ... : ... .. . ... ... : ... .. 5 ... ... : ... .. 5 ... ... : ... .. . ... ...
ROW A8 : ... .. . ... ... ... : ... .. . ... ... ... : ... .. . ... : ... .. . ... : ... .. . ... ... : ... .. . ... ... : ... .. . ... ... : ... .. . ... ...
ROW A9 : ... .. A ... ... ... : ... .. A ... ... ... : ... .. . ... : ... .. 9 ... : ... .. . ... ... : ... .. . ... ... : ... .. . ... ... : ... .. . ... ...
ROW AA : ... .. 8 ... ... ... : ... .. 8 ... ... ... : --- .. . ... : ... .. . ... : ... .. . ... ... : ... .. . ... ... : ... .. . ... ... : ... .. . ... ...
ROW AB : ... .. 7 ... ... ... : ... .. 7 ... ... ... : ... .. . ... : ... .. . ... : ... .. . ... ... : ... .. . ... ... : ... .. . ... ... : ... .. . ... ...
ROW AC : C-4 00 D ... ... ... : C-5 00 D ... ... ... : F-3 00 . ... : ... .. 7 ... : ... .. . ... ... : ... .. . ... ... : ... .. . ... ... : ... .. . ... ...
ROW AD : ... .. B ... ... ... : ... .. B ... ... ... : ... .. . ... : ... .. . ... : ... .. . ... ... : ... .. . ... ... : ... .. . ... ... : ... .. . ... ...
ROW AE : ... .. . ... ... ... : ... .. . ... ... ... : ... .. . ... : ... .. . ... : ... .. . ... ... : ... .. . ... ... : ... .. . ... ... : ... .. . ... ...
ROW AF : ... .. A ... ... ... : ... .. A ... ... ... : ... .. . ... : ... .. 5 ... : ... .. . ... ... : ... .. . ... ... : ... .. . ... ... : ... .. . ... ...
ROW B0 : ... .. 8 ... ... ... : ... .. 8 ... ... ... : --- .. . ... : ... .. . ... : ... .. . ... ... : ... .. . ... ... : ... .. . ... ... : ... .. . ... ...
ROW B1 : ... .. 7 ... ... ... : ... .. 7 ... ... ... : ... .. . ... : ... .. . ... : ... .. . ... ... : ... .. . ... ... : ... .. . ... ... : ... .. . ... ...
ROW B2 : G#3 00 D ... ... ... : G#4 00 D ... ... ... : F-3 00 . ... : D-# 00 D ... : ... .. . ... ... : ... .. . ... ... : ... .. . ... ... : ... .. . ... ...
ROW B3 : ... .. B ... ... ... : ... .. B ... ... ... : ... .. . ... : ... .. B ... : ... .. . ... ... : ... .. . ... ... : ... .. . ... ... : ... .. . ... ...
ROW B4 : ... .. . ... ... ... : ... .. . ... ... ... : ... .. . ... : ... .. . ... : ... .. . ... ... : ... .. . ... ... : ... .. . ... ... : ... .. . ... ...
ROW B5 : ... .. A ... ... ... : ... .. A ... ... ... : ... .. . ... : ... .. A ... : ... .. . ... ... : ... .. . ... ... : ... .. . ... ... : ... .. . ... ...
ROW B6 : ... .. 8 ... ... ... : ... .. 8 ... ... ... : --- .. . ... : ... .. 8 ... : ... .. . ... ... : ... .. . ... ... : ... .. . ... ... : ... .. . ... ...
ROW B7 : ... .. 7 ... ... ... : ... .. 7 ... ... ... : ... .. . ... : ... .. 7 ... : ... .. . ... ... : ... .. . ... ... : ... .. . ... ... : ... .. . ... ...
ROW B8 : F-3 00 D ... ... ... : F-4 00 D ... ... ... : F-3 00 . ... : 1-# 00 F ... : ... .. . ... ... : ... .. . ... ... : ... .. . ... ... : ... .. . ... ...
ROW B9 : ... .. B ... ... ... : ... .. B ... ... ... : ... .. . ... : ... .. C ... : ... .. . ... ... : ... .. . ... ... : ... .. . ... ... : ... .. . ... ...
ROW BA : ... .. . ... ... ... : ... .. . ... ... ... : ... .. . ... : ... .. 6 ... : ... .. . ... ... : ... .. . ... ... : ... .. . ... ... : ... .. . ... ...
ROW BB : ... .. A ... ... ... : ... .. A ... ... ... : ... .. . ... : ... .. 3 ... : ... .. . ... ... : ... .. . ... ... : ... .. . ... ... : ... .. . ... ...
ROW BC : ... .. 8 ... ... ... : ... .. 8 ... ... ... : --- .. . ... : ... .. 2 ... : ... .. . ... ... : ... .. . ... ... : ... .. . ... ... : ... .. . ... ...
ROW BD : ... .. 7 ... ... ... : ... .. 7 ... ... ... : ... .. . ... : ... .. 0 ... : ... .. . ... ... : ... .. . ... ... : ... .. . ... ... : ... .. . ... ...
ROW BE : C-3 00 D ... ... ... : C-4 00 D ... ... ... : F-3 00 . ... : A-# 00 F ... : ... .. . ... ... : ... .. . ... ... : ... .. . ... ... : ... .. . ... ...
ROW BF : ... .. B ... ... ... : ... .. B ... ... ... : ... .. . ... : ... .. C ... : ... .. . ... ... : ... .. . ... ... : ... .. . ... ... : ... .. . ... ...
ROW C0 : ... .. . ... ... ... : ... .. . ... ... ... : ... .. . ... : ... .. 6 ... : ... .. . ... ... : ... .. . ... ... : ... .. . ... ... : ... .. . ... ...
ROW C1 : ... .. A ... ... ... : ... .. A ... ... ... : ... .. . ... : ... .. 3 ... : ... .. . ... ... : ... .. . ... ... : ... .. . ... ... : ... .. . ... ...
ROW C2 : ... .. 8 ... ... ... : ... .. 8 ... ... ... : --- .. . ... : ... .. 2 ... : ... .. . ... ... : ... .. . ... ... : ... .. . ... ... : ... .. . ... ...
ROW C3 : ... .. 7 ... ... ... : ... .. 7 ... ... ... : ... .. . ... : ... .. 0 ... : ... .. . ... ... : ... .. . ... ... : ... .. . ... ... : ... .. . ... ...
ROW C4 : G#4 00 D ... ... ... : G#5 00 D ... ... ... : F-3 00 . ... : 5-# 00 D ... : ... .. . ... ... : G#2 01 A ... ... : C-3 01 A ... ... : F-3 01 F ... ...
ROW C5 : ... .. B ... ... ... : ... .. B ... ... ... : ... .. . ... : ... .. B ... : ... .. . ... ... : ... .. 9 ... ... : ... .. 9 ... ... : ... .. D ... ...
ROW C6 : ... .. . ... ... ... : ... .. . ... ... ... : ... .. . ... : ... .. . ... : ... .. . ... ... : ... .. 8 ... ... : ... .. 8 ... ... : ... .. 8 ... ...
ROW C7 : ... .. A ... ... ... : ... .. A ... ... ... : ... .. . ... : ... .. A ... : ... .. . ... ... : ... .. 7 ... ... : ... .. 7 ... ... : ... .. . ... ...
ROW C8 : ... .. 8 ... ... ... : ... .. 8 ... ... ... : --- .. . ... : ... .. 8 ... : ... .. . ... ... : ... .. . ... ... : ... .. . ... ... : ... .. . ... ...
ROW C9 : ... .. 7 ... ... ... : ... .. 7 ... ... ... : ... .. . ... : ... .. 7 ... : ... .. . ... ... : ... .. 6 ... ... : ... .. 6 ... ... : ... .. . ... ...
ROW CA : F-4 00 D ... ... ... : F-5 00 D ... ... ... : F-3 00 . ... : 0-# 00 F ... : ... .. . ... ... : ... .. . ... ... : ... .. . ... ... : ... .. . ... ...
ROW CB : ... .. B ... ... ... : ... .. B ... ... ... : ... .. . ... : ... .. C ... : ... .. . ... ... : ... .. 5 ... ... : ... .. 5 ... ... : ... .. . ... ...
ROW CC : ... .. . ... ... ... : ... .. . ... ... ... : ... .. . ... : ... .. 6 ... : ... .. . ... ... : ... .. . ... ... : ... .. . ... ... : ... .. . ... ...
ROW CD : ... .. A ... ... ... : ... .. A ... ... ... : ... .. . ... : ... .. 3 ... : ... .. . ... ... : ... .. . ... ... : ... .. . ... ... : ... .. . ... ...
ROW CE : ... .. 8 ... ... ... : ... .. 8 ... ... ... : --- .. . ... : ... .. 2 ... : ... .. . ... ... : ... .. . ... ... : ... .. . ... ... : ... .. . ... ...
ROW CF : ... .. 7 ... ... ... : ... .. 7 ... ... ... : ... .. . ... : ... .. 0 ... : ... .. . ... ... : ... .. . ... ... : ... .. . ... ... : ... .. . ... ...
ROW D0 : C-4 00 D ... ... ... : C-5 00 D ... ... ... : F-3 00 . ... : D-# 00 F ... : ... .. . ... ... : ... .. . ... ... : ... .. . ... ... : ... .. . ... ...
ROW D1 : ... .. B ... ... ... : ... .. B ... ... ... : ... .. . ... : ... .. C ... : ... .. . ... ... : ... .. . ... ... : ... .. . ... ... : ... .. 4 ... ...
ROW D2 : ... .. . ... ... ... : ... .. . ... ... ... : ... .. . ... : ... .. 0 ... : ... .. . ... ... : ... .. 3 ... ... : ... .. 3 ... ... : ... .. . ... ...
ROW D3 : ... .. A ... ... ... : ... .. A ... ... ... : ... .. . ... : ... .. F ... : ... .. . ... ... : ... .. . ... ... : ... .. . ... ... : ... .. 1 ... ...
ROW D4 : ... .. 8 ... ... ... : ... .. 8 ... ... ... : --- .. . ... : ... .. C ... : ... .. . ... ... : ... .. . ... ... : ... .. . ... ... : ... .. . ... ...
ROW D5 : ... .. 7 ... ... ... : ... .. 7 ... ... ... : ... .. . ... : ... .. 0 ... : ... .. . ... ... : ... .. . ... ... : ... .. . ... ... : ... .. . ... ...
ROW D6 : G#3 00 D ... ... ... : G#4 00 D ... ... ... : F-3 00 . ... : ... .. F ... : ... .. . ... ... : F-3 01 A ... ... : G#3 01 A ... ... : C-4 01 F ... ...
ROW D7 : ... .. B ... ... ... : ... .. B ... ... ... : ... .. . ... : ... .. C ... : ... .. . ... ... : ... .. 9 ... ... : ... .. 9 ... ... : ... .. D ... ...
ROW D8 : ... .. . ... ... ... : ... .. . ... ... ... : ... .. . ... : ... .. 0 ... : ... .. . ... ... : ... .. 8 ... ... : ... .. 8 ... ... : ... .. 8 ... ...
ROW D9 : ... .. A ... ... ... : ... .. A ... ... ... : ... .. . ... : ... .. . ... : ... .. . ... ... : ... .. 7 ... ... : ... .. 7 ... ... : ... .. . ... ...
ROW DA : ... .. 8 ... ... ... : ... .. 8 ... ... ... : --- .. . ... : ... .. . ... : ... .. . ... ... : ... .. . ... ... : ... .. . ... ... : ... .. . ... ...
ROW DB : ... .. 7 ... ... ... : ... .. 7 ... ... ... : ... .. . ... : ... .. . ... : ... .. . ... ... : ... .. 6 ... ... : ... .. 6 ... ... : ... .. . ... ...
ROW DC : F-3 00 D ... ... ... : F-4 00 D ... ... ... : F-3 00 . ... : 5-# 00 D ... : ... .. . ... ... : ... .. . ... ... : ... .. . ... ... : ... .. . ... ...
ROW DD : ... .. B ... ... ... : ... .. B ... ... ... : ... .. . ... : ... .. B ... : ... .. . ... ... : ... .. 5 ... ... : ... .. 5 ... ... : ... .. . ... ...
ROW DE : ... .. . ... ... ... : ... .. . ... ... ... : ... .. . ... : ... .. . ... : ... .. . ... ... : ... .. . ... ... : ... .. . ... ... : ... .. . ... ...
ROW DF : ... .. A ... ... ... : ... .. A ... ... ... : ... .. . ... : ... .. A ... : ... .. . ... ... : ... .. . ... ... : ... .. . ... ... : ... .. . ... ...
ROW E0 : ... .. 8 ... ... ... : ... .. 8 ... ... ... : --- .. . ... : ... .. 8 ... : ... .. . ... ... : ... .. . ... ... : ... .. . ... ... : ... .. . ... ...
ROW E1 : ... .. 7 ... ... ... : ... .. 7 ... ... ... : ... .. . ... : ... .. 7 ... : ... .. . ... ... : ... .. . ... ... : ... .. . ... ... : ... .. . ... ...
ROW E2 : C-3 00 D ... ... ... : C-4 00 D ... ... ... : F-3 00 . ... : F-# 00 D ... : ... .. . ... ... : ... .. . ... ... : ... .. . ... ... : ... .. . ... ...
ROW E3 : ... .. B ... ... ... : ... .. B ... ... ... : ... .. . ... : ... .. B ... : ... .. . ... ... : ... .. . ... ... : ... .. . ... ... : ... .. . ... ...
ROW E4 : ... .. . ... ... ... : ... .. . ... ... ... : ... .. . ... : ... .. . ... : ... .. . ... ... : ... .. . ... ... : ... .. . ... ... : ... .. . ... ...
ROW E5 : ... .. A ... ... ... : ... .. A ... ... ... : ... .. . ... : ... .. A ... : ... .. . ... ... : ... .. . ... ... : ... .. . ... ... : ... .. . ... ...
ROW E6 : ... .. 8 ... ... ... : ... .. 8 ... ... ... : --- .. . ... : ... .. 8 ... : ... .. . ... ... : ... .. . ... ... : ... .. . ... ... : ... .. 4 ... ...
ROW E7 : ... .. 7 ... ... ... : ... .. 7 ... ... ... : ... .. . ... : ... .. 7 ... : ... .. . ... ... : ... .. 3 ... ... : ... .. 3 ... ... : ... .. . ... ...
ROW E8 : A#4 00 D ... ... ... : A#5 00 D ... ... ... : E-5 00 . ... : D-# 00 F ... : ... .. . ... ... : ... .. A ... ... : ... .. A ... ... : ... .. F ... ...
ROW E9 : ... .. B ... ... ... : ... .. B ... ... ... : F#4 00 . ... : ... .. . ... : ... .. . ... ... : ... .. 9 ... ... : ... .. 9 ... ... : ... .. D ... ...
ROW EA : ... .. . ... ... ... : ... .. . ... ... ... : B-3 00 . ... : ... .. . ... : ... .. . ... ... : ... .. 8 ... ... : ... .. 8 ... ... : ... .. 8 ... ...
ROW EB : ... .. A ... ... ... : ... .. A ... ... ... : A#3 00 . ... : C-# 00 D ... : ... .. . ... ... : ... .. 7 ... ... : ... .. 7 ... ... : ... .. . ... ...
ROW EC : ... .. 8 ... ... ... : ... .. 8 ... ... ... : F-3 00 . ... : ... .. . ... : ... .. . ... ... : ... .. . ... ... : ... .. . ... ... : ... .. . ... ...
ROW ED : ... .. 7 ... ... ... : ... .. 7 ... ... ... : ... .. . ... : ... .. . ... : ... .. . ... ... : ... .. 6 ... ... : ... .. 6 ... ... : ... .. . ... ...
ROW EE : F#4 00 D ... ... ... : F#5 00 D ... ... ... : ... .. . ... : B-# 00 B ... : ... .. . ... ... : ... .. . ... ... : ... .. . ... ... : ... .. . ... ...
ROW EF : ... .. B ... ... ... : ... .. B ... ... ... : ... .. . ... : ... .. . ... : ... .. . ... ... : ... .. 5 ... ... : ... .. 5 ... ... : ... .. . ... ...
ROW F0 : ... .. . ... ... ... : ... .. . ... ... ... : ... .. . ... : ... .. . ... : ... .. . ... ... : ... .. . ... ... : ... .. . ... ... : ... .. . ... ...
ROW F1 : ... .. A ... ... ... : ... .. A ... ... ... : D#3 00 . P88 : ... .. 9 ... : ... .. . ... ... : ... .. . ... ... : ... .. . ... ... : ... .. . ... ...
ROW F2 : ... .. 8 ... ... ... : ... .. 8 ... ... ... : D-3 00 . P7D : ... .. . ... : ... .. . ... ... : ... .. . ... ... : ... .. . ... ... : ... .. 4 ... ...
ROW F3 : ... .. 7 ... ... ... : ... .. 7 ... ... ... : C-3 00 . P8C : ... .. . ... : ... .. . ... ... : ... .. 3 ... ... : ... .. 3 ... ... : ... .. . ... ...
ROW F4 : C#4 00 D ... ... ... : C#5 00 D ... ... ... : B-2 00 . P85 : ... .. 7 ... : ... .. . ... ... : ... .. . ... ... : ... .. . ... ... : ... .. 1 ... ...
ROW F5 : ... .. B ... ... ... : ... .. B ... ... ... : A#2 00 . P80 : ... .. . ... : ... .. . ... ... : ... .. . ... ... : ... .. . ... ... : ... .. . ... ...
ROW F6 : ... .. . ... ... ... : ... .. . ... ... ... : A-2 00 . P7C : ... .. . ... : ... .. . ... ... : ... .. . ... ... : ... .. . ... ... : ... .. . ... ...
ROW F7 : ... .. A ... ... ... : ... .. A ... ... ... : G#2 00 . P7B : ... .. 5 ... : ... .. . ... ... : ... .. . ... ... : ... .. . ... ... : ... .. . ... ...
ROW F8 : ... .. 8 ... ... ... : ... .. 8 ... ... ... : G-2 00 . ... : ... .. . ... : ... .. . ... ... : ... .. . ... ... : ... .. . ... ... : ... .. . ... ...
ROW F9 : ... .. 7 ... ... ... : ... .. 7 ... ... ... : F#2 00 . P7D : ... .. . ... : ... .. . ... ... : ... .. . ... ... : ... .. . ... ... : ... .. . ... ...
ROW FA : A#3 00 D ... ... ... : A#4 00 D ... ... ... : E-4 00 . P80 : D-# 00 F ... : ... .. . ... ... : D#3 01 A ... ... : F#3 01 A ... ... : A#3 01 F ... ...
ROW FB : ... .. B ... ... ... : ... .. B ... ... ... : F#3 00 . ... : ... .. . ... : ... .. . ... ... : ... .. 9 ... ... : ... .. 9 ... ... : ... .. D ... ...
ROW FC : ... .. . ... ... ... : ... .. . ... ... ... : B-2 00 . ... : ... .. . ... : ... .. . ... ... : ... .. 8 ... ... : ... .. 8 ... ... : ... .. 8 ... ...
ROW FD : ... .. A ... ... ... : ... .. A ... ... ... : A#2 00 . ... : C-# 00 D ... : ... .. . ... ... : ... .. 7 ... ... : ... .. 7 ... ... : ... .. . ... ...
ROW FE : ... .. 8 ... ... ... : ... .. 8 ... ... ... : F-2 00 . ... : ... .. . ... : ... .. . ... ... : ... .. . ... ... : ... .. . ... ... : ... .. . ... ...
ROW FF : ... .. 7 ... ... ... : ... .. 7 ... ... ... : ... .. . ... : ... .. . ... : ... .. . ... ... : ... .. 6 ... ... : ... .. 6 ... ... : ... .. . ... ...

PATTERN 18
ROW 00 : F#3 00 D ... ... ... : F#4 00 D ... ... ... : ... .. . ... : B-# 00 B ... : ... .. . ... ... : ... .. . ... ... : ... .. . ... ... : ... .. . ... ...
ROW 01 : ... .. B ... ... ... : ... .. B ... ... ... : ... .. . ... : ... .. . ... : ... .. . ... ... : ... .. 5 ... ... : ... .. 5 ... ... : ... .. . ... ...
ROW 02 : ... .. . ... ... ... : ... .. . ... ... ... : ... .. . ... : ... .. . ... : ... .. . ... ... : ... .. . ... ... : ... .. . ... ... : ... .. . ... ...
ROW 03 : ... .. A ... ... ... : ... .. A ... ... ... : ... .. . ... : ... .. 9 ... : ... .. . ... ... : ... .. . ... ... : ... .. . ... ... : ... .. . ... ...
ROW 04 : ... .. 8 ... ... ... : ... .. 8 ... ... ... : ... .. . ... : ... .. . ... : ... .. . ... ... : ... .. . ... ... : ... .. . ... ... : ... .. . ... ...
ROW 05 : ... .. 7 ... ... ... : ... .. 7 ... ... ... : ... .. . ... : ... .. . ... : ... .. . ... ... : ... .. . ... ... : ... .. . ... ... : ... .. . ... ...
ROW 06 : C#3 00 D ... ... ... : C#4 00 D ... ... ... : F#2 00 . P8C : ... .. 7 ... : ... .. . ... ... : ... .. . ... ... : ... .. . ... ... : ... .. . ... ...
ROW 07 : ... .. B ... ... ... : ... .. B ... ... ... : G#2 00 . P7A : ... .. . ... : ... .. . ... ... : ... .. . ... ... : ... .. . ... ... : ... .. . ... ...
ROW 08 : ... .. . ... ... ... : ... .. . ... ... ... : A-2 00 . P8B : ... .. . ... : ... .. . ... ... : ... .. . ... ... : ... .. . ... ... : ... .. . ... ...
ROW 09 : ... .. A ... ... ... : ... .. A ... ... ... : B-2 00 . P84 : ... .. 5 ... : ... .. . ... ... : ... .. . ... ... : ... .. . ... ... : ... .. . ... ...
ROW 0A : ... .. 8 ... ... ... : ... .. 8 ... ... ... : C#3 00 . P83 : ... .. . ... : ... .. . ... ... : ... .. . ... ... : ... .. . ... ... : ... .. . ... ...
ROW 0B : ... .. 7 ... ... ... : ... .. 7 ... ... ... : D#3 00 . P87 : ... .. . ... : ... .. . ... ... : ... .. . ... ... : ... .. . ... ... : ... .. . ... ...
ROW 0C : A#4 00 D ... ... ... : A#5 00 D ... ... ... : F-3 00 . P80 : 5-# 00 D ... : ... .. . ... ... : ... .. . ... ... : ... .. . ... ... : ... .. . ... ...
ROW 0D : ... .. B ... ... ... : ... .. B ... ... ... : ... .. . ... : ... .. B ... : ... .. . ... ... : ... .. . ... ... : ... .. . ... ... : ... .. . ... ...
ROW 0E : ... .. . ... ... ... : ... .. . ... ... ... : ... .. . ... : ... .. . ... : ... .. . ... ... : ... .. . ... ... : ... .. . ... ... : ... .. . ... ...
ROW 0F : ... .. A ... ... ... : ... .. A ... ... ... : ... .. . ... : ... .. A ... : ... .. . ... ... : ... .. . ... ... : ... .. . ... ... : ... .. . ... ...
ROW 10 : ... .. 8 ... ... ... : ... .. 8 ... ... ... : --- .. . ... : ... .. 8 ... : ... .. . ... ... : ... .. . ... ... : ... .. . ... ... : ... .. . ... ...
ROW 11 : ... .. 7 ... ... ... : ... .. 7 ... ... ... : ... .. . ... : ... .. 7 ... : ... .. . ... ... : ... .. . ... ... : ... .. . ... ... : ... .. . ... ...
ROW 12 : F#4 00 D ... ... ... : F#5 00 D ... ... ... : F-3 00 . ... : A-# 00 F ... : ... .. . ... ... : ... .. . ... ... : ... .. . ... ... : ... .. . ... ...
ROW 13 : ... .. B ... ... ... : ... .. B ... ... ... : ... .. . ... : ... .. C ... : ... .. . ... ... : ... .. . ... ... : ... .. . ... ... : ... .. . ... ...
ROW 14 : ... .. . ... ... ... : ... .. . ... ... ... : ... .. . ... : ... .. 6 ... : ... .. . ... ... : ... .. . ... ... : ... .. . ... ... : ... .. . ... ...
ROW 15 : ... .. A ... ... ... : ... .. A ... ... ... : ... .. . ... : ... .. 3 ... : ... .. . ... ... : ... .. . ... ... : ... .. . ... ... : ... .. . ... ...
ROW 16 : ... .. 8 ... ... ... : ... .. 8 ... ... ... : --- .. . ... : ... .. 2 ... : ... .. . ... ... : ... .. . ... ... : ... .. . ... ... : ... .. . ... ...
ROW 17 : ... .. 7 ... ... ... : ... .. 7 ... ... ... : ... .. . ... : ... .. 0 ... : ... .. . ... ... : ... .. . ... ... : ... .. . ... ... : ... .. . ... ...
ROW 18 : C#4 00 D ... ... ... : C#5 00 D ... ... ... : F-3 00 . ... : ... .. F ... : ... .. . ... ... : ... .. . ... ... : ... .. . ... ... : ... .. . ... ...
ROW 19 : ... .. B ... ... ... : ... .. B ... ... ... : ... .. . ... : ... .. C ... : ... .. . ... ... : ... .. . ... ... : ... .. . ... ... : ... .. . ... ...
ROW 1A : ... .. . ... ... ... : ... .. . ... ... ... : ... .. . ... : ... .. 6 ... : ... .. . ... ... : ... .. . ... ... : ... .. . ... ... : ... .. . ... ...
ROW 1B : ... .. A ... ... ... : ... .. A ... ... ... : ... .. . ... : ... .. 3 ... : ... .. . ... ... : ... .. . ... ... : ... .. . ... ... : ... .. . ... ...
ROW 1C : ... .. 8 ... ... ... : ... .. 8 ... ... ... : --- .. . ... : ... .. 2 ... : ... .. . ... ... : ... .. . ... ... : ... .. . ... ... : ... .. . ... ...
ROW 1D : ... .. 7 ... ... ... : ... .. 7 ... ... ... : ... .. . ... : ... .. 0 ... : ... .. . ... ... : ... .. . ... ... : ... .. . ... ... : ... .. . ... ...
ROW 1E : A#3 00 D ... ... ... : A#4 00 D ... ... ... : F-3 00 . ... : 9-# 00 D ... : ... .. . ... ... : ... .. . ... ... : ... .. . ... ... : ... .. . ... ...
ROW 1F : ... .. B ... ... ... : ... .. B ... ... ... : ... .. . ... : ... .. B ... : ... .. . ... ... : ... .. . ... ... : ... .. . ... ... : ... .. . ... ...
ROW 20 : ... .. . ... ... ... : ... .. . ... ... ... : ... .. . ... : ... .. . ... : ... .. . ... ... : ... .. . ... ... : ... .. . ... ... : ... .. . ... ...
ROW 21 : ... .. A ... ... ... : ... .. A ... ... ... : ... .. . ... : ... .. A ... : ... .. . ... ... : ... .. . ... ... : ... .. . ... ... : ... .. . ... ...
ROW 22 : ... .. 8 ... ... ... : ... .. 8 ... ... ... : --- .. . ... : ... .. 8 ... : ... .. . ... ... : ... .. . ... ... : ... .. . ... ... : ... .. . ... ...
ROW 23 : ... .. 7 ... ... ... : ... .. 7 ... ... ... : ... .. . ... : ... .. 7 ... : ... .. . ... ... : ... .. . ... ... : ... .. . ... ... : ... .. . ... ...
ROW 24 : F#3 00 D ... ... ... : F#4 00 D ... ... ... : F-3 00 . ... : 6-# 00 D ... : ... .. . ... ... : ... .. . ... ... : ... .. . ... ... : ... .. . P85 ...
ROW 25 : ... .. B ... ... ... : ... .. B ... ... ... : ... .. . ... : ... .. B ... : ... .. . ... ... : ... .. . ... ... : ... .. . ... ... : ... .. . P87 ...
ROW 26 : ... .. . ... ... ... : ... .. . ... ... ... : ... .. . ... : ... .. . ... : ... .. . ... ... : ... .. . ... ... : ... .. . ... ... : ... .. . P86 ...
ROW 27 : ... .. A ... ... ... : ... .. A ... ... ... : ... .. . ... : ... .. A ... : ... .. . ... ... : ... .. . ... ... : ... .. . ... ... : ... .. . P83 ...
ROW 28 : ... .. 8 ... ... ... : ... .. 8 ... ... ... : --- .. . ... : ... .. 8 ... : ... .. . ... ... : ... .. . ... ... : ... .. . ... ... : ... .. . P7F ...
ROW 29 : ... .. 7 ... ... ... : ... .. 7 ... ... ... : ... .. . ... : ... .. 7 ... : ... .. . ... ... : ... .. . ... ... : ... .. . ... ... : ... .. . P7C ...
ROW 2A : C#3 00 D ... ... ... : C#4 00 D ... ... ... : F-3 00 . ... : ... .. D ... : ... .. . ... ... : ... .. . ... ... : ... .. . ... ... : ... .. . P7B ...
ROW 2B : ... .. B ... ... ... : ... .. B ... ... ... : ... .. . ... : ... .. B ... : ... .. . ... ... : ... .. . ... ... : ... .. . ... ... : ... .. . P7D ...
ROW 2C : ... .. . ... ... ... : ... .. . ... ... ... : ... .. . ... : ... .. . ... : ... .. . ... ... : ... .. . ... ... : ... .. . ... ... : ... .. . P81 ...
ROW 2D : ... .. A ... ... ... : ... .. A ... ... ... : ... .. . ... : ... .. A ... : ... .. . ... ... : ... .. . ... ... : ... .. . ... ... : ... .. . P84 ...
ROW 2E : ... .. 8 ... ... ... : ... .. 8 ... ... ... : --- .. . ... : ... .. 8 ... : ... .. . ... ... : ... .. . ... ... : ... .. . ... ... : ... .. . P87 ...
ROW 2F : ... .. 7 ... ... ... : ... .. 7 ... ... ... : ... .. . ... : ... .. 7 ... : ... .. . ... ... : ... .. . ... ... : ... .. . ... ... : ... .. . ... ...
ROW 30 : A#4 00 D ... ... ... : A#5 00 D ... ... ... : E-5 00 . ... : 1-# 00 F ... : ... .. . ... ... : ... .. . ... ... : ... .. . ... ... : ... .. . P83 ...
ROW 31 : ... .. B ... ... ... : ... .. B ... ... ... : F#4 00 . ... : ... .. C ... : ... .. . ... ... : ... .. . ... ... : ... .. . ... ... : ... .. . P80 ...
ROW 32 : ... .. . ... ... ... : ... .. . ... ... ... : B-3 00 . ... : ... .. 6 ... : ... .. . ... ... : ... .. . ... ... : ... .. . ... ... : ... .. . P7C ...
ROW 33 : ... .. A ... ... ... : ... .. A ... ... ... : A#3 00 . ... : ... .. 3 ... : ... .. . ... ... : ... .. . ... ... : ... .. . ... ... : ... .. . P7B ...
ROW 34 : ... .. 8 ... ... ... : ... .. 8 ... ... ... : F-3 00 . ... : ... .. 2 ... : ... .. . ... ... : ... .. . ... ... : ... .. . ... ... : ... .. . P7D ...
ROW 35 : ... .. 7 ... ... ... : ... .. 7 ... ... ... : ... .. . ... : ... .. 0 ... : ... .. . ... ... : ... .. . ... ... : ... .. . ... ... : ... .. . P81 ...
ROW 36 : F#4 00 D ... ... ... : F#5 00 D ... ... ... : ... .. . ... : ... .. F ... : ... .. . ... ... : ... .. . ... ... : ... .. . ... ... : ... .. . P84 ...
ROW 37 : ... .. B ... ... ... : ... .. B ... ... ... : ... .. . ... : ... .. C ... : ... .. . ... ... : ... .. . ... ... : ... .. . ... ... : ... .. . P87 ...
ROW 38 : ... .. . ... ... ... : ... .. . ... ... ... : ... .. . ... : ... .. 6 ... : ... .. . ... ... : ... .. . ... ... : ... .. . ... ... : ... .. . ... ...
ROW 39 : ... .. A ... ... ... : ... .. A ... ... ... : ... .. . ... : ... .. 3 ... : ... .. . ... ... : ... .. . ... ... : ... .. . ... ... : ... .. . P84 ...
ROW 3A : ... .. 8 ... ... ... : ... .. 8 ... ... ... : --- .. . ... : ... .. 2 ... : ... .. . ... ... : ... .. . ... ... : ... .. . ... ... : ... .. . P81 ...
ROW 3B : ... .. 7 ... ... ... : ... .. 7 ... ... ... : ... .. . ... : ... .. 0 ... : ... .. . ... ... : ... .. . ... ... : ... .. . ... ... : ... .. . P7D ...
ROW 3C : C#4 00 D ... ... ... : C#5 00 D ... ... ... : F-3 00 . ... : D-# 00 F ... : ... .. . ... ... : ... .. . ... ... : ... .. . ... ... : ... .. . P7B ...
ROW 3D : ... .. B ... ... ... : ... .. B ... ... ... : ... .. . ... : ... .. C ... : ... .. . ... ... : ... .. . ... ... : ... .. . ... ... : ... .. . P7C ...
ROW 3E : ... .. . ... ... ... : ... .. . ... ... ... : ... .. . ... : ... .. 6 ... : ... .. . ... ... : ... .. . ... ... : ... .. . ... ... : ... .. . P80 ...
ROW 3F : ... .. A ... ... ... : ... .. A ... ... ... : ... .. . ... : ... .. 3 ... : ... .. . ... ... : ... .. . ... ... : ... .. . ... ... : ... .. . P83 ...
ROW 40 : ... .. 8 ... ... ... : ... .. 8 ... ... ... : --- .. . ... : ... .. 2 ... : ... .. . ... ... : ... .. . ... ... : ... .. . ... ... : ... .. . P87 ...
ROW 41 : ... .. 7 ... ... ... : ... .. 7 ... ... ... : ... .. . ... : ... .. 0 ... : ... .. . ... ... : ... .. . ... ... : ... .. . ... ... : ... .. . ... ...
ROW 42 : A#3 00 D ... ... ... : A#4 00 D ... ... ... : F-3 00 . ... : ... .. F ... : ... .. . ... ... : ... .. . ... ... : ... .. . ... ... : ... .. . P84 ...
ROW 43 : ... .. B ... ... ... : ... .. B ... ... ... : ... .. . ... : ... .. C ... : ... .. . ... ... : ... .. . ... ... : ... .. . ... ... : ... .. . P81 ...
ROW 44 : ... .. . ... ... ... : ... .. . ... ... ... : ... .. . ... : ... .. 6 ... : ... .. . ... ... : ... .. . ... ... : ... .. . ... ... : ... .. . P7D ...
ROW 45 : ... .. A ... ... ... : ... .. A ... ... ... : ... .. . ... : ... .. 3 ... : ... .. . ... ... : ... .. . ... ... : ... .. . ... ... : ... .. . P7B ...
ROW 46 : ... .. 8 ... ... ... : ... .. 8 ... ... ... : --- .. . ... : ... .. 2 ... : ... .. . ... ... : ... .. . ... ... : ... .. . ... ... : ... .. . P7C ...
ROW 47 : ... .. 7 ... ... ... : ... .. 7 ... ... ... : ... .. . ... : ... .. 0 ... : ... .. . ... ... : ... .. . ... ... : ... .. . ... ... : ... .. . P7F ...
ROW 48 : F#3 00 D ... ... ... : F#4 00 D ... ... ... : F-3 00 . ... : 6-# 00 F ... : ... .. . ... ... : ... .. . ... ... : ... .. . ... ... : ... .. . P83 ...
ROW 49 : ... .. B ... ... ... : ... .. B ... ... ... : ... .. . ... : ... .. C ... : ... .. . ... ... : ... .. . ... ... : ... .. . ... ... : ... .. . P86 ...
ROW 4A : ... .. . ... ... ... : ... .. . ... ... ... : ... .. . ... : ... .. 6 ... : ... .. . ... ... : ... .. . ... ... : ... .. . ... ... : ... .. . P87 ...
ROW 4B : ... .. A ... ... ... : ... .. A ... ... ... : ... .. . ... : ... .. 3 ... : ... .. . ... ... : ... .. . ... ... : ... .. . ... ... : ... .. . P85 ...
ROW 4C : ... .. 8 ... ... ... : ... .. 8 ... ... ... : --- .. . ... : ... .. 2 ... : ... .. . ... ... : ... .. . ... ... : ... .. . ... ... : ... .. . P81 ...
ROW 4D : ... .. 7 ... ... ... : ... .. 7 ... ... ... : ... .. . ... : ... .. 0 ... : ... .. . ... ... : ... .. . ... ... : ... .. . ... ... : ... .. . P7E ...
ROW 4E : C#3 00 D ... ... ... : C#4 00 D ... ... ... : F-3 00 . ... : F-# 00 D ... : ... .. . ... ... : ... .. . ... ... : ... .. . ... ... : ... .. . P7B ...
ROW 4F : ... .. B ... ... ... : ... .. B ... ... ... : ... .. . ... : ... .. B ... : ... .. . ... ... : ... .. . ... ... : ... .. . ... ... : ... .. . ... ...
ROW 50 : ... .. . ... ... ... : ... .. . ... ... ... : ... .. . ... : ... .. . ... : ... .. . ... ... : ... .. . ... ... : ... .. . ... ... : ... .. . P7F ...
ROW 51 : ... .. A ... ... ... : ... .. A ... ... ... : ... .. . ... : ... .. A ... : ... .. . ... ... : ... .. . ... ... : ... .. . ... ... : ... .. . P82 ...
ROW 52 : ... .. 8 ... ... ... : ... .. 8 ... ... ... : --- .. . ... : ... .. 8 ... : ... .. . ... ... : ... .. . ... ... : ... .. . ... ... : ... .. . P86 ...
ROW 53 : ... .. 7 ... ... ... : ... .. 7 ... ... ... : ... .. . ... : ... .. 7 ... : ... .. . ... ... : ... .. . ... ... : ... .. . ... ... : ... .. . P87 ...
ROW 54 : A#4 00 D ... ... ... : A#5 00 D ... ... ... : F-3 00 . ... : 5-# 00 D ... : ... .. . ... ... : F#2 01 A ... ... : A#2 01 A ... ... : D#3 01 F P81 ...
ROW 55 : ... .. B ... ... ... : ... .. B ... ... ... : ... .. . ... : ... .. B ... : ... .. . ... ... : ... .. 9 ... ... : ... .. 9 ... ... : ... .. D ... ...
ROW 56 : ... .. . ... ... ... : ... .. . ... ... ... : ... .. . ... : ... .. . ... : ... .. . ... ... : ... .. 8 ... ... : ... .. 8 ... ... : ... .. 8 ... ...
ROW 57 : ... .. A ... ... ... : ... .. A ... ... ... : ... .. . ... : ... .. A ... : ... .. . ... ... : ... .. 7 ... ... : ... .. 7 ... ... : ... .. . ... ...
ROW 58 : ... .. 8 ... ... ... : ... .. 8 ... ... ... : --- .. . ... : ... .. 8 ... : ... .. . ... ... : ... .. . ... ... : ... .. . ... ... : ... .. . ... ...
ROW 59 : ... .. 7 ... ... ... : ... .. 7 ... ... ... : ... .. . ... : ... .. 7 ... : ... .. . ... ... : ... .. 6 ... ... : ... .. 6 ... ... : ... .. . ... ...
ROW 5A : F#4 00 D ... ... ... : F#5 00 D ... ... ... : F-3 00 . ... : 0-# 00 F ... : ... .. . ... ... : ... .. . ... ... : ... .. . ... ... : ... .. . ... ...
ROW 5B : ... .. B ... ... ... : ... .. B ... ... ... : ... .. . ... : ... .. C ... : ... .. . ... ... : ... .. 5 ... ... : ... .. 5 ... ... : ... .. . ... ...
ROW 5C : ... .. . ... ... ... : ... .. . ... ... ... : ... .. . ... : ... .. 6 ... : ... .. . ... ... : ... .. . ... ... : ... .. . ... ... : ... .. . ... ...
ROW 5D : ... .. A ... ... ... : ... .. A ... ... ... : ... .. . ... : ... .. 3 ... : ... .. . ... ... : ... .. . ... ... : ... .. . ... ... : ... .. . ... ...
ROW 5E : ... .. 8 ... ... ... : ... .. 8 ... ... ... : --- .. . ... : ... .. 2 ... : ... .. . ... ... : ... .. . ... ... : ... .. . ... ... : ... .. . ... ...
ROW 5F : ... .. 7 ... ... ... : ... .. 7 ... ... ... : ... .. . ... : ... .. 0 ... : ... .. . ... ... : ... .. . ... ... : ... .. . ... ... : ... .. . ... ...
ROW 60 : C#4 00 D ... ... ... : C#5 00 D ... ... ... : F-3 00 . ... : C-# 00 F ... : ... .. . ... ... : ... .. . ... ... : ... .. . ... ... : ... .. . ... ...
ROW 61 : ... .. B ... ... ... : ... .. B ... ... ... : ... .. . ... : ... .. C ... : ... .. . ... ... : ... .. . ... ... : ... .. . ... ... : ... .. . ... ...
ROW 62 : ... .. . ... ... ... : ... .. . ... ... ... : ... .. . ... : ... .. 6 ... : ... .. . ... ... : ... .. . ... ... : ... .. . ... ... : ... .. . ... ...
ROW 63 : ... .. A ... ... ... : ... .. A ... ... ... : ... .. . ... : ... .. 3 ... : ... .. . ... ... : ... .. . ... ... : ... .. . ... ... : ... .. . ... ...
ROW 64 : ... .. 8 ... ... ... : ... .. 8 ... ... ... : --- .. . ... : ... .. 2 ... : ... .. . ... ... : ... .. . ... ... : ... .. . ... ... : ... .. . ... ...
ROW 65 : ... .. 7 ... ... ... : ... .. 7 ... ... ... : ... .. . ... : ... .. 0 ... : ... .. . ... ... : ... .. . ... ... : ... .. . ... ... : ... .. . ... ...
ROW 66 : A#3 00 D ... ... ... : A#4 00 D ... ... ... : F-3 00 . ... : E-# 00 F ... : ... .. . ... ... : D#3 01 A ... ... : F#3 01 A ... ... : A#3 01 F ... ...
ROW 67 : ... .. B ... ... ... : ... .. B ... ... ... : ... .. . ... : ... .. C ... : ... .. . ... ... : ... .. 9 ... ... : ... .. 9 ... ... : ... .. D ... ...
ROW 68 : ... .. . ... ... ... : ... .. . ... ... ... : ... .. . ... : ... .. 6 ... : ... .. . ... ... : ... .. 8 ... ... : ... .. 8 ... ... : ... .. 8 ... ...
ROW 69 : ... .. A ... ... ... : ... .. A ... ... ... : ... .. . ... : ... .. 3 ... : ... .. . ... ... : ... .. 7 ... ... : ... .. 7 ... ... : ... .. . ... ...
ROW 6A : ... .. 8 ... ... ... : ... .. 8 ... ... ... : --- .. . ... : ... .. 2 ... : ... .. . ... ... : ... .. . ... ... : ... .. . ... ... : ... .. . ... ...
ROW 6B : ... .. 7 ... ... ... : ... .. 7 ... ... ... : ... .. . ... : ... .. 0 ... : ... .. . ... ... : ... .. 6 ... ... : ... .. 6 ... ... : ... .. . ... ...
ROW 6C : F#3 00 D ... ... ... : F#4 00 D ... ... ... : F-3 00 . ... : 8-# 00 F ... : ... .. . ... ... : ... .. . ... ... : ... .. . ... ... : ... .. . ... ...
ROW 6D : ... .. B ... ... ... : ... .. B ... ... ... : ... .. . ... : ... .. C ... : ... .. . ... ... : ... .. 5 ... ... : ... .. 5 ... ... : ... .. . ... ...
ROW 6E : ... .. . ... ... ... : ... .. . ... ... ... : ... .. . ... : ... .. 6 ... : ... .. . ... ... : ... .. . ... ... : ... .. . ... ... : ... .. . ... ...
ROW 6F : ... .. A ... ... ... : ... .. A ... ... ... : ... .. . ... : ... .. 3 ... : ... .. . ... ... : ... .. . ... ... : ... .. . ... ... : ... .. . ... ...
ROW 70 : ... .. 8 ... ... ... : ... .. 8 ... ... ... : --- .. . ... : ... .. 2 ... : ... .. . ... ... : ... .. . ... ... : ... .. . ... ... : ... .. 4 ... ...
ROW 71 : ... .. 7 ... ... ... : ... .. 7 ... ... ... : ... .. . ... : ... .. 0 ... : ... .. . ... ... : ... .. 3 ... ... : ... .. 3 ... ... : ... .. . ... ...
ROW 72 : C#3 00 D ... ... ... : C#4 00 D ... ... ... : F-3 00 . ... : ... .. F ... : ... .. . ... ... : ... .. . ... ... : ... .. . ... ... : ... .. 1 ... ...
ROW 73 : ... .. B ... ... ... : ... .. B ... ... ... : ... .. . ... : ... .. C ... : ... .. . ... ... : ... .. . ... ... : ... .. . ... ... : ... .. . ... ...
ROW 74 : ... .. . ... ... ... : ... .. . ... ... ... : ... .. . ... : ... .. 6 ... : ... .. . ... ... : ... .. . ... ... : ... .. . ... ... : ... .. . ... ...
ROW 75 : ... .. A ... ... ... : ... .. A ... ... ... : ... .. . ... : ... .. 3 ... : ... .. . ... ... : ... .. . ... ... : ... .. . ... ... : ... .. . ... ...
ROW 76 : ... .. 8 ... ... ... : ... .. 8 ... ... ... : --- .. . ... : ... .. 2 ... : ... .. . ... ... : ... .. . ... ... : ... .. . ... ... : ... .. . ... ...
ROW 77 : ... .. 7 ... ... ... : ... .. 7 ... ... ... : ... .. . ... : ... .. 0 ... : ... .. . ... ... : ... .. . ... ... : ... .. . ... ... : ... .. . ... ...
ROW 78 : E-4 00 D ... ... ... : E-5 00 D ... ... ... : F-3 00 . ... : 5-# 00 D ... : ... .. . ... ... : ... .. A ... ... : ... .. A ... ... : ... .. F ... ...
ROW 79 : ... .. B ... ... ... : ... .. B ... ... ... : ... .. . ... : ... .. B ... : ... .. . ... ... : ... .. 9 ... ... : ... .. 9 ... ... : ... .. D ... ...
ROW 7A : ... .. . ... ... ... : ... .. . ... ... ... : ... .. . ... : ... .. . ... : ... .. . ... ... : ... .. 8 ... ... : ... .. 8 ... ... : ... .. 8 ... ...
ROW 7B : ... .. A ... ... ... : ... .. A ... ... ... : ... .. . ... : ... .. A ... : ... .. . ... ... : ... .. 7 ... ... : ... .. 7 ... ... : ... .. . ... ...
ROW 7C : ... .. 8 ... ... ... : ... .. 8 ... ... ... : --- .. . ... : ... .. 8 ... : ... .. . ... ... : ... .. . ... ... : ... .. . ... ... : ... .. . ... ...
ROW 7D : ... .. 7 ... ... ... : ... .. 7 ... ... ... : ... .. . ... : ... .. 7 ... : ... .. . ... ... : ... .. 6 ... ... : ... .. 6 ... ... : ... .. . ... ...
ROW 7E : C#4 00 D ... ... ... : C#5 00 D ... ... ... : F-3 00 . ... : 1-# 00 F ... : ... .. . ... ... : --- .. . P83 ... : --- .. . P81 ... : --- .. . P80 ...
ROW 7F : ... .. B ... ... ... : ... .. B ... ... ... : ... .. . ... : ... .. C ... : ... .. . ... ... : ... .. . ... ... : ... .. . ... ... : ... .. . ... ...
ROW 80 : ... .. . ... ... ... : ... .. . ... ... ... : ... .. . ... : ... .. 6 ... : ... .. . ... ... : ... .. . ... ... : ... .. . ... ... : ... .. . ... ...
ROW 81 : ... .. A ... ... ... : ... .. A ... ... ... : ... .. . ... : ... .. 3 ... : ... .. . ... ... : ... .. . ... ... : ... .. . ... ... : ... .. . ... ...
ROW 82 : ... .. 8 ... ... ... : ... .. 8 ... ... ... : --- .. . ... : ... .. 2 ... : ... .. . ... ... : ... .. . ... ... : ... .. . ... ... : ... .. . ... ...
ROW 83 : ... .. 7 ... ... ... : ... .. 7 ... ... ... : ... .. . ... : ... .. 0 ... : ... .. . ... ... : ... .. . ... ... : ... .. . ... ... : ... .. . ... ...
ROW 84 : G#3 00 D ... ... ... : G#4 00 D ... ... ... : F-3 00 . ... : ... .. F ... : ... .. . ... ... : ... .. . ... ... : ... .. . ... ... : ... .. . ... ...
ROW 85 : ... .. B ... ... ... : ... .. B ... ... ... : ... .. . ... : ... .. C ... : ... .. . ... ... : ... .. . ... ... : ... .. . ... ... : ... .. . ... ...
ROW 86 : ... .. . ... ... ... : ... .. . ... ... ... : ... .. . ... : ... .. 6 ... : ... .. . ... ... : C#3 01 A P80 ... : E-3 01 A P7F ... : G#3 01 F P81 ...
ROW 87 : ... .. A ... ... ... : ... .. A ... ... ... : ... .. . ... : ... .. 3 ... : ... .. . ... ... : ... .. 9 ... ... : ... .. 9 ... ... : ... .. D ... ...
ROW 88 : ... .. 8 ... ... ... : ... .. 8 ... ... ... : --- .. . ... : ... .. 2 ... : ... .. . ... ... : ... .. 8 ... ... : ... .. 8 ... ... : ... .. 8 ... ...
ROW 89 : ... .. 7 ... ... ... : ... .. 7 ... ... ... : ... .. . ... : ... .. 0 ... : ... .. . ... ... : --- .. . P83 ... : --- .. . P81 ... : --- .. . P80 ...
ROW 8A : E-3 00 D ... ... ... : E-4 00 D ... ... ... : F-3 00 . ... : 5-# 00 D ... : ... .. . ... ... : C#3 01 A P80 ... : E-3 01 A P7F ... : G#3 01 F P81 ...
ROW 8B : ... .. B ... ... ... : ... .. B ... ... ... : ... .. . ... : ... .. B ... : ... .. . ... ... : ... .. 9 ... ... : ... .. 9 ... ... : ... .. D ... ...
ROW 8C : ... .. . ... ... ... : ... .. . ... ... ... : ... .. . ... : ... .. . ... : ... .. . ... ... : ... .. 8 ... ... : ... .. 8 ... ... : ... .. 8 ... ...
ROW 8D : ... .. A ... ... ... : ... .. A ... ... ... : ... .. . ... : ... .. A ... : ... .. . ... ... : ... .. 7 ... ... : ... .. 7 ... ... : ... .. . ... ...
ROW 8E : ... .. 8 ... ... ... : ... .. 8 ... ... ... : --- .. . ... : ... .. 8 ... : ... .. . ... ... : ... .. . ... ... : ... .. . ... ... : ... .. . ... ...
ROW 8F : ... .. 7 ... ... ... : ... .. 7 ... ... ... : ... .. . ... : ... .. 7 ... : ... .. . ... ... : ... .. 6 ... ... : ... .. 6 ... ... : ... .. . ... ...
ROW 90 : C#3 00 D ... ... ... : C#4 00 D ... ... ... : F-3 00 . ... : 1-# 00 F ... : ... .. . ... ... : ... .. . ... ... : ... .. . ... ... : ... .. . ... ...
ROW 91 : ... .. B ... ... ... : ... .. B ... ... ... : ... .. . ... : ... .. C ... : ... .. . ... ... : ... .. 5 ... ... : ... .. 5 ... ... : ... .. . ... ...
ROW 92 : ... .. . ... ... ... : ... .. . ... ... ... : ... .. . ... : ... .. 6 ... : ... .. . ... ... : ... .. . ... ... : ... .. . ... ... : ... .. . ... ...
ROW 93 : ... .. A ... ... ... : ... .. A ... ... ... : ... .. . ... : ... .. 3 ... : ... .. . ... ... : ... .. . ... ... : ... .. . ... ... : ... .. . ... ...
ROW 94 : ... .. 8 ... ... ... : ... .. 8 ... ... ... : --- .. . ... : ... .. 2 ... : ... .. . ... ... : ... .. . ... ... : ... .. . ... ... : ... .. . ... ...
ROW 95 : ... .. 7 ... ... ... : ... .. 7 ... ... ... : ... .. . ... : ... .. 0 ... : ... .. . ... ... : ... .. . ... ... : ... .. . ... ... : ... .. . ... ...
ROW 96 : G#2 00 D ... ... ... : G#3 00 D ... ... ... : F-3 00 . ... : ... .. F ... : ... .. . ... ... : ... .. . ... ... : ... .. . ... ... : ... .. . ... ...
ROW 97 : ... .. B ... ... ... : ... .. B ... ... ... : ... .. . ... : ... .. C ... : ... .. . ... ... : ... .. . ... ... : ... .. . ... ... : ... .. . ... ...
ROW 98 : ... .. . ... ... ... : ... .. . ... ... ... : ... .. . ... : ... .. 6 ... : ... .. . ... ... : ... .. . ... ... : ... .. . ... ... : ... .. . ... ...
ROW 99 : ... .. A ... ... ... : ... .. A ... ... ... : ... .. . ... : ... .. 3 ... : ... .. . ... ... : ... .. . ... ... : ... .. . ... ... : ... .. . ... ...
ROW 9A : ... .. 8 ... ... ... : ... .. 8 ... ... ... : --- .. . ... : ... .. 2 ... : ... .. . ... ... : ... .. . ... ... : ... .. . ... ... : ... .. . ... ...
ROW 9B : ... .. 7 ... ... ... : ... .. 7 ... ... ... : ... .. . ... : ... .. 0 ... : ... .. . ... ... : ... .. . ... ... : ... .. . ... ... : ... .. . ... ...
ROW 9C : E-4 00 D ... ... ... : E-5 00 D ... ... ... : F-3 00 . ... : 5-# 00 D ... : ... .. . ... ... : ... .. . ... ... : ... .. . ... ... : ... .. . ... ...
ROW 9D : ... .. B ... ... ... : ... .. B ... ... ... : ... .. . ... : ... .. B ... : ... .. . ... ... : ... .. . ... ... : ... .. . ... ... : ... .. . ... ...
ROW 9E : ... .. . ... ... ... : ... .. . ... ... ... : ... .. . ... : ... .. . ... : ... .. . ... ... : ... .. . ... ... : ... .. . ... ... : ... .. . ... ...
ROW 9F : ... .. A ... ... ... : ... .. A ... ... ... : ... .. . ... : ... .. A ... : ... .. . ... ... : ... .. . ... ... : ... .. . ... ... : ... .. . ... ...
ROW A0 : ... .. 8 ... ... ... : ... .. 8 ... ... ... : --- .. . ... : ... .. 8 ... : ... .. . ... ... : ... .. . ... ... : ... .. . ... ... : ... .. . ... ...
ROW A1 : ... .. 7 ... ... ... : ... .. 7 ... ... ... : ... .. . ... : ... .. 7 ... : ... .. . ... ... : ... .. . ... ... : ... .. . ... ... : ... .. . ... ...
ROW A2 : C#4 00 D ... ... ... : C#5 00 D ... ... ... : F-3 00 . ... : ... .. F ... : ... .. . ... ... : ... .. . ... ... : ... .. . ... ... : ... .. . ... ...
ROW A3 : ... .. B ... ... ... : ... .. B ... ... ... : ... .. . ... : ... .. C ... : ... .. . ... ... : ... .. . ... ... : ... .. . ... ... : ... .. . ... ...
ROW A4 : ... .. . ... ... ... : ... .. . ... ... ... : ... .. . ... : ... .. 6 ... : ... .. . ... ... : ... .. . ... ... : ... .. . ... ... : ... .. . ... ...
ROW A5 : ... .. A ... ... ... : ... .. A ... ... ... : ... .. . ... : ... .. 3 ... : ... .. . ... ... : ... .. . ... ... : ... .. . ... ... : ... .. . ... ...
ROW A6 : ... .. 8 ... ... ... : ... .. 8 ... ... ... : --- .. . ... : ... .. 2 ... : ... .. . ... ... : ... .. . ... ... : ... .. . ... ... : ... .. . ... ...
ROW A7 : ... .. 7 ... ... ... : ... .. 7 ... ... ... : ... .. . ... : ... .. 0 ... : ... .. . ... ... : ... .. . ... ... : ... .. . ... ... : ... .. . ... ...
ROW A8 : G#3 00 D ... ... ... : G#4 00 D ... ... ... : F-3 00 . ... : F-# 00 F ... : ... .. . ... ... : ... .. . ... ... : ... .. . ... ... : ... .. . ... ...
ROW A9 : ... .. B ... ... ... : ... .. B ... ... ... : ... .. . ... : ... .. C ... : ... .. . ... ... : ... .. . ... ... : ... .. . ... ... : ... .. . ... ...
ROW AA : ... .. . ... ... ... : ... .. . ... ... ... : ... .. . ... : ... .. 6 ... : ... .. . ... ... : ... .. . ... ... : ... .. . ... ... : ... .. . ... ...
ROW AB : ... .. A ... ... ... : ... .. A ... ... ... : ... .. . ... : ... .. 3 ... : ... .. . ... ... : ... .. . ... ... : ... .. . ... ... : ... .. . ... ...
ROW AC : ... .. 8 ... ... ... : ... .. 8 ... ... ... : --- .. . ... : ... .. 2 ... : ... .. . ... ... : ... .. . ... ... : ... .. . ... ... : ... .. . ... ...
ROW AD : ... .. 7 ... ... ... : ... .. 7 ... ... ... : ... .. . ... : ... .. 0 ... : ... .. . ... ... : ... .. . ... ... : ... .. . ... ... : ... .. . ... ...
ROW AE : E-3 00 D ... ... ... : E-4 00 D ... ... ... : F-3 00 . ... : D-# 00 F ... : ... .. . ... ... : ... .. . ... ... : ... .. . ... ... : ... .. . ... ...
ROW AF : ... .. B ... ... ... : ... .. B ... ... ... : ... .. . ... : ... .. C ... : ... .. . ... ... : ... .. . ... ... : ... .. . ... ... : ... .. . ... ...
ROW B0 : ... .. . ... ... ... : ... .. . ... ... ... : ... .. . ... : ... .. 6 ... : ... .. . ... ... : ... .. . ... ... : ... .. . ... ... : ... .. . ... ...
ROW B1 : ... .. A ... ... ... : ... .. A ... ... ... : ... .. . ... : ... .. 3 ... : ... .. . ... ... : ... .. . ... ... : ... .. . ... ... : ... .. . ... ...
ROW B2 : ... .. 8 ... ... ... : ... .. 8 ... ... ... : --- .. . ... : ... .. 2 ... : ... .. . ... ... : ... .. . ... ... : ... .. . ... ... : ... .. . ... ...
ROW B3 : ... .. 7 ... ... ... : ... .. 7 ... ... ... : ... .. . ... : ... .. 0 ... : ... .. . ... ... : ... .. . ... ... : ... .. . ... ... : ... .. . ... ...
ROW B4 : C#3 00 D ... ... ... : C#4 00 D ... ... ... : F-3 00 . ... : B-# 00 F ... : ... .. . ... ... : ... .. . ... ... : ... .. . ... ... : ... .. . ... ...
ROW B5 : ... .. B ... ... ... : ... .. B ... ... ... : ... .. . ... : ... .. C ... : ... .. . ... ... : ... .. . ... ... : ... .. . ... ... : ... .. . ... ...
ROW B6 : ... .. . ... ... ... : ... .. . ... ... ... : ... .. . ... : ... .. 6 ... : ... .. . ... ... : ... .. . ... ... : ... .. . ... ... : ... .. . ... ...
ROW B7 : ... .. A ... ... ... : ... .. A ... ... ... : ... .. . ... : ... .. 3 ... : ... .. . ... ... : ... .. . ... ... : ... .. . ... ... : ... .. . ... ...
ROW B8 : ... .. 8 ... ... ... : ... .. 8 ... ... ... : --- .. . ... : ... .. 2 ... : ... .. . ... ... : ... .. . ... ... : ... .. . ... ... : ... .. . ... ...
ROW B9 : ... .. 7 ... ... ... : ... .. 7 ... ... ... : ... .. . ... : ... .. 0 ... : ... .. . ... ... : ... .. . ... ... : ... .. . ... ... : ... .. . ... ...
ROW BA : G#2 00 D ... ... ... : G#3 00 D ... ... ... : F-3 00 . ... : 8-# 00 F ... : ... .. . ... ... : ... .. . ... ... : ... .. . ... ... : ... .. . P85 ...
ROW BB : ... .. B ... ... ... : ... .. B ... ... ... : ... .. . ... : ... .. C ... : ... .. . ... ... : ... .. . ... ... : ... .. . ... ... : ... .. . P87 ...
ROW BC : ... .. . ... ... ... : ... .. . ... ... ... : ... .. . ... : ... .. 6 ... : ... .. . ... ... : ... .. . ... ... : ... .. . ... ... : ... .. . P86 ...
ROW BD : ... .. A ... ... ... : ... .. A ... ... ... : ... .. . ... : ... .. 3 ... : ... .. . ... ... : ... .. . ... ... : ... .. . ... ... : ... .. . P83 ...
ROW BE : ... .. 8 ... ... ... : ... .. 8 ... ... ... : --- .. . ... : ... .. 2 ... : ... .. . ... ... : ... .. . ... ... : ... .. . ... ... : ... .. . P7F ...
ROW BF : ... .. 7 ... ... ... : ... .. 7 ... ... ... : ... .. . ... : ... .. 0 ... : ... .. . ... ... : ... .. . ... ... : ... .. . ... ... : ... .. . P7C ...
ROW C0 : E-4 00 D ... ... ... : E-5 00 D ... ... ... : A#4 00 . ... : 1-# 00 F ... : ... .. . ... ... : ... .. . ... ... : ... .. . ... ... : ... .. . P7B ...
ROW C1 : ... .. B ... ... ... : ... .. B ... ... ... : C-4 00 . ... : ... .. C ... : ... .. . ... ... : ... .. . ... ... : ... .. . ... ... : ... .. . P7D ...
ROW C2 : ... .. . ... ... ... : ... .. . ... ... ... : F-3 00 . ... : ... .. 6 ... : ... .. . ... ... : ... .. . ... ... : ... .. . ... ... : ... .. . P81 ...
ROW C3 : ... .. A ... ... ... : ... .. A ... ... ... : E-3 00 . ... : ... .. 3 ... : ... .. . ... ... : ... .. . ... ... : ... .. . ... ... : ... .. . P84 ...
ROW C4 : ... .. 8 ... ... ... : ... .. 8 ... ... ... : B-2 00 . ... : ... .. 2 ... : ... .. . ... ... : ... .. . ... ... : ... .. . ... ... : ... .. . P87 ...
ROW C5 : ... .. 7 ... ... ... : ... .. 7 ... ... ... : ... .. . ... : ... .. 0 ... : ... .. . ... ... : ... .. . ... ... : ... .. . ... ... : ... .. . ... ...
ROW C6 : C#4 00 D ... ... ... : C#5 00 D ... ... ... : ... .. . ... : 9-# 00 F ... : ... .. . ... ... : ... .. . ... ... : ... .. . ... ... : ... .. . P83 ...
ROW C7 : ... .. B ... ... ... : ... .. B ... ... ... : ... .. . ... : ... .. C ... : ... .. . ... ... : ... .. . ... ... : ... .. . ... ... : ... .. . P80 ...
ROW C8 : ... .. . ... ... ... : ... .. . ... ... ... : ... .. . ... : ... .. 6 ... : ... .. . ... ... : ... .. . ... ... : ... .. . ... ... : ... .. . P7C ...
ROW C9 : ... .. A ... ... ... : ... .. A ... ... ... : ... .. . ... : ... .. 3 ... : ... .. . ... ... : ... .. . ... ... : ... .. . ... ... : ... .. . P7B ...
ROW CA : ... .. 8 ... ... ... : ... .. 8 ... ... ... : --- .. . ... : ... .. 2 ... : ... .. . ... ... : ... .. . ... ... : ... .. . ... ... : ... .. . P7D ...
ROW CB : ... .. 7 ... ... ... : ... .. 7 ... ... ... : ... .. . ... : ... .. 0 ... : ... .. . ... ... : ... .. . ... ... : ... .. . ... ... : ... .. . P81 ...
ROW CC : G#3 00 D ... ... ... : G#4 00 D ... ... ... : B-2 00 . ... : D-# 00 F ... : ... .. . ... ... : ... .. . ... ... : ... .. . ... ... : ... .. . P84 ...
ROW CD : ... .. B ... ... ... : ... .. B ... ... ... : ... .. . ... : ... .. C ... : ... .. . ... ... : ... .. . ... ... : ... .. . ... ... : ... .. . P87 ...
ROW CE : ... .. . ... ... ... : ... .. . ... ... ... : ... .. . ... : ... .. 6 ... : ... .. . ... ... : ... .. . ... ... : ... .. . ... ... : ... .. . ... ...
ROW CF : ... .. A ... ... ... : ... .. A ... ... ... : ... .. . ... : ... .. 3 ... : ... .. . ... ... : ... .. . ... ... : ... .. . ... ... : ... .. . P84 ...
ROW D0 : ... .. 8 ... ... ... : ... .. 8 ... ... ... : --- .. . ... : ... .. 2 ... : ... .. . ... ... : ... .. . ... ... : ... .. . ... ... : ... .. . P81 ...
ROW D1 : ... .. 7 ... ... ... : ... .. 7 ... ... ... : ... .. . ... : ... .. 0 ... : ... .. . ... ... : ... .. . ... ... : ... .. . ... ... : ... .. . P7D ...
ROW D2 : E-3 00 D ... ... ... : E-4 00 D ... ... ... : B-2 00 . ... : ... .. D ... : ... .. . ... ... : ... .. . ... ... : ... .. . ... ... : ... .. . P7B ...
ROW D3 : ... .. B ... ... ... : ... .. B ... ... ... : ... .. . ... : ... .. B ... : ... .. . ... ... : ... .. . ... ... : ... .. . ... ... : ... .. . P7C ...
ROW D4 : ... .. . ... ... ... : ... .. . ... ... ... : ... .. . ... : ... .. . ... : ... .. . ... ... : ... .. . ... ... : ... .. . ... ... : ... .. . P80 ...
ROW D5 : ... .. A ... ... ... : ... .. A ... ... ... : ... .. . ... : ... .. A ... : ... .. . ... ... : ... .. . ... ... : ... .. . ... ... : ... .. . P83 ...
ROW D6 : ... .. 8 ... ... ... : ... .. 8 ... ... ... : --- .. . ... : ... .. 8 ... : ... .. . ... ... : ... .. . ... ... : ... .. . ... ... : ... .. . P87 ...
ROW D7 : ... .. 7 ... ... ... : ... .. 7 ... ... ... : ... .. . ... : ... .. 7 ... : ... .. . ... ... : ... .. . ... ... : ... .. . ... ... : ... .. . ... ...
ROW D8 : C#3 00 D ... ... ... : C#4 00 D ... ... ... : B-2 00 . ... : 1-# 00 F ... : ... .. . ... ... : ... .. . ... ... : ... .. . ... ... : ... .. . P84 ...
ROW D9 : ... .. B ... ... ... : ... .. B ... ... ... : ... .. . ... : ... .. C ... : ... .. . ... ... : ... .. . ... ... : ... .. . ... ... : ... .. . P81 ...
ROW DA : ... .. . ... ... ... : ... .. . ... ... ... : ... .. . ... : ... .. 6 ... : ... .. . ... ... : ... .. . ... ... : ... .. . ... ... : ... .. . P7D ...
ROW DB : ... .. A ... ... ... : ... .. A ... ... ... : ... .. . ... : ... .. 3 ... : ... .. . ... ... : ... .. . ... ... : ... .. . ... ... : ... .. . P7B ...
ROW DC : ... .. 8 ... ... ... : ... .. 8 ... ... ... : --- .. . ... : ... .. 2 ... : ... .. . ... ... : ... .. . ... ... : ... .. . ... ... : ... .. . P7C ...
ROW DD : ... .. 7 ... ... ... : ... .. 7 ... ... ... : ... .. . ... : ... .. 0 ... : ... .. . ... ... : ... .. . ... ... : ... .. . ... ... : ... .. . P7F ...
ROW DE : G#2 00 D ... ... ... : G#3 00 D ... ... ... : B-2 00 . ... : A-# 00 F ... : ... .. . ... ... : ... .. . ... ... : ... .. . ... ... : ... .. . P83 ...
ROW DF : ... .. B ... ... ... : ... .. B ... ... ... : ... .. . ... : ... .. C ... : ... .. . ... ... : ... .. . ... ... : ... .. . ... ... : ... .. . P86 ...
ROW E0 : ... .. . ... ... ... : ... .. . ... ... ... : ... .. . ... : ... .. 6 ... : ... .. . ... ... : ... .. . ... ... : ... .. . ... ... : ... .. . P87 ...
ROW E1 : ... .. A ... ... ... : ... .. A ... ... ... : ... .. . ... : ... .. 3 ... : ... .. . ... ... : ... .. . ... ... : ... .. . ... ... : ... .. . P85 ...
ROW E2 : ... .. 8 ... ... ... : ... .. 8 ... ... ... : --- .. . ... : ... .. 2 ... : ... .. . ... ... : ... .. . ... ... : ... .. . ... ... : ... .. . P81 ...
ROW E3 : ... .. 7 ... ... ... : ... .. 7 ... ... ... : ... .. . ... : ... .. 0 ... : ... .. . ... ... : ... .. . ... ... : ... .. . ... ... : ... .. . P7E ...
ROW E4 : E-4 00 D ... ... ... : E-5 00 D ... ... ... : B-2 00 . ... : 5-# 00 D ... : ... .. . ... ... : ... .. . ... ... : ... .. . ... ... : ... .. . P7B ...
ROW E5 : ... .. B ... ... ... : ... .. B ... ... ... : ... .. . ... : ... .. B ... : ... .. . ... ... : ... .. . ... ... : ... .. . ... ... : ... .. 4 ... ...
ROW E6 : ... .. . ... ... ... : ... .. . ... ... ... : ... .. . ... : ... .. . ... : ... .. . ... ... : ... .. 3 ... ... : ... .. 3 ... ... : ... .. . P7F ...
ROW E7 : ... .. A ... ... ... : ... .. A ... ... ... : ... .. . ... : ... .. A ... : ... .. . ... ... : ... .. . ... ... : ... .. . ... ... : ... .. 1 P82 ...
ROW E8 : ... .. 8 ... ... ... : ... .. 8 ... ... ... : --- .. . ... : ... .. 8 ... : ... .. . ... ... : ... .. . ... ... : ... .. . ... ... : ... .. . P86 ...
ROW E9 : ... .. 7 ... ... ... : ... .. 7 ... ... ... : ... .. . ... : ... .. 7 ... : ... .. . ... ... : ... .. . ... ... : ... .. . ... ... : ... .. . P87 ...
ROW EA : C#4 00 D ... ... ... : C#5 00 D ... ... ... : B-2 00 . ... : 0-# 00 F ... : ... .. . ... ... : ... .. . ... ... : ... .. . ... ... : ... .. . P85 ...
ROW EB : ... .. B ... ... ... : ... .. B ... ... ... : ... .. . ... : ... .. C ... : ... .. . ... ... : ... .. . ... ... : ... .. . ... ... : ... .. . P81 ...
ROW EC : ... .. . ... ... ... : ... .. . ... ... ... : ... .. . ... : ... .. 6 ... : ... .. . ... ... : ... .. . ... ... : ... .. . ... ... : ... .. . P7E ...
ROW ED : ... .. A ... ... ... : ... .. A ... ... ... : ... .. . ... : ... .. 3 ... : ... .. . ... ... : ... .. . ... ... : ... .. . ... ... : ... .. . P7B ...
ROW EE : ... .. 8 ... ... ... : ... .. 8 ... ... ... : --- .. . ... : ... .. 2 ... : ... .. . ... ... : ... .. . ... ... : ... .. . ... ... : ... .. 0 ... ...
ROW EF : ... .. 7 ... ... ... : ... .. 7 ... ... ... : ... .. . ... : ... .. 0 ... : ... .. . ... ... : ... .. . ... ... : ... .. . ... ... : ... .. . P7E ...
ROW F0 : G#3 00 D ... ... ... : G#4 00 D ... ... ... : B-2 00 . ... : D-# 00 F ... : ... .. . ... ... : ... .. . ... ... : ... .. . ... ... : ... .. . P81 ...
ROW F1 : ... .. B ... ... ... : ... .. B ... ... ... : ... .. . ... : ... .. C ... : ... .. . ... ... : ... .. . ... ... : ... .. . ... ... : ... .. . P85 ...
ROW F2 : ... .. . ... ... ... : ... .. . ... ... ... : ... .. . ... : ... .. 0 ... : ... .. . ... ... : ... .. . ... ... : ... .. . ... ... : ... .. . P87 ...
ROW F3 : ... .. A ... ... ... : ... .. A ... ... ... : ... .. . ... : ... .. F ... : ... .. . ... ... : ... .. 1 ... ... : ... .. 1 ... ... : ... .. . P86 ...
ROW F4 : ... .. 8 ... ... ... : ... .. 8 ... ... ... : --- .. . ... : ... .. C ... : ... .. . ... ... : ... .. . ... ... : ... .. . ... ... : ... .. . P82 ...
ROW F5 : ... .. 7 ... ... ... : ... .. 7 ... ... ... : ... .. . ... : ... .. 0 ... : ... .. . ... ... : ... .. . ... ... : ... .. . ... ... : ... .. . P7F ...
ROW F6 : E-3 00 D ... ... ... : E-4 00 D ... ... ... : B-2 00 . ... : ... .. F ... : ... .. . ... ... : ... .. . ... ... : ... .. . ... ... : ... .. . P7B ...
ROW F7 : ... .. B ... ... ... : ... .. B ... ... ... : ... .. . ... : ... .. C ... : ... .. . ... ... : ... .. . ... ... : ... .. . ... ... : ... .. . ... ...
ROW F8 : ... .. . ... ... ... : ... .. . ... ... ... : ... .. . ... : ... .. 0 ... : ... .. . ... ... : ... .. . ... ... : ... .. . ... ... : ... .. . P7E ...
ROW F9 : ... .. A ... ... ... : ... .. A ... ... ... : ... .. . ... : ... .. . ... : ... .. . ... ... : ... .. . ... ... : ... .. . ... ... : ... .. . P81 ...
ROW FA : ... .. 8 ... ... ... : ... .. 8 ... ... ... : --- .. . ... : ... .. . ... : ... .. . ... ... : ... .. . ... ... : ... .. . ... ... : ... .. . P85 ...
ROW FB : ... .. 7 ... ... ... : ... .. 7 ... ... ... : ... .. . ... : ... .. . ... : ... .. . ... ... : ... .. . ... ... : ... .. . ... ... : ... .. . P87 ...
ROW FC : C#3 00 D ... ... ... : C#4 00 D ... ... ... : B-2 00 . ... : 5-# 00 D ... : ... .. . ... ... : ... .. . ... ... : ... .. . ... ... : ... .. . P86 ...
ROW FD : ... .. B ... ... ... : ... .. B ... ... ... : ... .. . ... : ... .. B ... : ... .. . ... ... : ... .. . ... ... : ... .. . ... ... : ... .. . P83 ...
ROW FE : ... .. . ... ... ... : ... .. . ... ... ... : ... .. . ... : ... .. . ... : ... .. . ... ... : ... .. . ... ... : ... .. . ... ... : ... .. . P7F ...
ROW FF : ... .. A ... ... ... : ... .. A ... ... ... : ... .. . ... : ... .. A ... : ... .. . ... ... : ... .. . ... ... : ... .. . ... ... : ... .. . P7C ...

PATTERN 19
ROW 00 : ... .. 8 ... ... ... : ... .. 8 ... ... ... : --- .. . ... : ... .. 8 ... : ... .. . ... ... : ... .. . ... ... : ... .. . ... ... : ... .. . P7B ...
ROW 01 : ... .. 7 ... ... ... : ... .. 7 ... ... ... : ... .. . ... : ... .. 7 ... : ... .. . ... ... : --- .. . P83 ... : --- .. . P81 ... : ... .. . P7D ...
ROW 02 : G#2 00 D ... ... ... : G#3 00 D ... ... ... : B-2 00 . ... : F-# 00 D ... : ... .. . ... ... : ... .. . ... ... : ... .. . ... ... : ... .. . P81 ...
ROW 03 : ... .. B ... ... ... : ... .. B ... ... ... : ... .. . ... : ... .. B ... : ... .. . ... ... : ... .. . ... ... : ... .. . ... ... : ... .. . P84 ...
ROW 04 : ... .. . ... ... ... : ... .. . ... ... ... : ... .. . ... : ... .. . ... : ... .. . ... ... : ... .. . ... ... : ... .. . ... ... : ... .. . P87 ...
ROW 05 : ... .. A ... ... ... : ... .. A ... ... ... : ... .. . ... : ... .. A ... : ... .. . ... ... : ... .. . ... ... : ... .. . ... ... : ... .. . ... ...
ROW 06 : ... .. 8 ... ... ... : ... .. 8 ... ... ... : --- .. . ... : ... .. 8 ... : ... .. . ... ... : ... .. . ... ... : ... .. . ... ... : ... .. . P83 ...
ROW 07 : ... .. 7 ... ... ... : ... .. 7 ... ... ... : ... .. . ... : ... .. 7 ... : ... .. . ... ... : ... .. . ... ... : ... .. . ... ... : ... .. . P80 ...
ROW 08 : D-4 00 D ... ... ... : D-5 00 D ... ... ... : A-4 00 . ... : D-# 00 F ... : ... .. . ... ... : B-3 01 A P80 ... : D-4 01 A P7F ... : F#4 01 F P81 ...
ROW 09 : ... .. B ... ... ... : ... .. B ... ... ... : B-3 00 . ... : ... .. . ... : ... .. . ... ... : ... .. 9 ... ... : ... .. 9 ... ... : ... .. D ... ...
ROW 0A : ... .. . ... ... ... : ... .. . ... ... ... : E-3 00 . ... : ... .. . ... : ... .. . ... ... : ... .. 8 ... ... : ... .. 8 ... ... : ... .. 8 ... ...
ROW 0B : ... .. A ... ... ... : ... .. A ... ... ... : D#3 00 . ... : C-# 00 D ... : ... .. . ... ... : ... .. 7 ... ... : ... .. 7 ... ... : ... .. . ... ...
ROW 0C : ... .. 8 ... ... ... : ... .. 8 ... ... ... : A#2 00 . ... : ... .. . ... : ... .. . ... ... : ... .. . ... ... : ... .. . ... ... : ... .. . ... ...
ROW 0D : ... .. 7 ... ... ... : ... .. 7 ... ... ... : ... .. . ... : ... .. . ... : ... .. . ... ... : ... .. 6 ... ... : ... .. 6 ... ... : ... .. . ... ...
ROW 0E : B-3 00 D ... ... ... : B-4 00 D ... ... ... : ... .. . ... : B-# 00 B ... : ... .. . ... ... : ... .. . ... ... : ... .. . ... ... : ... .. . ... ...
ROW 0F : ... .. B ... ... ... : ... .. B ... ... ... : ... .. . ... : ... .. . ... : ... .. . ... ... : ... .. 5 ... ... : ... .. 5 ... ... : ... .. . ... ...
ROW 10 : ... .. . ... ... ... : ... .. . ... ... ... : ... .. . ... : ... .. . ... : ... .. . ... ... : ... .. . ... ... : ... .. . ... ... : ... .. . ... ...
ROW 11 : ... .. A ... ... ... : ... .. A ... ... ... : ... .. . ... : ... .. 9 ... : ... .. . ... ... : ... .. . ... ... : ... .. . ... ... : ... .. . ... ...
ROW 12 : ... .. 8 ... ... ... : ... .. 8 ... ... ... : --- .. . ... : ... .. . ... : ... .. . ... ... : ... .. . ... ... : ... .. . ... ... : ... .. . ... ...
ROW 13 : ... .. 7 ... ... ... : ... .. 7 ... ... ... : ... .. . ... : ... .. . ... : ... .. . ... ... : ... .. . ... ... : ... .. . ... ... : ... .. . ... ...
ROW 14 : F#3 00 D ... ... ... : F#4 00 D ... ... ... : A#2 00 . ... : ... .. 7 ... : ... .. . ... ... : ... .. . ... ... : ... .. . ... ... : ... .. . ... ...
ROW 15 : ... .. B ... ... ... : ... .. B ... ... ... : ... .. . ... : ... .. . ... : ... .. . ... ... : ... .. . ... ... : ... .. . ... ... : ... .. . ... ...
ROW 16 : ... .. . ... ... ... : ... .. . ... ... ... : ... .. . ... : ... .. . ... : ... .. . ... ... : ... .. . ... ... : ... .. . ... ... : ... .. . ... ...
ROW 17 : ... .. A ... ... ... : ... .. A ... ... ... : ... .. . ... : ... .. 5 ... : ... .. . ... ... : ... .. . ... ... : ... .. . ... ... : ... .. . ... ...
ROW 18 : ... .. 8 ... ... ... : ... .. 8 ... ... ... : --- .. . ... : ... .. . ... : ... .. . ... ... : ... .. . ... ... : ... .. . ... ... : ... .. . ... ...
ROW 19 : ... .. 7 ... ... ... : ... .. 7 ... ... ... : ... .. . ... : ... .. . ... : ... .. . ... ... : ... .. . ... ... : ... .. . ... ... : ... .. . ... ...
ROW 1A : D-3 00 D ... ... ... : D-4 00 D ... ... ... : A#2 00 . ... : D-# 00 D ... : ... .. . ... ... : ... .. . ... ... : ... .. . ... ... : ... .. . ... ...
ROW 1B : ... .. B ... ... ... : ... .. B ... ... ... : ... .. . ... : ... .. B ... : ... .. . ... ... : ... .. . ... ... : ... .. . ... ... : ... .. . ... ...
ROW 1C : ... .. . ... ... ... : ... .. . ... ... ... : ... .. . ... : ... .. . ... : ... .. . ... ... : ... .. . ... ... : ... .. . ... ... : ... .. . ... ...
ROW 1D : ... .. A ... ... ... : ... .. A ... ... ... : ... .. . ... : ... .. A ... : ... .. . ... ... : ... .. . ... ... : ... .. . ... ... : ... .. . ... ...
ROW 1E : ... .. 8 ... ... ... : ... .. 8 ... ... ... : --- .. . ... : ... .. 8 ... : ... .. . ... ... : ... .. . ... ... : ... .. . ... ... : ... .. . ... ...
ROW 1F : ... .. 7 ... ... ... : ... .. 7 ... ... ... : ... .. . ... : ... .. 7 ... : ... .. . ... ... : ... .. . ... ... : ... .. . ... ... : ... .. . ... ...
ROW 20 : B-2 00 D ... ... ... : B-3 00 D ... ... ... : A#2 00 . ... : 1-# 00 F ... : ... .. . ... ... : ... .. . ... ... : ... .. . ... ... : ... .. . P85 ...
ROW 21 : ... .. B ... ... ... : ... .. B ... ... ... : ... .. . ... : ... .. C ... : ... .. . ... ... : ... .. . ... ... : ... .. . ... ... : G-4 01 8 P7D ...
ROW 22 : ... .. . ... ... ... : ... .. . ... ... ... : ... .. . ... : ... .. 6 ... : ... .. . ... ... : ... .. . ... ... : ... .. . ... ... : ... .. . P7C ...
ROW 23 : ... .. A ... ... ... : ... .. A ... ... ... : ... .. . ... : ... .. 3 ... : ... .. . ... ... : ... .. . ... ... : ... .. . ... ... : F#4 01 8 P83 ...
ROW 24 : ... .. 8 ... ... ... : ... .. 8 ... ... ... : --- .. . ... : ... .. 2 ... : ... .. . ... ... : ... .. . ... ... : ... .. . ... ... : ... .. . P7F ...
ROW 25 : ... .. 7 ... ... ... : ... .. 7 ... ... ... : ... .. . ... : ... .. 0 ... : ... .. . ... ... : ... .. . ... ... : ... .. . ... ... : ... .. . P7C ...
ROW 26 : F#2 00 D ... ... ... : F#3 00 D ... ... ... : A#2 00 . ... : A-# 00 F ... : ... .. . ... ... : ... .. . ... ... : ... .. . ... ... : F-4 01 8 P85 ...
ROW 27 : ... .. B ... ... ... : ... .. B ... ... ... : ... .. . ... : ... .. C ... : ... .. . ... ... : ... .. . ... ... : ... .. . ... ... : F#4 01 8 P7D ...
ROW 28 : ... .. . ... ... ... : ... .. . ... ... ... : ... .. . ... : ... .. 6 ... : ... .. . ... ... : ... .. . ... ... : ... .. . ... ... : ... .. . P81 ...
ROW 29 : ... .. A ... ... ... : ... .. A ... ... ... : ... .. . ... : ... .. 3 ... : ... .. . ... ... : ... .. . ... ... : ... .. . ... ... : ... .. . P84 ...
ROW 2A : ... .. 8 ... ... ... : ... .. 8 ... ... ... : --- .. . ... : ... .. 2 ... : ... .. . ... ... : ... .. . ... ... : ... .. . ... ... : G-4 01 8 P7D ...
ROW 2B : ... .. 7 ... ... ... : ... .. 7 ... ... ... : ... .. . ... : ... .. 0 ... : ... .. . ... ... : ... .. . ... ... : ... .. . ... ... : ... .. . ... ...
ROW 2C : D-4 00 D ... ... ... : D-5 00 D ... ... ... : A#2 00 . ... : 5-# 00 D ... : ... .. . ... ... : D-3 01 A ... ... : F#3 01 A ... ... : B-3 01 F P81 ...
ROW 2D : ... .. B ... ... ... : ... .. B ... ... ... : ... .. . ... : ... .. B ... : ... .. . ... ... : ... .. 9 ... ... : ... .. 9 ... ... : ... .. D ... ...
ROW 2E : ... .. . ... ... ... : ... .. . ... ... ... : ... .. . ... : ... .. . ... : ... .. . ... ... : ... .. 8 ... ... : ... .. 8 ... ... : ... .. 8 ... ...
ROW 2F : ... .. A ... ... ... : ... .. A ... ... ... : ... .. . ... : ... .. A ... : ... .. . ... ... : ... .. 7 ... ... : ... .. 7 ... ... : ... .. . ... ...
ROW 30 : ... .. 8 ... ... ... : ... .. 8 ... ... ... : --- .. . ... : ... .. 8 ... : ... .. . ... ... : ... .. . ... ... : ... .. . ... ... : ... .. . ... ...
ROW 31 : ... .. 7 ... ... ... : ... .. 7 ... ... ... : ... .. . ... : ... .. 7 ... : ... .. . ... ... : ... .. 6 ... ... : ... .. 6 ... ... : ... .. . ... ...
ROW 32 : B-3 00 D ... ... ... : B-4 00 D ... ... ... : A#2 00 . ... : 0-# 00 F ... : ... .. . ... ... : ... .. . ... ... : ... .. . ... ... : ... .. . ... ...
ROW 33 : ... .. B ... ... ... : ... .. B ... ... ... : ... .. . ... : ... .. C ... : ... .. . ... ... : ... .. 5 ... ... : ... .. 5 ... ... : ... .. . ... ...
ROW 34 : ... .. . ... ... ... : ... .. . ... ... ... : ... .. . ... : ... .. 6 ... : ... .. . ... ... : ... .. . ... ... : ... .. . ... ... : ... .. . ... ...
ROW 35 : ... .. A ... ... ... : ... .. A ... ... ... : ... .. . ... : ... .. 3 ... : ... .. . ... ... : ... .. . ... ... : ... .. . ... ... : ... .. . ... ...
ROW 36 : ... .. 8 ... ... ... : ... .. 8 ... ... ... : --- .. . ... : ... .. 2 ... : ... .. . ... ... : ... .. . ... ... : ... .. . ... ... : ... .. . ... ...
ROW 37 : ... .. 7 ... ... ... : ... .. 7 ... ... ... : ... .. . ... : ... .. 0 ... : ... .. . ... ... : ... .. . ... ... : ... .. . ... ... : ... .. . ... ...
ROW 38 : F#3 00 D ... ... ... : F#4 00 D ... ... ... : A#2 00 . ... : D-# 00 F ... : ... .. . ... ... : ... .. . ... ... : ... .. . ... ... : ... .. . ... ...
ROW 39 : ... .. B ... ... ... : ... .. B ... ... ... : ... .. . ... : ... .. C ... : ... .. . ... ... : ... .. . ... ... : ... .. . ... ... : ... .. 4 ... ...
ROW 3A : ... .. . ... ... ... : ... .. . ... ... ... : ... .. . ... : ... .. 0 ... : ... .. . ... ... : ... .. 3 ... ... : ... .. 3 ... ... : ... .. . ... ...
ROW 3B : ... .. A ... ... ... : ... .. A ... ... ... : ... .. . ... : ... .. F ... : ... .. . ... ... : ... .. . ... ... : ... .. . ... ... : ... .. 1 ... ...
ROW 3C : ... .. 8 ... ... ... : ... .. 8 ... ... ... : --- .. . ... : ... .. C ... : ... .. . ... ... : ... .. . ... ... : ... .. . ... ... : ... .. . ... ...
ROW 3D : ... .. 7 ... ... ... : ... .. 7 ... ... ... : ... .. . ... : ... .. 0 ... : ... .. . ... ... : ... .. . ... ... : ... .. . ... ... : ... .. . ... ...
ROW 3E : D-3 00 D ... ... ... : D-4 00 D ... ... ... : A#2 00 . ... : ... .. F ... : ... .. . ... ... : B-3 01 A ... ... : D-4 01 A ... ... : F#4 01 F ... ...
ROW 3F : ... .. B ... ... ... : ... .. B ... ... ... : ... .. . ... : ... .. C ... : ... .. . ... ... : ... .. 9 ... ... : ... .. 9 ... ... : ... .. D ... ...
ROW 40 : ... .. . ... ... ... : ... .. . ... ... ... : ... .. . ... : ... .. 0 ... : ... .. . ... ... : ... .. 8 ... ... : ... .. 8 ... ... : ... .. 8 ... ...
ROW 41 : ... .. A ... ... ... : ... .. A ... ... ... : ... .. . ... : ... .. . ... : ... .. . ... ... : ... .. 7 ... ... : ... .. 7 ... ... : ... .. . ... ...
ROW 42 : ... .. 8 ... ... ... : ... .. 8 ... ... ... : --- .. . ... : ... .. . ... : ... .. . ... ... : ... .. . ... ... : ... .. . ... ... : ... .. . ... ...
ROW 43 : ... .. 7 ... ... ... : ... .. 7 ... ... ... : ... .. . ... : ... .. . ... : ... .. . ... ... : ... .. 6 ... ... : ... .. 6 ... ... : ... .. . ... ...
ROW 44 : B-2 00 D ... ... ... : B-3 00 D ... ... ... : A#2 00 . ... : 5-# 00 D ... : ... .. . ... ... : ... .. . ... ... : ... .. . ... ... : ... .. . ... ...
ROW 45 : ... .. B ... ... ... : ... .. B ... ... ... : ... .. . ... : ... .. B ... : ... .. . ... ... : ... .. 5 ... ... : ... .. 5 ... ... : ... .. . ... ...
ROW 46 : ... .. . ... ... ... : ... .. . ... ... ... : ... .. . ... : ... .. . ... : ... .. . ... ... : ... .. . ... ... : ... .. . ... ... : ... .. . ... ...
ROW 47 : ... .. A ... ... ... : ... .. A ... ... ... : ... .. . ... : ... .. A ... : ... .. . ... ... : ... .. . ... ... : ... .. . ... ... : ... .. . ... ...
ROW 48 : ... .. 8 ... ... ... : ... .. 8 ... ... ... : --- .. . ... : ... .. 8 ... : ... .. . ... ... : ... .. . ... ... : ... .. . ... ... : ... .. . ... ...
ROW 49 : ... .. 7 ... ... ... : ... .. 7 ... ... ... : ... .. . ... : ... .. 7 ... : ... .. . ... ... : ... .. . ... ... : ... .. . ... ... : ... .. . ... ...
ROW 4A : F#2 00 D ... ... ... : F#3 00 D ... ... ... : A#2 00 . ... : F-# 00 D ... : ... .. . ... ... : ... .. . ... ... : ... .. . ... ... : ... .. . ... ...
ROW 4B : ... .. B ... ... ... : ... .. B ... ... ... : ... .. . ... : ... .. B ... : ... .. . ... ... : ... .. . ... ... : ... .. . ... ... : ... .. . ... ...
ROW 4C : ... .. . ... ... ... : ... .. . ... ... ... : ... .. . ... : ... .. . ... : ... .. . ... ... : ... .. . ... ... : ... .. . ... ... : ... .. . ... ...
ROW 4D : ... .. A ... ... ... : ... .. A ... ... ... : ... .. . ... : ... .. A ... : ... .. . ... ... : ... .. . ... ... : ... .. . ... ... : ... .. . ... ...
ROW 4E : ... .. 8 ... ... ... : ... .. 8 ... ... ... : --- .. . ... : ... .. 8 ... : ... .. . ... ... : ... .. . ... ... : ... .. . ... ... : ... .. 4 ... ...
ROW 4F : ... .. 7 ... ... ... : ... .. 7 ... ... ... : ... .. . ... : ... .. 7 ... : ... .. . ... ... : ... .. 3 ... ... : ... .. 3 ... ... : ... .. . ... ...
ROW 50 : E-4 00 D ... ... ... : E-5 00 D ... ... ... : A-4 00 . ... : D-# 00 F ... : ... .. . ... ... : ... .. A ... ... : ... .. A ... ... : ... .. F ... ...
ROW 51 : ... .. B ... ... ... : ... .. B ... ... ... : B-3 00 . ... : ... .. . ... : ... .. . ... ... : ... .. 9 ... ... : ... .. 9 ... ... : ... .. D ... ...
ROW 52 : ... .. . ... ... ... : ... .. . ... ... ... : E-3 00 . ... : ... .. . ... : ... .. . ... ... : ... .. 8 ... ... : ... .. 8 ... ... : ... .. 8 ... ...
ROW 53 : ... .. A ... ... ... : ... .. A ... ... ... : D#3 00 . ... : C-# 00 D ... : ... .. . ... ... : ... .. 7 ... ... : ... .. 7 ... ... : ... .. . ... ...
ROW 54 : ... .. 8 ... ... ... : ... .. 8 ... ... ... : A#2 00 . ... : ... .. . ... : ... .. . ... ... : ... .. . ... ... : ... .. . ... ... : ... .. . ... ...
ROW 55 : ... .. 7 ... ... ... : ... .. 7 ... ... ... : ... .. . ... : ... .. . ... : ... .. . ... ... : ... .. 6 ... ... : ... .. 6 ... ... : ... .. . ... ...
ROW 56 : C-4 00 D ... ... ... : C-5 00 D ... ... ... : ... .. . ... : B-# 00 B ... : ... .. . ... ... : ... .. . ... ... : ... .. . ... ... : ... .. . ... ...
ROW 57 : ... .. B ... ... ... : ... .. B ... ... ... : ... .. . ... : ... .. . ... : ... .. . ... ... : ... .. 5 ... ... : ... .. 5 ... ... : ... .. . ... ...
ROW 58 : ... .. . ... ... ... : ... .. . ... ... ... : ... .. . ... : ... .. . ... : ... .. . ... ... : ... .. . ... ... : ... .. . ... ... : ... .. . ... ...
ROW 59 : ... .. A ... ... ... : ... .. A ... ... ... : A-2 00 . P7C : ... .. 9 ... : ... .. . ... ... : ... .. . ... ... : ... .. . ... ... : ... .. . ... ...
ROW 5A : ... .. 8 ... ... ... : ... .. 8 ... ... ... : G#2 00 . P7B : ... .. . ... : ... .. . ... ... : ... .. . ... ... : ... .. . ... ... : ... .. 4 ... ...
ROW 5B : ... .. 7 ... ... ... : ... .. 7 ... ... ... : G-2 00 . ... : ... .. . ... : ... .. . ... ... : ... .. 3 ... ... : ... .. 3 ... ... : ... .. . ... ...
ROW 5C : G-3 00 D ... ... ... : G-4 00 D ... ... ... : F#2 00 . P7D : ... .. 7 ... : ... .. . ... ... : ... .. . ... ... : ... .. . ... ... : ... .. 1 ... ...
ROW 5D : ... .. B ... ... ... : ... .. B ... ... ... : F-2 00 . P81 : ... .. . ... : ... .. . ... ... : ... .. . ... ... : ... .. . ... ... : ... .. . ... ...
ROW 5E : ... .. . ... ... ... : ... .. . ... ... ... : E-2 00 . P87 : ... .. . ... : ... .. . ... ... : ... .. . ... ... : ... .. . ... ... : ... .. . ... ...
ROW 5F : ... .. A ... ... ... : ... .. A ... ... ... : D#2 00 . P8F : ... .. 5 ... : ... .. . ... ... : ... .. . ... ... : ... .. . ... ... : ... .. . ... ...
ROW 60 : ... .. 8 ... ... ... : ... .. 8 ... ... ... : ... .. . P6F : ... .. . ... : ... .. . ... ... : ... .. . ... ... : ... .. . ... ... : ... .. . ... ...
ROW 61 : ... .. 7 ... ... ... : ... .. 7 ... ... ... : D-2 00 . P7A : ... .. . ... : ... .. . ... ... : ... .. . ... ... : ... .. . ... ... : ... .. . ... ...
ROW 62 : E-3 00 D ... ... ... : E-4 00 D ... ... ... : A-3 00 . P80 : D-# 00 F ... : ... .. . ... ... : A-3 01 A ... ... : C-4 01 A ... ... : E-4 01 F ... ...
ROW 63 : ... .. B ... ... ... : ... .. B ... ... ... : B-2 00 . ... : ... .. . ... : ... .. . ... ... : ... .. 9 ... ... : ... .. 9 ... ... : ... .. D ... ...
ROW 64 : ... .. . ... ... ... : ... .. . ... ... ... : E-2 00 . ... : ... .. . ... : ... .. . ... ... : ... .. 8 ... ... : ... .. 8 ... ... : ... .. 8 ... ...
ROW 65 : ... .. A ... ... ... : ... .. A ... ... ... : D#2 00 . ... : C-# 00 D ... : ... .. . ... ... : ... .. 7 ... ... : ... .. 7 ... ... : ... .. . ... ...
ROW 66 : ... .. 8 ... ... ... : ... .. 8 ... ... ... : A#1 00 . ... : ... .. . ... : ... .. . ... ... : ... .. . ... ... : ... .. . ... ... : ... .. . ... ...
ROW 67 : ... .. 7 ... ... ... : ... .. 7 ... ... ... : ... .. . ... : ... .. . ... : ... .. . ... ... : ... .. 6 ... ... : ... .. 6 ... ... : ... .. . ... ...
ROW 68 : C-3 00 D ... ... ... : C-4 00 D ... ... ... : ... .. . ... : B-# 00 B ... : ... .. . ... ... : ... .. . ... ... : ... .. . ... ... : ... .. . ... ...
ROW 69 : ... .. B ... ... ... : ... .. B ... ... ... : ... .. . ... : ... .. . ... : ... .. . ... ... : ... .. 5 ... ... : ... .. 5 ... ... : ... .. . ... ...
ROW 6A : ... .. . ... ... ... : ... .. . ... ... ... : ... .. . ... : ... .. . ... : ... .. . ... ... : ... .. . ... ... : ... .. . ... ... : ... .. . ... ...
ROW 6B : ... .. A ... ... ... : ... .. A ... ... ... : ... .. . ... : ... .. 9 ... : ... .. . ... ... : ... .. . ... ... : ... .. . ... ... : ... .. . ... ...
ROW 6C : ... .. 8 ... ... ... : ... .. 8 ... ... ... : ... .. . ... : ... .. . ... : ... .. . ... ... : ... .. . ... ... : ... .. . ... ... : ... .. . ... ...
ROW 6D : ... .. 7 ... ... ... : ... .. 7 ... ... ... : ... .. . ... : ... .. . ... : ... .. . ... ... : ... .. . ... ... : ... .. . ... ... : ... .. . ... ...
ROW 6E : G-2 00 D ... ... ... : G-3 00 D ... ... ... : B-1 00 . P7A : ... .. 7 ... : ... .. . ... ... : ... .. . ... ... : ... .. . ... ... : ... .. . ... ...
ROW 6F : ... .. B ... ... ... : ... .. B ... ... ... : C-2 00 . P77 : ... .. . ... : ... .. . ... ... : ... .. . ... ... : ... .. . ... ... : ... .. . ... ...
ROW 70 : ... .. . ... ... ... : ... .. . ... ... ... : C#2 00 . ... : ... .. . ... : ... .. . ... ... : ... .. . ... ... : ... .. . ... ... : ... .. . ... ...
ROW 71 : ... .. A ... ... ... : ... .. A ... ... ... : D-2 00 . P7A : ... .. 5 ... : ... .. . ... ... : ... .. . ... ... : ... .. . ... ... : ... .. . ... ...
ROW 72 : ... .. 8 ... ... ... : ... .. 8 ... ... ... : D#2 00 . P7F : ... .. . ... : ... .. . ... ... : ... .. . ... ... : ... .. . ... ... : ... .. . ... ...
ROW 73 : ... .. 7 ... ... ... : ... .. 7 ... ... ... : E-2 00 . P87 : ... .. . ... : ... .. . ... ... : ... .. . ... ... : ... .. . ... ... : ... .. . ... ...
ROW 74 : E-4 00 D ... ... ... : E-5 00 D ... ... ... : A#2 00 . P80 : 5-# 00 D ... : ... .. . ... ... : ... .. . ... ... : ... .. . ... ... : ... .. . ... ...
ROW 75 : ... .. B ... ... ... : ... .. B ... ... ... : ... .. . ... : ... .. B ... : ... .. . ... ... : ... .. . ... ... : ... .. . ... ... : ... .. . ... ...
ROW 76 : ... .. . ... ... ... : ... .. . ... ... ... : ... .. . ... : ... .. . ... : ... .. . ... ... : ... .. . ... ... : ... .. . ... ... : ... .. . ... ...
ROW 77 : ... .. A ... ... ... : ... .. A ... ... ... : ... .. . ... : ... .. A ... : ... .. . ... ... : ... .. . ... ... : ... .. . ... ... : ... .. . ... ...
ROW 78 : ... .. 8 ... ... ... : ... .. 8 ... ... ... : --- .. . ... : ... .. 8 ... : ... .. . ... ... : ... .. . ... ... : ... .. . ... ... : ... .. . ... ...
ROW 79 : ... .. 7 ... ... ... : ... .. 7 ... ... ... : ... .. . ... : ... .. 7 ... : ... .. . ... ... : ... .. . ... ... : ... .. . ... ... : ... .. . ... ...
ROW 7A : C-4 00 D ... ... ... : C-5 00 D ... ... ... : A#2 00 . ... : A-# 00 F ... : ... .. . ... ... : ... .. . ... ... : ... .. . ... ... : ... .. . ... ...
ROW 7B : ... .. B ... ... ... : ... .. B ... ... ... : ... .. . ... : ... .. C ... : ... .. . ... ... : ... .. . ... ... : ... .. . ... ... : ... .. . ... ...
ROW 7C : ... .. . ... ... ... : ... .. . ... ... ... : ... .. . ... : ... .. 6 ... : ... .. . ... ... : ... .. . ... ... : ... .. . ... ... : ... .. . ... ...
ROW 7D : ... .. A ... ... ... : ... .. A ... ... ... : ... .. . ... : ... .. 3 ... : ... .. . ... ... : ... .. . ... ... : ... .. . ... ... : ... .. . ... ...
ROW 7E : ... .. 8 ... ... ... : ... .. 8 ... ... ... : --- .. . ... : ... .. 2 ... : ... .. . ... ... : ... .. . ... ... : ... .. . ... ... : ... .. . ... ...
ROW 7F : ... .. 7 ... ... ... : ... .. 7 ... ... ... : ... .. . ... : ... .. 0 ... : ... .. . ... ... : ... .. . ... ... : ... .. . ... ... : ... .. . ... ...
ROW 80 : G-3 00 D ... ... ... : G-4 00 D ... ... ... : A#2 00 . ... : ... .. F ... : ... .. . ... ... : ... .. . ... ... : ... .. . ... ... : ... .. . P85 ...
ROW 81 : ... .. B ... ... ... : ... .. B ... ... ... : ... .. . ... : ... .. C ... : ... .. . ... ... : ... .. . ... ... : ... .. . ... ... : F-4 01 8 P7C ...
ROW 82 : ... .. . ... ... ... : ... .. . ... ... ... : ... .. . ... : ... .. 6 ... : ... .. . ... ... : ... .. . ... ... : ... .. . ... ... : ... .. . P7B ...
ROW 83 : ... .. A ... ... ... : ... .. A ... ... ... : ... .. . ... : ... .. 3 ... : ... .. . ... ... : ... .. . ... ... : ... .. . ... ... : E-4 01 8 P83 ...
ROW 84 : ... .. 8 ... ... ... : ... .. 8 ... ... ... : --- .. . ... : ... .. 2 ... : ... .. . ... ... : ... .. . ... ... : ... .. . ... ... : ... .. . P7F ...
ROW 85 : ... .. 7 ... ... ... : ... .. 7 ... ... ... : ... .. . ... : ... .. 0 ... : ... .. . ... ... : ... .. . ... ... : ... .. . ... ... : ... .. . P7C ...
ROW 86 : E-3 00 D ... ... ... : E-4 00 D ... ... ... : A#2 00 . ... : 9-# 00 D ... : ... .. . ... ... : ... .. . ... ... : ... .. . ... ... : ... .. . P7B ...
ROW 87 : ... .. B ... ... ... : ... .. B ... ... ... : ... .. . ... : ... .. B ... : ... .. . ... ... : ... .. . ... ... : ... .. . ... ... : ... .. . P7D ...
ROW 88 : ... .. . ... ... ... : ... .. . ... ... ... : ... .. . ... : ... .. . ... : ... .. . ... ... : ... .. . ... ... : ... .. . ... ... : ... .. . P81 ...
ROW 89 : ... .. A ... ... ... : ... .. A ... ... ... : ... .. . ... : ... .. A ... : ... .. . ... ... : ... .. . ... ... : ... .. . ... ... : ... .. . P84 ...
ROW 8A : ... .. 8 ... ... ... : ... .. 8 ... ... ... : --- .. . ... : ... .. 8 ... : ... .. . ... ... : ... .. . ... ... : ... .. . ... ... : F-4 01 8 P7C ...
ROW 8B : ... .. 7 ... ... ... : ... .. 7 ... ... ... : ... .. . ... : ... .. 7 ... : ... .. . ... ... : ... .. . ... ... : ... .. . ... ... : ... .. . ... ...
ROW 8C : C-3 00 D ... ... ... : C-4 00 D ... ... ... : A#2 00 . ... : 6-# 00 D ... : ... .. . ... ... : ... .. . ... ... : ... .. . ... ... : E-4 01 8 P83 ...
ROW 8D : ... .. B ... ... ... : ... .. B ... ... ... : ... .. . ... : ... .. B ... : ... .. . ... ... : ... .. . ... ... : ... .. . ... ... : ... .. . P80 ...
ROW 8E : ... .. . ... ... ... : ... .. . ... ... ... : ... .. . ... : ... .. . ... : ... .. . ... ... : ... .. . ... ... : ... .. . ... ... : ... .. . P7C ...
ROW 8F : ... .. A ... ... ... : ... .. A ... ... ... : ... .. . ... : ... .. A ... : ... .. . ... ... : ... .. . ... ... : ... .. . ... ... : ... .. . P7B ...
ROW 90 : ... .. 8 ... ... ... : ... .. 8 ... ... ... : --- .. . ... : ... .. 8 ... : ... .. . ... ... : ... .. . ... ... : ... .. . ... ... : ... .. . P7D ...
ROW 91 : ... .. 7 ... ... ... : ... .. 7 ... ... ... : ... .. . ... : ... .. 7 ... : ... .. . ... ... : ... .. . ... ... : ... .. . ... ... : ... .. . P81 ...
ROW 92 : G-2 00 D ... ... ... : G-3 00 D ... ... ... : A#2 00 . ... : ... .. D ... : ... .. . ... ... : ... .. . ... ... : ... .. . ... ... : ... .. . P84 ...
ROW 93 : ... .. B ... ... ... : ... .. B ... ... ... : ... .. . ... : ... .. B ... : ... .. . ... ... : ... .. . ... ... : ... .. . ... ... : F-4 01 8 P7C ...
ROW 94 : ... .. . ... ... ... : ... .. . ... ... ... : ... .. . ... : ... .. . ... : ... .. . ... ... : ... .. . ... ... : ... .. . ... ... : ... .. . ... ...
ROW 95 : ... .. A ... ... ... : ... .. A ... ... ... : ... .. . ... : ... .. A ... : ... .. . ... ... : ... .. . ... ... : ... .. . ... ... : E-4 01 8 P84 ...
ROW 96 : ... .. 8 ... ... ... : ... .. 8 ... ... ... : --- .. . ... : ... .. 8 ... : ... .. . ... ... : ... .. . ... ... : ... .. . ... ... : ... .. . P81 ...
ROW 97 : ... .. 7 ... ... ... : ... .. 7 ... ... ... : ... .. . ... : ... .. 7 ... : ... .. . ... ... : ... .. . ... ... : ... .. . ... ... : ... .. . P7D ...
ROW 98 : E-4 00 D ... ... ... : E-5 00 D ... ... ... : A-4 00 . ... : 1-# 00 F ... : ... .. . ... ... : ... .. . ... ... : ... .. . ... ... : ... .. . P7B ...
ROW 99 : ... .. B ... ... ... : ... .. B ... ... ... : B-3 00 . ... : ... .. C ... : ... .. . ... ... : ... .. . ... ... : ... .. . ... ... : ... .. . P7C ...
ROW 9A : ... .. . ... ... ... : ... .. . ... ... ... : E-3 00 . ... : ... .. 6 ... : ... .. . ... ... : ... .. . ... ... : ... .. . ... ... : ... .. . P80 ...
ROW 9B : ... .. A ... ... ... : ... .. A ... ... ... : D#3 00 . ... : ... .. 3 ... : ... .. . ... ... : ... .. . ... ... : ... .. . ... ... : ... .. . P83 ...
ROW 9C : ... .. 8 ... ... ... : ... .. 8 ... ... ... : A#2 00 . ... : ... .. 2 ... : ... .. . ... ... : ... .. . ... ... : ... .. . ... ... : F-4 01 8 P7C ...
ROW 9D : ... .. 7 ... ... ... : ... .. 7 ... ... ... : ... .. . ... : ... .. 0 ... : ... .. . ... ... : ... .. . ... ... : ... .. . ... ... : ... .. . ... ...
ROW 9E : C-4 00 D ... ... ... : C-5 00 D ... ... ... : ... .. . ... : ... .. F ... : ... .. . ... ... : ... .. . ... ... : ... .. . ... ... : E-4 01 8 P84 ...
ROW 9F : ... .. B ... ... ... : ... .. B ... ... ... : ... .. . ... : ... .. C ... : ... .. . ... ... : ... .. . ... ... : ... .. . ... ... : ... .. . P81 ...
ROW A0 : ... .. . ... ... ... : ... .. . ... ... ... : ... .. . ... : ... .. 6 ... : ... .. . ... ... : ... .. . ... ... : ... .. . ... ... : ... .. . P7D ...
ROW A1 : ... .. A ... ... ... : ... .. A ... ... ... : ... .. . ... : ... .. 3 ... : ... .. . ... ... : ... .. . ... ... : ... .. . ... ... : ... .. . P7B ...
ROW A2 : ... .. 8 ... ... ... : ... .. 8 ... ... ... : --- .. . ... : ... .. 2 ... : ... .. . ... ... : ... .. . ... ... : ... .. . ... ... : ... .. . P7C ...
ROW A3 : ... .. 7 ... ... ... : ... .. 7 ... ... ... : ... .. . ... : ... .. 0 ... : ... .. . ... ... : ... .. . ... ... : ... .. . ... ... : ... .. . P7F ...
ROW A4 : G-3 00 D ... ... ... : G-4 00 D ... ... ... : A#2 00 . ... : D-# 00 F ... : ... .. . ... ... : ... .. . ... ... : ... .. . ... ... : ... .. . P83 ...
ROW A5 : ... .. B ... ... ... : ... .. B ... ... ... : ... .. . ... : ... .. C ... : ... .. . ... ... : ... .. . ... ... : ... .. . ... ... : F-4 01 8 P7B ...
ROW A6 : ... .. . ... ... ... : ... .. . ... ... ... : ... .. . ... : ... .. 6 ... : ... .. . ... ... : ... .. . ... ... : ... .. . ... ... : ... .. . P7C ...
ROW A7 : ... .. A ... ... ... : ... .. A ... ... ... : ... .. . ... : ... .. 3 ... : ... .. . ... ... : ... .. . ... ... : ... .. . ... ... : E-4 01 8 P85 ...
ROW A8 : ... .. 8 ... ... ... : ... .. 8 ... ... ... : --- .. . ... : ... .. 2 ... : ... .. . ... ... : ... .. . ... ... : ... .. . ... ... : ... .. . P81 ...
ROW A9 : ... .. 7 ... ... ... : ... .. 7 ... ... ... : ... .. . ... : ... .. 0 ... : ... .. . ... ... : ... .. . ... ... : ... .. . ... ... : ... .. . P7E ...
ROW AA : E-3 00 D ... ... ... : E-4 00 D ... ... ... : A#2 00 . ... : ... .. F ... : ... .. . ... ... : ... .. . ... ... : ... .. . ... ... : ... .. . P7B ...
ROW AB : ... .. B ... ... ... : ... .. B ... ... ... : ... .. . ... : ... .. C ... : ... .. . ... ... : ... .. . ... ... : ... .. . ... ... : ... .. . ... ...
ROW AC : ... .. . ... ... ... : ... .. . ... ... ... : ... .. . ... : ... .. 6 ... : ... .. . ... ... : ... .. . ... ... : ... .. . ... ... : ... .. . P7F ...
ROW AD : ... .. A ... ... ... : ... .. A ... ... ... : ... .. . ... : ... .. 3 ... : ... .. . ... ... : ... .. . ... ... : ... .. . ... ... : ... .. . P82 ...
ROW AE : ... .. 8 ... ... ... : ... .. 8 ... ... ... : --- .. . ... : ... .. 2 ... : ... .. . ... ... : ... .. . ... ... : ... .. . ... ... : F-4 01 8 P7B ...
ROW AF : ... .. 7 ... ... ... : ... .. 7 ... ... ... : ... .. . ... : ... .. 0 ... : ... .. . ... ... : ... .. . ... ... : ... .. . ... ... : ... .. . P7C ...
ROW B0 : C-3 00 D ... ... ... : C-4 00 D ... ... ... : A#2 00 . ... : 6-# 00 F ... : ... .. . ... ... : ... .. . ... ... : ... .. . ... ... : E-4 01 8 P85 ...
ROW B1 : ... .. B ... ... ... : ... .. B ... ... ... : ... .. . ... : ... .. C ... : ... .. . ... ... : ... .. . ... ... : ... .. . ... ... : ... .. . P81 ...
ROW B2 : ... .. . ... ... ... : ... .. . ... ... ... : ... .. . ... : ... .. 6 ... : ... .. . ... ... : ... .. . ... ... : ... .. . ... ... : ... .. . P7E ...
ROW B3 : ... .. A ... ... ... : ... .. A ... ... ... : ... .. . ... : ... .. 3 ... : ... .. . ... ... : ... .. . ... ... : ... .. . ... ... : ... .. . P7B ...
ROW B4 : ... .. 8 ... ... ... : ... .. 8 ... ... ... : --- .. . ... : ... .. 2 ... : ... .. . ... ... : ... .. . ... ... : ... .. . ... ... : ... .. . ... ...
ROW B5 : ... .. 7 ... ... ... : ... .. 7 ... ... ... : ... .. . ... : ... .. 0 ... : ... .. . ... ... : ... .. . ... ... : ... .. . ... ... : ... .. . P7E ...
ROW B6 : G-2 00 D ... ... ... : G-3 00 D ... ... ... : A#2 00 . ... : F-# 00 D ... : ... .. . ... ... : ... .. . ... ... : ... .. . ... ... : ... .. . P81 ...
ROW B7 : ... .. B ... ... ... : ... .. B ... ... ... : ... .. . ... : ... .. B ... : ... .. . ... ... : ... .. . ... ... : ... .. . ... ... : ... .. . P85 ...
ROW B8 : ... .. . ... ... ... : ... .. . ... ... ... : ... .. . ... : ... .. . ... : ... .. . ... ... : ... .. . ... ... : ... .. . ... ... : F-4 01 8 P7C ...
ROW B9 : ... .. A ... ... ... : ... .. A ... ... ... : ... .. . ... : ... .. A ... : ... .. . ... ... : ... .. . ... ... : ... .. . ... ... : E-4 01 8 P81 ...
ROW BA : ... .. 8 ... ... ... : ... .. 8 ... ... ... : --- .. . ... : ... .. 8 ... : ... .. . ... ... : ... .. . ... ... : ... .. . ... ... : ... .. . ... ...
ROW BB : ... .. 7 ... ... ... : ... .. 7 ... ... ... : ... .. . ... : ... .. 7 ... : ... .. . ... ... : ... .. . ... ... : ... .. . ... ... : ... .. . ... ...
ROW BC : E-4 00 D ... ... ... : E-5 00 D ... ... ... : A#2 00 . ... : 5-# 00 D ... : ... .. . ... ... : C-3 01 A ... ... : E-3 01 A ... ... : A-3 01 F ... ...
ROW BD : ... .. B ... ... ... : ... .. B ... ... ... : ... .. . ... : ... .. B ... : ... .. . ... ... : ... .. 9 ... ... : ... .. 9 ... ... : ... .. D ... ...
ROW BE : ... .. . ... ... ... : ... .. . ... ... ... : ... .. . ... : ... .. . ... : ... .. . ... ... : ... .. 8 ... ... : ... .. 8 ... ... : ... .. 8 ... ...
ROW BF : ... .. A ... ... ... : ... .. A ... ... ... : ... .. . ... : ... .. A ... : ... .. . ... ... : ... .. 7 ... ... : ... .. 7 ... ... : ... .. . ... ...
ROW C0 : ... .. 8 ... ... ... : ... .. 8 ... ... ... : --- .. . ... : ... .. 8 ... : ... .. . ... ... : ... .. . ... ... : ... .. . ... ... : ... .. . ... ...
ROW C1 : ... .. 7 ... ... ... : ... .. 7 ... ... ... : ... .. . ... : ... .. 7 ... : ... .. . ... ... : ... .. 6 ... ... : ... .. 6 ... ... : ... .. . ... ...
ROW C2 : C-4 00 D ... ... ... : C-5 00 D ... ... ... : A#2 00 . ... : 0-# 00 F ... : ... .. . ... ... : ... .. . ... ... : ... .. . ... ... : ... .. . ... ...
ROW C3 : ... .. B ... ... ... : ... .. B ... ... ... : ... .. . ... : ... .. C ... : ... .. . ... ... : ... .. 5 ... ... : ... .. 5 ... ... : ... .. . ... ...
ROW C4 : ... .. . ... ... ... : ... .. . ... ... ... : ... .. . ... : ... .. 6 ... : ... .. . ... ... : ... .. . ... ... : ... .. . ... ... : ... .. . ... ...
ROW C5 : ... .. A ... ... ... : ... .. A ... ... ... : ... .. . ... : ... .. 3 ... : ... .. . ... ... : ... .. . ... ... : ... .. . ... ... : ... .. . ... ...
ROW C6 : ... .. 8 ... ... ... : ... .. 8 ... ... ... : --- .. . ... : ... .. 2 ... : ... .. . ... ... : ... .. . ... ... : ... .. . ... ... : ... .. . ... ...
ROW C7 : ... .. 7 ... ... ... : ... .. 7 ... ... ... : ... .. . ... : ... .. 0 ... : ... .. . ... ... : ... .. . ... ... : ... .. . ... ... : ... .. . ... ...
ROW C8 : G-3 00 D ... ... ... : G-4 00 D ... ... ... : A#2 00 . ... : C-# 00 F ... : ... .. . ... ... : ... .. . ... ... : ... .. . ... ... : ... .. . ... ...
ROW C9 : ... .. B ... ... ... : ... .. B ... ... ... : ... .. . ... : ... .. C ... : ... .. . ... ... : ... .. . ... ... : ... .. . ... ... : ... .. . ... ...
ROW CA : ... .. . ... ... ... : ... .. . ... ... ... : ... .. . ... : ... .. 6 ... : ... .. . ... ... : ... .. . ... ... : ... .. . ... ... : ... .. . ... ...
ROW CB : ... .. A ... ... ... : ... .. A ... ... ... : ... .. . ... : ... .. 3 ... : ... .. . ... ... : ... .. . ... ... : ... .. . ... ... : ... .. . ... ...
ROW CC : ... .. 8 ... ... ... : ... .. 8 ... ... ... : --- .. . ... : ... .. 2 ... : ... .. . ... ... : ... .. . ... ... : ... .. . ... ... : ... .. . ... ...
ROW CD : ... .. 7 ... ... ... : ... .. 7 ... ... ... : ... .. . ... : ... .. 0 ... : ... .. . ... ... : ... .. . ... ... : ... .. . ... ... : ... .. . ... ...
ROW CE : E-3 00 D ... ... ... : E-4 00 D ... ... ... : A#2 00 . ... : E-# 00 F ... : ... .. . ... ... : A-3 01 A ... ... : C-4 01 A ... ... : E-4 01 F ... ...
ROW CF : ... .. B ... ... ... : ... .. B ... ... ... : ... .. . ... : ... .. C ... : ... .. . ... ... : ... .. 9 ... ... : ... .. 9 ... ... : ... .. D ... ...
ROW D0 : ... .. . ... ... ... : ... .. . ... ... ... : ... .. . ... : ... .. 6 ... : ... .. . ... ... : ... .. 8 ... ... : ... .. 8 ... ... : ... .. 8 ... ...
ROW D1 : ... .. A ... ... ... : ... .. A ... ... ... : ... .. . ... : ... .. 3 ... : ... .. . ... ... : ... .. 7 ... ... : ... .. 7 ... ... : ... .. . ... ...
ROW D2 : ... .. 8 ... ... ... : ... .. 8 ... ... ... : --- .. . ... : ... .. 2 ... : ... .. . ... ... : ... .. . ... ... : ... .. . ... ... : ... .. . ... ...
ROW D3 : ... .. 7 ... ... ... : ... .. 7 ... ... ... : ... .. . ... : ... .. 0 ... : ... .. . ... ... : ... .. 6 ... ... : ... .. 6 ... ... : ... .. . ... ...
ROW D4 : C-3 00 D ... ... ... : C-4 00 D ... ... ... : A#2 00 . ... : 8-# 00 F ... : ... .. . ... ... : ... .. . ... ... : ... .. . ... ... : ... .. . ... ...
ROW D5 : ... .. B ... ... ... : ... .. B ... ... ... : ... .. . ... : ... .. C ... : ... .. . ... ... : ... .. 5 ... ... : ... .. 5 ... ... : ... .. . ... ...
ROW D6 : ... .. . ... ... ... : ... .. . ... ... ... : ... .. . ... : ... .. 6 ... : ... .. . ... ... : ... .. . ... ... : ... .. . ... ... : ... .. . ... ...
ROW D7 : ... .. A ... ... ... : ... .. A ... ... ... : ... .. . ... : ... .. 3 ... : ... .. . ... ... : ... .. . ... ... : ... .. . ... ... : ... .. . ... ...
ROW D8 : ... .. 8 ... ... ... : ... .. 8 ... ... ... : --- .. . ... : ... .. 2 ... : ... .. . ... ... : ... .. . ... ... : ... .. . ... ... : ... .. 4 ... ...
ROW D9 : ... .. 7 ... ... ... : ... .. 7 ... ... ... : ... .. . ... : ... .. 0 ... : ... .. . ... ... : ... .. 3 ... ... : ... .. 3 ... ... : ... .. . ... ...
ROW DA : G-2 00 D ... ... ... : G-3 00 D ... ... ... : A#2 00 . ... : ... .. F ... : ... .. . ... ... : ... .. . ... ... : ... .. . ... ... : ... .. 1 ... ...
ROW DB : ... .. B ... ... ... : ... .. B ... ... ... : ... .. . ... : ... .. C ... : ... .. . ... ... : ... .. . ... ... : ... .. . ... ... : ... .. . ... ...
ROW DC : ... .. . ... ... ... : ... .. . ... ... ... : ... .. . ... : ... .. 6 ... : ... .. . ... ... : ... .. . ... ... : ... .. . ... ... : ... .. . ... ...
ROW DD : ... .. A ... ... ... : ... .. A ... ... ... : ... .. . ... : ... .. 3 ... : ... .. . ... ... : ... .. . ... ... : ... .. . ... ... : ... .. . ... ...
ROW DE : ... .. 8 ... ... ... : ... .. 8 ... ... ... : --- .. . ... : ... .. 2 ... : ... .. . ... ... : ... .. . ... ... : ... .. . ... ... : ... .. . ... ...
ROW DF : ... .. 7 ... ... ... : ... .. 7 ... ... ... : ... .. . ... : ... .. 0 ... : ... .. . ... ... : ... .. . ... ... : ... .. . ... ... : ... .. . ... ...
ROW E0 : A#3 00 D ... ... ... : A#4 00 D ... ... ... : A#2 00 . ... : 5-# 00 D ... : ... .. . ... ... : ... .. A ... ... : ... .. A ... ... : ... .. F ... ...
ROW E1 : ... .. B ... ... ... : ... .. B ... ... ... : ... .. . ... : ... .. B ... : ... .. . ... ... : ... .. 9 ... ... : ... .. 9 ... ... : ... .. D ... ...
ROW E2 : ... .. . ... ... ... : ... .. . ... ... ... : ... .. . ... : ... .. . ... : ... .. . ... ... : ... .. 8 ... ... : ... .. 8 ... ... : ... .. 8 ... ...
ROW E3 : ... .. A ... ... ... : ... .. A ... ... ... : ... .. . ... : ... .. A ... : ... .. . ... ... : ... .. 7 ... ... : ... .. 7 ... ... : ... .. . ... ...
ROW E4 : ... .. 8 ... ... ... : ... .. 8 ... ... ... : --- .. . ... : ... .. 8 ... : ... .. . ... ... : ... .. . ... ... : ... .. . ... ... : ... .. . ... ...
ROW E5 : ... .. 7 ... ... ... : ... .. 7 ... ... ... : ... .. . ... : ... .. 7 ... : ... .. . ... ... : ... .. 6 ... ... : ... .. 6 ... ... : ... .. . ... ...
ROW E6 : G-3 00 D ... ... ... : G-4 00 D ... ... ... : A#2 00 . ... : 1-# 00 F ... : ... .. . ... ... : --- .. . ... ... : --- .. . ... ... : --- .. . ... ...
ROW E7 : ... .. B ... ... ... : ... .. B ... ... ... : ... .. . ... : ... .. C ... : ... .. . ... ... : ... .. . ... ... : ... .. . ... ... : ... .. . ... ...
ROW E8 : ... .. . ... ... ... : ... .. . ... ... ... : ... .. . ... : ... .. 6 ... : ... .. . ... ... : ... .. . ... ... : ... .. . ... ... : ... .. . ... ...
ROW E9 : ... .. A ... ... ... : ... .. A ... ... ... : ... .. . ... : ... .. 3 ... : ... .. . ... ... : ... .. . ... ... : ... .. . ... ... : ... .. . ... ...
ROW EA : ... .. 8 ... ... ... : ... .. 8 ... ... ... : --- .. . ... : ... .. 2 ... : ... .. . ... ... : ... .. . ... ... : ... .. . ... ... : ... .. . ... ...
ROW EB : ... .. 7 ... ... ... : ... .. 7 ... ... ... : ... .. . ... : ... .. 0 ... : ... .. . ... ... : ... .. . ... ... : ... .. . ... ... : ... .. . ... ...
ROW EC : D-3 00 D ... ... ... : D-4 00 D ... ... ... : A#2 00 . ... : ... .. F ... : ... .. . ... ... : ... .. . ... ... : ... .. . ... ... : ... .. . ... ...
ROW ED : ... .. B ... ... ... : ... .. B ... ... ... : ... .. . ... : ... .. C ... : ... .. . ... ... : ... .. . ... ... : ... .. . ... ... : ... .. . ... ...
ROW EE : ... .. . ... ... ... : ... .. . ... ... ... : ... .. . ... : ... .. 6 ... : ... .. . ... ... : G-3 01 A ... ... : A#3 01 A ... ... : D-4 01 F ... ...
ROW EF : ... .. A ... ... ... : ... .. A ... ... ... : ... .. . ... : ... .. 3 ... : ... .. . ... ... : ... .. 9 ... ... : ... .. 9 ... ... : ... .. D ... ...
ROW F0 : ... .. 8 ... ... ... : ... .. 8 ... ... ... : --- .. . ... : ... .. 2 ... : ... .. . ... ... : ... .. 8 ... ... : ... .. 8 ... ... : ... .. 8 ... ...
ROW F1 : ... .. 7 ... ... ... : ... .. 7 ... ... ... : ... .. . ... : ... .. 0 ... : ... .. . ... ... : --- .. . P81 ... : --- .. . ... ... : --- .. . ... ...
ROW F2 : A#2 00 D ... ... ... : A#3 00 D ... ... ... : A#2 00 . ... : 5-# 00 D ... : ... .. . ... ... : G-3 01 A P80 ... : A#3 01 A ... ... : D-4 01 F ... ...
ROW F3 : ... .. B ... ... ... : ... .. B ... ... ... : ... .. . ... : ... .. B ... : ... .. . ... ... : ... .. 9 ... ... : ... .. 9 ... ... : ... .. D ... ...
ROW F4 : ... .. . ... ... ... : ... .. . ... ... ... : ... .. . ... : ... .. . ... : ... .. . ... ... : ... .. 8 ... ... : ... .. 8 ... ... : ... .. 8 ... ...
ROW F5 : ... .. A ... ... ... : ... .. A ... ... ... : ... .. . ... : ... .. A ... : ... .. . ... ... : ... .. 7 ... ... : ... .. 7 ... ... : ... .. . ... ...
ROW F6 : ... .. 8 ... ... ... : ... .. 8 ... ... ... : --- .. . ... : ... .. 8 ... : ... .. . ... ... : ... .. . ... ... : ... .. . ... ... : ... .. . ... ...
ROW F7 : ... .. 7 ... ... ... : ... .. 7 ... ... ... : ... .. . ... : ... .. 7 ... : ... .. . ... ... : ... .. 6 ... ... : ... .. 6 ... ... : ... .. . ... ...
ROW F8 : G-2 00 D ... ... ... : G-3 00 D ... ... ... : A#2 00 . ... : 1-# 00 F ... : ... .. . ... ... : ... .. . ... ... : ... .. . ... ... : ... .. . ... ...
ROW F9 : ... .. B ... ... ... : ... .. B ... ... ... : ... .. . ... : ... .. C ... : ... .. . ... ... : ... .. 5 ... ... : ... .. 5 ... ... : ... .. . ... ...
ROW FA : ... .. . ... ... ... : ... .. . ... ... ... : ... .. . ... : ... .. 6 ... : ... .. . ... ... : ... .. . ... ... : ... .. . ... ... : ... .. . ... ...
ROW FB : ... .. A ... ... ... : ... .. A ... ... ... : ... .. . ... : ... .. 3 ... : ... .. . ... ... : ... .. . ... ... : ... .. . ... ... : ... .. . ... ...
ROW FC : ... .. 8 ... ... ... : ... .. 8 ... ... ... : --- .. . ... : ... .. 2 ... : ... .. . ... ... : ... .. . ... ... : ... .. . ... ... : ... .. . ... ...
ROW FD : ... .. 7 ... ... ... : ... .. 7 ... ... ... : ... .. . ... : ... .. 0 ... : ... .. . ... ... : ... .. . ... ... : ... .. . ... ... : ... .. . ... ...
ROW FE : D-2 00 D ... ... ... : D-3 00 D ... ... ... : A#2 00 . ... : ... .. F ... : ... .. . ... ... : ... .. . ... ... : ... .. . ... ... : ... .. . ... ...
ROW FF : ... .. B ... ... ... : ... .. B ... ... ... : ... .. . ... : ... .. C ... : ... .. . ... ... : ... .. . ... ... : ... .. . ... ... : ... .. . ... ...

PATTERN 1A
ROW 00 : ... .. . ... ... ... : ... .. . ... ... ... : ... .. . ... : ... .. 6 ... : ... .. . ... ... : ... .. . ... ... : ... .. . ... ... : ... .. . ... ...
ROW 01 : ... .. A ... ... ... : ... .. A ... ... ... : ... .. . ... : ... .. 3 ... : ... .. . ... ... : ... .. . ... ... : ... .. . ... ... : ... .. . ... ...
ROW 02 : ... .. 8 ... ... ... : ... .. 8 ... ... ... : --- .. . ... : ... .. 2 ... : ... .. . ... ... : ... .. . ... ... : ... .. . ... ... : ... .. . ... ...
ROW 03 : ... .. 7 ... ... ... : ... .. 7 ... ... ... : ... .. . ... : ... .. 0 ... : ... .. . ... ... : ... .. . ... ... : ... .. . ... ... : ... .. . ... ...
ROW 04 : A#3 00 D ... ... ... : A#4 00 D ... ... ... : A#2 00 . ... : 5-# 00 D ... : ... .. . ... ... : ... .. . ... ... : ... .. . ... ... : ... .. . ... ...
ROW 05 : ... .. B ... ... ... : ... .. B ... ... ... : ... .. . ... : ... .. B ... : ... .. . ... ... : ... .. . ... ... : ... .. . ... ... : ... .. . ... ...
ROW 06 : ... .. . ... ... ... : ... .. . ... ... ... : ... .. . ... : ... .. . ... : ... .. . ... ... : ... .. . ... ... : ... .. . ... ... : ... .. . ... ...
ROW 07 : ... .. A ... ... ... : ... .. A ... ... ... : ... .. . ... : ... .. A ... : ... .. . ... ... : ... .. . ... ... : ... .. . ... ... : ... .. . ... ...
ROW 08 : ... .. 8 ... ... ... : ... .. 8 ... ... ... : --- .. . ... : ... .. 8 ... : ... .. . ... ... : ... .. . ... ... : ... .. . ... ... : ... .. . ... ...
ROW 09 : ... .. 7 ... ... ... : ... .. 7 ... ... ... : ... .. . ... : ... .. 7 ... : ... .. . ... ... : ... .. . ... ... : ... .. . ... ... : ... .. . ... ...
ROW 0A : G-3 00 D ... ... ... : G-4 00 D ... ... ... : A#2 00 . ... : ... .. F ... : ... .. . ... ... : ... .. . ... ... : ... .. . ... ... : ... .. . ... ...
ROW 0B : ... .. B ... ... ... : ... .. B ... ... ... : ... .. . ... : ... .. C ... : ... .. . ... ... : ... .. . ... ... : ... .. . ... ... : ... .. . ... ...
ROW 0C : ... .. . ... ... ... : ... .. . ... ... ... : ... .. . ... : ... .. 6 ... : ... .. . ... ... : ... .. . ... ... : ... .. . ... ... : ... .. . ... ...
ROW 0D : ... .. A ... ... ... : ... .. A ... ... ... : ... .. . ... : ... .. 3 ... : ... .. . ... ... : ... .. . ... ... : ... .. . ... ... : ... .. . ... ...
ROW 0E : ... .. 8 ... ... ... : ... .. 8 ... ... ... : --- .. . ... : ... .. 2 ... : ... .. . ... ... : ... .. . ... ... : ... .. . ... ... : ... .. . ... ...
ROW 0F : ... .. 7 ... ... ... : ... .. 7 ... ... ... : ... .. . ... : ... .. 0 ... : ... .. . ... ... : ... .. . ... ... : ... .. . ... ... : ... .. . ... ...
ROW 10 : D-3 00 D ... ... ... : D-4 00 D ... ... ... : A#2 00 . ... : F-# 00 F ... : ... .. . ... ... : ... .. . ... ... : ... .. . ... ... : ... .. . ... ...
ROW 11 : ... .. B ... ... ... : ... .. B ... ... ... : ... .. . ... : ... .. C ... : ... .. . ... ... : ... .. . ... ... : ... .. . ... ... : ... .. . ... ...
ROW 12 : ... .. . ... ... ... : ... .. . ... ... ... : ... .. . ... : ... .. 6 ... : ... .. . ... ... : ... .. . ... ... : ... .. . ... ... : ... .. . ... ...
ROW 13 : ... .. A ... ... ... : ... .. A ... ... ... : ... .. . ... : ... .. 3 ... : ... .. . ... ... : ... .. . ... ... : ... .. . ... ... : ... .. . ... ...
ROW 14 : ... .. 8 ... ... ... : ... .. 8 ... ... ... : --- .. . ... : ... .. 2 ... : ... .. . ... ... : ... .. . ... ... : ... .. . ... ... : ... .. . ... ...
ROW 15 : ... .. 7 ... ... ... : ... .. 7 ... ... ... : ... .. . ... : ... .. 0 ... : ... .. . ... ... : ... .. . ... ... : ... .. . ... ... : ... .. . ... ...
ROW 16 : A#2 00 D ... ... ... : A#3 00 D ... ... ... : A#2 00 . ... : D-# 00 F ... : ... .. . ... ... : ... .. . ... ... : ... .. . ... ... : ... .. . ... ...
ROW 17 : ... .. B ... ... ... : ... .. B ... ... ... : ... .. . ... : ... .. C ... : ... .. . ... ... : ... .. . ... ... : ... .. . ... ... : ... .. . ... ...
ROW 18 : ... .. . ... ... ... : ... .. . ... ... ... : ... .. . ... : ... .. 6 ... : ... .. . ... ... : ... .. . ... ... : ... .. . ... ... : ... .. . ... ...
ROW 19 : ... .. A ... ... ... : ... .. A ... ... ... : ... .. . ... : ... .. 3 ... : ... .. . ... ... : ... .. . ... ... : ... .. . ... ... : ... .. . ... ...
ROW 1A : ... .. 8 ... ... ... : ... .. 8 ... ... ... : --- .. . ... : ... .. 2 ... : ... .. . ... ... : ... .. . ... ... : ... .. . ... ... : ... .. . ... ...
ROW 1B : ... .. 7 ... ... ... : ... .. 7 ... ... ... : ... .. . ... : ... .. 0 ... : ... .. . ... ... : ... .. . ... ... : ... .. . ... ... : ... .. . ... ...
ROW 1C : G-2 00 D ... ... ... : G-3 00 D ... ... ... : A#2 00 . ... : B-# 00 F ... : ... .. . ... ... : ... .. . ... ... : ... .. . ... ... : ... .. . ... ...
ROW 1D : ... .. B ... ... ... : ... .. B ... ... ... : ... .. . ... : ... .. C ... : ... .. . ... ... : ... .. . ... ... : ... .. . ... ... : ... .. . ... ...
ROW 1E : ... .. . ... ... ... : ... .. . ... ... ... : ... .. . ... : ... .. 6 ... : ... .. . ... ... : ... .. . ... ... : ... .. . ... ... : ... .. . ... ...
ROW 1F : ... .. A ... ... ... : ... .. A ... ... ... : ... .. . ... : ... .. 3 ... : ... .. . ... ... : ... .. . ... ... : ... .. . ... ... : ... .. . ... ...
ROW 20 : ... .. 8 ... ... ... : ... .. 8 ... ... ... : --- .. . ... : ... .. 2 ... : ... .. . ... ... : ... .. . ... ... : ... .. . ... ... : ... .. . ... ...
ROW 21 : ... .. 7 ... ... ... : ... .. 7 ... ... ... : ... .. . ... : ... .. 0 ... : ... .. . ... ... : ... .. . ... ... : ... .. . ... ... : ... .. . ... ...
ROW 22 : D-2 00 D ... ... ... : D-3 00 D ... ... ... : A#2 00 . ... : 8-# 00 F ... : ... .. . ... ... : ... .. . ... ... : ... .. . ... ... : ... .. . ... ...
ROW 23 : ... .. B ... ... ... : ... .. B ... ... ... : ... .. . ... : ... .. C ... : ... .. . ... ... : ... .. . ... ... : ... .. . ... ... : ... .. . ... ...
ROW 24 : ... .. . ... ... ... : ... .. . ... ... ... : ... .. . ... : ... .. 6 ... : ... .. . ... ... : ... .. . ... ... : ... .. . ... ... : ... .. . ... ...
ROW 25 : ... .. A ... ... ... : ... .. A ... ... ... : ... .. . ... : ... .. 3 ... : ... .. . ... ... : ... .. . ... ... : ... .. . ... ... : ... .. . P85 ...
ROW 26 : ... .. 8 ... ... ... : ... .. 8 ... ... ... : --- .. . ... : ... .. 2 ... : ... .. . ... ... : ... .. . ... ... : ... .. . ... ... : D#4 01 8 P7A ...
ROW 27 : ... .. 7 ... ... ... : ... .. 7 ... ... ... : ... .. . ... : ... .. 0 ... : ... .. . ... ... : ... .. . ... ... : ... .. . ... ... : D-4 01 8 P86 ...
ROW 28 : A#3 00 D ... ... ... : A#4 00 D ... ... ... : F#4 00 . ... : 1-# 00 F ... : ... .. . ... ... : A-3 01 A ... ... : A-2 01 A ... ... : ... .. . P83 ...
ROW 29 : ... .. B ... ... ... : ... .. B ... ... ... : G#3 00 . ... : ... .. C ... : ... .. . ... ... : ... .. 9 ... ... : ... .. 9 ... ... : ... .. . P7F ...
ROW 2A : ... .. . ... ... ... : ... .. . ... ... ... : C#3 00 . ... : ... .. 6 ... : ... .. . ... ... : ... .. 8 ... ... : ... .. 8 ... ... : ... .. . P7C ...
ROW 2B : ... .. A ... ... ... : ... .. A ... ... ... : C-3 00 . ... : ... .. 3 ... : ... .. . ... ... : ... .. 7 ... ... : ... .. 7 ... ... : ... .. . P7B ...
ROW 2C : ... .. 8 ... ... ... : ... .. 8 ... ... ... : G-2 00 . ... : ... .. 2 ... : ... .. . ... ... : ... .. . ... ... : ... .. . ... ... : ... .. . P7D ...
ROW 2D : ... .. 7 ... ... ... : ... .. 7 ... ... ... : ... .. . ... : ... .. 0 ... : ... .. . ... ... : ... .. 6 ... ... : ... .. 6 ... ... : ... .. . P81 ...
ROW 2E : G-3 00 D ... ... ... : G-4 00 D ... ... ... : ... .. . ... : 9-# 00 F ... : ... .. . ... ... : A#3 01 A ... ... : A#2 01 A ... ... : ... .. . P84 ...
ROW 2F : ... .. B ... ... ... : ... .. B ... ... ... : ... .. . ... : ... .. C ... : ... .. . ... ... : ... .. 9 ... ... : ... .. 9 ... ... : D#4 01 8 P7A ...
ROW 30 : ... .. . ... ... ... : ... .. . ... ... ... : ... .. . ... : ... .. 6 ... : ... .. . ... ... : ... .. 8 ... ... : ... .. 8 ... ... : ... .. . ... ...
ROW 31 : ... .. A ... ... ... : ... .. A ... ... ... : ... .. . ... : ... .. 3 ... : ... .. . ... ... : ... .. 7 ... ... : ... .. 7 ... ... : D-4 01 8 P83 ...
ROW 32 : ... .. 8 ... ... ... : ... .. 8 ... ... ... : --- .. . ... : ... .. 2 ... : ... .. . ... ... : ... .. . ... ... : ... .. . ... ... : ... .. . P80 ...
ROW 33 : ... .. 7 ... ... ... : ... .. 7 ... ... ... : ... .. . ... : ... .. 0 ... : ... .. . ... ... : ... .. 6 ... ... : ... .. 6 ... ... : ... .. . P7C ...
ROW 34 : D-3 00 D ... ... ... : D-4 00 D ... ... ... : G-2 00 . ... : D-# 00 F ... : ... .. . ... ... : C#4 01 A ... ... : C#3 01 A ... ... : ... .. . P7B ...
ROW 35 : ... .. B ... ... ... : ... .. B ... ... ... : ... .. . ... : ... .. C ... : ... .. . ... ... : ... .. 9 ... ... : ... .. 9 ... ... : ... .. . P7D ...
ROW 36 : ... .. . ... ... ... : ... .. . ... ... ... : ... .. . ... : ... .. 6 ... : ... .. . ... ... : ... .. 8 ... ... : ... .. 8 ... ... : ... .. . P81 ...
ROW 37 : ... .. A ... ... ... : ... .. A ... ... ... : ... .. . ... : ... .. 3 ... : ... .. . ... ... : ... .. 7 ... ... : ... .. 7 ... ... : ... .. . P84 ...
ROW 38 : ... .. 8 ... ... ... : ... .. 8 ... ... ... : --- .. . ... : ... .. 2 ... : ... .. . ... ... : ... .. . ... ... : ... .. . ... ... : D#4 01 8 P7A ...
ROW 39 : ... .. 7 ... ... ... : ... .. 7 ... ... ... : ... .. . ... : ... .. 0 ... : ... .. . ... ... : ... .. 6 ... ... : ... .. 6 ... ... : ... .. . ... ...
ROW 3A : A#2 00 D ... ... ... : A#3 00 D ... ... ... : G-2 00 . ... : ... .. D ... : ... .. . ... ... : D-4 01 A ... ... : D-3 01 A ... ... : D-4 01 8 P84 ...
ROW 3B : ... .. B ... ... ... : ... .. B ... ... ... : ... .. . ... : ... .. B ... : ... .. . ... ... : ... .. 9 ... ... : ... .. 9 ... ... : ... .. . P81 ...
ROW 3C : ... .. . ... ... ... : ... .. . ... ... ... : ... .. . ... : ... .. . ... : ... .. . ... ... : ... .. 8 ... ... : ... .. 8 ... ... : ... .. . P7D ...
ROW 3D : ... .. A ... ... ... : ... .. A ... ... ... : ... .. . ... : ... .. A ... : ... .. . ... ... : ... .. 7 ... ... : ... .. 7 ... ... : ... .. . P7B ...
ROW 3E : ... .. 8 ... ... ... : ... .. 8 ... ... ... : --- .. . ... : ... .. 8 ... : ... .. . ... ... : ... .. . ... ... : ... .. . ... ... : ... .. . P7C ...
ROW 3F : ... .. 7 ... ... ... : ... .. 7 ... ... ... : ... .. . ... : ... .. 7 ... : ... .. . ... ... : ... .. 6 ... ... : ... .. 6 ... ... : ... .. . P80 ...
ROW 40 : G-2 00 D ... ... ... : G-3 00 D ... ... ... : G-2 00 . ... : 3-# 00 D ... : ... .. . ... ... : F#4 01 A ... ... : F#3 01 A ... ... : ... .. . P83 ...
ROW 41 : ... .. B ... ... ... : ... .. B ... ... ... : ... .. . ... : ... .. B ... : ... .. . ... ... : ... .. 9 ... ... : ... .. 9 ... ... : D#4 01 8 P7A ...
ROW 42 : ... .. . ... ... ... : ... .. . ... ... ... : ... .. . ... : ... .. . ... : ... .. . ... ... : ... .. 8 ... ... : ... .. 8 ... ... : ... .. . ... ...
ROW 43 : ... .. A ... ... ... : ... .. A ... ... ... : ... .. . ... : ... .. A ... : ... .. . ... ... : ... .. 7 ... ... : ... .. 7 ... ... : D-4 01 8 P84 ...
ROW 44 : ... .. 8 ... ... ... : ... .. 8 ... ... ... : --- .. . ... : ... .. 8 ... : ... .. . ... ... : ... .. . ... ... : ... .. . ... ... : ... .. . P81 ...
ROW 45 : ... .. 7 ... ... ... : ... .. 7 ... ... ... : ... .. . ... : ... .. 7 ... : ... .. . ... ... : ... .. 6 ... ... : ... .. 6 ... ... : ... .. . P7D ...
ROW 46 : D-2 00 D ... ... ... : D-3 00 D ... ... ... : G-2 00 . ... : 4-# 00 D ... : ... .. . ... ... : G-4 01 A ... ... : G-3 01 A ... ... : ... .. . P7B ...
ROW 47 : ... .. B ... ... ... : ... .. B ... ... ... : ... .. . ... : ... .. B ... : ... .. . ... ... : ... .. 9 ... ... : ... .. 9 ... ... : ... .. . P7C ...
ROW 48 : ... .. . ... ... ... : ... .. . ... ... ... : ... .. . ... : ... .. . ... : ... .. . ... ... : ... .. 8 ... ... : ... .. 8 ... ... : ... .. . P7F ...
ROW 49 : ... .. A ... ... ... : ... .. A ... ... ... : ... .. . ... : ... .. A ... : ... .. . ... ... : ... .. 7 ... ... : ... .. 7 ... ... : ... .. . P83 ...
ROW 4A : ... .. 8 ... ... ... : ... .. 8 ... ... ... : --- .. . ... : ... .. 8 ... : ... .. . ... ... : ... .. . ... ... : ... .. . ... ... : ... .. . P86 ...
ROW 4B : ... .. 7 ... ... ... : ... .. 7 ... ... ... : ... .. . ... : ... .. 7 ... : ... .. . ... ... : ... .. 6 ... ... : ... .. 6 ... ... : D#4 01 8 P7A ...
ROW 4C : A#3 00 D ... ... ... : A#4 00 D ... ... ... : G-2 00 . ... : 5-# 00 D ... : ... .. . ... ... : A-4 01 A ... ... : A-3 01 A ... ... : D-4 01 8 P85 ...
ROW 4D : ... .. B ... ... ... : ... .. B ... ... ... : ... .. . ... : ... .. B ... : ... .. . ... ... : ... .. 9 ... ... : ... .. 9 ... ... : ... .. . P81 ...
ROW 4E : ... .. . ... ... ... : ... .. . ... ... ... : ... .. . ... : ... .. . ... : ... .. . ... ... : ... .. 8 ... ... : ... .. 8 ... ... : ... .. . P7E ...
ROW 4F : ... .. A ... ... ... : ... .. A ... ... ... : ... .. . ... : ... .. A ... : ... .. . ... ... : ... .. 7 ... ... : ... .. 7 ... ... : ... .. . P7B ...
ROW 50 : ... .. 8 ... ... ... : ... .. 8 ... ... ... : --- .. . ... : ... .. 8 ... : ... .. . ... ... : ... .. . ... ... : ... .. . ... ... : ... .. . ... ...
ROW 51 : ... .. 7 ... ... ... : ... .. 7 ... ... ... : ... .. . ... : ... .. 7 ... : ... .. . ... ... : ... .. 6 ... ... : ... .. 6 ... ... : ... .. . P7F ...
ROW 52 : G-3 00 D ... ... ... : G-4 00 D ... ... ... : G-2 00 . ... : 6-# 00 D ... : ... .. . ... ... : A#4 01 A ... ... : A#3 01 A ... ... : ... .. . P82 ...
ROW 53 : ... .. B ... ... ... : ... .. B ... ... ... : ... .. . ... : ... .. B ... : ... .. . ... ... : ... .. 9 ... ... : ... .. 9 ... ... : ... .. . P86 ...
ROW 54 : ... .. . ... ... ... : ... .. . ... ... ... : ... .. . ... : ... .. . ... : ... .. . ... ... : ... .. 8 ... ... : ... .. 8 ... ... : D#4 01 8 P7A ...
ROW 55 : ... .. A ... ... ... : ... .. A ... ... ... : ... .. . ... : ... .. A ... : ... .. . ... ... : ... .. 7 ... ... : ... .. 7 ... ... : D-4 01 8 P85 ...
ROW 56 : ... .. 8 ... ... ... : ... .. 8 ... ... ... : --- .. . ... : ... .. 8 ... : ... .. . ... ... : ... .. . ... ... : ... .. . ... ... : ... .. . P81 ...
ROW 57 : ... .. 7 ... ... ... : ... .. 7 ... ... ... : ... .. . ... : ... .. 7 ... : ... .. . ... ... : ... .. 6 ... ... : ... .. 6 ... ... : ... .. . P7E ...
ROW 58 : D-3 00 D ... ... ... : D-4 00 D ... ... ... : G-2 00 . ... : 8-# 00 D ... : ... .. . ... ... : D-5 01 A ... ... : D-4 01 A ... ... : ... .. . P7B ...
ROW 59 : ... .. B ... ... ... : ... .. B ... ... ... : ... .. . ... : ... .. B ... : ... .. . ... ... : ... .. 9 ... ... : ... .. 9 ... ... : ... .. 4 ... ...
ROW 5A : ... .. . ... ... ... : ... .. . ... ... ... : ... .. . ... : ... .. . ... : ... .. . ... ... : ... .. 8 ... ... : ... .. 8 ... ... : ... .. . P7E ...
ROW 5B : ... .. A ... ... ... : ... .. A ... ... ... : ... .. . ... : ... .. A ... : ... .. . ... ... : ... .. 7 ... ... : ... .. 7 ... ... : ... .. 1 P81 ...
ROW 5C : ... .. 8 ... ... ... : ... .. 8 ... ... ... : --- .. . ... : ... .. 8 ... : ... .. . ... ... : ... .. . ... ... : ... .. . ... ... : ... .. . P85 ...
ROW 5D : ... .. 7 ... ... ... : ... .. 7 ... ... ... : ... .. . ... : ... .. 7 ... : ... .. . ... ... : ... .. 6 ... ... : ... .. 6 ... ... : D#4 01 1 P7A ...
ROW 5E : A#2 00 D ... ... ... : A#3 00 D ... ... ... : G-2 00 . ... : ... .. D ... : ... .. . ... ... : D#5 01 A ... ... : D#4 01 A ... ... : E-3 01 4 P86 ...
ROW 5F : ... .. B ... ... ... : ... .. B ... ... ... : ... .. . ... : ... .. B ... : ... .. . ... ... : ... .. 9 ... ... : ... .. 9 ... ... : ... .. 3 P82 ...
ROW 60 : ... .. . ... ... ... : ... .. . ... ... ... : ... .. . ... : ... .. . ... : ... .. . ... ... : ... .. 8 ... ... : ... .. 8 ... ... : ... .. 2 P7F ...
ROW 61 : ... .. A ... ... ... : ... .. A ... ... ... : ... .. . ... : ... .. A ... : ... .. . ... ... : ... .. 7 ... ... : ... .. 7 ... ... : F-3 01 6 P7B ...
ROW 62 : ... .. 8 ... ... ... : ... .. 8 ... ... ... : --- .. . ... : ... .. 8 ... : ... .. . ... ... : ... .. . ... ... : ... .. . ... ... : ... .. 5 ... ...
ROW 63 : ... .. 7 ... ... ... : ... .. 7 ... ... ... : ... .. . ... : ... .. 7 ... : ... .. . ... ... : ... .. 6 ... ... : ... .. 6 ... ... : ... .. 3 P7E ...
ROW 64 : G-2 00 D ... ... ... : G-3 00 D ... ... ... : G-2 00 . ... : B-# 00 D ... : ... .. . ... ... : G-5 01 A ... ... : G-4 01 A ... ... : G-3 01 8 P81 ...
ROW 65 : ... .. B ... ... ... : ... .. B ... ... ... : ... .. . ... : ... .. B ... : ... .. . ... ... : ... .. 9 ... ... : ... .. 9 ... ... : ... .. 6 P85 ...
ROW 66 : ... .. . ... ... ... : ... .. . ... ... ... : ... .. . ... : ... .. . ... : ... .. . ... ... : ... .. 8 ... ... : ... .. 8 ... ... : ... .. 4 P87 ...
ROW 67 : ... .. A ... ... ... : ... .. A ... ... ... : ... .. . ... : ... .. A ... : ... .. . ... ... : ... .. 7 ... ... : ... .. 7 ... ... : A-3 01 A P86 ...
ROW 68 : ... .. 8 ... ... ... : ... .. 8 ... ... ... : --- .. . ... : ... .. 8 ... : ... .. . ... ... : ... .. . ... ... : ... .. . ... ... : ... .. 8 P83 ...
ROW 69 : ... .. 7 ... ... ... : ... .. 7 ... ... ... : ... .. . ... : ... .. 7 ... : ... .. . ... ... : ... .. 6 ... ... : ... .. 6 ... ... : ... .. 5 P7F ...
ROW 6A : D-2 00 D ... ... ... : D-3 00 D ... ... ... : G-2 00 . ... : D-# 00 D ... : ... .. . ... ... : A#5 01 A ... ... : A#4 01 A ... ... : A#3 01 C P7C ...
ROW 6B : ... .. B ... ... ... : ... .. B ... ... ... : ... .. . ... : ... .. B ... : ... .. . ... ... : ... .. 9 ... ... : ... .. 9 ... ... : ... .. A P7B ...
ROW 6C : ... .. . ... ... ... : ... .. . ... ... ... : ... .. . ... : ... .. . ... : ... .. . ... ... : ... .. 8 ... ... : ... .. 8 ... ... : ... .. 6 P7D ...
ROW 6D : ... .. A ... ... ... : ... .. A ... ... ... : ... .. . ... : ... .. A ... : ... .. . ... ... : ... .. 7 ... ... : ... .. 7 ... ... : C-4 01 F P81 ...
ROW 6E : ... .. 8 ... ... ... : ... .. 8 ... ... ... : --- .. . ... : ... .. 8 ... : ... .. . ... ... : ... .. . ... ... : ... .. . ... ... : ... .. D P84 ...
ROW 6F : ... .. 7 ... ... ... : ... .. 7 ... ... ... : ... .. . ... : ... .. 7 ... : ... .. . ... ... : ... .. 6 ... ... : ... .. 6 ... ... : C#4 01 8 P7A ...
ROW 70 : ... .. F ... ... ... : F-3 00 F ... ... ... : C#4 00 . ... : ... .. F ... : ... .. . ... ... : B-5 01 A ... ... : B-4 01 A ... ... : D-4 01 F P81 ...
ROW 71 : ... .. E ... ... ... : ... .. E ... ... ... : D#3 00 . ... : ... .. . ... : ... .. . ... ... : ... .. 9 ... ... : ... .. 9 ... ... : ... .. D ... ...
ROW 72 : ... .. D ... ... ... : ... .. D ... ... ... : G#2 00 . ... : ... .. . ... : ... .. . ... ... : ... .. 8 ... ... : ... .. 8 ... ... : ... .. 8 ... ...
ROW 73 : ... .. 9 ... ... ... : ... .. 9 ... ... ... : G-2 00 . ... : C-# 00 D ... : ... .. . ... ... : ... .. 5 ... ... : ... .. 5 ... ... : ... .. . ... ...
ROW 74 : ... .. . ... ... ... : ... .. . ... ... ... : D-2 00 . ... : ... .. . ... : ... .. . ... ... : ... .. . ... ... : ... .. . ... ... : ... .. . ... ...
ROW 75 : ... .. . ... ... ... : ... .. . ... ... ... : ... .. . ... : ... .. . ... : ... .. . ... ... : ... .. 3 ... ... : ... .. 3 ... ... : ... .. . ... ...
ROW 76 : ... .. . ... ... ... : ... .. . ... ... ... : ... .. . ... : B-# 00 B ... : ... .. . ... ... : ... .. 6 ... ... : ... .. 6 ... ... : ... .. . ... ...
ROW 77 : ... .. . ... ... ... : ... .. . ... ... ... : ... .. . ... : ... .. . ... : ... .. . ... ... : ... .. . ... ... : ... .. . ... ... : ... .. . ... ...
ROW 78 : ... .. . ... ... ... : ... .. . ... ... ... : ... .. . ... : ... .. . ... : ... .. . ... ... : ... .. 5 ... ... : ... .. 5 ... ... : ... .. . ... ...
ROW 79 : ... .. . ... ... ... : ... .. . ... ... ... : ... .. . ... : ... .. 9 ... : ... .. . ... ... : ... .. 3 ... ... : ... .. 3 ... ... : ... .. . ... ...
ROW 7A : ... .. . ... ... ... : ... .. . ... ... ... : ... .. . ... : ... .. . ... : ... .. . ... ... : ... .. . ... ... : ... .. . ... ... : ... .. . ... ...
ROW 7B : ... .. . ... ... ... : ... .. . ... ... ... : --- .. . ... : ... .. . ... : ... .. . ... ... : ... .. 2 ... ... : ... .. 2 ... ... : ... .. . ... ...
ROW 7C : ... .. 8 ... ... ... : ... .. 8 ... ... ... : D-2 00 . ... : ... .. 7 ... : ... .. . ... ... : F-5 01 A ... ... : F-4 01 A ... ... : ... .. . ... ...
ROW 7D : ... .. . ... ... ... : ... .. . ... ... ... : ... .. . ... : ... .. . ... : ... .. . ... ... : ... .. 9 ... ... : ... .. 9 ... ... : ... .. . ... ...
ROW 7E : ... .. . ... ... ... : ... .. . ... ... ... : ... .. . ... : ... .. . ... : ... .. . ... ... : ... .. 8 ... ... : ... .. 8 ... ... : ... .. . ... ...
ROW 7F : ... .. . ... ... ... : ... .. . ... ... ... : ... .. . ... : ... .. 5 ... : ... .. . ... ... : ... .. 5 ... ... : ... .. 5 ... ... : ... .. . ... ...
ROW 80 : ... .. . ... ... ... : ... .. . ... ... ... : ... .. . ... : ... .. . ... : ... .. . ... ... : ... .. . ... ... : ... .. . ... ... : ... .. . ... ...
ROW 81 : ... .. . ... ... ... : ... .. . ... ... ... : --- .. . ... : ... .. . ... : ... .. . ... ... : ... .. 3 ... ... : ... .. 3 ... ... : ... .. . ... ...
ROW 82 : ... .. . ... ... ... : ... .. . ... ... ... : D-2 00 . ... : 4-# 00 D ... : ... .. . ... ... : ... .. 6 ... ... : ... .. 6 ... ... : ... .. . ... ...
ROW 83 : ... .. . ... ... ... : ... .. . ... ... ... : ... .. . ... : ... .. B ... : ... .. . ... ... : ... .. . ... ... : ... .. . ... ... : ... .. . ... ...
ROW 84 : ... .. . ... ... ... : ... .. . ... ... ... : ... .. . ... : ... .. . ... : ... .. . ... ... : ... .. 5 ... ... : ... .. 5 ... ... : ... .. . ... ...
ROW 85 : ... .. . ... ... ... : ... .. . ... ... ... : ... .. . ... : ... .. A ... : ... .. . ... ... : ... .. 3 ... ... : ... .. 3 ... ... : ... .. . ... ...
ROW 86 : ... .. . ... ... ... : ... .. . ... ... ... : ... .. . ... : ... .. 8 ... : ... .. . ... ... : ... .. . ... ... : ... .. . ... ... : ... .. . ... ...
ROW 87 : ... .. . ... ... ... : ... .. . ... ... ... : --- .. . ... : ... .. 7 ... : ... .. . ... ... : ... .. 2 ... ... : ... .. 2 ... ... : ... .. . ... ...
ROW 88 : ... .. . ... ... ... : ... .. . ... ... ... : D-2 00 . ... : 1-# 00 F ... : ... .. . ... ... : D#5 01 A ... ... : D#4 01 A ... ... : C#4 01 8 P7E ...
ROW 89 : ... .. . ... ... ... : ... .. . ... ... ... : ... .. . ... : ... .. C ... : ... .. . ... ... : ... .. 9 ... ... : ... .. 9 ... ... : C-4 01 8 P7B ...
ROW 8A : ... .. . ... ... ... : ... .. . ... ... ... : ... .. . ... : ... .. 6 ... : ... .. . ... ... : ... .. 8 ... ... : ... .. 8 ... ... : B-3 01 8 P7A ...
ROW 8B : ... .. . ... ... ... : ... .. . ... ... ... : ... .. . ... : ... .. 3 ... : ... .. . ... ... : ... .. 5 ... ... : ... .. 5 ... ... : A#3 01 8 P79 ...
ROW 8C : ... .. . ... ... ... : ... .. . ... ... ... : ... .. . ... : ... .. 2 ... : ... .. . ... ... : ... .. . ... ... : ... .. . ... ... : A-3 01 8 P7A ...
ROW 8D : ... .. . ... ... ... : ... .. . ... ... ... : --- .. . ... : ... .. 0 ... : ... .. . ... ... : ... .. 3 ... ... : ... .. 3 ... ... : G#3 01 8 P7B ...
ROW 8E : ... .. . ... ... ... : ... .. . ... ... ... : D-2 00 . ... : ... .. F ... : ... .. . ... ... : ... .. 6 ... ... : ... .. 6 ... ... : G-3 01 8 P7D ...
ROW 8F : ... .. . ... ... ... : ... .. . ... ... ... : ... .. . ... : ... .. C ... : ... .. . ... ... : ... .. . ... ... : ... .. . ... ... : F#3 01 8 P81 ...
ROW 90 : ... .. . ... ... ... : ... .. . ... ... ... : ... .. . ... : ... .. 6 ... : ... .. . ... ... : ... .. 5 ... ... : ... .. 5 ... ... : F-3 01 8 P85 ...
ROW 91 : ... .. 7 ... ... ... : ... .. 7 ... ... ... : ... .. . ... : ... .. 3 ... : ... .. . ... ... : ... .. 3 ... ... : ... .. 3 ... ... : E-3 01 8 P8B ...
ROW 92 : ... .. . ... ... ... : ... .. . ... ... ... : ... .. . ... : ... .. 2 ... : ... .. . ... ... : ... .. . ... ... : ... .. . ... ... : ... .. . P7B ...
ROW 93 : ... .. . ... ... ... : ... .. . ... ... ... : --- .. . ... : ... .. 0 ... : ... .. . ... ... : ... .. 2 ... ... : ... .. 2 ... ... : D#3 01 8 P82 ...
ROW 94 : ... .. . ... ... ... : ... .. . ... ... ... : D-2 00 . ... : 4-# 00 D ... : ... .. . ... ... : F-5 01 A ... ... : F-4 01 A ... ... : D-3 01 8 P8A ...
ROW 95 : ... .. . ... ... ... : ... .. . ... ... ... : ... .. . ... : ... .. B ... : ... .. . ... ... : ... .. 9 ... ... : ... .. 9 ... ... : ... .. . P7A ...
ROW 96 : ... .. . ... ... ... : ... .. . ... ... ... : ... .. . ... : ... .. . ... : ... .. . ... ... : ... .. 8 ... ... : ... .. 8 ... ... : C#3 01 8 P84 ...
ROW 97 : ... .. . ... ... ... : ... .. . ... ... ... : ... .. . ... : ... .. A ... : ... .. . ... ... : ... .. 5 ... ... : ... .. 5 ... ... : ... .. . P74 ...
ROW 98 : ... .. . ... ... ... : ... .. . ... ... ... : ... .. . ... : ... .. 8 ... : ... .. . ... ... : ... .. . ... ... : ... .. . ... ... : C-3 01 8 P80 ...
ROW 99 : ... .. . ... ... ... : ... .. . ... ... ... : --- .. . ... : ... .. 7 ... : ... .. . ... ... : ... .. 3 ... ... : ... .. 3 ... ... : B-2 01 8 P8D ...
ROW 9A : ... .. 6 ... ... ... : ... .. 6 ... ... ... : D-2 00 . ... : 1-# 00 F ... : ... .. . ... ... : ... .. 6 ... ... : ... .. 6 ... ... : ... .. . P7D ...
ROW 9B : ... .. . ... ... ... : ... .. . ... ... ... : ... .. . ... : ... .. C ... : ... .. . ... ... : ... .. . ... ... : ... .. . ... ... : A#2 01 8 P8B ...
ROW 9C : ... .. . ... ... ... : ... .. . ... ... ... : ... .. . ... : ... .. 6 ... : ... .. . ... ... : ... .. 5 ... ... : ... .. 5 ... ... : ... .. . P7B ...
ROW 9D : ... .. . ... ... ... : ... .. . ... ... ... : ... .. . ... : ... .. 3 ... : ... .. . ... ... : ... .. 3 ... ... : ... .. 3 ... ... : A-2 01 8 P8C ...
ROW 9E : ... .. . ... ... ... : ... .. . ... ... ... : ... .. . ... : ... .. 2 ... : ... .. . ... ... : ... .. . ... ... : ... .. . ... ... : ... .. . P7C ...
ROW 9F : ... .. . ... ... ... : ... .. . ... ... ... : --- .. . ... : ... .. 0 ... : ... .. . ... ... : ... .. 2 ... ... : ... .. 2 ... ... : G#2 01 8 P8F ...
ROW A0 : ... .. . ... ... ... : ... .. . ... ... ... : D-2 00 . ... : ... .. F ... : ... .. . ... ... : B-4 01 A ... ... : B-3 01 A ... ... : A-2 01 A P81 ...
ROW A1 : ... .. . ... ... ... : ... .. . ... ... ... : ... .. . ... : ... .. C ... : ... .. . ... ... : ... .. 9 ... ... : ... .. 9 ... ... : ... .. 8 ... ...
ROW A2 : ... .. . ... ... ... : ... .. . ... ... ... : ... .. . ... : ... .. 0 ... : ... .. . ... ... : ... .. 8 ... ... : ... .. 8 ... ... : ... .. 5 ... ...
ROW A3 : ... .. . ... ... ... : ... .. . ... ... ... : ... .. . ... : ... .. . ... : ... .. . ... ... : ... .. 5 ... ... : ... .. 5 ... ... : ... .. . ... ...
ROW A4 : ... .. . ... ... ... : ... .. . ... ... ... : ... .. . ... : ... .. . ... : ... .. . ... ... : ... .. . ... ... : ... .. . ... ... : ... .. . ... ...
ROW A5 : ... .. . ... ... ... : ... .. . ... ... ... : --- .. . ... : ... .. . ... : ... .. . ... ... : ... .. 3 ... ... : ... .. 3 ... ... : ... .. . ... ...
ROW A6 : ... .. . ... ... ... : ... .. . ... ... ... : D-2 00 . ... : 4-# 00 D ... : ... .. . ... ... : ... .. 6 ... ... : ... .. 6 ... ... : A#2 01 A ... ...
ROW A7 : ... .. . ... ... ... : ... .. . ... ... ... : ... .. . ... : ... .. B ... : ... .. . ... ... : ... .. . ... ... : ... .. . ... ... : ... .. 8 ... ...
ROW A8 : ... .. . ... ... ... : ... .. . ... ... ... : ... .. . ... : ... .. 0 ... : ... .. . ... ... : ... .. 5 ... ... : ... .. 5 ... ... : ... .. 5 ... ...
ROW A9 : ... .. . ... ... ... : ... .. . ... ... ... : ... .. . ... : ... .. . ... : ... .. . ... ... : ... .. 3 ... ... : ... .. 3 ... ... : ... .. . ... ...
ROW AA : ... .. . ... ... ... : ... .. . ... ... ... : ... .. . ... : ... .. . ... : ... .. . ... ... : ... .. . ... ... : ... .. . ... ... : ... .. . ... ...
ROW AB : ... .. . ... ... ... : ... .. . ... ... ... : --- .. . ... : ... .. . ... : ... .. . ... ... : ... .. 2 ... ... : ... .. 2 ... ... : ... .. . ... ...
ROW AC : ... .. . ... ... ... : ... .. . ... ... ... : D-2 00 . ... : 1-# 00 F ... : ... .. . ... ... : C#5 01 A ... ... : C#4 01 A ... ... : D-3 01 A ... ...
ROW AD : ... .. . ... ... ... : ... .. . ... ... ... : ... .. . ... : ... .. C ... : ... .. . ... ... : ... .. 9 ... ... : ... .. 9 ... ... : ... .. 8 ... ...
ROW AE : ... .. . ... ... ... : ... .. . ... ... ... : ... .. . ... : ... .. 6 ... : ... .. . ... ... : ... .. 8 ... ... : ... .. 8 ... ... : ... .. 5 ... ...
ROW AF : ... .. 5 ... ... ... : ... .. 5 ... ... ... : ... .. . ... : ... .. 3 ... : ... .. . ... ... : ... .. 5 ... ... : ... .. 5 ... ... : ... .. . ... ...
ROW B0 : ... .. . ... ... ... : ... .. . ... ... ... : ... .. . ... : ... .. 2 ... : ... .. . ... ... : ... .. . ... ... : ... .. . ... ... : ... .. . ... ...
ROW B1 : ... .. . ... ... ... : ... .. . ... ... ... : --- .. . ... : ... .. 0 ... : ... .. . ... ... : ... .. 3 ... ... : ... .. 3 ... ... : ... .. . ... ...
ROW B2 : ... .. . ... ... ... : ... .. . ... ... ... : D-2 00 . ... : ... .. F ... : ... .. . ... ... : ... .. 6 ... ... : ... .. 6 ... ... : F-3 01 A ... ...
ROW B3 : ... .. . ... ... ... : ... .. . ... ... ... : ... .. . ... : ... .. C ... : ... .. . ... ... : ... .. . ... ... : ... .. . ... ... : ... .. 8 ... ...
ROW B4 : ... .. . ... ... ... : ... .. . ... ... ... : ... .. . ... : ... .. 6 ... : ... .. . ... ... : ... .. 5 ... ... : ... .. 5 ... ... : ... .. 5 ... ...
ROW B5 : ... .. . ... ... ... : ... .. . ... ... ... : ... .. . ... : ... .. 3 ... : ... .. . ... ... : ... .. 3 ... ... : ... .. 3 ... ... : ... .. . ... ...
ROW B6 : ... .. . ... ... ... : ... .. . ... ... ... : ... .. . ... : ... .. 2 ... : ... .. . ... ... : ... .. . ... ... : ... .. . ... ... : ... .. . ... ...
ROW B7 : ... .. . ... ... ... : ... .. . ... ... ... : --- .. . ... : ... .. 0 ... : ... .. . ... ... : ... .. 2 ... ... : ... .. 2 ... ... : ... .. . ... ...
ROW B8 : ... .. . P85 ... ... : ... .. . P86 ... ... : D-2 00 . ... : 4-# 00 D ... : ... .. . ... ... : B-5 01 A ... ... : B-4 01 A ... ... : D-2 01 A ... ...
ROW B9 : ... .. . P87 ... ... : F#3 00 5 P79 ... ... : ... .. . ... : ... .. B ... : ... .. . ... ... : ... .. 9 ... ... : ... .. 9 ... ... : ... .. 8 ... ...
ROW BA : ... .. . P86 ... ... : ... .. . ... ... ... : ... .. . ... : ... .. . ... : ... .. . ... ... : ... .. 8 ... ... : ... .. 8 ... ... : ... .. 5 ... ...
ROW BB : ... .. . P83 ... ... : F-3 00 5 P87 ... ... : ... .. . ... : ... .. A ... : ... .. . ... ... : ... .. 5 ... ... : ... .. 5 ... ... : ... .. . ... ...
ROW BC : ... .. . P7F ... ... : ... .. . P81 ... ... : ... .. . ... : ... .. 8 ... : ... .. . ... ... : ... .. . ... ... : ... .. . ... ... : ... .. . ... ...
ROW BD : ... .. . P7C ... ... : ... .. . P7C ... ... : --- .. . ... : ... .. 7 ... : ... .. . ... ... : ... .. 3 ... ... : ... .. 3 ... ... : ... .. . ... ...
ROW BE : ... .. . P7B ... ... : ... .. . P77 ... ... : D-2 00 . ... : 1-# 00 F ... : ... .. . ... ... : ... .. 6 ... ... : ... .. 6 ... ... : E-2 01 A ... ...
ROW BF : ... .. . P7D ... ... : E-3 00 5 P88 ... ... : ... .. . ... : ... .. C ... : ... .. . ... ... : ... .. . ... ... : ... .. . ... ... : ... .. 8 ... ...
ROW C0 : ... .. . P81 ... ... : F-3 00 5 P77 ... ... : ... .. . ... : ... .. 6 ... : ... .. . ... ... : ... .. 5 ... ... : ... .. 5 ... ... : ... .. 5 ... ...
ROW C1 : ... .. . P84 ... ... : ... .. . P7D ... ... : ... .. . ... : ... .. 3 ... : ... .. . ... ... : ... .. 3 ... ... : ... .. 3 ... ... : ... .. . ... ...
ROW C2 : ... .. . P87 ... ... : ... .. . P82 ... ... : ... .. . ... : ... .. 2 ... : ... .. . ... ... : ... .. . ... ... : ... .. . ... ... : ... .. . ... ...
ROW C3 : ... .. . ... ... ... : ... .. . P88 ... ... : --- .. . ... : ... .. 0 ... : ... .. . ... ... : ... .. 2 ... ... : ... .. 2 ... ... : ... .. . ... ...
ROW C4 : ... .. 6 P83 ... ... : F#3 00 6 P79 ... ... : D-2 00 . ... : ... .. F ... : ... .. . ... ... : F-5 01 A ... ... : F-4 01 A ... ... : F-2 01 A ... ...
ROW C5 : ... .. . P80 ... ... : ... .. . P78 ... ... : ... .. . ... : ... .. C ... : ... .. . ... ... : ... .. 9 ... ... : ... .. 9 ... ... : ... .. 8 ... ...
ROW C6 : ... .. . P7C ... ... : F-3 00 6 P85 ... ... : ... .. . ... : ... .. 6 ... : ... .. . ... ... : ... .. 8 ... ... : ... .. 8 ... ... : ... .. 5 ... ...
ROW C7 : ... .. . P7B ... ... : ... .. . P80 ... ... : ... .. . ... : ... .. 3 ... : ... .. . ... ... : ... .. 5 ... ... : ... .. 5 ... ... : ... .. . ... ...
ROW C8 : ... .. . P7D ... ... : ... .. . P7A ... ... : ... .. . ... : ... .. 2 ... : ... .. . ... ... : ... .. . ... ... : ... .. . ... ... : ... .. . ... ...
ROW C9 : ... .. . P81 ... ... : E-3 00 6 P88 ... ... : --- .. . ... : ... .. 0 ... : ... .. . ... ... : ... .. 3 ... ... : ... .. 3 ... ... : ... .. . ... ...
ROW CA : ... .. . P84 ... ... : ... .. . ... ... ... : D-2 00 . ... : 4-# 00 D ... : ... .. . ... ... : ... .. 6 ... ... : ... .. 6 ... ... : A-2 01 A ... ...
ROW CB : ... .. . P87 ... ... : F-3 00 6 P79 ... ... : ... .. . ... : ... .. B ... : ... .. . ... ... : ... .. . ... ... : ... .. . ... ... : ... .. 8 ... ...
ROW CC : ... .. . ... ... ... : ... .. . P7F ... ... : ... .. . ... : ... .. . ... : ... .. . ... ... : ... .. 5 ... ... : ... .. 5 ... ... : ... .. 5 ... ...
ROW CD : ... .. . P84 ... ... : ... .. . P84 ... ... : ... .. . ... : ... .. A ... : ... .. . ... ... : ... .. 3 ... ... : ... .. 3 ... ... : ... .. . ... ...
ROW CE : ... .. . P81 ... ... : ... .. . P89 ... ... : ... .. . ... : ... .. 8 ... : ... .. . ... ... : ... .. . ... ... : ... .. . ... ... : ... .. . ... ...
ROW CF : ... .. . P7D ... ... : F#3 00 6 P79 ... ... : --- .. . ... : ... .. 7 ... : ... .. . ... ... : ... .. 2 ... ... : ... .. 2 ... ... : ... .. . ... ...
ROW D0 : ... .. . P7B ... ... : F-3 00 6 P89 ... ... : D-2 00 . ... : 1-# 00 F ... : ... .. . ... ... : D#5 01 A ... ... : D#4 01 A ... ... : A#2 01 A ... ...
ROW D1 : ... .. . P7C ... ... : ... .. . P83 ... ... : ... .. . ... : ... .. C ... : ... .. . ... ... : ... .. 9 ... ... : ... .. 9 ... ... : ... .. 8 ... ...
ROW D2 : ... .. . P80 ... ... : ... .. . P7E ... ... : ... .. . ... : ... .. 6 ... : ... .. . ... ... : ... .. 8 ... ... : ... .. 8 ... ... : ... .. 5 ... ...
ROW D3 : ... .. . P83 ... ... : ... .. . P78 ... ... : ... .. . ... : ... .. 3 ... : ... .. . ... ... : ... .. 5 ... ... : ... .. 5 ... ... : ... .. . ... ...
ROW D4 : ... .. . P87 ... ... : E-3 00 6 P88 ... ... : ... .. . ... : ... .. 2 ... : ... .. . ... ... : ... .. . ... ... : ... .. . ... ... : ... .. . ... ...
ROW D5 : ... .. . ... ... ... : ... .. . P89 ... ... : --- .. . ... : ... .. 0 ... : ... .. . ... ... : ... .. 3 ... ... : ... .. 3 ... ... : ... .. . ... ...
ROW D6 : ... .. . P84 ... ... : F-3 00 6 P7B ... ... : D-2 00 . ... : ... .. F ... : ... .. . ... ... : ... .. 6 ... ... : ... .. 6 ... ... : C#3 01 A ... ...
ROW D7 : ... .. . P81 ... ... : ... .. . P80 ... ... : ... .. . ... : ... .. C ... : ... .. . ... ... : ... .. . ... ... : ... .. . ... ... : ... .. 8 ... ...
ROW D8 : ... .. . P7D ... ... : ... .. . P86 ... ... : ... .. . ... : ... .. 6 ... : ... .. . ... ... : ... .. 5 ... ... : ... .. 5 ... ... : ... .. 5 ... ...
ROW D9 : ... .. 7 P7B ... ... : F#3 00 7 P79 ... ... : ... .. . ... : ... .. 3 ... : ... .. . ... ... : ... .. 3 ... ... : ... .. 3 ... ... : ... .. . ... ...
ROW DA : ... .. . P7C ... ... : ... .. . ... ... ... : ... .. . ... : ... .. 2 ... : ... .. . ... ... : ... .. . ... ... : ... .. . ... ... : ... .. . ... ...
ROW DB : ... .. . P7F ... ... : F-3 00 7 P87 ... ... : --- .. . ... : ... .. 0 ... : ... .. . ... ... : ... .. 2 ... ... : ... .. 2 ... ... : ... .. . ... ...
ROW DC : ... .. . P83 ... ... : ... .. . P81 ... ... : D-2 00 . ... : 4-# 00 D ... : ... .. . ... ... : F-5 01 A ... ... : F-4 01 A ... ... : E-2 01 A ... ...
ROW DD : ... .. . P86 ... ... : ... .. . P7C ... ... : ... .. . ... : ... .. B ... : ... .. . ... ... : ... .. 9 ... ... : ... .. 9 ... ... : ... .. 8 ... ...
ROW DE : ... .. . P87 ... ... : ... .. . P77 ... ... : ... .. . ... : ... .. . ... : ... .. . ... ... : ... .. 8 ... ... : ... .. 8 ... ... : ... .. 5 ... ...
ROW DF : ... .. . P85 ... ... : E-3 00 7 P88 ... ... : ... .. . ... : ... .. A ... : ... .. . ... ... : ... .. 5 ... ... : ... .. 5 ... ... : ... .. . ... ...
ROW E0 : ... .. . P81 ... ... : F-3 00 7 P77 ... ... : ... .. . ... : ... .. 8 ... : ... .. . ... ... : ... .. . ... ... : ... .. . ... ... : ... .. . ... ...
ROW E1 : ... .. . P7E ... ... : ... .. . P7D ... ... : --- .. . ... : ... .. 7 ... : ... .. . ... ... : ... .. 3 ... ... : ... .. 3 ... ... : ... .. . ... ...
ROW E2 : ... .. 8 P7B ... ... : ... .. 8 P82 ... ... : D-2 00 . ... : 1-# 00 F ... : ... .. . ... ... : ... .. 6 ... ... : ... .. 6 ... ... : F-2 01 A ... ...
ROW E3 : ... .. . ... ... ... : ... .. . P88 ... ... : ... .. . ... : ... .. C ... : ... .. . ... ... : ... .. . ... ... : ... .. . ... ... : ... .. 8 ... ...
ROW E4 : ... .. . P7F ... ... : F#3 00 8 P79 ... ... : ... .. . ... : ... .. 6 ... : ... .. . ... ... : ... .. 5 ... ... : ... .. 5 ... ... : ... .. 5 ... ...
ROW E5 : ... .. . P82 ... ... : ... .. . P78 ... ... : ... .. . ... : ... .. 3 ... : ... .. . ... ... : ... .. 3 ... ... : ... .. 3 ... ... : ... .. . ... ...
ROW E6 : ... .. . P86 ... ... : F-3 00 8 P85 ... ... : ... .. . ... : ... .. 2 ... : ... .. . ... ... : ... .. . ... ... : ... .. . ... ... : ... .. . ... ...
ROW E7 : ... .. . P87 ... ... : ... .. . P80 ... ... : --- .. . ... : ... .. 0 ... : ... .. . ... ... : ... .. 2 ... ... : ... .. 2 ... ... : ... .. . ... ...
ROW E8 : ... .. . P85 ... ... : ... .. . P7A ... ... : D-2 00 . ... : 4-# 00 D ... : ... .. . ... ... : F#4 01 A ... ... : F#3 01 A ... ... : A-2 01 A ... ...
ROW E9 : ... .. . P81 ... ... : E-3 00 8 P88 ... ... : ... .. . ... : ... .. B ... : ... .. . ... ... : ... .. 9 ... ... : ... .. 9 ... ... : ... .. 8 ... ...
ROW EA : ... .. . P7E ... ... : ... .. . ... ... ... : ... .. . ... : ... .. . ... : ... .. . ... ... : ... .. 8 ... ... : ... .. 8 ... ... : ... .. 5 ... ...
ROW EB : ... .. . P7B ... ... : F-3 00 8 P79 ... ... : ... .. . ... : ... .. A ... : ... .. . ... ... : ... .. 5 ... ... : ... .. 5 ... ... : ... .. . ... ...
ROW EC : ... .. . ... ... ... : ... .. . P7F ... ... : ... .. . ... : ... .. 8 ... : ... .. . ... ... : ... .. . ... ... : ... .. . ... ... : ... .. . ... ...
ROW ED : ... .. . P7E ... ... : ... .. . P84 ... ... : --- .. . ... : ... .. 7 ... : ... .. . ... ... : ... .. 3 ... ... : ... .. 3 ... ... : ... .. . ... ...
ROW EE : ... .. . P81 ... ... : ... .. . P89 ... ... : D-2 00 . ... : 1-# 00 F ... : ... .. . ... ... : ... .. 6 ... ... : ... .. 6 ... ... : A#2 01 A ... ...
ROW EF : ... .. . P85 ... ... : F#3 00 8 P79 ... ... : ... .. . ... : ... .. C ... : ... .. . ... ... : ... .. . ... ... : ... .. . ... ... : ... .. 8 ... ...
ROW F0 : ... .. . P87 ... ... : F-3 00 8 P89 ... ... : ... .. . ... : ... .. 6 ... : ... .. . ... ... : ... .. 5 ... ... : ... .. 5 ... ... : ... .. 5 ... ...
ROW F1 : ... .. . P86 ... ... : ... .. . P83 ... ... : ... .. . ... : ... .. 3 ... : ... .. . ... ... : ... .. 3 ... ... : ... .. 3 ... ... : ... .. . ... ...
ROW F2 : ... .. . P82 ... ... : ... .. . P7E ... ... : ... .. . ... : ... .. 2 ... : ... .. . ... ... : ... .. . ... ... : ... .. . ... ... : ... .. . ... ...
ROW F3 : ... .. . P7F ... ... : ... .. . P78 ... ... : --- .. . ... : ... .. 0 ... : ... .. . ... ... : ... .. 2 ... ... : ... .. 2 ... ... : ... .. . ... ...
ROW F4 : ... .. . P7B ... ... : E-3 00 8 P88 ... ... : D-2 00 . ... : 4-# 00 D ... : ... .. . ... ... : G#4 01 A ... ... : G#3 01 A ... ... : D-3 01 A ... ...
ROW F5 : ... .. . ... ... ... : ... .. . P89 ... ... : ... .. . ... : ... .. B ... : ... .. . ... ... : ... .. 9 ... ... : ... .. 9 ... ... : ... .. 8 ... ...
ROW F6 : ... .. . P7E ... ... : F-3 00 8 P7B ... ... : ... .. . ... : ... .. . ... : ... .. . ... ... : ... .. 8 ... ... : ... .. 8 ... ... : ... .. 5 ... ...
ROW F7 : ... .. 9 P81 ... ... : ... .. 9 P80 ... ... : ... .. . ... : ... .. A ... : ... .. . ... ... : ... .. 5 ... ... : ... .. 5 ... ... : ... .. . ... ...
ROW F8 : ... .. . P85 ... ... : ... .. . P86 ... ... : ... .. . ... : ... .. 8 ... : ... .. . ... ... : ... .. . ... ... : ... .. . ... ... : ... .. . ... ...
ROW F9 : ... .. . P87 ... ... : F#3 00 9 P79 ... ... : --- .. . ... : ... .. 7 ... : ... .. . ... ... : ... .. 3 ... ... : ... .. 3 ... ... : ... .. . ... ...
ROW FA : ... .. . P86 ... ... : ... .. . ... ... ... : D-2 00 . ... : 1-# 00 F ... : ... .. . ... ... : ... .. 6 ... ... : ... .. 6 ... ... : F-3 01 A ... ...
ROW FB : ... .. . P83 ... ... : F-3 00 9 P87 ... ... : ... .. . ... : ... .. C ... : ... .. . ... ... : ... .. . ... ... : ... .. . ... ... : ... .. 8 ... ...
ROW FC : ... .. . P7F ... ... : ... .. . P81 ... ... : ... .. . ... : ... .. 6 ... : ... .. . ... ... : ... .. 5 ... ... : ... .. 5 ... ... : ... .. 5 ... ...
ROW FD : ... .. . P7C ... ... : ... .. . P7C ... ... : ... .. . ... : ... .. 3 ... : ... .. . ... ... : ... .. 3 ... ... : ... .. 3 ... ... : ... .. . ... ...
ROW FE : ... .. . P7B ... ... : ... .. . P77 ... ... : ... .. . ... : ... .. 2 ... : ... .. . ... ... : ... .. . ... ... : ... .. . ... ... : ... .. . ... ...
ROW FF : ... .. . P7D ... ... : E-3 00 9 P88 ... ... : --- .. . ... : ... .. 0 ... : ... .. . ... ... : ... .. 2 ... ... : ... .. 2 ... ... : ... .. . ... ...

PATTERN 1B
ROW 00 : F-2 00 F P81 ... ... : G#3 00 F P80 ... ... : E-4 00 . ... : D-# 00 F ... : ... .. . ... ... : B-5 01 A ... ... : B-4 01 A ... ... : F-4 01 F ... ...
ROW 01 : ... .. E ... ... ... : ... .. E ... ... ... : F#3 00 . ... : ... .. . ... : ... .. . ... ... : ... .. 9 ... ... : ... .. 9 ... ... : ... .. D ... ...
ROW 02 : ... .. D ... ... ... : ... .. D ... ... ... : B-2 00 . ... : ... .. . ... : ... .. . ... ... : ... .. 8 ... ... : ... .. 8 ... ... : ... .. 8 ... ...
ROW 03 : ... .. 9 ... ... ... : ... .. 9 ... ... ... : A#2 00 . ... : C-# 00 D ... : ... .. . ... ... : ... .. 5 ... ... : ... .. 5 ... ... : ... .. . ... ...
ROW 04 : ... .. . ... ... ... : ... .. . ... ... ... : F-2 00 . ... : ... .. . ... : ... .. . ... ... : ... .. . ... ... : ... .. . ... ... : ... .. . ... ...
ROW 05 : ... .. . ... ... ... : ... .. . ... ... ... : --- .. . ... : ... .. . ... : ... .. . ... ... : ... .. 3 ... ... : ... .. 3 ... ... : ... .. . ... ...
ROW 06 : ... .. . ... ... ... : ... .. . ... ... ... : F-2 00 . ... : B-# 00 B ... : ... .. . ... ... : ... .. 6 ... ... : ... .. 6 ... ... : ... .. . ... ...
ROW 07 : ... .. . ... ... ... : ... .. . ... ... ... : ... .. . ... : ... .. . ... : ... .. . ... ... : ... .. . ... ... : ... .. . ... ... : ... .. . ... ...
ROW 08 : ... .. . ... ... ... : ... .. . ... ... ... : ... .. . ... : ... .. . ... : ... .. . ... ... : ... .. 5 ... ... : ... .. 5 ... ... : ... .. . ... ...
ROW 09 : ... .. . ... ... ... : ... .. . ... ... ... : ... .. . ... : ... .. 9 ... : ... .. . ... ... : ... .. 3 ... ... : ... .. 3 ... ... : ... .. . ... ...
ROW 0A : ... .. . ... ... ... : ... .. . ... ... ... : ... .. . ... : ... .. . ... : ... .. . ... ... : ... .. . ... ... : ... .. . ... ... : ... .. . ... ...
ROW 0B : ... .. . ... ... ... : ... .. . ... ... ... : --- .. . ... : ... .. . ... : ... .. . ... ... : ... .. 2 ... ... : ... .. 2 ... ... : ... .. . ... ...
ROW 0C : ... .. 8 ... ... ... : ... .. 8 ... ... ... : F-2 00 . ... : ... .. 7 ... : ... .. . ... ... : F-5 01 A ... ... : F-4 01 A ... ... : ... .. . ... ...
ROW 0D : ... .. . ... ... ... : ... .. . ... ... ... : ... .. . ... : ... .. . ... : ... .. . ... ... : ... .. 9 ... ... : ... .. 9 ... ... : ... .. . ... ...
ROW 0E : ... .. . ... ... ... : ... .. . ... ... ... : ... .. . ... : ... .. . ... : ... .. . ... ... : ... .. 8 ... ... : ... .. 8 ... ... : ... .. . ... ...
ROW 0F : ... .. . ... ... ... : ... .. . ... ... ... : ... .. . ... : ... .. 5 ... : ... .. . ... ... : ... .. 5 ... ... : ... .. 5 ... ... : ... .. . ... ...
ROW 10 : ... .. . ... ... ... : ... .. . ... ... ... : ... .. . ... : ... .. . ... : ... .. . ... ... : ... .. . ... ... : ... .. . ... ... : ... .. . ... ...
ROW 11 : ... .. . ... ... ... : ... .. . ... ... ... : --- .. . ... : ... .. . ... : ... .. . ... ... : ... .. 3 ... ... : ... .. 3 ... ... : ... .. . ... ...
ROW 12 : ... .. . ... ... ... : ... .. . ... ... ... : F-2 00 . ... : 4-# 00 D ... : ... .. . ... ... : ... .. 6 ... ... : ... .. 6 ... ... : ... .. . ... ...
ROW 13 : ... .. . ... ... ... : ... .. . ... ... ... : ... .. . ... : ... .. B ... : ... .. . ... ... : ... .. . ... ... : ... .. . ... ... : ... .. . ... ...
ROW 14 : ... .. . ... ... ... : ... .. . ... ... ... : ... .. . ... : ... .. . ... : ... .. . ... ... : ... .. 5 ... ... : ... .. 5 ... ... : ... .. . ... ...
ROW 15 : ... .. . ... ... ... : ... .. . ... ... ... : ... .. . ... : ... .. A ... : ... .. . ... ... : ... .. 3 ... ... : ... .. 3 ... ... : ... .. . ... ...
ROW 16 : ... .. . ... ... ... : ... .. . ... ... ... : ... .. . ... : ... .. 8 ... : ... .. . ... ... : ... .. . ... ... : ... .. . ... ... : ... .. . ... ...
ROW 17 : ... .. . ... ... ... : ... .. . ... ... ... : --- .. . ... : ... .. 7 ... : ... .. . ... ... : ... .. 2 ... ... : ... .. 2 ... ... : ... .. . ... ...
ROW 18 : ... .. . ... ... ... : ... .. . ... ... ... : F-2 00 . ... : 1-# 00 F ... : ... .. . ... ... : D#5 01 A ... ... : D#4 01 A ... ... : E-4 01 8 P7C ...
ROW 19 : ... .. . ... ... ... : ... .. . ... ... ... : ... .. . ... : ... .. C ... : ... .. . ... ... : ... .. 9 ... ... : ... .. 9 ... ... : D-4 01 8 P84 ...
ROW 1A : ... .. . ... ... ... : ... .. . ... ... ... : ... .. . ... : ... .. 6 ... : ... .. . ... ... : ... .. 8 ... ... : ... .. 8 ... ... : C#4 01 8 P81 ...
ROW 1B : ... .. . ... ... ... : ... .. . ... ... ... : ... .. . ... : ... .. 3 ... : ... .. . ... ... : ... .. 5 ... ... : ... .. 5 ... ... : C-4 01 8 P7E ...
ROW 1C : ... .. . ... ... ... : ... .. . ... ... ... : ... .. . ... : ... .. 2 ... : ... .. . ... ... : ... .. . ... ... : ... .. . ... ... : B-3 01 8 P7D ...
ROW 1D : ... .. . ... ... ... : ... .. . ... ... ... : --- .. . ... : ... .. 0 ... : ... .. . ... ... : ... .. 3 ... ... : ... .. 3 ... ... : A#3 01 8 P7C ...
ROW 1E : ... .. . ... ... ... : ... .. . ... ... ... : F-2 00 . ... : ... .. F ... : ... .. . ... ... : ... .. 6 ... ... : ... .. 6 ... ... : A-3 01 8 P7D ...
ROW 1F : ... .. . ... ... ... : ... .. . ... ... ... : ... .. . ... : ... .. C ... : ... .. . ... ... : ... .. . ... ... : ... .. . ... ... : G#3 01 8 P7E ...
ROW 20 : ... .. . ... ... ... : ... .. . ... ... ... : ... .. . ... : ... .. 6 ... : ... .. . ... ... : ... .. 5 ... ... : ... .. 5 ... ... : G-3 01 8 P80 ...
ROW 21 : ... .. 7 ... ... ... : ... .. 7 ... ... ... : ... .. . ... : ... .. 3 ... : ... .. . ... ... : ... .. 3 ... ... : ... .. 3 ... ... : F#3 01 8 P84 ...
ROW 22 : ... .. . ... ... ... : ... .. . ... ... ... : ... .. . ... : ... .. 2 ... : ... .. . ... ... : ... .. . ... ... : ... .. . ... ... : F-3 01 8 P88 ...
ROW 23 : ... .. . ... ... ... : ... .. . ... ... ... : --- .. . ... : ... .. 0 ... : ... .. . ... ... : ... .. 2 ... ... : ... .. 2 ... ... : ... .. . P78 ...
ROW 24 : ... .. . ... ... ... : ... .. . ... ... ... : F-2 00 . ... : 4-# 00 D ... : ... .. . ... ... : F-5 01 A ... ... : F-4 01 A ... ... : E-3 01 8 P7E ...
ROW 25 : ... .. . ... ... ... : ... .. . ... ... ... : ... .. . ... : ... .. B ... : ... .. . ... ... : ... .. 9 ... ... : ... .. 9 ... ... : D#3 01 8 P85 ...
ROW 26 : ... .. . ... ... ... : ... .. . ... ... ... : ... .. . ... : ... .. . ... : ... .. . ... ... : ... .. 8 ... ... : ... .. 8 ... ... : ... .. . P75 ...
ROW 27 : ... .. . ... ... ... : ... .. . ... ... ... : ... .. . ... : ... .. A ... : ... .. . ... ... : ... .. 5 ... ... : ... .. 5 ... ... : D-3 01 8 P7D ...
ROW 28 : ... .. . ... ... ... : ... .. . ... ... ... : ... .. . ... : ... .. 8 ... : ... .. . ... ... : ... .. . ... ... : ... .. . ... ... : C#3 01 8 P87 ...
ROW 29 : ... .. . ... ... ... : ... .. . ... ... ... : --- .. . ... : ... .. 7 ... : ... .. . ... ... : ... .. 3 ... ... : ... .. 3 ... ... : ... .. . P77 ...
ROW 2A : ... .. 6 ... ... ... : ... .. 6 ... ... ... : F-2 00 . ... : 1-# 00 F ... : ... .. . ... ... : ... .. 6 ... ... : ... .. 6 ... ... : C-3 01 8 P83 ...
ROW 2B : ... .. . ... ... ... : ... .. . ... ... ... : ... .. . ... : ... .. C ... : ... .. . ... ... : ... .. . ... ... : ... .. . ... ... : ... .. . P73 ...
ROW 2C : ... .. . ... ... ... : ... .. . ... ... ... : ... .. . ... : ... .. 6 ... : ... .. . ... ... : ... .. 5 ... ... : ... .. 5 ... ... : B-2 01 8 P80 ...
ROW 2D : ... .. . ... ... ... : ... .. . ... ... ... : ... .. . ... : ... .. 3 ... : ... .. . ... ... : ... .. 3 ... ... : ... .. 3 ... ... : A#2 01 8 P8E ...
ROW 2E : ... .. . ... ... ... : ... .. . ... ... ... : ... .. . ... : ... .. 2 ... : ... .. . ... ... : ... .. . ... ... : ... .. . ... ... : ... .. . P7E ...
ROW 2F : ... .. . ... ... ... : ... .. . ... ... ... : --- .. . ... : ... .. 0 ... : ... .. . ... ... : ... .. 2 ... ... : ... .. 2 ... ... : A-2 01 8 P8F ...
ROW 30 : ... .. . ... ... ... : ... .. . ... ... ... : F-2 00 . ... : ... .. F ... : ... .. . ... ... : B-4 01 A ... ... : B-3 01 A ... ... : C-3 01 A P81 ...
ROW 31 : ... .. . ... ... ... : ... .. . ... ... ... : ... .. . ... : ... .. C ... : ... .. . ... ... : ... .. 9 ... ... : ... .. 9 ... ... : ... .. 8 ... ...
ROW 32 : ... .. . ... ... ... : ... .. . ... ... ... : ... .. . ... : ... .. 6 ... : ... .. . ... ... : ... .. 8 ... ... : ... .. 8 ... ... : ... .. 5 ... ...
ROW 33 : ... .. . ... ... ... : ... .. . ... ... ... : ... .. . ... : ... .. 3 ... : ... .. . ... ... : ... .. 5 ... ... : ... .. 5 ... ... : ... .. . ... ...
ROW 34 : ... .. . ... ... ... : ... .. . ... ... ... : ... .. . ... : ... .. 2 ... : ... .. . ... ... : ... .. . ... ... : ... .. . ... ... : ... .. . ... ...
ROW 35 : ... .. . ... ... ... : ... .. . ... ... ... : --- .. . ... : ... .. 0 ... : ... .. . ... ... : ... .. 3 ... ... : ... .. 3 ... ... : ... .. . ... ...
ROW 36 : ... .. . ... ... ... : ... .. . ... ... ... : F-2 00 . ... : 4-# 00 D ... : ... .. . ... ... : ... .. 6 ... ... : ... .. 6 ... ... : C#3 01 A ... ...
ROW 37 : ... .. . ... ... ... : ... .. . ... ... ... : ... .. . ... : ... .. B ... : ... .. . ... ... : ... .. . ... ... : ... .. . ... ... : ... .. 8 ... ...
ROW 38 : ... .. . ... ... ... : ... .. . ... ... ... : ... .. . ... : ... .. . ... : ... .. . ... ... : ... .. 5 ... ... : ... .. 5 ... ... : ... .. 5 ... ...
ROW 39 : ... .. . ... ... ... : ... .. . ... ... ... : ... .. . ... : ... .. A ... : ... .. . ... ... : ... .. 3 ... ... : ... .. 3 ... ... : ... .. . ... ...
ROW 3A : ... .. . ... ... ... : ... .. . ... ... ... : ... .. . ... : ... .. 8 ... : ... .. . ... ... : ... .. . ... ... : ... .. . ... ... : ... .. . ... ...
ROW 3B : ... .. . ... ... ... : ... .. . ... ... ... : --- .. . ... : ... .. 7 ... : ... .. . ... ... : ... .. 2 ... ... : ... .. 2 ... ... : ... .. . ... ...
ROW 3C : ... .. . ... ... ... : ... .. . ... ... ... : F-2 00 . ... : 1-# 00 F ... : ... .. . ... ... : C#5 01 A ... ... : C#4 01 A ... ... : F-3 01 A ... ...
ROW 3D : ... .. . ... ... ... : ... .. . ... ... ... : ... .. . ... : ... .. C ... : ... .. . ... ... : ... .. 9 ... ... : ... .. 9 ... ... : ... .. 8 ... ...
ROW 3E : ... .. . ... ... ... : ... .. . ... ... ... : ... .. . ... : ... .. 6 ... : ... .. . ... ... : ... .. 8 ... ... : ... .. 8 ... ... : ... .. 5 ... ...
ROW 3F : ... .. 5 ... ... ... : ... .. 5 ... ... ... : ... .. . ... : ... .. 3 ... : ... .. . ... ... : ... .. 5 ... ... : ... .. 5 ... ... : ... .. . ... ...
ROW 40 : ... .. . ... ... ... : ... .. . ... ... ... : ... .. . ... : ... .. 2 ... : ... .. . ... ... : ... .. . ... ... : ... .. . ... ... : ... .. . ... ...
ROW 41 : ... .. . ... ... ... : ... .. . ... ... ... : --- .. . ... : ... .. 0 ... : ... .. . ... ... : ... .. 3 ... ... : ... .. 3 ... ... : ... .. . ... ...
ROW 42 : ... .. . ... ... ... : ... .. . ... ... ... : F-2 00 . ... : ... .. F ... : ... .. . ... ... : ... .. 6 ... ... : ... .. 6 ... ... : G#3 01 A ... ...
ROW 43 : ... .. . ... ... ... : ... .. . ... ... ... : ... .. . ... : ... .. C ... : ... .. . ... ... : ... .. . ... ... : ... .. . ... ... : ... .. 8 ... ...
ROW 44 : ... .. . ... ... ... : ... .. . ... ... ... : ... .. . ... : ... .. 6 ... : ... .. . ... ... : ... .. 5 ... ... : ... .. 5 ... ... : ... .. 5 ... ...
ROW 45 : ... .. . ... ... ... : ... .. . ... ... ... : ... .. . ... : ... .. 3 ... : ... .. . ... ... : ... .. 3 ... ... : ... .. 3 ... ... : ... .. . ... ...
ROW 46 : ... .. . ... ... ... : ... .. . ... ... ... : ... .. . ... : ... .. 2 ... : ... .. . ... ... : ... .. . ... ... : ... .. . ... ... : ... .. . ... ...
ROW 47 : ... .. . ... ... ... : ... .. . ... ... ... : --- .. . ... : ... .. 0 ... : ... .. . ... ... : ... .. 2 ... ... : ... .. 2 ... ... : ... .. . ... ...
ROW 48 : ... .. . P85 ... ... : ... .. . P86 ... ... : F-2 00 . ... : 4-# 00 D ... : ... .. . ... ... : B-5 01 A ... ... : B-4 01 A ... ... : F-2 01 A ... ...
ROW 49 : ... .. . P87 ... ... : A-3 00 5 P7C ... ... : ... .. . ... : ... .. B ... : ... .. . ... ... : ... .. 9 ... ... : ... .. 9 ... ... : ... .. 8 ... ...
ROW 4A : ... .. . P86 ... ... : ... .. . ... ... ... : ... .. . ... : ... .. . ... : ... .. . ... ... : ... .. 8 ... ... : ... .. 8 ... ... : ... .. 5 ... ...
ROW 4B : ... .. . P83 ... ... : G#3 00 5 P87 ... ... : ... .. . ... : ... .. A ... : ... .. . ... ... : ... .. 5 ... ... : ... .. 5 ... ... : ... .. . ... ...
ROW 4C : ... .. . P7F ... ... : ... .. . P81 ... ... : ... .. . ... : ... .. 8 ... : ... .. . ... ... : ... .. . ... ... : ... .. . ... ... : ... .. . ... ...
ROW 4D : ... .. . P7C ... ... : ... .. . P7C ... ... : --- .. . ... : ... .. 7 ... : ... .. . ... ... : ... .. 3 ... ... : ... .. 3 ... ... : ... .. . ... ...
ROW 4E : ... .. . P7B ... ... : G-3 00 5 P87 ... ... : F-2 00 . ... : 1-# 00 F ... : ... .. . ... ... : ... .. 6 ... ... : ... .. 6 ... ... : G-2 01 A ... ...
ROW 4F : ... .. . P7D ... ... : ... .. . P85 ... ... : ... .. . ... : ... .. C ... : ... .. . ... ... : ... .. . ... ... : ... .. . ... ... : ... .. 8 ... ...
ROW 50 : ... .. . P81 ... ... : ... .. . P87 ... ... : ... .. . ... : ... .. 6 ... : ... .. . ... ... : ... .. 5 ... ... : ... .. 5 ... ... : ... .. 5 ... ...
ROW 51 : ... .. . P84 ... ... : G#3 00 5 P7D ... ... : ... .. . ... : ... .. 3 ... : ... .. . ... ... : ... .. 3 ... ... : ... .. 3 ... ... : ... .. . ... ...
ROW 52 : ... .. . P87 ... ... : ... .. . P82 ... ... : ... .. . ... : ... .. 2 ... : ... .. . ... ... : ... .. . ... ... : ... .. . ... ... : ... .. . ... ...
ROW 53 : ... .. . ... ... ... : A-3 00 5 P79 ... ... : --- .. . ... : ... .. 0 ... : ... .. . ... ... : ... .. 2 ... ... : ... .. 2 ... ... : ... .. . ... ...
ROW 54 : ... .. 6 P83 ... ... : ... .. 6 P7C ... ... : F-2 00 . ... : ... .. F ... : ... .. . ... ... : F-5 01 A ... ... : F-4 01 A ... ... : G#2 01 A ... ...
ROW 55 : ... .. . P80 ... ... : ... .. . P7B ... ... : ... .. . ... : ... .. C ... : ... .. . ... ... : ... .. 9 ... ... : ... .. 9 ... ... : ... .. 8 ... ...
ROW 56 : ... .. . P7C ... ... : G#3 00 6 P85 ... ... : ... .. . ... : ... .. 6 ... : ... .. . ... ... : ... .. 8 ... ... : ... .. 8 ... ... : ... .. 5 ... ...
ROW 57 : ... .. . P7B ... ... : ... .. . P80 ... ... : ... .. . ... : ... .. 3 ... : ... .. . ... ... : ... .. 5 ... ... : ... .. 5 ... ... : ... .. . ... ...
ROW 58 : ... .. . P7D ... ... : ... .. . P7A ... ... : ... .. . ... : ... .. 2 ... : ... .. . ... ... : ... .. . ... ... : ... .. . ... ... : ... .. . ... ...
ROW 59 : ... .. . P81 ... ... : G-3 00 6 P85 ... ... : --- .. . ... : ... .. 0 ... : ... .. . ... ... : ... .. 3 ... ... : ... .. 3 ... ... : ... .. . ... ...
ROW 5A : ... .. . P84 ... ... : ... .. . ... ... ... : F-2 00 . ... : 4-# 00 D ... : ... .. . ... ... : ... .. 6 ... ... : ... .. 6 ... ... : C-3 01 A ... ...
ROW 5B : ... .. . P87 ... ... : G#3 00 6 P79 ... ... : ... .. . ... : ... .. B ... : ... .. . ... ... : ... .. . ... ... : ... .. . ... ... : ... .. 8 ... ...
ROW 5C : ... .. . ... ... ... : ... .. . P7F ... ... : ... .. . ... : ... .. . ... : ... .. . ... ... : ... .. 5 ... ... : ... .. 5 ... ... : ... .. 5 ... ...
ROW 5D : ... .. . P84 ... ... : ... .. . P84 ... ... : ... .. . ... : ... .. A ... : ... .. . ... ... : ... .. 3 ... ... : ... .. 3 ... ... : ... .. . ... ...
ROW 5E : ... .. . P81 ... ... : A-3 00 6 P7A ... ... : ... .. . ... : ... .. 8 ... : ... .. . ... ... : ... .. . ... ... : ... .. . ... ... : ... .. . ... ...
ROW 5F : ... .. . P7D ... ... : ... .. . P7C ... ... : --- .. . ... : ... .. 7 ... : ... .. . ... ... : ... .. 2 ... ... : ... .. 2 ... ... : ... .. . ... ...
ROW 60 : ... .. . P7B ... ... : ... .. . P7A ... ... : F-2 00 . ... : 1-# 00 F ... : ... .. . ... ... : D#5 01 A ... ... : D#4 01 A ... ... : C#3 01 A ... ...
ROW 61 : ... .. . P7C ... ... : G#3 00 6 P83 ... ... : ... .. . ... : ... .. C ... : ... .. . ... ... : ... .. 9 ... ... : ... .. 9 ... ... : ... .. 8 ... ...
ROW 62 : ... .. . P80 ... ... : ... .. . P7E ... ... : ... .. . ... : ... .. 6 ... : ... .. . ... ... : ... .. 8 ... ... : ... .. 8 ... ... : ... .. 5 ... ...
ROW 63 : ... .. . P83 ... ... : G-3 00 6 P88 ... ... : ... .. . ... : ... .. 3 ... : ... .. . ... ... : ... .. 5 ... ... : ... .. 5 ... ... : ... .. . ... ...
ROW 64 : ... .. . P87 ... ... : ... .. . P85 ... ... : ... .. . ... : ... .. 2 ... : ... .. . ... ... : ... .. . ... ... : ... .. . ... ... : ... .. . ... ...
ROW 65 : ... .. . ... ... ... : ... .. . P86 ... ... : --- .. . ... : ... .. 0 ... : ... .. . ... ... : ... .. 3 ... ... : ... .. 3 ... ... : ... .. . ... ...
ROW 66 : ... .. . P84 ... ... : G#3 00 6 P7B ... ... : F-2 00 . ... : ... .. F ... : ... .. . ... ... : ... .. 6 ... ... : ... .. 6 ... ... : E-3 01 A ... ...
ROW 67 : ... .. . P81 ... ... : ... .. . P80 ... ... : ... .. . ... : ... .. C ... : ... .. . ... ... : ... .. . ... ... : ... .. . ... ... : ... .. 8 ... ...
ROW 68 : ... .. . P7D ... ... : ... .. . P86 ... ... : ... .. . ... : ... .. 6 ... : ... .. . ... ... : ... .. 5 ... ... : ... .. 5 ... ... : ... .. 5 ... ...
ROW 69 : ... .. 7 P7B ... ... : A-3 00 7 P7C ... ... : ... .. . ... : ... .. 3 ... : ... .. . ... ... : ... .. 3 ... ... : ... .. 3 ... ... : ... .. . ... ...
ROW 6A : ... .. . P7C ... ... : ... .. . ... ... ... : ... .. . ... : ... .. 2 ... : ... .. . ... ... : ... .. . ... ... : ... .. . ... ... : ... .. . ... ...
ROW 6B : ... .. . P7F ... ... : G#3 00 7 P87 ... ... : --- .. . ... : ... .. 0 ... : ... .. . ... ... : ... .. 2 ... ... : ... .. 2 ... ... : ... .. . ... ...
ROW 6C : ... .. . P83 ... ... : ... .. . P81 ... ... : F-2 00 . ... : 4-# 00 D ... : ... .. . ... ... : F-5 01 A ... ... : F-4 01 A ... ... : G-2 01 A ... ...
ROW 6D : ... .. . P86 ... ... : ... .. . P7C ... ... : ... .. . ... : ... .. B ... : ... .. . ... ... : ... .. 9 ... ... : ... .. 9 ... ... : ... .. 8 ... ...
ROW 6E : ... .. . P87 ... ... : G-3 00 7 P87 ... ... : ... .. . ... : ... .. . ... : ... .. . ... ... : ... .. 8 ... ... : ... .. 8 ... ... : ... .. 5 ... ...
ROW 6F : ... .. . P85 ... ... : ... .. . P85 ... ... : ... .. . ... : ... .. A ... : ... .. . ... ... : ... .. 5 ... ... : ... .. 5 ... ... : ... .. . ... ...
ROW 70 : ... .. . P81 ... ... : ... .. . P87 ... ... : ... .. . ... : ... .. 8 ... : ... .. . ... ... : ... .. . ... ... : ... .. . ... ... : ... .. . ... ...
ROW 71 : ... .. . P7E ... ... : G#3 00 7 P7D ... ... : --- .. . ... : ... .. 7 ... : ... .. . ... ... : ... .. 3 ... ... : ... .. 3 ... ... : ... .. . ... ...
ROW 72 : ... .. 8 P7B ... ... : ... .. 8 P82 ... ... : F-2 00 . ... : 1-# 00 F ... : ... .. . ... ... : ... .. 6 ... ... : ... .. 6 ... ... : G#2 01 A ... ...
ROW 73 : ... .. . ... ... ... : A-3 00 8 P79 ... ... : ... .. . ... : ... .. C ... : ... .. . ... ... : ... .. . ... ... : ... .. . ... ... : ... .. 8 ... ...
ROW 74 : ... .. . P7F ... ... : ... .. . P7C ... ... : ... .. . ... : ... .. 6 ... : ... .. . ... ... : ... .. 5 ... ... : ... .. 5 ... ... : ... .. 5 ... ...
ROW 75 : ... .. . P82 ... ... : ... .. . P7B ... ... : ... .. . ... : ... .. 3 ... : ... .. . ... ... : ... .. 3 ... ... : ... .. 3 ... ... : ... .. . ... ...
ROW 76 : ... .. . P86 ... ... : G#3 00 8 P85 ... ... : ... .. . ... : ... .. 2 ... : ... .. . ... ... : ... .. . ... ... : ... .. . ... ... : ... .. . ... ...
ROW 77 : ... .. . P87 ... ... : ... .. . P80 ... ... : --- .. . ... : ... .. 0 ... : ... .. . ... ... : ... .. 2 ... ... : ... .. 2 ... ... : ... .. . ... ...
ROW 78 : ... .. . P85 ... ... : ... .. . P7A ... ... : F-2 00 . ... : 4-# 00 D ... : ... .. . ... ... : F#4 01 A ... ... : F#3 01 A ... ... : C-3 01 A ... ...
ROW 79 : ... .. . P81 ... ... : G-3 00 8 P85 ... ... : ... .. . ... : ... .. B ... : ... .. . ... ... : ... .. 9 ... ... : ... .. 9 ... ... : ... .. 8 ... ...
ROW 7A : ... .. . P7E ... ... : ... .. . ... ... ... : ... .. . ... : ... .. . ... : ... .. . ... ... : ... .. 8 ... ... : ... .. 8 ... ... : ... .. 5 ... ...
ROW 7B : ... .. . P7B ... ... : G#3 00 8 P79 ... ... : ... .. . ... : ... .. A ... : ... .. . ... ... : ... .. 5 ... ... : ... .. 5 ... ... : ... .. . ... ...
ROW 7C : ... .. . ... ... ... : ... .. . P7F ... ... : ... .. . ... : ... .. 8 ... : ... .. . ... ... : ... .. . ... ... : ... .. . ... ... : ... .. . ... ...
ROW 7D : ... .. . P7E ... ... : ... .. . P84 ... ... : --- .. . ... : ... .. 7 ... : ... .. . ... ... : ... .. 3 ... ... : ... .. 3 ... ... : ... .. . ... ...
ROW 7E : ... .. . P81 ... ... : A-3 00 8 P7A ... ... : F-2 00 . ... : 1-# 00 F ... : ... .. . ... ... : ... .. 6 ... ... : ... .. 6 ... ... : C#3 01 A ... ...
ROW 7F : ... .. . P85 ... ... : ... .. . P7C ... ... : ... .. . ... : ... .. C ... : ... .. . ... ... : ... .. . ... ... : ... .. . ... ... : ... .. 8 ... ...
ROW 80 : ... .. . P87 ... ... : ... .. . P7A ... ... : ... .. . ... : ... .. 6 ... : ... .. . ... ... : ... .. 5 ... ... : ... .. 5 ... ... : ... .. 5 ... ...
ROW 81 : ... .. . P86 ... ... : G#3 00 8 P83 ... ... : ... .. . ... : ... .. 3 ... : ... .. . ... ... : ... .. 3 ... ... : ... .. 3 ... ... : ... .. . ... ...
ROW 82 : ... .. . P82 ... ... : ... .. . P7E ... ... : ... .. . ... : ... .. 2 ... : ... .. . ... ... : ... .. . ... ... : ... .. . ... ... : ... .. . ... ...
ROW 83 : ... .. . P7F ... ... : G-3 00 8 P88 ... ... : --- .. . ... : ... .. 0 ... : ... .. . ... ... : ... .. 2 ... ... : ... .. 2 ... ... : ... .. . ... ...
ROW 84 : ... .. . P7B ... ... : ... .. . P85 ... ... : F-2 00 . ... : 4-# 00 D ... : ... .. . ... ... : G#4 01 A ... ... : G#3 01 A ... ... : F-3 01 A ... ...
ROW 85 : ... .. . ... ... ... : ... .. . P86 ... ... : ... .. . ... : ... .. B ... : ... .. . ... ... : ... .. 9 ... ... : ... .. 9 ... ... : ... .. 8 ... ...
ROW 86 : ... .. . P7E ... ... : G#3 00 8 P7B ... ... : ... .. . ... : ... .. . ... : ... .. . ... ... : ... .. 8 ... ... : ... .. 8 ... ... : ... .. 5 ... ...
ROW 87 : ... .. 9 P81 ... ... : ... .. 9 P80 ... ... : ... .. . ... : ... .. A ... : ... .. . ... ... : ... .. 5 ... ... : ... .. 5 ... ... : ... .. . ... ...
ROW 88 : ... .. . P85 ... ... : ... .. . P86 ... ... : ... .. . ... : ... .. 8 ... : ... .. . ... ... : ... .. . ... ... : ... .. . ... ... : ... .. . ... ...
ROW 89 : ... .. . P87 ... ... : A-3 00 9 P7C ... ... : --- .. . ... : ... .. 7 ... : ... .. . ... ... : ... .. 3 ... ... : ... .. 3 ... ... : ... .. . ... ...
ROW 8A : ... .. . P86 ... ... : ... .. . ... ... ... : F-2 00 . ... : 1-# 00 F ... : ... .. . ... ... : ... .. 6 ... ... : ... .. 6 ... ... : G#3 01 A ... ...
ROW 8B : ... .. . P83 ... ... : G#3 00 9 P87 ... ... : ... .. . ... : ... .. C ... : ... .. . ... ... : ... .. . ... ... : ... .. . ... ... : ... .. 8 ... ...
ROW 8C : ... .. . P7F ... ... : ... .. . P81 ... ... : ... .. . ... : ... .. 6 ... : ... .. . ... ... : ... .. 5 ... ... : ... .. 5 ... ... : ... .. 5 ... ...
ROW 8D : ... .. . P7C ... ... : ... .. . P7C ... ... : ... .. . ... : ... .. 3 ... : ... .. . ... ... : ... .. 3 ... ... : ... .. 3 ... ... : ... .. . ... ...
ROW 8E : ... .. . P7B ... ... : G-3 00 9 P87 ... ... : ... .. . ... : ... .. 2 ... : ... .. . ... ... : ... .. . ... ... : ... .. . ... ... : ... .. . ... ...
ROW 8F : ... .. . P7D ... ... : ... .. . P85 ... ... : --- .. . ... : ... .. 0 ... : ... .. . ... ... : ... .. 2 ... ... : ... .. 2 ... ... : ... .. . ... ...
ROW 90 : E-2 00 F P81 ... ... : ... .. F P80 ... ... : D#4 00 . ... : D-# 00 F ... : ... .. . ... ... : A#5 01 A ... ... : A#4 01 A ... ... : G-4 01 F ... ...
ROW 91 : ... .. E ... ... ... : ... .. E ... ... ... : F-3 00 . ... : ... .. . ... : ... .. . ... ... : ... .. 9 ... ... : ... .. 9 ... ... : ... .. D ... ...
ROW 92 : ... .. D ... ... ... : ... .. D ... ... ... : A#2 00 . ... : ... .. . ... : ... .. . ... ... : ... .. 8 ... ... : ... .. 8 ... ... : ... .. 8 ... ...
ROW 93 : ... .. 9 ... ... ... : ... .. 9 ... ... ... : A-2 00 . ... : C-# 00 D ... : ... .. . ... ... : ... .. 5 ... ... : ... .. 5 ... ... : ... .. . ... ...
ROW 94 : ... .. . ... ... ... : ... .. . ... ... ... : E-2 00 . ... : ... .. . ... : ... .. . ... ... : ... .. . ... ... : ... .. . ... ... : ... .. . ... ...
ROW 95 : ... .. . ... ... ... : ... .. . ... ... ... : --- .. . ... : ... .. . ... : ... .. . ... ... : ... .. 3 ... ... : ... .. 3 ... ... : ... .. . ... ...
ROW 96 : ... .. . ... ... ... : ... .. . ... ... ... : E-2 00 . ... : B-# 00 B ... : ... .. . ... ... : ... .. 6 ... ... : ... .. 6 ... ... : ... .. . ... ...
ROW 97 : ... .. . ... ... ... : ... .. . ... ... ... : ... .. . ... : ... .. . ... : ... .. . ... ... : ... .. . ... ... : ... .. . ... ... : ... .. . ... ...
ROW 98 : ... .. . ... ... ... : ... .. . ... ... ... : ... .. . ... : ... .. . ... : ... .. . ... ... : ... .. 5 ... ... : ... .. 5 ... ... : ... .. . ... ...
ROW 99 : ... .. . ... ... ... : ... .. . ... ... ... : ... .. . ... : ... .. 9 ... : ... .. . ... ... : ... .. 3 ... ... : ... .. 3 ... ... : ... .. . ... ...
ROW 9A : ... .. . ... ... ... : ... .. . ... ... ... : ... .. . ... : ... .. . ... : ... .. . ... ... : ... .. . ... ... : ... .. . ... ... : ... .. . ... ...
ROW 9B : ... .. . ... ... ... : ... .. . ... ... ... : --- .. . ... : ... .. . ... : ... .. . ... ... : ... .. 2 ... ... : ... .. 2 ... ... : ... .. . ... ...
ROW 9C : ... .. 8 ... ... ... : ... .. 8 ... ... ... : E-2 00 . ... : ... .. 7 ... : ... .. . ... ... : E-5 01 A ... ... : E-4 01 A ... ... : ... .. . ... ...
ROW 9D : ... .. . ... ... ... : ... .. . ... ... ... : ... .. . ... : ... .. . ... : ... .. . ... ... : ... .. 9 ... ... : ... .. 9 ... ... : ... .. . ... ...
ROW 9E : ... .. . ... ... ... : ... .. . ... ... ... : ... .. . ... : ... .. . ... : ... .. . ... ... : ... .. 8 ... ... : ... .. 8 ... ... : ... .. . ... ...
ROW 9F : ... .. . ... ... ... : ... .. . ... ... ... : ... .. . ... : ... .. 5 ... : ... .. . ... ... : ... .. 5 ... ... : ... .. 5 ... ... : ... .. . ... ...
ROW A0 : ... .. . ... ... ... : ... .. . ... ... ... : ... .. . ... : ... .. . ... : ... .. . ... ... : ... .. . ... ... : ... .. . ... ... : ... .. . ... ...
ROW A1 : ... .. . ... ... ... : ... .. . ... ... ... : --- .. . ... : ... .. . ... : ... .. . ... ... : ... .. 3 ... ... : ... .. 3 ... ... : ... .. . ... ...
ROW A2 : ... .. . ... ... ... : ... .. . ... ... ... : E-2 00 . ... : 4-# 00 D ... : ... .. . ... ... : ... .. 6 ... ... : ... .. 6 ... ... : ... .. . ... ...
ROW A3 : ... .. . ... ... ... : ... .. . ... ... ... : ... .. . ... : ... .. B ... : ... .. . ... ... : ... .. . ... ... : ... .. . ... ... : ... .. . ... ...
ROW A4 : ... .. . ... ... ... : ... .. . ... ... ... : ... .. . ... : ... .. . ... : ... .. . ... ... : ... .. 5 ... ... : ... .. 5 ... ... : ... .. . ... ...
ROW A5 : ... .. . ... ... ... : ... .. . ... ... ... : ... .. . ... : ... .. A ... : ... .. . ... ... : ... .. 3 ... ... : ... .. 3 ... ... : ... .. . ... ...
ROW A6 : ... .. . ... ... ... : ... .. . ... ... ... : ... .. . ... : ... .. 8 ... : ... .. . ... ... : ... .. . ... ... : ... .. . ... ... : ... .. . ... ...
ROW A7 : ... .. . ... ... ... : ... .. . ... ... ... : --- .. . ... : ... .. 7 ... : ... .. . ... ... : ... .. 2 ... ... : ... .. 2 ... ... : ... .. . ... ...
ROW A8 : ... .. . ... ... ... : ... .. . ... ... ... : E-2 00 . ... : 1-# 00 F ... : ... .. . ... ... : D-5 01 A ... ... : D-4 01 A ... ... : F-4 01 8 P85 ...
ROW A9 : ... .. . ... ... ... : ... .. . ... ... ... : ... .. . ... : ... .. C ... : ... .. . ... ... : ... .. 9 ... ... : ... .. 9 ... ... : E-4 01 8 P80 ...
ROW AA : ... .. . ... ... ... : ... .. . ... ... ... : ... .. . ... : ... .. 6 ... : ... .. . ... ... : ... .. 8 ... ... : ... .. 8 ... ... : D#4 01 8 P7B ...
ROW AB : ... .. . ... ... ... : ... .. . ... ... ... : ... .. . ... : ... .. 3 ... : ... .. . ... ... : ... .. 5 ... ... : ... .. 5 ... ... : C#4 01 8 P85 ...
ROW AC : ... .. . ... ... ... : ... .. . ... ... ... : ... .. . ... : ... .. 2 ... : ... .. . ... ... : ... .. . ... ... : ... .. . ... ... : C-4 01 8 P82 ...
ROW AD : ... .. . ... ... ... : ... .. . ... ... ... : --- .. . ... : ... .. 0 ... : ... .. . ... ... : ... .. 3 ... ... : ... .. 3 ... ... : B-3 01 8 P81 ...
ROW AE : ... .. . ... ... ... : ... .. . ... ... ... : E-2 00 . ... : ... .. F ... : ... .. . ... ... : ... .. 6 ... ... : ... .. 6 ... ... : A#3 01 8 P80 ...
ROW AF : ... .. . ... ... ... : ... .. . ... ... ... : ... .. . ... : ... .. C ... : ... .. . ... ... : ... .. . ... ... : ... .. . ... ... : A-3 01 8 P81 ...
ROW B0 : ... .. . ... ... ... : ... .. . ... ... ... : ... .. . ... : ... .. 6 ... : ... .. . ... ... : ... .. 5 ... ... : ... .. 5 ... ... : G#3 01 8 P82 ...
ROW B1 : ... .. 7 ... ... ... : ... .. 7 ... ... ... : ... .. . ... : ... .. 3 ... : ... .. . ... ... : ... .. 3 ... ... : ... .. 3 ... ... : G-3 01 8 P84 ...
ROW B2 : ... .. . ... ... ... : ... .. . ... ... ... : ... .. . ... : ... .. 2 ... : ... .. . ... ... : ... .. . ... ... : ... .. . ... ... : F#3 01 8 P88 ...
ROW B3 : ... .. . ... ... ... : ... .. . ... ... ... : --- .. . ... : ... .. 0 ... : ... .. . ... ... : ... .. 2 ... ... : ... .. 2 ... ... : ... .. . P78 ...
ROW B4 : ... .. . ... ... ... : ... .. . ... ... ... : E-2 00 . ... : 4-# 00 D ... : ... .. . ... ... : E-5 01 A ... ... : E-4 01 A ... ... : F-3 01 8 P7C ...
ROW B5 : ... .. . ... ... ... : ... .. . ... ... ... : ... .. . ... : ... .. B ... : ... .. . ... ... : ... .. 9 ... ... : ... .. 9 ... ... : E-3 01 8 P82 ...
ROW B6 : ... .. . ... ... ... : ... .. . ... ... ... : ... .. . ... : ... .. . ... : ... .. . ... ... : ... .. 8 ... ... : ... .. 8 ... ... : D#3 01 8 P89 ...
ROW B7 : ... .. . ... ... ... : ... .. . ... ... ... : ... .. . ... : ... .. A ... : ... .. . ... ... : ... .. 5 ... ... : ... .. 5 ... ... : ... .. . P79 ...
ROW B8 : ... .. . ... ... ... : ... .. . ... ... ... : ... .. . ... : ... .. 8 ... : ... .. . ... ... : ... .. . ... ... : ... .. . ... ... : D-3 01 8 P81 ...
ROW B9 : ... .. . ... ... ... : ... .. . ... ... ... : --- .. . ... : ... .. 7 ... : ... .. . ... ... : ... .. 3 ... ... : ... .. 3 ... ... : C#3 01 8 P8B ...
ROW BA : ... .. 6 ... ... ... : ... .. 6 ... ... ... : E-2 00 . ... : 1-# 00 F ... : ... .. . ... ... : ... .. 6 ... ... : ... .. 6 ... ... : ... .. . P7B ...
ROW BB : ... .. . ... ... ... : ... .. . ... ... ... : ... .. . ... : ... .. C ... : ... .. . ... ... : ... .. . ... ... : ... .. . ... ... : C-3 01 8 P87 ...
ROW BC : ... .. . ... ... ... : ... .. . ... ... ... : ... .. . ... : ... .. 6 ... : ... .. . ... ... : ... .. 5 ... ... : ... .. 5 ... ... : ... .. . P77 ...
ROW BD : ... .. . ... ... ... : ... .. . ... ... ... : ... .. . ... : ... .. 3 ... : ... .. . ... ... : ... .. 3 ... ... : ... .. 3 ... ... : B-2 01 8 P84 ...
ROW BE : ... .. . ... ... ... : ... .. . ... ... ... : ... .. . ... : ... .. 2 ... : ... .. . ... ... : ... .. . ... ... : ... .. . ... ... : ... .. . P74 ...
ROW BF : ... .. . ... ... ... : ... .. . ... ... ... : --- .. . ... : ... .. 0 ... : ... .. . ... ... : ... .. 2 ... ... : ... .. 2 ... ... : A#2 01 8 P82 ...
ROW C0 : ... .. . ... ... ... : ... .. . ... ... ... : E-2 00 . ... : ... .. F ... : ... .. . ... ... : A#4 01 A ... ... : A#3 01 A ... ... : B-2 01 A P81 ...
ROW C1 : ... .. . ... ... ... : ... .. . ... ... ... : ... .. . ... : ... .. C ... : ... .. . ... ... : ... .. 9 ... ... : ... .. 9 ... ... : ... .. 8 ... ...
ROW C2 : ... .. . ... ... ... : ... .. . ... ... ... : ... .. . ... : ... .. 0 ... : ... .. . ... ... : ... .. 8 ... ... : ... .. 8 ... ... : ... .. 5 ... ...
ROW C3 : ... .. . ... ... ... : ... .. . ... ... ... : ... .. . ... : ... .. . ... : ... .. . ... ... : ... .. 5 ... ... : ... .. 5 ... ... : ... .. . ... ...
ROW C4 : ... .. . ... ... ... : ... .. . ... ... ... : ... .. . ... : ... .. . ... : ... .. . ... ... : ... .. . ... ... : ... .. . ... ... : ... .. . ... ...
ROW C5 : ... .. . ... ... ... : ... .. . ... ... ... : --- .. . ... : ... .. . ... : ... .. . ... ... : ... .. 3 ... ... : ... .. 3 ... ... : ... .. . ... ...
ROW C6 : ... .. . ... ... ... : ... .. . ... ... ... : E-2 00 . ... : 4-# 00 D ... : ... .. . ... ... : ... .. 6 ... ... : ... .. 6 ... ... : C-3 01 A ... ...
ROW C7 : ... .. . ... ... ... : ... .. . ... ... ... : ... .. . ... : ... .. B ... : ... .. . ... ... : ... .. . ... ... : ... .. . ... ... : ... .. 8 ... ...
ROW C8 : ... .. . ... ... ... : ... .. . ... ... ... : ... .. . ... : ... .. 0 ... : ... .. . ... ... : ... .. 5 ... ... : ... .. 5 ... ... : ... .. 5 ... ...
ROW C9 : ... .. . ... ... ... : ... .. . ... ... ... : ... .. . ... : ... .. . ... : ... .. . ... ... : ... .. 3 ... ... : ... .. 3 ... ... : ... .. . ... ...
ROW CA : ... .. . ... ... ... : ... .. . ... ... ... : ... .. . ... : ... .. . ... : ... .. . ... ... : ... .. . ... ... : ... .. . ... ... : ... .. . ... ...
ROW CB : ... .. . ... ... ... : ... .. . ... ... ... : --- .. . ... : ... .. . ... : ... .. . ... ... : ... .. 2 ... ... : ... .. 2 ... ... : ... .. . ... ...
ROW CC : ... .. . ... ... ... : ... .. . ... ... ... : E-2 00 . ... : 1-# 00 F ... : ... .. . ... ... : C-5 01 A ... ... : C-4 01 A ... ... : E-3 01 A ... ...
ROW CD : ... .. . ... ... ... : ... .. . ... ... ... : ... .. . ... : ... .. C ... : ... .. . ... ... : ... .. 9 ... ... : ... .. 9 ... ... : ... .. 8 ... ...
ROW CE : ... .. . ... ... ... : ... .. . ... ... ... : ... .. . ... : ... .. 6 ... : ... .. . ... ... : ... .. 8 ... ... : ... .. 8 ... ... : ... .. 5 ... ...
ROW CF : ... .. 5 ... ... ... : ... .. 5 ... ... ... : ... .. . ... : ... .. 3 ... : ... .. . ... ... : ... .. 5 ... ... : ... .. 5 ... ... : ... .. . ... ...
ROW D0 : ... .. . ... ... ... : ... .. . ... ... ... : ... .. . ... : ... .. 2 ... : ... .. . ... ... : ... .. . ... ... : ... .. . ... ... : ... .. . ... ...
ROW D1 : ... .. . ... ... ... : ... .. . ... ... ... : --- .. . ... : ... .. 0 ... : ... .. . ... ... : ... .. 3 ... ... : ... .. 3 ... ... : ... .. . ... ...
ROW D2 : ... .. . ... ... ... : ... .. . ... ... ... : E-2 00 . ... : ... .. F ... : ... .. . ... ... : ... .. 6 ... ... : ... .. 6 ... ... : G-3 01 A ... ...
ROW D3 : ... .. . ... ... ... : ... .. . ... ... ... : ... .. . ... : ... .. C ... : ... .. . ... ... : ... .. . ... ... : ... .. . ... ... : ... .. 8 ... ...
ROW D4 : ... .. . ... ... ... : ... .. . ... ... ... : ... .. . ... : ... .. 6 ... : ... .. . ... ... : ... .. 5 ... ... : ... .. 5 ... ... : ... .. 5 ... ...
ROW D5 : ... .. . ... ... ... : ... .. . ... ... ... : ... .. . ... : ... .. 3 ... : ... .. . ... ... : ... .. 3 ... ... : ... .. 3 ... ... : ... .. . ... ...
ROW D6 : ... .. . ... ... ... : ... .. . ... ... ... : ... .. . ... : ... .. 2 ... : ... .. . ... ... : ... .. . ... ... : ... .. . ... ... : ... .. . ... ...
ROW D7 : ... .. . ... ... ... : ... .. . ... ... ... : --- .. . ... : ... .. 0 ... : ... .. . ... ... : ... .. 2 ... ... : ... .. 2 ... ... : ... .. . ... ...
ROW D8 : ... .. . P85 ... ... : ... .. . P86 ... ... : E-2 00 . ... : 4-# 00 D ... : ... .. . ... ... : A#5 01 A ... ... : A#4 01 A ... ... : E-2 01 A ... ...
ROW D9 : ... .. . P87 ... ... : G#3 00 5 P7B ... ... : ... .. . ... : ... .. B ... : ... .. . ... ... : ... .. 9 ... ... : ... .. 9 ... ... : ... .. 8 ... ...
ROW DA : ... .. . P86 ... ... : ... .. . ... ... ... : ... .. . ... : ... .. . ... : ... .. . ... ... : ... .. 8 ... ... : ... .. 8 ... ... : ... .. 5 ... ...
ROW DB : ... .. . P83 ... ... : G-3 00 5 P87 ... ... : ... .. . ... : ... .. A ... : ... .. . ... ... : ... .. 5 ... ... : ... .. 5 ... ... : ... .. . ... ...
ROW DC : ... .. . P7F ... ... : ... .. . P81 ... ... : ... .. . ... : ... .. 8 ... : ... .. . ... ... : ... .. . ... ... : ... .. . ... ... : ... .. . ... ...
ROW DD : ... .. . P7C ... ... : ... .. . P7C ... ... : --- .. . ... : ... .. 7 ... : ... .. . ... ... : ... .. 3 ... ... : ... .. 3 ... ... : ... .. . ... ...
ROW DE : ... .. . P7B ... ... : F#3 00 5 P88 ... ... : E-2 00 . ... : 1-# 00 F ... : ... .. . ... ... : ... .. 6 ... ... : ... .. 6 ... ... : F#2 01 A ... ...
ROW DF : ... .. . P7D ... ... : ... .. . P86 ... ... : ... .. . ... : ... .. C ... : ... .. . ... ... : ... .. . ... ... : ... .. . ... ... : ... .. 8 ... ...
ROW E0 : ... .. . P81 ... ... : ... .. . P88 ... ... : ... .. . ... : ... .. 6 ... : ... .. . ... ... : ... .. 5 ... ... : ... .. 5 ... ... : ... .. 5 ... ...
ROW E1 : ... .. . P84 ... ... : G-3 00 5 P7D ... ... : ... .. . ... : ... .. 3 ... : ... .. . ... ... : ... .. 3 ... ... : ... .. 3 ... ... : ... .. . ... ...
ROW E2 : ... .. . P87 ... ... : ... .. . P82 ... ... : ... .. . ... : ... .. 2 ... : ... .. . ... ... : ... .. . ... ... : ... .. . ... ... : ... .. . ... ...
ROW E3 : ... .. . ... ... ... : ... .. . P88 ... ... : --- .. . ... : ... .. 0 ... : ... .. . ... ... : ... .. 2 ... ... : ... .. 2 ... ... : ... .. . ... ...
ROW E4 : ... .. 6 P83 ... ... : G#3 00 6 P7B ... ... : E-2 00 . ... : ... .. F ... : ... .. . ... ... : E-5 01 A ... ... : E-4 01 A ... ... : G-2 01 A ... ...
ROW E5 : ... .. . P80 ... ... : ... .. . P7A ... ... : ... .. . ... : ... .. C ... : ... .. . ... ... : ... .. 9 ... ... : ... .. 9 ... ... : ... .. 8 ... ...
ROW E6 : ... .. . P7C ... ... : G-3 00 6 P85 ... ... : ... .. . ... : ... .. 6 ... : ... .. . ... ... : ... .. 8 ... ... : ... .. 8 ... ... : ... .. 5 ... ...
ROW E7 : ... .. . P7B ... ... : ... .. . P80 ... ... : ... .. . ... : ... .. 3 ... : ... .. . ... ... : ... .. 5 ... ... : ... .. 5 ... ... : ... .. . ... ...
ROW E8 : ... .. . P7D ... ... : ... .. . P7A ... ... : ... .. . ... : ... .. 2 ... : ... .. . ... ... : ... .. . ... ... : ... .. . ... ... : ... .. . ... ...
ROW E9 : ... .. . P81 ... ... : F#3 00 6 P86 ... ... : --- .. . ... : ... .. 0 ... : ... .. . ... ... : ... .. 3 ... ... : ... .. 3 ... ... : ... .. . ... ...
ROW EA : ... .. . P84 ... ... : ... .. . ... ... ... : E-2 00 . ... : 4-# 00 D ... : ... .. . ... ... : ... .. 6 ... ... : ... .. 6 ... ... : B-2 01 A ... ...
ROW EB : ... .. . P87 ... ... : G-3 00 6 P79 ... ... : ... .. . ... : ... .. B ... : ... .. . ... ... : ... .. . ... ... : ... .. . ... ... : ... .. 8 ... ...
ROW EC : ... .. . ... ... ... : ... .. . P7F ... ... : ... .. . ... : ... .. . ... : ... .. . ... ... : ... .. 5 ... ... : ... .. 5 ... ... : ... .. 5 ... ...
ROW ED : ... .. . P84 ... ... : ... .. . P84 ... ... : ... .. . ... : ... .. A ... : ... .. . ... ... : ... .. 3 ... ... : ... .. 3 ... ... : ... .. . ... ...
ROW EE : ... .. . P81 ... ... : G#3 00 6 P79 ... ... : ... .. . ... : ... .. 8 ... : ... .. . ... ... : ... .. . ... ... : ... .. . ... ... : ... .. . ... ...
ROW EF : ... .. . P7D ... ... : ... .. . P7B ... ... : --- .. . ... : ... .. 7 ... : ... .. . ... ... : ... .. 2 ... ... : ... .. 2 ... ... : ... .. . ... ...
ROW F0 : ... .. . P7B ... ... : ... .. . P79 ... ... : E-2 00 . ... : 1-# 00 F ... : ... .. . ... ... : D-5 01 A ... ... : D-4 01 A ... ... : C-3 01 A ... ...
ROW F1 : ... .. . P7C ... ... : G-3 00 6 P83 ... ... : ... .. . ... : ... .. C ... : ... .. . ... ... : ... .. 9 ... ... : ... .. 9 ... ... : ... .. 8 ... ...
ROW F2 : ... .. . P80 ... ... : ... .. . P7E ... ... : ... .. . ... : ... .. 6 ... : ... .. . ... ... : ... .. 8 ... ... : ... .. 8 ... ... : ... .. 5 ... ...
ROW F3 : ... .. . P83 ... ... : ... .. . P78 ... ... : ... .. . ... : ... .. 3 ... : ... .. . ... ... : ... .. 5 ... ... : ... .. 5 ... ... : ... .. . ... ...
ROW F4 : ... .. . P87 ... ... : F#3 00 6 P86 ... ... : ... .. . ... : ... .. 2 ... : ... .. . ... ... : ... .. . ... ... : ... .. . ... ... : ... .. . ... ...
ROW F5 : ... .. . ... ... ... : ... .. . P87 ... ... : --- .. . ... : ... .. 0 ... : ... .. . ... ... : ... .. 3 ... ... : ... .. 3 ... ... : ... .. . ... ...
ROW F6 : ... .. . P84 ... ... : G-3 00 6 P7B ... ... : E-2 00 . ... : ... .. F ... : ... .. . ... ... : ... .. 6 ... ... : ... .. 6 ... ... : D#3 01 A ... ...
ROW F7 : ... .. . P81 ... ... : ... .. . P80 ... ... : ... .. . ... : ... .. C ... : ... .. . ... ... : ... .. . ... ... : ... .. . ... ... : ... .. 8 ... ...
ROW F8 : ... .. . P7D ... ... : ... .. . P86 ... ... : ... .. . ... : ... .. 6 ... : ... .. . ... ... : ... .. 5 ... ... : ... .. 5 ... ... : ... .. 5 ... ...
ROW F9 : ... .. 7 P7B ... ... : G#3 00 7 P7B ... ... : ... .. . ... : ... .. 3 ... : ... .. . ... ... : ... .. 3 ... ... : ... .. 3 ... ... : ... .. . ... ...
ROW FA : ... .. . P7C ... ... : ... .. . ... ... ... : ... .. . ... : ... .. 2 ... : ... .. . ... ... : ... .. . ... ... : ... .. . ... ... : ... .. . ... ...
ROW FB : ... .. . P7F ... ... : G-3 00 7 P87 ... ... : --- .. . ... : ... .. 0 ... : ... .. . ... ... : ... .. 2 ... ... : ... .. 2 ... ... : ... .. . ... ...
ROW FC : ... .. . P83 ... ... : ... .. . P81 ... ... : E-2 00 . ... : 4-# 00 D ... : ... .. . ... ... : E-5 01 A ... ... : E-4 01 A ... ... : F#2 01 A ... ...
ROW FD : ... .. . P86 ... ... : ... .. . P7C ... ... : ... .. . ... : ... .. B ... : ... .. . ... ... : ... .. 9 ... ... : ... .. 9 ... ... : ... .. 8 ... ...
ROW FE : ... .. . P87 ... ... : F#3 00 7 P88 ... ... : ... .. . ... : ... .. . ... : ... .. . ... ... : ... .. 8 ... ... : ... .. 8 ... ... : ... .. 5 ... ...
ROW FF : ... .. . P85 ... ... : ... .. . P86 ... ... : ... .. . ... : ... .. A ... : ... .. . ... ... : ... .. 5 ... ... : ... .. 5 ... ... : ... .. . ... ...

PATTERN 1C
ROW 00 : ... .. . P81 ... ... : ... .. . P88 ... ... : ... .. . ... : ... .. 8 ... : ... .. . ... ... : ... .. . ... ... : ... .. . ... ... : ... .. . ... ...
ROW 01 : ... .. . P7E ... ... : G-3 00 7 P7D ... ... : --- .. . ... : ... .. 7 ... : ... .. . ... ... : ... .. 3 ... ... : ... .. 3 ... ... : ... .. . ... ...
ROW 02 : ... .. 8 P7B ... ... : ... .. 8 P82 ... ... : E-2 00 . ... : 1-# 00 F ... : ... .. . ... ... : ... .. 6 ... ... : ... .. 6 ... ... : G-2 01 A ... ...
ROW 03 : ... .. . ... ... ... : ... .. . P88 ... ... : ... .. . ... : ... .. C ... : ... .. . ... ... : ... .. . ... ... : ... .. . ... ... : ... .. 8 ... ...
ROW 04 : ... .. . P7F ... ... : G#3 00 8 P7B ... ... : ... .. . ... : ... .. 6 ... : ... .. . ... ... : ... .. 5 ... ... : ... .. 5 ... ... : ... .. 5 ... ...
ROW 05 : ... .. . P82 ... ... : ... .. . P7A ... ... : ... .. . ... : ... .. 3 ... : ... .. . ... ... : ... .. 3 ... ... : ... .. 3 ... ... : ... .. . ... ...
ROW 06 : ... .. . P86 ... ... : G-3 00 8 P85 ... ... : ... .. . ... : ... .. 2 ... : ... .. . ... ... : ... .. . ... ... : ... .. . ... ... : ... .. . ... ...
ROW 07 : ... .. . P87 ... ... : ... .. . P80 ... ... : --- .. . ... : ... .. 0 ... : ... .. . ... ... : ... .. 2 ... ... : ... .. 2 ... ... : ... .. . ... ...
ROW 08 : ... .. . P85 ... ... : ... .. . P7A ... ... : E-2 00 . ... : 4-# 00 D ... : ... .. . ... ... : F-4 01 A ... ... : F-3 01 A ... ... : B-2 01 A ... ...
ROW 09 : ... .. . P81 ... ... : F#3 00 8 P86 ... ... : ... .. . ... : ... .. B ... : ... .. . ... ... : ... .. 9 ... ... : ... .. 9 ... ... : ... .. 8 ... ...
ROW 0A : ... .. . P7E ... ... : ... .. . ... ... ... : ... .. . ... : ... .. 0 ... : ... .. . ... ... : ... .. 8 ... ... : ... .. 8 ... ... : ... .. 5 ... ...
ROW 0B : ... .. . P7B ... ... : G-3 00 8 P79 ... ... : ... .. . ... : ... .. . ... : ... .. . ... ... : ... .. 5 ... ... : ... .. 5 ... ... : ... .. . ... ...
ROW 0C : ... .. . ... ... ... : ... .. . P7F ... ... : ... .. . ... : ... .. . ... : ... .. . ... ... : ... .. . ... ... : ... .. . ... ... : ... .. . ... ...
ROW 0D : ... .. . P7E ... ... : ... .. . P84 ... ... : --- .. . ... : ... .. . ... : ... .. . ... ... : ... .. 3 ... ... : ... .. 3 ... ... : ... .. . ... ...
ROW 0E : ... .. . P81 ... ... : G#3 00 8 P79 ... ... : E-2 00 . ... : 1-# 00 F ... : ... .. . ... ... : ... .. 6 ... ... : ... .. 6 ... ... : C-3 01 A ... ...
ROW 0F : ... .. . P85 ... ... : ... .. . P7B ... ... : ... .. . ... : ... .. C ... : ... .. . ... ... : ... .. . ... ... : ... .. . ... ... : ... .. 8 ... ...
ROW 10 : ... .. . P87 ... ... : ... .. . P79 ... ... : ... .. . ... : ... .. 0 ... : ... .. . ... ... : ... .. 5 ... ... : ... .. 5 ... ... : ... .. 5 ... ...
ROW 11 : ... .. . P86 ... ... : G-3 00 8 P83 ... ... : ... .. . ... : ... .. . ... : ... .. . ... ... : ... .. 3 ... ... : ... .. 3 ... ... : ... .. . ... ...
ROW 12 : ... .. . P82 ... ... : ... .. . P7E ... ... : ... .. . ... : ... .. . ... : ... .. . ... ... : ... .. . ... ... : ... .. . ... ... : ... .. . ... ...
ROW 13 : ... .. . P7F ... ... : ... .. . P78 ... ... : --- .. . ... : ... .. . ... : ... .. . ... ... : ... .. 2 ... ... : ... .. 2 ... ... : ... .. . ... ...
ROW 14 : ... .. . P7B ... ... : F#3 00 8 P86 ... ... : E-2 00 . ... : 4-# 00 D ... : ... .. . ... ... : G-4 01 A ... ... : G-3 01 A ... ... : E-3 01 A ... ...
ROW 15 : ... .. . ... ... ... : ... .. . P87 ... ... : ... .. . ... : ... .. B ... : ... .. . ... ... : ... .. 9 ... ... : ... .. 9 ... ... : ... .. 8 ... ...
ROW 16 : ... .. . P7E ... ... : G-3 00 8 P7B ... ... : ... .. . ... : ... .. . ... : ... .. . ... ... : ... .. 8 ... ... : ... .. 8 ... ... : ... .. 5 ... ...
ROW 17 : ... .. 9 P81 ... ... : ... .. 9 P80 ... ... : ... .. . ... : ... .. A ... : ... .. . ... ... : ... .. 5 ... ... : ... .. 5 ... ... : ... .. . ... ...
ROW 18 : ... .. . P85 ... ... : ... .. . P86 ... ... : ... .. . ... : ... .. 8 ... : ... .. . ... ... : ... .. . ... ... : ... .. . ... ... : ... .. . ... ...
ROW 19 : ... .. . P87 ... ... : G#3 00 9 P7B ... ... : --- .. . ... : ... .. 7 ... : ... .. . ... ... : ... .. 3 ... ... : ... .. 3 ... ... : ... .. . ... ...
ROW 1A : ... .. . P86 ... ... : ... .. . ... ... ... : E-2 00 . ... : 1-# 00 F ... : ... .. . ... ... : ... .. 6 ... ... : ... .. 6 ... ... : G-3 01 A ... ...
ROW 1B : ... .. . P83 ... ... : G-3 00 9 P87 ... ... : ... .. . ... : ... .. C ... : ... .. . ... ... : ... .. . ... ... : ... .. . ... ... : ... .. 8 ... ...
ROW 1C : ... .. . P7F ... ... : ... .. . P81 ... ... : ... .. . ... : ... .. 6 ... : ... .. . ... ... : ... .. 5 ... ... : ... .. 5 ... ... : ... .. 5 ... ...
ROW 1D : ... .. . P7C ... ... : ... .. . P7C ... ... : ... .. . ... : ... .. 3 ... : ... .. . ... ... : ... .. 3 ... ... : ... .. 3 ... ... : ... .. . ... ...
ROW 1E : ... .. . P7B ... ... : F#3 00 9 P88 ... ... : ... .. . ... : ... .. 2 ... : ... .. . ... ... : ... .. . ... ... : ... .. . ... ... : ... .. . ... ...
ROW 1F : ... .. . ... ... ... : ... .. . ... ... ... : ... .. . ... : ... .. . ... : ... .. . ... ... : ... .. . ... ... : ... .. . ... ... : ... .. . ... ...
ROW 20 : ... .. . ... ... ... : ... .. . ... ... ... : ... .. . ... : ... .. . ... : ... .. . ... ... : ... .. . ... ... : ... .. . ... ... : ... .. . ... ...
ROW 21 : ... .. . ... ... ... : ... .. . ... ... ... : ... .. . ... : ... .. . ... : ... .. . ... ... : ... .. . ... ... : ... .. . ... ... : ... .. . ... ...
ROW 22 : ... .. . ... ... ... : ... .. . ... ... ... : ... .. . ... : ... .. . ... : ... .. . ... ... : ... .. . ... ... : ... .. . ... ... : ... .. . ... ...
ROW 23 : ... .. . ... ... ... : ... .. . ... ... ... : ... .. . ... : ... .. . ... : ... .. . ... ... : ... .. . ... ... : ... .. . ... ... : ... .. . ... ...
ROW 24 : ... .. . ... ... ... : ... .. . ... ... ... : ... .. . ... : ... .. . ... : ... .. . ... ... : ... .. . ... ... : ... .. . ... ... : ... .. . ... ...
ROW 25 : ... .. . ... ... ... : ... .. . ... ... ... : ... .. . ... : ... .. . ... : ... .. . ... ... : ... .. . ... ... : ... .. . ... ... : ... .. . ... ...
ROW 26 : ... .. . ... ... ... : ... .. . ... ... ... : ... .. . ... : ... .. . ... : ... .. . ... ... : ... .. . ... ... : ... .. . ... ... : ... .. . ... ...
ROW 27 : ... .. . ... ... ... : ... .. . ... ... ... : ... .. . ... : ... .. . ... : ... .. . ... ... : ... .. . ... ... : ... .. . ... ... : ... .. . ... ...
ROW 28 : ... .. . ... ... ... : ... .. . ... ... ... : ... .. . ... : ... .. . ... : ... .. . ... ... : ... .. . ... ... : ... .. . ... ... : ... .. . ... ...
ROW 29 : ... .. . ... ... ... : ... .. . ... ... ... : ... .. . ... : ... .. . ... : ... .. . ... ... : ... .. . ... ... : ... .. . ... ... : ... .. . ... ...
ROW 2A : ... .. . ... ... ... : ... .. . ... ... ... : ... .. . ... : ... .. . ... : ... .. . ... ... : ... .. . ... ... : ... .. . ... ... : ... .. . ... ...
ROW 2B : ... .. . ... ... ... : ... .. . ... ... ... : ... .. . ... : ... .. . ... : ... .. . ... ... : ... .. . ... ... : ... .. . ... ... : ... .. . ... ...
ROW 2C : ... .. . ... ... ... : ... .. . ... ... ... : ... .. . ... : ... .. . ... : ... .. . ... ... : ... .. . ... ... : ... .. . ... ... : ... .. . ... ...
ROW 2D : ... .. . ... ... ... : ... .. . ... ... ... : ... .. . ... : ... .. . ... : ... .. . ... ... : ... .. . ... ... : ... .. . ... ... : ... .. . ... ...
ROW 2E : ... .. . ... ... ... : ... .. . ... ... ... : ... .. . ... : ... .. . ... : ... .. . ... ... : ... .. . ... ... : ... .. . ... ... : ... .. . ... ...
ROW 2F : ... .. . ... ... ... : ... .. . ... ... ... : ... .. . ... : ... .. . ... : ... .. . ... ... : ... .. . ... ... : ... .. . ... ... : ... .. . ... ...
ROW 30 : ... .. . ... ... ... : ... .. . ... ... ... : ... .. . ... : ... .. . ... : ... .. . ... ... : ... .. . ... ... : ... .. . ... ... : ... .. . ... ...
ROW 31 : ... .. . ... ... ... : ... .. . ... ... ... : ... .. . ... : ... .. . ... : ... .. . ... ... : ... .. . ... ... : ... .. . ... ... : ... .. . ... ...
ROW 32 : ... .. . ... ... ... : ... .. . ... ... ... : ... .. . ... : ... .. . ... : ... .. . ... ... : ... .. . ... ... : ... .. . ... ... : ... .. . ... ...
ROW 33 : ... .. . ... ... ... : ... .. . ... ... ... : ... .. . ... : ... .. . ... : ... .. . ... ... : ... .. . ... ... : ... .. . ... ... : ... .. . ... ...
ROW 34 : ... .. . ... ... ... : ... .. . ... ... ... : ... .. . ... : ... .. . ... : ... .. . ... ... : ... .. . ... ... : ... .. . ... ... : ... .. . ... ...
ROW 35 : ... .. . ... ... ... : ... .. . ... ... ... : ... .. . ... : ... .. . ... : ... .. . ... ... : ... .. . ... ... : ... .. . ... ... : ... .. . ... ...
ROW 36 : ... .. . ... ... ... : ... .. . ... ... ... : ... .. . ... : ... .. . ... : ... .. . ... ... : ... .. . ... ... : ... .. . ... ... : ... .. . ... ...
ROW 37 : ... .. . ... ... ... : ... .. . ... ... ... : ... .. . ... : ... .. . ... : ... .. . ... ... : ... .. . ... ... : ... .. . ... ... : ... .. . ... ...
ROW 38 : ... .. . ... ... ... : ... .. . ... ... ... : ... .. . ... : ... .. . ... : ... .. . ... ... : ... .. . ... ... : ... .. . ... ... : ... .. . ... ...
ROW 39 : ... .. . ... ... ... : ... .. . ... ... ... : ... .. . ... : ... .. . ... : ... .. . ... ... : ... .. . ... ... : ... .. . ... ... : ... .. . ... ...
ROW 3A : ... .. . ... ... ... : ... .. . ... ... ... : ... .. . ... : ... .. . ... : ... .. . ... ... : ... .. . ... ... : ... .. . ... ... : ... .. . ... ...
ROW 3B : ... .. . ... ... ... : ... .. . ... ... ... : ... .. . ... : ... .. . ... : ... .. . ... ... : ... .. . ... ... : ... .. . ... ... : ... .. . ... ...
ROW 3C : ... .. . ... ... ... : ... .. . ... ... ... : ... .. . ... : ... .. . ... : ... .. . ... ... : ... .. . ... ... : ... .. . ... ... : ... .. . ... ...
ROW 3D : ... .. . ... ... ... : ... .. . ... ... ... : ... .. . ... : ... .. . ... : ... .. . ... ... : ... .. . ... ... : ... .. . ... ... : ... .. . ... ...
ROW 3E : ... .. . ... ... ... : ... .. . ... ... ... : ... .. . ... : ... .. . ... : ... .. . ... ... : ... .. . ... ... : ... .. . ... ... : ... .. . ... ...
ROW 3F : ... .. . ... ... ... : ... .. . ... ... ... : ... .. . ... : ... .. . ... : ... .. . ... ... : ... .. . ... ... : ... .. . ... ... : ... .. . ... ...
ROW 40 : ... .. . ... ... ... : ... .. . ... ... ... : ... .. . ... : ... .. . ... : ... .. . ... ... : ... .. . ... ... : ... .. . ... ... : ... .. . ... ...
ROW 41 : ... .. . ... ... ... : ... .. . ... ... ... : ... .. . ... : ... .. . ... : ... .. . ... ... : ... .. . ... ... : ... .. . ... ... : ... .. . ... ...
ROW 42 : ... .. . ... ... ... : ... .. . ... ... ... : ... .. . ... : ... .. . ... : ... .. . ... ... : ... .. . ... ... : ... .. . ... ... : ... .. . ... ...
ROW 43 : ... .. . ... ... ... : ... .. . ... ... ... : ... .. . ... : ... .. . ... : ... .. . ... ... : ... .. . ... ... : ... .. . ... ... : ... .. . ... ...
ROW 44 : ... .. . ... ... ... : ... .. . ... ... ... : ... .. . ... : ... .. . ... : ... .. . ... ... : ... .. . ... ... : ... .. . ... ... : ... .. . ... ...
ROW 45 : ... .. . ... ... ... : ... .. . ... ... ... : ... .. . ... : ... .. . ... : ... .. . ... ... : ... .. . ... ... : ... .. . ... ... : ... .. . ... ...
ROW 46 : ... .. . ... ... ... : ... .. . ... ... ... : ... .. . ... : ... .. . ... : ... .. . ... ... : ... .. . ... ... : ... .. . ... ... : ... .. . ... ...
ROW 47 : ... .. . ... ... ... : ... .. . ... ... ... : ... .. . ... : ... .. . ... : ... .. . ... ... : ... .. . ... ... : ... .. . ... ... : ... .. . ... ...
ROW 48 : ... .. . ... ... ... : ... .. . ... ... ... : ... .. . ... : ... .. . ... : ... .. . ... ... : ... .. . ... ... : ... .. . ... ... : ... .. . ... ...
ROW 49 : ... .. . ... ... ... : ... .. . ... ... ... : ... .. . ... : ... .. . ... : ... .. . ... ... : ... .. . ... ... : ... .. . ... ... : ... .. . ... ...
ROW 4A : ... .. . ... ... ... : ... .. . ... ... ... : ... .. . ... : ... .. . ... : ... .. . ... ... : ... .. . ... ... : ... .. . ... ... : ... .. . ... ...
ROW 4B : ... .. . ... ... ... : ... .. . ... ... ... : ... .. . ... : ... .. . ... : ... .. . ... ... : ... .. . ... ... : ... .. . ... ... : ... .. . ... ...
ROW 4C : ... .. . ... ... ... : ... .. . ... ... ... : ... .. . ... : ... .. . ... : ... .. . ... ... : ... .. . ... ... : ... .. . ... ... : ... .. . ... ...
ROW 4D : ... .. . ... ... ... : ... .. . ... ... ... : ... .. . ... : ... .. . ... : ... .. . ... ... : ... .. . ... ... : ... .. . ... ... : ... .. . ... ...
ROW 4E : ... .. . ... ... ... : ... .. . ... ... ... : ... .. . ... : ... .. . ... : ... .. . ... ... : ... .. . ... ... : ... .. . ... ... : ... .. . ... ...
ROW 4F : ... .. . ... ... ... : ... .. . ... ... ... : ... .. . ... : ... .. . ... : ... .. . ... ... : ... .. . ... ... : ... .. . ... ... : ... .. . ... ...
ROW 50 : ... .. . ... ... ... : ... .. . ... ... ... : ... .. . ... : ... .. . ... : ... .. . ... ... : ... .. . ... ... : ... .. . ... ... : ... .. . ... ...
ROW 51 : ... .. . ... ... ... : ... .. . ... ... ... : ... .. . ... : ... .. . ... : ... .. . ... ... : ... .. . ... ... : ... .. . ... ... : ... .. . ... ...
ROW 52 : ... .. . ... ... ... : ... .. . ... ... ... : ... .. . ... : ... .. . ... : ... .. . ... ... : ... .. . ... ... : ... .. . ... ... : ... .. . ... ...
ROW 53 : ... .. . ... ... ... : ... .. . ... ... ... : ... .. . ... : ... .. . ... : ... .. . ... ... : ... .. . ... ... : ... .. . ... ... : ... .. . ... ...
ROW 54 : ... .. . ... ... ... : ... .. . ... ... ... : ... .. . ... : ... .. . ... : ... .. . ... ... : ... .. . ... ... : ... .. . ... ... : ... .. . ... ...
ROW 55 : ... .. . ... ... ... : ... .. . ... ... ... : ... .. . ... : ... .. . ... : ... .. . ... ... : ... .. . ... ... : ... .. . ... ... : ... .. . ... ...
ROW 56 : ... .. . ... ... ... : ... .. . ... ... ... : ... .. . ... : ... .. . ... : ... .. . ... ... : ... .. . ... ... : ... .. . ... ... : ... .. . ... ...
ROW 57 : ... .. . ... ... ... : ... .. . ... ... ... : ... .. . ... : ... .. . ... : ... .. . ... ... : ... .. . ... ... : ... .. . ... ... : ... .. . ... ...
ROW 58 : ... .. . ... ... ... : ... .. . ... ... ... : ... .. . ... : ... .. . ... : ... .. . ... ... : ... .. . ... ... : ... .. . ... ... : ... .. . ... ...
ROW 59 : ... .. . ... ... ... : ... .. . ... ... ... : ... .. . ... : ... .. . ... : ... .. . ... ... : ... .. . ... ... : ... .. . ... ... : ... .. . ... ...
ROW 5A : ... .. . ... ... ... : ... .. . ... ... ... : ... .. . ... : ... .. . ... : ... .. . ... ... : ... .. . ... ... : ... .. . ... ... : ... .. . ... ...
ROW 5B : ... .. . ... ... ... : ... .. . ... ... ... : ... .. . ... : ... .. . ... : ... .. . ... ... : ... .. . ... ... : ... .. . ... ... : ... .. . ... ...
ROW 5C : ... .. . ... ... ... : ... .. . ... ... ... : ... .. . ... : ... .. . ... : ... .. . ... ... : ... .. . ... ... : ... .. . ... ... : ... .. . ... ...
ROW 5D : ... .. . ... ... ... : ... .. . ... ... ... : ... .. . ... : ... .. . ... : ... .. . ... ... : ... .. . ... ... : ... .. . ... ... : ... .. . ... ...
ROW 5E : ... .. . ... ... ... : ... .. . ... ... ... : ... .. . ... : ... .. . ... : ... .. . ... ... : ... .. . ... ... : ... .. . ... ... : ... .. . ... ...
ROW 5F : ... .. . ... ... ... : ... .. . ... ... ... : ... .. . ... : ... .. . ... : ... .. . ... ... : ... .. . ... ... : ... .. . ... ... : ... .. . ... ...
ROW 60 : ... .. . ... ... ... : ... .. . ... ... ... : ... .. . ... : ... .. . ... : ... .. . ... ... : ... .. . ... ... : ... .. . ... ... : ... .. . ... ...
ROW 61 : ... .. . ... ... ... : ... .. . ... ... ... : ... .. . ... : ... .. . ... : ... .. . ... ... : ... .. . ... ... : ... .. . ... ... : ... .. . ... ...
ROW 62 : ... .. . ... ... ... : ... .. . ... ... ... : ... .. . ... : ... .. . ... : ... .. . ... ... : ... .. . ... ... : ... .. . ... ... : ... .. . ... ...
ROW 63 : ... .. . ... ... ... : ... .. . ... ... ... : ... .. . ... : ... .. . ... : ... .. . ... ... : ... .. . ... ... : ... .. . ... ... : ... .. . ... ...
ROW 64 : ... .. . ... ... ... : ... .. . ... ... ... : ... .. . ... : ... .. . ... : ... .. . ... ... : ... .. . ... ... : ... .. . ... ... : ... .. . ... ...
ROW 65 : ... .. . ... ... ... : ... .. . ... ... ... : ... .. . ... : ... .. . ... : ... .. . ... ... : ... .. . ... ... : ... .. . ... ... : ... .. . ... ...
ROW 66 : ... .. . ... ... ... : ... .. . ... ... ... : ... .. . ... : ... .. . ... : ... .. . ... ... : ... .. . ... ... : ... .. . ... ... : ... .. . ... ...
ROW 67 : ... .. . ... ... ... : ... .. . ... ... ... : ... .. . ... : ... .. . ... : ... .. . ... ... : ... .. . ... ... : ... .. . ... ... : ... .. . ... ...
ROW 68 : ... .. . ... ... ... : ... .. . ... ... ... : ... .. . ... : ... .. . ... : ... .. . ... ... : ... .. . ... ... : ... .. . ... ... : ... .. . ... ...
ROW 69 : ... .. . ... ... ... : ... .. . ... ... ... : ... .. . ... : ... .. . ... : ... .. . ... ... : ... .. . ... ... : ... .. . ... ... : ... .. . ... ...
ROW 6A : ... .. . ... ... ... : ... .. . ... ... ... : ... .. . ... : ... .. . ... : ... .. . ... ... : ... .. . ... ... : ... .. . ... ... : ... .. . ... ...
ROW 6B : ... .. . ... ... ... : ... .. . ... ... ... : ... .. . ... : ... .. . ... : ... .. . ... ... : ... .. . ... ... : ... .. . ... ... : ... .. . ... ...
ROW 6C : ... .. . ... ... ... : ... .. . ... ... ... : ... .. . ... : ... .. . ... : ... .. . ... ... : ... .. . ... ... : ... .. . ... ... : ... .. . ... ...
ROW 6D : ... .. . ... ... ... : ... .. . ... ... ... : ... .. . ... : ... .. . ... : ... .. . ... ... : ... .. . ... ... : ... .. . ... ... : ... .. . ... ...
ROW 6E : ... .. . ... ... ... : ... .. . ... ... ... : ... .. . ... : ... .. . ... : ... .. . ... ... : ... .. . ... ... : ... .. . ... ... : ... .. . ... ...
ROW 6F : ... .. . ... ... ... : ... .. . ... ... ... : ... .. . ... : ... .. . ... : ... .. . ... ... : ... .. . ... ... : ... .. . ... ... : ... .. . ... ...
ROW 70 : ... .. . ... ... ... : ... .. . ... ... ... : ... .. . ... : ... .. . ... : ... .. . ... ... : ... .. . ... ... : ... .. . ... ... : ... .. . ... ...
ROW 71 : ... .. . ... ... ... : ... .. . ... ... ... : ... .. . ... : ... .. . ... : ... .. . ... ... : ... .. . ... ... : ... .. . ... ... : ... .. . ... ...
ROW 72 : ... .. . ... ... ... : ... .. . ... ... ... : ... .. . ... : ... .. . ... : ... .. . ... ... : ... .. . ... ... : ... .. . ... ... : ... .. . ... ...
ROW 73 : ... .. . ... ... ... : ... .. . ... ... ... : ... .. . ... : ... .. . ... : ... .. . ... ... : ... .. . ... ... : ... .. . ... ... : ... .. . ... ...
ROW 74 : ... .. . ... ... ... : ... .. . ... ... ... : ... .. . ... : ... .. . ... : ... .. . ... ... : ... .. . ... ... : ... .. . ... ... : ... .. . ... ...
ROW 75 : ... .. . ... ... ... : ... .. . ... ... ... : ... .. . ... : ... .. . ... : ... .. . ... ... : ... .. . ... ... : ... .. . ... ... : ... .. . ... ...
ROW 76 : ... .. . ... ... ... : ... .. . ... ... ... : ... .. . ... : ... .. . ... : ... .. . ... ... : ... .. . ... ... : ... .. . ... ... : ... .. . ... ...
ROW 77 : ... .. . ... ... ... : ... .. . ... ... ... : ... .. . ... : ... .. . ... : ... .. . ... ... : ... .. . ... ... : ... .. . ... ... : ... .. . ... ...
ROW 78 : ... .. . ... ... ... : ... .. . ... ... ... : ... .. . ... : ... .. . ... : ... .. . ... ... : ... .. . ... ... : ... .. . ... ... : ... .. . ... ...
ROW 79 : ... .. . ... ... ... : ... .. . ... ... ... : ... .. . ... : ... .. . ... : ... .. . ... ... : ... .. . ... ... : ... .. . ... ... : ... .. . ... ...
ROW 7A : ... .. . ... ... ... : ... .. . ... ... ... : ... .. . ... : ... .. . ... : ... .. . ... ... : ... .. . ... ... : ... .. . ... ... : ... .. . ... ...
ROW 7B : ... .. . ... ... ... : ... .. . ... ... ... : ... .. . ... : ... .. . ... : ... .. . ... ... : ... .. . ... ... : ... .. . ... ... : ... .. . ... ...
ROW 7C : ... .. . ... ... ... : ... .. . ... ... ... : ... .. . ... : ... .. . ... : ... .. . ... ... : ... .. . ... ... : ... .. . ... ... : ... .. . ... ...
ROW 7D : ... .. . ... ... ... : ... .. . ... ... ... : ... .. . ... : ... .. . ... : ... .. . ... ... : ... .. . ... ... : ... .. . ... ... : ... .. . ... ...
ROW 7E : ... .. . ... ... ... : ... .. . ... ... ... : ... .. . ... : ... .. . ... : ... .. . ... ... : ... .. . ... ... : ... .. . ... ... : ... .. . ... ...
ROW 7F : ... .. . ... ... ... : ... .. . ... ... ... : ... .. . ... : ... .. . ... : ... .. . ... ... : ... .. . ... ... : ... .. . ... ... : ... .. . ... ...
ROW 80 : ... .. . ... ... ... : ... .. . ... ... ... : ... .. . ... : ... .. . ... : ... .. . ... ... : ... .. . ... ... : ... .. . ... ... : ... .. . ... ...
ROW 81 : ... .. . ... ... ... : ... .. . ... ... ... : ... .. . ... : ... .. . ... : ... .. . ... ... : ... .. . ... ... : ... .. . ... ... : ... .. . ... ...
ROW 82 : ... .. . ... ... ... : ... .. . ... ... ... : ... .. . ... : ... .. . ... : ... .. . ... ... : ... .. . ... ... : ... .. . ... ... : ... .. . ... ...
ROW 83 : ... .. . ... ... ... : ... .. . ... ... ... : ... .. . ... : ... .. . ... : ... .. . ... ... : ... .. . ... ... : ... .. . ... ... : ... .. . ... ...
ROW 84 : ... .. . ... ... ... : ... .. . ... ... ... : ... .. . ... : ... .. . ... : ... .. . ... ... : ... .. . ... ... : ... .. . ... ... : ... .. . ... ...
ROW 85 : ... .. . ... ... ... : ... .. . ... ... ... : ... .. . ... : ... .. . ... : ... .. . ... ... : ... .. . ... ... : ... .. . ... ... : ... .. . ... ...
ROW 86 : ... .. . ... ... ... : ... .. . ... ... ... : ... .. . ... : ... .. . ... : ... .. . ... ... : ... .. . ... ... : ... .. . ... ... : ... .. . ... ...
ROW 87 : ... .. . ... ... ... : ... .. . ... ... ... : ... .. . ... : ... .. . ... : ... .. . ... ... : ... .. . ... ... : ... .. . ... ... : ... .. . ... ...
ROW 88 : ... .. . ... ... ... : ... .. . ... ... ... : ... .. . ... : ... .. . ... : ... .. . ... ... : ... .. . ... ... : ... .. . ... ... : ... .. . ... ...
ROW 89 : ... .. . ... ... ... : ... .. . ... ... ... : ... .. . ... : ... .. . ... : ... .. . ... ... : ... .. . ... ... : ... .. . ... ... : ... .. . ... ...
ROW 8A : ... .. . ... ... ... : ... .. . ... ... ... : ... .. . ... : ... .. . ... : ... .. . ... ... : ... .. . ... ... : ... .. . ... ... : ... .. . ... ...
ROW 8B : ... .. . ... ... ... : ... .. . ... ... ... : ... .. . ... : ... .. . ... : ... .. . ... ... : ... .. . ... ... : ... .. . ... ... : ... .. . ... ...
ROW 8C : ... .. . ... ... ... : ... .. . ... ... ... : ... .. . ... : ... .. . ... : ... .. . ... ... : ... .. . ... ... : ... .. . ... ... : ... .. . ... ...
ROW 8D : ... .. . ... ... ... : ... .. . ... ... ... : ... .. . ... : ... .. . ... : ... .. . ... ... : ... .. . ... ... : ... .. . ... ... : ... .. . ... ...
ROW 8E : ... .. . ... ... ... : ... .. . ... ... ... : ... .. . ... : ... .. . ... : ... .. . ... ... : ... .. . ... ... : ... .. . ... ... : ... .. . ... ...
ROW 8F : ... .. . ... ... ... : ... .. . ... ... ... : ... .. . ... : ... .. . ... : ... .. . ... ... : ... .. . ... ... : ... .. . ... ... : ... .. . ... ...
ROW 90 : ... .. . ... ... ... : ... .. . ... ... ... : ... .. . ... : ... .. . ... : ... .. . ... ... : ... .. . ... ... : ... .. . ... ... : ... .. . ... ...
ROW 91 : ... .. . ... ... ... : ... .. . ... ... ... : ... .. . ... : ... .. . ... : ... .. . ... ... : ... .. . ... ... : ... .. . ... ... : ... .. . ... ...
ROW 92 : ... .. . ... ... ... : ... .. . ... ... ... : ... .. . ... : ... .. . ... : ... .. . ... ... : ... .. . ... ... : ... .. . ... ... : ... .. . ... ...
ROW 93 : ... .. . ... ... ... : ... .. . ... ... ... : ... .. . ... : ... .. . ... : ... .. . ... ... : ... .. . ... ... : ... .. . ... ... : ... .. . ... ...
ROW 94 : ... .. . ... ... ... : ... .. . ... ... ... : ... .. . ... : ... .. . ... : ... .. . ... ... : ... .. . ... ... : ... .. . ... ... : ... .. . ... ...
ROW 95 : ... .. . ... ... ... : ... .. . ... ... ... : ... .. . ... : ... .. . ... : ... .. . ... ... : ... .. . ... ... : ... .. . ... ... : ... .. . ... ...
ROW 96 : ... .. . ... ... ... : ... .. . ... ... ... : ... .. . ... : ... .. . ... : ... .. . ... ... : ... .. . ... ... : ... .. . ... ... : ... .. . ... ...
ROW 97 : ... .. . ... ... ... : ... .. . ... ... ... : ... .. . ... : ... .. . ... : ... .. . ... ... : ... .. . ... ... : ... .. . ... ... : ... .. . ... ...
ROW 98 : ... .. . ... ... ... : ... .. . ... ... ... : ... .. . ... : ... .. . ... : ... .. . ... ... : ... .. . ... ... : ... .. . ... ... : ... .. . ... ...
ROW 99 : ... .. . ... ... ... : ... .. . ... ... ... : ... .. . ... : ... .. . ... : ... .. . ... ... : ... .. . ... ... : ... .. . ... ... : ... .. . ... ...
ROW 9A : ... .. . ... ... ... : ... .. . ... ... ... : ... .. . ... : ... .. . ... : ... .. . ... ... : ... .. . ... ... : ... .. . ... ... : ... .. . ... ...
ROW 9B : ... .. . ... ... ... : ... .. . ... ... ... : ... .. . ... : ... .. . ... : ... .. . ... ... : ... .. . ... ... : ... .. . ... ... : ... .. . ... ...
ROW 9C : ... .. . ... ... ... : ... .. . ... ... ... : ... .. . ... : ... .. . ... : ... .. . ... ... : ... .. . ... ... : ... .. . ... ... : ... .. . ... ...
ROW 9D : ... .. . ... ... ... : ... .. . ... ... ... : ... .. . ... : ... .. . ... : ... .. . ... ... : ... .. . ... ... : ... .. . ... ... : ... .. . ... ...
ROW 9E : ... .. . ... ... ... : ... .. . ... ... ... : ... .. . ... : ... .. . ... : ... .. . ... ... : ... .. . ... ... : ... .. . ... ... : ... .. . ... ...
ROW 9F : ... .. . ... ... ... : ... .. . ... ... ... : ... .. . ... : ... .. . ... : ... .. . ... ... : ... .. . ... ... : ... .. . ... ... : ... .. . ... ...
ROW A0 : ... .. . ... ... ... : ... .. . ... ... ... : ... .. . ... : ... .. . ... : ... .. . ... ... : ... .. . ... ... : ... .. . ... ... : ... .. . ... ...
ROW A1 : ... .. . ... ... ... : ... .. . ... ... ... : ... .. . ... : ... .. . ... : ... .. . ... ... : ... .. . ... ... : ... .. . ... ... : ... .. . ... ...
ROW A2 : ... .. . ... ... ... : ... .. . ... ... ... : ... .. . ... : ... .. . ... : ... .. . ... ... : ... .. . ... ... : ... .. . ... ... : ... .. . ... ...
ROW A3 : ... .. . ... ... ... : ... .. . ... ... ... : ... .. . ... : ... .. . ... : ... .. . ... ... : ... .. . ... ... : ... .. . ... ... : ... .. . ... ...
ROW A4 : ... .. . ... ... ... : ... .. . ... ... ... : ... .. . ... : ... .. . ... : ... .. . ... ... : ... .. . ... ... : ... .. . ... ... : ... .. . ... ...
ROW A5 : ... .. . ... ... ... : ... .. . ... ... ... : ... .. . ... : ... .. . ... : ... .. . ... ... : ... .. . ... ... : ... .. . ... ... : ... .. . ... ...
ROW A6 : ... .. . ... ... ... : ... .. . ... ... ... : ... .. . ... : ... .. . ... : ... .. . ... ... : ... .. . ... ... : ... .. . ... ... : ... .. . ... ...
ROW A7 : ... .. . ... ... ... : ... .. . ... ... ... : ... .. . ... : ... .. . ... : ... .. . ... ... : ... .. . ... ... : ... .. . ... ... : ... .. . ... ...
ROW A8 : ... .. . ... ... ... : ... .. . ... ... ... : ... .. . ... : ... .. . ... : ... .. . ... ... : ... .. . ... ... : ... .. . ... ... : ... .. . ... ...
ROW A9 : ... .. . ... ... ... : ... .. . ... ... ... : ... .. . ... : ... .. . ... : ... .. . ... ... : ... .. . ... ... : ... .. . ... ... : ... .. . ... ...
ROW AA : ... .. . ... ... ... : ... .. . ... ... ... : ... .. . ... : ... .. . ... : ... .. . ... ... : ... .. . ... ... : ... .. . ... ... : ... .. . ... ...
ROW AB : ... .. . ... ... ... : ... .. . ... ... ... : ... .. . ... : ... .. . ... : ... .. . ... ... : ... .. . ... ... : ... .. . ... ... : ... .. . ... ...
ROW AC : ... .. . ... ... ... : ... .. . ... ... ... : ... .. . ... : ... .. . ... : ... .. . ... ... : ... .. . ... ... : ... .. . ... ... : ... .. . ... ...
ROW AD : ... .. . ... ... ... : ... .. . ... ... ... : ... .. . ... : ... .. . ... : ... .. . ... ... : ... .. . ... ... : ... .. . ... ... : ... .. . ... ...
ROW AE : ... .. . ... ... ... : ... .. . ... ... ... : ... .. . ... : ... .. . ... : ... .. . ... ... : ... .. . ... ... : ... .. . ... ... : ... .. . ... ...
ROW AF : ... .. . ... ... ... : ... .. . ... ... ... : ... .. . ... : ... .. . ... : ... .. . ... ... : ... .. . ... ... : ... .. . ... ... : ... .. . ... ...
ROW B0 : ... .. . ... ... ... : ... .. . ... ... ... : ... .. . ... : ... .. . ... : ... .. . ... ... : ... .. . ... ... : ... .. . ... ... : ... .. . ... ...
ROW B1 : ... .. . ... ... ... : ... .. . ... ... ... : ... .. . ... : ... .. . ... : ... .. . ... ... : ... .. . ... ... : ... .. . ... ... : ... .. . ... ...
ROW B2 : ... .. . ... ... ... : ... .. . ... ... ... : ... .. . ... : ... .. . ... : ... .. . ... ... : ... .. . ... ... : ... .. . ... ... : ... .. . ... ...
ROW B3 : ... .. . ... ... ... : ... .. . ... ... ... : ... .. . ... : ... .. . ... : ... .. . ... ... : ... .. . ... ... : ... .. . ... ... : ... .. . ... ...
ROW B4 : ... .. . ... ... ... : ... .. . ... ... ... : ... .. . ... : ... .. . ... : ... .. . ... ... : ... .. . ... ... : ... .. . ... ... : ... .. . ... ...
ROW B5 : ... .. . ... ... ... : ... .. . ... ... ... : ... .. . ... : ... .. . ... : ... .. . ... ... : ... .. . ... ... : ... .. . ... ... : ... .. . ... ...
ROW B6 : ... .. . ... ... ... : ... .. . ... ... ... : ... .. . ... : ... .. . ... : ... .. . ... ... : ... .. . ... ... : ... .. . ... ... : ... .. . ... ...
ROW B7 : ... .. . ... ... ... : ... .. . ... ... ... : ... .. . ... : ... .. . ... : ... .. . ... ... : ... .. . ... ... : ... .. . ... ... : ... .. . ... ...
ROW B8 : ... .. . ... ... ... : ... .. . ... ... ... : ... .. . ... : ... .. . ... : ... .. . ... ... : ... .. . ... ... : ... .. . ... ... : ... .. . ... ...
ROW B9 : ... .. . ... ... ... : ... .. . ... ... ... : ... .. . ... : ... .. . ... : ... .. . ... ... : ... .. . ... ... : ... .. . ... ... : ... .. . ... ...
ROW BA : ... .. . ... ... ... : ... .. . ... ... ... : ... .. . ... : ... .. . ... : ... .. . ... ... : ... .. . ... ... : ... .. . ... ... : ... .. . ... ...
ROW BB : ... .. . ... ... ... : ... .. . ... ... ... : ... .. . ... : ... .. . ... : ... .. . ... ... : ... .. . ... ... : ... .. . ... ... : ... .. . ... ...
ROW BC : ... .. . ... ... ... : ... .. . ... ... ... : ... .. . ... : ... .. . ... : ... .. . ... ... : ... .. . ... ... : ... .. . ... ... : ... .. . ... ...
ROW BD : ... .. . ... ... ... : ... .. . ... ... ... : ... .. . ... : ... .. . ... : ... .. . ... ... : ... .. . ... ... : ... .. . ... ... : ... .. . ... ...
ROW BE : ... .. . ... ... ... : ... .. . ... ... ... : ... .. . ... : ... .. . ... : ... .. . ... ... : ... .. . ... ... : ... .. . ... ... : ... .. . ... ...
ROW BF : ... .. . ... ... ... : ... .. . ... ... ... : ... .. . ... : ... .. . ... : ... .. . ... ... : ... .. . ... ... : ... .. . ... ... : ... .. . ... ...
ROW C0 : ... .. . ... ... ... : ... .. . ... ... ... : ... .. . ... : ... .. . ... : ... .. . ... ... : ... .. . ... ... : ... .. . ... ... : ... .. . ... ...
ROW C1 : ... .. . ... ... ... : ... .. . ... ... ... : ... .. . ... : ... .. . ... : ... .. . ... ... : ... .. . ... ... : ... .. . ... ... : ... .. . ... ...
ROW C2 : ... .. . ... ... ... : ... .. . ... ... ... : ... .. . ... : ... .. . ... : ... .. . ... ... : ... .. . ... ... : ... .. . ... ... : ... .. . ... ...
ROW C3 : ... .. . ... ... ... : ... .. . ... ... ... : ... .. . ... : ... .. . ... : ... .. . ... ... : ... .. . ... ... : ... .. . ... ... : ... .. . ... ...
ROW C4 : ... .. . ... ... ... : ... .. . ... ... ... : ... .. . ... : ... .. . ... : ... .. . ... ... : ... .. . ... ... : ... .. . ... ... : ... .. . ... ...
ROW C5 : ... .. . ... ... ... : ... .. . ... ... ... : ... .. . ... : ... .. . ... : ... .. . ... ... : ... .. . ... ... : ... .. . ... ... : ... .. . ... ...
ROW C6 : ... .. . ... ... ... : ... .. . ... ... ... : ... .. . ... : ... .. . ... : ... .. . ... ... : ... .. . ... ... : ... .. . ... ... : ... .. . ... ...
ROW C7 : ... .. . ... ... ... : ... .. . ... ... ... : ... .. . ... : ... .. . ... : ... .. . ... ... : ... .. . ... ... : ... .. . ... ... : ... .. . ... ...
ROW C8 : ... .. . ... ... ... : ... .. . ... ... ... : ... .. . ... : ... .. . ... : ... .. . ... ... : ... .. . ... ... : ... .. . ... ... : ... .. . ... ...
ROW C9 : ... .. . ... ... ... : ... .. . ... ... ... : ... .. . ... : ... .. . ... : ... .. . ... ... : ... .. . ... ... : ... .. . ... ... : ... .. . ... ...
ROW CA : ... .. . ... ... ... : ... .. . ... ... ... : ... .. . ... : ... .. . ... : ... .. . ... ... : ... .. . ... ... : ... .. . ... ... : ... .. . ... ...
ROW CB : ... .. . ... ... ... : ... .. . ... ... ... : ... .. . ... : ... .. . ... : ... .. . ... ... : ... .. . ... ... : ... .. . ... ... : ... .. . ... ...
ROW CC : ... .. . ... ... ... : ... .. . ... ... ... : ... .. . ... : ... .. . ... : ... .. . ... ... : ... .. . ... ... : ... .. . ... ... : ... .. . ... ...
ROW CD : ... .. . ... ... ... : ... .. . ... ... ... : ... .. . ... : ... .. . ... : ... .. . ... ... : ... .. . ... ... : ... .. . ... ... : ... .. . ... ...
ROW CE : ... .. . ... ... ... : ... .. . ... ... ... : ... .. . ... : ... .. . ... : ... .. . ... ... : ... .. . ... ... : ... .. . ... ... : ... .. . ... ...
ROW CF : ... .. . ... ... ... : ... .. . ... ... ... : ... .. . ... : ... .. . ... : ... .. . ... ... : ... .. . ... ... : ... .. . ... ... : ... .. . ... ...
ROW D0 : ... .. . ... ... ... : ... .. . ... ... ... : ... .. . ... : ... .. . ... : ... .. . ... ... : ... .. . ... ... : ... .. . ... ... : ... .. . ... ...
ROW D1 : ... .. . ... ... ... : ... .. . ... ... ... : ... .. . ... : ... .. . ... : ... .. . ... ... : ... .. . ... ... : ... .. . ... ... : ... .. . ... ...
ROW D2 : ... .. . ... ... ... : ... .. . ... ... ... : ... .. . ... : ... .. . ... : ... .. . ... ... : ... .. . ... ... : ... .. . ... ... : ... .. . ... ...
ROW D3 : ... .. . ... ... ... : ... .. . ... ... ... : ... .. . ... : ... .. . ... : ... .. . ... ... : ... .. . ... ... : ... .. . ... ... : ... .. . ... ...
ROW D4 : ... .. . ... ... ... : ... .. . ... ... ... : ... .. . ... : ... .. . ... : ... .. . ... ... : ... .. . ... ... : ... .. . ... ... : ... .. . ... ...
ROW D5 : ... .. . ... ... ... : ... .. . ... ... ... : ... .. . ... : ... .. . ... : ... .. . ... ... : ... .. . ... ... : ... .. . ... ... : ... .. . ... ...
ROW D6 : ... .. . ... ... ... : ... .. . ... ... ... : ... .. . ... : ... .. . ... : ... .. . ... ... : ... .. . ... ... : ... .. . ... ... : ... .. . ... ...
ROW D7 : ... .. . ... ... ... : ... .. . ... ... ... : ... .. . ... : ... .. . ... : ... .. . ... ... : ... .. . ... ... : ... .. . ... ... : ... .. . ... ...
ROW D8 : ... .. . ... ... ... : ... .. . ... ... ... : ... .. . ... : ... .. . ... : ... .. . ... ... : ... .. . ... ... : ... .. . ... ... : ... .. . ... ...
ROW D9 : ... .. . ... ... ... : ... .. . ... ... ... : ... .. . ... : ... .. . ... : ... .. . ... ... : ... .. . ... ... : ... .. . ... ... : ... .. . ... ...
ROW DA : ... .. . ... ... ... : ... .. . ... ... ... : ... .. . ... : ... .. . ... : ... .. . ... ... : ... .. . ... ... : ... .. . ... ... : ... .. . ... ...
ROW DB : ... .. . ... ... ... : ... .. . ... ... ... : ... .. . ... : ... .. . ... : ... .. . ... ... : ... .. . ... ... : ... .. . ... ... : ... .. . ... ...
ROW DC : ... .. . ... ... ... : ... .. . ... ... ... : ... .. . ... : ... .. . ... : ... .. . ... ... : ... .. . ... ... : ... .. . ... ... : ... .. . ... ...
ROW DD : ... .. . ... ... ... : ... .. . ... ... ... : ... .. . ... : ... .. . ... : ... .. . ... ... : ... .. . ... ... : ... .. . ... ... : ... .. . ... ...
ROW DE : ... .. . ... ... ... : ... .. . ... ... ... : ... .. . ... : ... .. . ... : ... .. . ... ... : ... .. . ... ... : ... .. . ... ... : ... .. . ... ...
ROW DF : ... .. . ... ... ... : ... .. . ... ... ... : ... .. . ... : ... .. . ... : ... .. . ... ... : ... .. . ... ... : ... .. . ... ... : ... .. . ... ...
ROW E0 : ... .. . ... ... ... : ... .. . ... ... ... : ... .. . ... : ... .. . ... : ... .. . ... ... : ... .. . ... ... : ... .. . ... ... : ... .. . ... ...
ROW E1 : ... .. . ... ... ... : ... .. . ... ... ... : ... .. . ... : ... .. . ... : ... .. . ... ... : ... .. . ... ... : ... .. . ... ... : ... .. . ... ...
ROW E2 : ... .. . ... ... ... : ... .. . ... ... ... : ... .. . ... : ... .. . ... : ... .. . ... ... : ... .. . ... ... : ... .. . ... ... : ... .. . ... ...
ROW E3 : ... .. . ... ... ... : ... .. . ... ... ... : ... .. . ... : ... .. . ... : ... .. . ... ... : ... .. . ... ... : ... .. . ... ... : ... .. . ... ...
ROW E4 : ... .. . ... ... ... : ... .. . ... ... ... : ... .. . ... : ... .. . ... : ... .. . ... ... : ... .. . ... ... : ... .. . ... ... : ... .. . ... ...
ROW E5 : ... .. . ... ... ... : ... .. . ... ... ... : ... .. . ... : ... .. . ... : ... .. . ... ... : ... .. . ... ... : ... .. . ... ... : ... .. . ... ...
ROW E6 : ... .. . ... ... ... : ... .. . ... ... ... : ... .. . ... : ... .. . ... : ... .. . ... ... : ... .. . ... ... : ... .. . ... ... : ... .. . ... ...
ROW E7 : ... .. . ... ... ... : ... .. . ... ... ... : ... .. . ... : ... .. . ... : ... .. . ... ... : ... .. . ... ... : ... .. . ... ... : ... .. . ... ...
ROW E8 : ... .. . ... ... ... : ... .. . ... ... ... : ... .. . ... : ... .. . ... : ... .. . ... ... : ... .. . ... ... : ... .. . ... ... : ... .. . ... ...
ROW E9 : ... .. . ... ... ... : ... .. . ... ... ... : ... .. . ... : ... .. . ... : ... .. . ... ... : ... .. . ... ... : ... .. . ... ... : ... .. . ... ...
ROW EA : ... .. . ... ... ... : ... .. . ... ... ... : ... .. . ... : ... .. . ... : ... .. . ... ... : ... .. . ... ... : ... .. . ... ... : ... .. . ... ...
ROW EB : ... .. . ... ... ... : ... .. . ... ... ... : ... .. . ... : ... .. . ... : ... .. . ... ... : ... .. . ... ... : ... .. . ... ... : ... .. . ... ...
ROW EC : ... .. . ... ... ... : ... .. . ... ... ... : ... .. . ... : ... .. . ... : ... .. . ... ... : ... .. . ... ... : ... .. . ... ... : ... .. . ... ...
ROW ED : ... .. . ... ... ... : ... .. . ... ... ... : ... .. . ... : ... .. . ... : ... .. . ... ... : ... .. . ... ... : ... .. . ... ... : ... .. . ... ...
ROW EE : ... .. . ... ... ... : ... .. . ... ... ... : ... .. . ... : ... .. . ... : ... .. . ... ... : ... .. . ... ... : ... .. . ... ... : ... .. . ... ...
ROW EF : ... .. . ... ... ... : ... .. . ... ... ... : ... .. . ... : ... .. . ... : ... .. . ... ... : ... .. . ... ... : ... .. . ... ... : ... .. . ... ...
ROW F0 : ... .. . ... ... ... : ... .. . ... ... ... : ... .. . ... : ... .. . ... : ... .. . ... ... : ... .. . ... ... : ... .. . ... ... : ... .. . ... ...
ROW F1 : ... .. . ... ... ... : ... .. . ... ... ... : ... .. . ... : ... .. . ... : ... .. . ... ... : ... .. . ... ... : ... .. . ... ... : ... .. . ... ...
ROW F2 : ... .. . ... ... ... : ... .. . ... ... ... : ... .. . ... : ... .. . ... : ... .. . ... ... : ... .. . ... ... : ... .. . ... ... : ... .. . ... ...
ROW F3 : ... .. . ... ... ... : ... .. . ... ... ... : ... .. . ... : ... .. . ... : ... .. . ... ... : ... .. . ... ... : ... .. . ... ... : ... .. . ... ...
ROW F4 : ... .. . ... ... ... : ... .. . ... ... ... : ... .. . ... : ... .. . ... : ... .. . ... ... : ... .. . ... ... : ... .. . ... ... : ... .. . ... ...
ROW F5 : ... .. . ... ... ... : ... .. . ... ... ... : ... .. . ... : ... .. . ... : ... .. . ... ... : ... .. . ... ... : ... .. . ... ... : ... .. . ... ...
ROW F6 : ... .. . ... ... ... : ... .. . ... ... ... : ... .. . ... : ... .. . ... : ... .. . ... ... : ... .. . ... ... : ... .. . ... ... : ... .. . ... ...
ROW F7 : ... .. . ... ... ... : ... .. . ... ... ... : ... .. . ... : ... .. . ... : ... .. . ... ... : ... .. . ... ... : ... .. . ... ... : ... .. . ... ...
ROW F8 : ... .. . ... ... ... : ... .. . ... ... ... : ... .. . ... : ... .. . ... : ... .. . ... ... : ... .. . ... ... : ... .. . ... ... : ... .. . ... ...
ROW F9 : ... .. . ... ... ... : ... .. . ... ... ... : ... .. . ... : ... .. . ... : ... .. . ... ... : ... .. . ... ... : ... .. . ... ... : ... .. . ... ...
ROW FA : ... .. . ... ... ... : ... .. . ... ... ... : ... .. . ... : ... .. . ... : ... .. . ... ... : ... .. . ... ... : ... .. . ... ... : ... .. . ... ...
ROW FB : ... .. . ... ... ... : ... .. . ... ... ... : ... .. . ... : ... .. . ... : ... .. . ... ... : ... .. . ... ... : ... .. . ... ... : ... .. . ... ...
ROW FC : ... .. . ... ... ... : ... .. . ... ... ... : ... .. . ... : ... .. . ... : ... .. . ... ... : ... .. . ... ... : ... .. . ... ... : ... .. . ... ...
ROW FD : ... .. . ... ... ... : ... .. . ... ... ... : ... .. . ... : ... .. . ... : ... .. . ... ... : ... .. . ... ... : ... .. . ... ... : ... .. . ... ...
ROW FE : ... .. . ... ... ... : ... .. . ... ... ... : ... .. . ... : ... .. . ... : ... .. . ... ... : ... .. . ... ... : ... .. . ... ... : ... .. . ... ...
ROW FF : ... .. . ... ... ... : ... .. . ... ... ... : ... .. . ... : ... .. . ... : ... .. . ... ... : ... .. . ... ... : ... .. . ... ... : ... .. . ... ...

# End of export
