# FamiTracker text export 0.4.2

# Song information
TITLE           "Shovel Knight OST"
AUTHOR          "Jake Kaufman"
COPYRIGHT       ""

# Song comment
COMMENT ""

# Global settings
MACHINE         0
FRAMERATE       0
EXPANSION       1
VIBRATO         1
SPLIT           21

# Macros

# DPCM samples

# Instruments
INST2A03   0    -1  -1  -1  -1  -1 "blank"
INSTVRC6   1    -1  -1  -1  -1  -1 "blank"

# Tracks

TRACK 256   1 150 "New song"
COLUMNS : 3 3 1 1 2 2 2 2

ORDER 00 : 00 00 00 00 00 00 00 00
ORDER 01 : 01 01 01 01 01 01 01 01
ORDER 02 : 02 02 02 02 02 02 02 02
ORDER 03 : 03 03 03 03 03 03 03 03
ORDER 04 : 04 04 04 04 04 04 04 04
ORDER 05 : 05 05 05 05 05 05 05 05
ORDER 06 : 06 06 06 06 06 06 06 06
ORDER 07 : 07 07 07 07 07 07 07 07
ORDER 08 : 08 08 08 08 08 08 08 08
ORDER 09 : 09 09 09 09 09 09 09 09
ORDER 0A : 0A 0A 0A 0A 0A 0A 0A 0A
ORDER 0B : 0B 0B 0B 0B 0B 0B 0B 0B
ORDER 0C : 0C 0C 0C 0C 0C 0C 0C 0C
ORDER 0D : 0D 0D 0D 0D 0D 0D 0D 0D
ORDER 0E : 0E 0E 0E 0E 0E 0E 0E 0E
ORDER 0F : 0F 0F 0F 0F 0F 0F 0F 0F
ORDER 10 : 10 10 10 10 10 10 10 10
ORDER 11 : 11 11 11 11 11 11 11 11
ORDER 12 : 12 12 12 12 12 12 12 12
ORDER 13 : 13 13 13 13 13 13 13 13
ORDER 14 : 14 14 14 14 14 14 14 14
ORDER 15 : 15 15 15 15 15 15 15 15
ORDER 16 : 16 16 16 16 16 16 16 16
ORDER 17 : 17 17 17 17 17 17 17 17
ORDER 18 : 18 18 18 18 18 18 18 18
ORDER 19 : 19 19 19 19 19 19 19 19
ORDER 1A : 1A 1A 1A 1A 1A 1A 1A 1A
ORDER 1B : 1B 1B 1B 1B 1B 1B 1B 1B
ORDER 1C : 1C 1C 1C 1C 1C 1C 1C 1C

PATTERN 00
ROW 00 : F-1 00 F P80 V00 ... : F-4 00 3 P80 V00 ... : E-3 00 . P80 : 7-# 00 7 V00 : === 00 . Z00 ... : C-3 01 2 P80 V03 : F-3 01 2 P80 V03 : A#1 01 4 P80 V00
ROW 01 : ... .. E ... ... ... : ... .. 2 ... ... ... : F#2 00 . ... : ... .. . ... : ... .. . ... ... : ... .. . ... ... : ... .. . ... ... : ... .. 3 ... ...
ROW 02 : ... .. D ... ... ... : ... .. . ... ... ... : B-1 00 . ... : ... .. 6 ... : ... .. . ... ... : ... .. . ... ... : ... .. . ... ... : ... .. 2 ... ...
ROW 03 : ... .. A ... ... ... : ... .. . ... ... ... : A#1 00 . ... : ... .. . ... : ... .. . ... ... : ... .. 1 ... ... : ... .. 1 ... ... : ... .. . ... ...
ROW 04 : ... .. . ... ... ... : C-4 00 3 ... ... ... : F-1 00 . ... : ... .. . ... : ... .. . ... ... : ... .. . ... ... : ... .. . ... ... : C-2 01 4 ... ...
ROW 05 : ... .. . ... ... ... : ... .. 2 ... ... ... : ... .. . ... : ... .. 5 ... : ... .. . ... ... : ... .. . ... ... : ... .. . ... ... : ... .. 3 ... ...
ROW 06 : ... .. . ... ... ... : ... .. . ... ... ... : ... .. . ... : ... .. . ... : ... .. . ... ... : ... .. . ... ... : ... .. . ... ... : ... .. 2 ... ...
ROW 07 : ... .. . ... ... ... : ... .. . ... ... ... : ... .. . ... : ... .. . ... : ... .. . ... ... : ... .. . ... ... : ... .. . ... ... : ... .. . ... ...
ROW 08 : ... .. . ... ... ... : G#3 00 3 ... ... ... : ... .. . ... : ... .. 4 ... : ... .. . ... ... : ... .. . ... ... : ... .. . ... ... : C#2 01 4 ... ...
ROW 09 : ... .. . ... ... ... : ... .. 2 ... ... ... : ... .. . ... : ... .. . ... : ... .. . ... ... : ... .. . ... ... : ... .. . ... ... : ... .. 3 ... ...
ROW 0A : ... .. . ... ... ... : ... .. . ... ... ... : ... .. . ... : ... .. 3 ... : ... .. . ... ... : ... .. . ... ... : ... .. . ... ... : ... .. 2 ... ...
ROW 0B : ... .. . ... ... ... : ... .. . ... ... ... : ... .. . ... : ... .. . ... : ... .. . ... ... : ... .. . ... ... : ... .. . ... ... : ... .. . ... ...
ROW 0C : ... .. . ... ... ... : F-3 00 3 ... ... ... : ... .. . ... : ... .. . ... : ... .. . ... ... : ... .. . ... ... : ... .. . ... ... : D#2 01 4 ... ...
ROW 0D : ... .. . ... ... ... : ... .. 2 ... ... ... : ... .. . ... : ... .. 2 ... : ... .. . ... ... : ... .. . ... ... : ... .. . ... ... : ... .. 3 ... ...
ROW 0E : ... .. . ... ... ... : ... .. 3 ... ... ... : ... .. . ... : ... .. . ... : ... .. . ... ... : ... .. . ... ... : ... .. . ... ... : ... .. 2 ... ...
ROW 0F : ... .. . ... ... ... : ... .. . ... ... ... : ... .. . ... : ... .. . ... : ... .. . ... ... : ... .. . ... ... : ... .. . ... ... : ... .. . ... ...
ROW 10 : ... .. . ... ... ... : C-3 00 4 ... ... ... : ... .. . ... : ... .. 1 ... : ... .. . ... ... : ... .. . ... ... : ... .. . ... ... : C-2 01 5 ... ...
ROW 11 : ... .. . ... ... ... : ... .. 3 ... ... ... : ... .. . ... : ... .. . ... : ... .. . ... ... : ... .. . ... ... : ... .. . ... ... : ... .. 4 ... ...
ROW 12 : ... .. . ... ... ... : ... .. . ... ... ... : ... .. . ... : ... .. . ... : ... .. . ... ... : ... .. . ... ... : ... .. . ... ... : ... .. 2 ... ...
ROW 13 : ... .. . ... ... ... : ... .. . ... ... ... : ... .. . ... : ... .. . ... : ... .. . ... ... : ... .. . ... ... : ... .. . ... ... : ... .. . ... ...
ROW 14 : ... .. . ... ... ... : G#2 00 4 ... ... ... : ... .. . ... : ... .. . ... : ... .. . ... ... : ... .. . ... ... : ... .. . ... ... : C#2 01 5 ... ...
ROW 15 : ... .. . ... ... ... : ... .. 3 ... ... ... : ... .. . ... : ... .. 0 ... : ... .. . ... ... : ... .. . ... ... : ... .. . ... ... : ... .. 4 ... ...
ROW 16 : ... .. . ... ... ... : ... .. . ... ... ... : ... .. . ... : ... .. . ... : ... .. . ... ... : ... .. . ... ... : ... .. . ... ... : ... .. 2 ... ...
ROW 17 : ... .. . ... ... ... : ... .. . ... ... ... : ... .. . ... : ... .. . ... : ... .. . ... ... : ... .. . ... ... : ... .. . ... ... : ... .. . ... ...
ROW 18 : G-1 00 F ... ... ... : G-4 00 4 ... ... ... : F#3 00 . ... : 9-# 00 9 ... : ... .. . ... ... : F-3 01 3 ... ... : G#3 01 3 ... ... : D#2 01 5 ... ...
ROW 19 : ... .. E ... ... ... : ... .. 3 ... ... ... : G#2 00 . ... : ... .. . ... : ... .. . ... ... : ... .. . ... ... : ... .. . ... ... : ... .. 4 ... ...
ROW 1A : ... .. D ... ... ... : ... .. . ... ... ... : C#2 00 . ... : ... .. 8 ... : ... .. . ... ... : ... .. 2 ... ... : ... .. 2 ... ... : ... .. 2 ... ...
ROW 1B : ... .. A ... ... ... : ... .. . ... ... ... : C-2 00 . ... : ... .. . ... : ... .. . ... ... : ... .. . ... ... : ... .. . ... ... : ... .. . ... ...
ROW 1C : ... .. . ... ... ... : C-4 00 5 ... ... ... : G-1 00 . ... : ... .. . ... : ... .. . ... ... : ... .. . ... ... : ... .. . ... ... : F-2 01 5 ... ...
ROW 1D : ... .. . ... ... ... : ... .. 4 ... ... ... : ... .. . ... : ... .. 7 ... : ... .. . ... ... : ... .. . ... ... : ... .. . ... ... : ... .. 4 ... ...
ROW 1E : ... .. . ... ... ... : ... .. . ... ... ... : ... .. . ... : ... .. . ... : ... .. . ... ... : ... .. . ... ... : ... .. . ... ... : ... .. 2 ... ...
ROW 1F : ... .. . ... ... ... : ... .. . ... ... ... : ... .. . ... : ... .. . ... : ... .. . ... ... : ... .. 1 ... ... : ... .. 1 ... ... : ... .. . ... ...
ROW 20 : ... .. . ... ... ... : G#3 00 5 ... ... ... : ... .. . ... : ... .. 6 ... : ... .. . ... ... : ... .. 2 ... ... : ... .. 2 ... ... : C#2 01 6 ... ...
ROW 21 : ... .. . ... ... ... : ... .. 4 ... ... ... : ... .. . ... : ... .. . ... : ... .. . ... ... : ... .. . ... ... : ... .. . ... ... : ... .. 5 ... ...
ROW 22 : ... .. . ... ... ... : ... .. . ... ... ... : ... .. . ... : ... .. 5 ... : ... .. . ... ... : ... .. . ... ... : ... .. . ... ... : ... .. 3 ... ...
ROW 23 : ... .. . ... ... ... : ... .. . ... ... ... : ... .. . ... : ... .. . ... : ... .. . ... ... : ... .. . ... ... : ... .. . ... ... : ... .. . ... ...
ROW 24 : ... .. . ... ... ... : F-3 00 5 ... ... ... : ... .. . ... : ... .. . ... : ... .. . ... ... : ... .. . ... ... : ... .. . ... ... : D#2 01 6 ... ...
ROW 25 : ... .. . ... ... ... : ... .. 4 ... ... ... : ... .. . ... : ... .. 4 ... : ... .. . ... ... : ... .. . ... ... : ... .. . ... ... : ... .. 5 ... ...
ROW 26 : ... .. . ... ... ... : ... .. . ... ... ... : ... .. . ... : ... .. . ... : ... .. . ... ... : ... .. . ... ... : ... .. . ... ... : ... .. 3 ... ...
ROW 27 : ... .. . ... ... ... : ... .. . ... ... ... : ... .. . ... : ... .. . ... : ... .. . ... ... : ... .. . ... ... : ... .. . ... ... : ... .. . ... ...
ROW 28 : ... .. . ... ... ... : C-3 00 6 ... ... ... : ... .. . ... : ... .. 3 ... : ... .. . ... ... : ... .. . ... ... : ... .. . ... ... : F-2 01 6 ... ...
ROW 29 : ... .. . ... ... ... : ... .. 5 ... ... ... : ... .. . ... : ... .. . ... : ... .. . ... ... : ... .. . ... ... : ... .. . ... ... : ... .. 5 ... ...
ROW 2A : ... .. . ... ... ... : ... .. . ... ... ... : ... .. . ... : ... .. 2 ... : ... .. . ... ... : ... .. . ... ... : ... .. . ... ... : ... .. 3 ... ...
ROW 2B : ... .. . ... ... ... : ... .. 4 ... ... ... : ... .. . ... : ... .. . ... : ... .. . ... ... : ... .. . ... ... : ... .. . ... ... : ... .. . ... ...
ROW 2C : ... .. . ... ... ... : G#2 00 6 ... ... ... : ... .. . ... : ... .. . ... : ... .. . ... ... : ... .. . ... ... : ... .. . ... ... : G-2 01 6 ... ...
ROW 2D : ... .. . ... ... ... : ... .. 5 ... ... ... : ... .. . ... : ... .. 1 ... : ... .. . ... ... : ... .. . ... ... : ... .. . ... ... : ... .. 5 ... ...
ROW 2E : ... .. . ... ... ... : ... .. . ... ... ... : ... .. . ... : ... .. . ... : ... .. . ... ... : ... .. . ... ... : ... .. . ... ... : ... .. 3 ... ...
ROW 2F : ... .. . ... ... ... : ... .. 4 ... ... ... : ... .. . ... : ... .. . ... : ... .. . ... ... : ... .. . ... ... : ... .. . ... ... : ... .. . ... ...
ROW 30 : G#1 00 F ... ... ... : G#4 00 6 ... ... ... : G-3 00 . ... : B-# 00 9 ... : ... .. . ... ... : G#3 01 4 ... ... : C-4 01 4 ... ... : G#2 01 7 ... ...
ROW 31 : ... .. E ... ... ... : ... .. 5 ... ... ... : A-2 00 . ... : ... .. . ... : ... .. . ... ... : ... .. . ... ... : ... .. . ... ... : ... .. 6 ... ...
ROW 32 : ... .. D ... ... ... : ... .. . ... ... ... : D-2 00 . ... : ... .. 8 ... : ... .. . ... ... : ... .. 3 ... ... : ... .. 3 ... ... : ... .. 3 ... ...
ROW 33 : ... .. A ... ... ... : ... .. 4 ... ... ... : C#2 00 . ... : ... .. . ... : ... .. . ... ... : ... .. . ... ... : ... .. . ... ... : ... .. . ... ...
ROW 34 : ... .. . ... ... ... : F-4 00 6 ... ... ... : G#1 00 . ... : ... .. . ... : ... .. . ... ... : ... .. . ... ... : ... .. . ... ... : A#2 01 7 ... ...
ROW 35 : ... .. . ... ... ... : ... .. 5 ... ... ... : ... .. . ... : ... .. 7 ... : ... .. . ... ... : ... .. 2 ... ... : ... .. 2 ... ... : ... .. 6 ... ...
ROW 36 : ... .. . ... ... ... : ... .. . ... ... ... : ... .. . ... : ... .. . ... : ... .. . ... ... : ... .. . ... ... : ... .. . ... ... : ... .. 3 ... ...
ROW 37 : ... .. . ... ... ... : ... .. . ... ... ... : ... .. . ... : ... .. . ... : ... .. . ... ... : ... .. . ... ... : ... .. . ... ... : ... .. . ... ...
ROW 38 : ... .. . ... ... ... : C-4 00 6 ... ... ... : ... .. . ... : ... .. 6 ... : ... .. . ... ... : ... .. . ... ... : ... .. . ... ... : C-3 01 7 ... ...
ROW 39 : ... .. . ... ... ... : ... .. 5 ... ... ... : ... .. . ... : ... .. . ... : ... .. . ... ... : ... .. . ... ... : ... .. . ... ... : ... .. 6 ... ...
ROW 3A : ... .. . ... ... ... : ... .. . ... ... ... : ... .. . ... : ... .. 5 ... : ... .. . ... ... : ... .. . ... ... : ... .. . ... ... : ... .. 3 ... ...
ROW 3B : ... .. . ... ... ... : ... .. . ... ... ... : ... .. . ... : ... .. . ... : ... .. . ... ... : ... .. . ... ... : ... .. . ... ... : ... .. . ... ...
ROW 3C : ... .. . ... ... ... : G#3 00 6 ... ... ... : ... .. . ... : ... .. . ... : ... .. . ... ... : ... .. . ... ... : ... .. . ... ... : C#3 01 7 ... ...
ROW 3D : ... .. . ... ... ... : ... .. 5 ... ... ... : ... .. . ... : ... .. 4 ... : ... .. . ... ... : ... .. . ... ... : ... .. . ... ... : ... .. 6 ... ...
ROW 3E : ... .. . ... ... ... : ... .. . ... ... ... : ... .. . ... : ... .. . ... : ... .. . ... ... : ... .. . ... ... : ... .. . ... ... : ... .. 4 ... ...
ROW 3F : ... .. . ... ... ... : ... .. . ... ... ... : ... .. . ... : ... .. . ... : ... .. . ... ... : ... .. . ... ... : ... .. . ... ... : ... .. . ... ...
ROW 40 : ... .. . ... ... ... : F-3 00 6 ... ... ... : ... .. . ... : ... .. 3 ... : ... .. . ... ... : ... .. . ... ... : ... .. . ... ... : D#3 01 8 ... ...
ROW 41 : ... .. . ... ... ... : ... .. 5 ... ... ... : ... .. . ... : ... .. . ... : ... .. . ... ... : ... .. . ... ... : ... .. . ... ... : ... .. 6 ... ...
ROW 42 : ... .. . ... ... ... : ... .. 6 ... ... ... : ... .. . ... : ... .. 2 ... : ... .. . ... ... : ... .. . ... ... : ... .. . ... ... : ... .. 4 ... ...
ROW 43 : ... .. . ... ... ... : ... .. . ... ... ... : ... .. . ... : ... .. . ... : ... .. . ... ... : ... .. . ... ... : ... .. . ... ... : ... .. . ... ...
ROW 44 : ... .. . ... ... ... : C-3 00 7 ... ... ... : ... .. . ... : ... .. . ... : ... .. . ... ... : ... .. . ... ... : ... .. . ... ... : F-3 01 8 ... ...
ROW 45 : ... .. . ... ... ... : ... .. 6 ... ... ... : ... .. . ... : ... .. 1 ... : ... .. . ... ... : ... .. . ... ... : ... .. . ... ... : ... .. 6 ... ...
ROW 46 : ... .. . ... ... ... : ... .. . ... ... ... : ... .. . ... : ... .. . ... : ... .. . ... ... : ... .. . ... ... : ... .. . ... ... : ... .. 4 ... ...
ROW 47 : ... .. . ... ... ... : ... .. . ... ... ... : ... .. . ... : ... .. . ... : ... .. . ... ... : ... .. . ... ... : ... .. . ... ... : ... .. . ... ...
ROW 48 : C-2 00 F ... ... ... : C-5 00 7 ... ... ... : B-3 00 . ... : C-# 00 B ... : ... .. . ... ... : C-4 01 5 ... ... : F-4 01 5 ... ... : G-3 01 8 ... ...
ROW 49 : ... .. E ... ... ... : ... .. 6 ... ... ... : C#3 00 . ... : ... .. . ... : ... .. . ... ... : ... .. 4 ... ... : ... .. 4 ... ... : ... .. 6 ... ...
ROW 4A : ... .. D ... ... ... : ... .. . ... ... ... : F#2 00 . ... : ... .. A ... : ... .. . ... ... : ... .. . ... ... : ... .. . ... ... : ... .. 4 ... ...
ROW 4B : ... .. A ... ... ... : ... .. . ... ... ... : F-2 00 . ... : ... .. . ... : ... .. . ... ... : ... .. 3 ... ... : ... .. 3 ... ... : ... .. . ... ...
ROW 4C : ... .. . ... ... ... : G#4 00 7 ... ... ... : C-2 00 . ... : ... .. . ... : ... .. . ... ... : ... .. . ... ... : ... .. . ... ... : G#3 01 8 ... ...
ROW 4D : ... .. . ... ... ... : ... .. 6 ... ... ... : ... .. . ... : ... .. 9 ... : ... .. . ... ... : ... .. . ... ... : ... .. . ... ... : ... .. 6 ... ...
ROW 4E : ... .. . ... ... ... : ... .. . ... ... ... : ... .. . ... : ... .. . ... : ... .. . ... ... : ... .. . ... ... : ... .. . ... ... : ... .. 4 ... ...
ROW 4F : ... .. . ... ... ... : ... .. . ... ... ... : ... .. . ... : ... .. . ... : ... .. . ... ... : ... .. . ... ... : ... .. . ... ... : ... .. . ... ...
ROW 50 : ... .. . ... ... ... : F-4 00 8 ... ... ... : ... .. . ... : ... .. 8 ... : ... .. . ... ... : ... .. . ... ... : ... .. . ... ... : F-3 01 9 ... ...
ROW 51 : ... .. . ... ... ... : ... .. 7 ... ... ... : ... .. . ... : ... .. . ... : ... .. . ... ... : ... .. . ... ... : ... .. . ... ... : ... .. 7 ... ...
ROW 52 : ... .. . ... ... ... : ... .. . ... ... ... : ... .. . ... : ... .. 7 ... : ... .. . ... ... : ... .. . ... ... : ... .. . ... ... : ... .. 4 ... ...
ROW 53 : ... .. . ... ... ... : ... .. 6 ... ... ... : ... .. . ... : ... .. . ... : ... .. . ... ... : ... .. . ... ... : ... .. . ... ... : ... .. . ... ...
ROW 54 : ... .. . ... ... ... : C-4 00 8 ... ... ... : ... .. . ... : ... .. . ... : ... .. . ... ... : ... .. . ... ... : ... .. . ... ... : G-3 01 9 ... ...
ROW 55 : ... .. . ... ... ... : ... .. 7 ... ... ... : ... .. . ... : ... .. 6 ... : ... .. . ... ... : ... .. . ... ... : ... .. . ... ... : ... .. 7 ... ...
ROW 56 : ... .. . ... ... ... : ... .. . ... ... ... : ... .. . ... : ... .. . ... : ... .. . ... ... : ... .. . ... ... : ... .. . ... ... : ... .. 4 ... ...
ROW 57 : ... .. . ... ... ... : ... .. 6 ... ... ... : ... .. . ... : ... .. . ... : ... .. . ... ... : ... .. . ... ... : ... .. . ... ... : ... .. . ... ...
ROW 58 : ... .. . ... ... ... : F-3 00 8 ... ... ... : ... .. . ... : ... .. 5 ... : ... .. . ... ... : ... .. . ... ... : ... .. . ... ... : G#3 01 9 ... ...
ROW 59 : ... .. . ... ... ... : ... .. 7 ... ... ... : ... .. . ... : ... .. . ... : ... .. . ... ... : ... .. . ... ... : ... .. . ... ... : ... .. 7 ... ...
ROW 5A : ... .. . ... ... ... : ... .. . ... ... ... : ... .. . ... : ... .. 4 ... : ... .. . ... ... : ... .. . ... ... : ... .. . ... ... : ... .. 4 ... ...
ROW 5B : ... .. . ... ... ... : ... .. 6 ... ... ... : ... .. . ... : ... .. . ... : ... .. . ... ... : ... .. . ... ... : ... .. . ... ... : ... .. . ... ...
ROW 5C : ... .. . ... ... ... : C-3 00 9 ... ... ... : ... .. . ... : ... .. . ... : ... .. . ... ... : ... .. . ... ... : ... .. . ... ... : A#3 01 A ... ...
ROW 5D : ... .. . ... ... ... : ... .. 8 ... ... ... : ... .. . ... : ... .. 3 ... : ... .. . ... ... : ... .. . ... ... : ... .. . ... ... : ... .. 8 ... ...
ROW 5E : ... .. . ... ... ... : ... .. . ... ... ... : ... .. . ... : ... .. . ... : ... .. . ... ... : ... .. . ... ... : ... .. . ... ... : ... .. 5 ... ...
ROW 5F : ... .. . ... ... ... : ... .. 7 ... ... ... : ... .. . ... : ... .. . ... : ... .. . ... ... : ... .. . ... ... : ... .. . ... ... : ... .. . ... ...
ROW 60 : B-1 00 F ... ... ... : D-5 00 9 ... ... ... : A#3 00 . ... : 9-# 00 9 ... : ... .. . ... ... : B-3 01 6 ... ... : F#4 01 6 ... ... : B-3 01 A ... ...
ROW 61 : ... .. E ... ... ... : ... .. 8 ... ... ... : C-3 00 . ... : ... .. . ... : ... .. . ... ... : ... .. . ... ... : ... .. . ... ... : ... .. 8 ... ...
ROW 62 : ... .. D ... ... ... : ... .. . ... ... ... : F-2 00 . ... : ... .. 8 ... : ... .. . ... ... : ... .. 5 ... ... : ... .. 5 ... ... : ... .. 5 ... ...
ROW 63 : ... .. A ... ... ... : ... .. 7 ... ... ... : E-2 00 . ... : ... .. . ... : ... .. . ... ... : ... .. 4 ... ... : ... .. 4 ... ... : ... .. . ... ...
ROW 64 : ... .. . ... ... ... : B-4 00 9 ... ... ... : B-1 00 . ... : ... .. . ... : ... .. . ... ... : ... .. . ... ... : ... .. . ... ... : C#4 01 A ... ...
ROW 65 : ... .. . ... ... ... : ... .. 8 ... ... ... : ... .. . ... : ... .. 7 ... : ... .. . ... ... : ... .. . ... ... : ... .. . ... ... : ... .. 8 ... ...
ROW 66 : ... .. . ... ... ... : ... .. . ... ... ... : ... .. . ... : ... .. . ... : ... .. . ... ... : ... .. . ... ... : ... .. . ... ... : ... .. 5 ... ...
ROW 67 : ... .. . ... ... ... : ... .. 7 ... ... ... : ... .. . ... : ... .. . ... : ... .. . ... ... : ... .. 3 ... ... : ... .. 3 ... ... : ... .. . ... ...
ROW 68 : ... .. . ... ... ... : F#4 00 9 ... ... ... : ... .. . ... : ... .. 6 ... : ... .. . ... ... : ... .. . ... ... : ... .. . ... ... : D-4 01 A ... ...
ROW 69 : ... .. . ... ... ... : ... .. 8 ... ... ... : ... .. . ... : ... .. . ... : ... .. . ... ... : ... .. . ... ... : ... .. . ... ... : ... .. 8 ... ...
ROW 6A : ... .. . ... ... ... : ... .. . ... ... ... : ... .. . ... : ... .. 5 ... : ... .. . ... ... : ... .. . ... ... : ... .. . ... ... : ... .. 5 ... ...
ROW 6B : ... .. . ... ... ... : ... .. . ... ... ... : ... .. . ... : ... .. . ... : ... .. . ... ... : ... .. . ... ... : ... .. . ... ... : ... .. . ... ...
ROW 6C : ... .. . ... ... ... : D-4 00 A ... ... ... : ... .. . ... : ... .. . ... : ... .. . ... ... : ... .. . ... ... : ... .. . ... ... : E-4 01 B ... ...
ROW 6D : ... .. . ... ... ... : ... .. 8 ... ... ... : ... .. . ... : ... .. 4 ... : ... .. . ... ... : ... .. . ... ... : ... .. . ... ... : ... .. 9 ... ...
ROW 6E : ... .. . ... ... ... : ... .. . ... ... ... : ... .. . ... : ... .. . ... : ... .. . ... ... : ... .. . ... ... : ... .. . ... ... : ... .. 5 ... ...
ROW 6F : ... .. . ... ... ... : ... .. . ... ... ... : ... .. . ... : ... .. . ... : ... .. . ... ... : ... .. . ... ... : ... .. . ... ... : ... .. . ... ...
ROW 70 : ... .. . ... ... ... : B-3 00 A ... ... ... : ... .. . ... : ... .. 3 ... : ... .. . ... ... : ... .. . ... ... : ... .. . ... ... : C#4 01 B ... ...
ROW 71 : ... .. . ... ... ... : ... .. 8 ... ... ... : ... .. . ... : ... .. . ... : ... .. . ... ... : ... .. . ... ... : ... .. . ... ... : ... .. 9 ... ...
ROW 72 : ... .. . ... ... ... : ... .. . ... ... ... : ... .. . ... : ... .. 2 ... : ... .. . ... ... : ... .. . ... ... : ... .. . ... ... : ... .. 5 ... ...
ROW 73 : ... .. . ... ... ... : ... .. . ... ... ... : ... .. . ... : ... .. . ... : ... .. . ... ... : ... .. . ... ... : ... .. . ... ... : ... .. . ... ...
ROW 74 : ... .. . ... ... ... : F#3 00 A ... ... ... : ... .. . ... : ... .. . ... : ... .. . ... ... : ... .. . ... ... : ... .. . ... ... : D-4 01 B ... ...
ROW 75 : ... .. . ... ... ... : ... .. 8 ... ... ... : ... .. . ... : ... .. 1 ... : ... .. . ... ... : ... .. . ... ... : ... .. . ... ... : ... .. 9 ... ...
ROW 76 : ... .. . ... ... ... : ... .. 9 ... ... ... : ... .. . ... : ... .. . ... : ... .. . ... ... : ... .. . ... ... : ... .. . ... ... : ... .. 5 ... ...
ROW 77 : ... .. . ... ... ... : ... .. 8 ... ... ... : ... .. . ... : ... .. . ... : ... .. . ... ... : ... .. . ... ... : ... .. . ... ... : ... .. . ... ...
ROW 78 : C#2 00 F ... ... ... : E-5 00 B ... ... ... : C-4 00 . ... : B-# 00 9 ... : ... .. . ... ... : D-4 01 7 ... ... : B-4 01 7 ... ... : E-4 01 B ... ...
ROW 79 : ... .. E ... ... ... : ... .. 9 ... ... ... : D-3 00 . ... : ... .. . ... : ... .. . ... ... : ... .. 6 ... ... : ... .. 6 ... ... : ... .. 9 ... ...
ROW 7A : ... .. D ... ... ... : ... .. . ... ... ... : G-2 00 . ... : ... .. 8 ... : ... .. . ... ... : ... .. 5 ... ... : ... .. 5 ... ... : ... .. 5 ... ...
ROW 7B : ... .. A ... ... ... : ... .. 8 ... ... ... : F#2 00 . ... : ... .. . ... : ... .. . ... ... : ... .. . ... ... : ... .. . ... ... : ... .. . ... ...
ROW 7C : ... .. . ... ... ... : B-4 00 B ... ... ... : C#2 00 . ... : ... .. . ... : ... .. . ... ... : ... .. . ... ... : ... .. . ... ... : F#4 01 C ... ...
ROW 7D : ... .. . ... ... ... : ... .. 9 ... ... ... : ... .. . ... : ... .. 7 ... : ... .. . ... ... : ... .. 4 ... ... : ... .. 4 ... ... : ... .. A ... ...
ROW 7E : ... .. . ... ... ... : ... .. . ... ... ... : ... .. . ... : ... .. . ... : ... .. . ... ... : ... .. . ... ... : ... .. . ... ... : ... .. 6 ... ...
ROW 7F : ... .. . ... ... ... : ... .. 8 ... ... ... : ... .. . ... : ... .. . ... : ... .. . ... ... : ... .. . ... ... : ... .. . ... ... : ... .. . ... ...
ROW 80 : ... .. . ... ... ... : F#4 00 B ... ... ... : ... .. . ... : ... .. 6 ... : ... .. . ... ... : ... .. . ... ... : ... .. . ... ... : D-4 01 C ... ...
ROW 81 : ... .. . ... ... ... : ... .. 9 ... ... ... : ... .. . ... : ... .. . ... : ... .. . ... ... : ... .. . ... ... : ... .. . ... ... : ... .. A ... ...
ROW 82 : ... .. . ... ... ... : ... .. . ... ... ... : ... .. . ... : ... .. 5 ... : ... .. . ... ... : ... .. . ... ... : ... .. . ... ... : ... .. 6 ... ...
ROW 83 : ... .. . ... ... ... : ... .. 8 ... ... ... : ... .. . ... : ... .. . ... : ... .. . ... ... : ... .. . ... ... : ... .. . ... ... : ... .. . ... ...
ROW 84 : ... .. . ... ... ... : D-4 00 C ... ... ... : ... .. . ... : ... .. . ... : ... .. . ... ... : ... .. . ... ... : ... .. . ... ... : E-4 01 C ... ...
ROW 85 : ... .. . ... ... ... : ... .. A ... ... ... : ... .. . ... : ... .. 4 ... : ... .. . ... ... : ... .. . ... ... : ... .. . ... ... : ... .. A ... ...
ROW 86 : ... .. . ... ... ... : ... .. . ... ... ... : ... .. . ... : ... .. . ... : ... .. . ... ... : ... .. . ... ... : ... .. . ... ... : ... .. 6 ... ...
ROW 87 : ... .. . ... ... ... : ... .. 9 ... ... ... : ... .. . ... : ... .. . ... : ... .. . ... ... : ... .. . ... ... : ... .. . ... ... : ... .. . ... ...
ROW 88 : ... .. . ... ... ... : B-3 00 C ... ... ... : ... .. . ... : ... .. 3 ... : ... .. . ... ... : ... .. . ... ... : ... .. . ... ... : F#4 01 C ... ...
ROW 89 : ... .. . ... ... ... : ... .. A ... ... ... : ... .. . ... : ... .. . ... : ... .. . ... ... : ... .. . ... ... : ... .. . ... ... : ... .. A ... ...
ROW 8A : ... .. . ... ... ... : ... .. . ... ... ... : ... .. . ... : ... .. 2 ... : ... .. . ... ... : ... .. . ... ... : ... .. . ... ... : ... .. 6 ... ...
ROW 8B : ... .. . ... ... ... : ... .. 9 ... ... ... : ... .. . ... : ... .. . ... : ... .. . ... ... : ... .. . ... ... : ... .. . ... ... : ... .. . ... ...
ROW 8C : ... .. . ... ... ... : F#3 00 C ... ... ... : ... .. . ... : ... .. . ... : ... .. . ... ... : ... .. . ... ... : ... .. . ... ... : G#4 01 D ... ...
ROW 8D : ... .. . ... ... ... : ... .. A ... ... ... : ... .. . ... : ... .. 1 ... : ... .. . ... ... : ... .. . ... ... : ... .. . ... ... : ... .. B ... ...
ROW 8E : ... .. . ... ... ... : ... .. . ... ... ... : ... .. . ... : ... .. . ... : ... .. . ... ... : ... .. . ... ... : ... .. . ... ... : ... .. 6 ... ...
ROW 8F : ... .. . ... ... ... : ... .. 9 ... ... ... : ... .. . ... : ... .. . ... : ... .. . ... ... : ... .. . ... ... : ... .. . ... ... : ... .. . ... ...
ROW 90 : D-2 00 F ... ... ... : F#5 00 D ... ... ... : C#4 00 . ... : C-# 00 B ... : ... .. . ... ... : F#4 01 8 ... ... : D-5 01 8 ... ... : F#4 01 D ... ...
ROW 91 : ... .. E ... ... ... : ... .. B ... ... ... : D#3 00 . ... : ... .. . ... : ... .. . ... ... : ... .. 7 ... ... : ... .. 7 ... ... : ... .. B ... ...
ROW 92 : ... .. D ... ... ... : ... .. . ... ... ... : G#2 00 . ... : ... .. A ... : ... .. . ... ... : ... .. 6 ... ... : ... .. 6 ... ... : ... .. 6 ... ...
ROW 93 : ... .. A ... ... ... : ... .. A ... ... ... : G-2 00 . ... : ... .. . ... : ... .. . ... ... : ... .. . ... ... : ... .. . ... ... : ... .. . ... ...
ROW 94 : ... .. . ... ... ... : D-5 00 D ... ... ... : D-2 00 . ... : ... .. . ... : ... .. . ... ... : ... .. . ... ... : ... .. . ... ... : G#4 01 D ... ...
ROW 95 : ... .. . ... ... ... : ... .. B ... ... ... : ... .. . ... : ... .. 9 ... : ... .. . ... ... : ... .. 5 ... ... : ... .. 5 ... ... : ... .. B ... ...
ROW 96 : ... .. . ... ... ... : ... .. . ... ... ... : ... .. . ... : ... .. . ... : ... .. . ... ... : ... .. . ... ... : ... .. . ... ... : ... .. 6 ... ...
ROW 97 : ... .. . ... ... ... : ... .. A ... ... ... : ... .. . ... : ... .. . ... : ... .. . ... ... : ... .. 4 ... ... : ... .. 4 ... ... : ... .. . ... ...
ROW 98 : ... .. . ... ... ... : B-4 00 D ... ... ... : ... .. . ... : ... .. 8 ... : ... .. . ... ... : ... .. . ... ... : ... .. . ... ... : A#4 01 D ... ...
ROW 99 : ... .. . ... ... ... : ... .. B ... ... ... : ... .. . ... : ... .. . ... : ... .. . ... ... : ... .. . ... ... : ... .. . ... ... : ... .. B ... ...
ROW 9A : ... .. . ... ... ... : ... .. . ... ... ... : ... .. . ... : ... .. 7 ... : ... .. . ... ... : ... .. . ... ... : ... .. . ... ... : ... .. 7 ... ...
ROW 9B : ... .. . ... ... ... : ... .. A ... ... ... : ... .. . ... : ... .. . ... : ... .. . ... ... : ... .. . ... ... : ... .. . ... ... : ... .. . ... ...
ROW 9C : ... .. . ... ... ... : F#4 00 D ... ... ... : ... .. . ... : ... .. . ... : ... .. . ... ... : ... .. . ... ... : ... .. . ... ... : B-4 01 E ... ...
ROW 9D : ... .. . ... ... ... : ... .. B ... ... ... : ... .. . ... : ... .. 6 ... : ... .. . ... ... : ... .. . ... ... : ... .. . ... ... : ... .. C ... ...
ROW 9E : ... .. . ... ... ... : ... .. . ... ... ... : ... .. . ... : ... .. . ... : ... .. . ... ... : ... .. . ... ... : ... .. . ... ... : ... .. 7 ... ...
ROW 9F : ... .. . ... ... ... : ... .. A ... ... ... : ... .. . ... : ... .. . ... : ... .. . ... ... : ... .. . ... ... : ... .. . ... ... : ... .. . ... ...
ROW A0 : ... .. . ... ... ... : D-4 00 D ... ... ... : ... .. . ... : ... .. 5 ... : ... .. . ... ... : ... .. . ... ... : ... .. . ... ... : C#5 01 E ... ...
ROW A1 : ... .. . ... ... ... : ... .. B ... ... ... : ... .. . ... : ... .. . ... : ... .. . ... ... : ... .. . ... ... : ... .. . ... ... : ... .. C ... ...
ROW A2 : ... .. . ... ... ... : ... .. . ... ... ... : ... .. . ... : ... .. 4 ... : ... .. . ... ... : ... .. . ... ... : ... .. . ... ... : ... .. 7 ... ...
ROW A3 : ... .. . ... ... ... : ... .. A ... ... ... : ... .. . ... : ... .. . ... : ... .. . ... ... : ... .. . ... ... : ... .. . ... ... : ... .. . ... ...
ROW A4 : ... .. . ... ... ... : B-3 00 D ... ... ... : ... .. . ... : ... .. . ... : ... .. . ... ... : ... .. . ... ... : ... .. . ... ... : D-5 01 E ... ...
ROW A5 : ... .. . ... ... ... : ... .. B ... ... ... : ... .. . ... : ... .. 3 ... : ... .. . ... ... : ... .. . ... ... : ... .. . ... ... : ... .. C ... ...
ROW A6 : ... .. . ... ... ... : ... .. . ... ... ... : ... .. . ... : ... .. . ... : ... .. . ... ... : ... .. . ... ... : ... .. . ... ... : ... .. 7 ... ...
ROW A7 : ... .. . ... ... ... : ... .. A ... ... ... : ... .. . ... : ... .. . ... : ... .. . ... ... : ... .. . ... ... : ... .. . ... ... : ... .. . ... ...
ROW A8 : F#2 00 F ... ... ... : G#5 00 D ... ... ... : F-4 00 . ... : D-# 00 D ... : ... .. . ... ... : B-4 01 A ... ... : F#5 01 A ... ... : B-4 01 F ... ...
ROW A9 : ... .. E ... ... ... : ... .. B ... ... ... : G-3 00 . ... : ... .. . ... : ... .. . ... ... : ... .. 9 ... ... : ... .. 9 ... ... : ... .. D ... ...
ROW AA : ... .. D ... ... ... : ... .. . ... ... ... : C-3 00 . ... : ... .. C ... : ... .. . ... ... : ... .. 8 ... ... : ... .. 8 ... ... : ... .. 7 ... ...
ROW AB : ... .. A ... ... ... : ... .. A ... ... ... : B-2 00 . ... : ... .. . ... : ... .. . ... ... : ... .. 7 ... ... : ... .. 7 ... ... : ... .. . ... ...
ROW AC : ... .. . ... ... ... : F#5 00 D ... ... ... : F#2 00 . ... : ... .. . ... : ... .. . ... ... : ... .. . ... ... : ... .. . ... ... : C#5 01 D ... ...
ROW AD : ... .. . ... ... ... : ... .. B ... ... ... : ... .. . ... : ... .. B ... : ... .. . ... ... : ... .. 6 ... ... : ... .. 6 ... ... : ... .. B ... ...
ROW AE : ... .. . ... ... ... : ... .. . ... ... ... : ... .. . ... : ... .. . ... : ... .. . ... ... : ... .. . ... ... : ... .. . ... ... : ... .. 6 ... ...
ROW AF : ... .. . ... ... ... : ... .. A ... ... ... : ... .. . ... : ... .. . ... : ... .. . ... ... : ... .. 5 ... ... : ... .. 5 ... ... : ... .. . ... ...
ROW B0 : ... .. . ... ... ... : D-5 00 D ... ... ... : ... .. . ... : ... .. A ... : ... .. . ... ... : ... .. . ... ... : ... .. . ... ... : D-5 01 C ... ...
ROW B1 : ... .. . ... ... ... : ... .. B ... ... ... : ... .. . ... : ... .. . ... : ... .. . ... ... : ... .. . ... ... : ... .. . ... ... : ... .. A ... ...
ROW B2 : ... .. . ... ... ... : ... .. . ... ... ... : ... .. . ... : ... .. 9 ... : ... .. . ... ... : ... .. . ... ... : ... .. . ... ... : ... .. 6 ... ...
ROW B3 : ... .. . ... ... ... : ... .. A ... ... ... : ... .. . ... : ... .. . ... : ... .. . ... ... : ... .. . ... ... : ... .. . ... ... : ... .. . ... ...
ROW B4 : ... .. . ... ... ... : B-4 00 D ... ... ... : ... .. . ... : ... .. . ... : ... .. . ... ... : ... .. . ... ... : ... .. . ... ... : E-5 01 B ... ...
ROW B5 : ... .. . ... ... ... : ... .. B ... ... ... : ... .. . ... : ... .. 8 ... : ... .. . ... ... : ... .. . ... ... : ... .. . ... ... : ... .. 9 ... ...
ROW B6 : ... .. . ... ... ... : ... .. . ... ... ... : ... .. . ... : ... .. . ... : ... .. . ... ... : ... .. . ... ... : ... .. . ... ... : ... .. 5 ... ...
ROW B7 : ... .. . ... ... ... : ... .. A ... ... ... : ... .. . ... : ... .. . ... : ... .. . ... ... : ... .. . ... ... : ... .. . ... ... : ... .. . ... ...
ROW B8 : ... .. . ... ... ... : F#4 00 D ... ... ... : ... .. . ... : ... .. 7 ... : ... .. . ... ... : ... .. . ... ... : ... .. . ... ... : F#5 01 A ... ...
ROW B9 : ... .. . ... ... ... : ... .. B ... ... ... : ... .. . ... : ... .. . ... : ... .. . ... ... : ... .. . ... ... : ... .. . ... ... : ... .. 8 ... ...
ROW BA : ... .. . ... ... ... : ... .. . ... ... ... : ... .. . ... : ... .. 6 ... : ... .. . ... ... : ... .. . ... ... : ... .. . ... ... : ... .. 4 ... ...
ROW BB : ... .. . ... ... ... : ... .. A ... ... ... : ... .. . ... : ... .. . ... : ... .. . ... ... : ... .. . ... ... : ... .. . ... ... : ... .. . ... ...
ROW BC : ... .. . ... ... ... : D-4 00 D ... ... ... : ... .. . ... : ... .. . ... : ... .. . ... ... : ... .. . ... ... : ... .. . ... ... : G#5 01 9 ... ...
ROW BD : ... .. . ... ... ... : ... .. B ... ... ... : ... .. . ... : ... .. 5 ... : ... .. . ... ... : ... .. . ... ... : ... .. . ... ... : ... .. 7 ... ...
ROW BE : ... .. . ... ... ... : ... .. . ... ... ... : ... .. . ... : ... .. . ... : ... .. . ... ... : ... .. . ... ... : ... .. . ... ... : ... .. 4 ... ...
ROW BF : ... .. . ... ... ... : ... .. A ... ... ... : ... .. . ... : ... .. . ... : ... .. . ... ... : ... .. . ... ... : ... .. . ... ... : ... .. . ... ...
ROW C0 : F-4 00 F ... ... ... : A-5 00 F ... ... ... : C#5 00 . ... : F-# 00 2 ... : ... .. . ... ... : D-4 01 8 ... ... : A-3 01 8 ... ... : F-3 01 8 ... ...
ROW C1 : ... .. E ... ... ... : ... .. E ... ... ... : D#4 00 . ... : ... .. . ... : ... .. . ... ... : ... .. 7 ... ... : ... .. 7 ... ... : ... .. 6 ... ...
ROW C2 : ... .. D ... ... ... : ... .. A ... ... ... : G#3 00 . ... : ... .. 3 ... : ... .. . ... ... : ... .. 6 ... ... : ... .. 6 ... ... : ... .. 4 ... ...
ROW C3 : ... .. A ... ... ... : ... .. 8 ... ... ... : G-3 00 . ... : ... .. . ... : ... .. . ... ... : ... .. 5 ... ... : ... .. 5 ... ... : ... .. . ... ...
ROW C4 : D-4 00 F ... ... ... : ... .. 6 ... ... ... : D-3 00 . ... : E-# 00 4 ... : ... .. . ... ... : ... .. 4 ... ... : ... .. 4 ... ... : ... .. . ... ...
ROW C5 : ... .. E ... ... ... : ... .. . ... ... ... : ... .. . ... : ... .. . ... : ... .. . ... ... : ... .. . ... ... : ... .. . ... ... : ... .. 2 ... ...
ROW C6 : ... .. D ... ... ... : ... .. 4 ... ... ... : ... .. . ... : ... .. 5 ... : ... .. . ... ... : ... .. 2 ... ... : ... .. 2 ... ... : ... .. . ... ...
ROW C7 : ... .. A ... ... ... : ... .. . ... ... ... : ... .. . ... : ... .. . ... : ... .. . ... ... : ... .. . ... ... : ... .. . ... ... : ... .. 1 ... ...
ROW C8 : A-3 00 F ... ... ... : ... .. 3 ... ... ... : C#5 00 . ... : D-# 00 6 ... : ... .. . ... ... : ... .. 8 ... ... : ... .. 8 ... ... : ... .. C ... ...
ROW C9 : ... .. E ... ... ... : ... .. . ... ... ... : D#4 00 . ... : ... .. . ... : ... .. . ... ... : ... .. 7 ... ... : ... .. 7 ... ... : ... .. A ... ...
ROW CA : ... .. D ... ... ... : ... .. 4 ... ... ... : G#3 00 . ... : ... .. 7 ... : ... .. . ... ... : ... .. 6 ... ... : ... .. 6 ... ... : ... .. 6 ... ...
ROW CB : ... .. A ... ... ... : ... .. . ... ... ... : G-3 00 . ... : ... .. . ... : ... .. . ... ... : ... .. 5 ... ... : ... .. 5 ... ... : ... .. . ... ...
ROW CC : F-3 00 F ... ... ... : ... .. . ... ... ... : D-3 00 . ... : C-# 00 8 ... : ... .. . ... ... : ... .. 4 ... ... : ... .. 4 ... ... : ... .. . ... ...
ROW CD : ... .. E ... ... ... : ... .. . ... ... ... : ... .. . ... : ... .. . ... : ... .. . ... ... : ... .. . ... ... : ... .. . ... ... : ... .. 3 ... ...
ROW CE : ... .. D ... ... ... : ... .. . ... ... ... : ... .. . ... : ... .. 9 ... : ... .. . ... ... : --- .. . ... ... : ... .. 2 ... ... : ... .. . ... ...
ROW CF : ... .. A ... ... ... : ... .. . ... ... ... : ... .. . ... : ... .. . ... : ... .. . ... ... : ... .. . ... ... : ... .. . ... ... : ... .. 1 ... ...
ROW D0 : D-3 00 F ... ... ... : ... .. 5 ... ... ... : C#4 00 . ... : B-# 00 A ... : ... .. . ... ... : D-2 01 A ... ... : D-1 01 A ... ... : ... .. . ... ...
ROW D1 : ... .. E ... ... ... : ... .. . ... ... ... : D#3 00 . ... : ... .. . ... : ... .. . ... ... : ... .. 9 ... ... : ... .. 9 ... ... : ... .. . ... ...
ROW D2 : ... .. D ... ... ... : ... .. . ... ... ... : G#2 00 . ... : ... .. 9 ... : ... .. . ... ... : ... .. 8 ... ... : ... .. 8 ... ... : ... .. . ... ...
ROW D3 : ... .. A ... ... ... : ... .. . ... ... ... : G-2 00 . ... : ... .. . ... : ... .. . ... ... : ... .. 7 ... ... : ... .. 7 ... ... : ... .. . ... ...
ROW D4 : A-2 00 F ... ... ... : ... .. 6 ... ... ... : D-2 00 . ... : A-# 00 8 ... : ... .. . ... ... : --- .. . P84 ... : --- .. . P7C ... : ... .. . ... ...
ROW D5 : ... .. E ... ... ... : ... .. . ... ... ... : ... .. . ... : ... .. . ... : ... .. . ... ... : ... .. . ... ... : ... .. . ... ... : ... .. . ... ...
ROW D6 : ... .. D ... ... ... : ... .. . ... ... ... : ... .. . ... : ... .. . ... : ... .. . ... ... : ... .. . ... ... : ... .. . ... ... : ... .. 0 ... ...
ROW D7 : ... .. A ... ... ... : ... .. . ... ... ... : ... .. . ... : ... .. . ... : ... .. . ... ... : ... .. . ... ... : ... .. . ... ... : ... .. . ... ...
ROW D8 : F-2 00 F ... ... ... : ... .. . ... ... ... : C#4 00 . ... : 9-# 00 7 ... : ... .. . ... ... : D-2 01 A P80 ... : D-1 01 A P80 ... : ... .. . ... ...
ROW D9 : ... .. E ... ... ... : ... .. . ... ... ... : D#3 00 . ... : ... .. . ... : ... .. . ... ... : ... .. 9 ... ... : ... .. 9 ... ... : ... .. . ... ...
ROW DA : ... .. D ... ... ... : ... .. 7 ... ... ... : G#2 00 . ... : ... .. . ... : ... .. . ... ... : ... .. 8 ... ... : ... .. 8 ... ... : ... .. . ... ...
ROW DB : ... .. A ... ... ... : ... .. . ... ... ... : G-2 00 . ... : ... .. . ... : ... .. . ... ... : ... .. 7 ... ... : ... .. 7 ... ... : ... .. . ... ...
ROW DC : D-2 00 F ... ... ... : ... .. 8 ... ... ... : D-2 00 . ... : 8-# 00 6 ... : ... .. . ... ... : --- .. . P84 ... : --- .. . P7C ... : ... .. . ... ...
ROW DD : ... .. E ... ... ... : ... .. . ... ... ... : ... .. . ... : ... .. . ... : ... .. . ... ... : ... .. . ... ... : ... .. . ... ... : ... .. . ... ...
ROW DE : ... .. D ... ... ... : ... .. . ... ... ... : ... .. . ... : ... .. . ... : ... .. . ... ... : ... .. . ... ... : ... .. . ... ... : ... .. . ... ...
ROW DF : ... .. A ... ... ... : ... .. . ... ... ... : ... .. . ... : ... .. . ... : ... .. . ... ... : ... .. . ... ... : ... .. . ... ... : ... .. . ... ...
ROW E0 : F-4 00 F ... ... ... : A#5 00 8 ... ... ... : C#5 00 . ... : 7-# 00 5 ... : ... .. . ... ... : D-4 01 8 P80 ... : A-3 01 8 P80 ... : ... .. C ... ...
ROW E1 : ... .. E ... ... ... : B-5 00 8 P7F ... ... : D#4 00 . ... : ... .. . ... : ... .. . ... ... : ... .. 7 ... ... : ... .. 7 ... ... : ... .. A ... ...
ROW E2 : ... .. D ... ... ... : A#5 00 9 P81 ... ... : G#3 00 . ... : ... .. 4 ... : ... .. . ... ... : ... .. 6 ... ... : ... .. 6 ... ... : ... .. 6 ... ...
ROW E3 : ... .. A ... ... ... : A-5 00 9 P82 ... ... : G-3 00 . ... : ... .. . ... : ... .. . ... ... : ... .. 5 ... ... : ... .. 5 ... ... : ... .. . ... ...
ROW E4 : D-4 00 F ... ... ... : G#5 00 A P81 ... ... : D-3 00 . ... : 5-# 00 4 ... : ... .. . ... ... : ... .. 4 ... ... : ... .. 4 ... ... : ... .. . ... ...
ROW E5 : ... .. E ... ... ... : G-5 00 A P82 ... ... : ... .. . ... : ... .. . ... : ... .. . ... ... : ... .. . ... ... : ... .. . ... ... : ... .. 3 ... ...
ROW E6 : ... .. D ... ... ... : ... .. . P81 ... ... : ... .. . ... : ... .. 3 ... : ... .. . ... ... : ... .. 2 ... ... : ... .. 2 ... ... : ... .. . ... ...
ROW E7 : ... .. A ... ... ... : G#5 00 A P7F ... ... : ... .. . ... : ... .. . ... : ... .. . ... ... : ... .. . ... ... : ... .. . ... ... : ... .. 1 ... ...
ROW E8 : A-3 00 F ... ... ... : A-5 00 A P80 ... ... : C#3 00 . P77 : 3-# 00 3 ... : ... .. . ... ... : ... .. 8 ... ... : ... .. 8 ... ... : ... .. C ... ...
ROW E9 : ... .. E ... ... ... : A#5 00 A P7F ... ... : B-2 00 . P88 : ... .. . ... : ... .. . ... ... : ... .. 7 ... ... : ... .. 7 ... ... : ... .. A ... ...
ROW EA : ... .. D ... ... ... : B-5 00 A ... ... ... : A#2 00 . P83 : ... .. 2 ... : ... .. . ... ... : ... .. 6 ... ... : ... .. 6 ... ... : ... .. 6 ... ...
ROW EB : ... .. A ... ... ... : ... .. . ... ... ... : A-2 00 . P7F : ... .. . ... : ... .. . ... ... : ... .. 5 ... ... : ... .. 5 ... ... : ... .. . ... ...
ROW EC : F-3 00 F ... ... ... : A-5 00 A P82 ... ... : G#2 00 . P7E : 2-# 00 2 ... : ... .. . ... ... : ... .. 4 ... ... : ... .. 4 ... ... : ... .. . ... ...
ROW ED : ... .. E ... ... ... : ... .. . P7F ... ... : G-2 00 . ... : ... .. . ... : ... .. . ... ... : ... .. . ... ... : ... .. . ... ... : ... .. 3 ... ...
ROW EE : ... .. D ... ... ... : G-5 00 A P82 ... ... : F#2 00 . P80 : ... .. . ... : ... .. . ... ... : --- .. . ... ... : ... .. 2 ... ... : ... .. . ... ...
ROW EF : ... .. A ... ... ... : ... .. . P81 ... ... : F-2 00 . P84 : ... .. . ... : ... .. . ... ... : ... .. . ... ... : ... .. . ... ... : ... .. 1 ... ...
ROW F0 : D-3 00 F ... ... ... : G#5 00 A P7F ... ... : E-2 00 . P8A : 7-# 00 F ... : ... .. . ... ... : D-2 01 A ... ... : D-1 01 A ... ... : ... .. . ... ...
ROW F1 : ... .. E ... ... ... : A-5 00 A P80 ... ... : D#2 00 . P92 : ... .. C ... : ... .. . ... ... : ... .. 9 ... ... : ... .. 9 ... ... : ... .. . ... ...
ROW F2 : ... .. D ... ... ... : A#5 00 A P7F ... ... : ... .. . P72 : ... .. 6 ... : ... .. . ... ... : ... .. 8 ... ... : ... .. 8 ... ... : ... .. . ... ...
ROW F3 : ... .. A ... ... ... : B-5 00 A ... ... ... : D-2 00 . P7D : ... .. 3 ... : ... .. . ... ... : ... .. 7 ... ... : ... .. 7 ... ... : ... .. . ... ...
ROW F4 : A-2 00 F ... ... ... : ... .. . ... ... ... : C#2 00 . P8A : 5-# 00 F ... : ... .. . ... ... : --- .. . P84 ... : --- .. . P7C ... : ... .. . ... ...
ROW F5 : ... .. E ... ... ... : A#5 00 A ... ... ... : ... .. . P6A : ... .. C ... : ... .. . ... ... : ... .. . ... ... : ... .. . ... ... : ... .. . ... ...
ROW F6 : ... .. D ... ... ... : A-5 00 A P80 ... ... : C-2 00 . P7A : ... .. 6 ... : ... .. . ... ... : ... .. . ... ... : ... .. . ... ... : ... .. 0 ... ...
ROW F7 : ... .. A ... ... ... : G#5 00 A P7F ... ... : B-1 00 . P8D : ... .. 3 ... : ... .. . ... ... : ... .. . ... ... : ... .. . ... ... : ... .. . ... ...
ROW F8 : F-2 00 F ... ... ... : G-5 00 A P81 ... ... : ... .. . P6D : 4-# 00 F ... : ... .. . ... ... : D-2 01 A P80 ... : D-1 01 A P80 ... : ... .. . ... ...
ROW F9 : ... .. E ... ... ... : ... .. . P82 ... ... : A#1 00 . P83 : ... .. C ... : ... .. . ... ... : ... .. 9 ... ... : ... .. 9 ... ... : ... .. . ... ...
ROW FA : ... .. D ... ... ... : A-5 00 A P7F ... ... : A-1 00 . P9C : ... .. 6 ... : ... .. . ... ... : ... .. 8 ... ... : ... .. 8 ... ... : ... .. . ... ...
ROW FB : ... .. A ... ... ... : ... .. . P82 ... ... : ... .. . P7C : ... .. 3 ... : ... .. . ... ... : ... .. 7 ... ... : ... .. 7 ... ... : ... .. . ... ...
ROW FC : D-2 00 F ... ... ... : B-5 00 A P7F ... ... : G#1 00 . P98 : 2-# 00 F ... : ... .. . ... ... : --- .. . P84 ... : --- .. . P7C ... : ... .. . ... ...
ROW FD : ... .. E ... ... ... : ... .. . ... ... ... : ... .. . P78 : ... .. C ... : ... .. . ... ... : ... .. . ... ... : ... .. . ... ... : ... .. . ... ...
ROW FE : ... .. D ... ... ... : ... .. 0 ... ... ... : G-1 00 . P98 : ... .. 6 ... : ... .. . ... ... : ... .. . ... ... : ... .. . ... ... : ... .. . ... ...
ROW FF : ... .. A ... ... ... : ... .. . ... ... ... : ... .. . P78 : ... .. 3 ... : ... .. . ... ... : ... .. . ... ... : ... .. . ... ... : ... .. . ... ...

PATTERN 01
ROW 00 : F-1 00 F ... ... ... : C-2 00 F P80 ... ... : E-4 00 . P80 : 1-# 00 F ... : ... .. . ... ... : ... .. . ... ... : ... .. . ... ... : F-0 01 C ... ...
ROW 01 : ... .. E ... ... ... : ... .. E ... ... ... : F#3 00 . ... : ... .. C ... : ... .. . ... ... : ... .. . ... ... : ... .. . ... ... : ... .. A ... ...
ROW 02 : ... .. D ... ... ... : ... .. D ... ... ... : B-2 00 . ... : ... .. 6 ... : ... .. . ... ... : ... .. . ... ... : ... .. . ... ... : ... .. 6 ... ...
ROW 03 : ... .. A ... ... ... : ... .. A ... ... ... : A#2 00 . ... : ... .. 3 ... : ... .. . ... ... : ... .. . ... ... : ... .. . ... ... : ... .. . ... ...
ROW 04 : ... .. . ... ... ... : ... .. . ... ... ... : F-2 00 . ... : ... .. 2 ... : ... .. . ... ... : ... .. . ... ... : ... .. . ... ... : ... .. . ... ...
ROW 05 : ... .. . ... ... ... : ... .. . ... ... ... : ... .. . ... : ... .. 0 ... : ... .. . ... ... : ... .. . ... ... : ... .. . ... ... : ... .. . ... ...
ROW 06 : ... .. . ... ... ... : ... .. . ... ... ... : ... .. . ... : ... .. . ... : ... .. . ... ... : ... .. . ... ... : ... .. . ... ... : ... .. . ... ...
ROW 07 : ... .. 2 ... ... ... : ... .. 2 ... ... ... : --- .. . ... : ... .. . ... : ... .. . ... ... : ... .. . ... ... : ... .. . ... ... : --- .. . P82 ...
ROW 08 : D#2 00 F ... ... ... : A#2 00 F ... ... ... : D#3 00 . ... : ... .. F ... : ... .. . ... ... : ... .. . ... ... : ... .. . ... ... : D#1 01 C P80 ...
ROW 09 : ... .. E ... ... ... : ... .. E ... ... ... : ... .. . ... : ... .. C ... : ... .. . ... ... : ... .. . ... ... : ... .. . ... ... : ... .. A ... ...
ROW 0A : ... .. D ... ... ... : ... .. D ... ... ... : ... .. . ... : ... .. 6 ... : ... .. . ... ... : ... .. . ... ... : ... .. . ... ... : ... .. 6 ... ...
ROW 0B : ... .. A ... ... ... : ... .. A ... ... ... : ... .. . ... : ... .. 3 ... : ... .. . ... ... : ... .. . ... ... : ... .. . ... ... : ... .. . ... ...
ROW 0C : ... .. . ... ... ... : ... .. . ... ... ... : ... .. . ... : ... .. 2 ... : ... .. . ... ... : ... .. . ... ... : ... .. . ... ... : ... .. . ... ...
ROW 0D : ... .. . ... ... ... : ... .. . ... ... ... : ... .. . ... : ... .. 0 ... : ... .. . ... ... : ... .. . ... ... : ... .. . ... ... : ... .. . ... ...
ROW 0E : ... .. . ... ... ... : ... .. . ... ... ... : ... .. . ... : ... .. . ... : ... .. . ... ... : ... .. . ... ... : ... .. . ... ... : ... .. . ... ...
ROW 0F : ... .. 2 ... ... ... : ... .. 2 ... ... ... : --- .. . ... : ... .. . ... : ... .. . ... ... : ... .. . ... ... : ... .. . ... ... : --- .. . P81 ...
ROW 10 : D-2 00 F ... ... ... : A-2 00 F ... ... ... : D-3 00 . ... : 5-# 00 F ... : ... .. . ... ... : ... .. . ... ... : ... .. . ... ... : D-1 01 C P80 ...
ROW 11 : ... .. E ... ... ... : ... .. E ... ... ... : ... .. . ... : ... .. C ... : ... .. . ... ... : ... .. . ... ... : ... .. . ... ... : ... .. A ... ...
ROW 12 : ... .. D ... ... ... : ... .. D ... ... ... : ... .. . ... : ... .. 6 ... : ... .. . ... ... : ... .. . ... ... : ... .. . ... ... : ... .. 6 ... ...
ROW 13 : ... .. A ... ... ... : ... .. A ... ... ... : ... .. . ... : ... .. 3 ... : ... .. . ... ... : ... .. . ... ... : ... .. . ... ... : ... .. . ... ...
ROW 14 : ... .. . ... ... ... : ... .. . ... ... ... : ... .. . ... : ... .. 2 ... : ... .. . ... ... : ... .. . ... ... : ... .. . ... ... : ... .. . ... ...
ROW 15 : ... .. . ... ... ... : ... .. . ... ... ... : ... .. . ... : ... .. 0 ... : ... .. . ... ... : ... .. . ... ... : ... .. . ... ... : ... .. . ... ...
ROW 16 : ... .. . ... ... ... : ... .. . ... ... ... : ... .. . ... : ... .. . ... : ... .. . ... ... : ... .. . ... ... : ... .. . ... ... : ... .. . ... ...
ROW 17 : ... .. 2 ... ... ... : ... .. 2 ... ... ... : --- .. . ... : ... .. . ... : ... .. . ... ... : ... .. . ... ... : ... .. . ... ... : --- .. . ... ...
ROW 18 : F-1 00 F ... ... ... : C-2 00 F ... ... ... : F-2 00 . ... : 1-# 00 F ... : ... .. . ... ... : ... .. . ... ... : ... .. . ... ... : F-0 01 C ... ...
ROW 19 : ... .. E ... ... ... : ... .. E ... ... ... : ... .. . ... : ... .. C ... : ... .. . ... ... : ... .. . ... ... : ... .. . ... ... : ... .. A ... ...
ROW 1A : ... .. D ... ... ... : ... .. D ... ... ... : ... .. . ... : ... .. 6 ... : ... .. . ... ... : ... .. . ... ... : ... .. . ... ... : ... .. 6 ... ...
ROW 1B : ... .. A ... ... ... : ... .. A ... ... ... : ... .. . ... : ... .. 3 ... : ... .. . ... ... : ... .. . ... ... : ... .. . ... ... : ... .. . ... ...
ROW 1C : ... .. . ... ... ... : ... .. . ... ... ... : ... .. . ... : ... .. 2 ... : ... .. . ... ... : ... .. . ... ... : ... .. . ... ... : ... .. . ... ...
ROW 1D : ... .. . ... ... ... : ... .. . ... ... ... : ... .. . ... : ... .. 0 ... : ... .. . ... ... : ... .. . ... ... : ... .. . ... ... : ... .. . ... ...
ROW 1E : ... .. . ... ... ... : ... .. . ... ... ... : ... .. . ... : ... .. . ... : ... .. . ... ... : ... .. . ... ... : ... .. . ... ... : ... .. . ... ...
ROW 1F : ... .. 2 ... ... ... : ... .. 2 ... ... ... : --- .. . ... : ... .. . ... : ... .. . ... ... : ... .. . ... ... : ... .. . ... ... : --- .. . P82 ...
ROW 20 : C-2 00 F ... ... ... : G-2 00 F ... ... ... : C-3 00 . ... : ... .. F ... : ... .. . ... ... : ... .. . ... ... : ... .. . ... ... : C-1 01 C P80 ...
ROW 21 : ... .. E ... ... ... : ... .. E ... ... ... : ... .. . ... : ... .. C ... : ... .. . ... ... : ... .. . ... ... : ... .. . ... ... : ... .. A ... ...
ROW 22 : ... .. D ... ... ... : ... .. D ... ... ... : ... .. . ... : ... .. 6 ... : ... .. . ... ... : ... .. . ... ... : ... .. . ... ... : ... .. 6 ... ...
ROW 23 : ... .. A ... ... ... : ... .. A ... ... ... : ... .. . ... : ... .. 3 ... : ... .. . ... ... : ... .. . ... ... : ... .. . ... ... : ... .. . ... ...
ROW 24 : ... .. . ... ... ... : ... .. . ... ... ... : ... .. . ... : ... .. 2 ... : ... .. . ... ... : ... .. . ... ... : ... .. . ... ... : ... .. . ... ...
ROW 25 : ... .. . ... ... ... : ... .. . ... ... ... : ... .. . ... : ... .. 0 ... : ... .. . ... ... : ... .. . ... ... : ... .. . ... ... : ... .. . ... ...
ROW 26 : ... .. . ... ... ... : ... .. . ... ... ... : ... .. . ... : ... .. . ... : ... .. . ... ... : ... .. . ... ... : ... .. . ... ... : ... .. . ... ...
ROW 27 : ... .. 2 ... ... ... : ... .. 2 ... ... ... : --- .. . ... : ... .. . ... : ... .. . ... ... : ... .. . ... ... : ... .. . ... ... : --- .. . ... ...
ROW 28 : B-1 00 F ... ... ... : F#2 00 F ... ... ... : B-2 00 . ... : ... .. F ... : ... .. . ... ... : ... .. . ... ... : ... .. . ... ... : B-0 01 C ... ...
ROW 29 : ... .. E ... ... ... : ... .. E ... ... ... : ... .. . ... : ... .. C ... : ... .. . ... ... : ... .. . ... ... : ... .. . ... ... : ... .. A ... ...
ROW 2A : ... .. D ... ... ... : ... .. D ... ... ... : ... .. . ... : ... .. 6 ... : ... .. . ... ... : ... .. . ... ... : ... .. . ... ... : ... .. 6 ... ...
ROW 2B : ... .. A ... ... ... : ... .. A ... ... ... : ... .. . ... : ... .. 3 ... : ... .. . ... ... : ... .. . ... ... : ... .. . ... ... : ... .. . ... ...
ROW 2C : ... .. . ... ... ... : ... .. . ... ... ... : ... .. . ... : ... .. 2 ... : ... .. . ... ... : ... .. . ... ... : ... .. . ... ... : ... .. . ... ...
ROW 2D : ... .. . ... ... ... : ... .. . ... ... ... : ... .. . ... : ... .. 0 ... : ... .. . ... ... : ... .. . ... ... : ... .. . ... ... : ... .. . ... ...
ROW 2E : ... .. . ... ... ... : ... .. . ... ... ... : ... .. . ... : ... .. . ... : ... .. . ... ... : ... .. . ... ... : ... .. . ... ... : ... .. . ... ...
ROW 2F : ... .. 2 ... ... ... : ... .. 2 ... ... ... : --- .. . ... : ... .. . ... : ... .. . ... ... : ... .. . ... ... : ... .. . ... ... : --- .. . ... ...
ROW 30 : F-1 00 F ... ... ... : C-2 00 F ... ... ... : F-2 00 . ... : 5-# 00 F ... : ... .. . ... ... : ... .. . ... ... : ... .. . ... ... : F-0 01 C ... ...
ROW 31 : ... .. E ... ... ... : ... .. E ... ... ... : ... .. . ... : ... .. C ... : ... .. . ... ... : ... .. . ... ... : ... .. . ... ... : ... .. A ... ...
ROW 32 : ... .. D ... ... ... : ... .. D ... ... ... : ... .. . ... : ... .. 6 ... : ... .. . ... ... : ... .. . ... ... : ... .. . ... ... : ... .. 6 ... ...
ROW 33 : ... .. A ... ... ... : ... .. A ... ... ... : ... .. . ... : ... .. 3 ... : ... .. . ... ... : ... .. . ... ... : ... .. . ... ... : ... .. . ... ...
ROW 34 : ... .. . ... ... ... : ... .. . ... ... ... : ... .. . ... : ... .. 2 ... : ... .. . ... ... : ... .. . ... ... : ... .. . ... ... : ... .. . ... ...
ROW 35 : ... .. . ... ... ... : ... .. . ... ... ... : ... .. . ... : ... .. 0 ... : ... .. . ... ... : ... .. . ... ... : ... .. . ... ... : ... .. . ... ...
ROW 36 : ... .. . ... ... ... : ... .. . ... ... ... : ... .. . ... : ... .. . ... : ... .. . ... ... : ... .. . ... ... : ... .. . ... ... : ... .. . ... ...
ROW 37 : ... .. 2 ... ... ... : ... .. 2 ... ... ... : --- .. . ... : ... .. . ... : ... .. . ... ... : ... .. . ... ... : ... .. . ... ... : --- .. . P82 ...
ROW 38 : D#2 00 F ... ... ... : A#2 00 F ... ... ... : D#3 00 . ... : 1-# 00 F ... : ... .. . ... ... : ... .. . ... ... : ... .. . ... ... : D#1 01 C P80 ...
ROW 39 : ... .. E ... ... ... : ... .. E ... ... ... : ... .. . ... : ... .. C ... : ... .. . ... ... : ... .. . ... ... : ... .. . ... ... : ... .. A ... ...
ROW 3A : ... .. D ... ... ... : ... .. D ... ... ... : ... .. . ... : ... .. 6 ... : ... .. . ... ... : ... .. . ... ... : ... .. . ... ... : ... .. 6 ... ...
ROW 3B : ... .. A ... ... ... : ... .. A ... ... ... : ... .. . ... : ... .. 3 ... : ... .. . ... ... : ... .. . ... ... : ... .. . ... ... : ... .. . ... ...
ROW 3C : ... .. . ... ... ... : ... .. . ... ... ... : ... .. . ... : ... .. 2 ... : ... .. . ... ... : ... .. . ... ... : ... .. . ... ... : ... .. . ... ...
ROW 3D : ... .. . ... ... ... : ... .. . ... ... ... : ... .. . ... : ... .. 0 ... : ... .. . ... ... : ... .. . ... ... : ... .. . ... ... : ... .. . ... ...
ROW 3E : ... .. . ... ... ... : ... .. . ... ... ... : ... .. . ... : ... .. . ... : ... .. . ... ... : ... .. . ... ... : ... .. . ... ... : ... .. . ... ...
ROW 3F : ... .. 2 ... ... ... : ... .. 2 ... ... ... : --- .. . ... : ... .. . ... : ... .. . ... ... : ... .. . ... ... : ... .. . ... ... : --- .. . P81 ...
ROW 40 : D-2 00 F ... ... ... : A-2 00 F ... ... ... : D-3 00 . ... : ... .. F ... : ... .. . ... ... : ... .. . ... ... : ... .. . ... ... : D-1 01 C P80 ...
ROW 41 : ... .. E ... ... ... : ... .. E ... ... ... : ... .. . ... : ... .. C ... : ... .. . ... ... : ... .. . ... ... : ... .. . ... ... : ... .. A ... ...
ROW 42 : ... .. D ... ... ... : ... .. D ... ... ... : ... .. . ... : ... .. 6 ... : ... .. . ... ... : ... .. . ... ... : ... .. . ... ... : ... .. 6 ... ...
ROW 43 : ... .. A ... ... ... : ... .. A ... ... ... : ... .. . ... : ... .. 3 ... : ... .. . ... ... : ... .. . ... ... : ... .. . ... ... : ... .. . ... ...
ROW 44 : ... .. . ... ... ... : ... .. . ... ... ... : ... .. . ... : ... .. 2 ... : ... .. . ... ... : ... .. . ... ... : ... .. . ... ... : ... .. . ... ...
ROW 45 : ... .. . ... ... ... : ... .. . ... ... ... : ... .. . ... : ... .. 0 ... : ... .. . ... ... : ... .. . ... ... : ... .. . ... ... : ... .. . ... ...
ROW 46 : ... .. . ... ... ... : ... .. . ... ... ... : ... .. . ... : ... .. . ... : ... .. . ... ... : ... .. . ... ... : ... .. . ... ... : ... .. . ... ...
ROW 47 : ... .. 2 ... ... ... : ... .. 2 ... ... ... : --- .. . ... : ... .. . ... : ... .. . ... ... : ... .. . ... ... : ... .. . ... ... : --- .. . ... ...
ROW 48 : F-1 00 F ... ... ... : C-2 00 F ... ... ... : F-2 00 . ... : ... .. F ... : ... .. . ... ... : ... .. . ... ... : ... .. . ... ... : F-0 01 C ... ...
ROW 49 : ... .. E ... ... ... : ... .. E ... ... ... : ... .. . ... : ... .. C ... : ... .. . ... ... : ... .. . ... ... : ... .. . ... ... : ... .. A ... ...
ROW 4A : ... .. D ... ... ... : ... .. D ... ... ... : ... .. . ... : ... .. 6 ... : ... .. . ... ... : ... .. . ... ... : ... .. . ... ... : ... .. 6 ... ...
ROW 4B : ... .. A ... ... ... : ... .. A ... ... ... : ... .. . ... : ... .. 3 ... : ... .. . ... ... : ... .. . ... ... : ... .. . ... ... : ... .. . ... ...
ROW 4C : ... .. . ... ... ... : ... .. . ... ... ... : ... .. . ... : ... .. 2 ... : ... .. . ... ... : ... .. . ... ... : ... .. . ... ... : ... .. . ... ...
ROW 4D : ... .. . ... ... ... : ... .. . ... ... ... : ... .. . ... : ... .. 0 ... : ... .. . ... ... : ... .. . ... ... : ... .. . ... ... : ... .. . ... ...
ROW 4E : ... .. . ... ... ... : ... .. . ... ... ... : ... .. . ... : ... .. . ... : ... .. . ... ... : ... .. . ... ... : ... .. . ... ... : ... .. . ... ...
ROW 4F : ... .. 2 ... ... ... : ... .. 2 ... ... ... : --- .. . ... : ... .. . ... : ... .. . ... ... : ... .. . ... ... : ... .. . ... ... : --- .. . P82 ...
ROW 50 : C-2 00 F ... ... ... : G-2 00 F ... ... ... : C-3 00 . ... : 5-# 00 F ... : ... .. . ... ... : ... .. . ... ... : ... .. . ... ... : C-1 01 C P80 ...
ROW 51 : ... .. E ... ... ... : ... .. E ... ... ... : ... .. . ... : ... .. C ... : ... .. . ... ... : ... .. . ... ... : ... .. . ... ... : ... .. A ... ...
ROW 52 : ... .. D ... ... ... : ... .. D ... ... ... : ... .. . ... : ... .. 6 ... : ... .. . ... ... : ... .. . ... ... : ... .. . ... ... : ... .. 6 ... ...
ROW 53 : ... .. A ... ... ... : ... .. A ... ... ... : ... .. . ... : ... .. 3 ... : ... .. . ... ... : ... .. . ... ... : ... .. . ... ... : ... .. . ... ...
ROW 54 : ... .. . ... ... ... : ... .. . ... ... ... : ... .. . ... : ... .. 2 ... : ... .. . ... ... : ... .. . ... ... : ... .. . ... ... : ... .. . ... ...
ROW 55 : ... .. . ... ... ... : ... .. . ... ... ... : ... .. . ... : ... .. 0 ... : ... .. . ... ... : ... .. . ... ... : ... .. . ... ... : ... .. . ... ...
ROW 56 : ... .. . ... ... ... : ... .. . ... ... ... : ... .. . ... : ... .. . ... : ... .. . ... ... : ... .. . ... ... : ... .. . ... ... : ... .. . ... ...
ROW 57 : ... .. 2 ... ... ... : ... .. 2 ... ... ... : --- .. . ... : ... .. . ... : ... .. . ... ... : ... .. . ... ... : ... .. . ... ... : --- .. . ... ...
ROW 58 : B-1 00 F ... ... ... : F#2 00 F ... ... ... : B-2 00 . ... : 1-# 00 F ... : ... .. . ... ... : ... .. . ... ... : ... .. . ... ... : B-0 01 C ... ...
ROW 59 : ... .. E ... ... ... : ... .. E ... ... ... : ... .. . ... : ... .. C ... : ... .. . ... ... : ... .. . ... ... : ... .. . ... ... : ... .. A ... ...
ROW 5A : ... .. D ... ... ... : ... .. D ... ... ... : ... .. . ... : ... .. 6 ... : ... .. . ... ... : ... .. . ... ... : ... .. . ... ... : ... .. 6 ... ...
ROW 5B : ... .. A ... ... ... : ... .. A ... ... ... : ... .. . ... : ... .. 3 ... : ... .. . ... ... : ... .. . ... ... : ... .. . ... ... : ... .. . ... ...
ROW 5C : ... .. . ... ... ... : ... .. . ... ... ... : ... .. . ... : ... .. 2 ... : ... .. . ... ... : ... .. . ... ... : ... .. . ... ... : ... .. . ... ...
ROW 5D : ... .. . ... ... ... : ... .. . ... ... ... : ... .. . ... : ... .. 0 ... : ... .. . ... ... : ... .. . ... ... : ... .. . ... ... : ... .. . ... ...
ROW 5E : ... .. . ... ... ... : ... .. . ... ... ... : ... .. . ... : ... .. . ... : ... .. . ... ... : ... .. . ... ... : ... .. . ... ... : ... .. . ... ...
ROW 5F : ... .. 2 ... ... ... : ... .. 2 ... ... ... : --- .. . ... : ... .. . ... : ... .. . ... ... : ... .. . ... ... : ... .. . ... ... : --- .. . ... ...
ROW 60 : G#3 00 F ... ... ... : D#4 00 F ... ... ... : G-5 00 . ... : ... .. F ... : ... .. . ... ... : ... .. . ... ... : ... .. . ... ... : G#1 01 C ... ...
ROW 61 : ... .. E ... ... ... : ... .. E ... ... ... : A-4 00 . ... : ... .. C ... : ... .. . ... ... : ... .. . ... ... : ... .. . ... ... : ... .. A ... ...
ROW 62 : ... .. D ... ... ... : ... .. D ... ... ... : D-4 00 . ... : ... .. 6 ... : ... .. . ... ... : ... .. . ... ... : ... .. . ... ... : ... .. 6 P60 ...
ROW 63 : ... .. A ... ... ... : ... .. A ... ... ... : C#4 00 . ... : ... .. 3 ... : ... .. . ... ... : ... .. . ... ... : ... .. . ... ... : G-1 01 6 P8A ...
ROW 64 : D#3 00 F ... ... ... : A#3 00 F ... ... ... : G#3 00 . ... : ... .. 2 ... : ... .. . ... ... : ... .. . ... ... : ... .. . ... ... : ... .. . P6A ...
ROW 65 : ... .. E ... ... ... : ... .. E ... ... ... : ... .. . ... : ... .. 0 ... : ... .. . ... ... : ... .. . ... ... : ... .. . ... ... : F#1 01 6 P97 ...
ROW 66 : ... .. A ... ... ... : ... .. A ... ... ... : F#3 00 . P81 : ... .. . ... : ... .. . ... ... : ... .. . ... ... : ... .. . ... ... : ... .. . P77 ...
ROW 67 : ... .. 2 ... ... ... : ... .. 2 ... ... ... : E-3 00 . P86 : ... .. . ... : ... .. . ... ... : ... .. . ... ... : ... .. . ... ... : F-1 01 6 PA9 ...
ROW 68 : B-2 00 F ... ... ... : F#3 00 F ... ... ... : D#3 00 . P7B : ... .. F ... : ... .. . ... ... : ... .. . ... ... : ... .. . ... ... : ... .. . P89 ...
ROW 69 : ... .. E ... ... ... : ... .. E ... ... ... : C#3 00 . P87 : ... .. C ... : ... .. . ... ... : ... .. . ... ... : ... .. . ... ... : ... .. . P69 ...
ROW 6A : ... .. A ... ... ... : ... .. A ... ... ... : C-3 00 . P7F : ... .. 6 ... : ... .. . ... ... : ... .. . ... ... : ... .. . ... ... : E-1 01 6 PA0 ...
ROW 6B : ... .. 2 ... ... ... : ... .. 2 ... ... ... : B-2 00 . P78 : ... .. 3 ... : ... .. . ... ... : ... .. . ... ... : ... .. . ... ... : ... .. . P80 ...
ROW 6C : G#2 00 F ... ... ... : D#3 00 F ... ... ... : A#2 00 . P73 : ... .. F ... : ... .. . ... ... : ... .. . ... ... : ... .. . ... ... : ... .. . P60 ...
ROW 6D : ... .. E ... ... ... : ... .. E ... ... ... : G#2 00 . P8E : ... .. C ... : ... .. . ... ... : ... .. . ... ... : ... .. . ... ... : D#1 01 6 P9D ...
ROW 6E : ... .. A ... ... ... : ... .. A ... ... ... : G-2 00 . ... : ... .. 6 ... : ... .. . ... ... : ... .. . ... ... : ... .. . ... ... : ... .. . P7D ...
ROW 6F : ... .. 2 ... ... ... : ... .. 2 ... ... ... : F#2 00 . P90 : ... .. 3 ... : ... .. . ... ... : ... .. . ... ... : ... .. . ... ... : ... .. . P5D ...
ROW 70 : D#2 00 F ... ... ... : A#2 00 F ... ... ... : ... .. . P70 : 5-# 00 F ... : ... .. . ... ... : ... .. . ... ... : ... .. . ... ... : D-1 01 6 P9E ...
ROW 71 : ... .. E ... ... ... : ... .. E ... ... ... : F-2 00 . P74 : ... .. C ... : ... .. . ... ... : ... .. . ... ... : ... .. . ... ... : ... .. . P7E ...
ROW 72 : ... .. D ... ... ... : ... .. D ... ... ... : E-2 00 . P7A : ... .. 6 ... : ... .. . ... ... : ... .. . ... ... : ... .. . ... ... : ... .. . P5E ...
ROW 73 : ... .. A ... ... ... : ... .. A ... ... ... : D#2 00 . P82 : ... .. 3 ... : ... .. . ... ... : ... .. . ... ... : ... .. . ... ... : C#1 01 6 PA6 ...
ROW 74 : B-1 00 F ... ... ... : F#2 00 F ... ... ... : D-2 00 . P8D : ... .. 2 ... : ... .. . ... ... : ... .. . ... ... : ... .. . ... ... : ... .. . P86 ...
ROW 75 : ... .. E ... ... ... : ... .. E ... ... ... : ... .. . P6D : ... .. 0 ... : ... .. . ... ... : ... .. . ... ... : ... .. . ... ... : ... .. . P66 ...
ROW 76 : ... .. A ... ... ... : ... .. A ... ... ... : C#2 00 . P7A : ... .. . ... : ... .. . ... ... : ... .. . ... ... : ... .. . ... ... : C-1 01 6 PB4 ...
ROW 77 : ... .. 2 ... ... ... : ... .. 2 ... ... ... : C-2 00 . P8A : ... .. . ... : ... .. . ... ... : ... .. . ... ... : ... .. . ... ... : ... .. . P94 ...
ROW 78 : G#1 00 F ... ... ... : D#2 00 F ... ... ... : ... .. . P6A : C-# 00 F ... : ... .. . ... ... : ... .. . ... ... : ... .. . ... ... : ... .. . P74 ...
ROW 79 : ... .. E ... ... ... : ... .. E ... ... ... : B-1 00 . P7D : ... .. C ... : ... .. . ... ... : ... .. . ... ... : ... .. . ... ... : ... .. . P54 ...
ROW 7A : ... .. A ... ... ... : ... .. A ... ... ... : A#1 00 . P93 : ... .. 6 ... : ... .. . ... ... : ... .. . ... ... : ... .. . ... ... : B-0 01 6 PA8 ...
ROW 7B : ... .. 2 ... ... ... : ... .. 2 ... ... ... : ... .. . P73 : ... .. 3 ... : ... .. . ... ... : ... .. . ... ... : ... .. . ... ... : ... .. . P88 ...
ROW 7C : D#1 00 F ... ... ... : A#1 00 F ... ... ... : A-1 00 . P8C : ... .. F ... : ... .. . ... ... : ... .. . ... ... : ... .. . ... ... : ... .. . P68 ...
ROW 7D : ... .. E ... ... ... : ... .. E ... ... ... : ... .. . P6C : ... .. C ... : ... .. . ... ... : ... .. . ... ... : ... .. . ... ... : ... .. . P48 ...
ROW 7E : ... .. A ... ... ... : ... .. A ... ... ... : G#1 00 . P88 : ... .. 6 ... : ... .. . ... ... : ... .. . ... ... : ... .. . ... ... : A#0 01 6 PA3 ...
ROW 7F : ... .. 2 ... ... ... : ... .. 2 ... ... ... : ... .. . P68 : ... .. 3 ... : ... .. . ... ... : ... .. . ... ... : ... .. . ... ... : ... .. . P83 ...
ROW 80 : F-1 00 F ... ... ... : C-2 00 F ... ... ... : E-4 00 . P80 : 1-# 00 F ... : ... .. . ... ... : ... .. . ... ... : ... .. . ... ... : F-0 01 C P80 ...
ROW 81 : ... .. E ... ... ... : ... .. E ... ... ... : F#3 00 . ... : ... .. C ... : ... .. . ... ... : ... .. . ... ... : ... .. . ... ... : ... .. A ... ...
ROW 82 : ... .. D ... ... ... : ... .. D ... ... ... : B-2 00 . ... : ... .. 6 ... : ... .. . ... ... : ... .. . ... ... : ... .. . ... ... : ... .. 6 ... ...
ROW 83 : ... .. A ... ... ... : ... .. A ... ... ... : A#2 00 . ... : ... .. 3 ... : ... .. . ... ... : ... .. . ... ... : ... .. . ... ... : ... .. . ... ...
ROW 84 : ... .. F ... ... ... : ... .. F ... ... ... : F-2 00 . ... : ... .. 2 ... : ... .. . ... ... : ... .. . ... ... : ... .. . ... ... : ... .. . ... ...
ROW 85 : ... .. E ... ... ... : ... .. E ... ... ... : ... .. . ... : ... .. 0 ... : ... .. . ... ... : ... .. . ... ... : ... .. . ... ... : ... .. . ... ...
ROW 86 : ... .. D ... ... ... : ... .. D ... ... ... : ... .. . ... : ... .. . ... : ... .. . ... ... : ... .. . ... ... : ... .. . ... ... : ... .. . ... ...
ROW 87 : ... .. A ... ... ... : ... .. A ... ... ... : --- .. . ... : ... .. . ... : ... .. . ... ... : ... .. . ... ... : ... .. . ... ... : --- .. . P82 ...
ROW 88 : D#2 00 F ... ... ... : A#2 00 F ... ... ... : D#3 00 . ... : ... .. F ... : ... .. . ... ... : ... .. . ... ... : ... .. . ... ... : D#1 01 C P80 ...
ROW 89 : ... .. E ... ... ... : ... .. E ... ... ... : ... .. . ... : ... .. C ... : ... .. . ... ... : ... .. . ... ... : ... .. . ... ... : ... .. A ... ...
ROW 8A : ... .. D ... ... ... : ... .. D ... ... ... : ... .. . ... : ... .. 6 ... : ... .. . ... ... : ... .. . ... ... : ... .. . ... ... : ... .. 6 ... ...
ROW 8B : ... .. A ... ... ... : ... .. A ... ... ... : ... .. . ... : ... .. 3 ... : ... .. . ... ... : ... .. . ... ... : ... .. . ... ... : ... .. . ... ...
ROW 8C : ... .. . ... ... ... : ... .. . ... ... ... : ... .. . ... : ... .. 2 ... : ... .. . ... ... : ... .. . ... ... : ... .. . ... ... : ... .. . ... ...
ROW 8D : ... .. . ... ... ... : ... .. . ... ... ... : ... .. . ... : ... .. 0 ... : ... .. . ... ... : ... .. . ... ... : ... .. . ... ... : ... .. . ... ...
ROW 8E : ... .. . ... ... ... : ... .. . ... ... ... : ... .. . ... : ... .. . ... : ... .. . ... ... : ... .. . ... ... : ... .. . ... ... : ... .. . ... ...
ROW 8F : ... .. . ... ... ... : ... .. . ... ... ... : --- .. . ... : ... .. . ... : ... .. . ... ... : ... .. . ... ... : ... .. . ... ... : --- .. . P81 ...
ROW 90 : D-2 00 F ... ... ... : A-2 00 F ... ... ... : D-3 00 . ... : 5-# 00 F ... : ... .. . ... ... : ... .. . ... ... : ... .. . ... ... : D-1 01 C P80 ...
ROW 91 : ... .. E ... ... ... : ... .. E ... ... ... : ... .. . ... : ... .. C ... : ... .. . ... ... : ... .. . ... ... : ... .. . ... ... : ... .. A ... ...
ROW 92 : ... .. D ... ... ... : ... .. D ... ... ... : ... .. . ... : ... .. 6 ... : ... .. . ... ... : ... .. . ... ... : ... .. . ... ... : ... .. 6 ... ...
ROW 93 : ... .. A ... ... ... : ... .. A ... ... ... : ... .. . ... : ... .. 3 ... : ... .. . ... ... : ... .. . ... ... : ... .. . ... ... : ... .. . ... ...
ROW 94 : ... .. . ... ... ... : ... .. . ... ... ... : ... .. . ... : ... .. 2 ... : ... .. . ... ... : ... .. . ... ... : ... .. . ... ... : ... .. . ... ...
ROW 95 : ... .. . ... ... ... : ... .. . ... ... ... : ... .. . ... : ... .. 0 ... : ... .. . ... ... : ... .. . ... ... : ... .. . ... ... : ... .. . ... ...
ROW 96 : ... .. . ... ... ... : ... .. . ... ... ... : ... .. . ... : ... .. . ... : ... .. . ... ... : ... .. . ... ... : ... .. . ... ... : ... .. . ... ...
ROW 97 : ... .. . ... ... ... : ... .. . ... ... ... : --- .. . ... : ... .. . ... : ... .. . ... ... : ... .. . ... ... : ... .. . ... ... : --- .. . ... ...
ROW 98 : F-1 00 F ... ... ... : C-2 00 F ... ... ... : F-2 00 . ... : 1-# 00 F ... : ... .. . ... ... : ... .. . ... ... : ... .. . ... ... : F-0 01 C ... ...
ROW 99 : ... .. E ... ... ... : ... .. E ... ... ... : ... .. . ... : ... .. C ... : ... .. . ... ... : ... .. . ... ... : ... .. . ... ... : ... .. A ... ...
ROW 9A : ... .. A ... ... ... : ... .. A ... ... ... : ... .. . ... : ... .. 6 ... : ... .. . ... ... : ... .. . ... ... : ... .. . ... ... : ... .. 6 ... ...
ROW 9B : ... .. 2 ... ... ... : ... .. 2 ... ... ... : ... .. . ... : ... .. 3 ... : ... .. . ... ... : ... .. . ... ... : ... .. . ... ... : ... .. . ... ...
ROW 9C : ... .. F ... ... ... : ... .. F ... ... ... : ... .. . ... : ... .. 2 ... : ... .. . ... ... : ... .. . ... ... : ... .. . ... ... : ... .. . ... ...
ROW 9D : ... .. E ... ... ... : ... .. E ... ... ... : ... .. . ... : ... .. 0 ... : ... .. . ... ... : ... .. . ... ... : ... .. . ... ... : ... .. . ... ...
ROW 9E : ... .. A ... ... ... : ... .. A ... ... ... : ... .. . ... : ... .. . ... : ... .. . ... ... : ... .. . ... ... : ... .. . ... ... : ... .. . ... ...
ROW 9F : ... .. 2 ... ... ... : ... .. 2 ... ... ... : --- .. . ... : ... .. . ... : ... .. . ... ... : ... .. . ... ... : ... .. . ... ... : --- .. . P82 ...
ROW A0 : C-2 00 F ... ... ... : G-2 00 F ... ... ... : C-3 00 . ... : ... .. F ... : ... .. . ... ... : ... .. . ... ... : ... .. . ... ... : C-1 01 C P80 ...
ROW A1 : ... .. E ... ... ... : ... .. E ... ... ... : ... .. . ... : ... .. C ... : ... .. . ... ... : ... .. . ... ... : ... .. . ... ... : ... .. A ... ...
ROW A2 : ... .. D ... ... ... : ... .. D ... ... ... : ... .. . ... : ... .. 6 ... : ... .. . ... ... : ... .. . ... ... : ... .. . ... ... : ... .. 6 ... ...
ROW A3 : ... .. A ... ... ... : ... .. A ... ... ... : ... .. . ... : ... .. 3 ... : ... .. . ... ... : ... .. . ... ... : ... .. . ... ... : ... .. . ... ...
ROW A4 : ... .. . ... ... ... : ... .. . ... ... ... : ... .. . ... : ... .. 2 ... : ... .. . ... ... : ... .. . ... ... : ... .. . ... ... : ... .. . ... ...
ROW A5 : ... .. . ... ... ... : ... .. . ... ... ... : ... .. . ... : ... .. 0 ... : ... .. . ... ... : ... .. . ... ... : ... .. . ... ... : ... .. . ... ...
ROW A6 : ... .. . ... ... ... : ... .. . ... ... ... : ... .. . ... : ... .. . ... : ... .. . ... ... : ... .. . ... ... : ... .. . ... ... : ... .. . ... ...
ROW A7 : ... .. 2 ... ... ... : ... .. 2 ... ... ... : --- .. . ... : ... .. . ... : ... .. . ... ... : ... .. . ... ... : ... .. . ... ... : --- .. . ... ...
ROW A8 : B-1 00 F ... ... ... : F#2 00 F ... ... ... : B-2 00 . ... : ... .. F ... : ... .. . ... ... : ... .. . ... ... : ... .. . ... ... : B-0 01 C ... ...
ROW A9 : ... .. E ... ... ... : ... .. E ... ... ... : ... .. . ... : ... .. C ... : ... .. . ... ... : ... .. . ... ... : ... .. . ... ... : ... .. A ... ...
ROW AA : ... .. D ... ... ... : ... .. D ... ... ... : ... .. . ... : ... .. 6 ... : ... .. . ... ... : ... .. . ... ... : ... .. . ... ... : ... .. 6 ... ...
ROW AB : ... .. A ... ... ... : ... .. A ... ... ... : ... .. . ... : ... .. 3 ... : ... .. . ... ... : ... .. . ... ... : ... .. . ... ... : ... .. . ... ...
ROW AC : ... .. . ... ... ... : ... .. . ... ... ... : ... .. . ... : ... .. 2 ... : ... .. . ... ... : ... .. . ... ... : ... .. . ... ... : ... .. . ... ...
ROW AD : ... .. . ... ... ... : ... .. . ... ... ... : ... .. . ... : ... .. 0 ... : ... .. . ... ... : ... .. . ... ... : ... .. . ... ... : ... .. . ... ...
ROW AE : ... .. . ... ... ... : ... .. . ... ... ... : ... .. . ... : ... .. . ... : ... .. . ... ... : ... .. . ... ... : ... .. . ... ... : ... .. . ... ...
ROW AF : ... .. 2 ... ... ... : ... .. 2 ... ... ... : --- .. . ... : ... .. . ... : ... .. . ... ... : ... .. . ... ... : ... .. . ... ... : --- .. . ... ...
ROW B0 : F-1 00 F ... ... ... : C-2 00 F ... ... ... : F-2 00 . ... : 5-# 00 F ... : ... .. . ... ... : ... .. . ... ... : ... .. . ... ... : F-0 01 C ... ...
ROW B1 : ... .. E ... ... ... : ... .. E ... ... ... : ... .. . ... : ... .. C ... : ... .. . ... ... : ... .. . ... ... : ... .. . ... ... : ... .. A ... ...
ROW B2 : ... .. A ... ... ... : ... .. A ... ... ... : ... .. . ... : ... .. 6 ... : ... .. . ... ... : ... .. . ... ... : ... .. . ... ... : ... .. 6 ... ...
ROW B3 : ... .. 2 ... ... ... : ... .. 2 ... ... ... : ... .. . ... : ... .. 3 ... : ... .. . ... ... : ... .. . ... ... : ... .. . ... ... : ... .. . ... ...
ROW B4 : ... .. F ... ... ... : ... .. F ... ... ... : ... .. . ... : ... .. 2 ... : ... .. . ... ... : ... .. . ... ... : ... .. . ... ... : ... .. . ... ...
ROW B5 : ... .. E ... ... ... : ... .. E ... ... ... : ... .. . ... : ... .. 0 ... : ... .. . ... ... : ... .. . ... ... : ... .. . ... ... : ... .. . ... ...
ROW B6 : ... .. A ... ... ... : ... .. A ... ... ... : ... .. . ... : ... .. . ... : ... .. . ... ... : ... .. . ... ... : ... .. . ... ... : ... .. . ... ...
ROW B7 : ... .. 2 ... ... ... : ... .. 2 ... ... ... : --- .. . ... : ... .. . ... : ... .. . ... ... : ... .. . ... ... : ... .. . ... ... : --- .. . P82 ...
ROW B8 : D#2 00 F ... ... ... : A#2 00 F ... ... ... : D#3 00 . ... : 1-# 00 F ... : ... .. . ... ... : ... .. . ... ... : ... .. . ... ... : D#1 01 C P80 ...
ROW B9 : ... .. E ... ... ... : ... .. E ... ... ... : ... .. . ... : ... .. C ... : ... .. . ... ... : ... .. . ... ... : ... .. . ... ... : ... .. A ... ...
ROW BA : ... .. D ... ... ... : ... .. D ... ... ... : ... .. . ... : ... .. 6 ... : ... .. . ... ... : ... .. . ... ... : ... .. . ... ... : ... .. 6 ... ...
ROW BB : ... .. A ... ... ... : ... .. A ... ... ... : ... .. . ... : ... .. 3 ... : ... .. . ... ... : ... .. . ... ... : ... .. . ... ... : ... .. . ... ...
ROW BC : ... .. . ... ... ... : ... .. . ... ... ... : ... .. . ... : ... .. 2 ... : ... .. . ... ... : ... .. . ... ... : ... .. . ... ... : ... .. . ... ...
ROW BD : ... .. . ... ... ... : ... .. . ... ... ... : ... .. . ... : ... .. 0 ... : ... .. . ... ... : ... .. . ... ... : ... .. . ... ... : ... .. . ... ...
ROW BE : ... .. . ... ... ... : ... .. . ... ... ... : ... .. . ... : ... .. . ... : ... .. . ... ... : ... .. . ... ... : ... .. . ... ... : ... .. . ... ...
ROW BF : ... .. 2 ... ... ... : ... .. 2 ... ... ... : --- .. . ... : ... .. . ... : ... .. . ... ... : ... .. . ... ... : ... .. . ... ... : --- .. . P81 ...
ROW C0 : B-1 00 F ... ... ... : F#2 00 F ... ... ... : A#3 00 . ... : ... .. F ... : ... .. . ... ... : ... .. . ... ... : ... .. . ... ... : B-0 01 C P80 ...
ROW C1 : ... .. E ... ... ... : ... .. E ... ... ... : C-3 00 . ... : ... .. C ... : ... .. . ... ... : ... .. . ... ... : ... .. . ... ... : ... .. A ... ...
ROW C2 : ... .. D ... ... ... : ... .. D ... ... ... : F-2 00 . ... : ... .. 6 ... : ... .. . ... ... : ... .. . ... ... : ... .. . ... ... : ... .. 6 ... ...
ROW C3 : ... .. A ... ... ... : ... .. A ... ... ... : E-2 00 . ... : ... .. 3 ... : ... .. . ... ... : ... .. . ... ... : ... .. . ... ... : ... .. . ... ...
ROW C4 : ... .. . ... ... ... : ... .. . ... ... ... : B-1 00 . ... : ... .. 2 ... : ... .. . ... ... : ... .. . ... ... : ... .. . ... ... : ... .. . ... ...
ROW C5 : ... .. . ... ... ... : ... .. . ... ... ... : ... .. . ... : ... .. 0 ... : ... .. . ... ... : ... .. . ... ... : ... .. . ... ... : ... .. . ... ...
ROW C6 : ... .. . ... ... ... : ... .. . ... ... ... : ... .. . ... : ... .. . ... : ... .. . ... ... : ... .. . ... ... : ... .. . ... ... : ... .. . ... ...
ROW C7 : ... .. 2 ... ... ... : ... .. 2 ... ... ... : --- .. . ... : ... .. . ... : ... .. . ... ... : ... .. . ... ... : ... .. . ... ... : --- .. . ... ...
ROW C8 : F#2 00 F ... ... ... : C#3 00 F ... ... ... : F-4 00 . ... : ... .. F ... : ... .. . ... ... : ... .. . ... ... : ... .. . ... ... : F#0 01 C ... ...
ROW C9 : ... .. E ... ... ... : ... .. E ... ... ... : G-3 00 . ... : ... .. C ... : ... .. . ... ... : ... .. . ... ... : ... .. . ... ... : ... .. A ... ...
ROW CA : ... .. D ... ... ... : ... .. D ... ... ... : C-3 00 . ... : ... .. 6 ... : ... .. . ... ... : ... .. . ... ... : ... .. . ... ... : ... .. 6 ... ...
ROW CB : ... .. A ... ... ... : ... .. A ... ... ... : B-2 00 . ... : ... .. 3 ... : ... .. . ... ... : ... .. . ... ... : ... .. . ... ... : ... .. . ... ...
ROW CC : ... .. F ... ... ... : ... .. F ... ... ... : F#2 00 . ... : ... .. 2 ... : ... .. . ... ... : ... .. . ... ... : ... .. . ... ... : ... .. . ... ...
ROW CD : ... .. E ... ... ... : ... .. E ... ... ... : ... .. . ... : ... .. 0 ... : ... .. . ... ... : ... .. . ... ... : ... .. . ... ... : ... .. . ... ...
ROW CE : ... .. D ... ... ... : ... .. D ... ... ... : ... .. . ... : ... .. . ... : ... .. . ... ... : ... .. . ... ... : ... .. . ... ... : ... .. . ... ...
ROW CF : ... .. 0 ... ... ... : ... .. 0 ... ... ... : --- .. . ... : ... .. . ... : ... .. . ... ... : ... .. . ... ... : ... .. . ... ... : --- .. . P81 ...
ROW D0 : E-2 00 F P80 ... ... : B-2 00 F P80 ... ... : D#4 00 . ... : 8-# 00 F ... : ... .. . ... ... : ... .. . ... ... : ... .. . ... ... : E-0 01 C P80 ...
ROW D1 : ... .. E ... ... ... : ... .. E ... ... ... : F-3 00 . ... : ... .. C ... : ... .. . ... ... : ... .. . ... ... : ... .. . ... ... : ... .. A ... ...
ROW D2 : ... .. D ... ... ... : ... .. D ... ... ... : A#2 00 . ... : ... .. 6 ... : ... .. . ... ... : ... .. . ... ... : ... .. . ... ... : ... .. 6 ... ...
ROW D3 : ... .. 0 ... ... ... : ... .. 0 ... ... ... : A-2 00 . ... : ... .. 3 ... : ... .. . ... ... : ... .. . ... ... : ... .. . ... ... : ... .. . ... ...
ROW D4 : E-2 00 F P80 ... ... : B-2 00 F P80 ... ... : E-2 00 . ... : ... .. F ... : ... .. . ... ... : ... .. . ... ... : ... .. . ... ... : ... .. . ... ...
ROW D5 : ... .. E ... ... ... : ... .. E ... ... ... : ... .. . ... : ... .. C ... : ... .. . ... ... : ... .. . ... ... : ... .. . ... ... : ... .. . ... ...
ROW D6 : ... .. D ... ... ... : ... .. D ... ... ... : ... .. . ... : ... .. 6 ... : ... .. . ... ... : ... .. . ... ... : ... .. . ... ... : ... .. . ... ...
ROW D7 : ... .. 0 ... ... ... : ... .. 0 ... ... ... : ... .. . ... : ... .. 3 ... : ... .. . ... ... : ... .. . ... ... : ... .. . ... ... : ... .. . ... ...
ROW D8 : B-2 00 F P80 ... ... : F#3 00 F P80 ... ... : A#4 00 . ... : 1-# 00 F ... : ... .. . ... ... : ... .. . ... ... : ... .. . ... ... : B-0 01 C ... ...
ROW D9 : ... .. E ... ... ... : ... .. E ... ... ... : C-4 00 . ... : ... .. C ... : ... .. . ... ... : ... .. . ... ... : ... .. . ... ... : ... .. A ... ...
ROW DA : ... .. D ... ... ... : ... .. D ... ... ... : F-3 00 . ... : ... .. 6 ... : ... .. . ... ... : ... .. . ... ... : ... .. . ... ... : ... .. 6 ... ...
ROW DB : ... .. 0 ... ... ... : ... .. 0 ... ... ... : E-3 00 . ... : ... .. 3 ... : ... .. . ... ... : ... .. . ... ... : ... .. . ... ... : ... .. . ... ...
ROW DC : B-2 00 F P80 ... ... : F#3 00 F P80 ... ... : B-2 00 . ... : ... .. F ... : ... .. . ... ... : ... .. . ... ... : ... .. . ... ... : ... .. . ... ...
ROW DD : ... .. E ... ... ... : ... .. E ... ... ... : ... .. . ... : ... .. C ... : ... .. . ... ... : ... .. . ... ... : ... .. . ... ... : ... .. . ... ...
ROW DE : ... .. D ... ... ... : ... .. D ... ... ... : ... .. . ... : ... .. 6 ... : ... .. . ... ... : ... .. . ... ... : ... .. . ... ... : ... .. . ... ...
ROW DF : ... .. 0 ... ... ... : ... .. 0 ... ... ... : ... .. . ... : ... .. 3 ... : ... .. . ... ... : ... .. . ... ... : ... .. . ... ... : ... .. . ... ...
ROW E0 : A-2 00 F P80 ... ... : E-3 00 F P80 ... ... : G#4 00 . ... : 4-# 00 F ... : ... .. . ... ... : ... .. . ... ... : ... .. . ... ... : A-0 01 C ... ...
ROW E1 : ... .. E ... ... ... : ... .. E ... ... ... : A#3 00 . ... : ... .. C ... : ... .. . ... ... : ... .. . ... ... : ... .. . ... ... : ... .. A ... ...
ROW E2 : ... .. D ... ... ... : ... .. D ... ... ... : D#3 00 . ... : ... .. 6 ... : ... .. . ... ... : ... .. . ... ... : ... .. . ... ... : ... .. 6 ... ...
ROW E3 : ... .. 0 ... ... ... : ... .. 0 ... ... ... : D-3 00 . ... : ... .. 3 ... : ... .. . ... ... : ... .. . ... ... : ... .. . ... ... : ... .. . ... ...
ROW E4 : A-2 00 F P80 ... ... : E-3 00 F P80 ... ... : A-2 00 . ... : 6-# 00 F ... : ... .. . ... ... : ... .. . ... ... : ... .. . ... ... : ... .. . ... ...
ROW E5 : ... .. E ... ... ... : ... .. E ... ... ... : ... .. . ... : ... .. C ... : ... .. . ... ... : ... .. . ... ... : ... .. . ... ... : ... .. . ... ...
ROW E6 : ... .. D ... ... ... : ... .. D ... ... ... : ... .. . ... : ... .. 6 ... : ... .. . ... ... : ... .. . ... ... : ... .. . ... ... : ... .. . ... ...
ROW E7 : ... .. 0 ... ... ... : ... .. 0 ... ... ... : ... .. . ... : ... .. 3 ... : ... .. . ... ... : ... .. . ... ... : ... .. . ... ... : ... .. . ... ...
ROW E8 : D-3 00 F P80 ... ... : A-3 00 F P80 ... ... : C#5 00 . ... : 8-# 00 F ... : ... .. . ... ... : ... .. . ... ... : ... .. . ... ... : D-1 01 C ... ...
ROW E9 : ... .. E ... ... ... : ... .. E ... ... ... : D#4 00 . ... : ... .. C ... : ... .. . ... ... : ... .. . ... ... : ... .. . ... ... : ... .. A ... ...
ROW EA : ... .. D ... ... ... : ... .. D ... ... ... : G#3 00 . ... : ... .. 6 ... : ... .. . ... ... : ... .. . ... ... : ... .. . ... ... : ... .. 6 ... ...
ROW EB : ... .. 0 ... ... ... : ... .. 0 ... ... ... : G-3 00 . ... : ... .. 3 ... : ... .. . ... ... : ... .. . ... ... : ... .. . ... ... : ... .. . ... ...
ROW EC : D-3 00 F P80 ... ... : A-3 00 F P80 ... ... : D-3 00 . ... : 9-# 00 F ... : ... .. . ... ... : ... .. . ... ... : ... .. . ... ... : ... .. . ... ...
ROW ED : ... .. E ... ... ... : ... .. E ... ... ... : ... .. . ... : ... .. C ... : ... .. . ... ... : ... .. . ... ... : ... .. . ... ... : ... .. . ... ...
ROW EE : ... .. D ... ... ... : ... .. D ... ... ... : ... .. . ... : ... .. 6 ... : ... .. . ... ... : ... .. . ... ... : ... .. . ... ... : ... .. . ... ...
ROW EF : ... .. 0 ... ... ... : ... .. 0 ... ... ... : ... .. . ... : ... .. 3 ... : ... .. . ... ... : ... .. . ... ... : ... .. . ... ... : ... .. . ... ...
ROW F0 : C-3 00 F P80 ... ... : G-3 00 F P80 ... ... : B-4 00 . ... : B-# 00 F ... : ... .. . ... ... : ... .. . ... ... : ... .. . ... ... : C-1 01 C ... ...
ROW F1 : ... .. E ... ... ... : ... .. E ... ... ... : C#4 00 . ... : ... .. C ... : ... .. . ... ... : ... .. . ... ... : ... .. . ... ... : ... .. A ... ...
ROW F2 : ... .. D ... ... ... : ... .. D ... ... ... : F#3 00 . ... : ... .. 6 ... : ... .. . ... ... : ... .. . ... ... : ... .. . ... ... : ... .. 6 ... ...
ROW F3 : ... .. 0 ... ... ... : ... .. 0 ... ... ... : F-3 00 . ... : ... .. 3 ... : ... .. . ... ... : ... .. . ... ... : ... .. . ... ... : ... .. . ... ...
ROW F4 : C-3 00 F P80 ... ... : G-3 00 F P80 ... ... : C-3 00 . ... : D-# 00 F ... : ... .. . ... ... : ... .. . ... ... : ... .. . ... ... : ... .. . ... ...
ROW F5 : ... .. E ... ... ... : ... .. E ... ... ... : ... .. . ... : ... .. C ... : ... .. . ... ... : ... .. . ... ... : ... .. . ... ... : ... .. . ... ...
ROW F6 : ... .. D ... ... ... : ... .. D ... ... ... : ... .. . ... : ... .. 6 ... : ... .. . ... ... : ... .. . ... ... : ... .. . ... ... : ... .. . ... ...
ROW F7 : ... .. 0 ... ... ... : ... .. 0 ... ... ... : ... .. . ... : ... .. 3 ... : ... .. . ... ... : ... .. . ... ... : ... .. . ... ... : ... .. . ... ...
ROW F8 : F#3 00 F P80 ... ... : C#4 00 F P80 ... ... : F-5 00 . ... : E-# 00 F ... : ... .. . ... ... : ... .. . ... ... : ... .. . ... ... : F-1 01 C ... ...
ROW F9 : ... .. E ... ... ... : ... .. E ... ... ... : G-4 00 . ... : ... .. C ... : ... .. . ... ... : ... .. . ... ... : ... .. . ... ... : ... .. A ... ...
ROW FA : ... .. D ... ... ... : ... .. D ... ... ... : C-4 00 . ... : ... .. 6 ... : ... .. . ... ... : ... .. . ... ... : ... .. . ... ... : ... .. 6 ... ...
ROW FB : ... .. 0 ... ... ... : ... .. 0 ... ... ... : B-3 00 . ... : ... .. 3 ... : ... .. . ... ... : ... .. . ... ... : ... .. . ... ... : ... .. . ... ...
ROW FC : F#3 00 F P80 ... ... : C#4 00 F P80 ... ... : F#3 00 . ... : F-# 00 F ... : ... .. . ... ... : ... .. . ... ... : ... .. . ... ... : ... .. . ... ...
ROW FD : ... .. E ... ... ... : ... .. E ... ... ... : ... .. . ... : ... .. C ... : ... .. . ... ... : ... .. . ... ... : ... .. . ... ... : ... .. . ... ...
ROW FE : ... .. D ... ... ... : ... .. D ... ... ... : ... .. . ... : ... .. 6 ... : ... .. . ... ... : ... .. . ... ... : ... .. . ... ... : ... .. . ... ...
ROW FF : ... .. 0 ... ... ... : ... .. 0 ... ... ... : ... .. . ... : ... .. 3 ... : ... .. . ... ... : ... .. . ... ... : ... .. . ... ... : ... .. . ... ...

PATTERN 02
ROW 00 : F-3 00 F P80 ... ... : C-4 00 F P80 ... ... : E-5 00 . ... : B-# 00 C ... : ... .. . ... ... : D#4 01 A P80 ... : F-3 01 A P80 ... : ... .. C ... ...
ROW 01 : ... .. E ... ... ... : ... .. E ... ... ... : F#4 00 . ... : ... .. . ... : ... .. . ... ... : ... .. 9 ... ... : ... .. 9 ... ... : ... .. A ... ...
ROW 02 : ... .. D ... ... ... : ... .. D ... ... ... : B-3 00 . ... : ... .. A ... : ... .. . ... ... : ... .. 8 ... ... : ... .. 8 ... ... : ... .. 6 ... ...
ROW 03 : ... .. A ... ... ... : ... .. A ... ... ... : A#3 00 . ... : ... .. . ... : ... .. . ... ... : ... .. 7 ... ... : ... .. 7 ... ... : ... .. . ... ...
ROW 04 : ... .. . ... ... ... : ... .. . ... ... ... : F-3 00 . ... : ... .. 9 ... : ... .. . ... ... : ... .. . ... ... : ... .. . ... ... : ... .. . ... ...
ROW 05 : ... .. . ... ... ... : ... .. . ... ... ... : ... .. . ... : ... .. . ... : ... .. . ... ... : ... .. 6 ... ... : ... .. 6 ... ... : ... .. . ... ...
ROW 06 : ... .. . ... ... ... : ... .. . ... ... ... : ... .. . ... : ... .. 8 ... : ... .. . ... ... : --- .. . ... ... : ... .. . ... ... : ... .. . ... ...
ROW 07 : ... .. 2 ... ... ... : ... .. 2 ... ... ... : ... .. . ... : ... .. . ... : ... .. . ... ... : ... .. . ... ... : ... .. 5 ... ... : ... .. . ... ...
ROW 08 : F-1 00 F ... ... ... : D#4 00 F ... ... ... : D#3 00 . P88 : ... .. 7 ... : ... .. . ... ... : G#3 01 A ... ... : F#3 01 A ... ... : ... .. . P60 ...
ROW 09 : ... .. E ... ... ... : ... .. E ... ... ... : D-3 00 . P7D : ... .. . ... : ... .. . ... ... : ... .. 9 ... ... : ... .. 9 ... ... : E-1 01 6 P97 ...
ROW 0A : ... .. D ... ... ... : ... .. D ... ... ... : C-3 00 . P8C : ... .. 6 ... : ... .. . ... ... : ... .. 8 ... ... : ... .. 8 ... ... : ... .. . P77 ...
ROW 0B : ... .. A ... ... ... : ... .. A ... ... ... : B-2 00 . P85 : ... .. . ... : ... .. . ... ... : ... .. 7 ... ... : ... .. 7 ... ... : ... .. . P57 ...
ROW 0C : ... .. . ... ... ... : ... .. . ... ... ... : A#2 00 . P80 : ... .. 5 ... : ... .. . ... ... : ... .. . ... ... : F-3 01 6 ... ... : --- .. . P82 ...
ROW 0D : ... .. . ... ... ... : ... .. . ... ... ... : A-2 00 . P7C : ... .. . ... : ... .. . ... ... : ... .. 6 ... ... : ... .. . ... ... : ... .. . ... ...
ROW 0E : ... .. . ... ... ... : ... .. . ... ... ... : G#2 00 . P7B : ... .. 4 ... : ... .. . ... ... : --- .. . P82 ... : ... .. 5 ... ... : ... .. . ... ...
ROW 0F : ... .. 2 ... ... ... : ... .. 2 ... ... ... : G-2 00 . ... : ... .. . ... : ... .. . ... ... : ... .. . ... ... : ... .. 4 ... ... : ... .. . ... ...
ROW 10 : ... .. F ... ... ... : D-4 00 F ... ... ... : F-4 00 . P80 : 1-# 00 F ... : ... .. . ... ... : G#3 01 A P80 ... : G#3 01 A ... ... : F-2 01 C P80 ...
ROW 11 : ... .. E ... ... ... : ... .. E ... ... ... : ... .. . ... : ... .. C ... : ... .. . ... ... : ... .. 9 ... ... : ... .. 9 ... ... : ... .. A ... ...
ROW 12 : ... .. D ... ... ... : ... .. D ... ... ... : ... .. . ... : ... .. 6 ... : ... .. . ... ... : ... .. 8 ... ... : ... .. 8 ... ... : ... .. 6 ... ...
ROW 13 : ... .. A ... ... ... : ... .. A ... ... ... : ... .. . ... : ... .. 3 ... : ... .. . ... ... : ... .. 7 ... ... : ... .. 7 ... ... : ... .. . ... ...
ROW 14 : ... .. . ... ... ... : ... .. . ... ... ... : ... .. . ... : ... .. 2 ... : ... .. . ... ... : ... .. . ... ... : F#3 01 6 ... ... : --- .. . P7E ...
ROW 15 : ... .. . ... ... ... : ... .. . ... ... ... : ... .. . ... : ... .. 0 ... : ... .. . ... ... : ... .. 6 ... ... : ... .. . ... ... : ... .. . ... ...
ROW 16 : ... .. . ... ... ... : ... .. . ... ... ... : ... .. . ... : ... .. . ... : ... .. . ... ... : --- .. . P82 ... : ... .. 5 ... ... : ... .. . ... ...
ROW 17 : ... .. 2 ... ... ... : ... .. 2 ... ... ... : ... .. . ... : ... .. . ... : ... .. . ... ... : ... .. . ... ... : ... .. 4 ... ... : ... .. . ... ...
ROW 18 : G#3 00 F ... ... ... : F-3 00 F ... ... ... : E-4 00 . ... : 9-# 00 D ... : ... .. . ... ... : D#4 01 A P80 ... : F-3 01 A ... ... : F-0 01 C P80 ...
ROW 19 : ... .. E ... ... ... : ... .. E ... ... ... : F#3 00 . ... : ... .. B ... : ... .. . ... ... : ... .. 9 ... ... : ... .. 9 ... ... : ... .. A ... ...
ROW 1A : ... .. D ... ... ... : ... .. D ... ... ... : B-2 00 . ... : ... .. . ... : ... .. . ... ... : ... .. 8 ... ... : ... .. 8 ... ... : ... .. 6 ... ...
ROW 1B : ... .. A ... ... ... : ... .. A ... ... ... : A#2 00 . ... : ... .. A ... : ... .. . ... ... : ... .. 7 ... ... : ... .. 7 ... ... : ... .. . ... ...
ROW 1C : ... .. . ... ... ... : ... .. . ... ... ... : F-2 00 . ... : ... .. 8 ... : ... .. . ... ... : ... .. . ... ... : G#3 01 6 ... ... : ... .. . ... ...
ROW 1D : ... .. . ... ... ... : ... .. . ... ... ... : ... .. . ... : ... .. 7 ... : ... .. . ... ... : ... .. 6 ... ... : ... .. . ... ... : ... .. . ... ...
ROW 1E : ... .. . ... ... ... : ... .. . ... ... ... : ... .. . ... : ... .. 6 ... : ... .. . ... ... : --- .. . ... ... : ... .. 5 ... ... : ... .. . ... ...
ROW 1F : ... .. 2 ... ... ... : ... .. 2 ... ... ... : ... .. . ... : ... .. . ... : ... .. . ... ... : ... .. . ... ... : ... .. 4 ... ... : ... .. . ... ...
ROW 20 : F-1 00 F ... ... ... : C-4 00 F ... ... ... : E-2 00 . P86 : 1-# 00 F ... : ... .. . ... ... : G#3 01 A ... ... : F#3 01 A ... ... : ... .. . P60 ...
ROW 21 : ... .. E ... ... ... : ... .. E ... ... ... : D#2 00 . P8E : ... .. C ... : ... .. . ... ... : ... .. 9 ... ... : ... .. 9 ... ... : ... .. . P40 ...
ROW 22 : ... .. D ... ... ... : ... .. D ... ... ... : ... .. . P6E : ... .. 6 ... : ... .. . ... ... : ... .. 8 ... ... : ... .. 8 ... ... : E-0 01 6 PCE ...
ROW 23 : ... .. A ... ... ... : ... .. A ... ... ... : D-2 00 . P79 : ... .. 3 ... : ... .. . ... ... : ... .. 7 ... ... : ... .. 7 ... ... : ... .. . PAE ...
ROW 24 : ... .. . ... ... ... : ... .. . ... ... ... : C#2 00 . P86 : ... .. 2 ... : ... .. . ... ... : ... .. . ... ... : F-3 01 6 ... ... : --- .. . P83 ...
ROW 25 : ... .. . ... ... ... : ... .. . ... ... ... : C-2 00 . P96 : ... .. 0 ... : ... .. . ... ... : ... .. 6 ... ... : ... .. . ... ... : ... .. . ... ...
ROW 26 : ... .. . ... ... ... : ... .. . ... ... ... : ... .. . P76 : ... .. . ... : ... .. . ... ... : --- .. . P82 ... : ... .. 5 ... ... : ... .. . ... ...
ROW 27 : ... .. 2 ... ... ... : ... .. 2 ... ... ... : B-1 00 . P89 : ... .. . ... : ... .. . ... ... : ... .. . ... ... : ... .. 4 ... ... : ... .. . ... ...
ROW 28 : ... .. F ... ... ... : B-3 00 F ... ... ... : F-4 00 . P80 : ... .. F ... : ... .. . ... ... : G#3 01 A P80 ... : G#3 01 A ... ... : F-2 01 C P80 ...
ROW 29 : ... .. E ... ... ... : ... .. E ... ... ... : ... .. . ... : ... .. C ... : ... .. . ... ... : ... .. 9 ... ... : ... .. 9 ... ... : ... .. A ... ...
ROW 2A : ... .. D ... ... ... : ... .. D ... ... ... : ... .. . ... : ... .. 6 ... : ... .. . ... ... : ... .. 8 ... ... : ... .. 8 ... ... : ... .. 6 ... ...
ROW 2B : ... .. A ... ... ... : ... .. A ... ... ... : ... .. . ... : ... .. 3 ... : ... .. . ... ... : ... .. 7 ... ... : ... .. 7 ... ... : ... .. . ... ...
ROW 2C : ... .. . ... ... ... : ... .. . ... ... ... : ... .. . ... : ... .. 2 ... : ... .. . ... ... : ... .. . ... ... : F#3 01 6 ... ... : --- .. . P7E ...
ROW 2D : ... .. . ... ... ... : ... .. . ... ... ... : ... .. . ... : ... .. 0 ... : ... .. . ... ... : ... .. 6 ... ... : ... .. . ... ... : ... .. . ... ...
ROW 2E : ... .. . ... ... ... : ... .. . ... ... ... : ... .. . ... : ... .. . ... : ... .. . ... ... : --- .. . P82 ... : ... .. 5 ... ... : ... .. . ... ...
ROW 2F : ... .. 2 ... ... ... : ... .. 2 ... ... ... : ... .. . ... : ... .. . ... : ... .. . ... ... : ... .. . ... ... : ... .. 4 ... ... : ... .. . ... ...
ROW 30 : A#3 00 F ... ... ... : F-3 00 F ... ... ... : E-5 00 . ... : B-# 00 D ... : ... .. . ... ... : F-4 01 A P80 ... : F-3 01 A ... ... : F-1 01 C P80 ...
ROW 31 : ... .. E ... ... ... : ... .. E ... ... ... : F#4 00 . ... : ... .. B ... : ... .. . ... ... : ... .. 9 ... ... : ... .. 9 ... ... : ... .. A ... ...
ROW 32 : ... .. D ... ... ... : ... .. D ... ... ... : B-3 00 . ... : ... .. . ... : ... .. . ... ... : ... .. 8 ... ... : ... .. 8 ... ... : ... .. 6 ... ...
ROW 33 : ... .. A ... ... ... : ... .. A ... ... ... : A#3 00 . ... : ... .. A ... : ... .. . ... ... : ... .. 7 ... ... : ... .. 7 ... ... : ... .. . ... ...
ROW 34 : ... .. . ... ... ... : ... .. . ... ... ... : F-3 00 . ... : ... .. 8 ... : ... .. . ... ... : ... .. . ... ... : G#3 01 6 ... ... : ... .. . ... ...
ROW 35 : ... .. . ... ... ... : ... .. . ... ... ... : ... .. . ... : ... .. 7 ... : ... .. . ... ... : ... .. 6 ... ... : ... .. . ... ... : ... .. . ... ...
ROW 36 : ... .. . ... ... ... : ... .. . ... ... ... : ... .. . ... : ... .. 6 ... : ... .. . ... ... : --- .. . ... ... : ... .. 5 ... ... : ... .. . ... ...
ROW 37 : ... .. 2 ... ... ... : ... .. 2 ... ... ... : ... .. . ... : ... .. . ... : ... .. . ... ... : ... .. . ... ... : ... .. 4 ... ... : ... .. . ... ...
ROW 38 : F-1 00 F ... ... ... : D#4 00 F ... ... ... : ... .. . ... : 1-# 00 F ... : ... .. . ... ... : A#3 01 A ... ... : F#3 01 A ... ... : ... .. . ... ...
ROW 39 : ... .. E ... ... ... : ... .. E ... ... ... : ... .. . ... : ... .. C ... : ... .. . ... ... : ... .. 9 ... ... : ... .. 9 ... ... : ... .. . ... ...
ROW 3A : ... .. D ... ... ... : ... .. D ... ... ... : ... .. . ... : ... .. 6 ... : ... .. . ... ... : ... .. 8 ... ... : ... .. 8 ... ... : ... .. . ... ...
ROW 3B : ... .. A ... ... ... : ... .. A ... ... ... : ... .. . ... : ... .. 3 ... : ... .. . ... ... : ... .. 7 ... ... : ... .. 7 ... ... : ... .. . ... ...
ROW 3C : ... .. . ... ... ... : ... .. . ... ... ... : ... .. . ... : ... .. 2 ... : ... .. . ... ... : ... .. . ... ... : F-3 01 6 ... ... : --- .. . P7F ...
ROW 3D : ... .. . ... ... ... : ... .. . ... ... ... : ... .. . ... : ... .. 0 ... : ... .. . ... ... : ... .. 6 ... ... : ... .. . ... ... : ... .. . ... ...
ROW 3E : ... .. . ... ... ... : ... .. . ... ... ... : ... .. . ... : ... .. . ... : ... .. . ... ... : --- .. . ... ... : ... .. 5 ... ... : ... .. . ... ...
ROW 3F : ... .. 2 ... ... ... : ... .. 2 ... ... ... : ... .. . ... : ... .. . ... : ... .. . ... ... : ... .. . ... ... : ... .. 4 ... ... : ... .. . ... ...
ROW 40 : ... .. F ... ... ... : D-4 00 F ... ... ... : D#3 00 . ... : ... .. F ... : ... .. . ... ... : A#3 01 A ... ... : G#3 01 A ... ... : D#1 01 C P80 ...
ROW 41 : ... .. E ... ... ... : ... .. E ... ... ... : ... .. . ... : ... .. C ... : ... .. . ... ... : ... .. 9 ... ... : ... .. 9 ... ... : ... .. A ... ...
ROW 42 : ... .. D ... ... ... : ... .. D ... ... ... : ... .. . ... : ... .. 6 ... : ... .. . ... ... : ... .. 8 ... ... : ... .. 8 ... ... : ... .. 6 ... ...
ROW 43 : ... .. A ... ... ... : ... .. A ... ... ... : ... .. . ... : ... .. 3 ... : ... .. . ... ... : ... .. 7 ... ... : ... .. 7 ... ... : ... .. . ... ...
ROW 44 : ... .. . ... ... ... : ... .. . ... ... ... : ... .. . ... : ... .. 2 ... : ... .. . ... ... : ... .. . ... ... : F#3 01 6 ... ... : --- .. . P81 ...
ROW 45 : ... .. . ... ... ... : ... .. . ... ... ... : ... .. . ... : ... .. 0 ... : ... .. . ... ... : ... .. 6 ... ... : ... .. . ... ... : ... .. . ... ...
ROW 46 : ... .. . ... ... ... : ... .. . ... ... ... : ... .. . ... : ... .. . ... : ... .. . ... ... : --- .. . ... ... : ... .. 5 ... ... : ... .. . ... ...
ROW 47 : ... .. 2 ... ... ... : ... .. 2 ... ... ... : ... .. . ... : ... .. . ... : ... .. . ... ... : ... .. . ... ... : ... .. 4 ... ... : ... .. . ... ...
ROW 48 : B-3 00 F ... ... ... : F-3 00 F ... ... ... : E-4 00 . ... : 9-# 00 D ... : ... .. . ... ... : F#4 01 A ... ... : ... .. A ... ... : F-0 01 C P80 ...
ROW 49 : ... .. E ... ... ... : ... .. E ... ... ... : F#3 00 . ... : ... .. B ... : ... .. . ... ... : ... .. 9 ... ... : ... .. 9 ... ... : ... .. A ... ...
ROW 4A : ... .. D ... ... ... : ... .. D ... ... ... : B-2 00 . ... : ... .. . ... : ... .. . ... ... : ... .. 8 ... ... : ... .. 8 ... ... : ... .. 6 ... ...
ROW 4B : ... .. A ... ... ... : ... .. A ... ... ... : A#2 00 . ... : ... .. A ... : ... .. . ... ... : ... .. 7 ... ... : ... .. 7 ... ... : ... .. . ... ...
ROW 4C : ... .. . ... ... ... : ... .. . ... ... ... : F-2 00 . ... : ... .. 8 ... : ... .. . ... ... : ... .. . ... ... : G#3 01 6 ... ... : --- .. . P82 ...
ROW 4D : ... .. . ... ... ... : ... .. . ... ... ... : ... .. . ... : ... .. 7 ... : ... .. . ... ... : ... .. 6 ... ... : ... .. . ... ... : ... .. . ... ...
ROW 4E : ... .. . ... ... ... : ... .. . ... ... ... : ... .. . ... : ... .. 6 ... : ... .. . ... ... : --- .. . ... ... : ... .. 5 ... ... : ... .. . ... ...
ROW 4F : ... .. 2 ... ... ... : ... .. 2 ... ... ... : ... .. . ... : ... .. . ... : ... .. . ... ... : ... .. . ... ... : ... .. 4 ... ... : ... .. . ... ...
ROW 50 : F-1 00 F ... ... ... : C-4 00 F ... ... ... : D#2 00 . ... : 1-# 00 F ... : ... .. . ... ... : B-3 01 A ... ... : ... .. A ... ... : D#0 01 C P80 ...
ROW 51 : ... .. E ... ... ... : ... .. E ... ... ... : ... .. . ... : ... .. C ... : ... .. . ... ... : ... .. 9 ... ... : ... .. 9 ... ... : ... .. A ... ...
ROW 52 : ... .. D ... ... ... : ... .. D ... ... ... : ... .. . ... : ... .. 6 ... : ... .. . ... ... : ... .. 8 ... ... : ... .. 8 ... ... : ... .. 6 ... ...
ROW 53 : ... .. A ... ... ... : ... .. A ... ... ... : ... .. . ... : ... .. 3 ... : ... .. . ... ... : ... .. 7 ... ... : ... .. 7 ... ... : ... .. . ... ...
ROW 54 : ... .. . ... ... ... : ... .. . ... ... ... : ... .. . ... : ... .. 2 ... : ... .. . ... ... : ... .. . ... ... : F#3 01 6 ... ... : --- .. . P83 ...
ROW 55 : ... .. . ... ... ... : ... .. . ... ... ... : ... .. . ... : ... .. 0 ... : ... .. . ... ... : ... .. 6 ... ... : ... .. . ... ... : ... .. . ... ...
ROW 56 : ... .. . ... ... ... : ... .. . ... ... ... : ... .. . ... : ... .. . ... : ... .. . ... ... : --- .. . ... ... : ... .. 5 ... ... : ... .. . ... ...
ROW 57 : ... .. 2 ... ... ... : ... .. 2 ... ... ... : ... .. . ... : ... .. . ... : ... .. . ... ... : ... .. . ... ... : ... .. 4 ... ... : ... .. . ... ...
ROW 58 : ... .. F ... ... ... : B-3 00 F ... ... ... : F-2 00 . ... : 8-# 00 8 ... : ... .. . ... ... : B-3 01 A ... ... : A-3 01 A ... ... : F-0 01 C P80 ...
ROW 59 : ... .. E ... ... ... : ... .. E ... ... ... : ... .. . ... : ... .. 6 ... : ... .. . ... ... : ... .. 9 ... ... : ... .. 9 ... ... : ... .. A ... ...
ROW 5A : ... .. D ... ... ... : ... .. D ... ... ... : ... .. . ... : ... .. 0 ... : ... .. . ... ... : ... .. 8 ... ... : ... .. 8 ... ... : ... .. 6 ... ...
ROW 5B : ... .. A ... ... ... : ... .. A ... ... ... : ... .. . ... : ... .. . ... : ... .. . ... ... : ... .. 7 ... ... : ... .. 7 ... ... : ... .. . ... ...
ROW 5C : ... .. . ... ... ... : ... .. . ... ... ... : ... .. . ... : ... .. 8 ... : ... .. . ... ... : ... .. . ... ... : G#3 01 6 ... ... : --- .. . P82 ...
ROW 5D : ... .. . ... ... ... : ... .. . ... ... ... : ... .. . ... : ... .. 6 ... : ... .. . ... ... : ... .. 6 ... ... : ... .. . ... ... : ... .. . ... ...
ROW 5E : ... .. . ... ... ... : ... .. . ... ... ... : ... .. . ... : ... .. 0 ... : ... .. . ... ... : --- .. . ... ... : ... .. 5 ... ... : ... .. . ... ...
ROW 5F : ... .. 2 ... ... ... : ... .. 2 ... ... ... : ... .. . ... : ... .. . ... : ... .. . ... ... : ... .. . ... ... : ... .. 4 ... ... : ... .. . ... ...
ROW 60 : G#3 00 F ... ... ... : F-3 00 F ... ... ... : E-5 00 . ... : 9-# 00 D ... : ... .. . ... ... : D#4 01 A ... ... : F-3 01 A ... ... : F-1 01 C P80 ...
ROW 61 : ... .. E ... ... ... : ... .. E ... ... ... : F#4 00 . ... : ... .. B ... : ... .. . ... ... : ... .. 9 ... ... : ... .. 9 ... ... : ... .. A ... ...
ROW 62 : ... .. D ... ... ... : ... .. D ... ... ... : B-3 00 . ... : ... .. . ... : ... .. . ... ... : ... .. 8 ... ... : ... .. 8 ... ... : ... .. 6 ... ...
ROW 63 : ... .. A ... ... ... : ... .. A ... ... ... : A#3 00 . ... : ... .. A ... : ... .. . ... ... : ... .. 7 ... ... : ... .. 7 ... ... : ... .. . ... ...
ROW 64 : ... .. . ... ... ... : ... .. . ... ... ... : F-3 00 . ... : ... .. 8 ... : ... .. . ... ... : ... .. . ... ... : A-3 01 6 ... ... : ... .. . ... ...
ROW 65 : ... .. . ... ... ... : ... .. . ... ... ... : ... .. . ... : ... .. 7 ... : ... .. . ... ... : ... .. 6 ... ... : ... .. . ... ... : ... .. . ... ...
ROW 66 : ... .. . ... ... ... : ... .. . ... ... ... : ... .. . ... : ... .. 6 ... : ... .. . ... ... : --- .. . ... ... : ... .. 5 ... ... : ... .. . ... ...
ROW 67 : ... .. 2 ... ... ... : ... .. 2 ... ... ... : ... .. . ... : ... .. . ... : ... .. . ... ... : ... .. . ... ... : ... .. 4 ... ... : ... .. . ... ...
ROW 68 : F-1 00 F ... ... ... : D#4 00 F ... ... ... : D#3 00 . P88 : 1-# 00 F ... : ... .. . ... ... : G#3 01 A ... ... : F#3 01 A ... ... : ... .. . P60 ...
ROW 69 : ... .. E ... ... ... : ... .. E ... ... ... : D-3 00 . P7D : ... .. C ... : ... .. . ... ... : ... .. 9 ... ... : ... .. 9 ... ... : E-1 01 6 P97 ...
ROW 6A : ... .. D ... ... ... : ... .. D ... ... ... : C-3 00 . P8C : ... .. 6 ... : ... .. . ... ... : ... .. 8 ... ... : ... .. 8 ... ... : ... .. . P77 ...
ROW 6B : ... .. A ... ... ... : ... .. A ... ... ... : B-2 00 . P85 : ... .. 3 ... : ... .. . ... ... : ... .. 7 ... ... : ... .. 7 ... ... : ... .. . P57 ...
ROW 6C : ... .. . ... ... ... : ... .. . ... ... ... : A#2 00 . P80 : ... .. F ... : ... .. . ... ... : ... .. . ... ... : F-3 01 6 ... ... : --- .. . P82 ...
ROW 6D : ... .. . ... ... ... : ... .. . ... ... ... : A-2 00 . P7C : ... .. C ... : ... .. . ... ... : ... .. 6 ... ... : ... .. . ... ... : ... .. . ... ...
ROW 6E : ... .. . ... ... ... : ... .. . ... ... ... : G#2 00 . P7B : ... .. 6 ... : ... .. . ... ... : --- .. . P82 ... : ... .. 5 ... ... : ... .. . ... ...
ROW 6F : ... .. 2 ... ... ... : ... .. 2 ... ... ... : G-2 00 . ... : ... .. 3 ... : ... .. . ... ... : ... .. . ... ... : ... .. 4 ... ... : ... .. . ... ...
ROW 70 : ... .. F ... ... ... : D-4 00 F ... ... ... : F-4 00 . P80 : ... .. F ... : ... .. . ... ... : G#3 01 A P80 ... : G#3 01 A ... ... : F-2 01 C P80 ...
ROW 71 : ... .. E ... ... ... : ... .. E ... ... ... : ... .. . ... : ... .. C ... : ... .. . ... ... : ... .. 9 ... ... : ... .. 9 ... ... : ... .. A ... ...
ROW 72 : ... .. D ... ... ... : ... .. D ... ... ... : ... .. . ... : ... .. 6 ... : ... .. . ... ... : ... .. 8 ... ... : ... .. 8 ... ... : ... .. 6 ... ...
ROW 73 : ... .. A ... ... ... : ... .. A ... ... ... : ... .. . ... : ... .. 3 ... : ... .. . ... ... : ... .. 7 ... ... : ... .. 7 ... ... : ... .. . ... ...
ROW 74 : ... .. . ... ... ... : ... .. . ... ... ... : ... .. . ... : ... .. 2 ... : ... .. . ... ... : ... .. . ... ... : F#3 01 6 ... ... : --- .. . P7E ...
ROW 75 : ... .. . ... ... ... : ... .. . ... ... ... : ... .. . ... : ... .. 0 ... : ... .. . ... ... : ... .. 6 ... ... : ... .. . ... ... : ... .. . ... ...
ROW 76 : ... .. . ... ... ... : ... .. . ... ... ... : ... .. . ... : ... .. . ... : ... .. . ... ... : --- .. . P82 ... : ... .. 5 ... ... : ... .. . ... ...
ROW 77 : ... .. 2 ... ... ... : ... .. 2 ... ... ... : ... .. . ... : ... .. . ... : ... .. . ... ... : ... .. . ... ... : ... .. 4 ... ... : ... .. . ... ...
ROW 78 : G#3 00 F ... ... ... : F-3 00 F ... ... ... : E-4 00 . ... : 9-# 00 D ... : ... .. . ... ... : D#4 01 A P80 ... : F-3 01 A ... ... : F-0 01 C P80 ...
ROW 79 : ... .. E ... ... ... : ... .. E ... ... ... : F#3 00 . ... : ... .. B ... : ... .. . ... ... : ... .. 9 ... ... : ... .. 9 ... ... : ... .. A ... ...
ROW 7A : ... .. D ... ... ... : ... .. D ... ... ... : B-2 00 . ... : ... .. . ... : ... .. . ... ... : ... .. 8 ... ... : ... .. 8 ... ... : ... .. 6 ... ...
ROW 7B : ... .. A ... ... ... : ... .. A ... ... ... : A#2 00 . ... : ... .. A ... : ... .. . ... ... : ... .. 7 ... ... : ... .. 7 ... ... : ... .. . ... ...
ROW 7C : ... .. . ... ... ... : ... .. . ... ... ... : F-2 00 . ... : ... .. 8 ... : ... .. . ... ... : ... .. . ... ... : G#3 01 6 ... ... : ... .. . ... ...
ROW 7D : ... .. . ... ... ... : ... .. . ... ... ... : ... .. . ... : ... .. 7 ... : ... .. . ... ... : ... .. 6 ... ... : ... .. . ... ... : ... .. . ... ...
ROW 7E : ... .. . ... ... ... : ... .. . ... ... ... : ... .. . ... : ... .. 6 ... : ... .. . ... ... : --- .. . ... ... : ... .. 5 ... ... : ... .. . ... ...
ROW 7F : ... .. 2 ... ... ... : ... .. 2 ... ... ... : ... .. . ... : ... .. . ... : ... .. . ... ... : ... .. . ... ... : ... .. 4 ... ... : ... .. . ... ...
ROW 80 : F-1 00 F ... ... ... : C-4 00 F ... ... ... : E-2 00 . P86 : 1-# 00 F ... : ... .. . ... ... : G#3 01 A ... ... : F#3 01 A ... ... : ... .. . P60 ...
ROW 81 : ... .. E ... ... ... : ... .. E ... ... ... : D#2 00 . P8E : ... .. C ... : ... .. . ... ... : ... .. 9 ... ... : ... .. 9 ... ... : ... .. . P40 ...
ROW 82 : ... .. D ... ... ... : ... .. D ... ... ... : ... .. . P6E : ... .. 6 ... : ... .. . ... ... : ... .. 8 ... ... : ... .. 8 ... ... : E-0 01 6 PCE ...
ROW 83 : ... .. A ... ... ... : ... .. A ... ... ... : D-2 00 . P79 : ... .. 3 ... : ... .. . ... ... : ... .. 7 ... ... : ... .. 7 ... ... : ... .. . PAE ...
ROW 84 : ... .. . ... ... ... : ... .. . ... ... ... : C#2 00 . P86 : ... .. 2 ... : ... .. . ... ... : ... .. . ... ... : F-3 01 6 ... ... : --- .. . P83 ...
ROW 85 : ... .. . ... ... ... : ... .. . ... ... ... : C-2 00 . P96 : ... .. 0 ... : ... .. . ... ... : ... .. 6 ... ... : ... .. . ... ... : ... .. . ... ...
ROW 86 : ... .. . ... ... ... : ... .. . ... ... ... : ... .. . P76 : ... .. . ... : ... .. . ... ... : --- .. . P82 ... : ... .. 5 ... ... : ... .. . ... ...
ROW 87 : ... .. 2 ... ... ... : ... .. 2 ... ... ... : B-1 00 . P89 : ... .. . ... : ... .. . ... ... : ... .. . ... ... : ... .. 4 ... ... : ... .. . ... ...
ROW 88 : ... .. F ... ... ... : B-3 00 F ... ... ... : F-4 00 . P80 : ... .. F ... : ... .. . ... ... : G#3 01 A P80 ... : G#3 01 A ... ... : F-2 01 C P80 ...
ROW 89 : ... .. E ... ... ... : ... .. E ... ... ... : ... .. . ... : ... .. C ... : ... .. . ... ... : ... .. 9 ... ... : ... .. 9 ... ... : ... .. A ... ...
ROW 8A : ... .. D ... ... ... : ... .. D ... ... ... : ... .. . ... : ... .. 6 ... : ... .. . ... ... : ... .. 8 ... ... : ... .. 8 ... ... : ... .. 6 ... ...
ROW 8B : ... .. A ... ... ... : ... .. A ... ... ... : ... .. . ... : ... .. 3 ... : ... .. . ... ... : ... .. 7 ... ... : ... .. 7 ... ... : ... .. . ... ...
ROW 8C : ... .. . ... ... ... : ... .. . ... ... ... : ... .. . ... : ... .. 2 ... : ... .. . ... ... : ... .. . ... ... : F#3 01 6 ... ... : --- .. . P7E ...
ROW 8D : ... .. . ... ... ... : ... .. . ... ... ... : ... .. . ... : ... .. 0 ... : ... .. . ... ... : ... .. 6 ... ... : ... .. . ... ... : ... .. . ... ...
ROW 8E : ... .. . ... ... ... : ... .. . ... ... ... : ... .. . ... : ... .. . ... : ... .. . ... ... : --- .. . P82 ... : ... .. 5 ... ... : ... .. . ... ...
ROW 8F : ... .. 2 ... ... ... : ... .. 2 ... ... ... : ... .. . ... : ... .. . ... : ... .. . ... ... : ... .. . ... ... : ... .. 4 ... ... : ... .. . ... ...
ROW 90 : A#4 00 F ... ... ... : A#3 00 F ... ... ... : A-4 00 . ... : 9-# 00 D ... : ... .. . ... ... : F-4 01 A P80 ... : F-3 01 A ... ... : F-1 01 C P80 ...
ROW 91 : ... .. E ... ... ... : ... .. E ... ... ... : B-3 00 . ... : ... .. B ... : ... .. . ... ... : ... .. 9 ... ... : ... .. 9 ... ... : ... .. A ... ...
ROW 92 : ... .. D ... ... ... : ... .. D ... ... ... : E-3 00 . ... : ... .. . ... : ... .. . ... ... : ... .. 8 ... ... : ... .. 8 ... ... : ... .. 6 ... ...
ROW 93 : ... .. A ... ... ... : ... .. A ... ... ... : D#3 00 . ... : ... .. A ... : ... .. . ... ... : ... .. 7 ... ... : ... .. 7 ... ... : ... .. . ... ...
ROW 94 : ... .. . ... ... ... : ... .. . ... ... ... : A#2 00 . ... : ... .. 8 ... : ... .. . ... ... : ... .. . ... ... : G#3 01 6 ... ... : ... .. . ... ...
ROW 95 : ... .. . ... ... ... : ... .. . ... ... ... : ... .. . ... : ... .. 7 ... : ... .. . ... ... : ... .. 6 ... ... : ... .. . ... ... : ... .. . ... ...
ROW 96 : ... .. . ... ... ... : ... .. . ... ... ... : ... .. . ... : ... .. 6 ... : ... .. . ... ... : --- .. . ... ... : ... .. 5 ... ... : ... .. . ... ...
ROW 97 : ... .. 2 ... ... ... : ... .. 2 ... ... ... : ... .. . ... : ... .. . ... : ... .. . ... ... : ... .. . ... ... : ... .. 4 ... ... : ... .. . ... ...
ROW 98 : F-1 00 F ... ... ... : A#1 00 F ... ... ... : ... .. . ... : 1-# 00 F ... : ... .. . ... ... : A#3 01 A ... ... : F#3 01 A ... ... : ... .. . ... ...
ROW 99 : ... .. E ... ... ... : ... .. E ... ... ... : ... .. . ... : ... .. C ... : ... .. . ... ... : ... .. 9 ... ... : ... .. 9 ... ... : ... .. . ... ...
ROW 9A : ... .. D ... ... ... : ... .. D ... ... ... : ... .. . ... : ... .. 6 ... : ... .. . ... ... : ... .. 8 ... ... : ... .. 8 ... ... : ... .. . ... ...
ROW 9B : ... .. A ... ... ... : ... .. A ... ... ... : ... .. . ... : ... .. 3 ... : ... .. . ... ... : ... .. 7 ... ... : ... .. 7 ... ... : ... .. . ... ...
ROW 9C : ... .. . ... ... ... : ... .. . ... ... ... : ... .. . ... : ... .. 2 ... : ... .. . ... ... : ... .. . ... ... : F-3 01 6 ... ... : --- .. . P7F ...
ROW 9D : ... .. . ... ... ... : ... .. . ... ... ... : ... .. . ... : ... .. 0 ... : ... .. . ... ... : ... .. 6 ... ... : ... .. . ... ... : ... .. . ... ...
ROW 9E : ... .. . ... ... ... : ... .. . ... ... ... : ... .. . ... : ... .. . ... : ... .. . ... ... : --- .. . ... ... : ... .. 5 ... ... : ... .. . ... ...
ROW 9F : ... .. 2 ... ... ... : ... .. 2 ... ... ... : ... .. . ... : ... .. . ... : ... .. . ... ... : ... .. . ... ... : ... .. 4 ... ... : ... .. . ... ...
ROW A0 : B-4 00 F ... ... ... : B-3 00 F ... ... ... : A#4 00 . ... : 9-# 00 D ... : ... .. . ... ... : F#4 01 A ... ... : G#3 01 A ... ... : D#1 01 C P80 ...
ROW A1 : ... .. E ... ... ... : ... .. E ... ... ... : C-4 00 . ... : ... .. B ... : ... .. . ... ... : ... .. 9 ... ... : ... .. 9 ... ... : ... .. A ... ...
ROW A2 : ... .. D ... ... ... : ... .. D ... ... ... : F-3 00 . ... : ... .. . ... : ... .. . ... ... : ... .. 8 ... ... : ... .. 8 ... ... : ... .. 6 ... ...
ROW A3 : ... .. A ... ... ... : ... .. A ... ... ... : E-3 00 . ... : ... .. A ... : ... .. . ... ... : ... .. 7 ... ... : ... .. 7 ... ... : ... .. . ... ...
ROW A4 : ... .. . ... ... ... : ... .. . ... ... ... : B-2 00 . ... : ... .. 8 ... : ... .. . ... ... : ... .. . ... ... : F#3 01 6 ... ... : --- .. . P81 ...
ROW A5 : ... .. . ... ... ... : ... .. . ... ... ... : ... .. . ... : ... .. 7 ... : ... .. . ... ... : ... .. 6 ... ... : ... .. . ... ... : ... .. . ... ...
ROW A6 : ... .. . ... ... ... : ... .. . ... ... ... : ... .. . ... : ... .. 6 ... : ... .. . ... ... : --- .. . ... ... : ... .. 5 ... ... : ... .. . ... ...
ROW A7 : ... .. 2 ... ... ... : ... .. 2 ... ... ... : ... .. . ... : ... .. . ... : ... .. . ... ... : ... .. . ... ... : ... .. 4 ... ... : ... .. . ... ...
ROW A8 : F-1 00 F ... ... ... : B-1 00 F ... ... ... : A#2 00 . P7B : 2-# 00 F ... : ... .. . ... ... : B-3 01 A ... ... : A-3 01 A ... ... : D#2 01 C P80 ...
ROW A9 : ... .. E ... ... ... : ... .. E ... ... ... : A-2 00 . P77 : ... .. C ... : ... .. . ... ... : ... .. 9 ... ... : ... .. 9 ... ... : ... .. A ... ...
ROW AA : ... .. D ... ... ... : ... .. D ... ... ... : G#2 00 . P76 : ... .. 6 ... : ... .. . ... ... : ... .. 8 ... ... : ... .. 8 ... ... : ... .. 6 ... ...
ROW AB : ... .. A ... ... ... : ... .. A ... ... ... : G-2 00 . ... : ... .. 3 ... : ... .. . ... ... : ... .. 7 ... ... : ... .. 7 ... ... : ... .. . ... ...
ROW AC : ... .. . ... ... ... : ... .. . ... ... ... : F#2 00 . P78 : ... .. F ... : ... .. . ... ... : ... .. . ... ... : G#3 01 6 ... ... : --- .. . ... ...
ROW AD : ... .. . ... ... ... : ... .. . ... ... ... : F-2 00 . P7C : ... .. C ... : ... .. . ... ... : ... .. 6 ... ... : ... .. . ... ... : ... .. . ... ...
ROW AE : ... .. . ... ... ... : ... .. . ... ... ... : E-2 00 . P82 : ... .. 6 ... : ... .. . ... ... : --- .. . ... ... : ... .. 5 ... ... : ... .. . ... ...
ROW AF : ... .. 2 ... ... ... : ... .. 2 ... ... ... : D#2 00 . P8A : ... .. 3 ... : ... .. . ... ... : ... .. . ... ... : ... .. 4 ... ... : ... .. . ... ...
ROW B0 : ... .. F ... ... ... : C-2 00 F ... ... ... : E-4 00 . P80 : B-# 00 C ... : ... .. . ... ... : D-3 01 6 ... ... : F-5 01 1 ... V05 : F-0 01 C ... ...
ROW B1 : ... .. E ... ... ... : ... .. E ... ... ... : F#3 00 . ... : ... .. . ... : ... .. . ... ... : ... .. . ... ... : ... .. . ... ... : ... .. A ... ...
ROW B2 : ... .. D ... ... ... : ... .. D ... ... ... : B-2 00 . ... : ... .. A ... : ... .. . ... ... : ... .. 5 ... ... : ... .. . ... ... : ... .. 6 ... ...
ROW B3 : ... .. A ... ... ... : ... .. A ... ... ... : A#2 00 . ... : ... .. . ... : ... .. . ... ... : ... .. 4 ... ... : ... .. . ... ... : ... .. . ... ...
ROW B4 : ... .. . ... ... ... : ... .. . ... ... ... : F-2 00 . ... : ... .. 9 ... : ... .. . ... ... : D#3 01 6 ... ... : ... .. . ... ... : ... .. . ... ...
ROW B5 : ... .. . ... ... ... : ... .. . ... ... ... : ... .. . ... : ... .. . ... : ... .. . ... ... : ... .. . ... ... : ... .. . ... ... : ... .. . ... ...
ROW B6 : ... .. . ... ... ... : ... .. . ... ... ... : ... .. . ... : ... .. 8 ... : ... .. . ... ... : ... .. 5 ... ... : ... .. . ... ... : ... .. . ... ...
ROW B7 : ... .. 2 ... ... ... : ... .. 2 ... ... ... : --- .. . ... : ... .. . ... : ... .. . ... ... : ... .. 4 ... ... : ... .. . ... ... : --- .. . P82 ...
ROW B8 : D#2 00 F ... ... ... : A#2 00 F ... ... ... : D#3 00 . ... : ... .. 7 ... : ... .. . ... ... : F-3 01 6 ... ... : ... .. . ... ... : D#1 01 C P80 ...
ROW B9 : ... .. E ... ... ... : ... .. E ... ... ... : ... .. . ... : ... .. . ... : ... .. . ... ... : ... .. . ... ... : ... .. . ... ... : ... .. A ... ...
ROW BA : ... .. D ... ... ... : ... .. D ... ... ... : ... .. . ... : ... .. 6 ... : ... .. . ... ... : ... .. 5 ... ... : ... .. . ... ... : ... .. 6 ... ...
ROW BB : ... .. A ... ... ... : ... .. A ... ... ... : ... .. . ... : ... .. . ... : ... .. . ... ... : ... .. 4 ... ... : ... .. . ... ... : ... .. . ... ...
ROW BC : ... .. . ... ... ... : ... .. . ... ... ... : ... .. . ... : ... .. 5 ... : ... .. . ... ... : F#3 01 6 ... ... : ... .. . ... ... : ... .. . ... ...
ROW BD : ... .. . ... ... ... : ... .. . ... ... ... : ... .. . ... : ... .. . ... : ... .. . ... ... : ... .. . ... ... : ... .. . ... ... : ... .. . ... ...
ROW BE : ... .. . ... ... ... : ... .. . ... ... ... : ... .. . ... : ... .. 4 ... : ... .. . ... ... : ... .. 5 ... ... : ... .. . ... ... : ... .. . ... ...
ROW BF : ... .. 2 ... ... ... : ... .. 2 ... ... ... : --- .. . ... : ... .. . ... : ... .. . ... ... : ... .. 4 ... ... : ... .. . ... ... : --- .. . P81 ...
ROW C0 : D-2 00 F ... ... ... : A-2 00 F ... ... ... : D-3 00 . ... : 5-# 00 F ... : ... .. . ... ... : C-3 01 6 ... ... : ... .. . ... ... : D-1 01 C P80 ...
ROW C1 : ... .. E ... ... ... : ... .. E ... ... ... : ... .. . ... : ... .. C ... : ... .. . ... ... : ... .. . ... ... : ... .. . ... ... : ... .. A ... ...
ROW C2 : ... .. D ... ... ... : ... .. D ... ... ... : ... .. . ... : B-# 00 6 ... : ... .. . ... ... : ... .. 5 ... ... : ... .. . ... ... : ... .. 6 ... ...
ROW C3 : ... .. A ... ... ... : ... .. A ... ... ... : ... .. . ... : ... .. 5 ... : ... .. . ... ... : ... .. 4 ... ... : ... .. . ... ... : ... .. . ... ...
ROW C4 : ... .. . ... ... ... : ... .. . ... ... ... : ... .. . ... : ... .. . ... : ... .. . ... ... : D-3 01 6 ... ... : ... .. . ... ... : ... .. . ... ...
ROW C5 : ... .. . ... ... ... : ... .. . ... ... ... : ... .. . ... : ... .. . ... : ... .. . ... ... : ... .. . ... ... : ... .. . ... ... : ... .. . ... ...
ROW C6 : ... .. . ... ... ... : ... .. . ... ... ... : ... .. . ... : ... .. 4 ... : ... .. . ... ... : ... .. 5 ... ... : ... .. . ... ... : ... .. . ... ...
ROW C7 : ... .. 2 ... ... ... : ... .. 2 ... ... ... : --- .. . ... : ... .. 3 ... : ... .. . ... ... : ... .. 4 ... ... : ... .. . ... ... : --- .. . ... ...
ROW C8 : F-1 00 F ... ... ... : C-2 00 F ... ... ... : F-2 00 . ... : 1-# 00 F ... : ... .. . ... ... : D#3 01 6 ... ... : ... .. . ... ... : F-0 01 C ... ...
ROW C9 : ... .. E ... ... ... : ... .. E ... ... ... : ... .. . ... : ... .. C ... : ... .. . ... ... : ... .. . ... ... : ... .. . ... ... : ... .. A ... ...
ROW CA : ... .. D ... ... ... : ... .. D ... ... ... : ... .. . ... : ... .. 6 ... : ... .. . ... ... : ... .. 5 ... ... : ... .. . ... ... : ... .. 6 ... ...
ROW CB : ... .. A ... ... ... : ... .. A ... ... ... : ... .. . ... : ... .. 3 ... : ... .. . ... ... : ... .. 4 ... ... : ... .. . ... ... : ... .. . ... ...
ROW CC : ... .. . ... ... ... : ... .. . ... ... ... : ... .. . ... : ... .. 2 ... : ... .. . ... ... : F-3 01 6 ... ... : ... .. 2 ... ... : ... .. . ... ...
ROW CD : ... .. . ... ... ... : ... .. . ... ... ... : ... .. . ... : ... .. 0 ... : ... .. . ... ... : ... .. . ... ... : ... .. . ... ... : ... .. . ... ...
ROW CE : ... .. . ... ... ... : ... .. . ... ... ... : ... .. . ... : ... .. . ... : ... .. . ... ... : ... .. 5 ... ... : ... .. . ... ... : ... .. . ... ...
ROW CF : ... .. 2 ... ... ... : ... .. 2 ... ... ... : --- .. . ... : ... .. . ... : ... .. . ... ... : ... .. 4 ... ... : ... .. . ... ... : --- .. . P82 ...
ROW D0 : C-2 00 F ... ... ... : G-2 00 F ... ... ... : C-3 00 . ... : ... .. F ... : ... .. . ... ... : D-3 01 6 ... ... : ... .. . ... ... : C-1 01 C P80 ...
ROW D1 : ... .. E ... ... ... : ... .. E ... ... ... : ... .. . ... : ... .. C ... : ... .. . ... ... : ... .. . ... ... : ... .. . ... ... : ... .. A ... ...
ROW D2 : ... .. D ... ... ... : ... .. D ... ... ... : ... .. . ... : B-# 00 6 ... : ... .. . ... ... : ... .. 5 ... ... : ... .. . ... ... : ... .. 6 ... ...
ROW D3 : ... .. A ... ... ... : ... .. A ... ... ... : ... .. . ... : ... .. 5 ... : ... .. . ... ... : ... .. 4 ... ... : ... .. . ... ... : ... .. . ... ...
ROW D4 : ... .. . ... ... ... : ... .. . ... ... ... : ... .. . ... : ... .. . ... : ... .. . ... ... : D#3 01 6 ... ... : ... .. . ... ... : ... .. . ... ...
ROW D5 : ... .. . ... ... ... : ... .. . ... ... ... : ... .. . ... : ... .. . ... : ... .. . ... ... : ... .. . ... ... : ... .. . ... ... : ... .. . ... ...
ROW D6 : ... .. . ... ... ... : ... .. . ... ... ... : ... .. . ... : ... .. 4 ... : ... .. . ... ... : ... .. 5 ... ... : ... .. . ... ... : ... .. . ... ...
ROW D7 : ... .. 2 ... ... ... : ... .. 2 ... ... ... : --- .. . ... : ... .. 3 ... : ... .. . ... ... : ... .. 4 ... ... : ... .. . ... ... : --- .. . ... ...
ROW D8 : B-1 00 F ... ... ... : F#2 00 F ... ... ... : B-2 00 . ... : 1-# 00 F ... : ... .. . ... ... : F-3 01 6 ... ... : ... .. . ... ... : B-0 01 C ... ...
ROW D9 : ... .. E ... ... ... : ... .. E ... ... ... : ... .. . ... : ... .. C ... : ... .. . ... ... : ... .. . ... ... : ... .. . ... ... : ... .. A ... ...
ROW DA : ... .. D ... ... ... : ... .. D ... ... ... : ... .. . ... : ... .. 6 ... : ... .. . ... ... : ... .. 5 ... ... : ... .. . ... ... : ... .. 6 ... ...
ROW DB : ... .. A ... ... ... : ... .. A ... ... ... : ... .. . ... : ... .. 3 ... : ... .. . ... ... : ... .. 4 ... ... : ... .. . ... ... : ... .. . ... ...
ROW DC : ... .. . ... ... ... : ... .. . ... ... ... : ... .. . ... : ... .. 2 ... : ... .. . ... ... : F#3 01 6 ... ... : ... .. . ... ... : ... .. . ... ...
ROW DD : ... .. . ... ... ... : ... .. . ... ... ... : ... .. . ... : ... .. 0 ... : ... .. . ... ... : ... .. . ... ... : ... .. . ... ... : ... .. . ... ...
ROW DE : ... .. . ... ... ... : ... .. . ... ... ... : ... .. . ... : ... .. . ... : ... .. . ... ... : ... .. 5 ... ... : ... .. . ... ... : ... .. . ... ...
ROW DF : ... .. 2 ... ... ... : ... .. 2 ... ... ... : --- .. . ... : ... .. . ... : ... .. . ... ... : ... .. 4 ... ... : ... .. . ... ... : --- .. . ... ...
ROW E0 : F-1 00 F ... ... ... : C-2 00 F ... ... ... : F-2 00 . ... : 5-# 00 F ... : ... .. . ... ... : C-3 01 6 ... ... : ... .. . ... ... : F-0 01 C ... ...
ROW E1 : ... .. E ... ... ... : ... .. E ... ... ... : ... .. . ... : ... .. C ... : ... .. . ... ... : ... .. . ... ... : ... .. . ... ... : ... .. A ... ...
ROW E2 : ... .. D ... ... ... : ... .. D ... ... ... : ... .. . ... : B-# 00 6 ... : ... .. . ... ... : ... .. 5 ... ... : ... .. 3 ... ... : ... .. 6 ... ...
ROW E3 : ... .. A ... ... ... : ... .. A ... ... ... : ... .. . ... : ... .. 5 ... : ... .. . ... ... : ... .. 4 ... ... : ... .. . ... ... : ... .. . ... ...
ROW E4 : ... .. . ... ... ... : ... .. . ... ... ... : ... .. . ... : ... .. . ... : ... .. . ... ... : D-3 01 6 ... ... : ... .. . ... ... : ... .. . ... ...
ROW E5 : ... .. . ... ... ... : ... .. . ... ... ... : ... .. . ... : ... .. . ... : ... .. . ... ... : ... .. . ... ... : ... .. . ... ... : ... .. . ... ...
ROW E6 : ... .. . ... ... ... : ... .. . ... ... ... : ... .. . ... : ... .. 4 ... : ... .. . ... ... : ... .. 5 ... ... : ... .. . ... ... : ... .. . ... ...
ROW E7 : ... .. 2 ... ... ... : ... .. 2 ... ... ... : --- .. . ... : ... .. 3 ... : ... .. . ... ... : ... .. 4 ... ... : ... .. . ... ... : --- .. . P82 ...
ROW E8 : D#2 00 F ... ... ... : A#2 00 F ... ... ... : D#3 00 . ... : 1-# 00 F ... : ... .. . ... ... : D#3 01 6 ... ... : ... .. . ... ... : D#1 01 C P80 ...
ROW E9 : ... .. E ... ... ... : ... .. E ... ... ... : ... .. . ... : ... .. C ... : ... .. . ... ... : ... .. . ... ... : ... .. . ... ... : ... .. A ... ...
ROW EA : ... .. D ... ... ... : ... .. D ... ... ... : ... .. . ... : ... .. 6 ... : ... .. . ... ... : ... .. 5 ... ... : ... .. . ... ... : ... .. 6 ... ...
ROW EB : ... .. A ... ... ... : ... .. A ... ... ... : ... .. . ... : ... .. 3 ... : ... .. . ... ... : ... .. 4 ... ... : ... .. . ... ... : ... .. . ... ...
ROW EC : ... .. . ... ... ... : ... .. . ... ... ... : ... .. . ... : ... .. 2 ... : ... .. . ... ... : F-3 01 6 ... ... : ... .. . ... ... : ... .. . ... ...
ROW ED : ... .. . ... ... ... : ... .. . ... ... ... : ... .. . ... : ... .. 0 ... : ... .. . ... ... : ... .. . ... ... : ... .. . ... ... : ... .. . ... ...
ROW EE : ... .. . ... ... ... : ... .. . ... ... ... : ... .. . ... : ... .. . ... : ... .. . ... ... : ... .. 5 ... ... : ... .. 4 ... ... : ... .. . ... ...
ROW EF : ... .. 2 ... ... ... : ... .. 2 ... ... ... : --- .. . ... : ... .. . ... : ... .. . ... ... : ... .. 4 ... ... : ... .. . ... ... : --- .. . P81 ...
ROW F0 : D-2 00 F ... ... ... : A-2 00 F ... ... ... : D-3 00 . ... : ... .. F ... : ... .. . ... ... : D-3 01 6 ... ... : ... .. . ... ... : D-1 01 C P80 ...
ROW F1 : ... .. E ... ... ... : ... .. E ... ... ... : ... .. . ... : ... .. C ... : ... .. . ... ... : ... .. . ... ... : ... .. . ... ... : ... .. A ... ...
ROW F2 : ... .. D ... ... ... : ... .. D ... ... ... : ... .. . ... : B-# 00 6 ... : ... .. . ... ... : ... .. 5 ... ... : ... .. . ... ... : ... .. 6 ... ...
ROW F3 : ... .. A ... ... ... : ... .. A ... ... ... : ... .. . ... : ... .. 5 ... : ... .. . ... ... : ... .. 4 ... ... : ... .. . ... ... : ... .. . ... ...
ROW F4 : ... .. . ... ... ... : ... .. . ... ... ... : ... .. . ... : ... .. . ... : ... .. . ... ... : D#3 01 6 ... ... : ... .. . ... ... : ... .. . ... ...
ROW F5 : ... .. . ... ... ... : ... .. . ... ... ... : ... .. . ... : ... .. . ... : ... .. . ... ... : ... .. . ... ... : ... .. . ... ... : ... .. . ... ...
ROW F6 : ... .. . ... ... ... : ... .. . ... ... ... : ... .. . ... : ... .. 4 ... : ... .. . ... ... : ... .. 5 ... ... : ... .. . ... ... : ... .. . ... ...
ROW F7 : ... .. 2 ... ... ... : ... .. 2 ... ... ... : --- .. . ... : ... .. 3 ... : ... .. . ... ... : ... .. 4 ... ... : ... .. . ... ... : --- .. . ... ...
ROW F8 : F-1 00 F ... ... ... : C-2 00 F ... ... ... : F-2 00 . ... : 1-# 00 F ... : ... .. . ... ... : F-3 01 6 ... ... : ... .. . ... ... : F-0 01 C ... ...
ROW F9 : ... .. E ... ... ... : ... .. E ... ... ... : ... .. . ... : ... .. C ... : ... .. . ... ... : ... .. . ... ... : ... .. . ... ... : ... .. A ... ...
ROW FA : ... .. D ... ... ... : ... .. D ... ... ... : ... .. . ... : ... .. 6 ... : ... .. . ... ... : ... .. 5 ... ... : ... .. . ... ... : ... .. 6 ... ...
ROW FB : ... .. A ... ... ... : ... .. A ... ... ... : ... .. . ... : ... .. 3 ... : ... .. . ... ... : ... .. 4 ... ... : ... .. . ... ... : ... .. . ... ...
ROW FC : ... .. . ... ... ... : ... .. . ... ... ... : ... .. . ... : ... .. 2 ... : ... .. . ... ... : F#3 01 6 ... ... : ... .. . ... ... : ... .. . ... ...
ROW FD : ... .. . ... ... ... : ... .. . ... ... ... : ... .. . ... : ... .. 0 ... : ... .. . ... ... : ... .. . ... ... : ... .. . ... ... : ... .. . ... ...
ROW FE : ... .. . ... ... ... : ... .. . ... ... ... : ... .. . ... : ... .. . ... : ... .. . ... ... : ... .. 5 ... ... : ... .. . ... ... : ... .. . ... ...
ROW FF : ... .. 2 ... ... ... : ... .. 2 ... ... ... : --- .. . ... : ... .. . ... : ... .. . ... ... : ... .. 4 ... ... : ... .. . ... ... : --- .. . P82 ...

PATTERN 03
ROW 00 : C-2 00 F ... ... ... : G-2 00 F ... ... ... : C-3 00 . ... : 5-# 00 F ... : ... .. . ... ... : C-3 01 6 ... ... : ... .. . ... ... : C-1 01 C P80 ...
ROW 01 : ... .. E ... ... ... : ... .. E ... ... ... : ... .. . ... : ... .. C ... : ... .. . ... ... : ... .. . ... ... : ... .. . ... ... : ... .. A ... ...
ROW 02 : ... .. D ... ... ... : ... .. D ... ... ... : ... .. . ... : B-# 00 6 ... : ... .. . ... ... : ... .. 5 ... ... : ... .. . ... ... : ... .. 6 ... ...
ROW 03 : ... .. A ... ... ... : ... .. A ... ... ... : ... .. . ... : ... .. 5 ... : ... .. . ... ... : ... .. 4 ... ... : ... .. . ... ... : ... .. . ... ...
ROW 04 : ... .. . ... ... ... : ... .. . ... ... ... : ... .. . ... : ... .. . ... : ... .. . ... ... : D-3 01 6 ... ... : ... .. 5 P82 ... : ... .. . ... ...
ROW 05 : ... .. . ... ... ... : ... .. . ... ... ... : ... .. . ... : ... .. . ... : ... .. . ... ... : ... .. . ... ... : F#5 01 5 P7F ... : ... .. . ... ...
ROW 06 : ... .. . ... ... ... : ... .. . ... ... ... : ... .. . ... : ... .. 4 ... : ... .. . ... ... : ... .. 5 ... ... : ... .. . ... ... : ... .. . ... ...
ROW 07 : ... .. 2 ... ... ... : ... .. 2 ... ... ... : --- .. . ... : ... .. 3 ... : ... .. . ... ... : ... .. 4 ... ... : F-5 01 5 P81 ... : --- .. . ... ...
ROW 08 : B-1 00 F ... ... ... : F#2 00 F ... ... ... : B-2 00 . ... : 1-# 00 F ... : ... .. . ... ... : D#3 01 6 ... ... : ... .. . P7F ... : B-0 01 C ... ...
ROW 09 : ... .. E ... ... ... : ... .. E ... ... ... : ... .. . ... : ... .. C ... : ... .. . ... ... : ... .. . ... ... : E-5 01 5 P82 ... : ... .. A ... ...
ROW 0A : ... .. D ... ... ... : ... .. D ... ... ... : ... .. . ... : ... .. 6 ... : ... .. . ... ... : ... .. 5 ... ... : ... .. . ... ... : ... .. 6 ... ...
ROW 0B : ... .. A ... ... ... : ... .. A ... ... ... : ... .. . ... : ... .. 3 ... : ... .. . ... ... : ... .. 4 ... ... : F-5 01 5 P7E ... : ... .. . ... ...
ROW 0C : ... .. . ... ... ... : ... .. . ... ... ... : ... .. . ... : ... .. 2 ... : ... .. . ... ... : F-3 01 6 ... ... : ... .. . P80 ... : ... .. . ... ...
ROW 0D : ... .. . ... ... ... : ... .. . ... ... ... : ... .. . ... : ... .. 0 ... : ... .. . ... ... : ... .. . ... ... : ... .. . P82 ... : ... .. . ... ...
ROW 0E : ... .. . ... ... ... : ... .. . ... ... ... : ... .. . ... : ... .. . ... : ... .. . ... ... : ... .. 5 ... ... : F#5 01 5 P7F ... : ... .. . ... ...
ROW 0F : ... .. 2 ... ... ... : ... .. 2 ... ... ... : --- .. . ... : ... .. . ... : ... .. . ... ... : ... .. 4 ... ... : ... .. . ... ... : --- .. . ... ...
ROW 10 : G#3 00 F ... ... ... : D#4 00 F ... ... ... : G-5 00 . ... : ... .. F ... : ... .. . ... ... : D-3 01 6 ... ... : F-5 01 6 P81 ... : G#1 01 C ... ...
ROW 11 : ... .. E ... ... ... : ... .. E ... ... ... : A-4 00 . ... : ... .. C ... : ... .. . ... ... : ... .. . ... ... : ... .. . P80 ... : ... .. A ... ...
ROW 12 : ... .. D ... ... ... : ... .. D ... ... ... : D-4 00 . ... : B-# 00 6 ... : ... .. . ... ... : ... .. 5 ... ... : E-5 01 6 P82 ... : ... .. 6 P60 ...
ROW 13 : ... .. A ... ... ... : ... .. A ... ... ... : C#4 00 . ... : ... .. 5 ... : ... .. . ... ... : ... .. 4 ... ... : ... .. . ... ... : G-1 01 6 P8A ...
ROW 14 : D#3 00 F ... ... ... : A#3 00 F ... ... ... : G#3 00 . ... : ... .. . ... : ... .. . ... ... : D#3 01 6 ... ... : F-5 01 6 P7E ... : ... .. . P6A ...
ROW 15 : ... .. E ... ... ... : ... .. E ... ... ... : ... .. . ... : ... .. . ... : ... .. . ... ... : ... .. . ... ... : ... .. . P80 ... : F#1 01 6 P97 ...
ROW 16 : ... .. A ... ... ... : ... .. A ... ... ... : F#3 00 . P81 : ... .. 4 ... : ... .. . ... ... : ... .. 5 ... ... : ... .. . P81 ... : ... .. . P77 ...
ROW 17 : ... .. 2 ... ... ... : ... .. 2 ... ... ... : E-3 00 . P86 : ... .. 3 ... : ... .. . ... ... : ... .. 4 ... ... : F#5 01 6 P7F ... : F-1 01 6 PA9 ...
ROW 18 : B-2 00 F ... ... ... : F#3 00 F ... ... ... : D#3 00 . P7B : 1-# 00 F ... : ... .. . ... ... : F-3 01 6 ... ... : ... .. . ... ... : ... .. . P89 ...
ROW 19 : ... .. E ... ... ... : ... .. E ... ... ... : C#3 00 . P87 : ... .. C ... : ... .. . ... ... : ... .. . ... ... : F-5 01 6 P81 ... : ... .. . P69 ...
ROW 1A : ... .. A ... ... ... : ... .. A ... ... ... : C-3 00 . P7F : ... .. 6 ... : ... .. . ... ... : ... .. 5 ... ... : ... .. . P80 ... : E-1 01 6 PA0 ...
ROW 1B : ... .. 2 ... ... ... : ... .. 2 ... ... ... : B-2 00 . P78 : ... .. 3 ... : ... .. . ... ... : ... .. 4 ... ... : ... .. . P7E ... : ... .. . P80 ...
ROW 1C : G#2 00 F ... ... ... : D#3 00 F ... ... ... : A#2 00 . P73 : ... .. F ... : ... .. . ... ... : F#3 01 6 ... ... : E-5 01 6 P82 ... : ... .. . P60 ...
ROW 1D : ... .. E ... ... ... : ... .. E ... ... ... : G#2 00 . P8E : ... .. C ... : ... .. . ... ... : ... .. . ... ... : ... .. . ... ... : D#1 01 6 P9D ...
ROW 1E : ... .. A ... ... ... : ... .. A ... ... ... : G-2 00 . ... : ... .. 6 ... : ... .. . ... ... : ... .. 5 ... ... : F-5 01 6 P80 ... : ... .. . P7D ...
ROW 1F : ... .. 2 ... ... ... : ... .. 2 ... ... ... : F#2 00 . P90 : ... .. 3 ... : ... .. . ... ... : ... .. 4 ... ... : ... .. . P81 ... : ... .. . P5D ...
ROW 20 : D#2 00 F ... ... ... : A#2 00 F ... ... ... : ... .. . P70 : 5-# 00 F ... : ... .. . ... ... : C-3 01 6 ... ... : F#5 01 6 P7F ... : D-1 01 6 P9E ...
ROW 21 : ... .. E ... ... ... : ... .. E ... ... ... : F-2 00 . P74 : ... .. C ... : ... .. . ... ... : ... .. . ... ... : ... .. . ... ... : ... .. . P7E ...
ROW 22 : ... .. D ... ... ... : ... .. D ... ... ... : E-2 00 . P7A : B-# 00 6 ... : ... .. . ... ... : ... .. 5 ... ... : F-5 01 6 P82 ... : ... .. . P5E ...
ROW 23 : ... .. A ... ... ... : ... .. A ... ... ... : D#2 00 . P82 : ... .. 5 ... : ... .. . ... ... : ... .. 4 ... ... : ... .. . P80 ... : C#1 01 6 PA6 ...
ROW 24 : B-1 00 F ... ... ... : F#2 00 F ... ... ... : D-2 00 . P8D : ... .. . ... : ... .. . ... ... : D-3 01 6 ... ... : ... .. . P7E ... : ... .. . P86 ...
ROW 25 : ... .. E ... ... ... : ... .. E ... ... ... : ... .. . P6D : ... .. . ... : ... .. . ... ... : ... .. . ... ... : E-5 01 6 P82 ... : ... .. . P66 ...
ROW 26 : ... .. A ... ... ... : ... .. A ... ... ... : C#2 00 . P7A : ... .. 4 ... : ... .. . ... ... : ... .. 5 ... ... : ... .. . ... ... : C-1 01 6 PB4 ...
ROW 27 : ... .. 2 ... ... ... : ... .. 2 ... ... ... : C-2 00 . P8A : ... .. 3 ... : ... .. . ... ... : ... .. 4 ... ... : F-5 01 6 P7F ... : ... .. . P94 ...
ROW 28 : G#1 00 F ... ... ... : D#2 00 F ... ... ... : ... .. . P6A : C-# 00 F ... : ... .. . ... ... : D#3 01 6 ... ... : ... .. . P81 ... : ... .. . P74 ...
ROW 29 : ... .. E ... ... ... : ... .. E ... ... ... : B-1 00 . P7D : ... .. C ... : ... .. . ... ... : ... .. . ... ... : F#5 01 6 P7F ... : ... .. . P54 ...
ROW 2A : ... .. A ... ... ... : ... .. A ... ... ... : A#1 00 . P93 : ... .. 6 ... : ... .. . ... ... : ... .. 5 ... ... : ... .. . ... ... : B-0 01 6 PA8 ...
ROW 2B : ... .. 2 ... ... ... : ... .. 2 ... ... ... : ... .. . P73 : ... .. 3 ... : ... .. . ... ... : ... .. 4 ... ... : F-5 01 6 P82 ... : ... .. . P88 ...
ROW 2C : D#1 00 F ... ... ... : A#1 00 F ... ... ... : A-1 00 . P8C : ... .. F ... : ... .. . ... ... : F-3 01 6 ... ... : ... .. . P80 ... : ... .. . P68 ...
ROW 2D : ... .. E ... ... ... : ... .. E ... ... ... : ... .. . P6C : ... .. C ... : ... .. . ... ... : ... .. . ... ... : ... .. . P7E ... : ... .. . P48 ...
ROW 2E : ... .. A ... ... ... : ... .. A ... ... ... : G#1 00 . P88 : ... .. 6 ... : ... .. . ... ... : ... .. 5 ... ... : E-5 01 6 P82 ... : A#0 01 6 PA3 ...
ROW 2F : ... .. 2 ... ... ... : ... .. 2 ... ... ... : ... .. . P68 : ... .. 3 ... : ... .. . ... ... : ... .. 4 ... ... : ... .. . ... ... : ... .. . P83 ...
ROW 30 : F-1 00 F ... ... ... : C-2 00 F ... ... ... : E-4 00 . P80 : 1-# 00 F ... : ... .. . ... ... : D-3 01 6 ... ... : F-5 01 6 P7F ... : F-0 01 C P80 ...
ROW 31 : ... .. E ... ... ... : ... .. E ... ... ... : F#3 00 . ... : ... .. C ... : ... .. . ... ... : ... .. . ... ... : ... .. . P80 ... : ... .. A ... ...
ROW 32 : ... .. D ... ... ... : ... .. D ... ... ... : B-2 00 . ... : B-# 00 6 ... : ... .. . ... ... : ... .. 5 ... ... : F#5 01 6 P7F ... : ... .. 6 ... ...
ROW 33 : ... .. A ... ... ... : ... .. A ... ... ... : A#2 00 . ... : ... .. 5 ... : ... .. . ... ... : ... .. 4 ... ... : ... .. . ... ... : ... .. . ... ...
ROW 34 : ... .. F ... ... ... : ... .. F ... ... ... : F-2 00 . ... : ... .. . ... : ... .. . ... ... : D#3 01 6 ... ... : F-5 01 6 P82 ... : ... .. . ... ...
ROW 35 : ... .. E ... ... ... : ... .. E ... ... ... : ... .. . ... : ... .. . ... : ... .. . ... ... : ... .. . ... ... : ... .. . P80 ... : ... .. . ... ...
ROW 36 : ... .. D ... ... ... : ... .. D ... ... ... : ... .. . ... : ... .. 4 ... : ... .. . ... ... : ... .. 5 ... ... : ... .. . P7F ... : ... .. . ... ...
ROW 37 : ... .. A ... ... ... : ... .. A ... ... ... : --- .. . ... : ... .. 3 ... : ... .. . ... ... : ... .. 4 ... ... : E-5 01 6 P82 ... : --- .. . P82 ...
ROW 38 : D#2 00 F ... ... ... : A#2 00 F ... ... ... : D#3 00 . ... : 1-# 00 F ... : ... .. . ... ... : F-3 01 6 ... ... : ... .. . ... ... : D#1 01 C P80 ...
ROW 39 : ... .. E ... ... ... : ... .. E ... ... ... : ... .. . ... : ... .. C ... : ... .. . ... ... : ... .. . ... ... : F-5 01 6 P7F ... : ... .. A ... ...
ROW 3A : ... .. D ... ... ... : ... .. D ... ... ... : ... .. . ... : ... .. 6 ... : ... .. . ... ... : ... .. 5 ... ... : ... .. . P80 ... : ... .. 6 ... ...
ROW 3B : ... .. A ... ... ... : ... .. A ... ... ... : ... .. . ... : ... .. 3 ... : ... .. . ... ... : ... .. 4 ... ... : ... .. . P82 ... : ... .. . ... ...
ROW 3C : ... .. . ... ... ... : ... .. . ... ... ... : ... .. . ... : ... .. 2 ... : ... .. . ... ... : F#3 01 6 ... ... : F#5 01 6 P7F ... : ... .. . ... ...
ROW 3D : ... .. . ... ... ... : ... .. . ... ... ... : ... .. . ... : ... .. 0 ... : ... .. . ... ... : ... .. . ... ... : ... .. . ... ... : ... .. . ... ...
ROW 3E : ... .. . ... ... ... : ... .. . ... ... ... : ... .. . ... : ... .. . ... : ... .. . ... ... : ... .. 5 ... ... : F-5 01 6 P80 ... : ... .. . ... ...
ROW 3F : ... .. . ... ... ... : ... .. . ... ... ... : --- .. . ... : ... .. . ... : ... .. . ... ... : ... .. 4 ... ... : ... .. . ... ... : --- .. . P81 ...
ROW 40 : D-2 00 F ... ... ... : A-2 00 F ... ... ... : D-3 00 . ... : 5-# 00 F ... : ... .. . ... ... : C-3 01 6 ... ... : ... .. . P7F ... : D-1 01 C P80 ...
ROW 41 : ... .. E ... ... ... : ... .. E ... ... ... : ... .. . ... : ... .. C ... : ... .. . ... ... : ... .. . ... ... : ... .. . P7E ... : ... .. A ... ...
ROW 42 : ... .. D ... ... ... : ... .. D ... ... ... : ... .. . ... : B-# 00 6 ... : ... .. . ... ... : ... .. 5 ... ... : E-5 01 6 P82 ... : ... .. 6 ... ...
ROW 43 : ... .. A ... ... ... : ... .. A ... ... ... : ... .. . ... : ... .. 5 ... : ... .. . ... ... : ... .. 4 ... ... : ... .. . P81 ... : ... .. . ... ...
ROW 44 : ... .. . ... ... ... : ... .. . ... ... ... : ... .. . ... : ... .. . ... : ... .. . ... ... : D-3 01 6 ... ... : ... .. . P80 ... : ... .. . ... ...
ROW 45 : ... .. . ... ... ... : ... .. . ... ... ... : ... .. . ... : ... .. . ... : ... .. . ... ... : ... .. . ... ... : ... .. . P7F ... : ... .. . ... ...
ROW 46 : ... .. . ... ... ... : ... .. . ... ... ... : ... .. . ... : ... .. 4 ... : ... .. . ... ... : ... .. 5 ... ... : ... .. . P7E ... : ... .. . ... ...
ROW 47 : ... .. . ... ... ... : ... .. . ... ... ... : --- .. . ... : ... .. 3 ... : ... .. . ... ... : ... .. 4 ... ... : D#5 01 6 P82 ... : --- .. . ... ...
ROW 48 : F-1 00 F ... ... ... : C-2 00 F ... ... ... : F-2 00 . ... : 1-# 00 F ... : ... .. . ... ... : D#3 01 6 ... ... : ... .. . P81 ... : F-0 01 C ... ...
ROW 49 : ... .. E ... ... ... : ... .. E ... ... ... : ... .. . ... : ... .. C ... : ... .. . ... ... : ... .. . ... ... : ... .. . P80 ... : ... .. A ... ...
ROW 4A : ... .. A ... ... ... : ... .. A ... ... ... : ... .. . ... : ... .. 6 ... : ... .. . ... ... : ... .. 5 ... ... : ... .. . P7F ... : ... .. 6 ... ...
ROW 4B : ... .. 2 ... ... ... : ... .. 2 ... ... ... : ... .. . ... : ... .. 3 ... : ... .. . ... ... : ... .. 4 ... ... : ... .. . P7E ... : ... .. . ... ...
ROW 4C : ... .. F ... ... ... : ... .. F ... ... ... : ... .. . ... : ... .. 2 ... : ... .. . ... ... : F-3 01 6 ... ... : D-5 01 6 P82 ... : ... .. . ... ...
ROW 4D : ... .. E ... ... ... : ... .. E ... ... ... : ... .. . ... : ... .. 0 ... : ... .. . ... ... : ... .. . ... ... : ... .. . P81 ... : ... .. . ... ...
ROW 4E : ... .. A ... ... ... : ... .. A ... ... ... : ... .. . ... : ... .. . ... : ... .. . ... ... : ... .. 5 ... ... : ... .. . P80 ... : ... .. . ... ...
ROW 4F : ... .. 2 ... ... ... : ... .. 2 ... ... ... : --- .. . ... : ... .. . ... : ... .. . ... ... : ... .. 4 ... ... : ... .. . P7F ... : --- .. . P82 ...
ROW 50 : C-2 00 F ... ... ... : G-2 00 F ... ... ... : C-3 00 . ... : ... .. F ... : ... .. . ... ... : D-3 01 6 ... ... : ... .. . P7E ... : C-1 01 C P80 ...
ROW 51 : ... .. E ... ... ... : ... .. E ... ... ... : ... .. . ... : ... .. C ... : ... .. . ... ... : ... .. . ... ... : C#5 01 6 P83 ... : ... .. A ... ...
ROW 52 : ... .. D ... ... ... : ... .. D ... ... ... : ... .. . ... : B-# 00 6 ... : ... .. . ... ... : ... .. 5 ... ... : ... .. . P82 ... : ... .. 6 ... ...
ROW 53 : ... .. A ... ... ... : ... .. A ... ... ... : ... .. . ... : ... .. 5 ... : ... .. . ... ... : ... .. 4 ... ... : ... .. . P81 ... : ... .. . ... ...
ROW 54 : ... .. . ... ... ... : ... .. . ... ... ... : ... .. . ... : ... .. . ... : ... .. . ... ... : D#3 01 6 ... ... : ... .. . P80 ... : ... .. . ... ...
ROW 55 : ... .. . ... ... ... : ... .. . ... ... ... : ... .. . ... : ... .. . ... : ... .. . ... ... : ... .. . ... ... : ... .. . P7F ... : ... .. . ... ...
ROW 56 : ... .. . ... ... ... : ... .. . ... ... ... : ... .. . ... : ... .. 4 ... : ... .. . ... ... : ... .. 5 ... ... : ... .. . P7E ... : ... .. . ... ...
ROW 57 : ... .. 2 ... ... ... : ... .. 2 ... ... ... : --- .. . ... : ... .. 3 ... : ... .. . ... ... : ... .. 4 ... ... : C-5 01 6 P83 ... : --- .. . ... ...
ROW 58 : B-1 00 F ... ... ... : F#2 00 F ... ... ... : B-2 00 . ... : 1-# 00 F ... : ... .. . ... ... : F-3 01 6 ... ... : ... .. . P82 ... : B-0 01 C ... ...
ROW 59 : ... .. E ... ... ... : ... .. E ... ... ... : ... .. . ... : ... .. C ... : ... .. . ... ... : ... .. . ... ... : ... .. . P81 ... : ... .. A ... ...
ROW 5A : ... .. D ... ... ... : ... .. D ... ... ... : ... .. . ... : ... .. 6 ... : ... .. . ... ... : ... .. 5 ... ... : ... .. . P80 ... : ... .. 6 ... ...
ROW 5B : ... .. A ... ... ... : ... .. A ... ... ... : ... .. . ... : ... .. 3 ... : ... .. . ... ... : ... .. 4 ... ... : ... .. . P7F ... : ... .. . ... ...
ROW 5C : ... .. . ... ... ... : ... .. . ... ... ... : ... .. . ... : ... .. 2 ... : ... .. . ... ... : F#3 01 6 ... ... : ... .. . P7E ... : ... .. . ... ...
ROW 5D : ... .. . ... ... ... : ... .. . ... ... ... : ... .. . ... : ... .. 0 ... : ... .. . ... ... : ... .. . ... ... : B-4 01 6 P83 ... : ... .. . ... ...
ROW 5E : ... .. . ... ... ... : ... .. . ... ... ... : ... .. . ... : ... .. . ... : ... .. . ... ... : ... .. 5 ... ... : ... .. . P82 ... : ... .. . ... ...
ROW 5F : ... .. 2 ... ... ... : ... .. 2 ... ... ... : --- .. . ... : ... .. . ... : ... .. . ... ... : ... .. 4 ... ... : ... .. . P81 ... : --- .. . ... ...
ROW 60 : F-1 00 F ... ... ... : C-2 00 F ... ... ... : F-2 00 . ... : 5-# 00 F ... : ... .. . ... ... : C-3 01 6 ... ... : ... .. . P80 ... : F-0 01 C ... ...
ROW 61 : ... .. E ... ... ... : ... .. E ... ... ... : ... .. . ... : ... .. C ... : ... .. . ... ... : ... .. . ... ... : ... .. . P7F ... : ... .. A ... ...
ROW 62 : ... .. A ... ... ... : ... .. A ... ... ... : ... .. . ... : B-# 00 6 ... : ... .. . ... ... : ... .. 5 ... ... : ... .. . P7E ... : ... .. 6 ... ...
ROW 63 : ... .. 2 ... ... ... : ... .. 2 ... ... ... : ... .. . ... : ... .. 5 ... : ... .. . ... ... : ... .. 4 ... ... : ... .. . P7D ... : ... .. . ... ...
ROW 64 : ... .. F ... ... ... : ... .. F ... ... ... : ... .. . ... : ... .. . ... : ... .. . ... ... : D-3 01 6 ... ... : A#4 01 6 P83 ... : ... .. . ... ...
ROW 65 : ... .. E ... ... ... : ... .. E ... ... ... : ... .. . ... : ... .. . ... : ... .. . ... ... : ... .. . ... ... : ... .. . P82 ... : ... .. . ... ...
ROW 66 : ... .. A ... ... ... : ... .. A ... ... ... : ... .. . ... : ... .. 4 ... : ... .. . ... ... : ... .. 5 ... ... : ... .. . P81 ... : ... .. . ... ...
ROW 67 : ... .. 2 ... ... ... : ... .. 2 ... ... ... : --- .. . ... : ... .. 3 ... : ... .. . ... ... : ... .. 4 ... ... : ... .. . P80 ... : --- .. . P82 ...
ROW 68 : D#2 00 F ... ... ... : A#2 00 F ... ... ... : D#3 00 . ... : 1-# 00 F ... : ... .. . ... ... : D#3 01 6 ... ... : ... .. . P7F ... : D#1 01 C P80 ...
ROW 69 : ... .. E ... ... ... : ... .. E ... ... ... : ... .. . ... : ... .. C ... : ... .. . ... ... : ... .. . ... ... : ... .. . P7E ... : ... .. A ... ...
ROW 6A : ... .. D ... ... ... : ... .. D ... ... ... : ... .. . ... : ... .. 6 ... : ... .. . ... ... : ... .. 5 ... ... : ... .. . P7D ... : ... .. 6 ... ...
ROW 6B : ... .. A ... ... ... : ... .. A ... ... ... : ... .. . ... : ... .. 3 ... : ... .. . ... ... : ... .. 4 ... ... : A-4 01 6 P83 ... : ... .. . ... ...
ROW 6C : ... .. . ... ... ... : ... .. . ... ... ... : ... .. . ... : ... .. 2 ... : ... .. . ... ... : F-3 01 6 ... ... : ... .. . P82 ... : ... .. . ... ...
ROW 6D : ... .. . ... ... ... : ... .. . ... ... ... : ... .. . ... : ... .. 0 ... : ... .. . ... ... : ... .. . ... ... : ... .. . P81 ... : ... .. . ... ...
ROW 6E : ... .. . ... ... ... : ... .. . ... ... ... : ... .. . ... : ... .. . ... : ... .. . ... ... : ... .. 5 ... ... : ... .. . P80 ... : ... .. . ... ...
ROW 6F : ... .. 2 ... ... ... : ... .. 2 ... ... ... : --- .. . ... : ... .. . ... : ... .. . ... ... : ... .. 4 ... ... : ... .. . P7F ... : --- .. . P81 ...
ROW 70 : B-1 00 F ... ... ... : F#2 00 F ... ... ... : A#3 00 . ... : ... .. F ... : ... .. . ... ... : D-3 01 6 ... ... : ... .. . P7E ... : B-0 01 C P80 ...
ROW 71 : ... .. E ... ... ... : ... .. E ... ... ... : C-3 00 . ... : ... .. C ... : ... .. . ... ... : ... .. . ... ... : ... .. . P7D ... : ... .. A ... ...
ROW 72 : ... .. D ... ... ... : ... .. D ... ... ... : F-2 00 . ... : B-# 00 6 ... : ... .. . ... ... : ... .. 5 ... ... : G#4 01 6 P84 ... : ... .. 6 ... ...
ROW 73 : ... .. A ... ... ... : ... .. A ... ... ... : E-2 00 . ... : ... .. 5 ... : ... .. . ... ... : ... .. 4 ... ... : ... .. . P83 ... : ... .. . ... ...
ROW 74 : ... .. . ... ... ... : ... .. . ... ... ... : B-1 00 . ... : ... .. . ... : ... .. . ... ... : D#3 01 6 ... ... : ... .. . P82 ... : ... .. . ... ...
ROW 75 : ... .. . ... ... ... : ... .. . ... ... ... : ... .. . ... : ... .. . ... : ... .. . ... ... : ... .. . ... ... : ... .. . P81 ... : ... .. . ... ...
ROW 76 : ... .. . ... ... ... : ... .. . ... ... ... : ... .. . ... : ... .. 4 ... : ... .. . ... ... : ... .. 5 ... ... : ... .. . P80 ... : ... .. . ... ...
ROW 77 : ... .. 2 ... ... ... : ... .. 2 ... ... ... : --- .. . ... : ... .. 3 ... : ... .. . ... ... : ... .. 4 ... ... : ... .. . P7F ... : --- .. . ... ...
ROW 78 : F#2 00 F ... ... ... : C#3 00 F ... ... ... : F-4 00 . ... : 1-# 00 F ... : ... .. . ... ... : F-3 01 6 ... ... : ... .. . P7E ... : F#0 01 C ... ...
ROW 79 : ... .. E ... ... ... : ... .. E ... ... ... : G-3 00 . ... : ... .. C ... : ... .. . ... ... : ... .. . ... ... : ... .. . P7D ... : ... .. A ... ...
ROW 7A : ... .. D ... ... ... : ... .. D ... ... ... : C-3 00 . ... : ... .. 6 ... : ... .. . ... ... : ... .. 5 ... ... : G-4 01 6 P84 ... : ... .. 6 ... ...
ROW 7B : ... .. A ... ... ... : ... .. A ... ... ... : B-2 00 . ... : ... .. 3 ... : ... .. . ... ... : ... .. 4 ... ... : ... .. . P83 ... : ... .. . ... ...
ROW 7C : ... .. F ... ... ... : ... .. F ... ... ... : F#2 00 . ... : ... .. 2 ... : ... .. . ... ... : F#3 01 6 ... ... : ... .. . P82 ... : ... .. . ... ...
ROW 7D : ... .. E ... ... ... : ... .. E ... ... ... : ... .. . ... : ... .. 0 ... : ... .. . ... ... : ... .. . ... ... : ... .. . P81 ... : ... .. . ... ...
ROW 7E : ... .. D ... ... ... : ... .. D ... ... ... : ... .. . ... : ... .. . ... : ... .. . ... ... : ... .. 5 ... ... : ... .. . P80 ... : ... .. . ... ...
ROW 7F : ... .. 0 ... ... ... : ... .. 0 ... ... ... : --- .. . ... : ... .. . ... : ... .. . ... ... : ... .. 4 ... ... : ... .. . P7F ... : --- .. . P81 ...
ROW 80 : E-2 00 F P80 ... ... : B-2 00 F P80 ... ... : D#4 00 . ... : 8-# 00 F ... : ... .. . ... ... : C-3 01 6 ... ... : ... .. . P7E ... : E-0 01 C P80 ...
ROW 81 : ... .. E ... ... ... : ... .. E ... ... ... : F-3 00 . ... : ... .. C ... : ... .. . ... ... : ... .. . ... ... : ... .. . P7D ... : ... .. A ... ...
ROW 82 : ... .. D ... ... ... : ... .. D ... ... ... : A#2 00 . ... : ... .. 6 ... : ... .. . ... ... : ... .. 5 ... ... : F#4 01 6 P84 ... : ... .. 6 ... ...
ROW 83 : ... .. 0 ... ... ... : ... .. 0 ... ... ... : A-2 00 . ... : ... .. 3 ... : ... .. . ... ... : ... .. 4 ... ... : ... .. . P83 ... : ... .. . ... ...
ROW 84 : E-2 00 F P80 ... ... : B-2 00 F P80 ... ... : E-2 00 . ... : ... .. F ... : ... .. . ... ... : D-3 01 6 ... ... : ... .. . P82 ... : ... .. . ... ...
ROW 85 : ... .. E ... ... ... : ... .. E ... ... ... : ... .. . ... : ... .. C ... : ... .. . ... ... : ... .. . ... ... : ... .. . P81 ... : ... .. . ... ...
ROW 86 : ... .. D ... ... ... : ... .. D ... ... ... : ... .. . ... : ... .. 6 ... : ... .. . ... ... : ... .. 5 ... ... : ... .. . P80 ... : ... .. . ... ...
ROW 87 : ... .. 0 ... ... ... : ... .. 0 ... ... ... : ... .. . ... : ... .. 3 ... : ... .. . ... ... : ... .. 4 ... ... : ... .. . P7F ... : ... .. . ... ...
ROW 88 : B-2 00 F P80 ... ... : F#3 00 F P80 ... ... : A#4 00 . ... : 1-# 00 F ... : ... .. . ... ... : D#3 01 6 ... ... : ... .. . P7E ... : B-0 01 C ... ...
ROW 89 : ... .. E ... ... ... : ... .. E ... ... ... : C-4 00 . ... : ... .. C ... : ... .. . ... ... : ... .. . ... ... : ... .. . P7D ... : ... .. A ... ...
ROW 8A : ... .. D ... ... ... : ... .. D ... ... ... : F-3 00 . ... : ... .. 6 ... : ... .. . ... ... : ... .. 5 ... ... : ... .. . P7C ... : ... .. 6 ... ...
ROW 8B : ... .. 0 ... ... ... : ... .. 0 ... ... ... : E-3 00 . ... : ... .. 3 ... : ... .. . ... ... : ... .. 4 ... ... : F-4 01 6 P84 ... : ... .. . ... ...
ROW 8C : B-2 00 F P80 ... ... : F#3 00 F P80 ... ... : B-2 00 . ... : ... .. F ... : ... .. . ... ... : F-3 01 6 ... ... : ... .. . P83 ... : ... .. . ... ...
ROW 8D : ... .. E ... ... ... : ... .. E ... ... ... : ... .. . ... : ... .. C ... : ... .. . ... ... : ... .. . ... ... : ... .. . P82 ... : ... .. . ... ...
ROW 8E : ... .. D ... ... ... : ... .. D ... ... ... : ... .. . ... : ... .. 6 ... : ... .. . ... ... : ... .. 5 ... ... : ... .. . P81 ... : ... .. . ... ...
ROW 8F : ... .. 0 ... ... ... : ... .. 0 ... ... ... : ... .. . ... : ... .. 3 ... : ... .. . ... ... : ... .. 4 ... ... : ... .. . P80 ... : ... .. . ... ...
ROW 90 : A-2 00 F P80 ... ... : E-3 00 F P80 ... ... : G#4 00 . ... : 7-# 00 F ... : ... .. . ... ... : D-3 01 6 ... ... : ... .. . P7F ... : A-0 01 C ... ...
ROW 91 : ... .. E ... ... ... : ... .. E ... ... ... : A#3 00 . ... : ... .. C ... : ... .. . ... ... : ... .. . ... ... : ... .. . P7E ... : ... .. A ... ...
ROW 92 : ... .. D ... ... ... : ... .. D ... ... ... : D#3 00 . ... : ... .. 6 ... : ... .. . ... ... : ... .. 5 ... ... : ... .. . P7D ... : ... .. 6 ... ...
ROW 93 : ... .. 0 ... ... ... : ... .. 0 ... ... ... : D-3 00 . ... : ... .. 3 ... : ... .. . ... ... : ... .. 4 ... ... : ... .. . P7C ... : ... .. . ... ...
ROW 94 : A-2 00 F P80 ... ... : E-3 00 F P80 ... ... : A-2 00 . ... : ... .. F ... : ... .. . ... ... : D#3 01 6 ... ... : E-4 01 6 P85 ... : ... .. . ... ...
ROW 95 : ... .. E ... ... ... : ... .. E ... ... ... : ... .. . ... : ... .. C ... : ... .. . ... ... : ... .. . ... ... : ... .. . P84 ... : ... .. . ... ...
ROW 96 : ... .. D ... ... ... : ... .. D ... ... ... : ... .. . ... : ... .. 6 ... : ... .. . ... ... : ... .. 5 ... ... : ... .. . P83 ... : ... .. . ... ...
ROW 97 : ... .. 0 ... ... ... : ... .. 0 ... ... ... : ... .. . ... : ... .. 3 ... : ... .. . ... ... : ... .. 4 ... ... : ... .. . P82 ... : ... .. . ... ...
ROW 98 : D-3 00 F P80 ... ... : A-3 00 F P80 ... ... : C#5 00 . ... : 1-# 00 F ... : ... .. . ... ... : F-3 01 6 ... ... : ... .. . P81 ... : D-1 01 C ... ...
ROW 99 : ... .. E ... ... ... : ... .. E ... ... ... : D#4 00 . ... : ... .. C ... : ... .. . ... ... : ... .. . ... ... : ... .. . P80 ... : ... .. A ... ...
ROW 9A : ... .. D ... ... ... : ... .. D ... ... ... : G#3 00 . ... : ... .. 6 ... : ... .. . ... ... : ... .. 5 ... ... : ... .. . P7F ... : ... .. 6 ... ...
ROW 9B : ... .. 0 ... ... ... : ... .. 0 ... ... ... : G-3 00 . ... : ... .. 3 ... : ... .. . ... ... : ... .. 4 ... ... : ... .. . P7E ... : ... .. . ... ...
ROW 9C : D-3 00 F P80 ... ... : A-3 00 F P80 ... ... : D-3 00 . ... : ... .. F ... : ... .. . ... ... : F#3 01 6 ... ... : ... .. . P7D ... : ... .. . ... ...
ROW 9D : ... .. E ... ... ... : ... .. E ... ... ... : ... .. . ... : ... .. C ... : ... .. . ... ... : ... .. . ... ... : ... .. . P7C ... : ... .. . ... ...
ROW 9E : ... .. D ... ... ... : ... .. D ... ... ... : ... .. . ... : ... .. 6 ... : ... .. . ... ... : ... .. 5 ... ... : D#4 01 6 P85 ... : ... .. . ... ...
ROW 9F : ... .. 0 ... ... ... : ... .. 0 ... ... ... : ... .. . ... : ... .. 3 ... : ... .. . ... ... : ... .. 4 ... ... : ... .. . P84 ... : ... .. . ... ...
ROW A0 : C-3 00 F P80 ... ... : G-3 00 F P80 ... ... : B-4 00 . ... : 4-# 00 F ... : ... .. . ... ... : C-3 01 6 ... ... : ... .. . P83 ... : C-1 01 C ... ...
ROW A1 : ... .. E ... ... ... : ... .. E ... ... ... : C#4 00 . ... : ... .. C ... : ... .. . ... ... : ... .. . ... ... : ... .. . P82 ... : ... .. A ... ...
ROW A2 : ... .. D ... ... ... : ... .. D ... ... ... : F#3 00 . ... : ... .. 6 ... : ... .. . ... ... : ... .. 5 ... ... : ... .. . P81 ... : ... .. 6 ... ...
ROW A3 : ... .. 0 ... ... ... : ... .. 0 ... ... ... : F-3 00 . ... : ... .. 3 ... : ... .. . ... ... : ... .. 4 ... ... : ... .. . P80 ... : ... .. . ... ...
ROW A4 : C-3 00 F P80 ... ... : G-3 00 F P80 ... ... : C-3 00 . ... : ... .. F ... : ... .. . ... ... : D-3 01 6 ... ... : ... .. . P7F ... : ... .. . ... ...
ROW A5 : ... .. E ... ... ... : ... .. E ... ... ... : ... .. . ... : ... .. C ... : ... .. . ... ... : ... .. . ... ... : ... .. . P7E ... : ... .. . ... ...
ROW A6 : ... .. D ... ... ... : ... .. D ... ... ... : ... .. . ... : ... .. 6 ... : ... .. . ... ... : ... .. 5 ... ... : ... .. . P7D ... : ... .. . ... ...
ROW A7 : ... .. 0 ... ... ... : ... .. 0 ... ... ... : ... .. . ... : ... .. 3 ... : ... .. . ... ... : ... .. 4 ... ... : ... .. . P7C ... : ... .. . ... ...
ROW A8 : F-3 00 F P80 ... ... : C-4 00 F P80 ... ... : E-5 00 . ... : 1-# 00 F ... : ... .. . ... ... : D#3 01 6 ... ... : D-4 01 6 P85 ... : F-1 01 C ... ...
ROW A9 : ... .. E ... ... ... : ... .. E ... ... ... : F#4 00 . ... : ... .. C ... : ... .. . ... ... : ... .. . ... ... : ... .. . P84 ... : ... .. A ... ...
ROW AA : ... .. D ... ... ... : ... .. D ... ... ... : B-3 00 . ... : ... .. 6 ... : ... .. . ... ... : ... .. 5 ... ... : ... .. . P83 ... : ... .. 6 ... ...
ROW AB : ... .. 0 ... ... ... : ... .. 0 ... ... ... : A#3 00 . ... : ... .. 3 ... : ... .. . ... ... : ... .. 4 ... ... : ... .. . P82 ... : ... .. . ... ...
ROW AC : F-3 00 F P80 ... ... : C-4 00 F P80 ... ... : F-3 00 . ... : ... .. F ... : ... .. . ... ... : F-3 01 6 ... ... : ... .. . P81 ... : ... .. . ... ...
ROW AD : ... .. E ... ... ... : ... .. E ... ... ... : ... .. . ... : ... .. C ... : ... .. . ... ... : ... .. . ... ... : ... .. . P80 ... : ... .. . ... ...
ROW AE : ... .. D ... ... ... : ... .. D ... ... ... : ... .. . ... : ... .. 6 ... : ... .. . ... ... : ... .. 5 ... ... : --- .. . ... ... : ... .. . ... ...
ROW AF : ... .. 0 ... ... ... : ... .. 0 ... ... ... : ... .. . ... : ... .. 3 ... : ... .. . ... ... : ... .. 4 ... ... : ... .. . ... ... : ... .. . ... ...
ROW B0 : G#4 00 F P80 ... ... : F-4 00 F P80 ... ... : E-5 00 . ... : B-# 00 C ... : ... .. . ... ... : D#4 01 A P81 ... : F-4 01 A P7F V03 : ... .. C ... ...
ROW B1 : ... .. E ... ... ... : ... .. E ... ... ... : F#4 00 . ... : ... .. . ... : ... .. . ... ... : ... .. 9 ... ... : ... .. 9 ... ... : ... .. A ... ...
ROW B2 : ... .. D ... ... ... : ... .. D ... ... ... : B-3 00 . ... : ... .. A ... : ... .. . ... ... : ... .. 8 ... ... : ... .. 8 ... ... : ... .. 6 ... ...
ROW B3 : ... .. A ... ... ... : ... .. A ... ... ... : A#3 00 . ... : ... .. . ... : ... .. . ... ... : ... .. 7 ... ... : ... .. 7 ... ... : ... .. . ... ...
ROW B4 : ... .. . ... ... ... : ... .. . ... ... ... : F-3 00 . ... : ... .. 9 ... : ... .. . ... ... : ... .. . ... ... : A-3 01 6 ... ... : ... .. . ... ...
ROW B5 : ... .. . ... ... ... : ... .. . ... ... ... : ... .. . ... : ... .. . ... : ... .. . ... ... : ... .. 6 ... ... : ... .. . ... ... : ... .. . ... ...
ROW B6 : ... .. . ... ... ... : ... .. . ... ... ... : ... .. . ... : ... .. 8 ... : ... .. . ... ... : --- .. . ... ... : ... .. 5 ... ... : ... .. . ... ...
ROW B7 : ... .. 2 ... ... ... : ... .. 2 ... ... ... : ... .. . ... : ... .. . ... : ... .. . ... ... : ... .. . ... ... : ... .. 4 ... ... : ... .. . ... ...
ROW B8 : F-2 00 F ... ... ... : D#5 00 F ... ... ... : D#3 00 . P88 : ... .. 7 ... : ... .. . ... ... : G#3 01 A ... ... : F#4 01 A ... ... : ... .. . P60 ...
ROW B9 : ... .. E ... ... ... : ... .. E ... ... ... : D-3 00 . P7D : ... .. . ... : ... .. . ... ... : ... .. 9 ... ... : ... .. 9 ... ... : E-1 01 6 P97 ...
ROW BA : ... .. D ... ... ... : ... .. D ... ... ... : C-3 00 . P8C : ... .. 6 ... : ... .. . ... ... : ... .. 8 ... ... : ... .. 8 ... ... : ... .. . P77 ...
ROW BB : ... .. A ... ... ... : ... .. A ... ... ... : B-2 00 . P85 : ... .. . ... : ... .. . ... ... : ... .. 7 ... ... : ... .. 7 ... ... : ... .. . P57 ...
ROW BC : ... .. . ... ... ... : ... .. . ... ... ... : A#2 00 . P80 : ... .. 5 ... : ... .. . ... ... : ... .. . ... ... : F-4 01 6 ... ... : --- .. . P82 ...
ROW BD : ... .. . ... ... ... : ... .. . ... ... ... : A-2 00 . P7C : ... .. . ... : ... .. . ... ... : ... .. 6 ... ... : ... .. . ... ... : ... .. . ... ...
ROW BE : ... .. . ... ... ... : ... .. . ... ... ... : G#2 00 . P7B : ... .. 4 ... : ... .. . ... ... : --- .. . P83 ... : ... .. 5 ... ... : ... .. . ... ...
ROW BF : ... .. 2 ... ... ... : ... .. 2 ... ... ... : G-2 00 . ... : ... .. . ... : ... .. . ... ... : ... .. . ... ... : ... .. 4 ... ... : ... .. . ... ...
ROW C0 : ... .. F ... ... ... : D-5 00 F ... ... ... : F-4 00 . P80 : 1-# 00 F ... : ... .. . ... ... : G#3 01 A P81 ... : G#4 01 A ... ... : F-2 01 C P80 ...
ROW C1 : ... .. E ... ... ... : ... .. E ... ... ... : ... .. . ... : ... .. C ... : ... .. . ... ... : ... .. 9 ... ... : ... .. 9 ... ... : ... .. A ... ...
ROW C2 : ... .. D ... ... ... : ... .. D ... ... ... : ... .. . ... : ... .. 6 ... : ... .. . ... ... : ... .. 8 ... ... : ... .. 8 ... ... : ... .. 6 ... ...
ROW C3 : ... .. A ... ... ... : ... .. A ... ... ... : ... .. . ... : ... .. 3 ... : ... .. . ... ... : ... .. 7 ... ... : ... .. 7 ... ... : ... .. . ... ...
ROW C4 : ... .. . ... ... ... : ... .. . ... ... ... : ... .. . ... : ... .. 2 ... : ... .. . ... ... : ... .. . ... ... : F#4 01 6 ... ... : --- .. . P7E ...
ROW C5 : ... .. . ... ... ... : ... .. . ... ... ... : ... .. . ... : ... .. 0 ... : ... .. . ... ... : ... .. 6 ... ... : ... .. . ... ... : ... .. . ... ...
ROW C6 : ... .. . ... ... ... : ... .. . ... ... ... : ... .. . ... : ... .. . ... : ... .. . ... ... : --- .. . P83 ... : ... .. 5 ... ... : ... .. . ... ...
ROW C7 : ... .. 2 ... ... ... : ... .. 2 ... ... ... : ... .. . ... : ... .. . ... : ... .. . ... ... : ... .. . ... ... : ... .. 4 ... ... : ... .. . ... ...
ROW C8 : G#4 00 F ... ... ... : F-4 00 F ... ... ... : E-4 00 . ... : 9-# 00 D ... : ... .. . ... ... : D#4 01 A P81 ... : F-4 01 A ... ... : F-0 01 C P80 ...
ROW C9 : ... .. E ... ... ... : ... .. E ... ... ... : F#3 00 . ... : ... .. B ... : ... .. . ... ... : ... .. 9 ... ... : ... .. 9 ... ... : ... .. A ... ...
ROW CA : ... .. D ... ... ... : ... .. D ... ... ... : B-2 00 . ... : ... .. . ... : ... .. . ... ... : ... .. 8 ... ... : ... .. 8 ... ... : ... .. 6 ... ...
ROW CB : ... .. A ... ... ... : ... .. A ... ... ... : A#2 00 . ... : ... .. A ... : ... .. . ... ... : ... .. 7 ... ... : ... .. 7 ... ... : ... .. . ... ...
ROW CC : ... .. . ... ... ... : ... .. . ... ... ... : F-2 00 . ... : ... .. 8 ... : ... .. . ... ... : ... .. . ... ... : G#4 01 6 ... ... : ... .. . ... ...
ROW CD : ... .. . ... ... ... : ... .. . ... ... ... : ... .. . ... : ... .. 7 ... : ... .. . ... ... : ... .. 6 ... ... : ... .. . ... ... : ... .. . ... ...
ROW CE : ... .. . ... ... ... : ... .. . ... ... ... : ... .. . ... : ... .. 6 ... : ... .. . ... ... : --- .. . ... ... : ... .. 5 ... ... : ... .. . ... ...
ROW CF : ... .. 2 ... ... ... : ... .. 2 ... ... ... : ... .. . ... : ... .. . ... : ... .. . ... ... : ... .. . ... ... : ... .. 4 ... ... : ... .. . ... ...
ROW D0 : F-2 00 F ... ... ... : C-5 00 F ... ... ... : E-2 00 . P86 : 1-# 00 F ... : ... .. . ... ... : G#3 01 A ... ... : F#4 01 A ... ... : ... .. . P60 ...
ROW D1 : ... .. E ... ... ... : ... .. E ... ... ... : D#2 00 . P8E : ... .. C ... : ... .. . ... ... : ... .. 9 ... ... : ... .. 9 ... ... : ... .. . P40 ...
ROW D2 : ... .. D ... ... ... : ... .. D ... ... ... : ... .. . P6E : ... .. 6 ... : ... .. . ... ... : ... .. 8 ... ... : ... .. 8 ... ... : E-0 01 6 PCE ...
ROW D3 : ... .. A ... ... ... : ... .. A ... ... ... : D-2 00 . P79 : ... .. 3 ... : ... .. . ... ... : ... .. 7 ... ... : ... .. 7 ... ... : ... .. . PAE ...
ROW D4 : ... .. . ... ... ... : ... .. . ... ... ... : C#2 00 . P86 : ... .. 2 ... : ... .. . ... ... : ... .. . ... ... : F-4 01 6 ... ... : --- .. . P83 ...
ROW D5 : ... .. . ... ... ... : ... .. . ... ... ... : C-2 00 . P96 : ... .. 0 ... : ... .. . ... ... : ... .. 6 ... ... : ... .. . ... ... : ... .. . ... ...
ROW D6 : ... .. . ... ... ... : ... .. . ... ... ... : ... .. . P76 : ... .. . ... : ... .. . ... ... : --- .. . P83 ... : ... .. 5 ... ... : ... .. . ... ...
ROW D7 : ... .. 2 ... ... ... : ... .. 2 ... ... ... : B-1 00 . P89 : ... .. . ... : ... .. . ... ... : ... .. . ... ... : ... .. 4 ... ... : ... .. . ... ...
ROW D8 : ... .. F ... ... ... : B-4 00 F ... ... ... : F-4 00 . P80 : ... .. F ... : ... .. . ... ... : G#3 01 A P81 ... : G#4 01 A ... ... : F-2 01 C P80 ...
ROW D9 : ... .. E ... ... ... : ... .. E ... ... ... : ... .. . ... : ... .. C ... : ... .. . ... ... : ... .. 9 ... ... : ... .. 9 ... ... : ... .. A ... ...
ROW DA : ... .. D ... ... ... : ... .. D ... ... ... : ... .. . ... : ... .. 6 ... : ... .. . ... ... : ... .. 8 ... ... : ... .. 8 ... ... : ... .. 6 ... ...
ROW DB : ... .. A ... ... ... : ... .. A ... ... ... : ... .. . ... : ... .. 3 ... : ... .. . ... ... : ... .. 7 ... ... : ... .. 7 ... ... : ... .. . ... ...
ROW DC : ... .. . ... ... ... : ... .. . ... ... ... : ... .. . ... : ... .. 2 ... : ... .. . ... ... : ... .. . ... ... : F#4 01 6 ... ... : --- .. . P7E ...
ROW DD : ... .. . ... ... ... : ... .. . ... ... ... : ... .. . ... : ... .. 0 ... : ... .. . ... ... : ... .. 6 ... ... : ... .. . ... ... : ... .. . ... ...
ROW DE : ... .. . ... ... ... : ... .. . ... ... ... : ... .. . ... : ... .. . ... : ... .. . ... ... : --- .. . P83 ... : ... .. 5 ... ... : ... .. . ... ...
ROW DF : ... .. 2 ... ... ... : ... .. 2 ... ... ... : ... .. . ... : ... .. . ... : ... .. . ... ... : ... .. . ... ... : ... .. 4 ... ... : ... .. . ... ...
ROW E0 : A#4 00 F ... ... ... : F-4 00 F ... ... ... : E-5 00 . ... : 9-# 00 D ... : ... .. . ... ... : F-4 01 A P81 ... : F-4 01 A ... ... : F-1 01 C P80 ...
ROW E1 : ... .. E ... ... ... : ... .. E ... ... ... : F#4 00 . ... : ... .. B ... : ... .. . ... ... : ... .. 9 ... ... : ... .. 9 ... ... : ... .. A ... ...
ROW E2 : ... .. D ... ... ... : ... .. D ... ... ... : B-3 00 . ... : ... .. . ... : ... .. . ... ... : ... .. 8 ... ... : ... .. 8 ... ... : ... .. 6 ... ...
ROW E3 : ... .. A ... ... ... : ... .. A ... ... ... : A#3 00 . ... : ... .. A ... : ... .. . ... ... : ... .. 7 ... ... : ... .. 7 ... ... : ... .. . ... ...
ROW E4 : ... .. . ... ... ... : ... .. . ... ... ... : F-3 00 . ... : ... .. 8 ... : ... .. . ... ... : ... .. . ... ... : G#4 01 6 ... ... : ... .. . ... ...
ROW E5 : ... .. . ... ... ... : ... .. . ... ... ... : ... .. . ... : ... .. 7 ... : ... .. . ... ... : ... .. 6 ... ... : ... .. . ... ... : ... .. . ... ...
ROW E6 : ... .. . ... ... ... : ... .. . ... ... ... : ... .. . ... : ... .. 6 ... : ... .. . ... ... : --- .. . ... ... : ... .. 5 ... ... : ... .. . ... ...
ROW E7 : ... .. 2 ... ... ... : ... .. 2 ... ... ... : ... .. . ... : ... .. . ... : ... .. . ... ... : ... .. . ... ... : ... .. 4 ... ... : ... .. . ... ...
ROW E8 : F-2 00 F ... ... ... : D#5 00 F ... ... ... : ... .. . ... : 1-# 00 F ... : ... .. . ... ... : A#3 01 A ... ... : F#4 01 A ... ... : ... .. . ... ...
ROW E9 : ... .. E ... ... ... : ... .. E ... ... ... : ... .. . ... : ... .. C ... : ... .. . ... ... : ... .. 9 ... ... : ... .. 9 ... ... : ... .. . ... ...
ROW EA : ... .. D ... ... ... : ... .. D ... ... ... : ... .. . ... : ... .. 6 ... : ... .. . ... ... : ... .. 8 ... ... : ... .. 8 ... ... : ... .. . ... ...
ROW EB : ... .. A ... ... ... : ... .. A ... ... ... : ... .. . ... : ... .. 3 ... : ... .. . ... ... : ... .. 7 ... ... : ... .. 7 ... ... : ... .. . ... ...
ROW EC : ... .. . ... ... ... : ... .. . ... ... ... : ... .. . ... : ... .. 2 ... : ... .. . ... ... : ... .. . ... ... : F-4 01 6 ... ... : --- .. . P7F ...
ROW ED : ... .. . ... ... ... : ... .. . ... ... ... : ... .. . ... : ... .. 0 ... : ... .. . ... ... : ... .. 6 ... ... : ... .. . ... ... : ... .. . ... ...
ROW EE : ... .. . ... ... ... : ... .. . ... ... ... : ... .. . ... : ... .. . ... : ... .. . ... ... : --- .. . ... ... : ... .. 5 ... ... : ... .. . ... ...
ROW EF : ... .. 2 ... ... ... : ... .. 2 ... ... ... : ... .. . ... : ... .. . ... : ... .. . ... ... : ... .. . ... ... : ... .. 4 ... ... : ... .. . ... ...
ROW F0 : ... .. F ... ... ... : D-5 00 F ... ... ... : D#3 00 . ... : ... .. F ... : ... .. . ... ... : A#3 01 A ... ... : G#4 01 A ... ... : D#1 01 C P80 ...
ROW F1 : ... .. E ... ... ... : ... .. E ... ... ... : ... .. . ... : ... .. C ... : ... .. . ... ... : ... .. 9 ... ... : ... .. 9 ... ... : ... .. A ... ...
ROW F2 : ... .. D ... ... ... : ... .. D ... ... ... : ... .. . ... : ... .. 6 ... : ... .. . ... ... : ... .. 8 ... ... : ... .. 8 ... ... : ... .. 6 ... ...
ROW F3 : ... .. A ... ... ... : ... .. A ... ... ... : ... .. . ... : ... .. 3 ... : ... .. . ... ... : ... .. 7 ... ... : ... .. 7 ... ... : ... .. . ... ...
ROW F4 : ... .. . ... ... ... : ... .. . ... ... ... : ... .. . ... : ... .. 2 ... : ... .. . ... ... : ... .. . ... ... : F#4 01 6 ... ... : --- .. . P81 ...
ROW F5 : ... .. . ... ... ... : ... .. . ... ... ... : ... .. . ... : ... .. 0 ... : ... .. . ... ... : ... .. 6 ... ... : ... .. . ... ... : ... .. . ... ...
ROW F6 : ... .. . ... ... ... : ... .. . ... ... ... : ... .. . ... : ... .. . ... : ... .. . ... ... : --- .. . ... ... : ... .. 5 ... ... : ... .. . ... ...
ROW F7 : ... .. 2 ... ... ... : ... .. 2 ... ... ... : ... .. . ... : ... .. . ... : ... .. . ... ... : ... .. . ... ... : ... .. 4 ... ... : ... .. . ... ...
ROW F8 : B-4 00 F ... ... ... : F-4 00 F ... ... ... : E-4 00 . ... : 9-# 00 D ... : ... .. . ... ... : F#4 01 A ... ... : ... .. A ... ... : F-0 01 C P80 ...
ROW F9 : ... .. E ... ... ... : ... .. E ... ... ... : F#3 00 . ... : ... .. B ... : ... .. . ... ... : ... .. 9 ... ... : ... .. 9 ... ... : ... .. A ... ...
ROW FA : ... .. D ... ... ... : ... .. D ... ... ... : B-2 00 . ... : ... .. . ... : ... .. . ... ... : ... .. 8 ... ... : ... .. 8 ... ... : ... .. 6 ... ...
ROW FB : ... .. A ... ... ... : ... .. A ... ... ... : A#2 00 . ... : ... .. A ... : ... .. . ... ... : ... .. 7 ... ... : ... .. 7 ... ... : ... .. . ... ...
ROW FC : ... .. . ... ... ... : ... .. . ... ... ... : F-2 00 . ... : ... .. 8 ... : ... .. . ... ... : ... .. . ... ... : G#4 01 6 ... ... : --- .. . P82 ...
ROW FD : ... .. . ... ... ... : ... .. . ... ... ... : ... .. . ... : ... .. 7 ... : ... .. . ... ... : ... .. 6 ... ... : ... .. . ... ... : ... .. . ... ...
ROW FE : ... .. . ... ... ... : ... .. . ... ... ... : ... .. . ... : ... .. 6 ... : ... .. . ... ... : --- .. . ... ... : ... .. 5 ... ... : ... .. . ... ...
ROW FF : ... .. 2 ... ... ... : ... .. 2 ... ... ... : ... .. . ... : ... .. . ... : ... .. . ... ... : ... .. . ... ... : ... .. 4 ... ... : ... .. . ... ...

PATTERN 04
ROW 00 : F-2 00 F ... ... ... : C-5 00 F ... ... ... : D#2 00 . ... : 1-# 00 F ... : ... .. . ... ... : B-3 01 A ... ... : ... .. A ... ... : D#0 01 C P80 ...
ROW 01 : ... .. E ... ... ... : ... .. E ... ... ... : ... .. . ... : ... .. C ... : ... .. . ... ... : ... .. 9 ... ... : ... .. 9 ... ... : ... .. A ... ...
ROW 02 : ... .. D ... ... ... : ... .. D ... ... ... : ... .. . ... : ... .. 6 ... : ... .. . ... ... : ... .. 8 ... ... : ... .. 8 ... ... : ... .. 6 ... ...
ROW 03 : ... .. A ... ... ... : ... .. A ... ... ... : ... .. . ... : ... .. 3 ... : ... .. . ... ... : ... .. 7 ... ... : ... .. 7 ... ... : ... .. . ... ...
ROW 04 : ... .. . ... ... ... : ... .. . ... ... ... : ... .. . ... : ... .. 2 ... : ... .. . ... ... : ... .. . ... ... : F#4 01 6 ... ... : --- .. . P83 ...
ROW 05 : ... .. . ... ... ... : ... .. . ... ... ... : ... .. . ... : ... .. 0 ... : ... .. . ... ... : ... .. 6 ... ... : ... .. . ... ... : ... .. . ... ...
ROW 06 : ... .. . ... ... ... : ... .. . ... ... ... : ... .. . ... : ... .. . ... : ... .. . ... ... : --- .. . ... ... : ... .. 5 ... ... : ... .. . ... ...
ROW 07 : ... .. 2 ... ... ... : ... .. 2 ... ... ... : ... .. . ... : ... .. . ... : ... .. . ... ... : ... .. . ... ... : ... .. 4 ... ... : ... .. . ... ...
ROW 08 : ... .. F ... ... ... : B-4 00 F ... ... ... : F-2 00 . ... : 8-# 00 8 ... : ... .. . ... ... : B-3 01 A ... ... : A-4 01 A ... ... : F-0 01 C P80 ...
ROW 09 : ... .. E ... ... ... : ... .. E ... ... ... : ... .. . ... : ... .. 6 ... : ... .. . ... ... : ... .. 9 ... ... : ... .. 9 ... ... : ... .. A ... ...
ROW 0A : ... .. D ... ... ... : ... .. D ... ... ... : ... .. . ... : ... .. 0 ... : ... .. . ... ... : ... .. 8 ... ... : ... .. 8 ... ... : ... .. 6 ... ...
ROW 0B : ... .. A ... ... ... : ... .. A ... ... ... : ... .. . ... : ... .. . ... : ... .. . ... ... : ... .. 7 ... ... : ... .. 7 ... ... : ... .. . ... ...
ROW 0C : ... .. . ... ... ... : ... .. . ... ... ... : ... .. . ... : ... .. 8 ... : ... .. . ... ... : ... .. . ... ... : G#4 01 6 ... ... : --- .. . P82 ...
ROW 0D : ... .. . ... ... ... : ... .. . ... ... ... : ... .. . ... : ... .. 6 ... : ... .. . ... ... : ... .. 6 ... ... : ... .. . ... ... : ... .. . ... ...
ROW 0E : ... .. . ... ... ... : ... .. . ... ... ... : ... .. . ... : ... .. 0 ... : ... .. . ... ... : --- .. . ... ... : ... .. 5 ... ... : ... .. . ... ...
ROW 0F : ... .. 2 ... ... ... : ... .. 2 ... ... ... : ... .. . ... : ... .. . ... : ... .. . ... ... : ... .. . ... ... : ... .. 4 ... ... : ... .. . ... ...
ROW 10 : G#4 00 F ... ... ... : F-4 00 F ... ... ... : E-5 00 . ... : 9-# 00 D ... : ... .. . ... ... : D#4 01 A ... ... : F-4 01 A ... ... : F-1 01 C P80 ...
ROW 11 : ... .. E ... ... ... : ... .. E ... ... ... : F#4 00 . ... : ... .. B ... : ... .. . ... ... : ... .. 9 ... ... : ... .. 9 ... ... : ... .. A ... ...
ROW 12 : ... .. D ... ... ... : ... .. D ... ... ... : B-3 00 . ... : ... .. . ... : ... .. . ... ... : ... .. 8 ... ... : ... .. 8 ... ... : ... .. 6 ... ...
ROW 13 : ... .. A ... ... ... : ... .. A ... ... ... : A#3 00 . ... : ... .. A ... : ... .. . ... ... : ... .. 7 ... ... : ... .. 7 ... ... : ... .. . ... ...
ROW 14 : ... .. . ... ... ... : ... .. . ... ... ... : F-3 00 . ... : ... .. 8 ... : ... .. . ... ... : ... .. . ... ... : A-4 01 6 ... ... : ... .. . ... ...
ROW 15 : ... .. . ... ... ... : ... .. . ... ... ... : ... .. . ... : ... .. 7 ... : ... .. . ... ... : ... .. 6 ... ... : ... .. . ... ... : ... .. . ... ...
ROW 16 : ... .. . ... ... ... : ... .. . ... ... ... : ... .. . ... : ... .. 6 ... : ... .. . ... ... : --- .. . ... ... : ... .. 5 ... ... : ... .. . ... ...
ROW 17 : ... .. 2 ... ... ... : ... .. 2 ... ... ... : ... .. . ... : ... .. . ... : ... .. . ... ... : ... .. . ... ... : ... .. 4 ... ... : ... .. . ... ...
ROW 18 : F-2 00 F ... ... ... : D#5 00 F ... ... ... : D#3 00 . P88 : 1-# 00 F ... : ... .. . ... ... : G#3 01 A ... ... : F#4 01 A ... ... : ... .. . P60 ...
ROW 19 : ... .. E ... ... ... : ... .. E ... ... ... : D-3 00 . P7D : ... .. C ... : ... .. . ... ... : ... .. 9 ... ... : ... .. 9 ... ... : E-1 01 6 P97 ...
ROW 1A : ... .. D ... ... ... : ... .. D ... ... ... : C-3 00 . P8C : ... .. 6 ... : ... .. . ... ... : ... .. 8 ... ... : ... .. 8 ... ... : ... .. . P77 ...
ROW 1B : ... .. A ... ... ... : ... .. A ... ... ... : B-2 00 . P85 : ... .. 3 ... : ... .. . ... ... : ... .. 7 ... ... : ... .. 7 ... ... : ... .. . P57 ...
ROW 1C : ... .. . ... ... ... : ... .. . ... ... ... : A#2 00 . P80 : ... .. F ... : ... .. . ... ... : ... .. . ... ... : F-4 01 6 ... ... : --- .. . P82 ...
ROW 1D : ... .. . ... ... ... : ... .. . ... ... ... : A-2 00 . P7C : ... .. C ... : ... .. . ... ... : ... .. 6 ... ... : ... .. . ... ... : ... .. . ... ...
ROW 1E : ... .. . ... ... ... : ... .. . ... ... ... : G#2 00 . P7B : ... .. 6 ... : ... .. . ... ... : --- .. . P83 ... : ... .. 5 ... ... : ... .. . ... ...
ROW 1F : ... .. 2 ... ... ... : ... .. 2 ... ... ... : G-2 00 . ... : ... .. 3 ... : ... .. . ... ... : ... .. . ... ... : ... .. 4 ... ... : ... .. . ... ...
ROW 20 : ... .. F ... ... ... : D-5 00 F ... ... ... : F-4 00 . P80 : ... .. F ... : ... .. . ... ... : G#3 01 A P81 ... : G#4 01 A ... ... : F-2 01 C P80 ...
ROW 21 : ... .. E ... ... ... : ... .. E ... ... ... : ... .. . ... : ... .. C ... : ... .. . ... ... : ... .. 9 ... ... : ... .. 9 ... ... : ... .. A ... ...
ROW 22 : ... .. D ... ... ... : ... .. D ... ... ... : ... .. . ... : ... .. 6 ... : ... .. . ... ... : ... .. 8 ... ... : ... .. 8 ... ... : ... .. 6 ... ...
ROW 23 : ... .. A ... ... ... : ... .. A ... ... ... : ... .. . ... : ... .. 3 ... : ... .. . ... ... : ... .. 7 ... ... : ... .. 7 ... ... : ... .. . ... ...
ROW 24 : ... .. . ... ... ... : ... .. . ... ... ... : ... .. . ... : ... .. 2 ... : ... .. . ... ... : ... .. . ... ... : F#4 01 6 ... ... : --- .. . P7E ...
ROW 25 : ... .. . ... ... ... : ... .. . ... ... ... : ... .. . ... : ... .. 0 ... : ... .. . ... ... : ... .. 6 ... ... : ... .. . ... ... : ... .. . ... ...
ROW 26 : ... .. . ... ... ... : ... .. . ... ... ... : ... .. . ... : ... .. . ... : ... .. . ... ... : --- .. . P83 ... : ... .. 5 ... ... : ... .. . ... ...
ROW 27 : ... .. 2 ... ... ... : ... .. 2 ... ... ... : ... .. . ... : ... .. . ... : ... .. . ... ... : ... .. . ... ... : ... .. 4 ... ... : ... .. . ... ...
ROW 28 : G#4 00 F ... ... ... : F-4 00 F ... ... ... : E-4 00 . ... : 9-# 00 D ... : ... .. . ... ... : D#4 01 A P81 ... : F-4 01 A ... ... : F-0 01 C P80 ...
ROW 29 : ... .. E ... ... ... : ... .. E ... ... ... : F#3 00 . ... : ... .. B ... : ... .. . ... ... : ... .. 9 ... ... : ... .. 9 ... ... : ... .. A ... ...
ROW 2A : ... .. D ... ... ... : ... .. D ... ... ... : B-2 00 . ... : ... .. . ... : ... .. . ... ... : ... .. 8 ... ... : ... .. 8 ... ... : ... .. 6 ... ...
ROW 2B : ... .. A ... ... ... : ... .. A ... ... ... : A#2 00 . ... : ... .. A ... : ... .. . ... ... : ... .. 7 ... ... : ... .. 7 ... ... : ... .. . ... ...
ROW 2C : ... .. . ... ... ... : ... .. . ... ... ... : F-2 00 . ... : ... .. 8 ... : ... .. . ... ... : ... .. . ... ... : G#4 01 6 ... ... : ... .. . ... ...
ROW 2D : ... .. . ... ... ... : ... .. . ... ... ... : ... .. . ... : ... .. 7 ... : ... .. . ... ... : ... .. 6 ... ... : ... .. . ... ... : ... .. . ... ...
ROW 2E : ... .. . ... ... ... : ... .. . ... ... ... : ... .. . ... : ... .. 6 ... : ... .. . ... ... : --- .. . ... ... : ... .. 5 ... ... : ... .. . ... ...
ROW 2F : ... .. 2 ... ... ... : ... .. 2 ... ... ... : ... .. . ... : ... .. . ... : ... .. . ... ... : ... .. . ... ... : ... .. 4 ... ... : ... .. . ... ...
ROW 30 : F-2 00 F ... ... ... : C-5 00 F ... ... ... : E-2 00 . P86 : 1-# 00 F ... : ... .. . ... ... : G#3 01 A ... ... : F#4 01 A ... ... : ... .. . P60 ...
ROW 31 : ... .. E ... ... ... : ... .. E ... ... ... : D#2 00 . P8E : ... .. C ... : ... .. . ... ... : ... .. 9 ... ... : ... .. 9 ... ... : ... .. . P40 ...
ROW 32 : ... .. D ... ... ... : ... .. D ... ... ... : ... .. . P6E : ... .. 6 ... : ... .. . ... ... : ... .. 8 ... ... : ... .. 8 ... ... : E-0 01 6 PCE ...
ROW 33 : ... .. A ... ... ... : ... .. A ... ... ... : D-2 00 . P79 : ... .. 3 ... : ... .. . ... ... : ... .. 7 ... ... : ... .. 7 ... ... : ... .. . PAE ...
ROW 34 : ... .. . ... ... ... : ... .. . ... ... ... : C#2 00 . P86 : ... .. 2 ... : ... .. . ... ... : ... .. . ... ... : F-4 01 6 ... ... : --- .. . P83 ...
ROW 35 : ... .. . ... ... ... : ... .. . ... ... ... : C-2 00 . P96 : ... .. 0 ... : ... .. . ... ... : ... .. 6 ... ... : ... .. . ... ... : ... .. . ... ...
ROW 36 : ... .. . ... ... ... : ... .. . ... ... ... : ... .. . P76 : ... .. . ... : ... .. . ... ... : --- .. . P83 ... : ... .. 5 ... ... : ... .. . ... ...
ROW 37 : ... .. 2 ... ... ... : ... .. 2 ... ... ... : B-1 00 . P89 : ... .. . ... : ... .. . ... ... : ... .. . ... ... : ... .. 4 ... ... : ... .. . ... ...
ROW 38 : ... .. F ... ... ... : B-4 00 F ... ... ... : F-4 00 . P80 : ... .. F ... : ... .. . ... ... : G#3 01 A P81 ... : G#4 01 A ... ... : F-2 01 C P80 ...
ROW 39 : ... .. E ... ... ... : ... .. E ... ... ... : ... .. . ... : ... .. C ... : ... .. . ... ... : ... .. 9 ... ... : ... .. 9 ... ... : ... .. A ... ...
ROW 3A : ... .. D ... ... ... : ... .. D ... ... ... : ... .. . ... : ... .. 6 ... : ... .. . ... ... : ... .. 8 ... ... : ... .. 8 ... ... : ... .. 6 ... ...
ROW 3B : ... .. A ... ... ... : ... .. A ... ... ... : ... .. . ... : ... .. 3 ... : ... .. . ... ... : ... .. 7 ... ... : ... .. 7 ... ... : ... .. . ... ...
ROW 3C : ... .. . ... ... ... : ... .. . ... ... ... : ... .. . ... : ... .. 2 ... : ... .. . ... ... : ... .. . ... ... : F#4 01 6 ... ... : --- .. . P7E ...
ROW 3D : ... .. . ... ... ... : ... .. . ... ... ... : ... .. . ... : ... .. 0 ... : ... .. . ... ... : ... .. 6 ... ... : ... .. . ... ... : ... .. . ... ...
ROW 3E : ... .. . ... ... ... : ... .. . ... ... ... : ... .. . ... : ... .. . ... : ... .. . ... ... : --- .. . P83 ... : ... .. 5 ... ... : ... .. . ... ...
ROW 3F : ... .. 2 ... ... ... : ... .. 2 ... ... ... : ... .. . ... : ... .. . ... : ... .. . ... ... : ... .. . ... ... : ... .. 4 ... ... : ... .. . ... ...
ROW 40 : A#4 00 F ... ... ... : G#5 00 F ... ... ... : E-5 00 . ... : 9-# 00 D ... : ... .. . ... ... : F-4 01 A P81 ... : F-4 01 A ... ... : F-1 01 C P80 ...
ROW 41 : ... .. E ... ... ... : ... .. E ... ... ... : F#4 00 . ... : ... .. B ... : ... .. . ... ... : ... .. 9 ... ... : ... .. 9 ... ... : ... .. A ... ...
ROW 42 : ... .. D ... ... ... : ... .. D ... ... ... : B-3 00 . ... : ... .. . ... : ... .. . ... ... : ... .. 8 ... ... : ... .. 8 ... ... : ... .. 6 ... ...
ROW 43 : ... .. A ... ... ... : ... .. A ... ... ... : A#3 00 . ... : ... .. A ... : ... .. . ... ... : ... .. 7 ... ... : ... .. 7 ... ... : ... .. . ... ...
ROW 44 : ... .. . ... ... ... : D#5 00 F ... ... ... : F-3 00 . ... : ... .. 8 ... : ... .. . ... ... : ... .. . ... ... : G#4 01 6 ... ... : ... .. . ... ...
ROW 45 : ... .. . ... ... ... : ... .. E ... ... ... : ... .. . ... : ... .. 7 ... : ... .. . ... ... : ... .. 6 ... ... : ... .. . ... ... : ... .. . ... ...
ROW 46 : ... .. . ... ... ... : ... .. A ... ... ... : ... .. . ... : ... .. 6 ... : ... .. . ... ... : --- .. . ... ... : ... .. 5 ... ... : ... .. . ... ...
ROW 47 : ... .. 2 ... ... ... : ... .. 2 ... ... ... : ... .. . ... : ... .. . ... : ... .. . ... ... : ... .. . ... ... : ... .. 4 ... ... : ... .. . ... ...
ROW 48 : F-2 00 F ... ... ... : B-4 00 F ... ... ... : ... .. . ... : 1-# 00 F ... : ... .. . ... ... : A#3 01 A ... ... : F#4 01 A ... ... : ... .. . ... ...
ROW 49 : ... .. E ... ... ... : ... .. E ... ... ... : ... .. . ... : ... .. C ... : ... .. . ... ... : ... .. 9 ... ... : ... .. 9 ... ... : ... .. . ... ...
ROW 4A : ... .. D ... ... ... : ... .. A ... ... ... : ... .. . ... : ... .. 6 ... : ... .. . ... ... : ... .. 8 ... ... : ... .. 8 ... ... : ... .. . ... ...
ROW 4B : ... .. A ... ... ... : ... .. 2 ... ... ... : ... .. . ... : ... .. 3 ... : ... .. . ... ... : ... .. 7 ... ... : ... .. 7 ... ... : ... .. . ... ...
ROW 4C : ... .. . ... ... ... : G#4 00 F ... ... ... : ... .. . ... : ... .. 2 ... : ... .. . ... ... : ... .. . ... ... : F-4 01 6 ... ... : --- .. . P7F ...
ROW 4D : ... .. . ... ... ... : ... .. E ... ... ... : ... .. . ... : ... .. 0 ... : ... .. . ... ... : ... .. 6 ... ... : ... .. . ... ... : ... .. . ... ...
ROW 4E : ... .. . ... ... ... : ... .. A ... ... ... : ... .. . ... : ... .. . ... : ... .. . ... ... : --- .. . ... ... : ... .. 5 ... ... : ... .. . ... ...
ROW 4F : ... .. 2 ... ... ... : ... .. 2 ... ... ... : ... .. . ... : ... .. . ... : ... .. . ... ... : ... .. . ... ... : ... .. 4 ... ... : ... .. . ... ...
ROW 50 : B-4 00 F ... ... ... : D#4 00 F ... ... ... : D#3 00 . ... : 7-# 00 F ... : ... .. . ... ... : F#4 01 A ... ... : G#4 01 A ... ... : D#1 01 C P80 ...
ROW 51 : ... .. E ... ... ... : ... .. E ... ... ... : ... .. . ... : ... .. C ... : ... .. . ... ... : ... .. 9 ... ... : ... .. 9 ... ... : ... .. A ... ...
ROW 52 : ... .. D ... ... ... : ... .. D ... ... ... : ... .. . ... : ... .. 6 ... : ... .. . ... ... : ... .. 8 ... ... : ... .. 8 ... ... : ... .. 6 ... ...
ROW 53 : ... .. A ... ... ... : ... .. A ... ... ... : ... .. . ... : ... .. 3 ... : ... .. . ... ... : ... .. 7 ... ... : ... .. 7 ... ... : ... .. . ... ...
ROW 54 : ... .. . ... ... ... : B-3 00 F ... ... ... : ... .. . ... : 8-# 00 F ... : ... .. . ... ... : ... .. . ... ... : F#4 01 6 ... ... : --- .. . P81 ...
ROW 55 : ... .. . ... ... ... : ... .. E ... ... ... : ... .. . ... : ... .. C ... : ... .. . ... ... : ... .. 6 ... ... : ... .. . ... ... : ... .. . ... ...
ROW 56 : ... .. . ... ... ... : ... .. A ... ... ... : ... .. . ... : ... .. 6 ... : ... .. . ... ... : --- .. . ... ... : ... .. 5 ... ... : ... .. . ... ...
ROW 57 : ... .. 2 ... ... ... : ... .. 2 ... ... ... : ... .. . ... : ... .. 3 ... : ... .. . ... ... : ... .. . ... ... : ... .. 4 ... ... : ... .. . ... ...
ROW 58 : F-2 00 F ... ... ... : G#3 00 F ... ... ... : F-2 00 . ... : A-# 00 F ... : ... .. . ... ... : B-3 01 A ... ... : A-4 01 A ... ... : D#2 01 C P80 ...
ROW 59 : ... .. E ... ... ... : ... .. E ... ... ... : ... .. . ... : ... .. C ... : ... .. . ... ... : ... .. 9 ... ... : ... .. 9 ... ... : ... .. A ... ...
ROW 5A : ... .. D ... ... ... : ... .. A ... ... ... : ... .. . ... : ... .. 6 ... : ... .. . ... ... : ... .. 8 ... ... : ... .. 8 ... ... : ... .. 6 ... ...
ROW 5B : ... .. A ... ... ... : ... .. 2 ... ... ... : ... .. . ... : ... .. 3 ... : ... .. . ... ... : ... .. 7 ... ... : ... .. 7 ... ... : ... .. . ... ...
ROW 5C : ... .. . ... ... ... : D#3 00 F ... ... ... : ... .. . ... : B-# 00 F ... : ... .. . ... ... : ... .. . ... ... : G#4 01 6 ... ... : --- .. . ... ...
ROW 5D : ... .. . ... ... ... : ... .. E ... ... ... : ... .. . ... : ... .. C ... : ... .. . ... ... : ... .. 6 ... ... : ... .. . ... ... : ... .. . ... ...
ROW 5E : ... .. . ... ... ... : ... .. A ... ... ... : ... .. . ... : ... .. 6 ... : ... .. . ... ... : --- .. . ... ... : ... .. 5 ... ... : ... .. . ... ...
ROW 5F : ... .. 2 ... ... ... : ... .. 2 ... ... ... : ... .. . ... : ... .. 3 ... : ... .. . ... ... : ... .. . ... ... : ... .. 4 ... ... : ... .. . ... ...
ROW 60 : F-4 00 F ... ... ... : F-3 00 F ... ... ... : E-5 00 . ... : C-# 00 F ... : ... .. . ... ... : G#4 01 A ... ... : B-4 01 A ... ... : ... .. . ... ...
ROW 61 : ... .. E ... ... ... : ... .. E ... ... ... : F#4 00 . ... : ... .. . ... : ... .. . ... ... : ... .. 9 ... ... : ... .. 9 ... ... : ... .. . ... ...
ROW 62 : ... .. D ... ... ... : ... .. A ... ... ... : B-3 00 . ... : ... .. A ... : ... .. . ... ... : ... .. 8 ... ... : ... .. 8 ... ... : ... .. . ... ...
ROW 63 : ... .. A ... ... ... : ... .. 2 ... ... ... : A#3 00 . ... : ... .. . ... : ... .. . ... ... : ... .. 7 ... ... : ... .. 7 ... ... : ... .. . ... ...
ROW 64 : ... .. . ... ... ... : D#3 00 F ... ... ... : F-3 00 . ... : ... .. 9 ... : ... .. . ... ... : ... .. . ... ... : A-4 01 6 ... ... : ... .. . ... ...
ROW 65 : ... .. . ... ... ... : ... .. E ... ... ... : ... .. . ... : ... .. . ... : ... .. . ... ... : ... .. 6 ... ... : ... .. . ... ... : ... .. . ... ...
ROW 66 : ... .. . ... ... ... : ... .. A ... ... ... : ... .. . ... : ... .. 8 ... : ... .. . ... ... : --- .. . ... ... : ... .. 5 ... ... : ... .. . ... ...
ROW 67 : ... .. 2 ... ... ... : ... .. 2 ... ... ... : --- .. . ... : ... .. . ... : ... .. . ... ... : ... .. . ... ... : ... .. 4 ... ... : ... .. . ... ...
ROW 68 : D#4 00 F ... ... ... : C#3 00 F ... ... ... : D#3 00 . ... : ... .. 7 ... : ... .. . ... ... : D#4 01 A ... ... : C-5 01 9 ... ... : ... .. . ... ...
ROW 69 : ... .. E ... ... ... : ... .. E ... ... ... : ... .. . ... : ... .. . ... : ... .. . ... ... : ... .. 9 ... ... : ... .. 8 ... ... : ... .. . ... ...
ROW 6A : ... .. C ... ... ... : ... .. A ... ... ... : ... .. . ... : ... .. 6 ... : ... .. . ... ... : ... .. 7 ... ... : ... .. 7 ... ... : ... .. . ... ...
ROW 6B : ... .. 9 ... ... ... : ... .. 2 ... ... ... : ... .. . ... : ... .. . ... : ... .. . ... ... : ... .. 6 ... ... : ... .. 6 ... ... : ... .. . ... ...
ROW 6C : ... .. . ... ... ... : B-2 00 F ... ... ... : ... .. . ... : ... .. 5 ... : ... .. . ... ... : ... .. . ... ... : B-4 01 6 ... ... : ... .. . ... ...
ROW 6D : ... .. . ... ... ... : ... .. E ... ... ... : ... .. . ... : ... .. . ... : ... .. . ... ... : ... .. 5 ... ... : ... .. 5 ... ... : ... .. . ... ...
ROW 6E : ... .. . ... ... ... : ... .. A ... ... ... : ... .. . ... : ... .. . ... : ... .. . ... ... : --- .. . ... ... : ... .. 4 ... ... : ... .. . ... ...
ROW 6F : ... .. 1 ... ... ... : ... .. 2 ... ... ... : --- .. . ... : ... .. . ... : ... .. . ... ... : ... .. . ... ... : ... .. . ... ... : ... .. . ... ...
ROW 70 : B-3 00 E ... ... ... : A-2 00 F ... ... ... : B-2 00 . ... : ... .. . ... : ... .. . ... ... : A-4 01 8 ... ... : D-5 01 8 ... ... : ... .. . ... ...
ROW 71 : ... .. D ... ... ... : ... .. E ... ... ... : ... .. . ... : ... .. . ... : ... .. . ... ... : ... .. 7 ... ... : ... .. 7 ... ... : ... .. . ... ...
ROW 72 : ... .. C ... ... ... : ... .. A ... ... ... : ... .. . ... : ... .. . ... : ... .. . ... ... : ... .. 6 ... ... : ... .. 6 ... ... : ... .. . ... ...
ROW 73 : ... .. 9 ... ... ... : ... .. 2 ... ... ... : ... .. . ... : ... .. . ... : ... .. . ... ... : ... .. 5 ... ... : ... .. . ... ... : ... .. . ... ...
ROW 74 : ... .. . ... ... ... : F-2 00 F ... ... ... : ... .. . ... : ... .. . ... : ... .. . ... ... : ... .. . ... ... : C-5 01 5 ... ... : ... .. . ... ...
ROW 75 : ... .. . ... ... ... : ... .. E ... ... ... : ... .. . ... : ... .. . ... : ... .. . ... ... : ... .. 4 ... ... : ... .. 4 ... ... : ... .. . ... ...
ROW 76 : ... .. . ... ... ... : ... .. A ... ... ... : ... .. . ... : ... .. 4 ... : ... .. . ... ... : --- .. . ... ... : ... .. . ... ... : ... .. . ... ...
ROW 77 : ... .. 1 ... ... ... : ... .. 2 ... ... ... : --- .. . ... : ... .. . ... : ... .. . ... ... : ... .. . ... ... : ... .. 3 ... ... : ... .. . ... ...
ROW 78 : A-3 00 E ... ... ... : D#2 00 F ... ... ... : A-2 00 . ... : ... .. . ... : ... .. . ... ... : F-4 01 7 ... ... : D#5 01 8 ... ... : ... .. . ... ...
ROW 79 : ... .. D ... ... ... : ... .. E ... ... ... : ... .. . ... : ... .. . ... : ... .. . ... ... : ... .. 6 ... ... : ... .. 7 ... ... : ... .. . ... ...
ROW 7A : ... .. B ... ... ... : ... .. A ... ... ... : ... .. . ... : ... .. . ... : ... .. . ... ... : ... .. 5 ... ... : ... .. 6 ... ... : ... .. . ... ...
ROW 7B : ... .. 8 ... ... ... : ... .. 2 ... ... ... : ... .. . ... : ... .. . ... : ... .. . ... ... : ... .. 4 ... ... : ... .. 5 ... ... : ... .. . ... ...
ROW 7C : ... .. . ... ... ... : B-1 00 F ... ... ... : ... .. . ... : ... .. . ... : ... .. . ... ... : ... .. . ... ... : D-5 01 4 ... ... : ... .. . ... ...
ROW 7D : ... .. . ... ... ... : ... .. E ... ... ... : ... .. . ... : ... .. . ... : ... .. . ... ... : ... .. . ... ... : ... .. . ... ... : ... .. . ... ...
ROW 7E : ... .. . ... ... ... : ... .. A ... ... ... : ... .. . ... : ... .. . ... : ... .. . ... ... : --- .. . ... ... : ... .. 3 ... ... : ... .. . ... ...
ROW 7F : ... .. 1 ... ... ... : ... .. 2 ... ... ... : --- .. . ... : ... .. . ... : ... .. . ... ... : ... .. . ... ... : ... .. . ... ... : ... .. . ... ...
ROW 80 : F-3 00 D ... ... ... : A-1 00 F ... ... ... : F-2 00 . ... : ... .. 3 ... : ... .. . ... ... : B-4 01 6 ... ... : F-5 01 7 ... ... : ... .. . ... ...
ROW 81 : ... .. C ... ... ... : ... .. E ... ... ... : ... .. . ... : ... .. . ... : ... .. . ... ... : ... .. 5 ... ... : ... .. 6 ... ... : ... .. . ... ...
ROW 82 : ... .. B ... ... ... : ... .. A ... ... ... : ... .. . ... : ... .. . ... : ... .. . ... ... : ... .. 4 ... ... : ... .. 5 ... ... : ... .. . ... ...
ROW 83 : ... .. 8 ... ... ... : ... .. 2 ... ... ... : ... .. . ... : ... .. . ... : ... .. . ... ... : ... .. . ... ... : ... .. . ... ... : ... .. . ... ...
ROW 84 : ... .. . ... ... ... : F-1 00 F ... ... ... : ... .. . ... : ... .. . ... : ... .. . ... ... : ... .. 3 ... ... : D#5 01 4 ... ... : ... .. . ... ...
ROW 85 : ... .. . ... ... ... : ... .. E ... ... ... : ... .. . ... : ... .. . ... : ... .. . ... ... : ... .. . ... ... : ... .. 3 ... ... : ... .. . ... ...
ROW 86 : ... .. . ... ... ... : ... .. A ... ... ... : ... .. . ... : ... .. . ... : ... .. . ... ... : --- .. . ... ... : ... .. . ... ... : ... .. . ... ...
ROW 87 : ... .. 1 ... ... ... : ... .. 2 ... ... ... : --- .. . ... : ... .. . ... : ... .. . ... ... : ... .. . ... ... : ... .. 2 ... ... : ... .. . ... ...
ROW 88 : D#3 00 D ... ... ... : D#1 00 F ... ... ... : D#2 00 . ... : ... .. . ... : ... .. . ... ... : F-4 01 4 ... ... : F#5 01 6 ... ... : ... .. . ... ...
ROW 89 : ... .. C ... ... ... : ... .. E ... ... ... : ... .. . ... : ... .. . ... : ... .. . ... ... : ... .. . ... ... : ... .. . ... ... : ... .. . ... ...
ROW 8A : ... .. A ... ... ... : ... .. A ... ... ... : ... .. . ... : ... .. 2 ... : ... .. . ... ... : ... .. 3 ... ... : ... .. 5 ... ... : ... .. . ... ...
ROW 8B : ... .. 8 ... ... ... : ... .. 2 ... ... ... : ... .. . ... : ... .. . ... : ... .. . ... ... : ... .. . ... ... : ... .. 4 ... ... : ... .. . ... ...
ROW 8C : ... .. . ... ... ... : B-0 00 F ... ... ... : ... .. . ... : ... .. . ... : ... .. . ... ... : ... .. 2 ... ... : F-5 01 3 ... ... : ... .. . ... ...
ROW 8D : ... .. . ... ... ... : ... .. E ... ... ... : ... .. . ... : ... .. . ... : ... .. . ... ... : ... .. . ... ... : ... .. . ... ... : ... .. . ... ...
ROW 8E : ... .. . ... ... ... : ... .. A ... ... ... : ... .. . ... : ... .. . ... : ... .. . ... ... : --- .. . ... ... : ... .. 2 ... ... : ... .. . ... ...
ROW 8F : ... .. 1 ... ... ... : ... .. 2 ... ... ... : --- .. . ... : ... .. . ... : ... .. . ... ... : ... .. . ... ... : ... .. . ... ... : ... .. . ... ...
ROW 90 : B-2 00 C ... ... ... : A-0 00 F ... ... ... : B-1 00 . ... : ... .. . ... : ... .. . ... ... : C-5 01 3 ... ... : G#5 01 6 ... ... : ... .. . ... ...
ROW 91 : ... .. B ... ... ... : ... .. E ... ... ... : ... .. . ... : ... .. . ... : ... .. . ... ... : ... .. . ... ... : ... .. 5 ... ... : ... .. . ... ...
ROW 92 : ... .. A ... ... ... : ... .. 0 ... ... ... : ... .. . ... : ... .. . ... : ... .. . ... ... : ... .. 2 ... ... : ... .. 4 ... ... : ... .. . ... ...
ROW 93 : ... .. 8 ... ... ... : ... .. . ... ... ... : ... .. . ... : ... .. . ... : ... .. . ... ... : ... .. . ... ... : ... .. . ... ... : ... .. . ... ...
ROW 94 : ... .. . ... ... ... : ... .. . ... ... ... : ... .. . ... : ... .. 1 ... : ... .. . ... ... : ... .. 1 ... ... : F#5 01 2 ... ... : ... .. . ... ...
ROW 95 : ... .. . ... ... ... : ... .. . ... ... ... : ... .. . ... : ... .. . ... : ... .. . ... ... : ... .. . ... ... : ... .. . ... ... : ... .. . ... ...
ROW 96 : ... .. . ... ... ... : ... .. . ... ... ... : ... .. . ... : ... .. . ... : ... .. . ... ... : --- .. . ... ... : ... .. . ... ... : ... .. . ... ...
ROW 97 : ... .. 1 ... ... ... : ... .. . ... ... ... : ... .. . ... : ... .. . ... : ... .. . ... ... : ... .. . ... ... : ... .. 1 ... ... : ... .. . ... ...
ROW 98 : A-2 00 C ... ... ... : ... .. . ... ... ... : A-1 00 . ... : ... .. . ... : ... .. . ... ... : C-4 01 2 ... ... : A-5 01 5 ... ... : ... .. . ... ...
ROW 99 : ... .. B ... ... ... : ... .. . ... ... ... : ... .. . ... : ... .. . ... : ... .. . ... ... : ... .. . ... ... : ... .. 4 ... ... : ... .. . ... ...
ROW 9A : ... .. A ... ... ... : ... .. . ... ... ... : ... .. . ... : ... .. . ... : ... .. . ... ... : ... .. . ... ... : ... .. . ... ... : ... .. . ... ...
ROW 9B : ... .. 8 ... ... ... : ... .. . ... ... ... : ... .. . ... : ... .. . ... : ... .. . ... ... : ... .. 1 ... ... : ... .. 3 ... ... : ... .. . ... ...
ROW 9C : ... .. . ... ... ... : ... .. . ... ... ... : ... .. . ... : ... .. . ... : ... .. . ... ... : ... .. . ... ... : G#5 01 2 ... ... : ... .. . ... ...
ROW 9D : ... .. . ... ... ... : ... .. . ... ... ... : ... .. . ... : ... .. . ... : ... .. . ... ... : ... .. . ... ... : ... .. 1 ... ... : ... .. . ... ...
ROW 9E : ... .. . ... ... ... : ... .. . ... ... ... : ... .. . ... : ... .. . ... : ... .. . ... ... : --- .. . ... ... : --- .. . ... ... : ... .. . ... ...
ROW 9F : ... .. 1 ... ... ... : ... .. . ... ... ... : ... .. . ... : ... .. . ... : ... .. . ... ... : ... .. . ... ... : ... .. . ... ... : ... .. . ... ...
ROW A0 : F-1 00 C ... ... ... : ... .. . ... ... ... : E-4 00 . ... : B-# 00 C ... : ... .. . ... ... : C-2 01 9 ... V05 : F#3 01 7 ... ... : F-0 01 C ... ...
ROW A1 : ... .. B ... ... ... : ... .. . ... ... ... : F#3 00 . ... : ... .. . ... : ... .. . ... ... : ... .. 8 ... ... : ... .. 6 ... ... : ... .. A ... ...
ROW A2 : ... .. A ... ... ... : ... .. . ... ... ... : B-2 00 . ... : ... .. A ... : ... .. . ... ... : ... .. . ... ... : ... .. 5 ... ... : ... .. 6 ... ...
ROW A3 : ... .. 8 ... ... ... : ... .. . ... ... ... : A#2 00 . ... : ... .. . ... : ... .. . ... ... : ... .. . ... ... : ... .. . ... ... : ... .. . ... ...
ROW A4 : ... .. . ... ... ... : ... .. . ... ... ... : F-2 00 . ... : ... .. 9 ... : ... .. . ... ... : ... .. 7 ... ... : F-3 01 7 ... ... : ... .. . ... ...
ROW A5 : ... .. . ... ... ... : ... .. . ... ... ... : ... .. . ... : ... .. . ... : ... .. . ... ... : ... .. . ... ... : ... .. 6 ... ... : ... .. . ... ...
ROW A6 : ... .. . ... ... ... : ... .. . ... ... ... : ... .. . ... : ... .. 8 ... : ... .. . ... ... : ... .. 6 ... ... : ... .. 5 ... ... : ... .. . ... ...
ROW A7 : ... .. 1 ... ... ... : ... .. . ... ... ... : --- .. . ... : ... .. . ... : ... .. . ... ... : ... .. 5 ... ... : ... .. . ... ... : --- .. . P82 ...
ROW A8 : D#2 00 C ... ... ... : ... .. . ... ... ... : D#3 00 . ... : ... .. 7 ... : ... .. . ... ... : A#2 01 9 ... ... : C-3 01 7 ... ... : D#1 01 C P80 ...
ROW A9 : ... .. B ... ... ... : ... .. . ... ... ... : ... .. . ... : ... .. . ... : ... .. . ... ... : ... .. 8 ... ... : ... .. 6 ... ... : ... .. A ... ...
ROW AA : ... .. A ... ... ... : ... .. . ... ... ... : ... .. . ... : ... .. 6 ... : ... .. . ... ... : ... .. . ... ... : ... .. 5 ... ... : ... .. 6 ... ...
ROW AB : ... .. 8 ... ... ... : ... .. . ... ... ... : ... .. . ... : ... .. . ... : ... .. . ... ... : ... .. . ... ... : ... .. . ... ... : ... .. . ... ...
ROW AC : ... .. . ... ... ... : ... .. . ... ... ... : ... .. . ... : ... .. 5 ... : ... .. . ... ... : ... .. 7 ... ... : B-2 01 7 ... ... : ... .. . ... ...
ROW AD : ... .. . ... ... ... : ... .. . ... ... ... : ... .. . ... : ... .. . ... : ... .. . ... ... : ... .. . ... ... : ... .. 6 ... ... : ... .. . ... ...
ROW AE : ... .. . ... ... ... : ... .. . ... ... ... : ... .. . ... : ... .. 4 ... : ... .. . ... ... : ... .. 6 ... ... : ... .. 5 ... ... : ... .. . ... ...
ROW AF : ... .. 1 ... ... ... : ... .. . ... ... ... : --- .. . ... : ... .. . ... : ... .. . ... ... : ... .. 5 ... ... : ... .. . ... ... : --- .. . P81 ...
ROW B0 : D-2 00 C ... ... ... : F-4 00 8 P80 ... ... : D-3 00 . ... : 5-# 00 F ... : ... .. . ... ... : A-2 01 9 ... ... : F#3 01 7 ... ... : D-1 01 C P80 ...
ROW B1 : ... .. B ... ... ... : ... .. 7 ... ... ... : ... .. . ... : ... .. C ... : ... .. . ... ... : ... .. 8 ... ... : ... .. 6 ... ... : ... .. A ... ...
ROW B2 : ... .. A ... ... ... : ... .. 6 ... ... ... : ... .. . ... : B-# 00 6 ... : ... .. . ... ... : ... .. . ... ... : ... .. 5 ... ... : ... .. 6 ... ...
ROW B3 : ... .. 8 ... ... ... : ... .. 5 ... ... ... : ... .. . ... : ... .. 5 ... : ... .. . ... ... : ... .. . ... ... : ... .. . ... ... : ... .. . ... ...
ROW B4 : ... .. . ... ... ... : ... .. 6 ... ... ... : ... .. . ... : ... .. . ... : ... .. . ... ... : ... .. 7 ... ... : F-3 01 7 ... ... : ... .. . ... ...
ROW B5 : ... .. . ... ... ... : ... .. . ... ... ... : ... .. . ... : ... .. . ... : ... .. . ... ... : ... .. . ... ... : ... .. 6 ... ... : ... .. . ... ...
ROW B6 : ... .. . ... ... ... : ... .. . ... ... ... : ... .. . ... : ... .. 4 ... : ... .. . ... ... : ... .. 6 ... ... : ... .. 5 ... ... : ... .. . ... ...
ROW B7 : ... .. 1 ... ... ... : ... .. . ... ... ... : --- .. . ... : ... .. 3 ... : ... .. . ... ... : ... .. 5 ... ... : ... .. . ... ... : --- .. . ... ...
ROW B8 : F-1 00 C ... ... ... : ... .. 7 ... ... ... : F-2 00 . ... : 1-# 00 F ... : ... .. . ... ... : C-2 01 9 ... ... : C-3 01 7 ... ... : F-0 01 C ... ...
ROW B9 : ... .. B ... ... ... : ... .. . ... ... ... : ... .. . ... : ... .. C ... : ... .. . ... ... : ... .. 8 ... ... : ... .. 6 ... ... : ... .. A ... ...
ROW BA : ... .. A ... ... ... : ... .. 8 ... ... ... : ... .. . ... : ... .. 6 ... : ... .. . ... ... : ... .. . ... ... : ... .. 5 ... ... : ... .. 6 ... ...
ROW BB : ... .. 8 ... ... ... : ... .. . ... ... ... : ... .. . ... : ... .. 3 ... : ... .. . ... ... : ... .. . ... ... : ... .. . ... ... : ... .. . ... ...
ROW BC : ... .. . ... ... ... : ... .. . ... ... ... : ... .. . ... : ... .. 2 ... : ... .. . ... ... : ... .. 7 ... ... : B-2 01 7 ... ... : ... .. . ... ...
ROW BD : ... .. . ... ... ... : ... .. . ... ... ... : ... .. . ... : ... .. 0 ... : ... .. . ... ... : ... .. . ... ... : ... .. 6 ... ... : ... .. . ... ...
ROW BE : ... .. . ... ... ... : ... .. 9 ... ... ... : ... .. . ... : ... .. . ... : ... .. . ... ... : ... .. 6 ... ... : ... .. 5 ... ... : ... .. . ... ...
ROW BF : ... .. 1 ... ... ... : ... .. . ... ... ... : --- .. . ... : ... .. . ... : ... .. . ... ... : ... .. 5 ... ... : ... .. . ... ... : --- .. . P82 ...
ROW C0 : C-2 00 C ... ... ... : A-4 00 F P7F ... ... : C-3 00 . ... : ... .. F ... : ... .. . ... ... : G-2 01 9 ... ... : F#3 01 7 ... ... : C-1 01 C P80 ...
ROW C1 : ... .. B ... ... ... : D-5 00 E ... ... ... : ... .. . ... : ... .. C ... : ... .. . ... ... : ... .. 8 ... ... : ... .. 6 ... ... : ... .. A ... ...
ROW C2 : ... .. A ... ... ... : F-5 00 D P80 ... ... : ... .. . ... : B-# 00 6 ... : ... .. . ... ... : ... .. . ... ... : ... .. 5 ... ... : ... .. 6 ... ...
ROW C3 : ... .. 8 ... ... ... : ... .. A ... ... ... : ... .. . ... : ... .. 5 ... : ... .. . ... ... : ... .. . ... ... : ... .. . ... ... : ... .. . ... ...
ROW C4 : ... .. . ... ... ... : ... .. . ... ... ... : ... .. . ... : ... .. . ... : ... .. . ... ... : ... .. 7 ... ... : F-3 01 7 ... ... : ... .. . ... ...
ROW C5 : ... .. . ... ... ... : ... .. . ... ... ... : ... .. . ... : ... .. . ... : ... .. . ... ... : ... .. . ... ... : ... .. 6 ... ... : ... .. . ... ...
ROW C6 : ... .. . ... ... ... : ... .. . ... ... ... : ... .. . ... : ... .. 4 ... : ... .. . ... ... : ... .. 6 ... ... : ... .. 5 ... ... : ... .. . ... ...
ROW C7 : ... .. 1 ... ... ... : ... .. . ... ... ... : --- .. . ... : ... .. 3 ... : ... .. . ... ... : ... .. 5 ... ... : ... .. . ... ... : --- .. . ... ...
ROW C8 : B-1 00 C ... ... ... : ... .. . ... ... ... : B-2 00 . ... : 1-# 00 F ... : ... .. . ... ... : F#2 01 9 ... ... : C-3 01 7 ... ... : B-0 01 C ... ...
ROW C9 : ... .. B ... ... ... : ... .. . ... ... ... : ... .. . ... : ... .. C ... : ... .. . ... ... : ... .. 8 ... ... : ... .. 6 ... ... : ... .. A ... ...
ROW CA : ... .. A ... ... ... : ... .. . ... ... ... : ... .. . ... : ... .. 6 ... : ... .. . ... ... : ... .. . ... ... : ... .. 5 ... ... : ... .. 6 ... ...
ROW CB : ... .. 8 ... ... ... : ... .. . ... ... ... : ... .. . ... : ... .. 3 ... : ... .. . ... ... : ... .. . ... ... : ... .. . ... ... : ... .. . ... ...
ROW CC : ... .. . ... ... ... : ... .. . ... ... ... : ... .. . ... : ... .. 2 ... : ... .. . ... ... : ... .. 7 ... ... : B-2 01 7 ... ... : ... .. . ... ...
ROW CD : ... .. . ... ... ... : ... .. . ... ... ... : ... .. . ... : ... .. 0 ... : ... .. . ... ... : ... .. . ... ... : ... .. 6 ... ... : ... .. . ... ...
ROW CE : ... .. . ... ... ... : ... .. . ... ... ... : ... .. . ... : ... .. . ... : ... .. . ... ... : ... .. 6 ... ... : ... .. 5 ... ... : ... .. . ... ...
ROW CF : ... .. 1 ... ... ... : ... .. . ... ... ... : --- .. . ... : ... .. . ... : ... .. . ... ... : ... .. 5 ... ... : ... .. . ... ... : --- .. . ... ...
ROW D0 : F-1 00 C ... ... ... : D-5 00 F P7F ... ... : F-2 00 . ... : 5-# 00 F ... : ... .. . ... ... : C-2 01 9 ... ... : F#3 01 7 ... ... : F-0 01 C ... ...
ROW D1 : ... .. B ... ... ... : B-4 00 E P81 ... ... : ... .. . ... : ... .. C ... : ... .. . ... ... : ... .. 8 ... ... : ... .. 6 ... ... : ... .. A ... ...
ROW D2 : ... .. A ... ... ... : ... .. D P80 ... ... : ... .. . ... : B-# 00 6 ... : ... .. . ... ... : ... .. . ... ... : ... .. 5 ... ... : ... .. 6 ... ...
ROW D3 : ... .. 8 ... ... ... : ... .. A ... ... ... : ... .. . ... : ... .. 5 ... : ... .. . ... ... : ... .. . ... ... : ... .. . ... ... : ... .. . ... ...
ROW D4 : ... .. . ... ... ... : ... .. . ... ... ... : ... .. . ... : ... .. . ... : ... .. . ... ... : ... .. 7 ... ... : F-3 01 7 ... ... : ... .. . ... ...
ROW D5 : ... .. . ... ... ... : ... .. . ... ... ... : ... .. . ... : ... .. . ... : ... .. . ... ... : ... .. . ... ... : ... .. 6 ... ... : ... .. . ... ...
ROW D6 : ... .. . ... ... ... : ... .. . ... ... ... : ... .. . ... : ... .. 4 ... : ... .. . ... ... : ... .. 6 ... ... : ... .. 5 ... ... : ... .. . ... ...
ROW D7 : ... .. 1 ... ... ... : ... .. . ... ... ... : --- .. . ... : ... .. 3 ... : ... .. . ... ... : ... .. 5 ... ... : ... .. . ... ... : --- .. . P82 ...
ROW D8 : D#2 00 C ... ... ... : ... .. . ... ... ... : D#3 00 . ... : 1-# 00 F ... : ... .. . ... ... : A#2 01 9 ... ... : C-3 01 7 ... ... : D#1 01 C P80 ...
ROW D9 : ... .. B ... ... ... : ... .. . ... ... ... : ... .. . ... : ... .. C ... : ... .. . ... ... : ... .. 8 ... ... : ... .. 6 ... ... : ... .. A ... ...
ROW DA : ... .. A ... ... ... : ... .. . ... ... ... : ... .. . ... : ... .. 6 ... : ... .. . ... ... : ... .. . ... ... : ... .. 5 ... ... : ... .. 6 ... ...
ROW DB : ... .. 8 ... ... ... : ... .. . ... ... ... : ... .. . ... : ... .. 3 ... : ... .. . ... ... : ... .. . ... ... : ... .. . ... ... : ... .. . ... ...
ROW DC : ... .. . ... ... ... : ... .. . ... ... ... : ... .. . ... : ... .. 2 ... : ... .. . ... ... : ... .. 7 ... ... : B-2 01 7 ... ... : ... .. . ... ...
ROW DD : ... .. . ... ... ... : ... .. . ... ... ... : ... .. . ... : ... .. 0 ... : ... .. . ... ... : ... .. . ... ... : ... .. 6 ... ... : ... .. . ... ...
ROW DE : ... .. . ... ... ... : ... .. 9 ... ... ... : ... .. . ... : ... .. . ... : ... .. . ... ... : ... .. 6 ... ... : ... .. 5 ... ... : ... .. . ... ...
ROW DF : ... .. 1 ... ... ... : ... .. . ... ... ... : --- .. . ... : ... .. . ... : ... .. . ... ... : ... .. 5 ... ... : ... .. . ... ... : --- .. . P81 ...
ROW E0 : D-2 00 C ... ... ... : C-5 00 8 P7E ... ... : D-3 00 . ... : ... .. F ... : ... .. . ... ... : A-2 01 9 ... ... : F#3 01 7 ... ... : D-1 01 C P80 ...
ROW E1 : ... .. B ... ... ... : ... .. . P80 ... ... : ... .. . ... : ... .. C ... : ... .. . ... ... : ... .. 8 ... ... : ... .. 6 ... ... : ... .. A ... ...
ROW E2 : ... .. A ... ... ... : ... .. . P7F ... ... : ... .. . ... : B-# 00 6 ... : ... .. . ... ... : ... .. . ... ... : ... .. 5 ... ... : ... .. 6 ... ...
ROW E3 : ... .. 8 ... ... ... : B-4 00 8 P82 ... ... : ... .. . ... : ... .. 5 ... : ... .. . ... ... : ... .. . ... ... : ... .. . ... ... : ... .. . ... ...
ROW E4 : ... .. . ... ... ... : ... .. . P7E ... ... : ... .. . ... : ... .. . ... : ... .. . ... ... : ... .. 7 ... ... : F-3 01 7 ... ... : ... .. . ... ...
ROW E5 : ... .. . ... ... ... : A#4 00 8 P82 ... ... : ... .. . ... : ... .. . ... : ... .. . ... ... : ... .. . ... ... : ... .. 6 ... ... : ... .. . ... ...
ROW E6 : ... .. . ... ... ... : ... .. 7 P81 ... ... : ... .. . ... : ... .. 4 ... : ... .. . ... ... : ... .. 6 ... ... : ... .. 5 ... ... : ... .. . ... ...
ROW E7 : ... .. 1 ... ... ... : ... .. . P83 ... ... : --- .. . ... : ... .. 3 ... : ... .. . ... ... : ... .. 5 ... ... : ... .. . ... ... : --- .. . ... ...
ROW E8 : F-1 00 C ... ... ... : B-4 00 6 P80 ... ... : F-2 00 . ... : 1-# 00 F ... : ... .. . ... ... : C-2 01 9 ... ... : C-3 01 7 ... ... : F-0 01 C ... ...
ROW E9 : ... .. B ... ... ... : ... .. . P83 ... ... : ... .. . ... : ... .. C ... : ... .. . ... ... : ... .. 8 ... ... : ... .. 6 ... ... : ... .. A ... ...
ROW EA : ... .. A ... ... ... : C-5 00 6 P80 ... ... : ... .. . ... : ... .. 6 ... : ... .. . ... ... : ... .. . ... ... : ... .. 5 ... ... : ... .. 6 ... ...
ROW EB : ... .. 8 ... ... ... : ... .. . ... ... ... : ... .. . ... : ... .. 3 ... : ... .. . ... ... : ... .. . ... ... : ... .. . ... ... : ... .. . ... ...
ROW EC : ... .. . ... ... ... : B-4 00 6 P82 ... ... : ... .. . ... : ... .. 2 ... : ... .. . ... ... : ... .. 7 ... ... : B-2 01 7 ... ... : ... .. . ... ...
ROW ED : ... .. . ... ... ... : ... .. . P7F ... ... : ... .. . ... : ... .. 0 ... : ... .. . ... ... : ... .. . ... ... : ... .. 6 ... ... : ... .. . ... ...
ROW EE : ... .. . ... ... ... : A#4 00 5 P82 ... ... : ... .. . ... : ... .. . ... : ... .. . ... ... : ... .. 6 ... ... : ... .. 5 ... ... : ... .. . ... ...
ROW EF : ... .. 1 ... ... ... : ... .. . P81 ... ... : --- .. . ... : ... .. . ... : ... .. . ... ... : ... .. 5 ... ... : ... .. . ... ... : --- .. . P82 ...
ROW F0 : C-2 00 C ... ... ... : A-4 00 8 P80 ... ... : C-3 00 . ... : 5-# 00 F ... : ... .. . ... ... : G-2 01 9 ... ... : F#3 01 7 ... ... : C-1 01 C P80 ...
ROW F1 : ... .. B ... ... ... : ... .. 7 ... ... ... : ... .. . ... : ... .. C ... : ... .. . ... ... : ... .. 8 ... ... : ... .. 6 ... ... : ... .. A ... ...
ROW F2 : ... .. A ... ... ... : ... .. 6 ... ... ... : ... .. . ... : B-# 00 6 ... : ... .. . ... ... : ... .. . ... ... : ... .. 5 ... ... : ... .. 6 ... ...
ROW F3 : ... .. 8 ... ... ... : ... .. 5 ... ... ... : ... .. . ... : ... .. 5 ... : ... .. . ... ... : ... .. . ... ... : ... .. . ... ... : ... .. . ... ...
ROW F4 : ... .. . ... ... ... : ... .. 6 ... ... ... : ... .. . ... : ... .. . ... : ... .. . ... ... : ... .. 7 ... ... : F-3 01 7 ... ... : ... .. . ... ...
ROW F5 : ... .. . ... ... ... : ... .. . ... ... ... : ... .. . ... : ... .. . ... : ... .. . ... ... : ... .. . ... ... : ... .. 6 ... ... : ... .. . ... ...
ROW F6 : ... .. . ... ... ... : ... .. . ... ... ... : ... .. . ... : ... .. 4 ... : ... .. . ... ... : ... .. 6 ... ... : ... .. 5 ... ... : ... .. . ... ...
ROW F7 : ... .. 1 ... ... ... : ... .. . ... ... ... : --- .. . ... : ... .. 3 ... : ... .. . ... ... : ... .. 5 ... ... : ... .. . ... ... : --- .. . ... ...
ROW F8 : B-1 00 C ... ... ... : B-4 00 A ... ... ... : B-2 00 . ... : 1-# 00 F ... : ... .. . ... ... : F#2 01 9 ... ... : C-3 01 7 ... ... : B-0 01 C ... ...
ROW F9 : ... .. B ... ... ... : ... .. 9 ... ... ... : ... .. . ... : ... .. C ... : ... .. . ... ... : ... .. 8 ... ... : ... .. 6 ... ... : ... .. A ... ...
ROW FA : ... .. A ... ... ... : ... .. 8 ... ... ... : ... .. . ... : ... .. 6 ... : ... .. . ... ... : ... .. . ... ... : ... .. 5 ... ... : ... .. 6 ... ...
ROW FB : ... .. 8 ... ... ... : ... .. 6 ... ... ... : ... .. . ... : ... .. 3 ... : ... .. . ... ... : ... .. . ... ... : ... .. . ... ... : ... .. . ... ...
ROW FC : ... .. . ... ... ... : ... .. 7 ... ... ... : ... .. . ... : ... .. 2 ... : ... .. . ... ... : ... .. 7 ... ... : B-2 01 7 ... ... : ... .. . ... ...
ROW FD : ... .. . ... ... ... : ... .. 1 ... ... ... : ... .. . ... : ... .. 0 ... : ... .. . ... ... : ... .. . ... ... : ... .. 6 ... ... : ... .. . ... ...
ROW FE : ... .. . ... ... ... : ... .. . ... ... ... : ... .. . ... : ... .. . ... : ... .. . ... ... : ... .. 6 ... ... : ... .. 5 ... ... : ... .. . ... ...
ROW FF : ... .. 1 ... ... ... : ... .. . ... ... ... : --- .. . ... : ... .. . ... : ... .. . ... ... : ... .. 5 ... ... : ... .. . ... ... : --- .. . ... ...

PATTERN 05
ROW 00 : G#3 00 C ... ... ... : A-4 00 C P7E ... ... : G-5 00 . ... : ... .. F ... : ... .. . ... ... : D#4 01 9 ... ... : F#3 01 7 ... ... : G#1 01 C ... ...
ROW 01 : ... .. B ... ... ... : G-4 00 B ... ... ... : A-4 00 . ... : ... .. C ... : ... .. . ... ... : ... .. 8 ... ... : ... .. 6 ... ... : ... .. A ... ...
ROW 02 : ... .. A ... ... ... : F-4 00 B P7F ... ... : D-4 00 . ... : B-# 00 6 ... : ... .. . ... ... : ... .. . ... ... : ... .. 5 ... ... : ... .. 6 P60 ...
ROW 03 : ... .. 8 ... ... ... : D#4 00 8 P83 ... ... : C#4 00 . ... : ... .. 5 ... : ... .. . ... ... : ... .. . ... ... : ... .. . ... ... : G-1 01 6 P8A ...
ROW 04 : D#3 00 C ... ... ... : ... .. . P80 ... ... : G#3 00 . ... : ... .. . ... : ... .. . ... ... : A#3 01 9 ... ... : F-3 01 7 ... ... : ... .. . P6A ...
ROW 05 : ... .. B ... ... ... : ... .. . ... ... ... : ... .. . ... : ... .. . ... : ... .. . ... ... : ... .. 8 ... ... : ... .. 6 ... ... : F#1 01 6 P97 ...
ROW 06 : ... .. 8 ... ... ... : ... .. 9 ... ... ... : F#3 00 . P81 : ... .. 4 ... : ... .. . ... ... : ... .. 6 ... ... : ... .. 5 ... ... : ... .. . P77 ...
ROW 07 : ... .. 1 ... ... ... : ... .. . ... ... ... : E-3 00 . P86 : ... .. 3 ... : ... .. . ... ... : ... .. 5 ... ... : ... .. . ... ... : F-1 01 6 PA9 ...
ROW 08 : B-2 00 C ... ... ... : F-4 00 F P7C ... ... : D#3 00 . P7B : 1-# 00 F ... : ... .. . ... ... : F#3 01 9 ... ... : C-3 01 7 ... ... : ... .. . P89 ...
ROW 09 : ... .. B ... ... ... : ... .. E P80 ... ... : C#3 00 . P87 : ... .. C ... : ... .. . ... ... : ... .. 8 ... ... : ... .. 6 ... ... : ... .. . P69 ...
ROW 0A : ... .. 8 ... ... ... : ... .. D ... ... ... : C-3 00 . P7F : ... .. 6 ... : ... .. . ... ... : ... .. 6 ... ... : ... .. 5 ... ... : E-1 01 6 PA0 ...
ROW 0B : ... .. 1 ... ... ... : ... .. A ... ... ... : B-2 00 . P78 : ... .. 3 ... : ... .. . ... ... : ... .. 5 ... ... : ... .. . ... ... : ... .. . P80 ...
ROW 0C : G#2 00 C ... ... ... : ... .. . ... ... ... : A#2 00 . P73 : ... .. F ... : ... .. . ... ... : D#3 01 9 ... ... : B-2 01 7 ... ... : ... .. . P60 ...
ROW 0D : ... .. B ... ... ... : ... .. . ... ... ... : G#2 00 . P8E : ... .. C ... : ... .. . ... ... : ... .. 8 ... ... : ... .. 6 ... ... : D#1 01 6 P9D ...
ROW 0E : ... .. 8 ... ... ... : ... .. . ... ... ... : G-2 00 . ... : ... .. 6 ... : ... .. . ... ... : ... .. 6 ... ... : ... .. 5 ... ... : ... .. . P7D ...
ROW 0F : ... .. 1 ... ... ... : ... .. . ... ... ... : F#2 00 . P90 : ... .. 3 ... : ... .. . ... ... : ... .. 5 ... ... : ... .. . ... ... : ... .. . P5D ...
ROW 10 : D#2 00 C ... ... ... : D#4 00 F P84 ... ... : ... .. . P70 : 5-# 00 F ... : ... .. . ... ... : A#2 01 9 ... ... : F#3 01 7 ... ... : D-1 01 6 P9E ...
ROW 11 : ... .. B ... ... ... : D-4 00 E P7E ... ... : F-2 00 . P74 : ... .. C ... : ... .. . ... ... : ... .. 8 ... ... : ... .. 6 ... ... : ... .. . P7E ...
ROW 12 : ... .. A ... ... ... : C-4 00 D P86 ... ... : E-2 00 . P7A : B-# 00 6 ... : ... .. . ... ... : ... .. . ... ... : ... .. 5 ... ... : ... .. . P5E ...
ROW 13 : ... .. 8 ... ... ... : B-3 00 A P82 ... ... : D#2 00 . P82 : ... .. 5 ... : ... .. . ... ... : ... .. . ... ... : ... .. . ... ... : C#1 01 6 PA6 ...
ROW 14 : B-1 00 C ... ... ... : ... .. . P80 ... ... : D-2 00 . P8D : ... .. . ... : ... .. . ... ... : F#2 01 9 ... ... : F-3 01 7 ... ... : ... .. . P86 ...
ROW 15 : ... .. B ... ... ... : ... .. . ... ... ... : ... .. . P6D : ... .. . ... : ... .. . ... ... : ... .. 8 ... ... : ... .. 6 ... ... : ... .. . P66 ...
ROW 16 : ... .. 8 ... ... ... : ... .. . ... ... ... : C#2 00 . P7A : ... .. 4 ... : ... .. . ... ... : ... .. 6 ... ... : ... .. 5 ... ... : C-1 01 6 PB4 ...
ROW 17 : ... .. 1 ... ... ... : ... .. . ... ... ... : C-2 00 . P8A : ... .. 3 ... : ... .. . ... ... : ... .. 5 ... ... : ... .. . ... ... : ... .. . P94 ...
ROW 18 : G#1 00 C ... ... ... : ... .. . ... ... ... : ... .. . P6A : C-# 00 F ... : ... .. . ... ... : D#2 01 9 ... ... : C-3 01 7 ... ... : ... .. . P74 ...
ROW 19 : ... .. B ... ... ... : ... .. . ... ... ... : B-1 00 . P7D : ... .. C ... : ... .. . ... ... : ... .. 8 ... ... : ... .. 6 ... ... : ... .. . P54 ...
ROW 1A : ... .. 8 ... ... ... : ... .. . ... ... ... : A#1 00 . P93 : ... .. 6 ... : ... .. . ... ... : ... .. 6 ... ... : ... .. 5 ... ... : B-0 01 6 PA8 ...
ROW 1B : ... .. 1 ... ... ... : ... .. . ... ... ... : ... .. . P73 : ... .. 3 ... : ... .. . ... ... : ... .. 5 ... ... : ... .. . ... ... : ... .. . P88 ...
ROW 1C : D#1 00 C ... ... ... : ... .. . ... ... ... : A-1 00 . P8C : ... .. F ... : ... .. . ... ... : A#1 01 9 ... ... : B-2 01 7 ... ... : ... .. . P68 ...
ROW 1D : ... .. B ... ... ... : ... .. . ... ... ... : ... .. . P6C : ... .. C ... : ... .. . ... ... : ... .. 8 ... ... : ... .. 6 ... ... : ... .. . P48 ...
ROW 1E : ... .. 8 ... ... ... : ... .. . ... ... ... : G#1 00 . P88 : ... .. 6 ... : ... .. . ... ... : ... .. 6 ... ... : ... .. 5 ... ... : A#0 01 6 PA3 ...
ROW 1F : ... .. 1 ... ... ... : ... .. . ... ... ... : ... .. . P68 : ... .. 3 ... : ... .. . ... ... : ... .. 5 ... ... : ... .. . ... ... : ... .. . P83 ...
ROW 20 : F-1 00 C ... ... ... : ... .. . ... ... ... : E-4 00 . P80 : 1-# 00 F ... : ... .. . ... ... : C-2 01 9 ... ... : F#3 01 7 ... ... : F-0 01 C P80 ...
ROW 21 : ... .. B ... ... ... : ... .. . ... ... ... : F#3 00 . ... : ... .. C ... : ... .. . ... ... : ... .. 8 ... ... : ... .. 6 ... ... : ... .. A ... ...
ROW 22 : ... .. A ... ... ... : ... .. . ... ... ... : B-2 00 . ... : B-# 00 6 ... : ... .. . ... ... : ... .. . ... ... : ... .. 5 ... ... : ... .. 6 ... ...
ROW 23 : ... .. 8 ... ... ... : ... .. . ... ... ... : A#2 00 . ... : ... .. 5 ... : ... .. . ... ... : ... .. . ... ... : ... .. . ... ... : ... .. . ... ...
ROW 24 : ... .. C ... ... ... : ... .. . ... ... ... : F-2 00 . ... : ... .. . ... : ... .. . ... ... : ... .. 9 ... ... : F-3 01 7 ... ... : ... .. . ... ...
ROW 25 : ... .. B ... ... ... : ... .. . ... ... ... : ... .. . ... : ... .. . ... : ... .. . ... ... : ... .. 8 ... ... : ... .. 6 ... ... : ... .. . ... ...
ROW 26 : ... .. A ... ... ... : ... .. . ... ... ... : ... .. . ... : ... .. 4 ... : ... .. . ... ... : ... .. . ... ... : ... .. 5 ... ... : ... .. . ... ...
ROW 27 : ... .. 8 ... ... ... : ... .. . ... ... ... : --- .. . ... : ... .. 3 ... : ... .. . ... ... : ... .. . ... ... : ... .. . ... ... : --- .. . P82 ...
ROW 28 : D#2 00 C ... ... ... : ... .. . P84 ... ... : D#3 00 . ... : 1-# 00 F ... : ... .. . ... ... : A#2 01 9 ... ... : C-3 01 7 ... ... : D#1 01 C P80 ...
ROW 29 : ... .. B ... ... ... : ... .. . P86 ... ... : ... .. . ... : ... .. C ... : ... .. . ... ... : ... .. 8 ... ... : ... .. 6 ... ... : ... .. A ... ...
ROW 2A : ... .. A ... ... ... : ... .. . P85 ... ... : ... .. . ... : ... .. 6 ... : ... .. . ... ... : ... .. . ... ... : ... .. 5 ... ... : ... .. 6 ... ...
ROW 2B : ... .. 8 ... ... ... : ... .. . P82 ... ... : ... .. . ... : ... .. 3 ... : ... .. . ... ... : ... .. . ... ... : ... .. . ... ... : ... .. . ... ...
ROW 2C : ... .. . ... ... ... : ... .. . P7E ... ... : ... .. . ... : ... .. 2 ... : ... .. . ... ... : ... .. 7 ... ... : B-2 01 7 ... ... : ... .. . ... ...
ROW 2D : ... .. . ... ... ... : ... .. . P7B ... ... : ... .. . ... : ... .. 0 ... : ... .. . ... ... : ... .. . ... ... : ... .. 6 ... ... : ... .. . ... ...
ROW 2E : ... .. . ... ... ... : ... .. . P7A ... ... : ... .. . ... : ... .. . ... : ... .. . ... ... : ... .. . ... ... : ... .. 5 ... ... : ... .. . ... ...
ROW 2F : ... .. . ... ... ... : ... .. . P7C ... ... : --- .. . ... : ... .. . ... : ... .. . ... ... : ... .. 6 ... ... : ... .. . ... ... : --- .. . P81 ...
ROW 30 : D-2 00 C ... ... ... : A#3 00 F P7E ... ... : D-3 00 . ... : 5-# 00 F ... : ... .. . ... ... : A-2 01 9 ... ... : F#3 01 7 ... ... : D-1 01 C P80 ...
ROW 31 : ... .. B ... ... ... : A-3 00 E P80 ... ... : ... .. . ... : ... .. C ... : ... .. . ... ... : ... .. 8 ... ... : ... .. 6 ... ... : ... .. A ... ...
ROW 32 : ... .. A ... ... ... : ... .. D ... ... ... : ... .. . ... : B-# 00 6 ... : ... .. . ... ... : ... .. . ... ... : ... .. 5 ... ... : ... .. 6 ... ...
ROW 33 : ... .. 8 ... ... ... : ... .. A ... ... ... : ... .. . ... : ... .. 5 ... : ... .. . ... ... : ... .. . ... ... : ... .. . ... ... : ... .. . ... ...
ROW 34 : ... .. . ... ... ... : ... .. . ... ... ... : ... .. . ... : ... .. . ... : ... .. . ... ... : ... .. 7 ... ... : F-3 01 7 ... ... : ... .. . ... ...
ROW 35 : ... .. . ... ... ... : ... .. . ... ... ... : ... .. . ... : ... .. . ... : ... .. . ... ... : ... .. . ... ... : ... .. 6 ... ... : ... .. . ... ...
ROW 36 : ... .. . ... ... ... : ... .. . ... ... ... : ... .. . ... : ... .. 4 ... : ... .. . ... ... : ... .. . ... ... : ... .. 5 ... ... : ... .. . ... ...
ROW 37 : ... .. . ... ... ... : ... .. . ... ... ... : --- .. . ... : ... .. 3 ... : ... .. . ... ... : ... .. 6 ... ... : ... .. . ... ... : --- .. . ... ...
ROW 38 : F-1 00 C ... ... ... : ... .. . ... ... ... : F-2 00 . ... : 1-# 00 F ... : ... .. . ... ... : C-2 01 9 ... ... : C-3 01 7 ... ... : F-0 01 C ... ...
ROW 39 : ... .. B ... ... ... : ... .. . ... ... ... : ... .. . ... : ... .. C ... : ... .. . ... ... : ... .. 8 ... ... : ... .. 6 ... ... : ... .. A ... ...
ROW 3A : ... .. 8 ... ... ... : ... .. 5 ... ... ... : ... .. . ... : ... .. 6 ... : ... .. . ... ... : ... .. 6 ... ... : ... .. 5 ... ... : ... .. 6 ... ...
ROW 3B : ... .. 1 ... ... ... : A#3 00 5 P81 ... ... : ... .. . ... : ... .. 3 ... : ... .. . ... ... : ... .. 5 ... ... : ... .. . ... ... : ... .. . ... ...
ROW 3C : ... .. C ... ... ... : B-3 00 5 P82 ... ... : ... .. . ... : ... .. 2 ... : ... .. . ... ... : ... .. 9 ... ... : B-2 01 7 ... ... : ... .. . ... ...
ROW 3D : ... .. B ... ... ... : C-4 00 5 P85 ... ... : ... .. . ... : ... .. 0 ... : ... .. . ... ... : ... .. 8 ... ... : ... .. 6 ... ... : ... .. . ... ...
ROW 3E : ... .. 8 ... ... ... : D-4 00 5 P7C ... ... : ... .. . ... : ... .. . ... : ... .. . ... ... : ... .. 6 ... ... : ... .. 5 ... ... : ... .. . ... ...
ROW 3F : ... .. 1 ... ... ... : D#4 00 5 P80 ... ... : --- .. . ... : ... .. . ... : ... .. . ... ... : ... .. 5 ... ... : ... .. . ... ... : --- .. . P82 ...
ROW 40 : C-2 00 C ... ... ... : ... .. F ... ... ... : C-3 00 . ... : ... .. F ... : ... .. . ... ... : G-2 01 9 ... ... : F#3 01 7 ... ... : C-1 01 C P80 ...
ROW 41 : ... .. B ... ... ... : ... .. E ... ... ... : ... .. . ... : ... .. C ... : ... .. . ... ... : ... .. 8 ... ... : ... .. 6 ... ... : ... .. A ... ...
ROW 42 : ... .. A ... ... ... : ... .. D ... ... ... : ... .. . ... : B-# 00 6 ... : ... .. . ... ... : ... .. . ... ... : ... .. 5 ... ... : ... .. 6 ... ...
ROW 43 : ... .. 8 ... ... ... : ... .. A ... ... ... : ... .. . ... : ... .. 5 ... : ... .. . ... ... : ... .. . ... ... : ... .. . ... ... : ... .. . ... ...
ROW 44 : ... .. . ... ... ... : ... .. . ... ... ... : ... .. . ... : ... .. . ... : ... .. . ... ... : ... .. 7 ... ... : F-3 01 7 ... ... : ... .. . ... ...
ROW 45 : ... .. . ... ... ... : ... .. . ... ... ... : ... .. . ... : ... .. . ... : ... .. . ... ... : ... .. . ... ... : ... .. 6 ... ... : ... .. . ... ...
ROW 46 : ... .. . ... ... ... : ... .. . ... ... ... : ... .. . ... : ... .. 4 ... : ... .. . ... ... : ... .. 6 ... ... : ... .. 5 ... ... : ... .. . ... ...
ROW 47 : ... .. 1 ... ... ... : ... .. . ... ... ... : --- .. . ... : ... .. 3 ... : ... .. . ... ... : ... .. 5 ... ... : ... .. . ... ... : --- .. . ... ...
ROW 48 : B-1 00 C ... ... ... : ... .. . ... ... ... : B-2 00 . ... : 1-# 00 F ... : ... .. . ... ... : F#2 01 9 ... ... : C-3 01 7 ... ... : B-0 01 C ... ...
ROW 49 : ... .. B ... ... ... : ... .. . ... ... ... : ... .. . ... : ... .. C ... : ... .. . ... ... : ... .. 8 ... ... : ... .. 6 ... ... : ... .. A ... ...
ROW 4A : ... .. A ... ... ... : ... .. . ... ... ... : ... .. . ... : ... .. 6 ... : ... .. . ... ... : ... .. . ... ... : ... .. 5 ... ... : ... .. 6 ... ...
ROW 4B : ... .. 8 ... ... ... : ... .. . ... ... ... : ... .. . ... : ... .. 3 ... : ... .. . ... ... : ... .. . ... ... : ... .. . ... ... : ... .. . ... ...
ROW 4C : ... .. . ... ... ... : ... .. . ... ... ... : ... .. . ... : ... .. 2 ... : ... .. . ... ... : ... .. 7 ... ... : B-2 01 7 ... ... : ... .. . ... ...
ROW 4D : ... .. . ... ... ... : ... .. . ... ... ... : ... .. . ... : ... .. 0 ... : ... .. . ... ... : ... .. . ... ... : ... .. 6 ... ... : ... .. . ... ...
ROW 4E : ... .. . ... ... ... : ... .. . ... ... ... : ... .. . ... : ... .. . ... : ... .. . ... ... : ... .. 6 ... ... : ... .. 5 ... ... : ... .. . ... ...
ROW 4F : ... .. 1 ... ... ... : ... .. . ... ... ... : --- .. . ... : ... .. . ... : ... .. . ... ... : ... .. 5 ... ... : ... .. . ... ... : --- .. . ... ...
ROW 50 : F-1 00 C ... ... ... : ... .. . ... ... ... : F-2 00 . ... : 5-# 00 F ... : ... .. . ... ... : C-2 01 9 ... ... : F#3 01 7 ... ... : F-0 01 C ... ...
ROW 51 : ... .. B ... ... ... : ... .. . ... ... ... : ... .. . ... : ... .. C ... : ... .. . ... ... : ... .. 8 ... ... : ... .. 6 ... ... : ... .. A ... ...
ROW 52 : ... .. 8 ... ... ... : ... .. . ... ... ... : ... .. . ... : B-# 00 6 ... : ... .. . ... ... : ... .. 6 ... ... : ... .. 5 ... ... : ... .. 6 ... ...
ROW 53 : ... .. 1 ... ... ... : ... .. . ... ... ... : ... .. . ... : ... .. 5 ... : ... .. . ... ... : ... .. 5 ... ... : ... .. . ... ... : ... .. . ... ...
ROW 54 : ... .. C ... ... ... : ... .. . ... ... ... : ... .. . ... : ... .. . ... : ... .. . ... ... : ... .. 9 ... ... : F-3 01 7 ... ... : ... .. . ... ...
ROW 55 : ... .. B ... ... ... : ... .. . ... ... ... : ... .. . ... : ... .. . ... : ... .. . ... ... : ... .. 8 ... ... : ... .. 6 ... ... : ... .. . ... ...
ROW 56 : ... .. 8 ... ... ... : ... .. . P84 ... ... : ... .. . ... : ... .. 4 ... : ... .. . ... ... : ... .. 6 ... ... : ... .. 5 ... ... : ... .. . ... ...
ROW 57 : ... .. 1 ... ... ... : E-4 00 A P7C ... ... : --- .. . ... : ... .. 3 ... : ... .. . ... ... : ... .. 5 ... ... : ... .. . ... ... : --- .. . P82 ...
ROW 58 : D#2 00 C ... ... ... : D#4 00 A P85 ... ... : D#3 00 . ... : 1-# 00 F ... : ... .. . ... ... : A#2 01 9 ... ... : C-3 01 7 ... ... : D#1 01 C P80 ...
ROW 59 : ... .. B ... ... ... : ... .. . P82 ... ... : ... .. . ... : ... .. C ... : ... .. . ... ... : ... .. 8 ... ... : ... .. 6 ... ... : ... .. A ... ...
ROW 5A : ... .. A ... ... ... : ... .. . P7E ... ... : ... .. . ... : ... .. 6 ... : ... .. . ... ... : ... .. . ... ... : ... .. 5 ... ... : ... .. 6 ... ...
ROW 5B : ... .. 8 ... ... ... : D-4 00 A P85 ... ... : ... .. . ... : ... .. 3 ... : ... .. . ... ... : ... .. . ... ... : ... .. . ... ... : ... .. . ... ...
ROW 5C : ... .. . ... ... ... : ... .. . P84 ... ... : ... .. . ... : ... .. 2 ... : ... .. . ... ... : ... .. 7 ... ... : B-2 01 7 ... ... : ... .. . ... ...
ROW 5D : ... .. . ... ... ... : D#4 00 A P7C ... ... : ... .. . ... : ... .. 0 ... : ... .. . ... ... : ... .. . ... ... : ... .. 6 ... ... : ... .. . ... ...
ROW 5E : ... .. . ... ... ... : ... .. . P80 ... ... : ... .. . ... : ... .. . ... : ... .. . ... ... : ... .. 6 ... ... : ... .. 5 ... ... : ... .. . ... ...
ROW 5F : ... .. 1 ... ... ... : ... .. . P83 ... ... : --- .. . ... : ... .. . ... : ... .. . ... ... : ... .. 5 ... ... : ... .. . ... ... : --- .. . P81 ...
ROW 60 : B-1 00 C ... ... ... : E-4 00 A P7C ... ... : A#3 00 . ... : ... .. F ... : ... .. . ... ... : F#2 01 9 ... ... : F#3 01 7 ... ... : B-0 01 C P80 ...
ROW 61 : ... .. B ... ... ... : ... .. . ... ... ... : C-3 00 . ... : ... .. C ... : ... .. . ... ... : ... .. 8 ... ... : ... .. 6 ... ... : ... .. A ... ...
ROW 62 : ... .. A ... ... ... : D#4 00 A P82 ... ... : F-2 00 . ... : B-# 00 6 ... : ... .. . ... ... : ... .. . ... ... : ... .. 5 ... ... : ... .. 6 ... ...
ROW 63 : ... .. 8 ... ... ... : ... .. . P7F ... ... : E-2 00 . ... : ... .. 5 ... : ... .. . ... ... : ... .. . ... ... : ... .. . ... ... : ... .. . ... ...
ROW 64 : ... .. . ... ... ... : D-4 00 A P85 ... ... : B-1 00 . ... : ... .. . ... : ... .. . ... ... : ... .. 7 ... ... : F-3 01 7 ... ... : ... .. . ... ...
ROW 65 : ... .. . ... ... ... : ... .. . P84 ... ... : ... .. . ... : ... .. . ... : ... .. . ... ... : ... .. . ... ... : ... .. 6 ... ... : ... .. . ... ...
ROW 66 : ... .. . ... ... ... : D#4 00 A P7C ... ... : ... .. . ... : ... .. 4 ... : ... .. . ... ... : ... .. 6 ... ... : ... .. 5 ... ... : ... .. . ... ...
ROW 67 : ... .. 1 ... ... ... : ... .. . P80 ... ... : --- .. . ... : ... .. 3 ... : ... .. . ... ... : ... .. 5 ... ... : ... .. . ... ... : --- .. . ... ...
ROW 68 : F#2 00 C ... ... ... : ... .. . P83 ... ... : F-4 00 . ... : 1-# 00 F ... : ... .. . ... ... : C#3 01 9 ... ... : C-3 01 7 ... ... : F#0 01 C ... ...
ROW 69 : ... .. B ... ... ... : E-4 00 A P7C ... ... : G-3 00 . ... : ... .. C ... : ... .. . ... ... : ... .. 8 ... ... : ... .. 6 ... ... : ... .. A ... ...
ROW 6A : ... .. A ... ... ... : ... .. . ... ... ... : C-3 00 . ... : ... .. 6 ... : ... .. . ... ... : ... .. . ... ... : ... .. 5 ... ... : ... .. 6 ... ...
ROW 6B : ... .. 8 ... ... ... : D#4 00 A P83 ... ... : B-2 00 . ... : ... .. 3 ... : ... .. . ... ... : ... .. . ... ... : ... .. . ... ... : ... .. . ... ...
ROW 6C : ... .. C ... ... ... : ... .. . P80 ... ... : F#2 00 . ... : ... .. 2 ... : ... .. . ... ... : ... .. 9 ... ... : B-2 01 7 ... ... : ... .. . ... ...
ROW 6D : ... .. B ... ... ... : ... .. . P7C ... ... : ... .. . ... : ... .. 0 ... : ... .. . ... ... : ... .. 8 ... ... : ... .. 6 ... ... : ... .. . ... ...
ROW 6E : ... .. A ... ... ... : D-4 00 A P84 ... ... : ... .. . ... : ... .. . ... : ... .. . ... ... : ... .. . ... ... : ... .. 5 ... ... : ... .. . ... ...
ROW 6F : ... .. 0 ... ... ... : ... .. . P85 ... ... : --- .. . ... : ... .. . ... : ... .. . ... ... : --- .. . P84 ... : ... .. . ... ... : --- .. . P81 ...
ROW 70 : E-2 00 C P80 ... ... : D#4 00 A P7F ... ... : D#4 00 . ... : 8-# 00 F ... : ... .. . ... ... : B-2 01 9 P81 ... : F#3 01 7 ... ... : E-0 01 C P80 ...
ROW 71 : ... .. B ... ... ... : ... .. . P82 ... ... : F-3 00 . ... : ... .. C ... : ... .. . ... ... : ... .. 8 ... ... : ... .. 6 ... ... : ... .. A ... ...
ROW 72 : ... .. A ... ... ... : E-4 00 A P7C ... ... : A#2 00 . ... : ... .. 6 ... : ... .. . ... ... : ... .. . ... ... : ... .. 5 ... ... : ... .. 6 ... ...
ROW 73 : ... .. 0 ... ... ... : ... .. . ... ... ... : A-2 00 . ... : ... .. 3 ... : ... .. . ... ... : --- .. . P86 ... : ... .. . ... ... : ... .. . ... ...
ROW 74 : E-2 00 C P80 ... ... : D#4 00 A P83 ... ... : E-2 00 . ... : ... .. F ... : ... .. . ... ... : B-2 01 9 P81 ... : F-3 01 7 ... ... : ... .. . ... ...
ROW 75 : ... .. B ... ... ... : ... .. . P80 ... ... : ... .. . ... : ... .. C ... : ... .. . ... ... : ... .. 8 ... ... : ... .. 6 ... ... : ... .. . ... ...
ROW 76 : ... .. A ... ... ... : ... .. . P7C ... ... : ... .. . ... : ... .. 6 ... : ... .. . ... ... : ... .. . ... ... : ... .. 5 ... ... : ... .. . ... ...
ROW 77 : ... .. 0 ... ... ... : D-4 00 A P84 ... ... : ... .. . ... : ... .. 3 ... : ... .. . ... ... : --- .. . P86 ... : ... .. . ... ... : ... .. . ... ...
ROW 78 : B-2 00 C P80 ... ... : ... .. . P85 ... ... : A#4 00 . ... : 1-# 00 F ... : ... .. . ... ... : F#3 01 9 P81 ... : C-3 01 7 ... ... : B-0 01 C ... ...
ROW 79 : ... .. B ... ... ... : D#4 00 A P7E ... ... : C-4 00 . ... : ... .. C ... : ... .. . ... ... : ... .. 8 ... ... : ... .. 6 ... ... : ... .. A ... ...
ROW 7A : ... .. A ... ... ... : ... .. . P82 ... ... : F-3 00 . ... : ... .. 6 ... : ... .. . ... ... : ... .. . ... ... : ... .. 5 ... ... : ... .. 6 ... ...
ROW 7B : ... .. 0 ... ... ... : ... .. . P85 ... ... : E-3 00 . ... : ... .. 3 ... : ... .. . ... ... : --- .. . P80 ... : ... .. . ... ... : ... .. . ... ...
ROW 7C : B-2 00 C P80 ... ... : E-4 00 A P7C ... ... : B-2 00 . ... : ... .. F ... : ... .. . ... ... : F#3 01 9 P81 ... : B-2 01 7 ... ... : ... .. . ... ...
ROW 7D : ... .. B ... ... ... : D#4 00 A P84 ... ... : ... .. . ... : ... .. C ... : ... .. . ... ... : ... .. 8 ... ... : ... .. 6 ... ... : ... .. . ... ...
ROW 7E : ... .. A ... ... ... : ... .. . P80 ... ... : ... .. . ... : ... .. 6 ... : ... .. . ... ... : ... .. . ... ... : ... .. 5 ... ... : ... .. . ... ...
ROW 7F : ... .. 0 ... ... ... : ... .. . P7D ... ... : ... .. . ... : ... .. 3 ... : ... .. . ... ... : --- .. . P80 ... : ... .. . ... ... : ... .. . ... ...
ROW 80 : A-2 00 C P80 ... ... : D-4 00 A P84 ... ... : G#4 00 . ... : 7-# 00 F ... : ... .. . ... ... : E-3 01 9 P81 ... : F#3 01 7 ... ... : A-0 01 C ... ...
ROW 81 : ... .. B ... ... ... : ... .. . ... ... ... : A#3 00 . ... : ... .. C ... : ... .. . ... ... : ... .. 8 ... ... : ... .. 6 ... ... : ... .. A ... ...
ROW 82 : ... .. A ... ... ... : D#4 00 A P80 ... ... : D#3 00 . ... : ... .. 6 ... : ... .. . ... ... : ... .. . ... ... : ... .. 5 ... ... : ... .. 6 ... ...
ROW 83 : ... .. 0 ... ... ... : ... .. 2 ... ... ... : D-3 00 . ... : ... .. 3 ... : ... .. . ... ... : --- .. . P7E ... : ... .. . ... ... : ... .. . ... ...
ROW 84 : A-2 00 C P80 ... ... : ... .. . ... ... ... : A-2 00 . ... : ... .. F ... : ... .. . ... ... : E-3 01 9 P81 ... : F-3 01 7 ... ... : ... .. . ... ...
ROW 85 : ... .. B ... ... ... : ... .. . ... ... ... : ... .. . ... : ... .. C ... : ... .. . ... ... : ... .. 8 ... ... : ... .. 6 ... ... : ... .. . ... ...
ROW 86 : ... .. A ... ... ... : ... .. 1 ... ... ... : ... .. . ... : ... .. 6 ... : ... .. . ... ... : ... .. . ... ... : ... .. 5 ... ... : ... .. . ... ...
ROW 87 : ... .. 0 ... ... ... : ... .. . ... ... ... : ... .. . ... : ... .. 3 ... : ... .. . ... ... : --- .. . P7E ... : ... .. . ... ... : ... .. . ... ...
ROW 88 : D-3 00 C P80 ... ... : ... .. . ... ... ... : C#5 00 . ... : 1-# 00 F ... : ... .. . ... ... : A-3 01 9 P81 ... : C-3 01 7 ... ... : D-1 01 C ... ...
ROW 89 : ... .. B ... ... ... : ... .. 0 ... ... ... : D#4 00 . ... : ... .. C ... : ... .. . ... ... : ... .. 8 ... ... : ... .. 6 ... ... : ... .. A ... ...
ROW 8A : ... .. A ... ... ... : ... .. . ... ... ... : G#3 00 . ... : ... .. 6 ... : ... .. . ... ... : ... .. . ... ... : ... .. 5 ... ... : ... .. 6 ... ...
ROW 8B : ... .. 0 ... ... ... : ... .. . ... ... ... : G-3 00 . ... : ... .. 3 ... : ... .. . ... ... : --- .. . ... ... : ... .. . ... ... : ... .. . ... ...
ROW 8C : D-3 00 C P80 ... ... : ... .. . ... ... ... : D-3 00 . ... : ... .. F ... : ... .. . ... ... : A-3 01 9 ... ... : B-2 01 7 ... ... : ... .. . ... ...
ROW 8D : ... .. B ... ... ... : ... .. . ... ... ... : ... .. . ... : ... .. C ... : ... .. . ... ... : ... .. 8 ... ... : ... .. 6 ... ... : ... .. . ... ...
ROW 8E : ... .. A ... ... ... : ... .. . ... ... ... : ... .. . ... : ... .. 6 ... : ... .. . ... ... : ... .. . ... ... : ... .. 5 ... ... : ... .. . ... ...
ROW 8F : ... .. 0 ... ... ... : ... .. . ... ... ... : ... .. . ... : ... .. 3 ... : ... .. . ... ... : --- .. . ... ... : ... .. . ... ... : ... .. . ... ...
ROW 90 : C-3 00 C P80 ... ... : ... .. . ... ... ... : B-4 00 . ... : 4-# 00 F ... : ... .. . ... ... : G-3 01 9 ... ... : F#3 01 7 ... ... : C-1 01 C ... ...
ROW 91 : ... .. B ... ... ... : ... .. . ... ... ... : C#4 00 . ... : ... .. C ... : ... .. . ... ... : ... .. 8 ... ... : ... .. 6 ... ... : ... .. A ... ...
ROW 92 : ... .. A ... ... ... : ... .. . ... ... ... : F#3 00 . ... : ... .. 6 ... : ... .. . ... ... : ... .. . ... ... : ... .. 5 ... ... : ... .. 6 ... ...
ROW 93 : ... .. 0 ... ... ... : ... .. . ... ... ... : F-3 00 . ... : ... .. 3 ... : ... .. . ... ... : --- .. . P80 ... : ... .. . ... ... : ... .. . ... ...
ROW 94 : C-3 00 C P80 ... ... : ... .. . ... ... ... : C-3 00 . ... : ... .. F ... : ... .. . ... ... : G-3 01 9 P81 ... : F-3 01 7 ... ... : ... .. . ... ...
ROW 95 : ... .. B ... ... ... : ... .. . ... ... ... : ... .. . ... : ... .. C ... : ... .. . ... ... : ... .. 8 ... ... : ... .. 6 ... ... : ... .. . ... ...
ROW 96 : ... .. A ... ... ... : ... .. . ... ... ... : ... .. . ... : ... .. 6 ... : ... .. . ... ... : ... .. . ... ... : ... .. 5 ... ... : ... .. . ... ...
ROW 97 : ... .. 0 ... ... ... : ... .. . ... ... ... : ... .. . ... : ... .. 3 ... : ... .. . ... ... : --- .. . P80 ... : ... .. . ... ... : ... .. . ... ...
ROW 98 : F-3 00 C P80 ... ... : ... .. . ... ... ... : E-5 00 . ... : 1-# 00 F ... : ... .. . ... ... : C-4 01 9 P81 ... : C-3 01 7 ... ... : F-1 01 C ... ...
ROW 99 : ... .. B ... ... ... : ... .. . ... ... ... : F#4 00 . ... : ... .. C ... : ... .. . ... ... : ... .. 8 ... ... : ... .. 6 ... ... : ... .. A ... ...
ROW 9A : ... .. A ... ... ... : ... .. . ... ... ... : B-3 00 . ... : ... .. 6 ... : ... .. . ... ... : ... .. . ... ... : ... .. 5 ... ... : ... .. 6 ... ...
ROW 9B : ... .. 0 ... ... ... : ... .. . ... ... ... : A#3 00 . ... : ... .. 3 ... : ... .. . ... ... : --- .. . ... ... : ... .. . ... ... : ... .. . ... ...
ROW 9C : F-3 00 C P80 ... ... : ... .. . ... ... ... : F-3 00 . ... : ... .. F ... : ... .. . ... ... : C-4 01 9 ... ... : B-2 01 7 ... ... : ... .. . ... ...
ROW 9D : ... .. B ... ... ... : ... .. . ... ... ... : ... .. . ... : ... .. C ... : ... .. . ... ... : ... .. 8 ... ... : ... .. 6 ... ... : ... .. . ... ...
ROW 9E : ... .. A ... ... ... : ... .. . ... ... ... : ... .. . ... : ... .. 6 ... : ... .. . ... ... : ... .. . ... ... : ... .. 5 ... ... : ... .. . ... ...
ROW 9F : ... .. 0 ... ... ... : ... .. . ... ... ... : ... .. . ... : ... .. 3 ... : ... .. . ... ... : --- .. . ... ... : ... .. . ... ... : ... .. . ... ...
ROW A0 : F-1 00 C P80 ... ... : ... .. . ... ... ... : E-4 00 . ... : ... .. F ... : ... .. . ... ... : C-2 01 9 ... ... : F#3 01 7 ... ... : F-0 01 C ... ...
ROW A1 : ... .. B ... ... ... : ... .. . ... ... ... : F#3 00 . ... : ... .. C ... : ... .. . ... ... : ... .. 8 ... ... : ... .. 6 ... ... : ... .. A ... ...
ROW A2 : ... .. A ... ... ... : ... .. . ... ... ... : B-2 00 . ... : B-# 00 6 ... : ... .. . ... ... : ... .. . ... ... : ... .. 5 ... ... : ... .. 6 ... ...
ROW A3 : ... .. 8 ... ... ... : ... .. . ... ... ... : A#2 00 . ... : ... .. 5 ... : ... .. . ... ... : ... .. . ... ... : ... .. . ... ... : ... .. . ... ...
ROW A4 : ... .. . ... ... ... : ... .. . ... ... ... : F-2 00 . ... : ... .. . ... : ... .. . ... ... : ... .. 7 ... ... : F-3 01 7 ... ... : ... .. . ... ...
ROW A5 : ... .. . ... ... ... : ... .. . ... ... ... : ... .. . ... : ... .. . ... : ... .. . ... ... : ... .. . ... ... : ... .. 6 ... ... : ... .. . ... ...
ROW A6 : ... .. . ... ... ... : ... .. . ... ... ... : ... .. . ... : ... .. 4 ... : ... .. . ... ... : ... .. 6 ... ... : ... .. 5 ... ... : ... .. . ... ...
ROW A7 : ... .. 1 ... ... ... : ... .. . ... ... ... : --- .. . ... : ... .. 3 ... : ... .. . ... ... : ... .. 5 ... ... : ... .. . ... ... : --- .. . P82 ...
ROW A8 : D#2 00 C ... ... ... : ... .. . ... ... ... : D#3 00 . ... : 1-# 00 F ... : ... .. . ... ... : A#2 01 9 ... ... : C-3 01 7 ... ... : D#1 01 C P80 ...
ROW A9 : ... .. B ... ... ... : ... .. . ... ... ... : ... .. . ... : ... .. C ... : ... .. . ... ... : ... .. 8 ... ... : ... .. 6 ... ... : ... .. A ... ...
ROW AA : ... .. A ... ... ... : ... .. . ... ... ... : ... .. . ... : ... .. 6 ... : ... .. . ... ... : ... .. . ... ... : ... .. 5 ... ... : ... .. 6 ... ...
ROW AB : ... .. 8 ... ... ... : ... .. . ... ... ... : ... .. . ... : ... .. 3 ... : ... .. . ... ... : ... .. . ... ... : ... .. . ... ... : ... .. . ... ...
ROW AC : ... .. . ... ... ... : ... .. . ... ... ... : ... .. . ... : ... .. 2 ... : ... .. . ... ... : ... .. 7 ... ... : B-2 01 7 ... ... : ... .. . ... ...
ROW AD : ... .. . ... ... ... : ... .. . ... ... ... : ... .. . ... : ... .. 0 ... : ... .. . ... ... : ... .. . ... ... : ... .. 6 ... ... : ... .. . ... ...
ROW AE : ... .. . ... ... ... : ... .. . ... ... ... : ... .. . ... : ... .. . ... : ... .. . ... ... : ... .. 6 ... ... : ... .. 5 ... ... : ... .. . ... ...
ROW AF : ... .. 1 ... ... ... : ... .. . ... ... ... : --- .. . ... : ... .. . ... : ... .. . ... ... : ... .. 5 ... ... : ... .. . ... ... : --- .. . P81 ...
ROW B0 : D-2 00 C ... ... ... : F-4 00 8 P80 ... ... : D-3 00 . ... : 5-# 00 F ... : ... .. . ... ... : A-2 01 9 ... ... : F#3 01 7 ... ... : D-1 01 C P80 ...
ROW B1 : ... .. B ... ... ... : ... .. 7 ... ... ... : ... .. . ... : ... .. C ... : ... .. . ... ... : ... .. 8 ... ... : ... .. 6 ... ... : ... .. A ... ...
ROW B2 : ... .. A ... ... ... : ... .. 6 ... ... ... : ... .. . ... : B-# 00 6 ... : ... .. . ... ... : ... .. . ... ... : ... .. 5 ... ... : ... .. 6 ... ...
ROW B3 : ... .. 8 ... ... ... : ... .. 5 ... ... ... : ... .. . ... : ... .. 5 ... : ... .. . ... ... : ... .. . ... ... : ... .. . ... ... : ... .. . ... ...
ROW B4 : ... .. . ... ... ... : ... .. 6 ... ... ... : ... .. . ... : ... .. . ... : ... .. . ... ... : ... .. 7 ... ... : F-3 01 7 ... ... : ... .. . ... ...
ROW B5 : ... .. . ... ... ... : ... .. . ... ... ... : ... .. . ... : ... .. . ... : ... .. . ... ... : ... .. . ... ... : ... .. 6 ... ... : ... .. . ... ...
ROW B6 : ... .. . ... ... ... : ... .. . ... ... ... : ... .. . ... : ... .. 4 ... : ... .. . ... ... : ... .. 6 ... ... : ... .. 5 ... ... : ... .. . ... ...
ROW B7 : ... .. 1 ... ... ... : ... .. . ... ... ... : --- .. . ... : ... .. 3 ... : ... .. . ... ... : ... .. 5 ... ... : ... .. . ... ... : --- .. . ... ...
ROW B8 : F-1 00 C ... ... ... : ... .. 7 ... ... ... : F-2 00 . ... : 1-# 00 F ... : ... .. . ... ... : C-2 01 9 ... ... : C-3 01 7 ... ... : F-0 01 C ... ...
ROW B9 : ... .. B ... ... ... : ... .. . ... ... ... : ... .. . ... : ... .. C ... : ... .. . ... ... : ... .. 8 ... ... : ... .. 6 ... ... : ... .. A ... ...
ROW BA : ... .. A ... ... ... : ... .. 8 ... ... ... : ... .. . ... : ... .. 6 ... : ... .. . ... ... : ... .. . ... ... : ... .. 5 ... ... : ... .. 6 ... ...
ROW BB : ... .. 8 ... ... ... : ... .. . ... ... ... : ... .. . ... : ... .. 3 ... : ... .. . ... ... : ... .. . ... ... : ... .. . ... ... : ... .. . ... ...
ROW BC : ... .. . ... ... ... : ... .. . ... ... ... : ... .. . ... : ... .. 2 ... : ... .. . ... ... : ... .. 7 ... ... : B-2 01 7 ... ... : ... .. . ... ...
ROW BD : ... .. . ... ... ... : ... .. . ... ... ... : ... .. . ... : ... .. 0 ... : ... .. . ... ... : ... .. . ... ... : ... .. 6 ... ... : ... .. . ... ...
ROW BE : ... .. . ... ... ... : ... .. 9 ... ... ... : ... .. . ... : ... .. . ... : ... .. . ... ... : ... .. 6 ... ... : ... .. 5 ... ... : ... .. . ... ...
ROW BF : ... .. 1 ... ... ... : ... .. . ... ... ... : --- .. . ... : ... .. . ... : ... .. . ... ... : ... .. 5 ... ... : ... .. . ... ... : --- .. . P82 ...
ROW C0 : C-2 00 C ... ... ... : A-4 00 F P7F ... ... : C-3 00 . ... : ... .. F ... : ... .. . ... ... : G-2 01 9 ... ... : F#3 01 7 ... ... : C-1 01 C P80 ...
ROW C1 : ... .. B ... ... ... : D-5 00 E ... ... ... : ... .. . ... : ... .. C ... : ... .. . ... ... : ... .. 8 ... ... : ... .. 6 ... ... : ... .. A ... ...
ROW C2 : ... .. A ... ... ... : D#5 00 D P80 ... ... : ... .. . ... : B-# 00 6 ... : ... .. . ... ... : ... .. . ... ... : ... .. 5 ... ... : ... .. 6 ... ...
ROW C3 : ... .. 8 ... ... ... : ... .. A ... ... ... : ... .. . ... : ... .. 5 ... : ... .. . ... ... : ... .. . ... ... : ... .. . ... ... : ... .. . ... ...
ROW C4 : ... .. . ... ... ... : ... .. . ... ... ... : ... .. . ... : ... .. . ... : ... .. . ... ... : ... .. 7 ... ... : F-3 01 7 ... ... : ... .. . ... ...
ROW C5 : ... .. . ... ... ... : ... .. . ... ... ... : ... .. . ... : ... .. . ... : ... .. . ... ... : ... .. . ... ... : ... .. 6 ... ... : ... .. . ... ...
ROW C6 : ... .. . ... ... ... : ... .. . ... ... ... : ... .. . ... : ... .. 4 ... : ... .. . ... ... : ... .. 6 ... ... : ... .. 5 ... ... : ... .. . ... ...
ROW C7 : ... .. 1 ... ... ... : ... .. . ... ... ... : --- .. . ... : ... .. 3 ... : ... .. . ... ... : ... .. 5 ... ... : ... .. . ... ... : --- .. . ... ...
ROW C8 : B-1 00 C ... ... ... : ... .. . ... ... ... : B-2 00 . ... : 1-# 00 F ... : ... .. . ... ... : F#2 01 9 ... ... : C-3 01 7 ... ... : B-0 01 C ... ...
ROW C9 : ... .. B ... ... ... : ... .. . ... ... ... : ... .. . ... : ... .. C ... : ... .. . ... ... : ... .. 8 ... ... : ... .. 6 ... ... : ... .. A ... ...
ROW CA : ... .. A ... ... ... : ... .. . ... ... ... : ... .. . ... : ... .. 6 ... : ... .. . ... ... : ... .. . ... ... : ... .. 5 ... ... : ... .. 6 ... ...
ROW CB : ... .. 8 ... ... ... : ... .. . ... ... ... : ... .. . ... : ... .. 3 ... : ... .. . ... ... : ... .. . ... ... : ... .. . ... ... : ... .. . ... ...
ROW CC : ... .. . ... ... ... : ... .. . ... ... ... : ... .. . ... : ... .. 2 ... : ... .. . ... ... : ... .. 7 ... ... : B-2 01 7 ... ... : ... .. . ... ...
ROW CD : ... .. . ... ... ... : ... .. . ... ... ... : ... .. . ... : ... .. 0 ... : ... .. . ... ... : ... .. . ... ... : ... .. 6 ... ... : ... .. . ... ...
ROW CE : ... .. . ... ... ... : ... .. . ... ... ... : ... .. . ... : ... .. . ... : ... .. . ... ... : ... .. 6 ... ... : ... .. 5 ... ... : ... .. . ... ...
ROW CF : ... .. 1 ... ... ... : ... .. . ... ... ... : --- .. . ... : ... .. . ... : ... .. . ... ... : ... .. 5 ... ... : ... .. . ... ... : --- .. . ... ...
ROW D0 : F-1 00 C ... ... ... : C-5 00 F P81 ... ... : F-2 00 . ... : 5-# 00 F ... : ... .. . ... ... : C-2 01 9 ... ... : F#3 01 7 ... ... : F-0 01 C ... ...
ROW D1 : ... .. B ... ... ... : B-4 00 E P80 ... ... : ... .. . ... : ... .. C ... : ... .. . ... ... : ... .. 8 ... ... : ... .. 6 ... ... : ... .. A ... ...
ROW D2 : ... .. A ... ... ... : ... .. D ... ... ... : ... .. . ... : B-# 00 6 ... : ... .. . ... ... : ... .. . ... ... : ... .. 5 ... ... : ... .. 6 ... ...
ROW D3 : ... .. 8 ... ... ... : ... .. A ... ... ... : ... .. . ... : ... .. 5 ... : ... .. . ... ... : ... .. . ... ... : ... .. . ... ... : ... .. . ... ...
ROW D4 : ... .. . ... ... ... : ... .. . ... ... ... : ... .. . ... : ... .. . ... : ... .. . ... ... : ... .. 7 ... ... : F-3 01 7 ... ... : ... .. . ... ...
ROW D5 : ... .. . ... ... ... : ... .. . ... ... ... : ... .. . ... : ... .. . ... : ... .. . ... ... : ... .. . ... ... : ... .. 6 ... ... : ... .. . ... ...
ROW D6 : ... .. . ... ... ... : ... .. . ... ... ... : ... .. . ... : ... .. 4 ... : ... .. . ... ... : ... .. 6 ... ... : ... .. 5 ... ... : ... .. . ... ...
ROW D7 : ... .. 1 ... ... ... : ... .. . ... ... ... : --- .. . ... : ... .. 3 ... : ... .. . ... ... : ... .. 5 ... ... : ... .. . ... ... : --- .. . P82 ...
ROW D8 : D#2 00 C ... ... ... : ... .. . ... ... ... : D#3 00 . ... : 1-# 00 F ... : ... .. . ... ... : A#2 01 9 ... ... : C-3 01 7 ... ... : D#1 01 C P80 ...
ROW D9 : ... .. B ... ... ... : ... .. . ... ... ... : ... .. . ... : ... .. C ... : ... .. . ... ... : ... .. 8 ... ... : ... .. 6 ... ... : ... .. A ... ...
ROW DA : ... .. A ... ... ... : ... .. . ... ... ... : ... .. . ... : ... .. 6 ... : ... .. . ... ... : ... .. . ... ... : ... .. 5 ... ... : ... .. 6 ... ...
ROW DB : ... .. 8 ... ... ... : ... .. . ... ... ... : ... .. . ... : ... .. 3 ... : ... .. . ... ... : ... .. . ... ... : ... .. . ... ... : ... .. . ... ...
ROW DC : ... .. . ... ... ... : ... .. . ... ... ... : ... .. . ... : ... .. 2 ... : ... .. . ... ... : ... .. 7 ... ... : B-2 01 7 ... ... : ... .. . ... ...
ROW DD : ... .. . ... ... ... : ... .. . ... ... ... : ... .. . ... : ... .. 0 ... : ... .. . ... ... : ... .. . ... ... : ... .. 6 ... ... : ... .. . ... ...
ROW DE : ... .. . ... ... ... : ... .. 9 ... ... ... : ... .. . ... : ... .. . ... : ... .. . ... ... : ... .. 6 ... ... : ... .. 5 ... ... : ... .. . ... ...
ROW DF : ... .. 1 ... ... ... : ... .. . ... ... ... : --- .. . ... : ... .. . ... : ... .. . ... ... : ... .. 5 ... ... : ... .. . ... ... : --- .. . P81 ...
ROW E0 : D-2 00 C ... ... ... : C-5 00 8 P7E ... ... : D-3 00 . ... : ... .. F ... : ... .. . ... ... : A-2 01 9 ... ... : F#3 01 7 ... ... : D-1 01 C P80 ...
ROW E1 : ... .. B ... ... ... : ... .. . P80 ... ... : ... .. . ... : ... .. C ... : ... .. . ... ... : ... .. 8 ... ... : ... .. 6 ... ... : ... .. A ... ...
ROW E2 : ... .. A ... ... ... : ... .. . P7F ... ... : ... .. . ... : B-# 00 6 ... : ... .. . ... ... : ... .. . ... ... : ... .. 5 ... ... : ... .. 6 ... ...
ROW E3 : ... .. 8 ... ... ... : B-4 00 8 P82 ... ... : ... .. . ... : ... .. 5 ... : ... .. . ... ... : ... .. . ... ... : ... .. . ... ... : ... .. . ... ...
ROW E4 : ... .. . ... ... ... : ... .. . P7E ... ... : ... .. . ... : ... .. . ... : ... .. . ... ... : ... .. 7 ... ... : F-3 01 7 ... ... : ... .. . ... ...
ROW E5 : ... .. . ... ... ... : A#4 00 8 P82 ... ... : ... .. . ... : ... .. . ... : ... .. . ... ... : ... .. . ... ... : ... .. 6 ... ... : ... .. . ... ...
ROW E6 : ... .. . ... ... ... : ... .. 7 P81 ... ... : ... .. . ... : ... .. 4 ... : ... .. . ... ... : ... .. 6 ... ... : ... .. 5 ... ... : ... .. . ... ...
ROW E7 : ... .. 1 ... ... ... : ... .. . P83 ... ... : --- .. . ... : ... .. 3 ... : ... .. . ... ... : ... .. 5 ... ... : ... .. . ... ... : --- .. . ... ...
ROW E8 : F-1 00 C ... ... ... : B-4 00 6 P80 ... ... : F-2 00 . ... : 1-# 00 F ... : ... .. . ... ... : C-2 01 9 ... ... : C-3 01 7 ... ... : F-0 01 C ... ...
ROW E9 : ... .. B ... ... ... : ... .. . P83 ... ... : ... .. . ... : ... .. C ... : ... .. . ... ... : ... .. 8 ... ... : ... .. 6 ... ... : ... .. A ... ...
ROW EA : ... .. A ... ... ... : C-5 00 6 P80 ... ... : ... .. . ... : ... .. 6 ... : ... .. . ... ... : ... .. . ... ... : ... .. 5 ... ... : ... .. 6 ... ...
ROW EB : ... .. 8 ... ... ... : ... .. . ... ... ... : ... .. . ... : ... .. 3 ... : ... .. . ... ... : ... .. . ... ... : ... .. . ... ... : ... .. . ... ...
ROW EC : ... .. . ... ... ... : B-4 00 6 P82 ... ... : ... .. . ... : ... .. 2 ... : ... .. . ... ... : ... .. 7 ... ... : B-2 01 7 ... ... : ... .. . ... ...
ROW ED : ... .. . ... ... ... : ... .. . P7F ... ... : ... .. . ... : ... .. 0 ... : ... .. . ... ... : ... .. . ... ... : ... .. 6 ... ... : ... .. . ... ...
ROW EE : ... .. . ... ... ... : A#4 00 5 P82 ... ... : ... .. . ... : ... .. . ... : ... .. . ... ... : ... .. 6 ... ... : ... .. 5 ... ... : ... .. . ... ...
ROW EF : ... .. 1 ... ... ... : ... .. . P81 ... ... : --- .. . ... : ... .. . ... : ... .. . ... ... : ... .. 5 ... ... : ... .. . ... ... : --- .. . P82 ...
ROW F0 : C-2 00 C ... ... ... : B-4 00 8 P80 ... ... : C-3 00 . ... : 5-# 00 F ... : ... .. . ... ... : G-2 01 9 ... ... : F#3 01 7 ... ... : C-1 01 C P80 ...
ROW F1 : ... .. B ... ... ... : ... .. 7 ... ... ... : ... .. . ... : ... .. C ... : ... .. . ... ... : ... .. 8 ... ... : ... .. 6 ... ... : ... .. A ... ...
ROW F2 : ... .. A ... ... ... : ... .. 6 ... ... ... : ... .. . ... : B-# 00 6 ... : ... .. . ... ... : ... .. . ... ... : ... .. 5 ... ... : ... .. 6 ... ...
ROW F3 : ... .. 8 ... ... ... : ... .. 5 ... ... ... : ... .. . ... : ... .. 5 ... : ... .. . ... ... : ... .. . ... ... : ... .. . ... ... : ... .. . ... ...
ROW F4 : ... .. . ... ... ... : ... .. 6 ... ... ... : ... .. . ... : ... .. . ... : ... .. . ... ... : ... .. 7 ... ... : F-3 01 7 ... ... : ... .. . ... ...
ROW F5 : ... .. . ... ... ... : ... .. . ... ... ... : ... .. . ... : ... .. . ... : ... .. . ... ... : ... .. . ... ... : ... .. 6 ... ... : ... .. . ... ...
ROW F6 : ... .. . ... ... ... : ... .. . ... ... ... : ... .. . ... : ... .. 4 ... : ... .. . ... ... : ... .. 6 ... ... : ... .. 5 ... ... : ... .. . ... ...
ROW F7 : ... .. 1 ... ... ... : ... .. . ... ... ... : --- .. . ... : ... .. 3 ... : ... .. . ... ... : ... .. 5 ... ... : ... .. . ... ... : --- .. . ... ...
ROW F8 : B-1 00 C ... ... ... : C-5 00 8 ... ... ... : B-2 00 . ... : 1-# 00 F ... : ... .. . ... ... : F#2 01 9 ... ... : C-3 01 7 ... ... : B-0 01 C ... ...
ROW F9 : ... .. B ... ... ... : ... .. 7 ... ... ... : ... .. . ... : ... .. C ... : ... .. . ... ... : ... .. 8 ... ... : ... .. 6 ... ... : ... .. A ... ...
ROW FA : ... .. A ... ... ... : ... .. 8 ... ... ... : ... .. . ... : ... .. 6 ... : ... .. . ... ... : ... .. . ... ... : ... .. 5 ... ... : ... .. 6 ... ...
ROW FB : ... .. 8 ... ... ... : ... .. 6 ... ... ... : ... .. . ... : ... .. 3 ... : ... .. . ... ... : ... .. . ... ... : ... .. . ... ... : ... .. . ... ...
ROW FC : ... .. . ... ... ... : ... .. 7 ... ... ... : ... .. . ... : ... .. 2 ... : ... .. . ... ... : ... .. 7 ... ... : B-2 01 7 ... ... : ... .. . ... ...
ROW FD : ... .. . ... ... ... : ... .. 1 ... ... ... : ... .. . ... : ... .. 0 ... : ... .. . ... ... : ... .. . ... ... : ... .. 6 ... ... : ... .. . ... ...
ROW FE : ... .. . ... ... ... : ... .. . ... ... ... : ... .. . ... : ... .. . ... : ... .. . ... ... : ... .. 6 ... ... : ... .. 5 ... ... : ... .. . ... ...
ROW FF : ... .. 1 ... ... ... : ... .. . ... ... ... : --- .. . ... : ... .. . ... : ... .. . ... ... : ... .. 5 ... ... : ... .. . ... ... : --- .. . ... ...

PATTERN 06
ROW 00 : G#3 00 C ... ... ... : D-5 00 C ... ... ... : G-5 00 . ... : ... .. F ... : ... .. . ... ... : D#4 01 9 ... ... : F#3 01 7 ... ... : G#1 01 C ... ...
ROW 01 : ... .. B ... ... ... : ... .. B ... ... ... : A-4 00 . ... : ... .. C ... : ... .. . ... ... : ... .. 8 ... ... : ... .. 6 ... ... : ... .. A ... ...
ROW 02 : ... .. A ... ... ... : ... .. . ... ... ... : D-4 00 . ... : B-# 00 6 ... : ... .. . ... ... : ... .. . ... ... : ... .. 5 ... ... : ... .. 6 P60 ...
ROW 03 : ... .. 8 ... ... ... : ... .. 8 ... ... ... : C#4 00 . ... : ... .. 5 ... : ... .. . ... ... : ... .. . ... ... : ... .. . ... ... : G-1 01 6 P8A ...
ROW 04 : D#3 00 C ... ... ... : ... .. . ... ... ... : G#3 00 . ... : ... .. . ... : ... .. . ... ... : A#3 01 9 ... ... : F-3 01 7 ... ... : ... .. . P6A ...
ROW 05 : ... .. B ... ... ... : ... .. . ... ... ... : ... .. . ... : ... .. . ... : ... .. . ... ... : ... .. 8 ... ... : ... .. 6 ... ... : F#1 01 6 P97 ...
ROW 06 : ... .. 8 ... ... ... : ... .. 9 ... ... ... : F#3 00 . P81 : ... .. 4 ... : ... .. . ... ... : ... .. 6 ... ... : ... .. 5 ... ... : ... .. . P77 ...
ROW 07 : ... .. 1 ... ... ... : ... .. . ... ... ... : E-3 00 . P86 : ... .. 3 ... : ... .. . ... ... : ... .. 5 ... ... : ... .. . ... ... : F-1 01 6 PA9 ...
ROW 08 : B-2 00 C ... ... ... : D#5 00 F ... ... ... : D#3 00 . P7B : 1-# 00 F ... : ... .. . ... ... : F#3 01 9 ... ... : C-3 01 7 ... ... : ... .. . P89 ...
ROW 09 : ... .. B ... ... ... : ... .. E ... ... ... : C#3 00 . P87 : ... .. C ... : ... .. . ... ... : ... .. 8 ... ... : ... .. 6 ... ... : ... .. . P69 ...
ROW 0A : ... .. 8 ... ... ... : ... .. D ... ... ... : C-3 00 . P7F : ... .. 6 ... : ... .. . ... ... : ... .. 6 ... ... : ... .. 5 ... ... : E-1 01 6 PA0 ...
ROW 0B : ... .. 1 ... ... ... : ... .. A ... ... ... : B-2 00 . P78 : ... .. 3 ... : ... .. . ... ... : ... .. 5 ... ... : ... .. . ... ... : ... .. . P80 ...
ROW 0C : G#2 00 C ... ... ... : ... .. . ... ... ... : A#2 00 . P73 : ... .. F ... : ... .. . ... ... : D#3 01 9 ... ... : B-2 01 7 ... ... : ... .. . P60 ...
ROW 0D : ... .. B ... ... ... : ... .. . ... ... ... : G#2 00 . P8E : ... .. C ... : ... .. . ... ... : ... .. 8 ... ... : ... .. 6 ... ... : D#1 01 6 P9D ...
ROW 0E : ... .. 8 ... ... ... : ... .. . ... ... ... : G-2 00 . ... : ... .. 6 ... : ... .. . ... ... : ... .. 6 ... ... : ... .. 5 ... ... : ... .. . P7D ...
ROW 0F : ... .. 1 ... ... ... : ... .. 2 ... ... ... : F#2 00 . P90 : ... .. 3 ... : ... .. . ... ... : ... .. 5 ... ... : ... .. . ... ... : ... .. . P5D ...
ROW 10 : D#2 00 C ... ... ... : ... .. F ... ... ... : ... .. . P70 : 5-# 00 F ... : ... .. . ... ... : A#2 01 9 ... ... : F#3 01 7 ... ... : D-1 01 6 P9E ...
ROW 11 : ... .. B ... ... ... : ... .. E ... ... ... : F-2 00 . P74 : ... .. C ... : ... .. . ... ... : ... .. 8 ... ... : ... .. 6 ... ... : ... .. . P7E ...
ROW 12 : ... .. A ... ... ... : ... .. D ... ... ... : E-2 00 . P7A : B-# 00 6 ... : ... .. . ... ... : ... .. . ... ... : ... .. 5 ... ... : ... .. . P5E ...
ROW 13 : ... .. 8 ... ... ... : ... .. A ... ... ... : D#2 00 . P82 : ... .. 5 ... : ... .. . ... ... : ... .. . ... ... : ... .. . ... ... : C#1 01 6 PA6 ...
ROW 14 : B-1 00 C ... ... ... : ... .. . ... ... ... : D-2 00 . P8D : ... .. . ... : ... .. . ... ... : F#2 01 9 ... ... : F-3 01 7 ... ... : ... .. . P86 ...
ROW 15 : ... .. B ... ... ... : F-5 00 A P7F ... ... : ... .. . P6D : ... .. . ... : ... .. . ... ... : ... .. 8 ... ... : ... .. 6 ... ... : ... .. . P66 ...
ROW 16 : ... .. 8 ... ... ... : G-5 00 A ... ... ... : C#2 00 . P7A : ... .. 4 ... : ... .. . ... ... : ... .. 6 ... ... : ... .. 5 ... ... : C-1 01 6 PB4 ...
ROW 17 : ... .. 1 ... ... ... : G#5 00 A P80 ... ... : C-2 00 . P8A : ... .. 3 ... : ... .. . ... ... : ... .. 5 ... ... : ... .. . ... ... : ... .. . P94 ...
ROW 18 : G#1 00 C ... ... ... : ... .. . ... ... ... : ... .. . P6A : C-# 00 F ... : ... .. . ... ... : D#2 01 9 ... ... : C-3 01 7 ... ... : ... .. . P74 ...
ROW 19 : ... .. B ... ... ... : ... .. . ... ... ... : B-1 00 . P7D : ... .. C ... : ... .. . ... ... : ... .. 8 ... ... : ... .. 6 ... ... : ... .. . P54 ...
ROW 1A : ... .. 8 ... ... ... : ... .. . ... ... ... : A#1 00 . P93 : ... .. 6 ... : ... .. . ... ... : ... .. 6 ... ... : ... .. 5 ... ... : B-0 01 6 PA8 ...
ROW 1B : ... .. 1 ... ... ... : ... .. . ... ... ... : ... .. . P73 : ... .. 3 ... : ... .. . ... ... : ... .. 5 ... ... : ... .. . ... ... : ... .. . P88 ...
ROW 1C : D#1 00 C ... ... ... : ... .. . ... ... ... : A-1 00 . P8C : ... .. F ... : ... .. . ... ... : A#1 01 9 ... ... : B-2 01 7 ... ... : ... .. . P68 ...
ROW 1D : ... .. B ... ... ... : ... .. . ... ... ... : ... .. . P6C : ... .. C ... : ... .. . ... ... : ... .. 8 ... ... : ... .. 6 ... ... : ... .. . P48 ...
ROW 1E : ... .. 8 ... ... ... : ... .. . ... ... ... : G#1 00 . P88 : ... .. 6 ... : ... .. . ... ... : ... .. 6 ... ... : ... .. 5 ... ... : A#0 01 6 PA3 ...
ROW 1F : ... .. 1 ... ... ... : ... .. . ... ... ... : ... .. . P68 : ... .. 3 ... : ... .. . ... ... : ... .. 5 ... ... : ... .. . ... ... : ... .. . P83 ...
ROW 20 : F-1 00 C ... ... ... : ... .. . ... ... ... : E-4 00 . P80 : 1-# 00 F ... : ... .. . ... ... : C-2 01 9 ... ... : F#3 01 7 ... ... : F-0 01 C P80 ...
ROW 21 : ... .. B ... ... ... : ... .. . ... ... ... : F#3 00 . ... : ... .. C ... : ... .. . ... ... : ... .. 8 ... ... : ... .. 6 ... ... : ... .. A ... ...
ROW 22 : ... .. A ... ... ... : ... .. . ... ... ... : B-2 00 . ... : B-# 00 6 ... : ... .. . ... ... : ... .. . ... ... : ... .. 5 ... ... : ... .. 6 ... ...
ROW 23 : ... .. 8 ... ... ... : ... .. . ... ... ... : A#2 00 . ... : ... .. 5 ... : ... .. . ... ... : ... .. . ... ... : ... .. . ... ... : ... .. . ... ...
ROW 24 : ... .. C ... ... ... : ... .. . ... ... ... : F-2 00 . ... : ... .. . ... : ... .. . ... ... : ... .. 9 ... ... : F-3 01 7 ... ... : ... .. . ... ...
ROW 25 : ... .. B ... ... ... : ... .. . ... ... ... : ... .. . ... : ... .. . ... : ... .. . ... ... : ... .. 8 ... ... : ... .. 6 ... ... : ... .. . ... ...
ROW 26 : ... .. A ... ... ... : ... .. . ... ... ... : ... .. . ... : ... .. 4 ... : ... .. . ... ... : ... .. . ... ... : ... .. 5 ... ... : ... .. . ... ...
ROW 27 : ... .. 8 ... ... ... : ... .. . ... ... ... : --- .. . ... : ... .. 3 ... : ... .. . ... ... : ... .. . ... ... : ... .. . ... ... : --- .. . P82 ...
ROW 28 : D#2 00 C ... ... ... : A-5 00 A P7F ... ... : D#3 00 . ... : 1-# 00 F ... : ... .. . ... ... : A#2 01 9 ... ... : C-3 01 7 ... ... : D#1 01 C P80 ...
ROW 29 : ... .. B ... ... ... : ... .. . P80 ... ... : ... .. . ... : ... .. C ... : ... .. . ... ... : ... .. 8 ... ... : ... .. 6 ... ... : ... .. A ... ...
ROW 2A : ... .. A ... ... ... : ... .. . ... ... ... : ... .. . ... : ... .. 6 ... : ... .. . ... ... : ... .. . ... ... : ... .. 5 ... ... : ... .. 6 ... ...
ROW 2B : ... .. 8 ... ... ... : G#5 00 A P81 ... ... : ... .. . ... : ... .. 3 ... : ... .. . ... ... : ... .. . ... ... : ... .. . ... ... : ... .. . ... ...
ROW 2C : ... .. . ... ... ... : ... .. . P7F ... ... : ... .. . ... : ... .. 2 ... : ... .. . ... ... : ... .. 7 ... ... : B-2 01 7 ... ... : ... .. . ... ...
ROW 2D : ... .. . ... ... ... : G-5 00 A P81 ... ... : ... .. . ... : ... .. 0 ... : ... .. . ... ... : ... .. . ... ... : ... .. 6 ... ... : ... .. . ... ...
ROW 2E : ... .. . ... ... ... : ... .. . ... ... ... : ... .. . ... : ... .. . ... : ... .. . ... ... : ... .. . ... ... : ... .. 5 ... ... : ... .. . ... ...
ROW 2F : ... .. . ... ... ... : ... .. . P82 ... ... : --- .. . ... : ... .. . ... : ... .. . ... ... : ... .. 6 ... ... : ... .. . ... ... : --- .. . P81 ...
ROW 30 : D-2 00 C ... ... ... : G#5 00 A P80 ... ... : D-3 00 . ... : 5-# 00 F ... : ... .. . ... ... : A-2 01 9 ... ... : F#3 01 7 ... ... : D-1 01 C P80 ...
ROW 31 : ... .. B ... ... ... : A-5 00 A P7F ... ... : ... .. . ... : ... .. C ... : ... .. . ... ... : ... .. 8 ... ... : ... .. 6 ... ... : ... .. A ... ...
ROW 32 : ... .. A ... ... ... : ... .. . P80 ... ... : ... .. . ... : B-# 00 6 ... : ... .. . ... ... : ... .. . ... ... : ... .. 5 ... ... : ... .. 6 ... ...
ROW 33 : ... .. 8 ... ... ... : ... .. . ... ... ... : ... .. . ... : ... .. 5 ... : ... .. . ... ... : ... .. . ... ... : ... .. . ... ... : ... .. . ... ...
ROW 34 : ... .. . ... ... ... : G#5 00 A P81 ... ... : ... .. . ... : ... .. . ... : ... .. . ... ... : ... .. 7 ... ... : F-3 01 7 ... ... : ... .. . ... ...
ROW 35 : ... .. . ... ... ... : ... .. . P80 ... ... : ... .. . ... : ... .. . ... : ... .. . ... ... : ... .. . ... ... : ... .. 6 ... ... : ... .. . ... ...
ROW 36 : ... .. . ... ... ... : G-5 00 A P81 ... ... : ... .. . ... : ... .. 4 ... : ... .. . ... ... : ... .. . ... ... : ... .. 5 ... ... : ... .. . ... ...
ROW 37 : ... .. . ... ... ... : ... .. . ... ... ... : --- .. . ... : ... .. 3 ... : ... .. . ... ... : ... .. 6 ... ... : ... .. . ... ... : --- .. . ... ...
ROW 38 : F-1 00 C ... ... ... : ... .. . P82 ... ... : F-2 00 . ... : 1-# 00 F ... : ... .. . ... ... : C-2 01 9 ... ... : C-3 01 7 ... ... : F-0 01 C ... ...
ROW 39 : ... .. B ... ... ... : G#5 00 A P80 ... ... : ... .. . ... : ... .. C ... : ... .. . ... ... : ... .. 8 ... ... : ... .. 6 ... ... : ... .. A ... ...
ROW 3A : ... .. 8 ... ... ... : ... .. . P81 ... ... : ... .. . ... : ... .. 6 ... : ... .. . ... ... : ... .. 6 ... ... : ... .. 5 ... ... : ... .. 6 ... ...
ROW 3B : ... .. 1 ... ... ... : A-5 00 A P80 ... ... : ... .. . ... : ... .. 3 ... : ... .. . ... ... : ... .. 5 ... ... : ... .. . ... ... : ... .. . ... ...
ROW 3C : ... .. C ... ... ... : ... .. . ... ... ... : ... .. . ... : ... .. 2 ... : ... .. . ... ... : ... .. 9 ... ... : B-2 01 7 ... ... : ... .. . ... ...
ROW 3D : ... .. B ... ... ... : G#5 00 A P81 ... ... : ... .. . ... : ... .. 0 ... : ... .. . ... ... : ... .. 8 ... ... : ... .. 6 ... ... : ... .. . ... ...
ROW 3E : ... .. 8 ... ... ... : ... .. . P80 ... ... : ... .. . ... : ... .. . ... : ... .. . ... ... : ... .. 6 ... ... : ... .. 5 ... ... : ... .. . ... ...
ROW 3F : ... .. 1 ... ... ... : G-5 00 A P82 ... ... : --- .. . ... : ... .. . ... : ... .. . ... ... : ... .. 5 ... ... : ... .. . ... ... : --- .. . P82 ...
ROW 40 : C-2 00 C ... ... ... : F#5 00 F P80 ... ... : C-3 00 . ... : ... .. F ... : ... .. . ... ... : G-2 01 9 ... ... : F#3 01 7 ... ... : C-1 01 C P80 ...
ROW 41 : ... .. B ... ... ... : ... .. E ... ... ... : ... .. . ... : ... .. C ... : ... .. . ... ... : ... .. 8 ... ... : ... .. 6 ... ... : ... .. A ... ...
ROW 42 : ... .. A ... ... ... : ... .. D ... ... ... : ... .. . ... : B-# 00 6 ... : ... .. . ... ... : ... .. . ... ... : ... .. 5 ... ... : ... .. 6 ... ...
ROW 43 : ... .. 8 ... ... ... : ... .. A ... ... ... : ... .. . ... : ... .. 5 ... : ... .. . ... ... : ... .. . ... ... : ... .. . ... ... : ... .. . ... ...
ROW 44 : ... .. . ... ... ... : ... .. . ... ... ... : ... .. . ... : ... .. . ... : ... .. . ... ... : ... .. 7 ... ... : F-3 01 7 ... ... : ... .. . ... ...
ROW 45 : ... .. . ... ... ... : ... .. . ... ... ... : ... .. . ... : ... .. . ... : ... .. . ... ... : ... .. . ... ... : ... .. 6 ... ... : ... .. . ... ...
ROW 46 : ... .. . ... ... ... : ... .. . ... ... ... : ... .. . ... : ... .. 4 ... : ... .. . ... ... : ... .. 6 ... ... : ... .. 5 ... ... : ... .. . ... ...
ROW 47 : ... .. 1 ... ... ... : ... .. . ... ... ... : --- .. . ... : ... .. 3 ... : ... .. . ... ... : ... .. 5 ... ... : ... .. . ... ... : --- .. . ... ...
ROW 48 : B-1 00 C ... ... ... : F-5 00 F ... ... ... : B-2 00 . ... : 1-# 00 F ... : ... .. . ... ... : F#2 01 9 ... ... : C-3 01 7 ... ... : B-0 01 C ... ...
ROW 49 : ... .. B ... ... ... : ... .. E ... ... ... : ... .. . ... : ... .. C ... : ... .. . ... ... : ... .. 8 ... ... : ... .. 6 ... ... : ... .. A ... ...
ROW 4A : ... .. A ... ... ... : ... .. D ... ... ... : ... .. . ... : ... .. 6 ... : ... .. . ... ... : ... .. . ... ... : ... .. 5 ... ... : ... .. 6 ... ...
ROW 4B : ... .. 8 ... ... ... : ... .. A ... ... ... : ... .. . ... : ... .. 3 ... : ... .. . ... ... : ... .. . ... ... : ... .. . ... ... : ... .. . ... ...
ROW 4C : ... .. . ... ... ... : ... .. . ... ... ... : ... .. . ... : ... .. 2 ... : ... .. . ... ... : ... .. 7 ... ... : B-2 01 7 ... ... : ... .. . ... ...
ROW 4D : ... .. . ... ... ... : ... .. . ... ... ... : ... .. . ... : ... .. 0 ... : ... .. . ... ... : ... .. . ... ... : ... .. 6 ... ... : ... .. . ... ...
ROW 4E : ... .. . ... ... ... : ... .. . ... ... ... : ... .. . ... : ... .. . ... : ... .. . ... ... : ... .. 6 ... ... : ... .. 5 ... ... : ... .. . ... ...
ROW 4F : ... .. 1 ... ... ... : ... .. . ... ... ... : --- .. . ... : ... .. . ... : ... .. . ... ... : ... .. 5 ... ... : ... .. . ... ... : --- .. . ... ...
ROW 50 : F-1 00 C ... ... ... : F#5 00 8 ... ... ... : F-2 00 . ... : 5-# 00 F ... : ... .. . ... ... : C-2 01 9 ... ... : F#3 01 7 ... ... : F-0 01 C ... ...
ROW 51 : ... .. B ... ... ... : ... .. 7 ... ... ... : ... .. . ... : ... .. C ... : ... .. . ... ... : ... .. 8 ... ... : ... .. 6 ... ... : ... .. A ... ...
ROW 52 : ... .. 8 ... ... ... : ... .. 6 ... ... ... : ... .. . ... : B-# 00 6 ... : ... .. . ... ... : ... .. 6 ... ... : ... .. 5 ... ... : ... .. 6 ... ...
ROW 53 : ... .. 1 ... ... ... : ... .. 5 ... ... ... : ... .. . ... : ... .. 5 ... : ... .. . ... ... : ... .. 5 ... ... : ... .. . ... ... : ... .. . ... ...
ROW 54 : ... .. C ... ... ... : ... .. . ... ... ... : ... .. . ... : ... .. . ... : ... .. . ... ... : ... .. 9 ... ... : F-3 01 7 ... ... : ... .. . ... ...
ROW 55 : ... .. B ... ... ... : ... .. . ... ... ... : ... .. . ... : ... .. . ... : ... .. . ... ... : ... .. 8 ... ... : ... .. 6 ... ... : ... .. . ... ...
ROW 56 : ... .. 8 ... ... ... : ... .. . ... ... ... : ... .. . ... : ... .. 4 ... : ... .. . ... ... : ... .. 6 ... ... : ... .. 5 ... ... : ... .. . ... ...
ROW 57 : ... .. 1 ... ... ... : ... .. . ... ... ... : --- .. . ... : ... .. 3 ... : ... .. . ... ... : ... .. 5 ... ... : ... .. . ... ... : --- .. . P82 ...
ROW 58 : D#2 00 C ... ... ... : F-5 00 8 ... ... ... : D#3 00 . ... : 1-# 00 F ... : ... .. . ... ... : A#2 01 9 ... ... : C-3 01 7 ... ... : D#1 01 C P80 ...
ROW 59 : ... .. B ... ... ... : ... .. 7 ... ... ... : ... .. . ... : ... .. C ... : ... .. . ... ... : ... .. 8 ... ... : ... .. 6 ... ... : ... .. A ... ...
ROW 5A : ... .. A ... ... ... : ... .. 6 ... ... ... : ... .. . ... : ... .. 6 ... : ... .. . ... ... : ... .. . ... ... : ... .. 5 ... ... : ... .. 6 ... ...
ROW 5B : ... .. 8 ... ... ... : ... .. 5 ... ... ... : ... .. . ... : ... .. 3 ... : ... .. . ... ... : ... .. . ... ... : ... .. . ... ... : ... .. . ... ...
ROW 5C : ... .. . ... ... ... : ... .. . ... ... ... : ... .. . ... : ... .. 2 ... : ... .. . ... ... : ... .. 7 ... ... : B-2 01 7 ... ... : ... .. . ... ...
ROW 5D : ... .. . ... ... ... : ... .. . ... ... ... : ... .. . ... : ... .. 0 ... : ... .. . ... ... : ... .. . ... ... : ... .. 6 ... ... : ... .. . ... ...
ROW 5E : ... .. . ... ... ... : ... .. . ... ... ... : ... .. . ... : ... .. . ... : ... .. . ... ... : ... .. 6 ... ... : ... .. 5 ... ... : ... .. . ... ...
ROW 5F : ... .. 1 ... ... ... : ... .. . ... ... ... : --- .. . ... : ... .. . ... : ... .. . ... ... : ... .. 5 ... ... : ... .. . ... ... : --- .. . P81 ...
ROW 60 : B-1 00 C ... ... ... : F#5 00 6 ... ... ... : A#3 00 . ... : ... .. F ... : ... .. . ... ... : F#2 01 9 ... ... : F#3 01 7 ... ... : B-0 01 C P80 ...
ROW 61 : ... .. B ... ... ... : ... .. 5 ... ... ... : C-3 00 . ... : ... .. C ... : ... .. . ... ... : ... .. 8 ... ... : ... .. 6 ... ... : ... .. A ... ...
ROW 62 : ... .. A ... ... ... : ... .. . ... ... ... : F-2 00 . ... : B-# 00 6 ... : ... .. . ... ... : ... .. . ... ... : ... .. 5 ... ... : ... .. 6 ... ...
ROW 63 : ... .. 8 ... ... ... : ... .. 4 ... ... ... : E-2 00 . ... : ... .. 5 ... : ... .. . ... ... : ... .. . ... ... : ... .. . ... ... : ... .. . ... ...
ROW 64 : ... .. . ... ... ... : ... .. . ... ... ... : B-1 00 . ... : ... .. . ... : ... .. . ... ... : ... .. 7 ... ... : F-3 01 7 ... ... : ... .. . ... ...
ROW 65 : ... .. . ... ... ... : ... .. . ... ... ... : ... .. . ... : ... .. . ... : ... .. . ... ... : ... .. . ... ... : ... .. 6 ... ... : ... .. . ... ...
ROW 66 : ... .. . ... ... ... : ... .. . ... ... ... : ... .. . ... : ... .. 4 ... : ... .. . ... ... : ... .. 6 ... ... : ... .. 5 ... ... : ... .. . ... ...
ROW 67 : ... .. 1 ... ... ... : ... .. . ... ... ... : --- .. . ... : ... .. 3 ... : ... .. . ... ... : ... .. 5 ... ... : ... .. . ... ... : --- .. . ... ...
ROW 68 : F#2 00 C ... ... ... : F-5 00 6 ... ... ... : F-4 00 . ... : 1-# 00 F ... : ... .. . ... ... : C#3 01 9 ... ... : C-3 01 7 ... ... : F#0 01 C ... ...
ROW 69 : ... .. B ... ... ... : ... .. 5 ... ... ... : G-3 00 . ... : ... .. C ... : ... .. . ... ... : ... .. 8 ... ... : ... .. 6 ... ... : ... .. A ... ...
ROW 6A : ... .. A ... ... ... : ... .. . ... ... ... : C-3 00 . ... : ... .. 6 ... : ... .. . ... ... : ... .. . ... ... : ... .. 5 ... ... : ... .. 6 ... ...
ROW 6B : ... .. 8 ... ... ... : ... .. 4 ... ... ... : B-2 00 . ... : ... .. 3 ... : ... .. . ... ... : ... .. . ... ... : ... .. . ... ... : ... .. . ... ...
ROW 6C : ... .. C ... ... ... : ... .. . ... ... ... : F#2 00 . ... : ... .. 2 ... : ... .. . ... ... : ... .. 9 ... ... : B-2 01 7 ... ... : ... .. . ... ...
ROW 6D : ... .. B ... ... ... : ... .. . ... ... ... : ... .. . ... : ... .. 0 ... : ... .. . ... ... : ... .. 8 ... ... : ... .. 6 ... ... : ... .. . ... ...
ROW 6E : ... .. A ... ... ... : ... .. . ... ... ... : ... .. . ... : ... .. . ... : ... .. . ... ... : ... .. . ... ... : ... .. 5 ... ... : ... .. . ... ...
ROW 6F : ... .. 0 ... ... ... : ... .. . ... ... ... : --- .. . ... : ... .. . ... : ... .. . ... ... : --- .. . P84 ... : ... .. . ... ... : --- .. . P81 ...
ROW 70 : E-2 00 C P80 ... ... : F#5 00 4 ... ... ... : D#4 00 . ... : 8-# 00 F ... : ... .. . ... ... : B-2 01 9 P81 ... : F#3 01 7 ... ... : E-0 01 C P80 ...
ROW 71 : ... .. B ... ... ... : ... .. 3 ... ... ... : F-3 00 . ... : ... .. C ... : ... .. . ... ... : ... .. 8 ... ... : ... .. 6 ... ... : ... .. A ... ...
ROW 72 : ... .. A ... ... ... : ... .. . ... ... ... : A#2 00 . ... : ... .. 6 ... : ... .. . ... ... : ... .. . ... ... : ... .. 5 ... ... : ... .. 6 ... ...
ROW 73 : ... .. 0 ... ... ... : ... .. 2 ... ... ... : A-2 00 . ... : ... .. 3 ... : ... .. . ... ... : --- .. . P86 ... : ... .. . ... ... : ... .. . ... ...
ROW 74 : E-2 00 C P80 ... ... : ... .. . ... ... ... : E-2 00 . ... : ... .. F ... : ... .. . ... ... : B-2 01 9 P81 ... : F-3 01 7 ... ... : ... .. . ... ...
ROW 75 : ... .. B ... ... ... : ... .. . ... ... ... : ... .. . ... : ... .. C ... : ... .. . ... ... : ... .. 8 ... ... : ... .. 6 ... ... : ... .. . ... ...
ROW 76 : ... .. A ... ... ... : ... .. . ... ... ... : ... .. . ... : ... .. 6 ... : ... .. . ... ... : ... .. . ... ... : ... .. 5 ... ... : ... .. . ... ...
ROW 77 : ... .. 0 ... ... ... : ... .. . ... ... ... : ... .. . ... : ... .. 3 ... : ... .. . ... ... : --- .. . P86 ... : ... .. . ... ... : ... .. . ... ...
ROW 78 : B-2 00 C P80 ... ... : F-5 00 4 ... ... ... : A#4 00 . ... : 1-# 00 F ... : ... .. . ... ... : F#3 01 9 P81 ... : C-3 01 7 ... ... : B-0 01 C ... ...
ROW 79 : ... .. B ... ... ... : ... .. 3 ... ... ... : C-4 00 . ... : ... .. C ... : ... .. . ... ... : ... .. 8 ... ... : ... .. 6 ... ... : ... .. A ... ...
ROW 7A : ... .. A ... ... ... : ... .. . ... ... ... : F-3 00 . ... : ... .. 6 ... : ... .. . ... ... : ... .. . ... ... : ... .. 5 ... ... : ... .. 6 ... ...
ROW 7B : ... .. 0 ... ... ... : ... .. 2 ... ... ... : E-3 00 . ... : ... .. 3 ... : ... .. . ... ... : --- .. . P80 ... : ... .. . ... ... : ... .. . ... ...
ROW 7C : B-2 00 C P80 ... ... : ... .. . ... ... ... : B-2 00 . ... : ... .. F ... : ... .. . ... ... : F#3 01 9 P81 ... : B-2 01 7 ... ... : ... .. . ... ...
ROW 7D : ... .. B ... ... ... : ... .. . ... ... ... : ... .. . ... : ... .. C ... : ... .. . ... ... : ... .. 8 ... ... : ... .. 6 ... ... : ... .. . ... ...
ROW 7E : ... .. A ... ... ... : ... .. . ... ... ... : ... .. . ... : ... .. 6 ... : ... .. . ... ... : ... .. . ... ... : ... .. 5 ... ... : ... .. . ... ...
ROW 7F : ... .. 0 ... ... ... : ... .. . ... ... ... : ... .. . ... : ... .. 3 ... : ... .. . ... ... : --- .. . P80 ... : ... .. . ... ... : ... .. . ... ...
ROW 80 : A-2 00 C P80 ... ... : F#5 00 2 ... ... ... : G#4 00 . ... : 7-# 00 F ... : ... .. . ... ... : E-3 01 9 P81 ... : F#3 01 7 ... ... : A-0 01 C ... ...
ROW 81 : ... .. B ... ... ... : ... .. 1 ... ... ... : A#3 00 . ... : ... .. C ... : ... .. . ... ... : ... .. 8 ... ... : ... .. 6 ... ... : ... .. A ... ...
ROW 82 : ... .. A ... ... ... : ... .. . ... ... ... : D#3 00 . ... : ... .. 6 ... : ... .. . ... ... : ... .. . ... ... : ... .. 5 ... ... : ... .. 6 ... ...
ROW 83 : ... .. 0 ... ... ... : ... .. . ... ... ... : D-3 00 . ... : ... .. 3 ... : ... .. . ... ... : --- .. . P7E ... : ... .. . ... ... : ... .. . ... ...
ROW 84 : A-2 00 C P80 ... ... : ... .. . ... ... ... : A-2 00 . ... : ... .. F ... : ... .. . ... ... : E-3 01 9 P81 ... : F-3 01 7 ... ... : ... .. . ... ...
ROW 85 : ... .. B ... ... ... : ... .. . ... ... ... : ... .. . ... : ... .. C ... : ... .. . ... ... : ... .. 8 ... ... : ... .. 6 ... ... : ... .. . ... ...
ROW 86 : ... .. A ... ... ... : ... .. . ... ... ... : ... .. . ... : ... .. 6 ... : ... .. . ... ... : ... .. . ... ... : ... .. 5 ... ... : ... .. . ... ...
ROW 87 : ... .. 0 ... ... ... : ... .. . ... ... ... : ... .. . ... : ... .. 3 ... : ... .. . ... ... : --- .. . P7E ... : ... .. . ... ... : ... .. . ... ...
ROW 88 : D-3 00 C P80 ... ... : F-5 00 2 ... ... ... : C#5 00 . ... : 1-# 00 F ... : ... .. . ... ... : A-3 01 9 P81 ... : C-3 01 7 ... ... : D-1 01 C ... ...
ROW 89 : ... .. B ... ... ... : ... .. 1 ... ... ... : D#4 00 . ... : ... .. C ... : ... .. . ... ... : ... .. 8 ... ... : ... .. 6 ... ... : ... .. A ... ...
ROW 8A : ... .. A ... ... ... : ... .. . ... ... ... : G#3 00 . ... : ... .. 6 ... : ... .. . ... ... : ... .. . ... ... : ... .. 5 ... ... : ... .. 6 ... ...
ROW 8B : ... .. 0 ... ... ... : ... .. . ... ... ... : G-3 00 . ... : ... .. 3 ... : ... .. . ... ... : --- .. . ... ... : ... .. . ... ... : ... .. . ... ...
ROW 8C : D-3 00 C P80 ... ... : ... .. . ... ... ... : D-3 00 . ... : ... .. F ... : ... .. . ... ... : A-3 01 9 ... ... : B-2 01 7 ... ... : ... .. . ... ...
ROW 8D : ... .. B ... ... ... : ... .. . ... ... ... : ... .. . ... : ... .. C ... : ... .. . ... ... : ... .. 8 ... ... : ... .. 6 ... ... : ... .. . ... ...
ROW 8E : ... .. A ... ... ... : ... .. . ... ... ... : ... .. . ... : ... .. 6 ... : ... .. . ... ... : ... .. . ... ... : ... .. 5 ... ... : ... .. . ... ...
ROW 8F : ... .. 0 ... ... ... : ... .. . ... ... ... : ... .. . ... : ... .. 3 ... : ... .. . ... ... : --- .. . ... ... : ... .. . ... ... : ... .. . ... ...
ROW 90 : C-3 00 C P80 ... ... : ... .. 0 ... ... ... : B-4 00 . ... : 4-# 00 F ... : ... .. . ... ... : G-3 01 9 ... ... : F#3 01 7 ... ... : C-1 01 C ... ...
ROW 91 : ... .. B ... ... ... : ... .. . ... ... ... : C#4 00 . ... : ... .. C ... : ... .. . ... ... : ... .. 8 ... ... : ... .. 6 ... ... : ... .. A ... ...
ROW 92 : ... .. A ... ... ... : ... .. . ... ... ... : F#3 00 . ... : ... .. 6 ... : ... .. . ... ... : ... .. . ... ... : ... .. 5 ... ... : ... .. 6 ... ...
ROW 93 : ... .. 0 ... ... ... : ... .. . ... ... ... : F-3 00 . ... : ... .. 3 ... : ... .. . ... ... : --- .. . P80 ... : ... .. . ... ... : ... .. . ... ...
ROW 94 : C-3 00 C P80 ... ... : ... .. . ... ... ... : C-3 00 . ... : ... .. F ... : ... .. . ... ... : G-3 01 9 P81 ... : F-3 01 7 ... ... : ... .. . ... ...
ROW 95 : ... .. B ... ... ... : ... .. . ... ... ... : ... .. . ... : ... .. C ... : ... .. . ... ... : ... .. 8 ... ... : ... .. 6 ... ... : ... .. . ... ...
ROW 96 : ... .. A ... ... ... : ... .. . ... ... ... : ... .. . ... : ... .. 6 ... : ... .. . ... ... : ... .. . ... ... : ... .. 5 ... ... : ... .. . ... ...
ROW 97 : ... .. 0 ... ... ... : ... .. . ... ... ... : ... .. . ... : ... .. 3 ... : ... .. . ... ... : --- .. . P80 ... : ... .. . ... ... : ... .. . ... ...
ROW 98 : F-3 00 C P80 ... ... : ... .. . ... ... ... : E-5 00 . ... : 1-# 00 F ... : ... .. . ... ... : C-4 01 9 P81 ... : C-3 01 7 ... ... : F-1 01 C ... ...
ROW 99 : ... .. B ... ... ... : ... .. . ... ... ... : F#4 00 . ... : ... .. C ... : ... .. . ... ... : ... .. 8 ... ... : ... .. 6 ... ... : ... .. A ... ...
ROW 9A : ... .. A ... ... ... : ... .. . ... ... ... : B-3 00 . ... : ... .. 6 ... : ... .. . ... ... : ... .. . ... ... : ... .. 5 ... ... : ... .. 6 ... ...
ROW 9B : ... .. 0 ... ... ... : ... .. . ... ... ... : A#3 00 . ... : ... .. 3 ... : ... .. . ... ... : --- .. . ... ... : ... .. . ... ... : ... .. . ... ...
ROW 9C : F-3 00 C P80 ... ... : ... .. . ... ... ... : F-3 00 . ... : ... .. F ... : ... .. . ... ... : C-4 01 9 ... ... : B-2 01 7 ... ... : ... .. . ... ...
ROW 9D : ... .. B ... ... ... : ... .. . ... ... ... : ... .. . ... : ... .. C ... : ... .. . ... ... : ... .. 8 ... ... : ... .. 6 ... ... : ... .. . ... ...
ROW 9E : ... .. A ... ... ... : ... .. . ... ... ... : ... .. . ... : ... .. 6 ... : ... .. . ... ... : ... .. . ... ... : ... .. 5 ... ... : ... .. . ... ...
ROW 9F : ... .. 0 ... ... ... : ... .. . ... ... ... : ... .. . ... : ... .. 3 ... : ... .. . ... ... : --- .. . ... ... : ... .. . ... ... : ... .. . ... ...
ROW A0 : G#1 00 C P80 ... ... : ... .. . ... ... ... : G-4 00 . ... : ... .. F ... : ... .. . ... ... : D-3 01 A ... V03 : F#3 01 6 ... ... : C#1 01 F ... ...
ROW A1 : ... .. B ... ... ... : ... .. . ... ... ... : A-3 00 . ... : ... .. C ... : ... .. . ... ... : ... .. 9 ... ... : ... .. 5 ... ... : ... .. D ... ...
ROW A2 : ... .. A ... ... ... : ... .. . ... ... ... : D-3 00 . ... : B-# 00 6 ... : ... .. . ... ... : ... .. 8 ... ... : ... .. 4 ... ... : ... .. 8 ... ...
ROW A3 : ... .. 8 ... ... ... : ... .. . ... ... ... : C#3 00 . ... : ... .. 5 ... : ... .. . ... ... : ... .. 7 ... ... : ... .. . ... ... : ... .. . ... ...
ROW A4 : ... .. . ... ... ... : ... .. . ... ... ... : G#2 00 . ... : ... .. . ... : ... .. . ... ... : ... .. . ... ... : F-3 01 6 ... ... : ... .. . ... ...
ROW A5 : ... .. . ... ... ... : ... .. . ... ... ... : ... .. . ... : ... .. . ... : ... .. . ... ... : ... .. 6 ... ... : ... .. 5 ... ... : ... .. . ... ...
ROW A6 : ... .. . ... ... ... : ... .. . ... ... ... : ... .. . ... : ... .. 4 ... : ... .. . ... ... : ... .. 5 ... ... : ... .. 4 ... ... : ... .. . ... ...
ROW A7 : ... .. 1 ... ... ... : ... .. . ... ... ... : --- .. . ... : ... .. 3 ... : ... .. . ... ... : ... .. . ... ... : ... .. . ... ... : --- .. . P81 ...
ROW A8 : F#2 00 C ... ... ... : ... .. . ... ... ... : A-2 00 . ... : 1-# 00 F ... : ... .. . ... ... : C-4 01 A ... ... : C-3 01 6 ... ... : A-0 01 F P80 ...
ROW A9 : ... .. B ... ... ... : ... .. . ... ... ... : ... .. . ... : ... .. C ... : ... .. . ... ... : ... .. 9 ... ... : ... .. 5 ... ... : ... .. D ... ...
ROW AA : ... .. A ... ... ... : ... .. . ... ... ... : ... .. . ... : ... .. 6 ... : ... .. . ... ... : ... .. 8 ... ... : ... .. 4 ... ... : ... .. 8 ... ...
ROW AB : ... .. 8 ... ... ... : ... .. . ... ... ... : ... .. . ... : ... .. 3 ... : ... .. . ... ... : ... .. 7 ... ... : ... .. . ... ... : ... .. . ... ...
ROW AC : ... .. . ... ... ... : ... .. . ... ... ... : ... .. . ... : ... .. 2 ... : ... .. . ... ... : ... .. . ... ... : B-2 01 6 ... ... : ... .. . ... ...
ROW AD : ... .. . ... ... ... : ... .. . ... ... ... : ... .. . ... : ... .. 0 ... : ... .. . ... ... : ... .. 6 ... ... : ... .. 5 ... ... : ... .. . ... ...
ROW AE : ... .. . ... ... ... : ... .. . ... ... ... : ... .. . ... : ... .. . ... : ... .. . ... ... : ... .. 5 ... ... : ... .. 4 ... ... : ... .. . ... ...
ROW AF : ... .. 1 ... ... ... : ... .. . ... ... ... : --- .. . ... : ... .. . ... : ... .. . ... ... : ... .. . ... ... : ... .. . ... ... : --- .. . ... ...
ROW B0 : F-2 00 C ... ... ... : F#4 00 8 P80 ... ... : F#2 00 . ... : 5-# 00 F ... : ... .. . ... ... : B-3 01 A ... ... : F#3 01 6 ... ... : F#0 01 F ... ...
ROW B1 : ... .. B ... ... ... : ... .. 7 ... ... ... : ... .. . ... : ... .. C ... : ... .. . ... ... : ... .. 9 ... ... : ... .. 5 ... ... : ... .. D ... ...
ROW B2 : ... .. A ... ... ... : ... .. 6 ... ... ... : ... .. . ... : B-# 00 6 ... : ... .. . ... ... : ... .. 8 ... ... : ... .. 4 ... ... : ... .. 8 ... ...
ROW B3 : ... .. 8 ... ... ... : ... .. 5 ... ... ... : ... .. . ... : ... .. 5 ... : ... .. . ... ... : ... .. 7 ... ... : ... .. . ... ... : ... .. . ... ...
ROW B4 : ... .. . ... ... ... : ... .. 6 ... ... ... : ... .. . ... : ... .. . ... : ... .. . ... ... : ... .. . ... ... : F-3 01 6 ... ... : ... .. . ... ...
ROW B5 : ... .. . ... ... ... : ... .. . ... ... ... : ... .. . ... : ... .. . ... : ... .. . ... ... : ... .. 6 ... ... : ... .. 5 ... ... : ... .. . ... ...
ROW B6 : ... .. . ... ... ... : ... .. . ... ... ... : ... .. . ... : ... .. 4 ... : ... .. . ... ... : ... .. 5 ... ... : ... .. 4 ... ... : ... .. . ... ...
ROW B7 : ... .. 1 ... ... ... : ... .. 1 ... ... ... : --- .. . ... : ... .. 3 ... : ... .. . ... ... : ... .. . ... ... : ... .. . ... ... : --- .. . P81 ...
ROW B8 : G#1 00 C ... ... ... : G#4 00 B ... ... ... : G#2 00 . ... : 1-# 00 F ... : ... .. . ... ... : D-3 01 A ... ... : C-3 01 6 ... ... : G#0 01 F P80 ...
ROW B9 : ... .. B ... ... ... : ... .. A ... ... ... : ... .. . ... : ... .. C ... : ... .. . ... ... : ... .. 9 ... ... : ... .. 5 ... ... : ... .. D ... ...
ROW BA : ... .. A ... ... ... : ... .. . ... ... ... : ... .. . ... : ... .. 6 ... : ... .. . ... ... : ... .. 8 ... ... : ... .. 4 ... ... : ... .. 8 ... ...
ROW BB : ... .. 8 ... ... ... : ... .. 8 ... ... ... : ... .. . ... : ... .. 3 ... : ... .. . ... ... : ... .. 7 ... ... : ... .. . ... ... : ... .. . ... ...
ROW BC : ... .. . ... ... ... : ... .. . ... ... ... : ... .. . ... : ... .. 2 ... : ... .. . ... ... : ... .. . ... ... : B-2 01 6 ... ... : ... .. . ... ...
ROW BD : ... .. . ... ... ... : ... .. . ... ... ... : ... .. . ... : ... .. 0 ... : ... .. . ... ... : ... .. 6 ... ... : ... .. 5 ... ... : ... .. . ... ...
ROW BE : ... .. . ... ... ... : ... .. 9 ... ... ... : ... .. . ... : ... .. . ... : ... .. . ... ... : ... .. 5 ... ... : ... .. 4 ... ... : ... .. . ... ...
ROW BF : ... .. 1 ... ... ... : ... .. 1 ... ... ... : --- .. . ... : ... .. . ... : ... .. . ... ... : ... .. . ... ... : ... .. . ... ... : --- .. . P84 ...
ROW C0 : D#2 00 C ... ... ... : A-4 00 F ... ... ... : G#3 00 . ... : ... .. F ... : ... .. . ... ... : A-3 01 A ... ... : F#3 01 6 ... ... : G#1 01 F P80 ...
ROW C1 : ... .. B ... ... ... : ... .. E ... ... ... : ... .. . ... : ... .. C ... : ... .. . ... ... : ... .. 9 ... ... : ... .. 5 ... ... : ... .. D ... ...
ROW C2 : ... .. A ... ... ... : ... .. D ... ... ... : ... .. . ... : B-# 00 6 ... : ... .. . ... ... : ... .. 8 ... ... : ... .. 4 ... ... : ... .. 8 ... ...
ROW C3 : ... .. 8 ... ... ... : ... .. A ... ... ... : ... .. . ... : ... .. 5 ... : ... .. . ... ... : ... .. 7 ... ... : ... .. . ... ... : ... .. . ... ...
ROW C4 : ... .. . ... ... ... : ... .. . ... ... ... : ... .. . ... : ... .. . ... : ... .. . ... ... : ... .. . ... ... : F-3 01 6 ... ... : ... .. . ... ...
ROW C5 : ... .. . ... ... ... : ... .. . ... ... ... : ... .. . ... : ... .. . ... : ... .. . ... ... : ... .. 6 ... ... : ... .. 5 ... ... : ... .. . ... ...
ROW C6 : ... .. . ... ... ... : ... .. . ... ... ... : ... .. . ... : ... .. 4 ... : ... .. . ... ... : ... .. 5 ... ... : ... .. 4 ... ... : ... .. . ... ...
ROW C7 : ... .. 1 ... ... ... : ... .. . ... ... ... : --- .. . ... : ... .. 3 ... : ... .. . ... ... : ... .. . ... ... : ... .. . ... ... : --- .. . P7E ...
ROW C8 : D-2 00 C ... ... ... : ... .. . ... ... ... : A-2 00 . ... : 1-# 00 F ... : ... .. . ... ... : G#3 01 A ... ... : C-3 01 6 ... ... : A-0 01 F P80 ...
ROW C9 : ... .. B ... ... ... : ... .. . ... ... ... : ... .. . ... : ... .. C ... : ... .. . ... ... : ... .. 9 ... ... : ... .. 5 ... ... : ... .. D ... ...
ROW CA : ... .. A ... ... ... : ... .. . ... ... ... : ... .. . ... : ... .. 6 ... : ... .. . ... ... : ... .. 8 ... ... : ... .. 4 ... ... : ... .. 8 ... ...
ROW CB : ... .. 8 ... ... ... : ... .. . ... ... ... : ... .. . ... : ... .. 3 ... : ... .. . ... ... : ... .. 7 ... ... : ... .. . ... ... : ... .. . ... ...
ROW CC : ... .. . ... ... ... : ... .. . ... ... ... : ... .. . ... : ... .. 2 ... : ... .. . ... ... : ... .. . ... ... : B-2 01 6 ... ... : ... .. . ... ...
ROW CD : ... .. . ... ... ... : ... .. . ... ... ... : ... .. . ... : ... .. 0 ... : ... .. . ... ... : ... .. 6 ... ... : ... .. 5 ... ... : ... .. . ... ...
ROW CE : ... .. . ... ... ... : ... .. . ... ... ... : ... .. . ... : ... .. . ... : ... .. . ... ... : ... .. 5 ... ... : ... .. 4 ... ... : ... .. . ... ...
ROW CF : ... .. 1 ... ... ... : ... .. . ... ... ... : --- .. . ... : ... .. . ... : ... .. . ... ... : ... .. . ... ... : ... .. . ... ... : --- .. . ... ...
ROW D0 : G#1 00 C ... ... ... : A#4 00 A P7D ... ... : F#2 00 . ... : 5-# 00 F ... : ... .. . ... ... : D-3 01 A ... ... : F#3 01 6 ... ... : F#0 01 F ... ...
ROW D1 : ... .. B ... ... ... : ... .. . P7F ... ... : ... .. . ... : ... .. C ... : ... .. . ... ... : ... .. 9 ... ... : ... .. 5 ... ... : ... .. D ... ...
ROW D2 : ... .. A ... ... ... : ... .. . P7E ... ... : ... .. . ... : B-# 00 6 ... : ... .. . ... ... : ... .. 8 ... ... : ... .. 4 ... ... : ... .. 8 ... ...
ROW D3 : ... .. 8 ... ... ... : A-4 00 A P82 ... ... : ... .. . ... : ... .. 5 ... : ... .. . ... ... : ... .. 7 ... ... : ... .. . ... ... : ... .. . ... ...
ROW D4 : ... .. . ... ... ... : ... .. . P7E ... ... : ... .. . ... : ... .. . ... : ... .. . ... ... : ... .. . ... ... : F-3 01 6 ... ... : ... .. . ... ...
ROW D5 : ... .. . ... ... ... : G#4 00 A P83 ... ... : ... .. . ... : ... .. . ... : ... .. . ... ... : ... .. 6 ... ... : ... .. 5 ... ... : ... .. . ... ...
ROW D6 : ... .. . ... ... ... : ... .. . P82 ... ... : ... .. . ... : ... .. 4 ... : ... .. . ... ... : ... .. 5 ... ... : ... .. 4 ... ... : ... .. . ... ...
ROW D7 : ... .. 1 ... ... ... : ... .. . P84 ... ... : --- .. . ... : ... .. 3 ... : ... .. . ... ... : ... .. . ... ... : ... .. . ... ... : --- .. . P81 ...
ROW D8 : F#2 00 C ... ... ... : A-4 00 A P80 ... ... : G#2 00 . ... : 1-# 00 F ... : ... .. . ... ... : C-4 01 A ... ... : C-3 01 6 ... ... : G#0 01 F P80 ...
ROW D9 : ... .. B ... ... ... : ... .. . P83 ... ... : ... .. . ... : ... .. C ... : ... .. . ... ... : ... .. 9 ... ... : ... .. 5 ... ... : ... .. D ... ...
ROW DA : ... .. A ... ... ... : A#4 00 A P7F ... ... : ... .. . ... : ... .. 6 ... : ... .. . ... ... : ... .. 8 ... ... : ... .. 4 ... ... : ... .. 8 ... ...
ROW DB : ... .. 8 ... ... ... : ... .. . ... ... ... : ... .. . ... : ... .. 3 ... : ... .. . ... ... : ... .. 7 ... ... : ... .. . ... ... : ... .. . ... ...
ROW DC : ... .. . ... ... ... : A-4 00 A P82 ... ... : ... .. . ... : ... .. 2 ... : ... .. . ... ... : ... .. . ... ... : B-2 01 6 ... ... : ... .. . ... ...
ROW DD : ... .. . ... ... ... : ... .. . P7F ... ... : ... .. . ... : ... .. 0 ... : ... .. . ... ... : ... .. 6 ... ... : ... .. 5 ... ... : ... .. . ... ...
ROW DE : ... .. . ... ... ... : G#4 00 A P83 ... ... : ... .. . ... : ... .. . ... : ... .. . ... ... : ... .. 5 ... ... : ... .. 4 ... ... : ... .. . ... ...
ROW DF : ... .. 1 ... ... ... : ... .. . P82 ... ... : --- .. . ... : ... .. . ... : ... .. . ... ... : ... .. . ... ... : ... .. . ... ... : --- .. . P84 ...
ROW E0 : F-2 00 C ... ... ... : ... .. . P84 ... ... : G#2 00 . ... : ... .. F ... : ... .. . ... ... : B-3 01 A ... ... : F#3 01 6 ... ... : G#0 01 F P80 ...
ROW E1 : ... .. B ... ... ... : A-4 00 A P80 ... ... : ... .. . ... : ... .. C ... : ... .. . ... ... : ... .. 9 ... ... : ... .. 5 ... ... : ... .. D ... ...
ROW E2 : ... .. A ... ... ... : ... .. . P83 ... ... : ... .. . ... : B-# 00 6 ... : ... .. . ... ... : ... .. 8 ... ... : ... .. 4 ... ... : ... .. 8 ... ...
ROW E3 : ... .. 8 ... ... ... : A#4 00 A P7F ... ... : ... .. . ... : ... .. 5 ... : ... .. . ... ... : ... .. 7 ... ... : ... .. . ... ... : ... .. . ... ...
ROW E4 : ... .. . ... ... ... : ... .. . ... ... ... : ... .. . ... : ... .. . ... : ... .. . ... ... : ... .. . ... ... : F-3 01 6 ... ... : ... .. . ... ...
ROW E5 : ... .. . ... ... ... : A-4 00 A P83 ... ... : ... .. . ... : ... .. . ... : ... .. . ... ... : ... .. 6 ... ... : ... .. 5 ... ... : ... .. . ... ...
ROW E6 : ... .. . ... ... ... : ... .. . P80 ... ... : ... .. . ... : ... .. 4 ... : ... .. . ... ... : ... .. 5 ... ... : ... .. 4 ... ... : ... .. . ... ...
ROW E7 : ... .. 1 ... ... ... : G#4 00 A P84 ... ... : --- .. . ... : ... .. 3 ... : ... .. . ... ... : ... .. . ... ... : ... .. . ... ... : --- .. . P84 ...
ROW E8 : G#1 00 C ... ... ... : ... .. F P80 ... ... : A-2 00 . ... : 1-# 00 F ... : ... .. . ... ... : D-3 01 A ... ... : C-3 01 6 ... ... : A-0 01 F P80 ...
ROW E9 : ... .. B ... ... ... : ... .. E ... ... ... : ... .. . ... : ... .. C ... : ... .. . ... ... : ... .. 9 ... ... : ... .. 5 ... ... : ... .. D ... ...
ROW EA : ... .. A ... ... ... : ... .. D ... ... ... : ... .. . ... : ... .. 6 ... : ... .. . ... ... : ... .. 8 ... ... : ... .. 4 ... ... : ... .. 8 ... ...
ROW EB : ... .. 8 ... ... ... : ... .. A ... ... ... : ... .. . ... : ... .. 3 ... : ... .. . ... ... : ... .. 7 ... ... : ... .. . ... ... : ... .. . ... ...
ROW EC : ... .. . ... ... ... : ... .. . ... ... ... : ... .. . ... : ... .. 2 ... : ... .. . ... ... : ... .. . ... ... : B-2 01 6 ... ... : ... .. . ... ...
ROW ED : ... .. . ... ... ... : ... .. . ... ... ... : ... .. . ... : ... .. 0 ... : ... .. . ... ... : ... .. 6 ... ... : ... .. 5 ... ... : ... .. . ... ...
ROW EE : ... .. . ... ... ... : ... .. . ... ... ... : ... .. . ... : ... .. . ... : ... .. . ... ... : ... .. 5 ... ... : ... .. 4 ... ... : ... .. . ... ...
ROW EF : ... .. 1 ... ... ... : ... .. 2 ... ... ... : --- .. . ... : ... .. . ... : ... .. . ... ... : ... .. . ... ... : ... .. . ... ... : --- .. . ... ...
ROW F0 : D#2 00 C ... ... ... : D#4 00 F ... ... ... : F#2 00 . ... : 5-# 00 F ... : ... .. . ... ... : A-3 01 A ... ... : F#3 01 6 ... ... : F#0 01 F ... ...
ROW F1 : ... .. B ... ... ... : ... .. E ... ... ... : ... .. . ... : ... .. C ... : ... .. . ... ... : ... .. 9 ... ... : ... .. 5 ... ... : ... .. D ... ...
ROW F2 : ... .. A ... ... ... : ... .. D ... ... ... : ... .. . ... : B-# 00 6 ... : ... .. . ... ... : ... .. 8 ... ... : ... .. 4 ... ... : ... .. 8 ... ...
ROW F3 : ... .. 8 ... ... ... : ... .. A ... ... ... : ... .. . ... : ... .. 5 ... : ... .. . ... ... : ... .. 7 ... ... : ... .. . ... ... : ... .. . ... ...
ROW F4 : ... .. . ... ... ... : ... .. . ... ... ... : ... .. . ... : ... .. . ... : ... .. . ... ... : ... .. . ... ... : F-3 01 6 ... ... : ... .. . ... ...
ROW F5 : ... .. . ... ... ... : ... .. . ... ... ... : ... .. . ... : ... .. . ... : ... .. . ... ... : ... .. 6 ... ... : ... .. 5 ... ... : ... .. . ... ...
ROW F6 : ... .. . ... ... ... : ... .. . ... ... ... : ... .. . ... : ... .. 4 ... : ... .. . ... ... : ... .. 5 ... ... : ... .. 4 ... ... : ... .. . ... ...
ROW F7 : ... .. 1 ... ... ... : ... .. . ... ... ... : --- .. . ... : ... .. 3 ... : ... .. . ... ... : ... .. . ... ... : ... .. . ... ... : --- .. . P81 ...
ROW F8 : D-2 00 C ... ... ... : D-4 00 F ... ... ... : G#2 00 . ... : 1-# 00 F ... : ... .. . ... ... : G#3 01 A ... ... : C-3 01 6 ... ... : G#0 01 F P80 ...
ROW F9 : ... .. B ... ... ... : ... .. E ... ... ... : ... .. . ... : ... .. C ... : ... .. . ... ... : ... .. 9 ... ... : ... .. 5 ... ... : ... .. D ... ...
ROW FA : ... .. A ... ... ... : ... .. D ... ... ... : ... .. . ... : ... .. 6 ... : ... .. . ... ... : ... .. 8 ... ... : ... .. 4 ... ... : ... .. 8 ... ...
ROW FB : ... .. 8 ... ... ... : ... .. A ... ... ... : ... .. . ... : ... .. 3 ... : ... .. . ... ... : ... .. 7 ... ... : ... .. . ... ... : ... .. . ... ...
ROW FC : ... .. . ... ... ... : ... .. . ... ... ... : ... .. . ... : ... .. 2 ... : ... .. . ... ... : ... .. . ... ... : B-2 01 6 ... ... : ... .. . ... ...
ROW FD : ... .. . ... ... ... : ... .. 2 ... ... ... : ... .. . ... : ... .. 0 ... : ... .. . ... ... : ... .. 6 ... ... : ... .. 5 ... ... : ... .. . ... ...
ROW FE : ... .. . ... ... ... : ... .. . ... ... ... : ... .. . ... : ... .. . ... : ... .. . ... ... : ... .. 5 ... ... : ... .. 4 ... ... : ... .. . ... ...
ROW FF : ... .. 1 ... ... ... : ... .. . ... ... ... : --- .. . ... : ... .. . ... : ... .. . ... ... : ... .. . ... ... : ... .. . ... ... : --- .. . P84 ...

PATTERN 07
ROW 00 : B-3 00 C ... ... ... : G#3 00 F ... ... ... : A#4 00 . ... : ... .. F ... : ... .. . ... ... : F-5 01 A ... ... : F#3 01 6 ... ... : B-0 01 F P80 ...
ROW 01 : ... .. B ... ... ... : ... .. E ... ... ... : C-4 00 . ... : ... .. C ... : ... .. . ... ... : ... .. 9 ... ... : ... .. 5 ... ... : ... .. D ... ...
ROW 02 : ... .. A ... ... ... : ... .. D ... ... ... : F-3 00 . ... : B-# 00 6 ... : ... .. . ... ... : ... .. 8 ... ... : ... .. 4 ... ... : ... .. 8 ... ...
ROW 03 : ... .. 8 ... ... ... : ... .. A ... ... ... : E-3 00 . ... : ... .. 5 ... : ... .. . ... ... : ... .. 7 ... ... : ... .. . ... ... : ... .. . ... ...
ROW 04 : F#3 00 C ... ... ... : ... .. . ... ... ... : B-2 00 . ... : ... .. . ... : ... .. . ... ... : C-5 01 A ... ... : F-3 01 6 ... ... : ... .. . ... ...
ROW 05 : ... .. B ... ... ... : ... .. . ... ... ... : ... .. . ... : ... .. . ... : ... .. . ... ... : ... .. 9 ... ... : ... .. 5 ... ... : ... .. . ... ...
ROW 06 : ... .. 8 ... ... ... : ... .. . ... ... ... : ... .. . ... : ... .. 4 ... : ... .. . ... ... : ... .. 5 ... ... : ... .. 4 ... ... : ... .. . ... ...
ROW 07 : ... .. 1 ... ... ... : ... .. . ... ... ... : ... .. . ... : ... .. 3 ... : ... .. . ... ... : ... .. . ... ... : ... .. . ... ... : ... .. . ... ...
ROW 08 : D-3 00 C ... ... ... : A-3 00 F ... ... ... : A#2 00 . P7B : 1-# 00 F ... : ... .. . ... ... : G#4 01 A ... ... : C-3 01 6 ... ... : ... .. . P60 ...
ROW 09 : ... .. B ... ... ... : ... .. E ... ... ... : A-2 00 . P77 : ... .. C ... : ... .. . ... ... : ... .. 9 ... ... : ... .. 5 ... ... : A#0 01 8 PBB ...
ROW 0A : ... .. 8 ... ... ... : ... .. D ... ... ... : G#2 00 . P76 : ... .. 6 ... : ... .. . ... ... : ... .. 5 ... ... : ... .. 4 ... ... : ... .. . P9B ...
ROW 0B : ... .. 1 ... ... ... : ... .. A ... ... ... : G-2 00 . ... : ... .. 3 ... : ... .. . ... ... : ... .. . ... ... : ... .. . ... ... : ... .. . P7B ...
ROW 0C : B-2 00 C ... ... ... : ... .. . ... ... ... : F#2 00 . P78 : ... .. F ... : ... .. . ... ... : F-4 01 A ... ... : B-2 01 6 ... ... : ... .. . P5B ...
ROW 0D : ... .. B ... ... ... : ... .. . ... ... ... : F-2 00 . P7C : ... .. C ... : ... .. . ... ... : ... .. 9 ... ... : ... .. 5 ... ... : A-0 01 8 PBD ...
ROW 0E : ... .. 8 ... ... ... : ... .. . ... ... ... : E-2 00 . P82 : ... .. 6 ... : ... .. . ... ... : ... .. 5 ... ... : ... .. 4 ... ... : ... .. . P9D ...
ROW 0F : ... .. 1 ... ... ... : ... .. 2 ... ... ... : D#2 00 . P8A : ... .. 3 ... : ... .. . ... ... : ... .. . ... ... : ... .. . ... ... : ... .. . P7D ...
ROW 10 : F#2 00 C ... ... ... : A-4 00 F ... ... ... : F-4 00 . P80 : 5-# 00 F ... : ... .. . ... ... : C-4 01 A ... ... : F#3 01 6 ... ... : F#0 01 F P80 ...
ROW 11 : ... .. B ... ... ... : ... .. E ... ... ... : G-3 00 . ... : ... .. C ... : ... .. . ... ... : ... .. 9 ... ... : ... .. 5 ... ... : ... .. D ... ...
ROW 12 : ... .. A ... ... ... : ... .. D ... ... ... : C-3 00 . ... : B-# 00 6 ... : ... .. . ... ... : ... .. 8 ... ... : ... .. 4 ... ... : ... .. 8 ... ...
ROW 13 : ... .. 8 ... ... ... : ... .. A P83 ... ... : B-2 00 . ... : ... .. 5 ... : ... .. . ... ... : ... .. 7 ... ... : ... .. . ... ... : ... .. . ... ...
ROW 14 : D-2 00 C ... ... ... : A#4 00 A P7F ... ... : F#2 00 . ... : ... .. . ... : ... .. . ... ... : G#3 01 A ... ... : F-3 01 6 ... ... : ... .. . ... ...
ROW 15 : ... .. B ... ... ... : ... .. . P82 ... ... : ... .. . ... : ... .. . ... : ... .. . ... ... : ... .. 9 ... ... : ... .. 5 ... ... : ... .. . ... ...
ROW 16 : ... .. 8 ... ... ... : B-4 00 A P7E ... ... : ... .. . ... : ... .. 4 ... : ... .. . ... ... : ... .. 5 ... ... : ... .. 4 ... ... : ... .. . ... ...
ROW 17 : ... .. 1 ... ... ... : ... .. . P80 ... ... : ... .. . ... : ... .. 3 ... : ... .. . ... ... : ... .. . ... ... : ... .. . ... ... : ... .. . ... ...
ROW 18 : B-1 00 C ... ... ... : ... .. . ... ... ... : F-2 00 . P84 : C-# 00 F ... : ... .. . ... ... : F-3 01 A ... ... : C-3 01 6 ... ... : ... .. . P60 ...
ROW 19 : ... .. B ... ... ... : ... .. . ... ... ... : E-2 00 . P8A : ... .. C ... : ... .. . ... ... : ... .. 9 ... ... : ... .. 5 ... ... : ... .. . P40 ...
ROW 1A : ... .. 8 ... ... ... : ... .. . ... ... ... : D#2 00 . P92 : ... .. 6 ... : ... .. . ... ... : ... .. 5 ... ... : ... .. 4 ... ... : F-0 01 8 PC5 ...
ROW 1B : ... .. 1 ... ... ... : ... .. . ... ... ... : ... .. . P72 : ... .. 3 ... : ... .. . ... ... : ... .. . ... ... : ... .. . ... ... : ... .. . PA5 ...
ROW 1C : F#1 00 C ... ... ... : ... .. . ... ... ... : D-2 00 . P7D : ... .. F ... : ... .. . ... ... : C-3 01 A ... ... : B-2 01 6 ... ... : ... .. . P85 ...
ROW 1D : ... .. B ... ... ... : ... .. . ... ... ... : C#2 00 . P8A : ... .. C ... : ... .. . ... ... : ... .. 9 ... ... : ... .. 5 ... ... : ... .. . P65 ...
ROW 1E : ... .. 8 ... ... ... : ... .. . ... ... ... : ... .. . P6A : ... .. 6 ... : ... .. . ... ... : ... .. 5 ... ... : ... .. 4 ... ... : ... .. . P45 ...
ROW 1F : ... .. 1 ... ... ... : ... .. . ... ... ... : C-2 00 . P7A : ... .. 3 ... : ... .. . ... ... : ... .. . ... ... : ... .. . ... ... : E-0 01 8 PD3 ...
ROW 20 : G#1 00 C ... ... ... : C-5 00 A P7E ... ... : G-4 00 . P80 : 1-# 00 F ... : ... .. . ... ... : D-3 01 A ... ... : F#3 01 6 ... ... : G#0 01 F P80 ...
ROW 21 : ... .. B ... ... ... : ... .. . P80 ... ... : A-3 00 . ... : ... .. C ... : ... .. . ... ... : ... .. 9 ... ... : ... .. 5 ... ... : ... .. D ... ...
ROW 22 : ... .. A ... ... ... : ... .. . P7F ... ... : D-3 00 . ... : B-# 00 6 ... : ... .. . ... ... : ... .. 8 ... ... : ... .. 4 ... ... : ... .. 8 ... ...
ROW 23 : ... .. 8 ... ... ... : B-4 00 A P82 ... ... : C#3 00 . ... : ... .. 5 ... : ... .. . ... ... : ... .. 7 ... ... : ... .. . ... ... : ... .. . ... ...
ROW 24 : ... .. C ... ... ... : ... .. . P7E ... ... : G#2 00 . ... : ... .. . ... : ... .. . ... ... : ... .. A ... ... : F-3 01 6 ... ... : ... .. . ... ...
ROW 25 : ... .. B ... ... ... : A#4 00 A P82 ... ... : ... .. . ... : ... .. . ... : ... .. . ... ... : ... .. 9 ... ... : ... .. 5 ... ... : ... .. . ... ...
ROW 26 : ... .. A ... ... ... : ... .. . P81 ... ... : ... .. . ... : ... .. 4 ... : ... .. . ... ... : ... .. 8 ... ... : ... .. 4 ... ... : ... .. . ... ...
ROW 27 : ... .. 8 ... ... ... : ... .. . P83 ... ... : --- .. . ... : ... .. 3 ... : ... .. . ... ... : ... .. 7 ... ... : ... .. . ... ... : --- .. . P84 ...
ROW 28 : F#2 00 C ... ... ... : B-4 00 A P80 ... ... : A-2 00 . ... : 1-# 00 F ... : ... .. . ... ... : C-4 01 A ... ... : C-3 01 6 ... ... : A-0 01 F P80 ...
ROW 29 : ... .. B ... ... ... : ... .. . P83 ... ... : ... .. . ... : ... .. C ... : ... .. . ... ... : ... .. 9 ... ... : ... .. 5 ... ... : ... .. D ... ...
ROW 2A : ... .. A ... ... ... : C-5 00 A P80 ... ... : ... .. . ... : ... .. 6 ... : ... .. . ... ... : ... .. 8 ... ... : ... .. 4 ... ... : ... .. 8 ... ...
ROW 2B : ... .. 8 ... ... ... : ... .. . ... ... ... : ... .. . ... : ... .. 3 ... : ... .. . ... ... : ... .. 7 ... ... : ... .. . ... ... : ... .. . ... ...
ROW 2C : ... .. . ... ... ... : B-4 00 A P82 ... ... : ... .. . ... : ... .. 2 ... : ... .. . ... ... : ... .. . ... ... : B-2 01 6 ... ... : ... .. . ... ...
ROW 2D : ... .. . ... ... ... : ... .. . P7F ... ... : ... .. . ... : ... .. 0 ... : ... .. . ... ... : ... .. 6 ... ... : ... .. 5 ... ... : ... .. . ... ...
ROW 2E : ... .. . ... ... ... : A#4 00 A P82 ... ... : ... .. . ... : ... .. . ... : ... .. . ... ... : ... .. . ... ... : ... .. 4 ... ... : ... .. . ... ...
ROW 2F : ... .. . ... ... ... : ... .. . P81 ... ... : --- .. . ... : ... .. . ... : ... .. . ... ... : ... .. 5 ... ... : ... .. . ... ... : --- .. . ... ...
ROW 30 : F-2 00 C ... ... ... : ... .. . P83 ... ... : F#2 00 . ... : 5-# 00 F ... : ... .. . ... ... : B-3 01 A ... ... : F#3 01 6 ... ... : F#0 01 F ... ...
ROW 31 : ... .. B ... ... ... : B-4 00 A P80 ... ... : ... .. . ... : ... .. C ... : ... .. . ... ... : ... .. 9 ... ... : ... .. 5 ... ... : ... .. D ... ...
ROW 32 : ... .. A ... ... ... : ... .. . P83 ... ... : ... .. . ... : B-# 00 6 ... : ... .. . ... ... : ... .. 8 ... ... : ... .. 4 ... ... : ... .. 8 ... ...
ROW 33 : ... .. 8 ... ... ... : C-5 00 A P80 ... ... : ... .. . ... : ... .. 5 ... : ... .. . ... ... : ... .. 7 ... ... : ... .. . ... ... : ... .. . ... ...
ROW 34 : ... .. . ... ... ... : ... .. . ... ... ... : ... .. . ... : ... .. . ... : ... .. . ... ... : ... .. . ... ... : F-3 01 6 ... ... : ... .. . ... ...
ROW 35 : ... .. . ... ... ... : B-4 00 2 P83 ... ... : ... .. . ... : ... .. . ... : ... .. . ... ... : ... .. 6 ... ... : ... .. 5 ... ... : ... .. . ... ...
ROW 36 : ... .. . ... ... ... : ... .. . P80 ... ... : ... .. . ... : ... .. 4 ... : ... .. . ... ... : ... .. . ... ... : ... .. 4 ... ... : ... .. . ... ...
ROW 37 : ... .. . ... ... ... : A#4 00 2 P83 ... ... : --- .. . ... : ... .. 3 ... : ... .. . ... ... : ... .. 5 ... ... : ... .. . ... ... : --- .. . P81 ...
ROW 38 : G#1 00 C ... ... ... : G#4 00 F P80 ... ... : G#2 00 . ... : 1-# 00 F ... : ... .. . ... ... : D-3 01 A ... ... : C-3 01 6 ... ... : G#0 01 F P80 ...
ROW 39 : ... .. B ... ... ... : ... .. E ... ... ... : ... .. . ... : ... .. C ... : ... .. . ... ... : ... .. 9 ... ... : ... .. 5 ... ... : ... .. D ... ...
ROW 3A : ... .. 8 ... ... ... : ... .. A ... ... ... : ... .. . ... : ... .. 6 ... : ... .. . ... ... : ... .. 5 ... ... : ... .. 4 ... ... : ... .. 8 ... ...
ROW 3B : ... .. 1 ... ... ... : ... .. 2 ... ... ... : ... .. . ... : ... .. 3 ... : ... .. . ... ... : ... .. . ... ... : ... .. . ... ... : ... .. . ... ...
ROW 3C : ... .. C ... ... ... : A-4 00 F ... ... ... : ... .. . ... : ... .. 2 ... : ... .. . ... ... : ... .. A ... ... : B-2 01 6 ... ... : ... .. . ... ...
ROW 3D : ... .. B ... ... ... : ... .. E ... ... ... : ... .. . ... : ... .. 0 ... : ... .. . ... ... : ... .. 9 ... ... : ... .. 5 ... ... : ... .. . ... ...
ROW 3E : ... .. 8 ... ... ... : ... .. D ... ... ... : ... .. . ... : ... .. . ... : ... .. . ... ... : ... .. 5 ... ... : ... .. 4 ... ... : ... .. . ... ...
ROW 3F : ... .. 1 ... ... ... : ... .. A ... ... ... : --- .. . ... : ... .. . ... : ... .. . ... ... : ... .. . ... ... : ... .. . ... ... : --- .. . P84 ...
ROW 40 : D#2 00 C ... ... ... : ... .. . ... ... ... : G#3 00 . ... : ... .. F ... : ... .. . ... ... : A-3 01 A ... ... : F#3 01 6 ... ... : G#1 01 F P80 ...
ROW 41 : ... .. B ... ... ... : B-4 00 A P81 ... ... : ... .. . ... : ... .. C ... : ... .. . ... ... : ... .. 9 ... ... : ... .. 5 ... ... : ... .. D ... ...
ROW 42 : ... .. A ... ... ... : D-5 00 A P7E ... ... : ... .. . ... : B-# 00 6 ... : ... .. . ... ... : ... .. 8 ... ... : ... .. 4 ... ... : ... .. 8 ... ...
ROW 43 : ... .. 8 ... ... ... : ... .. . P80 ... ... : ... .. . ... : ... .. 5 ... : ... .. . ... ... : ... .. 7 ... ... : ... .. . ... ... : ... .. . ... ...
ROW 44 : ... .. . ... ... ... : ... .. . ... ... ... : ... .. . ... : ... .. . ... : ... .. . ... ... : ... .. . ... ... : F-3 01 6 ... ... : ... .. . ... ...
ROW 45 : ... .. . ... ... ... : ... .. . ... ... ... : ... .. . ... : ... .. . ... : ... .. . ... ... : ... .. 6 ... ... : ... .. 5 ... ... : ... .. . ... ...
ROW 46 : ... .. . ... ... ... : ... .. . ... ... ... : ... .. . ... : ... .. 4 ... : ... .. . ... ... : ... .. 5 ... ... : ... .. 4 ... ... : ... .. . ... ...
ROW 47 : ... .. 1 ... ... ... : ... .. . ... ... ... : --- .. . ... : ... .. 3 ... : ... .. . ... ... : ... .. . ... ... : ... .. . ... ... : --- .. . P7E ...
ROW 48 : D-2 00 C ... ... ... : ... .. . ... ... ... : A-2 00 . ... : 1-# 00 F ... : ... .. . ... ... : G#3 01 A ... ... : C-3 01 6 ... ... : A-0 01 F P80 ...
ROW 49 : ... .. B ... ... ... : ... .. . ... ... ... : ... .. . ... : ... .. C ... : ... .. . ... ... : ... .. 9 ... ... : ... .. 5 ... ... : ... .. D ... ...
ROW 4A : ... .. A ... ... ... : ... .. . ... ... ... : ... .. . ... : ... .. 6 ... : ... .. . ... ... : ... .. 8 ... ... : ... .. 4 ... ... : ... .. 8 ... ...
ROW 4B : ... .. 8 ... ... ... : ... .. . ... ... ... : ... .. . ... : ... .. 3 ... : ... .. . ... ... : ... .. 7 ... ... : ... .. . ... ... : ... .. . ... ...
ROW 4C : ... .. . ... ... ... : ... .. . ... ... ... : ... .. . ... : ... .. 2 ... : ... .. . ... ... : ... .. . ... ... : B-2 01 6 ... ... : ... .. . ... ...
ROW 4D : ... .. . ... ... ... : ... .. . ... ... ... : ... .. . ... : ... .. 0 ... : ... .. . ... ... : ... .. 6 ... ... : ... .. 5 ... ... : ... .. . ... ...
ROW 4E : ... .. . ... ... ... : ... .. . ... ... ... : ... .. . ... : ... .. . ... : ... .. . ... ... : ... .. 5 ... ... : ... .. 4 ... ... : ... .. . ... ...
ROW 4F : ... .. 1 ... ... ... : ... .. . ... ... ... : --- .. . ... : ... .. . ... : ... .. . ... ... : ... .. . ... ... : ... .. . ... ... : --- .. . ... ...
ROW 50 : G#1 00 C ... ... ... : ... .. . ... ... ... : F#2 00 . ... : 5-# 00 F ... : ... .. . ... ... : D-3 01 A ... ... : F#3 01 6 ... ... : F#0 01 F ... ...
ROW 51 : ... .. B ... ... ... : ... .. . ... ... ... : ... .. . ... : ... .. C ... : ... .. . ... ... : ... .. 9 ... ... : ... .. 5 ... ... : ... .. D ... ...
ROW 52 : ... .. 8 ... ... ... : ... .. . ... ... ... : ... .. . ... : B-# 00 6 ... : ... .. . ... ... : ... .. 5 ... ... : ... .. 4 ... ... : ... .. 8 ... ...
ROW 53 : ... .. 1 ... ... ... : ... .. . ... ... ... : ... .. . ... : ... .. 5 ... : ... .. . ... ... : ... .. . ... ... : ... .. . ... ... : ... .. . ... ...
ROW 54 : ... .. C ... ... ... : ... .. . ... ... ... : ... .. . ... : ... .. . ... : ... .. . ... ... : ... .. A ... ... : F-3 01 6 ... ... : ... .. . ... ...
ROW 55 : ... .. B ... ... ... : ... .. . ... ... ... : ... .. . ... : ... .. . ... : ... .. . ... ... : ... .. 9 ... ... : ... .. 5 ... ... : ... .. . ... ...
ROW 56 : ... .. 8 ... ... ... : D#5 00 A P7F ... ... : ... .. . ... : ... .. 4 ... : ... .. . ... ... : ... .. 5 ... ... : ... .. 4 ... ... : ... .. . ... ...
ROW 57 : ... .. 1 ... ... ... : ... .. . P81 ... ... : --- .. . ... : ... .. 3 ... : ... .. . ... ... : ... .. . ... ... : ... .. . ... ... : --- .. . P81 ...
ROW 58 : F#2 00 C ... ... ... : ... .. . P80 ... ... : G#2 00 . ... : 1-# 00 F ... : ... .. . ... ... : C-4 01 A ... ... : C-3 01 6 ... ... : G#0 01 F P80 ...
ROW 59 : ... .. B ... ... ... : D-5 00 A P82 ... ... : ... .. . ... : ... .. C ... : ... .. . ... ... : ... .. 9 ... ... : ... .. 5 ... ... : ... .. D ... ...
ROW 5A : ... .. A ... ... ... : ... .. . P7E ... ... : ... .. . ... : ... .. 6 ... : ... .. . ... ... : ... .. 8 ... ... : ... .. 4 ... ... : ... .. 8 ... ...
ROW 5B : ... .. 8 ... ... ... : C#5 00 A P81 ... ... : ... .. . ... : ... .. 3 ... : ... .. . ... ... : ... .. 7 ... ... : ... .. . ... ... : ... .. . ... ...
ROW 5C : ... .. . ... ... ... : ... .. . P80 ... ... : ... .. . ... : ... .. 2 ... : ... .. . ... ... : ... .. . ... ... : B-2 01 6 ... ... : ... .. . ... ...
ROW 5D : ... .. . ... ... ... : ... .. . P82 ... ... : ... .. . ... : ... .. 0 ... : ... .. . ... ... : ... .. 6 ... ... : ... .. 5 ... ... : ... .. . ... ...
ROW 5E : ... .. . ... ... ... : D-5 00 A P80 ... ... : ... .. . ... : ... .. . ... : ... .. . ... ... : ... .. 5 ... ... : ... .. 4 ... ... : ... .. . ... ...
ROW 5F : ... .. 1 ... ... ... : D#5 00 A P7E ... ... : --- .. . ... : ... .. . ... : ... .. . ... ... : ... .. . ... ... : ... .. . ... ... : --- .. . P84 ...
ROW 60 : D-2 00 C ... ... ... : ... .. . P81 ... ... : D-2 00 . ... : ... .. F ... : ... .. . ... ... : G#3 01 A ... ... : F#3 01 6 ... ... : D-0 01 F P80 ...
ROW 61 : ... .. B ... ... ... : ... .. . ... ... ... : ... .. . ... : ... .. C ... : ... .. . ... ... : ... .. 9 ... ... : ... .. 5 ... ... : ... .. D ... ...
ROW 62 : ... .. A ... ... ... : D-5 00 A P82 ... ... : ... .. . ... : B-# 00 6 ... : ... .. . ... ... : ... .. 8 ... ... : ... .. 4 ... ... : ... .. 8 ... ...
ROW 63 : ... .. 8 ... ... ... : ... .. . P7F ... ... : ... .. . ... : ... .. 5 ... : ... .. . ... ... : ... .. 7 ... ... : ... .. . ... ... : ... .. . ... ...
ROW 64 : ... .. . ... ... ... : C#5 00 A P81 ... ... : ... .. . ... : ... .. . ... : ... .. . ... ... : ... .. . ... ... : F-3 01 6 ... ... : ... .. . ... ...
ROW 65 : ... .. . ... ... ... : ... .. . P80 ... ... : ... .. . ... : ... .. . ... : ... .. . ... ... : ... .. 6 ... ... : ... .. 5 ... ... : ... .. . ... ...
ROW 66 : ... .. . ... ... ... : ... .. . P82 ... ... : ... .. . ... : ... .. 4 ... : ... .. . ... ... : ... .. 5 ... ... : ... .. 4 ... ... : ... .. . ... ...
ROW 67 : ... .. 1 ... ... ... : D-5 00 A P80 ... ... : --- .. . ... : ... .. 3 ... : ... .. . ... ... : ... .. . ... ... : ... .. . ... ... : --- .. . P7F ...
ROW 68 : A-2 00 C ... ... ... : G#4 00 F ... ... ... : A-2 00 . ... : 1-# 00 F ... : ... .. . ... ... : D#4 01 A ... ... : C-3 01 6 ... ... : A-0 01 F P80 ...
ROW 69 : ... .. B ... ... ... : ... .. E ... ... ... : ... .. . ... : ... .. C ... : ... .. . ... ... : ... .. 9 ... ... : ... .. 5 ... ... : ... .. D ... ...
ROW 6A : ... .. A ... ... ... : ... .. A ... ... ... : ... .. . ... : ... .. 6 ... : ... .. . ... ... : ... .. 8 ... ... : ... .. 4 ... ... : ... .. 8 ... ...
ROW 6B : ... .. 8 ... ... ... : ... .. 2 ... ... ... : ... .. . ... : ... .. 3 ... : ... .. . ... ... : ... .. 7 ... ... : ... .. . ... ... : ... .. . ... ...
ROW 6C : ... .. C ... ... ... : A-4 00 F ... ... ... : ... .. . ... : ... .. 2 ... : ... .. . ... ... : ... .. A ... ... : B-2 01 6 ... ... : ... .. . ... ...
ROW 6D : ... .. B ... ... ... : ... .. E ... ... ... : ... .. . ... : ... .. 0 ... : ... .. . ... ... : ... .. 9 ... ... : ... .. 5 ... ... : ... .. . ... ...
ROW 6E : ... .. A ... ... ... : ... .. A ... ... ... : ... .. . ... : ... .. . ... : ... .. . ... ... : ... .. 8 ... ... : ... .. 4 ... ... : ... .. . ... ...
ROW 6F : ... .. 0 ... ... ... : ... .. 2 ... ... ... : --- .. . ... : ... .. . ... : ... .. . ... ... : --- .. . ... ... : ... .. . ... ... : --- .. . ... ...
ROW 70 : G-2 00 C P80 ... ... : F#5 00 F ... ... ... : G#2 00 . ... : 8-# 00 F ... : ... .. . ... ... : C#4 01 A ... ... : F#3 01 6 ... ... : G#0 01 F ... ...
ROW 71 : ... .. B ... ... ... : ... .. E ... ... ... : ... .. . ... : ... .. C ... : ... .. . ... ... : ... .. 9 ... ... : ... .. 5 ... ... : ... .. D ... ...
ROW 72 : ... .. A ... ... ... : ... .. D ... ... ... : ... .. . ... : ... .. 6 ... : ... .. . ... ... : ... .. 8 ... ... : ... .. 4 ... ... : ... .. 8 ... ...
ROW 73 : ... .. 0 ... ... ... : G-5 00 A P7E ... ... : ... .. . ... : ... .. 3 ... : ... .. . ... ... : --- .. . ... ... : ... .. . ... ... : ... .. . ... ...
ROW 74 : G-2 00 C P80 ... ... : ... .. . P81 ... ... : ... .. . ... : ... .. F ... : ... .. . ... ... : C#4 01 A ... ... : F-3 01 6 ... ... : ... .. . ... ...
ROW 75 : ... .. B ... ... ... : G#5 00 A P80 ... ... : ... .. . ... : ... .. C ... : ... .. . ... ... : ... .. 9 ... ... : ... .. 5 ... ... : ... .. . ... ...
ROW 76 : ... .. A ... ... ... : ... .. . ... ... ... : ... .. . ... : ... .. 6 ... : ... .. . ... ... : ... .. 8 ... ... : ... .. 4 ... ... : ... .. . ... ...
ROW 77 : ... .. 0 ... ... ... : ... .. . ... ... ... : --- .. . ... : ... .. 3 ... : ... .. . ... ... : --- .. . ... ... : ... .. . ... ... : --- .. . P84 ...
ROW 78 : D-3 00 C P80 ... ... : ... .. . ... ... ... : D-3 00 . ... : 1-# 00 F ... : ... .. . ... ... : G#4 01 A ... ... : C-3 01 6 ... ... : D-1 01 F P80 ...
ROW 79 : ... .. B ... ... ... : ... .. . ... ... ... : ... .. . ... : ... .. C ... : ... .. . ... ... : ... .. 9 ... ... : ... .. 5 ... ... : ... .. D ... ...
ROW 7A : ... .. A ... ... ... : ... .. . ... ... ... : ... .. . ... : ... .. 6 ... : ... .. . ... ... : ... .. 8 ... ... : ... .. 4 ... ... : ... .. 8 ... ...
ROW 7B : ... .. 0 ... ... ... : ... .. . ... ... ... : ... .. . ... : ... .. 3 ... : ... .. . ... ... : --- .. . ... ... : ... .. . ... ... : ... .. . ... ...
ROW 7C : D-3 00 C P80 ... ... : ... .. . ... ... ... : ... .. . ... : ... .. F ... : ... .. . ... ... : G#4 01 A ... ... : B-2 01 6 ... ... : ... .. . ... ...
ROW 7D : ... .. B ... ... ... : ... .. . ... ... ... : ... .. . ... : ... .. C ... : ... .. . ... ... : ... .. 9 ... ... : ... .. 5 ... ... : ... .. . ... ...
ROW 7E : ... .. A ... ... ... : ... .. . ... ... ... : ... .. . ... : ... .. 6 ... : ... .. . ... ... : ... .. 8 ... ... : ... .. 4 ... ... : ... .. . ... ...
ROW 7F : ... .. 0 ... ... ... : ... .. . ... ... ... : --- .. . ... : ... .. 3 ... : ... .. . ... ... : --- .. . ... ... : ... .. . ... ... : --- .. . ... ...
ROW 80 : C-3 00 C P80 ... ... : ... .. . ... ... ... : C-3 00 . ... : 7-# 00 F ... : ... .. . ... ... : F#4 01 A ... ... : F#3 01 6 ... ... : C-1 01 F ... ...
ROW 81 : ... .. B ... ... ... : ... .. . ... ... ... : ... .. . ... : ... .. C ... : ... .. . ... ... : ... .. 9 ... ... : ... .. 5 ... ... : ... .. D ... ...
ROW 82 : ... .. A ... ... ... : A-5 00 A P7F ... ... : ... .. . ... : ... .. 6 ... : ... .. . ... ... : ... .. 8 ... ... : ... .. 4 ... ... : ... .. 8 ... ...
ROW 83 : ... .. 0 ... ... ... : ... .. . P80 ... ... : ... .. . ... : ... .. 3 ... : ... .. . ... ... : --- .. . ... ... : ... .. . ... ... : ... .. . ... ...
ROW 84 : C-3 00 C P80 ... ... : ... .. . ... ... ... : ... .. . ... : ... .. F ... : ... .. . ... ... : F#4 01 A ... ... : F-3 01 6 ... ... : ... .. . ... ...
ROW 85 : ... .. B ... ... ... : G#5 00 A P81 ... ... : ... .. . ... : ... .. C ... : ... .. . ... ... : ... .. 9 ... ... : ... .. 5 ... ... : ... .. . ... ...
ROW 86 : ... .. A ... ... ... : ... .. . P7F ... ... : ... .. . ... : ... .. 6 ... : ... .. . ... ... : ... .. 8 ... ... : ... .. 4 ... ... : ... .. . ... ...
ROW 87 : ... .. 0 ... ... ... : G-5 00 A P81 ... ... : ... .. . ... : ... .. 3 ... : ... .. . ... ... : --- .. . ... ... : ... .. . ... ... : ... .. . ... ...
ROW 88 : F-3 00 C P80 ... ... : ... .. . ... ... ... : D#3 00 . P88 : 1-# 00 F ... : ... .. . ... ... : B-4 01 A ... ... : C-3 01 6 ... ... : F-1 01 F P60 ...
ROW 89 : ... .. B ... ... ... : ... .. . P82 ... ... : D-3 00 . P7D : ... .. C ... : ... .. . ... ... : ... .. 9 ... ... : ... .. 5 ... ... : E-1 01 D P97 ...
ROW 8A : ... .. A ... ... ... : G#5 00 A P80 ... ... : C-3 00 . P8C : ... .. 6 ... : ... .. . ... ... : ... .. 8 ... ... : ... .. 4 ... ... : ... .. 8 P77 ...
ROW 8B : ... .. 0 ... ... ... : A-5 00 A P7F ... ... : B-2 00 . P85 : ... .. 3 ... : ... .. . ... ... : --- .. . ... ... : ... .. . ... ... : ... .. . P57 ...
ROW 8C : F-3 00 C P80 ... ... : ... .. . P80 ... ... : A#2 00 . P80 : ... .. F ... : ... .. . ... ... : B-4 01 A ... ... : B-2 01 6 ... ... : D#1 01 8 P94 ...
ROW 8D : ... .. B ... ... ... : ... .. . ... ... ... : A-2 00 . P7C : ... .. C ... : ... .. . ... ... : ... .. 9 ... ... : ... .. 5 ... ... : ... .. . P74 ...
ROW 8E : ... .. A ... ... ... : G#5 00 A P81 ... ... : G#2 00 . P7B : ... .. 6 ... : ... .. . ... ... : ... .. 8 ... ... : ... .. 4 ... ... : ... .. . P54 ...
ROW 8F : ... .. 0 ... ... ... : ... .. . P80 ... ... : G-2 00 . ... : ... .. 3 ... : ... .. . ... ... : --- .. . ... ... : ... .. . ... ... : D-1 01 8 P95 ...
ROW 90 : D#3 00 C P80 ... ... : G-5 00 A P81 ... ... : D#3 00 . P80 : 4-# 00 F ... : ... .. . ... ... : A-4 01 A ... ... : F#3 01 6 ... ... : D#1 01 F P80 ...
ROW 91 : ... .. B ... ... ... : ... .. . ... ... ... : ... .. . ... : ... .. C ... : ... .. . ... ... : ... .. 9 ... ... : ... .. 5 ... ... : ... .. D ... ...
ROW 92 : ... .. A ... ... ... : ... .. . P82 ... ... : ... .. . ... : ... .. 6 ... : ... .. . ... ... : ... .. 8 ... ... : ... .. 4 ... ... : ... .. 8 ... ...
ROW 93 : ... .. 0 ... ... ... : G#5 00 A P80 ... ... : ... .. . ... : ... .. 3 ... : ... .. . ... ... : --- .. . ... ... : ... .. . ... ... : ... .. . ... ...
ROW 94 : D#3 00 C P80 ... ... : ... .. . P81 ... ... : ... .. . ... : ... .. F ... : ... .. . ... ... : A-4 01 A ... ... : F-3 01 6 ... ... : ... .. . ... ...
ROW 95 : ... .. B ... ... ... : A-5 00 A P80 ... ... : ... .. . ... : ... .. C ... : ... .. . ... ... : ... .. 9 ... ... : ... .. 5 ... ... : ... .. . ... ...
ROW 96 : ... .. A ... ... ... : ... .. . ... ... ... : ... .. . ... : ... .. 6 ... : ... .. . ... ... : ... .. 8 ... ... : ... .. 4 ... ... : ... .. . ... ...
ROW 97 : ... .. 0 ... ... ... : G#5 00 A P81 ... ... : ... .. . ... : ... .. 3 ... : ... .. . ... ... : --- .. . ... ... : ... .. . ... ... : ... .. . ... ...
ROW 98 : G#3 00 C P80 ... ... : ... .. . P80 ... ... : F#3 00 . P81 : 1-# 00 F ... : ... .. . ... ... : D-5 01 A ... ... : C-3 01 6 ... ... : G#1 01 F P60 ...
ROW 99 : ... .. B ... ... ... : G-5 00 A P82 ... ... : E-3 00 . P86 : ... .. C ... : ... .. . ... ... : ... .. 9 ... ... : ... .. 5 ... ... : G-1 01 D P8A ...
ROW 9A : ... .. A ... ... ... : ... .. . P81 ... ... : D#3 00 . P7B : ... .. 6 ... : ... .. . ... ... : ... .. 8 ... ... : ... .. 4 ... ... : ... .. 8 P6A ...
ROW 9B : ... .. 0 ... ... ... : ... .. 2 ... ... ... : C#3 00 . P87 : ... .. 3 ... : ... .. . ... ... : --- .. . ... ... : ... .. . ... ... : F#1 01 8 P97 ...
ROW 9C : G#3 00 C P80 ... ... : G#5 00 2 P80 ... ... : C-3 00 . P7F : ... .. F ... : ... .. . ... ... : D-5 01 A ... ... : B-2 01 6 ... ... : ... .. . P77 ...
ROW 9D : ... .. B ... ... ... : ... .. . P81 ... ... : B-2 00 . P78 : ... .. C ... : ... .. . ... ... : ... .. 9 ... ... : ... .. 5 ... ... : F-1 01 8 PA9 ...
ROW 9E : ... .. A ... ... ... : A-5 00 1 P80 ... ... : A#2 00 . P73 : ... .. 6 ... : ... .. . ... ... : ... .. 8 ... ... : ... .. 4 ... ... : ... .. . P89 ...
ROW 9F : ... .. 0 ... ... ... : ... .. . ... ... ... : G#2 00 . P8E : ... .. 3 ... : ... .. . ... ... : --- .. . ... ... : ... .. . ... ... : ... .. . P69 ...
ROW A0 : G#1 00 C P80 ... ... : G#5 00 1 ... ... ... : G-5 00 . P80 : ... .. F ... : ... .. . ... ... : D-3 01 A ... ... : F#3 01 6 ... ... : G#1 01 F P80 ...
ROW A1 : ... .. B ... ... ... : ... .. 0 ... ... ... : A-4 00 . ... : ... .. C ... : ... .. . ... ... : ... .. 9 ... ... : ... .. 5 ... ... : ... .. D ... ...
ROW A2 : ... .. A ... ... ... : ... .. . ... ... ... : D-4 00 . ... : B-# 00 6 ... : ... .. . ... ... : ... .. 8 ... ... : ... .. 4 ... ... : ... .. 8 ... ...
ROW A3 : ... .. 8 ... ... ... : ... .. . ... ... ... : C#4 00 . ... : ... .. 5 ... : ... .. . ... ... : ... .. 7 ... ... : ... .. . ... ... : ... .. . ... ...
ROW A4 : ... .. . ... ... ... : ... .. . ... ... ... : G#3 00 . ... : ... .. . ... : ... .. . ... ... : ... .. . ... ... : F-3 01 6 ... ... : ... .. . ... ...
ROW A5 : ... .. . ... ... ... : ... .. . ... ... ... : ... .. . ... : ... .. . ... : ... .. . ... ... : ... .. 6 ... ... : ... .. 5 ... ... : ... .. . ... ...
ROW A6 : ... .. . ... ... ... : ... .. . ... ... ... : ... .. . ... : ... .. 4 ... : ... .. . ... ... : ... .. 5 ... ... : ... .. 4 ... ... : ... .. . ... ...
ROW A7 : ... .. 1 ... ... ... : ... .. . ... ... ... : --- .. . ... : ... .. 3 ... : ... .. . ... ... : ... .. . ... ... : ... .. . ... ... : --- .. . P7E ...
ROW A8 : F#2 00 C ... ... ... : F#5 00 F P80 ... ... : A-3 00 . ... : 1-# 00 F ... : ... .. . ... ... : C-4 01 A ... ... : C-3 01 6 ... ... : A-1 01 F P80 ...
ROW A9 : ... .. B ... ... ... : ... .. E ... ... ... : ... .. . ... : ... .. C ... : ... .. . ... ... : ... .. 9 ... ... : ... .. 5 ... ... : ... .. D ... ...
ROW AA : ... .. A ... ... ... : ... .. D ... ... ... : ... .. . ... : ... .. 6 ... : ... .. . ... ... : ... .. 8 ... ... : ... .. 4 ... ... : ... .. 8 ... ...
ROW AB : ... .. 8 ... ... ... : ... .. A ... ... ... : ... .. . ... : ... .. 3 ... : ... .. . ... ... : ... .. 7 ... ... : ... .. . ... ... : ... .. . ... ...
ROW AC : ... .. . ... ... ... : G#5 00 F ... ... ... : ... .. . ... : ... .. 2 ... : ... .. . ... ... : ... .. . ... ... : B-2 01 6 ... ... : ... .. . ... ...
ROW AD : ... .. . ... ... ... : ... .. E ... ... ... : ... .. . ... : ... .. 0 ... : ... .. . ... ... : ... .. 6 ... ... : ... .. 5 ... ... : ... .. . ... ...
ROW AE : ... .. . ... ... ... : ... .. A ... ... ... : ... .. . ... : ... .. . ... : ... .. . ... ... : ... .. 5 ... ... : ... .. 4 ... ... : ... .. . ... ...
ROW AF : ... .. 1 ... ... ... : ... .. 2 ... ... ... : --- .. . ... : ... .. . ... : ... .. . ... ... : ... .. . ... ... : ... .. . ... ... : --- .. . P7F ...
ROW B0 : F-2 00 C ... ... ... : F#5 00 F ... ... ... : F#3 00 . ... : 5-# 00 F ... : ... .. . ... ... : B-3 01 A ... ... : F#3 01 6 ... ... : F#1 01 F P80 ...
ROW B1 : ... .. B ... ... ... : ... .. E ... ... ... : ... .. . ... : ... .. C ... : ... .. . ... ... : ... .. 9 ... ... : ... .. 5 ... ... : ... .. D ... ...
ROW B2 : ... .. A ... ... ... : ... .. D ... ... ... : ... .. . ... : B-# 00 6 ... : ... .. . ... ... : ... .. 8 ... ... : ... .. 4 ... ... : ... .. 8 ... ...
ROW B3 : ... .. 8 ... ... ... : ... .. A ... ... ... : ... .. . ... : ... .. 5 ... : ... .. . ... ... : ... .. 7 ... ... : ... .. . ... ... : ... .. . ... ...
ROW B4 : ... .. . ... ... ... : ... .. . ... ... ... : ... .. . ... : ... .. . ... : ... .. . ... ... : ... .. . ... ... : F-3 01 6 ... ... : ... .. . ... ...
ROW B5 : ... .. . ... ... ... : ... .. . ... ... ... : ... .. . ... : ... .. . ... : ... .. . ... ... : ... .. 6 ... ... : ... .. 5 ... ... : ... .. . ... ...
ROW B6 : ... .. . ... ... ... : ... .. . ... ... ... : ... .. . ... : ... .. 4 ... : ... .. . ... ... : ... .. 5 ... ... : ... .. 4 ... ... : ... .. . ... ...
ROW B7 : ... .. 1 ... ... ... : ... .. . ... ... ... : --- .. . ... : ... .. 3 ... : ... .. . ... ... : ... .. . ... ... : ... .. . ... ... : --- .. . P81 ...
ROW B8 : G#1 00 C ... ... ... : D#5 00 F P7E ... ... : G#3 00 . ... : 1-# 00 F ... : ... .. . ... ... : D-3 01 A ... ... : C-3 01 6 ... ... : G#1 01 F P80 ...
ROW B9 : ... .. B ... ... ... : D-5 00 E P80 ... ... : ... .. . ... : ... .. C ... : ... .. . ... ... : ... .. 9 ... ... : ... .. 5 ... ... : ... .. D ... ...
ROW BA : ... .. A ... ... ... : ... .. D ... ... ... : ... .. . ... : ... .. 6 ... : ... .. . ... ... : ... .. 8 ... ... : ... .. 4 ... ... : ... .. 8 ... ...
ROW BB : ... .. 8 ... ... ... : ... .. A ... ... ... : ... .. . ... : ... .. 3 ... : ... .. . ... ... : ... .. 7 ... ... : ... .. . ... ... : ... .. . ... ...
ROW BC : ... .. . ... ... ... : ... .. . ... ... ... : ... .. . ... : ... .. 2 ... : ... .. . ... ... : ... .. . ... ... : B-2 01 6 ... ... : ... .. . ... ...
ROW BD : ... .. . ... ... ... : ... .. . ... ... ... : ... .. . ... : ... .. 0 ... : ... .. . ... ... : ... .. 6 ... ... : ... .. 5 ... ... : ... .. . ... ...
ROW BE : ... .. . ... ... ... : ... .. . ... ... ... : ... .. . ... : ... .. . ... : ... .. . ... ... : ... .. 5 ... ... : ... .. 4 ... ... : ... .. . ... ...
ROW BF : ... .. 1 ... ... ... : ... .. . ... ... ... : --- .. . ... : ... .. . ... : ... .. . ... ... : ... .. . ... ... : ... .. . ... ... : --- .. . P7E ...
ROW C0 : D#2 00 C ... ... ... : B-4 00 F P82 ... ... : G#4 00 . ... : ... .. F ... : ... .. . ... ... : A-3 01 A ... ... : F#3 01 6 ... ... : G#2 01 F P80 ...
ROW C1 : ... .. B ... ... ... : A-4 00 E P80 ... ... : ... .. . ... : ... .. C ... : ... .. . ... ... : ... .. 9 ... ... : ... .. 5 ... ... : ... .. D ... ...
ROW C2 : ... .. A ... ... ... : G-4 00 D ... ... ... : ... .. . ... : B-# 00 6 ... : ... .. . ... ... : ... .. 8 ... ... : ... .. 4 ... ... : ... .. 8 ... ...
ROW C3 : ... .. 8 ... ... ... : F#4 00 A ... ... ... : ... .. . ... : ... .. 5 ... : ... .. . ... ... : ... .. 7 ... ... : ... .. . ... ... : ... .. . ... ...
ROW C4 : ... .. . ... ... ... : ... .. . ... ... ... : ... .. . ... : ... .. . ... : ... .. . ... ... : ... .. . ... ... : F-3 01 6 ... ... : ... .. . ... ...
ROW C5 : ... .. . ... ... ... : ... .. . ... ... ... : ... .. . ... : ... .. . ... : ... .. . ... ... : ... .. 6 ... ... : ... .. 5 ... ... : ... .. . ... ...
ROW C6 : ... .. . ... ... ... : ... .. . ... ... ... : ... .. . ... : ... .. 4 ... : ... .. . ... ... : ... .. 5 ... ... : ... .. 4 ... ... : ... .. . ... ...
ROW C7 : ... .. 1 ... ... ... : ... .. . ... ... ... : --- .. . ... : ... .. 3 ... : ... .. . ... ... : ... .. . ... ... : ... .. . ... ... : --- .. . P7F ...
ROW C8 : D-2 00 C ... ... ... : E-4 00 F P83 ... ... : A-3 00 . ... : 1-# 00 F ... : ... .. . ... ... : G#3 01 A ... ... : C-3 01 6 ... ... : A-1 01 F P80 ...
ROW C9 : ... .. B ... ... ... : D#4 00 E P7D ... ... : ... .. . ... : ... .. C ... : ... .. . ... ... : ... .. 9 ... ... : ... .. 5 ... ... : ... .. D ... ...
ROW CA : ... .. A ... ... ... : C#4 00 D P83 ... ... : ... .. . ... : ... .. 6 ... : ... .. . ... ... : ... .. 8 ... ... : ... .. 4 ... ... : ... .. 8 ... ...
ROW CB : ... .. 8 ... ... ... : C-4 00 A P7F ... ... : ... .. . ... : ... .. 3 ... : ... .. . ... ... : ... .. 7 ... ... : ... .. . ... ... : ... .. . ... ...
ROW CC : ... .. . ... ... ... : B-3 00 A P7B ... ... : ... .. . ... : ... .. 2 ... : ... .. . ... ... : ... .. . ... ... : B-2 01 6 ... ... : ... .. . ... ...
ROW CD : ... .. . ... ... ... : A-3 00 A P87 ... ... : ... .. . ... : ... .. 0 ... : ... .. . ... ... : ... .. 6 ... ... : ... .. 5 ... ... : ... .. . ... ...
ROW CE : ... .. . ... ... ... : ... .. . P80 ... ... : ... .. . ... : ... .. . ... : ... .. . ... ... : ... .. 5 ... ... : ... .. 4 ... ... : ... .. . ... ...
ROW CF : ... .. 1 ... ... ... : ... .. . ... ... ... : --- .. . ... : ... .. . ... : ... .. . ... ... : ... .. . ... ... : ... .. . ... ... : --- .. . P7F ...
ROW D0 : G#1 00 C ... ... ... : A#3 00 F P82 ... ... : F#3 00 . ... : 5-# 00 F ... : ... .. . ... ... : D-3 01 A ... ... : F#3 01 6 ... ... : F#1 01 F P80 ...
ROW D1 : ... .. B ... ... ... : B-3 00 E P84 ... ... : ... .. . ... : ... .. C ... : ... .. . ... ... : ... .. 9 ... ... : ... .. 5 ... ... : ... .. D ... ...
ROW D2 : ... .. A ... ... ... : C-4 00 D P80 ... ... : ... .. . ... : B-# 00 6 ... : ... .. . ... ... : ... .. 8 ... ... : ... .. 4 ... ... : ... .. 8 ... ...
ROW D3 : ... .. 8 ... ... ... : ... .. A ... ... ... : ... .. . ... : ... .. 5 ... : ... .. . ... ... : ... .. 7 ... ... : ... .. . ... ... : ... .. . ... ...
ROW D4 : ... .. . ... ... ... : ... .. . ... ... ... : ... .. . ... : ... .. . ... : ... .. . ... ... : ... .. . ... ... : F-3 01 6 ... ... : ... .. . ... ...
ROW D5 : ... .. . ... ... ... : ... .. . ... ... ... : ... .. . ... : ... .. . ... : ... .. . ... ... : ... .. 6 ... ... : ... .. 5 ... ... : ... .. . ... ...
ROW D6 : ... .. . ... ... ... : ... .. . ... ... ... : ... .. . ... : ... .. 4 ... : ... .. . ... ... : ... .. 5 ... ... : ... .. 4 ... ... : ... .. . ... ...
ROW D7 : ... .. 1 ... ... ... : ... .. . ... ... ... : --- .. . ... : ... .. 3 ... : ... .. . ... ... : ... .. . ... ... : ... .. . ... ... : --- .. . P81 ...
ROW D8 : F#2 00 C ... ... ... : ... .. . ... ... ... : G#3 00 . ... : 1-# 00 F ... : ... .. . ... ... : C-4 01 A ... ... : C-3 01 6 ... ... : G#1 01 F P80 ...
ROW D9 : ... .. B ... ... ... : ... .. . ... ... ... : ... .. . ... : ... .. C ... : ... .. . ... ... : ... .. 9 ... ... : ... .. 5 ... ... : ... .. D ... ...
ROW DA : ... .. A ... ... ... : ... .. . ... ... ... : ... .. . ... : ... .. 6 ... : ... .. . ... ... : ... .. 8 ... ... : ... .. 4 ... ... : ... .. 8 ... ...
ROW DB : ... .. 8 ... ... ... : ... .. . ... ... ... : ... .. . ... : ... .. 3 ... : ... .. . ... ... : ... .. 7 ... ... : ... .. . ... ... : ... .. . ... ...
ROW DC : ... .. . ... ... ... : ... .. . P84 ... ... : ... .. . ... : ... .. 2 ... : ... .. . ... ... : ... .. . ... ... : B-2 01 6 ... ... : ... .. . ... ...
ROW DD : ... .. . ... ... ... : ... .. . P86 ... ... : ... .. . ... : ... .. 0 ... : ... .. . ... ... : ... .. 6 ... ... : ... .. 5 ... ... : ... .. . ... ...
ROW DE : ... .. . ... ... ... : ... .. . P85 ... ... : ... .. . ... : ... .. . ... : ... .. . ... ... : ... .. 5 ... ... : ... .. 4 ... ... : ... .. . ... ...
ROW DF : ... .. 1 ... ... ... : ... .. . P82 ... ... : --- .. . ... : ... .. . ... : ... .. . ... ... : ... .. . ... ... : ... .. . ... ... : --- .. . P7E ...
ROW E0 : F-2 00 C ... ... ... : ... .. . P7E ... ... : G#3 00 . ... : ... .. F ... : ... .. . ... ... : B-3 01 A ... ... : F#3 01 6 ... ... : G#1 01 F P80 ...
ROW E1 : ... .. B ... ... ... : ... .. . P7B ... ... : ... .. . ... : ... .. C ... : ... .. . ... ... : ... .. 9 ... ... : ... .. 5 ... ... : ... .. D ... ...
ROW E2 : ... .. A ... ... ... : B-3 00 A P86 ... ... : ... .. . ... : B-# 00 6 ... : ... .. . ... ... : ... .. 8 ... ... : ... .. 4 ... ... : ... .. 8 ... ...
ROW E3 : ... .. 8 ... ... ... : C-4 00 A P7C ... ... : ... .. . ... : ... .. 5 ... : ... .. . ... ... : ... .. 7 ... ... : ... .. . ... ... : ... .. . ... ...
ROW E4 : ... .. . ... ... ... : ... .. . P80 ... ... : ... .. . ... : ... .. . ... : ... .. . ... ... : ... .. . ... ... : F-3 01 6 ... ... : ... .. . ... ...
ROW E5 : ... .. . ... ... ... : ... .. . P83 ... ... : ... .. . ... : ... .. . ... : ... .. . ... ... : ... .. 6 ... ... : ... .. 5 ... ... : ... .. . ... ...
ROW E6 : ... .. . ... ... ... : ... .. . P86 ... ... : ... .. . ... : ... .. 4 ... : ... .. . ... ... : ... .. 5 ... ... : ... .. 4 ... ... : ... .. . ... ...
ROW E7 : ... .. 1 ... ... ... : ... .. . ... ... ... : --- .. . ... : ... .. 3 ... : ... .. . ... ... : ... .. . ... ... : ... .. . ... ... : --- .. . P7E ...
ROW E8 : G#1 00 C ... ... ... : B-3 00 F P80 ... ... : A-3 00 . ... : 1-# 00 F ... : ... .. . ... ... : D-3 01 A ... ... : C-3 01 6 ... ... : A-1 01 F P80 ...
ROW E9 : ... .. B ... ... ... : ... .. E ... ... ... : ... .. . ... : ... .. C ... : ... .. . ... ... : ... .. 9 ... ... : ... .. 5 ... ... : ... .. D ... ...
ROW EA : ... .. A ... ... ... : ... .. A ... ... ... : ... .. . ... : ... .. 6 ... : ... .. . ... ... : ... .. 8 ... ... : ... .. 4 ... ... : ... .. 8 ... ...
ROW EB : ... .. 8 ... ... ... : ... .. 2 ... ... ... : ... .. . ... : ... .. 3 ... : ... .. . ... ... : ... .. 7 ... ... : ... .. . ... ... : ... .. . ... ...
ROW EC : ... .. . ... ... ... : C-4 00 F ... ... ... : ... .. . ... : ... .. 2 ... : ... .. . ... ... : ... .. . ... ... : B-2 01 6 ... ... : ... .. . ... ...
ROW ED : ... .. . ... ... ... : ... .. E ... ... ... : ... .. . ... : ... .. 0 ... : ... .. . ... ... : ... .. 6 ... ... : ... .. 5 ... ... : ... .. . ... ...
ROW EE : ... .. . ... ... ... : ... .. A ... ... ... : ... .. . ... : ... .. . ... : ... .. . ... ... : ... .. 5 ... ... : ... .. 4 ... ... : ... .. . ... ...
ROW EF : ... .. 1 ... ... ... : ... .. 2 ... ... ... : --- .. . ... : ... .. . ... : ... .. . ... ... : ... .. . ... ... : ... .. . ... ... : --- .. . P7F ...
ROW F0 : D#2 00 C ... ... ... : C#4 00 F P84 ... ... : F#3 00 . ... : 5-# 00 F ... : ... .. . ... ... : A-3 01 A ... ... : F#3 01 6 ... ... : F#1 01 F P80 ...
ROW F1 : ... .. B ... ... ... : D-4 00 E P80 ... ... : ... .. . ... : ... .. C ... : ... .. . ... ... : ... .. 9 ... ... : ... .. 5 ... ... : ... .. D ... ...
ROW F2 : ... .. A ... ... ... : ... .. D ... ... ... : ... .. . ... : B-# 00 6 ... : ... .. . ... ... : ... .. 8 ... ... : ... .. 4 ... ... : ... .. 8 ... ...
ROW F3 : ... .. 8 ... ... ... : ... .. A ... ... ... : ... .. . ... : ... .. 5 ... : ... .. . ... ... : ... .. 7 ... ... : ... .. . ... ... : ... .. . ... ...
ROW F4 : ... .. . ... ... ... : ... .. . ... ... ... : ... .. . ... : ... .. . ... : ... .. . ... ... : ... .. . ... ... : F-3 01 6 ... ... : ... .. . ... ...
ROW F5 : ... .. . ... ... ... : ... .. . ... ... ... : ... .. . ... : ... .. . ... : ... .. . ... ... : ... .. 6 ... ... : ... .. 5 ... ... : ... .. . ... ...
ROW F6 : ... .. . ... ... ... : ... .. . ... ... ... : ... .. . ... : ... .. 4 ... : ... .. . ... ... : ... .. 5 ... ... : ... .. 4 ... ... : ... .. . ... ...
ROW F7 : ... .. 1 ... ... ... : ... .. . ... ... ... : --- .. . ... : ... .. 3 ... : ... .. . ... ... : ... .. . ... ... : ... .. . ... ... : --- .. . P81 ...
ROW F8 : D-2 00 C ... ... ... : ... .. . ... ... ... : G#3 00 . ... : 1-# 00 F ... : ... .. . ... ... : G#3 01 A ... ... : C-3 01 6 ... ... : G#1 01 F P80 ...
ROW F9 : ... .. B ... ... ... : ... .. . ... ... ... : ... .. . ... : ... .. C ... : ... .. . ... ... : ... .. 9 ... ... : ... .. 5 ... ... : ... .. D ... ...
ROW FA : ... .. A ... ... ... : ... .. . ... ... ... : ... .. . ... : ... .. 6 ... : ... .. . ... ... : ... .. 8 ... ... : ... .. 4 ... ... : ... .. 8 ... ...
ROW FB : ... .. 8 ... ... ... : ... .. . ... ... ... : ... .. . ... : ... .. 3 ... : ... .. . ... ... : ... .. 7 ... ... : ... .. . ... ... : ... .. . ... ...
ROW FC : ... .. . ... ... ... : ... .. . ... ... ... : ... .. . ... : ... .. 2 ... : ... .. . ... ... : ... .. . ... ... : B-2 01 6 ... ... : ... .. . ... ...
ROW FD : ... .. . ... ... ... : ... .. . ... ... ... : ... .. . ... : ... .. 0 ... : ... .. . ... ... : ... .. 6 ... ... : ... .. 5 ... ... : ... .. . ... ...
ROW FE : ... .. . ... ... ... : ... .. . ... ... ... : ... .. . ... : ... .. . ... : ... .. . ... ... : ... .. 5 ... ... : ... .. 4 ... ... : ... .. . ... ...
ROW FF : ... .. 1 ... ... ... : ... .. . ... ... ... : --- .. . ... : ... .. . ... : ... .. . ... ... : ... .. . ... ... : ... .. . ... ... : --- .. . P7E ...

PATTERN 08
ROW 00 : B-3 00 C ... ... ... : ... .. . ... ... ... : A#5 00 . ... : ... .. F ... : ... .. . ... ... : F-5 01 A ... ... : F#3 01 6 ... ... : B-1 01 F P80 ...
ROW 01 : ... .. B ... ... ... : ... .. . ... ... ... : C-5 00 . ... : ... .. C ... : ... .. . ... ... : ... .. 9 ... ... : ... .. 5 ... ... : ... .. D ... ...
ROW 02 : ... .. A ... ... ... : ... .. . ... ... ... : F-4 00 . ... : B-# 00 6 ... : ... .. . ... ... : ... .. 8 ... ... : ... .. 4 ... ... : ... .. 8 ... ...
ROW 03 : ... .. 8 ... ... ... : ... .. . ... ... ... : E-4 00 . ... : ... .. 5 ... : ... .. . ... ... : ... .. 7 ... ... : ... .. . ... ... : ... .. . ... ...
ROW 04 : F#3 00 C ... ... ... : ... .. . P84 ... ... : B-3 00 . ... : ... .. . ... : ... .. . ... ... : C-5 01 A ... ... : F-3 01 6 ... ... : ... .. . ... ...
ROW 05 : ... .. B ... ... ... : D#4 00 A P7C ... ... : ... .. . ... : ... .. . ... : ... .. . ... ... : ... .. 9 ... ... : ... .. 5 ... ... : ... .. . ... ...
ROW 06 : ... .. 8 ... ... ... : D-4 00 A P85 ... ... : ... .. . ... : ... .. 4 ... : ... .. . ... ... : ... .. 5 ... ... : ... .. 4 ... ... : ... .. . ... ...
ROW 07 : ... .. 1 ... ... ... : ... .. . P82 ... ... : ... .. . ... : ... .. 3 ... : ... .. . ... ... : ... .. . ... ... : ... .. . ... ... : ... .. . ... ...
ROW 08 : D-3 00 C ... ... ... : ... .. . P7E ... ... : A-3 00 . P7C : 1-# 00 F ... : ... .. . ... ... : G#4 01 A ... ... : C-3 01 6 ... ... : A#1 01 8 P9E ...
ROW 09 : ... .. B ... ... ... : ... .. . P7B ... ... : G-3 00 . P7B : ... .. C ... : ... .. . ... ... : ... .. 9 ... ... : ... .. 5 ... ... : ... .. . P7E ...
ROW 0A : ... .. 8 ... ... ... : C#4 00 A P86 ... ... : F-3 00 . P7E : ... .. 6 ... : ... .. . ... ... : ... .. 5 ... ... : ... .. 4 ... ... : A-1 01 8 P9F ...
ROW 0B : ... .. 1 ... ... ... : D-4 00 A P7C ... ... : D#3 00 . P86 : ... .. 3 ... : ... .. . ... ... : ... .. . ... ... : ... .. . ... ... : ... .. . P7F ...
ROW 0C : B-2 00 C ... ... ... : ... .. . P80 ... ... : D-3 00 . P7B : ... .. F ... : ... .. . ... ... : F-4 01 A ... ... : B-2 01 6 ... ... : ... .. . P5F ...
ROW 0D : ... .. B ... ... ... : ... .. . P83 ... ... : C-3 00 . P8A : ... .. C ... : ... .. . ... ... : ... .. 9 ... ... : ... .. 5 ... ... : G#1 01 8 P84 ...
ROW 0E : ... .. 8 ... ... ... : D#4 00 A P7C ... ... : B-2 00 . P83 : ... .. 6 ... : ... .. . ... ... : ... .. 5 ... ... : ... .. 4 ... ... : ... .. . P64 ...
ROW 0F : ... .. 1 ... ... ... : ... .. . ... ... ... : A#2 00 . P7E : ... .. 3 ... : ... .. . ... ... : ... .. . ... ... : ... .. . ... ... : G-1 01 8 P8E ...
ROW 10 : F#2 00 C ... ... ... : D-4 00 A P82 ... ... : F-5 00 . P80 : 5-# 00 F ... : ... .. . ... ... : C-4 01 A ... ... : F#3 01 6 ... ... : F#1 01 F P80 ...
ROW 11 : ... .. B ... ... ... : ... .. . P7F ... ... : G-4 00 . ... : ... .. C ... : ... .. . ... ... : ... .. 9 ... ... : ... .. 5 ... ... : ... .. D ... ...
ROW 12 : ... .. A ... ... ... : ... .. . P7B ... ... : C-4 00 . ... : B-# 00 6 ... : ... .. . ... ... : ... .. 8 ... ... : ... .. 4 ... ... : ... .. 8 ... ...
ROW 13 : ... .. 8 ... ... ... : C#4 00 A P86 ... ... : B-3 00 . ... : ... .. 5 ... : ... .. . ... ... : ... .. 7 ... ... : ... .. . ... ... : ... .. . ... ...
ROW 14 : D-2 00 C ... ... ... : D-4 00 A P7C ... ... : F#3 00 . ... : ... .. . ... : ... .. . ... ... : G#3 01 A ... ... : F-3 01 6 ... ... : ... .. . ... ...
ROW 15 : ... .. B ... ... ... : ... .. 2 P80 ... ... : ... .. . ... : ... .. . ... : ... .. . ... ... : ... .. 9 ... ... : ... .. 5 ... ... : ... .. . ... ...
ROW 16 : ... .. 8 ... ... ... : ... .. . P83 ... ... : ... .. . ... : ... .. 4 ... : ... .. . ... ... : ... .. 5 ... ... : ... .. 4 ... ... : ... .. . ... ...
ROW 17 : ... .. 1 ... ... ... : D#4 00 2 P7C ... ... : ... .. . ... : ... .. 3 ... : ... .. . ... ... : ... .. . ... ... : ... .. . ... ... : ... .. . ... ...
ROW 18 : B-1 00 C ... ... ... : C#4 00 F ... ... ... : E-3 00 . P85 : C-# 00 F ... : ... .. . ... ... : F-3 01 A ... ... : C-3 01 6 ... ... : ... .. . P60 ...
ROW 19 : ... .. B ... ... ... : C-4 00 E P80 ... ... : D#3 00 . P7A : ... .. C ... : ... .. . ... ... : ... .. 9 ... ... : ... .. 5 ... ... : F-1 01 8 P92 ...
ROW 1A : ... .. 8 ... ... ... : ... .. A ... ... ... : C#3 00 . P86 : ... .. 6 ... : ... .. . ... ... : ... .. 5 ... ... : ... .. 4 ... ... : ... .. . P72 ...
ROW 1B : ... .. 1 ... ... ... : ... .. 2 ... ... ... : C-3 00 . P7E : ... .. 3 ... : ... .. . ... ... : ... .. . ... ... : ... .. . ... ... : E-1 01 8 PA9 ...
ROW 1C : F#1 00 C ... ... ... : C#4 00 F P84 ... ... : B-2 00 . P77 : ... .. F ... : ... .. . ... ... : C-3 01 A ... ... : B-2 01 6 ... ... : ... .. . P89 ...
ROW 1D : ... .. B ... ... ... : D-4 00 E P80 ... ... : A-2 00 . P8E : ... .. C ... : ... .. . ... ... : ... .. 9 ... ... : ... .. 5 ... ... : ... .. . P69 ...
ROW 1E : ... .. 8 ... ... ... : ... .. A ... ... ... : G#2 00 . P8D : ... .. 6 ... : ... .. . ... ... : ... .. 5 ... ... : ... .. 4 ... ... : D#1 01 8 PA6 ...
ROW 1F : ... .. 1 ... ... ... : ... .. 2 ... ... ... : G-2 00 . ... : ... .. 3 ... : ... .. . ... ... : ... .. . ... ... : ... .. . ... ... : ... .. . P86 ...
ROW 20 : G#1 00 C ... ... ... : D#4 00 F ... ... ... : G-5 00 . P80 : 1-# 00 F ... : ... .. . ... ... : D-3 01 A ... ... : F#3 01 6 ... ... : G#1 01 F P80 ...
ROW 21 : ... .. B ... ... ... : ... .. E ... ... ... : A-4 00 . ... : ... .. C ... : ... .. . ... ... : ... .. 9 ... ... : ... .. 5 ... ... : ... .. D ... ...
ROW 22 : ... .. A ... ... ... : ... .. D ... ... ... : D-4 00 . ... : B-# 00 6 ... : ... .. . ... ... : ... .. 8 ... ... : ... .. 4 ... ... : ... .. 8 ... ...
ROW 23 : ... .. 8 ... ... ... : ... .. A ... ... ... : C#4 00 . ... : ... .. 5 ... : ... .. . ... ... : ... .. 7 ... ... : ... .. . ... ... : ... .. . ... ...
ROW 24 : ... .. C ... ... ... : ... .. . ... ... ... : G#3 00 . ... : ... .. . ... : ... .. . ... ... : ... .. A ... ... : F-3 01 6 ... ... : ... .. . ... ...
ROW 25 : ... .. B ... ... ... : ... .. . ... ... ... : ... .. . ... : ... .. . ... : ... .. . ... ... : ... .. 9 ... ... : ... .. 5 ... ... : ... .. . ... ...
ROW 26 : ... .. A ... ... ... : ... .. . ... ... ... : ... .. . ... : ... .. 4 ... : ... .. . ... ... : ... .. 8 ... ... : ... .. 4 ... ... : ... .. . ... ...
ROW 27 : ... .. 8 ... ... ... : ... .. . ... ... ... : --- .. . ... : ... .. 3 ... : ... .. . ... ... : ... .. 7 ... ... : ... .. . ... ... : --- .. . P7E ...
ROW 28 : F#2 00 C ... ... ... : ... .. . ... ... ... : A-3 00 . ... : 1-# 00 F ... : ... .. . ... ... : C-4 01 A ... ... : C-3 01 6 ... ... : A-1 01 F P80 ...
ROW 29 : ... .. B ... ... ... : ... .. . ... ... ... : ... .. . ... : ... .. C ... : ... .. . ... ... : ... .. 9 ... ... : ... .. 5 ... ... : ... .. D ... ...
ROW 2A : ... .. A ... ... ... : ... .. . ... ... ... : ... .. . ... : ... .. 6 ... : ... .. . ... ... : ... .. 8 ... ... : ... .. 4 ... ... : ... .. 8 ... ...
ROW 2B : ... .. 8 ... ... ... : ... .. . ... ... ... : ... .. . ... : ... .. 3 ... : ... .. . ... ... : ... .. 7 ... ... : ... .. . ... ... : ... .. . ... ...
ROW 2C : ... .. . ... ... ... : ... .. . ... ... ... : ... .. . ... : ... .. 2 ... : ... .. . ... ... : ... .. . ... ... : B-2 01 6 ... ... : ... .. . ... ...
ROW 2D : ... .. . ... ... ... : ... .. . ... ... ... : ... .. . ... : ... .. 0 ... : ... .. . ... ... : ... .. 6 ... ... : ... .. 5 ... ... : ... .. . ... ...
ROW 2E : ... .. . ... ... ... : ... .. . ... ... ... : ... .. . ... : ... .. . ... : ... .. . ... ... : ... .. . ... ... : ... .. 4 ... ... : ... .. . ... ...
ROW 2F : ... .. . ... ... ... : ... .. . ... ... ... : --- .. . ... : ... .. . ... : ... .. . ... ... : ... .. 5 ... ... : ... .. . ... ... : --- .. . P7F ...
ROW 30 : F-2 00 C ... ... ... : C#4 00 A P86 ... ... : F#3 00 . ... : 5-# 00 F ... : ... .. . ... ... : B-3 01 A ... ... : F#3 01 6 ... ... : F#1 01 F P80 ...
ROW 31 : ... .. B ... ... ... : C-4 00 A P82 ... ... : ... .. . ... : ... .. C ... : ... .. . ... ... : ... .. 9 ... ... : ... .. 5 ... ... : ... .. D ... ...
ROW 32 : ... .. A ... ... ... : B-3 00 A P7E ... ... : ... .. . ... : B-# 00 6 ... : ... .. . ... ... : ... .. 8 ... ... : ... .. 4 ... ... : ... .. 8 ... ...
ROW 33 : ... .. 8 ... ... ... : A#3 00 A P7C ... ... : ... .. . ... : ... .. 5 ... : ... .. . ... ... : ... .. 7 ... ... : ... .. . ... ... : ... .. . ... ...
ROW 34 : ... .. . ... ... ... : B-3 00 A P81 ... ... : ... .. . ... : ... .. . ... : ... .. . ... ... : ... .. . ... ... : F-3 01 6 ... ... : ... .. . ... ...
ROW 35 : ... .. . ... ... ... : C#4 00 A P7C ... ... : ... .. . ... : ... .. . ... : ... .. . ... ... : ... .. 6 ... ... : ... .. 5 ... ... : ... .. . ... ...
ROW 36 : ... .. . ... ... ... : D-4 00 A P83 ... ... : ... .. . ... : ... .. 4 ... : ... .. . ... ... : ... .. . ... ... : ... .. 4 ... ... : ... .. . ... ...
ROW 37 : ... .. . ... ... ... : E-4 00 A P82 ... ... : --- .. . ... : ... .. 3 ... : ... .. . ... ... : ... .. 5 ... ... : ... .. . ... ... : --- .. . P81 ...
ROW 38 : G#1 00 C ... ... ... : F-4 00 F P80 ... ... : G#3 00 . ... : 1-# 00 F ... : ... .. . ... ... : D-3 01 A ... ... : C-3 01 6 ... ... : G#1 01 F P80 ...
ROW 39 : ... .. B ... ... ... : ... .. E ... ... ... : ... .. . ... : ... .. C ... : ... .. . ... ... : ... .. 9 ... ... : ... .. 5 ... ... : ... .. D ... ...
ROW 3A : ... .. 8 ... ... ... : ... .. D ... ... ... : ... .. . ... : ... .. 6 ... : ... .. . ... ... : ... .. 5 ... ... : ... .. 4 ... ... : ... .. 8 ... ...
ROW 3B : ... .. 1 ... ... ... : ... .. A ... ... ... : ... .. . ... : ... .. 3 ... : ... .. . ... ... : ... .. . ... ... : ... .. . ... ... : ... .. . ... ...
ROW 3C : ... .. C ... ... ... : ... .. . ... ... ... : ... .. . ... : ... .. 2 ... : ... .. . ... ... : ... .. A ... ... : B-2 01 6 ... ... : ... .. . ... ...
ROW 3D : ... .. B ... ... ... : ... .. 2 ... ... ... : ... .. . ... : ... .. 0 ... : ... .. . ... ... : ... .. 9 ... ... : ... .. 5 ... ... : ... .. . ... ...
ROW 3E : ... .. 8 ... ... ... : ... .. . ... ... ... : ... .. . ... : ... .. . ... : ... .. . ... ... : ... .. 5 ... ... : ... .. 4 ... ... : ... .. . ... ...
ROW 3F : ... .. 1 ... ... ... : ... .. . ... ... ... : --- .. . ... : ... .. . ... : ... .. . ... ... : ... .. . ... ... : ... .. . ... ... : --- .. . P7E ...
ROW 40 : D#2 00 C ... ... ... : F#4 00 F ... ... ... : G#4 00 . ... : ... .. F ... : ... .. . ... ... : A-3 01 A ... ... : F#3 01 6 ... ... : G#2 01 F P80 ...
ROW 41 : ... .. B ... ... ... : ... .. E ... ... ... : ... .. . ... : ... .. C ... : ... .. . ... ... : ... .. 9 ... ... : ... .. 5 ... ... : ... .. D ... ...
ROW 42 : ... .. A ... ... ... : ... .. D ... ... ... : ... .. . ... : B-# 00 6 ... : ... .. . ... ... : ... .. 8 ... ... : ... .. 4 ... ... : ... .. 8 ... ...
ROW 43 : ... .. 8 ... ... ... : ... .. A ... ... ... : ... .. . ... : ... .. 5 ... : ... .. . ... ... : ... .. 7 ... ... : ... .. . ... ... : ... .. . ... ...
ROW 44 : ... .. . ... ... ... : ... .. . ... ... ... : ... .. . ... : ... .. . ... : ... .. . ... ... : ... .. . ... ... : F-3 01 6 ... ... : ... .. . ... ...
ROW 45 : ... .. . ... ... ... : ... .. . ... ... ... : ... .. . ... : ... .. . ... : ... .. . ... ... : ... .. 6 ... ... : ... .. 5 ... ... : ... .. . ... ...
ROW 46 : ... .. . ... ... ... : ... .. . ... ... ... : ... .. . ... : ... .. 4 ... : ... .. . ... ... : ... .. 5 ... ... : ... .. 4 ... ... : ... .. . ... ...
ROW 47 : ... .. 1 ... ... ... : ... .. . ... ... ... : --- .. . ... : ... .. 3 ... : ... .. . ... ... : ... .. . ... ... : ... .. . ... ... : --- .. . P7F ...
ROW 48 : D-2 00 C ... ... ... : ... .. . ... ... ... : A-3 00 . ... : 1-# 00 F ... : ... .. . ... ... : G#3 01 A ... ... : C-3 01 6 ... ... : A-1 01 F P80 ...
ROW 49 : ... .. B ... ... ... : ... .. . ... ... ... : ... .. . ... : ... .. C ... : ... .. . ... ... : ... .. 9 ... ... : ... .. 5 ... ... : ... .. D ... ...
ROW 4A : ... .. A ... ... ... : ... .. . ... ... ... : ... .. . ... : ... .. 6 ... : ... .. . ... ... : ... .. 8 ... ... : ... .. 4 ... ... : ... .. 8 ... ...
ROW 4B : ... .. 8 ... ... ... : ... .. . ... ... ... : ... .. . ... : ... .. 3 ... : ... .. . ... ... : ... .. 7 ... ... : ... .. . ... ... : ... .. . ... ...
ROW 4C : ... .. . ... ... ... : ... .. . ... ... ... : ... .. . ... : ... .. 2 ... : ... .. . ... ... : ... .. . ... ... : B-2 01 6 ... ... : ... .. . ... ...
ROW 4D : ... .. . ... ... ... : ... .. . ... ... ... : ... .. . ... : ... .. 0 ... : ... .. . ... ... : ... .. 6 ... ... : ... .. 5 ... ... : ... .. . ... ...
ROW 4E : ... .. . ... ... ... : ... .. . ... ... ... : ... .. . ... : ... .. . ... : ... .. . ... ... : ... .. 5 ... ... : ... .. 4 ... ... : ... .. . ... ...
ROW 4F : ... .. 1 ... ... ... : ... .. . ... ... ... : --- .. . ... : ... .. . ... : ... .. . ... ... : ... .. . ... ... : ... .. . ... ... : --- .. . P7F ...
ROW 50 : G#1 00 C ... ... ... : ... .. . ... ... ... : F#3 00 . ... : 5-# 00 F ... : ... .. . ... ... : D-3 01 A ... ... : F#3 01 6 ... ... : F#1 01 F P80 ...
ROW 51 : ... .. B ... ... ... : ... .. . ... ... ... : ... .. . ... : ... .. C ... : ... .. . ... ... : ... .. 9 ... ... : ... .. 5 ... ... : ... .. D ... ...
ROW 52 : ... .. 8 ... ... ... : ... .. . P84 ... ... : ... .. . ... : B-# 00 6 ... : ... .. . ... ... : ... .. 5 ... ... : ... .. 4 ... ... : ... .. 8 ... ...
ROW 53 : ... .. 1 ... ... ... : G-4 00 A P7E ... ... : ... .. . ... : ... .. 5 ... : ... .. . ... ... : ... .. . ... ... : ... .. . ... ... : ... .. . ... ...
ROW 54 : ... .. C ... ... ... : ... .. . P7D ... ... : ... .. . ... : ... .. . ... : ... .. . ... ... : ... .. A ... ... : F-3 01 6 ... ... : ... .. . ... ...
ROW 55 : ... .. B ... ... ... : F#4 00 A P82 ... ... : ... .. . ... : ... .. . ... : ... .. . ... ... : ... .. 9 ... ... : ... .. 5 ... ... : ... .. . ... ...
ROW 56 : ... .. 8 ... ... ... : ... .. . P7E ... ... : ... .. . ... : ... .. 4 ... : ... .. . ... ... : ... .. 5 ... ... : ... .. 4 ... ... : ... .. . ... ...
ROW 57 : ... .. 1 ... ... ... : F-4 00 A P84 ... ... : --- .. . ... : ... .. 3 ... : ... .. . ... ... : ... .. . ... ... : ... .. . ... ... : --- .. . P81 ...
ROW 58 : F#2 00 C ... ... ... : ... .. . P83 ... ... : G#3 00 . ... : 1-# 00 F ... : ... .. . ... ... : C-4 01 A ... ... : C-3 01 6 ... ... : G#1 01 F P80 ...
ROW 59 : ... .. B ... ... ... : F#4 00 A P7C ... ... : ... .. . ... : ... .. C ... : ... .. . ... ... : ... .. 9 ... ... : ... .. 5 ... ... : ... .. D ... ...
ROW 5A : ... .. A ... ... ... : ... .. . P80 ... ... : ... .. . ... : ... .. 6 ... : ... .. . ... ... : ... .. 8 ... ... : ... .. 4 ... ... : ... .. 8 ... ...
ROW 5B : ... .. 8 ... ... ... : ... .. . P83 ... ... : ... .. . ... : ... .. 3 ... : ... .. . ... ... : ... .. 7 ... ... : ... .. . ... ... : ... .. . ... ...
ROW 5C : ... .. . ... ... ... : G-4 00 A P7E ... ... : ... .. . ... : ... .. 2 ... : ... .. . ... ... : ... .. . ... ... : B-2 01 6 ... ... : ... .. . ... ...
ROW 5D : ... .. . ... ... ... : ... .. . ... ... ... : ... .. . ... : ... .. 0 ... : ... .. . ... ... : ... .. 6 ... ... : ... .. 5 ... ... : ... .. . ... ...
ROW 5E : ... .. . ... ... ... : F#4 00 A P82 ... ... : ... .. . ... : ... .. . ... : ... .. . ... ... : ... .. 5 ... ... : ... .. 4 ... ... : ... .. . ... ...
ROW 5F : ... .. 1 ... ... ... : ... .. . P7F ... ... : --- .. . ... : ... .. . ... : ... .. . ... ... : ... .. . ... ... : ... .. . ... ... : --- .. . P7E ...
ROW 60 : D-2 00 C ... ... ... : F-4 00 A P84 ... ... : D-3 00 . ... : ... .. F ... : ... .. . ... ... : G#3 01 A ... ... : F#3 01 6 ... ... : D-1 01 F P80 ...
ROW 61 : ... .. B ... ... ... : ... .. . P83 ... ... : ... .. . ... : ... .. C ... : ... .. . ... ... : ... .. 9 ... ... : ... .. 5 ... ... : ... .. D ... ...
ROW 62 : ... .. A ... ... ... : F#4 00 A P7C ... ... : ... .. . ... : B-# 00 6 ... : ... .. . ... ... : ... .. 8 ... ... : ... .. 4 ... ... : ... .. 8 ... ...
ROW 63 : ... .. 8 ... ... ... : ... .. . P80 ... ... : ... .. . ... : ... .. 5 ... : ... .. . ... ... : ... .. 7 ... ... : ... .. . ... ... : ... .. . ... ...
ROW 64 : ... .. . ... ... ... : ... .. . P83 ... ... : ... .. . ... : ... .. . ... : ... .. . ... ... : ... .. . ... ... : F-3 01 6 ... ... : ... .. . ... ...
ROW 65 : ... .. . ... ... ... : G-4 00 A P7E ... ... : ... .. . ... : ... .. . ... : ... .. . ... ... : ... .. 6 ... ... : ... .. 5 ... ... : ... .. . ... ...
ROW 66 : ... .. . ... ... ... : ... .. . ... ... ... : ... .. . ... : ... .. 4 ... : ... .. . ... ... : ... .. 5 ... ... : ... .. 4 ... ... : ... .. . ... ...
ROW 67 : ... .. 1 ... ... ... : F#4 00 A P83 ... ... : --- .. . ... : ... .. 3 ... : ... .. . ... ... : ... .. . ... ... : ... .. . ... ... : --- .. . ... ...
ROW 68 : A-2 00 C ... ... ... : ... .. . P80 ... ... : A-3 00 . ... : 1-# 00 F ... : ... .. . ... ... : D#4 01 A ... ... : C-3 01 6 ... ... : A-1 01 F ... ...
ROW 69 : ... .. B ... ... ... : ... .. 2 P7C ... ... : ... .. . ... : ... .. C ... : ... .. . ... ... : ... .. 9 ... ... : ... .. 5 ... ... : ... .. D ... ...
ROW 6A : ... .. A ... ... ... : F-4 00 2 P83 ... ... : ... .. . ... : ... .. 6 ... : ... .. . ... ... : ... .. 8 ... ... : ... .. 4 ... ... : ... .. 8 ... ...
ROW 6B : ... .. 8 ... ... ... : ... .. . P84 ... ... : ... .. . ... : ... .. 3 ... : ... .. . ... ... : ... .. 7 ... ... : ... .. . ... ... : ... .. . ... ...
ROW 6C : ... .. C ... ... ... : F#4 00 1 P7F ... ... : ... .. . ... : ... .. 2 ... : ... .. . ... ... : ... .. A ... ... : B-2 01 6 ... ... : ... .. . ... ...
ROW 6D : ... .. B ... ... ... : ... .. . P82 ... ... : ... .. . ... : ... .. 0 ... : ... .. . ... ... : ... .. 9 ... ... : ... .. 5 ... ... : ... .. . ... ...
ROW 6E : ... .. A ... ... ... : G-4 00 1 P7E ... ... : ... .. . ... : ... .. . ... : ... .. . ... ... : ... .. 8 ... ... : ... .. 4 ... ... : ... .. . ... ...
ROW 6F : ... .. 0 ... ... ... : ... .. 0 ... ... ... : --- .. . ... : ... .. . ... : ... .. . ... ... : --- .. . ... ... : ... .. . ... ... : --- .. . P7F ...
ROW 70 : G#2 00 C P80 ... ... : ... .. . ... ... ... : G#3 00 . ... : 8-# 00 F ... : ... .. . ... ... : D-4 01 A ... ... : F#3 01 6 ... ... : G#1 01 F P80 ...
ROW 71 : ... .. B ... ... ... : ... .. . ... ... ... : ... .. . ... : ... .. C ... : ... .. . ... ... : ... .. 9 ... ... : ... .. 5 ... ... : ... .. D ... ...
ROW 72 : ... .. A ... ... ... : ... .. . ... ... ... : ... .. . ... : ... .. 6 ... : ... .. . ... ... : ... .. 8 ... ... : ... .. 4 ... ... : ... .. 8 ... ...
ROW 73 : ... .. 0 ... ... ... : ... .. . ... ... ... : ... .. . ... : ... .. 3 ... : ... .. . ... ... : --- .. . ... ... : ... .. . ... ... : ... .. . ... ...
ROW 74 : G#2 00 C P80 ... ... : G#3 00 8 P80 ... ... : ... .. . ... : ... .. F ... : ... .. . ... ... : D-4 01 A ... ... : F-3 01 6 ... ... : ... .. . ... ...
ROW 75 : ... .. B ... ... ... : ... .. 7 ... ... ... : ... .. . ... : ... .. C ... : ... .. . ... ... : ... .. 9 ... ... : ... .. 5 ... ... : ... .. . ... ...
ROW 76 : ... .. A ... ... ... : ... .. 6 ... ... ... : ... .. . ... : ... .. 6 ... : ... .. . ... ... : ... .. 8 ... ... : ... .. 4 ... ... : ... .. . ... ...
ROW 77 : ... .. 0 ... ... ... : ... .. 5 ... ... ... : --- .. . ... : ... .. 3 ... : ... .. . ... ... : --- .. . ... ... : ... .. . ... ... : --- .. . P7E ...
ROW 78 : D-3 00 C P80 ... ... : A-3 00 8 ... ... ... : D-4 00 . ... : 1-# 00 F ... : ... .. . ... ... : G#4 01 A ... ... : C-3 01 6 ... ... : D-2 01 F P80 ...
ROW 79 : ... .. B ... ... ... : ... .. 7 ... ... ... : ... .. . ... : ... .. C ... : ... .. . ... ... : ... .. 9 ... ... : ... .. 5 ... ... : ... .. D ... ...
ROW 7A : ... .. A ... ... ... : ... .. 6 ... ... ... : ... .. . ... : ... .. 6 ... : ... .. . ... ... : ... .. 8 ... ... : ... .. 4 ... ... : ... .. 8 ... ...
ROW 7B : ... .. 0 ... ... ... : ... .. 5 ... ... ... : ... .. . ... : ... .. 3 ... : ... .. . ... ... : --- .. . ... ... : ... .. . ... ... : ... .. . ... ...
ROW 7C : D-3 00 C P80 ... ... : B-3 00 9 ... ... ... : ... .. . ... : ... .. F ... : ... .. . ... ... : G#4 01 A ... ... : B-2 01 6 ... ... : ... .. . ... ...
ROW 7D : ... .. B ... ... ... : ... .. 8 ... ... ... : ... .. . ... : ... .. C ... : ... .. . ... ... : ... .. 9 ... ... : ... .. 5 ... ... : ... .. . ... ...
ROW 7E : ... .. A ... ... ... : ... .. 7 ... ... ... : ... .. . ... : ... .. 6 ... : ... .. . ... ... : ... .. 8 ... ... : ... .. 4 ... ... : ... .. . ... ...
ROW 7F : ... .. 0 ... ... ... : ... .. 6 ... ... ... : --- .. . ... : ... .. 3 ... : ... .. . ... ... : --- .. . ... ... : ... .. . ... ... : --- .. . ... ...
ROW 80 : D#3 00 C P80 ... ... : C-4 00 9 ... ... ... : C-4 00 . ... : 7-# 00 F ... : ... .. . ... ... : A-4 01 A ... ... : F#3 01 6 ... ... : C-2 01 F ... ...
ROW 81 : ... .. B ... ... ... : ... .. 8 ... ... ... : ... .. . ... : ... .. C ... : ... .. . ... ... : ... .. 9 ... ... : ... .. 5 ... ... : ... .. D ... ...
ROW 82 : ... .. A ... ... ... : ... .. . ... ... ... : ... .. . ... : ... .. 6 ... : ... .. . ... ... : ... .. 8 ... ... : ... .. 4 ... ... : ... .. 8 ... ...
ROW 83 : ... .. 0 ... ... ... : ... .. 6 ... ... ... : ... .. . ... : ... .. 3 ... : ... .. . ... ... : --- .. . ... ... : ... .. . ... ... : ... .. . ... ...
ROW 84 : D#3 00 C P80 ... ... : D-4 00 A ... ... ... : ... .. . ... : ... .. F ... : ... .. . ... ... : A-4 01 A ... ... : F-3 01 6 ... ... : ... .. . ... ...
ROW 85 : ... .. B ... ... ... : ... .. 9 ... ... ... : ... .. . ... : ... .. C ... : ... .. . ... ... : ... .. 9 ... ... : ... .. 5 ... ... : ... .. . ... ...
ROW 86 : ... .. A ... ... ... : ... .. 8 ... ... ... : ... .. . ... : ... .. 6 ... : ... .. . ... ... : ... .. 8 ... ... : ... .. 4 ... ... : ... .. . ... ...
ROW 87 : ... .. 0 ... ... ... : ... .. 6 ... ... ... : ... .. . ... : ... .. 3 ... : ... .. . ... ... : --- .. . ... ... : ... .. . ... ... : ... .. . ... ...
ROW 88 : F-3 00 C P80 ... ... : D#4 00 B ... ... ... : D-4 00 . P7E : 1-# 00 F ... : ... .. . ... ... : ... .. . ... ... : ... .. . ... ... : E-2 01 F P8C ...
ROW 89 : ... .. B ... ... ... : ... .. A ... ... ... : B-3 00 . P82 : ... .. C ... : ... .. . ... ... : ... .. . ... ... : ... .. 3 ... ... : ... .. D P6C ...
ROW 8A : ... .. A ... ... ... : ... .. 9 ... ... ... : A-3 00 . P7E : ... .. 6 ... : ... .. . ... ... : ... .. . ... ... : ... .. . ... ... : D#2 01 8 P7A ...
ROW 8B : ... .. 0 ... ... ... : ... .. 7 ... ... ... : G-3 00 . P7D : ... .. 3 ... : ... .. . ... ... : ... .. . ... ... : ... .. . ... ... : D-2 01 8 P8B ...
ROW 8C : F-3 00 C P80 ... ... : F-4 00 B ... ... ... : F-3 00 . P80 : ... .. F ... : ... .. . ... ... : ... .. . ... ... : ... .. 1 ... ... : ... .. . P6B ...
ROW 8D : ... .. B ... ... ... : ... .. A ... ... ... : D#3 00 . P88 : ... .. C ... : ... .. . ... ... : ... .. . ... ... : ... .. . ... ... : C#2 01 8 P7E ...
ROW 8E : ... .. A ... ... ... : ... .. . ... ... ... : D-3 00 . P7D : ... .. 6 ... : ... .. . ... ... : ... .. . ... ... : ... .. . ... ... : C-2 01 8 P95 ...
ROW 8F : ... .. 0 ... ... ... : ... .. 8 ... ... ... : C-3 00 . P8C : ... .. 3 ... : ... .. . ... ... : ... .. . ... ... : ... .. . ... ... : ... .. . P75 ...
ROW 90 : F#3 00 C P80 ... ... : F#4 00 C ... ... ... : D#3 00 . P80 : 4-# 00 F ... : ... .. . ... ... : C-4 01 A ... ... : C-4 01 A ... ... : D#1 01 F P80 ...
ROW 91 : ... .. B ... ... ... : ... .. B ... ... ... : ... .. . ... : ... .. C ... : ... .. . ... ... : ... .. 9 ... ... : ... .. 9 ... ... : ... .. D ... ...
ROW 92 : ... .. A ... ... ... : ... .. A ... ... ... : ... .. . ... : ... .. 6 ... : ... .. . ... ... : ... .. 8 ... ... : ... .. 8 ... ... : ... .. 8 ... ...
ROW 93 : ... .. 0 ... ... ... : ... .. 8 ... ... ... : ... .. . ... : ... .. 3 ... : ... .. . ... ... : ... .. 7 ... ... : ... .. 7 ... ... : ... .. . ... ...
ROW 94 : F#3 00 C P80 ... ... : G#4 00 D ... ... ... : ... .. . ... : ... .. F ... : ... .. . ... ... : ... .. . ... ... : ... .. . ... ... : ... .. . ... ...
ROW 95 : ... .. B ... ... ... : ... .. C ... ... ... : ... .. . ... : ... .. C ... : ... .. . ... ... : ... .. 6 ... ... : ... .. 6 ... ... : ... .. . ... ...
ROW 96 : ... .. A ... ... ... : ... .. B ... ... ... : ... .. . ... : ... .. 6 ... : ... .. . ... ... : ... .. . ... ... : ... .. . ... ... : ... .. . ... ...
ROW 97 : ... .. 0 ... ... ... : ... .. 8 ... ... ... : ... .. . ... : ... .. 3 ... : ... .. . ... ... : ... .. 5 ... ... : ... .. 5 ... ... : ... .. . ... ...
ROW 98 : G#3 00 C P80 ... ... : A-4 00 D ... ... ... : F#3 00 . P81 : 1-# 00 F ... : ... .. . ... ... : ... .. . ... ... : ... .. . ... ... : G#1 01 F P60 ...
ROW 99 : ... .. B ... ... ... : ... .. C ... ... ... : E-3 00 . P86 : ... .. C ... : ... .. . ... ... : ... .. . ... ... : ... .. . ... ... : G-1 01 D P8A ...
ROW 9A : ... .. A ... ... ... : ... .. . ... ... ... : D#3 00 . P7B : ... .. 6 ... : ... .. . ... ... : ... .. . ... ... : ... .. . ... ... : ... .. 8 P6A ...
ROW 9B : ... .. 0 ... ... ... : ... .. 9 ... ... ... : C#3 00 . P87 : ... .. 3 ... : ... .. . ... ... : ... .. . ... ... : ... .. . ... ... : F#1 01 8 P97 ...
ROW 9C : G#3 00 C P80 ... ... : B-4 00 E ... ... ... : C-3 00 . P7F : ... .. F ... : ... .. . ... ... : ... .. . ... ... : ... .. . ... ... : ... .. . P77 ...
ROW 9D : ... .. B ... ... ... : ... .. D ... ... ... : B-2 00 . P78 : ... .. C ... : ... .. . ... ... : ... .. . ... ... : ... .. . ... ... : F-1 01 8 PA9 ...
ROW 9E : ... .. A ... ... ... : ... .. . ... ... ... : A#2 00 . P73 : ... .. 6 ... : ... .. . ... ... : ... .. . ... ... : ... .. . ... ... : ... .. . P89 ...
ROW 9F : ... .. 0 ... ... ... : ... .. A ... ... ... : G#2 00 . P8E : ... .. 3 ... : ... .. . ... ... : ... .. . ... ... : ... .. . ... ... : ... .. . P69 ...
ROW A0 : A-3 00 C P80 ... ... : C-5 00 8 ... ... ... : E-5 00 . P80 : 9-# 00 D ... : ... .. . ... ... : ... .. A ... ... : ... .. A ... ... : E-3 01 F P76 ...
ROW A1 : ... .. B ... ... ... : ... .. 7 ... ... ... : F#4 00 . ... : ... .. B ... : ... .. . ... ... : ... .. 9 ... ... : ... .. 9 ... ... : D-3 01 D P85 ...
ROW A2 : ... .. A ... ... ... : ... .. . ... ... ... : B-3 00 . ... : ... .. . ... : ... .. . ... ... : ... .. 8 ... ... : ... .. 8 ... ... : C#3 01 8 P7F ...
ROW A3 : ... .. 8 ... ... ... : ... .. 6 ... ... ... : A#3 00 . ... : ... .. A ... : ... .. . ... ... : ... .. 7 ... ... : ... .. 7 ... ... : C-3 01 8 P7B ...
ROW A4 : ... .. . ... ... ... : A-4 00 8 ... ... ... : F-3 00 . ... : ... .. 8 ... : ... .. . ... ... : E-4 01 A P85 ... : E-4 01 A P83 ... : B-2 01 8 P78 ...
ROW A5 : ... .. . ... ... ... : ... .. 7 ... ... ... : ... .. . ... : ... .. 7 ... : ... .. . ... ... : A#4 01 9 P83 ... : A#4 01 9 P81 ... : A#2 01 8 P76 ...
ROW A6 : ... .. . ... ... ... : ... .. . ... ... ... : D#3 00 . P88 : ... .. 6 ... : ... .. . ... ... : C-5 01 8 P81 ... : C-5 01 8 P7F ... : A-2 01 8 P77 ...
ROW A7 : ... .. 1 ... ... ... : ... .. 6 ... ... ... : D-3 00 . P7D : ... .. . ... : ... .. . ... ... : ... .. 7 ... ... : ... .. 7 ... ... : G#2 01 8 P7A ...
ROW A8 : F-1 00 C ... ... ... : F-4 00 8 ... ... ... : C-3 00 . P8C : 1-# 00 F ... : ... .. . ... ... : ... .. . ... ... : ... .. . ... ... : G-2 01 8 P7E ...
ROW A9 : ... .. B ... ... ... : ... .. 7 ... ... ... : B-2 00 . P85 : ... .. C ... : ... .. . ... ... : ... .. 6 ... ... : ... .. 6 ... ... : F#2 01 8 P85 ...
ROW AA : ... .. A ... ... ... : ... .. . ... ... ... : A#2 00 . P80 : ... .. 6 ... : ... .. . ... ... : ... .. . ... ... : ... .. . ... ... : F-2 01 8 P8E ...
ROW AB : ... .. 8 ... ... ... : ... .. 6 ... ... ... : A-2 00 . P7C : ... .. 3 ... : ... .. . ... ... : ... .. 5 ... ... : ... .. 5 ... ... : ... .. . P6E ...
ROW AC : ... .. . ... ... ... : C-4 00 8 ... ... ... : G#2 00 . P7B : ... .. F ... : ... .. . ... ... : ... .. . ... ... : ... .. . ... ... : E-2 01 8 P7A ...
ROW AD : ... .. . ... ... ... : ... .. 7 ... ... ... : G-2 00 . ... : ... .. C ... : ... .. . ... ... : ... .. . ... ... : ... .. . ... ... : D#2 01 8 P88 ...
ROW AE : ... .. . ... ... ... : ... .. . ... ... ... : F#2 00 . P7D : ... .. 6 ... : ... .. . ... ... : ... .. . ... ... : ... .. . ... ... : ... .. . P68 ...
ROW AF : ... .. 1 ... ... ... : ... .. 6 ... ... ... : F-2 00 . P81 : ... .. 3 ... : ... .. . ... ... : ... .. . ... ... : ... .. . ... ... : D-2 01 8 P79 ...
ROW B0 : ... .. C ... ... ... : A-3 00 8 ... ... ... : F-4 00 . P80 : ... .. F ... : ... .. . ... ... : ... .. . ... ... : ... .. . ... ... : F-4 01 F P80 ...
ROW B1 : ... .. B ... ... ... : ... .. 7 ... ... ... : ... .. . ... : ... .. C ... : ... .. . ... ... : ... .. . ... ... : ... .. . ... ... : ... .. D ... ...
ROW B2 : ... .. A ... ... ... : ... .. . ... ... ... : ... .. . ... : ... .. 6 ... : ... .. . ... ... : ... .. . ... ... : ... .. . ... ... : ... .. 8 ... ...
ROW B3 : ... .. 8 ... ... ... : ... .. 6 ... ... ... : ... .. . ... : ... .. 3 ... : ... .. . ... ... : ... .. . ... ... : ... .. . ... ... : ... .. . ... ...
ROW B4 : ... .. . ... ... ... : F-3 00 8 ... ... ... : ... .. . ... : ... .. 2 ... : ... .. . ... ... : ... .. . ... ... : ... .. . ... ... : ... .. . ... ...
ROW B5 : ... .. . ... ... ... : ... .. 7 ... ... ... : ... .. . ... : ... .. 0 ... : ... .. . ... ... : ... .. . ... ... : ... .. . ... ... : ... .. . ... ...
ROW B6 : ... .. . ... ... ... : ... .. . ... ... ... : ... .. . ... : ... .. . ... : ... .. . ... ... : ... .. . ... ... : ... .. . ... ... : ... .. . ... ...
ROW B7 : ... .. 1 ... ... ... : ... .. 6 ... ... ... : ... .. . ... : ... .. . ... : ... .. . ... ... : ... .. . ... ... : ... .. . ... ... : ... .. . ... ...
ROW B8 : A-3 00 C ... ... ... : C-5 00 8 ... ... ... : E-4 00 . ... : 9-# 00 D ... : ... .. . ... ... : ... .. A P80 ... : ... .. A P7E ... : F-2 01 F ... ...
ROW B9 : ... .. B ... ... ... : ... .. 7 ... ... ... : F#3 00 . ... : ... .. B ... : ... .. . ... ... : ... .. 9 P7F ... : B-4 01 9 P83 ... : ... .. D ... ...
ROW BA : ... .. A ... ... ... : ... .. . ... ... ... : B-2 00 . ... : ... .. . ... : ... .. . ... ... : ... .. 8 P7E ... : ... .. 8 P82 ... : ... .. 8 ... ...
ROW BB : ... .. 8 ... ... ... : ... .. 6 ... ... ... : A#2 00 . ... : ... .. A ... : ... .. . ... ... : B-4 01 7 P83 ... : ... .. 7 P81 ... : ... .. . ... ...
ROW BC : ... .. . ... ... ... : A-4 00 8 ... ... ... : F-2 00 . ... : ... .. 8 ... : ... .. . ... ... : ... .. . P82 ... : ... .. . P80 ... : ... .. . ... ...
ROW BD : ... .. . ... ... ... : ... .. 7 ... ... ... : ... .. . ... : ... .. 7 ... : ... .. . ... ... : ... .. 6 P81 ... : ... .. 6 P7F ... : ... .. . ... ...
ROW BE : ... .. . ... ... ... : ... .. . ... ... ... : ... .. . ... : ... .. 6 ... : ... .. . ... ... : ... .. . ... ... : ... .. . ... ... : ... .. . ... ...
ROW BF : ... .. 1 ... ... ... : ... .. 6 ... ... ... : ... .. . ... : ... .. . ... : ... .. . ... ... : ... .. 5 ... ... : ... .. 5 ... ... : ... .. . ... ...
ROW C0 : F-1 00 C ... ... ... : F-4 00 8 ... ... ... : E-2 00 . P86 : 1-# 00 F ... : ... .. . ... ... : ... .. . ... ... : ... .. . ... ... : E-2 01 8 P8C ...
ROW C1 : ... .. B ... ... ... : ... .. 7 ... ... ... : D#2 00 . P8E : ... .. C ... : ... .. . ... ... : ... .. . ... ... : ... .. . ... ... : ... .. . P6C ...
ROW C2 : ... .. A ... ... ... : ... .. . ... ... ... : ... .. . P6E : ... .. 6 ... : ... .. . ... ... : ... .. . ... ... : ... .. . ... ... : D#2 01 8 P7A ...
ROW C3 : ... .. 8 ... ... ... : ... .. 6 ... ... ... : D-2 00 . P79 : ... .. 3 ... : ... .. . ... ... : ... .. . ... ... : ... .. . ... ... : D-2 01 8 P8B ...
ROW C4 : ... .. . ... ... ... : C-4 00 8 ... ... ... : C#2 00 . P86 : ... .. 2 ... : ... .. . ... ... : ... .. . ... ... : ... .. . ... ... : ... .. . P6B ...
ROW C5 : ... .. . ... ... ... : ... .. 7 ... ... ... : C-2 00 . P96 : ... .. 0 ... : ... .. . ... ... : ... .. . ... ... : ... .. . ... ... : C#2 01 8 P7E ...
ROW C6 : ... .. . ... ... ... : ... .. . ... ... ... : ... .. . P76 : ... .. . ... : ... .. . ... ... : ... .. . ... ... : ... .. . ... ... : C-2 01 8 P95 ...
ROW C7 : ... .. 1 ... ... ... : ... .. 6 ... ... ... : B-1 00 . P89 : ... .. . ... : ... .. . ... ... : ... .. . ... ... : ... .. . ... ... : ... .. . P75 ...
ROW C8 : ... .. C ... ... ... : A-3 00 8 ... ... ... : F-4 00 . P80 : ... .. F ... : ... .. . ... ... : ... .. . ... ... : ... .. . ... ... : F-4 01 F P80 ...
ROW C9 : ... .. B ... ... ... : ... .. 7 ... ... ... : ... .. . ... : ... .. C ... : ... .. . ... ... : ... .. . ... ... : ... .. . ... ... : ... .. D ... ...
ROW CA : ... .. A ... ... ... : ... .. . ... ... ... : ... .. . ... : ... .. 6 ... : ... .. . ... ... : ... .. . ... ... : ... .. . ... ... : ... .. 8 ... ...
ROW CB : ... .. 8 ... ... ... : ... .. 6 ... ... ... : ... .. . ... : ... .. 3 ... : ... .. . ... ... : ... .. . ... ... : ... .. . ... ... : ... .. . ... ...
ROW CC : ... .. . ... ... ... : F-3 00 8 ... ... ... : ... .. . ... : ... .. 2 ... : ... .. . ... ... : ... .. . ... ... : ... .. . ... ... : ... .. . ... ...
ROW CD : ... .. . ... ... ... : ... .. 7 ... ... ... : ... .. . ... : ... .. 0 ... : ... .. . ... ... : ... .. . ... ... : ... .. . ... ... : ... .. . ... ...
ROW CE : ... .. . ... ... ... : ... .. . ... ... ... : ... .. . ... : ... .. . ... : ... .. . ... ... : ... .. . ... ... : ... .. . ... ... : ... .. . ... ...
ROW CF : ... .. 1 ... ... ... : ... .. 6 ... ... ... : ... .. . ... : ... .. . ... : ... .. . ... ... : ... .. . ... ... : ... .. . ... ... : ... .. . ... ...
ROW D0 : G#3 00 C ... ... ... : C#5 00 8 ... ... ... : E-5 00 . ... : 9-# 00 D ... : ... .. . ... ... : A-4 01 A P7F ... : A-4 01 A P7D ... : F-3 01 F ... ...
ROW D1 : ... .. B ... ... ... : ... .. 7 ... ... ... : F#4 00 . ... : ... .. B ... : ... .. . ... ... : G-4 01 9 ... ... : G-4 01 9 ... ... : ... .. D ... ...
ROW D2 : ... .. A ... ... ... : ... .. . ... ... ... : B-3 00 . ... : ... .. . ... : ... .. . ... ... : F-4 01 8 P80 ... : F-4 01 8 P7E ... : ... .. 8 ... ...
ROW D3 : ... .. 8 ... ... ... : ... .. 6 ... ... ... : A#3 00 . ... : ... .. A ... : ... .. . ... ... : D#4 01 7 P84 ... : D#4 01 7 P82 ... : ... .. . ... ...
ROW D4 : ... .. . ... ... ... : B-4 00 8 ... ... ... : F-3 00 . ... : ... .. 8 ... : ... .. . ... ... : D-4 01 7 P7E ... : D-4 01 7 P7C ... : ... .. . ... ...
ROW D5 : ... .. . ... ... ... : ... .. 7 ... ... ... : ... .. . ... : ... .. 7 ... : ... .. . ... ... : C#4 01 6 P81 ... : C#4 01 6 P7F ... : ... .. . ... ...
ROW D6 : ... .. . ... ... ... : ... .. . ... ... ... : ... .. . ... : ... .. 6 ... : ... .. . ... ... : ... .. . ... ... : ... .. . ... ... : ... .. . ... ...
ROW D7 : ... .. 1 ... ... ... : ... .. 6 ... ... ... : ... .. . ... : ... .. . ... : ... .. . ... ... : ... .. 5 ... ... : ... .. 5 ... ... : ... .. . ... ...
ROW D8 : F-1 00 C ... ... ... : F-4 00 8 ... ... ... : ... .. . ... : 1-# 00 F ... : ... .. . ... ... : ... .. . ... ... : ... .. . ... ... : ... .. . ... ...
ROW D9 : ... .. B ... ... ... : ... .. 7 ... ... ... : ... .. . ... : ... .. C ... : ... .. . ... ... : ... .. . ... ... : ... .. . ... ... : ... .. . ... ...
ROW DA : ... .. A ... ... ... : ... .. . ... ... ... : ... .. . ... : ... .. 6 ... : ... .. . ... ... : ... .. . ... ... : ... .. . ... ... : ... .. . ... ...
ROW DB : ... .. 8 ... ... ... : ... .. 6 ... ... ... : ... .. . ... : ... .. 3 ... : ... .. . ... ... : ... .. . ... ... : ... .. . ... ... : ... .. . ... ...
ROW DC : ... .. . ... ... ... : D#4 00 8 ... ... ... : ... .. . ... : ... .. 2 ... : ... .. . ... ... : ... .. . ... ... : ... .. . ... ... : ... .. . ... ...
ROW DD : ... .. . ... ... ... : ... .. 7 ... ... ... : ... .. . ... : ... .. 0 ... : ... .. . ... ... : ... .. . ... ... : ... .. . ... ... : ... .. . ... ...
ROW DE : ... .. . ... ... ... : ... .. . ... ... ... : ... .. . ... : ... .. . ... : ... .. . ... ... : ... .. . ... ... : ... .. . ... ... : ... .. . ... ...
ROW DF : ... .. 1 ... ... ... : ... .. 6 ... ... ... : ... .. . ... : ... .. . ... : ... .. . ... ... : ... .. . ... ... : ... .. . ... ... : ... .. . ... ...
ROW E0 : ... .. C ... ... ... : B-3 00 8 ... ... ... : D#3 00 . ... : ... .. F ... : ... .. . ... ... : ... .. . ... ... : ... .. . ... ... : D#3 01 F ... ...
ROW E1 : ... .. B ... ... ... : ... .. 7 ... ... ... : ... .. . ... : ... .. C ... : ... .. . ... ... : ... .. . ... ... : ... .. . ... ... : ... .. D ... ...
ROW E2 : ... .. A ... ... ... : ... .. . ... ... ... : ... .. . ... : ... .. 6 ... : ... .. . ... ... : ... .. . ... ... : ... .. . ... ... : ... .. 8 ... ...
ROW E3 : ... .. 8 ... ... ... : ... .. 6 ... ... ... : ... .. . ... : ... .. 3 ... : ... .. . ... ... : ... .. . ... ... : ... .. . ... ... : ... .. . ... ...
ROW E4 : ... .. . ... ... ... : A-3 00 8 ... ... ... : ... .. . ... : ... .. 2 ... : ... .. . ... ... : ... .. . P85 ... : ... .. . P83 ... : ... .. . ... ...
ROW E5 : ... .. . ... ... ... : ... .. 7 ... ... ... : ... .. . ... : ... .. 0 ... : ... .. . ... ... : D-4 01 5 P7B ... : ... .. . P85 ... : ... .. . ... ...
ROW E6 : ... .. . ... ... ... : ... .. . ... ... ... : ... .. . ... : ... .. . ... : ... .. . ... ... : C#4 01 5 P86 ... : ... .. . P84 ... : ... .. . ... ...
ROW E7 : ... .. 1 ... ... ... : ... .. 6 ... ... ... : ... .. . ... : ... .. . ... : ... .. . ... ... : ... .. . P83 ... : ... .. . P81 ... : ... .. . ... ...
ROW E8 : G#3 00 C ... ... ... : C#5 00 8 ... ... ... : E-4 00 . ... : 9-# 00 D ... : ... .. . ... ... : ... .. . P7F ... : ... .. . P7D ... : F-2 01 F ... ...
ROW E9 : ... .. B ... ... ... : ... .. 7 ... ... ... : F#3 00 . ... : ... .. B ... : ... .. . ... ... : ... .. . P7C ... : C-4 01 5 P86 ... : ... .. D ... ...
ROW EA : ... .. A ... ... ... : ... .. . ... ... ... : B-2 00 . ... : ... .. . ... : ... .. . ... ... : ... .. . P7B ... : ... .. . P85 ... : ... .. 8 ... ...
ROW EB : ... .. 8 ... ... ... : ... .. 6 ... ... ... : A#2 00 . ... : ... .. A ... : ... .. . ... ... : ... .. . P7D ... : C#4 01 5 P7B ... : ... .. . ... ...
ROW EC : ... .. . ... ... ... : B-4 00 8 ... ... ... : F-2 00 . ... : ... .. 8 ... : ... .. . ... ... : ... .. . P81 ... : ... .. . P7F ... : ... .. . ... ...
ROW ED : ... .. . ... ... ... : ... .. 7 ... ... ... : ... .. . ... : ... .. 7 ... : ... .. . ... ... : ... .. . P84 ... : ... .. . P82 ... : ... .. . ... ...
ROW EE : ... .. . ... ... ... : ... .. . ... ... ... : ... .. . ... : ... .. 6 ... : ... .. . ... ... : D-4 01 5 P7B ... : ... .. . P85 ... : ... .. . ... ...
ROW EF : ... .. 1 ... ... ... : ... .. 6 ... ... ... : ... .. . ... : ... .. . ... : ... .. . ... ... : ... .. . ... ... : ... .. . ... ... : ... .. . ... ...
ROW F0 : F-1 00 C ... ... ... : F-4 00 8 ... ... ... : D#2 00 . ... : 1-# 00 F ... : ... .. . ... ... : C#4 01 5 P83 ... : ... .. . P81 ... : D#2 01 F ... ...
ROW F1 : ... .. B ... ... ... : ... .. 7 ... ... ... : ... .. . ... : ... .. C ... : ... .. . ... ... : ... .. . P80 ... : ... .. . P7E ... : ... .. D ... ...
ROW F2 : ... .. A ... ... ... : ... .. . ... ... ... : ... .. . ... : ... .. 6 ... : ... .. . ... ... : ... .. . P7C ... : C-4 01 5 P86 ... : ... .. 8 ... ...
ROW F3 : ... .. 8 ... ... ... : ... .. 6 ... ... ... : ... .. . ... : ... .. 3 ... : ... .. . ... ... : ... .. . P7B ... : ... .. . P85 ... : ... .. . ... ...
ROW F4 : ... .. . ... ... ... : D#4 00 8 ... ... ... : ... .. . ... : ... .. 2 ... : ... .. . ... ... : ... .. . P7D ... : C#4 01 5 P7B ... : ... .. . ... ...
ROW F5 : ... .. . ... ... ... : ... .. 7 ... ... ... : ... .. . ... : ... .. 0 ... : ... .. . ... ... : ... .. . P81 ... : ... .. . P7F ... : ... .. . ... ...
ROW F6 : ... .. . ... ... ... : ... .. . ... ... ... : ... .. . ... : ... .. . ... : ... .. . ... ... : ... .. . ... ... : ... .. . ... ... : ... .. . ... ...
ROW F7 : ... .. 1 ... ... ... : ... .. 6 ... ... ... : ... .. . ... : ... .. . ... : ... .. . ... ... : ... .. . ... ... : ... .. . ... ... : ... .. . ... ...
ROW F8 : ... .. C ... ... ... : B-3 00 8 ... ... ... : F-2 00 . ... : 8-# 00 8 ... : ... .. . ... ... : A-3 01 A P85 ... : A-3 01 A P83 ... : F-2 01 F ... ...
ROW F9 : ... .. B ... ... ... : ... .. 7 ... ... ... : ... .. . ... : ... .. 6 ... : ... .. . ... ... : F#3 01 9 ... ... : F#3 01 9 ... ... : ... .. D ... ...
ROW FA : ... .. A ... ... ... : ... .. . ... ... ... : ... .. . ... : ... .. 0 ... : ... .. . ... ... : F-3 01 8 P81 ... : F-3 01 8 P7F ... : ... .. 8 ... ...
ROW FB : ... .. 8 ... ... ... : ... .. 6 ... ... ... : ... .. . ... : ... .. . ... : ... .. . ... ... : ... .. 7 ... ... : ... .. 7 ... ... : ... .. . ... ...
ROW FC : ... .. . ... ... ... : A-3 00 8 ... ... ... : ... .. . ... : ... .. 8 ... : ... .. . ... ... : ... .. . ... ... : ... .. . ... ... : ... .. . ... ...
ROW FD : ... .. . ... ... ... : ... .. 7 ... ... ... : ... .. . ... : ... .. 6 ... : ... .. . ... ... : ... .. 6 ... ... : ... .. 6 ... ... : ... .. . ... ...
ROW FE : ... .. . ... ... ... : ... .. . ... ... ... : ... .. . ... : ... .. 0 ... : ... .. . ... ... : ... .. . ... ... : ... .. . ... ... : ... .. . ... ...
ROW FF : ... .. 1 ... ... ... : ... .. 6 ... ... ... : ... .. . ... : ... .. . ... : ... .. . ... ... : ... .. 5 ... ... : ... .. 5 ... ... : ... .. . ... ...

PATTERN 09
ROW 00 : A-3 00 C ... ... ... : C-5 00 8 ... ... ... : E-5 00 . ... : 9-# 00 D ... : ... .. . ... ... : G#3 01 A P7E ... : G#3 01 A P7C ... : F-3 01 F ... ...
ROW 01 : ... .. B ... ... ... : ... .. 7 ... ... ... : F#4 00 . ... : ... .. B ... : ... .. . ... ... : B-3 01 9 P83 ... : B-3 01 9 P81 ... : ... .. D ... ...
ROW 02 : ... .. A ... ... ... : ... .. . ... ... ... : B-3 00 . ... : ... .. . ... : ... .. . ... ... : C-4 01 8 P81 ... : C-4 01 8 P7F ... : ... .. 8 ... ...
ROW 03 : ... .. 8 ... ... ... : ... .. 6 ... ... ... : A#3 00 . ... : ... .. A ... : ... .. . ... ... : ... .. 7 ... ... : ... .. 7 ... ... : ... .. . ... ...
ROW 04 : ... .. . ... ... ... : A-4 00 8 ... ... ... : F-3 00 . ... : ... .. 8 ... : ... .. . ... ... : ... .. . ... ... : ... .. . ... ... : ... .. . ... ...
ROW 05 : ... .. . ... ... ... : ... .. 7 ... ... ... : ... .. . ... : ... .. 7 ... : ... .. . ... ... : ... .. 6 ... ... : ... .. 6 ... ... : ... .. . ... ...
ROW 06 : ... .. . ... ... ... : ... .. . ... ... ... : ... .. . ... : ... .. 6 ... : ... .. . ... ... : ... .. . ... ... : ... .. . ... ... : ... .. . ... ...
ROW 07 : ... .. 1 ... ... ... : ... .. 6 ... ... ... : ... .. . ... : ... .. . ... : ... .. . ... ... : ... .. 5 ... ... : ... .. 5 ... ... : ... .. . ... ...
ROW 08 : F-1 00 C ... ... ... : F-4 00 8 ... ... ... : D#3 00 . P88 : 1-# 00 F ... : ... .. . ... ... : ... .. . ... ... : ... .. . ... ... : E-3 01 8 P76 ...
ROW 09 : ... .. B ... ... ... : ... .. 7 ... ... ... : D-3 00 . P7D : ... .. C ... : ... .. . ... ... : ... .. . ... ... : ... .. . ... ... : D-3 01 8 P85 ...
ROW 0A : ... .. A ... ... ... : ... .. . ... ... ... : C-3 00 . P8C : ... .. 6 ... : ... .. . ... ... : ... .. . ... ... : ... .. . ... ... : C#3 01 8 P7F ...
ROW 0B : ... .. 8 ... ... ... : ... .. 6 ... ... ... : B-2 00 . P85 : ... .. 3 ... : ... .. . ... ... : ... .. . ... ... : ... .. . ... ... : C-3 01 8 P7B ...
ROW 0C : ... .. . ... ... ... : C-4 00 8 ... ... ... : A#2 00 . P80 : ... .. F ... : ... .. . ... ... : ... .. . ... ... : ... .. . ... ... : B-2 01 8 P78 ...
ROW 0D : ... .. . ... ... ... : ... .. 7 ... ... ... : A-2 00 . P7C : ... .. C ... : ... .. . ... ... : ... .. . ... ... : ... .. . ... ... : A#2 01 8 P76 ...
ROW 0E : ... .. . ... ... ... : ... .. . ... ... ... : G#2 00 . P7B : ... .. 6 ... : ... .. . ... ... : ... .. . ... ... : ... .. . ... ... : A-2 01 8 P77 ...
ROW 0F : ... .. 1 ... ... ... : ... .. 6 ... ... ... : G-2 00 . ... : ... .. 3 ... : ... .. . ... ... : ... .. . ... ... : ... .. . ... ... : G#2 01 8 P7A ...
ROW 10 : ... .. C ... ... ... : A-3 00 8 ... ... ... : F-4 00 . P80 : ... .. F ... : ... .. . ... ... : C#4 01 A P85 ... : C#4 01 A P83 ... : F-4 01 F P80 ...
ROW 11 : ... .. B ... ... ... : ... .. 7 ... ... ... : ... .. . ... : ... .. C ... : ... .. . ... ... : D#4 01 9 P7F ... : D#4 01 9 P7D ... : ... .. D ... ...
ROW 12 : ... .. A ... ... ... : ... .. . ... ... ... : ... .. . ... : ... .. 6 ... : ... .. . ... ... : E-4 01 8 P85 ... : E-4 01 8 P83 ... : ... .. 8 ... ...
ROW 13 : ... .. 8 ... ... ... : ... .. 6 ... ... ... : ... .. . ... : ... .. 3 ... : ... .. . ... ... : F#4 01 7 P82 ... : F#4 01 7 P80 ... : ... .. . ... ...
ROW 14 : ... .. . ... ... ... : F-3 00 8 ... ... ... : ... .. . ... : ... .. 2 ... : ... .. . ... ... : G#4 01 7 ... ... : G#4 01 7 ... ... : ... .. . ... ...
ROW 15 : ... .. . ... ... ... : ... .. 7 ... ... ... : ... .. . ... : ... .. 0 ... : ... .. . ... ... : A#4 01 6 P83 ... : A#4 01 6 P81 ... : ... .. . ... ...
ROW 16 : ... .. . ... ... ... : ... .. . ... ... ... : ... .. . ... : ... .. . ... : ... .. . ... ... : C-5 01 6 P81 ... : C-5 01 6 P7F ... : ... .. . ... ...
ROW 17 : ... .. 1 ... ... ... : ... .. 6 ... ... ... : ... .. . ... : ... .. . ... : ... .. . ... ... : ... .. 5 ... ... : ... .. 5 ... ... : ... .. . ... ...
ROW 18 : A-3 00 C ... ... ... : C-5 00 8 ... ... ... : E-4 00 . ... : 9-# 00 D ... : ... .. . ... ... : ... .. . ... ... : ... .. . ... ... : F-2 01 F ... ...
ROW 19 : ... .. B ... ... ... : ... .. 7 ... ... ... : F#3 00 . ... : ... .. B ... : ... .. . ... ... : ... .. . ... ... : ... .. . ... ... : ... .. D ... ...
ROW 1A : ... .. A ... ... ... : ... .. . ... ... ... : B-2 00 . ... : ... .. . ... : ... .. . ... ... : ... .. . ... ... : ... .. . ... ... : ... .. 8 ... ...
ROW 1B : ... .. 8 ... ... ... : ... .. 6 ... ... ... : A#2 00 . ... : ... .. A ... : ... .. . ... ... : ... .. . ... ... : ... .. . ... ... : ... .. . ... ...
ROW 1C : ... .. . ... ... ... : A-4 00 8 ... ... ... : F-2 00 . ... : ... .. 8 ... : ... .. . ... ... : ... .. . ... ... : ... .. . ... ... : ... .. . ... ...
ROW 1D : ... .. . ... ... ... : ... .. 7 ... ... ... : ... .. . ... : ... .. 7 ... : ... .. . ... ... : ... .. . ... ... : ... .. . ... ... : ... .. . ... ...
ROW 1E : ... .. . ... ... ... : ... .. . ... ... ... : ... .. . ... : ... .. 6 ... : ... .. . ... ... : ... .. . ... ... : ... .. . ... ... : ... .. . ... ...
ROW 1F : ... .. 1 ... ... ... : ... .. 6 ... ... ... : ... .. . ... : ... .. . ... : ... .. . ... ... : ... .. . ... ... : ... .. . ... ... : ... .. . ... ...
ROW 20 : F-1 00 C ... ... ... : F-4 00 8 ... ... ... : E-2 00 . P86 : 1-# 00 F ... : ... .. . ... ... : ... .. . ... ... : ... .. . ... ... : E-2 01 8 P8C ...
ROW 21 : ... .. B ... ... ... : ... .. 7 ... ... ... : D#2 00 . P8E : ... .. C ... : ... .. . ... ... : ... .. . ... ... : ... .. . ... ... : ... .. . P6C ...
ROW 22 : ... .. A ... ... ... : ... .. . ... ... ... : ... .. . P6E : ... .. 6 ... : ... .. . ... ... : C#5 01 5 P7F ... : ... .. . P83 ... : D#2 01 8 P7A ...
ROW 23 : ... .. 8 ... ... ... : ... .. 6 ... ... ... : D-2 00 . P79 : ... .. 3 ... : ... .. . ... ... : ... .. . P81 ... : C#5 01 5 P7F ... : D-2 01 8 P8B ...
ROW 24 : ... .. . ... ... ... : C-4 00 8 ... ... ... : C#2 00 . P86 : ... .. 2 ... : ... .. . ... ... : ... .. . P80 ... : ... .. . P7E ... : ... .. . P6B ...
ROW 25 : ... .. . ... ... ... : ... .. 7 ... ... ... : C-2 00 . P96 : ... .. 0 ... : ... .. . ... ... : C-5 01 5 P83 ... : C-5 01 5 P81 ... : C#2 01 8 P7E ...
ROW 26 : ... .. . ... ... ... : ... .. . ... ... ... : ... .. . P76 : ... .. . ... : ... .. . ... ... : ... .. . P7F ... : B-4 01 5 P83 ... : C-2 01 8 P95 ...
ROW 27 : ... .. 1 ... ... ... : ... .. 6 ... ... ... : B-1 00 . P89 : ... .. . ... : ... .. . ... ... : B-4 01 5 P82 ... : ... .. . P80 ... : ... .. . P75 ...
ROW 28 : ... .. C ... ... ... : A-3 00 8 ... ... ... : F-4 00 . P80 : ... .. F ... : ... .. . ... ... : ... .. . P81 ... : ... .. . P7F ... : F-4 01 F P80 ...
ROW 29 : ... .. B ... ... ... : ... .. 7 ... ... ... : ... .. . ... : ... .. C ... : ... .. . ... ... : ... .. . P83 ... : ... .. . P81 ... : ... .. D ... ...
ROW 2A : ... .. A ... ... ... : ... .. . ... ... ... : ... .. . ... : ... .. 6 ... : ... .. . ... ... : C-5 01 5 P81 ... : C-5 01 5 P7F ... : ... .. 8 ... ...
ROW 2B : ... .. 8 ... ... ... : ... .. 6 ... ... ... : ... .. . ... : ... .. 3 ... : ... .. . ... ... : C#5 01 5 P7E ... : ... .. . P82 ... : ... .. . ... ...
ROW 2C : ... .. . ... ... ... : F-3 00 8 ... ... ... : ... .. . ... : ... .. 2 ... : ... .. . ... ... : ... .. . P81 ... : C#5 01 5 P7F ... : ... .. . ... ...
ROW 2D : ... .. . ... ... ... : ... .. 7 ... ... ... : ... .. . ... : ... .. 0 ... : ... .. . ... ... : ... .. . ... ... : ... .. . ... ... : ... .. . ... ...
ROW 2E : ... .. . ... ... ... : ... .. . ... ... ... : ... .. . ... : ... .. . ... : ... .. . ... ... : C-5 01 5 P83 ... : C-5 01 5 P81 ... : ... .. . ... ...
ROW 2F : ... .. 1 ... ... ... : ... .. 6 ... ... ... : ... .. . ... : ... .. . ... : ... .. . ... ... : ... .. . P80 ... : ... .. . P7E ... : ... .. . ... ...
ROW 30 : G#3 00 C ... ... ... : C#5 00 8 ... ... ... : E-5 00 . ... : 9-# 00 D ... : ... .. . ... ... : A#4 01 A P7E ... : A-4 01 A P83 ... : F-3 01 F ... ...
ROW 31 : ... .. B ... ... ... : ... .. 7 ... ... ... : F#4 00 . ... : ... .. B ... : ... .. . ... ... : G#4 01 9 P7D ... : G-4 01 9 ... ... : ... .. D ... ...
ROW 32 : ... .. A ... ... ... : ... .. . ... ... ... : B-3 00 . ... : ... .. . ... : ... .. . ... ... : F#4 01 8 ... ... : F-4 01 8 P84 ... : ... .. 8 ... ...
ROW 33 : ... .. 8 ... ... ... : ... .. 6 ... ... ... : A#3 00 . ... : ... .. A ... : ... .. . ... ... : F-4 01 7 P81 ... : ... .. 7 P7F ... : ... .. . ... ...
ROW 34 : ... .. . ... ... ... : B-4 00 8 ... ... ... : F-3 00 . ... : ... .. 8 ... : ... .. . ... ... : ... .. . ... ... : ... .. . ... ... : ... .. . ... ...
ROW 35 : ... .. . ... ... ... : ... .. 7 ... ... ... : ... .. . ... : ... .. 7 ... : ... .. . ... ... : ... .. 6 ... ... : ... .. 6 ... ... : ... .. . ... ...
ROW 36 : ... .. . ... ... ... : ... .. . ... ... ... : ... .. . ... : ... .. 6 ... : ... .. . ... ... : ... .. . ... ... : ... .. . ... ... : ... .. . ... ...
ROW 37 : ... .. 1 ... ... ... : ... .. 6 ... ... ... : ... .. . ... : ... .. . ... : ... .. . ... ... : ... .. 5 ... ... : ... .. 5 ... ... : ... .. . ... ...
ROW 38 : F-1 00 C ... ... ... : F-4 00 8 ... ... ... : ... .. . ... : 1-# 00 F ... : ... .. . ... ... : ... .. . ... ... : ... .. . ... ... : ... .. . ... ...
ROW 39 : ... .. B ... ... ... : ... .. 7 ... ... ... : ... .. . ... : ... .. C ... : ... .. . ... ... : ... .. . ... ... : ... .. . ... ... : ... .. . ... ...
ROW 3A : ... .. A ... ... ... : ... .. . ... ... ... : ... .. . ... : ... .. 6 ... : ... .. . ... ... : ... .. . ... ... : ... .. . ... ... : ... .. . ... ...
ROW 3B : ... .. 8 ... ... ... : ... .. 6 ... ... ... : ... .. . ... : ... .. 3 ... : ... .. . ... ... : ... .. . ... ... : ... .. . ... ... : ... .. . ... ...
ROW 3C : ... .. . ... ... ... : D#4 00 8 ... ... ... : ... .. . ... : ... .. 2 ... : ... .. . ... ... : ... .. . ... ... : ... .. . ... ... : ... .. . ... ...
ROW 3D : ... .. . ... ... ... : ... .. 7 ... ... ... : ... .. . ... : ... .. 0 ... : ... .. . ... ... : ... .. . ... ... : ... .. . ... ... : ... .. . ... ...
ROW 3E : ... .. . ... ... ... : ... .. . ... ... ... : ... .. . ... : ... .. . ... : ... .. . ... ... : ... .. . ... ... : ... .. . ... ... : ... .. . ... ...
ROW 3F : ... .. 1 ... ... ... : ... .. 6 ... ... ... : ... .. . ... : ... .. . ... : ... .. . ... ... : ... .. . ... ... : ... .. . ... ... : ... .. . ... ...
ROW 40 : G#3 00 C ... ... ... : F-5 00 8 ... ... ... : D#3 00 . ... : 9-# 00 D ... : ... .. . ... ... : G-4 01 A P80 ... : G-4 01 A P7E ... : D#3 01 F ... ...
ROW 41 : ... .. B ... ... ... : ... .. 7 ... ... ... : ... .. . ... : ... .. B ... : ... .. . ... ... : A-4 01 9 ... ... : A-4 01 9 ... ... : ... .. D ... ...
ROW 42 : ... .. A ... ... ... : ... .. . ... ... ... : ... .. . ... : ... .. . ... : ... .. . ... ... : B-4 01 8 P82 ... : B-4 01 8 P80 ... : ... .. 8 ... ...
ROW 43 : ... .. 8 ... ... ... : ... .. 6 ... ... ... : ... .. . ... : ... .. A ... : ... .. . ... ... : D-5 01 7 P80 ... : D-5 01 7 P7E ... : ... .. . ... ...
ROW 44 : ... .. . ... ... ... : D#5 00 8 ... ... ... : ... .. . ... : ... .. 8 ... : ... .. . ... ... : F-5 01 7 P81 ... : F-5 01 7 P7F ... : ... .. . ... ...
ROW 45 : ... .. . ... ... ... : ... .. 7 ... ... ... : ... .. . ... : ... .. 7 ... : ... .. . ... ... : ... .. 6 ... ... : ... .. 6 ... ... : ... .. . ... ...
ROW 46 : ... .. . ... ... ... : ... .. . ... ... ... : ... .. . ... : ... .. 6 ... : ... .. . ... ... : ... .. . ... ... : ... .. . ... ... : ... .. . ... ...
ROW 47 : ... .. 1 ... ... ... : ... .. 6 ... ... ... : ... .. . ... : ... .. . ... : ... .. . ... ... : ... .. 5 ... ... : ... .. 5 ... ... : ... .. . ... ...
ROW 48 : F-1 00 C ... ... ... : B-4 00 8 ... ... ... : D#4 00 . ... : 2-# 00 F ... : ... .. . ... ... : ... .. . ... ... : ... .. . ... ... : D#4 01 F ... ...
ROW 49 : ... .. B ... ... ... : ... .. 7 ... ... ... : ... .. . ... : ... .. C ... : ... .. . ... ... : ... .. . ... ... : ... .. . ... ... : ... .. D ... ...
ROW 4A : ... .. A ... ... ... : ... .. . ... ... ... : ... .. . ... : ... .. 6 ... : ... .. . ... ... : ... .. . ... ... : ... .. . ... ... : ... .. 8 ... ...
ROW 4B : ... .. 8 ... ... ... : ... .. 6 ... ... ... : ... .. . ... : ... .. 3 ... : ... .. . ... ... : ... .. . ... ... : ... .. . ... ... : ... .. . ... ...
ROW 4C : ... .. . ... ... ... : A-4 00 8 ... ... ... : ... .. . ... : ... .. F ... : ... .. . ... ... : ... .. . ... ... : ... .. . ... ... : ... .. . ... ...
ROW 4D : ... .. . ... ... ... : ... .. 7 ... ... ... : ... .. . ... : ... .. C ... : ... .. . ... ... : ... .. . ... ... : ... .. . ... ... : ... .. . ... ...
ROW 4E : ... .. . ... ... ... : ... .. . ... ... ... : ... .. . ... : ... .. 6 ... : ... .. . ... ... : ... .. . ... ... : ... .. . ... ... : ... .. . ... ...
ROW 4F : ... .. 1 ... ... ... : ... .. 6 ... ... ... : ... .. . ... : ... .. 3 ... : ... .. . ... ... : ... .. . ... ... : ... .. . ... ... : ... .. . ... ...
ROW 50 : A-3 00 C ... ... ... : F-4 00 8 ... ... ... : E-5 00 . ... : 9-# 00 D ... : ... .. . ... ... : F#5 01 5 P7F ... : ... .. . P81 ... : F-3 01 F ... ...
ROW 51 : ... .. B ... ... ... : ... .. 7 ... ... ... : F#4 00 . ... : ... .. B ... : ... .. . ... ... : ... .. . P80 ... : ... .. . P82 ... : ... .. D ... ...
ROW 52 : ... .. A ... ... ... : ... .. . ... ... ... : B-3 00 . ... : ... .. . ... : ... .. . ... ... : ... .. . ... ... : ... .. . ... ... : ... .. 8 ... ...
ROW 53 : ... .. 8 ... ... ... : ... .. 6 ... ... ... : A#3 00 . ... : ... .. A ... : ... .. . ... ... : F-5 01 5 P82 ... : ... .. . P80 ... : ... .. . ... ...
ROW 54 : ... .. . ... ... ... : D#4 00 8 ... ... ... : F-3 00 . ... : ... .. 8 ... : ... .. . ... ... : ... .. . P80 ... : ... .. . P7E ... : ... .. . ... ...
ROW 55 : ... .. . ... ... ... : ... .. 7 ... ... ... : ... .. . ... : ... .. 7 ... : ... .. . ... ... : ... .. . P7E ... : E-5 01 5 P81 ... : ... .. . ... ...
ROW 56 : ... .. . ... ... ... : ... .. . ... ... ... : ... .. . ... : ... .. 6 ... : ... .. . ... ... : ... .. . ... ... : ... .. . ... ... : ... .. . ... ...
ROW 57 : ... .. 1 ... ... ... : ... .. 6 ... ... ... : ... .. . ... : ... .. . ... : ... .. . ... ... : ... .. . P7F ... : ... .. . P82 ... : ... .. . ... ...
ROW 58 : F-1 00 C ... ... ... : B-3 00 8 ... ... ... : D#3 00 . P88 : 1-# 00 F ... : ... .. . ... ... : ... .. . P81 ... : F-5 01 5 P7F ... : E-3 01 8 P76 ...
ROW 59 : ... .. B ... ... ... : ... .. 7 ... ... ... : D-3 00 . P7D : ... .. C ... : ... .. . ... ... : F#5 01 5 P7F ... : ... .. . P81 ... : D-3 01 8 P85 ...
ROW 5A : ... .. A ... ... ... : ... .. . ... ... ... : C-3 00 . P8C : ... .. 6 ... : ... .. . ... ... : ... .. . P80 ... : ... .. . P82 ... : C#3 01 8 P7F ...
ROW 5B : ... .. 8 ... ... ... : ... .. 6 ... ... ... : B-2 00 . P85 : ... .. 3 ... : ... .. . ... ... : ... .. . ... ... : ... .. . ... ... : C-3 01 8 P7B ...
ROW 5C : ... .. . ... ... ... : A-3 00 8 ... ... ... : A#2 00 . P80 : ... .. F ... : ... .. . ... ... : F-5 01 5 P82 ... : ... .. . P80 ... : B-2 01 8 P78 ...
ROW 5D : ... .. . ... ... ... : ... .. 7 ... ... ... : A-2 00 . P7C : ... .. C ... : ... .. . ... ... : ... .. . P81 ... : ... .. . P7F ... : A#2 01 8 P76 ...
ROW 5E : ... .. . ... ... ... : ... .. . ... ... ... : G#2 00 . P7B : ... .. 6 ... : ... .. . ... ... : ... .. . P7E ... : E-5 01 5 P81 ... : A-2 01 8 P77 ...
ROW 5F : ... .. 1 ... ... ... : ... .. 6 ... ... ... : G-2 00 . ... : ... .. 3 ... : ... .. . ... ... : ... .. . ... ... : ... .. . ... ... : G#2 01 8 P7A ...
ROW 60 : ... .. C ... ... ... : F-3 00 8 ... ... ... : F-4 00 . P80 : ... .. F ... : ... .. . ... ... : ... .. . P7F ... : ... .. . P82 ... : F-4 01 F P80 ...
ROW 61 : ... .. B ... ... ... : ... .. 7 ... ... ... : ... .. . ... : ... .. C ... : ... .. . ... ... : ... .. . P81 ... : F-5 01 5 P7F ... : ... .. D ... ...
ROW 62 : ... .. A ... ... ... : ... .. . ... ... ... : ... .. . ... : ... .. 6 ... : ... .. . ... ... : ... .. . P82 ... : ... .. . P80 ... : ... .. 8 ... ...
ROW 63 : ... .. 8 ... ... ... : ... .. 6 ... ... ... : ... .. . ... : ... .. 3 ... : ... .. . ... ... : F#5 01 5 P80 ... : ... .. . P82 ... : ... .. . ... ...
ROW 64 : ... .. . ... ... ... : D#3 00 8 ... ... ... : ... .. . ... : ... .. 2 ... : ... .. . ... ... : ... .. . ... ... : ... .. . ... ... : ... .. . ... ...
ROW 65 : ... .. . ... ... ... : ... .. 7 ... ... ... : ... .. . ... : ... .. 0 ... : ... .. . ... ... : F-5 01 5 P82 ... : ... .. . P80 ... : ... .. . ... ...
ROW 66 : ... .. . ... ... ... : ... .. . ... ... ... : ... .. . ... : ... .. . ... : ... .. . ... ... : ... .. . P81 ... : ... .. . P7F ... : ... .. . ... ...
ROW 67 : ... .. 1 ... ... ... : ... .. 6 ... ... ... : ... .. . ... : ... .. . ... : ... .. . ... ... : ... .. . P7F ... : E-5 01 5 P82 ... : ... .. . ... ...
ROW 68 : A-3 00 C ... ... ... : B-2 00 8 ... ... ... : E-4 00 . ... : 9-# 00 D ... : ... .. . ... ... : ... .. . P7E ... : ... .. . P81 ... : F-2 01 F ... ...
ROW 69 : ... .. B ... ... ... : ... .. 7 ... ... ... : F#3 00 . ... : ... .. B ... : ... .. . ... ... : ... .. . ... ... : ... .. . ... ... : ... .. D ... ...
ROW 6A : ... .. A ... ... ... : ... .. . ... ... ... : B-2 00 . ... : ... .. . ... : ... .. . ... ... : ... .. . P81 ... : F-5 01 5 P7F ... : ... .. 8 ... ...
ROW 6B : ... .. 8 ... ... ... : ... .. 6 ... ... ... : A#2 00 . ... : ... .. A ... : ... .. . ... ... : ... .. . P82 ... : ... .. . P80 ... : ... .. . ... ...
ROW 6C : ... .. . ... ... ... : A-2 00 8 ... ... ... : F-2 00 . ... : ... .. 8 ... : ... .. . ... ... : F#5 01 5 P80 ... : ... .. . P82 ... : ... .. . ... ...
ROW 6D : ... .. . ... ... ... : ... .. 7 ... ... ... : ... .. . ... : ... .. 7 ... : ... .. . ... ... : ... .. . ... ... : ... .. . ... ... : ... .. . ... ...
ROW 6E : ... .. . ... ... ... : ... .. . ... ... ... : ... .. . ... : ... .. 6 ... : ... .. . ... ... : ... .. . P7F ... : ... .. . P81 ... : ... .. . ... ...
ROW 6F : ... .. 1 ... ... ... : ... .. 6 ... ... ... : ... .. . ... : ... .. . ... : ... .. . ... ... : F-5 01 5 P81 ... : ... .. . P7F ... : ... .. . ... ...
ROW 70 : F-1 00 C ... ... ... : F-4 00 8 ... ... ... : E-2 00 . P86 : 1-# 00 F ... : ... .. . ... ... : ... .. . P7F ... : E-5 01 5 P82 ... : E-2 01 8 P8C ...
ROW 71 : ... .. B ... ... ... : ... .. 7 ... ... ... : D#2 00 . P8E : ... .. C ... : ... .. . ... ... : ... .. . P7E ... : ... .. . P81 ... : ... .. . P6C ...
ROW 72 : ... .. A ... ... ... : ... .. . ... ... ... : ... .. . P6E : ... .. 6 ... : ... .. . ... ... : ... .. . ... ... : ... .. . ... ... : D#2 01 8 P7A ...
ROW 73 : ... .. 8 ... ... ... : ... .. 6 ... ... ... : D-2 00 . P79 : ... .. 3 ... : ... .. . ... ... : ... .. . P80 ... : F-5 01 5 P7E ... : D-2 01 8 P8B ...
ROW 74 : ... .. . ... ... ... : D#4 00 8 ... ... ... : C#2 00 . P86 : ... .. 2 ... : ... .. . ... ... : ... .. . P82 ... : ... .. . P80 ... : ... .. . P6B ...
ROW 75 : ... .. . ... ... ... : ... .. 7 ... ... ... : C-2 00 . P96 : ... .. 0 ... : ... .. . ... ... : F#5 01 5 P80 ... : ... .. . P82 ... : C#2 01 8 P7E ...
ROW 76 : ... .. . ... ... ... : ... .. . ... ... ... : ... .. . P76 : ... .. . ... : ... .. . ... ... : ... .. . ... ... : ... .. . ... ... : C-2 01 8 P95 ...
ROW 77 : ... .. 1 ... ... ... : ... .. 6 ... ... ... : B-1 00 . P89 : ... .. . ... : ... .. . ... ... : ... .. . P7F ... : ... .. . P81 ... : ... .. . P75 ...
ROW 78 : ... .. C ... ... ... : B-3 00 8 ... ... ... : F-4 00 . P80 : ... .. F ... : ... .. . ... ... : F-5 01 5 P81 ... : ... .. . P7F ... : F-4 01 F P80 ...
ROW 79 : ... .. B ... ... ... : ... .. 7 ... ... ... : ... .. . ... : ... .. C ... : ... .. . ... ... : ... .. . P7F ... : E-5 01 5 P82 ... : ... .. D ... ...
ROW 7A : ... .. A ... ... ... : ... .. . ... ... ... : ... .. . ... : ... .. 6 ... : ... .. . ... ... : ... .. . P7E ... : ... .. . P81 ... : ... .. 8 ... ...
ROW 7B : ... .. 8 ... ... ... : ... .. 6 ... ... ... : ... .. . ... : ... .. 3 ... : ... .. . ... ... : ... .. . ... ... : ... .. . ... ... : ... .. . ... ...
ROW 7C : ... .. . ... ... ... : A-3 00 8 ... ... ... : ... .. . ... : ... .. 2 ... : ... .. . ... ... : ... .. . P80 ... : F-5 01 5 P7E ... : ... .. . ... ...
ROW 7D : ... .. . ... ... ... : ... .. 7 ... ... ... : ... .. . ... : ... .. 0 ... : ... .. . ... ... : ... .. . P81 ... : ... .. . P7F ... : ... .. . ... ...
ROW 7E : ... .. . ... ... ... : ... .. . ... ... ... : ... .. . ... : ... .. . ... : ... .. . ... ... : F#5 01 5 P80 ... : ... .. . P82 ... : ... .. . ... ...
ROW 7F : ... .. 1 ... ... ... : ... .. 6 ... ... ... : ... .. . ... : ... .. . ... : ... .. . ... ... : ... .. . ... ... : ... .. . ... ... : ... .. . ... ...
ROW 80 : G#3 00 C ... ... ... : G#4 00 8 ... ... ... : E-5 00 . ... : 9-# 00 D ... : ... .. . ... ... : D#5 01 A P81 ... : D#5 01 A P7F ... : F-3 01 F ... ...
ROW 81 : ... .. B ... ... ... : ... .. 7 ... ... ... : F#4 00 . ... : ... .. B ... : ... .. . ... ... : ... .. 9 ... ... : ... .. 9 ... ... : ... .. D ... ...
ROW 82 : ... .. A ... ... ... : ... .. . ... ... ... : B-3 00 . ... : ... .. . ... : ... .. . ... ... : ... .. 8 ... ... : ... .. 8 ... ... : ... .. 8 ... ...
ROW 83 : ... .. 8 ... ... ... : ... .. 6 ... ... ... : A#3 00 . ... : ... .. A ... : ... .. . ... ... : ... .. 7 ... ... : ... .. 7 ... ... : ... .. . ... ...
ROW 84 : ... .. . ... ... ... : F#4 00 8 ... ... ... : F-3 00 . ... : ... .. 8 ... : ... .. . ... ... : ... .. . ... ... : ... .. . ... ... : ... .. . ... ...
ROW 85 : ... .. . ... ... ... : ... .. 7 ... ... ... : ... .. . ... : ... .. 7 ... : ... .. . ... ... : ... .. 6 ... ... : ... .. 6 ... ... : ... .. . ... ...
ROW 86 : ... .. . ... ... ... : ... .. . ... ... ... : ... .. . ... : ... .. 6 ... : ... .. . ... ... : ... .. . ... ... : ... .. . ... ... : ... .. . ... ...
ROW 87 : ... .. 1 ... ... ... : ... .. 6 ... ... ... : ... .. . ... : ... .. . ... : ... .. . ... ... : ... .. 5 ... ... : ... .. 5 ... ... : ... .. . ... ...
ROW 88 : F-1 00 C ... ... ... : D#4 00 8 ... ... ... : ... .. . ... : 1-# 00 F ... : ... .. . ... ... : E-5 01 A ... ... : E-5 01 A ... ... : ... .. . ... ...
ROW 89 : ... .. B ... ... ... : ... .. 7 ... ... ... : ... .. . ... : ... .. C ... : ... .. . ... ... : F-5 01 9 ... ... : F-5 01 9 ... ... : ... .. . ... ...
ROW 8A : ... .. A ... ... ... : ... .. . ... ... ... : ... .. . ... : ... .. 6 ... : ... .. . ... ... : ... .. 8 ... ... : ... .. 8 ... ... : ... .. . ... ...
ROW 8B : ... .. 8 ... ... ... : ... .. 6 ... ... ... : ... .. . ... : ... .. 3 ... : ... .. . ... ... : ... .. 7 ... ... : ... .. 7 ... ... : ... .. . ... ...
ROW 8C : ... .. . ... ... ... : B-3 00 8 ... ... ... : ... .. . ... : ... .. 2 ... : ... .. . ... ... : ... .. . ... ... : ... .. . ... ... : ... .. . ... ...
ROW 8D : ... .. . ... ... ... : ... .. 7 ... ... ... : ... .. . ... : ... .. 0 ... : ... .. . ... ... : ... .. 6 ... ... : ... .. 6 ... ... : ... .. . ... ...
ROW 8E : ... .. . ... ... ... : ... .. . ... ... ... : ... .. . ... : ... .. . ... : ... .. . ... ... : ... .. . ... ... : ... .. . ... ... : ... .. . ... ...
ROW 8F : ... .. 1 ... ... ... : ... .. 6 ... ... ... : ... .. . ... : ... .. . ... : ... .. . ... ... : ... .. 5 ... ... : ... .. 5 ... ... : ... .. . ... ...
ROW 90 : ... .. C ... ... ... : G#3 00 8 ... ... ... : D#3 00 . ... : ... .. F ... : ... .. . ... ... : F#5 01 A ... ... : F#5 01 A ... ... : D#3 01 F ... ...
ROW 91 : ... .. B ... ... ... : ... .. 7 ... ... ... : ... .. . ... : ... .. C ... : ... .. . ... ... : ... .. 9 ... ... : ... .. 9 ... ... : ... .. D ... ...
ROW 92 : ... .. A ... ... ... : ... .. . ... ... ... : ... .. . ... : ... .. 6 ... : ... .. . ... ... : ... .. 8 ... ... : ... .. 8 ... ... : ... .. 8 ... ...
ROW 93 : ... .. 8 ... ... ... : ... .. 6 ... ... ... : ... .. . ... : ... .. 3 ... : ... .. . ... ... : ... .. 7 ... ... : ... .. 7 ... ... : ... .. . ... ...
ROW 94 : ... .. . ... ... ... : D#3 00 8 ... ... ... : ... .. . ... : ... .. 2 ... : ... .. . ... ... : ... .. . ... ... : ... .. . ... ... : ... .. . ... ...
ROW 95 : ... .. . ... ... ... : ... .. 7 ... ... ... : ... .. . ... : ... .. 0 ... : ... .. . ... ... : ... .. 6 ... ... : ... .. 6 ... ... : ... .. . ... ...
ROW 96 : ... .. . ... ... ... : ... .. . ... ... ... : ... .. . ... : ... .. . ... : ... .. . ... ... : ... .. . ... ... : ... .. . ... ... : ... .. . ... ...
ROW 97 : ... .. 1 ... ... ... : ... .. 6 ... ... ... : ... .. . ... : ... .. . ... : ... .. . ... ... : ... .. 5 ... ... : ... .. 5 ... ... : ... .. . ... ...
ROW 98 : G#3 00 C ... ... ... : G#4 00 8 ... ... ... : E-4 00 . ... : 9-# 00 D ... : ... .. . ... ... : G-5 01 A ... ... : G-5 01 A ... ... : F-2 01 F ... ...
ROW 99 : ... .. B ... ... ... : ... .. 7 ... ... ... : F#3 00 . ... : ... .. B ... : ... .. . ... ... : G#5 01 9 ... ... : G#5 01 9 ... ... : ... .. D ... ...
ROW 9A : ... .. A ... ... ... : ... .. . ... ... ... : B-2 00 . ... : ... .. . ... : ... .. . ... ... : ... .. 8 ... ... : ... .. 8 ... ... : ... .. 8 ... ...
ROW 9B : ... .. 8 ... ... ... : ... .. 6 ... ... ... : A#2 00 . ... : ... .. A ... : ... .. . ... ... : ... .. 7 ... ... : ... .. 7 ... ... : ... .. . ... ...
ROW 9C : ... .. . ... ... ... : F#4 00 8 ... ... ... : F-2 00 . ... : ... .. 8 ... : ... .. . ... ... : ... .. . ... ... : ... .. . ... ... : ... .. . ... ...
ROW 9D : ... .. . ... ... ... : ... .. 7 ... ... ... : ... .. . ... : ... .. 7 ... : ... .. . ... ... : ... .. 6 ... ... : ... .. 6 ... ... : ... .. . ... ...
ROW 9E : ... .. . ... ... ... : ... .. . ... ... ... : ... .. . ... : ... .. 6 ... : ... .. . ... ... : ... .. . ... ... : ... .. . ... ... : ... .. . ... ...
ROW 9F : ... .. 1 ... ... ... : ... .. 6 ... ... ... : ... .. . ... : ... .. . ... : ... .. . ... ... : ... .. 5 ... ... : ... .. 5 ... ... : ... .. . ... ...
ROW A0 : F-1 00 C ... ... ... : D#4 00 8 ... ... ... : D#2 00 . ... : 1-# 00 F ... : ... .. . ... ... : G-5 01 A P80 ... : G-5 01 A P7E ... : D#2 01 F ... ...
ROW A1 : ... .. B ... ... ... : ... .. 7 ... ... ... : ... .. . ... : ... .. C ... : ... .. . ... ... : F#5 01 9 P81 ... : F#5 01 9 P7F ... : ... .. D ... ...
ROW A2 : ... .. A ... ... ... : ... .. . ... ... ... : ... .. . ... : ... .. 6 ... : ... .. . ... ... : ... .. 8 ... ... : ... .. 8 ... ... : ... .. 8 ... ...
ROW A3 : ... .. 8 ... ... ... : ... .. 6 ... ... ... : ... .. . ... : ... .. 3 ... : ... .. . ... ... : ... .. 7 ... ... : ... .. 7 ... ... : ... .. . ... ...
ROW A4 : ... .. . ... ... ... : B-3 00 8 ... ... ... : ... .. . ... : ... .. 2 ... : ... .. . ... ... : ... .. . ... ... : ... .. . ... ... : ... .. . ... ...
ROW A5 : ... .. . ... ... ... : ... .. 7 ... ... ... : ... .. . ... : ... .. 0 ... : ... .. . ... ... : ... .. 6 ... ... : ... .. 6 ... ... : ... .. . ... ...
ROW A6 : ... .. . ... ... ... : ... .. . ... ... ... : ... .. . ... : ... .. . ... : ... .. . ... ... : ... .. . ... ... : ... .. . ... ... : ... .. . ... ...
ROW A7 : ... .. 1 ... ... ... : ... .. 6 ... ... ... : ... .. . ... : ... .. . ... : ... .. . ... ... : ... .. 5 ... ... : ... .. 5 ... ... : ... .. . ... ...
ROW A8 : ... .. C ... ... ... : G#3 00 8 ... ... ... : F-2 00 . ... : 8-# 00 8 ... : ... .. . ... ... : F-5 01 A ... ... : F-5 01 A ... ... : F-2 01 F ... ...
ROW A9 : ... .. B ... ... ... : ... .. 7 ... ... ... : ... .. . ... : ... .. 6 ... : ... .. . ... ... : ... .. 9 ... ... : ... .. 9 ... ... : ... .. D ... ...
ROW AA : ... .. A ... ... ... : ... .. . ... ... ... : ... .. . ... : ... .. 0 ... : ... .. . ... ... : ... .. 8 ... ... : ... .. 8 ... ... : ... .. 8 ... ...
ROW AB : ... .. 8 ... ... ... : ... .. 6 ... ... ... : ... .. . ... : ... .. . ... : ... .. . ... ... : ... .. 7 ... ... : ... .. 7 ... ... : ... .. . ... ...
ROW AC : ... .. . ... ... ... : D#3 00 8 ... ... ... : ... .. . ... : ... .. 8 ... : ... .. . ... ... : ... .. . ... ... : ... .. . ... ... : ... .. . ... ...
ROW AD : ... .. . ... ... ... : ... .. 7 ... ... ... : ... .. . ... : ... .. 6 ... : ... .. . ... ... : ... .. 6 ... ... : ... .. 6 ... ... : ... .. . ... ...
ROW AE : ... .. . ... ... ... : ... .. . ... ... ... : ... .. . ... : ... .. 0 ... : ... .. . ... ... : ... .. . ... ... : ... .. . ... ... : ... .. . ... ...
ROW AF : ... .. 1 ... ... ... : ... .. 6 ... ... ... : ... .. . ... : ... .. . ... : ... .. . ... ... : ... .. 5 ... ... : ... .. 5 ... ... : ... .. . ... ...
ROW B0 : A-3 00 C ... ... ... : A-4 00 8 ... ... ... : E-5 00 . ... : 9-# 00 D ... : ... .. . ... ... : E-5 01 A ... ... : E-5 01 A ... ... : F-3 01 F ... ...
ROW B1 : ... .. B ... ... ... : ... .. 7 ... ... ... : F#4 00 . ... : ... .. B ... : ... .. . ... ... : D#5 01 9 ... ... : D#5 01 9 ... ... : ... .. D ... ...
ROW B2 : ... .. A ... ... ... : ... .. . ... ... ... : B-3 00 . ... : ... .. . ... : ... .. . ... ... : ... .. 8 ... ... : ... .. 8 ... ... : ... .. 8 ... ...
ROW B3 : ... .. 8 ... ... ... : ... .. 6 ... ... ... : A#3 00 . ... : ... .. A ... : ... .. . ... ... : ... .. 7 ... ... : ... .. 7 ... ... : ... .. . ... ...
ROW B4 : ... .. . ... ... ... : F-4 00 8 ... ... ... : F-3 00 . ... : ... .. 8 ... : ... .. . ... ... : ... .. . ... ... : ... .. . ... ... : ... .. . ... ...
ROW B5 : ... .. . ... ... ... : ... .. 7 ... ... ... : ... .. . ... : ... .. 7 ... : ... .. . ... ... : ... .. 6 ... ... : ... .. 6 ... ... : ... .. . ... ...
ROW B6 : ... .. . ... ... ... : ... .. . ... ... ... : ... .. . ... : ... .. 6 ... : ... .. . ... ... : ... .. . ... ... : ... .. . ... ... : ... .. . ... ...
ROW B7 : ... .. 1 ... ... ... : ... .. 6 ... ... ... : ... .. . ... : ... .. . ... : ... .. . ... ... : ... .. 5 ... ... : ... .. 5 ... ... : ... .. . ... ...
ROW B8 : F-1 00 C ... ... ... : C-4 00 8 ... ... ... : D#3 00 . P88 : 1-# 00 F ... : ... .. . ... ... : E-5 01 A ... ... : E-5 01 A ... ... : E-3 01 8 P76 ...
ROW B9 : ... .. B ... ... ... : ... .. 7 ... ... ... : D-3 00 . P7D : ... .. C ... : ... .. . ... ... : F-5 01 9 ... ... : F-5 01 9 ... ... : D-3 01 8 P85 ...
ROW BA : ... .. A ... ... ... : ... .. . ... ... ... : C-3 00 . P8C : ... .. 6 ... : ... .. . ... ... : ... .. 8 ... ... : ... .. 8 ... ... : C#3 01 8 P7F ...
ROW BB : ... .. 8 ... ... ... : ... .. 6 ... ... ... : B-2 00 . P85 : ... .. 3 ... : ... .. . ... ... : ... .. 7 ... ... : ... .. 7 ... ... : C-3 01 8 P7B ...
ROW BC : ... .. . ... ... ... : A-3 00 8 ... ... ... : A#2 00 . P80 : ... .. F ... : ... .. . ... ... : ... .. . ... ... : ... .. . ... ... : B-2 01 8 P78 ...
ROW BD : ... .. . ... ... ... : ... .. 7 ... ... ... : A-2 00 . P7C : ... .. C ... : ... .. . ... ... : ... .. 6 ... ... : ... .. 6 ... ... : A#2 01 8 P76 ...
ROW BE : ... .. . ... ... ... : ... .. . ... ... ... : G#2 00 . P7B : ... .. 6 ... : ... .. . ... ... : ... .. . ... ... : ... .. . ... ... : A-2 01 8 P77 ...
ROW BF : ... .. 1 ... ... ... : ... .. 6 ... ... ... : G-2 00 . ... : ... .. 3 ... : ... .. . ... ... : ... .. 5 ... ... : ... .. 5 ... ... : G#2 01 8 P7A ...
ROW C0 : ... .. C ... ... ... : F-3 00 8 ... ... ... : F-4 00 . P80 : ... .. F ... : ... .. . ... ... : E-5 01 A ... ... : E-5 01 A ... ... : F-4 01 F P80 ...
ROW C1 : ... .. B ... ... ... : ... .. 7 ... ... ... : ... .. . ... : ... .. C ... : ... .. . ... ... : D#5 01 9 ... ... : D#5 01 9 ... ... : ... .. D ... ...
ROW C2 : ... .. A ... ... ... : ... .. . ... ... ... : ... .. . ... : ... .. 6 ... : ... .. . ... ... : D-5 01 8 ... ... : D-5 01 8 ... ... : ... .. 8 ... ...
ROW C3 : ... .. 8 ... ... ... : ... .. 6 ... ... ... : ... .. . ... : ... .. 3 ... : ... .. . ... ... : C#5 01 7 P82 ... : C#5 01 7 P80 ... : ... .. . ... ...
ROW C4 : ... .. . ... ... ... : C-3 00 8 ... ... ... : ... .. . ... : ... .. 2 ... : ... .. . ... ... : C-5 01 7 P83 ... : C-5 01 7 P81 ... : ... .. . ... ...
ROW C5 : ... .. . ... ... ... : ... .. 7 ... ... ... : ... .. . ... : ... .. 0 ... : ... .. . ... ... : ... .. 6 P81 ... : ... .. 6 P7F ... : ... .. . ... ...
ROW C6 : ... .. . ... ... ... : ... .. . ... ... ... : ... .. . ... : ... .. . ... : ... .. . ... ... : ... .. . ... ... : ... .. . ... ... : ... .. . ... ...
ROW C7 : ... .. 1 ... ... ... : ... .. 6 ... ... ... : ... .. . ... : ... .. . ... : ... .. . ... ... : ... .. 5 ... ... : ... .. 5 ... ... : ... .. . ... ...
ROW C8 : A-3 00 C ... ... ... : A-4 00 8 ... ... ... : E-4 00 . ... : 9-# 00 D ... : ... .. . ... ... : ... .. . ... ... : ... .. . ... ... : F-2 01 F ... ...
ROW C9 : ... .. B ... ... ... : ... .. 7 ... ... ... : F#3 00 . ... : ... .. B ... : ... .. . ... ... : ... .. . ... ... : ... .. . ... ... : ... .. D ... ...
ROW CA : ... .. A ... ... ... : ... .. . ... ... ... : B-2 00 . ... : ... .. . ... : ... .. . ... ... : ... .. . ... ... : ... .. . ... ... : ... .. 8 ... ...
ROW CB : ... .. 8 ... ... ... : ... .. 6 ... ... ... : A#2 00 . ... : ... .. A ... : ... .. . ... ... : ... .. . ... ... : ... .. . ... ... : ... .. . ... ...
ROW CC : ... .. . ... ... ... : F-4 00 8 ... ... ... : F-2 00 . ... : ... .. 8 ... : ... .. . ... ... : ... .. . ... ... : ... .. . ... ... : ... .. . ... ...
ROW CD : ... .. . ... ... ... : ... .. 7 ... ... ... : ... .. . ... : ... .. 7 ... : ... .. . ... ... : ... .. . ... ... : ... .. . ... ... : ... .. . ... ...
ROW CE : ... .. . ... ... ... : ... .. . ... ... ... : ... .. . ... : ... .. 6 ... : ... .. . ... ... : ... .. . ... ... : ... .. . ... ... : ... .. . ... ...
ROW CF : ... .. 1 ... ... ... : ... .. 6 ... ... ... : ... .. . ... : ... .. . ... : ... .. . ... ... : ... .. . ... ... : ... .. . ... ... : ... .. . ... ...
ROW D0 : F-1 00 C ... ... ... : C-4 00 8 ... ... ... : E-2 00 . P86 : 1-# 00 F ... : ... .. . ... ... : ... .. . ... ... : ... .. . ... ... : E-2 01 8 P8C ...
ROW D1 : ... .. B ... ... ... : ... .. 7 ... ... ... : D#2 00 . P8E : ... .. C ... : ... .. . ... ... : ... .. . ... ... : ... .. . ... ... : ... .. . P6C ...
ROW D2 : ... .. A ... ... ... : ... .. . ... ... ... : ... .. . P6E : ... .. 6 ... : ... .. . ... ... : ... .. . ... ... : ... .. . ... ... : D#2 01 8 P7A ...
ROW D3 : ... .. 8 ... ... ... : ... .. 6 ... ... ... : D-2 00 . P79 : ... .. 3 ... : ... .. . ... ... : ... .. . ... ... : ... .. . ... ... : D-2 01 8 P8B ...
ROW D4 : ... .. . ... ... ... : A-3 00 8 ... ... ... : C#2 00 . P86 : ... .. 2 ... : ... .. . ... ... : ... .. . ... ... : ... .. . ... ... : ... .. . P6B ...
ROW D5 : ... .. . ... ... ... : ... .. 7 ... ... ... : C-2 00 . P96 : ... .. 0 ... : ... .. . ... ... : ... .. . ... ... : ... .. . ... ... : C#2 01 8 P7E ...
ROW D6 : ... .. . ... ... ... : ... .. . ... ... ... : ... .. . P76 : ... .. . ... : ... .. . ... ... : ... .. . ... ... : ... .. . ... ... : C-2 01 8 P95 ...
ROW D7 : ... .. 1 ... ... ... : ... .. 6 ... ... ... : B-1 00 . P89 : ... .. . ... : ... .. . ... ... : ... .. . ... ... : ... .. . ... ... : ... .. . P75 ...
ROW D8 : ... .. C ... ... ... : F-3 00 8 ... ... ... : F-4 00 . P80 : ... .. F ... : ... .. . ... ... : ... .. . ... ... : ... .. . ... ... : F-4 01 F P80 ...
ROW D9 : ... .. B ... ... ... : ... .. 7 ... ... ... : ... .. . ... : ... .. C ... : ... .. . ... ... : ... .. . ... ... : ... .. . ... ... : ... .. D ... ...
ROW DA : ... .. A ... ... ... : ... .. . ... ... ... : ... .. . ... : ... .. 6 ... : ... .. . ... ... : C#5 01 5 P7F ... : ... .. . P83 ... : ... .. 8 ... ...
ROW DB : ... .. 8 ... ... ... : ... .. 6 ... ... ... : ... .. . ... : ... .. 3 ... : ... .. . ... ... : ... .. . P81 ... : C#5 01 5 P7F ... : ... .. . ... ...
ROW DC : ... .. . ... ... ... : C-3 00 8 ... ... ... : ... .. . ... : ... .. 2 ... : ... .. . ... ... : ... .. . P80 ... : ... .. . P7E ... : ... .. . ... ...
ROW DD : ... .. . ... ... ... : ... .. 7 ... ... ... : ... .. . ... : ... .. 0 ... : ... .. . ... ... : C-5 01 5 P83 ... : C-5 01 5 P81 ... : ... .. . ... ...
ROW DE : ... .. . ... ... ... : ... .. . ... ... ... : ... .. . ... : ... .. . ... : ... .. . ... ... : ... .. . P7F ... : B-4 01 5 P83 ... : ... .. . ... ...
ROW DF : ... .. 1 ... ... ... : ... .. 6 ... ... ... : ... .. . ... : ... .. . ... : ... .. . ... ... : B-4 01 5 P82 ... : ... .. . P80 ... : ... .. . ... ...
ROW E0 : G#3 00 C ... ... ... : B-4 00 8 ... ... ... : E-5 00 . ... : 9-# 00 D ... : ... .. . ... ... : ... .. . P81 ... : ... .. . P7F ... : F-3 01 F ... ...
ROW E1 : ... .. B ... ... ... : ... .. 7 ... ... ... : F#4 00 . ... : ... .. B ... : ... .. . ... ... : ... .. . P83 ... : ... .. . P81 ... : ... .. D ... ...
ROW E2 : ... .. A ... ... ... : ... .. . ... ... ... : B-3 00 . ... : ... .. . ... : ... .. . ... ... : C-5 01 5 P81 ... : C-5 01 5 P7F ... : ... .. 8 ... ...
ROW E3 : ... .. 8 ... ... ... : ... .. 6 ... ... ... : A#3 00 . ... : ... .. A ... : ... .. . ... ... : C#5 01 5 P7E ... : ... .. . P82 ... : ... .. . ... ...
ROW E4 : ... .. . ... ... ... : A-4 00 8 ... ... ... : F-3 00 . ... : ... .. 8 ... : ... .. . ... ... : ... .. . P81 ... : C#5 01 5 P7F ... : ... .. . ... ...
ROW E5 : ... .. . ... ... ... : ... .. 7 ... ... ... : ... .. . ... : ... .. 7 ... : ... .. . ... ... : ... .. . ... ... : ... .. . ... ... : ... .. . ... ...
ROW E6 : ... .. . ... ... ... : ... .. . ... ... ... : ... .. . ... : ... .. 6 ... : ... .. . ... ... : C-5 01 5 P83 ... : C-5 01 5 P81 ... : ... .. . ... ...
ROW E7 : ... .. 1 ... ... ... : ... .. 6 ... ... ... : ... .. . ... : ... .. . ... : ... .. . ... ... : ... .. . P80 ... : ... .. . P7E ... : ... .. . ... ...
ROW E8 : F-1 00 C ... ... ... : F-4 00 8 ... ... ... : ... .. . ... : 1-# 00 F ... : ... .. . ... ... : B-4 01 5 P82 ... : B-4 01 5 P80 ... : ... .. . ... ...
ROW E9 : ... .. B ... ... ... : ... .. 7 ... ... ... : ... .. . ... : ... .. C ... : ... .. . ... ... : ... .. . P81 ... : ... .. . P7F ... : ... .. . ... ...
ROW EA : ... .. A ... ... ... : ... .. . ... ... ... : ... .. . ... : ... .. 6 ... : ... .. . ... ... : ... .. . P83 ... : ... .. . P81 ... : ... .. . ... ...
ROW EB : ... .. 8 ... ... ... : ... .. 6 ... ... ... : ... .. . ... : ... .. 3 ... : ... .. . ... ... : C-5 01 5 P81 ... : C-5 01 5 P7F ... : ... .. . ... ...
ROW EC : ... .. . ... ... ... : D#4 00 8 ... ... ... : ... .. . ... : ... .. 2 ... : ... .. . ... ... : C#5 01 3 P7E ... : ... .. 3 P82 ... : ... .. . ... ...
ROW ED : ... .. . ... ... ... : ... .. 7 ... ... ... : ... .. . ... : ... .. 0 ... : ... .. . ... ... : ... .. . P81 ... : C#5 01 3 P7F ... : ... .. . ... ...
ROW EE : ... .. . ... ... ... : ... .. . ... ... ... : ... .. . ... : ... .. . ... : ... .. . ... ... : ... .. . ... ... : ... .. . ... ... : ... .. . ... ...
ROW EF : ... .. 1 ... ... ... : ... .. 6 ... ... ... : ... .. . ... : ... .. . ... : ... .. . ... ... : ... .. . P7E ... : C-5 01 3 P82 ... : ... .. . ... ...
ROW F0 : G#3 00 C ... ... ... : B-3 00 8 ... ... ... : D#3 00 . ... : 9-# 00 D ... : ... .. . ... ... : D#4 01 A P81 ... : D#4 01 A P7F ... : D#3 01 F ... ...
ROW F1 : ... .. B ... ... ... : ... .. 7 ... ... ... : ... .. . ... : ... .. B ... : ... .. . ... ... : ... .. 9 ... ... : ... .. 9 ... ... : ... .. D ... ...
ROW F2 : ... .. A ... ... ... : ... .. . ... ... ... : ... .. . ... : ... .. . ... : ... .. . ... ... : ... .. 8 ... ... : ... .. 8 ... ... : ... .. 8 ... ...
ROW F3 : ... .. 8 ... ... ... : ... .. 6 ... ... ... : ... .. . ... : ... .. A ... : ... .. . ... ... : ... .. 7 ... ... : ... .. 7 ... ... : ... .. . ... ...
ROW F4 : ... .. . ... ... ... : A-3 00 8 ... ... ... : ... .. . ... : ... .. 8 ... : ... .. . ... ... : ... .. . ... ... : ... .. . ... ... : ... .. . ... ...
ROW F5 : ... .. . ... ... ... : ... .. 7 ... ... ... : ... .. . ... : ... .. 7 ... : ... .. . ... ... : ... .. 6 ... ... : ... .. 6 ... ... : ... .. . ... ...
ROW F6 : ... .. . ... ... ... : ... .. . ... ... ... : ... .. . ... : ... .. 6 ... : ... .. . ... ... : ... .. . ... ... : ... .. . ... ... : ... .. . ... ...
ROW F7 : ... .. 1 ... ... ... : ... .. 6 ... ... ... : ... .. . ... : ... .. . ... : ... .. . ... ... : ... .. 5 ... ... : ... .. 5 ... ... : ... .. . ... ...
ROW F8 : F-1 00 C ... ... ... : F-3 00 8 ... ... ... : F-2 00 . ... : 2-# 00 F ... : ... .. . ... ... : ... .. . ... ... : ... .. . ... ... : F-2 01 F ... ...
ROW F9 : ... .. B ... ... ... : ... .. 7 ... ... ... : ... .. . ... : ... .. C ... : ... .. . ... ... : ... .. . ... ... : ... .. . ... ... : ... .. D ... ...
ROW FA : ... .. A ... ... ... : ... .. . ... ... ... : ... .. . ... : ... .. 6 ... : ... .. . ... ... : ... .. . ... ... : ... .. . ... ... : ... .. 8 ... ...
ROW FB : ... .. 8 ... ... ... : ... .. 6 ... ... ... : ... .. . ... : ... .. 3 ... : ... .. . ... ... : ... .. . ... ... : ... .. . ... ... : ... .. . ... ...
ROW FC : ... .. . ... ... ... : D#3 00 8 ... ... ... : ... .. . ... : ... .. F ... : ... .. . ... ... : ... .. . ... ... : ... .. . ... ... : ... .. . ... ...
ROW FD : ... .. . ... ... ... : ... .. 7 ... ... ... : ... .. . ... : ... .. C ... : ... .. . ... ... : ... .. . ... ... : ... .. . ... ... : ... .. . ... ...
ROW FE : ... .. . ... ... ... : ... .. . ... ... ... : ... .. . ... : ... .. 6 ... : ... .. . ... ... : ... .. . ... ... : ... .. . ... ... : ... .. . ... ...
ROW FF : ... .. 1 ... ... ... : ... .. 6 ... ... ... : ... .. . ... : ... .. 3 ... : ... .. . ... ... : ... .. . ... ... : ... .. . ... ... : ... .. . ... ...

PATTERN 0A
ROW 00 : C-4 00 C ... ... ... : D#5 00 8 ... ... ... : G-5 00 . ... : 9-# 00 D ... : ... .. . ... ... : F#4 01 A P84 ... : F#4 01 A P82 ... : G#3 01 F ... ...
ROW 01 : ... .. B ... ... ... : ... .. 7 ... ... ... : A-4 00 . ... : ... .. B ... : ... .. . ... ... : B-4 01 9 P7E ... : A#4 01 9 P83 ... : ... .. D ... ...
ROW 02 : ... .. A ... ... ... : ... .. . ... ... ... : D-4 00 . ... : ... .. . ... : ... .. . ... ... : D#5 01 8 P81 ... : D#5 01 8 P7F ... : ... .. 8 ... ...
ROW 03 : ... .. 8 ... ... ... : ... .. 6 ... ... ... : C#4 00 . ... : ... .. A ... : ... .. . ... ... : ... .. 7 ... ... : ... .. 7 ... ... : ... .. . ... ...
ROW 04 : ... .. . ... ... ... : C-5 00 8 ... ... ... : G#3 00 . ... : ... .. 8 ... : ... .. . ... ... : ... .. . ... ... : ... .. . ... ... : ... .. . ... ...
ROW 05 : ... .. . ... ... ... : ... .. 7 ... ... ... : ... .. . ... : ... .. 7 ... : ... .. . ... ... : ... .. 6 ... ... : ... .. 6 ... ... : ... .. . ... ...
ROW 06 : ... .. . ... ... ... : ... .. . ... ... ... : ... .. . ... : ... .. 6 ... : ... .. . ... ... : ... .. . ... ... : ... .. . ... ... : ... .. . ... ...
ROW 07 : ... .. 1 ... ... ... : ... .. 6 ... ... ... : ... .. . ... : ... .. . ... : ... .. . ... ... : ... .. 5 ... ... : ... .. 5 ... ... : ... .. . ... ...
ROW 08 : G#1 00 C ... ... ... : G#4 00 8 ... ... ... : F#3 00 . P81 : 1-# 00 F ... : ... .. . ... ... : ... .. . ... ... : ... .. . ... ... : F#3 01 8 P86 ...
ROW 09 : ... .. B ... ... ... : ... .. 7 ... ... ... : E-3 00 . P86 : ... .. C ... : ... .. . ... ... : ... .. . ... ... : ... .. . ... ... : F-3 01 8 P7A ...
ROW 0A : ... .. A ... ... ... : ... .. . ... ... ... : D#3 00 . P7B : ... .. 6 ... : ... .. . ... ... : ... .. . ... ... : ... .. . ... ... : D#3 01 8 P87 ...
ROW 0B : ... .. 8 ... ... ... : ... .. 6 ... ... ... : C#3 00 . P87 : ... .. 3 ... : ... .. . ... ... : ... .. . ... ... : ... .. . ... ... : D-3 01 8 P7F ...
ROW 0C : ... .. . ... ... ... : D#4 00 8 ... ... ... : C-3 00 . P7F : ... .. F ... : ... .. . ... ... : ... .. . ... ... : ... .. . ... ... : C#3 01 8 P79 ...
ROW 0D : ... .. . ... ... ... : ... .. 7 ... ... ... : B-2 00 . P78 : ... .. C ... : ... .. . ... ... : ... .. . ... ... : ... .. . ... ... : C-3 01 8 P75 ...
ROW 0E : ... .. . ... ... ... : ... .. . ... ... ... : A#2 00 . P73 : ... .. 6 ... : ... .. . ... ... : ... .. . ... ... : ... .. . ... ... : B-2 01 8 P72 ...
ROW 0F : ... .. 1 ... ... ... : ... .. 6 ... ... ... : G#2 00 . P8E : ... .. 3 ... : ... .. . ... ... : ... .. . ... ... : ... .. . ... ... : A#2 01 8 P70 ...
ROW 10 : ... .. C ... ... ... : C-4 00 8 ... ... ... : G#4 00 . P80 : ... .. F ... : ... .. . ... ... : ... .. . ... ... : ... .. . ... ... : G#4 01 F P80 ...
ROW 11 : ... .. B ... ... ... : ... .. 7 ... ... ... : ... .. . ... : ... .. C ... : ... .. . ... ... : ... .. . ... ... : ... .. . ... ... : ... .. D ... ...
ROW 12 : ... .. A ... ... ... : ... .. . ... ... ... : ... .. . ... : ... .. 6 ... : ... .. . ... ... : ... .. . ... ... : ... .. . ... ... : ... .. 8 ... ...
ROW 13 : ... .. 8 ... ... ... : ... .. 6 ... ... ... : ... .. . ... : ... .. 3 ... : ... .. . ... ... : ... .. . ... ... : ... .. . ... ... : ... .. . ... ...
ROW 14 : ... .. . ... ... ... : G#3 00 8 ... ... ... : ... .. . ... : ... .. 2 ... : ... .. . ... ... : ... .. . ... ... : ... .. . ... ... : ... .. . ... ...
ROW 15 : ... .. . ... ... ... : ... .. 7 ... ... ... : ... .. . ... : ... .. 0 ... : ... .. . ... ... : ... .. . ... ... : ... .. . ... ... : ... .. . ... ...
ROW 16 : ... .. . ... ... ... : ... .. . ... ... ... : ... .. . ... : ... .. . ... : ... .. . ... ... : ... .. . ... ... : ... .. . ... ... : ... .. . ... ...
ROW 17 : ... .. 1 ... ... ... : ... .. 6 ... ... ... : ... .. . ... : ... .. . ... : ... .. . ... ... : ... .. . ... ... : ... .. . ... ... : ... .. . ... ...
ROW 18 : C-4 00 C ... ... ... : D#5 00 8 ... ... ... : G-4 00 . ... : 9-# 00 D ... : ... .. . ... ... : ... .. A P80 ... : ... .. A P7E ... : G#2 01 F ... ...
ROW 19 : ... .. B ... ... ... : ... .. 7 ... ... ... : A-3 00 . ... : ... .. B ... : ... .. . ... ... : ... .. 9 P7F ... : D-5 01 9 P82 ... : ... .. D ... ...
ROW 1A : ... .. A ... ... ... : ... .. . ... ... ... : D-3 00 . ... : ... .. . ... : ... .. . ... ... : ... .. 8 P7E ... : ... .. 8 P81 ... : ... .. 8 ... ...
ROW 1B : ... .. 8 ... ... ... : ... .. 6 ... ... ... : C#3 00 . ... : ... .. A ... : ... .. . ... ... : D-5 01 7 P82 ... : ... .. 7 P80 ... : ... .. . ... ...
ROW 1C : ... .. . ... ... ... : C-5 00 8 ... ... ... : G#2 00 . ... : ... .. 8 ... : ... .. . ... ... : ... .. . P81 ... : ... .. . P7F ... : ... .. . ... ...
ROW 1D : ... .. . ... ... ... : ... .. 7 ... ... ... : ... .. . ... : ... .. 7 ... : ... .. . ... ... : ... .. 6 ... ... : ... .. 6 ... ... : ... .. . ... ...
ROW 1E : ... .. . ... ... ... : ... .. . ... ... ... : ... .. . ... : ... .. 6 ... : ... .. . ... ... : ... .. . ... ... : ... .. . ... ... : ... .. . ... ...
ROW 1F : ... .. 1 ... ... ... : ... .. 6 ... ... ... : ... .. . ... : ... .. . ... : ... .. . ... ... : ... .. 5 ... ... : ... .. 5 ... ... : ... .. . ... ...
ROW 20 : G#1 00 C ... ... ... : G#4 00 8 ... ... ... : G-2 00 . ... : 1-# 00 F ... : ... .. . ... ... : ... .. . ... ... : ... .. . ... ... : G-2 01 8 P84 ...
ROW 21 : ... .. B ... ... ... : ... .. 7 ... ... ... : F#2 00 . P82 : ... .. C ... : ... .. . ... ... : ... .. . ... ... : ... .. . ... ... : F#2 01 8 P8B ...
ROW 22 : ... .. A ... ... ... : ... .. . ... ... ... : F-2 00 . P86 : ... .. 6 ... : ... .. . ... ... : ... .. . ... ... : ... .. . ... ... : F-2 01 8 P94 ...
ROW 23 : ... .. 8 ... ... ... : ... .. 6 ... ... ... : E-2 00 . P8C : ... .. 3 ... : ... .. . ... ... : ... .. . ... ... : ... .. . ... ... : ... .. . P74 ...
ROW 24 : ... .. . ... ... ... : D#4 00 8 ... ... ... : D#2 00 . P94 : ... .. 2 ... : ... .. . ... ... : ... .. . ... ... : ... .. . ... ... : E-2 01 8 P80 ...
ROW 25 : ... .. . ... ... ... : ... .. 7 ... ... ... : ... .. . P74 : ... .. 0 ... : ... .. . ... ... : ... .. . ... ... : ... .. . ... ... : D#2 01 8 P8E ...
ROW 26 : ... .. . ... ... ... : ... .. . ... ... ... : D-2 00 . P7F : ... .. . ... : ... .. . ... ... : ... .. . ... ... : ... .. . ... ... : ... .. . P6E ...
ROW 27 : ... .. 1 ... ... ... : ... .. 6 ... ... ... : C#2 00 . P8C : ... .. . ... : ... .. . ... ... : ... .. . ... ... : ... .. . ... ... : D-2 01 8 P7F ...
ROW 28 : ... .. C ... ... ... : C-4 00 8 ... ... ... : G#4 00 . P80 : ... .. F ... : ... .. . ... ... : ... .. . ... ... : ... .. . ... ... : G#4 01 F P80 ...
ROW 29 : ... .. B ... ... ... : ... .. 7 ... ... ... : ... .. . ... : ... .. C ... : ... .. . ... ... : ... .. . ... ... : ... .. . ... ... : ... .. D ... ...
ROW 2A : ... .. A ... ... ... : ... .. . ... ... ... : ... .. . ... : ... .. 6 ... : ... .. . ... ... : ... .. . ... ... : ... .. . ... ... : ... .. 8 ... ...
ROW 2B : ... .. 8 ... ... ... : ... .. 6 ... ... ... : ... .. . ... : ... .. 3 ... : ... .. . ... ... : ... .. . ... ... : ... .. . ... ... : ... .. . ... ...
ROW 2C : ... .. . ... ... ... : G#3 00 8 ... ... ... : ... .. . ... : ... .. 2 ... : ... .. . ... ... : ... .. . ... ... : ... .. . ... ... : ... .. . ... ...
ROW 2D : ... .. . ... ... ... : ... .. 7 ... ... ... : ... .. . ... : ... .. 0 ... : ... .. . ... ... : ... .. . ... ... : ... .. . ... ... : ... .. . ... ...
ROW 2E : ... .. . ... ... ... : ... .. . ... ... ... : ... .. . ... : ... .. . ... : ... .. . ... ... : ... .. . ... ... : ... .. . ... ... : ... .. . ... ...
ROW 2F : ... .. 1 ... ... ... : ... .. 6 ... ... ... : ... .. . ... : ... .. . ... : ... .. . ... ... : ... .. . ... ... : ... .. . ... ... : ... .. . ... ...
ROW 30 : B-3 00 C ... ... ... : E-5 00 8 ... ... ... : G-5 00 . ... : 9-# 00 D ... : ... .. . ... ... : B-4 01 A P83 ... : B-4 01 A P81 ... : G#3 01 F ... ...
ROW 31 : ... .. B ... ... ... : ... .. 7 ... ... ... : A-4 00 . ... : ... .. B ... : ... .. . ... ... : A-4 01 9 P81 ... : A-4 01 9 P7F ... : ... .. D ... ...
ROW 32 : ... .. A ... ... ... : ... .. . ... ... ... : D-4 00 . ... : ... .. . ... : ... .. . ... ... : G-4 01 8 ... ... : G-4 01 8 ... ... : ... .. 8 ... ...
ROW 33 : ... .. 8 ... ... ... : ... .. 6 ... ... ... : C#4 00 . ... : ... .. A ... : ... .. . ... ... : F-4 01 7 P82 ... : F-4 01 7 P80 ... : ... .. . ... ...
ROW 34 : ... .. . ... ... ... : D-5 00 8 ... ... ... : G#3 00 . ... : ... .. 8 ... : ... .. . ... ... : E-4 01 7 P7C ... : D#4 01 7 P84 ... : ... .. . ... ...
ROW 35 : ... .. . ... ... ... : ... .. 7 ... ... ... : ... .. . ... : ... .. 7 ... : ... .. . ... ... : D-4 01 6 P81 ... : D-4 01 6 P7F ... : ... .. . ... ...
ROW 36 : ... .. . ... ... ... : ... .. . ... ... ... : ... .. . ... : ... .. 6 ... : ... .. . ... ... : ... .. . ... ... : ... .. . ... ... : ... .. . ... ...
ROW 37 : ... .. 1 ... ... ... : ... .. 6 ... ... ... : ... .. . ... : ... .. . ... : ... .. . ... ... : ... .. 5 ... ... : ... .. 5 ... ... : ... .. . ... ...
ROW 38 : G#1 00 C ... ... ... : G#4 00 8 ... ... ... : ... .. . ... : 1-# 00 F ... : ... .. . ... ... : ... .. . ... ... : ... .. . ... ... : ... .. . ... ...
ROW 39 : ... .. B ... ... ... : ... .. 7 ... ... ... : ... .. . ... : ... .. C ... : ... .. . ... ... : ... .. . ... ... : ... .. . ... ... : ... .. . ... ...
ROW 3A : ... .. A ... ... ... : ... .. . ... ... ... : ... .. . ... : ... .. 6 ... : ... .. . ... ... : ... .. . ... ... : ... .. . ... ... : ... .. . ... ...
ROW 3B : ... .. 8 ... ... ... : ... .. 6 ... ... ... : ... .. . ... : ... .. 3 ... : ... .. . ... ... : ... .. . ... ... : ... .. . ... ... : ... .. . ... ...
ROW 3C : ... .. . ... ... ... : F#4 00 8 ... ... ... : ... .. . ... : ... .. 2 ... : ... .. . ... ... : ... .. . ... ... : ... .. . ... ... : ... .. . ... ...
ROW 3D : ... .. . ... ... ... : ... .. 7 ... ... ... : ... .. . ... : ... .. 0 ... : ... .. . ... ... : ... .. . ... ... : ... .. . ... ... : ... .. . ... ...
ROW 3E : ... .. . ... ... ... : ... .. . ... ... ... : ... .. . ... : ... .. . ... : ... .. . ... ... : ... .. . ... ... : ... .. . ... ... : ... .. . ... ...
ROW 3F : ... .. 1 ... ... ... : ... .. 6 ... ... ... : ... .. . ... : ... .. . ... : ... .. . ... ... : ... .. . ... ... : ... .. . ... ... : ... .. . ... ...
ROW 40 : ... .. C ... ... ... : D-4 00 8 ... ... ... : F#3 00 . ... : ... .. F ... : ... .. . ... ... : ... .. . ... ... : ... .. . ... ... : F#3 01 F ... ...
ROW 41 : ... .. B ... ... ... : ... .. 7 ... ... ... : ... .. . ... : ... .. C ... : ... .. . ... ... : ... .. . ... ... : ... .. . ... ... : ... .. D ... ...
ROW 42 : ... .. A ... ... ... : ... .. . ... ... ... : ... .. . ... : ... .. 6 ... : ... .. . ... ... : ... .. . ... ... : ... .. . ... ... : ... .. 8 ... ...
ROW 43 : ... .. 8 ... ... ... : ... .. 6 ... ... ... : ... .. . ... : ... .. 3 ... : ... .. . ... ... : ... .. . ... ... : ... .. . ... ... : ... .. . ... ...
ROW 44 : ... .. . ... ... ... : C-4 00 8 ... ... ... : ... .. . ... : ... .. 2 ... : ... .. . ... ... : ... .. . P85 ... : ... .. . P83 ... : ... .. . ... ...
ROW 45 : ... .. . ... ... ... : ... .. 7 ... ... ... : ... .. . ... : ... .. 0 ... : ... .. . ... ... : D#4 01 5 P7D ... : ... .. . P85 ... : ... .. . ... ...
ROW 46 : ... .. . ... ... ... : ... .. . ... ... ... : ... .. . ... : ... .. . ... : ... .. . ... ... : ... .. . P7C ... : ... .. . P84 ... : ... .. . ... ...
ROW 47 : ... .. 1 ... ... ... : ... .. 6 ... ... ... : ... .. . ... : ... .. . ... : ... .. . ... ... : D-4 01 5 P83 ... : ... .. . P81 ... : ... .. . ... ...
ROW 48 : B-3 00 C ... ... ... : E-5 00 8 ... ... ... : G-4 00 . ... : 9-# 00 D ... : ... .. . ... ... : ... .. . P7F ... : ... .. . P7D ... : G#2 01 F ... ...
ROW 49 : ... .. B ... ... ... : ... .. 7 ... ... ... : A-3 00 . ... : ... .. B ... : ... .. . ... ... : ... .. . P7C ... : C#4 01 5 P86 ... : ... .. D ... ...
ROW 4A : ... .. A ... ... ... : ... .. . ... ... ... : D-3 00 . ... : ... .. . ... : ... .. . ... ... : ... .. . P7B ... : ... .. . P85 ... : ... .. 8 ... ...
ROW 4B : ... .. 8 ... ... ... : ... .. 6 ... ... ... : C#3 00 . ... : ... .. A ... : ... .. . ... ... : ... .. . P7D ... : D-4 01 5 P7B ... : ... .. . ... ...
ROW 4C : ... .. . ... ... ... : D-5 00 8 ... ... ... : G#2 00 . ... : ... .. 8 ... : ... .. . ... ... : ... .. . P81 ... : ... .. . P7F ... : ... .. . ... ...
ROW 4D : ... .. . ... ... ... : ... .. 7 ... ... ... : ... .. . ... : ... .. 7 ... : ... .. . ... ... : ... .. . P84 ... : ... .. . P82 ... : ... .. . ... ...
ROW 4E : ... .. . ... ... ... : ... .. . ... ... ... : ... .. . ... : ... .. 6 ... : ... .. . ... ... : D#4 01 5 P7D ... : ... .. . P85 ... : ... .. . ... ...
ROW 4F : ... .. 1 ... ... ... : ... .. 6 ... ... ... : ... .. . ... : ... .. . ... : ... .. . ... ... : ... .. . ... ... : ... .. . ... ... : ... .. . ... ...
ROW 50 : G#1 00 C ... ... ... : G#4 00 8 ... ... ... : F#2 00 . ... : 1-# 00 F ... : ... .. . ... ... : D-4 01 5 P83 ... : ... .. . P81 ... : F#2 01 F ... ...
ROW 51 : ... .. B ... ... ... : ... .. 7 ... ... ... : ... .. . ... : ... .. C ... : ... .. . ... ... : ... .. . P80 ... : ... .. . P7E ... : ... .. D ... ...
ROW 52 : ... .. A ... ... ... : ... .. . ... ... ... : ... .. . ... : ... .. 6 ... : ... .. . ... ... : ... .. . P7C ... : C#4 01 5 P86 ... : ... .. 8 ... ...
ROW 53 : ... .. 8 ... ... ... : ... .. 6 ... ... ... : ... .. . ... : ... .. 3 ... : ... .. . ... ... : ... .. . P7B ... : ... .. . P85 ... : ... .. . ... ...
ROW 54 : ... .. . ... ... ... : F#4 00 8 ... ... ... : ... .. . ... : ... .. 2 ... : ... .. . ... ... : ... .. . P7D ... : D-4 01 5 P7B ... : ... .. . ... ...
ROW 55 : ... .. . ... ... ... : ... .. 7 ... ... ... : ... .. . ... : ... .. 0 ... : ... .. . ... ... : ... .. . P81 ... : ... .. . P7F ... : ... .. . ... ...
ROW 56 : ... .. . ... ... ... : ... .. . ... ... ... : ... .. . ... : ... .. . ... : ... .. . ... ... : ... .. . ... ... : ... .. . ... ... : ... .. . ... ...
ROW 57 : ... .. 1 ... ... ... : ... .. 6 ... ... ... : ... .. . ... : ... .. . ... : ... .. . ... ... : ... .. . ... ... : ... .. . ... ... : ... .. . ... ...
ROW 58 : ... .. C ... ... ... : D-4 00 8 ... ... ... : G#2 00 . ... : 8-# 00 8 ... : ... .. . ... ... : A#3 01 A P83 ... : A#3 01 A P81 ... : G#2 01 F ... ...
ROW 59 : ... .. B ... ... ... : ... .. 7 ... ... ... : ... .. . ... : ... .. 6 ... : ... .. . ... ... : G-3 01 9 P80 ... : G-3 01 9 P7E ... : ... .. D ... ...
ROW 5A : ... .. A ... ... ... : ... .. . ... ... ... : ... .. . ... : ... .. 0 ... : ... .. . ... ... : F-3 01 8 P81 ... : F-3 01 8 P7F ... : ... .. 8 ... ...
ROW 5B : ... .. 8 ... ... ... : ... .. 6 ... ... ... : ... .. . ... : ... .. . ... : ... .. . ... ... : ... .. 7 ... ... : ... .. 7 ... ... : ... .. . ... ...
ROW 5C : ... .. . ... ... ... : C-4 00 8 ... ... ... : ... .. . ... : ... .. 8 ... : ... .. . ... ... : ... .. . ... ... : ... .. . ... ... : ... .. . ... ...
ROW 5D : ... .. . ... ... ... : ... .. 7 ... ... ... : ... .. . ... : ... .. 6 ... : ... .. . ... ... : ... .. 6 ... ... : ... .. 6 ... ... : ... .. . ... ...
ROW 5E : ... .. . ... ... ... : ... .. . ... ... ... : ... .. . ... : ... .. 0 ... : ... .. . ... ... : ... .. . ... ... : ... .. . ... ... : ... .. . ... ...
ROW 5F : ... .. 1 ... ... ... : ... .. 6 ... ... ... : ... .. . ... : ... .. . ... : ... .. . ... ... : ... .. 5 ... ... : ... .. 5 ... ... : ... .. . ... ...
ROW 60 : C-4 00 C ... ... ... : D#5 00 8 ... ... ... : G-5 00 . ... : 9-# 00 D ... : ... .. . ... ... : G#3 01 A P7E ... : G#3 01 A P7C ... : G#3 01 F ... ...
ROW 61 : ... .. B ... ... ... : ... .. 7 ... ... ... : A-4 00 . ... : ... .. B ... : ... .. . ... ... : B-3 01 9 P83 ... : B-3 01 9 P81 ... : ... .. D ... ...
ROW 62 : ... .. A ... ... ... : ... .. . ... ... ... : D-4 00 . ... : ... .. . ... : ... .. . ... ... : C-4 01 8 P81 ... : C-4 01 8 P7F ... : ... .. 8 ... ...
ROW 63 : ... .. 8 ... ... ... : ... .. 6 ... ... ... : C#4 00 . ... : ... .. A ... : ... .. . ... ... : ... .. 7 ... ... : ... .. 7 ... ... : ... .. . ... ...
ROW 64 : ... .. . ... ... ... : C-5 00 8 ... ... ... : G#3 00 . ... : ... .. 8 ... : ... .. . ... ... : ... .. . ... ... : ... .. . ... ... : ... .. . ... ...
ROW 65 : ... .. . ... ... ... : ... .. 7 ... ... ... : ... .. . ... : ... .. 7 ... : ... .. . ... ... : ... .. 6 ... ... : ... .. 6 ... ... : ... .. . ... ...
ROW 66 : ... .. . ... ... ... : ... .. . ... ... ... : ... .. . ... : ... .. 6 ... : ... .. . ... ... : ... .. . ... ... : ... .. . ... ... : ... .. . ... ...
ROW 67 : ... .. 1 ... ... ... : ... .. 6 ... ... ... : ... .. . ... : ... .. . ... : ... .. . ... ... : ... .. 5 ... ... : ... .. 5 ... ... : ... .. . ... ...
ROW 68 : G#1 00 C ... ... ... : G#4 00 8 ... ... ... : F#3 00 . P81 : 1-# 00 F ... : ... .. . ... ... : ... .. . ... ... : ... .. . ... ... : F#3 01 8 P86 ...
ROW 69 : ... .. B ... ... ... : ... .. 7 ... ... ... : E-3 00 . P86 : ... .. C ... : ... .. . ... ... : ... .. . ... ... : ... .. . ... ... : F-3 01 8 P7A ...
ROW 6A : ... .. A ... ... ... : ... .. . ... ... ... : D#3 00 . P7B : ... .. 6 ... : ... .. . ... ... : ... .. . ... ... : ... .. . ... ... : D#3 01 8 P87 ...
ROW 6B : ... .. 8 ... ... ... : ... .. 6 ... ... ... : C#3 00 . P87 : ... .. 3 ... : ... .. . ... ... : ... .. . ... ... : ... .. . ... ... : D-3 01 8 P7F ...
ROW 6C : ... .. . ... ... ... : D#4 00 8 ... ... ... : C-3 00 . P7F : ... .. F ... : ... .. . ... ... : ... .. . ... ... : ... .. . ... ... : C#3 01 8 P79 ...
ROW 6D : ... .. . ... ... ... : ... .. 7 ... ... ... : B-2 00 . P78 : ... .. C ... : ... .. . ... ... : ... .. . ... ... : ... .. . ... ... : C-3 01 8 P75 ...
ROW 6E : ... .. . ... ... ... : ... .. . ... ... ... : A#2 00 . P73 : ... .. 6 ... : ... .. . ... ... : ... .. . ... ... : ... .. . ... ... : B-2 01 8 P72 ...
ROW 6F : ... .. 1 ... ... ... : ... .. 6 ... ... ... : G#2 00 . P8E : ... .. 3 ... : ... .. . ... ... : ... .. . ... ... : ... .. . ... ... : A#2 01 8 P70 ...
ROW 70 : ... .. C ... ... ... : C-4 00 8 ... ... ... : G#4 00 . P80 : ... .. F ... : ... .. . ... ... : C#4 01 A P85 ... : C#4 01 A P83 ... : G#4 01 F P80 ...
ROW 71 : ... .. B ... ... ... : ... .. 7 ... ... ... : ... .. . ... : ... .. C ... : ... .. . ... ... : D#4 01 9 P7F ... : D#4 01 9 P7D ... : ... .. D ... ...
ROW 72 : ... .. A ... ... ... : ... .. . ... ... ... : ... .. . ... : ... .. 6 ... : ... .. . ... ... : E-4 01 8 P85 ... : E-4 01 8 P83 ... : ... .. 8 ... ...
ROW 73 : ... .. 8 ... ... ... : ... .. 6 ... ... ... : ... .. . ... : ... .. 3 ... : ... .. . ... ... : F#4 01 7 P82 ... : F#4 01 7 P80 ... : ... .. . ... ...
ROW 74 : ... .. . ... ... ... : G#3 00 8 ... ... ... : ... .. . ... : ... .. 2 ... : ... .. . ... ... : G#4 01 7 ... ... : G#4 01 7 ... ... : ... .. . ... ...
ROW 75 : ... .. . ... ... ... : ... .. 7 ... ... ... : ... .. . ... : ... .. 0 ... : ... .. . ... ... : A#4 01 6 P83 ... : A#4 01 6 P81 ... : ... .. . ... ...
ROW 76 : ... .. . ... ... ... : ... .. . ... ... ... : ... .. . ... : ... .. . ... : ... .. . ... ... : C-5 01 6 P81 ... : C-5 01 6 P7F ... : ... .. . ... ...
ROW 77 : ... .. 1 ... ... ... : ... .. 6 ... ... ... : ... .. . ... : ... .. . ... : ... .. . ... ... : ... .. 5 ... ... : ... .. 5 ... ... : ... .. . ... ...
ROW 78 : C-4 00 C ... ... ... : D#5 00 8 ... ... ... : G-4 00 . ... : 9-# 00 D ... : ... .. . ... ... : ... .. . ... ... : ... .. . ... ... : G#2 01 F ... ...
ROW 79 : ... .. B ... ... ... : ... .. 7 ... ... ... : A-3 00 . ... : ... .. B ... : ... .. . ... ... : ... .. . ... ... : ... .. . ... ... : ... .. D ... ...
ROW 7A : ... .. A ... ... ... : ... .. . ... ... ... : D-3 00 . ... : ... .. . ... : ... .. . ... ... : ... .. . ... ... : ... .. . ... ... : ... .. 8 ... ...
ROW 7B : ... .. 8 ... ... ... : ... .. 6 ... ... ... : C#3 00 . ... : ... .. A ... : ... .. . ... ... : ... .. . ... ... : ... .. . ... ... : ... .. . ... ...
ROW 7C : ... .. . ... ... ... : C-5 00 8 ... ... ... : G#2 00 . ... : ... .. 8 ... : ... .. . ... ... : ... .. . ... ... : ... .. . ... ... : ... .. . ... ...
ROW 7D : ... .. . ... ... ... : ... .. 7 ... ... ... : ... .. . ... : ... .. 7 ... : ... .. . ... ... : ... .. . ... ... : ... .. . ... ... : ... .. . ... ...
ROW 7E : ... .. . ... ... ... : ... .. . ... ... ... : ... .. . ... : ... .. 6 ... : ... .. . ... ... : ... .. . ... ... : ... .. . ... ... : ... .. . ... ...
ROW 7F : ... .. 1 ... ... ... : ... .. 6 ... ... ... : ... .. . ... : ... .. . ... : ... .. . ... ... : ... .. . ... ... : ... .. . ... ... : ... .. . ... ...
ROW 80 : G#1 00 C ... ... ... : G#4 00 8 ... ... ... : G-2 00 . ... : 1-# 00 F ... : ... .. . ... ... : ... .. . ... ... : ... .. . ... ... : G-2 01 8 P84 ...
ROW 81 : ... .. B ... ... ... : ... .. 7 ... ... ... : F#2 00 . P82 : ... .. C ... : ... .. . ... ... : ... .. . ... ... : ... .. . ... ... : F#2 01 8 P8B ...
ROW 82 : ... .. A ... ... ... : ... .. . ... ... ... : F-2 00 . P86 : ... .. 6 ... : ... .. . ... ... : C#5 01 5 P7F ... : ... .. . P83 ... : F-2 01 8 P94 ...
ROW 83 : ... .. 8 ... ... ... : ... .. 6 ... ... ... : E-2 00 . P8C : ... .. 3 ... : ... .. . ... ... : ... .. . P81 ... : C#5 01 5 P7F ... : ... .. . P74 ...
ROW 84 : ... .. . ... ... ... : D#4 00 8 ... ... ... : D#2 00 . P94 : ... .. 2 ... : ... .. . ... ... : ... .. . P80 ... : ... .. . P7E ... : E-2 01 8 P80 ...
ROW 85 : ... .. . ... ... ... : ... .. 7 ... ... ... : ... .. . P74 : ... .. 0 ... : ... .. . ... ... : C-5 01 5 P83 ... : C-5 01 5 P81 ... : D#2 01 8 P8E ...
ROW 86 : ... .. . ... ... ... : ... .. . ... ... ... : D-2 00 . P7F : ... .. . ... : ... .. . ... ... : ... .. . P7F ... : B-4 01 5 P83 ... : ... .. . P6E ...
ROW 87 : ... .. 1 ... ... ... : ... .. 6 ... ... ... : C#2 00 . P8C : ... .. . ... : ... .. . ... ... : B-4 01 5 P82 ... : ... .. . P80 ... : D-2 01 8 P7F ...
ROW 88 : ... .. C ... ... ... : C-4 00 8 ... ... ... : G#4 00 . P80 : ... .. F ... : ... .. . ... ... : ... .. . P81 ... : ... .. . P7F ... : G#4 01 F P80 ...
ROW 89 : ... .. B ... ... ... : ... .. 7 ... ... ... : ... .. . ... : ... .. C ... : ... .. . ... ... : ... .. . P83 ... : ... .. . P81 ... : ... .. D ... ...
ROW 8A : ... .. A ... ... ... : ... .. . ... ... ... : ... .. . ... : ... .. 6 ... : ... .. . ... ... : C-5 01 5 P81 ... : C-5 01 5 P7F ... : ... .. 8 ... ...
ROW 8B : ... .. 8 ... ... ... : ... .. 6 ... ... ... : ... .. . ... : ... .. 3 ... : ... .. . ... ... : C#5 01 5 P7E ... : ... .. . P82 ... : ... .. . ... ...
ROW 8C : ... .. . ... ... ... : G#3 00 8 ... ... ... : ... .. . ... : ... .. 2 ... : ... .. . ... ... : ... .. . P81 ... : C#5 01 5 P7F ... : ... .. . ... ...
ROW 8D : ... .. . ... ... ... : ... .. 7 ... ... ... : ... .. . ... : ... .. 0 ... : ... .. . ... ... : ... .. . ... ... : ... .. . ... ... : ... .. . ... ...
ROW 8E : ... .. . ... ... ... : ... .. . ... ... ... : ... .. . ... : ... .. . ... : ... .. . ... ... : C-5 01 5 P83 ... : C-5 01 5 P81 ... : ... .. . ... ...
ROW 8F : ... .. 1 ... ... ... : ... .. 6 ... ... ... : ... .. . ... : ... .. . ... : ... .. . ... ... : ... .. . P80 ... : ... .. . P7E ... : ... .. . ... ...
ROW 90 : B-3 00 C ... ... ... : E-5 00 8 ... ... ... : G-5 00 . ... : 9-# 00 D ... : ... .. . ... ... : A#4 01 A P7E ... : A-4 01 A P83 ... : G#3 01 F ... ...
ROW 91 : ... .. B ... ... ... : ... .. 7 ... ... ... : A-4 00 . ... : ... .. B ... : ... .. . ... ... : G#4 01 9 P7D ... : G-4 01 9 ... ... : ... .. D ... ...
ROW 92 : ... .. A ... ... ... : ... .. . ... ... ... : D-4 00 . ... : ... .. . ... : ... .. . ... ... : F#4 01 8 P81 ... : F#4 01 8 P7F ... : ... .. 8 ... ...
ROW 93 : ... .. 8 ... ... ... : ... .. 6 ... ... ... : C#4 00 . ... : ... .. A ... : ... .. . ... ... : ... .. 7 ... ... : ... .. 7 ... ... : ... .. . ... ...
ROW 94 : ... .. . ... ... ... : D-5 00 8 ... ... ... : G#3 00 . ... : ... .. 8 ... : ... .. . ... ... : ... .. . ... ... : ... .. . ... ... : ... .. . ... ...
ROW 95 : ... .. . ... ... ... : ... .. 7 ... ... ... : ... .. . ... : ... .. 7 ... : ... .. . ... ... : ... .. 6 ... ... : ... .. 6 ... ... : ... .. . ... ...
ROW 96 : ... .. . ... ... ... : ... .. . ... ... ... : ... .. . ... : ... .. 6 ... : ... .. . ... ... : ... .. . ... ... : ... .. . ... ... : ... .. . ... ...
ROW 97 : ... .. 1 ... ... ... : ... .. 6 ... ... ... : ... .. . ... : ... .. . ... : ... .. . ... ... : ... .. 5 ... ... : ... .. 5 ... ... : ... .. . ... ...
ROW 98 : G#1 00 C ... ... ... : G#4 00 8 ... ... ... : ... .. . ... : 1-# 00 F ... : ... .. . ... ... : ... .. . ... ... : ... .. . ... ... : ... .. . ... ...
ROW 99 : ... .. B ... ... ... : ... .. 7 ... ... ... : ... .. . ... : ... .. C ... : ... .. . ... ... : ... .. . ... ... : ... .. . ... ... : ... .. . ... ...
ROW 9A : ... .. A ... ... ... : ... .. . ... ... ... : ... .. . ... : ... .. 6 ... : ... .. . ... ... : ... .. . ... ... : ... .. . ... ... : ... .. . ... ...
ROW 9B : ... .. 8 ... ... ... : ... .. 6 ... ... ... : ... .. . ... : ... .. 3 ... : ... .. . ... ... : ... .. . ... ... : ... .. . ... ... : ... .. . ... ...
ROW 9C : ... .. . ... ... ... : F#4 00 8 ... ... ... : ... .. . ... : ... .. 2 ... : ... .. . ... ... : ... .. . ... ... : ... .. . ... ... : ... .. . ... ...
ROW 9D : ... .. . ... ... ... : ... .. 7 ... ... ... : ... .. . ... : ... .. 0 ... : ... .. . ... ... : ... .. . ... ... : ... .. . ... ... : ... .. . ... ...
ROW 9E : ... .. . ... ... ... : ... .. . ... ... ... : ... .. . ... : ... .. . ... : ... .. . ... ... : ... .. . ... ... : ... .. . ... ... : ... .. . ... ...
ROW 9F : ... .. 1 ... ... ... : ... .. 6 ... ... ... : ... .. . ... : ... .. . ... : ... .. . ... ... : ... .. . ... ... : ... .. . ... ... : ... .. . ... ...
ROW A0 : B-3 00 C ... ... ... : G#5 00 8 ... ... ... : F#3 00 . ... : 9-# 00 D ... : ... .. . ... ... : G#4 01 A ... ... : G#4 01 A ... ... : F#3 01 F ... ...
ROW A1 : ... .. B ... ... ... : ... .. 7 ... ... ... : ... .. . ... : ... .. B ... : ... .. . ... ... : A#4 01 9 P82 ... : A#4 01 9 P80 ... : ... .. D ... ...
ROW A2 : ... .. A ... ... ... : ... .. . ... ... ... : ... .. . ... : ... .. . ... : ... .. . ... ... : C#5 01 8 P7F ... : C-5 01 8 P83 ... : ... .. 8 ... ...
ROW A3 : ... .. 8 ... ... ... : ... .. 6 ... ... ... : ... .. . ... : ... .. A ... : ... .. . ... ... : E-5 01 7 ... ... : D#5 01 7 P82 ... : ... .. . ... ...
ROW A4 : ... .. . ... ... ... : F#5 00 8 ... ... ... : ... .. . ... : ... .. 8 ... : ... .. . ... ... : F-5 01 7 P81 ... : F-5 01 7 P7F ... : ... .. . ... ...
ROW A5 : ... .. . ... ... ... : ... .. 7 ... ... ... : ... .. . ... : ... .. 7 ... : ... .. . ... ... : ... .. 6 ... ... : ... .. 6 ... ... : ... .. . ... ...
ROW A6 : ... .. . ... ... ... : ... .. . ... ... ... : ... .. . ... : ... .. 6 ... : ... .. . ... ... : ... .. . ... ... : ... .. . ... ... : ... .. . ... ...
ROW A7 : ... .. 1 ... ... ... : ... .. 6 ... ... ... : ... .. . ... : ... .. . ... : ... .. . ... ... : ... .. 5 ... ... : ... .. 5 ... ... : ... .. . ... ...
ROW A8 : G#1 00 C ... ... ... : D-5 00 8 ... ... ... : F#4 00 . ... : 2-# 00 F ... : ... .. . ... ... : ... .. . ... ... : ... .. . ... ... : F#4 01 F ... ...
ROW A9 : ... .. B ... ... ... : ... .. 7 ... ... ... : ... .. . ... : ... .. C ... : ... .. . ... ... : ... .. . ... ... : ... .. . ... ... : ... .. D ... ...
ROW AA : ... .. A ... ... ... : ... .. . ... ... ... : ... .. . ... : ... .. 6 ... : ... .. . ... ... : ... .. . ... ... : ... .. . ... ... : ... .. 8 ... ...
ROW AB : ... .. 8 ... ... ... : ... .. 6 ... ... ... : ... .. . ... : ... .. 3 ... : ... .. . ... ... : ... .. . ... ... : ... .. . ... ... : ... .. . ... ...
ROW AC : ... .. . ... ... ... : C-5 00 8 ... ... ... : ... .. . ... : ... .. F ... : ... .. . ... ... : ... .. . ... ... : ... .. . ... ... : ... .. . ... ...
ROW AD : ... .. . ... ... ... : ... .. 7 ... ... ... : ... .. . ... : ... .. C ... : ... .. . ... ... : ... .. . ... ... : ... .. . ... ... : ... .. . ... ...
ROW AE : ... .. . ... ... ... : ... .. . ... ... ... : ... .. . ... : ... .. 6 ... : ... .. . ... ... : ... .. . ... ... : ... .. . ... ... : ... .. . ... ...
ROW AF : ... .. 1 ... ... ... : ... .. 6 ... ... ... : ... .. . ... : ... .. 3 ... : ... .. . ... ... : ... .. . ... ... : ... .. . ... ... : ... .. . ... ...
ROW B0 : C-4 00 C ... ... ... : G#4 00 8 ... ... ... : G-5 00 . ... : 9-# 00 D ... : ... .. . ... ... : F#5 01 5 P7F ... : ... .. . P81 ... : G#3 01 F ... ...
ROW B1 : ... .. B ... ... ... : ... .. 7 ... ... ... : A-4 00 . ... : ... .. B ... : ... .. . ... ... : ... .. . P80 ... : ... .. . P82 ... : ... .. D ... ...
ROW B2 : ... .. A ... ... ... : ... .. . ... ... ... : D-4 00 . ... : ... .. . ... : ... .. . ... ... : ... .. . ... ... : ... .. . ... ... : ... .. 8 ... ...
ROW B3 : ... .. 8 ... ... ... : ... .. 6 ... ... ... : C#4 00 . ... : ... .. A ... : ... .. . ... ... : F-5 01 5 P82 ... : ... .. . P80 ... : ... .. . ... ...
ROW B4 : ... .. . ... ... ... : F#4 00 8 ... ... ... : G#3 00 . ... : ... .. 8 ... : ... .. . ... ... : ... .. . P80 ... : ... .. . P7E ... : ... .. . ... ...
ROW B5 : ... .. . ... ... ... : ... .. 7 ... ... ... : ... .. . ... : ... .. 7 ... : ... .. . ... ... : ... .. . P7E ... : E-5 01 5 P81 ... : ... .. . ... ...
ROW B6 : ... .. . ... ... ... : ... .. . ... ... ... : ... .. . ... : ... .. 6 ... : ... .. . ... ... : ... .. . ... ... : ... .. . ... ... : ... .. . ... ...
ROW B7 : ... .. 1 ... ... ... : ... .. 6 ... ... ... : ... .. . ... : ... .. . ... : ... .. . ... ... : ... .. . P7F ... : ... .. . P82 ... : ... .. . ... ...
ROW B8 : G#1 00 C ... ... ... : D-4 00 8 ... ... ... : F#3 00 . P81 : 1-# 00 F ... : ... .. . ... ... : ... .. . P81 ... : F-5 01 5 P7F ... : F#3 01 8 P86 ...
ROW B9 : ... .. B ... ... ... : ... .. 7 ... ... ... : E-3 00 . P86 : ... .. C ... : ... .. . ... ... : F#5 01 5 P7F ... : ... .. . P81 ... : F-3 01 8 P7A ...
ROW BA : ... .. A ... ... ... : ... .. . ... ... ... : D#3 00 . P7B : ... .. 6 ... : ... .. . ... ... : ... .. . P80 ... : ... .. . P82 ... : D#3 01 8 P87 ...
ROW BB : ... .. 8 ... ... ... : ... .. 6 ... ... ... : C#3 00 . P87 : ... .. 3 ... : ... .. . ... ... : ... .. . ... ... : ... .. . ... ... : D-3 01 8 P7F ...
ROW BC : ... .. . ... ... ... : C-4 00 8 ... ... ... : C-3 00 . P7F : ... .. F ... : ... .. . ... ... : F-5 01 5 P82 ... : ... .. . P80 ... : C#3 01 8 P79 ...
ROW BD : ... .. . ... ... ... : ... .. 7 ... ... ... : B-2 00 . P78 : ... .. C ... : ... .. . ... ... : ... .. . P81 ... : ... .. . P7F ... : C-3 01 8 P75 ...
ROW BE : ... .. . ... ... ... : ... .. . ... ... ... : A#2 00 . P73 : ... .. 6 ... : ... .. . ... ... : ... .. . P7E ... : E-5 01 5 P81 ... : B-2 01 8 P72 ...
ROW BF : ... .. 1 ... ... ... : ... .. 6 ... ... ... : G#2 00 . P8E : ... .. 3 ... : ... .. . ... ... : ... .. . ... ... : ... .. . ... ... : A#2 01 8 P70 ...
ROW C0 : ... .. C ... ... ... : G#3 00 8 ... ... ... : G#4 00 . P80 : ... .. F ... : ... .. . ... ... : ... .. . P7F ... : ... .. . P82 ... : G#4 01 F P80 ...
ROW C1 : ... .. B ... ... ... : ... .. 7 ... ... ... : ... .. . ... : ... .. C ... : ... .. . ... ... : ... .. . P81 ... : F-5 01 5 P7F ... : ... .. D ... ...
ROW C2 : ... .. A ... ... ... : ... .. . ... ... ... : ... .. . ... : ... .. 6 ... : ... .. . ... ... : ... .. . P82 ... : ... .. . P80 ... : ... .. 8 ... ...
ROW C3 : ... .. 8 ... ... ... : ... .. 6 ... ... ... : ... .. . ... : ... .. 3 ... : ... .. . ... ... : F#5 01 5 P80 ... : ... .. . P82 ... : ... .. . ... ...
ROW C4 : ... .. . ... ... ... : F#3 00 8 ... ... ... : ... .. . ... : ... .. 2 ... : ... .. . ... ... : ... .. . ... ... : ... .. . ... ... : ... .. . ... ...
ROW C5 : ... .. . ... ... ... : ... .. 7 ... ... ... : ... .. . ... : ... .. 0 ... : ... .. . ... ... : F-5 01 5 P82 ... : ... .. . P80 ... : ... .. . ... ...
ROW C6 : ... .. . ... ... ... : ... .. . ... ... ... : ... .. . ... : ... .. . ... : ... .. . ... ... : ... .. . P81 ... : ... .. . P7F ... : ... .. . ... ...
ROW C7 : ... .. 1 ... ... ... : ... .. 6 ... ... ... : ... .. . ... : ... .. . ... : ... .. . ... ... : ... .. . P7F ... : E-5 01 5 P82 ... : ... .. . ... ...
ROW C8 : C-4 00 C ... ... ... : D-3 00 8 ... ... ... : G-4 00 . ... : 9-# 00 D ... : ... .. . ... ... : ... .. . P7E ... : ... .. . P81 ... : G#2 01 F ... ...
ROW C9 : ... .. B ... ... ... : ... .. 7 ... ... ... : A-3 00 . ... : ... .. B ... : ... .. . ... ... : ... .. . ... ... : ... .. . ... ... : ... .. D ... ...
ROW CA : ... .. A ... ... ... : ... .. . ... ... ... : D-3 00 . ... : ... .. . ... : ... .. . ... ... : ... .. . P81 ... : F-5 01 5 P7F ... : ... .. 8 ... ...
ROW CB : ... .. 8 ... ... ... : ... .. 6 ... ... ... : C#3 00 . ... : ... .. A ... : ... .. . ... ... : ... .. . P82 ... : ... .. . P80 ... : ... .. . ... ...
ROW CC : ... .. . ... ... ... : C-3 00 8 ... ... ... : G#2 00 . ... : ... .. 8 ... : ... .. . ... ... : F#5 01 5 P80 ... : ... .. . P82 ... : ... .. . ... ...
ROW CD : ... .. . ... ... ... : ... .. 7 ... ... ... : ... .. . ... : ... .. 7 ... : ... .. . ... ... : ... .. . ... ... : ... .. . ... ... : ... .. . ... ...
ROW CE : ... .. . ... ... ... : ... .. . ... ... ... : ... .. . ... : ... .. 6 ... : ... .. . ... ... : ... .. . P7F ... : ... .. . P81 ... : ... .. . ... ...
ROW CF : ... .. 1 ... ... ... : ... .. 6 ... ... ... : ... .. . ... : ... .. . ... : ... .. . ... ... : F-5 01 5 P81 ... : ... .. . P7F ... : ... .. . ... ...
ROW D0 : G#1 00 C ... ... ... : G#4 00 8 ... ... ... : G-2 00 . ... : 1-# 00 F ... : ... .. . ... ... : ... .. . P7F ... : E-5 01 5 P82 ... : G-2 01 8 P84 ...
ROW D1 : ... .. B ... ... ... : ... .. 7 ... ... ... : F#2 00 . P82 : ... .. C ... : ... .. . ... ... : ... .. . P7E ... : ... .. . P81 ... : F#2 01 8 P8B ...
ROW D2 : ... .. A ... ... ... : ... .. . ... ... ... : F-2 00 . P86 : ... .. 6 ... : ... .. . ... ... : ... .. . ... ... : ... .. . ... ... : F-2 01 8 P94 ...
ROW D3 : ... .. 8 ... ... ... : ... .. 6 ... ... ... : E-2 00 . P8C : ... .. 3 ... : ... .. . ... ... : ... .. . P80 ... : F-5 01 5 P7E ... : ... .. . P74 ...
ROW D4 : ... .. . ... ... ... : F#4 00 8 ... ... ... : D#2 00 . P94 : ... .. 2 ... : ... .. . ... ... : ... .. . P82 ... : ... .. . P80 ... : E-2 01 8 P80 ...
ROW D5 : ... .. . ... ... ... : ... .. 7 ... ... ... : ... .. . P74 : ... .. 0 ... : ... .. . ... ... : F#5 01 5 P80 ... : ... .. . P82 ... : D#2 01 8 P8E ...
ROW D6 : ... .. . ... ... ... : ... .. . ... ... ... : D-2 00 . P7F : ... .. . ... : ... .. . ... ... : ... .. . ... ... : ... .. . ... ... : ... .. . P6E ...
ROW D7 : ... .. 1 ... ... ... : ... .. 6 ... ... ... : C#2 00 . P8C : ... .. . ... : ... .. . ... ... : ... .. . P7F ... : ... .. . P81 ... : D-2 01 8 P7F ...
ROW D8 : ... .. C ... ... ... : D-4 00 8 ... ... ... : G#4 00 . P80 : ... .. F ... : ... .. . ... ... : F-5 01 5 P81 ... : ... .. . P7F ... : G#4 01 F P80 ...
ROW D9 : ... .. B ... ... ... : ... .. 7 ... ... ... : ... .. . ... : ... .. C ... : ... .. . ... ... : ... .. . P7F ... : E-5 01 5 P82 ... : ... .. D ... ...
ROW DA : ... .. A ... ... ... : ... .. . ... ... ... : ... .. . ... : ... .. 6 ... : ... .. . ... ... : ... .. . P7E ... : ... .. . P81 ... : ... .. 8 ... ...
ROW DB : ... .. 8 ... ... ... : ... .. 6 ... ... ... : ... .. . ... : ... .. 3 ... : ... .. . ... ... : ... .. . ... ... : ... .. . ... ... : ... .. . ... ...
ROW DC : ... .. . ... ... ... : C-4 00 8 ... ... ... : ... .. . ... : ... .. 2 ... : ... .. . ... ... : ... .. . P80 ... : F-5 01 5 P7E ... : ... .. . ... ...
ROW DD : ... .. . ... ... ... : ... .. 7 ... ... ... : ... .. . ... : ... .. 0 ... : ... .. . ... ... : ... .. . P81 ... : ... .. . P7F ... : ... .. . ... ...
ROW DE : ... .. . ... ... ... : ... .. . ... ... ... : ... .. . ... : ... .. . ... : ... .. . ... ... : F#5 01 5 P80 ... : ... .. . P82 ... : ... .. . ... ...
ROW DF : ... .. 1 ... ... ... : ... .. 6 ... ... ... : ... .. . ... : ... .. . ... : ... .. . ... ... : ... .. . ... ... : ... .. . ... ... : ... .. . ... ...
ROW E0 : B-3 00 C ... ... ... : B-4 00 8 ... ... ... : G-5 00 . ... : 9-# 00 D ... : ... .. . ... ... : D#5 01 A P81 ... : D#5 01 A P7F ... : G#3 01 F ... ...
ROW E1 : ... .. B ... ... ... : ... .. 7 ... ... ... : A-4 00 . ... : ... .. B ... : ... .. . ... ... : ... .. 9 ... ... : ... .. 9 ... ... : ... .. D ... ...
ROW E2 : ... .. A ... ... ... : ... .. . ... ... ... : D-4 00 . ... : ... .. . ... : ... .. . ... ... : ... .. 8 ... ... : ... .. 8 ... ... : ... .. 8 ... ...
ROW E3 : ... .. 8 ... ... ... : ... .. 6 ... ... ... : C#4 00 . ... : ... .. A ... : ... .. . ... ... : ... .. 7 ... ... : ... .. 7 ... ... : ... .. . ... ...
ROW E4 : ... .. . ... ... ... : A-4 00 8 ... ... ... : G#3 00 . ... : ... .. 8 ... : ... .. . ... ... : ... .. . ... ... : ... .. . ... ... : ... .. . ... ...
ROW E5 : ... .. . ... ... ... : ... .. 7 ... ... ... : ... .. . ... : ... .. 7 ... : ... .. . ... ... : ... .. 6 ... ... : ... .. 6 ... ... : ... .. . ... ...
ROW E6 : ... .. . ... ... ... : ... .. . ... ... ... : ... .. . ... : ... .. 6 ... : ... .. . ... ... : ... .. . ... ... : ... .. . ... ... : ... .. . ... ...
ROW E7 : ... .. 1 ... ... ... : ... .. 6 ... ... ... : ... .. . ... : ... .. . ... : ... .. . ... ... : ... .. 5 ... ... : ... .. 5 ... ... : ... .. . ... ...
ROW E8 : G#1 00 C ... ... ... : F#4 00 8 ... ... ... : ... .. . ... : 1-# 00 F ... : ... .. . ... ... : E-5 01 A ... ... : E-5 01 A ... ... : ... .. . ... ...
ROW E9 : ... .. B ... ... ... : ... .. 7 ... ... ... : ... .. . ... : ... .. C ... : ... .. . ... ... : F-5 01 9 ... ... : F-5 01 9 ... ... : ... .. . ... ...
ROW EA : ... .. A ... ... ... : ... .. . ... ... ... : ... .. . ... : ... .. 6 ... : ... .. . ... ... : ... .. 8 ... ... : ... .. 8 ... ... : ... .. . ... ...
ROW EB : ... .. 8 ... ... ... : ... .. 6 ... ... ... : ... .. . ... : ... .. 3 ... : ... .. . ... ... : ... .. 7 ... ... : ... .. 7 ... ... : ... .. . ... ...
ROW EC : ... .. . ... ... ... : D-4 00 8 ... ... ... : ... .. . ... : ... .. 2 ... : ... .. . ... ... : ... .. . ... ... : ... .. . ... ... : ... .. . ... ...
ROW ED : ... .. . ... ... ... : ... .. 7 ... ... ... : ... .. . ... : ... .. 0 ... : ... .. . ... ... : ... .. 6 ... ... : ... .. 6 ... ... : ... .. . ... ...
ROW EE : ... .. . ... ... ... : ... .. . ... ... ... : ... .. . ... : ... .. . ... : ... .. . ... ... : ... .. . ... ... : ... .. . ... ... : ... .. . ... ...
ROW EF : ... .. 1 ... ... ... : ... .. 6 ... ... ... : ... .. . ... : ... .. . ... : ... .. . ... ... : ... .. 5 ... ... : ... .. 5 ... ... : ... .. . ... ...
ROW F0 : ... .. C ... ... ... : B-3 00 8 ... ... ... : F#3 00 . ... : ... .. F ... : ... .. . ... ... : F#5 01 A ... ... : F#5 01 A ... ... : F#3 01 F ... ...
ROW F1 : ... .. B ... ... ... : ... .. 7 ... ... ... : ... .. . ... : ... .. C ... : ... .. . ... ... : ... .. 9 ... ... : ... .. 9 ... ... : ... .. D ... ...
ROW F2 : ... .. A ... ... ... : ... .. . ... ... ... : ... .. . ... : ... .. 6 ... : ... .. . ... ... : ... .. 8 ... ... : ... .. 8 ... ... : ... .. 8 ... ...
ROW F3 : ... .. 8 ... ... ... : ... .. 6 ... ... ... : ... .. . ... : ... .. 3 ... : ... .. . ... ... : ... .. 7 ... ... : ... .. 7 ... ... : ... .. . ... ...
ROW F4 : ... .. . ... ... ... : F#3 00 8 ... ... ... : ... .. . ... : ... .. 2 ... : ... .. . ... ... : ... .. . ... ... : ... .. . ... ... : ... .. . ... ...
ROW F5 : ... .. . ... ... ... : ... .. 7 ... ... ... : ... .. . ... : ... .. 0 ... : ... .. . ... ... : ... .. 6 ... ... : ... .. 6 ... ... : ... .. . ... ...
ROW F6 : ... .. . ... ... ... : ... .. . ... ... ... : ... .. . ... : ... .. . ... : ... .. . ... ... : ... .. . ... ... : ... .. . ... ... : ... .. . ... ...
ROW F7 : ... .. 1 ... ... ... : ... .. 6 ... ... ... : ... .. . ... : ... .. . ... : ... .. . ... ... : ... .. 5 ... ... : ... .. 5 ... ... : ... .. . ... ...
ROW F8 : B-3 00 C ... ... ... : B-4 00 8 ... ... ... : G-4 00 . ... : 9-# 00 D ... : ... .. . ... ... : G-5 01 A ... ... : G-5 01 A ... ... : G#2 01 F ... ...
ROW F9 : ... .. B ... ... ... : ... .. 7 ... ... ... : A-3 00 . ... : ... .. B ... : ... .. . ... ... : G#5 01 9 ... ... : G#5 01 9 ... ... : ... .. D ... ...
ROW FA : ... .. A ... ... ... : ... .. . ... ... ... : D-3 00 . ... : ... .. . ... : ... .. . ... ... : ... .. 8 ... ... : ... .. 8 ... ... : ... .. 8 ... ...
ROW FB : ... .. 8 ... ... ... : ... .. 6 ... ... ... : C#3 00 . ... : ... .. A ... : ... .. . ... ... : ... .. 7 ... ... : ... .. 7 ... ... : ... .. . ... ...
ROW FC : ... .. . ... ... ... : A-4 00 8 ... ... ... : G#2 00 . ... : ... .. 8 ... : ... .. . ... ... : ... .. . ... ... : ... .. . ... ... : ... .. . ... ...
ROW FD : ... .. . ... ... ... : ... .. 7 ... ... ... : ... .. . ... : ... .. 7 ... : ... .. . ... ... : ... .. 6 ... ... : ... .. 6 ... ... : ... .. . ... ...
ROW FE : ... .. . ... ... ... : ... .. . ... ... ... : ... .. . ... : ... .. 6 ... : ... .. . ... ... : ... .. . ... ... : ... .. . ... ... : ... .. . ... ...
ROW FF : ... .. 1 ... ... ... : ... .. 6 ... ... ... : ... .. . ... : ... .. . ... : ... .. . ... ... : ... .. 5 ... ... : ... .. 5 ... ... : ... .. . ... ...

PATTERN 0B
ROW 00 : G#1 00 C ... ... ... : F#4 00 8 ... ... ... : F#2 00 . ... : 1-# 00 F ... : ... .. . ... ... : G-5 01 A P80 ... : G-5 01 A P7E ... : F#2 01 F ... ...
ROW 01 : ... .. B ... ... ... : ... .. 7 ... ... ... : ... .. . ... : ... .. C ... : ... .. . ... ... : F#5 01 9 P81 ... : F#5 01 9 P7F ... : ... .. D ... ...
ROW 02 : ... .. A ... ... ... : ... .. . ... ... ... : ... .. . ... : ... .. 6 ... : ... .. . ... ... : ... .. 8 ... ... : ... .. 8 ... ... : ... .. 8 ... ...
ROW 03 : ... .. 8 ... ... ... : ... .. 6 ... ... ... : ... .. . ... : ... .. 3 ... : ... .. . ... ... : ... .. 7 ... ... : ... .. 7 ... ... : ... .. . ... ...
ROW 04 : ... .. . ... ... ... : D-4 00 8 ... ... ... : ... .. . ... : ... .. 2 ... : ... .. . ... ... : ... .. . ... ... : ... .. . ... ... : ... .. . ... ...
ROW 05 : ... .. . ... ... ... : ... .. 7 ... ... ... : ... .. . ... : ... .. 0 ... : ... .. . ... ... : ... .. 6 ... ... : ... .. 6 ... ... : ... .. . ... ...
ROW 06 : ... .. . ... ... ... : ... .. . ... ... ... : ... .. . ... : ... .. . ... : ... .. . ... ... : ... .. . ... ... : ... .. . ... ... : ... .. . ... ...
ROW 07 : ... .. 1 ... ... ... : ... .. 6 ... ... ... : ... .. . ... : ... .. . ... : ... .. . ... ... : ... .. 5 ... ... : ... .. 5 ... ... : ... .. . ... ...
ROW 08 : ... .. C ... ... ... : B-3 00 8 ... ... ... : G#2 00 . ... : 8-# 00 8 ... : ... .. . ... ... : F-5 01 A ... ... : F-5 01 A ... ... : G#2 01 F ... ...
ROW 09 : ... .. B ... ... ... : ... .. 7 ... ... ... : ... .. . ... : ... .. 6 ... : ... .. . ... ... : ... .. 9 ... ... : ... .. 9 ... ... : ... .. D ... ...
ROW 0A : ... .. A ... ... ... : ... .. . ... ... ... : ... .. . ... : ... .. 0 ... : ... .. . ... ... : ... .. 8 ... ... : ... .. 8 ... ... : ... .. 8 ... ...
ROW 0B : ... .. 8 ... ... ... : ... .. 6 ... ... ... : ... .. . ... : ... .. . ... : ... .. . ... ... : ... .. 7 ... ... : ... .. 7 ... ... : ... .. . ... ...
ROW 0C : ... .. . ... ... ... : F#3 00 8 ... ... ... : ... .. . ... : ... .. 8 ... : ... .. . ... ... : ... .. . ... ... : ... .. . ... ... : ... .. . ... ...
ROW 0D : ... .. . ... ... ... : ... .. 7 ... ... ... : ... .. . ... : ... .. 6 ... : ... .. . ... ... : ... .. 6 ... ... : ... .. 6 ... ... : ... .. . ... ...
ROW 0E : ... .. . ... ... ... : ... .. . ... ... ... : ... .. . ... : ... .. 0 ... : ... .. . ... ... : ... .. . ... ... : ... .. . ... ... : ... .. . ... ...
ROW 0F : ... .. 1 ... ... ... : ... .. 6 ... ... ... : ... .. . ... : ... .. . ... : ... .. . ... ... : ... .. 5 ... ... : ... .. 5 ... ... : ... .. . ... ...
ROW 10 : C-4 00 C ... ... ... : C-5 00 8 ... ... ... : G-5 00 . ... : 9-# 00 D ... : ... .. . ... ... : F#5 01 A ... ... : F#5 01 A ... ... : G#3 01 F ... ...
ROW 11 : ... .. B ... ... ... : ... .. 7 ... ... ... : A-4 00 . ... : ... .. B ... : ... .. . ... ... : ... .. 9 ... ... : ... .. 9 ... ... : ... .. D ... ...
ROW 12 : ... .. A ... ... ... : ... .. . ... ... ... : D-4 00 . ... : ... .. . ... : ... .. . ... ... : ... .. 8 ... ... : ... .. 8 ... ... : ... .. 8 ... ...
ROW 13 : ... .. 8 ... ... ... : ... .. 6 ... ... ... : C#4 00 . ... : ... .. A ... : ... .. . ... ... : ... .. 7 ... ... : ... .. 7 ... ... : ... .. . ... ...
ROW 14 : ... .. . ... ... ... : G#4 00 8 ... ... ... : G#3 00 . ... : ... .. 8 ... : ... .. . ... ... : ... .. . ... ... : ... .. . ... ... : ... .. . ... ...
ROW 15 : ... .. . ... ... ... : ... .. 7 ... ... ... : ... .. . ... : ... .. 7 ... : ... .. . ... ... : ... .. 6 ... ... : ... .. 6 ... ... : ... .. . ... ...
ROW 16 : ... .. . ... ... ... : ... .. . ... ... ... : ... .. . ... : ... .. 6 ... : ... .. . ... ... : ... .. . ... ... : ... .. . ... ... : ... .. . ... ...
ROW 17 : ... .. 1 ... ... ... : ... .. 6 ... ... ... : ... .. . ... : ... .. . ... : ... .. . ... ... : ... .. 5 ... ... : ... .. 5 ... ... : ... .. . ... ...
ROW 18 : G#1 00 C ... ... ... : D#4 00 8 ... ... ... : F#3 00 . P81 : 1-# 00 F ... : ... .. . ... ... : ... .. . ... ... : ... .. . ... ... : F#3 01 8 P86 ...
ROW 19 : ... .. B ... ... ... : ... .. 7 ... ... ... : E-3 00 . P86 : ... .. C ... : ... .. . ... ... : ... .. . ... ... : ... .. . ... ... : F-3 01 8 P7A ...
ROW 1A : ... .. A ... ... ... : ... .. . ... ... ... : D#3 00 . P7B : ... .. 6 ... : ... .. . ... ... : ... .. . ... ... : ... .. . ... ... : D#3 01 8 P87 ...
ROW 1B : ... .. 8 ... ... ... : ... .. 6 ... ... ... : C#3 00 . P87 : ... .. 3 ... : ... .. . ... ... : ... .. . ... ... : ... .. . ... ... : D-3 01 8 P7F ...
ROW 1C : ... .. . ... ... ... : C-4 00 8 ... ... ... : C-3 00 . P7F : ... .. F ... : ... .. . ... ... : ... .. . ... ... : ... .. . ... ... : C#3 01 8 P79 ...
ROW 1D : ... .. . ... ... ... : ... .. 7 ... ... ... : B-2 00 . P78 : ... .. C ... : ... .. . ... ... : ... .. . ... ... : ... .. . ... ... : C-3 01 8 P75 ...
ROW 1E : ... .. . ... ... ... : ... .. . ... ... ... : A#2 00 . P73 : ... .. 6 ... : ... .. . ... ... : ... .. . ... ... : ... .. . ... ... : B-2 01 8 P72 ...
ROW 1F : ... .. 1 ... ... ... : ... .. 6 ... ... ... : G#2 00 . P8E : ... .. 3 ... : ... .. . ... ... : ... .. . ... ... : ... .. . ... ... : A#2 01 8 P70 ...
ROW 20 : ... .. C ... ... ... : G#3 00 8 ... ... ... : G#4 00 . P80 : ... .. F ... : ... .. . ... ... : ... .. . ... ... : ... .. . ... ... : G#4 01 F P80 ...
ROW 21 : ... .. B ... ... ... : ... .. 7 ... ... ... : ... .. . ... : ... .. C ... : ... .. . ... ... : ... .. . ... ... : ... .. . ... ... : ... .. D ... ...
ROW 22 : ... .. A ... ... ... : ... .. . ... ... ... : ... .. . ... : ... .. 6 ... : ... .. . ... ... : ... .. . ... ... : ... .. . ... ... : ... .. 8 ... ...
ROW 23 : ... .. 8 ... ... ... : ... .. 6 ... ... ... : ... .. . ... : ... .. 3 ... : ... .. . ... ... : ... .. . ... ... : ... .. . ... ... : ... .. . ... ...
ROW 24 : ... .. . ... ... ... : D#3 00 8 ... ... ... : ... .. . ... : ... .. 2 ... : ... .. . ... ... : ... .. . ... ... : ... .. . ... ... : ... .. . ... ...
ROW 25 : ... .. . ... ... ... : ... .. 7 ... ... ... : ... .. . ... : ... .. 0 ... : ... .. . ... ... : ... .. . ... ... : ... .. . ... ... : ... .. . ... ...
ROW 26 : ... .. . ... ... ... : ... .. . ... ... ... : ... .. . ... : ... .. . ... : ... .. . ... ... : ... .. . ... ... : ... .. . ... ... : ... .. . ... ...
ROW 27 : ... .. 1 ... ... ... : ... .. 6 ... ... ... : ... .. . ... : ... .. . ... : ... .. . ... ... : ... .. . ... ... : ... .. . ... ... : ... .. . ... ...
ROW 28 : C-4 00 C ... ... ... : C-5 00 8 ... ... ... : G-4 00 . ... : 9-# 00 D ... : ... .. . ... ... : ... .. . ... ... : ... .. . ... ... : G#2 01 F ... ...
ROW 29 : ... .. B ... ... ... : ... .. 7 ... ... ... : A-3 00 . ... : ... .. B ... : ... .. . ... ... : ... .. . ... ... : ... .. . ... ... : ... .. D ... ...
ROW 2A : ... .. A ... ... ... : ... .. . ... ... ... : D-3 00 . ... : ... .. . ... : ... .. . ... ... : G-5 01 5 P80 ... : G-5 01 5 P7E ... : ... .. 8 ... ...
ROW 2B : ... .. 8 ... ... ... : ... .. 6 ... ... ... : C#3 00 . ... : ... .. A ... : ... .. . ... ... : ... .. . P82 ... : ... .. . P80 ... : ... .. . ... ...
ROW 2C : ... .. . ... ... ... : G#4 00 8 ... ... ... : G#2 00 . ... : ... .. 8 ... : ... .. . ... ... : ... .. . P81 ... : ... .. . P7F ... : ... .. . ... ...
ROW 2D : ... .. . ... ... ... : ... .. 7 ... ... ... : ... .. . ... : ... .. 7 ... : ... .. . ... ... : ... .. . P7E ... : F#5 01 5 P81 ... : ... .. . ... ...
ROW 2E : ... .. . ... ... ... : ... .. . ... ... ... : ... .. . ... : ... .. 6 ... : ... .. . ... ... : F#5 01 5 P7F ... : F-5 01 5 ... ... : ... .. . ... ...
ROW 2F : ... .. 1 ... ... ... : ... .. 6 ... ... ... : ... .. . ... : ... .. . ... : ... .. . ... ... : F-5 01 5 P80 ... : ... .. . P7E ... : ... .. . ... ...
ROW 30 : G#1 00 C ... ... ... : D#4 00 8 ... ... ... : G-2 00 . ... : 1-# 00 F ... : ... .. . ... ... : ... .. . P7F ... : E-5 01 5 P82 ... : G-2 01 8 P84 ...
ROW 31 : ... .. B ... ... ... : ... .. 7 ... ... ... : F#2 00 . P82 : ... .. C ... : ... .. . ... ... : ... .. . P81 ... : F-5 01 5 P7F ... : F#2 01 8 P8B ...
ROW 32 : ... .. A ... ... ... : ... .. . ... ... ... : F-2 00 . P86 : ... .. 6 ... : ... .. . ... ... : F#5 01 5 ... ... : F#5 01 5 ... ... : F-2 01 8 P94 ...
ROW 33 : ... .. 8 ... ... ... : ... .. 6 ... ... ... : E-2 00 . P8C : ... .. 3 ... : ... .. . ... ... : G-5 01 5 P7F ... : ... .. . P82 ... : ... .. . P74 ...
ROW 34 : ... .. . ... ... ... : C-4 00 8 ... ... ... : D#2 00 . P94 : ... .. 2 ... : ... .. . ... ... : ... .. . P82 ... : G-5 01 5 P80 ... : E-2 01 8 P80 ...
ROW 35 : ... .. . ... ... ... : ... .. 7 ... ... ... : ... .. . P74 : ... .. 0 ... : ... .. . ... ... : ... .. . ... ... : ... .. . ... ... : D#2 01 8 P8E ...
ROW 36 : ... .. . ... ... ... : ... .. . ... ... ... : D-2 00 . P7F : ... .. . ... : ... .. . ... ... : ... .. . P7E ... : F#5 01 5 P81 ... : ... .. . P6E ...
ROW 37 : ... .. 1 ... ... ... : ... .. 6 ... ... ... : C#2 00 . P8C : ... .. . ... : ... .. . ... ... : F#5 01 5 P80 ... : F-5 01 5 P82 ... : D-2 01 8 P7F ...
ROW 38 : ... .. C ... ... ... : G#3 00 8 ... ... ... : G#4 00 . P80 : ... .. F ... : ... .. . ... ... : F-5 01 5 ... ... : ... .. . P7E ... : G#4 01 F P80 ...
ROW 39 : ... .. B ... ... ... : ... .. 7 ... ... ... : ... .. . ... : ... .. C ... : ... .. . ... ... : ... .. . P7F ... : E-5 01 5 P82 ... : ... .. D ... ...
ROW 3A : ... .. A ... ... ... : ... .. . ... ... ... : ... .. . ... : ... .. 6 ... : ... .. . ... ... : ... .. . P81 ... : F-5 01 5 P7F ... : ... .. 8 ... ...
ROW 3B : ... .. 8 ... ... ... : ... .. 6 ... ... ... : ... .. . ... : ... .. 3 ... : ... .. . ... ... : F#5 01 5 ... ... : F#5 01 5 ... ... : ... .. . ... ...
ROW 3C : ... .. . ... ... ... : D#3 00 8 ... ... ... : ... .. . ... : ... .. 2 ... : ... .. . ... ... : G-5 01 5 P7F ... : ... .. . P82 ... : ... .. . ... ...
ROW 3D : ... .. . ... ... ... : ... .. 7 ... ... ... : ... .. . ... : ... .. 0 ... : ... .. . ... ... : ... .. . P82 ... : G-5 01 5 P80 ... : ... .. . ... ...
ROW 3E : ... .. . ... ... ... : ... .. . ... ... ... : ... .. . ... : ... .. . ... : ... .. . ... ... : ... .. . ... ... : ... .. . ... ... : ... .. . ... ...
ROW 3F : ... .. 1 ... ... ... : ... .. 6 ... ... ... : ... .. . ... : ... .. . ... : ... .. . ... ... : ... .. . P7F ... : F#5 01 5 P82 ... : ... .. . ... ...
ROW 40 : B-3 00 C ... ... ... : D-5 00 8 ... ... ... : G-5 00 . ... : 9-# 00 D ... : ... .. . ... ... : F#5 01 5 P81 ... : ... .. . P7F ... : G#3 01 F ... ...
ROW 41 : ... .. B ... ... ... : ... .. 7 ... ... ... : A-4 00 . ... : ... .. B ... : ... .. . ... ... : F-5 01 5 ... ... : F-5 01 5 ... ... : ... .. D ... ...
ROW 42 : ... .. A ... ... ... : ... .. . ... ... ... : D-4 00 . ... : ... .. . ... : ... .. . ... ... : ... .. . P7F ... : E-5 01 5 P82 ... : ... .. 8 ... ...
ROW 43 : ... .. 8 ... ... ... : ... .. 6 ... ... ... : C#4 00 . ... : ... .. A ... : ... .. . ... ... : ... .. . P80 ... : F-5 01 5 P7E ... : ... .. . ... ...
ROW 44 : ... .. . ... ... ... : C-5 00 8 ... ... ... : G#3 00 . ... : ... .. 8 ... : ... .. . ... ... : F#5 01 5 ... ... : ... .. . P82 ... : ... .. . ... ...
ROW 45 : ... .. . ... ... ... : ... .. 7 ... ... ... : ... .. . ... : ... .. 7 ... : ... .. . ... ... : G-5 01 5 P7E ... : F#5 01 5 P81 ... : ... .. . ... ...
ROW 46 : ... .. . ... ... ... : ... .. . ... ... ... : ... .. . ... : ... .. 6 ... : ... .. . ... ... : ... .. . P82 ... : G-5 01 5 P80 ... : ... .. . ... ...
ROW 47 : ... .. 1 ... ... ... : ... .. 6 ... ... ... : ... .. . ... : ... .. . ... : ... .. . ... ... : ... .. . ... ... : ... .. . ... ... : ... .. . ... ...
ROW 48 : G#1 00 C ... ... ... : G#4 00 8 ... ... ... : ... .. . ... : 1-# 00 F ... : ... .. . ... ... : ... .. . P7F ... : F#5 01 5 P82 ... : ... .. . ... ...
ROW 49 : ... .. B ... ... ... : ... .. 7 ... ... ... : ... .. . ... : ... .. C ... : ... .. . ... ... : F#5 01 5 P81 ... : ... .. . P7F ... : ... .. . ... ...
ROW 4A : ... .. A ... ... ... : ... .. . ... ... ... : ... .. . ... : ... .. 6 ... : ... .. . ... ... : F-5 01 5 ... ... : F-5 01 5 ... ... : ... .. . ... ...
ROW 4B : ... .. 8 ... ... ... : ... .. 6 ... ... ... : ... .. . ... : ... .. 3 ... : ... .. . ... ... : ... .. . P7F ... : E-5 01 5 P82 ... : ... .. . ... ...
ROW 4C : ... .. . ... ... ... : F#4 00 8 ... ... ... : ... .. . ... : ... .. 2 ... : ... .. . ... ... : ... .. . P80 ... : F-5 01 5 P7E ... : ... .. . ... ...
ROW 4D : ... .. . ... ... ... : ... .. 7 ... ... ... : ... .. . ... : ... .. 0 ... : ... .. . ... ... : F#5 01 5 P7F ... : ... .. . P81 ... : ... .. . ... ...
ROW 4E : ... .. . ... ... ... : ... .. . ... ... ... : ... .. . ... : ... .. . ... : ... .. . ... ... : G-5 01 5 P7E ... : F#5 01 5 ... ... : ... .. . ... ...
ROW 4F : ... .. 1 ... ... ... : ... .. 6 ... ... ... : ... .. . ... : ... .. . ... : ... .. . ... ... : ... .. . P81 ... : G-5 01 5 P7F ... : ... .. . ... ...
ROW 50 : B-3 00 C ... ... ... : D-4 00 8 ... ... ... : F#3 00 . ... : 9-# 00 D ... : ... .. . ... ... : ... .. . P82 ... : ... .. . P80 ... : F#3 01 F ... ...
ROW 51 : ... .. B ... ... ... : ... .. 7 ... ... ... : ... .. . ... : ... .. B ... : ... .. . ... ... : ... .. . P80 ... : ... .. . P7E ... : ... .. D ... ...
ROW 52 : ... .. A ... ... ... : ... .. . ... ... ... : ... .. . ... : ... .. . ... : ... .. . ... ... : F#5 01 5 P81 ... : F#5 01 5 P7F ... : ... .. 8 ... ...
ROW 53 : ... .. 8 ... ... ... : ... .. 6 ... ... ... : ... .. . ... : ... .. A ... : ... .. . ... ... : F-5 01 5 P82 ... : F-5 01 5 P80 ... : ... .. . ... ...
ROW 54 : ... .. . ... ... ... : C-4 00 8 ... ... ... : ... .. . ... : ... .. 8 ... : ... .. . ... ... : ... .. . P7F ... : E-5 01 5 P82 ... : ... .. . ... ...
ROW 55 : ... .. . ... ... ... : ... .. 7 ... ... ... : ... .. . ... : ... .. 7 ... : ... .. . ... ... : ... .. . ... ... : ... .. . ... ... : ... .. . ... ...
ROW 56 : ... .. . ... ... ... : ... .. . ... ... ... : ... .. . ... : ... .. 6 ... : ... .. . ... ... : F#5 01 5 ... ... : F-5 01 5 P81 ... : ... .. . ... ...
ROW 57 : ... .. 1 ... ... ... : ... .. 6 ... ... ... : ... .. . ... : ... .. . ... : ... .. . ... ... : ... .. . P82 ... : F#5 01 5 P80 ... : ... .. . ... ...
ROW 58 : G#1 00 C ... ... ... : G#3 00 8 ... ... ... : G#2 00 . ... : 2-# 00 F ... : ... .. . ... ... : G-5 01 5 P81 ... : G-5 01 5 P7F ... : G#2 01 F ... ...
ROW 59 : ... .. B ... ... ... : ... .. 7 ... ... ... : ... .. . ... : ... .. C ... : ... .. . ... ... : ... .. . P82 ... : ... .. . P80 ... : ... .. D ... ...
ROW 5A : ... .. A ... ... ... : ... .. . ... ... ... : ... .. . ... : ... .. 6 ... : ... .. . ... ... : ... .. . P80 ... : ... .. . P7E ... : ... .. 8 ... ...
ROW 5B : ... .. 8 ... ... ... : ... .. 6 ... ... ... : ... .. . ... : ... .. 3 ... : ... .. . ... ... : F#5 01 5 P81 ... : F#5 01 5 P7F ... : ... .. . ... ...
ROW 5C : ... .. . ... ... ... : F#3 00 8 ... ... ... : ... .. . ... : ... .. F ... : ... .. . ... ... : F-5 01 5 P82 ... : F-5 01 5 P80 ... : ... .. . ... ...
ROW 5D : ... .. . ... ... ... : ... .. 7 ... ... ... : ... .. . ... : ... .. C ... : ... .. . ... ... : ... .. . P7F ... : E-5 01 5 P82 ... : ... .. . ... ...
ROW 5E : ... .. . ... ... ... : ... .. . ... ... ... : ... .. . ... : ... .. 6 ... : ... .. . ... ... : F#5 01 5 P81 ... : F#5 01 5 P7F ... : ... .. . ... ...
ROW 5F : ... .. 1 ... ... ... : ... .. 6 ... ... ... : ... .. . ... : ... .. 3 ... : ... .. . ... ... : ... .. . ... ... : ... .. . ... ... : ... .. . ... ...
ROW 60 : D#4 00 C ... ... ... : ... .. F ... ... ... : A#5 00 . ... : B-# 00 C ... : ... .. . ... ... : ... .. 6 ... ... : ... .. A ... ... : B-1 01 F ... ...
ROW 61 : ... .. B ... ... ... : ... .. E ... ... ... : C-5 00 . ... : ... .. . ... : ... .. . ... ... : ... .. . ... ... : ... .. 9 ... ... : ... .. D ... ...
ROW 62 : ... .. A ... ... ... : ... .. D ... ... ... : F-4 00 . ... : ... .. A ... : ... .. . ... ... : ... .. 5 ... ... : ... .. 8 P80 ... : ... .. 8 ... ...
ROW 63 : ... .. 8 ... ... ... : ... .. A ... ... ... : E-4 00 . ... : ... .. . ... : ... .. . ... ... : ... .. 4 ... ... : ... .. 7 ... ... : ... .. . ... ...
ROW 64 : ... .. . ... ... ... : ... .. . ... ... ... : B-3 00 . ... : ... .. 9 ... : ... .. . ... ... : D#5 01 6 ... ... : ... .. . ... ... : ... .. . ... ...
ROW 65 : ... .. . ... ... ... : ... .. . ... ... ... : ... .. . ... : ... .. . ... : ... .. . ... ... : ... .. . ... ... : ... .. 6 ... ... : ... .. . ... ...
ROW 66 : ... .. . ... ... ... : ... .. . ... ... ... : ... .. . ... : ... .. 8 ... : ... .. . ... ... : ... .. 5 ... ... : ... .. 5 ... ... : ... .. . ... ...
ROW 67 : ... .. 1 ... ... ... : ... .. . ... ... ... : ... .. . ... : ... .. . ... : ... .. . ... ... : ... .. 4 ... ... : ... .. . ... ... : ... .. . ... ...
ROW 68 : B-1 00 C ... ... ... : G#3 00 F ... ... ... : A-3 00 . P7C : ... .. 7 ... : ... .. . ... ... : B-4 01 6 ... ... : D#3 01 A ... ... : A#1 01 8 P9E ...
ROW 69 : ... .. B ... ... ... : ... .. E ... ... ... : G-3 00 . P7B : ... .. . ... : ... .. . ... ... : ... .. . ... ... : ... .. 9 ... ... : ... .. . P7E ...
ROW 6A : ... .. A ... ... ... : ... .. D ... ... ... : F-3 00 . P7E : ... .. 6 ... : ... .. . ... ... : ... .. 5 ... ... : ... .. 8 ... ... : A-1 01 8 P9F ...
ROW 6B : ... .. 8 ... ... ... : ... .. A ... ... ... : D#3 00 . P86 : ... .. . ... : ... .. . ... ... : ... .. 4 ... ... : ... .. 7 ... ... : ... .. . P7F ...
ROW 6C : ... .. . ... ... ... : ... .. . ... ... ... : D-3 00 . P7B : ... .. 5 ... : ... .. . ... ... : F#4 01 6 ... ... : ... .. . ... ... : ... .. . P5F ...
ROW 6D : ... .. . ... ... ... : ... .. . ... ... ... : C-3 00 . P8A : ... .. . ... : ... .. . ... ... : ... .. . ... ... : ... .. 6 ... ... : G#1 01 8 P84 ...
ROW 6E : ... .. . ... ... ... : ... .. . ... ... ... : B-2 00 . P83 : ... .. 4 ... : ... .. . ... ... : ... .. 5 ... ... : ... .. 5 ... ... : ... .. . P64 ...
ROW 6F : ... .. 1 ... ... ... : ... .. . ... ... ... : A#2 00 . P7E : ... .. . ... : ... .. . ... ... : ... .. 4 ... ... : ... .. . ... ... : G-1 01 8 P8E ...
ROW 70 : ... .. C ... ... ... : A-3 00 F ... ... ... : B-4 00 . P80 : 1-# 00 F ... : ... .. . ... ... : D#4 01 6 ... ... : ... .. A ... ... : B-2 01 F P80 ...
ROW 71 : ... .. B ... ... ... : ... .. E ... ... ... : ... .. . ... : ... .. C ... : ... .. . ... ... : ... .. . ... ... : ... .. 9 ... ... : ... .. D ... ...
ROW 72 : ... .. A ... ... ... : ... .. D ... ... ... : ... .. . ... : ... .. 6 ... : ... .. . ... ... : ... .. 5 ... ... : ... .. 8 ... ... : ... .. 8 ... ...
ROW 73 : ... .. 8 ... ... ... : ... .. A ... ... ... : ... .. . ... : ... .. 3 ... : ... .. . ... ... : ... .. 4 ... ... : ... .. 7 ... ... : ... .. . ... ...
ROW 74 : ... .. . ... ... ... : ... .. . ... ... ... : ... .. . ... : ... .. 2 ... : ... .. . ... ... : B-3 01 6 ... ... : ... .. . ... ... : ... .. . ... ...
ROW 75 : ... .. . ... ... ... : ... .. . ... ... ... : ... .. . ... : ... .. 0 ... : ... .. . ... ... : ... .. . ... ... : ... .. 6 ... ... : ... .. . ... ...
ROW 76 : ... .. . ... ... ... : ... .. . ... ... ... : ... .. . ... : ... .. . ... : ... .. . ... ... : ... .. 5 ... ... : ... .. 5 ... ... : ... .. . ... ...
ROW 77 : ... .. 1 ... ... ... : ... .. . ... ... ... : ... .. . ... : ... .. . ... : ... .. . ... ... : ... .. 4 ... ... : ... .. . ... ... : ... .. . ... ...
ROW 78 : D#4 00 C ... ... ... : B-3 00 F ... ... ... : A#4 00 . ... : 9-# 00 D ... : ... .. . ... ... : F#5 01 6 ... ... : F#5 01 A ... ... : B-0 01 F ... ...
ROW 79 : ... .. B ... ... ... : ... .. E ... ... ... : C-4 00 . ... : ... .. B ... : ... .. . ... ... : ... .. . ... ... : ... .. 9 ... ... : ... .. D ... ...
ROW 7A : ... .. A ... ... ... : ... .. D ... ... ... : F-3 00 . ... : ... .. . ... : ... .. . ... ... : ... .. 5 ... ... : ... .. 8 ... ... : ... .. 8 ... ...
ROW 7B : ... .. 8 ... ... ... : ... .. A ... ... ... : E-3 00 . ... : ... .. A ... : ... .. . ... ... : ... .. 4 ... ... : ... .. 7 ... ... : ... .. . ... ...
ROW 7C : ... .. . ... ... ... : ... .. . ... ... ... : B-2 00 . ... : ... .. 8 ... : ... .. . ... ... : D#5 01 6 ... ... : ... .. . ... ... : ... .. . ... ...
ROW 7D : ... .. . ... ... ... : ... .. . ... ... ... : ... .. . ... : ... .. 7 ... : ... .. . ... ... : ... .. . ... ... : ... .. 6 ... ... : ... .. . ... ...
ROW 7E : ... .. . ... ... ... : ... .. . ... ... ... : ... .. . ... : ... .. 6 ... : ... .. . ... ... : ... .. 5 ... ... : ... .. 5 ... ... : ... .. . ... ...
ROW 7F : ... .. 1 ... ... ... : ... .. . ... ... ... : ... .. . ... : ... .. . ... : ... .. . ... ... : ... .. 4 ... ... : ... .. . ... ... : ... .. . ... ...
ROW 80 : B-1 00 C ... ... ... : ... .. . ... ... ... : A#2 00 . P7B : 1-# 00 F ... : ... .. . ... ... : B-4 01 6 ... ... : D#3 01 A ... ... : ... .. . P60 ...
ROW 81 : ... .. B ... ... ... : ... .. . ... ... ... : A-2 00 . P77 : ... .. C ... : ... .. . ... ... : ... .. . ... ... : ... .. 9 ... ... : A#0 01 8 PBB ...
ROW 82 : ... .. A ... ... ... : ... .. . ... ... ... : G#2 00 . P76 : ... .. 6 ... : ... .. . ... ... : ... .. 5 ... ... : ... .. 8 ... ... : ... .. . P9B ...
ROW 83 : ... .. 8 ... ... ... : ... .. . ... ... ... : G-2 00 . ... : ... .. 3 ... : ... .. . ... ... : ... .. 4 ... ... : ... .. 7 ... ... : ... .. . P7B ...
ROW 84 : ... .. . ... ... ... : ... .. . ... ... ... : F#2 00 . P78 : ... .. 2 ... : ... .. . ... ... : F#4 01 6 ... ... : ... .. . ... ... : ... .. . P5B ...
ROW 85 : ... .. . ... ... ... : ... .. . ... ... ... : F-2 00 . P7C : ... .. 0 ... : ... .. . ... ... : ... .. . ... ... : ... .. 6 ... ... : A-0 01 8 PBD ...
ROW 86 : ... .. . ... ... ... : ... .. . P84 ... ... : E-2 00 . P82 : ... .. . ... : ... .. . ... ... : ... .. 5 ... ... : ... .. 5 ... ... : ... .. . P9D ...
ROW 87 : ... .. 1 ... ... ... : ... .. . P86 ... ... : D#2 00 . P8A : ... .. . ... : ... .. . ... ... : ... .. 4 ... ... : ... .. . ... ... : ... .. . P7D ...
ROW 88 : ... .. C ... ... ... : ... .. . P85 ... ... : B-4 00 . P80 : ... .. F ... : ... .. . ... ... : D#4 01 6 ... ... : ... .. A ... ... : B-2 01 F P80 ...
ROW 89 : ... .. B ... ... ... : ... .. . P82 ... ... : ... .. . ... : ... .. C ... : ... .. . ... ... : ... .. . ... ... : ... .. 9 ... ... : ... .. D ... ...
ROW 8A : ... .. A ... ... ... : ... .. . P7E ... ... : ... .. . ... : ... .. 6 ... : ... .. . ... ... : ... .. 5 ... ... : ... .. 8 ... ... : ... .. 8 ... ...
ROW 8B : ... .. 8 ... ... ... : ... .. . P7B ... ... : ... .. . ... : ... .. 3 ... : ... .. . ... ... : ... .. 4 ... ... : ... .. 7 ... ... : ... .. . ... ...
ROW 8C : ... .. . ... ... ... : ... .. . P7A ... ... : ... .. . ... : ... .. 2 ... : ... .. . ... ... : B-3 01 6 ... ... : ... .. . ... ... : ... .. . ... ...
ROW 8D : ... .. . ... ... ... : ... .. . P7C ... ... : ... .. . ... : ... .. 0 ... : ... .. . ... ... : ... .. . ... ... : ... .. 6 ... ... : ... .. . ... ...
ROW 8E : ... .. . ... ... ... : ... .. . P80 ... ... : ... .. . ... : ... .. . ... : ... .. . ... ... : ... .. 5 ... ... : ... .. 5 ... ... : ... .. . ... ...
ROW 8F : ... .. 1 ... ... ... : ... .. . P83 ... ... : ... .. . ... : ... .. . ... : ... .. . ... ... : ... .. 4 ... ... : ... .. . ... ... : ... .. . ... ...
ROW 90 : D-4 00 C ... ... ... : A-3 00 F P80 ... ... : A#5 00 . ... : B-# 00 D ... : ... .. . ... ... : G-5 01 6 ... ... : F-5 01 A ... ... : B-1 01 F ... ...
ROW 91 : ... .. B ... ... ... : ... .. E ... ... ... : C-5 00 . ... : ... .. B ... : ... .. . ... ... : ... .. . ... ... : ... .. 9 ... ... : ... .. D ... ...
ROW 92 : ... .. A ... ... ... : ... .. D ... ... ... : F-4 00 . ... : ... .. . ... : ... .. . ... ... : ... .. 5 ... ... : ... .. 8 ... ... : ... .. 8 ... ...
ROW 93 : ... .. 8 ... ... ... : ... .. A ... ... ... : E-4 00 . ... : ... .. A ... : ... .. . ... ... : ... .. 4 ... ... : ... .. 7 ... ... : ... .. . ... ...
ROW 94 : ... .. . ... ... ... : ... .. . ... ... ... : B-3 00 . ... : ... .. 8 ... : ... .. . ... ... : F-5 01 6 ... ... : ... .. . ... ... : ... .. . ... ...
ROW 95 : ... .. . ... ... ... : ... .. . ... ... ... : ... .. . ... : ... .. 7 ... : ... .. . ... ... : ... .. . ... ... : ... .. 6 ... ... : ... .. . ... ...
ROW 96 : ... .. . ... ... ... : ... .. . ... ... ... : ... .. . ... : ... .. 6 ... : ... .. . ... ... : ... .. 5 ... ... : ... .. 5 ... ... : ... .. . ... ...
ROW 97 : ... .. 1 ... ... ... : ... .. . ... ... ... : ... .. . ... : ... .. . ... : ... .. . ... ... : ... .. 4 ... ... : ... .. . ... ... : ... .. . ... ...
ROW 98 : B-1 00 C ... ... ... : B-3 00 F ... ... ... : ... .. . ... : 1-# 00 F ... : ... .. . ... ... : B-4 01 6 ... ... : D-3 01 A ... ... : ... .. . ... ...
ROW 99 : ... .. B ... ... ... : ... .. E ... ... ... : ... .. . ... : ... .. C ... : ... .. . ... ... : ... .. . ... ... : ... .. 9 ... ... : ... .. . ... ...
ROW 9A : ... .. A ... ... ... : ... .. D ... ... ... : ... .. . ... : ... .. 6 ... : ... .. . ... ... : ... .. 5 ... ... : ... .. 8 ... ... : ... .. . ... ...
ROW 9B : ... .. 8 ... ... ... : ... .. A ... ... ... : ... .. . ... : ... .. 3 ... : ... .. . ... ... : ... .. 4 ... ... : ... .. 7 ... ... : ... .. . ... ...
ROW 9C : ... .. . ... ... ... : ... .. . ... ... ... : ... .. . ... : ... .. 2 ... : ... .. . ... ... : A-4 01 6 ... ... : ... .. . ... ... : ... .. . ... ...
ROW 9D : ... .. . ... ... ... : ... .. . ... ... ... : ... .. . ... : ... .. 0 ... : ... .. . ... ... : ... .. . ... ... : ... .. 6 ... ... : ... .. . ... ...
ROW 9E : ... .. . ... ... ... : ... .. . ... ... ... : ... .. . ... : ... .. . ... : ... .. . ... ... : ... .. 5 ... ... : ... .. 5 ... ... : ... .. . ... ...
ROW 9F : ... .. 1 ... ... ... : ... .. . ... ... ... : ... .. . ... : ... .. . ... : ... .. . ... ... : ... .. 4 ... ... : ... .. . ... ... : ... .. . ... ...
ROW A0 : ... .. C ... ... ... : A-4 00 F ... ... ... : A-3 00 . ... : ... .. F ... : ... .. . ... ... : F-4 01 6 ... ... : ... .. A ... ... : A-1 01 F ... ...
ROW A1 : ... .. B ... ... ... : ... .. E ... ... ... : ... .. . ... : ... .. C ... : ... .. . ... ... : ... .. . ... ... : ... .. 9 ... ... : ... .. D ... ...
ROW A2 : ... .. A ... ... ... : ... .. D ... ... ... : ... .. . ... : ... .. 6 ... : ... .. . ... ... : ... .. 5 ... ... : ... .. 8 ... ... : ... .. 8 ... ...
ROW A3 : ... .. 8 ... ... ... : ... .. A ... ... ... : ... .. . ... : ... .. 3 ... : ... .. . ... ... : ... .. 4 ... ... : ... .. 7 ... ... : ... .. . ... ...
ROW A4 : ... .. . ... ... ... : ... .. . ... ... ... : ... .. . ... : ... .. 2 ... : ... .. . ... ... : D#4 01 6 ... ... : ... .. . ... ... : ... .. . ... ...
ROW A5 : ... .. . ... ... ... : ... .. . ... ... ... : ... .. . ... : ... .. 0 ... : ... .. . ... ... : ... .. . ... ... : ... .. 6 ... ... : ... .. . ... ...
ROW A6 : ... .. . ... ... ... : ... .. . ... ... ... : ... .. . ... : ... .. . ... : ... .. . ... ... : ... .. 5 ... ... : ... .. 5 ... ... : ... .. . ... ...
ROW A7 : ... .. 1 ... ... ... : ... .. . ... ... ... : ... .. . ... : ... .. . ... : ... .. . ... ... : ... .. 4 ... ... : ... .. . ... ... : ... .. . ... ...
ROW A8 : D-4 00 C ... ... ... : ... .. . ... ... ... : A#4 00 . ... : 9-# 00 D ... : ... .. . ... ... : G-5 01 6 ... ... : F-5 01 A ... ... : B-0 01 F ... ...
ROW A9 : ... .. B ... ... ... : ... .. . ... ... ... : C-4 00 . ... : ... .. B ... : ... .. . ... ... : ... .. . ... ... : ... .. 9 ... ... : ... .. D ... ...
ROW AA : ... .. A ... ... ... : ... .. . ... ... ... : F-3 00 . ... : ... .. . ... : ... .. . ... ... : ... .. 5 ... ... : ... .. 8 ... ... : ... .. 8 ... ...
ROW AB : ... .. 8 ... ... ... : ... .. . ... ... ... : E-3 00 . ... : ... .. A ... : ... .. . ... ... : ... .. 4 ... ... : ... .. 7 ... ... : ... .. . ... ...
ROW AC : ... .. . ... ... ... : ... .. . ... ... ... : B-2 00 . ... : ... .. 8 ... : ... .. . ... ... : F-5 01 6 ... ... : ... .. . ... ... : ... .. . ... ...
ROW AD : ... .. . ... ... ... : ... .. . ... ... ... : ... .. . ... : ... .. 7 ... : ... .. . ... ... : ... .. . ... ... : ... .. 6 ... ... : ... .. . ... ...
ROW AE : ... .. . ... ... ... : ... .. . ... ... ... : ... .. . ... : ... .. 6 ... : ... .. . ... ... : ... .. 5 ... ... : ... .. 5 ... ... : ... .. . ... ...
ROW AF : ... .. 1 ... ... ... : ... .. . ... ... ... : ... .. . ... : ... .. . ... : ... .. . ... ... : ... .. 4 ... ... : ... .. . ... ... : ... .. . ... ...
ROW B0 : B-1 00 C ... ... ... : A#4 00 A P7D ... ... : A-2 00 . ... : 1-# 00 F ... : ... .. . ... ... : B-4 01 6 ... ... : D-3 01 A ... ... : A-0 01 F ... ...
ROW B1 : ... .. B ... ... ... : ... .. . P7F ... ... : ... .. . ... : ... .. C ... : ... .. . ... ... : ... .. . ... ... : ... .. 9 ... ... : ... .. D ... ...
ROW B2 : ... .. A ... ... ... : ... .. . P7E ... ... : ... .. . ... : ... .. 6 ... : ... .. . ... ... : ... .. 5 ... ... : ... .. 8 ... ... : ... .. 8 ... ...
ROW B3 : ... .. 8 ... ... ... : A-4 00 A P82 ... ... : ... .. . ... : ... .. 3 ... : ... .. . ... ... : ... .. 4 ... ... : ... .. 7 ... ... : ... .. . ... ...
ROW B4 : ... .. . ... ... ... : ... .. . P7E ... ... : ... .. . ... : ... .. 2 ... : ... .. . ... ... : A-4 01 6 ... ... : ... .. . ... ... : ... .. . ... ...
ROW B5 : ... .. . ... ... ... : G#4 00 A P83 ... ... : ... .. . ... : ... .. 0 ... : ... .. . ... ... : ... .. . ... ... : ... .. 6 ... ... : ... .. . ... ...
ROW B6 : ... .. . ... ... ... : ... .. . P82 ... ... : ... .. . ... : ... .. . ... : ... .. . ... ... : ... .. 5 ... ... : ... .. 5 ... ... : ... .. . ... ...
ROW B7 : ... .. 1 ... ... ... : ... .. . P84 ... ... : ... .. . ... : ... .. . ... : ... .. . ... ... : ... .. 4 ... ... : ... .. . ... ... : ... .. . ... ...
ROW B8 : ... .. C ... ... ... : A-4 00 A P80 ... ... : B-2 00 . ... : 8-# 00 8 ... : ... .. . ... ... : F-4 01 6 ... ... : ... .. A ... ... : B-0 01 F ... ...
ROW B9 : ... .. B ... ... ... : ... .. . P83 ... ... : ... .. . ... : ... .. 6 ... : ... .. . ... ... : ... .. . ... ... : ... .. 9 ... ... : ... .. D ... ...
ROW BA : ... .. A ... ... ... : A#4 00 A P7F ... ... : ... .. . ... : ... .. 0 ... : ... .. . ... ... : ... .. 5 ... ... : ... .. 8 ... ... : ... .. 8 ... ...
ROW BB : ... .. 8 ... ... ... : ... .. . ... ... ... : ... .. . ... : ... .. . ... : ... .. . ... ... : ... .. 4 ... ... : ... .. 7 ... ... : ... .. . ... ...
ROW BC : ... .. . ... ... ... : A-4 00 A P82 ... ... : ... .. . ... : ... .. 8 ... : ... .. . ... ... : D#4 01 6 ... ... : ... .. . ... ... : ... .. . ... ...
ROW BD : ... .. . ... ... ... : ... .. . P7F ... ... : ... .. . ... : ... .. 6 ... : ... .. . ... ... : ... .. . ... ... : ... .. 6 ... ... : ... .. . ... ...
ROW BE : ... .. . ... ... ... : G#4 00 A P83 ... ... : ... .. . ... : ... .. 0 ... : ... .. . ... ... : ... .. 5 ... ... : ... .. 5 ... ... : ... .. . ... ...
ROW BF : ... .. 1 ... ... ... : ... .. . P82 ... ... : ... .. . ... : ... .. . ... : ... .. . ... ... : ... .. 4 ... ... : ... .. . ... ... : ... .. . ... ...
ROW C0 : D#4 00 C ... ... ... : ... .. . P84 ... ... : A#5 00 . ... : 9-# 00 D ... : ... .. . ... ... : F#5 01 6 ... ... : F#5 01 A ... ... : B-1 01 F ... ...
ROW C1 : ... .. B ... ... ... : A-4 00 2 P80 ... ... : C-5 00 . ... : ... .. B ... : ... .. . ... ... : ... .. . ... ... : ... .. 9 ... ... : ... .. D ... ...
ROW C2 : ... .. A ... ... ... : ... .. . P83 ... ... : F-4 00 . ... : ... .. . ... : ... .. . ... ... : ... .. 5 ... ... : ... .. 8 ... ... : ... .. 8 ... ...
ROW C3 : ... .. 8 ... ... ... : A#4 00 2 P7F ... ... : E-4 00 . ... : ... .. A ... : ... .. . ... ... : ... .. 4 ... ... : ... .. 7 ... ... : ... .. . ... ...
ROW C4 : ... .. . ... ... ... : ... .. 1 ... ... ... : B-3 00 . ... : ... .. 8 ... : ... .. . ... ... : D#5 01 6 ... ... : ... .. . ... ... : ... .. . ... ...
ROW C5 : ... .. . ... ... ... : A-4 00 1 P83 ... ... : ... .. . ... : ... .. 7 ... : ... .. . ... ... : ... .. . ... ... : ... .. 6 ... ... : ... .. . ... ...
ROW C6 : ... .. . ... ... ... : ... .. . P80 ... ... : ... .. . ... : ... .. 6 ... : ... .. . ... ... : ... .. 5 ... ... : ... .. 5 ... ... : ... .. . ... ...
ROW C7 : ... .. 1 ... ... ... : ... .. 0 ... ... ... : ... .. . ... : ... .. . ... : ... .. . ... ... : ... .. 4 ... ... : ... .. . ... ... : ... .. . ... ...
ROW C8 : B-1 00 C ... ... ... : A-4 00 F P80 ... ... : A-3 00 . P7C : 1-# 00 F ... : ... .. . ... ... : B-4 01 6 ... ... : D#3 01 A ... ... : A#1 01 8 P9E ...
ROW C9 : ... .. B ... ... ... : ... .. E ... ... ... : G-3 00 . P7B : ... .. C ... : ... .. . ... ... : ... .. . ... ... : ... .. 9 ... ... : ... .. . P7E ...
ROW CA : ... .. A ... ... ... : ... .. D ... ... ... : F-3 00 . P7E : ... .. 6 ... : ... .. . ... ... : ... .. 5 ... ... : ... .. 8 ... ... : A-1 01 8 P9F ...
ROW CB : ... .. 8 ... ... ... : A#4 00 A P82 ... ... : D#3 00 . P86 : ... .. 3 ... : ... .. . ... ... : ... .. 4 ... ... : ... .. 7 ... ... : ... .. . P7F ...
ROW CC : ... .. . ... ... ... : B-4 00 A P80 ... ... : D-3 00 . P7B : ... .. F ... : ... .. . ... ... : F#4 01 6 ... ... : ... .. . ... ... : ... .. . P5F ...
ROW CD : ... .. . ... ... ... : ... .. . ... ... ... : C-3 00 . P8A : ... .. C ... : ... .. . ... ... : ... .. . ... ... : ... .. 6 ... ... : G#1 01 8 P84 ...
ROW CE : ... .. . ... ... ... : ... .. . ... ... ... : B-2 00 . P83 : ... .. 6 ... : ... .. . ... ... : ... .. 5 ... ... : ... .. 5 ... ... : ... .. . P64 ...
ROW CF : ... .. 1 ... ... ... : ... .. . ... ... ... : A#2 00 . P7E : ... .. 3 ... : ... .. . ... ... : ... .. 4 ... ... : ... .. . ... ... : G-1 01 8 P8E ...
ROW D0 : ... .. C ... ... ... : ... .. . ... ... ... : B-4 00 . P80 : ... .. F ... : ... .. . ... ... : D#4 01 6 ... ... : ... .. A ... ... : B-2 01 F P80 ...
ROW D1 : ... .. B ... ... ... : ... .. . ... ... ... : ... .. . ... : ... .. C ... : ... .. . ... ... : ... .. . ... ... : ... .. 9 ... ... : ... .. D ... ...
ROW D2 : ... .. A ... ... ... : ... .. . ... ... ... : ... .. . ... : ... .. 6 ... : ... .. . ... ... : ... .. 5 ... ... : ... .. 8 ... ... : ... .. 8 ... ...
ROW D3 : ... .. 8 ... ... ... : ... .. 2 ... ... ... : ... .. . ... : ... .. 3 ... : ... .. . ... ... : ... .. 4 ... ... : ... .. 7 ... ... : ... .. . ... ...
ROW D4 : ... .. . ... ... ... : ... .. . ... ... ... : ... .. . ... : ... .. 2 ... : ... .. . ... ... : B-3 01 6 ... ... : ... .. . ... ... : ... .. . ... ...
ROW D5 : ... .. . ... ... ... : ... .. . ... ... ... : ... .. . ... : ... .. 0 ... : ... .. . ... ... : ... .. . ... ... : ... .. 6 ... ... : ... .. . ... ...
ROW D6 : ... .. . ... ... ... : ... .. 1 ... ... ... : ... .. . ... : ... .. . ... : ... .. . ... ... : ... .. 5 ... ... : ... .. 5 ... ... : ... .. . ... ...
ROW D7 : ... .. 1 ... ... ... : ... .. . ... ... ... : ... .. . ... : ... .. . ... : ... .. . ... ... : ... .. 4 ... ... : ... .. . ... ... : ... .. . ... ...
ROW D8 : D#4 00 C ... ... ... : F#4 00 F ... ... ... : A#4 00 . ... : 9-# 00 D ... : ... .. . ... ... : F#5 01 6 ... ... : F#5 01 A ... ... : B-0 01 F ... ...
ROW D9 : ... .. B ... ... ... : ... .. E ... ... ... : C-4 00 . ... : ... .. B ... : ... .. . ... ... : ... .. . ... ... : ... .. 9 ... ... : ... .. D ... ...
ROW DA : ... .. A ... ... ... : ... .. D ... ... ... : F-3 00 . ... : ... .. . ... : ... .. . ... ... : ... .. 5 ... ... : ... .. 8 ... ... : ... .. 8 ... ...
ROW DB : ... .. 8 ... ... ... : ... .. A ... ... ... : E-3 00 . ... : ... .. A ... : ... .. . ... ... : ... .. 4 ... ... : ... .. 7 ... ... : ... .. . ... ...
ROW DC : ... .. . ... ... ... : ... .. . ... ... ... : B-2 00 . ... : ... .. 8 ... : ... .. . ... ... : D#5 01 6 ... ... : ... .. . ... ... : ... .. . ... ...
ROW DD : ... .. . ... ... ... : ... .. . ... ... ... : ... .. . ... : ... .. 7 ... : ... .. . ... ... : ... .. . ... ... : ... .. 6 ... ... : ... .. . ... ...
ROW DE : ... .. . ... ... ... : ... .. . ... ... ... : ... .. . ... : ... .. 6 ... : ... .. . ... ... : ... .. 5 ... ... : ... .. 5 ... ... : ... .. . ... ...
ROW DF : ... .. 1 ... ... ... : ... .. . ... ... ... : ... .. . ... : ... .. . ... : ... .. . ... ... : ... .. 4 ... ... : ... .. . ... ... : ... .. . ... ...
ROW E0 : B-1 00 C ... ... ... : D#4 00 F ... ... ... : A#2 00 . P7B : 1-# 00 F ... : ... .. . ... ... : B-4 01 6 ... ... : D#3 01 A ... ... : ... .. . P60 ...
ROW E1 : ... .. B ... ... ... : ... .. E ... ... ... : A-2 00 . P77 : ... .. C ... : ... .. . ... ... : ... .. . ... ... : ... .. 9 ... ... : A#0 01 8 PBB ...
ROW E2 : ... .. A ... ... ... : ... .. D ... ... ... : G#2 00 . P76 : ... .. 6 ... : ... .. . ... ... : ... .. 5 ... ... : ... .. 8 ... ... : ... .. . P9B ...
ROW E3 : ... .. 8 ... ... ... : ... .. A ... ... ... : G-2 00 . ... : ... .. 3 ... : ... .. . ... ... : ... .. 4 ... ... : ... .. 7 ... ... : ... .. . P7B ...
ROW E4 : ... .. . ... ... ... : ... .. . ... ... ... : F#2 00 . P78 : ... .. 2 ... : ... .. . ... ... : F#4 01 6 ... ... : ... .. . ... ... : ... .. . P5B ...
ROW E5 : ... .. . ... ... ... : ... .. . ... ... ... : F-2 00 . P7C : ... .. 0 ... : ... .. . ... ... : ... .. . ... ... : ... .. 6 ... ... : A-0 01 8 PBD ...
ROW E6 : ... .. . ... ... ... : ... .. . ... ... ... : E-2 00 . P82 : ... .. . ... : ... .. . ... ... : ... .. 5 ... ... : ... .. 5 ... ... : ... .. . P9D ...
ROW E7 : ... .. 1 ... ... ... : ... .. 2 ... ... ... : D#2 00 . P8A : ... .. . ... : ... .. . ... ... : ... .. 4 ... ... : ... .. . ... ... : ... .. . P7D ...
ROW E8 : ... .. C ... ... ... : B-3 00 F ... ... ... : B-4 00 . P80 : ... .. F ... : ... .. . ... ... : D#4 01 6 ... ... : ... .. A ... ... : B-2 01 F P80 ...
ROW E9 : ... .. B ... ... ... : ... .. E ... ... ... : ... .. . ... : ... .. C ... : ... .. . ... ... : ... .. . ... ... : ... .. 9 ... ... : ... .. D ... ...
ROW EA : ... .. A ... ... ... : ... .. D ... ... ... : ... .. . ... : ... .. 6 ... : ... .. . ... ... : ... .. 5 ... ... : ... .. 8 ... ... : ... .. 8 ... ...
ROW EB : ... .. 8 ... ... ... : ... .. A ... ... ... : ... .. . ... : ... .. 3 ... : ... .. . ... ... : ... .. 4 ... ... : ... .. 7 ... ... : ... .. . ... ...
ROW EC : ... .. . ... ... ... : ... .. . ... ... ... : ... .. . ... : ... .. 2 ... : ... .. . ... ... : B-3 01 6 ... ... : ... .. . ... ... : ... .. . ... ...
ROW ED : ... .. . ... ... ... : ... .. . ... ... ... : ... .. . ... : ... .. 0 ... : ... .. . ... ... : ... .. . ... ... : ... .. 6 ... ... : ... .. . ... ...
ROW EE : ... .. . ... ... ... : ... .. . ... ... ... : ... .. . ... : ... .. . ... : ... .. . ... ... : ... .. 5 ... ... : ... .. 5 ... ... : ... .. . ... ...
ROW EF : ... .. 1 ... ... ... : ... .. 2 ... ... ... : ... .. . ... : ... .. . ... : ... .. . ... ... : ... .. 4 ... ... : ... .. . ... ... : ... .. . ... ...
ROW F0 : D-4 00 C ... ... ... : C-4 00 F ... ... ... : A#5 00 . ... : 9-# 00 D ... : ... .. . ... ... : G-5 01 6 ... ... : F-5 01 A ... ... : B-1 01 F ... ...
ROW F1 : ... .. B ... ... ... : ... .. E ... ... ... : C-5 00 . ... : ... .. B ... : ... .. . ... ... : ... .. . ... ... : ... .. 9 ... ... : ... .. D ... ...
ROW F2 : ... .. A ... ... ... : ... .. D ... ... ... : F-4 00 . ... : ... .. . ... : ... .. . ... ... : ... .. 5 ... ... : ... .. 8 ... ... : ... .. 8 ... ...
ROW F3 : ... .. 8 ... ... ... : ... .. A ... ... ... : E-4 00 . ... : ... .. A ... : ... .. . ... ... : ... .. 4 ... ... : ... .. 7 ... ... : ... .. . ... ...
ROW F4 : ... .. . ... ... ... : ... .. . ... ... ... : B-3 00 . ... : ... .. 8 ... : ... .. . ... ... : F-5 01 6 ... ... : ... .. . ... ... : ... .. . ... ...
ROW F5 : ... .. . ... ... ... : ... .. . ... ... ... : ... .. . ... : ... .. 7 ... : ... .. . ... ... : ... .. . ... ... : ... .. 6 ... ... : ... .. . ... ...
ROW F6 : ... .. . ... ... ... : ... .. . ... ... ... : ... .. . ... : ... .. 6 ... : ... .. . ... ... : ... .. 5 ... ... : ... .. 5 ... ... : ... .. . ... ...
ROW F7 : ... .. 1 ... ... ... : ... .. . ... ... ... : ... .. . ... : ... .. . ... : ... .. . ... ... : ... .. 4 ... ... : ... .. . ... ... : ... .. . ... ...
ROW F8 : B-1 00 C ... ... ... : B-3 00 F ... ... ... : ... .. . ... : 1-# 00 F ... : ... .. . ... ... : B-4 01 6 ... ... : D-3 01 A ... ... : ... .. . ... ...
ROW F9 : ... .. B ... ... ... : ... .. E ... ... ... : ... .. . ... : ... .. C ... : ... .. . ... ... : ... .. . ... ... : ... .. 9 ... ... : ... .. . ... ...
ROW FA : ... .. A ... ... ... : ... .. D ... ... ... : ... .. . ... : ... .. 6 ... : ... .. . ... ... : ... .. 5 ... ... : ... .. 8 ... ... : ... .. . ... ...
ROW FB : ... .. 8 ... ... ... : ... .. A ... ... ... : ... .. . ... : ... .. 3 ... : ... .. . ... ... : ... .. 4 ... ... : ... .. 7 ... ... : ... .. . ... ...
ROW FC : ... .. . ... ... ... : ... .. . ... ... ... : ... .. . ... : ... .. 2 ... : ... .. . ... ... : A-4 01 6 ... ... : ... .. . ... ... : ... .. . ... ...
ROW FD : ... .. . ... ... ... : ... .. . ... ... ... : ... .. . ... : ... .. 0 ... : ... .. . ... ... : ... .. . ... ... : ... .. 6 ... ... : ... .. . ... ...
ROW FE : ... .. . ... ... ... : ... .. . ... ... ... : ... .. . ... : ... .. . ... : ... .. . ... ... : ... .. 5 ... ... : ... .. 5 ... ... : ... .. . ... ...
ROW FF : ... .. 1 ... ... ... : ... .. 2 ... ... ... : ... .. . ... : ... .. . ... : ... .. . ... ... : ... .. 4 ... ... : ... .. . ... ... : ... .. . ... ...

PATTERN 0C
ROW 00 : D-4 00 C ... ... ... : F-3 00 F ... ... ... : A-3 00 . ... : 9-# 00 D ... : ... .. . ... ... : B-5 01 6 ... ... : F-5 01 A ... ... : A-1 01 F ... ...
ROW 01 : ... .. B ... ... ... : ... .. E ... ... ... : ... .. . ... : ... .. B ... : ... .. . ... ... : ... .. . ... ... : ... .. 9 ... ... : ... .. D ... ...
ROW 02 : ... .. A ... ... ... : ... .. D ... ... ... : ... .. . ... : ... .. . ... : ... .. . ... ... : ... .. 5 ... ... : ... .. 8 ... ... : ... .. 8 ... ...
ROW 03 : ... .. 8 ... ... ... : ... .. A ... ... ... : ... .. . ... : ... .. A ... : ... .. . ... ... : ... .. 4 ... ... : ... .. 7 ... ... : ... .. . ... ...
ROW 04 : ... .. . ... ... ... : ... .. . ... ... ... : ... .. . ... : ... .. 8 ... : ... .. . ... ... : A-5 01 6 ... ... : ... .. . ... ... : ... .. . ... ...
ROW 05 : ... .. . ... ... ... : ... .. . ... ... ... : ... .. . ... : ... .. 7 ... : ... .. . ... ... : ... .. . ... ... : ... .. 6 ... ... : ... .. . ... ...
ROW 06 : ... .. . ... ... ... : ... .. . ... ... ... : ... .. . ... : ... .. 6 ... : ... .. . ... ... : ... .. 5 ... ... : ... .. 5 ... ... : ... .. . ... ...
ROW 07 : ... .. 1 ... ... ... : ... .. . ... ... ... : ... .. . ... : ... .. . ... : ... .. . ... ... : ... .. 4 ... ... : ... .. . ... ... : ... .. . ... ...
ROW 08 : B-1 00 C ... ... ... : ... .. . ... ... ... : A-4 00 . ... : 2-# 00 F ... : ... .. . ... ... : F-5 01 6 ... ... : D-3 01 A ... ... : A-2 01 F ... ...
ROW 09 : ... .. B ... ... ... : ... .. 2 ... ... ... : ... .. . ... : ... .. C ... : ... .. . ... ... : ... .. . ... ... : ... .. 9 ... ... : ... .. D ... ...
ROW 0A : ... .. A ... ... ... : ... .. . ... ... ... : ... .. . ... : ... .. 6 ... : ... .. . ... ... : ... .. 5 ... ... : ... .. 8 ... ... : ... .. 8 ... ...
ROW 0B : ... .. 8 ... ... ... : ... .. . ... ... ... : ... .. . ... : ... .. 3 ... : ... .. . ... ... : ... .. 4 ... ... : ... .. 7 ... ... : ... .. . ... ...
ROW 0C : ... .. . ... ... ... : ... .. 1 ... ... ... : ... .. . ... : ... .. F ... : ... .. . ... ... : D#5 01 6 ... ... : ... .. . ... ... : ... .. . ... ...
ROW 0D : ... .. . ... ... ... : ... .. . ... ... ... : ... .. . ... : ... .. C ... : ... .. . ... ... : ... .. . ... ... : ... .. 6 ... ... : ... .. . ... ...
ROW 0E : ... .. . ... ... ... : ... .. . ... ... ... : ... .. . ... : ... .. 6 ... : ... .. . ... ... : ... .. 5 ... ... : ... .. 5 ... ... : ... .. . ... ...
ROW 0F : ... .. 1 ... ... ... : ... .. 0 ... ... ... : ... .. . ... : ... .. 3 ... : ... .. . ... ... : ... .. 4 ... ... : ... .. . ... ... : ... .. . ... ...
ROW 10 : D#4 00 C ... ... ... : D#3 00 F P80 ... ... : A#5 00 . ... : B-# 00 C ... : ... .. . ... ... : B-4 01 6 ... ... : F#5 01 A ... ... : B-1 01 F ... ...
ROW 11 : ... .. B ... ... ... : ... .. E ... ... ... : C-5 00 . ... : ... .. . ... : ... .. . ... ... : ... .. . ... ... : ... .. 9 ... ... : ... .. D ... ...
ROW 12 : ... .. A ... ... ... : ... .. D ... ... ... : F-4 00 . ... : ... .. A ... : ... .. . ... ... : ... .. 5 ... ... : ... .. 8 ... ... : ... .. 8 ... ...
ROW 13 : ... .. 8 ... ... ... : ... .. A ... ... ... : E-4 00 . ... : ... .. . ... : ... .. . ... ... : ... .. 4 ... ... : ... .. 7 ... ... : ... .. . ... ...
ROW 14 : ... .. . ... ... ... : ... .. . ... ... ... : B-3 00 . ... : ... .. 9 ... : ... .. . ... ... : A-4 01 6 ... ... : ... .. . ... ... : ... .. . ... ...
ROW 15 : ... .. . ... ... ... : ... .. . ... ... ... : ... .. . ... : ... .. . ... : ... .. . ... ... : ... .. . ... ... : ... .. 6 ... ... : ... .. . ... ...
ROW 16 : ... .. . ... ... ... : ... .. . ... ... ... : ... .. . ... : ... .. 8 ... : ... .. . ... ... : ... .. 5 ... ... : ... .. 5 ... ... : ... .. . ... ...
ROW 17 : ... .. 1 ... ... ... : ... .. . ... ... ... : ... .. . ... : ... .. . ... : ... .. . ... ... : ... .. 4 ... ... : ... .. . ... ... : ... .. . ... ...
ROW 18 : B-1 00 C ... ... ... : A-3 00 F ... ... ... : A-3 00 . P7C : ... .. 7 ... : ... .. . ... ... : F-4 01 6 ... ... : D#3 01 A ... ... : A#1 01 8 P9E ...
ROW 19 : ... .. B ... ... ... : ... .. E ... ... ... : G-3 00 . P7B : ... .. . ... : ... .. . ... ... : ... .. . ... ... : ... .. 9 ... ... : ... .. . P7E ...
ROW 1A : ... .. A ... ... ... : ... .. D ... ... ... : F-3 00 . P7E : ... .. 6 ... : ... .. . ... ... : ... .. 5 ... ... : ... .. 8 ... ... : A-1 01 8 P9F ...
ROW 1B : ... .. 8 ... ... ... : ... .. A ... ... ... : D#3 00 . P86 : ... .. . ... : ... .. . ... ... : ... .. 4 ... ... : ... .. 7 ... ... : ... .. . P7F ...
ROW 1C : ... .. . ... ... ... : ... .. . ... ... ... : D-3 00 . P7B : ... .. 5 ... : ... .. . ... ... : D#4 01 6 ... ... : ... .. . ... ... : ... .. . P5F ...
ROW 1D : ... .. . ... ... ... : ... .. . ... ... ... : C-3 00 . P8A : ... .. . ... : ... .. . ... ... : ... .. . ... ... : ... .. 6 ... ... : G#1 01 8 P84 ...
ROW 1E : ... .. . ... ... ... : ... .. . ... ... ... : B-2 00 . P83 : ... .. 4 ... : ... .. . ... ... : ... .. 5 ... ... : ... .. 5 ... ... : ... .. . P64 ...
ROW 1F : ... .. 1 ... ... ... : ... .. 2 ... ... ... : A#2 00 . P7E : ... .. . ... : ... .. . ... ... : ... .. 4 ... ... : ... .. . ... ... : G-1 01 8 P8E ...
ROW 20 : ... .. C ... ... ... : D#4 00 F ... ... ... : B-4 00 . P80 : 1-# 00 F ... : ... .. . ... ... : B-3 01 6 ... ... : ... .. A ... ... : B-2 01 F P80 ...
ROW 21 : ... .. B ... ... ... : ... .. E ... ... ... : ... .. . ... : ... .. C ... : ... .. . ... ... : ... .. . ... ... : ... .. 9 ... ... : ... .. D ... ...
ROW 22 : ... .. A ... ... ... : ... .. D ... ... ... : ... .. . ... : ... .. 6 ... : ... .. . ... ... : ... .. 5 ... ... : ... .. 8 ... ... : ... .. 8 ... ...
ROW 23 : ... .. 8 ... ... ... : ... .. A ... ... ... : ... .. . ... : ... .. 3 ... : ... .. . ... ... : ... .. 4 ... ... : ... .. 7 ... ... : ... .. . ... ...
ROW 24 : ... .. . ... ... ... : ... .. . ... ... ... : ... .. . ... : ... .. 2 ... : ... .. . ... ... : A-3 01 6 ... ... : ... .. . ... ... : ... .. . ... ...
ROW 25 : ... .. . ... ... ... : E-4 00 A P7F ... ... : ... .. . ... : ... .. 0 ... : ... .. . ... ... : ... .. . ... ... : ... .. 6 ... ... : ... .. . ... ...
ROW 26 : ... .. . ... ... ... : F-4 00 A P7E ... ... : ... .. . ... : ... .. . ... : ... .. . ... ... : ... .. 5 ... ... : ... .. 5 ... ... : ... .. . ... ...
ROW 27 : ... .. 1 ... ... ... : ... .. . P80 ... ... : ... .. . ... : ... .. . ... : ... .. . ... ... : ... .. 4 ... ... : ... .. . ... ... : ... .. . ... ...
ROW 28 : D#4 00 C ... ... ... : ... .. . ... ... ... : A#4 00 . ... : 9-# 00 D ... : ... .. . ... ... : F-3 01 6 ... ... : F#5 01 A ... ... : B-0 01 F ... ...
ROW 29 : ... .. B ... ... ... : ... .. . ... ... ... : C-4 00 . ... : ... .. B ... : ... .. . ... ... : ... .. . ... ... : ... .. 9 ... ... : ... .. D ... ...
ROW 2A : ... .. A ... ... ... : ... .. . ... ... ... : F-3 00 . ... : ... .. . ... : ... .. . ... ... : ... .. 5 ... ... : ... .. 8 ... ... : ... .. 8 ... ...
ROW 2B : ... .. 8 ... ... ... : ... .. . ... ... ... : E-3 00 . ... : ... .. A ... : ... .. . ... ... : ... .. 4 ... ... : ... .. 7 ... ... : ... .. . ... ...
ROW 2C : ... .. . ... ... ... : ... .. . ... ... ... : B-2 00 . ... : ... .. 8 ... : ... .. . ... ... : D#3 01 6 ... ... : ... .. . ... ... : ... .. . ... ...
ROW 2D : ... .. . ... ... ... : ... .. . ... ... ... : ... .. . ... : ... .. 7 ... : ... .. . ... ... : ... .. . ... ... : ... .. 6 ... ... : ... .. . ... ...
ROW 2E : ... .. . ... ... ... : ... .. . ... ... ... : ... .. . ... : ... .. 6 ... : ... .. . ... ... : ... .. 5 ... ... : ... .. 5 ... ... : ... .. . ... ...
ROW 2F : ... .. 1 ... ... ... : ... .. . ... ... ... : ... .. . ... : ... .. . ... : ... .. . ... ... : ... .. 4 ... ... : ... .. . ... ... : ... .. . ... ...
ROW 30 : B-1 00 C ... ... ... : ... .. . ... ... ... : A#2 00 . P7B : 1-# 00 F ... : ... .. . ... ... : B-4 01 6 ... ... : D#3 01 A ... ... : ... .. . P60 ...
ROW 31 : ... .. B ... ... ... : ... .. . ... ... ... : A-2 00 . P77 : ... .. C ... : ... .. . ... ... : ... .. . ... ... : ... .. 9 ... ... : A#0 01 8 PBB ...
ROW 32 : ... .. A ... ... ... : ... .. . ... ... ... : G#2 00 . P76 : ... .. 6 ... : ... .. . ... ... : ... .. 5 ... ... : ... .. 8 ... ... : ... .. . P9B ...
ROW 33 : ... .. 8 ... ... ... : ... .. . ... ... ... : G-2 00 . ... : ... .. 3 ... : ... .. . ... ... : ... .. 4 ... ... : ... .. 7 ... ... : ... .. . P7B ...
ROW 34 : ... .. . ... ... ... : ... .. . ... ... ... : F#2 00 . P78 : ... .. 2 ... : ... .. . ... ... : A-4 01 6 ... ... : ... .. . ... ... : ... .. . P5B ...
ROW 35 : ... .. . ... ... ... : ... .. . ... ... ... : F-2 00 . P7C : ... .. 0 ... : ... .. . ... ... : ... .. . ... ... : ... .. 6 ... ... : A-0 01 8 PBD ...
ROW 36 : ... .. . ... ... ... : ... .. . ... ... ... : E-2 00 . P82 : ... .. . ... : ... .. . ... ... : ... .. 5 ... ... : ... .. 5 ... ... : ... .. . P9D ...
ROW 37 : ... .. 1 ... ... ... : ... .. . ... ... ... : D#2 00 . P8A : ... .. . ... : ... .. . ... ... : ... .. 4 ... ... : ... .. . ... ... : ... .. . P7D ...
ROW 38 : ... .. C ... ... ... : ... .. . P84 ... ... : B-4 00 . P80 : ... .. F ... : ... .. . ... ... : F-4 01 6 ... ... : ... .. A ... ... : B-2 01 F P80 ...
ROW 39 : ... .. B ... ... ... : F#4 00 A P7D ... ... : ... .. . ... : ... .. C ... : ... .. . ... ... : ... .. . ... ... : ... .. 9 ... ... : ... .. D ... ...
ROW 3A : ... .. A ... ... ... : ... .. . P7C ... ... : ... .. . ... : ... .. 6 ... : ... .. . ... ... : ... .. 5 ... ... : ... .. 8 ... ... : ... .. 8 ... ...
ROW 3B : ... .. 8 ... ... ... : F-4 00 A P82 ... ... : ... .. . ... : ... .. 3 ... : ... .. . ... ... : ... .. 4 ... ... : ... .. 7 ... ... : ... .. . ... ...
ROW 3C : ... .. . ... ... ... : ... .. . P7E ... ... : ... .. . ... : ... .. 2 ... : ... .. . ... ... : D#4 01 6 ... ... : ... .. . ... ... : ... .. . ... ...
ROW 3D : ... .. . ... ... ... : E-4 00 A P85 ... ... : ... .. . ... : ... .. 0 ... : ... .. . ... ... : ... .. . ... ... : ... .. 6 ... ... : ... .. . ... ...
ROW 3E : ... .. . ... ... ... : ... .. . P84 ... ... : ... .. . ... : ... .. . ... : ... .. . ... ... : ... .. 5 ... ... : ... .. 5 ... ... : ... .. . ... ...
ROW 3F : ... .. 1 ... ... ... : F-4 00 A P7C ... ... : ... .. . ... : ... .. . ... : ... .. . ... ... : ... .. 4 ... ... : ... .. . ... ... : ... .. . ... ...
ROW 40 : D-4 00 C ... ... ... : ... .. . P80 ... ... : A#5 00 . ... : 9-# 00 D ... : ... .. . ... ... : D-5 01 6 ... ... : F-5 01 A ... ... : B-1 01 F ... ...
ROW 41 : ... .. B ... ... ... : ... .. . P83 ... ... : C-5 00 . ... : ... .. B ... : ... .. . ... ... : ... .. . ... ... : ... .. 9 ... ... : ... .. D ... ...
ROW 42 : ... .. A ... ... ... : F#4 00 A P7D ... ... : F-4 00 . ... : ... .. . ... : ... .. . ... ... : ... .. 5 ... ... : ... .. 8 ... ... : ... .. 8 ... ...
ROW 43 : ... .. 8 ... ... ... : ... .. . ... ... ... : E-4 00 . ... : ... .. A ... : ... .. . ... ... : ... .. 4 ... ... : ... .. 7 ... ... : ... .. . ... ...
ROW 44 : ... .. . ... ... ... : F-4 00 A P82 ... ... : B-3 00 . ... : ... .. 8 ... : ... .. . ... ... : C-5 01 6 ... ... : ... .. . ... ... : ... .. . ... ...
ROW 45 : ... .. . ... ... ... : ... .. . P7F ... ... : ... .. . ... : ... .. 7 ... : ... .. . ... ... : ... .. . ... ... : ... .. 6 ... ... : ... .. . ... ...
ROW 46 : ... .. . ... ... ... : E-4 00 A P85 ... ... : ... .. . ... : ... .. 6 ... : ... .. . ... ... : ... .. 5 ... ... : ... .. 5 ... ... : ... .. . ... ...
ROW 47 : ... .. 1 ... ... ... : ... .. . P84 ... ... : ... .. . ... : ... .. . ... : ... .. . ... ... : ... .. 4 ... ... : ... .. . ... ... : ... .. . ... ...
ROW 48 : B-1 00 C ... ... ... : F-4 00 A P7C ... ... : ... .. . ... : 1-# 00 F ... : ... .. . ... ... : A-4 01 6 ... ... : D-3 01 A ... ... : ... .. . ... ...
ROW 49 : ... .. B ... ... ... : ... .. . P80 ... ... : ... .. . ... : ... .. C ... : ... .. . ... ... : ... .. . ... ... : ... .. 9 ... ... : ... .. . ... ...
ROW 4A : ... .. A ... ... ... : ... .. . P83 ... ... : ... .. . ... : ... .. 6 ... : ... .. . ... ... : ... .. 5 ... ... : ... .. 8 ... ... : ... .. . ... ...
ROW 4B : ... .. 8 ... ... ... : F#4 00 A P7D ... ... : ... .. . ... : ... .. 3 ... : ... .. . ... ... : ... .. 4 ... ... : ... .. 7 ... ... : ... .. . ... ...
ROW 4C : ... .. . ... ... ... : ... .. . ... ... ... : ... .. . ... : ... .. 2 ... : ... .. . ... ... : F-4 01 6 ... ... : ... .. . ... ... : ... .. . ... ...
ROW 4D : ... .. . ... ... ... : F-4 00 A P83 ... ... : ... .. . ... : ... .. 0 ... : ... .. . ... ... : ... .. . ... ... : ... .. 6 ... ... : ... .. . ... ...
ROW 4E : ... .. . ... ... ... : ... .. . P80 ... ... : ... .. . ... : ... .. . ... : ... .. . ... ... : ... .. 5 ... ... : ... .. 5 ... ... : ... .. . ... ...
ROW 4F : ... .. 1 ... ... ... : ... .. . P7C ... ... : ... .. . ... : ... .. . ... : ... .. . ... ... : ... .. 4 ... ... : ... .. . ... ... : ... .. . ... ...
ROW 50 : ... .. C ... ... ... : E-4 00 A P84 ... ... : A-3 00 . ... : ... .. F ... : ... .. . ... ... : D-4 01 6 ... ... : ... .. A ... ... : A-1 01 F ... ...
ROW 51 : ... .. B ... ... ... : ... .. . P85 ... ... : ... .. . ... : ... .. C ... : ... .. . ... ... : ... .. . ... ... : ... .. 9 ... ... : ... .. D ... ...
ROW 52 : ... .. A ... ... ... : F-4 00 A P7F ... ... : ... .. . ... : ... .. 6 ... : ... .. . ... ... : ... .. 5 ... ... : ... .. 8 ... ... : ... .. 8 ... ...
ROW 53 : ... .. 8 ... ... ... : ... .. . P82 ... ... : ... .. . ... : ... .. 3 ... : ... .. . ... ... : ... .. 4 ... ... : ... .. 7 ... ... : ... .. . ... ...
ROW 54 : ... .. . ... ... ... : F#4 00 A P7D ... ... : ... .. . ... : ... .. 2 ... : ... .. . ... ... : A-3 01 6 ... ... : ... .. . ... ... : ... .. . ... ...
ROW 55 : ... .. . ... ... ... : ... .. . ... ... ... : ... .. . ... : ... .. 0 ... : ... .. . ... ... : ... .. . ... ... : ... .. 6 ... ... : ... .. . ... ...
ROW 56 : ... .. . ... ... ... : F-4 00 A P83 ... ... : ... .. . ... : ... .. . ... : ... .. . ... ... : ... .. 5 ... ... : ... .. 5 ... ... : ... .. . ... ...
ROW 57 : ... .. 1 ... ... ... : ... .. . P80 ... ... : ... .. . ... : ... .. . ... : ... .. . ... ... : ... .. 4 ... ... : ... .. . ... ... : ... .. . ... ...
ROW 58 : D-4 00 C ... ... ... : ... .. . P7C ... ... : A#4 00 . ... : 9-# 00 D ... : ... .. . ... ... : D-5 01 6 ... ... : F-5 01 A ... ... : B-0 01 F ... ...
ROW 59 : ... .. B ... ... ... : E-4 00 A P84 ... ... : C-4 00 . ... : ... .. B ... : ... .. . ... ... : ... .. . ... ... : ... .. 9 ... ... : ... .. D ... ...
ROW 5A : ... .. A ... ... ... : ... .. . P85 ... ... : F-3 00 . ... : ... .. . ... : ... .. . ... ... : ... .. 5 ... ... : ... .. 8 ... ... : ... .. 8 ... ...
ROW 5B : ... .. 8 ... ... ... : F-4 00 A P7E ... ... : E-3 00 . ... : ... .. A ... : ... .. . ... ... : ... .. 4 ... ... : ... .. 7 ... ... : ... .. . ... ...
ROW 5C : ... .. . ... ... ... : ... .. . P82 ... ... : B-2 00 . ... : ... .. 8 ... : ... .. . ... ... : C-5 01 6 ... ... : ... .. . ... ... : ... .. . ... ...
ROW 5D : ... .. . ... ... ... : F#4 00 A P7C ... ... : ... .. . ... : ... .. 7 ... : ... .. . ... ... : ... .. . ... ... : ... .. 6 ... ... : ... .. . ... ...
ROW 5E : ... .. . ... ... ... : ... .. . P7D ... ... : ... .. . ... : ... .. 6 ... : ... .. . ... ... : ... .. 5 ... ... : ... .. 5 ... ... : ... .. . ... ...
ROW 5F : ... .. 1 ... ... ... : F-4 00 A P84 ... ... : ... .. . ... : ... .. . ... : ... .. . ... ... : ... .. 4 ... ... : ... .. . ... ... : ... .. . ... ...
ROW 60 : B-1 00 C ... ... ... : ... .. . P80 ... ... : A-2 00 . ... : 1-# 00 F ... : ... .. . ... ... : A-4 01 6 ... ... : D-3 01 A ... ... : A-0 01 F ... ...
ROW 61 : ... .. B ... ... ... : ... .. . P7D ... ... : ... .. . ... : ... .. C ... : ... .. . ... ... : ... .. . ... ... : ... .. 9 ... ... : ... .. D ... ...
ROW 62 : ... .. A ... ... ... : E-4 00 A P84 ... ... : ... .. . ... : ... .. 6 ... : ... .. . ... ... : ... .. 5 ... ... : ... .. 8 ... ... : ... .. 8 ... ...
ROW 63 : ... .. 8 ... ... ... : ... .. . ... ... ... : ... .. . ... : ... .. 3 ... : ... .. . ... ... : ... .. 4 ... ... : ... .. 7 ... ... : ... .. . ... ...
ROW 64 : ... .. . ... ... ... : F-4 00 A P7E ... ... : ... .. . ... : ... .. 2 ... : ... .. . ... ... : F-4 01 6 ... ... : ... .. . ... ... : ... .. . ... ...
ROW 65 : ... .. . ... ... ... : ... .. . P81 ... ... : ... .. . ... : ... .. 0 ... : ... .. . ... ... : ... .. . ... ... : ... .. 6 ... ... : ... .. . ... ...
ROW 66 : ... .. . ... ... ... : F#4 00 A P7C ... ... : ... .. . ... : ... .. . ... : ... .. . ... ... : ... .. 5 ... ... : ... .. 5 ... ... : ... .. . ... ...
ROW 67 : ... .. 1 ... ... ... : ... .. . P7D ... ... : ... .. . ... : ... .. . ... : ... .. . ... ... : ... .. 4 ... ... : ... .. . ... ... : ... .. . ... ...
ROW 68 : ... .. C ... ... ... : F-4 00 A P80 ... ... : B-2 00 . ... : 8-# 00 8 ... : ... .. . ... ... : D-4 01 6 ... ... : ... .. A ... ... : B-0 01 F ... ...
ROW 69 : ... .. B ... ... ... : ... .. 2 ... ... ... : ... .. . ... : ... .. 6 ... : ... .. . ... ... : ... .. . ... ... : ... .. 9 ... ... : ... .. D ... ...
ROW 6A : ... .. A ... ... ... : ... .. . ... ... ... : ... .. . ... : ... .. 0 ... : ... .. . ... ... : ... .. 5 ... ... : ... .. 8 ... ... : ... .. 8 ... ...
ROW 6B : ... .. 8 ... ... ... : ... .. . ... ... ... : ... .. . ... : ... .. . ... : ... .. . ... ... : ... .. 4 ... ... : ... .. 7 ... ... : ... .. . ... ...
ROW 6C : ... .. . ... ... ... : ... .. 1 ... ... ... : ... .. . ... : ... .. 8 ... : ... .. . ... ... : A-3 01 6 ... ... : ... .. . ... ... : ... .. . ... ...
ROW 6D : ... .. . ... ... ... : ... .. . ... ... ... : ... .. . ... : ... .. 6 ... : ... .. . ... ... : ... .. . ... ... : ... .. 6 ... ... : ... .. . ... ...
ROW 6E : ... .. . ... ... ... : ... .. . ... ... ... : ... .. . ... : ... .. 0 ... : ... .. . ... ... : ... .. 5 ... ... : ... .. 5 ... ... : ... .. . ... ...
ROW 6F : ... .. 1 ... ... ... : ... .. 0 ... ... ... : ... .. . ... : ... .. . ... : ... .. . ... ... : ... .. 4 ... ... : ... .. . ... ... : ... .. . ... ...
ROW 70 : D#4 00 C ... ... ... : D#4 00 F P80 ... ... : A#5 00 . ... : 9-# 00 D ... : ... .. . ... ... : D#5 01 6 ... ... : F#5 01 A ... ... : B-1 01 F ... ...
ROW 71 : ... .. B ... ... ... : ... .. E ... ... ... : C-5 00 . ... : ... .. B ... : ... .. . ... ... : ... .. . ... ... : ... .. 9 ... ... : ... .. D ... ...
ROW 72 : ... .. A ... ... ... : ... .. D ... ... ... : F-4 00 . ... : ... .. . ... : ... .. . ... ... : ... .. 5 ... ... : ... .. 8 ... ... : ... .. 8 ... ...
ROW 73 : ... .. 8 ... ... ... : ... .. A ... ... ... : E-4 00 . ... : ... .. A ... : ... .. . ... ... : ... .. 4 ... ... : ... .. 7 ... ... : ... .. . ... ...
ROW 74 : ... .. . ... ... ... : ... .. . ... ... ... : B-3 00 . ... : ... .. 8 ... : ... .. . ... ... : B-4 01 6 ... ... : ... .. . ... ... : ... .. . ... ...
ROW 75 : ... .. . ... ... ... : ... .. . ... ... ... : ... .. . ... : ... .. 7 ... : ... .. . ... ... : ... .. . ... ... : ... .. 6 ... ... : ... .. . ... ...
ROW 76 : ... .. . ... ... ... : ... .. . ... ... ... : ... .. . ... : ... .. 6 ... : ... .. . ... ... : ... .. 5 ... ... : ... .. 5 ... ... : ... .. . ... ...
ROW 77 : ... .. 1 ... ... ... : ... .. . ... ... ... : ... .. . ... : ... .. . ... : ... .. . ... ... : ... .. 4 ... ... : ... .. . ... ... : ... .. . ... ...
ROW 78 : B-1 00 C ... ... ... : F-4 00 F ... ... ... : A-3 00 . P7C : 1-# 00 F ... : ... .. . ... ... : F#4 01 6 ... ... : D#3 01 A ... ... : A#1 01 8 P9E ...
ROW 79 : ... .. B ... ... ... : ... .. E ... ... ... : G-3 00 . P7B : ... .. C ... : ... .. . ... ... : ... .. . ... ... : ... .. 9 ... ... : ... .. . P7E ...
ROW 7A : ... .. A ... ... ... : ... .. D ... ... ... : F-3 00 . P7E : ... .. 6 ... : ... .. . ... ... : ... .. 5 ... ... : ... .. 8 ... ... : A-1 01 8 P9F ...
ROW 7B : ... .. 8 ... ... ... : ... .. A ... ... ... : D#3 00 . P86 : ... .. 3 ... : ... .. . ... ... : ... .. 4 ... ... : ... .. 7 ... ... : ... .. . P7F ...
ROW 7C : ... .. . ... ... ... : ... .. . ... ... ... : D-3 00 . P7B : ... .. F ... : ... .. . ... ... : D#4 01 6 ... ... : ... .. . ... ... : ... .. . P5F ...
ROW 7D : ... .. . ... ... ... : ... .. . ... ... ... : C-3 00 . P8A : ... .. C ... : ... .. . ... ... : ... .. . ... ... : ... .. 6 ... ... : G#1 01 8 P84 ...
ROW 7E : ... .. . ... ... ... : ... .. . ... ... ... : B-2 00 . P83 : ... .. 6 ... : ... .. . ... ... : ... .. 5 ... ... : ... .. 5 ... ... : ... .. . P64 ...
ROW 7F : ... .. 1 ... ... ... : ... .. 2 ... ... ... : A#2 00 . P7E : ... .. 3 ... : ... .. . ... ... : ... .. 4 ... ... : ... .. . ... ... : G-1 01 8 P8E ...
ROW 80 : ... .. C ... ... ... : A-4 00 F ... ... ... : A-2 00 . P7A : ... .. F ... : ... .. . ... ... : B-3 01 6 ... ... : ... .. A ... ... : B-2 01 F P80 ...
ROW 81 : ... .. B ... ... ... : ... .. E ... ... ... : G#2 00 . P79 : ... .. C ... : ... .. . ... ... : ... .. . ... ... : ... .. 9 ... ... : ... .. D ... ...
ROW 82 : ... .. A ... ... ... : ... .. D ... ... ... : G-2 00 . ... : ... .. 6 ... : ... .. . ... ... : ... .. 5 ... ... : ... .. 8 ... ... : ... .. 8 ... ...
ROW 83 : ... .. 8 ... ... ... : ... .. A ... ... ... : F#2 00 . P7B : ... .. 3 ... : ... .. . ... ... : ... .. 4 ... ... : ... .. 7 ... ... : ... .. . ... ...
ROW 84 : ... .. . ... ... ... : ... .. . ... ... ... : F-2 00 . P7F : ... .. 2 ... : ... .. . ... ... : F#3 01 6 ... ... : ... .. . ... ... : ... .. . ... ...
ROW 85 : ... .. . ... ... ... : A#4 00 A P82 ... ... : E-2 00 . P85 : ... .. 0 ... : ... .. . ... ... : ... .. . ... ... : ... .. 6 ... ... : ... .. . ... ...
ROW 86 : ... .. . ... ... ... : B-4 00 A P80 ... ... : D#2 00 . P8D : ... .. . ... : ... .. . ... ... : ... .. 5 ... ... : ... .. 5 ... ... : ... .. . ... ...
ROW 87 : ... .. 1 ... ... ... : ... .. . ... ... ... : ... .. . P6D : ... .. . ... : ... .. . ... ... : ... .. 4 ... ... : ... .. . ... ... : ... .. . ... ...
ROW 88 : D#4 00 C ... ... ... : ... .. . ... ... ... : A#4 00 . P80 : 9-# 00 D ... : ... .. . ... ... : D#5 01 6 ... ... : F#5 01 A ... ... : B-0 01 F ... ...
ROW 89 : ... .. B ... ... ... : ... .. . ... ... ... : C-4 00 . ... : ... .. B ... : ... .. . ... ... : ... .. . ... ... : ... .. 9 ... ... : ... .. D ... ...
ROW 8A : ... .. A ... ... ... : ... .. . ... ... ... : F-3 00 . ... : ... .. . ... : ... .. . ... ... : ... .. 5 ... ... : ... .. 8 ... ... : ... .. 8 ... ...
ROW 8B : ... .. 8 ... ... ... : ... .. . ... ... ... : E-3 00 . ... : ... .. A ... : ... .. . ... ... : ... .. 4 ... ... : ... .. 7 ... ... : ... .. . ... ...
ROW 8C : ... .. . ... ... ... : ... .. . ... ... ... : B-2 00 . ... : ... .. 8 ... : ... .. . ... ... : B-4 01 6 ... ... : ... .. . ... ... : ... .. . ... ...
ROW 8D : ... .. . ... ... ... : ... .. . ... ... ... : ... .. . ... : ... .. 7 ... : ... .. . ... ... : ... .. . ... ... : ... .. 6 ... ... : ... .. . ... ...
ROW 8E : ... .. . ... ... ... : ... .. . ... ... ... : ... .. . ... : ... .. 6 ... : ... .. . ... ... : ... .. 5 ... ... : ... .. 5 ... ... : ... .. . ... ...
ROW 8F : ... .. 1 ... ... ... : ... .. . ... ... ... : ... .. . ... : ... .. . ... : ... .. . ... ... : ... .. 4 ... ... : ... .. . ... ... : ... .. . ... ...
ROW 90 : B-1 00 C ... ... ... : ... .. . ... ... ... : A#2 00 . P7B : 1-# 00 F ... : ... .. . ... ... : F#4 01 6 ... ... : D#3 01 A ... ... : ... .. . P60 ...
ROW 91 : ... .. B ... ... ... : ... .. . ... ... ... : A-2 00 . P77 : ... .. C ... : ... .. . ... ... : ... .. . ... ... : ... .. 9 ... ... : A#0 01 8 PBB ...
ROW 92 : ... .. A ... ... ... : ... .. . ... ... ... : G#2 00 . P76 : ... .. 6 ... : ... .. . ... ... : ... .. 5 ... ... : ... .. 8 ... ... : ... .. . P9B ...
ROW 93 : ... .. 8 ... ... ... : ... .. . ... ... ... : G-2 00 . ... : ... .. 3 ... : ... .. . ... ... : ... .. 4 ... ... : ... .. 7 ... ... : ... .. . P7B ...
ROW 94 : ... .. . ... ... ... : ... .. . ... ... ... : F#2 00 . P78 : ... .. 2 ... : ... .. . ... ... : D#4 01 6 ... ... : ... .. . ... ... : ... .. . P5B ...
ROW 95 : ... .. . ... ... ... : ... .. . ... ... ... : F-2 00 . P7C : ... .. 0 ... : ... .. . ... ... : ... .. . ... ... : ... .. 6 ... ... : A-0 01 8 PBD ...
ROW 96 : ... .. . ... ... ... : ... .. . ... ... ... : E-2 00 . P82 : ... .. . ... : ... .. . ... ... : ... .. 5 ... ... : ... .. 5 ... ... : ... .. . P9D ...
ROW 97 : ... .. 1 ... ... ... : ... .. . ... ... ... : D#2 00 . P8A : ... .. . ... : ... .. . ... ... : ... .. 4 ... ... : ... .. . ... ... : ... .. . P7D ...
ROW 98 : ... .. C ... ... ... : C-5 00 A P7E ... ... : D-2 00 . P95 : ... .. F ... : ... .. . ... ... : B-3 01 6 ... ... : ... .. A ... ... : B-2 01 F P80 ...
ROW 99 : ... .. B ... ... ... : ... .. . P80 ... ... : ... .. . P75 : ... .. C ... : ... .. . ... ... : ... .. . ... ... : ... .. 9 ... ... : ... .. D ... ...
ROW 9A : ... .. A ... ... ... : ... .. . P7F ... ... : C#2 00 . P82 : ... .. 6 ... : ... .. . ... ... : ... .. 5 ... ... : ... .. 8 ... ... : ... .. 8 ... ...
ROW 9B : ... .. 8 ... ... ... : B-4 00 A P82 ... ... : C-2 00 . P92 : ... .. 3 ... : ... .. . ... ... : ... .. 4 ... ... : ... .. 7 ... ... : ... .. . ... ...
ROW 9C : ... .. . ... ... ... : ... .. . P7E ... ... : ... .. . P72 : ... .. 2 ... : ... .. . ... ... : F#3 01 6 ... ... : ... .. . ... ... : ... .. . ... ...
ROW 9D : ... .. . ... ... ... : A#4 00 A P82 ... ... : B-1 00 . P85 : ... .. 0 ... : ... .. . ... ... : ... .. . ... ... : ... .. 6 ... ... : ... .. . ... ...
ROW 9E : ... .. . ... ... ... : ... .. . P81 ... ... : A#1 00 . P9B : ... .. . ... : ... .. . ... ... : ... .. 5 ... ... : ... .. 5 ... ... : ... .. . ... ...
ROW 9F : ... .. 1 ... ... ... : ... .. . P83 ... ... : ... .. . P7B : ... .. . ... : ... .. . ... ... : ... .. 4 ... ... : ... .. . ... ... : ... .. . ... ...
ROW A0 : D-4 00 C ... ... ... : B-4 00 A P80 ... ... : A#5 00 . P80 : 9-# 00 D ... : ... .. . ... ... : F-5 01 6 ... ... : F-5 01 A ... ... : B-1 01 F ... ...
ROW A1 : ... .. B ... ... ... : ... .. . P83 ... ... : C-5 00 . ... : ... .. B ... : ... .. . ... ... : ... .. . ... ... : ... .. 9 ... ... : ... .. D ... ...
ROW A2 : ... .. A ... ... ... : C-5 00 A P80 ... ... : F-4 00 . ... : ... .. . ... : ... .. . ... ... : ... .. 5 ... ... : ... .. 8 ... ... : ... .. 8 ... ...
ROW A3 : ... .. 8 ... ... ... : ... .. . ... ... ... : E-4 00 . ... : ... .. A ... : ... .. . ... ... : ... .. 4 ... ... : ... .. 7 ... ... : ... .. . ... ...
ROW A4 : ... .. . ... ... ... : B-4 00 A P82 ... ... : B-3 00 . ... : ... .. 8 ... : ... .. . ... ... : D#5 01 6 ... ... : ... .. . ... ... : ... .. . ... ...
ROW A5 : ... .. . ... ... ... : ... .. . P7F ... ... : ... .. . ... : ... .. 7 ... : ... .. . ... ... : ... .. . ... ... : ... .. 6 ... ... : ... .. . ... ...
ROW A6 : ... .. . ... ... ... : A#4 00 A P82 ... ... : ... .. . ... : ... .. 6 ... : ... .. . ... ... : ... .. 5 ... ... : ... .. 5 ... ... : ... .. . ... ...
ROW A7 : ... .. 1 ... ... ... : ... .. . P81 ... ... : ... .. . ... : ... .. . ... : ... .. . ... ... : ... .. 4 ... ... : ... .. . ... ... : ... .. . ... ...
ROW A8 : B-1 00 C ... ... ... : ... .. . P83 ... ... : ... .. . ... : B-# 00 F ... : ... .. . ... ... : B-4 01 6 ... ... : D-3 01 A ... ... : ... .. . ... ...
ROW A9 : ... .. B ... ... ... : B-4 00 A P80 ... ... : ... .. . ... : ... .. C ... : ... .. . ... ... : ... .. . ... ... : ... .. 9 ... ... : ... .. . ... ...
ROW AA : ... .. A ... ... ... : ... .. . P83 ... ... : ... .. . ... : ... .. 6 ... : ... .. . ... ... : ... .. 5 ... ... : ... .. 8 ... ... : ... .. . ... ...
ROW AB : ... .. 8 ... ... ... : C-5 00 2 P80 ... ... : ... .. . ... : ... .. 3 ... : ... .. . ... ... : ... .. 4 ... ... : ... .. 7 ... ... : ... .. . ... ...
ROW AC : ... .. . ... ... ... : ... .. . ... ... ... : ... .. . ... : ... .. F ... : ... .. . ... ... : A-4 01 6 ... ... : ... .. . ... ... : ... .. . ... ...
ROW AD : ... .. . ... ... ... : B-4 00 2 P83 ... ... : ... .. . ... : ... .. C ... : ... .. . ... ... : ... .. . ... ... : ... .. 6 ... ... : ... .. . ... ...
ROW AE : ... .. . ... ... ... : ... .. 1 P80 ... ... : ... .. . ... : ... .. 6 ... : ... .. . ... ... : ... .. 5 ... ... : ... .. 5 ... ... : ... .. . ... ...
ROW AF : ... .. 1 ... ... ... : ... .. . ... ... ... : ... .. . ... : ... .. 3 ... : ... .. . ... ... : ... .. 4 ... ... : ... .. . ... ... : ... .. . ... ...
ROW B0 : D-4 00 C ... ... ... : F-4 00 F ... ... ... : A-3 00 . P7C : 7-# 00 F ... : ... .. . ... ... : F-4 01 6 ... ... : F-5 01 A ... ... : A-1 01 F ... ...
ROW B1 : ... .. B ... ... ... : ... .. E ... ... ... : G-3 00 . P7B : ... .. C ... : ... .. . ... ... : ... .. . ... ... : ... .. 9 ... ... : ... .. D ... ...
ROW B2 : ... .. A ... ... ... : ... .. D ... ... ... : F-3 00 . P7E : ... .. 6 ... : ... .. . ... ... : ... .. 5 ... ... : ... .. 8 ... ... : ... .. 8 ... ...
ROW B3 : ... .. 8 ... ... ... : ... .. A ... ... ... : D#3 00 . P86 : ... .. 3 ... : ... .. . ... ... : ... .. 4 ... ... : ... .. 7 ... ... : ... .. . ... ...
ROW B4 : ... .. . ... ... ... : G-4 00 F ... ... ... : D-3 00 . P7B : ... .. F ... : ... .. . ... ... : D#4 01 6 ... ... : ... .. . ... ... : ... .. . ... ...
ROW B5 : ... .. . ... ... ... : ... .. E ... ... ... : C-3 00 . P8A : ... .. C ... : ... .. . ... ... : ... .. . ... ... : ... .. 6 ... ... : ... .. . ... ...
ROW B6 : ... .. . ... ... ... : ... .. D ... ... ... : B-2 00 . P83 : ... .. 6 ... : ... .. . ... ... : ... .. 5 ... ... : ... .. 5 ... ... : ... .. . ... ...
ROW B7 : ... .. 1 ... ... ... : ... .. A ... ... ... : A#2 00 . P7E : ... .. 3 ... : ... .. . ... ... : ... .. 4 ... ... : ... .. . ... ... : ... .. . ... ...
ROW B8 : B-1 00 C ... ... ... : G#4 00 F ... ... ... : A-2 00 . P7A : 4-# 00 F ... : ... .. . ... ... : B-3 01 6 ... ... : D-3 01 A ... ... : B-0 01 F ... ...
ROW B9 : ... .. B ... ... ... : ... .. E ... ... ... : G#2 00 . P79 : ... .. C ... : ... .. . ... ... : ... .. . ... ... : ... .. 9 ... ... : ... .. D ... ...
ROW BA : ... .. A ... ... ... : ... .. D ... ... ... : G-2 00 . ... : ... .. 6 ... : ... .. . ... ... : ... .. 5 ... ... : ... .. 8 ... ... : ... .. 8 ... ...
ROW BB : ... .. 8 ... ... ... : ... .. A ... ... ... : F#2 00 . P7B : ... .. 3 ... : ... .. . ... ... : ... .. 4 ... ... : ... .. 7 ... ... : ... .. . ... ...
ROW BC : ... .. . ... ... ... : B-4 00 F ... ... ... : F-2 00 . P7F : ... .. F ... : ... .. . ... ... : A-3 01 6 ... ... : ... .. . ... ... : ... .. . ... ...
ROW BD : ... .. . ... ... ... : ... .. E ... ... ... : E-2 00 . P85 : ... .. C ... : ... .. . ... ... : ... .. . ... ... : ... .. 6 ... ... : ... .. . ... ...
ROW BE : ... .. . ... ... ... : ... .. D ... ... ... : D#2 00 . P8D : ... .. 6 ... : ... .. . ... ... : ... .. 5 ... ... : ... .. 5 ... ... : ... .. . ... ...
ROW BF : ... .. 1 ... ... ... : ... .. A ... ... ... : ... .. . P6D : ... .. 3 ... : ... .. . ... ... : ... .. 4 ... ... : ... .. . ... ... : ... .. . ... ...
ROW C0 : C-5 00 F ... ... ... : F-4 00 A ... ... ... : E-4 00 . P80 : B-# 00 C ... : ... .. . ... ... : C-3 01 8 ... ... : F-3 01 8 P7F ... : A#1 01 C ... ...
ROW C1 : ... .. E ... ... ... : ... .. 8 ... ... ... : F#3 00 . ... : ... .. . ... : ... .. . ... ... : ... .. 7 ... ... : ... .. 7 ... ... : ... .. A ... ...
ROW C2 : ... .. D ... ... ... : ... .. . ... ... ... : B-2 00 . ... : ... .. A ... : ... .. . ... ... : ... .. 6 ... ... : ... .. 6 ... ... : ... .. 6 ... ...
ROW C3 : ... .. A ... ... ... : ... .. . ... ... ... : A#2 00 . ... : ... .. . ... : ... .. . ... ... : ... .. 5 ... ... : ... .. 5 ... ... : ... .. . ... ...
ROW C4 : ... .. . ... ... ... : C-4 00 A ... ... ... : F-2 00 . ... : ... .. 9 ... : ... .. . ... ... : ... .. . ... ... : ... .. . ... ... : C-2 01 C ... ...
ROW C5 : ... .. . ... ... ... : ... .. 8 ... ... ... : ... .. . ... : ... .. . ... : ... .. . ... ... : ... .. 4 ... ... : ... .. 4 ... ... : ... .. A ... ...
ROW C6 : ... .. . ... ... ... : ... .. . ... ... ... : ... .. . ... : ... .. 8 ... : ... .. . ... ... : ... .. . ... ... : ... .. . ... ... : ... .. 6 ... ...
ROW C7 : ... .. . ... ... ... : ... .. . ... ... ... : ... .. . ... : ... .. . ... : ... .. . ... ... : ... .. . ... ... : ... .. . ... ... : ... .. . ... ...
ROW C8 : ... .. . ... ... ... : G#3 00 A ... ... ... : ... .. . ... : ... .. 7 ... : ... .. . ... ... : ... .. . ... ... : ... .. . ... ... : C#2 01 C ... ...
ROW C9 : ... .. . ... ... ... : ... .. 8 ... ... ... : ... .. . ... : ... .. . ... : ... .. . ... ... : ... .. . ... ... : ... .. . ... ... : ... .. A ... ...
ROW CA : ... .. . ... ... ... : ... .. . ... ... ... : ... .. . ... : ... .. 6 ... : ... .. . ... ... : ... .. . ... ... : ... .. . ... ... : ... .. 6 ... ...
ROW CB : ... .. . ... ... ... : ... .. . ... ... ... : ... .. . ... : ... .. . ... : ... .. . ... ... : ... .. . ... ... : ... .. . ... ... : ... .. . ... ...
ROW CC : B-4 00 A P7E ... ... : F-3 00 A ... ... ... : ... .. . ... : ... .. 5 ... : ... .. . ... ... : ... .. . ... ... : ... .. . ... ... : D#2 01 C ... ...
ROW CD : A#4 00 A P7D ... ... : ... .. 8 ... ... ... : ... .. . ... : ... .. . ... : ... .. . ... ... : ... .. . ... ... : ... .. . ... ... : ... .. A ... ...
ROW CE : G#4 00 A P84 ... ... : ... .. . ... ... ... : ... .. . ... : ... .. 4 ... : ... .. . ... ... : ... .. . ... ... : ... .. . ... ... : ... .. 6 ... ...
ROW CF : G-4 00 A ... ... ... : ... .. . ... ... ... : ... .. . ... : ... .. . ... : ... .. . ... ... : ... .. . ... ... : ... .. . ... ... : ... .. . ... ...
ROW D0 : C-5 00 9 P80 ... ... : C-3 00 A ... ... ... : ... .. . ... : 1-# 00 F ... : ... .. . ... ... : ... .. . ... ... : ... .. . ... ... : C-2 01 C ... ...
ROW D1 : ... .. 8 ... ... ... : ... .. 8 ... ... ... : ... .. . ... : ... .. C ... : ... .. . ... ... : ... .. . ... ... : ... .. . ... ... : ... .. A ... ...
ROW D2 : ... .. 7 ... ... ... : ... .. . ... ... ... : ... .. . ... : ... .. 6 ... : ... .. . ... ... : ... .. . ... ... : ... .. . ... ... : ... .. 6 ... ...
ROW D3 : ... .. 6 ... ... ... : ... .. . ... ... ... : ... .. . ... : ... .. 3 ... : ... .. . ... ... : ... .. . ... ... : ... .. . ... ... : ... .. . ... ...
ROW D4 : B-4 00 6 P7E ... ... : G#2 00 A ... ... ... : ... .. . ... : ... .. 2 ... : ... .. . ... ... : ... .. . ... ... : ... .. . ... ... : C#2 01 C ... ...
ROW D5 : A#4 00 6 P7D ... ... : ... .. 8 ... ... ... : ... .. . ... : ... .. 0 ... : ... .. . ... ... : ... .. . ... ... : ... .. . ... ... : ... .. A ... ...
ROW D6 : G#4 00 6 P84 ... ... : ... .. . ... ... ... : ... .. . ... : ... .. . ... : ... .. . ... ... : ... .. . ... ... : ... .. . ... ... : ... .. 6 ... ...
ROW D7 : G-4 00 6 ... ... ... : ... .. . ... ... ... : ... .. . ... : ... .. . ... : ... .. . ... ... : ... .. . ... ... : ... .. . ... ... : ... .. . ... ...
ROW D8 : F-4 00 F P80 ... ... : G-4 00 A ... ... ... : F#4 00 . ... : 9-# 00 D ... : ... .. . ... ... : F-3 01 8 ... ... : G#3 01 8 ... ... : D#2 01 C ... ...
ROW D9 : ... .. E ... ... ... : ... .. 8 ... ... ... : G#3 00 . ... : ... .. B ... : ... .. . ... ... : ... .. 7 ... ... : ... .. 7 ... ... : ... .. A ... ...
ROW DA : ... .. D ... ... ... : ... .. . ... ... ... : C#3 00 . ... : ... .. . ... : ... .. . ... ... : ... .. 6 ... ... : ... .. 6 ... ... : ... .. 6 ... ...
ROW DB : ... .. A ... ... ... : ... .. . ... ... ... : C-3 00 . ... : ... .. A ... : ... .. . ... ... : ... .. 5 ... ... : ... .. 5 ... ... : ... .. . ... ...
ROW DC : ... .. . ... ... ... : C-4 00 A ... ... ... : G-2 00 . ... : ... .. 8 ... : ... .. . ... ... : ... .. . ... ... : ... .. . ... ... : F-2 01 C ... ...
ROW DD : ... .. . ... ... ... : ... .. 8 ... ... ... : ... .. . ... : ... .. 7 ... : ... .. . ... ... : ... .. 4 ... ... : ... .. 4 ... ... : ... .. A ... ...
ROW DE : ... .. . ... ... ... : ... .. . ... ... ... : ... .. . ... : ... .. 6 ... : ... .. . ... ... : ... .. . ... ... : ... .. . ... ... : ... .. 6 ... ...
ROW DF : ... .. . ... ... ... : ... .. . ... ... ... : ... .. . ... : ... .. . ... : ... .. . ... ... : ... .. . ... ... : ... .. . ... ... : ... .. . ... ...
ROW E0 : ... .. . ... ... ... : G#3 00 A ... ... ... : ... .. . ... : 1-# 00 F ... : ... .. . ... ... : ... .. . ... ... : ... .. . ... ... : C#2 01 C ... ...
ROW E1 : ... .. . ... ... ... : ... .. 8 ... ... ... : ... .. . ... : ... .. C ... : ... .. . ... ... : ... .. . ... ... : ... .. . ... ... : ... .. A ... ...
ROW E2 : ... .. . ... ... ... : ... .. . ... ... ... : ... .. . ... : ... .. 6 ... : ... .. . ... ... : ... .. . ... ... : ... .. . ... ... : ... .. 6 ... ...
ROW E3 : ... .. . ... ... ... : ... .. . ... ... ... : ... .. . ... : ... .. 3 ... : ... .. . ... ... : ... .. . ... ... : ... .. . ... ... : ... .. . ... ...
ROW E4 : E-4 00 A P82 ... ... : F-3 00 A ... ... ... : ... .. . ... : ... .. 2 ... : ... .. . ... ... : ... .. . ... ... : ... .. . ... ... : D#2 01 C ... ...
ROW E5 : D#4 00 A P84 ... ... : ... .. 8 ... ... ... : ... .. . ... : ... .. 0 ... : ... .. . ... ... : ... .. . ... ... : ... .. . ... ... : ... .. A ... ...
ROW E6 : ... .. . P7C ... ... : ... .. . ... ... ... : ... .. . ... : ... .. . ... : ... .. . ... ... : ... .. . ... ... : ... .. . ... ... : ... .. 6 ... ...
ROW E7 : D-4 00 A P7E ... ... : ... .. . ... ... ... : ... .. . ... : ... .. . ... : ... .. . ... ... : ... .. . ... ... : ... .. . ... ... : ... .. . ... ...
ROW E8 : F-4 00 9 P80 ... ... : C-3 00 A ... ... ... : ... .. . ... : ... .. F ... : ... .. . ... ... : ... .. . ... ... : ... .. . ... ... : F-2 01 C ... ...
ROW E9 : ... .. 8 ... ... ... : ... .. 8 ... ... ... : ... .. . ... : ... .. C ... : ... .. . ... ... : ... .. . ... ... : ... .. . ... ... : ... .. A ... ...
ROW EA : ... .. 7 ... ... ... : ... .. . ... ... ... : ... .. . ... : ... .. 6 ... : ... .. . ... ... : ... .. . ... ... : ... .. . ... ... : ... .. 6 ... ...
ROW EB : ... .. 6 ... ... ... : ... .. . ... ... ... : ... .. . ... : ... .. 3 ... : ... .. . ... ... : ... .. . ... ... : ... .. . ... ... : ... .. . ... ...
ROW EC : E-4 00 6 P82 ... ... : G#2 00 A ... ... ... : ... .. . ... : ... .. 2 ... : ... .. . ... ... : ... .. . ... ... : ... .. . ... ... : G-2 01 C ... ...
ROW ED : D#4 00 6 P84 ... ... : ... .. 8 ... ... ... : ... .. . ... : ... .. 0 ... : ... .. . ... ... : ... .. . ... ... : ... .. . ... ... : ... .. A ... ...
ROW EE : ... .. . P7C ... ... : ... .. . ... ... ... : ... .. . ... : ... .. . ... : ... .. . ... ... : ... .. . ... ... : ... .. . ... ... : ... .. 6 ... ...
ROW EF : D-4 00 6 P7E ... ... : ... .. . ... ... ... : ... .. . ... : ... .. . ... : ... .. . ... ... : ... .. . ... ... : ... .. . ... ... : ... .. . ... ...
ROW F0 : G-4 00 F P80 ... ... : G#4 00 B ... ... ... : G-4 00 . ... : B-# 00 D ... : ... .. . ... ... : G#3 01 8 ... ... : C-4 01 8 ... ... : G#2 01 C ... ...
ROW F1 : ... .. E ... ... ... : ... .. 9 ... ... ... : A-3 00 . ... : ... .. B ... : ... .. . ... ... : ... .. 7 ... ... : ... .. 7 ... ... : ... .. A ... ...
ROW F2 : ... .. D ... ... ... : ... .. . ... ... ... : D-3 00 . ... : ... .. . ... : ... .. . ... ... : ... .. 6 ... ... : ... .. 6 ... ... : ... .. 6 ... ...
ROW F3 : ... .. A ... ... ... : ... .. 8 ... ... ... : C#3 00 . ... : ... .. A ... : ... .. . ... ... : ... .. 5 ... ... : ... .. 5 ... ... : ... .. . ... ...
ROW F4 : ... .. . ... ... ... : F-4 00 B ... ... ... : G#2 00 . ... : ... .. 8 ... : ... .. . ... ... : ... .. . ... ... : ... .. . ... ... : A#2 01 C ... ...
ROW F5 : ... .. . ... ... ... : ... .. 9 ... ... ... : ... .. . ... : ... .. 7 ... : ... .. . ... ... : ... .. 4 ... ... : ... .. 4 ... ... : ... .. A ... ...
ROW F6 : ... .. . ... ... ... : ... .. . ... ... ... : ... .. . ... : ... .. 6 ... : ... .. . ... ... : ... .. . ... ... : ... .. . ... ... : ... .. 6 ... ...
ROW F7 : ... .. . ... ... ... : ... .. 8 ... ... ... : ... .. . ... : ... .. . ... : ... .. . ... ... : ... .. . ... ... : ... .. . ... ... : ... .. . ... ...
ROW F8 : ... .. . ... ... ... : C-4 00 B ... ... ... : ... .. . ... : 1-# 00 F ... : ... .. . ... ... : ... .. . ... ... : ... .. . ... ... : C-3 01 C ... ...
ROW F9 : ... .. . ... ... ... : ... .. 9 ... ... ... : ... .. . ... : ... .. C ... : ... .. . ... ... : ... .. . ... ... : ... .. . ... ... : ... .. A ... ...
ROW FA : ... .. . ... ... ... : ... .. . ... ... ... : ... .. . ... : ... .. 6 ... : ... .. . ... ... : ... .. . ... ... : ... .. . ... ... : ... .. 6 ... ...
ROW FB : ... .. . ... ... ... : ... .. 8 ... ... ... : ... .. . ... : ... .. 3 ... : ... .. . ... ... : ... .. . ... ... : ... .. . ... ... : ... .. . ... ...
ROW FC : F#4 00 A ... ... ... : G#3 00 B ... ... ... : ... .. . ... : ... .. 2 ... : ... .. . ... ... : ... .. . ... ... : ... .. . ... ... : C#3 01 C ... ...
ROW FD : F-4 00 A P81 ... ... : ... .. 9 ... ... ... : ... .. . ... : ... .. 0 ... : ... .. . ... ... : ... .. . ... ... : ... .. . ... ... : ... .. A ... ...
ROW FE : E-4 00 A P83 ... ... : ... .. . ... ... ... : ... .. . ... : ... .. . ... : ... .. . ... ... : ... .. . ... ... : ... .. . ... ... : ... .. 6 ... ...
ROW FF : D#4 00 A P85 ... ... : ... .. 8 ... ... ... : ... .. . ... : ... .. . ... : ... .. . ... ... : ... .. . ... ... : ... .. . ... ... : ... .. . ... ...

PATTERN 0D
ROW 00 : G-4 00 9 P80 ... ... : F-3 00 B ... ... ... : ... .. . ... : ... .. F ... : ... .. . ... ... : ... .. . ... ... : ... .. . ... ... : D#3 01 C ... ...
ROW 01 : ... .. 8 ... ... ... : ... .. 9 ... ... ... : ... .. . ... : ... .. C ... : ... .. . ... ... : ... .. . ... ... : ... .. . ... ... : ... .. A ... ...
ROW 02 : ... .. 7 ... ... ... : ... .. . ... ... ... : ... .. . ... : ... .. 6 ... : ... .. . ... ... : ... .. . ... ... : ... .. . ... ... : ... .. 6 ... ...
ROW 03 : ... .. 6 ... ... ... : ... .. 8 ... ... ... : ... .. . ... : ... .. 3 ... : ... .. . ... ... : ... .. . ... ... : ... .. . ... ... : ... .. . ... ...
ROW 04 : F#4 00 6 ... ... ... : C-3 00 B ... ... ... : ... .. . ... : ... .. 2 ... : ... .. . ... ... : ... .. . ... ... : ... .. . ... ... : F-3 01 C ... ...
ROW 05 : F-4 00 6 P81 ... ... : ... .. 9 ... ... ... : ... .. . ... : ... .. 0 ... : ... .. . ... ... : ... .. . ... ... : ... .. . ... ... : ... .. A ... ...
ROW 06 : E-4 00 6 P83 ... ... : ... .. . ... ... ... : ... .. . ... : ... .. . ... : ... .. . ... ... : ... .. . ... ... : ... .. . ... ... : ... .. 6 ... ...
ROW 07 : D#4 00 6 P85 ... ... : ... .. 8 ... ... ... : ... .. . ... : ... .. . ... : ... .. . ... ... : ... .. . ... ... : ... .. . ... ... : ... .. . ... ...
ROW 08 : G#4 00 F P80 ... ... : C-5 00 B ... ... ... : B-4 00 . ... : 9-# 00 D ... : ... .. . ... ... : C-4 01 8 ... ... : F-4 01 8 ... ... : G-3 01 C ... ...
ROW 09 : ... .. E ... ... ... : ... .. 9 ... ... ... : C#4 00 . ... : ... .. B ... : ... .. . ... ... : ... .. 7 ... ... : ... .. 7 ... ... : ... .. A ... ...
ROW 0A : ... .. D ... ... ... : ... .. . ... ... ... : F#3 00 . ... : ... .. . ... : ... .. . ... ... : ... .. 6 ... ... : ... .. 6 ... ... : ... .. 6 ... ...
ROW 0B : ... .. A ... ... ... : ... .. 8 ... ... ... : F-3 00 . ... : ... .. A ... : ... .. . ... ... : ... .. 5 ... ... : ... .. 5 ... ... : ... .. . ... ...
ROW 0C : ... .. . ... ... ... : G#4 00 B ... ... ... : C-3 00 . ... : ... .. 8 ... : ... .. . ... ... : ... .. . ... ... : ... .. . ... ... : G#3 01 C ... ...
ROW 0D : ... .. . ... ... ... : ... .. 9 ... ... ... : ... .. . ... : ... .. 7 ... : ... .. . ... ... : ... .. 4 ... ... : ... .. 4 ... ... : ... .. A ... ...
ROW 0E : ... .. . ... ... ... : ... .. . ... ... ... : ... .. . ... : ... .. 6 ... : ... .. . ... ... : ... .. . ... ... : ... .. . ... ... : ... .. 6 ... ...
ROW 0F : ... .. . ... ... ... : ... .. 8 ... ... ... : ... .. . ... : ... .. . ... : ... .. . ... ... : ... .. . ... ... : ... .. . ... ... : ... .. . ... ...
ROW 10 : ... .. . ... ... ... : F-4 00 B ... ... ... : ... .. . ... : 1-# 00 F ... : ... .. . ... ... : ... .. . ... ... : ... .. . ... ... : F-3 01 C ... ...
ROW 11 : ... .. . ... ... ... : ... .. 9 ... ... ... : ... .. . ... : ... .. C ... : ... .. . ... ... : ... .. . ... ... : ... .. . ... ... : ... .. A ... ...
ROW 12 : ... .. . ... ... ... : ... .. . ... ... ... : ... .. . ... : ... .. 6 ... : ... .. . ... ... : ... .. . ... ... : ... .. . ... ... : ... .. 6 ... ...
ROW 13 : ... .. . ... ... ... : ... .. 8 ... ... ... : ... .. . ... : ... .. 3 ... : ... .. . ... ... : ... .. . ... ... : ... .. . ... ... : ... .. . ... ...
ROW 14 : G-4 00 A ... ... ... : C-4 00 B ... ... ... : ... .. . ... : ... .. 2 ... : ... .. . ... ... : ... .. . ... ... : ... .. . ... ... : G-3 01 C ... ...
ROW 15 : F#4 00 A ... ... ... : ... .. 9 ... ... ... : ... .. . ... : ... .. 0 ... : ... .. . ... ... : ... .. . ... ... : ... .. . ... ... : ... .. A ... ...
ROW 16 : F-4 00 A P81 ... ... : ... .. . ... ... ... : ... .. . ... : ... .. . ... : ... .. . ... ... : ... .. . ... ... : ... .. . ... ... : ... .. 6 ... ...
ROW 17 : E-4 00 A P83 ... ... : ... .. 8 ... ... ... : ... .. . ... : ... .. . ... : ... .. . ... ... : ... .. . ... ... : ... .. . ... ... : ... .. . ... ...
ROW 18 : G#4 00 9 P80 ... ... : F-3 00 B ... ... ... : ... .. . ... : 8-# 00 8 ... : ... .. . ... ... : ... .. . ... ... : ... .. . ... ... : G#3 01 C ... ...
ROW 19 : ... .. 8 ... ... ... : ... .. 9 ... ... ... : ... .. . ... : ... .. 6 ... : ... .. . ... ... : ... .. . ... ... : ... .. . ... ... : ... .. A ... ...
ROW 1A : ... .. 7 ... ... ... : ... .. . ... ... ... : ... .. . ... : ... .. 0 ... : ... .. . ... ... : ... .. . ... ... : ... .. . ... ... : ... .. 6 ... ...
ROW 1B : ... .. 6 ... ... ... : ... .. 8 ... ... ... : ... .. . ... : ... .. . ... : ... .. . ... ... : ... .. . ... ... : ... .. . ... ... : ... .. . ... ...
ROW 1C : G-4 00 6 ... ... ... : C-3 00 B ... ... ... : ... .. . ... : ... .. 8 ... : ... .. . ... ... : ... .. . ... ... : ... .. . ... ... : A#3 01 C ... ...
ROW 1D : F#4 00 6 ... ... ... : ... .. 9 ... ... ... : ... .. . ... : ... .. 6 ... : ... .. . ... ... : ... .. . ... ... : ... .. . ... ... : ... .. A ... ...
ROW 1E : F-4 00 6 P81 ... ... : ... .. . ... ... ... : ... .. . ... : ... .. 0 ... : ... .. . ... ... : ... .. . ... ... : ... .. . ... ... : ... .. 6 ... ...
ROW 1F : E-4 00 6 P83 ... ... : ... .. 8 ... ... ... : ... .. . ... : ... .. . ... : ... .. . ... ... : ... .. . ... ... : ... .. . ... ... : ... .. . ... ...
ROW 20 : F#4 00 F P80 ... ... : D-5 00 C ... ... ... : A#4 00 . ... : B-# 00 C ... : ... .. . ... ... : B-3 01 8 ... ... : F#4 01 8 ... ... : B-3 01 C ... ...
ROW 21 : ... .. E ... ... ... : ... .. A ... ... ... : C-4 00 . ... : ... .. . ... : ... .. . ... ... : ... .. 7 ... ... : ... .. 7 ... ... : ... .. A ... ...
ROW 22 : ... .. D ... ... ... : ... .. . ... ... ... : F-3 00 . ... : ... .. A ... : ... .. . ... ... : ... .. 6 ... ... : ... .. 6 ... ... : ... .. 6 ... ...
ROW 23 : ... .. A ... ... ... : ... .. 9 ... ... ... : E-3 00 . ... : ... .. . ... : ... .. . ... ... : ... .. 5 ... ... : ... .. 5 ... ... : ... .. . ... ...
ROW 24 : ... .. . ... ... ... : B-4 00 C ... ... ... : B-2 00 . ... : ... .. 9 ... : ... .. . ... ... : ... .. . ... ... : ... .. . ... ... : C#4 01 C ... ...
ROW 25 : ... .. . ... ... ... : ... .. A ... ... ... : ... .. . ... : ... .. . ... : ... .. . ... ... : ... .. 4 ... ... : ... .. 4 ... ... : ... .. A ... ...
ROW 26 : ... .. . ... ... ... : ... .. . ... ... ... : ... .. . ... : ... .. 8 ... : ... .. . ... ... : ... .. . ... ... : ... .. . ... ... : ... .. 6 ... ...
ROW 27 : ... .. . ... ... ... : ... .. 9 ... ... ... : ... .. . ... : ... .. . ... : ... .. . ... ... : ... .. . ... ... : ... .. . ... ... : ... .. . ... ...
ROW 28 : ... .. . ... ... ... : F#4 00 C ... ... ... : ... .. . ... : ... .. 7 ... : ... .. . ... ... : ... .. . ... ... : ... .. . ... ... : D-4 01 C ... ...
ROW 29 : ... .. . ... ... ... : ... .. A ... ... ... : ... .. . ... : ... .. . ... : ... .. . ... ... : ... .. . ... ... : ... .. . ... ... : ... .. A ... ...
ROW 2A : ... .. . ... ... ... : ... .. . ... ... ... : ... .. . ... : ... .. 6 ... : ... .. . ... ... : ... .. . ... ... : ... .. . ... ... : ... .. 6 ... ...
ROW 2B : ... .. . ... ... ... : ... .. 9 ... ... ... : ... .. . ... : ... .. . ... : ... .. . ... ... : ... .. . ... ... : ... .. . ... ... : ... .. . ... ...
ROW 2C : F-4 00 A P81 ... ... : D-4 00 C ... ... ... : ... .. . ... : ... .. 5 ... : ... .. . ... ... : ... .. . ... ... : ... .. . ... ... : E-4 01 C ... ...
ROW 2D : E-4 00 A P83 ... ... : ... .. A ... ... ... : ... .. . ... : ... .. . ... : ... .. . ... ... : ... .. . ... ... : ... .. . ... ... : ... .. A ... ...
ROW 2E : D#4 00 A P85 ... ... : ... .. . ... ... ... : ... .. . ... : ... .. 4 ... : ... .. . ... ... : ... .. . ... ... : ... .. . ... ... : ... .. 6 ... ...
ROW 2F : ... .. . P7D ... ... : ... .. 9 ... ... ... : ... .. . ... : ... .. . ... : ... .. . ... ... : ... .. . ... ... : ... .. . ... ... : ... .. . ... ...
ROW 30 : F#4 00 9 P80 ... ... : B-3 00 C ... ... ... : ... .. . ... : 1-# 00 F ... : ... .. . ... ... : ... .. . ... ... : ... .. . ... ... : C#4 01 C ... ...
ROW 31 : ... .. 8 ... ... ... : ... .. A ... ... ... : ... .. . ... : ... .. C ... : ... .. . ... ... : ... .. . ... ... : ... .. . ... ... : ... .. A ... ...
ROW 32 : ... .. 7 ... ... ... : ... .. . ... ... ... : ... .. . ... : ... .. 6 ... : ... .. . ... ... : ... .. . ... ... : ... .. . ... ... : ... .. 6 ... ...
ROW 33 : ... .. 6 ... ... ... : ... .. 9 ... ... ... : ... .. . ... : ... .. 3 ... : ... .. . ... ... : ... .. . ... ... : ... .. . ... ... : ... .. . ... ...
ROW 34 : F-4 00 6 P81 ... ... : F#3 00 C ... ... ... : ... .. . ... : ... .. 2 ... : ... .. . ... ... : ... .. . ... ... : ... .. . ... ... : D-4 01 C ... ...
ROW 35 : E-4 00 6 P83 ... ... : ... .. A ... ... ... : ... .. . ... : ... .. 0 ... : ... .. . ... ... : ... .. . ... ... : ... .. . ... ... : ... .. A ... ...
ROW 36 : D#4 00 6 P85 ... ... : ... .. . ... ... ... : ... .. . ... : ... .. . ... : ... .. . ... ... : ... .. . ... ... : ... .. . ... ... : ... .. 6 ... ...
ROW 37 : ... .. . P7D ... ... : ... .. 9 ... ... ... : ... .. . ... : ... .. . ... : ... .. . ... ... : ... .. . ... ... : ... .. . ... ... : ... .. . ... ...
ROW 38 : B-4 00 F P80 ... ... : E-5 00 C ... ... ... : C-5 00 . ... : 9-# 00 D ... : ... .. . ... ... : D-4 01 8 ... ... : B-4 01 8 ... ... : E-4 01 C ... ...
ROW 39 : ... .. E ... ... ... : ... .. A ... ... ... : D-4 00 . ... : ... .. B ... : ... .. . ... ... : ... .. 7 ... ... : ... .. 7 ... ... : ... .. A ... ...
ROW 3A : ... .. D ... ... ... : ... .. . ... ... ... : G-3 00 . ... : ... .. . ... : ... .. . ... ... : ... .. 6 ... ... : ... .. 6 ... ... : ... .. 6 ... ...
ROW 3B : ... .. A ... ... ... : ... .. 9 ... ... ... : F#3 00 . ... : ... .. A ... : ... .. . ... ... : ... .. 5 ... ... : ... .. 5 ... ... : ... .. . ... ...
ROW 3C : ... .. . ... ... ... : B-4 00 C ... ... ... : C#3 00 . ... : ... .. 8 ... : ... .. . ... ... : ... .. . ... ... : ... .. . ... ... : F#4 01 C ... ...
ROW 3D : ... .. . ... ... ... : ... .. A ... ... ... : ... .. . ... : ... .. 7 ... : ... .. . ... ... : ... .. 4 ... ... : ... .. 4 ... ... : ... .. A ... ...
ROW 3E : ... .. . ... ... ... : ... .. . ... ... ... : ... .. . ... : ... .. 6 ... : ... .. . ... ... : ... .. . ... ... : ... .. . ... ... : ... .. 6 ... ...
ROW 3F : ... .. . ... ... ... : ... .. 9 ... ... ... : ... .. . ... : ... .. . ... : ... .. . ... ... : ... .. . ... ... : ... .. . ... ... : ... .. . ... ...
ROW 40 : ... .. . ... ... ... : F#4 00 C ... ... ... : ... .. . ... : 1-# 00 F ... : ... .. . ... ... : ... .. . ... ... : ... .. . ... ... : D-4 01 C ... ...
ROW 41 : ... .. . ... ... ... : ... .. A ... ... ... : ... .. . ... : ... .. C ... : ... .. . ... ... : ... .. . ... ... : ... .. . ... ... : ... .. A ... ...
ROW 42 : ... .. . ... ... ... : ... .. . ... ... ... : ... .. . ... : ... .. 6 ... : ... .. . ... ... : ... .. . ... ... : ... .. . ... ... : ... .. 6 ... ...
ROW 43 : ... .. . ... ... ... : ... .. 9 ... ... ... : ... .. . ... : ... .. 3 ... : ... .. . ... ... : ... .. . ... ... : ... .. . ... ... : ... .. . ... ...
ROW 44 : A#4 00 A P7F ... ... : D-4 00 C ... ... ... : ... .. . ... : ... .. 2 ... : ... .. . ... ... : ... .. . ... ... : ... .. . ... ... : E-4 01 C ... ...
ROW 45 : A-4 00 A P7E ... ... : ... .. A ... ... ... : ... .. . ... : ... .. 0 ... : ... .. . ... ... : ... .. . ... ... : ... .. . ... ... : ... .. A ... ...
ROW 46 : G#4 00 A ... ... ... : ... .. . ... ... ... : ... .. . ... : ... .. . ... : ... .. . ... ... : ... .. . ... ... : ... .. . ... ... : ... .. 6 ... ...
ROW 47 : G-4 00 A ... ... ... : ... .. 9 ... ... ... : ... .. . ... : ... .. . ... : ... .. . ... ... : ... .. . ... ... : ... .. . ... ... : ... .. . ... ...
ROW 48 : B-4 00 9 P80 ... ... : B-3 00 C ... ... ... : ... .. . ... : ... .. F ... : ... .. . ... ... : ... .. . ... ... : ... .. . ... ... : F#4 01 C ... ...
ROW 49 : ... .. 8 ... ... ... : ... .. A ... ... ... : ... .. . ... : ... .. C ... : ... .. . ... ... : ... .. . ... ... : ... .. . ... ... : ... .. A ... ...
ROW 4A : ... .. 7 ... ... ... : ... .. . ... ... ... : ... .. . ... : ... .. 6 ... : ... .. . ... ... : ... .. . ... ... : ... .. . ... ... : ... .. 6 ... ...
ROW 4B : ... .. 6 ... ... ... : ... .. 9 ... ... ... : ... .. . ... : ... .. 3 ... : ... .. . ... ... : ... .. . ... ... : ... .. . ... ... : ... .. . ... ...
ROW 4C : A#4 00 6 P7F ... ... : F#3 00 C ... ... ... : ... .. . ... : ... .. 2 ... : ... .. . ... ... : ... .. . ... ... : ... .. . ... ... : G#4 01 C ... ...
ROW 4D : A-4 00 6 P7E ... ... : ... .. A ... ... ... : ... .. . ... : ... .. 0 ... : ... .. . ... ... : ... .. . ... ... : ... .. . ... ... : ... .. A ... ...
ROW 4E : G#4 00 6 ... ... ... : ... .. . ... ... ... : ... .. . ... : ... .. . ... : ... .. . ... ... : ... .. . ... ... : ... .. . ... ... : ... .. 6 ... ...
ROW 4F : G-4 00 6 ... ... ... : ... .. 9 ... ... ... : ... .. . ... : ... .. . ... : ... .. . ... ... : ... .. . ... ... : ... .. . ... ... : ... .. . ... ...
ROW 50 : D-5 00 F P80 ... ... : F#5 00 D ... ... ... : C#5 00 . ... : B-# 00 D ... : ... .. . ... ... : F#4 01 8 ... ... : D-5 01 8 ... ... : F#4 01 C ... ...
ROW 51 : ... .. E ... ... ... : ... .. B ... ... ... : D#4 00 . ... : ... .. B ... : ... .. . ... ... : ... .. 7 ... ... : ... .. 7 ... ... : ... .. A ... ...
ROW 52 : ... .. D ... ... ... : ... .. . ... ... ... : G#3 00 . ... : ... .. . ... : ... .. . ... ... : ... .. 6 ... ... : ... .. 6 ... ... : ... .. 6 ... ...
ROW 53 : ... .. A ... ... ... : ... .. A ... ... ... : G-3 00 . ... : ... .. A ... : ... .. . ... ... : ... .. 5 ... ... : ... .. 5 ... ... : ... .. . ... ...
ROW 54 : ... .. . ... ... ... : D-5 00 D ... ... ... : D-3 00 . ... : ... .. 8 ... : ... .. . ... ... : ... .. . ... ... : ... .. . ... ... : G#4 01 C ... ...
ROW 55 : ... .. . ... ... ... : ... .. B ... ... ... : ... .. . ... : ... .. 7 ... : ... .. . ... ... : ... .. 4 ... ... : ... .. 4 ... ... : ... .. A ... ...
ROW 56 : ... .. . ... ... ... : ... .. . ... ... ... : ... .. . ... : ... .. 6 ... : ... .. . ... ... : ... .. . ... ... : ... .. . ... ... : ... .. 6 ... ...
ROW 57 : ... .. . ... ... ... : ... .. A ... ... ... : ... .. . ... : ... .. . ... : ... .. . ... ... : ... .. . ... ... : ... .. . ... ... : ... .. . ... ...
ROW 58 : ... .. . ... ... ... : B-4 00 D ... ... ... : ... .. . ... : 1-# 00 F ... : ... .. . ... ... : ... .. . ... ... : ... .. . ... ... : A#4 01 C ... ...
ROW 59 : ... .. . ... ... ... : ... .. B ... ... ... : ... .. . ... : ... .. C ... : ... .. . ... ... : ... .. . ... ... : ... .. . ... ... : ... .. A ... ...
ROW 5A : ... .. . ... ... ... : ... .. . ... ... ... : ... .. . ... : ... .. 6 ... : ... .. . ... ... : ... .. . ... ... : ... .. . ... ... : ... .. 6 ... ...
ROW 5B : ... .. . ... ... ... : ... .. A ... ... ... : ... .. . ... : ... .. 3 ... : ... .. . ... ... : ... .. . ... ... : ... .. . ... ... : ... .. . ... ...
ROW 5C : C#5 00 A P7E ... ... : F#4 00 D ... ... ... : ... .. . ... : ... .. 2 ... : ... .. . ... ... : ... .. . ... ... : ... .. . ... ... : B-4 01 C ... ...
ROW 5D : B-4 00 A P82 ... ... : ... .. B ... ... ... : ... .. . ... : ... .. 0 ... : ... .. . ... ... : ... .. . ... ... : ... .. . ... ... : ... .. A ... ...
ROW 5E : A#4 00 A P81 ... ... : ... .. . ... ... ... : ... .. . ... : ... .. . ... : ... .. . ... ... : ... .. . ... ... : ... .. . ... ... : ... .. 6 ... ...
ROW 5F : A-4 00 A P80 ... ... : ... .. A ... ... ... : ... .. . ... : ... .. . ... : ... .. . ... ... : ... .. . ... ... : ... .. . ... ... : ... .. . ... ...
ROW 60 : D-5 00 9 ... ... ... : D-4 00 D ... ... ... : ... .. . ... : ... .. F ... : ... .. . ... ... : ... .. . ... ... : ... .. . ... ... : C#5 01 C ... ...
ROW 61 : ... .. 8 ... ... ... : ... .. B ... ... ... : ... .. . ... : ... .. C ... : ... .. . ... ... : ... .. . ... ... : ... .. . ... ... : ... .. A ... ...
ROW 62 : ... .. 7 ... ... ... : ... .. . ... ... ... : ... .. . ... : ... .. 6 ... : ... .. . ... ... : ... .. . ... ... : ... .. . ... ... : ... .. 6 ... ...
ROW 63 : ... .. 6 ... ... ... : ... .. A ... ... ... : ... .. . ... : ... .. 3 ... : ... .. . ... ... : ... .. . ... ... : ... .. . ... ... : ... .. . ... ...
ROW 64 : C#5 00 6 P7E ... ... : B-3 00 D ... ... ... : ... .. . ... : ... .. 2 ... : ... .. . ... ... : ... .. . ... ... : ... .. . ... ... : D-5 01 C ... ...
ROW 65 : B-4 00 6 P82 ... ... : ... .. B ... ... ... : ... .. . ... : ... .. 0 ... : ... .. . ... ... : ... .. . ... ... : ... .. . ... ... : ... .. A ... ...
ROW 66 : A#4 00 6 P81 ... ... : ... .. . ... ... ... : ... .. . ... : ... .. . ... : ... .. . ... ... : ... .. . ... ... : ... .. . ... ... : ... .. 6 ... ...
ROW 67 : A-4 00 6 P80 ... ... : ... .. A ... ... ... : ... .. . ... : ... .. . ... : ... .. . ... ... : ... .. . ... ... : ... .. . ... ... : ... .. . ... ...
ROW 68 : F#5 00 F ... ... ... : G#5 00 D ... ... ... : F-5 00 . ... : 9-# 00 D ... : ... .. . ... ... : B-4 01 8 ... ... : F#5 01 8 ... ... : B-4 01 C ... ...
ROW 69 : ... .. E ... ... ... : ... .. B ... ... ... : G-4 00 . ... : ... .. B ... : ... .. . ... ... : ... .. 7 ... ... : ... .. 7 ... ... : ... .. A ... ...
ROW 6A : ... .. D ... ... ... : ... .. . ... ... ... : C-4 00 . ... : ... .. . ... : ... .. . ... ... : ... .. 6 ... ... : ... .. 6 ... ... : ... .. 7 ... ...
ROW 6B : ... .. A ... ... ... : ... .. A ... ... ... : B-3 00 . ... : ... .. A ... : ... .. . ... ... : ... .. 5 ... ... : ... .. 5 ... ... : ... .. . ... ...
ROW 6C : ... .. . ... ... ... : F#5 00 D ... ... ... : F#3 00 . ... : ... .. 8 ... : ... .. . ... ... : ... .. . ... ... : ... .. . ... ... : C#5 01 D ... ...
ROW 6D : ... .. . ... ... ... : ... .. B ... ... ... : ... .. . ... : ... .. 7 ... : ... .. . ... ... : ... .. 4 ... ... : ... .. 4 ... ... : ... .. B ... ...
ROW 6E : ... .. . ... ... ... : ... .. . ... ... ... : ... .. . ... : ... .. 6 ... : ... .. . ... ... : ... .. . ... ... : ... .. . ... ... : ... .. 6 ... ...
ROW 6F : ... .. . ... ... ... : ... .. A ... ... ... : ... .. . ... : ... .. . ... : ... .. . ... ... : ... .. . ... ... : ... .. . ... ... : ... .. . ... ...
ROW 70 : ... .. . ... ... ... : D-5 00 D ... ... ... : ... .. . ... : 1-# 00 F ... : ... .. . ... ... : ... .. . ... ... : ... .. . ... ... : D-5 01 C ... ...
ROW 71 : ... .. . ... ... ... : ... .. B ... ... ... : ... .. . ... : ... .. C ... : ... .. . ... ... : ... .. . ... ... : ... .. . ... ... : ... .. A ... ...
ROW 72 : ... .. . ... ... ... : ... .. . ... ... ... : ... .. . ... : ... .. 6 ... : ... .. . ... ... : ... .. . ... ... : ... .. . ... ... : ... .. 6 ... ...
ROW 73 : ... .. . ... ... ... : ... .. A ... ... ... : ... .. . ... : ... .. 3 ... : ... .. . ... ... : ... .. . ... ... : ... .. . ... ... : ... .. . ... ...
ROW 74 : E-5 00 A P81 ... ... : B-4 00 D ... ... ... : ... .. . ... : ... .. 2 ... : ... .. . ... ... : ... .. . ... ... : ... .. . ... ... : E-5 01 B ... ...
ROW 75 : D#5 00 A P7E ... ... : ... .. B ... ... ... : ... .. . ... : ... .. 0 ... : ... .. . ... ... : ... .. . ... ... : ... .. . ... ... : ... .. 9 ... ...
ROW 76 : C#5 00 A P81 ... ... : ... .. . ... ... ... : ... .. . ... : ... .. . ... : ... .. . ... ... : ... .. . ... ... : ... .. . ... ... : ... .. 5 ... ...
ROW 77 : C-5 00 A P7F ... ... : ... .. A ... ... ... : ... .. . ... : ... .. . ... : ... .. . ... ... : ... .. . ... ... : ... .. . ... ... : ... .. . ... ...
ROW 78 : F#5 00 9 P80 ... ... : F#4 00 D ... ... ... : ... .. . ... : 8-# 00 8 ... : ... .. . ... ... : ... .. . ... ... : ... .. . ... ... : F#5 01 A ... ...
ROW 79 : ... .. 8 ... ... ... : ... .. B ... ... ... : ... .. . ... : ... .. 6 ... : ... .. . ... ... : ... .. . ... ... : ... .. . ... ... : ... .. 8 ... ...
ROW 7A : ... .. 7 ... ... ... : ... .. . ... ... ... : ... .. . ... : ... .. 0 ... : ... .. . ... ... : ... .. . ... ... : ... .. . ... ... : ... .. 4 ... ...
ROW 7B : ... .. 6 ... ... ... : ... .. A ... ... ... : ... .. . ... : ... .. . ... : ... .. . ... ... : ... .. . ... ... : ... .. . ... ... : ... .. . ... ...
ROW 7C : E-5 00 6 P81 ... ... : D-4 00 D ... ... ... : ... .. . ... : ... .. 8 ... : ... .. . ... ... : ... .. . ... ... : ... .. . ... ... : G#5 01 9 ... ...
ROW 7D : D#5 00 6 P7E ... ... : ... .. B ... ... ... : ... .. . ... : ... .. 6 ... : ... .. . ... ... : ... .. . ... ... : ... .. . ... ... : ... .. 7 ... ...
ROW 7E : C#5 00 6 P82 ... ... : ... .. . ... ... ... : ... .. . ... : ... .. 0 ... : ... .. . ... ... : ... .. . ... ... : ... .. . ... ... : ... .. 4 ... ...
ROW 7F : C-5 00 6 P80 ... ... : ... .. A ... ... ... : ... .. . ... : ... .. . ... : ... .. . ... ... : ... .. . ... ... : ... .. . ... ... : ... .. . ... ...
ROW 80 : A-5 00 F P81 ... ... : A-5 00 F ... ... ... : C#5 00 . ... : 9-# 00 D ... : ... .. . ... ... : D-4 01 8 ... ... : A-3 01 8 ... ... : F-3 01 8 ... ...
ROW 81 : ... .. E ... ... ... : ... .. E ... ... ... : D#4 00 . ... : ... .. B ... : ... .. . ... ... : ... .. 7 ... ... : ... .. 7 ... ... : ... .. 6 ... ...
ROW 82 : ... .. A ... ... ... : ... .. A ... ... ... : G#3 00 . ... : ... .. . ... : ... .. . ... ... : ... .. 6 ... ... : ... .. 6 ... ... : ... .. 4 ... ...
ROW 83 : ... .. 8 ... ... ... : ... .. 8 ... ... ... : G-3 00 . ... : ... .. A ... : ... .. . ... ... : ... .. 5 ... ... : ... .. 5 ... ... : ... .. . ... ...
ROW 84 : ... .. 6 ... ... ... : ... .. 6 ... ... ... : D-3 00 . ... : ... .. 8 ... : ... .. . ... ... : ... .. . ... ... : ... .. . ... ... : ... .. . ... ...
ROW 85 : ... .. . ... ... ... : ... .. . ... ... ... : ... .. . ... : ... .. 7 ... : ... .. . ... ... : ... .. 4 ... ... : ... .. 4 ... ... : ... .. . ... ...
ROW 86 : ... .. 4 ... ... ... : ... .. 4 ... ... ... : ... .. . ... : ... .. 6 ... : ... .. . ... ... : ... .. . ... ... : ... .. . ... ... : ... .. . ... ...
ROW 87 : ... .. . ... ... ... : ... .. . ... ... ... : ... .. . ... : ... .. . ... : ... .. . ... ... : ... .. . ... ... : ... .. . ... ... : ... .. . ... ...
ROW 88 : ... .. 3 ... ... ... : ... .. 3 ... ... ... : C#5 00 . ... : 1-# 00 F ... : ... .. . ... ... : ... .. . ... ... : ... .. . ... ... : ... .. . ... ...
ROW 89 : ... .. . ... ... ... : ... .. . ... ... ... : D#4 00 . ... : ... .. C ... : ... .. . ... ... : ... .. . ... ... : ... .. . ... ... : ... .. . ... ...
ROW 8A : ... .. 4 ... ... ... : ... .. 4 ... ... ... : G#3 00 . ... : ... .. 6 ... : ... .. . ... ... : ... .. . ... ... : ... .. . ... ... : ... .. . ... ...
ROW 8B : ... .. . ... ... ... : ... .. . ... ... ... : G-3 00 . ... : ... .. 3 ... : ... .. . ... ... : ... .. . ... ... : ... .. . ... ... : ... .. . ... ...
ROW 8C : ... .. . ... ... ... : ... .. . ... ... ... : D-3 00 . ... : ... .. F ... : ... .. . ... ... : ... .. . ... ... : ... .. . ... ... : ... .. . ... ...
ROW 8D : ... .. . ... ... ... : ... .. . ... ... ... : ... .. . ... : ... .. C ... : ... .. . ... ... : ... .. . ... ... : ... .. . ... ... : ... .. . ... ...
ROW 8E : ... .. . ... ... ... : ... .. . ... ... ... : ... .. . ... : ... .. 6 ... : ... .. . ... ... : ... .. . ... ... : ... .. . ... ... : ... .. . ... ...
ROW 8F : ... .. . ... ... ... : ... .. . ... ... ... : ... .. . ... : ... .. 3 ... : ... .. . ... ... : ... .. . ... ... : ... .. . ... ... : ... .. 2 ... ...
ROW 90 : ... .. 5 ... ... ... : ... .. 5 ... ... ... : C#4 00 . ... : ... .. F ... : ... .. . ... ... : ... .. 2 ... ... : ... .. 2 ... ... : ... .. . ... ...
ROW 91 : ... .. . ... ... ... : ... .. . ... ... ... : D#3 00 . ... : ... .. C ... : ... .. . ... ... : ... .. . ... ... : ... .. . ... ... : ... .. 1 ... ...
ROW 92 : ... .. . ... ... ... : ... .. . ... ... ... : G#2 00 . ... : ... .. 6 ... : ... .. . ... ... : ... .. . ... ... : ... .. . ... ... : ... .. . ... ...
ROW 93 : ... .. . ... ... ... : ... .. . ... ... ... : G-2 00 . ... : ... .. 3 ... : ... .. . ... ... : ... .. . ... ... : ... .. . ... ... : ... .. . ... ...
ROW 94 : ... .. 6 ... ... ... : ... .. 6 ... ... ... : D-2 00 . ... : ... .. 2 ... : ... .. . ... ... : ... .. . ... ... : ... .. . ... ... : ... .. . ... ...
ROW 95 : ... .. . ... ... ... : ... .. . ... ... ... : ... .. . ... : ... .. 0 ... : ... .. . ... ... : ... .. . ... ... : ... .. . ... ... : ... .. . ... ...
ROW 96 : ... .. . ... ... ... : ... .. . ... ... ... : ... .. . ... : ... .. . ... : ... .. . ... ... : ... .. . ... ... : ... .. . ... ... : ... .. . ... ...
ROW 97 : ... .. . ... ... ... : ... .. . ... ... ... : ... .. . ... : ... .. . ... : ... .. . ... ... : ... .. . ... ... : ... .. . ... ... : ... .. . ... ...
ROW 98 : ... .. . ... ... ... : ... .. . ... ... ... : C#4 00 . ... : 9-# 00 D ... : ... .. . ... ... : A-3 01 8 ... ... : D-4 01 8 ... ... : F-4 01 8 ... ...
ROW 99 : ... .. . ... ... ... : ... .. . ... ... ... : D#3 00 . ... : ... .. B ... : ... .. . ... ... : ... .. 7 ... ... : ... .. 7 ... ... : ... .. 6 ... ...
ROW 9A : ... .. 7 ... ... ... : ... .. 7 ... ... ... : G#2 00 . ... : ... .. . ... : ... .. . ... ... : ... .. 6 ... ... : ... .. 6 ... ... : ... .. 4 ... ...
ROW 9B : ... .. . ... ... ... : ... .. . ... ... ... : G-2 00 . ... : ... .. A ... : ... .. . ... ... : ... .. 5 ... ... : ... .. 5 ... ... : ... .. . ... ...
ROW 9C : ... .. 8 ... ... ... : ... .. 8 ... ... ... : D-2 00 . ... : ... .. 8 ... : ... .. . ... ... : ... .. . ... ... : ... .. . ... ... : ... .. . ... ...
ROW 9D : ... .. . ... ... ... : ... .. . ... ... ... : ... .. . ... : ... .. 7 ... : ... .. . ... ... : ... .. 4 ... ... : ... .. 4 ... ... : ... .. . ... ...
ROW 9E : ... .. . ... ... ... : ... .. . ... ... ... : ... .. . ... : ... .. 6 ... : ... .. . ... ... : ... .. . ... ... : ... .. . ... ... : ... .. . ... ...
ROW 9F : ... .. . ... ... ... : ... .. . ... ... ... : ... .. . ... : ... .. . ... : ... .. . ... ... : ... .. . ... ... : ... .. . ... ... : ... .. . ... ...
ROW A0 : A#5 00 8 ... ... ... : A#5 00 8 ... ... ... : C#5 00 . ... : 1-# 00 F ... : ... .. . ... ... : ... .. . ... ... : ... .. . ... ... : ... .. . ... ...
ROW A1 : B-5 00 8 P80 ... ... : B-5 00 8 P7F ... ... : D#4 00 . ... : ... .. C ... : ... .. . ... ... : ... .. . ... ... : ... .. . ... ... : ... .. . ... ...
ROW A2 : ... .. 9 P7F ... ... : A#5 00 9 P81 ... ... : G#3 00 . ... : ... .. 6 ... : ... .. . ... ... : ... .. . ... ... : ... .. . ... ... : ... .. . ... ...
ROW A3 : A#5 00 9 ... ... ... : A-5 00 9 P82 ... ... : G-3 00 . ... : ... .. 3 ... : ... .. . ... ... : ... .. . ... ... : ... .. . ... ... : ... .. 2 ... ...
ROW A4 : A-5 00 A ... ... ... : G#5 00 A P81 ... ... : D-3 00 . ... : ... .. 2 ... : ... .. . ... ... : ... .. 2 ... ... : ... .. 2 ... ... : ... .. . ... ...
ROW A5 : G#5 00 A ... ... ... : G-5 00 A P82 ... ... : ... .. . ... : ... .. 0 ... : ... .. . ... ... : ... .. . ... ... : ... .. . ... ... : ... .. 1 ... ...
ROW A6 : G-5 00 A P82 ... ... : ... .. . P81 ... ... : ... .. . ... : ... .. . ... : ... .. . ... ... : ... .. . ... ... : ... .. . ... ... : ... .. . ... ...
ROW A7 : G#5 00 A P80 ... ... : G#5 00 A P7F ... ... : ... .. . ... : ... .. . ... : ... .. . ... ... : ... .. . ... ... : ... .. . ... ... : ... .. . ... ...
ROW A8 : A-5 00 A P81 ... ... : A-5 00 A P80 ... ... : C#3 00 . P77 : ... .. F ... : ... .. . ... ... : ... .. . ... ... : ... .. . ... ... : ... .. . ... ...
ROW A9 : A#5 00 A P80 ... ... : A#5 00 A P7F ... ... : B-2 00 . P88 : ... .. C ... : ... .. . ... ... : ... .. . ... ... : ... .. . ... ... : ... .. . ... ...
ROW AA : B-5 00 A ... ... ... : B-5 00 A ... ... ... : A#2 00 . P83 : ... .. 6 ... : ... .. . ... ... : ... .. . ... ... : ... .. . ... ... : ... .. . ... ...
ROW AB : ... .. . ... ... ... : ... .. . ... ... ... : A-2 00 . P7F : ... .. 3 ... : ... .. . ... ... : ... .. . ... ... : ... .. . ... ... : ... .. . ... ...
ROW AC : A#5 00 A P7F ... ... : A-5 00 A P82 ... ... : G#2 00 . P7E : ... .. 2 ... : ... .. . ... ... : ... .. . ... ... : ... .. . ... ... : ... .. 0 ... ...
ROW AD : A-5 00 A P80 ... ... : ... .. . P7F ... ... : G-2 00 . ... : ... .. 0 ... : ... .. . ... ... : ... .. . ... ... : ... .. . ... ... : ... .. . ... ...
ROW AE : G#5 00 A P7F ... ... : G-5 00 A P82 ... ... : F#2 00 . P80 : ... .. . ... : ... .. . ... ... : --- .. . ... ... : ... .. . ... ... : ... .. . ... ...
ROW AF : G-5 00 A P82 ... ... : ... .. . P81 ... ... : F-2 00 . P84 : ... .. . ... : ... .. . ... ... : ... .. . ... ... : ... .. . ... ... : ... .. . ... ...
ROW B0 : G#5 00 A P80 ... ... : G#5 00 A P7F ... ... : E-2 00 . P8A : 9-# 00 D ... : ... .. . ... ... : D-4 01 8 ... ... : F-4 01 8 ... ... : A-4 01 C ... ...
ROW B1 : A-5 00 A P81 ... ... : A-5 00 A P80 ... ... : D#2 00 . P92 : ... .. B ... : ... .. . ... ... : ... .. 7 ... ... : ... .. 7 ... ... : ... .. A ... ...
ROW B2 : A#5 00 A P80 ... ... : A#5 00 A P7F ... ... : ... .. . P72 : ... .. . ... : ... .. . ... ... : ... .. 6 ... ... : ... .. 6 ... ... : ... .. 6 ... ...
ROW B3 : B-5 00 A ... ... ... : B-5 00 A ... ... ... : D-2 00 . P7D : ... .. A ... : ... .. . ... ... : ... .. 5 ... ... : ... .. 5 ... ... : ... .. . ... ...
ROW B4 : ... .. . ... ... ... : ... .. . ... ... ... : C#2 00 . P8A : ... .. 8 ... : ... .. . ... ... : ... .. . ... ... : ... .. . ... ... : ... .. . ... ...
ROW B5 : A#5 00 A ... ... ... : A#5 00 A ... ... ... : ... .. . P6A : ... .. 7 ... : ... .. . ... ... : ... .. 4 ... ... : ... .. 4 ... ... : ... .. . ... ...
ROW B6 : A-5 00 A P81 ... ... : A-5 00 A P80 ... ... : C-2 00 . P7A : ... .. 6 ... : ... .. . ... ... : ... .. . ... ... : ... .. . ... ... : ... .. . ... ...
ROW B7 : G#5 00 A P80 ... ... : G#5 00 A P7F ... ... : B-1 00 . P8D : ... .. . ... : ... .. . ... ... : ... .. . ... ... : ... .. . ... ... : ... .. . ... ...
ROW B8 : G-5 00 A P82 ... ... : G-5 00 A P81 ... ... : ... .. . P6D : 1-# 00 F ... : ... .. . ... ... : ... .. . ... ... : ... .. . ... ... : ... .. . ... ...
ROW B9 : G#5 00 A P7F ... ... : ... .. . P82 ... ... : A#1 00 . P83 : ... .. C ... : ... .. . ... ... : ... .. . ... ... : ... .. . ... ... : ... .. . ... ...
ROW BA : ... .. 0 ... ... ... : ... .. 0 ... ... ... : --- .. . ... : ... .. 6 ... : ... .. . ... ... : ... .. . ... ... : ... .. . ... ... : ... .. . ... ...
ROW BB : ... .. . ... ... ... : ... .. . ... ... ... : ... .. . ... : ... .. 3 ... : ... .. . ... ... : ... .. . ... ... : ... .. . ... ... : ... .. . ... ...
ROW BC : ... .. . ... ... ... : ... .. . ... ... ... : ... .. . ... : ... .. 2 ... : ... .. . ... ... : --- .. . ... ... : --- .. . ... ... : --- .. . ... ...
ROW BD : ... .. . ... ... ... : ... .. . ... ... ... : ... .. . ... : ... .. 0 ... : ... .. . ... ... : ... .. . ... ... : ... .. . ... ... : ... .. . ... ...
ROW BE : ... .. . ... ... ... : ... .. . ... ... ... : ... .. . ... : ... .. . ... : ... .. . ... ... : ... .. . ... ... : ... .. . ... ... : ... .. . ... ...
ROW BF : ... .. . ... ... ... : ... .. . ... ... ... : ... .. . ... : ... .. . ... : ... .. . ... ... : ... .. . ... ... : ... .. . ... ... : ... .. . ... ...
ROW C0 : F-3 00 F P80 ... ... : C-4 00 F P80 ... ... : E-5 00 . P80 : B-# 00 C ... : ... .. . ... ... : D#4 01 A ... ... : F-3 01 A ... ... : F-1 01 C ... ...
ROW C1 : ... .. E ... ... ... : ... .. E ... ... ... : F#4 00 . ... : ... .. . ... : ... .. . ... ... : ... .. 9 ... ... : ... .. 9 ... ... : ... .. A ... ...
ROW C2 : ... .. D ... ... ... : ... .. D ... ... ... : B-3 00 . ... : ... .. A ... : ... .. . ... ... : ... .. 8 ... ... : ... .. 8 ... ... : ... .. 6 ... ...
ROW C3 : ... .. A ... ... ... : ... .. A ... ... ... : A#3 00 . ... : ... .. . ... : ... .. . ... ... : ... .. 7 ... ... : ... .. 7 ... ... : ... .. . ... ...
ROW C4 : ... .. . ... ... ... : ... .. . ... ... ... : F-3 00 . ... : ... .. 9 ... : ... .. . ... ... : ... .. . ... ... : ... .. . ... ... : ... .. . ... ...
ROW C5 : ... .. . ... ... ... : ... .. . ... ... ... : ... .. . ... : ... .. . ... : ... .. . ... ... : ... .. 6 ... ... : ... .. 6 ... ... : ... .. . ... ...
ROW C6 : ... .. . ... ... ... : ... .. . ... ... ... : D#3 00 . P88 : ... .. 8 ... : ... .. . ... ... : --- .. . ... ... : ... .. . ... ... : ... .. . ... ...
ROW C7 : ... .. 2 ... ... ... : ... .. 2 ... ... ... : D-3 00 . P7D : ... .. . ... : ... .. . ... ... : ... .. . ... ... : ... .. 5 ... ... : ... .. . ... ...
ROW C8 : F-1 00 F ... ... ... : D#4 00 F ... ... ... : C-3 00 . P8C : ... .. 7 ... : ... .. . ... ... : G#3 01 A ... ... : F#3 01 A ... ... : ... .. . P60 ...
ROW C9 : ... .. E ... ... ... : ... .. E ... ... ... : B-2 00 . P85 : ... .. . ... : ... .. . ... ... : ... .. 9 ... ... : ... .. 9 ... ... : E-1 01 6 P97 ...
ROW CA : ... .. D ... ... ... : ... .. D ... ... ... : A#2 00 . P80 : ... .. 6 ... : ... .. . ... ... : ... .. 8 ... ... : ... .. 8 ... ... : ... .. . P77 ...
ROW CB : ... .. A ... ... ... : ... .. A ... ... ... : A-2 00 . P7C : ... .. . ... : ... .. . ... ... : ... .. 7 ... ... : ... .. 7 ... ... : ... .. . P57 ...
ROW CC : ... .. . ... ... ... : ... .. . ... ... ... : G#2 00 . P7B : ... .. 5 ... : ... .. . ... ... : ... .. . ... ... : F-3 01 6 ... ... : --- .. . P82 ...
ROW CD : ... .. . ... ... ... : ... .. . ... ... ... : G-2 00 . ... : ... .. . ... : ... .. . ... ... : ... .. 6 ... ... : ... .. . ... ... : ... .. . ... ...
ROW CE : ... .. . ... ... ... : ... .. . ... ... ... : F#2 00 . P7D : ... .. 4 ... : ... .. . ... ... : --- .. . P83 ... : ... .. 5 ... ... : ... .. . ... ...
ROW CF : ... .. 2 ... ... ... : ... .. 2 ... ... ... : F-2 00 . P81 : ... .. . ... : ... .. . ... ... : ... .. . ... ... : ... .. 4 ... ... : ... .. . ... ...
ROW D0 : ... .. F ... ... ... : D-4 00 F ... ... ... : F-4 00 . P80 : ... .. . ... : ... .. . ... ... : G#3 01 A P81 ... : G#3 01 A ... ... : F-2 01 C P80 ...
ROW D1 : ... .. E ... ... ... : ... .. E ... ... ... : ... .. . ... : ... .. . ... : ... .. . ... ... : ... .. 9 ... ... : ... .. 9 ... ... : ... .. A ... ...
ROW D2 : ... .. D ... ... ... : ... .. D ... ... ... : ... .. . ... : ... .. . ... : ... .. . ... ... : ... .. 8 ... ... : ... .. 8 ... ... : ... .. 6 ... ...
ROW D3 : ... .. A ... ... ... : ... .. A ... ... ... : ... .. . ... : ... .. . ... : ... .. . ... ... : ... .. 7 ... ... : ... .. 7 ... ... : ... .. . ... ...
ROW D4 : ... .. . ... ... ... : ... .. . ... ... ... : ... .. . ... : ... .. . ... : ... .. . ... ... : ... .. . ... ... : F#3 01 6 ... ... : --- .. . P7E ...
ROW D5 : ... .. . ... ... ... : ... .. . ... ... ... : ... .. . ... : ... .. . ... : ... .. . ... ... : ... .. 6 ... ... : ... .. . ... ... : ... .. . ... ...
ROW D6 : ... .. . ... ... ... : ... .. . ... ... ... : ... .. . ... : ... .. . ... : ... .. . ... ... : --- .. . P83 ... : ... .. 5 ... ... : ... .. . ... ...
ROW D7 : ... .. 2 ... ... ... : ... .. 2 ... ... ... : ... .. . ... : ... .. . ... : ... .. . ... ... : ... .. . ... ... : ... .. 4 ... ... : ... .. . ... ...
ROW D8 : G#3 00 F ... ... ... : F-3 00 F ... ... ... : E-4 00 . ... : 9-# 00 C ... : ... .. . ... ... : D#4 01 A P81 ... : F-3 01 A ... ... : F-0 01 C P80 ...
ROW D9 : ... .. E ... ... ... : ... .. E ... ... ... : F#3 00 . ... : ... .. . ... : ... .. . ... ... : ... .. 9 ... ... : ... .. 9 ... ... : ... .. A ... ...
ROW DA : ... .. D ... ... ... : ... .. D ... ... ... : B-2 00 . ... : ... .. A ... : ... .. . ... ... : ... .. 8 ... ... : ... .. 8 ... ... : ... .. 6 ... ...
ROW DB : ... .. A ... ... ... : ... .. A ... ... ... : A#2 00 . ... : ... .. . ... : ... .. . ... ... : ... .. 7 ... ... : ... .. 7 ... ... : ... .. . ... ...
ROW DC : ... .. . ... ... ... : ... .. . ... ... ... : F-2 00 . ... : ... .. 9 ... : ... .. . ... ... : ... .. . ... ... : G#3 01 6 ... ... : ... .. . ... ...
ROW DD : ... .. . ... ... ... : ... .. . ... ... ... : ... .. . ... : ... .. . ... : ... .. . ... ... : ... .. 6 ... ... : ... .. . ... ... : ... .. . ... ...
ROW DE : ... .. . ... ... ... : ... .. . ... ... ... : ... .. . ... : ... .. 8 ... : ... .. . ... ... : --- .. . ... ... : ... .. 5 ... ... : ... .. . ... ...
ROW DF : ... .. 2 ... ... ... : ... .. 2 ... ... ... : ... .. . ... : ... .. . ... : ... .. . ... ... : ... .. . ... ... : ... .. 4 ... ... : ... .. . ... ...
ROW E0 : F-1 00 F ... ... ... : C-4 00 F ... ... ... : E-2 00 . P86 : ... .. 7 ... : ... .. . ... ... : G#3 01 A ... ... : F#3 01 A ... ... : ... .. . P60 ...
ROW E1 : ... .. E ... ... ... : ... .. E ... ... ... : D#2 00 . P8E : ... .. . ... : ... .. . ... ... : ... .. 9 ... ... : ... .. 9 ... ... : ... .. . P40 ...
ROW E2 : ... .. D ... ... ... : ... .. D ... ... ... : ... .. . P6E : ... .. 6 ... : ... .. . ... ... : ... .. 8 ... ... : ... .. 8 ... ... : E-0 01 6 PCE ...
ROW E3 : ... .. A ... ... ... : ... .. A ... ... ... : D-2 00 . P79 : ... .. . ... : ... .. . ... ... : ... .. 7 ... ... : ... .. 7 ... ... : ... .. . PAE ...
ROW E4 : ... .. . ... ... ... : ... .. . ... ... ... : C#2 00 . P86 : ... .. 5 ... : ... .. . ... ... : ... .. . ... ... : F-3 01 6 ... ... : --- .. . P83 ...
ROW E5 : ... .. . ... ... ... : ... .. . ... ... ... : C-2 00 . P96 : ... .. . ... : ... .. . ... ... : ... .. 6 ... ... : ... .. . ... ... : ... .. . ... ...
ROW E6 : ... .. . ... ... ... : ... .. . ... ... ... : ... .. . P76 : ... .. 4 ... : ... .. . ... ... : --- .. . P83 ... : ... .. 5 ... ... : ... .. . ... ...
ROW E7 : ... .. 2 ... ... ... : ... .. 2 ... ... ... : B-1 00 . P89 : ... .. . ... : ... .. . ... ... : ... .. . ... ... : ... .. 4 ... ... : ... .. . ... ...
ROW E8 : ... .. F ... ... ... : B-3 00 F ... ... ... : F-4 00 . P80 : ... .. . ... : ... .. . ... ... : G#3 01 A P81 ... : G#3 01 A ... ... : F-2 01 C P80 ...
ROW E9 : ... .. E ... ... ... : ... .. E ... ... ... : ... .. . ... : ... .. . ... : ... .. . ... ... : ... .. 9 ... ... : ... .. 9 ... ... : ... .. A ... ...
ROW EA : ... .. D ... ... ... : ... .. D ... ... ... : ... .. . ... : ... .. . ... : ... .. . ... ... : ... .. 8 ... ... : ... .. 8 ... ... : ... .. 6 ... ...
ROW EB : ... .. A ... ... ... : ... .. A ... ... ... : ... .. . ... : ... .. . ... : ... .. . ... ... : ... .. 7 ... ... : ... .. 7 ... ... : ... .. . ... ...
ROW EC : ... .. . ... ... ... : ... .. . ... ... ... : ... .. . ... : ... .. . ... : ... .. . ... ... : ... .. . ... ... : F#3 01 6 ... ... : --- .. . P7E ...
ROW ED : ... .. . ... ... ... : ... .. . ... ... ... : ... .. . ... : ... .. . ... : ... .. . ... ... : ... .. 6 ... ... : ... .. . ... ... : ... .. . ... ...
ROW EE : ... .. . ... ... ... : ... .. . ... ... ... : ... .. . ... : ... .. . ... : ... .. . ... ... : --- .. . P83 ... : ... .. 5 ... ... : ... .. . ... ...
ROW EF : ... .. 2 ... ... ... : ... .. 2 ... ... ... : ... .. . ... : ... .. . ... : ... .. . ... ... : ... .. . ... ... : ... .. 4 ... ... : ... .. . ... ...
ROW F0 : A#3 00 F ... ... ... : F-3 00 F ... ... ... : E-5 00 . ... : A-# 00 C ... : ... .. . ... ... : F-4 01 A P81 ... : F-3 01 A ... ... : F-1 01 C P80 ...
ROW F1 : ... .. E ... ... ... : ... .. E ... ... ... : F#4 00 . ... : ... .. . ... : ... .. . ... ... : ... .. 9 ... ... : ... .. 9 ... ... : ... .. A ... ...
ROW F2 : ... .. D ... ... ... : ... .. D ... ... ... : B-3 00 . ... : ... .. A ... : ... .. . ... ... : ... .. 8 ... ... : ... .. 8 ... ... : ... .. 6 ... ...
ROW F3 : ... .. A ... ... ... : ... .. A ... ... ... : A#3 00 . ... : ... .. . ... : ... .. . ... ... : ... .. 7 ... ... : ... .. 7 ... ... : ... .. . ... ...
ROW F4 : ... .. . ... ... ... : ... .. . ... ... ... : F-3 00 . ... : ... .. 9 ... : ... .. . ... ... : ... .. . ... ... : G#3 01 6 ... ... : ... .. . ... ...
ROW F5 : ... .. . ... ... ... : ... .. . ... ... ... : ... .. . ... : ... .. . ... : ... .. . ... ... : ... .. 6 ... ... : ... .. . ... ... : ... .. . ... ...
ROW F6 : ... .. . ... ... ... : ... .. . ... ... ... : ... .. . ... : ... .. 8 ... : ... .. . ... ... : --- .. . ... ... : ... .. 5 ... ... : ... .. . ... ...
ROW F7 : ... .. 2 ... ... ... : ... .. 2 ... ... ... : ... .. . ... : ... .. . ... : ... .. . ... ... : ... .. . ... ... : ... .. 4 ... ... : ... .. . ... ...
ROW F8 : F-1 00 F ... ... ... : D#4 00 F ... ... ... : ... .. . ... : ... .. 7 ... : ... .. . ... ... : A#3 01 A ... ... : F#3 01 A ... ... : ... .. . ... ...
ROW F9 : ... .. E ... ... ... : ... .. E ... ... ... : ... .. . ... : ... .. . ... : ... .. . ... ... : ... .. 9 ... ... : ... .. 9 ... ... : ... .. . ... ...
ROW FA : ... .. D ... ... ... : ... .. D ... ... ... : ... .. . ... : ... .. 6 ... : ... .. . ... ... : ... .. 8 ... ... : ... .. 8 ... ... : ... .. . ... ...
ROW FB : ... .. A ... ... ... : ... .. A ... ... ... : ... .. . ... : ... .. . ... : ... .. . ... ... : ... .. 7 ... ... : ... .. 7 ... ... : ... .. . ... ...
ROW FC : ... .. . ... ... ... : ... .. . ... ... ... : ... .. . ... : ... .. 5 ... : ... .. . ... ... : ... .. . ... ... : F-3 01 6 ... ... : --- .. . P7F ...
ROW FD : ... .. . ... ... ... : ... .. . ... ... ... : ... .. . ... : ... .. . ... : ... .. . ... ... : ... .. 6 ... ... : ... .. . ... ... : ... .. . ... ...
ROW FE : ... .. . ... ... ... : ... .. . ... ... ... : ... .. . ... : ... .. 4 ... : ... .. . ... ... : --- .. . ... ... : ... .. 5 ... ... : ... .. . ... ...
ROW FF : ... .. 2 ... ... ... : ... .. 2 ... ... ... : ... .. . ... : ... .. . ... : ... .. . ... ... : ... .. . ... ... : ... .. 4 ... ... : ... .. . ... ...

PATTERN 0E
ROW 00 : ... .. F ... ... ... : D-4 00 F ... ... ... : D#3 00 . ... : ... .. . ... : ... .. . ... ... : A#3 01 A ... ... : G#3 01 A ... ... : D#1 01 C P80 ...
ROW 01 : ... .. E ... ... ... : ... .. E ... ... ... : ... .. . ... : ... .. . ... : ... .. . ... ... : ... .. 9 ... ... : ... .. 9 ... ... : ... .. A ... ...
ROW 02 : ... .. D ... ... ... : ... .. D ... ... ... : ... .. . ... : ... .. . ... : ... .. . ... ... : ... .. 8 ... ... : ... .. 8 ... ... : ... .. 6 ... ...
ROW 03 : ... .. A ... ... ... : ... .. A ... ... ... : ... .. . ... : ... .. . ... : ... .. . ... ... : ... .. 7 ... ... : ... .. 7 ... ... : ... .. . ... ...
ROW 04 : ... .. . ... ... ... : ... .. . ... ... ... : ... .. . ... : ... .. . ... : ... .. . ... ... : ... .. . ... ... : F#3 01 6 ... ... : --- .. . P81 ...
ROW 05 : ... .. . ... ... ... : ... .. . ... ... ... : ... .. . ... : ... .. . ... : ... .. . ... ... : ... .. 6 ... ... : ... .. . ... ... : ... .. . ... ...
ROW 06 : ... .. . ... ... ... : ... .. . ... ... ... : ... .. . ... : ... .. . ... : ... .. . ... ... : --- .. . ... ... : ... .. 5 ... ... : ... .. . ... ...
ROW 07 : ... .. 2 ... ... ... : ... .. 2 ... ... ... : ... .. . ... : ... .. . ... : ... .. . ... ... : ... .. . ... ... : ... .. 4 ... ... : ... .. . ... ...
ROW 08 : B-3 00 F ... ... ... : F-3 00 F ... ... ... : E-4 00 . ... : 8-# 00 C ... : ... .. . ... ... : F#4 01 A ... ... : ... .. A ... ... : F-0 01 C P80 ...
ROW 09 : ... .. E ... ... ... : ... .. E ... ... ... : F#3 00 . ... : ... .. . ... : ... .. . ... ... : ... .. 9 ... ... : ... .. 9 ... ... : ... .. A ... ...
ROW 0A : ... .. D ... ... ... : ... .. D ... ... ... : B-2 00 . ... : ... .. A ... : ... .. . ... ... : ... .. 8 ... ... : ... .. 8 ... ... : ... .. 6 ... ...
ROW 0B : ... .. A ... ... ... : ... .. A ... ... ... : A#2 00 . ... : ... .. . ... : ... .. . ... ... : ... .. 7 ... ... : ... .. 7 ... ... : ... .. . ... ...
ROW 0C : ... .. . ... ... ... : ... .. . ... ... ... : F-2 00 . ... : ... .. 9 ... : ... .. . ... ... : ... .. . ... ... : G#3 01 6 ... ... : --- .. . P82 ...
ROW 0D : ... .. . ... ... ... : ... .. . ... ... ... : ... .. . ... : ... .. . ... : ... .. . ... ... : ... .. 6 ... ... : ... .. . ... ... : ... .. . ... ...
ROW 0E : ... .. . ... ... ... : ... .. . ... ... ... : ... .. . ... : ... .. 8 ... : ... .. . ... ... : --- .. . ... ... : ... .. 5 ... ... : ... .. . ... ...
ROW 0F : ... .. 2 ... ... ... : ... .. 2 ... ... ... : ... .. . ... : ... .. . ... : ... .. . ... ... : ... .. . ... ... : ... .. 4 ... ... : ... .. . ... ...
ROW 10 : F-1 00 F ... ... ... : C-4 00 F ... ... ... : D#2 00 . ... : ... .. 7 ... : ... .. . ... ... : B-3 01 A ... ... : ... .. A ... ... : D#0 01 C P80 ...
ROW 11 : ... .. E ... ... ... : ... .. E ... ... ... : ... .. . ... : ... .. . ... : ... .. . ... ... : ... .. 9 ... ... : ... .. 9 ... ... : ... .. A ... ...
ROW 12 : ... .. D ... ... ... : ... .. D ... ... ... : ... .. . ... : ... .. 6 ... : ... .. . ... ... : ... .. 8 ... ... : ... .. 8 ... ... : ... .. 6 ... ...
ROW 13 : ... .. A ... ... ... : ... .. A ... ... ... : ... .. . ... : ... .. . ... : ... .. . ... ... : ... .. 7 ... ... : ... .. 7 ... ... : ... .. . ... ...
ROW 14 : ... .. . ... ... ... : ... .. . ... ... ... : ... .. . ... : ... .. 5 ... : ... .. . ... ... : ... .. . ... ... : F#3 01 6 ... ... : --- .. . P83 ...
ROW 15 : ... .. . ... ... ... : ... .. . ... ... ... : ... .. . ... : ... .. . ... : ... .. . ... ... : ... .. 6 ... ... : ... .. . ... ... : ... .. . ... ...
ROW 16 : ... .. . ... ... ... : ... .. . ... ... ... : ... .. . ... : ... .. 4 ... : ... .. . ... ... : --- .. . ... ... : ... .. 5 ... ... : ... .. . ... ...
ROW 17 : ... .. 2 ... ... ... : ... .. 2 ... ... ... : ... .. . ... : ... .. . ... : ... .. . ... ... : ... .. . ... ... : ... .. 4 ... ... : ... .. . ... ...
ROW 18 : ... .. F ... ... ... : B-3 00 F ... ... ... : F-2 00 . ... : ... .. . ... : ... .. . ... ... : B-3 01 A ... ... : A-3 01 A ... ... : F-0 01 C P80 ...
ROW 19 : ... .. E ... ... ... : ... .. E ... ... ... : ... .. . ... : ... .. . ... : ... .. . ... ... : ... .. 9 ... ... : ... .. 9 ... ... : ... .. A ... ...
ROW 1A : ... .. D ... ... ... : ... .. D ... ... ... : ... .. . ... : ... .. . ... : ... .. . ... ... : ... .. 8 ... ... : ... .. 8 ... ... : ... .. 6 ... ...
ROW 1B : ... .. A ... ... ... : ... .. A ... ... ... : ... .. . ... : ... .. . ... : ... .. . ... ... : ... .. 7 ... ... : ... .. 7 ... ... : ... .. . ... ...
ROW 1C : ... .. . ... ... ... : ... .. . ... ... ... : ... .. . ... : ... .. . ... : ... .. . ... ... : ... .. . ... ... : G#3 01 6 ... ... : --- .. . P82 ...
ROW 1D : ... .. . ... ... ... : ... .. . ... ... ... : ... .. . ... : ... .. . ... : ... .. . ... ... : ... .. 6 ... ... : ... .. . ... ... : ... .. . ... ...
ROW 1E : ... .. . ... ... ... : ... .. . ... ... ... : ... .. . ... : ... .. . ... : ... .. . ... ... : --- .. . ... ... : ... .. 5 ... ... : ... .. . ... ...
ROW 1F : ... .. 2 ... ... ... : ... .. 2 ... ... ... : ... .. . ... : ... .. . ... : ... .. . ... ... : ... .. . ... ... : ... .. 4 ... ... : ... .. . ... ...
ROW 20 : G#3 00 F ... ... ... : F-3 00 F ... ... ... : E-5 00 . ... : B-# 00 C ... : ... .. . ... ... : D#4 01 A ... ... : F-3 01 A ... ... : F-1 01 C P80 ...
ROW 21 : ... .. E ... ... ... : ... .. E ... ... ... : F#4 00 . ... : ... .. . ... : ... .. . ... ... : ... .. 9 ... ... : ... .. 9 ... ... : ... .. A ... ...
ROW 22 : ... .. D ... ... ... : ... .. D ... ... ... : B-3 00 . ... : ... .. A ... : ... .. . ... ... : ... .. 8 ... ... : ... .. 8 ... ... : ... .. 6 ... ...
ROW 23 : ... .. A ... ... ... : ... .. A ... ... ... : A#3 00 . ... : ... .. . ... : ... .. . ... ... : ... .. 7 ... ... : ... .. 7 ... ... : ... .. . ... ...
ROW 24 : ... .. . ... ... ... : ... .. . ... ... ... : F-3 00 . ... : ... .. 9 ... : ... .. . ... ... : ... .. . ... ... : A-3 01 6 ... ... : ... .. . ... ...
ROW 25 : ... .. . ... ... ... : ... .. . ... ... ... : ... .. . ... : ... .. . ... : ... .. . ... ... : ... .. 6 ... ... : ... .. . ... ... : ... .. . ... ...
ROW 26 : ... .. . ... ... ... : ... .. . ... ... ... : ... .. . ... : ... .. 8 ... : ... .. . ... ... : --- .. . ... ... : ... .. 5 ... ... : ... .. . ... ...
ROW 27 : ... .. 2 ... ... ... : ... .. 2 ... ... ... : ... .. . ... : ... .. . ... : ... .. . ... ... : ... .. . ... ... : ... .. 4 ... ... : ... .. . ... ...
ROW 28 : F-1 00 F ... ... ... : D#4 00 F ... ... ... : D#3 00 . P88 : ... .. 7 ... : ... .. . ... ... : G#3 01 A ... ... : F#3 01 A ... ... : ... .. . P60 ...
ROW 29 : ... .. E ... ... ... : ... .. E ... ... ... : D-3 00 . P7D : ... .. . ... : ... .. . ... ... : ... .. 9 ... ... : ... .. 9 ... ... : E-1 01 6 P97 ...
ROW 2A : ... .. D ... ... ... : ... .. D ... ... ... : C-3 00 . P8C : ... .. 6 ... : ... .. . ... ... : ... .. 8 ... ... : ... .. 8 ... ... : ... .. . P77 ...
ROW 2B : ... .. A ... ... ... : ... .. A ... ... ... : B-2 00 . P85 : ... .. . ... : ... .. . ... ... : ... .. 7 ... ... : ... .. 7 ... ... : ... .. . P57 ...
ROW 2C : ... .. . ... ... ... : ... .. . ... ... ... : A#2 00 . P80 : ... .. 5 ... : ... .. . ... ... : ... .. . ... ... : F-3 01 6 ... ... : --- .. . P82 ...
ROW 2D : ... .. . ... ... ... : ... .. . ... ... ... : A-2 00 . P7C : ... .. . ... : ... .. . ... ... : ... .. 6 ... ... : ... .. . ... ... : ... .. . ... ...
ROW 2E : ... .. . ... ... ... : ... .. . ... ... ... : G#2 00 . P7B : ... .. 4 ... : ... .. . ... ... : --- .. . P83 ... : ... .. 5 ... ... : ... .. . ... ...
ROW 2F : ... .. 2 ... ... ... : ... .. 2 ... ... ... : G-2 00 . ... : ... .. . ... : ... .. . ... ... : ... .. . ... ... : ... .. 4 ... ... : ... .. . ... ...
ROW 30 : ... .. F ... ... ... : D-4 00 F ... ... ... : F-4 00 . P80 : ... .. . ... : ... .. . ... ... : G#3 01 A P81 ... : G#3 01 A ... ... : F-2 01 C P80 ...
ROW 31 : ... .. E ... ... ... : ... .. E ... ... ... : ... .. . ... : ... .. . ... : ... .. . ... ... : ... .. 9 ... ... : ... .. 9 ... ... : ... .. A ... ...
ROW 32 : ... .. D ... ... ... : ... .. D ... ... ... : ... .. . ... : ... .. . ... : ... .. . ... ... : ... .. 8 ... ... : ... .. 8 ... ... : ... .. 6 ... ...
ROW 33 : ... .. A ... ... ... : ... .. A ... ... ... : ... .. . ... : ... .. . ... : ... .. . ... ... : ... .. 7 ... ... : ... .. 7 ... ... : ... .. . ... ...
ROW 34 : ... .. . ... ... ... : ... .. . ... ... ... : ... .. . ... : ... .. . ... : ... .. . ... ... : ... .. . ... ... : F#3 01 6 ... ... : --- .. . P7E ...
ROW 35 : ... .. . ... ... ... : ... .. . ... ... ... : ... .. . ... : ... .. . ... : ... .. . ... ... : ... .. 6 ... ... : ... .. . ... ... : ... .. . ... ...
ROW 36 : ... .. . ... ... ... : ... .. . ... ... ... : ... .. . ... : ... .. . ... : ... .. . ... ... : --- .. . P83 ... : ... .. 5 ... ... : ... .. . ... ...
ROW 37 : ... .. 2 ... ... ... : ... .. 2 ... ... ... : ... .. . ... : ... .. . ... : ... .. . ... ... : ... .. . ... ... : ... .. 4 ... ... : ... .. . ... ...
ROW 38 : G#3 00 F ... ... ... : F-3 00 F ... ... ... : E-4 00 . ... : 9-# 00 C ... : ... .. . ... ... : D#4 01 A P81 ... : F-3 01 A ... ... : F-0 01 C P80 ...
ROW 39 : ... .. E ... ... ... : ... .. E ... ... ... : F#3 00 . ... : ... .. . ... : ... .. . ... ... : ... .. 9 ... ... : ... .. 9 ... ... : ... .. A ... ...
ROW 3A : ... .. D ... ... ... : ... .. D ... ... ... : B-2 00 . ... : ... .. A ... : ... .. . ... ... : ... .. 8 ... ... : ... .. 8 ... ... : ... .. 6 ... ...
ROW 3B : ... .. A ... ... ... : ... .. A ... ... ... : A#2 00 . ... : ... .. . ... : ... .. . ... ... : ... .. 7 ... ... : ... .. 7 ... ... : ... .. . ... ...
ROW 3C : ... .. . ... ... ... : ... .. . ... ... ... : F-2 00 . ... : ... .. 9 ... : ... .. . ... ... : ... .. . ... ... : G#3 01 6 ... ... : ... .. . ... ...
ROW 3D : ... .. . ... ... ... : ... .. . ... ... ... : ... .. . ... : ... .. . ... : ... .. . ... ... : ... .. 6 ... ... : ... .. . ... ... : ... .. . ... ...
ROW 3E : ... .. . ... ... ... : ... .. . ... ... ... : ... .. . ... : ... .. 8 ... : ... .. . ... ... : --- .. . ... ... : ... .. 5 ... ... : ... .. . ... ...
ROW 3F : ... .. 2 ... ... ... : ... .. 2 ... ... ... : ... .. . ... : ... .. . ... : ... .. . ... ... : ... .. . ... ... : ... .. 4 ... ... : ... .. . ... ...
ROW 40 : F-1 00 F ... ... ... : C-4 00 F ... ... ... : E-2 00 . P86 : ... .. 7 ... : ... .. . ... ... : G#3 01 A ... ... : F#3 01 A ... ... : ... .. . P60 ...
ROW 41 : ... .. E ... ... ... : ... .. E ... ... ... : D#2 00 . P8E : ... .. . ... : ... .. . ... ... : ... .. 9 ... ... : ... .. 9 ... ... : ... .. . P40 ...
ROW 42 : ... .. D ... ... ... : ... .. D ... ... ... : ... .. . P6E : ... .. 6 ... : ... .. . ... ... : ... .. 8 ... ... : ... .. 8 ... ... : E-0 01 6 PCE ...
ROW 43 : ... .. A ... ... ... : ... .. A ... ... ... : D-2 00 . P79 : ... .. . ... : ... .. . ... ... : ... .. 7 ... ... : ... .. 7 ... ... : ... .. . PAE ...
ROW 44 : ... .. . ... ... ... : ... .. . ... ... ... : C#2 00 . P86 : ... .. 5 ... : ... .. . ... ... : ... .. . ... ... : F-3 01 6 ... ... : --- .. . P83 ...
ROW 45 : ... .. . ... ... ... : ... .. . ... ... ... : C-2 00 . P96 : ... .. . ... : ... .. . ... ... : ... .. 6 ... ... : ... .. . ... ... : ... .. . ... ...
ROW 46 : ... .. . ... ... ... : ... .. . ... ... ... : ... .. . P76 : ... .. 4 ... : ... .. . ... ... : --- .. . P83 ... : ... .. 5 ... ... : ... .. . ... ...
ROW 47 : ... .. 2 ... ... ... : ... .. 2 ... ... ... : B-1 00 . P89 : ... .. . ... : ... .. . ... ... : ... .. . ... ... : ... .. 4 ... ... : ... .. . ... ...
ROW 48 : ... .. F ... ... ... : B-3 00 F ... ... ... : F-4 00 . P80 : ... .. . ... : ... .. . ... ... : G#3 01 A P81 ... : G#3 01 A ... ... : F-2 01 C P80 ...
ROW 49 : ... .. E ... ... ... : ... .. E ... ... ... : ... .. . ... : ... .. . ... : ... .. . ... ... : ... .. 9 ... ... : ... .. 9 ... ... : ... .. A ... ...
ROW 4A : ... .. D ... ... ... : ... .. D ... ... ... : ... .. . ... : ... .. . ... : ... .. . ... ... : ... .. 8 ... ... : ... .. 8 ... ... : ... .. 6 ... ...
ROW 4B : ... .. A ... ... ... : ... .. A ... ... ... : ... .. . ... : ... .. . ... : ... .. . ... ... : ... .. 7 ... ... : ... .. 7 ... ... : ... .. . ... ...
ROW 4C : ... .. . ... ... ... : ... .. . ... ... ... : ... .. . ... : ... .. . ... : ... .. . ... ... : ... .. . ... ... : F#3 01 6 ... ... : --- .. . P7E ...
ROW 4D : ... .. . ... ... ... : ... .. . ... ... ... : ... .. . ... : ... .. . ... : ... .. . ... ... : ... .. 6 ... ... : ... .. . ... ... : ... .. . ... ...
ROW 4E : ... .. . ... ... ... : ... .. . ... ... ... : ... .. . ... : ... .. . ... : ... .. . ... ... : --- .. . P83 ... : ... .. 5 ... ... : ... .. . ... ...
ROW 4F : ... .. 2 ... ... ... : ... .. 2 ... ... ... : ... .. . ... : ... .. . ... : ... .. . ... ... : ... .. . ... ... : ... .. 4 ... ... : ... .. . ... ...
ROW 50 : A#4 00 F ... ... ... : A#3 00 F ... ... ... : A-4 00 . ... : A-# 00 C ... : ... .. . ... ... : F-4 01 A P81 ... : F-3 01 A ... ... : F-1 01 C P80 ...
ROW 51 : ... .. E ... ... ... : ... .. E ... ... ... : B-3 00 . ... : ... .. . ... : ... .. . ... ... : ... .. 9 ... ... : ... .. 9 ... ... : ... .. A ... ...
ROW 52 : ... .. D ... ... ... : ... .. D ... ... ... : E-3 00 . ... : ... .. A ... : ... .. . ... ... : ... .. 8 ... ... : ... .. 8 ... ... : ... .. 6 ... ...
ROW 53 : ... .. A ... ... ... : ... .. A ... ... ... : D#3 00 . ... : ... .. . ... : ... .. . ... ... : ... .. 7 ... ... : ... .. 7 ... ... : ... .. . ... ...
ROW 54 : ... .. . ... ... ... : ... .. . ... ... ... : A#2 00 . ... : ... .. 9 ... : ... .. . ... ... : ... .. . ... ... : G#3 01 6 ... ... : ... .. . ... ...
ROW 55 : ... .. . ... ... ... : ... .. . ... ... ... : ... .. . ... : ... .. . ... : ... .. . ... ... : ... .. 6 ... ... : ... .. . ... ... : ... .. . ... ...
ROW 56 : ... .. . ... ... ... : ... .. . ... ... ... : ... .. . ... : ... .. 8 ... : ... .. . ... ... : --- .. . ... ... : ... .. 5 ... ... : ... .. . ... ...
ROW 57 : ... .. 2 ... ... ... : ... .. 2 ... ... ... : ... .. . ... : ... .. . ... : ... .. . ... ... : ... .. . ... ... : ... .. 4 ... ... : ... .. . ... ...
ROW 58 : F-1 00 F ... ... ... : A#1 00 F ... ... ... : ... .. . ... : ... .. 7 ... : ... .. . ... ... : A#3 01 A ... ... : F#3 01 A ... ... : ... .. . ... ...
ROW 59 : ... .. E ... ... ... : ... .. E ... ... ... : ... .. . ... : ... .. . ... : ... .. . ... ... : ... .. 9 ... ... : ... .. 9 ... ... : ... .. . ... ...
ROW 5A : ... .. D ... ... ... : ... .. D ... ... ... : ... .. . ... : ... .. 6 ... : ... .. . ... ... : ... .. 8 ... ... : ... .. 8 ... ... : ... .. . ... ...
ROW 5B : ... .. A ... ... ... : ... .. A ... ... ... : ... .. . ... : ... .. . ... : ... .. . ... ... : ... .. 7 ... ... : ... .. 7 ... ... : ... .. . ... ...
ROW 5C : ... .. . ... ... ... : ... .. . ... ... ... : ... .. . ... : ... .. 5 ... : ... .. . ... ... : ... .. . ... ... : F-3 01 6 ... ... : --- .. . P7F ...
ROW 5D : ... .. . ... ... ... : ... .. . ... ... ... : ... .. . ... : ... .. . ... : ... .. . ... ... : ... .. 6 ... ... : ... .. . ... ... : ... .. . ... ...
ROW 5E : ... .. . ... ... ... : ... .. . ... ... ... : ... .. . ... : ... .. 4 ... : ... .. . ... ... : --- .. . ... ... : ... .. 5 ... ... : ... .. . ... ...
ROW 5F : ... .. 2 ... ... ... : ... .. 2 ... ... ... : ... .. . ... : ... .. . ... : ... .. . ... ... : ... .. . ... ... : ... .. 4 ... ... : ... .. . ... ...
ROW 60 : B-4 00 F ... ... ... : B-3 00 F ... ... ... : A#4 00 . ... : ... .. C ... : ... .. . ... ... : F#4 01 A ... ... : G#3 01 A ... ... : D#1 01 C P80 ...
ROW 61 : ... .. E ... ... ... : ... .. E ... ... ... : C-4 00 . ... : ... .. . ... : ... .. . ... ... : ... .. 9 ... ... : ... .. 9 ... ... : ... .. A ... ...
ROW 62 : ... .. D ... ... ... : ... .. D ... ... ... : F-3 00 . ... : ... .. A ... : ... .. . ... ... : ... .. 8 ... ... : ... .. 8 ... ... : ... .. 6 ... ...
ROW 63 : ... .. A ... ... ... : ... .. A ... ... ... : E-3 00 . ... : ... .. . ... : ... .. . ... ... : ... .. 7 ... ... : ... .. 7 ... ... : ... .. . ... ...
ROW 64 : ... .. . ... ... ... : ... .. . ... ... ... : B-2 00 . ... : ... .. 9 ... : ... .. . ... ... : ... .. . ... ... : F#3 01 6 ... ... : --- .. . P81 ...
ROW 65 : ... .. . ... ... ... : ... .. . ... ... ... : ... .. . ... : ... .. . ... : ... .. . ... ... : ... .. 6 ... ... : ... .. . ... ... : ... .. . ... ...
ROW 66 : ... .. . ... ... ... : ... .. . ... ... ... : ... .. . ... : ... .. 8 ... : ... .. . ... ... : --- .. . ... ... : ... .. 5 ... ... : ... .. . ... ...
ROW 67 : ... .. 2 ... ... ... : ... .. 2 ... ... ... : ... .. . ... : ... .. . ... : ... .. . ... ... : ... .. . ... ... : ... .. 4 ... ... : ... .. . ... ...
ROW 68 : F-1 00 F ... ... ... : B-1 00 F ... ... ... : A#2 00 . P7B : 8-# 00 C ... : ... .. . ... ... : B-3 01 A ... ... : A-3 01 A ... ... : D#2 01 C P80 ...
ROW 69 : ... .. E ... ... ... : ... .. E ... ... ... : A-2 00 . P77 : ... .. . ... : ... .. . ... ... : ... .. 9 ... ... : ... .. 9 ... ... : ... .. A ... ...
ROW 6A : ... .. D ... ... ... : ... .. D ... ... ... : G#2 00 . P76 : ... .. A ... : ... .. . ... ... : ... .. 8 ... ... : ... .. 8 ... ... : ... .. 6 ... ...
ROW 6B : ... .. A ... ... ... : ... .. A ... ... ... : G-2 00 . ... : ... .. . ... : ... .. . ... ... : ... .. 7 ... ... : ... .. 7 ... ... : ... .. . ... ...
ROW 6C : ... .. . ... ... ... : ... .. . ... ... ... : F#2 00 . P78 : ... .. 9 ... : ... .. . ... ... : ... .. . ... ... : G#3 01 6 ... ... : --- .. . ... ...
ROW 6D : ... .. . ... ... ... : ... .. . ... ... ... : F-2 00 . P7C : ... .. . ... : ... .. . ... ... : ... .. 6 ... ... : ... .. . ... ... : ... .. . ... ...
ROW 6E : ... .. . ... ... ... : ... .. . ... ... ... : E-2 00 . P82 : ... .. 8 ... : ... .. . ... ... : --- .. . ... ... : ... .. 5 ... ... : ... .. . ... ...
ROW 6F : ... .. 2 ... ... ... : ... .. 2 ... ... ... : D#2 00 . P8A : ... .. . ... : ... .. . ... ... : ... .. . ... ... : ... .. 4 ... ... : ... .. . ... ...
ROW 70 : F-3 00 F ... ... ... : C-4 00 F ... ... ... : E-5 00 . P80 : C-# 00 D ... : ... .. . ... ... : D#4 01 A ... ... : F-3 01 A ... ... : F-1 01 C ... ...
ROW 71 : ... .. E ... ... ... : ... .. E ... ... ... : F#4 00 . ... : ... .. B ... : ... .. . ... ... : ... .. 9 ... ... : ... .. 9 ... ... : ... .. A ... ...
ROW 72 : ... .. D ... ... ... : ... .. D ... ... ... : B-3 00 . ... : ... .. . ... : ... .. . ... ... : ... .. 8 ... ... : ... .. 8 ... ... : ... .. 6 ... ...
ROW 73 : ... .. A ... ... ... : ... .. A ... ... ... : A#3 00 . ... : ... .. A ... : ... .. . ... ... : ... .. 7 ... ... : ... .. 7 ... ... : ... .. . ... ...
ROW 74 : ... .. . ... ... ... : ... .. . ... ... ... : F-3 00 . ... : ... .. 8 ... : ... .. . ... ... : ... .. . ... ... : ... .. . ... ... : ... .. . ... ...
ROW 75 : ... .. . ... ... ... : ... .. . ... ... ... : ... .. . ... : ... .. 7 ... : ... .. . ... ... : ... .. 6 ... ... : ... .. 6 ... ... : ... .. . ... ...
ROW 76 : ... .. . ... ... ... : ... .. . ... ... ... : D#3 00 . P88 : ... .. 6 ... : ... .. . ... ... : --- .. . ... ... : ... .. . ... ... : ... .. . ... ...
ROW 77 : ... .. 2 ... ... ... : ... .. 2 ... ... ... : D-3 00 . P7D : ... .. . ... : ... .. . ... ... : ... .. . ... ... : ... .. 5 ... ... : ... .. . ... ...
ROW 78 : F-1 00 F ... ... ... : D#4 00 F ... ... ... : C-3 00 . P8C : 3-# 00 F ... : ... .. . ... ... : G#3 01 A ... ... : F#3 01 A ... ... : ... .. . P60 ...
ROW 79 : ... .. E ... ... ... : ... .. E ... ... ... : B-2 00 . P85 : ... .. C ... : ... .. . ... ... : ... .. 9 ... ... : ... .. 9 ... ... : E-1 01 6 P97 ...
ROW 7A : ... .. D ... ... ... : ... .. D ... ... ... : A#2 00 . P80 : ... .. 6 ... : ... .. . ... ... : ... .. 8 ... ... : ... .. 8 ... ... : ... .. . P77 ...
ROW 7B : ... .. A ... ... ... : ... .. A ... ... ... : A-2 00 . P7C : ... .. 3 ... : ... .. . ... ... : ... .. 7 ... ... : ... .. 7 ... ... : ... .. . P57 ...
ROW 7C : ... .. . ... ... ... : ... .. . ... ... ... : G#2 00 . P7B : ... .. F ... : ... .. . ... ... : ... .. . ... ... : F-3 01 6 ... ... : --- .. . P82 ...
ROW 7D : ... .. . ... ... ... : ... .. . ... ... ... : G-2 00 . ... : ... .. C ... : ... .. . ... ... : ... .. 6 ... ... : ... .. . ... ... : ... .. . ... ...
ROW 7E : ... .. . ... ... ... : ... .. . ... ... ... : F#2 00 . P7D : ... .. 6 ... : ... .. . ... ... : --- .. . P83 ... : ... .. 5 ... ... : ... .. . ... ...
ROW 7F : ... .. 2 ... ... ... : ... .. 2 ... ... ... : F-2 00 . P81 : ... .. 3 ... : ... .. . ... ... : ... .. . ... ... : ... .. 4 ... ... : ... .. . ... ...
ROW 80 : ... .. F ... ... ... : D-4 00 F ... ... ... : F-4 00 . P80 : 6-# 00 F ... : ... .. . ... ... : G#3 01 A P81 ... : G#3 01 A ... ... : F-2 01 C P80 ...
ROW 81 : ... .. E ... ... ... : ... .. E ... ... ... : ... .. . ... : ... .. C ... : ... .. . ... ... : ... .. 9 ... ... : ... .. 9 ... ... : ... .. A ... ...
ROW 82 : ... .. D ... ... ... : ... .. D ... ... ... : ... .. . ... : ... .. 6 ... : ... .. . ... ... : ... .. 8 ... ... : ... .. 8 ... ... : ... .. 6 ... ...
ROW 83 : ... .. A ... ... ... : ... .. A ... ... ... : ... .. . ... : ... .. 3 ... : ... .. . ... ... : ... .. 7 ... ... : ... .. 7 ... ... : ... .. . ... ...
ROW 84 : ... .. . ... ... ... : ... .. . ... ... ... : ... .. . ... : ... .. F ... : ... .. . ... ... : ... .. . ... ... : F#3 01 6 ... ... : --- .. . P7E ...
ROW 85 : ... .. . ... ... ... : ... .. . ... ... ... : ... .. . ... : ... .. C ... : ... .. . ... ... : ... .. 6 ... ... : ... .. . ... ... : ... .. . ... ...
ROW 86 : ... .. . ... ... ... : ... .. . ... ... ... : ... .. . ... : ... .. 6 ... : ... .. . ... ... : --- .. . P83 ... : ... .. 5 ... ... : ... .. . ... ...
ROW 87 : ... .. 2 ... ... ... : ... .. 2 ... ... ... : ... .. . ... : ... .. 3 ... : ... .. . ... ... : ... .. . ... ... : ... .. 4 ... ... : ... .. . ... ...
ROW 88 : G#3 00 F ... ... ... : F-3 00 F ... ... ... : E-4 00 . ... : C-# 00 D ... : ... .. . ... ... : D#4 01 A P81 ... : F-3 01 A ... ... : F-0 01 C P80 ...
ROW 89 : ... .. E ... ... ... : ... .. E ... ... ... : F#3 00 . ... : ... .. B ... : ... .. . ... ... : ... .. 9 ... ... : ... .. 9 ... ... : ... .. A ... ...
ROW 8A : ... .. D ... ... ... : ... .. D ... ... ... : B-2 00 . ... : ... .. . ... : ... .. . ... ... : ... .. 8 ... ... : ... .. 8 ... ... : ... .. 6 ... ...
ROW 8B : ... .. A ... ... ... : ... .. A ... ... ... : A#2 00 . ... : ... .. A ... : ... .. . ... ... : ... .. 7 ... ... : ... .. 7 ... ... : ... .. . ... ...
ROW 8C : ... .. . ... ... ... : ... .. . ... ... ... : F-2 00 . ... : ... .. 8 ... : ... .. . ... ... : ... .. . ... ... : G#3 01 6 ... ... : ... .. . ... ...
ROW 8D : ... .. . ... ... ... : ... .. . ... ... ... : ... .. . ... : ... .. 7 ... : ... .. . ... ... : ... .. 6 ... ... : ... .. . ... ... : ... .. . ... ...
ROW 8E : ... .. . ... ... ... : ... .. . ... ... ... : ... .. . ... : ... .. 6 ... : ... .. . ... ... : --- .. . ... ... : ... .. 5 ... ... : ... .. . ... ...
ROW 8F : ... .. 2 ... ... ... : ... .. 2 ... ... ... : ... .. . ... : ... .. . ... : ... .. . ... ... : ... .. . ... ... : ... .. 4 ... ... : ... .. . ... ...
ROW 90 : F-1 00 F ... ... ... : C-4 00 F ... ... ... : E-2 00 . P86 : 7-# 00 F ... : ... .. . ... ... : G#3 01 A ... ... : F#3 01 A ... ... : ... .. . P60 ...
ROW 91 : ... .. E ... ... ... : ... .. E ... ... ... : D#2 00 . P8E : ... .. C ... : ... .. . ... ... : ... .. 9 ... ... : ... .. 9 ... ... : ... .. . P40 ...
ROW 92 : ... .. D ... ... ... : ... .. D ... ... ... : ... .. . P6E : ... .. 6 ... : ... .. . ... ... : ... .. 8 ... ... : ... .. 8 ... ... : E-0 01 6 PCE ...
ROW 93 : ... .. A ... ... ... : ... .. A ... ... ... : D-2 00 . P79 : ... .. 3 ... : ... .. . ... ... : ... .. 7 ... ... : ... .. 7 ... ... : ... .. . PAE ...
ROW 94 : ... .. . ... ... ... : ... .. . ... ... ... : C#2 00 . P86 : ... .. F ... : ... .. . ... ... : ... .. . ... ... : F-3 01 6 ... ... : --- .. . P83 ...
ROW 95 : ... .. . ... ... ... : ... .. . ... ... ... : C-2 00 . P96 : ... .. C ... : ... .. . ... ... : ... .. 6 ... ... : ... .. . ... ... : ... .. . ... ...
ROW 96 : ... .. . ... ... ... : ... .. . ... ... ... : ... .. . P76 : ... .. 6 ... : ... .. . ... ... : --- .. . P83 ... : ... .. 5 ... ... : ... .. . ... ...
ROW 97 : ... .. 2 ... ... ... : ... .. 2 ... ... ... : B-1 00 . P89 : ... .. 3 ... : ... .. . ... ... : ... .. . ... ... : ... .. 4 ... ... : ... .. . ... ...
ROW 98 : ... .. F ... ... ... : B-3 00 F ... ... ... : F-4 00 . P80 : A-# 00 F ... : ... .. . ... ... : G#3 01 A P81 ... : G#3 01 A ... ... : F-2 01 C P80 ...
ROW 99 : ... .. E ... ... ... : ... .. E ... ... ... : ... .. . ... : ... .. C ... : ... .. . ... ... : ... .. 9 ... ... : ... .. 9 ... ... : ... .. A ... ...
ROW 9A : ... .. D ... ... ... : ... .. D ... ... ... : ... .. . ... : ... .. 6 ... : ... .. . ... ... : ... .. 8 ... ... : ... .. 8 ... ... : ... .. 6 ... ...
ROW 9B : ... .. A ... ... ... : ... .. A ... ... ... : ... .. . ... : ... .. 3 ... : ... .. . ... ... : ... .. 7 ... ... : ... .. 7 ... ... : ... .. . ... ...
ROW 9C : ... .. . ... ... ... : ... .. . ... ... ... : ... .. . ... : ... .. F ... : ... .. . ... ... : ... .. . ... ... : F#3 01 6 ... ... : --- .. . P7E ...
ROW 9D : ... .. . ... ... ... : ... .. . ... ... ... : ... .. . ... : ... .. C ... : ... .. . ... ... : ... .. 6 ... ... : ... .. . ... ... : ... .. . ... ...
ROW 9E : ... .. . ... ... ... : ... .. . ... ... ... : ... .. . ... : ... .. 6 ... : ... .. . ... ... : --- .. . P83 ... : ... .. 5 ... ... : ... .. . ... ...
ROW 9F : ... .. 2 ... ... ... : ... .. 2 ... ... ... : ... .. . ... : ... .. 3 ... : ... .. . ... ... : ... .. . ... ... : ... .. 4 ... ... : ... .. . ... ...
ROW A0 : A#3 00 F ... ... ... : F-3 00 F ... ... ... : E-5 00 . ... : C-# 00 D ... : ... .. . ... ... : F-4 01 A P81 ... : F-3 01 A ... ... : F-1 01 C P80 ...
ROW A1 : ... .. E ... ... ... : ... .. E ... ... ... : F#4 00 . ... : ... .. B ... : ... .. . ... ... : ... .. 9 ... ... : ... .. 9 ... ... : ... .. A ... ...
ROW A2 : ... .. D ... ... ... : ... .. D ... ... ... : B-3 00 . ... : ... .. . ... : ... .. . ... ... : ... .. 8 ... ... : ... .. 8 ... ... : ... .. 6 ... ...
ROW A3 : ... .. A ... ... ... : ... .. A ... ... ... : A#3 00 . ... : ... .. A ... : ... .. . ... ... : ... .. 7 ... ... : ... .. 7 ... ... : ... .. . ... ...
ROW A4 : ... .. . ... ... ... : ... .. . ... ... ... : F-3 00 . ... : ... .. 8 ... : ... .. . ... ... : ... .. . ... ... : G#3 01 6 ... ... : ... .. . ... ...
ROW A5 : ... .. . ... ... ... : ... .. . ... ... ... : ... .. . ... : ... .. 7 ... : ... .. . ... ... : ... .. 6 ... ... : ... .. . ... ... : ... .. . ... ...
ROW A6 : ... .. . ... ... ... : ... .. . ... ... ... : ... .. . ... : ... .. 6 ... : ... .. . ... ... : --- .. . ... ... : ... .. 5 ... ... : ... .. . ... ...
ROW A7 : ... .. 2 ... ... ... : ... .. 2 ... ... ... : ... .. . ... : ... .. . ... : ... .. . ... ... : ... .. . ... ... : ... .. 4 ... ... : ... .. . ... ...
ROW A8 : F-1 00 F ... ... ... : D#4 00 F ... ... ... : ... .. . ... : 4-# 00 F ... : ... .. . ... ... : A#3 01 A ... ... : F#3 01 A ... ... : ... .. . ... ...
ROW A9 : ... .. E ... ... ... : ... .. E ... ... ... : ... .. . ... : ... .. C ... : ... .. . ... ... : ... .. 9 ... ... : ... .. 9 ... ... : ... .. . ... ...
ROW AA : ... .. D ... ... ... : ... .. D ... ... ... : ... .. . ... : ... .. 6 ... : ... .. . ... ... : ... .. 8 ... ... : ... .. 8 ... ... : ... .. . ... ...
ROW AB : ... .. A ... ... ... : ... .. A ... ... ... : ... .. . ... : ... .. 3 ... : ... .. . ... ... : ... .. 7 ... ... : ... .. 7 ... ... : ... .. . ... ...
ROW AC : ... .. . ... ... ... : ... .. . ... ... ... : ... .. . ... : ... .. F ... : ... .. . ... ... : ... .. . ... ... : F-3 01 6 ... ... : --- .. . P7F ...
ROW AD : ... .. . ... ... ... : ... .. . ... ... ... : ... .. . ... : ... .. C ... : ... .. . ... ... : ... .. 6 ... ... : ... .. . ... ... : ... .. . ... ...
ROW AE : ... .. . ... ... ... : ... .. . ... ... ... : ... .. . ... : ... .. 6 ... : ... .. . ... ... : --- .. . ... ... : ... .. 5 ... ... : ... .. . ... ...
ROW AF : ... .. 2 ... ... ... : ... .. 2 ... ... ... : ... .. . ... : ... .. 3 ... : ... .. . ... ... : ... .. . ... ... : ... .. 4 ... ... : ... .. . ... ...
ROW B0 : ... .. F ... ... ... : D-4 00 F ... ... ... : D#3 00 . ... : 2-# 00 F ... : ... .. . ... ... : A#3 01 A ... ... : G#3 01 A ... ... : D#1 01 C P80 ...
ROW B1 : ... .. E ... ... ... : ... .. E ... ... ... : ... .. . ... : ... .. C ... : ... .. . ... ... : ... .. 9 ... ... : ... .. 9 ... ... : ... .. A ... ...
ROW B2 : ... .. D ... ... ... : ... .. D ... ... ... : ... .. . ... : ... .. 6 ... : ... .. . ... ... : ... .. 8 ... ... : ... .. 8 ... ... : ... .. 6 ... ...
ROW B3 : ... .. A ... ... ... : ... .. A ... ... ... : ... .. . ... : ... .. 3 ... : ... .. . ... ... : ... .. 7 ... ... : ... .. 7 ... ... : ... .. . ... ...
ROW B4 : ... .. . ... ... ... : ... .. . ... ... ... : ... .. . ... : ... .. F ... : ... .. . ... ... : ... .. . ... ... : F#3 01 6 ... ... : --- .. . P81 ...
ROW B5 : ... .. . ... ... ... : ... .. . ... ... ... : ... .. . ... : ... .. C ... : ... .. . ... ... : ... .. 6 ... ... : ... .. . ... ... : ... .. . ... ...
ROW B6 : ... .. . ... ... ... : ... .. . ... ... ... : ... .. . ... : ... .. 6 ... : ... .. . ... ... : --- .. . ... ... : ... .. 5 ... ... : ... .. . ... ...
ROW B7 : ... .. 2 ... ... ... : ... .. 2 ... ... ... : ... .. . ... : ... .. 3 ... : ... .. . ... ... : ... .. . ... ... : ... .. 4 ... ... : ... .. . ... ...
ROW B8 : B-3 00 F ... ... ... : F-3 00 F ... ... ... : E-4 00 . ... : C-# 00 D ... : ... .. . ... ... : F#4 01 A ... ... : ... .. A ... ... : F-0 01 C P80 ...
ROW B9 : ... .. E ... ... ... : ... .. E ... ... ... : F#3 00 . ... : ... .. B ... : ... .. . ... ... : ... .. 9 ... ... : ... .. 9 ... ... : ... .. A ... ...
ROW BA : ... .. D ... ... ... : ... .. D ... ... ... : B-2 00 . ... : ... .. . ... : ... .. . ... ... : ... .. 8 ... ... : ... .. 8 ... ... : ... .. 6 ... ...
ROW BB : ... .. A ... ... ... : ... .. A ... ... ... : A#2 00 . ... : ... .. A ... : ... .. . ... ... : ... .. 7 ... ... : ... .. 7 ... ... : ... .. . ... ...
ROW BC : ... .. . ... ... ... : ... .. . ... ... ... : F-2 00 . ... : ... .. 8 ... : ... .. . ... ... : ... .. . ... ... : G#3 01 6 ... ... : --- .. . P82 ...
ROW BD : ... .. . ... ... ... : ... .. . ... ... ... : ... .. . ... : ... .. 7 ... : ... .. . ... ... : ... .. 6 ... ... : ... .. . ... ... : ... .. . ... ...
ROW BE : ... .. . ... ... ... : ... .. . ... ... ... : ... .. . ... : ... .. 6 ... : ... .. . ... ... : --- .. . ... ... : ... .. 5 ... ... : ... .. . ... ...
ROW BF : ... .. 2 ... ... ... : ... .. 2 ... ... ... : ... .. . ... : ... .. . ... : ... .. . ... ... : ... .. . ... ... : ... .. 4 ... ... : ... .. . ... ...
ROW C0 : F-1 00 F ... ... ... : C-4 00 F ... ... ... : D#2 00 . ... : 7-# 00 F ... : ... .. . ... ... : B-3 01 A ... ... : ... .. A ... ... : D#0 01 C P80 ...
ROW C1 : ... .. E ... ... ... : ... .. E ... ... ... : ... .. . ... : ... .. C ... : ... .. . ... ... : ... .. 9 ... ... : ... .. 9 ... ... : ... .. A ... ...
ROW C2 : ... .. D ... ... ... : ... .. D ... ... ... : ... .. . ... : ... .. 6 ... : ... .. . ... ... : ... .. 8 ... ... : ... .. 8 ... ... : ... .. 6 ... ...
ROW C3 : ... .. A ... ... ... : ... .. A ... ... ... : ... .. . ... : ... .. 3 ... : ... .. . ... ... : ... .. 7 ... ... : ... .. 7 ... ... : ... .. . ... ...
ROW C4 : ... .. . ... ... ... : ... .. . ... ... ... : ... .. . ... : ... .. F ... : ... .. . ... ... : ... .. . ... ... : F#3 01 6 ... ... : --- .. . P83 ...
ROW C5 : ... .. . ... ... ... : ... .. . ... ... ... : ... .. . ... : ... .. C ... : ... .. . ... ... : ... .. 6 ... ... : ... .. . ... ... : ... .. . ... ...
ROW C6 : ... .. . ... ... ... : ... .. . ... ... ... : ... .. . ... : ... .. 6 ... : ... .. . ... ... : --- .. . ... ... : ... .. 5 ... ... : ... .. . ... ...
ROW C7 : ... .. 2 ... ... ... : ... .. 2 ... ... ... : ... .. . ... : ... .. 3 ... : ... .. . ... ... : ... .. . ... ... : ... .. 4 ... ... : ... .. . ... ...
ROW C8 : ... .. F ... ... ... : B-3 00 F ... ... ... : F-2 00 . ... : 9-# 00 F ... : ... .. . ... ... : B-3 01 A ... ... : A-3 01 A ... ... : F-0 01 C P80 ...
ROW C9 : ... .. E ... ... ... : ... .. E ... ... ... : ... .. . ... : ... .. C ... : ... .. . ... ... : ... .. 9 ... ... : ... .. 9 ... ... : ... .. A ... ...
ROW CA : ... .. D ... ... ... : ... .. D ... ... ... : ... .. . ... : ... .. 6 ... : ... .. . ... ... : ... .. 8 ... ... : ... .. 8 ... ... : ... .. 6 ... ...
ROW CB : ... .. A ... ... ... : ... .. A ... ... ... : ... .. . ... : ... .. 3 ... : ... .. . ... ... : ... .. 7 ... ... : ... .. 7 ... ... : ... .. . ... ...
ROW CC : ... .. . ... ... ... : ... .. . ... ... ... : ... .. . ... : ... .. F ... : ... .. . ... ... : ... .. . ... ... : G#3 01 6 ... ... : --- .. . P82 ...
ROW CD : ... .. . ... ... ... : ... .. . ... ... ... : ... .. . ... : ... .. C ... : ... .. . ... ... : ... .. 6 ... ... : ... .. . ... ... : ... .. . ... ...
ROW CE : ... .. . ... ... ... : ... .. . ... ... ... : ... .. . ... : ... .. 6 ... : ... .. . ... ... : --- .. . ... ... : ... .. 5 ... ... : ... .. . ... ...
ROW CF : ... .. 2 ... ... ... : ... .. 2 ... ... ... : ... .. . ... : ... .. 3 ... : ... .. . ... ... : ... .. . ... ... : ... .. 4 ... ... : ... .. . ... ...
ROW D0 : G#3 00 F ... ... ... : F-3 00 F ... ... ... : E-5 00 . ... : C-# 00 D ... : ... .. . ... ... : D#4 01 A ... ... : F-3 01 A ... ... : F-1 01 C P80 ...
ROW D1 : ... .. E ... ... ... : ... .. E ... ... ... : F#4 00 . ... : ... .. B ... : ... .. . ... ... : ... .. 9 ... ... : ... .. 9 ... ... : ... .. A ... ...
ROW D2 : ... .. D ... ... ... : ... .. D ... ... ... : B-3 00 . ... : ... .. . ... : ... .. . ... ... : ... .. 8 ... ... : ... .. 8 ... ... : ... .. 6 ... ...
ROW D3 : ... .. A ... ... ... : ... .. A ... ... ... : A#3 00 . ... : ... .. A ... : ... .. . ... ... : ... .. 7 ... ... : ... .. 7 ... ... : ... .. . ... ...
ROW D4 : ... .. . ... ... ... : ... .. . ... ... ... : F-3 00 . ... : ... .. 8 ... : ... .. . ... ... : ... .. . ... ... : A-3 01 6 ... ... : ... .. . ... ...
ROW D5 : ... .. . ... ... ... : ... .. . ... ... ... : ... .. . ... : ... .. 7 ... : ... .. . ... ... : ... .. 6 ... ... : ... .. . ... ... : ... .. . ... ...
ROW D6 : ... .. . ... ... ... : ... .. . ... ... ... : ... .. . ... : ... .. 6 ... : ... .. . ... ... : --- .. . ... ... : ... .. 5 ... ... : ... .. . ... ...
ROW D7 : ... .. 2 ... ... ... : ... .. 2 ... ... ... : ... .. . ... : ... .. . ... : ... .. . ... ... : ... .. . ... ... : ... .. 4 ... ... : ... .. . ... ...
ROW D8 : F-1 00 F ... ... ... : D#4 00 F ... ... ... : D#3 00 . P88 : 4-# 00 F ... : ... .. . ... ... : G#3 01 A ... ... : F#3 01 A ... ... : ... .. . P60 ...
ROW D9 : ... .. E ... ... ... : ... .. E ... ... ... : D-3 00 . P7D : ... .. C ... : ... .. . ... ... : ... .. 9 ... ... : ... .. 9 ... ... : E-1 01 6 P97 ...
ROW DA : ... .. D ... ... ... : ... .. D ... ... ... : C-3 00 . P8C : ... .. 6 ... : ... .. . ... ... : ... .. 8 ... ... : ... .. 8 ... ... : ... .. . P77 ...
ROW DB : ... .. A ... ... ... : ... .. A ... ... ... : B-2 00 . P85 : ... .. 3 ... : ... .. . ... ... : ... .. 7 ... ... : ... .. 7 ... ... : ... .. . P57 ...
ROW DC : ... .. . ... ... ... : ... .. . ... ... ... : A#2 00 . P80 : ... .. F ... : ... .. . ... ... : ... .. . ... ... : F-3 01 6 ... ... : --- .. . P82 ...
ROW DD : ... .. . ... ... ... : ... .. . ... ... ... : A-2 00 . P7C : ... .. C ... : ... .. . ... ... : ... .. 6 ... ... : ... .. . ... ... : ... .. . ... ...
ROW DE : ... .. . ... ... ... : ... .. . ... ... ... : G#2 00 . P7B : ... .. 6 ... : ... .. . ... ... : --- .. . P83 ... : ... .. 5 ... ... : ... .. . ... ...
ROW DF : ... .. 2 ... ... ... : ... .. 2 ... ... ... : G-2 00 . ... : ... .. 3 ... : ... .. . ... ... : ... .. . ... ... : ... .. 4 ... ... : ... .. . ... ...
ROW E0 : ... .. F ... ... ... : D-4 00 F ... ... ... : F-4 00 . P80 : 2-# 00 F ... : ... .. . ... ... : G#3 01 A P81 ... : G#3 01 A ... ... : F-2 01 C P80 ...
ROW E1 : ... .. E ... ... ... : ... .. E ... ... ... : ... .. . ... : ... .. C ... : ... .. . ... ... : ... .. 9 ... ... : ... .. 9 ... ... : ... .. A ... ...
ROW E2 : ... .. D ... ... ... : ... .. D ... ... ... : ... .. . ... : ... .. 6 ... : ... .. . ... ... : ... .. 8 ... ... : ... .. 8 ... ... : ... .. 6 ... ...
ROW E3 : ... .. A ... ... ... : ... .. A ... ... ... : ... .. . ... : ... .. 3 ... : ... .. . ... ... : ... .. 7 ... ... : ... .. 7 ... ... : ... .. . ... ...
ROW E4 : ... .. . ... ... ... : ... .. . ... ... ... : ... .. . ... : ... .. F ... : ... .. . ... ... : ... .. . ... ... : F#3 01 6 ... ... : --- .. . P7E ...
ROW E5 : ... .. . ... ... ... : ... .. . ... ... ... : ... .. . ... : ... .. C ... : ... .. . ... ... : ... .. 6 ... ... : ... .. . ... ... : ... .. . ... ...
ROW E6 : ... .. . ... ... ... : ... .. . ... ... ... : ... .. . ... : ... .. 6 ... : ... .. . ... ... : --- .. . P83 ... : ... .. 5 ... ... : ... .. . ... ...
ROW E7 : ... .. 2 ... ... ... : ... .. 2 ... ... ... : ... .. . ... : ... .. 3 ... : ... .. . ... ... : ... .. . ... ... : ... .. 4 ... ... : ... .. . ... ...
ROW E8 : G#3 00 F ... ... ... : F-3 00 F ... ... ... : E-4 00 . ... : C-# 00 D ... : ... .. . ... ... : D#4 01 A P81 ... : F-3 01 A ... ... : F-0 01 C P80 ...
ROW E9 : ... .. E ... ... ... : ... .. E ... ... ... : F#3 00 . ... : ... .. B ... : ... .. . ... ... : ... .. 9 ... ... : ... .. 9 ... ... : ... .. A ... ...
ROW EA : ... .. D ... ... ... : ... .. D ... ... ... : B-2 00 . ... : ... .. . ... : ... .. . ... ... : ... .. 8 ... ... : ... .. 8 ... ... : ... .. 6 ... ...
ROW EB : ... .. A ... ... ... : ... .. A ... ... ... : A#2 00 . ... : ... .. A ... : ... .. . ... ... : ... .. 7 ... ... : ... .. 7 ... ... : ... .. . ... ...
ROW EC : ... .. . ... ... ... : ... .. . ... ... ... : F-2 00 . ... : ... .. 8 ... : ... .. . ... ... : ... .. . ... ... : G#3 01 6 ... ... : ... .. . ... ...
ROW ED : ... .. . ... ... ... : ... .. . ... ... ... : ... .. . ... : ... .. 7 ... : ... .. . ... ... : ... .. 6 ... ... : ... .. . ... ... : ... .. . ... ...
ROW EE : ... .. . ... ... ... : ... .. . ... ... ... : ... .. . ... : ... .. 6 ... : ... .. . ... ... : --- .. . ... ... : ... .. 5 ... ... : ... .. . ... ...
ROW EF : ... .. 2 ... ... ... : ... .. 2 ... ... ... : ... .. . ... : ... .. . ... : ... .. . ... ... : ... .. . ... ... : ... .. 4 ... ... : ... .. . ... ...
ROW F0 : F-1 00 F ... ... ... : C-4 00 F ... ... ... : E-2 00 . P86 : B-# 00 F ... : ... .. . ... ... : G#3 01 A ... ... : F#3 01 A ... ... : ... .. . P60 ...
ROW F1 : ... .. E ... ... ... : ... .. E ... ... ... : D#2 00 . P8E : ... .. C ... : ... .. . ... ... : ... .. 9 ... ... : ... .. 9 ... ... : ... .. . P40 ...
ROW F2 : ... .. D ... ... ... : ... .. D ... ... ... : ... .. . P6E : ... .. 6 ... : ... .. . ... ... : ... .. 8 ... ... : ... .. 8 ... ... : E-0 01 6 PCE ...
ROW F3 : ... .. A ... ... ... : ... .. A ... ... ... : D-2 00 . P79 : ... .. 3 ... : ... .. . ... ... : ... .. 7 ... ... : ... .. 7 ... ... : ... .. . PAE ...
ROW F4 : ... .. . ... ... ... : ... .. . ... ... ... : C#2 00 . P86 : ... .. F ... : ... .. . ... ... : ... .. . ... ... : F-3 01 6 ... ... : --- .. . P83 ...
ROW F5 : ... .. . ... ... ... : ... .. . ... ... ... : C-2 00 . P96 : ... .. C ... : ... .. . ... ... : ... .. 6 ... ... : ... .. . ... ... : ... .. . ... ...
ROW F6 : ... .. . ... ... ... : ... .. . ... ... ... : ... .. . P76 : ... .. 6 ... : ... .. . ... ... : --- .. . P83 ... : ... .. 5 ... ... : ... .. . ... ...
ROW F7 : ... .. 2 ... ... ... : ... .. 2 ... ... ... : B-1 00 . P89 : ... .. 3 ... : ... .. . ... ... : ... .. . ... ... : ... .. 4 ... ... : ... .. . ... ...
ROW F8 : ... .. F ... ... ... : B-3 00 F ... ... ... : F-4 00 . P80 : A-# 00 F ... : ... .. . ... ... : G#3 01 A P81 ... : G#3 01 A ... ... : F-2 01 C P80 ...
ROW F9 : ... .. E ... ... ... : ... .. E ... ... ... : ... .. . ... : ... .. C ... : ... .. . ... ... : ... .. 9 ... ... : ... .. 9 ... ... : ... .. A ... ...
ROW FA : ... .. D ... ... ... : ... .. D ... ... ... : ... .. . ... : ... .. 6 ... : ... .. . ... ... : ... .. 8 ... ... : ... .. 8 ... ... : ... .. 6 ... ...
ROW FB : ... .. A ... ... ... : ... .. A ... ... ... : ... .. . ... : ... .. 3 ... : ... .. . ... ... : ... .. 7 ... ... : ... .. 7 ... ... : ... .. . ... ...
ROW FC : ... .. . ... ... ... : ... .. . ... ... ... : ... .. . ... : ... .. F ... : ... .. . ... ... : ... .. . ... ... : F#3 01 6 ... ... : --- .. . P7E ...
ROW FD : ... .. . ... ... ... : ... .. . ... ... ... : ... .. . ... : ... .. C ... : ... .. . ... ... : ... .. 6 ... ... : ... .. . ... ... : ... .. . ... ...
ROW FE : ... .. . ... ... ... : ... .. . ... ... ... : ... .. . ... : ... .. 6 ... : ... .. . ... ... : --- .. . P83 ... : ... .. 5 ... ... : ... .. . ... ...
ROW FF : ... .. 2 ... ... ... : ... .. 2 ... ... ... : ... .. . ... : ... .. 3 ... : ... .. . ... ... : ... .. . ... ... : ... .. 4 ... ... : ... .. . ... ...

PATTERN 0F
ROW 00 : A#4 00 F ... ... ... : A#3 00 F ... ... ... : A-4 00 . ... : B-# 00 C ... : ... .. . ... ... : A#2 01 A P81 ... : F-2 01 A ... ... : F-1 01 C P80 ...
ROW 01 : ... .. E ... ... ... : ... .. E ... ... ... : B-3 00 . ... : ... .. . ... : ... .. . ... ... : ... .. 9 ... ... : ... .. 9 ... ... : ... .. A ... ...
ROW 02 : ... .. D ... ... ... : ... .. D ... ... ... : E-3 00 . ... : ... .. A ... : ... .. . ... ... : ... .. 8 ... ... : ... .. 8 ... ... : ... .. 6 ... ...
ROW 03 : ... .. A ... ... ... : ... .. A ... ... ... : D#3 00 . ... : ... .. . ... : ... .. . ... ... : ... .. 7 ... ... : ... .. 7 ... ... : ... .. . ... ...
ROW 04 : ... .. . ... ... ... : ... .. . ... ... ... : A#2 00 . ... : ... .. 9 ... : ... .. . ... ... : ... .. . ... ... : ... .. . ... ... : ... .. . ... ...
ROW 05 : ... .. . ... ... ... : ... .. . ... ... ... : ... .. . ... : ... .. . ... : ... .. . ... ... : ... .. 6 ... ... : ... .. 6 ... ... : ... .. . ... ...
ROW 06 : ... .. 0 ... ... ... : ... .. 0 ... ... ... : ... .. . ... : ... .. 8 ... : ... .. . ... ... : --- .. . P83 ... : --- .. . P7D ... : ... .. . ... ...
ROW 07 : ... .. . ... ... ... : ... .. . ... ... ... : ... .. . ... : ... .. . ... : ... .. . ... ... : ... .. . ... ... : ... .. . ... ... : ... .. . ... ...
ROW 08 : A#4 00 8 P80 ... ... : A#3 00 8 P80 ... ... : ... .. . ... : ... .. 7 ... : ... .. . ... ... : A#2 01 4 P81 ... : F-2 01 4 P7F ... : ... .. . ... ...
ROW 09 : ... .. 7 ... ... ... : ... .. 7 ... ... ... : ... .. . ... : ... .. . ... : ... .. . ... ... : ... .. 3 ... ... : ... .. 3 ... ... : ... .. . ... ...
ROW 0A : ... .. 6 ... ... ... : ... .. 6 ... ... ... : ... .. . ... : ... .. 6 ... : ... .. . ... ... : ... .. . ... ... : ... .. . ... ... : ... .. . ... ...
ROW 0B : ... .. 5 ... ... ... : ... .. 5 ... ... ... : ... .. . ... : ... .. . ... : ... .. . ... ... : ... .. 2 ... ... : ... .. 2 ... ... : ... .. . ... ...
ROW 0C : ... .. . ... ... ... : ... .. . ... ... ... : ... .. . ... : ... .. 5 ... : ... .. . ... ... : ... .. . ... ... : ... .. . ... ... : --- .. . P7F ...
ROW 0D : ... .. . ... ... ... : ... .. . ... ... ... : ... .. . ... : ... .. . ... : ... .. . ... ... : ... .. . ... ... : ... .. . ... ... : ... .. . ... ...
ROW 0E : ... .. 0 ... ... ... : ... .. 0 ... ... ... : ... .. . ... : ... .. 4 ... : ... .. . ... ... : --- .. . P83 ... : --- .. . P7D ... : ... .. . ... ...
ROW 0F : ... .. . ... ... ... : ... .. . ... ... ... : ... .. . ... : ... .. . ... : ... .. . ... ... : ... .. . ... ... : ... .. . ... ... : ... .. . ... ...
ROW 10 : B-4 00 F P80 ... ... : B-3 00 F P80 ... ... : A#4 00 . ... : ... .. C ... : ... .. . ... ... : B-2 01 A P81 ... : F#2 01 A P7F ... : D#1 01 C P80 ...
ROW 11 : ... .. E ... ... ... : ... .. E ... ... ... : C-4 00 . ... : ... .. . ... : ... .. . ... ... : ... .. 9 ... ... : ... .. 9 ... ... : ... .. A ... ...
ROW 12 : ... .. D ... ... ... : ... .. D ... ... ... : F-3 00 . ... : ... .. A ... : ... .. . ... ... : ... .. 8 ... ... : ... .. 8 ... ... : ... .. 6 ... ...
ROW 13 : ... .. A ... ... ... : ... .. A ... ... ... : E-3 00 . ... : ... .. . ... : ... .. . ... ... : ... .. 7 ... ... : ... .. 7 ... ... : ... .. . ... ...
ROW 14 : ... .. . ... ... ... : ... .. . ... ... ... : B-2 00 . ... : ... .. 9 ... : ... .. . ... ... : ... .. . ... ... : ... .. . ... ... : --- .. . P81 ...
ROW 15 : ... .. . ... ... ... : ... .. . ... ... ... : ... .. . ... : ... .. . ... : ... .. . ... ... : ... .. 6 ... ... : ... .. 6 ... ... : ... .. . ... ...
ROW 16 : ... .. 0 ... ... ... : ... .. 0 ... ... ... : ... .. . ... : ... .. 8 ... : ... .. . ... ... : --- .. . P86 ... : --- .. . P81 ... : ... .. . ... ...
ROW 17 : ... .. . ... ... ... : ... .. . ... ... ... : ... .. . ... : ... .. . ... : ... .. . ... ... : ... .. . ... ... : ... .. . ... ... : ... .. . ... ...
ROW 18 : B-4 00 8 P80 ... ... : B-3 00 8 P80 ... ... : ... .. . ... : ... .. 7 ... : ... .. . ... ... : B-2 01 4 P81 ... : F#2 01 4 P7F ... : ... .. . ... ...
ROW 19 : ... .. 7 ... ... ... : ... .. 7 ... ... ... : ... .. . ... : ... .. . ... : ... .. . ... ... : ... .. 3 ... ... : ... .. 3 ... ... : ... .. . ... ...
ROW 1A : ... .. 6 ... ... ... : ... .. 6 ... ... ... : ... .. . ... : ... .. 6 ... : ... .. . ... ... : ... .. . ... ... : ... .. . ... ... : ... .. . ... ...
ROW 1B : ... .. 5 ... ... ... : ... .. 5 ... ... ... : ... .. . ... : ... .. . ... : ... .. . ... ... : ... .. 2 ... ... : ... .. 2 ... ... : ... .. . ... ...
ROW 1C : ... .. . ... ... ... : ... .. . ... ... ... : ... .. . ... : ... .. 5 ... : ... .. . ... ... : ... .. . ... ... : ... .. . ... ... : ... .. . ... ...
ROW 1D : ... .. . ... ... ... : ... .. . ... ... ... : ... .. . ... : ... .. . ... : ... .. . ... ... : ... .. . ... ... : ... .. . ... ... : ... .. . ... ...
ROW 1E : ... .. 0 ... ... ... : ... .. 0 ... ... ... : --- .. . ... : ... .. 4 ... : ... .. . ... ... : --- .. . P86 ... : --- .. . P81 ... : ... .. . ... ...
ROW 1F : ... .. . ... ... ... : ... .. . ... ... ... : ... .. . ... : ... .. . ... : ... .. . ... ... : ... .. . ... ... : ... .. . ... ... : ... .. . ... ...
ROW 20 : F-1 00 F P80 ... ... : C-2 00 F P80 ... ... : E-4 00 . ... : 1-# 00 F ... : ... .. . ... ... : ... .. . ... ... : ... .. . ... ... : F-0 01 C P80 ...
ROW 21 : ... .. E ... ... ... : ... .. E ... ... ... : F#3 00 . ... : ... .. C ... : ... .. . ... ... : ... .. . ... ... : ... .. . ... ... : ... .. A ... ...
ROW 22 : ... .. D ... ... ... : ... .. D ... ... ... : B-2 00 . ... : ... .. 6 ... : ... .. . ... ... : ... .. . ... ... : ... .. . ... ... : ... .. 6 ... ...
ROW 23 : ... .. A ... ... ... : ... .. A ... ... ... : A#2 00 . ... : ... .. 3 ... : ... .. . ... ... : ... .. . ... ... : ... .. . ... ... : ... .. . ... ...
ROW 24 : ... .. . ... ... ... : ... .. . ... ... ... : F-2 00 . ... : ... .. 2 ... : ... .. . ... ... : ... .. . ... ... : ... .. . ... ... : ... .. . ... ...
ROW 25 : ... .. . ... ... ... : ... .. . ... ... ... : ... .. . ... : ... .. 0 ... : ... .. . ... ... : ... .. . ... ... : ... .. . ... ... : ... .. . ... ...
ROW 26 : ... .. . ... ... ... : ... .. . ... ... ... : ... .. . ... : ... .. . ... : ... .. . ... ... : ... .. . ... ... : ... .. . ... ... : ... .. . ... ...
ROW 27 : ... .. 2 ... ... ... : ... .. 2 ... ... ... : --- .. . ... : ... .. . ... : ... .. . ... ... : ... .. . ... ... : ... .. . ... ... : --- .. . P82 ...
ROW 28 : D#2 00 F ... ... ... : A#2 00 F ... ... ... : D#3 00 . ... : ... .. F ... : ... .. . ... ... : ... .. . ... ... : ... .. . ... ... : D#1 01 C P80 ...
ROW 29 : ... .. E ... ... ... : ... .. E ... ... ... : ... .. . ... : ... .. C ... : ... .. . ... ... : ... .. . ... ... : ... .. . ... ... : ... .. A ... ...
ROW 2A : ... .. D ... ... ... : ... .. D ... ... ... : ... .. . ... : ... .. 6 ... : ... .. . ... ... : ... .. . ... ... : ... .. . ... ... : ... .. 6 ... ...
ROW 2B : ... .. A ... ... ... : ... .. A ... ... ... : ... .. . ... : ... .. 3 ... : ... .. . ... ... : ... .. . ... ... : ... .. . ... ... : ... .. . ... ...
ROW 2C : ... .. . ... ... ... : ... .. . ... ... ... : ... .. . ... : ... .. 2 ... : ... .. . ... ... : ... .. . ... ... : ... .. . ... ... : ... .. . ... ...
ROW 2D : ... .. . ... ... ... : ... .. . ... ... ... : ... .. . ... : ... .. 0 ... : ... .. . ... ... : ... .. . ... ... : ... .. . ... ... : ... .. . ... ...
ROW 2E : ... .. . ... ... ... : ... .. . ... ... ... : ... .. . ... : ... .. . ... : ... .. . ... ... : ... .. . ... ... : ... .. . ... ... : ... .. . ... ...
ROW 2F : ... .. 2 ... ... ... : ... .. 2 ... ... ... : --- .. . ... : ... .. . ... : ... .. . ... ... : ... .. . ... ... : ... .. . ... ... : --- .. . P81 ...
ROW 30 : D-2 00 F ... ... ... : A-2 00 F ... ... ... : D-3 00 . ... : 5-# 00 F ... : ... .. . ... ... : ... .. . ... ... : ... .. . ... ... : D-1 01 C P80 ...
ROW 31 : ... .. E ... ... ... : ... .. E ... ... ... : ... .. . ... : ... .. C ... : ... .. . ... ... : ... .. . ... ... : ... .. . ... ... : ... .. A ... ...
ROW 32 : ... .. D ... ... ... : ... .. D ... ... ... : ... .. . ... : ... .. 6 ... : ... .. . ... ... : ... .. . ... ... : ... .. . ... ... : ... .. 6 ... ...
ROW 33 : ... .. A ... ... ... : ... .. A ... ... ... : ... .. . ... : ... .. 3 ... : ... .. . ... ... : ... .. . ... ... : ... .. . ... ... : ... .. . ... ...
ROW 34 : ... .. . ... ... ... : ... .. . ... ... ... : ... .. . ... : ... .. 2 ... : ... .. . ... ... : ... .. . ... ... : ... .. . ... ... : ... .. . ... ...
ROW 35 : ... .. . ... ... ... : ... .. . ... ... ... : ... .. . ... : ... .. 0 ... : ... .. . ... ... : ... .. . ... ... : ... .. . ... ... : ... .. . ... ...
ROW 36 : ... .. . ... ... ... : ... .. . ... ... ... : ... .. . ... : ... .. . ... : ... .. . ... ... : ... .. . ... ... : ... .. . ... ... : ... .. . ... ...
ROW 37 : ... .. 2 ... ... ... : ... .. 2 ... ... ... : --- .. . ... : ... .. . ... : ... .. . ... ... : ... .. . ... ... : ... .. . ... ... : --- .. . ... ...
ROW 38 : F-1 00 F ... ... ... : C-2 00 F ... ... ... : F-2 00 . ... : 1-# 00 F ... : ... .. . ... ... : ... .. . ... ... : ... .. . ... ... : F-0 01 C ... ...
ROW 39 : ... .. E ... ... ... : ... .. E ... ... ... : ... .. . ... : ... .. C ... : ... .. . ... ... : ... .. . ... ... : ... .. . ... ... : ... .. A ... ...
ROW 3A : ... .. D ... ... ... : ... .. D ... ... ... : ... .. . ... : ... .. 6 ... : ... .. . ... ... : ... .. . ... ... : ... .. . ... ... : ... .. 6 ... ...
ROW 3B : ... .. A ... ... ... : ... .. A ... ... ... : ... .. . ... : ... .. 3 ... : ... .. . ... ... : ... .. . ... ... : ... .. . ... ... : ... .. . ... ...
ROW 3C : ... .. . ... ... ... : ... .. . ... ... ... : ... .. . ... : ... .. 2 ... : ... .. . ... ... : ... .. . ... ... : ... .. . ... ... : ... .. . ... ...
ROW 3D : ... .. . ... ... ... : ... .. . ... ... ... : ... .. . ... : ... .. 0 ... : ... .. . ... ... : ... .. . ... ... : ... .. . ... ... : ... .. . ... ...
ROW 3E : ... .. . ... ... ... : ... .. . ... ... ... : ... .. . ... : ... .. . ... : ... .. . ... ... : ... .. . ... ... : ... .. . ... ... : ... .. . ... ...
ROW 3F : ... .. 2 ... ... ... : ... .. 2 ... ... ... : --- .. . ... : ... .. . ... : ... .. . ... ... : ... .. . ... ... : ... .. . ... ... : --- .. . P82 ...
ROW 40 : C-2 00 F ... ... ... : G-2 00 F ... ... ... : C-3 00 . ... : ... .. F ... : ... .. . ... ... : ... .. . ... ... : ... .. . ... ... : C-1 01 C P80 ...
ROW 41 : ... .. E ... ... ... : ... .. E ... ... ... : ... .. . ... : ... .. C ... : ... .. . ... ... : ... .. . ... ... : ... .. . ... ... : ... .. A ... ...
ROW 42 : ... .. D ... ... ... : ... .. D ... ... ... : ... .. . ... : ... .. 6 ... : ... .. . ... ... : ... .. . ... ... : ... .. . ... ... : ... .. 6 ... ...
ROW 43 : ... .. A ... ... ... : ... .. A ... ... ... : ... .. . ... : ... .. 3 ... : ... .. . ... ... : ... .. . ... ... : ... .. . ... ... : ... .. . ... ...
ROW 44 : ... .. . ... ... ... : ... .. . ... ... ... : ... .. . ... : ... .. 2 ... : ... .. . ... ... : ... .. . ... ... : ... .. . ... ... : ... .. . ... ...
ROW 45 : ... .. . ... ... ... : ... .. . ... ... ... : ... .. . ... : ... .. 0 ... : ... .. . ... ... : ... .. . ... ... : ... .. . ... ... : ... .. . ... ...
ROW 46 : ... .. . ... ... ... : ... .. . ... ... ... : ... .. . ... : ... .. . ... : ... .. . ... ... : ... .. . ... ... : ... .. . ... ... : ... .. . ... ...
ROW 47 : ... .. 2 ... ... ... : ... .. 2 ... ... ... : --- .. . ... : ... .. . ... : ... .. . ... ... : ... .. . ... ... : ... .. . ... ... : --- .. . ... ...
ROW 48 : B-1 00 F ... ... ... : F#2 00 F ... ... ... : B-2 00 . ... : ... .. F ... : ... .. . ... ... : ... .. . ... ... : ... .. . ... ... : B-0 01 C ... ...
ROW 49 : ... .. E ... ... ... : ... .. E ... ... ... : ... .. . ... : ... .. C ... : ... .. . ... ... : ... .. . ... ... : ... .. . ... ... : ... .. A ... ...
ROW 4A : ... .. D ... ... ... : ... .. D ... ... ... : ... .. . ... : ... .. 6 ... : ... .. . ... ... : ... .. . ... ... : ... .. . ... ... : ... .. 6 ... ...
ROW 4B : ... .. A ... ... ... : ... .. A ... ... ... : ... .. . ... : ... .. 3 ... : ... .. . ... ... : ... .. . ... ... : ... .. . ... ... : ... .. . ... ...
ROW 4C : ... .. . ... ... ... : ... .. . ... ... ... : ... .. . ... : ... .. 2 ... : ... .. . ... ... : ... .. . ... ... : ... .. . ... ... : ... .. . ... ...
ROW 4D : ... .. . ... ... ... : ... .. . ... ... ... : ... .. . ... : ... .. 0 ... : ... .. . ... ... : ... .. . ... ... : ... .. . ... ... : ... .. . ... ...
ROW 4E : ... .. . ... ... ... : ... .. . ... ... ... : ... .. . ... : ... .. . ... : ... .. . ... ... : ... .. . ... ... : ... .. . ... ... : ... .. . ... ...
ROW 4F : ... .. 2 ... ... ... : ... .. 2 ... ... ... : --- .. . ... : ... .. . ... : ... .. . ... ... : ... .. . ... ... : ... .. . ... ... : --- .. . ... ...
ROW 50 : F-1 00 F ... ... ... : C-2 00 F ... ... ... : F-2 00 . ... : 5-# 00 F ... : ... .. . ... ... : ... .. . ... ... : ... .. . ... ... : F-0 01 C ... ...
ROW 51 : ... .. E ... ... ... : ... .. E ... ... ... : ... .. . ... : ... .. C ... : ... .. . ... ... : ... .. . ... ... : ... .. . ... ... : ... .. A ... ...
ROW 52 : ... .. D ... ... ... : ... .. D ... ... ... : ... .. . ... : ... .. 6 ... : ... .. . ... ... : ... .. . ... ... : ... .. . ... ... : ... .. 6 ... ...
ROW 53 : ... .. A ... ... ... : ... .. A ... ... ... : ... .. . ... : ... .. 3 ... : ... .. . ... ... : ... .. . ... ... : ... .. . ... ... : ... .. . ... ...
ROW 54 : ... .. . ... ... ... : ... .. . ... ... ... : ... .. . ... : ... .. 2 ... : ... .. . ... ... : ... .. . ... ... : ... .. . ... ... : ... .. . ... ...
ROW 55 : ... .. . ... ... ... : ... .. . ... ... ... : ... .. . ... : ... .. 0 ... : ... .. . ... ... : ... .. . ... ... : ... .. . ... ... : ... .. . ... ...
ROW 56 : ... .. . ... ... ... : ... .. . ... ... ... : ... .. . ... : ... .. . ... : ... .. . ... ... : ... .. . ... ... : ... .. . ... ... : ... .. . ... ...
ROW 57 : ... .. 2 ... ... ... : ... .. 2 ... ... ... : --- .. . ... : ... .. . ... : ... .. . ... ... : ... .. . ... ... : ... .. . ... ... : --- .. . P82 ...
ROW 58 : D#2 00 F ... ... ... : A#2 00 F ... ... ... : D#3 00 . ... : 1-# 00 F ... : ... .. . ... ... : ... .. . ... ... : ... .. . ... ... : D#1 01 C P80 ...
ROW 59 : ... .. E ... ... ... : ... .. E ... ... ... : ... .. . ... : ... .. C ... : ... .. . ... ... : ... .. . ... ... : ... .. . ... ... : ... .. A ... ...
ROW 5A : ... .. D ... ... ... : ... .. D ... ... ... : ... .. . ... : ... .. 6 ... : ... .. . ... ... : ... .. . ... ... : ... .. . ... ... : ... .. 6 ... ...
ROW 5B : ... .. A ... ... ... : ... .. A ... ... ... : ... .. . ... : ... .. 3 ... : ... .. . ... ... : ... .. . ... ... : ... .. . ... ... : ... .. . ... ...
ROW 5C : ... .. . ... ... ... : ... .. . ... ... ... : ... .. . ... : ... .. 2 ... : ... .. . ... ... : ... .. . ... ... : ... .. . ... ... : ... .. . ... ...
ROW 5D : ... .. . ... ... ... : ... .. . ... ... ... : ... .. . ... : ... .. 0 ... : ... .. . ... ... : ... .. . ... ... : ... .. . ... ... : ... .. . ... ...
ROW 5E : ... .. . ... ... ... : ... .. . ... ... ... : ... .. . ... : ... .. . ... : ... .. . ... ... : ... .. . ... ... : ... .. . ... ... : ... .. . ... ...
ROW 5F : ... .. 2 ... ... ... : ... .. 2 ... ... ... : --- .. . ... : ... .. . ... : ... .. . ... ... : ... .. . ... ... : ... .. . ... ... : --- .. . P81 ...
ROW 60 : D-2 00 F ... ... ... : A-2 00 F ... ... ... : D-3 00 . ... : ... .. F ... : ... .. . ... ... : ... .. . ... ... : ... .. . ... ... : D-1 01 C P80 ...
ROW 61 : ... .. E ... ... ... : ... .. E ... ... ... : ... .. . ... : ... .. C ... : ... .. . ... ... : ... .. . ... ... : ... .. . ... ... : ... .. A ... ...
ROW 62 : ... .. D ... ... ... : ... .. D ... ... ... : ... .. . ... : ... .. 6 ... : ... .. . ... ... : ... .. . ... ... : ... .. . ... ... : ... .. 6 ... ...
ROW 63 : ... .. A ... ... ... : ... .. A ... ... ... : ... .. . ... : ... .. 3 ... : ... .. . ... ... : ... .. . ... ... : ... .. . ... ... : ... .. . ... ...
ROW 64 : ... .. . ... ... ... : ... .. . ... ... ... : ... .. . ... : ... .. 2 ... : ... .. . ... ... : ... .. . ... ... : ... .. . ... ... : ... .. . ... ...
ROW 65 : ... .. . ... ... ... : ... .. . ... ... ... : ... .. . ... : ... .. 0 ... : ... .. . ... ... : ... .. . ... ... : ... .. . ... ... : ... .. . ... ...
ROW 66 : ... .. . ... ... ... : ... .. . ... ... ... : ... .. . ... : ... .. . ... : ... .. . ... ... : ... .. . ... ... : ... .. . ... ... : ... .. . ... ...
ROW 67 : ... .. 2 ... ... ... : ... .. 2 ... ... ... : --- .. . ... : ... .. . ... : ... .. . ... ... : ... .. . ... ... : ... .. . ... ... : --- .. . ... ...
ROW 68 : F-1 00 F ... ... ... : C-2 00 F ... ... ... : F-2 00 . ... : ... .. F ... : ... .. . ... ... : ... .. . ... ... : ... .. . ... ... : F-0 01 C ... ...
ROW 69 : ... .. E ... ... ... : ... .. E ... ... ... : ... .. . ... : ... .. C ... : ... .. . ... ... : ... .. . ... ... : ... .. . ... ... : ... .. A ... ...
ROW 6A : ... .. D ... ... ... : ... .. D ... ... ... : ... .. . ... : ... .. 6 ... : ... .. . ... ... : ... .. . ... ... : ... .. . ... ... : ... .. 6 ... ...
ROW 6B : ... .. A ... ... ... : ... .. A ... ... ... : ... .. . ... : ... .. 3 ... : ... .. . ... ... : ... .. . ... ... : ... .. . ... ... : ... .. . ... ...
ROW 6C : ... .. . ... ... ... : ... .. . ... ... ... : ... .. . ... : ... .. 2 ... : ... .. . ... ... : ... .. . ... ... : ... .. . ... ... : ... .. . ... ...
ROW 6D : ... .. . ... ... ... : ... .. . ... ... ... : ... .. . ... : ... .. 0 ... : ... .. . ... ... : ... .. . ... ... : ... .. . ... ... : ... .. . ... ...
ROW 6E : ... .. . ... ... ... : ... .. . ... ... ... : ... .. . ... : ... .. . ... : ... .. . ... ... : ... .. . ... ... : ... .. . ... ... : ... .. . ... ...
ROW 6F : ... .. 2 ... ... ... : ... .. 2 ... ... ... : --- .. . ... : ... .. . ... : ... .. . ... ... : ... .. . ... ... : ... .. . ... ... : --- .. . P82 ...
ROW 70 : C-2 00 F ... ... ... : G-2 00 F ... ... ... : C-3 00 . ... : 5-# 00 F ... : ... .. . ... ... : ... .. . ... ... : ... .. . ... ... : C-1 01 C P80 ...
ROW 71 : ... .. E ... ... ... : ... .. E ... ... ... : ... .. . ... : ... .. C ... : ... .. . ... ... : ... .. . ... ... : ... .. . ... ... : ... .. A ... ...
ROW 72 : ... .. D ... ... ... : ... .. D ... ... ... : ... .. . ... : ... .. 6 ... : ... .. . ... ... : ... .. . ... ... : ... .. . ... ... : ... .. 6 ... ...
ROW 73 : ... .. A ... ... ... : ... .. A ... ... ... : ... .. . ... : ... .. 3 ... : ... .. . ... ... : ... .. . ... ... : ... .. . ... ... : ... .. . ... ...
ROW 74 : ... .. . ... ... ... : ... .. . ... ... ... : ... .. . ... : ... .. 2 ... : ... .. . ... ... : ... .. . ... ... : ... .. . ... ... : ... .. . ... ...
ROW 75 : ... .. . ... ... ... : ... .. . ... ... ... : ... .. . ... : ... .. 0 ... : ... .. . ... ... : ... .. . ... ... : ... .. . ... ... : ... .. . ... ...
ROW 76 : ... .. . ... ... ... : ... .. . ... ... ... : ... .. . ... : ... .. . ... : ... .. . ... ... : ... .. . ... ... : ... .. . ... ... : ... .. . ... ...
ROW 77 : ... .. 2 ... ... ... : ... .. 2 ... ... ... : --- .. . ... : ... .. . ... : ... .. . ... ... : ... .. . ... ... : ... .. . ... ... : --- .. . ... ...
ROW 78 : B-1 00 F ... ... ... : F#2 00 F ... ... ... : B-2 00 . ... : 1-# 00 F ... : ... .. . ... ... : ... .. . ... ... : ... .. . ... ... : B-0 01 C ... ...
ROW 79 : ... .. E ... ... ... : ... .. E ... ... ... : ... .. . ... : ... .. C ... : ... .. . ... ... : ... .. . ... ... : ... .. . ... ... : ... .. A ... ...
ROW 7A : ... .. D ... ... ... : ... .. D ... ... ... : ... .. . ... : ... .. 6 ... : ... .. . ... ... : ... .. . ... ... : ... .. . ... ... : ... .. 6 ... ...
ROW 7B : ... .. A ... ... ... : ... .. A ... ... ... : ... .. . ... : ... .. 3 ... : ... .. . ... ... : ... .. . ... ... : ... .. . ... ... : ... .. . ... ...
ROW 7C : ... .. . ... ... ... : ... .. . ... ... ... : ... .. . ... : ... .. 2 ... : ... .. . ... ... : ... .. . ... ... : ... .. . ... ... : ... .. . ... ...
ROW 7D : ... .. . ... ... ... : ... .. . ... ... ... : ... .. . ... : ... .. 0 ... : ... .. . ... ... : ... .. . ... ... : ... .. . ... ... : ... .. . ... ...
ROW 7E : ... .. . ... ... ... : ... .. . ... ... ... : ... .. . ... : ... .. . ... : ... .. . ... ... : ... .. . ... ... : ... .. . ... ... : ... .. . ... ...
ROW 7F : ... .. 2 ... ... ... : ... .. 2 ... ... ... : --- .. . ... : ... .. . ... : ... .. . ... ... : ... .. . ... ... : ... .. . ... ... : --- .. . ... ...
ROW 80 : G#3 00 F ... ... ... : D#4 00 F ... ... ... : G-5 00 . ... : ... .. F ... : ... .. . ... ... : ... .. . ... ... : ... .. . ... ... : G#1 01 C ... ...
ROW 81 : ... .. E ... ... ... : ... .. E ... ... ... : A-4 00 . ... : ... .. C ... : ... .. . ... ... : ... .. . ... ... : ... .. . ... ... : ... .. A ... ...
ROW 82 : ... .. D ... ... ... : ... .. D ... ... ... : D-4 00 . ... : ... .. 6 ... : ... .. . ... ... : ... .. . ... ... : ... .. . ... ... : ... .. 6 P60 ...
ROW 83 : ... .. A ... ... ... : ... .. A ... ... ... : C#4 00 . ... : ... .. 3 ... : ... .. . ... ... : ... .. . ... ... : ... .. . ... ... : G-1 01 6 P8A ...
ROW 84 : D#3 00 F ... ... ... : A#3 00 F ... ... ... : G#3 00 . ... : ... .. 2 ... : ... .. . ... ... : ... .. . ... ... : ... .. . ... ... : ... .. . P6A ...
ROW 85 : ... .. E ... ... ... : ... .. E ... ... ... : ... .. . ... : ... .. 0 ... : ... .. . ... ... : ... .. . ... ... : ... .. . ... ... : F#1 01 6 P97 ...
ROW 86 : ... .. A ... ... ... : ... .. A ... ... ... : F#3 00 . P81 : ... .. . ... : ... .. . ... ... : ... .. . ... ... : ... .. . ... ... : ... .. . P77 ...
ROW 87 : ... .. 2 ... ... ... : ... .. 2 ... ... ... : E-3 00 . P86 : ... .. . ... : ... .. . ... ... : ... .. . ... ... : ... .. . ... ... : F-1 01 6 PA9 ...
ROW 88 : B-2 00 F ... ... ... : F#3 00 F ... ... ... : D#3 00 . P7B : ... .. F ... : ... .. . ... ... : ... .. . ... ... : ... .. . ... ... : ... .. . P89 ...
ROW 89 : ... .. E ... ... ... : ... .. E ... ... ... : C#3 00 . P87 : ... .. C ... : ... .. . ... ... : ... .. . ... ... : ... .. . ... ... : ... .. . P69 ...
ROW 8A : ... .. A ... ... ... : ... .. A ... ... ... : C-3 00 . P7F : ... .. 6 ... : ... .. . ... ... : ... .. . ... ... : ... .. . ... ... : E-1 01 6 PA0 ...
ROW 8B : ... .. 2 ... ... ... : ... .. 2 ... ... ... : B-2 00 . P78 : ... .. 3 ... : ... .. . ... ... : ... .. . ... ... : ... .. . ... ... : ... .. . P80 ...
ROW 8C : G#2 00 F ... ... ... : D#3 00 F ... ... ... : A#2 00 . P73 : ... .. F ... : ... .. . ... ... : ... .. . ... ... : ... .. . ... ... : ... .. . P60 ...
ROW 8D : ... .. E ... ... ... : ... .. E ... ... ... : G#2 00 . P8E : ... .. C ... : ... .. . ... ... : ... .. . ... ... : ... .. . ... ... : D#1 01 6 P9D ...
ROW 8E : ... .. A ... ... ... : ... .. A ... ... ... : G-2 00 . ... : ... .. 6 ... : ... .. . ... ... : ... .. . ... ... : ... .. . ... ... : ... .. . P7D ...
ROW 8F : ... .. 2 ... ... ... : ... .. 2 ... ... ... : F#2 00 . P90 : ... .. 3 ... : ... .. . ... ... : ... .. . ... ... : ... .. . ... ... : ... .. . P5D ...
ROW 90 : D#2 00 F ... ... ... : A#2 00 F ... ... ... : ... .. . P70 : 5-# 00 F ... : ... .. . ... ... : ... .. . ... ... : ... .. . ... ... : D-1 01 6 P9E ...
ROW 91 : ... .. E ... ... ... : ... .. E ... ... ... : F-2 00 . P74 : ... .. C ... : ... .. . ... ... : ... .. . ... ... : ... .. . ... ... : ... .. . P7E ...
ROW 92 : ... .. D ... ... ... : ... .. D ... ... ... : E-2 00 . P7A : ... .. 6 ... : ... .. . ... ... : ... .. . ... ... : ... .. . ... ... : ... .. . P5E ...
ROW 93 : ... .. A ... ... ... : ... .. A ... ... ... : D#2 00 . P82 : ... .. 3 ... : ... .. . ... ... : ... .. . ... ... : ... .. . ... ... : C#1 01 6 PA6 ...
ROW 94 : B-1 00 F ... ... ... : F#2 00 F ... ... ... : D-2 00 . P8D : ... .. 2 ... : ... .. . ... ... : ... .. . ... ... : ... .. . ... ... : ... .. . P86 ...
ROW 95 : ... .. E ... ... ... : ... .. E ... ... ... : ... .. . P6D : ... .. 0 ... : ... .. . ... ... : ... .. . ... ... : ... .. . ... ... : ... .. . P66 ...
ROW 96 : ... .. A ... ... ... : ... .. A ... ... ... : C#2 00 . P7A : ... .. . ... : ... .. . ... ... : ... .. . ... ... : ... .. . ... ... : C-1 01 6 PB4 ...
ROW 97 : ... .. 2 ... ... ... : ... .. 2 ... ... ... : C-2 00 . P8A : ... .. . ... : ... .. . ... ... : ... .. . ... ... : ... .. . ... ... : ... .. . P94 ...
ROW 98 : G#1 00 F ... ... ... : D#2 00 F ... ... ... : ... .. . P6A : C-# 00 F ... : ... .. . ... ... : ... .. . ... ... : ... .. . ... ... : ... .. . P74 ...
ROW 99 : ... .. E ... ... ... : ... .. E ... ... ... : B-1 00 . P7D : ... .. C ... : ... .. . ... ... : ... .. . ... ... : ... .. . ... ... : ... .. . P54 ...
ROW 9A : ... .. A ... ... ... : ... .. A ... ... ... : A#1 00 . P93 : ... .. 6 ... : ... .. . ... ... : ... .. . ... ... : ... .. . ... ... : B-0 01 6 PA8 ...
ROW 9B : ... .. 2 ... ... ... : ... .. 2 ... ... ... : ... .. . P73 : ... .. 3 ... : ... .. . ... ... : ... .. . ... ... : ... .. . ... ... : ... .. . P88 ...
ROW 9C : D#1 00 F ... ... ... : A#1 00 F ... ... ... : A-1 00 . P8C : ... .. F ... : ... .. . ... ... : ... .. . ... ... : ... .. . ... ... : ... .. . P68 ...
ROW 9D : ... .. E ... ... ... : ... .. E ... ... ... : ... .. . P6C : ... .. C ... : ... .. . ... ... : ... .. . ... ... : ... .. . ... ... : ... .. . P48 ...
ROW 9E : ... .. A ... ... ... : ... .. A ... ... ... : G#1 00 . P88 : ... .. 6 ... : ... .. . ... ... : ... .. . ... ... : ... .. . ... ... : A#0 01 6 PA3 ...
ROW 9F : ... .. 2 ... ... ... : ... .. 2 ... ... ... : ... .. . P68 : ... .. 3 ... : ... .. . ... ... : ... .. . ... ... : ... .. . ... ... : ... .. . P83 ...
ROW A0 : F-1 00 F ... ... ... : C-2 00 F ... ... ... : E-4 00 . P80 : 1-# 00 F ... : ... .. . ... ... : ... .. . ... ... : ... .. . ... ... : F-0 01 C P80 ...
ROW A1 : ... .. E ... ... ... : ... .. E ... ... ... : F#3 00 . ... : ... .. C ... : ... .. . ... ... : ... .. . ... ... : ... .. . ... ... : ... .. A ... ...
ROW A2 : ... .. D ... ... ... : ... .. D ... ... ... : B-2 00 . ... : ... .. 6 ... : ... .. . ... ... : ... .. . ... ... : ... .. . ... ... : ... .. 6 ... ...
ROW A3 : ... .. A ... ... ... : ... .. A ... ... ... : A#2 00 . ... : ... .. 3 ... : ... .. . ... ... : ... .. . ... ... : ... .. . ... ... : ... .. . ... ...
ROW A4 : ... .. F ... ... ... : ... .. F ... ... ... : F-2 00 . ... : ... .. 2 ... : ... .. . ... ... : ... .. . ... ... : ... .. . ... ... : ... .. . ... ...
ROW A5 : ... .. E ... ... ... : ... .. E ... ... ... : ... .. . ... : ... .. 0 ... : ... .. . ... ... : ... .. . ... ... : ... .. . ... ... : ... .. . ... ...
ROW A6 : ... .. D ... ... ... : ... .. D ... ... ... : ... .. . ... : ... .. . ... : ... .. . ... ... : ... .. . ... ... : ... .. . ... ... : ... .. . ... ...
ROW A7 : ... .. A ... ... ... : ... .. A ... ... ... : --- .. . ... : ... .. . ... : ... .. . ... ... : ... .. . ... ... : ... .. . ... ... : --- .. . P82 ...
ROW A8 : D#2 00 F ... ... ... : A#2 00 F ... ... ... : D#3 00 . ... : ... .. F ... : ... .. . ... ... : ... .. . ... ... : ... .. . ... ... : D#1 01 C P80 ...
ROW A9 : ... .. E ... ... ... : ... .. E ... ... ... : ... .. . ... : ... .. C ... : ... .. . ... ... : ... .. . ... ... : ... .. . ... ... : ... .. A ... ...
ROW AA : ... .. D ... ... ... : ... .. D ... ... ... : ... .. . ... : ... .. 6 ... : ... .. . ... ... : ... .. . ... ... : ... .. . ... ... : ... .. 6 ... ...
ROW AB : ... .. A ... ... ... : ... .. A ... ... ... : ... .. . ... : ... .. 3 ... : ... .. . ... ... : ... .. . ... ... : ... .. . ... ... : ... .. . ... ...
ROW AC : ... .. . ... ... ... : ... .. . ... ... ... : ... .. . ... : ... .. 2 ... : ... .. . ... ... : ... .. . ... ... : ... .. . ... ... : ... .. . ... ...
ROW AD : ... .. . ... ... ... : ... .. . ... ... ... : ... .. . ... : ... .. 0 ... : ... .. . ... ... : ... .. . ... ... : ... .. . ... ... : ... .. . ... ...
ROW AE : ... .. . ... ... ... : ... .. . ... ... ... : ... .. . ... : ... .. . ... : ... .. . ... ... : ... .. . ... ... : ... .. . ... ... : ... .. . ... ...
ROW AF : ... .. . ... ... ... : ... .. . ... ... ... : --- .. . ... : ... .. . ... : ... .. . ... ... : ... .. . ... ... : ... .. . ... ... : --- .. . P81 ...
ROW B0 : D-2 00 F ... ... ... : A-2 00 F ... ... ... : D-3 00 . ... : 5-# 00 F ... : ... .. . ... ... : ... .. . ... ... : ... .. . ... ... : D-1 01 C P80 ...
ROW B1 : ... .. E ... ... ... : ... .. E ... ... ... : ... .. . ... : ... .. C ... : ... .. . ... ... : ... .. . ... ... : ... .. . ... ... : ... .. A ... ...
ROW B2 : ... .. D ... ... ... : ... .. D ... ... ... : ... .. . ... : ... .. 6 ... : ... .. . ... ... : ... .. . ... ... : ... .. . ... ... : ... .. 6 ... ...
ROW B3 : ... .. A ... ... ... : ... .. A ... ... ... : ... .. . ... : ... .. 3 ... : ... .. . ... ... : ... .. . ... ... : ... .. . ... ... : ... .. . ... ...
ROW B4 : ... .. . ... ... ... : ... .. . ... ... ... : ... .. . ... : ... .. 2 ... : ... .. . ... ... : ... .. . ... ... : ... .. . ... ... : ... .. . ... ...
ROW B5 : ... .. . ... ... ... : ... .. . ... ... ... : ... .. . ... : ... .. 0 ... : ... .. . ... ... : ... .. . ... ... : ... .. . ... ... : ... .. . ... ...
ROW B6 : ... .. . ... ... ... : ... .. . ... ... ... : ... .. . ... : ... .. . ... : ... .. . ... ... : ... .. . ... ... : ... .. . ... ... : ... .. . ... ...
ROW B7 : ... .. . ... ... ... : ... .. . ... ... ... : --- .. . ... : ... .. . ... : ... .. . ... ... : ... .. . ... ... : ... .. . ... ... : --- .. . ... ...
ROW B8 : F-1 00 F ... ... ... : C-2 00 F ... ... ... : F-2 00 . ... : 1-# 00 F ... : ... .. . ... ... : ... .. . ... ... : ... .. . ... ... : F-0 01 C ... ...
ROW B9 : ... .. E ... ... ... : ... .. E ... ... ... : ... .. . ... : ... .. C ... : ... .. . ... ... : ... .. . ... ... : ... .. . ... ... : ... .. A ... ...
ROW BA : ... .. A ... ... ... : ... .. A ... ... ... : ... .. . ... : ... .. 6 ... : ... .. . ... ... : ... .. . ... ... : ... .. . ... ... : ... .. 6 ... ...
ROW BB : ... .. 2 ... ... ... : ... .. 2 ... ... ... : ... .. . ... : ... .. 3 ... : ... .. . ... ... : ... .. . ... ... : ... .. . ... ... : ... .. . ... ...
ROW BC : ... .. F ... ... ... : ... .. F ... ... ... : ... .. . ... : ... .. 2 ... : ... .. . ... ... : ... .. . ... ... : ... .. . ... ... : ... .. . ... ...
ROW BD : ... .. E ... ... ... : ... .. E ... ... ... : ... .. . ... : ... .. 0 ... : ... .. . ... ... : ... .. . ... ... : ... .. . ... ... : ... .. . ... ...
ROW BE : ... .. A ... ... ... : ... .. A ... ... ... : ... .. . ... : ... .. . ... : ... .. . ... ... : ... .. . ... ... : ... .. . ... ... : ... .. . ... ...
ROW BF : ... .. 2 ... ... ... : ... .. 2 ... ... ... : --- .. . ... : ... .. . ... : ... .. . ... ... : ... .. . ... ... : ... .. . ... ... : --- .. . P82 ...
ROW C0 : C-2 00 F ... ... ... : G-2 00 F ... ... ... : C-3 00 . ... : ... .. F ... : ... .. . ... ... : ... .. . ... ... : ... .. . ... ... : C-1 01 C P80 ...
ROW C1 : ... .. E ... ... ... : ... .. E ... ... ... : ... .. . ... : ... .. C ... : ... .. . ... ... : ... .. . ... ... : ... .. . ... ... : ... .. A ... ...
ROW C2 : ... .. D ... ... ... : ... .. D ... ... ... : ... .. . ... : ... .. 6 ... : ... .. . ... ... : ... .. . ... ... : ... .. . ... ... : ... .. 6 ... ...
ROW C3 : ... .. A ... ... ... : ... .. A ... ... ... : ... .. . ... : ... .. 3 ... : ... .. . ... ... : ... .. . ... ... : ... .. . ... ... : ... .. . ... ...
ROW C4 : ... .. . ... ... ... : ... .. . ... ... ... : ... .. . ... : ... .. 2 ... : ... .. . ... ... : ... .. . ... ... : ... .. . ... ... : ... .. . ... ...
ROW C5 : ... .. . ... ... ... : ... .. . ... ... ... : ... .. . ... : ... .. 0 ... : ... .. . ... ... : ... .. . ... ... : ... .. . ... ... : ... .. . ... ...
ROW C6 : ... .. . ... ... ... : ... .. . ... ... ... : ... .. . ... : ... .. . ... : ... .. . ... ... : ... .. . ... ... : ... .. . ... ... : ... .. . ... ...
ROW C7 : ... .. 2 ... ... ... : ... .. 2 ... ... ... : --- .. . ... : ... .. . ... : ... .. . ... ... : ... .. . ... ... : ... .. . ... ... : --- .. . ... ...
ROW C8 : B-1 00 F ... ... ... : F#2 00 F ... ... ... : B-2 00 . ... : ... .. F ... : ... .. . ... ... : ... .. . ... ... : ... .. . ... ... : B-0 01 C ... ...
ROW C9 : ... .. E ... ... ... : ... .. E ... ... ... : ... .. . ... : ... .. C ... : ... .. . ... ... : ... .. . ... ... : ... .. . ... ... : ... .. A ... ...
ROW CA : ... .. D ... ... ... : ... .. D ... ... ... : ... .. . ... : ... .. 6 ... : ... .. . ... ... : ... .. . ... ... : ... .. . ... ... : ... .. 6 ... ...
ROW CB : ... .. A ... ... ... : ... .. A ... ... ... : ... .. . ... : ... .. 3 ... : ... .. . ... ... : ... .. . ... ... : ... .. . ... ... : ... .. . ... ...
ROW CC : ... .. . ... ... ... : ... .. . ... ... ... : ... .. . ... : ... .. 2 ... : ... .. . ... ... : ... .. . ... ... : ... .. . ... ... : ... .. . ... ...
ROW CD : ... .. . ... ... ... : ... .. . ... ... ... : ... .. . ... : ... .. 0 ... : ... .. . ... ... : ... .. . ... ... : ... .. . ... ... : ... .. . ... ...
ROW CE : ... .. . ... ... ... : ... .. . ... ... ... : ... .. . ... : ... .. . ... : ... .. . ... ... : ... .. . ... ... : ... .. . ... ... : ... .. . ... ...
ROW CF : ... .. 2 ... ... ... : ... .. 2 ... ... ... : --- .. . ... : ... .. . ... : ... .. . ... ... : ... .. . ... ... : ... .. . ... ... : --- .. . ... ...
ROW D0 : F-1 00 F ... ... ... : C-2 00 F ... ... ... : F-2 00 . ... : 5-# 00 F ... : ... .. . ... ... : ... .. . ... ... : ... .. . ... ... : F-0 01 C ... ...
ROW D1 : ... .. E ... ... ... : ... .. E ... ... ... : ... .. . ... : ... .. C ... : ... .. . ... ... : ... .. . ... ... : ... .. . ... ... : ... .. A ... ...
ROW D2 : ... .. A ... ... ... : ... .. A ... ... ... : ... .. . ... : ... .. 6 ... : ... .. . ... ... : ... .. . ... ... : ... .. . ... ... : ... .. 6 ... ...
ROW D3 : ... .. 2 ... ... ... : ... .. 2 ... ... ... : ... .. . ... : ... .. 3 ... : ... .. . ... ... : ... .. . ... ... : ... .. . ... ... : ... .. . ... ...
ROW D4 : ... .. F ... ... ... : ... .. F ... ... ... : ... .. . ... : ... .. 2 ... : ... .. . ... ... : ... .. . ... ... : ... .. . ... ... : ... .. . ... ...
ROW D5 : ... .. E ... ... ... : ... .. E ... ... ... : ... .. . ... : ... .. 0 ... : ... .. . ... ... : ... .. . ... ... : ... .. . ... ... : ... .. . ... ...
ROW D6 : ... .. A ... ... ... : ... .. A ... ... ... : ... .. . ... : ... .. . ... : ... .. . ... ... : ... .. . ... ... : ... .. . ... ... : ... .. . ... ...
ROW D7 : ... .. 2 ... ... ... : ... .. 2 ... ... ... : --- .. . ... : ... .. . ... : ... .. . ... ... : ... .. . ... ... : ... .. . ... ... : --- .. . P82 ...
ROW D8 : D#2 00 F ... ... ... : A#2 00 F ... ... ... : D#3 00 . ... : 1-# 00 F ... : ... .. . ... ... : ... .. . ... ... : ... .. . ... ... : D#1 01 C P80 ...
ROW D9 : ... .. E ... ... ... : ... .. E ... ... ... : ... .. . ... : ... .. C ... : ... .. . ... ... : ... .. . ... ... : ... .. . ... ... : ... .. A ... ...
ROW DA : ... .. D ... ... ... : ... .. D ... ... ... : ... .. . ... : ... .. 6 ... : ... .. . ... ... : ... .. . ... ... : ... .. . ... ... : ... .. 6 ... ...
ROW DB : ... .. A ... ... ... : ... .. A ... ... ... : ... .. . ... : ... .. 3 ... : ... .. . ... ... : ... .. . ... ... : ... .. . ... ... : ... .. . ... ...
ROW DC : ... .. . ... ... ... : ... .. . ... ... ... : ... .. . ... : ... .. 2 ... : ... .. . ... ... : ... .. . ... ... : ... .. . ... ... : ... .. . ... ...
ROW DD : ... .. . ... ... ... : ... .. . ... ... ... : ... .. . ... : ... .. 0 ... : ... .. . ... ... : ... .. . ... ... : ... .. . ... ... : ... .. . ... ...
ROW DE : ... .. . ... ... ... : ... .. . ... ... ... : ... .. . ... : ... .. . ... : ... .. . ... ... : ... .. . ... ... : ... .. . ... ... : ... .. . ... ...
ROW DF : ... .. 2 ... ... ... : ... .. 2 ... ... ... : --- .. . ... : ... .. . ... : ... .. . ... ... : ... .. . ... ... : ... .. . ... ... : --- .. . P81 ...
ROW E0 : B-1 00 F ... ... ... : F#2 00 F ... ... ... : A#3 00 . ... : ... .. F ... : ... .. . ... ... : ... .. . ... ... : ... .. . ... ... : B-0 01 C P80 ...
ROW E1 : ... .. E ... ... ... : ... .. E ... ... ... : C-3 00 . ... : ... .. C ... : ... .. . ... ... : ... .. . ... ... : ... .. . ... ... : ... .. A ... ...
ROW E2 : ... .. D ... ... ... : ... .. D ... ... ... : F-2 00 . ... : ... .. 6 ... : ... .. . ... ... : ... .. . ... ... : ... .. . ... ... : ... .. 6 ... ...
ROW E3 : ... .. A ... ... ... : ... .. A ... ... ... : E-2 00 . ... : ... .. 3 ... : ... .. . ... ... : ... .. . ... ... : ... .. . ... ... : ... .. . ... ...
ROW E4 : ... .. . ... ... ... : ... .. . ... ... ... : B-1 00 . ... : ... .. 2 ... : ... .. . ... ... : ... .. . ... ... : ... .. . ... ... : ... .. . ... ...
ROW E5 : ... .. . ... ... ... : ... .. . ... ... ... : ... .. . ... : ... .. 0 ... : ... .. . ... ... : ... .. . ... ... : ... .. . ... ... : ... .. . ... ...
ROW E6 : ... .. . ... ... ... : ... .. . ... ... ... : ... .. . ... : ... .. . ... : ... .. . ... ... : ... .. . ... ... : ... .. . ... ... : ... .. . ... ...
ROW E7 : ... .. 2 ... ... ... : ... .. 2 ... ... ... : --- .. . ... : ... .. . ... : ... .. . ... ... : ... .. . ... ... : ... .. . ... ... : --- .. . ... ...
ROW E8 : F#2 00 F ... ... ... : C#3 00 F ... ... ... : F-4 00 . ... : ... .. F ... : ... .. . ... ... : ... .. . ... ... : ... .. . ... ... : F#0 01 C ... ...
ROW E9 : ... .. E ... ... ... : ... .. E ... ... ... : G-3 00 . ... : ... .. C ... : ... .. . ... ... : ... .. . ... ... : ... .. . ... ... : ... .. A ... ...
ROW EA : ... .. D ... ... ... : ... .. D ... ... ... : C-3 00 . ... : ... .. 6 ... : ... .. . ... ... : ... .. . ... ... : ... .. . ... ... : ... .. 6 ... ...
ROW EB : ... .. A ... ... ... : ... .. A ... ... ... : B-2 00 . ... : ... .. 3 ... : ... .. . ... ... : ... .. . ... ... : ... .. . ... ... : ... .. . ... ...
ROW EC : ... .. F ... ... ... : ... .. F ... ... ... : F#2 00 . ... : ... .. 2 ... : ... .. . ... ... : ... .. . ... ... : ... .. . ... ... : ... .. . ... ...
ROW ED : ... .. E ... ... ... : ... .. E ... ... ... : ... .. . ... : ... .. 0 ... : ... .. . ... ... : ... .. . ... ... : ... .. . ... ... : ... .. . ... ...
ROW EE : ... .. D ... ... ... : ... .. D ... ... ... : ... .. . ... : ... .. . ... : ... .. . ... ... : ... .. . ... ... : ... .. . ... ... : ... .. . ... ...
ROW EF : ... .. 0 ... ... ... : ... .. 0 ... ... ... : --- .. . ... : ... .. . ... : ... .. . ... ... : ... .. . ... ... : ... .. . ... ... : --- .. . P81 ...
ROW F0 : E-2 00 F P80 ... ... : B-2 00 F P80 ... ... : D#4 00 . ... : 8-# 00 F ... : ... .. . ... ... : ... .. . ... ... : ... .. . ... ... : E-0 01 C P80 ...
ROW F1 : ... .. E ... ... ... : ... .. E ... ... ... : F-3 00 . ... : ... .. C ... : ... .. . ... ... : ... .. . ... ... : ... .. . ... ... : ... .. A ... ...
ROW F2 : ... .. D ... ... ... : ... .. D ... ... ... : A#2 00 . ... : ... .. 6 ... : ... .. . ... ... : ... .. . ... ... : ... .. . ... ... : ... .. 6 ... ...
ROW F3 : ... .. 0 ... ... ... : ... .. 0 ... ... ... : A-2 00 . ... : ... .. 3 ... : ... .. . ... ... : ... .. . ... ... : ... .. . ... ... : ... .. . ... ...
ROW F4 : E-2 00 F P80 ... ... : B-2 00 F P80 ... ... : E-2 00 . ... : ... .. F ... : ... .. . ... ... : ... .. . ... ... : ... .. . ... ... : ... .. . ... ...
ROW F5 : ... .. E ... ... ... : ... .. E ... ... ... : ... .. . ... : ... .. C ... : ... .. . ... ... : ... .. . ... ... : ... .. . ... ... : ... .. . ... ...
ROW F6 : ... .. D ... ... ... : ... .. D ... ... ... : ... .. . ... : ... .. 6 ... : ... .. . ... ... : ... .. . ... ... : ... .. . ... ... : ... .. . ... ...
ROW F7 : ... .. 0 ... ... ... : ... .. 0 ... ... ... : ... .. . ... : ... .. 3 ... : ... .. . ... ... : ... .. . ... ... : ... .. . ... ... : ... .. . ... ...
ROW F8 : B-2 00 F P80 ... ... : F#3 00 F P80 ... ... : A#4 00 . ... : 1-# 00 F ... : ... .. . ... ... : ... .. . ... ... : ... .. . ... ... : B-0 01 C ... ...
ROW F9 : ... .. E ... ... ... : ... .. E ... ... ... : C-4 00 . ... : ... .. C ... : ... .. . ... ... : ... .. . ... ... : ... .. . ... ... : ... .. A ... ...
ROW FA : ... .. D ... ... ... : ... .. D ... ... ... : F-3 00 . ... : ... .. 6 ... : ... .. . ... ... : ... .. . ... ... : ... .. . ... ... : ... .. 6 ... ...
ROW FB : ... .. 0 ... ... ... : ... .. 0 ... ... ... : E-3 00 . ... : ... .. 3 ... : ... .. . ... ... : ... .. . ... ... : ... .. . ... ... : ... .. . ... ...
ROW FC : B-2 00 F P80 ... ... : F#3 00 F P80 ... ... : B-2 00 . ... : ... .. F ... : ... .. . ... ... : ... .. . ... ... : ... .. . ... ... : ... .. . ... ...
ROW FD : ... .. E ... ... ... : ... .. E ... ... ... : ... .. . ... : ... .. C ... : ... .. . ... ... : ... .. . ... ... : ... .. . ... ... : ... .. . ... ...
ROW FE : ... .. D ... ... ... : ... .. D ... ... ... : ... .. . ... : ... .. 6 ... : ... .. . ... ... : ... .. . ... ... : ... .. . ... ... : ... .. . ... ...
ROW FF : ... .. 0 ... ... ... : ... .. 0 ... ... ... : ... .. . ... : ... .. 3 ... : ... .. . ... ... : ... .. . ... ... : ... .. . ... ... : ... .. . ... ...

PATTERN 10
ROW 00 : A-2 00 F P80 ... ... : E-3 00 F P80 ... ... : G#4 00 . ... : 4-# 00 F ... : ... .. . ... ... : ... .. . ... ... : ... .. . ... ... : A-0 01 C ... ...
ROW 01 : ... .. E ... ... ... : ... .. E ... ... ... : A#3 00 . ... : ... .. C ... : ... .. . ... ... : ... .. . ... ... : ... .. . ... ... : ... .. A ... ...
ROW 02 : ... .. D ... ... ... : ... .. D ... ... ... : D#3 00 . ... : ... .. 6 ... : ... .. . ... ... : ... .. . ... ... : ... .. . ... ... : ... .. 6 ... ...
ROW 03 : ... .. 0 ... ... ... : ... .. 0 ... ... ... : D-3 00 . ... : ... .. 3 ... : ... .. . ... ... : ... .. . ... ... : ... .. . ... ... : ... .. . ... ...
ROW 04 : A-2 00 F P80 ... ... : E-3 00 F P80 ... ... : A-2 00 . ... : 6-# 00 F ... : ... .. . ... ... : ... .. . ... ... : ... .. . ... ... : ... .. . ... ...
ROW 05 : ... .. E ... ... ... : ... .. E ... ... ... : ... .. . ... : ... .. C ... : ... .. . ... ... : ... .. . ... ... : ... .. . ... ... : ... .. . ... ...
ROW 06 : ... .. D ... ... ... : ... .. D ... ... ... : ... .. . ... : ... .. 6 ... : ... .. . ... ... : ... .. . ... ... : ... .. . ... ... : ... .. . ... ...
ROW 07 : ... .. 0 ... ... ... : ... .. 0 ... ... ... : ... .. . ... : ... .. 3 ... : ... .. . ... ... : ... .. . ... ... : ... .. . ... ... : ... .. . ... ...
ROW 08 : D-3 00 F P80 ... ... : A-3 00 F P80 ... ... : C#5 00 . ... : 8-# 00 F ... : ... .. . ... ... : ... .. . ... ... : ... .. . ... ... : D-1 01 C ... ...
ROW 09 : ... .. E ... ... ... : ... .. E ... ... ... : D#4 00 . ... : ... .. C ... : ... .. . ... ... : ... .. . ... ... : ... .. . ... ... : ... .. A ... ...
ROW 0A : ... .. D ... ... ... : ... .. D ... ... ... : G#3 00 . ... : ... .. 6 ... : ... .. . ... ... : ... .. . ... ... : ... .. . ... ... : ... .. 6 ... ...
ROW 0B : ... .. 0 ... ... ... : ... .. 0 ... ... ... : G-3 00 . ... : ... .. 3 ... : ... .. . ... ... : ... .. . ... ... : ... .. . ... ... : ... .. . ... ...
ROW 0C : D-3 00 F P80 ... ... : A-3 00 F P80 ... ... : D-3 00 . ... : 9-# 00 F ... : ... .. . ... ... : ... .. . ... ... : ... .. . ... ... : ... .. . ... ...
ROW 0D : ... .. E ... ... ... : ... .. E ... ... ... : ... .. . ... : ... .. C ... : ... .. . ... ... : ... .. . ... ... : ... .. . ... ... : ... .. . ... ...
ROW 0E : ... .. D ... ... ... : ... .. D ... ... ... : ... .. . ... : ... .. 6 ... : ... .. . ... ... : ... .. . ... ... : ... .. . ... ... : ... .. . ... ...
ROW 0F : ... .. 0 ... ... ... : ... .. 0 ... ... ... : ... .. . ... : ... .. 3 ... : ... .. . ... ... : ... .. . ... ... : ... .. . ... ... : ... .. . ... ...
ROW 10 : C-3 00 F P80 ... ... : G-3 00 F P80 ... ... : B-4 00 . ... : B-# 00 F ... : ... .. . ... ... : ... .. . ... ... : ... .. . ... ... : C-1 01 C ... ...
ROW 11 : ... .. E ... ... ... : ... .. E ... ... ... : C#4 00 . ... : ... .. C ... : ... .. . ... ... : ... .. . ... ... : ... .. . ... ... : ... .. A ... ...
ROW 12 : ... .. D ... ... ... : ... .. D ... ... ... : F#3 00 . ... : ... .. 6 ... : ... .. . ... ... : ... .. . ... ... : ... .. . ... ... : ... .. 6 ... ...
ROW 13 : ... .. 0 ... ... ... : ... .. 0 ... ... ... : F-3 00 . ... : ... .. 3 ... : ... .. . ... ... : ... .. . ... ... : ... .. . ... ... : ... .. . ... ...
ROW 14 : C-3 00 F P80 ... ... : G-3 00 F P80 ... ... : C-3 00 . ... : D-# 00 F ... : ... .. . ... ... : ... .. . ... ... : ... .. . ... ... : ... .. . ... ...
ROW 15 : ... .. E ... ... ... : ... .. E ... ... ... : ... .. . ... : ... .. C ... : ... .. . ... ... : ... .. . ... ... : ... .. . ... ... : ... .. . ... ...
ROW 16 : ... .. D ... ... ... : ... .. D ... ... ... : ... .. . ... : ... .. 6 ... : ... .. . ... ... : ... .. . ... ... : ... .. . ... ... : ... .. . ... ...
ROW 17 : ... .. 0 ... ... ... : ... .. 0 ... ... ... : ... .. . ... : ... .. 3 ... : ... .. . ... ... : ... .. . ... ... : ... .. . ... ... : ... .. . ... ...
ROW 18 : F#3 00 F P80 ... ... : C#4 00 F P80 ... ... : F-5 00 . ... : E-# 00 F ... : ... .. . ... ... : ... .. . ... ... : ... .. . ... ... : F-1 01 C ... ...
ROW 19 : ... .. E ... ... ... : ... .. E ... ... ... : G-4 00 . ... : ... .. C ... : ... .. . ... ... : ... .. . ... ... : ... .. . ... ... : ... .. A ... ...
ROW 1A : ... .. D ... ... ... : ... .. D ... ... ... : C-4 00 . ... : ... .. 6 ... : ... .. . ... ... : ... .. . ... ... : ... .. . ... ... : ... .. 6 ... ...
ROW 1B : ... .. 0 ... ... ... : ... .. 0 ... ... ... : B-3 00 . ... : ... .. 3 ... : ... .. . ... ... : ... .. . ... ... : ... .. . ... ... : ... .. . ... ...
ROW 1C : F#3 00 F P80 ... ... : C#4 00 F P80 ... ... : F#3 00 . ... : F-# 00 F ... : ... .. . ... ... : ... .. . ... ... : ... .. . ... ... : ... .. . ... ...
ROW 1D : ... .. E ... ... ... : ... .. E ... ... ... : ... .. . ... : ... .. C ... : ... .. . ... ... : ... .. . ... ... : ... .. . ... ... : ... .. . ... ...
ROW 1E : ... .. D ... ... ... : ... .. D ... ... ... : ... .. . ... : ... .. 6 ... : ... .. . ... ... : ... .. . ... ... : ... .. . ... ... : ... .. . ... ...
ROW 1F : ... .. 0 ... ... ... : ... .. 0 ... ... ... : ... .. . ... : ... .. 3 ... : ... .. . ... ... : ... .. . ... ... : ... .. . ... ... : ... .. . ... ...
ROW 20 : F-3 00 F P80 ... ... : C-4 00 F P80 ... ... : E-5 00 . ... : B-# 00 C ... : ... .. . ... ... : D#4 01 A P81 ... : F-3 01 A P7F ... : ... .. C ... ...
ROW 21 : ... .. E ... ... ... : ... .. E ... ... ... : F#4 00 . ... : ... .. . ... : ... .. . ... ... : ... .. 9 ... ... : ... .. 9 ... ... : ... .. A ... ...
ROW 22 : ... .. D ... ... ... : ... .. D ... ... ... : B-3 00 . ... : ... .. A ... : ... .. . ... ... : ... .. 8 ... ... : ... .. 8 ... ... : ... .. 6 ... ...
ROW 23 : ... .. A ... ... ... : ... .. A ... ... ... : A#3 00 . ... : ... .. . ... : ... .. . ... ... : ... .. 7 ... ... : ... .. 7 ... ... : ... .. . ... ...
ROW 24 : ... .. . ... ... ... : ... .. . ... ... ... : F-3 00 . ... : ... .. 9 ... : ... .. . ... ... : ... .. . ... ... : ... .. . ... ... : ... .. . ... ...
ROW 25 : ... .. . ... ... ... : ... .. . ... ... ... : ... .. . ... : ... .. . ... : ... .. . ... ... : ... .. 6 ... ... : ... .. 6 ... ... : ... .. . ... ...
ROW 26 : ... .. . ... ... ... : ... .. . ... ... ... : ... .. . ... : ... .. 8 ... : ... .. . ... ... : --- .. . ... ... : ... .. . ... ... : ... .. . ... ...
ROW 27 : ... .. 2 ... ... ... : ... .. 2 ... ... ... : ... .. . ... : ... .. . ... : ... .. . ... ... : ... .. . ... ... : ... .. 5 ... ... : ... .. . ... ...
ROW 28 : F-1 00 F ... ... ... : D#4 00 F ... ... ... : D#3 00 . P88 : ... .. 7 ... : ... .. . ... ... : G#3 01 A ... ... : F#3 01 A ... ... : ... .. . P60 ...
ROW 29 : ... .. E ... ... ... : ... .. E ... ... ... : D-3 00 . P7D : ... .. . ... : ... .. . ... ... : ... .. 9 ... ... : ... .. 9 ... ... : E-1 01 6 P97 ...
ROW 2A : ... .. D ... ... ... : ... .. D ... ... ... : C-3 00 . P8C : ... .. 6 ... : ... .. . ... ... : ... .. 8 ... ... : ... .. 8 ... ... : ... .. . P77 ...
ROW 2B : ... .. A ... ... ... : ... .. A ... ... ... : B-2 00 . P85 : ... .. . ... : ... .. . ... ... : ... .. 7 ... ... : ... .. 7 ... ... : ... .. . P57 ...
ROW 2C : ... .. . ... ... ... : ... .. . ... ... ... : A#2 00 . P80 : ... .. 5 ... : ... .. . ... ... : ... .. . ... ... : F-3 01 6 ... ... : --- .. . P82 ...
ROW 2D : ... .. . ... ... ... : ... .. . ... ... ... : A-2 00 . P7C : ... .. . ... : ... .. . ... ... : ... .. 6 ... ... : ... .. . ... ... : ... .. . ... ...
ROW 2E : ... .. . ... ... ... : ... .. . ... ... ... : G#2 00 . P7B : ... .. 4 ... : ... .. . ... ... : --- .. . P83 ... : ... .. 5 ... ... : ... .. . ... ...
ROW 2F : ... .. 2 ... ... ... : ... .. 2 ... ... ... : G-2 00 . ... : ... .. . ... : ... .. . ... ... : ... .. . ... ... : ... .. 4 ... ... : ... .. . ... ...
ROW 30 : ... .. F ... ... ... : D-4 00 F ... ... ... : F-4 00 . P80 : 1-# 00 F ... : ... .. . ... ... : G#3 01 A P81 ... : G#3 01 A ... ... : F-2 01 C P80 ...
ROW 31 : ... .. E ... ... ... : ... .. E ... ... ... : ... .. . ... : ... .. C ... : ... .. . ... ... : ... .. 9 ... ... : ... .. 9 ... ... : ... .. A ... ...
ROW 32 : ... .. D ... ... ... : ... .. D ... ... ... : ... .. . ... : ... .. 6 ... : ... .. . ... ... : ... .. 8 ... ... : ... .. 8 ... ... : ... .. 6 ... ...
ROW 33 : ... .. A ... ... ... : ... .. A ... ... ... : ... .. . ... : ... .. 3 ... : ... .. . ... ... : ... .. 7 ... ... : ... .. 7 ... ... : ... .. . ... ...
ROW 34 : ... .. . ... ... ... : ... .. . ... ... ... : ... .. . ... : ... .. 2 ... : ... .. . ... ... : ... .. . ... ... : F#3 01 6 ... ... : --- .. . P7E ...
ROW 35 : ... .. . ... ... ... : ... .. . ... ... ... : ... .. . ... : ... .. 0 ... : ... .. . ... ... : ... .. 6 ... ... : ... .. . ... ... : ... .. . ... ...
ROW 36 : ... .. . ... ... ... : ... .. . ... ... ... : ... .. . ... : ... .. . ... : ... .. . ... ... : --- .. . P83 ... : ... .. 5 ... ... : ... .. . ... ...
ROW 37 : ... .. 2 ... ... ... : ... .. 2 ... ... ... : ... .. . ... : ... .. . ... : ... .. . ... ... : ... .. . ... ... : ... .. 4 ... ... : ... .. . ... ...
ROW 38 : G#3 00 F ... ... ... : F-3 00 F ... ... ... : E-4 00 . ... : 9-# 00 D ... : ... .. . ... ... : D#4 01 A P81 ... : F-3 01 A ... ... : F-0 01 C P80 ...
ROW 39 : ... .. E ... ... ... : ... .. E ... ... ... : F#3 00 . ... : ... .. B ... : ... .. . ... ... : ... .. 9 ... ... : ... .. 9 ... ... : ... .. A ... ...
ROW 3A : ... .. D ... ... ... : ... .. D ... ... ... : B-2 00 . ... : ... .. . ... : ... .. . ... ... : ... .. 8 ... ... : ... .. 8 ... ... : ... .. 6 ... ...
ROW 3B : ... .. A ... ... ... : ... .. A ... ... ... : A#2 00 . ... : ... .. A ... : ... .. . ... ... : ... .. 7 ... ... : ... .. 7 ... ... : ... .. . ... ...
ROW 3C : ... .. . ... ... ... : ... .. . ... ... ... : F-2 00 . ... : ... .. 8 ... : ... .. . ... ... : ... .. . ... ... : G#3 01 6 ... ... : ... .. . ... ...
ROW 3D : ... .. . ... ... ... : ... .. . ... ... ... : ... .. . ... : ... .. 7 ... : ... .. . ... ... : ... .. 6 ... ... : ... .. . ... ... : ... .. . ... ...
ROW 3E : ... .. . ... ... ... : ... .. . ... ... ... : ... .. . ... : ... .. 6 ... : ... .. . ... ... : --- .. . ... ... : ... .. 5 ... ... : ... .. . ... ...
ROW 3F : ... .. 2 ... ... ... : ... .. 2 ... ... ... : ... .. . ... : ... .. . ... : ... .. . ... ... : ... .. . ... ... : ... .. 4 ... ... : ... .. . ... ...
ROW 40 : F-1 00 F ... ... ... : C-4 00 F ... ... ... : E-2 00 . P86 : 1-# 00 F ... : ... .. . ... ... : G#3 01 A ... ... : F#3 01 A ... ... : ... .. . P60 ...
ROW 41 : ... .. E ... ... ... : ... .. E ... ... ... : D#2 00 . P8E : ... .. C ... : ... .. . ... ... : ... .. 9 ... ... : ... .. 9 ... ... : ... .. . P40 ...
ROW 42 : ... .. D ... ... ... : ... .. D ... ... ... : ... .. . P6E : ... .. 6 ... : ... .. . ... ... : ... .. 8 ... ... : ... .. 8 ... ... : E-0 01 6 PCE ...
ROW 43 : ... .. A ... ... ... : ... .. A ... ... ... : D-2 00 . P79 : ... .. 3 ... : ... .. . ... ... : ... .. 7 ... ... : ... .. 7 ... ... : ... .. . PAE ...
ROW 44 : ... .. . ... ... ... : ... .. . ... ... ... : C#2 00 . P86 : ... .. 2 ... : ... .. . ... ... : ... .. . ... ... : F-3 01 6 ... ... : --- .. . P83 ...
ROW 45 : ... .. . ... ... ... : ... .. . ... ... ... : C-2 00 . P96 : ... .. 0 ... : ... .. . ... ... : ... .. 6 ... ... : ... .. . ... ... : ... .. . ... ...
ROW 46 : ... .. . ... ... ... : ... .. . ... ... ... : ... .. . P76 : ... .. . ... : ... .. . ... ... : --- .. . P83 ... : ... .. 5 ... ... : ... .. . ... ...
ROW 47 : ... .. 2 ... ... ... : ... .. 2 ... ... ... : B-1 00 . P89 : ... .. . ... : ... .. . ... ... : ... .. . ... ... : ... .. 4 ... ... : ... .. . ... ...
ROW 48 : ... .. F ... ... ... : B-3 00 F ... ... ... : F-4 00 . P80 : ... .. F ... : ... .. . ... ... : G#3 01 A P81 ... : G#3 01 A ... ... : F-2 01 C P80 ...
ROW 49 : ... .. E ... ... ... : ... .. E ... ... ... : ... .. . ... : ... .. C ... : ... .. . ... ... : ... .. 9 ... ... : ... .. 9 ... ... : ... .. A ... ...
ROW 4A : ... .. D ... ... ... : ... .. D ... ... ... : ... .. . ... : ... .. 6 ... : ... .. . ... ... : ... .. 8 ... ... : ... .. 8 ... ... : ... .. 6 ... ...
ROW 4B : ... .. A ... ... ... : ... .. A ... ... ... : ... .. . ... : ... .. 3 ... : ... .. . ... ... : ... .. 7 ... ... : ... .. 7 ... ... : ... .. . ... ...
ROW 4C : ... .. . ... ... ... : ... .. . ... ... ... : ... .. . ... : ... .. 2 ... : ... .. . ... ... : ... .. . ... ... : F#3 01 6 ... ... : --- .. . P7E ...
ROW 4D : ... .. . ... ... ... : ... .. . ... ... ... : ... .. . ... : ... .. 0 ... : ... .. . ... ... : ... .. 6 ... ... : ... .. . ... ... : ... .. . ... ...
ROW 4E : ... .. . ... ... ... : ... .. . ... ... ... : ... .. . ... : ... .. . ... : ... .. . ... ... : --- .. . P83 ... : ... .. 5 ... ... : ... .. . ... ...
ROW 4F : ... .. 2 ... ... ... : ... .. 2 ... ... ... : ... .. . ... : ... .. . ... : ... .. . ... ... : ... .. . ... ... : ... .. 4 ... ... : ... .. . ... ...
ROW 50 : A#3 00 F ... ... ... : F-3 00 F ... ... ... : E-5 00 . ... : B-# 00 D ... : ... .. . ... ... : F-4 01 A P81 ... : F-3 01 A ... ... : F-1 01 C P80 ...
ROW 51 : ... .. E ... ... ... : ... .. E ... ... ... : F#4 00 . ... : ... .. B ... : ... .. . ... ... : ... .. 9 ... ... : ... .. 9 ... ... : ... .. A ... ...
ROW 52 : ... .. D ... ... ... : ... .. D ... ... ... : B-3 00 . ... : ... .. . ... : ... .. . ... ... : ... .. 8 ... ... : ... .. 8 ... ... : ... .. 6 ... ...
ROW 53 : ... .. A ... ... ... : ... .. A ... ... ... : A#3 00 . ... : ... .. A ... : ... .. . ... ... : ... .. 7 ... ... : ... .. 7 ... ... : ... .. . ... ...
ROW 54 : ... .. . ... ... ... : ... .. . ... ... ... : F-3 00 . ... : ... .. 8 ... : ... .. . ... ... : ... .. . ... ... : G#3 01 6 ... ... : ... .. . ... ...
ROW 55 : ... .. . ... ... ... : ... .. . ... ... ... : ... .. . ... : ... .. 7 ... : ... .. . ... ... : ... .. 6 ... ... : ... .. . ... ... : ... .. . ... ...
ROW 56 : ... .. . ... ... ... : ... .. . ... ... ... : ... .. . ... : ... .. 6 ... : ... .. . ... ... : --- .. . ... ... : ... .. 5 ... ... : ... .. . ... ...
ROW 57 : ... .. 2 ... ... ... : ... .. 2 ... ... ... : ... .. . ... : ... .. . ... : ... .. . ... ... : ... .. . ... ... : ... .. 4 ... ... : ... .. . ... ...
ROW 58 : F-1 00 F ... ... ... : D#4 00 F ... ... ... : ... .. . ... : 1-# 00 F ... : ... .. . ... ... : A#3 01 A ... ... : F#3 01 A ... ... : ... .. . ... ...
ROW 59 : ... .. E ... ... ... : ... .. E ... ... ... : ... .. . ... : ... .. C ... : ... .. . ... ... : ... .. 9 ... ... : ... .. 9 ... ... : ... .. . ... ...
ROW 5A : ... .. D ... ... ... : ... .. D ... ... ... : ... .. . ... : ... .. 6 ... : ... .. . ... ... : ... .. 8 ... ... : ... .. 8 ... ... : ... .. . ... ...
ROW 5B : ... .. A ... ... ... : ... .. A ... ... ... : ... .. . ... : ... .. 3 ... : ... .. . ... ... : ... .. 7 ... ... : ... .. 7 ... ... : ... .. . ... ...
ROW 5C : ... .. . ... ... ... : ... .. . ... ... ... : ... .. . ... : ... .. 2 ... : ... .. . ... ... : ... .. . ... ... : F-3 01 6 ... ... : --- .. . P7F ...
ROW 5D : ... .. . ... ... ... : ... .. . ... ... ... : ... .. . ... : ... .. 0 ... : ... .. . ... ... : ... .. 6 ... ... : ... .. . ... ... : ... .. . ... ...
ROW 5E : ... .. . ... ... ... : ... .. . ... ... ... : ... .. . ... : ... .. . ... : ... .. . ... ... : --- .. . ... ... : ... .. 5 ... ... : ... .. . ... ...
ROW 5F : ... .. 2 ... ... ... : ... .. 2 ... ... ... : ... .. . ... : ... .. . ... : ... .. . ... ... : ... .. . ... ... : ... .. 4 ... ... : ... .. . ... ...
ROW 60 : ... .. F ... ... ... : D-4 00 F ... ... ... : D#3 00 . ... : ... .. F ... : ... .. . ... ... : A#3 01 A ... ... : G#3 01 A ... ... : D#1 01 C P80 ...
ROW 61 : ... .. E ... ... ... : ... .. E ... ... ... : ... .. . ... : ... .. C ... : ... .. . ... ... : ... .. 9 ... ... : ... .. 9 ... ... : ... .. A ... ...
ROW 62 : ... .. D ... ... ... : ... .. D ... ... ... : ... .. . ... : ... .. 6 ... : ... .. . ... ... : ... .. 8 ... ... : ... .. 8 ... ... : ... .. 6 ... ...
ROW 63 : ... .. A ... ... ... : ... .. A ... ... ... : ... .. . ... : ... .. 3 ... : ... .. . ... ... : ... .. 7 ... ... : ... .. 7 ... ... : ... .. . ... ...
ROW 64 : ... .. . ... ... ... : ... .. . ... ... ... : ... .. . ... : ... .. 2 ... : ... .. . ... ... : ... .. . ... ... : F#3 01 6 ... ... : --- .. . P81 ...
ROW 65 : ... .. . ... ... ... : ... .. . ... ... ... : ... .. . ... : ... .. 0 ... : ... .. . ... ... : ... .. 6 ... ... : ... .. . ... ... : ... .. . ... ...
ROW 66 : ... .. . ... ... ... : ... .. . ... ... ... : ... .. . ... : ... .. . ... : ... .. . ... ... : --- .. . ... ... : ... .. 5 ... ... : ... .. . ... ...
ROW 67 : ... .. 2 ... ... ... : ... .. 2 ... ... ... : ... .. . ... : ... .. . ... : ... .. . ... ... : ... .. . ... ... : ... .. 4 ... ... : ... .. . ... ...
ROW 68 : B-3 00 F ... ... ... : F-3 00 F ... ... ... : E-4 00 . ... : 9-# 00 D ... : ... .. . ... ... : F#4 01 A ... ... : ... .. A ... ... : F-0 01 C P80 ...
ROW 69 : ... .. E ... ... ... : ... .. E ... ... ... : F#3 00 . ... : ... .. B ... : ... .. . ... ... : ... .. 9 ... ... : ... .. 9 ... ... : ... .. A ... ...
ROW 6A : ... .. D ... ... ... : ... .. D ... ... ... : B-2 00 . ... : ... .. . ... : ... .. . ... ... : ... .. 8 ... ... : ... .. 8 ... ... : ... .. 6 ... ...
ROW 6B : ... .. A ... ... ... : ... .. A ... ... ... : A#2 00 . ... : ... .. A ... : ... .. . ... ... : ... .. 7 ... ... : ... .. 7 ... ... : ... .. . ... ...
ROW 6C : ... .. . ... ... ... : ... .. . ... ... ... : F-2 00 . ... : ... .. 8 ... : ... .. . ... ... : ... .. . ... ... : G#3 01 6 ... ... : --- .. . P82 ...
ROW 6D : ... .. . ... ... ... : ... .. . ... ... ... : ... .. . ... : ... .. 7 ... : ... .. . ... ... : ... .. 6 ... ... : ... .. . ... ... : ... .. . ... ...
ROW 6E : ... .. . ... ... ... : ... .. . ... ... ... : ... .. . ... : ... .. 6 ... : ... .. . ... ... : --- .. . ... ... : ... .. 5 ... ... : ... .. . ... ...
ROW 6F : ... .. 2 ... ... ... : ... .. 2 ... ... ... : ... .. . ... : ... .. . ... : ... .. . ... ... : ... .. . ... ... : ... .. 4 ... ... : ... .. . ... ...
ROW 70 : F-1 00 F ... ... ... : C-4 00 F ... ... ... : D#2 00 . ... : 1-# 00 F ... : ... .. . ... ... : B-3 01 A ... ... : ... .. A ... ... : D#0 01 C P80 ...
ROW 71 : ... .. E ... ... ... : ... .. E ... ... ... : ... .. . ... : ... .. C ... : ... .. . ... ... : ... .. 9 ... ... : ... .. 9 ... ... : ... .. A ... ...
ROW 72 : ... .. D ... ... ... : ... .. D ... ... ... : ... .. . ... : ... .. 6 ... : ... .. . ... ... : ... .. 8 ... ... : ... .. 8 ... ... : ... .. 6 ... ...
ROW 73 : ... .. A ... ... ... : ... .. A ... ... ... : ... .. . ... : ... .. 3 ... : ... .. . ... ... : ... .. 7 ... ... : ... .. 7 ... ... : ... .. . ... ...
ROW 74 : ... .. . ... ... ... : ... .. . ... ... ... : ... .. . ... : ... .. 2 ... : ... .. . ... ... : ... .. . ... ... : F#3 01 6 ... ... : --- .. . P83 ...
ROW 75 : ... .. . ... ... ... : ... .. . ... ... ... : ... .. . ... : ... .. 0 ... : ... .. . ... ... : ... .. 6 ... ... : ... .. . ... ... : ... .. . ... ...
ROW 76 : ... .. . ... ... ... : ... .. . ... ... ... : ... .. . ... : ... .. . ... : ... .. . ... ... : --- .. . ... ... : ... .. 5 ... ... : ... .. . ... ...
ROW 77 : ... .. 2 ... ... ... : ... .. 2 ... ... ... : ... .. . ... : ... .. . ... : ... .. . ... ... : ... .. . ... ... : ... .. 4 ... ... : ... .. . ... ...
ROW 78 : ... .. F ... ... ... : B-3 00 F ... ... ... : F-2 00 . ... : 8-# 00 8 ... : ... .. . ... ... : B-3 01 A ... ... : A-3 01 A ... ... : F-0 01 C P80 ...
ROW 79 : ... .. E ... ... ... : ... .. E ... ... ... : ... .. . ... : ... .. 6 ... : ... .. . ... ... : ... .. 9 ... ... : ... .. 9 ... ... : ... .. A ... ...
ROW 7A : ... .. D ... ... ... : ... .. D ... ... ... : ... .. . ... : ... .. 0 ... : ... .. . ... ... : ... .. 8 ... ... : ... .. 8 ... ... : ... .. 6 ... ...
ROW 7B : ... .. A ... ... ... : ... .. A ... ... ... : ... .. . ... : ... .. . ... : ... .. . ... ... : ... .. 7 ... ... : ... .. 7 ... ... : ... .. . ... ...
ROW 7C : ... .. . ... ... ... : ... .. . ... ... ... : ... .. . ... : ... .. 8 ... : ... .. . ... ... : ... .. . ... ... : G#3 01 6 ... ... : --- .. . P82 ...
ROW 7D : ... .. . ... ... ... : ... .. . ... ... ... : ... .. . ... : ... .. 6 ... : ... .. . ... ... : ... .. 6 ... ... : ... .. . ... ... : ... .. . ... ...
ROW 7E : ... .. . ... ... ... : ... .. . ... ... ... : ... .. . ... : ... .. 0 ... : ... .. . ... ... : --- .. . ... ... : ... .. 5 ... ... : ... .. . ... ...
ROW 7F : ... .. 2 ... ... ... : ... .. 2 ... ... ... : ... .. . ... : ... .. . ... : ... .. . ... ... : ... .. . ... ... : ... .. 4 ... ... : ... .. . ... ...
ROW 80 : G#3 00 F ... ... ... : F-3 00 F ... ... ... : E-5 00 . ... : 9-# 00 D ... : ... .. . ... ... : D#4 01 A ... ... : F-3 01 A ... ... : F-1 01 C P80 ...
ROW 81 : ... .. E ... ... ... : ... .. E ... ... ... : F#4 00 . ... : ... .. B ... : ... .. . ... ... : ... .. 9 ... ... : ... .. 9 ... ... : ... .. A ... ...
ROW 82 : ... .. D ... ... ... : ... .. D ... ... ... : B-3 00 . ... : ... .. . ... : ... .. . ... ... : ... .. 8 ... ... : ... .. 8 ... ... : ... .. 6 ... ...
ROW 83 : ... .. A ... ... ... : ... .. A ... ... ... : A#3 00 . ... : ... .. A ... : ... .. . ... ... : ... .. 7 ... ... : ... .. 7 ... ... : ... .. . ... ...
ROW 84 : ... .. . ... ... ... : ... .. . ... ... ... : F-3 00 . ... : ... .. 8 ... : ... .. . ... ... : ... .. . ... ... : A-3 01 6 ... ... : ... .. . ... ...
ROW 85 : ... .. . ... ... ... : ... .. . ... ... ... : ... .. . ... : ... .. 7 ... : ... .. . ... ... : ... .. 6 ... ... : ... .. . ... ... : ... .. . ... ...
ROW 86 : ... .. . ... ... ... : ... .. . ... ... ... : ... .. . ... : ... .. 6 ... : ... .. . ... ... : --- .. . ... ... : ... .. 5 ... ... : ... .. . ... ...
ROW 87 : ... .. 2 ... ... ... : ... .. 2 ... ... ... : ... .. . ... : ... .. . ... : ... .. . ... ... : ... .. . ... ... : ... .. 4 ... ... : ... .. . ... ...
ROW 88 : F-1 00 F ... ... ... : D#4 00 F ... ... ... : D#3 00 . P88 : 1-# 00 F ... : ... .. . ... ... : G#3 01 A ... ... : F#3 01 A ... ... : ... .. . P60 ...
ROW 89 : ... .. E ... ... ... : ... .. E ... ... ... : D-3 00 . P7D : ... .. C ... : ... .. . ... ... : ... .. 9 ... ... : ... .. 9 ... ... : E-1 01 6 P97 ...
ROW 8A : ... .. D ... ... ... : ... .. D ... ... ... : C-3 00 . P8C : ... .. 6 ... : ... .. . ... ... : ... .. 8 ... ... : ... .. 8 ... ... : ... .. . P77 ...
ROW 8B : ... .. A ... ... ... : ... .. A ... ... ... : B-2 00 . P85 : ... .. 3 ... : ... .. . ... ... : ... .. 7 ... ... : ... .. 7 ... ... : ... .. . P57 ...
ROW 8C : ... .. . ... ... ... : ... .. . ... ... ... : A#2 00 . P80 : ... .. F ... : ... .. . ... ... : ... .. . ... ... : F-3 01 6 ... ... : --- .. . P82 ...
ROW 8D : ... .. . ... ... ... : ... .. . ... ... ... : A-2 00 . P7C : ... .. C ... : ... .. . ... ... : ... .. 6 ... ... : ... .. . ... ... : ... .. . ... ...
ROW 8E : ... .. . ... ... ... : ... .. . ... ... ... : G#2 00 . P7B : ... .. 6 ... : ... .. . ... ... : --- .. . P83 ... : ... .. 5 ... ... : ... .. . ... ...
ROW 8F : ... .. 2 ... ... ... : ... .. 2 ... ... ... : G-2 00 . ... : ... .. 3 ... : ... .. . ... ... : ... .. . ... ... : ... .. 4 ... ... : ... .. . ... ...
ROW 90 : ... .. F ... ... ... : D-4 00 F ... ... ... : F-4 00 . P80 : ... .. F ... : ... .. . ... ... : G#3 01 A P81 ... : G#3 01 A ... ... : F-2 01 C P80 ...
ROW 91 : ... .. E ... ... ... : ... .. E ... ... ... : ... .. . ... : ... .. C ... : ... .. . ... ... : ... .. 9 ... ... : ... .. 9 ... ... : ... .. A ... ...
ROW 92 : ... .. D ... ... ... : ... .. D ... ... ... : ... .. . ... : ... .. 6 ... : ... .. . ... ... : ... .. 8 ... ... : ... .. 8 ... ... : ... .. 6 ... ...
ROW 93 : ... .. A ... ... ... : ... .. A ... ... ... : ... .. . ... : ... .. 3 ... : ... .. . ... ... : ... .. 7 ... ... : ... .. 7 ... ... : ... .. . ... ...
ROW 94 : ... .. . ... ... ... : ... .. . ... ... ... : ... .. . ... : ... .. 2 ... : ... .. . ... ... : ... .. . ... ... : F#3 01 6 ... ... : --- .. . P7E ...
ROW 95 : ... .. . ... ... ... : ... .. . ... ... ... : ... .. . ... : ... .. 0 ... : ... .. . ... ... : ... .. 6 ... ... : ... .. . ... ... : ... .. . ... ...
ROW 96 : ... .. . ... ... ... : ... .. . ... ... ... : ... .. . ... : ... .. . ... : ... .. . ... ... : --- .. . P83 ... : ... .. 5 ... ... : ... .. . ... ...
ROW 97 : ... .. 2 ... ... ... : ... .. 2 ... ... ... : ... .. . ... : ... .. . ... : ... .. . ... ... : ... .. . ... ... : ... .. 4 ... ... : ... .. . ... ...
ROW 98 : G#3 00 F ... ... ... : F-3 00 F ... ... ... : E-4 00 . ... : 9-# 00 D ... : ... .. . ... ... : D#4 01 A P81 ... : F-3 01 A ... ... : F-0 01 C P80 ...
ROW 99 : ... .. E ... ... ... : ... .. E ... ... ... : F#3 00 . ... : ... .. B ... : ... .. . ... ... : ... .. 9 ... ... : ... .. 9 ... ... : ... .. A ... ...
ROW 9A : ... .. D ... ... ... : ... .. D ... ... ... : B-2 00 . ... : ... .. . ... : ... .. . ... ... : ... .. 8 ... ... : ... .. 8 ... ... : ... .. 6 ... ...
ROW 9B : ... .. A ... ... ... : ... .. A ... ... ... : A#2 00 . ... : ... .. A ... : ... .. . ... ... : ... .. 7 ... ... : ... .. 7 ... ... : ... .. . ... ...
ROW 9C : ... .. . ... ... ... : ... .. . ... ... ... : F-2 00 . ... : ... .. 8 ... : ... .. . ... ... : ... .. . ... ... : G#3 01 6 ... ... : ... .. . ... ...
ROW 9D : ... .. . ... ... ... : ... .. . ... ... ... : ... .. . ... : ... .. 7 ... : ... .. . ... ... : ... .. 6 ... ... : ... .. . ... ... : ... .. . ... ...
ROW 9E : ... .. . ... ... ... : ... .. . ... ... ... : ... .. . ... : ... .. 6 ... : ... .. . ... ... : --- .. . ... ... : ... .. 5 ... ... : ... .. . ... ...
ROW 9F : ... .. 2 ... ... ... : ... .. 2 ... ... ... : ... .. . ... : ... .. . ... : ... .. . ... ... : ... .. . ... ... : ... .. 4 ... ... : ... .. . ... ...
ROW A0 : F-1 00 F ... ... ... : C-4 00 F ... ... ... : E-2 00 . P86 : 1-# 00 F ... : ... .. . ... ... : G#3 01 A ... ... : F#3 01 A ... ... : ... .. . P60 ...
ROW A1 : ... .. E ... ... ... : ... .. E ... ... ... : D#2 00 . P8E : ... .. C ... : ... .. . ... ... : ... .. 9 ... ... : ... .. 9 ... ... : ... .. . P40 ...
ROW A2 : ... .. D ... ... ... : ... .. D ... ... ... : ... .. . P6E : ... .. 6 ... : ... .. . ... ... : ... .. 8 ... ... : ... .. 8 ... ... : E-0 01 6 PCE ...
ROW A3 : ... .. A ... ... ... : ... .. A ... ... ... : D-2 00 . P79 : ... .. 3 ... : ... .. . ... ... : ... .. 7 ... ... : ... .. 7 ... ... : ... .. . PAE ...
ROW A4 : ... .. . ... ... ... : ... .. . ... ... ... : C#2 00 . P86 : ... .. 2 ... : ... .. . ... ... : ... .. . ... ... : F-3 01 6 ... ... : --- .. . P83 ...
ROW A5 : ... .. . ... ... ... : ... .. . ... ... ... : C-2 00 . P96 : ... .. 0 ... : ... .. . ... ... : ... .. 6 ... ... : ... .. . ... ... : ... .. . ... ...
ROW A6 : ... .. . ... ... ... : ... .. . ... ... ... : ... .. . P76 : ... .. . ... : ... .. . ... ... : --- .. . P83 ... : ... .. 5 ... ... : ... .. . ... ...
ROW A7 : ... .. 2 ... ... ... : ... .. 2 ... ... ... : B-1 00 . P89 : ... .. . ... : ... .. . ... ... : ... .. . ... ... : ... .. 4 ... ... : ... .. . ... ...
ROW A8 : ... .. F ... ... ... : B-3 00 F ... ... ... : F-4 00 . P80 : ... .. F ... : ... .. . ... ... : G#3 01 A P81 ... : G#3 01 A ... ... : F-2 01 C P80 ...
ROW A9 : ... .. E ... ... ... : ... .. E ... ... ... : ... .. . ... : ... .. C ... : ... .. . ... ... : ... .. 9 ... ... : ... .. 9 ... ... : ... .. A ... ...
ROW AA : ... .. D ... ... ... : ... .. D ... ... ... : ... .. . ... : ... .. 6 ... : ... .. . ... ... : ... .. 8 ... ... : ... .. 8 ... ... : ... .. 6 ... ...
ROW AB : ... .. A ... ... ... : ... .. A ... ... ... : ... .. . ... : ... .. 3 ... : ... .. . ... ... : ... .. 7 ... ... : ... .. 7 ... ... : ... .. . ... ...
ROW AC : ... .. . ... ... ... : ... .. . ... ... ... : ... .. . ... : ... .. 2 ... : ... .. . ... ... : ... .. . ... ... : F#3 01 6 ... ... : --- .. . P7E ...
ROW AD : ... .. . ... ... ... : ... .. . ... ... ... : ... .. . ... : ... .. 0 ... : ... .. . ... ... : ... .. 6 ... ... : ... .. . ... ... : ... .. . ... ...
ROW AE : ... .. . ... ... ... : ... .. . ... ... ... : ... .. . ... : ... .. . ... : ... .. . ... ... : --- .. . P83 ... : ... .. 5 ... ... : ... .. . ... ...
ROW AF : ... .. 2 ... ... ... : ... .. 2 ... ... ... : ... .. . ... : ... .. . ... : ... .. . ... ... : ... .. . ... ... : ... .. 4 ... ... : ... .. . ... ...
ROW B0 : A#4 00 F ... ... ... : A#3 00 F ... ... ... : A-4 00 . ... : 9-# 00 D ... : ... .. . ... ... : F-4 01 A P81 ... : F-3 01 A ... ... : F-1 01 C P80 ...
ROW B1 : ... .. E ... ... ... : ... .. E ... ... ... : B-3 00 . ... : ... .. B ... : ... .. . ... ... : ... .. 9 ... ... : ... .. 9 ... ... : ... .. A ... ...
ROW B2 : ... .. D ... ... ... : ... .. D ... ... ... : E-3 00 . ... : ... .. . ... : ... .. . ... ... : ... .. 8 ... ... : ... .. 8 ... ... : ... .. 6 ... ...
ROW B3 : ... .. A ... ... ... : ... .. A ... ... ... : D#3 00 . ... : ... .. A ... : ... .. . ... ... : ... .. 7 ... ... : ... .. 7 ... ... : ... .. . ... ...
ROW B4 : ... .. . ... ... ... : ... .. . ... ... ... : A#2 00 . ... : ... .. 8 ... : ... .. . ... ... : ... .. . ... ... : G#3 01 6 ... ... : ... .. . ... ...
ROW B5 : ... .. . ... ... ... : ... .. . ... ... ... : ... .. . ... : ... .. 7 ... : ... .. . ... ... : ... .. 6 ... ... : ... .. . ... ... : ... .. . ... ...
ROW B6 : ... .. . ... ... ... : ... .. . ... ... ... : ... .. . ... : ... .. 6 ... : ... .. . ... ... : --- .. . ... ... : ... .. 5 ... ... : ... .. . ... ...
ROW B7 : ... .. 2 ... ... ... : ... .. 2 ... ... ... : ... .. . ... : ... .. . ... : ... .. . ... ... : ... .. . ... ... : ... .. 4 ... ... : ... .. . ... ...
ROW B8 : F-1 00 F ... ... ... : A#1 00 F ... ... ... : ... .. . ... : 1-# 00 F ... : ... .. . ... ... : A#3 01 A ... ... : F#3 01 A ... ... : ... .. . ... ...
ROW B9 : ... .. E ... ... ... : ... .. E ... ... ... : ... .. . ... : ... .. C ... : ... .. . ... ... : ... .. 9 ... ... : ... .. 9 ... ... : ... .. . ... ...
ROW BA : ... .. D ... ... ... : ... .. D ... ... ... : ... .. . ... : ... .. 6 ... : ... .. . ... ... : ... .. 8 ... ... : ... .. 8 ... ... : ... .. . ... ...
ROW BB : ... .. A ... ... ... : ... .. A ... ... ... : ... .. . ... : ... .. 3 ... : ... .. . ... ... : ... .. 7 ... ... : ... .. 7 ... ... : ... .. . ... ...
ROW BC : ... .. . ... ... ... : ... .. . ... ... ... : ... .. . ... : ... .. 2 ... : ... .. . ... ... : ... .. . ... ... : F-3 01 6 ... ... : --- .. . P7F ...
ROW BD : ... .. . ... ... ... : ... .. . ... ... ... : ... .. . ... : ... .. 0 ... : ... .. . ... ... : ... .. 6 ... ... : ... .. . ... ... : ... .. . ... ...
ROW BE : ... .. . ... ... ... : ... .. . ... ... ... : ... .. . ... : ... .. . ... : ... .. . ... ... : --- .. . ... ... : ... .. 5 ... ... : ... .. . ... ...
ROW BF : ... .. 2 ... ... ... : ... .. 2 ... ... ... : ... .. . ... : ... .. . ... : ... .. . ... ... : ... .. . ... ... : ... .. 4 ... ... : ... .. . ... ...
ROW C0 : B-4 00 F ... ... ... : B-3 00 F ... ... ... : A#4 00 . ... : 9-# 00 D ... : ... .. . ... ... : F#4 01 A ... ... : G#3 01 A ... ... : D#1 01 C P80 ...
ROW C1 : ... .. E ... ... ... : ... .. E ... ... ... : C-4 00 . ... : ... .. B ... : ... .. . ... ... : ... .. 9 ... ... : ... .. 9 ... ... : ... .. A ... ...
ROW C2 : ... .. D ... ... ... : ... .. D ... ... ... : F-3 00 . ... : ... .. . ... : ... .. . ... ... : ... .. 8 ... ... : ... .. 8 ... ... : ... .. 6 ... ...
ROW C3 : ... .. A ... ... ... : ... .. A ... ... ... : E-3 00 . ... : ... .. A ... : ... .. . ... ... : ... .. 7 ... ... : ... .. 7 ... ... : ... .. . ... ...
ROW C4 : ... .. . ... ... ... : ... .. . ... ... ... : B-2 00 . ... : ... .. 8 ... : ... .. . ... ... : ... .. . ... ... : F#3 01 6 ... ... : --- .. . P81 ...
ROW C5 : ... .. . ... ... ... : ... .. . ... ... ... : ... .. . ... : ... .. 7 ... : ... .. . ... ... : ... .. 6 ... ... : ... .. . ... ... : ... .. . ... ...
ROW C6 : ... .. . ... ... ... : ... .. . ... ... ... : ... .. . ... : ... .. 6 ... : ... .. . ... ... : --- .. . ... ... : ... .. 5 ... ... : ... .. . ... ...
ROW C7 : ... .. 2 ... ... ... : ... .. 2 ... ... ... : ... .. . ... : ... .. . ... : ... .. . ... ... : ... .. . ... ... : ... .. 4 ... ... : ... .. . ... ...
ROW C8 : F-1 00 F ... ... ... : B-1 00 F ... ... ... : A#2 00 . P7B : 2-# 00 F ... : ... .. . ... ... : B-3 01 A ... ... : A-3 01 A ... ... : D#2 01 C P80 ...
ROW C9 : ... .. E ... ... ... : ... .. E ... ... ... : A-2 00 . P77 : ... .. C ... : ... .. . ... ... : ... .. 9 ... ... : ... .. 9 ... ... : ... .. A ... ...
ROW CA : ... .. D ... ... ... : ... .. D ... ... ... : G#2 00 . P76 : ... .. 6 ... : ... .. . ... ... : ... .. 8 ... ... : ... .. 8 ... ... : ... .. 6 ... ...
ROW CB : ... .. A ... ... ... : ... .. A ... ... ... : G-2 00 . ... : ... .. 3 ... : ... .. . ... ... : ... .. 7 ... ... : ... .. 7 ... ... : ... .. . ... ...
ROW CC : ... .. . ... ... ... : ... .. . ... ... ... : F#2 00 . P78 : ... .. F ... : ... .. . ... ... : ... .. . ... ... : G#3 01 6 ... ... : --- .. . ... ...
ROW CD : ... .. . ... ... ... : ... .. . ... ... ... : F-2 00 . P7C : ... .. C ... : ... .. . ... ... : ... .. 6 ... ... : ... .. . ... ... : ... .. . ... ...
ROW CE : ... .. . ... ... ... : ... .. . ... ... ... : E-2 00 . P82 : ... .. 6 ... : ... .. . ... ... : --- .. . ... ... : ... .. 5 ... ... : ... .. . ... ...
ROW CF : ... .. 2 ... ... ... : ... .. 2 ... ... ... : D#2 00 . P8A : ... .. 3 ... : ... .. . ... ... : ... .. . ... ... : ... .. 4 ... ... : ... .. . ... ...
ROW D0 : ... .. F ... ... ... : C-2 00 F ... ... ... : E-4 00 . P80 : B-# 00 C ... : ... .. . ... ... : D-3 01 6 ... ... : F-5 01 1 ... V05 : F-0 01 C ... ...
ROW D1 : ... .. E ... ... ... : ... .. E ... ... ... : F#3 00 . ... : ... .. . ... : ... .. . ... ... : ... .. . ... ... : ... .. . ... ... : ... .. A ... ...
ROW D2 : ... .. D ... ... ... : ... .. D ... ... ... : B-2 00 . ... : ... .. A ... : ... .. . ... ... : ... .. 5 ... ... : ... .. . ... ... : ... .. 6 ... ...
ROW D3 : ... .. A ... ... ... : ... .. A ... ... ... : A#2 00 . ... : ... .. . ... : ... .. . ... ... : ... .. 4 ... ... : ... .. . ... ... : ... .. . ... ...
ROW D4 : ... .. . ... ... ... : ... .. . ... ... ... : F-2 00 . ... : ... .. 9 ... : ... .. . ... ... : D#3 01 6 ... ... : ... .. . ... ... : ... .. . ... ...
ROW D5 : ... .. . ... ... ... : ... .. . ... ... ... : ... .. . ... : ... .. . ... : ... .. . ... ... : ... .. . ... ... : ... .. . ... ... : ... .. . ... ...
ROW D6 : ... .. . ... ... ... : ... .. . ... ... ... : ... .. . ... : ... .. 8 ... : ... .. . ... ... : ... .. 5 ... ... : ... .. . ... ... : ... .. . ... ...
ROW D7 : ... .. 2 ... ... ... : ... .. 2 ... ... ... : --- .. . ... : ... .. . ... : ... .. . ... ... : ... .. 4 ... ... : ... .. . ... ... : --- .. . P82 ...
ROW D8 : D#2 00 F ... ... ... : A#2 00 F ... ... ... : D#3 00 . ... : ... .. 7 ... : ... .. . ... ... : F-3 01 6 ... ... : ... .. . ... ... : D#1 01 C P80 ...
ROW D9 : ... .. E ... ... ... : ... .. E ... ... ... : ... .. . ... : ... .. . ... : ... .. . ... ... : ... .. . ... ... : ... .. . ... ... : ... .. A ... ...
ROW DA : ... .. D ... ... ... : ... .. D ... ... ... : ... .. . ... : ... .. 6 ... : ... .. . ... ... : ... .. 5 ... ... : ... .. . ... ... : ... .. 6 ... ...
ROW DB : ... .. A ... ... ... : ... .. A ... ... ... : ... .. . ... : ... .. . ... : ... .. . ... ... : ... .. 4 ... ... : ... .. . ... ... : ... .. . ... ...
ROW DC : ... .. . ... ... ... : ... .. . ... ... ... : ... .. . ... : ... .. 5 ... : ... .. . ... ... : F#3 01 6 ... ... : ... .. . ... ... : ... .. . ... ...
ROW DD : ... .. . ... ... ... : ... .. . ... ... ... : ... .. . ... : ... .. . ... : ... .. . ... ... : ... .. . ... ... : ... .. . ... ... : ... .. . ... ...
ROW DE : ... .. . ... ... ... : ... .. . ... ... ... : ... .. . ... : ... .. 4 ... : ... .. . ... ... : ... .. 5 ... ... : ... .. . ... ... : ... .. . ... ...
ROW DF : ... .. 2 ... ... ... : ... .. 2 ... ... ... : --- .. . ... : ... .. . ... : ... .. . ... ... : ... .. 4 ... ... : ... .. . ... ... : --- .. . P81 ...
ROW E0 : D-2 00 F ... ... ... : A-2 00 F ... ... ... : D-3 00 . ... : 5-# 00 F ... : ... .. . ... ... : C-3 01 6 ... ... : ... .. . ... ... : D-1 01 C P80 ...
ROW E1 : ... .. E ... ... ... : ... .. E ... ... ... : ... .. . ... : ... .. C ... : ... .. . ... ... : ... .. . ... ... : ... .. . ... ... : ... .. A ... ...
ROW E2 : ... .. D ... ... ... : ... .. D ... ... ... : ... .. . ... : B-# 00 6 ... : ... .. . ... ... : ... .. 5 ... ... : ... .. . ... ... : ... .. 6 ... ...
ROW E3 : ... .. A ... ... ... : ... .. A ... ... ... : ... .. . ... : ... .. 5 ... : ... .. . ... ... : ... .. 4 ... ... : ... .. . ... ... : ... .. . ... ...
ROW E4 : ... .. . ... ... ... : ... .. . ... ... ... : ... .. . ... : ... .. . ... : ... .. . ... ... : D-3 01 6 ... ... : ... .. . ... ... : ... .. . ... ...
ROW E5 : ... .. . ... ... ... : ... .. . ... ... ... : ... .. . ... : ... .. . ... : ... .. . ... ... : ... .. . ... ... : ... .. . ... ... : ... .. . ... ...
ROW E6 : ... .. . ... ... ... : ... .. . ... ... ... : ... .. . ... : ... .. 4 ... : ... .. . ... ... : ... .. 5 ... ... : ... .. . ... ... : ... .. . ... ...
ROW E7 : ... .. 2 ... ... ... : ... .. 2 ... ... ... : --- .. . ... : ... .. 3 ... : ... .. . ... ... : ... .. 4 ... ... : ... .. . ... ... : --- .. . ... ...
ROW E8 : F-1 00 F ... ... ... : C-2 00 F ... ... ... : F-2 00 . ... : 1-# 00 F ... : ... .. . ... ... : D#3 01 6 ... ... : ... .. . ... ... : F-0 01 C ... ...
ROW E9 : ... .. E ... ... ... : ... .. E ... ... ... : ... .. . ... : ... .. C ... : ... .. . ... ... : ... .. . ... ... : ... .. . ... ... : ... .. A ... ...
ROW EA : ... .. D ... ... ... : ... .. D ... ... ... : ... .. . ... : ... .. 6 ... : ... .. . ... ... : ... .. 5 ... ... : ... .. . ... ... : ... .. 6 ... ...
ROW EB : ... .. A ... ... ... : ... .. A ... ... ... : ... .. . ... : ... .. 3 ... : ... .. . ... ... : ... .. 4 ... ... : ... .. . ... ... : ... .. . ... ...
ROW EC : ... .. . ... ... ... : ... .. . ... ... ... : ... .. . ... : ... .. 2 ... : ... .. . ... ... : F-3 01 6 ... ... : ... .. 2 ... ... : ... .. . ... ...
ROW ED : ... .. . ... ... ... : ... .. . ... ... ... : ... .. . ... : ... .. 0 ... : ... .. . ... ... : ... .. . ... ... : ... .. . ... ... : ... .. . ... ...
ROW EE : ... .. . ... ... ... : ... .. . ... ... ... : ... .. . ... : ... .. . ... : ... .. . ... ... : ... .. 5 ... ... : ... .. . ... ... : ... .. . ... ...
ROW EF : ... .. 2 ... ... ... : ... .. 2 ... ... ... : --- .. . ... : ... .. . ... : ... .. . ... ... : ... .. 4 ... ... : ... .. . ... ... : --- .. . P82 ...
ROW F0 : C-2 00 F ... ... ... : G-2 00 F ... ... ... : C-3 00 . ... : ... .. F ... : ... .. . ... ... : D-3 01 6 ... ... : ... .. . ... ... : C-1 01 C P80 ...
ROW F1 : ... .. E ... ... ... : ... .. E ... ... ... : ... .. . ... : ... .. C ... : ... .. . ... ... : ... .. . ... ... : ... .. . ... ... : ... .. A ... ...
ROW F2 : ... .. D ... ... ... : ... .. D ... ... ... : ... .. . ... : B-# 00 6 ... : ... .. . ... ... : ... .. 5 ... ... : ... .. . ... ... : ... .. 6 ... ...
ROW F3 : ... .. A ... ... ... : ... .. A ... ... ... : ... .. . ... : ... .. 5 ... : ... .. . ... ... : ... .. 4 ... ... : ... .. . ... ... : ... .. . ... ...
ROW F4 : ... .. . ... ... ... : ... .. . ... ... ... : ... .. . ... : ... .. . ... : ... .. . ... ... : D#3 01 6 ... ... : ... .. . ... ... : ... .. . ... ...
ROW F5 : ... .. . ... ... ... : ... .. . ... ... ... : ... .. . ... : ... .. . ... : ... .. . ... ... : ... .. . ... ... : ... .. . ... ... : ... .. . ... ...
ROW F6 : ... .. . ... ... ... : ... .. . ... ... ... : ... .. . ... : ... .. 4 ... : ... .. . ... ... : ... .. 5 ... ... : ... .. . ... ... : ... .. . ... ...
ROW F7 : ... .. 2 ... ... ... : ... .. 2 ... ... ... : --- .. . ... : ... .. 3 ... : ... .. . ... ... : ... .. 4 ... ... : ... .. . ... ... : --- .. . ... ...
ROW F8 : B-1 00 F ... ... ... : F#2 00 F ... ... ... : B-2 00 . ... : 1-# 00 F ... : ... .. . ... ... : F-3 01 6 ... ... : ... .. . ... ... : B-0 01 C ... ...
ROW F9 : ... .. E ... ... ... : ... .. E ... ... ... : ... .. . ... : ... .. C ... : ... .. . ... ... : ... .. . ... ... : ... .. . ... ... : ... .. A ... ...
ROW FA : ... .. D ... ... ... : ... .. D ... ... ... : ... .. . ... : ... .. 6 ... : ... .. . ... ... : ... .. 5 ... ... : ... .. . ... ... : ... .. 6 ... ...
ROW FB : ... .. A ... ... ... : ... .. A ... ... ... : ... .. . ... : ... .. 3 ... : ... .. . ... ... : ... .. 4 ... ... : ... .. . ... ... : ... .. . ... ...
ROW FC : ... .. . ... ... ... : ... .. . ... ... ... : ... .. . ... : ... .. 2 ... : ... .. . ... ... : F#3 01 6 ... ... : ... .. . ... ... : ... .. . ... ...
ROW FD : ... .. . ... ... ... : ... .. . ... ... ... : ... .. . ... : ... .. 0 ... : ... .. . ... ... : ... .. . ... ... : ... .. . ... ... : ... .. . ... ...
ROW FE : ... .. . ... ... ... : ... .. . ... ... ... : ... .. . ... : ... .. . ... : ... .. . ... ... : ... .. 5 ... ... : ... .. . ... ... : ... .. . ... ...
ROW FF : ... .. 2 ... ... ... : ... .. 2 ... ... ... : --- .. . ... : ... .. . ... : ... .. . ... ... : ... .. 4 ... ... : ... .. . ... ... : --- .. . ... ...

PATTERN 11
ROW 00 : F-1 00 F ... ... ... : C-2 00 F ... ... ... : F-2 00 . ... : 5-# 00 F ... : ... .. . ... ... : C-3 01 6 ... ... : ... .. . ... ... : F-0 01 C ... ...
ROW 01 : ... .. E ... ... ... : ... .. E ... ... ... : ... .. . ... : ... .. C ... : ... .. . ... ... : ... .. . ... ... : ... .. . ... ... : ... .. A ... ...
ROW 02 : ... .. D ... ... ... : ... .. D ... ... ... : ... .. . ... : B-# 00 6 ... : ... .. . ... ... : ... .. 5 ... ... : ... .. 3 ... ... : ... .. 6 ... ...
ROW 03 : ... .. A ... ... ... : ... .. A ... ... ... : ... .. . ... : ... .. 5 ... : ... .. . ... ... : ... .. 4 ... ... : ... .. . ... ... : ... .. . ... ...
ROW 04 : ... .. . ... ... ... : ... .. . ... ... ... : ... .. . ... : ... .. . ... : ... .. . ... ... : D-3 01 6 ... ... : ... .. . ... ... : ... .. . ... ...
ROW 05 : ... .. . ... ... ... : ... .. . ... ... ... : ... .. . ... : ... .. . ... : ... .. . ... ... : ... .. . ... ... : ... .. . ... ... : ... .. . ... ...
ROW 06 : ... .. . ... ... ... : ... .. . ... ... ... : ... .. . ... : ... .. 4 ... : ... .. . ... ... : ... .. 5 ... ... : ... .. . ... ... : ... .. . ... ...
ROW 07 : ... .. 2 ... ... ... : ... .. 2 ... ... ... : --- .. . ... : ... .. 3 ... : ... .. . ... ... : ... .. 4 ... ... : ... .. . ... ... : --- .. . P82 ...
ROW 08 : D#2 00 F ... ... ... : A#2 00 F ... ... ... : D#3 00 . ... : 1-# 00 F ... : ... .. . ... ... : D#3 01 6 ... ... : ... .. . ... ... : D#1 01 C P80 ...
ROW 09 : ... .. E ... ... ... : ... .. E ... ... ... : ... .. . ... : ... .. C ... : ... .. . ... ... : ... .. . ... ... : ... .. . ... ... : ... .. A ... ...
ROW 0A : ... .. D ... ... ... : ... .. D ... ... ... : ... .. . ... : ... .. 6 ... : ... .. . ... ... : ... .. 5 ... ... : ... .. . ... ... : ... .. 6 ... ...
ROW 0B : ... .. A ... ... ... : ... .. A ... ... ... : ... .. . ... : ... .. 3 ... : ... .. . ... ... : ... .. 4 ... ... : ... .. . ... ... : ... .. . ... ...
ROW 0C : ... .. . ... ... ... : ... .. . ... ... ... : ... .. . ... : ... .. 2 ... : ... .. . ... ... : F-3 01 6 ... ... : ... .. . ... ... : ... .. . ... ...
ROW 0D : ... .. . ... ... ... : ... .. . ... ... ... : ... .. . ... : ... .. 0 ... : ... .. . ... ... : ... .. . ... ... : ... .. . ... ... : ... .. . ... ...
ROW 0E : ... .. . ... ... ... : ... .. . ... ... ... : ... .. . ... : ... .. . ... : ... .. . ... ... : ... .. 5 ... ... : ... .. 4 ... ... : ... .. . ... ...
ROW 0F : ... .. 2 ... ... ... : ... .. 2 ... ... ... : --- .. . ... : ... .. . ... : ... .. . ... ... : ... .. 4 ... ... : ... .. . ... ... : --- .. . P81 ...
ROW 10 : D-2 00 F ... ... ... : A-2 00 F ... ... ... : D-3 00 . ... : ... .. F ... : ... .. . ... ... : D-3 01 6 ... ... : ... .. . ... ... : D-1 01 C P80 ...
ROW 11 : ... .. E ... ... ... : ... .. E ... ... ... : ... .. . ... : ... .. C ... : ... .. . ... ... : ... .. . ... ... : ... .. . ... ... : ... .. A ... ...
ROW 12 : ... .. D ... ... ... : ... .. D ... ... ... : ... .. . ... : B-# 00 6 ... : ... .. . ... ... : ... .. 5 ... ... : ... .. . ... ... : ... .. 6 ... ...
ROW 13 : ... .. A ... ... ... : ... .. A ... ... ... : ... .. . ... : ... .. 5 ... : ... .. . ... ... : ... .. 4 ... ... : ... .. . ... ... : ... .. . ... ...
ROW 14 : ... .. . ... ... ... : ... .. . ... ... ... : ... .. . ... : ... .. . ... : ... .. . ... ... : D#3 01 6 ... ... : ... .. . ... ... : ... .. . ... ...
ROW 15 : ... .. . ... ... ... : ... .. . ... ... ... : ... .. . ... : ... .. . ... : ... .. . ... ... : ... .. . ... ... : ... .. . ... ... : ... .. . ... ...
ROW 16 : ... .. . ... ... ... : ... .. . ... ... ... : ... .. . ... : ... .. 4 ... : ... .. . ... ... : ... .. 5 ... ... : ... .. . ... ... : ... .. . ... ...
ROW 17 : ... .. 2 ... ... ... : ... .. 2 ... ... ... : --- .. . ... : ... .. 3 ... : ... .. . ... ... : ... .. 4 ... ... : ... .. . ... ... : --- .. . ... ...
ROW 18 : F-1 00 F ... ... ... : C-2 00 F ... ... ... : F-2 00 . ... : 1-# 00 F ... : ... .. . ... ... : F-3 01 6 ... ... : ... .. . ... ... : F-0 01 C ... ...
ROW 19 : ... .. E ... ... ... : ... .. E ... ... ... : ... .. . ... : ... .. C ... : ... .. . ... ... : ... .. . ... ... : ... .. . ... ... : ... .. A ... ...
ROW 1A : ... .. D ... ... ... : ... .. D ... ... ... : ... .. . ... : ... .. 6 ... : ... .. . ... ... : ... .. 5 ... ... : ... .. . ... ... : ... .. 6 ... ...
ROW 1B : ... .. A ... ... ... : ... .. A ... ... ... : ... .. . ... : ... .. 3 ... : ... .. . ... ... : ... .. 4 ... ... : ... .. . ... ... : ... .. . ... ...
ROW 1C : ... .. . ... ... ... : ... .. . ... ... ... : ... .. . ... : ... .. 2 ... : ... .. . ... ... : F#3 01 6 ... ... : ... .. . ... ... : ... .. . ... ...
ROW 1D : ... .. . ... ... ... : ... .. . ... ... ... : ... .. . ... : ... .. 0 ... : ... .. . ... ... : ... .. . ... ... : ... .. . ... ... : ... .. . ... ...
ROW 1E : ... .. . ... ... ... : ... .. . ... ... ... : ... .. . ... : ... .. . ... : ... .. . ... ... : ... .. 5 ... ... : ... .. . ... ... : ... .. . ... ...
ROW 1F : ... .. 2 ... ... ... : ... .. 2 ... ... ... : --- .. . ... : ... .. . ... : ... .. . ... ... : ... .. 4 ... ... : ... .. . ... ... : --- .. . P82 ...
ROW 20 : C-2 00 F ... ... ... : G-2 00 F ... ... ... : C-3 00 . ... : 5-# 00 F ... : ... .. . ... ... : C-3 01 6 ... ... : ... .. . ... ... : C-1 01 C P80 ...
ROW 21 : ... .. E ... ... ... : ... .. E ... ... ... : ... .. . ... : ... .. C ... : ... .. . ... ... : ... .. . ... ... : ... .. . ... ... : ... .. A ... ...
ROW 22 : ... .. D ... ... ... : ... .. D ... ... ... : ... .. . ... : B-# 00 6 ... : ... .. . ... ... : ... .. 5 ... ... : ... .. . ... ... : ... .. 6 ... ...
ROW 23 : ... .. A ... ... ... : ... .. A ... ... ... : ... .. . ... : ... .. 5 ... : ... .. . ... ... : ... .. 4 ... ... : ... .. . ... ... : ... .. . ... ...
ROW 24 : ... .. . ... ... ... : ... .. . ... ... ... : ... .. . ... : ... .. . ... : ... .. . ... ... : D-3 01 6 ... ... : ... .. 5 P81 ... : ... .. . ... ...
ROW 25 : ... .. . ... ... ... : ... .. . ... ... ... : ... .. . ... : ... .. . ... : ... .. . ... ... : ... .. . ... ... : ... .. . P82 ... : ... .. . ... ...
ROW 26 : ... .. . ... ... ... : ... .. . ... ... ... : ... .. . ... : ... .. 4 ... : ... .. . ... ... : ... .. 5 ... ... : ... .. . ... ... : ... .. . ... ...
ROW 27 : ... .. 2 ... ... ... : ... .. 2 ... ... ... : --- .. . ... : ... .. 3 ... : ... .. . ... ... : ... .. 4 ... ... : ... .. . P80 ... : --- .. . ... ...
ROW 28 : B-1 00 F ... ... ... : F#2 00 F ... ... ... : B-2 00 . ... : 1-# 00 F ... : ... .. . ... ... : D#3 01 6 ... ... : ... .. . P7E ... : B-0 01 C ... ...
ROW 29 : ... .. E ... ... ... : ... .. E ... ... ... : ... .. . ... : ... .. C ... : ... .. . ... ... : ... .. . ... ... : E-5 01 5 P81 ... : ... .. A ... ...
ROW 2A : ... .. D ... ... ... : ... .. D ... ... ... : ... .. . ... : ... .. 6 ... : ... .. . ... ... : ... .. 5 ... ... : ... .. . ... ... : ... .. 6 ... ...
ROW 2B : ... .. A ... ... ... : ... .. A ... ... ... : ... .. . ... : ... .. 3 ... : ... .. . ... ... : ... .. 4 ... ... : ... .. . P82 ... : ... .. . ... ...
ROW 2C : ... .. . ... ... ... : ... .. . ... ... ... : ... .. . ... : ... .. 2 ... : ... .. . ... ... : F-3 01 6 ... ... : F-5 01 5 P7F ... : ... .. . ... ...
ROW 2D : ... .. . ... ... ... : ... .. . ... ... ... : ... .. . ... : ... .. 0 ... : ... .. . ... ... : ... .. . ... ... : ... .. . P81 ... : ... .. . ... ...
ROW 2E : ... .. . ... ... ... : ... .. . ... ... ... : ... .. . ... : ... .. . ... : ... .. . ... ... : ... .. 5 ... ... : ... .. . P82 ... : ... .. . ... ...
ROW 2F : ... .. 2 ... ... ... : ... .. 2 ... ... ... : --- .. . ... : ... .. . ... : ... .. . ... ... : ... .. 4 ... ... : ... .. . ... ... : --- .. . ... ...
ROW 30 : G#3 00 F ... ... ... : D#4 00 F ... ... ... : G-5 00 . ... : ... .. F ... : ... .. . ... ... : D-3 01 6 ... ... : ... .. 6 P80 ... : G#1 01 C ... ...
ROW 31 : ... .. E ... ... ... : ... .. E ... ... ... : A-4 00 . ... : ... .. C ... : ... .. . ... ... : ... .. . ... ... : ... .. . P7F ... : ... .. A ... ...
ROW 32 : ... .. D ... ... ... : ... .. D ... ... ... : D-4 00 . ... : B-# 00 6 ... : ... .. . ... ... : ... .. 5 ... ... : E-5 01 6 P81 ... : ... .. 6 P60 ...
ROW 33 : ... .. A ... ... ... : ... .. A ... ... ... : C#4 00 . ... : ... .. 5 ... : ... .. . ... ... : ... .. 4 ... ... : ... .. . ... ... : G-1 01 6 P8A ...
ROW 34 : D#3 00 F ... ... ... : A#3 00 F ... ... ... : G#3 00 . ... : ... .. . ... : ... .. . ... ... : D#3 01 6 ... ... : ... .. . P82 ... : ... .. . P6A ...
ROW 35 : ... .. E ... ... ... : ... .. E ... ... ... : ... .. . ... : ... .. . ... : ... .. . ... ... : ... .. . ... ... : F-5 01 6 P7F ... : F#1 01 6 P97 ...
ROW 36 : ... .. A ... ... ... : ... .. A ... ... ... : F#3 00 . P81 : ... .. 4 ... : ... .. . ... ... : ... .. 5 ... ... : ... .. . P80 ... : ... .. . P77 ...
ROW 37 : ... .. 2 ... ... ... : ... .. 2 ... ... ... : E-3 00 . P86 : ... .. 3 ... : ... .. . ... ... : ... .. 4 ... ... : ... .. . P82 ... : F-1 01 6 PA9 ...
ROW 38 : B-2 00 F ... ... ... : F#3 00 F ... ... ... : D#3 00 . P7B : 1-# 00 F ... : ... .. . ... ... : F-3 01 6 ... ... : ... .. . ... ... : ... .. . P89 ...
ROW 39 : ... .. E ... ... ... : ... .. E ... ... ... : C#3 00 . P87 : ... .. C ... : ... .. . ... ... : ... .. . ... ... : ... .. . P80 ... : ... .. . P69 ...
ROW 3A : ... .. A ... ... ... : ... .. A ... ... ... : C-3 00 . P7F : ... .. 6 ... : ... .. . ... ... : ... .. 5 ... ... : ... .. . P7F ... : E-1 01 6 PA0 ...
ROW 3B : ... .. 2 ... ... ... : ... .. 2 ... ... ... : B-2 00 . P78 : ... .. 3 ... : ... .. . ... ... : ... .. 4 ... ... : E-5 01 6 P82 ... : ... .. . P80 ...
ROW 3C : G#2 00 F ... ... ... : D#3 00 F ... ... ... : A#2 00 . P73 : ... .. F ... : ... .. . ... ... : F#3 01 6 ... ... : ... .. . P81 ... : ... .. . P60 ...
ROW 3D : ... .. E ... ... ... : ... .. E ... ... ... : G#2 00 . P8E : ... .. C ... : ... .. . ... ... : ... .. . ... ... : ... .. . ... ... : D#1 01 6 P9D ...
ROW 3E : ... .. A ... ... ... : ... .. A ... ... ... : G-2 00 . ... : ... .. 6 ... : ... .. . ... ... : ... .. 5 ... ... : F-5 01 6 P7F ... : ... .. . P7D ...
ROW 3F : ... .. 2 ... ... ... : ... .. 2 ... ... ... : F#2 00 . P90 : ... .. 3 ... : ... .. . ... ... : ... .. 4 ... ... : ... .. . P80 ... : ... .. . P5D ...
ROW 40 : D#2 00 F ... ... ... : A#2 00 F ... ... ... : ... .. . P70 : 5-# 00 F ... : ... .. . ... ... : C-3 01 6 ... ... : ... .. . P82 ... : D-1 01 6 P9E ...
ROW 41 : ... .. E ... ... ... : ... .. E ... ... ... : F-2 00 . P74 : ... .. C ... : ... .. . ... ... : ... .. . ... ... : ... .. . ... ... : ... .. . P7E ...
ROW 42 : ... .. D ... ... ... : ... .. D ... ... ... : E-2 00 . P7A : B-# 00 6 ... : ... .. . ... ... : ... .. 5 ... ... : ... .. . P81 ... : ... .. . P5E ...
ROW 43 : ... .. A ... ... ... : ... .. A ... ... ... : D#2 00 . P82 : ... .. 5 ... : ... .. . ... ... : ... .. 4 ... ... : ... .. . P7F ... : C#1 01 6 PA6 ...
ROW 44 : B-1 00 F ... ... ... : F#2 00 F ... ... ... : D-2 00 . P8D : ... .. . ... : ... .. . ... ... : D-3 01 6 ... ... : E-5 01 6 P82 ... : ... .. . P86 ...
ROW 45 : ... .. E ... ... ... : ... .. E ... ... ... : ... .. . P6D : ... .. . ... : ... .. . ... ... : ... .. . ... ... : ... .. . P81 ... : ... .. . P66 ...
ROW 46 : ... .. A ... ... ... : ... .. A ... ... ... : C#2 00 . P7A : ... .. 4 ... : ... .. . ... ... : ... .. 5 ... ... : ... .. . ... ... : C-1 01 6 PB4 ...
ROW 47 : ... .. 2 ... ... ... : ... .. 2 ... ... ... : C-2 00 . P8A : ... .. 3 ... : ... .. . ... ... : ... .. 4 ... ... : F-5 01 6 P7E ... : ... .. . P94 ...
ROW 48 : G#1 00 F ... ... ... : D#2 00 F ... ... ... : ... .. . P6A : C-# 00 F ... : ... .. . ... ... : D#3 01 6 ... ... : ... .. . P80 ... : ... .. . P74 ...
ROW 49 : ... .. E ... ... ... : ... .. E ... ... ... : B-1 00 . P7D : ... .. C ... : ... .. . ... ... : ... .. . ... ... : ... .. . P82 ... : ... .. . P54 ...
ROW 4A : ... .. A ... ... ... : ... .. A ... ... ... : A#1 00 . P93 : ... .. 6 ... : ... .. . ... ... : ... .. 5 ... ... : ... .. . ... ... : B-0 01 6 PA8 ...
ROW 4B : ... .. 2 ... ... ... : ... .. 2 ... ... ... : ... .. . P73 : ... .. 3 ... : ... .. . ... ... : ... .. 4 ... ... : ... .. . P81 ... : ... .. . P88 ...
ROW 4C : D#1 00 F ... ... ... : A#1 00 F ... ... ... : A-1 00 . P8C : ... .. F ... : ... .. . ... ... : F-3 01 6 ... ... : ... .. . P7F ... : ... .. . P68 ...
ROW 4D : ... .. E ... ... ... : ... .. E ... ... ... : ... .. . P6C : ... .. C ... : ... .. . ... ... : ... .. . ... ... : E-5 01 6 P82 ... : ... .. . P48 ...
ROW 4E : ... .. A ... ... ... : ... .. A ... ... ... : G#1 00 . P88 : ... .. 6 ... : ... .. . ... ... : ... .. 5 ... ... : ... .. . P81 ... : A#0 01 6 PA3 ...
ROW 4F : ... .. 2 ... ... ... : ... .. 2 ... ... ... : ... .. . P68 : ... .. 3 ... : ... .. . ... ... : ... .. 4 ... ... : ... .. . ... ... : ... .. . P83 ...
ROW 50 : F-1 00 F ... ... ... : C-2 00 F ... ... ... : E-4 00 . P80 : 1-# 00 F ... : ... .. . ... ... : D-3 01 6 ... ... : F-5 01 6 P7E ... : F-0 01 C P80 ...
ROW 51 : ... .. E ... ... ... : ... .. E ... ... ... : F#3 00 . ... : ... .. C ... : ... .. . ... ... : ... .. . ... ... : ... .. . P7F ... : ... .. A ... ...
ROW 52 : ... .. D ... ... ... : ... .. D ... ... ... : B-2 00 . ... : B-# 00 6 ... : ... .. . ... ... : ... .. 5 ... ... : ... .. . P82 ... : ... .. 6 ... ...
ROW 53 : ... .. A ... ... ... : ... .. A ... ... ... : A#2 00 . ... : ... .. 5 ... : ... .. . ... ... : ... .. 4 ... ... : ... .. . ... ... : ... .. . ... ...
ROW 54 : ... .. F ... ... ... : ... .. F ... ... ... : F-2 00 . ... : ... .. . ... : ... .. . ... ... : D#3 01 6 ... ... : ... .. . P81 ... : ... .. . ... ...
ROW 55 : ... .. E ... ... ... : ... .. E ... ... ... : ... .. . ... : ... .. . ... : ... .. . ... ... : ... .. . ... ... : ... .. . P7F ... : ... .. . ... ...
ROW 56 : ... .. D ... ... ... : ... .. D ... ... ... : ... .. . ... : ... .. 4 ... : ... .. . ... ... : ... .. 5 ... ... : ... .. . P7E ... : ... .. . ... ...
ROW 57 : ... .. A ... ... ... : ... .. A ... ... ... : --- .. . ... : ... .. 3 ... : ... .. . ... ... : ... .. 4 ... ... : E-5 01 6 P81 ... : --- .. . P82 ...
ROW 58 : D#2 00 F ... ... ... : A#2 00 F ... ... ... : D#3 00 . ... : 1-# 00 F ... : ... .. . ... ... : F-3 01 6 ... ... : ... .. . ... ... : D#1 01 C P80 ...
ROW 59 : ... .. E ... ... ... : ... .. E ... ... ... : ... .. . ... : ... .. C ... : ... .. . ... ... : ... .. . ... ... : F-5 01 6 P7E ... : ... .. A ... ...
ROW 5A : ... .. D ... ... ... : ... .. D ... ... ... : ... .. . ... : ... .. 6 ... : ... .. . ... ... : ... .. 5 ... ... : ... .. . P7F ... : ... .. 6 ... ...
ROW 5B : ... .. A ... ... ... : ... .. A ... ... ... : ... .. . ... : ... .. 3 ... : ... .. . ... ... : ... .. 4 ... ... : ... .. . P81 ... : ... .. . ... ...
ROW 5C : ... .. . ... ... ... : ... .. . ... ... ... : ... .. . ... : ... .. 2 ... : ... .. . ... ... : F#3 01 6 ... ... : ... .. . P82 ... : ... .. . ... ...
ROW 5D : ... .. . ... ... ... : ... .. . ... ... ... : ... .. . ... : ... .. 0 ... : ... .. . ... ... : ... .. . ... ... : ... .. . ... ... : ... .. . ... ...
ROW 5E : ... .. . ... ... ... : ... .. . ... ... ... : ... .. . ... : ... .. . ... : ... .. . ... ... : ... .. 5 ... ... : ... .. . P7F ... : ... .. . ... ...
ROW 5F : ... .. . ... ... ... : ... .. . ... ... ... : --- .. . ... : ... .. . ... : ... .. . ... ... : ... .. 4 ... ... : ... .. . ... ... : --- .. . P81 ...
ROW 60 : D-2 00 F ... ... ... : A-2 00 F ... ... ... : D-3 00 . ... : 5-# 00 F ... : ... .. . ... ... : C-3 01 6 ... ... : ... .. . P7E ... : D-1 01 C P80 ...
ROW 61 : ... .. E ... ... ... : ... .. E ... ... ... : ... .. . ... : ... .. C ... : ... .. . ... ... : ... .. . ... ... : E-5 01 6 P82 ... : ... .. A ... ...
ROW 62 : ... .. D ... ... ... : ... .. D ... ... ... : ... .. . ... : B-# 00 6 ... : ... .. . ... ... : ... .. 5 ... ... : ... .. . P81 ... : ... .. 6 ... ...
ROW 63 : ... .. A ... ... ... : ... .. A ... ... ... : ... .. . ... : ... .. 5 ... : ... .. . ... ... : ... .. 4 ... ... : ... .. . P80 ... : ... .. . ... ...
ROW 64 : ... .. . ... ... ... : ... .. . ... ... ... : ... .. . ... : ... .. . ... : ... .. . ... ... : D-3 01 6 ... ... : ... .. . P7F ... : ... .. . ... ...
ROW 65 : ... .. . ... ... ... : ... .. . ... ... ... : ... .. . ... : ... .. . ... : ... .. . ... ... : ... .. . ... ... : ... .. . P7E ... : ... .. . ... ...
ROW 66 : ... .. . ... ... ... : ... .. . ... ... ... : ... .. . ... : ... .. 4 ... : ... .. . ... ... : ... .. 5 ... ... : D#5 01 6 P82 ... : ... .. . ... ...
ROW 67 : ... .. . ... ... ... : ... .. . ... ... ... : --- .. . ... : ... .. 3 ... : ... .. . ... ... : ... .. 4 ... ... : ... .. . P81 ... : --- .. . ... ...
ROW 68 : F-1 00 F ... ... ... : C-2 00 F ... ... ... : F-2 00 . ... : 1-# 00 F ... : ... .. . ... ... : D#3 01 6 ... ... : ... .. . P80 ... : F-0 01 C ... ...
ROW 69 : ... .. E ... ... ... : ... .. E ... ... ... : ... .. . ... : ... .. C ... : ... .. . ... ... : ... .. . ... ... : ... .. . P7F ... : ... .. A ... ...
ROW 6A : ... .. A ... ... ... : ... .. A ... ... ... : ... .. . ... : ... .. 6 ... : ... .. . ... ... : ... .. 5 ... ... : ... .. . P7E ... : ... .. 6 ... ...
ROW 6B : ... .. 2 ... ... ... : ... .. 2 ... ... ... : ... .. . ... : ... .. 3 ... : ... .. . ... ... : ... .. 4 ... ... : D-5 01 6 P82 ... : ... .. . ... ...
ROW 6C : ... .. F ... ... ... : ... .. F ... ... ... : ... .. . ... : ... .. 2 ... : ... .. . ... ... : F-3 01 6 ... ... : ... .. . P81 ... : ... .. . ... ...
ROW 6D : ... .. E ... ... ... : ... .. E ... ... ... : ... .. . ... : ... .. 0 ... : ... .. . ... ... : ... .. . ... ... : ... .. . P80 ... : ... .. . ... ...
ROW 6E : ... .. A ... ... ... : ... .. A ... ... ... : ... .. . ... : ... .. . ... : ... .. . ... ... : ... .. 5 ... ... : ... .. . P7F ... : ... .. . ... ...
ROW 6F : ... .. 2 ... ... ... : ... .. 2 ... ... ... : --- .. . ... : ... .. . ... : ... .. . ... ... : ... .. 4 ... ... : ... .. . P7E ... : --- .. . P82 ...
ROW 70 : C-2 00 F ... ... ... : G-2 00 F ... ... ... : C-3 00 . ... : ... .. F ... : ... .. . ... ... : D-3 01 6 ... ... : C#5 01 6 P83 ... : C-1 01 C P80 ...
ROW 71 : ... .. E ... ... ... : ... .. E ... ... ... : ... .. . ... : ... .. C ... : ... .. . ... ... : ... .. . ... ... : ... .. . P82 ... : ... .. A ... ...
ROW 72 : ... .. D ... ... ... : ... .. D ... ... ... : ... .. . ... : B-# 00 6 ... : ... .. . ... ... : ... .. 5 ... ... : ... .. . P81 ... : ... .. 6 ... ...
ROW 73 : ... .. A ... ... ... : ... .. A ... ... ... : ... .. . ... : ... .. 5 ... : ... .. . ... ... : ... .. 4 ... ... : ... .. . P80 ... : ... .. . ... ...
ROW 74 : ... .. . ... ... ... : ... .. . ... ... ... : ... .. . ... : ... .. . ... : ... .. . ... ... : D#3 01 6 ... ... : ... .. . P7F ... : ... .. . ... ...
ROW 75 : ... .. . ... ... ... : ... .. . ... ... ... : ... .. . ... : ... .. . ... : ... .. . ... ... : ... .. . ... ... : ... .. . P7E ... : ... .. . ... ...
ROW 76 : ... .. . ... ... ... : ... .. . ... ... ... : ... .. . ... : ... .. 4 ... : ... .. . ... ... : ... .. 5 ... ... : C-5 01 6 P83 ... : ... .. . ... ...
ROW 77 : ... .. 2 ... ... ... : ... .. 2 ... ... ... : --- .. . ... : ... .. 3 ... : ... .. . ... ... : ... .. 4 ... ... : ... .. . P82 ... : --- .. . ... ...
ROW 78 : B-1 00 F ... ... ... : F#2 00 F ... ... ... : B-2 00 . ... : 1-# 00 F ... : ... .. . ... ... : F-3 01 6 ... ... : ... .. . P81 ... : B-0 01 C ... ...
ROW 79 : ... .. E ... ... ... : ... .. E ... ... ... : ... .. . ... : ... .. C ... : ... .. . ... ... : ... .. . ... ... : ... .. . P80 ... : ... .. A ... ...
ROW 7A : ... .. D ... ... ... : ... .. D ... ... ... : ... .. . ... : ... .. 6 ... : ... .. . ... ... : ... .. 5 ... ... : ... .. . P7F ... : ... .. 6 ... ...
ROW 7B : ... .. A ... ... ... : ... .. A ... ... ... : ... .. . ... : ... .. 3 ... : ... .. . ... ... : ... .. 4 ... ... : ... .. . P7E ... : ... .. . ... ...
ROW 7C : ... .. . ... ... ... : ... .. . ... ... ... : ... .. . ... : ... .. 2 ... : ... .. . ... ... : F#3 01 6 ... ... : B-4 01 6 P83 ... : ... .. . ... ...
ROW 7D : ... .. . ... ... ... : ... .. . ... ... ... : ... .. . ... : ... .. 0 ... : ... .. . ... ... : ... .. . ... ... : ... .. . P82 ... : ... .. . ... ...
ROW 7E : ... .. . ... ... ... : ... .. . ... ... ... : ... .. . ... : ... .. . ... : ... .. . ... ... : ... .. 5 ... ... : ... .. . P81 ... : ... .. . ... ...
ROW 7F : ... .. 2 ... ... ... : ... .. 2 ... ... ... : --- .. . ... : ... .. . ... : ... .. . ... ... : ... .. 4 ... ... : ... .. . P80 ... : --- .. . ... ...
ROW 80 : F-1 00 F ... ... ... : C-2 00 F ... ... ... : F-2 00 . ... : 5-# 00 F ... : ... .. . ... ... : C-3 01 6 ... ... : ... .. . P7F ... : F-0 01 C ... ...
ROW 81 : ... .. E ... ... ... : ... .. E ... ... ... : ... .. . ... : ... .. C ... : ... .. . ... ... : ... .. . ... ... : ... .. . P7E ... : ... .. A ... ...
ROW 82 : ... .. A ... ... ... : ... .. A ... ... ... : ... .. . ... : B-# 00 6 ... : ... .. . ... ... : ... .. 5 ... ... : ... .. . P7D ... : ... .. 6 ... ...
ROW 83 : ... .. 2 ... ... ... : ... .. 2 ... ... ... : ... .. . ... : ... .. 5 ... : ... .. . ... ... : ... .. 4 ... ... : A#4 01 6 P83 ... : ... .. . ... ...
ROW 84 : ... .. F ... ... ... : ... .. F ... ... ... : ... .. . ... : ... .. . ... : ... .. . ... ... : D-3 01 6 ... ... : ... .. . P82 ... : ... .. . ... ...
ROW 85 : ... .. E ... ... ... : ... .. E ... ... ... : ... .. . ... : ... .. . ... : ... .. . ... ... : ... .. . ... ... : ... .. . P81 ... : ... .. . ... ...
ROW 86 : ... .. A ... ... ... : ... .. A ... ... ... : ... .. . ... : ... .. 4 ... : ... .. . ... ... : ... .. 5 ... ... : ... .. . P80 ... : ... .. . ... ...
ROW 87 : ... .. 2 ... ... ... : ... .. 2 ... ... ... : --- .. . ... : ... .. 3 ... : ... .. . ... ... : ... .. 4 ... ... : ... .. . P7F ... : --- .. . P82 ...
ROW 88 : D#2 00 F ... ... ... : A#2 00 F ... ... ... : D#3 00 . ... : 1-# 00 F ... : ... .. . ... ... : D#3 01 6 ... ... : ... .. . P7E ... : D#1 01 C P80 ...
ROW 89 : ... .. E ... ... ... : ... .. E ... ... ... : ... .. . ... : ... .. C ... : ... .. . ... ... : ... .. . ... ... : ... .. . P7D ... : ... .. A ... ...
ROW 8A : ... .. D ... ... ... : ... .. D ... ... ... : ... .. . ... : ... .. 6 ... : ... .. . ... ... : ... .. 5 ... ... : A-4 01 6 P83 ... : ... .. 6 ... ...
ROW 8B : ... .. A ... ... ... : ... .. A ... ... ... : ... .. . ... : ... .. 3 ... : ... .. . ... ... : ... .. 4 ... ... : ... .. . P82 ... : ... .. . ... ...
ROW 8C : ... .. . ... ... ... : ... .. . ... ... ... : ... .. . ... : ... .. 2 ... : ... .. . ... ... : F-3 01 6 ... ... : ... .. . P81 ... : ... .. . ... ...
ROW 8D : ... .. . ... ... ... : ... .. . ... ... ... : ... .. . ... : ... .. 0 ... : ... .. . ... ... : ... .. . ... ... : ... .. . P80 ... : ... .. . ... ...
ROW 8E : ... .. . ... ... ... : ... .. . ... ... ... : ... .. . ... : ... .. . ... : ... .. . ... ... : ... .. 5 ... ... : ... .. . P7F ... : ... .. . ... ...
ROW 8F : ... .. 2 ... ... ... : ... .. 2 ... ... ... : --- .. . ... : ... .. . ... : ... .. . ... ... : ... .. 4 ... ... : ... .. . P7E ... : --- .. . P81 ...
ROW 90 : B-1 00 F ... ... ... : F#2 00 F ... ... ... : A#3 00 . ... : ... .. F ... : ... .. . ... ... : D-3 01 6 ... ... : ... .. . P7D ... : B-0 01 C P80 ...
ROW 91 : ... .. E ... ... ... : ... .. E ... ... ... : C-3 00 . ... : ... .. C ... : ... .. . ... ... : ... .. . ... ... : G#4 01 6 P84 ... : ... .. A ... ...
ROW 92 : ... .. D ... ... ... : ... .. D ... ... ... : F-2 00 . ... : B-# 00 6 ... : ... .. . ... ... : ... .. 5 ... ... : ... .. . P83 ... : ... .. 6 ... ...
ROW 93 : ... .. A ... ... ... : ... .. A ... ... ... : E-2 00 . ... : ... .. 5 ... : ... .. . ... ... : ... .. 4 ... ... : ... .. . P82 ... : ... .. . ... ...
ROW 94 : ... .. . ... ... ... : ... .. . ... ... ... : B-1 00 . ... : ... .. . ... : ... .. . ... ... : D#3 01 6 ... ... : ... .. . P81 ... : ... .. . ... ...
ROW 95 : ... .. . ... ... ... : ... .. . ... ... ... : ... .. . ... : ... .. . ... : ... .. . ... ... : ... .. . ... ... : ... .. . P80 ... : ... .. . ... ...
ROW 96 : ... .. . ... ... ... : ... .. . ... ... ... : ... .. . ... : ... .. 4 ... : ... .. . ... ... : ... .. 5 ... ... : ... .. . P7F ... : ... .. . ... ...
ROW 97 : ... .. 2 ... ... ... : ... .. 2 ... ... ... : --- .. . ... : ... .. 3 ... : ... .. . ... ... : ... .. 4 ... ... : ... .. . P7E ... : --- .. . ... ...
ROW 98 : F#2 00 F ... ... ... : C#3 00 F ... ... ... : F-4 00 . ... : 1-# 00 F ... : ... .. . ... ... : F-3 01 6 ... ... : ... .. . P7D ... : F#0 01 C ... ...
ROW 99 : ... .. E ... ... ... : ... .. E ... ... ... : G-3 00 . ... : ... .. C ... : ... .. . ... ... : ... .. . ... ... : G-4 01 6 P84 ... : ... .. A ... ...
ROW 9A : ... .. D ... ... ... : ... .. D ... ... ... : C-3 00 . ... : ... .. 6 ... : ... .. . ... ... : ... .. 5 ... ... : ... .. . P83 ... : ... .. 6 ... ...
ROW 9B : ... .. A ... ... ... : ... .. A ... ... ... : B-2 00 . ... : ... .. 3 ... : ... .. . ... ... : ... .. 4 ... ... : ... .. . P82 ... : ... .. . ... ...
ROW 9C : ... .. F ... ... ... : ... .. F ... ... ... : F#2 00 . ... : ... .. 2 ... : ... .. . ... ... : F#3 01 6 ... ... : ... .. . P81 ... : ... .. . ... ...
ROW 9D : ... .. E ... ... ... : ... .. E ... ... ... : ... .. . ... : ... .. 0 ... : ... .. . ... ... : ... .. . ... ... : ... .. . P80 ... : ... .. . ... ...
ROW 9E : ... .. D ... ... ... : ... .. D ... ... ... : ... .. . ... : ... .. . ... : ... .. . ... ... : ... .. 5 ... ... : ... .. . P7F ... : ... .. . ... ...
ROW 9F : ... .. 0 ... ... ... : ... .. 0 ... ... ... : --- .. . ... : ... .. . ... : ... .. . ... ... : ... .. 4 ... ... : ... .. . P7E ... : --- .. . P81 ...
ROW A0 : E-2 00 F P80 ... ... : B-2 00 F P80 ... ... : D#4 00 . ... : 8-# 00 F ... : ... .. . ... ... : C-3 01 6 ... ... : ... .. . P7D ... : E-0 01 C P80 ...
ROW A1 : ... .. E ... ... ... : ... .. E ... ... ... : F-3 00 . ... : ... .. C ... : ... .. . ... ... : ... .. . ... ... : F#4 01 6 P84 ... : ... .. A ... ...
ROW A2 : ... .. D ... ... ... : ... .. D ... ... ... : A#2 00 . ... : ... .. 6 ... : ... .. . ... ... : ... .. 5 ... ... : ... .. . P83 ... : ... .. 6 ... ...
ROW A3 : ... .. 0 ... ... ... : ... .. 0 ... ... ... : A-2 00 . ... : ... .. 3 ... : ... .. . ... ... : ... .. 4 ... ... : ... .. . P82 ... : ... .. . ... ...
ROW A4 : E-2 00 F P80 ... ... : B-2 00 F P80 ... ... : E-2 00 . ... : ... .. F ... : ... .. . ... ... : D-3 01 6 ... ... : ... .. . P81 ... : ... .. . ... ...
ROW A5 : ... .. E ... ... ... : ... .. E ... ... ... : ... .. . ... : ... .. C ... : ... .. . ... ... : ... .. . ... ... : ... .. . P80 ... : ... .. . ... ...
ROW A6 : ... .. D ... ... ... : ... .. D ... ... ... : ... .. . ... : ... .. 6 ... : ... .. . ... ... : ... .. 5 ... ... : ... .. . P7F ... : ... .. . ... ...
ROW A7 : ... .. 0 ... ... ... : ... .. 0 ... ... ... : ... .. . ... : ... .. 3 ... : ... .. . ... ... : ... .. 4 ... ... : ... .. . P7E ... : ... .. . ... ...
ROW A8 : B-2 00 F P80 ... ... : F#3 00 F P80 ... ... : A#4 00 . ... : 1-# 00 F ... : ... .. . ... ... : D#3 01 6 ... ... : ... .. . P7D ... : B-0 01 C ... ...
ROW A9 : ... .. E ... ... ... : ... .. E ... ... ... : C-4 00 . ... : ... .. C ... : ... .. . ... ... : ... .. . ... ... : ... .. . P7C ... : ... .. A ... ...
ROW AA : ... .. D ... ... ... : ... .. D ... ... ... : F-3 00 . ... : ... .. 6 ... : ... .. . ... ... : ... .. 5 ... ... : F-4 01 6 P84 ... : ... .. 6 ... ...
ROW AB : ... .. 0 ... ... ... : ... .. 0 ... ... ... : E-3 00 . ... : ... .. 3 ... : ... .. . ... ... : ... .. 4 ... ... : ... .. . P83 ... : ... .. . ... ...
ROW AC : B-2 00 F P80 ... ... : F#3 00 F P80 ... ... : B-2 00 . ... : ... .. F ... : ... .. . ... ... : F-3 01 6 ... ... : ... .. . P82 ... : ... .. . ... ...
ROW AD : ... .. E ... ... ... : ... .. E ... ... ... : ... .. . ... : ... .. C ... : ... .. . ... ... : ... .. . ... ... : ... .. . P81 ... : ... .. . ... ...
ROW AE : ... .. D ... ... ... : ... .. D ... ... ... : ... .. . ... : ... .. 6 ... : ... .. . ... ... : ... .. 5 ... ... : ... .. . P80 ... : ... .. . ... ...
ROW AF : ... .. 0 ... ... ... : ... .. 0 ... ... ... : ... .. . ... : ... .. 3 ... : ... .. . ... ... : ... .. 4 ... ... : ... .. . P7F ... : ... .. . ... ...
ROW B0 : A-2 00 F P80 ... ... : E-3 00 F P80 ... ... : G#4 00 . ... : 7-# 00 F ... : ... .. . ... ... : D-3 01 6 ... ... : ... .. . P7E ... : A-0 01 C ... ...
ROW B1 : ... .. E ... ... ... : ... .. E ... ... ... : A#3 00 . ... : ... .. C ... : ... .. . ... ... : ... .. . ... ... : ... .. . P7D ... : ... .. A ... ...
ROW B2 : ... .. D ... ... ... : ... .. D ... ... ... : D#3 00 . ... : ... .. 6 ... : ... .. . ... ... : ... .. 5 ... ... : ... .. . P7C ... : ... .. 6 ... ...
ROW B3 : ... .. 0 ... ... ... : ... .. 0 ... ... ... : D-3 00 . ... : ... .. 3 ... : ... .. . ... ... : ... .. 4 ... ... : E-4 01 6 P85 ... : ... .. . ... ...
ROW B4 : A-2 00 F P80 ... ... : E-3 00 F P80 ... ... : A-2 00 . ... : ... .. F ... : ... .. . ... ... : D#3 01 6 ... ... : ... .. . P84 ... : ... .. . ... ...
ROW B5 : ... .. E ... ... ... : ... .. E ... ... ... : ... .. . ... : ... .. C ... : ... .. . ... ... : ... .. . ... ... : ... .. . P83 ... : ... .. . ... ...
ROW B6 : ... .. D ... ... ... : ... .. D ... ... ... : ... .. . ... : ... .. 6 ... : ... .. . ... ... : ... .. 5 ... ... : ... .. . P82 ... : ... .. . ... ...
ROW B7 : ... .. 0 ... ... ... : ... .. 0 ... ... ... : ... .. . ... : ... .. 3 ... : ... .. . ... ... : ... .. 4 ... ... : ... .. . P81 ... : ... .. . ... ...
ROW B8 : D-3 00 F P80 ... ... : A-3 00 F P80 ... ... : C#5 00 . ... : 1-# 00 F ... : ... .. . ... ... : F-3 01 6 ... ... : ... .. . P80 ... : D-1 01 C ... ...
ROW B9 : ... .. E ... ... ... : ... .. E ... ... ... : D#4 00 . ... : ... .. C ... : ... .. . ... ... : ... .. . ... ... : ... .. . P7F ... : ... .. A ... ...
ROW BA : ... .. D ... ... ... : ... .. D ... ... ... : G#3 00 . ... : ... .. 6 ... : ... .. . ... ... : ... .. 5 ... ... : ... .. . P7E ... : ... .. 6 ... ...
ROW BB : ... .. 0 ... ... ... : ... .. 0 ... ... ... : G-3 00 . ... : ... .. 3 ... : ... .. . ... ... : ... .. 4 ... ... : ... .. . P7D ... : ... .. . ... ...
ROW BC : D-3 00 F P80 ... ... : A-3 00 F P80 ... ... : D-3 00 . ... : ... .. F ... : ... .. . ... ... : F#3 01 6 ... ... : ... .. . P7C ... : ... .. . ... ...
ROW BD : ... .. E ... ... ... : ... .. E ... ... ... : ... .. . ... : ... .. C ... : ... .. . ... ... : ... .. . ... ... : D#4 01 6 P85 ... : ... .. . ... ...
ROW BE : ... .. D ... ... ... : ... .. D ... ... ... : ... .. . ... : ... .. 6 ... : ... .. . ... ... : ... .. 5 ... ... : ... .. . P84 ... : ... .. . ... ...
ROW BF : ... .. 0 ... ... ... : ... .. 0 ... ... ... : ... .. . ... : ... .. 3 ... : ... .. . ... ... : ... .. 4 ... ... : ... .. . P83 ... : ... .. . ... ...
ROW C0 : C-3 00 F P80 ... ... : G-3 00 F P80 ... ... : B-4 00 . ... : 4-# 00 F ... : ... .. . ... ... : C-3 01 6 ... ... : ... .. . P82 ... : C-1 01 C ... ...
ROW C1 : ... .. E ... ... ... : ... .. E ... ... ... : C#4 00 . ... : ... .. C ... : ... .. . ... ... : ... .. . ... ... : ... .. . P81 ... : ... .. A ... ...
ROW C2 : ... .. D ... ... ... : ... .. D ... ... ... : F#3 00 . ... : ... .. 6 ... : ... .. . ... ... : ... .. 5 ... ... : ... .. . P80 ... : ... .. 6 ... ...
ROW C3 : ... .. 0 ... ... ... : ... .. 0 ... ... ... : F-3 00 . ... : ... .. 3 ... : ... .. . ... ... : ... .. 4 ... ... : ... .. . P7F ... : ... .. . ... ...
ROW C4 : C-3 00 F P80 ... ... : G-3 00 F P80 ... ... : C-3 00 . ... : ... .. F ... : ... .. . ... ... : D-3 01 6 ... ... : ... .. . P7E ... : ... .. . ... ...
ROW C5 : ... .. E ... ... ... : ... .. E ... ... ... : ... .. . ... : ... .. C ... : ... .. . ... ... : ... .. . ... ... : ... .. . P7D ... : ... .. . ... ...
ROW C6 : ... .. D ... ... ... : ... .. D ... ... ... : ... .. . ... : ... .. 6 ... : ... .. . ... ... : ... .. 5 ... ... : ... .. . P7C ... : ... .. . ... ...
ROW C7 : ... .. 0 ... ... ... : ... .. 0 ... ... ... : ... .. . ... : ... .. 3 ... : ... .. . ... ... : ... .. 4 ... ... : D-4 01 6 P85 ... : ... .. . ... ...
ROW C8 : F-3 00 F P80 ... ... : C-4 00 F P80 ... ... : E-5 00 . ... : 1-# 00 F ... : ... .. . ... ... : D#3 01 6 ... ... : ... .. . P84 ... : F-1 01 C ... ...
ROW C9 : ... .. E ... ... ... : ... .. E ... ... ... : F#4 00 . ... : ... .. C ... : ... .. . ... ... : ... .. . ... ... : ... .. . P83 ... : ... .. A ... ...
ROW CA : ... .. D ... ... ... : ... .. D ... ... ... : B-3 00 . ... : ... .. 6 ... : ... .. . ... ... : ... .. 5 ... ... : ... .. . P82 ... : ... .. 6 ... ...
ROW CB : ... .. 0 ... ... ... : ... .. 0 ... ... ... : A#3 00 . ... : ... .. 3 ... : ... .. . ... ... : ... .. 4 ... ... : ... .. . P81 ... : ... .. . ... ...
ROW CC : F-3 00 F P80 ... ... : C-4 00 F P80 ... ... : F-3 00 . ... : ... .. F ... : ... .. . ... ... : F-3 01 6 ... ... : ... .. . P80 ... : ... .. . ... ...
ROW CD : ... .. E ... ... ... : ... .. E ... ... ... : ... .. . ... : ... .. C ... : ... .. . ... ... : ... .. . ... ... : ... .. . P7F ... : ... .. . ... ...
ROW CE : ... .. D ... ... ... : ... .. D ... ... ... : ... .. . ... : ... .. 6 ... : ... .. . ... ... : ... .. 5 ... ... : --- .. . ... ... : ... .. . ... ...
ROW CF : ... .. 0 ... ... ... : ... .. 0 ... ... ... : ... .. . ... : ... .. 3 ... : ... .. . ... ... : ... .. 4 ... ... : ... .. . ... ... : ... .. . ... ...
ROW D0 : G#4 00 F P80 ... ... : F-4 00 F P80 ... ... : E-5 00 . ... : B-# 00 C ... : ... .. . ... ... : D#4 01 A ... ... : F-4 01 A ... V03 : ... .. C ... ...
ROW D1 : ... .. E ... ... ... : ... .. E ... ... ... : F#4 00 . ... : ... .. . ... : ... .. . ... ... : ... .. 9 ... ... : ... .. 9 ... ... : ... .. A ... ...
ROW D2 : ... .. D ... ... ... : ... .. D ... ... ... : B-3 00 . ... : ... .. A ... : ... .. . ... ... : ... .. 8 ... ... : ... .. 8 ... ... : ... .. 6 ... ...
ROW D3 : ... .. A ... ... ... : ... .. A ... ... ... : A#3 00 . ... : ... .. . ... : ... .. . ... ... : ... .. 7 ... ... : ... .. 7 ... ... : ... .. . ... ...
ROW D4 : ... .. . ... ... ... : ... .. . ... ... ... : F-3 00 . ... : ... .. 9 ... : ... .. . ... ... : ... .. . ... ... : A-3 01 6 ... ... : ... .. . ... ...
ROW D5 : ... .. . ... ... ... : ... .. . ... ... ... : ... .. . ... : ... .. . ... : ... .. . ... ... : ... .. 6 ... ... : ... .. . ... ... : ... .. . ... ...
ROW D6 : ... .. . ... ... ... : ... .. . ... ... ... : ... .. . ... : ... .. 8 ... : ... .. . ... ... : --- .. . ... ... : ... .. 5 ... ... : ... .. . ... ...
ROW D7 : ... .. 2 ... ... ... : ... .. 2 ... ... ... : ... .. . ... : ... .. . ... : ... .. . ... ... : ... .. . ... ... : ... .. 4 ... ... : ... .. . ... ...
ROW D8 : F-2 00 F ... ... ... : D#5 00 F ... ... ... : D#3 00 . P88 : ... .. 7 ... : ... .. . ... ... : G#3 01 A ... ... : F#4 01 A ... ... : ... .. . P60 ...
ROW D9 : ... .. E ... ... ... : ... .. E ... ... ... : D-3 00 . P7D : ... .. . ... : ... .. . ... ... : ... .. 9 ... ... : ... .. 9 ... ... : E-1 01 6 P97 ...
ROW DA : ... .. D ... ... ... : ... .. D ... ... ... : C-3 00 . P8C : ... .. 6 ... : ... .. . ... ... : ... .. 8 ... ... : ... .. 8 ... ... : ... .. . P77 ...
ROW DB : ... .. A ... ... ... : ... .. A ... ... ... : B-2 00 . P85 : ... .. . ... : ... .. . ... ... : ... .. 7 ... ... : ... .. 7 ... ... : ... .. . P57 ...
ROW DC : ... .. . ... ... ... : ... .. . ... ... ... : A#2 00 . P80 : ... .. 5 ... : ... .. . ... ... : ... .. . ... ... : F-4 01 6 ... ... : --- .. . P82 ...
ROW DD : ... .. . ... ... ... : ... .. . ... ... ... : A-2 00 . P7C : ... .. . ... : ... .. . ... ... : ... .. 6 ... ... : ... .. . ... ... : ... .. . ... ...
ROW DE : ... .. . ... ... ... : ... .. . ... ... ... : G#2 00 . P7B : ... .. 4 ... : ... .. . ... ... : --- .. . P83 ... : ... .. 5 ... ... : ... .. . ... ...
ROW DF : ... .. 2 ... ... ... : ... .. 2 ... ... ... : G-2 00 . ... : ... .. . ... : ... .. . ... ... : ... .. . ... ... : ... .. 4 ... ... : ... .. . ... ...
ROW E0 : ... .. F ... ... ... : D-5 00 F ... ... ... : F-4 00 . P80 : 1-# 00 F ... : ... .. . ... ... : G#3 01 A P81 ... : G#4 01 A ... ... : F-2 01 C P80 ...
ROW E1 : ... .. E ... ... ... : ... .. E ... ... ... : ... .. . ... : ... .. C ... : ... .. . ... ... : ... .. 9 ... ... : ... .. 9 ... ... : ... .. A ... ...
ROW E2 : ... .. D ... ... ... : ... .. D ... ... ... : ... .. . ... : ... .. 6 ... : ... .. . ... ... : ... .. 8 ... ... : ... .. 8 ... ... : ... .. 6 ... ...
ROW E3 : ... .. A ... ... ... : ... .. A ... ... ... : ... .. . ... : ... .. 3 ... : ... .. . ... ... : ... .. 7 ... ... : ... .. 7 ... ... : ... .. . ... ...
ROW E4 : ... .. . ... ... ... : ... .. . ... ... ... : ... .. . ... : ... .. 2 ... : ... .. . ... ... : ... .. . ... ... : F#4 01 6 ... ... : --- .. . P7E ...
ROW E5 : ... .. . ... ... ... : ... .. . ... ... ... : ... .. . ... : ... .. 0 ... : ... .. . ... ... : ... .. 6 ... ... : ... .. . ... ... : ... .. . ... ...
ROW E6 : ... .. . ... ... ... : ... .. . ... ... ... : ... .. . ... : ... .. . ... : ... .. . ... ... : --- .. . P83 ... : ... .. 5 ... ... : ... .. . ... ...
ROW E7 : ... .. 2 ... ... ... : ... .. 2 ... ... ... : ... .. . ... : ... .. . ... : ... .. . ... ... : ... .. . ... ... : ... .. 4 ... ... : ... .. . ... ...
ROW E8 : G#4 00 F ... ... ... : F-4 00 F ... ... ... : E-4 00 . ... : 9-# 00 D ... : ... .. . ... ... : D#4 01 A P81 ... : F-4 01 A ... ... : F-0 01 C P80 ...
ROW E9 : ... .. E ... ... ... : ... .. E ... ... ... : F#3 00 . ... : ... .. B ... : ... .. . ... ... : ... .. 9 ... ... : ... .. 9 ... ... : ... .. A ... ...
ROW EA : ... .. D ... ... ... : ... .. D ... ... ... : B-2 00 . ... : ... .. . ... : ... .. . ... ... : ... .. 8 ... ... : ... .. 8 ... ... : ... .. 6 ... ...
ROW EB : ... .. A ... ... ... : ... .. A ... ... ... : A#2 00 . ... : ... .. A ... : ... .. . ... ... : ... .. 7 ... ... : ... .. 7 ... ... : ... .. . ... ...
ROW EC : ... .. . ... ... ... : ... .. . ... ... ... : F-2 00 . ... : ... .. 8 ... : ... .. . ... ... : ... .. . ... ... : G#4 01 6 ... ... : ... .. . ... ...
ROW ED : ... .. . ... ... ... : ... .. . ... ... ... : ... .. . ... : ... .. 7 ... : ... .. . ... ... : ... .. 6 ... ... : ... .. . ... ... : ... .. . ... ...
ROW EE : ... .. . ... ... ... : ... .. . ... ... ... : ... .. . ... : ... .. 6 ... : ... .. . ... ... : --- .. . ... ... : ... .. 5 ... ... : ... .. . ... ...
ROW EF : ... .. 2 ... ... ... : ... .. 2 ... ... ... : ... .. . ... : ... .. . ... : ... .. . ... ... : ... .. . ... ... : ... .. 4 ... ... : ... .. . ... ...
ROW F0 : F-2 00 F ... ... ... : C-5 00 F ... ... ... : E-2 00 . P86 : 1-# 00 F ... : ... .. . ... ... : G#3 01 A ... ... : F#4 01 A ... ... : ... .. . P60 ...
ROW F1 : ... .. E ... ... ... : ... .. E ... ... ... : D#2 00 . P8E : ... .. C ... : ... .. . ... ... : ... .. 9 ... ... : ... .. 9 ... ... : ... .. . P40 ...
ROW F2 : ... .. D ... ... ... : ... .. D ... ... ... : ... .. . P6E : ... .. 6 ... : ... .. . ... ... : ... .. 8 ... ... : ... .. 8 ... ... : E-0 01 6 PCE ...
ROW F3 : ... .. A ... ... ... : ... .. A ... ... ... : D-2 00 . P79 : ... .. 3 ... : ... .. . ... ... : ... .. 7 ... ... : ... .. 7 ... ... : ... .. . PAE ...
ROW F4 : ... .. . ... ... ... : ... .. . ... ... ... : C#2 00 . P86 : ... .. 2 ... : ... .. . ... ... : ... .. . ... ... : F-4 01 6 ... ... : --- .. . P83 ...
ROW F5 : ... .. . ... ... ... : ... .. . ... ... ... : C-2 00 . P96 : ... .. 0 ... : ... .. . ... ... : ... .. 6 ... ... : ... .. . ... ... : ... .. . ... ...
ROW F6 : ... .. . ... ... ... : ... .. . ... ... ... : ... .. . P76 : ... .. . ... : ... .. . ... ... : --- .. . P83 ... : ... .. 5 ... ... : ... .. . ... ...
ROW F7 : ... .. 2 ... ... ... : ... .. 2 ... ... ... : B-1 00 . P89 : ... .. . ... : ... .. . ... ... : ... .. . ... ... : ... .. 4 ... ... : ... .. . ... ...
ROW F8 : ... .. F ... ... ... : B-4 00 F ... ... ... : F-4 00 . P80 : ... .. F ... : ... .. . ... ... : G#3 01 A P81 ... : G#4 01 A ... ... : F-2 01 C P80 ...
ROW F9 : ... .. E ... ... ... : ... .. E ... ... ... : ... .. . ... : ... .. C ... : ... .. . ... ... : ... .. 9 ... ... : ... .. 9 ... ... : ... .. A ... ...
ROW FA : ... .. D ... ... ... : ... .. D ... ... ... : ... .. . ... : ... .. 6 ... : ... .. . ... ... : ... .. 8 ... ... : ... .. 8 ... ... : ... .. 6 ... ...
ROW FB : ... .. A ... ... ... : ... .. A ... ... ... : ... .. . ... : ... .. 3 ... : ... .. . ... ... : ... .. 7 ... ... : ... .. 7 ... ... : ... .. . ... ...
ROW FC : ... .. . ... ... ... : ... .. . ... ... ... : ... .. . ... : ... .. 2 ... : ... .. . ... ... : ... .. . ... ... : F#4 01 6 ... ... : --- .. . P7E ...
ROW FD : ... .. . ... ... ... : ... .. . ... ... ... : ... .. . ... : ... .. 0 ... : ... .. . ... ... : ... .. 6 ... ... : ... .. . ... ... : ... .. . ... ...
ROW FE : ... .. . ... ... ... : ... .. . ... ... ... : ... .. . ... : ... .. . ... : ... .. . ... ... : --- .. . P83 ... : ... .. 5 ... ... : ... .. . ... ...
ROW FF : ... .. 2 ... ... ... : ... .. 2 ... ... ... : ... .. . ... : ... .. . ... : ... .. . ... ... : ... .. . ... ... : ... .. 4 ... ... : ... .. . ... ...

PATTERN 12
ROW 00 : A#4 00 F ... ... ... : F-4 00 F ... ... ... : E-5 00 . ... : 9-# 00 D ... : ... .. . ... ... : F-4 01 A P81 ... : F-4 01 A ... ... : F-1 01 C P80 ...
ROW 01 : ... .. E ... ... ... : ... .. E ... ... ... : F#4 00 . ... : ... .. B ... : ... .. . ... ... : ... .. 9 ... ... : ... .. 9 ... ... : ... .. A ... ...
ROW 02 : ... .. D ... ... ... : ... .. D ... ... ... : B-3 00 . ... : ... .. . ... : ... .. . ... ... : ... .. 8 ... ... : ... .. 8 ... ... : ... .. 6 ... ...
ROW 03 : ... .. A ... ... ... : ... .. A ... ... ... : A#3 00 . ... : ... .. A ... : ... .. . ... ... : ... .. 7 ... ... : ... .. 7 ... ... : ... .. . ... ...
ROW 04 : ... .. . ... ... ... : ... .. . ... ... ... : F-3 00 . ... : ... .. 8 ... : ... .. . ... ... : ... .. . ... ... : G#4 01 6 ... ... : ... .. . ... ...
ROW 05 : ... .. . ... ... ... : ... .. . ... ... ... : ... .. . ... : ... .. 7 ... : ... .. . ... ... : ... .. 6 ... ... : ... .. . ... ... : ... .. . ... ...
ROW 06 : ... .. . ... ... ... : ... .. . ... ... ... : ... .. . ... : ... .. 6 ... : ... .. . ... ... : --- .. . ... ... : ... .. 5 ... ... : ... .. . ... ...
ROW 07 : ... .. 2 ... ... ... : ... .. 2 ... ... ... : ... .. . ... : ... .. . ... : ... .. . ... ... : ... .. . ... ... : ... .. 4 ... ... : ... .. . ... ...
ROW 08 : F-2 00 F ... ... ... : D#5 00 F ... ... ... : ... .. . ... : 1-# 00 F ... : ... .. . ... ... : A#3 01 A ... ... : F#4 01 A ... ... : ... .. . ... ...
ROW 09 : ... .. E ... ... ... : ... .. E ... ... ... : ... .. . ... : ... .. C ... : ... .. . ... ... : ... .. 9 ... ... : ... .. 9 ... ... : ... .. . ... ...
ROW 0A : ... .. D ... ... ... : ... .. D ... ... ... : ... .. . ... : ... .. 6 ... : ... .. . ... ... : ... .. 8 ... ... : ... .. 8 ... ... : ... .. . ... ...
ROW 0B : ... .. A ... ... ... : ... .. A ... ... ... : ... .. . ... : ... .. 3 ... : ... .. . ... ... : ... .. 7 ... ... : ... .. 7 ... ... : ... .. . ... ...
ROW 0C : ... .. . ... ... ... : ... .. . ... ... ... : ... .. . ... : ... .. 2 ... : ... .. . ... ... : ... .. . ... ... : F-4 01 6 ... ... : --- .. . P7F ...
ROW 0D : ... .. . ... ... ... : ... .. . ... ... ... : ... .. . ... : ... .. 0 ... : ... .. . ... ... : ... .. 6 ... ... : ... .. . ... ... : ... .. . ... ...
ROW 0E : ... .. . ... ... ... : ... .. . ... ... ... : ... .. . ... : ... .. . ... : ... .. . ... ... : --- .. . ... ... : ... .. 5 ... ... : ... .. . ... ...
ROW 0F : ... .. 2 ... ... ... : ... .. 2 ... ... ... : ... .. . ... : ... .. . ... : ... .. . ... ... : ... .. . ... ... : ... .. 4 ... ... : ... .. . ... ...
ROW 10 : ... .. F ... ... ... : D-5 00 F ... ... ... : D#3 00 . ... : ... .. F ... : ... .. . ... ... : A#3 01 A ... ... : G#4 01 A ... ... : D#1 01 C P80 ...
ROW 11 : ... .. E ... ... ... : ... .. E ... ... ... : ... .. . ... : ... .. C ... : ... .. . ... ... : ... .. 9 ... ... : ... .. 9 ... ... : ... .. A ... ...
ROW 12 : ... .. D ... ... ... : ... .. D ... ... ... : ... .. . ... : ... .. 6 ... : ... .. . ... ... : ... .. 8 ... ... : ... .. 8 ... ... : ... .. 6 ... ...
ROW 13 : ... .. A ... ... ... : ... .. A ... ... ... : ... .. . ... : ... .. 3 ... : ... .. . ... ... : ... .. 7 ... ... : ... .. 7 ... ... : ... .. . ... ...
ROW 14 : ... .. . ... ... ... : ... .. . ... ... ... : ... .. . ... : ... .. 2 ... : ... .. . ... ... : ... .. . ... ... : F#4 01 6 ... ... : --- .. . P81 ...
ROW 15 : ... .. . ... ... ... : ... .. . ... ... ... : ... .. . ... : ... .. 0 ... : ... .. . ... ... : ... .. 6 ... ... : ... .. . ... ... : ... .. . ... ...
ROW 16 : ... .. . ... ... ... : ... .. . ... ... ... : ... .. . ... : ... .. . ... : ... .. . ... ... : --- .. . ... ... : ... .. 5 ... ... : ... .. . ... ...
ROW 17 : ... .. 2 ... ... ... : ... .. 2 ... ... ... : ... .. . ... : ... .. . ... : ... .. . ... ... : ... .. . ... ... : ... .. 4 ... ... : ... .. . ... ...
ROW 18 : B-4 00 F ... ... ... : F-4 00 F ... ... ... : E-4 00 . ... : 9-# 00 D ... : ... .. . ... ... : F#4 01 A ... ... : ... .. A ... ... : F-0 01 C P80 ...
ROW 19 : ... .. E ... ... ... : ... .. E ... ... ... : F#3 00 . ... : ... .. B ... : ... .. . ... ... : ... .. 9 ... ... : ... .. 9 ... ... : ... .. A ... ...
ROW 1A : ... .. D ... ... ... : ... .. D ... ... ... : B-2 00 . ... : ... .. . ... : ... .. . ... ... : ... .. 8 ... ... : ... .. 8 ... ... : ... .. 6 ... ...
ROW 1B : ... .. A ... ... ... : ... .. A ... ... ... : A#2 00 . ... : ... .. A ... : ... .. . ... ... : ... .. 7 ... ... : ... .. 7 ... ... : ... .. . ... ...
ROW 1C : ... .. . ... ... ... : ... .. . ... ... ... : F-2 00 . ... : ... .. 8 ... : ... .. . ... ... : ... .. . ... ... : G#4 01 6 ... ... : --- .. . P82 ...
ROW 1D : ... .. . ... ... ... : ... .. . ... ... ... : ... .. . ... : ... .. 7 ... : ... .. . ... ... : ... .. 6 ... ... : ... .. . ... ... : ... .. . ... ...
ROW 1E : ... .. . ... ... ... : ... .. . ... ... ... : ... .. . ... : ... .. 6 ... : ... .. . ... ... : --- .. . ... ... : ... .. 5 ... ... : ... .. . ... ...
ROW 1F : ... .. 2 ... ... ... : ... .. 2 ... ... ... : ... .. . ... : ... .. . ... : ... .. . ... ... : ... .. . ... ... : ... .. 4 ... ... : ... .. . ... ...
ROW 20 : F-2 00 F ... ... ... : C-5 00 F ... ... ... : D#2 00 . ... : 1-# 00 F ... : ... .. . ... ... : B-3 01 A ... ... : ... .. A ... ... : D#0 01 C P80 ...
ROW 21 : ... .. E ... ... ... : ... .. E ... ... ... : ... .. . ... : ... .. C ... : ... .. . ... ... : ... .. 9 ... ... : ... .. 9 ... ... : ... .. A ... ...
ROW 22 : ... .. D ... ... ... : ... .. D ... ... ... : ... .. . ... : ... .. 6 ... : ... .. . ... ... : ... .. 8 ... ... : ... .. 8 ... ... : ... .. 6 ... ...
ROW 23 : ... .. A ... ... ... : ... .. A ... ... ... : ... .. . ... : ... .. 3 ... : ... .. . ... ... : ... .. 7 ... ... : ... .. 7 ... ... : ... .. . ... ...
ROW 24 : ... .. . ... ... ... : ... .. . ... ... ... : ... .. . ... : ... .. 2 ... : ... .. . ... ... : ... .. . ... ... : F#4 01 6 ... ... : --- .. . P83 ...
ROW 25 : ... .. . ... ... ... : ... .. . ... ... ... : ... .. . ... : ... .. 0 ... : ... .. . ... ... : ... .. 6 ... ... : ... .. . ... ... : ... .. . ... ...
ROW 26 : ... .. . ... ... ... : ... .. . ... ... ... : ... .. . ... : ... .. . ... : ... .. . ... ... : --- .. . ... ... : ... .. 5 ... ... : ... .. . ... ...
ROW 27 : ... .. 2 ... ... ... : ... .. 2 ... ... ... : ... .. . ... : ... .. . ... : ... .. . ... ... : ... .. . ... ... : ... .. 4 ... ... : ... .. . ... ...
ROW 28 : ... .. F ... ... ... : B-4 00 F ... ... ... : F-2 00 . ... : 8-# 00 8 ... : ... .. . ... ... : B-3 01 A ... ... : A-4 01 A ... ... : F-0 01 C P80 ...
ROW 29 : ... .. E ... ... ... : ... .. E ... ... ... : ... .. . ... : ... .. 6 ... : ... .. . ... ... : ... .. 9 ... ... : ... .. 9 ... ... : ... .. A ... ...
ROW 2A : ... .. D ... ... ... : ... .. D ... ... ... : ... .. . ... : ... .. 0 ... : ... .. . ... ... : ... .. 8 ... ... : ... .. 8 ... ... : ... .. 6 ... ...
ROW 2B : ... .. A ... ... ... : ... .. A ... ... ... : ... .. . ... : ... .. . ... : ... .. . ... ... : ... .. 7 ... ... : ... .. 7 ... ... : ... .. . ... ...
ROW 2C : ... .. . ... ... ... : ... .. . ... ... ... : ... .. . ... : ... .. 8 ... : ... .. . ... ... : ... .. . ... ... : G#4 01 6 ... ... : --- .. . P82 ...
ROW 2D : ... .. . ... ... ... : ... .. . ... ... ... : ... .. . ... : ... .. 6 ... : ... .. . ... ... : ... .. 6 ... ... : ... .. . ... ... : ... .. . ... ...
ROW 2E : ... .. . ... ... ... : ... .. . ... ... ... : ... .. . ... : ... .. 0 ... : ... .. . ... ... : --- .. . ... ... : ... .. 5 ... ... : ... .. . ... ...
ROW 2F : ... .. 2 ... ... ... : ... .. 2 ... ... ... : ... .. . ... : ... .. . ... : ... .. . ... ... : ... .. . ... ... : ... .. 4 ... ... : ... .. . ... ...
ROW 30 : G#4 00 F ... ... ... : F-4 00 F ... ... ... : E-5 00 . ... : 9-# 00 D ... : ... .. . ... ... : D#4 01 A ... ... : F-4 01 A ... ... : F-1 01 C P80 ...
ROW 31 : ... .. E ... ... ... : ... .. E ... ... ... : F#4 00 . ... : ... .. B ... : ... .. . ... ... : ... .. 9 ... ... : ... .. 9 ... ... : ... .. A ... ...
ROW 32 : ... .. D ... ... ... : ... .. D ... ... ... : B-3 00 . ... : ... .. . ... : ... .. . ... ... : ... .. 8 ... ... : ... .. 8 ... ... : ... .. 6 ... ...
ROW 33 : ... .. A ... ... ... : ... .. A ... ... ... : A#3 00 . ... : ... .. A ... : ... .. . ... ... : ... .. 7 ... ... : ... .. 7 ... ... : ... .. . ... ...
ROW 34 : ... .. . ... ... ... : ... .. . ... ... ... : F-3 00 . ... : ... .. 8 ... : ... .. . ... ... : ... .. . ... ... : A-4 01 6 ... ... : ... .. . ... ...
ROW 35 : ... .. . ... ... ... : ... .. . ... ... ... : ... .. . ... : ... .. 7 ... : ... .. . ... ... : ... .. 6 ... ... : ... .. . ... ... : ... .. . ... ...
ROW 36 : ... .. . ... ... ... : ... .. . ... ... ... : ... .. . ... : ... .. 6 ... : ... .. . ... ... : --- .. . ... ... : ... .. 5 ... ... : ... .. . ... ...
ROW 37 : ... .. 2 ... ... ... : ... .. 2 ... ... ... : ... .. . ... : ... .. . ... : ... .. . ... ... : ... .. . ... ... : ... .. 4 ... ... : ... .. . ... ...
ROW 38 : F-2 00 F ... ... ... : D#5 00 F ... ... ... : D#3 00 . P88 : 1-# 00 F ... : ... .. . ... ... : G#3 01 A ... ... : F#4 01 A ... ... : ... .. . P60 ...
ROW 39 : ... .. E ... ... ... : ... .. E ... ... ... : D-3 00 . P7D : ... .. C ... : ... .. . ... ... : ... .. 9 ... ... : ... .. 9 ... ... : E-1 01 6 P97 ...
ROW 3A : ... .. D ... ... ... : ... .. D ... ... ... : C-3 00 . P8C : ... .. 6 ... : ... .. . ... ... : ... .. 8 ... ... : ... .. 8 ... ... : ... .. . P77 ...
ROW 3B : ... .. A ... ... ... : ... .. A ... ... ... : B-2 00 . P85 : ... .. 3 ... : ... .. . ... ... : ... .. 7 ... ... : ... .. 7 ... ... : ... .. . P57 ...
ROW 3C : ... .. . ... ... ... : ... .. . ... ... ... : A#2 00 . P80 : ... .. F ... : ... .. . ... ... : ... .. . ... ... : F-4 01 6 ... ... : --- .. . P82 ...
ROW 3D : ... .. . ... ... ... : ... .. . ... ... ... : A-2 00 . P7C : ... .. C ... : ... .. . ... ... : ... .. 6 ... ... : ... .. . ... ... : ... .. . ... ...
ROW 3E : ... .. . ... ... ... : ... .. . ... ... ... : G#2 00 . P7B : ... .. 6 ... : ... .. . ... ... : --- .. . P83 ... : ... .. 5 ... ... : ... .. . ... ...
ROW 3F : ... .. 2 ... ... ... : ... .. 2 ... ... ... : G-2 00 . ... : ... .. 3 ... : ... .. . ... ... : ... .. . ... ... : ... .. 4 ... ... : ... .. . ... ...
ROW 40 : ... .. F ... ... ... : D-5 00 F ... ... ... : F-4 00 . P80 : ... .. F ... : ... .. . ... ... : G#3 01 A P81 ... : G#4 01 A ... ... : F-2 01 C P80 ...
ROW 41 : ... .. E ... ... ... : ... .. E ... ... ... : ... .. . ... : ... .. C ... : ... .. . ... ... : ... .. 9 ... ... : ... .. 9 ... ... : ... .. A ... ...
ROW 42 : ... .. D ... ... ... : ... .. D ... ... ... : ... .. . ... : ... .. 6 ... : ... .. . ... ... : ... .. 8 ... ... : ... .. 8 ... ... : ... .. 6 ... ...
ROW 43 : ... .. A ... ... ... : ... .. A ... ... ... : ... .. . ... : ... .. 3 ... : ... .. . ... ... : ... .. 7 ... ... : ... .. 7 ... ... : ... .. . ... ...
ROW 44 : ... .. . ... ... ... : ... .. . ... ... ... : ... .. . ... : ... .. 2 ... : ... .. . ... ... : ... .. . ... ... : F#4 01 6 ... ... : --- .. . P7E ...
ROW 45 : ... .. . ... ... ... : ... .. . ... ... ... : ... .. . ... : ... .. 0 ... : ... .. . ... ... : ... .. 6 ... ... : ... .. . ... ... : ... .. . ... ...
ROW 46 : ... .. . ... ... ... : ... .. . ... ... ... : ... .. . ... : ... .. . ... : ... .. . ... ... : --- .. . P83 ... : ... .. 5 ... ... : ... .. . ... ...
ROW 47 : ... .. 2 ... ... ... : ... .. 2 ... ... ... : ... .. . ... : ... .. . ... : ... .. . ... ... : ... .. . ... ... : ... .. 4 ... ... : ... .. . ... ...
ROW 48 : G#4 00 F ... ... ... : F-4 00 F ... ... ... : E-4 00 . ... : 9-# 00 D ... : ... .. . ... ... : D#4 01 A P81 ... : F-4 01 A ... ... : F-0 01 C P80 ...
ROW 49 : ... .. E ... ... ... : ... .. E ... ... ... : F#3 00 . ... : ... .. B ... : ... .. . ... ... : ... .. 9 ... ... : ... .. 9 ... ... : ... .. A ... ...
ROW 4A : ... .. D ... ... ... : ... .. D ... ... ... : B-2 00 . ... : ... .. . ... : ... .. . ... ... : ... .. 8 ... ... : ... .. 8 ... ... : ... .. 6 ... ...
ROW 4B : ... .. A ... ... ... : ... .. A ... ... ... : A#2 00 . ... : ... .. A ... : ... .. . ... ... : ... .. 7 ... ... : ... .. 7 ... ... : ... .. . ... ...
ROW 4C : ... .. . ... ... ... : ... .. . ... ... ... : F-2 00 . ... : ... .. 8 ... : ... .. . ... ... : ... .. . ... ... : G#4 01 6 ... ... : ... .. . ... ...
ROW 4D : ... .. . ... ... ... : ... .. . ... ... ... : ... .. . ... : ... .. 7 ... : ... .. . ... ... : ... .. 6 ... ... : ... .. . ... ... : ... .. . ... ...
ROW 4E : ... .. . ... ... ... : ... .. . ... ... ... : ... .. . ... : ... .. 6 ... : ... .. . ... ... : --- .. . ... ... : ... .. 5 ... ... : ... .. . ... ...
ROW 4F : ... .. 2 ... ... ... : ... .. 2 ... ... ... : ... .. . ... : ... .. . ... : ... .. . ... ... : ... .. . ... ... : ... .. 4 ... ... : ... .. . ... ...
ROW 50 : F-2 00 F ... ... ... : C-5 00 F ... ... ... : E-2 00 . P86 : 1-# 00 F ... : ... .. . ... ... : G#3 01 A ... ... : F#4 01 A ... ... : ... .. . P60 ...
ROW 51 : ... .. E ... ... ... : ... .. E ... ... ... : D#2 00 . P8E : ... .. C ... : ... .. . ... ... : ... .. 9 ... ... : ... .. 9 ... ... : ... .. . P40 ...
ROW 52 : ... .. D ... ... ... : ... .. D ... ... ... : ... .. . P6E : ... .. 6 ... : ... .. . ... ... : ... .. 8 ... ... : ... .. 8 ... ... : E-0 01 6 PCE ...
ROW 53 : ... .. A ... ... ... : ... .. A ... ... ... : D-2 00 . P79 : ... .. 3 ... : ... .. . ... ... : ... .. 7 ... ... : ... .. 7 ... ... : ... .. . PAE ...
ROW 54 : ... .. . ... ... ... : ... .. . ... ... ... : C#2 00 . P86 : ... .. 2 ... : ... .. . ... ... : ... .. . ... ... : F-4 01 6 ... ... : --- .. . P83 ...
ROW 55 : ... .. . ... ... ... : ... .. . ... ... ... : C-2 00 . P96 : ... .. 0 ... : ... .. . ... ... : ... .. 6 ... ... : ... .. . ... ... : ... .. . ... ...
ROW 56 : ... .. . ... ... ... : ... .. . ... ... ... : ... .. . P76 : ... .. . ... : ... .. . ... ... : --- .. . P83 ... : ... .. 5 ... ... : ... .. . ... ...
ROW 57 : ... .. 2 ... ... ... : ... .. 2 ... ... ... : B-1 00 . P89 : ... .. . ... : ... .. . ... ... : ... .. . ... ... : ... .. 4 ... ... : ... .. . ... ...
ROW 58 : ... .. F ... ... ... : B-4 00 F ... ... ... : F-4 00 . P80 : ... .. F ... : ... .. . ... ... : G#3 01 A P81 ... : G#4 01 A ... ... : F-2 01 C P80 ...
ROW 59 : ... .. E ... ... ... : ... .. E ... ... ... : ... .. . ... : ... .. C ... : ... .. . ... ... : ... .. 9 ... ... : ... .. 9 ... ... : ... .. A ... ...
ROW 5A : ... .. D ... ... ... : ... .. D ... ... ... : ... .. . ... : ... .. 6 ... : ... .. . ... ... : ... .. 8 ... ... : ... .. 8 ... ... : ... .. 6 ... ...
ROW 5B : ... .. A ... ... ... : ... .. A ... ... ... : ... .. . ... : ... .. 3 ... : ... .. . ... ... : ... .. 7 ... ... : ... .. 7 ... ... : ... .. . ... ...
ROW 5C : ... .. . ... ... ... : ... .. . ... ... ... : ... .. . ... : ... .. 2 ... : ... .. . ... ... : ... .. . ... ... : F#4 01 6 ... ... : --- .. . P7E ...
ROW 5D : ... .. . ... ... ... : ... .. . ... ... ... : ... .. . ... : ... .. 0 ... : ... .. . ... ... : ... .. 6 ... ... : ... .. . ... ... : ... .. . ... ...
ROW 5E : ... .. . ... ... ... : ... .. . ... ... ... : ... .. . ... : ... .. . ... : ... .. . ... ... : --- .. . P83 ... : ... .. 5 ... ... : ... .. . ... ...
ROW 5F : ... .. 2 ... ... ... : ... .. 2 ... ... ... : ... .. . ... : ... .. . ... : ... .. . ... ... : ... .. . ... ... : ... .. 4 ... ... : ... .. . ... ...
ROW 60 : A#4 00 F ... ... ... : G#5 00 F ... ... ... : E-5 00 . ... : 9-# 00 D ... : ... .. . ... ... : F-4 01 A P81 ... : F-4 01 A ... ... : F-1 01 C P80 ...
ROW 61 : ... .. E ... ... ... : ... .. E ... ... ... : F#4 00 . ... : ... .. B ... : ... .. . ... ... : ... .. 9 ... ... : ... .. 9 ... ... : ... .. A ... ...
ROW 62 : ... .. D ... ... ... : ... .. D ... ... ... : B-3 00 . ... : ... .. . ... : ... .. . ... ... : ... .. 8 ... ... : ... .. 8 ... ... : ... .. 6 ... ...
ROW 63 : ... .. A ... ... ... : ... .. A ... ... ... : A#3 00 . ... : ... .. A ... : ... .. . ... ... : ... .. 7 ... ... : ... .. 7 ... ... : ... .. . ... ...
ROW 64 : ... .. . ... ... ... : D#5 00 F ... ... ... : F-3 00 . ... : ... .. 8 ... : ... .. . ... ... : ... .. . ... ... : G#4 01 6 ... ... : ... .. . ... ...
ROW 65 : ... .. . ... ... ... : ... .. E ... ... ... : ... .. . ... : ... .. 7 ... : ... .. . ... ... : ... .. 6 ... ... : ... .. . ... ... : ... .. . ... ...
ROW 66 : ... .. . ... ... ... : ... .. A ... ... ... : ... .. . ... : ... .. 6 ... : ... .. . ... ... : --- .. . ... ... : ... .. 5 ... ... : ... .. . ... ...
ROW 67 : ... .. 2 ... ... ... : ... .. 2 ... ... ... : ... .. . ... : ... .. . ... : ... .. . ... ... : ... .. . ... ... : ... .. 4 ... ... : ... .. . ... ...
ROW 68 : F-2 00 F ... ... ... : B-4 00 F ... ... ... : ... .. . ... : 1-# 00 F ... : ... .. . ... ... : A#3 01 A ... ... : F#4 01 A ... ... : ... .. . ... ...
ROW 69 : ... .. E ... ... ... : ... .. E ... ... ... : ... .. . ... : ... .. C ... : ... .. . ... ... : ... .. 9 ... ... : ... .. 9 ... ... : ... .. . ... ...
ROW 6A : ... .. D ... ... ... : ... .. A ... ... ... : ... .. . ... : ... .. 6 ... : ... .. . ... ... : ... .. 8 ... ... : ... .. 8 ... ... : ... .. . ... ...
ROW 6B : ... .. A ... ... ... : ... .. 2 ... ... ... : ... .. . ... : ... .. 3 ... : ... .. . ... ... : ... .. 7 ... ... : ... .. 7 ... ... : ... .. . ... ...
ROW 6C : ... .. . ... ... ... : G#4 00 F ... ... ... : ... .. . ... : ... .. 2 ... : ... .. . ... ... : ... .. . ... ... : F-4 01 6 ... ... : --- .. . P7F ...
ROW 6D : ... .. . ... ... ... : ... .. E ... ... ... : ... .. . ... : ... .. 0 ... : ... .. . ... ... : ... .. 6 ... ... : ... .. . ... ... : ... .. . ... ...
ROW 6E : ... .. . ... ... ... : ... .. A ... ... ... : ... .. . ... : ... .. . ... : ... .. . ... ... : --- .. . ... ... : ... .. 5 ... ... : ... .. . ... ...
ROW 6F : ... .. 2 ... ... ... : ... .. 2 ... ... ... : ... .. . ... : ... .. . ... : ... .. . ... ... : ... .. . ... ... : ... .. 4 ... ... : ... .. . ... ...
ROW 70 : B-4 00 F ... ... ... : D#4 00 F ... ... ... : D#3 00 . ... : 7-# 00 F ... : ... .. . ... ... : F#4 01 A ... ... : G#4 01 A ... ... : D#1 01 C P80 ...
ROW 71 : ... .. E ... ... ... : ... .. E ... ... ... : ... .. . ... : ... .. C ... : ... .. . ... ... : ... .. 9 ... ... : ... .. 9 ... ... : ... .. A ... ...
ROW 72 : ... .. D ... ... ... : ... .. D ... ... ... : ... .. . ... : ... .. 6 ... : ... .. . ... ... : ... .. 8 ... ... : ... .. 8 ... ... : ... .. 6 ... ...
ROW 73 : ... .. A ... ... ... : ... .. A ... ... ... : ... .. . ... : ... .. 3 ... : ... .. . ... ... : ... .. 7 ... ... : ... .. 7 ... ... : ... .. . ... ...
ROW 74 : ... .. . ... ... ... : B-3 00 F ... ... ... : ... .. . ... : 8-# 00 F ... : ... .. . ... ... : ... .. . ... ... : F#4 01 6 ... ... : --- .. . P81 ...
ROW 75 : ... .. . ... ... ... : ... .. E ... ... ... : ... .. . ... : ... .. C ... : ... .. . ... ... : ... .. 6 ... ... : ... .. . ... ... : ... .. . ... ...
ROW 76 : ... .. . ... ... ... : ... .. A ... ... ... : ... .. . ... : ... .. 6 ... : ... .. . ... ... : --- .. . ... ... : ... .. 5 ... ... : ... .. . ... ...
ROW 77 : ... .. 2 ... ... ... : ... .. 2 ... ... ... : ... .. . ... : ... .. 3 ... : ... .. . ... ... : ... .. . ... ... : ... .. 4 ... ... : ... .. . ... ...
ROW 78 : F-2 00 F ... ... ... : G#3 00 F ... ... ... : F-2 00 . ... : A-# 00 F ... : ... .. . ... ... : B-3 01 A ... ... : A-4 01 A ... ... : D#2 01 C P80 ...
ROW 79 : ... .. E ... ... ... : ... .. E ... ... ... : ... .. . ... : ... .. C ... : ... .. . ... ... : ... .. 9 ... ... : ... .. 9 ... ... : ... .. A ... ...
ROW 7A : ... .. D ... ... ... : ... .. A ... ... ... : ... .. . ... : ... .. 6 ... : ... .. . ... ... : ... .. 8 ... ... : ... .. 8 ... ... : ... .. 6 ... ...
ROW 7B : ... .. A ... ... ... : ... .. 2 ... ... ... : ... .. . ... : ... .. 3 ... : ... .. . ... ... : ... .. 7 ... ... : ... .. 7 ... ... : ... .. . ... ...
ROW 7C : ... .. . ... ... ... : D#3 00 F ... ... ... : ... .. . ... : B-# 00 F ... : ... .. . ... ... : ... .. . ... ... : G#4 01 6 ... ... : --- .. . ... ...
ROW 7D : ... .. . ... ... ... : ... .. E ... ... ... : ... .. . ... : ... .. C ... : ... .. . ... ... : ... .. 6 ... ... : ... .. . ... ... : ... .. . ... ...
ROW 7E : ... .. . ... ... ... : ... .. A ... ... ... : ... .. . ... : ... .. 6 ... : ... .. . ... ... : --- .. . ... ... : ... .. 5 ... ... : ... .. . ... ...
ROW 7F : ... .. 2 ... ... ... : ... .. 2 ... ... ... : ... .. . ... : ... .. 3 ... : ... .. . ... ... : ... .. . ... ... : ... .. 4 ... ... : ... .. . ... ...
ROW 80 : F-4 00 F ... ... ... : F-3 00 F ... ... ... : E-5 00 . ... : C-# 00 F ... : ... .. . ... ... : G#4 01 A ... ... : B-4 01 A ... ... : ... .. . ... ...
ROW 81 : ... .. E ... ... ... : ... .. E ... ... ... : F#4 00 . ... : ... .. . ... : ... .. . ... ... : ... .. 9 ... ... : ... .. 9 ... ... : ... .. . ... ...
ROW 82 : ... .. D ... ... ... : ... .. A ... ... ... : B-3 00 . ... : ... .. A ... : ... .. . ... ... : ... .. 8 ... ... : ... .. 8 ... ... : ... .. . ... ...
ROW 83 : ... .. A ... ... ... : ... .. 2 ... ... ... : A#3 00 . ... : ... .. . ... : ... .. . ... ... : ... .. 7 ... ... : ... .. 7 ... ... : ... .. . ... ...
ROW 84 : ... .. . ... ... ... : D#3 00 F ... ... ... : F-3 00 . ... : ... .. 9 ... : ... .. . ... ... : ... .. . ... ... : A-4 01 6 ... ... : ... .. . ... ...
ROW 85 : ... .. . ... ... ... : ... .. E ... ... ... : ... .. . ... : ... .. . ... : ... .. . ... ... : ... .. 6 ... ... : ... .. . ... ... : ... .. . ... ...
ROW 86 : ... .. . ... ... ... : ... .. A ... ... ... : ... .. . ... : ... .. 8 ... : ... .. . ... ... : --- .. . ... ... : ... .. 5 ... ... : ... .. . ... ...
ROW 87 : ... .. 2 ... ... ... : ... .. 2 ... ... ... : --- .. . ... : ... .. . ... : ... .. . ... ... : ... .. . ... ... : ... .. 4 ... ... : ... .. . ... ...
ROW 88 : D#4 00 F ... ... ... : C#3 00 F ... ... ... : D#3 00 . ... : ... .. 7 ... : ... .. . ... ... : D#4 01 A ... ... : C-5 01 9 ... ... : ... .. . ... ...
ROW 89 : ... .. E ... ... ... : ... .. E ... ... ... : ... .. . ... : ... .. . ... : ... .. . ... ... : ... .. 9 ... ... : ... .. 8 ... ... : ... .. . ... ...
ROW 8A : ... .. C ... ... ... : ... .. A ... ... ... : ... .. . ... : ... .. 6 ... : ... .. . ... ... : ... .. 7 ... ... : ... .. 7 ... ... : ... .. . ... ...
ROW 8B : ... .. 9 ... ... ... : ... .. 2 ... ... ... : ... .. . ... : ... .. . ... : ... .. . ... ... : ... .. 6 ... ... : ... .. 6 ... ... : ... .. . ... ...
ROW 8C : ... .. . ... ... ... : B-2 00 F ... ... ... : ... .. . ... : ... .. 5 ... : ... .. . ... ... : ... .. . ... ... : B-4 01 6 ... ... : ... .. . ... ...
ROW 8D : ... .. . ... ... ... : ... .. E ... ... ... : ... .. . ... : ... .. . ... : ... .. . ... ... : ... .. 5 ... ... : ... .. 5 ... ... : ... .. . ... ...
ROW 8E : ... .. . ... ... ... : ... .. A ... ... ... : ... .. . ... : ... .. . ... : ... .. . ... ... : --- .. . ... ... : ... .. 4 ... ... : ... .. . ... ...
ROW 8F : ... .. 1 ... ... ... : ... .. 2 ... ... ... : --- .. . ... : ... .. . ... : ... .. . ... ... : ... .. . ... ... : ... .. . ... ... : ... .. . ... ...
ROW 90 : B-3 00 E ... ... ... : A-2 00 F ... ... ... : B-2 00 . ... : ... .. . ... : ... .. . ... ... : A-4 01 8 ... ... : D-5 01 8 ... ... : ... .. . ... ...
ROW 91 : ... .. D ... ... ... : ... .. E ... ... ... : ... .. . ... : ... .. . ... : ... .. . ... ... : ... .. 7 ... ... : ... .. 7 ... ... : ... .. . ... ...
ROW 92 : ... .. C ... ... ... : ... .. A ... ... ... : ... .. . ... : ... .. . ... : ... .. . ... ... : ... .. 6 ... ... : ... .. 6 ... ... : ... .. . ... ...
ROW 93 : ... .. 9 ... ... ... : ... .. 2 ... ... ... : ... .. . ... : ... .. . ... : ... .. . ... ... : ... .. 5 ... ... : ... .. . ... ... : ... .. . ... ...
ROW 94 : ... .. . ... ... ... : F-2 00 F ... ... ... : ... .. . ... : ... .. . ... : ... .. . ... ... : ... .. . ... ... : C-5 01 5 ... ... : ... .. . ... ...
ROW 95 : ... .. . ... ... ... : ... .. E ... ... ... : ... .. . ... : ... .. . ... : ... .. . ... ... : ... .. 4 ... ... : ... .. 4 ... ... : ... .. . ... ...
ROW 96 : ... .. . ... ... ... : ... .. A ... ... ... : ... .. . ... : ... .. 4 ... : ... .. . ... ... : --- .. . ... ... : ... .. . ... ... : ... .. . ... ...
ROW 97 : ... .. 1 ... ... ... : ... .. 2 ... ... ... : --- .. . ... : ... .. . ... : ... .. . ... ... : ... .. . ... ... : ... .. 3 ... ... : ... .. . ... ...
ROW 98 : A-3 00 E ... ... ... : D#2 00 F ... ... ... : A-2 00 . ... : ... .. . ... : ... .. . ... ... : F-4 01 7 ... ... : D#5 01 8 ... ... : ... .. . ... ...
ROW 99 : ... .. D ... ... ... : ... .. E ... ... ... : ... .. . ... : ... .. . ... : ... .. . ... ... : ... .. 6 ... ... : ... .. 7 ... ... : ... .. . ... ...
ROW 9A : ... .. B ... ... ... : ... .. A ... ... ... : ... .. . ... : ... .. . ... : ... .. . ... ... : ... .. 5 ... ... : ... .. 6 ... ... : ... .. . ... ...
ROW 9B : ... .. 8 ... ... ... : ... .. 2 ... ... ... : ... .. . ... : ... .. . ... : ... .. . ... ... : ... .. 4 ... ... : ... .. 5 ... ... : ... .. . ... ...
ROW 9C : ... .. . ... ... ... : B-1 00 F ... ... ... : ... .. . ... : ... .. . ... : ... .. . ... ... : ... .. . ... ... : D-5 01 4 ... ... : ... .. . ... ...
ROW 9D : ... .. . ... ... ... : ... .. E ... ... ... : ... .. . ... : ... .. . ... : ... .. . ... ... : ... .. . ... ... : ... .. . ... ... : ... .. . ... ...
ROW 9E : ... .. . ... ... ... : ... .. A ... ... ... : ... .. . ... : ... .. . ... : ... .. . ... ... : --- .. . ... ... : ... .. 3 ... ... : ... .. . ... ...
ROW 9F : ... .. 1 ... ... ... : ... .. 2 ... ... ... : --- .. . ... : ... .. . ... : ... .. . ... ... : ... .. . ... ... : ... .. . ... ... : ... .. . ... ...
ROW A0 : F-3 00 D ... ... ... : A-1 00 F ... ... ... : F-2 00 . ... : ... .. 3 ... : ... .. . ... ... : B-4 01 6 ... ... : F-5 01 7 ... ... : ... .. . ... ...
ROW A1 : ... .. C ... ... ... : ... .. E ... ... ... : ... .. . ... : ... .. . ... : ... .. . ... ... : ... .. 5 ... ... : ... .. 6 ... ... : ... .. . ... ...
ROW A2 : ... .. B ... ... ... : ... .. A ... ... ... : ... .. . ... : ... .. . ... : ... .. . ... ... : ... .. 4 ... ... : ... .. 5 ... ... : ... .. . ... ...
ROW A3 : ... .. 8 ... ... ... : ... .. 2 ... ... ... : ... .. . ... : ... .. . ... : ... .. . ... ... : ... .. . ... ... : ... .. . ... ... : ... .. . ... ...
ROW A4 : ... .. . ... ... ... : F-1 00 F ... ... ... : ... .. . ... : ... .. . ... : ... .. . ... ... : ... .. 3 ... ... : D#5 01 4 ... ... : ... .. . ... ...
ROW A5 : ... .. . ... ... ... : ... .. E ... ... ... : ... .. . ... : ... .. . ... : ... .. . ... ... : ... .. . ... ... : ... .. 3 ... ... : ... .. . ... ...
ROW A6 : ... .. . ... ... ... : ... .. A ... ... ... : ... .. . ... : ... .. . ... : ... .. . ... ... : --- .. . ... ... : ... .. . ... ... : ... .. . ... ...
ROW A7 : ... .. 1 ... ... ... : ... .. 2 ... ... ... : --- .. . ... : ... .. . ... : ... .. . ... ... : ... .. . ... ... : ... .. 2 ... ... : ... .. . ... ...
ROW A8 : D#3 00 D ... ... ... : D#1 00 F ... ... ... : D#2 00 . ... : ... .. . ... : ... .. . ... ... : F-4 01 4 ... ... : F#5 01 6 ... ... : ... .. . ... ...
ROW A9 : ... .. C ... ... ... : ... .. E ... ... ... : ... .. . ... : ... .. . ... : ... .. . ... ... : ... .. . ... ... : ... .. . ... ... : ... .. . ... ...
ROW AA : ... .. A ... ... ... : ... .. A ... ... ... : ... .. . ... : ... .. 2 ... : ... .. . ... ... : ... .. 3 ... ... : ... .. 5 ... ... : ... .. . ... ...
ROW AB : ... .. 8 ... ... ... : ... .. 2 ... ... ... : ... .. . ... : ... .. . ... : ... .. . ... ... : ... .. . ... ... : ... .. 4 ... ... : ... .. . ... ...
ROW AC : ... .. . ... ... ... : B-0 00 F ... ... ... : ... .. . ... : ... .. . ... : ... .. . ... ... : ... .. 2 ... ... : F-5 01 3 ... ... : ... .. . ... ...
ROW AD : ... .. . ... ... ... : ... .. E ... ... ... : ... .. . ... : ... .. . ... : ... .. . ... ... : ... .. . ... ... : ... .. . ... ... : ... .. . ... ...
ROW AE : ... .. . ... ... ... : ... .. A ... ... ... : ... .. . ... : ... .. . ... : ... .. . ... ... : --- .. . ... ... : ... .. 2 ... ... : ... .. . ... ...
ROW AF : ... .. 1 ... ... ... : ... .. 2 ... ... ... : --- .. . ... : ... .. . ... : ... .. . ... ... : ... .. . ... ... : ... .. . ... ... : ... .. . ... ...
ROW B0 : B-2 00 C ... ... ... : A-0 00 F ... ... ... : B-1 00 . ... : ... .. . ... : ... .. . ... ... : C-5 01 3 ... ... : G#5 01 6 ... ... : ... .. . ... ...
ROW B1 : ... .. B ... ... ... : ... .. E ... ... ... : ... .. . ... : ... .. . ... : ... .. . ... ... : ... .. . ... ... : ... .. 5 ... ... : ... .. . ... ...
ROW B2 : ... .. A ... ... ... : ... .. 0 ... ... ... : ... .. . ... : ... .. . ... : ... .. . ... ... : ... .. 2 ... ... : ... .. 4 ... ... : ... .. . ... ...
ROW B3 : ... .. 8 ... ... ... : ... .. . ... ... ... : ... .. . ... : ... .. . ... : ... .. . ... ... : ... .. . ... ... : ... .. . ... ... : ... .. . ... ...
ROW B4 : ... .. . ... ... ... : ... .. . ... ... ... : ... .. . ... : ... .. 1 ... : ... .. . ... ... : ... .. 1 ... ... : F#5 01 2 ... ... : ... .. . ... ...
ROW B5 : ... .. . ... ... ... : ... .. . ... ... ... : ... .. . ... : ... .. . ... : ... .. . ... ... : ... .. . ... ... : ... .. . ... ... : ... .. . ... ...
ROW B6 : ... .. . ... ... ... : ... .. . ... ... ... : ... .. . ... : ... .. . ... : ... .. . ... ... : --- .. . ... ... : ... .. . ... ... : ... .. . ... ...
ROW B7 : ... .. 1 ... ... ... : ... .. . ... ... ... : ... .. . ... : ... .. . ... : ... .. . ... ... : ... .. . ... ... : ... .. 1 ... ... : ... .. . ... ...
ROW B8 : A-2 00 C ... ... ... : ... .. . ... ... ... : A-1 00 . ... : ... .. . ... : ... .. . ... ... : C-4 01 2 ... ... : A-5 01 5 ... ... : ... .. . ... ...
ROW B9 : ... .. B ... ... ... : ... .. . ... ... ... : ... .. . ... : ... .. . ... : ... .. . ... ... : ... .. . ... ... : ... .. 4 ... ... : ... .. . ... ...
ROW BA : ... .. A ... ... ... : ... .. . ... ... ... : ... .. . ... : ... .. . ... : ... .. . ... ... : ... .. . ... ... : ... .. . ... ... : ... .. . ... ...
ROW BB : ... .. 8 ... ... ... : ... .. . ... ... ... : ... .. . ... : ... .. . ... : ... .. . ... ... : ... .. 1 ... ... : ... .. 3 ... ... : ... .. . ... ...
ROW BC : ... .. . ... ... ... : ... .. . ... ... ... : ... .. . ... : ... .. . ... : ... .. . ... ... : ... .. . ... ... : G#5 01 2 ... ... : ... .. . ... ...
ROW BD : ... .. . ... ... ... : ... .. . ... ... ... : ... .. . ... : ... .. . ... : ... .. . ... ... : ... .. . ... ... : ... .. 1 ... ... : ... .. . ... ...
ROW BE : ... .. . ... ... ... : ... .. . ... ... ... : ... .. . ... : ... .. . ... : ... .. . ... ... : --- .. . ... ... : --- .. . ... ... : ... .. . ... ...
ROW BF : ... .. 1 ... ... ... : ... .. . ... ... ... : ... .. . ... : ... .. . ... : ... .. . ... ... : ... .. . ... ... : ... .. . ... ... : ... .. . ... ...
ROW C0 : F-1 00 C ... ... ... : ... .. . ... ... ... : E-4 00 . ... : B-# 00 C ... : ... .. . ... ... : C-2 01 9 ... V05 : F#3 01 7 ... ... : F-0 01 C ... ...
ROW C1 : ... .. B ... ... ... : ... .. . ... ... ... : F#3 00 . ... : ... .. . ... : ... .. . ... ... : ... .. 8 ... ... : ... .. 6 ... ... : ... .. A ... ...
ROW C2 : ... .. A ... ... ... : ... .. . ... ... ... : B-2 00 . ... : ... .. A ... : ... .. . ... ... : ... .. . ... ... : ... .. 5 ... ... : ... .. 6 ... ...
ROW C3 : ... .. 8 ... ... ... : ... .. . ... ... ... : A#2 00 . ... : ... .. . ... : ... .. . ... ... : ... .. . ... ... : ... .. . ... ... : ... .. . ... ...
ROW C4 : ... .. . ... ... ... : ... .. . ... ... ... : F-2 00 . ... : ... .. 9 ... : ... .. . ... ... : ... .. 7 ... ... : F-3 01 7 ... ... : ... .. . ... ...
ROW C5 : ... .. . ... ... ... : ... .. . ... ... ... : ... .. . ... : ... .. . ... : ... .. . ... ... : ... .. . ... ... : ... .. 6 ... ... : ... .. . ... ...
ROW C6 : ... .. . ... ... ... : ... .. . ... ... ... : ... .. . ... : ... .. 8 ... : ... .. . ... ... : ... .. 6 ... ... : ... .. 5 ... ... : ... .. . ... ...
ROW C7 : ... .. 1 ... ... ... : ... .. . ... ... ... : --- .. . ... : ... .. . ... : ... .. . ... ... : ... .. 5 ... ... : ... .. . ... ... : --- .. . P82 ...
ROW C8 : D#2 00 C ... ... ... : ... .. . ... ... ... : D#3 00 . ... : ... .. 7 ... : ... .. . ... ... : A#2 01 9 ... ... : C-3 01 7 ... ... : D#1 01 C P80 ...
ROW C9 : ... .. B ... ... ... : ... .. . ... ... ... : ... .. . ... : ... .. . ... : ... .. . ... ... : ... .. 8 ... ... : ... .. 6 ... ... : ... .. A ... ...
ROW CA : ... .. A ... ... ... : ... .. . ... ... ... : ... .. . ... : ... .. 6 ... : ... .. . ... ... : ... .. . ... ... : ... .. 5 ... ... : ... .. 6 ... ...
ROW CB : ... .. 8 ... ... ... : ... .. . ... ... ... : ... .. . ... : ... .. . ... : ... .. . ... ... : ... .. . ... ... : ... .. . ... ... : ... .. . ... ...
ROW CC : ... .. . ... ... ... : ... .. . ... ... ... : ... .. . ... : ... .. 5 ... : ... .. . ... ... : ... .. 7 ... ... : B-2 01 7 ... ... : ... .. . ... ...
ROW CD : ... .. . ... ... ... : ... .. . ... ... ... : ... .. . ... : ... .. . ... : ... .. . ... ... : ... .. . ... ... : ... .. 6 ... ... : ... .. . ... ...
ROW CE : ... .. . ... ... ... : ... .. . ... ... ... : ... .. . ... : ... .. 4 ... : ... .. . ... ... : ... .. 6 ... ... : ... .. 5 ... ... : ... .. . ... ...
ROW CF : ... .. 1 ... ... ... : ... .. . ... ... ... : --- .. . ... : ... .. . ... : ... .. . ... ... : ... .. 5 ... ... : ... .. . ... ... : --- .. . P81 ...
ROW D0 : D-2 00 C ... ... ... : F-4 00 8 P80 ... ... : D-3 00 . ... : 5-# 00 F ... : ... .. . ... ... : A-2 01 9 ... ... : F#3 01 7 ... ... : D-1 01 C P80 ...
ROW D1 : ... .. B ... ... ... : ... .. 7 ... ... ... : ... .. . ... : ... .. C ... : ... .. . ... ... : ... .. 8 ... ... : ... .. 6 ... ... : ... .. A ... ...
ROW D2 : ... .. A ... ... ... : ... .. 6 ... ... ... : ... .. . ... : B-# 00 6 ... : ... .. . ... ... : ... .. . ... ... : ... .. 5 ... ... : ... .. 6 ... ...
ROW D3 : ... .. 8 ... ... ... : ... .. 5 ... ... ... : ... .. . ... : ... .. 5 ... : ... .. . ... ... : ... .. . ... ... : ... .. . ... ... : ... .. . ... ...
ROW D4 : ... .. . ... ... ... : ... .. 6 ... ... ... : ... .. . ... : ... .. . ... : ... .. . ... ... : ... .. 7 ... ... : F-3 01 7 ... ... : ... .. . ... ...
ROW D5 : ... .. . ... ... ... : ... .. . ... ... ... : ... .. . ... : ... .. . ... : ... .. . ... ... : ... .. . ... ... : ... .. 6 ... ... : ... .. . ... ...
ROW D6 : ... .. . ... ... ... : ... .. . ... ... ... : ... .. . ... : ... .. 4 ... : ... .. . ... ... : ... .. 6 ... ... : ... .. 5 ... ... : ... .. . ... ...
ROW D7 : ... .. 1 ... ... ... : ... .. . ... ... ... : --- .. . ... : ... .. 3 ... : ... .. . ... ... : ... .. 5 ... ... : ... .. . ... ... : --- .. . ... ...
ROW D8 : F-1 00 C ... ... ... : ... .. 7 ... ... ... : F-2 00 . ... : 1-# 00 F ... : ... .. . ... ... : C-2 01 9 ... ... : C-3 01 7 ... ... : F-0 01 C ... ...
ROW D9 : ... .. B ... ... ... : ... .. . ... ... ... : ... .. . ... : ... .. C ... : ... .. . ... ... : ... .. 8 ... ... : ... .. 6 ... ... : ... .. A ... ...
ROW DA : ... .. A ... ... ... : ... .. 8 ... ... ... : ... .. . ... : ... .. 6 ... : ... .. . ... ... : ... .. . ... ... : ... .. 5 ... ... : ... .. 6 ... ...
ROW DB : ... .. 8 ... ... ... : ... .. . ... ... ... : ... .. . ... : ... .. 3 ... : ... .. . ... ... : ... .. . ... ... : ... .. . ... ... : ... .. . ... ...
ROW DC : ... .. . ... ... ... : ... .. . ... ... ... : ... .. . ... : ... .. 2 ... : ... .. . ... ... : ... .. 7 ... ... : B-2 01 7 ... ... : ... .. . ... ...
ROW DD : ... .. . ... ... ... : ... .. . ... ... ... : ... .. . ... : ... .. 0 ... : ... .. . ... ... : ... .. . ... ... : ... .. 6 ... ... : ... .. . ... ...
ROW DE : ... .. . ... ... ... : ... .. 9 ... ... ... : ... .. . ... : ... .. . ... : ... .. . ... ... : ... .. 6 ... ... : ... .. 5 ... ... : ... .. . ... ...
ROW DF : ... .. 1 ... ... ... : ... .. . ... ... ... : --- .. . ... : ... .. . ... : ... .. . ... ... : ... .. 5 ... ... : ... .. . ... ... : --- .. . P82 ...
ROW E0 : C-2 00 C ... ... ... : A-4 00 F P7F ... ... : C-3 00 . ... : ... .. F ... : ... .. . ... ... : G-2 01 9 ... ... : F#3 01 7 ... ... : C-1 01 C P80 ...
ROW E1 : ... .. B ... ... ... : D-5 00 E ... ... ... : ... .. . ... : ... .. C ... : ... .. . ... ... : ... .. 8 ... ... : ... .. 6 ... ... : ... .. A ... ...
ROW E2 : ... .. A ... ... ... : F-5 00 D P80 ... ... : ... .. . ... : B-# 00 6 ... : ... .. . ... ... : ... .. . ... ... : ... .. 5 ... ... : ... .. 6 ... ...
ROW E3 : ... .. 8 ... ... ... : ... .. A ... ... ... : ... .. . ... : ... .. 5 ... : ... .. . ... ... : ... .. . ... ... : ... .. . ... ... : ... .. . ... ...
ROW E4 : ... .. . ... ... ... : ... .. . ... ... ... : ... .. . ... : ... .. . ... : ... .. . ... ... : ... .. 7 ... ... : F-3 01 7 ... ... : ... .. . ... ...
ROW E5 : ... .. . ... ... ... : ... .. . ... ... ... : ... .. . ... : ... .. . ... : ... .. . ... ... : ... .. . ... ... : ... .. 6 ... ... : ... .. . ... ...
ROW E6 : ... .. . ... ... ... : ... .. . ... ... ... : ... .. . ... : ... .. 4 ... : ... .. . ... ... : ... .. 6 ... ... : ... .. 5 ... ... : ... .. . ... ...
ROW E7 : ... .. 1 ... ... ... : ... .. . ... ... ... : --- .. . ... : ... .. 3 ... : ... .. . ... ... : ... .. 5 ... ... : ... .. . ... ... : --- .. . ... ...
ROW E8 : B-1 00 C ... ... ... : ... .. . ... ... ... : B-2 00 . ... : 1-# 00 F ... : ... .. . ... ... : F#2 01 9 ... ... : C-3 01 7 ... ... : B-0 01 C ... ...
ROW E9 : ... .. B ... ... ... : ... .. . ... ... ... : ... .. . ... : ... .. C ... : ... .. . ... ... : ... .. 8 ... ... : ... .. 6 ... ... : ... .. A ... ...
ROW EA : ... .. A ... ... ... : ... .. . ... ... ... : ... .. . ... : ... .. 6 ... : ... .. . ... ... : ... .. . ... ... : ... .. 5 ... ... : ... .. 6 ... ...
ROW EB : ... .. 8 ... ... ... : ... .. . ... ... ... : ... .. . ... : ... .. 3 ... : ... .. . ... ... : ... .. . ... ... : ... .. . ... ... : ... .. . ... ...
ROW EC : ... .. . ... ... ... : ... .. . ... ... ... : ... .. . ... : ... .. 2 ... : ... .. . ... ... : ... .. 7 ... ... : B-2 01 7 ... ... : ... .. . ... ...
ROW ED : ... .. . ... ... ... : ... .. . ... ... ... : ... .. . ... : ... .. 0 ... : ... .. . ... ... : ... .. . ... ... : ... .. 6 ... ... : ... .. . ... ...
ROW EE : ... .. . ... ... ... : ... .. . ... ... ... : ... .. . ... : ... .. . ... : ... .. . ... ... : ... .. 6 ... ... : ... .. 5 ... ... : ... .. . ... ...
ROW EF : ... .. 1 ... ... ... : ... .. . ... ... ... : --- .. . ... : ... .. . ... : ... .. . ... ... : ... .. 5 ... ... : ... .. . ... ... : --- .. . ... ...
ROW F0 : F-1 00 C ... ... ... : D-5 00 F P7F ... ... : F-2 00 . ... : 5-# 00 F ... : ... .. . ... ... : C-2 01 9 ... ... : F#3 01 7 ... ... : F-0 01 C ... ...
ROW F1 : ... .. B ... ... ... : B-4 00 E P81 ... ... : ... .. . ... : ... .. C ... : ... .. . ... ... : ... .. 8 ... ... : ... .. 6 ... ... : ... .. A ... ...
ROW F2 : ... .. A ... ... ... : ... .. D P80 ... ... : ... .. . ... : B-# 00 6 ... : ... .. . ... ... : ... .. . ... ... : ... .. 5 ... ... : ... .. 6 ... ...
ROW F3 : ... .. 8 ... ... ... : ... .. A ... ... ... : ... .. . ... : ... .. 5 ... : ... .. . ... ... : ... .. . ... ... : ... .. . ... ... : ... .. . ... ...
ROW F4 : ... .. . ... ... ... : ... .. . ... ... ... : ... .. . ... : ... .. . ... : ... .. . ... ... : ... .. 7 ... ... : F-3 01 7 ... ... : ... .. . ... ...
ROW F5 : ... .. . ... ... ... : ... .. . ... ... ... : ... .. . ... : ... .. . ... : ... .. . ... ... : ... .. . ... ... : ... .. 6 ... ... : ... .. . ... ...
ROW F6 : ... .. . ... ... ... : ... .. . ... ... ... : ... .. . ... : ... .. 4 ... : ... .. . ... ... : ... .. 6 ... ... : ... .. 5 ... ... : ... .. . ... ...
ROW F7 : ... .. 1 ... ... ... : ... .. . ... ... ... : --- .. . ... : ... .. 3 ... : ... .. . ... ... : ... .. 5 ... ... : ... .. . ... ... : --- .. . P82 ...
ROW F8 : D#2 00 C ... ... ... : ... .. . ... ... ... : D#3 00 . ... : 1-# 00 F ... : ... .. . ... ... : A#2 01 9 ... ... : C-3 01 7 ... ... : D#1 01 C P80 ...
ROW F9 : ... .. B ... ... ... : ... .. . ... ... ... : ... .. . ... : ... .. C ... : ... .. . ... ... : ... .. 8 ... ... : ... .. 6 ... ... : ... .. A ... ...
ROW FA : ... .. A ... ... ... : ... .. . ... ... ... : ... .. . ... : ... .. 6 ... : ... .. . ... ... : ... .. . ... ... : ... .. 5 ... ... : ... .. 6 ... ...
ROW FB : ... .. 8 ... ... ... : ... .. . ... ... ... : ... .. . ... : ... .. 3 ... : ... .. . ... ... : ... .. . ... ... : ... .. . ... ... : ... .. . ... ...
ROW FC : ... .. . ... ... ... : ... .. . ... ... ... : ... .. . ... : ... .. 2 ... : ... .. . ... ... : ... .. 7 ... ... : B-2 01 7 ... ... : ... .. . ... ...
ROW FD : ... .. . ... ... ... : ... .. . ... ... ... : ... .. . ... : ... .. 0 ... : ... .. . ... ... : ... .. . ... ... : ... .. 6 ... ... : ... .. . ... ...
ROW FE : ... .. . ... ... ... : ... .. 9 ... ... ... : ... .. . ... : ... .. . ... : ... .. . ... ... : ... .. 6 ... ... : ... .. 5 ... ... : ... .. . ... ...
ROW FF : ... .. 1 ... ... ... : ... .. . ... ... ... : --- .. . ... : ... .. . ... : ... .. . ... ... : ... .. 5 ... ... : ... .. . ... ... : --- .. . P81 ...

PATTERN 13
ROW 00 : D-2 00 C ... ... ... : C-5 00 8 P7E ... ... : D-3 00 . ... : ... .. F ... : ... .. . ... ... : A-2 01 9 ... ... : F#3 01 7 ... ... : D-1 01 C P80 ...
ROW 01 : ... .. B ... ... ... : ... .. . P80 ... ... : ... .. . ... : ... .. C ... : ... .. . ... ... : ... .. 8 ... ... : ... .. 6 ... ... : ... .. A ... ...
ROW 02 : ... .. A ... ... ... : ... .. . P7F ... ... : ... .. . ... : B-# 00 6 ... : ... .. . ... ... : ... .. . ... ... : ... .. 5 ... ... : ... .. 6 ... ...
ROW 03 : ... .. 8 ... ... ... : B-4 00 8 P82 ... ... : ... .. . ... : ... .. 5 ... : ... .. . ... ... : ... .. . ... ... : ... .. . ... ... : ... .. . ... ...
ROW 04 : ... .. . ... ... ... : ... .. . P7E ... ... : ... .. . ... : ... .. . ... : ... .. . ... ... : ... .. 7 ... ... : F-3 01 7 ... ... : ... .. . ... ...
ROW 05 : ... .. . ... ... ... : A#4 00 8 P82 ... ... : ... .. . ... : ... .. . ... : ... .. . ... ... : ... .. . ... ... : ... .. 6 ... ... : ... .. . ... ...
ROW 06 : ... .. . ... ... ... : ... .. 7 P81 ... ... : ... .. . ... : ... .. 4 ... : ... .. . ... ... : ... .. 6 ... ... : ... .. 5 ... ... : ... .. . ... ...
ROW 07 : ... .. 1 ... ... ... : ... .. . P83 ... ... : --- .. . ... : ... .. 3 ... : ... .. . ... ... : ... .. 5 ... ... : ... .. . ... ... : --- .. . ... ...
ROW 08 : F-1 00 C ... ... ... : B-4 00 6 P80 ... ... : F-2 00 . ... : 1-# 00 F ... : ... .. . ... ... : C-2 01 9 ... ... : C-3 01 7 ... ... : F-0 01 C ... ...
ROW 09 : ... .. B ... ... ... : ... .. . P83 ... ... : ... .. . ... : ... .. C ... : ... .. . ... ... : ... .. 8 ... ... : ... .. 6 ... ... : ... .. A ... ...
ROW 0A : ... .. A ... ... ... : C-5 00 6 P80 ... ... : ... .. . ... : ... .. 6 ... : ... .. . ... ... : ... .. . ... ... : ... .. 5 ... ... : ... .. 6 ... ...
ROW 0B : ... .. 8 ... ... ... : ... .. . ... ... ... : ... .. . ... : ... .. 3 ... : ... .. . ... ... : ... .. . ... ... : ... .. . ... ... : ... .. . ... ...
ROW 0C : ... .. . ... ... ... : B-4 00 6 P82 ... ... : ... .. . ... : ... .. 2 ... : ... .. . ... ... : ... .. 7 ... ... : B-2 01 7 ... ... : ... .. . ... ...
ROW 0D : ... .. . ... ... ... : ... .. . P7F ... ... : ... .. . ... : ... .. 0 ... : ... .. . ... ... : ... .. . ... ... : ... .. 6 ... ... : ... .. . ... ...
ROW 0E : ... .. . ... ... ... : A#4 00 5 P82 ... ... : ... .. . ... : ... .. . ... : ... .. . ... ... : ... .. 6 ... ... : ... .. 5 ... ... : ... .. . ... ...
ROW 0F : ... .. 1 ... ... ... : ... .. . P81 ... ... : --- .. . ... : ... .. . ... : ... .. . ... ... : ... .. 5 ... ... : ... .. . ... ... : --- .. . P82 ...
ROW 10 : C-2 00 C ... ... ... : A-4 00 8 P80 ... ... : C-3 00 . ... : 5-# 00 F ... : ... .. . ... ... : G-2 01 9 ... ... : F#3 01 7 ... ... : C-1 01 C P80 ...
ROW 11 : ... .. B ... ... ... : ... .. 7 ... ... ... : ... .. . ... : ... .. C ... : ... .. . ... ... : ... .. 8 ... ... : ... .. 6 ... ... : ... .. A ... ...
ROW 12 : ... .. A ... ... ... : ... .. 6 ... ... ... : ... .. . ... : B-# 00 6 ... : ... .. . ... ... : ... .. . ... ... : ... .. 5 ... ... : ... .. 6 ... ...
ROW 13 : ... .. 8 ... ... ... : ... .. 5 ... ... ... : ... .. . ... : ... .. 5 ... : ... .. . ... ... : ... .. . ... ... : ... .. . ... ... : ... .. . ... ...
ROW 14 : ... .. . ... ... ... : ... .. 6 ... ... ... : ... .. . ... : ... .. . ... : ... .. . ... ... : ... .. 7 ... ... : F-3 01 7 ... ... : ... .. . ... ...
ROW 15 : ... .. . ... ... ... : ... .. . ... ... ... : ... .. . ... : ... .. . ... : ... .. . ... ... : ... .. . ... ... : ... .. 6 ... ... : ... .. . ... ...
ROW 16 : ... .. . ... ... ... : ... .. . ... ... ... : ... .. . ... : ... .. 4 ... : ... .. . ... ... : ... .. 6 ... ... : ... .. 5 ... ... : ... .. . ... ...
ROW 17 : ... .. 1 ... ... ... : ... .. . ... ... ... : --- .. . ... : ... .. 3 ... : ... .. . ... ... : ... .. 5 ... ... : ... .. . ... ... : --- .. . ... ...
ROW 18 : B-1 00 C ... ... ... : B-4 00 A ... ... ... : B-2 00 . ... : 1-# 00 F ... : ... .. . ... ... : F#2 01 9 ... ... : C-3 01 7 ... ... : B-0 01 C ... ...
ROW 19 : ... .. B ... ... ... : ... .. 9 ... ... ... : ... .. . ... : ... .. C ... : ... .. . ... ... : ... .. 8 ... ... : ... .. 6 ... ... : ... .. A ... ...
ROW 1A : ... .. A ... ... ... : ... .. 8 ... ... ... : ... .. . ... : ... .. 6 ... : ... .. . ... ... : ... .. . ... ... : ... .. 5 ... ... : ... .. 6 ... ...
ROW 1B : ... .. 8 ... ... ... : ... .. 6 ... ... ... : ... .. . ... : ... .. 3 ... : ... .. . ... ... : ... .. . ... ... : ... .. . ... ... : ... .. . ... ...
ROW 1C : ... .. . ... ... ... : ... .. 7 ... ... ... : ... .. . ... : ... .. 2 ... : ... .. . ... ... : ... .. 7 ... ... : B-2 01 7 ... ... : ... .. . ... ...
ROW 1D : ... .. . ... ... ... : ... .. 1 ... ... ... : ... .. . ... : ... .. 0 ... : ... .. . ... ... : ... .. . ... ... : ... .. 6 ... ... : ... .. . ... ...
ROW 1E : ... .. . ... ... ... : ... .. . ... ... ... : ... .. . ... : ... .. . ... : ... .. . ... ... : ... .. 6 ... ... : ... .. 5 ... ... : ... .. . ... ...
ROW 1F : ... .. 1 ... ... ... : ... .. . ... ... ... : --- .. . ... : ... .. . ... : ... .. . ... ... : ... .. 5 ... ... : ... .. . ... ... : --- .. . ... ...
ROW 20 : G#3 00 C ... ... ... : A-4 00 C P7E ... ... : G-5 00 . ... : ... .. F ... : ... .. . ... ... : D#4 01 9 ... ... : F#3 01 7 ... ... : G#1 01 C ... ...
ROW 21 : ... .. B ... ... ... : G-4 00 B ... ... ... : A-4 00 . ... : ... .. C ... : ... .. . ... ... : ... .. 8 ... ... : ... .. 6 ... ... : ... .. A ... ...
ROW 22 : ... .. A ... ... ... : F-4 00 B P7F ... ... : D-4 00 . ... : B-# 00 6 ... : ... .. . ... ... : ... .. . ... ... : ... .. 5 ... ... : ... .. 6 P60 ...
ROW 23 : ... .. 8 ... ... ... : D#4 00 8 P83 ... ... : C#4 00 . ... : ... .. 5 ... : ... .. . ... ... : ... .. . ... ... : ... .. . ... ... : G-1 01 6 P8A ...
ROW 24 : D#3 00 C ... ... ... : ... .. . P80 ... ... : G#3 00 . ... : ... .. . ... : ... .. . ... ... : A#3 01 9 ... ... : F-3 01 7 ... ... : ... .. . P6A ...
ROW 25 : ... .. B ... ... ... : ... .. . ... ... ... : ... .. . ... : ... .. . ... : ... .. . ... ... : ... .. 8 ... ... : ... .. 6 ... ... : F#1 01 6 P97 ...
ROW 26 : ... .. 8 ... ... ... : ... .. 9 ... ... ... : F#3 00 . P81 : ... .. 4 ... : ... .. . ... ... : ... .. 6 ... ... : ... .. 5 ... ... : ... .. . P77 ...
ROW 27 : ... .. 1 ... ... ... : ... .. . ... ... ... : E-3 00 . P86 : ... .. 3 ... : ... .. . ... ... : ... .. 5 ... ... : ... .. . ... ... : F-1 01 6 PA9 ...
ROW 28 : B-2 00 C ... ... ... : F-4 00 F P7C ... ... : D#3 00 . P7B : 1-# 00 F ... : ... .. . ... ... : F#3 01 9 ... ... : C-3 01 7 ... ... : ... .. . P89 ...
ROW 29 : ... .. B ... ... ... : ... .. E P80 ... ... : C#3 00 . P87 : ... .. C ... : ... .. . ... ... : ... .. 8 ... ... : ... .. 6 ... ... : ... .. . P69 ...
ROW 2A : ... .. 8 ... ... ... : ... .. D ... ... ... : C-3 00 . P7F : ... .. 6 ... : ... .. . ... ... : ... .. 6 ... ... : ... .. 5 ... ... : E-1 01 6 PA0 ...
ROW 2B : ... .. 1 ... ... ... : ... .. A ... ... ... : B-2 00 . P78 : ... .. 3 ... : ... .. . ... ... : ... .. 5 ... ... : ... .. . ... ... : ... .. . P80 ...
ROW 2C : G#2 00 C ... ... ... : ... .. . ... ... ... : A#2 00 . P73 : ... .. F ... : ... .. . ... ... : D#3 01 9 ... ... : B-2 01 7 ... ... : ... .. . P60 ...
ROW 2D : ... .. B ... ... ... : ... .. . ... ... ... : G#2 00 . P8E : ... .. C ... : ... .. . ... ... : ... .. 8 ... ... : ... .. 6 ... ... : D#1 01 6 P9D ...
ROW 2E : ... .. 8 ... ... ... : ... .. . ... ... ... : G-2 00 . ... : ... .. 6 ... : ... .. . ... ... : ... .. 6 ... ... : ... .. 5 ... ... : ... .. . P7D ...
ROW 2F : ... .. 1 ... ... ... : ... .. . ... ... ... : F#2 00 . P90 : ... .. 3 ... : ... .. . ... ... : ... .. 5 ... ... : ... .. . ... ... : ... .. . P5D ...
ROW 30 : D#2 00 C ... ... ... : D#4 00 F P84 ... ... : ... .. . P70 : 5-# 00 F ... : ... .. . ... ... : A#2 01 9 ... ... : F#3 01 7 ... ... : D-1 01 6 P9E ...
ROW 31 : ... .. B ... ... ... : D-4 00 E P7E ... ... : F-2 00 . P74 : ... .. C ... : ... .. . ... ... : ... .. 8 ... ... : ... .. 6 ... ... : ... .. . P7E ...
ROW 32 : ... .. A ... ... ... : C-4 00 D P86 ... ... : E-2 00 . P7A : B-# 00 6 ... : ... .. . ... ... : ... .. . ... ... : ... .. 5 ... ... : ... .. . P5E ...
ROW 33 : ... .. 8 ... ... ... : B-3 00 A P82 ... ... : D#2 00 . P82 : ... .. 5 ... : ... .. . ... ... : ... .. . ... ... : ... .. . ... ... : C#1 01 6 PA6 ...
ROW 34 : B-1 00 C ... ... ... : ... .. . P80 ... ... : D-2 00 . P8D : ... .. . ... : ... .. . ... ... : F#2 01 9 ... ... : F-3 01 7 ... ... : ... .. . P86 ...
ROW 35 : ... .. B ... ... ... : ... .. . ... ... ... : ... .. . P6D : ... .. . ... : ... .. . ... ... : ... .. 8 ... ... : ... .. 6 ... ... : ... .. . P66 ...
ROW 36 : ... .. 8 ... ... ... : ... .. . ... ... ... : C#2 00 . P7A : ... .. 4 ... : ... .. . ... ... : ... .. 6 ... ... : ... .. 5 ... ... : C-1 01 6 PB4 ...
ROW 37 : ... .. 1 ... ... ... : ... .. . ... ... ... : C-2 00 . P8A : ... .. 3 ... : ... .. . ... ... : ... .. 5 ... ... : ... .. . ... ... : ... .. . P94 ...
ROW 38 : G#1 00 C ... ... ... : ... .. . ... ... ... : ... .. . P6A : C-# 00 F ... : ... .. . ... ... : D#2 01 9 ... ... : C-3 01 7 ... ... : ... .. . P74 ...
ROW 39 : ... .. B ... ... ... : ... .. . ... ... ... : B-1 00 . P7D : ... .. C ... : ... .. . ... ... : ... .. 8 ... ... : ... .. 6 ... ... : ... .. . P54 ...
ROW 3A : ... .. 8 ... ... ... : ... .. . ... ... ... : A#1 00 . P93 : ... .. 6 ... : ... .. . ... ... : ... .. 6 ... ... : ... .. 5 ... ... : B-0 01 6 PA8 ...
ROW 3B : ... .. 1 ... ... ... : ... .. . ... ... ... : ... .. . P73 : ... .. 3 ... : ... .. . ... ... : ... .. 5 ... ... : ... .. . ... ... : ... .. . P88 ...
ROW 3C : D#1 00 C ... ... ... : ... .. . ... ... ... : A-1 00 . P8C : ... .. F ... : ... .. . ... ... : A#1 01 9 ... ... : B-2 01 7 ... ... : ... .. . P68 ...
ROW 3D : ... .. B ... ... ... : ... .. . ... ... ... : ... .. . P6C : ... .. C ... : ... .. . ... ... : ... .. 8 ... ... : ... .. 6 ... ... : ... .. . P48 ...
ROW 3E : ... .. 8 ... ... ... : ... .. . ... ... ... : G#1 00 . P88 : ... .. 6 ... : ... .. . ... ... : ... .. 6 ... ... : ... .. 5 ... ... : A#0 01 6 PA3 ...
ROW 3F : ... .. 1 ... ... ... : ... .. . ... ... ... : ... .. . P68 : ... .. 3 ... : ... .. . ... ... : ... .. 5 ... ... : ... .. . ... ... : ... .. . P83 ...
ROW 40 : F-1 00 C ... ... ... : ... .. . ... ... ... : E-4 00 . P80 : 1-# 00 F ... : ... .. . ... ... : C-2 01 9 ... ... : F#3 01 7 ... ... : F-0 01 C P80 ...
ROW 41 : ... .. B ... ... ... : ... .. . ... ... ... : F#3 00 . ... : ... .. C ... : ... .. . ... ... : ... .. 8 ... ... : ... .. 6 ... ... : ... .. A ... ...
ROW 42 : ... .. A ... ... ... : ... .. . ... ... ... : B-2 00 . ... : B-# 00 6 ... : ... .. . ... ... : ... .. . ... ... : ... .. 5 ... ... : ... .. 6 ... ...
ROW 43 : ... .. 8 ... ... ... : ... .. . ... ... ... : A#2 00 . ... : ... .. 5 ... : ... .. . ... ... : ... .. . ... ... : ... .. . ... ... : ... .. . ... ...
ROW 44 : ... .. C ... ... ... : ... .. . ... ... ... : F-2 00 . ... : ... .. . ... : ... .. . ... ... : ... .. 9 ... ... : F-3 01 7 ... ... : ... .. . ... ...
ROW 45 : ... .. B ... ... ... : ... .. . ... ... ... : ... .. . ... : ... .. . ... : ... .. . ... ... : ... .. 8 ... ... : ... .. 6 ... ... : ... .. . ... ...
ROW 46 : ... .. A ... ... ... : ... .. . ... ... ... : ... .. . ... : ... .. 4 ... : ... .. . ... ... : ... .. . ... ... : ... .. 5 ... ... : ... .. . ... ...
ROW 47 : ... .. 8 ... ... ... : ... .. . ... ... ... : --- .. . ... : ... .. 3 ... : ... .. . ... ... : ... .. . ... ... : ... .. . ... ... : --- .. . P82 ...
ROW 48 : D#2 00 C ... ... ... : ... .. . P84 ... ... : D#3 00 . ... : 1-# 00 F ... : ... .. . ... ... : A#2 01 9 ... ... : C-3 01 7 ... ... : D#1 01 C P80 ...
ROW 49 : ... .. B ... ... ... : ... .. . P86 ... ... : ... .. . ... : ... .. C ... : ... .. . ... ... : ... .. 8 ... ... : ... .. 6 ... ... : ... .. A ... ...
ROW 4A : ... .. A ... ... ... : ... .. . P85 ... ... : ... .. . ... : ... .. 6 ... : ... .. . ... ... : ... .. . ... ... : ... .. 5 ... ... : ... .. 6 ... ...
ROW 4B : ... .. 8 ... ... ... : ... .. . P82 ... ... : ... .. . ... : ... .. 3 ... : ... .. . ... ... : ... .. . ... ... : ... .. . ... ... : ... .. . ... ...
ROW 4C : ... .. . ... ... ... : ... .. . P7E ... ... : ... .. . ... : ... .. 2 ... : ... .. . ... ... : ... .. 7 ... ... : B-2 01 7 ... ... : ... .. . ... ...
ROW 4D : ... .. . ... ... ... : ... .. . P7B ... ... : ... .. . ... : ... .. 0 ... : ... .. . ... ... : ... .. . ... ... : ... .. 6 ... ... : ... .. . ... ...
ROW 4E : ... .. . ... ... ... : ... .. . P7A ... ... : ... .. . ... : ... .. . ... : ... .. . ... ... : ... .. . ... ... : ... .. 5 ... ... : ... .. . ... ...
ROW 4F : ... .. . ... ... ... : ... .. . P7C ... ... : --- .. . ... : ... .. . ... : ... .. . ... ... : ... .. 6 ... ... : ... .. . ... ... : --- .. . P81 ...
ROW 50 : D-2 00 C ... ... ... : A#3 00 F P7E ... ... : D-3 00 . ... : 5-# 00 F ... : ... .. . ... ... : A-2 01 9 ... ... : F#3 01 7 ... ... : D-1 01 C P80 ...
ROW 51 : ... .. B ... ... ... : A-3 00 E P80 ... ... : ... .. . ... : ... .. C ... : ... .. . ... ... : ... .. 8 ... ... : ... .. 6 ... ... : ... .. A ... ...
ROW 52 : ... .. A ... ... ... : ... .. D ... ... ... : ... .. . ... : B-# 00 6 ... : ... .. . ... ... : ... .. . ... ... : ... .. 5 ... ... : ... .. 6 ... ...
ROW 53 : ... .. 8 ... ... ... : ... .. A ... ... ... : ... .. . ... : ... .. 5 ... : ... .. . ... ... : ... .. . ... ... : ... .. . ... ... : ... .. . ... ...
ROW 54 : ... .. . ... ... ... : ... .. . ... ... ... : ... .. . ... : ... .. . ... : ... .. . ... ... : ... .. 7 ... ... : F-3 01 7 ... ... : ... .. . ... ...
ROW 55 : ... .. . ... ... ... : ... .. . ... ... ... : ... .. . ... : ... .. . ... : ... .. . ... ... : ... .. . ... ... : ... .. 6 ... ... : ... .. . ... ...
ROW 56 : ... .. . ... ... ... : ... .. . ... ... ... : ... .. . ... : ... .. 4 ... : ... .. . ... ... : ... .. . ... ... : ... .. 5 ... ... : ... .. . ... ...
ROW 57 : ... .. . ... ... ... : ... .. . ... ... ... : --- .. . ... : ... .. 3 ... : ... .. . ... ... : ... .. 6 ... ... : ... .. . ... ... : --- .. . ... ...
ROW 58 : F-1 00 C ... ... ... : ... .. . ... ... ... : F-2 00 . ... : 1-# 00 F ... : ... .. . ... ... : C-2 01 9 ... ... : C-3 01 7 ... ... : F-0 01 C ... ...
ROW 59 : ... .. B ... ... ... : ... .. . ... ... ... : ... .. . ... : ... .. C ... : ... .. . ... ... : ... .. 8 ... ... : ... .. 6 ... ... : ... .. A ... ...
ROW 5A : ... .. 8 ... ... ... : ... .. 5 ... ... ... : ... .. . ... : ... .. 6 ... : ... .. . ... ... : ... .. 6 ... ... : ... .. 5 ... ... : ... .. 6 ... ...
ROW 5B : ... .. 1 ... ... ... : A#3 00 5 P81 ... ... : ... .. . ... : ... .. 3 ... : ... .. . ... ... : ... .. 5 ... ... : ... .. . ... ... : ... .. . ... ...
ROW 5C : ... .. C ... ... ... : B-3 00 5 P82 ... ... : ... .. . ... : ... .. 2 ... : ... .. . ... ... : ... .. 9 ... ... : B-2 01 7 ... ... : ... .. . ... ...
ROW 5D : ... .. B ... ... ... : C-4 00 5 P85 ... ... : ... .. . ... : ... .. 0 ... : ... .. . ... ... : ... .. 8 ... ... : ... .. 6 ... ... : ... .. . ... ...
ROW 5E : ... .. 8 ... ... ... : D-4 00 5 P7C ... ... : ... .. . ... : ... .. . ... : ... .. . ... ... : ... .. 6 ... ... : ... .. 5 ... ... : ... .. . ... ...
ROW 5F : ... .. 1 ... ... ... : D#4 00 5 P80 ... ... : --- .. . ... : ... .. . ... : ... .. . ... ... : ... .. 5 ... ... : ... .. . ... ... : --- .. . P82 ...
ROW 60 : C-2 00 C ... ... ... : ... .. F ... ... ... : C-3 00 . ... : ... .. F ... : ... .. . ... ... : G-2 01 9 ... ... : F#3 01 7 ... ... : C-1 01 C P80 ...
ROW 61 : ... .. B ... ... ... : ... .. E ... ... ... : ... .. . ... : ... .. C ... : ... .. . ... ... : ... .. 8 ... ... : ... .. 6 ... ... : ... .. A ... ...
ROW 62 : ... .. A ... ... ... : ... .. D ... ... ... : ... .. . ... : B-# 00 6 ... : ... .. . ... ... : ... .. . ... ... : ... .. 5 ... ... : ... .. 6 ... ...
ROW 63 : ... .. 8 ... ... ... : ... .. A ... ... ... : ... .. . ... : ... .. 5 ... : ... .. . ... ... : ... .. . ... ... : ... .. . ... ... : ... .. . ... ...
ROW 64 : ... .. . ... ... ... : ... .. . ... ... ... : ... .. . ... : ... .. . ... : ... .. . ... ... : ... .. 7 ... ... : F-3 01 7 ... ... : ... .. . ... ...
ROW 65 : ... .. . ... ... ... : ... .. . ... ... ... : ... .. . ... : ... .. . ... : ... .. . ... ... : ... .. . ... ... : ... .. 6 ... ... : ... .. . ... ...
ROW 66 : ... .. . ... ... ... : ... .. . ... ... ... : ... .. . ... : ... .. 4 ... : ... .. . ... ... : ... .. 6 ... ... : ... .. 5 ... ... : ... .. . ... ...
ROW 67 : ... .. 1 ... ... ... : ... .. . ... ... ... : --- .. . ... : ... .. 3 ... : ... .. . ... ... : ... .. 5 ... ... : ... .. . ... ... : --- .. . ... ...
ROW 68 : B-1 00 C ... ... ... : ... .. . ... ... ... : B-2 00 . ... : 1-# 00 F ... : ... .. . ... ... : F#2 01 9 ... ... : C-3 01 7 ... ... : B-0 01 C ... ...
ROW 69 : ... .. B ... ... ... : ... .. . ... ... ... : ... .. . ... : ... .. C ... : ... .. . ... ... : ... .. 8 ... ... : ... .. 6 ... ... : ... .. A ... ...
ROW 6A : ... .. A ... ... ... : ... .. . ... ... ... : ... .. . ... : ... .. 6 ... : ... .. . ... ... : ... .. . ... ... : ... .. 5 ... ... : ... .. 6 ... ...
ROW 6B : ... .. 8 ... ... ... : ... .. . ... ... ... : ... .. . ... : ... .. 3 ... : ... .. . ... ... : ... .. . ... ... : ... .. . ... ... : ... .. . ... ...
ROW 6C : ... .. . ... ... ... : ... .. . ... ... ... : ... .. . ... : ... .. 2 ... : ... .. . ... ... : ... .. 7 ... ... : B-2 01 7 ... ... : ... .. . ... ...
ROW 6D : ... .. . ... ... ... : ... .. . ... ... ... : ... .. . ... : ... .. 0 ... : ... .. . ... ... : ... .. . ... ... : ... .. 6 ... ... : ... .. . ... ...
ROW 6E : ... .. . ... ... ... : ... .. . ... ... ... : ... .. . ... : ... .. . ... : ... .. . ... ... : ... .. 6 ... ... : ... .. 5 ... ... : ... .. . ... ...
ROW 6F : ... .. 1 ... ... ... : ... .. . ... ... ... : --- .. . ... : ... .. . ... : ... .. . ... ... : ... .. 5 ... ... : ... .. . ... ... : --- .. . ... ...
ROW 70 : F-1 00 C ... ... ... : ... .. . ... ... ... : F-2 00 . ... : 5-# 00 F ... : ... .. . ... ... : C-2 01 9 ... ... : F#3 01 7 ... ... : F-0 01 C ... ...
ROW 71 : ... .. B ... ... ... : ... .. . ... ... ... : ... .. . ... : ... .. C ... : ... .. . ... ... : ... .. 8 ... ... : ... .. 6 ... ... : ... .. A ... ...
ROW 72 : ... .. 8 ... ... ... : ... .. . ... ... ... : ... .. . ... : B-# 00 6 ... : ... .. . ... ... : ... .. 6 ... ... : ... .. 5 ... ... : ... .. 6 ... ...
ROW 73 : ... .. 1 ... ... ... : ... .. . ... ... ... : ... .. . ... : ... .. 5 ... : ... .. . ... ... : ... .. 5 ... ... : ... .. . ... ... : ... .. . ... ...
ROW 74 : ... .. C ... ... ... : ... .. . ... ... ... : ... .. . ... : ... .. . ... : ... .. . ... ... : ... .. 9 ... ... : F-3 01 7 ... ... : ... .. . ... ...
ROW 75 : ... .. B ... ... ... : ... .. . ... ... ... : ... .. . ... : ... .. . ... : ... .. . ... ... : ... .. 8 ... ... : ... .. 6 ... ... : ... .. . ... ...
ROW 76 : ... .. 8 ... ... ... : ... .. . P84 ... ... : ... .. . ... : ... .. 4 ... : ... .. . ... ... : ... .. 6 ... ... : ... .. 5 ... ... : ... .. . ... ...
ROW 77 : ... .. 1 ... ... ... : E-4 00 A P7C ... ... : --- .. . ... : ... .. 3 ... : ... .. . ... ... : ... .. 5 ... ... : ... .. . ... ... : --- .. . P82 ...
ROW 78 : D#2 00 C ... ... ... : D#4 00 A P85 ... ... : D#3 00 . ... : 1-# 00 F ... : ... .. . ... ... : A#2 01 9 ... ... : C-3 01 7 ... ... : D#1 01 C P80 ...
ROW 79 : ... .. B ... ... ... : ... .. . P82 ... ... : ... .. . ... : ... .. C ... : ... .. . ... ... : ... .. 8 ... ... : ... .. 6 ... ... : ... .. A ... ...
ROW 7A : ... .. A ... ... ... : ... .. . P7E ... ... : ... .. . ... : ... .. 6 ... : ... .. . ... ... : ... .. . ... ... : ... .. 5 ... ... : ... .. 6 ... ...
ROW 7B : ... .. 8 ... ... ... : D-4 00 A P85 ... ... : ... .. . ... : ... .. 3 ... : ... .. . ... ... : ... .. . ... ... : ... .. . ... ... : ... .. . ... ...
ROW 7C : ... .. . ... ... ... : ... .. . P84 ... ... : ... .. . ... : ... .. 2 ... : ... .. . ... ... : ... .. 7 ... ... : B-2 01 7 ... ... : ... .. . ... ...
ROW 7D : ... .. . ... ... ... : D#4 00 A P7C ... ... : ... .. . ... : ... .. 0 ... : ... .. . ... ... : ... .. . ... ... : ... .. 6 ... ... : ... .. . ... ...
ROW 7E : ... .. . ... ... ... : ... .. . P80 ... ... : ... .. . ... : ... .. . ... : ... .. . ... ... : ... .. 6 ... ... : ... .. 5 ... ... : ... .. . ... ...
ROW 7F : ... .. 1 ... ... ... : ... .. . P83 ... ... : --- .. . ... : ... .. . ... : ... .. . ... ... : ... .. 5 ... ... : ... .. . ... ... : --- .. . P81 ...
ROW 80 : B-1 00 C ... ... ... : E-4 00 A P7C ... ... : A#3 00 . ... : ... .. F ... : ... .. . ... ... : F#2 01 9 ... ... : F#3 01 7 ... ... : B-0 01 C P80 ...
ROW 81 : ... .. B ... ... ... : ... .. . ... ... ... : C-3 00 . ... : ... .. C ... : ... .. . ... ... : ... .. 8 ... ... : ... .. 6 ... ... : ... .. A ... ...
ROW 82 : ... .. A ... ... ... : D#4 00 A P82 ... ... : F-2 00 . ... : B-# 00 6 ... : ... .. . ... ... : ... .. . ... ... : ... .. 5 ... ... : ... .. 6 ... ...
ROW 83 : ... .. 8 ... ... ... : ... .. . P7F ... ... : E-2 00 . ... : ... .. 5 ... : ... .. . ... ... : ... .. . ... ... : ... .. . ... ... : ... .. . ... ...
ROW 84 : ... .. . ... ... ... : D-4 00 A P85 ... ... : B-1 00 . ... : ... .. . ... : ... .. . ... ... : ... .. 7 ... ... : F-3 01 7 ... ... : ... .. . ... ...
ROW 85 : ... .. . ... ... ... : ... .. . P84 ... ... : ... .. . ... : ... .. . ... : ... .. . ... ... : ... .. . ... ... : ... .. 6 ... ... : ... .. . ... ...
ROW 86 : ... .. . ... ... ... : D#4 00 A P7C ... ... : ... .. . ... : ... .. 4 ... : ... .. . ... ... : ... .. 6 ... ... : ... .. 5 ... ... : ... .. . ... ...
ROW 87 : ... .. 1 ... ... ... : ... .. . P80 ... ... : --- .. . ... : ... .. 3 ... : ... .. . ... ... : ... .. 5 ... ... : ... .. . ... ... : --- .. . ... ...
ROW 88 : F#2 00 C ... ... ... : ... .. . P83 ... ... : F-4 00 . ... : 1-# 00 F ... : ... .. . ... ... : C#3 01 9 ... ... : C-3 01 7 ... ... : F#0 01 C ... ...
ROW 89 : ... .. B ... ... ... : E-4 00 A P7C ... ... : G-3 00 . ... : ... .. C ... : ... .. . ... ... : ... .. 8 ... ... : ... .. 6 ... ... : ... .. A ... ...
ROW 8A : ... .. A ... ... ... : ... .. . ... ... ... : C-3 00 . ... : ... .. 6 ... : ... .. . ... ... : ... .. . ... ... : ... .. 5 ... ... : ... .. 6 ... ...
ROW 8B : ... .. 8 ... ... ... : D#4 00 A P83 ... ... : B-2 00 . ... : ... .. 3 ... : ... .. . ... ... : ... .. . ... ... : ... .. . ... ... : ... .. . ... ...
ROW 8C : ... .. C ... ... ... : ... .. . P80 ... ... : F#2 00 . ... : ... .. 2 ... : ... .. . ... ... : ... .. 9 ... ... : B-2 01 7 ... ... : ... .. . ... ...
ROW 8D : ... .. B ... ... ... : ... .. . P7C ... ... : ... .. . ... : ... .. 0 ... : ... .. . ... ... : ... .. 8 ... ... : ... .. 6 ... ... : ... .. . ... ...
ROW 8E : ... .. A ... ... ... : D-4 00 A P84 ... ... : ... .. . ... : ... .. . ... : ... .. . ... ... : ... .. . ... ... : ... .. 5 ... ... : ... .. . ... ...
ROW 8F : ... .. 0 ... ... ... : ... .. . P85 ... ... : --- .. . ... : ... .. . ... : ... .. . ... ... : --- .. . P84 ... : ... .. . ... ... : --- .. . P81 ...
ROW 90 : E-2 00 C P80 ... ... : D#4 00 A P7F ... ... : D#4 00 . ... : 8-# 00 F ... : ... .. . ... ... : B-2 01 9 P81 ... : F#3 01 7 ... ... : E-0 01 C P80 ...
ROW 91 : ... .. B ... ... ... : ... .. . P82 ... ... : F-3 00 . ... : ... .. C ... : ... .. . ... ... : ... .. 8 ... ... : ... .. 6 ... ... : ... .. A ... ...
ROW 92 : ... .. A ... ... ... : E-4 00 A P7C ... ... : A#2 00 . ... : ... .. 6 ... : ... .. . ... ... : ... .. . ... ... : ... .. 5 ... ... : ... .. 6 ... ...
ROW 93 : ... .. 0 ... ... ... : ... .. . ... ... ... : A-2 00 . ... : ... .. 3 ... : ... .. . ... ... : --- .. . P86 ... : ... .. . ... ... : ... .. . ... ...
ROW 94 : E-2 00 C P80 ... ... : D#4 00 A P83 ... ... : E-2 00 . ... : ... .. F ... : ... .. . ... ... : B-2 01 9 P81 ... : F-3 01 7 ... ... : ... .. . ... ...
ROW 95 : ... .. B ... ... ... : ... .. . P80 ... ... : ... .. . ... : ... .. C ... : ... .. . ... ... : ... .. 8 ... ... : ... .. 6 ... ... : ... .. . ... ...
ROW 96 : ... .. A ... ... ... : ... .. . P7C ... ... : ... .. . ... : ... .. 6 ... : ... .. . ... ... : ... .. . ... ... : ... .. 5 ... ... : ... .. . ... ...
ROW 97 : ... .. 0 ... ... ... : D-4 00 A P84 ... ... : ... .. . ... : ... .. 3 ... : ... .. . ... ... : --- .. . P86 ... : ... .. . ... ... : ... .. . ... ...
ROW 98 : B-2 00 C P80 ... ... : ... .. . P85 ... ... : A#4 00 . ... : 1-# 00 F ... : ... .. . ... ... : F#3 01 9 P81 ... : C-3 01 7 ... ... : B-0 01 C ... ...
ROW 99 : ... .. B ... ... ... : D#4 00 A P7E ... ... : C-4 00 . ... : ... .. C ... : ... .. . ... ... : ... .. 8 ... ... : ... .. 6 ... ... : ... .. A ... ...
ROW 9A : ... .. A ... ... ... : ... .. . P82 ... ... : F-3 00 . ... : ... .. 6 ... : ... .. . ... ... : ... .. . ... ... : ... .. 5 ... ... : ... .. 6 ... ...
ROW 9B : ... .. 0 ... ... ... : ... .. . P85 ... ... : E-3 00 . ... : ... .. 3 ... : ... .. . ... ... : --- .. . P80 ... : ... .. . ... ... : ... .. . ... ...
ROW 9C : B-2 00 C P80 ... ... : E-4 00 A P7C ... ... : B-2 00 . ... : ... .. F ... : ... .. . ... ... : F#3 01 9 P81 ... : B-2 01 7 ... ... : ... .. . ... ...
ROW 9D : ... .. B ... ... ... : D#4 00 A P84 ... ... : ... .. . ... : ... .. C ... : ... .. . ... ... : ... .. 8 ... ... : ... .. 6 ... ... : ... .. . ... ...
ROW 9E : ... .. A ... ... ... : ... .. . P80 ... ... : ... .. . ... : ... .. 6 ... : ... .. . ... ... : ... .. . ... ... : ... .. 5 ... ... : ... .. . ... ...
ROW 9F : ... .. 0 ... ... ... : ... .. . P7D ... ... : ... .. . ... : ... .. 3 ... : ... .. . ... ... : --- .. . P80 ... : ... .. . ... ... : ... .. . ... ...
ROW A0 : A-2 00 C P80 ... ... : D-4 00 A P84 ... ... : G#4 00 . ... : 7-# 00 F ... : ... .. . ... ... : E-3 01 9 P81 ... : F#3 01 7 ... ... : A-0 01 C ... ...
ROW A1 : ... .. B ... ... ... : ... .. . ... ... ... : A#3 00 . ... : ... .. C ... : ... .. . ... ... : ... .. 8 ... ... : ... .. 6 ... ... : ... .. A ... ...
ROW A2 : ... .. A ... ... ... : D#4 00 A P80 ... ... : D#3 00 . ... : ... .. 6 ... : ... .. . ... ... : ... .. . ... ... : ... .. 5 ... ... : ... .. 6 ... ...
ROW A3 : ... .. 0 ... ... ... : ... .. 2 ... ... ... : D-3 00 . ... : ... .. 3 ... : ... .. . ... ... : --- .. . P7E ... : ... .. . ... ... : ... .. . ... ...
ROW A4 : A-2 00 C P80 ... ... : ... .. . ... ... ... : A-2 00 . ... : ... .. F ... : ... .. . ... ... : E-3 01 9 P81 ... : F-3 01 7 ... ... : ... .. . ... ...
ROW A5 : ... .. B ... ... ... : ... .. . ... ... ... : ... .. . ... : ... .. C ... : ... .. . ... ... : ... .. 8 ... ... : ... .. 6 ... ... : ... .. . ... ...
ROW A6 : ... .. A ... ... ... : ... .. 1 ... ... ... : ... .. . ... : ... .. 6 ... : ... .. . ... ... : ... .. . ... ... : ... .. 5 ... ... : ... .. . ... ...
ROW A7 : ... .. 0 ... ... ... : ... .. . ... ... ... : ... .. . ... : ... .. 3 ... : ... .. . ... ... : --- .. . P7E ... : ... .. . ... ... : ... .. . ... ...
ROW A8 : D-3 00 C P80 ... ... : ... .. . ... ... ... : C#5 00 . ... : 1-# 00 F ... : ... .. . ... ... : A-3 01 9 P81 ... : C-3 01 7 ... ... : D-1 01 C ... ...
ROW A9 : ... .. B ... ... ... : ... .. 0 ... ... ... : D#4 00 . ... : ... .. C ... : ... .. . ... ... : ... .. 8 ... ... : ... .. 6 ... ... : ... .. A ... ...
ROW AA : ... .. A ... ... ... : ... .. . ... ... ... : G#3 00 . ... : ... .. 6 ... : ... .. . ... ... : ... .. . ... ... : ... .. 5 ... ... : ... .. 6 ... ...
ROW AB : ... .. 0 ... ... ... : ... .. . ... ... ... : G-3 00 . ... : ... .. 3 ... : ... .. . ... ... : --- .. . ... ... : ... .. . ... ... : ... .. . ... ...
ROW AC : D-3 00 C P80 ... ... : ... .. . ... ... ... : D-3 00 . ... : ... .. F ... : ... .. . ... ... : A-3 01 9 ... ... : B-2 01 7 ... ... : ... .. . ... ...
ROW AD : ... .. B ... ... ... : ... .. . ... ... ... : ... .. . ... : ... .. C ... : ... .. . ... ... : ... .. 8 ... ... : ... .. 6 ... ... : ... .. . ... ...
ROW AE : ... .. A ... ... ... : ... .. . ... ... ... : ... .. . ... : ... .. 6 ... : ... .. . ... ... : ... .. . ... ... : ... .. 5 ... ... : ... .. . ... ...
ROW AF : ... .. 0 ... ... ... : ... .. . ... ... ... : ... .. . ... : ... .. 3 ... : ... .. . ... ... : --- .. . ... ... : ... .. . ... ... : ... .. . ... ...
ROW B0 : C-3 00 C P80 ... ... : ... .. . ... ... ... : B-4 00 . ... : 4-# 00 F ... : ... .. . ... ... : G-3 01 9 ... ... : F#3 01 7 ... ... : C-1 01 C ... ...
ROW B1 : ... .. B ... ... ... : ... .. . ... ... ... : C#4 00 . ... : ... .. C ... : ... .. . ... ... : ... .. 8 ... ... : ... .. 6 ... ... : ... .. A ... ...
ROW B2 : ... .. A ... ... ... : ... .. . ... ... ... : F#3 00 . ... : ... .. 6 ... : ... .. . ... ... : ... .. . ... ... : ... .. 5 ... ... : ... .. 6 ... ...
ROW B3 : ... .. 0 ... ... ... : ... .. . ... ... ... : F-3 00 . ... : ... .. 3 ... : ... .. . ... ... : --- .. . P80 ... : ... .. . ... ... : ... .. . ... ...
ROW B4 : C-3 00 C P80 ... ... : ... .. . ... ... ... : C-3 00 . ... : ... .. F ... : ... .. . ... ... : G-3 01 9 P81 ... : F-3 01 7 ... ... : ... .. . ... ...
ROW B5 : ... .. B ... ... ... : ... .. . ... ... ... : ... .. . ... : ... .. C ... : ... .. . ... ... : ... .. 8 ... ... : ... .. 6 ... ... : ... .. . ... ...
ROW B6 : ... .. A ... ... ... : ... .. . ... ... ... : ... .. . ... : ... .. 6 ... : ... .. . ... ... : ... .. . ... ... : ... .. 5 ... ... : ... .. . ... ...
ROW B7 : ... .. 0 ... ... ... : ... .. . ... ... ... : ... .. . ... : ... .. 3 ... : ... .. . ... ... : --- .. . P80 ... : ... .. . ... ... : ... .. . ... ...
ROW B8 : F-3 00 C P80 ... ... : ... .. . ... ... ... : E-5 00 . ... : 1-# 00 F ... : ... .. . ... ... : C-4 01 9 P81 ... : C-3 01 7 ... ... : F-1 01 C ... ...
ROW B9 : ... .. B ... ... ... : ... .. . ... ... ... : F#4 00 . ... : ... .. C ... : ... .. . ... ... : ... .. 8 ... ... : ... .. 6 ... ... : ... .. A ... ...
ROW BA : ... .. A ... ... ... : ... .. . ... ... ... : B-3 00 . ... : ... .. 6 ... : ... .. . ... ... : ... .. . ... ... : ... .. 5 ... ... : ... .. 6 ... ...
ROW BB : ... .. 0 ... ... ... : ... .. . ... ... ... : A#3 00 . ... : ... .. 3 ... : ... .. . ... ... : --- .. . ... ... : ... .. . ... ... : ... .. . ... ...
ROW BC : F-3 00 C P80 ... ... : ... .. . ... ... ... : F-3 00 . ... : ... .. F ... : ... .. . ... ... : C-4 01 9 ... ... : B-2 01 7 ... ... : ... .. . ... ...
ROW BD : ... .. B ... ... ... : ... .. . ... ... ... : ... .. . ... : ... .. C ... : ... .. . ... ... : ... .. 8 ... ... : ... .. 6 ... ... : ... .. . ... ...
ROW BE : ... .. A ... ... ... : ... .. . ... ... ... : ... .. . ... : ... .. 6 ... : ... .. . ... ... : ... .. . ... ... : ... .. 5 ... ... : ... .. . ... ...
ROW BF : ... .. 0 ... ... ... : ... .. . ... ... ... : ... .. . ... : ... .. 3 ... : ... .. . ... ... : --- .. . ... ... : ... .. . ... ... : ... .. . ... ...
ROW C0 : F-1 00 C P80 ... ... : ... .. . ... ... ... : E-4 00 . ... : ... .. F ... : ... .. . ... ... : C-2 01 9 ... ... : F#3 01 7 ... ... : F-0 01 C ... ...
ROW C1 : ... .. B ... ... ... : ... .. . ... ... ... : F#3 00 . ... : ... .. C ... : ... .. . ... ... : ... .. 8 ... ... : ... .. 6 ... ... : ... .. A ... ...
ROW C2 : ... .. A ... ... ... : ... .. . ... ... ... : B-2 00 . ... : B-# 00 6 ... : ... .. . ... ... : ... .. . ... ... : ... .. 5 ... ... : ... .. 6 ... ...
ROW C3 : ... .. 8 ... ... ... : ... .. . ... ... ... : A#2 00 . ... : ... .. 5 ... : ... .. . ... ... : ... .. . ... ... : ... .. . ... ... : ... .. . ... ...
ROW C4 : ... .. . ... ... ... : ... .. . ... ... ... : F-2 00 . ... : ... .. . ... : ... .. . ... ... : ... .. 7 ... ... : F-3 01 7 ... ... : ... .. . ... ...
ROW C5 : ... .. . ... ... ... : ... .. . ... ... ... : ... .. . ... : ... .. . ... : ... .. . ... ... : ... .. . ... ... : ... .. 6 ... ... : ... .. . ... ...
ROW C6 : ... .. . ... ... ... : ... .. . ... ... ... : ... .. . ... : ... .. 4 ... : ... .. . ... ... : ... .. 6 ... ... : ... .. 5 ... ... : ... .. . ... ...
ROW C7 : ... .. 1 ... ... ... : ... .. . ... ... ... : --- .. . ... : ... .. 3 ... : ... .. . ... ... : ... .. 5 ... ... : ... .. . ... ... : --- .. . P82 ...
ROW C8 : D#2 00 C ... ... ... : ... .. . ... ... ... : D#3 00 . ... : 1-# 00 F ... : ... .. . ... ... : A#2 01 9 ... ... : C-3 01 7 ... ... : D#1 01 C P80 ...
ROW C9 : ... .. B ... ... ... : ... .. . ... ... ... : ... .. . ... : ... .. C ... : ... .. . ... ... : ... .. 8 ... ... : ... .. 6 ... ... : ... .. A ... ...
ROW CA : ... .. A ... ... ... : ... .. . ... ... ... : ... .. . ... : ... .. 6 ... : ... .. . ... ... : ... .. . ... ... : ... .. 5 ... ... : ... .. 6 ... ...
ROW CB : ... .. 8 ... ... ... : ... .. . ... ... ... : ... .. . ... : ... .. 3 ... : ... .. . ... ... : ... .. . ... ... : ... .. . ... ... : ... .. . ... ...
ROW CC : ... .. . ... ... ... : ... .. . ... ... ... : ... .. . ... : ... .. 2 ... : ... .. . ... ... : ... .. 7 ... ... : B-2 01 7 ... ... : ... .. . ... ...
ROW CD : ... .. . ... ... ... : ... .. . ... ... ... : ... .. . ... : ... .. 0 ... : ... .. . ... ... : ... .. . ... ... : ... .. 6 ... ... : ... .. . ... ...
ROW CE : ... .. . ... ... ... : ... .. . ... ... ... : ... .. . ... : ... .. . ... : ... .. . ... ... : ... .. 6 ... ... : ... .. 5 ... ... : ... .. . ... ...
ROW CF : ... .. 1 ... ... ... : ... .. . ... ... ... : --- .. . ... : ... .. . ... : ... .. . ... ... : ... .. 5 ... ... : ... .. . ... ... : --- .. . P81 ...
ROW D0 : D-2 00 C ... ... ... : F-4 00 8 P80 ... ... : D-3 00 . ... : 5-# 00 F ... : ... .. . ... ... : A-2 01 9 ... ... : F#3 01 7 ... ... : D-1 01 C P80 ...
ROW D1 : ... .. B ... ... ... : ... .. 7 ... ... ... : ... .. . ... : ... .. C ... : ... .. . ... ... : ... .. 8 ... ... : ... .. 6 ... ... : ... .. A ... ...
ROW D2 : ... .. A ... ... ... : ... .. 6 ... ... ... : ... .. . ... : B-# 00 6 ... : ... .. . ... ... : ... .. . ... ... : ... .. 5 ... ... : ... .. 6 ... ...
ROW D3 : ... .. 8 ... ... ... : ... .. 5 ... ... ... : ... .. . ... : ... .. 5 ... : ... .. . ... ... : ... .. . ... ... : ... .. . ... ... : ... .. . ... ...
ROW D4 : ... .. . ... ... ... : ... .. 6 ... ... ... : ... .. . ... : ... .. . ... : ... .. . ... ... : ... .. 7 ... ... : F-3 01 7 ... ... : ... .. . ... ...
ROW D5 : ... .. . ... ... ... : ... .. . ... ... ... : ... .. . ... : ... .. . ... : ... .. . ... ... : ... .. . ... ... : ... .. 6 ... ... : ... .. . ... ...
ROW D6 : ... .. . ... ... ... : ... .. . ... ... ... : ... .. . ... : ... .. 4 ... : ... .. . ... ... : ... .. 6 ... ... : ... .. 5 ... ... : ... .. . ... ...
ROW D7 : ... .. 1 ... ... ... : ... .. . ... ... ... : --- .. . ... : ... .. 3 ... : ... .. . ... ... : ... .. 5 ... ... : ... .. . ... ... : --- .. . ... ...
ROW D8 : F-1 00 C ... ... ... : ... .. 7 ... ... ... : F-2 00 . ... : 1-# 00 F ... : ... .. . ... ... : C-2 01 9 ... ... : C-3 01 7 ... ... : F-0 01 C ... ...
ROW D9 : ... .. B ... ... ... : ... .. . ... ... ... : ... .. . ... : ... .. C ... : ... .. . ... ... : ... .. 8 ... ... : ... .. 6 ... ... : ... .. A ... ...
ROW DA : ... .. A ... ... ... : ... .. 8 ... ... ... : ... .. . ... : ... .. 6 ... : ... .. . ... ... : ... .. . ... ... : ... .. 5 ... ... : ... .. 6 ... ...
ROW DB : ... .. 8 ... ... ... : ... .. . ... ... ... : ... .. . ... : ... .. 3 ... : ... .. . ... ... : ... .. . ... ... : ... .. . ... ... : ... .. . ... ...
ROW DC : ... .. . ... ... ... : ... .. . ... ... ... : ... .. . ... : ... .. 2 ... : ... .. . ... ... : ... .. 7 ... ... : B-2 01 7 ... ... : ... .. . ... ...
ROW DD : ... .. . ... ... ... : ... .. . ... ... ... : ... .. . ... : ... .. 0 ... : ... .. . ... ... : ... .. . ... ... : ... .. 6 ... ... : ... .. . ... ...
ROW DE : ... .. . ... ... ... : ... .. 9 ... ... ... : ... .. . ... : ... .. . ... : ... .. . ... ... : ... .. 6 ... ... : ... .. 5 ... ... : ... .. . ... ...
ROW DF : ... .. 1 ... ... ... : ... .. . ... ... ... : --- .. . ... : ... .. . ... : ... .. . ... ... : ... .. 5 ... ... : ... .. . ... ... : --- .. . P82 ...
ROW E0 : C-2 00 C ... ... ... : A-4 00 F P7F ... ... : C-3 00 . ... : ... .. F ... : ... .. . ... ... : G-2 01 9 ... ... : F#3 01 7 ... ... : C-1 01 C P80 ...
ROW E1 : ... .. B ... ... ... : D-5 00 E ... ... ... : ... .. . ... : ... .. C ... : ... .. . ... ... : ... .. 8 ... ... : ... .. 6 ... ... : ... .. A ... ...
ROW E2 : ... .. A ... ... ... : D#5 00 D P80 ... ... : ... .. . ... : B-# 00 6 ... : ... .. . ... ... : ... .. . ... ... : ... .. 5 ... ... : ... .. 6 ... ...
ROW E3 : ... .. 8 ... ... ... : ... .. A ... ... ... : ... .. . ... : ... .. 5 ... : ... .. . ... ... : ... .. . ... ... : ... .. . ... ... : ... .. . ... ...
ROW E4 : ... .. . ... ... ... : ... .. . ... ... ... : ... .. . ... : ... .. . ... : ... .. . ... ... : ... .. 7 ... ... : F-3 01 7 ... ... : ... .. . ... ...
ROW E5 : ... .. . ... ... ... : ... .. . ... ... ... : ... .. . ... : ... .. . ... : ... .. . ... ... : ... .. . ... ... : ... .. 6 ... ... : ... .. . ... ...
ROW E6 : ... .. . ... ... ... : ... .. . ... ... ... : ... .. . ... : ... .. 4 ... : ... .. . ... ... : ... .. 6 ... ... : ... .. 5 ... ... : ... .. . ... ...
ROW E7 : ... .. 1 ... ... ... : ... .. . ... ... ... : --- .. . ... : ... .. 3 ... : ... .. . ... ... : ... .. 5 ... ... : ... .. . ... ... : --- .. . ... ...
ROW E8 : B-1 00 C ... ... ... : ... .. . ... ... ... : B-2 00 . ... : 1-# 00 F ... : ... .. . ... ... : F#2 01 9 ... ... : C-3 01 7 ... ... : B-0 01 C ... ...
ROW E9 : ... .. B ... ... ... : ... .. . ... ... ... : ... .. . ... : ... .. C ... : ... .. . ... ... : ... .. 8 ... ... : ... .. 6 ... ... : ... .. A ... ...
ROW EA : ... .. A ... ... ... : ... .. . ... ... ... : ... .. . ... : ... .. 6 ... : ... .. . ... ... : ... .. . ... ... : ... .. 5 ... ... : ... .. 6 ... ...
ROW EB : ... .. 8 ... ... ... : ... .. . ... ... ... : ... .. . ... : ... .. 3 ... : ... .. . ... ... : ... .. . ... ... : ... .. . ... ... : ... .. . ... ...
ROW EC : ... .. . ... ... ... : ... .. . ... ... ... : ... .. . ... : ... .. 2 ... : ... .. . ... ... : ... .. 7 ... ... : B-2 01 7 ... ... : ... .. . ... ...
ROW ED : ... .. . ... ... ... : ... .. . ... ... ... : ... .. . ... : ... .. 0 ... : ... .. . ... ... : ... .. . ... ... : ... .. 6 ... ... : ... .. . ... ...
ROW EE : ... .. . ... ... ... : ... .. . ... ... ... : ... .. . ... : ... .. . ... : ... .. . ... ... : ... .. 6 ... ... : ... .. 5 ... ... : ... .. . ... ...
ROW EF : ... .. 1 ... ... ... : ... .. . ... ... ... : --- .. . ... : ... .. . ... : ... .. . ... ... : ... .. 5 ... ... : ... .. . ... ... : --- .. . ... ...
ROW F0 : F-1 00 C ... ... ... : C-5 00 F P81 ... ... : F-2 00 . ... : 5-# 00 F ... : ... .. . ... ... : C-2 01 9 ... ... : F#3 01 7 ... ... : F-0 01 C ... ...
ROW F1 : ... .. B ... ... ... : B-4 00 E P80 ... ... : ... .. . ... : ... .. C ... : ... .. . ... ... : ... .. 8 ... ... : ... .. 6 ... ... : ... .. A ... ...
ROW F2 : ... .. A ... ... ... : ... .. D ... ... ... : ... .. . ... : B-# 00 6 ... : ... .. . ... ... : ... .. . ... ... : ... .. 5 ... ... : ... .. 6 ... ...
ROW F3 : ... .. 8 ... ... ... : ... .. A ... ... ... : ... .. . ... : ... .. 5 ... : ... .. . ... ... : ... .. . ... ... : ... .. . ... ... : ... .. . ... ...
ROW F4 : ... .. . ... ... ... : ... .. . ... ... ... : ... .. . ... : ... .. . ... : ... .. . ... ... : ... .. 7 ... ... : F-3 01 7 ... ... : ... .. . ... ...
ROW F5 : ... .. . ... ... ... : ... .. . ... ... ... : ... .. . ... : ... .. . ... : ... .. . ... ... : ... .. . ... ... : ... .. 6 ... ... : ... .. . ... ...
ROW F6 : ... .. . ... ... ... : ... .. . ... ... ... : ... .. . ... : ... .. 4 ... : ... .. . ... ... : ... .. 6 ... ... : ... .. 5 ... ... : ... .. . ... ...
ROW F7 : ... .. 1 ... ... ... : ... .. . ... ... ... : --- .. . ... : ... .. 3 ... : ... .. . ... ... : ... .. 5 ... ... : ... .. . ... ... : --- .. . P82 ...
ROW F8 : D#2 00 C ... ... ... : ... .. . ... ... ... : D#3 00 . ... : 1-# 00 F ... : ... .. . ... ... : A#2 01 9 ... ... : C-3 01 7 ... ... : D#1 01 C P80 ...
ROW F9 : ... .. B ... ... ... : ... .. . ... ... ... : ... .. . ... : ... .. C ... : ... .. . ... ... : ... .. 8 ... ... : ... .. 6 ... ... : ... .. A ... ...
ROW FA : ... .. A ... ... ... : ... .. . ... ... ... : ... .. . ... : ... .. 6 ... : ... .. . ... ... : ... .. . ... ... : ... .. 5 ... ... : ... .. 6 ... ...
ROW FB : ... .. 8 ... ... ... : ... .. . ... ... ... : ... .. . ... : ... .. 3 ... : ... .. . ... ... : ... .. . ... ... : ... .. . ... ... : ... .. . ... ...
ROW FC : ... .. . ... ... ... : ... .. . ... ... ... : ... .. . ... : ... .. 2 ... : ... .. . ... ... : ... .. 7 ... ... : B-2 01 7 ... ... : ... .. . ... ...
ROW FD : ... .. . ... ... ... : ... .. . ... ... ... : ... .. . ... : ... .. 0 ... : ... .. . ... ... : ... .. . ... ... : ... .. 6 ... ... : ... .. . ... ...
ROW FE : ... .. . ... ... ... : ... .. 9 ... ... ... : ... .. . ... : ... .. . ... : ... .. . ... ... : ... .. 6 ... ... : ... .. 5 ... ... : ... .. . ... ...
ROW FF : ... .. 1 ... ... ... : ... .. . ... ... ... : --- .. . ... : ... .. . ... : ... .. . ... ... : ... .. 5 ... ... : ... .. . ... ... : --- .. . P81 ...

PATTERN 14
ROW 00 : D-2 00 C ... ... ... : C-5 00 8 P7E ... ... : D-3 00 . ... : ... .. F ... : ... .. . ... ... : A-2 01 9 ... ... : F#3 01 7 ... ... : D-1 01 C P80 ...
ROW 01 : ... .. B ... ... ... : ... .. . P80 ... ... : ... .. . ... : ... .. C ... : ... .. . ... ... : ... .. 8 ... ... : ... .. 6 ... ... : ... .. A ... ...
ROW 02 : ... .. A ... ... ... : ... .. . P7F ... ... : ... .. . ... : B-# 00 6 ... : ... .. . ... ... : ... .. . ... ... : ... .. 5 ... ... : ... .. 6 ... ...
ROW 03 : ... .. 8 ... ... ... : B-4 00 8 P82 ... ... : ... .. . ... : ... .. 5 ... : ... .. . ... ... : ... .. . ... ... : ... .. . ... ... : ... .. . ... ...
ROW 04 : ... .. . ... ... ... : ... .. . P7E ... ... : ... .. . ... : ... .. . ... : ... .. . ... ... : ... .. 7 ... ... : F-3 01 7 ... ... : ... .. . ... ...
ROW 05 : ... .. . ... ... ... : A#4 00 8 P82 ... ... : ... .. . ... : ... .. . ... : ... .. . ... ... : ... .. . ... ... : ... .. 6 ... ... : ... .. . ... ...
ROW 06 : ... .. . ... ... ... : ... .. 7 P81 ... ... : ... .. . ... : ... .. 4 ... : ... .. . ... ... : ... .. 6 ... ... : ... .. 5 ... ... : ... .. . ... ...
ROW 07 : ... .. 1 ... ... ... : ... .. . P83 ... ... : --- .. . ... : ... .. 3 ... : ... .. . ... ... : ... .. 5 ... ... : ... .. . ... ... : --- .. . ... ...
ROW 08 : F-1 00 C ... ... ... : B-4 00 6 P80 ... ... : F-2 00 . ... : 1-# 00 F ... : ... .. . ... ... : C-2 01 9 ... ... : C-3 01 7 ... ... : F-0 01 C ... ...
ROW 09 : ... .. B ... ... ... : ... .. . P83 ... ... : ... .. . ... : ... .. C ... : ... .. . ... ... : ... .. 8 ... ... : ... .. 6 ... ... : ... .. A ... ...
ROW 0A : ... .. A ... ... ... : C-5 00 6 P80 ... ... : ... .. . ... : ... .. 6 ... : ... .. . ... ... : ... .. . ... ... : ... .. 5 ... ... : ... .. 6 ... ...
ROW 0B : ... .. 8 ... ... ... : ... .. . ... ... ... : ... .. . ... : ... .. 3 ... : ... .. . ... ... : ... .. . ... ... : ... .. . ... ... : ... .. . ... ...
ROW 0C : ... .. . ... ... ... : B-4 00 6 P82 ... ... : ... .. . ... : ... .. 2 ... : ... .. . ... ... : ... .. 7 ... ... : B-2 01 7 ... ... : ... .. . ... ...
ROW 0D : ... .. . ... ... ... : ... .. . P7F ... ... : ... .. . ... : ... .. 0 ... : ... .. . ... ... : ... .. . ... ... : ... .. 6 ... ... : ... .. . ... ...
ROW 0E : ... .. . ... ... ... : A#4 00 5 P82 ... ... : ... .. . ... : ... .. . ... : ... .. . ... ... : ... .. 6 ... ... : ... .. 5 ... ... : ... .. . ... ...
ROW 0F : ... .. 1 ... ... ... : ... .. . P81 ... ... : --- .. . ... : ... .. . ... : ... .. . ... ... : ... .. 5 ... ... : ... .. . ... ... : --- .. . P82 ...
ROW 10 : C-2 00 C ... ... ... : B-4 00 8 P80 ... ... : C-3 00 . ... : 5-# 00 F ... : ... .. . ... ... : G-2 01 9 ... ... : F#3 01 7 ... ... : C-1 01 C P80 ...
ROW 11 : ... .. B ... ... ... : ... .. 7 ... ... ... : ... .. . ... : ... .. C ... : ... .. . ... ... : ... .. 8 ... ... : ... .. 6 ... ... : ... .. A ... ...
ROW 12 : ... .. A ... ... ... : ... .. 6 ... ... ... : ... .. . ... : B-# 00 6 ... : ... .. . ... ... : ... .. . ... ... : ... .. 5 ... ... : ... .. 6 ... ...
ROW 13 : ... .. 8 ... ... ... : ... .. 5 ... ... ... : ... .. . ... : ... .. 5 ... : ... .. . ... ... : ... .. . ... ... : ... .. . ... ... : ... .. . ... ...
ROW 14 : ... .. . ... ... ... : ... .. 6 ... ... ... : ... .. . ... : ... .. . ... : ... .. . ... ... : ... .. 7 ... ... : F-3 01 7 ... ... : ... .. . ... ...
ROW 15 : ... .. . ... ... ... : ... .. . ... ... ... : ... .. . ... : ... .. . ... : ... .. . ... ... : ... .. . ... ... : ... .. 6 ... ... : ... .. . ... ...
ROW 16 : ... .. . ... ... ... : ... .. . ... ... ... : ... .. . ... : ... .. 4 ... : ... .. . ... ... : ... .. 6 ... ... : ... .. 5 ... ... : ... .. . ... ...
ROW 17 : ... .. 1 ... ... ... : ... .. . ... ... ... : --- .. . ... : ... .. 3 ... : ... .. . ... ... : ... .. 5 ... ... : ... .. . ... ... : --- .. . ... ...
ROW 18 : B-1 00 C ... ... ... : C-5 00 8 ... ... ... : B-2 00 . ... : 1-# 00 F ... : ... .. . ... ... : F#2 01 9 ... ... : C-3 01 7 ... ... : B-0 01 C ... ...
ROW 19 : ... .. B ... ... ... : ... .. 7 ... ... ... : ... .. . ... : ... .. C ... : ... .. . ... ... : ... .. 8 ... ... : ... .. 6 ... ... : ... .. A ... ...
ROW 1A : ... .. A ... ... ... : ... .. 8 ... ... ... : ... .. . ... : ... .. 6 ... : ... .. . ... ... : ... .. . ... ... : ... .. 5 ... ... : ... .. 6 ... ...
ROW 1B : ... .. 8 ... ... ... : ... .. 6 ... ... ... : ... .. . ... : ... .. 3 ... : ... .. . ... ... : ... .. . ... ... : ... .. . ... ... : ... .. . ... ...
ROW 1C : ... .. . ... ... ... : ... .. 7 ... ... ... : ... .. . ... : ... .. 2 ... : ... .. . ... ... : ... .. 7 ... ... : B-2 01 7 ... ... : ... .. . ... ...
ROW 1D : ... .. . ... ... ... : ... .. 1 ... ... ... : ... .. . ... : ... .. 0 ... : ... .. . ... ... : ... .. . ... ... : ... .. 6 ... ... : ... .. . ... ...
ROW 1E : ... .. . ... ... ... : ... .. . ... ... ... : ... .. . ... : ... .. . ... : ... .. . ... ... : ... .. 6 ... ... : ... .. 5 ... ... : ... .. . ... ...
ROW 1F : ... .. 1 ... ... ... : ... .. . ... ... ... : --- .. . ... : ... .. . ... : ... .. . ... ... : ... .. 5 ... ... : ... .. . ... ... : --- .. . ... ...
ROW 20 : G#3 00 C ... ... ... : D-5 00 C ... ... ... : G-5 00 . ... : ... .. F ... : ... .. . ... ... : D#4 01 9 ... ... : F#3 01 7 ... ... : G#1 01 C ... ...
ROW 21 : ... .. B ... ... ... : ... .. B ... ... ... : A-4 00 . ... : ... .. C ... : ... .. . ... ... : ... .. 8 ... ... : ... .. 6 ... ... : ... .. A ... ...
ROW 22 : ... .. A ... ... ... : ... .. . ... ... ... : D-4 00 . ... : B-# 00 6 ... : ... .. . ... ... : ... .. . ... ... : ... .. 5 ... ... : ... .. 6 P60 ...
ROW 23 : ... .. 8 ... ... ... : ... .. 8 ... ... ... : C#4 00 . ... : ... .. 5 ... : ... .. . ... ... : ... .. . ... ... : ... .. . ... ... : G-1 01 6 P8A ...
ROW 24 : D#3 00 C ... ... ... : ... .. . ... ... ... : G#3 00 . ... : ... .. . ... : ... .. . ... ... : A#3 01 9 ... ... : F-3 01 7 ... ... : ... .. . P6A ...
ROW 25 : ... .. B ... ... ... : ... .. . ... ... ... : ... .. . ... : ... .. . ... : ... .. . ... ... : ... .. 8 ... ... : ... .. 6 ... ... : F#1 01 6 P97 ...
ROW 26 : ... .. 8 ... ... ... : ... .. 9 ... ... ... : F#3 00 . P81 : ... .. 4 ... : ... .. . ... ... : ... .. 6 ... ... : ... .. 5 ... ... : ... .. . P77 ...
ROW 27 : ... .. 1 ... ... ... : ... .. . ... ... ... : E-3 00 . P86 : ... .. 3 ... : ... .. . ... ... : ... .. 5 ... ... : ... .. . ... ... : F-1 01 6 PA9 ...
ROW 28 : B-2 00 C ... ... ... : D#5 00 F ... ... ... : D#3 00 . P7B : 1-# 00 F ... : ... .. . ... ... : F#3 01 9 ... ... : C-3 01 7 ... ... : ... .. . P89 ...
ROW 29 : ... .. B ... ... ... : ... .. E ... ... ... : C#3 00 . P87 : ... .. C ... : ... .. . ... ... : ... .. 8 ... ... : ... .. 6 ... ... : ... .. . P69 ...
ROW 2A : ... .. 8 ... ... ... : ... .. D ... ... ... : C-3 00 . P7F : ... .. 6 ... : ... .. . ... ... : ... .. 6 ... ... : ... .. 5 ... ... : E-1 01 6 PA0 ...
ROW 2B : ... .. 1 ... ... ... : ... .. A ... ... ... : B-2 00 . P78 : ... .. 3 ... : ... .. . ... ... : ... .. 5 ... ... : ... .. . ... ... : ... .. . P80 ...
ROW 2C : G#2 00 C ... ... ... : ... .. . ... ... ... : A#2 00 . P73 : ... .. F ... : ... .. . ... ... : D#3 01 9 ... ... : B-2 01 7 ... ... : ... .. . P60 ...
ROW 2D : ... .. B ... ... ... : ... .. . ... ... ... : G#2 00 . P8E : ... .. C ... : ... .. . ... ... : ... .. 8 ... ... : ... .. 6 ... ... : D#1 01 6 P9D ...
ROW 2E : ... .. 8 ... ... ... : ... .. . ... ... ... : G-2 00 . ... : ... .. 6 ... : ... .. . ... ... : ... .. 6 ... ... : ... .. 5 ... ... : ... .. . P7D ...
ROW 2F : ... .. 1 ... ... ... : ... .. 2 ... ... ... : F#2 00 . P90 : ... .. 3 ... : ... .. . ... ... : ... .. 5 ... ... : ... .. . ... ... : ... .. . P5D ...
ROW 30 : D#2 00 C ... ... ... : ... .. F ... ... ... : ... .. . P70 : 5-# 00 F ... : ... .. . ... ... : A#2 01 9 ... ... : F#3 01 7 ... ... : D-1 01 6 P9E ...
ROW 31 : ... .. B ... ... ... : ... .. E ... ... ... : F-2 00 . P74 : ... .. C ... : ... .. . ... ... : ... .. 8 ... ... : ... .. 6 ... ... : ... .. . P7E ...
ROW 32 : ... .. A ... ... ... : ... .. D ... ... ... : E-2 00 . P7A : B-# 00 6 ... : ... .. . ... ... : ... .. . ... ... : ... .. 5 ... ... : ... .. . P5E ...
ROW 33 : ... .. 8 ... ... ... : ... .. A ... ... ... : D#2 00 . P82 : ... .. 5 ... : ... .. . ... ... : ... .. . ... ... : ... .. . ... ... : C#1 01 6 PA6 ...
ROW 34 : B-1 00 C ... ... ... : ... .. . ... ... ... : D-2 00 . P8D : ... .. . ... : ... .. . ... ... : F#2 01 9 ... ... : F-3 01 7 ... ... : ... .. . P86 ...
ROW 35 : ... .. B ... ... ... : F-5 00 A P7F ... ... : ... .. . P6D : ... .. . ... : ... .. . ... ... : ... .. 8 ... ... : ... .. 6 ... ... : ... .. . P66 ...
ROW 36 : ... .. 8 ... ... ... : G-5 00 A ... ... ... : C#2 00 . P7A : ... .. 4 ... : ... .. . ... ... : ... .. 6 ... ... : ... .. 5 ... ... : C-1 01 6 PB4 ...
ROW 37 : ... .. 1 ... ... ... : G#5 00 A P80 ... ... : C-2 00 . P8A : ... .. 3 ... : ... .. . ... ... : ... .. 5 ... ... : ... .. . ... ... : ... .. . P94 ...
ROW 38 : G#1 00 C ... ... ... : ... .. . ... ... ... : ... .. . P6A : C-# 00 F ... : ... .. . ... ... : D#2 01 9 ... ... : C-3 01 7 ... ... : ... .. . P74 ...
ROW 39 : ... .. B ... ... ... : ... .. . ... ... ... : B-1 00 . P7D : ... .. C ... : ... .. . ... ... : ... .. 8 ... ... : ... .. 6 ... ... : ... .. . P54 ...
ROW 3A : ... .. 8 ... ... ... : ... .. . ... ... ... : A#1 00 . P93 : ... .. 6 ... : ... .. . ... ... : ... .. 6 ... ... : ... .. 5 ... ... : B-0 01 6 PA8 ...
ROW 3B : ... .. 1 ... ... ... : ... .. . ... ... ... : ... .. . P73 : ... .. 3 ... : ... .. . ... ... : ... .. 5 ... ... : ... .. . ... ... : ... .. . P88 ...
ROW 3C : D#1 00 C ... ... ... : ... .. . ... ... ... : A-1 00 . P8C : ... .. F ... : ... .. . ... ... : A#1 01 9 ... ... : B-2 01 7 ... ... : ... .. . P68 ...
ROW 3D : ... .. B ... ... ... : ... .. . ... ... ... : ... .. . P6C : ... .. C ... : ... .. . ... ... : ... .. 8 ... ... : ... .. 6 ... ... : ... .. . P48 ...
ROW 3E : ... .. 8 ... ... ... : ... .. . ... ... ... : G#1 00 . P88 : ... .. 6 ... : ... .. . ... ... : ... .. 6 ... ... : ... .. 5 ... ... : A#0 01 6 PA3 ...
ROW 3F : ... .. 1 ... ... ... : ... .. . ... ... ... : ... .. . P68 : ... .. 3 ... : ... .. . ... ... : ... .. 5 ... ... : ... .. . ... ... : ... .. . P83 ...
ROW 40 : F-1 00 C ... ... ... : ... .. . ... ... ... : E-4 00 . P80 : 1-# 00 F ... : ... .. . ... ... : C-2 01 9 ... ... : F#3 01 7 ... ... : F-0 01 C P80 ...
ROW 41 : ... .. B ... ... ... : ... .. . ... ... ... : F#3 00 . ... : ... .. C ... : ... .. . ... ... : ... .. 8 ... ... : ... .. 6 ... ... : ... .. A ... ...
ROW 42 : ... .. A ... ... ... : ... .. . ... ... ... : B-2 00 . ... : B-# 00 6 ... : ... .. . ... ... : ... .. . ... ... : ... .. 5 ... ... : ... .. 6 ... ...
ROW 43 : ... .. 8 ... ... ... : ... .. . ... ... ... : A#2 00 . ... : ... .. 5 ... : ... .. . ... ... : ... .. . ... ... : ... .. . ... ... : ... .. . ... ...
ROW 44 : ... .. C ... ... ... : ... .. . ... ... ... : F-2 00 . ... : ... .. . ... : ... .. . ... ... : ... .. 9 ... ... : F-3 01 7 ... ... : ... .. . ... ...
ROW 45 : ... .. B ... ... ... : ... .. . ... ... ... : ... .. . ... : ... .. . ... : ... .. . ... ... : ... .. 8 ... ... : ... .. 6 ... ... : ... .. . ... ...
ROW 46 : ... .. A ... ... ... : ... .. . ... ... ... : ... .. . ... : ... .. 4 ... : ... .. . ... ... : ... .. . ... ... : ... .. 5 ... ... : ... .. . ... ...
ROW 47 : ... .. 8 ... ... ... : ... .. . ... ... ... : --- .. . ... : ... .. 3 ... : ... .. . ... ... : ... .. . ... ... : ... .. . ... ... : --- .. . P82 ...
ROW 48 : D#2 00 C ... ... ... : A-5 00 A P7F ... ... : D#3 00 . ... : 1-# 00 F ... : ... .. . ... ... : A#2 01 9 ... ... : C-3 01 7 ... ... : D#1 01 C P80 ...
ROW 49 : ... .. B ... ... ... : ... .. . P80 ... ... : ... .. . ... : ... .. C ... : ... .. . ... ... : ... .. 8 ... ... : ... .. 6 ... ... : ... .. A ... ...
ROW 4A : ... .. A ... ... ... : ... .. . ... ... ... : ... .. . ... : ... .. 6 ... : ... .. . ... ... : ... .. . ... ... : ... .. 5 ... ... : ... .. 6 ... ...
ROW 4B : ... .. 8 ... ... ... : G#5 00 A P81 ... ... : ... .. . ... : ... .. 3 ... : ... .. . ... ... : ... .. . ... ... : ... .. . ... ... : ... .. . ... ...
ROW 4C : ... .. . ... ... ... : ... .. . P7F ... ... : ... .. . ... : ... .. 2 ... : ... .. . ... ... : ... .. 7 ... ... : B-2 01 7 ... ... : ... .. . ... ...
ROW 4D : ... .. . ... ... ... : G-5 00 A P81 ... ... : ... .. . ... : ... .. 0 ... : ... .. . ... ... : ... .. . ... ... : ... .. 6 ... ... : ... .. . ... ...
ROW 4E : ... .. . ... ... ... : ... .. . ... ... ... : ... .. . ... : ... .. . ... : ... .. . ... ... : ... .. . ... ... : ... .. 5 ... ... : ... .. . ... ...
ROW 4F : ... .. . ... ... ... : ... .. . P82 ... ... : --- .. . ... : ... .. . ... : ... .. . ... ... : ... .. 6 ... ... : ... .. . ... ... : --- .. . P81 ...
ROW 50 : D-2 00 C ... ... ... : G#5 00 A P80 ... ... : D-3 00 . ... : 5-# 00 F ... : ... .. . ... ... : A-2 01 9 ... ... : F#3 01 7 ... ... : D-1 01 C P80 ...
ROW 51 : ... .. B ... ... ... : A-5 00 A P7F ... ... : ... .. . ... : ... .. C ... : ... .. . ... ... : ... .. 8 ... ... : ... .. 6 ... ... : ... .. A ... ...
ROW 52 : ... .. A ... ... ... : ... .. . P80 ... ... : ... .. . ... : B-# 00 6 ... : ... .. . ... ... : ... .. . ... ... : ... .. 5 ... ... : ... .. 6 ... ...
ROW 53 : ... .. 8 ... ... ... : ... .. . ... ... ... : ... .. . ... : ... .. 5 ... : ... .. . ... ... : ... .. . ... ... : ... .. . ... ... : ... .. . ... ...
ROW 54 : ... .. . ... ... ... : G#5 00 A P81 ... ... : ... .. . ... : ... .. . ... : ... .. . ... ... : ... .. 7 ... ... : F-3 01 7 ... ... : ... .. . ... ...
ROW 55 : ... .. . ... ... ... : ... .. . P80 ... ... : ... .. . ... : ... .. . ... : ... .. . ... ... : ... .. . ... ... : ... .. 6 ... ... : ... .. . ... ...
ROW 56 : ... .. . ... ... ... : G-5 00 A P81 ... ... : ... .. . ... : ... .. 4 ... : ... .. . ... ... : ... .. . ... ... : ... .. 5 ... ... : ... .. . ... ...
ROW 57 : ... .. . ... ... ... : ... .. . ... ... ... : --- .. . ... : ... .. 3 ... : ... .. . ... ... : ... .. 6 ... ... : ... .. . ... ... : --- .. . ... ...
ROW 58 : F-1 00 C ... ... ... : ... .. . P82 ... ... : F-2 00 . ... : 1-# 00 F ... : ... .. . ... ... : C-2 01 9 ... ... : C-3 01 7 ... ... : F-0 01 C ... ...
ROW 59 : ... .. B ... ... ... : G#5 00 A P80 ... ... : ... .. . ... : ... .. C ... : ... .. . ... ... : ... .. 8 ... ... : ... .. 6 ... ... : ... .. A ... ...
ROW 5A : ... .. 8 ... ... ... : ... .. . P81 ... ... : ... .. . ... : ... .. 6 ... : ... .. . ... ... : ... .. 6 ... ... : ... .. 5 ... ... : ... .. 6 ... ...
ROW 5B : ... .. 1 ... ... ... : A-5 00 A P80 ... ... : ... .. . ... : ... .. 3 ... : ... .. . ... ... : ... .. 5 ... ... : ... .. . ... ... : ... .. . ... ...
ROW 5C : ... .. C ... ... ... : ... .. . ... ... ... : ... .. . ... : ... .. 2 ... : ... .. . ... ... : ... .. 9 ... ... : B-2 01 7 ... ... : ... .. . ... ...
ROW 5D : ... .. B ... ... ... : G#5 00 A P81 ... ... : ... .. . ... : ... .. 0 ... : ... .. . ... ... : ... .. 8 ... ... : ... .. 6 ... ... : ... .. . ... ...
ROW 5E : ... .. 8 ... ... ... : ... .. . P80 ... ... : ... .. . ... : ... .. . ... : ... .. . ... ... : ... .. 6 ... ... : ... .. 5 ... ... : ... .. . ... ...
ROW 5F : ... .. 1 ... ... ... : G-5 00 A P82 ... ... : --- .. . ... : ... .. . ... : ... .. . ... ... : ... .. 5 ... ... : ... .. . ... ... : --- .. . P82 ...
ROW 60 : C-2 00 C ... ... ... : F#5 00 F P80 ... ... : C-3 00 . ... : ... .. F ... : ... .. . ... ... : G-2 01 9 ... ... : F#3 01 7 ... ... : C-1 01 C P80 ...
ROW 61 : ... .. B ... ... ... : ... .. E ... ... ... : ... .. . ... : ... .. C ... : ... .. . ... ... : ... .. 8 ... ... : ... .. 6 ... ... : ... .. A ... ...
ROW 62 : ... .. A ... ... ... : ... .. D ... ... ... : ... .. . ... : B-# 00 6 ... : ... .. . ... ... : ... .. . ... ... : ... .. 5 ... ... : ... .. 6 ... ...
ROW 63 : ... .. 8 ... ... ... : ... .. A ... ... ... : ... .. . ... : ... .. 5 ... : ... .. . ... ... : ... .. . ... ... : ... .. . ... ... : ... .. . ... ...
ROW 64 : ... .. . ... ... ... : ... .. . ... ... ... : ... .. . ... : ... .. . ... : ... .. . ... ... : ... .. 7 ... ... : F-3 01 7 ... ... : ... .. . ... ...
ROW 65 : ... .. . ... ... ... : ... .. . ... ... ... : ... .. . ... : ... .. . ... : ... .. . ... ... : ... .. . ... ... : ... .. 6 ... ... : ... .. . ... ...
ROW 66 : ... .. . ... ... ... : ... .. . ... ... ... : ... .. . ... : ... .. 4 ... : ... .. . ... ... : ... .. 6 ... ... : ... .. 5 ... ... : ... .. . ... ...
ROW 67 : ... .. 1 ... ... ... : ... .. . ... ... ... : --- .. . ... : ... .. 3 ... : ... .. . ... ... : ... .. 5 ... ... : ... .. . ... ... : --- .. . ... ...
ROW 68 : B-1 00 C ... ... ... : F-5 00 F ... ... ... : B-2 00 . ... : 1-# 00 F ... : ... .. . ... ... : F#2 01 9 ... ... : C-3 01 7 ... ... : B-0 01 C ... ...
ROW 69 : ... .. B ... ... ... : ... .. E ... ... ... : ... .. . ... : ... .. C ... : ... .. . ... ... : ... .. 8 ... ... : ... .. 6 ... ... : ... .. A ... ...
ROW 6A : ... .. A ... ... ... : ... .. D ... ... ... : ... .. . ... : ... .. 6 ... : ... .. . ... ... : ... .. . ... ... : ... .. 5 ... ... : ... .. 6 ... ...
ROW 6B : ... .. 8 ... ... ... : ... .. A ... ... ... : ... .. . ... : ... .. 3 ... : ... .. . ... ... : ... .. . ... ... : ... .. . ... ... : ... .. . ... ...
ROW 6C : ... .. . ... ... ... : ... .. . ... ... ... : ... .. . ... : ... .. 2 ... : ... .. . ... ... : ... .. 7 ... ... : B-2 01 7 ... ... : ... .. . ... ...
ROW 6D : ... .. . ... ... ... : ... .. . ... ... ... : ... .. . ... : ... .. 0 ... : ... .. . ... ... : ... .. . ... ... : ... .. 6 ... ... : ... .. . ... ...
ROW 6E : ... .. . ... ... ... : ... .. . ... ... ... : ... .. . ... : ... .. . ... : ... .. . ... ... : ... .. 6 ... ... : ... .. 5 ... ... : ... .. . ... ...
ROW 6F : ... .. 1 ... ... ... : ... .. . ... ... ... : --- .. . ... : ... .. . ... : ... .. . ... ... : ... .. 5 ... ... : ... .. . ... ... : --- .. . ... ...
ROW 70 : F-1 00 C ... ... ... : F#5 00 8 ... ... ... : F-2 00 . ... : 5-# 00 F ... : ... .. . ... ... : C-2 01 9 ... ... : F#3 01 7 ... ... : F-0 01 C ... ...
ROW 71 : ... .. B ... ... ... : ... .. 7 ... ... ... : ... .. . ... : ... .. C ... : ... .. . ... ... : ... .. 8 ... ... : ... .. 6 ... ... : ... .. A ... ...
ROW 72 : ... .. 8 ... ... ... : ... .. 6 ... ... ... : ... .. . ... : B-# 00 6 ... : ... .. . ... ... : ... .. 6 ... ... : ... .. 5 ... ... : ... .. 6 ... ...
ROW 73 : ... .. 1 ... ... ... : ... .. 5 ... ... ... : ... .. . ... : ... .. 5 ... : ... .. . ... ... : ... .. 5 ... ... : ... .. . ... ... : ... .. . ... ...
ROW 74 : ... .. C ... ... ... : ... .. . ... ... ... : ... .. . ... : ... .. . ... : ... .. . ... ... : ... .. 9 ... ... : F-3 01 7 ... ... : ... .. . ... ...
ROW 75 : ... .. B ... ... ... : ... .. . ... ... ... : ... .. . ... : ... .. . ... : ... .. . ... ... : ... .. 8 ... ... : ... .. 6 ... ... : ... .. . ... ...
ROW 76 : ... .. 8 ... ... ... : ... .. . ... ... ... : ... .. . ... : ... .. 4 ... : ... .. . ... ... : ... .. 6 ... ... : ... .. 5 ... ... : ... .. . ... ...
ROW 77 : ... .. 1 ... ... ... : ... .. . ... ... ... : --- .. . ... : ... .. 3 ... : ... .. . ... ... : ... .. 5 ... ... : ... .. . ... ... : --- .. . P82 ...
ROW 78 : D#2 00 C ... ... ... : F-5 00 8 ... ... ... : D#3 00 . ... : 1-# 00 F ... : ... .. . ... ... : A#2 01 9 ... ... : C-3 01 7 ... ... : D#1 01 C P80 ...
ROW 79 : ... .. B ... ... ... : ... .. 7 ... ... ... : ... .. . ... : ... .. C ... : ... .. . ... ... : ... .. 8 ... ... : ... .. 6 ... ... : ... .. A ... ...
ROW 7A : ... .. A ... ... ... : ... .. 6 ... ... ... : ... .. . ... : ... .. 6 ... : ... .. . ... ... : ... .. . ... ... : ... .. 5 ... ... : ... .. 6 ... ...
ROW 7B : ... .. 8 ... ... ... : ... .. 5 ... ... ... : ... .. . ... : ... .. 3 ... : ... .. . ... ... : ... .. . ... ... : ... .. . ... ... : ... .. . ... ...
ROW 7C : ... .. . ... ... ... : ... .. . ... ... ... : ... .. . ... : ... .. 2 ... : ... .. . ... ... : ... .. 7 ... ... : B-2 01 7 ... ... : ... .. . ... ...
ROW 7D : ... .. . ... ... ... : ... .. . ... ... ... : ... .. . ... : ... .. 0 ... : ... .. . ... ... : ... .. . ... ... : ... .. 6 ... ... : ... .. . ... ...
ROW 7E : ... .. . ... ... ... : ... .. . ... ... ... : ... .. . ... : ... .. . ... : ... .. . ... ... : ... .. 6 ... ... : ... .. 5 ... ... : ... .. . ... ...
ROW 7F : ... .. 1 ... ... ... : ... .. . ... ... ... : --- .. . ... : ... .. . ... : ... .. . ... ... : ... .. 5 ... ... : ... .. . ... ... : --- .. . P81 ...
ROW 80 : B-1 00 C ... ... ... : F#5 00 6 ... ... ... : A#3 00 . ... : ... .. F ... : ... .. . ... ... : F#2 01 9 ... ... : F#3 01 7 ... ... : B-0 01 C P80 ...
ROW 81 : ... .. B ... ... ... : ... .. 5 ... ... ... : C-3 00 . ... : ... .. C ... : ... .. . ... ... : ... .. 8 ... ... : ... .. 6 ... ... : ... .. A ... ...
ROW 82 : ... .. A ... ... ... : ... .. . ... ... ... : F-2 00 . ... : B-# 00 6 ... : ... .. . ... ... : ... .. . ... ... : ... .. 5 ... ... : ... .. 6 ... ...
ROW 83 : ... .. 8 ... ... ... : ... .. 4 ... ... ... : E-2 00 . ... : ... .. 5 ... : ... .. . ... ... : ... .. . ... ... : ... .. . ... ... : ... .. . ... ...
ROW 84 : ... .. . ... ... ... : ... .. . ... ... ... : B-1 00 . ... : ... .. . ... : ... .. . ... ... : ... .. 7 ... ... : F-3 01 7 ... ... : ... .. . ... ...
ROW 85 : ... .. . ... ... ... : ... .. . ... ... ... : ... .. . ... : ... .. . ... : ... .. . ... ... : ... .. . ... ... : ... .. 6 ... ... : ... .. . ... ...
ROW 86 : ... .. . ... ... ... : ... .. . ... ... ... : ... .. . ... : ... .. 4 ... : ... .. . ... ... : ... .. 6 ... ... : ... .. 5 ... ... : ... .. . ... ...
ROW 87 : ... .. 1 ... ... ... : ... .. . ... ... ... : --- .. . ... : ... .. 3 ... : ... .. . ... ... : ... .. 5 ... ... : ... .. . ... ... : --- .. . ... ...
ROW 88 : F#2 00 C ... ... ... : F-5 00 6 ... ... ... : F-4 00 . ... : 1-# 00 F ... : ... .. . ... ... : C#3 01 9 ... ... : C-3 01 7 ... ... : F#0 01 C ... ...
ROW 89 : ... .. B ... ... ... : ... .. 5 ... ... ... : G-3 00 . ... : ... .. C ... : ... .. . ... ... : ... .. 8 ... ... : ... .. 6 ... ... : ... .. A ... ...
ROW 8A : ... .. A ... ... ... : ... .. . ... ... ... : C-3 00 . ... : ... .. 6 ... : ... .. . ... ... : ... .. . ... ... : ... .. 5 ... ... : ... .. 6 ... ...
ROW 8B : ... .. 8 ... ... ... : ... .. 4 ... ... ... : B-2 00 . ... : ... .. 3 ... : ... .. . ... ... : ... .. . ... ... : ... .. . ... ... : ... .. . ... ...
ROW 8C : ... .. C ... ... ... : ... .. . ... ... ... : F#2 00 . ... : ... .. 2 ... : ... .. . ... ... : ... .. 9 ... ... : B-2 01 7 ... ... : ... .. . ... ...
ROW 8D : ... .. B ... ... ... : ... .. . ... ... ... : ... .. . ... : ... .. 0 ... : ... .. . ... ... : ... .. 8 ... ... : ... .. 6 ... ... : ... .. . ... ...
ROW 8E : ... .. A ... ... ... : ... .. . ... ... ... : ... .. . ... : ... .. . ... : ... .. . ... ... : ... .. . ... ... : ... .. 5 ... ... : ... .. . ... ...
ROW 8F : ... .. 0 ... ... ... : ... .. . ... ... ... : --- .. . ... : ... .. . ... : ... .. . ... ... : --- .. . P84 ... : ... .. . ... ... : --- .. . P81 ...
ROW 90 : E-2 00 C P80 ... ... : F#5 00 4 ... ... ... : D#4 00 . ... : 8-# 00 F ... : ... .. . ... ... : B-2 01 9 P81 ... : F#3 01 7 ... ... : E-0 01 C P80 ...
ROW 91 : ... .. B ... ... ... : ... .. 3 ... ... ... : F-3 00 . ... : ... .. C ... : ... .. . ... ... : ... .. 8 ... ... : ... .. 6 ... ... : ... .. A ... ...
ROW 92 : ... .. A ... ... ... : ... .. . ... ... ... : A#2 00 . ... : ... .. 6 ... : ... .. . ... ... : ... .. . ... ... : ... .. 5 ... ... : ... .. 6 ... ...
ROW 93 : ... .. 0 ... ... ... : ... .. 2 ... ... ... : A-2 00 . ... : ... .. 3 ... : ... .. . ... ... : --- .. . P86 ... : ... .. . ... ... : ... .. . ... ...
ROW 94 : E-2 00 C P80 ... ... : ... .. . ... ... ... : E-2 00 . ... : ... .. F ... : ... .. . ... ... : B-2 01 9 P81 ... : F-3 01 7 ... ... : ... .. . ... ...
ROW 95 : ... .. B ... ... ... : ... .. . ... ... ... : ... .. . ... : ... .. C ... : ... .. . ... ... : ... .. 8 ... ... : ... .. 6 ... ... : ... .. . ... ...
ROW 96 : ... .. A ... ... ... : ... .. . ... ... ... : ... .. . ... : ... .. 6 ... : ... .. . ... ... : ... .. . ... ... : ... .. 5 ... ... : ... .. . ... ...
ROW 97 : ... .. 0 ... ... ... : ... .. . ... ... ... : ... .. . ... : ... .. 3 ... : ... .. . ... ... : --- .. . P86 ... : ... .. . ... ... : ... .. . ... ...
ROW 98 : B-2 00 C P80 ... ... : F-5 00 4 ... ... ... : A#4 00 . ... : 1-# 00 F ... : ... .. . ... ... : F#3 01 9 P81 ... : C-3 01 7 ... ... : B-0 01 C ... ...
ROW 99 : ... .. B ... ... ... : ... .. 3 ... ... ... : C-4 00 . ... : ... .. C ... : ... .. . ... ... : ... .. 8 ... ... : ... .. 6 ... ... : ... .. A ... ...
ROW 9A : ... .. A ... ... ... : ... .. . ... ... ... : F-3 00 . ... : ... .. 6 ... : ... .. . ... ... : ... .. . ... ... : ... .. 5 ... ... : ... .. 6 ... ...
ROW 9B : ... .. 0 ... ... ... : ... .. 2 ... ... ... : E-3 00 . ... : ... .. 3 ... : ... .. . ... ... : --- .. . P80 ... : ... .. . ... ... : ... .. . ... ...
ROW 9C : B-2 00 C P80 ... ... : ... .. . ... ... ... : B-2 00 . ... : ... .. F ... : ... .. . ... ... : F#3 01 9 P81 ... : B-2 01 7 ... ... : ... .. . ... ...
ROW 9D : ... .. B ... ... ... : ... .. . ... ... ... : ... .. . ... : ... .. C ... : ... .. . ... ... : ... .. 8 ... ... : ... .. 6 ... ... : ... .. . ... ...
ROW 9E : ... .. A ... ... ... : ... .. . ... ... ... : ... .. . ... : ... .. 6 ... : ... .. . ... ... : ... .. . ... ... : ... .. 5 ... ... : ... .. . ... ...
ROW 9F : ... .. 0 ... ... ... : ... .. . ... ... ... : ... .. . ... : ... .. 3 ... : ... .. . ... ... : --- .. . P80 ... : ... .. . ... ... : ... .. . ... ...
ROW A0 : A-2 00 C P80 ... ... : F#5 00 2 ... ... ... : G#4 00 . ... : 7-# 00 F ... : ... .. . ... ... : E-3 01 9 P81 ... : F#3 01 7 ... ... : A-0 01 C ... ...
ROW A1 : ... .. B ... ... ... : ... .. 1 ... ... ... : A#3 00 . ... : ... .. C ... : ... .. . ... ... : ... .. 8 ... ... : ... .. 6 ... ... : ... .. A ... ...
ROW A2 : ... .. A ... ... ... : ... .. . ... ... ... : D#3 00 . ... : ... .. 6 ... : ... .. . ... ... : ... .. . ... ... : ... .. 5 ... ... : ... .. 6 ... ...
ROW A3 : ... .. 0 ... ... ... : ... .. . ... ... ... : D-3 00 . ... : ... .. 3 ... : ... .. . ... ... : --- .. . P7E ... : ... .. . ... ... : ... .. . ... ...
ROW A4 : A-2 00 C P80 ... ... : ... .. . ... ... ... : A-2 00 . ... : ... .. F ... : ... .. . ... ... : E-3 01 9 P81 ... : F-3 01 7 ... ... : ... .. . ... ...
ROW A5 : ... .. B ... ... ... : ... .. . ... ... ... : ... .. . ... : ... .. C ... : ... .. . ... ... : ... .. 8 ... ... : ... .. 6 ... ... : ... .. . ... ...
ROW A6 : ... .. A ... ... ... : ... .. . ... ... ... : ... .. . ... : ... .. 6 ... : ... .. . ... ... : ... .. . ... ... : ... .. 5 ... ... : ... .. . ... ...
ROW A7 : ... .. 0 ... ... ... : ... .. . ... ... ... : ... .. . ... : ... .. 3 ... : ... .. . ... ... : --- .. . P7E ... : ... .. . ... ... : ... .. . ... ...
ROW A8 : D-3 00 C P80 ... ... : F-5 00 2 ... ... ... : C#5 00 . ... : 1-# 00 F ... : ... .. . ... ... : A-3 01 9 P81 ... : C-3 01 7 ... ... : D-1 01 C ... ...
ROW A9 : ... .. B ... ... ... : ... .. 1 ... ... ... : D#4 00 . ... : ... .. C ... : ... .. . ... ... : ... .. 8 ... ... : ... .. 6 ... ... : ... .. A ... ...
ROW AA : ... .. A ... ... ... : ... .. . ... ... ... : G#3 00 . ... : ... .. 6 ... : ... .. . ... ... : ... .. . ... ... : ... .. 5 ... ... : ... .. 6 ... ...
ROW AB : ... .. 0 ... ... ... : ... .. . ... ... ... : G-3 00 . ... : ... .. 3 ... : ... .. . ... ... : --- .. . ... ... : ... .. . ... ... : ... .. . ... ...
ROW AC : D-3 00 C P80 ... ... : ... .. . ... ... ... : D-3 00 . ... : ... .. F ... : ... .. . ... ... : A-3 01 9 ... ... : B-2 01 7 ... ... : ... .. . ... ...
ROW AD : ... .. B ... ... ... : ... .. . ... ... ... : ... .. . ... : ... .. C ... : ... .. . ... ... : ... .. 8 ... ... : ... .. 6 ... ... : ... .. . ... ...
ROW AE : ... .. A ... ... ... : ... .. . ... ... ... : ... .. . ... : ... .. 6 ... : ... .. . ... ... : ... .. . ... ... : ... .. 5 ... ... : ... .. . ... ...
ROW AF : ... .. 0 ... ... ... : ... .. . ... ... ... : ... .. . ... : ... .. 3 ... : ... .. . ... ... : --- .. . ... ... : ... .. . ... ... : ... .. . ... ...
ROW B0 : C-3 00 C P80 ... ... : ... .. 0 ... ... ... : B-4 00 . ... : 4-# 00 F ... : ... .. . ... ... : G-3 01 9 ... ... : F#3 01 7 ... ... : C-1 01 C ... ...
ROW B1 : ... .. B ... ... ... : ... .. . ... ... ... : C#4 00 . ... : ... .. C ... : ... .. . ... ... : ... .. 8 ... ... : ... .. 6 ... ... : ... .. A ... ...
ROW B2 : ... .. A ... ... ... : ... .. . ... ... ... : F#3 00 . ... : ... .. 6 ... : ... .. . ... ... : ... .. . ... ... : ... .. 5 ... ... : ... .. 6 ... ...
ROW B3 : ... .. 0 ... ... ... : ... .. . ... ... ... : F-3 00 . ... : ... .. 3 ... : ... .. . ... ... : --- .. . P80 ... : ... .. . ... ... : ... .. . ... ...
ROW B4 : C-3 00 C P80 ... ... : ... .. . ... ... ... : C-3 00 . ... : ... .. F ... : ... .. . ... ... : G-3 01 9 P81 ... : F-3 01 7 ... ... : ... .. . ... ...
ROW B5 : ... .. B ... ... ... : ... .. . ... ... ... : ... .. . ... : ... .. C ... : ... .. . ... ... : ... .. 8 ... ... : ... .. 6 ... ... : ... .. . ... ...
ROW B6 : ... .. A ... ... ... : ... .. . ... ... ... : ... .. . ... : ... .. 6 ... : ... .. . ... ... : ... .. . ... ... : ... .. 5 ... ... : ... .. . ... ...
ROW B7 : ... .. 0 ... ... ... : ... .. . ... ... ... : ... .. . ... : ... .. 3 ... : ... .. . ... ... : --- .. . P80 ... : ... .. . ... ... : ... .. . ... ...
ROW B8 : F-3 00 C P80 ... ... : ... .. . ... ... ... : E-5 00 . ... : 1-# 00 F ... : ... .. . ... ... : C-4 01 9 P81 ... : C-3 01 7 ... ... : F-1 01 C ... ...
ROW B9 : ... .. B ... ... ... : ... .. . ... ... ... : F#4 00 . ... : ... .. C ... : ... .. . ... ... : ... .. 8 ... ... : ... .. 6 ... ... : ... .. A ... ...
ROW BA : ... .. A ... ... ... : ... .. . ... ... ... : B-3 00 . ... : ... .. 6 ... : ... .. . ... ... : ... .. . ... ... : ... .. 5 ... ... : ... .. 6 ... ...
ROW BB : ... .. 0 ... ... ... : ... .. . ... ... ... : A#3 00 . ... : ... .. 3 ... : ... .. . ... ... : --- .. . ... ... : ... .. . ... ... : ... .. . ... ...
ROW BC : F-3 00 C P80 ... ... : ... .. . ... ... ... : F-3 00 . ... : ... .. F ... : ... .. . ... ... : C-4 01 9 ... ... : B-2 01 7 ... ... : ... .. . ... ...
ROW BD : ... .. B ... ... ... : ... .. . ... ... ... : ... .. . ... : ... .. C ... : ... .. . ... ... : ... .. 8 ... ... : ... .. 6 ... ... : ... .. . ... ...
ROW BE : ... .. A ... ... ... : ... .. . ... ... ... : ... .. . ... : ... .. 6 ... : ... .. . ... ... : ... .. . ... ... : ... .. 5 ... ... : ... .. . ... ...
ROW BF : ... .. 0 ... ... ... : ... .. . ... ... ... : ... .. . ... : ... .. 3 ... : ... .. . ... ... : --- .. . ... ... : ... .. . ... ... : ... .. . ... ...
ROW C0 : G#1 00 C P80 ... ... : ... .. . ... ... ... : G-4 00 . ... : ... .. F ... : ... .. . ... ... : D-3 01 A ... V03 : F#3 01 6 ... ... : C#1 01 F ... ...
ROW C1 : ... .. B ... ... ... : ... .. . ... ... ... : A-3 00 . ... : ... .. C ... : ... .. . ... ... : ... .. 9 ... ... : ... .. 5 ... ... : ... .. D ... ...
ROW C2 : ... .. A ... ... ... : ... .. . ... ... ... : D-3 00 . ... : B-# 00 6 ... : ... .. . ... ... : ... .. 8 ... ... : ... .. 4 ... ... : ... .. 8 ... ...
ROW C3 : ... .. 8 ... ... ... : ... .. . ... ... ... : C#3 00 . ... : ... .. 5 ... : ... .. . ... ... : ... .. 7 ... ... : ... .. . ... ... : ... .. . ... ...
ROW C4 : ... .. . ... ... ... : ... .. . ... ... ... : G#2 00 . ... : ... .. . ... : ... .. . ... ... : ... .. . ... ... : F-3 01 6 ... ... : ... .. . ... ...
ROW C5 : ... .. . ... ... ... : ... .. . ... ... ... : ... .. . ... : ... .. . ... : ... .. . ... ... : ... .. 6 ... ... : ... .. 5 ... ... : ... .. . ... ...
ROW C6 : ... .. . ... ... ... : ... .. . ... ... ... : ... .. . ... : ... .. 4 ... : ... .. . ... ... : ... .. 5 ... ... : ... .. 4 ... ... : ... .. . ... ...
ROW C7 : ... .. 1 ... ... ... : ... .. . ... ... ... : --- .. . ... : ... .. 3 ... : ... .. . ... ... : ... .. . ... ... : ... .. . ... ... : --- .. . P81 ...
ROW C8 : F#2 00 C ... ... ... : ... .. . ... ... ... : A-2 00 . ... : 1-# 00 F ... : ... .. . ... ... : C-4 01 A ... ... : C-3 01 6 ... ... : A-0 01 F P80 ...
ROW C9 : ... .. B ... ... ... : ... .. . ... ... ... : ... .. . ... : ... .. C ... : ... .. . ... ... : ... .. 9 ... ... : ... .. 5 ... ... : ... .. D ... ...
ROW CA : ... .. A ... ... ... : ... .. . ... ... ... : ... .. . ... : ... .. 6 ... : ... .. . ... ... : ... .. 8 ... ... : ... .. 4 ... ... : ... .. 8 ... ...
ROW CB : ... .. 8 ... ... ... : ... .. . ... ... ... : ... .. . ... : ... .. 3 ... : ... .. . ... ... : ... .. 7 ... ... : ... .. . ... ... : ... .. . ... ...
ROW CC : ... .. . ... ... ... : ... .. . ... ... ... : ... .. . ... : ... .. 2 ... : ... .. . ... ... : ... .. . ... ... : B-2 01 6 ... ... : ... .. . ... ...
ROW CD : ... .. . ... ... ... : ... .. . ... ... ... : ... .. . ... : ... .. 0 ... : ... .. . ... ... : ... .. 6 ... ... : ... .. 5 ... ... : ... .. . ... ...
ROW CE : ... .. . ... ... ... : ... .. . ... ... ... : ... .. . ... : ... .. . ... : ... .. . ... ... : ... .. 5 ... ... : ... .. 4 ... ... : ... .. . ... ...
ROW CF : ... .. 1 ... ... ... : ... .. . ... ... ... : --- .. . ... : ... .. . ... : ... .. . ... ... : ... .. . ... ... : ... .. . ... ... : --- .. . ... ...
ROW D0 : F-2 00 C ... ... ... : F#4 00 8 P80 ... ... : F#2 00 . ... : 5-# 00 F ... : ... .. . ... ... : B-3 01 A ... ... : F#3 01 6 ... ... : F#0 01 F ... ...
ROW D1 : ... .. B ... ... ... : ... .. 7 ... ... ... : ... .. . ... : ... .. C ... : ... .. . ... ... : ... .. 9 ... ... : ... .. 5 ... ... : ... .. D ... ...
ROW D2 : ... .. A ... ... ... : ... .. 6 ... ... ... : ... .. . ... : B-# 00 6 ... : ... .. . ... ... : ... .. 8 ... ... : ... .. 4 ... ... : ... .. 8 ... ...
ROW D3 : ... .. 8 ... ... ... : ... .. 5 ... ... ... : ... .. . ... : ... .. 5 ... : ... .. . ... ... : ... .. 7 ... ... : ... .. . ... ... : ... .. . ... ...
ROW D4 : ... .. . ... ... ... : ... .. 6 ... ... ... : ... .. . ... : ... .. . ... : ... .. . ... ... : ... .. . ... ... : F-3 01 6 ... ... : ... .. . ... ...
ROW D5 : ... .. . ... ... ... : ... .. . ... ... ... : ... .. . ... : ... .. . ... : ... .. . ... ... : ... .. 6 ... ... : ... .. 5 ... ... : ... .. . ... ...
ROW D6 : ... .. . ... ... ... : ... .. . ... ... ... : ... .. . ... : ... .. 4 ... : ... .. . ... ... : ... .. 5 ... ... : ... .. 4 ... ... : ... .. . ... ...
ROW D7 : ... .. 1 ... ... ... : ... .. 1 ... ... ... : --- .. . ... : ... .. 3 ... : ... .. . ... ... : ... .. . ... ... : ... .. . ... ... : --- .. . P81 ...
ROW D8 : G#1 00 C ... ... ... : G#4 00 B ... ... ... : G#2 00 . ... : 1-# 00 F ... : ... .. . ... ... : D-3 01 A ... ... : C-3 01 6 ... ... : G#0 01 F P80 ...
ROW D9 : ... .. B ... ... ... : ... .. A ... ... ... : ... .. . ... : ... .. C ... : ... .. . ... ... : ... .. 9 ... ... : ... .. 5 ... ... : ... .. D ... ...
ROW DA : ... .. A ... ... ... : ... .. . ... ... ... : ... .. . ... : ... .. 6 ... : ... .. . ... ... : ... .. 8 ... ... : ... .. 4 ... ... : ... .. 8 ... ...
ROW DB : ... .. 8 ... ... ... : ... .. 8 ... ... ... : ... .. . ... : ... .. 3 ... : ... .. . ... ... : ... .. 7 ... ... : ... .. . ... ... : ... .. . ... ...
ROW DC : ... .. . ... ... ... : ... .. . ... ... ... : ... .. . ... : ... .. 2 ... : ... .. . ... ... : ... .. . ... ... : B-2 01 6 ... ... : ... .. . ... ...
ROW DD : ... .. . ... ... ... : ... .. . ... ... ... : ... .. . ... : ... .. 0 ... : ... .. . ... ... : ... .. 6 ... ... : ... .. 5 ... ... : ... .. . ... ...
ROW DE : ... .. . ... ... ... : ... .. 9 ... ... ... : ... .. . ... : ... .. . ... : ... .. . ... ... : ... .. 5 ... ... : ... .. 4 ... ... : ... .. . ... ...
ROW DF : ... .. 1 ... ... ... : ... .. 1 ... ... ... : --- .. . ... : ... .. . ... : ... .. . ... ... : ... .. . ... ... : ... .. . ... ... : --- .. . P84 ...
ROW E0 : D#2 00 C ... ... ... : A-4 00 F ... ... ... : G#3 00 . ... : ... .. F ... : ... .. . ... ... : A-3 01 A ... ... : F#3 01 6 ... ... : G#1 01 F P80 ...
ROW E1 : ... .. B ... ... ... : ... .. E ... ... ... : ... .. . ... : ... .. C ... : ... .. . ... ... : ... .. 9 ... ... : ... .. 5 ... ... : ... .. D ... ...
ROW E2 : ... .. A ... ... ... : ... .. D ... ... ... : ... .. . ... : B-# 00 6 ... : ... .. . ... ... : ... .. 8 ... ... : ... .. 4 ... ... : ... .. 8 ... ...
ROW E3 : ... .. 8 ... ... ... : ... .. A ... ... ... : ... .. . ... : ... .. 5 ... : ... .. . ... ... : ... .. 7 ... ... : ... .. . ... ... : ... .. . ... ...
ROW E4 : ... .. . ... ... ... : ... .. . ... ... ... : ... .. . ... : ... .. . ... : ... .. . ... ... : ... .. . ... ... : F-3 01 6 ... ... : ... .. . ... ...
ROW E5 : ... .. . ... ... ... : ... .. . ... ... ... : ... .. . ... : ... .. . ... : ... .. . ... ... : ... .. 6 ... ... : ... .. 5 ... ... : ... .. . ... ...
ROW E6 : ... .. . ... ... ... : ... .. . ... ... ... : ... .. . ... : ... .. 4 ... : ... .. . ... ... : ... .. 5 ... ... : ... .. 4 ... ... : ... .. . ... ...
ROW E7 : ... .. 1 ... ... ... : ... .. . ... ... ... : --- .. . ... : ... .. 3 ... : ... .. . ... ... : ... .. . ... ... : ... .. . ... ... : --- .. . P7E ...
ROW E8 : D-2 00 C ... ... ... : ... .. . ... ... ... : A-2 00 . ... : 1-# 00 F ... : ... .. . ... ... : G#3 01 A ... ... : C-3 01 6 ... ... : A-0 01 F P80 ...
ROW E9 : ... .. B ... ... ... : ... .. . ... ... ... : ... .. . ... : ... .. C ... : ... .. . ... ... : ... .. 9 ... ... : ... .. 5 ... ... : ... .. D ... ...
ROW EA : ... .. A ... ... ... : ... .. . ... ... ... : ... .. . ... : ... .. 6 ... : ... .. . ... ... : ... .. 8 ... ... : ... .. 4 ... ... : ... .. 8 ... ...
ROW EB : ... .. 8 ... ... ... : ... .. . ... ... ... : ... .. . ... : ... .. 3 ... : ... .. . ... ... : ... .. 7 ... ... : ... .. . ... ... : ... .. . ... ...
ROW EC : ... .. . ... ... ... : ... .. . ... ... ... : ... .. . ... : ... .. 2 ... : ... .. . ... ... : ... .. . ... ... : B-2 01 6 ... ... : ... .. . ... ...
ROW ED : ... .. . ... ... ... : ... .. . ... ... ... : ... .. . ... : ... .. 0 ... : ... .. . ... ... : ... .. 6 ... ... : ... .. 5 ... ... : ... .. . ... ...
ROW EE : ... .. . ... ... ... : ... .. . ... ... ... : ... .. . ... : ... .. . ... : ... .. . ... ... : ... .. 5 ... ... : ... .. 4 ... ... : ... .. . ... ...
ROW EF : ... .. 1 ... ... ... : ... .. . ... ... ... : --- .. . ... : ... .. . ... : ... .. . ... ... : ... .. . ... ... : ... .. . ... ... : --- .. . ... ...
ROW F0 : G#1 00 C ... ... ... : A#4 00 A P7D ... ... : F#2 00 . ... : 5-# 00 F ... : ... .. . ... ... : D-3 01 A ... ... : F#3 01 6 ... ... : F#0 01 F ... ...
ROW F1 : ... .. B ... ... ... : ... .. . P7F ... ... : ... .. . ... : ... .. C ... : ... .. . ... ... : ... .. 9 ... ... : ... .. 5 ... ... : ... .. D ... ...
ROW F2 : ... .. A ... ... ... : ... .. . P7E ... ... : ... .. . ... : B-# 00 6 ... : ... .. . ... ... : ... .. 8 ... ... : ... .. 4 ... ... : ... .. 8 ... ...
ROW F3 : ... .. 8 ... ... ... : A-4 00 A P82 ... ... : ... .. . ... : ... .. 5 ... : ... .. . ... ... : ... .. 7 ... ... : ... .. . ... ... : ... .. . ... ...
ROW F4 : ... .. . ... ... ... : ... .. . P7E ... ... : ... .. . ... : ... .. . ... : ... .. . ... ... : ... .. . ... ... : F-3 01 6 ... ... : ... .. . ... ...
ROW F5 : ... .. . ... ... ... : G#4 00 A P83 ... ... : ... .. . ... : ... .. . ... : ... .. . ... ... : ... .. 6 ... ... : ... .. 5 ... ... : ... .. . ... ...
ROW F6 : ... .. . ... ... ... : ... .. . P82 ... ... : ... .. . ... : ... .. 4 ... : ... .. . ... ... : ... .. 5 ... ... : ... .. 4 ... ... : ... .. . ... ...
ROW F7 : ... .. 1 ... ... ... : ... .. . P84 ... ... : --- .. . ... : ... .. 3 ... : ... .. . ... ... : ... .. . ... ... : ... .. . ... ... : --- .. . P81 ...
ROW F8 : F#2 00 C ... ... ... : A-4 00 A P80 ... ... : G#2 00 . ... : 1-# 00 F ... : ... .. . ... ... : C-4 01 A ... ... : C-3 01 6 ... ... : G#0 01 F P80 ...
ROW F9 : ... .. B ... ... ... : ... .. . P83 ... ... : ... .. . ... : ... .. C ... : ... .. . ... ... : ... .. 9 ... ... : ... .. 5 ... ... : ... .. D ... ...
ROW FA : ... .. A ... ... ... : A#4 00 A P7F ... ... : ... .. . ... : ... .. 6 ... : ... .. . ... ... : ... .. 8 ... ... : ... .. 4 ... ... : ... .. 8 ... ...
ROW FB : ... .. 8 ... ... ... : ... .. . ... ... ... : ... .. . ... : ... .. 3 ... : ... .. . ... ... : ... .. 7 ... ... : ... .. . ... ... : ... .. . ... ...
ROW FC : ... .. . ... ... ... : A-4 00 A P82 ... ... : ... .. . ... : ... .. 2 ... : ... .. . ... ... : ... .. . ... ... : B-2 01 6 ... ... : ... .. . ... ...
ROW FD : ... .. . ... ... ... : ... .. . P7F ... ... : ... .. . ... : ... .. 0 ... : ... .. . ... ... : ... .. 6 ... ... : ... .. 5 ... ... : ... .. . ... ...
ROW FE : ... .. . ... ... ... : G#4 00 A P83 ... ... : ... .. . ... : ... .. . ... : ... .. . ... ... : ... .. 5 ... ... : ... .. 4 ... ... : ... .. . ... ...
ROW FF : ... .. 1 ... ... ... : ... .. . P82 ... ... : --- .. . ... : ... .. . ... : ... .. . ... ... : ... .. . ... ... : ... .. . ... ... : --- .. . P84 ...

PATTERN 15
ROW 00 : F-2 00 C ... ... ... : ... .. . P84 ... ... : G#2 00 . ... : ... .. F ... : ... .. . ... ... : B-3 01 A ... ... : F#3 01 6 ... ... : G#0 01 F P80 ...
ROW 01 : ... .. B ... ... ... : A-4 00 A P80 ... ... : ... .. . ... : ... .. C ... : ... .. . ... ... : ... .. 9 ... ... : ... .. 5 ... ... : ... .. D ... ...
ROW 02 : ... .. A ... ... ... : ... .. . P83 ... ... : ... .. . ... : B-# 00 6 ... : ... .. . ... ... : ... .. 8 ... ... : ... .. 4 ... ... : ... .. 8 ... ...
ROW 03 : ... .. 8 ... ... ... : A#4 00 A P7F ... ... : ... .. . ... : ... .. 5 ... : ... .. . ... ... : ... .. 7 ... ... : ... .. . ... ... : ... .. . ... ...
ROW 04 : ... .. . ... ... ... : ... .. . ... ... ... : ... .. . ... : ... .. . ... : ... .. . ... ... : ... .. . ... ... : F-3 01 6 ... ... : ... .. . ... ...
ROW 05 : ... .. . ... ... ... : A-4 00 A P83 ... ... : ... .. . ... : ... .. . ... : ... .. . ... ... : ... .. 6 ... ... : ... .. 5 ... ... : ... .. . ... ...
ROW 06 : ... .. . ... ... ... : ... .. . P80 ... ... : ... .. . ... : ... .. 4 ... : ... .. . ... ... : ... .. 5 ... ... : ... .. 4 ... ... : ... .. . ... ...
ROW 07 : ... .. 1 ... ... ... : G#4 00 A P84 ... ... : --- .. . ... : ... .. 3 ... : ... .. . ... ... : ... .. . ... ... : ... .. . ... ... : --- .. . P84 ...
ROW 08 : G#1 00 C ... ... ... : ... .. F P80 ... ... : A-2 00 . ... : 1-# 00 F ... : ... .. . ... ... : D-3 01 A ... ... : C-3 01 6 ... ... : A-0 01 F P80 ...
ROW 09 : ... .. B ... ... ... : ... .. E ... ... ... : ... .. . ... : ... .. C ... : ... .. . ... ... : ... .. 9 ... ... : ... .. 5 ... ... : ... .. D ... ...
ROW 0A : ... .. A ... ... ... : ... .. D ... ... ... : ... .. . ... : ... .. 6 ... : ... .. . ... ... : ... .. 8 ... ... : ... .. 4 ... ... : ... .. 8 ... ...
ROW 0B : ... .. 8 ... ... ... : ... .. A ... ... ... : ... .. . ... : ... .. 3 ... : ... .. . ... ... : ... .. 7 ... ... : ... .. . ... ... : ... .. . ... ...
ROW 0C : ... .. . ... ... ... : ... .. . ... ... ... : ... .. . ... : ... .. 2 ... : ... .. . ... ... : ... .. . ... ... : B-2 01 6 ... ... : ... .. . ... ...
ROW 0D : ... .. . ... ... ... : ... .. . ... ... ... : ... .. . ... : ... .. 0 ... : ... .. . ... ... : ... .. 6 ... ... : ... .. 5 ... ... : ... .. . ... ...
ROW 0E : ... .. . ... ... ... : ... .. . ... ... ... : ... .. . ... : ... .. . ... : ... .. . ... ... : ... .. 5 ... ... : ... .. 4 ... ... : ... .. . ... ...
ROW 0F : ... .. 1 ... ... ... : ... .. 2 ... ... ... : --- .. . ... : ... .. . ... : ... .. . ... ... : ... .. . ... ... : ... .. . ... ... : --- .. . ... ...
ROW 10 : D#2 00 C ... ... ... : D#4 00 F ... ... ... : F#2 00 . ... : 5-# 00 F ... : ... .. . ... ... : A-3 01 A ... ... : F#3 01 6 ... ... : F#0 01 F ... ...
ROW 11 : ... .. B ... ... ... : ... .. E ... ... ... : ... .. . ... : ... .. C ... : ... .. . ... ... : ... .. 9 ... ... : ... .. 5 ... ... : ... .. D ... ...
ROW 12 : ... .. A ... ... ... : ... .. D ... ... ... : ... .. . ... : B-# 00 6 ... : ... .. . ... ... : ... .. 8 ... ... : ... .. 4 ... ... : ... .. 8 ... ...
ROW 13 : ... .. 8 ... ... ... : ... .. A ... ... ... : ... .. . ... : ... .. 5 ... : ... .. . ... ... : ... .. 7 ... ... : ... .. . ... ... : ... .. . ... ...
ROW 14 : ... .. . ... ... ... : ... .. . ... ... ... : ... .. . ... : ... .. . ... : ... .. . ... ... : ... .. . ... ... : F-3 01 6 ... ... : ... .. . ... ...
ROW 15 : ... .. . ... ... ... : ... .. . ... ... ... : ... .. . ... : ... .. . ... : ... .. . ... ... : ... .. 6 ... ... : ... .. 5 ... ... : ... .. . ... ...
ROW 16 : ... .. . ... ... ... : ... .. . ... ... ... : ... .. . ... : ... .. 4 ... : ... .. . ... ... : ... .. 5 ... ... : ... .. 4 ... ... : ... .. . ... ...
ROW 17 : ... .. 1 ... ... ... : ... .. . ... ... ... : --- .. . ... : ... .. 3 ... : ... .. . ... ... : ... .. . ... ... : ... .. . ... ... : --- .. . P81 ...
ROW 18 : D-2 00 C ... ... ... : D-4 00 F ... ... ... : G#2 00 . ... : 1-# 00 F ... : ... .. . ... ... : G#3 01 A ... ... : C-3 01 6 ... ... : G#0 01 F P80 ...
ROW 19 : ... .. B ... ... ... : ... .. E ... ... ... : ... .. . ... : ... .. C ... : ... .. . ... ... : ... .. 9 ... ... : ... .. 5 ... ... : ... .. D ... ...
ROW 1A : ... .. A ... ... ... : ... .. D ... ... ... : ... .. . ... : ... .. 6 ... : ... .. . ... ... : ... .. 8 ... ... : ... .. 4 ... ... : ... .. 8 ... ...
ROW 1B : ... .. 8 ... ... ... : ... .. A ... ... ... : ... .. . ... : ... .. 3 ... : ... .. . ... ... : ... .. 7 ... ... : ... .. . ... ... : ... .. . ... ...
ROW 1C : ... .. . ... ... ... : ... .. . ... ... ... : ... .. . ... : ... .. 2 ... : ... .. . ... ... : ... .. . ... ... : B-2 01 6 ... ... : ... .. . ... ...
ROW 1D : ... .. . ... ... ... : ... .. 2 ... ... ... : ... .. . ... : ... .. 0 ... : ... .. . ... ... : ... .. 6 ... ... : ... .. 5 ... ... : ... .. . ... ...
ROW 1E : ... .. . ... ... ... : ... .. . ... ... ... : ... .. . ... : ... .. . ... : ... .. . ... ... : ... .. 5 ... ... : ... .. 4 ... ... : ... .. . ... ...
ROW 1F : ... .. 1 ... ... ... : ... .. . ... ... ... : --- .. . ... : ... .. . ... : ... .. . ... ... : ... .. . ... ... : ... .. . ... ... : --- .. . P84 ...
ROW 20 : B-3 00 C ... ... ... : G#3 00 F ... ... ... : A#4 00 . ... : ... .. F ... : ... .. . ... ... : F-5 01 A ... ... : F#3 01 6 ... ... : B-0 01 F P80 ...
ROW 21 : ... .. B ... ... ... : ... .. E ... ... ... : C-4 00 . ... : ... .. C ... : ... .. . ... ... : ... .. 9 ... ... : ... .. 5 ... ... : ... .. D ... ...
ROW 22 : ... .. A ... ... ... : ... .. D ... ... ... : F-3 00 . ... : B-# 00 6 ... : ... .. . ... ... : ... .. 8 ... ... : ... .. 4 ... ... : ... .. 8 ... ...
ROW 23 : ... .. 8 ... ... ... : ... .. A ... ... ... : E-3 00 . ... : ... .. 5 ... : ... .. . ... ... : ... .. 7 ... ... : ... .. . ... ... : ... .. . ... ...
ROW 24 : F#3 00 C ... ... ... : ... .. . ... ... ... : B-2 00 . ... : ... .. . ... : ... .. . ... ... : C-5 01 A ... ... : F-3 01 6 ... ... : ... .. . ... ...
ROW 25 : ... .. B ... ... ... : ... .. . ... ... ... : ... .. . ... : ... .. . ... : ... .. . ... ... : ... .. 9 ... ... : ... .. 5 ... ... : ... .. . ... ...
ROW 26 : ... .. 8 ... ... ... : ... .. . ... ... ... : ... .. . ... : ... .. 4 ... : ... .. . ... ... : ... .. 5 ... ... : ... .. 4 ... ... : ... .. . ... ...
ROW 27 : ... .. 1 ... ... ... : ... .. . ... ... ... : ... .. . ... : ... .. 3 ... : ... .. . ... ... : ... .. . ... ... : ... .. . ... ... : ... .. . ... ...
ROW 28 : D-3 00 C ... ... ... : A-3 00 F ... ... ... : A#2 00 . P7B : 1-# 00 F ... : ... .. . ... ... : G#4 01 A ... ... : C-3 01 6 ... ... : ... .. . P60 ...
ROW 29 : ... .. B ... ... ... : ... .. E ... ... ... : A-2 00 . P77 : ... .. C ... : ... .. . ... ... : ... .. 9 ... ... : ... .. 5 ... ... : A#0 01 8 PBB ...
ROW 2A : ... .. 8 ... ... ... : ... .. D ... ... ... : G#2 00 . P76 : ... .. 6 ... : ... .. . ... ... : ... .. 5 ... ... : ... .. 4 ... ... : ... .. . P9B ...
ROW 2B : ... .. 1 ... ... ... : ... .. A ... ... ... : G-2 00 . ... : ... .. 3 ... : ... .. . ... ... : ... .. . ... ... : ... .. . ... ... : ... .. . P7B ...
ROW 2C : B-2 00 C ... ... ... : ... .. . ... ... ... : F#2 00 . P78 : ... .. F ... : ... .. . ... ... : F-4 01 A ... ... : B-2 01 6 ... ... : ... .. . P5B ...
ROW 2D : ... .. B ... ... ... : ... .. . ... ... ... : F-2 00 . P7C : ... .. C ... : ... .. . ... ... : ... .. 9 ... ... : ... .. 5 ... ... : A-0 01 8 PBD ...
ROW 2E : ... .. 8 ... ... ... : ... .. . ... ... ... : E-2 00 . P82 : ... .. 6 ... : ... .. . ... ... : ... .. 5 ... ... : ... .. 4 ... ... : ... .. . P9D ...
ROW 2F : ... .. 1 ... ... ... : ... .. 2 ... ... ... : D#2 00 . P8A : ... .. 3 ... : ... .. . ... ... : ... .. . ... ... : ... .. . ... ... : ... .. . P7D ...
ROW 30 : F#2 00 C ... ... ... : A-4 00 F ... ... ... : F-4 00 . P80 : 5-# 00 F ... : ... .. . ... ... : C-4 01 A ... ... : F#3 01 6 ... ... : F#0 01 F P80 ...
ROW 31 : ... .. B ... ... ... : ... .. E ... ... ... : G-3 00 . ... : ... .. C ... : ... .. . ... ... : ... .. 9 ... ... : ... .. 5 ... ... : ... .. D ... ...
ROW 32 : ... .. A ... ... ... : ... .. D ... ... ... : C-3 00 . ... : B-# 00 6 ... : ... .. . ... ... : ... .. 8 ... ... : ... .. 4 ... ... : ... .. 8 ... ...
ROW 33 : ... .. 8 ... ... ... : ... .. A P83 ... ... : B-2 00 . ... : ... .. 5 ... : ... .. . ... ... : ... .. 7 ... ... : ... .. . ... ... : ... .. . ... ...
ROW 34 : D-2 00 C ... ... ... : A#4 00 A P7F ... ... : F#2 00 . ... : ... .. . ... : ... .. . ... ... : G#3 01 A ... ... : F-3 01 6 ... ... : ... .. . ... ...
ROW 35 : ... .. B ... ... ... : ... .. . P82 ... ... : ... .. . ... : ... .. . ... : ... .. . ... ... : ... .. 9 ... ... : ... .. 5 ... ... : ... .. . ... ...
ROW 36 : ... .. 8 ... ... ... : B-4 00 A P7E ... ... : ... .. . ... : ... .. 4 ... : ... .. . ... ... : ... .. 5 ... ... : ... .. 4 ... ... : ... .. . ... ...
ROW 37 : ... .. 1 ... ... ... : ... .. . P80 ... ... : ... .. . ... : ... .. 3 ... : ... .. . ... ... : ... .. . ... ... : ... .. . ... ... : ... .. . ... ...
ROW 38 : B-1 00 C ... ... ... : ... .. . ... ... ... : F-2 00 . P84 : C-# 00 F ... : ... .. . ... ... : F-3 01 A ... ... : C-3 01 6 ... ... : ... .. . P60 ...
ROW 39 : ... .. B ... ... ... : ... .. . ... ... ... : E-2 00 . P8A : ... .. C ... : ... .. . ... ... : ... .. 9 ... ... : ... .. 5 ... ... : ... .. . P40 ...
ROW 3A : ... .. 8 ... ... ... : ... .. . ... ... ... : D#2 00 . P92 : ... .. 6 ... : ... .. . ... ... : ... .. 5 ... ... : ... .. 4 ... ... : F-0 01 8 PC5 ...
ROW 3B : ... .. 1 ... ... ... : ... .. . ... ... ... : ... .. . P72 : ... .. 3 ... : ... .. . ... ... : ... .. . ... ... : ... .. . ... ... : ... .. . PA5 ...
ROW 3C : F#1 00 C ... ... ... : ... .. . ... ... ... : D-2 00 . P7D : ... .. F ... : ... .. . ... ... : C-3 01 A ... ... : B-2 01 6 ... ... : ... .. . P85 ...
ROW 3D : ... .. B ... ... ... : ... .. . ... ... ... : C#2 00 . P8A : ... .. C ... : ... .. . ... ... : ... .. 9 ... ... : ... .. 5 ... ... : ... .. . P65 ...
ROW 3E : ... .. 8 ... ... ... : ... .. . ... ... ... : ... .. . P6A : ... .. 6 ... : ... .. . ... ... : ... .. 5 ... ... : ... .. 4 ... ... : ... .. . P45 ...
ROW 3F : ... .. 1 ... ... ... : ... .. . ... ... ... : C-2 00 . P7A : ... .. 3 ... : ... .. . ... ... : ... .. . ... ... : ... .. . ... ... : E-0 01 8 PD3 ...
ROW 40 : G#1 00 C ... ... ... : C-5 00 A P7E ... ... : G-4 00 . P80 : 1-# 00 F ... : ... .. . ... ... : D-3 01 A ... ... : F#3 01 6 ... ... : G#0 01 F P80 ...
ROW 41 : ... .. B ... ... ... : ... .. . P80 ... ... : A-3 00 . ... : ... .. C ... : ... .. . ... ... : ... .. 9 ... ... : ... .. 5 ... ... : ... .. D ... ...
ROW 42 : ... .. A ... ... ... : ... .. . P7F ... ... : D-3 00 . ... : B-# 00 6 ... : ... .. . ... ... : ... .. 8 ... ... : ... .. 4 ... ... : ... .. 8 ... ...
ROW 43 : ... .. 8 ... ... ... : B-4 00 A P82 ... ... : C#3 00 . ... : ... .. 5 ... : ... .. . ... ... : ... .. 7 ... ... : ... .. . ... ... : ... .. . ... ...
ROW 44 : ... .. C ... ... ... : ... .. . P7E ... ... : G#2 00 . ... : ... .. . ... : ... .. . ... ... : ... .. A ... ... : F-3 01 6 ... ... : ... .. . ... ...
ROW 45 : ... .. B ... ... ... : A#4 00 A P82 ... ... : ... .. . ... : ... .. . ... : ... .. . ... ... : ... .. 9 ... ... : ... .. 5 ... ... : ... .. . ... ...
ROW 46 : ... .. A ... ... ... : ... .. . P81 ... ... : ... .. . ... : ... .. 4 ... : ... .. . ... ... : ... .. 8 ... ... : ... .. 4 ... ... : ... .. . ... ...
ROW 47 : ... .. 8 ... ... ... : ... .. . P83 ... ... : --- .. . ... : ... .. 3 ... : ... .. . ... ... : ... .. 7 ... ... : ... .. . ... ... : --- .. . P84 ...
ROW 48 : F#2 00 C ... ... ... : B-4 00 A P80 ... ... : A-2 00 . ... : 1-# 00 F ... : ... .. . ... ... : C-4 01 A ... ... : C-3 01 6 ... ... : A-0 01 F P80 ...
ROW 49 : ... .. B ... ... ... : ... .. . P83 ... ... : ... .. . ... : ... .. C ... : ... .. . ... ... : ... .. 9 ... ... : ... .. 5 ... ... : ... .. D ... ...
ROW 4A : ... .. A ... ... ... : C-5 00 A P80 ... ... : ... .. . ... : ... .. 6 ... : ... .. . ... ... : ... .. 8 ... ... : ... .. 4 ... ... : ... .. 8 ... ...
ROW 4B : ... .. 8 ... ... ... : ... .. . ... ... ... : ... .. . ... : ... .. 3 ... : ... .. . ... ... : ... .. 7 ... ... : ... .. . ... ... : ... .. . ... ...
ROW 4C : ... .. . ... ... ... : B-4 00 A P82 ... ... : ... .. . ... : ... .. 2 ... : ... .. . ... ... : ... .. . ... ... : B-2 01 6 ... ... : ... .. . ... ...
ROW 4D : ... .. . ... ... ... : ... .. . P7F ... ... : ... .. . ... : ... .. 0 ... : ... .. . ... ... : ... .. 6 ... ... : ... .. 5 ... ... : ... .. . ... ...
ROW 4E : ... .. . ... ... ... : A#4 00 A P82 ... ... : ... .. . ... : ... .. . ... : ... .. . ... ... : ... .. . ... ... : ... .. 4 ... ... : ... .. . ... ...
ROW 4F : ... .. . ... ... ... : ... .. . P81 ... ... : --- .. . ... : ... .. . ... : ... .. . ... ... : ... .. 5 ... ... : ... .. . ... ... : --- .. . ... ...
ROW 50 : F-2 00 C ... ... ... : ... .. . P83 ... ... : F#2 00 . ... : 5-# 00 F ... : ... .. . ... ... : B-3 01 A ... ... : F#3 01 6 ... ... : F#0 01 F ... ...
ROW 51 : ... .. B ... ... ... : B-4 00 A P80 ... ... : ... .. . ... : ... .. C ... : ... .. . ... ... : ... .. 9 ... ... : ... .. 5 ... ... : ... .. D ... ...
ROW 52 : ... .. A ... ... ... : ... .. . P83 ... ... : ... .. . ... : B-# 00 6 ... : ... .. . ... ... : ... .. 8 ... ... : ... .. 4 ... ... : ... .. 8 ... ...
ROW 53 : ... .. 8 ... ... ... : C-5 00 A P80 ... ... : ... .. . ... : ... .. 5 ... : ... .. . ... ... : ... .. 7 ... ... : ... .. . ... ... : ... .. . ... ...
ROW 54 : ... .. . ... ... ... : ... .. . ... ... ... : ... .. . ... : ... .. . ... : ... .. . ... ... : ... .. . ... ... : F-3 01 6 ... ... : ... .. . ... ...
ROW 55 : ... .. . ... ... ... : B-4 00 2 P83 ... ... : ... .. . ... : ... .. . ... : ... .. . ... ... : ... .. 6 ... ... : ... .. 5 ... ... : ... .. . ... ...
ROW 56 : ... .. . ... ... ... : ... .. . P80 ... ... : ... .. . ... : ... .. 4 ... : ... .. . ... ... : ... .. . ... ... : ... .. 4 ... ... : ... .. . ... ...
ROW 57 : ... .. . ... ... ... : A#4 00 2 P83 ... ... : --- .. . ... : ... .. 3 ... : ... .. . ... ... : ... .. 5 ... ... : ... .. . ... ... : --- .. . P81 ...
ROW 58 : G#1 00 C ... ... ... : G#4 00 F P80 ... ... : G#2 00 . ... : 1-# 00 F ... : ... .. . ... ... : D-3 01 A ... ... : C-3 01 6 ... ... : G#0 01 F P80 ...
ROW 59 : ... .. B ... ... ... : ... .. E ... ... ... : ... .. . ... : ... .. C ... : ... .. . ... ... : ... .. 9 ... ... : ... .. 5 ... ... : ... .. D ... ...
ROW 5A : ... .. 8 ... ... ... : ... .. A ... ... ... : ... .. . ... : ... .. 6 ... : ... .. . ... ... : ... .. 5 ... ... : ... .. 4 ... ... : ... .. 8 ... ...
ROW 5B : ... .. 1 ... ... ... : ... .. 2 ... ... ... : ... .. . ... : ... .. 3 ... : ... .. . ... ... : ... .. . ... ... : ... .. . ... ... : ... .. . ... ...
ROW 5C : ... .. C ... ... ... : A-4 00 F ... ... ... : ... .. . ... : ... .. 2 ... : ... .. . ... ... : ... .. A ... ... : B-2 01 6 ... ... : ... .. . ... ...
ROW 5D : ... .. B ... ... ... : ... .. E ... ... ... : ... .. . ... : ... .. 0 ... : ... .. . ... ... : ... .. 9 ... ... : ... .. 5 ... ... : ... .. . ... ...
ROW 5E : ... .. 8 ... ... ... : ... .. D ... ... ... : ... .. . ... : ... .. . ... : ... .. . ... ... : ... .. 5 ... ... : ... .. 4 ... ... : ... .. . ... ...
ROW 5F : ... .. 1 ... ... ... : ... .. A ... ... ... : --- .. . ... : ... .. . ... : ... .. . ... ... : ... .. . ... ... : ... .. . ... ... : --- .. . P84 ...
ROW 60 : D#2 00 C ... ... ... : ... .. . ... ... ... : G#3 00 . ... : ... .. F ... : ... .. . ... ... : A-3 01 A ... ... : F#3 01 6 ... ... : G#1 01 F P80 ...
ROW 61 : ... .. B ... ... ... : B-4 00 A P81 ... ... : ... .. . ... : ... .. C ... : ... .. . ... ... : ... .. 9 ... ... : ... .. 5 ... ... : ... .. D ... ...
ROW 62 : ... .. A ... ... ... : D-5 00 A P7E ... ... : ... .. . ... : B-# 00 6 ... : ... .. . ... ... : ... .. 8 ... ... : ... .. 4 ... ... : ... .. 8 ... ...
ROW 63 : ... .. 8 ... ... ... : ... .. . P80 ... ... : ... .. . ... : ... .. 5 ... : ... .. . ... ... : ... .. 7 ... ... : ... .. . ... ... : ... .. . ... ...
ROW 64 : ... .. . ... ... ... : ... .. . ... ... ... : ... .. . ... : ... .. . ... : ... .. . ... ... : ... .. . ... ... : F-3 01 6 ... ... : ... .. . ... ...
ROW 65 : ... .. . ... ... ... : ... .. . ... ... ... : ... .. . ... : ... .. . ... : ... .. . ... ... : ... .. 6 ... ... : ... .. 5 ... ... : ... .. . ... ...
ROW 66 : ... .. . ... ... ... : ... .. . ... ... ... : ... .. . ... : ... .. 4 ... : ... .. . ... ... : ... .. 5 ... ... : ... .. 4 ... ... : ... .. . ... ...
ROW 67 : ... .. 1 ... ... ... : ... .. . ... ... ... : --- .. . ... : ... .. 3 ... : ... .. . ... ... : ... .. . ... ... : ... .. . ... ... : --- .. . P7E ...
ROW 68 : D-2 00 C ... ... ... : ... .. . ... ... ... : A-2 00 . ... : 1-# 00 F ... : ... .. . ... ... : G#3 01 A ... ... : C-3 01 6 ... ... : A-0 01 F P80 ...
ROW 69 : ... .. B ... ... ... : ... .. . ... ... ... : ... .. . ... : ... .. C ... : ... .. . ... ... : ... .. 9 ... ... : ... .. 5 ... ... : ... .. D ... ...
ROW 6A : ... .. A ... ... ... : ... .. . ... ... ... : ... .. . ... : ... .. 6 ... : ... .. . ... ... : ... .. 8 ... ... : ... .. 4 ... ... : ... .. 8 ... ...
ROW 6B : ... .. 8 ... ... ... : ... .. . ... ... ... : ... .. . ... : ... .. 3 ... : ... .. . ... ... : ... .. 7 ... ... : ... .. . ... ... : ... .. . ... ...
ROW 6C : ... .. . ... ... ... : ... .. . ... ... ... : ... .. . ... : ... .. 2 ... : ... .. . ... ... : ... .. . ... ... : B-2 01 6 ... ... : ... .. . ... ...
ROW 6D : ... .. . ... ... ... : ... .. . ... ... ... : ... .. . ... : ... .. 0 ... : ... .. . ... ... : ... .. 6 ... ... : ... .. 5 ... ... : ... .. . ... ...
ROW 6E : ... .. . ... ... ... : ... .. . ... ... ... : ... .. . ... : ... .. . ... : ... .. . ... ... : ... .. 5 ... ... : ... .. 4 ... ... : ... .. . ... ...
ROW 6F : ... .. 1 ... ... ... : ... .. . ... ... ... : --- .. . ... : ... .. . ... : ... .. . ... ... : ... .. . ... ... : ... .. . ... ... : --- .. . ... ...
ROW 70 : G#1 00 C ... ... ... : ... .. . ... ... ... : F#2 00 . ... : 5-# 00 F ... : ... .. . ... ... : D-3 01 A ... ... : F#3 01 6 ... ... : F#0 01 F ... ...
ROW 71 : ... .. B ... ... ... : ... .. . ... ... ... : ... .. . ... : ... .. C ... : ... .. . ... ... : ... .. 9 ... ... : ... .. 5 ... ... : ... .. D ... ...
ROW 72 : ... .. 8 ... ... ... : ... .. . ... ... ... : ... .. . ... : B-# 00 6 ... : ... .. . ... ... : ... .. 5 ... ... : ... .. 4 ... ... : ... .. 8 ... ...
ROW 73 : ... .. 1 ... ... ... : ... .. . ... ... ... : ... .. . ... : ... .. 5 ... : ... .. . ... ... : ... .. . ... ... : ... .. . ... ... : ... .. . ... ...
ROW 74 : ... .. C ... ... ... : ... .. . ... ... ... : ... .. . ... : ... .. . ... : ... .. . ... ... : ... .. A ... ... : F-3 01 6 ... ... : ... .. . ... ...
ROW 75 : ... .. B ... ... ... : ... .. . ... ... ... : ... .. . ... : ... .. . ... : ... .. . ... ... : ... .. 9 ... ... : ... .. 5 ... ... : ... .. . ... ...
ROW 76 : ... .. 8 ... ... ... : D#5 00 A P7F ... ... : ... .. . ... : ... .. 4 ... : ... .. . ... ... : ... .. 5 ... ... : ... .. 4 ... ... : ... .. . ... ...
ROW 77 : ... .. 1 ... ... ... : ... .. . P81 ... ... : --- .. . ... : ... .. 3 ... : ... .. . ... ... : ... .. . ... ... : ... .. . ... ... : --- .. . P81 ...
ROW 78 : F#2 00 C ... ... ... : ... .. . P80 ... ... : G#2 00 . ... : 1-# 00 F ... : ... .. . ... ... : C-4 01 A ... ... : C-3 01 6 ... ... : G#0 01 F P80 ...
ROW 79 : ... .. B ... ... ... : D-5 00 A P82 ... ... : ... .. . ... : ... .. C ... : ... .. . ... ... : ... .. 9 ... ... : ... .. 5 ... ... : ... .. D ... ...
ROW 7A : ... .. A ... ... ... : ... .. . P7E ... ... : ... .. . ... : ... .. 6 ... : ... .. . ... ... : ... .. 8 ... ... : ... .. 4 ... ... : ... .. 8 ... ...
ROW 7B : ... .. 8 ... ... ... : C#5 00 A P81 ... ... : ... .. . ... : ... .. 3 ... : ... .. . ... ... : ... .. 7 ... ... : ... .. . ... ... : ... .. . ... ...
ROW 7C : ... .. . ... ... ... : ... .. . P80 ... ... : ... .. . ... : ... .. 2 ... : ... .. . ... ... : ... .. . ... ... : B-2 01 6 ... ... : ... .. . ... ...
ROW 7D : ... .. . ... ... ... : ... .. . P82 ... ... : ... .. . ... : ... .. 0 ... : ... .. . ... ... : ... .. 6 ... ... : ... .. 5 ... ... : ... .. . ... ...
ROW 7E : ... .. . ... ... ... : D-5 00 A P80 ... ... : ... .. . ... : ... .. . ... : ... .. . ... ... : ... .. 5 ... ... : ... .. 4 ... ... : ... .. . ... ...
ROW 7F : ... .. 1 ... ... ... : D#5 00 A P7E ... ... : --- .. . ... : ... .. . ... : ... .. . ... ... : ... .. . ... ... : ... .. . ... ... : --- .. . P84 ...
ROW 80 : D-2 00 C ... ... ... : ... .. . P81 ... ... : D-2 00 . ... : ... .. F ... : ... .. . ... ... : G#3 01 A ... ... : F#3 01 6 ... ... : D-0 01 F P80 ...
ROW 81 : ... .. B ... ... ... : ... .. . ... ... ... : ... .. . ... : ... .. C ... : ... .. . ... ... : ... .. 9 ... ... : ... .. 5 ... ... : ... .. D ... ...
ROW 82 : ... .. A ... ... ... : D-5 00 A P82 ... ... : ... .. . ... : B-# 00 6 ... : ... .. . ... ... : ... .. 8 ... ... : ... .. 4 ... ... : ... .. 8 ... ...
ROW 83 : ... .. 8 ... ... ... : ... .. . P7F ... ... : ... .. . ... : ... .. 5 ... : ... .. . ... ... : ... .. 7 ... ... : ... .. . ... ... : ... .. . ... ...
ROW 84 : ... .. . ... ... ... : C#5 00 A P81 ... ... : ... .. . ... : ... .. . ... : ... .. . ... ... : ... .. . ... ... : F-3 01 6 ... ... : ... .. . ... ...
ROW 85 : ... .. . ... ... ... : ... .. . P80 ... ... : ... .. . ... : ... .. . ... : ... .. . ... ... : ... .. 6 ... ... : ... .. 5 ... ... : ... .. . ... ...
ROW 86 : ... .. . ... ... ... : ... .. . P82 ... ... : ... .. . ... : ... .. 4 ... : ... .. . ... ... : ... .. 5 ... ... : ... .. 4 ... ... : ... .. . ... ...
ROW 87 : ... .. 1 ... ... ... : D-5 00 A P80 ... ... : --- .. . ... : ... .. 3 ... : ... .. . ... ... : ... .. . ... ... : ... .. . ... ... : --- .. . P7F ...
ROW 88 : A-2 00 C ... ... ... : G#4 00 F ... ... ... : A-2 00 . ... : 1-# 00 F ... : ... .. . ... ... : D#4 01 A ... ... : C-3 01 6 ... ... : A-0 01 F P80 ...
ROW 89 : ... .. B ... ... ... : ... .. E ... ... ... : ... .. . ... : ... .. C ... : ... .. . ... ... : ... .. 9 ... ... : ... .. 5 ... ... : ... .. D ... ...
ROW 8A : ... .. A ... ... ... : ... .. A ... ... ... : ... .. . ... : ... .. 6 ... : ... .. . ... ... : ... .. 8 ... ... : ... .. 4 ... ... : ... .. 8 ... ...
ROW 8B : ... .. 8 ... ... ... : ... .. 2 ... ... ... : ... .. . ... : ... .. 3 ... : ... .. . ... ... : ... .. 7 ... ... : ... .. . ... ... : ... .. . ... ...
ROW 8C : ... .. C ... ... ... : A-4 00 F ... ... ... : ... .. . ... : ... .. 2 ... : ... .. . ... ... : ... .. A ... ... : B-2 01 6 ... ... : ... .. . ... ...
ROW 8D : ... .. B ... ... ... : ... .. E ... ... ... : ... .. . ... : ... .. 0 ... : ... .. . ... ... : ... .. 9 ... ... : ... .. 5 ... ... : ... .. . ... ...
ROW 8E : ... .. A ... ... ... : ... .. A ... ... ... : ... .. . ... : ... .. . ... : ... .. . ... ... : ... .. 8 ... ... : ... .. 4 ... ... : ... .. . ... ...
ROW 8F : ... .. 0 ... ... ... : ... .. 2 ... ... ... : --- .. . ... : ... .. . ... : ... .. . ... ... : --- .. . ... ... : ... .. . ... ... : --- .. . ... ...
ROW 90 : G-2 00 C P80 ... ... : F#5 00 F ... ... ... : G#2 00 . ... : 8-# 00 F ... : ... .. . ... ... : C#4 01 A ... ... : F#3 01 6 ... ... : G#0 01 F ... ...
ROW 91 : ... .. B ... ... ... : ... .. E ... ... ... : ... .. . ... : ... .. C ... : ... .. . ... ... : ... .. 9 ... ... : ... .. 5 ... ... : ... .. D ... ...
ROW 92 : ... .. A ... ... ... : ... .. D ... ... ... : ... .. . ... : ... .. 6 ... : ... .. . ... ... : ... .. 8 ... ... : ... .. 4 ... ... : ... .. 8 ... ...
ROW 93 : ... .. 0 ... ... ... : G-5 00 A P7E ... ... : ... .. . ... : ... .. 3 ... : ... .. . ... ... : --- .. . ... ... : ... .. . ... ... : ... .. . ... ...
ROW 94 : G-2 00 C P80 ... ... : ... .. . P81 ... ... : ... .. . ... : ... .. F ... : ... .. . ... ... : C#4 01 A ... ... : F-3 01 6 ... ... : ... .. . ... ...
ROW 95 : ... .. B ... ... ... : G#5 00 A P80 ... ... : ... .. . ... : ... .. C ... : ... .. . ... ... : ... .. 9 ... ... : ... .. 5 ... ... : ... .. . ... ...
ROW 96 : ... .. A ... ... ... : ... .. . ... ... ... : ... .. . ... : ... .. 6 ... : ... .. . ... ... : ... .. 8 ... ... : ... .. 4 ... ... : ... .. . ... ...
ROW 97 : ... .. 0 ... ... ... : ... .. . ... ... ... : --- .. . ... : ... .. 3 ... : ... .. . ... ... : --- .. . ... ... : ... .. . ... ... : --- .. . P84 ...
ROW 98 : D-3 00 C P80 ... ... : ... .. . ... ... ... : D-3 00 . ... : 1-# 00 F ... : ... .. . ... ... : G#4 01 A ... ... : C-3 01 6 ... ... : D-1 01 F P80 ...
ROW 99 : ... .. B ... ... ... : ... .. . ... ... ... : ... .. . ... : ... .. C ... : ... .. . ... ... : ... .. 9 ... ... : ... .. 5 ... ... : ... .. D ... ...
ROW 9A : ... .. A ... ... ... : ... .. . ... ... ... : ... .. . ... : ... .. 6 ... : ... .. . ... ... : ... .. 8 ... ... : ... .. 4 ... ... : ... .. 8 ... ...
ROW 9B : ... .. 0 ... ... ... : ... .. . ... ... ... : ... .. . ... : ... .. 3 ... : ... .. . ... ... : --- .. . ... ... : ... .. . ... ... : ... .. . ... ...
ROW 9C : D-3 00 C P80 ... ... : ... .. . ... ... ... : ... .. . ... : ... .. F ... : ... .. . ... ... : G#4 01 A ... ... : B-2 01 6 ... ... : ... .. . ... ...
ROW 9D : ... .. B ... ... ... : ... .. . ... ... ... : ... .. . ... : ... .. C ... : ... .. . ... ... : ... .. 9 ... ... : ... .. 5 ... ... : ... .. . ... ...
ROW 9E : ... .. A ... ... ... : ... .. . ... ... ... : ... .. . ... : ... .. 6 ... : ... .. . ... ... : ... .. 8 ... ... : ... .. 4 ... ... : ... .. . ... ...
ROW 9F : ... .. 0 ... ... ... : ... .. . ... ... ... : --- .. . ... : ... .. 3 ... : ... .. . ... ... : --- .. . ... ... : ... .. . ... ... : --- .. . ... ...
ROW A0 : C-3 00 C P80 ... ... : ... .. . ... ... ... : C-3 00 . ... : 7-# 00 F ... : ... .. . ... ... : F#4 01 A ... ... : F#3 01 6 ... ... : C-1 01 F ... ...
ROW A1 : ... .. B ... ... ... : ... .. . ... ... ... : ... .. . ... : ... .. C ... : ... .. . ... ... : ... .. 9 ... ... : ... .. 5 ... ... : ... .. D ... ...
ROW A2 : ... .. A ... ... ... : A-5 00 A P7F ... ... : ... .. . ... : ... .. 6 ... : ... .. . ... ... : ... .. 8 ... ... : ... .. 4 ... ... : ... .. 8 ... ...
ROW A3 : ... .. 0 ... ... ... : ... .. . P80 ... ... : ... .. . ... : ... .. 3 ... : ... .. . ... ... : --- .. . ... ... : ... .. . ... ... : ... .. . ... ...
ROW A4 : C-3 00 C P80 ... ... : ... .. . ... ... ... : ... .. . ... : ... .. F ... : ... .. . ... ... : F#4 01 A ... ... : F-3 01 6 ... ... : ... .. . ... ...
ROW A5 : ... .. B ... ... ... : G#5 00 A P81 ... ... : ... .. . ... : ... .. C ... : ... .. . ... ... : ... .. 9 ... ... : ... .. 5 ... ... : ... .. . ... ...
ROW A6 : ... .. A ... ... ... : ... .. . P7F ... ... : ... .. . ... : ... .. 6 ... : ... .. . ... ... : ... .. 8 ... ... : ... .. 4 ... ... : ... .. . ... ...
ROW A7 : ... .. 0 ... ... ... : G-5 00 A P81 ... ... : ... .. . ... : ... .. 3 ... : ... .. . ... ... : --- .. . ... ... : ... .. . ... ... : ... .. . ... ...
ROW A8 : F-3 00 C P80 ... ... : ... .. . ... ... ... : D#3 00 . P88 : 1-# 00 F ... : ... .. . ... ... : B-4 01 A ... ... : C-3 01 6 ... ... : F-1 01 F P60 ...
ROW A9 : ... .. B ... ... ... : ... .. . P82 ... ... : D-3 00 . P7D : ... .. C ... : ... .. . ... ... : ... .. 9 ... ... : ... .. 5 ... ... : E-1 01 D P97 ...
ROW AA : ... .. A ... ... ... : G#5 00 A P80 ... ... : C-3 00 . P8C : ... .. 6 ... : ... .. . ... ... : ... .. 8 ... ... : ... .. 4 ... ... : ... .. 8 P77 ...
ROW AB : ... .. 0 ... ... ... : A-5 00 A P7F ... ... : B-2 00 . P85 : ... .. 3 ... : ... .. . ... ... : --- .. . ... ... : ... .. . ... ... : ... .. . P57 ...
ROW AC : F-3 00 C P80 ... ... : ... .. . P80 ... ... : A#2 00 . P80 : ... .. F ... : ... .. . ... ... : B-4 01 A ... ... : B-2 01 6 ... ... : D#1 01 8 P94 ...
ROW AD : ... .. B ... ... ... : ... .. . ... ... ... : A-2 00 . P7C : ... .. C ... : ... .. . ... ... : ... .. 9 ... ... : ... .. 5 ... ... : ... .. . P74 ...
ROW AE : ... .. A ... ... ... : G#5 00 A P81 ... ... : G#2 00 . P7B : ... .. 6 ... : ... .. . ... ... : ... .. 8 ... ... : ... .. 4 ... ... : ... .. . P54 ...
ROW AF : ... .. 0 ... ... ... : ... .. . P80 ... ... : G-2 00 . ... : ... .. 3 ... : ... .. . ... ... : --- .. . ... ... : ... .. . ... ... : D-1 01 8 P95 ...
ROW B0 : D#3 00 C P80 ... ... : G-5 00 A P81 ... ... : D#3 00 . P80 : 4-# 00 F ... : ... .. . ... ... : A-4 01 A ... ... : F#3 01 6 ... ... : D#1 01 F P80 ...
ROW B1 : ... .. B ... ... ... : ... .. . ... ... ... : ... .. . ... : ... .. C ... : ... .. . ... ... : ... .. 9 ... ... : ... .. 5 ... ... : ... .. D ... ...
ROW B2 : ... .. A ... ... ... : ... .. . P82 ... ... : ... .. . ... : ... .. 6 ... : ... .. . ... ... : ... .. 8 ... ... : ... .. 4 ... ... : ... .. 8 ... ...
ROW B3 : ... .. 0 ... ... ... : G#5 00 A P80 ... ... : ... .. . ... : ... .. 3 ... : ... .. . ... ... : --- .. . ... ... : ... .. . ... ... : ... .. . ... ...
ROW B4 : D#3 00 C P80 ... ... : ... .. . P81 ... ... : ... .. . ... : ... .. F ... : ... .. . ... ... : A-4 01 A ... ... : F-3 01 6 ... ... : ... .. . ... ...
ROW B5 : ... .. B ... ... ... : A-5 00 A P80 ... ... : ... .. . ... : ... .. C ... : ... .. . ... ... : ... .. 9 ... ... : ... .. 5 ... ... : ... .. . ... ...
ROW B6 : ... .. A ... ... ... : ... .. . ... ... ... : ... .. . ... : ... .. 6 ... : ... .. . ... ... : ... .. 8 ... ... : ... .. 4 ... ... : ... .. . ... ...
ROW B7 : ... .. 0 ... ... ... : G#5 00 A P81 ... ... : ... .. . ... : ... .. 3 ... : ... .. . ... ... : --- .. . ... ... : ... .. . ... ... : ... .. . ... ...
ROW B8 : G#3 00 C P80 ... ... : ... .. . P80 ... ... : F#3 00 . P81 : 1-# 00 F ... : ... .. . ... ... : D-5 01 A ... ... : C-3 01 6 ... ... : G#1 01 F P60 ...
ROW B9 : ... .. B ... ... ... : G-5 00 A P82 ... ... : E-3 00 . P86 : ... .. C ... : ... .. . ... ... : ... .. 9 ... ... : ... .. 5 ... ... : G-1 01 D P8A ...
ROW BA : ... .. A ... ... ... : ... .. . P81 ... ... : D#3 00 . P7B : ... .. 6 ... : ... .. . ... ... : ... .. 8 ... ... : ... .. 4 ... ... : ... .. 8 P6A ...
ROW BB : ... .. 0 ... ... ... : ... .. 2 ... ... ... : C#3 00 . P87 : ... .. 3 ... : ... .. . ... ... : --- .. . ... ... : ... .. . ... ... : F#1 01 8 P97 ...
ROW BC : G#3 00 C P80 ... ... : G#5 00 2 P80 ... ... : C-3 00 . P7F : ... .. F ... : ... .. . ... ... : D-5 01 A ... ... : B-2 01 6 ... ... : ... .. . P77 ...
ROW BD : ... .. B ... ... ... : ... .. . P81 ... ... : B-2 00 . P78 : ... .. C ... : ... .. . ... ... : ... .. 9 ... ... : ... .. 5 ... ... : F-1 01 8 PA9 ...
ROW BE : ... .. A ... ... ... : A-5 00 1 P80 ... ... : A#2 00 . P73 : ... .. 6 ... : ... .. . ... ... : ... .. 8 ... ... : ... .. 4 ... ... : ... .. . P89 ...
ROW BF : ... .. 0 ... ... ... : ... .. . ... ... ... : G#2 00 . P8E : ... .. 3 ... : ... .. . ... ... : --- .. . ... ... : ... .. . ... ... : ... .. . P69 ...
ROW C0 : G#1 00 C P80 ... ... : G#5 00 1 ... ... ... : G-5 00 . P80 : ... .. F ... : ... .. . ... ... : D-3 01 A ... ... : F#3 01 6 ... ... : G#1 01 F P80 ...
ROW C1 : ... .. B ... ... ... : ... .. 0 ... ... ... : A-4 00 . ... : ... .. C ... : ... .. . ... ... : ... .. 9 ... ... : ... .. 5 ... ... : ... .. D ... ...
ROW C2 : ... .. A ... ... ... : ... .. . ... ... ... : D-4 00 . ... : B-# 00 6 ... : ... .. . ... ... : ... .. 8 ... ... : ... .. 4 ... ... : ... .. 8 ... ...
ROW C3 : ... .. 8 ... ... ... : ... .. . ... ... ... : C#4 00 . ... : ... .. 5 ... : ... .. . ... ... : ... .. 7 ... ... : ... .. . ... ... : ... .. . ... ...
ROW C4 : ... .. . ... ... ... : ... .. . ... ... ... : G#3 00 . ... : ... .. . ... : ... .. . ... ... : ... .. . ... ... : F-3 01 6 ... ... : ... .. . ... ...
ROW C5 : ... .. . ... ... ... : ... .. . ... ... ... : ... .. . ... : ... .. . ... : ... .. . ... ... : ... .. 6 ... ... : ... .. 5 ... ... : ... .. . ... ...
ROW C6 : ... .. . ... ... ... : ... .. . ... ... ... : ... .. . ... : ... .. 4 ... : ... .. . ... ... : ... .. 5 ... ... : ... .. 4 ... ... : ... .. . ... ...
ROW C7 : ... .. 1 ... ... ... : ... .. . ... ... ... : --- .. . ... : ... .. 3 ... : ... .. . ... ... : ... .. . ... ... : ... .. . ... ... : --- .. . P7E ...
ROW C8 : F#2 00 C ... ... ... : F#5 00 F P80 ... ... : A-3 00 . ... : 1-# 00 F ... : ... .. . ... ... : C-4 01 A ... ... : C-3 01 6 ... ... : A-1 01 F P80 ...
ROW C9 : ... .. B ... ... ... : ... .. E ... ... ... : ... .. . ... : ... .. C ... : ... .. . ... ... : ... .. 9 ... ... : ... .. 5 ... ... : ... .. D ... ...
ROW CA : ... .. A ... ... ... : ... .. D ... ... ... : ... .. . ... : ... .. 6 ... : ... .. . ... ... : ... .. 8 ... ... : ... .. 4 ... ... : ... .. 8 ... ...
ROW CB : ... .. 8 ... ... ... : ... .. A ... ... ... : ... .. . ... : ... .. 3 ... : ... .. . ... ... : ... .. 7 ... ... : ... .. . ... ... : ... .. . ... ...
ROW CC : ... .. . ... ... ... : G#5 00 F ... ... ... : ... .. . ... : ... .. 2 ... : ... .. . ... ... : ... .. . ... ... : B-2 01 6 ... ... : ... .. . ... ...
ROW CD : ... .. . ... ... ... : ... .. E ... ... ... : ... .. . ... : ... .. 0 ... : ... .. . ... ... : ... .. 6 ... ... : ... .. 5 ... ... : ... .. . ... ...
ROW CE : ... .. . ... ... ... : ... .. A ... ... ... : ... .. . ... : ... .. . ... : ... .. . ... ... : ... .. 5 ... ... : ... .. 4 ... ... : ... .. . ... ...
ROW CF : ... .. 1 ... ... ... : ... .. 2 ... ... ... : --- .. . ... : ... .. . ... : ... .. . ... ... : ... .. . ... ... : ... .. . ... ... : --- .. . P7F ...
ROW D0 : F-2 00 C ... ... ... : F#5 00 F ... ... ... : F#3 00 . ... : 5-# 00 F ... : ... .. . ... ... : B-3 01 A ... ... : F#3 01 6 ... ... : F#1 01 F P80 ...
ROW D1 : ... .. B ... ... ... : ... .. E ... ... ... : ... .. . ... : ... .. C ... : ... .. . ... ... : ... .. 9 ... ... : ... .. 5 ... ... : ... .. D ... ...
ROW D2 : ... .. A ... ... ... : ... .. D ... ... ... : ... .. . ... : B-# 00 6 ... : ... .. . ... ... : ... .. 8 ... ... : ... .. 4 ... ... : ... .. 8 ... ...
ROW D3 : ... .. 8 ... ... ... : ... .. A ... ... ... : ... .. . ... : ... .. 5 ... : ... .. . ... ... : ... .. 7 ... ... : ... .. . ... ... : ... .. . ... ...
ROW D4 : ... .. . ... ... ... : ... .. . ... ... ... : ... .. . ... : ... .. . ... : ... .. . ... ... : ... .. . ... ... : F-3 01 6 ... ... : ... .. . ... ...
ROW D5 : ... .. . ... ... ... : ... .. . ... ... ... : ... .. . ... : ... .. . ... : ... .. . ... ... : ... .. 6 ... ... : ... .. 5 ... ... : ... .. . ... ...
ROW D6 : ... .. . ... ... ... : ... .. . ... ... ... : ... .. . ... : ... .. 4 ... : ... .. . ... ... : ... .. 5 ... ... : ... .. 4 ... ... : ... .. . ... ...
ROW D7 : ... .. 1 ... ... ... : ... .. . ... ... ... : --- .. . ... : ... .. 3 ... : ... .. . ... ... : ... .. . ... ... : ... .. . ... ... : --- .. . P81 ...
ROW D8 : G#1 00 C ... ... ... : D#5 00 F P7E ... ... : G#3 00 . ... : 1-# 00 F ... : ... .. . ... ... : D-3 01 A ... ... : C-3 01 6 ... ... : G#1 01 F P80 ...
ROW D9 : ... .. B ... ... ... : D-5 00 E P80 ... ... : ... .. . ... : ... .. C ... : ... .. . ... ... : ... .. 9 ... ... : ... .. 5 ... ... : ... .. D ... ...
ROW DA : ... .. A ... ... ... : ... .. D ... ... ... : ... .. . ... : ... .. 6 ... : ... .. . ... ... : ... .. 8 ... ... : ... .. 4 ... ... : ... .. 8 ... ...
ROW DB : ... .. 8 ... ... ... : ... .. A ... ... ... : ... .. . ... : ... .. 3 ... : ... .. . ... ... : ... .. 7 ... ... : ... .. . ... ... : ... .. . ... ...
ROW DC : ... .. . ... ... ... : ... .. . ... ... ... : ... .. . ... : ... .. 2 ... : ... .. . ... ... : ... .. . ... ... : B-2 01 6 ... ... : ... .. . ... ...
ROW DD : ... .. . ... ... ... : ... .. . ... ... ... : ... .. . ... : ... .. 0 ... : ... .. . ... ... : ... .. 6 ... ... : ... .. 5 ... ... : ... .. . ... ...
ROW DE : ... .. . ... ... ... : ... .. . ... ... ... : ... .. . ... : ... .. . ... : ... .. . ... ... : ... .. 5 ... ... : ... .. 4 ... ... : ... .. . ... ...
ROW DF : ... .. 1 ... ... ... : ... .. . ... ... ... : --- .. . ... : ... .. . ... : ... .. . ... ... : ... .. . ... ... : ... .. . ... ... : --- .. . P7E ...
ROW E0 : D#2 00 C ... ... ... : B-4 00 F P82 ... ... : G#4 00 . ... : ... .. F ... : ... .. . ... ... : A-3 01 A ... ... : F#3 01 6 ... ... : G#2 01 F P80 ...
ROW E1 : ... .. B ... ... ... : A-4 00 E P80 ... ... : ... .. . ... : ... .. C ... : ... .. . ... ... : ... .. 9 ... ... : ... .. 5 ... ... : ... .. D ... ...
ROW E2 : ... .. A ... ... ... : G-4 00 D ... ... ... : ... .. . ... : B-# 00 6 ... : ... .. . ... ... : ... .. 8 ... ... : ... .. 4 ... ... : ... .. 8 ... ...
ROW E3 : ... .. 8 ... ... ... : F#4 00 A ... ... ... : ... .. . ... : ... .. 5 ... : ... .. . ... ... : ... .. 7 ... ... : ... .. . ... ... : ... .. . ... ...
ROW E4 : ... .. . ... ... ... : ... .. . ... ... ... : ... .. . ... : ... .. . ... : ... .. . ... ... : ... .. . ... ... : F-3 01 6 ... ... : ... .. . ... ...
ROW E5 : ... .. . ... ... ... : ... .. . ... ... ... : ... .. . ... : ... .. . ... : ... .. . ... ... : ... .. 6 ... ... : ... .. 5 ... ... : ... .. . ... ...
ROW E6 : ... .. . ... ... ... : ... .. . ... ... ... : ... .. . ... : ... .. 4 ... : ... .. . ... ... : ... .. 5 ... ... : ... .. 4 ... ... : ... .. . ... ...
ROW E7 : ... .. 1 ... ... ... : ... .. . ... ... ... : --- .. . ... : ... .. 3 ... : ... .. . ... ... : ... .. . ... ... : ... .. . ... ... : --- .. . P7F ...
ROW E8 : D-2 00 C ... ... ... : E-4 00 F P83 ... ... : A-3 00 . ... : 1-# 00 F ... : ... .. . ... ... : G#3 01 A ... ... : C-3 01 6 ... ... : A-1 01 F P80 ...
ROW E9 : ... .. B ... ... ... : D#4 00 E P7D ... ... : ... .. . ... : ... .. C ... : ... .. . ... ... : ... .. 9 ... ... : ... .. 5 ... ... : ... .. D ... ...
ROW EA : ... .. A ... ... ... : C#4 00 D P83 ... ... : ... .. . ... : ... .. 6 ... : ... .. . ... ... : ... .. 8 ... ... : ... .. 4 ... ... : ... .. 8 ... ...
ROW EB : ... .. 8 ... ... ... : C-4 00 A P7F ... ... : ... .. . ... : ... .. 3 ... : ... .. . ... ... : ... .. 7 ... ... : ... .. . ... ... : ... .. . ... ...
ROW EC : ... .. . ... ... ... : B-3 00 A P7B ... ... : ... .. . ... : ... .. 2 ... : ... .. . ... ... : ... .. . ... ... : B-2 01 6 ... ... : ... .. . ... ...
ROW ED : ... .. . ... ... ... : A-3 00 A P87 ... ... : ... .. . ... : ... .. 0 ... : ... .. . ... ... : ... .. 6 ... ... : ... .. 5 ... ... : ... .. . ... ...
ROW EE : ... .. . ... ... ... : ... .. . P80 ... ... : ... .. . ... : ... .. . ... : ... .. . ... ... : ... .. 5 ... ... : ... .. 4 ... ... : ... .. . ... ...
ROW EF : ... .. 1 ... ... ... : ... .. . ... ... ... : --- .. . ... : ... .. . ... : ... .. . ... ... : ... .. . ... ... : ... .. . ... ... : --- .. . P7F ...
ROW F0 : G#1 00 C ... ... ... : A#3 00 F P82 ... ... : F#3 00 . ... : 5-# 00 F ... : ... .. . ... ... : D-3 01 A ... ... : F#3 01 6 ... ... : F#1 01 F P80 ...
ROW F1 : ... .. B ... ... ... : B-3 00 E P84 ... ... : ... .. . ... : ... .. C ... : ... .. . ... ... : ... .. 9 ... ... : ... .. 5 ... ... : ... .. D ... ...
ROW F2 : ... .. A ... ... ... : C-4 00 D P80 ... ... : ... .. . ... : B-# 00 6 ... : ... .. . ... ... : ... .. 8 ... ... : ... .. 4 ... ... : ... .. 8 ... ...
ROW F3 : ... .. 8 ... ... ... : ... .. A ... ... ... : ... .. . ... : ... .. 5 ... : ... .. . ... ... : ... .. 7 ... ... : ... .. . ... ... : ... .. . ... ...
ROW F4 : ... .. . ... ... ... : ... .. . ... ... ... : ... .. . ... : ... .. . ... : ... .. . ... ... : ... .. . ... ... : F-3 01 6 ... ... : ... .. . ... ...
ROW F5 : ... .. . ... ... ... : ... .. . ... ... ... : ... .. . ... : ... .. . ... : ... .. . ... ... : ... .. 6 ... ... : ... .. 5 ... ... : ... .. . ... ...
ROW F6 : ... .. . ... ... ... : ... .. . ... ... ... : ... .. . ... : ... .. 4 ... : ... .. . ... ... : ... .. 5 ... ... : ... .. 4 ... ... : ... .. . ... ...
ROW F7 : ... .. 1 ... ... ... : ... .. . ... ... ... : --- .. . ... : ... .. 3 ... : ... .. . ... ... : ... .. . ... ... : ... .. . ... ... : --- .. . P81 ...
ROW F8 : F#2 00 C ... ... ... : ... .. . ... ... ... : G#3 00 . ... : 1-# 00 F ... : ... .. . ... ... : C-4 01 A ... ... : C-3 01 6 ... ... : G#1 01 F P80 ...
ROW F9 : ... .. B ... ... ... : ... .. . ... ... ... : ... .. . ... : ... .. C ... : ... .. . ... ... : ... .. 9 ... ... : ... .. 5 ... ... : ... .. D ... ...
ROW FA : ... .. A ... ... ... : ... .. . ... ... ... : ... .. . ... : ... .. 6 ... : ... .. . ... ... : ... .. 8 ... ... : ... .. 4 ... ... : ... .. 8 ... ...
ROW FB : ... .. 8 ... ... ... : ... .. . ... ... ... : ... .. . ... : ... .. 3 ... : ... .. . ... ... : ... .. 7 ... ... : ... .. . ... ... : ... .. . ... ...
ROW FC : ... .. . ... ... ... : ... .. . P84 ... ... : ... .. . ... : ... .. 2 ... : ... .. . ... ... : ... .. . ... ... : B-2 01 6 ... ... : ... .. . ... ...
ROW FD : ... .. . ... ... ... : ... .. . P86 ... ... : ... .. . ... : ... .. 0 ... : ... .. . ... ... : ... .. 6 ... ... : ... .. 5 ... ... : ... .. . ... ...
ROW FE : ... .. . ... ... ... : ... .. . P85 ... ... : ... .. . ... : ... .. . ... : ... .. . ... ... : ... .. 5 ... ... : ... .. 4 ... ... : ... .. . ... ...
ROW FF : ... .. 1 ... ... ... : ... .. . P82 ... ... : --- .. . ... : ... .. . ... : ... .. . ... ... : ... .. . ... ... : ... .. . ... ... : --- .. . P7E ...

PATTERN 16
ROW 00 : F-2 00 C ... ... ... : ... .. . P7E ... ... : G#3 00 . ... : ... .. F ... : ... .. . ... ... : B-3 01 A ... ... : F#3 01 6 ... ... : G#1 01 F P80 ...
ROW 01 : ... .. B ... ... ... : ... .. . P7B ... ... : ... .. . ... : ... .. C ... : ... .. . ... ... : ... .. 9 ... ... : ... .. 5 ... ... : ... .. D ... ...
ROW 02 : ... .. A ... ... ... : B-3 00 A P86 ... ... : ... .. . ... : B-# 00 6 ... : ... .. . ... ... : ... .. 8 ... ... : ... .. 4 ... ... : ... .. 8 ... ...
ROW 03 : ... .. 8 ... ... ... : C-4 00 A P7C ... ... : ... .. . ... : ... .. 5 ... : ... .. . ... ... : ... .. 7 ... ... : ... .. . ... ... : ... .. . ... ...
ROW 04 : ... .. . ... ... ... : ... .. . P80 ... ... : ... .. . ... : ... .. . ... : ... .. . ... ... : ... .. . ... ... : F-3 01 6 ... ... : ... .. . ... ...
ROW 05 : ... .. . ... ... ... : ... .. . P83 ... ... : ... .. . ... : ... .. . ... : ... .. . ... ... : ... .. 6 ... ... : ... .. 5 ... ... : ... .. . ... ...
ROW 06 : ... .. . ... ... ... : ... .. . P86 ... ... : ... .. . ... : ... .. 4 ... : ... .. . ... ... : ... .. 5 ... ... : ... .. 4 ... ... : ... .. . ... ...
ROW 07 : ... .. 1 ... ... ... : ... .. . ... ... ... : --- .. . ... : ... .. 3 ... : ... .. . ... ... : ... .. . ... ... : ... .. . ... ... : --- .. . P7E ...
ROW 08 : G#1 00 C ... ... ... : B-3 00 F P80 ... ... : A-3 00 . ... : 1-# 00 F ... : ... .. . ... ... : D-3 01 A ... ... : C-3 01 6 ... ... : A-1 01 F P80 ...
ROW 09 : ... .. B ... ... ... : ... .. E ... ... ... : ... .. . ... : ... .. C ... : ... .. . ... ... : ... .. 9 ... ... : ... .. 5 ... ... : ... .. D ... ...
ROW 0A : ... .. A ... ... ... : ... .. A ... ... ... : ... .. . ... : ... .. 6 ... : ... .. . ... ... : ... .. 8 ... ... : ... .. 4 ... ... : ... .. 8 ... ...
ROW 0B : ... .. 8 ... ... ... : ... .. 2 ... ... ... : ... .. . ... : ... .. 3 ... : ... .. . ... ... : ... .. 7 ... ... : ... .. . ... ... : ... .. . ... ...
ROW 0C : ... .. . ... ... ... : C-4 00 F ... ... ... : ... .. . ... : ... .. 2 ... : ... .. . ... ... : ... .. . ... ... : B-2 01 6 ... ... : ... .. . ... ...
ROW 0D : ... .. . ... ... ... : ... .. E ... ... ... : ... .. . ... : ... .. 0 ... : ... .. . ... ... : ... .. 6 ... ... : ... .. 5 ... ... : ... .. . ... ...
ROW 0E : ... .. . ... ... ... : ... .. A ... ... ... : ... .. . ... : ... .. . ... : ... .. . ... ... : ... .. 5 ... ... : ... .. 4 ... ... : ... .. . ... ...
ROW 0F : ... .. 1 ... ... ... : ... .. 2 ... ... ... : --- .. . ... : ... .. . ... : ... .. . ... ... : ... .. . ... ... : ... .. . ... ... : --- .. . P7F ...
ROW 10 : D#2 00 C ... ... ... : C#4 00 F P84 ... ... : F#3 00 . ... : 5-# 00 F ... : ... .. . ... ... : A-3 01 A ... ... : F#3 01 6 ... ... : F#1 01 F P80 ...
ROW 11 : ... .. B ... ... ... : D-4 00 E P80 ... ... : ... .. . ... : ... .. C ... : ... .. . ... ... : ... .. 9 ... ... : ... .. 5 ... ... : ... .. D ... ...
ROW 12 : ... .. A ... ... ... : ... .. D ... ... ... : ... .. . ... : B-# 00 6 ... : ... .. . ... ... : ... .. 8 ... ... : ... .. 4 ... ... : ... .. 8 ... ...
ROW 13 : ... .. 8 ... ... ... : ... .. A ... ... ... : ... .. . ... : ... .. 5 ... : ... .. . ... ... : ... .. 7 ... ... : ... .. . ... ... : ... .. . ... ...
ROW 14 : ... .. . ... ... ... : ... .. . ... ... ... : ... .. . ... : ... .. . ... : ... .. . ... ... : ... .. . ... ... : F-3 01 6 ... ... : ... .. . ... ...
ROW 15 : ... .. . ... ... ... : ... .. . ... ... ... : ... .. . ... : ... .. . ... : ... .. . ... ... : ... .. 6 ... ... : ... .. 5 ... ... : ... .. . ... ...
ROW 16 : ... .. . ... ... ... : ... .. . ... ... ... : ... .. . ... : ... .. 4 ... : ... .. . ... ... : ... .. 5 ... ... : ... .. 4 ... ... : ... .. . ... ...
ROW 17 : ... .. 1 ... ... ... : ... .. . ... ... ... : --- .. . ... : ... .. 3 ... : ... .. . ... ... : ... .. . ... ... : ... .. . ... ... : --- .. . P81 ...
ROW 18 : D-2 00 C ... ... ... : ... .. . ... ... ... : G#3 00 . ... : 1-# 00 F ... : ... .. . ... ... : G#3 01 A ... ... : C-3 01 6 ... ... : G#1 01 F P80 ...
ROW 19 : ... .. B ... ... ... : ... .. . ... ... ... : ... .. . ... : ... .. C ... : ... .. . ... ... : ... .. 9 ... ... : ... .. 5 ... ... : ... .. D ... ...
ROW 1A : ... .. A ... ... ... : ... .. . ... ... ... : ... .. . ... : ... .. 6 ... : ... .. . ... ... : ... .. 8 ... ... : ... .. 4 ... ... : ... .. 8 ... ...
ROW 1B : ... .. 8 ... ... ... : ... .. . ... ... ... : ... .. . ... : ... .. 3 ... : ... .. . ... ... : ... .. 7 ... ... : ... .. . ... ... : ... .. . ... ...
ROW 1C : ... .. . ... ... ... : ... .. . ... ... ... : ... .. . ... : ... .. 2 ... : ... .. . ... ... : ... .. . ... ... : B-2 01 6 ... ... : ... .. . ... ...
ROW 1D : ... .. . ... ... ... : ... .. . ... ... ... : ... .. . ... : ... .. 0 ... : ... .. . ... ... : ... .. 6 ... ... : ... .. 5 ... ... : ... .. . ... ...
ROW 1E : ... .. . ... ... ... : ... .. . ... ... ... : ... .. . ... : ... .. . ... : ... .. . ... ... : ... .. 5 ... ... : ... .. 4 ... ... : ... .. . ... ...
ROW 1F : ... .. 1 ... ... ... : ... .. . ... ... ... : --- .. . ... : ... .. . ... : ... .. . ... ... : ... .. . ... ... : ... .. . ... ... : --- .. . P7E ...
ROW 20 : B-3 00 C ... ... ... : ... .. . ... ... ... : A#5 00 . ... : ... .. F ... : ... .. . ... ... : F-5 01 A ... ... : F#3 01 6 ... ... : B-1 01 F P80 ...
ROW 21 : ... .. B ... ... ... : ... .. . ... ... ... : C-5 00 . ... : ... .. C ... : ... .. . ... ... : ... .. 9 ... ... : ... .. 5 ... ... : ... .. D ... ...
ROW 22 : ... .. A ... ... ... : ... .. . ... ... ... : F-4 00 . ... : B-# 00 6 ... : ... .. . ... ... : ... .. 8 ... ... : ... .. 4 ... ... : ... .. 8 ... ...
ROW 23 : ... .. 8 ... ... ... : ... .. . ... ... ... : E-4 00 . ... : ... .. 5 ... : ... .. . ... ... : ... .. 7 ... ... : ... .. . ... ... : ... .. . ... ...
ROW 24 : F#3 00 C ... ... ... : ... .. . P84 ... ... : B-3 00 . ... : ... .. . ... : ... .. . ... ... : C-5 01 A ... ... : F-3 01 6 ... ... : ... .. . ... ...
ROW 25 : ... .. B ... ... ... : D#4 00 A P7C ... ... : ... .. . ... : ... .. . ... : ... .. . ... ... : ... .. 9 ... ... : ... .. 5 ... ... : ... .. . ... ...
ROW 26 : ... .. 8 ... ... ... : D-4 00 A P85 ... ... : ... .. . ... : ... .. 4 ... : ... .. . ... ... : ... .. 5 ... ... : ... .. 4 ... ... : ... .. . ... ...
ROW 27 : ... .. 1 ... ... ... : ... .. . P82 ... ... : ... .. . ... : ... .. 3 ... : ... .. . ... ... : ... .. . ... ... : ... .. . ... ... : ... .. . ... ...
ROW 28 : D-3 00 C ... ... ... : ... .. . P7E ... ... : A-3 00 . P7C : 1-# 00 F ... : ... .. . ... ... : G#4 01 A ... ... : C-3 01 6 ... ... : A#1 01 8 P9E ...
ROW 29 : ... .. B ... ... ... : ... .. . P7B ... ... : G-3 00 . P7B : ... .. C ... : ... .. . ... ... : ... .. 9 ... ... : ... .. 5 ... ... : ... .. . P7E ...
ROW 2A : ... .. 8 ... ... ... : C#4 00 A P86 ... ... : F-3 00 . P7E : ... .. 6 ... : ... .. . ... ... : ... .. 5 ... ... : ... .. 4 ... ... : A-1 01 8 P9F ...
ROW 2B : ... .. 1 ... ... ... : D-4 00 A P7C ... ... : D#3 00 . P86 : ... .. 3 ... : ... .. . ... ... : ... .. . ... ... : ... .. . ... ... : ... .. . P7F ...
ROW 2C : B-2 00 C ... ... ... : ... .. . P80 ... ... : D-3 00 . P7B : ... .. F ... : ... .. . ... ... : F-4 01 A ... ... : B-2 01 6 ... ... : ... .. . P5F ...
ROW 2D : ... .. B ... ... ... : ... .. . P83 ... ... : C-3 00 . P8A : ... .. C ... : ... .. . ... ... : ... .. 9 ... ... : ... .. 5 ... ... : G#1 01 8 P84 ...
ROW 2E : ... .. 8 ... ... ... : D#4 00 A P7C ... ... : B-2 00 . P83 : ... .. 6 ... : ... .. . ... ... : ... .. 5 ... ... : ... .. 4 ... ... : ... .. . P64 ...
ROW 2F : ... .. 1 ... ... ... : ... .. . ... ... ... : A#2 00 . P7E : ... .. 3 ... : ... .. . ... ... : ... .. . ... ... : ... .. . ... ... : G-1 01 8 P8E ...
ROW 30 : F#2 00 C ... ... ... : D-4 00 A P82 ... ... : F-5 00 . P80 : 5-# 00 F ... : ... .. . ... ... : C-4 01 A ... ... : F#3 01 6 ... ... : F#1 01 F P80 ...
ROW 31 : ... .. B ... ... ... : ... .. . P7F ... ... : G-4 00 . ... : ... .. C ... : ... .. . ... ... : ... .. 9 ... ... : ... .. 5 ... ... : ... .. D ... ...
ROW 32 : ... .. A ... ... ... : ... .. . P7B ... ... : C-4 00 . ... : B-# 00 6 ... : ... .. . ... ... : ... .. 8 ... ... : ... .. 4 ... ... : ... .. 8 ... ...
ROW 33 : ... .. 8 ... ... ... : C#4 00 A P86 ... ... : B-3 00 . ... : ... .. 5 ... : ... .. . ... ... : ... .. 7 ... ... : ... .. . ... ... : ... .. . ... ...
ROW 34 : D-2 00 C ... ... ... : D-4 00 A P7C ... ... : F#3 00 . ... : ... .. . ... : ... .. . ... ... : G#3 01 A ... ... : F-3 01 6 ... ... : ... .. . ... ...
ROW 35 : ... .. B ... ... ... : ... .. 2 P80 ... ... : ... .. . ... : ... .. . ... : ... .. . ... ... : ... .. 9 ... ... : ... .. 5 ... ... : ... .. . ... ...
ROW 36 : ... .. 8 ... ... ... : ... .. . P83 ... ... : ... .. . ... : ... .. 4 ... : ... .. . ... ... : ... .. 5 ... ... : ... .. 4 ... ... : ... .. . ... ...
ROW 37 : ... .. 1 ... ... ... : D#4 00 2 P7C ... ... : ... .. . ... : ... .. 3 ... : ... .. . ... ... : ... .. . ... ... : ... .. . ... ... : ... .. . ... ...
ROW 38 : B-1 00 C ... ... ... : C#4 00 F ... ... ... : E-3 00 . P85 : C-# 00 F ... : ... .. . ... ... : F-3 01 A ... ... : C-3 01 6 ... ... : ... .. . P60 ...
ROW 39 : ... .. B ... ... ... : C-4 00 E P80 ... ... : D#3 00 . P7A : ... .. C ... : ... .. . ... ... : ... .. 9 ... ... : ... .. 5 ... ... : F-1 01 8 P92 ...
ROW 3A : ... .. 8 ... ... ... : ... .. A ... ... ... : C#3 00 . P86 : ... .. 6 ... : ... .. . ... ... : ... .. 5 ... ... : ... .. 4 ... ... : ... .. . P72 ...
ROW 3B : ... .. 1 ... ... ... : ... .. 2 ... ... ... : C-3 00 . P7E : ... .. 3 ... : ... .. . ... ... : ... .. . ... ... : ... .. . ... ... : E-1 01 8 PA9 ...
ROW 3C : F#1 00 C ... ... ... : C#4 00 F P84 ... ... : B-2 00 . P77 : ... .. F ... : ... .. . ... ... : C-3 01 A ... ... : B-2 01 6 ... ... : ... .. . P89 ...
ROW 3D : ... .. B ... ... ... : D-4 00 E P80 ... ... : A-2 00 . P8E : ... .. C ... : ... .. . ... ... : ... .. 9 ... ... : ... .. 5 ... ... : ... .. . P69 ...
ROW 3E : ... .. 8 ... ... ... : ... .. A ... ... ... : G#2 00 . P8D : ... .. 6 ... : ... .. . ... ... : ... .. 5 ... ... : ... .. 4 ... ... : D#1 01 8 PA6 ...
ROW 3F : ... .. 1 ... ... ... : ... .. 2 ... ... ... : G-2 00 . ... : ... .. 3 ... : ... .. . ... ... : ... .. . ... ... : ... .. . ... ... : ... .. . P86 ...
ROW 40 : G#1 00 C ... ... ... : D#4 00 F ... ... ... : G-5 00 . P80 : 1-# 00 F ... : ... .. . ... ... : D-3 01 A ... ... : F#3 01 6 ... ... : G#1 01 F P80 ...
ROW 41 : ... .. B ... ... ... : ... .. E ... ... ... : A-4 00 . ... : ... .. C ... : ... .. . ... ... : ... .. 9 ... ... : ... .. 5 ... ... : ... .. D ... ...
ROW 42 : ... .. A ... ... ... : ... .. D ... ... ... : D-4 00 . ... : B-# 00 6 ... : ... .. . ... ... : ... .. 8 ... ... : ... .. 4 ... ... : ... .. 8 ... ...
ROW 43 : ... .. 8 ... ... ... : ... .. A ... ... ... : C#4 00 . ... : ... .. 5 ... : ... .. . ... ... : ... .. 7 ... ... : ... .. . ... ... : ... .. . ... ...
ROW 44 : ... .. C ... ... ... : ... .. . ... ... ... : G#3 00 . ... : ... .. . ... : ... .. . ... ... : ... .. A ... ... : F-3 01 6 ... ... : ... .. . ... ...
ROW 45 : ... .. B ... ... ... : ... .. . ... ... ... : ... .. . ... : ... .. . ... : ... .. . ... ... : ... .. 9 ... ... : ... .. 5 ... ... : ... .. . ... ...
ROW 46 : ... .. A ... ... ... : ... .. . ... ... ... : ... .. . ... : ... .. 4 ... : ... .. . ... ... : ... .. 8 ... ... : ... .. 4 ... ... : ... .. . ... ...
ROW 47 : ... .. 8 ... ... ... : ... .. . ... ... ... : --- .. . ... : ... .. 3 ... : ... .. . ... ... : ... .. 7 ... ... : ... .. . ... ... : --- .. . P7E ...
ROW 48 : F#2 00 C ... ... ... : ... .. . ... ... ... : A-3 00 . ... : 1-# 00 F ... : ... .. . ... ... : C-4 01 A ... ... : C-3 01 6 ... ... : A-1 01 F P80 ...
ROW 49 : ... .. B ... ... ... : ... .. . ... ... ... : ... .. . ... : ... .. C ... : ... .. . ... ... : ... .. 9 ... ... : ... .. 5 ... ... : ... .. D ... ...
ROW 4A : ... .. A ... ... ... : ... .. . ... ... ... : ... .. . ... : ... .. 6 ... : ... .. . ... ... : ... .. 8 ... ... : ... .. 4 ... ... : ... .. 8 ... ...
ROW 4B : ... .. 8 ... ... ... : ... .. . ... ... ... : ... .. . ... : ... .. 3 ... : ... .. . ... ... : ... .. 7 ... ... : ... .. . ... ... : ... .. . ... ...
ROW 4C : ... .. . ... ... ... : ... .. . ... ... ... : ... .. . ... : ... .. 2 ... : ... .. . ... ... : ... .. . ... ... : B-2 01 6 ... ... : ... .. . ... ...
ROW 4D : ... .. . ... ... ... : ... .. . ... ... ... : ... .. . ... : ... .. 0 ... : ... .. . ... ... : ... .. 6 ... ... : ... .. 5 ... ... : ... .. . ... ...
ROW 4E : ... .. . ... ... ... : ... .. . ... ... ... : ... .. . ... : ... .. . ... : ... .. . ... ... : ... .. . ... ... : ... .. 4 ... ... : ... .. . ... ...
ROW 4F : ... .. . ... ... ... : ... .. . ... ... ... : --- .. . ... : ... .. . ... : ... .. . ... ... : ... .. 5 ... ... : ... .. . ... ... : --- .. . P7F ...
ROW 50 : F-2 00 C ... ... ... : C#4 00 A P86 ... ... : F#3 00 . ... : 5-# 00 F ... : ... .. . ... ... : B-3 01 A ... ... : F#3 01 6 ... ... : F#1 01 F P80 ...
ROW 51 : ... .. B ... ... ... : C-4 00 A P82 ... ... : ... .. . ... : ... .. C ... : ... .. . ... ... : ... .. 9 ... ... : ... .. 5 ... ... : ... .. D ... ...
ROW 52 : ... .. A ... ... ... : B-3 00 A P7E ... ... : ... .. . ... : B-# 00 6 ... : ... .. . ... ... : ... .. 8 ... ... : ... .. 4 ... ... : ... .. 8 ... ...
ROW 53 : ... .. 8 ... ... ... : A#3 00 A P7C ... ... : ... .. . ... : ... .. 5 ... : ... .. . ... ... : ... .. 7 ... ... : ... .. . ... ... : ... .. . ... ...
ROW 54 : ... .. . ... ... ... : B-3 00 A P81 ... ... : ... .. . ... : ... .. . ... : ... .. . ... ... : ... .. . ... ... : F-3 01 6 ... ... : ... .. . ... ...
ROW 55 : ... .. . ... ... ... : C#4 00 A P7C ... ... : ... .. . ... : ... .. . ... : ... .. . ... ... : ... .. 6 ... ... : ... .. 5 ... ... : ... .. . ... ...
ROW 56 : ... .. . ... ... ... : D-4 00 A P83 ... ... : ... .. . ... : ... .. 4 ... : ... .. . ... ... : ... .. . ... ... : ... .. 4 ... ... : ... .. . ... ...
ROW 57 : ... .. . ... ... ... : E-4 00 A P82 ... ... : --- .. . ... : ... .. 3 ... : ... .. . ... ... : ... .. 5 ... ... : ... .. . ... ... : --- .. . P81 ...
ROW 58 : G#1 00 C ... ... ... : F-4 00 F P80 ... ... : G#3 00 . ... : 1-# 00 F ... : ... .. . ... ... : D-3 01 A ... ... : C-3 01 6 ... ... : G#1 01 F P80 ...
ROW 59 : ... .. B ... ... ... : ... .. E ... ... ... : ... .. . ... : ... .. C ... : ... .. . ... ... : ... .. 9 ... ... : ... .. 5 ... ... : ... .. D ... ...
ROW 5A : ... .. 8 ... ... ... : ... .. D ... ... ... : ... .. . ... : ... .. 6 ... : ... .. . ... ... : ... .. 5 ... ... : ... .. 4 ... ... : ... .. 8 ... ...
ROW 5B : ... .. 1 ... ... ... : ... .. A ... ... ... : ... .. . ... : ... .. 3 ... : ... .. . ... ... : ... .. . ... ... : ... .. . ... ... : ... .. . ... ...
ROW 5C : ... .. C ... ... ... : ... .. . ... ... ... : ... .. . ... : ... .. 2 ... : ... .. . ... ... : ... .. A ... ... : B-2 01 6 ... ... : ... .. . ... ...
ROW 5D : ... .. B ... ... ... : ... .. 2 ... ... ... : ... .. . ... : ... .. 0 ... : ... .. . ... ... : ... .. 9 ... ... : ... .. 5 ... ... : ... .. . ... ...
ROW 5E : ... .. 8 ... ... ... : ... .. . ... ... ... : ... .. . ... : ... .. . ... : ... .. . ... ... : ... .. 5 ... ... : ... .. 4 ... ... : ... .. . ... ...
ROW 5F : ... .. 1 ... ... ... : ... .. . ... ... ... : --- .. . ... : ... .. . ... : ... .. . ... ... : ... .. . ... ... : ... .. . ... ... : --- .. . P7E ...
ROW 60 : D#2 00 C ... ... ... : F#4 00 F ... ... ... : G#4 00 . ... : ... .. F ... : ... .. . ... ... : A-3 01 A ... ... : F#3 01 6 ... ... : G#2 01 F P80 ...
ROW 61 : ... .. B ... ... ... : ... .. E ... ... ... : ... .. . ... : ... .. C ... : ... .. . ... ... : ... .. 9 ... ... : ... .. 5 ... ... : ... .. D ... ...
ROW 62 : ... .. A ... ... ... : ... .. D ... ... ... : ... .. . ... : B-# 00 6 ... : ... .. . ... ... : ... .. 8 ... ... : ... .. 4 ... ... : ... .. 8 ... ...
ROW 63 : ... .. 8 ... ... ... : ... .. A ... ... ... : ... .. . ... : ... .. 5 ... : ... .. . ... ... : ... .. 7 ... ... : ... .. . ... ... : ... .. . ... ...
ROW 64 : ... .. . ... ... ... : ... .. . ... ... ... : ... .. . ... : ... .. . ... : ... .. . ... ... : ... .. . ... ... : F-3 01 6 ... ... : ... .. . ... ...
ROW 65 : ... .. . ... ... ... : ... .. . ... ... ... : ... .. . ... : ... .. . ... : ... .. . ... ... : ... .. 6 ... ... : ... .. 5 ... ... : ... .. . ... ...
ROW 66 : ... .. . ... ... ... : ... .. . ... ... ... : ... .. . ... : ... .. 4 ... : ... .. . ... ... : ... .. 5 ... ... : ... .. 4 ... ... : ... .. . ... ...
ROW 67 : ... .. 1 ... ... ... : ... .. . ... ... ... : --- .. . ... : ... .. 3 ... : ... .. . ... ... : ... .. . ... ... : ... .. . ... ... : --- .. . P7F ...
ROW 68 : D-2 00 C ... ... ... : ... .. . ... ... ... : A-3 00 . ... : 1-# 00 F ... : ... .. . ... ... : G#3 01 A ... ... : C-3 01 6 ... ... : A-1 01 F P80 ...
ROW 69 : ... .. B ... ... ... : ... .. . ... ... ... : ... .. . ... : ... .. C ... : ... .. . ... ... : ... .. 9 ... ... : ... .. 5 ... ... : ... .. D ... ...
ROW 6A : ... .. A ... ... ... : ... .. . ... ... ... : ... .. . ... : ... .. 6 ... : ... .. . ... ... : ... .. 8 ... ... : ... .. 4 ... ... : ... .. 8 ... ...
ROW 6B : ... .. 8 ... ... ... : ... .. . ... ... ... : ... .. . ... : ... .. 3 ... : ... .. . ... ... : ... .. 7 ... ... : ... .. . ... ... : ... .. . ... ...
ROW 6C : ... .. . ... ... ... : ... .. . ... ... ... : ... .. . ... : ... .. 2 ... : ... .. . ... ... : ... .. . ... ... : B-2 01 6 ... ... : ... .. . ... ...
ROW 6D : ... .. . ... ... ... : ... .. . ... ... ... : ... .. . ... : ... .. 0 ... : ... .. . ... ... : ... .. 6 ... ... : ... .. 5 ... ... : ... .. . ... ...
ROW 6E : ... .. . ... ... ... : ... .. . ... ... ... : ... .. . ... : ... .. . ... : ... .. . ... ... : ... .. 5 ... ... : ... .. 4 ... ... : ... .. . ... ...
ROW 6F : ... .. 1 ... ... ... : ... .. . ... ... ... : --- .. . ... : ... .. . ... : ... .. . ... ... : ... .. . ... ... : ... .. . ... ... : --- .. . P7F ...
ROW 70 : G#1 00 C ... ... ... : ... .. . ... ... ... : F#3 00 . ... : 5-# 00 F ... : ... .. . ... ... : D-3 01 A ... ... : F#3 01 6 ... ... : F#1 01 F P80 ...
ROW 71 : ... .. B ... ... ... : ... .. . ... ... ... : ... .. . ... : ... .. C ... : ... .. . ... ... : ... .. 9 ... ... : ... .. 5 ... ... : ... .. D ... ...
ROW 72 : ... .. 8 ... ... ... : ... .. . P84 ... ... : ... .. . ... : B-# 00 6 ... : ... .. . ... ... : ... .. 5 ... ... : ... .. 4 ... ... : ... .. 8 ... ...
ROW 73 : ... .. 1 ... ... ... : G-4 00 A P7E ... ... : ... .. . ... : ... .. 5 ... : ... .. . ... ... : ... .. . ... ... : ... .. . ... ... : ... .. . ... ...
ROW 74 : ... .. C ... ... ... : ... .. . P7D ... ... : ... .. . ... : ... .. . ... : ... .. . ... ... : ... .. A ... ... : F-3 01 6 ... ... : ... .. . ... ...
ROW 75 : ... .. B ... ... ... : F#4 00 A P82 ... ... : ... .. . ... : ... .. . ... : ... .. . ... ... : ... .. 9 ... ... : ... .. 5 ... ... : ... .. . ... ...
ROW 76 : ... .. 8 ... ... ... : ... .. . P7E ... ... : ... .. . ... : ... .. 4 ... : ... .. . ... ... : ... .. 5 ... ... : ... .. 4 ... ... : ... .. . ... ...
ROW 77 : ... .. 1 ... ... ... : F-4 00 A P84 ... ... : --- .. . ... : ... .. 3 ... : ... .. . ... ... : ... .. . ... ... : ... .. . ... ... : --- .. . P81 ...
ROW 78 : F#2 00 C ... ... ... : ... .. . P83 ... ... : G#3 00 . ... : 1-# 00 F ... : ... .. . ... ... : C-4 01 A ... ... : C-3 01 6 ... ... : G#1 01 F P80 ...
ROW 79 : ... .. B ... ... ... : F#4 00 A P7C ... ... : ... .. . ... : ... .. C ... : ... .. . ... ... : ... .. 9 ... ... : ... .. 5 ... ... : ... .. D ... ...
ROW 7A : ... .. A ... ... ... : ... .. . P80 ... ... : ... .. . ... : ... .. 6 ... : ... .. . ... ... : ... .. 8 ... ... : ... .. 4 ... ... : ... .. 8 ... ...
ROW 7B : ... .. 8 ... ... ... : ... .. . P83 ... ... : ... .. . ... : ... .. 3 ... : ... .. . ... ... : ... .. 7 ... ... : ... .. . ... ... : ... .. . ... ...
ROW 7C : ... .. . ... ... ... : G-4 00 A P7E ... ... : ... .. . ... : ... .. 2 ... : ... .. . ... ... : ... .. . ... ... : B-2 01 6 ... ... : ... .. . ... ...
ROW 7D : ... .. . ... ... ... : ... .. . ... ... ... : ... .. . ... : ... .. 0 ... : ... .. . ... ... : ... .. 6 ... ... : ... .. 5 ... ... : ... .. . ... ...
ROW 7E : ... .. . ... ... ... : F#4 00 A P82 ... ... : ... .. . ... : ... .. . ... : ... .. . ... ... : ... .. 5 ... ... : ... .. 4 ... ... : ... .. . ... ...
ROW 7F : ... .. 1 ... ... ... : ... .. . P7F ... ... : --- .. . ... : ... .. . ... : ... .. . ... ... : ... .. . ... ... : ... .. . ... ... : --- .. . P7E ...
ROW 80 : D-2 00 C ... ... ... : F-4 00 A P84 ... ... : D-3 00 . ... : ... .. F ... : ... .. . ... ... : G#3 01 A ... ... : F#3 01 6 ... ... : D-1 01 F P80 ...
ROW 81 : ... .. B ... ... ... : ... .. . P83 ... ... : ... .. . ... : ... .. C ... : ... .. . ... ... : ... .. 9 ... ... : ... .. 5 ... ... : ... .. D ... ...
ROW 82 : ... .. A ... ... ... : F#4 00 A P7C ... ... : ... .. . ... : B-# 00 6 ... : ... .. . ... ... : ... .. 8 ... ... : ... .. 4 ... ... : ... .. 8 ... ...
ROW 83 : ... .. 8 ... ... ... : ... .. . P80 ... ... : ... .. . ... : ... .. 5 ... : ... .. . ... ... : ... .. 7 ... ... : ... .. . ... ... : ... .. . ... ...
ROW 84 : ... .. . ... ... ... : ... .. . P83 ... ... : ... .. . ... : ... .. . ... : ... .. . ... ... : ... .. . ... ... : F-3 01 6 ... ... : ... .. . ... ...
ROW 85 : ... .. . ... ... ... : G-4 00 A P7E ... ... : ... .. . ... : ... .. . ... : ... .. . ... ... : ... .. 6 ... ... : ... .. 5 ... ... : ... .. . ... ...
ROW 86 : ... .. . ... ... ... : ... .. . ... ... ... : ... .. . ... : ... .. 4 ... : ... .. . ... ... : ... .. 5 ... ... : ... .. 4 ... ... : ... .. . ... ...
ROW 87 : ... .. 1 ... ... ... : F#4 00 A P83 ... ... : --- .. . ... : ... .. 3 ... : ... .. . ... ... : ... .. . ... ... : ... .. . ... ... : --- .. . ... ...
ROW 88 : A-2 00 C ... ... ... : ... .. . P80 ... ... : A-3 00 . ... : 1-# 00 F ... : ... .. . ... ... : D#4 01 A ... ... : C-3 01 6 ... ... : A-1 01 F ... ...
ROW 89 : ... .. B ... ... ... : ... .. 2 P7C ... ... : ... .. . ... : ... .. C ... : ... .. . ... ... : ... .. 9 ... ... : ... .. 5 ... ... : ... .. D ... ...
ROW 8A : ... .. A ... ... ... : F-4 00 2 P83 ... ... : ... .. . ... : ... .. 6 ... : ... .. . ... ... : ... .. 8 ... ... : ... .. 4 ... ... : ... .. 8 ... ...
ROW 8B : ... .. 8 ... ... ... : ... .. . P84 ... ... : ... .. . ... : ... .. 3 ... : ... .. . ... ... : ... .. 7 ... ... : ... .. . ... ... : ... .. . ... ...
ROW 8C : ... .. C ... ... ... : F#4 00 1 P7F ... ... : ... .. . ... : ... .. 2 ... : ... .. . ... ... : ... .. A ... ... : B-2 01 6 ... ... : ... .. . ... ...
ROW 8D : ... .. B ... ... ... : ... .. . P82 ... ... : ... .. . ... : ... .. 0 ... : ... .. . ... ... : ... .. 9 ... ... : ... .. 5 ... ... : ... .. . ... ...
ROW 8E : ... .. A ... ... ... : G-4 00 1 P7E ... ... : ... .. . ... : ... .. . ... : ... .. . ... ... : ... .. 8 ... ... : ... .. 4 ... ... : ... .. . ... ...
ROW 8F : ... .. 0 ... ... ... : ... .. 0 ... ... ... : --- .. . ... : ... .. . ... : ... .. . ... ... : --- .. . ... ... : ... .. . ... ... : --- .. . P7F ...
ROW 90 : G#2 00 C P80 ... ... : ... .. . ... ... ... : G#3 00 . ... : 8-# 00 F ... : ... .. . ... ... : D-4 01 A ... ... : F#3 01 6 ... ... : G#1 01 F P80 ...
ROW 91 : ... .. B ... ... ... : ... .. . ... ... ... : ... .. . ... : ... .. C ... : ... .. . ... ... : ... .. 9 ... ... : ... .. 5 ... ... : ... .. D ... ...
ROW 92 : ... .. A ... ... ... : ... .. . ... ... ... : ... .. . ... : ... .. 6 ... : ... .. . ... ... : ... .. 8 ... ... : ... .. 4 ... ... : ... .. 8 ... ...
ROW 93 : ... .. 0 ... ... ... : ... .. . ... ... ... : ... .. . ... : ... .. 3 ... : ... .. . ... ... : --- .. . ... ... : ... .. . ... ... : ... .. . ... ...
ROW 94 : G#2 00 C P80 ... ... : G#3 00 8 P80 ... ... : ... .. . ... : ... .. F ... : ... .. . ... ... : D-4 01 A ... ... : F-3 01 6 ... ... : ... .. . ... ...
ROW 95 : ... .. B ... ... ... : ... .. 7 ... ... ... : ... .. . ... : ... .. C ... : ... .. . ... ... : ... .. 9 ... ... : ... .. 5 ... ... : ... .. . ... ...
ROW 96 : ... .. A ... ... ... : ... .. 6 ... ... ... : ... .. . ... : ... .. 6 ... : ... .. . ... ... : ... .. 8 ... ... : ... .. 4 ... ... : ... .. . ... ...
ROW 97 : ... .. 0 ... ... ... : ... .. 5 ... ... ... : --- .. . ... : ... .. 3 ... : ... .. . ... ... : --- .. . ... ... : ... .. . ... ... : --- .. . P7E ...
ROW 98 : D-3 00 C P80 ... ... : A-3 00 8 ... ... ... : D-4 00 . ... : 1-# 00 F ... : ... .. . ... ... : G#4 01 A ... ... : C-3 01 6 ... ... : D-2 01 F P80 ...
ROW 99 : ... .. B ... ... ... : ... .. 7 ... ... ... : ... .. . ... : ... .. C ... : ... .. . ... ... : ... .. 9 ... ... : ... .. 5 ... ... : ... .. D ... ...
ROW 9A : ... .. A ... ... ... : ... .. 6 ... ... ... : ... .. . ... : ... .. 6 ... : ... .. . ... ... : ... .. 8 ... ... : ... .. 4 ... ... : ... .. 8 ... ...
ROW 9B : ... .. 0 ... ... ... : ... .. 5 ... ... ... : ... .. . ... : ... .. 3 ... : ... .. . ... ... : --- .. . ... ... : ... .. . ... ... : ... .. . ... ...
ROW 9C : D-3 00 C P80 ... ... : B-3 00 9 ... ... ... : ... .. . ... : ... .. F ... : ... .. . ... ... : G#4 01 A ... ... : B-2 01 6 ... ... : ... .. . ... ...
ROW 9D : ... .. B ... ... ... : ... .. 8 ... ... ... : ... .. . ... : ... .. C ... : ... .. . ... ... : ... .. 9 ... ... : ... .. 5 ... ... : ... .. . ... ...
ROW 9E : ... .. A ... ... ... : ... .. 7 ... ... ... : ... .. . ... : ... .. 6 ... : ... .. . ... ... : ... .. 8 ... ... : ... .. 4 ... ... : ... .. . ... ...
ROW 9F : ... .. 0 ... ... ... : ... .. 6 ... ... ... : --- .. . ... : ... .. 3 ... : ... .. . ... ... : --- .. . ... ... : ... .. . ... ... : --- .. . ... ...
ROW A0 : D#3 00 C P80 ... ... : C-4 00 9 ... ... ... : C-4 00 . ... : 7-# 00 F ... : ... .. . ... ... : A-4 01 A ... ... : F#3 01 6 ... ... : C-2 01 F ... ...
ROW A1 : ... .. B ... ... ... : ... .. 8 ... ... ... : ... .. . ... : ... .. C ... : ... .. . ... ... : ... .. 9 ... ... : ... .. 5 ... ... : ... .. D ... ...
ROW A2 : ... .. A ... ... ... : ... .. . ... ... ... : ... .. . ... : ... .. 6 ... : ... .. . ... ... : ... .. 8 ... ... : ... .. 4 ... ... : ... .. 8 ... ...
ROW A3 : ... .. 0 ... ... ... : ... .. 6 ... ... ... : ... .. . ... : ... .. 3 ... : ... .. . ... ... : --- .. . ... ... : ... .. . ... ... : ... .. . ... ...
ROW A4 : D#3 00 C P80 ... ... : D-4 00 A ... ... ... : ... .. . ... : ... .. F ... : ... .. . ... ... : A-4 01 A ... ... : F-3 01 6 ... ... : ... .. . ... ...
ROW A5 : ... .. B ... ... ... : ... .. 9 ... ... ... : ... .. . ... : ... .. C ... : ... .. . ... ... : ... .. 9 ... ... : ... .. 5 ... ... : ... .. . ... ...
ROW A6 : ... .. A ... ... ... : ... .. 8 ... ... ... : ... .. . ... : ... .. 6 ... : ... .. . ... ... : ... .. 8 ... ... : ... .. 4 ... ... : ... .. . ... ...
ROW A7 : ... .. 0 ... ... ... : ... .. 6 ... ... ... : ... .. . ... : ... .. 3 ... : ... .. . ... ... : --- .. . ... ... : ... .. . ... ... : ... .. . ... ...
ROW A8 : F-3 00 C P80 ... ... : D#4 00 B ... ... ... : D-4 00 . P7E : 1-# 00 F ... : ... .. . ... ... : ... .. . ... ... : ... .. . ... ... : E-2 01 F P8C ...
ROW A9 : ... .. B ... ... ... : ... .. A ... ... ... : B-3 00 . P82 : ... .. C ... : ... .. . ... ... : ... .. . ... ... : ... .. 3 ... ... : ... .. D P6C ...
ROW AA : ... .. A ... ... ... : ... .. 9 ... ... ... : A-3 00 . P7E : ... .. 6 ... : ... .. . ... ... : ... .. . ... ... : ... .. . ... ... : D#2 01 8 P7A ...
ROW AB : ... .. 0 ... ... ... : ... .. 7 ... ... ... : G-3 00 . P7D : ... .. 3 ... : ... .. . ... ... : ... .. . ... ... : ... .. . ... ... : D-2 01 8 P8B ...
ROW AC : F-3 00 C P80 ... ... : F-4 00 B ... ... ... : F-3 00 . P80 : ... .. F ... : ... .. . ... ... : ... .. . ... ... : ... .. 1 ... ... : ... .. . P6B ...
ROW AD : ... .. B ... ... ... : ... .. A ... ... ... : D#3 00 . P88 : ... .. C ... : ... .. . ... ... : ... .. . ... ... : ... .. . ... ... : C#2 01 8 P7E ...
ROW AE : ... .. A ... ... ... : ... .. . ... ... ... : D-3 00 . P7D : ... .. 6 ... : ... .. . ... ... : ... .. . ... ... : ... .. . ... ... : C-2 01 8 P95 ...
ROW AF : ... .. 0 ... ... ... : ... .. 8 ... ... ... : C-3 00 . P8C : ... .. 3 ... : ... .. . ... ... : ... .. . ... ... : ... .. . ... ... : ... .. . P75 ...
ROW B0 : F#3 00 C P80 ... ... : F#4 00 C ... ... ... : D#3 00 . P80 : 4-# 00 F ... : ... .. . ... ... : C-4 01 A ... ... : C-4 01 A ... ... : D#1 01 F P80 ...
ROW B1 : ... .. B ... ... ... : ... .. B ... ... ... : ... .. . ... : ... .. C ... : ... .. . ... ... : ... .. 9 ... ... : ... .. 9 ... ... : ... .. D ... ...
ROW B2 : ... .. A ... ... ... : ... .. A ... ... ... : ... .. . ... : ... .. 6 ... : ... .. . ... ... : ... .. 8 ... ... : ... .. 8 ... ... : ... .. 8 ... ...
ROW B3 : ... .. 0 ... ... ... : ... .. 8 ... ... ... : ... .. . ... : ... .. 3 ... : ... .. . ... ... : ... .. 7 ... ... : ... .. 7 ... ... : ... .. . ... ...
ROW B4 : F#3 00 C P80 ... ... : G#4 00 D ... ... ... : ... .. . ... : ... .. F ... : ... .. . ... ... : ... .. . ... ... : ... .. . ... ... : ... .. . ... ...
ROW B5 : ... .. B ... ... ... : ... .. C ... ... ... : ... .. . ... : ... .. C ... : ... .. . ... ... : ... .. 6 ... ... : ... .. 6 ... ... : ... .. . ... ...
ROW B6 : ... .. A ... ... ... : ... .. B ... ... ... : ... .. . ... : ... .. 6 ... : ... .. . ... ... : ... .. . ... ... : ... .. . ... ... : ... .. . ... ...
ROW B7 : ... .. 0 ... ... ... : ... .. 8 ... ... ... : ... .. . ... : ... .. 3 ... : ... .. . ... ... : ... .. 5 ... ... : ... .. 5 ... ... : ... .. . ... ...
ROW B8 : G#3 00 C P80 ... ... : A-4 00 D ... ... ... : F#3 00 . P81 : 1-# 00 F ... : ... .. . ... ... : ... .. . ... ... : ... .. . ... ... : G#1 01 F P60 ...
ROW B9 : ... .. B ... ... ... : ... .. C ... ... ... : E-3 00 . P86 : ... .. C ... : ... .. . ... ... : ... .. . ... ... : ... .. . ... ... : G-1 01 D P8A ...
ROW BA : ... .. A ... ... ... : ... .. . ... ... ... : D#3 00 . P7B : ... .. 6 ... : ... .. . ... ... : ... .. . ... ... : ... .. . ... ... : ... .. 8 P6A ...
ROW BB : ... .. 0 ... ... ... : ... .. 9 ... ... ... : C#3 00 . P87 : ... .. 3 ... : ... .. . ... ... : ... .. . ... ... : ... .. . ... ... : F#1 01 8 P97 ...
ROW BC : G#3 00 C P80 ... ... : B-4 00 E ... ... ... : C-3 00 . P7F : ... .. F ... : ... .. . ... ... : ... .. . ... ... : ... .. . ... ... : ... .. . P77 ...
ROW BD : ... .. B ... ... ... : ... .. D ... ... ... : B-2 00 . P78 : ... .. C ... : ... .. . ... ... : ... .. . ... ... : ... .. . ... ... : F-1 01 8 PA9 ...
ROW BE : ... .. A ... ... ... : ... .. . ... ... ... : A#2 00 . P73 : ... .. 6 ... : ... .. . ... ... : ... .. . ... ... : ... .. . ... ... : ... .. . P89 ...
ROW BF : ... .. 0 ... ... ... : ... .. A ... ... ... : G#2 00 . P8E : ... .. 3 ... : ... .. . ... ... : ... .. . ... ... : ... .. . ... ... : ... .. . P69 ...
ROW C0 : A-3 00 C P80 ... ... : C-5 00 8 ... ... ... : E-5 00 . P80 : 9-# 00 D ... : ... .. . ... ... : ... .. A ... ... : ... .. A ... ... : E-3 01 F P76 ...
ROW C1 : ... .. B ... ... ... : ... .. 7 ... ... ... : F#4 00 . ... : ... .. B ... : ... .. . ... ... : ... .. 9 ... ... : ... .. 9 ... ... : D-3 01 D P85 ...
ROW C2 : ... .. A ... ... ... : ... .. . ... ... ... : B-3 00 . ... : ... .. . ... : ... .. . ... ... : ... .. 8 ... ... : ... .. 8 ... ... : C#3 01 8 P7F ...
ROW C3 : ... .. 8 ... ... ... : ... .. 6 ... ... ... : A#3 00 . ... : ... .. A ... : ... .. . ... ... : ... .. 7 ... ... : ... .. 7 ... ... : C-3 01 8 P7B ...
ROW C4 : ... .. . ... ... ... : A-4 00 8 ... ... ... : F-3 00 . ... : ... .. 8 ... : ... .. . ... ... : E-4 01 A P85 ... : E-4 01 A P83 ... : B-2 01 8 P78 ...
ROW C5 : ... .. . ... ... ... : ... .. 7 ... ... ... : ... .. . ... : ... .. 7 ... : ... .. . ... ... : A#4 01 9 P83 ... : A#4 01 9 P81 ... : A#2 01 8 P76 ...
ROW C6 : ... .. . ... ... ... : ... .. . ... ... ... : D#3 00 . P88 : ... .. 6 ... : ... .. . ... ... : C-5 01 8 P81 ... : C-5 01 8 P7F ... : A-2 01 8 P77 ...
ROW C7 : ... .. 1 ... ... ... : ... .. 6 ... ... ... : D-3 00 . P7D : ... .. . ... : ... .. . ... ... : ... .. 7 ... ... : ... .. 7 ... ... : G#2 01 8 P7A ...
ROW C8 : F-1 00 C ... ... ... : F-4 00 8 ... ... ... : C-3 00 . P8C : 1-# 00 F ... : ... .. . ... ... : ... .. . ... ... : ... .. . ... ... : G-2 01 8 P7E ...
ROW C9 : ... .. B ... ... ... : ... .. 7 ... ... ... : B-2 00 . P85 : ... .. C ... : ... .. . ... ... : ... .. 6 ... ... : ... .. 6 ... ... : F#2 01 8 P85 ...
ROW CA : ... .. A ... ... ... : ... .. . ... ... ... : A#2 00 . P80 : ... .. 6 ... : ... .. . ... ... : ... .. . ... ... : ... .. . ... ... : F-2 01 8 P8E ...
ROW CB : ... .. 8 ... ... ... : ... .. 6 ... ... ... : A-2 00 . P7C : ... .. 3 ... : ... .. . ... ... : ... .. 5 ... ... : ... .. 5 ... ... : ... .. . P6E ...
ROW CC : ... .. . ... ... ... : C-4 00 8 ... ... ... : G#2 00 . P7B : ... .. F ... : ... .. . ... ... : ... .. . ... ... : ... .. . ... ... : E-2 01 8 P7A ...
ROW CD : ... .. . ... ... ... : ... .. 7 ... ... ... : G-2 00 . ... : ... .. C ... : ... .. . ... ... : ... .. . ... ... : ... .. . ... ... : D#2 01 8 P88 ...
ROW CE : ... .. . ... ... ... : ... .. . ... ... ... : F#2 00 . P7D : ... .. 6 ... : ... .. . ... ... : ... .. . ... ... : ... .. . ... ... : ... .. . P68 ...
ROW CF : ... .. 1 ... ... ... : ... .. 6 ... ... ... : F-2 00 . P81 : ... .. 3 ... : ... .. . ... ... : ... .. . ... ... : ... .. . ... ... : D-2 01 8 P79 ...
ROW D0 : ... .. C ... ... ... : A-3 00 8 ... ... ... : F-4 00 . P80 : ... .. F ... : ... .. . ... ... : ... .. . ... ... : ... .. . ... ... : F-4 01 F P80 ...
ROW D1 : ... .. B ... ... ... : ... .. 7 ... ... ... : ... .. . ... : ... .. C ... : ... .. . ... ... : ... .. . ... ... : ... .. . ... ... : ... .. D ... ...
ROW D2 : ... .. A ... ... ... : ... .. . ... ... ... : ... .. . ... : ... .. 6 ... : ... .. . ... ... : ... .. . ... ... : ... .. . ... ... : ... .. 8 ... ...
ROW D3 : ... .. 8 ... ... ... : ... .. 6 ... ... ... : ... .. . ... : ... .. 3 ... : ... .. . ... ... : ... .. . ... ... : ... .. . ... ... : ... .. . ... ...
ROW D4 : ... .. . ... ... ... : F-3 00 8 ... ... ... : ... .. . ... : ... .. 2 ... : ... .. . ... ... : ... .. . ... ... : ... .. . ... ... : ... .. . ... ...
ROW D5 : ... .. . ... ... ... : ... .. 7 ... ... ... : ... .. . ... : ... .. 0 ... : ... .. . ... ... : ... .. . ... ... : ... .. . ... ... : ... .. . ... ...
ROW D6 : ... .. . ... ... ... : ... .. . ... ... ... : ... .. . ... : ... .. . ... : ... .. . ... ... : ... .. . ... ... : ... .. . ... ... : ... .. . ... ...
ROW D7 : ... .. 1 ... ... ... : ... .. 6 ... ... ... : ... .. . ... : ... .. . ... : ... .. . ... ... : ... .. . ... ... : ... .. . ... ... : ... .. . ... ...
ROW D8 : A-3 00 C ... ... ... : C-5 00 8 ... ... ... : E-4 00 . ... : 9-# 00 D ... : ... .. . ... ... : ... .. A P80 ... : ... .. A P7E ... : F-2 01 F ... ...
ROW D9 : ... .. B ... ... ... : ... .. 7 ... ... ... : F#3 00 . ... : ... .. B ... : ... .. . ... ... : ... .. 9 P7F ... : B-4 01 9 P83 ... : ... .. D ... ...
ROW DA : ... .. A ... ... ... : ... .. . ... ... ... : B-2 00 . ... : ... .. . ... : ... .. . ... ... : ... .. 8 P7E ... : ... .. 8 P82 ... : ... .. 8 ... ...
ROW DB : ... .. 8 ... ... ... : ... .. 6 ... ... ... : A#2 00 . ... : ... .. A ... : ... .. . ... ... : B-4 01 7 P83 ... : ... .. 7 P81 ... : ... .. . ... ...
ROW DC : ... .. . ... ... ... : A-4 00 8 ... ... ... : F-2 00 . ... : ... .. 8 ... : ... .. . ... ... : ... .. . P82 ... : ... .. . P80 ... : ... .. . ... ...
ROW DD : ... .. . ... ... ... : ... .. 7 ... ... ... : ... .. . ... : ... .. 7 ... : ... .. . ... ... : ... .. 6 P81 ... : ... .. 6 P7F ... : ... .. . ... ...
ROW DE : ... .. . ... ... ... : ... .. . ... ... ... : ... .. . ... : ... .. 6 ... : ... .. . ... ... : ... .. . ... ... : ... .. . ... ... : ... .. . ... ...
ROW DF : ... .. 1 ... ... ... : ... .. 6 ... ... ... : ... .. . ... : ... .. . ... : ... .. . ... ... : ... .. 5 ... ... : ... .. 5 ... ... : ... .. . ... ...
ROW E0 : F-1 00 C ... ... ... : F-4 00 8 ... ... ... : E-2 00 . P86 : 1-# 00 F ... : ... .. . ... ... : ... .. . ... ... : ... .. . ... ... : E-2 01 8 P8C ...
ROW E1 : ... .. B ... ... ... : ... .. 7 ... ... ... : D#2 00 . P8E : ... .. C ... : ... .. . ... ... : ... .. . ... ... : ... .. . ... ... : ... .. . P6C ...
ROW E2 : ... .. A ... ... ... : ... .. . ... ... ... : ... .. . P6E : ... .. 6 ... : ... .. . ... ... : ... .. . ... ... : ... .. . ... ... : D#2 01 8 P7A ...
ROW E3 : ... .. 8 ... ... ... : ... .. 6 ... ... ... : D-2 00 . P79 : ... .. 3 ... : ... .. . ... ... : ... .. . ... ... : ... .. . ... ... : D-2 01 8 P8B ...
ROW E4 : ... .. . ... ... ... : C-4 00 8 ... ... ... : C#2 00 . P86 : ... .. 2 ... : ... .. . ... ... : ... .. . ... ... : ... .. . ... ... : ... .. . P6B ...
ROW E5 : ... .. . ... ... ... : ... .. 7 ... ... ... : C-2 00 . P96 : ... .. 0 ... : ... .. . ... ... : ... .. . ... ... : ... .. . ... ... : C#2 01 8 P7E ...
ROW E6 : ... .. . ... ... ... : ... .. . ... ... ... : ... .. . P76 : ... .. . ... : ... .. . ... ... : ... .. . ... ... : ... .. . ... ... : C-2 01 8 P95 ...
ROW E7 : ... .. 1 ... ... ... : ... .. 6 ... ... ... : B-1 00 . P89 : ... .. . ... : ... .. . ... ... : ... .. . ... ... : ... .. . ... ... : ... .. . P75 ...
ROW E8 : ... .. C ... ... ... : A-3 00 8 ... ... ... : F-4 00 . P80 : ... .. F ... : ... .. . ... ... : ... .. . ... ... : ... .. . ... ... : F-4 01 F P80 ...
ROW E9 : ... .. B ... ... ... : ... .. 7 ... ... ... : ... .. . ... : ... .. C ... : ... .. . ... ... : ... .. . ... ... : ... .. . ... ... : ... .. D ... ...
ROW EA : ... .. A ... ... ... : ... .. . ... ... ... : ... .. . ... : ... .. 6 ... : ... .. . ... ... : ... .. . ... ... : ... .. . ... ... : ... .. 8 ... ...
ROW EB : ... .. 8 ... ... ... : ... .. 6 ... ... ... : ... .. . ... : ... .. 3 ... : ... .. . ... ... : ... .. . ... ... : ... .. . ... ... : ... .. . ... ...
ROW EC : ... .. . ... ... ... : F-3 00 8 ... ... ... : ... .. . ... : ... .. 2 ... : ... .. . ... ... : ... .. . ... ... : ... .. . ... ... : ... .. . ... ...
ROW ED : ... .. . ... ... ... : ... .. 7 ... ... ... : ... .. . ... : ... .. 0 ... : ... .. . ... ... : ... .. . ... ... : ... .. . ... ... : ... .. . ... ...
ROW EE : ... .. . ... ... ... : ... .. . ... ... ... : ... .. . ... : ... .. . ... : ... .. . ... ... : ... .. . ... ... : ... .. . ... ... : ... .. . ... ...
ROW EF : ... .. 1 ... ... ... : ... .. 6 ... ... ... : ... .. . ... : ... .. . ... : ... .. . ... ... : ... .. . ... ... : ... .. . ... ... : ... .. . ... ...
ROW F0 : G#3 00 C ... ... ... : C#5 00 8 ... ... ... : E-5 00 . ... : 9-# 00 D ... : ... .. . ... ... : A-4 01 A P7F ... : A-4 01 A P7D ... : F-3 01 F ... ...
ROW F1 : ... .. B ... ... ... : ... .. 7 ... ... ... : F#4 00 . ... : ... .. B ... : ... .. . ... ... : G-4 01 9 ... ... : G-4 01 9 ... ... : ... .. D ... ...
ROW F2 : ... .. A ... ... ... : ... .. . ... ... ... : B-3 00 . ... : ... .. . ... : ... .. . ... ... : F-4 01 8 P80 ... : F-4 01 8 P7E ... : ... .. 8 ... ...
ROW F3 : ... .. 8 ... ... ... : ... .. 6 ... ... ... : A#3 00 . ... : ... .. A ... : ... .. . ... ... : D#4 01 7 P84 ... : D#4 01 7 P82 ... : ... .. . ... ...
ROW F4 : ... .. . ... ... ... : B-4 00 8 ... ... ... : F-3 00 . ... : ... .. 8 ... : ... .. . ... ... : D-4 01 7 P7E ... : D-4 01 7 P7C ... : ... .. . ... ...
ROW F5 : ... .. . ... ... ... : ... .. 7 ... ... ... : ... .. . ... : ... .. 7 ... : ... .. . ... ... : C#4 01 6 P81 ... : C#4 01 6 P7F ... : ... .. . ... ...
ROW F6 : ... .. . ... ... ... : ... .. . ... ... ... : ... .. . ... : ... .. 6 ... : ... .. . ... ... : ... .. . ... ... : ... .. . ... ... : ... .. . ... ...
ROW F7 : ... .. 1 ... ... ... : ... .. 6 ... ... ... : ... .. . ... : ... .. . ... : ... .. . ... ... : ... .. 5 ... ... : ... .. 5 ... ... : ... .. . ... ...
ROW F8 : F-1 00 C ... ... ... : F-4 00 8 ... ... ... : ... .. . ... : 1-# 00 F ... : ... .. . ... ... : ... .. . ... ... : ... .. . ... ... : ... .. . ... ...
ROW F9 : ... .. B ... ... ... : ... .. 7 ... ... ... : ... .. . ... : ... .. C ... : ... .. . ... ... : ... .. . ... ... : ... .. . ... ... : ... .. . ... ...
ROW FA : ... .. A ... ... ... : ... .. . ... ... ... : ... .. . ... : ... .. 6 ... : ... .. . ... ... : ... .. . ... ... : ... .. . ... ... : ... .. . ... ...
ROW FB : ... .. 8 ... ... ... : ... .. 6 ... ... ... : ... .. . ... : ... .. 3 ... : ... .. . ... ... : ... .. . ... ... : ... .. . ... ... : ... .. . ... ...
ROW FC : ... .. . ... ... ... : D#4 00 8 ... ... ... : ... .. . ... : ... .. 2 ... : ... .. . ... ... : ... .. . ... ... : ... .. . ... ... : ... .. . ... ...
ROW FD : ... .. . ... ... ... : ... .. 7 ... ... ... : ... .. . ... : ... .. 0 ... : ... .. . ... ... : ... .. . ... ... : ... .. . ... ... : ... .. . ... ...
ROW FE : ... .. . ... ... ... : ... .. . ... ... ... : ... .. . ... : ... .. . ... : ... .. . ... ... : ... .. . ... ... : ... .. . ... ... : ... .. . ... ...
ROW FF : ... .. 1 ... ... ... : ... .. 6 ... ... ... : ... .. . ... : ... .. . ... : ... .. . ... ... : ... .. . ... ... : ... .. . ... ... : ... .. . ... ...

PATTERN 17
ROW 00 : ... .. C ... ... ... : B-3 00 8 ... ... ... : D#3 00 . ... : ... .. F ... : ... .. . ... ... : ... .. . ... ... : ... .. . ... ... : D#3 01 F ... ...
ROW 01 : ... .. B ... ... ... : ... .. 7 ... ... ... : ... .. . ... : ... .. C ... : ... .. . ... ... : ... .. . ... ... : ... .. . ... ... : ... .. D ... ...
ROW 02 : ... .. A ... ... ... : ... .. . ... ... ... : ... .. . ... : ... .. 6 ... : ... .. . ... ... : ... .. . ... ... : ... .. . ... ... : ... .. 8 ... ...
ROW 03 : ... .. 8 ... ... ... : ... .. 6 ... ... ... : ... .. . ... : ... .. 3 ... : ... .. . ... ... : ... .. . ... ... : ... .. . ... ... : ... .. . ... ...
ROW 04 : ... .. . ... ... ... : A-3 00 8 ... ... ... : ... .. . ... : ... .. 2 ... : ... .. . ... ... : ... .. . P85 ... : ... .. . P83 ... : ... .. . ... ...
ROW 05 : ... .. . ... ... ... : ... .. 7 ... ... ... : ... .. . ... : ... .. 0 ... : ... .. . ... ... : D-4 01 5 P7B ... : ... .. . P85 ... : ... .. . ... ...
ROW 06 : ... .. . ... ... ... : ... .. . ... ... ... : ... .. . ... : ... .. . ... : ... .. . ... ... : C#4 01 5 P86 ... : ... .. . P84 ... : ... .. . ... ...
ROW 07 : ... .. 1 ... ... ... : ... .. 6 ... ... ... : ... .. . ... : ... .. . ... : ... .. . ... ... : ... .. . P83 ... : ... .. . P81 ... : ... .. . ... ...
ROW 08 : G#3 00 C ... ... ... : C#5 00 8 ... ... ... : E-4 00 . ... : 9-# 00 D ... : ... .. . ... ... : ... .. . P7F ... : ... .. . P7D ... : F-2 01 F ... ...
ROW 09 : ... .. B ... ... ... : ... .. 7 ... ... ... : F#3 00 . ... : ... .. B ... : ... .. . ... ... : ... .. . P7C ... : C-4 01 5 P86 ... : ... .. D ... ...
ROW 0A : ... .. A ... ... ... : ... .. . ... ... ... : B-2 00 . ... : ... .. . ... : ... .. . ... ... : ... .. . P7B ... : ... .. . P85 ... : ... .. 8 ... ...
ROW 0B : ... .. 8 ... ... ... : ... .. 6 ... ... ... : A#2 00 . ... : ... .. A ... : ... .. . ... ... : ... .. . P7D ... : C#4 01 5 P7B ... : ... .. . ... ...
ROW 0C : ... .. . ... ... ... : B-4 00 8 ... ... ... : F-2 00 . ... : ... .. 8 ... : ... .. . ... ... : ... .. . P81 ... : ... .. . P7F ... : ... .. . ... ...
ROW 0D : ... .. . ... ... ... : ... .. 7 ... ... ... : ... .. . ... : ... .. 7 ... : ... .. . ... ... : ... .. . P84 ... : ... .. . P82 ... : ... .. . ... ...
ROW 0E : ... .. . ... ... ... : ... .. . ... ... ... : ... .. . ... : ... .. 6 ... : ... .. . ... ... : D-4 01 5 P7B ... : ... .. . P85 ... : ... .. . ... ...
ROW 0F : ... .. 1 ... ... ... : ... .. 6 ... ... ... : ... .. . ... : ... .. . ... : ... .. . ... ... : ... .. . ... ... : ... .. . ... ... : ... .. . ... ...
ROW 10 : F-1 00 C ... ... ... : F-4 00 8 ... ... ... : D#2 00 . ... : 1-# 00 F ... : ... .. . ... ... : C#4 01 5 P83 ... : ... .. . P81 ... : D#2 01 F ... ...
ROW 11 : ... .. B ... ... ... : ... .. 7 ... ... ... : ... .. . ... : ... .. C ... : ... .. . ... ... : ... .. . P80 ... : ... .. . P7E ... : ... .. D ... ...
ROW 12 : ... .. A ... ... ... : ... .. . ... ... ... : ... .. . ... : ... .. 6 ... : ... .. . ... ... : ... .. . P7C ... : C-4 01 5 P86 ... : ... .. 8 ... ...
ROW 13 : ... .. 8 ... ... ... : ... .. 6 ... ... ... : ... .. . ... : ... .. 3 ... : ... .. . ... ... : ... .. . P7B ... : ... .. . P85 ... : ... .. . ... ...
ROW 14 : ... .. . ... ... ... : D#4 00 8 ... ... ... : ... .. . ... : ... .. 2 ... : ... .. . ... ... : ... .. . P7D ... : C#4 01 5 P7B ... : ... .. . ... ...
ROW 15 : ... .. . ... ... ... : ... .. 7 ... ... ... : ... .. . ... : ... .. 0 ... : ... .. . ... ... : ... .. . P81 ... : ... .. . P7F ... : ... .. . ... ...
ROW 16 : ... .. . ... ... ... : ... .. . ... ... ... : ... .. . ... : ... .. . ... : ... .. . ... ... : ... .. . ... ... : ... .. . ... ... : ... .. . ... ...
ROW 17 : ... .. 1 ... ... ... : ... .. 6 ... ... ... : ... .. . ... : ... .. . ... : ... .. . ... ... : ... .. . ... ... : ... .. . ... ... : ... .. . ... ...
ROW 18 : ... .. C ... ... ... : B-3 00 8 ... ... ... : F-2 00 . ... : 8-# 00 8 ... : ... .. . ... ... : A-3 01 A P85 ... : A-3 01 A P83 ... : F-2 01 F ... ...
ROW 19 : ... .. B ... ... ... : ... .. 7 ... ... ... : ... .. . ... : ... .. 6 ... : ... .. . ... ... : F#3 01 9 ... ... : F#3 01 9 ... ... : ... .. D ... ...
ROW 1A : ... .. A ... ... ... : ... .. . ... ... ... : ... .. . ... : ... .. 0 ... : ... .. . ... ... : F-3 01 8 P81 ... : F-3 01 8 P7F ... : ... .. 8 ... ...
ROW 1B : ... .. 8 ... ... ... : ... .. 6 ... ... ... : ... .. . ... : ... .. . ... : ... .. . ... ... : ... .. 7 ... ... : ... .. 7 ... ... : ... .. . ... ...
ROW 1C : ... .. . ... ... ... : A-3 00 8 ... ... ... : ... .. . ... : ... .. 8 ... : ... .. . ... ... : ... .. . ... ... : ... .. . ... ... : ... .. . ... ...
ROW 1D : ... .. . ... ... ... : ... .. 7 ... ... ... : ... .. . ... : ... .. 6 ... : ... .. . ... ... : ... .. 6 ... ... : ... .. 6 ... ... : ... .. . ... ...
ROW 1E : ... .. . ... ... ... : ... .. . ... ... ... : ... .. . ... : ... .. 0 ... : ... .. . ... ... : ... .. . ... ... : ... .. . ... ... : ... .. . ... ...
ROW 1F : ... .. 1 ... ... ... : ... .. 6 ... ... ... : ... .. . ... : ... .. . ... : ... .. . ... ... : ... .. 5 ... ... : ... .. 5 ... ... : ... .. . ... ...
ROW 20 : A-3 00 C ... ... ... : C-5 00 8 ... ... ... : E-5 00 . ... : 9-# 00 D ... : ... .. . ... ... : G#3 01 A P7E ... : G#3 01 A P7C ... : F-3 01 F ... ...
ROW 21 : ... .. B ... ... ... : ... .. 7 ... ... ... : F#4 00 . ... : ... .. B ... : ... .. . ... ... : B-3 01 9 P83 ... : B-3 01 9 P81 ... : ... .. D ... ...
ROW 22 : ... .. A ... ... ... : ... .. . ... ... ... : B-3 00 . ... : ... .. . ... : ... .. . ... ... : C-4 01 8 P81 ... : C-4 01 8 P7F ... : ... .. 8 ... ...
ROW 23 : ... .. 8 ... ... ... : ... .. 6 ... ... ... : A#3 00 . ... : ... .. A ... : ... .. . ... ... : ... .. 7 ... ... : ... .. 7 ... ... : ... .. . ... ...
ROW 24 : ... .. . ... ... ... : A-4 00 8 ... ... ... : F-3 00 . ... : ... .. 8 ... : ... .. . ... ... : ... .. . ... ... : ... .. . ... ... : ... .. . ... ...
ROW 25 : ... .. . ... ... ... : ... .. 7 ... ... ... : ... .. . ... : ... .. 7 ... : ... .. . ... ... : ... .. 6 ... ... : ... .. 6 ... ... : ... .. . ... ...
ROW 26 : ... .. . ... ... ... : ... .. . ... ... ... : ... .. . ... : ... .. 6 ... : ... .. . ... ... : ... .. . ... ... : ... .. . ... ... : ... .. . ... ...
ROW 27 : ... .. 1 ... ... ... : ... .. 6 ... ... ... : ... .. . ... : ... .. . ... : ... .. . ... ... : ... .. 5 ... ... : ... .. 5 ... ... : ... .. . ... ...
ROW 28 : F-1 00 C ... ... ... : F-4 00 8 ... ... ... : D#3 00 . P88 : 1-# 00 F ... : ... .. . ... ... : ... .. . ... ... : ... .. . ... ... : E-3 01 8 P76 ...
ROW 29 : ... .. B ... ... ... : ... .. 7 ... ... ... : D-3 00 . P7D : ... .. C ... : ... .. . ... ... : ... .. . ... ... : ... .. . ... ... : D-3 01 8 P85 ...
ROW 2A : ... .. A ... ... ... : ... .. . ... ... ... : C-3 00 . P8C : ... .. 6 ... : ... .. . ... ... : ... .. . ... ... : ... .. . ... ... : C#3 01 8 P7F ...
ROW 2B : ... .. 8 ... ... ... : ... .. 6 ... ... ... : B-2 00 . P85 : ... .. 3 ... : ... .. . ... ... : ... .. . ... ... : ... .. . ... ... : C-3 01 8 P7B ...
ROW 2C : ... .. . ... ... ... : C-4 00 8 ... ... ... : A#2 00 . P80 : ... .. F ... : ... .. . ... ... : ... .. . ... ... : ... .. . ... ... : B-2 01 8 P78 ...
ROW 2D : ... .. . ... ... ... : ... .. 7 ... ... ... : A-2 00 . P7C : ... .. C ... : ... .. . ... ... : ... .. . ... ... : ... .. . ... ... : A#2 01 8 P76 ...
ROW 2E : ... .. . ... ... ... : ... .. . ... ... ... : G#2 00 . P7B : ... .. 6 ... : ... .. . ... ... : ... .. . ... ... : ... .. . ... ... : A-2 01 8 P77 ...
ROW 2F : ... .. 1 ... ... ... : ... .. 6 ... ... ... : G-2 00 . ... : ... .. 3 ... : ... .. . ... ... : ... .. . ... ... : ... .. . ... ... : G#2 01 8 P7A ...
ROW 30 : ... .. C ... ... ... : A-3 00 8 ... ... ... : F-4 00 . P80 : ... .. F ... : ... .. . ... ... : C#4 01 A P85 ... : C#4 01 A P83 ... : F-4 01 F P80 ...
ROW 31 : ... .. B ... ... ... : ... .. 7 ... ... ... : ... .. . ... : ... .. C ... : ... .. . ... ... : D#4 01 9 P7F ... : D#4 01 9 P7D ... : ... .. D ... ...
ROW 32 : ... .. A ... ... ... : ... .. . ... ... ... : ... .. . ... : ... .. 6 ... : ... .. . ... ... : E-4 01 8 P85 ... : E-4 01 8 P83 ... : ... .. 8 ... ...
ROW 33 : ... .. 8 ... ... ... : ... .. 6 ... ... ... : ... .. . ... : ... .. 3 ... : ... .. . ... ... : F#4 01 7 P82 ... : F#4 01 7 P80 ... : ... .. . ... ...
ROW 34 : ... .. . ... ... ... : F-3 00 8 ... ... ... : ... .. . ... : ... .. 2 ... : ... .. . ... ... : G#4 01 7 ... ... : G#4 01 7 ... ... : ... .. . ... ...
ROW 35 : ... .. . ... ... ... : ... .. 7 ... ... ... : ... .. . ... : ... .. 0 ... : ... .. . ... ... : A#4 01 6 P83 ... : A#4 01 6 P81 ... : ... .. . ... ...
ROW 36 : ... .. . ... ... ... : ... .. . ... ... ... : ... .. . ... : ... .. . ... : ... .. . ... ... : C-5 01 6 P81 ... : C-5 01 6 P7F ... : ... .. . ... ...
ROW 37 : ... .. 1 ... ... ... : ... .. 6 ... ... ... : ... .. . ... : ... .. . ... : ... .. . ... ... : ... .. 5 ... ... : ... .. 5 ... ... : ... .. . ... ...
ROW 38 : A-3 00 C ... ... ... : C-5 00 8 ... ... ... : E-4 00 . ... : 9-# 00 D ... : ... .. . ... ... : ... .. . ... ... : ... .. . ... ... : F-2 01 F ... ...
ROW 39 : ... .. B ... ... ... : ... .. 7 ... ... ... : F#3 00 . ... : ... .. B ... : ... .. . ... ... : ... .. . ... ... : ... .. . ... ... : ... .. D ... ...
ROW 3A : ... .. A ... ... ... : ... .. . ... ... ... : B-2 00 . ... : ... .. . ... : ... .. . ... ... : ... .. . ... ... : ... .. . ... ... : ... .. 8 ... ...
ROW 3B : ... .. 8 ... ... ... : ... .. 6 ... ... ... : A#2 00 . ... : ... .. A ... : ... .. . ... ... : ... .. . ... ... : ... .. . ... ... : ... .. . ... ...
ROW 3C : ... .. . ... ... ... : A-4 00 8 ... ... ... : F-2 00 . ... : ... .. 8 ... : ... .. . ... ... : ... .. . ... ... : ... .. . ... ... : ... .. . ... ...
ROW 3D : ... .. . ... ... ... : ... .. 7 ... ... ... : ... .. . ... : ... .. 7 ... : ... .. . ... ... : ... .. . ... ... : ... .. . ... ... : ... .. . ... ...
ROW 3E : ... .. . ... ... ... : ... .. . ... ... ... : ... .. . ... : ... .. 6 ... : ... .. . ... ... : ... .. . ... ... : ... .. . ... ... : ... .. . ... ...
ROW 3F : ... .. 1 ... ... ... : ... .. 6 ... ... ... : ... .. . ... : ... .. . ... : ... .. . ... ... : ... .. . ... ... : ... .. . ... ... : ... .. . ... ...
ROW 40 : F-1 00 C ... ... ... : F-4 00 8 ... ... ... : E-2 00 . P86 : 1-# 00 F ... : ... .. . ... ... : ... .. . ... ... : ... .. . ... ... : E-2 01 8 P8C ...
ROW 41 : ... .. B ... ... ... : ... .. 7 ... ... ... : D#2 00 . P8E : ... .. C ... : ... .. . ... ... : ... .. . ... ... : ... .. . ... ... : ... .. . P6C ...
ROW 42 : ... .. A ... ... ... : ... .. . ... ... ... : ... .. . P6E : ... .. 6 ... : ... .. . ... ... : C#5 01 5 P7F ... : ... .. . P83 ... : D#2 01 8 P7A ...
ROW 43 : ... .. 8 ... ... ... : ... .. 6 ... ... ... : D-2 00 . P79 : ... .. 3 ... : ... .. . ... ... : ... .. . P81 ... : C#5 01 5 P7F ... : D-2 01 8 P8B ...
ROW 44 : ... .. . ... ... ... : C-4 00 8 ... ... ... : C#2 00 . P86 : ... .. 2 ... : ... .. . ... ... : ... .. . P80 ... : ... .. . P7E ... : ... .. . P6B ...
ROW 45 : ... .. . ... ... ... : ... .. 7 ... ... ... : C-2 00 . P96 : ... .. 0 ... : ... .. . ... ... : C-5 01 5 P83 ... : C-5 01 5 P81 ... : C#2 01 8 P7E ...
ROW 46 : ... .. . ... ... ... : ... .. . ... ... ... : ... .. . P76 : ... .. . ... : ... .. . ... ... : ... .. . P7F ... : B-4 01 5 P83 ... : C-2 01 8 P95 ...
ROW 47 : ... .. 1 ... ... ... : ... .. 6 ... ... ... : B-1 00 . P89 : ... .. . ... : ... .. . ... ... : B-4 01 5 P82 ... : ... .. . P80 ... : ... .. . P75 ...
ROW 48 : ... .. C ... ... ... : A-3 00 8 ... ... ... : F-4 00 . P80 : ... .. F ... : ... .. . ... ... : ... .. . P81 ... : ... .. . P7F ... : F-4 01 F P80 ...
ROW 49 : ... .. B ... ... ... : ... .. 7 ... ... ... : ... .. . ... : ... .. C ... : ... .. . ... ... : ... .. . P83 ... : ... .. . P81 ... : ... .. D ... ...
ROW 4A : ... .. A ... ... ... : ... .. . ... ... ... : ... .. . ... : ... .. 6 ... : ... .. . ... ... : C-5 01 5 P81 ... : C-5 01 5 P7F ... : ... .. 8 ... ...
ROW 4B : ... .. 8 ... ... ... : ... .. 6 ... ... ... : ... .. . ... : ... .. 3 ... : ... .. . ... ... : C#5 01 5 P7E ... : ... .. . P82 ... : ... .. . ... ...
ROW 4C : ... .. . ... ... ... : F-3 00 8 ... ... ... : ... .. . ... : ... .. 2 ... : ... .. . ... ... : ... .. . P81 ... : C#5 01 5 P7F ... : ... .. . ... ...
ROW 4D : ... .. . ... ... ... : ... .. 7 ... ... ... : ... .. . ... : ... .. 0 ... : ... .. . ... ... : ... .. . ... ... : ... .. . ... ... : ... .. . ... ...
ROW 4E : ... .. . ... ... ... : ... .. . ... ... ... : ... .. . ... : ... .. . ... : ... .. . ... ... : C-5 01 5 P83 ... : C-5 01 5 P81 ... : ... .. . ... ...
ROW 4F : ... .. 1 ... ... ... : ... .. 6 ... ... ... : ... .. . ... : ... .. . ... : ... .. . ... ... : ... .. . P80 ... : ... .. . P7E ... : ... .. . ... ...
ROW 50 : G#3 00 C ... ... ... : C#5 00 8 ... ... ... : E-5 00 . ... : 9-# 00 D ... : ... .. . ... ... : A#4 01 A P7E ... : A-4 01 A P83 ... : F-3 01 F ... ...
ROW 51 : ... .. B ... ... ... : ... .. 7 ... ... ... : F#4 00 . ... : ... .. B ... : ... .. . ... ... : G#4 01 9 P7D ... : G-4 01 9 ... ... : ... .. D ... ...
ROW 52 : ... .. A ... ... ... : ... .. . ... ... ... : B-3 00 . ... : ... .. . ... : ... .. . ... ... : F#4 01 8 ... ... : F-4 01 8 P84 ... : ... .. 8 ... ...
ROW 53 : ... .. 8 ... ... ... : ... .. 6 ... ... ... : A#3 00 . ... : ... .. A ... : ... .. . ... ... : F-4 01 7 P81 ... : ... .. 7 P7F ... : ... .. . ... ...
ROW 54 : ... .. . ... ... ... : B-4 00 8 ... ... ... : F-3 00 . ... : ... .. 8 ... : ... .. . ... ... : ... .. . ... ... : ... .. . ... ... : ... .. . ... ...
ROW 55 : ... .. . ... ... ... : ... .. 7 ... ... ... : ... .. . ... : ... .. 7 ... : ... .. . ... ... : ... .. 6 ... ... : ... .. 6 ... ... : ... .. . ... ...
ROW 56 : ... .. . ... ... ... : ... .. . ... ... ... : ... .. . ... : ... .. 6 ... : ... .. . ... ... : ... .. . ... ... : ... .. . ... ... : ... .. . ... ...
ROW 57 : ... .. 1 ... ... ... : ... .. 6 ... ... ... : ... .. . ... : ... .. . ... : ... .. . ... ... : ... .. 5 ... ... : ... .. 5 ... ... : ... .. . ... ...
ROW 58 : F-1 00 C ... ... ... : F-4 00 8 ... ... ... : ... .. . ... : 1-# 00 F ... : ... .. . ... ... : ... .. . ... ... : ... .. . ... ... : ... .. . ... ...
ROW 59 : ... .. B ... ... ... : ... .. 7 ... ... ... : ... .. . ... : ... .. C ... : ... .. . ... ... : ... .. . ... ... : ... .. . ... ... : ... .. . ... ...
ROW 5A : ... .. A ... ... ... : ... .. . ... ... ... : ... .. . ... : ... .. 6 ... : ... .. . ... ... : ... .. . ... ... : ... .. . ... ... : ... .. . ... ...
ROW 5B : ... .. 8 ... ... ... : ... .. 6 ... ... ... : ... .. . ... : ... .. 3 ... : ... .. . ... ... : ... .. . ... ... : ... .. . ... ... : ... .. . ... ...
ROW 5C : ... .. . ... ... ... : D#4 00 8 ... ... ... : ... .. . ... : ... .. 2 ... : ... .. . ... ... : ... .. . ... ... : ... .. . ... ... : ... .. . ... ...
ROW 5D : ... .. . ... ... ... : ... .. 7 ... ... ... : ... .. . ... : ... .. 0 ... : ... .. . ... ... : ... .. . ... ... : ... .. . ... ... : ... .. . ... ...
ROW 5E : ... .. . ... ... ... : ... .. . ... ... ... : ... .. . ... : ... .. . ... : ... .. . ... ... : ... .. . ... ... : ... .. . ... ... : ... .. . ... ...
ROW 5F : ... .. 1 ... ... ... : ... .. 6 ... ... ... : ... .. . ... : ... .. . ... : ... .. . ... ... : ... .. . ... ... : ... .. . ... ... : ... .. . ... ...
ROW 60 : G#3 00 C ... ... ... : F-5 00 8 ... ... ... : D#3 00 . ... : 9-# 00 D ... : ... .. . ... ... : G-4 01 A P80 ... : G-4 01 A P7E ... : D#3 01 F ... ...
ROW 61 : ... .. B ... ... ... : ... .. 7 ... ... ... : ... .. . ... : ... .. B ... : ... .. . ... ... : A-4 01 9 ... ... : A-4 01 9 ... ... : ... .. D ... ...
ROW 62 : ... .. A ... ... ... : ... .. . ... ... ... : ... .. . ... : ... .. . ... : ... .. . ... ... : B-4 01 8 P82 ... : B-4 01 8 P80 ... : ... .. 8 ... ...
ROW 63 : ... .. 8 ... ... ... : ... .. 6 ... ... ... : ... .. . ... : ... .. A ... : ... .. . ... ... : D-5 01 7 P80 ... : D-5 01 7 P7E ... : ... .. . ... ...
ROW 64 : ... .. . ... ... ... : D#5 00 8 ... ... ... : ... .. . ... : ... .. 8 ... : ... .. . ... ... : F-5 01 7 P81 ... : F-5 01 7 P7F ... : ... .. . ... ...
ROW 65 : ... .. . ... ... ... : ... .. 7 ... ... ... : ... .. . ... : ... .. 7 ... : ... .. . ... ... : ... .. 6 ... ... : ... .. 6 ... ... : ... .. . ... ...
ROW 66 : ... .. . ... ... ... : ... .. . ... ... ... : ... .. . ... : ... .. 6 ... : ... .. . ... ... : ... .. . ... ... : ... .. . ... ... : ... .. . ... ...
ROW 67 : ... .. 1 ... ... ... : ... .. 6 ... ... ... : ... .. . ... : ... .. . ... : ... .. . ... ... : ... .. 5 ... ... : ... .. 5 ... ... : ... .. . ... ...
ROW 68 : F-1 00 C ... ... ... : B-4 00 8 ... ... ... : D#4 00 . ... : 2-# 00 F ... : ... .. . ... ... : ... .. . ... ... : ... .. . ... ... : D#4 01 F ... ...
ROW 69 : ... .. B ... ... ... : ... .. 7 ... ... ... : ... .. . ... : ... .. C ... : ... .. . ... ... : ... .. . ... ... : ... .. . ... ... : ... .. D ... ...
ROW 6A : ... .. A ... ... ... : ... .. . ... ... ... : ... .. . ... : ... .. 6 ... : ... .. . ... ... : ... .. . ... ... : ... .. . ... ... : ... .. 8 ... ...
ROW 6B : ... .. 8 ... ... ... : ... .. 6 ... ... ... : ... .. . ... : ... .. 3 ... : ... .. . ... ... : ... .. . ... ... : ... .. . ... ... : ... .. . ... ...
ROW 6C : ... .. . ... ... ... : A-4 00 8 ... ... ... : ... .. . ... : ... .. F ... : ... .. . ... ... : ... .. . ... ... : ... .. . ... ... : ... .. . ... ...
ROW 6D : ... .. . ... ... ... : ... .. 7 ... ... ... : ... .. . ... : ... .. C ... : ... .. . ... ... : ... .. . ... ... : ... .. . ... ... : ... .. . ... ...
ROW 6E : ... .. . ... ... ... : ... .. . ... ... ... : ... .. . ... : ... .. 6 ... : ... .. . ... ... : ... .. . ... ... : ... .. . ... ... : ... .. . ... ...
ROW 6F : ... .. 1 ... ... ... : ... .. 6 ... ... ... : ... .. . ... : ... .. 3 ... : ... .. . ... ... : ... .. . ... ... : ... .. . ... ... : ... .. . ... ...
ROW 70 : A-3 00 C ... ... ... : F-4 00 8 ... ... ... : E-5 00 . ... : 9-# 00 D ... : ... .. . ... ... : F#5 01 5 P7F ... : ... .. . P81 ... : F-3 01 F ... ...
ROW 71 : ... .. B ... ... ... : ... .. 7 ... ... ... : F#4 00 . ... : ... .. B ... : ... .. . ... ... : ... .. . P80 ... : ... .. . P82 ... : ... .. D ... ...
ROW 72 : ... .. A ... ... ... : ... .. . ... ... ... : B-3 00 . ... : ... .. . ... : ... .. . ... ... : ... .. . ... ... : ... .. . ... ... : ... .. 8 ... ...
ROW 73 : ... .. 8 ... ... ... : ... .. 6 ... ... ... : A#3 00 . ... : ... .. A ... : ... .. . ... ... : F-5 01 5 P82 ... : ... .. . P80 ... : ... .. . ... ...
ROW 74 : ... .. . ... ... ... : D#4 00 8 ... ... ... : F-3 00 . ... : ... .. 8 ... : ... .. . ... ... : ... .. . P80 ... : ... .. . P7E ... : ... .. . ... ...
ROW 75 : ... .. . ... ... ... : ... .. 7 ... ... ... : ... .. . ... : ... .. 7 ... : ... .. . ... ... : ... .. . P7E ... : E-5 01 5 P81 ... : ... .. . ... ...
ROW 76 : ... .. . ... ... ... : ... .. . ... ... ... : ... .. . ... : ... .. 6 ... : ... .. . ... ... : ... .. . ... ... : ... .. . ... ... : ... .. . ... ...
ROW 77 : ... .. 1 ... ... ... : ... .. 6 ... ... ... : ... .. . ... : ... .. . ... : ... .. . ... ... : ... .. . P7F ... : ... .. . P82 ... : ... .. . ... ...
ROW 78 : F-1 00 C ... ... ... : B-3 00 8 ... ... ... : D#3 00 . P88 : 1-# 00 F ... : ... .. . ... ... : ... .. . P81 ... : F-5 01 5 P7F ... : E-3 01 8 P76 ...
ROW 79 : ... .. B ... ... ... : ... .. 7 ... ... ... : D-3 00 . P7D : ... .. C ... : ... .. . ... ... : F#5 01 5 P7F ... : ... .. . P81 ... : D-3 01 8 P85 ...
ROW 7A : ... .. A ... ... ... : ... .. . ... ... ... : C-3 00 . P8C : ... .. 6 ... : ... .. . ... ... : ... .. . P80 ... : ... .. . P82 ... : C#3 01 8 P7F ...
ROW 7B : ... .. 8 ... ... ... : ... .. 6 ... ... ... : B-2 00 . P85 : ... .. 3 ... : ... .. . ... ... : ... .. . ... ... : ... .. . ... ... : C-3 01 8 P7B ...
ROW 7C : ... .. . ... ... ... : A-3 00 8 ... ... ... : A#2 00 . P80 : ... .. F ... : ... .. . ... ... : F-5 01 5 P82 ... : ... .. . P80 ... : B-2 01 8 P78 ...
ROW 7D : ... .. . ... ... ... : ... .. 7 ... ... ... : A-2 00 . P7C : ... .. C ... : ... .. . ... ... : ... .. . P81 ... : ... .. . P7F ... : A#2 01 8 P76 ...
ROW 7E : ... .. . ... ... ... : ... .. . ... ... ... : G#2 00 . P7B : ... .. 6 ... : ... .. . ... ... : ... .. . P7E ... : E-5 01 5 P81 ... : A-2 01 8 P77 ...
ROW 7F : ... .. 1 ... ... ... : ... .. 6 ... ... ... : G-2 00 . ... : ... .. 3 ... : ... .. . ... ... : ... .. . ... ... : ... .. . ... ... : G#2 01 8 P7A ...
ROW 80 : ... .. C ... ... ... : F-3 00 8 ... ... ... : F-4 00 . P80 : ... .. F ... : ... .. . ... ... : ... .. . P7F ... : ... .. . P82 ... : F-4 01 F P80 ...
ROW 81 : ... .. B ... ... ... : ... .. 7 ... ... ... : ... .. . ... : ... .. C ... : ... .. . ... ... : ... .. . P81 ... : F-5 01 5 P7F ... : ... .. D ... ...
ROW 82 : ... .. A ... ... ... : ... .. . ... ... ... : ... .. . ... : ... .. 6 ... : ... .. . ... ... : ... .. . P82 ... : ... .. . P80 ... : ... .. 8 ... ...
ROW 83 : ... .. 8 ... ... ... : ... .. 6 ... ... ... : ... .. . ... : ... .. 3 ... : ... .. . ... ... : F#5 01 5 P80 ... : ... .. . P82 ... : ... .. . ... ...
ROW 84 : ... .. . ... ... ... : D#3 00 8 ... ... ... : ... .. . ... : ... .. 2 ... : ... .. . ... ... : ... .. . ... ... : ... .. . ... ... : ... .. . ... ...
ROW 85 : ... .. . ... ... ... : ... .. 7 ... ... ... : ... .. . ... : ... .. 0 ... : ... .. . ... ... : F-5 01 5 P82 ... : ... .. . P80 ... : ... .. . ... ...
ROW 86 : ... .. . ... ... ... : ... .. . ... ... ... : ... .. . ... : ... .. . ... : ... .. . ... ... : ... .. . P81 ... : ... .. . P7F ... : ... .. . ... ...
ROW 87 : ... .. 1 ... ... ... : ... .. 6 ... ... ... : ... .. . ... : ... .. . ... : ... .. . ... ... : ... .. . P7F ... : E-5 01 5 P82 ... : ... .. . ... ...
ROW 88 : A-3 00 C ... ... ... : B-2 00 8 ... ... ... : E-4 00 . ... : 9-# 00 D ... : ... .. . ... ... : ... .. . P7E ... : ... .. . P81 ... : F-2 01 F ... ...
ROW 89 : ... .. B ... ... ... : ... .. 7 ... ... ... : F#3 00 . ... : ... .. B ... : ... .. . ... ... : ... .. . ... ... : ... .. . ... ... : ... .. D ... ...
ROW 8A : ... .. A ... ... ... : ... .. . ... ... ... : B-2 00 . ... : ... .. . ... : ... .. . ... ... : ... .. . P81 ... : F-5 01 5 P7F ... : ... .. 8 ... ...
ROW 8B : ... .. 8 ... ... ... : ... .. 6 ... ... ... : A#2 00 . ... : ... .. A ... : ... .. . ... ... : ... .. . P82 ... : ... .. . P80 ... : ... .. . ... ...
ROW 8C : ... .. . ... ... ... : A-2 00 8 ... ... ... : F-2 00 . ... : ... .. 8 ... : ... .. . ... ... : F#5 01 5 P80 ... : ... .. . P82 ... : ... .. . ... ...
ROW 8D : ... .. . ... ... ... : ... .. 7 ... ... ... : ... .. . ... : ... .. 7 ... : ... .. . ... ... : ... .. . ... ... : ... .. . ... ... : ... .. . ... ...
ROW 8E : ... .. . ... ... ... : ... .. . ... ... ... : ... .. . ... : ... .. 6 ... : ... .. . ... ... : ... .. . P7F ... : ... .. . P81 ... : ... .. . ... ...
ROW 8F : ... .. 1 ... ... ... : ... .. 6 ... ... ... : ... .. . ... : ... .. . ... : ... .. . ... ... : F-5 01 5 P81 ... : ... .. . P7F ... : ... .. . ... ...
ROW 90 : F-1 00 C ... ... ... : F-4 00 8 ... ... ... : E-2 00 . P86 : 1-# 00 F ... : ... .. . ... ... : ... .. . P7F ... : E-5 01 5 P82 ... : E-2 01 8 P8C ...
ROW 91 : ... .. B ... ... ... : ... .. 7 ... ... ... : D#2 00 . P8E : ... .. C ... : ... .. . ... ... : ... .. . P7E ... : ... .. . P81 ... : ... .. . P6C ...
ROW 92 : ... .. A ... ... ... : ... .. . ... ... ... : ... .. . P6E : ... .. 6 ... : ... .. . ... ... : ... .. . ... ... : ... .. . ... ... : D#2 01 8 P7A ...
ROW 93 : ... .. 8 ... ... ... : ... .. 6 ... ... ... : D-2 00 . P79 : ... .. 3 ... : ... .. . ... ... : ... .. . P80 ... : F-5 01 5 P7E ... : D-2 01 8 P8B ...
ROW 94 : ... .. . ... ... ... : D#4 00 8 ... ... ... : C#2 00 . P86 : ... .. 2 ... : ... .. . ... ... : ... .. . P82 ... : ... .. . P80 ... : ... .. . P6B ...
ROW 95 : ... .. . ... ... ... : ... .. 7 ... ... ... : C-2 00 . P96 : ... .. 0 ... : ... .. . ... ... : F#5 01 5 P80 ... : ... .. . P82 ... : C#2 01 8 P7E ...
ROW 96 : ... .. . ... ... ... : ... .. . ... ... ... : ... .. . P76 : ... .. . ... : ... .. . ... ... : ... .. . ... ... : ... .. . ... ... : C-2 01 8 P95 ...
ROW 97 : ... .. 1 ... ... ... : ... .. 6 ... ... ... : B-1 00 . P89 : ... .. . ... : ... .. . ... ... : ... .. . P7F ... : ... .. . P81 ... : ... .. . P75 ...
ROW 98 : ... .. C ... ... ... : B-3 00 8 ... ... ... : F-4 00 . P80 : ... .. F ... : ... .. . ... ... : F-5 01 5 P81 ... : ... .. . P7F ... : F-4 01 F P80 ...
ROW 99 : ... .. B ... ... ... : ... .. 7 ... ... ... : ... .. . ... : ... .. C ... : ... .. . ... ... : ... .. . P7F ... : E-5 01 5 P82 ... : ... .. D ... ...
ROW 9A : ... .. A ... ... ... : ... .. . ... ... ... : ... .. . ... : ... .. 6 ... : ... .. . ... ... : ... .. . P7E ... : ... .. . P81 ... : ... .. 8 ... ...
ROW 9B : ... .. 8 ... ... ... : ... .. 6 ... ... ... : ... .. . ... : ... .. 3 ... : ... .. . ... ... : ... .. . ... ... : ... .. . ... ... : ... .. . ... ...
ROW 9C : ... .. . ... ... ... : A-3 00 8 ... ... ... : ... .. . ... : ... .. 2 ... : ... .. . ... ... : ... .. . P80 ... : F-5 01 5 P7E ... : ... .. . ... ...
ROW 9D : ... .. . ... ... ... : ... .. 7 ... ... ... : ... .. . ... : ... .. 0 ... : ... .. . ... ... : ... .. . P81 ... : ... .. . P7F ... : ... .. . ... ...
ROW 9E : ... .. . ... ... ... : ... .. . ... ... ... : ... .. . ... : ... .. . ... : ... .. . ... ... : F#5 01 5 P80 ... : ... .. . P82 ... : ... .. . ... ...
ROW 9F : ... .. 1 ... ... ... : ... .. 6 ... ... ... : ... .. . ... : ... .. . ... : ... .. . ... ... : ... .. . ... ... : ... .. . ... ... : ... .. . ... ...
ROW A0 : G#3 00 C ... ... ... : G#4 00 8 ... ... ... : E-5 00 . ... : 9-# 00 D ... : ... .. . ... ... : D#5 01 A P81 ... : D#5 01 A P7F ... : F-3 01 F ... ...
ROW A1 : ... .. B ... ... ... : ... .. 7 ... ... ... : F#4 00 . ... : ... .. B ... : ... .. . ... ... : ... .. 9 ... ... : ... .. 9 ... ... : ... .. D ... ...
ROW A2 : ... .. A ... ... ... : ... .. . ... ... ... : B-3 00 . ... : ... .. . ... : ... .. . ... ... : ... .. 8 ... ... : ... .. 8 ... ... : ... .. 8 ... ...
ROW A3 : ... .. 8 ... ... ... : ... .. 6 ... ... ... : A#3 00 . ... : ... .. A ... : ... .. . ... ... : ... .. 7 ... ... : ... .. 7 ... ... : ... .. . ... ...
ROW A4 : ... .. . ... ... ... : F#4 00 8 ... ... ... : F-3 00 . ... : ... .. 8 ... : ... .. . ... ... : ... .. . ... ... : ... .. . ... ... : ... .. . ... ...
ROW A5 : ... .. . ... ... ... : ... .. 7 ... ... ... : ... .. . ... : ... .. 7 ... : ... .. . ... ... : ... .. 6 ... ... : ... .. 6 ... ... : ... .. . ... ...
ROW A6 : ... .. . ... ... ... : ... .. . ... ... ... : ... .. . ... : ... .. 6 ... : ... .. . ... ... : ... .. . ... ... : ... .. . ... ... : ... .. . ... ...
ROW A7 : ... .. 1 ... ... ... : ... .. 6 ... ... ... : ... .. . ... : ... .. . ... : ... .. . ... ... : ... .. 5 ... ... : ... .. 5 ... ... : ... .. . ... ...
ROW A8 : F-1 00 C ... ... ... : D#4 00 8 ... ... ... : ... .. . ... : 1-# 00 F ... : ... .. . ... ... : E-5 01 A ... ... : E-5 01 A ... ... : ... .. . ... ...
ROW A9 : ... .. B ... ... ... : ... .. 7 ... ... ... : ... .. . ... : ... .. C ... : ... .. . ... ... : F-5 01 9 ... ... : F-5 01 9 ... ... : ... .. . ... ...
ROW AA : ... .. A ... ... ... : ... .. . ... ... ... : ... .. . ... : ... .. 6 ... : ... .. . ... ... : ... .. 8 ... ... : ... .. 8 ... ... : ... .. . ... ...
ROW AB : ... .. 8 ... ... ... : ... .. 6 ... ... ... : ... .. . ... : ... .. 3 ... : ... .. . ... ... : ... .. 7 ... ... : ... .. 7 ... ... : ... .. . ... ...
ROW AC : ... .. . ... ... ... : B-3 00 8 ... ... ... : ... .. . ... : ... .. 2 ... : ... .. . ... ... : ... .. . ... ... : ... .. . ... ... : ... .. . ... ...
ROW AD : ... .. . ... ... ... : ... .. 7 ... ... ... : ... .. . ... : ... .. 0 ... : ... .. . ... ... : ... .. 6 ... ... : ... .. 6 ... ... : ... .. . ... ...
ROW AE : ... .. . ... ... ... : ... .. . ... ... ... : ... .. . ... : ... .. . ... : ... .. . ... ... : ... .. . ... ... : ... .. . ... ... : ... .. . ... ...
ROW AF : ... .. 1 ... ... ... : ... .. 6 ... ... ... : ... .. . ... : ... .. . ... : ... .. . ... ... : ... .. 5 ... ... : ... .. 5 ... ... : ... .. . ... ...
ROW B0 : ... .. C ... ... ... : G#3 00 8 ... ... ... : D#3 00 . ... : ... .. F ... : ... .. . ... ... : F#5 01 A ... ... : F#5 01 A ... ... : D#3 01 F ... ...
ROW B1 : ... .. B ... ... ... : ... .. 7 ... ... ... : ... .. . ... : ... .. C ... : ... .. . ... ... : ... .. 9 ... ... : ... .. 9 ... ... : ... .. D ... ...
ROW B2 : ... .. A ... ... ... : ... .. . ... ... ... : ... .. . ... : ... .. 6 ... : ... .. . ... ... : ... .. 8 ... ... : ... .. 8 ... ... : ... .. 8 ... ...
ROW B3 : ... .. 8 ... ... ... : ... .. 6 ... ... ... : ... .. . ... : ... .. 3 ... : ... .. . ... ... : ... .. 7 ... ... : ... .. 7 ... ... : ... .. . ... ...
ROW B4 : ... .. . ... ... ... : D#3 00 8 ... ... ... : ... .. . ... : ... .. 2 ... : ... .. . ... ... : ... .. . ... ... : ... .. . ... ... : ... .. . ... ...
ROW B5 : ... .. . ... ... ... : ... .. 7 ... ... ... : ... .. . ... : ... .. 0 ... : ... .. . ... ... : ... .. 6 ... ... : ... .. 6 ... ... : ... .. . ... ...
ROW B6 : ... .. . ... ... ... : ... .. . ... ... ... : ... .. . ... : ... .. . ... : ... .. . ... ... : ... .. . ... ... : ... .. . ... ... : ... .. . ... ...
ROW B7 : ... .. 1 ... ... ... : ... .. 6 ... ... ... : ... .. . ... : ... .. . ... : ... .. . ... ... : ... .. 5 ... ... : ... .. 5 ... ... : ... .. . ... ...
ROW B8 : G#3 00 C ... ... ... : G#4 00 8 ... ... ... : E-4 00 . ... : 9-# 00 D ... : ... .. . ... ... : G-5 01 A ... ... : G-5 01 A ... ... : F-2 01 F ... ...
ROW B9 : ... .. B ... ... ... : ... .. 7 ... ... ... : F#3 00 . ... : ... .. B ... : ... .. . ... ... : G#5 01 9 ... ... : G#5 01 9 ... ... : ... .. D ... ...
ROW BA : ... .. A ... ... ... : ... .. . ... ... ... : B-2 00 . ... : ... .. . ... : ... .. . ... ... : ... .. 8 ... ... : ... .. 8 ... ... : ... .. 8 ... ...
ROW BB : ... .. 8 ... ... ... : ... .. 6 ... ... ... : A#2 00 . ... : ... .. A ... : ... .. . ... ... : ... .. 7 ... ... : ... .. 7 ... ... : ... .. . ... ...
ROW BC : ... .. . ... ... ... : F#4 00 8 ... ... ... : F-2 00 . ... : ... .. 8 ... : ... .. . ... ... : ... .. . ... ... : ... .. . ... ... : ... .. . ... ...
ROW BD : ... .. . ... ... ... : ... .. 7 ... ... ... : ... .. . ... : ... .. 7 ... : ... .. . ... ... : ... .. 6 ... ... : ... .. 6 ... ... : ... .. . ... ...
ROW BE : ... .. . ... ... ... : ... .. . ... ... ... : ... .. . ... : ... .. 6 ... : ... .. . ... ... : ... .. . ... ... : ... .. . ... ... : ... .. . ... ...
ROW BF : ... .. 1 ... ... ... : ... .. 6 ... ... ... : ... .. . ... : ... .. . ... : ... .. . ... ... : ... .. 5 ... ... : ... .. 5 ... ... : ... .. . ... ...
ROW C0 : F-1 00 C ... ... ... : D#4 00 8 ... ... ... : D#2 00 . ... : 1-# 00 F ... : ... .. . ... ... : G-5 01 A P80 ... : G-5 01 A P7E ... : D#2 01 F ... ...
ROW C1 : ... .. B ... ... ... : ... .. 7 ... ... ... : ... .. . ... : ... .. C ... : ... .. . ... ... : F#5 01 9 P81 ... : F#5 01 9 P7F ... : ... .. D ... ...
ROW C2 : ... .. A ... ... ... : ... .. . ... ... ... : ... .. . ... : ... .. 6 ... : ... .. . ... ... : ... .. 8 ... ... : ... .. 8 ... ... : ... .. 8 ... ...
ROW C3 : ... .. 8 ... ... ... : ... .. 6 ... ... ... : ... .. . ... : ... .. 3 ... : ... .. . ... ... : ... .. 7 ... ... : ... .. 7 ... ... : ... .. . ... ...
ROW C4 : ... .. . ... ... ... : B-3 00 8 ... ... ... : ... .. . ... : ... .. 2 ... : ... .. . ... ... : ... .. . ... ... : ... .. . ... ... : ... .. . ... ...
ROW C5 : ... .. . ... ... ... : ... .. 7 ... ... ... : ... .. . ... : ... .. 0 ... : ... .. . ... ... : ... .. 6 ... ... : ... .. 6 ... ... : ... .. . ... ...
ROW C6 : ... .. . ... ... ... : ... .. . ... ... ... : ... .. . ... : ... .. . ... : ... .. . ... ... : ... .. . ... ... : ... .. . ... ... : ... .. . ... ...
ROW C7 : ... .. 1 ... ... ... : ... .. 6 ... ... ... : ... .. . ... : ... .. . ... : ... .. . ... ... : ... .. 5 ... ... : ... .. 5 ... ... : ... .. . ... ...
ROW C8 : ... .. C ... ... ... : G#3 00 8 ... ... ... : F-2 00 . ... : 8-# 00 8 ... : ... .. . ... ... : F-5 01 A ... ... : F-5 01 A ... ... : F-2 01 F ... ...
ROW C9 : ... .. B ... ... ... : ... .. 7 ... ... ... : ... .. . ... : ... .. 6 ... : ... .. . ... ... : ... .. 9 ... ... : ... .. 9 ... ... : ... .. D ... ...
ROW CA : ... .. A ... ... ... : ... .. . ... ... ... : ... .. . ... : ... .. 0 ... : ... .. . ... ... : ... .. 8 ... ... : ... .. 8 ... ... : ... .. 8 ... ...
ROW CB : ... .. 8 ... ... ... : ... .. 6 ... ... ... : ... .. . ... : ... .. . ... : ... .. . ... ... : ... .. 7 ... ... : ... .. 7 ... ... : ... .. . ... ...
ROW CC : ... .. . ... ... ... : D#3 00 8 ... ... ... : ... .. . ... : ... .. 8 ... : ... .. . ... ... : ... .. . ... ... : ... .. . ... ... : ... .. . ... ...
ROW CD : ... .. . ... ... ... : ... .. 7 ... ... ... : ... .. . ... : ... .. 6 ... : ... .. . ... ... : ... .. 6 ... ... : ... .. 6 ... ... : ... .. . ... ...
ROW CE : ... .. . ... ... ... : ... .. . ... ... ... : ... .. . ... : ... .. 0 ... : ... .. . ... ... : ... .. . ... ... : ... .. . ... ... : ... .. . ... ...
ROW CF : ... .. 1 ... ... ... : ... .. 6 ... ... ... : ... .. . ... : ... .. . ... : ... .. . ... ... : ... .. 5 ... ... : ... .. 5 ... ... : ... .. . ... ...
ROW D0 : A-3 00 C ... ... ... : A-4 00 8 ... ... ... : E-5 00 . ... : 9-# 00 D ... : ... .. . ... ... : E-5 01 A ... ... : E-5 01 A ... ... : F-3 01 F ... ...
ROW D1 : ... .. B ... ... ... : ... .. 7 ... ... ... : F#4 00 . ... : ... .. B ... : ... .. . ... ... : D#5 01 9 ... ... : D#5 01 9 ... ... : ... .. D ... ...
ROW D2 : ... .. A ... ... ... : ... .. . ... ... ... : B-3 00 . ... : ... .. . ... : ... .. . ... ... : ... .. 8 ... ... : ... .. 8 ... ... : ... .. 8 ... ...
ROW D3 : ... .. 8 ... ... ... : ... .. 6 ... ... ... : A#3 00 . ... : ... .. A ... : ... .. . ... ... : ... .. 7 ... ... : ... .. 7 ... ... : ... .. . ... ...
ROW D4 : ... .. . ... ... ... : F-4 00 8 ... ... ... : F-3 00 . ... : ... .. 8 ... : ... .. . ... ... : ... .. . ... ... : ... .. . ... ... : ... .. . ... ...
ROW D5 : ... .. . ... ... ... : ... .. 7 ... ... ... : ... .. . ... : ... .. 7 ... : ... .. . ... ... : ... .. 6 ... ... : ... .. 6 ... ... : ... .. . ... ...
ROW D6 : ... .. . ... ... ... : ... .. . ... ... ... : ... .. . ... : ... .. 6 ... : ... .. . ... ... : ... .. . ... ... : ... .. . ... ... : ... .. . ... ...
ROW D7 : ... .. 1 ... ... ... : ... .. 6 ... ... ... : ... .. . ... : ... .. . ... : ... .. . ... ... : ... .. 5 ... ... : ... .. 5 ... ... : ... .. . ... ...
ROW D8 : F-1 00 C ... ... ... : C-4 00 8 ... ... ... : D#3 00 . P88 : 1-# 00 F ... : ... .. . ... ... : E-5 01 A ... ... : E-5 01 A ... ... : E-3 01 8 P76 ...
ROW D9 : ... .. B ... ... ... : ... .. 7 ... ... ... : D-3 00 . P7D : ... .. C ... : ... .. . ... ... : F-5 01 9 ... ... : F-5 01 9 ... ... : D-3 01 8 P85 ...
ROW DA : ... .. A ... ... ... : ... .. . ... ... ... : C-3 00 . P8C : ... .. 6 ... : ... .. . ... ... : ... .. 8 ... ... : ... .. 8 ... ... : C#3 01 8 P7F ...
ROW DB : ... .. 8 ... ... ... : ... .. 6 ... ... ... : B-2 00 . P85 : ... .. 3 ... : ... .. . ... ... : ... .. 7 ... ... : ... .. 7 ... ... : C-3 01 8 P7B ...
ROW DC : ... .. . ... ... ... : A-3 00 8 ... ... ... : A#2 00 . P80 : ... .. F ... : ... .. . ... ... : ... .. . ... ... : ... .. . ... ... : B-2 01 8 P78 ...
ROW DD : ... .. . ... ... ... : ... .. 7 ... ... ... : A-2 00 . P7C : ... .. C ... : ... .. . ... ... : ... .. 6 ... ... : ... .. 6 ... ... : A#2 01 8 P76 ...
ROW DE : ... .. . ... ... ... : ... .. . ... ... ... : G#2 00 . P7B : ... .. 6 ... : ... .. . ... ... : ... .. . ... ... : ... .. . ... ... : A-2 01 8 P77 ...
ROW DF : ... .. 1 ... ... ... : ... .. 6 ... ... ... : G-2 00 . ... : ... .. 3 ... : ... .. . ... ... : ... .. 5 ... ... : ... .. 5 ... ... : G#2 01 8 P7A ...
ROW E0 : ... .. C ... ... ... : F-3 00 8 ... ... ... : F-4 00 . P80 : ... .. F ... : ... .. . ... ... : E-5 01 A ... ... : E-5 01 A ... ... : F-4 01 F P80 ...
ROW E1 : ... .. B ... ... ... : ... .. 7 ... ... ... : ... .. . ... : ... .. C ... : ... .. . ... ... : D#5 01 9 ... ... : D#5 01 9 ... ... : ... .. D ... ...
ROW E2 : ... .. A ... ... ... : ... .. . ... ... ... : ... .. . ... : ... .. 6 ... : ... .. . ... ... : D-5 01 8 ... ... : D-5 01 8 ... ... : ... .. 8 ... ...
ROW E3 : ... .. 8 ... ... ... : ... .. 6 ... ... ... : ... .. . ... : ... .. 3 ... : ... .. . ... ... : C#5 01 7 P82 ... : C#5 01 7 P80 ... : ... .. . ... ...
ROW E4 : ... .. . ... ... ... : C-3 00 8 ... ... ... : ... .. . ... : ... .. 2 ... : ... .. . ... ... : C-5 01 7 P83 ... : C-5 01 7 P81 ... : ... .. . ... ...
ROW E5 : ... .. . ... ... ... : ... .. 7 ... ... ... : ... .. . ... : ... .. 0 ... : ... .. . ... ... : ... .. 6 P81 ... : ... .. 6 P7F ... : ... .. . ... ...
ROW E6 : ... .. . ... ... ... : ... .. . ... ... ... : ... .. . ... : ... .. . ... : ... .. . ... ... : ... .. . ... ... : ... .. . ... ... : ... .. . ... ...
ROW E7 : ... .. 1 ... ... ... : ... .. 6 ... ... ... : ... .. . ... : ... .. . ... : ... .. . ... ... : ... .. 5 ... ... : ... .. 5 ... ... : ... .. . ... ...
ROW E8 : A-3 00 C ... ... ... : A-4 00 8 ... ... ... : E-4 00 . ... : 9-# 00 D ... : ... .. . ... ... : ... .. . ... ... : ... .. . ... ... : F-2 01 F ... ...
ROW E9 : ... .. B ... ... ... : ... .. 7 ... ... ... : F#3 00 . ... : ... .. B ... : ... .. . ... ... : ... .. . ... ... : ... .. . ... ... : ... .. D ... ...
ROW EA : ... .. A ... ... ... : ... .. . ... ... ... : B-2 00 . ... : ... .. . ... : ... .. . ... ... : ... .. . ... ... : ... .. . ... ... : ... .. 8 ... ...
ROW EB : ... .. 8 ... ... ... : ... .. 6 ... ... ... : A#2 00 . ... : ... .. A ... : ... .. . ... ... : ... .. . ... ... : ... .. . ... ... : ... .. . ... ...
ROW EC : ... .. . ... ... ... : F-4 00 8 ... ... ... : F-2 00 . ... : ... .. 8 ... : ... .. . ... ... : ... .. . ... ... : ... .. . ... ... : ... .. . ... ...
ROW ED : ... .. . ... ... ... : ... .. 7 ... ... ... : ... .. . ... : ... .. 7 ... : ... .. . ... ... : ... .. . ... ... : ... .. . ... ... : ... .. . ... ...
ROW EE : ... .. . ... ... ... : ... .. . ... ... ... : ... .. . ... : ... .. 6 ... : ... .. . ... ... : ... .. . ... ... : ... .. . ... ... : ... .. . ... ...
ROW EF : ... .. 1 ... ... ... : ... .. 6 ... ... ... : ... .. . ... : ... .. . ... : ... .. . ... ... : ... .. . ... ... : ... .. . ... ... : ... .. . ... ...
ROW F0 : F-1 00 C ... ... ... : C-4 00 8 ... ... ... : E-2 00 . P86 : 1-# 00 F ... : ... .. . ... ... : ... .. . ... ... : ... .. . ... ... : E-2 01 8 P8C ...
ROW F1 : ... .. B ... ... ... : ... .. 7 ... ... ... : D#2 00 . P8E : ... .. C ... : ... .. . ... ... : ... .. . ... ... : ... .. . ... ... : ... .. . P6C ...
ROW F2 : ... .. A ... ... ... : ... .. . ... ... ... : ... .. . P6E : ... .. 6 ... : ... .. . ... ... : ... .. . ... ... : ... .. . ... ... : D#2 01 8 P7A ...
ROW F3 : ... .. 8 ... ... ... : ... .. 6 ... ... ... : D-2 00 . P79 : ... .. 3 ... : ... .. . ... ... : ... .. . ... ... : ... .. . ... ... : D-2 01 8 P8B ...
ROW F4 : ... .. . ... ... ... : A-3 00 8 ... ... ... : C#2 00 . P86 : ... .. 2 ... : ... .. . ... ... : ... .. . ... ... : ... .. . ... ... : ... .. . P6B ...
ROW F5 : ... .. . ... ... ... : ... .. 7 ... ... ... : C-2 00 . P96 : ... .. 0 ... : ... .. . ... ... : ... .. . ... ... : ... .. . ... ... : C#2 01 8 P7E ...
ROW F6 : ... .. . ... ... ... : ... .. . ... ... ... : ... .. . P76 : ... .. . ... : ... .. . ... ... : ... .. . ... ... : ... .. . ... ... : C-2 01 8 P95 ...
ROW F7 : ... .. 1 ... ... ... : ... .. 6 ... ... ... : B-1 00 . P89 : ... .. . ... : ... .. . ... ... : ... .. . ... ... : ... .. . ... ... : ... .. . P75 ...
ROW F8 : ... .. C ... ... ... : F-3 00 8 ... ... ... : F-4 00 . P80 : ... .. F ... : ... .. . ... ... : ... .. . ... ... : ... .. . ... ... : F-4 01 F P80 ...
ROW F9 : ... .. B ... ... ... : ... .. 7 ... ... ... : ... .. . ... : ... .. C ... : ... .. . ... ... : ... .. . ... ... : ... .. . ... ... : ... .. D ... ...
ROW FA : ... .. A ... ... ... : ... .. . ... ... ... : ... .. . ... : ... .. 6 ... : ... .. . ... ... : C#5 01 5 P7F ... : ... .. . P83 ... : ... .. 8 ... ...
ROW FB : ... .. 8 ... ... ... : ... .. 6 ... ... ... : ... .. . ... : ... .. 3 ... : ... .. . ... ... : ... .. . P81 ... : C#5 01 5 P7F ... : ... .. . ... ...
ROW FC : ... .. . ... ... ... : C-3 00 8 ... ... ... : ... .. . ... : ... .. 2 ... : ... .. . ... ... : ... .. . P80 ... : ... .. . P7E ... : ... .. . ... ...
ROW FD : ... .. . ... ... ... : ... .. 7 ... ... ... : ... .. . ... : ... .. 0 ... : ... .. . ... ... : C-5 01 5 P83 ... : C-5 01 5 P81 ... : ... .. . ... ...
ROW FE : ... .. . ... ... ... : ... .. . ... ... ... : ... .. . ... : ... .. . ... : ... .. . ... ... : ... .. . P7F ... : B-4 01 5 P83 ... : ... .. . ... ...
ROW FF : ... .. 1 ... ... ... : ... .. 6 ... ... ... : ... .. . ... : ... .. . ... : ... .. . ... ... : B-4 01 5 P82 ... : ... .. . P80 ... : ... .. . ... ...

PATTERN 18
ROW 00 : G#3 00 C ... ... ... : B-4 00 8 ... ... ... : E-5 00 . ... : 9-# 00 D ... : ... .. . ... ... : ... .. . P81 ... : ... .. . P7F ... : F-3 01 F ... ...
ROW 01 : ... .. B ... ... ... : ... .. 7 ... ... ... : F#4 00 . ... : ... .. B ... : ... .. . ... ... : ... .. . P83 ... : ... .. . P81 ... : ... .. D ... ...
ROW 02 : ... .. A ... ... ... : ... .. . ... ... ... : B-3 00 . ... : ... .. . ... : ... .. . ... ... : C-5 01 5 P81 ... : C-5 01 5 P7F ... : ... .. 8 ... ...
ROW 03 : ... .. 8 ... ... ... : ... .. 6 ... ... ... : A#3 00 . ... : ... .. A ... : ... .. . ... ... : C#5 01 5 P7E ... : ... .. . P82 ... : ... .. . ... ...
ROW 04 : ... .. . ... ... ... : A-4 00 8 ... ... ... : F-3 00 . ... : ... .. 8 ... : ... .. . ... ... : ... .. . P81 ... : C#5 01 5 P7F ... : ... .. . ... ...
ROW 05 : ... .. . ... ... ... : ... .. 7 ... ... ... : ... .. . ... : ... .. 7 ... : ... .. . ... ... : ... .. . ... ... : ... .. . ... ... : ... .. . ... ...
ROW 06 : ... .. . ... ... ... : ... .. . ... ... ... : ... .. . ... : ... .. 6 ... : ... .. . ... ... : C-5 01 5 P83 ... : C-5 01 5 P81 ... : ... .. . ... ...
ROW 07 : ... .. 1 ... ... ... : ... .. 6 ... ... ... : ... .. . ... : ... .. . ... : ... .. . ... ... : ... .. . P80 ... : ... .. . P7E ... : ... .. . ... ...
ROW 08 : F-1 00 C ... ... ... : F-4 00 8 ... ... ... : ... .. . ... : 1-# 00 F ... : ... .. . ... ... : B-4 01 5 P82 ... : B-4 01 5 P80 ... : ... .. . ... ...
ROW 09 : ... .. B ... ... ... : ... .. 7 ... ... ... : ... .. . ... : ... .. C ... : ... .. . ... ... : ... .. . P81 ... : ... .. . P7F ... : ... .. . ... ...
ROW 0A : ... .. A ... ... ... : ... .. . ... ... ... : ... .. . ... : ... .. 6 ... : ... .. . ... ... : ... .. . P83 ... : ... .. . P81 ... : ... .. . ... ...
ROW 0B : ... .. 8 ... ... ... : ... .. 6 ... ... ... : ... .. . ... : ... .. 3 ... : ... .. . ... ... : C-5 01 5 P81 ... : C-5 01 5 P7F ... : ... .. . ... ...
ROW 0C : ... .. . ... ... ... : D#4 00 8 ... ... ... : ... .. . ... : ... .. 2 ... : ... .. . ... ... : C#5 01 3 P7E ... : ... .. 3 P82 ... : ... .. . ... ...
ROW 0D : ... .. . ... ... ... : ... .. 7 ... ... ... : ... .. . ... : ... .. 0 ... : ... .. . ... ... : ... .. . P81 ... : C#5 01 3 P7F ... : ... .. . ... ...
ROW 0E : ... .. . ... ... ... : ... .. . ... ... ... : ... .. . ... : ... .. . ... : ... .. . ... ... : ... .. . ... ... : ... .. . ... ... : ... .. . ... ...
ROW 0F : ... .. 1 ... ... ... : ... .. 6 ... ... ... : ... .. . ... : ... .. . ... : ... .. . ... ... : ... .. . P7E ... : C-5 01 3 P82 ... : ... .. . ... ...
ROW 10 : G#3 00 C ... ... ... : B-3 00 8 ... ... ... : D#3 00 . ... : 9-# 00 D ... : ... .. . ... ... : D#4 01 A P81 ... : D#4 01 A P7F ... : D#3 01 F ... ...
ROW 11 : ... .. B ... ... ... : ... .. 7 ... ... ... : ... .. . ... : ... .. B ... : ... .. . ... ... : ... .. 9 ... ... : ... .. 9 ... ... : ... .. D ... ...
ROW 12 : ... .. A ... ... ... : ... .. . ... ... ... : ... .. . ... : ... .. . ... : ... .. . ... ... : ... .. 8 ... ... : ... .. 8 ... ... : ... .. 8 ... ...
ROW 13 : ... .. 8 ... ... ... : ... .. 6 ... ... ... : ... .. . ... : ... .. A ... : ... .. . ... ... : ... .. 7 ... ... : ... .. 7 ... ... : ... .. . ... ...
ROW 14 : ... .. . ... ... ... : A-3 00 8 ... ... ... : ... .. . ... : ... .. 8 ... : ... .. . ... ... : ... .. . ... ... : ... .. . ... ... : ... .. . ... ...
ROW 15 : ... .. . ... ... ... : ... .. 7 ... ... ... : ... .. . ... : ... .. 7 ... : ... .. . ... ... : ... .. 6 ... ... : ... .. 6 ... ... : ... .. . ... ...
ROW 16 : ... .. . ... ... ... : ... .. . ... ... ... : ... .. . ... : ... .. 6 ... : ... .. . ... ... : ... .. . ... ... : ... .. . ... ... : ... .. . ... ...
ROW 17 : ... .. 1 ... ... ... : ... .. 6 ... ... ... : ... .. . ... : ... .. . ... : ... .. . ... ... : ... .. 5 ... ... : ... .. 5 ... ... : ... .. . ... ...
ROW 18 : F-1 00 C ... ... ... : F-3 00 8 ... ... ... : F-2 00 . ... : 2-# 00 F ... : ... .. . ... ... : ... .. . ... ... : ... .. . ... ... : F-2 01 F ... ...
ROW 19 : ... .. B ... ... ... : ... .. 7 ... ... ... : ... .. . ... : ... .. C ... : ... .. . ... ... : ... .. . ... ... : ... .. . ... ... : ... .. D ... ...
ROW 1A : ... .. A ... ... ... : ... .. . ... ... ... : ... .. . ... : ... .. 6 ... : ... .. . ... ... : ... .. . ... ... : ... .. . ... ... : ... .. 8 ... ...
ROW 1B : ... .. 8 ... ... ... : ... .. 6 ... ... ... : ... .. . ... : ... .. 3 ... : ... .. . ... ... : ... .. . ... ... : ... .. . ... ... : ... .. . ... ...
ROW 1C : ... .. . ... ... ... : D#3 00 8 ... ... ... : ... .. . ... : ... .. F ... : ... .. . ... ... : ... .. . ... ... : ... .. . ... ... : ... .. . ... ...
ROW 1D : ... .. . ... ... ... : ... .. 7 ... ... ... : ... .. . ... : ... .. C ... : ... .. . ... ... : ... .. . ... ... : ... .. . ... ... : ... .. . ... ...
ROW 1E : ... .. . ... ... ... : ... .. . ... ... ... : ... .. . ... : ... .. 6 ... : ... .. . ... ... : ... .. . ... ... : ... .. . ... ... : ... .. . ... ...
ROW 1F : ... .. 1 ... ... ... : ... .. 6 ... ... ... : ... .. . ... : ... .. 3 ... : ... .. . ... ... : ... .. . ... ... : ... .. . ... ... : ... .. . ... ...
ROW 20 : C-4 00 C ... ... ... : D#5 00 8 ... ... ... : G-5 00 . ... : 9-# 00 D ... : ... .. . ... ... : F#4 01 A P84 ... : F#4 01 A P82 ... : G#3 01 F ... ...
ROW 21 : ... .. B ... ... ... : ... .. 7 ... ... ... : A-4 00 . ... : ... .. B ... : ... .. . ... ... : B-4 01 9 P7E ... : A#4 01 9 P83 ... : ... .. D ... ...
ROW 22 : ... .. A ... ... ... : ... .. . ... ... ... : D-4 00 . ... : ... .. . ... : ... .. . ... ... : D#5 01 8 P81 ... : D#5 01 8 P7F ... : ... .. 8 ... ...
ROW 23 : ... .. 8 ... ... ... : ... .. 6 ... ... ... : C#4 00 . ... : ... .. A ... : ... .. . ... ... : ... .. 7 ... ... : ... .. 7 ... ... : ... .. . ... ...
ROW 24 : ... .. . ... ... ... : C-5 00 8 ... ... ... : G#3 00 . ... : ... .. 8 ... : ... .. . ... ... : ... .. . ... ... : ... .. . ... ... : ... .. . ... ...
ROW 25 : ... .. . ... ... ... : ... .. 7 ... ... ... : ... .. . ... : ... .. 7 ... : ... .. . ... ... : ... .. 6 ... ... : ... .. 6 ... ... : ... .. . ... ...
ROW 26 : ... .. . ... ... ... : ... .. . ... ... ... : ... .. . ... : ... .. 6 ... : ... .. . ... ... : ... .. . ... ... : ... .. . ... ... : ... .. . ... ...
ROW 27 : ... .. 1 ... ... ... : ... .. 6 ... ... ... : ... .. . ... : ... .. . ... : ... .. . ... ... : ... .. 5 ... ... : ... .. 5 ... ... : ... .. . ... ...
ROW 28 : G#1 00 C ... ... ... : G#4 00 8 ... ... ... : F#3 00 . P81 : 1-# 00 F ... : ... .. . ... ... : ... .. . ... ... : ... .. . ... ... : F#3 01 8 P86 ...
ROW 29 : ... .. B ... ... ... : ... .. 7 ... ... ... : E-3 00 . P86 : ... .. C ... : ... .. . ... ... : ... .. . ... ... : ... .. . ... ... : F-3 01 8 P7A ...
ROW 2A : ... .. A ... ... ... : ... .. . ... ... ... : D#3 00 . P7B : ... .. 6 ... : ... .. . ... ... : ... .. . ... ... : ... .. . ... ... : D#3 01 8 P87 ...
ROW 2B : ... .. 8 ... ... ... : ... .. 6 ... ... ... : C#3 00 . P87 : ... .. 3 ... : ... .. . ... ... : ... .. . ... ... : ... .. . ... ... : D-3 01 8 P7F ...
ROW 2C : ... .. . ... ... ... : D#4 00 8 ... ... ... : C-3 00 . P7F : ... .. F ... : ... .. . ... ... : ... .. . ... ... : ... .. . ... ... : C#3 01 8 P79 ...
ROW 2D : ... .. . ... ... ... : ... .. 7 ... ... ... : B-2 00 . P78 : ... .. C ... : ... .. . ... ... : ... .. . ... ... : ... .. . ... ... : C-3 01 8 P75 ...
ROW 2E : ... .. . ... ... ... : ... .. . ... ... ... : A#2 00 . P73 : ... .. 6 ... : ... .. . ... ... : ... .. . ... ... : ... .. . ... ... : B-2 01 8 P72 ...
ROW 2F : ... .. 1 ... ... ... : ... .. 6 ... ... ... : G#2 00 . P8E : ... .. 3 ... : ... .. . ... ... : ... .. . ... ... : ... .. . ... ... : A#2 01 8 P70 ...
ROW 30 : ... .. C ... ... ... : C-4 00 8 ... ... ... : G#4 00 . P80 : ... .. F ... : ... .. . ... ... : ... .. . ... ... : ... .. . ... ... : G#4 01 F P80 ...
ROW 31 : ... .. B ... ... ... : ... .. 7 ... ... ... : ... .. . ... : ... .. C ... : ... .. . ... ... : ... .. . ... ... : ... .. . ... ... : ... .. D ... ...
ROW 32 : ... .. A ... ... ... : ... .. . ... ... ... : ... .. . ... : ... .. 6 ... : ... .. . ... ... : ... .. . ... ... : ... .. . ... ... : ... .. 8 ... ...
ROW 33 : ... .. 8 ... ... ... : ... .. 6 ... ... ... : ... .. . ... : ... .. 3 ... : ... .. . ... ... : ... .. . ... ... : ... .. . ... ... : ... .. . ... ...
ROW 34 : ... .. . ... ... ... : G#3 00 8 ... ... ... : ... .. . ... : ... .. 2 ... : ... .. . ... ... : ... .. . ... ... : ... .. . ... ... : ... .. . ... ...
ROW 35 : ... .. . ... ... ... : ... .. 7 ... ... ... : ... .. . ... : ... .. 0 ... : ... .. . ... ... : ... .. . ... ... : ... .. . ... ... : ... .. . ... ...
ROW 36 : ... .. . ... ... ... : ... .. . ... ... ... : ... .. . ... : ... .. . ... : ... .. . ... ... : ... .. . ... ... : ... .. . ... ... : ... .. . ... ...
ROW 37 : ... .. 1 ... ... ... : ... .. 6 ... ... ... : ... .. . ... : ... .. . ... : ... .. . ... ... : ... .. . ... ... : ... .. . ... ... : ... .. . ... ...
ROW 38 : C-4 00 C ... ... ... : D#5 00 8 ... ... ... : G-4 00 . ... : 9-# 00 D ... : ... .. . ... ... : ... .. A P80 ... : ... .. A P7E ... : G#2 01 F ... ...
ROW 39 : ... .. B ... ... ... : ... .. 7 ... ... ... : A-3 00 . ... : ... .. B ... : ... .. . ... ... : ... .. 9 P7F ... : D-5 01 9 P82 ... : ... .. D ... ...
ROW 3A : ... .. A ... ... ... : ... .. . ... ... ... : D-3 00 . ... : ... .. . ... : ... .. . ... ... : ... .. 8 P7E ... : ... .. 8 P81 ... : ... .. 8 ... ...
ROW 3B : ... .. 8 ... ... ... : ... .. 6 ... ... ... : C#3 00 . ... : ... .. A ... : ... .. . ... ... : D-5 01 7 P82 ... : ... .. 7 P80 ... : ... .. . ... ...
ROW 3C : ... .. . ... ... ... : C-5 00 8 ... ... ... : G#2 00 . ... : ... .. 8 ... : ... .. . ... ... : ... .. . P81 ... : ... .. . P7F ... : ... .. . ... ...
ROW 3D : ... .. . ... ... ... : ... .. 7 ... ... ... : ... .. . ... : ... .. 7 ... : ... .. . ... ... : ... .. 6 ... ... : ... .. 6 ... ... : ... .. . ... ...
ROW 3E : ... .. . ... ... ... : ... .. . ... ... ... : ... .. . ... : ... .. 6 ... : ... .. . ... ... : ... .. . ... ... : ... .. . ... ... : ... .. . ... ...
ROW 3F : ... .. 1 ... ... ... : ... .. 6 ... ... ... : ... .. . ... : ... .. . ... : ... .. . ... ... : ... .. 5 ... ... : ... .. 5 ... ... : ... .. . ... ...
ROW 40 : G#1 00 C ... ... ... : G#4 00 8 ... ... ... : G-2 00 . ... : 1-# 00 F ... : ... .. . ... ... : ... .. . ... ... : ... .. . ... ... : G-2 01 8 P84 ...
ROW 41 : ... .. B ... ... ... : ... .. 7 ... ... ... : F#2 00 . P82 : ... .. C ... : ... .. . ... ... : ... .. . ... ... : ... .. . ... ... : F#2 01 8 P8B ...
ROW 42 : ... .. A ... ... ... : ... .. . ... ... ... : F-2 00 . P86 : ... .. 6 ... : ... .. . ... ... : ... .. . ... ... : ... .. . ... ... : F-2 01 8 P94 ...
ROW 43 : ... .. 8 ... ... ... : ... .. 6 ... ... ... : E-2 00 . P8C : ... .. 3 ... : ... .. . ... ... : ... .. . ... ... : ... .. . ... ... : ... .. . P74 ...
ROW 44 : ... .. . ... ... ... : D#4 00 8 ... ... ... : D#2 00 . P94 : ... .. 2 ... : ... .. . ... ... : ... .. . ... ... : ... .. . ... ... : E-2 01 8 P80 ...
ROW 45 : ... .. . ... ... ... : ... .. 7 ... ... ... : ... .. . P74 : ... .. 0 ... : ... .. . ... ... : ... .. . ... ... : ... .. . ... ... : D#2 01 8 P8E ...
ROW 46 : ... .. . ... ... ... : ... .. . ... ... ... : D-2 00 . P7F : ... .. . ... : ... .. . ... ... : ... .. . ... ... : ... .. . ... ... : ... .. . P6E ...
ROW 47 : ... .. 1 ... ... ... : ... .. 6 ... ... ... : C#2 00 . P8C : ... .. . ... : ... .. . ... ... : ... .. . ... ... : ... .. . ... ... : D-2 01 8 P7F ...
ROW 48 : ... .. C ... ... ... : C-4 00 8 ... ... ... : G#4 00 . P80 : ... .. F ... : ... .. . ... ... : ... .. . ... ... : ... .. . ... ... : G#4 01 F P80 ...
ROW 49 : ... .. B ... ... ... : ... .. 7 ... ... ... : ... .. . ... : ... .. C ... : ... .. . ... ... : ... .. . ... ... : ... .. . ... ... : ... .. D ... ...
ROW 4A : ... .. A ... ... ... : ... .. . ... ... ... : ... .. . ... : ... .. 6 ... : ... .. . ... ... : ... .. . ... ... : ... .. . ... ... : ... .. 8 ... ...
ROW 4B : ... .. 8 ... ... ... : ... .. 6 ... ... ... : ... .. . ... : ... .. 3 ... : ... .. . ... ... : ... .. . ... ... : ... .. . ... ... : ... .. . ... ...
ROW 4C : ... .. . ... ... ... : G#3 00 8 ... ... ... : ... .. . ... : ... .. 2 ... : ... .. . ... ... : ... .. . ... ... : ... .. . ... ... : ... .. . ... ...
ROW 4D : ... .. . ... ... ... : ... .. 7 ... ... ... : ... .. . ... : ... .. 0 ... : ... .. . ... ... : ... .. . ... ... : ... .. . ... ... : ... .. . ... ...
ROW 4E : ... .. . ... ... ... : ... .. . ... ... ... : ... .. . ... : ... .. . ... : ... .. . ... ... : ... .. . ... ... : ... .. . ... ... : ... .. . ... ...
ROW 4F : ... .. 1 ... ... ... : ... .. 6 ... ... ... : ... .. . ... : ... .. . ... : ... .. . ... ... : ... .. . ... ... : ... .. . ... ... : ... .. . ... ...
ROW 50 : B-3 00 C ... ... ... : E-5 00 8 ... ... ... : G-5 00 . ... : 9-# 00 D ... : ... .. . ... ... : B-4 01 A P83 ... : B-4 01 A P81 ... : G#3 01 F ... ...
ROW 51 : ... .. B ... ... ... : ... .. 7 ... ... ... : A-4 00 . ... : ... .. B ... : ... .. . ... ... : A-4 01 9 P81 ... : A-4 01 9 P7F ... : ... .. D ... ...
ROW 52 : ... .. A ... ... ... : ... .. . ... ... ... : D-4 00 . ... : ... .. . ... : ... .. . ... ... : G-4 01 8 ... ... : G-4 01 8 ... ... : ... .. 8 ... ...
ROW 53 : ... .. 8 ... ... ... : ... .. 6 ... ... ... : C#4 00 . ... : ... .. A ... : ... .. . ... ... : F-4 01 7 P82 ... : F-4 01 7 P80 ... : ... .. . ... ...
ROW 54 : ... .. . ... ... ... : D-5 00 8 ... ... ... : G#3 00 . ... : ... .. 8 ... : ... .. . ... ... : E-4 01 7 P7C ... : D#4 01 7 P84 ... : ... .. . ... ...
ROW 55 : ... .. . ... ... ... : ... .. 7 ... ... ... : ... .. . ... : ... .. 7 ... : ... .. . ... ... : D-4 01 6 P81 ... : D-4 01 6 P7F ... : ... .. . ... ...
ROW 56 : ... .. . ... ... ... : ... .. . ... ... ... : ... .. . ... : ... .. 6 ... : ... .. . ... ... : ... .. . ... ... : ... .. . ... ... : ... .. . ... ...
ROW 57 : ... .. 1 ... ... ... : ... .. 6 ... ... ... : ... .. . ... : ... .. . ... : ... .. . ... ... : ... .. 5 ... ... : ... .. 5 ... ... : ... .. . ... ...
ROW 58 : G#1 00 C ... ... ... : G#4 00 8 ... ... ... : ... .. . ... : 1-# 00 F ... : ... .. . ... ... : ... .. . ... ... : ... .. . ... ... : ... .. . ... ...
ROW 59 : ... .. B ... ... ... : ... .. 7 ... ... ... : ... .. . ... : ... .. C ... : ... .. . ... ... : ... .. . ... ... : ... .. . ... ... : ... .. . ... ...
ROW 5A : ... .. A ... ... ... : ... .. . ... ... ... : ... .. . ... : ... .. 6 ... : ... .. . ... ... : ... .. . ... ... : ... .. . ... ... : ... .. . ... ...
ROW 5B : ... .. 8 ... ... ... : ... .. 6 ... ... ... : ... .. . ... : ... .. 3 ... : ... .. . ... ... : ... .. . ... ... : ... .. . ... ... : ... .. . ... ...
ROW 5C : ... .. . ... ... ... : F#4 00 8 ... ... ... : ... .. . ... : ... .. 2 ... : ... .. . ... ... : ... .. . ... ... : ... .. . ... ... : ... .. . ... ...
ROW 5D : ... .. . ... ... ... : ... .. 7 ... ... ... : ... .. . ... : ... .. 0 ... : ... .. . ... ... : ... .. . ... ... : ... .. . ... ... : ... .. . ... ...
ROW 5E : ... .. . ... ... ... : ... .. . ... ... ... : ... .. . ... : ... .. . ... : ... .. . ... ... : ... .. . ... ... : ... .. . ... ... : ... .. . ... ...
ROW 5F : ... .. 1 ... ... ... : ... .. 6 ... ... ... : ... .. . ... : ... .. . ... : ... .. . ... ... : ... .. . ... ... : ... .. . ... ... : ... .. . ... ...
ROW 60 : ... .. C ... ... ... : D-4 00 8 ... ... ... : F#3 00 . ... : ... .. F ... : ... .. . ... ... : ... .. . ... ... : ... .. . ... ... : F#3 01 F ... ...
ROW 61 : ... .. B ... ... ... : ... .. 7 ... ... ... : ... .. . ... : ... .. C ... : ... .. . ... ... : ... .. . ... ... : ... .. . ... ... : ... .. D ... ...
ROW 62 : ... .. A ... ... ... : ... .. . ... ... ... : ... .. . ... : ... .. 6 ... : ... .. . ... ... : ... .. . ... ... : ... .. . ... ... : ... .. 8 ... ...
ROW 63 : ... .. 8 ... ... ... : ... .. 6 ... ... ... : ... .. . ... : ... .. 3 ... : ... .. . ... ... : ... .. . ... ... : ... .. . ... ... : ... .. . ... ...
ROW 64 : ... .. . ... ... ... : C-4 00 8 ... ... ... : ... .. . ... : ... .. 2 ... : ... .. . ... ... : ... .. . P85 ... : ... .. . P83 ... : ... .. . ... ...
ROW 65 : ... .. . ... ... ... : ... .. 7 ... ... ... : ... .. . ... : ... .. 0 ... : ... .. . ... ... : D#4 01 5 P7D ... : ... .. . P85 ... : ... .. . ... ...
ROW 66 : ... .. . ... ... ... : ... .. . ... ... ... : ... .. . ... : ... .. . ... : ... .. . ... ... : ... .. . P7C ... : ... .. . P84 ... : ... .. . ... ...
ROW 67 : ... .. 1 ... ... ... : ... .. 6 ... ... ... : ... .. . ... : ... .. . ... : ... .. . ... ... : D-4 01 5 P83 ... : ... .. . P81 ... : ... .. . ... ...
ROW 68 : B-3 00 C ... ... ... : E-5 00 8 ... ... ... : G-4 00 . ... : 9-# 00 D ... : ... .. . ... ... : ... .. . P7F ... : ... .. . P7D ... : G#2 01 F ... ...
ROW 69 : ... .. B ... ... ... : ... .. 7 ... ... ... : A-3 00 . ... : ... .. B ... : ... .. . ... ... : ... .. . P7C ... : C#4 01 5 P86 ... : ... .. D ... ...
ROW 6A : ... .. A ... ... ... : ... .. . ... ... ... : D-3 00 . ... : ... .. . ... : ... .. . ... ... : ... .. . P7B ... : ... .. . P85 ... : ... .. 8 ... ...
ROW 6B : ... .. 8 ... ... ... : ... .. 6 ... ... ... : C#3 00 . ... : ... .. A ... : ... .. . ... ... : ... .. . P7D ... : D-4 01 5 P7B ... : ... .. . ... ...
ROW 6C : ... .. . ... ... ... : D-5 00 8 ... ... ... : G#2 00 . ... : ... .. 8 ... : ... .. . ... ... : ... .. . P81 ... : ... .. . P7F ... : ... .. . ... ...
ROW 6D : ... .. . ... ... ... : ... .. 7 ... ... ... : ... .. . ... : ... .. 7 ... : ... .. . ... ... : ... .. . P84 ... : ... .. . P82 ... : ... .. . ... ...
ROW 6E : ... .. . ... ... ... : ... .. . ... ... ... : ... .. . ... : ... .. 6 ... : ... .. . ... ... : D#4 01 5 P7D ... : ... .. . P85 ... : ... .. . ... ...
ROW 6F : ... .. 1 ... ... ... : ... .. 6 ... ... ... : ... .. . ... : ... .. . ... : ... .. . ... ... : ... .. . ... ... : ... .. . ... ... : ... .. . ... ...
ROW 70 : G#1 00 C ... ... ... : G#4 00 8 ... ... ... : F#2 00 . ... : 1-# 00 F ... : ... .. . ... ... : D-4 01 5 P83 ... : ... .. . P81 ... : F#2 01 F ... ...
ROW 71 : ... .. B ... ... ... : ... .. 7 ... ... ... : ... .. . ... : ... .. C ... : ... .. . ... ... : ... .. . P80 ... : ... .. . P7E ... : ... .. D ... ...
ROW 72 : ... .. A ... ... ... : ... .. . ... ... ... : ... .. . ... : ... .. 6 ... : ... .. . ... ... : ... .. . P7C ... : C#4 01 5 P86 ... : ... .. 8 ... ...
ROW 73 : ... .. 8 ... ... ... : ... .. 6 ... ... ... : ... .. . ... : ... .. 3 ... : ... .. . ... ... : ... .. . P7B ... : ... .. . P85 ... : ... .. . ... ...
ROW 74 : ... .. . ... ... ... : F#4 00 8 ... ... ... : ... .. . ... : ... .. 2 ... : ... .. . ... ... : ... .. . P7D ... : D-4 01 5 P7B ... : ... .. . ... ...
ROW 75 : ... .. . ... ... ... : ... .. 7 ... ... ... : ... .. . ... : ... .. 0 ... : ... .. . ... ... : ... .. . P81 ... : ... .. . P7F ... : ... .. . ... ...
ROW 76 : ... .. . ... ... ... : ... .. . ... ... ... : ... .. . ... : ... .. . ... : ... .. . ... ... : ... .. . ... ... : ... .. . ... ... : ... .. . ... ...
ROW 77 : ... .. 1 ... ... ... : ... .. 6 ... ... ... : ... .. . ... : ... .. . ... : ... .. . ... ... : ... .. . ... ... : ... .. . ... ... : ... .. . ... ...
ROW 78 : ... .. C ... ... ... : D-4 00 8 ... ... ... : G#2 00 . ... : 8-# 00 8 ... : ... .. . ... ... : A#3 01 A P83 ... : A#3 01 A P81 ... : G#2 01 F ... ...
ROW 79 : ... .. B ... ... ... : ... .. 7 ... ... ... : ... .. . ... : ... .. 6 ... : ... .. . ... ... : G-3 01 9 P80 ... : G-3 01 9 P7E ... : ... .. D ... ...
ROW 7A : ... .. A ... ... ... : ... .. . ... ... ... : ... .. . ... : ... .. 0 ... : ... .. . ... ... : F-3 01 8 P81 ... : F-3 01 8 P7F ... : ... .. 8 ... ...
ROW 7B : ... .. 8 ... ... ... : ... .. 6 ... ... ... : ... .. . ... : ... .. . ... : ... .. . ... ... : ... .. 7 ... ... : ... .. 7 ... ... : ... .. . ... ...
ROW 7C : ... .. . ... ... ... : C-4 00 8 ... ... ... : ... .. . ... : ... .. 8 ... : ... .. . ... ... : ... .. . ... ... : ... .. . ... ... : ... .. . ... ...
ROW 7D : ... .. . ... ... ... : ... .. 7 ... ... ... : ... .. . ... : ... .. 6 ... : ... .. . ... ... : ... .. 6 ... ... : ... .. 6 ... ... : ... .. . ... ...
ROW 7E : ... .. . ... ... ... : ... .. . ... ... ... : ... .. . ... : ... .. 0 ... : ... .. . ... ... : ... .. . ... ... : ... .. . ... ... : ... .. . ... ...
ROW 7F : ... .. 1 ... ... ... : ... .. 6 ... ... ... : ... .. . ... : ... .. . ... : ... .. . ... ... : ... .. 5 ... ... : ... .. 5 ... ... : ... .. . ... ...
ROW 80 : C-4 00 C ... ... ... : D#5 00 8 ... ... ... : G-5 00 . ... : 9-# 00 D ... : ... .. . ... ... : G#3 01 A P7E ... : G#3 01 A P7C ... : G#3 01 F ... ...
ROW 81 : ... .. B ... ... ... : ... .. 7 ... ... ... : A-4 00 . ... : ... .. B ... : ... .. . ... ... : B-3 01 9 P83 ... : B-3 01 9 P81 ... : ... .. D ... ...
ROW 82 : ... .. A ... ... ... : ... .. . ... ... ... : D-4 00 . ... : ... .. . ... : ... .. . ... ... : C-4 01 8 P81 ... : C-4 01 8 P7F ... : ... .. 8 ... ...
ROW 83 : ... .. 8 ... ... ... : ... .. 6 ... ... ... : C#4 00 . ... : ... .. A ... : ... .. . ... ... : ... .. 7 ... ... : ... .. 7 ... ... : ... .. . ... ...
ROW 84 : ... .. . ... ... ... : C-5 00 8 ... ... ... : G#3 00 . ... : ... .. 8 ... : ... .. . ... ... : ... .. . ... ... : ... .. . ... ... : ... .. . ... ...
ROW 85 : ... .. . ... ... ... : ... .. 7 ... ... ... : ... .. . ... : ... .. 7 ... : ... .. . ... ... : ... .. 6 ... ... : ... .. 6 ... ... : ... .. . ... ...
ROW 86 : ... .. . ... ... ... : ... .. . ... ... ... : ... .. . ... : ... .. 6 ... : ... .. . ... ... : ... .. . ... ... : ... .. . ... ... : ... .. . ... ...
ROW 87 : ... .. 1 ... ... ... : ... .. 6 ... ... ... : ... .. . ... : ... .. . ... : ... .. . ... ... : ... .. 5 ... ... : ... .. 5 ... ... : ... .. . ... ...
ROW 88 : G#1 00 C ... ... ... : G#4 00 8 ... ... ... : F#3 00 . P81 : 1-# 00 F ... : ... .. . ... ... : ... .. . ... ... : ... .. . ... ... : F#3 01 8 P86 ...
ROW 89 : ... .. B ... ... ... : ... .. 7 ... ... ... : E-3 00 . P86 : ... .. C ... : ... .. . ... ... : ... .. . ... ... : ... .. . ... ... : F-3 01 8 P7A ...
ROW 8A : ... .. A ... ... ... : ... .. . ... ... ... : D#3 00 . P7B : ... .. 6 ... : ... .. . ... ... : ... .. . ... ... : ... .. . ... ... : D#3 01 8 P87 ...
ROW 8B : ... .. 8 ... ... ... : ... .. 6 ... ... ... : C#3 00 . P87 : ... .. 3 ... : ... .. . ... ... : ... .. . ... ... : ... .. . ... ... : D-3 01 8 P7F ...
ROW 8C : ... .. . ... ... ... : D#4 00 8 ... ... ... : C-3 00 . P7F : ... .. F ... : ... .. . ... ... : ... .. . ... ... : ... .. . ... ... : C#3 01 8 P79 ...
ROW 8D : ... .. . ... ... ... : ... .. 7 ... ... ... : B-2 00 . P78 : ... .. C ... : ... .. . ... ... : ... .. . ... ... : ... .. . ... ... : C-3 01 8 P75 ...
ROW 8E : ... .. . ... ... ... : ... .. . ... ... ... : A#2 00 . P73 : ... .. 6 ... : ... .. . ... ... : ... .. . ... ... : ... .. . ... ... : B-2 01 8 P72 ...
ROW 8F : ... .. 1 ... ... ... : ... .. 6 ... ... ... : G#2 00 . P8E : ... .. 3 ... : ... .. . ... ... : ... .. . ... ... : ... .. . ... ... : A#2 01 8 P70 ...
ROW 90 : ... .. C ... ... ... : C-4 00 8 ... ... ... : G#4 00 . P80 : ... .. F ... : ... .. . ... ... : C#4 01 A P85 ... : C#4 01 A P83 ... : G#4 01 F P80 ...
ROW 91 : ... .. B ... ... ... : ... .. 7 ... ... ... : ... .. . ... : ... .. C ... : ... .. . ... ... : D#4 01 9 P7F ... : D#4 01 9 P7D ... : ... .. D ... ...
ROW 92 : ... .. A ... ... ... : ... .. . ... ... ... : ... .. . ... : ... .. 6 ... : ... .. . ... ... : E-4 01 8 P85 ... : E-4 01 8 P83 ... : ... .. 8 ... ...
ROW 93 : ... .. 8 ... ... ... : ... .. 6 ... ... ... : ... .. . ... : ... .. 3 ... : ... .. . ... ... : F#4 01 7 P82 ... : F#4 01 7 P80 ... : ... .. . ... ...
ROW 94 : ... .. . ... ... ... : G#3 00 8 ... ... ... : ... .. . ... : ... .. 2 ... : ... .. . ... ... : G#4 01 7 ... ... : G#4 01 7 ... ... : ... .. . ... ...
ROW 95 : ... .. . ... ... ... : ... .. 7 ... ... ... : ... .. . ... : ... .. 0 ... : ... .. . ... ... : A#4 01 6 P83 ... : A#4 01 6 P81 ... : ... .. . ... ...
ROW 96 : ... .. . ... ... ... : ... .. . ... ... ... : ... .. . ... : ... .. . ... : ... .. . ... ... : C-5 01 6 P81 ... : C-5 01 6 P7F ... : ... .. . ... ...
ROW 97 : ... .. 1 ... ... ... : ... .. 6 ... ... ... : ... .. . ... : ... .. . ... : ... .. . ... ... : ... .. 5 ... ... : ... .. 5 ... ... : ... .. . ... ...
ROW 98 : C-4 00 C ... ... ... : D#5 00 8 ... ... ... : G-4 00 . ... : 9-# 00 D ... : ... .. . ... ... : ... .. . ... ... : ... .. . ... ... : G#2 01 F ... ...
ROW 99 : ... .. B ... ... ... : ... .. 7 ... ... ... : A-3 00 . ... : ... .. B ... : ... .. . ... ... : ... .. . ... ... : ... .. . ... ... : ... .. D ... ...
ROW 9A : ... .. A ... ... ... : ... .. . ... ... ... : D-3 00 . ... : ... .. . ... : ... .. . ... ... : ... .. . ... ... : ... .. . ... ... : ... .. 8 ... ...
ROW 9B : ... .. 8 ... ... ... : ... .. 6 ... ... ... : C#3 00 . ... : ... .. A ... : ... .. . ... ... : ... .. . ... ... : ... .. . ... ... : ... .. . ... ...
ROW 9C : ... .. . ... ... ... : C-5 00 8 ... ... ... : G#2 00 . ... : ... .. 8 ... : ... .. . ... ... : ... .. . ... ... : ... .. . ... ... : ... .. . ... ...
ROW 9D : ... .. . ... ... ... : ... .. 7 ... ... ... : ... .. . ... : ... .. 7 ... : ... .. . ... ... : ... .. . ... ... : ... .. . ... ... : ... .. . ... ...
ROW 9E : ... .. . ... ... ... : ... .. . ... ... ... : ... .. . ... : ... .. 6 ... : ... .. . ... ... : ... .. . ... ... : ... .. . ... ... : ... .. . ... ...
ROW 9F : ... .. 1 ... ... ... : ... .. 6 ... ... ... : ... .. . ... : ... .. . ... : ... .. . ... ... : ... .. . ... ... : ... .. . ... ... : ... .. . ... ...
ROW A0 : G#1 00 C ... ... ... : G#4 00 8 ... ... ... : G-2 00 . ... : 1-# 00 F ... : ... .. . ... ... : ... .. . ... ... : ... .. . ... ... : G-2 01 8 P84 ...
ROW A1 : ... .. B ... ... ... : ... .. 7 ... ... ... : F#2 00 . P82 : ... .. C ... : ... .. . ... ... : ... .. . ... ... : ... .. . ... ... : F#2 01 8 P8B ...
ROW A2 : ... .. A ... ... ... : ... .. . ... ... ... : F-2 00 . P86 : ... .. 6 ... : ... .. . ... ... : C#5 01 5 P7F ... : ... .. . P83 ... : F-2 01 8 P94 ...
ROW A3 : ... .. 8 ... ... ... : ... .. 6 ... ... ... : E-2 00 . P8C : ... .. 3 ... : ... .. . ... ... : ... .. . P81 ... : C#5 01 5 P7F ... : ... .. . P74 ...
ROW A4 : ... .. . ... ... ... : D#4 00 8 ... ... ... : D#2 00 . P94 : ... .. 2 ... : ... .. . ... ... : ... .. . P80 ... : ... .. . P7E ... : E-2 01 8 P80 ...
ROW A5 : ... .. . ... ... ... : ... .. 7 ... ... ... : ... .. . P74 : ... .. 0 ... : ... .. . ... ... : C-5 01 5 P83 ... : C-5 01 5 P81 ... : D#2 01 8 P8E ...
ROW A6 : ... .. . ... ... ... : ... .. . ... ... ... : D-2 00 . P7F : ... .. . ... : ... .. . ... ... : ... .. . P7F ... : B-4 01 5 P83 ... : ... .. . P6E ...
ROW A7 : ... .. 1 ... ... ... : ... .. 6 ... ... ... : C#2 00 . P8C : ... .. . ... : ... .. . ... ... : B-4 01 5 P82 ... : ... .. . P80 ... : D-2 01 8 P7F ...
ROW A8 : ... .. C ... ... ... : C-4 00 8 ... ... ... : G#4 00 . P80 : ... .. F ... : ... .. . ... ... : ... .. . P81 ... : ... .. . P7F ... : G#4 01 F P80 ...
ROW A9 : ... .. B ... ... ... : ... .. 7 ... ... ... : ... .. . ... : ... .. C ... : ... .. . ... ... : ... .. . P83 ... : ... .. . P81 ... : ... .. D ... ...
ROW AA : ... .. A ... ... ... : ... .. . ... ... ... : ... .. . ... : ... .. 6 ... : ... .. . ... ... : C-5 01 5 P81 ... : C-5 01 5 P7F ... : ... .. 8 ... ...
ROW AB : ... .. 8 ... ... ... : ... .. 6 ... ... ... : ... .. . ... : ... .. 3 ... : ... .. . ... ... : C#5 01 5 P7E ... : ... .. . P82 ... : ... .. . ... ...
ROW AC : ... .. . ... ... ... : G#3 00 8 ... ... ... : ... .. . ... : ... .. 2 ... : ... .. . ... ... : ... .. . P81 ... : C#5 01 5 P7F ... : ... .. . ... ...
ROW AD : ... .. . ... ... ... : ... .. 7 ... ... ... : ... .. . ... : ... .. 0 ... : ... .. . ... ... : ... .. . ... ... : ... .. . ... ... : ... .. . ... ...
ROW AE : ... .. . ... ... ... : ... .. . ... ... ... : ... .. . ... : ... .. . ... : ... .. . ... ... : C-5 01 5 P83 ... : C-5 01 5 P81 ... : ... .. . ... ...
ROW AF : ... .. 1 ... ... ... : ... .. 6 ... ... ... : ... .. . ... : ... .. . ... : ... .. . ... ... : ... .. . P80 ... : ... .. . P7E ... : ... .. . ... ...
ROW B0 : B-3 00 C ... ... ... : E-5 00 8 ... ... ... : G-5 00 . ... : 9-# 00 D ... : ... .. . ... ... : A#4 01 A P7E ... : A-4 01 A P83 ... : G#3 01 F ... ...
ROW B1 : ... .. B ... ... ... : ... .. 7 ... ... ... : A-4 00 . ... : ... .. B ... : ... .. . ... ... : G#4 01 9 P7D ... : G-4 01 9 ... ... : ... .. D ... ...
ROW B2 : ... .. A ... ... ... : ... .. . ... ... ... : D-4 00 . ... : ... .. . ... : ... .. . ... ... : F#4 01 8 P81 ... : F#4 01 8 P7F ... : ... .. 8 ... ...
ROW B3 : ... .. 8 ... ... ... : ... .. 6 ... ... ... : C#4 00 . ... : ... .. A ... : ... .. . ... ... : ... .. 7 ... ... : ... .. 7 ... ... : ... .. . ... ...
ROW B4 : ... .. . ... ... ... : D-5 00 8 ... ... ... : G#3 00 . ... : ... .. 8 ... : ... .. . ... ... : ... .. . ... ... : ... .. . ... ... : ... .. . ... ...
ROW B5 : ... .. . ... ... ... : ... .. 7 ... ... ... : ... .. . ... : ... .. 7 ... : ... .. . ... ... : ... .. 6 ... ... : ... .. 6 ... ... : ... .. . ... ...
ROW B6 : ... .. . ... ... ... : ... .. . ... ... ... : ... .. . ... : ... .. 6 ... : ... .. . ... ... : ... .. . ... ... : ... .. . ... ... : ... .. . ... ...
ROW B7 : ... .. 1 ... ... ... : ... .. 6 ... ... ... : ... .. . ... : ... .. . ... : ... .. . ... ... : ... .. 5 ... ... : ... .. 5 ... ... : ... .. . ... ...
ROW B8 : G#1 00 C ... ... ... : G#4 00 8 ... ... ... : ... .. . ... : 1-# 00 F ... : ... .. . ... ... : ... .. . ... ... : ... .. . ... ... : ... .. . ... ...
ROW B9 : ... .. B ... ... ... : ... .. 7 ... ... ... : ... .. . ... : ... .. C ... : ... .. . ... ... : ... .. . ... ... : ... .. . ... ... : ... .. . ... ...
ROW BA : ... .. A ... ... ... : ... .. . ... ... ... : ... .. . ... : ... .. 6 ... : ... .. . ... ... : ... .. . ... ... : ... .. . ... ... : ... .. . ... ...
ROW BB : ... .. 8 ... ... ... : ... .. 6 ... ... ... : ... .. . ... : ... .. 3 ... : ... .. . ... ... : ... .. . ... ... : ... .. . ... ... : ... .. . ... ...
ROW BC : ... .. . ... ... ... : F#4 00 8 ... ... ... : ... .. . ... : ... .. 2 ... : ... .. . ... ... : ... .. . ... ... : ... .. . ... ... : ... .. . ... ...
ROW BD : ... .. . ... ... ... : ... .. 7 ... ... ... : ... .. . ... : ... .. 0 ... : ... .. . ... ... : ... .. . ... ... : ... .. . ... ... : ... .. . ... ...
ROW BE : ... .. . ... ... ... : ... .. . ... ... ... : ... .. . ... : ... .. . ... : ... .. . ... ... : ... .. . ... ... : ... .. . ... ... : ... .. . ... ...
ROW BF : ... .. 1 ... ... ... : ... .. 6 ... ... ... : ... .. . ... : ... .. . ... : ... .. . ... ... : ... .. . ... ... : ... .. . ... ... : ... .. . ... ...
ROW C0 : B-3 00 C ... ... ... : G#5 00 8 ... ... ... : F#3 00 . ... : 9-# 00 D ... : ... .. . ... ... : G#4 01 A ... ... : G#4 01 A ... ... : F#3 01 F ... ...
ROW C1 : ... .. B ... ... ... : ... .. 7 ... ... ... : ... .. . ... : ... .. B ... : ... .. . ... ... : A#4 01 9 P82 ... : A#4 01 9 P80 ... : ... .. D ... ...
ROW C2 : ... .. A ... ... ... : ... .. . ... ... ... : ... .. . ... : ... .. . ... : ... .. . ... ... : C#5 01 8 P7F ... : C-5 01 8 P83 ... : ... .. 8 ... ...
ROW C3 : ... .. 8 ... ... ... : ... .. 6 ... ... ... : ... .. . ... : ... .. A ... : ... .. . ... ... : E-5 01 7 ... ... : D#5 01 7 P82 ... : ... .. . ... ...
ROW C4 : ... .. . ... ... ... : F#5 00 8 ... ... ... : ... .. . ... : ... .. 8 ... : ... .. . ... ... : F-5 01 7 P81 ... : F-5 01 7 P7F ... : ... .. . ... ...
ROW C5 : ... .. . ... ... ... : ... .. 7 ... ... ... : ... .. . ... : ... .. 7 ... : ... .. . ... ... : ... .. 6 ... ... : ... .. 6 ... ... : ... .. . ... ...
ROW C6 : ... .. . ... ... ... : ... .. . ... ... ... : ... .. . ... : ... .. 6 ... : ... .. . ... ... : ... .. . ... ... : ... .. . ... ... : ... .. . ... ...
ROW C7 : ... .. 1 ... ... ... : ... .. 6 ... ... ... : ... .. . ... : ... .. . ... : ... .. . ... ... : ... .. 5 ... ... : ... .. 5 ... ... : ... .. . ... ...
ROW C8 : G#1 00 C ... ... ... : D-5 00 8 ... ... ... : F#4 00 . ... : 2-# 00 F ... : ... .. . ... ... : ... .. . ... ... : ... .. . ... ... : F#4 01 F ... ...
ROW C9 : ... .. B ... ... ... : ... .. 7 ... ... ... : ... .. . ... : ... .. C ... : ... .. . ... ... : ... .. . ... ... : ... .. . ... ... : ... .. D ... ...
ROW CA : ... .. A ... ... ... : ... .. . ... ... ... : ... .. . ... : ... .. 6 ... : ... .. . ... ... : ... .. . ... ... : ... .. . ... ... : ... .. 8 ... ...
ROW CB : ... .. 8 ... ... ... : ... .. 6 ... ... ... : ... .. . ... : ... .. 3 ... : ... .. . ... ... : ... .. . ... ... : ... .. . ... ... : ... .. . ... ...
ROW CC : ... .. . ... ... ... : C-5 00 8 ... ... ... : ... .. . ... : ... .. F ... : ... .. . ... ... : ... .. . ... ... : ... .. . ... ... : ... .. . ... ...
ROW CD : ... .. . ... ... ... : ... .. 7 ... ... ... : ... .. . ... : ... .. C ... : ... .. . ... ... : ... .. . ... ... : ... .. . ... ... : ... .. . ... ...
ROW CE : ... .. . ... ... ... : ... .. . ... ... ... : ... .. . ... : ... .. 6 ... : ... .. . ... ... : ... .. . ... ... : ... .. . ... ... : ... .. . ... ...
ROW CF : ... .. 1 ... ... ... : ... .. 6 ... ... ... : ... .. . ... : ... .. 3 ... : ... .. . ... ... : ... .. . ... ... : ... .. . ... ... : ... .. . ... ...
ROW D0 : C-4 00 C ... ... ... : G#4 00 8 ... ... ... : G-5 00 . ... : 9-# 00 D ... : ... .. . ... ... : F#5 01 5 P7F ... : ... .. . P81 ... : G#3 01 F ... ...
ROW D1 : ... .. B ... ... ... : ... .. 7 ... ... ... : A-4 00 . ... : ... .. B ... : ... .. . ... ... : ... .. . P80 ... : ... .. . P82 ... : ... .. D ... ...
ROW D2 : ... .. A ... ... ... : ... .. . ... ... ... : D-4 00 . ... : ... .. . ... : ... .. . ... ... : ... .. . ... ... : ... .. . ... ... : ... .. 8 ... ...
ROW D3 : ... .. 8 ... ... ... : ... .. 6 ... ... ... : C#4 00 . ... : ... .. A ... : ... .. . ... ... : F-5 01 5 P82 ... : ... .. . P80 ... : ... .. . ... ...
ROW D4 : ... .. . ... ... ... : F#4 00 8 ... ... ... : G#3 00 . ... : ... .. 8 ... : ... .. . ... ... : ... .. . P80 ... : ... .. . P7E ... : ... .. . ... ...
ROW D5 : ... .. . ... ... ... : ... .. 7 ... ... ... : ... .. . ... : ... .. 7 ... : ... .. . ... ... : ... .. . P7E ... : E-5 01 5 P81 ... : ... .. . ... ...
ROW D6 : ... .. . ... ... ... : ... .. . ... ... ... : ... .. . ... : ... .. 6 ... : ... .. . ... ... : ... .. . ... ... : ... .. . ... ... : ... .. . ... ...
ROW D7 : ... .. 1 ... ... ... : ... .. 6 ... ... ... : ... .. . ... : ... .. . ... : ... .. . ... ... : ... .. . P7F ... : ... .. . P82 ... : ... .. . ... ...
ROW D8 : G#1 00 C ... ... ... : D-4 00 8 ... ... ... : F#3 00 . P81 : 1-# 00 F ... : ... .. . ... ... : ... .. . P81 ... : F-5 01 5 P7F ... : F#3 01 8 P86 ...
ROW D9 : ... .. B ... ... ... : ... .. 7 ... ... ... : E-3 00 . P86 : ... .. C ... : ... .. . ... ... : F#5 01 5 P7F ... : ... .. . P81 ... : F-3 01 8 P7A ...
ROW DA : ... .. A ... ... ... : ... .. . ... ... ... : D#3 00 . P7B : ... .. 6 ... : ... .. . ... ... : ... .. . P80 ... : ... .. . P82 ... : D#3 01 8 P87 ...
ROW DB : ... .. 8 ... ... ... : ... .. 6 ... ... ... : C#3 00 . P87 : ... .. 3 ... : ... .. . ... ... : ... .. . ... ... : ... .. . ... ... : D-3 01 8 P7F ...
ROW DC : ... .. . ... ... ... : C-4 00 8 ... ... ... : C-3 00 . P7F : ... .. F ... : ... .. . ... ... : F-5 01 5 P82 ... : ... .. . P80 ... : C#3 01 8 P79 ...
ROW DD : ... .. . ... ... ... : ... .. 7 ... ... ... : B-2 00 . P78 : ... .. C ... : ... .. . ... ... : ... .. . P81 ... : ... .. . P7F ... : C-3 01 8 P75 ...
ROW DE : ... .. . ... ... ... : ... .. . ... ... ... : A#2 00 . P73 : ... .. 6 ... : ... .. . ... ... : ... .. . P7E ... : E-5 01 5 P81 ... : B-2 01 8 P72 ...
ROW DF : ... .. 1 ... ... ... : ... .. 6 ... ... ... : G#2 00 . P8E : ... .. 3 ... : ... .. . ... ... : ... .. . ... ... : ... .. . ... ... : A#2 01 8 P70 ...
ROW E0 : ... .. C ... ... ... : G#3 00 8 ... ... ... : G#4 00 . P80 : ... .. F ... : ... .. . ... ... : ... .. . P7F ... : ... .. . P82 ... : G#4 01 F P80 ...
ROW E1 : ... .. B ... ... ... : ... .. 7 ... ... ... : ... .. . ... : ... .. C ... : ... .. . ... ... : ... .. . P81 ... : F-5 01 5 P7F ... : ... .. D ... ...
ROW E2 : ... .. A ... ... ... : ... .. . ... ... ... : ... .. . ... : ... .. 6 ... : ... .. . ... ... : ... .. . P82 ... : ... .. . P80 ... : ... .. 8 ... ...
ROW E3 : ... .. 8 ... ... ... : ... .. 6 ... ... ... : ... .. . ... : ... .. 3 ... : ... .. . ... ... : F#5 01 5 P80 ... : ... .. . P82 ... : ... .. . ... ...
ROW E4 : ... .. . ... ... ... : F#3 00 8 ... ... ... : ... .. . ... : ... .. 2 ... : ... .. . ... ... : ... .. . ... ... : ... .. . ... ... : ... .. . ... ...
ROW E5 : ... .. . ... ... ... : ... .. 7 ... ... ... : ... .. . ... : ... .. 0 ... : ... .. . ... ... : F-5 01 5 P82 ... : ... .. . P80 ... : ... .. . ... ...
ROW E6 : ... .. . ... ... ... : ... .. . ... ... ... : ... .. . ... : ... .. . ... : ... .. . ... ... : ... .. . P81 ... : ... .. . P7F ... : ... .. . ... ...
ROW E7 : ... .. 1 ... ... ... : ... .. 6 ... ... ... : ... .. . ... : ... .. . ... : ... .. . ... ... : ... .. . P7F ... : E-5 01 5 P82 ... : ... .. . ... ...
ROW E8 : C-4 00 C ... ... ... : D-3 00 8 ... ... ... : G-4 00 . ... : 9-# 00 D ... : ... .. . ... ... : ... .. . P7E ... : ... .. . P81 ... : G#2 01 F ... ...
ROW E9 : ... .. B ... ... ... : ... .. 7 ... ... ... : A-3 00 . ... : ... .. B ... : ... .. . ... ... : ... .. . ... ... : ... .. . ... ... : ... .. D ... ...
ROW EA : ... .. A ... ... ... : ... .. . ... ... ... : D-3 00 . ... : ... .. . ... : ... .. . ... ... : ... .. . P81 ... : F-5 01 5 P7F ... : ... .. 8 ... ...
ROW EB : ... .. 8 ... ... ... : ... .. 6 ... ... ... : C#3 00 . ... : ... .. A ... : ... .. . ... ... : ... .. . P82 ... : ... .. . P80 ... : ... .. . ... ...
ROW EC : ... .. . ... ... ... : C-3 00 8 ... ... ... : G#2 00 . ... : ... .. 8 ... : ... .. . ... ... : F#5 01 5 P80 ... : ... .. . P82 ... : ... .. . ... ...
ROW ED : ... .. . ... ... ... : ... .. 7 ... ... ... : ... .. . ... : ... .. 7 ... : ... .. . ... ... : ... .. . ... ... : ... .. . ... ... : ... .. . ... ...
ROW EE : ... .. . ... ... ... : ... .. . ... ... ... : ... .. . ... : ... .. 6 ... : ... .. . ... ... : ... .. . P7F ... : ... .. . P81 ... : ... .. . ... ...
ROW EF : ... .. 1 ... ... ... : ... .. 6 ... ... ... : ... .. . ... : ... .. . ... : ... .. . ... ... : F-5 01 5 P81 ... : ... .. . P7F ... : ... .. . ... ...
ROW F0 : G#1 00 C ... ... ... : G#4 00 8 ... ... ... : G-2 00 . ... : 1-# 00 F ... : ... .. . ... ... : ... .. . P7F ... : E-5 01 5 P82 ... : G-2 01 8 P84 ...
ROW F1 : ... .. B ... ... ... : ... .. 7 ... ... ... : F#2 00 . P82 : ... .. C ... : ... .. . ... ... : ... .. . P7E ... : ... .. . P81 ... : F#2 01 8 P8B ...
ROW F2 : ... .. A ... ... ... : ... .. . ... ... ... : F-2 00 . P86 : ... .. 6 ... : ... .. . ... ... : ... .. . ... ... : ... .. . ... ... : F-2 01 8 P94 ...
ROW F3 : ... .. 8 ... ... ... : ... .. 6 ... ... ... : E-2 00 . P8C : ... .. 3 ... : ... .. . ... ... : ... .. . P80 ... : F-5 01 5 P7E ... : ... .. . P74 ...
ROW F4 : ... .. . ... ... ... : F#4 00 8 ... ... ... : D#2 00 . P94 : ... .. 2 ... : ... .. . ... ... : ... .. . P82 ... : ... .. . P80 ... : E-2 01 8 P80 ...
ROW F5 : ... .. . ... ... ... : ... .. 7 ... ... ... : ... .. . P74 : ... .. 0 ... : ... .. . ... ... : F#5 01 5 P80 ... : ... .. . P82 ... : D#2 01 8 P8E ...
ROW F6 : ... .. . ... ... ... : ... .. . ... ... ... : D-2 00 . P7F : ... .. . ... : ... .. . ... ... : ... .. . ... ... : ... .. . ... ... : ... .. . P6E ...
ROW F7 : ... .. 1 ... ... ... : ... .. 6 ... ... ... : C#2 00 . P8C : ... .. . ... : ... .. . ... ... : ... .. . P7F ... : ... .. . P81 ... : D-2 01 8 P7F ...
ROW F8 : ... .. C ... ... ... : D-4 00 8 ... ... ... : G#4 00 . P80 : ... .. F ... : ... .. . ... ... : F-5 01 5 P81 ... : ... .. . P7F ... : G#4 01 F P80 ...
ROW F9 : ... .. B ... ... ... : ... .. 7 ... ... ... : ... .. . ... : ... .. C ... : ... .. . ... ... : ... .. . P7F ... : E-5 01 5 P82 ... : ... .. D ... ...
ROW FA : ... .. A ... ... ... : ... .. . ... ... ... : ... .. . ... : ... .. 6 ... : ... .. . ... ... : ... .. . P7E ... : ... .. . P81 ... : ... .. 8 ... ...
ROW FB : ... .. 8 ... ... ... : ... .. 6 ... ... ... : ... .. . ... : ... .. 3 ... : ... .. . ... ... : ... .. . ... ... : ... .. . ... ... : ... .. . ... ...
ROW FC : ... .. . ... ... ... : C-4 00 8 ... ... ... : ... .. . ... : ... .. 2 ... : ... .. . ... ... : ... .. . P80 ... : F-5 01 5 P7E ... : ... .. . ... ...
ROW FD : ... .. . ... ... ... : ... .. 7 ... ... ... : ... .. . ... : ... .. 0 ... : ... .. . ... ... : ... .. . P81 ... : ... .. . P7F ... : ... .. . ... ...
ROW FE : ... .. . ... ... ... : ... .. . ... ... ... : ... .. . ... : ... .. . ... : ... .. . ... ... : F#5 01 5 P80 ... : ... .. . P82 ... : ... .. . ... ...
ROW FF : ... .. 1 ... ... ... : ... .. 6 ... ... ... : ... .. . ... : ... .. . ... : ... .. . ... ... : ... .. . ... ... : ... .. . ... ... : ... .. . ... ...

PATTERN 19
ROW 00 : B-3 00 C ... ... ... : B-4 00 8 ... ... ... : G-5 00 . ... : 9-# 00 D ... : ... .. . ... ... : D#5 01 A P81 ... : D#5 01 A P7F ... : G#3 01 F ... ...
ROW 01 : ... .. B ... ... ... : ... .. 7 ... ... ... : A-4 00 . ... : ... .. B ... : ... .. . ... ... : ... .. 9 ... ... : ... .. 9 ... ... : ... .. D ... ...
ROW 02 : ... .. A ... ... ... : ... .. . ... ... ... : D-4 00 . ... : ... .. . ... : ... .. . ... ... : ... .. 8 ... ... : ... .. 8 ... ... : ... .. 8 ... ...
ROW 03 : ... .. 8 ... ... ... : ... .. 6 ... ... ... : C#4 00 . ... : ... .. A ... : ... .. . ... ... : ... .. 7 ... ... : ... .. 7 ... ... : ... .. . ... ...
ROW 04 : ... .. . ... ... ... : A-4 00 8 ... ... ... : G#3 00 . ... : ... .. 8 ... : ... .. . ... ... : ... .. . ... ... : ... .. . ... ... : ... .. . ... ...
ROW 05 : ... .. . ... ... ... : ... .. 7 ... ... ... : ... .. . ... : ... .. 7 ... : ... .. . ... ... : ... .. 6 ... ... : ... .. 6 ... ... : ... .. . ... ...
ROW 06 : ... .. . ... ... ... : ... .. . ... ... ... : ... .. . ... : ... .. 6 ... : ... .. . ... ... : ... .. . ... ... : ... .. . ... ... : ... .. . ... ...
ROW 07 : ... .. 1 ... ... ... : ... .. 6 ... ... ... : ... .. . ... : ... .. . ... : ... .. . ... ... : ... .. 5 ... ... : ... .. 5 ... ... : ... .. . ... ...
ROW 08 : G#1 00 C ... ... ... : F#4 00 8 ... ... ... : ... .. . ... : 1-# 00 F ... : ... .. . ... ... : E-5 01 A ... ... : E-5 01 A ... ... : ... .. . ... ...
ROW 09 : ... .. B ... ... ... : ... .. 7 ... ... ... : ... .. . ... : ... .. C ... : ... .. . ... ... : F-5 01 9 ... ... : F-5 01 9 ... ... : ... .. . ... ...
ROW 0A : ... .. A ... ... ... : ... .. . ... ... ... : ... .. . ... : ... .. 6 ... : ... .. . ... ... : ... .. 8 ... ... : ... .. 8 ... ... : ... .. . ... ...
ROW 0B : ... .. 8 ... ... ... : ... .. 6 ... ... ... : ... .. . ... : ... .. 3 ... : ... .. . ... ... : ... .. 7 ... ... : ... .. 7 ... ... : ... .. . ... ...
ROW 0C : ... .. . ... ... ... : D-4 00 8 ... ... ... : ... .. . ... : ... .. 2 ... : ... .. . ... ... : ... .. . ... ... : ... .. . ... ... : ... .. . ... ...
ROW 0D : ... .. . ... ... ... : ... .. 7 ... ... ... : ... .. . ... : ... .. 0 ... : ... .. . ... ... : ... .. 6 ... ... : ... .. 6 ... ... : ... .. . ... ...
ROW 0E : ... .. . ... ... ... : ... .. . ... ... ... : ... .. . ... : ... .. . ... : ... .. . ... ... : ... .. . ... ... : ... .. . ... ... : ... .. . ... ...
ROW 0F : ... .. 1 ... ... ... : ... .. 6 ... ... ... : ... .. . ... : ... .. . ... : ... .. . ... ... : ... .. 5 ... ... : ... .. 5 ... ... : ... .. . ... ...
ROW 10 : ... .. C ... ... ... : B-3 00 8 ... ... ... : F#3 00 . ... : ... .. F ... : ... .. . ... ... : F#5 01 A ... ... : F#5 01 A ... ... : F#3 01 F ... ...
ROW 11 : ... .. B ... ... ... : ... .. 7 ... ... ... : ... .. . ... : ... .. C ... : ... .. . ... ... : ... .. 9 ... ... : ... .. 9 ... ... : ... .. D ... ...
ROW 12 : ... .. A ... ... ... : ... .. . ... ... ... : ... .. . ... : ... .. 6 ... : ... .. . ... ... : ... .. 8 ... ... : ... .. 8 ... ... : ... .. 8 ... ...
ROW 13 : ... .. 8 ... ... ... : ... .. 6 ... ... ... : ... .. . ... : ... .. 3 ... : ... .. . ... ... : ... .. 7 ... ... : ... .. 7 ... ... : ... .. . ... ...
ROW 14 : ... .. . ... ... ... : F#3 00 8 ... ... ... : ... .. . ... : ... .. 2 ... : ... .. . ... ... : ... .. . ... ... : ... .. . ... ... : ... .. . ... ...
ROW 15 : ... .. . ... ... ... : ... .. 7 ... ... ... : ... .. . ... : ... .. 0 ... : ... .. . ... ... : ... .. 6 ... ... : ... .. 6 ... ... : ... .. . ... ...
ROW 16 : ... .. . ... ... ... : ... .. . ... ... ... : ... .. . ... : ... .. . ... : ... .. . ... ... : ... .. . ... ... : ... .. . ... ... : ... .. . ... ...
ROW 17 : ... .. 1 ... ... ... : ... .. 6 ... ... ... : ... .. . ... : ... .. . ... : ... .. . ... ... : ... .. 5 ... ... : ... .. 5 ... ... : ... .. . ... ...
ROW 18 : B-3 00 C ... ... ... : B-4 00 8 ... ... ... : G-4 00 . ... : 9-# 00 D ... : ... .. . ... ... : G-5 01 A ... ... : G-5 01 A ... ... : G#2 01 F ... ...
ROW 19 : ... .. B ... ... ... : ... .. 7 ... ... ... : A-3 00 . ... : ... .. B ... : ... .. . ... ... : G#5 01 9 ... ... : G#5 01 9 ... ... : ... .. D ... ...
ROW 1A : ... .. A ... ... ... : ... .. . ... ... ... : D-3 00 . ... : ... .. . ... : ... .. . ... ... : ... .. 8 ... ... : ... .. 8 ... ... : ... .. 8 ... ...
ROW 1B : ... .. 8 ... ... ... : ... .. 6 ... ... ... : C#3 00 . ... : ... .. A ... : ... .. . ... ... : ... .. 7 ... ... : ... .. 7 ... ... : ... .. . ... ...
ROW 1C : ... .. . ... ... ... : A-4 00 8 ... ... ... : G#2 00 . ... : ... .. 8 ... : ... .. . ... ... : ... .. . ... ... : ... .. . ... ... : ... .. . ... ...
ROW 1D : ... .. . ... ... ... : ... .. 7 ... ... ... : ... .. . ... : ... .. 7 ... : ... .. . ... ... : ... .. 6 ... ... : ... .. 6 ... ... : ... .. . ... ...
ROW 1E : ... .. . ... ... ... : ... .. . ... ... ... : ... .. . ... : ... .. 6 ... : ... .. . ... ... : ... .. . ... ... : ... .. . ... ... : ... .. . ... ...
ROW 1F : ... .. 1 ... ... ... : ... .. 6 ... ... ... : ... .. . ... : ... .. . ... : ... .. . ... ... : ... .. 5 ... ... : ... .. 5 ... ... : ... .. . ... ...
ROW 20 : G#1 00 C ... ... ... : F#4 00 8 ... ... ... : F#2 00 . ... : 1-# 00 F ... : ... .. . ... ... : G-5 01 A P80 ... : G-5 01 A P7E ... : F#2 01 F ... ...
ROW 21 : ... .. B ... ... ... : ... .. 7 ... ... ... : ... .. . ... : ... .. C ... : ... .. . ... ... : F#5 01 9 P81 ... : F#5 01 9 P7F ... : ... .. D ... ...
ROW 22 : ... .. A ... ... ... : ... .. . ... ... ... : ... .. . ... : ... .. 6 ... : ... .. . ... ... : ... .. 8 ... ... : ... .. 8 ... ... : ... .. 8 ... ...
ROW 23 : ... .. 8 ... ... ... : ... .. 6 ... ... ... : ... .. . ... : ... .. 3 ... : ... .. . ... ... : ... .. 7 ... ... : ... .. 7 ... ... : ... .. . ... ...
ROW 24 : ... .. . ... ... ... : D-4 00 8 ... ... ... : ... .. . ... : ... .. 2 ... : ... .. . ... ... : ... .. . ... ... : ... .. . ... ... : ... .. . ... ...
ROW 25 : ... .. . ... ... ... : ... .. 7 ... ... ... : ... .. . ... : ... .. 0 ... : ... .. . ... ... : ... .. 6 ... ... : ... .. 6 ... ... : ... .. . ... ...
ROW 26 : ... .. . ... ... ... : ... .. . ... ... ... : ... .. . ... : ... .. . ... : ... .. . ... ... : ... .. . ... ... : ... .. . ... ... : ... .. . ... ...
ROW 27 : ... .. 1 ... ... ... : ... .. 6 ... ... ... : ... .. . ... : ... .. . ... : ... .. . ... ... : ... .. 5 ... ... : ... .. 5 ... ... : ... .. . ... ...
ROW 28 : ... .. C ... ... ... : B-3 00 8 ... ... ... : G#2 00 . ... : 8-# 00 8 ... : ... .. . ... ... : F-5 01 A ... ... : F-5 01 A ... ... : G#2 01 F ... ...
ROW 29 : ... .. B ... ... ... : ... .. 7 ... ... ... : ... .. . ... : ... .. 6 ... : ... .. . ... ... : ... .. 9 ... ... : ... .. 9 ... ... : ... .. D ... ...
ROW 2A : ... .. A ... ... ... : ... .. . ... ... ... : ... .. . ... : ... .. 0 ... : ... .. . ... ... : ... .. 8 ... ... : ... .. 8 ... ... : ... .. 8 ... ...
ROW 2B : ... .. 8 ... ... ... : ... .. 6 ... ... ... : ... .. . ... : ... .. . ... : ... .. . ... ... : ... .. 7 ... ... : ... .. 7 ... ... : ... .. . ... ...
ROW 2C : ... .. . ... ... ... : F#3 00 8 ... ... ... : ... .. . ... : ... .. 8 ... : ... .. . ... ... : ... .. . ... ... : ... .. . ... ... : ... .. . ... ...
ROW 2D : ... .. . ... ... ... : ... .. 7 ... ... ... : ... .. . ... : ... .. 6 ... : ... .. . ... ... : ... .. 6 ... ... : ... .. 6 ... ... : ... .. . ... ...
ROW 2E : ... .. . ... ... ... : ... .. . ... ... ... : ... .. . ... : ... .. 0 ... : ... .. . ... ... : ... .. . ... ... : ... .. . ... ... : ... .. . ... ...
ROW 2F : ... .. 1 ... ... ... : ... .. 6 ... ... ... : ... .. . ... : ... .. . ... : ... .. . ... ... : ... .. 5 ... ... : ... .. 5 ... ... : ... .. . ... ...
ROW 30 : C-4 00 C ... ... ... : C-5 00 8 ... ... ... : G-5 00 . ... : 9-# 00 D ... : ... .. . ... ... : F#5 01 A ... ... : F#5 01 A ... ... : G#3 01 F ... ...
ROW 31 : ... .. B ... ... ... : ... .. 7 ... ... ... : A-4 00 . ... : ... .. B ... : ... .. . ... ... : ... .. 9 ... ... : ... .. 9 ... ... : ... .. D ... ...
ROW 32 : ... .. A ... ... ... : ... .. . ... ... ... : D-4 00 . ... : ... .. . ... : ... .. . ... ... : ... .. 8 ... ... : ... .. 8 ... ... : ... .. 8 ... ...
ROW 33 : ... .. 8 ... ... ... : ... .. 6 ... ... ... : C#4 00 . ... : ... .. A ... : ... .. . ... ... : ... .. 7 ... ... : ... .. 7 ... ... : ... .. . ... ...
ROW 34 : ... .. . ... ... ... : G#4 00 8 ... ... ... : G#3 00 . ... : ... .. 8 ... : ... .. . ... ... : ... .. . ... ... : ... .. . ... ... : ... .. . ... ...
ROW 35 : ... .. . ... ... ... : ... .. 7 ... ... ... : ... .. . ... : ... .. 7 ... : ... .. . ... ... : ... .. 6 ... ... : ... .. 6 ... ... : ... .. . ... ...
ROW 36 : ... .. . ... ... ... : ... .. . ... ... ... : ... .. . ... : ... .. 6 ... : ... .. . ... ... : ... .. . ... ... : ... .. . ... ... : ... .. . ... ...
ROW 37 : ... .. 1 ... ... ... : ... .. 6 ... ... ... : ... .. . ... : ... .. . ... : ... .. . ... ... : ... .. 5 ... ... : ... .. 5 ... ... : ... .. . ... ...
ROW 38 : G#1 00 C ... ... ... : D#4 00 8 ... ... ... : F#3 00 . P81 : 1-# 00 F ... : ... .. . ... ... : ... .. . ... ... : ... .. . ... ... : F#3 01 8 P86 ...
ROW 39 : ... .. B ... ... ... : ... .. 7 ... ... ... : E-3 00 . P86 : ... .. C ... : ... .. . ... ... : ... .. . ... ... : ... .. . ... ... : F-3 01 8 P7A ...
ROW 3A : ... .. A ... ... ... : ... .. . ... ... ... : D#3 00 . P7B : ... .. 6 ... : ... .. . ... ... : ... .. . ... ... : ... .. . ... ... : D#3 01 8 P87 ...
ROW 3B : ... .. 8 ... ... ... : ... .. 6 ... ... ... : C#3 00 . P87 : ... .. 3 ... : ... .. . ... ... : ... .. . ... ... : ... .. . ... ... : D-3 01 8 P7F ...
ROW 3C : ... .. . ... ... ... : C-4 00 8 ... ... ... : C-3 00 . P7F : ... .. F ... : ... .. . ... ... : ... .. . ... ... : ... .. . ... ... : C#3 01 8 P79 ...
ROW 3D : ... .. . ... ... ... : ... .. 7 ... ... ... : B-2 00 . P78 : ... .. C ... : ... .. . ... ... : ... .. . ... ... : ... .. . ... ... : C-3 01 8 P75 ...
ROW 3E : ... .. . ... ... ... : ... .. . ... ... ... : A#2 00 . P73 : ... .. 6 ... : ... .. . ... ... : ... .. . ... ... : ... .. . ... ... : B-2 01 8 P72 ...
ROW 3F : ... .. 1 ... ... ... : ... .. 6 ... ... ... : G#2 00 . P8E : ... .. 3 ... : ... .. . ... ... : ... .. . ... ... : ... .. . ... ... : A#2 01 8 P70 ...
ROW 40 : ... .. C ... ... ... : G#3 00 8 ... ... ... : G#4 00 . P80 : ... .. F ... : ... .. . ... ... : ... .. . ... ... : ... .. . ... ... : G#4 01 F P80 ...
ROW 41 : ... .. B ... ... ... : ... .. 7 ... ... ... : ... .. . ... : ... .. C ... : ... .. . ... ... : ... .. . ... ... : ... .. . ... ... : ... .. D ... ...
ROW 42 : ... .. A ... ... ... : ... .. . ... ... ... : ... .. . ... : ... .. 6 ... : ... .. . ... ... : ... .. . ... ... : ... .. . ... ... : ... .. 8 ... ...
ROW 43 : ... .. 8 ... ... ... : ... .. 6 ... ... ... : ... .. . ... : ... .. 3 ... : ... .. . ... ... : ... .. . ... ... : ... .. . ... ... : ... .. . ... ...
ROW 44 : ... .. . ... ... ... : D#3 00 8 ... ... ... : ... .. . ... : ... .. 2 ... : ... .. . ... ... : ... .. . ... ... : ... .. . ... ... : ... .. . ... ...
ROW 45 : ... .. . ... ... ... : ... .. 7 ... ... ... : ... .. . ... : ... .. 0 ... : ... .. . ... ... : ... .. . ... ... : ... .. . ... ... : ... .. . ... ...
ROW 46 : ... .. . ... ... ... : ... .. . ... ... ... : ... .. . ... : ... .. . ... : ... .. . ... ... : ... .. . ... ... : ... .. . ... ... : ... .. . ... ...
ROW 47 : ... .. 1 ... ... ... : ... .. 6 ... ... ... : ... .. . ... : ... .. . ... : ... .. . ... ... : ... .. . ... ... : ... .. . ... ... : ... .. . ... ...
ROW 48 : C-4 00 C ... ... ... : C-5 00 8 ... ... ... : G-4 00 . ... : 9-# 00 D ... : ... .. . ... ... : ... .. . ... ... : ... .. . ... ... : G#2 01 F ... ...
ROW 49 : ... .. B ... ... ... : ... .. 7 ... ... ... : A-3 00 . ... : ... .. B ... : ... .. . ... ... : ... .. . ... ... : ... .. . ... ... : ... .. D ... ...
ROW 4A : ... .. A ... ... ... : ... .. . ... ... ... : D-3 00 . ... : ... .. . ... : ... .. . ... ... : G-5 01 5 P80 ... : G-5 01 5 P7E ... : ... .. 8 ... ...
ROW 4B : ... .. 8 ... ... ... : ... .. 6 ... ... ... : C#3 00 . ... : ... .. A ... : ... .. . ... ... : ... .. . P82 ... : ... .. . P80 ... : ... .. . ... ...
ROW 4C : ... .. . ... ... ... : G#4 00 8 ... ... ... : G#2 00 . ... : ... .. 8 ... : ... .. . ... ... : ... .. . P81 ... : ... .. . P7F ... : ... .. . ... ...
ROW 4D : ... .. . ... ... ... : ... .. 7 ... ... ... : ... .. . ... : ... .. 7 ... : ... .. . ... ... : ... .. . P7E ... : F#5 01 5 P81 ... : ... .. . ... ...
ROW 4E : ... .. . ... ... ... : ... .. . ... ... ... : ... .. . ... : ... .. 6 ... : ... .. . ... ... : F#5 01 5 P7F ... : F-5 01 5 ... ... : ... .. . ... ...
ROW 4F : ... .. 1 ... ... ... : ... .. 6 ... ... ... : ... .. . ... : ... .. . ... : ... .. . ... ... : F-5 01 5 P80 ... : ... .. . P7E ... : ... .. . ... ...
ROW 50 : G#1 00 C ... ... ... : D#4 00 8 ... ... ... : G-2 00 . ... : 1-# 00 F ... : ... .. . ... ... : ... .. . P7F ... : E-5 01 5 P82 ... : G-2 01 8 P84 ...
ROW 51 : ... .. B ... ... ... : ... .. 7 ... ... ... : F#2 00 . P82 : ... .. C ... : ... .. . ... ... : ... .. . P81 ... : F-5 01 5 P7F ... : F#2 01 8 P8B ...
ROW 52 : ... .. A ... ... ... : ... .. . ... ... ... : F-2 00 . P86 : ... .. 6 ... : ... .. . ... ... : F#5 01 5 ... ... : F#5 01 5 ... ... : F-2 01 8 P94 ...
ROW 53 : ... .. 8 ... ... ... : ... .. 6 ... ... ... : E-2 00 . P8C : ... .. 3 ... : ... .. . ... ... : G-5 01 5 P7F ... : ... .. . P82 ... : ... .. . P74 ...
ROW 54 : ... .. . ... ... ... : C-4 00 8 ... ... ... : D#2 00 . P94 : ... .. 2 ... : ... .. . ... ... : ... .. . P82 ... : G-5 01 5 P80 ... : E-2 01 8 P80 ...
ROW 55 : ... .. . ... ... ... : ... .. 7 ... ... ... : ... .. . P74 : ... .. 0 ... : ... .. . ... ... : ... .. . ... ... : ... .. . ... ... : D#2 01 8 P8E ...
ROW 56 : ... .. . ... ... ... : ... .. . ... ... ... : D-2 00 . P7F : ... .. . ... : ... .. . ... ... : ... .. . P7E ... : F#5 01 5 P81 ... : ... .. . P6E ...
ROW 57 : ... .. 1 ... ... ... : ... .. 6 ... ... ... : C#2 00 . P8C : ... .. . ... : ... .. . ... ... : F#5 01 5 P80 ... : F-5 01 5 P82 ... : D-2 01 8 P7F ...
ROW 58 : ... .. C ... ... ... : G#3 00 8 ... ... ... : G#4 00 . P80 : ... .. F ... : ... .. . ... ... : F-5 01 5 ... ... : ... .. . P7E ... : G#4 01 F P80 ...
ROW 59 : ... .. B ... ... ... : ... .. 7 ... ... ... : ... .. . ... : ... .. C ... : ... .. . ... ... : ... .. . P7F ... : E-5 01 5 P82 ... : ... .. D ... ...
ROW 5A : ... .. A ... ... ... : ... .. . ... ... ... : ... .. . ... : ... .. 6 ... : ... .. . ... ... : ... .. . P81 ... : F-5 01 5 P7F ... : ... .. 8 ... ...
ROW 5B : ... .. 8 ... ... ... : ... .. 6 ... ... ... : ... .. . ... : ... .. 3 ... : ... .. . ... ... : F#5 01 5 ... ... : F#5 01 5 ... ... : ... .. . ... ...
ROW 5C : ... .. . ... ... ... : D#3 00 8 ... ... ... : ... .. . ... : ... .. 2 ... : ... .. . ... ... : G-5 01 5 P7F ... : ... .. . P82 ... : ... .. . ... ...
ROW 5D : ... .. . ... ... ... : ... .. 7 ... ... ... : ... .. . ... : ... .. 0 ... : ... .. . ... ... : ... .. . P82 ... : G-5 01 5 P80 ... : ... .. . ... ...
ROW 5E : ... .. . ... ... ... : ... .. . ... ... ... : ... .. . ... : ... .. . ... : ... .. . ... ... : ... .. . ... ... : ... .. . ... ... : ... .. . ... ...
ROW 5F : ... .. 1 ... ... ... : ... .. 6 ... ... ... : ... .. . ... : ... .. . ... : ... .. . ... ... : ... .. . P7F ... : F#5 01 5 P82 ... : ... .. . ... ...
ROW 60 : B-3 00 C ... ... ... : D-5 00 8 ... ... ... : G-5 00 . ... : 9-# 00 D ... : ... .. . ... ... : F#5 01 5 P81 ... : ... .. . P7F ... : G#3 01 F ... ...
ROW 61 : ... .. B ... ... ... : ... .. 7 ... ... ... : A-4 00 . ... : ... .. B ... : ... .. . ... ... : F-5 01 5 ... ... : F-5 01 5 ... ... : ... .. D ... ...
ROW 62 : ... .. A ... ... ... : ... .. . ... ... ... : D-4 00 . ... : ... .. . ... : ... .. . ... ... : ... .. . P7F ... : E-5 01 5 P82 ... : ... .. 8 ... ...
ROW 63 : ... .. 8 ... ... ... : ... .. 6 ... ... ... : C#4 00 . ... : ... .. A ... : ... .. . ... ... : ... .. . P80 ... : F-5 01 5 P7E ... : ... .. . ... ...
ROW 64 : ... .. . ... ... ... : C-5 00 8 ... ... ... : G#3 00 . ... : ... .. 8 ... : ... .. . ... ... : F#5 01 5 ... ... : ... .. . P82 ... : ... .. . ... ...
ROW 65 : ... .. . ... ... ... : ... .. 7 ... ... ... : ... .. . ... : ... .. 7 ... : ... .. . ... ... : G-5 01 5 P7E ... : F#5 01 5 P81 ... : ... .. . ... ...
ROW 66 : ... .. . ... ... ... : ... .. . ... ... ... : ... .. . ... : ... .. 6 ... : ... .. . ... ... : ... .. . P82 ... : G-5 01 5 P80 ... : ... .. . ... ...
ROW 67 : ... .. 1 ... ... ... : ... .. 6 ... ... ... : ... .. . ... : ... .. . ... : ... .. . ... ... : ... .. . ... ... : ... .. . ... ... : ... .. . ... ...
ROW 68 : G#1 00 C ... ... ... : G#4 00 8 ... ... ... : ... .. . ... : 1-# 00 F ... : ... .. . ... ... : ... .. . P7F ... : F#5 01 5 P82 ... : ... .. . ... ...
ROW 69 : ... .. B ... ... ... : ... .. 7 ... ... ... : ... .. . ... : ... .. C ... : ... .. . ... ... : F#5 01 5 P81 ... : ... .. . P7F ... : ... .. . ... ...
ROW 6A : ... .. A ... ... ... : ... .. . ... ... ... : ... .. . ... : ... .. 6 ... : ... .. . ... ... : F-5 01 5 ... ... : F-5 01 5 ... ... : ... .. . ... ...
ROW 6B : ... .. 8 ... ... ... : ... .. 6 ... ... ... : ... .. . ... : ... .. 3 ... : ... .. . ... ... : ... .. . P7F ... : E-5 01 5 P82 ... : ... .. . ... ...
ROW 6C : ... .. . ... ... ... : F#4 00 8 ... ... ... : ... .. . ... : ... .. 2 ... : ... .. . ... ... : ... .. . P80 ... : F-5 01 5 P7E ... : ... .. . ... ...
ROW 6D : ... .. . ... ... ... : ... .. 7 ... ... ... : ... .. . ... : ... .. 0 ... : ... .. . ... ... : F#5 01 5 P7F ... : ... .. . P81 ... : ... .. . ... ...
ROW 6E : ... .. . ... ... ... : ... .. . ... ... ... : ... .. . ... : ... .. . ... : ... .. . ... ... : G-5 01 5 P7E ... : F#5 01 5 ... ... : ... .. . ... ...
ROW 6F : ... .. 1 ... ... ... : ... .. 6 ... ... ... : ... .. . ... : ... .. . ... : ... .. . ... ... : ... .. . P81 ... : G-5 01 5 P7F ... : ... .. . ... ...
ROW 70 : B-3 00 C ... ... ... : D-4 00 8 ... ... ... : F#3 00 . ... : 9-# 00 D ... : ... .. . ... ... : ... .. . P82 ... : ... .. . P80 ... : F#3 01 F ... ...
ROW 71 : ... .. B ... ... ... : ... .. 7 ... ... ... : ... .. . ... : ... .. B ... : ... .. . ... ... : ... .. . P80 ... : ... .. . P7E ... : ... .. D ... ...
ROW 72 : ... .. A ... ... ... : ... .. . ... ... ... : ... .. . ... : ... .. . ... : ... .. . ... ... : F#5 01 5 P81 ... : F#5 01 5 P7F ... : ... .. 8 ... ...
ROW 73 : ... .. 8 ... ... ... : ... .. 6 ... ... ... : ... .. . ... : ... .. A ... : ... .. . ... ... : F-5 01 5 P82 ... : F-5 01 5 P80 ... : ... .. . ... ...
ROW 74 : ... .. . ... ... ... : C-4 00 8 ... ... ... : ... .. . ... : ... .. 8 ... : ... .. . ... ... : ... .. . P7F ... : E-5 01 5 P82 ... : ... .. . ... ...
ROW 75 : ... .. . ... ... ... : ... .. 7 ... ... ... : ... .. . ... : ... .. 7 ... : ... .. . ... ... : ... .. . ... ... : ... .. . ... ... : ... .. . ... ...
ROW 76 : ... .. . ... ... ... : ... .. . ... ... ... : ... .. . ... : ... .. 6 ... : ... .. . ... ... : F#5 01 5 ... ... : F-5 01 5 P81 ... : ... .. . ... ...
ROW 77 : ... .. 1 ... ... ... : ... .. 6 ... ... ... : ... .. . ... : ... .. . ... : ... .. . ... ... : ... .. . P82 ... : F#5 01 5 P80 ... : ... .. . ... ...
ROW 78 : G#1 00 C ... ... ... : G#3 00 8 ... ... ... : G#2 00 . ... : 2-# 00 F ... : ... .. . ... ... : G-5 01 5 P81 ... : G-5 01 5 P7F ... : G#2 01 F ... ...
ROW 79 : ... .. B ... ... ... : ... .. 7 ... ... ... : ... .. . ... : ... .. C ... : ... .. . ... ... : ... .. . P82 ... : ... .. . P80 ... : ... .. D ... ...
ROW 7A : ... .. A ... ... ... : ... .. . ... ... ... : ... .. . ... : ... .. 6 ... : ... .. . ... ... : ... .. . P80 ... : ... .. . P7E ... : ... .. 8 ... ...
ROW 7B : ... .. 8 ... ... ... : ... .. 6 ... ... ... : ... .. . ... : ... .. 3 ... : ... .. . ... ... : F#5 01 5 P81 ... : F#5 01 5 P7F ... : ... .. . ... ...
ROW 7C : ... .. . ... ... ... : F#3 00 8 ... ... ... : ... .. . ... : ... .. F ... : ... .. . ... ... : F-5 01 5 P82 ... : F-5 01 5 P80 ... : ... .. . ... ...
ROW 7D : ... .. . ... ... ... : ... .. 7 ... ... ... : ... .. . ... : ... .. C ... : ... .. . ... ... : ... .. . P7F ... : E-5 01 5 P82 ... : ... .. . ... ...
ROW 7E : ... .. . ... ... ... : ... .. . ... ... ... : ... .. . ... : ... .. 6 ... : ... .. . ... ... : F#5 01 5 P81 ... : F#5 01 5 P7F ... : ... .. . ... ...
ROW 7F : ... .. 1 ... ... ... : ... .. 6 ... ... ... : ... .. . ... : ... .. 3 ... : ... .. . ... ... : ... .. . ... ... : ... .. . ... ... : ... .. . ... ...
ROW 80 : D#4 00 C ... ... ... : ... .. F ... ... ... : A#5 00 . ... : B-# 00 C ... : ... .. . ... ... : ... .. 6 ... ... : ... .. A ... ... : B-1 01 F ... ...
ROW 81 : ... .. B ... ... ... : ... .. E ... ... ... : C-5 00 . ... : ... .. . ... : ... .. . ... ... : ... .. . ... ... : ... .. 9 ... ... : ... .. D ... ...
ROW 82 : ... .. A ... ... ... : ... .. D ... ... ... : F-4 00 . ... : ... .. A ... : ... .. . ... ... : ... .. 5 ... ... : ... .. 8 P80 ... : ... .. 8 ... ...
ROW 83 : ... .. 8 ... ... ... : ... .. A ... ... ... : E-4 00 . ... : ... .. . ... : ... .. . ... ... : ... .. 4 ... ... : ... .. 7 ... ... : ... .. . ... ...
ROW 84 : ... .. . ... ... ... : ... .. . ... ... ... : B-3 00 . ... : ... .. 9 ... : ... .. . ... ... : D#5 01 6 ... ... : ... .. . ... ... : ... .. . ... ...
ROW 85 : ... .. . ... ... ... : ... .. . ... ... ... : ... .. . ... : ... .. . ... : ... .. . ... ... : ... .. . ... ... : ... .. 6 ... ... : ... .. . ... ...
ROW 86 : ... .. . ... ... ... : ... .. . ... ... ... : ... .. . ... : ... .. 8 ... : ... .. . ... ... : ... .. 5 ... ... : ... .. 5 ... ... : ... .. . ... ...
ROW 87 : ... .. 1 ... ... ... : ... .. . ... ... ... : ... .. . ... : ... .. . ... : ... .. . ... ... : ... .. 4 ... ... : ... .. . ... ... : ... .. . ... ...
ROW 88 : B-1 00 C ... ... ... : G#3 00 F ... ... ... : A-3 00 . P7C : ... .. 7 ... : ... .. . ... ... : B-4 01 6 ... ... : D#3 01 A ... ... : A#1 01 8 P9E ...
ROW 89 : ... .. B ... ... ... : ... .. E ... ... ... : G-3 00 . P7B : ... .. . ... : ... .. . ... ... : ... .. . ... ... : ... .. 9 ... ... : ... .. . P7E ...
ROW 8A : ... .. A ... ... ... : ... .. D ... ... ... : F-3 00 . P7E : ... .. 6 ... : ... .. . ... ... : ... .. 5 ... ... : ... .. 8 ... ... : A-1 01 8 P9F ...
ROW 8B : ... .. 8 ... ... ... : ... .. A ... ... ... : D#3 00 . P86 : ... .. . ... : ... .. . ... ... : ... .. 4 ... ... : ... .. 7 ... ... : ... .. . P7F ...
ROW 8C : ... .. . ... ... ... : ... .. . ... ... ... : D-3 00 . P7B : ... .. 5 ... : ... .. . ... ... : F#4 01 6 ... ... : ... .. . ... ... : ... .. . P5F ...
ROW 8D : ... .. . ... ... ... : ... .. . ... ... ... : C-3 00 . P8A : ... .. . ... : ... .. . ... ... : ... .. . ... ... : ... .. 6 ... ... : G#1 01 8 P84 ...
ROW 8E : ... .. . ... ... ... : ... .. . ... ... ... : B-2 00 . P83 : ... .. 4 ... : ... .. . ... ... : ... .. 5 ... ... : ... .. 5 ... ... : ... .. . P64 ...
ROW 8F : ... .. 1 ... ... ... : ... .. . ... ... ... : A#2 00 . P7E : ... .. . ... : ... .. . ... ... : ... .. 4 ... ... : ... .. . ... ... : G-1 01 8 P8E ...
ROW 90 : ... .. C ... ... ... : A-3 00 F ... ... ... : B-4 00 . P80 : 1-# 00 F ... : ... .. . ... ... : D#4 01 6 ... ... : ... .. A ... ... : B-2 01 F P80 ...
ROW 91 : ... .. B ... ... ... : ... .. E ... ... ... : ... .. . ... : ... .. C ... : ... .. . ... ... : ... .. . ... ... : ... .. 9 ... ... : ... .. D ... ...
ROW 92 : ... .. A ... ... ... : ... .. D ... ... ... : ... .. . ... : ... .. 6 ... : ... .. . ... ... : ... .. 5 ... ... : ... .. 8 ... ... : ... .. 8 ... ...
ROW 93 : ... .. 8 ... ... ... : ... .. A ... ... ... : ... .. . ... : ... .. 3 ... : ... .. . ... ... : ... .. 4 ... ... : ... .. 7 ... ... : ... .. . ... ...
ROW 94 : ... .. . ... ... ... : ... .. . ... ... ... : ... .. . ... : ... .. 2 ... : ... .. . ... ... : B-3 01 6 ... ... : ... .. . ... ... : ... .. . ... ...
ROW 95 : ... .. . ... ... ... : ... .. . ... ... ... : ... .. . ... : ... .. 0 ... : ... .. . ... ... : ... .. . ... ... : ... .. 6 ... ... : ... .. . ... ...
ROW 96 : ... .. . ... ... ... : ... .. . ... ... ... : ... .. . ... : ... .. . ... : ... .. . ... ... : ... .. 5 ... ... : ... .. 5 ... ... : ... .. . ... ...
ROW 97 : ... .. 1 ... ... ... : ... .. . ... ... ... : ... .. . ... : ... .. . ... : ... .. . ... ... : ... .. 4 ... ... : ... .. . ... ... : ... .. . ... ...
ROW 98 : D#4 00 C ... ... ... : B-3 00 F ... ... ... : A#4 00 . ... : 9-# 00 D ... : ... .. . ... ... : F#5 01 6 ... ... : F#5 01 A ... ... : B-0 01 F ... ...
ROW 99 : ... .. B ... ... ... : ... .. E ... ... ... : C-4 00 . ... : ... .. B ... : ... .. . ... ... : ... .. . ... ... : ... .. 9 ... ... : ... .. D ... ...
ROW 9A : ... .. A ... ... ... : ... .. D ... ... ... : F-3 00 . ... : ... .. . ... : ... .. . ... ... : ... .. 5 ... ... : ... .. 8 ... ... : ... .. 8 ... ...
ROW 9B : ... .. 8 ... ... ... : ... .. A ... ... ... : E-3 00 . ... : ... .. A ... : ... .. . ... ... : ... .. 4 ... ... : ... .. 7 ... ... : ... .. . ... ...
ROW 9C : ... .. . ... ... ... : ... .. . ... ... ... : B-2 00 . ... : ... .. 8 ... : ... .. . ... ... : D#5 01 6 ... ... : ... .. . ... ... : ... .. . ... ...
ROW 9D : ... .. . ... ... ... : ... .. . ... ... ... : ... .. . ... : ... .. 7 ... : ... .. . ... ... : ... .. . ... ... : ... .. 6 ... ... : ... .. . ... ...
ROW 9E : ... .. . ... ... ... : ... .. . ... ... ... : ... .. . ... : ... .. 6 ... : ... .. . ... ... : ... .. 5 ... ... : ... .. 5 ... ... : ... .. . ... ...
ROW 9F : ... .. 1 ... ... ... : ... .. . ... ... ... : ... .. . ... : ... .. . ... : ... .. . ... ... : ... .. 4 ... ... : ... .. . ... ... : ... .. . ... ...
ROW A0 : B-1 00 C ... ... ... : ... .. . ... ... ... : A#2 00 . P7B : 1-# 00 F ... : ... .. . ... ... : B-4 01 6 ... ... : D#3 01 A ... ... : ... .. . P60 ...
ROW A1 : ... .. B ... ... ... : ... .. . ... ... ... : A-2 00 . P77 : ... .. C ... : ... .. . ... ... : ... .. . ... ... : ... .. 9 ... ... : A#0 01 8 PBB ...
ROW A2 : ... .. A ... ... ... : ... .. . ... ... ... : G#2 00 . P76 : ... .. 6 ... : ... .. . ... ... : ... .. 5 ... ... : ... .. 8 ... ... : ... .. . P9B ...
ROW A3 : ... .. 8 ... ... ... : ... .. . ... ... ... : G-2 00 . ... : ... .. 3 ... : ... .. . ... ... : ... .. 4 ... ... : ... .. 7 ... ... : ... .. . P7B ...
ROW A4 : ... .. . ... ... ... : ... .. . ... ... ... : F#2 00 . P78 : ... .. 2 ... : ... .. . ... ... : F#4 01 6 ... ... : ... .. . ... ... : ... .. . P5B ...
ROW A5 : ... .. . ... ... ... : ... .. . ... ... ... : F-2 00 . P7C : ... .. 0 ... : ... .. . ... ... : ... .. . ... ... : ... .. 6 ... ... : A-0 01 8 PBD ...
ROW A6 : ... .. . ... ... ... : ... .. . P84 ... ... : E-2 00 . P82 : ... .. . ... : ... .. . ... ... : ... .. 5 ... ... : ... .. 5 ... ... : ... .. . P9D ...
ROW A7 : ... .. 1 ... ... ... : ... .. . P86 ... ... : D#2 00 . P8A : ... .. . ... : ... .. . ... ... : ... .. 4 ... ... : ... .. . ... ... : ... .. . P7D ...
ROW A8 : ... .. C ... ... ... : ... .. . P85 ... ... : B-4 00 . P80 : ... .. F ... : ... .. . ... ... : D#4 01 6 ... ... : ... .. A ... ... : B-2 01 F P80 ...
ROW A9 : ... .. B ... ... ... : ... .. . P82 ... ... : ... .. . ... : ... .. C ... : ... .. . ... ... : ... .. . ... ... : ... .. 9 ... ... : ... .. D ... ...
ROW AA : ... .. A ... ... ... : ... .. . P7E ... ... : ... .. . ... : ... .. 6 ... : ... .. . ... ... : ... .. 5 ... ... : ... .. 8 ... ... : ... .. 8 ... ...
ROW AB : ... .. 8 ... ... ... : ... .. . P7B ... ... : ... .. . ... : ... .. 3 ... : ... .. . ... ... : ... .. 4 ... ... : ... .. 7 ... ... : ... .. . ... ...
ROW AC : ... .. . ... ... ... : ... .. . P7A ... ... : ... .. . ... : ... .. 2 ... : ... .. . ... ... : B-3 01 6 ... ... : ... .. . ... ... : ... .. . ... ...
ROW AD : ... .. . ... ... ... : ... .. . P7C ... ... : ... .. . ... : ... .. 0 ... : ... .. . ... ... : ... .. . ... ... : ... .. 6 ... ... : ... .. . ... ...
ROW AE : ... .. . ... ... ... : ... .. . P80 ... ... : ... .. . ... : ... .. . ... : ... .. . ... ... : ... .. 5 ... ... : ... .. 5 ... ... : ... .. . ... ...
ROW AF : ... .. 1 ... ... ... : ... .. . P83 ... ... : ... .. . ... : ... .. . ... : ... .. . ... ... : ... .. 4 ... ... : ... .. . ... ... : ... .. . ... ...
ROW B0 : D-4 00 C ... ... ... : A-3 00 F P80 ... ... : A#5 00 . ... : B-# 00 D ... : ... .. . ... ... : G-5 01 6 ... ... : F-5 01 A ... ... : B-1 01 F ... ...
ROW B1 : ... .. B ... ... ... : ... .. E ... ... ... : C-5 00 . ... : ... .. B ... : ... .. . ... ... : ... .. . ... ... : ... .. 9 ... ... : ... .. D ... ...
ROW B2 : ... .. A ... ... ... : ... .. D ... ... ... : F-4 00 . ... : ... .. . ... : ... .. . ... ... : ... .. 5 ... ... : ... .. 8 ... ... : ... .. 8 ... ...
ROW B3 : ... .. 8 ... ... ... : ... .. A ... ... ... : E-4 00 . ... : ... .. A ... : ... .. . ... ... : ... .. 4 ... ... : ... .. 7 ... ... : ... .. . ... ...
ROW B4 : ... .. . ... ... ... : ... .. . ... ... ... : B-3 00 . ... : ... .. 8 ... : ... .. . ... ... : F-5 01 6 ... ... : ... .. . ... ... : ... .. . ... ...
ROW B5 : ... .. . ... ... ... : ... .. . ... ... ... : ... .. . ... : ... .. 7 ... : ... .. . ... ... : ... .. . ... ... : ... .. 6 ... ... : ... .. . ... ...
ROW B6 : ... .. . ... ... ... : ... .. . ... ... ... : ... .. . ... : ... .. 6 ... : ... .. . ... ... : ... .. 5 ... ... : ... .. 5 ... ... : ... .. . ... ...
ROW B7 : ... .. 1 ... ... ... : ... .. . ... ... ... : ... .. . ... : ... .. . ... : ... .. . ... ... : ... .. 4 ... ... : ... .. . ... ... : ... .. . ... ...
ROW B8 : B-1 00 C ... ... ... : B-3 00 F ... ... ... : ... .. . ... : 1-# 00 F ... : ... .. . ... ... : B-4 01 6 ... ... : D-3 01 A ... ... : ... .. . ... ...
ROW B9 : ... .. B ... ... ... : ... .. E ... ... ... : ... .. . ... : ... .. C ... : ... .. . ... ... : ... .. . ... ... : ... .. 9 ... ... : ... .. . ... ...
ROW BA : ... .. A ... ... ... : ... .. D ... ... ... : ... .. . ... : ... .. 6 ... : ... .. . ... ... : ... .. 5 ... ... : ... .. 8 ... ... : ... .. . ... ...
ROW BB : ... .. 8 ... ... ... : ... .. A ... ... ... : ... .. . ... : ... .. 3 ... : ... .. . ... ... : ... .. 4 ... ... : ... .. 7 ... ... : ... .. . ... ...
ROW BC : ... .. . ... ... ... : ... .. . ... ... ... : ... .. . ... : ... .. 2 ... : ... .. . ... ... : A-4 01 6 ... ... : ... .. . ... ... : ... .. . ... ...
ROW BD : ... .. . ... ... ... : ... .. . ... ... ... : ... .. . ... : ... .. 0 ... : ... .. . ... ... : ... .. . ... ... : ... .. 6 ... ... : ... .. . ... ...
ROW BE : ... .. . ... ... ... : ... .. . ... ... ... : ... .. . ... : ... .. . ... : ... .. . ... ... : ... .. 5 ... ... : ... .. 5 ... ... : ... .. . ... ...
ROW BF : ... .. 1 ... ... ... : ... .. . ... ... ... : ... .. . ... : ... .. . ... : ... .. . ... ... : ... .. 4 ... ... : ... .. . ... ... : ... .. . ... ...
ROW C0 : ... .. C ... ... ... : A-4 00 F ... ... ... : A-3 00 . ... : ... .. F ... : ... .. . ... ... : F-4 01 6 ... ... : ... .. A ... ... : A-1 01 F ... ...
ROW C1 : ... .. B ... ... ... : ... .. E ... ... ... : ... .. . ... : ... .. C ... : ... .. . ... ... : ... .. . ... ... : ... .. 9 ... ... : ... .. D ... ...
ROW C2 : ... .. A ... ... ... : ... .. D ... ... ... : ... .. . ... : ... .. 6 ... : ... .. . ... ... : ... .. 5 ... ... : ... .. 8 ... ... : ... .. 8 ... ...
ROW C3 : ... .. 8 ... ... ... : ... .. A ... ... ... : ... .. . ... : ... .. 3 ... : ... .. . ... ... : ... .. 4 ... ... : ... .. 7 ... ... : ... .. . ... ...
ROW C4 : ... .. . ... ... ... : ... .. . ... ... ... : ... .. . ... : ... .. 2 ... : ... .. . ... ... : D#4 01 6 ... ... : ... .. . ... ... : ... .. . ... ...
ROW C5 : ... .. . ... ... ... : ... .. . ... ... ... : ... .. . ... : ... .. 0 ... : ... .. . ... ... : ... .. . ... ... : ... .. 6 ... ... : ... .. . ... ...
ROW C6 : ... .. . ... ... ... : ... .. . ... ... ... : ... .. . ... : ... .. . ... : ... .. . ... ... : ... .. 5 ... ... : ... .. 5 ... ... : ... .. . ... ...
ROW C7 : ... .. 1 ... ... ... : ... .. . ... ... ... : ... .. . ... : ... .. . ... : ... .. . ... ... : ... .. 4 ... ... : ... .. . ... ... : ... .. . ... ...
ROW C8 : D-4 00 C ... ... ... : ... .. . ... ... ... : A#4 00 . ... : 9-# 00 D ... : ... .. . ... ... : G-5 01 6 ... ... : F-5 01 A ... ... : B-0 01 F ... ...
ROW C9 : ... .. B ... ... ... : ... .. . ... ... ... : C-4 00 . ... : ... .. B ... : ... .. . ... ... : ... .. . ... ... : ... .. 9 ... ... : ... .. D ... ...
ROW CA : ... .. A ... ... ... : ... .. . ... ... ... : F-3 00 . ... : ... .. . ... : ... .. . ... ... : ... .. 5 ... ... : ... .. 8 ... ... : ... .. 8 ... ...
ROW CB : ... .. 8 ... ... ... : ... .. . ... ... ... : E-3 00 . ... : ... .. A ... : ... .. . ... ... : ... .. 4 ... ... : ... .. 7 ... ... : ... .. . ... ...
ROW CC : ... .. . ... ... ... : ... .. . ... ... ... : B-2 00 . ... : ... .. 8 ... : ... .. . ... ... : F-5 01 6 ... ... : ... .. . ... ... : ... .. . ... ...
ROW CD : ... .. . ... ... ... : ... .. . ... ... ... : ... .. . ... : ... .. 7 ... : ... .. . ... ... : ... .. . ... ... : ... .. 6 ... ... : ... .. . ... ...
ROW CE : ... .. . ... ... ... : ... .. . ... ... ... : ... .. . ... : ... .. 6 ... : ... .. . ... ... : ... .. 5 ... ... : ... .. 5 ... ... : ... .. . ... ...
ROW CF : ... .. 1 ... ... ... : ... .. . ... ... ... : ... .. . ... : ... .. . ... : ... .. . ... ... : ... .. 4 ... ... : ... .. . ... ... : ... .. . ... ...
ROW D0 : B-1 00 C ... ... ... : A#4 00 A P7D ... ... : A-2 00 . ... : 1-# 00 F ... : ... .. . ... ... : B-4 01 6 ... ... : D-3 01 A ... ... : A-0 01 F ... ...
ROW D1 : ... .. B ... ... ... : ... .. . P7F ... ... : ... .. . ... : ... .. C ... : ... .. . ... ... : ... .. . ... ... : ... .. 9 ... ... : ... .. D ... ...
ROW D2 : ... .. A ... ... ... : ... .. . P7E ... ... : ... .. . ... : ... .. 6 ... : ... .. . ... ... : ... .. 5 ... ... : ... .. 8 ... ... : ... .. 8 ... ...
ROW D3 : ... .. 8 ... ... ... : A-4 00 A P82 ... ... : ... .. . ... : ... .. 3 ... : ... .. . ... ... : ... .. 4 ... ... : ... .. 7 ... ... : ... .. . ... ...
ROW D4 : ... .. . ... ... ... : ... .. . P7E ... ... : ... .. . ... : ... .. 2 ... : ... .. . ... ... : A-4 01 6 ... ... : ... .. . ... ... : ... .. . ... ...
ROW D5 : ... .. . ... ... ... : G#4 00 A P83 ... ... : ... .. . ... : ... .. 0 ... : ... .. . ... ... : ... .. . ... ... : ... .. 6 ... ... : ... .. . ... ...
ROW D6 : ... .. . ... ... ... : ... .. . P82 ... ... : ... .. . ... : ... .. . ... : ... .. . ... ... : ... .. 5 ... ... : ... .. 5 ... ... : ... .. . ... ...
ROW D7 : ... .. 1 ... ... ... : ... .. . P84 ... ... : ... .. . ... : ... .. . ... : ... .. . ... ... : ... .. 4 ... ... : ... .. . ... ... : ... .. . ... ...
ROW D8 : ... .. C ... ... ... : A-4 00 A P80 ... ... : B-2 00 . ... : 8-# 00 8 ... : ... .. . ... ... : F-4 01 6 ... ... : ... .. A ... ... : B-0 01 F ... ...
ROW D9 : ... .. B ... ... ... : ... .. . P83 ... ... : ... .. . ... : ... .. 6 ... : ... .. . ... ... : ... .. . ... ... : ... .. 9 ... ... : ... .. D ... ...
ROW DA : ... .. A ... ... ... : A#4 00 A P7F ... ... : ... .. . ... : ... .. 0 ... : ... .. . ... ... : ... .. 5 ... ... : ... .. 8 ... ... : ... .. 8 ... ...
ROW DB : ... .. 8 ... ... ... : ... .. . ... ... ... : ... .. . ... : ... .. . ... : ... .. . ... ... : ... .. 4 ... ... : ... .. 7 ... ... : ... .. . ... ...
ROW DC : ... .. . ... ... ... : A-4 00 A P82 ... ... : ... .. . ... : ... .. 8 ... : ... .. . ... ... : D#4 01 6 ... ... : ... .. . ... ... : ... .. . ... ...
ROW DD : ... .. . ... ... ... : ... .. . P7F ... ... : ... .. . ... : ... .. 6 ... : ... .. . ... ... : ... .. . ... ... : ... .. 6 ... ... : ... .. . ... ...
ROW DE : ... .. . ... ... ... : G#4 00 A P83 ... ... : ... .. . ... : ... .. 0 ... : ... .. . ... ... : ... .. 5 ... ... : ... .. 5 ... ... : ... .. . ... ...
ROW DF : ... .. 1 ... ... ... : ... .. . P82 ... ... : ... .. . ... : ... .. . ... : ... .. . ... ... : ... .. 4 ... ... : ... .. . ... ... : ... .. . ... ...
ROW E0 : D#4 00 C ... ... ... : ... .. . P84 ... ... : A#5 00 . ... : 9-# 00 D ... : ... .. . ... ... : F#5 01 6 ... ... : F#5 01 A ... ... : B-1 01 F ... ...
ROW E1 : ... .. B ... ... ... : A-4 00 2 P80 ... ... : C-5 00 . ... : ... .. B ... : ... .. . ... ... : ... .. . ... ... : ... .. 9 ... ... : ... .. D ... ...
ROW E2 : ... .. A ... ... ... : ... .. . P83 ... ... : F-4 00 . ... : ... .. . ... : ... .. . ... ... : ... .. 5 ... ... : ... .. 8 ... ... : ... .. 8 ... ...
ROW E3 : ... .. 8 ... ... ... : A#4 00 2 P7F ... ... : E-4 00 . ... : ... .. A ... : ... .. . ... ... : ... .. 4 ... ... : ... .. 7 ... ... : ... .. . ... ...
ROW E4 : ... .. . ... ... ... : ... .. 1 ... ... ... : B-3 00 . ... : ... .. 8 ... : ... .. . ... ... : D#5 01 6 ... ... : ... .. . ... ... : ... .. . ... ...
ROW E5 : ... .. . ... ... ... : A-4 00 1 P83 ... ... : ... .. . ... : ... .. 7 ... : ... .. . ... ... : ... .. . ... ... : ... .. 6 ... ... : ... .. . ... ...
ROW E6 : ... .. . ... ... ... : ... .. . P80 ... ... : ... .. . ... : ... .. 6 ... : ... .. . ... ... : ... .. 5 ... ... : ... .. 5 ... ... : ... .. . ... ...
ROW E7 : ... .. 1 ... ... ... : ... .. 0 ... ... ... : ... .. . ... : ... .. . ... : ... .. . ... ... : ... .. 4 ... ... : ... .. . ... ... : ... .. . ... ...
ROW E8 : B-1 00 C ... ... ... : A-4 00 F P80 ... ... : A-3 00 . P7C : 1-# 00 F ... : ... .. . ... ... : B-4 01 6 ... ... : D#3 01 A ... ... : A#1 01 8 P9E ...
ROW E9 : ... .. B ... ... ... : ... .. E ... ... ... : G-3 00 . P7B : ... .. C ... : ... .. . ... ... : ... .. . ... ... : ... .. 9 ... ... : ... .. . P7E ...
ROW EA : ... .. A ... ... ... : ... .. D ... ... ... : F-3 00 . P7E : ... .. 6 ... : ... .. . ... ... : ... .. 5 ... ... : ... .. 8 ... ... : A-1 01 8 P9F ...
ROW EB : ... .. 8 ... ... ... : A#4 00 A P82 ... ... : D#3 00 . P86 : ... .. 3 ... : ... .. . ... ... : ... .. 4 ... ... : ... .. 7 ... ... : ... .. . P7F ...
ROW EC : ... .. . ... ... ... : B-4 00 A P80 ... ... : D-3 00 . P7B : ... .. F ... : ... .. . ... ... : F#4 01 6 ... ... : ... .. . ... ... : ... .. . P5F ...
ROW ED : ... .. . ... ... ... : ... .. . ... ... ... : C-3 00 . P8A : ... .. C ... : ... .. . ... ... : ... .. . ... ... : ... .. 6 ... ... : G#1 01 8 P84 ...
ROW EE : ... .. . ... ... ... : ... .. . ... ... ... : B-2 00 . P83 : ... .. 6 ... : ... .. . ... ... : ... .. 5 ... ... : ... .. 5 ... ... : ... .. . P64 ...
ROW EF : ... .. 1 ... ... ... : ... .. . ... ... ... : A#2 00 . P7E : ... .. 3 ... : ... .. . ... ... : ... .. 4 ... ... : ... .. . ... ... : G-1 01 8 P8E ...
ROW F0 : ... .. C ... ... ... : ... .. . ... ... ... : B-4 00 . P80 : ... .. F ... : ... .. . ... ... : D#4 01 6 ... ... : ... .. A ... ... : B-2 01 F P80 ...
ROW F1 : ... .. B ... ... ... : ... .. . ... ... ... : ... .. . ... : ... .. C ... : ... .. . ... ... : ... .. . ... ... : ... .. 9 ... ... : ... .. D ... ...
ROW F2 : ... .. A ... ... ... : ... .. . ... ... ... : ... .. . ... : ... .. 6 ... : ... .. . ... ... : ... .. 5 ... ... : ... .. 8 ... ... : ... .. 8 ... ...
ROW F3 : ... .. 8 ... ... ... : ... .. 2 ... ... ... : ... .. . ... : ... .. 3 ... : ... .. . ... ... : ... .. 4 ... ... : ... .. 7 ... ... : ... .. . ... ...
ROW F4 : ... .. . ... ... ... : ... .. . ... ... ... : ... .. . ... : ... .. 2 ... : ... .. . ... ... : B-3 01 6 ... ... : ... .. . ... ... : ... .. . ... ...
ROW F5 : ... .. . ... ... ... : ... .. . ... ... ... : ... .. . ... : ... .. 0 ... : ... .. . ... ... : ... .. . ... ... : ... .. 6 ... ... : ... .. . ... ...
ROW F6 : ... .. . ... ... ... : ... .. 1 ... ... ... : ... .. . ... : ... .. . ... : ... .. . ... ... : ... .. 5 ... ... : ... .. 5 ... ... : ... .. . ... ...
ROW F7 : ... .. 1 ... ... ... : ... .. . ... ... ... : ... .. . ... : ... .. . ... : ... .. . ... ... : ... .. 4 ... ... : ... .. . ... ... : ... .. . ... ...
ROW F8 : D#4 00 C ... ... ... : F#4 00 F ... ... ... : A#4 00 . ... : 9-# 00 D ... : ... .. . ... ... : F#5 01 6 ... ... : F#5 01 A ... ... : B-0 01 F ... ...
ROW F9 : ... .. B ... ... ... : ... .. E ... ... ... : C-4 00 . ... : ... .. B ... : ... .. . ... ... : ... .. . ... ... : ... .. 9 ... ... : ... .. D ... ...
ROW FA : ... .. A ... ... ... : ... .. D ... ... ... : F-3 00 . ... : ... .. . ... : ... .. . ... ... : ... .. 5 ... ... : ... .. 8 ... ... : ... .. 8 ... ...
ROW FB : ... .. 8 ... ... ... : ... .. A ... ... ... : E-3 00 . ... : ... .. A ... : ... .. . ... ... : ... .. 4 ... ... : ... .. 7 ... ... : ... .. . ... ...
ROW FC : ... .. . ... ... ... : ... .. . ... ... ... : B-2 00 . ... : ... .. 8 ... : ... .. . ... ... : D#5 01 6 ... ... : ... .. . ... ... : ... .. . ... ...
ROW FD : ... .. . ... ... ... : ... .. . ... ... ... : ... .. . ... : ... .. 7 ... : ... .. . ... ... : ... .. . ... ... : ... .. 6 ... ... : ... .. . ... ...
ROW FE : ... .. . ... ... ... : ... .. . ... ... ... : ... .. . ... : ... .. 6 ... : ... .. . ... ... : ... .. 5 ... ... : ... .. 5 ... ... : ... .. . ... ...
ROW FF : ... .. 1 ... ... ... : ... .. . ... ... ... : ... .. . ... : ... .. . ... : ... .. . ... ... : ... .. 4 ... ... : ... .. . ... ... : ... .. . ... ...

PATTERN 1A
ROW 00 : B-1 00 C ... ... ... : D#4 00 F ... ... ... : A#2 00 . P7B : 1-# 00 F ... : ... .. . ... ... : B-4 01 6 ... ... : D#3 01 A ... ... : ... .. . P60 ...
ROW 01 : ... .. B ... ... ... : ... .. E ... ... ... : A-2 00 . P77 : ... .. C ... : ... .. . ... ... : ... .. . ... ... : ... .. 9 ... ... : A#0 01 8 PBB ...
ROW 02 : ... .. A ... ... ... : ... .. D ... ... ... : G#2 00 . P76 : ... .. 6 ... : ... .. . ... ... : ... .. 5 ... ... : ... .. 8 ... ... : ... .. . P9B ...
ROW 03 : ... .. 8 ... ... ... : ... .. A ... ... ... : G-2 00 . ... : ... .. 3 ... : ... .. . ... ... : ... .. 4 ... ... : ... .. 7 ... ... : ... .. . P7B ...
ROW 04 : ... .. . ... ... ... : ... .. . ... ... ... : F#2 00 . P78 : ... .. 2 ... : ... .. . ... ... : F#4 01 6 ... ... : ... .. . ... ... : ... .. . P5B ...
ROW 05 : ... .. . ... ... ... : ... .. . ... ... ... : F-2 00 . P7C : ... .. 0 ... : ... .. . ... ... : ... .. . ... ... : ... .. 6 ... ... : A-0 01 8 PBD ...
ROW 06 : ... .. . ... ... ... : ... .. . ... ... ... : E-2 00 . P82 : ... .. . ... : ... .. . ... ... : ... .. 5 ... ... : ... .. 5 ... ... : ... .. . P9D ...
ROW 07 : ... .. 1 ... ... ... : ... .. 2 ... ... ... : D#2 00 . P8A : ... .. . ... : ... .. . ... ... : ... .. 4 ... ... : ... .. . ... ... : ... .. . P7D ...
ROW 08 : ... .. C ... ... ... : B-3 00 F ... ... ... : B-4 00 . P80 : ... .. F ... : ... .. . ... ... : D#4 01 6 ... ... : ... .. A ... ... : B-2 01 F P80 ...
ROW 09 : ... .. B ... ... ... : ... .. E ... ... ... : ... .. . ... : ... .. C ... : ... .. . ... ... : ... .. . ... ... : ... .. 9 ... ... : ... .. D ... ...
ROW 0A : ... .. A ... ... ... : ... .. D ... ... ... : ... .. . ... : ... .. 6 ... : ... .. . ... ... : ... .. 5 ... ... : ... .. 8 ... ... : ... .. 8 ... ...
ROW 0B : ... .. 8 ... ... ... : ... .. A ... ... ... : ... .. . ... : ... .. 3 ... : ... .. . ... ... : ... .. 4 ... ... : ... .. 7 ... ... : ... .. . ... ...
ROW 0C : ... .. . ... ... ... : ... .. . ... ... ... : ... .. . ... : ... .. 2 ... : ... .. . ... ... : B-3 01 6 ... ... : ... .. . ... ... : ... .. . ... ...
ROW 0D : ... .. . ... ... ... : ... .. . ... ... ... : ... .. . ... : ... .. 0 ... : ... .. . ... ... : ... .. . ... ... : ... .. 6 ... ... : ... .. . ... ...
ROW 0E : ... .. . ... ... ... : ... .. . ... ... ... : ... .. . ... : ... .. . ... : ... .. . ... ... : ... .. 5 ... ... : ... .. 5 ... ... : ... .. . ... ...
ROW 0F : ... .. 1 ... ... ... : ... .. 2 ... ... ... : ... .. . ... : ... .. . ... : ... .. . ... ... : ... .. 4 ... ... : ... .. . ... ... : ... .. . ... ...
ROW 10 : D-4 00 C ... ... ... : C-4 00 F ... ... ... : A#5 00 . ... : 9-# 00 D ... : ... .. . ... ... : G-5 01 6 ... ... : F-5 01 A ... ... : B-1 01 F ... ...
ROW 11 : ... .. B ... ... ... : ... .. E ... ... ... : C-5 00 . ... : ... .. B ... : ... .. . ... ... : ... .. . ... ... : ... .. 9 ... ... : ... .. D ... ...
ROW 12 : ... .. A ... ... ... : ... .. D ... ... ... : F-4 00 . ... : ... .. . ... : ... .. . ... ... : ... .. 5 ... ... : ... .. 8 ... ... : ... .. 8 ... ...
ROW 13 : ... .. 8 ... ... ... : ... .. A ... ... ... : E-4 00 . ... : ... .. A ... : ... .. . ... ... : ... .. 4 ... ... : ... .. 7 ... ... : ... .. . ... ...
ROW 14 : ... .. . ... ... ... : ... .. . ... ... ... : B-3 00 . ... : ... .. 8 ... : ... .. . ... ... : F-5 01 6 ... ... : ... .. . ... ... : ... .. . ... ...
ROW 15 : ... .. . ... ... ... : ... .. . ... ... ... : ... .. . ... : ... .. 7 ... : ... .. . ... ... : ... .. . ... ... : ... .. 6 ... ... : ... .. . ... ...
ROW 16 : ... .. . ... ... ... : ... .. . ... ... ... : ... .. . ... : ... .. 6 ... : ... .. . ... ... : ... .. 5 ... ... : ... .. 5 ... ... : ... .. . ... ...
ROW 17 : ... .. 1 ... ... ... : ... .. . ... ... ... : ... .. . ... : ... .. . ... : ... .. . ... ... : ... .. 4 ... ... : ... .. . ... ... : ... .. . ... ...
ROW 18 : B-1 00 C ... ... ... : B-3 00 F ... ... ... : ... .. . ... : 1-# 00 F ... : ... .. . ... ... : B-4 01 6 ... ... : D-3 01 A ... ... : ... .. . ... ...
ROW 19 : ... .. B ... ... ... : ... .. E ... ... ... : ... .. . ... : ... .. C ... : ... .. . ... ... : ... .. . ... ... : ... .. 9 ... ... : ... .. . ... ...
ROW 1A : ... .. A ... ... ... : ... .. D ... ... ... : ... .. . ... : ... .. 6 ... : ... .. . ... ... : ... .. 5 ... ... : ... .. 8 ... ... : ... .. . ... ...
ROW 1B : ... .. 8 ... ... ... : ... .. A ... ... ... : ... .. . ... : ... .. 3 ... : ... .. . ... ... : ... .. 4 ... ... : ... .. 7 ... ... : ... .. . ... ...
ROW 1C : ... .. . ... ... ... : ... .. . ... ... ... : ... .. . ... : ... .. 2 ... : ... .. . ... ... : A-4 01 6 ... ... : ... .. . ... ... : ... .. . ... ...
ROW 1D : ... .. . ... ... ... : ... .. . ... ... ... : ... .. . ... : ... .. 0 ... : ... .. . ... ... : ... .. . ... ... : ... .. 6 ... ... : ... .. . ... ...
ROW 1E : ... .. . ... ... ... : ... .. . ... ... ... : ... .. . ... : ... .. . ... : ... .. . ... ... : ... .. 5 ... ... : ... .. 5 ... ... : ... .. . ... ...
ROW 1F : ... .. 1 ... ... ... : ... .. 2 ... ... ... : ... .. . ... : ... .. . ... : ... .. . ... ... : ... .. 4 ... ... : ... .. . ... ... : ... .. . ... ...
ROW 20 : D-4 00 C ... ... ... : F-3 00 F ... ... ... : A-3 00 . ... : 9-# 00 D ... : ... .. . ... ... : B-5 01 6 ... ... : F-5 01 A ... ... : A-1 01 F ... ...
ROW 21 : ... .. B ... ... ... : ... .. E ... ... ... : ... .. . ... : ... .. B ... : ... .. . ... ... : ... .. . ... ... : ... .. 9 ... ... : ... .. D ... ...
ROW 22 : ... .. A ... ... ... : ... .. D ... ... ... : ... .. . ... : ... .. . ... : ... .. . ... ... : ... .. 5 ... ... : ... .. 8 ... ... : ... .. 8 ... ...
ROW 23 : ... .. 8 ... ... ... : ... .. A ... ... ... : ... .. . ... : ... .. A ... : ... .. . ... ... : ... .. 4 ... ... : ... .. 7 ... ... : ... .. . ... ...
ROW 24 : ... .. . ... ... ... : ... .. . ... ... ... : ... .. . ... : ... .. 8 ... : ... .. . ... ... : A-5 01 6 ... ... : ... .. . ... ... : ... .. . ... ...
ROW 25 : ... .. . ... ... ... : ... .. . ... ... ... : ... .. . ... : ... .. 7 ... : ... .. . ... ... : ... .. . ... ... : ... .. 6 ... ... : ... .. . ... ...
ROW 26 : ... .. . ... ... ... : ... .. . ... ... ... : ... .. . ... : ... .. 6 ... : ... .. . ... ... : ... .. 5 ... ... : ... .. 5 ... ... : ... .. . ... ...
ROW 27 : ... .. 1 ... ... ... : ... .. . ... ... ... : ... .. . ... : ... .. . ... : ... .. . ... ... : ... .. 4 ... ... : ... .. . ... ... : ... .. . ... ...
ROW 28 : B-1 00 C ... ... ... : ... .. . ... ... ... : A-4 00 . ... : 2-# 00 F ... : ... .. . ... ... : F-5 01 6 ... ... : D-3 01 A ... ... : A-2 01 F ... ...
ROW 29 : ... .. B ... ... ... : ... .. 2 ... ... ... : ... .. . ... : ... .. C ... : ... .. . ... ... : ... .. . ... ... : ... .. 9 ... ... : ... .. D ... ...
ROW 2A : ... .. A ... ... ... : ... .. . ... ... ... : ... .. . ... : ... .. 6 ... : ... .. . ... ... : ... .. 5 ... ... : ... .. 8 ... ... : ... .. 8 ... ...
ROW 2B : ... .. 8 ... ... ... : ... .. . ... ... ... : ... .. . ... : ... .. 3 ... : ... .. . ... ... : ... .. 4 ... ... : ... .. 7 ... ... : ... .. . ... ...
ROW 2C : ... .. . ... ... ... : ... .. 1 ... ... ... : ... .. . ... : ... .. F ... : ... .. . ... ... : D#5 01 6 ... ... : ... .. . ... ... : ... .. . ... ...
ROW 2D : ... .. . ... ... ... : ... .. . ... ... ... : ... .. . ... : ... .. C ... : ... .. . ... ... : ... .. . ... ... : ... .. 6 ... ... : ... .. . ... ...
ROW 2E : ... .. . ... ... ... : ... .. . ... ... ... : ... .. . ... : ... .. 6 ... : ... .. . ... ... : ... .. 5 ... ... : ... .. 5 ... ... : ... .. . ... ...
ROW 2F : ... .. 1 ... ... ... : ... .. 0 ... ... ... : ... .. . ... : ... .. 3 ... : ... .. . ... ... : ... .. 4 ... ... : ... .. . ... ... : ... .. . ... ...
ROW 30 : D#4 00 C ... ... ... : D#3 00 F P80 ... ... : A#5 00 . ... : B-# 00 C ... : ... .. . ... ... : B-4 01 6 ... ... : F#5 01 A ... ... : B-1 01 F ... ...
ROW 31 : ... .. B ... ... ... : ... .. E ... ... ... : C-5 00 . ... : ... .. . ... : ... .. . ... ... : ... .. . ... ... : ... .. 9 ... ... : ... .. D ... ...
ROW 32 : ... .. A ... ... ... : ... .. D ... ... ... : F-4 00 . ... : ... .. A ... : ... .. . ... ... : ... .. 5 ... ... : ... .. 8 ... ... : ... .. 8 ... ...
ROW 33 : ... .. 8 ... ... ... : ... .. A ... ... ... : E-4 00 . ... : ... .. . ... : ... .. . ... ... : ... .. 4 ... ... : ... .. 7 ... ... : ... .. . ... ...
ROW 34 : ... .. . ... ... ... : ... .. . ... ... ... : B-3 00 . ... : ... .. 9 ... : ... .. . ... ... : A-4 01 6 ... ... : ... .. . ... ... : ... .. . ... ...
ROW 35 : ... .. . ... ... ... : ... .. . ... ... ... : ... .. . ... : ... .. . ... : ... .. . ... ... : ... .. . ... ... : ... .. 6 ... ... : ... .. . ... ...
ROW 36 : ... .. . ... ... ... : ... .. . ... ... ... : ... .. . ... : ... .. 8 ... : ... .. . ... ... : ... .. 5 ... ... : ... .. 5 ... ... : ... .. . ... ...
ROW 37 : ... .. 1 ... ... ... : ... .. . ... ... ... : ... .. . ... : ... .. . ... : ... .. . ... ... : ... .. 4 ... ... : ... .. . ... ... : ... .. . ... ...
ROW 38 : B-1 00 C ... ... ... : A-3 00 F ... ... ... : A-3 00 . P7C : ... .. 7 ... : ... .. . ... ... : F-4 01 6 ... ... : D#3 01 A ... ... : A#1 01 8 P9E ...
ROW 39 : ... .. B ... ... ... : ... .. E ... ... ... : G-3 00 . P7B : ... .. . ... : ... .. . ... ... : ... .. . ... ... : ... .. 9 ... ... : ... .. . P7E ...
ROW 3A : ... .. A ... ... ... : ... .. D ... ... ... : F-3 00 . P7E : ... .. 6 ... : ... .. . ... ... : ... .. 5 ... ... : ... .. 8 ... ... : A-1 01 8 P9F ...
ROW 3B : ... .. 8 ... ... ... : ... .. A ... ... ... : D#3 00 . P86 : ... .. . ... : ... .. . ... ... : ... .. 4 ... ... : ... .. 7 ... ... : ... .. . P7F ...
ROW 3C : ... .. . ... ... ... : ... .. . ... ... ... : D-3 00 . P7B : ... .. 5 ... : ... .. . ... ... : D#4 01 6 ... ... : ... .. . ... ... : ... .. . P5F ...
ROW 3D : ... .. . ... ... ... : ... .. . ... ... ... : C-3 00 . P8A : ... .. . ... : ... .. . ... ... : ... .. . ... ... : ... .. 6 ... ... : G#1 01 8 P84 ...
ROW 3E : ... .. . ... ... ... : ... .. . ... ... ... : B-2 00 . P83 : ... .. 4 ... : ... .. . ... ... : ... .. 5 ... ... : ... .. 5 ... ... : ... .. . P64 ...
ROW 3F : ... .. 1 ... ... ... : ... .. 2 ... ... ... : A#2 00 . P7E : ... .. . ... : ... .. . ... ... : ... .. 4 ... ... : ... .. . ... ... : G-1 01 8 P8E ...
ROW 40 : ... .. C ... ... ... : D#4 00 F ... ... ... : B-4 00 . P80 : 1-# 00 F ... : ... .. . ... ... : B-3 01 6 ... ... : ... .. A ... ... : B-2 01 F P80 ...
ROW 41 : ... .. B ... ... ... : ... .. E ... ... ... : ... .. . ... : ... .. C ... : ... .. . ... ... : ... .. . ... ... : ... .. 9 ... ... : ... .. D ... ...
ROW 42 : ... .. A ... ... ... : ... .. D ... ... ... : ... .. . ... : ... .. 6 ... : ... .. . ... ... : ... .. 5 ... ... : ... .. 8 ... ... : ... .. 8 ... ...
ROW 43 : ... .. 8 ... ... ... : ... .. A ... ... ... : ... .. . ... : ... .. 3 ... : ... .. . ... ... : ... .. 4 ... ... : ... .. 7 ... ... : ... .. . ... ...
ROW 44 : ... .. . ... ... ... : ... .. . ... ... ... : ... .. . ... : ... .. 2 ... : ... .. . ... ... : A-3 01 6 ... ... : ... .. . ... ... : ... .. . ... ...
ROW 45 : ... .. . ... ... ... : E-4 00 A P7F ... ... : ... .. . ... : ... .. 0 ... : ... .. . ... ... : ... .. . ... ... : ... .. 6 ... ... : ... .. . ... ...
ROW 46 : ... .. . ... ... ... : F-4 00 A P7E ... ... : ... .. . ... : ... .. . ... : ... .. . ... ... : ... .. 5 ... ... : ... .. 5 ... ... : ... .. . ... ...
ROW 47 : ... .. 1 ... ... ... : ... .. . P80 ... ... : ... .. . ... : ... .. . ... : ... .. . ... ... : ... .. 4 ... ... : ... .. . ... ... : ... .. . ... ...
ROW 48 : D#4 00 C ... ... ... : ... .. . ... ... ... : A#4 00 . ... : 9-# 00 D ... : ... .. . ... ... : F-3 01 6 ... ... : F#5 01 A ... ... : B-0 01 F ... ...
ROW 49 : ... .. B ... ... ... : ... .. . ... ... ... : C-4 00 . ... : ... .. B ... : ... .. . ... ... : ... .. . ... ... : ... .. 9 ... ... : ... .. D ... ...
ROW 4A : ... .. A ... ... ... : ... .. . ... ... ... : F-3 00 . ... : ... .. . ... : ... .. . ... ... : ... .. 5 ... ... : ... .. 8 ... ... : ... .. 8 ... ...
ROW 4B : ... .. 8 ... ... ... : ... .. . ... ... ... : E-3 00 . ... : ... .. A ... : ... .. . ... ... : ... .. 4 ... ... : ... .. 7 ... ... : ... .. . ... ...
ROW 4C : ... .. . ... ... ... : ... .. . ... ... ... : B-2 00 . ... : ... .. 8 ... : ... .. . ... ... : D#3 01 6 ... ... : ... .. . ... ... : ... .. . ... ...
ROW 4D : ... .. . ... ... ... : ... .. . ... ... ... : ... .. . ... : ... .. 7 ... : ... .. . ... ... : ... .. . ... ... : ... .. 6 ... ... : ... .. . ... ...
ROW 4E : ... .. . ... ... ... : ... .. . ... ... ... : ... .. . ... : ... .. 6 ... : ... .. . ... ... : ... .. 5 ... ... : ... .. 5 ... ... : ... .. . ... ...
ROW 4F : ... .. 1 ... ... ... : ... .. . ... ... ... : ... .. . ... : ... .. . ... : ... .. . ... ... : ... .. 4 ... ... : ... .. . ... ... : ... .. . ... ...
ROW 50 : B-1 00 C ... ... ... : ... .. . ... ... ... : A#2 00 . P7B : 1-# 00 F ... : ... .. . ... ... : B-4 01 6 ... ... : D#3 01 A ... ... : ... .. . P60 ...
ROW 51 : ... .. B ... ... ... : ... .. . ... ... ... : A-2 00 . P77 : ... .. C ... : ... .. . ... ... : ... .. . ... ... : ... .. 9 ... ... : A#0 01 8 PBB ...
ROW 52 : ... .. A ... ... ... : ... .. . ... ... ... : G#2 00 . P76 : ... .. 6 ... : ... .. . ... ... : ... .. 5 ... ... : ... .. 8 ... ... : ... .. . P9B ...
ROW 53 : ... .. 8 ... ... ... : ... .. . ... ... ... : G-2 00 . ... : ... .. 3 ... : ... .. . ... ... : ... .. 4 ... ... : ... .. 7 ... ... : ... .. . P7B ...
ROW 54 : ... .. . ... ... ... : ... .. . ... ... ... : F#2 00 . P78 : ... .. 2 ... : ... .. . ... ... : A-4 01 6 ... ... : ... .. . ... ... : ... .. . P5B ...
ROW 55 : ... .. . ... ... ... : ... .. . ... ... ... : F-2 00 . P7C : ... .. 0 ... : ... .. . ... ... : ... .. . ... ... : ... .. 6 ... ... : A-0 01 8 PBD ...
ROW 56 : ... .. . ... ... ... : ... .. . ... ... ... : E-2 00 . P82 : ... .. . ... : ... .. . ... ... : ... .. 5 ... ... : ... .. 5 ... ... : ... .. . P9D ...
ROW 57 : ... .. 1 ... ... ... : ... .. . ... ... ... : D#2 00 . P8A : ... .. . ... : ... .. . ... ... : ... .. 4 ... ... : ... .. . ... ... : ... .. . P7D ...
ROW 58 : ... .. C ... ... ... : ... .. . P84 ... ... : B-4 00 . P80 : ... .. F ... : ... .. . ... ... : F-4 01 6 ... ... : ... .. A ... ... : B-2 01 F P80 ...
ROW 59 : ... .. B ... ... ... : F#4 00 A P7D ... ... : ... .. . ... : ... .. C ... : ... .. . ... ... : ... .. . ... ... : ... .. 9 ... ... : ... .. D ... ...
ROW 5A : ... .. A ... ... ... : ... .. . P7C ... ... : ... .. . ... : ... .. 6 ... : ... .. . ... ... : ... .. 5 ... ... : ... .. 8 ... ... : ... .. 8 ... ...
ROW 5B : ... .. 8 ... ... ... : F-4 00 A P82 ... ... : ... .. . ... : ... .. 3 ... : ... .. . ... ... : ... .. 4 ... ... : ... .. 7 ... ... : ... .. . ... ...
ROW 5C : ... .. . ... ... ... : ... .. . P7E ... ... : ... .. . ... : ... .. 2 ... : ... .. . ... ... : D#4 01 6 ... ... : ... .. . ... ... : ... .. . ... ...
ROW 5D : ... .. . ... ... ... : E-4 00 A P85 ... ... : ... .. . ... : ... .. 0 ... : ... .. . ... ... : ... .. . ... ... : ... .. 6 ... ... : ... .. . ... ...
ROW 5E : ... .. . ... ... ... : ... .. . P84 ... ... : ... .. . ... : ... .. . ... : ... .. . ... ... : ... .. 5 ... ... : ... .. 5 ... ... : ... .. . ... ...
ROW 5F : ... .. 1 ... ... ... : F-4 00 A P7C ... ... : ... .. . ... : ... .. . ... : ... .. . ... ... : ... .. 4 ... ... : ... .. . ... ... : ... .. . ... ...
ROW 60 : D-4 00 C ... ... ... : ... .. . P80 ... ... : A#5 00 . ... : 9-# 00 D ... : ... .. . ... ... : D-5 01 6 ... ... : F-5 01 A ... ... : B-1 01 F ... ...
ROW 61 : ... .. B ... ... ... : ... .. . P83 ... ... : C-5 00 . ... : ... .. B ... : ... .. . ... ... : ... .. . ... ... : ... .. 9 ... ... : ... .. D ... ...
ROW 62 : ... .. A ... ... ... : F#4 00 A P7D ... ... : F-4 00 . ... : ... .. . ... : ... .. . ... ... : ... .. 5 ... ... : ... .. 8 ... ... : ... .. 8 ... ...
ROW 63 : ... .. 8 ... ... ... : ... .. . ... ... ... : E-4 00 . ... : ... .. A ... : ... .. . ... ... : ... .. 4 ... ... : ... .. 7 ... ... : ... .. . ... ...
ROW 64 : ... .. . ... ... ... : F-4 00 A P82 ... ... : B-3 00 . ... : ... .. 8 ... : ... .. . ... ... : C-5 01 6 ... ... : ... .. . ... ... : ... .. . ... ...
ROW 65 : ... .. . ... ... ... : ... .. . P7F ... ... : ... .. . ... : ... .. 7 ... : ... .. . ... ... : ... .. . ... ... : ... .. 6 ... ... : ... .. . ... ...
ROW 66 : ... .. . ... ... ... : E-4 00 A P85 ... ... : ... .. . ... : ... .. 6 ... : ... .. . ... ... : ... .. 5 ... ... : ... .. 5 ... ... : ... .. . ... ...
ROW 67 : ... .. 1 ... ... ... : ... .. . P84 ... ... : ... .. . ... : ... .. . ... : ... .. . ... ... : ... .. 4 ... ... : ... .. . ... ... : ... .. . ... ...
ROW 68 : B-1 00 C ... ... ... : F-4 00 A P7C ... ... : ... .. . ... : 1-# 00 F ... : ... .. . ... ... : A-4 01 6 ... ... : D-3 01 A ... ... : ... .. . ... ...
ROW 69 : ... .. B ... ... ... : ... .. . P80 ... ... : ... .. . ... : ... .. C ... : ... .. . ... ... : ... .. . ... ... : ... .. 9 ... ... : ... .. . ... ...
ROW 6A : ... .. A ... ... ... : ... .. . P83 ... ... : ... .. . ... : ... .. 6 ... : ... .. . ... ... : ... .. 5 ... ... : ... .. 8 ... ... : ... .. . ... ...
ROW 6B : ... .. 8 ... ... ... : F#4 00 A P7D ... ... : ... .. . ... : ... .. 3 ... : ... .. . ... ... : ... .. 4 ... ... : ... .. 7 ... ... : ... .. . ... ...
ROW 6C : ... .. . ... ... ... : ... .. . ... ... ... : ... .. . ... : ... .. 2 ... : ... .. . ... ... : F-4 01 6 ... ... : ... .. . ... ... : ... .. . ... ...
ROW 6D : ... .. . ... ... ... : F-4 00 A P83 ... ... : ... .. . ... : ... .. 0 ... : ... .. . ... ... : ... .. . ... ... : ... .. 6 ... ... : ... .. . ... ...
ROW 6E : ... .. . ... ... ... : ... .. . P80 ... ... : ... .. . ... : ... .. . ... : ... .. . ... ... : ... .. 5 ... ... : ... .. 5 ... ... : ... .. . ... ...
ROW 6F : ... .. 1 ... ... ... : ... .. . P7C ... ... : ... .. . ... : ... .. . ... : ... .. . ... ... : ... .. 4 ... ... : ... .. . ... ... : ... .. . ... ...
ROW 70 : ... .. C ... ... ... : E-4 00 A P84 ... ... : A-3 00 . ... : ... .. F ... : ... .. . ... ... : D-4 01 6 ... ... : ... .. A ... ... : A-1 01 F ... ...
ROW 71 : ... .. B ... ... ... : ... .. . P85 ... ... : ... .. . ... : ... .. C ... : ... .. . ... ... : ... .. . ... ... : ... .. 9 ... ... : ... .. D ... ...
ROW 72 : ... .. A ... ... ... : F-4 00 A P7F ... ... : ... .. . ... : ... .. 6 ... : ... .. . ... ... : ... .. 5 ... ... : ... .. 8 ... ... : ... .. 8 ... ...
ROW 73 : ... .. 8 ... ... ... : ... .. . P82 ... ... : ... .. . ... : ... .. 3 ... : ... .. . ... ... : ... .. 4 ... ... : ... .. 7 ... ... : ... .. . ... ...
ROW 74 : ... .. . ... ... ... : F#4 00 A P7D ... ... : ... .. . ... : ... .. 2 ... : ... .. . ... ... : A-3 01 6 ... ... : ... .. . ... ... : ... .. . ... ...
ROW 75 : ... .. . ... ... ... : ... .. . ... ... ... : ... .. . ... : ... .. 0 ... : ... .. . ... ... : ... .. . ... ... : ... .. 6 ... ... : ... .. . ... ...
ROW 76 : ... .. . ... ... ... : F-4 00 A P83 ... ... : ... .. . ... : ... .. . ... : ... .. . ... ... : ... .. 5 ... ... : ... .. 5 ... ... : ... .. . ... ...
ROW 77 : ... .. 1 ... ... ... : ... .. . P80 ... ... : ... .. . ... : ... .. . ... : ... .. . ... ... : ... .. 4 ... ... : ... .. . ... ... : ... .. . ... ...
ROW 78 : D-4 00 C ... ... ... : ... .. . P7C ... ... : A#4 00 . ... : 9-# 00 D ... : ... .. . ... ... : D-5 01 6 ... ... : F-5 01 A ... ... : B-0 01 F ... ...
ROW 79 : ... .. B ... ... ... : E-4 00 A P84 ... ... : C-4 00 . ... : ... .. B ... : ... .. . ... ... : ... .. . ... ... : ... .. 9 ... ... : ... .. D ... ...
ROW 7A : ... .. A ... ... ... : ... .. . P85 ... ... : F-3 00 . ... : ... .. . ... : ... .. . ... ... : ... .. 5 ... ... : ... .. 8 ... ... : ... .. 8 ... ...
ROW 7B : ... .. 8 ... ... ... : F-4 00 A P7E ... ... : E-3 00 . ... : ... .. A ... : ... .. . ... ... : ... .. 4 ... ... : ... .. 7 ... ... : ... .. . ... ...
ROW 7C : ... .. . ... ... ... : ... .. . P82 ... ... : B-2 00 . ... : ... .. 8 ... : ... .. . ... ... : C-5 01 6 ... ... : ... .. . ... ... : ... .. . ... ...
ROW 7D : ... .. . ... ... ... : F#4 00 A P7C ... ... : ... .. . ... : ... .. 7 ... : ... .. . ... ... : ... .. . ... ... : ... .. 6 ... ... : ... .. . ... ...
ROW 7E : ... .. . ... ... ... : ... .. . P7D ... ... : ... .. . ... : ... .. 6 ... : ... .. . ... ... : ... .. 5 ... ... : ... .. 5 ... ... : ... .. . ... ...
ROW 7F : ... .. 1 ... ... ... : F-4 00 A P84 ... ... : ... .. . ... : ... .. . ... : ... .. . ... ... : ... .. 4 ... ... : ... .. . ... ... : ... .. . ... ...
ROW 80 : B-1 00 C ... ... ... : ... .. . P80 ... ... : A-2 00 . ... : 1-# 00 F ... : ... .. . ... ... : A-4 01 6 ... ... : D-3 01 A ... ... : A-0 01 F ... ...
ROW 81 : ... .. B ... ... ... : ... .. . P7D ... ... : ... .. . ... : ... .. C ... : ... .. . ... ... : ... .. . ... ... : ... .. 9 ... ... : ... .. D ... ...
ROW 82 : ... .. A ... ... ... : E-4 00 A P84 ... ... : ... .. . ... : ... .. 6 ... : ... .. . ... ... : ... .. 5 ... ... : ... .. 8 ... ... : ... .. 8 ... ...
ROW 83 : ... .. 8 ... ... ... : ... .. . ... ... ... : ... .. . ... : ... .. 3 ... : ... .. . ... ... : ... .. 4 ... ... : ... .. 7 ... ... : ... .. . ... ...
ROW 84 : ... .. . ... ... ... : F-4 00 A P7E ... ... : ... .. . ... : ... .. 2 ... : ... .. . ... ... : F-4 01 6 ... ... : ... .. . ... ... : ... .. . ... ...
ROW 85 : ... .. . ... ... ... : ... .. . P81 ... ... : ... .. . ... : ... .. 0 ... : ... .. . ... ... : ... .. . ... ... : ... .. 6 ... ... : ... .. . ... ...
ROW 86 : ... .. . ... ... ... : F#4 00 A P7C ... ... : ... .. . ... : ... .. . ... : ... .. . ... ... : ... .. 5 ... ... : ... .. 5 ... ... : ... .. . ... ...
ROW 87 : ... .. 1 ... ... ... : ... .. . P7D ... ... : ... .. . ... : ... .. . ... : ... .. . ... ... : ... .. 4 ... ... : ... .. . ... ... : ... .. . ... ...
ROW 88 : ... .. C ... ... ... : F-4 00 A P80 ... ... : B-2 00 . ... : 8-# 00 8 ... : ... .. . ... ... : D-4 01 6 ... ... : ... .. A ... ... : B-0 01 F ... ...
ROW 89 : ... .. B ... ... ... : ... .. 2 ... ... ... : ... .. . ... : ... .. 6 ... : ... .. . ... ... : ... .. . ... ... : ... .. 9 ... ... : ... .. D ... ...
ROW 8A : ... .. A ... ... ... : ... .. . ... ... ... : ... .. . ... : ... .. 0 ... : ... .. . ... ... : ... .. 5 ... ... : ... .. 8 ... ... : ... .. 8 ... ...
ROW 8B : ... .. 8 ... ... ... : ... .. . ... ... ... : ... .. . ... : ... .. . ... : ... .. . ... ... : ... .. 4 ... ... : ... .. 7 ... ... : ... .. . ... ...
ROW 8C : ... .. . ... ... ... : ... .. 1 ... ... ... : ... .. . ... : ... .. 8 ... : ... .. . ... ... : A-3 01 6 ... ... : ... .. . ... ... : ... .. . ... ...
ROW 8D : ... .. . ... ... ... : ... .. . ... ... ... : ... .. . ... : ... .. 6 ... : ... .. . ... ... : ... .. . ... ... : ... .. 6 ... ... : ... .. . ... ...
ROW 8E : ... .. . ... ... ... : ... .. . ... ... ... : ... .. . ... : ... .. 0 ... : ... .. . ... ... : ... .. 5 ... ... : ... .. 5 ... ... : ... .. . ... ...
ROW 8F : ... .. 1 ... ... ... : ... .. 0 ... ... ... : ... .. . ... : ... .. . ... : ... .. . ... ... : ... .. 4 ... ... : ... .. . ... ... : ... .. . ... ...
ROW 90 : D#4 00 C ... ... ... : D#4 00 F P80 ... ... : A#5 00 . ... : 9-# 00 D ... : ... .. . ... ... : D#5 01 6 ... ... : F#5 01 A ... ... : B-1 01 F ... ...
ROW 91 : ... .. B ... ... ... : ... .. E ... ... ... : C-5 00 . ... : ... .. B ... : ... .. . ... ... : ... .. . ... ... : ... .. 9 ... ... : ... .. D ... ...
ROW 92 : ... .. A ... ... ... : ... .. D ... ... ... : F-4 00 . ... : ... .. . ... : ... .. . ... ... : ... .. 5 ... ... : ... .. 8 ... ... : ... .. 8 ... ...
ROW 93 : ... .. 8 ... ... ... : ... .. A ... ... ... : E-4 00 . ... : ... .. A ... : ... .. . ... ... : ... .. 4 ... ... : ... .. 7 ... ... : ... .. . ... ...
ROW 94 : ... .. . ... ... ... : ... .. . ... ... ... : B-3 00 . ... : ... .. 8 ... : ... .. . ... ... : B-4 01 6 ... ... : ... .. . ... ... : ... .. . ... ...
ROW 95 : ... .. . ... ... ... : ... .. . ... ... ... : ... .. . ... : ... .. 7 ... : ... .. . ... ... : ... .. . ... ... : ... .. 6 ... ... : ... .. . ... ...
ROW 96 : ... .. . ... ... ... : ... .. . ... ... ... : ... .. . ... : ... .. 6 ... : ... .. . ... ... : ... .. 5 ... ... : ... .. 5 ... ... : ... .. . ... ...
ROW 97 : ... .. 1 ... ... ... : ... .. . ... ... ... : ... .. . ... : ... .. . ... : ... .. . ... ... : ... .. 4 ... ... : ... .. . ... ... : ... .. . ... ...
ROW 98 : B-1 00 C ... ... ... : F-4 00 F ... ... ... : A-3 00 . P7C : 1-# 00 F ... : ... .. . ... ... : F#4 01 6 ... ... : D#3 01 A ... ... : A#1 01 8 P9E ...
ROW 99 : ... .. B ... ... ... : ... .. E ... ... ... : G-3 00 . P7B : ... .. C ... : ... .. . ... ... : ... .. . ... ... : ... .. 9 ... ... : ... .. . P7E ...
ROW 9A : ... .. A ... ... ... : ... .. D ... ... ... : F-3 00 . P7E : ... .. 6 ... : ... .. . ... ... : ... .. 5 ... ... : ... .. 8 ... ... : A-1 01 8 P9F ...
ROW 9B : ... .. 8 ... ... ... : ... .. A ... ... ... : D#3 00 . P86 : ... .. 3 ... : ... .. . ... ... : ... .. 4 ... ... : ... .. 7 ... ... : ... .. . P7F ...
ROW 9C : ... .. . ... ... ... : ... .. . ... ... ... : D-3 00 . P7B : ... .. F ... : ... .. . ... ... : D#4 01 6 ... ... : ... .. . ... ... : ... .. . P5F ...
ROW 9D : ... .. . ... ... ... : ... .. . ... ... ... : C-3 00 . P8A : ... .. C ... : ... .. . ... ... : ... .. . ... ... : ... .. 6 ... ... : G#1 01 8 P84 ...
ROW 9E : ... .. . ... ... ... : ... .. . ... ... ... : B-2 00 . P83 : ... .. 6 ... : ... .. . ... ... : ... .. 5 ... ... : ... .. 5 ... ... : ... .. . P64 ...
ROW 9F : ... .. 1 ... ... ... : ... .. 2 ... ... ... : A#2 00 . P7E : ... .. 3 ... : ... .. . ... ... : ... .. 4 ... ... : ... .. . ... ... : G-1 01 8 P8E ...
ROW A0 : ... .. C ... ... ... : A-4 00 F ... ... ... : A-2 00 . P7A : ... .. F ... : ... .. . ... ... : B-3 01 6 ... ... : ... .. A ... ... : B-2 01 F P80 ...
ROW A1 : ... .. B ... ... ... : ... .. E ... ... ... : G#2 00 . P79 : ... .. C ... : ... .. . ... ... : ... .. . ... ... : ... .. 9 ... ... : ... .. D ... ...
ROW A2 : ... .. A ... ... ... : ... .. D ... ... ... : G-2 00 . ... : ... .. 6 ... : ... .. . ... ... : ... .. 5 ... ... : ... .. 8 ... ... : ... .. 8 ... ...
ROW A3 : ... .. 8 ... ... ... : ... .. A ... ... ... : F#2 00 . P7B : ... .. 3 ... : ... .. . ... ... : ... .. 4 ... ... : ... .. 7 ... ... : ... .. . ... ...
ROW A4 : ... .. . ... ... ... : ... .. . ... ... ... : F-2 00 . P7F : ... .. 2 ... : ... .. . ... ... : F#3 01 6 ... ... : ... .. . ... ... : ... .. . ... ...
ROW A5 : ... .. . ... ... ... : A#4 00 A P82 ... ... : E-2 00 . P85 : ... .. 0 ... : ... .. . ... ... : ... .. . ... ... : ... .. 6 ... ... : ... .. . ... ...
ROW A6 : ... .. . ... ... ... : B-4 00 A P80 ... ... : D#2 00 . P8D : ... .. . ... : ... .. . ... ... : ... .. 5 ... ... : ... .. 5 ... ... : ... .. . ... ...
ROW A7 : ... .. 1 ... ... ... : ... .. . ... ... ... : ... .. . P6D : ... .. . ... : ... .. . ... ... : ... .. 4 ... ... : ... .. . ... ... : ... .. . ... ...
ROW A8 : D#4 00 C ... ... ... : ... .. . ... ... ... : A#4 00 . P80 : 9-# 00 D ... : ... .. . ... ... : D#5 01 6 ... ... : F#5 01 A ... ... : B-0 01 F ... ...
ROW A9 : ... .. B ... ... ... : ... .. . ... ... ... : C-4 00 . ... : ... .. B ... : ... .. . ... ... : ... .. . ... ... : ... .. 9 ... ... : ... .. D ... ...
ROW AA : ... .. A ... ... ... : ... .. . ... ... ... : F-3 00 . ... : ... .. . ... : ... .. . ... ... : ... .. 5 ... ... : ... .. 8 ... ... : ... .. 8 ... ...
ROW AB : ... .. 8 ... ... ... : ... .. . ... ... ... : E-3 00 . ... : ... .. A ... : ... .. . ... ... : ... .. 4 ... ... : ... .. 7 ... ... : ... .. . ... ...
ROW AC : ... .. . ... ... ... : ... .. . ... ... ... : B-2 00 . ... : ... .. 8 ... : ... .. . ... ... : B-4 01 6 ... ... : ... .. . ... ... : ... .. . ... ...
ROW AD : ... .. . ... ... ... : ... .. . ... ... ... : ... .. . ... : ... .. 7 ... : ... .. . ... ... : ... .. . ... ... : ... .. 6 ... ... : ... .. . ... ...
ROW AE : ... .. . ... ... ... : ... .. . ... ... ... : ... .. . ... : ... .. 6 ... : ... .. . ... ... : ... .. 5 ... ... : ... .. 5 ... ... : ... .. . ... ...
ROW AF : ... .. 1 ... ... ... : ... .. . ... ... ... : ... .. . ... : ... .. . ... : ... .. . ... ... : ... .. 4 ... ... : ... .. . ... ... : ... .. . ... ...
ROW B0 : B-1 00 C ... ... ... : ... .. . ... ... ... : A#2 00 . P7B : 1-# 00 F ... : ... .. . ... ... : F#4 01 6 ... ... : D#3 01 A ... ... : ... .. . P60 ...
ROW B1 : ... .. B ... ... ... : ... .. . ... ... ... : A-2 00 . P77 : ... .. C ... : ... .. . ... ... : ... .. . ... ... : ... .. 9 ... ... : A#0 01 8 PBB ...
ROW B2 : ... .. A ... ... ... : ... .. . ... ... ... : G#2 00 . P76 : ... .. 6 ... : ... .. . ... ... : ... .. 5 ... ... : ... .. 8 ... ... : ... .. . P9B ...
ROW B3 : ... .. 8 ... ... ... : ... .. . ... ... ... : G-2 00 . ... : ... .. 3 ... : ... .. . ... ... : ... .. 4 ... ... : ... .. 7 ... ... : ... .. . P7B ...
ROW B4 : ... .. . ... ... ... : ... .. . ... ... ... : F#2 00 . P78 : ... .. 2 ... : ... .. . ... ... : D#4 01 6 ... ... : ... .. . ... ... : ... .. . P5B ...
ROW B5 : ... .. . ... ... ... : ... .. . ... ... ... : F-2 00 . P7C : ... .. 0 ... : ... .. . ... ... : ... .. . ... ... : ... .. 6 ... ... : A-0 01 8 PBD ...
ROW B6 : ... .. . ... ... ... : ... .. . ... ... ... : E-2 00 . P82 : ... .. . ... : ... .. . ... ... : ... .. 5 ... ... : ... .. 5 ... ... : ... .. . P9D ...
ROW B7 : ... .. 1 ... ... ... : ... .. . ... ... ... : D#2 00 . P8A : ... .. . ... : ... .. . ... ... : ... .. 4 ... ... : ... .. . ... ... : ... .. . P7D ...
ROW B8 : ... .. C ... ... ... : C-5 00 A P7E ... ... : D-2 00 . P95 : ... .. F ... : ... .. . ... ... : B-3 01 6 ... ... : ... .. A ... ... : B-2 01 F P80 ...
ROW B9 : ... .. B ... ... ... : ... .. . P80 ... ... : ... .. . P75 : ... .. C ... : ... .. . ... ... : ... .. . ... ... : ... .. 9 ... ... : ... .. D ... ...
ROW BA : ... .. A ... ... ... : ... .. . P7F ... ... : C#2 00 . P82 : ... .. 6 ... : ... .. . ... ... : ... .. 5 ... ... : ... .. 8 ... ... : ... .. 8 ... ...
ROW BB : ... .. 8 ... ... ... : B-4 00 A P82 ... ... : C-2 00 . P92 : ... .. 3 ... : ... .. . ... ... : ... .. 4 ... ... : ... .. 7 ... ... : ... .. . ... ...
ROW BC : ... .. . ... ... ... : ... .. . P7E ... ... : ... .. . P72 : ... .. 2 ... : ... .. . ... ... : F#3 01 6 ... ... : ... .. . ... ... : ... .. . ... ...
ROW BD : ... .. . ... ... ... : A#4 00 A P82 ... ... : B-1 00 . P85 : ... .. 0 ... : ... .. . ... ... : ... .. . ... ... : ... .. 6 ... ... : ... .. . ... ...
ROW BE : ... .. . ... ... ... : ... .. . P81 ... ... : A#1 00 . P9B : ... .. . ... : ... .. . ... ... : ... .. 5 ... ... : ... .. 5 ... ... : ... .. . ... ...
ROW BF : ... .. 1 ... ... ... : ... .. . P83 ... ... : ... .. . P7B : ... .. . ... : ... .. . ... ... : ... .. 4 ... ... : ... .. . ... ... : ... .. . ... ...
ROW C0 : D-4 00 C ... ... ... : B-4 00 A P80 ... ... : A#5 00 . P80 : 9-# 00 D ... : ... .. . ... ... : F-5 01 6 ... ... : F-5 01 A ... ... : B-1 01 F ... ...
ROW C1 : ... .. B ... ... ... : ... .. . P83 ... ... : C-5 00 . ... : ... .. B ... : ... .. . ... ... : ... .. . ... ... : ... .. 9 ... ... : ... .. D ... ...
ROW C2 : ... .. A ... ... ... : C-5 00 A P80 ... ... : F-4 00 . ... : ... .. . ... : ... .. . ... ... : ... .. 5 ... ... : ... .. 8 ... ... : ... .. 8 ... ...
ROW C3 : ... .. 8 ... ... ... : ... .. . ... ... ... : E-4 00 . ... : ... .. A ... : ... .. . ... ... : ... .. 4 ... ... : ... .. 7 ... ... : ... .. . ... ...
ROW C4 : ... .. . ... ... ... : B-4 00 A P82 ... ... : B-3 00 . ... : ... .. 8 ... : ... .. . ... ... : D#5 01 6 ... ... : ... .. . ... ... : ... .. . ... ...
ROW C5 : ... .. . ... ... ... : ... .. . P7F ... ... : ... .. . ... : ... .. 7 ... : ... .. . ... ... : ... .. . ... ... : ... .. 6 ... ... : ... .. . ... ...
ROW C6 : ... .. . ... ... ... : A#4 00 A P82 ... ... : ... .. . ... : ... .. 6 ... : ... .. . ... ... : ... .. 5 ... ... : ... .. 5 ... ... : ... .. . ... ...
ROW C7 : ... .. 1 ... ... ... : ... .. . P81 ... ... : ... .. . ... : ... .. . ... : ... .. . ... ... : ... .. 4 ... ... : ... .. . ... ... : ... .. . ... ...
ROW C8 : B-1 00 C ... ... ... : ... .. . P83 ... ... : ... .. . ... : B-# 00 F ... : ... .. . ... ... : B-4 01 6 ... ... : D-3 01 A ... ... : ... .. . ... ...
ROW C9 : ... .. B ... ... ... : B-4 00 A P80 ... ... : ... .. . ... : ... .. C ... : ... .. . ... ... : ... .. . ... ... : ... .. 9 ... ... : ... .. . ... ...
ROW CA : ... .. A ... ... ... : ... .. . P83 ... ... : ... .. . ... : ... .. 6 ... : ... .. . ... ... : ... .. 5 ... ... : ... .. 8 ... ... : ... .. . ... ...
ROW CB : ... .. 8 ... ... ... : C-5 00 2 P80 ... ... : ... .. . ... : ... .. 3 ... : ... .. . ... ... : ... .. 4 ... ... : ... .. 7 ... ... : ... .. . ... ...
ROW CC : ... .. . ... ... ... : ... .. . ... ... ... : ... .. . ... : ... .. F ... : ... .. . ... ... : A-4 01 6 ... ... : ... .. . ... ... : ... .. . ... ...
ROW CD : ... .. . ... ... ... : B-4 00 2 P83 ... ... : ... .. . ... : ... .. C ... : ... .. . ... ... : ... .. . ... ... : ... .. 6 ... ... : ... .. . ... ...
ROW CE : ... .. . ... ... ... : ... .. 1 P80 ... ... : ... .. . ... : ... .. 6 ... : ... .. . ... ... : ... .. 5 ... ... : ... .. 5 ... ... : ... .. . ... ...
ROW CF : ... .. 1 ... ... ... : ... .. . ... ... ... : ... .. . ... : ... .. 3 ... : ... .. . ... ... : ... .. 4 ... ... : ... .. . ... ... : ... .. . ... ...
ROW D0 : D-4 00 C ... ... ... : F-4 00 F ... ... ... : A-3 00 . P7C : 7-# 00 F ... : ... .. . ... ... : F-4 01 6 ... ... : F-5 01 A ... ... : A-1 01 F ... ...
ROW D1 : ... .. B ... ... ... : ... .. E ... ... ... : G-3 00 . P7B : ... .. C ... : ... .. . ... ... : ... .. . ... ... : ... .. 9 ... ... : ... .. D ... ...
ROW D2 : ... .. A ... ... ... : ... .. D ... ... ... : F-3 00 . P7E : ... .. 6 ... : ... .. . ... ... : ... .. 5 ... ... : ... .. 8 ... ... : ... .. 8 ... ...
ROW D3 : ... .. 8 ... ... ... : ... .. A ... ... ... : D#3 00 . P86 : ... .. 3 ... : ... .. . ... ... : ... .. 4 ... ... : ... .. 7 ... ... : ... .. . ... ...
ROW D4 : ... .. . ... ... ... : G-4 00 F ... ... ... : D-3 00 . P7B : ... .. F ... : ... .. . ... ... : D#4 01 6 ... ... : ... .. . ... ... : ... .. . ... ...
ROW D5 : ... .. . ... ... ... : ... .. E ... ... ... : C-3 00 . P8A : ... .. C ... : ... .. . ... ... : ... .. . ... ... : ... .. 6 ... ... : ... .. . ... ...
ROW D6 : ... .. . ... ... ... : ... .. D ... ... ... : B-2 00 . P83 : ... .. 6 ... : ... .. . ... ... : ... .. 5 ... ... : ... .. 5 ... ... : ... .. . ... ...
ROW D7 : ... .. 1 ... ... ... : ... .. A ... ... ... : A#2 00 . P7E : ... .. 3 ... : ... .. . ... ... : ... .. 4 ... ... : ... .. . ... ... : ... .. . ... ...
ROW D8 : B-1 00 C ... ... ... : G#4 00 F ... ... ... : A-2 00 . P7A : 4-# 00 F ... : ... .. . ... ... : B-3 01 6 ... ... : D-3 01 A ... ... : B-0 01 F ... ...
ROW D9 : ... .. B ... ... ... : ... .. E ... ... ... : G#2 00 . P79 : ... .. C ... : ... .. . ... ... : ... .. . ... ... : ... .. 9 ... ... : ... .. D ... ...
ROW DA : ... .. A ... ... ... : ... .. D ... ... ... : G-2 00 . ... : ... .. 6 ... : ... .. . ... ... : ... .. 5 ... ... : ... .. 8 ... ... : ... .. 8 ... ...
ROW DB : ... .. 8 ... ... ... : ... .. A ... ... ... : F#2 00 . P7B : ... .. 3 ... : ... .. . ... ... : ... .. 4 ... ... : ... .. 7 ... ... : ... .. . ... ...
ROW DC : ... .. . ... ... ... : B-4 00 F ... ... ... : F-2 00 . P7F : ... .. F ... : ... .. . ... ... : A-3 01 6 ... ... : ... .. . ... ... : ... .. . ... ...
ROW DD : ... .. . ... ... ... : ... .. E ... ... ... : E-2 00 . P85 : ... .. C ... : ... .. . ... ... : ... .. . ... ... : ... .. 6 ... ... : ... .. . ... ...
ROW DE : ... .. . ... ... ... : ... .. D ... ... ... : D#2 00 . P8D : ... .. 6 ... : ... .. . ... ... : ... .. 5 ... ... : ... .. 5 ... ... : ... .. . ... ...
ROW DF : ... .. 1 ... ... ... : ... .. A ... ... ... : ... .. . P6D : ... .. 3 ... : ... .. . ... ... : ... .. 4 ... ... : ... .. . ... ... : ... .. . ... ...
ROW E0 : C-5 00 F ... ... ... : F-4 00 A ... ... ... : E-4 00 . P80 : B-# 00 C ... : ... .. . ... ... : C-3 01 8 ... ... : F-3 01 8 P7F ... : A#1 01 C ... ...
ROW E1 : ... .. E ... ... ... : ... .. 8 ... ... ... : F#3 00 . ... : ... .. . ... : ... .. . ... ... : ... .. 7 ... ... : ... .. 7 ... ... : ... .. A ... ...
ROW E2 : ... .. D ... ... ... : ... .. . ... ... ... : B-2 00 . ... : ... .. A ... : ... .. . ... ... : ... .. 6 ... ... : ... .. 6 ... ... : ... .. 6 ... ...
ROW E3 : ... .. A ... ... ... : ... .. . ... ... ... : A#2 00 . ... : ... .. . ... : ... .. . ... ... : ... .. 5 ... ... : ... .. 5 ... ... : ... .. . ... ...
ROW E4 : ... .. . ... ... ... : C-4 00 A ... ... ... : F-2 00 . ... : ... .. 9 ... : ... .. . ... ... : ... .. . ... ... : ... .. . ... ... : C-2 01 C ... ...
ROW E5 : ... .. . ... ... ... : ... .. 8 ... ... ... : ... .. . ... : ... .. . ... : ... .. . ... ... : ... .. 4 ... ... : ... .. 4 ... ... : ... .. A ... ...
ROW E6 : ... .. . ... ... ... : ... .. . ... ... ... : ... .. . ... : ... .. 8 ... : ... .. . ... ... : ... .. . ... ... : ... .. . ... ... : ... .. 6 ... ...
ROW E7 : ... .. . ... ... ... : ... .. . ... ... ... : ... .. . ... : ... .. . ... : ... .. . ... ... : ... .. . ... ... : ... .. . ... ... : ... .. . ... ...
ROW E8 : ... .. . ... ... ... : G#3 00 A ... ... ... : ... .. . ... : ... .. 7 ... : ... .. . ... ... : ... .. . ... ... : ... .. . ... ... : C#2 01 C ... ...
ROW E9 : ... .. . ... ... ... : ... .. 8 ... ... ... : ... .. . ... : ... .. . ... : ... .. . ... ... : ... .. . ... ... : ... .. . ... ... : ... .. A ... ...
ROW EA : ... .. . ... ... ... : ... .. . ... ... ... : ... .. . ... : ... .. 6 ... : ... .. . ... ... : ... .. . ... ... : ... .. . ... ... : ... .. 6 ... ...
ROW EB : ... .. . ... ... ... : ... .. . ... ... ... : ... .. . ... : ... .. . ... : ... .. . ... ... : ... .. . ... ... : ... .. . ... ... : ... .. . ... ...
ROW EC : B-4 00 A P7E ... ... : F-3 00 A ... ... ... : ... .. . ... : ... .. 5 ... : ... .. . ... ... : ... .. . ... ... : ... .. . ... ... : D#2 01 C ... ...
ROW ED : A#4 00 A P7D ... ... : ... .. 8 ... ... ... : ... .. . ... : ... .. . ... : ... .. . ... ... : ... .. . ... ... : ... .. . ... ... : ... .. A ... ...
ROW EE : G#4 00 A P84 ... ... : ... .. . ... ... ... : ... .. . ... : ... .. 4 ... : ... .. . ... ... : ... .. . ... ... : ... .. . ... ... : ... .. 6 ... ...
ROW EF : G-4 00 A ... ... ... : ... .. . ... ... ... : ... .. . ... : ... .. . ... : ... .. . ... ... : ... .. . ... ... : ... .. . ... ... : ... .. . ... ...
ROW F0 : C-5 00 9 P80 ... ... : C-3 00 A ... ... ... : ... .. . ... : 1-# 00 F ... : ... .. . ... ... : ... .. . ... ... : ... .. . ... ... : C-2 01 C ... ...
ROW F1 : ... .. 8 ... ... ... : ... .. 8 ... ... ... : ... .. . ... : ... .. C ... : ... .. . ... ... : ... .. . ... ... : ... .. . ... ... : ... .. A ... ...
ROW F2 : ... .. 7 ... ... ... : ... .. . ... ... ... : ... .. . ... : ... .. 6 ... : ... .. . ... ... : ... .. . ... ... : ... .. . ... ... : ... .. 6 ... ...
ROW F3 : ... .. 6 ... ... ... : ... .. . ... ... ... : ... .. . ... : ... .. 3 ... : ... .. . ... ... : ... .. . ... ... : ... .. . ... ... : ... .. . ... ...
ROW F4 : B-4 00 6 P7E ... ... : G#2 00 A ... ... ... : ... .. . ... : ... .. 2 ... : ... .. . ... ... : ... .. . ... ... : ... .. . ... ... : C#2 01 C ... ...
ROW F5 : A#4 00 6 P7D ... ... : ... .. 8 ... ... ... : ... .. . ... : ... .. 0 ... : ... .. . ... ... : ... .. . ... ... : ... .. . ... ... : ... .. A ... ...
ROW F6 : G#4 00 6 P84 ... ... : ... .. . ... ... ... : ... .. . ... : ... .. . ... : ... .. . ... ... : ... .. . ... ... : ... .. . ... ... : ... .. 6 ... ...
ROW F7 : G-4 00 6 ... ... ... : ... .. . ... ... ... : ... .. . ... : ... .. . ... : ... .. . ... ... : ... .. . ... ... : ... .. . ... ... : ... .. . ... ...
ROW F8 : F-4 00 F P80 ... ... : G-4 00 A ... ... ... : F#4 00 . ... : 9-# 00 D ... : ... .. . ... ... : F-3 01 8 ... ... : G#3 01 8 ... ... : D#2 01 C ... ...
ROW F9 : ... .. E ... ... ... : ... .. 8 ... ... ... : G#3 00 . ... : ... .. B ... : ... .. . ... ... : ... .. 7 ... ... : ... .. 7 ... ... : ... .. A ... ...
ROW FA : ... .. D ... ... ... : ... .. . ... ... ... : C#3 00 . ... : ... .. . ... : ... .. . ... ... : ... .. 6 ... ... : ... .. 6 ... ... : ... .. 6 ... ...
ROW FB : ... .. A ... ... ... : ... .. . ... ... ... : C-3 00 . ... : ... .. A ... : ... .. . ... ... : ... .. 5 ... ... : ... .. 5 ... ... : ... .. . ... ...
ROW FC : ... .. . ... ... ... : C-4 00 A ... ... ... : G-2 00 . ... : ... .. 8 ... : ... .. . ... ... : ... .. . ... ... : ... .. . ... ... : F-2 01 C ... ...
ROW FD : ... .. . ... ... ... : ... .. 8 ... ... ... : ... .. . ... : ... .. 7 ... : ... .. . ... ... : ... .. 4 ... ... : ... .. 4 ... ... : ... .. A ... ...
ROW FE : ... .. . ... ... ... : ... .. . ... ... ... : ... .. . ... : ... .. 6 ... : ... .. . ... ... : ... .. . ... ... : ... .. . ... ... : ... .. 6 ... ...
ROW FF : ... .. . ... ... ... : ... .. . ... ... ... : ... .. . ... : ... .. . ... : ... .. . ... ... : ... .. . ... ... : ... .. . ... ... : ... .. . ... ...

PATTERN 1B
ROW 00 : ... .. . ... ... ... : G#3 00 A ... ... ... : ... .. . ... : 1-# 00 F ... : ... .. . ... ... : ... .. . ... ... : ... .. . ... ... : C#2 01 C ... ...
ROW 01 : ... .. . ... ... ... : ... .. 8 ... ... ... : ... .. . ... : ... .. C ... : ... .. . ... ... : ... .. . ... ... : ... .. . ... ... : ... .. A ... ...
ROW 02 : ... .. . ... ... ... : ... .. . ... ... ... : ... .. . ... : ... .. 6 ... : ... .. . ... ... : ... .. . ... ... : ... .. . ... ... : ... .. 6 ... ...
ROW 03 : ... .. . ... ... ... : ... .. . ... ... ... : ... .. . ... : ... .. 3 ... : ... .. . ... ... : ... .. . ... ... : ... .. . ... ... : ... .. . ... ...
ROW 04 : E-4 00 A P82 ... ... : F-3 00 A ... ... ... : ... .. . ... : ... .. 2 ... : ... .. . ... ... : ... .. . ... ... : ... .. . ... ... : D#2 01 C ... ...
ROW 05 : D#4 00 A P84 ... ... : ... .. 8 ... ... ... : ... .. . ... : ... .. 0 ... : ... .. . ... ... : ... .. . ... ... : ... .. . ... ... : ... .. A ... ...
ROW 06 : ... .. . P7C ... ... : ... .. . ... ... ... : ... .. . ... : ... .. . ... : ... .. . ... ... : ... .. . ... ... : ... .. . ... ... : ... .. 6 ... ...
ROW 07 : D-4 00 A P7E ... ... : ... .. . ... ... ... : ... .. . ... : ... .. . ... : ... .. . ... ... : ... .. . ... ... : ... .. . ... ... : ... .. . ... ...
ROW 08 : F-4 00 9 P80 ... ... : C-3 00 A ... ... ... : ... .. . ... : ... .. F ... : ... .. . ... ... : ... .. . ... ... : ... .. . ... ... : F-2 01 C ... ...
ROW 09 : ... .. 8 ... ... ... : ... .. 8 ... ... ... : ... .. . ... : ... .. C ... : ... .. . ... ... : ... .. . ... ... : ... .. . ... ... : ... .. A ... ...
ROW 0A : ... .. 7 ... ... ... : ... .. . ... ... ... : ... .. . ... : ... .. 6 ... : ... .. . ... ... : ... .. . ... ... : ... .. . ... ... : ... .. 6 ... ...
ROW 0B : ... .. 6 ... ... ... : ... .. . ... ... ... : ... .. . ... : ... .. 3 ... : ... .. . ... ... : ... .. . ... ... : ... .. . ... ... : ... .. . ... ...
ROW 0C : E-4 00 6 P82 ... ... : G#2 00 A ... ... ... : ... .. . ... : ... .. 2 ... : ... .. . ... ... : ... .. . ... ... : ... .. . ... ... : G-2 01 C ... ...
ROW 0D : D#4 00 6 P84 ... ... : ... .. 8 ... ... ... : ... .. . ... : ... .. 0 ... : ... .. . ... ... : ... .. . ... ... : ... .. . ... ... : ... .. A ... ...
ROW 0E : ... .. . P7C ... ... : ... .. . ... ... ... : ... .. . ... : ... .. . ... : ... .. . ... ... : ... .. . ... ... : ... .. . ... ... : ... .. 6 ... ...
ROW 0F : D-4 00 6 P7E ... ... : ... .. . ... ... ... : ... .. . ... : ... .. . ... : ... .. . ... ... : ... .. . ... ... : ... .. . ... ... : ... .. . ... ...
ROW 10 : G-4 00 F P80 ... ... : G#4 00 B ... ... ... : G-4 00 . ... : B-# 00 D ... : ... .. . ... ... : G#3 01 8 ... ... : C-4 01 8 ... ... : G#2 01 C ... ...
ROW 11 : ... .. E ... ... ... : ... .. 9 ... ... ... : A-3 00 . ... : ... .. B ... : ... .. . ... ... : ... .. 7 ... ... : ... .. 7 ... ... : ... .. A ... ...
ROW 12 : ... .. D ... ... ... : ... .. . ... ... ... : D-3 00 . ... : ... .. . ... : ... .. . ... ... : ... .. 6 ... ... : ... .. 6 ... ... : ... .. 6 ... ...
ROW 13 : ... .. A ... ... ... : ... .. 8 ... ... ... : C#3 00 . ... : ... .. A ... : ... .. . ... ... : ... .. 5 ... ... : ... .. 5 ... ... : ... .. . ... ...
ROW 14 : ... .. . ... ... ... : F-4 00 B ... ... ... : G#2 00 . ... : ... .. 8 ... : ... .. . ... ... : ... .. . ... ... : ... .. . ... ... : A#2 01 C ... ...
ROW 15 : ... .. . ... ... ... : ... .. 9 ... ... ... : ... .. . ... : ... .. 7 ... : ... .. . ... ... : ... .. 4 ... ... : ... .. 4 ... ... : ... .. A ... ...
ROW 16 : ... .. . ... ... ... : ... .. . ... ... ... : ... .. . ... : ... .. 6 ... : ... .. . ... ... : ... .. . ... ... : ... .. . ... ... : ... .. 6 ... ...
ROW 17 : ... .. . ... ... ... : ... .. 8 ... ... ... : ... .. . ... : ... .. . ... : ... .. . ... ... : ... .. . ... ... : ... .. . ... ... : ... .. . ... ...
ROW 18 : ... .. . ... ... ... : C-4 00 B ... ... ... : ... .. . ... : 1-# 00 F ... : ... .. . ... ... : ... .. . ... ... : ... .. . ... ... : C-3 01 C ... ...
ROW 19 : ... .. . ... ... ... : ... .. 9 ... ... ... : ... .. . ... : ... .. C ... : ... .. . ... ... : ... .. . ... ... : ... .. . ... ... : ... .. A ... ...
ROW 1A : ... .. . ... ... ... : ... .. . ... ... ... : ... .. . ... : ... .. 6 ... : ... .. . ... ... : ... .. . ... ... : ... .. . ... ... : ... .. 6 ... ...
ROW 1B : ... .. . ... ... ... : ... .. 8 ... ... ... : ... .. . ... : ... .. 3 ... : ... .. . ... ... : ... .. . ... ... : ... .. . ... ... : ... .. . ... ...
ROW 1C : F#4 00 A ... ... ... : G#3 00 B ... ... ... : ... .. . ... : ... .. 2 ... : ... .. . ... ... : ... .. . ... ... : ... .. . ... ... : C#3 01 C ... ...
ROW 1D : F-4 00 A P81 ... ... : ... .. 9 ... ... ... : ... .. . ... : ... .. 0 ... : ... .. . ... ... : ... .. . ... ... : ... .. . ... ... : ... .. A ... ...
ROW 1E : E-4 00 A P83 ... ... : ... .. . ... ... ... : ... .. . ... : ... .. . ... : ... .. . ... ... : ... .. . ... ... : ... .. . ... ... : ... .. 6 ... ...
ROW 1F : D#4 00 A P85 ... ... : ... .. 8 ... ... ... : ... .. . ... : ... .. . ... : ... .. . ... ... : ... .. . ... ... : ... .. . ... ... : ... .. . ... ...
ROW 20 : G-4 00 9 P80 ... ... : F-3 00 B ... ... ... : ... .. . ... : ... .. F ... : ... .. . ... ... : ... .. . ... ... : ... .. . ... ... : D#3 01 C ... ...
ROW 21 : ... .. 8 ... ... ... : ... .. 9 ... ... ... : ... .. . ... : ... .. C ... : ... .. . ... ... : ... .. . ... ... : ... .. . ... ... : ... .. A ... ...
ROW 22 : ... .. 7 ... ... ... : ... .. . ... ... ... : ... .. . ... : ... .. 6 ... : ... .. . ... ... : ... .. . ... ... : ... .. . ... ... : ... .. 6 ... ...
ROW 23 : ... .. 6 ... ... ... : ... .. 8 ... ... ... : ... .. . ... : ... .. 3 ... : ... .. . ... ... : ... .. . ... ... : ... .. . ... ... : ... .. . ... ...
ROW 24 : F#4 00 6 ... ... ... : C-3 00 B ... ... ... : ... .. . ... : ... .. 2 ... : ... .. . ... ... : ... .. . ... ... : ... .. . ... ... : F-3 01 C ... ...
ROW 25 : F-4 00 6 P81 ... ... : ... .. 9 ... ... ... : ... .. . ... : ... .. 0 ... : ... .. . ... ... : ... .. . ... ... : ... .. . ... ... : ... .. A ... ...
ROW 26 : E-4 00 6 P83 ... ... : ... .. . ... ... ... : ... .. . ... : ... .. . ... : ... .. . ... ... : ... .. . ... ... : ... .. . ... ... : ... .. 6 ... ...
ROW 27 : D#4 00 6 P85 ... ... : ... .. 8 ... ... ... : ... .. . ... : ... .. . ... : ... .. . ... ... : ... .. . ... ... : ... .. . ... ... : ... .. . ... ...
ROW 28 : G#4 00 F P80 ... ... : C-5 00 B ... ... ... : B-4 00 . ... : 9-# 00 D ... : ... .. . ... ... : C-4 01 8 ... ... : F-4 01 8 ... ... : G-3 01 C ... ...
ROW 29 : ... .. E ... ... ... : ... .. 9 ... ... ... : C#4 00 . ... : ... .. B ... : ... .. . ... ... : ... .. 7 ... ... : ... .. 7 ... ... : ... .. A ... ...
ROW 2A : ... .. D ... ... ... : ... .. . ... ... ... : F#3 00 . ... : ... .. . ... : ... .. . ... ... : ... .. 6 ... ... : ... .. 6 ... ... : ... .. 6 ... ...
ROW 2B : ... .. A ... ... ... : ... .. 8 ... ... ... : F-3 00 . ... : ... .. A ... : ... .. . ... ... : ... .. 5 ... ... : ... .. 5 ... ... : ... .. . ... ...
ROW 2C : ... .. . ... ... ... : G#4 00 B ... ... ... : C-3 00 . ... : ... .. 8 ... : ... .. . ... ... : ... .. . ... ... : ... .. . ... ... : G#3 01 C ... ...
ROW 2D : ... .. . ... ... ... : ... .. 9 ... ... ... : ... .. . ... : ... .. 7 ... : ... .. . ... ... : ... .. 4 ... ... : ... .. 4 ... ... : ... .. A ... ...
ROW 2E : ... .. . ... ... ... : ... .. . ... ... ... : ... .. . ... : ... .. 6 ... : ... .. . ... ... : ... .. . ... ... : ... .. . ... ... : ... .. 6 ... ...
ROW 2F : ... .. . ... ... ... : ... .. 8 ... ... ... : ... .. . ... : ... .. . ... : ... .. . ... ... : ... .. . ... ... : ... .. . ... ... : ... .. . ... ...
ROW 30 : ... .. . ... ... ... : F-4 00 B ... ... ... : ... .. . ... : 1-# 00 F ... : ... .. . ... ... : ... .. . ... ... : ... .. . ... ... : F-3 01 C ... ...
ROW 31 : ... .. . ... ... ... : ... .. 9 ... ... ... : ... .. . ... : ... .. C ... : ... .. . ... ... : ... .. . ... ... : ... .. . ... ... : ... .. A ... ...
ROW 32 : ... .. . ... ... ... : ... .. . ... ... ... : ... .. . ... : ... .. 6 ... : ... .. . ... ... : ... .. . ... ... : ... .. . ... ... : ... .. 6 ... ...
ROW 33 : ... .. . ... ... ... : ... .. 8 ... ... ... : ... .. . ... : ... .. 3 ... : ... .. . ... ... : ... .. . ... ... : ... .. . ... ... : ... .. . ... ...
ROW 34 : G-4 00 A ... ... ... : C-4 00 B ... ... ... : ... .. . ... : ... .. 2 ... : ... .. . ... ... : ... .. . ... ... : ... .. . ... ... : G-3 01 C ... ...
ROW 35 : F#4 00 A ... ... ... : ... .. 9 ... ... ... : ... .. . ... : ... .. 0 ... : ... .. . ... ... : ... .. . ... ... : ... .. . ... ... : ... .. A ... ...
ROW 36 : F-4 00 A P81 ... ... : ... .. . ... ... ... : ... .. . ... : ... .. . ... : ... .. . ... ... : ... .. . ... ... : ... .. . ... ... : ... .. 6 ... ...
ROW 37 : E-4 00 A P83 ... ... : ... .. 8 ... ... ... : ... .. . ... : ... .. . ... : ... .. . ... ... : ... .. . ... ... : ... .. . ... ... : ... .. . ... ...
ROW 38 : G#4 00 9 P80 ... ... : F-3 00 B ... ... ... : ... .. . ... : 8-# 00 8 ... : ... .. . ... ... : ... .. . ... ... : ... .. . ... ... : G#3 01 C ... ...
ROW 39 : ... .. 8 ... ... ... : ... .. 9 ... ... ... : ... .. . ... : ... .. 6 ... : ... .. . ... ... : ... .. . ... ... : ... .. . ... ... : ... .. A ... ...
ROW 3A : ... .. 7 ... ... ... : ... .. . ... ... ... : ... .. . ... : ... .. 0 ... : ... .. . ... ... : ... .. . ... ... : ... .. . ... ... : ... .. 6 ... ...
ROW 3B : ... .. 6 ... ... ... : ... .. 8 ... ... ... : ... .. . ... : ... .. . ... : ... .. . ... ... : ... .. . ... ... : ... .. . ... ... : ... .. . ... ...
ROW 3C : G-4 00 6 ... ... ... : C-3 00 B ... ... ... : ... .. . ... : ... .. 8 ... : ... .. . ... ... : ... .. . ... ... : ... .. . ... ... : A#3 01 C ... ...
ROW 3D : F#4 00 6 ... ... ... : ... .. 9 ... ... ... : ... .. . ... : ... .. 6 ... : ... .. . ... ... : ... .. . ... ... : ... .. . ... ... : ... .. A ... ...
ROW 3E : F-4 00 6 P81 ... ... : ... .. . ... ... ... : ... .. . ... : ... .. 0 ... : ... .. . ... ... : ... .. . ... ... : ... .. . ... ... : ... .. 6 ... ...
ROW 3F : E-4 00 6 P83 ... ... : ... .. 8 ... ... ... : ... .. . ... : ... .. . ... : ... .. . ... ... : ... .. . ... ... : ... .. . ... ... : ... .. . ... ...
ROW 40 : F#4 00 F P80 ... ... : D-5 00 C ... ... ... : A#4 00 . ... : B-# 00 C ... : ... .. . ... ... : B-3 01 8 ... ... : F#4 01 8 ... ... : B-3 01 C ... ...
ROW 41 : ... .. E ... ... ... : ... .. A ... ... ... : C-4 00 . ... : ... .. . ... : ... .. . ... ... : ... .. 7 ... ... : ... .. 7 ... ... : ... .. A ... ...
ROW 42 : ... .. D ... ... ... : ... .. . ... ... ... : F-3 00 . ... : ... .. A ... : ... .. . ... ... : ... .. 6 ... ... : ... .. 6 ... ... : ... .. 6 ... ...
ROW 43 : ... .. A ... ... ... : ... .. 9 ... ... ... : E-3 00 . ... : ... .. . ... : ... .. . ... ... : ... .. 5 ... ... : ... .. 5 ... ... : ... .. . ... ...
ROW 44 : ... .. . ... ... ... : B-4 00 C ... ... ... : B-2 00 . ... : ... .. 9 ... : ... .. . ... ... : ... .. . ... ... : ... .. . ... ... : C#4 01 C ... ...
ROW 45 : ... .. . ... ... ... : ... .. A ... ... ... : ... .. . ... : ... .. . ... : ... .. . ... ... : ... .. 4 ... ... : ... .. 4 ... ... : ... .. A ... ...
ROW 46 : ... .. . ... ... ... : ... .. . ... ... ... : ... .. . ... : ... .. 8 ... : ... .. . ... ... : ... .. . ... ... : ... .. . ... ... : ... .. 6 ... ...
ROW 47 : ... .. . ... ... ... : ... .. 9 ... ... ... : ... .. . ... : ... .. . ... : ... .. . ... ... : ... .. . ... ... : ... .. . ... ... : ... .. . ... ...
ROW 48 : ... .. . ... ... ... : F#4 00 C ... ... ... : ... .. . ... : ... .. 7 ... : ... .. . ... ... : ... .. . ... ... : ... .. . ... ... : D-4 01 C ... ...
ROW 49 : ... .. . ... ... ... : ... .. A ... ... ... : ... .. . ... : ... .. . ... : ... .. . ... ... : ... .. . ... ... : ... .. . ... ... : ... .. A ... ...
ROW 4A : ... .. . ... ... ... : ... .. . ... ... ... : ... .. . ... : ... .. 6 ... : ... .. . ... ... : ... .. . ... ... : ... .. . ... ... : ... .. 6 ... ...
ROW 4B : ... .. . ... ... ... : ... .. 9 ... ... ... : ... .. . ... : ... .. . ... : ... .. . ... ... : ... .. . ... ... : ... .. . ... ... : ... .. . ... ...
ROW 4C : F-4 00 A P81 ... ... : D-4 00 C ... ... ... : ... .. . ... : ... .. 5 ... : ... .. . ... ... : ... .. . ... ... : ... .. . ... ... : E-4 01 C ... ...
ROW 4D : E-4 00 A P83 ... ... : ... .. A ... ... ... : ... .. . ... : ... .. . ... : ... .. . ... ... : ... .. . ... ... : ... .. . ... ... : ... .. A ... ...
ROW 4E : D#4 00 A P85 ... ... : ... .. . ... ... ... : ... .. . ... : ... .. 4 ... : ... .. . ... ... : ... .. . ... ... : ... .. . ... ... : ... .. 6 ... ...
ROW 4F : ... .. . P7D ... ... : ... .. 9 ... ... ... : ... .. . ... : ... .. . ... : ... .. . ... ... : ... .. . ... ... : ... .. . ... ... : ... .. . ... ...
ROW 50 : F#4 00 9 P80 ... ... : B-3 00 C ... ... ... : ... .. . ... : 1-# 00 F ... : ... .. . ... ... : ... .. . ... ... : ... .. . ... ... : C#4 01 C ... ...
ROW 51 : ... .. 8 ... ... ... : ... .. A ... ... ... : ... .. . ... : ... .. C ... : ... .. . ... ... : ... .. . ... ... : ... .. . ... ... : ... .. A ... ...
ROW 52 : ... .. 7 ... ... ... : ... .. . ... ... ... : ... .. . ... : ... .. 6 ... : ... .. . ... ... : ... .. . ... ... : ... .. . ... ... : ... .. 6 ... ...
ROW 53 : ... .. 6 ... ... ... : ... .. 9 ... ... ... : ... .. . ... : ... .. 3 ... : ... .. . ... ... : ... .. . ... ... : ... .. . ... ... : ... .. . ... ...
ROW 54 : F-4 00 6 P81 ... ... : F#3 00 C ... ... ... : ... .. . ... : ... .. 2 ... : ... .. . ... ... : ... .. . ... ... : ... .. . ... ... : D-4 01 C ... ...
ROW 55 : E-4 00 6 P83 ... ... : ... .. A ... ... ... : ... .. . ... : ... .. 0 ... : ... .. . ... ... : ... .. . ... ... : ... .. . ... ... : ... .. A ... ...
ROW 56 : D#4 00 6 P85 ... ... : ... .. . ... ... ... : ... .. . ... : ... .. . ... : ... .. . ... ... : ... .. . ... ... : ... .. . ... ... : ... .. 6 ... ...
ROW 57 : ... .. . P7D ... ... : ... .. 9 ... ... ... : ... .. . ... : ... .. . ... : ... .. . ... ... : ... .. . ... ... : ... .. . ... ... : ... .. . ... ...
ROW 58 : B-4 00 F P80 ... ... : E-5 00 C ... ... ... : C-5 00 . ... : 9-# 00 D ... : ... .. . ... ... : D-4 01 8 ... ... : B-4 01 8 ... ... : E-4 01 C ... ...
ROW 59 : ... .. E ... ... ... : ... .. A ... ... ... : D-4 00 . ... : ... .. B ... : ... .. . ... ... : ... .. 7 ... ... : ... .. 7 ... ... : ... .. A ... ...
ROW 5A : ... .. D ... ... ... : ... .. . ... ... ... : G-3 00 . ... : ... .. . ... : ... .. . ... ... : ... .. 6 ... ... : ... .. 6 ... ... : ... .. 6 ... ...
ROW 5B : ... .. A ... ... ... : ... .. 9 ... ... ... : F#3 00 . ... : ... .. A ... : ... .. . ... ... : ... .. 5 ... ... : ... .. 5 ... ... : ... .. . ... ...
ROW 5C : ... .. . ... ... ... : B-4 00 C ... ... ... : C#3 00 . ... : ... .. 8 ... : ... .. . ... ... : ... .. . ... ... : ... .. . ... ... : F#4 01 C ... ...
ROW 5D : ... .. . ... ... ... : ... .. A ... ... ... : ... .. . ... : ... .. 7 ... : ... .. . ... ... : ... .. 4 ... ... : ... .. 4 ... ... : ... .. A ... ...
ROW 5E : ... .. . ... ... ... : ... .. . ... ... ... : ... .. . ... : ... .. 6 ... : ... .. . ... ... : ... .. . ... ... : ... .. . ... ... : ... .. 6 ... ...
ROW 5F : ... .. . ... ... ... : ... .. 9 ... ... ... : ... .. . ... : ... .. . ... : ... .. . ... ... : ... .. . ... ... : ... .. . ... ... : ... .. . ... ...
ROW 60 : ... .. . ... ... ... : F#4 00 C ... ... ... : ... .. . ... : 1-# 00 F ... : ... .. . ... ... : ... .. . ... ... : ... .. . ... ... : D-4 01 C ... ...
ROW 61 : ... .. . ... ... ... : ... .. A ... ... ... : ... .. . ... : ... .. C ... : ... .. . ... ... : ... .. . ... ... : ... .. . ... ... : ... .. A ... ...
ROW 62 : ... .. . ... ... ... : ... .. . ... ... ... : ... .. . ... : ... .. 6 ... : ... .. . ... ... : ... .. . ... ... : ... .. . ... ... : ... .. 6 ... ...
ROW 63 : ... .. . ... ... ... : ... .. 9 ... ... ... : ... .. . ... : ... .. 3 ... : ... .. . ... ... : ... .. . ... ... : ... .. . ... ... : ... .. . ... ...
ROW 64 : A#4 00 A P7F ... ... : D-4 00 C ... ... ... : ... .. . ... : ... .. 2 ... : ... .. . ... ... : ... .. . ... ... : ... .. . ... ... : E-4 01 C ... ...
ROW 65 : A-4 00 A P7E ... ... : ... .. A ... ... ... : ... .. . ... : ... .. 0 ... : ... .. . ... ... : ... .. . ... ... : ... .. . ... ... : ... .. A ... ...
ROW 66 : G#4 00 A ... ... ... : ... .. . ... ... ... : ... .. . ... : ... .. . ... : ... .. . ... ... : ... .. . ... ... : ... .. . ... ... : ... .. 6 ... ...
ROW 67 : G-4 00 A ... ... ... : ... .. 9 ... ... ... : ... .. . ... : ... .. . ... : ... .. . ... ... : ... .. . ... ... : ... .. . ... ... : ... .. . ... ...
ROW 68 : B-4 00 9 P80 ... ... : B-3 00 C ... ... ... : ... .. . ... : ... .. F ... : ... .. . ... ... : ... .. . ... ... : ... .. . ... ... : F#4 01 C ... ...
ROW 69 : ... .. 8 ... ... ... : ... .. A ... ... ... : ... .. . ... : ... .. C ... : ... .. . ... ... : ... .. . ... ... : ... .. . ... ... : ... .. A ... ...
ROW 6A : ... .. 7 ... ... ... : ... .. . ... ... ... : ... .. . ... : ... .. 6 ... : ... .. . ... ... : ... .. . ... ... : ... .. . ... ... : ... .. 6 ... ...
ROW 6B : ... .. 6 ... ... ... : ... .. 9 ... ... ... : ... .. . ... : ... .. 3 ... : ... .. . ... ... : ... .. . ... ... : ... .. . ... ... : ... .. . ... ...
ROW 6C : A#4 00 6 P7F ... ... : F#3 00 C ... ... ... : ... .. . ... : ... .. 2 ... : ... .. . ... ... : ... .. . ... ... : ... .. . ... ... : G#4 01 C ... ...
ROW 6D : A-4 00 6 P7E ... ... : ... .. A ... ... ... : ... .. . ... : ... .. 0 ... : ... .. . ... ... : ... .. . ... ... : ... .. . ... ... : ... .. A ... ...
ROW 6E : G#4 00 6 ... ... ... : ... .. . ... ... ... : ... .. . ... : ... .. . ... : ... .. . ... ... : ... .. . ... ... : ... .. . ... ... : ... .. 6 ... ...
ROW 6F : G-4 00 6 ... ... ... : ... .. 9 ... ... ... : ... .. . ... : ... .. . ... : ... .. . ... ... : ... .. . ... ... : ... .. . ... ... : ... .. . ... ...
ROW 70 : D-5 00 F P80 ... ... : F#5 00 D ... ... ... : C#5 00 . ... : B-# 00 D ... : ... .. . ... ... : F#4 01 8 ... ... : D-5 01 8 ... ... : F#4 01 C ... ...
ROW 71 : ... .. E ... ... ... : ... .. B ... ... ... : D#4 00 . ... : ... .. B ... : ... .. . ... ... : ... .. 7 ... ... : ... .. 7 ... ... : ... .. A ... ...
ROW 72 : ... .. D ... ... ... : ... .. . ... ... ... : G#3 00 . ... : ... .. . ... : ... .. . ... ... : ... .. 6 ... ... : ... .. 6 ... ... : ... .. 6 ... ...
ROW 73 : ... .. A ... ... ... : ... .. A ... ... ... : G-3 00 . ... : ... .. A ... : ... .. . ... ... : ... .. 5 ... ... : ... .. 5 ... ... : ... .. . ... ...
ROW 74 : ... .. . ... ... ... : D-5 00 D ... ... ... : D-3 00 . ... : ... .. 8 ... : ... .. . ... ... : ... .. . ... ... : ... .. . ... ... : G#4 01 C ... ...
ROW 75 : ... .. . ... ... ... : ... .. B ... ... ... : ... .. . ... : ... .. 7 ... : ... .. . ... ... : ... .. 4 ... ... : ... .. 4 ... ... : ... .. A ... ...
ROW 76 : ... .. . ... ... ... : ... .. . ... ... ... : ... .. . ... : ... .. 6 ... : ... .. . ... ... : ... .. . ... ... : ... .. . ... ... : ... .. 6 ... ...
ROW 77 : ... .. . ... ... ... : ... .. A ... ... ... : ... .. . ... : ... .. . ... : ... .. . ... ... : ... .. . ... ... : ... .. . ... ... : ... .. . ... ...
ROW 78 : ... .. . ... ... ... : B-4 00 D ... ... ... : ... .. . ... : 1-# 00 F ... : ... .. . ... ... : ... .. . ... ... : ... .. . ... ... : A#4 01 C ... ...
ROW 79 : ... .. . ... ... ... : ... .. B ... ... ... : ... .. . ... : ... .. C ... : ... .. . ... ... : ... .. . ... ... : ... .. . ... ... : ... .. A ... ...
ROW 7A : ... .. . ... ... ... : ... .. . ... ... ... : ... .. . ... : ... .. 6 ... : ... .. . ... ... : ... .. . ... ... : ... .. . ... ... : ... .. 6 ... ...
ROW 7B : ... .. . ... ... ... : ... .. A ... ... ... : ... .. . ... : ... .. 3 ... : ... .. . ... ... : ... .. . ... ... : ... .. . ... ... : ... .. . ... ...
ROW 7C : C#5 00 A P7E ... ... : F#4 00 D ... ... ... : ... .. . ... : ... .. 2 ... : ... .. . ... ... : ... .. . ... ... : ... .. . ... ... : B-4 01 C ... ...
ROW 7D : B-4 00 A P82 ... ... : ... .. B ... ... ... : ... .. . ... : ... .. 0 ... : ... .. . ... ... : ... .. . ... ... : ... .. . ... ... : ... .. A ... ...
ROW 7E : A#4 00 A P81 ... ... : ... .. . ... ... ... : ... .. . ... : ... .. . ... : ... .. . ... ... : ... .. . ... ... : ... .. . ... ... : ... .. 6 ... ...
ROW 7F : A-4 00 A P80 ... ... : ... .. A ... ... ... : ... .. . ... : ... .. . ... : ... .. . ... ... : ... .. . ... ... : ... .. . ... ... : ... .. . ... ...
ROW 80 : D-5 00 9 ... ... ... : D-4 00 D ... ... ... : ... .. . ... : ... .. F ... : ... .. . ... ... : ... .. . ... ... : ... .. . ... ... : C#5 01 C ... ...
ROW 81 : ... .. 8 ... ... ... : ... .. B ... ... ... : ... .. . ... : ... .. C ... : ... .. . ... ... : ... .. . ... ... : ... .. . ... ... : ... .. A ... ...
ROW 82 : ... .. 7 ... ... ... : ... .. . ... ... ... : ... .. . ... : ... .. 6 ... : ... .. . ... ... : ... .. . ... ... : ... .. . ... ... : ... .. 6 ... ...
ROW 83 : ... .. 6 ... ... ... : ... .. A ... ... ... : ... .. . ... : ... .. 3 ... : ... .. . ... ... : ... .. . ... ... : ... .. . ... ... : ... .. . ... ...
ROW 84 : C#5 00 6 P7E ... ... : B-3 00 D ... ... ... : ... .. . ... : ... .. 2 ... : ... .. . ... ... : ... .. . ... ... : ... .. . ... ... : D-5 01 C ... ...
ROW 85 : B-4 00 6 P82 ... ... : ... .. B ... ... ... : ... .. . ... : ... .. 0 ... : ... .. . ... ... : ... .. . ... ... : ... .. . ... ... : ... .. A ... ...
ROW 86 : A#4 00 6 P81 ... ... : ... .. . ... ... ... : ... .. . ... : ... .. . ... : ... .. . ... ... : ... .. . ... ... : ... .. . ... ... : ... .. 6 ... ...
ROW 87 : A-4 00 6 P80 ... ... : ... .. A ... ... ... : ... .. . ... : ... .. . ... : ... .. . ... ... : ... .. . ... ... : ... .. . ... ... : ... .. . ... ...
ROW 88 : F#5 00 F ... ... ... : G#5 00 D ... ... ... : F-5 00 . ... : 9-# 00 D ... : ... .. . ... ... : B-4 01 8 ... ... : F#5 01 8 ... ... : B-4 01 C ... ...
ROW 89 : ... .. E ... ... ... : ... .. B ... ... ... : G-4 00 . ... : ... .. B ... : ... .. . ... ... : ... .. 7 ... ... : ... .. 7 ... ... : ... .. A ... ...
ROW 8A : ... .. D ... ... ... : ... .. . ... ... ... : C-4 00 . ... : ... .. . ... : ... .. . ... ... : ... .. 6 ... ... : ... .. 6 ... ... : ... .. 7 ... ...
ROW 8B : ... .. A ... ... ... : ... .. A ... ... ... : B-3 00 . ... : ... .. A ... : ... .. . ... ... : ... .. 5 ... ... : ... .. 5 ... ... : ... .. . ... ...
ROW 8C : ... .. . ... ... ... : F#5 00 D ... ... ... : F#3 00 . ... : ... .. 8 ... : ... .. . ... ... : ... .. . ... ... : ... .. . ... ... : C#5 01 D ... ...
ROW 8D : ... .. . ... ... ... : ... .. B ... ... ... : ... .. . ... : ... .. 7 ... : ... .. . ... ... : ... .. 4 ... ... : ... .. 4 ... ... : ... .. B ... ...
ROW 8E : ... .. . ... ... ... : ... .. . ... ... ... : ... .. . ... : ... .. 6 ... : ... .. . ... ... : ... .. . ... ... : ... .. . ... ... : ... .. 6 ... ...
ROW 8F : ... .. . ... ... ... : ... .. A ... ... ... : ... .. . ... : ... .. . ... : ... .. . ... ... : ... .. . ... ... : ... .. . ... ... : ... .. . ... ...
ROW 90 : ... .. . ... ... ... : D-5 00 D ... ... ... : ... .. . ... : 1-# 00 F ... : ... .. . ... ... : ... .. . ... ... : ... .. . ... ... : D-5 01 C ... ...
ROW 91 : ... .. . ... ... ... : ... .. B ... ... ... : ... .. . ... : ... .. C ... : ... .. . ... ... : ... .. . ... ... : ... .. . ... ... : ... .. A ... ...
ROW 92 : ... .. . ... ... ... : ... .. . ... ... ... : ... .. . ... : ... .. 6 ... : ... .. . ... ... : ... .. . ... ... : ... .. . ... ... : ... .. 6 ... ...
ROW 93 : ... .. . ... ... ... : ... .. A ... ... ... : ... .. . ... : ... .. 3 ... : ... .. . ... ... : ... .. . ... ... : ... .. . ... ... : ... .. . ... ...
ROW 94 : E-5 00 A P81 ... ... : B-4 00 D ... ... ... : ... .. . ... : ... .. 2 ... : ... .. . ... ... : ... .. . ... ... : ... .. . ... ... : E-5 01 B ... ...
ROW 95 : D#5 00 A P7E ... ... : ... .. B ... ... ... : ... .. . ... : ... .. 0 ... : ... .. . ... ... : ... .. . ... ... : ... .. . ... ... : ... .. 9 ... ...
ROW 96 : C#5 00 A P81 ... ... : ... .. . ... ... ... : ... .. . ... : ... .. . ... : ... .. . ... ... : ... .. . ... ... : ... .. . ... ... : ... .. 5 ... ...
ROW 97 : C-5 00 A P7F ... ... : ... .. A ... ... ... : ... .. . ... : ... .. . ... : ... .. . ... ... : ... .. . ... ... : ... .. . ... ... : ... .. . ... ...
ROW 98 : F#5 00 9 P80 ... ... : F#4 00 D ... ... ... : ... .. . ... : 8-# 00 8 ... : ... .. . ... ... : ... .. . ... ... : ... .. . ... ... : F#5 01 A ... ...
ROW 99 : ... .. 8 ... ... ... : ... .. B ... ... ... : ... .. . ... : ... .. 6 ... : ... .. . ... ... : ... .. . ... ... : ... .. . ... ... : ... .. 8 ... ...
ROW 9A : ... .. 7 ... ... ... : ... .. . ... ... ... : ... .. . ... : ... .. 0 ... : ... .. . ... ... : ... .. . ... ... : ... .. . ... ... : ... .. 4 ... ...
ROW 9B : ... .. 6 ... ... ... : ... .. A ... ... ... : ... .. . ... : ... .. . ... : ... .. . ... ... : ... .. . ... ... : ... .. . ... ... : ... .. . ... ...
ROW 9C : E-5 00 6 P81 ... ... : D-4 00 D ... ... ... : ... .. . ... : ... .. 8 ... : ... .. . ... ... : ... .. . ... ... : ... .. . ... ... : G#5 01 9 ... ...
ROW 9D : D#5 00 6 P7E ... ... : ... .. B ... ... ... : ... .. . ... : ... .. 6 ... : ... .. . ... ... : ... .. . ... ... : ... .. . ... ... : ... .. 7 ... ...
ROW 9E : C#5 00 6 P82 ... ... : ... .. . ... ... ... : ... .. . ... : ... .. 0 ... : ... .. . ... ... : ... .. . ... ... : ... .. . ... ... : ... .. 4 ... ...
ROW 9F : C-5 00 6 P80 ... ... : ... .. A ... ... ... : ... .. . ... : ... .. . ... : ... .. . ... ... : ... .. . ... ... : ... .. . ... ... : ... .. . ... ...
ROW A0 : A-5 00 F P81 ... ... : A-5 00 F ... ... ... : C#5 00 . ... : 9-# 00 D ... : ... .. . ... ... : D-4 01 8 ... ... : A-3 01 8 ... ... : F-3 01 8 ... ...
ROW A1 : ... .. E ... ... ... : ... .. E ... ... ... : D#4 00 . ... : ... .. B ... : ... .. . ... ... : ... .. 7 ... ... : ... .. 7 ... ... : ... .. 6 ... ...
ROW A2 : ... .. A ... ... ... : ... .. A ... ... ... : G#3 00 . ... : ... .. . ... : ... .. . ... ... : ... .. 6 ... ... : ... .. 6 ... ... : ... .. 4 ... ...
ROW A3 : ... .. 8 ... ... ... : ... .. 8 ... ... ... : G-3 00 . ... : ... .. A ... : ... .. . ... ... : ... .. 5 ... ... : ... .. 5 ... ... : ... .. . ... ...
ROW A4 : ... .. 6 ... ... ... : ... .. 6 ... ... ... : D-3 00 . ... : ... .. 8 ... : ... .. . ... ... : ... .. . ... ... : ... .. . ... ... : ... .. . ... ...
ROW A5 : ... .. . ... ... ... : ... .. . ... ... ... : ... .. . ... : ... .. 7 ... : ... .. . ... ... : ... .. 4 ... ... : ... .. 4 ... ... : ... .. . ... ...
ROW A6 : ... .. 4 ... ... ... : ... .. 4 ... ... ... : ... .. . ... : ... .. 6 ... : ... .. . ... ... : ... .. . ... ... : ... .. . ... ... : ... .. . ... ...
ROW A7 : ... .. . ... ... ... : ... .. . ... ... ... : ... .. . ... : ... .. . ... : ... .. . ... ... : ... .. . ... ... : ... .. . ... ... : ... .. . ... ...
ROW A8 : ... .. 3 ... ... ... : ... .. 3 ... ... ... : C#5 00 . ... : 1-# 00 F ... : ... .. . ... ... : ... .. . ... ... : ... .. . ... ... : ... .. . ... ...
ROW A9 : ... .. . ... ... ... : ... .. . ... ... ... : D#4 00 . ... : ... .. C ... : ... .. . ... ... : ... .. . ... ... : ... .. . ... ... : ... .. . ... ...
ROW AA : ... .. 4 ... ... ... : ... .. 4 ... ... ... : G#3 00 . ... : ... .. 6 ... : ... .. . ... ... : ... .. . ... ... : ... .. . ... ... : ... .. . ... ...
ROW AB : ... .. . ... ... ... : ... .. . ... ... ... : G-3 00 . ... : ... .. 3 ... : ... .. . ... ... : ... .. . ... ... : ... .. . ... ... : ... .. . ... ...
ROW AC : ... .. . ... ... ... : ... .. . ... ... ... : D-3 00 . ... : ... .. F ... : ... .. . ... ... : ... .. . ... ... : ... .. . ... ... : ... .. . ... ...
ROW AD : ... .. . ... ... ... : ... .. . ... ... ... : ... .. . ... : ... .. C ... : ... .. . ... ... : ... .. . ... ... : ... .. . ... ... : ... .. . ... ...
ROW AE : ... .. . ... ... ... : ... .. . ... ... ... : ... .. . ... : ... .. 6 ... : ... .. . ... ... : ... .. . ... ... : ... .. . ... ... : ... .. . ... ...
ROW AF : ... .. . ... ... ... : ... .. . ... ... ... : ... .. . ... : ... .. 3 ... : ... .. . ... ... : ... .. . ... ... : ... .. . ... ... : ... .. 2 ... ...
ROW B0 : ... .. 5 ... ... ... : ... .. 5 ... ... ... : C#4 00 . ... : ... .. F ... : ... .. . ... ... : ... .. 2 ... ... : ... .. 2 ... ... : ... .. . ... ...
ROW B1 : ... .. . ... ... ... : ... .. . ... ... ... : D#3 00 . ... : ... .. C ... : ... .. . ... ... : ... .. . ... ... : ... .. . ... ... : ... .. 1 ... ...
ROW B2 : ... .. . ... ... ... : ... .. . ... ... ... : G#2 00 . ... : ... .. 6 ... : ... .. . ... ... : ... .. . ... ... : ... .. . ... ... : ... .. . ... ...
ROW B3 : ... .. . ... ... ... : ... .. . ... ... ... : G-2 00 . ... : ... .. 3 ... : ... .. . ... ... : ... .. . ... ... : ... .. . ... ... : ... .. . ... ...
ROW B4 : ... .. 6 ... ... ... : ... .. 6 ... ... ... : D-2 00 . ... : ... .. 2 ... : ... .. . ... ... : ... .. . ... ... : ... .. . ... ... : ... .. . ... ...
ROW B5 : ... .. . ... ... ... : ... .. . ... ... ... : ... .. . ... : ... .. 0 ... : ... .. . ... ... : ... .. . ... ... : ... .. . ... ... : ... .. . ... ...
ROW B6 : ... .. . ... ... ... : ... .. . ... ... ... : ... .. . ... : ... .. . ... : ... .. . ... ... : ... .. . ... ... : ... .. . ... ... : ... .. . ... ...
ROW B7 : ... .. . ... ... ... : ... .. . ... ... ... : ... .. . ... : ... .. . ... : ... .. . ... ... : ... .. . ... ... : ... .. . ... ... : ... .. . ... ...
ROW B8 : ... .. . ... ... ... : ... .. . ... ... ... : C#4 00 . ... : 9-# 00 D ... : ... .. . ... ... : A-3 01 8 ... ... : D-4 01 8 ... ... : F-4 01 8 ... ...
ROW B9 : ... .. . ... ... ... : ... .. . ... ... ... : D#3 00 . ... : ... .. B ... : ... .. . ... ... : ... .. 7 ... ... : ... .. 7 ... ... : ... .. 6 ... ...
ROW BA : ... .. 7 ... ... ... : ... .. 7 ... ... ... : G#2 00 . ... : ... .. . ... : ... .. . ... ... : ... .. 6 ... ... : ... .. 6 ... ... : ... .. 4 ... ...
ROW BB : ... .. . ... ... ... : ... .. . ... ... ... : G-2 00 . ... : ... .. A ... : ... .. . ... ... : ... .. 5 ... ... : ... .. 5 ... ... : ... .. . ... ...
ROW BC : ... .. 8 ... ... ... : ... .. 8 ... ... ... : D-2 00 . ... : ... .. 8 ... : ... .. . ... ... : ... .. . ... ... : ... .. . ... ... : ... .. . ... ...
ROW BD : ... .. . ... ... ... : ... .. . ... ... ... : ... .. . ... : ... .. 7 ... : ... .. . ... ... : ... .. 4 ... ... : ... .. 4 ... ... : ... .. . ... ...
ROW BE : ... .. . ... ... ... : ... .. . ... ... ... : ... .. . ... : ... .. 6 ... : ... .. . ... ... : ... .. . ... ... : ... .. . ... ... : ... .. . ... ...
ROW BF : ... .. . ... ... ... : ... .. . ... ... ... : ... .. . ... : ... .. . ... : ... .. . ... ... : ... .. . ... ... : ... .. . ... ... : ... .. . ... ...
ROW C0 : A#5 00 8 ... ... ... : A#5 00 8 ... ... ... : C#5 00 . ... : 1-# 00 F ... : ... .. . ... ... : ... .. . ... ... : ... .. . ... ... : ... .. . ... ...
ROW C1 : B-5 00 8 P80 ... ... : B-5 00 8 P7F ... ... : D#4 00 . ... : ... .. C ... : ... .. . ... ... : ... .. . ... ... : ... .. . ... ... : ... .. . ... ...
ROW C2 : ... .. 9 P7F ... ... : A#5 00 9 P81 ... ... : G#3 00 . ... : ... .. 6 ... : ... .. . ... ... : ... .. . ... ... : ... .. . ... ... : ... .. . ... ...
ROW C3 : A#5 00 9 ... ... ... : A-5 00 9 P82 ... ... : G-3 00 . ... : ... .. 3 ... : ... .. . ... ... : ... .. . ... ... : ... .. . ... ... : ... .. 2 ... ...
ROW C4 : A-5 00 A ... ... ... : G#5 00 A P81 ... ... : D-3 00 . ... : ... .. 2 ... : ... .. . ... ... : ... .. 2 ... ... : ... .. 2 ... ... : ... .. . ... ...
ROW C5 : G#5 00 A ... ... ... : G-5 00 A P82 ... ... : ... .. . ... : ... .. 0 ... : ... .. . ... ... : ... .. . ... ... : ... .. . ... ... : ... .. 1 ... ...
ROW C6 : G-5 00 A P82 ... ... : ... .. . P81 ... ... : ... .. . ... : ... .. . ... : ... .. . ... ... : ... .. . ... ... : ... .. . ... ... : ... .. . ... ...
ROW C7 : G#5 00 A P80 ... ... : G#5 00 A P7F ... ... : ... .. . ... : ... .. . ... : ... .. . ... ... : ... .. . ... ... : ... .. . ... ... : ... .. . ... ...
ROW C8 : A-5 00 A P81 ... ... : A-5 00 A P80 ... ... : C#3 00 . P77 : ... .. F ... : ... .. . ... ... : ... .. . ... ... : ... .. . ... ... : ... .. . ... ...
ROW C9 : A#5 00 A P80 ... ... : A#5 00 A P7F ... ... : B-2 00 . P88 : ... .. C ... : ... .. . ... ... : ... .. . ... ... : ... .. . ... ... : ... .. . ... ...
ROW CA : B-5 00 A ... ... ... : B-5 00 A ... ... ... : A#2 00 . P83 : ... .. 6 ... : ... .. . ... ... : ... .. . ... ... : ... .. . ... ... : ... .. . ... ...
ROW CB : ... .. . ... ... ... : ... .. . ... ... ... : A-2 00 . P7F : ... .. 3 ... : ... .. . ... ... : ... .. . ... ... : ... .. . ... ... : ... .. . ... ...
ROW CC : A#5 00 A P7F ... ... : A-5 00 A P82 ... ... : G#2 00 . P7E : ... .. 2 ... : ... .. . ... ... : ... .. . ... ... : ... .. . ... ... : ... .. 0 ... ...
ROW CD : A-5 00 A P80 ... ... : ... .. . P7F ... ... : G-2 00 . ... : ... .. 0 ... : ... .. . ... ... : ... .. . ... ... : ... .. . ... ... : ... .. . ... ...
ROW CE : G#5 00 A P7F ... ... : G-5 00 A P82 ... ... : F#2 00 . P80 : ... .. . ... : ... .. . ... ... : --- .. . ... ... : ... .. . ... ... : ... .. . ... ...
ROW CF : G-5 00 A P82 ... ... : ... .. . P81 ... ... : F-2 00 . P84 : ... .. . ... : ... .. . ... ... : ... .. . ... ... : ... .. . ... ... : ... .. . ... ...
ROW D0 : G#5 00 A P80 ... ... : G#5 00 A P7F ... ... : E-2 00 . P8A : 9-# 00 D ... : ... .. . ... ... : D-4 01 8 ... ... : F-4 01 8 ... ... : A-4 01 C ... ...
ROW D1 : A-5 00 A P81 ... ... : A-5 00 A P80 ... ... : D#2 00 . P92 : ... .. B ... : ... .. . ... ... : ... .. 7 ... ... : ... .. 7 ... ... : ... .. A ... ...
ROW D2 : A#5 00 A P80 ... ... : A#5 00 A P7F ... ... : ... .. . P72 : ... .. . ... : ... .. . ... ... : ... .. 6 ... ... : ... .. 6 ... ... : ... .. 6 ... ...
ROW D3 : B-5 00 A ... ... ... : B-5 00 A ... ... ... : D-2 00 . P7D : ... .. A ... : ... .. . ... ... : ... .. 5 ... ... : ... .. 5 ... ... : ... .. . ... ...
ROW D4 : ... .. . ... ... ... : ... .. . ... ... ... : C#2 00 . P8A : ... .. 8 ... : ... .. . ... ... : ... .. . ... ... : ... .. . ... ... : ... .. . ... ...
ROW D5 : A#5 00 A ... ... ... : A#5 00 A ... ... ... : ... .. . P6A : ... .. 7 ... : ... .. . ... ... : ... .. 4 ... ... : ... .. 4 ... ... : ... .. . ... ...
ROW D6 : A-5 00 A P81 ... ... : A-5 00 A P80 ... ... : C-2 00 . P7A : ... .. 6 ... : ... .. . ... ... : ... .. . ... ... : ... .. . ... ... : ... .. . ... ...
ROW D7 : G#5 00 A P80 ... ... : G#5 00 A P7F ... ... : B-1 00 . P8D : ... .. . ... : ... .. . ... ... : ... .. . ... ... : ... .. . ... ... : ... .. . ... ...
ROW D8 : G-5 00 A P82 ... ... : G-5 00 A P81 ... ... : ... .. . P6D : 1-# 00 F ... : ... .. . ... ... : ... .. . ... ... : ... .. . ... ... : ... .. . ... ...
ROW D9 : G#5 00 A P7F ... ... : ... .. . P82 ... ... : A#1 00 . P83 : ... .. C ... : ... .. . ... ... : ... .. . ... ... : ... .. . ... ... : ... .. . ... ...
ROW DA : ... .. 0 ... ... ... : ... .. 0 ... ... ... : --- .. . ... : ... .. 6 ... : ... .. . ... ... : ... .. . ... ... : ... .. . ... ... : ... .. . ... ...
ROW DB : ... .. . ... ... ... : ... .. . ... ... ... : ... .. . ... : ... .. 3 ... : ... .. . ... ... : ... .. . ... ... : ... .. . ... ... : ... .. . ... ...
ROW DC : ... .. . ... ... ... : ... .. . ... ... ... : ... .. . ... : ... .. 2 ... : ... .. . ... ... : --- .. . ... ... : --- .. . ... ... : --- .. . ... ...
ROW DD : ... .. . ... ... ... : ... .. . ... ... ... : ... .. . ... : ... .. 0 ... : ... .. . ... ... : ... .. . ... ... : ... .. . ... ... : ... .. . ... ...
ROW DE : ... .. . ... ... ... : ... .. . ... ... ... : ... .. . ... : ... .. . ... : ... .. . ... ... : ... .. . ... ... : ... .. . ... ... : ... .. . ... ...
ROW DF : ... .. . ... ... ... : ... .. . ... ... ... : ... .. . ... : ... .. . ... : ... .. . ... ... : ... .. . ... ... : ... .. . ... ... : ... .. . ... ...
ROW E0 : F-3 00 F P80 ... ... : C-4 00 F P80 ... ... : E-5 00 . P80 : B-# 00 C ... : ... .. . ... ... : D#4 01 A ... ... : F-3 01 A ... ... : F-1 01 C ... ...
ROW E1 : ... .. E ... ... ... : ... .. E ... ... ... : F#4 00 . ... : ... .. . ... : ... .. . ... ... : ... .. 9 ... ... : ... .. 9 ... ... : ... .. A ... ...
ROW E2 : ... .. D ... ... ... : ... .. D ... ... ... : B-3 00 . ... : ... .. A ... : ... .. . ... ... : ... .. 8 ... ... : ... .. 8 ... ... : ... .. 6 ... ...
ROW E3 : ... .. A ... ... ... : ... .. A ... ... ... : A#3 00 . ... : ... .. . ... : ... .. . ... ... : ... .. 7 ... ... : ... .. 7 ... ... : ... .. . ... ...
ROW E4 : ... .. . ... ... ... : ... .. . ... ... ... : F-3 00 . ... : ... .. 9 ... : ... .. . ... ... : ... .. . ... ... : ... .. . ... ... : ... .. . ... ...
ROW E5 : ... .. . ... ... ... : ... .. . ... ... ... : ... .. . ... : ... .. . ... : ... .. . ... ... : ... .. 6 ... ... : ... .. 6 ... ... : ... .. . ... ...
ROW E6 : ... .. . ... ... ... : ... .. . ... ... ... : D#3 00 . P88 : ... .. 8 ... : ... .. . ... ... : --- .. . ... ... : ... .. . ... ... : ... .. . ... ...
ROW E7 : ... .. 2 ... ... ... : ... .. 2 ... ... ... : D-3 00 . P7D : ... .. . ... : ... .. . ... ... : ... .. . ... ... : ... .. 5 ... ... : ... .. . ... ...
ROW E8 : F-1 00 F ... ... ... : D#4 00 F ... ... ... : C-3 00 . P8C : ... .. 7 ... : ... .. . ... ... : G#3 01 A ... ... : F#3 01 A ... ... : ... .. . P60 ...
ROW E9 : ... .. E ... ... ... : ... .. E ... ... ... : B-2 00 . P85 : ... .. . ... : ... .. . ... ... : ... .. 9 ... ... : ... .. 9 ... ... : E-1 01 6 P97 ...
ROW EA : ... .. D ... ... ... : ... .. D ... ... ... : A#2 00 . P80 : ... .. 6 ... : ... .. . ... ... : ... .. 8 ... ... : ... .. 8 ... ... : ... .. . P77 ...
ROW EB : ... .. A ... ... ... : ... .. A ... ... ... : A-2 00 . P7C : ... .. . ... : ... .. . ... ... : ... .. 7 ... ... : ... .. 7 ... ... : ... .. . P57 ...
ROW EC : ... .. . ... ... ... : ... .. . ... ... ... : G#2 00 . P7B : ... .. 5 ... : ... .. . ... ... : ... .. . ... ... : F-3 01 6 ... ... : --- .. . P82 ...
ROW ED : ... .. . ... ... ... : ... .. . ... ... ... : G-2 00 . ... : ... .. . ... : ... .. . ... ... : ... .. 6 ... ... : ... .. . ... ... : ... .. . ... ...
ROW EE : ... .. . ... ... ... : ... .. . ... ... ... : F#2 00 . P7D : ... .. 4 ... : ... .. . ... ... : --- .. . P83 ... : ... .. 5 ... ... : ... .. . ... ...
ROW EF : ... .. 2 ... ... ... : ... .. 2 ... ... ... : F-2 00 . P81 : ... .. . ... : ... .. . ... ... : ... .. . ... ... : ... .. 4 ... ... : ... .. . ... ...
ROW F0 : ... .. F ... ... ... : D-4 00 F ... ... ... : F-4 00 . P80 : ... .. . ... : ... .. . ... ... : G#3 01 A P81 ... : G#3 01 A ... ... : F-2 01 C P80 ...
ROW F1 : ... .. E ... ... ... : ... .. E ... ... ... : ... .. . ... : ... .. . ... : ... .. . ... ... : ... .. 9 ... ... : ... .. 9 ... ... : ... .. A ... ...
ROW F2 : ... .. D ... ... ... : ... .. D ... ... ... : ... .. . ... : ... .. . ... : ... .. . ... ... : ... .. 8 ... ... : ... .. 8 ... ... : ... .. 6 ... ...
ROW F3 : ... .. A ... ... ... : ... .. A ... ... ... : ... .. . ... : ... .. . ... : ... .. . ... ... : ... .. 7 ... ... : ... .. 7 ... ... : ... .. . ... ...
ROW F4 : ... .. . ... ... ... : ... .. . ... ... ... : ... .. . ... : ... .. . ... : ... .. . ... ... : ... .. . ... ... : F#3 01 6 ... ... : --- .. . P7E ...
ROW F5 : ... .. . ... ... ... : ... .. . ... ... ... : ... .. . ... : ... .. . ... : ... .. . ... ... : ... .. 6 ... ... : ... .. . ... ... : ... .. . ... ...
ROW F6 : ... .. . ... ... ... : ... .. . ... ... ... : ... .. . ... : ... .. . ... : ... .. . ... ... : --- .. . P83 ... : ... .. 5 ... ... : ... .. . ... ...
ROW F7 : ... .. 2 ... ... ... : ... .. 2 ... ... ... : ... .. . ... : ... .. . ... : ... .. . ... ... : ... .. . ... ... : ... .. 4 ... ... : ... .. . ... ...
ROW F8 : G#3 00 F ... ... ... : F-3 00 F ... ... ... : E-4 00 . ... : 9-# 00 C ... : ... .. . ... ... : D#4 01 A P81 ... : F-3 01 A ... ... : F-0 01 C P80 ...
ROW F9 : ... .. E ... ... ... : ... .. E ... ... ... : F#3 00 . ... : ... .. . ... : ... .. . ... ... : ... .. 9 ... ... : ... .. 9 ... ... : ... .. A ... ...
ROW FA : ... .. D ... ... ... : ... .. D ... ... ... : B-2 00 . ... : ... .. A ... : ... .. . ... ... : ... .. 8 ... ... : ... .. 8 ... ... : ... .. 6 ... ...
ROW FB : ... .. A ... ... ... : ... .. A ... ... ... : A#2 00 . ... : ... .. . ... : ... .. . ... ... : ... .. 7 ... ... : ... .. 7 ... ... : ... .. . ... ...
ROW FC : ... .. . ... ... ... : ... .. . ... ... ... : F-2 00 . ... : ... .. 9 ... : ... .. . ... ... : ... .. . ... ... : G#3 01 6 ... ... : ... .. . ... ...
ROW FD : ... .. . ... ... ... : ... .. . ... ... ... : ... .. . ... : ... .. . ... : ... .. . ... ... : ... .. 6 ... ... : ... .. . ... ... : ... .. . ... ...
ROW FE : ... .. . ... ... ... : ... .. . ... ... ... : ... .. . ... : ... .. 8 ... : ... .. . ... ... : --- .. . ... ... : ... .. 5 ... ... : ... .. . ... ...
ROW FF : ... .. 2 ... ... ... : ... .. 2 ... ... ... : ... .. . ... : ... .. . ... : ... .. . ... ... : ... .. . ... ... : ... .. 4 ... ... : ... .. . ... ...

PATTERN 1C
ROW 00 : F-1 00 F ... ... ... : C-4 00 F ... ... ... : E-2 00 . P86 : ... .. 7 ... : ... .. . ... ... : G#3 01 A ... ... : F#3 01 A ... ... : ... .. . P60 ...
ROW 01 : ... .. E ... ... ... : ... .. E ... ... ... : D#2 00 . P8E : ... .. . ... : ... .. . ... ... : ... .. 9 ... ... : ... .. 9 ... ... : ... .. . P40 ...
ROW 02 : ... .. D ... ... ... : ... .. D ... ... ... : ... .. . P6E : ... .. 6 ... : ... .. . ... ... : ... .. 8 ... ... : ... .. 8 ... ... : E-0 01 6 PCE ...
ROW 03 : ... .. A ... ... ... : ... .. A ... ... ... : D-2 00 . P79 : ... .. . ... : ... .. . ... ... : ... .. 7 ... ... : ... .. 7 ... ... : ... .. . PAE ...
ROW 04 : ... .. . ... ... ... : ... .. . ... ... ... : C#2 00 . P86 : ... .. 5 ... : ... .. . ... ... : ... .. . ... ... : F-3 01 6 ... ... : --- .. . P83 ...
ROW 05 : ... .. . ... ... ... : ... .. . ... ... ... : C-2 00 . P96 : ... .. . ... : ... .. . ... ... : ... .. 6 ... ... : ... .. . ... ... : ... .. . ... ...
ROW 06 : ... .. . ... ... ... : ... .. . ... ... ... : ... .. . P76 : ... .. 4 ... : ... .. . ... ... : --- .. . P83 ... : ... .. 5 ... ... : ... .. . ... ...
ROW 07 : ... .. 2 ... ... ... : ... .. 2 ... ... ... : B-1 00 . P89 : ... .. . ... : ... .. . ... ... : ... .. . ... ... : ... .. 4 ... ... : ... .. . ... ...
ROW 08 : ... .. F ... ... ... : B-3 00 F ... ... ... : F-4 00 . P80 : ... .. . ... : ... .. . ... ... : G#3 01 A P81 ... : G#3 01 A ... ... : F-2 01 C P80 ...
ROW 09 : ... .. E ... ... ... : ... .. E ... ... ... : ... .. . ... : ... .. . ... : ... .. . ... ... : ... .. 9 ... ... : ... .. 9 ... ... : ... .. A ... ...
ROW 0A : ... .. D ... ... ... : ... .. D ... ... ... : ... .. . ... : ... .. . ... : ... .. . ... ... : ... .. 8 ... ... : ... .. 8 ... ... : ... .. 6 ... ...
ROW 0B : ... .. A ... ... ... : ... .. A ... ... ... : ... .. . ... : ... .. . ... : ... .. . ... ... : ... .. 7 ... ... : ... .. 7 ... ... : ... .. . ... ...
ROW 0C : ... .. . ... ... ... : ... .. . ... ... ... : ... .. . ... : ... .. . ... : ... .. . ... ... : ... .. . ... ... : F#3 01 6 ... ... : --- .. . P7E ...
ROW 0D : ... .. . ... ... ... : ... .. . ... ... ... : ... .. . ... : ... .. . ... : ... .. . ... ... : ... .. 6 ... ... : ... .. . ... ... : ... .. . ... ...
ROW 0E : ... .. . ... ... ... : ... .. . ... ... ... : ... .. . ... : ... .. . ... : ... .. . ... ... : --- .. . P83 ... : ... .. 5 ... ... : ... .. . ... ...
ROW 0F : ... .. 2 ... ... ... : ... .. 2 ... ... ... : ... .. . ... : ... .. . ... : ... .. . ... ... : ... .. . ... ... : ... .. 4 ... ... : ... .. . ... ...
ROW 10 : A#3 00 F ... ... ... : F-3 00 F ... ... ... : E-5 00 . ... : A-# 00 C ... : ... .. . ... ... : F-4 01 A P81 ... : F-3 01 A ... ... : F-1 01 C P80 ...
ROW 11 : ... .. E ... ... ... : ... .. E ... ... ... : F#4 00 . ... : ... .. . ... : ... .. . ... ... : ... .. 9 ... ... : ... .. 9 ... ... : ... .. A ... ...
ROW 12 : ... .. D ... ... ... : ... .. D ... ... ... : B-3 00 . ... : ... .. A ... : ... .. . ... ... : ... .. 8 ... ... : ... .. 8 ... ... : ... .. 6 ... ...
ROW 13 : ... .. A ... ... ... : ... .. A ... ... ... : A#3 00 . ... : ... .. . ... : ... .. . ... ... : ... .. 7 ... ... : ... .. 7 ... ... : ... .. . ... ...
ROW 14 : ... .. . ... ... ... : ... .. . ... ... ... : F-3 00 . ... : ... .. 9 ... : ... .. . ... ... : ... .. . ... ... : G#3 01 6 ... ... : ... .. . ... ...
ROW 15 : ... .. . ... ... ... : ... .. . ... ... ... : ... .. . ... : ... .. . ... : ... .. . ... ... : ... .. 6 ... ... : ... .. . ... ... : ... .. . ... ...
ROW 16 : ... .. . ... ... ... : ... .. . ... ... ... : ... .. . ... : ... .. 8 ... : ... .. . ... ... : --- .. . ... ... : ... .. 5 ... ... : ... .. . ... ...
ROW 17 : ... .. 2 ... ... ... : ... .. 2 ... ... ... : ... .. . ... : ... .. . ... : ... .. . ... ... : ... .. . ... ... : ... .. 4 ... ... : ... .. . ... ...
ROW 18 : F-1 00 F ... ... ... : D#4 00 F ... ... ... : ... .. . ... : ... .. 7 ... : ... .. . ... ... : A#3 01 A ... ... : F#3 01 A ... ... : ... .. . ... ...
ROW 19 : ... .. E ... ... ... : ... .. E ... ... ... : ... .. . ... : ... .. . ... : ... .. . ... ... : ... .. 9 ... ... : ... .. 9 ... ... : ... .. . ... ...
ROW 1A : ... .. D ... ... ... : ... .. D ... ... ... : ... .. . ... : ... .. 6 ... : ... .. . ... ... : ... .. 8 ... ... : ... .. 8 ... ... : ... .. . ... ...
ROW 1B : ... .. A ... ... ... : ... .. A ... ... ... : ... .. . ... : ... .. . ... : ... .. . ... ... : ... .. 7 ... ... : ... .. 7 ... ... : ... .. . ... ...
ROW 1C : ... .. . ... ... ... : ... .. . ... ... ... : ... .. . ... : ... .. 5 ... : ... .. . ... ... : ... .. . ... ... : F-3 01 6 ... ... : --- .. . P7F ...
ROW 1D : ... .. . ... ... ... : ... .. . ... ... ... : ... .. . ... : ... .. . ... : ... .. . ... ... : ... .. 6 ... ... : ... .. . ... ... : ... .. . ... ...
ROW 1E : ... .. . ... ... ... : ... .. . ... ... ... : ... .. . ... : ... .. 4 ... : ... .. . ... ... : --- .. . ... ... : ... .. 5 ... ... : ... .. . ... ...
ROW 1F : ... .. . ... ... ... : ... .. . ... ... ... : ... .. . ... : ... .. . ... : ... .. . ... ... : ... .. . ... ... : ... .. . ... ... : ... .. . ... ...
ROW 20 : ... .. . ... ... ... : ... .. . ... ... ... : ... .. . ... : ... .. . ... : ... .. . ... ... : ... .. . ... ... : ... .. . ... ... : ... .. . ... ...
ROW 21 : ... .. . ... ... ... : ... .. . ... ... ... : ... .. . ... : ... .. . ... : ... .. . ... ... : ... .. . ... ... : ... .. . ... ... : ... .. . ... ...
ROW 22 : ... .. . ... ... ... : ... .. . ... ... ... : ... .. . ... : ... .. . ... : ... .. . ... ... : ... .. . ... ... : ... .. . ... ... : ... .. . ... ...
ROW 23 : ... .. . ... ... ... : ... .. . ... ... ... : ... .. . ... : ... .. . ... : ... .. . ... ... : ... .. . ... ... : ... .. . ... ... : ... .. . ... ...
ROW 24 : ... .. . ... ... ... : ... .. . ... ... ... : ... .. . ... : ... .. . ... : ... .. . ... ... : ... .. . ... ... : ... .. . ... ... : ... .. . ... ...
ROW 25 : ... .. . ... ... ... : ... .. . ... ... ... : ... .. . ... : ... .. . ... : ... .. . ... ... : ... .. . ... ... : ... .. . ... ... : ... .. . ... ...
ROW 26 : ... .. . ... ... ... : ... .. . ... ... ... : ... .. . ... : ... .. . ... : ... .. . ... ... : ... .. . ... ... : ... .. . ... ... : ... .. . ... ...
ROW 27 : ... .. . ... ... ... : ... .. . ... ... ... : ... .. . ... : ... .. . ... : ... .. . ... ... : ... .. . ... ... : ... .. . ... ... : ... .. . ... ...
ROW 28 : ... .. . ... ... ... : ... .. . ... ... ... : ... .. . ... : ... .. . ... : ... .. . ... ... : ... .. . ... ... : ... .. . ... ... : ... .. . ... ...
ROW 29 : ... .. . ... ... ... : ... .. . ... ... ... : ... .. . ... : ... .. . ... : ... .. . ... ... : ... .. . ... ... : ... .. . ... ... : ... .. . ... ...
ROW 2A : ... .. . ... ... ... : ... .. . ... ... ... : ... .. . ... : ... .. . ... : ... .. . ... ... : ... .. . ... ... : ... .. . ... ... : ... .. . ... ...
ROW 2B : ... .. . ... ... ... : ... .. . ... ... ... : ... .. . ... : ... .. . ... : ... .. . ... ... : ... .. . ... ... : ... .. . ... ... : ... .. . ... ...
ROW 2C : ... .. . ... ... ... : ... .. . ... ... ... : ... .. . ... : ... .. . ... : ... .. . ... ... : ... .. . ... ... : ... .. . ... ... : ... .. . ... ...
ROW 2D : ... .. . ... ... ... : ... .. . ... ... ... : ... .. . ... : ... .. . ... : ... .. . ... ... : ... .. . ... ... : ... .. . ... ... : ... .. . ... ...
ROW 2E : ... .. . ... ... ... : ... .. . ... ... ... : ... .. . ... : ... .. . ... : ... .. . ... ... : ... .. . ... ... : ... .. . ... ... : ... .. . ... ...
ROW 2F : ... .. . ... ... ... : ... .. . ... ... ... : ... .. . ... : ... .. . ... : ... .. . ... ... : ... .. . ... ... : ... .. . ... ... : ... .. . ... ...
ROW 30 : ... .. . ... ... ... : ... .. . ... ... ... : ... .. . ... : ... .. . ... : ... .. . ... ... : ... .. . ... ... : ... .. . ... ... : ... .. . ... ...
ROW 31 : ... .. . ... ... ... : ... .. . ... ... ... : ... .. . ... : ... .. . ... : ... .. . ... ... : ... .. . ... ... : ... .. . ... ... : ... .. . ... ...
ROW 32 : ... .. . ... ... ... : ... .. . ... ... ... : ... .. . ... : ... .. . ... : ... .. . ... ... : ... .. . ... ... : ... .. . ... ... : ... .. . ... ...
ROW 33 : ... .. . ... ... ... : ... .. . ... ... ... : ... .. . ... : ... .. . ... : ... .. . ... ... : ... .. . ... ... : ... .. . ... ... : ... .. . ... ...
ROW 34 : ... .. . ... ... ... : ... .. . ... ... ... : ... .. . ... : ... .. . ... : ... .. . ... ... : ... .. . ... ... : ... .. . ... ... : ... .. . ... ...
ROW 35 : ... .. . ... ... ... : ... .. . ... ... ... : ... .. . ... : ... .. . ... : ... .. . ... ... : ... .. . ... ... : ... .. . ... ... : ... .. . ... ...
ROW 36 : ... .. . ... ... ... : ... .. . ... ... ... : ... .. . ... : ... .. . ... : ... .. . ... ... : ... .. . ... ... : ... .. . ... ... : ... .. . ... ...
ROW 37 : ... .. . ... ... ... : ... .. . ... ... ... : ... .. . ... : ... .. . ... : ... .. . ... ... : ... .. . ... ... : ... .. . ... ... : ... .. . ... ...
ROW 38 : ... .. . ... ... ... : ... .. . ... ... ... : ... .. . ... : ... .. . ... : ... .. . ... ... : ... .. . ... ... : ... .. . ... ... : ... .. . ... ...
ROW 39 : ... .. . ... ... ... : ... .. . ... ... ... : ... .. . ... : ... .. . ... : ... .. . ... ... : ... .. . ... ... : ... .. . ... ... : ... .. . ... ...
ROW 3A : ... .. . ... ... ... : ... .. . ... ... ... : ... .. . ... : ... .. . ... : ... .. . ... ... : ... .. . ... ... : ... .. . ... ... : ... .. . ... ...
ROW 3B : ... .. . ... ... ... : ... .. . ... ... ... : ... .. . ... : ... .. . ... : ... .. . ... ... : ... .. . ... ... : ... .. . ... ... : ... .. . ... ...
ROW 3C : ... .. . ... ... ... : ... .. . ... ... ... : ... .. . ... : ... .. . ... : ... .. . ... ... : ... .. . ... ... : ... .. . ... ... : ... .. . ... ...
ROW 3D : ... .. . ... ... ... : ... .. . ... ... ... : ... .. . ... : ... .. . ... : ... .. . ... ... : ... .. . ... ... : ... .. . ... ... : ... .. . ... ...
ROW 3E : ... .. . ... ... ... : ... .. . ... ... ... : ... .. . ... : ... .. . ... : ... .. . ... ... : ... .. . ... ... : ... .. . ... ... : ... .. . ... ...
ROW 3F : ... .. . ... ... ... : ... .. . ... ... ... : ... .. . ... : ... .. . ... : ... .. . ... ... : ... .. . ... ... : ... .. . ... ... : ... .. . ... ...
ROW 40 : ... .. . ... ... ... : ... .. . ... ... ... : ... .. . ... : ... .. . ... : ... .. . ... ... : ... .. . ... ... : ... .. . ... ... : ... .. . ... ...
ROW 41 : ... .. . ... ... ... : ... .. . ... ... ... : ... .. . ... : ... .. . ... : ... .. . ... ... : ... .. . ... ... : ... .. . ... ... : ... .. . ... ...
ROW 42 : ... .. . ... ... ... : ... .. . ... ... ... : ... .. . ... : ... .. . ... : ... .. . ... ... : ... .. . ... ... : ... .. . ... ... : ... .. . ... ...
ROW 43 : ... .. . ... ... ... : ... .. . ... ... ... : ... .. . ... : ... .. . ... : ... .. . ... ... : ... .. . ... ... : ... .. . ... ... : ... .. . ... ...
ROW 44 : ... .. . ... ... ... : ... .. . ... ... ... : ... .. . ... : ... .. . ... : ... .. . ... ... : ... .. . ... ... : ... .. . ... ... : ... .. . ... ...
ROW 45 : ... .. . ... ... ... : ... .. . ... ... ... : ... .. . ... : ... .. . ... : ... .. . ... ... : ... .. . ... ... : ... .. . ... ... : ... .. . ... ...
ROW 46 : ... .. . ... ... ... : ... .. . ... ... ... : ... .. . ... : ... .. . ... : ... .. . ... ... : ... .. . ... ... : ... .. . ... ... : ... .. . ... ...
ROW 47 : ... .. . ... ... ... : ... .. . ... ... ... : ... .. . ... : ... .. . ... : ... .. . ... ... : ... .. . ... ... : ... .. . ... ... : ... .. . ... ...
ROW 48 : ... .. . ... ... ... : ... .. . ... ... ... : ... .. . ... : ... .. . ... : ... .. . ... ... : ... .. . ... ... : ... .. . ... ... : ... .. . ... ...
ROW 49 : ... .. . ... ... ... : ... .. . ... ... ... : ... .. . ... : ... .. . ... : ... .. . ... ... : ... .. . ... ... : ... .. . ... ... : ... .. . ... ...
ROW 4A : ... .. . ... ... ... : ... .. . ... ... ... : ... .. . ... : ... .. . ... : ... .. . ... ... : ... .. . ... ... : ... .. . ... ... : ... .. . ... ...
ROW 4B : ... .. . ... ... ... : ... .. . ... ... ... : ... .. . ... : ... .. . ... : ... .. . ... ... : ... .. . ... ... : ... .. . ... ... : ... .. . ... ...
ROW 4C : ... .. . ... ... ... : ... .. . ... ... ... : ... .. . ... : ... .. . ... : ... .. . ... ... : ... .. . ... ... : ... .. . ... ... : ... .. . ... ...
ROW 4D : ... .. . ... ... ... : ... .. . ... ... ... : ... .. . ... : ... .. . ... : ... .. . ... ... : ... .. . ... ... : ... .. . ... ... : ... .. . ... ...
ROW 4E : ... .. . ... ... ... : ... .. . ... ... ... : ... .. . ... : ... .. . ... : ... .. . ... ... : ... .. . ... ... : ... .. . ... ... : ... .. . ... ...
ROW 4F : ... .. . ... ... ... : ... .. . ... ... ... : ... .. . ... : ... .. . ... : ... .. . ... ... : ... .. . ... ... : ... .. . ... ... : ... .. . ... ...
ROW 50 : ... .. . ... ... ... : ... .. . ... ... ... : ... .. . ... : ... .. . ... : ... .. . ... ... : ... .. . ... ... : ... .. . ... ... : ... .. . ... ...
ROW 51 : ... .. . ... ... ... : ... .. . ... ... ... : ... .. . ... : ... .. . ... : ... .. . ... ... : ... .. . ... ... : ... .. . ... ... : ... .. . ... ...
ROW 52 : ... .. . ... ... ... : ... .. . ... ... ... : ... .. . ... : ... .. . ... : ... .. . ... ... : ... .. . ... ... : ... .. . ... ... : ... .. . ... ...
ROW 53 : ... .. . ... ... ... : ... .. . ... ... ... : ... .. . ... : ... .. . ... : ... .. . ... ... : ... .. . ... ... : ... .. . ... ... : ... .. . ... ...
ROW 54 : ... .. . ... ... ... : ... .. . ... ... ... : ... .. . ... : ... .. . ... : ... .. . ... ... : ... .. . ... ... : ... .. . ... ... : ... .. . ... ...
ROW 55 : ... .. . ... ... ... : ... .. . ... ... ... : ... .. . ... : ... .. . ... : ... .. . ... ... : ... .. . ... ... : ... .. . ... ... : ... .. . ... ...
ROW 56 : ... .. . ... ... ... : ... .. . ... ... ... : ... .. . ... : ... .. . ... : ... .. . ... ... : ... .. . ... ... : ... .. . ... ... : ... .. . ... ...
ROW 57 : ... .. . ... ... ... : ... .. . ... ... ... : ... .. . ... : ... .. . ... : ... .. . ... ... : ... .. . ... ... : ... .. . ... ... : ... .. . ... ...
ROW 58 : ... .. . ... ... ... : ... .. . ... ... ... : ... .. . ... : ... .. . ... : ... .. . ... ... : ... .. . ... ... : ... .. . ... ... : ... .. . ... ...
ROW 59 : ... .. . ... ... ... : ... .. . ... ... ... : ... .. . ... : ... .. . ... : ... .. . ... ... : ... .. . ... ... : ... .. . ... ... : ... .. . ... ...
ROW 5A : ... .. . ... ... ... : ... .. . ... ... ... : ... .. . ... : ... .. . ... : ... .. . ... ... : ... .. . ... ... : ... .. . ... ... : ... .. . ... ...
ROW 5B : ... .. . ... ... ... : ... .. . ... ... ... : ... .. . ... : ... .. . ... : ... .. . ... ... : ... .. . ... ... : ... .. . ... ... : ... .. . ... ...
ROW 5C : ... .. . ... ... ... : ... .. . ... ... ... : ... .. . ... : ... .. . ... : ... .. . ... ... : ... .. . ... ... : ... .. . ... ... : ... .. . ... ...
ROW 5D : ... .. . ... ... ... : ... .. . ... ... ... : ... .. . ... : ... .. . ... : ... .. . ... ... : ... .. . ... ... : ... .. . ... ... : ... .. . ... ...
ROW 5E : ... .. . ... ... ... : ... .. . ... ... ... : ... .. . ... : ... .. . ... : ... .. . ... ... : ... .. . ... ... : ... .. . ... ... : ... .. . ... ...
ROW 5F : ... .. . ... ... ... : ... .. . ... ... ... : ... .. . ... : ... .. . ... : ... .. . ... ... : ... .. . ... ... : ... .. . ... ... : ... .. . ... ...
ROW 60 : ... .. . ... ... ... : ... .. . ... ... ... : ... .. . ... : ... .. . ... : ... .. . ... ... : ... .. . ... ... : ... .. . ... ... : ... .. . ... ...
ROW 61 : ... .. . ... ... ... : ... .. . ... ... ... : ... .. . ... : ... .. . ... : ... .. . ... ... : ... .. . ... ... : ... .. . ... ... : ... .. . ... ...
ROW 62 : ... .. . ... ... ... : ... .. . ... ... ... : ... .. . ... : ... .. . ... : ... .. . ... ... : ... .. . ... ... : ... .. . ... ... : ... .. . ... ...
ROW 63 : ... .. . ... ... ... : ... .. . ... ... ... : ... .. . ... : ... .. . ... : ... .. . ... ... : ... .. . ... ... : ... .. . ... ... : ... .. . ... ...
ROW 64 : ... .. . ... ... ... : ... .. . ... ... ... : ... .. . ... : ... .. . ... : ... .. . ... ... : ... .. . ... ... : ... .. . ... ... : ... .. . ... ...
ROW 65 : ... .. . ... ... ... : ... .. . ... ... ... : ... .. . ... : ... .. . ... : ... .. . ... ... : ... .. . ... ... : ... .. . ... ... : ... .. . ... ...
ROW 66 : ... .. . ... ... ... : ... .. . ... ... ... : ... .. . ... : ... .. . ... : ... .. . ... ... : ... .. . ... ... : ... .. . ... ... : ... .. . ... ...
ROW 67 : ... .. . ... ... ... : ... .. . ... ... ... : ... .. . ... : ... .. . ... : ... .. . ... ... : ... .. . ... ... : ... .. . ... ... : ... .. . ... ...
ROW 68 : ... .. . ... ... ... : ... .. . ... ... ... : ... .. . ... : ... .. . ... : ... .. . ... ... : ... .. . ... ... : ... .. . ... ... : ... .. . ... ...
ROW 69 : ... .. . ... ... ... : ... .. . ... ... ... : ... .. . ... : ... .. . ... : ... .. . ... ... : ... .. . ... ... : ... .. . ... ... : ... .. . ... ...
ROW 6A : ... .. . ... ... ... : ... .. . ... ... ... : ... .. . ... : ... .. . ... : ... .. . ... ... : ... .. . ... ... : ... .. . ... ... : ... .. . ... ...
ROW 6B : ... .. . ... ... ... : ... .. . ... ... ... : ... .. . ... : ... .. . ... : ... .. . ... ... : ... .. . ... ... : ... .. . ... ... : ... .. . ... ...
ROW 6C : ... .. . ... ... ... : ... .. . ... ... ... : ... .. . ... : ... .. . ... : ... .. . ... ... : ... .. . ... ... : ... .. . ... ... : ... .. . ... ...
ROW 6D : ... .. . ... ... ... : ... .. . ... ... ... : ... .. . ... : ... .. . ... : ... .. . ... ... : ... .. . ... ... : ... .. . ... ... : ... .. . ... ...
ROW 6E : ... .. . ... ... ... : ... .. . ... ... ... : ... .. . ... : ... .. . ... : ... .. . ... ... : ... .. . ... ... : ... .. . ... ... : ... .. . ... ...
ROW 6F : ... .. . ... ... ... : ... .. . ... ... ... : ... .. . ... : ... .. . ... : ... .. . ... ... : ... .. . ... ... : ... .. . ... ... : ... .. . ... ...
ROW 70 : ... .. . ... ... ... : ... .. . ... ... ... : ... .. . ... : ... .. . ... : ... .. . ... ... : ... .. . ... ... : ... .. . ... ... : ... .. . ... ...
ROW 71 : ... .. . ... ... ... : ... .. . ... ... ... : ... .. . ... : ... .. . ... : ... .. . ... ... : ... .. . ... ... : ... .. . ... ... : ... .. . ... ...
ROW 72 : ... .. . ... ... ... : ... .. . ... ... ... : ... .. . ... : ... .. . ... : ... .. . ... ... : ... .. . ... ... : ... .. . ... ... : ... .. . ... ...
ROW 73 : ... .. . ... ... ... : ... .. . ... ... ... : ... .. . ... : ... .. . ... : ... .. . ... ... : ... .. . ... ... : ... .. . ... ... : ... .. . ... ...
ROW 74 : ... .. . ... ... ... : ... .. . ... ... ... : ... .. . ... : ... .. . ... : ... .. . ... ... : ... .. . ... ... : ... .. . ... ... : ... .. . ... ...
ROW 75 : ... .. . ... ... ... : ... .. . ... ... ... : ... .. . ... : ... .. . ... : ... .. . ... ... : ... .. . ... ... : ... .. . ... ... : ... .. . ... ...
ROW 76 : ... .. . ... ... ... : ... .. . ... ... ... : ... .. . ... : ... .. . ... : ... .. . ... ... : ... .. . ... ... : ... .. . ... ... : ... .. . ... ...
ROW 77 : ... .. . ... ... ... : ... .. . ... ... ... : ... .. . ... : ... .. . ... : ... .. . ... ... : ... .. . ... ... : ... .. . ... ... : ... .. . ... ...
ROW 78 : ... .. . ... ... ... : ... .. . ... ... ... : ... .. . ... : ... .. . ... : ... .. . ... ... : ... .. . ... ... : ... .. . ... ... : ... .. . ... ...
ROW 79 : ... .. . ... ... ... : ... .. . ... ... ... : ... .. . ... : ... .. . ... : ... .. . ... ... : ... .. . ... ... : ... .. . ... ... : ... .. . ... ...
ROW 7A : ... .. . ... ... ... : ... .. . ... ... ... : ... .. . ... : ... .. . ... : ... .. . ... ... : ... .. . ... ... : ... .. . ... ... : ... .. . ... ...
ROW 7B : ... .. . ... ... ... : ... .. . ... ... ... : ... .. . ... : ... .. . ... : ... .. . ... ... : ... .. . ... ... : ... .. . ... ... : ... .. . ... ...
ROW 7C : ... .. . ... ... ... : ... .. . ... ... ... : ... .. . ... : ... .. . ... : ... .. . ... ... : ... .. . ... ... : ... .. . ... ... : ... .. . ... ...
ROW 7D : ... .. . ... ... ... : ... .. . ... ... ... : ... .. . ... : ... .. . ... : ... .. . ... ... : ... .. . ... ... : ... .. . ... ... : ... .. . ... ...
ROW 7E : ... .. . ... ... ... : ... .. . ... ... ... : ... .. . ... : ... .. . ... : ... .. . ... ... : ... .. . ... ... : ... .. . ... ... : ... .. . ... ...
ROW 7F : ... .. . ... ... ... : ... .. . ... ... ... : ... .. . ... : ... .. . ... : ... .. . ... ... : ... .. . ... ... : ... .. . ... ... : ... .. . ... ...
ROW 80 : ... .. . ... ... ... : ... .. . ... ... ... : ... .. . ... : ... .. . ... : ... .. . ... ... : ... .. . ... ... : ... .. . ... ... : ... .. . ... ...
ROW 81 : ... .. . ... ... ... : ... .. . ... ... ... : ... .. . ... : ... .. . ... : ... .. . ... ... : ... .. . ... ... : ... .. . ... ... : ... .. . ... ...
ROW 82 : ... .. . ... ... ... : ... .. . ... ... ... : ... .. . ... : ... .. . ... : ... .. . ... ... : ... .. . ... ... : ... .. . ... ... : ... .. . ... ...
ROW 83 : ... .. . ... ... ... : ... .. . ... ... ... : ... .. . ... : ... .. . ... : ... .. . ... ... : ... .. . ... ... : ... .. . ... ... : ... .. . ... ...
ROW 84 : ... .. . ... ... ... : ... .. . ... ... ... : ... .. . ... : ... .. . ... : ... .. . ... ... : ... .. . ... ... : ... .. . ... ... : ... .. . ... ...
ROW 85 : ... .. . ... ... ... : ... .. . ... ... ... : ... .. . ... : ... .. . ... : ... .. . ... ... : ... .. . ... ... : ... .. . ... ... : ... .. . ... ...
ROW 86 : ... .. . ... ... ... : ... .. . ... ... ... : ... .. . ... : ... .. . ... : ... .. . ... ... : ... .. . ... ... : ... .. . ... ... : ... .. . ... ...
ROW 87 : ... .. . ... ... ... : ... .. . ... ... ... : ... .. . ... : ... .. . ... : ... .. . ... ... : ... .. . ... ... : ... .. . ... ... : ... .. . ... ...
ROW 88 : ... .. . ... ... ... : ... .. . ... ... ... : ... .. . ... : ... .. . ... : ... .. . ... ... : ... .. . ... ... : ... .. . ... ... : ... .. . ... ...
ROW 89 : ... .. . ... ... ... : ... .. . ... ... ... : ... .. . ... : ... .. . ... : ... .. . ... ... : ... .. . ... ... : ... .. . ... ... : ... .. . ... ...
ROW 8A : ... .. . ... ... ... : ... .. . ... ... ... : ... .. . ... : ... .. . ... : ... .. . ... ... : ... .. . ... ... : ... .. . ... ... : ... .. . ... ...
ROW 8B : ... .. . ... ... ... : ... .. . ... ... ... : ... .. . ... : ... .. . ... : ... .. . ... ... : ... .. . ... ... : ... .. . ... ... : ... .. . ... ...
ROW 8C : ... .. . ... ... ... : ... .. . ... ... ... : ... .. . ... : ... .. . ... : ... .. . ... ... : ... .. . ... ... : ... .. . ... ... : ... .. . ... ...
ROW 8D : ... .. . ... ... ... : ... .. . ... ... ... : ... .. . ... : ... .. . ... : ... .. . ... ... : ... .. . ... ... : ... .. . ... ... : ... .. . ... ...
ROW 8E : ... .. . ... ... ... : ... .. . ... ... ... : ... .. . ... : ... .. . ... : ... .. . ... ... : ... .. . ... ... : ... .. . ... ... : ... .. . ... ...
ROW 8F : ... .. . ... ... ... : ... .. . ... ... ... : ... .. . ... : ... .. . ... : ... .. . ... ... : ... .. . ... ... : ... .. . ... ... : ... .. . ... ...
ROW 90 : ... .. . ... ... ... : ... .. . ... ... ... : ... .. . ... : ... .. . ... : ... .. . ... ... : ... .. . ... ... : ... .. . ... ... : ... .. . ... ...
ROW 91 : ... .. . ... ... ... : ... .. . ... ... ... : ... .. . ... : ... .. . ... : ... .. . ... ... : ... .. . ... ... : ... .. . ... ... : ... .. . ... ...
ROW 92 : ... .. . ... ... ... : ... .. . ... ... ... : ... .. . ... : ... .. . ... : ... .. . ... ... : ... .. . ... ... : ... .. . ... ... : ... .. . ... ...
ROW 93 : ... .. . ... ... ... : ... .. . ... ... ... : ... .. . ... : ... .. . ... : ... .. . ... ... : ... .. . ... ... : ... .. . ... ... : ... .. . ... ...
ROW 94 : ... .. . ... ... ... : ... .. . ... ... ... : ... .. . ... : ... .. . ... : ... .. . ... ... : ... .. . ... ... : ... .. . ... ... : ... .. . ... ...
ROW 95 : ... .. . ... ... ... : ... .. . ... ... ... : ... .. . ... : ... .. . ... : ... .. . ... ... : ... .. . ... ... : ... .. . ... ... : ... .. . ... ...
ROW 96 : ... .. . ... ... ... : ... .. . ... ... ... : ... .. . ... : ... .. . ... : ... .. . ... ... : ... .. . ... ... : ... .. . ... ... : ... .. . ... ...
ROW 97 : ... .. . ... ... ... : ... .. . ... ... ... : ... .. . ... : ... .. . ... : ... .. . ... ... : ... .. . ... ... : ... .. . ... ... : ... .. . ... ...
ROW 98 : ... .. . ... ... ... : ... .. . ... ... ... : ... .. . ... : ... .. . ... : ... .. . ... ... : ... .. . ... ... : ... .. . ... ... : ... .. . ... ...
ROW 99 : ... .. . ... ... ... : ... .. . ... ... ... : ... .. . ... : ... .. . ... : ... .. . ... ... : ... .. . ... ... : ... .. . ... ... : ... .. . ... ...
ROW 9A : ... .. . ... ... ... : ... .. . ... ... ... : ... .. . ... : ... .. . ... : ... .. . ... ... : ... .. . ... ... : ... .. . ... ... : ... .. . ... ...
ROW 9B : ... .. . ... ... ... : ... .. . ... ... ... : ... .. . ... : ... .. . ... : ... .. . ... ... : ... .. . ... ... : ... .. . ... ... : ... .. . ... ...
ROW 9C : ... .. . ... ... ... : ... .. . ... ... ... : ... .. . ... : ... .. . ... : ... .. . ... ... : ... .. . ... ... : ... .. . ... ... : ... .. . ... ...
ROW 9D : ... .. . ... ... ... : ... .. . ... ... ... : ... .. . ... : ... .. . ... : ... .. . ... ... : ... .. . ... ... : ... .. . ... ... : ... .. . ... ...
ROW 9E : ... .. . ... ... ... : ... .. . ... ... ... : ... .. . ... : ... .. . ... : ... .. . ... ... : ... .. . ... ... : ... .. . ... ... : ... .. . ... ...
ROW 9F : ... .. . ... ... ... : ... .. . ... ... ... : ... .. . ... : ... .. . ... : ... .. . ... ... : ... .. . ... ... : ... .. . ... ... : ... .. . ... ...
ROW A0 : ... .. . ... ... ... : ... .. . ... ... ... : ... .. . ... : ... .. . ... : ... .. . ... ... : ... .. . ... ... : ... .. . ... ... : ... .. . ... ...
ROW A1 : ... .. . ... ... ... : ... .. . ... ... ... : ... .. . ... : ... .. . ... : ... .. . ... ... : ... .. . ... ... : ... .. . ... ... : ... .. . ... ...
ROW A2 : ... .. . ... ... ... : ... .. . ... ... ... : ... .. . ... : ... .. . ... : ... .. . ... ... : ... .. . ... ... : ... .. . ... ... : ... .. . ... ...
ROW A3 : ... .. . ... ... ... : ... .. . ... ... ... : ... .. . ... : ... .. . ... : ... .. . ... ... : ... .. . ... ... : ... .. . ... ... : ... .. . ... ...
ROW A4 : ... .. . ... ... ... : ... .. . ... ... ... : ... .. . ... : ... .. . ... : ... .. . ... ... : ... .. . ... ... : ... .. . ... ... : ... .. . ... ...
ROW A5 : ... .. . ... ... ... : ... .. . ... ... ... : ... .. . ... : ... .. . ... : ... .. . ... ... : ... .. . ... ... : ... .. . ... ... : ... .. . ... ...
ROW A6 : ... .. . ... ... ... : ... .. . ... ... ... : ... .. . ... : ... .. . ... : ... .. . ... ... : ... .. . ... ... : ... .. . ... ... : ... .. . ... ...
ROW A7 : ... .. . ... ... ... : ... .. . ... ... ... : ... .. . ... : ... .. . ... : ... .. . ... ... : ... .. . ... ... : ... .. . ... ... : ... .. . ... ...
ROW A8 : ... .. . ... ... ... : ... .. . ... ... ... : ... .. . ... : ... .. . ... : ... .. . ... ... : ... .. . ... ... : ... .. . ... ... : ... .. . ... ...
ROW A9 : ... .. . ... ... ... : ... .. . ... ... ... : ... .. . ... : ... .. . ... : ... .. . ... ... : ... .. . ... ... : ... .. . ... ... : ... .. . ... ...
ROW AA : ... .. . ... ... ... : ... .. . ... ... ... : ... .. . ... : ... .. . ... : ... .. . ... ... : ... .. . ... ... : ... .. . ... ... : ... .. . ... ...
ROW AB : ... .. . ... ... ... : ... .. . ... ... ... : ... .. . ... : ... .. . ... : ... .. . ... ... : ... .. . ... ... : ... .. . ... ... : ... .. . ... ...
ROW AC : ... .. . ... ... ... : ... .. . ... ... ... : ... .. . ... : ... .. . ... : ... .. . ... ... : ... .. . ... ... : ... .. . ... ... : ... .. . ... ...
ROW AD : ... .. . ... ... ... : ... .. . ... ... ... : ... .. . ... : ... .. . ... : ... .. . ... ... : ... .. . ... ... : ... .. . ... ... : ... .. . ... ...
ROW AE : ... .. . ... ... ... : ... .. . ... ... ... : ... .. . ... : ... .. . ... : ... .. . ... ... : ... .. . ... ... : ... .. . ... ... : ... .. . ... ...
ROW AF : ... .. . ... ... ... : ... .. . ... ... ... : ... .. . ... : ... .. . ... : ... .. . ... ... : ... .. . ... ... : ... .. . ... ... : ... .. . ... ...
ROW B0 : ... .. . ... ... ... : ... .. . ... ... ... : ... .. . ... : ... .. . ... : ... .. . ... ... : ... .. . ... ... : ... .. . ... ... : ... .. . ... ...
ROW B1 : ... .. . ... ... ... : ... .. . ... ... ... : ... .. . ... : ... .. . ... : ... .. . ... ... : ... .. . ... ... : ... .. . ... ... : ... .. . ... ...
ROW B2 : ... .. . ... ... ... : ... .. . ... ... ... : ... .. . ... : ... .. . ... : ... .. . ... ... : ... .. . ... ... : ... .. . ... ... : ... .. . ... ...
ROW B3 : ... .. . ... ... ... : ... .. . ... ... ... : ... .. . ... : ... .. . ... : ... .. . ... ... : ... .. . ... ... : ... .. . ... ... : ... .. . ... ...
ROW B4 : ... .. . ... ... ... : ... .. . ... ... ... : ... .. . ... : ... .. . ... : ... .. . ... ... : ... .. . ... ... : ... .. . ... ... : ... .. . ... ...
ROW B5 : ... .. . ... ... ... : ... .. . ... ... ... : ... .. . ... : ... .. . ... : ... .. . ... ... : ... .. . ... ... : ... .. . ... ... : ... .. . ... ...
ROW B6 : ... .. . ... ... ... : ... .. . ... ... ... : ... .. . ... : ... .. . ... : ... .. . ... ... : ... .. . ... ... : ... .. . ... ... : ... .. . ... ...
ROW B7 : ... .. . ... ... ... : ... .. . ... ... ... : ... .. . ... : ... .. . ... : ... .. . ... ... : ... .. . ... ... : ... .. . ... ... : ... .. . ... ...
ROW B8 : ... .. . ... ... ... : ... .. . ... ... ... : ... .. . ... : ... .. . ... : ... .. . ... ... : ... .. . ... ... : ... .. . ... ... : ... .. . ... ...
ROW B9 : ... .. . ... ... ... : ... .. . ... ... ... : ... .. . ... : ... .. . ... : ... .. . ... ... : ... .. . ... ... : ... .. . ... ... : ... .. . ... ...
ROW BA : ... .. . ... ... ... : ... .. . ... ... ... : ... .. . ... : ... .. . ... : ... .. . ... ... : ... .. . ... ... : ... .. . ... ... : ... .. . ... ...
ROW BB : ... .. . ... ... ... : ... .. . ... ... ... : ... .. . ... : ... .. . ... : ... .. . ... ... : ... .. . ... ... : ... .. . ... ... : ... .. . ... ...
ROW BC : ... .. . ... ... ... : ... .. . ... ... ... : ... .. . ... : ... .. . ... : ... .. . ... ... : ... .. . ... ... : ... .. . ... ... : ... .. . ... ...
ROW BD : ... .. . ... ... ... : ... .. . ... ... ... : ... .. . ... : ... .. . ... : ... .. . ... ... : ... .. . ... ... : ... .. . ... ... : ... .. . ... ...
ROW BE : ... .. . ... ... ... : ... .. . ... ... ... : ... .. . ... : ... .. . ... : ... .. . ... ... : ... .. . ... ... : ... .. . ... ... : ... .. . ... ...
ROW BF : ... .. . ... ... ... : ... .. . ... ... ... : ... .. . ... : ... .. . ... : ... .. . ... ... : ... .. . ... ... : ... .. . ... ... : ... .. . ... ...
ROW C0 : ... .. . ... ... ... : ... .. . ... ... ... : ... .. . ... : ... .. . ... : ... .. . ... ... : ... .. . ... ... : ... .. . ... ... : ... .. . ... ...
ROW C1 : ... .. . ... ... ... : ... .. . ... ... ... : ... .. . ... : ... .. . ... : ... .. . ... ... : ... .. . ... ... : ... .. . ... ... : ... .. . ... ...
ROW C2 : ... .. . ... ... ... : ... .. . ... ... ... : ... .. . ... : ... .. . ... : ... .. . ... ... : ... .. . ... ... : ... .. . ... ... : ... .. . ... ...
ROW C3 : ... .. . ... ... ... : ... .. . ... ... ... : ... .. . ... : ... .. . ... : ... .. . ... ... : ... .. . ... ... : ... .. . ... ... : ... .. . ... ...
ROW C4 : ... .. . ... ... ... : ... .. . ... ... ... : ... .. . ... : ... .. . ... : ... .. . ... ... : ... .. . ... ... : ... .. . ... ... : ... .. . ... ...
ROW C5 : ... .. . ... ... ... : ... .. . ... ... ... : ... .. . ... : ... .. . ... : ... .. . ... ... : ... .. . ... ... : ... .. . ... ... : ... .. . ... ...
ROW C6 : ... .. . ... ... ... : ... .. . ... ... ... : ... .. . ... : ... .. . ... : ... .. . ... ... : ... .. . ... ... : ... .. . ... ... : ... .. . ... ...
ROW C7 : ... .. . ... ... ... : ... .. . ... ... ... : ... .. . ... : ... .. . ... : ... .. . ... ... : ... .. . ... ... : ... .. . ... ... : ... .. . ... ...
ROW C8 : ... .. . ... ... ... : ... .. . ... ... ... : ... .. . ... : ... .. . ... : ... .. . ... ... : ... .. . ... ... : ... .. . ... ... : ... .. . ... ...
ROW C9 : ... .. . ... ... ... : ... .. . ... ... ... : ... .. . ... : ... .. . ... : ... .. . ... ... : ... .. . ... ... : ... .. . ... ... : ... .. . ... ...
ROW CA : ... .. . ... ... ... : ... .. . ... ... ... : ... .. . ... : ... .. . ... : ... .. . ... ... : ... .. . ... ... : ... .. . ... ... : ... .. . ... ...
ROW CB : ... .. . ... ... ... : ... .. . ... ... ... : ... .. . ... : ... .. . ... : ... .. . ... ... : ... .. . ... ... : ... .. . ... ... : ... .. . ... ...
ROW CC : ... .. . ... ... ... : ... .. . ... ... ... : ... .. . ... : ... .. . ... : ... .. . ... ... : ... .. . ... ... : ... .. . ... ... : ... .. . ... ...
ROW CD : ... .. . ... ... ... : ... .. . ... ... ... : ... .. . ... : ... .. . ... : ... .. . ... ... : ... .. . ... ... : ... .. . ... ... : ... .. . ... ...
ROW CE : ... .. . ... ... ... : ... .. . ... ... ... : ... .. . ... : ... .. . ... : ... .. . ... ... : ... .. . ... ... : ... .. . ... ... : ... .. . ... ...
ROW CF : ... .. . ... ... ... : ... .. . ... ... ... : ... .. . ... : ... .. . ... : ... .. . ... ... : ... .. . ... ... : ... .. . ... ... : ... .. . ... ...
ROW D0 : ... .. . ... ... ... : ... .. . ... ... ... : ... .. . ... : ... .. . ... : ... .. . ... ... : ... .. . ... ... : ... .. . ... ... : ... .. . ... ...
ROW D1 : ... .. . ... ... ... : ... .. . ... ... ... : ... .. . ... : ... .. . ... : ... .. . ... ... : ... .. . ... ... : ... .. . ... ... : ... .. . ... ...
ROW D2 : ... .. . ... ... ... : ... .. . ... ... ... : ... .. . ... : ... .. . ... : ... .. . ... ... : ... .. . ... ... : ... .. . ... ... : ... .. . ... ...
ROW D3 : ... .. . ... ... ... : ... .. . ... ... ... : ... .. . ... : ... .. . ... : ... .. . ... ... : ... .. . ... ... : ... .. . ... ... : ... .. . ... ...
ROW D4 : ... .. . ... ... ... : ... .. . ... ... ... : ... .. . ... : ... .. . ... : ... .. . ... ... : ... .. . ... ... : ... .. . ... ... : ... .. . ... ...
ROW D5 : ... .. . ... ... ... : ... .. . ... ... ... : ... .. . ... : ... .. . ... : ... .. . ... ... : ... .. . ... ... : ... .. . ... ... : ... .. . ... ...
ROW D6 : ... .. . ... ... ... : ... .. . ... ... ... : ... .. . ... : ... .. . ... : ... .. . ... ... : ... .. . ... ... : ... .. . ... ... : ... .. . ... ...
ROW D7 : ... .. . ... ... ... : ... .. . ... ... ... : ... .. . ... : ... .. . ... : ... .. . ... ... : ... .. . ... ... : ... .. . ... ... : ... .. . ... ...
ROW D8 : ... .. . ... ... ... : ... .. . ... ... ... : ... .. . ... : ... .. . ... : ... .. . ... ... : ... .. . ... ... : ... .. . ... ... : ... .. . ... ...
ROW D9 : ... .. . ... ... ... : ... .. . ... ... ... : ... .. . ... : ... .. . ... : ... .. . ... ... : ... .. . ... ... : ... .. . ... ... : ... .. . ... ...
ROW DA : ... .. . ... ... ... : ... .. . ... ... ... : ... .. . ... : ... .. . ... : ... .. . ... ... : ... .. . ... ... : ... .. . ... ... : ... .. . ... ...
ROW DB : ... .. . ... ... ... : ... .. . ... ... ... : ... .. . ... : ... .. . ... : ... .. . ... ... : ... .. . ... ... : ... .. . ... ... : ... .. . ... ...
ROW DC : ... .. . ... ... ... : ... .. . ... ... ... : ... .. . ... : ... .. . ... : ... .. . ... ... : ... .. . ... ... : ... .. . ... ... : ... .. . ... ...
ROW DD : ... .. . ... ... ... : ... .. . ... ... ... : ... .. . ... : ... .. . ... : ... .. . ... ... : ... .. . ... ... : ... .. . ... ... : ... .. . ... ...
ROW DE : ... .. . ... ... ... : ... .. . ... ... ... : ... .. . ... : ... .. . ... : ... .. . ... ... : ... .. . ... ... : ... .. . ... ... : ... .. . ... ...
ROW DF : ... .. . ... ... ... : ... .. . ... ... ... : ... .. . ... : ... .. . ... : ... .. . ... ... : ... .. . ... ... : ... .. . ... ... : ... .. . ... ...
ROW E0 : ... .. . ... ... ... : ... .. . ... ... ... : ... .. . ... : ... .. . ... : ... .. . ... ... : ... .. . ... ... : ... .. . ... ... : ... .. . ... ...
ROW E1 : ... .. . ... ... ... : ... .. . ... ... ... : ... .. . ... : ... .. . ... : ... .. . ... ... : ... .. . ... ... : ... .. . ... ... : ... .. . ... ...
ROW E2 : ... .. . ... ... ... : ... .. . ... ... ... : ... .. . ... : ... .. . ... : ... .. . ... ... : ... .. . ... ... : ... .. . ... ... : ... .. . ... ...
ROW E3 : ... .. . ... ... ... : ... .. . ... ... ... : ... .. . ... : ... .. . ... : ... .. . ... ... : ... .. . ... ... : ... .. . ... ... : ... .. . ... ...
ROW E4 : ... .. . ... ... ... : ... .. . ... ... ... : ... .. . ... : ... .. . ... : ... .. . ... ... : ... .. . ... ... : ... .. . ... ... : ... .. . ... ...
ROW E5 : ... .. . ... ... ... : ... .. . ... ... ... : ... .. . ... : ... .. . ... : ... .. . ... ... : ... .. . ... ... : ... .. . ... ... : ... .. . ... ...
ROW E6 : ... .. . ... ... ... : ... .. . ... ... ... : ... .. . ... : ... .. . ... : ... .. . ... ... : ... .. . ... ... : ... .. . ... ... : ... .. . ... ...
ROW E7 : ... .. . ... ... ... : ... .. . ... ... ... : ... .. . ... : ... .. . ... : ... .. . ... ... : ... .. . ... ... : ... .. . ... ... : ... .. . ... ...
ROW E8 : ... .. . ... ... ... : ... .. . ... ... ... : ... .. . ... : ... .. . ... : ... .. . ... ... : ... .. . ... ... : ... .. . ... ... : ... .. . ... ...
ROW E9 : ... .. . ... ... ... : ... .. . ... ... ... : ... .. . ... : ... .. . ... : ... .. . ... ... : ... .. . ... ... : ... .. . ... ... : ... .. . ... ...
ROW EA : ... .. . ... ... ... : ... .. . ... ... ... : ... .. . ... : ... .. . ... : ... .. . ... ... : ... .. . ... ... : ... .. . ... ... : ... .. . ... ...
ROW EB : ... .. . ... ... ... : ... .. . ... ... ... : ... .. . ... : ... .. . ... : ... .. . ... ... : ... .. . ... ... : ... .. . ... ... : ... .. . ... ...
ROW EC : ... .. . ... ... ... : ... .. . ... ... ... : ... .. . ... : ... .. . ... : ... .. . ... ... : ... .. . ... ... : ... .. . ... ... : ... .. . ... ...
ROW ED : ... .. . ... ... ... : ... .. . ... ... ... : ... .. . ... : ... .. . ... : ... .. . ... ... : ... .. . ... ... : ... .. . ... ... : ... .. . ... ...
ROW EE : ... .. . ... ... ... : ... .. . ... ... ... : ... .. . ... : ... .. . ... : ... .. . ... ... : ... .. . ... ... : ... .. . ... ... : ... .. . ... ...
ROW EF : ... .. . ... ... ... : ... .. . ... ... ... : ... .. . ... : ... .. . ... : ... .. . ... ... : ... .. . ... ... : ... .. . ... ... : ... .. . ... ...
ROW F0 : ... .. . ... ... ... : ... .. . ... ... ... : ... .. . ... : ... .. . ... : ... .. . ... ... : ... .. . ... ... : ... .. . ... ... : ... .. . ... ...
ROW F1 : ... .. . ... ... ... : ... .. . ... ... ... : ... .. . ... : ... .. . ... : ... .. . ... ... : ... .. . ... ... : ... .. . ... ... : ... .. . ... ...
ROW F2 : ... .. . ... ... ... : ... .. . ... ... ... : ... .. . ... : ... .. . ... : ... .. . ... ... : ... .. . ... ... : ... .. . ... ... : ... .. . ... ...
ROW F3 : ... .. . ... ... ... : ... .. . ... ... ... : ... .. . ... : ... .. . ... : ... .. . ... ... : ... .. . ... ... : ... .. . ... ... : ... .. . ... ...
ROW F4 : ... .. . ... ... ... : ... .. . ... ... ... : ... .. . ... : ... .. . ... : ... .. . ... ... : ... .. . ... ... : ... .. . ... ... : ... .. . ... ...
ROW F5 : ... .. . ... ... ... : ... .. . ... ... ... : ... .. . ... : ... .. . ... : ... .. . ... ... : ... .. . ... ... : ... .. . ... ... : ... .. . ... ...
ROW F6 : ... .. . ... ... ... : ... .. . ... ... ... : ... .. . ... : ... .. . ... : ... .. . ... ... : ... .. . ... ... : ... .. . ... ... : ... .. . ... ...
ROW F7 : ... .. . ... ... ... : ... .. . ... ... ... : ... .. . ... : ... .. . ... : ... .. . ... ... : ... .. . ... ... : ... .. . ... ... : ... .. . ... ...
ROW F8 : ... .. . ... ... ... : ... .. . ... ... ... : ... .. . ... : ... .. . ... : ... .. . ... ... : ... .. . ... ... : ... .. . ... ... : ... .. . ... ...
ROW F9 : ... .. . ... ... ... : ... .. . ... ... ... : ... .. . ... : ... .. . ... : ... .. . ... ... : ... .. . ... ... : ... .. . ... ... : ... .. . ... ...
ROW FA : ... .. . ... ... ... : ... .. . ... ... ... : ... .. . ... : ... .. . ... : ... .. . ... ... : ... .. . ... ... : ... .. . ... ... : ... .. . ... ...
ROW FB : ... .. . ... ... ... : ... .. . ... ... ... : ... .. . ... : ... .. . ... : ... .. . ... ... : ... .. . ... ... : ... .. . ... ... : ... .. . ... ...
ROW FC : ... .. . ... ... ... : ... .. . ... ... ... : ... .. . ... : ... .. . ... : ... .. . ... ... : ... .. . ... ... : ... .. . ... ... : ... .. . ... ...
ROW FD : ... .. . ... ... ... : ... .. . ... ... ... : ... .. . ... : ... .. . ... : ... .. . ... ... : ... .. . ... ... : ... .. . ... ... : ... .. . ... ...
ROW FE : ... .. . ... ... ... : ... .. . ... ... ... : ... .. . ... : ... .. . ... : ... .. . ... ... : ... .. . ... ... : ... .. . ... ... : ... .. . ... ...
ROW FF : ... .. . ... ... ... : ... .. . ... ... ... : ... .. . ... : ... .. . ... : ... .. . ... ... : ... .. . ... ... : ... .. . ... ... : ... .. . ... ...

# End of export
